0, 0, Header, 1, 18, 240
1, 0, Start_track
1, 0, Sequencer_specific, 10, 0, 0, 91, 35, 1, 0, 5, 6, 42, 0
1, 0, Title_t, "Ludwig van Beethoven - Symphony No. 8 in F Major, Op.93"
1, 0, Instrument_name_t, "Conductor Track"
1, 0, SMPTE_offset, 96, 0, 3, 0, 0
1, 0, MIDI_port, 0
1, 0, Marker_t, "Originally Sequenced 25 Apr 1998"
1, 0, Key_signature, -1, "major"
1, 0, Tempo, 476190
1, 0, Time_signature, 1, 2, 24, 8
1, 240, Time_signature, 3, 2, 24, 8
1, 155040, Tempo, 476190
1, 155184, Tempo, 480000
1, 155328, Tempo, 483870
1, 155472, Tempo, 487804
1, 155616, Tempo, 491803
1, 155760, Tempo, 495867
1, 155904, Tempo, 500000
1, 156048, Tempo, 504201
1, 156192, Tempo, 508474
1, 156336, Tempo, 512820
1, 156480, Tempo, 535714
1, 156720, Tempo, 535714
1, 156840, Tempo, 2000000
1, 157560, Tempo, 178571
1, 157560, End_track
2, 0, Start_track
2, 0, Title_t, "3rd Movement - Tempo di Menuetto"
2, 0, MIDI_port, 0
2, 0, End_track
3, 0, Start_track
3, 0, Title_t, "Sequenced by D. L. Viens 27 Oct 2000"
3, 0, MIDI_port, 0
3, 0, End_track
4, 0, Start_track
4, 0, Title_t, "dlviens@empire.net"
4, 0, MIDI_port, 0
4, 0, End_track
5, 0, Start_track
5, 0, MIDI_port, 0
5, 0, End_track
6, 0, Start_track
6, 0, Title_t, "Flute"
6, 0, MIDI_port, 0
6, 0, Program_c, 0, 73
6, 0, Control_c, 0, 7, 80
6, 0, Control_c, 0, 10, 60
6, 0, Control_c, 0, 11, 127
6, 5040, Note_on_c, 0, 84, 76
6, 5040, Note_on_c, 0, 72, 76
6, 5159, Note_on_c, 0, 84, 0
6, 5159, Note_on_c, 0, 72, 0
6, 5280, Note_on_c, 0, 77, 84
6, 5280, Note_on_c, 0, 89, 84
6, 5340, Control_c, 0, 11, 112
6, 5744, Note_on_c, 0, 77, 0
6, 5744, Note_on_c, 0, 89, 0
6, 5758, Control_c, 0, 11, 127
6, 5760, Note_on_c, 0, 84, 76
6, 5879, Note_on_c, 0, 84, 0
6, 5880, Note_on_c, 0, 85, 76
6, 5999, Note_on_c, 0, 85, 0
6, 6000, Note_on_c, 0, 88, 76
6, 6119, Note_on_c, 0, 88, 0
6, 6120, Note_on_c, 0, 86, 76
6, 6239, Note_on_c, 0, 86, 0
6, 6240, Note_on_c, 0, 79, 76
6, 6359, Note_on_c, 0, 79, 0
6, 6360, Note_on_c, 0, 81, 76
6, 6479, Note_on_c, 0, 81, 0
6, 6480, Note_on_c, 0, 82, 76
6, 6584, Note_on_c, 0, 82, 0
6, 6600, Note_on_c, 0, 76, 76
6, 6704, Note_on_c, 0, 76, 0
6, 6720, Note_on_c, 0, 76, 76
6, 6839, Note_on_c, 0, 76, 0
6, 6840, Note_on_c, 0, 84, 76
6, 6959, Note_on_c, 0, 84, 0
6, 6960, Note_on_c, 0, 77, 76
6, 7079, Note_on_c, 0, 77, 0
6, 12240, Note_on_c, 0, 84, 76
6, 12240, Note_on_c, 0, 72, 76
6, 12359, Note_on_c, 0, 84, 0
6, 12359, Note_on_c, 0, 72, 0
6, 12480, Note_on_c, 0, 89, 84
6, 12480, Note_on_c, 0, 77, 84
6, 12540, Control_c, 0, 11, 112
6, 12944, Note_on_c, 0, 89, 0
6, 12944, Note_on_c, 0, 77, 0
6, 12958, Control_c, 0, 11, 127
6, 12960, Note_on_c, 0, 84, 76
6, 13079, Note_on_c, 0, 84, 0
6, 13080, Note_on_c, 0, 85, 76
6, 13199, Note_on_c, 0, 85, 0
6, 13200, Note_on_c, 0, 88, 76
6, 13319, Note_on_c, 0, 88, 0
6, 13320, Note_on_c, 0, 86, 76
6, 13439, Note_on_c, 0, 86, 0
6, 13440, Note_on_c, 0, 79, 76
6, 13559, Note_on_c, 0, 79, 0
6, 13560, Note_on_c, 0, 81, 76
6, 13679, Note_on_c, 0, 81, 0
6, 13680, Note_on_c, 0, 82, 76
6, 13784, Note_on_c, 0, 82, 0
6, 13800, Note_on_c, 0, 76, 76
6, 13904, Note_on_c, 0, 76, 0
6, 13920, Note_on_c, 0, 76, 76
6, 14039, Note_on_c, 0, 76, 0
6, 14040, Note_on_c, 0, 84, 76
6, 14159, Note_on_c, 0, 84, 0
6, 14160, Note_on_c, 0, 77, 76
6, 14279, Note_on_c, 0, 77, 0
6, 17280, Note_on_c, 0, 84, 84
6, 17280, Note_on_c, 0, 88, 84
6, 17399, Note_on_c, 0, 84, 0
6, 17399, Note_on_c, 0, 88, 0
6, 17520, Note_on_c, 0, 86, 84
6, 17639, Note_on_c, 0, 86, 0
6, 17760, Note_on_c, 0, 86, 76
6, 17879, Note_on_c, 0, 86, 0
6, 18240, Note_on_c, 0, 88, 84
6, 18240, Note_on_c, 0, 84, 84
6, 18359, Note_on_c, 0, 88, 0
6, 18359, Note_on_c, 0, 84, 0
6, 18480, Note_on_c, 0, 88, 76
6, 18480, Note_on_c, 0, 84, 76
6, 18599, Note_on_c, 0, 88, 0
6, 18599, Note_on_c, 0, 84, 0
6, 18960, Note_on_c, 0, 84, 84
6, 18960, Note_on_c, 0, 88, 84
6, 19079, Note_on_c, 0, 84, 0
6, 19079, Note_on_c, 0, 88, 0
6, 19200, Note_on_c, 0, 88, 76
6, 19200, Note_on_c, 0, 84, 76
6, 19319, Note_on_c, 0, 88, 0
6, 19319, Note_on_c, 0, 84, 0
6, 19680, Note_on_c, 0, 89, 84
6, 19680, Note_on_c, 0, 84, 84
6, 19799, Note_on_c, 0, 89, 0
6, 19799, Note_on_c, 0, 84, 0
6, 19920, Note_on_c, 0, 89, 76
6, 19920, Note_on_c, 0, 84, 76
6, 20039, Note_on_c, 0, 89, 0
6, 20039, Note_on_c, 0, 84, 0
6, 20160, Note_on_c, 0, 84, 76
6, 20279, Note_on_c, 0, 84, 0
6, 20400, Note_on_c, 0, 89, 76
6, 20460, Control_c, 0, 11, 80
6, 20759, Note_on_c, 0, 89, 0
6, 20760, Note_on_c, 0, 87, 76
6, 20879, Note_on_c, 0, 87, 0
6, 20880, Note_on_c, 0, 84, 76
6, 20999, Note_on_c, 0, 84, 0
6, 21000, Note_on_c, 0, 81, 76
6, 21119, Note_on_c, 0, 81, 0
6, 21240, Control_c, 0, 11, 127
6, 21600, Note_on_c, 0, 89, 51
6, 21719, Note_on_c, 0, 89, 0
6, 21720, Note_on_c, 0, 87, 50
6, 21839, Note_on_c, 0, 87, 0
6, 21840, Note_on_c, 0, 84, 50
6, 21959, Note_on_c, 0, 84, 0
6, 21960, Note_on_c, 0, 81, 49
6, 22079, Note_on_c, 0, 81, 0
6, 22560, Note_on_c, 0, 89, 47
6, 22679, Note_on_c, 0, 89, 0
6, 22680, Note_on_c, 0, 87, 47
6, 22799, Note_on_c, 0, 87, 0
6, 22800, Note_on_c, 0, 84, 46
6, 22919, Note_on_c, 0, 84, 0
6, 22920, Note_on_c, 0, 81, 46
6, 23039, Note_on_c, 0, 81, 0
6, 27360, Note_on_c, 0, 81, 44
6, 27360, Note_on_c, 0, 69, 44
6, 27479, Note_on_c, 0, 81, 0
6, 27479, Note_on_c, 0, 69, 0
6, 27600, Note_on_c, 0, 84, 47
6, 27600, Note_on_c, 0, 72, 47
6, 27719, Note_on_c, 0, 84, 0
6, 27719, Note_on_c, 0, 72, 0
6, 28800, Note_on_c, 0, 84, 64
6, 28919, Note_on_c, 0, 84, 0
6, 28920, Note_on_c, 0, 85, 65
6, 29039, Note_on_c, 0, 85, 0
6, 29040, Note_on_c, 0, 88, 67
6, 29159, Note_on_c, 0, 88, 0
6, 29160, Note_on_c, 0, 86, 69
6, 29279, Note_on_c, 0, 86, 0
6, 29280, Note_on_c, 0, 79, 70
6, 29399, Note_on_c, 0, 79, 0
6, 29400, Note_on_c, 0, 81, 72
6, 29519, Note_on_c, 0, 81, 0
6, 29520, Note_on_c, 0, 82, 74
6, 29624, Note_on_c, 0, 82, 0
6, 29640, Note_on_c, 0, 83, 76
6, 29744, Note_on_c, 0, 83, 0
6, 29760, Note_on_c, 0, 83, 80
6, 29999, Note_on_c, 0, 83, 0
6, 30000, Note_on_c, 0, 84, 80
6, 30119, Note_on_c, 0, 84, 0
6, 30120, Note_on_c, 0, 86, 80
6, 30239, Note_on_c, 0, 86, 0
6, 30240, Note_on_c, 0, 87, 80
6, 30344, Note_on_c, 0, 87, 0
6, 30360, Note_on_c, 0, 88, 80
6, 30464, Note_on_c, 0, 88, 0
6, 30480, Note_on_c, 0, 88, 80
6, 30719, Note_on_c, 0, 88, 0
6, 30720, Note_on_c, 0, 77, 80
6, 30720, Note_on_c, 0, 89, 80
6, 30824, Note_on_c, 0, 77, 0
6, 30824, Note_on_c, 0, 89, 0
6, 30840, Note_on_c, 0, 89, 80
6, 30840, Note_on_c, 0, 77, 80
6, 31064, Note_on_c, 0, 89, 0
6, 31064, Note_on_c, 0, 77, 0
6, 31080, Note_on_c, 0, 89, 84
6, 31080, Note_on_c, 0, 77, 84
6, 31304, Note_on_c, 0, 89, 0
6, 31304, Note_on_c, 0, 77, 0
6, 31320, Note_on_c, 0, 77, 84
6, 31320, Note_on_c, 0, 89, 84
6, 31559, Note_on_c, 0, 77, 0
6, 31559, Note_on_c, 0, 89, 0
6, 31800, Note_on_c, 0, 85, 52
6, 31800, Note_on_c, 0, 81, 52
6, 31904, Note_on_c, 0, 85, 0
6, 31904, Note_on_c, 0, 81, 0
6, 31920, Note_on_c, 0, 81, 52
6, 31920, Note_on_c, 0, 85, 52
6, 32159, Note_on_c, 0, 81, 0
6, 32159, Note_on_c, 0, 85, 0
6, 32160, Note_on_c, 0, 82, 52
6, 32160, Note_on_c, 0, 86, 52
6, 32279, Note_on_c, 0, 82, 0
6, 32279, Note_on_c, 0, 86, 0
6, 34320, Note_on_c, 0, 72, 76
6, 34320, Note_on_c, 0, 84, 76
6, 34439, Note_on_c, 0, 72, 0
6, 34439, Note_on_c, 0, 84, 0
6, 34560, Note_on_c, 0, 89, 84
6, 34560, Note_on_c, 0, 77, 84
6, 34620, Control_c, 0, 11, 112
6, 34919, Note_on_c, 0, 89, 0
6, 34919, Note_on_c, 0, 77, 0
6, 35520, Control_c, 0, 11, 127
6, 35760, Note_on_c, 0, 84, 76
6, 35879, Note_on_c, 0, 84, 0
6, 36000, Note_on_c, 0, 84, 84
6, 36000, Note_on_c, 0, 88, 84
6, 36060, Control_c, 0, 11, 112
6, 36239, Note_on_c, 0, 88, 0
6, 36240, Note_on_c, 0, 89, 84
6, 36359, Note_on_c, 0, 84, 0
6, 36359, Note_on_c, 0, 89, 0
6, 36720, Control_c, 0, 11, 127
6, 36960, Note_on_c, 0, 84, 84
6, 36960, Note_on_c, 0, 88, 84
6, 37020, Control_c, 0, 11, 112
6, 37199, Note_on_c, 0, 88, 0
6, 37200, Note_on_c, 0, 89, 84
6, 37319, Note_on_c, 0, 84, 0
6, 37319, Note_on_c, 0, 89, 0
6, 37680, Control_c, 0, 11, 127
6, 38160, Note_on_c, 0, 88, 84
6, 38160, Note_on_c, 0, 84, 84
6, 38220, Control_c, 0, 11, 112
6, 38639, Note_on_c, 0, 88, 0
6, 38640, Note_on_c, 0, 89, 84
6, 38759, Note_on_c, 0, 84, 0
6, 38759, Note_on_c, 0, 89, 0
6, 38880, Control_c, 0, 11, 127
6, 41760, Note_on_c, 0, 84, 84
6, 41760, Note_on_c, 0, 88, 84
6, 41879, Note_on_c, 0, 84, 0
6, 41879, Note_on_c, 0, 88, 0
6, 42000, Note_on_c, 0, 86, 84
6, 42119, Note_on_c, 0, 86, 0
6, 42240, Note_on_c, 0, 86, 76
6, 42359, Note_on_c, 0, 86, 0
6, 42720, Note_on_c, 0, 88, 84
6, 42720, Note_on_c, 0, 84, 84
6, 42839, Note_on_c, 0, 88, 0
6, 42839, Note_on_c, 0, 84, 0
6, 42960, Note_on_c, 0, 88, 76
6, 42960, Note_on_c, 0, 84, 76
6, 43079, Note_on_c, 0, 88, 0
6, 43079, Note_on_c, 0, 84, 0
6, 43440, Note_on_c, 0, 84, 84
6, 43440, Note_on_c, 0, 88, 84
6, 43559, Note_on_c, 0, 84, 0
6, 43559, Note_on_c, 0, 88, 0
6, 43680, Note_on_c, 0, 88, 76
6, 43680, Note_on_c, 0, 84, 76
6, 43799, Note_on_c, 0, 88, 0
6, 43799, Note_on_c, 0, 84, 0
6, 44160, Note_on_c, 0, 84, 84
6, 44160, Note_on_c, 0, 89, 84
6, 44279, Note_on_c, 0, 84, 0
6, 44279, Note_on_c, 0, 89, 0
6, 44400, Note_on_c, 0, 84, 76
6, 44400, Note_on_c, 0, 89, 76
6, 44519, Note_on_c, 0, 84, 0
6, 44519, Note_on_c, 0, 89, 0
6, 44640, Note_on_c, 0, 84, 76
6, 44759, Note_on_c, 0, 84, 0
6, 44880, Note_on_c, 0, 89, 76
6, 44940, Control_c, 0, 11, 80
6, 45239, Note_on_c, 0, 89, 0
6, 45240, Note_on_c, 0, 87, 76
6, 45359, Note_on_c, 0, 87, 0
6, 45360, Note_on_c, 0, 84, 76
6, 45479, Note_on_c, 0, 84, 0
6, 45480, Note_on_c, 0, 81, 76
6, 45599, Note_on_c, 0, 81, 0
6, 45720, Control_c, 0, 11, 127
6, 46080, Note_on_c, 0, 89, 51
6, 46199, Note_on_c, 0, 89, 0
6, 46200, Note_on_c, 0, 87, 50
6, 46319, Note_on_c, 0, 87, 0
6, 46320, Note_on_c, 0, 84, 50
6, 46439, Note_on_c, 0, 84, 0
6, 46440, Note_on_c, 0, 81, 49
6, 46559, Note_on_c, 0, 81, 0
6, 47040, Note_on_c, 0, 89, 47
6, 47159, Note_on_c, 0, 89, 0
6, 47160, Note_on_c, 0, 87, 47
6, 47279, Note_on_c, 0, 87, 0
6, 47280, Note_on_c, 0, 84, 46
6, 47399, Note_on_c, 0, 84, 0
6, 47400, Note_on_c, 0, 81, 46
6, 47519, Note_on_c, 0, 81, 0
6, 51840, Note_on_c, 0, 69, 44
6, 51840, Note_on_c, 0, 81, 44
6, 51959, Note_on_c, 0, 69, 0
6, 51959, Note_on_c, 0, 81, 0
6, 52080, Note_on_c, 0, 72, 47
6, 52080, Note_on_c, 0, 84, 47
6, 52199, Note_on_c, 0, 72, 0
6, 52199, Note_on_c, 0, 84, 0
6, 53280, Note_on_c, 0, 84, 64
6, 53399, Note_on_c, 0, 84, 0
6, 53400, Note_on_c, 0, 85, 65
6, 53519, Note_on_c, 0, 85, 0
6, 53520, Note_on_c, 0, 88, 67
6, 53639, Note_on_c, 0, 88, 0
6, 53640, Note_on_c, 0, 86, 69
6, 53759, Note_on_c, 0, 86, 0
6, 53760, Note_on_c, 0, 79, 70
6, 53879, Note_on_c, 0, 79, 0
6, 53880, Note_on_c, 0, 81, 72
6, 53999, Note_on_c, 0, 81, 0
6, 54000, Note_on_c, 0, 82, 74
6, 54104, Note_on_c, 0, 82, 0
6, 54120, Note_on_c, 0, 83, 76
6, 54224, Note_on_c, 0, 83, 0
6, 54240, Note_on_c, 0, 83, 80
6, 54479, Note_on_c, 0, 83, 0
6, 54480, Note_on_c, 0, 84, 80
6, 54599, Note_on_c, 0, 84, 0
6, 54600, Note_on_c, 0, 86, 80
6, 54719, Note_on_c, 0, 86, 0
6, 54720, Note_on_c, 0, 87, 80
6, 54824, Note_on_c, 0, 87, 0
6, 54840, Note_on_c, 0, 88, 80
6, 54944, Note_on_c, 0, 88, 0
6, 54960, Note_on_c, 0, 88, 80
6, 55199, Note_on_c, 0, 88, 0
6, 55200, Note_on_c, 0, 89, 80
6, 55200, Note_on_c, 0, 77, 80
6, 55304, Note_on_c, 0, 89, 0
6, 55304, Note_on_c, 0, 77, 0
6, 55320, Note_on_c, 0, 89, 80
6, 55320, Note_on_c, 0, 77, 80
6, 55544, Note_on_c, 0, 89, 0
6, 55544, Note_on_c, 0, 77, 0
6, 55560, Note_on_c, 0, 77, 84
6, 55560, Note_on_c, 0, 89, 84
6, 55784, Note_on_c, 0, 77, 0
6, 55784, Note_on_c, 0, 89, 0
6, 55800, Note_on_c, 0, 77, 84
6, 55800, Note_on_c, 0, 89, 84
6, 56039, Note_on_c, 0, 77, 0
6, 56039, Note_on_c, 0, 89, 0
6, 56280, Note_on_c, 0, 85, 52
6, 56280, Note_on_c, 0, 81, 52
6, 56384, Note_on_c, 0, 85, 0
6, 56384, Note_on_c, 0, 81, 0
6, 56400, Note_on_c, 0, 85, 52
6, 56400, Note_on_c, 0, 81, 52
6, 56639, Note_on_c, 0, 85, 0
6, 56639, Note_on_c, 0, 81, 0
6, 56640, Note_on_c, 0, 82, 52
6, 56640, Note_on_c, 0, 86, 52
6, 56759, Note_on_c, 0, 82, 0
6, 56759, Note_on_c, 0, 86, 0
6, 58800, Note_on_c, 0, 84, 76
6, 58800, Note_on_c, 0, 72, 76
6, 58919, Note_on_c, 0, 84, 0
6, 58919, Note_on_c, 0, 72, 0
6, 59040, Note_on_c, 0, 77, 84
6, 59040, Note_on_c, 0, 89, 84
6, 59100, Control_c, 0, 11, 112
6, 59399, Note_on_c, 0, 77, 0
6, 59399, Note_on_c, 0, 89, 0
6, 60000, Control_c, 0, 11, 127
6, 60240, Note_on_c, 0, 84, 76
6, 60359, Note_on_c, 0, 84, 0
6, 60480, Note_on_c, 0, 88, 84
6, 60480, Note_on_c, 0, 84, 84
6, 60540, Control_c, 0, 11, 112
6, 60719, Note_on_c, 0, 88, 0
6, 60720, Note_on_c, 0, 89, 84
6, 60839, Note_on_c, 0, 84, 0
6, 60839, Note_on_c, 0, 89, 0
6, 61200, Control_c, 0, 11, 127
6, 61440, Note_on_c, 0, 84, 84
6, 61440, Note_on_c, 0, 88, 84
6, 61500, Control_c, 0, 11, 112
6, 61679, Note_on_c, 0, 88, 0
6, 61680, Note_on_c, 0, 89, 84
6, 61799, Note_on_c, 0, 84, 0
6, 61799, Note_on_c, 0, 89, 0
6, 62160, Control_c, 0, 11, 127
6, 62640, Note_on_c, 0, 88, 84
6, 62640, Note_on_c, 0, 84, 84
6, 62700, Control_c, 0, 11, 112
6, 63119, Note_on_c, 0, 88, 0
6, 63120, Note_on_c, 0, 89, 84
6, 63239, Note_on_c, 0, 84, 0
6, 63239, Note_on_c, 0, 89, 0
6, 63360, Control_c, 0, 11, 127
6, 98640, Note_on_c, 0, 72, 76
6, 98640, Note_on_c, 0, 84, 76
6, 98759, Note_on_c, 0, 72, 0
6, 98759, Note_on_c, 0, 84, 0
6, 98880, Note_on_c, 0, 77, 84
6, 98880, Note_on_c, 0, 89, 84
6, 98940, Control_c, 0, 11, 112
6, 99344, Note_on_c, 0, 77, 0
6, 99344, Note_on_c, 0, 89, 0
6, 99358, Control_c, 0, 11, 127
6, 99360, Note_on_c, 0, 84, 76
6, 99479, Note_on_c, 0, 84, 0
6, 99480, Note_on_c, 0, 85, 76
6, 99599, Note_on_c, 0, 85, 0
6, 99600, Note_on_c, 0, 88, 76
6, 99719, Note_on_c, 0, 88, 0
6, 99720, Note_on_c, 0, 86, 76
6, 99839, Note_on_c, 0, 86, 0
6, 99840, Note_on_c, 0, 79, 76
6, 99959, Note_on_c, 0, 79, 0
6, 99960, Note_on_c, 0, 81, 76
6, 100079, Note_on_c, 0, 81, 0
6, 100080, Note_on_c, 0, 82, 76
6, 100184, Note_on_c, 0, 82, 0
6, 100200, Note_on_c, 0, 76, 76
6, 100304, Note_on_c, 0, 76, 0
6, 100320, Note_on_c, 0, 76, 76
6, 100439, Note_on_c, 0, 76, 0
6, 100440, Note_on_c, 0, 84, 76
6, 100559, Note_on_c, 0, 84, 0
6, 100560, Note_on_c, 0, 77, 76
6, 100679, Note_on_c, 0, 77, 0
6, 105840, Note_on_c, 0, 72, 76
6, 105840, Note_on_c, 0, 84, 76
6, 105959, Note_on_c, 0, 72, 0
6, 105959, Note_on_c, 0, 84, 0
6, 106080, Note_on_c, 0, 89, 84
6, 106080, Note_on_c, 0, 77, 84
6, 106140, Control_c, 0, 11, 112
6, 106544, Note_on_c, 0, 89, 0
6, 106544, Note_on_c, 0, 77, 0
6, 106558, Control_c, 0, 11, 127
6, 106560, Note_on_c, 0, 84, 76
6, 106679, Note_on_c, 0, 84, 0
6, 106680, Note_on_c, 0, 85, 76
6, 106799, Note_on_c, 0, 85, 0
6, 106800, Note_on_c, 0, 88, 76
6, 106919, Note_on_c, 0, 88, 0
6, 106920, Note_on_c, 0, 86, 76
6, 107039, Note_on_c, 0, 86, 0
6, 107040, Note_on_c, 0, 79, 76
6, 107159, Note_on_c, 0, 79, 0
6, 107160, Note_on_c, 0, 81, 76
6, 107279, Note_on_c, 0, 81, 0
6, 107280, Note_on_c, 0, 82, 76
6, 107384, Note_on_c, 0, 82, 0
6, 107400, Note_on_c, 0, 76, 76
6, 107504, Note_on_c, 0, 76, 0
6, 107520, Note_on_c, 0, 76, 76
6, 107639, Note_on_c, 0, 76, 0
6, 107640, Note_on_c, 0, 84, 76
6, 107759, Note_on_c, 0, 84, 0
6, 107760, Note_on_c, 0, 77, 76
6, 107879, Note_on_c, 0, 77, 0
6, 110880, Note_on_c, 0, 84, 84
6, 110880, Note_on_c, 0, 88, 84
6, 110999, Note_on_c, 0, 84, 0
6, 110999, Note_on_c, 0, 88, 0
6, 111120, Note_on_c, 0, 86, 84
6, 111239, Note_on_c, 0, 86, 0
6, 111360, Note_on_c, 0, 86, 76
6, 111479, Note_on_c, 0, 86, 0
6, 111840, Note_on_c, 0, 88, 84
6, 111840, Note_on_c, 0, 84, 84
6, 111959, Note_on_c, 0, 88, 0
6, 111959, Note_on_c, 0, 84, 0
6, 112080, Note_on_c, 0, 84, 76
6, 112080, Note_on_c, 0, 88, 76
6, 112199, Note_on_c, 0, 84, 0
6, 112199, Note_on_c, 0, 88, 0
6, 112560, Note_on_c, 0, 88, 84
6, 112560, Note_on_c, 0, 84, 84
6, 112679, Note_on_c, 0, 88, 0
6, 112679, Note_on_c, 0, 84, 0
6, 112800, Note_on_c, 0, 84, 76
6, 112800, Note_on_c, 0, 88, 76
6, 112919, Note_on_c, 0, 84, 0
6, 112919, Note_on_c, 0, 88, 0
6, 113280, Note_on_c, 0, 84, 84
6, 113280, Note_on_c, 0, 89, 84
6, 113399, Note_on_c, 0, 84, 0
6, 113399, Note_on_c, 0, 89, 0
6, 113520, Note_on_c, 0, 89, 76
6, 113520, Note_on_c, 0, 84, 76
6, 113639, Note_on_c, 0, 89, 0
6, 113639, Note_on_c, 0, 84, 0
6, 113760, Note_on_c, 0, 84, 76
6, 113879, Note_on_c, 0, 84, 0
6, 114000, Note_on_c, 0, 89, 76
6, 114060, Control_c, 0, 11, 80
6, 114359, Note_on_c, 0, 89, 0
6, 114360, Note_on_c, 0, 87, 76
6, 114479, Note_on_c, 0, 87, 0
6, 114480, Note_on_c, 0, 84, 76
6, 114599, Note_on_c, 0, 84, 0
6, 114600, Note_on_c, 0, 81, 76
6, 114719, Note_on_c, 0, 81, 0
6, 114840, Control_c, 0, 11, 127
6, 115200, Note_on_c, 0, 89, 51
6, 115319, Note_on_c, 0, 89, 0
6, 115320, Note_on_c, 0, 87, 50
6, 115439, Note_on_c, 0, 87, 0
6, 115440, Note_on_c, 0, 84, 50
6, 115559, Note_on_c, 0, 84, 0
6, 115560, Note_on_c, 0, 81, 49
6, 115679, Note_on_c, 0, 81, 0
6, 116160, Note_on_c, 0, 89, 47
6, 116279, Note_on_c, 0, 89, 0
6, 116280, Note_on_c, 0, 87, 47
6, 116399, Note_on_c, 0, 87, 0
6, 116400, Note_on_c, 0, 84, 46
6, 116519, Note_on_c, 0, 84, 0
6, 116520, Note_on_c, 0, 81, 46
6, 116639, Note_on_c, 0, 81, 0
6, 120960, Note_on_c, 0, 81, 44
6, 120960, Note_on_c, 0, 69, 44
6, 121079, Note_on_c, 0, 81, 0
6, 121079, Note_on_c, 0, 69, 0
6, 121200, Note_on_c, 0, 84, 47
6, 121200, Note_on_c, 0, 72, 47
6, 121319, Note_on_c, 0, 84, 0
6, 121319, Note_on_c, 0, 72, 0
6, 122400, Note_on_c, 0, 84, 64
6, 122519, Note_on_c, 0, 84, 0
6, 122520, Note_on_c, 0, 85, 65
6, 122639, Note_on_c, 0, 85, 0
6, 122640, Note_on_c, 0, 88, 67
6, 122759, Note_on_c, 0, 88, 0
6, 122760, Note_on_c, 0, 86, 69
6, 122879, Note_on_c, 0, 86, 0
6, 122880, Note_on_c, 0, 79, 70
6, 122999, Note_on_c, 0, 79, 0
6, 123000, Note_on_c, 0, 81, 72
6, 123119, Note_on_c, 0, 81, 0
6, 123120, Note_on_c, 0, 82, 74
6, 123224, Note_on_c, 0, 82, 0
6, 123240, Note_on_c, 0, 83, 76
6, 123344, Note_on_c, 0, 83, 0
6, 123360, Note_on_c, 0, 83, 80
6, 123599, Note_on_c, 0, 83, 0
6, 123600, Note_on_c, 0, 84, 80
6, 123719, Note_on_c, 0, 84, 0
6, 123720, Note_on_c, 0, 86, 80
6, 123839, Note_on_c, 0, 86, 0
6, 123840, Note_on_c, 0, 87, 80
6, 123944, Note_on_c, 0, 87, 0
6, 123960, Note_on_c, 0, 88, 80
6, 124064, Note_on_c, 0, 88, 0
6, 124080, Note_on_c, 0, 88, 80
6, 124319, Note_on_c, 0, 88, 0
6, 124320, Note_on_c, 0, 77, 80
6, 124320, Note_on_c, 0, 89, 80
6, 124424, Note_on_c, 0, 77, 0
6, 124424, Note_on_c, 0, 89, 0
6, 124440, Note_on_c, 0, 77, 80
6, 124440, Note_on_c, 0, 89, 80
6, 124664, Note_on_c, 0, 77, 0
6, 124664, Note_on_c, 0, 89, 0
6, 124680, Note_on_c, 0, 77, 84
6, 124680, Note_on_c, 0, 89, 84
6, 124904, Note_on_c, 0, 77, 0
6, 124904, Note_on_c, 0, 89, 0
6, 124920, Note_on_c, 0, 89, 84
6, 124920, Note_on_c, 0, 77, 84
6, 125159, Note_on_c, 0, 89, 0
6, 125159, Note_on_c, 0, 77, 0
6, 125400, Note_on_c, 0, 81, 52
6, 125400, Note_on_c, 0, 85, 52
6, 125504, Note_on_c, 0, 81, 0
6, 125504, Note_on_c, 0, 85, 0
6, 125520, Note_on_c, 0, 81, 52
6, 125520, Note_on_c, 0, 85, 52
6, 125759, Note_on_c, 0, 81, 0
6, 125759, Note_on_c, 0, 85, 0
6, 125760, Note_on_c, 0, 82, 52
6, 125760, Note_on_c, 0, 86, 52
6, 125879, Note_on_c, 0, 82, 0
6, 125879, Note_on_c, 0, 86, 0
6, 127920, Note_on_c, 0, 72, 76
6, 127920, Note_on_c, 0, 84, 76
6, 128039, Note_on_c, 0, 72, 0
6, 128039, Note_on_c, 0, 84, 0
6, 128160, Note_on_c, 0, 89, 84
6, 128160, Note_on_c, 0, 77, 84
6, 128220, Control_c, 0, 11, 112
6, 128519, Note_on_c, 0, 89, 0
6, 128519, Note_on_c, 0, 77, 0
6, 129120, Control_c, 0, 11, 127
6, 129360, Note_on_c, 0, 84, 76
6, 129479, Note_on_c, 0, 84, 0
6, 129600, Note_on_c, 0, 84, 84
6, 129600, Note_on_c, 0, 88, 84
6, 129660, Control_c, 0, 11, 112
6, 129839, Note_on_c, 0, 88, 0
6, 129840, Note_on_c, 0, 89, 84
6, 129959, Note_on_c, 0, 84, 0
6, 129959, Note_on_c, 0, 89, 0
6, 130320, Control_c, 0, 11, 127
6, 130560, Note_on_c, 0, 88, 84
6, 130560, Note_on_c, 0, 84, 84
6, 130620, Control_c, 0, 11, 112
6, 130799, Note_on_c, 0, 88, 0
6, 130800, Note_on_c, 0, 89, 84
6, 130919, Note_on_c, 0, 84, 0
6, 130919, Note_on_c, 0, 89, 0
6, 131280, Control_c, 0, 11, 127
6, 131760, Note_on_c, 0, 88, 84
6, 131760, Note_on_c, 0, 84, 84
6, 131820, Control_c, 0, 11, 112
6, 132239, Note_on_c, 0, 88, 0
6, 132240, Note_on_c, 0, 89, 84
6, 132359, Note_on_c, 0, 84, 0
6, 132359, Note_on_c, 0, 89, 0
6, 132480, Control_c, 0, 11, 127
6, 135360, Note_on_c, 0, 88, 84
6, 135360, Note_on_c, 0, 84, 84
6, 135479, Note_on_c, 0, 88, 0
6, 135479, Note_on_c, 0, 84, 0
6, 135600, Note_on_c, 0, 86, 84
6, 135719, Note_on_c, 0, 86, 0
6, 135840, Note_on_c, 0, 86, 76
6, 135959, Note_on_c, 0, 86, 0
6, 136320, Note_on_c, 0, 88, 84
6, 136320, Note_on_c, 0, 84, 84
6, 136439, Note_on_c, 0, 88, 0
6, 136439, Note_on_c, 0, 84, 0
6, 136560, Note_on_c, 0, 84, 76
6, 136560, Note_on_c, 0, 88, 76
6, 136679, Note_on_c, 0, 84, 0
6, 136679, Note_on_c, 0, 88, 0
6, 137040, Note_on_c, 0, 84, 84
6, 137040, Note_on_c, 0, 88, 84
6, 137159, Note_on_c, 0, 84, 0
6, 137159, Note_on_c, 0, 88, 0
6, 137280, Note_on_c, 0, 88, 76
6, 137280, Note_on_c, 0, 84, 76
6, 137399, Note_on_c, 0, 88, 0
6, 137399, Note_on_c, 0, 84, 0
6, 137760, Note_on_c, 0, 89, 84
6, 137760, Note_on_c, 0, 84, 84
6, 137879, Note_on_c, 0, 89, 0
6, 137879, Note_on_c, 0, 84, 0
6, 138000, Note_on_c, 0, 89, 76
6, 138000, Note_on_c, 0, 84, 76
6, 138119, Note_on_c, 0, 89, 0
6, 138119, Note_on_c, 0, 84, 0
6, 138240, Note_on_c, 0, 84, 76
6, 138359, Note_on_c, 0, 84, 0
6, 138480, Note_on_c, 0, 89, 76
6, 138540, Control_c, 0, 11, 80
6, 138839, Note_on_c, 0, 89, 0
6, 138840, Note_on_c, 0, 87, 76
6, 138959, Note_on_c, 0, 87, 0
6, 138960, Note_on_c, 0, 84, 76
6, 139079, Note_on_c, 0, 84, 0
6, 139080, Note_on_c, 0, 81, 76
6, 139199, Note_on_c, 0, 81, 0
6, 139320, Control_c, 0, 11, 127
6, 139680, Note_on_c, 0, 89, 51
6, 139799, Note_on_c, 0, 89, 0
6, 139800, Note_on_c, 0, 87, 50
6, 139919, Note_on_c, 0, 87, 0
6, 139920, Note_on_c, 0, 84, 50
6, 140039, Note_on_c, 0, 84, 0
6, 140040, Note_on_c, 0, 81, 49
6, 140159, Note_on_c, 0, 81, 0
6, 140640, Note_on_c, 0, 89, 47
6, 140759, Note_on_c, 0, 89, 0
6, 140760, Note_on_c, 0, 87, 47
6, 140879, Note_on_c, 0, 87, 0
6, 140880, Note_on_c, 0, 84, 46
6, 140999, Note_on_c, 0, 84, 0
6, 141000, Note_on_c, 0, 81, 46
6, 141119, Note_on_c, 0, 81, 0
6, 145440, Note_on_c, 0, 69, 44
6, 145440, Note_on_c, 0, 81, 44
6, 145559, Note_on_c, 0, 69, 0
6, 145559, Note_on_c, 0, 81, 0
6, 145680, Note_on_c, 0, 84, 47
6, 145680, Note_on_c, 0, 72, 47
6, 145799, Note_on_c, 0, 84, 0
6, 145799, Note_on_c, 0, 72, 0
6, 146880, Note_on_c, 0, 84, 64
6, 146999, Note_on_c, 0, 84, 0
6, 147000, Note_on_c, 0, 85, 65
6, 147119, Note_on_c, 0, 85, 0
6, 147120, Note_on_c, 0, 88, 67
6, 147239, Note_on_c, 0, 88, 0
6, 147240, Note_on_c, 0, 86, 69
6, 147359, Note_on_c, 0, 86, 0
6, 147360, Note_on_c, 0, 79, 70
6, 147479, Note_on_c, 0, 79, 0
6, 147480, Note_on_c, 0, 81, 72
6, 147599, Note_on_c, 0, 81, 0
6, 147600, Note_on_c, 0, 82, 74
6, 147704, Note_on_c, 0, 82, 0
6, 147720, Note_on_c, 0, 83, 76
6, 147824, Note_on_c, 0, 83, 0
6, 147840, Note_on_c, 0, 83, 80
6, 148079, Note_on_c, 0, 83, 0
6, 148080, Note_on_c, 0, 84, 80
6, 148199, Note_on_c, 0, 84, 0
6, 148200, Note_on_c, 0, 86, 80
6, 148319, Note_on_c, 0, 86, 0
6, 148320, Note_on_c, 0, 87, 80
6, 148424, Note_on_c, 0, 87, 0
6, 148440, Note_on_c, 0, 88, 80
6, 148544, Note_on_c, 0, 88, 0
6, 148560, Note_on_c, 0, 88, 80
6, 148799, Note_on_c, 0, 88, 0
6, 148800, Note_on_c, 0, 77, 80
6, 148800, Note_on_c, 0, 89, 80
6, 148904, Note_on_c, 0, 77, 0
6, 148904, Note_on_c, 0, 89, 0
6, 148920, Note_on_c, 0, 89, 80
6, 148920, Note_on_c, 0, 77, 80
6, 149144, Note_on_c, 0, 89, 0
6, 149144, Note_on_c, 0, 77, 0
6, 149160, Note_on_c, 0, 77, 84
6, 149160, Note_on_c, 0, 89, 84
6, 149384, Note_on_c, 0, 77, 0
6, 149384, Note_on_c, 0, 89, 0
6, 149400, Note_on_c, 0, 89, 84
6, 149400, Note_on_c, 0, 77, 84
6, 149639, Note_on_c, 0, 89, 0
6, 149639, Note_on_c, 0, 77, 0
6, 149880, Note_on_c, 0, 85, 52
6, 149880, Note_on_c, 0, 81, 52
6, 149984, Note_on_c, 0, 85, 0
6, 149984, Note_on_c, 0, 81, 0
6, 150000, Note_on_c, 0, 85, 52
6, 150000, Note_on_c, 0, 81, 52
6, 150239, Note_on_c, 0, 85, 0
6, 150239, Note_on_c, 0, 81, 0
6, 150240, Note_on_c, 0, 82, 52
6, 150240, Note_on_c, 0, 86, 52
6, 150359, Note_on_c, 0, 82, 0
6, 150359, Note_on_c, 0, 86, 0
6, 152400, Note_on_c, 0, 84, 76
6, 152400, Note_on_c, 0, 72, 76
6, 152519, Note_on_c, 0, 84, 0
6, 152519, Note_on_c, 0, 72, 0
6, 152640, Note_on_c, 0, 77, 84
6, 152640, Note_on_c, 0, 89, 84
6, 152700, Control_c, 0, 11, 112
6, 152999, Note_on_c, 0, 77, 0
6, 152999, Note_on_c, 0, 89, 0
6, 153600, Control_c, 0, 11, 127
6, 153840, Note_on_c, 0, 84, 76
6, 153959, Note_on_c, 0, 84, 0
6, 154080, Note_on_c, 0, 88, 84
6, 154080, Note_on_c, 0, 84, 84
6, 154140, Control_c, 0, 11, 112
6, 154319, Note_on_c, 0, 88, 0
6, 154320, Note_on_c, 0, 89, 84
6, 154439, Note_on_c, 0, 84, 0
6, 154439, Note_on_c, 0, 89, 0
6, 154800, Control_c, 0, 11, 127
6, 155040, Note_on_c, 0, 84, 84
6, 155040, Note_on_c, 0, 88, 84
6, 155100, Control_c, 0, 11, 112
6, 155279, Note_on_c, 0, 88, 0
6, 155280, Note_on_c, 0, 89, 84
6, 155399, Note_on_c, 0, 84, 0
6, 155399, Note_on_c, 0, 89, 0
6, 155760, Control_c, 0, 11, 127
6, 156240, Note_on_c, 0, 84, 84
6, 156240, Note_on_c, 0, 88, 84
6, 156300, Control_c, 0, 11, 112
6, 156719, Note_on_c, 0, 88, 0
6, 156720, Note_on_c, 0, 89, 84
6, 156839, Note_on_c, 0, 84, 0
6, 156839, Note_on_c, 0, 89, 0
6, 156960, Control_c, 0, 11, 127
6, 156960, End_track
7, 0, Start_track
7, 0, Title_t, "Oboe"
7, 0, MIDI_port, 0
7, 0, Program_c, 1, 68
7, 0, Control_c, 1, 7, 80
7, 0, Control_c, 1, 10, 70
7, 0, Control_c, 1, 11, 127
7, 5040, Note_on_c, 1, 72, 76
7, 5159, Note_on_c, 1, 72, 0
7, 5280, Note_on_c, 1, 77, 84
7, 5340, Control_c, 1, 11, 112
7, 5759, Note_on_c, 1, 77, 0
7, 5880, Control_c, 1, 11, 127
7, 6600, Note_on_c, 1, 72, 76
7, 6600, Note_on_c, 1, 76, 76
7, 6704, Note_on_c, 1, 72, 0
7, 6704, Note_on_c, 1, 76, 0
7, 6720, Note_on_c, 1, 72, 76
7, 6720, Note_on_c, 1, 76, 76
7, 6959, Note_on_c, 1, 76, 0
7, 6960, Note_on_c, 1, 77, 76
7, 7079, Note_on_c, 1, 72, 0
7, 7079, Note_on_c, 1, 77, 0
7, 12240, Note_on_c, 1, 72, 76
7, 12359, Note_on_c, 1, 72, 0
7, 12480, Note_on_c, 1, 77, 84
7, 12540, Control_c, 1, 11, 112
7, 12959, Note_on_c, 1, 77, 0
7, 13080, Control_c, 1, 11, 127
7, 13800, Note_on_c, 1, 76, 76
7, 13800, Note_on_c, 1, 72, 76
7, 13904, Note_on_c, 1, 76, 0
7, 13904, Note_on_c, 1, 72, 0
7, 13920, Note_on_c, 1, 76, 76
7, 13920, Note_on_c, 1, 72, 76
7, 14159, Note_on_c, 1, 76, 0
7, 14160, Note_on_c, 1, 77, 76
7, 14279, Note_on_c, 1, 72, 0
7, 14279, Note_on_c, 1, 77, 0
7, 14880, Note_on_c, 1, 79, 84
7, 14880, Note_on_c, 1, 83, 84
7, 14999, Note_on_c, 1, 79, 0
7, 14999, Note_on_c, 1, 83, 0
7, 15600, Note_on_c, 1, 84, 84
7, 15600, Note_on_c, 1, 79, 84
7, 15719, Note_on_c, 1, 84, 0
7, 15719, Note_on_c, 1, 79, 0
7, 16320, Note_on_c, 1, 86, 84
7, 16320, Note_on_c, 1, 79, 84
7, 16439, Note_on_c, 1, 86, 0
7, 16439, Note_on_c, 1, 79, 0
7, 17040, Note_on_c, 1, 79, 84
7, 17040, Note_on_c, 1, 84, 84
7, 17159, Note_on_c, 1, 79, 0
7, 17159, Note_on_c, 1, 84, 0
7, 17280, Note_on_c, 1, 76, 76
7, 17280, Note_on_c, 1, 79, 76
7, 17399, Note_on_c, 1, 76, 0
7, 17399, Note_on_c, 1, 79, 0
7, 17520, Note_on_c, 1, 74, 84
7, 17520, Note_on_c, 1, 79, 84
7, 17639, Note_on_c, 1, 74, 0
7, 17639, Note_on_c, 1, 79, 0
7, 17760, Note_on_c, 1, 79, 76
7, 17760, Note_on_c, 1, 74, 76
7, 17879, Note_on_c, 1, 79, 0
7, 17879, Note_on_c, 1, 74, 0
7, 18240, Note_on_c, 1, 76, 84
7, 18240, Note_on_c, 1, 79, 84
7, 18359, Note_on_c, 1, 76, 0
7, 18359, Note_on_c, 1, 79, 0
7, 18480, Note_on_c, 1, 79, 76
7, 18480, Note_on_c, 1, 76, 76
7, 18599, Note_on_c, 1, 79, 0
7, 18599, Note_on_c, 1, 76, 0
7, 18960, Note_on_c, 1, 82, 84
7, 18960, Note_on_c, 1, 79, 84
7, 19079, Note_on_c, 1, 82, 0
7, 19079, Note_on_c, 1, 79, 0
7, 19200, Note_on_c, 1, 82, 76
7, 19200, Note_on_c, 1, 79, 76
7, 19319, Note_on_c, 1, 82, 0
7, 19319, Note_on_c, 1, 79, 0
7, 19680, Note_on_c, 1, 77, 84
7, 19680, Note_on_c, 1, 81, 84
7, 19799, Note_on_c, 1, 77, 0
7, 19799, Note_on_c, 1, 81, 0
7, 19920, Note_on_c, 1, 81, 76
7, 19920, Note_on_c, 1, 77, 76
7, 20039, Note_on_c, 1, 81, 0
7, 20039, Note_on_c, 1, 77, 0
7, 20160, Note_on_c, 1, 72, 76
7, 20279, Note_on_c, 1, 72, 0
7, 20400, Note_on_c, 1, 77, 76
7, 20460, Control_c, 1, 11, 80
7, 20759, Note_on_c, 1, 77, 0
7, 20760, Note_on_c, 1, 75, 76
7, 20879, Note_on_c, 1, 75, 0
7, 20880, Note_on_c, 1, 72, 76
7, 20999, Note_on_c, 1, 72, 0
7, 21000, Note_on_c, 1, 69, 76
7, 21119, Note_on_c, 1, 69, 0
7, 21360, Control_c, 1, 11, 127
7, 21600, Note_on_c, 1, 77, 52
7, 21719, Note_on_c, 1, 77, 0
7, 21720, Note_on_c, 1, 75, 52
7, 21839, Note_on_c, 1, 75, 0
7, 21840, Note_on_c, 1, 72, 51
7, 21959, Note_on_c, 1, 72, 0
7, 21960, Note_on_c, 1, 69, 51
7, 22079, Note_on_c, 1, 69, 0
7, 22560, Note_on_c, 1, 77, 48
7, 22679, Note_on_c, 1, 77, 0
7, 22680, Note_on_c, 1, 75, 47
7, 22799, Note_on_c, 1, 75, 0
7, 22800, Note_on_c, 1, 72, 47
7, 22919, Note_on_c, 1, 72, 0
7, 22920, Note_on_c, 1, 69, 46
7, 23039, Note_on_c, 1, 69, 0
7, 23280, Note_on_c, 1, 77, 44
7, 23399, Note_on_c, 1, 77, 0
7, 23760, Note_on_c, 1, 77, 44
7, 23879, Note_on_c, 1, 77, 0
7, 24240, Note_on_c, 1, 77, 44
7, 24359, Note_on_c, 1, 77, 0
7, 26880, Control_c, 1, 11, 64
7, 27360, Control_c, 1, 11, 64
7, 27360, Note_on_c, 1, 69, 76
7, 27360, Note_on_c, 1, 81, 76
7, 27408, Control_c, 1, 11, 65
7, 27455, Control_c, 1, 11, 67
7, 27479, Note_on_c, 1, 69, 0
7, 27479, Note_on_c, 1, 81, 0
7, 27503, Control_c, 1, 11, 68
7, 27550, Control_c, 1, 11, 69
7, 27598, Control_c, 1, 11, 71
7, 27600, Note_on_c, 1, 84, 76
7, 27600, Note_on_c, 1, 72, 76
7, 27645, Control_c, 1, 11, 72
7, 27693, Control_c, 1, 11, 73
7, 27704, Note_on_c, 1, 84, 0
7, 27704, Note_on_c, 1, 72, 0
7, 27720, Note_on_c, 1, 72, 76
7, 27720, Note_on_c, 1, 84, 76
7, 27740, Control_c, 1, 11, 75
7, 27788, Control_c, 1, 11, 76
7, 27835, Control_c, 1, 11, 77
7, 27883, Control_c, 1, 11, 78
7, 27930, Control_c, 1, 11, 80
7, 27944, Note_on_c, 1, 72, 0
7, 27944, Note_on_c, 1, 84, 0
7, 27960, Note_on_c, 1, 84, 76
7, 27960, Note_on_c, 1, 72, 76
7, 27978, Control_c, 1, 11, 81
7, 28025, Control_c, 1, 11, 82
7, 28073, Control_c, 1, 11, 84
7, 28120, Control_c, 1, 11, 85
7, 28168, Control_c, 1, 11, 86
7, 28184, Note_on_c, 1, 84, 0
7, 28184, Note_on_c, 1, 72, 0
7, 28200, Note_on_c, 1, 72, 76
7, 28200, Note_on_c, 1, 84, 76
7, 28215, Control_c, 1, 11, 88
7, 28263, Control_c, 1, 11, 89
7, 28310, Control_c, 1, 11, 90
7, 28358, Control_c, 1, 11, 92
7, 28405, Control_c, 1, 11, 93
7, 28424, Note_on_c, 1, 72, 0
7, 28424, Note_on_c, 1, 84, 0
7, 28440, Note_on_c, 1, 84, 76
7, 28440, Note_on_c, 1, 72, 76
7, 28453, Control_c, 1, 11, 94
7, 28500, Control_c, 1, 11, 96
7, 28548, Control_c, 1, 11, 97
7, 28595, Control_c, 1, 11, 98
7, 28643, Control_c, 1, 11, 99
7, 28664, Note_on_c, 1, 84, 0
7, 28664, Note_on_c, 1, 72, 0
7, 28680, Note_on_c, 1, 84, 76
7, 28680, Note_on_c, 1, 72, 76
7, 28690, Control_c, 1, 11, 101
7, 28738, Control_c, 1, 11, 102
7, 28785, Control_c, 1, 11, 103
7, 28833, Control_c, 1, 11, 105
7, 28880, Control_c, 1, 11, 106
7, 28904, Note_on_c, 1, 84, 0
7, 28904, Note_on_c, 1, 72, 0
7, 28920, Note_on_c, 1, 72, 76
7, 28920, Note_on_c, 1, 84, 76
7, 28928, Control_c, 1, 11, 107
7, 28975, Control_c, 1, 11, 109
7, 29023, Control_c, 1, 11, 110
7, 29070, Control_c, 1, 11, 111
7, 29118, Control_c, 1, 11, 113
7, 29144, Note_on_c, 1, 72, 0
7, 29144, Note_on_c, 1, 84, 0
7, 29160, Note_on_c, 1, 84, 76
7, 29160, Note_on_c, 1, 72, 76
7, 29165, Control_c, 1, 11, 114
7, 29213, Control_c, 1, 11, 115
7, 29260, Control_c, 1, 11, 117
7, 29308, Control_c, 1, 11, 118
7, 29355, Control_c, 1, 11, 119
7, 29384, Note_on_c, 1, 84, 0
7, 29384, Note_on_c, 1, 72, 0
7, 29400, Note_on_c, 1, 84, 76
7, 29400, Note_on_c, 1, 72, 76
7, 29403, Control_c, 1, 11, 120
7, 29450, Control_c, 1, 11, 122
7, 29498, Control_c, 1, 11, 123
7, 29545, Control_c, 1, 11, 124
7, 29593, Control_c, 1, 11, 127
7, 29624, Note_on_c, 1, 84, 0
7, 29624, Note_on_c, 1, 72, 0
7, 29640, Note_on_c, 1, 84, 76
7, 29640, Note_on_c, 1, 72, 76
7, 29864, Note_on_c, 1, 84, 0
7, 29864, Note_on_c, 1, 72, 0
7, 29880, Note_on_c, 1, 72, 80
7, 29880, Note_on_c, 1, 84, 80
7, 30104, Note_on_c, 1, 72, 0
7, 30104, Note_on_c, 1, 84, 0
7, 30120, Note_on_c, 1, 72, 80
7, 30120, Note_on_c, 1, 84, 80
7, 30344, Note_on_c, 1, 72, 0
7, 30344, Note_on_c, 1, 84, 0
7, 30360, Note_on_c, 1, 72, 80
7, 30360, Note_on_c, 1, 84, 80
7, 30584, Note_on_c, 1, 72, 0
7, 30584, Note_on_c, 1, 84, 0
7, 30600, Note_on_c, 1, 84, 80
7, 30600, Note_on_c, 1, 72, 80
7, 30719, Note_on_c, 1, 84, 0
7, 30719, Note_on_c, 1, 72, 0
7, 30720, Note_on_c, 1, 77, 80
7, 30720, Note_on_c, 1, 65, 80
7, 30839, Note_on_c, 1, 77, 0
7, 30839, Note_on_c, 1, 65, 0
7, 30840, Note_on_c, 1, 77, 80
7, 30840, Note_on_c, 1, 65, 80
7, 31064, Note_on_c, 1, 77, 0
7, 31064, Note_on_c, 1, 65, 0
7, 31080, Note_on_c, 1, 65, 84
7, 31080, Note_on_c, 1, 77, 84
7, 31304, Note_on_c, 1, 65, 0
7, 31304, Note_on_c, 1, 77, 0
7, 31320, Note_on_c, 1, 65, 84
7, 31320, Note_on_c, 1, 77, 84
7, 31559, Note_on_c, 1, 65, 0
7, 31559, Note_on_c, 1, 77, 0
7, 31800, Note_on_c, 1, 73, 52
7, 31800, Note_on_c, 1, 69, 52
7, 31904, Note_on_c, 1, 73, 0
7, 31904, Note_on_c, 1, 69, 0
7, 31920, Note_on_c, 1, 69, 52
7, 31920, Note_on_c, 1, 73, 52
7, 32159, Note_on_c, 1, 69, 0
7, 32159, Note_on_c, 1, 73, 0
7, 32160, Note_on_c, 1, 70, 52
7, 32160, Note_on_c, 1, 74, 52
7, 32279, Note_on_c, 1, 70, 0
7, 32279, Note_on_c, 1, 74, 0
7, 34320, Note_on_c, 1, 72, 76
7, 34439, Note_on_c, 1, 72, 0
7, 34560, Note_on_c, 1, 77, 84
7, 34620, Control_c, 1, 11, 112
7, 34919, Note_on_c, 1, 77, 0
7, 35520, Control_c, 1, 11, 127
7, 35640, Note_on_c, 1, 72, 76
7, 35759, Note_on_c, 1, 72, 0
7, 36000, Note_on_c, 1, 82, 84
7, 36000, Note_on_c, 1, 79, 84
7, 36060, Control_c, 1, 11, 112
7, 36239, Note_on_c, 1, 82, 0
7, 36239, Note_on_c, 1, 79, 0
7, 36240, Note_on_c, 1, 81, 84
7, 36240, Note_on_c, 1, 77, 84
7, 36359, Note_on_c, 1, 81, 0
7, 36359, Note_on_c, 1, 77, 0
7, 36720, Control_c, 1, 11, 127
7, 36960, Note_on_c, 1, 79, 84
7, 36960, Note_on_c, 1, 82, 84
7, 37020, Control_c, 1, 11, 112
7, 37199, Note_on_c, 1, 79, 0
7, 37199, Note_on_c, 1, 82, 0
7, 37200, Note_on_c, 1, 81, 84
7, 37200, Note_on_c, 1, 77, 84
7, 37319, Note_on_c, 1, 81, 0
7, 37319, Note_on_c, 1, 77, 0
7, 37680, Control_c, 1, 11, 127
7, 38160, Note_on_c, 1, 82, 84
7, 38160, Note_on_c, 1, 79, 84
7, 38220, Control_c, 1, 11, 112
7, 38639, Note_on_c, 1, 82, 0
7, 38639, Note_on_c, 1, 79, 0
7, 38640, Note_on_c, 1, 81, 84
7, 38640, Note_on_c, 1, 77, 84
7, 38759, Note_on_c, 1, 81, 0
7, 38759, Note_on_c, 1, 77, 0
7, 38880, Control_c, 1, 11, 127
7, 39360, Note_on_c, 1, 83, 84
7, 39360, Note_on_c, 1, 79, 84
7, 39479, Note_on_c, 1, 83, 0
7, 39479, Note_on_c, 1, 79, 0
7, 40080, Note_on_c, 1, 84, 84
7, 40080, Note_on_c, 1, 79, 84
7, 40199, Note_on_c, 1, 84, 0
7, 40199, Note_on_c, 1, 79, 0
7, 40800, Note_on_c, 1, 86, 84
7, 40800, Note_on_c, 1, 79, 84
7, 40919, Note_on_c, 1, 86, 0
7, 40919, Note_on_c, 1, 79, 0
7, 41520, Note_on_c, 1, 79, 84
7, 41520, Note_on_c, 1, 84, 84
7, 41639, Note_on_c, 1, 79, 0
7, 41639, Note_on_c, 1, 84, 0
7, 41760, Note_on_c, 1, 76, 76
7, 41760, Note_on_c, 1, 79, 76
7, 41879, Note_on_c, 1, 76, 0
7, 41879, Note_on_c, 1, 79, 0
7, 42000, Note_on_c, 1, 74, 84
7, 42000, Note_on_c, 1, 79, 84
7, 42119, Note_on_c, 1, 74, 0
7, 42119, Note_on_c, 1, 79, 0
7, 42240, Note_on_c, 1, 79, 76
7, 42240, Note_on_c, 1, 74, 76
7, 42359, Note_on_c, 1, 79, 0
7, 42359, Note_on_c, 1, 74, 0
7, 42720, Note_on_c, 1, 79, 84
7, 42720, Note_on_c, 1, 76, 84
7, 42839, Note_on_c, 1, 79, 0
7, 42839, Note_on_c, 1, 76, 0
7, 42960, Note_on_c, 1, 79, 76
7, 42960, Note_on_c, 1, 76, 76
7, 43079, Note_on_c, 1, 79, 0
7, 43079, Note_on_c, 1, 76, 0
7, 43440, Note_on_c, 1, 79, 84
7, 43440, Note_on_c, 1, 82, 84
7, 43559, Note_on_c, 1, 79, 0
7, 43559, Note_on_c, 1, 82, 0
7, 43680, Note_on_c, 1, 79, 76
7, 43680, Note_on_c, 1, 82, 76
7, 43799, Note_on_c, 1, 79, 0
7, 43799, Note_on_c, 1, 82, 0
7, 44160, Note_on_c, 1, 81, 84
7, 44160, Note_on_c, 1, 77, 84
7, 44279, Note_on_c, 1, 81, 0
7, 44279, Note_on_c, 1, 77, 0
7, 44400, Note_on_c, 1, 81, 76
7, 44400, Note_on_c, 1, 77, 76
7, 44519, Note_on_c, 1, 81, 0
7, 44519, Note_on_c, 1, 77, 0
7, 44640, Note_on_c, 1, 72, 76
7, 44759, Note_on_c, 1, 72, 0
7, 44880, Note_on_c, 1, 77, 76
7, 44940, Control_c, 1, 11, 80
7, 45239, Note_on_c, 1, 77, 0
7, 45240, Note_on_c, 1, 75, 76
7, 45359, Note_on_c, 1, 75, 0
7, 45360, Note_on_c, 1, 72, 76
7, 45479, Note_on_c, 1, 72, 0
7, 45480, Note_on_c, 1, 69, 76
7, 45599, Note_on_c, 1, 69, 0
7, 45840, Control_c, 1, 11, 127
7, 46080, Note_on_c, 1, 77, 52
7, 46199, Note_on_c, 1, 77, 0
7, 46200, Note_on_c, 1, 75, 52
7, 46319, Note_on_c, 1, 75, 0
7, 46320, Note_on_c, 1, 72, 51
7, 46439, Note_on_c, 1, 72, 0
7, 46440, Note_on_c, 1, 69, 51
7, 46559, Note_on_c, 1, 69, 0
7, 47040, Note_on_c, 1, 77, 48
7, 47159, Note_on_c, 1, 77, 0
7, 47160, Note_on_c, 1, 75, 47
7, 47279, Note_on_c, 1, 75, 0
7, 47280, Note_on_c, 1, 72, 47
7, 47399, Note_on_c, 1, 72, 0
7, 47400, Note_on_c, 1, 69, 46
7, 47519, Note_on_c, 1, 69, 0
7, 47760, Note_on_c, 1, 77, 44
7, 47879, Note_on_c, 1, 77, 0
7, 48240, Note_on_c, 1, 77, 44
7, 48359, Note_on_c, 1, 77, 0
7, 48720, Note_on_c, 1, 77, 44
7, 48839, Note_on_c, 1, 77, 0
7, 51360, Control_c, 1, 11, 64
7, 51840, Control_c, 1, 11, 64
7, 51840, Note_on_c, 1, 81, 76
7, 51840, Note_on_c, 1, 69, 76
7, 51888, Control_c, 1, 11, 65
7, 51935, Control_c, 1, 11, 67
7, 51959, Note_on_c, 1, 81, 0
7, 51959, Note_on_c, 1, 69, 0
7, 51983, Control_c, 1, 11, 68
7, 52030, Control_c, 1, 11, 69
7, 52078, Control_c, 1, 11, 71
7, 52080, Note_on_c, 1, 72, 76
7, 52080, Note_on_c, 1, 84, 76
7, 52125, Control_c, 1, 11, 72
7, 52173, Control_c, 1, 11, 73
7, 52184, Note_on_c, 1, 72, 0
7, 52184, Note_on_c, 1, 84, 0
7, 52200, Note_on_c, 1, 84, 76
7, 52200, Note_on_c, 1, 72, 76
7, 52220, Control_c, 1, 11, 75
7, 52268, Control_c, 1, 11, 76
7, 52315, Control_c, 1, 11, 77
7, 52363, Control_c, 1, 11, 78
7, 52410, Control_c, 1, 11, 80
7, 52424, Note_on_c, 1, 84, 0
7, 52424, Note_on_c, 1, 72, 0
7, 52440, Note_on_c, 1, 84, 76
7, 52440, Note_on_c, 1, 72, 76
7, 52458, Control_c, 1, 11, 81
7, 52505, Control_c, 1, 11, 82
7, 52553, Control_c, 1, 11, 84
7, 52600, Control_c, 1, 11, 85
7, 52648, Control_c, 1, 11, 86
7, 52664, Note_on_c, 1, 84, 0
7, 52664, Note_on_c, 1, 72, 0
7, 52680, Note_on_c, 1, 72, 76
7, 52680, Note_on_c, 1, 84, 76
7, 52695, Control_c, 1, 11, 88
7, 52743, Control_c, 1, 11, 89
7, 52790, Control_c, 1, 11, 90
7, 52838, Control_c, 1, 11, 92
7, 52885, Control_c, 1, 11, 93
7, 52904, Note_on_c, 1, 72, 0
7, 52904, Note_on_c, 1, 84, 0
7, 52920, Note_on_c, 1, 72, 76
7, 52920, Note_on_c, 1, 84, 76
7, 52933, Control_c, 1, 11, 94
7, 52980, Control_c, 1, 11, 96
7, 53028, Control_c, 1, 11, 97
7, 53075, Control_c, 1, 11, 98
7, 53123, Control_c, 1, 11, 99
7, 53144, Note_on_c, 1, 72, 0
7, 53144, Note_on_c, 1, 84, 0
7, 53160, Note_on_c, 1, 84, 76
7, 53160, Note_on_c, 1, 72, 76
7, 53170, Control_c, 1, 11, 101
7, 53218, Control_c, 1, 11, 102
7, 53265, Control_c, 1, 11, 103
7, 53313, Control_c, 1, 11, 105
7, 53360, Control_c, 1, 11, 106
7, 53384, Note_on_c, 1, 84, 0
7, 53384, Note_on_c, 1, 72, 0
7, 53400, Note_on_c, 1, 72, 76
7, 53400, Note_on_c, 1, 84, 76
7, 53408, Control_c, 1, 11, 107
7, 53455, Control_c, 1, 11, 109
7, 53503, Control_c, 1, 11, 110
7, 53550, Control_c, 1, 11, 111
7, 53598, Control_c, 1, 11, 113
7, 53624, Note_on_c, 1, 72, 0
7, 53624, Note_on_c, 1, 84, 0
7, 53640, Note_on_c, 1, 84, 76
7, 53640, Note_on_c, 1, 72, 76
7, 53645, Control_c, 1, 11, 114
7, 53693, Control_c, 1, 11, 115
7, 53740, Control_c, 1, 11, 117
7, 53788, Control_c, 1, 11, 118
7, 53835, Control_c, 1, 11, 119
7, 53864, Note_on_c, 1, 84, 0
7, 53864, Note_on_c, 1, 72, 0
7, 53880, Note_on_c, 1, 72, 76
7, 53880, Note_on_c, 1, 84, 76
7, 53883, Control_c, 1, 11, 120
7, 53930, Control_c, 1, 11, 122
7, 53978, Control_c, 1, 11, 123
7, 54025, Control_c, 1, 11, 124
7, 54073, Control_c, 1, 11, 127
7, 54104, Note_on_c, 1, 72, 0
7, 54104, Note_on_c, 1, 84, 0
7, 54120, Note_on_c, 1, 84, 76
7, 54120, Note_on_c, 1, 72, 76
7, 54344, Note_on_c, 1, 84, 0
7, 54344, Note_on_c, 1, 72, 0
7, 54360, Note_on_c, 1, 72, 80
7, 54360, Note_on_c, 1, 84, 80
7, 54584, Note_on_c, 1, 72, 0
7, 54584, Note_on_c, 1, 84, 0
7, 54600, Note_on_c, 1, 84, 80
7, 54600, Note_on_c, 1, 72, 80
7, 54824, Note_on_c, 1, 84, 0
7, 54824, Note_on_c, 1, 72, 0
7, 54840, Note_on_c, 1, 84, 80
7, 54840, Note_on_c, 1, 72, 80
7, 55064, Note_on_c, 1, 84, 0
7, 55064, Note_on_c, 1, 72, 0
7, 55080, Note_on_c, 1, 84, 80
7, 55080, Note_on_c, 1, 72, 80
7, 55199, Note_on_c, 1, 84, 0
7, 55199, Note_on_c, 1, 72, 0
7, 55200, Note_on_c, 1, 77, 80
7, 55200, Note_on_c, 1, 65, 80
7, 55319, Note_on_c, 1, 77, 0
7, 55319, Note_on_c, 1, 65, 0
7, 55320, Note_on_c, 1, 65, 80
7, 55320, Note_on_c, 1, 77, 80
7, 55544, Note_on_c, 1, 65, 0
7, 55544, Note_on_c, 1, 77, 0
7, 55560, Note_on_c, 1, 65, 84
7, 55560, Note_on_c, 1, 77, 84
7, 55784, Note_on_c, 1, 65, 0
7, 55784, Note_on_c, 1, 77, 0
7, 55800, Note_on_c, 1, 65, 84
7, 55800, Note_on_c, 1, 77, 84
7, 56039, Note_on_c, 1, 65, 0
7, 56039, Note_on_c, 1, 77, 0
7, 56280, Note_on_c, 1, 69, 52
7, 56280, Note_on_c, 1, 73, 52
7, 56384, Note_on_c, 1, 69, 0
7, 56384, Note_on_c, 1, 73, 0
7, 56400, Note_on_c, 1, 73, 52
7, 56400, Note_on_c, 1, 69, 52
7, 56639, Note_on_c, 1, 73, 0
7, 56639, Note_on_c, 1, 69, 0
7, 56640, Note_on_c, 1, 74, 52
7, 56640, Note_on_c, 1, 70, 52
7, 56759, Note_on_c, 1, 74, 0
7, 56759, Note_on_c, 1, 70, 0
7, 58800, Note_on_c, 1, 72, 76
7, 58919, Note_on_c, 1, 72, 0
7, 59040, Note_on_c, 1, 77, 84
7, 59100, Control_c, 1, 11, 112
7, 59399, Note_on_c, 1, 77, 0
7, 60000, Control_c, 1, 11, 127
7, 60120, Note_on_c, 1, 72, 76
7, 60239, Note_on_c, 1, 72, 0
7, 60480, Note_on_c, 1, 79, 84
7, 60480, Note_on_c, 1, 82, 84
7, 60540, Control_c, 1, 11, 112
7, 60719, Note_on_c, 1, 79, 0
7, 60719, Note_on_c, 1, 82, 0
7, 60720, Note_on_c, 1, 81, 84
7, 60720, Note_on_c, 1, 77, 84
7, 60839, Note_on_c, 1, 81, 0
7, 60839, Note_on_c, 1, 77, 0
7, 61200, Control_c, 1, 11, 127
7, 61440, Note_on_c, 1, 82, 84
7, 61440, Note_on_c, 1, 79, 84
7, 61500, Control_c, 1, 11, 112
7, 61679, Note_on_c, 1, 82, 0
7, 61679, Note_on_c, 1, 79, 0
7, 61680, Note_on_c, 1, 77, 84
7, 61680, Note_on_c, 1, 81, 84
7, 61799, Note_on_c, 1, 77, 0
7, 61799, Note_on_c, 1, 81, 0
7, 62160, Control_c, 1, 11, 127
7, 62640, Note_on_c, 1, 79, 84
7, 62640, Note_on_c, 1, 82, 84
7, 62700, Control_c, 1, 11, 112
7, 63119, Note_on_c, 1, 79, 0
7, 63119, Note_on_c, 1, 82, 0
7, 63120, Note_on_c, 1, 77, 84
7, 63120, Note_on_c, 1, 81, 84
7, 63239, Note_on_c, 1, 77, 0
7, 63239, Note_on_c, 1, 81, 0
7, 63360, Control_c, 1, 11, 127
7, 98640, Note_on_c, 1, 72, 76
7, 98759, Note_on_c, 1, 72, 0
7, 98880, Note_on_c, 1, 77, 84
7, 98940, Control_c, 1, 11, 112
7, 99359, Note_on_c, 1, 77, 0
7, 99480, Control_c, 1, 11, 127
7, 100200, Note_on_c, 1, 76, 76
7, 100200, Note_on_c, 1, 72, 76
7, 100304, Note_on_c, 1, 76, 0
7, 100304, Note_on_c, 1, 72, 0
7, 100320, Note_on_c, 1, 72, 76
7, 100320, Note_on_c, 1, 76, 76
7, 100559, Note_on_c, 1, 76, 0
7, 100560, Note_on_c, 1, 77, 76
7, 100679, Note_on_c, 1, 72, 0
7, 100679, Note_on_c, 1, 77, 0
7, 105840, Note_on_c, 1, 72, 76
7, 105959, Note_on_c, 1, 72, 0
7, 106080, Note_on_c, 1, 77, 84
7, 106140, Control_c, 1, 11, 112
7, 106559, Note_on_c, 1, 77, 0
7, 106680, Control_c, 1, 11, 127
7, 107400, Note_on_c, 1, 76, 76
7, 107400, Note_on_c, 1, 72, 76
7, 107504, Note_on_c, 1, 76, 0
7, 107504, Note_on_c, 1, 72, 0
7, 107520, Note_on_c, 1, 72, 76
7, 107520, Note_on_c, 1, 76, 76
7, 107759, Note_on_c, 1, 76, 0
7, 107760, Note_on_c, 1, 77, 76
7, 107879, Note_on_c, 1, 72, 0
7, 107879, Note_on_c, 1, 77, 0
7, 108480, Note_on_c, 1, 83, 84
7, 108480, Note_on_c, 1, 79, 84
7, 108599, Note_on_c, 1, 83, 0
7, 108599, Note_on_c, 1, 79, 0
7, 109200, Note_on_c, 1, 79, 84
7, 109200, Note_on_c, 1, 84, 84
7, 109319, Note_on_c, 1, 79, 0
7, 109319, Note_on_c, 1, 84, 0
7, 109920, Note_on_c, 1, 79, 84
7, 109920, Note_on_c, 1, 86, 84
7, 110039, Note_on_c, 1, 79, 0
7, 110039, Note_on_c, 1, 86, 0
7, 110640, Note_on_c, 1, 84, 84
7, 110640, Note_on_c, 1, 79, 84
7, 110759, Note_on_c, 1, 84, 0
7, 110759, Note_on_c, 1, 79, 0
7, 110880, Note_on_c, 1, 76, 76
7, 110880, Note_on_c, 1, 79, 76
7, 110999, Note_on_c, 1, 76, 0
7, 110999, Note_on_c, 1, 79, 0
7, 111120, Note_on_c, 1, 74, 84
7, 111120, Note_on_c, 1, 79, 84
7, 111239, Note_on_c, 1, 74, 0
7, 111239, Note_on_c, 1, 79, 0
7, 111360, Note_on_c, 1, 79, 76
7, 111360, Note_on_c, 1, 74, 76
7, 111479, Note_on_c, 1, 79, 0
7, 111479, Note_on_c, 1, 74, 0
7, 111840, Note_on_c, 1, 79, 84
7, 111840, Note_on_c, 1, 76, 84
7, 111959, Note_on_c, 1, 79, 0
7, 111959, Note_on_c, 1, 76, 0
7, 112080, Note_on_c, 1, 76, 76
7, 112080, Note_on_c, 1, 79, 76
7, 112199, Note_on_c, 1, 76, 0
7, 112199, Note_on_c, 1, 79, 0
7, 112560, Note_on_c, 1, 79, 84
7, 112560, Note_on_c, 1, 82, 84
7, 112679, Note_on_c, 1, 79, 0
7, 112679, Note_on_c, 1, 82, 0
7, 112800, Note_on_c, 1, 82, 76
7, 112800, Note_on_c, 1, 79, 76
7, 112919, Note_on_c, 1, 82, 0
7, 112919, Note_on_c, 1, 79, 0
7, 113280, Note_on_c, 1, 77, 84
7, 113280, Note_on_c, 1, 81, 84
7, 113399, Note_on_c, 1, 77, 0
7, 113399, Note_on_c, 1, 81, 0
7, 113520, Note_on_c, 1, 77, 76
7, 113520, Note_on_c, 1, 81, 76
7, 113639, Note_on_c, 1, 77, 0
7, 113639, Note_on_c, 1, 81, 0
7, 113760, Note_on_c, 1, 72, 76
7, 113879, Note_on_c, 1, 72, 0
7, 114000, Note_on_c, 1, 77, 76
7, 114060, Control_c, 1, 11, 80
7, 114359, Note_on_c, 1, 77, 0
7, 114360, Note_on_c, 1, 75, 76
7, 114479, Note_on_c, 1, 75, 0
7, 114480, Note_on_c, 1, 72, 76
7, 114599, Note_on_c, 1, 72, 0
7, 114600, Note_on_c, 1, 69, 76
7, 114719, Note_on_c, 1, 69, 0
7, 114960, Control_c, 1, 11, 127
7, 115200, Note_on_c, 1, 77, 52
7, 115319, Note_on_c, 1, 77, 0
7, 115320, Note_on_c, 1, 75, 52
7, 115439, Note_on_c, 1, 75, 0
7, 115440, Note_on_c, 1, 72, 51
7, 115559, Note_on_c, 1, 72, 0
7, 115560, Note_on_c, 1, 69, 51
7, 115679, Note_on_c, 1, 69, 0
7, 116160, Note_on_c, 1, 77, 48
7, 116279, Note_on_c, 1, 77, 0
7, 116280, Note_on_c, 1, 75, 47
7, 116399, Note_on_c, 1, 75, 0
7, 116400, Note_on_c, 1, 72, 47
7, 116519, Note_on_c, 1, 72, 0
7, 116520, Note_on_c, 1, 69, 46
7, 116639, Note_on_c, 1, 69, 0
7, 116880, Note_on_c, 1, 77, 44
7, 116999, Note_on_c, 1, 77, 0
7, 117360, Note_on_c, 1, 77, 44
7, 117479, Note_on_c, 1, 77, 0
7, 117840, Note_on_c, 1, 77, 44
7, 117959, Note_on_c, 1, 77, 0
7, 120480, Control_c, 1, 11, 64
7, 120960, Note_on_c, 1, 69, 76
7, 120960, Control_c, 1, 11, 64
7, 120960, Note_on_c, 1, 81, 76
7, 121008, Control_c, 1, 11, 65
7, 121055, Control_c, 1, 11, 67
7, 121079, Note_on_c, 1, 69, 0
7, 121079, Note_on_c, 1, 81, 0
7, 121103, Control_c, 1, 11, 68
7, 121150, Control_c, 1, 11, 69
7, 121198, Control_c, 1, 11, 71
7, 121200, Note_on_c, 1, 84, 76
7, 121200, Note_on_c, 1, 72, 76
7, 121245, Control_c, 1, 11, 72
7, 121293, Control_c, 1, 11, 73
7, 121304, Note_on_c, 1, 84, 0
7, 121304, Note_on_c, 1, 72, 0
7, 121320, Note_on_c, 1, 84, 76
7, 121320, Note_on_c, 1, 72, 76
7, 121340, Control_c, 1, 11, 75
7, 121388, Control_c, 1, 11, 76
7, 121435, Control_c, 1, 11, 77
7, 121483, Control_c, 1, 11, 78
7, 121530, Control_c, 1, 11, 80
7, 121544, Note_on_c, 1, 84, 0
7, 121544, Note_on_c, 1, 72, 0
7, 121560, Note_on_c, 1, 72, 76
7, 121560, Note_on_c, 1, 84, 76
7, 121578, Control_c, 1, 11, 81
7, 121625, Control_c, 1, 11, 82
7, 121673, Control_c, 1, 11, 84
7, 121720, Control_c, 1, 11, 85
7, 121768, Control_c, 1, 11, 86
7, 121784, Note_on_c, 1, 72, 0
7, 121784, Note_on_c, 1, 84, 0
7, 121800, Note_on_c, 1, 72, 76
7, 121800, Note_on_c, 1, 84, 76
7, 121815, Control_c, 1, 11, 88
7, 121863, Control_c, 1, 11, 89
7, 121910, Control_c, 1, 11, 90
7, 121958, Control_c, 1, 11, 92
7, 122005, Control_c, 1, 11, 93
7, 122024, Note_on_c, 1, 72, 0
7, 122024, Note_on_c, 1, 84, 0
7, 122040, Note_on_c, 1, 72, 76
7, 122040, Note_on_c, 1, 84, 76
7, 122053, Control_c, 1, 11, 94
7, 122100, Control_c, 1, 11, 96
7, 122148, Control_c, 1, 11, 97
7, 122195, Control_c, 1, 11, 98
7, 122243, Control_c, 1, 11, 99
7, 122264, Note_on_c, 1, 72, 0
7, 122264, Note_on_c, 1, 84, 0
7, 122280, Note_on_c, 1, 72, 76
7, 122280, Note_on_c, 1, 84, 76
7, 122290, Control_c, 1, 11, 101
7, 122338, Control_c, 1, 11, 102
7, 122385, Control_c, 1, 11, 103
7, 122433, Control_c, 1, 11, 105
7, 122480, Control_c, 1, 11, 106
7, 122504, Note_on_c, 1, 72, 0
7, 122504, Note_on_c, 1, 84, 0
7, 122520, Note_on_c, 1, 72, 76
7, 122520, Note_on_c, 1, 84, 76
7, 122528, Control_c, 1, 11, 107
7, 122575, Control_c, 1, 11, 109
7, 122623, Control_c, 1, 11, 110
7, 122670, Control_c, 1, 11, 111
7, 122718, Control_c, 1, 11, 113
7, 122744, Note_on_c, 1, 72, 0
7, 122744, Note_on_c, 1, 84, 0
7, 122760, Note_on_c, 1, 84, 76
7, 122760, Note_on_c, 1, 72, 76
7, 122765, Control_c, 1, 11, 114
7, 122813, Control_c, 1, 11, 115
7, 122860, Control_c, 1, 11, 117
7, 122908, Control_c, 1, 11, 118
7, 122955, Control_c, 1, 11, 119
7, 122984, Note_on_c, 1, 84, 0
7, 122984, Note_on_c, 1, 72, 0
7, 123000, Note_on_c, 1, 84, 76
7, 123000, Note_on_c, 1, 72, 76
7, 123003, Control_c, 1, 11, 120
7, 123050, Control_c, 1, 11, 122
7, 123098, Control_c, 1, 11, 123
7, 123145, Control_c, 1, 11, 124
7, 123193, Control_c, 1, 11, 127
7, 123224, Note_on_c, 1, 84, 0
7, 123224, Note_on_c, 1, 72, 0
7, 123240, Note_on_c, 1, 84, 76
7, 123240, Note_on_c, 1, 72, 76
7, 123464, Note_on_c, 1, 84, 0
7, 123464, Note_on_c, 1, 72, 0
7, 123480, Note_on_c, 1, 84, 80
7, 123480, Note_on_c, 1, 72, 80
7, 123704, Note_on_c, 1, 84, 0
7, 123704, Note_on_c, 1, 72, 0
7, 123720, Note_on_c, 1, 84, 80
7, 123720, Note_on_c, 1, 72, 80
7, 123944, Note_on_c, 1, 84, 0
7, 123944, Note_on_c, 1, 72, 0
7, 123960, Note_on_c, 1, 84, 80
7, 123960, Note_on_c, 1, 72, 80
7, 124184, Note_on_c, 1, 84, 0
7, 124184, Note_on_c, 1, 72, 0
7, 124200, Note_on_c, 1, 84, 80
7, 124200, Note_on_c, 1, 72, 80
7, 124319, Note_on_c, 1, 84, 0
7, 124319, Note_on_c, 1, 72, 0
7, 124320, Note_on_c, 1, 65, 80
7, 124320, Note_on_c, 1, 77, 80
7, 124439, Note_on_c, 1, 65, 0
7, 124439, Note_on_c, 1, 77, 0
7, 124440, Note_on_c, 1, 65, 80
7, 124440, Note_on_c, 1, 77, 80
7, 124664, Note_on_c, 1, 65, 0
7, 124664, Note_on_c, 1, 77, 0
7, 124680, Note_on_c, 1, 65, 84
7, 124680, Note_on_c, 1, 77, 84
7, 124904, Note_on_c, 1, 65, 0
7, 124904, Note_on_c, 1, 77, 0
7, 124920, Note_on_c, 1, 77, 84
7, 124920, Note_on_c, 1, 65, 84
7, 125159, Note_on_c, 1, 77, 0
7, 125159, Note_on_c, 1, 65, 0
7, 125400, Note_on_c, 1, 69, 52
7, 125400, Note_on_c, 1, 73, 52
7, 125504, Note_on_c, 1, 69, 0
7, 125504, Note_on_c, 1, 73, 0
7, 125520, Note_on_c, 1, 73, 52
7, 125520, Note_on_c, 1, 69, 52
7, 125759, Note_on_c, 1, 73, 0
7, 125759, Note_on_c, 1, 69, 0
7, 125760, Note_on_c, 1, 74, 52
7, 125760, Note_on_c, 1, 70, 52
7, 125879, Note_on_c, 1, 74, 0
7, 125879, Note_on_c, 1, 70, 0
7, 127920, Note_on_c, 1, 72, 76
7, 128039, Note_on_c, 1, 72, 0
7, 128160, Note_on_c, 1, 77, 84
7, 128220, Control_c, 1, 11, 112
7, 128519, Note_on_c, 1, 77, 0
7, 129120, Control_c, 1, 11, 127
7, 129240, Note_on_c, 1, 72, 76
7, 129359, Note_on_c, 1, 72, 0
7, 129600, Note_on_c, 1, 79, 84
7, 129600, Note_on_c, 1, 82, 84
7, 129660, Control_c, 1, 11, 112
7, 129839, Note_on_c, 1, 79, 0
7, 129839, Note_on_c, 1, 82, 0
7, 129840, Note_on_c, 1, 81, 84
7, 129840, Note_on_c, 1, 77, 84
7, 129959, Note_on_c, 1, 81, 0
7, 129959, Note_on_c, 1, 77, 0
7, 130320, Control_c, 1, 11, 127
7, 130560, Note_on_c, 1, 82, 84
7, 130560, Note_on_c, 1, 79, 84
7, 130620, Control_c, 1, 11, 112
7, 130799, Note_on_c, 1, 82, 0
7, 130799, Note_on_c, 1, 79, 0
7, 130800, Note_on_c, 1, 81, 84
7, 130800, Note_on_c, 1, 77, 84
7, 130919, Note_on_c, 1, 81, 0
7, 130919, Note_on_c, 1, 77, 0
7, 131280, Control_c, 1, 11, 127
7, 131760, Note_on_c, 1, 82, 84
7, 131760, Note_on_c, 1, 79, 84
7, 131820, Control_c, 1, 11, 112
7, 132239, Note_on_c, 1, 82, 0
7, 132239, Note_on_c, 1, 79, 0
7, 132240, Note_on_c, 1, 77, 84
7, 132240, Note_on_c, 1, 81, 84
7, 132359, Note_on_c, 1, 77, 0
7, 132359, Note_on_c, 1, 81, 0
7, 132480, Control_c, 1, 11, 127
7, 132960, Note_on_c, 1, 83, 84
7, 132960, Note_on_c, 1, 79, 84
7, 133079, Note_on_c, 1, 83, 0
7, 133079, Note_on_c, 1, 79, 0
7, 133680, Note_on_c, 1, 84, 84
7, 133680, Note_on_c, 1, 79, 84
7, 133799, Note_on_c, 1, 84, 0
7, 133799, Note_on_c, 1, 79, 0
7, 134400, Note_on_c, 1, 86, 84
7, 134400, Note_on_c, 1, 79, 84
7, 134519, Note_on_c, 1, 86, 0
7, 134519, Note_on_c, 1, 79, 0
7, 135120, Note_on_c, 1, 79, 84
7, 135120, Note_on_c, 1, 84, 84
7, 135239, Note_on_c, 1, 79, 0
7, 135239, Note_on_c, 1, 84, 0
7, 135360, Note_on_c, 1, 79, 76
7, 135360, Note_on_c, 1, 76, 76
7, 135479, Note_on_c, 1, 79, 0
7, 135479, Note_on_c, 1, 76, 0
7, 135600, Note_on_c, 1, 74, 84
7, 135600, Note_on_c, 1, 79, 84
7, 135719, Note_on_c, 1, 74, 0
7, 135719, Note_on_c, 1, 79, 0
7, 135840, Note_on_c, 1, 74, 76
7, 135840, Note_on_c, 1, 79, 76
7, 135959, Note_on_c, 1, 74, 0
7, 135959, Note_on_c, 1, 79, 0
7, 136320, Note_on_c, 1, 79, 84
7, 136320, Note_on_c, 1, 76, 84
7, 136439, Note_on_c, 1, 79, 0
7, 136439, Note_on_c, 1, 76, 0
7, 136560, Note_on_c, 1, 79, 76
7, 136560, Note_on_c, 1, 76, 76
7, 136679, Note_on_c, 1, 79, 0
7, 136679, Note_on_c, 1, 76, 0
7, 137040, Note_on_c, 1, 82, 84
7, 137040, Note_on_c, 1, 79, 84
7, 137159, Note_on_c, 1, 82, 0
7, 137159, Note_on_c, 1, 79, 0
7, 137280, Note_on_c, 1, 79, 76
7, 137280, Note_on_c, 1, 82, 76
7, 137399, Note_on_c, 1, 79, 0
7, 137399, Note_on_c, 1, 82, 0
7, 137760, Note_on_c, 1, 81, 84
7, 137760, Note_on_c, 1, 77, 84
7, 137879, Note_on_c, 1, 81, 0
7, 137879, Note_on_c, 1, 77, 0
7, 138000, Note_on_c, 1, 81, 76
7, 138000, Note_on_c, 1, 77, 76
7, 138119, Note_on_c, 1, 81, 0
7, 138119, Note_on_c, 1, 77, 0
7, 138240, Note_on_c, 1, 72, 76
7, 138359, Note_on_c, 1, 72, 0
7, 138480, Note_on_c, 1, 77, 76
7, 138540, Control_c, 1, 11, 80
7, 138839, Note_on_c, 1, 77, 0
7, 138840, Note_on_c, 1, 75, 76
7, 138959, Note_on_c, 1, 75, 0
7, 138960, Note_on_c, 1, 72, 76
7, 139079, Note_on_c, 1, 72, 0
7, 139080, Note_on_c, 1, 69, 76
7, 139199, Note_on_c, 1, 69, 0
7, 139440, Control_c, 1, 11, 127
7, 139680, Note_on_c, 1, 77, 52
7, 139799, Note_on_c, 1, 77, 0
7, 139800, Note_on_c, 1, 75, 52
7, 139919, Note_on_c, 1, 75, 0
7, 139920, Note_on_c, 1, 72, 51
7, 140039, Note_on_c, 1, 72, 0
7, 140040, Note_on_c, 1, 69, 51
7, 140159, Note_on_c, 1, 69, 0
7, 140640, Note_on_c, 1, 77, 48
7, 140759, Note_on_c, 1, 77, 0
7, 140760, Note_on_c, 1, 75, 47
7, 140879, Note_on_c, 1, 75, 0
7, 140880, Note_on_c, 1, 72, 47
7, 140999, Note_on_c, 1, 72, 0
7, 141000, Note_on_c, 1, 69, 46
7, 141119, Note_on_c, 1, 69, 0
7, 141360, Note_on_c, 1, 77, 44
7, 141479, Note_on_c, 1, 77, 0
7, 141840, Note_on_c, 1, 77, 44
7, 141959, Note_on_c, 1, 77, 0
7, 142320, Note_on_c, 1, 77, 44
7, 142439, Note_on_c, 1, 77, 0
7, 144960, Control_c, 1, 11, 64
7, 145440, Note_on_c, 1, 69, 76
7, 145440, Control_c, 1, 11, 64
7, 145440, Note_on_c, 1, 81, 76
7, 145488, Control_c, 1, 11, 65
7, 145535, Control_c, 1, 11, 67
7, 145559, Note_on_c, 1, 69, 0
7, 145559, Note_on_c, 1, 81, 0
7, 145583, Control_c, 1, 11, 68
7, 145630, Control_c, 1, 11, 69
7, 145678, Control_c, 1, 11, 71
7, 145680, Note_on_c, 1, 84, 76
7, 145680, Note_on_c, 1, 72, 76
7, 145725, Control_c, 1, 11, 72
7, 145773, Control_c, 1, 11, 73
7, 145784, Note_on_c, 1, 84, 0
7, 145784, Note_on_c, 1, 72, 0
7, 145800, Note_on_c, 1, 72, 76
7, 145800, Note_on_c, 1, 84, 76
7, 145820, Control_c, 1, 11, 75
7, 145868, Control_c, 1, 11, 76
7, 145915, Control_c, 1, 11, 77
7, 145963, Control_c, 1, 11, 78
7, 146010, Control_c, 1, 11, 80
7, 146024, Note_on_c, 1, 72, 0
7, 146024, Note_on_c, 1, 84, 0
7, 146040, Note_on_c, 1, 72, 76
7, 146040, Note_on_c, 1, 84, 76
7, 146058, Control_c, 1, 11, 81
7, 146105, Control_c, 1, 11, 82
7, 146153, Control_c, 1, 11, 84
7, 146200, Control_c, 1, 11, 85
7, 146248, Control_c, 1, 11, 86
7, 146264, Note_on_c, 1, 72, 0
7, 146264, Note_on_c, 1, 84, 0
7, 146280, Note_on_c, 1, 72, 76
7, 146280, Note_on_c, 1, 84, 76
7, 146295, Control_c, 1, 11, 88
7, 146343, Control_c, 1, 11, 89
7, 146390, Control_c, 1, 11, 90
7, 146438, Control_c, 1, 11, 92
7, 146485, Control_c, 1, 11, 93
7, 146504, Note_on_c, 1, 72, 0
7, 146504, Note_on_c, 1, 84, 0
7, 146520, Note_on_c, 1, 72, 76
7, 146520, Note_on_c, 1, 84, 76
7, 146533, Control_c, 1, 11, 94
7, 146580, Control_c, 1, 11, 96
7, 146628, Control_c, 1, 11, 97
7, 146675, Control_c, 1, 11, 98
7, 146723, Control_c, 1, 11, 99
7, 146744, Note_on_c, 1, 72, 0
7, 146744, Note_on_c, 1, 84, 0
7, 146760, Note_on_c, 1, 84, 76
7, 146760, Note_on_c, 1, 72, 76
7, 146770, Control_c, 1, 11, 101
7, 146818, Control_c, 1, 11, 102
7, 146865, Control_c, 1, 11, 103
7, 146913, Control_c, 1, 11, 105
7, 146960, Control_c, 1, 11, 106
7, 146984, Note_on_c, 1, 84, 0
7, 146984, Note_on_c, 1, 72, 0
7, 147000, Note_on_c, 1, 72, 76
7, 147000, Note_on_c, 1, 84, 76
7, 147008, Control_c, 1, 11, 107
7, 147055, Control_c, 1, 11, 109
7, 147103, Control_c, 1, 11, 110
7, 147150, Control_c, 1, 11, 111
7, 147198, Control_c, 1, 11, 113
7, 147224, Note_on_c, 1, 72, 0
7, 147224, Note_on_c, 1, 84, 0
7, 147240, Note_on_c, 1, 72, 76
7, 147240, Note_on_c, 1, 84, 76
7, 147245, Control_c, 1, 11, 114
7, 147293, Control_c, 1, 11, 115
7, 147340, Control_c, 1, 11, 117
7, 147388, Control_c, 1, 11, 118
7, 147435, Control_c, 1, 11, 119
7, 147464, Note_on_c, 1, 72, 0
7, 147464, Note_on_c, 1, 84, 0
7, 147480, Note_on_c, 1, 72, 76
7, 147480, Note_on_c, 1, 84, 76
7, 147483, Control_c, 1, 11, 120
7, 147530, Control_c, 1, 11, 122
7, 147578, Control_c, 1, 11, 123
7, 147625, Control_c, 1, 11, 124
7, 147673, Control_c, 1, 11, 127
7, 147704, Note_on_c, 1, 72, 0
7, 147704, Note_on_c, 1, 84, 0
7, 147720, Note_on_c, 1, 72, 76
7, 147720, Note_on_c, 1, 84, 76
7, 147944, Note_on_c, 1, 72, 0
7, 147944, Note_on_c, 1, 84, 0
7, 147960, Note_on_c, 1, 84, 80
7, 147960, Note_on_c, 1, 72, 80
7, 148184, Note_on_c, 1, 84, 0
7, 148184, Note_on_c, 1, 72, 0
7, 148200, Note_on_c, 1, 84, 80
7, 148200, Note_on_c, 1, 72, 80
7, 148424, Note_on_c, 1, 84, 0
7, 148424, Note_on_c, 1, 72, 0
7, 148440, Note_on_c, 1, 72, 80
7, 148440, Note_on_c, 1, 84, 80
7, 148664, Note_on_c, 1, 72, 0
7, 148664, Note_on_c, 1, 84, 0
7, 148680, Note_on_c, 1, 84, 80
7, 148680, Note_on_c, 1, 72, 80
7, 148799, Note_on_c, 1, 84, 0
7, 148799, Note_on_c, 1, 72, 0
7, 148800, Note_on_c, 1, 65, 80
7, 148800, Note_on_c, 1, 77, 80
7, 148919, Note_on_c, 1, 65, 0
7, 148919, Note_on_c, 1, 77, 0
7, 148920, Note_on_c, 1, 77, 80
7, 148920, Note_on_c, 1, 65, 80
7, 149144, Note_on_c, 1, 77, 0
7, 149144, Note_on_c, 1, 65, 0
7, 149160, Note_on_c, 1, 65, 84
7, 149160, Note_on_c, 1, 77, 84
7, 149384, Note_on_c, 1, 65, 0
7, 149384, Note_on_c, 1, 77, 0
7, 149400, Note_on_c, 1, 77, 84
7, 149400, Note_on_c, 1, 65, 84
7, 149639, Note_on_c, 1, 77, 0
7, 149639, Note_on_c, 1, 65, 0
7, 149880, Note_on_c, 1, 69, 52
7, 149880, Note_on_c, 1, 73, 52
7, 149984, Note_on_c, 1, 69, 0
7, 149984, Note_on_c, 1, 73, 0
7, 150000, Note_on_c, 1, 73, 52
7, 150000, Note_on_c, 1, 69, 52
7, 150239, Note_on_c, 1, 73, 0
7, 150239, Note_on_c, 1, 69, 0
7, 150240, Note_on_c, 1, 74, 52
7, 150240, Note_on_c, 1, 70, 52
7, 150359, Note_on_c, 1, 74, 0
7, 150359, Note_on_c, 1, 70, 0
7, 152400, Note_on_c, 1, 72, 76
7, 152519, Note_on_c, 1, 72, 0
7, 152640, Note_on_c, 1, 77, 84
7, 152700, Control_c, 1, 11, 112
7, 152999, Note_on_c, 1, 77, 0
7, 153600, Control_c, 1, 11, 127
7, 153720, Note_on_c, 1, 72, 76
7, 153839, Note_on_c, 1, 72, 0
7, 154080, Note_on_c, 1, 79, 84
7, 154080, Note_on_c, 1, 82, 84
7, 154140, Control_c, 1, 11, 112
7, 154319, Note_on_c, 1, 79, 0
7, 154319, Note_on_c, 1, 82, 0
7, 154320, Note_on_c, 1, 81, 84
7, 154320, Note_on_c, 1, 77, 84
7, 154439, Note_on_c, 1, 81, 0
7, 154439, Note_on_c, 1, 77, 0
7, 154800, Control_c, 1, 11, 127
7, 155040, Note_on_c, 1, 79, 84
7, 155040, Note_on_c, 1, 82, 84
7, 155100, Control_c, 1, 11, 112
7, 155279, Note_on_c, 1, 79, 0
7, 155279, Note_on_c, 1, 82, 0
7, 155280, Note_on_c, 1, 81, 84
7, 155280, Note_on_c, 1, 77, 84
7, 155399, Note_on_c, 1, 81, 0
7, 155399, Note_on_c, 1, 77, 0
7, 155760, Control_c, 1, 11, 127
7, 156240, Note_on_c, 1, 79, 84
7, 156240, Note_on_c, 1, 82, 84
7, 156300, Control_c, 1, 11, 112
7, 156719, Note_on_c, 1, 79, 0
7, 156719, Note_on_c, 1, 82, 0
7, 156720, Note_on_c, 1, 77, 84
7, 156720, Note_on_c, 1, 81, 84
7, 156839, Note_on_c, 1, 77, 0
7, 156839, Note_on_c, 1, 81, 0
7, 156960, Control_c, 1, 11, 127
7, 156960, End_track
8, 0, Start_track
8, 0, Title_t, "Clarinet in B-flat"
8, 0, MIDI_port, 0
8, 0, Program_c, 2, 71
8, 0, Control_c, 2, 7, 88
8, 0, Control_c, 2, 10, 75
8, 0, Control_c, 2, 11, 127
8, 5040, Note_on_c, 2, 60, 76
8, 5040, Note_on_c, 2, 72, 76
8, 5159, Note_on_c, 2, 60, 0
8, 5159, Note_on_c, 2, 72, 0
8, 5280, Note_on_c, 2, 65, 84
8, 5280, Note_on_c, 2, 77, 84
8, 5340, Control_c, 2, 11, 112
8, 5759, Note_on_c, 2, 65, 0
8, 5759, Note_on_c, 2, 77, 0
8, 5880, Control_c, 2, 11, 127
8, 6600, Note_on_c, 2, 67, 76
8, 6600, Note_on_c, 2, 70, 76
8, 6704, Note_on_c, 2, 67, 0
8, 6704, Note_on_c, 2, 70, 0
8, 6720, Note_on_c, 2, 70, 76
8, 6720, Note_on_c, 2, 67, 76
8, 6959, Note_on_c, 2, 70, 0
8, 6959, Note_on_c, 2, 67, 0
8, 6960, Note_on_c, 2, 65, 76
8, 6960, Note_on_c, 2, 69, 76
8, 7079, Note_on_c, 2, 65, 0
8, 7079, Note_on_c, 2, 69, 0
8, 12240, Note_on_c, 2, 72, 76
8, 12240, Note_on_c, 2, 60, 76
8, 12359, Note_on_c, 2, 72, 0
8, 12359, Note_on_c, 2, 60, 0
8, 12480, Note_on_c, 2, 65, 84
8, 12480, Note_on_c, 2, 77, 84
8, 12540, Control_c, 2, 11, 112
8, 12959, Note_on_c, 2, 65, 0
8, 12959, Note_on_c, 2, 77, 0
8, 13080, Control_c, 2, 11, 127
8, 13800, Note_on_c, 2, 67, 76
8, 13800, Note_on_c, 2, 70, 76
8, 13904, Note_on_c, 2, 67, 0
8, 13904, Note_on_c, 2, 70, 0
8, 13920, Note_on_c, 2, 70, 76
8, 13920, Note_on_c, 2, 67, 76
8, 14159, Note_on_c, 2, 70, 0
8, 14159, Note_on_c, 2, 67, 0
8, 14160, Note_on_c, 2, 65, 76
8, 14160, Note_on_c, 2, 69, 76
8, 14279, Note_on_c, 2, 65, 0
8, 14279, Note_on_c, 2, 69, 0
8, 14880, Note_on_c, 2, 77, 84
8, 14880, Note_on_c, 2, 71, 84
8, 14999, Note_on_c, 2, 77, 0
8, 14999, Note_on_c, 2, 71, 0
8, 15600, Note_on_c, 2, 76, 84
8, 15600, Note_on_c, 2, 72, 84
8, 15719, Note_on_c, 2, 76, 0
8, 15719, Note_on_c, 2, 72, 0
8, 16320, Note_on_c, 2, 74, 84
8, 16320, Note_on_c, 2, 77, 84
8, 16439, Note_on_c, 2, 74, 0
8, 16439, Note_on_c, 2, 77, 0
8, 17040, Note_on_c, 2, 76, 84
8, 17040, Note_on_c, 2, 72, 84
8, 17159, Note_on_c, 2, 76, 0
8, 17159, Note_on_c, 2, 72, 0
8, 17280, Note_on_c, 2, 72, 76
8, 17280, Note_on_c, 2, 76, 76
8, 17399, Note_on_c, 2, 72, 0
8, 17399, Note_on_c, 2, 76, 0
8, 17520, Note_on_c, 2, 74, 84
8, 17639, Note_on_c, 2, 74, 0
8, 17760, Note_on_c, 2, 74, 76
8, 17879, Note_on_c, 2, 74, 0
8, 18240, Note_on_c, 2, 76, 84
8, 18240, Note_on_c, 2, 72, 84
8, 18359, Note_on_c, 2, 76, 0
8, 18359, Note_on_c, 2, 72, 0
8, 18480, Note_on_c, 2, 76, 76
8, 18480, Note_on_c, 2, 72, 76
8, 18599, Note_on_c, 2, 76, 0
8, 18599, Note_on_c, 2, 72, 0
8, 18960, Note_on_c, 2, 70, 84
8, 18960, Note_on_c, 2, 76, 84
8, 19079, Note_on_c, 2, 70, 0
8, 19079, Note_on_c, 2, 76, 0
8, 19200, Note_on_c, 2, 76, 76
8, 19200, Note_on_c, 2, 70, 76
8, 19319, Note_on_c, 2, 76, 0
8, 19319, Note_on_c, 2, 70, 0
8, 19680, Note_on_c, 2, 69, 84
8, 19680, Note_on_c, 2, 77, 84
8, 19799, Note_on_c, 2, 69, 0
8, 19799, Note_on_c, 2, 77, 0
8, 19920, Note_on_c, 2, 69, 76
8, 19920, Note_on_c, 2, 77, 76
8, 20039, Note_on_c, 2, 69, 0
8, 20039, Note_on_c, 2, 77, 0
8, 20160, Note_on_c, 2, 72, 76
8, 20160, Note_on_c, 2, 60, 76
8, 20279, Note_on_c, 2, 72, 0
8, 20279, Note_on_c, 2, 60, 0
8, 20400, Note_on_c, 2, 75, 76
8, 20400, Note_on_c, 2, 72, 76
8, 20460, Control_c, 2, 11, 80
8, 21584, Note_on_c, 2, 75, 0
8, 21584, Note_on_c, 2, 72, 0
8, 21600, Note_on_c, 2, 72, 76
8, 21600, Note_on_c, 2, 75, 76
8, 21600, Control_c, 2, 11, 80
8, 21720, Control_c, 2, 11, 79
8, 21840, Control_c, 2, 11, 77
8, 21960, Control_c, 2, 11, 76
8, 22080, Control_c, 2, 11, 75
8, 22200, Control_c, 2, 11, 73
8, 22304, Note_on_c, 2, 72, 0
8, 22304, Note_on_c, 2, 75, 0
8, 22320, Control_c, 2, 11, 72
8, 22320, Note_on_c, 2, 72, 76
8, 22320, Note_on_c, 2, 75, 76
8, 22440, Control_c, 2, 11, 71
8, 22560, Control_c, 2, 11, 69
8, 22680, Control_c, 2, 11, 68
8, 22800, Control_c, 2, 11, 67
8, 22920, Control_c, 2, 11, 65
8, 23039, Note_on_c, 2, 72, 0
8, 23039, Note_on_c, 2, 75, 0
8, 23040, Control_c, 2, 11, 64
8, 23160, Control_c, 2, 11, 127
8, 23280, Note_on_c, 2, 75, 44
8, 23280, Note_on_c, 2, 72, 44
8, 23399, Note_on_c, 2, 75, 0
8, 23399, Note_on_c, 2, 72, 0
8, 23760, Note_on_c, 2, 75, 44
8, 23760, Note_on_c, 2, 72, 44
8, 23879, Note_on_c, 2, 75, 0
8, 23879, Note_on_c, 2, 72, 0
8, 24240, Note_on_c, 2, 72, 44
8, 24240, Note_on_c, 2, 75, 44
8, 24359, Note_on_c, 2, 72, 0
8, 24359, Note_on_c, 2, 75, 0
8, 29280, Note_on_c, 2, 67, 70
8, 29399, Note_on_c, 2, 67, 0
8, 29400, Note_on_c, 2, 69, 72
8, 29519, Note_on_c, 2, 69, 0
8, 29520, Note_on_c, 2, 70, 74
8, 29624, Note_on_c, 2, 70, 0
8, 29640, Note_on_c, 2, 71, 76
8, 29744, Note_on_c, 2, 71, 0
8, 29760, Note_on_c, 2, 71, 80
8, 29999, Note_on_c, 2, 71, 0
8, 30000, Note_on_c, 2, 72, 80
8, 30119, Note_on_c, 2, 72, 0
8, 30120, Note_on_c, 2, 74, 80
8, 30239, Note_on_c, 2, 74, 0
8, 30240, Note_on_c, 2, 75, 80
8, 30344, Note_on_c, 2, 75, 0
8, 30360, Note_on_c, 2, 76, 80
8, 30464, Note_on_c, 2, 76, 0
8, 30480, Note_on_c, 2, 64, 80
8, 30480, Note_on_c, 2, 76, 80
8, 30719, Note_on_c, 2, 64, 0
8, 30719, Note_on_c, 2, 76, 0
8, 30720, Note_on_c, 2, 65, 80
8, 30720, Note_on_c, 2, 77, 80
8, 30839, Note_on_c, 2, 65, 0
8, 30839, Note_on_c, 2, 77, 0
8, 30840, Note_on_c, 2, 79, 80
8, 30840, Note_on_c, 2, 67, 80
8, 30959, Note_on_c, 2, 79, 0
8, 30959, Note_on_c, 2, 67, 0
8, 30960, Note_on_c, 2, 68, 80
8, 30960, Note_on_c, 2, 80, 80
8, 31064, Note_on_c, 2, 68, 0
8, 31064, Note_on_c, 2, 80, 0
8, 31080, Note_on_c, 2, 81, 84
8, 31080, Note_on_c, 2, 69, 84
8, 31184, Note_on_c, 2, 81, 0
8, 31184, Note_on_c, 2, 69, 0
8, 31200, Note_on_c, 2, 69, 84
8, 31200, Note_on_c, 2, 81, 84
8, 31439, Note_on_c, 2, 69, 0
8, 31439, Note_on_c, 2, 81, 0
8, 31440, Note_on_c, 2, 70, 84
8, 31440, Note_on_c, 2, 82, 84
8, 31559, Note_on_c, 2, 70, 0
8, 31559, Note_on_c, 2, 82, 0
8, 34320, Note_on_c, 2, 72, 76
8, 34320, Note_on_c, 2, 60, 76
8, 34439, Note_on_c, 2, 72, 0
8, 34439, Note_on_c, 2, 60, 0
8, 34560, Note_on_c, 2, 65, 84
8, 34560, Note_on_c, 2, 77, 84
8, 34620, Control_c, 2, 11, 112
8, 34919, Note_on_c, 2, 65, 0
8, 34919, Note_on_c, 2, 77, 0
8, 35520, Control_c, 2, 11, 127
8, 35760, Note_on_c, 2, 60, 76
8, 35760, Note_on_c, 2, 72, 76
8, 35879, Note_on_c, 2, 60, 0
8, 35879, Note_on_c, 2, 72, 0
8, 36000, Note_on_c, 2, 70, 84
8, 36000, Note_on_c, 2, 76, 84
8, 36060, Control_c, 2, 11, 112
8, 36239, Note_on_c, 2, 70, 0
8, 36239, Note_on_c, 2, 76, 0
8, 36240, Note_on_c, 2, 77, 84
8, 36240, Note_on_c, 2, 69, 84
8, 36359, Note_on_c, 2, 77, 0
8, 36359, Note_on_c, 2, 69, 0
8, 36720, Control_c, 2, 11, 127
8, 36960, Note_on_c, 2, 70, 84
8, 36960, Note_on_c, 2, 76, 84
8, 37020, Control_c, 2, 11, 112
8, 37199, Note_on_c, 2, 70, 0
8, 37199, Note_on_c, 2, 76, 0
8, 37200, Note_on_c, 2, 69, 84
8, 37200, Note_on_c, 2, 77, 84
8, 37319, Note_on_c, 2, 69, 0
8, 37319, Note_on_c, 2, 77, 0
8, 37680, Control_c, 2, 11, 127
8, 37920, Note_on_c, 2, 76, 84
8, 37980, Control_c, 2, 11, 112
8, 38159, Note_on_c, 2, 76, 0
8, 38400, Note_on_c, 2, 67, 84
8, 38400, Note_on_c, 2, 76, 84
8, 38639, Note_on_c, 2, 67, 0
8, 38639, Note_on_c, 2, 76, 0
8, 38640, Note_on_c, 2, 69, 84
8, 38640, Note_on_c, 2, 77, 84
8, 38759, Note_on_c, 2, 69, 0
8, 38759, Note_on_c, 2, 77, 0
8, 38880, Control_c, 2, 11, 127
8, 39360, Note_on_c, 2, 71, 84
8, 39360, Note_on_c, 2, 77, 84
8, 39479, Note_on_c, 2, 71, 0
8, 39479, Note_on_c, 2, 77, 0
8, 40080, Note_on_c, 2, 72, 84
8, 40080, Note_on_c, 2, 76, 84
8, 40199, Note_on_c, 2, 72, 0
8, 40199, Note_on_c, 2, 76, 0
8, 40800, Note_on_c, 2, 77, 84
8, 40800, Note_on_c, 2, 74, 84
8, 40919, Note_on_c, 2, 77, 0
8, 40919, Note_on_c, 2, 74, 0
8, 41520, Note_on_c, 2, 76, 84
8, 41520, Note_on_c, 2, 72, 84
8, 41639, Note_on_c, 2, 76, 0
8, 41639, Note_on_c, 2, 72, 0
8, 41760, Note_on_c, 2, 72, 76
8, 41760, Note_on_c, 2, 76, 76
8, 41879, Note_on_c, 2, 72, 0
8, 41879, Note_on_c, 2, 76, 0
8, 42000, Note_on_c, 2, 74, 84
8, 42119, Note_on_c, 2, 74, 0
8, 42240, Note_on_c, 2, 74, 76
8, 42359, Note_on_c, 2, 74, 0
8, 42720, Note_on_c, 2, 72, 84
8, 42720, Note_on_c, 2, 76, 84
8, 42839, Note_on_c, 2, 72, 0
8, 42839, Note_on_c, 2, 76, 0
8, 42960, Note_on_c, 2, 72, 76
8, 42960, Note_on_c, 2, 76, 76
8, 43079, Note_on_c, 2, 72, 0
8, 43079, Note_on_c, 2, 76, 0
8, 43440, Note_on_c, 2, 70, 84
8, 43440, Note_on_c, 2, 76, 84
8, 43559, Note_on_c, 2, 70, 0
8, 43559, Note_on_c, 2, 76, 0
8, 43680, Note_on_c, 2, 70, 76
8, 43680, Note_on_c, 2, 76, 76
8, 43799, Note_on_c, 2, 70, 0
8, 43799, Note_on_c, 2, 76, 0
8, 44160, Note_on_c, 2, 69, 84
8, 44160, Note_on_c, 2, 77, 84
8, 44279, Note_on_c, 2, 69, 0
8, 44279, Note_on_c, 2, 77, 0
8, 44400, Note_on_c, 2, 77, 76
8, 44400, Note_on_c, 2, 69, 76
8, 44519, Note_on_c, 2, 77, 0
8, 44519, Note_on_c, 2, 69, 0
8, 44640, Note_on_c, 2, 60, 76
8, 44640, Note_on_c, 2, 72, 76
8, 44759, Note_on_c, 2, 60, 0
8, 44759, Note_on_c, 2, 72, 0
8, 44880, Note_on_c, 2, 75, 76
8, 44880, Note_on_c, 2, 72, 76
8, 44940, Control_c, 2, 11, 80
8, 46064, Note_on_c, 2, 75, 0
8, 46064, Note_on_c, 2, 72, 0
8, 46080, Note_on_c, 2, 75, 76
8, 46080, Note_on_c, 2, 72, 76
8, 46080, Control_c, 2, 11, 80
8, 46200, Control_c, 2, 11, 79
8, 46320, Control_c, 2, 11, 77
8, 46440, Control_c, 2, 11, 76
8, 46560, Control_c, 2, 11, 75
8, 46680, Control_c, 2, 11, 73
8, 46784, Note_on_c, 2, 75, 0
8, 46784, Note_on_c, 2, 72, 0
8, 46800, Control_c, 2, 11, 72
8, 46800, Note_on_c, 2, 75, 76
8, 46800, Note_on_c, 2, 72, 76
8, 46920, Control_c, 2, 11, 71
8, 47040, Control_c, 2, 11, 69
8, 47160, Control_c, 2, 11, 68
8, 47280, Control_c, 2, 11, 67
8, 47400, Control_c, 2, 11, 65
8, 47519, Note_on_c, 2, 75, 0
8, 47519, Note_on_c, 2, 72, 0
8, 47520, Control_c, 2, 11, 64
8, 47640, Control_c, 2, 11, 127
8, 47760, Note_on_c, 2, 72, 44
8, 47760, Note_on_c, 2, 75, 44
8, 47879, Note_on_c, 2, 72, 0
8, 47879, Note_on_c, 2, 75, 0
8, 48240, Note_on_c, 2, 72, 44
8, 48240, Note_on_c, 2, 75, 44
8, 48359, Note_on_c, 2, 72, 0
8, 48359, Note_on_c, 2, 75, 0
8, 48720, Note_on_c, 2, 75, 44
8, 48720, Note_on_c, 2, 72, 44
8, 48839, Note_on_c, 2, 75, 0
8, 48839, Note_on_c, 2, 72, 0
8, 53760, Note_on_c, 2, 67, 70
8, 53879, Note_on_c, 2, 67, 0
8, 53880, Note_on_c, 2, 69, 72
8, 53999, Note_on_c, 2, 69, 0
8, 54000, Note_on_c, 2, 70, 74
8, 54104, Note_on_c, 2, 70, 0
8, 54120, Note_on_c, 2, 71, 76
8, 54224, Note_on_c, 2, 71, 0
8, 54240, Note_on_c, 2, 71, 80
8, 54479, Note_on_c, 2, 71, 0
8, 54480, Note_on_c, 2, 72, 80
8, 54599, Note_on_c, 2, 72, 0
8, 54600, Note_on_c, 2, 74, 80
8, 54719, Note_on_c, 2, 74, 0
8, 54720, Note_on_c, 2, 75, 80
8, 54824, Note_on_c, 2, 75, 0
8, 54840, Note_on_c, 2, 76, 80
8, 54944, Note_on_c, 2, 76, 0
8, 54960, Note_on_c, 2, 64, 80
8, 54960, Note_on_c, 2, 76, 80
8, 55199, Note_on_c, 2, 64, 0
8, 55199, Note_on_c, 2, 76, 0
8, 55200, Note_on_c, 2, 77, 80
8, 55200, Note_on_c, 2, 65, 80
8, 55319, Note_on_c, 2, 77, 0
8, 55319, Note_on_c, 2, 65, 0
8, 55320, Note_on_c, 2, 79, 80
8, 55320, Note_on_c, 2, 67, 80
8, 55439, Note_on_c, 2, 79, 0
8, 55439, Note_on_c, 2, 67, 0
8, 55440, Note_on_c, 2, 80, 80
8, 55440, Note_on_c, 2, 68, 80
8, 55544, Note_on_c, 2, 80, 0
8, 55544, Note_on_c, 2, 68, 0
8, 55560, Note_on_c, 2, 69, 84
8, 55560, Note_on_c, 2, 81, 84
8, 55664, Note_on_c, 2, 69, 0
8, 55664, Note_on_c, 2, 81, 0
8, 55680, Note_on_c, 2, 81, 84
8, 55680, Note_on_c, 2, 69, 84
8, 55919, Note_on_c, 2, 81, 0
8, 55919, Note_on_c, 2, 69, 0
8, 55920, Note_on_c, 2, 82, 84
8, 55920, Note_on_c, 2, 70, 84
8, 56039, Note_on_c, 2, 82, 0
8, 56039, Note_on_c, 2, 70, 0
8, 58800, Note_on_c, 2, 72, 76
8, 58800, Note_on_c, 2, 60, 76
8, 58919, Note_on_c, 2, 72, 0
8, 58919, Note_on_c, 2, 60, 0
8, 59040, Note_on_c, 2, 65, 84
8, 59040, Note_on_c, 2, 77, 84
8, 59100, Control_c, 2, 11, 112
8, 59399, Note_on_c, 2, 65, 0
8, 59399, Note_on_c, 2, 77, 0
8, 60000, Control_c, 2, 11, 127
8, 60240, Note_on_c, 2, 72, 76
8, 60240, Note_on_c, 2, 60, 76
8, 60359, Note_on_c, 2, 72, 0
8, 60359, Note_on_c, 2, 60, 0
8, 60480, Note_on_c, 2, 76, 84
8, 60480, Note_on_c, 2, 70, 84
8, 60540, Control_c, 2, 11, 112
8, 60719, Note_on_c, 2, 76, 0
8, 60719, Note_on_c, 2, 70, 0
8, 60720, Note_on_c, 2, 69, 84
8, 60720, Note_on_c, 2, 77, 84
8, 60839, Note_on_c, 2, 69, 0
8, 60839, Note_on_c, 2, 77, 0
8, 61200, Control_c, 2, 11, 127
8, 61440, Note_on_c, 2, 76, 84
8, 61440, Note_on_c, 2, 70, 84
8, 61500, Control_c, 2, 11, 112
8, 61679, Note_on_c, 2, 76, 0
8, 61679, Note_on_c, 2, 70, 0
8, 61680, Note_on_c, 2, 69, 84
8, 61680, Note_on_c, 2, 77, 84
8, 61799, Note_on_c, 2, 69, 0
8, 61799, Note_on_c, 2, 77, 0
8, 62160, Control_c, 2, 11, 127
8, 62400, Note_on_c, 2, 76, 84
8, 62460, Control_c, 2, 11, 112
8, 62639, Note_on_c, 2, 76, 0
8, 62880, Note_on_c, 2, 76, 84
8, 62880, Note_on_c, 2, 67, 84
8, 63119, Note_on_c, 2, 76, 0
8, 63119, Note_on_c, 2, 67, 0
8, 63120, Note_on_c, 2, 77, 84
8, 63120, Note_on_c, 2, 69, 84
8, 63239, Note_on_c, 2, 77, 0
8, 63239, Note_on_c, 2, 69, 0
8, 63360, Control_c, 2, 11, 127
8, 66000, Control_c, 2, 11, 88
8, 66120, Note_on_c, 2, 72, 68
8, 66224, Note_on_c, 2, 72, 0
8, 66240, Note_on_c, 2, 74, 68
8, 66344, Note_on_c, 2, 74, 0
8, 66360, Note_on_c, 2, 76, 68
8, 66449, Note_on_c, 2, 76, 0
8, 66480, Note_on_c, 2, 77, 68
8, 66480, Control_c, 2, 11, 88
8, 66533, Control_c, 2, 11, 89
8, 66587, Control_c, 2, 11, 90
8, 66599, Note_on_c, 2, 77, 0
8, 66600, Note_on_c, 2, 79, 68
8, 66639, Note_on_c, 2, 79, 0
8, 66640, Note_on_c, 2, 77, 68
8, 66640, Control_c, 2, 11, 91
8, 66679, Note_on_c, 2, 77, 0
8, 66680, Note_on_c, 2, 76, 68
8, 66693, Control_c, 2, 11, 92
8, 66719, Note_on_c, 2, 76, 0
8, 66720, Note_on_c, 2, 77, 68
8, 66747, Control_c, 2, 11, 93
8, 66800, Control_c, 2, 11, 95
8, 66839, Note_on_c, 2, 77, 0
8, 66840, Note_on_c, 2, 79, 68
8, 66853, Control_c, 2, 11, 96
8, 66907, Control_c, 2, 11, 97
8, 66959, Note_on_c, 2, 79, 0
8, 66960, Control_c, 2, 11, 98
8, 66960, Note_on_c, 2, 81, 68
8, 67013, Control_c, 2, 11, 99
8, 67067, Control_c, 2, 11, 100
8, 67079, Note_on_c, 2, 81, 0
8, 67080, Note_on_c, 2, 81, 68
8, 67120, Control_c, 2, 11, 101
8, 67169, Note_on_c, 2, 81, 0
8, 67173, Control_c, 2, 11, 102
8, 67200, Note_on_c, 2, 81, 68
8, 67227, Control_c, 2, 11, 103
8, 67280, Control_c, 2, 11, 104
8, 67333, Control_c, 2, 11, 105
8, 67387, Control_c, 2, 11, 106
8, 67440, Control_c, 2, 11, 108
8, 67493, Control_c, 2, 11, 109
8, 67547, Control_c, 2, 11, 110
8, 67559, Note_on_c, 2, 81, 0
8, 67560, Note_on_c, 2, 79, 68
8, 67600, Control_c, 2, 11, 111
8, 67653, Control_c, 2, 11, 112
8, 67679, Note_on_c, 2, 79, 0
8, 67680, Note_on_c, 2, 77, 68
8, 67707, Control_c, 2, 11, 113
8, 67760, Control_c, 2, 11, 114
8, 67799, Note_on_c, 2, 77, 0
8, 67800, Note_on_c, 2, 76, 68
8, 67813, Control_c, 2, 11, 115
8, 67867, Control_c, 2, 11, 116
8, 67904, Note_on_c, 2, 76, 0
8, 67920, Control_c, 2, 11, 117
8, 67920, Note_on_c, 2, 76, 68
8, 67973, Control_c, 2, 11, 118
8, 68027, Control_c, 2, 11, 119
8, 68039, Note_on_c, 2, 76, 0
8, 68040, Note_on_c, 2, 77, 68
8, 68080, Control_c, 2, 11, 121
8, 68099, Note_on_c, 2, 77, 0
8, 68100, Note_on_c, 2, 76, 68
8, 68133, Control_c, 2, 11, 122
8, 68159, Note_on_c, 2, 76, 0
8, 68160, Note_on_c, 2, 74, 68
8, 68187, Control_c, 2, 11, 123
8, 68240, Control_c, 2, 11, 124
8, 68279, Note_on_c, 2, 74, 0
8, 68280, Note_on_c, 2, 76, 68
8, 68293, Control_c, 2, 11, 125
8, 68347, Control_c, 2, 11, 127
8, 68399, Note_on_c, 2, 76, 0
8, 68400, Note_on_c, 2, 79, 52
8, 68479, Note_on_c, 2, 79, 0
8, 68480, Note_on_c, 2, 77, 52
8, 68559, Note_on_c, 2, 77, 0
8, 68560, Note_on_c, 2, 74, 52
8, 68624, Note_on_c, 2, 74, 0
8, 68640, Note_on_c, 2, 74, 52
8, 68759, Note_on_c, 2, 74, 0
8, 68760, Note_on_c, 2, 72, 52
8, 68879, Note_on_c, 2, 72, 0
8, 68880, Note_on_c, 2, 72, 52
8, 68969, Note_on_c, 2, 72, 0
8, 71760, Control_c, 2, 11, 88
8, 71880, Note_on_c, 2, 72, 68
8, 71984, Note_on_c, 2, 72, 0
8, 72000, Note_on_c, 2, 74, 68
8, 72104, Note_on_c, 2, 74, 0
8, 72120, Note_on_c, 2, 76, 68
8, 72209, Note_on_c, 2, 76, 0
8, 72240, Control_c, 2, 11, 88
8, 72240, Note_on_c, 2, 77, 68
8, 72293, Control_c, 2, 11, 89
8, 72347, Control_c, 2, 11, 90
8, 72359, Note_on_c, 2, 77, 0
8, 72360, Note_on_c, 2, 79, 68
8, 72399, Note_on_c, 2, 79, 0
8, 72400, Control_c, 2, 11, 91
8, 72400, Note_on_c, 2, 77, 68
8, 72439, Note_on_c, 2, 77, 0
8, 72440, Note_on_c, 2, 76, 68
8, 72453, Control_c, 2, 11, 92
8, 72479, Note_on_c, 2, 76, 0
8, 72480, Note_on_c, 2, 77, 68
8, 72507, Control_c, 2, 11, 93
8, 72560, Control_c, 2, 11, 95
8, 72599, Note_on_c, 2, 77, 0
8, 72600, Note_on_c, 2, 79, 68
8, 72613, Control_c, 2, 11, 96
8, 72667, Control_c, 2, 11, 97
8, 72719, Note_on_c, 2, 79, 0
8, 72720, Note_on_c, 2, 81, 68
8, 72720, Control_c, 2, 11, 98
8, 72773, Control_c, 2, 11, 99
8, 72827, Control_c, 2, 11, 100
8, 72839, Note_on_c, 2, 81, 0
8, 72840, Note_on_c, 2, 81, 68
8, 72880, Control_c, 2, 11, 101
8, 72929, Note_on_c, 2, 81, 0
8, 72933, Control_c, 2, 11, 102
8, 72960, Note_on_c, 2, 81, 68
8, 72987, Control_c, 2, 11, 103
8, 73040, Control_c, 2, 11, 104
8, 73093, Control_c, 2, 11, 105
8, 73147, Control_c, 2, 11, 106
8, 73200, Control_c, 2, 11, 108
8, 73253, Control_c, 2, 11, 109
8, 73307, Control_c, 2, 11, 110
8, 73319, Note_on_c, 2, 81, 0
8, 73320, Note_on_c, 2, 79, 68
8, 73360, Control_c, 2, 11, 111
8, 73413, Control_c, 2, 11, 112
8, 73439, Note_on_c, 2, 79, 0
8, 73440, Note_on_c, 2, 77, 68
8, 73467, Control_c, 2, 11, 113
8, 73520, Control_c, 2, 11, 114
8, 73559, Note_on_c, 2, 77, 0
8, 73560, Note_on_c, 2, 76, 68
8, 73573, Control_c, 2, 11, 115
8, 73627, Control_c, 2, 11, 116
8, 73664, Note_on_c, 2, 76, 0
8, 73680, Control_c, 2, 11, 117
8, 73680, Note_on_c, 2, 76, 68
8, 73733, Control_c, 2, 11, 118
8, 73787, Control_c, 2, 11, 119
8, 73799, Note_on_c, 2, 76, 0
8, 73800, Note_on_c, 2, 77, 68
8, 73840, Control_c, 2, 11, 121
8, 73859, Note_on_c, 2, 77, 0
8, 73860, Note_on_c, 2, 76, 68
8, 73893, Control_c, 2, 11, 122
8, 73919, Note_on_c, 2, 76, 0
8, 73920, Note_on_c, 2, 74, 68
8, 73947, Control_c, 2, 11, 123
8, 74000, Control_c, 2, 11, 124
8, 74039, Note_on_c, 2, 74, 0
8, 74040, Note_on_c, 2, 76, 68
8, 74053, Control_c, 2, 11, 125
8, 74107, Control_c, 2, 11, 127
8, 74159, Note_on_c, 2, 76, 0
8, 74160, Note_on_c, 2, 79, 52
8, 74239, Note_on_c, 2, 79, 0
8, 74240, Note_on_c, 2, 77, 52
8, 74319, Note_on_c, 2, 77, 0
8, 74320, Note_on_c, 2, 74, 52
8, 74384, Note_on_c, 2, 74, 0
8, 74400, Note_on_c, 2, 74, 52
8, 74519, Note_on_c, 2, 74, 0
8, 74520, Note_on_c, 2, 72, 52
8, 74639, Note_on_c, 2, 72, 0
8, 74640, Note_on_c, 2, 72, 52
8, 74729, Note_on_c, 2, 72, 0
8, 75960, Note_on_c, 2, 79, 52
8, 76064, Note_on_c, 2, 79, 0
8, 76080, Note_on_c, 2, 81, 52
8, 76184, Note_on_c, 2, 81, 0
8, 76200, Note_on_c, 2, 83, 52
8, 76289, Note_on_c, 2, 83, 0
8, 76320, Note_on_c, 2, 84, 52
8, 76559, Note_on_c, 2, 84, 0
8, 77400, Note_on_c, 2, 79, 52
8, 77504, Note_on_c, 2, 79, 0
8, 77520, Note_on_c, 2, 81, 52
8, 77624, Note_on_c, 2, 81, 0
8, 77640, Note_on_c, 2, 83, 52
8, 77729, Note_on_c, 2, 83, 0
8, 77760, Note_on_c, 2, 84, 52
8, 77999, Note_on_c, 2, 84, 0
8, 78120, Note_on_c, 2, 75, 52
8, 78224, Note_on_c, 2, 75, 0
8, 78240, Note_on_c, 2, 77, 53
8, 78344, Note_on_c, 2, 77, 0
8, 78360, Note_on_c, 2, 79, 54
8, 78449, Note_on_c, 2, 79, 0
8, 78480, Note_on_c, 2, 80, 56
8, 78719, Note_on_c, 2, 80, 0
8, 80280, Note_on_c, 2, 72, 76
8, 80399, Note_on_c, 2, 72, 0
8, 80400, Note_on_c, 2, 76, 76
8, 80519, Note_on_c, 2, 76, 0
8, 80520, Note_on_c, 2, 79, 76
8, 80639, Note_on_c, 2, 79, 0
8, 80640, Note_on_c, 2, 84, 76
8, 80759, Note_on_c, 2, 84, 0
8, 80760, Note_on_c, 2, 82, 76
8, 80864, Note_on_c, 2, 82, 0
8, 80880, Note_on_c, 2, 81, 48
8, 80999, Note_on_c, 2, 81, 0
8, 81000, Note_on_c, 2, 82, 48
8, 81039, Note_on_c, 2, 82, 0
8, 81040, Note_on_c, 2, 81, 48
8, 81079, Note_on_c, 2, 81, 0
8, 81080, Note_on_c, 2, 79, 48
8, 81119, Note_on_c, 2, 79, 0
8, 81120, Note_on_c, 2, 81, 48
8, 81239, Note_on_c, 2, 81, 0
8, 81240, Note_on_c, 2, 82, 50
8, 81359, Note_on_c, 2, 82, 0
8, 81360, Note_on_c, 2, 84, 52
8, 81464, Note_on_c, 2, 84, 0
8, 81480, Note_on_c, 2, 84, 54
8, 81569, Note_on_c, 2, 84, 0
8, 81600, Note_on_c, 2, 84, 56
8, 81719, Note_on_c, 2, 84, 0
8, 81720, Note_on_c, 2, 85, 58
8, 81839, Note_on_c, 2, 85, 0
8, 81840, Note_on_c, 2, 86, 60
8, 81959, Note_on_c, 2, 86, 0
8, 81960, Note_on_c, 2, 74, 62
8, 82079, Note_on_c, 2, 74, 0
8, 82080, Note_on_c, 2, 84, 64
8, 82199, Note_on_c, 2, 84, 0
8, 82200, Note_on_c, 2, 82, 66
8, 82304, Note_on_c, 2, 82, 0
8, 82320, Note_on_c, 2, 81, 52
8, 82439, Note_on_c, 2, 81, 0
8, 82440, Note_on_c, 2, 84, 52
8, 82559, Note_on_c, 2, 84, 0
8, 82560, Note_on_c, 2, 89, 52
8, 82664, Note_on_c, 2, 89, 0
8, 82680, Note_on_c, 2, 81, 52
8, 82799, Note_on_c, 2, 81, 0
8, 82800, Note_on_c, 2, 84, 52
8, 82919, Note_on_c, 2, 84, 0
8, 82920, Note_on_c, 2, 76, 52
8, 83024, Note_on_c, 2, 76, 0
8, 83040, Note_on_c, 2, 77, 52
8, 83279, Note_on_c, 2, 77, 0
8, 84480, Note_on_c, 2, 72, 48
8, 84719, Note_on_c, 2, 72, 0
8, 84720, Note_on_c, 2, 77, 48
8, 84944, Note_on_c, 2, 77, 0
8, 84960, Note_on_c, 2, 77, 48
8, 85184, Note_on_c, 2, 77, 0
8, 85200, Note_on_c, 2, 77, 48
8, 85319, Note_on_c, 2, 77, 0
8, 85320, Note_on_c, 2, 76, 48
8, 85439, Note_on_c, 2, 76, 0
8, 85440, Note_on_c, 2, 74, 48
8, 85559, Note_on_c, 2, 74, 0
8, 85560, Note_on_c, 2, 72, 48
8, 85679, Note_on_c, 2, 72, 0
8, 85680, Note_on_c, 2, 70, 48
8, 85799, Note_on_c, 2, 70, 0
8, 85800, Note_on_c, 2, 67, 48
8, 85904, Note_on_c, 2, 67, 0
8, 85920, Note_on_c, 2, 65, 48
8, 86159, Note_on_c, 2, 65, 0
8, 87360, Note_on_c, 2, 72, 48
8, 87479, Note_on_c, 2, 72, 0
8, 87480, Note_on_c, 2, 77, 48
8, 87584, Note_on_c, 2, 77, 0
8, 87600, Note_on_c, 2, 77, 48
8, 87689, Note_on_c, 2, 77, 0
8, 87720, Note_on_c, 2, 77, 48
8, 87809, Note_on_c, 2, 77, 0
8, 87840, Note_on_c, 2, 77, 48
8, 87929, Note_on_c, 2, 77, 0
8, 87960, Note_on_c, 2, 77, 48
8, 88049, Note_on_c, 2, 77, 0
8, 88080, Note_on_c, 2, 77, 48
8, 88199, Note_on_c, 2, 77, 0
8, 88200, Note_on_c, 2, 76, 48
8, 88319, Note_on_c, 2, 76, 0
8, 88320, Note_on_c, 2, 74, 48
8, 88439, Note_on_c, 2, 74, 0
8, 88440, Note_on_c, 2, 72, 48
8, 88559, Note_on_c, 2, 72, 0
8, 88560, Note_on_c, 2, 70, 48
8, 88679, Note_on_c, 2, 70, 0
8, 88680, Note_on_c, 2, 67, 48
8, 88784, Note_on_c, 2, 67, 0
8, 88800, Note_on_c, 2, 65, 52
8, 88919, Note_on_c, 2, 65, 0
8, 88920, Note_on_c, 2, 72, 54
8, 89039, Note_on_c, 2, 72, 0
8, 89040, Note_on_c, 2, 84, 57
8, 89144, Note_on_c, 2, 84, 0
8, 89160, Note_on_c, 2, 81, 60
8, 89264, Note_on_c, 2, 81, 0
8, 89280, Note_on_c, 2, 79, 62
8, 89384, Note_on_c, 2, 79, 0
8, 89400, Note_on_c, 2, 77, 65
8, 89489, Note_on_c, 2, 77, 0
8, 89520, Note_on_c, 2, 77, 68
8, 89639, Note_on_c, 2, 77, 0
8, 89640, Note_on_c, 2, 76, 52
8, 89759, Note_on_c, 2, 76, 0
8, 89760, Note_on_c, 2, 74, 52
8, 89879, Note_on_c, 2, 74, 0
8, 89880, Note_on_c, 2, 72, 52
8, 89999, Note_on_c, 2, 72, 0
8, 90000, Note_on_c, 2, 70, 52
8, 90119, Note_on_c, 2, 70, 0
8, 90120, Note_on_c, 2, 67, 52
8, 90224, Note_on_c, 2, 67, 0
8, 90240, Note_on_c, 2, 65, 52
8, 90359, Note_on_c, 2, 65, 0
8, 90360, Note_on_c, 2, 72, 54
8, 90479, Note_on_c, 2, 72, 0
8, 90480, Note_on_c, 2, 84, 57
8, 90584, Note_on_c, 2, 84, 0
8, 90600, Note_on_c, 2, 81, 60
8, 90704, Note_on_c, 2, 81, 0
8, 90720, Note_on_c, 2, 79, 62
8, 90824, Note_on_c, 2, 79, 0
8, 90840, Note_on_c, 2, 77, 65
8, 90929, Note_on_c, 2, 77, 0
8, 90960, Note_on_c, 2, 77, 52
8, 91079, Note_on_c, 2, 77, 0
8, 91080, Note_on_c, 2, 72, 52
8, 91184, Note_on_c, 2, 72, 0
8, 91200, Note_on_c, 2, 72, 52
8, 91289, Note_on_c, 2, 72, 0
8, 92040, Note_on_c, 2, 81, 47
8, 92144, Note_on_c, 2, 81, 0
8, 92160, Note_on_c, 2, 79, 46
8, 92264, Note_on_c, 2, 79, 0
8, 92280, Note_on_c, 2, 77, 45
8, 92369, Note_on_c, 2, 77, 0
8, 92400, Note_on_c, 2, 77, 44
8, 92519, Note_on_c, 2, 77, 0
8, 92520, Note_on_c, 2, 72, 44
8, 92624, Note_on_c, 2, 72, 0
8, 92640, Note_on_c, 2, 72, 44
8, 92729, Note_on_c, 2, 72, 0
8, 92760, Note_on_c, 2, 72, 44
8, 92849, Note_on_c, 2, 72, 0
8, 92880, Note_on_c, 2, 77, 44
8, 92969, Note_on_c, 2, 77, 0
8, 93000, Note_on_c, 2, 81, 44
8, 93089, Note_on_c, 2, 81, 0
8, 93120, Note_on_c, 2, 84, 44
8, 93239, Note_on_c, 2, 84, 0
8, 93240, Note_on_c, 2, 81, 44
8, 93344, Note_on_c, 2, 81, 0
8, 93360, Note_on_c, 2, 89, 44
8, 93479, Note_on_c, 2, 89, 0
8, 98640, Note_on_c, 2, 60, 76
8, 98640, Note_on_c, 2, 72, 76
8, 98759, Note_on_c, 2, 60, 0
8, 98759, Note_on_c, 2, 72, 0
8, 98880, Note_on_c, 2, 65, 84
8, 98880, Note_on_c, 2, 77, 84
8, 98940, Control_c, 2, 11, 112
8, 99359, Note_on_c, 2, 65, 0
8, 99359, Note_on_c, 2, 77, 0
8, 99480, Control_c, 2, 11, 127
8, 100200, Note_on_c, 2, 67, 76
8, 100200, Note_on_c, 2, 70, 76
8, 100304, Note_on_c, 2, 67, 0
8, 100304, Note_on_c, 2, 70, 0
8, 100320, Note_on_c, 2, 70, 76
8, 100320, Note_on_c, 2, 67, 76
8, 100559, Note_on_c, 2, 70, 0
8, 100559, Note_on_c, 2, 67, 0
8, 100560, Note_on_c, 2, 65, 76
8, 100560, Note_on_c, 2, 69, 76
8, 100679, Note_on_c, 2, 65, 0
8, 100679, Note_on_c, 2, 69, 0
8, 105840, Note_on_c, 2, 60, 76
8, 105840, Note_on_c, 2, 72, 76
8, 105959, Note_on_c, 2, 60, 0
8, 105959, Note_on_c, 2, 72, 0
8, 106080, Note_on_c, 2, 77, 84
8, 106080, Note_on_c, 2, 65, 84
8, 106140, Control_c, 2, 11, 112
8, 106559, Note_on_c, 2, 77, 0
8, 106559, Note_on_c, 2, 65, 0
8, 106680, Control_c, 2, 11, 127
8, 107400, Note_on_c, 2, 70, 76
8, 107400, Note_on_c, 2, 67, 76
8, 107504, Note_on_c, 2, 70, 0
8, 107504, Note_on_c, 2, 67, 0
8, 107520, Note_on_c, 2, 70, 76
8, 107520, Note_on_c, 2, 67, 76
8, 107759, Note_on_c, 2, 70, 0
8, 107759, Note_on_c, 2, 67, 0
8, 107760, Note_on_c, 2, 65, 76
8, 107760, Note_on_c, 2, 69, 76
8, 107879, Note_on_c, 2, 65, 0
8, 107879, Note_on_c, 2, 69, 0
8, 108480, Note_on_c, 2, 77, 84
8, 108480, Note_on_c, 2, 71, 84
8, 108599, Note_on_c, 2, 77, 0
8, 108599, Note_on_c, 2, 71, 0
8, 109200, Note_on_c, 2, 72, 84
8, 109200, Note_on_c, 2, 76, 84
8, 109319, Note_on_c, 2, 72, 0
8, 109319, Note_on_c, 2, 76, 0
8, 109920, Note_on_c, 2, 77, 84
8, 109920, Note_on_c, 2, 74, 84
8, 110039, Note_on_c, 2, 77, 0
8, 110039, Note_on_c, 2, 74, 0
8, 110640, Note_on_c, 2, 72, 84
8, 110640, Note_on_c, 2, 76, 84
8, 110759, Note_on_c, 2, 72, 0
8, 110759, Note_on_c, 2, 76, 0
8, 110880, Note_on_c, 2, 72, 76
8, 110880, Note_on_c, 2, 76, 76
8, 110999, Note_on_c, 2, 72, 0
8, 110999, Note_on_c, 2, 76, 0
8, 111120, Note_on_c, 2, 74, 84
8, 111239, Note_on_c, 2, 74, 0
8, 111360, Note_on_c, 2, 74, 76
8, 111479, Note_on_c, 2, 74, 0
8, 111840, Note_on_c, 2, 76, 84
8, 111840, Note_on_c, 2, 72, 84
8, 111959, Note_on_c, 2, 76, 0
8, 111959, Note_on_c, 2, 72, 0
8, 112080, Note_on_c, 2, 72, 76
8, 112080, Note_on_c, 2, 76, 76
8, 112199, Note_on_c, 2, 72, 0
8, 112199, Note_on_c, 2, 76, 0
8, 112560, Note_on_c, 2, 70, 84
8, 112560, Note_on_c, 2, 76, 84
8, 112679, Note_on_c, 2, 70, 0
8, 112679, Note_on_c, 2, 76, 0
8, 112800, Note_on_c, 2, 76, 76
8, 112800, Note_on_c, 2, 70, 76
8, 112919, Note_on_c, 2, 76, 0
8, 112919, Note_on_c, 2, 70, 0
8, 113280, Note_on_c, 2, 69, 84
8, 113280, Note_on_c, 2, 77, 84
8, 113399, Note_on_c, 2, 69, 0
8, 113399, Note_on_c, 2, 77, 0
8, 113520, Note_on_c, 2, 69, 76
8, 113520, Note_on_c, 2, 77, 76
8, 113639, Note_on_c, 2, 69, 0
8, 113639, Note_on_c, 2, 77, 0
8, 113760, Note_on_c, 2, 60, 76
8, 113760, Note_on_c, 2, 72, 76
8, 113879, Note_on_c, 2, 60, 0
8, 113879, Note_on_c, 2, 72, 0
8, 114000, Note_on_c, 2, 75, 76
8, 114000, Note_on_c, 2, 72, 76
8, 114060, Control_c, 2, 11, 80
8, 115184, Note_on_c, 2, 75, 0
8, 115184, Note_on_c, 2, 72, 0
8, 115200, Control_c, 2, 11, 80
8, 115200, Note_on_c, 2, 75, 76
8, 115200, Note_on_c, 2, 72, 76
8, 115320, Control_c, 2, 11, 79
8, 115440, Control_c, 2, 11, 77
8, 115560, Control_c, 2, 11, 76
8, 115680, Control_c, 2, 11, 75
8, 115800, Control_c, 2, 11, 73
8, 115904, Note_on_c, 2, 75, 0
8, 115904, Note_on_c, 2, 72, 0
8, 115920, Note_on_c, 2, 72, 76
8, 115920, Control_c, 2, 11, 72
8, 115920, Note_on_c, 2, 75, 76
8, 116040, Control_c, 2, 11, 71
8, 116160, Control_c, 2, 11, 69
8, 116280, Control_c, 2, 11, 68
8, 116400, Control_c, 2, 11, 67
8, 116520, Control_c, 2, 11, 65
8, 116639, Note_on_c, 2, 72, 0
8, 116639, Note_on_c, 2, 75, 0
8, 116640, Control_c, 2, 11, 64
8, 116760, Control_c, 2, 11, 127
8, 116880, Note_on_c, 2, 75, 44
8, 116880, Note_on_c, 2, 72, 44
8, 116999, Note_on_c, 2, 75, 0
8, 116999, Note_on_c, 2, 72, 0
8, 117360, Note_on_c, 2, 72, 44
8, 117360, Note_on_c, 2, 75, 44
8, 117479, Note_on_c, 2, 72, 0
8, 117479, Note_on_c, 2, 75, 0
8, 117840, Note_on_c, 2, 75, 44
8, 117840, Note_on_c, 2, 72, 44
8, 117959, Note_on_c, 2, 75, 0
8, 117959, Note_on_c, 2, 72, 0
8, 122880, Note_on_c, 2, 67, 70
8, 122999, Note_on_c, 2, 67, 0
8, 123000, Note_on_c, 2, 69, 72
8, 123119, Note_on_c, 2, 69, 0
8, 123120, Note_on_c, 2, 70, 74
8, 123224, Note_on_c, 2, 70, 0
8, 123240, Note_on_c, 2, 71, 76
8, 123344, Note_on_c, 2, 71, 0
8, 123360, Note_on_c, 2, 71, 80
8, 123599, Note_on_c, 2, 71, 0
8, 123600, Note_on_c, 2, 72, 80
8, 123719, Note_on_c, 2, 72, 0
8, 123720, Note_on_c, 2, 74, 80
8, 123839, Note_on_c, 2, 74, 0
8, 123840, Note_on_c, 2, 75, 80
8, 123944, Note_on_c, 2, 75, 0
8, 123960, Note_on_c, 2, 76, 80
8, 124064, Note_on_c, 2, 76, 0
8, 124080, Note_on_c, 2, 64, 80
8, 124080, Note_on_c, 2, 76, 80
8, 124319, Note_on_c, 2, 64, 0
8, 124319, Note_on_c, 2, 76, 0
8, 124320, Note_on_c, 2, 65, 80
8, 124320, Note_on_c, 2, 77, 80
8, 124439, Note_on_c, 2, 65, 0
8, 124439, Note_on_c, 2, 77, 0
8, 124440, Note_on_c, 2, 67, 80
8, 124440, Note_on_c, 2, 79, 80
8, 124559, Note_on_c, 2, 67, 0
8, 124559, Note_on_c, 2, 79, 0
8, 124560, Note_on_c, 2, 68, 80
8, 124560, Note_on_c, 2, 80, 80
8, 124664, Note_on_c, 2, 68, 0
8, 124664, Note_on_c, 2, 80, 0
8, 124680, Note_on_c, 2, 81, 84
8, 124680, Note_on_c, 2, 69, 84
8, 124784, Note_on_c, 2, 81, 0
8, 124784, Note_on_c, 2, 69, 0
8, 124800, Note_on_c, 2, 81, 84
8, 124800, Note_on_c, 2, 69, 84
8, 125039, Note_on_c, 2, 81, 0
8, 125039, Note_on_c, 2, 69, 0
8, 125040, Note_on_c, 2, 82, 84
8, 125040, Note_on_c, 2, 70, 84
8, 125159, Note_on_c, 2, 82, 0
8, 125159, Note_on_c, 2, 70, 0
8, 127920, Note_on_c, 2, 72, 76
8, 127920, Note_on_c, 2, 60, 76
8, 128039, Note_on_c, 2, 72, 0
8, 128039, Note_on_c, 2, 60, 0
8, 128160, Note_on_c, 2, 65, 84
8, 128160, Note_on_c, 2, 77, 84
8, 128220, Control_c, 2, 11, 112
8, 128519, Note_on_c, 2, 65, 0
8, 128519, Note_on_c, 2, 77, 0
8, 129120, Control_c, 2, 11, 127
8, 129360, Note_on_c, 2, 72, 76
8, 129360, Note_on_c, 2, 60, 76
8, 129479, Note_on_c, 2, 72, 0
8, 129479, Note_on_c, 2, 60, 0
8, 129600, Note_on_c, 2, 76, 84
8, 129600, Note_on_c, 2, 70, 84
8, 129660, Control_c, 2, 11, 112
8, 129839, Note_on_c, 2, 76, 0
8, 129839, Note_on_c, 2, 70, 0
8, 129840, Note_on_c, 2, 69, 84
8, 129840, Note_on_c, 2, 77, 84
8, 129959, Note_on_c, 2, 69, 0
8, 129959, Note_on_c, 2, 77, 0
8, 130320, Control_c, 2, 11, 127
8, 130560, Note_on_c, 2, 70, 84
8, 130560, Note_on_c, 2, 76, 84
8, 130620, Control_c, 2, 11, 112
8, 130799, Note_on_c, 2, 70, 0
8, 130799, Note_on_c, 2, 76, 0
8, 130800, Note_on_c, 2, 77, 84
8, 130800, Note_on_c, 2, 69, 84
8, 130919, Note_on_c, 2, 77, 0
8, 130919, Note_on_c, 2, 69, 0
8, 131280, Control_c, 2, 11, 127
8, 131520, Note_on_c, 2, 76, 84
8, 131580, Control_c, 2, 11, 112
8, 131759, Note_on_c, 2, 76, 0
8, 132000, Note_on_c, 2, 76, 84
8, 132000, Note_on_c, 2, 67, 84
8, 132239, Note_on_c, 2, 76, 0
8, 132239, Note_on_c, 2, 67, 0
8, 132240, Note_on_c, 2, 77, 84
8, 132240, Note_on_c, 2, 69, 84
8, 132359, Note_on_c, 2, 77, 0
8, 132359, Note_on_c, 2, 69, 0
8, 132480, Control_c, 2, 11, 127
8, 132960, Note_on_c, 2, 71, 84
8, 132960, Note_on_c, 2, 77, 84
8, 133079, Note_on_c, 2, 71, 0
8, 133079, Note_on_c, 2, 77, 0
8, 133680, Note_on_c, 2, 76, 84
8, 133680, Note_on_c, 2, 72, 84
8, 133799, Note_on_c, 2, 76, 0
8, 133799, Note_on_c, 2, 72, 0
8, 134400, Note_on_c, 2, 77, 84
8, 134400, Note_on_c, 2, 74, 84
8, 134519, Note_on_c, 2, 77, 0
8, 134519, Note_on_c, 2, 74, 0
8, 135120, Note_on_c, 2, 76, 84
8, 135120, Note_on_c, 2, 72, 84
8, 135239, Note_on_c, 2, 76, 0
8, 135239, Note_on_c, 2, 72, 0
8, 135360, Note_on_c, 2, 76, 76
8, 135360, Note_on_c, 2, 72, 76
8, 135479, Note_on_c, 2, 76, 0
8, 135479, Note_on_c, 2, 72, 0
8, 135600, Note_on_c, 2, 74, 84
8, 135719, Note_on_c, 2, 74, 0
8, 135840, Note_on_c, 2, 74, 76
8, 135959, Note_on_c, 2, 74, 0
8, 136320, Note_on_c, 2, 72, 84
8, 136320, Note_on_c, 2, 76, 84
8, 136439, Note_on_c, 2, 72, 0
8, 136439, Note_on_c, 2, 76, 0
8, 136560, Note_on_c, 2, 76, 76
8, 136560, Note_on_c, 2, 72, 76
8, 136679, Note_on_c, 2, 76, 0
8, 136679, Note_on_c, 2, 72, 0
8, 137040, Note_on_c, 2, 76, 84
8, 137040, Note_on_c, 2, 70, 84
8, 137159, Note_on_c, 2, 76, 0
8, 137159, Note_on_c, 2, 70, 0
8, 137280, Note_on_c, 2, 76, 76
8, 137280, Note_on_c, 2, 70, 76
8, 137399, Note_on_c, 2, 76, 0
8, 137399, Note_on_c, 2, 70, 0
8, 137760, Note_on_c, 2, 77, 84
8, 137760, Note_on_c, 2, 69, 84
8, 137879, Note_on_c, 2, 77, 0
8, 137879, Note_on_c, 2, 69, 0
8, 138000, Note_on_c, 2, 77, 76
8, 138000, Note_on_c, 2, 69, 76
8, 138119, Note_on_c, 2, 77, 0
8, 138119, Note_on_c, 2, 69, 0
8, 138240, Note_on_c, 2, 60, 76
8, 138240, Note_on_c, 2, 72, 76
8, 138359, Note_on_c, 2, 60, 0
8, 138359, Note_on_c, 2, 72, 0
8, 138480, Note_on_c, 2, 72, 76
8, 138480, Note_on_c, 2, 75, 76
8, 138540, Control_c, 2, 11, 80
8, 139664, Note_on_c, 2, 72, 0
8, 139664, Note_on_c, 2, 75, 0
8, 139680, Note_on_c, 2, 75, 76
8, 139680, Control_c, 2, 11, 80
8, 139680, Note_on_c, 2, 72, 76
8, 139800, Control_c, 2, 11, 79
8, 139920, Control_c, 2, 11, 77
8, 140040, Control_c, 2, 11, 76
8, 140160, Control_c, 2, 11, 75
8, 140280, Control_c, 2, 11, 73
8, 140384, Note_on_c, 2, 75, 0
8, 140384, Note_on_c, 2, 72, 0
8, 140400, Control_c, 2, 11, 72
8, 140400, Note_on_c, 2, 75, 76
8, 140400, Note_on_c, 2, 72, 76
8, 140520, Control_c, 2, 11, 71
8, 140640, Control_c, 2, 11, 69
8, 140760, Control_c, 2, 11, 68
8, 140880, Control_c, 2, 11, 67
8, 141000, Control_c, 2, 11, 65
8, 141119, Note_on_c, 2, 75, 0
8, 141119, Note_on_c, 2, 72, 0
8, 141120, Control_c, 2, 11, 64
8, 141240, Control_c, 2, 11, 127
8, 141360, Note_on_c, 2, 75, 44
8, 141360, Note_on_c, 2, 72, 44
8, 141479, Note_on_c, 2, 75, 0
8, 141479, Note_on_c, 2, 72, 0
8, 141840, Note_on_c, 2, 72, 44
8, 141840, Note_on_c, 2, 75, 44
8, 141959, Note_on_c, 2, 72, 0
8, 141959, Note_on_c, 2, 75, 0
8, 142320, Note_on_c, 2, 75, 44
8, 142320, Note_on_c, 2, 72, 44
8, 142439, Note_on_c, 2, 75, 0
8, 142439, Note_on_c, 2, 72, 0
8, 147360, Note_on_c, 2, 67, 70
8, 147479, Note_on_c, 2, 67, 0
8, 147480, Note_on_c, 2, 69, 72
8, 147599, Note_on_c, 2, 69, 0
8, 147600, Note_on_c, 2, 70, 74
8, 147704, Note_on_c, 2, 70, 0
8, 147720, Note_on_c, 2, 71, 76
8, 147824, Note_on_c, 2, 71, 0
8, 147840, Note_on_c, 2, 71, 80
8, 148079, Note_on_c, 2, 71, 0
8, 148080, Note_on_c, 2, 72, 80
8, 148199, Note_on_c, 2, 72, 0
8, 148200, Note_on_c, 2, 74, 80
8, 148319, Note_on_c, 2, 74, 0
8, 148320, Note_on_c, 2, 75, 80
8, 148424, Note_on_c, 2, 75, 0
8, 148440, Note_on_c, 2, 76, 80
8, 148544, Note_on_c, 2, 76, 0
8, 148560, Note_on_c, 2, 64, 80
8, 148560, Note_on_c, 2, 76, 80
8, 148799, Note_on_c, 2, 64, 0
8, 148799, Note_on_c, 2, 76, 0
8, 148800, Note_on_c, 2, 77, 80
8, 148800, Note_on_c, 2, 65, 80
8, 148919, Note_on_c, 2, 77, 0
8, 148919, Note_on_c, 2, 65, 0
8, 148920, Note_on_c, 2, 67, 80
8, 148920, Note_on_c, 2, 79, 80
8, 149039, Note_on_c, 2, 67, 0
8, 149039, Note_on_c, 2, 79, 0
8, 149040, Note_on_c, 2, 80, 80
8, 149040, Note_on_c, 2, 68, 80
8, 149144, Note_on_c, 2, 80, 0
8, 149144, Note_on_c, 2, 68, 0
8, 149160, Note_on_c, 2, 69, 84
8, 149160, Note_on_c, 2, 81, 84
8, 149264, Note_on_c, 2, 69, 0
8, 149264, Note_on_c, 2, 81, 0
8, 149280, Note_on_c, 2, 81, 84
8, 149280, Note_on_c, 2, 69, 84
8, 149519, Note_on_c, 2, 81, 0
8, 149519, Note_on_c, 2, 69, 0
8, 149520, Note_on_c, 2, 70, 84
8, 149520, Note_on_c, 2, 82, 84
8, 149639, Note_on_c, 2, 70, 0
8, 149639, Note_on_c, 2, 82, 0
8, 152400, Note_on_c, 2, 60, 76
8, 152400, Note_on_c, 2, 72, 76
8, 152519, Note_on_c, 2, 60, 0
8, 152519, Note_on_c, 2, 72, 0
8, 152640, Note_on_c, 2, 77, 84
8, 152640, Note_on_c, 2, 65, 84
8, 152700, Control_c, 2, 11, 112
8, 152999, Note_on_c, 2, 77, 0
8, 152999, Note_on_c, 2, 65, 0
8, 153600, Control_c, 2, 11, 127
8, 153840, Note_on_c, 2, 60, 76
8, 153840, Note_on_c, 2, 72, 76
8, 153959, Note_on_c, 2, 60, 0
8, 153959, Note_on_c, 2, 72, 0
8, 154080, Note_on_c, 2, 76, 84
8, 154080, Note_on_c, 2, 70, 84
8, 154140, Control_c, 2, 11, 112
8, 154319, Note_on_c, 2, 76, 0
8, 154319, Note_on_c, 2, 70, 0
8, 154320, Note_on_c, 2, 77, 84
8, 154320, Note_on_c, 2, 69, 84
8, 154439, Note_on_c, 2, 77, 0
8, 154439, Note_on_c, 2, 69, 0
8, 154800, Control_c, 2, 11, 127
8, 155040, Note_on_c, 2, 70, 84
8, 155040, Note_on_c, 2, 76, 84
8, 155100, Control_c, 2, 11, 112
8, 155279, Note_on_c, 2, 70, 0
8, 155279, Note_on_c, 2, 76, 0
8, 155280, Note_on_c, 2, 77, 84
8, 155280, Note_on_c, 2, 69, 84
8, 155399, Note_on_c, 2, 77, 0
8, 155399, Note_on_c, 2, 69, 0
8, 155760, Control_c, 2, 11, 127
8, 156000, Note_on_c, 2, 76, 84
8, 156060, Control_c, 2, 11, 112
8, 156239, Note_on_c, 2, 76, 0
8, 156480, Note_on_c, 2, 76, 84
8, 156480, Note_on_c, 2, 67, 84
8, 156719, Note_on_c, 2, 76, 0
8, 156719, Note_on_c, 2, 67, 0
8, 156720, Note_on_c, 2, 77, 84
8, 156720, Note_on_c, 2, 69, 84
8, 156839, Note_on_c, 2, 77, 0
8, 156839, Note_on_c, 2, 69, 0
8, 156960, Control_c, 2, 11, 127
8, 156960, End_track
9, 0, Start_track
9, 0, Title_t, "Bassoon"
9, 0, MIDI_port, 0
9, 0, Program_c, 3, 70
9, 0, Control_c, 3, 7, 96
9, 0, Control_c, 3, 10, 65
9, 0, Control_c, 3, 11, 127
9, 0, Note_on_c, 3, 53, 76
9, 119, Note_on_c, 3, 53, 0
9, 120, Note_on_c, 3, 48, 76
9, 224, Note_on_c, 3, 48, 0
9, 240, Note_on_c, 3, 53, 84
9, 359, Note_on_c, 3, 53, 0
9, 360, Note_on_c, 3, 48, 76
9, 479, Note_on_c, 3, 48, 0
9, 480, Note_on_c, 3, 53, 84
9, 599, Note_on_c, 3, 53, 0
9, 600, Note_on_c, 3, 48, 76
9, 704, Note_on_c, 3, 48, 0
9, 720, Note_on_c, 3, 57, 84
9, 720, Note_on_c, 3, 53, 84
9, 839, Note_on_c, 3, 57, 0
9, 839, Note_on_c, 3, 53, 0
9, 840, Note_on_c, 3, 53, 76
9, 840, Note_on_c, 3, 48, 76
9, 944, Note_on_c, 3, 53, 0
9, 944, Note_on_c, 3, 48, 0
9, 960, Note_on_c, 3, 53, 84
9, 960, Note_on_c, 3, 57, 84
9, 1079, Note_on_c, 3, 53, 0
9, 1079, Note_on_c, 3, 57, 0
9, 1080, Note_on_c, 3, 53, 76
9, 1080, Note_on_c, 3, 48, 76
9, 1199, Note_on_c, 3, 53, 0
9, 1199, Note_on_c, 3, 48, 0
9, 1200, Note_on_c, 3, 53, 84
9, 1200, Note_on_c, 3, 57, 84
9, 1319, Note_on_c, 3, 53, 0
9, 1319, Note_on_c, 3, 57, 0
9, 1320, Note_on_c, 3, 53, 76
9, 1320, Note_on_c, 3, 48, 76
9, 1439, Note_on_c, 3, 53, 0
9, 1439, Note_on_c, 3, 48, 0
9, 2880, Note_on_c, 3, 60, 52
9, 2999, Note_on_c, 3, 60, 0
9, 3000, Note_on_c, 3, 61, 54
9, 3119, Note_on_c, 3, 61, 0
9, 3120, Note_on_c, 3, 64, 56
9, 3239, Note_on_c, 3, 64, 0
9, 3240, Note_on_c, 3, 62, 58
9, 3359, Note_on_c, 3, 62, 0
9, 3360, Note_on_c, 3, 55, 60
9, 3479, Note_on_c, 3, 55, 0
9, 3480, Note_on_c, 3, 57, 62
9, 3599, Note_on_c, 3, 57, 0
9, 3600, Note_on_c, 3, 58, 64
9, 3719, Note_on_c, 3, 58, 0
9, 3720, Note_on_c, 3, 59, 66
9, 3824, Note_on_c, 3, 59, 0
9, 3840, Note_on_c, 3, 59, 68
9, 4079, Note_on_c, 3, 59, 0
9, 4080, Note_on_c, 3, 60, 72
9, 4199, Note_on_c, 3, 60, 0
9, 4320, Note_on_c, 3, 57, 76
9, 4320, Note_on_c, 3, 53, 76
9, 4439, Note_on_c, 3, 57, 0
9, 4439, Note_on_c, 3, 53, 0
9, 4560, Note_on_c, 3, 55, 84
9, 4560, Note_on_c, 3, 58, 84
9, 4620, Control_c, 3, 11, 112
9, 5264, Note_on_c, 3, 55, 0
9, 5264, Note_on_c, 3, 58, 0
9, 5278, Control_c, 3, 11, 127
9, 5280, Note_on_c, 3, 60, 84
9, 5280, Note_on_c, 3, 57, 84
9, 5340, Control_c, 3, 11, 112
9, 5759, Note_on_c, 3, 60, 0
9, 5864, Note_on_c, 3, 57, 0
9, 5880, Note_on_c, 3, 57, 84
9, 5999, Note_on_c, 3, 57, 0
9, 6000, Note_on_c, 3, 58, 84
9, 6119, Note_on_c, 3, 58, 0
9, 6120, Note_on_c, 3, 46, 84
9, 6239, Note_on_c, 3, 46, 0
9, 6240, Note_on_c, 3, 58, 84
9, 6359, Note_on_c, 3, 58, 0
9, 6360, Note_on_c, 3, 57, 84
9, 6479, Note_on_c, 3, 57, 0
9, 6480, Note_on_c, 3, 55, 84
9, 6584, Note_on_c, 3, 55, 0
9, 6600, Note_on_c, 3, 60, 84
9, 6704, Note_on_c, 3, 60, 0
9, 6718, Control_c, 3, 11, 127
9, 6720, Note_on_c, 3, 60, 76
9, 6839, Note_on_c, 3, 60, 0
9, 6840, Note_on_c, 3, 48, 76
9, 6959, Note_on_c, 3, 48, 0
9, 6960, Note_on_c, 3, 53, 76
9, 7079, Note_on_c, 3, 53, 0
9, 7200, Note_on_c, 3, 53, 76
9, 7319, Note_on_c, 3, 53, 0
9, 7320, Note_on_c, 3, 48, 76
9, 7424, Note_on_c, 3, 48, 0
9, 7440, Note_on_c, 3, 53, 84
9, 7559, Note_on_c, 3, 53, 0
9, 7560, Note_on_c, 3, 48, 76
9, 7679, Note_on_c, 3, 48, 0
9, 7680, Note_on_c, 3, 53, 84
9, 7799, Note_on_c, 3, 53, 0
9, 7800, Note_on_c, 3, 48, 76
9, 7904, Note_on_c, 3, 48, 0
9, 7920, Note_on_c, 3, 57, 84
9, 7920, Note_on_c, 3, 53, 84
9, 8039, Note_on_c, 3, 57, 0
9, 8039, Note_on_c, 3, 53, 0
9, 8040, Note_on_c, 3, 48, 76
9, 8040, Note_on_c, 3, 53, 76
9, 8144, Note_on_c, 3, 48, 0
9, 8144, Note_on_c, 3, 53, 0
9, 8160, Note_on_c, 3, 57, 84
9, 8160, Note_on_c, 3, 53, 84
9, 8279, Note_on_c, 3, 57, 0
9, 8279, Note_on_c, 3, 53, 0
9, 8280, Note_on_c, 3, 53, 76
9, 8280, Note_on_c, 3, 48, 76
9, 8399, Note_on_c, 3, 53, 0
9, 8399, Note_on_c, 3, 48, 0
9, 8400, Note_on_c, 3, 57, 84
9, 8400, Note_on_c, 3, 53, 84
9, 8519, Note_on_c, 3, 57, 0
9, 8519, Note_on_c, 3, 53, 0
9, 8520, Note_on_c, 3, 48, 76
9, 8520, Note_on_c, 3, 53, 76
9, 8639, Note_on_c, 3, 48, 0
9, 8639, Note_on_c, 3, 53, 0
9, 10080, Note_on_c, 3, 60, 52
9, 10199, Note_on_c, 3, 60, 0
9, 10200, Note_on_c, 3, 61, 54
9, 10319, Note_on_c, 3, 61, 0
9, 10320, Note_on_c, 3, 64, 56
9, 10439, Note_on_c, 3, 64, 0
9, 10440, Note_on_c, 3, 62, 58
9, 10559, Note_on_c, 3, 62, 0
9, 10560, Note_on_c, 3, 55, 60
9, 10679, Note_on_c, 3, 55, 0
9, 10680, Note_on_c, 3, 57, 62
9, 10799, Note_on_c, 3, 57, 0
9, 10800, Note_on_c, 3, 58, 64
9, 10919, Note_on_c, 3, 58, 0
9, 10920, Note_on_c, 3, 59, 66
9, 11024, Note_on_c, 3, 59, 0
9, 11040, Note_on_c, 3, 59, 68
9, 11279, Note_on_c, 3, 59, 0
9, 11280, Note_on_c, 3, 60, 72
9, 11399, Note_on_c, 3, 60, 0
9, 11520, Note_on_c, 3, 57, 76
9, 11520, Note_on_c, 3, 53, 76
9, 11639, Note_on_c, 3, 57, 0
9, 11639, Note_on_c, 3, 53, 0
9, 11760, Note_on_c, 3, 55, 84
9, 11760, Note_on_c, 3, 58, 84
9, 11820, Control_c, 3, 11, 112
9, 12464, Note_on_c, 3, 55, 0
9, 12464, Note_on_c, 3, 58, 0
9, 12478, Control_c, 3, 11, 127
9, 12480, Note_on_c, 3, 60, 84
9, 12480, Note_on_c, 3, 57, 84
9, 12540, Control_c, 3, 11, 112
9, 12959, Note_on_c, 3, 60, 0
9, 13064, Note_on_c, 3, 57, 0
9, 13080, Note_on_c, 3, 57, 84
9, 13199, Note_on_c, 3, 57, 0
9, 13200, Note_on_c, 3, 58, 84
9, 13319, Note_on_c, 3, 58, 0
9, 13320, Note_on_c, 3, 46, 84
9, 13439, Note_on_c, 3, 46, 0
9, 13440, Note_on_c, 3, 58, 84
9, 13559, Note_on_c, 3, 58, 0
9, 13560, Note_on_c, 3, 57, 84
9, 13679, Note_on_c, 3, 57, 0
9, 13680, Note_on_c, 3, 55, 84
9, 13784, Note_on_c, 3, 55, 0
9, 13800, Note_on_c, 3, 60, 84
9, 13904, Note_on_c, 3, 60, 0
9, 13918, Control_c, 3, 11, 127
9, 13920, Note_on_c, 3, 60, 76
9, 14039, Note_on_c, 3, 60, 0
9, 14040, Note_on_c, 3, 48, 76
9, 14159, Note_on_c, 3, 48, 0
9, 14160, Note_on_c, 3, 53, 76
9, 14279, Note_on_c, 3, 53, 0
9, 14880, Note_on_c, 3, 62, 84
9, 14880, Note_on_c, 3, 65, 84
9, 14999, Note_on_c, 3, 62, 0
9, 14999, Note_on_c, 3, 65, 0
9, 15600, Note_on_c, 3, 60, 84
9, 15600, Note_on_c, 3, 64, 84
9, 15719, Note_on_c, 3, 60, 0
9, 15719, Note_on_c, 3, 64, 0
9, 16320, Note_on_c, 3, 62, 84
9, 16320, Note_on_c, 3, 59, 84
9, 16439, Note_on_c, 3, 62, 0
9, 16439, Note_on_c, 3, 59, 0
9, 16560, Note_on_c, 3, 55, 76
9, 16679, Note_on_c, 3, 55, 0
9, 16800, Note_on_c, 3, 60, 84
9, 16860, Control_c, 3, 11, 112
9, 17159, Note_on_c, 3, 60, 0
9, 17160, Note_on_c, 3, 55, 84
9, 17279, Note_on_c, 3, 55, 0
9, 17280, Note_on_c, 3, 52, 84
9, 17399, Note_on_c, 3, 52, 0
9, 17400, Note_on_c, 3, 48, 84
9, 17504, Note_on_c, 3, 48, 0
9, 17518, Control_c, 3, 11, 127
9, 17520, Note_on_c, 3, 47, 84
9, 17639, Note_on_c, 3, 47, 0
9, 17760, Note_on_c, 3, 59, 76
9, 17760, Note_on_c, 3, 62, 76
9, 17879, Note_on_c, 3, 59, 0
9, 17879, Note_on_c, 3, 62, 0
9, 18240, Note_on_c, 3, 60, 84
9, 18240, Note_on_c, 3, 64, 84
9, 18359, Note_on_c, 3, 60, 0
9, 18359, Note_on_c, 3, 64, 0
9, 18480, Note_on_c, 3, 64, 76
9, 18480, Note_on_c, 3, 60, 76
9, 18599, Note_on_c, 3, 64, 0
9, 18599, Note_on_c, 3, 60, 0
9, 18960, Note_on_c, 3, 55, 84
9, 18960, Note_on_c, 3, 64, 84
9, 19079, Note_on_c, 3, 55, 0
9, 19079, Note_on_c, 3, 64, 0
9, 19200, Note_on_c, 3, 64, 76
9, 19200, Note_on_c, 3, 55, 76
9, 19319, Note_on_c, 3, 64, 0
9, 19319, Note_on_c, 3, 55, 0
9, 19680, Note_on_c, 3, 57, 84
9, 19680, Note_on_c, 3, 53, 84
9, 19799, Note_on_c, 3, 57, 0
9, 19799, Note_on_c, 3, 53, 0
9, 19920, Note_on_c, 3, 53, 76
9, 19920, Note_on_c, 3, 57, 76
9, 20039, Note_on_c, 3, 53, 0
9, 20039, Note_on_c, 3, 57, 0
9, 20160, Note_on_c, 3, 60, 76
9, 20279, Note_on_c, 3, 60, 0
9, 20400, Note_on_c, 3, 63, 76
9, 20400, Note_on_c, 3, 60, 76
9, 20519, Note_on_c, 3, 63, 0
9, 20519, Note_on_c, 3, 60, 0
9, 20520, Note_on_c, 3, 53, 52
9, 20520, Note_on_c, 3, 60, 52
9, 20639, Note_on_c, 3, 53, 0
9, 20639, Note_on_c, 3, 60, 0
9, 20640, Note_on_c, 3, 60, 52
9, 20640, Note_on_c, 3, 63, 52
9, 20759, Note_on_c, 3, 60, 0
9, 20759, Note_on_c, 3, 63, 0
9, 20760, Note_on_c, 3, 60, 52
9, 20760, Note_on_c, 3, 53, 52
9, 20879, Note_on_c, 3, 60, 0
9, 20879, Note_on_c, 3, 53, 0
9, 20880, Note_on_c, 3, 60, 52
9, 20880, Note_on_c, 3, 63, 52
9, 20999, Note_on_c, 3, 60, 0
9, 20999, Note_on_c, 3, 63, 0
9, 21000, Note_on_c, 3, 60, 52
9, 21000, Note_on_c, 3, 53, 52
9, 21104, Note_on_c, 3, 60, 0
9, 21104, Note_on_c, 3, 53, 0
9, 21120, Note_on_c, 3, 60, 52
9, 21120, Note_on_c, 3, 63, 52
9, 21239, Note_on_c, 3, 60, 0
9, 21239, Note_on_c, 3, 63, 0
9, 21240, Note_on_c, 3, 53, 52
9, 21240, Note_on_c, 3, 60, 52
9, 21359, Note_on_c, 3, 53, 0
9, 21359, Note_on_c, 3, 60, 0
9, 21360, Note_on_c, 3, 60, 52
9, 21360, Note_on_c, 3, 63, 52
9, 21479, Note_on_c, 3, 60, 0
9, 21479, Note_on_c, 3, 63, 0
9, 21480, Note_on_c, 3, 60, 52
9, 21480, Note_on_c, 3, 53, 52
9, 21599, Note_on_c, 3, 60, 0
9, 21599, Note_on_c, 3, 53, 0
9, 21600, Note_on_c, 3, 63, 51
9, 21600, Note_on_c, 3, 60, 51
9, 21719, Note_on_c, 3, 63, 0
9, 21719, Note_on_c, 3, 60, 0
9, 21720, Note_on_c, 3, 60, 51
9, 21720, Note_on_c, 3, 53, 51
9, 21824, Note_on_c, 3, 60, 0
9, 21824, Note_on_c, 3, 53, 0
9, 21840, Note_on_c, 3, 63, 50
9, 21840, Note_on_c, 3, 60, 50
9, 21959, Note_on_c, 3, 63, 0
9, 21959, Note_on_c, 3, 60, 0
9, 21960, Note_on_c, 3, 60, 50
9, 21960, Note_on_c, 3, 53, 50
9, 22079, Note_on_c, 3, 60, 0
9, 22079, Note_on_c, 3, 53, 0
9, 22080, Note_on_c, 3, 60, 49
9, 22080, Note_on_c, 3, 63, 49
9, 22199, Note_on_c, 3, 60, 0
9, 22199, Note_on_c, 3, 63, 0
9, 22200, Note_on_c, 3, 53, 49
9, 22200, Note_on_c, 3, 60, 49
9, 22319, Note_on_c, 3, 53, 0
9, 22319, Note_on_c, 3, 60, 0
9, 22320, Note_on_c, 3, 60, 48
9, 22320, Note_on_c, 3, 63, 48
9, 22439, Note_on_c, 3, 60, 0
9, 22439, Note_on_c, 3, 63, 0
9, 22440, Note_on_c, 3, 53, 48
9, 22440, Note_on_c, 3, 60, 48
9, 22544, Note_on_c, 3, 53, 0
9, 22544, Note_on_c, 3, 60, 0
9, 22560, Note_on_c, 3, 60, 47
9, 22560, Note_on_c, 3, 63, 47
9, 22679, Note_on_c, 3, 60, 0
9, 22679, Note_on_c, 3, 63, 0
9, 22680, Note_on_c, 3, 53, 47
9, 22680, Note_on_c, 3, 60, 47
9, 22799, Note_on_c, 3, 53, 0
9, 22799, Note_on_c, 3, 60, 0
9, 22800, Note_on_c, 3, 63, 46
9, 22800, Note_on_c, 3, 60, 46
9, 22919, Note_on_c, 3, 63, 0
9, 22919, Note_on_c, 3, 60, 0
9, 22920, Note_on_c, 3, 60, 46
9, 22920, Note_on_c, 3, 53, 46
9, 23039, Note_on_c, 3, 60, 0
9, 23039, Note_on_c, 3, 53, 0
9, 23280, Note_on_c, 3, 57, 44
9, 23280, Note_on_c, 3, 60, 44
9, 23399, Note_on_c, 3, 57, 0
9, 23399, Note_on_c, 3, 60, 0
9, 23760, Note_on_c, 3, 57, 44
9, 23760, Note_on_c, 3, 60, 44
9, 23879, Note_on_c, 3, 57, 0
9, 23879, Note_on_c, 3, 60, 0
9, 24240, Note_on_c, 3, 60, 44
9, 24240, Note_on_c, 3, 57, 44
9, 24359, Note_on_c, 3, 60, 0
9, 24359, Note_on_c, 3, 57, 0
9, 24480, Note_on_c, 3, 62, 44
9, 24480, Note_on_c, 3, 46, 44
9, 24599, Note_on_c, 3, 62, 0
9, 24719, Note_on_c, 3, 46, 0
9, 24720, Note_on_c, 3, 65, 44
9, 24720, Note_on_c, 3, 48, 44
9, 25079, Note_on_c, 3, 65, 0
9, 25080, Note_on_c, 3, 63, 44
9, 25199, Note_on_c, 3, 48, 0
9, 25199, Note_on_c, 3, 63, 0
9, 25200, Note_on_c, 3, 51, 44
9, 25200, Note_on_c, 3, 60, 44
9, 25319, Note_on_c, 3, 60, 0
9, 25320, Note_on_c, 3, 57, 44
9, 25439, Note_on_c, 3, 51, 0
9, 25439, Note_on_c, 3, 57, 0
9, 25440, Note_on_c, 3, 60, 44
9, 25440, Note_on_c, 3, 50, 44
9, 25559, Note_on_c, 3, 60, 0
9, 25560, Note_on_c, 3, 58, 44
9, 25679, Note_on_c, 3, 50, 0
9, 25679, Note_on_c, 3, 58, 0
9, 25680, Note_on_c, 3, 46, 44
9, 25680, Note_on_c, 3, 62, 44
9, 25799, Note_on_c, 3, 62, 0
9, 25800, Note_on_c, 3, 58, 44
9, 25919, Note_on_c, 3, 58, 0
9, 25920, Note_on_c, 3, 53, 44
9, 26039, Note_on_c, 3, 46, 0
9, 26039, Note_on_c, 3, 53, 0
9, 26040, Note_on_c, 3, 45, 44
9, 26040, Note_on_c, 3, 54, 44
9, 26159, Note_on_c, 3, 45, 0
9, 26159, Note_on_c, 3, 54, 0
9, 26160, Note_on_c, 3, 57, 44
9, 26160, Note_on_c, 3, 43, 44
9, 26279, Note_on_c, 3, 57, 0
9, 26280, Note_on_c, 3, 55, 44
9, 26399, Note_on_c, 3, 55, 0
9, 26400, Note_on_c, 3, 58, 44
9, 26519, Note_on_c, 3, 58, 0
9, 26520, Note_on_c, 3, 55, 44
9, 26639, Note_on_c, 3, 43, 0
9, 26639, Note_on_c, 3, 55, 0
9, 26640, Note_on_c, 3, 50, 44
9, 26640, Note_on_c, 3, 48, 44
9, 26759, Note_on_c, 3, 50, 0
9, 26760, Note_on_c, 3, 52, 44
9, 26879, Note_on_c, 3, 48, 0
9, 26879, Note_on_c, 3, 52, 0
9, 26880, Note_on_c, 3, 53, 44
9, 26880, Note_on_c, 3, 41, 44
9, 26999, Note_on_c, 3, 53, 0
9, 27000, Note_on_c, 3, 57, 44
9, 27119, Note_on_c, 3, 41, 0
9, 27119, Note_on_c, 3, 57, 0
9, 27120, Note_on_c, 3, 60, 44
9, 27224, Note_on_c, 3, 60, 0
9, 27240, Note_on_c, 3, 60, 44
9, 27329, Note_on_c, 3, 60, 0
9, 27360, Note_on_c, 3, 60, 44
9, 27360, Note_on_c, 3, 41, 44
9, 27449, Note_on_c, 3, 60, 0
9, 27479, Note_on_c, 3, 41, 0
9, 27480, Note_on_c, 3, 60, 45
9, 27480, Note_on_c, 3, 36, 45
9, 27539, Note_on_c, 3, 60, 0
9, 27599, Note_on_c, 3, 36, 0
9, 27600, Note_on_c, 3, 60, 47
9, 27600, Note_on_c, 3, 43, 47
9, 27719, Note_on_c, 3, 60, 0
9, 27719, Note_on_c, 3, 43, 0
9, 27720, Note_on_c, 3, 59, 49
9, 27720, Note_on_c, 3, 36, 49
9, 27839, Note_on_c, 3, 59, 0
9, 27839, Note_on_c, 3, 36, 0
9, 27840, Note_on_c, 3, 60, 50
9, 27840, Note_on_c, 3, 43, 50
9, 27959, Note_on_c, 3, 60, 0
9, 27959, Note_on_c, 3, 43, 0
9, 27960, Note_on_c, 3, 58, 52
9, 27960, Note_on_c, 3, 36, 52
9, 28079, Note_on_c, 3, 58, 0
9, 28079, Note_on_c, 3, 36, 0
9, 28080, Note_on_c, 3, 46, 54
9, 28080, Note_on_c, 3, 55, 54
9, 28199, Note_on_c, 3, 46, 0
9, 28199, Note_on_c, 3, 55, 0
9, 28200, Note_on_c, 3, 36, 55
9, 28200, Note_on_c, 3, 52, 55
9, 28304, Note_on_c, 3, 36, 0
9, 28319, Note_on_c, 3, 52, 0
9, 28320, Note_on_c, 3, 55, 57
9, 28320, Note_on_c, 3, 45, 57
9, 28439, Note_on_c, 3, 55, 0
9, 28439, Note_on_c, 3, 45, 0
9, 28440, Note_on_c, 3, 36, 59
9, 28440, Note_on_c, 3, 53, 59
9, 28559, Note_on_c, 3, 36, 0
9, 28559, Note_on_c, 3, 53, 0
9, 28560, Note_on_c, 3, 57, 60
9, 28560, Note_on_c, 3, 45, 60
9, 28679, Note_on_c, 3, 57, 0
9, 28679, Note_on_c, 3, 45, 0
9, 28680, Note_on_c, 3, 53, 62
9, 28680, Note_on_c, 3, 36, 62
9, 28799, Note_on_c, 3, 53, 0
9, 28799, Note_on_c, 3, 36, 0
9, 28800, Note_on_c, 3, 60, 64
9, 28800, Note_on_c, 3, 45, 64
9, 28919, Note_on_c, 3, 60, 0
9, 28919, Note_on_c, 3, 45, 0
9, 28920, Note_on_c, 3, 36, 65
9, 28920, Note_on_c, 3, 61, 65
9, 29024, Note_on_c, 3, 36, 0
9, 29039, Note_on_c, 3, 61, 0
9, 29040, Note_on_c, 3, 64, 67
9, 29040, Note_on_c, 3, 46, 67
9, 29159, Note_on_c, 3, 64, 0
9, 29159, Note_on_c, 3, 46, 0
9, 29160, Note_on_c, 3, 62, 69
9, 29160, Note_on_c, 3, 36, 69
9, 29279, Note_on_c, 3, 62, 0
9, 29279, Note_on_c, 3, 36, 0
9, 29280, Note_on_c, 3, 55, 70
9, 29280, Note_on_c, 3, 46, 70
9, 29399, Note_on_c, 3, 55, 0
9, 29399, Note_on_c, 3, 46, 0
9, 29400, Note_on_c, 3, 57, 72
9, 29400, Note_on_c, 3, 45, 72
9, 29519, Note_on_c, 3, 57, 0
9, 29519, Note_on_c, 3, 45, 0
9, 29520, Note_on_c, 3, 58, 74
9, 29520, Note_on_c, 3, 43, 74
9, 29624, Note_on_c, 3, 58, 0
9, 29624, Note_on_c, 3, 43, 0
9, 29640, Note_on_c, 3, 59, 76
9, 29640, Note_on_c, 3, 41, 76
9, 29744, Note_on_c, 3, 59, 0
9, 29744, Note_on_c, 3, 41, 0
9, 29760, Note_on_c, 3, 41, 80
9, 29760, Note_on_c, 3, 59, 80
9, 29879, Note_on_c, 3, 41, 0
9, 29880, Note_on_c, 3, 36, 80
9, 29999, Note_on_c, 3, 59, 0
9, 29999, Note_on_c, 3, 36, 0
9, 30000, Note_on_c, 3, 40, 80
9, 30000, Note_on_c, 3, 60, 80
9, 30119, Note_on_c, 3, 40, 0
9, 30119, Note_on_c, 3, 60, 0
9, 30120, Note_on_c, 3, 38, 80
9, 30120, Note_on_c, 3, 62, 80
9, 30239, Note_on_c, 3, 38, 0
9, 30239, Note_on_c, 3, 62, 0
9, 30240, Note_on_c, 3, 36, 80
9, 30240, Note_on_c, 3, 63, 80
9, 30344, Note_on_c, 3, 36, 0
9, 30344, Note_on_c, 3, 63, 0
9, 30360, Note_on_c, 3, 46, 80
9, 30360, Note_on_c, 3, 64, 80
9, 30464, Note_on_c, 3, 46, 0
9, 30464, Note_on_c, 3, 64, 0
9, 30480, Note_on_c, 3, 64, 80
9, 30480, Note_on_c, 3, 46, 80
9, 30599, Note_on_c, 3, 46, 0
9, 30600, Note_on_c, 3, 41, 80
9, 30719, Note_on_c, 3, 64, 0
9, 30719, Note_on_c, 3, 41, 0
9, 30720, Note_on_c, 3, 45, 80
9, 30720, Note_on_c, 3, 65, 80
9, 30839, Note_on_c, 3, 45, 0
9, 30839, Note_on_c, 3, 65, 0
9, 30840, Note_on_c, 3, 58, 80
9, 30840, Note_on_c, 3, 55, 80
9, 30959, Note_on_c, 3, 58, 0
9, 30959, Note_on_c, 3, 55, 0
9, 30960, Note_on_c, 3, 53, 80
9, 30960, Note_on_c, 3, 60, 80
9, 31064, Note_on_c, 3, 53, 0
9, 31064, Note_on_c, 3, 60, 0
9, 31080, Note_on_c, 3, 63, 84
9, 31184, Note_on_c, 3, 63, 0
9, 31200, Note_on_c, 3, 63, 84
9, 31439, Note_on_c, 3, 63, 0
9, 31440, Note_on_c, 3, 62, 84
9, 31559, Note_on_c, 3, 62, 0
9, 31800, Note_on_c, 3, 61, 52
9, 31800, Note_on_c, 3, 57, 52
9, 31904, Note_on_c, 3, 61, 0
9, 31904, Note_on_c, 3, 57, 0
9, 31920, Note_on_c, 3, 57, 52
9, 31920, Note_on_c, 3, 61, 52
9, 32159, Note_on_c, 3, 57, 0
9, 32159, Note_on_c, 3, 61, 0
9, 32160, Note_on_c, 3, 62, 52
9, 32160, Note_on_c, 3, 58, 52
9, 32279, Note_on_c, 3, 62, 0
9, 32279, Note_on_c, 3, 58, 0
9, 34200, Note_on_c, 3, 60, 76
9, 34319, Note_on_c, 3, 60, 0
9, 34560, Note_on_c, 3, 65, 84
9, 34620, Control_c, 3, 11, 112
9, 34919, Note_on_c, 3, 65, 0
9, 35520, Control_c, 3, 11, 127
9, 35760, Note_on_c, 3, 60, 76
9, 35879, Note_on_c, 3, 60, 0
9, 36000, Note_on_c, 3, 60, 84
9, 36060, Control_c, 3, 11, 112
9, 36239, Note_on_c, 3, 60, 0
9, 36240, Note_on_c, 3, 53, 84
9, 36240, Note_on_c, 3, 65, 84
9, 36359, Note_on_c, 3, 53, 0
9, 36359, Note_on_c, 3, 65, 0
9, 36720, Control_c, 3, 11, 127
9, 36960, Note_on_c, 3, 60, 84
9, 37020, Control_c, 3, 11, 112
9, 37199, Note_on_c, 3, 60, 0
9, 37200, Note_on_c, 3, 53, 84
9, 37200, Note_on_c, 3, 65, 84
9, 37319, Note_on_c, 3, 53, 0
9, 37319, Note_on_c, 3, 65, 0
9, 37440, Control_c, 3, 11, 127
9, 37680, Note_on_c, 3, 64, 84
9, 37740, Control_c, 3, 11, 112
9, 37919, Note_on_c, 3, 64, 0
9, 38400, Note_on_c, 3, 60, 84
9, 38400, Note_on_c, 3, 48, 84
9, 38639, Note_on_c, 3, 60, 0
9, 38639, Note_on_c, 3, 48, 0
9, 38640, Note_on_c, 3, 53, 84
9, 38640, Note_on_c, 3, 41, 84
9, 38759, Note_on_c, 3, 53, 0
9, 38759, Note_on_c, 3, 41, 0
9, 38880, Control_c, 3, 11, 127
9, 39360, Note_on_c, 3, 65, 84
9, 39360, Note_on_c, 3, 62, 84
9, 39479, Note_on_c, 3, 65, 0
9, 39479, Note_on_c, 3, 62, 0
9, 40080, Note_on_c, 3, 64, 84
9, 40080, Note_on_c, 3, 60, 84
9, 40199, Note_on_c, 3, 64, 0
9, 40199, Note_on_c, 3, 60, 0
9, 40800, Note_on_c, 3, 62, 84
9, 40800, Note_on_c, 3, 59, 84
9, 40919, Note_on_c, 3, 62, 0
9, 40919, Note_on_c, 3, 59, 0
9, 41040, Note_on_c, 3, 55, 76
9, 41159, Note_on_c, 3, 55, 0
9, 41280, Note_on_c, 3, 60, 84
9, 41340, Control_c, 3, 11, 112
9, 41639, Note_on_c, 3, 60, 0
9, 41640, Note_on_c, 3, 55, 84
9, 41759, Note_on_c, 3, 55, 0
9, 41760, Note_on_c, 3, 52, 84
9, 41879, Note_on_c, 3, 52, 0
9, 41880, Note_on_c, 3, 48, 84
9, 41984, Note_on_c, 3, 48, 0
9, 41998, Control_c, 3, 11, 127
9, 42000, Note_on_c, 3, 47, 84
9, 42119, Note_on_c, 3, 47, 0
9, 42240, Note_on_c, 3, 62, 76
9, 42240, Note_on_c, 3, 59, 76
9, 42359, Note_on_c, 3, 62, 0
9, 42359, Note_on_c, 3, 59, 0
9, 42720, Note_on_c, 3, 60, 84
9, 42720, Note_on_c, 3, 64, 84
9, 42839, Note_on_c, 3, 60, 0
9, 42839, Note_on_c, 3, 64, 0
9, 42960, Note_on_c, 3, 64, 76
9, 42960, Note_on_c, 3, 60, 76
9, 43079, Note_on_c, 3, 64, 0
9, 43079, Note_on_c, 3, 60, 0
9, 43440, Note_on_c, 3, 64, 84
9, 43440, Note_on_c, 3, 55, 84
9, 43559, Note_on_c, 3, 64, 0
9, 43559, Note_on_c, 3, 55, 0
9, 43680, Note_on_c, 3, 64, 76
9, 43680, Note_on_c, 3, 55, 76
9, 43799, Note_on_c, 3, 64, 0
9, 43799, Note_on_c, 3, 55, 0
9, 44160, Note_on_c, 3, 57, 84
9, 44160, Note_on_c, 3, 53, 84
9, 44279, Note_on_c, 3, 57, 0
9, 44279, Note_on_c, 3, 53, 0
9, 44400, Note_on_c, 3, 57, 76
9, 44400, Note_on_c, 3, 53, 76
9, 44519, Note_on_c, 3, 57, 0
9, 44519, Note_on_c, 3, 53, 0
9, 44640, Note_on_c, 3, 60, 76
9, 44759, Note_on_c, 3, 60, 0
9, 44880, Note_on_c, 3, 60, 76
9, 44880, Note_on_c, 3, 63, 76
9, 44999, Note_on_c, 3, 60, 0
9, 44999, Note_on_c, 3, 63, 0
9, 45000, Note_on_c, 3, 53, 52
9, 45000, Note_on_c, 3, 60, 52
9, 45119, Note_on_c, 3, 53, 0
9, 45119, Note_on_c, 3, 60, 0
9, 45120, Note_on_c, 3, 63, 52
9, 45120, Note_on_c, 3, 60, 52
9, 45239, Note_on_c, 3, 63, 0
9, 45239, Note_on_c, 3, 60, 0
9, 45240, Note_on_c, 3, 53, 52
9, 45240, Note_on_c, 3, 60, 52
9, 45359, Note_on_c, 3, 53, 0
9, 45359, Note_on_c, 3, 60, 0
9, 45360, Note_on_c, 3, 60, 52
9, 45360, Note_on_c, 3, 63, 52
9, 45479, Note_on_c, 3, 60, 0
9, 45479, Note_on_c, 3, 63, 0
9, 45480, Note_on_c, 3, 53, 52
9, 45480, Note_on_c, 3, 60, 52
9, 45584, Note_on_c, 3, 53, 0
9, 45584, Note_on_c, 3, 60, 0
9, 45600, Note_on_c, 3, 63, 52
9, 45600, Note_on_c, 3, 60, 52
9, 45719, Note_on_c, 3, 63, 0
9, 45719, Note_on_c, 3, 60, 0
9, 45720, Note_on_c, 3, 53, 52
9, 45720, Note_on_c, 3, 60, 52
9, 45839, Note_on_c, 3, 53, 0
9, 45839, Note_on_c, 3, 60, 0
9, 45840, Note_on_c, 3, 60, 52
9, 45840, Note_on_c, 3, 63, 52
9, 45959, Note_on_c, 3, 60, 0
9, 45959, Note_on_c, 3, 63, 0
9, 45960, Note_on_c, 3, 60, 52
9, 45960, Note_on_c, 3, 53, 52
9, 46079, Note_on_c, 3, 60, 0
9, 46079, Note_on_c, 3, 53, 0
9, 46080, Note_on_c, 3, 63, 51
9, 46080, Note_on_c, 3, 60, 51
9, 46199, Note_on_c, 3, 63, 0
9, 46199, Note_on_c, 3, 60, 0
9, 46200, Note_on_c, 3, 53, 51
9, 46200, Note_on_c, 3, 60, 51
9, 46304, Note_on_c, 3, 53, 0
9, 46304, Note_on_c, 3, 60, 0
9, 46320, Note_on_c, 3, 60, 50
9, 46320, Note_on_c, 3, 63, 50
9, 46439, Note_on_c, 3, 60, 0
9, 46439, Note_on_c, 3, 63, 0
9, 46440, Note_on_c, 3, 53, 50
9, 46440, Note_on_c, 3, 60, 50
9, 46559, Note_on_c, 3, 53, 0
9, 46559, Note_on_c, 3, 60, 0
9, 46560, Note_on_c, 3, 63, 49
9, 46560, Note_on_c, 3, 60, 49
9, 46679, Note_on_c, 3, 63, 0
9, 46679, Note_on_c, 3, 60, 0
9, 46680, Note_on_c, 3, 53, 49
9, 46680, Note_on_c, 3, 60, 49
9, 46799, Note_on_c, 3, 53, 0
9, 46799, Note_on_c, 3, 60, 0
9, 46800, Note_on_c, 3, 60, 48
9, 46800, Note_on_c, 3, 63, 48
9, 46919, Note_on_c, 3, 60, 0
9, 46919, Note_on_c, 3, 63, 0
9, 46920, Note_on_c, 3, 53, 48
9, 46920, Note_on_c, 3, 60, 48
9, 47024, Note_on_c, 3, 53, 0
9, 47024, Note_on_c, 3, 60, 0
9, 47040, Note_on_c, 3, 63, 47
9, 47040, Note_on_c, 3, 60, 47
9, 47159, Note_on_c, 3, 63, 0
9, 47159, Note_on_c, 3, 60, 0
9, 47160, Note_on_c, 3, 53, 47
9, 47160, Note_on_c, 3, 60, 47
9, 47279, Note_on_c, 3, 53, 0
9, 47279, Note_on_c, 3, 60, 0
9, 47280, Note_on_c, 3, 63, 46
9, 47280, Note_on_c, 3, 60, 46
9, 47399, Note_on_c, 3, 63, 0
9, 47399, Note_on_c, 3, 60, 0
9, 47400, Note_on_c, 3, 53, 46
9, 47400, Note_on_c, 3, 60, 46
9, 47519, Note_on_c, 3, 53, 0
9, 47519, Note_on_c, 3, 60, 0
9, 47760, Note_on_c, 3, 60, 44
9, 47760, Note_on_c, 3, 57, 44
9, 47879, Note_on_c, 3, 60, 0
9, 47879, Note_on_c, 3, 57, 0
9, 48240, Note_on_c, 3, 60, 44
9, 48240, Note_on_c, 3, 57, 44
9, 48359, Note_on_c, 3, 60, 0
9, 48359, Note_on_c, 3, 57, 0
9, 48720, Note_on_c, 3, 57, 44
9, 48720, Note_on_c, 3, 60, 44
9, 48839, Note_on_c, 3, 57, 0
9, 48839, Note_on_c, 3, 60, 0
9, 48960, Note_on_c, 3, 62, 44
9, 48960, Note_on_c, 3, 46, 44
9, 49079, Note_on_c, 3, 62, 0
9, 49199, Note_on_c, 3, 46, 0
9, 49200, Note_on_c, 3, 65, 44
9, 49200, Note_on_c, 3, 48, 44
9, 49559, Note_on_c, 3, 65, 0
9, 49560, Note_on_c, 3, 63, 44
9, 49679, Note_on_c, 3, 48, 0
9, 49679, Note_on_c, 3, 63, 0
9, 49680, Note_on_c, 3, 60, 44
9, 49680, Note_on_c, 3, 51, 44
9, 49799, Note_on_c, 3, 60, 0
9, 49800, Note_on_c, 3, 57, 44
9, 49919, Note_on_c, 3, 51, 0
9, 49919, Note_on_c, 3, 57, 0
9, 49920, Note_on_c, 3, 50, 44
9, 49920, Note_on_c, 3, 60, 44
9, 50039, Note_on_c, 3, 60, 0
9, 50040, Note_on_c, 3, 58, 44
9, 50159, Note_on_c, 3, 50, 0
9, 50159, Note_on_c, 3, 58, 0
9, 50160, Note_on_c, 3, 46, 44
9, 50160, Note_on_c, 3, 62, 44
9, 50279, Note_on_c, 3, 62, 0
9, 50280, Note_on_c, 3, 58, 44
9, 50399, Note_on_c, 3, 58, 0
9, 50400, Note_on_c, 3, 53, 44
9, 50519, Note_on_c, 3, 46, 0
9, 50519, Note_on_c, 3, 53, 0
9, 50520, Note_on_c, 3, 54, 44
9, 50520, Note_on_c, 3, 45, 44
9, 50639, Note_on_c, 3, 54, 0
9, 50639, Note_on_c, 3, 45, 0
9, 50640, Note_on_c, 3, 43, 44
9, 50640, Note_on_c, 3, 57, 44
9, 50759, Note_on_c, 3, 57, 0
9, 50760, Note_on_c, 3, 55, 44
9, 50879, Note_on_c, 3, 55, 0
9, 50880, Note_on_c, 3, 58, 44
9, 50999, Note_on_c, 3, 58, 0
9, 51000, Note_on_c, 3, 55, 44
9, 51119, Note_on_c, 3, 43, 0
9, 51119, Note_on_c, 3, 55, 0
9, 51120, Note_on_c, 3, 48, 44
9, 51120, Note_on_c, 3, 50, 44
9, 51239, Note_on_c, 3, 50, 0
9, 51240, Note_on_c, 3, 52, 44
9, 51359, Note_on_c, 3, 48, 0
9, 51359, Note_on_c, 3, 52, 0
9, 51360, Note_on_c, 3, 53, 44
9, 51360, Note_on_c, 3, 41, 44
9, 51479, Note_on_c, 3, 53, 0
9, 51480, Note_on_c, 3, 57, 44
9, 51599, Note_on_c, 3, 41, 0
9, 51599, Note_on_c, 3, 57, 0
9, 51600, Note_on_c, 3, 60, 44
9, 51704, Note_on_c, 3, 60, 0
9, 51720, Note_on_c, 3, 60, 44
9, 51809, Note_on_c, 3, 60, 0
9, 51840, Note_on_c, 3, 41, 44
9, 51840, Note_on_c, 3, 60, 44
9, 51929, Note_on_c, 3, 60, 0
9, 51959, Note_on_c, 3, 41, 0
9, 51960, Note_on_c, 3, 36, 45
9, 51960, Note_on_c, 3, 60, 45
9, 52019, Note_on_c, 3, 60, 0
9, 52079, Note_on_c, 3, 36, 0
9, 52080, Note_on_c, 3, 60, 47
9, 52080, Note_on_c, 3, 43, 47
9, 52199, Note_on_c, 3, 60, 0
9, 52199, Note_on_c, 3, 43, 0
9, 52200, Note_on_c, 3, 59, 49
9, 52200, Note_on_c, 3, 36, 49
9, 52319, Note_on_c, 3, 59, 0
9, 52319, Note_on_c, 3, 36, 0
9, 52320, Note_on_c, 3, 60, 50
9, 52320, Note_on_c, 3, 43, 50
9, 52439, Note_on_c, 3, 60, 0
9, 52439, Note_on_c, 3, 43, 0
9, 52440, Note_on_c, 3, 58, 52
9, 52440, Note_on_c, 3, 36, 52
9, 52559, Note_on_c, 3, 58, 0
9, 52559, Note_on_c, 3, 36, 0
9, 52560, Note_on_c, 3, 55, 54
9, 52560, Note_on_c, 3, 46, 54
9, 52679, Note_on_c, 3, 55, 0
9, 52679, Note_on_c, 3, 46, 0
9, 52680, Note_on_c, 3, 36, 55
9, 52680, Note_on_c, 3, 52, 55
9, 52784, Note_on_c, 3, 36, 0
9, 52799, Note_on_c, 3, 52, 0
9, 52800, Note_on_c, 3, 55, 57
9, 52800, Note_on_c, 3, 45, 57
9, 52919, Note_on_c, 3, 55, 0
9, 52919, Note_on_c, 3, 45, 0
9, 52920, Note_on_c, 3, 36, 59
9, 52920, Note_on_c, 3, 53, 59
9, 53039, Note_on_c, 3, 36, 0
9, 53039, Note_on_c, 3, 53, 0
9, 53040, Note_on_c, 3, 45, 60
9, 53040, Note_on_c, 3, 57, 60
9, 53159, Note_on_c, 3, 45, 0
9, 53159, Note_on_c, 3, 57, 0
9, 53160, Note_on_c, 3, 36, 62
9, 53160, Note_on_c, 3, 53, 62
9, 53279, Note_on_c, 3, 36, 0
9, 53279, Note_on_c, 3, 53, 0
9, 53280, Note_on_c, 3, 60, 64
9, 53280, Note_on_c, 3, 45, 64
9, 53399, Note_on_c, 3, 60, 0
9, 53399, Note_on_c, 3, 45, 0
9, 53400, Note_on_c, 3, 36, 65
9, 53400, Note_on_c, 3, 61, 65
9, 53504, Note_on_c, 3, 36, 0
9, 53519, Note_on_c, 3, 61, 0
9, 53520, Note_on_c, 3, 64, 67
9, 53520, Note_on_c, 3, 46, 67
9, 53639, Note_on_c, 3, 64, 0
9, 53639, Note_on_c, 3, 46, 0
9, 53640, Note_on_c, 3, 62, 69
9, 53640, Note_on_c, 3, 36, 69
9, 53759, Note_on_c, 3, 62, 0
9, 53759, Note_on_c, 3, 36, 0
9, 53760, Note_on_c, 3, 46, 70
9, 53760, Note_on_c, 3, 55, 70
9, 53879, Note_on_c, 3, 46, 0
9, 53879, Note_on_c, 3, 55, 0
9, 53880, Note_on_c, 3, 45, 72
9, 53880, Note_on_c, 3, 57, 72
9, 53999, Note_on_c, 3, 45, 0
9, 53999, Note_on_c, 3, 57, 0
9, 54000, Note_on_c, 3, 43, 74
9, 54000, Note_on_c, 3, 58, 74
9, 54104, Note_on_c, 3, 43, 0
9, 54104, Note_on_c, 3, 58, 0
9, 54120, Note_on_c, 3, 59, 76
9, 54120, Note_on_c, 3, 41, 76
9, 54224, Note_on_c, 3, 59, 0
9, 54224, Note_on_c, 3, 41, 0
9, 54240, Note_on_c, 3, 59, 80
9, 54240, Note_on_c, 3, 41, 80
9, 54359, Note_on_c, 3, 41, 0
9, 54360, Note_on_c, 3, 36, 80
9, 54479, Note_on_c, 3, 59, 0
9, 54479, Note_on_c, 3, 36, 0
9, 54480, Note_on_c, 3, 60, 80
9, 54480, Note_on_c, 3, 40, 80
9, 54599, Note_on_c, 3, 60, 0
9, 54599, Note_on_c, 3, 40, 0
9, 54600, Note_on_c, 3, 62, 80
9, 54600, Note_on_c, 3, 38, 80
9, 54719, Note_on_c, 3, 62, 0
9, 54719, Note_on_c, 3, 38, 0
9, 54720, Note_on_c, 3, 63, 80
9, 54720, Note_on_c, 3, 36, 80
9, 54824, Note_on_c, 3, 63, 0
9, 54824, Note_on_c, 3, 36, 0
9, 54840, Note_on_c, 3, 46, 80
9, 54840, Note_on_c, 3, 64, 80
9, 54944, Note_on_c, 3, 46, 0
9, 54944, Note_on_c, 3, 64, 0
9, 54960, Note_on_c, 3, 46, 80
9, 54960, Note_on_c, 3, 64, 80
9, 55079, Note_on_c, 3, 46, 0
9, 55080, Note_on_c, 3, 41, 80
9, 55199, Note_on_c, 3, 64, 0
9, 55199, Note_on_c, 3, 41, 0
9, 55200, Note_on_c, 3, 65, 80
9, 55200, Note_on_c, 3, 45, 80
9, 55319, Note_on_c, 3, 65, 0
9, 55319, Note_on_c, 3, 45, 0
9, 55320, Note_on_c, 3, 58, 80
9, 55320, Note_on_c, 3, 55, 80
9, 55439, Note_on_c, 3, 58, 0
9, 55439, Note_on_c, 3, 55, 0
9, 55440, Note_on_c, 3, 53, 80
9, 55440, Note_on_c, 3, 60, 80
9, 55544, Note_on_c, 3, 53, 0
9, 55544, Note_on_c, 3, 60, 0
9, 55560, Note_on_c, 3, 63, 84
9, 55664, Note_on_c, 3, 63, 0
9, 55680, Note_on_c, 3, 63, 84
9, 55919, Note_on_c, 3, 63, 0
9, 55920, Note_on_c, 3, 62, 84
9, 56039, Note_on_c, 3, 62, 0
9, 56280, Note_on_c, 3, 61, 52
9, 56280, Note_on_c, 3, 57, 52
9, 56384, Note_on_c, 3, 61, 0
9, 56384, Note_on_c, 3, 57, 0
9, 56400, Note_on_c, 3, 61, 52
9, 56400, Note_on_c, 3, 57, 52
9, 56639, Note_on_c, 3, 61, 0
9, 56639, Note_on_c, 3, 57, 0
9, 56640, Note_on_c, 3, 62, 52
9, 56640, Note_on_c, 3, 58, 52
9, 56759, Note_on_c, 3, 62, 0
9, 56759, Note_on_c, 3, 58, 0
9, 58680, Note_on_c, 3, 60, 76
9, 58799, Note_on_c, 3, 60, 0
9, 59040, Note_on_c, 3, 65, 84
9, 59100, Control_c, 3, 11, 112
9, 59399, Note_on_c, 3, 65, 0
9, 60000, Control_c, 3, 11, 127
9, 60240, Note_on_c, 3, 60, 76
9, 60359, Note_on_c, 3, 60, 0
9, 60480, Note_on_c, 3, 60, 84
9, 60540, Control_c, 3, 11, 112
9, 60719, Note_on_c, 3, 60, 0
9, 60720, Note_on_c, 3, 53, 84
9, 60720, Note_on_c, 3, 65, 84
9, 60839, Note_on_c, 3, 53, 0
9, 60839, Note_on_c, 3, 65, 0
9, 61200, Control_c, 3, 11, 127
9, 61440, Note_on_c, 3, 60, 84
9, 61500, Control_c, 3, 11, 112
9, 61679, Note_on_c, 3, 60, 0
9, 61680, Note_on_c, 3, 65, 84
9, 61680, Note_on_c, 3, 53, 84
9, 61799, Note_on_c, 3, 65, 0
9, 61799, Note_on_c, 3, 53, 0
9, 61920, Control_c, 3, 11, 127
9, 62160, Note_on_c, 3, 64, 84
9, 62220, Control_c, 3, 11, 112
9, 62399, Note_on_c, 3, 64, 0
9, 62880, Note_on_c, 3, 48, 84
9, 62880, Note_on_c, 3, 60, 84
9, 63119, Note_on_c, 3, 48, 0
9, 63119, Note_on_c, 3, 60, 0
9, 63120, Note_on_c, 3, 53, 84
9, 63120, Note_on_c, 3, 41, 84
9, 63239, Note_on_c, 3, 53, 0
9, 63239, Note_on_c, 3, 41, 0
9, 63360, Control_c, 3, 11, 127
9, 78000, Control_c, 3, 11, 96
9, 78240, Note_on_c, 3, 56, 68
9, 78240, Control_c, 3, 11, 96
9, 78240, Note_on_c, 3, 44, 68
9, 78400, Control_c, 3, 11, 99
9, 78560, Control_c, 3, 11, 101
9, 78719, Note_on_c, 3, 56, 0
9, 78719, Note_on_c, 3, 44, 0
9, 78720, Control_c, 3, 11, 104
9, 78880, Control_c, 3, 11, 106
9, 78960, Note_on_c, 3, 49, 68
9, 78960, Note_on_c, 3, 61, 68
9, 79040, Control_c, 3, 11, 109
9, 79200, Control_c, 3, 11, 112
9, 79360, Control_c, 3, 11, 114
9, 79439, Note_on_c, 3, 49, 0
9, 79439, Note_on_c, 3, 61, 0
9, 79520, Control_c, 3, 11, 117
9, 79680, Note_on_c, 3, 51, 68
9, 79680, Note_on_c, 3, 63, 68
9, 79680, Control_c, 3, 11, 119
9, 79840, Control_c, 3, 11, 122
9, 80000, Control_c, 3, 11, 124
9, 80144, Note_on_c, 3, 51, 0
9, 80144, Note_on_c, 3, 63, 0
9, 80160, Note_on_c, 3, 52, 76
9, 80160, Control_c, 3, 11, 127
9, 80160, Note_on_c, 3, 64, 76
9, 80639, Note_on_c, 3, 52, 0
9, 80639, Note_on_c, 3, 64, 0
9, 80640, Note_on_c, 3, 48, 76
9, 80640, Note_on_c, 3, 60, 76
9, 80864, Note_on_c, 3, 48, 0
9, 80864, Note_on_c, 3, 60, 0
9, 80880, Note_on_c, 3, 65, 52
9, 80880, Note_on_c, 3, 53, 52
9, 80999, Note_on_c, 3, 65, 0
9, 80999, Note_on_c, 3, 53, 0
9, 81118, Control_c, 3, 11, 96
9, 81120, Note_on_c, 3, 65, 68
9, 81120, Note_on_c, 3, 53, 68
9, 81120, Control_c, 3, 11, 96
9, 81220, Control_c, 3, 11, 99
9, 81320, Control_c, 3, 11, 101
9, 81420, Control_c, 3, 11, 104
9, 81520, Control_c, 3, 11, 106
9, 81599, Note_on_c, 3, 65, 0
9, 81599, Note_on_c, 3, 53, 0
9, 81620, Control_c, 3, 11, 109
9, 81720, Control_c, 3, 11, 112
9, 81820, Control_c, 3, 11, 114
9, 81840, Note_on_c, 3, 46, 68
9, 81840, Note_on_c, 3, 58, 68
9, 81920, Control_c, 3, 11, 117
9, 82020, Control_c, 3, 11, 119
9, 82120, Control_c, 3, 11, 122
9, 82220, Control_c, 3, 11, 124
9, 82319, Note_on_c, 3, 46, 0
9, 82319, Note_on_c, 3, 58, 0
9, 82320, Control_c, 3, 11, 96
9, 82560, Note_on_c, 3, 60, 68
9, 82560, Note_on_c, 3, 48, 68
9, 83024, Note_on_c, 3, 60, 0
9, 83024, Note_on_c, 3, 48, 0
9, 83040, Control_c, 3, 11, 96
9, 83040, Note_on_c, 3, 41, 68
9, 83160, Control_c, 3, 11, 99
9, 83219, Note_on_c, 3, 41, 0
9, 83280, Control_c, 3, 11, 101
9, 83400, Note_on_c, 3, 43, 68
9, 83400, Control_c, 3, 11, 104
9, 83489, Note_on_c, 3, 43, 0
9, 83520, Control_c, 3, 11, 106
9, 83520, Note_on_c, 3, 45, 76
9, 83609, Note_on_c, 3, 45, 0
9, 83640, Control_c, 3, 11, 109
9, 83760, Control_c, 3, 11, 112
9, 83760, Note_on_c, 3, 41, 68
9, 83880, Control_c, 3, 11, 114
9, 83939, Note_on_c, 3, 41, 0
9, 84000, Control_c, 3, 11, 117
9, 84120, Control_c, 3, 11, 119
9, 84120, Note_on_c, 3, 43, 68
9, 84209, Note_on_c, 3, 43, 0
9, 84240, Control_c, 3, 11, 122
9, 84240, Note_on_c, 3, 45, 76
9, 84329, Note_on_c, 3, 45, 0
9, 84360, Control_c, 3, 11, 96
9, 84480, Note_on_c, 3, 41, 68
9, 84659, Note_on_c, 3, 41, 0
9, 84840, Note_on_c, 3, 43, 68
9, 84929, Note_on_c, 3, 43, 0
9, 84960, Note_on_c, 3, 45, 68
9, 85049, Note_on_c, 3, 45, 0
9, 85200, Note_on_c, 3, 36, 68
9, 85379, Note_on_c, 3, 36, 0
9, 85560, Note_on_c, 3, 43, 68
9, 85649, Note_on_c, 3, 43, 0
9, 85680, Note_on_c, 3, 48, 68
9, 85769, Note_on_c, 3, 48, 0
9, 85920, Note_on_c, 3, 41, 68
9, 85920, Control_c, 3, 11, 96
9, 86040, Control_c, 3, 11, 99
9, 86099, Note_on_c, 3, 41, 0
9, 86160, Control_c, 3, 11, 101
9, 86280, Note_on_c, 3, 43, 68
9, 86280, Control_c, 3, 11, 104
9, 86369, Note_on_c, 3, 43, 0
9, 86400, Note_on_c, 3, 45, 76
9, 86400, Control_c, 3, 11, 106
9, 86489, Note_on_c, 3, 45, 0
9, 86520, Control_c, 3, 11, 109
9, 86640, Control_c, 3, 11, 112
9, 86640, Note_on_c, 3, 41, 68
9, 86760, Control_c, 3, 11, 114
9, 86819, Note_on_c, 3, 41, 0
9, 86880, Control_c, 3, 11, 117
9, 87000, Note_on_c, 3, 43, 68
9, 87000, Control_c, 3, 11, 119
9, 87089, Note_on_c, 3, 43, 0
9, 87120, Control_c, 3, 11, 122
9, 87120, Note_on_c, 3, 45, 76
9, 87209, Note_on_c, 3, 45, 0
9, 87240, Control_c, 3, 11, 96
9, 87360, Note_on_c, 3, 41, 68
9, 87539, Note_on_c, 3, 41, 0
9, 87720, Note_on_c, 3, 43, 68
9, 87809, Note_on_c, 3, 43, 0
9, 87840, Note_on_c, 3, 45, 68
9, 87929, Note_on_c, 3, 45, 0
9, 88080, Note_on_c, 3, 36, 68
9, 88259, Note_on_c, 3, 36, 0
9, 88440, Note_on_c, 3, 43, 68
9, 88529, Note_on_c, 3, 43, 0
9, 88560, Note_on_c, 3, 48, 68
9, 88649, Note_on_c, 3, 48, 0
9, 88800, Control_c, 3, 11, 96
9, 88800, Note_on_c, 3, 41, 68
9, 88860, Control_c, 3, 11, 99
9, 88920, Control_c, 3, 11, 101
9, 88979, Note_on_c, 3, 41, 0
9, 88980, Control_c, 3, 11, 104
9, 89040, Control_c, 3, 11, 106
9, 89100, Control_c, 3, 11, 109
9, 89160, Note_on_c, 3, 43, 68
9, 89160, Control_c, 3, 11, 112
9, 89220, Control_c, 3, 11, 114
9, 89249, Note_on_c, 3, 43, 0
9, 89280, Note_on_c, 3, 45, 76
9, 89280, Control_c, 3, 11, 117
9, 89340, Control_c, 3, 11, 119
9, 89369, Note_on_c, 3, 45, 0
9, 89400, Control_c, 3, 11, 122
9, 89460, Control_c, 3, 11, 96
9, 89520, Note_on_c, 3, 36, 68
9, 89699, Note_on_c, 3, 36, 0
9, 89880, Note_on_c, 3, 43, 68
9, 89969, Note_on_c, 3, 43, 0
9, 90000, Note_on_c, 3, 48, 68
9, 90089, Note_on_c, 3, 48, 0
9, 90240, Control_c, 3, 11, 96
9, 90240, Note_on_c, 3, 41, 68
9, 90300, Control_c, 3, 11, 99
9, 90360, Control_c, 3, 11, 101
9, 90419, Note_on_c, 3, 41, 0
9, 90420, Control_c, 3, 11, 104
9, 90480, Control_c, 3, 11, 106
9, 90540, Control_c, 3, 11, 109
9, 90600, Note_on_c, 3, 43, 68
9, 90600, Control_c, 3, 11, 112
9, 90660, Control_c, 3, 11, 114
9, 90689, Note_on_c, 3, 43, 0
9, 90720, Control_c, 3, 11, 117
9, 90720, Note_on_c, 3, 45, 76
9, 90780, Control_c, 3, 11, 119
9, 90809, Note_on_c, 3, 45, 0
9, 90840, Control_c, 3, 11, 122
9, 90900, Control_c, 3, 11, 124
9, 90960, Note_on_c, 3, 41, 52
9, 90960, Control_c, 3, 11, 127
9, 91139, Note_on_c, 3, 41, 0
9, 91320, Note_on_c, 3, 43, 52
9, 91320, Control_c, 3, 11, 127
9, 91409, Note_on_c, 3, 43, 0
9, 91410, Control_c, 3, 11, 126
9, 91440, Note_on_c, 3, 45, 52
9, 91500, Control_c, 3, 11, 125
9, 91529, Note_on_c, 3, 45, 0
9, 91590, Control_c, 3, 11, 123
9, 91680, Control_c, 3, 11, 122
9, 91680, Note_on_c, 3, 41, 52
9, 91770, Control_c, 3, 11, 121
9, 91859, Note_on_c, 3, 41, 0
9, 91860, Control_c, 3, 11, 120
9, 91950, Control_c, 3, 11, 118
9, 92040, Control_c, 3, 11, 117
9, 92040, Note_on_c, 3, 43, 52
9, 92129, Note_on_c, 3, 43, 0
9, 92130, Control_c, 3, 11, 116
9, 92160, Note_on_c, 3, 45, 52
9, 92220, Control_c, 3, 11, 115
9, 92249, Note_on_c, 3, 45, 0
9, 92310, Control_c, 3, 11, 127
9, 92400, Note_on_c, 3, 41, 44
9, 92579, Note_on_c, 3, 41, 0
9, 92760, Note_on_c, 3, 43, 44
9, 92849, Note_on_c, 3, 43, 0
9, 92880, Note_on_c, 3, 45, 44
9, 93059, Note_on_c, 3, 45, 0
9, 93120, Note_on_c, 3, 41, 44
9, 93239, Note_on_c, 3, 41, 0
9, 93360, Note_on_c, 3, 41, 44
9, 93479, Note_on_c, 3, 41, 0
9, 93600, Note_on_c, 3, 53, 76
9, 93719, Note_on_c, 3, 53, 0
9, 93720, Note_on_c, 3, 48, 76
9, 93824, Note_on_c, 3, 48, 0
9, 93840, Note_on_c, 3, 53, 84
9, 93959, Note_on_c, 3, 53, 0
9, 93960, Note_on_c, 3, 48, 76
9, 94079, Note_on_c, 3, 48, 0
9, 94080, Note_on_c, 3, 53, 84
9, 94199, Note_on_c, 3, 53, 0
9, 94200, Note_on_c, 3, 48, 76
9, 94304, Note_on_c, 3, 48, 0
9, 94320, Note_on_c, 3, 53, 84
9, 94320, Note_on_c, 3, 57, 84
9, 94439, Note_on_c, 3, 53, 0
9, 94439, Note_on_c, 3, 57, 0
9, 94440, Note_on_c, 3, 48, 76
9, 94440, Note_on_c, 3, 53, 76
9, 94544, Note_on_c, 3, 48, 0
9, 94544, Note_on_c, 3, 53, 0
9, 94560, Note_on_c, 3, 57, 84
9, 94560, Note_on_c, 3, 53, 84
9, 94679, Note_on_c, 3, 57, 0
9, 94679, Note_on_c, 3, 53, 0
9, 94680, Note_on_c, 3, 48, 76
9, 94680, Note_on_c, 3, 53, 76
9, 94799, Note_on_c, 3, 48, 0
9, 94799, Note_on_c, 3, 53, 0
9, 94800, Note_on_c, 3, 57, 84
9, 94800, Note_on_c, 3, 53, 84
9, 94919, Note_on_c, 3, 57, 0
9, 94919, Note_on_c, 3, 53, 0
9, 94920, Note_on_c, 3, 53, 76
9, 94920, Note_on_c, 3, 48, 76
9, 95039, Note_on_c, 3, 53, 0
9, 95039, Note_on_c, 3, 48, 0
9, 96480, Note_on_c, 3, 60, 52
9, 96599, Note_on_c, 3, 60, 0
9, 96600, Note_on_c, 3, 61, 54
9, 96719, Note_on_c, 3, 61, 0
9, 96720, Note_on_c, 3, 64, 56
9, 96839, Note_on_c, 3, 64, 0
9, 96840, Note_on_c, 3, 62, 58
9, 96959, Note_on_c, 3, 62, 0
9, 96960, Note_on_c, 3, 55, 60
9, 97079, Note_on_c, 3, 55, 0
9, 97080, Note_on_c, 3, 57, 62
9, 97199, Note_on_c, 3, 57, 0
9, 97200, Note_on_c, 3, 58, 64
9, 97319, Note_on_c, 3, 58, 0
9, 97320, Note_on_c, 3, 59, 66
9, 97424, Note_on_c, 3, 59, 0
9, 97440, Note_on_c, 3, 59, 68
9, 97679, Note_on_c, 3, 59, 0
9, 97680, Note_on_c, 3, 60, 72
9, 97799, Note_on_c, 3, 60, 0
9, 97920, Note_on_c, 3, 57, 76
9, 97920, Note_on_c, 3, 53, 76
9, 98039, Note_on_c, 3, 57, 0
9, 98039, Note_on_c, 3, 53, 0
9, 98160, Note_on_c, 3, 58, 84
9, 98160, Note_on_c, 3, 55, 84
9, 98220, Control_c, 3, 11, 112
9, 98864, Note_on_c, 3, 58, 0
9, 98864, Note_on_c, 3, 55, 0
9, 98878, Control_c, 3, 11, 127
9, 98880, Note_on_c, 3, 60, 84
9, 98880, Note_on_c, 3, 57, 84
9, 98940, Control_c, 3, 11, 112
9, 99359, Note_on_c, 3, 60, 0
9, 99464, Note_on_c, 3, 57, 0
9, 99480, Note_on_c, 3, 57, 84
9, 99599, Note_on_c, 3, 57, 0
9, 99600, Note_on_c, 3, 58, 84
9, 99719, Note_on_c, 3, 58, 0
9, 99720, Note_on_c, 3, 46, 84
9, 99839, Note_on_c, 3, 46, 0
9, 99840, Note_on_c, 3, 58, 84
9, 99959, Note_on_c, 3, 58, 0
9, 99960, Note_on_c, 3, 57, 84
9, 100079, Note_on_c, 3, 57, 0
9, 100080, Note_on_c, 3, 55, 84
9, 100184, Note_on_c, 3, 55, 0
9, 100200, Note_on_c, 3, 60, 84
9, 100304, Note_on_c, 3, 60, 0
9, 100318, Control_c, 3, 11, 127
9, 100320, Note_on_c, 3, 60, 76
9, 100439, Note_on_c, 3, 60, 0
9, 100440, Note_on_c, 3, 48, 76
9, 100559, Note_on_c, 3, 48, 0
9, 100560, Note_on_c, 3, 53, 76
9, 100679, Note_on_c, 3, 53, 0
9, 100800, Note_on_c, 3, 53, 76
9, 100919, Note_on_c, 3, 53, 0
9, 100920, Note_on_c, 3, 48, 76
9, 101024, Note_on_c, 3, 48, 0
9, 101040, Note_on_c, 3, 53, 84
9, 101159, Note_on_c, 3, 53, 0
9, 101160, Note_on_c, 3, 48, 76
9, 101279, Note_on_c, 3, 48, 0
9, 101280, Note_on_c, 3, 53, 84
9, 101399, Note_on_c, 3, 53, 0
9, 101400, Note_on_c, 3, 48, 76
9, 101504, Note_on_c, 3, 48, 0
9, 101520, Note_on_c, 3, 53, 84
9, 101520, Note_on_c, 3, 57, 84
9, 101639, Note_on_c, 3, 53, 0
9, 101639, Note_on_c, 3, 57, 0
9, 101640, Note_on_c, 3, 53, 76
9, 101640, Note_on_c, 3, 48, 76
9, 101744, Note_on_c, 3, 53, 0
9, 101744, Note_on_c, 3, 48, 0
9, 101760, Note_on_c, 3, 53, 84
9, 101760, Note_on_c, 3, 57, 84
9, 101879, Note_on_c, 3, 53, 0
9, 101879, Note_on_c, 3, 57, 0
9, 101880, Note_on_c, 3, 48, 76
9, 101880, Note_on_c, 3, 53, 76
9, 101999, Note_on_c, 3, 48, 0
9, 101999, Note_on_c, 3, 53, 0
9, 102000, Note_on_c, 3, 53, 84
9, 102000, Note_on_c, 3, 57, 84
9, 102119, Note_on_c, 3, 53, 0
9, 102119, Note_on_c, 3, 57, 0
9, 102120, Note_on_c, 3, 48, 76
9, 102120, Note_on_c, 3, 53, 76
9, 102239, Note_on_c, 3, 48, 0
9, 102239, Note_on_c, 3, 53, 0
9, 103680, Note_on_c, 3, 60, 52
9, 103799, Note_on_c, 3, 60, 0
9, 103800, Note_on_c, 3, 61, 54
9, 103919, Note_on_c, 3, 61, 0
9, 103920, Note_on_c, 3, 64, 56
9, 104039, Note_on_c, 3, 64, 0
9, 104040, Note_on_c, 3, 62, 58
9, 104159, Note_on_c, 3, 62, 0
9, 104160, Note_on_c, 3, 55, 60
9, 104279, Note_on_c, 3, 55, 0
9, 104280, Note_on_c, 3, 57, 62
9, 104399, Note_on_c, 3, 57, 0
9, 104400, Note_on_c, 3, 58, 64
9, 104519, Note_on_c, 3, 58, 0
9, 104520, Note_on_c, 3, 59, 66
9, 104624, Note_on_c, 3, 59, 0
9, 104640, Note_on_c, 3, 59, 68
9, 104879, Note_on_c, 3, 59, 0
9, 104880, Note_on_c, 3, 60, 72
9, 104999, Note_on_c, 3, 60, 0
9, 105120, Note_on_c, 3, 53, 76
9, 105120, Note_on_c, 3, 57, 76
9, 105239, Note_on_c, 3, 53, 0
9, 105239, Note_on_c, 3, 57, 0
9, 105360, Note_on_c, 3, 58, 84
9, 105360, Note_on_c, 3, 55, 84
9, 105420, Control_c, 3, 11, 112
9, 106064, Note_on_c, 3, 58, 0
9, 106064, Note_on_c, 3, 55, 0
9, 106078, Control_c, 3, 11, 127
9, 106080, Note_on_c, 3, 60, 84
9, 106080, Note_on_c, 3, 57, 84
9, 106140, Control_c, 3, 11, 112
9, 106559, Note_on_c, 3, 60, 0
9, 106664, Note_on_c, 3, 57, 0
9, 106680, Note_on_c, 3, 57, 84
9, 106799, Note_on_c, 3, 57, 0
9, 106800, Note_on_c, 3, 58, 84
9, 106919, Note_on_c, 3, 58, 0
9, 106920, Note_on_c, 3, 46, 84
9, 107039, Note_on_c, 3, 46, 0
9, 107040, Note_on_c, 3, 58, 84
9, 107159, Note_on_c, 3, 58, 0
9, 107160, Note_on_c, 3, 57, 84
9, 107279, Note_on_c, 3, 57, 0
9, 107280, Note_on_c, 3, 55, 84
9, 107384, Note_on_c, 3, 55, 0
9, 107400, Note_on_c, 3, 60, 84
9, 107504, Note_on_c, 3, 60, 0
9, 107518, Control_c, 3, 11, 127
9, 107520, Note_on_c, 3, 60, 76
9, 107639, Note_on_c, 3, 60, 0
9, 107640, Note_on_c, 3, 48, 76
9, 107759, Note_on_c, 3, 48, 0
9, 107760, Note_on_c, 3, 53, 76
9, 107879, Note_on_c, 3, 53, 0
9, 108480, Note_on_c, 3, 62, 84
9, 108480, Note_on_c, 3, 65, 84
9, 108599, Note_on_c, 3, 62, 0
9, 108599, Note_on_c, 3, 65, 0
9, 109200, Note_on_c, 3, 60, 84
9, 109200, Note_on_c, 3, 64, 84
9, 109319, Note_on_c, 3, 60, 0
9, 109319, Note_on_c, 3, 64, 0
9, 109920, Note_on_c, 3, 62, 84
9, 109920, Note_on_c, 3, 59, 84
9, 110039, Note_on_c, 3, 62, 0
9, 110039, Note_on_c, 3, 59, 0
9, 110160, Note_on_c, 3, 55, 76
9, 110279, Note_on_c, 3, 55, 0
9, 110400, Note_on_c, 3, 60, 84
9, 110460, Control_c, 3, 11, 112
9, 110759, Note_on_c, 3, 60, 0
9, 110760, Note_on_c, 3, 55, 84
9, 110879, Note_on_c, 3, 55, 0
9, 110880, Note_on_c, 3, 52, 84
9, 110999, Note_on_c, 3, 52, 0
9, 111000, Note_on_c, 3, 48, 84
9, 111104, Note_on_c, 3, 48, 0
9, 111118, Control_c, 3, 11, 127
9, 111120, Note_on_c, 3, 47, 84
9, 111239, Note_on_c, 3, 47, 0
9, 111360, Note_on_c, 3, 59, 76
9, 111360, Note_on_c, 3, 62, 76
9, 111479, Note_on_c, 3, 59, 0
9, 111479, Note_on_c, 3, 62, 0
9, 111840, Note_on_c, 3, 60, 84
9, 111840, Note_on_c, 3, 64, 84
9, 111959, Note_on_c, 3, 60, 0
9, 111959, Note_on_c, 3, 64, 0
9, 112080, Note_on_c, 3, 60, 76
9, 112080, Note_on_c, 3, 64, 76
9, 112199, Note_on_c, 3, 60, 0
9, 112199, Note_on_c, 3, 64, 0
9, 112560, Note_on_c, 3, 64, 84
9, 112560, Note_on_c, 3, 55, 84
9, 112679, Note_on_c, 3, 64, 0
9, 112679, Note_on_c, 3, 55, 0
9, 112800, Note_on_c, 3, 55, 76
9, 112800, Note_on_c, 3, 64, 76
9, 112919, Note_on_c, 3, 55, 0
9, 112919, Note_on_c, 3, 64, 0
9, 113280, Note_on_c, 3, 57, 84
9, 113280, Note_on_c, 3, 53, 84
9, 113399, Note_on_c, 3, 57, 0
9, 113399, Note_on_c, 3, 53, 0
9, 113520, Note_on_c, 3, 53, 76
9, 113520, Note_on_c, 3, 57, 76
9, 113639, Note_on_c, 3, 53, 0
9, 113639, Note_on_c, 3, 57, 0
9, 113760, Note_on_c, 3, 60, 76
9, 113879, Note_on_c, 3, 60, 0
9, 114000, Note_on_c, 3, 60, 76
9, 114000, Note_on_c, 3, 63, 76
9, 114119, Note_on_c, 3, 60, 0
9, 114119, Note_on_c, 3, 63, 0
9, 114120, Note_on_c, 3, 53, 52
9, 114120, Note_on_c, 3, 60, 52
9, 114239, Note_on_c, 3, 53, 0
9, 114239, Note_on_c, 3, 60, 0
9, 114240, Note_on_c, 3, 60, 52
9, 114240, Note_on_c, 3, 63, 52
9, 114359, Note_on_c, 3, 60, 0
9, 114359, Note_on_c, 3, 63, 0
9, 114360, Note_on_c, 3, 60, 52
9, 114360, Note_on_c, 3, 53, 52
9, 114479, Note_on_c, 3, 60, 0
9, 114479, Note_on_c, 3, 53, 0
9, 114480, Note_on_c, 3, 60, 52
9, 114480, Note_on_c, 3, 63, 52
9, 114599, Note_on_c, 3, 60, 0
9, 114599, Note_on_c, 3, 63, 0
9, 114600, Note_on_c, 3, 53, 52
9, 114600, Note_on_c, 3, 60, 52
9, 114704, Note_on_c, 3, 53, 0
9, 114704, Note_on_c, 3, 60, 0
9, 114720, Note_on_c, 3, 60, 52
9, 114720, Note_on_c, 3, 63, 52
9, 114839, Note_on_c, 3, 60, 0
9, 114839, Note_on_c, 3, 63, 0
9, 114840, Note_on_c, 3, 53, 52
9, 114840, Note_on_c, 3, 60, 52
9, 114959, Note_on_c, 3, 53, 0
9, 114959, Note_on_c, 3, 60, 0
9, 114960, Note_on_c, 3, 63, 52
9, 114960, Note_on_c, 3, 60, 52
9, 115079, Note_on_c, 3, 63, 0
9, 115079, Note_on_c, 3, 60, 0
9, 115080, Note_on_c, 3, 53, 52
9, 115080, Note_on_c, 3, 60, 52
9, 115199, Note_on_c, 3, 53, 0
9, 115199, Note_on_c, 3, 60, 0
9, 115200, Note_on_c, 3, 63, 51
9, 115200, Note_on_c, 3, 60, 51
9, 115319, Note_on_c, 3, 63, 0
9, 115319, Note_on_c, 3, 60, 0
9, 115320, Note_on_c, 3, 60, 51
9, 115320, Note_on_c, 3, 53, 51
9, 115424, Note_on_c, 3, 60, 0
9, 115424, Note_on_c, 3, 53, 0
9, 115440, Note_on_c, 3, 63, 50
9, 115440, Note_on_c, 3, 60, 50
9, 115559, Note_on_c, 3, 63, 0
9, 115559, Note_on_c, 3, 60, 0
9, 115560, Note_on_c, 3, 60, 50
9, 115560, Note_on_c, 3, 53, 50
9, 115679, Note_on_c, 3, 60, 0
9, 115679, Note_on_c, 3, 53, 0
9, 115680, Note_on_c, 3, 63, 49
9, 115680, Note_on_c, 3, 60, 49
9, 115799, Note_on_c, 3, 63, 0
9, 115799, Note_on_c, 3, 60, 0
9, 115800, Note_on_c, 3, 53, 49
9, 115800, Note_on_c, 3, 60, 49
9, 115919, Note_on_c, 3, 53, 0
9, 115919, Note_on_c, 3, 60, 0
9, 115920, Note_on_c, 3, 60, 48
9, 115920, Note_on_c, 3, 63, 48
9, 116039, Note_on_c, 3, 60, 0
9, 116039, Note_on_c, 3, 63, 0
9, 116040, Note_on_c, 3, 53, 48
9, 116040, Note_on_c, 3, 60, 48
9, 116144, Note_on_c, 3, 53, 0
9, 116144, Note_on_c, 3, 60, 0
9, 116160, Note_on_c, 3, 60, 47
9, 116160, Note_on_c, 3, 63, 47
9, 116279, Note_on_c, 3, 60, 0
9, 116279, Note_on_c, 3, 63, 0
9, 116280, Note_on_c, 3, 60, 47
9, 116280, Note_on_c, 3, 53, 47
9, 116399, Note_on_c, 3, 60, 0
9, 116399, Note_on_c, 3, 53, 0
9, 116400, Note_on_c, 3, 63, 46
9, 116400, Note_on_c, 3, 60, 46
9, 116519, Note_on_c, 3, 63, 0
9, 116519, Note_on_c, 3, 60, 0
9, 116520, Note_on_c, 3, 53, 46
9, 116520, Note_on_c, 3, 60, 46
9, 116639, Note_on_c, 3, 53, 0
9, 116639, Note_on_c, 3, 60, 0
9, 116880, Note_on_c, 3, 60, 44
9, 116880, Note_on_c, 3, 57, 44
9, 116999, Note_on_c, 3, 60, 0
9, 116999, Note_on_c, 3, 57, 0
9, 117360, Note_on_c, 3, 60, 44
9, 117360, Note_on_c, 3, 57, 44
9, 117479, Note_on_c, 3, 60, 0
9, 117479, Note_on_c, 3, 57, 0
9, 117840, Note_on_c, 3, 57, 44
9, 117840, Note_on_c, 3, 60, 44
9, 117959, Note_on_c, 3, 57, 0
9, 117959, Note_on_c, 3, 60, 0
9, 118080, Note_on_c, 3, 46, 44
9, 118080, Note_on_c, 3, 62, 44
9, 118199, Note_on_c, 3, 62, 0
9, 118319, Note_on_c, 3, 46, 0
9, 118320, Note_on_c, 3, 48, 44
9, 118320, Note_on_c, 3, 65, 44
9, 118679, Note_on_c, 3, 65, 0
9, 118680, Note_on_c, 3, 63, 44
9, 118799, Note_on_c, 3, 48, 0
9, 118799, Note_on_c, 3, 63, 0
9, 118800, Note_on_c, 3, 60, 44
9, 118800, Note_on_c, 3, 51, 44
9, 118919, Note_on_c, 3, 60, 0
9, 118920, Note_on_c, 3, 57, 44
9, 119039, Note_on_c, 3, 51, 0
9, 119039, Note_on_c, 3, 57, 0
9, 119040, Note_on_c, 3, 50, 44
9, 119040, Note_on_c, 3, 60, 44
9, 119159, Note_on_c, 3, 60, 0
9, 119160, Note_on_c, 3, 58, 44
9, 119279, Note_on_c, 3, 50, 0
9, 119279, Note_on_c, 3, 58, 0
9, 119280, Note_on_c, 3, 46, 44
9, 119280, Note_on_c, 3, 62, 44
9, 119399, Note_on_c, 3, 62, 0
9, 119400, Note_on_c, 3, 58, 44
9, 119519, Note_on_c, 3, 58, 0
9, 119520, Note_on_c, 3, 53, 44
9, 119639, Note_on_c, 3, 46, 0
9, 119639, Note_on_c, 3, 53, 0
9, 119640, Note_on_c, 3, 54, 44
9, 119640, Note_on_c, 3, 45, 44
9, 119759, Note_on_c, 3, 54, 0
9, 119759, Note_on_c, 3, 45, 0
9, 119760, Note_on_c, 3, 43, 44
9, 119760, Note_on_c, 3, 57, 44
9, 119879, Note_on_c, 3, 57, 0
9, 119880, Note_on_c, 3, 55, 44
9, 119999, Note_on_c, 3, 55, 0
9, 120000, Note_on_c, 3, 58, 44
9, 120119, Note_on_c, 3, 58, 0
9, 120120, Note_on_c, 3, 55, 44
9, 120239, Note_on_c, 3, 43, 0
9, 120239, Note_on_c, 3, 55, 0
9, 120240, Note_on_c, 3, 50, 44
9, 120240, Note_on_c, 3, 48, 44
9, 120359, Note_on_c, 3, 50, 0
9, 120360, Note_on_c, 3, 52, 44
9, 120479, Note_on_c, 3, 48, 0
9, 120479, Note_on_c, 3, 52, 0
9, 120480, Note_on_c, 3, 41, 44
9, 120480, Note_on_c, 3, 53, 44
9, 120599, Note_on_c, 3, 53, 0
9, 120600, Note_on_c, 3, 57, 44
9, 120719, Note_on_c, 3, 41, 0
9, 120719, Note_on_c, 3, 57, 0
9, 120720, Note_on_c, 3, 60, 44
9, 120824, Note_on_c, 3, 60, 0
9, 120840, Note_on_c, 3, 60, 44
9, 120929, Note_on_c, 3, 60, 0
9, 120960, Note_on_c, 3, 60, 44
9, 120960, Note_on_c, 3, 41, 44
9, 121049, Note_on_c, 3, 60, 0
9, 121079, Note_on_c, 3, 41, 0
9, 121080, Note_on_c, 3, 60, 45
9, 121080, Note_on_c, 3, 36, 45
9, 121139, Note_on_c, 3, 60, 0
9, 121199, Note_on_c, 3, 36, 0
9, 121200, Note_on_c, 3, 60, 47
9, 121200, Note_on_c, 3, 43, 47
9, 121319, Note_on_c, 3, 60, 0
9, 121319, Note_on_c, 3, 43, 0
9, 121320, Note_on_c, 3, 59, 49
9, 121320, Note_on_c, 3, 36, 49
9, 121439, Note_on_c, 3, 59, 0
9, 121439, Note_on_c, 3, 36, 0
9, 121440, Note_on_c, 3, 43, 50
9, 121440, Note_on_c, 3, 60, 50
9, 121559, Note_on_c, 3, 43, 0
9, 121559, Note_on_c, 3, 60, 0
9, 121560, Note_on_c, 3, 36, 52
9, 121560, Note_on_c, 3, 58, 52
9, 121679, Note_on_c, 3, 36, 0
9, 121679, Note_on_c, 3, 58, 0
9, 121680, Note_on_c, 3, 46, 54
9, 121680, Note_on_c, 3, 55, 54
9, 121799, Note_on_c, 3, 46, 0
9, 121799, Note_on_c, 3, 55, 0
9, 121800, Note_on_c, 3, 36, 55
9, 121800, Note_on_c, 3, 52, 55
9, 121904, Note_on_c, 3, 36, 0
9, 121919, Note_on_c, 3, 52, 0
9, 121920, Note_on_c, 3, 45, 57
9, 121920, Note_on_c, 3, 55, 57
9, 122039, Note_on_c, 3, 45, 0
9, 122039, Note_on_c, 3, 55, 0
9, 122040, Note_on_c, 3, 36, 59
9, 122040, Note_on_c, 3, 53, 59
9, 122159, Note_on_c, 3, 36, 0
9, 122159, Note_on_c, 3, 53, 0
9, 122160, Note_on_c, 3, 57, 60
9, 122160, Note_on_c, 3, 45, 60
9, 122279, Note_on_c, 3, 57, 0
9, 122279, Note_on_c, 3, 45, 0
9, 122280, Note_on_c, 3, 36, 62
9, 122280, Note_on_c, 3, 53, 62
9, 122399, Note_on_c, 3, 36, 0
9, 122399, Note_on_c, 3, 53, 0
9, 122400, Note_on_c, 3, 45, 64
9, 122400, Note_on_c, 3, 60, 64
9, 122519, Note_on_c, 3, 45, 0
9, 122519, Note_on_c, 3, 60, 0
9, 122520, Note_on_c, 3, 36, 65
9, 122520, Note_on_c, 3, 61, 65
9, 122624, Note_on_c, 3, 36, 0
9, 122639, Note_on_c, 3, 61, 0
9, 122640, Note_on_c, 3, 64, 67
9, 122640, Note_on_c, 3, 46, 67
9, 122759, Note_on_c, 3, 64, 0
9, 122759, Note_on_c, 3, 46, 0
9, 122760, Note_on_c, 3, 36, 69
9, 122760, Note_on_c, 3, 62, 69
9, 122879, Note_on_c, 3, 36, 0
9, 122879, Note_on_c, 3, 62, 0
9, 122880, Note_on_c, 3, 55, 70
9, 122880, Note_on_c, 3, 46, 70
9, 122999, Note_on_c, 3, 55, 0
9, 122999, Note_on_c, 3, 46, 0
9, 123000, Note_on_c, 3, 57, 72
9, 123000, Note_on_c, 3, 45, 72
9, 123119, Note_on_c, 3, 57, 0
9, 123119, Note_on_c, 3, 45, 0
9, 123120, Note_on_c, 3, 43, 74
9, 123120, Note_on_c, 3, 58, 74
9, 123224, Note_on_c, 3, 43, 0
9, 123224, Note_on_c, 3, 58, 0
9, 123240, Note_on_c, 3, 59, 76
9, 123240, Note_on_c, 3, 41, 76
9, 123344, Note_on_c, 3, 59, 0
9, 123344, Note_on_c, 3, 41, 0
9, 123360, Note_on_c, 3, 41, 80
9, 123360, Note_on_c, 3, 59, 80
9, 123479, Note_on_c, 3, 41, 0
9, 123480, Note_on_c, 3, 36, 80
9, 123599, Note_on_c, 3, 59, 0
9, 123599, Note_on_c, 3, 36, 0
9, 123600, Note_on_c, 3, 60, 80
9, 123600, Note_on_c, 3, 40, 80
9, 123719, Note_on_c, 3, 60, 0
9, 123719, Note_on_c, 3, 40, 0
9, 123720, Note_on_c, 3, 38, 80
9, 123720, Note_on_c, 3, 62, 80
9, 123839, Note_on_c, 3, 38, 0
9, 123839, Note_on_c, 3, 62, 0
9, 123840, Note_on_c, 3, 36, 80
9, 123840, Note_on_c, 3, 63, 80
9, 123944, Note_on_c, 3, 36, 0
9, 123944, Note_on_c, 3, 63, 0
9, 123960, Note_on_c, 3, 64, 80
9, 123960, Note_on_c, 3, 46, 80
9, 124064, Note_on_c, 3, 64, 0
9, 124064, Note_on_c, 3, 46, 0
9, 124080, Note_on_c, 3, 46, 80
9, 124080, Note_on_c, 3, 64, 80
9, 124199, Note_on_c, 3, 46, 0
9, 124200, Note_on_c, 3, 41, 80
9, 124319, Note_on_c, 3, 64, 0
9, 124319, Note_on_c, 3, 41, 0
9, 124320, Note_on_c, 3, 45, 80
9, 124320, Note_on_c, 3, 65, 80
9, 124439, Note_on_c, 3, 45, 0
9, 124439, Note_on_c, 3, 65, 0
9, 124440, Note_on_c, 3, 55, 80
9, 124440, Note_on_c, 3, 58, 80
9, 124559, Note_on_c, 3, 55, 0
9, 124559, Note_on_c, 3, 58, 0
9, 124560, Note_on_c, 3, 60, 80
9, 124560, Note_on_c, 3, 53, 80
9, 124664, Note_on_c, 3, 60, 0
9, 124664, Note_on_c, 3, 53, 0
9, 124680, Note_on_c, 3, 63, 84
9, 124784, Note_on_c, 3, 63, 0
9, 124800, Note_on_c, 3, 63, 84
9, 125039, Note_on_c, 3, 63, 0
9, 125040, Note_on_c, 3, 62, 84
9, 125159, Note_on_c, 3, 62, 0
9, 125400, Note_on_c, 3, 61, 52
9, 125400, Note_on_c, 3, 57, 52
9, 125504, Note_on_c, 3, 61, 0
9, 125504, Note_on_c, 3, 57, 0
9, 125520, Note_on_c, 3, 61, 52
9, 125520, Note_on_c, 3, 57, 52
9, 125759, Note_on_c, 3, 61, 0
9, 125759, Note_on_c, 3, 57, 0
9, 125760, Note_on_c, 3, 58, 52
9, 125760, Note_on_c, 3, 62, 52
9, 125879, Note_on_c, 3, 58, 0
9, 125879, Note_on_c, 3, 62, 0
9, 127800, Note_on_c, 3, 60, 76
9, 127919, Note_on_c, 3, 60, 0
9, 128160, Note_on_c, 3, 65, 84
9, 128220, Control_c, 3, 11, 112
9, 128519, Note_on_c, 3, 65, 0
9, 129120, Control_c, 3, 11, 127
9, 129360, Note_on_c, 3, 60, 76
9, 129479, Note_on_c, 3, 60, 0
9, 129600, Note_on_c, 3, 60, 84
9, 129660, Control_c, 3, 11, 112
9, 129839, Note_on_c, 3, 60, 0
9, 129840, Note_on_c, 3, 65, 84
9, 129840, Note_on_c, 3, 53, 84
9, 129959, Note_on_c, 3, 65, 0
9, 129959, Note_on_c, 3, 53, 0
9, 130320, Control_c, 3, 11, 127
9, 130560, Note_on_c, 3, 60, 84
9, 130620, Control_c, 3, 11, 112
9, 130799, Note_on_c, 3, 60, 0
9, 130800, Note_on_c, 3, 65, 84
9, 130800, Note_on_c, 3, 53, 84
9, 130919, Note_on_c, 3, 65, 0
9, 130919, Note_on_c, 3, 53, 0
9, 131040, Control_c, 3, 11, 127
9, 131280, Note_on_c, 3, 64, 84
9, 131340, Control_c, 3, 11, 112
9, 131519, Note_on_c, 3, 64, 0
9, 132000, Note_on_c, 3, 48, 84
9, 132000, Note_on_c, 3, 60, 84
9, 132239, Note_on_c, 3, 48, 0
9, 132239, Note_on_c, 3, 60, 0
9, 132240, Note_on_c, 3, 41, 84
9, 132240, Note_on_c, 3, 53, 84
9, 132359, Note_on_c, 3, 41, 0
9, 132359, Note_on_c, 3, 53, 0
9, 132480, Control_c, 3, 11, 127
9, 132960, Note_on_c, 3, 65, 84
9, 132960, Note_on_c, 3, 62, 84
9, 133079, Note_on_c, 3, 65, 0
9, 133079, Note_on_c, 3, 62, 0
9, 133680, Note_on_c, 3, 60, 84
9, 133680, Note_on_c, 3, 64, 84
9, 133799, Note_on_c, 3, 60, 0
9, 133799, Note_on_c, 3, 64, 0
9, 134400, Note_on_c, 3, 62, 84
9, 134400, Note_on_c, 3, 59, 84
9, 134519, Note_on_c, 3, 62, 0
9, 134519, Note_on_c, 3, 59, 0
9, 134640, Note_on_c, 3, 55, 76
9, 134759, Note_on_c, 3, 55, 0
9, 134880, Note_on_c, 3, 60, 84
9, 134940, Control_c, 3, 11, 112
9, 135239, Note_on_c, 3, 60, 0
9, 135240, Note_on_c, 3, 55, 84
9, 135359, Note_on_c, 3, 55, 0
9, 135360, Note_on_c, 3, 52, 84
9, 135479, Note_on_c, 3, 52, 0
9, 135480, Note_on_c, 3, 48, 84
9, 135584, Note_on_c, 3, 48, 0
9, 135598, Control_c, 3, 11, 127
9, 135600, Note_on_c, 3, 47, 84
9, 135719, Note_on_c, 3, 47, 0
9, 135840, Note_on_c, 3, 62, 76
9, 135840, Note_on_c, 3, 59, 76
9, 135959, Note_on_c, 3, 62, 0
9, 135959, Note_on_c, 3, 59, 0
9, 136320, Note_on_c, 3, 60, 84
9, 136320, Note_on_c, 3, 64, 84
9, 136439, Note_on_c, 3, 60, 0
9, 136439, Note_on_c, 3, 64, 0
9, 136560, Note_on_c, 3, 64, 76
9, 136560, Note_on_c, 3, 60, 76
9, 136679, Note_on_c, 3, 64, 0
9, 136679, Note_on_c, 3, 60, 0
9, 137040, Note_on_c, 3, 55, 84
9, 137040, Note_on_c, 3, 64, 84
9, 137159, Note_on_c, 3, 55, 0
9, 137159, Note_on_c, 3, 64, 0
9, 137280, Note_on_c, 3, 64, 76
9, 137280, Note_on_c, 3, 55, 76
9, 137399, Note_on_c, 3, 64, 0
9, 137399, Note_on_c, 3, 55, 0
9, 137760, Note_on_c, 3, 53, 84
9, 137760, Note_on_c, 3, 57, 84
9, 137879, Note_on_c, 3, 53, 0
9, 137879, Note_on_c, 3, 57, 0
9, 138000, Note_on_c, 3, 53, 76
9, 138000, Note_on_c, 3, 57, 76
9, 138119, Note_on_c, 3, 53, 0
9, 138119, Note_on_c, 3, 57, 0
9, 138240, Note_on_c, 3, 60, 76
9, 138359, Note_on_c, 3, 60, 0
9, 138480, Note_on_c, 3, 63, 76
9, 138480, Note_on_c, 3, 60, 76
9, 138599, Note_on_c, 3, 63, 0
9, 138599, Note_on_c, 3, 60, 0
9, 138600, Note_on_c, 3, 53, 52
9, 138600, Note_on_c, 3, 60, 52
9, 138719, Note_on_c, 3, 53, 0
9, 138719, Note_on_c, 3, 60, 0
9, 138720, Note_on_c, 3, 60, 52
9, 138720, Note_on_c, 3, 63, 52
9, 138839, Note_on_c, 3, 60, 0
9, 138839, Note_on_c, 3, 63, 0
9, 138840, Note_on_c, 3, 60, 52
9, 138840, Note_on_c, 3, 53, 52
9, 138959, Note_on_c, 3, 60, 0
9, 138959, Note_on_c, 3, 53, 0
9, 138960, Note_on_c, 3, 63, 52
9, 138960, Note_on_c, 3, 60, 52
9, 139079, Note_on_c, 3, 63, 0
9, 139079, Note_on_c, 3, 60, 0
9, 139080, Note_on_c, 3, 60, 52
9, 139080, Note_on_c, 3, 53, 52
9, 139184, Note_on_c, 3, 60, 0
9, 139184, Note_on_c, 3, 53, 0
9, 139200, Note_on_c, 3, 60, 52
9, 139200, Note_on_c, 3, 63, 52
9, 139319, Note_on_c, 3, 60, 0
9, 139319, Note_on_c, 3, 63, 0
9, 139320, Note_on_c, 3, 53, 52
9, 139320, Note_on_c, 3, 60, 52
9, 139439, Note_on_c, 3, 53, 0
9, 139439, Note_on_c, 3, 60, 0
9, 139440, Note_on_c, 3, 63, 52
9, 139440, Note_on_c, 3, 60, 52
9, 139559, Note_on_c, 3, 63, 0
9, 139559, Note_on_c, 3, 60, 0
9, 139560, Note_on_c, 3, 60, 52
9, 139560, Note_on_c, 3, 53, 52
9, 139679, Note_on_c, 3, 60, 0
9, 139679, Note_on_c, 3, 53, 0
9, 139680, Note_on_c, 3, 60, 51
9, 139680, Note_on_c, 3, 63, 51
9, 139799, Note_on_c, 3, 60, 0
9, 139799, Note_on_c, 3, 63, 0
9, 139800, Note_on_c, 3, 53, 51
9, 139800, Note_on_c, 3, 60, 51
9, 139904, Note_on_c, 3, 53, 0
9, 139904, Note_on_c, 3, 60, 0
9, 139920, Note_on_c, 3, 63, 50
9, 139920, Note_on_c, 3, 60, 50
9, 140039, Note_on_c, 3, 63, 0
9, 140039, Note_on_c, 3, 60, 0
9, 140040, Note_on_c, 3, 60, 50
9, 140040, Note_on_c, 3, 53, 50
9, 140159, Note_on_c, 3, 60, 0
9, 140159, Note_on_c, 3, 53, 0
9, 140160, Note_on_c, 3, 63, 49
9, 140160, Note_on_c, 3, 60, 49
9, 140279, Note_on_c, 3, 63, 0
9, 140279, Note_on_c, 3, 60, 0
9, 140280, Note_on_c, 3, 53, 49
9, 140280, Note_on_c, 3, 60, 49
9, 140399, Note_on_c, 3, 53, 0
9, 140399, Note_on_c, 3, 60, 0
9, 140400, Note_on_c, 3, 63, 48
9, 140400, Note_on_c, 3, 60, 48
9, 140519, Note_on_c, 3, 63, 0
9, 140519, Note_on_c, 3, 60, 0
9, 140520, Note_on_c, 3, 53, 48
9, 140520, Note_on_c, 3, 60, 48
9, 140624, Note_on_c, 3, 53, 0
9, 140624, Note_on_c, 3, 60, 0
9, 140640, Note_on_c, 3, 63, 47
9, 140640, Note_on_c, 3, 60, 47
9, 140759, Note_on_c, 3, 63, 0
9, 140759, Note_on_c, 3, 60, 0
9, 140760, Note_on_c, 3, 60, 47
9, 140760, Note_on_c, 3, 53, 47
9, 140879, Note_on_c, 3, 60, 0
9, 140879, Note_on_c, 3, 53, 0
9, 140880, Note_on_c, 3, 60, 46
9, 140880, Note_on_c, 3, 63, 46
9, 140999, Note_on_c, 3, 60, 0
9, 140999, Note_on_c, 3, 63, 0
9, 141000, Note_on_c, 3, 53, 46
9, 141000, Note_on_c, 3, 60, 46
9, 141119, Note_on_c, 3, 53, 0
9, 141119, Note_on_c, 3, 60, 0
9, 141360, Note_on_c, 3, 60, 44
9, 141360, Note_on_c, 3, 57, 44
9, 141479, Note_on_c, 3, 60, 0
9, 141479, Note_on_c, 3, 57, 0
9, 141840, Note_on_c, 3, 60, 44
9, 141840, Note_on_c, 3, 57, 44
9, 141959, Note_on_c, 3, 60, 0
9, 141959, Note_on_c, 3, 57, 0
9, 142320, Note_on_c, 3, 60, 44
9, 142320, Note_on_c, 3, 57, 44
9, 142439, Note_on_c, 3, 60, 0
9, 142439, Note_on_c, 3, 57, 0
9, 142560, Note_on_c, 3, 62, 44
9, 142560, Note_on_c, 3, 46, 44
9, 142679, Note_on_c, 3, 62, 0
9, 142799, Note_on_c, 3, 46, 0
9, 142800, Note_on_c, 3, 48, 44
9, 142800, Note_on_c, 3, 65, 44
9, 143159, Note_on_c, 3, 65, 0
9, 143160, Note_on_c, 3, 63, 44
9, 143279, Note_on_c, 3, 48, 0
9, 143279, Note_on_c, 3, 63, 0
9, 143280, Note_on_c, 3, 51, 44
9, 143280, Note_on_c, 3, 60, 44
9, 143399, Note_on_c, 3, 60, 0
9, 143400, Note_on_c, 3, 57, 44
9, 143519, Note_on_c, 3, 51, 0
9, 143519, Note_on_c, 3, 57, 0
9, 143520, Note_on_c, 3, 60, 44
9, 143520, Note_on_c, 3, 50, 44
9, 143639, Note_on_c, 3, 60, 0
9, 143640, Note_on_c, 3, 58, 44
9, 143759, Note_on_c, 3, 50, 0
9, 143759, Note_on_c, 3, 58, 0
9, 143760, Note_on_c, 3, 62, 44
9, 143760, Note_on_c, 3, 46, 44
9, 143879, Note_on_c, 3, 62, 0
9, 143880, Note_on_c, 3, 58, 44
9, 143999, Note_on_c, 3, 58, 0
9, 144000, Note_on_c, 3, 53, 44
9, 144119, Note_on_c, 3, 46, 0
9, 144119, Note_on_c, 3, 53, 0
9, 144120, Note_on_c, 3, 45, 44
9, 144120, Note_on_c, 3, 54, 44
9, 144239, Note_on_c, 3, 45, 0
9, 144239, Note_on_c, 3, 54, 0
9, 144240, Note_on_c, 3, 43, 44
9, 144240, Note_on_c, 3, 57, 44
9, 144359, Note_on_c, 3, 57, 0
9, 144360, Note_on_c, 3, 55, 44
9, 144479, Note_on_c, 3, 55, 0
9, 144480, Note_on_c, 3, 58, 44
9, 144599, Note_on_c, 3, 58, 0
9, 144600, Note_on_c, 3, 55, 44
9, 144719, Note_on_c, 3, 43, 0
9, 144719, Note_on_c, 3, 55, 0
9, 144720, Note_on_c, 3, 50, 44
9, 144720, Note_on_c, 3, 48, 44
9, 144839, Note_on_c, 3, 50, 0
9, 144840, Note_on_c, 3, 52, 44
9, 144959, Note_on_c, 3, 48, 0
9, 144959, Note_on_c, 3, 52, 0
9, 144960, Note_on_c, 3, 53, 44
9, 144960, Note_on_c, 3, 41, 44
9, 145079, Note_on_c, 3, 53, 0
9, 145080, Note_on_c, 3, 57, 44
9, 145199, Note_on_c, 3, 41, 0
9, 145199, Note_on_c, 3, 57, 0
9, 145200, Note_on_c, 3, 60, 44
9, 145304, Note_on_c, 3, 60, 0
9, 145320, Note_on_c, 3, 60, 44
9, 145409, Note_on_c, 3, 60, 0
9, 145440, Note_on_c, 3, 60, 44
9, 145440, Note_on_c, 3, 41, 44
9, 145529, Note_on_c, 3, 60, 0
9, 145559, Note_on_c, 3, 41, 0
9, 145560, Note_on_c, 3, 60, 45
9, 145560, Note_on_c, 3, 36, 45
9, 145619, Note_on_c, 3, 60, 0
9, 145679, Note_on_c, 3, 36, 0
9, 145680, Note_on_c, 3, 43, 47
9, 145680, Note_on_c, 3, 60, 47
9, 145799, Note_on_c, 3, 43, 0
9, 145799, Note_on_c, 3, 60, 0
9, 145800, Note_on_c, 3, 36, 49
9, 145800, Note_on_c, 3, 59, 49
9, 145919, Note_on_c, 3, 36, 0
9, 145919, Note_on_c, 3, 59, 0
9, 145920, Note_on_c, 3, 43, 50
9, 145920, Note_on_c, 3, 60, 50
9, 146039, Note_on_c, 3, 43, 0
9, 146039, Note_on_c, 3, 60, 0
9, 146040, Note_on_c, 3, 36, 52
9, 146040, Note_on_c, 3, 58, 52
9, 146159, Note_on_c, 3, 36, 0
9, 146159, Note_on_c, 3, 58, 0
9, 146160, Note_on_c, 3, 55, 54
9, 146160, Note_on_c, 3, 46, 54
9, 146279, Note_on_c, 3, 55, 0
9, 146279, Note_on_c, 3, 46, 0
9, 146280, Note_on_c, 3, 52, 55
9, 146280, Note_on_c, 3, 36, 55
9, 146384, Note_on_c, 3, 36, 0
9, 146399, Note_on_c, 3, 52, 0
9, 146400, Note_on_c, 3, 45, 57
9, 146400, Note_on_c, 3, 55, 57
9, 146519, Note_on_c, 3, 45, 0
9, 146519, Note_on_c, 3, 55, 0
9, 146520, Note_on_c, 3, 53, 59
9, 146520, Note_on_c, 3, 36, 59
9, 146639, Note_on_c, 3, 53, 0
9, 146639, Note_on_c, 3, 36, 0
9, 146640, Note_on_c, 3, 45, 60
9, 146640, Note_on_c, 3, 57, 60
9, 146759, Note_on_c, 3, 45, 0
9, 146759, Note_on_c, 3, 57, 0
9, 146760, Note_on_c, 3, 36, 62
9, 146760, Note_on_c, 3, 53, 62
9, 146879, Note_on_c, 3, 36, 0
9, 146879, Note_on_c, 3, 53, 0
9, 146880, Note_on_c, 3, 45, 64
9, 146880, Note_on_c, 3, 60, 64
9, 146999, Note_on_c, 3, 45, 0
9, 146999, Note_on_c, 3, 60, 0
9, 147000, Note_on_c, 3, 61, 65
9, 147000, Note_on_c, 3, 36, 65
9, 147104, Note_on_c, 3, 36, 0
9, 147119, Note_on_c, 3, 61, 0
9, 147120, Note_on_c, 3, 64, 67
9, 147120, Note_on_c, 3, 46, 67
9, 147239, Note_on_c, 3, 64, 0
9, 147239, Note_on_c, 3, 46, 0
9, 147240, Note_on_c, 3, 36, 69
9, 147240, Note_on_c, 3, 62, 69
9, 147359, Note_on_c, 3, 36, 0
9, 147359, Note_on_c, 3, 62, 0
9, 147360, Note_on_c, 3, 46, 70
9, 147360, Note_on_c, 3, 55, 70
9, 147479, Note_on_c, 3, 46, 0
9, 147479, Note_on_c, 3, 55, 0
9, 147480, Note_on_c, 3, 57, 72
9, 147480, Note_on_c, 3, 45, 72
9, 147599, Note_on_c, 3, 57, 0
9, 147599, Note_on_c, 3, 45, 0
9, 147600, Note_on_c, 3, 43, 74
9, 147600, Note_on_c, 3, 58, 74
9, 147704, Note_on_c, 3, 43, 0
9, 147704, Note_on_c, 3, 58, 0
9, 147720, Note_on_c, 3, 41, 76
9, 147720, Note_on_c, 3, 59, 76
9, 147824, Note_on_c, 3, 41, 0
9, 147824, Note_on_c, 3, 59, 0
9, 147840, Note_on_c, 3, 59, 80
9, 147840, Note_on_c, 3, 41, 80
9, 147959, Note_on_c, 3, 41, 0
9, 147960, Note_on_c, 3, 36, 80
9, 148079, Note_on_c, 3, 59, 0
9, 148079, Note_on_c, 3, 36, 0
9, 148080, Note_on_c, 3, 60, 80
9, 148080, Note_on_c, 3, 40, 80
9, 148199, Note_on_c, 3, 60, 0
9, 148199, Note_on_c, 3, 40, 0
9, 148200, Note_on_c, 3, 62, 80
9, 148200, Note_on_c, 3, 38, 80
9, 148319, Note_on_c, 3, 62, 0
9, 148319, Note_on_c, 3, 38, 0
9, 148320, Note_on_c, 3, 63, 80
9, 148320, Note_on_c, 3, 36, 80
9, 148424, Note_on_c, 3, 63, 0
9, 148424, Note_on_c, 3, 36, 0
9, 148440, Note_on_c, 3, 64, 80
9, 148440, Note_on_c, 3, 46, 80
9, 148544, Note_on_c, 3, 64, 0
9, 148544, Note_on_c, 3, 46, 0
9, 148560, Note_on_c, 3, 46, 80
9, 148560, Note_on_c, 3, 64, 80
9, 148679, Note_on_c, 3, 46, 0
9, 148680, Note_on_c, 3, 41, 80
9, 148799, Note_on_c, 3, 64, 0
9, 148799, Note_on_c, 3, 41, 0
9, 148800, Note_on_c, 3, 65, 80
9, 148800, Note_on_c, 3, 45, 80
9, 148919, Note_on_c, 3, 65, 0
9, 148919, Note_on_c, 3, 45, 0
9, 148920, Note_on_c, 3, 58, 80
9, 148920, Note_on_c, 3, 55, 80
9, 149039, Note_on_c, 3, 58, 0
9, 149039, Note_on_c, 3, 55, 0
9, 149040, Note_on_c, 3, 60, 80
9, 149040, Note_on_c, 3, 53, 80
9, 149144, Note_on_c, 3, 60, 0
9, 149144, Note_on_c, 3, 53, 0
9, 149160, Note_on_c, 3, 63, 84
9, 149264, Note_on_c, 3, 63, 0
9, 149280, Note_on_c, 3, 63, 84
9, 149519, Note_on_c, 3, 63, 0
9, 149520, Note_on_c, 3, 62, 84
9, 149639, Note_on_c, 3, 62, 0
9, 149880, Note_on_c, 3, 57, 52
9, 149880, Note_on_c, 3, 61, 52
9, 149984, Note_on_c, 3, 57, 0
9, 149984, Note_on_c, 3, 61, 0
9, 150000, Note_on_c, 3, 61, 52
9, 150000, Note_on_c, 3, 57, 52
9, 150239, Note_on_c, 3, 61, 0
9, 150239, Note_on_c, 3, 57, 0
9, 150240, Note_on_c, 3, 58, 52
9, 150240, Note_on_c, 3, 62, 52
9, 150359, Note_on_c, 3, 58, 0
9, 150359, Note_on_c, 3, 62, 0
9, 152280, Note_on_c, 3, 60, 76
9, 152399, Note_on_c, 3, 60, 0
9, 152640, Note_on_c, 3, 65, 84
9, 152700, Control_c, 3, 11, 112
9, 152999, Note_on_c, 3, 65, 0
9, 153600, Control_c, 3, 11, 127
9, 153840, Note_on_c, 3, 60, 76
9, 153959, Note_on_c, 3, 60, 0
9, 154080, Note_on_c, 3, 60, 84
9, 154140, Control_c, 3, 11, 112
9, 154319, Note_on_c, 3, 60, 0
9, 154320, Note_on_c, 3, 65, 84
9, 154320, Note_on_c, 3, 53, 84
9, 154439, Note_on_c, 3, 65, 0
9, 154439, Note_on_c, 3, 53, 0
9, 154800, Control_c, 3, 11, 127
9, 155040, Note_on_c, 3, 60, 84
9, 155100, Control_c, 3, 11, 112
9, 155279, Note_on_c, 3, 60, 0
9, 155280, Note_on_c, 3, 65, 84
9, 155280, Note_on_c, 3, 53, 84
9, 155399, Note_on_c, 3, 65, 0
9, 155399, Note_on_c, 3, 53, 0
9, 155520, Control_c, 3, 11, 127
9, 155760, Note_on_c, 3, 64, 84
9, 155820, Control_c, 3, 11, 112
9, 155999, Note_on_c, 3, 64, 0
9, 156480, Note_on_c, 3, 48, 84
9, 156480, Note_on_c, 3, 60, 84
9, 156719, Note_on_c, 3, 48, 0
9, 156719, Note_on_c, 3, 60, 0
9, 156720, Note_on_c, 3, 53, 84
9, 156720, Note_on_c, 3, 41, 84
9, 156839, Note_on_c, 3, 53, 0
9, 156839, Note_on_c, 3, 41, 0
9, 156960, Control_c, 3, 11, 127
9, 156960, End_track
10, 0, Start_track
10, 0, Title_t, "French Horn in F"
10, 0, MIDI_port, 0
10, 0, Program_c, 4, 60
10, 0, Control_c, 4, 7, 104
10, 0, Control_c, 4, 10, 45
10, 0, Control_c, 4, 11, 127
10, 1440, Note_on_c, 4, 48, 52
10, 1440, Note_on_c, 4, 60, 52
10, 1559, Note_on_c, 4, 48, 0
10, 1559, Note_on_c, 4, 60, 0
10, 1620, Control_c, 4, 11, 80
10, 1680, Note_on_c, 4, 48, 76
10, 1680, Note_on_c, 4, 60, 76
10, 2864, Note_on_c, 4, 48, 0
10, 2864, Note_on_c, 4, 60, 0
10, 2880, Note_on_c, 4, 48, 76
10, 2880, Control_c, 4, 11, 80
10, 2880, Note_on_c, 4, 60, 76
10, 2940, Control_c, 4, 11, 82
10, 3000, Control_c, 4, 11, 84
10, 3060, Control_c, 4, 11, 86
10, 3120, Control_c, 4, 11, 88
10, 3180, Control_c, 4, 11, 90
10, 3240, Control_c, 4, 11, 92
10, 3300, Control_c, 4, 11, 94
10, 3360, Control_c, 4, 11, 96
10, 3420, Control_c, 4, 11, 98
10, 3480, Control_c, 4, 11, 100
10, 3540, Control_c, 4, 11, 102
10, 3600, Control_c, 4, 11, 104
10, 3660, Control_c, 4, 11, 105
10, 3720, Control_c, 4, 11, 107
10, 3780, Control_c, 4, 11, 109
10, 3840, Control_c, 4, 11, 111
10, 3900, Control_c, 4, 11, 113
10, 3960, Control_c, 4, 11, 115
10, 4020, Control_c, 4, 11, 117
10, 4080, Control_c, 4, 11, 119
10, 4140, Control_c, 4, 11, 121
10, 4200, Control_c, 4, 11, 123
10, 4260, Control_c, 4, 11, 127
10, 4304, Note_on_c, 4, 48, 0
10, 4304, Note_on_c, 4, 60, 0
10, 4320, Note_on_c, 4, 60, 76
10, 4320, Note_on_c, 4, 48, 76
10, 4439, Note_on_c, 4, 60, 0
10, 4439, Note_on_c, 4, 48, 0
10, 4560, Note_on_c, 4, 60, 84
10, 4560, Note_on_c, 4, 48, 84
10, 4620, Control_c, 4, 11, 112
10, 5024, Note_on_c, 4, 60, 0
10, 5024, Note_on_c, 4, 48, 0
10, 5040, Note_on_c, 4, 48, 84
10, 5040, Note_on_c, 4, 60, 84
10, 5159, Note_on_c, 4, 48, 0
10, 5159, Note_on_c, 4, 60, 0
10, 5278, Control_c, 4, 11, 127
10, 5280, Note_on_c, 4, 53, 84
10, 5280, Note_on_c, 4, 65, 84
10, 5340, Control_c, 4, 11, 112
10, 5759, Note_on_c, 4, 53, 0
10, 5759, Note_on_c, 4, 65, 0
10, 5880, Control_c, 4, 11, 127
10, 8640, Note_on_c, 4, 48, 52
10, 8640, Note_on_c, 4, 60, 52
10, 8759, Note_on_c, 4, 48, 0
10, 8759, Note_on_c, 4, 60, 0
10, 8820, Control_c, 4, 11, 80
10, 8880, Note_on_c, 4, 60, 76
10, 8880, Note_on_c, 4, 48, 76
10, 10064, Note_on_c, 4, 60, 0
10, 10064, Note_on_c, 4, 48, 0
10, 10080, Control_c, 4, 11, 80
10, 10080, Note_on_c, 4, 60, 76
10, 10080, Note_on_c, 4, 48, 76
10, 10140, Control_c, 4, 11, 82
10, 10200, Control_c, 4, 11, 84
10, 10260, Control_c, 4, 11, 86
10, 10320, Control_c, 4, 11, 88
10, 10380, Control_c, 4, 11, 90
10, 10440, Control_c, 4, 11, 92
10, 10500, Control_c, 4, 11, 94
10, 10560, Control_c, 4, 11, 96
10, 10620, Control_c, 4, 11, 98
10, 10680, Control_c, 4, 11, 100
10, 10740, Control_c, 4, 11, 102
10, 10800, Control_c, 4, 11, 104
10, 10860, Control_c, 4, 11, 105
10, 10920, Control_c, 4, 11, 107
10, 10980, Control_c, 4, 11, 109
10, 11040, Control_c, 4, 11, 111
10, 11100, Control_c, 4, 11, 113
10, 11160, Control_c, 4, 11, 115
10, 11220, Control_c, 4, 11, 117
10, 11280, Control_c, 4, 11, 119
10, 11340, Control_c, 4, 11, 121
10, 11400, Control_c, 4, 11, 123
10, 11460, Control_c, 4, 11, 127
10, 11504, Note_on_c, 4, 60, 0
10, 11504, Note_on_c, 4, 48, 0
10, 11520, Note_on_c, 4, 60, 76
10, 11520, Note_on_c, 4, 48, 76
10, 11639, Note_on_c, 4, 60, 0
10, 11639, Note_on_c, 4, 48, 0
10, 11760, Note_on_c, 4, 60, 84
10, 11760, Note_on_c, 4, 48, 84
10, 11820, Control_c, 4, 11, 112
10, 12224, Note_on_c, 4, 60, 0
10, 12224, Note_on_c, 4, 48, 0
10, 12240, Note_on_c, 4, 48, 84
10, 12240, Note_on_c, 4, 60, 84
10, 12359, Note_on_c, 4, 48, 0
10, 12359, Note_on_c, 4, 60, 0
10, 12478, Control_c, 4, 11, 127
10, 12480, Note_on_c, 4, 65, 84
10, 12480, Note_on_c, 4, 53, 84
10, 12540, Control_c, 4, 11, 112
10, 12959, Note_on_c, 4, 65, 0
10, 12959, Note_on_c, 4, 53, 0
10, 13080, Control_c, 4, 11, 127
10, 14880, Note_on_c, 4, 67, 84
10, 14999, Note_on_c, 4, 67, 0
10, 15600, Note_on_c, 4, 67, 84
10, 15719, Note_on_c, 4, 67, 0
10, 16320, Note_on_c, 4, 67, 84
10, 16439, Note_on_c, 4, 67, 0
10, 17040, Note_on_c, 4, 67, 84
10, 17159, Note_on_c, 4, 67, 0
10, 17280, Note_on_c, 4, 67, 76
10, 17399, Note_on_c, 4, 67, 0
10, 17520, Note_on_c, 4, 67, 84
10, 17639, Note_on_c, 4, 67, 0
10, 17760, Note_on_c, 4, 67, 76
10, 17879, Note_on_c, 4, 67, 0
10, 18240, Note_on_c, 4, 67, 84
10, 18359, Note_on_c, 4, 67, 0
10, 18480, Note_on_c, 4, 67, 76
10, 18599, Note_on_c, 4, 67, 0
10, 18960, Note_on_c, 4, 67, 84
10, 18960, Note_on_c, 4, 60, 84
10, 19079, Note_on_c, 4, 67, 0
10, 19079, Note_on_c, 4, 60, 0
10, 19200, Note_on_c, 4, 60, 76
10, 19200, Note_on_c, 4, 67, 76
10, 19319, Note_on_c, 4, 60, 0
10, 19319, Note_on_c, 4, 67, 0
10, 19680, Note_on_c, 4, 69, 84
10, 19680, Note_on_c, 4, 65, 84
10, 19799, Note_on_c, 4, 69, 0
10, 19799, Note_on_c, 4, 65, 0
10, 19920, Note_on_c, 4, 69, 76
10, 19920, Note_on_c, 4, 65, 76
10, 20039, Note_on_c, 4, 69, 0
10, 20039, Note_on_c, 4, 65, 0
10, 20160, Note_on_c, 4, 48, 76
10, 20160, Note_on_c, 4, 60, 76
10, 20279, Note_on_c, 4, 48, 0
10, 20279, Note_on_c, 4, 60, 0
10, 20400, Note_on_c, 4, 53, 76
10, 20400, Note_on_c, 4, 65, 76
10, 20460, Control_c, 4, 11, 80
10, 21584, Note_on_c, 4, 53, 0
10, 21584, Note_on_c, 4, 65, 0
10, 21600, Control_c, 4, 11, 127
10, 21600, Note_on_c, 4, 53, 52
10, 21600, Note_on_c, 4, 65, 52
10, 21720, Control_c, 4, 11, 126
10, 21840, Control_c, 4, 11, 125
10, 21960, Control_c, 4, 11, 123
10, 22080, Control_c, 4, 11, 122
10, 22200, Control_c, 4, 11, 121
10, 22304, Note_on_c, 4, 53, 0
10, 22304, Note_on_c, 4, 65, 0
10, 22320, Note_on_c, 4, 65, 52
10, 22320, Control_c, 4, 11, 120
10, 22320, Note_on_c, 4, 53, 52
10, 22440, Control_c, 4, 11, 118
10, 22560, Control_c, 4, 11, 117
10, 22680, Control_c, 4, 11, 116
10, 22800, Control_c, 4, 11, 115
10, 22920, Control_c, 4, 11, 113
10, 23039, Note_on_c, 4, 65, 0
10, 23039, Note_on_c, 4, 53, 0
10, 23160, Control_c, 4, 11, 127
10, 23280, Note_on_c, 4, 53, 44
10, 23280, Note_on_c, 4, 65, 44
10, 23399, Note_on_c, 4, 53, 0
10, 23399, Note_on_c, 4, 65, 0
10, 23760, Note_on_c, 4, 65, 44
10, 23760, Note_on_c, 4, 53, 44
10, 23879, Note_on_c, 4, 65, 0
10, 23879, Note_on_c, 4, 53, 0
10, 24240, Note_on_c, 4, 65, 44
10, 24240, Note_on_c, 4, 53, 44
10, 24359, Note_on_c, 4, 65, 0
10, 24359, Note_on_c, 4, 53, 0
10, 27120, Control_c, 4, 11, 64
10, 27360, Note_on_c, 4, 69, 76
10, 27360, Note_on_c, 4, 57, 76
10, 27360, Control_c, 4, 11, 64
10, 27408, Control_c, 4, 11, 65
10, 27455, Control_c, 4, 11, 67
10, 27479, Note_on_c, 4, 69, 0
10, 27479, Note_on_c, 4, 57, 0
10, 27503, Control_c, 4, 11, 68
10, 27550, Control_c, 4, 11, 69
10, 27598, Control_c, 4, 11, 71
10, 27600, Note_on_c, 4, 48, 76
10, 27600, Note_on_c, 4, 60, 76
10, 27645, Control_c, 4, 11, 72
10, 27693, Control_c, 4, 11, 73
10, 27704, Note_on_c, 4, 48, 0
10, 27704, Note_on_c, 4, 60, 0
10, 27720, Note_on_c, 4, 60, 76
10, 27720, Note_on_c, 4, 48, 76
10, 27740, Control_c, 4, 11, 75
10, 27788, Control_c, 4, 11, 76
10, 27835, Control_c, 4, 11, 77
10, 27883, Control_c, 4, 11, 78
10, 27930, Control_c, 4, 11, 80
10, 27944, Note_on_c, 4, 60, 0
10, 27944, Note_on_c, 4, 48, 0
10, 27960, Note_on_c, 4, 60, 76
10, 27960, Note_on_c, 4, 48, 76
10, 27978, Control_c, 4, 11, 81
10, 28025, Control_c, 4, 11, 82
10, 28073, Control_c, 4, 11, 84
10, 28120, Control_c, 4, 11, 85
10, 28168, Control_c, 4, 11, 86
10, 28184, Note_on_c, 4, 60, 0
10, 28184, Note_on_c, 4, 48, 0
10, 28200, Note_on_c, 4, 48, 76
10, 28200, Note_on_c, 4, 60, 76
10, 28215, Control_c, 4, 11, 88
10, 28263, Control_c, 4, 11, 89
10, 28310, Control_c, 4, 11, 90
10, 28358, Control_c, 4, 11, 92
10, 28405, Control_c, 4, 11, 93
10, 28424, Note_on_c, 4, 48, 0
10, 28424, Note_on_c, 4, 60, 0
10, 28440, Note_on_c, 4, 60, 76
10, 28440, Note_on_c, 4, 48, 76
10, 28453, Control_c, 4, 11, 94
10, 28500, Control_c, 4, 11, 96
10, 28548, Control_c, 4, 11, 97
10, 28595, Control_c, 4, 11, 98
10, 28643, Control_c, 4, 11, 99
10, 28664, Note_on_c, 4, 60, 0
10, 28664, Note_on_c, 4, 48, 0
10, 28680, Note_on_c, 4, 48, 76
10, 28680, Note_on_c, 4, 60, 76
10, 28690, Control_c, 4, 11, 101
10, 28738, Control_c, 4, 11, 102
10, 28785, Control_c, 4, 11, 103
10, 28833, Control_c, 4, 11, 105
10, 28880, Control_c, 4, 11, 106
10, 28904, Note_on_c, 4, 48, 0
10, 28904, Note_on_c, 4, 60, 0
10, 28920, Note_on_c, 4, 60, 76
10, 28920, Note_on_c, 4, 48, 76
10, 28928, Control_c, 4, 11, 107
10, 28975, Control_c, 4, 11, 109
10, 29023, Control_c, 4, 11, 110
10, 29070, Control_c, 4, 11, 111
10, 29118, Control_c, 4, 11, 113
10, 29144, Note_on_c, 4, 60, 0
10, 29144, Note_on_c, 4, 48, 0
10, 29160, Note_on_c, 4, 48, 76
10, 29160, Note_on_c, 4, 60, 76
10, 29165, Control_c, 4, 11, 114
10, 29213, Control_c, 4, 11, 115
10, 29260, Control_c, 4, 11, 117
10, 29308, Control_c, 4, 11, 118
10, 29355, Control_c, 4, 11, 119
10, 29384, Note_on_c, 4, 48, 0
10, 29384, Note_on_c, 4, 60, 0
10, 29400, Note_on_c, 4, 48, 76
10, 29400, Note_on_c, 4, 60, 76
10, 29403, Control_c, 4, 11, 120
10, 29450, Control_c, 4, 11, 122
10, 29498, Control_c, 4, 11, 123
10, 29545, Control_c, 4, 11, 124
10, 29593, Control_c, 4, 11, 127
10, 29624, Note_on_c, 4, 48, 0
10, 29624, Note_on_c, 4, 60, 0
10, 29640, Note_on_c, 4, 48, 76
10, 29640, Note_on_c, 4, 60, 76
10, 29864, Note_on_c, 4, 48, 0
10, 29864, Note_on_c, 4, 60, 0
10, 29880, Note_on_c, 4, 48, 76
10, 29880, Note_on_c, 4, 60, 76
10, 30104, Note_on_c, 4, 48, 0
10, 30104, Note_on_c, 4, 60, 0
10, 30120, Note_on_c, 4, 48, 76
10, 30120, Note_on_c, 4, 60, 76
10, 30344, Note_on_c, 4, 48, 0
10, 30344, Note_on_c, 4, 60, 0
10, 30360, Note_on_c, 4, 48, 76
10, 30360, Note_on_c, 4, 60, 76
10, 30584, Note_on_c, 4, 48, 0
10, 30584, Note_on_c, 4, 60, 0
10, 30600, Note_on_c, 4, 60, 76
10, 30600, Note_on_c, 4, 48, 76
10, 30719, Note_on_c, 4, 60, 0
10, 30719, Note_on_c, 4, 48, 0
10, 30720, Note_on_c, 4, 53, 76
10, 30720, Note_on_c, 4, 65, 76
10, 30824, Note_on_c, 4, 53, 0
10, 30824, Note_on_c, 4, 65, 0
10, 30840, Note_on_c, 4, 53, 76
10, 30840, Note_on_c, 4, 65, 76
10, 31064, Note_on_c, 4, 53, 0
10, 31064, Note_on_c, 4, 65, 0
10, 31080, Note_on_c, 4, 53, 76
10, 31080, Note_on_c, 4, 65, 76
10, 31304, Note_on_c, 4, 53, 0
10, 31304, Note_on_c, 4, 65, 0
10, 31320, Note_on_c, 4, 65, 76
10, 31320, Note_on_c, 4, 53, 76
10, 31559, Note_on_c, 4, 65, 0
10, 31559, Note_on_c, 4, 53, 0
10, 33120, Note_on_c, 4, 60, 84
10, 33239, Note_on_c, 4, 60, 0
10, 33360, Note_on_c, 4, 65, 92
10, 33689, Note_on_c, 4, 65, 0
10, 33720, Note_on_c, 4, 60, 84
10, 33809, Note_on_c, 4, 60, 0
10, 33840, Note_on_c, 4, 57, 84
10, 33929, Note_on_c, 4, 57, 0
10, 33960, Note_on_c, 4, 53, 84
10, 34049, Note_on_c, 4, 53, 0
10, 34080, Note_on_c, 4, 48, 84
10, 34080, Note_on_c, 4, 60, 84
10, 34319, Note_on_c, 4, 48, 0
10, 34319, Note_on_c, 4, 60, 0
10, 34560, Note_on_c, 4, 60, 84
10, 34679, Note_on_c, 4, 60, 0
10, 34800, Note_on_c, 4, 65, 92
10, 35129, Note_on_c, 4, 65, 0
10, 35160, Note_on_c, 4, 60, 84
10, 35249, Note_on_c, 4, 60, 0
10, 35280, Note_on_c, 4, 57, 84
10, 35369, Note_on_c, 4, 57, 0
10, 35400, Note_on_c, 4, 53, 84
10, 35489, Note_on_c, 4, 53, 0
10, 35520, Note_on_c, 4, 48, 84
10, 35520, Note_on_c, 4, 60, 84
10, 35639, Note_on_c, 4, 48, 0
10, 35639, Note_on_c, 4, 60, 0
10, 36000, Note_on_c, 4, 67, 92
10, 36000, Note_on_c, 4, 60, 92
10, 36239, Note_on_c, 4, 67, 0
10, 36239, Note_on_c, 4, 60, 0
10, 36240, Note_on_c, 4, 69, 84
10, 36240, Note_on_c, 4, 65, 84
10, 36359, Note_on_c, 4, 69, 0
10, 36359, Note_on_c, 4, 65, 0
10, 36960, Note_on_c, 4, 67, 92
10, 36960, Note_on_c, 4, 60, 92
10, 37199, Note_on_c, 4, 67, 0
10, 37199, Note_on_c, 4, 60, 0
10, 37200, Note_on_c, 4, 65, 84
10, 37200, Note_on_c, 4, 69, 84
10, 37319, Note_on_c, 4, 65, 0
10, 37319, Note_on_c, 4, 69, 0
10, 38400, Note_on_c, 4, 48, 76
10, 38400, Note_on_c, 4, 60, 76
10, 38639, Note_on_c, 4, 48, 0
10, 38639, Note_on_c, 4, 60, 0
10, 38640, Note_on_c, 4, 65, 76
10, 38640, Note_on_c, 4, 53, 76
10, 38759, Note_on_c, 4, 65, 0
10, 38759, Note_on_c, 4, 53, 0
10, 39360, Note_on_c, 4, 67, 84
10, 39479, Note_on_c, 4, 67, 0
10, 40080, Note_on_c, 4, 67, 84
10, 40199, Note_on_c, 4, 67, 0
10, 40800, Note_on_c, 4, 67, 84
10, 40919, Note_on_c, 4, 67, 0
10, 41520, Note_on_c, 4, 67, 84
10, 41639, Note_on_c, 4, 67, 0
10, 41760, Note_on_c, 4, 67, 76
10, 41879, Note_on_c, 4, 67, 0
10, 42000, Note_on_c, 4, 67, 84
10, 42119, Note_on_c, 4, 67, 0
10, 42240, Note_on_c, 4, 67, 76
10, 42359, Note_on_c, 4, 67, 0
10, 42720, Note_on_c, 4, 67, 84
10, 42839, Note_on_c, 4, 67, 0
10, 42960, Note_on_c, 4, 67, 76
10, 43079, Note_on_c, 4, 67, 0
10, 43440, Note_on_c, 4, 67, 84
10, 43440, Note_on_c, 4, 60, 84
10, 43559, Note_on_c, 4, 67, 0
10, 43559, Note_on_c, 4, 60, 0
10, 43680, Note_on_c, 4, 67, 76
10, 43680, Note_on_c, 4, 60, 76
10, 43799, Note_on_c, 4, 67, 0
10, 43799, Note_on_c, 4, 60, 0
10, 44160, Note_on_c, 4, 69, 84
10, 44160, Note_on_c, 4, 65, 84
10, 44279, Note_on_c, 4, 69, 0
10, 44279, Note_on_c, 4, 65, 0
10, 44400, Note_on_c, 4, 65, 76
10, 44400, Note_on_c, 4, 69, 76
10, 44519, Note_on_c, 4, 65, 0
10, 44519, Note_on_c, 4, 69, 0
10, 44640, Note_on_c, 4, 48, 76
10, 44640, Note_on_c, 4, 60, 76
10, 44759, Note_on_c, 4, 48, 0
10, 44759, Note_on_c, 4, 60, 0
10, 44880, Note_on_c, 4, 65, 76
10, 44880, Note_on_c, 4, 53, 76
10, 44940, Control_c, 4, 11, 80
10, 46064, Note_on_c, 4, 65, 0
10, 46064, Note_on_c, 4, 53, 0
10, 46080, Control_c, 4, 11, 127
10, 46080, Note_on_c, 4, 53, 52
10, 46080, Note_on_c, 4, 65, 52
10, 46200, Control_c, 4, 11, 126
10, 46320, Control_c, 4, 11, 125
10, 46440, Control_c, 4, 11, 123
10, 46560, Control_c, 4, 11, 122
10, 46680, Control_c, 4, 11, 121
10, 46784, Note_on_c, 4, 53, 0
10, 46784, Note_on_c, 4, 65, 0
10, 46800, Control_c, 4, 11, 120
10, 46800, Note_on_c, 4, 65, 52
10, 46800, Note_on_c, 4, 53, 52
10, 46920, Control_c, 4, 11, 118
10, 47040, Control_c, 4, 11, 117
10, 47160, Control_c, 4, 11, 116
10, 47280, Control_c, 4, 11, 115
10, 47400, Control_c, 4, 11, 113
10, 47519, Note_on_c, 4, 65, 0
10, 47519, Note_on_c, 4, 53, 0
10, 47640, Control_c, 4, 11, 127
10, 47760, Note_on_c, 4, 65, 44
10, 47760, Note_on_c, 4, 53, 44
10, 47879, Note_on_c, 4, 65, 0
10, 47879, Note_on_c, 4, 53, 0
10, 48240, Note_on_c, 4, 53, 44
10, 48240, Note_on_c, 4, 65, 44
10, 48359, Note_on_c, 4, 53, 0
10, 48359, Note_on_c, 4, 65, 0
10, 48720, Note_on_c, 4, 53, 44
10, 48720, Note_on_c, 4, 65, 44
10, 48839, Note_on_c, 4, 53, 0
10, 48839, Note_on_c, 4, 65, 0
10, 51600, Control_c, 4, 11, 64
10, 51840, Control_c, 4, 11, 64
10, 51840, Note_on_c, 4, 69, 76
10, 51840, Note_on_c, 4, 57, 76
10, 51888, Control_c, 4, 11, 65
10, 51935, Control_c, 4, 11, 67
10, 51959, Note_on_c, 4, 69, 0
10, 51959, Note_on_c, 4, 57, 0
10, 51983, Control_c, 4, 11, 68
10, 52030, Control_c, 4, 11, 69
10, 52078, Control_c, 4, 11, 71
10, 52080, Note_on_c, 4, 48, 76
10, 52080, Note_on_c, 4, 60, 76
10, 52125, Control_c, 4, 11, 72
10, 52173, Control_c, 4, 11, 73
10, 52184, Note_on_c, 4, 48, 0
10, 52184, Note_on_c, 4, 60, 0
10, 52200, Note_on_c, 4, 48, 76
10, 52200, Note_on_c, 4, 60, 76
10, 52220, Control_c, 4, 11, 75
10, 52268, Control_c, 4, 11, 76
10, 52315, Control_c, 4, 11, 77
10, 52363, Control_c, 4, 11, 78
10, 52410, Control_c, 4, 11, 80
10, 52424, Note_on_c, 4, 48, 0
10, 52424, Note_on_c, 4, 60, 0
10, 52440, Note_on_c, 4, 48, 76
10, 52440, Note_on_c, 4, 60, 76
10, 52458, Control_c, 4, 11, 81
10, 52505, Control_c, 4, 11, 82
10, 52553, Control_c, 4, 11, 84
10, 52600, Control_c, 4, 11, 85
10, 52648, Control_c, 4, 11, 86
10, 52664, Note_on_c, 4, 48, 0
10, 52664, Note_on_c, 4, 60, 0
10, 52680, Note_on_c, 4, 60, 76
10, 52680, Note_on_c, 4, 48, 76
10, 52695, Control_c, 4, 11, 88
10, 52743, Control_c, 4, 11, 89
10, 52790, Control_c, 4, 11, 90
10, 52838, Control_c, 4, 11, 92
10, 52885, Control_c, 4, 11, 93
10, 52904, Note_on_c, 4, 60, 0
10, 52904, Note_on_c, 4, 48, 0
10, 52920, Note_on_c, 4, 60, 76
10, 52920, Note_on_c, 4, 48, 76
10, 52933, Control_c, 4, 11, 94
10, 52980, Control_c, 4, 11, 96
10, 53028, Control_c, 4, 11, 97
10, 53075, Control_c, 4, 11, 98
10, 53123, Control_c, 4, 11, 99
10, 53144, Note_on_c, 4, 60, 0
10, 53144, Note_on_c, 4, 48, 0
10, 53160, Note_on_c, 4, 60, 76
10, 53160, Note_on_c, 4, 48, 76
10, 53170, Control_c, 4, 11, 101
10, 53218, Control_c, 4, 11, 102
10, 53265, Control_c, 4, 11, 103
10, 53313, Control_c, 4, 11, 105
10, 53360, Control_c, 4, 11, 106
10, 53384, Note_on_c, 4, 60, 0
10, 53384, Note_on_c, 4, 48, 0
10, 53400, Note_on_c, 4, 60, 76
10, 53400, Note_on_c, 4, 48, 76
10, 53408, Control_c, 4, 11, 107
10, 53455, Control_c, 4, 11, 109
10, 53503, Control_c, 4, 11, 110
10, 53550, Control_c, 4, 11, 111
10, 53598, Control_c, 4, 11, 113
10, 53624, Note_on_c, 4, 60, 0
10, 53624, Note_on_c, 4, 48, 0
10, 53640, Note_on_c, 4, 60, 76
10, 53640, Note_on_c, 4, 48, 76
10, 53645, Control_c, 4, 11, 114
10, 53693, Control_c, 4, 11, 115
10, 53740, Control_c, 4, 11, 117
10, 53788, Control_c, 4, 11, 118
10, 53835, Control_c, 4, 11, 119
10, 53864, Note_on_c, 4, 60, 0
10, 53864, Note_on_c, 4, 48, 0
10, 53880, Note_on_c, 4, 48, 76
10, 53880, Note_on_c, 4, 60, 76
10, 53883, Control_c, 4, 11, 120
10, 53930, Control_c, 4, 11, 122
10, 53978, Control_c, 4, 11, 123
10, 54025, Control_c, 4, 11, 124
10, 54073, Control_c, 4, 11, 127
10, 54104, Note_on_c, 4, 48, 0
10, 54104, Note_on_c, 4, 60, 0
10, 54120, Note_on_c, 4, 48, 76
10, 54120, Note_on_c, 4, 60, 76
10, 54344, Note_on_c, 4, 48, 0
10, 54344, Note_on_c, 4, 60, 0
10, 54360, Note_on_c, 4, 60, 76
10, 54360, Note_on_c, 4, 48, 76
10, 54584, Note_on_c, 4, 60, 0
10, 54584, Note_on_c, 4, 48, 0
10, 54600, Note_on_c, 4, 60, 76
10, 54600, Note_on_c, 4, 48, 76
10, 54824, Note_on_c, 4, 60, 0
10, 54824, Note_on_c, 4, 48, 0
10, 54840, Note_on_c, 4, 48, 76
10, 54840, Note_on_c, 4, 60, 76
10, 55064, Note_on_c, 4, 48, 0
10, 55064, Note_on_c, 4, 60, 0
10, 55080, Note_on_c, 4, 60, 76
10, 55080, Note_on_c, 4, 48, 76
10, 55199, Note_on_c, 4, 60, 0
10, 55199, Note_on_c, 4, 48, 0
10, 55200, Note_on_c, 4, 53, 76
10, 55200, Note_on_c, 4, 65, 76
10, 55304, Note_on_c, 4, 53, 0
10, 55304, Note_on_c, 4, 65, 0
10, 55320, Note_on_c, 4, 65, 76
10, 55320, Note_on_c, 4, 53, 76
10, 55544, Note_on_c, 4, 65, 0
10, 55544, Note_on_c, 4, 53, 0
10, 55560, Note_on_c, 4, 53, 76
10, 55560, Note_on_c, 4, 65, 76
10, 55784, Note_on_c, 4, 53, 0
10, 55784, Note_on_c, 4, 65, 0
10, 55800, Note_on_c, 4, 53, 76
10, 55800, Note_on_c, 4, 65, 76
10, 56039, Note_on_c, 4, 53, 0
10, 56039, Note_on_c, 4, 65, 0
10, 57600, Note_on_c, 4, 60, 84
10, 57719, Note_on_c, 4, 60, 0
10, 57840, Note_on_c, 4, 65, 92
10, 58169, Note_on_c, 4, 65, 0
10, 58200, Note_on_c, 4, 60, 84
10, 58289, Note_on_c, 4, 60, 0
10, 58320, Note_on_c, 4, 57, 84
10, 58409, Note_on_c, 4, 57, 0
10, 58440, Note_on_c, 4, 53, 84
10, 58529, Note_on_c, 4, 53, 0
10, 58560, Note_on_c, 4, 48, 84
10, 58560, Note_on_c, 4, 60, 84
10, 58799, Note_on_c, 4, 48, 0
10, 58799, Note_on_c, 4, 60, 0
10, 59040, Note_on_c, 4, 60, 84
10, 59159, Note_on_c, 4, 60, 0
10, 59280, Note_on_c, 4, 65, 92
10, 59609, Note_on_c, 4, 65, 0
10, 59640, Note_on_c, 4, 60, 84
10, 59729, Note_on_c, 4, 60, 0
10, 59760, Note_on_c, 4, 57, 84
10, 59849, Note_on_c, 4, 57, 0
10, 59880, Note_on_c, 4, 53, 84
10, 59969, Note_on_c, 4, 53, 0
10, 60000, Note_on_c, 4, 60, 84
10, 60000, Note_on_c, 4, 48, 84
10, 60119, Note_on_c, 4, 60, 0
10, 60119, Note_on_c, 4, 48, 0
10, 60480, Note_on_c, 4, 60, 92
10, 60480, Note_on_c, 4, 67, 92
10, 60719, Note_on_c, 4, 60, 0
10, 60719, Note_on_c, 4, 67, 0
10, 60720, Note_on_c, 4, 69, 84
10, 60720, Note_on_c, 4, 65, 84
10, 60839, Note_on_c, 4, 69, 0
10, 60839, Note_on_c, 4, 65, 0
10, 61440, Note_on_c, 4, 67, 92
10, 61440, Note_on_c, 4, 60, 92
10, 61679, Note_on_c, 4, 67, 0
10, 61679, Note_on_c, 4, 60, 0
10, 61680, Note_on_c, 4, 69, 84
10, 61680, Note_on_c, 4, 65, 84
10, 61799, Note_on_c, 4, 69, 0
10, 61799, Note_on_c, 4, 65, 0
10, 62880, Note_on_c, 4, 48, 76
10, 62880, Note_on_c, 4, 60, 76
10, 63119, Note_on_c, 4, 48, 0
10, 63119, Note_on_c, 4, 60, 0
10, 63120, Note_on_c, 4, 53, 76
10, 63120, Note_on_c, 4, 65, 76
10, 63224, Note_on_c, 4, 53, 0
10, 63224, Note_on_c, 4, 65, 0
10, 63240, Note_on_c, 4, 60, 48
10, 63344, Note_on_c, 4, 60, 0
10, 63360, Note_on_c, 4, 62, 48
10, 63464, Note_on_c, 4, 62, 0
10, 63480, Note_on_c, 4, 64, 48
10, 63569, Note_on_c, 4, 64, 0
10, 63600, Note_on_c, 4, 65, 48
10, 63600, Note_on_c, 4, 57, 48
10, 63959, Note_on_c, 4, 65, 0
10, 63959, Note_on_c, 4, 57, 0
10, 63960, Note_on_c, 4, 67, 48
10, 63960, Note_on_c, 4, 60, 48
10, 64079, Note_on_c, 4, 67, 0
10, 64079, Note_on_c, 4, 60, 0
10, 64080, Note_on_c, 4, 65, 48
10, 64080, Note_on_c, 4, 69, 48
10, 64304, Note_on_c, 4, 65, 0
10, 64304, Note_on_c, 4, 69, 0
10, 64320, Note_on_c, 4, 65, 48
10, 64320, Note_on_c, 4, 69, 48
10, 64679, Note_on_c, 4, 65, 0
10, 64679, Note_on_c, 4, 69, 0
10, 64680, Note_on_c, 4, 60, 48
10, 64680, Note_on_c, 4, 67, 48
10, 64799, Note_on_c, 4, 60, 0
10, 64799, Note_on_c, 4, 67, 0
10, 64800, Note_on_c, 4, 57, 48
10, 64800, Note_on_c, 4, 65, 48
10, 65024, Note_on_c, 4, 57, 0
10, 65024, Note_on_c, 4, 65, 0
10, 65040, Note_on_c, 4, 65, 68
10, 65040, Note_on_c, 4, 57, 68
10, 65040, Control_c, 4, 11, 88
10, 65279, Note_on_c, 4, 65, 0
10, 65279, Note_on_c, 4, 57, 0
10, 65280, Note_on_c, 4, 65, 68
10, 65280, Control_c, 4, 11, 88
10, 65280, Note_on_c, 4, 69, 68
10, 65320, Control_c, 4, 11, 91
10, 65360, Control_c, 4, 11, 95
10, 65400, Control_c, 4, 11, 98
10, 65440, Control_c, 4, 11, 101
10, 65480, Control_c, 4, 11, 104
10, 65520, Control_c, 4, 11, 108
10, 65560, Control_c, 4, 11, 111
10, 65600, Control_c, 4, 11, 114
10, 65639, Note_on_c, 4, 65, 0
10, 65639, Note_on_c, 4, 69, 0
10, 65640, Note_on_c, 4, 69, 68
10, 65640, Note_on_c, 4, 72, 68
10, 65640, Control_c, 4, 11, 117
10, 65680, Control_c, 4, 11, 121
10, 65720, Control_c, 4, 11, 127
10, 65744, Note_on_c, 4, 69, 0
10, 65744, Note_on_c, 4, 72, 0
10, 65760, Note_on_c, 4, 67, 52
10, 65760, Note_on_c, 4, 72, 52
10, 65864, Note_on_c, 4, 67, 0
10, 65879, Note_on_c, 4, 72, 0
10, 65880, Note_on_c, 4, 67, 52
10, 65880, Note_on_c, 4, 70, 52
10, 65984, Note_on_c, 4, 67, 0
10, 65984, Note_on_c, 4, 70, 0
10, 66000, Note_on_c, 4, 67, 52
10, 66000, Note_on_c, 4, 60, 52
10, 66239, Note_on_c, 4, 67, 0
10, 66239, Note_on_c, 4, 60, 0
10, 66600, Note_on_c, 4, 60, 53
10, 66704, Note_on_c, 4, 60, 0
10, 66720, Note_on_c, 4, 62, 54
10, 66824, Note_on_c, 4, 62, 0
10, 66840, Note_on_c, 4, 64, 55
10, 66944, Note_on_c, 4, 64, 0
10, 66960, Note_on_c, 4, 65, 56
10, 67064, Note_on_c, 4, 65, 0
10, 67080, Note_on_c, 4, 67, 57
10, 67169, Note_on_c, 4, 67, 0
10, 67200, Note_on_c, 4, 69, 58
10, 67304, Note_on_c, 4, 69, 0
10, 67320, Note_on_c, 4, 67, 59
10, 67424, Note_on_c, 4, 67, 0
10, 67440, Note_on_c, 4, 65, 60
10, 67544, Note_on_c, 4, 65, 0
10, 67560, Note_on_c, 4, 64, 61
10, 67664, Note_on_c, 4, 64, 0
10, 67680, Note_on_c, 4, 62, 62
10, 67784, Note_on_c, 4, 62, 0
10, 67800, Note_on_c, 4, 60, 63
10, 67889, Note_on_c, 4, 60, 0
10, 67920, Note_on_c, 4, 60, 64
10, 68024, Note_on_c, 4, 60, 0
10, 68040, Note_on_c, 4, 67, 65
10, 68040, Note_on_c, 4, 60, 65
10, 68159, Note_on_c, 4, 60, 0
10, 68160, Note_on_c, 4, 59, 66
10, 68279, Note_on_c, 4, 67, 0
10, 68279, Note_on_c, 4, 59, 0
10, 68280, Note_on_c, 4, 60, 67
10, 68280, Note_on_c, 4, 67, 67
10, 68384, Note_on_c, 4, 60, 0
10, 68384, Note_on_c, 4, 67, 0
10, 68400, Note_on_c, 4, 62, 52
10, 68400, Note_on_c, 4, 67, 52
10, 68489, Note_on_c, 4, 62, 0
10, 68504, Note_on_c, 4, 67, 0
10, 68520, Note_on_c, 4, 67, 52
10, 68520, Note_on_c, 4, 65, 52
10, 68609, Note_on_c, 4, 65, 0
10, 68624, Note_on_c, 4, 67, 0
10, 68640, Note_on_c, 4, 67, 52
10, 68640, Note_on_c, 4, 65, 52
10, 68759, Note_on_c, 4, 65, 0
10, 68760, Note_on_c, 4, 64, 52
10, 68864, Note_on_c, 4, 64, 0
10, 68879, Note_on_c, 4, 67, 0
10, 68880, Note_on_c, 4, 64, 52
10, 68880, Note_on_c, 4, 67, 52
10, 68969, Note_on_c, 4, 64, 0
10, 68984, Note_on_c, 4, 67, 0
10, 69000, Note_on_c, 4, 60, 52
10, 69104, Note_on_c, 4, 60, 0
10, 69120, Note_on_c, 4, 62, 52
10, 69224, Note_on_c, 4, 62, 0
10, 69240, Note_on_c, 4, 64, 52
10, 69329, Note_on_c, 4, 64, 0
10, 69360, Note_on_c, 4, 57, 48
10, 69360, Note_on_c, 4, 65, 48
10, 69719, Note_on_c, 4, 57, 0
10, 69719, Note_on_c, 4, 65, 0
10, 69720, Note_on_c, 4, 60, 48
10, 69720, Note_on_c, 4, 67, 48
10, 69839, Note_on_c, 4, 60, 0
10, 69839, Note_on_c, 4, 67, 0
10, 69840, Note_on_c, 4, 69, 48
10, 69840, Note_on_c, 4, 65, 48
10, 70064, Note_on_c, 4, 69, 0
10, 70064, Note_on_c, 4, 65, 0
10, 70080, Note_on_c, 4, 69, 48
10, 70080, Note_on_c, 4, 65, 48
10, 70439, Note_on_c, 4, 69, 0
10, 70439, Note_on_c, 4, 65, 0
10, 70440, Note_on_c, 4, 60, 48
10, 70440, Note_on_c, 4, 67, 48
10, 70559, Note_on_c, 4, 60, 0
10, 70559, Note_on_c, 4, 67, 0
10, 70560, Note_on_c, 4, 65, 48
10, 70560, Note_on_c, 4, 57, 48
10, 70784, Note_on_c, 4, 65, 0
10, 70784, Note_on_c, 4, 57, 0
10, 70800, Note_on_c, 4, 57, 68
10, 70800, Note_on_c, 4, 65, 68
10, 70800, Control_c, 4, 11, 88
10, 71039, Note_on_c, 4, 57, 0
10, 71039, Note_on_c, 4, 65, 0
10, 71040, Note_on_c, 4, 69, 68
10, 71040, Control_c, 4, 11, 88
10, 71040, Note_on_c, 4, 65, 68
10, 71080, Control_c, 4, 11, 91
10, 71120, Control_c, 4, 11, 95
10, 71160, Control_c, 4, 11, 98
10, 71200, Control_c, 4, 11, 101
10, 71240, Control_c, 4, 11, 104
10, 71280, Control_c, 4, 11, 108
10, 71320, Control_c, 4, 11, 111
10, 71360, Control_c, 4, 11, 114
10, 71399, Note_on_c, 4, 69, 0
10, 71399, Note_on_c, 4, 65, 0
10, 71400, Note_on_c, 4, 72, 68
10, 71400, Control_c, 4, 11, 117
10, 71400, Note_on_c, 4, 69, 68
10, 71440, Control_c, 4, 11, 121
10, 71480, Control_c, 4, 11, 127
10, 71504, Note_on_c, 4, 72, 0
10, 71504, Note_on_c, 4, 69, 0
10, 71520, Note_on_c, 4, 72, 52
10, 71520, Note_on_c, 4, 67, 52
10, 71624, Note_on_c, 4, 67, 0
10, 71639, Note_on_c, 4, 72, 0
10, 71640, Note_on_c, 4, 70, 52
10, 71640, Note_on_c, 4, 67, 52
10, 71744, Note_on_c, 4, 70, 0
10, 71744, Note_on_c, 4, 67, 0
10, 71760, Note_on_c, 4, 67, 52
10, 71760, Note_on_c, 4, 60, 52
10, 71999, Note_on_c, 4, 67, 0
10, 71999, Note_on_c, 4, 60, 0
10, 72360, Note_on_c, 4, 60, 53
10, 72464, Note_on_c, 4, 60, 0
10, 72480, Note_on_c, 4, 62, 54
10, 72584, Note_on_c, 4, 62, 0
10, 72600, Note_on_c, 4, 64, 55
10, 72704, Note_on_c, 4, 64, 0
10, 72720, Note_on_c, 4, 65, 56
10, 72824, Note_on_c, 4, 65, 0
10, 72840, Note_on_c, 4, 67, 57
10, 72929, Note_on_c, 4, 67, 0
10, 72960, Note_on_c, 4, 69, 58
10, 73064, Note_on_c, 4, 69, 0
10, 73080, Note_on_c, 4, 67, 59
10, 73184, Note_on_c, 4, 67, 0
10, 73200, Note_on_c, 4, 65, 60
10, 73304, Note_on_c, 4, 65, 0
10, 73320, Note_on_c, 4, 64, 61
10, 73424, Note_on_c, 4, 64, 0
10, 73440, Note_on_c, 4, 62, 62
10, 73544, Note_on_c, 4, 62, 0
10, 73560, Note_on_c, 4, 60, 63
10, 73649, Note_on_c, 4, 60, 0
10, 73680, Note_on_c, 4, 60, 64
10, 73784, Note_on_c, 4, 60, 0
10, 73800, Note_on_c, 4, 60, 65
10, 73800, Note_on_c, 4, 67, 65
10, 73919, Note_on_c, 4, 60, 0
10, 73920, Note_on_c, 4, 59, 66
10, 74039, Note_on_c, 4, 67, 0
10, 74039, Note_on_c, 4, 59, 0
10, 74040, Note_on_c, 4, 67, 67
10, 74040, Note_on_c, 4, 60, 67
10, 74144, Note_on_c, 4, 67, 0
10, 74144, Note_on_c, 4, 60, 0
10, 74160, Note_on_c, 4, 67, 52
10, 74160, Note_on_c, 4, 62, 52
10, 74249, Note_on_c, 4, 62, 0
10, 74264, Note_on_c, 4, 67, 0
10, 74280, Note_on_c, 4, 67, 52
10, 74280, Note_on_c, 4, 65, 52
10, 74369, Note_on_c, 4, 65, 0
10, 74384, Note_on_c, 4, 67, 0
10, 74400, Note_on_c, 4, 65, 52
10, 74400, Note_on_c, 4, 67, 52
10, 74519, Note_on_c, 4, 65, 0
10, 74520, Note_on_c, 4, 64, 52
10, 74624, Note_on_c, 4, 64, 0
10, 74639, Note_on_c, 4, 67, 0
10, 74640, Note_on_c, 4, 64, 52
10, 74640, Note_on_c, 4, 67, 52
10, 74729, Note_on_c, 4, 64, 0
10, 74759, Note_on_c, 4, 67, 0
10, 75240, Note_on_c, 4, 67, 52
10, 75344, Note_on_c, 4, 67, 0
10, 75360, Note_on_c, 4, 69, 52
10, 75464, Note_on_c, 4, 69, 0
10, 75480, Note_on_c, 4, 71, 52
10, 75569, Note_on_c, 4, 71, 0
10, 75600, Note_on_c, 4, 72, 52
10, 75839, Note_on_c, 4, 72, 0
10, 75960, Note_on_c, 4, 67, 52
10, 75960, Control_c, 4, 10, 50
10, 76064, Note_on_c, 4, 67, 0
10, 76080, Note_on_c, 4, 69, 52
10, 76184, Note_on_c, 4, 69, 0
10, 76200, Note_on_c, 4, 71, 52
10, 76289, Note_on_c, 4, 71, 0
10, 76320, Note_on_c, 4, 72, 52
10, 76559, Note_on_c, 4, 72, 0
10, 76560, Control_c, 4, 10, 45
10, 76680, Note_on_c, 4, 67, 52
10, 76784, Note_on_c, 4, 67, 0
10, 76800, Note_on_c, 4, 69, 52
10, 76904, Note_on_c, 4, 69, 0
10, 76920, Note_on_c, 4, 71, 52
10, 77009, Note_on_c, 4, 71, 0
10, 77040, Note_on_c, 4, 72, 52
10, 77279, Note_on_c, 4, 72, 0
10, 77280, Control_c, 4, 10, 50
10, 77400, Note_on_c, 4, 67, 52
10, 77504, Note_on_c, 4, 67, 0
10, 77520, Note_on_c, 4, 69, 52
10, 77624, Note_on_c, 4, 69, 0
10, 77640, Note_on_c, 4, 71, 52
10, 77729, Note_on_c, 4, 71, 0
10, 77760, Note_on_c, 4, 72, 52
10, 77999, Note_on_c, 4, 72, 0
10, 78720, Control_c, 4, 10, 45
10, 78840, Note_on_c, 4, 65, 61
10, 78944, Note_on_c, 4, 65, 0
10, 78960, Note_on_c, 4, 67, 62
10, 79064, Note_on_c, 4, 67, 0
10, 79080, Note_on_c, 4, 69, 64
10, 79169, Note_on_c, 4, 69, 0
10, 79200, Note_on_c, 4, 70, 65
10, 79439, Note_on_c, 4, 70, 0
10, 79440, Control_c, 4, 10, 50
10, 79560, Note_on_c, 4, 60, 69
10, 79664, Note_on_c, 4, 60, 0
10, 79680, Note_on_c, 4, 61, 70
10, 79784, Note_on_c, 4, 61, 0
10, 79800, Note_on_c, 4, 62, 72
10, 79904, Note_on_c, 4, 62, 0
10, 79920, Note_on_c, 4, 63, 73
10, 80024, Note_on_c, 4, 63, 0
10, 80040, Note_on_c, 4, 61, 74
10, 80144, Note_on_c, 4, 61, 0
10, 80158, Control_c, 4, 10, 45
10, 80160, Note_on_c, 4, 60, 76
10, 80160, Note_on_c, 4, 67, 76
10, 80504, Note_on_c, 4, 60, 0
10, 80504, Note_on_c, 4, 67, 0
10, 80520, Note_on_c, 4, 60, 76
10, 80520, Note_on_c, 4, 64, 76
10, 80624, Note_on_c, 4, 60, 0
10, 80624, Note_on_c, 4, 64, 0
10, 80640, Note_on_c, 4, 65, 76
10, 80640, Note_on_c, 4, 62, 76
10, 80744, Note_on_c, 4, 65, 0
10, 80744, Note_on_c, 4, 62, 0
10, 80760, Note_on_c, 4, 64, 76
10, 80760, Note_on_c, 4, 67, 76
10, 80864, Note_on_c, 4, 64, 0
10, 80864, Note_on_c, 4, 67, 0
10, 80878, Control_c, 4, 11, 88
10, 80880, Note_on_c, 4, 69, 68
10, 80880, Note_on_c, 4, 65, 68
10, 81239, Note_on_c, 4, 69, 0
10, 81239, Note_on_c, 4, 65, 0
10, 81240, Control_c, 4, 11, 88
10, 81240, Note_on_c, 4, 67, 68
10, 81240, Note_on_c, 4, 70, 68
10, 81330, Control_c, 4, 11, 91
10, 81359, Note_on_c, 4, 67, 0
10, 81359, Note_on_c, 4, 70, 0
10, 81360, Note_on_c, 4, 72, 68
10, 81360, Note_on_c, 4, 69, 68
10, 81420, Control_c, 4, 11, 95
10, 81510, Control_c, 4, 11, 98
10, 81584, Note_on_c, 4, 72, 0
10, 81584, Note_on_c, 4, 69, 0
10, 81600, Control_c, 4, 11, 101
10, 81600, Note_on_c, 4, 72, 68
10, 81600, Note_on_c, 4, 69, 68
10, 81690, Control_c, 4, 11, 104
10, 81780, Control_c, 4, 11, 108
10, 81839, Note_on_c, 4, 72, 0
10, 81839, Note_on_c, 4, 69, 0
10, 81840, Note_on_c, 4, 74, 68
10, 81840, Note_on_c, 4, 70, 68
10, 81870, Control_c, 4, 11, 111
10, 81960, Control_c, 4, 11, 114
10, 82050, Control_c, 4, 11, 117
10, 82079, Note_on_c, 4, 74, 0
10, 82079, Note_on_c, 4, 70, 0
10, 82080, Note_on_c, 4, 69, 68
10, 82080, Note_on_c, 4, 72, 68
10, 82140, Control_c, 4, 11, 121
10, 82199, Note_on_c, 4, 69, 0
10, 82199, Note_on_c, 4, 72, 0
10, 82200, Note_on_c, 4, 67, 68
10, 82200, Note_on_c, 4, 70, 68
10, 82230, Control_c, 4, 11, 124
10, 82304, Note_on_c, 4, 67, 0
10, 82304, Note_on_c, 4, 70, 0
10, 82320, Control_c, 4, 11, 96
10, 82320, Note_on_c, 4, 65, 68
10, 82320, Note_on_c, 4, 69, 68
10, 82799, Note_on_c, 4, 65, 0
10, 82799, Note_on_c, 4, 69, 0
10, 82800, Note_on_c, 4, 60, 68
10, 82800, Note_on_c, 4, 67, 68
10, 83024, Note_on_c, 4, 60, 0
10, 83024, Note_on_c, 4, 67, 0
10, 83040, Note_on_c, 4, 57, 68
10, 83040, Note_on_c, 4, 65, 68
10, 83040, Control_c, 4, 11, 96
10, 83160, Control_c, 4, 11, 99
10, 83279, Note_on_c, 4, 57, 0
10, 83279, Note_on_c, 4, 65, 0
10, 83280, Note_on_c, 4, 69, 68
10, 83280, Control_c, 4, 11, 101
10, 83280, Note_on_c, 4, 65, 68
10, 83400, Control_c, 4, 11, 104
10, 83504, Note_on_c, 4, 69, 0
10, 83504, Note_on_c, 4, 65, 0
10, 83520, Note_on_c, 4, 69, 68
10, 83520, Control_c, 4, 11, 106
10, 83520, Note_on_c, 4, 65, 68
10, 83640, Control_c, 4, 11, 109
10, 83744, Note_on_c, 4, 69, 0
10, 83744, Note_on_c, 4, 65, 0
10, 83760, Note_on_c, 4, 69, 68
10, 83760, Note_on_c, 4, 65, 68
10, 83760, Control_c, 4, 11, 112
10, 83880, Control_c, 4, 11, 114
10, 83999, Note_on_c, 4, 69, 0
10, 83999, Note_on_c, 4, 65, 0
10, 84000, Control_c, 4, 11, 117
10, 84000, Note_on_c, 4, 72, 68
10, 84000, Note_on_c, 4, 69, 68
10, 84120, Control_c, 4, 11, 119
10, 84224, Note_on_c, 4, 72, 0
10, 84224, Note_on_c, 4, 69, 0
10, 84240, Note_on_c, 4, 72, 68
10, 84240, Note_on_c, 4, 69, 68
10, 84240, Control_c, 4, 11, 122
10, 84360, Control_c, 4, 11, 124
10, 84464, Note_on_c, 4, 72, 0
10, 84464, Note_on_c, 4, 69, 0
10, 84478, Control_c, 4, 11, 127
10, 84480, Note_on_c, 4, 69, 52
10, 84480, Note_on_c, 4, 72, 52
10, 84959, Note_on_c, 4, 69, 0
10, 84959, Note_on_c, 4, 72, 0
10, 84960, Note_on_c, 4, 65, 52
10, 84960, Note_on_c, 4, 69, 52
10, 85184, Note_on_c, 4, 65, 0
10, 85184, Note_on_c, 4, 69, 0
10, 85200, Note_on_c, 4, 67, 52
10, 85200, Note_on_c, 4, 70, 52
10, 85544, Note_on_c, 4, 67, 0
10, 85544, Note_on_c, 4, 70, 0
10, 85560, Note_on_c, 4, 60, 52
10, 85560, Note_on_c, 4, 48, 52
10, 85664, Note_on_c, 4, 60, 0
10, 85664, Note_on_c, 4, 48, 0
10, 85680, Note_on_c, 4, 60, 52
10, 85680, Note_on_c, 4, 62, 52
10, 85784, Note_on_c, 4, 60, 0
10, 85784, Note_on_c, 4, 62, 0
10, 85800, Note_on_c, 4, 58, 52
10, 85800, Note_on_c, 4, 64, 52
10, 85904, Note_on_c, 4, 58, 0
10, 85904, Note_on_c, 4, 64, 0
10, 85920, Note_on_c, 4, 65, 52
10, 85920, Note_on_c, 4, 57, 52
10, 86039, Note_on_c, 4, 65, 0
10, 86039, Note_on_c, 4, 57, 0
10, 86040, Note_on_c, 4, 65, 52
10, 86040, Note_on_c, 4, 69, 52
10, 86144, Note_on_c, 4, 65, 0
10, 86144, Note_on_c, 4, 69, 0
10, 86160, Note_on_c, 4, 69, 53
10, 86160, Note_on_c, 4, 65, 53
10, 86249, Note_on_c, 4, 69, 0
10, 86249, Note_on_c, 4, 65, 0
10, 86280, Note_on_c, 4, 69, 54
10, 86280, Note_on_c, 4, 65, 54
10, 86369, Note_on_c, 4, 69, 0
10, 86369, Note_on_c, 4, 65, 0
10, 86400, Note_on_c, 4, 69, 56
10, 86400, Note_on_c, 4, 65, 56
10, 86489, Note_on_c, 4, 69, 0
10, 86489, Note_on_c, 4, 65, 0
10, 86520, Note_on_c, 4, 69, 57
10, 86520, Note_on_c, 4, 65, 57
10, 86609, Note_on_c, 4, 69, 0
10, 86609, Note_on_c, 4, 65, 0
10, 86640, Note_on_c, 4, 69, 59
10, 86640, Note_on_c, 4, 65, 59
10, 86759, Note_on_c, 4, 69, 0
10, 86759, Note_on_c, 4, 65, 0
10, 86760, Note_on_c, 4, 72, 60
10, 86760, Note_on_c, 4, 69, 60
10, 86864, Note_on_c, 4, 72, 0
10, 86864, Note_on_c, 4, 69, 0
10, 86880, Note_on_c, 4, 72, 62
10, 86880, Note_on_c, 4, 69, 62
10, 86969, Note_on_c, 4, 72, 0
10, 86969, Note_on_c, 4, 69, 0
10, 87000, Note_on_c, 4, 72, 63
10, 87000, Note_on_c, 4, 69, 63
10, 87089, Note_on_c, 4, 72, 0
10, 87089, Note_on_c, 4, 69, 0
10, 87120, Note_on_c, 4, 72, 65
10, 87120, Note_on_c, 4, 69, 65
10, 87209, Note_on_c, 4, 72, 0
10, 87209, Note_on_c, 4, 69, 0
10, 87240, Note_on_c, 4, 72, 66
10, 87240, Note_on_c, 4, 69, 66
10, 87329, Note_on_c, 4, 72, 0
10, 87329, Note_on_c, 4, 69, 0
10, 87360, Note_on_c, 4, 69, 52
10, 87360, Note_on_c, 4, 72, 52
10, 87839, Note_on_c, 4, 69, 0
10, 87839, Note_on_c, 4, 72, 0
10, 87840, Note_on_c, 4, 65, 52
10, 87840, Note_on_c, 4, 69, 52
10, 88064, Note_on_c, 4, 65, 0
10, 88064, Note_on_c, 4, 69, 0
10, 88080, Note_on_c, 4, 67, 52
10, 88080, Note_on_c, 4, 70, 52
10, 88439, Note_on_c, 4, 67, 0
10, 88439, Note_on_c, 4, 70, 0
10, 88440, Note_on_c, 4, 60, 52
10, 88544, Note_on_c, 4, 60, 0
10, 88560, Note_on_c, 4, 62, 52
10, 88664, Note_on_c, 4, 62, 0
10, 88680, Note_on_c, 4, 64, 52
10, 88769, Note_on_c, 4, 64, 0
10, 88800, Note_on_c, 4, 65, 52
10, 89040, Control_c, 4, 11, 112
10, 89159, Note_on_c, 4, 65, 0
10, 89160, Note_on_c, 4, 72, 68
10, 89220, Control_c, 4, 11, 114
10, 89264, Note_on_c, 4, 72, 0
10, 89280, Note_on_c, 4, 70, 68
10, 89280, Control_c, 4, 11, 117
10, 89340, Control_c, 4, 11, 119
10, 89384, Note_on_c, 4, 70, 0
10, 89400, Note_on_c, 4, 69, 68
10, 89400, Control_c, 4, 11, 122
10, 89460, Control_c, 4, 11, 124
10, 89489, Note_on_c, 4, 69, 0
10, 89520, Control_c, 4, 11, 96
10, 89520, Note_on_c, 4, 67, 68
10, 89879, Note_on_c, 4, 67, 0
10, 89880, Note_on_c, 4, 60, 68
10, 89984, Note_on_c, 4, 60, 0
10, 90000, Note_on_c, 4, 62, 68
10, 90104, Note_on_c, 4, 62, 0
10, 90120, Note_on_c, 4, 64, 68
10, 90209, Note_on_c, 4, 64, 0
10, 90240, Note_on_c, 4, 65, 68
10, 90599, Note_on_c, 4, 65, 0
10, 90600, Note_on_c, 4, 72, 68
10, 90600, Control_c, 4, 11, 112
10, 90660, Control_c, 4, 11, 114
10, 90704, Note_on_c, 4, 72, 0
10, 90720, Note_on_c, 4, 70, 68
10, 90720, Control_c, 4, 11, 117
10, 90780, Control_c, 4, 11, 119
10, 90824, Note_on_c, 4, 70, 0
10, 90840, Note_on_c, 4, 69, 68
10, 90840, Control_c, 4, 11, 122
10, 90900, Control_c, 4, 11, 124
10, 90929, Note_on_c, 4, 69, 0
10, 90960, Note_on_c, 4, 69, 52
10, 90960, Control_c, 4, 11, 127
10, 91319, Note_on_c, 4, 69, 0
10, 91320, Note_on_c, 4, 69, 52
10, 91320, Note_on_c, 4, 65, 52
10, 91424, Note_on_c, 4, 69, 0
10, 91424, Note_on_c, 4, 65, 0
10, 91440, Note_on_c, 4, 60, 51
10, 91440, Note_on_c, 4, 67, 51
10, 91544, Note_on_c, 4, 60, 0
10, 91544, Note_on_c, 4, 67, 0
10, 91560, Note_on_c, 4, 65, 50
10, 91560, Note_on_c, 4, 57, 50
10, 91649, Note_on_c, 4, 65, 0
10, 91649, Note_on_c, 4, 57, 0
10, 91680, Note_on_c, 4, 57, 49
10, 91680, Note_on_c, 4, 65, 49
10, 91799, Note_on_c, 4, 57, 0
10, 91799, Note_on_c, 4, 65, 0
10, 91800, Note_on_c, 4, 57, 48
10, 91800, Note_on_c, 4, 60, 48
10, 91904, Note_on_c, 4, 57, 0
10, 91904, Note_on_c, 4, 60, 0
10, 91920, Note_on_c, 4, 60, 48
10, 91920, Note_on_c, 4, 57, 48
10, 92009, Note_on_c, 4, 60, 0
10, 92009, Note_on_c, 4, 57, 0
10, 92040, Note_on_c, 4, 69, 47
10, 92040, Note_on_c, 4, 65, 47
10, 92144, Note_on_c, 4, 69, 0
10, 92144, Note_on_c, 4, 65, 0
10, 92160, Note_on_c, 4, 67, 46
10, 92160, Note_on_c, 4, 60, 46
10, 92264, Note_on_c, 4, 67, 0
10, 92264, Note_on_c, 4, 60, 0
10, 92280, Note_on_c, 4, 65, 45
10, 92280, Note_on_c, 4, 57, 45
10, 92369, Note_on_c, 4, 65, 0
10, 92369, Note_on_c, 4, 57, 0
10, 92400, Note_on_c, 4, 57, 44
10, 92400, Note_on_c, 4, 65, 44
10, 92519, Note_on_c, 4, 57, 0
10, 92519, Note_on_c, 4, 65, 0
10, 92520, Note_on_c, 4, 57, 44
10, 92520, Note_on_c, 4, 60, 44
10, 92624, Note_on_c, 4, 57, 0
10, 92624, Note_on_c, 4, 60, 0
10, 92640, Note_on_c, 4, 57, 44
10, 92640, Note_on_c, 4, 60, 44
10, 92729, Note_on_c, 4, 57, 0
10, 92729, Note_on_c, 4, 60, 0
10, 92760, Note_on_c, 4, 57, 44
10, 92760, Note_on_c, 4, 60, 44
10, 92849, Note_on_c, 4, 57, 0
10, 92849, Note_on_c, 4, 60, 0
10, 92880, Note_on_c, 4, 60, 44
10, 92880, Note_on_c, 4, 65, 44
10, 92969, Note_on_c, 4, 60, 0
10, 92969, Note_on_c, 4, 65, 0
10, 93000, Note_on_c, 4, 65, 44
10, 93000, Note_on_c, 4, 69, 44
10, 93089, Note_on_c, 4, 65, 0
10, 93089, Note_on_c, 4, 69, 0
10, 93120, Note_on_c, 4, 69, 44
10, 93120, Note_on_c, 4, 72, 44
10, 93239, Note_on_c, 4, 69, 0
10, 93239, Note_on_c, 4, 72, 0
10, 93240, Note_on_c, 4, 65, 44
10, 93240, Note_on_c, 4, 69, 44
10, 93344, Note_on_c, 4, 65, 0
10, 93344, Note_on_c, 4, 69, 0
10, 93360, Note_on_c, 4, 57, 44
10, 93360, Note_on_c, 4, 65, 44
10, 93479, Note_on_c, 4, 57, 0
10, 93479, Note_on_c, 4, 65, 0
10, 95040, Note_on_c, 4, 60, 52
10, 95040, Note_on_c, 4, 48, 52
10, 95159, Note_on_c, 4, 60, 0
10, 95159, Note_on_c, 4, 48, 0
10, 95220, Control_c, 4, 11, 80
10, 95280, Note_on_c, 4, 48, 76
10, 95280, Note_on_c, 4, 60, 76
10, 96464, Note_on_c, 4, 48, 0
10, 96464, Note_on_c, 4, 60, 0
10, 96480, Control_c, 4, 11, 80
10, 96480, Note_on_c, 4, 60, 76
10, 96480, Note_on_c, 4, 48, 76
10, 96540, Control_c, 4, 11, 82
10, 96600, Control_c, 4, 11, 84
10, 96660, Control_c, 4, 11, 86
10, 96720, Control_c, 4, 11, 88
10, 96780, Control_c, 4, 11, 90
10, 96840, Control_c, 4, 11, 92
10, 96900, Control_c, 4, 11, 94
10, 96960, Control_c, 4, 11, 96
10, 97020, Control_c, 4, 11, 98
10, 97080, Control_c, 4, 11, 100
10, 97140, Control_c, 4, 11, 102
10, 97200, Control_c, 4, 11, 104
10, 97260, Control_c, 4, 11, 105
10, 97320, Control_c, 4, 11, 107
10, 97380, Control_c, 4, 11, 109
10, 97440, Control_c, 4, 11, 111
10, 97500, Control_c, 4, 11, 113
10, 97560, Control_c, 4, 11, 115
10, 97620, Control_c, 4, 11, 117
10, 97680, Control_c, 4, 11, 119
10, 97740, Control_c, 4, 11, 121
10, 97800, Control_c, 4, 11, 123
10, 97860, Control_c, 4, 11, 127
10, 97904, Note_on_c, 4, 60, 0
10, 97904, Note_on_c, 4, 48, 0
10, 97920, Note_on_c, 4, 48, 76
10, 97920, Note_on_c, 4, 60, 76
10, 98039, Note_on_c, 4, 48, 0
10, 98039, Note_on_c, 4, 60, 0
10, 98160, Note_on_c, 4, 60, 84
10, 98160, Note_on_c, 4, 48, 84
10, 98220, Control_c, 4, 11, 112
10, 98624, Note_on_c, 4, 60, 0
10, 98624, Note_on_c, 4, 48, 0
10, 98640, Note_on_c, 4, 48, 84
10, 98640, Note_on_c, 4, 60, 84
10, 98759, Note_on_c, 4, 48, 0
10, 98759, Note_on_c, 4, 60, 0
10, 98878, Control_c, 4, 11, 127
10, 98880, Note_on_c, 4, 53, 84
10, 98880, Note_on_c, 4, 65, 84
10, 98940, Control_c, 4, 11, 112
10, 99359, Note_on_c, 4, 53, 0
10, 99359, Note_on_c, 4, 65, 0
10, 99480, Control_c, 4, 11, 127
10, 102240, Note_on_c, 4, 48, 52
10, 102240, Note_on_c, 4, 60, 52
10, 102359, Note_on_c, 4, 48, 0
10, 102359, Note_on_c, 4, 60, 0
10, 102420, Control_c, 4, 11, 80
10, 102480, Note_on_c, 4, 48, 76
10, 102480, Note_on_c, 4, 60, 76
10, 103664, Note_on_c, 4, 48, 0
10, 103664, Note_on_c, 4, 60, 0
10, 103680, Control_c, 4, 11, 80
10, 103680, Note_on_c, 4, 48, 76
10, 103680, Note_on_c, 4, 60, 76
10, 103740, Control_c, 4, 11, 82
10, 103800, Control_c, 4, 11, 84
10, 103860, Control_c, 4, 11, 86
10, 103920, Control_c, 4, 11, 88
10, 103980, Control_c, 4, 11, 90
10, 104040, Control_c, 4, 11, 92
10, 104100, Control_c, 4, 11, 94
10, 104160, Control_c, 4, 11, 96
10, 104220, Control_c, 4, 11, 98
10, 104280, Control_c, 4, 11, 100
10, 104340, Control_c, 4, 11, 102
10, 104400, Control_c, 4, 11, 104
10, 104460, Control_c, 4, 11, 105
10, 104520, Control_c, 4, 11, 107
10, 104580, Control_c, 4, 11, 109
10, 104640, Control_c, 4, 11, 111
10, 104700, Control_c, 4, 11, 113
10, 104760, Control_c, 4, 11, 115
10, 104820, Control_c, 4, 11, 117
10, 104880, Control_c, 4, 11, 119
10, 104940, Control_c, 4, 11, 121
10, 105000, Control_c, 4, 11, 123
10, 105060, Control_c, 4, 11, 127
10, 105104, Note_on_c, 4, 48, 0
10, 105104, Note_on_c, 4, 60, 0
10, 105120, Note_on_c, 4, 48, 76
10, 105120, Note_on_c, 4, 60, 76
10, 105239, Note_on_c, 4, 48, 0
10, 105239, Note_on_c, 4, 60, 0
10, 105360, Note_on_c, 4, 60, 84
10, 105360, Note_on_c, 4, 48, 84
10, 105420, Control_c, 4, 11, 112
10, 105824, Note_on_c, 4, 60, 0
10, 105824, Note_on_c, 4, 48, 0
10, 105840, Note_on_c, 4, 48, 84
10, 105840, Note_on_c, 4, 60, 84
10, 105959, Note_on_c, 4, 48, 0
10, 105959, Note_on_c, 4, 60, 0
10, 106078, Control_c, 4, 11, 127
10, 106080, Note_on_c, 4, 53, 84
10, 106080, Note_on_c, 4, 65, 84
10, 106140, Control_c, 4, 11, 112
10, 106559, Note_on_c, 4, 53, 0
10, 106559, Note_on_c, 4, 65, 0
10, 106680, Control_c, 4, 11, 127
10, 108480, Note_on_c, 4, 67, 84
10, 108599, Note_on_c, 4, 67, 0
10, 109200, Note_on_c, 4, 67, 84
10, 109319, Note_on_c, 4, 67, 0
10, 109920, Note_on_c, 4, 67, 84
10, 110039, Note_on_c, 4, 67, 0
10, 110640, Note_on_c, 4, 67, 84
10, 110759, Note_on_c, 4, 67, 0
10, 110880, Note_on_c, 4, 67, 76
10, 110999, Note_on_c, 4, 67, 0
10, 111120, Note_on_c, 4, 67, 84
10, 111239, Note_on_c, 4, 67, 0
10, 111360, Note_on_c, 4, 67, 76
10, 111479, Note_on_c, 4, 67, 0
10, 111840, Note_on_c, 4, 67, 84
10, 111959, Note_on_c, 4, 67, 0
10, 112080, Note_on_c, 4, 67, 76
10, 112199, Note_on_c, 4, 67, 0
10, 112560, Note_on_c, 4, 67, 84
10, 112560, Note_on_c, 4, 60, 84
10, 112679, Note_on_c, 4, 67, 0
10, 112679, Note_on_c, 4, 60, 0
10, 112800, Note_on_c, 4, 60, 76
10, 112800, Note_on_c, 4, 67, 76
10, 112919, Note_on_c, 4, 60, 0
10, 112919, Note_on_c, 4, 67, 0
10, 113280, Note_on_c, 4, 65, 84
10, 113280, Note_on_c, 4, 69, 84
10, 113399, Note_on_c, 4, 65, 0
10, 113399, Note_on_c, 4, 69, 0
10, 113520, Note_on_c, 4, 69, 76
10, 113520, Note_on_c, 4, 65, 76
10, 113639, Note_on_c, 4, 69, 0
10, 113639, Note_on_c, 4, 65, 0
10, 113760, Note_on_c, 4, 60, 76
10, 113760, Note_on_c, 4, 48, 76
10, 113879, Note_on_c, 4, 60, 0
10, 113879, Note_on_c, 4, 48, 0
10, 114000, Note_on_c, 4, 53, 76
10, 114000, Note_on_c, 4, 65, 76
10, 114060, Control_c, 4, 11, 80
10, 115184, Note_on_c, 4, 53, 0
10, 115184, Note_on_c, 4, 65, 0
10, 115200, Control_c, 4, 11, 127
10, 115200, Note_on_c, 4, 53, 52
10, 115200, Note_on_c, 4, 65, 52
10, 115320, Control_c, 4, 11, 126
10, 115440, Control_c, 4, 11, 125
10, 115560, Control_c, 4, 11, 123
10, 115680, Control_c, 4, 11, 122
10, 115800, Control_c, 4, 11, 121
10, 115904, Note_on_c, 4, 53, 0
10, 115904, Note_on_c, 4, 65, 0
10, 115920, Note_on_c, 4, 65, 52
10, 115920, Note_on_c, 4, 53, 52
10, 115920, Control_c, 4, 11, 120
10, 116040, Control_c, 4, 11, 118
10, 116160, Control_c, 4, 11, 117
10, 116280, Control_c, 4, 11, 116
10, 116400, Control_c, 4, 11, 115
10, 116520, Control_c, 4, 11, 113
10, 116639, Note_on_c, 4, 65, 0
10, 116639, Note_on_c, 4, 53, 0
10, 116760, Control_c, 4, 11, 127
10, 116880, Note_on_c, 4, 53, 44
10, 116880, Note_on_c, 4, 65, 44
10, 116999, Note_on_c, 4, 53, 0
10, 116999, Note_on_c, 4, 65, 0
10, 117360, Note_on_c, 4, 53, 44
10, 117360, Note_on_c, 4, 65, 44
10, 117479, Note_on_c, 4, 53, 0
10, 117479, Note_on_c, 4, 65, 0
10, 117840, Note_on_c, 4, 53, 44
10, 117840, Note_on_c, 4, 65, 44
10, 117959, Note_on_c, 4, 53, 0
10, 117959, Note_on_c, 4, 65, 0
10, 120720, Control_c, 4, 11, 64
10, 120960, Control_c, 4, 11, 64
10, 120960, Note_on_c, 4, 69, 76
10, 120960, Note_on_c, 4, 57, 76
10, 121008, Control_c, 4, 11, 65
10, 121055, Control_c, 4, 11, 67
10, 121079, Note_on_c, 4, 69, 0
10, 121079, Note_on_c, 4, 57, 0
10, 121103, Control_c, 4, 11, 68
10, 121150, Control_c, 4, 11, 69
10, 121198, Control_c, 4, 11, 71
10, 121200, Note_on_c, 4, 60, 76
10, 121200, Note_on_c, 4, 48, 76
10, 121245, Control_c, 4, 11, 72
10, 121293, Control_c, 4, 11, 73
10, 121304, Note_on_c, 4, 60, 0
10, 121304, Note_on_c, 4, 48, 0
10, 121320, Note_on_c, 4, 60, 76
10, 121320, Note_on_c, 4, 48, 76
10, 121340, Control_c, 4, 11, 75
10, 121388, Control_c, 4, 11, 76
10, 121435, Control_c, 4, 11, 77
10, 121483, Control_c, 4, 11, 78
10, 121530, Control_c, 4, 11, 80
10, 121544, Note_on_c, 4, 60, 0
10, 121544, Note_on_c, 4, 48, 0
10, 121560, Note_on_c, 4, 60, 76
10, 121560, Note_on_c, 4, 48, 76
10, 121578, Control_c, 4, 11, 81
10, 121625, Control_c, 4, 11, 82
10, 121673, Control_c, 4, 11, 84
10, 121720, Control_c, 4, 11, 85
10, 121768, Control_c, 4, 11, 86
10, 121784, Note_on_c, 4, 60, 0
10, 121784, Note_on_c, 4, 48, 0
10, 121800, Note_on_c, 4, 48, 76
10, 121800, Note_on_c, 4, 60, 76
10, 121815, Control_c, 4, 11, 88
10, 121863, Control_c, 4, 11, 89
10, 121910, Control_c, 4, 11, 90
10, 121958, Control_c, 4, 11, 92
10, 122005, Control_c, 4, 11, 93
10, 122024, Note_on_c, 4, 48, 0
10, 122024, Note_on_c, 4, 60, 0
10, 122040, Note_on_c, 4, 48, 76
10, 122040, Note_on_c, 4, 60, 76
10, 122053, Control_c, 4, 11, 94
10, 122100, Control_c, 4, 11, 96
10, 122148, Control_c, 4, 11, 97
10, 122195, Control_c, 4, 11, 98
10, 122243, Control_c, 4, 11, 99
10, 122264, Note_on_c, 4, 48, 0
10, 122264, Note_on_c, 4, 60, 0
10, 122280, Note_on_c, 4, 60, 76
10, 122280, Note_on_c, 4, 48, 76
10, 122290, Control_c, 4, 11, 101
10, 122338, Control_c, 4, 11, 102
10, 122385, Control_c, 4, 11, 103
10, 122433, Control_c, 4, 11, 105
10, 122480, Control_c, 4, 11, 106
10, 122504, Note_on_c, 4, 60, 0
10, 122504, Note_on_c, 4, 48, 0
10, 122520, Note_on_c, 4, 48, 76
10, 122520, Note_on_c, 4, 60, 76
10, 122528, Control_c, 4, 11, 107
10, 122575, Control_c, 4, 11, 109
10, 122623, Control_c, 4, 11, 110
10, 122670, Control_c, 4, 11, 111
10, 122718, Control_c, 4, 11, 113
10, 122744, Note_on_c, 4, 48, 0
10, 122744, Note_on_c, 4, 60, 0
10, 122760, Note_on_c, 4, 60, 76
10, 122760, Note_on_c, 4, 48, 76
10, 122765, Control_c, 4, 11, 114
10, 122813, Control_c, 4, 11, 115
10, 122860, Control_c, 4, 11, 117
10, 122908, Control_c, 4, 11, 118
10, 122955, Control_c, 4, 11, 119
10, 122984, Note_on_c, 4, 60, 0
10, 122984, Note_on_c, 4, 48, 0
10, 123000, Note_on_c, 4, 48, 76
10, 123000, Note_on_c, 4, 60, 76
10, 123003, Control_c, 4, 11, 120
10, 123050, Control_c, 4, 11, 122
10, 123098, Control_c, 4, 11, 123
10, 123145, Control_c, 4, 11, 124
10, 123193, Control_c, 4, 11, 127
10, 123224, Note_on_c, 4, 48, 0
10, 123224, Note_on_c, 4, 60, 0
10, 123240, Note_on_c, 4, 60, 76
10, 123240, Note_on_c, 4, 48, 76
10, 123464, Note_on_c, 4, 60, 0
10, 123464, Note_on_c, 4, 48, 0
10, 123480, Note_on_c, 4, 48, 76
10, 123480, Note_on_c, 4, 60, 76
10, 123704, Note_on_c, 4, 48, 0
10, 123704, Note_on_c, 4, 60, 0
10, 123720, Note_on_c, 4, 60, 76
10, 123720, Note_on_c, 4, 48, 76
10, 123944, Note_on_c, 4, 60, 0
10, 123944, Note_on_c, 4, 48, 0
10, 123960, Note_on_c, 4, 48, 76
10, 123960, Note_on_c, 4, 60, 76
10, 124184, Note_on_c, 4, 48, 0
10, 124184, Note_on_c, 4, 60, 0
10, 124200, Note_on_c, 4, 60, 76
10, 124200, Note_on_c, 4, 48, 76
10, 124319, Note_on_c, 4, 60, 0
10, 124319, Note_on_c, 4, 48, 0
10, 124320, Note_on_c, 4, 65, 76
10, 124320, Note_on_c, 4, 53, 76
10, 124424, Note_on_c, 4, 65, 0
10, 124424, Note_on_c, 4, 53, 0
10, 124440, Note_on_c, 4, 65, 76
10, 124440, Note_on_c, 4, 53, 76
10, 124664, Note_on_c, 4, 65, 0
10, 124664, Note_on_c, 4, 53, 0
10, 124680, Note_on_c, 4, 53, 76
10, 124680, Note_on_c, 4, 65, 76
10, 124904, Note_on_c, 4, 53, 0
10, 124904, Note_on_c, 4, 65, 0
10, 124920, Note_on_c, 4, 65, 76
10, 124920, Note_on_c, 4, 53, 76
10, 125159, Note_on_c, 4, 65, 0
10, 125159, Note_on_c, 4, 53, 0
10, 126720, Note_on_c, 4, 60, 84
10, 126839, Note_on_c, 4, 60, 0
10, 126960, Note_on_c, 4, 65, 92
10, 127289, Note_on_c, 4, 65, 0
10, 127320, Note_on_c, 4, 60, 84
10, 127409, Note_on_c, 4, 60, 0
10, 127440, Note_on_c, 4, 57, 84
10, 127529, Note_on_c, 4, 57, 0
10, 127560, Note_on_c, 4, 53, 84
10, 127649, Note_on_c, 4, 53, 0
10, 127680, Note_on_c, 4, 48, 84
10, 127680, Note_on_c, 4, 60, 84
10, 127919, Note_on_c, 4, 48, 0
10, 127919, Note_on_c, 4, 60, 0
10, 128160, Note_on_c, 4, 60, 84
10, 128279, Note_on_c, 4, 60, 0
10, 128400, Note_on_c, 4, 65, 92
10, 128729, Note_on_c, 4, 65, 0
10, 128760, Note_on_c, 4, 60, 84
10, 128849, Note_on_c, 4, 60, 0
10, 128880, Note_on_c, 4, 57, 84
10, 128969, Note_on_c, 4, 57, 0
10, 129000, Note_on_c, 4, 53, 84
10, 129089, Note_on_c, 4, 53, 0
10, 129120, Note_on_c, 4, 60, 84
10, 129120, Note_on_c, 4, 48, 84
10, 129239, Note_on_c, 4, 60, 0
10, 129239, Note_on_c, 4, 48, 0
10, 129600, Note_on_c, 4, 60, 92
10, 129600, Note_on_c, 4, 67, 92
10, 129839, Note_on_c, 4, 60, 0
10, 129839, Note_on_c, 4, 67, 0
10, 129840, Note_on_c, 4, 65, 84
10, 129840, Note_on_c, 4, 69, 84
10, 129959, Note_on_c, 4, 65, 0
10, 129959, Note_on_c, 4, 69, 0
10, 130560, Note_on_c, 4, 67, 92
10, 130560, Note_on_c, 4, 60, 92
10, 130799, Note_on_c, 4, 67, 0
10, 130799, Note_on_c, 4, 60, 0
10, 130800, Note_on_c, 4, 69, 84
10, 130800, Note_on_c, 4, 65, 84
10, 130919, Note_on_c, 4, 69, 0
10, 130919, Note_on_c, 4, 65, 0
10, 132000, Note_on_c, 4, 48, 76
10, 132000, Note_on_c, 4, 60, 76
10, 132239, Note_on_c, 4, 48, 0
10, 132239, Note_on_c, 4, 60, 0
10, 132240, Note_on_c, 4, 53, 76
10, 132240, Note_on_c, 4, 65, 76
10, 132359, Note_on_c, 4, 53, 0
10, 132359, Note_on_c, 4, 65, 0
10, 132960, Note_on_c, 4, 67, 84
10, 133079, Note_on_c, 4, 67, 0
10, 133680, Note_on_c, 4, 67, 84
10, 133799, Note_on_c, 4, 67, 0
10, 134400, Note_on_c, 4, 67, 84
10, 134519, Note_on_c, 4, 67, 0
10, 135120, Note_on_c, 4, 67, 84
10, 135239, Note_on_c, 4, 67, 0
10, 135360, Note_on_c, 4, 67, 76
10, 135479, Note_on_c, 4, 67, 0
10, 135600, Note_on_c, 4, 67, 84
10, 135719, Note_on_c, 4, 67, 0
10, 135840, Note_on_c, 4, 67, 76
10, 135959, Note_on_c, 4, 67, 0
10, 136320, Note_on_c, 4, 67, 84
10, 136439, Note_on_c, 4, 67, 0
10, 136560, Note_on_c, 4, 67, 76
10, 136679, Note_on_c, 4, 67, 0
10, 137040, Note_on_c, 4, 60, 84
10, 137040, Note_on_c, 4, 67, 84
10, 137159, Note_on_c, 4, 60, 0
10, 137159, Note_on_c, 4, 67, 0
10, 137280, Note_on_c, 4, 60, 76
10, 137280, Note_on_c, 4, 67, 76
10, 137399, Note_on_c, 4, 60, 0
10, 137399, Note_on_c, 4, 67, 0
10, 137760, Note_on_c, 4, 69, 84
10, 137760, Note_on_c, 4, 65, 84
10, 137879, Note_on_c, 4, 69, 0
10, 137879, Note_on_c, 4, 65, 0
10, 138000, Note_on_c, 4, 69, 76
10, 138000, Note_on_c, 4, 65, 76
10, 138119, Note_on_c, 4, 69, 0
10, 138119, Note_on_c, 4, 65, 0
10, 138240, Note_on_c, 4, 60, 76
10, 138240, Note_on_c, 4, 48, 76
10, 138359, Note_on_c, 4, 60, 0
10, 138359, Note_on_c, 4, 48, 0
10, 138480, Note_on_c, 4, 65, 76
10, 138480, Note_on_c, 4, 53, 76
10, 138540, Control_c, 4, 11, 80
10, 139664, Note_on_c, 4, 65, 0
10, 139664, Note_on_c, 4, 53, 0
10, 139680, Note_on_c, 4, 53, 52
10, 139680, Note_on_c, 4, 65, 52
10, 139680, Control_c, 4, 11, 127
10, 139800, Control_c, 4, 11, 126
10, 139920, Control_c, 4, 11, 125
10, 140040, Control_c, 4, 11, 123
10, 140160, Control_c, 4, 11, 122
10, 140280, Control_c, 4, 11, 121
10, 140384, Note_on_c, 4, 53, 0
10, 140384, Note_on_c, 4, 65, 0
10, 140400, Control_c, 4, 11, 120
10, 140400, Note_on_c, 4, 53, 52
10, 140400, Note_on_c, 4, 65, 52
10, 140520, Control_c, 4, 11, 118
10, 140640, Control_c, 4, 11, 117
10, 140760, Control_c, 4, 11, 116
10, 140880, Control_c, 4, 11, 115
10, 141000, Control_c, 4, 11, 113
10, 141119, Note_on_c, 4, 53, 0
10, 141119, Note_on_c, 4, 65, 0
10, 141240, Control_c, 4, 11, 127
10, 141360, Note_on_c, 4, 53, 44
10, 141360, Note_on_c, 4, 65, 44
10, 141479, Note_on_c, 4, 53, 0
10, 141479, Note_on_c, 4, 65, 0
10, 141840, Note_on_c, 4, 53, 44
10, 141840, Note_on_c, 4, 65, 44
10, 141959, Note_on_c, 4, 53, 0
10, 141959, Note_on_c, 4, 65, 0
10, 142320, Note_on_c, 4, 65, 44
10, 142320, Note_on_c, 4, 53, 44
10, 142439, Note_on_c, 4, 65, 0
10, 142439, Note_on_c, 4, 53, 0
10, 145200, Control_c, 4, 11, 64
10, 145440, Control_c, 4, 11, 64
10, 145440, Note_on_c, 4, 69, 76
10, 145440, Note_on_c, 4, 57, 76
10, 145488, Control_c, 4, 11, 65
10, 145535, Control_c, 4, 11, 67
10, 145559, Note_on_c, 4, 69, 0
10, 145559, Note_on_c, 4, 57, 0
10, 145583, Control_c, 4, 11, 68
10, 145630, Control_c, 4, 11, 69
10, 145678, Control_c, 4, 11, 71
10, 145680, Note_on_c, 4, 48, 76
10, 145680, Note_on_c, 4, 60, 76
10, 145725, Control_c, 4, 11, 72
10, 145773, Control_c, 4, 11, 73
10, 145784, Note_on_c, 4, 48, 0
10, 145784, Note_on_c, 4, 60, 0
10, 145800, Note_on_c, 4, 60, 76
10, 145800, Note_on_c, 4, 48, 76
10, 145820, Control_c, 4, 11, 75
10, 145868, Control_c, 4, 11, 76
10, 145915, Control_c, 4, 11, 77
10, 145963, Control_c, 4, 11, 78
10, 146010, Control_c, 4, 11, 80
10, 146024, Note_on_c, 4, 60, 0
10, 146024, Note_on_c, 4, 48, 0
10, 146040, Note_on_c, 4, 48, 76
10, 146040, Note_on_c, 4, 60, 76
10, 146058, Control_c, 4, 11, 81
10, 146105, Control_c, 4, 11, 82
10, 146153, Control_c, 4, 11, 84
10, 146200, Control_c, 4, 11, 85
10, 146248, Control_c, 4, 11, 86
10, 146264, Note_on_c, 4, 48, 0
10, 146264, Note_on_c, 4, 60, 0
10, 146280, Note_on_c, 4, 48, 76
10, 146280, Note_on_c, 4, 60, 76
10, 146295, Control_c, 4, 11, 88
10, 146343, Control_c, 4, 11, 89
10, 146390, Control_c, 4, 11, 90
10, 146438, Control_c, 4, 11, 92
10, 146485, Control_c, 4, 11, 93
10, 146504, Note_on_c, 4, 48, 0
10, 146504, Note_on_c, 4, 60, 0
10, 146520, Note_on_c, 4, 60, 76
10, 146520, Note_on_c, 4, 48, 76
10, 146533, Control_c, 4, 11, 94
10, 146580, Control_c, 4, 11, 96
10, 146628, Control_c, 4, 11, 97
10, 146675, Control_c, 4, 11, 98
10, 146723, Control_c, 4, 11, 99
10, 146744, Note_on_c, 4, 60, 0
10, 146744, Note_on_c, 4, 48, 0
10, 146760, Note_on_c, 4, 48, 76
10, 146760, Note_on_c, 4, 60, 76
10, 146770, Control_c, 4, 11, 101
10, 146818, Control_c, 4, 11, 102
10, 146865, Control_c, 4, 11, 103
10, 146913, Control_c, 4, 11, 105
10, 146960, Control_c, 4, 11, 106
10, 146984, Note_on_c, 4, 48, 0
10, 146984, Note_on_c, 4, 60, 0
10, 147000, Note_on_c, 4, 60, 76
10, 147000, Note_on_c, 4, 48, 76
10, 147008, Control_c, 4, 11, 107
10, 147055, Control_c, 4, 11, 109
10, 147103, Control_c, 4, 11, 110
10, 147150, Control_c, 4, 11, 111
10, 147198, Control_c, 4, 11, 113
10, 147224, Note_on_c, 4, 60, 0
10, 147224, Note_on_c, 4, 48, 0
10, 147240, Note_on_c, 4, 60, 76
10, 147240, Note_on_c, 4, 48, 76
10, 147245, Control_c, 4, 11, 114
10, 147293, Control_c, 4, 11, 115
10, 147340, Control_c, 4, 11, 117
10, 147388, Control_c, 4, 11, 118
10, 147435, Control_c, 4, 11, 119
10, 147464, Note_on_c, 4, 60, 0
10, 147464, Note_on_c, 4, 48, 0
10, 147480, Note_on_c, 4, 60, 76
10, 147480, Note_on_c, 4, 48, 76
10, 147483, Control_c, 4, 11, 120
10, 147530, Control_c, 4, 11, 122
10, 147578, Control_c, 4, 11, 123
10, 147625, Control_c, 4, 11, 124
10, 147673, Control_c, 4, 11, 127
10, 147704, Note_on_c, 4, 60, 0
10, 147704, Note_on_c, 4, 48, 0
10, 147720, Note_on_c, 4, 60, 76
10, 147720, Note_on_c, 4, 48, 76
10, 147944, Note_on_c, 4, 60, 0
10, 147944, Note_on_c, 4, 48, 0
10, 147960, Note_on_c, 4, 48, 76
10, 147960, Note_on_c, 4, 60, 76
10, 148184, Note_on_c, 4, 48, 0
10, 148184, Note_on_c, 4, 60, 0
10, 148200, Note_on_c, 4, 60, 76
10, 148200, Note_on_c, 4, 48, 76
10, 148424, Note_on_c, 4, 60, 0
10, 148424, Note_on_c, 4, 48, 0
10, 148440, Note_on_c, 4, 60, 76
10, 148440, Note_on_c, 4, 48, 76
10, 148664, Note_on_c, 4, 60, 0
10, 148664, Note_on_c, 4, 48, 0
10, 148680, Note_on_c, 4, 60, 76
10, 148680, Note_on_c, 4, 48, 76
10, 148799, Note_on_c, 4, 60, 0
10, 148799, Note_on_c, 4, 48, 0
10, 148800, Note_on_c, 4, 53, 76
10, 148800, Note_on_c, 4, 65, 76
10, 148904, Note_on_c, 4, 53, 0
10, 148904, Note_on_c, 4, 65, 0
10, 148920, Note_on_c, 4, 65, 76
10, 148920, Note_on_c, 4, 53, 76
10, 149144, Note_on_c, 4, 65, 0
10, 149144, Note_on_c, 4, 53, 0
10, 149160, Note_on_c, 4, 53, 76
10, 149160, Note_on_c, 4, 65, 76
10, 149384, Note_on_c, 4, 53, 0
10, 149384, Note_on_c, 4, 65, 0
10, 149400, Note_on_c, 4, 53, 76
10, 149400, Note_on_c, 4, 65, 76
10, 149639, Note_on_c, 4, 53, 0
10, 149639, Note_on_c, 4, 65, 0
10, 151200, Note_on_c, 4, 60, 84
10, 151319, Note_on_c, 4, 60, 0
10, 151440, Note_on_c, 4, 65, 92
10, 151769, Note_on_c, 4, 65, 0
10, 151800, Note_on_c, 4, 60, 84
10, 151889, Note_on_c, 4, 60, 0
10, 151920, Note_on_c, 4, 57, 84
10, 152009, Note_on_c, 4, 57, 0
10, 152040, Note_on_c, 4, 53, 84
10, 152129, Note_on_c, 4, 53, 0
10, 152160, Note_on_c, 4, 48, 84
10, 152160, Note_on_c, 4, 60, 84
10, 152399, Note_on_c, 4, 48, 0
10, 152399, Note_on_c, 4, 60, 0
10, 152640, Note_on_c, 4, 60, 84
10, 152759, Note_on_c, 4, 60, 0
10, 152880, Note_on_c, 4, 65, 92
10, 153209, Note_on_c, 4, 65, 0
10, 153240, Note_on_c, 4, 60, 84
10, 153329, Note_on_c, 4, 60, 0
10, 153360, Note_on_c, 4, 57, 84
10, 153449, Note_on_c, 4, 57, 0
10, 153480, Note_on_c, 4, 53, 84
10, 153569, Note_on_c, 4, 53, 0
10, 153600, Note_on_c, 4, 60, 84
10, 153600, Note_on_c, 4, 48, 84
10, 153719, Note_on_c, 4, 60, 0
10, 153719, Note_on_c, 4, 48, 0
10, 154080, Note_on_c, 4, 60, 92
10, 154080, Note_on_c, 4, 67, 92
10, 154319, Note_on_c, 4, 60, 0
10, 154319, Note_on_c, 4, 67, 0
10, 154320, Note_on_c, 4, 65, 84
10, 154320, Note_on_c, 4, 69, 84
10, 154439, Note_on_c, 4, 65, 0
10, 154439, Note_on_c, 4, 69, 0
10, 155040, Note_on_c, 4, 67, 92
10, 155040, Note_on_c, 4, 60, 92
10, 155279, Note_on_c, 4, 67, 0
10, 155279, Note_on_c, 4, 60, 0
10, 155280, Note_on_c, 4, 69, 84
10, 155280, Note_on_c, 4, 65, 84
10, 155399, Note_on_c, 4, 69, 0
10, 155399, Note_on_c, 4, 65, 0
10, 156480, Note_on_c, 4, 60, 76
10, 156480, Note_on_c, 4, 48, 76
10, 156719, Note_on_c, 4, 60, 0
10, 156719, Note_on_c, 4, 48, 0
10, 156720, Note_on_c, 4, 65, 76
10, 156720, Note_on_c, 4, 53, 76
10, 156839, Note_on_c, 4, 65, 0
10, 156839, Note_on_c, 4, 53, 0
10, 156839, End_track
11, 0, Start_track
11, 0, Title_t, "Trumpet in F"
11, 0, MIDI_port, 0
11, 0, Program_c, 5, 56
11, 0, Control_c, 5, 7, 112
11, 0, Control_c, 5, 10, 60
11, 0, Control_c, 5, 11, 127
11, 720, Note_on_c, 5, 65, 76
11, 839, Note_on_c, 5, 65, 0
11, 960, Note_on_c, 5, 72, 84
11, 960, Note_on_c, 5, 60, 84
11, 1020, Control_c, 5, 11, 112
11, 1319, Note_on_c, 5, 72, 0
11, 1319, Note_on_c, 5, 60, 0
11, 1438, Control_c, 5, 11, 127
11, 1440, Note_on_c, 5, 60, 52
11, 1440, Note_on_c, 5, 72, 52
11, 1559, Note_on_c, 5, 60, 0
11, 1559, Note_on_c, 5, 72, 0
11, 1620, Control_c, 5, 11, 80
11, 1680, Note_on_c, 5, 60, 76
11, 1680, Note_on_c, 5, 72, 76
11, 2864, Note_on_c, 5, 60, 0
11, 2864, Note_on_c, 5, 72, 0
11, 2880, Note_on_c, 5, 60, 76
11, 2880, Control_c, 5, 11, 80
11, 2880, Note_on_c, 5, 72, 76
11, 2940, Control_c, 5, 11, 82
11, 3000, Control_c, 5, 11, 84
11, 3060, Control_c, 5, 11, 86
11, 3120, Control_c, 5, 11, 88
11, 3180, Control_c, 5, 11, 90
11, 3240, Control_c, 5, 11, 92
11, 3300, Control_c, 5, 11, 94
11, 3360, Control_c, 5, 11, 96
11, 3420, Control_c, 5, 11, 98
11, 3480, Control_c, 5, 11, 100
11, 3540, Control_c, 5, 11, 102
11, 3600, Control_c, 5, 11, 104
11, 3660, Control_c, 5, 11, 105
11, 3720, Control_c, 5, 11, 107
11, 3780, Control_c, 5, 11, 109
11, 3840, Control_c, 5, 11, 111
11, 3900, Control_c, 5, 11, 113
11, 3960, Control_c, 5, 11, 115
11, 4020, Control_c, 5, 11, 117
11, 4080, Control_c, 5, 11, 119
11, 4140, Control_c, 5, 11, 121
11, 4200, Control_c, 5, 11, 123
11, 4260, Control_c, 5, 11, 127
11, 4304, Note_on_c, 5, 60, 0
11, 4304, Note_on_c, 5, 72, 0
11, 4320, Note_on_c, 5, 72, 76
11, 4320, Note_on_c, 5, 60, 76
11, 4439, Note_on_c, 5, 72, 0
11, 4439, Note_on_c, 5, 60, 0
11, 4560, Note_on_c, 5, 60, 84
11, 4560, Note_on_c, 5, 72, 84
11, 4620, Control_c, 5, 11, 112
11, 5024, Note_on_c, 5, 60, 0
11, 5024, Note_on_c, 5, 72, 0
11, 5040, Note_on_c, 5, 72, 84
11, 5040, Note_on_c, 5, 60, 84
11, 5159, Note_on_c, 5, 72, 0
11, 5159, Note_on_c, 5, 60, 0
11, 5278, Control_c, 5, 11, 127
11, 5280, Note_on_c, 5, 77, 84
11, 5280, Note_on_c, 5, 65, 84
11, 5340, Control_c, 5, 11, 112
11, 5759, Note_on_c, 5, 77, 0
11, 5759, Note_on_c, 5, 65, 0
11, 5880, Control_c, 5, 11, 127
11, 6600, Note_on_c, 5, 60, 76
11, 6600, Note_on_c, 5, 72, 76
11, 6704, Note_on_c, 5, 60, 0
11, 6704, Note_on_c, 5, 72, 0
11, 6720, Note_on_c, 5, 60, 76
11, 6720, Note_on_c, 5, 72, 76
11, 6839, Note_on_c, 5, 60, 0
11, 6839, Note_on_c, 5, 72, 0
11, 6960, Note_on_c, 5, 65, 76
11, 7079, Note_on_c, 5, 65, 0
11, 7920, Note_on_c, 5, 65, 76
11, 8039, Note_on_c, 5, 65, 0
11, 8160, Note_on_c, 5, 72, 84
11, 8160, Note_on_c, 5, 60, 84
11, 8220, Control_c, 5, 11, 112
11, 8519, Note_on_c, 5, 72, 0
11, 8519, Note_on_c, 5, 60, 0
11, 8638, Control_c, 5, 11, 127
11, 8640, Note_on_c, 5, 60, 52
11, 8640, Note_on_c, 5, 72, 52
11, 8759, Note_on_c, 5, 60, 0
11, 8759, Note_on_c, 5, 72, 0
11, 8820, Control_c, 5, 11, 80
11, 8880, Note_on_c, 5, 72, 76
11, 8880, Note_on_c, 5, 60, 76
11, 10064, Note_on_c, 5, 72, 0
11, 10064, Note_on_c, 5, 60, 0
11, 10080, Note_on_c, 5, 60, 76
11, 10080, Control_c, 5, 11, 80
11, 10080, Note_on_c, 5, 72, 76
11, 10140, Control_c, 5, 11, 82
11, 10200, Control_c, 5, 11, 84
11, 10260, Control_c, 5, 11, 86
11, 10320, Control_c, 5, 11, 88
11, 10380, Control_c, 5, 11, 90
11, 10440, Control_c, 5, 11, 92
11, 10500, Control_c, 5, 11, 94
11, 10560, Control_c, 5, 11, 96
11, 10620, Control_c, 5, 11, 98
11, 10680, Control_c, 5, 11, 100
11, 10740, Control_c, 5, 11, 102
11, 10800, Control_c, 5, 11, 104
11, 10860, Control_c, 5, 11, 105
11, 10920, Control_c, 5, 11, 107
11, 10980, Control_c, 5, 11, 109
11, 11040, Control_c, 5, 11, 111
11, 11100, Control_c, 5, 11, 113
11, 11160, Control_c, 5, 11, 115
11, 11220, Control_c, 5, 11, 117
11, 11280, Control_c, 5, 11, 119
11, 11340, Control_c, 5, 11, 121
11, 11400, Control_c, 5, 11, 123
11, 11460, Control_c, 5, 11, 127
11, 11504, Note_on_c, 5, 60, 0
11, 11504, Note_on_c, 5, 72, 0
11, 11520, Note_on_c, 5, 72, 76
11, 11520, Note_on_c, 5, 60, 76
11, 11639, Note_on_c, 5, 72, 0
11, 11639, Note_on_c, 5, 60, 0
11, 11760, Note_on_c, 5, 72, 84
11, 11760, Note_on_c, 5, 60, 84
11, 11820, Control_c, 5, 11, 112
11, 12224, Note_on_c, 5, 72, 0
11, 12224, Note_on_c, 5, 60, 0
11, 12240, Note_on_c, 5, 60, 84
11, 12240, Note_on_c, 5, 72, 84
11, 12359, Note_on_c, 5, 60, 0
11, 12359, Note_on_c, 5, 72, 0
11, 12478, Control_c, 5, 11, 127
11, 12480, Note_on_c, 5, 65, 84
11, 12480, Note_on_c, 5, 77, 84
11, 12540, Control_c, 5, 11, 112
11, 12959, Note_on_c, 5, 65, 0
11, 12959, Note_on_c, 5, 77, 0
11, 13080, Control_c, 5, 11, 127
11, 13800, Note_on_c, 5, 60, 76
11, 13800, Note_on_c, 5, 72, 76
11, 13904, Note_on_c, 5, 60, 0
11, 13904, Note_on_c, 5, 72, 0
11, 13920, Note_on_c, 5, 60, 76
11, 13920, Note_on_c, 5, 72, 76
11, 14039, Note_on_c, 5, 60, 0
11, 14039, Note_on_c, 5, 72, 0
11, 14160, Note_on_c, 5, 65, 76
11, 14279, Note_on_c, 5, 65, 0
11, 15600, Note_on_c, 5, 60, 84
11, 15600, Note_on_c, 5, 72, 84
11, 15719, Note_on_c, 5, 60, 0
11, 15719, Note_on_c, 5, 72, 0
11, 17040, Note_on_c, 5, 60, 84
11, 17040, Note_on_c, 5, 72, 84
11, 17159, Note_on_c, 5, 60, 0
11, 17159, Note_on_c, 5, 72, 0
11, 18240, Note_on_c, 5, 72, 84
11, 18240, Note_on_c, 5, 60, 84
11, 18359, Note_on_c, 5, 72, 0
11, 18359, Note_on_c, 5, 60, 0
11, 18480, Note_on_c, 5, 60, 76
11, 18480, Note_on_c, 5, 72, 76
11, 18599, Note_on_c, 5, 60, 0
11, 18599, Note_on_c, 5, 72, 0
11, 18960, Note_on_c, 5, 72, 84
11, 18960, Note_on_c, 5, 60, 84
11, 19079, Note_on_c, 5, 72, 0
11, 19079, Note_on_c, 5, 60, 0
11, 19200, Note_on_c, 5, 60, 76
11, 19200, Note_on_c, 5, 72, 76
11, 19319, Note_on_c, 5, 60, 0
11, 19319, Note_on_c, 5, 72, 0
11, 19680, Note_on_c, 5, 65, 84
11, 19799, Note_on_c, 5, 65, 0
11, 19920, Note_on_c, 5, 65, 76
11, 20039, Note_on_c, 5, 65, 0
11, 29640, Note_on_c, 5, 72, 76
11, 29640, Note_on_c, 5, 60, 76
11, 29744, Note_on_c, 5, 72, 0
11, 29744, Note_on_c, 5, 60, 0
11, 29760, Note_on_c, 5, 60, 76
11, 29760, Note_on_c, 5, 72, 76
11, 29879, Note_on_c, 5, 60, 0
11, 29879, Note_on_c, 5, 72, 0
11, 30000, Note_on_c, 5, 72, 76
11, 30000, Note_on_c, 5, 60, 76
11, 30119, Note_on_c, 5, 72, 0
11, 30119, Note_on_c, 5, 60, 0
11, 30360, Note_on_c, 5, 60, 76
11, 30360, Note_on_c, 5, 72, 76
11, 30464, Note_on_c, 5, 60, 0
11, 30464, Note_on_c, 5, 72, 0
11, 30480, Note_on_c, 5, 72, 76
11, 30480, Note_on_c, 5, 60, 76
11, 30599, Note_on_c, 5, 72, 0
11, 30599, Note_on_c, 5, 60, 0
11, 30720, Note_on_c, 5, 65, 76
11, 30839, Note_on_c, 5, 65, 0
11, 31080, Note_on_c, 5, 77, 76
11, 31080, Note_on_c, 5, 65, 76
11, 31184, Note_on_c, 5, 77, 0
11, 31184, Note_on_c, 5, 65, 0
11, 31200, Note_on_c, 5, 77, 76
11, 31200, Note_on_c, 5, 65, 76
11, 31319, Note_on_c, 5, 77, 0
11, 31319, Note_on_c, 5, 65, 0
11, 31440, Note_on_c, 5, 77, 76
11, 31440, Note_on_c, 5, 65, 76
11, 31559, Note_on_c, 5, 77, 0
11, 31559, Note_on_c, 5, 65, 0
11, 33120, Note_on_c, 5, 72, 84
11, 33239, Note_on_c, 5, 72, 0
11, 33360, Note_on_c, 5, 77, 92
11, 33689, Note_on_c, 5, 77, 0
11, 33720, Note_on_c, 5, 72, 84
11, 33809, Note_on_c, 5, 72, 0
11, 33840, Note_on_c, 5, 69, 84
11, 33929, Note_on_c, 5, 69, 0
11, 33960, Note_on_c, 5, 65, 84
11, 34049, Note_on_c, 5, 65, 0
11, 34080, Note_on_c, 5, 60, 84
11, 34080, Note_on_c, 5, 72, 84
11, 34319, Note_on_c, 5, 60, 0
11, 34319, Note_on_c, 5, 72, 0
11, 34560, Note_on_c, 5, 72, 84
11, 34679, Note_on_c, 5, 72, 0
11, 34800, Note_on_c, 5, 77, 92
11, 35129, Note_on_c, 5, 77, 0
11, 35160, Note_on_c, 5, 72, 84
11, 35249, Note_on_c, 5, 72, 0
11, 35280, Note_on_c, 5, 69, 84
11, 35369, Note_on_c, 5, 69, 0
11, 35400, Note_on_c, 5, 65, 84
11, 35489, Note_on_c, 5, 65, 0
11, 35520, Note_on_c, 5, 72, 84
11, 35520, Note_on_c, 5, 60, 84
11, 35639, Note_on_c, 5, 72, 0
11, 35639, Note_on_c, 5, 60, 0
11, 36000, Note_on_c, 5, 60, 92
11, 36000, Note_on_c, 5, 72, 92
11, 36239, Note_on_c, 5, 60, 0
11, 36239, Note_on_c, 5, 72, 0
11, 36240, Note_on_c, 5, 69, 84
11, 36240, Note_on_c, 5, 65, 84
11, 36359, Note_on_c, 5, 69, 0
11, 36359, Note_on_c, 5, 65, 0
11, 36960, Note_on_c, 5, 60, 92
11, 36960, Note_on_c, 5, 72, 92
11, 37199, Note_on_c, 5, 60, 0
11, 37199, Note_on_c, 5, 72, 0
11, 37200, Note_on_c, 5, 69, 84
11, 37200, Note_on_c, 5, 65, 84
11, 37319, Note_on_c, 5, 69, 0
11, 37319, Note_on_c, 5, 65, 0
11, 38400, Note_on_c, 5, 72, 76
11, 38400, Note_on_c, 5, 60, 76
11, 38519, Note_on_c, 5, 72, 0
11, 38519, Note_on_c, 5, 60, 0
11, 38640, Note_on_c, 5, 65, 76
11, 38759, Note_on_c, 5, 65, 0
11, 40080, Note_on_c, 5, 72, 84
11, 40080, Note_on_c, 5, 60, 84
11, 40199, Note_on_c, 5, 72, 0
11, 40199, Note_on_c, 5, 60, 0
11, 41520, Note_on_c, 5, 72, 84
11, 41520, Note_on_c, 5, 60, 84
11, 41639, Note_on_c, 5, 72, 0
11, 41639, Note_on_c, 5, 60, 0
11, 42720, Note_on_c, 5, 72, 84
11, 42720, Note_on_c, 5, 60, 84
11, 42839, Note_on_c, 5, 72, 0
11, 42839, Note_on_c, 5, 60, 0
11, 42960, Note_on_c, 5, 72, 76
11, 42960, Note_on_c, 5, 60, 76
11, 43079, Note_on_c, 5, 72, 0
11, 43079, Note_on_c, 5, 60, 0
11, 43440, Note_on_c, 5, 60, 84
11, 43440, Note_on_c, 5, 72, 84
11, 43559, Note_on_c, 5, 60, 0
11, 43559, Note_on_c, 5, 72, 0
11, 43680, Note_on_c, 5, 60, 76
11, 43680, Note_on_c, 5, 72, 76
11, 43799, Note_on_c, 5, 60, 0
11, 43799, Note_on_c, 5, 72, 0
11, 44160, Note_on_c, 5, 65, 84
11, 44279, Note_on_c, 5, 65, 0
11, 44400, Note_on_c, 5, 65, 76
11, 44519, Note_on_c, 5, 65, 0
11, 54120, Note_on_c, 5, 72, 76
11, 54120, Note_on_c, 5, 60, 76
11, 54224, Note_on_c, 5, 72, 0
11, 54224, Note_on_c, 5, 60, 0
11, 54240, Note_on_c, 5, 72, 76
11, 54240, Note_on_c, 5, 60, 76
11, 54359, Note_on_c, 5, 72, 0
11, 54359, Note_on_c, 5, 60, 0
11, 54480, Note_on_c, 5, 60, 76
11, 54480, Note_on_c, 5, 72, 76
11, 54599, Note_on_c, 5, 60, 0
11, 54599, Note_on_c, 5, 72, 0
11, 54840, Note_on_c, 5, 72, 76
11, 54840, Note_on_c, 5, 60, 76
11, 54944, Note_on_c, 5, 72, 0
11, 54944, Note_on_c, 5, 60, 0
11, 54960, Note_on_c, 5, 60, 76
11, 54960, Note_on_c, 5, 72, 76
11, 55079, Note_on_c, 5, 60, 0
11, 55079, Note_on_c, 5, 72, 0
11, 55200, Note_on_c, 5, 65, 76
11, 55319, Note_on_c, 5, 65, 0
11, 55560, Note_on_c, 5, 65, 76
11, 55560, Note_on_c, 5, 77, 76
11, 55664, Note_on_c, 5, 65, 0
11, 55664, Note_on_c, 5, 77, 0
11, 55680, Note_on_c, 5, 77, 76
11, 55680, Note_on_c, 5, 65, 76
11, 55799, Note_on_c, 5, 77, 0
11, 55799, Note_on_c, 5, 65, 0
11, 55920, Note_on_c, 5, 77, 76
11, 55920, Note_on_c, 5, 65, 76
11, 56039, Note_on_c, 5, 77, 0
11, 56039, Note_on_c, 5, 65, 0
11, 57600, Note_on_c, 5, 72, 84
11, 57719, Note_on_c, 5, 72, 0
11, 57840, Note_on_c, 5, 77, 92
11, 58169, Note_on_c, 5, 77, 0
11, 58200, Note_on_c, 5, 72, 84
11, 58289, Note_on_c, 5, 72, 0
11, 58320, Note_on_c, 5, 69, 84
11, 58409, Note_on_c, 5, 69, 0
11, 58440, Note_on_c, 5, 65, 84
11, 58529, Note_on_c, 5, 65, 0
11, 58560, Note_on_c, 5, 72, 84
11, 58560, Note_on_c, 5, 60, 84
11, 58799, Note_on_c, 5, 72, 0
11, 58799, Note_on_c, 5, 60, 0
11, 59040, Note_on_c, 5, 72, 84
11, 59159, Note_on_c, 5, 72, 0
11, 59280, Note_on_c, 5, 77, 92
11, 59609, Note_on_c, 5, 77, 0
11, 59640, Note_on_c, 5, 72, 84
11, 59729, Note_on_c, 5, 72, 0
11, 59760, Note_on_c, 5, 69, 84
11, 59849, Note_on_c, 5, 69, 0
11, 59880, Note_on_c, 5, 65, 84
11, 59969, Note_on_c, 5, 65, 0
11, 60000, Note_on_c, 5, 60, 84
11, 60000, Note_on_c, 5, 72, 84
11, 60119, Note_on_c, 5, 60, 0
11, 60119, Note_on_c, 5, 72, 0
11, 60480, Note_on_c, 5, 72, 92
11, 60480, Note_on_c, 5, 60, 92
11, 60719, Note_on_c, 5, 72, 0
11, 60719, Note_on_c, 5, 60, 0
11, 60720, Note_on_c, 5, 69, 84
11, 60720, Note_on_c, 5, 65, 84
11, 60839, Note_on_c, 5, 69, 0
11, 60839, Note_on_c, 5, 65, 0
11, 61440, Note_on_c, 5, 72, 92
11, 61440, Note_on_c, 5, 60, 92
11, 61679, Note_on_c, 5, 72, 0
11, 61679, Note_on_c, 5, 60, 0
11, 61680, Note_on_c, 5, 69, 84
11, 61680, Note_on_c, 5, 65, 84
11, 61799, Note_on_c, 5, 69, 0
11, 61799, Note_on_c, 5, 65, 0
11, 62880, Note_on_c, 5, 72, 76
11, 62880, Note_on_c, 5, 60, 76
11, 62999, Note_on_c, 5, 72, 0
11, 62999, Note_on_c, 5, 60, 0
11, 63120, Note_on_c, 5, 65, 76
11, 63239, Note_on_c, 5, 65, 0
11, 94320, Note_on_c, 5, 65, 76
11, 94439, Note_on_c, 5, 65, 0
11, 94560, Note_on_c, 5, 72, 84
11, 94560, Note_on_c, 5, 60, 84
11, 94620, Control_c, 5, 11, 112
11, 94919, Note_on_c, 5, 72, 0
11, 94919, Note_on_c, 5, 60, 0
11, 95038, Control_c, 5, 11, 127
11, 95040, Note_on_c, 5, 60, 52
11, 95040, Note_on_c, 5, 72, 52
11, 95159, Note_on_c, 5, 60, 0
11, 95159, Note_on_c, 5, 72, 0
11, 95220, Control_c, 5, 11, 80
11, 95280, Note_on_c, 5, 72, 76
11, 95280, Note_on_c, 5, 60, 76
11, 96464, Note_on_c, 5, 72, 0
11, 96464, Note_on_c, 5, 60, 0
11, 96480, Control_c, 5, 11, 80
11, 96480, Note_on_c, 5, 60, 76
11, 96480, Note_on_c, 5, 72, 76
11, 96540, Control_c, 5, 11, 82
11, 96600, Control_c, 5, 11, 84
11, 96660, Control_c, 5, 11, 86
11, 96720, Control_c, 5, 11, 88
11, 96780, Control_c, 5, 11, 90
11, 96840, Control_c, 5, 11, 92
11, 96900, Control_c, 5, 11, 94
11, 96960, Control_c, 5, 11, 96
11, 97020, Control_c, 5, 11, 98
11, 97080, Control_c, 5, 11, 100
11, 97140, Control_c, 5, 11, 102
11, 97200, Control_c, 5, 11, 104
11, 97260, Control_c, 5, 11, 105
11, 97320, Control_c, 5, 11, 107
11, 97380, Control_c, 5, 11, 109
11, 97440, Control_c, 5, 11, 111
11, 97500, Control_c, 5, 11, 113
11, 97560, Control_c, 5, 11, 115
11, 97620, Control_c, 5, 11, 117
11, 97680, Control_c, 5, 11, 119
11, 97740, Control_c, 5, 11, 121
11, 97800, Control_c, 5, 11, 123
11, 97860, Control_c, 5, 11, 127
11, 97904, Note_on_c, 5, 60, 0
11, 97904, Note_on_c, 5, 72, 0
11, 97920, Note_on_c, 5, 60, 76
11, 97920, Note_on_c, 5, 72, 76
11, 98039, Note_on_c, 5, 60, 0
11, 98039, Note_on_c, 5, 72, 0
11, 98160, Note_on_c, 5, 60, 84
11, 98160, Note_on_c, 5, 72, 84
11, 98220, Control_c, 5, 11, 112
11, 98624, Note_on_c, 5, 60, 0
11, 98624, Note_on_c, 5, 72, 0
11, 98640, Note_on_c, 5, 60, 84
11, 98640, Note_on_c, 5, 72, 84
11, 98759, Note_on_c, 5, 60, 0
11, 98759, Note_on_c, 5, 72, 0
11, 98878, Control_c, 5, 11, 127
11, 98880, Note_on_c, 5, 65, 84
11, 98880, Note_on_c, 5, 77, 84
11, 98940, Control_c, 5, 11, 112
11, 99359, Note_on_c, 5, 65, 0
11, 99359, Note_on_c, 5, 77, 0
11, 99480, Control_c, 5, 11, 127
11, 100200, Note_on_c, 5, 72, 76
11, 100200, Note_on_c, 5, 60, 76
11, 100304, Note_on_c, 5, 72, 0
11, 100304, Note_on_c, 5, 60, 0
11, 100320, Note_on_c, 5, 72, 76
11, 100320, Note_on_c, 5, 60, 76
11, 100439, Note_on_c, 5, 72, 0
11, 100439, Note_on_c, 5, 60, 0
11, 100560, Note_on_c, 5, 65, 76
11, 100679, Note_on_c, 5, 65, 0
11, 101520, Note_on_c, 5, 65, 76
11, 101639, Note_on_c, 5, 65, 0
11, 101760, Note_on_c, 5, 60, 84
11, 101760, Note_on_c, 5, 72, 84
11, 101820, Control_c, 5, 11, 112
11, 102119, Note_on_c, 5, 60, 0
11, 102119, Note_on_c, 5, 72, 0
11, 102238, Control_c, 5, 11, 127
11, 102240, Note_on_c, 5, 60, 52
11, 102240, Note_on_c, 5, 72, 52
11, 102359, Note_on_c, 5, 60, 0
11, 102359, Note_on_c, 5, 72, 0
11, 102420, Control_c, 5, 11, 80
11, 102480, Note_on_c, 5, 72, 76
11, 102480, Note_on_c, 5, 60, 76
11, 103664, Note_on_c, 5, 72, 0
11, 103664, Note_on_c, 5, 60, 0
11, 103680, Note_on_c, 5, 72, 76
11, 103680, Control_c, 5, 11, 80
11, 103680, Note_on_c, 5, 60, 76
11, 103740, Control_c, 5, 11, 82
11, 103800, Control_c, 5, 11, 84
11, 103860, Control_c, 5, 11, 86
11, 103920, Control_c, 5, 11, 88
11, 103980, Control_c, 5, 11, 90
11, 104040, Control_c, 5, 11, 92
11, 104100, Control_c, 5, 11, 94
11, 104160, Control_c, 5, 11, 96
11, 104220, Control_c, 5, 11, 98
11, 104280, Control_c, 5, 11, 100
11, 104340, Control_c, 5, 11, 102
11, 104400, Control_c, 5, 11, 104
11, 104460, Control_c, 5, 11, 105
11, 104520, Control_c, 5, 11, 107
11, 104580, Control_c, 5, 11, 109
11, 104640, Control_c, 5, 11, 111
11, 104700, Control_c, 5, 11, 113
11, 104760, Control_c, 5, 11, 115
11, 104820, Control_c, 5, 11, 117
11, 104880, Control_c, 5, 11, 119
11, 104940, Control_c, 5, 11, 121
11, 105000, Control_c, 5, 11, 123
11, 105060, Control_c, 5, 11, 127
11, 105104, Note_on_c, 5, 72, 0
11, 105104, Note_on_c, 5, 60, 0
11, 105120, Note_on_c, 5, 72, 76
11, 105120, Note_on_c, 5, 60, 76
11, 105239, Note_on_c, 5, 72, 0
11, 105239, Note_on_c, 5, 60, 0
11, 105360, Note_on_c, 5, 72, 84
11, 105360, Note_on_c, 5, 60, 84
11, 105420, Control_c, 5, 11, 112
11, 105824, Note_on_c, 5, 72, 0
11, 105824, Note_on_c, 5, 60, 0
11, 105840, Note_on_c, 5, 72, 84
11, 105840, Note_on_c, 5, 60, 84
11, 105959, Note_on_c, 5, 72, 0
11, 105959, Note_on_c, 5, 60, 0
11, 106078, Control_c, 5, 11, 127
11, 106080, Note_on_c, 5, 77, 84
11, 106080, Note_on_c, 5, 65, 84
11, 106140, Control_c, 5, 11, 112
11, 106559, Note_on_c, 5, 77, 0
11, 106559, Note_on_c, 5, 65, 0
11, 106680, Control_c, 5, 11, 127
11, 107400, Note_on_c, 5, 72, 76
11, 107400, Note_on_c, 5, 60, 76
11, 107504, Note_on_c, 5, 72, 0
11, 107504, Note_on_c, 5, 60, 0
11, 107520, Note_on_c, 5, 72, 76
11, 107520, Note_on_c, 5, 60, 76
11, 107639, Note_on_c, 5, 72, 0
11, 107639, Note_on_c, 5, 60, 0
11, 107760, Note_on_c, 5, 65, 76
11, 107879, Note_on_c, 5, 65, 0
11, 109200, Note_on_c, 5, 60, 84
11, 109200, Note_on_c, 5, 72, 84
11, 109319, Note_on_c, 5, 60, 0
11, 109319, Note_on_c, 5, 72, 0
11, 110640, Note_on_c, 5, 72, 84
11, 110640, Note_on_c, 5, 60, 84
11, 110759, Note_on_c, 5, 72, 0
11, 110759, Note_on_c, 5, 60, 0
11, 111840, Note_on_c, 5, 60, 84
11, 111840, Note_on_c, 5, 72, 84
11, 111959, Note_on_c, 5, 60, 0
11, 111959, Note_on_c, 5, 72, 0
11, 112080, Note_on_c, 5, 60, 76
11, 112080, Note_on_c, 5, 72, 76
11, 112199, Note_on_c, 5, 60, 0
11, 112199, Note_on_c, 5, 72, 0
11, 112560, Note_on_c, 5, 60, 84
11, 112560, Note_on_c, 5, 72, 84
11, 112679, Note_on_c, 5, 60, 0
11, 112679, Note_on_c, 5, 72, 0
11, 112800, Note_on_c, 5, 72, 76
11, 112800, Note_on_c, 5, 60, 76
11, 112919, Note_on_c, 5, 72, 0
11, 112919, Note_on_c, 5, 60, 0
11, 113280, Note_on_c, 5, 65, 84
11, 113399, Note_on_c, 5, 65, 0
11, 113520, Note_on_c, 5, 65, 76
11, 113639, Note_on_c, 5, 65, 0
11, 123240, Note_on_c, 5, 60, 76
11, 123240, Note_on_c, 5, 72, 76
11, 123344, Note_on_c, 5, 60, 0
11, 123344, Note_on_c, 5, 72, 0
11, 123360, Note_on_c, 5, 60, 76
11, 123360, Note_on_c, 5, 72, 76
11, 123479, Note_on_c, 5, 60, 0
11, 123479, Note_on_c, 5, 72, 0
11, 123600, Note_on_c, 5, 72, 76
11, 123600, Note_on_c, 5, 60, 76
11, 123719, Note_on_c, 5, 72, 0
11, 123719, Note_on_c, 5, 60, 0
11, 123960, Note_on_c, 5, 72, 76
11, 123960, Note_on_c, 5, 60, 76
11, 124064, Note_on_c, 5, 72, 0
11, 124064, Note_on_c, 5, 60, 0
11, 124080, Note_on_c, 5, 60, 76
11, 124080, Note_on_c, 5, 72, 76
11, 124199, Note_on_c, 5, 60, 0
11, 124199, Note_on_c, 5, 72, 0
11, 124320, Note_on_c, 5, 65, 76
11, 124439, Note_on_c, 5, 65, 0
11, 124680, Note_on_c, 5, 77, 76
11, 124680, Note_on_c, 5, 65, 76
11, 124784, Note_on_c, 5, 77, 0
11, 124784, Note_on_c, 5, 65, 0
11, 124800, Note_on_c, 5, 77, 76
11, 124800, Note_on_c, 5, 65, 76
11, 124919, Note_on_c, 5, 77, 0
11, 124919, Note_on_c, 5, 65, 0
11, 125040, Note_on_c, 5, 77, 76
11, 125040, Note_on_c, 5, 65, 76
11, 125159, Note_on_c, 5, 77, 0
11, 125159, Note_on_c, 5, 65, 0
11, 126720, Note_on_c, 5, 72, 84
11, 126839, Note_on_c, 5, 72, 0
11, 126960, Note_on_c, 5, 77, 92
11, 127289, Note_on_c, 5, 77, 0
11, 127320, Note_on_c, 5, 72, 84
11, 127409, Note_on_c, 5, 72, 0
11, 127440, Note_on_c, 5, 69, 84
11, 127529, Note_on_c, 5, 69, 0
11, 127560, Note_on_c, 5, 65, 84
11, 127649, Note_on_c, 5, 65, 0
11, 127680, Note_on_c, 5, 60, 84
11, 127680, Note_on_c, 5, 72, 84
11, 127919, Note_on_c, 5, 60, 0
11, 127919, Note_on_c, 5, 72, 0
11, 128160, Note_on_c, 5, 72, 84
11, 128279, Note_on_c, 5, 72, 0
11, 128400, Note_on_c, 5, 77, 92
11, 128729, Note_on_c, 5, 77, 0
11, 128760, Note_on_c, 5, 72, 84
11, 128849, Note_on_c, 5, 72, 0
11, 128880, Note_on_c, 5, 69, 84
11, 128969, Note_on_c, 5, 69, 0
11, 129000, Note_on_c, 5, 65, 84
11, 129089, Note_on_c, 5, 65, 0
11, 129120, Note_on_c, 5, 72, 84
11, 129120, Note_on_c, 5, 60, 84
11, 129239, Note_on_c, 5, 72, 0
11, 129239, Note_on_c, 5, 60, 0
11, 129600, Note_on_c, 5, 60, 92
11, 129600, Note_on_c, 5, 72, 92
11, 129839, Note_on_c, 5, 60, 0
11, 129839, Note_on_c, 5, 72, 0
11, 129840, Note_on_c, 5, 69, 84
11, 129840, Note_on_c, 5, 65, 84
11, 129959, Note_on_c, 5, 69, 0
11, 129959, Note_on_c, 5, 65, 0
11, 130560, Note_on_c, 5, 60, 92
11, 130560, Note_on_c, 5, 72, 92
11, 130799, Note_on_c, 5, 60, 0
11, 130799, Note_on_c, 5, 72, 0
11, 130800, Note_on_c, 5, 65, 84
11, 130800, Note_on_c, 5, 69, 84
11, 130919, Note_on_c, 5, 65, 0
11, 130919, Note_on_c, 5, 69, 0
11, 132000, Note_on_c, 5, 60, 76
11, 132000, Note_on_c, 5, 72, 76
11, 132119, Note_on_c, 5, 60, 0
11, 132119, Note_on_c, 5, 72, 0
11, 132240, Note_on_c, 5, 65, 76
11, 132359, Note_on_c, 5, 65, 0
11, 133680, Note_on_c, 5, 72, 84
11, 133680, Note_on_c, 5, 60, 84
11, 133799, Note_on_c, 5, 72, 0
11, 133799, Note_on_c, 5, 60, 0
11, 135120, Note_on_c, 5, 72, 84
11, 135120, Note_on_c, 5, 60, 84
11, 135239, Note_on_c, 5, 72, 0
11, 135239, Note_on_c, 5, 60, 0
11, 136320, Note_on_c, 5, 72, 84
11, 136320, Note_on_c, 5, 60, 84
11, 136439, Note_on_c, 5, 72, 0
11, 136439, Note_on_c, 5, 60, 0
11, 136560, Note_on_c, 5, 72, 76
11, 136560, Note_on_c, 5, 60, 76
11, 136679, Note_on_c, 5, 72, 0
11, 136679, Note_on_c, 5, 60, 0
11, 137040, Note_on_c, 5, 72, 84
11, 137040, Note_on_c, 5, 60, 84
11, 137159, Note_on_c, 5, 72, 0
11, 137159, Note_on_c, 5, 60, 0
11, 137280, Note_on_c, 5, 72, 76
11, 137280, Note_on_c, 5, 60, 76
11, 137399, Note_on_c, 5, 72, 0
11, 137399, Note_on_c, 5, 60, 0
11, 137760, Note_on_c, 5, 65, 84
11, 137879, Note_on_c, 5, 65, 0
11, 138000, Note_on_c, 5, 65, 76
11, 138119, Note_on_c, 5, 65, 0
11, 147720, Note_on_c, 5, 72, 76
11, 147720, Note_on_c, 5, 60, 76
11, 147824, Note_on_c, 5, 72, 0
11, 147824, Note_on_c, 5, 60, 0
11, 147840, Note_on_c, 5, 72, 76
11, 147840, Note_on_c, 5, 60, 76
11, 147959, Note_on_c, 5, 72, 0
11, 147959, Note_on_c, 5, 60, 0
11, 148080, Note_on_c, 5, 72, 76
11, 148080, Note_on_c, 5, 60, 76
11, 148199, Note_on_c, 5, 72, 0
11, 148199, Note_on_c, 5, 60, 0
11, 148440, Note_on_c, 5, 60, 76
11, 148440, Note_on_c, 5, 72, 76
11, 148544, Note_on_c, 5, 60, 0
11, 148544, Note_on_c, 5, 72, 0
11, 148560, Note_on_c, 5, 72, 76
11, 148560, Note_on_c, 5, 60, 76
11, 148679, Note_on_c, 5, 72, 0
11, 148679, Note_on_c, 5, 60, 0
11, 148800, Note_on_c, 5, 65, 76
11, 148919, Note_on_c, 5, 65, 0
11, 149160, Note_on_c, 5, 77, 76
11, 149160, Note_on_c, 5, 65, 76
11, 149264, Note_on_c, 5, 77, 0
11, 149264, Note_on_c, 5, 65, 0
11, 149280, Note_on_c, 5, 77, 76
11, 149280, Note_on_c, 5, 65, 76
11, 149399, Note_on_c, 5, 77, 0
11, 149399, Note_on_c, 5, 65, 0
11, 149520, Note_on_c, 5, 77, 76
11, 149520, Note_on_c, 5, 65, 76
11, 149639, Note_on_c, 5, 77, 0
11, 149639, Note_on_c, 5, 65, 0
11, 151200, Note_on_c, 5, 72, 84
11, 151319, Note_on_c, 5, 72, 0
11, 151440, Note_on_c, 5, 77, 92
11, 151769, Note_on_c, 5, 77, 0
11, 151800, Note_on_c, 5, 72, 84
11, 151889, Note_on_c, 5, 72, 0
11, 151920, Note_on_c, 5, 69, 84
11, 152009, Note_on_c, 5, 69, 0
11, 152040, Note_on_c, 5, 65, 84
11, 152129, Note_on_c, 5, 65, 0
11, 152160, Note_on_c, 5, 60, 84
11, 152160, Note_on_c, 5, 72, 84
11, 152399, Note_on_c, 5, 60, 0
11, 152399, Note_on_c, 5, 72, 0
11, 152640, Note_on_c, 5, 72, 84
11, 152759, Note_on_c, 5, 72, 0
11, 152880, Note_on_c, 5, 77, 92
11, 153209, Note_on_c, 5, 77, 0
11, 153240, Note_on_c, 5, 72, 84
11, 153329, Note_on_c, 5, 72, 0
11, 153360, Note_on_c, 5, 69, 84
11, 153449, Note_on_c, 5, 69, 0
11, 153480, Note_on_c, 5, 65, 84
11, 153569, Note_on_c, 5, 65, 0
11, 153600, Note_on_c, 5, 72, 84
11, 153600, Note_on_c, 5, 60, 84
11, 153719, Note_on_c, 5, 72, 0
11, 153719, Note_on_c, 5, 60, 0
11, 154080, Note_on_c, 5, 60, 92
11, 154080, Note_on_c, 5, 72, 92
11, 154319, Note_on_c, 5, 60, 0
11, 154319, Note_on_c, 5, 72, 0
11, 154320, Note_on_c, 5, 69, 84
11, 154320, Note_on_c, 5, 65, 84
11, 154439, Note_on_c, 5, 69, 0
11, 154439, Note_on_c, 5, 65, 0
11, 155040, Note_on_c, 5, 72, 92
11, 155040, Note_on_c, 5, 60, 92
11, 155279, Note_on_c, 5, 72, 0
11, 155279, Note_on_c, 5, 60, 0
11, 155280, Note_on_c, 5, 69, 84
11, 155280, Note_on_c, 5, 65, 84
11, 155399, Note_on_c, 5, 69, 0
11, 155399, Note_on_c, 5, 65, 0
11, 156480, Note_on_c, 5, 72, 76
11, 156480, Note_on_c, 5, 60, 76
11, 156599, Note_on_c, 5, 72, 0
11, 156599, Note_on_c, 5, 60, 0
11, 156720, Note_on_c, 5, 65, 76
11, 156839, Note_on_c, 5, 65, 0
11, 156839, End_track
12, 0, Start_track
12, 0, Title_t, "Timpani"
12, 0, MIDI_port, 0
12, 0, Program_c, 6, 47
12, 0, Control_c, 6, 7, 96
12, 0, Control_c, 6, 10, 25
12, 0, Control_c, 6, 11, 127
12, 720, Note_on_c, 6, 41, 76
12, 839, Note_on_c, 6, 41, 0
12, 960, Note_on_c, 6, 48, 76
12, 1079, Note_on_c, 6, 48, 0
12, 4320, Note_on_c, 6, 48, 76
12, 4439, Note_on_c, 6, 48, 0
12, 4560, Note_on_c, 6, 48, 84
12, 4799, Note_on_c, 6, 48, 0
12, 5040, Note_on_c, 6, 48, 76
12, 5159, Note_on_c, 6, 48, 0
12, 5280, Note_on_c, 6, 41, 76
12, 5519, Note_on_c, 6, 41, 0
12, 6600, Note_on_c, 6, 48, 76
12, 6719, Note_on_c, 6, 48, 0
12, 6720, Note_on_c, 6, 48, 76
12, 6839, Note_on_c, 6, 48, 0
12, 6960, Note_on_c, 6, 41, 76
12, 7079, Note_on_c, 6, 41, 0
12, 7920, Note_on_c, 6, 41, 76
12, 8039, Note_on_c, 6, 41, 0
12, 8160, Note_on_c, 6, 48, 76
12, 8279, Note_on_c, 6, 48, 0
12, 11520, Note_on_c, 6, 48, 76
12, 11639, Note_on_c, 6, 48, 0
12, 11760, Note_on_c, 6, 48, 84
12, 11999, Note_on_c, 6, 48, 0
12, 12240, Note_on_c, 6, 48, 76
12, 12359, Note_on_c, 6, 48, 0
12, 12480, Note_on_c, 6, 41, 76
12, 12719, Note_on_c, 6, 41, 0
12, 13800, Note_on_c, 6, 48, 76
12, 13919, Note_on_c, 6, 48, 0
12, 13920, Note_on_c, 6, 48, 76
12, 14039, Note_on_c, 6, 48, 0
12, 14160, Note_on_c, 6, 41, 76
12, 14279, Note_on_c, 6, 41, 0
12, 15600, Note_on_c, 6, 48, 84
12, 15719, Note_on_c, 6, 48, 0
12, 17040, Note_on_c, 6, 48, 84
12, 17159, Note_on_c, 6, 48, 0
12, 18240, Note_on_c, 6, 48, 84
12, 18359, Note_on_c, 6, 48, 0
12, 18480, Note_on_c, 6, 48, 76
12, 18599, Note_on_c, 6, 48, 0
12, 18960, Note_on_c, 6, 48, 84
12, 19079, Note_on_c, 6, 48, 0
12, 19200, Note_on_c, 6, 48, 76
12, 19319, Note_on_c, 6, 48, 0
12, 19680, Note_on_c, 6, 41, 84
12, 19799, Note_on_c, 6, 41, 0
12, 19920, Note_on_c, 6, 41, 76
12, 20039, Note_on_c, 6, 41, 0
12, 29640, Note_on_c, 6, 48, 76
12, 29759, Note_on_c, 6, 48, 0
12, 29760, Note_on_c, 6, 48, 76
12, 29879, Note_on_c, 6, 48, 0
12, 30000, Note_on_c, 6, 48, 76
12, 30119, Note_on_c, 6, 48, 0
12, 30360, Note_on_c, 6, 48, 76
12, 30479, Note_on_c, 6, 48, 0
12, 30480, Note_on_c, 6, 48, 76
12, 30599, Note_on_c, 6, 48, 0
12, 30720, Note_on_c, 6, 41, 76
12, 30839, Note_on_c, 6, 41, 0
12, 31080, Note_on_c, 6, 41, 76
12, 31199, Note_on_c, 6, 41, 0
12, 31200, Note_on_c, 6, 41, 76
12, 31319, Note_on_c, 6, 41, 0
12, 31440, Note_on_c, 6, 41, 76
12, 31559, Note_on_c, 6, 41, 0
12, 33600, Note_on_c, 6, 41, 76
12, 33719, Note_on_c, 6, 41, 0
12, 33840, Note_on_c, 6, 48, 84
12, 33959, Note_on_c, 6, 48, 0
12, 35040, Note_on_c, 6, 41, 76
12, 35159, Note_on_c, 6, 41, 0
12, 35280, Note_on_c, 6, 48, 84
12, 35399, Note_on_c, 6, 48, 0
12, 38400, Note_on_c, 6, 48, 76
12, 38519, Note_on_c, 6, 48, 0
12, 38640, Note_on_c, 6, 41, 76
12, 38759, Note_on_c, 6, 41, 0
12, 40080, Note_on_c, 6, 48, 84
12, 40199, Note_on_c, 6, 48, 0
12, 41520, Note_on_c, 6, 48, 84
12, 41639, Note_on_c, 6, 48, 0
12, 42720, Note_on_c, 6, 48, 84
12, 42839, Note_on_c, 6, 48, 0
12, 42960, Note_on_c, 6, 48, 76
12, 43079, Note_on_c, 6, 48, 0
12, 43440, Note_on_c, 6, 48, 84
12, 43559, Note_on_c, 6, 48, 0
12, 43680, Note_on_c, 6, 48, 76
12, 43799, Note_on_c, 6, 48, 0
12, 44160, Note_on_c, 6, 41, 84
12, 44279, Note_on_c, 6, 41, 0
12, 44400, Note_on_c, 6, 41, 76
12, 44519, Note_on_c, 6, 41, 0
12, 54120, Note_on_c, 6, 48, 76
12, 54239, Note_on_c, 6, 48, 0
12, 54240, Note_on_c, 6, 48, 76
12, 54359, Note_on_c, 6, 48, 0
12, 54480, Note_on_c, 6, 48, 76
12, 54599, Note_on_c, 6, 48, 0
12, 54840, Note_on_c, 6, 48, 76
12, 54959, Note_on_c, 6, 48, 0
12, 54960, Note_on_c, 6, 48, 76
12, 55079, Note_on_c, 6, 48, 0
12, 55200, Note_on_c, 6, 41, 76
12, 55319, Note_on_c, 6, 41, 0
12, 55560, Note_on_c, 6, 41, 76
12, 55679, Note_on_c, 6, 41, 0
12, 55680, Note_on_c, 6, 41, 76
12, 55799, Note_on_c, 6, 41, 0
12, 55920, Note_on_c, 6, 41, 76
12, 56039, Note_on_c, 6, 41, 0
12, 58080, Note_on_c, 6, 41, 76
12, 58199, Note_on_c, 6, 41, 0
12, 58320, Note_on_c, 6, 48, 84
12, 58439, Note_on_c, 6, 48, 0
12, 59520, Note_on_c, 6, 41, 76
12, 59639, Note_on_c, 6, 41, 0
12, 59760, Note_on_c, 6, 48, 84
12, 59879, Note_on_c, 6, 48, 0
12, 62880, Note_on_c, 6, 48, 76
12, 62999, Note_on_c, 6, 48, 0
12, 63120, Note_on_c, 6, 41, 76
12, 63239, Note_on_c, 6, 41, 0
12, 94320, Note_on_c, 6, 41, 76
12, 94439, Note_on_c, 6, 41, 0
12, 94560, Note_on_c, 6, 48, 76
12, 94679, Note_on_c, 6, 48, 0
12, 97920, Note_on_c, 6, 48, 76
12, 98039, Note_on_c, 6, 48, 0
12, 98160, Note_on_c, 6, 48, 84
12, 98399, Note_on_c, 6, 48, 0
12, 98640, Note_on_c, 6, 48, 76
12, 98759, Note_on_c, 6, 48, 0
12, 98880, Note_on_c, 6, 41, 76
12, 99119, Note_on_c, 6, 41, 0
12, 100200, Note_on_c, 6, 48, 76
12, 100319, Note_on_c, 6, 48, 0
12, 100320, Note_on_c, 6, 48, 76
12, 100439, Note_on_c, 6, 48, 0
12, 100560, Note_on_c, 6, 41, 76
12, 100679, Note_on_c, 6, 41, 0
12, 101520, Note_on_c, 6, 41, 76
12, 101639, Note_on_c, 6, 41, 0
12, 101760, Note_on_c, 6, 48, 76
12, 101879, Note_on_c, 6, 48, 0
12, 105120, Note_on_c, 6, 48, 76
12, 105239, Note_on_c, 6, 48, 0
12, 105360, Note_on_c, 6, 48, 84
12, 105599, Note_on_c, 6, 48, 0
12, 105840, Note_on_c, 6, 48, 76
12, 105959, Note_on_c, 6, 48, 0
12, 106080, Note_on_c, 6, 41, 76
12, 106319, Note_on_c, 6, 41, 0
12, 107400, Note_on_c, 6, 48, 76
12, 107519, Note_on_c, 6, 48, 0
12, 107520, Note_on_c, 6, 48, 76
12, 107639, Note_on_c, 6, 48, 0
12, 107760, Note_on_c, 6, 41, 76
12, 107879, Note_on_c, 6, 41, 0
12, 109200, Note_on_c, 6, 48, 84
12, 109319, Note_on_c, 6, 48, 0
12, 110640, Note_on_c, 6, 48, 84
12, 110759, Note_on_c, 6, 48, 0
12, 111840, Note_on_c, 6, 48, 84
12, 111959, Note_on_c, 6, 48, 0
12, 112080, Note_on_c, 6, 48, 76
12, 112199, Note_on_c, 6, 48, 0
12, 112560, Note_on_c, 6, 48, 84
12, 112679, Note_on_c, 6, 48, 0
12, 112800, Note_on_c, 6, 48, 76
12, 112919, Note_on_c, 6, 48, 0
12, 113280, Note_on_c, 6, 41, 84
12, 113399, Note_on_c, 6, 41, 0
12, 113520, Note_on_c, 6, 41, 76
12, 113639, Note_on_c, 6, 41, 0
12, 123240, Note_on_c, 6, 48, 76
12, 123359, Note_on_c, 6, 48, 0
12, 123360, Note_on_c, 6, 48, 76
12, 123479, Note_on_c, 6, 48, 0
12, 123600, Note_on_c, 6, 48, 76
12, 123719, Note_on_c, 6, 48, 0
12, 123960, Note_on_c, 6, 48, 76
12, 124079, Note_on_c, 6, 48, 0
12, 124080, Note_on_c, 6, 48, 76
12, 124199, Note_on_c, 6, 48, 0
12, 124320, Note_on_c, 6, 41, 76
12, 124439, Note_on_c, 6, 41, 0
12, 124680, Note_on_c, 6, 41, 76
12, 124799, Note_on_c, 6, 41, 0
12, 124800, Note_on_c, 6, 41, 76
12, 124919, Note_on_c, 6, 41, 0
12, 125040, Note_on_c, 6, 41, 76
12, 125159, Note_on_c, 6, 41, 0
12, 127200, Note_on_c, 6, 41, 76
12, 127319, Note_on_c, 6, 41, 0
12, 127440, Note_on_c, 6, 48, 84
12, 127559, Note_on_c, 6, 48, 0
12, 128640, Note_on_c, 6, 41, 76
12, 128759, Note_on_c, 6, 41, 0
12, 128880, Note_on_c, 6, 48, 84
12, 128999, Note_on_c, 6, 48, 0
12, 132000, Note_on_c, 6, 48, 76
12, 132119, Note_on_c, 6, 48, 0
12, 132240, Note_on_c, 6, 41, 76
12, 132359, Note_on_c, 6, 41, 0
12, 133680, Note_on_c, 6, 48, 84
12, 133799, Note_on_c, 6, 48, 0
12, 135120, Note_on_c, 6, 48, 84
12, 135239, Note_on_c, 6, 48, 0
12, 136320, Note_on_c, 6, 48, 84
12, 136439, Note_on_c, 6, 48, 0
12, 136560, Note_on_c, 6, 48, 76
12, 136679, Note_on_c, 6, 48, 0
12, 137040, Note_on_c, 6, 48, 84
12, 137159, Note_on_c, 6, 48, 0
12, 137280, Note_on_c, 6, 48, 76
12, 137399, Note_on_c, 6, 48, 0
12, 137760, Note_on_c, 6, 41, 84
12, 137879, Note_on_c, 6, 41, 0
12, 138000, Note_on_c, 6, 41, 76
12, 138119, Note_on_c, 6, 41, 0
12, 147720, Note_on_c, 6, 48, 76
12, 147839, Note_on_c, 6, 48, 0
12, 147840, Note_on_c, 6, 48, 76
12, 147959, Note_on_c, 6, 48, 0
12, 148080, Note_on_c, 6, 48, 76
12, 148199, Note_on_c, 6, 48, 0
12, 148440, Note_on_c, 6, 48, 76
12, 148559, Note_on_c, 6, 48, 0
12, 148560, Note_on_c, 6, 48, 76
12, 148679, Note_on_c, 6, 48, 0
12, 148800, Note_on_c, 6, 41, 76
12, 148919, Note_on_c, 6, 41, 0
12, 149160, Note_on_c, 6, 41, 76
12, 149279, Note_on_c, 6, 41, 0
12, 149280, Note_on_c, 6, 41, 76
12, 149399, Note_on_c, 6, 41, 0
12, 149520, Note_on_c, 6, 41, 76
12, 149639, Note_on_c, 6, 41, 0
12, 151680, Note_on_c, 6, 41, 76
12, 151799, Note_on_c, 6, 41, 0
12, 151920, Note_on_c, 6, 48, 84
12, 152039, Note_on_c, 6, 48, 0
12, 153120, Note_on_c, 6, 41, 76
12, 153239, Note_on_c, 6, 41, 0
12, 153360, Note_on_c, 6, 48, 84
12, 153479, Note_on_c, 6, 48, 0
12, 156480, Note_on_c, 6, 48, 76
12, 156599, Note_on_c, 6, 48, 0
12, 156720, Note_on_c, 6, 41, 76
12, 156839, Note_on_c, 6, 41, 0
12, 156839, End_track
13, 0, Start_track
13, 0, Title_t, "Violin I"
13, 0, MIDI_port, 0
13, 0, Program_c, 11, 48
13, 0, Control_c, 11, 7, 96
13, 0, Control_c, 11, 10, 48
13, 0, Control_c, 11, 11, 127
13, 0, Note_on_c, 11, 65, 76
13, 119, Note_on_c, 11, 65, 0
13, 120, Note_on_c, 11, 60, 76
13, 224, Note_on_c, 11, 60, 0
13, 240, Note_on_c, 11, 65, 84
13, 359, Note_on_c, 11, 65, 0
13, 360, Note_on_c, 11, 60, 76
13, 479, Note_on_c, 11, 60, 0
13, 480, Note_on_c, 11, 65, 84
13, 599, Note_on_c, 11, 65, 0
13, 600, Note_on_c, 11, 60, 76
13, 704, Note_on_c, 11, 60, 0
13, 720, Note_on_c, 11, 69, 84
13, 839, Note_on_c, 11, 69, 0
13, 840, Note_on_c, 11, 65, 76
13, 944, Note_on_c, 11, 65, 0
13, 960, Note_on_c, 11, 69, 84
13, 1079, Note_on_c, 11, 69, 0
13, 1080, Note_on_c, 11, 65, 76
13, 1199, Note_on_c, 11, 65, 0
13, 1200, Note_on_c, 11, 69, 84
13, 1319, Note_on_c, 11, 69, 0
13, 1320, Note_on_c, 11, 65, 76
13, 1424, Note_on_c, 11, 65, 0
13, 1440, Note_on_c, 11, 81, 52
13, 1529, Note_on_c, 11, 81, 0
13, 1680, Note_on_c, 11, 84, 52
13, 2039, Note_on_c, 11, 84, 0
13, 2040, Note_on_c, 11, 82, 52
13, 2159, Note_on_c, 11, 82, 0
13, 2160, Note_on_c, 11, 79, 52
13, 2279, Note_on_c, 11, 79, 0
13, 2280, Note_on_c, 11, 76, 52
13, 2399, Note_on_c, 11, 76, 0
13, 2400, Note_on_c, 11, 79, 52
13, 2519, Note_on_c, 11, 79, 0
13, 2520, Note_on_c, 11, 77, 52
13, 2639, Note_on_c, 11, 77, 0
13, 2640, Note_on_c, 11, 81, 52
13, 2759, Note_on_c, 11, 81, 0
13, 2760, Note_on_c, 11, 77, 52
13, 2879, Note_on_c, 11, 77, 0
13, 2880, Note_on_c, 11, 72, 52
13, 2999, Note_on_c, 11, 72, 0
13, 3000, Note_on_c, 11, 73, 54
13, 3119, Note_on_c, 11, 73, 0
13, 3120, Note_on_c, 11, 76, 56
13, 3239, Note_on_c, 11, 76, 0
13, 3240, Note_on_c, 11, 74, 58
13, 3359, Note_on_c, 11, 74, 0
13, 3360, Note_on_c, 11, 67, 60
13, 3479, Note_on_c, 11, 67, 0
13, 3480, Note_on_c, 11, 69, 62
13, 3599, Note_on_c, 11, 69, 0
13, 3600, Note_on_c, 11, 70, 64
13, 3719, Note_on_c, 11, 70, 0
13, 3720, Note_on_c, 11, 71, 66
13, 3824, Note_on_c, 11, 71, 0
13, 3840, Note_on_c, 11, 71, 68
13, 4079, Note_on_c, 11, 71, 0
13, 4080, Note_on_c, 11, 72, 72
13, 4199, Note_on_c, 11, 72, 0
13, 4320, Note_on_c, 11, 81, 76
13, 4320, Note_on_c, 11, 69, 76
13, 4439, Note_on_c, 11, 81, 0
13, 4439, Note_on_c, 11, 69, 0
13, 4560, Note_on_c, 11, 84, 84
13, 4619, Note_on_c, 11, 84, 0
13, 4620, Note_on_c, 11, 84, 76
13, 4919, Note_on_c, 11, 84, 0
13, 4920, Note_on_c, 11, 82, 76
13, 5039, Note_on_c, 11, 82, 0
13, 5040, Note_on_c, 11, 79, 76
13, 5159, Note_on_c, 11, 79, 0
13, 5160, Note_on_c, 11, 76, 76
13, 5279, Note_on_c, 11, 76, 0
13, 5280, Note_on_c, 11, 79, 76
13, 5399, Note_on_c, 11, 79, 0
13, 5400, Note_on_c, 11, 77, 76
13, 5519, Note_on_c, 11, 77, 0
13, 5520, Note_on_c, 11, 81, 76
13, 5639, Note_on_c, 11, 81, 0
13, 5640, Note_on_c, 11, 77, 76
13, 5759, Note_on_c, 11, 77, 0
13, 5760, Note_on_c, 11, 72, 76
13, 5879, Note_on_c, 11, 72, 0
13, 5880, Note_on_c, 11, 73, 76
13, 5999, Note_on_c, 11, 73, 0
13, 6000, Note_on_c, 11, 76, 76
13, 6119, Note_on_c, 11, 76, 0
13, 6120, Note_on_c, 11, 74, 76
13, 6239, Note_on_c, 11, 74, 0
13, 6240, Note_on_c, 11, 67, 76
13, 6359, Note_on_c, 11, 67, 0
13, 6360, Note_on_c, 11, 69, 76
13, 6479, Note_on_c, 11, 69, 0
13, 6480, Note_on_c, 11, 70, 76
13, 6584, Note_on_c, 11, 70, 0
13, 6600, Note_on_c, 11, 64, 76
13, 6704, Note_on_c, 11, 64, 0
13, 6720, Note_on_c, 11, 64, 76
13, 6959, Note_on_c, 11, 64, 0
13, 6960, Note_on_c, 11, 65, 76
13, 7079, Note_on_c, 11, 65, 0
13, 7200, Note_on_c, 11, 65, 76
13, 7319, Note_on_c, 11, 65, 0
13, 7320, Note_on_c, 11, 60, 76
13, 7424, Note_on_c, 11, 60, 0
13, 7440, Note_on_c, 11, 65, 84
13, 7559, Note_on_c, 11, 65, 0
13, 7560, Note_on_c, 11, 60, 76
13, 7679, Note_on_c, 11, 60, 0
13, 7680, Note_on_c, 11, 65, 84
13, 7799, Note_on_c, 11, 65, 0
13, 7800, Note_on_c, 11, 60, 76
13, 7904, Note_on_c, 11, 60, 0
13, 7920, Note_on_c, 11, 69, 84
13, 8039, Note_on_c, 11, 69, 0
13, 8040, Note_on_c, 11, 65, 76
13, 8144, Note_on_c, 11, 65, 0
13, 8160, Note_on_c, 11, 69, 84
13, 8279, Note_on_c, 11, 69, 0
13, 8280, Note_on_c, 11, 65, 76
13, 8399, Note_on_c, 11, 65, 0
13, 8400, Note_on_c, 11, 69, 84
13, 8519, Note_on_c, 11, 69, 0
13, 8520, Note_on_c, 11, 65, 76
13, 8624, Note_on_c, 11, 65, 0
13, 8640, Note_on_c, 11, 81, 52
13, 8729, Note_on_c, 11, 81, 0
13, 8880, Note_on_c, 11, 84, 52
13, 9239, Note_on_c, 11, 84, 0
13, 9240, Note_on_c, 11, 82, 52
13, 9359, Note_on_c, 11, 82, 0
13, 9360, Note_on_c, 11, 79, 52
13, 9479, Note_on_c, 11, 79, 0
13, 9480, Note_on_c, 11, 76, 52
13, 9599, Note_on_c, 11, 76, 0
13, 9600, Note_on_c, 11, 79, 52
13, 9719, Note_on_c, 11, 79, 0
13, 9720, Note_on_c, 11, 77, 52
13, 9839, Note_on_c, 11, 77, 0
13, 9840, Note_on_c, 11, 81, 52
13, 9959, Note_on_c, 11, 81, 0
13, 9960, Note_on_c, 11, 77, 52
13, 10079, Note_on_c, 11, 77, 0
13, 10080, Note_on_c, 11, 72, 52
13, 10199, Note_on_c, 11, 72, 0
13, 10200, Note_on_c, 11, 73, 54
13, 10319, Note_on_c, 11, 73, 0
13, 10320, Note_on_c, 11, 76, 56
13, 10439, Note_on_c, 11, 76, 0
13, 10440, Note_on_c, 11, 74, 58
13, 10559, Note_on_c, 11, 74, 0
13, 10560, Note_on_c, 11, 67, 60
13, 10679, Note_on_c, 11, 67, 0
13, 10680, Note_on_c, 11, 69, 62
13, 10799, Note_on_c, 11, 69, 0
13, 10800, Note_on_c, 11, 70, 64
13, 10919, Note_on_c, 11, 70, 0
13, 10920, Note_on_c, 11, 71, 66
13, 11024, Note_on_c, 11, 71, 0
13, 11040, Note_on_c, 11, 71, 68
13, 11279, Note_on_c, 11, 71, 0
13, 11280, Note_on_c, 11, 72, 72
13, 11399, Note_on_c, 11, 72, 0
13, 11520, Note_on_c, 11, 69, 76
13, 11520, Note_on_c, 11, 81, 76
13, 11639, Note_on_c, 11, 69, 0
13, 11639, Note_on_c, 11, 81, 0
13, 11760, Note_on_c, 11, 84, 84
13, 11819, Note_on_c, 11, 84, 0
13, 11820, Note_on_c, 11, 84, 76
13, 12119, Note_on_c, 11, 84, 0
13, 12120, Note_on_c, 11, 82, 76
13, 12239, Note_on_c, 11, 82, 0
13, 12240, Note_on_c, 11, 79, 76
13, 12359, Note_on_c, 11, 79, 0
13, 12360, Note_on_c, 11, 76, 76
13, 12479, Note_on_c, 11, 76, 0
13, 12480, Note_on_c, 11, 79, 76
13, 12599, Note_on_c, 11, 79, 0
13, 12600, Note_on_c, 11, 77, 76
13, 12719, Note_on_c, 11, 77, 0
13, 12720, Note_on_c, 11, 81, 76
13, 12839, Note_on_c, 11, 81, 0
13, 12840, Note_on_c, 11, 77, 76
13, 12959, Note_on_c, 11, 77, 0
13, 12960, Note_on_c, 11, 72, 76
13, 13079, Note_on_c, 11, 72, 0
13, 13080, Note_on_c, 11, 73, 76
13, 13199, Note_on_c, 11, 73, 0
13, 13200, Note_on_c, 11, 76, 76
13, 13319, Note_on_c, 11, 76, 0
13, 13320, Note_on_c, 11, 74, 76
13, 13439, Note_on_c, 11, 74, 0
13, 13440, Note_on_c, 11, 67, 76
13, 13559, Note_on_c, 11, 67, 0
13, 13560, Note_on_c, 11, 69, 76
13, 13679, Note_on_c, 11, 69, 0
13, 13680, Note_on_c, 11, 70, 76
13, 13784, Note_on_c, 11, 70, 0
13, 13800, Note_on_c, 11, 64, 76
13, 13904, Note_on_c, 11, 64, 0
13, 13920, Note_on_c, 11, 64, 76
13, 14159, Note_on_c, 11, 64, 0
13, 14160, Note_on_c, 11, 65, 76
13, 14279, Note_on_c, 11, 65, 0
13, 14400, Note_on_c, 11, 76, 76
13, 14489, Note_on_c, 11, 76, 0
13, 14640, Note_on_c, 11, 79, 84
13, 14699, Note_on_c, 11, 79, 0
13, 14700, Note_on_c, 11, 79, 76
13, 14999, Note_on_c, 11, 79, 0
13, 15000, Note_on_c, 11, 77, 76
13, 15119, Note_on_c, 11, 77, 0
13, 15120, Note_on_c, 11, 74, 76
13, 15239, Note_on_c, 11, 74, 0
13, 15240, Note_on_c, 11, 71, 76
13, 15344, Note_on_c, 11, 71, 0
13, 15360, Note_on_c, 11, 67, 76
13, 15479, Note_on_c, 11, 67, 0
13, 15600, Note_on_c, 11, 72, 84
13, 15600, Note_on_c, 11, 55, 84
13, 15600, Note_on_c, 11, 64, 84
13, 15659, Note_on_c, 11, 72, 0
13, 15659, Note_on_c, 11, 55, 0
13, 15659, Note_on_c, 11, 64, 0
13, 15660, Note_on_c, 11, 64, 76
13, 15660, Note_on_c, 11, 55, 76
13, 15660, Note_on_c, 11, 72, 76
13, 15839, Note_on_c, 11, 64, 0
13, 15839, Note_on_c, 11, 55, 0
13, 16064, Note_on_c, 11, 72, 0
13, 16080, Note_on_c, 11, 67, 76
13, 16199, Note_on_c, 11, 67, 0
13, 16320, Note_on_c, 11, 74, 84
13, 16320, Note_on_c, 11, 55, 84
13, 16320, Note_on_c, 11, 67, 84
13, 16379, Note_on_c, 11, 74, 0
13, 16379, Note_on_c, 11, 55, 0
13, 16379, Note_on_c, 11, 67, 0
13, 16380, Note_on_c, 11, 55, 76
13, 16380, Note_on_c, 11, 67, 76
13, 16380, Note_on_c, 11, 74, 76
13, 16559, Note_on_c, 11, 55, 0
13, 16559, Note_on_c, 11, 67, 0
13, 16784, Note_on_c, 11, 74, 0
13, 16800, Note_on_c, 11, 67, 76
13, 16919, Note_on_c, 11, 67, 0
13, 17040, Note_on_c, 11, 64, 84
13, 17040, Note_on_c, 11, 76, 84
13, 17040, Note_on_c, 11, 55, 84
13, 17099, Note_on_c, 11, 64, 0
13, 17099, Note_on_c, 11, 76, 0
13, 17099, Note_on_c, 11, 55, 0
13, 17100, Note_on_c, 11, 64, 76
13, 17100, Note_on_c, 11, 55, 76
13, 17100, Note_on_c, 11, 76, 76
13, 17264, Note_on_c, 11, 76, 0
13, 17279, Note_on_c, 11, 64, 0
13, 17279, Note_on_c, 11, 55, 0
13, 17280, Note_on_c, 11, 76, 76
13, 17369, Note_on_c, 11, 76, 0
13, 17520, Note_on_c, 11, 79, 84
13, 17579, Note_on_c, 11, 79, 0
13, 17580, Note_on_c, 11, 79, 76
13, 17879, Note_on_c, 11, 79, 0
13, 17880, Note_on_c, 11, 77, 76
13, 17999, Note_on_c, 11, 77, 0
13, 18000, Note_on_c, 11, 74, 76
13, 18119, Note_on_c, 11, 74, 0
13, 18120, Note_on_c, 11, 71, 76
13, 18224, Note_on_c, 11, 71, 0
13, 18240, Note_on_c, 11, 81, 84
13, 18299, Note_on_c, 11, 81, 0
13, 18300, Note_on_c, 11, 81, 76
13, 18599, Note_on_c, 11, 81, 0
13, 18600, Note_on_c, 11, 79, 76
13, 18719, Note_on_c, 11, 79, 0
13, 18720, Note_on_c, 11, 76, 76
13, 18839, Note_on_c, 11, 76, 0
13, 18840, Note_on_c, 11, 72, 76
13, 18944, Note_on_c, 11, 72, 0
13, 18960, Note_on_c, 11, 84, 84
13, 19019, Note_on_c, 11, 84, 0
13, 19020, Note_on_c, 11, 84, 76
13, 19319, Note_on_c, 11, 84, 0
13, 19320, Note_on_c, 11, 82, 76
13, 19439, Note_on_c, 11, 82, 0
13, 19440, Note_on_c, 11, 79, 76
13, 19559, Note_on_c, 11, 79, 0
13, 19560, Note_on_c, 11, 76, 76
13, 19664, Note_on_c, 11, 76, 0
13, 19680, Note_on_c, 11, 86, 84
13, 19739, Note_on_c, 11, 86, 0
13, 19740, Note_on_c, 11, 86, 76
13, 20039, Note_on_c, 11, 86, 0
13, 20040, Note_on_c, 11, 84, 76
13, 20159, Note_on_c, 11, 84, 0
13, 20160, Note_on_c, 11, 81, 76
13, 20279, Note_on_c, 11, 81, 0
13, 20280, Note_on_c, 11, 77, 76
13, 20384, Note_on_c, 11, 77, 0
13, 20400, Note_on_c, 11, 75, 76
13, 20519, Note_on_c, 11, 75, 0
13, 20520, Program_c, 11, 45
13, 20640, Note_on_c, 11, 63, 44
13, 20759, Note_on_c, 11, 63, 0
13, 20760, Program_c, 11, 48
13, 21120, Note_on_c, 11, 77, 52
13, 21239, Note_on_c, 11, 77, 0
13, 21240, Note_on_c, 11, 75, 52
13, 21359, Note_on_c, 11, 75, 0
13, 21360, Note_on_c, 11, 72, 51
13, 21479, Note_on_c, 11, 72, 0
13, 21480, Note_on_c, 11, 69, 51
13, 21599, Note_on_c, 11, 69, 0
13, 22080, Note_on_c, 11, 77, 48
13, 22199, Note_on_c, 11, 77, 0
13, 22200, Note_on_c, 11, 75, 48
13, 22319, Note_on_c, 11, 75, 0
13, 22320, Note_on_c, 11, 72, 47
13, 22439, Note_on_c, 11, 72, 0
13, 22440, Note_on_c, 11, 69, 47
13, 22559, Note_on_c, 11, 69, 0
13, 23040, Note_on_c, 11, 65, 44
13, 23040, Note_on_c, 11, 74, 44
13, 23159, Note_on_c, 11, 65, 0
13, 23159, Note_on_c, 11, 74, 0
13, 23520, Note_on_c, 11, 65, 44
13, 23520, Note_on_c, 11, 74, 44
13, 23639, Note_on_c, 11, 65, 0
13, 23639, Note_on_c, 11, 74, 0
13, 24000, Note_on_c, 11, 65, 44
13, 24000, Note_on_c, 11, 74, 44
13, 24119, Note_on_c, 11, 65, 0
13, 24119, Note_on_c, 11, 74, 0
13, 25920, Note_on_c, 11, 77, 44
13, 26039, Note_on_c, 11, 77, 0
13, 26040, Note_on_c, 11, 78, 44
13, 26159, Note_on_c, 11, 78, 0
13, 26160, Note_on_c, 11, 81, 44
13, 26279, Note_on_c, 11, 81, 0
13, 26280, Note_on_c, 11, 79, 44
13, 26399, Note_on_c, 11, 79, 0
13, 26400, Note_on_c, 11, 82, 44
13, 26519, Note_on_c, 11, 82, 0
13, 26520, Note_on_c, 11, 79, 44
13, 26639, Note_on_c, 11, 79, 0
13, 26640, Note_on_c, 11, 74, 44
13, 26759, Note_on_c, 11, 74, 0
13, 26760, Note_on_c, 11, 76, 44
13, 26879, Note_on_c, 11, 76, 0
13, 26880, Note_on_c, 11, 77, 44
13, 26999, Note_on_c, 11, 77, 0
13, 27000, Note_on_c, 11, 81, 44
13, 27119, Note_on_c, 11, 81, 0
13, 27120, Note_on_c, 11, 84, 44
13, 27224, Note_on_c, 11, 84, 0
13, 27240, Note_on_c, 11, 84, 44
13, 27329, Note_on_c, 11, 84, 0
13, 27360, Note_on_c, 11, 84, 44
13, 27449, Note_on_c, 11, 84, 0
13, 27480, Note_on_c, 11, 84, 45
13, 27569, Note_on_c, 11, 84, 0
13, 27600, Note_on_c, 11, 84, 47
13, 27719, Note_on_c, 11, 84, 0
13, 27720, Note_on_c, 11, 83, 49
13, 27839, Note_on_c, 11, 83, 0
13, 27840, Note_on_c, 11, 84, 50
13, 27959, Note_on_c, 11, 84, 0
13, 27960, Note_on_c, 11, 82, 52
13, 28079, Note_on_c, 11, 82, 0
13, 28080, Note_on_c, 11, 79, 54
13, 28199, Note_on_c, 11, 79, 0
13, 28200, Note_on_c, 11, 76, 55
13, 28319, Note_on_c, 11, 76, 0
13, 28320, Note_on_c, 11, 79, 57
13, 28439, Note_on_c, 11, 79, 0
13, 28440, Note_on_c, 11, 77, 59
13, 28559, Note_on_c, 11, 77, 0
13, 28560, Note_on_c, 11, 81, 60
13, 28679, Note_on_c, 11, 81, 0
13, 28680, Note_on_c, 11, 77, 62
13, 28799, Note_on_c, 11, 77, 0
13, 28800, Note_on_c, 11, 72, 64
13, 28919, Note_on_c, 11, 72, 0
13, 28920, Note_on_c, 11, 73, 65
13, 29039, Note_on_c, 11, 73, 0
13, 29040, Note_on_c, 11, 76, 67
13, 29159, Note_on_c, 11, 76, 0
13, 29160, Note_on_c, 11, 74, 69
13, 29279, Note_on_c, 11, 74, 0
13, 29280, Note_on_c, 11, 67, 70
13, 29399, Note_on_c, 11, 67, 0
13, 29400, Note_on_c, 11, 69, 72
13, 29519, Note_on_c, 11, 69, 0
13, 29520, Note_on_c, 11, 70, 74
13, 29624, Note_on_c, 11, 70, 0
13, 29640, Note_on_c, 11, 71, 76
13, 29744, Note_on_c, 11, 71, 0
13, 29760, Note_on_c, 11, 71, 80
13, 29999, Note_on_c, 11, 71, 0
13, 30000, Note_on_c, 11, 72, 80
13, 30119, Note_on_c, 11, 72, 0
13, 30120, Note_on_c, 11, 74, 80
13, 30239, Note_on_c, 11, 74, 0
13, 30240, Note_on_c, 11, 75, 80
13, 30344, Note_on_c, 11, 75, 0
13, 30360, Note_on_c, 11, 76, 80
13, 30464, Note_on_c, 11, 76, 0
13, 30480, Note_on_c, 11, 76, 80
13, 30719, Note_on_c, 11, 76, 0
13, 30720, Note_on_c, 11, 77, 80
13, 30839, Note_on_c, 11, 77, 0
13, 30840, Note_on_c, 11, 79, 80
13, 30959, Note_on_c, 11, 79, 0
13, 30960, Note_on_c, 11, 80, 80
13, 31064, Note_on_c, 11, 80, 0
13, 31080, Note_on_c, 11, 81, 84
13, 31184, Note_on_c, 11, 81, 0
13, 31200, Note_on_c, 11, 81, 84
13, 31439, Note_on_c, 11, 81, 0
13, 31440, Note_on_c, 11, 82, 84
13, 31559, Note_on_c, 11, 82, 0
13, 32520, Note_on_c, 11, 76, 84
13, 32624, Note_on_c, 11, 76, 0
13, 32640, Note_on_c, 11, 76, 84
13, 32879, Note_on_c, 11, 76, 0
13, 32880, Note_on_c, 11, 77, 84
13, 32999, Note_on_c, 11, 77, 0
13, 33960, Note_on_c, 11, 81, 84
13, 34064, Note_on_c, 11, 81, 0
13, 34080, Note_on_c, 11, 79, 84
13, 34319, Note_on_c, 11, 79, 0
13, 34320, Note_on_c, 11, 81, 84
13, 34439, Note_on_c, 11, 81, 0
13, 35400, Note_on_c, 11, 81, 84
13, 35504, Note_on_c, 11, 81, 0
13, 35520, Note_on_c, 11, 79, 84
13, 35759, Note_on_c, 11, 79, 0
13, 35760, Note_on_c, 11, 81, 84
13, 35879, Note_on_c, 11, 81, 0
13, 36480, Note_on_c, 11, 76, 84
13, 36719, Note_on_c, 11, 76, 0
13, 36720, Note_on_c, 11, 77, 84
13, 36839, Note_on_c, 11, 77, 0
13, 37440, Note_on_c, 11, 64, 92
13, 37499, Note_on_c, 11, 64, 0
13, 37500, Note_on_c, 11, 64, 84
13, 37679, Note_on_c, 11, 64, 0
13, 37680, Note_on_c, 11, 64, 84
13, 38399, Note_on_c, 11, 64, 0
13, 38400, Note_on_c, 11, 64, 84
13, 38639, Note_on_c, 11, 64, 0
13, 38640, Note_on_c, 11, 65, 84
13, 38759, Note_on_c, 11, 65, 0
13, 38880, Note_on_c, 11, 76, 84
13, 38969, Note_on_c, 11, 76, 0
13, 39120, Note_on_c, 11, 79, 84
13, 39179, Note_on_c, 11, 79, 0
13, 39180, Note_on_c, 11, 79, 76
13, 39479, Note_on_c, 11, 79, 0
13, 39480, Note_on_c, 11, 77, 76
13, 39599, Note_on_c, 11, 77, 0
13, 39600, Note_on_c, 11, 74, 76
13, 39719, Note_on_c, 11, 74, 0
13, 39720, Note_on_c, 11, 71, 76
13, 39824, Note_on_c, 11, 71, 0
13, 39840, Note_on_c, 11, 67, 76
13, 39959, Note_on_c, 11, 67, 0
13, 40080, Note_on_c, 11, 64, 84
13, 40080, Note_on_c, 11, 72, 84
13, 40080, Note_on_c, 11, 55, 84
13, 40139, Note_on_c, 11, 64, 0
13, 40139, Note_on_c, 11, 72, 0
13, 40139, Note_on_c, 11, 55, 0
13, 40140, Note_on_c, 11, 72, 76
13, 40140, Note_on_c, 11, 55, 76
13, 40140, Note_on_c, 11, 64, 76
13, 40319, Note_on_c, 11, 55, 0
13, 40319, Note_on_c, 11, 64, 0
13, 40544, Note_on_c, 11, 72, 0
13, 40560, Note_on_c, 11, 67, 76
13, 40679, Note_on_c, 11, 67, 0
13, 40800, Note_on_c, 11, 67, 84
13, 40800, Note_on_c, 11, 74, 84
13, 40800, Note_on_c, 11, 55, 84
13, 40859, Note_on_c, 11, 67, 0
13, 40859, Note_on_c, 11, 74, 0
13, 40859, Note_on_c, 11, 55, 0
13, 40860, Note_on_c, 11, 67, 76
13, 40860, Note_on_c, 11, 55, 76
13, 40860, Note_on_c, 11, 74, 76
13, 41039, Note_on_c, 11, 67, 0
13, 41039, Note_on_c, 11, 55, 0
13, 41264, Note_on_c, 11, 74, 0
13, 41280, Note_on_c, 11, 67, 76
13, 41399, Note_on_c, 11, 67, 0
13, 41520, Note_on_c, 11, 76, 84
13, 41520, Note_on_c, 11, 55, 84
13, 41520, Note_on_c, 11, 64, 84
13, 41579, Note_on_c, 11, 76, 0
13, 41579, Note_on_c, 11, 55, 0
13, 41579, Note_on_c, 11, 64, 0
13, 41580, Note_on_c, 11, 76, 76
13, 41580, Note_on_c, 11, 55, 76
13, 41580, Note_on_c, 11, 64, 76
13, 41744, Note_on_c, 11, 76, 0
13, 41759, Note_on_c, 11, 55, 0
13, 41759, Note_on_c, 11, 64, 0
13, 41760, Note_on_c, 11, 76, 76
13, 41849, Note_on_c, 11, 76, 0
13, 42000, Note_on_c, 11, 79, 84
13, 42059, Note_on_c, 11, 79, 0
13, 42060, Note_on_c, 11, 79, 76
13, 42359, Note_on_c, 11, 79, 0
13, 42360, Note_on_c, 11, 77, 76
13, 42479, Note_on_c, 11, 77, 0
13, 42480, Note_on_c, 11, 74, 76
13, 42599, Note_on_c, 11, 74, 0
13, 42600, Note_on_c, 11, 71, 76
13, 42704, Note_on_c, 11, 71, 0
13, 42720, Note_on_c, 11, 81, 84
13, 42779, Note_on_c, 11, 81, 0
13, 42780, Note_on_c, 11, 81, 76
13, 43079, Note_on_c, 11, 81, 0
13, 43080, Note_on_c, 11, 79, 76
13, 43199, Note_on_c, 11, 79, 0
13, 43200, Note_on_c, 11, 76, 76
13, 43319, Note_on_c, 11, 76, 0
13, 43320, Note_on_c, 11, 72, 76
13, 43424, Note_on_c, 11, 72, 0
13, 43440, Note_on_c, 11, 84, 84
13, 43499, Note_on_c, 11, 84, 0
13, 43500, Note_on_c, 11, 84, 76
13, 43799, Note_on_c, 11, 84, 0
13, 43800, Note_on_c, 11, 82, 76
13, 43919, Note_on_c, 11, 82, 0
13, 43920, Note_on_c, 11, 79, 76
13, 44039, Note_on_c, 11, 79, 0
13, 44040, Note_on_c, 11, 76, 76
13, 44144, Note_on_c, 11, 76, 0
13, 44160, Note_on_c, 11, 86, 84
13, 44219, Note_on_c, 11, 86, 0
13, 44220, Note_on_c, 11, 86, 76
13, 44519, Note_on_c, 11, 86, 0
13, 44520, Note_on_c, 11, 84, 76
13, 44639, Note_on_c, 11, 84, 0
13, 44640, Note_on_c, 11, 81, 76
13, 44759, Note_on_c, 11, 81, 0
13, 44760, Note_on_c, 11, 77, 76
13, 44864, Note_on_c, 11, 77, 0
13, 44880, Note_on_c, 11, 75, 76
13, 44999, Note_on_c, 11, 75, 0
13, 45000, Program_c, 11, 45
13, 45120, Note_on_c, 11, 63, 44
13, 45239, Note_on_c, 11, 63, 0
13, 45240, Program_c, 11, 48
13, 45600, Note_on_c, 11, 77, 52
13, 45719, Note_on_c, 11, 77, 0
13, 45720, Note_on_c, 11, 75, 52
13, 45839, Note_on_c, 11, 75, 0
13, 45840, Note_on_c, 11, 72, 51
13, 45959, Note_on_c, 11, 72, 0
13, 45960, Note_on_c, 11, 69, 51
13, 46079, Note_on_c, 11, 69, 0
13, 46560, Note_on_c, 11, 77, 48
13, 46679, Note_on_c, 11, 77, 0
13, 46680, Note_on_c, 11, 75, 48
13, 46799, Note_on_c, 11, 75, 0
13, 46800, Note_on_c, 11, 72, 47
13, 46919, Note_on_c, 11, 72, 0
13, 46920, Note_on_c, 11, 69, 47
13, 47039, Note_on_c, 11, 69, 0
13, 47520, Note_on_c, 11, 74, 44
13, 47520, Note_on_c, 11, 65, 44
13, 47639, Note_on_c, 11, 74, 0
13, 47639, Note_on_c, 11, 65, 0
13, 48000, Note_on_c, 11, 65, 44
13, 48000, Note_on_c, 11, 74, 44
13, 48119, Note_on_c, 11, 65, 0
13, 48119, Note_on_c, 11, 74, 0
13, 48480, Note_on_c, 11, 74, 44
13, 48480, Note_on_c, 11, 65, 44
13, 48599, Note_on_c, 11, 74, 0
13, 48599, Note_on_c, 11, 65, 0
13, 50400, Note_on_c, 11, 77, 44
13, 50519, Note_on_c, 11, 77, 0
13, 50520, Note_on_c, 11, 78, 44
13, 50639, Note_on_c, 11, 78, 0
13, 50640, Note_on_c, 11, 81, 44
13, 50759, Note_on_c, 11, 81, 0
13, 50760, Note_on_c, 11, 79, 44
13, 50879, Note_on_c, 11, 79, 0
13, 50880, Note_on_c, 11, 82, 44
13, 50999, Note_on_c, 11, 82, 0
13, 51000, Note_on_c, 11, 79, 44
13, 51119, Note_on_c, 11, 79, 0
13, 51120, Note_on_c, 11, 74, 44
13, 51239, Note_on_c, 11, 74, 0
13, 51240, Note_on_c, 11, 76, 44
13, 51359, Note_on_c, 11, 76, 0
13, 51360, Note_on_c, 11, 77, 44
13, 51479, Note_on_c, 11, 77, 0
13, 51480, Note_on_c, 11, 81, 44
13, 51599, Note_on_c, 11, 81, 0
13, 51600, Note_on_c, 11, 84, 44
13, 51704, Note_on_c, 11, 84, 0
13, 51720, Note_on_c, 11, 84, 44
13, 51809, Note_on_c, 11, 84, 0
13, 51840, Note_on_c, 11, 84, 44
13, 51929, Note_on_c, 11, 84, 0
13, 51960, Note_on_c, 11, 84, 45
13, 52049, Note_on_c, 11, 84, 0
13, 52080, Note_on_c, 11, 84, 47
13, 52199, Note_on_c, 11, 84, 0
13, 52200, Note_on_c, 11, 83, 49
13, 52319, Note_on_c, 11, 83, 0
13, 52320, Note_on_c, 11, 84, 50
13, 52439, Note_on_c, 11, 84, 0
13, 52440, Note_on_c, 11, 82, 52
13, 52559, Note_on_c, 11, 82, 0
13, 52560, Note_on_c, 11, 79, 54
13, 52679, Note_on_c, 11, 79, 0
13, 52680, Note_on_c, 11, 76, 55
13, 52799, Note_on_c, 11, 76, 0
13, 52800, Note_on_c, 11, 79, 57
13, 52919, Note_on_c, 11, 79, 0
13, 52920, Note_on_c, 11, 77, 59
13, 53039, Note_on_c, 11, 77, 0
13, 53040, Note_on_c, 11, 81, 60
13, 53159, Note_on_c, 11, 81, 0
13, 53160, Note_on_c, 11, 77, 62
13, 53279, Note_on_c, 11, 77, 0
13, 53280, Note_on_c, 11, 72, 64
13, 53399, Note_on_c, 11, 72, 0
13, 53400, Note_on_c, 11, 73, 65
13, 53519, Note_on_c, 11, 73, 0
13, 53520, Note_on_c, 11, 76, 67
13, 53639, Note_on_c, 11, 76, 0
13, 53640, Note_on_c, 11, 74, 69
13, 53759, Note_on_c, 11, 74, 0
13, 53760, Note_on_c, 11, 67, 70
13, 53879, Note_on_c, 11, 67, 0
13, 53880, Note_on_c, 11, 69, 72
13, 53999, Note_on_c, 11, 69, 0
13, 54000, Note_on_c, 11, 70, 74
13, 54104, Note_on_c, 11, 70, 0
13, 54120, Note_on_c, 11, 71, 76
13, 54224, Note_on_c, 11, 71, 0
13, 54240, Note_on_c, 11, 71, 80
13, 54479, Note_on_c, 11, 71, 0
13, 54480, Note_on_c, 11, 72, 80
13, 54599, Note_on_c, 11, 72, 0
13, 54600, Note_on_c, 11, 74, 80
13, 54719, Note_on_c, 11, 74, 0
13, 54720, Note_on_c, 11, 75, 80
13, 54824, Note_on_c, 11, 75, 0
13, 54840, Note_on_c, 11, 76, 80
13, 54944, Note_on_c, 11, 76, 0
13, 54960, Note_on_c, 11, 76, 80
13, 55199, Note_on_c, 11, 76, 0
13, 55200, Note_on_c, 11, 77, 80
13, 55319, Note_on_c, 11, 77, 0
13, 55320, Note_on_c, 11, 79, 80
13, 55439, Note_on_c, 11, 79, 0
13, 55440, Note_on_c, 11, 80, 80
13, 55544, Note_on_c, 11, 80, 0
13, 55560, Note_on_c, 11, 81, 84
13, 55664, Note_on_c, 11, 81, 0
13, 55680, Note_on_c, 11, 81, 84
13, 55919, Note_on_c, 11, 81, 0
13, 55920, Note_on_c, 11, 82, 84
13, 56039, Note_on_c, 11, 82, 0
13, 57000, Note_on_c, 11, 76, 84
13, 57104, Note_on_c, 11, 76, 0
13, 57120, Note_on_c, 11, 76, 84
13, 57359, Note_on_c, 11, 76, 0
13, 57360, Note_on_c, 11, 77, 84
13, 57479, Note_on_c, 11, 77, 0
13, 58440, Note_on_c, 11, 81, 84
13, 58544, Note_on_c, 11, 81, 0
13, 58560, Note_on_c, 11, 79, 84
13, 58799, Note_on_c, 11, 79, 0
13, 58800, Note_on_c, 11, 81, 84
13, 58919, Note_on_c, 11, 81, 0
13, 59880, Note_on_c, 11, 81, 84
13, 59984, Note_on_c, 11, 81, 0
13, 60000, Note_on_c, 11, 79, 84
13, 60239, Note_on_c, 11, 79, 0
13, 60240, Note_on_c, 11, 81, 84
13, 60359, Note_on_c, 11, 81, 0
13, 60960, Note_on_c, 11, 76, 84
13, 61199, Note_on_c, 11, 76, 0
13, 61200, Note_on_c, 11, 77, 84
13, 61319, Note_on_c, 11, 77, 0
13, 61920, Note_on_c, 11, 64, 92
13, 61979, Note_on_c, 11, 64, 0
13, 61980, Note_on_c, 11, 64, 84
13, 62159, Note_on_c, 11, 64, 0
13, 62160, Note_on_c, 11, 64, 84
13, 62879, Note_on_c, 11, 64, 0
13, 62880, Note_on_c, 11, 64, 84
13, 63119, Note_on_c, 11, 64, 0
13, 63120, Note_on_c, 11, 65, 84
13, 63239, Note_on_c, 11, 65, 0
13, 74760, Note_on_c, 11, 67, 52
13, 74864, Note_on_c, 11, 67, 0
13, 74880, Note_on_c, 11, 69, 52
13, 74984, Note_on_c, 11, 69, 0
13, 75000, Note_on_c, 11, 71, 52
13, 75089, Note_on_c, 11, 71, 0
13, 75120, Note_on_c, 11, 72, 52
13, 75479, Note_on_c, 11, 72, 0
13, 75480, Note_on_c, 11, 74, 52
13, 75599, Note_on_c, 11, 74, 0
13, 75600, Note_on_c, 11, 76, 52
13, 75824, Note_on_c, 11, 76, 0
13, 75840, Note_on_c, 11, 76, 52
13, 76199, Note_on_c, 11, 76, 0
13, 76200, Note_on_c, 11, 74, 52
13, 76319, Note_on_c, 11, 74, 0
13, 76320, Note_on_c, 11, 72, 52
13, 76544, Note_on_c, 11, 72, 0
13, 76560, Note_on_c, 11, 72, 52
13, 76919, Note_on_c, 11, 72, 0
13, 76920, Note_on_c, 11, 74, 52
13, 77039, Note_on_c, 11, 74, 0
13, 77040, Note_on_c, 11, 75, 52
13, 77264, Note_on_c, 11, 75, 0
13, 77280, Note_on_c, 11, 75, 52
13, 77639, Note_on_c, 11, 75, 0
13, 77640, Note_on_c, 11, 74, 52
13, 77759, Note_on_c, 11, 74, 0
13, 77760, Note_on_c, 11, 72, 52
13, 77984, Note_on_c, 11, 72, 0
13, 77998, Control_c, 11, 11, 80
13, 78000, Note_on_c, 11, 72, 76
13, 78060, Control_c, 11, 11, 81
13, 78120, Control_c, 11, 11, 83
13, 78180, Control_c, 11, 11, 84
13, 78240, Control_c, 11, 11, 85
13, 78300, Control_c, 11, 11, 87
13, 78359, Note_on_c, 11, 72, 0
13, 78360, Control_c, 11, 11, 88
13, 78360, Note_on_c, 11, 73, 76
13, 78420, Control_c, 11, 11, 89
13, 78479, Note_on_c, 11, 73, 0
13, 78480, Note_on_c, 11, 75, 76
13, 78480, Control_c, 11, 11, 90
13, 78540, Control_c, 11, 11, 92
13, 78600, Control_c, 11, 11, 93
13, 78660, Control_c, 11, 11, 94
13, 78704, Note_on_c, 11, 75, 0
13, 78720, Control_c, 11, 11, 96
13, 78720, Note_on_c, 11, 75, 76
13, 78780, Control_c, 11, 11, 97
13, 78840, Control_c, 11, 11, 98
13, 78900, Control_c, 11, 11, 100
13, 78959, Note_on_c, 11, 75, 0
13, 78960, Control_c, 11, 11, 101
13, 78960, Note_on_c, 11, 77, 76
13, 79020, Control_c, 11, 11, 102
13, 79080, Control_c, 11, 11, 104
13, 79140, Control_c, 11, 11, 105
13, 79199, Note_on_c, 11, 77, 0
13, 79200, Note_on_c, 11, 73, 76
13, 79200, Control_c, 11, 11, 106
13, 79260, Control_c, 11, 11, 107
13, 79320, Control_c, 11, 11, 109
13, 79380, Control_c, 11, 11, 110
13, 79424, Note_on_c, 11, 73, 0
13, 79440, Note_on_c, 11, 72, 76
13, 79440, Control_c, 11, 11, 111
13, 79500, Control_c, 11, 11, 113
13, 79560, Control_c, 11, 11, 114
13, 79620, Control_c, 11, 11, 115
13, 79680, Control_c, 11, 11, 117
13, 79740, Control_c, 11, 11, 118
13, 79800, Control_c, 11, 11, 119
13, 79860, Control_c, 11, 11, 120
13, 79919, Note_on_c, 11, 72, 0
13, 79920, Note_on_c, 11, 70, 76
13, 79920, Control_c, 11, 11, 122
13, 79980, Control_c, 11, 11, 123
13, 80040, Control_c, 11, 11, 124
13, 80100, Control_c, 11, 11, 127
13, 80144, Note_on_c, 11, 70, 0
13, 80160, Note_on_c, 11, 72, 76
13, 80864, Note_on_c, 11, 72, 0
13, 80880, Note_on_c, 11, 69, 52
13, 81119, Note_on_c, 11, 69, 0
13, 93600, Note_on_c, 11, 65, 76
13, 93719, Note_on_c, 11, 65, 0
13, 93720, Note_on_c, 11, 60, 76
13, 93824, Note_on_c, 11, 60, 0
13, 93840, Note_on_c, 11, 65, 84
13, 93959, Note_on_c, 11, 65, 0
13, 93960, Note_on_c, 11, 60, 76
13, 94079, Note_on_c, 11, 60, 0
13, 94080, Note_on_c, 11, 65, 84
13, 94199, Note_on_c, 11, 65, 0
13, 94200, Note_on_c, 11, 60, 76
13, 94304, Note_on_c, 11, 60, 0
13, 94320, Note_on_c, 11, 69, 84
13, 94439, Note_on_c, 11, 69, 0
13, 94440, Note_on_c, 11, 65, 76
13, 94544, Note_on_c, 11, 65, 0
13, 94560, Note_on_c, 11, 69, 84
13, 94679, Note_on_c, 11, 69, 0
13, 94680, Note_on_c, 11, 65, 76
13, 94799, Note_on_c, 11, 65, 0
13, 94800, Note_on_c, 11, 69, 84
13, 94919, Note_on_c, 11, 69, 0
13, 94920, Note_on_c, 11, 65, 76
13, 95024, Note_on_c, 11, 65, 0
13, 95040, Note_on_c, 11, 81, 52
13, 95129, Note_on_c, 11, 81, 0
13, 95280, Note_on_c, 11, 84, 52
13, 95639, Note_on_c, 11, 84, 0
13, 95640, Note_on_c, 11, 82, 52
13, 95759, Note_on_c, 11, 82, 0
13, 95760, Note_on_c, 11, 79, 52
13, 95879, Note_on_c, 11, 79, 0
13, 95880, Note_on_c, 11, 76, 52
13, 95999, Note_on_c, 11, 76, 0
13, 96000, Note_on_c, 11, 79, 52
13, 96119, Note_on_c, 11, 79, 0
13, 96120, Note_on_c, 11, 77, 52
13, 96239, Note_on_c, 11, 77, 0
13, 96240, Note_on_c, 11, 81, 52
13, 96359, Note_on_c, 11, 81, 0
13, 96360, Note_on_c, 11, 77, 52
13, 96479, Note_on_c, 11, 77, 0
13, 96480, Note_on_c, 11, 72, 52
13, 96599, Note_on_c, 11, 72, 0
13, 96600, Note_on_c, 11, 73, 54
13, 96719, Note_on_c, 11, 73, 0
13, 96720, Note_on_c, 11, 76, 56
13, 96839, Note_on_c, 11, 76, 0
13, 96840, Note_on_c, 11, 74, 58
13, 96959, Note_on_c, 11, 74, 0
13, 96960, Note_on_c, 11, 67, 60
13, 97079, Note_on_c, 11, 67, 0
13, 97080, Note_on_c, 11, 69, 62
13, 97199, Note_on_c, 11, 69, 0
13, 97200, Note_on_c, 11, 70, 64
13, 97319, Note_on_c, 11, 70, 0
13, 97320, Note_on_c, 11, 71, 66
13, 97424, Note_on_c, 11, 71, 0
13, 97440, Note_on_c, 11, 71, 68
13, 97679, Note_on_c, 11, 71, 0
13, 97680, Note_on_c, 11, 72, 72
13, 97799, Note_on_c, 11, 72, 0
13, 97920, Note_on_c, 11, 69, 76
13, 97920, Note_on_c, 11, 81, 76
13, 98039, Note_on_c, 11, 69, 0
13, 98039, Note_on_c, 11, 81, 0
13, 98160, Note_on_c, 11, 84, 84
13, 98219, Note_on_c, 11, 84, 0
13, 98220, Note_on_c, 11, 84, 76
13, 98519, Note_on_c, 11, 84, 0
13, 98520, Note_on_c, 11, 82, 76
13, 98639, Note_on_c, 11, 82, 0
13, 98640, Note_on_c, 11, 79, 76
13, 98759, Note_on_c, 11, 79, 0
13, 98760, Note_on_c, 11, 76, 76
13, 98879, Note_on_c, 11, 76, 0
13, 98880, Note_on_c, 11, 79, 76
13, 98999, Note_on_c, 11, 79, 0
13, 99000, Note_on_c, 11, 77, 76
13, 99119, Note_on_c, 11, 77, 0
13, 99120, Note_on_c, 11, 81, 76
13, 99239, Note_on_c, 11, 81, 0
13, 99240, Note_on_c, 11, 77, 76
13, 99359, Note_on_c, 11, 77, 0
13, 99360, Note_on_c, 11, 72, 76
13, 99479, Note_on_c, 11, 72, 0
13, 99480, Note_on_c, 11, 73, 76
13, 99599, Note_on_c, 11, 73, 0
13, 99600, Note_on_c, 11, 76, 76
13, 99719, Note_on_c, 11, 76, 0
13, 99720, Note_on_c, 11, 74, 76
13, 99839, Note_on_c, 11, 74, 0
13, 99840, Note_on_c, 11, 67, 76
13, 99959, Note_on_c, 11, 67, 0
13, 99960, Note_on_c, 11, 69, 76
13, 100079, Note_on_c, 11, 69, 0
13, 100080, Note_on_c, 11, 70, 76
13, 100184, Note_on_c, 11, 70, 0
13, 100200, Note_on_c, 11, 64, 76
13, 100304, Note_on_c, 11, 64, 0
13, 100320, Note_on_c, 11, 64, 76
13, 100559, Note_on_c, 11, 64, 0
13, 100560, Note_on_c, 11, 65, 76
13, 100679, Note_on_c, 11, 65, 0
13, 100800, Note_on_c, 11, 65, 76
13, 100919, Note_on_c, 11, 65, 0
13, 100920, Note_on_c, 11, 60, 76
13, 101024, Note_on_c, 11, 60, 0
13, 101040, Note_on_c, 11, 65, 84
13, 101159, Note_on_c, 11, 65, 0
13, 101160, Note_on_c, 11, 60, 76
13, 101279, Note_on_c, 11, 60, 0
13, 101280, Note_on_c, 11, 65, 84
13, 101399, Note_on_c, 11, 65, 0
13, 101400, Note_on_c, 11, 60, 76
13, 101504, Note_on_c, 11, 60, 0
13, 101520, Note_on_c, 11, 69, 84
13, 101639, Note_on_c, 11, 69, 0
13, 101640, Note_on_c, 11, 65, 76
13, 101744, Note_on_c, 11, 65, 0
13, 101760, Note_on_c, 11, 69, 84
13, 101879, Note_on_c, 11, 69, 0
13, 101880, Note_on_c, 11, 65, 76
13, 101999, Note_on_c, 11, 65, 0
13, 102000, Note_on_c, 11, 69, 84
13, 102119, Note_on_c, 11, 69, 0
13, 102120, Note_on_c, 11, 65, 76
13, 102224, Note_on_c, 11, 65, 0
13, 102240, Note_on_c, 11, 81, 52
13, 102329, Note_on_c, 11, 81, 0
13, 102480, Note_on_c, 11, 84, 52
13, 102839, Note_on_c, 11, 84, 0
13, 102840, Note_on_c, 11, 82, 52
13, 102959, Note_on_c, 11, 82, 0
13, 102960, Note_on_c, 11, 79, 52
13, 103079, Note_on_c, 11, 79, 0
13, 103080, Note_on_c, 11, 76, 52
13, 103199, Note_on_c, 11, 76, 0
13, 103200, Note_on_c, 11, 79, 52
13, 103319, Note_on_c, 11, 79, 0
13, 103320, Note_on_c, 11, 77, 52
13, 103439, Note_on_c, 11, 77, 0
13, 103440, Note_on_c, 11, 81, 52
13, 103559, Note_on_c, 11, 81, 0
13, 103560, Note_on_c, 11, 77, 52
13, 103679, Note_on_c, 11, 77, 0
13, 103680, Note_on_c, 11, 72, 52
13, 103799, Note_on_c, 11, 72, 0
13, 103800, Note_on_c, 11, 73, 54
13, 103919, Note_on_c, 11, 73, 0
13, 103920, Note_on_c, 11, 76, 56
13, 104039, Note_on_c, 11, 76, 0
13, 104040, Note_on_c, 11, 74, 58
13, 104159, Note_on_c, 11, 74, 0
13, 104160, Note_on_c, 11, 67, 60
13, 104279, Note_on_c, 11, 67, 0
13, 104280, Note_on_c, 11, 69, 62
13, 104399, Note_on_c, 11, 69, 0
13, 104400, Note_on_c, 11, 70, 64
13, 104519, Note_on_c, 11, 70, 0
13, 104520, Note_on_c, 11, 71, 66
13, 104624, Note_on_c, 11, 71, 0
13, 104640, Note_on_c, 11, 71, 68
13, 104879, Note_on_c, 11, 71, 0
13, 104880, Note_on_c, 11, 72, 72
13, 104999, Note_on_c, 11, 72, 0
13, 105120, Note_on_c, 11, 69, 76
13, 105120, Note_on_c, 11, 81, 76
13, 105239, Note_on_c, 11, 69, 0
13, 105239, Note_on_c, 11, 81, 0
13, 105360, Note_on_c, 11, 84, 84
13, 105419, Note_on_c, 11, 84, 0
13, 105420, Note_on_c, 11, 84, 76
13, 105719, Note_on_c, 11, 84, 0
13, 105720, Note_on_c, 11, 82, 76
13, 105839, Note_on_c, 11, 82, 0
13, 105840, Note_on_c, 11, 79, 76
13, 105959, Note_on_c, 11, 79, 0
13, 105960, Note_on_c, 11, 76, 76
13, 106079, Note_on_c, 11, 76, 0
13, 106080, Note_on_c, 11, 79, 76
13, 106199, Note_on_c, 11, 79, 0
13, 106200, Note_on_c, 11, 77, 76
13, 106319, Note_on_c, 11, 77, 0
13, 106320, Note_on_c, 11, 81, 76
13, 106439, Note_on_c, 11, 81, 0
13, 106440, Note_on_c, 11, 77, 76
13, 106559, Note_on_c, 11, 77, 0
13, 106560, Note_on_c, 11, 72, 76
13, 106679, Note_on_c, 11, 72, 0
13, 106680, Note_on_c, 11, 73, 76
13, 106799, Note_on_c, 11, 73, 0
13, 106800, Note_on_c, 11, 76, 76
13, 106919, Note_on_c, 11, 76, 0
13, 106920, Note_on_c, 11, 74, 76
13, 107039, Note_on_c, 11, 74, 0
13, 107040, Note_on_c, 11, 67, 76
13, 107159, Note_on_c, 11, 67, 0
13, 107160, Note_on_c, 11, 69, 76
13, 107279, Note_on_c, 11, 69, 0
13, 107280, Note_on_c, 11, 70, 76
13, 107384, Note_on_c, 11, 70, 0
13, 107400, Note_on_c, 11, 64, 76
13, 107504, Note_on_c, 11, 64, 0
13, 107520, Note_on_c, 11, 64, 76
13, 107759, Note_on_c, 11, 64, 0
13, 107760, Note_on_c, 11, 65, 76
13, 107879, Note_on_c, 11, 65, 0
13, 108000, Note_on_c, 11, 76, 76
13, 108089, Note_on_c, 11, 76, 0
13, 108240, Note_on_c, 11, 79, 84
13, 108299, Note_on_c, 11, 79, 0
13, 108300, Note_on_c, 11, 79, 76
13, 108599, Note_on_c, 11, 79, 0
13, 108600, Note_on_c, 11, 77, 76
13, 108719, Note_on_c, 11, 77, 0
13, 108720, Note_on_c, 11, 74, 76
13, 108839, Note_on_c, 11, 74, 0
13, 108840, Note_on_c, 11, 71, 76
13, 108944, Note_on_c, 11, 71, 0
13, 108960, Note_on_c, 11, 67, 76
13, 109079, Note_on_c, 11, 67, 0
13, 109200, Note_on_c, 11, 55, 84
13, 109200, Note_on_c, 11, 64, 84
13, 109200, Note_on_c, 11, 72, 84
13, 109259, Note_on_c, 11, 55, 0
13, 109259, Note_on_c, 11, 64, 0
13, 109259, Note_on_c, 11, 72, 0
13, 109260, Note_on_c, 11, 72, 76
13, 109260, Note_on_c, 11, 64, 76
13, 109260, Note_on_c, 11, 55, 76
13, 109439, Note_on_c, 11, 64, 0
13, 109439, Note_on_c, 11, 55, 0
13, 109664, Note_on_c, 11, 72, 0
13, 109680, Note_on_c, 11, 67, 76
13, 109799, Note_on_c, 11, 67, 0
13, 109920, Note_on_c, 11, 74, 84
13, 109920, Note_on_c, 11, 55, 84
13, 109920, Note_on_c, 11, 67, 84
13, 109979, Note_on_c, 11, 74, 0
13, 109979, Note_on_c, 11, 55, 0
13, 109979, Note_on_c, 11, 67, 0
13, 109980, Note_on_c, 11, 74, 76
13, 109980, Note_on_c, 11, 55, 76
13, 109980, Note_on_c, 11, 67, 76
13, 110159, Note_on_c, 11, 55, 0
13, 110159, Note_on_c, 11, 67, 0
13, 110384, Note_on_c, 11, 74, 0
13, 110400, Note_on_c, 11, 67, 76
13, 110519, Note_on_c, 11, 67, 0
13, 110640, Note_on_c, 11, 76, 84
13, 110640, Note_on_c, 11, 55, 84
13, 110640, Note_on_c, 11, 64, 84
13, 110699, Note_on_c, 11, 76, 0
13, 110699, Note_on_c, 11, 55, 0
13, 110699, Note_on_c, 11, 64, 0
13, 110700, Note_on_c, 11, 64, 76
13, 110700, Note_on_c, 11, 55, 76
13, 110700, Note_on_c, 11, 76, 76
13, 110864, Note_on_c, 11, 76, 0
13, 110879, Note_on_c, 11, 64, 0
13, 110879, Note_on_c, 11, 55, 0
13, 110880, Note_on_c, 11, 76, 76
13, 110969, Note_on_c, 11, 76, 0
13, 111120, Note_on_c, 11, 79, 84
13, 111179, Note_on_c, 11, 79, 0
13, 111180, Note_on_c, 11, 79, 76
13, 111479, Note_on_c, 11, 79, 0
13, 111480, Note_on_c, 11, 77, 76
13, 111599, Note_on_c, 11, 77, 0
13, 111600, Note_on_c, 11, 74, 76
13, 111719, Note_on_c, 11, 74, 0
13, 111720, Note_on_c, 11, 71, 76
13, 111824, Note_on_c, 11, 71, 0
13, 111840, Note_on_c, 11, 81, 84
13, 111899, Note_on_c, 11, 81, 0
13, 111900, Note_on_c, 11, 81, 76
13, 112199, Note_on_c, 11, 81, 0
13, 112200, Note_on_c, 11, 79, 76
13, 112319, Note_on_c, 11, 79, 0
13, 112320, Note_on_c, 11, 76, 76
13, 112439, Note_on_c, 11, 76, 0
13, 112440, Note_on_c, 11, 72, 76
13, 112544, Note_on_c, 11, 72, 0
13, 112560, Note_on_c, 11, 84, 84
13, 112619, Note_on_c, 11, 84, 0
13, 112620, Note_on_c, 11, 84, 76
13, 112919, Note_on_c, 11, 84, 0
13, 112920, Note_on_c, 11, 82, 76
13, 113039, Note_on_c, 11, 82, 0
13, 113040, Note_on_c, 11, 79, 76
13, 113159, Note_on_c, 11, 79, 0
13, 113160, Note_on_c, 11, 76, 76
13, 113264, Note_on_c, 11, 76, 0
13, 113280, Note_on_c, 11, 86, 84
13, 113339, Note_on_c, 11, 86, 0
13, 113340, Note_on_c, 11, 86, 76
13, 113639, Note_on_c, 11, 86, 0
13, 113640, Note_on_c, 11, 84, 76
13, 113759, Note_on_c, 11, 84, 0
13, 113760, Note_on_c, 11, 81, 76
13, 113879, Note_on_c, 11, 81, 0
13, 113880, Note_on_c, 11, 77, 76
13, 113984, Note_on_c, 11, 77, 0
13, 114000, Note_on_c, 11, 75, 76
13, 114119, Note_on_c, 11, 75, 0
13, 114120, Program_c, 11, 45
13, 114240, Note_on_c, 11, 63, 44
13, 114359, Note_on_c, 11, 63, 0
13, 114360, Program_c, 11, 48
13, 114720, Note_on_c, 11, 77, 52
13, 114839, Note_on_c, 11, 77, 0
13, 114840, Note_on_c, 11, 75, 52
13, 114959, Note_on_c, 11, 75, 0
13, 114960, Note_on_c, 11, 72, 51
13, 115079, Note_on_c, 11, 72, 0
13, 115080, Note_on_c, 11, 69, 51
13, 115199, Note_on_c, 11, 69, 0
13, 115680, Note_on_c, 11, 77, 48
13, 115799, Note_on_c, 11, 77, 0
13, 115800, Note_on_c, 11, 75, 48
13, 115919, Note_on_c, 11, 75, 0
13, 115920, Note_on_c, 11, 72, 47
13, 116039, Note_on_c, 11, 72, 0
13, 116040, Note_on_c, 11, 69, 47
13, 116159, Note_on_c, 11, 69, 0
13, 116640, Note_on_c, 11, 65, 44
13, 116640, Note_on_c, 11, 74, 44
13, 116759, Note_on_c, 11, 65, 0
13, 116759, Note_on_c, 11, 74, 0
13, 117120, Note_on_c, 11, 65, 44
13, 117120, Note_on_c, 11, 74, 44
13, 117239, Note_on_c, 11, 65, 0
13, 117239, Note_on_c, 11, 74, 0
13, 117600, Note_on_c, 11, 65, 44
13, 117600, Note_on_c, 11, 74, 44
13, 117719, Note_on_c, 11, 65, 0
13, 117719, Note_on_c, 11, 74, 0
13, 119520, Note_on_c, 11, 77, 44
13, 119639, Note_on_c, 11, 77, 0
13, 119640, Note_on_c, 11, 78, 44
13, 119759, Note_on_c, 11, 78, 0
13, 119760, Note_on_c, 11, 81, 44
13, 119879, Note_on_c, 11, 81, 0
13, 119880, Note_on_c, 11, 79, 44
13, 119999, Note_on_c, 11, 79, 0
13, 120000, Note_on_c, 11, 82, 44
13, 120119, Note_on_c, 11, 82, 0
13, 120120, Note_on_c, 11, 79, 44
13, 120239, Note_on_c, 11, 79, 0
13, 120240, Note_on_c, 11, 74, 44
13, 120359, Note_on_c, 11, 74, 0
13, 120360, Note_on_c, 11, 76, 44
13, 120479, Note_on_c, 11, 76, 0
13, 120480, Note_on_c, 11, 77, 44
13, 120599, Note_on_c, 11, 77, 0
13, 120600, Note_on_c, 11, 81, 44
13, 120719, Note_on_c, 11, 81, 0
13, 120720, Note_on_c, 11, 84, 44
13, 120824, Note_on_c, 11, 84, 0
13, 120840, Note_on_c, 11, 84, 44
13, 120929, Note_on_c, 11, 84, 0
13, 120960, Note_on_c, 11, 84, 44
13, 121049, Note_on_c, 11, 84, 0
13, 121080, Note_on_c, 11, 84, 45
13, 121169, Note_on_c, 11, 84, 0
13, 121200, Note_on_c, 11, 84, 47
13, 121319, Note_on_c, 11, 84, 0
13, 121320, Note_on_c, 11, 83, 49
13, 121439, Note_on_c, 11, 83, 0
13, 121440, Note_on_c, 11, 84, 50
13, 121559, Note_on_c, 11, 84, 0
13, 121560, Note_on_c, 11, 82, 52
13, 121679, Note_on_c, 11, 82, 0
13, 121680, Note_on_c, 11, 79, 54
13, 121799, Note_on_c, 11, 79, 0
13, 121800, Note_on_c, 11, 76, 55
13, 121919, Note_on_c, 11, 76, 0
13, 121920, Note_on_c, 11, 79, 57
13, 122039, Note_on_c, 11, 79, 0
13, 122040, Note_on_c, 11, 77, 59
13, 122159, Note_on_c, 11, 77, 0
13, 122160, Note_on_c, 11, 81, 60
13, 122279, Note_on_c, 11, 81, 0
13, 122280, Note_on_c, 11, 77, 62
13, 122399, Note_on_c, 11, 77, 0
13, 122400, Note_on_c, 11, 72, 64
13, 122519, Note_on_c, 11, 72, 0
13, 122520, Note_on_c, 11, 73, 65
13, 122639, Note_on_c, 11, 73, 0
13, 122640, Note_on_c, 11, 76, 67
13, 122759, Note_on_c, 11, 76, 0
13, 122760, Note_on_c, 11, 74, 69
13, 122879, Note_on_c, 11, 74, 0
13, 122880, Note_on_c, 11, 67, 70
13, 122999, Note_on_c, 11, 67, 0
13, 123000, Note_on_c, 11, 69, 72
13, 123119, Note_on_c, 11, 69, 0
13, 123120, Note_on_c, 11, 70, 74
13, 123224, Note_on_c, 11, 70, 0
13, 123240, Note_on_c, 11, 71, 76
13, 123344, Note_on_c, 11, 71, 0
13, 123360, Note_on_c, 11, 71, 80
13, 123599, Note_on_c, 11, 71, 0
13, 123600, Note_on_c, 11, 72, 80
13, 123719, Note_on_c, 11, 72, 0
13, 123720, Note_on_c, 11, 74, 80
13, 123839, Note_on_c, 11, 74, 0
13, 123840, Note_on_c, 11, 75, 80
13, 123944, Note_on_c, 11, 75, 0
13, 123960, Note_on_c, 11, 76, 80
13, 124064, Note_on_c, 11, 76, 0
13, 124080, Note_on_c, 11, 76, 80
13, 124319, Note_on_c, 11, 76, 0
13, 124320, Note_on_c, 11, 77, 80
13, 124439, Note_on_c, 11, 77, 0
13, 124440, Note_on_c, 11, 79, 80
13, 124559, Note_on_c, 11, 79, 0
13, 124560, Note_on_c, 11, 80, 80
13, 124664, Note_on_c, 11, 80, 0
13, 124680, Note_on_c, 11, 81, 84
13, 124784, Note_on_c, 11, 81, 0
13, 124800, Note_on_c, 11, 81, 84
13, 125039, Note_on_c, 11, 81, 0
13, 125040, Note_on_c, 11, 82, 84
13, 125159, Note_on_c, 11, 82, 0
13, 126120, Note_on_c, 11, 76, 84
13, 126224, Note_on_c, 11, 76, 0
13, 126240, Note_on_c, 11, 76, 84
13, 126479, Note_on_c, 11, 76, 0
13, 126480, Note_on_c, 11, 77, 84
13, 126599, Note_on_c, 11, 77, 0
13, 127560, Note_on_c, 11, 81, 84
13, 127664, Note_on_c, 11, 81, 0
13, 127680, Note_on_c, 11, 79, 84
13, 127919, Note_on_c, 11, 79, 0
13, 127920, Note_on_c, 11, 81, 84
13, 128039, Note_on_c, 11, 81, 0
13, 129000, Note_on_c, 11, 81, 84
13, 129104, Note_on_c, 11, 81, 0
13, 129120, Note_on_c, 11, 79, 84
13, 129359, Note_on_c, 11, 79, 0
13, 129360, Note_on_c, 11, 81, 84
13, 129479, Note_on_c, 11, 81, 0
13, 130080, Note_on_c, 11, 76, 84
13, 130319, Note_on_c, 11, 76, 0
13, 130320, Note_on_c, 11, 77, 84
13, 130439, Note_on_c, 11, 77, 0
13, 131040, Note_on_c, 11, 64, 92
13, 131099, Note_on_c, 11, 64, 0
13, 131100, Note_on_c, 11, 64, 84
13, 131279, Note_on_c, 11, 64, 0
13, 131280, Note_on_c, 11, 64, 84
13, 131999, Note_on_c, 11, 64, 0
13, 132000, Note_on_c, 11, 64, 84
13, 132239, Note_on_c, 11, 64, 0
13, 132240, Note_on_c, 11, 65, 84
13, 132359, Note_on_c, 11, 65, 0
13, 132480, Note_on_c, 11, 76, 84
13, 132569, Note_on_c, 11, 76, 0
13, 132720, Note_on_c, 11, 79, 84
13, 132779, Note_on_c, 11, 79, 0
13, 132780, Note_on_c, 11, 79, 76
13, 133079, Note_on_c, 11, 79, 0
13, 133080, Note_on_c, 11, 77, 76
13, 133199, Note_on_c, 11, 77, 0
13, 133200, Note_on_c, 11, 74, 76
13, 133319, Note_on_c, 11, 74, 0
13, 133320, Note_on_c, 11, 71, 76
13, 133424, Note_on_c, 11, 71, 0
13, 133440, Note_on_c, 11, 67, 76
13, 133559, Note_on_c, 11, 67, 0
13, 133680, Note_on_c, 11, 55, 84
13, 133680, Note_on_c, 11, 72, 84
13, 133680, Note_on_c, 11, 64, 84
13, 133739, Note_on_c, 11, 55, 0
13, 133739, Note_on_c, 11, 72, 0
13, 133739, Note_on_c, 11, 64, 0
13, 133740, Note_on_c, 11, 55, 76
13, 133740, Note_on_c, 11, 64, 76
13, 133740, Note_on_c, 11, 72, 76
13, 133919, Note_on_c, 11, 55, 0
13, 133919, Note_on_c, 11, 64, 0
13, 134144, Note_on_c, 11, 72, 0
13, 134160, Note_on_c, 11, 67, 76
13, 134279, Note_on_c, 11, 67, 0
13, 134400, Note_on_c, 11, 74, 84
13, 134400, Note_on_c, 11, 67, 84
13, 134400, Note_on_c, 11, 55, 84
13, 134459, Note_on_c, 11, 74, 0
13, 134459, Note_on_c, 11, 67, 0
13, 134459, Note_on_c, 11, 55, 0
13, 134460, Note_on_c, 11, 67, 76
13, 134460, Note_on_c, 11, 55, 76
13, 134460, Note_on_c, 11, 74, 76
13, 134639, Note_on_c, 11, 67, 0
13, 134639, Note_on_c, 11, 55, 0
13, 134864, Note_on_c, 11, 74, 0
13, 134880, Note_on_c, 11, 67, 76
13, 134999, Note_on_c, 11, 67, 0
13, 135120, Note_on_c, 11, 64, 84
13, 135120, Note_on_c, 11, 55, 84
13, 135120, Note_on_c, 11, 76, 84
13, 135179, Note_on_c, 11, 64, 0
13, 135179, Note_on_c, 11, 55, 0
13, 135179, Note_on_c, 11, 76, 0
13, 135180, Note_on_c, 11, 64, 76
13, 135180, Note_on_c, 11, 55, 76
13, 135180, Note_on_c, 11, 76, 76
13, 135344, Note_on_c, 11, 76, 0
13, 135359, Note_on_c, 11, 64, 0
13, 135359, Note_on_c, 11, 55, 0
13, 135360, Note_on_c, 11, 76, 76
13, 135449, Note_on_c, 11, 76, 0
13, 135600, Note_on_c, 11, 79, 84
13, 135659, Note_on_c, 11, 79, 0
13, 135660, Note_on_c, 11, 79, 76
13, 135959, Note_on_c, 11, 79, 0
13, 135960, Note_on_c, 11, 77, 76
13, 136079, Note_on_c, 11, 77, 0
13, 136080, Note_on_c, 11, 74, 76
13, 136199, Note_on_c, 11, 74, 0
13, 136200, Note_on_c, 11, 71, 76
13, 136304, Note_on_c, 11, 71, 0
13, 136320, Note_on_c, 11, 81, 84
13, 136379, Note_on_c, 11, 81, 0
13, 136380, Note_on_c, 11, 81, 76
13, 136679, Note_on_c, 11, 81, 0
13, 136680, Note_on_c, 11, 79, 76
13, 136799, Note_on_c, 11, 79, 0
13, 136800, Note_on_c, 11, 76, 76
13, 136919, Note_on_c, 11, 76, 0
13, 136920, Note_on_c, 11, 72, 76
13, 137024, Note_on_c, 11, 72, 0
13, 137040, Note_on_c, 11, 84, 84
13, 137099, Note_on_c, 11, 84, 0
13, 137100, Note_on_c, 11, 84, 76
13, 137399, Note_on_c, 11, 84, 0
13, 137400, Note_on_c, 11, 82, 76
13, 137519, Note_on_c, 11, 82, 0
13, 137520, Note_on_c, 11, 79, 76
13, 137639, Note_on_c, 11, 79, 0
13, 137640, Note_on_c, 11, 76, 76
13, 137744, Note_on_c, 11, 76, 0
13, 137760, Note_on_c, 11, 86, 84
13, 137819, Note_on_c, 11, 86, 0
13, 137820, Note_on_c, 11, 86, 76
13, 138119, Note_on_c, 11, 86, 0
13, 138120, Note_on_c, 11, 84, 76
13, 138239, Note_on_c, 11, 84, 0
13, 138240, Note_on_c, 11, 81, 76
13, 138359, Note_on_c, 11, 81, 0
13, 138360, Note_on_c, 11, 77, 76
13, 138464, Note_on_c, 11, 77, 0
13, 138480, Note_on_c, 11, 75, 76
13, 138599, Note_on_c, 11, 75, 0
13, 138600, Program_c, 11, 45
13, 138720, Note_on_c, 11, 63, 44
13, 138839, Note_on_c, 11, 63, 0
13, 138840, Program_c, 11, 48
13, 139200, Note_on_c, 11, 77, 52
13, 139319, Note_on_c, 11, 77, 0
13, 139320, Note_on_c, 11, 75, 52
13, 139439, Note_on_c, 11, 75, 0
13, 139440, Note_on_c, 11, 72, 51
13, 139559, Note_on_c, 11, 72, 0
13, 139560, Note_on_c, 11, 69, 51
13, 139679, Note_on_c, 11, 69, 0
13, 140160, Note_on_c, 11, 77, 48
13, 140279, Note_on_c, 11, 77, 0
13, 140280, Note_on_c, 11, 75, 48
13, 140399, Note_on_c, 11, 75, 0
13, 140400, Note_on_c, 11, 72, 47
13, 140519, Note_on_c, 11, 72, 0
13, 140520, Note_on_c, 11, 69, 47
13, 140639, Note_on_c, 11, 69, 0
13, 141120, Note_on_c, 11, 74, 44
13, 141120, Note_on_c, 11, 65, 44
13, 141239, Note_on_c, 11, 74, 0
13, 141239, Note_on_c, 11, 65, 0
13, 141600, Note_on_c, 11, 65, 44
13, 141600, Note_on_c, 11, 74, 44
13, 141719, Note_on_c, 11, 65, 0
13, 141719, Note_on_c, 11, 74, 0
13, 142080, Note_on_c, 11, 65, 44
13, 142080, Note_on_c, 11, 74, 44
13, 142199, Note_on_c, 11, 65, 0
13, 142199, Note_on_c, 11, 74, 0
13, 144000, Note_on_c, 11, 77, 44
13, 144119, Note_on_c, 11, 77, 0
13, 144120, Note_on_c, 11, 78, 44
13, 144239, Note_on_c, 11, 78, 0
13, 144240, Note_on_c, 11, 81, 44
13, 144359, Note_on_c, 11, 81, 0
13, 144360, Note_on_c, 11, 79, 44
13, 144479, Note_on_c, 11, 79, 0
13, 144480, Note_on_c, 11, 82, 44
13, 144599, Note_on_c, 11, 82, 0
13, 144600, Note_on_c, 11, 79, 44
13, 144719, Note_on_c, 11, 79, 0
13, 144720, Note_on_c, 11, 74, 44
13, 144839, Note_on_c, 11, 74, 0
13, 144840, Note_on_c, 11, 76, 44
13, 144959, Note_on_c, 11, 76, 0
13, 144960, Note_on_c, 11, 77, 44
13, 145079, Note_on_c, 11, 77, 0
13, 145080, Note_on_c, 11, 81, 44
13, 145199, Note_on_c, 11, 81, 0
13, 145200, Note_on_c, 11, 84, 44
13, 145304, Note_on_c, 11, 84, 0
13, 145320, Note_on_c, 11, 84, 44
13, 145409, Note_on_c, 11, 84, 0
13, 145440, Note_on_c, 11, 84, 44
13, 145529, Note_on_c, 11, 84, 0
13, 145560, Note_on_c, 11, 84, 45
13, 145649, Note_on_c, 11, 84, 0
13, 145680, Note_on_c, 11, 84, 47
13, 145799, Note_on_c, 11, 84, 0
13, 145800, Note_on_c, 11, 83, 49
13, 145919, Note_on_c, 11, 83, 0
13, 145920, Note_on_c, 11, 84, 50
13, 146039, Note_on_c, 11, 84, 0
13, 146040, Note_on_c, 11, 82, 52
13, 146159, Note_on_c, 11, 82, 0
13, 146160, Note_on_c, 11, 79, 54
13, 146279, Note_on_c, 11, 79, 0
13, 146280, Note_on_c, 11, 76, 55
13, 146399, Note_on_c, 11, 76, 0
13, 146400, Note_on_c, 11, 79, 57
13, 146519, Note_on_c, 11, 79, 0
13, 146520, Note_on_c, 11, 77, 59
13, 146639, Note_on_c, 11, 77, 0
13, 146640, Note_on_c, 11, 81, 60
13, 146759, Note_on_c, 11, 81, 0
13, 146760, Note_on_c, 11, 77, 62
13, 146879, Note_on_c, 11, 77, 0
13, 146880, Note_on_c, 11, 72, 64
13, 146999, Note_on_c, 11, 72, 0
13, 147000, Note_on_c, 11, 73, 65
13, 147119, Note_on_c, 11, 73, 0
13, 147120, Note_on_c, 11, 76, 67
13, 147239, Note_on_c, 11, 76, 0
13, 147240, Note_on_c, 11, 74, 69
13, 147359, Note_on_c, 11, 74, 0
13, 147360, Note_on_c, 11, 67, 70
13, 147479, Note_on_c, 11, 67, 0
13, 147480, Note_on_c, 11, 69, 72
13, 147599, Note_on_c, 11, 69, 0
13, 147600, Note_on_c, 11, 70, 74
13, 147704, Note_on_c, 11, 70, 0
13, 147720, Note_on_c, 11, 71, 76
13, 147824, Note_on_c, 11, 71, 0
13, 147840, Note_on_c, 11, 71, 80
13, 148079, Note_on_c, 11, 71, 0
13, 148080, Note_on_c, 11, 72, 80
13, 148199, Note_on_c, 11, 72, 0
13, 148200, Note_on_c, 11, 74, 80
13, 148319, Note_on_c, 11, 74, 0
13, 148320, Note_on_c, 11, 75, 80
13, 148424, Note_on_c, 11, 75, 0
13, 148440, Note_on_c, 11, 76, 80
13, 148544, Note_on_c, 11, 76, 0
13, 148560, Note_on_c, 11, 76, 80
13, 148799, Note_on_c, 11, 76, 0
13, 148800, Note_on_c, 11, 77, 80
13, 148919, Note_on_c, 11, 77, 0
13, 148920, Note_on_c, 11, 79, 80
13, 149039, Note_on_c, 11, 79, 0
13, 149040, Note_on_c, 11, 80, 80
13, 149144, Note_on_c, 11, 80, 0
13, 149160, Note_on_c, 11, 81, 84
13, 149264, Note_on_c, 11, 81, 0
13, 149280, Note_on_c, 11, 81, 84
13, 149519, Note_on_c, 11, 81, 0
13, 149520, Note_on_c, 11, 82, 84
13, 149639, Note_on_c, 11, 82, 0
13, 150600, Note_on_c, 11, 76, 84
13, 150704, Note_on_c, 11, 76, 0
13, 150720, Note_on_c, 11, 76, 84
13, 150959, Note_on_c, 11, 76, 0
13, 150960, Note_on_c, 11, 77, 84
13, 151079, Note_on_c, 11, 77, 0
13, 152040, Note_on_c, 11, 81, 84
13, 152144, Note_on_c, 11, 81, 0
13, 152160, Note_on_c, 11, 79, 84
13, 152399, Note_on_c, 11, 79, 0
13, 152400, Note_on_c, 11, 81, 84
13, 152519, Note_on_c, 11, 81, 0
13, 153480, Note_on_c, 11, 81, 84
13, 153584, Note_on_c, 11, 81, 0
13, 153600, Note_on_c, 11, 79, 84
13, 153839, Note_on_c, 11, 79, 0
13, 153840, Note_on_c, 11, 81, 84
13, 153959, Note_on_c, 11, 81, 0
13, 154560, Note_on_c, 11, 76, 84
13, 154799, Note_on_c, 11, 76, 0
13, 154800, Note_on_c, 11, 77, 84
13, 154919, Note_on_c, 11, 77, 0
13, 155520, Note_on_c, 11, 64, 92
13, 155579, Note_on_c, 11, 64, 0
13, 155580, Note_on_c, 11, 64, 84
13, 155759, Note_on_c, 11, 64, 0
13, 155760, Note_on_c, 11, 64, 84
13, 156479, Note_on_c, 11, 64, 0
13, 156480, Note_on_c, 11, 64, 84
13, 156719, Note_on_c, 11, 64, 0
13, 156720, Note_on_c, 11, 65, 84
13, 156839, Note_on_c, 11, 65, 0
13, 156839, End_track
14, 0, Start_track
14, 0, Title_t, "Violin II"
14, 0, MIDI_port, 0
14, 0, Program_c, 12, 48
14, 0, Control_c, 12, 7, 96
14, 0, Control_c, 12, 10, 24
14, 0, Control_c, 12, 11, 127
14, 0, Note_on_c, 12, 65, 76
14, 119, Note_on_c, 12, 65, 0
14, 120, Note_on_c, 12, 60, 76
14, 224, Note_on_c, 12, 60, 0
14, 240, Note_on_c, 12, 65, 84
14, 359, Note_on_c, 12, 65, 0
14, 360, Note_on_c, 12, 60, 76
14, 479, Note_on_c, 12, 60, 0
14, 480, Note_on_c, 12, 65, 84
14, 599, Note_on_c, 12, 65, 0
14, 600, Note_on_c, 12, 60, 76
14, 704, Note_on_c, 12, 60, 0
14, 720, Note_on_c, 12, 69, 84
14, 839, Note_on_c, 12, 69, 0
14, 840, Note_on_c, 12, 65, 76
14, 944, Note_on_c, 12, 65, 0
14, 960, Note_on_c, 12, 69, 84
14, 1079, Note_on_c, 12, 69, 0
14, 1080, Note_on_c, 12, 65, 76
14, 1199, Note_on_c, 12, 65, 0
14, 1200, Note_on_c, 12, 69, 84
14, 1319, Note_on_c, 12, 69, 0
14, 1320, Note_on_c, 12, 65, 76
14, 1424, Note_on_c, 12, 65, 0
14, 1440, Note_on_c, 12, 69, 52
14, 1559, Note_on_c, 12, 69, 0
14, 1560, Note_on_c, 12, 65, 52
14, 1679, Note_on_c, 12, 65, 0
14, 1680, Note_on_c, 12, 70, 52
14, 1799, Note_on_c, 12, 70, 0
14, 1800, Note_on_c, 12, 67, 52
14, 1919, Note_on_c, 12, 67, 0
14, 1920, Note_on_c, 12, 70, 52
14, 2039, Note_on_c, 12, 70, 0
14, 2040, Note_on_c, 12, 67, 52
14, 2159, Note_on_c, 12, 67, 0
14, 2160, Note_on_c, 12, 70, 52
14, 2279, Note_on_c, 12, 70, 0
14, 2280, Note_on_c, 12, 67, 52
14, 2384, Note_on_c, 12, 67, 0
14, 2400, Note_on_c, 12, 72, 52
14, 2519, Note_on_c, 12, 72, 0
14, 2520, Note_on_c, 12, 69, 52
14, 2639, Note_on_c, 12, 69, 0
14, 2640, Note_on_c, 12, 72, 52
14, 2759, Note_on_c, 12, 72, 0
14, 2760, Note_on_c, 12, 69, 52
14, 2864, Note_on_c, 12, 69, 0
14, 2880, Note_on_c, 12, 60, 52
14, 2999, Note_on_c, 12, 60, 0
14, 3000, Note_on_c, 12, 61, 54
14, 3119, Note_on_c, 12, 61, 0
14, 3120, Note_on_c, 12, 64, 56
14, 3239, Note_on_c, 12, 64, 0
14, 3240, Note_on_c, 12, 62, 58
14, 3344, Note_on_c, 12, 62, 0
14, 3360, Note_on_c, 12, 62, 60
14, 3479, Note_on_c, 12, 62, 0
14, 3480, Note_on_c, 12, 60, 62
14, 3599, Note_on_c, 12, 60, 0
14, 3600, Note_on_c, 12, 58, 64
14, 3719, Note_on_c, 12, 58, 0
14, 3720, Note_on_c, 12, 56, 66
14, 3839, Note_on_c, 12, 56, 0
14, 3840, Note_on_c, 12, 55, 68
14, 3959, Note_on_c, 12, 55, 0
14, 3960, Note_on_c, 12, 65, 70
14, 4079, Note_on_c, 12, 65, 0
14, 4080, Note_on_c, 12, 64, 72
14, 4199, Note_on_c, 12, 64, 0
14, 4200, Note_on_c, 12, 70, 74
14, 4304, Note_on_c, 12, 70, 0
14, 4320, Note_on_c, 12, 81, 76
14, 4320, Note_on_c, 12, 69, 76
14, 4439, Note_on_c, 12, 81, 0
14, 4439, Note_on_c, 12, 69, 0
14, 4560, Note_on_c, 12, 72, 84
14, 4619, Note_on_c, 12, 72, 0
14, 4620, Note_on_c, 12, 72, 76
14, 4919, Note_on_c, 12, 72, 0
14, 4920, Note_on_c, 12, 70, 76
14, 5039, Note_on_c, 12, 70, 0
14, 5040, Note_on_c, 12, 67, 76
14, 5159, Note_on_c, 12, 67, 0
14, 5160, Note_on_c, 12, 64, 76
14, 5279, Note_on_c, 12, 64, 0
14, 5280, Note_on_c, 12, 67, 76
14, 5399, Note_on_c, 12, 67, 0
14, 5400, Note_on_c, 12, 65, 76
14, 5519, Note_on_c, 12, 65, 0
14, 5520, Note_on_c, 12, 69, 76
14, 5639, Note_on_c, 12, 69, 0
14, 5640, Note_on_c, 12, 65, 76
14, 5759, Note_on_c, 12, 65, 0
14, 5760, Note_on_c, 12, 60, 76
14, 5879, Note_on_c, 12, 60, 0
14, 5880, Note_on_c, 12, 61, 76
14, 5999, Note_on_c, 12, 61, 0
14, 6000, Note_on_c, 12, 64, 76
14, 6119, Note_on_c, 12, 64, 0
14, 6120, Note_on_c, 12, 62, 76
14, 6224, Note_on_c, 12, 62, 0
14, 6240, Note_on_c, 12, 62, 76
14, 6359, Note_on_c, 12, 62, 0
14, 6360, Note_on_c, 12, 60, 76
14, 6479, Note_on_c, 12, 60, 0
14, 6480, Note_on_c, 12, 58, 76
14, 6584, Note_on_c, 12, 58, 0
14, 6600, Note_on_c, 12, 58, 76
14, 6704, Note_on_c, 12, 58, 0
14, 6720, Note_on_c, 12, 58, 76
14, 6959, Note_on_c, 12, 58, 0
14, 6960, Note_on_c, 12, 57, 76
14, 7079, Note_on_c, 12, 57, 0
14, 7200, Note_on_c, 12, 65, 76
14, 7319, Note_on_c, 12, 65, 0
14, 7320, Note_on_c, 12, 60, 76
14, 7424, Note_on_c, 12, 60, 0
14, 7440, Note_on_c, 12, 65, 84
14, 7559, Note_on_c, 12, 65, 0
14, 7560, Note_on_c, 12, 60, 76
14, 7679, Note_on_c, 12, 60, 0
14, 7680, Note_on_c, 12, 65, 84
14, 7799, Note_on_c, 12, 65, 0
14, 7800, Note_on_c, 12, 60, 76
14, 7904, Note_on_c, 12, 60, 0
14, 7920, Note_on_c, 12, 69, 84
14, 8039, Note_on_c, 12, 69, 0
14, 8040, Note_on_c, 12, 65, 76
14, 8144, Note_on_c, 12, 65, 0
14, 8160, Note_on_c, 12, 69, 84
14, 8279, Note_on_c, 12, 69, 0
14, 8280, Note_on_c, 12, 65, 76
14, 8399, Note_on_c, 12, 65, 0
14, 8400, Note_on_c, 12, 69, 84
14, 8519, Note_on_c, 12, 69, 0
14, 8520, Note_on_c, 12, 65, 76
14, 8624, Note_on_c, 12, 65, 0
14, 8640, Note_on_c, 12, 69, 52
14, 8759, Note_on_c, 12, 69, 0
14, 8760, Note_on_c, 12, 65, 52
14, 8879, Note_on_c, 12, 65, 0
14, 8880, Note_on_c, 12, 70, 52
14, 8999, Note_on_c, 12, 70, 0
14, 9000, Note_on_c, 12, 67, 52
14, 9119, Note_on_c, 12, 67, 0
14, 9120, Note_on_c, 12, 70, 52
14, 9239, Note_on_c, 12, 70, 0
14, 9240, Note_on_c, 12, 67, 52
14, 9359, Note_on_c, 12, 67, 0
14, 9360, Note_on_c, 12, 70, 52
14, 9479, Note_on_c, 12, 70, 0
14, 9480, Note_on_c, 12, 67, 52
14, 9584, Note_on_c, 12, 67, 0
14, 9600, Note_on_c, 12, 72, 52
14, 9719, Note_on_c, 12, 72, 0
14, 9720, Note_on_c, 12, 69, 52
14, 9839, Note_on_c, 12, 69, 0
14, 9840, Note_on_c, 12, 72, 52
14, 9959, Note_on_c, 12, 72, 0
14, 9960, Note_on_c, 12, 69, 52
14, 10064, Note_on_c, 12, 69, 0
14, 10080, Note_on_c, 12, 60, 52
14, 10199, Note_on_c, 12, 60, 0
14, 10200, Note_on_c, 12, 61, 54
14, 10319, Note_on_c, 12, 61, 0
14, 10320, Note_on_c, 12, 64, 56
14, 10439, Note_on_c, 12, 64, 0
14, 10440, Note_on_c, 12, 62, 58
14, 10544, Note_on_c, 12, 62, 0
14, 10560, Note_on_c, 12, 62, 60
14, 10679, Note_on_c, 12, 62, 0
14, 10680, Note_on_c, 12, 60, 62
14, 10799, Note_on_c, 12, 60, 0
14, 10800, Note_on_c, 12, 58, 64
14, 10919, Note_on_c, 12, 58, 0
14, 10920, Note_on_c, 12, 56, 66
14, 11039, Note_on_c, 12, 56, 0
14, 11040, Note_on_c, 12, 55, 68
14, 11159, Note_on_c, 12, 55, 0
14, 11160, Note_on_c, 12, 65, 70
14, 11279, Note_on_c, 12, 65, 0
14, 11280, Note_on_c, 12, 64, 72
14, 11399, Note_on_c, 12, 64, 0
14, 11400, Note_on_c, 12, 70, 74
14, 11504, Note_on_c, 12, 70, 0
14, 11520, Note_on_c, 12, 81, 76
14, 11520, Note_on_c, 12, 69, 76
14, 11639, Note_on_c, 12, 81, 0
14, 11639, Note_on_c, 12, 69, 0
14, 11760, Note_on_c, 12, 72, 84
14, 11819, Note_on_c, 12, 72, 0
14, 11820, Note_on_c, 12, 72, 76
14, 12119, Note_on_c, 12, 72, 0
14, 12120, Note_on_c, 12, 70, 76
14, 12239, Note_on_c, 12, 70, 0
14, 12240, Note_on_c, 12, 67, 76
14, 12359, Note_on_c, 12, 67, 0
14, 12360, Note_on_c, 12, 64, 76
14, 12479, Note_on_c, 12, 64, 0
14, 12480, Note_on_c, 12, 67, 76
14, 12599, Note_on_c, 12, 67, 0
14, 12600, Note_on_c, 12, 65, 76
14, 12719, Note_on_c, 12, 65, 0
14, 12720, Note_on_c, 12, 69, 76
14, 12839, Note_on_c, 12, 69, 0
14, 12840, Note_on_c, 12, 65, 76
14, 12959, Note_on_c, 12, 65, 0
14, 12960, Note_on_c, 12, 60, 76
14, 13079, Note_on_c, 12, 60, 0
14, 13080, Note_on_c, 12, 61, 76
14, 13199, Note_on_c, 12, 61, 0
14, 13200, Note_on_c, 12, 64, 76
14, 13319, Note_on_c, 12, 64, 0
14, 13320, Note_on_c, 12, 62, 76
14, 13424, Note_on_c, 12, 62, 0
14, 13440, Note_on_c, 12, 62, 76
14, 13559, Note_on_c, 12, 62, 0
14, 13560, Note_on_c, 12, 60, 76
14, 13679, Note_on_c, 12, 60, 0
14, 13680, Note_on_c, 12, 58, 76
14, 13784, Note_on_c, 12, 58, 0
14, 13800, Note_on_c, 12, 58, 76
14, 13904, Note_on_c, 12, 58, 0
14, 13920, Note_on_c, 12, 58, 76
14, 14159, Note_on_c, 12, 58, 0
14, 14160, Note_on_c, 12, 57, 76
14, 14264, Note_on_c, 12, 57, 0
14, 14280, Note_on_c, 12, 65, 76
14, 14399, Note_on_c, 12, 65, 0
14, 14400, Note_on_c, 12, 64, 76
14, 14519, Note_on_c, 12, 64, 0
14, 14520, Note_on_c, 12, 67, 76
14, 14624, Note_on_c, 12, 67, 0
14, 14640, Note_on_c, 12, 67, 76
14, 14759, Note_on_c, 12, 67, 0
14, 14760, Note_on_c, 12, 65, 76
14, 14879, Note_on_c, 12, 65, 0
14, 14880, Note_on_c, 12, 67, 76
14, 14999, Note_on_c, 12, 67, 0
14, 15000, Note_on_c, 12, 65, 76
14, 15104, Note_on_c, 12, 65, 0
14, 15120, Note_on_c, 12, 67, 76
14, 15239, Note_on_c, 12, 67, 0
14, 15360, Note_on_c, 12, 64, 84
14, 15360, Note_on_c, 12, 72, 84
14, 15360, Note_on_c, 12, 55, 84
14, 15419, Note_on_c, 12, 64, 0
14, 15419, Note_on_c, 12, 72, 0
14, 15419, Note_on_c, 12, 55, 0
14, 15420, Note_on_c, 12, 55, 76
14, 15420, Note_on_c, 12, 64, 76
14, 15420, Note_on_c, 12, 72, 76
14, 15599, Note_on_c, 12, 55, 0
14, 15599, Note_on_c, 12, 64, 0
14, 15704, Note_on_c, 12, 72, 0
14, 15720, Note_on_c, 12, 67, 76
14, 15839, Note_on_c, 12, 67, 0
14, 15840, Note_on_c, 12, 64, 76
14, 15959, Note_on_c, 12, 64, 0
14, 15960, Note_on_c, 12, 60, 76
14, 16064, Note_on_c, 12, 60, 0
14, 16080, Note_on_c, 12, 62, 76
14, 16080, Note_on_c, 12, 59, 76
14, 16199, Note_on_c, 12, 62, 0
14, 16199, Note_on_c, 12, 59, 0
14, 16200, Note_on_c, 12, 55, 76
14, 16319, Note_on_c, 12, 55, 0
14, 16320, Note_on_c, 12, 62, 76
14, 16320, Note_on_c, 12, 59, 76
14, 16439, Note_on_c, 12, 62, 0
14, 16439, Note_on_c, 12, 59, 0
14, 16440, Note_on_c, 12, 55, 76
14, 16559, Note_on_c, 12, 55, 0
14, 16560, Note_on_c, 12, 62, 76
14, 16679, Note_on_c, 12, 62, 0
14, 16680, Note_on_c, 12, 59, 76
14, 16784, Note_on_c, 12, 59, 0
14, 16800, Note_on_c, 12, 64, 76
14, 16919, Note_on_c, 12, 64, 0
14, 16920, Note_on_c, 12, 60, 76
14, 17039, Note_on_c, 12, 60, 0
14, 17040, Note_on_c, 12, 64, 76
14, 17159, Note_on_c, 12, 64, 0
14, 17160, Note_on_c, 12, 60, 76
14, 17279, Note_on_c, 12, 60, 0
14, 17280, Note_on_c, 12, 67, 76
14, 17399, Note_on_c, 12, 67, 0
14, 17400, Note_on_c, 12, 64, 76
14, 17504, Note_on_c, 12, 64, 0
14, 17520, Note_on_c, 12, 62, 84
14, 17624, Note_on_c, 12, 62, 0
14, 17640, Note_on_c, 12, 62, 76
14, 17759, Note_on_c, 12, 62, 0
14, 17760, Note_on_c, 12, 67, 76
14, 17879, Note_on_c, 12, 67, 0
14, 17880, Note_on_c, 12, 62, 76
14, 17999, Note_on_c, 12, 62, 0
14, 18000, Note_on_c, 12, 67, 76
14, 18119, Note_on_c, 12, 67, 0
14, 18120, Note_on_c, 12, 62, 76
14, 18224, Note_on_c, 12, 62, 0
14, 18240, Note_on_c, 12, 67, 84
14, 18359, Note_on_c, 12, 67, 0
14, 18360, Note_on_c, 12, 64, 76
14, 18479, Note_on_c, 12, 64, 0
14, 18480, Note_on_c, 12, 67, 76
14, 18599, Note_on_c, 12, 67, 0
14, 18600, Note_on_c, 12, 64, 76
14, 18719, Note_on_c, 12, 64, 0
14, 18720, Note_on_c, 12, 67, 76
14, 18839, Note_on_c, 12, 67, 0
14, 18840, Note_on_c, 12, 64, 76
14, 18944, Note_on_c, 12, 64, 0
14, 18960, Note_on_c, 12, 67, 84
14, 19079, Note_on_c, 12, 67, 0
14, 19080, Note_on_c, 12, 64, 76
14, 19199, Note_on_c, 12, 64, 0
14, 19200, Note_on_c, 12, 67, 76
14, 19319, Note_on_c, 12, 67, 0
14, 19320, Note_on_c, 12, 64, 76
14, 19439, Note_on_c, 12, 64, 0
14, 19440, Note_on_c, 12, 67, 76
14, 19559, Note_on_c, 12, 67, 0
14, 19560, Note_on_c, 12, 64, 76
14, 19664, Note_on_c, 12, 64, 0
14, 19680, Note_on_c, 12, 69, 84
14, 19799, Note_on_c, 12, 69, 0
14, 19800, Note_on_c, 12, 65, 76
14, 19919, Note_on_c, 12, 65, 0
14, 19920, Note_on_c, 12, 69, 76
14, 20039, Note_on_c, 12, 69, 0
14, 20040, Note_on_c, 12, 65, 76
14, 20159, Note_on_c, 12, 65, 0
14, 20160, Note_on_c, 12, 69, 76
14, 20279, Note_on_c, 12, 69, 0
14, 20280, Note_on_c, 12, 65, 76
14, 20384, Note_on_c, 12, 65, 0
14, 20400, Note_on_c, 12, 60, 76
14, 20400, Note_on_c, 12, 63, 76
14, 20519, Note_on_c, 12, 60, 0
14, 20519, Note_on_c, 12, 63, 0
14, 20580, Program_c, 12, 45
14, 20640, Note_on_c, 12, 60, 44
14, 20759, Note_on_c, 12, 60, 0
14, 21120, Note_on_c, 12, 63, 44
14, 21120, Note_on_c, 12, 60, 44
14, 21359, Note_on_c, 12, 63, 0
14, 21359, Note_on_c, 12, 60, 0
14, 21360, Note_on_c, 12, 63, 44
14, 21360, Note_on_c, 12, 60, 44
14, 21599, Note_on_c, 12, 63, 0
14, 21599, Note_on_c, 12, 60, 0
14, 21840, Note_on_c, 12, 63, 43
14, 21840, Note_on_c, 12, 60, 43
14, 22079, Note_on_c, 12, 63, 0
14, 22079, Note_on_c, 12, 60, 0
14, 22080, Note_on_c, 12, 63, 42
14, 22080, Note_on_c, 12, 60, 42
14, 22319, Note_on_c, 12, 63, 0
14, 22319, Note_on_c, 12, 60, 0
14, 22560, Note_on_c, 12, 60, 41
14, 22560, Note_on_c, 12, 63, 41
14, 22799, Note_on_c, 12, 60, 0
14, 22799, Note_on_c, 12, 63, 0
14, 22800, Note_on_c, 12, 60, 40
14, 22800, Note_on_c, 12, 63, 40
14, 23024, Note_on_c, 12, 60, 0
14, 23024, Note_on_c, 12, 63, 0
14, 23038, Program_c, 12, 48
14, 23040, Note_on_c, 12, 70, 44
14, 23040, Note_on_c, 12, 62, 44
14, 23159, Note_on_c, 12, 70, 0
14, 23159, Note_on_c, 12, 62, 0
14, 23520, Note_on_c, 12, 70, 44
14, 23520, Note_on_c, 12, 62, 44
14, 23639, Note_on_c, 12, 70, 0
14, 23639, Note_on_c, 12, 62, 0
14, 24000, Note_on_c, 12, 70, 44
14, 24000, Note_on_c, 12, 62, 44
14, 24119, Note_on_c, 12, 70, 0
14, 24119, Note_on_c, 12, 62, 0
14, 24480, Note_on_c, 12, 62, 44
14, 24599, Note_on_c, 12, 62, 0
14, 24600, Note_on_c, 12, 58, 44
14, 24719, Note_on_c, 12, 58, 0
14, 24720, Note_on_c, 12, 63, 44
14, 24839, Note_on_c, 12, 63, 0
14, 24840, Note_on_c, 12, 57, 44
14, 24959, Note_on_c, 12, 57, 0
14, 24960, Note_on_c, 12, 63, 44
14, 25079, Note_on_c, 12, 63, 0
14, 25080, Note_on_c, 12, 57, 44
14, 25199, Note_on_c, 12, 57, 0
14, 25200, Note_on_c, 12, 60, 44
14, 25319, Note_on_c, 12, 60, 0
14, 25320, Note_on_c, 12, 57, 44
14, 25424, Note_on_c, 12, 57, 0
14, 25440, Note_on_c, 12, 65, 44
14, 25559, Note_on_c, 12, 65, 0
14, 25560, Note_on_c, 12, 58, 44
14, 25679, Note_on_c, 12, 58, 0
14, 25680, Note_on_c, 12, 65, 44
14, 25799, Note_on_c, 12, 65, 0
14, 25800, Note_on_c, 12, 62, 44
14, 25904, Note_on_c, 12, 62, 0
14, 25920, Note_on_c, 12, 65, 44
14, 26039, Note_on_c, 12, 65, 0
14, 26040, Note_on_c, 12, 66, 44
14, 26159, Note_on_c, 12, 66, 0
14, 26160, Note_on_c, 12, 69, 44
14, 26279, Note_on_c, 12, 69, 0
14, 26280, Note_on_c, 12, 67, 44
14, 26399, Note_on_c, 12, 67, 0
14, 26400, Note_on_c, 12, 70, 44
14, 26519, Note_on_c, 12, 70, 0
14, 26520, Note_on_c, 12, 67, 44
14, 26639, Note_on_c, 12, 67, 0
14, 26640, Note_on_c, 12, 62, 44
14, 26759, Note_on_c, 12, 62, 0
14, 26760, Note_on_c, 12, 64, 44
14, 26879, Note_on_c, 12, 64, 0
14, 26880, Note_on_c, 12, 65, 44
14, 26999, Note_on_c, 12, 65, 0
14, 27000, Note_on_c, 12, 69, 44
14, 27119, Note_on_c, 12, 69, 0
14, 27120, Note_on_c, 12, 72, 44
14, 27224, Note_on_c, 12, 72, 0
14, 27240, Note_on_c, 12, 72, 44
14, 27329, Note_on_c, 12, 72, 0
14, 27360, Note_on_c, 12, 72, 44
14, 27449, Note_on_c, 12, 72, 0
14, 27480, Note_on_c, 12, 72, 45
14, 27569, Note_on_c, 12, 72, 0
14, 27600, Note_on_c, 12, 72, 47
14, 27719, Note_on_c, 12, 72, 0
14, 27720, Note_on_c, 12, 71, 49
14, 27839, Note_on_c, 12, 71, 0
14, 27840, Note_on_c, 12, 72, 50
14, 27959, Note_on_c, 12, 72, 0
14, 27960, Note_on_c, 12, 70, 52
14, 28079, Note_on_c, 12, 70, 0
14, 28080, Note_on_c, 12, 67, 54
14, 28199, Note_on_c, 12, 67, 0
14, 28200, Note_on_c, 12, 64, 55
14, 28319, Note_on_c, 12, 64, 0
14, 28320, Note_on_c, 12, 67, 57
14, 28439, Note_on_c, 12, 67, 0
14, 28440, Note_on_c, 12, 65, 59
14, 28559, Note_on_c, 12, 65, 0
14, 28560, Note_on_c, 12, 69, 60
14, 28679, Note_on_c, 12, 69, 0
14, 28680, Note_on_c, 12, 65, 62
14, 28799, Note_on_c, 12, 65, 0
14, 28800, Note_on_c, 12, 60, 64
14, 28919, Note_on_c, 12, 60, 0
14, 28920, Note_on_c, 12, 61, 65
14, 29039, Note_on_c, 12, 61, 0
14, 29040, Note_on_c, 12, 64, 67
14, 29159, Note_on_c, 12, 64, 0
14, 29160, Note_on_c, 12, 62, 69
14, 29279, Note_on_c, 12, 62, 0
14, 29280, Note_on_c, 12, 55, 70
14, 29399, Note_on_c, 12, 55, 0
14, 29400, Note_on_c, 12, 57, 72
14, 29519, Note_on_c, 12, 57, 0
14, 29520, Note_on_c, 12, 58, 74
14, 29624, Note_on_c, 12, 58, 0
14, 29640, Note_on_c, 12, 59, 76
14, 29744, Note_on_c, 12, 59, 0
14, 29760, Note_on_c, 12, 59, 80
14, 29999, Note_on_c, 12, 59, 0
14, 30000, Note_on_c, 12, 60, 80
14, 30119, Note_on_c, 12, 60, 0
14, 30120, Note_on_c, 12, 62, 80
14, 30239, Note_on_c, 12, 62, 0
14, 30240, Note_on_c, 12, 63, 80
14, 30344, Note_on_c, 12, 63, 0
14, 30360, Note_on_c, 12, 64, 80
14, 30464, Note_on_c, 12, 64, 0
14, 30480, Note_on_c, 12, 64, 80
14, 30719, Note_on_c, 12, 64, 0
14, 30720, Note_on_c, 12, 65, 80
14, 30839, Note_on_c, 12, 65, 0
14, 30840, Note_on_c, 12, 67, 80
14, 30959, Note_on_c, 12, 67, 0
14, 30960, Note_on_c, 12, 68, 80
14, 31064, Note_on_c, 12, 68, 0
14, 31080, Note_on_c, 12, 69, 84
14, 31184, Note_on_c, 12, 69, 0
14, 31200, Note_on_c, 12, 69, 84
14, 31439, Note_on_c, 12, 69, 0
14, 31440, Note_on_c, 12, 70, 84
14, 31559, Note_on_c, 12, 70, 0
14, 32520, Note_on_c, 12, 70, 84
14, 32624, Note_on_c, 12, 70, 0
14, 32640, Note_on_c, 12, 70, 84
14, 32879, Note_on_c, 12, 70, 0
14, 32880, Note_on_c, 12, 69, 84
14, 32999, Note_on_c, 12, 69, 0
14, 33960, Note_on_c, 12, 77, 84
14, 34064, Note_on_c, 12, 77, 0
14, 34080, Note_on_c, 12, 76, 84
14, 34319, Note_on_c, 12, 76, 0
14, 34320, Note_on_c, 12, 77, 84
14, 34439, Note_on_c, 12, 77, 0
14, 35400, Note_on_c, 12, 77, 84
14, 35504, Note_on_c, 12, 77, 0
14, 35520, Note_on_c, 12, 76, 84
14, 35759, Note_on_c, 12, 76, 0
14, 35760, Note_on_c, 12, 77, 84
14, 35879, Note_on_c, 12, 77, 0
14, 36480, Note_on_c, 12, 70, 84
14, 36719, Note_on_c, 12, 70, 0
14, 36720, Note_on_c, 12, 69, 84
14, 36839, Note_on_c, 12, 69, 0
14, 37440, Note_on_c, 12, 58, 92
14, 37499, Note_on_c, 12, 58, 0
14, 37500, Note_on_c, 12, 58, 84
14, 37679, Note_on_c, 12, 58, 0
14, 37680, Note_on_c, 12, 58, 84
14, 38399, Note_on_c, 12, 58, 0
14, 38400, Note_on_c, 12, 58, 84
14, 38639, Note_on_c, 12, 58, 0
14, 38640, Note_on_c, 12, 57, 84
14, 38744, Note_on_c, 12, 57, 0
14, 38760, Note_on_c, 12, 65, 84
14, 38879, Note_on_c, 12, 65, 0
14, 38880, Note_on_c, 12, 64, 84
14, 38999, Note_on_c, 12, 64, 0
14, 39000, Note_on_c, 12, 67, 84
14, 39104, Note_on_c, 12, 67, 0
14, 39120, Note_on_c, 12, 67, 76
14, 39239, Note_on_c, 12, 67, 0
14, 39240, Note_on_c, 12, 65, 76
14, 39359, Note_on_c, 12, 65, 0
14, 39360, Note_on_c, 12, 67, 76
14, 39479, Note_on_c, 12, 67, 0
14, 39480, Note_on_c, 12, 65, 76
14, 39584, Note_on_c, 12, 65, 0
14, 39600, Note_on_c, 12, 67, 76
14, 39719, Note_on_c, 12, 67, 0
14, 39840, Note_on_c, 12, 55, 84
14, 39840, Note_on_c, 12, 72, 84
14, 39840, Note_on_c, 12, 64, 84
14, 39899, Note_on_c, 12, 55, 0
14, 39899, Note_on_c, 12, 72, 0
14, 39899, Note_on_c, 12, 64, 0
14, 39900, Note_on_c, 12, 72, 76
14, 39900, Note_on_c, 12, 64, 76
14, 39900, Note_on_c, 12, 55, 76
14, 40079, Note_on_c, 12, 64, 0
14, 40079, Note_on_c, 12, 55, 0
14, 40184, Note_on_c, 12, 72, 0
14, 40200, Note_on_c, 12, 67, 76
14, 40319, Note_on_c, 12, 67, 0
14, 40320, Note_on_c, 12, 64, 76
14, 40439, Note_on_c, 12, 64, 0
14, 40440, Note_on_c, 12, 60, 76
14, 40544, Note_on_c, 12, 60, 0
14, 40560, Note_on_c, 12, 59, 76
14, 40560, Note_on_c, 12, 62, 76
14, 40679, Note_on_c, 12, 59, 0
14, 40679, Note_on_c, 12, 62, 0
14, 40680, Note_on_c, 12, 55, 76
14, 40799, Note_on_c, 12, 55, 0
14, 40800, Note_on_c, 12, 59, 76
14, 40800, Note_on_c, 12, 62, 76
14, 40919, Note_on_c, 12, 59, 0
14, 40919, Note_on_c, 12, 62, 0
14, 40920, Note_on_c, 12, 55, 76
14, 41039, Note_on_c, 12, 55, 0
14, 41040, Note_on_c, 12, 62, 76
14, 41159, Note_on_c, 12, 62, 0
14, 41160, Note_on_c, 12, 59, 76
14, 41264, Note_on_c, 12, 59, 0
14, 41280, Note_on_c, 12, 64, 76
14, 41399, Note_on_c, 12, 64, 0
14, 41400, Note_on_c, 12, 60, 76
14, 41519, Note_on_c, 12, 60, 0
14, 41520, Note_on_c, 12, 64, 76
14, 41639, Note_on_c, 12, 64, 0
14, 41640, Note_on_c, 12, 60, 76
14, 41759, Note_on_c, 12, 60, 0
14, 41760, Note_on_c, 12, 67, 76
14, 41879, Note_on_c, 12, 67, 0
14, 41880, Note_on_c, 12, 64, 76
14, 41984, Note_on_c, 12, 64, 0
14, 42000, Note_on_c, 12, 62, 84
14, 42104, Note_on_c, 12, 62, 0
14, 42120, Note_on_c, 12, 62, 76
14, 42239, Note_on_c, 12, 62, 0
14, 42240, Note_on_c, 12, 67, 76
14, 42359, Note_on_c, 12, 67, 0
14, 42360, Note_on_c, 12, 62, 76
14, 42479, Note_on_c, 12, 62, 0
14, 42480, Note_on_c, 12, 67, 76
14, 42599, Note_on_c, 12, 67, 0
14, 42600, Note_on_c, 12, 62, 76
14, 42704, Note_on_c, 12, 62, 0
14, 42720, Note_on_c, 12, 67, 84
14, 42839, Note_on_c, 12, 67, 0
14, 42840, Note_on_c, 12, 64, 76
14, 42959, Note_on_c, 12, 64, 0
14, 42960, Note_on_c, 12, 67, 76
14, 43079, Note_on_c, 12, 67, 0
14, 43080, Note_on_c, 12, 64, 76
14, 43199, Note_on_c, 12, 64, 0
14, 43200, Note_on_c, 12, 67, 76
14, 43319, Note_on_c, 12, 67, 0
14, 43320, Note_on_c, 12, 64, 76
14, 43424, Note_on_c, 12, 64, 0
14, 43440, Note_on_c, 12, 67, 84
14, 43559, Note_on_c, 12, 67, 0
14, 43560, Note_on_c, 12, 64, 76
14, 43679, Note_on_c, 12, 64, 0
14, 43680, Note_on_c, 12, 67, 76
14, 43799, Note_on_c, 12, 67, 0
14, 43800, Note_on_c, 12, 64, 76
14, 43919, Note_on_c, 12, 64, 0
14, 43920, Note_on_c, 12, 67, 76
14, 44039, Note_on_c, 12, 67, 0
14, 44040, Note_on_c, 12, 64, 76
14, 44144, Note_on_c, 12, 64, 0
14, 44160, Note_on_c, 12, 69, 84
14, 44279, Note_on_c, 12, 69, 0
14, 44280, Note_on_c, 12, 65, 76
14, 44399, Note_on_c, 12, 65, 0
14, 44400, Note_on_c, 12, 69, 76
14, 44519, Note_on_c, 12, 69, 0
14, 44520, Note_on_c, 12, 65, 76
14, 44639, Note_on_c, 12, 65, 0
14, 44640, Note_on_c, 12, 69, 76
14, 44759, Note_on_c, 12, 69, 0
14, 44760, Note_on_c, 12, 65, 76
14, 44864, Note_on_c, 12, 65, 0
14, 44880, Note_on_c, 12, 63, 76
14, 44880, Note_on_c, 12, 60, 76
14, 44999, Note_on_c, 12, 63, 0
14, 44999, Note_on_c, 12, 60, 0
14, 45060, Program_c, 12, 45
14, 45120, Note_on_c, 12, 60, 44
14, 45239, Note_on_c, 12, 60, 0
14, 45600, Note_on_c, 12, 60, 44
14, 45600, Note_on_c, 12, 63, 44
14, 45839, Note_on_c, 12, 60, 0
14, 45839, Note_on_c, 12, 63, 0
14, 45840, Note_on_c, 12, 60, 44
14, 45840, Note_on_c, 12, 63, 44
14, 46079, Note_on_c, 12, 60, 0
14, 46079, Note_on_c, 12, 63, 0
14, 46320, Note_on_c, 12, 63, 43
14, 46320, Note_on_c, 12, 60, 43
14, 46559, Note_on_c, 12, 63, 0
14, 46559, Note_on_c, 12, 60, 0
14, 46560, Note_on_c, 12, 63, 42
14, 46560, Note_on_c, 12, 60, 42
14, 46799, Note_on_c, 12, 63, 0
14, 46799, Note_on_c, 12, 60, 0
14, 47040, Note_on_c, 12, 60, 41
14, 47040, Note_on_c, 12, 63, 41
14, 47279, Note_on_c, 12, 60, 0
14, 47279, Note_on_c, 12, 63, 0
14, 47280, Note_on_c, 12, 60, 40
14, 47280, Note_on_c, 12, 63, 40
14, 47504, Note_on_c, 12, 60, 0
14, 47504, Note_on_c, 12, 63, 0
14, 47518, Program_c, 12, 48
14, 47520, Note_on_c, 12, 62, 44
14, 47520, Note_on_c, 12, 70, 44
14, 47639, Note_on_c, 12, 62, 0
14, 47639, Note_on_c, 12, 70, 0
14, 48000, Note_on_c, 12, 62, 44
14, 48000, Note_on_c, 12, 70, 44
14, 48119, Note_on_c, 12, 62, 0
14, 48119, Note_on_c, 12, 70, 0
14, 48480, Note_on_c, 12, 70, 44
14, 48480, Note_on_c, 12, 62, 44
14, 48599, Note_on_c, 12, 70, 0
14, 48599, Note_on_c, 12, 62, 0
14, 48960, Note_on_c, 12, 62, 44
14, 49079, Note_on_c, 12, 62, 0
14, 49080, Note_on_c, 12, 58, 44
14, 49199, Note_on_c, 12, 58, 0
14, 49200, Note_on_c, 12, 63, 44
14, 49319, Note_on_c, 12, 63, 0
14, 49320, Note_on_c, 12, 57, 44
14, 49439, Note_on_c, 12, 57, 0
14, 49440, Note_on_c, 12, 63, 44
14, 49559, Note_on_c, 12, 63, 0
14, 49560, Note_on_c, 12, 57, 44
14, 49679, Note_on_c, 12, 57, 0
14, 49680, Note_on_c, 12, 60, 44
14, 49799, Note_on_c, 12, 60, 0
14, 49800, Note_on_c, 12, 57, 44
14, 49904, Note_on_c, 12, 57, 0
14, 49920, Note_on_c, 12, 65, 44
14, 50039, Note_on_c, 12, 65, 0
14, 50040, Note_on_c, 12, 58, 44
14, 50159, Note_on_c, 12, 58, 0
14, 50160, Note_on_c, 12, 65, 44
14, 50279, Note_on_c, 12, 65, 0
14, 50280, Note_on_c, 12, 62, 44
14, 50384, Note_on_c, 12, 62, 0
14, 50400, Note_on_c, 12, 65, 44
14, 50519, Note_on_c, 12, 65, 0
14, 50520, Note_on_c, 12, 66, 44
14, 50639, Note_on_c, 12, 66, 0
14, 50640, Note_on_c, 12, 69, 44
14, 50759, Note_on_c, 12, 69, 0
14, 50760, Note_on_c, 12, 67, 44
14, 50879, Note_on_c, 12, 67, 0
14, 50880, Note_on_c, 12, 70, 44
14, 50999, Note_on_c, 12, 70, 0
14, 51000, Note_on_c, 12, 67, 44
14, 51119, Note_on_c, 12, 67, 0
14, 51120, Note_on_c, 12, 62, 44
14, 51239, Note_on_c, 12, 62, 0
14, 51240, Note_on_c, 12, 64, 44
14, 51359, Note_on_c, 12, 64, 0
14, 51360, Note_on_c, 12, 65, 44
14, 51479, Note_on_c, 12, 65, 0
14, 51480, Note_on_c, 12, 69, 44
14, 51599, Note_on_c, 12, 69, 0
14, 51600, Note_on_c, 12, 72, 44
14, 51704, Note_on_c, 12, 72, 0
14, 51720, Note_on_c, 12, 72, 44
14, 51809, Note_on_c, 12, 72, 0
14, 51840, Note_on_c, 12, 72, 44
14, 51929, Note_on_c, 12, 72, 0
14, 51960, Note_on_c, 12, 72, 45
14, 52049, Note_on_c, 12, 72, 0
14, 52080, Note_on_c, 12, 72, 47
14, 52199, Note_on_c, 12, 72, 0
14, 52200, Note_on_c, 12, 71, 49
14, 52319, Note_on_c, 12, 71, 0
14, 52320, Note_on_c, 12, 72, 50
14, 52439, Note_on_c, 12, 72, 0
14, 52440, Note_on_c, 12, 70, 52
14, 52559, Note_on_c, 12, 70, 0
14, 52560, Note_on_c, 12, 67, 54
14, 52679, Note_on_c, 12, 67, 0
14, 52680, Note_on_c, 12, 64, 55
14, 52799, Note_on_c, 12, 64, 0
14, 52800, Note_on_c, 12, 67, 57
14, 52919, Note_on_c, 12, 67, 0
14, 52920, Note_on_c, 12, 65, 59
14, 53039, Note_on_c, 12, 65, 0
14, 53040, Note_on_c, 12, 69, 60
14, 53159, Note_on_c, 12, 69, 0
14, 53160, Note_on_c, 12, 65, 62
14, 53279, Note_on_c, 12, 65, 0
14, 53280, Note_on_c, 12, 60, 64
14, 53399, Note_on_c, 12, 60, 0
14, 53400, Note_on_c, 12, 61, 65
14, 53519, Note_on_c, 12, 61, 0
14, 53520, Note_on_c, 12, 64, 67
14, 53639, Note_on_c, 12, 64, 0
14, 53640, Note_on_c, 12, 62, 69
14, 53759, Note_on_c, 12, 62, 0
14, 53760, Note_on_c, 12, 55, 70
14, 53879, Note_on_c, 12, 55, 0
14, 53880, Note_on_c, 12, 57, 72
14, 53999, Note_on_c, 12, 57, 0
14, 54000, Note_on_c, 12, 58, 74
14, 54104, Note_on_c, 12, 58, 0
14, 54120, Note_on_c, 12, 59, 76
14, 54224, Note_on_c, 12, 59, 0
14, 54240, Note_on_c, 12, 59, 80
14, 54479, Note_on_c, 12, 59, 0
14, 54480, Note_on_c, 12, 60, 80
14, 54599, Note_on_c, 12, 60, 0
14, 54600, Note_on_c, 12, 62, 80
14, 54719, Note_on_c, 12, 62, 0
14, 54720, Note_on_c, 12, 63, 80
14, 54824, Note_on_c, 12, 63, 0
14, 54840, Note_on_c, 12, 64, 80
14, 54944, Note_on_c, 12, 64, 0
14, 54960, Note_on_c, 12, 64, 80
14, 55199, Note_on_c, 12, 64, 0
14, 55200, Note_on_c, 12, 65, 80
14, 55319, Note_on_c, 12, 65, 0
14, 55320, Note_on_c, 12, 67, 80
14, 55439, Note_on_c, 12, 67, 0
14, 55440, Note_on_c, 12, 68, 80
14, 55544, Note_on_c, 12, 68, 0
14, 55560, Note_on_c, 12, 69, 84
14, 55664, Note_on_c, 12, 69, 0
14, 55680, Note_on_c, 12, 69, 84
14, 55919, Note_on_c, 12, 69, 0
14, 55920, Note_on_c, 12, 70, 84
14, 56039, Note_on_c, 12, 70, 0
14, 57000, Note_on_c, 12, 70, 84
14, 57104, Note_on_c, 12, 70, 0
14, 57120, Note_on_c, 12, 70, 84
14, 57359, Note_on_c, 12, 70, 0
14, 57360, Note_on_c, 12, 69, 84
14, 57479, Note_on_c, 12, 69, 0
14, 58440, Note_on_c, 12, 77, 84
14, 58544, Note_on_c, 12, 77, 0
14, 58560, Note_on_c, 12, 76, 84
14, 58799, Note_on_c, 12, 76, 0
14, 58800, Note_on_c, 12, 77, 84
14, 58919, Note_on_c, 12, 77, 0
14, 59880, Note_on_c, 12, 77, 84
14, 59984, Note_on_c, 12, 77, 0
14, 60000, Note_on_c, 12, 76, 84
14, 60239, Note_on_c, 12, 76, 0
14, 60240, Note_on_c, 12, 77, 84
14, 60359, Note_on_c, 12, 77, 0
14, 60960, Note_on_c, 12, 70, 84
14, 61199, Note_on_c, 12, 70, 0
14, 61200, Note_on_c, 12, 69, 84
14, 61319, Note_on_c, 12, 69, 0
14, 61920, Note_on_c, 12, 58, 92
14, 61979, Note_on_c, 12, 58, 0
14, 61980, Note_on_c, 12, 58, 84
14, 62159, Note_on_c, 12, 58, 0
14, 62160, Note_on_c, 12, 58, 84
14, 62879, Note_on_c, 12, 58, 0
14, 62880, Note_on_c, 12, 58, 84
14, 63119, Note_on_c, 12, 58, 0
14, 63120, Note_on_c, 12, 57, 84
14, 63239, Note_on_c, 12, 57, 0
14, 75120, Note_on_c, 12, 64, 52
14, 75479, Note_on_c, 12, 64, 0
14, 75480, Note_on_c, 12, 67, 52
14, 75599, Note_on_c, 12, 67, 0
14, 75600, Note_on_c, 12, 72, 52
14, 75824, Note_on_c, 12, 72, 0
14, 75840, Note_on_c, 12, 72, 52
14, 76199, Note_on_c, 12, 72, 0
14, 76200, Note_on_c, 12, 67, 52
14, 76319, Note_on_c, 12, 67, 0
14, 76320, Note_on_c, 12, 64, 52
14, 76544, Note_on_c, 12, 64, 0
14, 76560, Note_on_c, 12, 63, 52
14, 76919, Note_on_c, 12, 63, 0
14, 76920, Note_on_c, 12, 67, 52
14, 77039, Note_on_c, 12, 67, 0
14, 77040, Note_on_c, 12, 72, 52
14, 77264, Note_on_c, 12, 72, 0
14, 77280, Note_on_c, 12, 72, 52
14, 77639, Note_on_c, 12, 72, 0
14, 77640, Note_on_c, 12, 67, 52
14, 77759, Note_on_c, 12, 67, 0
14, 77760, Note_on_c, 12, 63, 52
14, 77984, Note_on_c, 12, 63, 0
14, 77998, Control_c, 12, 11, 80
14, 78000, Note_on_c, 12, 68, 76
14, 78060, Control_c, 12, 11, 81
14, 78120, Control_c, 12, 11, 83
14, 78180, Control_c, 12, 11, 84
14, 78240, Control_c, 12, 11, 85
14, 78300, Control_c, 12, 11, 87
14, 78359, Note_on_c, 12, 68, 0
14, 78360, Control_c, 12, 11, 88
14, 78360, Note_on_c, 12, 70, 76
14, 78420, Control_c, 12, 11, 89
14, 78479, Note_on_c, 12, 70, 0
14, 78480, Control_c, 12, 11, 90
14, 78480, Note_on_c, 12, 72, 76
14, 78540, Control_c, 12, 11, 92
14, 78600, Control_c, 12, 11, 93
14, 78660, Control_c, 12, 11, 94
14, 78704, Note_on_c, 12, 72, 0
14, 78720, Control_c, 12, 11, 96
14, 78720, Note_on_c, 12, 72, 76
14, 78780, Control_c, 12, 11, 97
14, 78840, Control_c, 12, 11, 98
14, 78900, Control_c, 12, 11, 100
14, 78959, Note_on_c, 12, 72, 0
14, 78960, Note_on_c, 12, 73, 76
14, 78960, Control_c, 12, 11, 101
14, 79020, Control_c, 12, 11, 102
14, 79080, Control_c, 12, 11, 104
14, 79140, Control_c, 12, 11, 105
14, 79199, Note_on_c, 12, 73, 0
14, 79200, Control_c, 12, 11, 106
14, 79200, Note_on_c, 12, 70, 76
14, 79260, Control_c, 12, 11, 107
14, 79320, Control_c, 12, 11, 109
14, 79380, Control_c, 12, 11, 110
14, 79424, Note_on_c, 12, 70, 0
14, 79440, Control_c, 12, 11, 111
14, 79440, Note_on_c, 12, 68, 76
14, 79500, Control_c, 12, 11, 113
14, 79560, Control_c, 12, 11, 114
14, 79620, Control_c, 12, 11, 115
14, 79680, Control_c, 12, 11, 117
14, 79740, Control_c, 12, 11, 118
14, 79800, Control_c, 12, 11, 119
14, 79860, Control_c, 12, 11, 120
14, 79919, Note_on_c, 12, 68, 0
14, 79920, Control_c, 12, 11, 122
14, 79920, Note_on_c, 12, 67, 76
14, 79980, Control_c, 12, 11, 123
14, 80040, Control_c, 12, 11, 124
14, 80100, Control_c, 12, 11, 127
14, 80144, Note_on_c, 12, 67, 0
14, 80160, Note_on_c, 12, 67, 76
14, 80160, Note_on_c, 12, 58, 76
14, 80864, Note_on_c, 12, 67, 0
14, 80864, Note_on_c, 12, 58, 0
14, 80880, Note_on_c, 12, 57, 52
14, 80880, Note_on_c, 12, 65, 52
14, 81119, Note_on_c, 12, 57, 0
14, 81119, Note_on_c, 12, 65, 0
14, 93600, Note_on_c, 12, 65, 76
14, 93719, Note_on_c, 12, 65, 0
14, 93720, Note_on_c, 12, 60, 76
14, 93824, Note_on_c, 12, 60, 0
14, 93840, Note_on_c, 12, 65, 84
14, 93959, Note_on_c, 12, 65, 0
14, 93960, Note_on_c, 12, 60, 76
14, 94079, Note_on_c, 12, 60, 0
14, 94080, Note_on_c, 12, 65, 84
14, 94199, Note_on_c, 12, 65, 0
14, 94200, Note_on_c, 12, 60, 76
14, 94304, Note_on_c, 12, 60, 0
14, 94320, Note_on_c, 12, 69, 84
14, 94439, Note_on_c, 12, 69, 0
14, 94440, Note_on_c, 12, 65, 76
14, 94544, Note_on_c, 12, 65, 0
14, 94560, Note_on_c, 12, 69, 84
14, 94679, Note_on_c, 12, 69, 0
14, 94680, Note_on_c, 12, 65, 76
14, 94799, Note_on_c, 12, 65, 0
14, 94800, Note_on_c, 12, 69, 84
14, 94919, Note_on_c, 12, 69, 0
14, 94920, Note_on_c, 12, 65, 76
14, 95024, Note_on_c, 12, 65, 0
14, 95040, Note_on_c, 12, 69, 52
14, 95159, Note_on_c, 12, 69, 0
14, 95160, Note_on_c, 12, 65, 52
14, 95279, Note_on_c, 12, 65, 0
14, 95280, Note_on_c, 12, 70, 52
14, 95399, Note_on_c, 12, 70, 0
14, 95400, Note_on_c, 12, 67, 52
14, 95519, Note_on_c, 12, 67, 0
14, 95520, Note_on_c, 12, 70, 52
14, 95639, Note_on_c, 12, 70, 0
14, 95640, Note_on_c, 12, 67, 52
14, 95759, Note_on_c, 12, 67, 0
14, 95760, Note_on_c, 12, 70, 52
14, 95879, Note_on_c, 12, 70, 0
14, 95880, Note_on_c, 12, 67, 52
14, 95984, Note_on_c, 12, 67, 0
14, 96000, Note_on_c, 12, 72, 52
14, 96119, Note_on_c, 12, 72, 0
14, 96120, Note_on_c, 12, 69, 52
14, 96239, Note_on_c, 12, 69, 0
14, 96240, Note_on_c, 12, 72, 52
14, 96359, Note_on_c, 12, 72, 0
14, 96360, Note_on_c, 12, 69, 52
14, 96464, Note_on_c, 12, 69, 0
14, 96480, Note_on_c, 12, 60, 52
14, 96599, Note_on_c, 12, 60, 0
14, 96600, Note_on_c, 12, 61, 54
14, 96719, Note_on_c, 12, 61, 0
14, 96720, Note_on_c, 12, 64, 56
14, 96839, Note_on_c, 12, 64, 0
14, 96840, Note_on_c, 12, 62, 58
14, 96944, Note_on_c, 12, 62, 0
14, 96960, Note_on_c, 12, 62, 60
14, 97079, Note_on_c, 12, 62, 0
14, 97080, Note_on_c, 12, 60, 62
14, 97199, Note_on_c, 12, 60, 0
14, 97200, Note_on_c, 12, 58, 64
14, 97319, Note_on_c, 12, 58, 0
14, 97320, Note_on_c, 12, 56, 66
14, 97439, Note_on_c, 12, 56, 0
14, 97440, Note_on_c, 12, 55, 68
14, 97559, Note_on_c, 12, 55, 0
14, 97560, Note_on_c, 12, 65, 70
14, 97679, Note_on_c, 12, 65, 0
14, 97680, Note_on_c, 12, 64, 72
14, 97799, Note_on_c, 12, 64, 0
14, 97800, Note_on_c, 12, 70, 74
14, 97904, Note_on_c, 12, 70, 0
14, 97920, Note_on_c, 12, 69, 76
14, 97920, Note_on_c, 12, 81, 76
14, 98039, Note_on_c, 12, 69, 0
14, 98039, Note_on_c, 12, 81, 0
14, 98160, Note_on_c, 12, 72, 84
14, 98219, Note_on_c, 12, 72, 0
14, 98220, Note_on_c, 12, 72, 76
14, 98519, Note_on_c, 12, 72, 0
14, 98520, Note_on_c, 12, 70, 76
14, 98639, Note_on_c, 12, 70, 0
14, 98640, Note_on_c, 12, 67, 76
14, 98759, Note_on_c, 12, 67, 0
14, 98760, Note_on_c, 12, 64, 76
14, 98879, Note_on_c, 12, 64, 0
14, 98880, Note_on_c, 12, 67, 76
14, 98999, Note_on_c, 12, 67, 0
14, 99000, Note_on_c, 12, 65, 76
14, 99119, Note_on_c, 12, 65, 0
14, 99120, Note_on_c, 12, 69, 76
14, 99239, Note_on_c, 12, 69, 0
14, 99240, Note_on_c, 12, 65, 76
14, 99359, Note_on_c, 12, 65, 0
14, 99360, Note_on_c, 12, 60, 76
14, 99479, Note_on_c, 12, 60, 0
14, 99480, Note_on_c, 12, 61, 76
14, 99599, Note_on_c, 12, 61, 0
14, 99600, Note_on_c, 12, 64, 76
14, 99719, Note_on_c, 12, 64, 0
14, 99720, Note_on_c, 12, 62, 76
14, 99824, Note_on_c, 12, 62, 0
14, 99840, Note_on_c, 12, 62, 76
14, 99959, Note_on_c, 12, 62, 0
14, 99960, Note_on_c, 12, 60, 76
14, 100079, Note_on_c, 12, 60, 0
14, 100080, Note_on_c, 12, 58, 76
14, 100184, Note_on_c, 12, 58, 0
14, 100200, Note_on_c, 12, 58, 76
14, 100304, Note_on_c, 12, 58, 0
14, 100320, Note_on_c, 12, 58, 76
14, 100559, Note_on_c, 12, 58, 0
14, 100560, Note_on_c, 12, 57, 76
14, 100679, Note_on_c, 12, 57, 0
14, 100800, Note_on_c, 12, 65, 76
14, 100919, Note_on_c, 12, 65, 0
14, 100920, Note_on_c, 12, 60, 76
14, 101024, Note_on_c, 12, 60, 0
14, 101040, Note_on_c, 12, 65, 84
14, 101159, Note_on_c, 12, 65, 0
14, 101160, Note_on_c, 12, 60, 76
14, 101279, Note_on_c, 12, 60, 0
14, 101280, Note_on_c, 12, 65, 84
14, 101399, Note_on_c, 12, 65, 0
14, 101400, Note_on_c, 12, 60, 76
14, 101504, Note_on_c, 12, 60, 0
14, 101520, Note_on_c, 12, 69, 84
14, 101639, Note_on_c, 12, 69, 0
14, 101640, Note_on_c, 12, 65, 76
14, 101744, Note_on_c, 12, 65, 0
14, 101760, Note_on_c, 12, 69, 84
14, 101879, Note_on_c, 12, 69, 0
14, 101880, Note_on_c, 12, 65, 76
14, 101999, Note_on_c, 12, 65, 0
14, 102000, Note_on_c, 12, 69, 84
14, 102119, Note_on_c, 12, 69, 0
14, 102120, Note_on_c, 12, 65, 76
14, 102224, Note_on_c, 12, 65, 0
14, 102240, Note_on_c, 12, 69, 52
14, 102359, Note_on_c, 12, 69, 0
14, 102360, Note_on_c, 12, 65, 52
14, 102479, Note_on_c, 12, 65, 0
14, 102480, Note_on_c, 12, 70, 52
14, 102599, Note_on_c, 12, 70, 0
14, 102600, Note_on_c, 12, 67, 52
14, 102719, Note_on_c, 12, 67, 0
14, 102720, Note_on_c, 12, 70, 52
14, 102839, Note_on_c, 12, 70, 0
14, 102840, Note_on_c, 12, 67, 52
14, 102959, Note_on_c, 12, 67, 0
14, 102960, Note_on_c, 12, 70, 52
14, 103079, Note_on_c, 12, 70, 0
14, 103080, Note_on_c, 12, 67, 52
14, 103184, Note_on_c, 12, 67, 0
14, 103200, Note_on_c, 12, 72, 52
14, 103319, Note_on_c, 12, 72, 0
14, 103320, Note_on_c, 12, 69, 52
14, 103439, Note_on_c, 12, 69, 0
14, 103440, Note_on_c, 12, 72, 52
14, 103559, Note_on_c, 12, 72, 0
14, 103560, Note_on_c, 12, 69, 52
14, 103664, Note_on_c, 12, 69, 0
14, 103680, Note_on_c, 12, 60, 52
14, 103799, Note_on_c, 12, 60, 0
14, 103800, Note_on_c, 12, 61, 54
14, 103919, Note_on_c, 12, 61, 0
14, 103920, Note_on_c, 12, 64, 56
14, 104039, Note_on_c, 12, 64, 0
14, 104040, Note_on_c, 12, 62, 58
14, 104144, Note_on_c, 12, 62, 0
14, 104160, Note_on_c, 12, 62, 60
14, 104279, Note_on_c, 12, 62, 0
14, 104280, Note_on_c, 12, 60, 62
14, 104399, Note_on_c, 12, 60, 0
14, 104400, Note_on_c, 12, 58, 64
14, 104519, Note_on_c, 12, 58, 0
14, 104520, Note_on_c, 12, 56, 66
14, 104639, Note_on_c, 12, 56, 0
14, 104640, Note_on_c, 12, 55, 68
14, 104759, Note_on_c, 12, 55, 0
14, 104760, Note_on_c, 12, 65, 70
14, 104879, Note_on_c, 12, 65, 0
14, 104880, Note_on_c, 12, 64, 72
14, 104999, Note_on_c, 12, 64, 0
14, 105000, Note_on_c, 12, 70, 74
14, 105104, Note_on_c, 12, 70, 0
14, 105120, Note_on_c, 12, 69, 76
14, 105120, Note_on_c, 12, 81, 76
14, 105239, Note_on_c, 12, 69, 0
14, 105239, Note_on_c, 12, 81, 0
14, 105360, Note_on_c, 12, 72, 84
14, 105419, Note_on_c, 12, 72, 0
14, 105420, Note_on_c, 12, 72, 76
14, 105719, Note_on_c, 12, 72, 0
14, 105720, Note_on_c, 12, 70, 76
14, 105839, Note_on_c, 12, 70, 0
14, 105840, Note_on_c, 12, 67, 76
14, 105959, Note_on_c, 12, 67, 0
14, 105960, Note_on_c, 12, 64, 76
14, 106079, Note_on_c, 12, 64, 0
14, 106080, Note_on_c, 12, 67, 76
14, 106199, Note_on_c, 12, 67, 0
14, 106200, Note_on_c, 12, 65, 76
14, 106319, Note_on_c, 12, 65, 0
14, 106320, Note_on_c, 12, 69, 76
14, 106439, Note_on_c, 12, 69, 0
14, 106440, Note_on_c, 12, 65, 76
14, 106559, Note_on_c, 12, 65, 0
14, 106560, Note_on_c, 12, 60, 76
14, 106679, Note_on_c, 12, 60, 0
14, 106680, Note_on_c, 12, 61, 76
14, 106799, Note_on_c, 12, 61, 0
14, 106800, Note_on_c, 12, 64, 76
14, 106919, Note_on_c, 12, 64, 0
14, 106920, Note_on_c, 12, 62, 76
14, 107024, Note_on_c, 12, 62, 0
14, 107040, Note_on_c, 12, 62, 76
14, 107159, Note_on_c, 12, 62, 0
14, 107160, Note_on_c, 12, 60, 76
14, 107279, Note_on_c, 12, 60, 0
14, 107280, Note_on_c, 12, 58, 76
14, 107384, Note_on_c, 12, 58, 0
14, 107400, Note_on_c, 12, 58, 76
14, 107504, Note_on_c, 12, 58, 0
14, 107520, Note_on_c, 12, 58, 76
14, 107759, Note_on_c, 12, 58, 0
14, 107760, Note_on_c, 12, 57, 76
14, 107864, Note_on_c, 12, 57, 0
14, 107880, Note_on_c, 12, 65, 76
14, 107999, Note_on_c, 12, 65, 0
14, 108000, Note_on_c, 12, 64, 76
14, 108119, Note_on_c, 12, 64, 0
14, 108120, Note_on_c, 12, 67, 76
14, 108224, Note_on_c, 12, 67, 0
14, 108240, Note_on_c, 12, 67, 76
14, 108359, Note_on_c, 12, 67, 0
14, 108360, Note_on_c, 12, 65, 76
14, 108479, Note_on_c, 12, 65, 0
14, 108480, Note_on_c, 12, 67, 76
14, 108599, Note_on_c, 12, 67, 0
14, 108600, Note_on_c, 12, 65, 76
14, 108704, Note_on_c, 12, 65, 0
14, 108720, Note_on_c, 12, 67, 76
14, 108839, Note_on_c, 12, 67, 0
14, 108960, Note_on_c, 12, 55, 84
14, 108960, Note_on_c, 12, 72, 84
14, 108960, Note_on_c, 12, 64, 84
14, 109019, Note_on_c, 12, 55, 0
14, 109019, Note_on_c, 12, 72, 0
14, 109019, Note_on_c, 12, 64, 0
14, 109020, Note_on_c, 12, 64, 76
14, 109020, Note_on_c, 12, 72, 76
14, 109020, Note_on_c, 12, 55, 76
14, 109199, Note_on_c, 12, 64, 0
14, 109199, Note_on_c, 12, 55, 0
14, 109304, Note_on_c, 12, 72, 0
14, 109320, Note_on_c, 12, 67, 76
14, 109439, Note_on_c, 12, 67, 0
14, 109440, Note_on_c, 12, 64, 76
14, 109559, Note_on_c, 12, 64, 0
14, 109560, Note_on_c, 12, 60, 76
14, 109664, Note_on_c, 12, 60, 0
14, 109680, Note_on_c, 12, 62, 76
14, 109680, Note_on_c, 12, 59, 76
14, 109799, Note_on_c, 12, 62, 0
14, 109799, Note_on_c, 12, 59, 0
14, 109800, Note_on_c, 12, 55, 76
14, 109919, Note_on_c, 12, 55, 0
14, 109920, Note_on_c, 12, 62, 76
14, 109920, Note_on_c, 12, 59, 76
14, 110039, Note_on_c, 12, 62, 0
14, 110039, Note_on_c, 12, 59, 0
14, 110040, Note_on_c, 12, 55, 76
14, 110159, Note_on_c, 12, 55, 0
14, 110160, Note_on_c, 12, 62, 76
14, 110279, Note_on_c, 12, 62, 0
14, 110280, Note_on_c, 12, 59, 76
14, 110384, Note_on_c, 12, 59, 0
14, 110400, Note_on_c, 12, 64, 76
14, 110519, Note_on_c, 12, 64, 0
14, 110520, Note_on_c, 12, 60, 76
14, 110639, Note_on_c, 12, 60, 0
14, 110640, Note_on_c, 12, 64, 76
14, 110759, Note_on_c, 12, 64, 0
14, 110760, Note_on_c, 12, 60, 76
14, 110879, Note_on_c, 12, 60, 0
14, 110880, Note_on_c, 12, 67, 76
14, 110999, Note_on_c, 12, 67, 0
14, 111000, Note_on_c, 12, 64, 76
14, 111104, Note_on_c, 12, 64, 0
14, 111120, Note_on_c, 12, 62, 84
14, 111224, Note_on_c, 12, 62, 0
14, 111240, Note_on_c, 12, 62, 76
14, 111359, Note_on_c, 12, 62, 0
14, 111360, Note_on_c, 12, 67, 76
14, 111479, Note_on_c, 12, 67, 0
14, 111480, Note_on_c, 12, 62, 76
14, 111599, Note_on_c, 12, 62, 0
14, 111600, Note_on_c, 12, 67, 76
14, 111719, Note_on_c, 12, 67, 0
14, 111720, Note_on_c, 12, 62, 76
14, 111824, Note_on_c, 12, 62, 0
14, 111840, Note_on_c, 12, 67, 84
14, 111959, Note_on_c, 12, 67, 0
14, 111960, Note_on_c, 12, 64, 76
14, 112079, Note_on_c, 12, 64, 0
14, 112080, Note_on_c, 12, 67, 76
14, 112199, Note_on_c, 12, 67, 0
14, 112200, Note_on_c, 12, 64, 76
14, 112319, Note_on_c, 12, 64, 0
14, 112320, Note_on_c, 12, 67, 76
14, 112439, Note_on_c, 12, 67, 0
14, 112440, Note_on_c, 12, 64, 76
14, 112544, Note_on_c, 12, 64, 0
14, 112560, Note_on_c, 12, 67, 84
14, 112679, Note_on_c, 12, 67, 0
14, 112680, Note_on_c, 12, 64, 76
14, 112799, Note_on_c, 12, 64, 0
14, 112800, Note_on_c, 12, 67, 76
14, 112919, Note_on_c, 12, 67, 0
14, 112920, Note_on_c, 12, 64, 76
14, 113039, Note_on_c, 12, 64, 0
14, 113040, Note_on_c, 12, 67, 76
14, 113159, Note_on_c, 12, 67, 0
14, 113160, Note_on_c, 12, 64, 76
14, 113264, Note_on_c, 12, 64, 0
14, 113280, Note_on_c, 12, 69, 84
14, 113399, Note_on_c, 12, 69, 0
14, 113400, Note_on_c, 12, 65, 76
14, 113519, Note_on_c, 12, 65, 0
14, 113520, Note_on_c, 12, 69, 76
14, 113639, Note_on_c, 12, 69, 0
14, 113640, Note_on_c, 12, 65, 76
14, 113759, Note_on_c, 12, 65, 0
14, 113760, Note_on_c, 12, 69, 76
14, 113879, Note_on_c, 12, 69, 0
14, 113880, Note_on_c, 12, 65, 76
14, 113984, Note_on_c, 12, 65, 0
14, 114000, Note_on_c, 12, 63, 76
14, 114000, Note_on_c, 12, 60, 76
14, 114119, Note_on_c, 12, 63, 0
14, 114119, Note_on_c, 12, 60, 0
14, 114180, Program_c, 12, 45
14, 114240, Note_on_c, 12, 60, 44
14, 114359, Note_on_c, 12, 60, 0
14, 114720, Note_on_c, 12, 63, 44
14, 114720, Note_on_c, 12, 60, 44
14, 114959, Note_on_c, 12, 63, 0
14, 114959, Note_on_c, 12, 60, 0
14, 114960, Note_on_c, 12, 60, 44
14, 114960, Note_on_c, 12, 63, 44
14, 115199, Note_on_c, 12, 60, 0
14, 115199, Note_on_c, 12, 63, 0
14, 115440, Note_on_c, 12, 63, 43
14, 115440, Note_on_c, 12, 60, 43
14, 115679, Note_on_c, 12, 63, 0
14, 115679, Note_on_c, 12, 60, 0
14, 115680, Note_on_c, 12, 63, 42
14, 115680, Note_on_c, 12, 60, 42
14, 115919, Note_on_c, 12, 63, 0
14, 115919, Note_on_c, 12, 60, 0
14, 116160, Note_on_c, 12, 63, 41
14, 116160, Note_on_c, 12, 60, 41
14, 116399, Note_on_c, 12, 63, 0
14, 116399, Note_on_c, 12, 60, 0
14, 116400, Note_on_c, 12, 63, 40
14, 116400, Note_on_c, 12, 60, 40
14, 116624, Note_on_c, 12, 63, 0
14, 116624, Note_on_c, 12, 60, 0
14, 116638, Program_c, 12, 48
14, 116640, Note_on_c, 12, 70, 44
14, 116640, Note_on_c, 12, 62, 44
14, 116759, Note_on_c, 12, 70, 0
14, 116759, Note_on_c, 12, 62, 0
14, 117120, Note_on_c, 12, 62, 44
14, 117120, Note_on_c, 12, 70, 44
14, 117239, Note_on_c, 12, 62, 0
14, 117239, Note_on_c, 12, 70, 0
14, 117600, Note_on_c, 12, 62, 44
14, 117600, Note_on_c, 12, 70, 44
14, 117719, Note_on_c, 12, 62, 0
14, 117719, Note_on_c, 12, 70, 0
14, 118080, Note_on_c, 12, 62, 44
14, 118199, Note_on_c, 12, 62, 0
14, 118200, Note_on_c, 12, 58, 44
14, 118319, Note_on_c, 12, 58, 0
14, 118320, Note_on_c, 12, 63, 44
14, 118439, Note_on_c, 12, 63, 0
14, 118440, Note_on_c, 12, 57, 44
14, 118559, Note_on_c, 12, 57, 0
14, 118560, Note_on_c, 12, 63, 44
14, 118679, Note_on_c, 12, 63, 0
14, 118680, Note_on_c, 12, 57, 44
14, 118799, Note_on_c, 12, 57, 0
14, 118800, Note_on_c, 12, 60, 44
14, 118919, Note_on_c, 12, 60, 0
14, 118920, Note_on_c, 12, 57, 44
14, 119024, Note_on_c, 12, 57, 0
14, 119040, Note_on_c, 12, 65, 44
14, 119159, Note_on_c, 12, 65, 0
14, 119160, Note_on_c, 12, 58, 44
14, 119279, Note_on_c, 12, 58, 0
14, 119280, Note_on_c, 12, 65, 44
14, 119399, Note_on_c, 12, 65, 0
14, 119400, Note_on_c, 12, 62, 44
14, 119504, Note_on_c, 12, 62, 0
14, 119520, Note_on_c, 12, 65, 44
14, 119639, Note_on_c, 12, 65, 0
14, 119640, Note_on_c, 12, 66, 44
14, 119759, Note_on_c, 12, 66, 0
14, 119760, Note_on_c, 12, 69, 44
14, 119879, Note_on_c, 12, 69, 0
14, 119880, Note_on_c, 12, 67, 44
14, 119999, Note_on_c, 12, 67, 0
14, 120000, Note_on_c, 12, 70, 44
14, 120119, Note_on_c, 12, 70, 0
14, 120120, Note_on_c, 12, 67, 44
14, 120239, Note_on_c, 12, 67, 0
14, 120240, Note_on_c, 12, 62, 44
14, 120359, Note_on_c, 12, 62, 0
14, 120360, Note_on_c, 12, 64, 44
14, 120479, Note_on_c, 12, 64, 0
14, 120480, Note_on_c, 12, 65, 44
14, 120599, Note_on_c, 12, 65, 0
14, 120600, Note_on_c, 12, 69, 44
14, 120719, Note_on_c, 12, 69, 0
14, 120720, Note_on_c, 12, 72, 44
14, 120824, Note_on_c, 12, 72, 0
14, 120840, Note_on_c, 12, 72, 44
14, 120929, Note_on_c, 12, 72, 0
14, 120960, Note_on_c, 12, 72, 44
14, 121049, Note_on_c, 12, 72, 0
14, 121080, Note_on_c, 12, 72, 45
14, 121169, Note_on_c, 12, 72, 0
14, 121200, Note_on_c, 12, 72, 47
14, 121319, Note_on_c, 12, 72, 0
14, 121320, Note_on_c, 12, 71, 49
14, 121439, Note_on_c, 12, 71, 0
14, 121440, Note_on_c, 12, 72, 50
14, 121559, Note_on_c, 12, 72, 0
14, 121560, Note_on_c, 12, 70, 52
14, 121679, Note_on_c, 12, 70, 0
14, 121680, Note_on_c, 12, 67, 54
14, 121799, Note_on_c, 12, 67, 0
14, 121800, Note_on_c, 12, 64, 55
14, 121919, Note_on_c, 12, 64, 0
14, 121920, Note_on_c, 12, 67, 57
14, 122039, Note_on_c, 12, 67, 0
14, 122040, Note_on_c, 12, 65, 59
14, 122159, Note_on_c, 12, 65, 0
14, 122160, Note_on_c, 12, 69, 60
14, 122279, Note_on_c, 12, 69, 0
14, 122280, Note_on_c, 12, 65, 62
14, 122399, Note_on_c, 12, 65, 0
14, 122400, Note_on_c, 12, 60, 64
14, 122519, Note_on_c, 12, 60, 0
14, 122520, Note_on_c, 12, 61, 65
14, 122639, Note_on_c, 12, 61, 0
14, 122640, Note_on_c, 12, 64, 67
14, 122759, Note_on_c, 12, 64, 0
14, 122760, Note_on_c, 12, 62, 69
14, 122879, Note_on_c, 12, 62, 0
14, 122880, Note_on_c, 12, 55, 70
14, 122999, Note_on_c, 12, 55, 0
14, 123000, Note_on_c, 12, 57, 72
14, 123119, Note_on_c, 12, 57, 0
14, 123120, Note_on_c, 12, 58, 74
14, 123224, Note_on_c, 12, 58, 0
14, 123240, Note_on_c, 12, 59, 76
14, 123344, Note_on_c, 12, 59, 0
14, 123360, Note_on_c, 12, 59, 80
14, 123599, Note_on_c, 12, 59, 0
14, 123600, Note_on_c, 12, 60, 80
14, 123719, Note_on_c, 12, 60, 0
14, 123720, Note_on_c, 12, 62, 80
14, 123839, Note_on_c, 12, 62, 0
14, 123840, Note_on_c, 12, 63, 80
14, 123944, Note_on_c, 12, 63, 0
14, 123960, Note_on_c, 12, 64, 80
14, 124064, Note_on_c, 12, 64, 0
14, 124080, Note_on_c, 12, 64, 80
14, 124319, Note_on_c, 12, 64, 0
14, 124320, Note_on_c, 12, 65, 80
14, 124439, Note_on_c, 12, 65, 0
14, 124440, Note_on_c, 12, 67, 80
14, 124559, Note_on_c, 12, 67, 0
14, 124560, Note_on_c, 12, 68, 80
14, 124664, Note_on_c, 12, 68, 0
14, 124680, Note_on_c, 12, 69, 84
14, 124784, Note_on_c, 12, 69, 0
14, 124800, Note_on_c, 12, 69, 84
14, 125039, Note_on_c, 12, 69, 0
14, 125040, Note_on_c, 12, 70, 84
14, 125159, Note_on_c, 12, 70, 0
14, 126120, Note_on_c, 12, 70, 84
14, 126224, Note_on_c, 12, 70, 0
14, 126240, Note_on_c, 12, 70, 84
14, 126479, Note_on_c, 12, 70, 0
14, 126480, Note_on_c, 12, 69, 84
14, 126599, Note_on_c, 12, 69, 0
14, 127560, Note_on_c, 12, 77, 84
14, 127664, Note_on_c, 12, 77, 0
14, 127680, Note_on_c, 12, 76, 84
14, 127919, Note_on_c, 12, 76, 0
14, 127920, Note_on_c, 12, 77, 84
14, 128039, Note_on_c, 12, 77, 0
14, 129000, Note_on_c, 12, 77, 84
14, 129104, Note_on_c, 12, 77, 0
14, 129120, Note_on_c, 12, 76, 84
14, 129359, Note_on_c, 12, 76, 0
14, 129360, Note_on_c, 12, 77, 84
14, 129479, Note_on_c, 12, 77, 0
14, 130080, Note_on_c, 12, 70, 84
14, 130319, Note_on_c, 12, 70, 0
14, 130320, Note_on_c, 12, 69, 84
14, 130439, Note_on_c, 12, 69, 0
14, 131040, Note_on_c, 12, 58, 92
14, 131099, Note_on_c, 12, 58, 0
14, 131100, Note_on_c, 12, 58, 84
14, 131279, Note_on_c, 12, 58, 0
14, 131280, Note_on_c, 12, 58, 84
14, 131999, Note_on_c, 12, 58, 0
14, 132000, Note_on_c, 12, 58, 84
14, 132239, Note_on_c, 12, 58, 0
14, 132240, Note_on_c, 12, 57, 84
14, 132344, Note_on_c, 12, 57, 0
14, 132360, Note_on_c, 12, 65, 84
14, 132479, Note_on_c, 12, 65, 0
14, 132480, Note_on_c, 12, 64, 84
14, 132599, Note_on_c, 12, 64, 0
14, 132600, Note_on_c, 12, 67, 84
14, 132704, Note_on_c, 12, 67, 0
14, 132720, Note_on_c, 12, 67, 76
14, 132839, Note_on_c, 12, 67, 0
14, 132840, Note_on_c, 12, 65, 76
14, 132959, Note_on_c, 12, 65, 0
14, 132960, Note_on_c, 12, 67, 76
14, 133079, Note_on_c, 12, 67, 0
14, 133080, Note_on_c, 12, 65, 76
14, 133184, Note_on_c, 12, 65, 0
14, 133200, Note_on_c, 12, 67, 76
14, 133319, Note_on_c, 12, 67, 0
14, 133440, Note_on_c, 12, 55, 84
14, 133440, Note_on_c, 12, 64, 84
14, 133440, Note_on_c, 12, 72, 84
14, 133499, Note_on_c, 12, 55, 0
14, 133499, Note_on_c, 12, 64, 0
14, 133499, Note_on_c, 12, 72, 0
14, 133500, Note_on_c, 12, 55, 76
14, 133500, Note_on_c, 12, 64, 76
14, 133500, Note_on_c, 12, 72, 76
14, 133679, Note_on_c, 12, 55, 0
14, 133679, Note_on_c, 12, 64, 0
14, 133784, Note_on_c, 12, 72, 0
14, 133800, Note_on_c, 12, 67, 76
14, 133919, Note_on_c, 12, 67, 0
14, 133920, Note_on_c, 12, 64, 76
14, 134039, Note_on_c, 12, 64, 0
14, 134040, Note_on_c, 12, 60, 76
14, 134144, Note_on_c, 12, 60, 0
14, 134160, Note_on_c, 12, 59, 76
14, 134160, Note_on_c, 12, 62, 76
14, 134279, Note_on_c, 12, 59, 0
14, 134279, Note_on_c, 12, 62, 0
14, 134280, Note_on_c, 12, 55, 76
14, 134399, Note_on_c, 12, 55, 0
14, 134400, Note_on_c, 12, 59, 76
14, 134400, Note_on_c, 12, 62, 76
14, 134519, Note_on_c, 12, 59, 0
14, 134519, Note_on_c, 12, 62, 0
14, 134520, Note_on_c, 12, 55, 76
14, 134639, Note_on_c, 12, 55, 0
14, 134640, Note_on_c, 12, 62, 76
14, 134759, Note_on_c, 12, 62, 0
14, 134760, Note_on_c, 12, 59, 76
14, 134864, Note_on_c, 12, 59, 0
14, 134880, Note_on_c, 12, 64, 76
14, 134999, Note_on_c, 12, 64, 0
14, 135000, Note_on_c, 12, 60, 76
14, 135119, Note_on_c, 12, 60, 0
14, 135120, Note_on_c, 12, 64, 76
14, 135239, Note_on_c, 12, 64, 0
14, 135240, Note_on_c, 12, 60, 76
14, 135359, Note_on_c, 12, 60, 0
14, 135360, Note_on_c, 12, 67, 76
14, 135479, Note_on_c, 12, 67, 0
14, 135480, Note_on_c, 12, 64, 76
14, 135584, Note_on_c, 12, 64, 0
14, 135600, Note_on_c, 12, 62, 84
14, 135704, Note_on_c, 12, 62, 0
14, 135720, Note_on_c, 12, 62, 76
14, 135839, Note_on_c, 12, 62, 0
14, 135840, Note_on_c, 12, 67, 76
14, 135959, Note_on_c, 12, 67, 0
14, 135960, Note_on_c, 12, 62, 76
14, 136079, Note_on_c, 12, 62, 0
14, 136080, Note_on_c, 12, 67, 76
14, 136199, Note_on_c, 12, 67, 0
14, 136200, Note_on_c, 12, 62, 76
14, 136304, Note_on_c, 12, 62, 0
14, 136320, Note_on_c, 12, 67, 84
14, 136439, Note_on_c, 12, 67, 0
14, 136440, Note_on_c, 12, 64, 76
14, 136559, Note_on_c, 12, 64, 0
14, 136560, Note_on_c, 12, 67, 76
14, 136679, Note_on_c, 12, 67, 0
14, 136680, Note_on_c, 12, 64, 76
14, 136799, Note_on_c, 12, 64, 0
14, 136800, Note_on_c, 12, 67, 76
14, 136919, Note_on_c, 12, 67, 0
14, 136920, Note_on_c, 12, 64, 76
14, 137024, Note_on_c, 12, 64, 0
14, 137040, Note_on_c, 12, 67, 84
14, 137159, Note_on_c, 12, 67, 0
14, 137160, Note_on_c, 12, 64, 76
14, 137279, Note_on_c, 12, 64, 0
14, 137280, Note_on_c, 12, 67, 76
14, 137399, Note_on_c, 12, 67, 0
14, 137400, Note_on_c, 12, 64, 76
14, 137519, Note_on_c, 12, 64, 0
14, 137520, Note_on_c, 12, 67, 76
14, 137639, Note_on_c, 12, 67, 0
14, 137640, Note_on_c, 12, 64, 76
14, 137744, Note_on_c, 12, 64, 0
14, 137760, Note_on_c, 12, 69, 84
14, 137879, Note_on_c, 12, 69, 0
14, 137880, Note_on_c, 12, 65, 76
14, 137999, Note_on_c, 12, 65, 0
14, 138000, Note_on_c, 12, 69, 76
14, 138119, Note_on_c, 12, 69, 0
14, 138120, Note_on_c, 12, 65, 76
14, 138239, Note_on_c, 12, 65, 0
14, 138240, Note_on_c, 12, 69, 76
14, 138359, Note_on_c, 12, 69, 0
14, 138360, Note_on_c, 12, 65, 76
14, 138464, Note_on_c, 12, 65, 0
14, 138480, Note_on_c, 12, 60, 76
14, 138480, Note_on_c, 12, 63, 76
14, 138599, Note_on_c, 12, 60, 0
14, 138599, Note_on_c, 12, 63, 0
14, 138660, Program_c, 12, 45
14, 138720, Note_on_c, 12, 60, 44
14, 138839, Note_on_c, 12, 60, 0
14, 139200, Note_on_c, 12, 60, 44
14, 139200, Note_on_c, 12, 63, 44
14, 139439, Note_on_c, 12, 60, 0
14, 139439, Note_on_c, 12, 63, 0
14, 139440, Note_on_c, 12, 60, 44
14, 139440, Note_on_c, 12, 63, 44
14, 139679, Note_on_c, 12, 60, 0
14, 139679, Note_on_c, 12, 63, 0
14, 139920, Note_on_c, 12, 60, 43
14, 139920, Note_on_c, 12, 63, 43
14, 140159, Note_on_c, 12, 60, 0
14, 140159, Note_on_c, 12, 63, 0
14, 140160, Note_on_c, 12, 63, 42
14, 140160, Note_on_c, 12, 60, 42
14, 140399, Note_on_c, 12, 63, 0
14, 140399, Note_on_c, 12, 60, 0
14, 140640, Note_on_c, 12, 60, 41
14, 140640, Note_on_c, 12, 63, 41
14, 140879, Note_on_c, 12, 60, 0
14, 140879, Note_on_c, 12, 63, 0
14, 140880, Note_on_c, 12, 63, 40
14, 140880, Note_on_c, 12, 60, 40
14, 141104, Note_on_c, 12, 63, 0
14, 141104, Note_on_c, 12, 60, 0
14, 141118, Program_c, 12, 48
14, 141120, Note_on_c, 12, 70, 44
14, 141120, Note_on_c, 12, 62, 44
14, 141239, Note_on_c, 12, 70, 0
14, 141239, Note_on_c, 12, 62, 0
14, 141600, Note_on_c, 12, 62, 44
14, 141600, Note_on_c, 12, 70, 44
14, 141719, Note_on_c, 12, 62, 0
14, 141719, Note_on_c, 12, 70, 0
14, 142080, Note_on_c, 12, 70, 44
14, 142080, Note_on_c, 12, 62, 44
14, 142199, Note_on_c, 12, 70, 0
14, 142199, Note_on_c, 12, 62, 0
14, 142560, Note_on_c, 12, 62, 44
14, 142679, Note_on_c, 12, 62, 0
14, 142680, Note_on_c, 12, 58, 44
14, 142799, Note_on_c, 12, 58, 0
14, 142800, Note_on_c, 12, 63, 44
14, 142919, Note_on_c, 12, 63, 0
14, 142920, Note_on_c, 12, 57, 44
14, 143039, Note_on_c, 12, 57, 0
14, 143040, Note_on_c, 12, 63, 44
14, 143159, Note_on_c, 12, 63, 0
14, 143160, Note_on_c, 12, 57, 44
14, 143279, Note_on_c, 12, 57, 0
14, 143280, Note_on_c, 12, 60, 44
14, 143399, Note_on_c, 12, 60, 0
14, 143400, Note_on_c, 12, 57, 44
14, 143504, Note_on_c, 12, 57, 0
14, 143520, Note_on_c, 12, 65, 44
14, 143639, Note_on_c, 12, 65, 0
14, 143640, Note_on_c, 12, 58, 44
14, 143759, Note_on_c, 12, 58, 0
14, 143760, Note_on_c, 12, 65, 44
14, 143879, Note_on_c, 12, 65, 0
14, 143880, Note_on_c, 12, 62, 44
14, 143984, Note_on_c, 12, 62, 0
14, 144000, Note_on_c, 12, 65, 44
14, 144119, Note_on_c, 12, 65, 0
14, 144120, Note_on_c, 12, 66, 44
14, 144239, Note_on_c, 12, 66, 0
14, 144240, Note_on_c, 12, 69, 44
14, 144359, Note_on_c, 12, 69, 0
14, 144360, Note_on_c, 12, 67, 44
14, 144479, Note_on_c, 12, 67, 0
14, 144480, Note_on_c, 12, 70, 44
14, 144599, Note_on_c, 12, 70, 0
14, 144600, Note_on_c, 12, 67, 44
14, 144719, Note_on_c, 12, 67, 0
14, 144720, Note_on_c, 12, 62, 44
14, 144839, Note_on_c, 12, 62, 0
14, 144840, Note_on_c, 12, 64, 44
14, 144959, Note_on_c, 12, 64, 0
14, 144960, Note_on_c, 12, 65, 44
14, 145079, Note_on_c, 12, 65, 0
14, 145080, Note_on_c, 12, 69, 44
14, 145199, Note_on_c, 12, 69, 0
14, 145200, Note_on_c, 12, 72, 44
14, 145304, Note_on_c, 12, 72, 0
14, 145320, Note_on_c, 12, 72, 44
14, 145409, Note_on_c, 12, 72, 0
14, 145440, Note_on_c, 12, 72, 44
14, 145529, Note_on_c, 12, 72, 0
14, 145560, Note_on_c, 12, 72, 45
14, 145649, Note_on_c, 12, 72, 0
14, 145680, Note_on_c, 12, 72, 47
14, 145799, Note_on_c, 12, 72, 0
14, 145800, Note_on_c, 12, 71, 49
14, 145919, Note_on_c, 12, 71, 0
14, 145920, Note_on_c, 12, 72, 50
14, 146039, Note_on_c, 12, 72, 0
14, 146040, Note_on_c, 12, 70, 52
14, 146159, Note_on_c, 12, 70, 0
14, 146160, Note_on_c, 12, 67, 54
14, 146279, Note_on_c, 12, 67, 0
14, 146280, Note_on_c, 12, 64, 55
14, 146399, Note_on_c, 12, 64, 0
14, 146400, Note_on_c, 12, 67, 57
14, 146519, Note_on_c, 12, 67, 0
14, 146520, Note_on_c, 12, 65, 59
14, 146639, Note_on_c, 12, 65, 0
14, 146640, Note_on_c, 12, 69, 60
14, 146759, Note_on_c, 12, 69, 0
14, 146760, Note_on_c, 12, 65, 62
14, 146879, Note_on_c, 12, 65, 0
14, 146880, Note_on_c, 12, 60, 64
14, 146999, Note_on_c, 12, 60, 0
14, 147000, Note_on_c, 12, 61, 65
14, 147119, Note_on_c, 12, 61, 0
14, 147120, Note_on_c, 12, 64, 67
14, 147239, Note_on_c, 12, 64, 0
14, 147240, Note_on_c, 12, 62, 69
14, 147359, Note_on_c, 12, 62, 0
14, 147360, Note_on_c, 12, 55, 70
14, 147479, Note_on_c, 12, 55, 0
14, 147480, Note_on_c, 12, 57, 72
14, 147599, Note_on_c, 12, 57, 0
14, 147600, Note_on_c, 12, 58, 74
14, 147704, Note_on_c, 12, 58, 0
14, 147720, Note_on_c, 12, 59, 76
14, 147824, Note_on_c, 12, 59, 0
14, 147840, Note_on_c, 12, 59, 80
14, 148079, Note_on_c, 12, 59, 0
14, 148080, Note_on_c, 12, 60, 80
14, 148199, Note_on_c, 12, 60, 0
14, 148200, Note_on_c, 12, 62, 80
14, 148319, Note_on_c, 12, 62, 0
14, 148320, Note_on_c, 12, 63, 80
14, 148424, Note_on_c, 12, 63, 0
14, 148440, Note_on_c, 12, 64, 80
14, 148544, Note_on_c, 12, 64, 0
14, 148560, Note_on_c, 12, 64, 80
14, 148799, Note_on_c, 12, 64, 0
14, 148800, Note_on_c, 12, 65, 80
14, 148919, Note_on_c, 12, 65, 0
14, 148920, Note_on_c, 12, 67, 80
14, 149039, Note_on_c, 12, 67, 0
14, 149040, Note_on_c, 12, 68, 80
14, 149144, Note_on_c, 12, 68, 0
14, 149160, Note_on_c, 12, 69, 84
14, 149264, Note_on_c, 12, 69, 0
14, 149280, Note_on_c, 12, 69, 84
14, 149519, Note_on_c, 12, 69, 0
14, 149520, Note_on_c, 12, 70, 84
14, 149639, Note_on_c, 12, 70, 0
14, 150600, Note_on_c, 12, 70, 84
14, 150704, Note_on_c, 12, 70, 0
14, 150720, Note_on_c, 12, 70, 84
14, 150959, Note_on_c, 12, 70, 0
14, 150960, Note_on_c, 12, 69, 84
14, 151079, Note_on_c, 12, 69, 0
14, 152040, Note_on_c, 12, 77, 84
14, 152144, Note_on_c, 12, 77, 0
14, 152160, Note_on_c, 12, 76, 84
14, 152399, Note_on_c, 12, 76, 0
14, 152400, Note_on_c, 12, 77, 84
14, 152519, Note_on_c, 12, 77, 0
14, 153480, Note_on_c, 12, 77, 84
14, 153584, Note_on_c, 12, 77, 0
14, 153600, Note_on_c, 12, 76, 84
14, 153839, Note_on_c, 12, 76, 0
14, 153840, Note_on_c, 12, 77, 84
14, 153959, Note_on_c, 12, 77, 0
14, 154560, Note_on_c, 12, 70, 84
14, 154799, Note_on_c, 12, 70, 0
14, 154800, Note_on_c, 12, 69, 84
14, 154919, Note_on_c, 12, 69, 0
14, 155520, Note_on_c, 12, 58, 92
14, 155579, Note_on_c, 12, 58, 0
14, 155580, Note_on_c, 12, 58, 84
14, 155759, Note_on_c, 12, 58, 0
14, 155760, Note_on_c, 12, 58, 84
14, 156479, Note_on_c, 12, 58, 0
14, 156480, Note_on_c, 12, 58, 84
14, 156719, Note_on_c, 12, 58, 0
14, 156720, Note_on_c, 12, 57, 84
14, 156839, Note_on_c, 12, 57, 0
14, 156839, End_track
15, 0, Start_track
15, 0, Title_t, "Viola "
15, 0, MIDI_port, 0
15, 0, Program_c, 13, 48
15, 0, Control_c, 13, 11, 127
15, 0, Control_c, 13, 10, 70
15, 0, Control_c, 13, 7, 96
15, 0, Note_on_c, 13, 53, 76
15, 119, Note_on_c, 13, 53, 0
15, 120, Note_on_c, 13, 48, 76
15, 224, Note_on_c, 13, 48, 0
15, 240, Note_on_c, 13, 53, 84
15, 359, Note_on_c, 13, 53, 0
15, 360, Note_on_c, 13, 48, 76
15, 479, Note_on_c, 13, 48, 0
15, 480, Note_on_c, 13, 53, 84
15, 599, Note_on_c, 13, 53, 0
15, 600, Note_on_c, 13, 48, 76
15, 704, Note_on_c, 13, 48, 0
15, 720, Note_on_c, 13, 57, 84
15, 839, Note_on_c, 13, 57, 0
15, 840, Note_on_c, 13, 53, 76
15, 944, Note_on_c, 13, 53, 0
15, 960, Note_on_c, 13, 57, 84
15, 1079, Note_on_c, 13, 57, 0
15, 1080, Note_on_c, 13, 53, 76
15, 1199, Note_on_c, 13, 53, 0
15, 1200, Note_on_c, 13, 57, 84
15, 1319, Note_on_c, 13, 57, 0
15, 1320, Note_on_c, 13, 53, 76
15, 1424, Note_on_c, 13, 53, 0
15, 1440, Note_on_c, 13, 57, 52
15, 1559, Note_on_c, 13, 57, 0
15, 1560, Note_on_c, 13, 53, 52
15, 1679, Note_on_c, 13, 53, 0
15, 1680, Note_on_c, 13, 58, 52
15, 1799, Note_on_c, 13, 58, 0
15, 1800, Note_on_c, 13, 55, 52
15, 1919, Note_on_c, 13, 55, 0
15, 1920, Note_on_c, 13, 58, 52
15, 2039, Note_on_c, 13, 58, 0
15, 2040, Note_on_c, 13, 55, 52
15, 2159, Note_on_c, 13, 55, 0
15, 2160, Note_on_c, 13, 58, 52
15, 2279, Note_on_c, 13, 58, 0
15, 2280, Note_on_c, 13, 55, 52
15, 2384, Note_on_c, 13, 55, 0
15, 2400, Note_on_c, 13, 60, 52
15, 2519, Note_on_c, 13, 60, 0
15, 2520, Note_on_c, 13, 57, 52
15, 2639, Note_on_c, 13, 57, 0
15, 2640, Note_on_c, 13, 60, 52
15, 2759, Note_on_c, 13, 60, 0
15, 2760, Note_on_c, 13, 57, 52
15, 2864, Note_on_c, 13, 57, 0
15, 2880, Note_on_c, 13, 57, 52
15, 2999, Note_on_c, 13, 57, 0
15, 3000, Note_on_c, 13, 48, 54
15, 3119, Note_on_c, 13, 48, 0
15, 3120, Note_on_c, 13, 58, 56
15, 3239, Note_on_c, 13, 58, 0
15, 3240, Note_on_c, 13, 48, 58
15, 3359, Note_on_c, 13, 48, 0
15, 3360, Note_on_c, 13, 58, 60
15, 3479, Note_on_c, 13, 58, 0
15, 3480, Note_on_c, 13, 57, 62
15, 3599, Note_on_c, 13, 57, 0
15, 3600, Note_on_c, 13, 55, 64
15, 3719, Note_on_c, 13, 55, 0
15, 3720, Note_on_c, 13, 53, 66
15, 3839, Note_on_c, 13, 53, 0
15, 3840, Note_on_c, 13, 55, 68
15, 3959, Note_on_c, 13, 55, 0
15, 3960, Note_on_c, 13, 53, 70
15, 4079, Note_on_c, 13, 53, 0
15, 4080, Note_on_c, 13, 52, 72
15, 4199, Note_on_c, 13, 52, 0
15, 4200, Note_on_c, 13, 58, 74
15, 4304, Note_on_c, 13, 58, 0
15, 4320, Note_on_c, 13, 57, 76
15, 4439, Note_on_c, 13, 57, 0
15, 4440, Note_on_c, 13, 53, 76
15, 4544, Note_on_c, 13, 53, 0
15, 4560, Note_on_c, 13, 58, 76
15, 4679, Note_on_c, 13, 58, 0
15, 4680, Note_on_c, 13, 55, 76
15, 4799, Note_on_c, 13, 55, 0
15, 4800, Note_on_c, 13, 58, 76
15, 4919, Note_on_c, 13, 58, 0
15, 4920, Note_on_c, 13, 55, 76
15, 5039, Note_on_c, 13, 55, 0
15, 5040, Note_on_c, 13, 58, 76
15, 5159, Note_on_c, 13, 58, 0
15, 5160, Note_on_c, 13, 55, 76
15, 5264, Note_on_c, 13, 55, 0
15, 5280, Note_on_c, 13, 60, 76
15, 5399, Note_on_c, 13, 60, 0
15, 5400, Note_on_c, 13, 57, 76
15, 5519, Note_on_c, 13, 57, 0
15, 5520, Note_on_c, 13, 60, 76
15, 5639, Note_on_c, 13, 60, 0
15, 5640, Note_on_c, 13, 57, 76
15, 5744, Note_on_c, 13, 57, 0
15, 5760, Note_on_c, 13, 65, 76
15, 5879, Note_on_c, 13, 65, 0
15, 5880, Note_on_c, 13, 53, 76
15, 5999, Note_on_c, 13, 53, 0
15, 6000, Note_on_c, 13, 53, 76
15, 6119, Note_on_c, 13, 53, 0
15, 6120, Note_on_c, 13, 54, 76
15, 6239, Note_on_c, 13, 54, 0
15, 6240, Note_on_c, 13, 55, 76
15, 6359, Note_on_c, 13, 55, 0
15, 6360, Note_on_c, 13, 57, 76
15, 6479, Note_on_c, 13, 57, 0
15, 6480, Note_on_c, 13, 58, 76
15, 6584, Note_on_c, 13, 58, 0
15, 6600, Note_on_c, 13, 55, 76
15, 6704, Note_on_c, 13, 55, 0
15, 6720, Note_on_c, 13, 55, 76
15, 6959, Note_on_c, 13, 55, 0
15, 6960, Note_on_c, 13, 53, 76
15, 7079, Note_on_c, 13, 53, 0
15, 7200, Note_on_c, 13, 53, 76
15, 7319, Note_on_c, 13, 53, 0
15, 7320, Note_on_c, 13, 48, 76
15, 7424, Note_on_c, 13, 48, 0
15, 7440, Note_on_c, 13, 53, 84
15, 7559, Note_on_c, 13, 53, 0
15, 7560, Note_on_c, 13, 48, 76
15, 7679, Note_on_c, 13, 48, 0
15, 7680, Note_on_c, 13, 53, 84
15, 7799, Note_on_c, 13, 53, 0
15, 7800, Note_on_c, 13, 48, 76
15, 7904, Note_on_c, 13, 48, 0
15, 7920, Note_on_c, 13, 57, 84
15, 8039, Note_on_c, 13, 57, 0
15, 8040, Note_on_c, 13, 53, 76
15, 8144, Note_on_c, 13, 53, 0
15, 8160, Note_on_c, 13, 57, 84
15, 8279, Note_on_c, 13, 57, 0
15, 8280, Note_on_c, 13, 53, 76
15, 8399, Note_on_c, 13, 53, 0
15, 8400, Note_on_c, 13, 57, 84
15, 8519, Note_on_c, 13, 57, 0
15, 8520, Note_on_c, 13, 53, 76
15, 8624, Note_on_c, 13, 53, 0
15, 8640, Note_on_c, 13, 57, 52
15, 8759, Note_on_c, 13, 57, 0
15, 8760, Note_on_c, 13, 53, 52
15, 8879, Note_on_c, 13, 53, 0
15, 8880, Note_on_c, 13, 58, 52
15, 8999, Note_on_c, 13, 58, 0
15, 9000, Note_on_c, 13, 55, 52
15, 9119, Note_on_c, 13, 55, 0
15, 9120, Note_on_c, 13, 58, 52
15, 9239, Note_on_c, 13, 58, 0
15, 9240, Note_on_c, 13, 55, 52
15, 9359, Note_on_c, 13, 55, 0
15, 9360, Note_on_c, 13, 58, 52
15, 9479, Note_on_c, 13, 58, 0
15, 9480, Note_on_c, 13, 55, 52
15, 9584, Note_on_c, 13, 55, 0
15, 9600, Note_on_c, 13, 60, 52
15, 9719, Note_on_c, 13, 60, 0
15, 9720, Note_on_c, 13, 57, 52
15, 9839, Note_on_c, 13, 57, 0
15, 9840, Note_on_c, 13, 60, 52
15, 9959, Note_on_c, 13, 60, 0
15, 9960, Note_on_c, 13, 57, 52
15, 10064, Note_on_c, 13, 57, 0
15, 10080, Note_on_c, 13, 57, 52
15, 10199, Note_on_c, 13, 57, 0
15, 10200, Note_on_c, 13, 48, 54
15, 10319, Note_on_c, 13, 48, 0
15, 10320, Note_on_c, 13, 58, 56
15, 10439, Note_on_c, 13, 58, 0
15, 10440, Note_on_c, 13, 48, 58
15, 10559, Note_on_c, 13, 48, 0
15, 10560, Note_on_c, 13, 58, 60
15, 10679, Note_on_c, 13, 58, 0
15, 10680, Note_on_c, 13, 57, 62
15, 10799, Note_on_c, 13, 57, 0
15, 10800, Note_on_c, 13, 55, 64
15, 10919, Note_on_c, 13, 55, 0
15, 10920, Note_on_c, 13, 53, 66
15, 11039, Note_on_c, 13, 53, 0
15, 11040, Note_on_c, 13, 55, 68
15, 11159, Note_on_c, 13, 55, 0
15, 11160, Note_on_c, 13, 53, 70
15, 11279, Note_on_c, 13, 53, 0
15, 11280, Note_on_c, 13, 52, 72
15, 11399, Note_on_c, 13, 52, 0
15, 11400, Note_on_c, 13, 58, 74
15, 11504, Note_on_c, 13, 58, 0
15, 11520, Note_on_c, 13, 57, 76
15, 11639, Note_on_c, 13, 57, 0
15, 11640, Note_on_c, 13, 53, 76
15, 11744, Note_on_c, 13, 53, 0
15, 11760, Note_on_c, 13, 58, 76
15, 11879, Note_on_c, 13, 58, 0
15, 11880, Note_on_c, 13, 55, 76
15, 11999, Note_on_c, 13, 55, 0
15, 12000, Note_on_c, 13, 58, 76
15, 12119, Note_on_c, 13, 58, 0
15, 12120, Note_on_c, 13, 55, 76
15, 12239, Note_on_c, 13, 55, 0
15, 12240, Note_on_c, 13, 58, 76
15, 12359, Note_on_c, 13, 58, 0
15, 12360, Note_on_c, 13, 55, 76
15, 12464, Note_on_c, 13, 55, 0
15, 12480, Note_on_c, 13, 60, 76
15, 12599, Note_on_c, 13, 60, 0
15, 12600, Note_on_c, 13, 57, 76
15, 12719, Note_on_c, 13, 57, 0
15, 12720, Note_on_c, 13, 60, 76
15, 12839, Note_on_c, 13, 60, 0
15, 12840, Note_on_c, 13, 57, 76
15, 12944, Note_on_c, 13, 57, 0
15, 12960, Note_on_c, 13, 65, 76
15, 13079, Note_on_c, 13, 65, 0
15, 13080, Note_on_c, 13, 53, 76
15, 13199, Note_on_c, 13, 53, 0
15, 13200, Note_on_c, 13, 53, 76
15, 13319, Note_on_c, 13, 53, 0
15, 13320, Note_on_c, 13, 54, 76
15, 13439, Note_on_c, 13, 54, 0
15, 13440, Note_on_c, 13, 55, 76
15, 13559, Note_on_c, 13, 55, 0
15, 13560, Note_on_c, 13, 57, 76
15, 13679, Note_on_c, 13, 57, 0
15, 13680, Note_on_c, 13, 58, 76
15, 13784, Note_on_c, 13, 58, 0
15, 13800, Note_on_c, 13, 55, 76
15, 13904, Note_on_c, 13, 55, 0
15, 13920, Note_on_c, 13, 55, 76
15, 14159, Note_on_c, 13, 55, 0
15, 14160, Note_on_c, 13, 53, 76
15, 14264, Note_on_c, 13, 53, 0
15, 14280, Note_on_c, 13, 60, 76
15, 14384, Note_on_c, 13, 60, 0
15, 14400, Note_on_c, 13, 60, 76
15, 14519, Note_on_c, 13, 60, 0
15, 14520, Note_on_c, 13, 64, 76
15, 14624, Note_on_c, 13, 64, 0
15, 14640, Note_on_c, 13, 62, 76
15, 14759, Note_on_c, 13, 62, 0
15, 14760, Note_on_c, 13, 62, 76
15, 14879, Note_on_c, 13, 62, 0
15, 14880, Note_on_c, 13, 65, 76
15, 14999, Note_on_c, 13, 65, 0
15, 15000, Note_on_c, 13, 59, 76
15, 15119, Note_on_c, 13, 59, 0
15, 15120, Note_on_c, 13, 65, 76
15, 15239, Note_on_c, 13, 65, 0
15, 15240, Note_on_c, 13, 59, 76
15, 15344, Note_on_c, 13, 59, 0
15, 15360, Note_on_c, 13, 64, 76
15, 15479, Note_on_c, 13, 64, 0
15, 15480, Note_on_c, 13, 60, 76
15, 15599, Note_on_c, 13, 60, 0
15, 15600, Note_on_c, 13, 64, 76
15, 15719, Note_on_c, 13, 64, 0
15, 15720, Note_on_c, 13, 60, 76
15, 15824, Note_on_c, 13, 60, 0
15, 15840, Note_on_c, 13, 60, 76
15, 15959, Note_on_c, 13, 60, 0
15, 16080, Note_on_c, 13, 65, 84
15, 16139, Note_on_c, 13, 65, 0
15, 16140, Note_on_c, 13, 65, 76
15, 16439, Note_on_c, 13, 65, 0
15, 16440, Note_on_c, 13, 62, 76
15, 16559, Note_on_c, 13, 62, 0
15, 16560, Note_on_c, 13, 59, 76
15, 16679, Note_on_c, 13, 59, 0
15, 16680, Note_on_c, 13, 55, 76
15, 16784, Note_on_c, 13, 55, 0
15, 16800, Note_on_c, 13, 60, 76
15, 16919, Note_on_c, 13, 60, 0
15, 16920, Note_on_c, 13, 52, 76
15, 17039, Note_on_c, 13, 52, 0
15, 17040, Note_on_c, 13, 60, 76
15, 17159, Note_on_c, 13, 60, 0
15, 17160, Note_on_c, 13, 52, 76
15, 17279, Note_on_c, 13, 52, 0
15, 17280, Note_on_c, 13, 55, 76
15, 17399, Note_on_c, 13, 55, 0
15, 17400, Note_on_c, 13, 52, 76
15, 17504, Note_on_c, 13, 52, 0
15, 17520, Note_on_c, 13, 50, 84
15, 17639, Note_on_c, 13, 50, 0
15, 17640, Note_on_c, 13, 59, 76
15, 17759, Note_on_c, 13, 59, 0
15, 17760, Note_on_c, 13, 62, 76
15, 17879, Note_on_c, 13, 62, 0
15, 17880, Note_on_c, 13, 59, 76
15, 17999, Note_on_c, 13, 59, 0
15, 18000, Note_on_c, 13, 62, 76
15, 18119, Note_on_c, 13, 62, 0
15, 18120, Note_on_c, 13, 59, 76
15, 18224, Note_on_c, 13, 59, 0
15, 18240, Note_on_c, 13, 64, 84
15, 18359, Note_on_c, 13, 64, 0
15, 18360, Note_on_c, 13, 60, 76
15, 18479, Note_on_c, 13, 60, 0
15, 18480, Note_on_c, 13, 64, 76
15, 18599, Note_on_c, 13, 64, 0
15, 18600, Note_on_c, 13, 60, 76
15, 18719, Note_on_c, 13, 60, 0
15, 18720, Note_on_c, 13, 64, 76
15, 18839, Note_on_c, 13, 64, 0
15, 18840, Note_on_c, 13, 60, 76
15, 18944, Note_on_c, 13, 60, 0
15, 18960, Note_on_c, 13, 58, 84
15, 19079, Note_on_c, 13, 58, 0
15, 19080, Note_on_c, 13, 55, 76
15, 19199, Note_on_c, 13, 55, 0
15, 19200, Note_on_c, 13, 58, 76
15, 19319, Note_on_c, 13, 58, 0
15, 19320, Note_on_c, 13, 55, 76
15, 19439, Note_on_c, 13, 55, 0
15, 19440, Note_on_c, 13, 58, 76
15, 19559, Note_on_c, 13, 58, 0
15, 19560, Note_on_c, 13, 67, 76
15, 19664, Note_on_c, 13, 67, 0
15, 19680, Note_on_c, 13, 65, 84
15, 19799, Note_on_c, 13, 65, 0
15, 19800, Note_on_c, 13, 57, 76
15, 19919, Note_on_c, 13, 57, 0
15, 19920, Note_on_c, 13, 65, 76
15, 20039, Note_on_c, 13, 65, 0
15, 20040, Note_on_c, 13, 57, 76
15, 20159, Note_on_c, 13, 57, 0
15, 20160, Note_on_c, 13, 65, 76
15, 20279, Note_on_c, 13, 65, 0
15, 20280, Note_on_c, 13, 57, 76
15, 20384, Note_on_c, 13, 57, 0
15, 20400, Note_on_c, 13, 57, 76
15, 20519, Note_on_c, 13, 57, 0
15, 20580, Program_c, 13, 45
15, 20640, Note_on_c, 13, 57, 44
15, 20759, Note_on_c, 13, 57, 0
15, 21120, Note_on_c, 13, 57, 44
15, 21359, Note_on_c, 13, 57, 0
15, 21360, Note_on_c, 13, 57, 44
15, 21599, Note_on_c, 13, 57, 0
15, 21840, Note_on_c, 13, 57, 43
15, 22079, Note_on_c, 13, 57, 0
15, 22080, Note_on_c, 13, 57, 42
15, 22319, Note_on_c, 13, 57, 0
15, 22560, Note_on_c, 13, 57, 41
15, 22799, Note_on_c, 13, 57, 0
15, 22800, Note_on_c, 13, 57, 41
15, 23024, Note_on_c, 13, 57, 0
15, 23038, Program_c, 13, 48
15, 23040, Note_on_c, 13, 53, 44
15, 23159, Note_on_c, 13, 53, 0
15, 23520, Note_on_c, 13, 53, 44
15, 23639, Note_on_c, 13, 53, 0
15, 24000, Note_on_c, 13, 53, 44
15, 24119, Note_on_c, 13, 53, 0
15, 24480, Note_on_c, 13, 58, 44
15, 24599, Note_on_c, 13, 58, 0
15, 24600, Note_on_c, 13, 53, 44
15, 24719, Note_on_c, 13, 53, 0
15, 24720, Note_on_c, 13, 57, 44
15, 24839, Note_on_c, 13, 57, 0
15, 24840, Note_on_c, 13, 53, 44
15, 24959, Note_on_c, 13, 53, 0
15, 24960, Note_on_c, 13, 57, 44
15, 25079, Note_on_c, 13, 57, 0
15, 25080, Note_on_c, 13, 53, 44
15, 25199, Note_on_c, 13, 53, 0
15, 25200, Note_on_c, 13, 57, 44
15, 25319, Note_on_c, 13, 57, 0
15, 25320, Note_on_c, 13, 53, 44
15, 25424, Note_on_c, 13, 53, 0
15, 25440, Note_on_c, 13, 58, 44
15, 25559, Note_on_c, 13, 58, 0
15, 25560, Note_on_c, 13, 53, 44
15, 25679, Note_on_c, 13, 53, 0
15, 25680, Note_on_c, 13, 58, 44
15, 25799, Note_on_c, 13, 58, 0
15, 25800, Note_on_c, 13, 53, 44
15, 25904, Note_on_c, 13, 53, 0
15, 25920, Note_on_c, 13, 62, 44
15, 26039, Note_on_c, 13, 62, 0
15, 26040, Note_on_c, 13, 60, 44
15, 26159, Note_on_c, 13, 60, 0
15, 26160, Note_on_c, 13, 58, 44
15, 26264, Note_on_c, 13, 58, 0
15, 26280, Note_on_c, 13, 58, 44
15, 26369, Note_on_c, 13, 58, 0
15, 26400, Note_on_c, 13, 58, 44
15, 26519, Note_on_c, 13, 58, 0
15, 26520, Note_on_c, 13, 55, 44
15, 26639, Note_on_c, 13, 55, 0
15, 26640, Note_on_c, 13, 58, 44
15, 26759, Note_on_c, 13, 58, 0
15, 26760, Note_on_c, 13, 55, 44
15, 26879, Note_on_c, 13, 55, 0
15, 26880, Note_on_c, 13, 60, 44
15, 26999, Note_on_c, 13, 60, 0
15, 27000, Note_on_c, 13, 57, 44
15, 27104, Note_on_c, 13, 57, 0
15, 27120, Note_on_c, 13, 57, 44
15, 27239, Note_on_c, 13, 57, 0
15, 27240, Note_on_c, 13, 53, 44
15, 27344, Note_on_c, 13, 53, 0
15, 27360, Note_on_c, 13, 57, 44
15, 27479, Note_on_c, 13, 57, 0
15, 27480, Note_on_c, 13, 53, 45
15, 27599, Note_on_c, 13, 53, 0
15, 27600, Note_on_c, 13, 58, 47
15, 27719, Note_on_c, 13, 58, 0
15, 27720, Note_on_c, 13, 55, 49
15, 27839, Note_on_c, 13, 55, 0
15, 27840, Note_on_c, 13, 58, 50
15, 27959, Note_on_c, 13, 58, 0
15, 27960, Note_on_c, 13, 55, 52
15, 28064, Note_on_c, 13, 55, 0
15, 28080, Note_on_c, 13, 60, 54
15, 28199, Note_on_c, 13, 60, 0
15, 28200, Note_on_c, 13, 55, 55
15, 28319, Note_on_c, 13, 55, 0
15, 28320, Note_on_c, 13, 60, 57
15, 28439, Note_on_c, 13, 60, 0
15, 28440, Note_on_c, 13, 57, 59
15, 28559, Note_on_c, 13, 57, 0
15, 28560, Note_on_c, 13, 60, 60
15, 28679, Note_on_c, 13, 60, 0
15, 28680, Note_on_c, 13, 57, 62
15, 28799, Note_on_c, 13, 57, 0
15, 28800, Note_on_c, 13, 60, 64
15, 28919, Note_on_c, 13, 60, 0
15, 28920, Note_on_c, 13, 57, 65
15, 29024, Note_on_c, 13, 57, 0
15, 29040, Note_on_c, 13, 58, 67
15, 29159, Note_on_c, 13, 58, 0
15, 29160, Note_on_c, 13, 48, 69
15, 29279, Note_on_c, 13, 48, 0
15, 29280, Note_on_c, 13, 62, 70
15, 29399, Note_on_c, 13, 62, 0
15, 29400, Note_on_c, 13, 60, 72
15, 29519, Note_on_c, 13, 60, 0
15, 29520, Note_on_c, 13, 58, 74
15, 29624, Note_on_c, 13, 58, 0
15, 29640, Note_on_c, 13, 56, 76
15, 29744, Note_on_c, 13, 56, 0
15, 29760, Note_on_c, 13, 56, 80
15, 29879, Note_on_c, 13, 56, 0
15, 29880, Note_on_c, 13, 48, 80
15, 29999, Note_on_c, 13, 48, 0
15, 30000, Note_on_c, 13, 55, 80
15, 30119, Note_on_c, 13, 55, 0
15, 30120, Note_on_c, 13, 53, 80
15, 30239, Note_on_c, 13, 53, 0
15, 30240, Note_on_c, 13, 55, 80
15, 30344, Note_on_c, 13, 55, 0
15, 30360, Note_on_c, 13, 55, 80
15, 30464, Note_on_c, 13, 55, 0
15, 30480, Note_on_c, 13, 55, 80
15, 30599, Note_on_c, 13, 55, 0
15, 30600, Note_on_c, 13, 60, 80
15, 30704, Note_on_c, 13, 60, 0
15, 30720, Note_on_c, 13, 60, 80
15, 30839, Note_on_c, 13, 60, 0
15, 30840, Note_on_c, 13, 58, 80
15, 30959, Note_on_c, 13, 58, 0
15, 30960, Note_on_c, 13, 60, 80
15, 31064, Note_on_c, 13, 60, 0
15, 31080, Note_on_c, 13, 60, 84
15, 31184, Note_on_c, 13, 60, 0
15, 31200, Note_on_c, 13, 60, 84
15, 31439, Note_on_c, 13, 60, 0
15, 31440, Note_on_c, 13, 62, 84
15, 31559, Note_on_c, 13, 62, 0
15, 32520, Note_on_c, 13, 67, 84
15, 32624, Note_on_c, 13, 67, 0
15, 32640, Note_on_c, 13, 67, 84
15, 32879, Note_on_c, 13, 67, 0
15, 32880, Note_on_c, 13, 65, 84
15, 32999, Note_on_c, 13, 65, 0
15, 33960, Note_on_c, 13, 69, 84
15, 34064, Note_on_c, 13, 69, 0
15, 34080, Note_on_c, 13, 70, 84
15, 34319, Note_on_c, 13, 70, 0
15, 34320, Note_on_c, 13, 69, 84
15, 34439, Note_on_c, 13, 69, 0
15, 35400, Note_on_c, 13, 69, 84
15, 35504, Note_on_c, 13, 69, 0
15, 35520, Note_on_c, 13, 70, 84
15, 35759, Note_on_c, 13, 70, 0
15, 35760, Note_on_c, 13, 69, 84
15, 35879, Note_on_c, 13, 69, 0
15, 36480, Note_on_c, 13, 67, 84
15, 36719, Note_on_c, 13, 67, 0
15, 36720, Note_on_c, 13, 65, 84
15, 36839, Note_on_c, 13, 65, 0
15, 37440, Note_on_c, 13, 55, 92
15, 37499, Note_on_c, 13, 55, 0
15, 37500, Note_on_c, 13, 55, 84
15, 37679, Note_on_c, 13, 55, 0
15, 37680, Note_on_c, 13, 55, 84
15, 38399, Note_on_c, 13, 55, 0
15, 38400, Note_on_c, 13, 55, 84
15, 38639, Note_on_c, 13, 55, 0
15, 38640, Note_on_c, 13, 53, 84
15, 38744, Note_on_c, 13, 53, 0
15, 38760, Note_on_c, 13, 60, 84
15, 38864, Note_on_c, 13, 60, 0
15, 38880, Note_on_c, 13, 60, 84
15, 38999, Note_on_c, 13, 60, 0
15, 39000, Note_on_c, 13, 64, 84
15, 39104, Note_on_c, 13, 64, 0
15, 39120, Note_on_c, 13, 62, 76
15, 39239, Note_on_c, 13, 62, 0
15, 39240, Note_on_c, 13, 62, 76
15, 39359, Note_on_c, 13, 62, 0
15, 39360, Note_on_c, 13, 65, 76
15, 39479, Note_on_c, 13, 65, 0
15, 39480, Note_on_c, 13, 59, 76
15, 39599, Note_on_c, 13, 59, 0
15, 39600, Note_on_c, 13, 65, 76
15, 39719, Note_on_c, 13, 65, 0
15, 39720, Note_on_c, 13, 59, 76
15, 39824, Note_on_c, 13, 59, 0
15, 39840, Note_on_c, 13, 64, 76
15, 39959, Note_on_c, 13, 64, 0
15, 39960, Note_on_c, 13, 60, 76
15, 40079, Note_on_c, 13, 60, 0
15, 40080, Note_on_c, 13, 64, 76
15, 40199, Note_on_c, 13, 64, 0
15, 40200, Note_on_c, 13, 60, 76
15, 40304, Note_on_c, 13, 60, 0
15, 40320, Note_on_c, 13, 60, 76
15, 40439, Note_on_c, 13, 60, 0
15, 40560, Note_on_c, 13, 65, 84
15, 40619, Note_on_c, 13, 65, 0
15, 40620, Note_on_c, 13, 65, 76
15, 40919, Note_on_c, 13, 65, 0
15, 40920, Note_on_c, 13, 62, 76
15, 41039, Note_on_c, 13, 62, 0
15, 41040, Note_on_c, 13, 59, 76
15, 41159, Note_on_c, 13, 59, 0
15, 41160, Note_on_c, 13, 55, 76
15, 41264, Note_on_c, 13, 55, 0
15, 41280, Note_on_c, 13, 60, 76
15, 41399, Note_on_c, 13, 60, 0
15, 41400, Note_on_c, 13, 52, 76
15, 41519, Note_on_c, 13, 52, 0
15, 41520, Note_on_c, 13, 60, 76
15, 41639, Note_on_c, 13, 60, 0
15, 41640, Note_on_c, 13, 52, 76
15, 41759, Note_on_c, 13, 52, 0
15, 41760, Note_on_c, 13, 55, 76
15, 41879, Note_on_c, 13, 55, 0
15, 41880, Note_on_c, 13, 52, 76
15, 41984, Note_on_c, 13, 52, 0
15, 42000, Note_on_c, 13, 50, 84
15, 42119, Note_on_c, 13, 50, 0
15, 42120, Note_on_c, 13, 59, 76
15, 42239, Note_on_c, 13, 59, 0
15, 42240, Note_on_c, 13, 62, 76
15, 42359, Note_on_c, 13, 62, 0
15, 42360, Note_on_c, 13, 59, 76
15, 42479, Note_on_c, 13, 59, 0
15, 42480, Note_on_c, 13, 62, 76
15, 42599, Note_on_c, 13, 62, 0
15, 42600, Note_on_c, 13, 59, 76
15, 42704, Note_on_c, 13, 59, 0
15, 42720, Note_on_c, 13, 64, 84
15, 42839, Note_on_c, 13, 64, 0
15, 42840, Note_on_c, 13, 60, 76
15, 42959, Note_on_c, 13, 60, 0
15, 42960, Note_on_c, 13, 64, 76
15, 43079, Note_on_c, 13, 64, 0
15, 43080, Note_on_c, 13, 60, 76
15, 43199, Note_on_c, 13, 60, 0
15, 43200, Note_on_c, 13, 64, 76
15, 43319, Note_on_c, 13, 64, 0
15, 43320, Note_on_c, 13, 60, 76
15, 43424, Note_on_c, 13, 60, 0
15, 43440, Note_on_c, 13, 58, 84
15, 43559, Note_on_c, 13, 58, 0
15, 43560, Note_on_c, 13, 55, 76
15, 43679, Note_on_c, 13, 55, 0
15, 43680, Note_on_c, 13, 58, 76
15, 43799, Note_on_c, 13, 58, 0
15, 43800, Note_on_c, 13, 55, 76
15, 43919, Note_on_c, 13, 55, 0
15, 43920, Note_on_c, 13, 58, 76
15, 44039, Note_on_c, 13, 58, 0
15, 44040, Note_on_c, 13, 67, 76
15, 44144, Note_on_c, 13, 67, 0
15, 44160, Note_on_c, 13, 65, 84
15, 44279, Note_on_c, 13, 65, 0
15, 44280, Note_on_c, 13, 57, 76
15, 44399, Note_on_c, 13, 57, 0
15, 44400, Note_on_c, 13, 65, 76
15, 44519, Note_on_c, 13, 65, 0
15, 44520, Note_on_c, 13, 57, 76
15, 44639, Note_on_c, 13, 57, 0
15, 44640, Note_on_c, 13, 65, 76
15, 44759, Note_on_c, 13, 65, 0
15, 44760, Note_on_c, 13, 57, 76
15, 44864, Note_on_c, 13, 57, 0
15, 44880, Note_on_c, 13, 57, 76
15, 44999, Note_on_c, 13, 57, 0
15, 45060, Program_c, 13, 45
15, 45120, Note_on_c, 13, 57, 44
15, 45239, Note_on_c, 13, 57, 0
15, 45600, Note_on_c, 13, 57, 44
15, 45839, Note_on_c, 13, 57, 0
15, 45840, Note_on_c, 13, 57, 44
15, 46079, Note_on_c, 13, 57, 0
15, 46320, Note_on_c, 13, 57, 43
15, 46559, Note_on_c, 13, 57, 0
15, 46560, Note_on_c, 13, 57, 42
15, 46799, Note_on_c, 13, 57, 0
15, 47040, Note_on_c, 13, 57, 41
15, 47279, Note_on_c, 13, 57, 0
15, 47280, Note_on_c, 13, 57, 41
15, 47504, Note_on_c, 13, 57, 0
15, 47518, Program_c, 13, 48
15, 47520, Note_on_c, 13, 53, 44
15, 47639, Note_on_c, 13, 53, 0
15, 48000, Note_on_c, 13, 53, 44
15, 48119, Note_on_c, 13, 53, 0
15, 48480, Note_on_c, 13, 53, 44
15, 48599, Note_on_c, 13, 53, 0
15, 48960, Note_on_c, 13, 58, 44
15, 49079, Note_on_c, 13, 58, 0
15, 49080, Note_on_c, 13, 53, 44
15, 49199, Note_on_c, 13, 53, 0
15, 49200, Note_on_c, 13, 57, 44
15, 49319, Note_on_c, 13, 57, 0
15, 49320, Note_on_c, 13, 53, 44
15, 49439, Note_on_c, 13, 53, 0
15, 49440, Note_on_c, 13, 57, 44
15, 49559, Note_on_c, 13, 57, 0
15, 49560, Note_on_c, 13, 53, 44
15, 49679, Note_on_c, 13, 53, 0
15, 49680, Note_on_c, 13, 57, 44
15, 49799, Note_on_c, 13, 57, 0
15, 49800, Note_on_c, 13, 53, 44
15, 49904, Note_on_c, 13, 53, 0
15, 49920, Note_on_c, 13, 58, 44
15, 50039, Note_on_c, 13, 58, 0
15, 50040, Note_on_c, 13, 53, 44
15, 50159, Note_on_c, 13, 53, 0
15, 50160, Note_on_c, 13, 58, 44
15, 50279, Note_on_c, 13, 58, 0
15, 50280, Note_on_c, 13, 53, 44
15, 50384, Note_on_c, 13, 53, 0
15, 50400, Note_on_c, 13, 62, 44
15, 50519, Note_on_c, 13, 62, 0
15, 50520, Note_on_c, 13, 60, 44
15, 50639, Note_on_c, 13, 60, 0
15, 50640, Note_on_c, 13, 58, 44
15, 50744, Note_on_c, 13, 58, 0
15, 50760, Note_on_c, 13, 58, 44
15, 50849, Note_on_c, 13, 58, 0
15, 50880, Note_on_c, 13, 58, 44
15, 50999, Note_on_c, 13, 58, 0
15, 51000, Note_on_c, 13, 55, 44
15, 51119, Note_on_c, 13, 55, 0
15, 51120, Note_on_c, 13, 58, 44
15, 51239, Note_on_c, 13, 58, 0
15, 51240, Note_on_c, 13, 55, 44
15, 51359, Note_on_c, 13, 55, 0
15, 51360, Note_on_c, 13, 60, 44
15, 51479, Note_on_c, 13, 60, 0
15, 51480, Note_on_c, 13, 57, 44
15, 51584, Note_on_c, 13, 57, 0
15, 51600, Note_on_c, 13, 57, 44
15, 51719, Note_on_c, 13, 57, 0
15, 51720, Note_on_c, 13, 53, 44
15, 51824, Note_on_c, 13, 53, 0
15, 51840, Note_on_c, 13, 57, 44
15, 51959, Note_on_c, 13, 57, 0
15, 51960, Note_on_c, 13, 53, 45
15, 52079, Note_on_c, 13, 53, 0
15, 52080, Note_on_c, 13, 58, 47
15, 52199, Note_on_c, 13, 58, 0
15, 52200, Note_on_c, 13, 55, 49
15, 52319, Note_on_c, 13, 55, 0
15, 52320, Note_on_c, 13, 58, 50
15, 52439, Note_on_c, 13, 58, 0
15, 52440, Note_on_c, 13, 55, 52
15, 52544, Note_on_c, 13, 55, 0
15, 52560, Note_on_c, 13, 60, 54
15, 52679, Note_on_c, 13, 60, 0
15, 52680, Note_on_c, 13, 55, 55
15, 52799, Note_on_c, 13, 55, 0
15, 52800, Note_on_c, 13, 60, 57
15, 52919, Note_on_c, 13, 60, 0
15, 52920, Note_on_c, 13, 57, 59
15, 53039, Note_on_c, 13, 57, 0
15, 53040, Note_on_c, 13, 60, 60
15, 53159, Note_on_c, 13, 60, 0
15, 53160, Note_on_c, 13, 57, 62
15, 53279, Note_on_c, 13, 57, 0
15, 53280, Note_on_c, 13, 60, 64
15, 53399, Note_on_c, 13, 60, 0
15, 53400, Note_on_c, 13, 57, 65
15, 53504, Note_on_c, 13, 57, 0
15, 53520, Note_on_c, 13, 58, 67
15, 53639, Note_on_c, 13, 58, 0
15, 53640, Note_on_c, 13, 48, 69
15, 53759, Note_on_c, 13, 48, 0
15, 53760, Note_on_c, 13, 62, 70
15, 53879, Note_on_c, 13, 62, 0
15, 53880, Note_on_c, 13, 60, 72
15, 53999, Note_on_c, 13, 60, 0
15, 54000, Note_on_c, 13, 58, 74
15, 54104, Note_on_c, 13, 58, 0
15, 54120, Note_on_c, 13, 56, 76
15, 54224, Note_on_c, 13, 56, 0
15, 54240, Note_on_c, 13, 56, 80
15, 54359, Note_on_c, 13, 56, 0
15, 54360, Note_on_c, 13, 48, 80
15, 54479, Note_on_c, 13, 48, 0
15, 54480, Note_on_c, 13, 55, 80
15, 54599, Note_on_c, 13, 55, 0
15, 54600, Note_on_c, 13, 53, 80
15, 54719, Note_on_c, 13, 53, 0
15, 54720, Note_on_c, 13, 55, 80
15, 54824, Note_on_c, 13, 55, 0
15, 54840, Note_on_c, 13, 55, 80
15, 54944, Note_on_c, 13, 55, 0
15, 54960, Note_on_c, 13, 55, 80
15, 55079, Note_on_c, 13, 55, 0
15, 55080, Note_on_c, 13, 60, 80
15, 55184, Note_on_c, 13, 60, 0
15, 55200, Note_on_c, 13, 60, 80
15, 55319, Note_on_c, 13, 60, 0
15, 55320, Note_on_c, 13, 58, 80
15, 55439, Note_on_c, 13, 58, 0
15, 55440, Note_on_c, 13, 60, 80
15, 55544, Note_on_c, 13, 60, 0
15, 55560, Note_on_c, 13, 60, 84
15, 55664, Note_on_c, 13, 60, 0
15, 55680, Note_on_c, 13, 60, 84
15, 55919, Note_on_c, 13, 60, 0
15, 55920, Note_on_c, 13, 62, 84
15, 56039, Note_on_c, 13, 62, 0
15, 57000, Note_on_c, 13, 67, 84
15, 57104, Note_on_c, 13, 67, 0
15, 57120, Note_on_c, 13, 67, 84
15, 57359, Note_on_c, 13, 67, 0
15, 57360, Note_on_c, 13, 65, 84
15, 57479, Note_on_c, 13, 65, 0
15, 58440, Note_on_c, 13, 69, 84
15, 58544, Note_on_c, 13, 69, 0
15, 58560, Note_on_c, 13, 70, 84
15, 58799, Note_on_c, 13, 70, 0
15, 58800, Note_on_c, 13, 69, 84
15, 58919, Note_on_c, 13, 69, 0
15, 59880, Note_on_c, 13, 69, 84
15, 59984, Note_on_c, 13, 69, 0
15, 60000, Note_on_c, 13, 70, 84
15, 60239, Note_on_c, 13, 70, 0
15, 60240, Note_on_c, 13, 69, 84
15, 60359, Note_on_c, 13, 69, 0
15, 60960, Note_on_c, 13, 67, 84
15, 61199, Note_on_c, 13, 67, 0
15, 61200, Note_on_c, 13, 65, 84
15, 61319, Note_on_c, 13, 65, 0
15, 61920, Note_on_c, 13, 55, 92
15, 61979, Note_on_c, 13, 55, 0
15, 61980, Note_on_c, 13, 55, 84
15, 62159, Note_on_c, 13, 55, 0
15, 62160, Note_on_c, 13, 55, 84
15, 62879, Note_on_c, 13, 55, 0
15, 62880, Note_on_c, 13, 55, 84
15, 63119, Note_on_c, 13, 55, 0
15, 63120, Note_on_c, 13, 53, 84
15, 63239, Note_on_c, 13, 53, 0
15, 74760, Note_on_c, 13, 55, 52
15, 74864, Note_on_c, 13, 55, 0
15, 74880, Note_on_c, 13, 57, 52
15, 74984, Note_on_c, 13, 57, 0
15, 75000, Note_on_c, 13, 59, 52
15, 75089, Note_on_c, 13, 59, 0
15, 75120, Note_on_c, 13, 52, 52
15, 75120, Note_on_c, 13, 60, 52
15, 75479, Note_on_c, 13, 52, 0
15, 75479, Note_on_c, 13, 60, 0
15, 75480, Note_on_c, 13, 62, 52
15, 75480, Note_on_c, 13, 55, 52
15, 75599, Note_on_c, 13, 62, 0
15, 75599, Note_on_c, 13, 55, 0
15, 75600, Note_on_c, 13, 64, 52
15, 75600, Note_on_c, 13, 60, 52
15, 75824, Note_on_c, 13, 64, 0
15, 75824, Note_on_c, 13, 60, 0
15, 75840, Note_on_c, 13, 64, 52
15, 75840, Note_on_c, 13, 60, 52
15, 76199, Note_on_c, 13, 64, 0
15, 76199, Note_on_c, 13, 60, 0
15, 76200, Note_on_c, 13, 55, 52
15, 76200, Note_on_c, 13, 62, 52
15, 76319, Note_on_c, 13, 55, 0
15, 76319, Note_on_c, 13, 62, 0
15, 76320, Note_on_c, 13, 52, 52
15, 76320, Note_on_c, 13, 60, 52
15, 76544, Note_on_c, 13, 52, 0
15, 76544, Note_on_c, 13, 60, 0
15, 76560, Note_on_c, 13, 60, 52
15, 76560, Note_on_c, 13, 51, 52
15, 76919, Note_on_c, 13, 60, 0
15, 76919, Note_on_c, 13, 51, 0
15, 76920, Note_on_c, 13, 62, 52
15, 76920, Note_on_c, 13, 55, 52
15, 77039, Note_on_c, 13, 62, 0
15, 77039, Note_on_c, 13, 55, 0
15, 77040, Note_on_c, 13, 60, 52
15, 77040, Note_on_c, 13, 63, 52
15, 77264, Note_on_c, 13, 60, 0
15, 77264, Note_on_c, 13, 63, 0
15, 77280, Note_on_c, 13, 63, 52
15, 77280, Note_on_c, 13, 60, 52
15, 77639, Note_on_c, 13, 63, 0
15, 77639, Note_on_c, 13, 60, 0
15, 77640, Note_on_c, 13, 55, 52
15, 77640, Note_on_c, 13, 62, 52
15, 77759, Note_on_c, 13, 55, 0
15, 77759, Note_on_c, 13, 62, 0
15, 77760, Note_on_c, 13, 51, 52
15, 77760, Note_on_c, 13, 60, 52
15, 77984, Note_on_c, 13, 51, 0
15, 77984, Note_on_c, 13, 60, 0
15, 77998, Control_c, 13, 11, 80
15, 78000, Note_on_c, 13, 56, 76
15, 78000, Note_on_c, 13, 60, 76
15, 78060, Control_c, 13, 11, 81
15, 78120, Control_c, 13, 11, 83
15, 78180, Control_c, 13, 11, 84
15, 78240, Control_c, 13, 11, 85
15, 78300, Control_c, 13, 11, 87
15, 78359, Note_on_c, 13, 56, 0
15, 78359, Note_on_c, 13, 60, 0
15, 78360, Control_c, 13, 11, 88
15, 78360, Note_on_c, 13, 61, 76
15, 78360, Note_on_c, 13, 58, 76
15, 78420, Control_c, 13, 11, 89
15, 78479, Note_on_c, 13, 61, 0
15, 78479, Note_on_c, 13, 58, 0
15, 78480, Note_on_c, 13, 60, 76
15, 78480, Note_on_c, 13, 63, 76
15, 78480, Control_c, 13, 11, 90
15, 78540, Control_c, 13, 11, 92
15, 78600, Control_c, 13, 11, 93
15, 78660, Control_c, 13, 11, 94
15, 78704, Note_on_c, 13, 60, 0
15, 78704, Note_on_c, 13, 63, 0
15, 78720, Note_on_c, 13, 60, 76
15, 78720, Control_c, 13, 11, 96
15, 78720, Note_on_c, 13, 63, 76
15, 78780, Control_c, 13, 11, 97
15, 78840, Control_c, 13, 11, 98
15, 78900, Control_c, 13, 11, 100
15, 78959, Note_on_c, 13, 60, 0
15, 78959, Note_on_c, 13, 63, 0
15, 78960, Control_c, 13, 11, 101
15, 78960, Note_on_c, 13, 61, 76
15, 78960, Note_on_c, 13, 65, 76
15, 79020, Control_c, 13, 11, 102
15, 79080, Control_c, 13, 11, 104
15, 79140, Control_c, 13, 11, 105
15, 79199, Note_on_c, 13, 61, 0
15, 79199, Note_on_c, 13, 65, 0
15, 79200, Control_c, 13, 11, 106
15, 79200, Note_on_c, 13, 58, 76
15, 79200, Note_on_c, 13, 61, 76
15, 79260, Control_c, 13, 11, 107
15, 79320, Control_c, 13, 11, 109
15, 79380, Control_c, 13, 11, 110
15, 79424, Note_on_c, 13, 58, 0
15, 79424, Note_on_c, 13, 61, 0
15, 79440, Control_c, 13, 11, 111
15, 79440, Note_on_c, 13, 56, 76
15, 79440, Note_on_c, 13, 60, 76
15, 79500, Control_c, 13, 11, 113
15, 79560, Control_c, 13, 11, 114
15, 79620, Control_c, 13, 11, 115
15, 79680, Control_c, 13, 11, 117
15, 79740, Control_c, 13, 11, 118
15, 79800, Control_c, 13, 11, 119
15, 79860, Control_c, 13, 11, 120
15, 79919, Note_on_c, 13, 56, 0
15, 79919, Note_on_c, 13, 60, 0
15, 79920, Control_c, 13, 11, 122
15, 79920, Note_on_c, 13, 58, 76
15, 79920, Note_on_c, 13, 55, 76
15, 79980, Control_c, 13, 11, 123
15, 80040, Control_c, 13, 11, 124
15, 80100, Control_c, 13, 11, 127
15, 80144, Note_on_c, 13, 58, 0
15, 80144, Note_on_c, 13, 55, 0
15, 80160, Note_on_c, 13, 48, 76
15, 80160, Note_on_c, 13, 60, 76
15, 80864, Note_on_c, 13, 48, 0
15, 80864, Note_on_c, 13, 60, 0
15, 80880, Note_on_c, 13, 57, 52
15, 80880, Note_on_c, 13, 48, 52
15, 81119, Note_on_c, 13, 57, 0
15, 81119, Note_on_c, 13, 48, 0
15, 93600, Note_on_c, 13, 53, 76
15, 93719, Note_on_c, 13, 53, 0
15, 93720, Note_on_c, 13, 48, 76
15, 93824, Note_on_c, 13, 48, 0
15, 93840, Note_on_c, 13, 53, 84
15, 93959, Note_on_c, 13, 53, 0
15, 93960, Note_on_c, 13, 48, 76
15, 94079, Note_on_c, 13, 48, 0
15, 94080, Note_on_c, 13, 53, 84
15, 94199, Note_on_c, 13, 53, 0
15, 94200, Note_on_c, 13, 48, 76
15, 94304, Note_on_c, 13, 48, 0
15, 94320, Note_on_c, 13, 57, 84
15, 94439, Note_on_c, 13, 57, 0
15, 94440, Note_on_c, 13, 53, 76
15, 94544, Note_on_c, 13, 53, 0
15, 94560, Note_on_c, 13, 57, 84
15, 94679, Note_on_c, 13, 57, 0
15, 94680, Note_on_c, 13, 53, 76
15, 94799, Note_on_c, 13, 53, 0
15, 94800, Note_on_c, 13, 57, 84
15, 94919, Note_on_c, 13, 57, 0
15, 94920, Note_on_c, 13, 53, 76
15, 95024, Note_on_c, 13, 53, 0
15, 95040, Note_on_c, 13, 57, 52
15, 95159, Note_on_c, 13, 57, 0
15, 95160, Note_on_c, 13, 53, 52
15, 95279, Note_on_c, 13, 53, 0
15, 95280, Note_on_c, 13, 58, 52
15, 95399, Note_on_c, 13, 58, 0
15, 95400, Note_on_c, 13, 55, 52
15, 95519, Note_on_c, 13, 55, 0
15, 95520, Note_on_c, 13, 58, 52
15, 95639, Note_on_c, 13, 58, 0
15, 95640, Note_on_c, 13, 55, 52
15, 95759, Note_on_c, 13, 55, 0
15, 95760, Note_on_c, 13, 58, 52
15, 95879, Note_on_c, 13, 58, 0
15, 95880, Note_on_c, 13, 55, 52
15, 95984, Note_on_c, 13, 55, 0
15, 96000, Note_on_c, 13, 60, 52
15, 96119, Note_on_c, 13, 60, 0
15, 96120, Note_on_c, 13, 57, 52
15, 96239, Note_on_c, 13, 57, 0
15, 96240, Note_on_c, 13, 60, 52
15, 96359, Note_on_c, 13, 60, 0
15, 96360, Note_on_c, 13, 57, 52
15, 96464, Note_on_c, 13, 57, 0
15, 96480, Note_on_c, 13, 57, 52
15, 96599, Note_on_c, 13, 57, 0
15, 96600, Note_on_c, 13, 48, 54
15, 96719, Note_on_c, 13, 48, 0
15, 96720, Note_on_c, 13, 58, 56
15, 96839, Note_on_c, 13, 58, 0
15, 96840, Note_on_c, 13, 48, 58
15, 96959, Note_on_c, 13, 48, 0
15, 96960, Note_on_c, 13, 58, 60
15, 97079, Note_on_c, 13, 58, 0
15, 97080, Note_on_c, 13, 57, 62
15, 97199, Note_on_c, 13, 57, 0
15, 97200, Note_on_c, 13, 55, 64
15, 97319, Note_on_c, 13, 55, 0
15, 97320, Note_on_c, 13, 53, 66
15, 97439, Note_on_c, 13, 53, 0
15, 97440, Note_on_c, 13, 55, 68
15, 97559, Note_on_c, 13, 55, 0
15, 97560, Note_on_c, 13, 53, 70
15, 97679, Note_on_c, 13, 53, 0
15, 97680, Note_on_c, 13, 52, 72
15, 97799, Note_on_c, 13, 52, 0
15, 97800, Note_on_c, 13, 58, 74
15, 97904, Note_on_c, 13, 58, 0
15, 97920, Note_on_c, 13, 57, 76
15, 98039, Note_on_c, 13, 57, 0
15, 98040, Note_on_c, 13, 53, 76
15, 98144, Note_on_c, 13, 53, 0
15, 98160, Note_on_c, 13, 58, 76
15, 98279, Note_on_c, 13, 58, 0
15, 98280, Note_on_c, 13, 55, 76
15, 98399, Note_on_c, 13, 55, 0
15, 98400, Note_on_c, 13, 58, 76
15, 98519, Note_on_c, 13, 58, 0
15, 98520, Note_on_c, 13, 55, 76
15, 98639, Note_on_c, 13, 55, 0
15, 98640, Note_on_c, 13, 58, 76
15, 98759, Note_on_c, 13, 58, 0
15, 98760, Note_on_c, 13, 55, 76
15, 98864, Note_on_c, 13, 55, 0
15, 98880, Note_on_c, 13, 60, 76
15, 98999, Note_on_c, 13, 60, 0
15, 99000, Note_on_c, 13, 57, 76
15, 99119, Note_on_c, 13, 57, 0
15, 99120, Note_on_c, 13, 60, 76
15, 99239, Note_on_c, 13, 60, 0
15, 99240, Note_on_c, 13, 57, 76
15, 99344, Note_on_c, 13, 57, 0
15, 99360, Note_on_c, 13, 65, 76
15, 99479, Note_on_c, 13, 65, 0
15, 99480, Note_on_c, 13, 53, 76
15, 99599, Note_on_c, 13, 53, 0
15, 99600, Note_on_c, 13, 53, 76
15, 99719, Note_on_c, 13, 53, 0
15, 99720, Note_on_c, 13, 54, 76
15, 99839, Note_on_c, 13, 54, 0
15, 99840, Note_on_c, 13, 55, 76
15, 99959, Note_on_c, 13, 55, 0
15, 99960, Note_on_c, 13, 57, 76
15, 100079, Note_on_c, 13, 57, 0
15, 100080, Note_on_c, 13, 58, 76
15, 100184, Note_on_c, 13, 58, 0
15, 100200, Note_on_c, 13, 55, 76
15, 100304, Note_on_c, 13, 55, 0
15, 100320, Note_on_c, 13, 55, 76
15, 100559, Note_on_c, 13, 55, 0
15, 100560, Note_on_c, 13, 53, 76
15, 100679, Note_on_c, 13, 53, 0
15, 100800, Note_on_c, 13, 53, 76
15, 100919, Note_on_c, 13, 53, 0
15, 100920, Note_on_c, 13, 48, 76
15, 101024, Note_on_c, 13, 48, 0
15, 101040, Note_on_c, 13, 53, 84
15, 101159, Note_on_c, 13, 53, 0
15, 101160, Note_on_c, 13, 48, 76
15, 101279, Note_on_c, 13, 48, 0
15, 101280, Note_on_c, 13, 53, 84
15, 101399, Note_on_c, 13, 53, 0
15, 101400, Note_on_c, 13, 48, 76
15, 101504, Note_on_c, 13, 48, 0
15, 101520, Note_on_c, 13, 57, 84
15, 101639, Note_on_c, 13, 57, 0
15, 101640, Note_on_c, 13, 53, 76
15, 101744, Note_on_c, 13, 53, 0
15, 101760, Note_on_c, 13, 57, 84
15, 101879, Note_on_c, 13, 57, 0
15, 101880, Note_on_c, 13, 53, 76
15, 101999, Note_on_c, 13, 53, 0
15, 102000, Note_on_c, 13, 57, 84
15, 102119, Note_on_c, 13, 57, 0
15, 102120, Note_on_c, 13, 53, 76
15, 102224, Note_on_c, 13, 53, 0
15, 102240, Note_on_c, 13, 57, 52
15, 102359, Note_on_c, 13, 57, 0
15, 102360, Note_on_c, 13, 53, 52
15, 102479, Note_on_c, 13, 53, 0
15, 102480, Note_on_c, 13, 58, 52
15, 102599, Note_on_c, 13, 58, 0
15, 102600, Note_on_c, 13, 55, 52
15, 102719, Note_on_c, 13, 55, 0
15, 102720, Note_on_c, 13, 58, 52
15, 102839, Note_on_c, 13, 58, 0
15, 102840, Note_on_c, 13, 55, 52
15, 102959, Note_on_c, 13, 55, 0
15, 102960, Note_on_c, 13, 58, 52
15, 103079, Note_on_c, 13, 58, 0
15, 103080, Note_on_c, 13, 55, 52
15, 103184, Note_on_c, 13, 55, 0
15, 103200, Note_on_c, 13, 60, 52
15, 103319, Note_on_c, 13, 60, 0
15, 103320, Note_on_c, 13, 57, 52
15, 103439, Note_on_c, 13, 57, 0
15, 103440, Note_on_c, 13, 60, 52
15, 103559, Note_on_c, 13, 60, 0
15, 103560, Note_on_c, 13, 57, 52
15, 103664, Note_on_c, 13, 57, 0
15, 103680, Note_on_c, 13, 57, 52
15, 103799, Note_on_c, 13, 57, 0
15, 103800, Note_on_c, 13, 48, 54
15, 103919, Note_on_c, 13, 48, 0
15, 103920, Note_on_c, 13, 58, 56
15, 104039, Note_on_c, 13, 58, 0
15, 104040, Note_on_c, 13, 48, 58
15, 104159, Note_on_c, 13, 48, 0
15, 104160, Note_on_c, 13, 58, 60
15, 104279, Note_on_c, 13, 58, 0
15, 104280, Note_on_c, 13, 57, 62
15, 104399, Note_on_c, 13, 57, 0
15, 104400, Note_on_c, 13, 55, 64
15, 104519, Note_on_c, 13, 55, 0
15, 104520, Note_on_c, 13, 53, 66
15, 104639, Note_on_c, 13, 53, 0
15, 104640, Note_on_c, 13, 55, 68
15, 104759, Note_on_c, 13, 55, 0
15, 104760, Note_on_c, 13, 53, 70
15, 104879, Note_on_c, 13, 53, 0
15, 104880, Note_on_c, 13, 52, 72
15, 104999, Note_on_c, 13, 52, 0
15, 105000, Note_on_c, 13, 58, 74
15, 105104, Note_on_c, 13, 58, 0
15, 105120, Note_on_c, 13, 57, 76
15, 105239, Note_on_c, 13, 57, 0
15, 105240, Note_on_c, 13, 53, 76
15, 105344, Note_on_c, 13, 53, 0
15, 105360, Note_on_c, 13, 58, 76
15, 105479, Note_on_c, 13, 58, 0
15, 105480, Note_on_c, 13, 55, 76
15, 105599, Note_on_c, 13, 55, 0
15, 105600, Note_on_c, 13, 58, 76
15, 105719, Note_on_c, 13, 58, 0
15, 105720, Note_on_c, 13, 55, 76
15, 105839, Note_on_c, 13, 55, 0
15, 105840, Note_on_c, 13, 58, 76
15, 105959, Note_on_c, 13, 58, 0
15, 105960, Note_on_c, 13, 55, 76
15, 106064, Note_on_c, 13, 55, 0
15, 106080, Note_on_c, 13, 60, 76
15, 106199, Note_on_c, 13, 60, 0
15, 106200, Note_on_c, 13, 57, 76
15, 106319, Note_on_c, 13, 57, 0
15, 106320, Note_on_c, 13, 60, 76
15, 106439, Note_on_c, 13, 60, 0
15, 106440, Note_on_c, 13, 57, 76
15, 106544, Note_on_c, 13, 57, 0
15, 106560, Note_on_c, 13, 65, 76
15, 106679, Note_on_c, 13, 65, 0
15, 106680, Note_on_c, 13, 53, 76
15, 106799, Note_on_c, 13, 53, 0
15, 106800, Note_on_c, 13, 53, 76
15, 106919, Note_on_c, 13, 53, 0
15, 106920, Note_on_c, 13, 54, 76
15, 107039, Note_on_c, 13, 54, 0
15, 107040, Note_on_c, 13, 55, 76
15, 107159, Note_on_c, 13, 55, 0
15, 107160, Note_on_c, 13, 57, 76
15, 107279, Note_on_c, 13, 57, 0
15, 107280, Note_on_c, 13, 58, 76
15, 107384, Note_on_c, 13, 58, 0
15, 107400, Note_on_c, 13, 55, 76
15, 107504, Note_on_c, 13, 55, 0
15, 107520, Note_on_c, 13, 55, 76
15, 107759, Note_on_c, 13, 55, 0
15, 107760, Note_on_c, 13, 53, 76
15, 107864, Note_on_c, 13, 53, 0
15, 107880, Note_on_c, 13, 60, 76
15, 107984, Note_on_c, 13, 60, 0
15, 108000, Note_on_c, 13, 60, 76
15, 108119, Note_on_c, 13, 60, 0
15, 108120, Note_on_c, 13, 64, 76
15, 108224, Note_on_c, 13, 64, 0
15, 108240, Note_on_c, 13, 62, 76
15, 108359, Note_on_c, 13, 62, 0
15, 108360, Note_on_c, 13, 62, 76
15, 108479, Note_on_c, 13, 62, 0
15, 108480, Note_on_c, 13, 65, 76
15, 108599, Note_on_c, 13, 65, 0
15, 108600, Note_on_c, 13, 59, 76
15, 108719, Note_on_c, 13, 59, 0
15, 108720, Note_on_c, 13, 65, 76
15, 108839, Note_on_c, 13, 65, 0
15, 108840, Note_on_c, 13, 59, 76
15, 108944, Note_on_c, 13, 59, 0
15, 108960, Note_on_c, 13, 64, 76
15, 109079, Note_on_c, 13, 64, 0
15, 109080, Note_on_c, 13, 60, 76
15, 109199, Note_on_c, 13, 60, 0
15, 109200, Note_on_c, 13, 64, 76
15, 109319, Note_on_c, 13, 64, 0
15, 109320, Note_on_c, 13, 60, 76
15, 109424, Note_on_c, 13, 60, 0
15, 109440, Note_on_c, 13, 60, 76
15, 109559, Note_on_c, 13, 60, 0
15, 109680, Note_on_c, 13, 65, 84
15, 109739, Note_on_c, 13, 65, 0
15, 109740, Note_on_c, 13, 65, 76
15, 110039, Note_on_c, 13, 65, 0
15, 110040, Note_on_c, 13, 62, 76
15, 110159, Note_on_c, 13, 62, 0
15, 110160, Note_on_c, 13, 59, 76
15, 110279, Note_on_c, 13, 59, 0
15, 110280, Note_on_c, 13, 55, 76
15, 110384, Note_on_c, 13, 55, 0
15, 110400, Note_on_c, 13, 60, 76
15, 110519, Note_on_c, 13, 60, 0
15, 110520, Note_on_c, 13, 52, 76
15, 110639, Note_on_c, 13, 52, 0
15, 110640, Note_on_c, 13, 60, 76
15, 110759, Note_on_c, 13, 60, 0
15, 110760, Note_on_c, 13, 52, 76
15, 110879, Note_on_c, 13, 52, 0
15, 110880, Note_on_c, 13, 55, 76
15, 110999, Note_on_c, 13, 55, 0
15, 111000, Note_on_c, 13, 52, 76
15, 111104, Note_on_c, 13, 52, 0
15, 111120, Note_on_c, 13, 50, 84
15, 111239, Note_on_c, 13, 50, 0
15, 111240, Note_on_c, 13, 59, 76
15, 111359, Note_on_c, 13, 59, 0
15, 111360, Note_on_c, 13, 62, 76
15, 111479, Note_on_c, 13, 62, 0
15, 111480, Note_on_c, 13, 59, 76
15, 111599, Note_on_c, 13, 59, 0
15, 111600, Note_on_c, 13, 62, 76
15, 111719, Note_on_c, 13, 62, 0
15, 111720, Note_on_c, 13, 59, 76
15, 111824, Note_on_c, 13, 59, 0
15, 111840, Note_on_c, 13, 64, 84
15, 111959, Note_on_c, 13, 64, 0
15, 111960, Note_on_c, 13, 60, 76
15, 112079, Note_on_c, 13, 60, 0
15, 112080, Note_on_c, 13, 64, 76
15, 112199, Note_on_c, 13, 64, 0
15, 112200, Note_on_c, 13, 60, 76
15, 112319, Note_on_c, 13, 60, 0
15, 112320, Note_on_c, 13, 64, 76
15, 112439, Note_on_c, 13, 64, 0
15, 112440, Note_on_c, 13, 60, 76
15, 112544, Note_on_c, 13, 60, 0
15, 112560, Note_on_c, 13, 58, 84
15, 112679, Note_on_c, 13, 58, 0
15, 112680, Note_on_c, 13, 55, 76
15, 112799, Note_on_c, 13, 55, 0
15, 112800, Note_on_c, 13, 58, 76
15, 112919, Note_on_c, 13, 58, 0
15, 112920, Note_on_c, 13, 55, 76
15, 113039, Note_on_c, 13, 55, 0
15, 113040, Note_on_c, 13, 58, 76
15, 113159, Note_on_c, 13, 58, 0
15, 113160, Note_on_c, 13, 67, 76
15, 113264, Note_on_c, 13, 67, 0
15, 113280, Note_on_c, 13, 65, 84
15, 113399, Note_on_c, 13, 65, 0
15, 113400, Note_on_c, 13, 57, 76
15, 113519, Note_on_c, 13, 57, 0
15, 113520, Note_on_c, 13, 65, 76
15, 113639, Note_on_c, 13, 65, 0
15, 113640, Note_on_c, 13, 57, 76
15, 113759, Note_on_c, 13, 57, 0
15, 113760, Note_on_c, 13, 65, 76
15, 113879, Note_on_c, 13, 65, 0
15, 113880, Note_on_c, 13, 57, 76
15, 113984, Note_on_c, 13, 57, 0
15, 114000, Note_on_c, 13, 57, 76
15, 114119, Note_on_c, 13, 57, 0
15, 114180, Program_c, 13, 45
15, 114240, Note_on_c, 13, 57, 44
15, 114359, Note_on_c, 13, 57, 0
15, 114720, Note_on_c, 13, 57, 44
15, 114959, Note_on_c, 13, 57, 0
15, 114960, Note_on_c, 13, 57, 44
15, 115199, Note_on_c, 13, 57, 0
15, 115440, Note_on_c, 13, 57, 43
15, 115679, Note_on_c, 13, 57, 0
15, 115680, Note_on_c, 13, 57, 42
15, 115919, Note_on_c, 13, 57, 0
15, 116160, Note_on_c, 13, 57, 41
15, 116399, Note_on_c, 13, 57, 0
15, 116400, Note_on_c, 13, 57, 41
15, 116624, Note_on_c, 13, 57, 0
15, 116638, Program_c, 13, 48
15, 116640, Note_on_c, 13, 53, 44
15, 116759, Note_on_c, 13, 53, 0
15, 117120, Note_on_c, 13, 53, 44
15, 117239, Note_on_c, 13, 53, 0
15, 117600, Note_on_c, 13, 53, 44
15, 117719, Note_on_c, 13, 53, 0
15, 118080, Note_on_c, 13, 58, 44
15, 118199, Note_on_c, 13, 58, 0
15, 118200, Note_on_c, 13, 53, 44
15, 118319, Note_on_c, 13, 53, 0
15, 118320, Note_on_c, 13, 57, 44
15, 118439, Note_on_c, 13, 57, 0
15, 118440, Note_on_c, 13, 53, 44
15, 118559, Note_on_c, 13, 53, 0
15, 118560, Note_on_c, 13, 57, 44
15, 118679, Note_on_c, 13, 57, 0
15, 118680, Note_on_c, 13, 53, 44
15, 118799, Note_on_c, 13, 53, 0
15, 118800, Note_on_c, 13, 57, 44
15, 118919, Note_on_c, 13, 57, 0
15, 118920, Note_on_c, 13, 53, 44
15, 119024, Note_on_c, 13, 53, 0
15, 119040, Note_on_c, 13, 58, 44
15, 119159, Note_on_c, 13, 58, 0
15, 119160, Note_on_c, 13, 53, 44
15, 119279, Note_on_c, 13, 53, 0
15, 119280, Note_on_c, 13, 58, 44
15, 119399, Note_on_c, 13, 58, 0
15, 119400, Note_on_c, 13, 53, 44
15, 119504, Note_on_c, 13, 53, 0
15, 119520, Note_on_c, 13, 62, 44
15, 119639, Note_on_c, 13, 62, 0
15, 119640, Note_on_c, 13, 60, 44
15, 119759, Note_on_c, 13, 60, 0
15, 119760, Note_on_c, 13, 58, 44
15, 119864, Note_on_c, 13, 58, 0
15, 119880, Note_on_c, 13, 58, 44
15, 119969, Note_on_c, 13, 58, 0
15, 120000, Note_on_c, 13, 58, 44
15, 120119, Note_on_c, 13, 58, 0
15, 120120, Note_on_c, 13, 55, 44
15, 120239, Note_on_c, 13, 55, 0
15, 120240, Note_on_c, 13, 58, 44
15, 120359, Note_on_c, 13, 58, 0
15, 120360, Note_on_c, 13, 55, 44
15, 120479, Note_on_c, 13, 55, 0
15, 120480, Note_on_c, 13, 60, 44
15, 120599, Note_on_c, 13, 60, 0
15, 120600, Note_on_c, 13, 57, 44
15, 120704, Note_on_c, 13, 57, 0
15, 120720, Note_on_c, 13, 57, 44
15, 120839, Note_on_c, 13, 57, 0
15, 120840, Note_on_c, 13, 53, 44
15, 120944, Note_on_c, 13, 53, 0
15, 120960, Note_on_c, 13, 57, 44
15, 121079, Note_on_c, 13, 57, 0
15, 121080, Note_on_c, 13, 53, 45
15, 121199, Note_on_c, 13, 53, 0
15, 121200, Note_on_c, 13, 58, 47
15, 121319, Note_on_c, 13, 58, 0
15, 121320, Note_on_c, 13, 55, 49
15, 121439, Note_on_c, 13, 55, 0
15, 121440, Note_on_c, 13, 58, 50
15, 121559, Note_on_c, 13, 58, 0
15, 121560, Note_on_c, 13, 55, 52
15, 121664, Note_on_c, 13, 55, 0
15, 121680, Note_on_c, 13, 60, 54
15, 121799, Note_on_c, 13, 60, 0
15, 121800, Note_on_c, 13, 55, 55
15, 121919, Note_on_c, 13, 55, 0
15, 121920, Note_on_c, 13, 60, 57
15, 122039, Note_on_c, 13, 60, 0
15, 122040, Note_on_c, 13, 57, 59
15, 122159, Note_on_c, 13, 57, 0
15, 122160, Note_on_c, 13, 60, 60
15, 122279, Note_on_c, 13, 60, 0
15, 122280, Note_on_c, 13, 57, 62
15, 122399, Note_on_c, 13, 57, 0
15, 122400, Note_on_c, 13, 60, 64
15, 122519, Note_on_c, 13, 60, 0
15, 122520, Note_on_c, 13, 57, 65
15, 122624, Note_on_c, 13, 57, 0
15, 122640, Note_on_c, 13, 58, 67
15, 122759, Note_on_c, 13, 58, 0
15, 122760, Note_on_c, 13, 48, 69
15, 122879, Note_on_c, 13, 48, 0
15, 122880, Note_on_c, 13, 62, 70
15, 122999, Note_on_c, 13, 62, 0
15, 123000, Note_on_c, 13, 60, 72
15, 123119, Note_on_c, 13, 60, 0
15, 123120, Note_on_c, 13, 58, 74
15, 123224, Note_on_c, 13, 58, 0
15, 123240, Note_on_c, 13, 56, 76
15, 123344, Note_on_c, 13, 56, 0
15, 123360, Note_on_c, 13, 56, 80
15, 123479, Note_on_c, 13, 56, 0
15, 123480, Note_on_c, 13, 48, 80
15, 123599, Note_on_c, 13, 48, 0
15, 123600, Note_on_c, 13, 55, 80
15, 123719, Note_on_c, 13, 55, 0
15, 123720, Note_on_c, 13, 53, 80
15, 123839, Note_on_c, 13, 53, 0
15, 123840, Note_on_c, 13, 55, 80
15, 123944, Note_on_c, 13, 55, 0
15, 123960, Note_on_c, 13, 55, 80
15, 124064, Note_on_c, 13, 55, 0
15, 124080, Note_on_c, 13, 55, 80
15, 124199, Note_on_c, 13, 55, 0
15, 124200, Note_on_c, 13, 60, 80
15, 124304, Note_on_c, 13, 60, 0
15, 124320, Note_on_c, 13, 60, 80
15, 124439, Note_on_c, 13, 60, 0
15, 124440, Note_on_c, 13, 58, 80
15, 124559, Note_on_c, 13, 58, 0
15, 124560, Note_on_c, 13, 60, 80
15, 124664, Note_on_c, 13, 60, 0
15, 124680, Note_on_c, 13, 60, 84
15, 124784, Note_on_c, 13, 60, 0
15, 124800, Note_on_c, 13, 60, 84
15, 125039, Note_on_c, 13, 60, 0
15, 125040, Note_on_c, 13, 62, 84
15, 125159, Note_on_c, 13, 62, 0
15, 126120, Note_on_c, 13, 67, 84
15, 126224, Note_on_c, 13, 67, 0
15, 126240, Note_on_c, 13, 67, 84
15, 126479, Note_on_c, 13, 67, 0
15, 126480, Note_on_c, 13, 65, 84
15, 126599, Note_on_c, 13, 65, 0
15, 127560, Note_on_c, 13, 69, 84
15, 127664, Note_on_c, 13, 69, 0
15, 127680, Note_on_c, 13, 70, 84
15, 127919, Note_on_c, 13, 70, 0
15, 127920, Note_on_c, 13, 69, 84
15, 128039, Note_on_c, 13, 69, 0
15, 129000, Note_on_c, 13, 69, 84
15, 129104, Note_on_c, 13, 69, 0
15, 129120, Note_on_c, 13, 70, 84
15, 129359, Note_on_c, 13, 70, 0
15, 129360, Note_on_c, 13, 69, 84
15, 129479, Note_on_c, 13, 69, 0
15, 130080, Note_on_c, 13, 67, 84
15, 130319, Note_on_c, 13, 67, 0
15, 130320, Note_on_c, 13, 65, 84
15, 130439, Note_on_c, 13, 65, 0
15, 131040, Note_on_c, 13, 55, 92
15, 131099, Note_on_c, 13, 55, 0
15, 131100, Note_on_c, 13, 55, 84
15, 131279, Note_on_c, 13, 55, 0
15, 131280, Note_on_c, 13, 55, 84
15, 131999, Note_on_c, 13, 55, 0
15, 132000, Note_on_c, 13, 55, 84
15, 132239, Note_on_c, 13, 55, 0
15, 132240, Note_on_c, 13, 53, 84
15, 132344, Note_on_c, 13, 53, 0
15, 132360, Note_on_c, 13, 60, 84
15, 132464, Note_on_c, 13, 60, 0
15, 132480, Note_on_c, 13, 60, 84
15, 132599, Note_on_c, 13, 60, 0
15, 132600, Note_on_c, 13, 64, 84
15, 132704, Note_on_c, 13, 64, 0
15, 132720, Note_on_c, 13, 62, 76
15, 132839, Note_on_c, 13, 62, 0
15, 132840, Note_on_c, 13, 62, 76
15, 132959, Note_on_c, 13, 62, 0
15, 132960, Note_on_c, 13, 65, 76
15, 133079, Note_on_c, 13, 65, 0
15, 133080, Note_on_c, 13, 59, 76
15, 133199, Note_on_c, 13, 59, 0
15, 133200, Note_on_c, 13, 65, 76
15, 133319, Note_on_c, 13, 65, 0
15, 133320, Note_on_c, 13, 59, 76
15, 133424, Note_on_c, 13, 59, 0
15, 133440, Note_on_c, 13, 64, 76
15, 133559, Note_on_c, 13, 64, 0
15, 133560, Note_on_c, 13, 60, 76
15, 133679, Note_on_c, 13, 60, 0
15, 133680, Note_on_c, 13, 64, 76
15, 133799, Note_on_c, 13, 64, 0
15, 133800, Note_on_c, 13, 60, 76
15, 133904, Note_on_c, 13, 60, 0
15, 133920, Note_on_c, 13, 60, 76
15, 134039, Note_on_c, 13, 60, 0
15, 134160, Note_on_c, 13, 65, 84
15, 134219, Note_on_c, 13, 65, 0
15, 134220, Note_on_c, 13, 65, 76
15, 134519, Note_on_c, 13, 65, 0
15, 134520, Note_on_c, 13, 62, 76
15, 134639, Note_on_c, 13, 62, 0
15, 134640, Note_on_c, 13, 59, 76
15, 134759, Note_on_c, 13, 59, 0
15, 134760, Note_on_c, 13, 55, 76
15, 134864, Note_on_c, 13, 55, 0
15, 134880, Note_on_c, 13, 60, 76
15, 134999, Note_on_c, 13, 60, 0
15, 135000, Note_on_c, 13, 52, 76
15, 135119, Note_on_c, 13, 52, 0
15, 135120, Note_on_c, 13, 60, 76
15, 135239, Note_on_c, 13, 60, 0
15, 135240, Note_on_c, 13, 52, 76
15, 135359, Note_on_c, 13, 52, 0
15, 135360, Note_on_c, 13, 55, 76
15, 135479, Note_on_c, 13, 55, 0
15, 135480, Note_on_c, 13, 52, 76
15, 135584, Note_on_c, 13, 52, 0
15, 135600, Note_on_c, 13, 50, 84
15, 135719, Note_on_c, 13, 50, 0
15, 135720, Note_on_c, 13, 59, 76
15, 135839, Note_on_c, 13, 59, 0
15, 135840, Note_on_c, 13, 62, 76
15, 135959, Note_on_c, 13, 62, 0
15, 135960, Note_on_c, 13, 59, 76
15, 136079, Note_on_c, 13, 59, 0
15, 136080, Note_on_c, 13, 62, 76
15, 136199, Note_on_c, 13, 62, 0
15, 136200, Note_on_c, 13, 59, 76
15, 136304, Note_on_c, 13, 59, 0
15, 136320, Note_on_c, 13, 64, 84
15, 136439, Note_on_c, 13, 64, 0
15, 136440, Note_on_c, 13, 60, 76
15, 136559, Note_on_c, 13, 60, 0
15, 136560, Note_on_c, 13, 64, 76
15, 136679, Note_on_c, 13, 64, 0
15, 136680, Note_on_c, 13, 60, 76
15, 136799, Note_on_c, 13, 60, 0
15, 136800, Note_on_c, 13, 64, 76
15, 136919, Note_on_c, 13, 64, 0
15, 136920, Note_on_c, 13, 60, 76
15, 137024, Note_on_c, 13, 60, 0
15, 137040, Note_on_c, 13, 58, 84
15, 137159, Note_on_c, 13, 58, 0
15, 137160, Note_on_c, 13, 55, 76
15, 137279, Note_on_c, 13, 55, 0
15, 137280, Note_on_c, 13, 58, 76
15, 137399, Note_on_c, 13, 58, 0
15, 137400, Note_on_c, 13, 55, 76
15, 137519, Note_on_c, 13, 55, 0
15, 137520, Note_on_c, 13, 58, 76
15, 137639, Note_on_c, 13, 58, 0
15, 137640, Note_on_c, 13, 67, 76
15, 137744, Note_on_c, 13, 67, 0
15, 137760, Note_on_c, 13, 65, 84
15, 137879, Note_on_c, 13, 65, 0
15, 137880, Note_on_c, 13, 57, 76
15, 137999, Note_on_c, 13, 57, 0
15, 138000, Note_on_c, 13, 65, 76
15, 138119, Note_on_c, 13, 65, 0
15, 138120, Note_on_c, 13, 57, 76
15, 138239, Note_on_c, 13, 57, 0
15, 138240, Note_on_c, 13, 65, 76
15, 138359, Note_on_c, 13, 65, 0
15, 138360, Note_on_c, 13, 57, 76
15, 138464, Note_on_c, 13, 57, 0
15, 138480, Note_on_c, 13, 57, 76
15, 138599, Note_on_c, 13, 57, 0
15, 138660, Program_c, 13, 45
15, 138720, Note_on_c, 13, 57, 44
15, 138839, Note_on_c, 13, 57, 0
15, 139200, Note_on_c, 13, 57, 44
15, 139439, Note_on_c, 13, 57, 0
15, 139440, Note_on_c, 13, 57, 44
15, 139679, Note_on_c, 13, 57, 0
15, 139920, Note_on_c, 13, 57, 43
15, 140159, Note_on_c, 13, 57, 0
15, 140160, Note_on_c, 13, 57, 42
15, 140399, Note_on_c, 13, 57, 0
15, 140640, Note_on_c, 13, 57, 41
15, 140879, Note_on_c, 13, 57, 0
15, 140880, Note_on_c, 13, 57, 41
15, 141104, Note_on_c, 13, 57, 0
15, 141118, Program_c, 13, 48
15, 141120, Note_on_c, 13, 53, 44
15, 141239, Note_on_c, 13, 53, 0
15, 141600, Note_on_c, 13, 53, 44
15, 141719, Note_on_c, 13, 53, 0
15, 142080, Note_on_c, 13, 53, 44
15, 142199, Note_on_c, 13, 53, 0
15, 142560, Note_on_c, 13, 58, 44
15, 142679, Note_on_c, 13, 58, 0
15, 142680, Note_on_c, 13, 53, 44
15, 142799, Note_on_c, 13, 53, 0
15, 142800, Note_on_c, 13, 57, 44
15, 142919, Note_on_c, 13, 57, 0
15, 142920, Note_on_c, 13, 53, 44
15, 143039, Note_on_c, 13, 53, 0
15, 143040, Note_on_c, 13, 57, 44
15, 143159, Note_on_c, 13, 57, 0
15, 143160, Note_on_c, 13, 53, 44
15, 143279, Note_on_c, 13, 53, 0
15, 143280, Note_on_c, 13, 57, 44
15, 143399, Note_on_c, 13, 57, 0
15, 143400, Note_on_c, 13, 53, 44
15, 143504, Note_on_c, 13, 53, 0
15, 143520, Note_on_c, 13, 58, 44
15, 143639, Note_on_c, 13, 58, 0
15, 143640, Note_on_c, 13, 53, 44
15, 143759, Note_on_c, 13, 53, 0
15, 143760, Note_on_c, 13, 58, 44
15, 143879, Note_on_c, 13, 58, 0
15, 143880, Note_on_c, 13, 53, 44
15, 143984, Note_on_c, 13, 53, 0
15, 144000, Note_on_c, 13, 62, 44
15, 144119, Note_on_c, 13, 62, 0
15, 144120, Note_on_c, 13, 60, 44
15, 144239, Note_on_c, 13, 60, 0
15, 144240, Note_on_c, 13, 58, 44
15, 144344, Note_on_c, 13, 58, 0
15, 144360, Note_on_c, 13, 58, 44
15, 144449, Note_on_c, 13, 58, 0
15, 144480, Note_on_c, 13, 58, 44
15, 144599, Note_on_c, 13, 58, 0
15, 144600, Note_on_c, 13, 55, 44
15, 144719, Note_on_c, 13, 55, 0
15, 144720, Note_on_c, 13, 58, 44
15, 144839, Note_on_c, 13, 58, 0
15, 144840, Note_on_c, 13, 55, 44
15, 144959, Note_on_c, 13, 55, 0
15, 144960, Note_on_c, 13, 60, 44
15, 145079, Note_on_c, 13, 60, 0
15, 145080, Note_on_c, 13, 57, 44
15, 145184, Note_on_c, 13, 57, 0
15, 145200, Note_on_c, 13, 57, 44
15, 145319, Note_on_c, 13, 57, 0
15, 145320, Note_on_c, 13, 53, 44
15, 145424, Note_on_c, 13, 53, 0
15, 145440, Note_on_c, 13, 57, 44
15, 145559, Note_on_c, 13, 57, 0
15, 145560, Note_on_c, 13, 53, 45
15, 145679, Note_on_c, 13, 53, 0
15, 145680, Note_on_c, 13, 58, 47
15, 145799, Note_on_c, 13, 58, 0
15, 145800, Note_on_c, 13, 55, 49
15, 145919, Note_on_c, 13, 55, 0
15, 145920, Note_on_c, 13, 58, 50
15, 146039, Note_on_c, 13, 58, 0
15, 146040, Note_on_c, 13, 55, 52
15, 146144, Note_on_c, 13, 55, 0
15, 146160, Note_on_c, 13, 60, 54
15, 146279, Note_on_c, 13, 60, 0
15, 146280, Note_on_c, 13, 55, 55
15, 146399, Note_on_c, 13, 55, 0
15, 146400, Note_on_c, 13, 60, 57
15, 146519, Note_on_c, 13, 60, 0
15, 146520, Note_on_c, 13, 57, 59
15, 146639, Note_on_c, 13, 57, 0
15, 146640, Note_on_c, 13, 60, 60
15, 146759, Note_on_c, 13, 60, 0
15, 146760, Note_on_c, 13, 57, 62
15, 146879, Note_on_c, 13, 57, 0
15, 146880, Note_on_c, 13, 60, 64
15, 146999, Note_on_c, 13, 60, 0
15, 147000, Note_on_c, 13, 57, 65
15, 147104, Note_on_c, 13, 57, 0
15, 147120, Note_on_c, 13, 58, 67
15, 147239, Note_on_c, 13, 58, 0
15, 147240, Note_on_c, 13, 48, 69
15, 147359, Note_on_c, 13, 48, 0
15, 147360, Note_on_c, 13, 62, 70
15, 147479, Note_on_c, 13, 62, 0
15, 147480, Note_on_c, 13, 60, 72
15, 147599, Note_on_c, 13, 60, 0
15, 147600, Note_on_c, 13, 58, 74
15, 147704, Note_on_c, 13, 58, 0
15, 147720, Note_on_c, 13, 56, 76
15, 147824, Note_on_c, 13, 56, 0
15, 147840, Note_on_c, 13, 56, 80
15, 147959, Note_on_c, 13, 56, 0
15, 147960, Note_on_c, 13, 48, 80
15, 148079, Note_on_c, 13, 48, 0
15, 148080, Note_on_c, 13, 55, 80
15, 148199, Note_on_c, 13, 55, 0
15, 148200, Note_on_c, 13, 53, 80
15, 148319, Note_on_c, 13, 53, 0
15, 148320, Note_on_c, 13, 55, 80
15, 148424, Note_on_c, 13, 55, 0
15, 148440, Note_on_c, 13, 55, 80
15, 148544, Note_on_c, 13, 55, 0
15, 148560, Note_on_c, 13, 55, 80
15, 148679, Note_on_c, 13, 55, 0
15, 148680, Note_on_c, 13, 60, 80
15, 148784, Note_on_c, 13, 60, 0
15, 148800, Note_on_c, 13, 60, 80
15, 148919, Note_on_c, 13, 60, 0
15, 148920, Note_on_c, 13, 58, 80
15, 149039, Note_on_c, 13, 58, 0
15, 149040, Note_on_c, 13, 60, 80
15, 149144, Note_on_c, 13, 60, 0
15, 149160, Note_on_c, 13, 60, 84
15, 149264, Note_on_c, 13, 60, 0
15, 149280, Note_on_c, 13, 60, 84
15, 149519, Note_on_c, 13, 60, 0
15, 149520, Note_on_c, 13, 62, 84
15, 149639, Note_on_c, 13, 62, 0
15, 150600, Note_on_c, 13, 67, 84
15, 150704, Note_on_c, 13, 67, 0
15, 150720, Note_on_c, 13, 67, 84
15, 150959, Note_on_c, 13, 67, 0
15, 150960, Note_on_c, 13, 65, 84
15, 151079, Note_on_c, 13, 65, 0
15, 152040, Note_on_c, 13, 69, 84
15, 152144, Note_on_c, 13, 69, 0
15, 152160, Note_on_c, 13, 70, 84
15, 152399, Note_on_c, 13, 70, 0
15, 152400, Note_on_c, 13, 69, 84
15, 152519, Note_on_c, 13, 69, 0
15, 153480, Note_on_c, 13, 69, 84
15, 153584, Note_on_c, 13, 69, 0
15, 153600, Note_on_c, 13, 70, 84
15, 153839, Note_on_c, 13, 70, 0
15, 153840, Note_on_c, 13, 69, 84
15, 153959, Note_on_c, 13, 69, 0
15, 154560, Note_on_c, 13, 67, 84
15, 154799, Note_on_c, 13, 67, 0
15, 154800, Note_on_c, 13, 65, 84
15, 154919, Note_on_c, 13, 65, 0
15, 155520, Note_on_c, 13, 55, 92
15, 155579, Note_on_c, 13, 55, 0
15, 155580, Note_on_c, 13, 55, 84
15, 155759, Note_on_c, 13, 55, 0
15, 155760, Note_on_c, 13, 55, 84
15, 156479, Note_on_c, 13, 55, 0
15, 156480, Note_on_c, 13, 55, 84
15, 156719, Note_on_c, 13, 55, 0
15, 156720, Note_on_c, 13, 53, 84
15, 156839, Note_on_c, 13, 53, 0
15, 156839, End_track
16, 0, Start_track
16, 0, Title_t, "Cello"
16, 0, MIDI_port, 0
16, 0, Program_c, 14, 48
16, 0, Control_c, 14, 7, 96
16, 0, Control_c, 14, 10, 90
16, 0, Control_c, 14, 11, 127
16, 0, Note_on_c, 14, 53, 76
16, 119, Note_on_c, 14, 53, 0
16, 120, Note_on_c, 14, 48, 76
16, 224, Note_on_c, 14, 48, 0
16, 240, Note_on_c, 14, 53, 84
16, 359, Note_on_c, 14, 53, 0
16, 360, Note_on_c, 14, 48, 76
16, 479, Note_on_c, 14, 48, 0
16, 480, Note_on_c, 14, 53, 84
16, 599, Note_on_c, 14, 53, 0
16, 600, Note_on_c, 14, 48, 76
16, 704, Note_on_c, 14, 48, 0
16, 720, Note_on_c, 14, 53, 84
16, 839, Note_on_c, 14, 53, 0
16, 840, Note_on_c, 14, 48, 76
16, 944, Note_on_c, 14, 48, 0
16, 960, Note_on_c, 14, 53, 84
16, 1079, Note_on_c, 14, 53, 0
16, 1080, Note_on_c, 14, 48, 76
16, 1199, Note_on_c, 14, 48, 0
16, 1200, Note_on_c, 14, 53, 84
16, 1319, Note_on_c, 14, 53, 0
16, 1320, Note_on_c, 14, 48, 76
16, 1424, Note_on_c, 14, 48, 0
16, 1440, Note_on_c, 14, 53, 52
16, 1559, Note_on_c, 14, 53, 0
16, 1560, Note_on_c, 14, 48, 52
16, 1679, Note_on_c, 14, 48, 0
16, 1680, Note_on_c, 14, 55, 52
16, 1799, Note_on_c, 14, 55, 0
16, 1800, Note_on_c, 14, 48, 52
16, 1919, Note_on_c, 14, 48, 0
16, 1920, Note_on_c, 14, 55, 52
16, 2039, Note_on_c, 14, 55, 0
16, 2040, Note_on_c, 14, 48, 52
16, 2159, Note_on_c, 14, 48, 0
16, 2160, Note_on_c, 14, 55, 52
16, 2279, Note_on_c, 14, 55, 0
16, 2280, Note_on_c, 14, 48, 52
16, 2384, Note_on_c, 14, 48, 0
16, 2400, Note_on_c, 14, 57, 52
16, 2519, Note_on_c, 14, 57, 0
16, 2520, Note_on_c, 14, 48, 52
16, 2639, Note_on_c, 14, 48, 0
16, 2640, Note_on_c, 14, 57, 52
16, 2759, Note_on_c, 14, 57, 0
16, 2760, Note_on_c, 14, 48, 52
16, 2864, Note_on_c, 14, 48, 0
16, 2880, Note_on_c, 14, 57, 52
16, 2999, Note_on_c, 14, 57, 0
16, 3000, Note_on_c, 14, 48, 54
16, 3119, Note_on_c, 14, 48, 0
16, 3120, Note_on_c, 14, 58, 56
16, 3239, Note_on_c, 14, 58, 0
16, 3240, Note_on_c, 14, 48, 58
16, 3359, Note_on_c, 14, 48, 0
16, 3360, Note_on_c, 14, 58, 60
16, 3479, Note_on_c, 14, 58, 0
16, 3480, Note_on_c, 14, 57, 62
16, 3599, Note_on_c, 14, 57, 0
16, 3600, Note_on_c, 14, 55, 64
16, 3719, Note_on_c, 14, 55, 0
16, 3720, Note_on_c, 14, 53, 66
16, 3839, Note_on_c, 14, 53, 0
16, 3840, Note_on_c, 14, 52, 68
16, 3959, Note_on_c, 14, 52, 0
16, 3960, Note_on_c, 14, 50, 70
16, 4079, Note_on_c, 14, 50, 0
16, 4080, Note_on_c, 14, 48, 72
16, 4199, Note_on_c, 14, 48, 0
16, 4200, Note_on_c, 14, 55, 74
16, 4304, Note_on_c, 14, 55, 0
16, 4320, Note_on_c, 14, 53, 76
16, 4439, Note_on_c, 14, 53, 0
16, 4440, Note_on_c, 14, 48, 76
16, 4544, Note_on_c, 14, 48, 0
16, 4560, Note_on_c, 14, 43, 76
16, 4679, Note_on_c, 14, 43, 0
16, 4680, Note_on_c, 14, 36, 76
16, 4799, Note_on_c, 14, 36, 0
16, 4800, Note_on_c, 14, 43, 76
16, 4919, Note_on_c, 14, 43, 0
16, 4920, Note_on_c, 14, 36, 76
16, 5039, Note_on_c, 14, 36, 0
16, 5040, Note_on_c, 14, 43, 76
16, 5159, Note_on_c, 14, 43, 0
16, 5160, Note_on_c, 14, 36, 76
16, 5264, Note_on_c, 14, 36, 0
16, 5280, Note_on_c, 14, 45, 76
16, 5399, Note_on_c, 14, 45, 0
16, 5400, Note_on_c, 14, 36, 76
16, 5519, Note_on_c, 14, 36, 0
16, 5520, Note_on_c, 14, 45, 76
16, 5639, Note_on_c, 14, 45, 0
16, 5640, Note_on_c, 14, 36, 76
16, 5744, Note_on_c, 14, 36, 0
16, 5760, Note_on_c, 14, 45, 76
16, 5879, Note_on_c, 14, 45, 0
16, 5880, Note_on_c, 14, 57, 76
16, 5999, Note_on_c, 14, 57, 0
16, 6000, Note_on_c, 14, 58, 76
16, 6119, Note_on_c, 14, 58, 0
16, 6120, Note_on_c, 14, 46, 76
16, 6239, Note_on_c, 14, 46, 0
16, 6240, Note_on_c, 14, 58, 76
16, 6359, Note_on_c, 14, 58, 0
16, 6360, Note_on_c, 14, 57, 76
16, 6479, Note_on_c, 14, 57, 0
16, 6480, Note_on_c, 14, 55, 76
16, 6584, Note_on_c, 14, 55, 0
16, 6600, Note_on_c, 14, 60, 76
16, 6704, Note_on_c, 14, 60, 0
16, 6720, Note_on_c, 14, 60, 76
16, 6839, Note_on_c, 14, 60, 0
16, 6840, Note_on_c, 14, 48, 76
16, 6959, Note_on_c, 14, 48, 0
16, 6960, Note_on_c, 14, 53, 76
16, 7079, Note_on_c, 14, 53, 0
16, 7200, Note_on_c, 14, 53, 76
16, 7319, Note_on_c, 14, 53, 0
16, 7320, Note_on_c, 14, 48, 76
16, 7424, Note_on_c, 14, 48, 0
16, 7440, Note_on_c, 14, 53, 84
16, 7559, Note_on_c, 14, 53, 0
16, 7560, Note_on_c, 14, 48, 76
16, 7679, Note_on_c, 14, 48, 0
16, 7680, Note_on_c, 14, 53, 84
16, 7799, Note_on_c, 14, 53, 0
16, 7800, Note_on_c, 14, 48, 76
16, 7904, Note_on_c, 14, 48, 0
16, 7920, Note_on_c, 14, 53, 84
16, 8039, Note_on_c, 14, 53, 0
16, 8040, Note_on_c, 14, 48, 76
16, 8144, Note_on_c, 14, 48, 0
16, 8160, Note_on_c, 14, 53, 84
16, 8279, Note_on_c, 14, 53, 0
16, 8280, Note_on_c, 14, 48, 76
16, 8399, Note_on_c, 14, 48, 0
16, 8400, Note_on_c, 14, 53, 84
16, 8519, Note_on_c, 14, 53, 0
16, 8520, Note_on_c, 14, 48, 76
16, 8624, Note_on_c, 14, 48, 0
16, 8640, Note_on_c, 14, 53, 52
16, 8759, Note_on_c, 14, 53, 0
16, 8760, Note_on_c, 14, 48, 52
16, 8879, Note_on_c, 14, 48, 0
16, 8880, Note_on_c, 14, 55, 52
16, 8999, Note_on_c, 14, 55, 0
16, 9000, Note_on_c, 14, 48, 52
16, 9119, Note_on_c, 14, 48, 0
16, 9120, Note_on_c, 14, 55, 52
16, 9239, Note_on_c, 14, 55, 0
16, 9240, Note_on_c, 14, 48, 52
16, 9359, Note_on_c, 14, 48, 0
16, 9360, Note_on_c, 14, 55, 52
16, 9479, Note_on_c, 14, 55, 0
16, 9480, Note_on_c, 14, 48, 52
16, 9584, Note_on_c, 14, 48, 0
16, 9600, Note_on_c, 14, 57, 52
16, 9719, Note_on_c, 14, 57, 0
16, 9720, Note_on_c, 14, 48, 52
16, 9839, Note_on_c, 14, 48, 0
16, 9840, Note_on_c, 14, 57, 52
16, 9959, Note_on_c, 14, 57, 0
16, 9960, Note_on_c, 14, 48, 52
16, 10064, Note_on_c, 14, 48, 0
16, 10080, Note_on_c, 14, 57, 52
16, 10199, Note_on_c, 14, 57, 0
16, 10200, Note_on_c, 14, 48, 54
16, 10319, Note_on_c, 14, 48, 0
16, 10320, Note_on_c, 14, 58, 56
16, 10439, Note_on_c, 14, 58, 0
16, 10440, Note_on_c, 14, 48, 58
16, 10559, Note_on_c, 14, 48, 0
16, 10560, Note_on_c, 14, 58, 60
16, 10679, Note_on_c, 14, 58, 0
16, 10680, Note_on_c, 14, 57, 62
16, 10799, Note_on_c, 14, 57, 0
16, 10800, Note_on_c, 14, 55, 64
16, 10919, Note_on_c, 14, 55, 0
16, 10920, Note_on_c, 14, 53, 66
16, 11039, Note_on_c, 14, 53, 0
16, 11040, Note_on_c, 14, 52, 68
16, 11159, Note_on_c, 14, 52, 0
16, 11160, Note_on_c, 14, 50, 70
16, 11279, Note_on_c, 14, 50, 0
16, 11280, Note_on_c, 14, 48, 72
16, 11399, Note_on_c, 14, 48, 0
16, 11400, Note_on_c, 14, 55, 74
16, 11504, Note_on_c, 14, 55, 0
16, 11520, Note_on_c, 14, 53, 76
16, 11639, Note_on_c, 14, 53, 0
16, 11640, Note_on_c, 14, 48, 76
16, 11744, Note_on_c, 14, 48, 0
16, 11760, Note_on_c, 14, 43, 76
16, 11879, Note_on_c, 14, 43, 0
16, 11880, Note_on_c, 14, 36, 76
16, 11999, Note_on_c, 14, 36, 0
16, 12000, Note_on_c, 14, 43, 76
16, 12119, Note_on_c, 14, 43, 0
16, 12120, Note_on_c, 14, 36, 76
16, 12239, Note_on_c, 14, 36, 0
16, 12240, Note_on_c, 14, 43, 76
16, 12359, Note_on_c, 14, 43, 0
16, 12360, Note_on_c, 14, 36, 76
16, 12464, Note_on_c, 14, 36, 0
16, 12480, Note_on_c, 14, 45, 76
16, 12599, Note_on_c, 14, 45, 0
16, 12600, Note_on_c, 14, 36, 76
16, 12719, Note_on_c, 14, 36, 0
16, 12720, Note_on_c, 14, 45, 76
16, 12839, Note_on_c, 14, 45, 0
16, 12840, Note_on_c, 14, 36, 76
16, 12944, Note_on_c, 14, 36, 0
16, 12960, Note_on_c, 14, 45, 76
16, 13079, Note_on_c, 14, 45, 0
16, 13080, Note_on_c, 14, 57, 76
16, 13199, Note_on_c, 14, 57, 0
16, 13200, Note_on_c, 14, 58, 76
16, 13319, Note_on_c, 14, 58, 0
16, 13320, Note_on_c, 14, 46, 76
16, 13439, Note_on_c, 14, 46, 0
16, 13440, Note_on_c, 14, 58, 76
16, 13559, Note_on_c, 14, 58, 0
16, 13560, Note_on_c, 14, 57, 76
16, 13679, Note_on_c, 14, 57, 0
16, 13680, Note_on_c, 14, 55, 76
16, 13784, Note_on_c, 14, 55, 0
16, 13800, Note_on_c, 14, 60, 76
16, 13904, Note_on_c, 14, 60, 0
16, 13920, Note_on_c, 14, 60, 76
16, 14039, Note_on_c, 14, 60, 0
16, 14040, Note_on_c, 14, 48, 76
16, 14159, Note_on_c, 14, 48, 0
16, 14160, Note_on_c, 14, 53, 76
16, 14264, Note_on_c, 14, 53, 0
16, 14280, Note_on_c, 14, 57, 76
16, 14399, Note_on_c, 14, 57, 0
16, 14400, Note_on_c, 14, 55, 76
16, 14519, Note_on_c, 14, 55, 0
16, 14520, Note_on_c, 14, 60, 76
16, 14624, Note_on_c, 14, 60, 0
16, 14640, Note_on_c, 14, 59, 76
16, 14759, Note_on_c, 14, 59, 0
16, 14760, Note_on_c, 14, 55, 76
16, 14879, Note_on_c, 14, 55, 0
16, 14880, Note_on_c, 14, 62, 76
16, 14999, Note_on_c, 14, 62, 0
16, 15000, Note_on_c, 14, 55, 76
16, 15119, Note_on_c, 14, 55, 0
16, 15120, Note_on_c, 14, 62, 76
16, 15239, Note_on_c, 14, 62, 0
16, 15240, Note_on_c, 14, 55, 76
16, 15344, Note_on_c, 14, 55, 0
16, 15360, Note_on_c, 14, 60, 76
16, 15479, Note_on_c, 14, 60, 0
16, 15480, Note_on_c, 14, 55, 76
16, 15599, Note_on_c, 14, 55, 0
16, 15600, Note_on_c, 14, 60, 76
16, 15719, Note_on_c, 14, 60, 0
16, 15720, Note_on_c, 14, 55, 76
16, 15824, Note_on_c, 14, 55, 0
16, 15840, Note_on_c, 14, 60, 76
16, 15959, Note_on_c, 14, 60, 0
16, 16080, Note_on_c, 14, 65, 84
16, 16139, Note_on_c, 14, 65, 0
16, 16140, Note_on_c, 14, 65, 76
16, 16439, Note_on_c, 14, 65, 0
16, 16440, Note_on_c, 14, 62, 76
16, 16559, Note_on_c, 14, 62, 0
16, 16560, Note_on_c, 14, 59, 76
16, 16679, Note_on_c, 14, 59, 0
16, 16680, Note_on_c, 14, 55, 76
16, 16784, Note_on_c, 14, 55, 0
16, 16800, Note_on_c, 14, 60, 84
16, 16859, Note_on_c, 14, 60, 0
16, 16860, Note_on_c, 14, 60, 76
16, 17159, Note_on_c, 14, 60, 0
16, 17160, Note_on_c, 14, 55, 76
16, 17279, Note_on_c, 14, 55, 0
16, 17280, Note_on_c, 14, 52, 76
16, 17399, Note_on_c, 14, 52, 0
16, 17400, Note_on_c, 14, 48, 76
16, 17504, Note_on_c, 14, 48, 0
16, 17520, Note_on_c, 14, 47, 84
16, 17639, Note_on_c, 14, 47, 0
16, 17640, Note_on_c, 14, 43, 76
16, 17759, Note_on_c, 14, 43, 0
16, 17760, Note_on_c, 14, 47, 76
16, 17879, Note_on_c, 14, 47, 0
16, 17880, Note_on_c, 14, 43, 76
16, 17999, Note_on_c, 14, 43, 0
16, 18000, Note_on_c, 14, 47, 76
16, 18119, Note_on_c, 14, 47, 0
16, 18120, Note_on_c, 14, 43, 76
16, 18224, Note_on_c, 14, 43, 0
16, 18240, Note_on_c, 14, 48, 84
16, 18359, Note_on_c, 14, 48, 0
16, 18360, Note_on_c, 14, 36, 76
16, 18479, Note_on_c, 14, 36, 0
16, 18480, Note_on_c, 14, 48, 76
16, 18599, Note_on_c, 14, 48, 0
16, 18600, Note_on_c, 14, 36, 76
16, 18719, Note_on_c, 14, 36, 0
16, 18720, Note_on_c, 14, 48, 76
16, 18839, Note_on_c, 14, 48, 0
16, 18840, Note_on_c, 14, 36, 76
16, 18944, Note_on_c, 14, 36, 0
16, 18960, Note_on_c, 14, 48, 84
16, 19079, Note_on_c, 14, 48, 0
16, 19080, Note_on_c, 14, 36, 76
16, 19199, Note_on_c, 14, 36, 0
16, 19200, Note_on_c, 14, 48, 76
16, 19319, Note_on_c, 14, 48, 0
16, 19320, Note_on_c, 14, 36, 76
16, 19439, Note_on_c, 14, 36, 0
16, 19440, Note_on_c, 14, 48, 76
16, 19559, Note_on_c, 14, 48, 0
16, 19560, Note_on_c, 14, 36, 76
16, 19664, Note_on_c, 14, 36, 0
16, 19680, Note_on_c, 14, 48, 84
16, 19799, Note_on_c, 14, 48, 0
16, 19800, Note_on_c, 14, 41, 76
16, 19919, Note_on_c, 14, 41, 0
16, 19920, Note_on_c, 14, 48, 76
16, 20039, Note_on_c, 14, 48, 0
16, 20040, Note_on_c, 14, 41, 76
16, 20159, Note_on_c, 14, 41, 0
16, 20160, Note_on_c, 14, 48, 76
16, 20279, Note_on_c, 14, 48, 0
16, 20280, Note_on_c, 14, 41, 76
16, 20384, Note_on_c, 14, 41, 0
16, 20400, Note_on_c, 14, 53, 76
16, 20519, Note_on_c, 14, 53, 0
16, 20580, Program_c, 14, 45
16, 20640, Note_on_c, 14, 53, 44
16, 20759, Note_on_c, 14, 53, 0
16, 21120, Note_on_c, 14, 53, 44
16, 21359, Note_on_c, 14, 53, 0
16, 21360, Note_on_c, 14, 53, 44
16, 21599, Note_on_c, 14, 53, 0
16, 21840, Note_on_c, 14, 53, 43
16, 22079, Note_on_c, 14, 53, 0
16, 22080, Note_on_c, 14, 53, 42
16, 22319, Note_on_c, 14, 53, 0
16, 22560, Note_on_c, 14, 53, 41
16, 22799, Note_on_c, 14, 53, 0
16, 22800, Note_on_c, 14, 53, 41
16, 23024, Note_on_c, 14, 53, 0
16, 23038, Program_c, 14, 48
16, 23040, Note_on_c, 14, 58, 44
16, 23159, Note_on_c, 14, 58, 0
16, 23520, Note_on_c, 14, 58, 44
16, 23639, Note_on_c, 14, 58, 0
16, 24000, Note_on_c, 14, 58, 44
16, 24119, Note_on_c, 14, 58, 0
16, 24480, Note_on_c, 14, 46, 44
16, 24599, Note_on_c, 14, 46, 0
16, 24600, Note_on_c, 14, 53, 44
16, 24719, Note_on_c, 14, 53, 0
16, 24720, Note_on_c, 14, 48, 44
16, 24839, Note_on_c, 14, 48, 0
16, 24840, Note_on_c, 14, 53, 44
16, 24959, Note_on_c, 14, 53, 0
16, 24960, Note_on_c, 14, 48, 44
16, 25079, Note_on_c, 14, 48, 0
16, 25080, Note_on_c, 14, 53, 44
16, 25199, Note_on_c, 14, 53, 0
16, 25200, Note_on_c, 14, 51, 44
16, 25319, Note_on_c, 14, 51, 0
16, 25320, Note_on_c, 14, 53, 44
16, 25424, Note_on_c, 14, 53, 0
16, 25440, Note_on_c, 14, 50, 44
16, 25559, Note_on_c, 14, 50, 0
16, 25560, Note_on_c, 14, 53, 44
16, 25679, Note_on_c, 14, 53, 0
16, 25680, Note_on_c, 14, 46, 44
16, 25799, Note_on_c, 14, 46, 0
16, 25800, Note_on_c, 14, 50, 44
16, 25919, Note_on_c, 14, 50, 0
16, 25920, Note_on_c, 14, 46, 44
16, 26039, Note_on_c, 14, 46, 0
16, 26040, Note_on_c, 14, 45, 44
16, 26159, Note_on_c, 14, 45, 0
16, 26160, Note_on_c, 14, 43, 44
16, 26279, Note_on_c, 14, 43, 0
16, 26280, Note_on_c, 14, 55, 44
16, 26384, Note_on_c, 14, 55, 0
16, 26400, Note_on_c, 14, 55, 44
16, 26519, Note_on_c, 14, 55, 0
16, 26520, Note_on_c, 14, 48, 44
16, 26639, Note_on_c, 14, 48, 0
16, 26640, Note_on_c, 14, 55, 44
16, 26759, Note_on_c, 14, 55, 0
16, 26760, Note_on_c, 14, 48, 44
16, 26879, Note_on_c, 14, 48, 0
16, 26880, Note_on_c, 14, 57, 44
16, 26999, Note_on_c, 14, 57, 0
16, 27000, Note_on_c, 14, 48, 44
16, 27119, Note_on_c, 14, 48, 0
16, 27120, Note_on_c, 14, 53, 44
16, 27239, Note_on_c, 14, 53, 0
16, 27240, Note_on_c, 14, 48, 44
16, 27344, Note_on_c, 14, 48, 0
16, 27360, Note_on_c, 14, 41, 44
16, 27479, Note_on_c, 14, 41, 0
16, 27480, Note_on_c, 14, 36, 45
16, 27599, Note_on_c, 14, 36, 0
16, 27600, Note_on_c, 14, 43, 47
16, 27719, Note_on_c, 14, 43, 0
16, 27720, Note_on_c, 14, 36, 49
16, 27839, Note_on_c, 14, 36, 0
16, 27840, Note_on_c, 14, 43, 50
16, 27959, Note_on_c, 14, 43, 0
16, 27960, Note_on_c, 14, 36, 52
16, 28064, Note_on_c, 14, 36, 0
16, 28080, Note_on_c, 14, 46, 54
16, 28199, Note_on_c, 14, 46, 0
16, 28200, Note_on_c, 14, 36, 55
16, 28319, Note_on_c, 14, 36, 0
16, 28320, Note_on_c, 14, 45, 57
16, 28439, Note_on_c, 14, 45, 0
16, 28440, Note_on_c, 14, 36, 59
16, 28559, Note_on_c, 14, 36, 0
16, 28560, Note_on_c, 14, 45, 60
16, 28679, Note_on_c, 14, 45, 0
16, 28680, Note_on_c, 14, 36, 62
16, 28799, Note_on_c, 14, 36, 0
16, 28800, Note_on_c, 14, 45, 64
16, 28919, Note_on_c, 14, 45, 0
16, 28920, Note_on_c, 14, 36, 65
16, 29039, Note_on_c, 14, 36, 0
16, 29040, Note_on_c, 14, 46, 67
16, 29159, Note_on_c, 14, 46, 0
16, 29160, Note_on_c, 14, 36, 69
16, 29279, Note_on_c, 14, 36, 0
16, 29280, Note_on_c, 14, 46, 70
16, 29399, Note_on_c, 14, 46, 0
16, 29400, Note_on_c, 14, 45, 72
16, 29519, Note_on_c, 14, 45, 0
16, 29520, Note_on_c, 14, 43, 74
16, 29624, Note_on_c, 14, 43, 0
16, 29640, Note_on_c, 14, 41, 76
16, 29744, Note_on_c, 14, 41, 0
16, 29760, Note_on_c, 14, 41, 80
16, 29879, Note_on_c, 14, 41, 0
16, 29880, Note_on_c, 14, 36, 80
16, 29999, Note_on_c, 14, 36, 0
16, 30000, Note_on_c, 14, 40, 80
16, 30119, Note_on_c, 14, 40, 0
16, 30120, Note_on_c, 14, 38, 80
16, 30239, Note_on_c, 14, 38, 0
16, 30240, Note_on_c, 14, 36, 80
16, 30344, Note_on_c, 14, 36, 0
16, 30360, Note_on_c, 14, 46, 80
16, 30464, Note_on_c, 14, 46, 0
16, 30480, Note_on_c, 14, 46, 80
16, 30599, Note_on_c, 14, 46, 0
16, 30600, Note_on_c, 14, 41, 80
16, 30719, Note_on_c, 14, 41, 0
16, 30720, Note_on_c, 14, 45, 80
16, 30839, Note_on_c, 14, 45, 0
16, 30840, Note_on_c, 14, 43, 80
16, 30959, Note_on_c, 14, 43, 0
16, 30960, Note_on_c, 14, 41, 80
16, 31064, Note_on_c, 14, 41, 0
16, 31080, Note_on_c, 14, 63, 84
16, 31184, Note_on_c, 14, 63, 0
16, 31200, Note_on_c, 14, 63, 84
16, 31439, Note_on_c, 14, 63, 0
16, 31440, Note_on_c, 14, 62, 84
16, 31559, Note_on_c, 14, 62, 0
16, 32520, Note_on_c, 14, 60, 84
16, 32624, Note_on_c, 14, 60, 0
16, 32640, Note_on_c, 14, 60, 84
16, 32879, Note_on_c, 14, 60, 0
16, 32880, Note_on_c, 14, 53, 84
16, 32999, Note_on_c, 14, 53, 0
16, 33960, Note_on_c, 14, 60, 84
16, 34064, Note_on_c, 14, 60, 0
16, 34080, Note_on_c, 14, 60, 84
16, 34319, Note_on_c, 14, 60, 0
16, 34320, Note_on_c, 14, 53, 84
16, 34439, Note_on_c, 14, 53, 0
16, 35400, Note_on_c, 14, 60, 84
16, 35504, Note_on_c, 14, 60, 0
16, 35520, Note_on_c, 14, 60, 84
16, 35759, Note_on_c, 14, 60, 0
16, 35760, Note_on_c, 14, 53, 84
16, 35879, Note_on_c, 14, 53, 0
16, 36480, Note_on_c, 14, 60, 84
16, 36719, Note_on_c, 14, 60, 0
16, 36720, Note_on_c, 14, 53, 84
16, 36839, Note_on_c, 14, 53, 0
16, 37440, Note_on_c, 14, 48, 92
16, 37499, Note_on_c, 14, 48, 0
16, 37500, Note_on_c, 14, 48, 84
16, 37679, Note_on_c, 14, 48, 0
16, 37680, Note_on_c, 14, 48, 84
16, 38399, Note_on_c, 14, 48, 0
16, 38400, Note_on_c, 14, 48, 84
16, 38639, Note_on_c, 14, 48, 0
16, 38640, Note_on_c, 14, 41, 84
16, 38744, Note_on_c, 14, 41, 0
16, 38760, Note_on_c, 14, 57, 84
16, 38879, Note_on_c, 14, 57, 0
16, 38880, Note_on_c, 14, 55, 84
16, 38999, Note_on_c, 14, 55, 0
16, 39000, Note_on_c, 14, 60, 84
16, 39104, Note_on_c, 14, 60, 0
16, 39120, Note_on_c, 14, 59, 76
16, 39239, Note_on_c, 14, 59, 0
16, 39240, Note_on_c, 14, 55, 76
16, 39359, Note_on_c, 14, 55, 0
16, 39360, Note_on_c, 14, 62, 76
16, 39479, Note_on_c, 14, 62, 0
16, 39480, Note_on_c, 14, 55, 76
16, 39599, Note_on_c, 14, 55, 0
16, 39600, Note_on_c, 14, 62, 76
16, 39719, Note_on_c, 14, 62, 0
16, 39720, Note_on_c, 14, 55, 76
16, 39824, Note_on_c, 14, 55, 0
16, 39840, Note_on_c, 14, 60, 76
16, 39959, Note_on_c, 14, 60, 0
16, 39960, Note_on_c, 14, 55, 76
16, 40079, Note_on_c, 14, 55, 0
16, 40080, Note_on_c, 14, 60, 76
16, 40199, Note_on_c, 14, 60, 0
16, 40200, Note_on_c, 14, 55, 76
16, 40304, Note_on_c, 14, 55, 0
16, 40320, Note_on_c, 14, 60, 76
16, 40439, Note_on_c, 14, 60, 0
16, 40560, Note_on_c, 14, 65, 84
16, 40619, Note_on_c, 14, 65, 0
16, 40620, Note_on_c, 14, 65, 76
16, 40919, Note_on_c, 14, 65, 0
16, 40920, Note_on_c, 14, 62, 76
16, 41039, Note_on_c, 14, 62, 0
16, 41040, Note_on_c, 14, 59, 76
16, 41159, Note_on_c, 14, 59, 0
16, 41160, Note_on_c, 14, 55, 76
16, 41264, Note_on_c, 14, 55, 0
16, 41280, Note_on_c, 14, 60, 84
16, 41339, Note_on_c, 14, 60, 0
16, 41340, Note_on_c, 14, 60, 76
16, 41639, Note_on_c, 14, 60, 0
16, 41640, Note_on_c, 14, 55, 76
16, 41759, Note_on_c, 14, 55, 0
16, 41760, Note_on_c, 14, 52, 76
16, 41879, Note_on_c, 14, 52, 0
16, 41880, Note_on_c, 14, 48, 76
16, 41984, Note_on_c, 14, 48, 0
16, 42000, Note_on_c, 14, 47, 84
16, 42119, Note_on_c, 14, 47, 0
16, 42120, Note_on_c, 14, 43, 76
16, 42239, Note_on_c, 14, 43, 0
16, 42240, Note_on_c, 14, 47, 76
16, 42359, Note_on_c, 14, 47, 0
16, 42360, Note_on_c, 14, 43, 76
16, 42479, Note_on_c, 14, 43, 0
16, 42480, Note_on_c, 14, 47, 76
16, 42599, Note_on_c, 14, 47, 0
16, 42600, Note_on_c, 14, 43, 76
16, 42704, Note_on_c, 14, 43, 0
16, 42720, Note_on_c, 14, 48, 84
16, 42839, Note_on_c, 14, 48, 0
16, 42840, Note_on_c, 14, 36, 76
16, 42959, Note_on_c, 14, 36, 0
16, 42960, Note_on_c, 14, 48, 76
16, 43079, Note_on_c, 14, 48, 0
16, 43080, Note_on_c, 14, 36, 76
16, 43199, Note_on_c, 14, 36, 0
16, 43200, Note_on_c, 14, 48, 76
16, 43319, Note_on_c, 14, 48, 0
16, 43320, Note_on_c, 14, 36, 76
16, 43424, Note_on_c, 14, 36, 0
16, 43440, Note_on_c, 14, 48, 84
16, 43559, Note_on_c, 14, 48, 0
16, 43560, Note_on_c, 14, 36, 76
16, 43679, Note_on_c, 14, 36, 0
16, 43680, Note_on_c, 14, 48, 76
16, 43799, Note_on_c, 14, 48, 0
16, 43800, Note_on_c, 14, 36, 76
16, 43919, Note_on_c, 14, 36, 0
16, 43920, Note_on_c, 14, 48, 76
16, 44039, Note_on_c, 14, 48, 0
16, 44040, Note_on_c, 14, 36, 76
16, 44144, Note_on_c, 14, 36, 0
16, 44160, Note_on_c, 14, 48, 84
16, 44279, Note_on_c, 14, 48, 0
16, 44280, Note_on_c, 14, 41, 76
16, 44399, Note_on_c, 14, 41, 0
16, 44400, Note_on_c, 14, 48, 76
16, 44519, Note_on_c, 14, 48, 0
16, 44520, Note_on_c, 14, 41, 76
16, 44639, Note_on_c, 14, 41, 0
16, 44640, Note_on_c, 14, 48, 76
16, 44759, Note_on_c, 14, 48, 0
16, 44760, Note_on_c, 14, 41, 76
16, 44864, Note_on_c, 14, 41, 0
16, 44880, Note_on_c, 14, 53, 76
16, 44999, Note_on_c, 14, 53, 0
16, 45060, Program_c, 14, 45
16, 45120, Note_on_c, 14, 53, 44
16, 45239, Note_on_c, 14, 53, 0
16, 45600, Note_on_c, 14, 53, 44
16, 45839, Note_on_c, 14, 53, 0
16, 45840, Note_on_c, 14, 53, 44
16, 46079, Note_on_c, 14, 53, 0
16, 46320, Note_on_c, 14, 53, 43
16, 46559, Note_on_c, 14, 53, 0
16, 46560, Note_on_c, 14, 53, 42
16, 46799, Note_on_c, 14, 53, 0
16, 47040, Note_on_c, 14, 53, 41
16, 47279, Note_on_c, 14, 53, 0
16, 47280, Note_on_c, 14, 53, 41
16, 47504, Note_on_c, 14, 53, 0
16, 47518, Program_c, 14, 48
16, 47520, Note_on_c, 14, 58, 44
16, 47639, Note_on_c, 14, 58, 0
16, 48000, Note_on_c, 14, 58, 44
16, 48119, Note_on_c, 14, 58, 0
16, 48480, Note_on_c, 14, 58, 44
16, 48599, Note_on_c, 14, 58, 0
16, 48960, Note_on_c, 14, 46, 44
16, 49079, Note_on_c, 14, 46, 0
16, 49080, Note_on_c, 14, 53, 44
16, 49199, Note_on_c, 14, 53, 0
16, 49200, Note_on_c, 14, 48, 44
16, 49319, Note_on_c, 14, 48, 0
16, 49320, Note_on_c, 14, 53, 44
16, 49439, Note_on_c, 14, 53, 0
16, 49440, Note_on_c, 14, 48, 44
16, 49559, Note_on_c, 14, 48, 0
16, 49560, Note_on_c, 14, 53, 44
16, 49679, Note_on_c, 14, 53, 0
16, 49680, Note_on_c, 14, 51, 44
16, 49799, Note_on_c, 14, 51, 0
16, 49800, Note_on_c, 14, 53, 44
16, 49904, Note_on_c, 14, 53, 0
16, 49920, Note_on_c, 14, 50, 44
16, 50039, Note_on_c, 14, 50, 0
16, 50040, Note_on_c, 14, 53, 44
16, 50159, Note_on_c, 14, 53, 0
16, 50160, Note_on_c, 14, 46, 44
16, 50279, Note_on_c, 14, 46, 0
16, 50280, Note_on_c, 14, 50, 44
16, 50399, Note_on_c, 14, 50, 0
16, 50400, Note_on_c, 14, 46, 44
16, 50519, Note_on_c, 14, 46, 0
16, 50520, Note_on_c, 14, 45, 44
16, 50639, Note_on_c, 14, 45, 0
16, 50640, Note_on_c, 14, 43, 44
16, 50759, Note_on_c, 14, 43, 0
16, 50760, Note_on_c, 14, 55, 44
16, 50864, Note_on_c, 14, 55, 0
16, 50880, Note_on_c, 14, 55, 44
16, 50999, Note_on_c, 14, 55, 0
16, 51000, Note_on_c, 14, 48, 44
16, 51119, Note_on_c, 14, 48, 0
16, 51120, Note_on_c, 14, 55, 44
16, 51239, Note_on_c, 14, 55, 0
16, 51240, Note_on_c, 14, 48, 44
16, 51359, Note_on_c, 14, 48, 0
16, 51360, Note_on_c, 14, 57, 44
16, 51479, Note_on_c, 14, 57, 0
16, 51480, Note_on_c, 14, 48, 44
16, 51599, Note_on_c, 14, 48, 0
16, 51600, Note_on_c, 14, 53, 44
16, 51719, Note_on_c, 14, 53, 0
16, 51720, Note_on_c, 14, 48, 44
16, 51824, Note_on_c, 14, 48, 0
16, 51840, Note_on_c, 14, 41, 44
16, 51959, Note_on_c, 14, 41, 0
16, 51960, Note_on_c, 14, 36, 45
16, 52079, Note_on_c, 14, 36, 0
16, 52080, Note_on_c, 14, 43, 47
16, 52199, Note_on_c, 14, 43, 0
16, 52200, Note_on_c, 14, 36, 49
16, 52319, Note_on_c, 14, 36, 0
16, 52320, Note_on_c, 14, 43, 50
16, 52439, Note_on_c, 14, 43, 0
16, 52440, Note_on_c, 14, 36, 52
16, 52544, Note_on_c, 14, 36, 0
16, 52560, Note_on_c, 14, 46, 54
16, 52679, Note_on_c, 14, 46, 0
16, 52680, Note_on_c, 14, 36, 55
16, 52799, Note_on_c, 14, 36, 0
16, 52800, Note_on_c, 14, 45, 57
16, 52919, Note_on_c, 14, 45, 0
16, 52920, Note_on_c, 14, 36, 59
16, 53039, Note_on_c, 14, 36, 0
16, 53040, Note_on_c, 14, 45, 60
16, 53159, Note_on_c, 14, 45, 0
16, 53160, Note_on_c, 14, 36, 62
16, 53279, Note_on_c, 14, 36, 0
16, 53280, Note_on_c, 14, 45, 64
16, 53399, Note_on_c, 14, 45, 0
16, 53400, Note_on_c, 14, 36, 65
16, 53519, Note_on_c, 14, 36, 0
16, 53520, Note_on_c, 14, 46, 67
16, 53639, Note_on_c, 14, 46, 0
16, 53640, Note_on_c, 14, 36, 69
16, 53759, Note_on_c, 14, 36, 0
16, 53760, Note_on_c, 14, 46, 70
16, 53879, Note_on_c, 14, 46, 0
16, 53880, Note_on_c, 14, 45, 72
16, 53999, Note_on_c, 14, 45, 0
16, 54000, Note_on_c, 14, 43, 74
16, 54104, Note_on_c, 14, 43, 0
16, 54120, Note_on_c, 14, 41, 76
16, 54224, Note_on_c, 14, 41, 0
16, 54240, Note_on_c, 14, 41, 80
16, 54359, Note_on_c, 14, 41, 0
16, 54360, Note_on_c, 14, 36, 80
16, 54479, Note_on_c, 14, 36, 0
16, 54480, Note_on_c, 14, 40, 80
16, 54599, Note_on_c, 14, 40, 0
16, 54600, Note_on_c, 14, 38, 80
16, 54719, Note_on_c, 14, 38, 0
16, 54720, Note_on_c, 14, 36, 80
16, 54824, Note_on_c, 14, 36, 0
16, 54840, Note_on_c, 14, 46, 80
16, 54944, Note_on_c, 14, 46, 0
16, 54960, Note_on_c, 14, 46, 80
16, 55079, Note_on_c, 14, 46, 0
16, 55080, Note_on_c, 14, 41, 80
16, 55199, Note_on_c, 14, 41, 0
16, 55200, Note_on_c, 14, 45, 80
16, 55319, Note_on_c, 14, 45, 0
16, 55320, Note_on_c, 14, 43, 80
16, 55439, Note_on_c, 14, 43, 0
16, 55440, Note_on_c, 14, 41, 80
16, 55544, Note_on_c, 14, 41, 0
16, 55560, Note_on_c, 14, 63, 84
16, 55664, Note_on_c, 14, 63, 0
16, 55680, Note_on_c, 14, 63, 84
16, 55919, Note_on_c, 14, 63, 0
16, 55920, Note_on_c, 14, 62, 84
16, 56039, Note_on_c, 14, 62, 0
16, 57000, Note_on_c, 14, 60, 84
16, 57104, Note_on_c, 14, 60, 0
16, 57120, Note_on_c, 14, 60, 84
16, 57359, Note_on_c, 14, 60, 0
16, 57360, Note_on_c, 14, 53, 84
16, 57479, Note_on_c, 14, 53, 0
16, 58440, Note_on_c, 14, 60, 84
16, 58544, Note_on_c, 14, 60, 0
16, 58560, Note_on_c, 14, 60, 84
16, 58799, Note_on_c, 14, 60, 0
16, 58800, Note_on_c, 14, 53, 84
16, 58919, Note_on_c, 14, 53, 0
16, 59880, Note_on_c, 14, 60, 84
16, 59984, Note_on_c, 14, 60, 0
16, 60000, Note_on_c, 14, 60, 84
16, 60239, Note_on_c, 14, 60, 0
16, 60240, Note_on_c, 14, 53, 84
16, 60359, Note_on_c, 14, 53, 0
16, 60960, Note_on_c, 14, 60, 84
16, 61199, Note_on_c, 14, 60, 0
16, 61200, Note_on_c, 14, 53, 84
16, 61319, Note_on_c, 14, 53, 0
16, 61920, Note_on_c, 14, 48, 92
16, 61979, Note_on_c, 14, 48, 0
16, 61980, Note_on_c, 14, 48, 84
16, 62159, Note_on_c, 14, 48, 0
16, 62160, Note_on_c, 14, 48, 84
16, 62879, Note_on_c, 14, 48, 0
16, 62880, Note_on_c, 14, 48, 84
16, 63119, Note_on_c, 14, 48, 0
16, 63120, Note_on_c, 14, 41, 84
16, 63239, Note_on_c, 14, 41, 0
16, 63600, Note_on_c, 14, 41, 52
16, 63659, Note_on_c, 14, 41, 0
16, 63680, Note_on_c, 14, 60, 52
16, 63739, Note_on_c, 14, 60, 0
16, 63760, Note_on_c, 14, 57, 52
16, 63819, Note_on_c, 14, 57, 0
16, 63840, Note_on_c, 14, 53, 52
16, 63899, Note_on_c, 14, 53, 0
16, 63920, Note_on_c, 14, 48, 52
16, 63979, Note_on_c, 14, 48, 0
16, 64000, Note_on_c, 14, 45, 52
16, 64059, Note_on_c, 14, 45, 0
16, 64080, Note_on_c, 14, 41, 52
16, 64139, Note_on_c, 14, 41, 0
16, 64160, Note_on_c, 14, 45, 52
16, 64219, Note_on_c, 14, 45, 0
16, 64240, Note_on_c, 14, 48, 52
16, 64299, Note_on_c, 14, 48, 0
16, 64320, Note_on_c, 14, 41, 52
16, 64379, Note_on_c, 14, 41, 0
16, 64400, Note_on_c, 14, 45, 52
16, 64459, Note_on_c, 14, 45, 0
16, 64480, Note_on_c, 14, 48, 52
16, 64539, Note_on_c, 14, 48, 0
16, 64560, Note_on_c, 14, 41, 52
16, 64619, Note_on_c, 14, 41, 0
16, 64640, Note_on_c, 14, 45, 52
16, 64699, Note_on_c, 14, 45, 0
16, 64720, Note_on_c, 14, 48, 52
16, 64779, Note_on_c, 14, 48, 0
16, 64800, Note_on_c, 14, 53, 52
16, 64859, Note_on_c, 14, 53, 0
16, 64880, Note_on_c, 14, 48, 52
16, 64939, Note_on_c, 14, 48, 0
16, 64960, Note_on_c, 14, 45, 52
16, 65019, Note_on_c, 14, 45, 0
16, 65040, Note_on_c, 14, 41, 52
16, 65099, Note_on_c, 14, 41, 0
16, 65120, Note_on_c, 14, 60, 52
16, 65179, Note_on_c, 14, 60, 0
16, 65200, Note_on_c, 14, 57, 52
16, 65259, Note_on_c, 14, 57, 0
16, 65280, Note_on_c, 14, 53, 52
16, 65339, Note_on_c, 14, 53, 0
16, 65360, Note_on_c, 14, 48, 52
16, 65419, Note_on_c, 14, 48, 0
16, 65440, Note_on_c, 14, 45, 52
16, 65499, Note_on_c, 14, 45, 0
16, 65520, Note_on_c, 14, 48, 52
16, 65579, Note_on_c, 14, 48, 0
16, 65600, Note_on_c, 14, 45, 52
16, 65659, Note_on_c, 14, 45, 0
16, 65680, Note_on_c, 14, 41, 52
16, 65739, Note_on_c, 14, 41, 0
16, 65760, Note_on_c, 14, 40, 52
16, 65819, Note_on_c, 14, 40, 0
16, 65840, Note_on_c, 14, 52, 52
16, 65899, Note_on_c, 14, 52, 0
16, 65920, Note_on_c, 14, 52, 52
16, 65979, Note_on_c, 14, 52, 0
16, 66000, Note_on_c, 14, 43, 52
16, 66059, Note_on_c, 14, 43, 0
16, 66080, Note_on_c, 14, 55, 52
16, 66139, Note_on_c, 14, 55, 0
16, 66160, Note_on_c, 14, 55, 52
16, 66219, Note_on_c, 14, 55, 0
16, 66240, Note_on_c, 14, 36, 52
16, 66299, Note_on_c, 14, 36, 0
16, 66320, Note_on_c, 14, 48, 52
16, 66379, Note_on_c, 14, 48, 0
16, 66400, Note_on_c, 14, 48, 52
16, 66459, Note_on_c, 14, 48, 0
16, 66480, Note_on_c, 14, 41, 52
16, 66539, Note_on_c, 14, 41, 0
16, 66560, Note_on_c, 14, 60, 52
16, 66619, Note_on_c, 14, 60, 0
16, 66640, Note_on_c, 14, 57, 53
16, 66699, Note_on_c, 14, 57, 0
16, 66720, Note_on_c, 14, 53, 54
16, 66779, Note_on_c, 14, 53, 0
16, 66800, Note_on_c, 14, 48, 54
16, 66859, Note_on_c, 14, 48, 0
16, 66880, Note_on_c, 14, 45, 55
16, 66939, Note_on_c, 14, 45, 0
16, 66960, Note_on_c, 14, 41, 56
16, 67019, Note_on_c, 14, 41, 0
16, 67040, Note_on_c, 14, 45, 56
16, 67099, Note_on_c, 14, 45, 0
16, 67120, Note_on_c, 14, 41, 57
16, 67179, Note_on_c, 14, 41, 0
16, 67200, Note_on_c, 14, 38, 58
16, 67259, Note_on_c, 14, 38, 0
16, 67280, Note_on_c, 14, 50, 58
16, 67339, Note_on_c, 14, 50, 0
16, 67360, Note_on_c, 14, 50, 59
16, 67419, Note_on_c, 14, 50, 0
16, 67440, Note_on_c, 14, 38, 60
16, 67499, Note_on_c, 14, 38, 0
16, 67520, Note_on_c, 14, 50, 60
16, 67579, Note_on_c, 14, 50, 0
16, 67600, Note_on_c, 14, 52, 61
16, 67659, Note_on_c, 14, 52, 0
16, 67680, Note_on_c, 14, 41, 62
16, 67739, Note_on_c, 14, 41, 0
16, 67760, Note_on_c, 14, 53, 62
16, 67819, Note_on_c, 14, 53, 0
16, 67840, Note_on_c, 14, 54, 63
16, 67899, Note_on_c, 14, 54, 0
16, 67920, Note_on_c, 14, 43, 64
16, 67979, Note_on_c, 14, 43, 0
16, 68000, Note_on_c, 14, 55, 64
16, 68059, Note_on_c, 14, 55, 0
16, 68080, Note_on_c, 14, 55, 65
16, 68139, Note_on_c, 14, 55, 0
16, 68160, Note_on_c, 14, 43, 66
16, 68219, Note_on_c, 14, 43, 0
16, 68240, Note_on_c, 14, 55, 66
16, 68299, Note_on_c, 14, 55, 0
16, 68320, Note_on_c, 14, 55, 67
16, 68379, Note_on_c, 14, 55, 0
16, 68400, Note_on_c, 14, 43, 52
16, 68459, Note_on_c, 14, 43, 0
16, 68480, Note_on_c, 14, 55, 52
16, 68539, Note_on_c, 14, 55, 0
16, 68560, Note_on_c, 14, 55, 52
16, 68619, Note_on_c, 14, 55, 0
16, 68640, Note_on_c, 14, 36, 52
16, 68699, Note_on_c, 14, 36, 0
16, 68720, Note_on_c, 14, 48, 52
16, 68779, Note_on_c, 14, 48, 0
16, 68800, Note_on_c, 14, 48, 52
16, 68859, Note_on_c, 14, 48, 0
16, 68880, Note_on_c, 14, 58, 52
16, 68939, Note_on_c, 14, 58, 0
16, 68960, Note_on_c, 14, 55, 52
16, 69019, Note_on_c, 14, 55, 0
16, 69040, Note_on_c, 14, 52, 52
16, 69099, Note_on_c, 14, 52, 0
16, 69120, Note_on_c, 14, 48, 52
16, 69179, Note_on_c, 14, 48, 0
16, 69200, Note_on_c, 14, 46, 52
16, 69259, Note_on_c, 14, 46, 0
16, 69280, Note_on_c, 14, 43, 52
16, 69339, Note_on_c, 14, 43, 0
16, 69360, Note_on_c, 14, 41, 52
16, 69419, Note_on_c, 14, 41, 0
16, 69440, Note_on_c, 14, 60, 52
16, 69499, Note_on_c, 14, 60, 0
16, 69520, Note_on_c, 14, 57, 52
16, 69579, Note_on_c, 14, 57, 0
16, 69600, Note_on_c, 14, 53, 52
16, 69659, Note_on_c, 14, 53, 0
16, 69680, Note_on_c, 14, 48, 52
16, 69739, Note_on_c, 14, 48, 0
16, 69760, Note_on_c, 14, 45, 52
16, 69819, Note_on_c, 14, 45, 0
16, 69840, Note_on_c, 14, 41, 52
16, 69899, Note_on_c, 14, 41, 0
16, 69920, Note_on_c, 14, 45, 52
16, 69979, Note_on_c, 14, 45, 0
16, 70000, Note_on_c, 14, 48, 52
16, 70059, Note_on_c, 14, 48, 0
16, 70080, Note_on_c, 14, 41, 52
16, 70139, Note_on_c, 14, 41, 0
16, 70160, Note_on_c, 14, 45, 52
16, 70219, Note_on_c, 14, 45, 0
16, 70240, Note_on_c, 14, 48, 52
16, 70299, Note_on_c, 14, 48, 0
16, 70320, Note_on_c, 14, 41, 52
16, 70379, Note_on_c, 14, 41, 0
16, 70400, Note_on_c, 14, 45, 52
16, 70459, Note_on_c, 14, 45, 0
16, 70480, Note_on_c, 14, 48, 52
16, 70539, Note_on_c, 14, 48, 0
16, 70560, Note_on_c, 14, 53, 52
16, 70619, Note_on_c, 14, 53, 0
16, 70640, Note_on_c, 14, 48, 52
16, 70699, Note_on_c, 14, 48, 0
16, 70720, Note_on_c, 14, 45, 52
16, 70779, Note_on_c, 14, 45, 0
16, 70800, Note_on_c, 14, 41, 52
16, 70859, Note_on_c, 14, 41, 0
16, 70880, Note_on_c, 14, 60, 52
16, 70939, Note_on_c, 14, 60, 0
16, 70960, Note_on_c, 14, 57, 52
16, 71019, Note_on_c, 14, 57, 0
16, 71040, Note_on_c, 14, 53, 52
16, 71099, Note_on_c, 14, 53, 0
16, 71120, Note_on_c, 14, 48, 52
16, 71179, Note_on_c, 14, 48, 0
16, 71200, Note_on_c, 14, 45, 52
16, 71259, Note_on_c, 14, 45, 0
16, 71280, Note_on_c, 14, 48, 52
16, 71339, Note_on_c, 14, 48, 0
16, 71360, Note_on_c, 14, 45, 52
16, 71419, Note_on_c, 14, 45, 0
16, 71440, Note_on_c, 14, 41, 52
16, 71499, Note_on_c, 14, 41, 0
16, 71520, Note_on_c, 14, 40, 52
16, 71579, Note_on_c, 14, 40, 0
16, 71600, Note_on_c, 14, 52, 52
16, 71659, Note_on_c, 14, 52, 0
16, 71680, Note_on_c, 14, 52, 52
16, 71739, Note_on_c, 14, 52, 0
16, 71760, Note_on_c, 14, 43, 52
16, 71819, Note_on_c, 14, 43, 0
16, 71840, Note_on_c, 14, 55, 52
16, 71899, Note_on_c, 14, 55, 0
16, 71920, Note_on_c, 14, 55, 52
16, 71979, Note_on_c, 14, 55, 0
16, 72000, Note_on_c, 14, 36, 52
16, 72059, Note_on_c, 14, 36, 0
16, 72080, Note_on_c, 14, 48, 52
16, 72139, Note_on_c, 14, 48, 0
16, 72160, Note_on_c, 14, 48, 52
16, 72219, Note_on_c, 14, 48, 0
16, 72240, Note_on_c, 14, 41, 52
16, 72299, Note_on_c, 14, 41, 0
16, 72320, Note_on_c, 14, 60, 52
16, 72379, Note_on_c, 14, 60, 0
16, 72400, Note_on_c, 14, 57, 53
16, 72459, Note_on_c, 14, 57, 0
16, 72480, Note_on_c, 14, 53, 54
16, 72539, Note_on_c, 14, 53, 0
16, 72560, Note_on_c, 14, 48, 54
16, 72619, Note_on_c, 14, 48, 0
16, 72640, Note_on_c, 14, 45, 55
16, 72699, Note_on_c, 14, 45, 0
16, 72720, Note_on_c, 14, 41, 56
16, 72779, Note_on_c, 14, 41, 0
16, 72800, Note_on_c, 14, 45, 56
16, 72859, Note_on_c, 14, 45, 0
16, 72880, Note_on_c, 14, 41, 57
16, 72939, Note_on_c, 14, 41, 0
16, 72960, Note_on_c, 14, 38, 58
16, 73019, Note_on_c, 14, 38, 0
16, 73040, Note_on_c, 14, 50, 58
16, 73099, Note_on_c, 14, 50, 0
16, 73120, Note_on_c, 14, 50, 59
16, 73179, Note_on_c, 14, 50, 0
16, 73200, Note_on_c, 14, 38, 60
16, 73259, Note_on_c, 14, 38, 0
16, 73280, Note_on_c, 14, 50, 60
16, 73339, Note_on_c, 14, 50, 0
16, 73360, Note_on_c, 14, 52, 61
16, 73419, Note_on_c, 14, 52, 0
16, 73440, Note_on_c, 14, 41, 62
16, 73499, Note_on_c, 14, 41, 0
16, 73520, Note_on_c, 14, 53, 62
16, 73579, Note_on_c, 14, 53, 0
16, 73600, Note_on_c, 14, 54, 63
16, 73659, Note_on_c, 14, 54, 0
16, 73680, Note_on_c, 14, 43, 64
16, 73739, Note_on_c, 14, 43, 0
16, 73760, Note_on_c, 14, 55, 64
16, 73819, Note_on_c, 14, 55, 0
16, 73840, Note_on_c, 14, 55, 65
16, 73899, Note_on_c, 14, 55, 0
16, 73920, Note_on_c, 14, 43, 66
16, 73979, Note_on_c, 14, 43, 0
16, 74000, Note_on_c, 14, 55, 66
16, 74059, Note_on_c, 14, 55, 0
16, 74080, Note_on_c, 14, 55, 67
16, 74139, Note_on_c, 14, 55, 0
16, 74160, Note_on_c, 14, 43, 52
16, 74219, Note_on_c, 14, 43, 0
16, 74240, Note_on_c, 14, 55, 52
16, 74299, Note_on_c, 14, 55, 0
16, 74320, Note_on_c, 14, 55, 52
16, 74379, Note_on_c, 14, 55, 0
16, 74400, Note_on_c, 14, 36, 52
16, 74459, Note_on_c, 14, 36, 0
16, 74480, Note_on_c, 14, 48, 52
16, 74539, Note_on_c, 14, 48, 0
16, 74560, Note_on_c, 14, 48, 52
16, 74619, Note_on_c, 14, 48, 0
16, 74640, Note_on_c, 14, 48, 52
16, 74699, Note_on_c, 14, 48, 0
16, 74720, Note_on_c, 14, 52, 52
16, 74779, Note_on_c, 14, 52, 0
16, 74800, Note_on_c, 14, 55, 52
16, 74859, Note_on_c, 14, 55, 0
16, 74880, Note_on_c, 14, 53, 52
16, 74939, Note_on_c, 14, 53, 0
16, 74960, Note_on_c, 14, 50, 52
16, 75019, Note_on_c, 14, 50, 0
16, 75040, Note_on_c, 14, 55, 52
16, 75099, Note_on_c, 14, 55, 0
16, 75120, Note_on_c, 14, 48, 52
16, 75179, Note_on_c, 14, 48, 0
16, 75200, Note_on_c, 14, 60, 52
16, 75259, Note_on_c, 14, 60, 0
16, 75280, Note_on_c, 14, 55, 52
16, 75339, Note_on_c, 14, 55, 0
16, 75360, Note_on_c, 14, 52, 52
16, 75419, Note_on_c, 14, 52, 0
16, 75440, Note_on_c, 14, 48, 52
16, 75499, Note_on_c, 14, 48, 0
16, 75520, Note_on_c, 14, 43, 52
16, 75579, Note_on_c, 14, 43, 0
16, 75600, Note_on_c, 14, 36, 52
16, 75659, Note_on_c, 14, 36, 0
16, 75680, Note_on_c, 14, 43, 52
16, 75739, Note_on_c, 14, 43, 0
16, 75760, Note_on_c, 14, 48, 52
16, 75819, Note_on_c, 14, 48, 0
16, 75840, Note_on_c, 14, 36, 52
16, 75899, Note_on_c, 14, 36, 0
16, 75920, Note_on_c, 14, 40, 52
16, 75979, Note_on_c, 14, 40, 0
16, 76000, Note_on_c, 14, 43, 52
16, 76059, Note_on_c, 14, 43, 0
16, 76080, Note_on_c, 14, 48, 52
16, 76139, Note_on_c, 14, 48, 0
16, 76160, Note_on_c, 14, 52, 52
16, 76219, Note_on_c, 14, 52, 0
16, 76240, Note_on_c, 14, 55, 52
16, 76299, Note_on_c, 14, 55, 0
16, 76320, Note_on_c, 14, 60, 52
16, 76379, Note_on_c, 14, 60, 0
16, 76400, Note_on_c, 14, 48, 52
16, 76459, Note_on_c, 14, 48, 0
16, 76480, Note_on_c, 14, 60, 52
16, 76539, Note_on_c, 14, 60, 0
16, 76560, Note_on_c, 14, 48, 52
16, 76619, Note_on_c, 14, 48, 0
16, 76640, Note_on_c, 14, 60, 52
16, 76699, Note_on_c, 14, 60, 0
16, 76720, Note_on_c, 14, 55, 52
16, 76779, Note_on_c, 14, 55, 0
16, 76800, Note_on_c, 14, 51, 52
16, 76859, Note_on_c, 14, 51, 0
16, 76880, Note_on_c, 14, 48, 52
16, 76939, Note_on_c, 14, 48, 0
16, 76960, Note_on_c, 14, 43, 52
16, 77019, Note_on_c, 14, 43, 0
16, 77040, Note_on_c, 14, 36, 52
16, 77099, Note_on_c, 14, 36, 0
16, 77120, Note_on_c, 14, 43, 52
16, 77179, Note_on_c, 14, 43, 0
16, 77200, Note_on_c, 14, 48, 52
16, 77259, Note_on_c, 14, 48, 0
16, 77280, Note_on_c, 14, 36, 52
16, 77339, Note_on_c, 14, 36, 0
16, 77360, Note_on_c, 14, 39, 52
16, 77419, Note_on_c, 14, 39, 0
16, 77440, Note_on_c, 14, 43, 52
16, 77499, Note_on_c, 14, 43, 0
16, 77520, Note_on_c, 14, 48, 52
16, 77579, Note_on_c, 14, 48, 0
16, 77600, Note_on_c, 14, 51, 52
16, 77659, Note_on_c, 14, 51, 0
16, 77680, Note_on_c, 14, 55, 52
16, 77739, Note_on_c, 14, 55, 0
16, 77760, Note_on_c, 14, 60, 52
16, 77819, Note_on_c, 14, 60, 0
16, 77840, Note_on_c, 14, 48, 52
16, 77899, Note_on_c, 14, 48, 0
16, 77920, Note_on_c, 14, 60, 52
16, 77979, Note_on_c, 14, 60, 0
16, 78000, Note_on_c, 14, 44, 52
16, 78059, Note_on_c, 14, 44, 0
16, 78080, Note_on_c, 14, 60, 52
16, 78139, Note_on_c, 14, 60, 0
16, 78160, Note_on_c, 14, 56, 53
16, 78219, Note_on_c, 14, 56, 0
16, 78240, Note_on_c, 14, 51, 54
16, 78299, Note_on_c, 14, 51, 0
16, 78320, Note_on_c, 14, 48, 55
16, 78379, Note_on_c, 14, 48, 0
16, 78400, Note_on_c, 14, 44, 56
16, 78459, Note_on_c, 14, 44, 0
16, 78480, Note_on_c, 14, 39, 57
16, 78539, Note_on_c, 14, 39, 0
16, 78560, Note_on_c, 14, 36, 58
16, 78619, Note_on_c, 14, 36, 0
16, 78640, Note_on_c, 14, 44, 59
16, 78699, Note_on_c, 14, 44, 0
16, 78720, Note_on_c, 14, 37, 60
16, 78779, Note_on_c, 14, 37, 0
16, 78800, Note_on_c, 14, 41, 60
16, 78859, Note_on_c, 14, 41, 0
16, 78880, Note_on_c, 14, 46, 61
16, 78939, Note_on_c, 14, 46, 0
16, 78960, Note_on_c, 14, 49, 62
16, 79019, Note_on_c, 14, 49, 0
16, 79040, Note_on_c, 14, 53, 63
16, 79099, Note_on_c, 14, 53, 0
16, 79120, Note_on_c, 14, 58, 64
16, 79179, Note_on_c, 14, 58, 0
16, 79200, Note_on_c, 14, 61, 65
16, 79259, Note_on_c, 14, 61, 0
16, 79280, Note_on_c, 14, 49, 66
16, 79339, Note_on_c, 14, 49, 0
16, 79360, Note_on_c, 14, 61, 67
16, 79419, Note_on_c, 14, 61, 0
16, 79440, Note_on_c, 14, 39, 68
16, 79499, Note_on_c, 14, 39, 0
16, 79520, Note_on_c, 14, 44, 68
16, 79579, Note_on_c, 14, 44, 0
16, 79600, Note_on_c, 14, 48, 69
16, 79659, Note_on_c, 14, 48, 0
16, 79680, Note_on_c, 14, 51, 70
16, 79739, Note_on_c, 14, 51, 0
16, 79760, Note_on_c, 14, 56, 71
16, 79819, Note_on_c, 14, 56, 0
16, 79840, Note_on_c, 14, 60, 72
16, 79899, Note_on_c, 14, 60, 0
16, 79920, Note_on_c, 14, 63, 73
16, 79979, Note_on_c, 14, 63, 0
16, 80000, Note_on_c, 14, 51, 74
16, 80059, Note_on_c, 14, 51, 0
16, 80080, Note_on_c, 14, 51, 75
16, 80139, Note_on_c, 14, 51, 0
16, 80160, Note_on_c, 14, 52, 76
16, 80219, Note_on_c, 14, 52, 0
16, 80240, Note_on_c, 14, 40, 76
16, 80299, Note_on_c, 14, 40, 0
16, 80320, Note_on_c, 14, 40, 76
16, 80379, Note_on_c, 14, 40, 0
16, 80400, Note_on_c, 14, 40, 76
16, 80459, Note_on_c, 14, 40, 0
16, 80480, Note_on_c, 14, 52, 76
16, 80539, Note_on_c, 14, 52, 0
16, 80560, Note_on_c, 14, 52, 76
16, 80619, Note_on_c, 14, 52, 0
16, 80640, Note_on_c, 14, 48, 76
16, 80699, Note_on_c, 14, 48, 0
16, 80720, Note_on_c, 14, 36, 76
16, 80779, Note_on_c, 14, 36, 0
16, 80800, Note_on_c, 14, 36, 76
16, 80859, Note_on_c, 14, 36, 0
16, 80880, Note_on_c, 14, 41, 52
16, 80939, Note_on_c, 14, 41, 0
16, 80960, Note_on_c, 14, 60, 52
16, 81019, Note_on_c, 14, 60, 0
16, 81040, Note_on_c, 14, 57, 53
16, 81099, Note_on_c, 14, 57, 0
16, 81120, Note_on_c, 14, 53, 54
16, 81179, Note_on_c, 14, 53, 0
16, 81200, Note_on_c, 14, 48, 55
16, 81259, Note_on_c, 14, 48, 0
16, 81280, Note_on_c, 14, 45, 56
16, 81339, Note_on_c, 14, 45, 0
16, 81360, Note_on_c, 14, 41, 57
16, 81419, Note_on_c, 14, 41, 0
16, 81440, Note_on_c, 14, 48, 58
16, 81499, Note_on_c, 14, 48, 0
16, 81520, Note_on_c, 14, 53, 59
16, 81579, Note_on_c, 14, 53, 0
16, 81600, Note_on_c, 14, 46, 60
16, 81659, Note_on_c, 14, 46, 0
16, 81680, Note_on_c, 14, 62, 61
16, 81739, Note_on_c, 14, 62, 0
16, 81760, Note_on_c, 14, 58, 62
16, 81819, Note_on_c, 14, 58, 0
16, 81840, Note_on_c, 14, 55, 63
16, 81899, Note_on_c, 14, 55, 0
16, 81920, Note_on_c, 14, 50, 64
16, 81979, Note_on_c, 14, 50, 0
16, 82000, Note_on_c, 14, 46, 65
16, 82059, Note_on_c, 14, 46, 0
16, 82080, Note_on_c, 14, 58, 66
16, 82139, Note_on_c, 14, 58, 0
16, 82160, Note_on_c, 14, 46, 67
16, 82219, Note_on_c, 14, 46, 0
16, 82240, Note_on_c, 14, 46, 68
16, 82299, Note_on_c, 14, 46, 0
16, 82320, Note_on_c, 14, 36, 52
16, 82379, Note_on_c, 14, 36, 0
16, 82400, Note_on_c, 14, 41, 52
16, 82459, Note_on_c, 14, 41, 0
16, 82480, Note_on_c, 14, 45, 52
16, 82539, Note_on_c, 14, 45, 0
16, 82560, Note_on_c, 14, 48, 52
16, 82619, Note_on_c, 14, 48, 0
16, 82640, Note_on_c, 14, 53, 52
16, 82699, Note_on_c, 14, 53, 0
16, 82720, Note_on_c, 14, 57, 52
16, 82779, Note_on_c, 14, 57, 0
16, 82800, Note_on_c, 14, 60, 52
16, 82859, Note_on_c, 14, 60, 0
16, 82880, Note_on_c, 14, 48, 52
16, 82939, Note_on_c, 14, 48, 0
16, 82960, Note_on_c, 14, 48, 52
16, 83019, Note_on_c, 14, 48, 0
16, 83040, Note_on_c, 14, 41, 52
16, 83099, Note_on_c, 14, 41, 0
16, 83120, Note_on_c, 14, 60, 52
16, 83179, Note_on_c, 14, 60, 0
16, 83200, Note_on_c, 14, 57, 53
16, 83259, Note_on_c, 14, 57, 0
16, 83280, Note_on_c, 14, 53, 54
16, 83339, Note_on_c, 14, 53, 0
16, 83360, Note_on_c, 14, 48, 55
16, 83419, Note_on_c, 14, 48, 0
16, 83440, Note_on_c, 14, 43, 56
16, 83499, Note_on_c, 14, 43, 0
16, 83520, Note_on_c, 14, 45, 65
16, 83579, Note_on_c, 14, 45, 0
16, 83600, Note_on_c, 14, 41, 58
16, 83659, Note_on_c, 14, 41, 0
16, 83680, Note_on_c, 14, 48, 59
16, 83739, Note_on_c, 14, 48, 0
16, 83760, Note_on_c, 14, 43, 60
16, 83819, Note_on_c, 14, 43, 0
16, 83840, Note_on_c, 14, 60, 61
16, 83899, Note_on_c, 14, 60, 0
16, 83920, Note_on_c, 14, 57, 62
16, 83979, Note_on_c, 14, 57, 0
16, 84000, Note_on_c, 14, 53, 63
16, 84059, Note_on_c, 14, 53, 0
16, 84080, Note_on_c, 14, 48, 64
16, 84139, Note_on_c, 14, 48, 0
16, 84160, Note_on_c, 14, 43, 65
16, 84219, Note_on_c, 14, 43, 0
16, 84240, Note_on_c, 14, 45, 74
16, 84299, Note_on_c, 14, 45, 0
16, 84320, Note_on_c, 14, 41, 67
16, 84379, Note_on_c, 14, 41, 0
16, 84400, Note_on_c, 14, 48, 68
16, 84459, Note_on_c, 14, 48, 0
16, 84480, Note_on_c, 14, 41, 52
16, 84539, Note_on_c, 14, 41, 0
16, 84560, Note_on_c, 14, 60, 52
16, 84619, Note_on_c, 14, 60, 0
16, 84640, Note_on_c, 14, 57, 52
16, 84699, Note_on_c, 14, 57, 0
16, 84720, Note_on_c, 14, 53, 52
16, 84779, Note_on_c, 14, 53, 0
16, 84800, Note_on_c, 14, 48, 52
16, 84859, Note_on_c, 14, 48, 0
16, 84880, Note_on_c, 14, 43, 52
16, 84939, Note_on_c, 14, 43, 0
16, 84960, Note_on_c, 14, 45, 52
16, 85019, Note_on_c, 14, 45, 0
16, 85040, Note_on_c, 14, 41, 52
16, 85099, Note_on_c, 14, 41, 0
16, 85120, Note_on_c, 14, 48, 52
16, 85179, Note_on_c, 14, 48, 0
16, 85200, Note_on_c, 14, 36, 52
16, 85259, Note_on_c, 14, 36, 0
16, 85280, Note_on_c, 14, 40, 52
16, 85339, Note_on_c, 14, 40, 0
16, 85360, Note_on_c, 14, 43, 52
16, 85419, Note_on_c, 14, 43, 0
16, 85440, Note_on_c, 14, 48, 52
16, 85499, Note_on_c, 14, 48, 0
16, 85520, Note_on_c, 14, 52, 52
16, 85579, Note_on_c, 14, 52, 0
16, 85600, Note_on_c, 14, 55, 52
16, 85659, Note_on_c, 14, 55, 0
16, 85680, Note_on_c, 14, 60, 52
16, 85739, Note_on_c, 14, 60, 0
16, 85760, Note_on_c, 14, 48, 52
16, 85819, Note_on_c, 14, 48, 0
16, 85840, Note_on_c, 14, 48, 52
16, 85899, Note_on_c, 14, 48, 0
16, 85920, Note_on_c, 14, 41, 52
16, 85979, Note_on_c, 14, 41, 0
16, 86000, Note_on_c, 14, 60, 52
16, 86059, Note_on_c, 14, 60, 0
16, 86080, Note_on_c, 14, 57, 53
16, 86139, Note_on_c, 14, 57, 0
16, 86160, Note_on_c, 14, 53, 54
16, 86219, Note_on_c, 14, 53, 0
16, 86240, Note_on_c, 14, 48, 55
16, 86299, Note_on_c, 14, 48, 0
16, 86320, Note_on_c, 14, 43, 56
16, 86379, Note_on_c, 14, 43, 0
16, 86400, Note_on_c, 14, 45, 65
16, 86459, Note_on_c, 14, 45, 0
16, 86480, Note_on_c, 14, 41, 58
16, 86539, Note_on_c, 14, 41, 0
16, 86560, Note_on_c, 14, 48, 59
16, 86619, Note_on_c, 14, 48, 0
16, 86640, Note_on_c, 14, 41, 60
16, 86699, Note_on_c, 14, 41, 0
16, 86720, Note_on_c, 14, 60, 61
16, 86779, Note_on_c, 14, 60, 0
16, 86800, Note_on_c, 14, 57, 62
16, 86859, Note_on_c, 14, 57, 0
16, 86880, Note_on_c, 14, 53, 63
16, 86939, Note_on_c, 14, 53, 0
16, 86960, Note_on_c, 14, 48, 64
16, 87019, Note_on_c, 14, 48, 0
16, 87040, Note_on_c, 14, 43, 65
16, 87099, Note_on_c, 14, 43, 0
16, 87120, Note_on_c, 14, 45, 74
16, 87179, Note_on_c, 14, 45, 0
16, 87200, Note_on_c, 14, 41, 67
16, 87259, Note_on_c, 14, 41, 0
16, 87280, Note_on_c, 14, 48, 68
16, 87339, Note_on_c, 14, 48, 0
16, 87360, Note_on_c, 14, 41, 52
16, 87419, Note_on_c, 14, 41, 0
16, 87440, Note_on_c, 14, 60, 52
16, 87499, Note_on_c, 14, 60, 0
16, 87520, Note_on_c, 14, 57, 52
16, 87579, Note_on_c, 14, 57, 0
16, 87600, Note_on_c, 14, 53, 52
16, 87659, Note_on_c, 14, 53, 0
16, 87680, Note_on_c, 14, 48, 52
16, 87739, Note_on_c, 14, 48, 0
16, 87760, Note_on_c, 14, 43, 52
16, 87819, Note_on_c, 14, 43, 0
16, 87840, Note_on_c, 14, 45, 52
16, 87899, Note_on_c, 14, 45, 0
16, 87940, Note_on_c, 14, 41, 52
16, 87999, Note_on_c, 14, 41, 0
16, 88000, Note_on_c, 14, 48, 52
16, 88059, Note_on_c, 14, 48, 0
16, 88080, Note_on_c, 14, 36, 52
16, 88139, Note_on_c, 14, 36, 0
16, 88160, Note_on_c, 14, 40, 52
16, 88219, Note_on_c, 14, 40, 0
16, 88240, Note_on_c, 14, 43, 52
16, 88299, Note_on_c, 14, 43, 0
16, 88320, Note_on_c, 14, 48, 52
16, 88379, Note_on_c, 14, 48, 0
16, 88400, Note_on_c, 14, 52, 52
16, 88459, Note_on_c, 14, 52, 0
16, 88480, Note_on_c, 14, 55, 52
16, 88539, Note_on_c, 14, 55, 0
16, 88560, Note_on_c, 14, 60, 52
16, 88619, Note_on_c, 14, 60, 0
16, 88640, Note_on_c, 14, 48, 52
16, 88699, Note_on_c, 14, 48, 0
16, 88720, Note_on_c, 14, 60, 52
16, 88779, Note_on_c, 14, 60, 0
16, 88800, Note_on_c, 14, 41, 52
16, 88859, Note_on_c, 14, 41, 0
16, 88880, Note_on_c, 14, 60, 54
16, 88939, Note_on_c, 14, 60, 0
16, 88960, Note_on_c, 14, 57, 56
16, 89019, Note_on_c, 14, 57, 0
16, 89040, Note_on_c, 14, 53, 58
16, 89099, Note_on_c, 14, 53, 0
16, 89120, Note_on_c, 14, 48, 60
16, 89179, Note_on_c, 14, 48, 0
16, 89200, Note_on_c, 14, 43, 62
16, 89259, Note_on_c, 14, 43, 0
16, 89280, Note_on_c, 14, 45, 72
16, 89339, Note_on_c, 14, 45, 0
16, 89360, Note_on_c, 14, 41, 66
16, 89419, Note_on_c, 14, 41, 0
16, 89440, Note_on_c, 14, 48, 68
16, 89499, Note_on_c, 14, 48, 0
16, 89520, Note_on_c, 14, 36, 52
16, 89579, Note_on_c, 14, 36, 0
16, 89600, Note_on_c, 14, 40, 52
16, 89659, Note_on_c, 14, 40, 0
16, 89680, Note_on_c, 14, 43, 52
16, 89739, Note_on_c, 14, 43, 0
16, 89760, Note_on_c, 14, 48, 52
16, 89819, Note_on_c, 14, 48, 0
16, 89840, Note_on_c, 14, 52, 52
16, 89899, Note_on_c, 14, 52, 0
16, 89920, Note_on_c, 14, 55, 52
16, 89979, Note_on_c, 14, 55, 0
16, 90000, Note_on_c, 14, 60, 52
16, 90059, Note_on_c, 14, 60, 0
16, 90080, Note_on_c, 14, 48, 52
16, 90139, Note_on_c, 14, 48, 0
16, 90160, Note_on_c, 14, 60, 52
16, 90219, Note_on_c, 14, 60, 0
16, 90240, Note_on_c, 14, 41, 52
16, 90299, Note_on_c, 14, 41, 0
16, 90320, Note_on_c, 14, 60, 54
16, 90379, Note_on_c, 14, 60, 0
16, 90400, Note_on_c, 14, 57, 56
16, 90459, Note_on_c, 14, 57, 0
16, 90480, Note_on_c, 14, 53, 58
16, 90539, Note_on_c, 14, 53, 0
16, 90560, Note_on_c, 14, 48, 60
16, 90619, Note_on_c, 14, 48, 0
16, 90640, Note_on_c, 14, 43, 62
16, 90699, Note_on_c, 14, 43, 0
16, 90720, Note_on_c, 14, 45, 72
16, 90779, Note_on_c, 14, 45, 0
16, 90800, Note_on_c, 14, 41, 66
16, 90859, Note_on_c, 14, 41, 0
16, 90880, Note_on_c, 14, 48, 68
16, 90939, Note_on_c, 14, 48, 0
16, 90960, Note_on_c, 14, 41, 52
16, 91019, Note_on_c, 14, 41, 0
16, 91040, Note_on_c, 14, 60, 52
16, 91099, Note_on_c, 14, 60, 0
16, 91120, Note_on_c, 14, 57, 52
16, 91179, Note_on_c, 14, 57, 0
16, 91200, Note_on_c, 14, 53, 52
16, 91259, Note_on_c, 14, 53, 0
16, 91280, Note_on_c, 14, 48, 52
16, 91339, Note_on_c, 14, 48, 0
16, 91360, Note_on_c, 14, 43, 51
16, 91419, Note_on_c, 14, 43, 0
16, 91440, Note_on_c, 14, 45, 51
16, 91499, Note_on_c, 14, 45, 0
16, 91520, Note_on_c, 14, 41, 50
16, 91579, Note_on_c, 14, 41, 0
16, 91600, Note_on_c, 14, 48, 50
16, 91659, Note_on_c, 14, 48, 0
16, 91680, Note_on_c, 14, 41, 49
16, 91739, Note_on_c, 14, 41, 0
16, 91760, Note_on_c, 14, 60, 49
16, 91819, Note_on_c, 14, 60, 0
16, 91840, Note_on_c, 14, 57, 48
16, 91899, Note_on_c, 14, 57, 0
16, 91920, Note_on_c, 14, 53, 48
16, 91979, Note_on_c, 14, 53, 0
16, 92000, Note_on_c, 14, 48, 47
16, 92059, Note_on_c, 14, 48, 0
16, 92080, Note_on_c, 14, 43, 47
16, 92139, Note_on_c, 14, 43, 0
16, 92160, Note_on_c, 14, 45, 46
16, 92219, Note_on_c, 14, 45, 0
16, 92240, Note_on_c, 14, 41, 46
16, 92299, Note_on_c, 14, 41, 0
16, 92320, Note_on_c, 14, 48, 45
16, 92379, Note_on_c, 14, 48, 0
16, 92400, Note_on_c, 14, 41, 44
16, 92459, Note_on_c, 14, 41, 0
16, 92480, Note_on_c, 14, 60, 44
16, 92539, Note_on_c, 14, 60, 0
16, 92560, Note_on_c, 14, 57, 44
16, 92619, Note_on_c, 14, 57, 0
16, 92640, Note_on_c, 14, 53, 44
16, 92699, Note_on_c, 14, 53, 0
16, 92720, Note_on_c, 14, 48, 44
16, 92779, Note_on_c, 14, 48, 0
16, 92800, Note_on_c, 14, 43, 44
16, 92859, Note_on_c, 14, 43, 0
16, 92880, Note_on_c, 14, 45, 44
16, 92939, Note_on_c, 14, 45, 0
16, 92960, Note_on_c, 14, 41, 44
16, 93019, Note_on_c, 14, 41, 0
16, 93040, Note_on_c, 14, 48, 44
16, 93099, Note_on_c, 14, 48, 0
16, 93120, Note_on_c, 14, 41, 44
16, 93179, Note_on_c, 14, 41, 0
16, 93200, Note_on_c, 14, 45, 44
16, 93259, Note_on_c, 14, 45, 0
16, 93280, Note_on_c, 14, 48, 44
16, 93339, Note_on_c, 14, 48, 0
16, 93360, Note_on_c, 14, 53, 44
16, 93479, Note_on_c, 14, 53, 0
16, 93600, Note_on_c, 14, 53, 76
16, 93719, Note_on_c, 14, 53, 0
16, 93720, Note_on_c, 14, 48, 76
16, 93824, Note_on_c, 14, 48, 0
16, 93840, Note_on_c, 14, 53, 84
16, 93959, Note_on_c, 14, 53, 0
16, 93960, Note_on_c, 14, 48, 76
16, 94079, Note_on_c, 14, 48, 0
16, 94080, Note_on_c, 14, 53, 84
16, 94199, Note_on_c, 14, 53, 0
16, 94200, Note_on_c, 14, 48, 76
16, 94304, Note_on_c, 14, 48, 0
16, 94320, Note_on_c, 14, 53, 84
16, 94439, Note_on_c, 14, 53, 0
16, 94440, Note_on_c, 14, 48, 76
16, 94544, Note_on_c, 14, 48, 0
16, 94560, Note_on_c, 14, 53, 84
16, 94679, Note_on_c, 14, 53, 0
16, 94680, Note_on_c, 14, 48, 76
16, 94799, Note_on_c, 14, 48, 0
16, 94800, Note_on_c, 14, 53, 84
16, 94919, Note_on_c, 14, 53, 0
16, 94920, Note_on_c, 14, 48, 76
16, 95024, Note_on_c, 14, 48, 0
16, 95040, Note_on_c, 14, 53, 52
16, 95159, Note_on_c, 14, 53, 0
16, 95160, Note_on_c, 14, 48, 52
16, 95279, Note_on_c, 14, 48, 0
16, 95280, Note_on_c, 14, 55, 52
16, 95399, Note_on_c, 14, 55, 0
16, 95400, Note_on_c, 14, 48, 52
16, 95519, Note_on_c, 14, 48, 0
16, 95520, Note_on_c, 14, 55, 52
16, 95639, Note_on_c, 14, 55, 0
16, 95640, Note_on_c, 14, 48, 52
16, 95759, Note_on_c, 14, 48, 0
16, 95760, Note_on_c, 14, 55, 52
16, 95879, Note_on_c, 14, 55, 0
16, 95880, Note_on_c, 14, 48, 52
16, 95984, Note_on_c, 14, 48, 0
16, 96000, Note_on_c, 14, 57, 52
16, 96119, Note_on_c, 14, 57, 0
16, 96120, Note_on_c, 14, 48, 52
16, 96239, Note_on_c, 14, 48, 0
16, 96240, Note_on_c, 14, 57, 52
16, 96359, Note_on_c, 14, 57, 0
16, 96360, Note_on_c, 14, 48, 52
16, 96464, Note_on_c, 14, 48, 0
16, 96480, Note_on_c, 14, 57, 52
16, 96599, Note_on_c, 14, 57, 0
16, 96600, Note_on_c, 14, 48, 54
16, 96719, Note_on_c, 14, 48, 0
16, 96720, Note_on_c, 14, 58, 56
16, 96839, Note_on_c, 14, 58, 0
16, 96840, Note_on_c, 14, 48, 58
16, 96959, Note_on_c, 14, 48, 0
16, 96960, Note_on_c, 14, 58, 60
16, 97079, Note_on_c, 14, 58, 0
16, 97080, Note_on_c, 14, 57, 62
16, 97199, Note_on_c, 14, 57, 0
16, 97200, Note_on_c, 14, 55, 64
16, 97319, Note_on_c, 14, 55, 0
16, 97320, Note_on_c, 14, 53, 66
16, 97439, Note_on_c, 14, 53, 0
16, 97440, Note_on_c, 14, 52, 68
16, 97559, Note_on_c, 14, 52, 0
16, 97560, Note_on_c, 14, 50, 70
16, 97679, Note_on_c, 14, 50, 0
16, 97680, Note_on_c, 14, 48, 72
16, 97799, Note_on_c, 14, 48, 0
16, 97800, Note_on_c, 14, 55, 74
16, 97904, Note_on_c, 14, 55, 0
16, 97920, Note_on_c, 14, 53, 76
16, 98039, Note_on_c, 14, 53, 0
16, 98040, Note_on_c, 14, 48, 76
16, 98144, Note_on_c, 14, 48, 0
16, 98160, Note_on_c, 14, 43, 76
16, 98279, Note_on_c, 14, 43, 0
16, 98280, Note_on_c, 14, 36, 76
16, 98399, Note_on_c, 14, 36, 0
16, 98400, Note_on_c, 14, 43, 76
16, 98519, Note_on_c, 14, 43, 0
16, 98520, Note_on_c, 14, 36, 76
16, 98639, Note_on_c, 14, 36, 0
16, 98640, Note_on_c, 14, 43, 76
16, 98759, Note_on_c, 14, 43, 0
16, 98760, Note_on_c, 14, 36, 76
16, 98864, Note_on_c, 14, 36, 0
16, 98880, Note_on_c, 14, 45, 76
16, 98999, Note_on_c, 14, 45, 0
16, 99000, Note_on_c, 14, 36, 76
16, 99119, Note_on_c, 14, 36, 0
16, 99120, Note_on_c, 14, 45, 76
16, 99239, Note_on_c, 14, 45, 0
16, 99240, Note_on_c, 14, 36, 76
16, 99344, Note_on_c, 14, 36, 0
16, 99360, Note_on_c, 14, 45, 76
16, 99479, Note_on_c, 14, 45, 0
16, 99480, Note_on_c, 14, 57, 76
16, 99599, Note_on_c, 14, 57, 0
16, 99600, Note_on_c, 14, 58, 76
16, 99719, Note_on_c, 14, 58, 0
16, 99720, Note_on_c, 14, 46, 76
16, 99839, Note_on_c, 14, 46, 0
16, 99840, Note_on_c, 14, 58, 76
16, 99959, Note_on_c, 14, 58, 0
16, 99960, Note_on_c, 14, 57, 76
16, 100079, Note_on_c, 14, 57, 0
16, 100080, Note_on_c, 14, 55, 76
16, 100184, Note_on_c, 14, 55, 0
16, 100200, Note_on_c, 14, 60, 76
16, 100304, Note_on_c, 14, 60, 0
16, 100320, Note_on_c, 14, 60, 76
16, 100439, Note_on_c, 14, 60, 0
16, 100440, Note_on_c, 14, 48, 76
16, 100559, Note_on_c, 14, 48, 0
16, 100560, Note_on_c, 14, 53, 76
16, 100679, Note_on_c, 14, 53, 0
16, 100800, Note_on_c, 14, 53, 76
16, 100919, Note_on_c, 14, 53, 0
16, 100920, Note_on_c, 14, 48, 76
16, 101024, Note_on_c, 14, 48, 0
16, 101040, Note_on_c, 14, 53, 84
16, 101159, Note_on_c, 14, 53, 0
16, 101160, Note_on_c, 14, 48, 76
16, 101279, Note_on_c, 14, 48, 0
16, 101280, Note_on_c, 14, 53, 84
16, 101399, Note_on_c, 14, 53, 0
16, 101400, Note_on_c, 14, 48, 76
16, 101504, Note_on_c, 14, 48, 0
16, 101520, Note_on_c, 14, 53, 84
16, 101639, Note_on_c, 14, 53, 0
16, 101640, Note_on_c, 14, 48, 76
16, 101744, Note_on_c, 14, 48, 0
16, 101760, Note_on_c, 14, 53, 84
16, 101879, Note_on_c, 14, 53, 0
16, 101880, Note_on_c, 14, 48, 76
16, 101999, Note_on_c, 14, 48, 0
16, 102000, Note_on_c, 14, 53, 84
16, 102119, Note_on_c, 14, 53, 0
16, 102120, Note_on_c, 14, 48, 76
16, 102224, Note_on_c, 14, 48, 0
16, 102240, Note_on_c, 14, 53, 52
16, 102359, Note_on_c, 14, 53, 0
16, 102360, Note_on_c, 14, 48, 52
16, 102479, Note_on_c, 14, 48, 0
16, 102480, Note_on_c, 14, 55, 52
16, 102599, Note_on_c, 14, 55, 0
16, 102600, Note_on_c, 14, 48, 52
16, 102719, Note_on_c, 14, 48, 0
16, 102720, Note_on_c, 14, 55, 52
16, 102839, Note_on_c, 14, 55, 0
16, 102840, Note_on_c, 14, 48, 52
16, 102959, Note_on_c, 14, 48, 0
16, 102960, Note_on_c, 14, 55, 52
16, 103079, Note_on_c, 14, 55, 0
16, 103080, Note_on_c, 14, 48, 52
16, 103184, Note_on_c, 14, 48, 0
16, 103200, Note_on_c, 14, 57, 52
16, 103319, Note_on_c, 14, 57, 0
16, 103320, Note_on_c, 14, 48, 52
16, 103439, Note_on_c, 14, 48, 0
16, 103440, Note_on_c, 14, 57, 52
16, 103559, Note_on_c, 14, 57, 0
16, 103560, Note_on_c, 14, 48, 52
16, 103664, Note_on_c, 14, 48, 0
16, 103680, Note_on_c, 14, 57, 52
16, 103799, Note_on_c, 14, 57, 0
16, 103800, Note_on_c, 14, 48, 54
16, 103919, Note_on_c, 14, 48, 0
16, 103920, Note_on_c, 14, 58, 56
16, 104039, Note_on_c, 14, 58, 0
16, 104040, Note_on_c, 14, 48, 58
16, 104159, Note_on_c, 14, 48, 0
16, 104160, Note_on_c, 14, 58, 60
16, 104279, Note_on_c, 14, 58, 0
16, 104280, Note_on_c, 14, 57, 62
16, 104399, Note_on_c, 14, 57, 0
16, 104400, Note_on_c, 14, 55, 64
16, 104519, Note_on_c, 14, 55, 0
16, 104520, Note_on_c, 14, 53, 66
16, 104639, Note_on_c, 14, 53, 0
16, 104640, Note_on_c, 14, 52, 68
16, 104759, Note_on_c, 14, 52, 0
16, 104760, Note_on_c, 14, 50, 70
16, 104879, Note_on_c, 14, 50, 0
16, 104880, Note_on_c, 14, 48, 72
16, 104999, Note_on_c, 14, 48, 0
16, 105000, Note_on_c, 14, 55, 74
16, 105104, Note_on_c, 14, 55, 0
16, 105120, Note_on_c, 14, 53, 76
16, 105239, Note_on_c, 14, 53, 0
16, 105240, Note_on_c, 14, 48, 76
16, 105344, Note_on_c, 14, 48, 0
16, 105360, Note_on_c, 14, 43, 76
16, 105479, Note_on_c, 14, 43, 0
16, 105480, Note_on_c, 14, 36, 76
16, 105599, Note_on_c, 14, 36, 0
16, 105600, Note_on_c, 14, 43, 76
16, 105719, Note_on_c, 14, 43, 0
16, 105720, Note_on_c, 14, 36, 76
16, 105839, Note_on_c, 14, 36, 0
16, 105840, Note_on_c, 14, 43, 76
16, 105959, Note_on_c, 14, 43, 0
16, 105960, Note_on_c, 14, 36, 76
16, 106064, Note_on_c, 14, 36, 0
16, 106080, Note_on_c, 14, 45, 76
16, 106199, Note_on_c, 14, 45, 0
16, 106200, Note_on_c, 14, 36, 76
16, 106319, Note_on_c, 14, 36, 0
16, 106320, Note_on_c, 14, 45, 76
16, 106439, Note_on_c, 14, 45, 0
16, 106440, Note_on_c, 14, 36, 76
16, 106544, Note_on_c, 14, 36, 0
16, 106560, Note_on_c, 14, 45, 76
16, 106679, Note_on_c, 14, 45, 0
16, 106680, Note_on_c, 14, 57, 76
16, 106799, Note_on_c, 14, 57, 0
16, 106800, Note_on_c, 14, 58, 76
16, 106919, Note_on_c, 14, 58, 0
16, 106920, Note_on_c, 14, 46, 76
16, 107039, Note_on_c, 14, 46, 0
16, 107040, Note_on_c, 14, 58, 76
16, 107159, Note_on_c, 14, 58, 0
16, 107160, Note_on_c, 14, 57, 76
16, 107279, Note_on_c, 14, 57, 0
16, 107280, Note_on_c, 14, 55, 76
16, 107384, Note_on_c, 14, 55, 0
16, 107400, Note_on_c, 14, 60, 76
16, 107504, Note_on_c, 14, 60, 0
16, 107520, Note_on_c, 14, 60, 76
16, 107639, Note_on_c, 14, 60, 0
16, 107640, Note_on_c, 14, 48, 76
16, 107759, Note_on_c, 14, 48, 0
16, 107760, Note_on_c, 14, 53, 76
16, 107864, Note_on_c, 14, 53, 0
16, 107880, Note_on_c, 14, 57, 76
16, 107999, Note_on_c, 14, 57, 0
16, 108000, Note_on_c, 14, 55, 76
16, 108119, Note_on_c, 14, 55, 0
16, 108120, Note_on_c, 14, 60, 76
16, 108224, Note_on_c, 14, 60, 0
16, 108240, Note_on_c, 14, 59, 76
16, 108359, Note_on_c, 14, 59, 0
16, 108360, Note_on_c, 14, 55, 76
16, 108479, Note_on_c, 14, 55, 0
16, 108480, Note_on_c, 14, 62, 76
16, 108599, Note_on_c, 14, 62, 0
16, 108600, Note_on_c, 14, 55, 76
16, 108719, Note_on_c, 14, 55, 0
16, 108720, Note_on_c, 14, 62, 76
16, 108839, Note_on_c, 14, 62, 0
16, 108840, Note_on_c, 14, 55, 76
16, 108944, Note_on_c, 14, 55, 0
16, 108960, Note_on_c, 14, 60, 76
16, 109079, Note_on_c, 14, 60, 0
16, 109080, Note_on_c, 14, 55, 76
16, 109199, Note_on_c, 14, 55, 0
16, 109200, Note_on_c, 14, 60, 76
16, 109319, Note_on_c, 14, 60, 0
16, 109320, Note_on_c, 14, 55, 76
16, 109424, Note_on_c, 14, 55, 0
16, 109440, Note_on_c, 14, 60, 76
16, 109559, Note_on_c, 14, 60, 0
16, 109680, Note_on_c, 14, 65, 84
16, 109739, Note_on_c, 14, 65, 0
16, 109740, Note_on_c, 14, 65, 76
16, 110039, Note_on_c, 14, 65, 0
16, 110040, Note_on_c, 14, 62, 76
16, 110159, Note_on_c, 14, 62, 0
16, 110160, Note_on_c, 14, 59, 76
16, 110279, Note_on_c, 14, 59, 0
16, 110280, Note_on_c, 14, 55, 76
16, 110384, Note_on_c, 14, 55, 0
16, 110400, Note_on_c, 14, 60, 84
16, 110459, Note_on_c, 14, 60, 0
16, 110460, Note_on_c, 14, 60, 76
16, 110759, Note_on_c, 14, 60, 0
16, 110760, Note_on_c, 14, 55, 76
16, 110879, Note_on_c, 14, 55, 0
16, 110880, Note_on_c, 14, 52, 76
16, 110999, Note_on_c, 14, 52, 0
16, 111000, Note_on_c, 14, 48, 76
16, 111104, Note_on_c, 14, 48, 0
16, 111120, Note_on_c, 14, 47, 84
16, 111239, Note_on_c, 14, 47, 0
16, 111240, Note_on_c, 14, 43, 76
16, 111359, Note_on_c, 14, 43, 0
16, 111360, Note_on_c, 14, 47, 76
16, 111479, Note_on_c, 14, 47, 0
16, 111480, Note_on_c, 14, 43, 76
16, 111599, Note_on_c, 14, 43, 0
16, 111600, Note_on_c, 14, 47, 76
16, 111719, Note_on_c, 14, 47, 0
16, 111720, Note_on_c, 14, 43, 76
16, 111824, Note_on_c, 14, 43, 0
16, 111840, Note_on_c, 14, 48, 84
16, 111959, Note_on_c, 14, 48, 0
16, 111960, Note_on_c, 14, 36, 76
16, 112079, Note_on_c, 14, 36, 0
16, 112080, Note_on_c, 14, 48, 76
16, 112199, Note_on_c, 14, 48, 0
16, 112200, Note_on_c, 14, 36, 76
16, 112319, Note_on_c, 14, 36, 0
16, 112320, Note_on_c, 14, 48, 76
16, 112439, Note_on_c, 14, 48, 0
16, 112440, Note_on_c, 14, 36, 76
16, 112544, Note_on_c, 14, 36, 0
16, 112560, Note_on_c, 14, 48, 84
16, 112679, Note_on_c, 14, 48, 0
16, 112680, Note_on_c, 14, 36, 76
16, 112799, Note_on_c, 14, 36, 0
16, 112800, Note_on_c, 14, 48, 76
16, 112919, Note_on_c, 14, 48, 0
16, 112920, Note_on_c, 14, 36, 76
16, 113039, Note_on_c, 14, 36, 0
16, 113040, Note_on_c, 14, 48, 76
16, 113159, Note_on_c, 14, 48, 0
16, 113160, Note_on_c, 14, 36, 76
16, 113264, Note_on_c, 14, 36, 0
16, 113280, Note_on_c, 14, 48, 84
16, 113399, Note_on_c, 14, 48, 0
16, 113400, Note_on_c, 14, 41, 76
16, 113519, Note_on_c, 14, 41, 0
16, 113520, Note_on_c, 14, 48, 76
16, 113639, Note_on_c, 14, 48, 0
16, 113640, Note_on_c, 14, 41, 76
16, 113759, Note_on_c, 14, 41, 0
16, 113760, Note_on_c, 14, 48, 76
16, 113879, Note_on_c, 14, 48, 0
16, 113880, Note_on_c, 14, 41, 76
16, 113984, Note_on_c, 14, 41, 0
16, 114000, Note_on_c, 14, 53, 76
16, 114119, Note_on_c, 14, 53, 0
16, 114180, Program_c, 14, 45
16, 114240, Note_on_c, 14, 53, 44
16, 114359, Note_on_c, 14, 53, 0
16, 114720, Note_on_c, 14, 53, 44
16, 114959, Note_on_c, 14, 53, 0
16, 114960, Note_on_c, 14, 53, 44
16, 115199, Note_on_c, 14, 53, 0
16, 115440, Note_on_c, 14, 53, 43
16, 115679, Note_on_c, 14, 53, 0
16, 115680, Note_on_c, 14, 53, 42
16, 115919, Note_on_c, 14, 53, 0
16, 116160, Note_on_c, 14, 53, 41
16, 116399, Note_on_c, 14, 53, 0
16, 116400, Note_on_c, 14, 53, 41
16, 116624, Note_on_c, 14, 53, 0
16, 116638, Program_c, 14, 48
16, 116640, Note_on_c, 14, 58, 44
16, 116759, Note_on_c, 14, 58, 0
16, 117120, Note_on_c, 14, 58, 44
16, 117239, Note_on_c, 14, 58, 0
16, 117600, Note_on_c, 14, 58, 44
16, 117719, Note_on_c, 14, 58, 0
16, 118080, Note_on_c, 14, 46, 44
16, 118199, Note_on_c, 14, 46, 0
16, 118200, Note_on_c, 14, 53, 44
16, 118319, Note_on_c, 14, 53, 0
16, 118320, Note_on_c, 14, 48, 44
16, 118439, Note_on_c, 14, 48, 0
16, 118440, Note_on_c, 14, 53, 44
16, 118559, Note_on_c, 14, 53, 0
16, 118560, Note_on_c, 14, 48, 44
16, 118679, Note_on_c, 14, 48, 0
16, 118680, Note_on_c, 14, 53, 44
16, 118799, Note_on_c, 14, 53, 0
16, 118800, Note_on_c, 14, 51, 44
16, 118919, Note_on_c, 14, 51, 0
16, 118920, Note_on_c, 14, 53, 44
16, 119024, Note_on_c, 14, 53, 0
16, 119040, Note_on_c, 14, 50, 44
16, 119159, Note_on_c, 14, 50, 0
16, 119160, Note_on_c, 14, 53, 44
16, 119279, Note_on_c, 14, 53, 0
16, 119280, Note_on_c, 14, 46, 44
16, 119399, Note_on_c, 14, 46, 0
16, 119400, Note_on_c, 14, 50, 44
16, 119519, Note_on_c, 14, 50, 0
16, 119520, Note_on_c, 14, 46, 44
16, 119639, Note_on_c, 14, 46, 0
16, 119640, Note_on_c, 14, 45, 44
16, 119759, Note_on_c, 14, 45, 0
16, 119760, Note_on_c, 14, 43, 44
16, 119879, Note_on_c, 14, 43, 0
16, 119880, Note_on_c, 14, 55, 44
16, 119984, Note_on_c, 14, 55, 0
16, 120000, Note_on_c, 14, 55, 44
16, 120119, Note_on_c, 14, 55, 0
16, 120120, Note_on_c, 14, 48, 44
16, 120239, Note_on_c, 14, 48, 0
16, 120240, Note_on_c, 14, 55, 44
16, 120359, Note_on_c, 14, 55, 0
16, 120360, Note_on_c, 14, 48, 44
16, 120479, Note_on_c, 14, 48, 0
16, 120480, Note_on_c, 14, 57, 44
16, 120599, Note_on_c, 14, 57, 0
16, 120600, Note_on_c, 14, 48, 44
16, 120719, Note_on_c, 14, 48, 0
16, 120720, Note_on_c, 14, 53, 44
16, 120839, Note_on_c, 14, 53, 0
16, 120840, Note_on_c, 14, 48, 44
16, 120944, Note_on_c, 14, 48, 0
16, 120960, Note_on_c, 14, 41, 44
16, 121079, Note_on_c, 14, 41, 0
16, 121080, Note_on_c, 14, 36, 45
16, 121199, Note_on_c, 14, 36, 0
16, 121200, Note_on_c, 14, 43, 47
16, 121319, Note_on_c, 14, 43, 0
16, 121320, Note_on_c, 14, 36, 49
16, 121439, Note_on_c, 14, 36, 0
16, 121440, Note_on_c, 14, 43, 50
16, 121559, Note_on_c, 14, 43, 0
16, 121560, Note_on_c, 14, 36, 52
16, 121664, Note_on_c, 14, 36, 0
16, 121680, Note_on_c, 14, 46, 54
16, 121799, Note_on_c, 14, 46, 0
16, 121800, Note_on_c, 14, 36, 55
16, 121919, Note_on_c, 14, 36, 0
16, 121920, Note_on_c, 14, 45, 57
16, 122039, Note_on_c, 14, 45, 0
16, 122040, Note_on_c, 14, 36, 59
16, 122159, Note_on_c, 14, 36, 0
16, 122160, Note_on_c, 14, 45, 60
16, 122279, Note_on_c, 14, 45, 0
16, 122280, Note_on_c, 14, 36, 62
16, 122399, Note_on_c, 14, 36, 0
16, 122400, Note_on_c, 14, 45, 64
16, 122519, Note_on_c, 14, 45, 0
16, 122520, Note_on_c, 14, 36, 65
16, 122639, Note_on_c, 14, 36, 0
16, 122640, Note_on_c, 14, 46, 67
16, 122759, Note_on_c, 14, 46, 0
16, 122760, Note_on_c, 14, 36, 69
16, 122879, Note_on_c, 14, 36, 0
16, 122880, Note_on_c, 14, 46, 70
16, 122999, Note_on_c, 14, 46, 0
16, 123000, Note_on_c, 14, 45, 72
16, 123119, Note_on_c, 14, 45, 0
16, 123120, Note_on_c, 14, 43, 74
16, 123224, Note_on_c, 14, 43, 0
16, 123240, Note_on_c, 14, 41, 76
16, 123344, Note_on_c, 14, 41, 0
16, 123360, Note_on_c, 14, 41, 80
16, 123479, Note_on_c, 14, 41, 0
16, 123480, Note_on_c, 14, 36, 80
16, 123599, Note_on_c, 14, 36, 0
16, 123600, Note_on_c, 14, 40, 80
16, 123719, Note_on_c, 14, 40, 0
16, 123720, Note_on_c, 14, 38, 80
16, 123839, Note_on_c, 14, 38, 0
16, 123840, Note_on_c, 14, 36, 80
16, 123944, Note_on_c, 14, 36, 0
16, 123960, Note_on_c, 14, 46, 80
16, 124064, Note_on_c, 14, 46, 0
16, 124080, Note_on_c, 14, 46, 80
16, 124199, Note_on_c, 14, 46, 0
16, 124200, Note_on_c, 14, 41, 80
16, 124319, Note_on_c, 14, 41, 0
16, 124320, Note_on_c, 14, 45, 80
16, 124439, Note_on_c, 14, 45, 0
16, 124440, Note_on_c, 14, 43, 80
16, 124559, Note_on_c, 14, 43, 0
16, 124560, Note_on_c, 14, 41, 80
16, 124664, Note_on_c, 14, 41, 0
16, 124680, Note_on_c, 14, 63, 84
16, 124784, Note_on_c, 14, 63, 0
16, 124800, Note_on_c, 14, 63, 84
16, 125039, Note_on_c, 14, 63, 0
16, 125040, Note_on_c, 14, 62, 84
16, 125159, Note_on_c, 14, 62, 0
16, 126120, Note_on_c, 14, 60, 84
16, 126224, Note_on_c, 14, 60, 0
16, 126240, Note_on_c, 14, 60, 84
16, 126479, Note_on_c, 14, 60, 0
16, 126480, Note_on_c, 14, 53, 84
16, 126599, Note_on_c, 14, 53, 0
16, 127560, Note_on_c, 14, 60, 84
16, 127664, Note_on_c, 14, 60, 0
16, 127680, Note_on_c, 14, 60, 84
16, 127919, Note_on_c, 14, 60, 0
16, 127920, Note_on_c, 14, 53, 84
16, 128039, Note_on_c, 14, 53, 0
16, 129000, Note_on_c, 14, 60, 84
16, 129104, Note_on_c, 14, 60, 0
16, 129120, Note_on_c, 14, 60, 84
16, 129359, Note_on_c, 14, 60, 0
16, 129360, Note_on_c, 14, 53, 84
16, 129479, Note_on_c, 14, 53, 0
16, 130080, Note_on_c, 14, 60, 84
16, 130319, Note_on_c, 14, 60, 0
16, 130320, Note_on_c, 14, 53, 84
16, 130439, Note_on_c, 14, 53, 0
16, 131040, Note_on_c, 14, 48, 92
16, 131099, Note_on_c, 14, 48, 0
16, 131100, Note_on_c, 14, 48, 84
16, 131279, Note_on_c, 14, 48, 0
16, 131280, Note_on_c, 14, 48, 84
16, 131999, Note_on_c, 14, 48, 0
16, 132000, Note_on_c, 14, 48, 84
16, 132239, Note_on_c, 14, 48, 0
16, 132240, Note_on_c, 14, 41, 84
16, 132344, Note_on_c, 14, 41, 0
16, 132360, Note_on_c, 14, 57, 84
16, 132479, Note_on_c, 14, 57, 0
16, 132480, Note_on_c, 14, 55, 84
16, 132599, Note_on_c, 14, 55, 0
16, 132600, Note_on_c, 14, 60, 84
16, 132704, Note_on_c, 14, 60, 0
16, 132720, Note_on_c, 14, 59, 76
16, 132839, Note_on_c, 14, 59, 0
16, 132840, Note_on_c, 14, 55, 76
16, 132959, Note_on_c, 14, 55, 0
16, 132960, Note_on_c, 14, 62, 76
16, 133079, Note_on_c, 14, 62, 0
16, 133080, Note_on_c, 14, 55, 76
16, 133199, Note_on_c, 14, 55, 0
16, 133200, Note_on_c, 14, 62, 76
16, 133319, Note_on_c, 14, 62, 0
16, 133320, Note_on_c, 14, 55, 76
16, 133424, Note_on_c, 14, 55, 0
16, 133440, Note_on_c, 14, 60, 76
16, 133559, Note_on_c, 14, 60, 0
16, 133560, Note_on_c, 14, 55, 76
16, 133679, Note_on_c, 14, 55, 0
16, 133680, Note_on_c, 14, 60, 76
16, 133799, Note_on_c, 14, 60, 0
16, 133800, Note_on_c, 14, 55, 76
16, 133904, Note_on_c, 14, 55, 0
16, 133920, Note_on_c, 14, 60, 76
16, 134039, Note_on_c, 14, 60, 0
16, 134160, Note_on_c, 14, 65, 84
16, 134219, Note_on_c, 14, 65, 0
16, 134220, Note_on_c, 14, 65, 76
16, 134519, Note_on_c, 14, 65, 0
16, 134520, Note_on_c, 14, 62, 76
16, 134639, Note_on_c, 14, 62, 0
16, 134640, Note_on_c, 14, 59, 76
16, 134759, Note_on_c, 14, 59, 0
16, 134760, Note_on_c, 14, 55, 76
16, 134864, Note_on_c, 14, 55, 0
16, 134880, Note_on_c, 14, 60, 84
16, 134939, Note_on_c, 14, 60, 0
16, 134940, Note_on_c, 14, 60, 76
16, 135239, Note_on_c, 14, 60, 0
16, 135240, Note_on_c, 14, 55, 76
16, 135359, Note_on_c, 14, 55, 0
16, 135360, Note_on_c, 14, 52, 76
16, 135479, Note_on_c, 14, 52, 0
16, 135480, Note_on_c, 14, 48, 76
16, 135584, Note_on_c, 14, 48, 0
16, 135600, Note_on_c, 14, 47, 84
16, 135719, Note_on_c, 14, 47, 0
16, 135720, Note_on_c, 14, 43, 76
16, 135839, Note_on_c, 14, 43, 0
16, 135840, Note_on_c, 14, 47, 76
16, 135959, Note_on_c, 14, 47, 0
16, 135960, Note_on_c, 14, 43, 76
16, 136079, Note_on_c, 14, 43, 0
16, 136080, Note_on_c, 14, 47, 76
16, 136199, Note_on_c, 14, 47, 0
16, 136200, Note_on_c, 14, 43, 76
16, 136304, Note_on_c, 14, 43, 0
16, 136320, Note_on_c, 14, 48, 84
16, 136439, Note_on_c, 14, 48, 0
16, 136440, Note_on_c, 14, 36, 76
16, 136559, Note_on_c, 14, 36, 0
16, 136560, Note_on_c, 14, 48, 76
16, 136679, Note_on_c, 14, 48, 0
16, 136680, Note_on_c, 14, 36, 76
16, 136799, Note_on_c, 14, 36, 0
16, 136800, Note_on_c, 14, 48, 76
16, 136919, Note_on_c, 14, 48, 0
16, 136920, Note_on_c, 14, 36, 76
16, 137024, Note_on_c, 14, 36, 0
16, 137040, Note_on_c, 14, 48, 84
16, 137159, Note_on_c, 14, 48, 0
16, 137160, Note_on_c, 14, 36, 76
16, 137279, Note_on_c, 14, 36, 0
16, 137280, Note_on_c, 14, 48, 76
16, 137399, Note_on_c, 14, 48, 0
16, 137400, Note_on_c, 14, 36, 76
16, 137519, Note_on_c, 14, 36, 0
16, 137520, Note_on_c, 14, 48, 76
16, 137639, Note_on_c, 14, 48, 0
16, 137640, Note_on_c, 14, 36, 76
16, 137744, Note_on_c, 14, 36, 0
16, 137760, Note_on_c, 14, 48, 84
16, 137879, Note_on_c, 14, 48, 0
16, 137880, Note_on_c, 14, 41, 76
16, 137999, Note_on_c, 14, 41, 0
16, 138000, Note_on_c, 14, 48, 76
16, 138119, Note_on_c, 14, 48, 0
16, 138120, Note_on_c, 14, 41, 76
16, 138239, Note_on_c, 14, 41, 0
16, 138240, Note_on_c, 14, 48, 76
16, 138359, Note_on_c, 14, 48, 0
16, 138360, Note_on_c, 14, 41, 76
16, 138464, Note_on_c, 14, 41, 0
16, 138480, Note_on_c, 14, 53, 76
16, 138599, Note_on_c, 14, 53, 0
16, 138660, Program_c, 14, 45
16, 138720, Note_on_c, 14, 53, 44
16, 138839, Note_on_c, 14, 53, 0
16, 139200, Note_on_c, 14, 53, 44
16, 139439, Note_on_c, 14, 53, 0
16, 139440, Note_on_c, 14, 53, 44
16, 139679, Note_on_c, 14, 53, 0
16, 139920, Note_on_c, 14, 53, 43
16, 140159, Note_on_c, 14, 53, 0
16, 140160, Note_on_c, 14, 53, 42
16, 140399, Note_on_c, 14, 53, 0
16, 140640, Note_on_c, 14, 53, 41
16, 140879, Note_on_c, 14, 53, 0
16, 140880, Note_on_c, 14, 53, 41
16, 141104, Note_on_c, 14, 53, 0
16, 141118, Program_c, 14, 48
16, 141120, Note_on_c, 14, 58, 44
16, 141239, Note_on_c, 14, 58, 0
16, 141600, Note_on_c, 14, 58, 44
16, 141719, Note_on_c, 14, 58, 0
16, 142080, Note_on_c, 14, 58, 44
16, 142199, Note_on_c, 14, 58, 0
16, 142560, Note_on_c, 14, 46, 44
16, 142679, Note_on_c, 14, 46, 0
16, 142680, Note_on_c, 14, 53, 44
16, 142799, Note_on_c, 14, 53, 0
16, 142800, Note_on_c, 14, 48, 44
16, 142919, Note_on_c, 14, 48, 0
16, 142920, Note_on_c, 14, 53, 44
16, 143039, Note_on_c, 14, 53, 0
16, 143040, Note_on_c, 14, 48, 44
16, 143159, Note_on_c, 14, 48, 0
16, 143160, Note_on_c, 14, 53, 44
16, 143279, Note_on_c, 14, 53, 0
16, 143280, Note_on_c, 14, 51, 44
16, 143399, Note_on_c, 14, 51, 0
16, 143400, Note_on_c, 14, 53, 44
16, 143504, Note_on_c, 14, 53, 0
16, 143520, Note_on_c, 14, 50, 44
16, 143639, Note_on_c, 14, 50, 0
16, 143640, Note_on_c, 14, 53, 44
16, 143759, Note_on_c, 14, 53, 0
16, 143760, Note_on_c, 14, 46, 44
16, 143879, Note_on_c, 14, 46, 0
16, 143880, Note_on_c, 14, 50, 44
16, 143999, Note_on_c, 14, 50, 0
16, 144000, Note_on_c, 14, 46, 44
16, 144119, Note_on_c, 14, 46, 0
16, 144120, Note_on_c, 14, 45, 44
16, 144239, Note_on_c, 14, 45, 0
16, 144240, Note_on_c, 14, 43, 44
16, 144359, Note_on_c, 14, 43, 0
16, 144360, Note_on_c, 14, 55, 44
16, 144464, Note_on_c, 14, 55, 0
16, 144480, Note_on_c, 14, 55, 44
16, 144599, Note_on_c, 14, 55, 0
16, 144600, Note_on_c, 14, 48, 44
16, 144719, Note_on_c, 14, 48, 0
16, 144720, Note_on_c, 14, 55, 44
16, 144839, Note_on_c, 14, 55, 0
16, 144840, Note_on_c, 14, 48, 44
16, 144959, Note_on_c, 14, 48, 0
16, 144960, Note_on_c, 14, 57, 44
16, 145079, Note_on_c, 14, 57, 0
16, 145080, Note_on_c, 14, 48, 44
16, 145199, Note_on_c, 14, 48, 0
16, 145200, Note_on_c, 14, 53, 44
16, 145319, Note_on_c, 14, 53, 0
16, 145320, Note_on_c, 14, 48, 44
16, 145424, Note_on_c, 14, 48, 0
16, 145440, Note_on_c, 14, 41, 44
16, 145559, Note_on_c, 14, 41, 0
16, 145560, Note_on_c, 14, 36, 45
16, 145679, Note_on_c, 14, 36, 0
16, 145680, Note_on_c, 14, 43, 47
16, 145799, Note_on_c, 14, 43, 0
16, 145800, Note_on_c, 14, 36, 49
16, 145919, Note_on_c, 14, 36, 0
16, 145920, Note_on_c, 14, 43, 50
16, 146039, Note_on_c, 14, 43, 0
16, 146040, Note_on_c, 14, 36, 52
16, 146144, Note_on_c, 14, 36, 0
16, 146160, Note_on_c, 14, 46, 54
16, 146279, Note_on_c, 14, 46, 0
16, 146280, Note_on_c, 14, 36, 55
16, 146399, Note_on_c, 14, 36, 0
16, 146400, Note_on_c, 14, 45, 57
16, 146519, Note_on_c, 14, 45, 0
16, 146520, Note_on_c, 14, 36, 59
16, 146639, Note_on_c, 14, 36, 0
16, 146640, Note_on_c, 14, 45, 60
16, 146759, Note_on_c, 14, 45, 0
16, 146760, Note_on_c, 14, 36, 62
16, 146879, Note_on_c, 14, 36, 0
16, 146880, Note_on_c, 14, 45, 64
16, 146999, Note_on_c, 14, 45, 0
16, 147000, Note_on_c, 14, 36, 65
16, 147119, Note_on_c, 14, 36, 0
16, 147120, Note_on_c, 14, 46, 67
16, 147239, Note_on_c, 14, 46, 0
16, 147240, Note_on_c, 14, 36, 69
16, 147359, Note_on_c, 14, 36, 0
16, 147360, Note_on_c, 14, 46, 70
16, 147479, Note_on_c, 14, 46, 0
16, 147480, Note_on_c, 14, 45, 72
16, 147599, Note_on_c, 14, 45, 0
16, 147600, Note_on_c, 14, 43, 74
16, 147704, Note_on_c, 14, 43, 0
16, 147720, Note_on_c, 14, 41, 76
16, 147824, Note_on_c, 14, 41, 0
16, 147840, Note_on_c, 14, 41, 80
16, 147959, Note_on_c, 14, 41, 0
16, 147960, Note_on_c, 14, 36, 80
16, 148079, Note_on_c, 14, 36, 0
16, 148080, Note_on_c, 14, 40, 80
16, 148199, Note_on_c, 14, 40, 0
16, 148200, Note_on_c, 14, 38, 80
16, 148319, Note_on_c, 14, 38, 0
16, 148320, Note_on_c, 14, 36, 80
16, 148424, Note_on_c, 14, 36, 0
16, 148440, Note_on_c, 14, 46, 80
16, 148544, Note_on_c, 14, 46, 0
16, 148560, Note_on_c, 14, 46, 80
16, 148679, Note_on_c, 14, 46, 0
16, 148680, Note_on_c, 14, 41, 80
16, 148799, Note_on_c, 14, 41, 0
16, 148800, Note_on_c, 14, 45, 80
16, 148919, Note_on_c, 14, 45, 0
16, 148920, Note_on_c, 14, 43, 80
16, 149039, Note_on_c, 14, 43, 0
16, 149040, Note_on_c, 14, 41, 80
16, 149144, Note_on_c, 14, 41, 0
16, 149160, Note_on_c, 14, 63, 84
16, 149264, Note_on_c, 14, 63, 0
16, 149280, Note_on_c, 14, 63, 84
16, 149519, Note_on_c, 14, 63, 0
16, 149520, Note_on_c, 14, 62, 84
16, 149639, Note_on_c, 14, 62, 0
16, 150600, Note_on_c, 14, 60, 84
16, 150704, Note_on_c, 14, 60, 0
16, 150720, Note_on_c, 14, 60, 84
16, 150959, Note_on_c, 14, 60, 0
16, 150960, Note_on_c, 14, 53, 84
16, 151079, Note_on_c, 14, 53, 0
16, 152040, Note_on_c, 14, 60, 84
16, 152144, Note_on_c, 14, 60, 0
16, 152160, Note_on_c, 14, 60, 84
16, 152399, Note_on_c, 14, 60, 0
16, 152400, Note_on_c, 14, 53, 84
16, 152519, Note_on_c, 14, 53, 0
16, 153480, Note_on_c, 14, 60, 84
16, 153584, Note_on_c, 14, 60, 0
16, 153600, Note_on_c, 14, 60, 84
16, 153839, Note_on_c, 14, 60, 0
16, 153840, Note_on_c, 14, 53, 84
16, 153959, Note_on_c, 14, 53, 0
16, 154560, Note_on_c, 14, 60, 84
16, 154799, Note_on_c, 14, 60, 0
16, 154800, Note_on_c, 14, 53, 84
16, 154919, Note_on_c, 14, 53, 0
16, 155520, Note_on_c, 14, 48, 92
16, 155579, Note_on_c, 14, 48, 0
16, 155580, Note_on_c, 14, 48, 84
16, 155759, Note_on_c, 14, 48, 0
16, 155760, Note_on_c, 14, 48, 84
16, 156479, Note_on_c, 14, 48, 0
16, 156480, Note_on_c, 14, 48, 84
16, 156719, Note_on_c, 14, 48, 0
16, 156720, Note_on_c, 14, 41, 84
16, 156839, Note_on_c, 14, 41, 0
16, 156839, End_track
17, 0, Start_track
17, 0, Title_t, "Contrabass"
17, 0, MIDI_port, 0
17, 0, Program_c, 15, 48
17, 0, Control_c, 15, 7, 88
17, 0, Control_c, 15, 10, 100
17, 0, Control_c, 15, 11, 127
17, 2880, Note_on_c, 15, 45, 52
17, 2999, Note_on_c, 15, 45, 0
17, 3120, Note_on_c, 15, 46, 56
17, 3479, Note_on_c, 15, 46, 0
17, 3480, Note_on_c, 15, 45, 62
17, 3599, Note_on_c, 15, 45, 0
17, 3600, Note_on_c, 15, 43, 64
17, 3719, Note_on_c, 15, 43, 0
17, 3720, Note_on_c, 15, 41, 66
17, 3839, Note_on_c, 15, 41, 0
17, 3840, Note_on_c, 15, 40, 68
17, 3959, Note_on_c, 15, 40, 0
17, 3960, Note_on_c, 15, 38, 70
17, 4079, Note_on_c, 15, 38, 0
17, 4080, Note_on_c, 15, 36, 72
17, 4199, Note_on_c, 15, 36, 0
17, 4200, Note_on_c, 15, 43, 74
17, 4304, Note_on_c, 15, 43, 0
17, 4320, Note_on_c, 15, 41, 76
17, 4439, Note_on_c, 15, 41, 0
17, 4440, Note_on_c, 15, 36, 76
17, 4544, Note_on_c, 15, 36, 0
17, 4560, Note_on_c, 15, 43, 76
17, 4679, Note_on_c, 15, 43, 0
17, 4680, Note_on_c, 15, 36, 76
17, 4799, Note_on_c, 15, 36, 0
17, 4800, Note_on_c, 15, 43, 76
17, 4919, Note_on_c, 15, 43, 0
17, 4920, Note_on_c, 15, 36, 76
17, 5039, Note_on_c, 15, 36, 0
17, 5040, Note_on_c, 15, 43, 76
17, 5159, Note_on_c, 15, 43, 0
17, 5160, Note_on_c, 15, 36, 76
17, 5264, Note_on_c, 15, 36, 0
17, 5280, Note_on_c, 15, 45, 76
17, 5399, Note_on_c, 15, 45, 0
17, 5400, Note_on_c, 15, 36, 76
17, 5519, Note_on_c, 15, 36, 0
17, 5520, Note_on_c, 15, 45, 76
17, 5639, Note_on_c, 15, 45, 0
17, 5640, Note_on_c, 15, 36, 76
17, 5759, Note_on_c, 15, 36, 0
17, 5760, Note_on_c, 15, 45, 76
17, 5864, Note_on_c, 15, 45, 0
17, 5880, Note_on_c, 15, 45, 76
17, 5999, Note_on_c, 15, 45, 0
17, 6000, Note_on_c, 15, 46, 76
17, 6119, Note_on_c, 15, 46, 0
17, 6120, Note_on_c, 15, 34, 76
17, 6239, Note_on_c, 15, 34, 0
17, 6240, Note_on_c, 15, 46, 76
17, 6359, Note_on_c, 15, 46, 0
17, 6360, Note_on_c, 15, 45, 76
17, 6479, Note_on_c, 15, 45, 0
17, 6480, Note_on_c, 15, 43, 76
17, 6584, Note_on_c, 15, 43, 0
17, 6600, Note_on_c, 15, 48, 76
17, 6704, Note_on_c, 15, 48, 0
17, 6720, Note_on_c, 15, 48, 76
17, 6839, Note_on_c, 15, 48, 0
17, 6840, Note_on_c, 15, 36, 76
17, 6959, Note_on_c, 15, 36, 0
17, 6960, Note_on_c, 15, 41, 76
17, 7079, Note_on_c, 15, 41, 0
17, 10080, Note_on_c, 15, 45, 52
17, 10199, Note_on_c, 15, 45, 0
17, 10320, Note_on_c, 15, 46, 56
17, 10679, Note_on_c, 15, 46, 0
17, 10680, Note_on_c, 15, 45, 62
17, 10799, Note_on_c, 15, 45, 0
17, 10800, Note_on_c, 15, 43, 64
17, 10919, Note_on_c, 15, 43, 0
17, 10920, Note_on_c, 15, 41, 66
17, 11039, Note_on_c, 15, 41, 0
17, 11040, Note_on_c, 15, 40, 68
17, 11159, Note_on_c, 15, 40, 0
17, 11160, Note_on_c, 15, 38, 70
17, 11279, Note_on_c, 15, 38, 0
17, 11280, Note_on_c, 15, 36, 72
17, 11399, Note_on_c, 15, 36, 0
17, 11400, Note_on_c, 15, 43, 74
17, 11504, Note_on_c, 15, 43, 0
17, 11520, Note_on_c, 15, 41, 76
17, 11639, Note_on_c, 15, 41, 0
17, 11640, Note_on_c, 15, 36, 76
17, 11744, Note_on_c, 15, 36, 0
17, 11760, Note_on_c, 15, 43, 76
17, 11879, Note_on_c, 15, 43, 0
17, 11880, Note_on_c, 15, 36, 76
17, 11999, Note_on_c, 15, 36, 0
17, 12000, Note_on_c, 15, 43, 76
17, 12119, Note_on_c, 15, 43, 0
17, 12120, Note_on_c, 15, 36, 76
17, 12239, Note_on_c, 15, 36, 0
17, 12240, Note_on_c, 15, 43, 76
17, 12359, Note_on_c, 15, 43, 0
17, 12360, Note_on_c, 15, 36, 76
17, 12464, Note_on_c, 15, 36, 0
17, 12480, Note_on_c, 15, 45, 76
17, 12599, Note_on_c, 15, 45, 0
17, 12600, Note_on_c, 15, 36, 76
17, 12719, Note_on_c, 15, 36, 0
17, 12720, Note_on_c, 15, 45, 76
17, 12839, Note_on_c, 15, 45, 0
17, 12840, Note_on_c, 15, 36, 76
17, 12959, Note_on_c, 15, 36, 0
17, 12960, Note_on_c, 15, 45, 76
17, 13064, Note_on_c, 15, 45, 0
17, 13080, Note_on_c, 15, 45, 76
17, 13199, Note_on_c, 15, 45, 0
17, 13200, Note_on_c, 15, 46, 76
17, 13319, Note_on_c, 15, 46, 0
17, 13320, Note_on_c, 15, 34, 76
17, 13439, Note_on_c, 15, 34, 0
17, 13440, Note_on_c, 15, 46, 76
17, 13559, Note_on_c, 15, 46, 0
17, 13560, Note_on_c, 15, 45, 76
17, 13679, Note_on_c, 15, 45, 0
17, 13680, Note_on_c, 15, 43, 76
17, 13784, Note_on_c, 15, 43, 0
17, 13800, Note_on_c, 15, 48, 76
17, 13904, Note_on_c, 15, 48, 0
17, 13920, Note_on_c, 15, 48, 76
17, 14039, Note_on_c, 15, 48, 0
17, 14040, Note_on_c, 15, 36, 76
17, 14159, Note_on_c, 15, 36, 0
17, 14160, Note_on_c, 15, 41, 76
17, 14264, Note_on_c, 15, 41, 0
17, 14280, Note_on_c, 15, 45, 76
17, 14399, Note_on_c, 15, 45, 0
17, 14400, Note_on_c, 15, 43, 76
17, 14519, Note_on_c, 15, 43, 0
17, 14520, Note_on_c, 15, 48, 76
17, 14624, Note_on_c, 15, 48, 0
17, 14640, Note_on_c, 15, 47, 76
17, 14759, Note_on_c, 15, 47, 0
17, 14880, Note_on_c, 15, 50, 84
17, 14999, Note_on_c, 15, 50, 0
17, 15600, Note_on_c, 15, 48, 84
17, 15719, Note_on_c, 15, 48, 0
17, 16320, Note_on_c, 15, 47, 76
17, 16439, Note_on_c, 15, 47, 0
17, 16560, Note_on_c, 15, 43, 76
17, 16679, Note_on_c, 15, 43, 0
17, 16800, Note_on_c, 15, 48, 84
17, 16859, Note_on_c, 15, 48, 0
17, 16860, Note_on_c, 15, 48, 76
17, 17159, Note_on_c, 15, 48, 0
17, 17160, Note_on_c, 15, 43, 76
17, 17279, Note_on_c, 15, 43, 0
17, 17280, Note_on_c, 15, 40, 76
17, 17399, Note_on_c, 15, 40, 0
17, 17400, Note_on_c, 15, 36, 76
17, 17504, Note_on_c, 15, 36, 0
17, 17520, Note_on_c, 15, 35, 84
17, 17639, Note_on_c, 15, 35, 0
17, 17640, Note_on_c, 15, 43, 76
17, 17759, Note_on_c, 15, 43, 0
17, 17760, Note_on_c, 15, 47, 76
17, 17879, Note_on_c, 15, 47, 0
17, 17880, Note_on_c, 15, 43, 76
17, 17999, Note_on_c, 15, 43, 0
17, 18000, Note_on_c, 15, 47, 76
17, 18119, Note_on_c, 15, 47, 0
17, 18120, Note_on_c, 15, 43, 76
17, 18224, Note_on_c, 15, 43, 0
17, 18240, Note_on_c, 15, 48, 84
17, 18359, Note_on_c, 15, 48, 0
17, 18360, Note_on_c, 15, 36, 76
17, 18479, Note_on_c, 15, 36, 0
17, 18480, Note_on_c, 15, 48, 76
17, 18599, Note_on_c, 15, 48, 0
17, 18600, Note_on_c, 15, 36, 76
17, 18719, Note_on_c, 15, 36, 0
17, 18720, Note_on_c, 15, 48, 76
17, 18839, Note_on_c, 15, 48, 0
17, 18840, Note_on_c, 15, 36, 76
17, 18944, Note_on_c, 15, 36, 0
17, 18960, Note_on_c, 15, 48, 84
17, 19079, Note_on_c, 15, 48, 0
17, 19080, Note_on_c, 15, 36, 76
17, 19199, Note_on_c, 15, 36, 0
17, 19200, Note_on_c, 15, 48, 76
17, 19319, Note_on_c, 15, 48, 0
17, 19320, Note_on_c, 15, 36, 76
17, 19439, Note_on_c, 15, 36, 0
17, 19440, Note_on_c, 15, 48, 76
17, 19559, Note_on_c, 15, 48, 0
17, 19560, Note_on_c, 15, 36, 76
17, 19664, Note_on_c, 15, 36, 0
17, 19680, Note_on_c, 15, 48, 84
17, 19799, Note_on_c, 15, 48, 0
17, 19800, Note_on_c, 15, 41, 76
17, 19919, Note_on_c, 15, 41, 0
17, 19920, Note_on_c, 15, 48, 76
17, 20039, Note_on_c, 15, 48, 0
17, 20040, Note_on_c, 15, 41, 76
17, 20159, Note_on_c, 15, 41, 0
17, 20160, Note_on_c, 15, 48, 76
17, 20279, Note_on_c, 15, 48, 0
17, 20280, Note_on_c, 15, 41, 76
17, 20384, Note_on_c, 15, 41, 0
17, 20400, Note_on_c, 15, 41, 76
17, 20519, Note_on_c, 15, 41, 0
17, 20580, Program_c, 15, 45
17, 20640, Note_on_c, 15, 41, 44
17, 20759, Note_on_c, 15, 41, 0
17, 21120, Note_on_c, 15, 41, 44
17, 21359, Note_on_c, 15, 41, 0
17, 21360, Note_on_c, 15, 41, 44
17, 21599, Note_on_c, 15, 41, 0
17, 21840, Note_on_c, 15, 41, 43
17, 22079, Note_on_c, 15, 41, 0
17, 22080, Note_on_c, 15, 41, 42
17, 22319, Note_on_c, 15, 41, 0
17, 22560, Note_on_c, 15, 41, 41
17, 22799, Note_on_c, 15, 41, 0
17, 22800, Note_on_c, 15, 41, 41
17, 23039, Note_on_c, 15, 41, 0
17, 23040, Program_c, 15, 48
17, 23040, Note_on_c, 15, 46, 40
17, 23159, Note_on_c, 15, 46, 0
17, 23520, Note_on_c, 15, 46, 44
17, 23639, Note_on_c, 15, 46, 0
17, 24000, Note_on_c, 15, 46, 44
17, 24119, Note_on_c, 15, 46, 0
17, 24240, Program_c, 15, 45
17, 24480, Note_on_c, 15, 34, 40
17, 24719, Note_on_c, 15, 34, 0
17, 24720, Note_on_c, 15, 36, 40
17, 24959, Note_on_c, 15, 36, 0
17, 24960, Note_on_c, 15, 36, 40
17, 25199, Note_on_c, 15, 36, 0
17, 25200, Note_on_c, 15, 39, 40
17, 25439, Note_on_c, 15, 39, 0
17, 25440, Note_on_c, 15, 38, 40
17, 25679, Note_on_c, 15, 38, 0
17, 25680, Note_on_c, 15, 34, 40
17, 25919, Note_on_c, 15, 34, 0
17, 25920, Note_on_c, 15, 34, 40
17, 26039, Note_on_c, 15, 34, 0
17, 26040, Note_on_c, 15, 33, 40
17, 26159, Note_on_c, 15, 33, 0
17, 26160, Note_on_c, 15, 31, 40
17, 26399, Note_on_c, 15, 31, 0
17, 26400, Note_on_c, 15, 43, 40
17, 26639, Note_on_c, 15, 43, 0
17, 26640, Note_on_c, 15, 36, 40
17, 26879, Note_on_c, 15, 36, 0
17, 26880, Note_on_c, 15, 41, 40
17, 27119, Note_on_c, 15, 41, 0
17, 27120, Program_c, 15, 48
17, 27360, Note_on_c, 15, 41, 44
17, 27479, Note_on_c, 15, 41, 0
17, 27480, Note_on_c, 15, 36, 45
17, 27599, Note_on_c, 15, 36, 0
17, 27600, Note_on_c, 15, 43, 47
17, 27719, Note_on_c, 15, 43, 0
17, 27720, Note_on_c, 15, 36, 49
17, 27839, Note_on_c, 15, 36, 0
17, 27840, Note_on_c, 15, 43, 50
17, 27959, Note_on_c, 15, 43, 0
17, 27960, Note_on_c, 15, 36, 52
17, 28064, Note_on_c, 15, 36, 0
17, 28080, Note_on_c, 15, 46, 54
17, 28199, Note_on_c, 15, 46, 0
17, 28200, Note_on_c, 15, 36, 55
17, 28319, Note_on_c, 15, 36, 0
17, 28320, Note_on_c, 15, 45, 57
17, 28439, Note_on_c, 15, 45, 0
17, 28440, Note_on_c, 15, 36, 59
17, 28559, Note_on_c, 15, 36, 0
17, 28560, Note_on_c, 15, 45, 60
17, 28679, Note_on_c, 15, 45, 0
17, 28680, Note_on_c, 15, 36, 62
17, 28799, Note_on_c, 15, 36, 0
17, 28800, Note_on_c, 15, 45, 64
17, 28919, Note_on_c, 15, 45, 0
17, 28920, Note_on_c, 15, 36, 65
17, 29039, Note_on_c, 15, 36, 0
17, 29040, Note_on_c, 15, 46, 67
17, 29159, Note_on_c, 15, 46, 0
17, 29160, Note_on_c, 15, 36, 69
17, 29279, Note_on_c, 15, 36, 0
17, 29280, Note_on_c, 15, 46, 70
17, 29399, Note_on_c, 15, 46, 0
17, 29400, Note_on_c, 15, 45, 72
17, 29519, Note_on_c, 15, 45, 0
17, 29520, Note_on_c, 15, 43, 74
17, 29624, Note_on_c, 15, 43, 0
17, 29640, Note_on_c, 15, 41, 76
17, 29744, Note_on_c, 15, 41, 0
17, 29760, Note_on_c, 15, 41, 80
17, 29879, Note_on_c, 15, 41, 0
17, 29880, Note_on_c, 15, 36, 80
17, 29999, Note_on_c, 15, 36, 0
17, 30000, Note_on_c, 15, 40, 80
17, 30119, Note_on_c, 15, 40, 0
17, 30120, Note_on_c, 15, 38, 80
17, 30239, Note_on_c, 15, 38, 0
17, 30240, Note_on_c, 15, 36, 80
17, 30344, Note_on_c, 15, 36, 0
17, 30360, Note_on_c, 15, 46, 80
17, 30464, Note_on_c, 15, 46, 0
17, 30480, Note_on_c, 15, 46, 80
17, 30599, Note_on_c, 15, 46, 0
17, 30600, Note_on_c, 15, 41, 80
17, 30719, Note_on_c, 15, 41, 0
17, 30720, Note_on_c, 15, 45, 80
17, 30839, Note_on_c, 15, 45, 0
17, 30840, Note_on_c, 15, 43, 80
17, 30959, Note_on_c, 15, 43, 0
17, 30960, Note_on_c, 15, 41, 80
17, 31064, Note_on_c, 15, 41, 0
17, 31080, Note_on_c, 15, 51, 84
17, 31184, Note_on_c, 15, 51, 0
17, 31200, Note_on_c, 15, 51, 84
17, 31439, Note_on_c, 15, 51, 0
17, 31440, Note_on_c, 15, 50, 84
17, 31559, Note_on_c, 15, 50, 0
17, 32520, Note_on_c, 15, 48, 84
17, 32624, Note_on_c, 15, 48, 0
17, 32640, Note_on_c, 15, 48, 84
17, 32879, Note_on_c, 15, 48, 0
17, 32880, Note_on_c, 15, 41, 84
17, 32999, Note_on_c, 15, 41, 0
17, 33960, Note_on_c, 15, 48, 84
17, 34064, Note_on_c, 15, 48, 0
17, 34080, Note_on_c, 15, 48, 84
17, 34319, Note_on_c, 15, 48, 0
17, 34320, Note_on_c, 15, 41, 84
17, 34439, Note_on_c, 15, 41, 0
17, 35400, Note_on_c, 15, 48, 84
17, 35504, Note_on_c, 15, 48, 0
17, 35520, Note_on_c, 15, 48, 84
17, 35759, Note_on_c, 15, 48, 0
17, 35760, Note_on_c, 15, 41, 84
17, 35879, Note_on_c, 15, 41, 0
17, 36480, Note_on_c, 15, 48, 84
17, 36719, Note_on_c, 15, 48, 0
17, 36720, Note_on_c, 15, 41, 84
17, 36839, Note_on_c, 15, 41, 0
17, 37440, Note_on_c, 15, 36, 92
17, 37499, Note_on_c, 15, 36, 0
17, 37500, Note_on_c, 15, 36, 84
17, 37679, Note_on_c, 15, 36, 0
17, 37680, Note_on_c, 15, 36, 84
17, 38399, Note_on_c, 15, 36, 0
17, 38400, Note_on_c, 15, 36, 84
17, 38639, Note_on_c, 15, 36, 0
17, 38640, Note_on_c, 15, 29, 84
17, 38744, Note_on_c, 15, 29, 0
17, 38760, Note_on_c, 15, 45, 84
17, 38879, Note_on_c, 15, 45, 0
17, 38880, Note_on_c, 15, 43, 84
17, 38999, Note_on_c, 15, 43, 0
17, 39000, Note_on_c, 15, 48, 84
17, 39104, Note_on_c, 15, 48, 0
17, 39120, Note_on_c, 15, 47, 76
17, 39239, Note_on_c, 15, 47, 0
17, 39360, Note_on_c, 15, 50, 84
17, 39479, Note_on_c, 15, 50, 0
17, 40080, Note_on_c, 15, 48, 84
17, 40199, Note_on_c, 15, 48, 0
17, 40800, Note_on_c, 15, 47, 76
17, 40919, Note_on_c, 15, 47, 0
17, 41040, Note_on_c, 15, 43, 76
17, 41159, Note_on_c, 15, 43, 0
17, 41280, Note_on_c, 15, 48, 84
17, 41339, Note_on_c, 15, 48, 0
17, 41340, Note_on_c, 15, 48, 76
17, 41639, Note_on_c, 15, 48, 0
17, 41640, Note_on_c, 15, 43, 76
17, 41759, Note_on_c, 15, 43, 0
17, 41760, Note_on_c, 15, 40, 76
17, 41879, Note_on_c, 15, 40, 0
17, 41880, Note_on_c, 15, 36, 76
17, 41984, Note_on_c, 15, 36, 0
17, 42000, Note_on_c, 15, 35, 84
17, 42119, Note_on_c, 15, 35, 0
17, 42120, Note_on_c, 15, 43, 76
17, 42239, Note_on_c, 15, 43, 0
17, 42240, Note_on_c, 15, 47, 76
17, 42359, Note_on_c, 15, 47, 0
17, 42360, Note_on_c, 15, 43, 76
17, 42479, Note_on_c, 15, 43, 0
17, 42480, Note_on_c, 15, 47, 76
17, 42599, Note_on_c, 15, 47, 0
17, 42600, Note_on_c, 15, 43, 76
17, 42704, Note_on_c, 15, 43, 0
17, 42720, Note_on_c, 15, 48, 84
17, 42839, Note_on_c, 15, 48, 0
17, 42840, Note_on_c, 15, 36, 76
17, 42959, Note_on_c, 15, 36, 0
17, 42960, Note_on_c, 15, 48, 76
17, 43079, Note_on_c, 15, 48, 0
17, 43080, Note_on_c, 15, 36, 76
17, 43199, Note_on_c, 15, 36, 0
17, 43200, Note_on_c, 15, 48, 76
17, 43319, Note_on_c, 15, 48, 0
17, 43320, Note_on_c, 15, 36, 76
17, 43424, Note_on_c, 15, 36, 0
17, 43440, Note_on_c, 15, 48, 84
17, 43559, Note_on_c, 15, 48, 0
17, 43560, Note_on_c, 15, 36, 76
17, 43679, Note_on_c, 15, 36, 0
17, 43680, Note_on_c, 15, 48, 76
17, 43799, Note_on_c, 15, 48, 0
17, 43800, Note_on_c, 15, 36, 76
17, 43919, Note_on_c, 15, 36, 0
17, 43920, Note_on_c, 15, 48, 76
17, 44039, Note_on_c, 15, 48, 0
17, 44040, Note_on_c, 15, 36, 76
17, 44144, Note_on_c, 15, 36, 0
17, 44160, Note_on_c, 15, 48, 84
17, 44279, Note_on_c, 15, 48, 0
17, 44280, Note_on_c, 15, 41, 76
17, 44399, Note_on_c, 15, 41, 0
17, 44400, Note_on_c, 15, 48, 76
17, 44519, Note_on_c, 15, 48, 0
17, 44520, Note_on_c, 15, 41, 76
17, 44639, Note_on_c, 15, 41, 0
17, 44640, Note_on_c, 15, 48, 76
17, 44759, Note_on_c, 15, 48, 0
17, 44760, Note_on_c, 15, 41, 76
17, 44864, Note_on_c, 15, 41, 0
17, 44880, Note_on_c, 15, 41, 76
17, 44999, Note_on_c, 15, 41, 0
17, 45060, Program_c, 15, 45
17, 45120, Note_on_c, 15, 41, 44
17, 45239, Note_on_c, 15, 41, 0
17, 45600, Note_on_c, 15, 41, 44
17, 45839, Note_on_c, 15, 41, 0
17, 45840, Note_on_c, 15, 41, 44
17, 46079, Note_on_c, 15, 41, 0
17, 46320, Note_on_c, 15, 41, 43
17, 46559, Note_on_c, 15, 41, 0
17, 46560, Note_on_c, 15, 41, 42
17, 46799, Note_on_c, 15, 41, 0
17, 47040, Note_on_c, 15, 41, 41
17, 47279, Note_on_c, 15, 41, 0
17, 47280, Note_on_c, 15, 41, 41
17, 47519, Note_on_c, 15, 41, 0
17, 47520, Program_c, 15, 48
17, 47520, Note_on_c, 15, 46, 40
17, 47639, Note_on_c, 15, 46, 0
17, 48000, Note_on_c, 15, 46, 44
17, 48119, Note_on_c, 15, 46, 0
17, 48480, Note_on_c, 15, 46, 44
17, 48599, Note_on_c, 15, 46, 0
17, 48720, Program_c, 15, 45
17, 48960, Note_on_c, 15, 34, 40
17, 49199, Note_on_c, 15, 34, 0
17, 49200, Note_on_c, 15, 36, 40
17, 49439, Note_on_c, 15, 36, 0
17, 49440, Note_on_c, 15, 36, 40
17, 49679, Note_on_c, 15, 36, 0
17, 49680, Note_on_c, 15, 39, 40
17, 49919, Note_on_c, 15, 39, 0
17, 49920, Note_on_c, 15, 38, 40
17, 50159, Note_on_c, 15, 38, 0
17, 50160, Note_on_c, 15, 34, 40
17, 50399, Note_on_c, 15, 34, 0
17, 50400, Note_on_c, 15, 34, 40
17, 50519, Note_on_c, 15, 34, 0
17, 50520, Note_on_c, 15, 33, 40
17, 50639, Note_on_c, 15, 33, 0
17, 50640, Note_on_c, 15, 31, 40
17, 50879, Note_on_c, 15, 31, 0
17, 50880, Note_on_c, 15, 43, 40
17, 51119, Note_on_c, 15, 43, 0
17, 51120, Note_on_c, 15, 36, 40
17, 51359, Note_on_c, 15, 36, 0
17, 51360, Note_on_c, 15, 41, 40
17, 51599, Note_on_c, 15, 41, 0
17, 51600, Program_c, 15, 48
17, 51840, Note_on_c, 15, 41, 44
17, 51959, Note_on_c, 15, 41, 0
17, 51960, Note_on_c, 15, 36, 45
17, 52079, Note_on_c, 15, 36, 0
17, 52080, Note_on_c, 15, 43, 47
17, 52199, Note_on_c, 15, 43, 0
17, 52200, Note_on_c, 15, 36, 49
17, 52319, Note_on_c, 15, 36, 0
17, 52320, Note_on_c, 15, 43, 50
17, 52439, Note_on_c, 15, 43, 0
17, 52440, Note_on_c, 15, 36, 52
17, 52544, Note_on_c, 15, 36, 0
17, 52560, Note_on_c, 15, 46, 54
17, 52679, Note_on_c, 15, 46, 0
17, 52680, Note_on_c, 15, 36, 55
17, 52799, Note_on_c, 15, 36, 0
17, 52800, Note_on_c, 15, 45, 57
17, 52919, Note_on_c, 15, 45, 0
17, 52920, Note_on_c, 15, 36, 59
17, 53039, Note_on_c, 15, 36, 0
17, 53040, Note_on_c, 15, 45, 60
17, 53159, Note_on_c, 15, 45, 0
17, 53160, Note_on_c, 15, 36, 62
17, 53279, Note_on_c, 15, 36, 0
17, 53280, Note_on_c, 15, 45, 64
17, 53399, Note_on_c, 15, 45, 0
17, 53400, Note_on_c, 15, 36, 65
17, 53519, Note_on_c, 15, 36, 0
17, 53520, Note_on_c, 15, 46, 67
17, 53639, Note_on_c, 15, 46, 0
17, 53640, Note_on_c, 15, 36, 69
17, 53759, Note_on_c, 15, 36, 0
17, 53760, Note_on_c, 15, 46, 70
17, 53879, Note_on_c, 15, 46, 0
17, 53880, Note_on_c, 15, 45, 72
17, 53999, Note_on_c, 15, 45, 0
17, 54000, Note_on_c, 15, 43, 74
17, 54104, Note_on_c, 15, 43, 0
17, 54120, Note_on_c, 15, 41, 76
17, 54224, Note_on_c, 15, 41, 0
17, 54240, Note_on_c, 15, 41, 80
17, 54359, Note_on_c, 15, 41, 0
17, 54360, Note_on_c, 15, 36, 80
17, 54479, Note_on_c, 15, 36, 0
17, 54480, Note_on_c, 15, 40, 80
17, 54599, Note_on_c, 15, 40, 0
17, 54600, Note_on_c, 15, 38, 80
17, 54719, Note_on_c, 15, 38, 0
17, 54720, Note_on_c, 15, 36, 80
17, 54824, Note_on_c, 15, 36, 0
17, 54840, Note_on_c, 15, 46, 80
17, 54944, Note_on_c, 15, 46, 0
17, 54960, Note_on_c, 15, 46, 80
17, 55079, Note_on_c, 15, 46, 0
17, 55080, Note_on_c, 15, 41, 80
17, 55199, Note_on_c, 15, 41, 0
17, 55200, Note_on_c, 15, 45, 80
17, 55319, Note_on_c, 15, 45, 0
17, 55320, Note_on_c, 15, 43, 80
17, 55439, Note_on_c, 15, 43, 0
17, 55440, Note_on_c, 15, 41, 80
17, 55544, Note_on_c, 15, 41, 0
17, 55560, Note_on_c, 15, 51, 84
17, 55664, Note_on_c, 15, 51, 0
17, 55680, Note_on_c, 15, 51, 84
17, 55919, Note_on_c, 15, 51, 0
17, 55920, Note_on_c, 15, 50, 84
17, 56039, Note_on_c, 15, 50, 0
17, 57000, Note_on_c, 15, 48, 84
17, 57104, Note_on_c, 15, 48, 0
17, 57120, Note_on_c, 15, 48, 84
17, 57359, Note_on_c, 15, 48, 0
17, 57360, Note_on_c, 15, 41, 84
17, 57479, Note_on_c, 15, 41, 0
17, 58440, Note_on_c, 15, 48, 84
17, 58544, Note_on_c, 15, 48, 0
17, 58560, Note_on_c, 15, 48, 84
17, 58799, Note_on_c, 15, 48, 0
17, 58800, Note_on_c, 15, 41, 84
17, 58919, Note_on_c, 15, 41, 0
17, 59880, Note_on_c, 15, 48, 84
17, 59984, Note_on_c, 15, 48, 0
17, 60000, Note_on_c, 15, 48, 84
17, 60239, Note_on_c, 15, 48, 0
17, 60240, Note_on_c, 15, 41, 84
17, 60359, Note_on_c, 15, 41, 0
17, 60960, Note_on_c, 15, 48, 84
17, 61199, Note_on_c, 15, 48, 0
17, 61200, Note_on_c, 15, 41, 84
17, 61319, Note_on_c, 15, 41, 0
17, 61920, Note_on_c, 15, 36, 92
17, 61979, Note_on_c, 15, 36, 0
17, 61980, Note_on_c, 15, 36, 84
17, 62159, Note_on_c, 15, 36, 0
17, 62160, Note_on_c, 15, 36, 84
17, 62879, Note_on_c, 15, 36, 0
17, 62880, Note_on_c, 15, 36, 84
17, 63119, Note_on_c, 15, 36, 0
17, 63120, Note_on_c, 15, 29, 84
17, 63224, Note_on_c, 15, 29, 0
17, 63360, Program_c, 15, 45
17, 63600, Note_on_c, 15, 41, 44
17, 63839, Note_on_c, 15, 41, 0
17, 64320, Note_on_c, 15, 41, 44
17, 64559, Note_on_c, 15, 41, 0
17, 65040, Note_on_c, 15, 41, 44
17, 65279, Note_on_c, 15, 41, 0
17, 65760, Note_on_c, 15, 40, 44
17, 65999, Note_on_c, 15, 40, 0
17, 66000, Note_on_c, 15, 43, 44
17, 66239, Note_on_c, 15, 43, 0
17, 66240, Note_on_c, 15, 36, 44
17, 66479, Note_on_c, 15, 36, 0
17, 66480, Note_on_c, 15, 41, 44
17, 66719, Note_on_c, 15, 41, 0
17, 67200, Note_on_c, 15, 38, 44
17, 67439, Note_on_c, 15, 38, 0
17, 67440, Note_on_c, 15, 38, 44
17, 67559, Note_on_c, 15, 38, 0
17, 67560, Note_on_c, 15, 40, 44
17, 67679, Note_on_c, 15, 40, 0
17, 67680, Note_on_c, 15, 41, 44
17, 67799, Note_on_c, 15, 41, 0
17, 67800, Note_on_c, 15, 42, 44
17, 67919, Note_on_c, 15, 42, 0
17, 67920, Note_on_c, 15, 43, 44
17, 68159, Note_on_c, 15, 43, 0
17, 68160, Note_on_c, 15, 43, 44
17, 68399, Note_on_c, 15, 43, 0
17, 68400, Note_on_c, 15, 43, 44
17, 68639, Note_on_c, 15, 43, 0
17, 68640, Note_on_c, 15, 36, 44
17, 68879, Note_on_c, 15, 36, 0
17, 68880, Note_on_c, 15, 36, 44
17, 68999, Note_on_c, 15, 36, 0
17, 69360, Note_on_c, 15, 41, 44
17, 69599, Note_on_c, 15, 41, 0
17, 70080, Note_on_c, 15, 41, 44
17, 70319, Note_on_c, 15, 41, 0
17, 70800, Note_on_c, 15, 41, 44
17, 71039, Note_on_c, 15, 41, 0
17, 71520, Note_on_c, 15, 40, 44
17, 71759, Note_on_c, 15, 40, 0
17, 71760, Note_on_c, 15, 43, 44
17, 71999, Note_on_c, 15, 43, 0
17, 72000, Note_on_c, 15, 36, 44
17, 72239, Note_on_c, 15, 36, 0
17, 72240, Note_on_c, 15, 41, 44
17, 72479, Note_on_c, 15, 41, 0
17, 72960, Note_on_c, 15, 38, 44
17, 73199, Note_on_c, 15, 38, 0
17, 73200, Note_on_c, 15, 38, 44
17, 73319, Note_on_c, 15, 38, 0
17, 73320, Note_on_c, 15, 40, 44
17, 73439, Note_on_c, 15, 40, 0
17, 73440, Note_on_c, 15, 41, 44
17, 73559, Note_on_c, 15, 41, 0
17, 73560, Note_on_c, 15, 42, 44
17, 73679, Note_on_c, 15, 42, 0
17, 73680, Note_on_c, 15, 43, 44
17, 73919, Note_on_c, 15, 43, 0
17, 73920, Note_on_c, 15, 43, 44
17, 74159, Note_on_c, 15, 43, 0
17, 74160, Note_on_c, 15, 43, 44
17, 74399, Note_on_c, 15, 43, 0
17, 74400, Note_on_c, 15, 36, 44
17, 74639, Note_on_c, 15, 36, 0
17, 74640, Note_on_c, 15, 36, 44
17, 74759, Note_on_c, 15, 36, 0
17, 75120, Note_on_c, 15, 36, 44
17, 75359, Note_on_c, 15, 36, 0
17, 75840, Note_on_c, 15, 36, 44
17, 76079, Note_on_c, 15, 36, 0
17, 76560, Note_on_c, 15, 36, 44
17, 76799, Note_on_c, 15, 36, 0
17, 77280, Note_on_c, 15, 36, 44
17, 77519, Note_on_c, 15, 36, 0
17, 78000, Note_on_c, 15, 32, 44
17, 78239, Note_on_c, 15, 32, 0
17, 78720, Note_on_c, 15, 37, 53
17, 78959, Note_on_c, 15, 37, 0
17, 79440, Note_on_c, 15, 39, 62
17, 79679, Note_on_c, 15, 39, 0
17, 79920, Program_c, 15, 48
17, 80160, Note_on_c, 15, 40, 76
17, 80639, Note_on_c, 15, 40, 0
17, 80640, Note_on_c, 15, 36, 76
17, 80864, Note_on_c, 15, 36, 0
17, 80880, Note_on_c, 15, 41, 76
17, 81119, Note_on_c, 15, 41, 0
17, 81360, Program_c, 15, 45
17, 81600, Note_on_c, 15, 34, 56
17, 81839, Note_on_c, 15, 34, 0
17, 82320, Note_on_c, 15, 36, 44
17, 82559, Note_on_c, 15, 36, 0
17, 83040, Note_on_c, 15, 29, 48
17, 83279, Note_on_c, 15, 29, 0
17, 83400, Note_on_c, 15, 31, 54
17, 83519, Note_on_c, 15, 31, 0
17, 83520, Note_on_c, 15, 33, 60
17, 83759, Note_on_c, 15, 33, 0
17, 83760, Note_on_c, 15, 29, 44
17, 83999, Note_on_c, 15, 29, 0
17, 84120, Note_on_c, 15, 31, 44
17, 84239, Note_on_c, 15, 31, 0
17, 84240, Note_on_c, 15, 33, 60
17, 84479, Note_on_c, 15, 33, 0
17, 84480, Note_on_c, 15, 29, 44
17, 84719, Note_on_c, 15, 29, 0
17, 84840, Note_on_c, 15, 31, 44
17, 84959, Note_on_c, 15, 31, 0
17, 84960, Note_on_c, 15, 33, 44
17, 85199, Note_on_c, 15, 33, 0
17, 85200, Note_on_c, 15, 24, 44
17, 85439, Note_on_c, 15, 24, 0
17, 85560, Note_on_c, 15, 31, 44
17, 85679, Note_on_c, 15, 31, 0
17, 85680, Note_on_c, 15, 36, 44
17, 85919, Note_on_c, 15, 36, 0
17, 85920, Note_on_c, 15, 29, 44
17, 86159, Note_on_c, 15, 29, 0
17, 86280, Note_on_c, 15, 31, 48
17, 86399, Note_on_c, 15, 31, 0
17, 86400, Note_on_c, 15, 33, 53
17, 86639, Note_on_c, 15, 33, 0
17, 86640, Note_on_c, 15, 29, 52
17, 86879, Note_on_c, 15, 29, 0
17, 87000, Note_on_c, 15, 31, 56
17, 87119, Note_on_c, 15, 31, 0
17, 87120, Note_on_c, 15, 33, 61
17, 87359, Note_on_c, 15, 33, 0
17, 87360, Note_on_c, 15, 29, 44
17, 87599, Note_on_c, 15, 29, 0
17, 87720, Note_on_c, 15, 31, 44
17, 87839, Note_on_c, 15, 31, 0
17, 87840, Note_on_c, 15, 33, 44
17, 88079, Note_on_c, 15, 33, 0
17, 88080, Note_on_c, 15, 24, 44
17, 88319, Note_on_c, 15, 24, 0
17, 88440, Note_on_c, 15, 31, 44
17, 88559, Note_on_c, 15, 31, 0
17, 88560, Note_on_c, 15, 36, 44
17, 88799, Note_on_c, 15, 36, 0
17, 88800, Note_on_c, 15, 29, 44
17, 89039, Note_on_c, 15, 29, 0
17, 89160, Note_on_c, 15, 31, 52
17, 89279, Note_on_c, 15, 31, 0
17, 89280, Note_on_c, 15, 33, 58
17, 89519, Note_on_c, 15, 33, 0
17, 89520, Note_on_c, 15, 24, 44
17, 89759, Note_on_c, 15, 24, 0
17, 89880, Note_on_c, 15, 31, 44
17, 89999, Note_on_c, 15, 31, 0
17, 90000, Note_on_c, 15, 36, 44
17, 90239, Note_on_c, 15, 36, 0
17, 90240, Note_on_c, 15, 29, 44
17, 90479, Note_on_c, 15, 29, 0
17, 90600, Note_on_c, 15, 31, 52
17, 90719, Note_on_c, 15, 31, 0
17, 90720, Note_on_c, 15, 33, 58
17, 90959, Note_on_c, 15, 33, 0
17, 90960, Note_on_c, 15, 29, 44
17, 91199, Note_on_c, 15, 29, 0
17, 91320, Note_on_c, 15, 31, 44
17, 91439, Note_on_c, 15, 31, 0
17, 91440, Note_on_c, 15, 33, 44
17, 91679, Note_on_c, 15, 33, 0
17, 91680, Note_on_c, 15, 29, 43
17, 91919, Note_on_c, 15, 29, 0
17, 92040, Note_on_c, 15, 31, 42
17, 92159, Note_on_c, 15, 31, 0
17, 92160, Note_on_c, 15, 33, 41
17, 92399, Note_on_c, 15, 33, 0
17, 92400, Note_on_c, 15, 29, 40
17, 92639, Note_on_c, 15, 29, 0
17, 92760, Note_on_c, 15, 31, 40
17, 92879, Note_on_c, 15, 31, 0
17, 92880, Note_on_c, 15, 33, 40
17, 93119, Note_on_c, 15, 33, 0
17, 93120, Note_on_c, 15, 29, 40
17, 93239, Note_on_c, 15, 29, 0
17, 93360, Note_on_c, 15, 29, 40
17, 93479, Note_on_c, 15, 29, 0
17, 96000, Program_c, 15, 48
17, 96480, Note_on_c, 15, 45, 52
17, 96599, Note_on_c, 15, 45, 0
17, 96720, Note_on_c, 15, 46, 56
17, 97079, Note_on_c, 15, 46, 0
17, 97080, Note_on_c, 15, 45, 62
17, 97199, Note_on_c, 15, 45, 0
17, 97200, Note_on_c, 15, 43, 64
17, 97319, Note_on_c, 15, 43, 0
17, 97320, Note_on_c, 15, 41, 66
17, 97439, Note_on_c, 15, 41, 0
17, 97440, Note_on_c, 15, 40, 68
17, 97559, Note_on_c, 15, 40, 0
17, 97560, Note_on_c, 15, 38, 70
17, 97679, Note_on_c, 15, 38, 0
17, 97680, Note_on_c, 15, 36, 72
17, 97799, Note_on_c, 15, 36, 0
17, 97800, Note_on_c, 15, 43, 74
17, 97904, Note_on_c, 15, 43, 0
17, 97920, Note_on_c, 15, 41, 76
17, 98039, Note_on_c, 15, 41, 0
17, 98040, Note_on_c, 15, 36, 76
17, 98144, Note_on_c, 15, 36, 0
17, 98160, Note_on_c, 15, 43, 76
17, 98279, Note_on_c, 15, 43, 0
17, 98280, Note_on_c, 15, 36, 76
17, 98399, Note_on_c, 15, 36, 0
17, 98400, Note_on_c, 15, 43, 76
17, 98519, Note_on_c, 15, 43, 0
17, 98520, Note_on_c, 15, 36, 76
17, 98639, Note_on_c, 15, 36, 0
17, 98640, Note_on_c, 15, 43, 76
17, 98759, Note_on_c, 15, 43, 0
17, 98760, Note_on_c, 15, 36, 76
17, 98864, Note_on_c, 15, 36, 0
17, 98880, Note_on_c, 15, 45, 76
17, 98999, Note_on_c, 15, 45, 0
17, 99000, Note_on_c, 15, 36, 76
17, 99119, Note_on_c, 15, 36, 0
17, 99120, Note_on_c, 15, 45, 76
17, 99239, Note_on_c, 15, 45, 0
17, 99240, Note_on_c, 15, 36, 76
17, 99359, Note_on_c, 15, 36, 0
17, 99360, Note_on_c, 15, 45, 76
17, 99464, Note_on_c, 15, 45, 0
17, 99480, Note_on_c, 15, 45, 76
17, 99599, Note_on_c, 15, 45, 0
17, 99600, Note_on_c, 15, 46, 76
17, 99719, Note_on_c, 15, 46, 0
17, 99720, Note_on_c, 15, 34, 76
17, 99839, Note_on_c, 15, 34, 0
17, 99840, Note_on_c, 15, 46, 76
17, 99959, Note_on_c, 15, 46, 0
17, 99960, Note_on_c, 15, 45, 76
17, 100079, Note_on_c, 15, 45, 0
17, 100080, Note_on_c, 15, 43, 76
17, 100184, Note_on_c, 15, 43, 0
17, 100200, Note_on_c, 15, 48, 76
17, 100304, Note_on_c, 15, 48, 0
17, 100320, Note_on_c, 15, 48, 76
17, 100439, Note_on_c, 15, 48, 0
17, 100440, Note_on_c, 15, 36, 76
17, 100559, Note_on_c, 15, 36, 0
17, 100560, Note_on_c, 15, 41, 76
17, 100679, Note_on_c, 15, 41, 0
17, 103680, Note_on_c, 15, 45, 52
17, 103799, Note_on_c, 15, 45, 0
17, 103920, Note_on_c, 15, 46, 56
17, 104279, Note_on_c, 15, 46, 0
17, 104280, Note_on_c, 15, 45, 62
17, 104399, Note_on_c, 15, 45, 0
17, 104400, Note_on_c, 15, 43, 64
17, 104519, Note_on_c, 15, 43, 0
17, 104520, Note_on_c, 15, 41, 66
17, 104639, Note_on_c, 15, 41, 0
17, 104640, Note_on_c, 15, 40, 68
17, 104759, Note_on_c, 15, 40, 0
17, 104760, Note_on_c, 15, 38, 70
17, 104879, Note_on_c, 15, 38, 0
17, 104880, Note_on_c, 15, 36, 72
17, 104999, Note_on_c, 15, 36, 0
17, 105000, Note_on_c, 15, 43, 74
17, 105104, Note_on_c, 15, 43, 0
17, 105120, Note_on_c, 15, 41, 76
17, 105239, Note_on_c, 15, 41, 0
17, 105240, Note_on_c, 15, 36, 76
17, 105344, Note_on_c, 15, 36, 0
17, 105360, Note_on_c, 15, 43, 76
17, 105479, Note_on_c, 15, 43, 0
17, 105480, Note_on_c, 15, 36, 76
17, 105599, Note_on_c, 15, 36, 0
17, 105600, Note_on_c, 15, 43, 76
17, 105719, Note_on_c, 15, 43, 0
17, 105720, Note_on_c, 15, 36, 76
17, 105839, Note_on_c, 15, 36, 0
17, 105840, Note_on_c, 15, 43, 76
17, 105959, Note_on_c, 15, 43, 0
17, 105960, Note_on_c, 15, 36, 76
17, 106064, Note_on_c, 15, 36, 0
17, 106080, Note_on_c, 15, 45, 76
17, 106199, Note_on_c, 15, 45, 0
17, 106200, Note_on_c, 15, 36, 76
17, 106319, Note_on_c, 15, 36, 0
17, 106320, Note_on_c, 15, 45, 76
17, 106439, Note_on_c, 15, 45, 0
17, 106440, Note_on_c, 15, 36, 76
17, 106559, Note_on_c, 15, 36, 0
17, 106560, Note_on_c, 15, 45, 76
17, 106664, Note_on_c, 15, 45, 0
17, 106680, Note_on_c, 15, 45, 76
17, 106799, Note_on_c, 15, 45, 0
17, 106800, Note_on_c, 15, 46, 76
17, 106919, Note_on_c, 15, 46, 0
17, 106920, Note_on_c, 15, 34, 76
17, 107039, Note_on_c, 15, 34, 0
17, 107040, Note_on_c, 15, 46, 76
17, 107159, Note_on_c, 15, 46, 0
17, 107160, Note_on_c, 15, 45, 76
17, 107279, Note_on_c, 15, 45, 0
17, 107280, Note_on_c, 15, 43, 76
17, 107384, Note_on_c, 15, 43, 0
17, 107400, Note_on_c, 15, 48, 76
17, 107504, Note_on_c, 15, 48, 0
17, 107520, Note_on_c, 15, 48, 76
17, 107639, Note_on_c, 15, 48, 0
17, 107640, Note_on_c, 15, 36, 76
17, 107759, Note_on_c, 15, 36, 0
17, 107760, Note_on_c, 15, 41, 76
17, 107864, Note_on_c, 15, 41, 0
17, 107880, Note_on_c, 15, 45, 76
17, 107999, Note_on_c, 15, 45, 0
17, 108000, Note_on_c, 15, 43, 76
17, 108119, Note_on_c, 15, 43, 0
17, 108120, Note_on_c, 15, 48, 76
17, 108224, Note_on_c, 15, 48, 0
17, 108240, Note_on_c, 15, 47, 76
17, 108359, Note_on_c, 15, 47, 0
17, 108480, Note_on_c, 15, 50, 84
17, 108599, Note_on_c, 15, 50, 0
17, 109200, Note_on_c, 15, 48, 84
17, 109319, Note_on_c, 15, 48, 0
17, 109920, Note_on_c, 15, 47, 76
17, 110039, Note_on_c, 15, 47, 0
17, 110160, Note_on_c, 15, 43, 76
17, 110279, Note_on_c, 15, 43, 0
17, 110400, Note_on_c, 15, 48, 84
17, 110459, Note_on_c, 15, 48, 0
17, 110460, Note_on_c, 15, 48, 76
17, 110759, Note_on_c, 15, 48, 0
17, 110760, Note_on_c, 15, 43, 76
17, 110879, Note_on_c, 15, 43, 0
17, 110880, Note_on_c, 15, 40, 76
17, 110999, Note_on_c, 15, 40, 0
17, 111000, Note_on_c, 15, 36, 76
17, 111104, Note_on_c, 15, 36, 0
17, 111120, Note_on_c, 15, 35, 84
17, 111239, Note_on_c, 15, 35, 0
17, 111240, Note_on_c, 15, 43, 76
17, 111359, Note_on_c, 15, 43, 0
17, 111360, Note_on_c, 15, 47, 76
17, 111479, Note_on_c, 15, 47, 0
17, 111480, Note_on_c, 15, 43, 76
17, 111599, Note_on_c, 15, 43, 0
17, 111600, Note_on_c, 15, 47, 76
17, 111719, Note_on_c, 15, 47, 0
17, 111720, Note_on_c, 15, 43, 76
17, 111824, Note_on_c, 15, 43, 0
17, 111840, Note_on_c, 15, 48, 84
17, 111959, Note_on_c, 15, 48, 0
17, 111960, Note_on_c, 15, 36, 76
17, 112079, Note_on_c, 15, 36, 0
17, 112080, Note_on_c, 15, 48, 76
17, 112199, Note_on_c, 15, 48, 0
17, 112200, Note_on_c, 15, 36, 76
17, 112319, Note_on_c, 15, 36, 0
17, 112320, Note_on_c, 15, 48, 76
17, 112439, Note_on_c, 15, 48, 0
17, 112440, Note_on_c, 15, 36, 76
17, 112544, Note_on_c, 15, 36, 0
17, 112560, Note_on_c, 15, 48, 84
17, 112679, Note_on_c, 15, 48, 0
17, 112680, Note_on_c, 15, 36, 76
17, 112799, Note_on_c, 15, 36, 0
17, 112800, Note_on_c, 15, 48, 76
17, 112919, Note_on_c, 15, 48, 0
17, 112920, Note_on_c, 15, 36, 76
17, 113039, Note_on_c, 15, 36, 0
17, 113040, Note_on_c, 15, 48, 76
17, 113159, Note_on_c, 15, 48, 0
17, 113160, Note_on_c, 15, 36, 76
17, 113264, Note_on_c, 15, 36, 0
17, 113280, Note_on_c, 15, 48, 84
17, 113399, Note_on_c, 15, 48, 0
17, 113400, Note_on_c, 15, 41, 76
17, 113519, Note_on_c, 15, 41, 0
17, 113520, Note_on_c, 15, 48, 76
17, 113639, Note_on_c, 15, 48, 0
17, 113640, Note_on_c, 15, 41, 76
17, 113759, Note_on_c, 15, 41, 0
17, 113760, Note_on_c, 15, 48, 76
17, 113879, Note_on_c, 15, 48, 0
17, 113880, Note_on_c, 15, 41, 76
17, 113984, Note_on_c, 15, 41, 0
17, 114000, Note_on_c, 15, 41, 76
17, 114119, Note_on_c, 15, 41, 0
17, 114180, Program_c, 15, 45
17, 114240, Note_on_c, 15, 41, 44
17, 114359, Note_on_c, 15, 41, 0
17, 114720, Note_on_c, 15, 41, 44
17, 114959, Note_on_c, 15, 41, 0
17, 114960, Note_on_c, 15, 41, 44
17, 115199, Note_on_c, 15, 41, 0
17, 115440, Note_on_c, 15, 41, 43
17, 115679, Note_on_c, 15, 41, 0
17, 115680, Note_on_c, 15, 41, 42
17, 115919, Note_on_c, 15, 41, 0
17, 116160, Note_on_c, 15, 41, 41
17, 116399, Note_on_c, 15, 41, 0
17, 116400, Note_on_c, 15, 41, 41
17, 116639, Note_on_c, 15, 41, 0
17, 116640, Note_on_c, 15, 46, 40
17, 116640, Program_c, 15, 48
17, 116759, Note_on_c, 15, 46, 0
17, 117120, Note_on_c, 15, 46, 44
17, 117239, Note_on_c, 15, 46, 0
17, 117600, Note_on_c, 15, 46, 44
17, 117719, Note_on_c, 15, 46, 0
17, 117840, Program_c, 15, 45
17, 118080, Note_on_c, 15, 34, 40
17, 118319, Note_on_c, 15, 34, 0
17, 118320, Note_on_c, 15, 36, 40
17, 118559, Note_on_c, 15, 36, 0
17, 118560, Note_on_c, 15, 36, 40
17, 118799, Note_on_c, 15, 36, 0
17, 118800, Note_on_c, 15, 39, 40
17, 119039, Note_on_c, 15, 39, 0
17, 119040, Note_on_c, 15, 38, 40
17, 119279, Note_on_c, 15, 38, 0
17, 119280, Note_on_c, 15, 34, 40
17, 119519, Note_on_c, 15, 34, 0
17, 119520, Note_on_c, 15, 34, 40
17, 119639, Note_on_c, 15, 34, 0
17, 119640, Note_on_c, 15, 33, 40
17, 119759, Note_on_c, 15, 33, 0
17, 119760, Note_on_c, 15, 31, 40
17, 119999, Note_on_c, 15, 31, 0
17, 120000, Note_on_c, 15, 43, 40
17, 120239, Note_on_c, 15, 43, 0
17, 120240, Note_on_c, 15, 36, 40
17, 120479, Note_on_c, 15, 36, 0
17, 120480, Note_on_c, 15, 41, 40
17, 120719, Note_on_c, 15, 41, 0
17, 120720, Program_c, 15, 48
17, 120960, Note_on_c, 15, 41, 44
17, 121079, Note_on_c, 15, 41, 0
17, 121080, Note_on_c, 15, 36, 45
17, 121199, Note_on_c, 15, 36, 0
17, 121200, Note_on_c, 15, 43, 47
17, 121319, Note_on_c, 15, 43, 0
17, 121320, Note_on_c, 15, 36, 49
17, 121439, Note_on_c, 15, 36, 0
17, 121440, Note_on_c, 15, 43, 50
17, 121559, Note_on_c, 15, 43, 0
17, 121560, Note_on_c, 15, 36, 52
17, 121664, Note_on_c, 15, 36, 0
17, 121680, Note_on_c, 15, 46, 54
17, 121799, Note_on_c, 15, 46, 0
17, 121800, Note_on_c, 15, 36, 55
17, 121919, Note_on_c, 15, 36, 0
17, 121920, Note_on_c, 15, 45, 57
17, 122039, Note_on_c, 15, 45, 0
17, 122040, Note_on_c, 15, 36, 59
17, 122159, Note_on_c, 15, 36, 0
17, 122160, Note_on_c, 15, 45, 60
17, 122279, Note_on_c, 15, 45, 0
17, 122280, Note_on_c, 15, 36, 62
17, 122399, Note_on_c, 15, 36, 0
17, 122400, Note_on_c, 15, 45, 64
17, 122519, Note_on_c, 15, 45, 0
17, 122520, Note_on_c, 15, 36, 65
17, 122639, Note_on_c, 15, 36, 0
17, 122640, Note_on_c, 15, 46, 67
17, 122759, Note_on_c, 15, 46, 0
17, 122760, Note_on_c, 15, 36, 69
17, 122879, Note_on_c, 15, 36, 0
17, 122880, Note_on_c, 15, 46, 70
17, 122999, Note_on_c, 15, 46, 0
17, 123000, Note_on_c, 15, 45, 72
17, 123119, Note_on_c, 15, 45, 0
17, 123120, Note_on_c, 15, 43, 74
17, 123224, Note_on_c, 15, 43, 0
17, 123240, Note_on_c, 15, 41, 76
17, 123344, Note_on_c, 15, 41, 0
17, 123360, Note_on_c, 15, 41, 80
17, 123479, Note_on_c, 15, 41, 0
17, 123480, Note_on_c, 15, 36, 80
17, 123599, Note_on_c, 15, 36, 0
17, 123600, Note_on_c, 15, 40, 80
17, 123719, Note_on_c, 15, 40, 0
17, 123720, Note_on_c, 15, 38, 80
17, 123839, Note_on_c, 15, 38, 0
17, 123840, Note_on_c, 15, 36, 80
17, 123944, Note_on_c, 15, 36, 0
17, 123960, Note_on_c, 15, 46, 80
17, 124064, Note_on_c, 15, 46, 0
17, 124080, Note_on_c, 15, 46, 80
17, 124199, Note_on_c, 15, 46, 0
17, 124200, Note_on_c, 15, 41, 80
17, 124319, Note_on_c, 15, 41, 0
17, 124320, Note_on_c, 15, 45, 80
17, 124439, Note_on_c, 15, 45, 0
17, 124440, Note_on_c, 15, 43, 80
17, 124559, Note_on_c, 15, 43, 0
17, 124560, Note_on_c, 15, 41, 80
17, 124664, Note_on_c, 15, 41, 0
17, 124680, Note_on_c, 15, 51, 84
17, 124784, Note_on_c, 15, 51, 0
17, 124800, Note_on_c, 15, 51, 84
17, 125039, Note_on_c, 15, 51, 0
17, 125040, Note_on_c, 15, 50, 84
17, 125159, Note_on_c, 15, 50, 0
17, 126120, Note_on_c, 15, 48, 84
17, 126224, Note_on_c, 15, 48, 0
17, 126240, Note_on_c, 15, 48, 84
17, 126479, Note_on_c, 15, 48, 0
17, 126480, Note_on_c, 15, 41, 84
17, 126599, Note_on_c, 15, 41, 0
17, 127560, Note_on_c, 15, 48, 84
17, 127664, Note_on_c, 15, 48, 0
17, 127680, Note_on_c, 15, 48, 84
17, 127919, Note_on_c, 15, 48, 0
17, 127920, Note_on_c, 15, 41, 84
17, 128039, Note_on_c, 15, 41, 0
17, 129000, Note_on_c, 15, 48, 84
17, 129104, Note_on_c, 15, 48, 0
17, 129120, Note_on_c, 15, 48, 84
17, 129359, Note_on_c, 15, 48, 0
17, 129360, Note_on_c, 15, 41, 84
17, 129479, Note_on_c, 15, 41, 0
17, 130080, Note_on_c, 15, 48, 84
17, 130319, Note_on_c, 15, 48, 0
17, 130320, Note_on_c, 15, 41, 84
17, 130439, Note_on_c, 15, 41, 0
17, 131040, Note_on_c, 15, 36, 92
17, 131099, Note_on_c, 15, 36, 0
17, 131100, Note_on_c, 15, 36, 84
17, 131279, Note_on_c, 15, 36, 0
17, 131280, Note_on_c, 15, 36, 84
17, 131999, Note_on_c, 15, 36, 0
17, 132000, Note_on_c, 15, 36, 84
17, 132239, Note_on_c, 15, 36, 0
17, 132240, Note_on_c, 15, 29, 84
17, 132344, Note_on_c, 15, 29, 0
17, 132360, Note_on_c, 15, 45, 84
17, 132479, Note_on_c, 15, 45, 0
17, 132480, Note_on_c, 15, 43, 84
17, 132599, Note_on_c, 15, 43, 0
17, 132600, Note_on_c, 15, 48, 84
17, 132704, Note_on_c, 15, 48, 0
17, 132720, Note_on_c, 15, 47, 76
17, 132839, Note_on_c, 15, 47, 0
17, 132960, Note_on_c, 15, 50, 84
17, 133079, Note_on_c, 15, 50, 0
17, 133680, Note_on_c, 15, 48, 84
17, 133799, Note_on_c, 15, 48, 0
17, 134400, Note_on_c, 15, 47, 76
17, 134519, Note_on_c, 15, 47, 0
17, 134640, Note_on_c, 15, 43, 76
17, 134759, Note_on_c, 15, 43, 0
17, 134880, Note_on_c, 15, 48, 84
17, 134939, Note_on_c, 15, 48, 0
17, 134940, Note_on_c, 15, 48, 76
17, 135239, Note_on_c, 15, 48, 0
17, 135240, Note_on_c, 15, 43, 76
17, 135359, Note_on_c, 15, 43, 0
17, 135360, Note_on_c, 15, 40, 76
17, 135479, Note_on_c, 15, 40, 0
17, 135480, Note_on_c, 15, 36, 76
17, 135584, Note_on_c, 15, 36, 0
17, 135600, Note_on_c, 15, 35, 84
17, 135719, Note_on_c, 15, 35, 0
17, 135720, Note_on_c, 15, 43, 76
17, 135839, Note_on_c, 15, 43, 0
17, 135840, Note_on_c, 15, 47, 76
17, 135959, Note_on_c, 15, 47, 0
17, 135960, Note_on_c, 15, 43, 76
17, 136079, Note_on_c, 15, 43, 0
17, 136080, Note_on_c, 15, 47, 76
17, 136199, Note_on_c, 15, 47, 0
17, 136200, Note_on_c, 15, 43, 76
17, 136304, Note_on_c, 15, 43, 0
17, 136320, Note_on_c, 15, 48, 84
17, 136439, Note_on_c, 15, 48, 0
17, 136440, Note_on_c, 15, 36, 76
17, 136559, Note_on_c, 15, 36, 0
17, 136560, Note_on_c, 15, 48, 76
17, 136679, Note_on_c, 15, 48, 0
17, 136680, Note_on_c, 15, 36, 76
17, 136799, Note_on_c, 15, 36, 0
17, 136800, Note_on_c, 15, 48, 76
17, 136919, Note_on_c, 15, 48, 0
17, 136920, Note_on_c, 15, 36, 76
17, 137024, Note_on_c, 15, 36, 0
17, 137040, Note_on_c, 15, 48, 84
17, 137159, Note_on_c, 15, 48, 0
17, 137160, Note_on_c, 15, 36, 76
17, 137279, Note_on_c, 15, 36, 0
17, 137280, Note_on_c, 15, 48, 76
17, 137399, Note_on_c, 15, 48, 0
17, 137400, Note_on_c, 15, 36, 76
17, 137519, Note_on_c, 15, 36, 0
17, 137520, Note_on_c, 15, 48, 76
17, 137639, Note_on_c, 15, 48, 0
17, 137640, Note_on_c, 15, 36, 76
17, 137744, Note_on_c, 15, 36, 0
17, 137760, Note_on_c, 15, 48, 84
17, 137879, Note_on_c, 15, 48, 0
17, 137880, Note_on_c, 15, 41, 76
17, 137999, Note_on_c, 15, 41, 0
17, 138000, Note_on_c, 15, 48, 76
17, 138119, Note_on_c, 15, 48, 0
17, 138120, Note_on_c, 15, 41, 76
17, 138239, Note_on_c, 15, 41, 0
17, 138240, Note_on_c, 15, 48, 76
17, 138359, Note_on_c, 15, 48, 0
17, 138360, Note_on_c, 15, 41, 76
17, 138464, Note_on_c, 15, 41, 0
17, 138480, Note_on_c, 15, 41, 76
17, 138599, Note_on_c, 15, 41, 0
17, 138660, Program_c, 15, 45
17, 138720, Note_on_c, 15, 41, 44
17, 138839, Note_on_c, 15, 41, 0
17, 139200, Note_on_c, 15, 41, 44
17, 139439, Note_on_c, 15, 41, 0
17, 139440, Note_on_c, 15, 41, 44
17, 139679, Note_on_c, 15, 41, 0
17, 139920, Note_on_c, 15, 41, 43
17, 140159, Note_on_c, 15, 41, 0
17, 140160, Note_on_c, 15, 41, 42
17, 140399, Note_on_c, 15, 41, 0
17, 140640, Note_on_c, 15, 41, 41
17, 140879, Note_on_c, 15, 41, 0
17, 140880, Note_on_c, 15, 41, 41
17, 141119, Note_on_c, 15, 41, 0
17, 141120, Program_c, 15, 48
17, 141120, Note_on_c, 15, 46, 40
17, 141239, Note_on_c, 15, 46, 0
17, 141600, Note_on_c, 15, 46, 44
17, 141719, Note_on_c, 15, 46, 0
17, 142080, Note_on_c, 15, 46, 44
17, 142199, Note_on_c, 15, 46, 0
17, 142320, Program_c, 15, 45
17, 142560, Note_on_c, 15, 34, 40
17, 142799, Note_on_c, 15, 34, 0
17, 142800, Note_on_c, 15, 36, 40
17, 143039, Note_on_c, 15, 36, 0
17, 143040, Note_on_c, 15, 36, 40
17, 143279, Note_on_c, 15, 36, 0
17, 143280, Note_on_c, 15, 39, 40
17, 143519, Note_on_c, 15, 39, 0
17, 143520, Note_on_c, 15, 38, 40
17, 143759, Note_on_c, 15, 38, 0
17, 143760, Note_on_c, 15, 34, 40
17, 143999, Note_on_c, 15, 34, 0
17, 144000, Note_on_c, 15, 34, 40
17, 144119, Note_on_c, 15, 34, 0
17, 144120, Note_on_c, 15, 33, 40
17, 144239, Note_on_c, 15, 33, 0
17, 144240, Note_on_c, 15, 31, 40
17, 144479, Note_on_c, 15, 31, 0
17, 144480, Note_on_c, 15, 43, 40
17, 144719, Note_on_c, 15, 43, 0
17, 144720, Note_on_c, 15, 36, 40
17, 144959, Note_on_c, 15, 36, 0
17, 144960, Note_on_c, 15, 41, 40
17, 145199, Note_on_c, 15, 41, 0
17, 145200, Program_c, 15, 48
17, 145440, Note_on_c, 15, 41, 44
17, 145559, Note_on_c, 15, 41, 0
17, 145560, Note_on_c, 15, 36, 45
17, 145679, Note_on_c, 15, 36, 0
17, 145680, Note_on_c, 15, 43, 47
17, 145799, Note_on_c, 15, 43, 0
17, 145800, Note_on_c, 15, 36, 49
17, 145919, Note_on_c, 15, 36, 0
17, 145920, Note_on_c, 15, 43, 50
17, 146039, Note_on_c, 15, 43, 0
17, 146040, Note_on_c, 15, 36, 52
17, 146144, Note_on_c, 15, 36, 0
17, 146160, Note_on_c, 15, 46, 54
17, 146279, Note_on_c, 15, 46, 0
17, 146280, Note_on_c, 15, 36, 55
17, 146399, Note_on_c, 15, 36, 0
17, 146400, Note_on_c, 15, 45, 57
17, 146519, Note_on_c, 15, 45, 0
17, 146520, Note_on_c, 15, 36, 59
17, 146639, Note_on_c, 15, 36, 0
17, 146640, Note_on_c, 15, 45, 60
17, 146759, Note_on_c, 15, 45, 0
17, 146760, Note_on_c, 15, 36, 62
17, 146879, Note_on_c, 15, 36, 0
17, 146880, Note_on_c, 15, 45, 64
17, 146999, Note_on_c, 15, 45, 0
17, 147000, Note_on_c, 15, 36, 65
17, 147119, Note_on_c, 15, 36, 0
17, 147120, Note_on_c, 15, 46, 67
17, 147239, Note_on_c, 15, 46, 0
17, 147240, Note_on_c, 15, 36, 69
17, 147359, Note_on_c, 15, 36, 0
17, 147360, Note_on_c, 15, 46, 70
17, 147479, Note_on_c, 15, 46, 0
17, 147480, Note_on_c, 15, 45, 72
17, 147599, Note_on_c, 15, 45, 0
17, 147600, Note_on_c, 15, 43, 74
17, 147704, Note_on_c, 15, 43, 0
17, 147720, Note_on_c, 15, 41, 76
17, 147824, Note_on_c, 15, 41, 0
17, 147840, Note_on_c, 15, 41, 80
17, 147959, Note_on_c, 15, 41, 0
17, 147960, Note_on_c, 15, 36, 80
17, 148079, Note_on_c, 15, 36, 0
17, 148080, Note_on_c, 15, 40, 80
17, 148199, Note_on_c, 15, 40, 0
17, 148200, Note_on_c, 15, 38, 80
17, 148319, Note_on_c, 15, 38, 0
17, 148320, Note_on_c, 15, 36, 80
17, 148424, Note_on_c, 15, 36, 0
17, 148440, Note_on_c, 15, 46, 80
17, 148544, Note_on_c, 15, 46, 0
17, 148560, Note_on_c, 15, 46, 80
17, 148679, Note_on_c, 15, 46, 0
17, 148680, Note_on_c, 15, 41, 80
17, 148799, Note_on_c, 15, 41, 0
17, 148800, Note_on_c, 15, 45, 80
17, 148919, Note_on_c, 15, 45, 0
17, 148920, Note_on_c, 15, 43, 80
17, 149039, Note_on_c, 15, 43, 0
17, 149040, Note_on_c, 15, 41, 80
17, 149144, Note_on_c, 15, 41, 0
17, 149160, Note_on_c, 15, 51, 84
17, 149264, Note_on_c, 15, 51, 0
17, 149280, Note_on_c, 15, 51, 84
17, 149519, Note_on_c, 15, 51, 0
17, 149520, Note_on_c, 15, 50, 84
17, 149639, Note_on_c, 15, 50, 0
17, 150600, Note_on_c, 15, 48, 84
17, 150704, Note_on_c, 15, 48, 0
17, 150720, Note_on_c, 15, 48, 84
17, 150959, Note_on_c, 15, 48, 0
17, 150960, Note_on_c, 15, 41, 84
17, 151079, Note_on_c, 15, 41, 0
17, 152040, Note_on_c, 15, 48, 84
17, 152144, Note_on_c, 15, 48, 0
17, 152160, Note_on_c, 15, 48, 84
17, 152399, Note_on_c, 15, 48, 0
17, 152400, Note_on_c, 15, 41, 84
17, 152519, Note_on_c, 15, 41, 0
17, 153480, Note_on_c, 15, 48, 84
17, 153584, Note_on_c, 15, 48, 0
17, 153600, Note_on_c, 15, 48, 84
17, 153839, Note_on_c, 15, 48, 0
17, 153840, Note_on_c, 15, 41, 84
17, 153959, Note_on_c, 15, 41, 0
17, 154560, Note_on_c, 15, 48, 84
17, 154799, Note_on_c, 15, 48, 0
17, 154800, Note_on_c, 15, 41, 84
17, 154919, Note_on_c, 15, 41, 0
17, 155520, Note_on_c, 15, 36, 92
17, 155579, Note_on_c, 15, 36, 0
17, 155580, Note_on_c, 15, 36, 84
17, 155759, Note_on_c, 15, 36, 0
17, 155760, Note_on_c, 15, 36, 84
17, 156479, Note_on_c, 15, 36, 0
17, 156480, Note_on_c, 15, 36, 84
17, 156719, Note_on_c, 15, 36, 0
17, 156720, Note_on_c, 15, 29, 84
17, 156824, Note_on_c, 15, 29, 0
17, 156824, End_track
18, 0, Start_track
18, 0, Title_t, "Ludwig van Beethoven - Symphony No. 8 in F Major, Op.93 - 3. Tempo di Menuetto"
18, 0, MIDI_port, 0
18, 0, End_track
0, 0, End_of_file
