0, 0, Header, 1, 21, 240
1, 0, Start_track
1, 0, Sequencer_specific, 10, 0, 0, 91, 35, 1, 0, 5, 6, 42, 0
1, 0, Title_t, "Ludwig van Beethoven - Symphony No. 9 in D minor, Op.125"
1, 0, Instrument_name_t, "Conductor Track"
1, 0, SMPTE_offset, 96, 0, 3, 0, 0
1, 0, MIDI_port, 0
1, 0, Key_signature, -1, "minor"
1, 0, Tempo, 344827
1, 0, Time_signature, 3, 3, 12, 8
1, 114120, Time_signature, 6, 3, 36, 8
1, 114360, Tempo, 1111111
1, 114840, Key_signature, 1, "minor"
1, 114840, Time_signature, 3, 3, 12, 8
1, 114840, Tempo, 344827
1, 121320, Key_signature, -1, "minor"
1, 201240, Time_signature, 6, 3, 36, 8
1, 201480, Tempo, 1111111
1, 201960, Key_signature, 1, "minor"
1, 201960, Tempo, 344827
1, 201960, Time_signature, 3, 3, 12, 8
1, 208440, Key_signature, -1, "minor"
1, 280440, Time_signature, 6, 3, 36, 8
1, 280680, Tempo, 1111111
1, 281160, Time_signature, 3, 3, 12, 8
1, 281160, Tempo, 344827
1, 284040, Tempo, 344827
1, 284100, Tempo, 342857
1, 284160, Tempo, 340909
1, 284220, Tempo, 337078
1, 284280, Tempo, 335195
1, 284340, Tempo, 333333
1, 284400, Tempo, 331491
1, 284460, Tempo, 329670
1, 284520, Tempo, 326086
1, 284580, Tempo, 324324
1, 284640, Tempo, 322580
1, 284700, Tempo, 320855
1, 284760, Tempo, 317460
1, 284820, Tempo, 315789
1, 284880, Tempo, 314136
1, 284940, Tempo, 312500
1, 285000, Tempo, 310880
1, 285060, Tempo, 307692
1, 285120, Tempo, 306122
1, 285180, Tempo, 304568
1, 285240, Tempo, 303030
1, 285300, Tempo, 301507
1, 285360, Tempo, 298507
1, 285420, Tempo, 297029
1, 285480, Tempo, 295566
1, 285540, Tempo, 294117
1, 285600, Tempo, 292682
1, 285660, Tempo, 289855
1, 285720, Tempo, 288461
1, 285780, Tempo, 287081
1, 285840, Tempo, 285714
1, 285900, Tempo, 284360
1, 285960, Tempo, 281690
1, 286020, Tempo, 280373
1, 286080, Tempo, 279069
1, 286140, Tempo, 277777
1, 286200, Tempo, 275229
1, 286260, Tempo, 273972
1, 286320, Tempo, 272727
1, 286380, Tempo, 271493
1, 286440, Tempo, 270270
1, 286500, Tempo, 267857
1, 286560, Tempo, 266666
1, 286620, Tempo, 265486
1, 286680, Tempo, 264317
1, 286740, Tempo, 263157
1, 286800, Tempo, 260869
1, 286860, Tempo, 259740
1, 286920, Time_signature, 4, 3, 12, 8
1, 286920, Tempo, 258620
1, 288840, Key_signature, 2, "major"
1, 380520, Time_signature, 6, 3, 36, 8
1, 380520, Tempo, 258620
1, 380550, Tempo, 260869
1, 380580, Tempo, 263157
1, 380610, Tempo, 265486
1, 380640, Tempo, 267857
1, 380670, Tempo, 270270
1, 380700, Tempo, 272727
1, 380730, Tempo, 275229
1, 380760, Tempo, 277777
1, 380790, Tempo, 280373
1, 380820, Tempo, 283018
1, 380850, Tempo, 285714
1, 380880, Tempo, 1500000
1, 381210, Tempo, 3750000
1, 381240, Time_signature, 3, 3, 12, 8
1, 381240, Tempo, 344827
1, 381240, Key_signature, -1, "minor"
1, 495360, Time_signature, 6, 3, 36, 8
1, 495600, Tempo, 1111111
1, 496080, Key_signature, 1, "minor"
1, 496080, Time_signature, 3, 3, 12, 8
1, 496080, Tempo, 344827
1, 502560, Key_signature, -1, "minor"
1, 574560, Time_signature, 6, 3, 36, 8
1, 574800, Tempo, 1111111
1, 575280, Time_signature, 3, 3, 12, 8
1, 575280, Tempo, 344827
1, 578160, Tempo, 344827
1, 578220, Tempo, 342857
1, 578280, Tempo, 340909
1, 578340, Tempo, 337078
1, 578400, Tempo, 335195
1, 578460, Tempo, 333333
1, 578520, Tempo, 331491
1, 578580, Tempo, 329670
1, 578640, Tempo, 326086
1, 578700, Tempo, 324324
1, 578760, Tempo, 322580
1, 578820, Tempo, 320855
1, 578880, Tempo, 317460
1, 578940, Tempo, 315789
1, 579000, Tempo, 314136
1, 579060, Tempo, 312500
1, 579120, Tempo, 310880
1, 579180, Tempo, 307692
1, 579240, Tempo, 306122
1, 579300, Tempo, 304568
1, 579360, Tempo, 303030
1, 579420, Tempo, 301507
1, 579480, Tempo, 298507
1, 579540, Tempo, 297029
1, 579600, Tempo, 295566
1, 579660, Tempo, 294117
1, 579720, Tempo, 292682
1, 579780, Tempo, 289855
1, 579840, Tempo, 288461
1, 579900, Tempo, 287081
1, 579960, Tempo, 285714
1, 580020, Tempo, 284360
1, 580080, Tempo, 281690
1, 580140, Tempo, 280373
1, 580200, Tempo, 279069
1, 580260, Tempo, 277777
1, 580320, Tempo, 275229
1, 580380, Tempo, 273972
1, 580440, Tempo, 272727
1, 580500, Tempo, 271493
1, 580560, Tempo, 270270
1, 580620, Tempo, 267857
1, 580680, Tempo, 266666
1, 580740, Tempo, 265486
1, 580800, Tempo, 264317
1, 580860, Tempo, 263157
1, 580920, Tempo, 260869
1, 581040, Time_signature, 4, 3, 12, 8
1, 581040, Tempo, 258620
1, 582000, Key_signature, 2, "major"
1, 586800, Tempo, 500000
1, 586800, Time_signature, 4, 2, 24, 8
1, 586920, Tempo, 2000000
1, 587640, Tempo, 2000000
1, 587640, End_track
2, 0, Start_track
2, 0, Title_t, "2nd Movement - Molto vivace"
2, 0, MIDI_port, 0
2, 0, End_track
3, 0, Start_track
3, 0, Title_t, "Sequenced by D. L. Viens 23 Dec 2000"
3, 0, MIDI_port, 0
3, 0, End_track
4, 0, Start_track
4, 0, Title_t, "dlviens@empire.net"
4, 0, MIDI_port, 0
4, 0, End_track
5, 0, Start_track
5, 0, MIDI_port, 0
5, 0, End_track
6, 0, Start_track
6, 0, Title_t, "Flute"
6, 0, MIDI_port, 0
6, 0, Program_c, 0, 73
6, 0, Control_c, 0, 7, 96
6, 0, Control_c, 0, 10, 60
6, 0, Control_c, 0, 11, 127
6, 1800, Note_on_c, 0, 86, 92
6, 1964, Note_on_c, 0, 86, 0
6, 1980, Note_on_c, 0, 74, 92
6, 2024, Note_on_c, 0, 74, 0
6, 2040, Note_on_c, 0, 74, 92
6, 2159, Note_on_c, 0, 74, 0
6, 7200, Note_on_c, 0, 86, 32
6, 7319, Note_on_c, 0, 86, 0
6, 7560, Note_on_c, 0, 81, 32
6, 7679, Note_on_c, 0, 81, 0
6, 7920, Note_on_c, 0, 83, 32
6, 8039, Note_on_c, 0, 83, 0
6, 8280, Note_on_c, 0, 84, 32
6, 8399, Note_on_c, 0, 84, 0
6, 8640, Note_on_c, 0, 82, 32
6, 8729, Note_on_c, 0, 82, 0
6, 8760, Note_on_c, 0, 81, 32
6, 8849, Note_on_c, 0, 81, 0
6, 8880, Note_on_c, 0, 79, 32
6, 8969, Note_on_c, 0, 79, 0
6, 9000, Note_on_c, 0, 86, 32
6, 9119, Note_on_c, 0, 86, 0
6, 9360, Note_on_c, 0, 85, 32
6, 9479, Note_on_c, 0, 85, 0
6, 9720, Note_on_c, 0, 86, 32
6, 9839, Note_on_c, 0, 86, 0
6, 10080, Note_on_c, 0, 86, 32
6, 10199, Note_on_c, 0, 86, 0
6, 10440, Note_on_c, 0, 88, 32
6, 10559, Note_on_c, 0, 88, 0
6, 10800, Note_on_c, 0, 88, 32
6, 10919, Note_on_c, 0, 88, 0
6, 11160, Note_on_c, 0, 88, 32
6, 11279, Note_on_c, 0, 88, 0
6, 11520, Note_on_c, 0, 85, 32
6, 11520, Note_on_c, 0, 88, 32
6, 11639, Note_on_c, 0, 85, 0
6, 11639, Note_on_c, 0, 88, 0
6, 11880, Note_on_c, 0, 86, 32
6, 11880, Note_on_c, 0, 81, 32
6, 11999, Note_on_c, 0, 86, 0
6, 11999, Note_on_c, 0, 81, 0
6, 12240, Note_on_c, 0, 81, 32
6, 12240, Note_on_c, 0, 88, 32
6, 12359, Note_on_c, 0, 81, 0
6, 12359, Note_on_c, 0, 88, 0
6, 12600, Note_on_c, 0, 81, 32
6, 12600, Note_on_c, 0, 89, 32
6, 12719, Note_on_c, 0, 81, 0
6, 12719, Note_on_c, 0, 89, 0
6, 12960, Note_on_c, 0, 77, 32
6, 12960, Note_on_c, 0, 89, 32
6, 13049, Note_on_c, 0, 77, 0
6, 13049, Note_on_c, 0, 89, 0
6, 13080, Note_on_c, 0, 88, 32
6, 13080, Note_on_c, 0, 76, 32
6, 13169, Note_on_c, 0, 88, 0
6, 13169, Note_on_c, 0, 76, 0
6, 13200, Note_on_c, 0, 74, 32
6, 13200, Note_on_c, 0, 86, 32
6, 13289, Note_on_c, 0, 74, 0
6, 13289, Note_on_c, 0, 86, 0
6, 13320, Note_on_c, 0, 84, 32
6, 13320, Note_on_c, 0, 72, 32
6, 13409, Note_on_c, 0, 84, 0
6, 13409, Note_on_c, 0, 72, 0
6, 13440, Note_on_c, 0, 83, 32
6, 13440, Note_on_c, 0, 71, 32
6, 13529, Note_on_c, 0, 83, 0
6, 13529, Note_on_c, 0, 71, 0
6, 13560, Note_on_c, 0, 81, 32
6, 13560, Note_on_c, 0, 69, 32
6, 13649, Note_on_c, 0, 81, 0
6, 13649, Note_on_c, 0, 69, 0
6, 13680, Note_on_c, 0, 80, 32
6, 13680, Note_on_c, 0, 68, 32
6, 13769, Note_on_c, 0, 80, 0
6, 13769, Note_on_c, 0, 68, 0
6, 13800, Note_on_c, 0, 69, 32
6, 13800, Note_on_c, 0, 81, 32
6, 13889, Note_on_c, 0, 69, 0
6, 13889, Note_on_c, 0, 81, 0
6, 13920, Note_on_c, 0, 71, 32
6, 13920, Note_on_c, 0, 83, 32
6, 14009, Note_on_c, 0, 71, 0
6, 14009, Note_on_c, 0, 83, 0
6, 14040, Note_on_c, 0, 69, 32
6, 14040, Note_on_c, 0, 81, 32
6, 14129, Note_on_c, 0, 69, 0
6, 14129, Note_on_c, 0, 81, 0
6, 14160, Note_on_c, 0, 68, 32
6, 14160, Note_on_c, 0, 80, 32
6, 14249, Note_on_c, 0, 68, 0
6, 14249, Note_on_c, 0, 80, 0
6, 14280, Note_on_c, 0, 81, 32
6, 14280, Note_on_c, 0, 69, 32
6, 14369, Note_on_c, 0, 81, 0
6, 14369, Note_on_c, 0, 69, 0
6, 14640, Note_on_c, 0, 81, 32
6, 14640, Note_on_c, 0, 69, 32
6, 14759, Note_on_c, 0, 81, 0
6, 14759, Note_on_c, 0, 69, 0
6, 15000, Note_on_c, 0, 69, 32
6, 15000, Note_on_c, 0, 81, 32
6, 15119, Note_on_c, 0, 69, 0
6, 15119, Note_on_c, 0, 81, 0
6, 15360, Note_on_c, 0, 69, 32
6, 15360, Note_on_c, 0, 81, 32
6, 15479, Note_on_c, 0, 69, 0
6, 15479, Note_on_c, 0, 81, 0
6, 15720, Note_on_c, 0, 69, 32
6, 15720, Note_on_c, 0, 81, 32
6, 15839, Note_on_c, 0, 69, 0
6, 15839, Note_on_c, 0, 81, 0
6, 16080, Note_on_c, 0, 81, 32
6, 16080, Note_on_c, 0, 69, 32
6, 16199, Note_on_c, 0, 81, 0
6, 16199, Note_on_c, 0, 69, 0
6, 16440, Note_on_c, 0, 69, 37
6, 16440, Note_on_c, 0, 81, 37
6, 16559, Note_on_c, 0, 69, 0
6, 16559, Note_on_c, 0, 81, 0
6, 16800, Note_on_c, 0, 81, 42
6, 16800, Note_on_c, 0, 69, 42
6, 16919, Note_on_c, 0, 81, 0
6, 16919, Note_on_c, 0, 69, 0
6, 17160, Note_on_c, 0, 81, 47
6, 17160, Note_on_c, 0, 69, 47
6, 17279, Note_on_c, 0, 81, 0
6, 17279, Note_on_c, 0, 69, 0
6, 17520, Note_on_c, 0, 69, 53
6, 17520, Note_on_c, 0, 81, 53
6, 17639, Note_on_c, 0, 69, 0
6, 17639, Note_on_c, 0, 81, 0
6, 17880, Note_on_c, 0, 81, 58
6, 17880, Note_on_c, 0, 69, 58
6, 17999, Note_on_c, 0, 81, 0
6, 17999, Note_on_c, 0, 69, 0
6, 18240, Note_on_c, 0, 69, 63
6, 18240, Note_on_c, 0, 81, 63
6, 18359, Note_on_c, 0, 69, 0
6, 18359, Note_on_c, 0, 81, 0
6, 18600, Note_on_c, 0, 69, 69
6, 18600, Note_on_c, 0, 81, 69
6, 18719, Note_on_c, 0, 69, 0
6, 18719, Note_on_c, 0, 81, 0
6, 18960, Note_on_c, 0, 81, 74
6, 18960, Note_on_c, 0, 69, 74
6, 19079, Note_on_c, 0, 81, 0
6, 19079, Note_on_c, 0, 69, 0
6, 19320, Note_on_c, 0, 81, 79
6, 19439, Note_on_c, 0, 81, 0
6, 19440, Note_on_c, 0, 88, 81
6, 19440, Note_on_c, 0, 81, 81
6, 19544, Note_on_c, 0, 88, 0
6, 19544, Note_on_c, 0, 81, 0
6, 19560, Note_on_c, 0, 81, 83
6, 19560, Note_on_c, 0, 89, 83
6, 19664, Note_on_c, 0, 81, 0
6, 19664, Note_on_c, 0, 89, 0
6, 19680, Note_on_c, 0, 81, 84
6, 19680, Note_on_c, 0, 91, 84
6, 19784, Note_on_c, 0, 81, 0
6, 19784, Note_on_c, 0, 91, 0
6, 19800, Note_on_c, 0, 93, 86
6, 19800, Note_on_c, 0, 81, 86
6, 19964, Note_on_c, 0, 93, 0
6, 19964, Note_on_c, 0, 81, 0
6, 19980, Note_on_c, 0, 81, 89
6, 19980, Note_on_c, 0, 69, 89
6, 20024, Note_on_c, 0, 81, 0
6, 20024, Note_on_c, 0, 69, 0
6, 20040, Note_on_c, 0, 69, 90
6, 20040, Note_on_c, 0, 81, 90
6, 20144, Note_on_c, 0, 69, 0
6, 20144, Note_on_c, 0, 81, 0
6, 20160, Note_on_c, 0, 81, 92
6, 20160, Note_on_c, 0, 93, 92
6, 20324, Note_on_c, 0, 81, 0
6, 20324, Note_on_c, 0, 93, 0
6, 20340, Note_on_c, 0, 69, 92
6, 20340, Note_on_c, 0, 81, 92
6, 20384, Note_on_c, 0, 69, 0
6, 20384, Note_on_c, 0, 81, 0
6, 20400, Note_on_c, 0, 81, 92
6, 20400, Note_on_c, 0, 69, 92
6, 20504, Note_on_c, 0, 81, 0
6, 20504, Note_on_c, 0, 69, 0
6, 20520, Note_on_c, 0, 81, 92
6, 20520, Note_on_c, 0, 86, 92
6, 20624, Note_on_c, 0, 81, 0
6, 20624, Note_on_c, 0, 86, 0
6, 20640, Note_on_c, 0, 81, 92
6, 20640, Note_on_c, 0, 88, 92
6, 20744, Note_on_c, 0, 81, 0
6, 20744, Note_on_c, 0, 88, 0
6, 20760, Note_on_c, 0, 81, 92
6, 20760, Note_on_c, 0, 89, 92
6, 20864, Note_on_c, 0, 81, 0
6, 20864, Note_on_c, 0, 89, 0
6, 20880, Note_on_c, 0, 88, 92
6, 20880, Note_on_c, 0, 81, 92
6, 20984, Note_on_c, 0, 88, 0
6, 20984, Note_on_c, 0, 81, 0
6, 21000, Note_on_c, 0, 89, 92
6, 21000, Note_on_c, 0, 81, 92
6, 21104, Note_on_c, 0, 89, 0
6, 21104, Note_on_c, 0, 81, 0
6, 21120, Note_on_c, 0, 81, 92
6, 21120, Note_on_c, 0, 91, 92
6, 21224, Note_on_c, 0, 81, 0
6, 21224, Note_on_c, 0, 91, 0
6, 21240, Note_on_c, 0, 81, 92
6, 21240, Note_on_c, 0, 89, 92
6, 21344, Note_on_c, 0, 81, 0
6, 21344, Note_on_c, 0, 89, 0
6, 21360, Note_on_c, 0, 86, 92
6, 21360, Note_on_c, 0, 88, 92
6, 21464, Note_on_c, 0, 86, 0
6, 21464, Note_on_c, 0, 88, 0
6, 21480, Note_on_c, 0, 86, 92
6, 21584, Note_on_c, 0, 86, 0
6, 21600, Note_on_c, 0, 86, 80
6, 21600, Note_on_c, 0, 82, 80
6, 21704, Note_on_c, 0, 86, 0
6, 21704, Note_on_c, 0, 82, 0
6, 21720, Note_on_c, 0, 93, 80
6, 21720, Note_on_c, 0, 86, 80
6, 21824, Note_on_c, 0, 93, 0
6, 21824, Note_on_c, 0, 86, 0
6, 21840, Note_on_c, 0, 91, 80
6, 21840, Note_on_c, 0, 86, 80
6, 21944, Note_on_c, 0, 91, 0
6, 21944, Note_on_c, 0, 86, 0
6, 21960, Note_on_c, 0, 89, 80
6, 22064, Note_on_c, 0, 89, 0
6, 22080, Note_on_c, 0, 88, 80
6, 22184, Note_on_c, 0, 88, 0
6, 22200, Note_on_c, 0, 86, 80
6, 22200, Note_on_c, 0, 81, 80
6, 22304, Note_on_c, 0, 86, 0
6, 22304, Note_on_c, 0, 81, 0
6, 22320, Note_on_c, 0, 81, 80
6, 22320, Note_on_c, 0, 85, 80
6, 22424, Note_on_c, 0, 81, 0
6, 22424, Note_on_c, 0, 85, 0
6, 22440, Note_on_c, 0, 86, 80
6, 22440, Note_on_c, 0, 81, 80
6, 22544, Note_on_c, 0, 86, 0
6, 22544, Note_on_c, 0, 81, 0
6, 22560, Note_on_c, 0, 81, 80
6, 22560, Note_on_c, 0, 88, 80
6, 22664, Note_on_c, 0, 81, 0
6, 22664, Note_on_c, 0, 88, 0
6, 22680, Note_on_c, 0, 86, 80
6, 22680, Note_on_c, 0, 81, 80
6, 22784, Note_on_c, 0, 86, 0
6, 22784, Note_on_c, 0, 81, 0
6, 22800, Note_on_c, 0, 85, 80
6, 22800, Note_on_c, 0, 81, 80
6, 22904, Note_on_c, 0, 85, 0
6, 22904, Note_on_c, 0, 81, 0
6, 22920, Note_on_c, 0, 81, 80
6, 22920, Note_on_c, 0, 86, 80
6, 23024, Note_on_c, 0, 81, 0
6, 23024, Note_on_c, 0, 86, 0
6, 23040, Note_on_c, 0, 82, 80
6, 23144, Note_on_c, 0, 82, 0
6, 23160, Note_on_c, 0, 93, 80
6, 23160, Note_on_c, 0, 86, 80
6, 23264, Note_on_c, 0, 93, 0
6, 23264, Note_on_c, 0, 86, 0
6, 23280, Note_on_c, 0, 91, 80
6, 23280, Note_on_c, 0, 86, 80
6, 23384, Note_on_c, 0, 91, 0
6, 23384, Note_on_c, 0, 86, 0
6, 23400, Note_on_c, 0, 89, 80
6, 23400, Note_on_c, 0, 86, 80
6, 23504, Note_on_c, 0, 89, 0
6, 23504, Note_on_c, 0, 86, 0
6, 23520, Note_on_c, 0, 86, 80
6, 23520, Note_on_c, 0, 88, 80
6, 23624, Note_on_c, 0, 86, 0
6, 23624, Note_on_c, 0, 88, 0
6, 23640, Note_on_c, 0, 86, 80
6, 23744, Note_on_c, 0, 86, 0
6, 23760, Note_on_c, 0, 76, 80
6, 23760, Note_on_c, 0, 85, 80
6, 23864, Note_on_c, 0, 76, 0
6, 23864, Note_on_c, 0, 85, 0
6, 23880, Note_on_c, 0, 77, 80
6, 23880, Note_on_c, 0, 86, 80
6, 23984, Note_on_c, 0, 77, 0
6, 23984, Note_on_c, 0, 86, 0
6, 24000, Note_on_c, 0, 79, 80
6, 24000, Note_on_c, 0, 88, 80
6, 24104, Note_on_c, 0, 79, 0
6, 24104, Note_on_c, 0, 88, 0
6, 24120, Note_on_c, 0, 86, 80
6, 24120, Note_on_c, 0, 77, 80
6, 24224, Note_on_c, 0, 86, 0
6, 24224, Note_on_c, 0, 77, 0
6, 24240, Note_on_c, 0, 77, 80
6, 24240, Note_on_c, 0, 85, 80
6, 24344, Note_on_c, 0, 77, 0
6, 24344, Note_on_c, 0, 85, 0
6, 24360, Note_on_c, 0, 77, 80
6, 24360, Note_on_c, 0, 86, 80
6, 24464, Note_on_c, 0, 77, 0
6, 24464, Note_on_c, 0, 86, 0
6, 24480, Note_on_c, 0, 93, 80
6, 24480, Note_on_c, 0, 89, 80
6, 24584, Note_on_c, 0, 93, 0
6, 24584, Note_on_c, 0, 89, 0
6, 24600, Note_on_c, 0, 83, 80
6, 24600, Note_on_c, 0, 91, 80
6, 24704, Note_on_c, 0, 83, 0
6, 24704, Note_on_c, 0, 91, 0
6, 24720, Note_on_c, 0, 86, 80
6, 24720, Note_on_c, 0, 89, 80
6, 24824, Note_on_c, 0, 86, 0
6, 24824, Note_on_c, 0, 89, 0
6, 24840, Note_on_c, 0, 88, 80
6, 24840, Note_on_c, 0, 84, 80
6, 24944, Note_on_c, 0, 88, 0
6, 24944, Note_on_c, 0, 84, 0
6, 24960, Note_on_c, 0, 86, 80
6, 24960, Note_on_c, 0, 83, 80
6, 25064, Note_on_c, 0, 86, 0
6, 25064, Note_on_c, 0, 83, 0
6, 25080, Note_on_c, 0, 84, 80
6, 25080, Note_on_c, 0, 79, 80
6, 25184, Note_on_c, 0, 84, 0
6, 25184, Note_on_c, 0, 79, 0
6, 25200, Note_on_c, 0, 79, 80
6, 25200, Note_on_c, 0, 83, 80
6, 25304, Note_on_c, 0, 79, 0
6, 25304, Note_on_c, 0, 83, 0
6, 25320, Note_on_c, 0, 79, 80
6, 25320, Note_on_c, 0, 84, 80
6, 25424, Note_on_c, 0, 79, 0
6, 25424, Note_on_c, 0, 84, 0
6, 25440, Note_on_c, 0, 86, 80
6, 25440, Note_on_c, 0, 77, 80
6, 25544, Note_on_c, 0, 86, 0
6, 25544, Note_on_c, 0, 77, 0
6, 25560, Note_on_c, 0, 84, 80
6, 25560, Note_on_c, 0, 76, 80
6, 25664, Note_on_c, 0, 84, 0
6, 25664, Note_on_c, 0, 76, 0
6, 25680, Note_on_c, 0, 89, 80
6, 25680, Note_on_c, 0, 93, 80
6, 25784, Note_on_c, 0, 89, 0
6, 25784, Note_on_c, 0, 93, 0
6, 25800, Note_on_c, 0, 93, 80
6, 25800, Note_on_c, 0, 89, 80
6, 25904, Note_on_c, 0, 93, 0
6, 25904, Note_on_c, 0, 89, 0
6, 25920, Note_on_c, 0, 89, 80
6, 25920, Note_on_c, 0, 93, 80
6, 26024, Note_on_c, 0, 89, 0
6, 26024, Note_on_c, 0, 93, 0
6, 26040, Note_on_c, 0, 83, 80
6, 26040, Note_on_c, 0, 91, 80
6, 26144, Note_on_c, 0, 83, 0
6, 26144, Note_on_c, 0, 91, 0
6, 26160, Note_on_c, 0, 86, 80
6, 26160, Note_on_c, 0, 89, 80
6, 26264, Note_on_c, 0, 86, 0
6, 26264, Note_on_c, 0, 89, 0
6, 26280, Note_on_c, 0, 88, 80
6, 26280, Note_on_c, 0, 84, 80
6, 26384, Note_on_c, 0, 88, 0
6, 26384, Note_on_c, 0, 84, 0
6, 26400, Note_on_c, 0, 86, 80
6, 26400, Note_on_c, 0, 83, 80
6, 26504, Note_on_c, 0, 86, 0
6, 26504, Note_on_c, 0, 83, 0
6, 26520, Note_on_c, 0, 79, 80
6, 26520, Note_on_c, 0, 84, 80
6, 26624, Note_on_c, 0, 79, 0
6, 26624, Note_on_c, 0, 84, 0
6, 26640, Note_on_c, 0, 91, 80
6, 26640, Note_on_c, 0, 88, 80
6, 26744, Note_on_c, 0, 91, 0
6, 26744, Note_on_c, 0, 88, 0
6, 26760, Note_on_c, 0, 89, 80
6, 26760, Note_on_c, 0, 86, 80
6, 26864, Note_on_c, 0, 89, 0
6, 26864, Note_on_c, 0, 86, 0
6, 26880, Note_on_c, 0, 84, 80
6, 26880, Note_on_c, 0, 88, 80
6, 26984, Note_on_c, 0, 84, 0
6, 26984, Note_on_c, 0, 88, 0
6, 27000, Note_on_c, 0, 79, 80
6, 27000, Note_on_c, 0, 88, 80
6, 27104, Note_on_c, 0, 79, 0
6, 27104, Note_on_c, 0, 88, 0
6, 27120, Note_on_c, 0, 86, 80
6, 27120, Note_on_c, 0, 77, 80
6, 27224, Note_on_c, 0, 86, 0
6, 27224, Note_on_c, 0, 77, 0
6, 27240, Note_on_c, 0, 76, 80
6, 27240, Note_on_c, 0, 84, 80
6, 27344, Note_on_c, 0, 76, 0
6, 27344, Note_on_c, 0, 84, 0
6, 27360, Note_on_c, 0, 83, 80
6, 27360, Note_on_c, 0, 74, 80
6, 27479, Note_on_c, 0, 83, 0
6, 27479, Note_on_c, 0, 74, 0
6, 28320, Control_c, 0, 11, 87
6, 28440, Note_on_c, 0, 86, 68
6, 28470, Control_c, 0, 11, 89
6, 28500, Control_c, 0, 11, 90
6, 28530, Control_c, 0, 11, 92
6, 28560, Control_c, 0, 11, 94
6, 28590, Control_c, 0, 11, 95
6, 28620, Control_c, 0, 11, 97
6, 28650, Control_c, 0, 11, 99
6, 28680, Control_c, 0, 11, 100
6, 28710, Control_c, 0, 11, 102
6, 28740, Control_c, 0, 11, 104
6, 28770, Control_c, 0, 11, 105
6, 28800, Control_c, 0, 11, 107
6, 28830, Control_c, 0, 11, 109
6, 28860, Control_c, 0, 11, 110
6, 28890, Control_c, 0, 11, 112
6, 28920, Control_c, 0, 11, 114
6, 28950, Control_c, 0, 11, 115
6, 28980, Control_c, 0, 11, 117
6, 29010, Control_c, 0, 11, 119
6, 29040, Control_c, 0, 11, 120
6, 29070, Control_c, 0, 11, 122
6, 29100, Control_c, 0, 11, 124
6, 29130, Control_c, 0, 11, 125
6, 29159, Note_on_c, 0, 86, 0
6, 29160, Note_on_c, 0, 84, 68
6, 29160, Control_c, 0, 11, 127
6, 29205, Control_c, 0, 11, 125
6, 29250, Control_c, 0, 11, 124
6, 29295, Control_c, 0, 11, 122
6, 29340, Control_c, 0, 11, 120
6, 29385, Control_c, 0, 11, 119
6, 29430, Control_c, 0, 11, 117
6, 29475, Control_c, 0, 11, 115
6, 29520, Control_c, 0, 11, 114
6, 29565, Control_c, 0, 11, 112
6, 29610, Control_c, 0, 11, 110
6, 29655, Control_c, 0, 11, 109
6, 29700, Control_c, 0, 11, 107
6, 29745, Control_c, 0, 11, 105
6, 29790, Control_c, 0, 11, 104
6, 29835, Control_c, 0, 11, 102
6, 29879, Note_on_c, 0, 84, 0
6, 29880, Control_c, 0, 11, 100
6, 29880, Note_on_c, 0, 83, 68
6, 29925, Control_c, 0, 11, 99
6, 29970, Control_c, 0, 11, 97
6, 30015, Control_c, 0, 11, 95
6, 30060, Control_c, 0, 11, 94
6, 30105, Control_c, 0, 11, 92
6, 30150, Control_c, 0, 11, 90
6, 30195, Control_c, 0, 11, 87
6, 30239, Note_on_c, 0, 83, 0
6, 30960, Control_c, 0, 11, 47
6, 31005, Control_c, 0, 11, 49
6, 31050, Control_c, 0, 11, 50
6, 31095, Control_c, 0, 11, 52
6, 31140, Control_c, 0, 11, 54
6, 31185, Control_c, 0, 11, 55
6, 31230, Control_c, 0, 11, 57
6, 31275, Control_c, 0, 11, 59
6, 31320, Note_on_c, 0, 86, 92
6, 31320, Control_c, 0, 11, 60
6, 31320, Note_on_c, 0, 81, 92
6, 31365, Control_c, 0, 11, 62
6, 31410, Control_c, 0, 11, 64
6, 31455, Control_c, 0, 11, 65
6, 31500, Control_c, 0, 11, 67
6, 31545, Control_c, 0, 11, 69
6, 31590, Control_c, 0, 11, 70
6, 31635, Control_c, 0, 11, 72
6, 31679, Note_on_c, 0, 81, 0
6, 31680, Control_c, 0, 11, 74
6, 31680, Note_on_c, 0, 83, 92
6, 31725, Control_c, 0, 11, 75
6, 31770, Control_c, 0, 11, 77
6, 31815, Control_c, 0, 11, 79
6, 31860, Control_c, 0, 11, 80
6, 31905, Control_c, 0, 11, 82
6, 31950, Control_c, 0, 11, 84
6, 31995, Control_c, 0, 11, 85
6, 32039, Note_on_c, 0, 86, 0
6, 32039, Note_on_c, 0, 83, 0
6, 32040, Control_c, 0, 11, 87
6, 32040, Note_on_c, 0, 84, 92
6, 32085, Control_c, 0, 11, 89
6, 32130, Control_c, 0, 11, 90
6, 32175, Control_c, 0, 11, 92
6, 32220, Control_c, 0, 11, 94
6, 32265, Control_c, 0, 11, 95
6, 32310, Control_c, 0, 11, 97
6, 32355, Control_c, 0, 11, 99
6, 32400, Control_c, 0, 11, 100
6, 32445, Control_c, 0, 11, 102
6, 32490, Control_c, 0, 11, 104
6, 32535, Control_c, 0, 11, 105
6, 32580, Control_c, 0, 11, 107
6, 32625, Control_c, 0, 11, 109
6, 32670, Control_c, 0, 11, 110
6, 32715, Control_c, 0, 11, 112
6, 32759, Note_on_c, 0, 84, 0
6, 32760, Control_c, 0, 11, 114
6, 32760, Note_on_c, 0, 83, 92
6, 32805, Control_c, 0, 11, 115
6, 32850, Control_c, 0, 11, 117
6, 32895, Control_c, 0, 11, 119
6, 32940, Control_c, 0, 11, 120
6, 32985, Control_c, 0, 11, 122
6, 33030, Control_c, 0, 11, 124
6, 33075, Control_c, 0, 11, 127
6, 33104, Note_on_c, 0, 83, 0
6, 33120, Note_on_c, 0, 84, 92
6, 33360, Note_on_c, 0, 86, 92
6, 33419, Note_on_c, 0, 86, 0
6, 33420, Note_on_c, 0, 88, 92
6, 33464, Note_on_c, 0, 88, 0
6, 33480, Note_on_c, 0, 89, 92
6, 33599, Note_on_c, 0, 84, 0
6, 33599, Note_on_c, 0, 89, 0
6, 33720, Note_on_c, 0, 84, 92
6, 33720, Note_on_c, 0, 88, 92
6, 33809, Note_on_c, 0, 84, 0
6, 33809, Note_on_c, 0, 88, 0
6, 33840, Note_on_c, 0, 86, 92
6, 33840, Note_on_c, 0, 84, 92
6, 33929, Note_on_c, 0, 86, 0
6, 33929, Note_on_c, 0, 84, 0
6, 34080, Note_on_c, 0, 84, 92
6, 34169, Note_on_c, 0, 84, 0
6, 34200, Note_on_c, 0, 83, 92
6, 34200, Note_on_c, 0, 86, 92
6, 34289, Note_on_c, 0, 83, 0
6, 34289, Note_on_c, 0, 86, 0
6, 34440, Note_on_c, 0, 83, 92
6, 34529, Note_on_c, 0, 83, 0
6, 34560, Note_on_c, 0, 84, 92
6, 34560, Note_on_c, 0, 88, 92
6, 34799, Note_on_c, 0, 84, 0
6, 34799, Note_on_c, 0, 88, 0
6, 34800, Note_on_c, 0, 89, 92
6, 34800, Note_on_c, 0, 86, 92
6, 34859, Note_on_c, 0, 89, 0
6, 34859, Note_on_c, 0, 86, 0
6, 34860, Note_on_c, 0, 88, 92
6, 34860, Note_on_c, 0, 91, 92
6, 34904, Note_on_c, 0, 88, 0
6, 34904, Note_on_c, 0, 91, 0
6, 34920, Note_on_c, 0, 93, 92
6, 34920, Note_on_c, 0, 89, 92
6, 35009, Note_on_c, 0, 93, 0
6, 35009, Note_on_c, 0, 89, 0
6, 35160, Note_on_c, 0, 91, 92
6, 35160, Note_on_c, 0, 88, 92
6, 35249, Note_on_c, 0, 91, 0
6, 35249, Note_on_c, 0, 88, 0
6, 35280, Note_on_c, 0, 86, 92
6, 35280, Note_on_c, 0, 89, 92
6, 35369, Note_on_c, 0, 86, 0
6, 35369, Note_on_c, 0, 89, 0
6, 35520, Note_on_c, 0, 84, 92
6, 35520, Note_on_c, 0, 88, 92
6, 35609, Note_on_c, 0, 84, 0
6, 35609, Note_on_c, 0, 88, 0
6, 35640, Note_on_c, 0, 89, 92
6, 35640, Note_on_c, 0, 86, 92
6, 35729, Note_on_c, 0, 89, 0
6, 35729, Note_on_c, 0, 86, 0
6, 35880, Note_on_c, 0, 86, 92
6, 35880, Note_on_c, 0, 83, 92
6, 35969, Note_on_c, 0, 86, 0
6, 35969, Note_on_c, 0, 83, 0
6, 36000, Note_on_c, 0, 84, 92
6, 36089, Note_on_c, 0, 84, 0
6, 36120, Note_on_c, 0, 84, 92
6, 36239, Note_on_c, 0, 84, 0
6, 36240, Note_on_c, 0, 84, 92
6, 36240, Note_on_c, 0, 86, 92
6, 36299, Note_on_c, 0, 86, 0
6, 36300, Note_on_c, 0, 88, 92
6, 36329, Note_on_c, 0, 84, 0
6, 36344, Note_on_c, 0, 88, 0
6, 36360, Note_on_c, 0, 89, 92
6, 36360, Note_on_c, 0, 84, 92
6, 36449, Note_on_c, 0, 89, 0
6, 36449, Note_on_c, 0, 84, 0
6, 36480, Note_on_c, 0, 84, 92
6, 36480, Note_on_c, 0, 89, 92
6, 36569, Note_on_c, 0, 84, 0
6, 36569, Note_on_c, 0, 89, 0
6, 36600, Note_on_c, 0, 84, 92
6, 36600, Note_on_c, 0, 88, 92
6, 36689, Note_on_c, 0, 84, 0
6, 36689, Note_on_c, 0, 88, 0
6, 36720, Note_on_c, 0, 84, 92
6, 36720, Note_on_c, 0, 86, 92
6, 36809, Note_on_c, 0, 84, 0
6, 36809, Note_on_c, 0, 86, 0
6, 36840, Note_on_c, 0, 86, 92
6, 36840, Note_on_c, 0, 84, 92
6, 36929, Note_on_c, 0, 86, 0
6, 36929, Note_on_c, 0, 84, 0
6, 36960, Note_on_c, 0, 84, 92
6, 37049, Note_on_c, 0, 84, 0
6, 37080, Note_on_c, 0, 86, 92
6, 37169, Note_on_c, 0, 86, 0
6, 37200, Note_on_c, 0, 86, 92
6, 37289, Note_on_c, 0, 86, 0
6, 37320, Note_on_c, 0, 83, 92
6, 37409, Note_on_c, 0, 83, 0
6, 37440, Note_on_c, 0, 84, 92
6, 37440, Note_on_c, 0, 88, 92
6, 37529, Note_on_c, 0, 84, 0
6, 37529, Note_on_c, 0, 88, 0
6, 37560, Note_on_c, 0, 88, 92
6, 37560, Note_on_c, 0, 84, 92
6, 37679, Note_on_c, 0, 88, 0
6, 37679, Note_on_c, 0, 84, 0
6, 37680, Note_on_c, 0, 86, 92
6, 37680, Note_on_c, 0, 89, 92
6, 37739, Note_on_c, 0, 86, 0
6, 37739, Note_on_c, 0, 89, 0
6, 37740, Note_on_c, 0, 88, 92
6, 37740, Note_on_c, 0, 91, 92
6, 37784, Note_on_c, 0, 88, 0
6, 37784, Note_on_c, 0, 91, 0
6, 37800, Note_on_c, 0, 89, 92
6, 37800, Note_on_c, 0, 93, 92
6, 37889, Note_on_c, 0, 89, 0
6, 37889, Note_on_c, 0, 93, 0
6, 37920, Note_on_c, 0, 93, 92
6, 37920, Note_on_c, 0, 89, 92
6, 38009, Note_on_c, 0, 93, 0
6, 38009, Note_on_c, 0, 89, 0
6, 38040, Note_on_c, 0, 91, 92
6, 38040, Note_on_c, 0, 88, 92
6, 38129, Note_on_c, 0, 91, 0
6, 38129, Note_on_c, 0, 88, 0
6, 38160, Note_on_c, 0, 89, 92
6, 38160, Note_on_c, 0, 86, 92
6, 38249, Note_on_c, 0, 89, 0
6, 38249, Note_on_c, 0, 86, 0
6, 38280, Note_on_c, 0, 86, 92
6, 38280, Note_on_c, 0, 89, 92
6, 38369, Note_on_c, 0, 86, 0
6, 38369, Note_on_c, 0, 89, 0
6, 38400, Note_on_c, 0, 88, 92
6, 38400, Note_on_c, 0, 84, 92
6, 38489, Note_on_c, 0, 88, 0
6, 38489, Note_on_c, 0, 84, 0
6, 38520, Note_on_c, 0, 89, 92
6, 38520, Note_on_c, 0, 86, 92
6, 38609, Note_on_c, 0, 89, 0
6, 38609, Note_on_c, 0, 86, 0
6, 38640, Note_on_c, 0, 89, 92
6, 38640, Note_on_c, 0, 86, 92
6, 38729, Note_on_c, 0, 89, 0
6, 38729, Note_on_c, 0, 86, 0
6, 38760, Note_on_c, 0, 83, 92
6, 38760, Note_on_c, 0, 86, 92
6, 38849, Note_on_c, 0, 83, 0
6, 38849, Note_on_c, 0, 86, 0
6, 38880, Note_on_c, 0, 88, 92
6, 39044, Note_on_c, 0, 88, 0
6, 39060, Note_on_c, 0, 76, 92
6, 39104, Note_on_c, 0, 76, 0
6, 39120, Note_on_c, 0, 76, 92
6, 39224, Note_on_c, 0, 76, 0
6, 39240, Note_on_c, 0, 88, 92
6, 39329, Note_on_c, 0, 88, 0
6, 39360, Note_on_c, 0, 89, 92
6, 39449, Note_on_c, 0, 89, 0
6, 39480, Note_on_c, 0, 91, 92
6, 39569, Note_on_c, 0, 91, 0
6, 39600, Note_on_c, 0, 93, 92
6, 39719, Note_on_c, 0, 93, 0
6, 39960, Note_on_c, 0, 69, 92
6, 39960, Note_on_c, 0, 81, 92
6, 40049, Note_on_c, 0, 69, 0
6, 40049, Note_on_c, 0, 81, 0
6, 40080, Note_on_c, 0, 83, 92
6, 40080, Note_on_c, 0, 71, 92
6, 40169, Note_on_c, 0, 83, 0
6, 40169, Note_on_c, 0, 71, 0
6, 40200, Note_on_c, 0, 72, 92
6, 40200, Note_on_c, 0, 84, 92
6, 40289, Note_on_c, 0, 72, 0
6, 40289, Note_on_c, 0, 84, 0
6, 40320, Note_on_c, 0, 86, 92
6, 40484, Note_on_c, 0, 86, 0
6, 40500, Note_on_c, 0, 74, 92
6, 40544, Note_on_c, 0, 74, 0
6, 40560, Note_on_c, 0, 74, 92
6, 40664, Note_on_c, 0, 74, 0
6, 40680, Note_on_c, 0, 74, 92
6, 40680, Note_on_c, 0, 86, 92
6, 40769, Note_on_c, 0, 74, 0
6, 40769, Note_on_c, 0, 86, 0
6, 40800, Note_on_c, 0, 88, 92
6, 40800, Note_on_c, 0, 76, 92
6, 40889, Note_on_c, 0, 88, 0
6, 40889, Note_on_c, 0, 76, 0
6, 40920, Note_on_c, 0, 89, 92
6, 40920, Note_on_c, 0, 77, 92
6, 41009, Note_on_c, 0, 89, 0
6, 41009, Note_on_c, 0, 77, 0
6, 41040, Note_on_c, 0, 91, 92
6, 41040, Note_on_c, 0, 79, 92
6, 41159, Note_on_c, 0, 91, 0
6, 41159, Note_on_c, 0, 79, 0
6, 41400, Note_on_c, 0, 79, 92
6, 41400, Note_on_c, 0, 67, 92
6, 41489, Note_on_c, 0, 79, 0
6, 41489, Note_on_c, 0, 67, 0
6, 41520, Note_on_c, 0, 72, 92
6, 41520, Note_on_c, 0, 84, 92
6, 41609, Note_on_c, 0, 72, 0
6, 41609, Note_on_c, 0, 84, 0
6, 41640, Note_on_c, 0, 74, 92
6, 41640, Note_on_c, 0, 86, 92
6, 41729, Note_on_c, 0, 74, 0
6, 41729, Note_on_c, 0, 86, 0
6, 41760, Note_on_c, 0, 76, 44
6, 41760, Note_on_c, 0, 88, 44
6, 41879, Note_on_c, 0, 76, 0
6, 41879, Note_on_c, 0, 88, 0
6, 43800, Control_c, 0, 11, 67
6, 43920, Note_on_c, 0, 89, 80
6, 43920, Note_on_c, 0, 84, 80
6, 43920, Control_c, 0, 11, 67
6, 43950, Control_c, 0, 11, 68
6, 43980, Control_c, 0, 11, 70
6, 44010, Control_c, 0, 11, 71
6, 44040, Control_c, 0, 11, 72
6, 44070, Control_c, 0, 11, 73
6, 44100, Control_c, 0, 11, 75
6, 44130, Control_c, 0, 11, 76
6, 44160, Control_c, 0, 11, 77
6, 44190, Control_c, 0, 11, 78
6, 44220, Control_c, 0, 11, 80
6, 44250, Control_c, 0, 11, 81
6, 44264, Note_on_c, 0, 89, 0
6, 44280, Note_on_c, 0, 88, 80
6, 44280, Control_c, 0, 11, 82
6, 44310, Control_c, 0, 11, 83
6, 44340, Control_c, 0, 11, 85
6, 44370, Control_c, 0, 11, 86
6, 44400, Control_c, 0, 11, 87
6, 44430, Control_c, 0, 11, 88
6, 44460, Control_c, 0, 11, 90
6, 44490, Control_c, 0, 11, 91
6, 44520, Control_c, 0, 11, 92
6, 44550, Control_c, 0, 11, 93
6, 44580, Control_c, 0, 11, 95
6, 44610, Control_c, 0, 11, 96
6, 44640, Control_c, 0, 11, 97
6, 44670, Control_c, 0, 11, 98
6, 44700, Control_c, 0, 11, 100
6, 44730, Control_c, 0, 11, 101
6, 44760, Control_c, 0, 11, 102
6, 44790, Control_c, 0, 11, 103
6, 44820, Control_c, 0, 11, 105
6, 44850, Control_c, 0, 11, 106
6, 44880, Control_c, 0, 11, 107
6, 44910, Control_c, 0, 11, 108
6, 44940, Control_c, 0, 11, 110
6, 44970, Control_c, 0, 11, 111
6, 45000, Control_c, 0, 11, 112
6, 45030, Control_c, 0, 11, 113
6, 45060, Control_c, 0, 11, 115
6, 45090, Control_c, 0, 11, 116
6, 45119, Note_on_c, 0, 84, 0
6, 45119, Note_on_c, 0, 88, 0
6, 45120, Note_on_c, 0, 89, 80
6, 45120, Note_on_c, 0, 86, 80
6, 45120, Control_c, 0, 11, 117
6, 45150, Control_c, 0, 11, 118
6, 45180, Control_c, 0, 11, 120
6, 45210, Control_c, 0, 11, 121
6, 45239, Note_on_c, 0, 89, 0
6, 45239, Note_on_c, 0, 86, 0
6, 45240, Note_on_c, 0, 91, 80
6, 45240, Control_c, 0, 11, 122
6, 45240, Note_on_c, 0, 88, 80
6, 45270, Control_c, 0, 11, 123
6, 45300, Control_c, 0, 11, 125
6, 45330, Control_c, 0, 11, 127
6, 45344, Note_on_c, 0, 91, 0
6, 45344, Note_on_c, 0, 88, 0
6, 45360, Note_on_c, 0, 91, 80
6, 45360, Note_on_c, 0, 79, 80
6, 45449, Note_on_c, 0, 91, 0
6, 45449, Note_on_c, 0, 79, 0
6, 45480, Note_on_c, 0, 88, 80
6, 45480, Note_on_c, 0, 76, 80
6, 45569, Note_on_c, 0, 88, 0
6, 45569, Note_on_c, 0, 76, 0
6, 45600, Note_on_c, 0, 93, 80
6, 45600, Note_on_c, 0, 81, 80
6, 45689, Note_on_c, 0, 93, 0
6, 45689, Note_on_c, 0, 81, 0
6, 45720, Note_on_c, 0, 77, 80
6, 45720, Note_on_c, 0, 89, 80
6, 45809, Note_on_c, 0, 77, 0
6, 45809, Note_on_c, 0, 89, 0
6, 45840, Note_on_c, 0, 74, 80
6, 45840, Note_on_c, 0, 86, 80
6, 45929, Note_on_c, 0, 74, 0
6, 45929, Note_on_c, 0, 86, 0
6, 45960, Note_on_c, 0, 91, 80
6, 45960, Note_on_c, 0, 79, 80
6, 46049, Note_on_c, 0, 91, 0
6, 46049, Note_on_c, 0, 79, 0
6, 46080, Note_on_c, 0, 88, 80
6, 46080, Note_on_c, 0, 76, 80
6, 46199, Note_on_c, 0, 88, 0
6, 46199, Note_on_c, 0, 76, 0
6, 46800, Note_on_c, 0, 91, 80
6, 46800, Note_on_c, 0, 79, 80
6, 46889, Note_on_c, 0, 91, 0
6, 46889, Note_on_c, 0, 79, 0
6, 46920, Note_on_c, 0, 76, 80
6, 46920, Note_on_c, 0, 88, 80
6, 47009, Note_on_c, 0, 76, 0
6, 47009, Note_on_c, 0, 88, 0
6, 47040, Note_on_c, 0, 81, 80
6, 47040, Note_on_c, 0, 93, 80
6, 47129, Note_on_c, 0, 81, 0
6, 47129, Note_on_c, 0, 93, 0
6, 47160, Note_on_c, 0, 89, 80
6, 47160, Note_on_c, 0, 77, 80
6, 47249, Note_on_c, 0, 89, 0
6, 47249, Note_on_c, 0, 77, 0
6, 47280, Note_on_c, 0, 74, 80
6, 47280, Note_on_c, 0, 86, 80
6, 47369, Note_on_c, 0, 74, 0
6, 47369, Note_on_c, 0, 86, 0
6, 47400, Note_on_c, 0, 91, 80
6, 47400, Note_on_c, 0, 79, 80
6, 47489, Note_on_c, 0, 91, 0
6, 47489, Note_on_c, 0, 79, 0
6, 47520, Note_on_c, 0, 91, 80
6, 47520, Note_on_c, 0, 79, 80
6, 47609, Note_on_c, 0, 91, 0
6, 47609, Note_on_c, 0, 79, 0
6, 47640, Note_on_c, 0, 79, 80
6, 47640, Note_on_c, 0, 91, 80
6, 47729, Note_on_c, 0, 79, 0
6, 47729, Note_on_c, 0, 91, 0
6, 47760, Note_on_c, 0, 91, 80
6, 47760, Note_on_c, 0, 79, 80
6, 47849, Note_on_c, 0, 91, 0
6, 47849, Note_on_c, 0, 79, 0
6, 47880, Note_on_c, 0, 79, 80
6, 47880, Note_on_c, 0, 91, 80
6, 47969, Note_on_c, 0, 79, 0
6, 47969, Note_on_c, 0, 91, 0
6, 48000, Note_on_c, 0, 79, 80
6, 48000, Note_on_c, 0, 91, 80
6, 48089, Note_on_c, 0, 79, 0
6, 48089, Note_on_c, 0, 91, 0
6, 48120, Note_on_c, 0, 91, 80
6, 48120, Note_on_c, 0, 79, 80
6, 48209, Note_on_c, 0, 91, 0
6, 48209, Note_on_c, 0, 79, 0
6, 48240, Note_on_c, 0, 88, 80
6, 48240, Note_on_c, 0, 84, 80
6, 48329, Note_on_c, 0, 88, 0
6, 48329, Note_on_c, 0, 84, 0
6, 48360, Note_on_c, 0, 84, 80
6, 48449, Note_on_c, 0, 84, 0
6, 48480, Note_on_c, 0, 91, 80
6, 48480, Note_on_c, 0, 88, 80
6, 48569, Note_on_c, 0, 91, 0
6, 48569, Note_on_c, 0, 88, 0
6, 48600, Note_on_c, 0, 86, 80
6, 48600, Note_on_c, 0, 89, 80
6, 48689, Note_on_c, 0, 86, 0
6, 48689, Note_on_c, 0, 89, 0
6, 48720, Note_on_c, 0, 86, 80
6, 48720, Note_on_c, 0, 83, 80
6, 48809, Note_on_c, 0, 86, 0
6, 48809, Note_on_c, 0, 83, 0
6, 48840, Note_on_c, 0, 91, 80
6, 48840, Note_on_c, 0, 83, 80
6, 48929, Note_on_c, 0, 91, 0
6, 48929, Note_on_c, 0, 83, 0
6, 48960, Note_on_c, 0, 84, 80
6, 48960, Note_on_c, 0, 88, 80
6, 49049, Note_on_c, 0, 84, 0
6, 49049, Note_on_c, 0, 88, 0
6, 49080, Note_on_c, 0, 84, 80
6, 49169, Note_on_c, 0, 84, 0
6, 49200, Note_on_c, 0, 91, 80
6, 49200, Note_on_c, 0, 88, 80
6, 49289, Note_on_c, 0, 91, 0
6, 49289, Note_on_c, 0, 88, 0
6, 49320, Note_on_c, 0, 89, 80
6, 49320, Note_on_c, 0, 86, 80
6, 49409, Note_on_c, 0, 89, 0
6, 49409, Note_on_c, 0, 86, 0
6, 49440, Note_on_c, 0, 83, 80
6, 49440, Note_on_c, 0, 86, 80
6, 49529, Note_on_c, 0, 83, 0
6, 49529, Note_on_c, 0, 86, 0
6, 49560, Note_on_c, 0, 91, 80
6, 49560, Note_on_c, 0, 83, 80
6, 49649, Note_on_c, 0, 91, 0
6, 49649, Note_on_c, 0, 83, 0
6, 49680, Note_on_c, 0, 79, 32
6, 49799, Note_on_c, 0, 79, 0
6, 49800, Note_on_c, 0, 81, 32
6, 49919, Note_on_c, 0, 81, 0
6, 49920, Note_on_c, 0, 83, 32
6, 50039, Note_on_c, 0, 83, 0
6, 50040, Note_on_c, 0, 84, 32
6, 50159, Note_on_c, 0, 84, 0
6, 50160, Note_on_c, 0, 86, 32
6, 50279, Note_on_c, 0, 86, 0
6, 50280, Note_on_c, 0, 88, 32
6, 50399, Note_on_c, 0, 88, 0
6, 50400, Note_on_c, 0, 89, 32
6, 50519, Note_on_c, 0, 89, 0
6, 50520, Note_on_c, 0, 88, 32
6, 50639, Note_on_c, 0, 88, 0
6, 50640, Note_on_c, 0, 89, 32
6, 50759, Note_on_c, 0, 89, 0
6, 50760, Note_on_c, 0, 91, 32
6, 50879, Note_on_c, 0, 91, 0
6, 50880, Note_on_c, 0, 93, 32
6, 50999, Note_on_c, 0, 93, 0
6, 51000, Note_on_c, 0, 83, 32
6, 51119, Note_on_c, 0, 83, 0
6, 51120, Note_on_c, 0, 84, 32
6, 51239, Note_on_c, 0, 84, 0
6, 51480, Note_on_c, 0, 84, 32
6, 51644, Note_on_c, 0, 84, 0
6, 51660, Note_on_c, 0, 72, 32
6, 51704, Note_on_c, 0, 72, 0
6, 51720, Note_on_c, 0, 72, 32
6, 51824, Note_on_c, 0, 72, 0
6, 51840, Note_on_c, 0, 72, 32
6, 51959, Note_on_c, 0, 72, 0
6, 52200, Note_on_c, 0, 86, 32
6, 52364, Note_on_c, 0, 86, 0
6, 52380, Note_on_c, 0, 74, 32
6, 52424, Note_on_c, 0, 74, 0
6, 52440, Note_on_c, 0, 74, 32
6, 52544, Note_on_c, 0, 74, 0
6, 52560, Note_on_c, 0, 74, 32
6, 52679, Note_on_c, 0, 74, 0
6, 58320, Note_on_c, 0, 86, 32
6, 58439, Note_on_c, 0, 86, 0
6, 58680, Note_on_c, 0, 81, 32
6, 58799, Note_on_c, 0, 81, 0
6, 59040, Note_on_c, 0, 83, 32
6, 59159, Note_on_c, 0, 83, 0
6, 59400, Note_on_c, 0, 84, 32
6, 59519, Note_on_c, 0, 84, 0
6, 59760, Note_on_c, 0, 82, 32
6, 59849, Note_on_c, 0, 82, 0
6, 59880, Note_on_c, 0, 81, 32
6, 59969, Note_on_c, 0, 81, 0
6, 60000, Note_on_c, 0, 79, 32
6, 60089, Note_on_c, 0, 79, 0
6, 60120, Note_on_c, 0, 86, 32
6, 60239, Note_on_c, 0, 86, 0
6, 60480, Note_on_c, 0, 85, 32
6, 60599, Note_on_c, 0, 85, 0
6, 60840, Note_on_c, 0, 86, 32
6, 60959, Note_on_c, 0, 86, 0
6, 61200, Note_on_c, 0, 86, 32
6, 61319, Note_on_c, 0, 86, 0
6, 61560, Note_on_c, 0, 88, 32
6, 61679, Note_on_c, 0, 88, 0
6, 61920, Note_on_c, 0, 88, 32
6, 62039, Note_on_c, 0, 88, 0
6, 62280, Note_on_c, 0, 88, 32
6, 62399, Note_on_c, 0, 88, 0
6, 62640, Note_on_c, 0, 88, 32
6, 62640, Note_on_c, 0, 85, 32
6, 62759, Note_on_c, 0, 88, 0
6, 62759, Note_on_c, 0, 85, 0
6, 63000, Note_on_c, 0, 86, 32
6, 63000, Note_on_c, 0, 81, 32
6, 63119, Note_on_c, 0, 86, 0
6, 63119, Note_on_c, 0, 81, 0
6, 63360, Note_on_c, 0, 88, 32
6, 63360, Note_on_c, 0, 81, 32
6, 63479, Note_on_c, 0, 88, 0
6, 63479, Note_on_c, 0, 81, 0
6, 63720, Note_on_c, 0, 89, 32
6, 63720, Note_on_c, 0, 81, 32
6, 63839, Note_on_c, 0, 89, 0
6, 63839, Note_on_c, 0, 81, 0
6, 64080, Note_on_c, 0, 77, 32
6, 64080, Note_on_c, 0, 89, 32
6, 64169, Note_on_c, 0, 77, 0
6, 64169, Note_on_c, 0, 89, 0
6, 64200, Note_on_c, 0, 76, 32
6, 64200, Note_on_c, 0, 88, 32
6, 64289, Note_on_c, 0, 76, 0
6, 64289, Note_on_c, 0, 88, 0
6, 64320, Note_on_c, 0, 86, 32
6, 64320, Note_on_c, 0, 74, 32
6, 64409, Note_on_c, 0, 86, 0
6, 64409, Note_on_c, 0, 74, 0
6, 64440, Note_on_c, 0, 84, 32
6, 64440, Note_on_c, 0, 72, 32
6, 64529, Note_on_c, 0, 84, 0
6, 64529, Note_on_c, 0, 72, 0
6, 64560, Note_on_c, 0, 83, 32
6, 64560, Note_on_c, 0, 71, 32
6, 64649, Note_on_c, 0, 83, 0
6, 64649, Note_on_c, 0, 71, 0
6, 64680, Note_on_c, 0, 81, 32
6, 64680, Note_on_c, 0, 69, 32
6, 64769, Note_on_c, 0, 81, 0
6, 64769, Note_on_c, 0, 69, 0
6, 64800, Note_on_c, 0, 80, 32
6, 64800, Note_on_c, 0, 68, 32
6, 64889, Note_on_c, 0, 80, 0
6, 64889, Note_on_c, 0, 68, 0
6, 64920, Note_on_c, 0, 81, 32
6, 64920, Note_on_c, 0, 69, 32
6, 65009, Note_on_c, 0, 81, 0
6, 65009, Note_on_c, 0, 69, 0
6, 65040, Note_on_c, 0, 71, 32
6, 65040, Note_on_c, 0, 83, 32
6, 65129, Note_on_c, 0, 71, 0
6, 65129, Note_on_c, 0, 83, 0
6, 65160, Note_on_c, 0, 81, 32
6, 65160, Note_on_c, 0, 69, 32
6, 65249, Note_on_c, 0, 81, 0
6, 65249, Note_on_c, 0, 69, 0
6, 65280, Note_on_c, 0, 68, 32
6, 65280, Note_on_c, 0, 80, 32
6, 65369, Note_on_c, 0, 68, 0
6, 65369, Note_on_c, 0, 80, 0
6, 65400, Note_on_c, 0, 81, 32
6, 65400, Note_on_c, 0, 69, 32
6, 65489, Note_on_c, 0, 81, 0
6, 65489, Note_on_c, 0, 69, 0
6, 65760, Note_on_c, 0, 69, 32
6, 65760, Note_on_c, 0, 81, 32
6, 65879, Note_on_c, 0, 69, 0
6, 65879, Note_on_c, 0, 81, 0
6, 66120, Note_on_c, 0, 69, 32
6, 66120, Note_on_c, 0, 81, 32
6, 66239, Note_on_c, 0, 69, 0
6, 66239, Note_on_c, 0, 81, 0
6, 66480, Note_on_c, 0, 69, 32
6, 66480, Note_on_c, 0, 81, 32
6, 66599, Note_on_c, 0, 69, 0
6, 66599, Note_on_c, 0, 81, 0
6, 66840, Note_on_c, 0, 81, 32
6, 66840, Note_on_c, 0, 69, 32
6, 66959, Note_on_c, 0, 81, 0
6, 66959, Note_on_c, 0, 69, 0
6, 67200, Note_on_c, 0, 69, 32
6, 67200, Note_on_c, 0, 81, 32
6, 67319, Note_on_c, 0, 69, 0
6, 67319, Note_on_c, 0, 81, 0
6, 67560, Note_on_c, 0, 69, 37
6, 67560, Note_on_c, 0, 81, 37
6, 67679, Note_on_c, 0, 69, 0
6, 67679, Note_on_c, 0, 81, 0
6, 67920, Note_on_c, 0, 81, 42
6, 67920, Note_on_c, 0, 69, 42
6, 68039, Note_on_c, 0, 81, 0
6, 68039, Note_on_c, 0, 69, 0
6, 68280, Note_on_c, 0, 81, 47
6, 68280, Note_on_c, 0, 69, 47
6, 68399, Note_on_c, 0, 81, 0
6, 68399, Note_on_c, 0, 69, 0
6, 68640, Note_on_c, 0, 69, 53
6, 68640, Note_on_c, 0, 81, 53
6, 68759, Note_on_c, 0, 69, 0
6, 68759, Note_on_c, 0, 81, 0
6, 69000, Note_on_c, 0, 81, 58
6, 69000, Note_on_c, 0, 69, 58
6, 69119, Note_on_c, 0, 81, 0
6, 69119, Note_on_c, 0, 69, 0
6, 69360, Note_on_c, 0, 81, 63
6, 69360, Note_on_c, 0, 69, 63
6, 69479, Note_on_c, 0, 81, 0
6, 69479, Note_on_c, 0, 69, 0
6, 69720, Note_on_c, 0, 81, 69
6, 69720, Note_on_c, 0, 69, 69
6, 69839, Note_on_c, 0, 81, 0
6, 69839, Note_on_c, 0, 69, 0
6, 70080, Note_on_c, 0, 69, 74
6, 70080, Note_on_c, 0, 81, 74
6, 70199, Note_on_c, 0, 69, 0
6, 70199, Note_on_c, 0, 81, 0
6, 70440, Note_on_c, 0, 81, 79
6, 70559, Note_on_c, 0, 81, 0
6, 70560, Note_on_c, 0, 88, 81
6, 70560, Note_on_c, 0, 81, 81
6, 70664, Note_on_c, 0, 88, 0
6, 70664, Note_on_c, 0, 81, 0
6, 70680, Note_on_c, 0, 89, 83
6, 70680, Note_on_c, 0, 81, 83
6, 70784, Note_on_c, 0, 89, 0
6, 70784, Note_on_c, 0, 81, 0
6, 70800, Note_on_c, 0, 91, 84
6, 70800, Note_on_c, 0, 81, 84
6, 70904, Note_on_c, 0, 91, 0
6, 70904, Note_on_c, 0, 81, 0
6, 70920, Note_on_c, 0, 93, 86
6, 70920, Note_on_c, 0, 81, 86
6, 71084, Note_on_c, 0, 93, 0
6, 71084, Note_on_c, 0, 81, 0
6, 71100, Note_on_c, 0, 69, 89
6, 71100, Note_on_c, 0, 81, 89
6, 71144, Note_on_c, 0, 69, 0
6, 71144, Note_on_c, 0, 81, 0
6, 71160, Note_on_c, 0, 81, 90
6, 71160, Note_on_c, 0, 69, 90
6, 71264, Note_on_c, 0, 81, 0
6, 71264, Note_on_c, 0, 69, 0
6, 71280, Note_on_c, 0, 81, 92
6, 71280, Note_on_c, 0, 93, 92
6, 71444, Note_on_c, 0, 81, 0
6, 71444, Note_on_c, 0, 93, 0
6, 71460, Note_on_c, 0, 81, 92
6, 71460, Note_on_c, 0, 69, 92
6, 71504, Note_on_c, 0, 81, 0
6, 71504, Note_on_c, 0, 69, 0
6, 71520, Note_on_c, 0, 81, 92
6, 71520, Note_on_c, 0, 69, 92
6, 71624, Note_on_c, 0, 81, 0
6, 71624, Note_on_c, 0, 69, 0
6, 71640, Note_on_c, 0, 81, 92
6, 71640, Note_on_c, 0, 86, 92
6, 71744, Note_on_c, 0, 81, 0
6, 71744, Note_on_c, 0, 86, 0
6, 71760, Note_on_c, 0, 81, 92
6, 71760, Note_on_c, 0, 88, 92
6, 71864, Note_on_c, 0, 81, 0
6, 71864, Note_on_c, 0, 88, 0
6, 71880, Note_on_c, 0, 81, 92
6, 71880, Note_on_c, 0, 89, 92
6, 71984, Note_on_c, 0, 81, 0
6, 71984, Note_on_c, 0, 89, 0
6, 72000, Note_on_c, 0, 88, 92
6, 72000, Note_on_c, 0, 81, 92
6, 72104, Note_on_c, 0, 88, 0
6, 72104, Note_on_c, 0, 81, 0
6, 72120, Note_on_c, 0, 81, 92
6, 72120, Note_on_c, 0, 89, 92
6, 72224, Note_on_c, 0, 81, 0
6, 72224, Note_on_c, 0, 89, 0
6, 72240, Note_on_c, 0, 81, 92
6, 72240, Note_on_c, 0, 91, 92
6, 72344, Note_on_c, 0, 81, 0
6, 72344, Note_on_c, 0, 91, 0
6, 72360, Note_on_c, 0, 89, 92
6, 72360, Note_on_c, 0, 81, 92
6, 72464, Note_on_c, 0, 89, 0
6, 72464, Note_on_c, 0, 81, 0
6, 72480, Note_on_c, 0, 88, 92
6, 72480, Note_on_c, 0, 86, 92
6, 72584, Note_on_c, 0, 88, 0
6, 72584, Note_on_c, 0, 86, 0
6, 72600, Note_on_c, 0, 86, 92
6, 72704, Note_on_c, 0, 86, 0
6, 72720, Note_on_c, 0, 86, 80
6, 72720, Note_on_c, 0, 82, 80
6, 72824, Note_on_c, 0, 86, 0
6, 72824, Note_on_c, 0, 82, 0
6, 72840, Note_on_c, 0, 93, 80
6, 72840, Note_on_c, 0, 86, 80
6, 72944, Note_on_c, 0, 93, 0
6, 72944, Note_on_c, 0, 86, 0
6, 72960, Note_on_c, 0, 86, 80
6, 72960, Note_on_c, 0, 91, 80
6, 73064, Note_on_c, 0, 86, 0
6, 73064, Note_on_c, 0, 91, 0
6, 73080, Note_on_c, 0, 89, 80
6, 73184, Note_on_c, 0, 89, 0
6, 73200, Note_on_c, 0, 88, 80
6, 73304, Note_on_c, 0, 88, 0
6, 73320, Note_on_c, 0, 86, 80
6, 73320, Note_on_c, 0, 81, 80
6, 73424, Note_on_c, 0, 86, 0
6, 73424, Note_on_c, 0, 81, 0
6, 73440, Note_on_c, 0, 81, 80
6, 73440, Note_on_c, 0, 85, 80
6, 73544, Note_on_c, 0, 81, 0
6, 73544, Note_on_c, 0, 85, 0
6, 73560, Note_on_c, 0, 81, 80
6, 73560, Note_on_c, 0, 86, 80
6, 73664, Note_on_c, 0, 81, 0
6, 73664, Note_on_c, 0, 86, 0
6, 73680, Note_on_c, 0, 81, 80
6, 73680, Note_on_c, 0, 88, 80
6, 73784, Note_on_c, 0, 81, 0
6, 73784, Note_on_c, 0, 88, 0
6, 73800, Note_on_c, 0, 81, 80
6, 73800, Note_on_c, 0, 86, 80
6, 73904, Note_on_c, 0, 81, 0
6, 73904, Note_on_c, 0, 86, 0
6, 73920, Note_on_c, 0, 81, 80
6, 73920, Note_on_c, 0, 85, 80
6, 74024, Note_on_c, 0, 81, 0
6, 74024, Note_on_c, 0, 85, 0
6, 74040, Note_on_c, 0, 81, 80
6, 74040, Note_on_c, 0, 86, 80
6, 74144, Note_on_c, 0, 81, 0
6, 74144, Note_on_c, 0, 86, 0
6, 74160, Note_on_c, 0, 82, 80
6, 74264, Note_on_c, 0, 82, 0
6, 74280, Note_on_c, 0, 86, 80
6, 74280, Note_on_c, 0, 93, 80
6, 74384, Note_on_c, 0, 86, 0
6, 74384, Note_on_c, 0, 93, 0
6, 74400, Note_on_c, 0, 86, 80
6, 74400, Note_on_c, 0, 91, 80
6, 74504, Note_on_c, 0, 86, 0
6, 74504, Note_on_c, 0, 91, 0
6, 74520, Note_on_c, 0, 89, 80
6, 74520, Note_on_c, 0, 86, 80
6, 74624, Note_on_c, 0, 89, 0
6, 74624, Note_on_c, 0, 86, 0
6, 74640, Note_on_c, 0, 86, 80
6, 74640, Note_on_c, 0, 88, 80
6, 74744, Note_on_c, 0, 86, 0
6, 74744, Note_on_c, 0, 88, 0
6, 74760, Note_on_c, 0, 86, 80
6, 74864, Note_on_c, 0, 86, 0
6, 74880, Note_on_c, 0, 85, 80
6, 74880, Note_on_c, 0, 76, 80
6, 74984, Note_on_c, 0, 85, 0
6, 74984, Note_on_c, 0, 76, 0
6, 75000, Note_on_c, 0, 77, 80
6, 75000, Note_on_c, 0, 86, 80
6, 75104, Note_on_c, 0, 77, 0
6, 75104, Note_on_c, 0, 86, 0
6, 75120, Note_on_c, 0, 88, 80
6, 75120, Note_on_c, 0, 79, 80
6, 75224, Note_on_c, 0, 88, 0
6, 75224, Note_on_c, 0, 79, 0
6, 75240, Note_on_c, 0, 77, 80
6, 75240, Note_on_c, 0, 86, 80
6, 75344, Note_on_c, 0, 77, 0
6, 75344, Note_on_c, 0, 86, 0
6, 75360, Note_on_c, 0, 85, 80
6, 75360, Note_on_c, 0, 77, 80
6, 75464, Note_on_c, 0, 85, 0
6, 75464, Note_on_c, 0, 77, 0
6, 75480, Note_on_c, 0, 86, 80
6, 75480, Note_on_c, 0, 77, 80
6, 75584, Note_on_c, 0, 86, 0
6, 75584, Note_on_c, 0, 77, 0
6, 75600, Note_on_c, 0, 93, 80
6, 75600, Note_on_c, 0, 89, 80
6, 75704, Note_on_c, 0, 93, 0
6, 75704, Note_on_c, 0, 89, 0
6, 75720, Note_on_c, 0, 83, 80
6, 75720, Note_on_c, 0, 91, 80
6, 75824, Note_on_c, 0, 83, 0
6, 75824, Note_on_c, 0, 91, 0
6, 75840, Note_on_c, 0, 89, 80
6, 75840, Note_on_c, 0, 86, 80
6, 75944, Note_on_c, 0, 89, 0
6, 75944, Note_on_c, 0, 86, 0
6, 75960, Note_on_c, 0, 84, 80
6, 75960, Note_on_c, 0, 88, 80
6, 76064, Note_on_c, 0, 84, 0
6, 76064, Note_on_c, 0, 88, 0
6, 76080, Note_on_c, 0, 86, 80
6, 76080, Note_on_c, 0, 83, 80
6, 76184, Note_on_c, 0, 86, 0
6, 76184, Note_on_c, 0, 83, 0
6, 76200, Note_on_c, 0, 84, 80
6, 76200, Note_on_c, 0, 79, 80
6, 76304, Note_on_c, 0, 84, 0
6, 76304, Note_on_c, 0, 79, 0
6, 76320, Note_on_c, 0, 83, 80
6, 76320, Note_on_c, 0, 79, 80
6, 76424, Note_on_c, 0, 83, 0
6, 76424, Note_on_c, 0, 79, 0
6, 76440, Note_on_c, 0, 84, 80
6, 76440, Note_on_c, 0, 79, 80
6, 76544, Note_on_c, 0, 84, 0
6, 76544, Note_on_c, 0, 79, 0
6, 76560, Note_on_c, 0, 77, 80
6, 76560, Note_on_c, 0, 86, 80
6, 76664, Note_on_c, 0, 77, 0
6, 76664, Note_on_c, 0, 86, 0
6, 76680, Note_on_c, 0, 76, 80
6, 76680, Note_on_c, 0, 84, 80
6, 76784, Note_on_c, 0, 76, 0
6, 76784, Note_on_c, 0, 84, 0
6, 76800, Note_on_c, 0, 93, 80
6, 76800, Note_on_c, 0, 89, 80
6, 76904, Note_on_c, 0, 93, 0
6, 76904, Note_on_c, 0, 89, 0
6, 76920, Note_on_c, 0, 93, 80
6, 76920, Note_on_c, 0, 89, 80
6, 77024, Note_on_c, 0, 93, 0
6, 77024, Note_on_c, 0, 89, 0
6, 77040, Note_on_c, 0, 93, 80
6, 77040, Note_on_c, 0, 89, 80
6, 77144, Note_on_c, 0, 93, 0
6, 77144, Note_on_c, 0, 89, 0
6, 77160, Note_on_c, 0, 83, 80
6, 77160, Note_on_c, 0, 91, 80
6, 77264, Note_on_c, 0, 83, 0
6, 77264, Note_on_c, 0, 91, 0
6, 77280, Note_on_c, 0, 89, 80
6, 77280, Note_on_c, 0, 86, 80
6, 77384, Note_on_c, 0, 89, 0
6, 77384, Note_on_c, 0, 86, 0
6, 77400, Note_on_c, 0, 88, 80
6, 77400, Note_on_c, 0, 84, 80
6, 77504, Note_on_c, 0, 88, 0
6, 77504, Note_on_c, 0, 84, 0
6, 77520, Note_on_c, 0, 83, 80
6, 77520, Note_on_c, 0, 86, 80
6, 77624, Note_on_c, 0, 83, 0
6, 77624, Note_on_c, 0, 86, 0
6, 77640, Note_on_c, 0, 79, 80
6, 77640, Note_on_c, 0, 84, 80
6, 77744, Note_on_c, 0, 79, 0
6, 77744, Note_on_c, 0, 84, 0
6, 77760, Note_on_c, 0, 88, 80
6, 77760, Note_on_c, 0, 91, 80
6, 77864, Note_on_c, 0, 88, 0
6, 77864, Note_on_c, 0, 91, 0
6, 77880, Note_on_c, 0, 89, 80
6, 77880, Note_on_c, 0, 86, 80
6, 77984, Note_on_c, 0, 89, 0
6, 77984, Note_on_c, 0, 86, 0
6, 78000, Note_on_c, 0, 88, 80
6, 78000, Note_on_c, 0, 84, 80
6, 78104, Note_on_c, 0, 88, 0
6, 78104, Note_on_c, 0, 84, 0
6, 78120, Note_on_c, 0, 88, 80
6, 78120, Note_on_c, 0, 79, 80
6, 78224, Note_on_c, 0, 88, 0
6, 78224, Note_on_c, 0, 79, 0
6, 78240, Note_on_c, 0, 77, 80
6, 78240, Note_on_c, 0, 86, 80
6, 78344, Note_on_c, 0, 77, 0
6, 78344, Note_on_c, 0, 86, 0
6, 78360, Note_on_c, 0, 84, 80
6, 78360, Note_on_c, 0, 76, 80
6, 78464, Note_on_c, 0, 84, 0
6, 78464, Note_on_c, 0, 76, 0
6, 78480, Note_on_c, 0, 74, 80
6, 78480, Note_on_c, 0, 83, 80
6, 78599, Note_on_c, 0, 74, 0
6, 78599, Note_on_c, 0, 83, 0
6, 79440, Control_c, 0, 11, 87
6, 79560, Note_on_c, 0, 86, 68
6, 79590, Control_c, 0, 11, 89
6, 79620, Control_c, 0, 11, 90
6, 79650, Control_c, 0, 11, 92
6, 79680, Control_c, 0, 11, 94
6, 79710, Control_c, 0, 11, 95
6, 79740, Control_c, 0, 11, 97
6, 79770, Control_c, 0, 11, 99
6, 79800, Control_c, 0, 11, 100
6, 79830, Control_c, 0, 11, 102
6, 79860, Control_c, 0, 11, 104
6, 79890, Control_c, 0, 11, 105
6, 79920, Control_c, 0, 11, 107
6, 79950, Control_c, 0, 11, 109
6, 79980, Control_c, 0, 11, 110
6, 80010, Control_c, 0, 11, 112
6, 80040, Control_c, 0, 11, 114
6, 80070, Control_c, 0, 11, 115
6, 80100, Control_c, 0, 11, 117
6, 80130, Control_c, 0, 11, 119
6, 80160, Control_c, 0, 11, 120
6, 80190, Control_c, 0, 11, 122
6, 80220, Control_c, 0, 11, 124
6, 80250, Control_c, 0, 11, 125
6, 80279, Note_on_c, 0, 86, 0
6, 80280, Control_c, 0, 11, 127
6, 80280, Note_on_c, 0, 84, 68
6, 80325, Control_c, 0, 11, 125
6, 80370, Control_c, 0, 11, 124
6, 80415, Control_c, 0, 11, 122
6, 80460, Control_c, 0, 11, 120
6, 80505, Control_c, 0, 11, 119
6, 80550, Control_c, 0, 11, 117
6, 80595, Control_c, 0, 11, 115
6, 80640, Control_c, 0, 11, 114
6, 80685, Control_c, 0, 11, 112
6, 80730, Control_c, 0, 11, 110
6, 80775, Control_c, 0, 11, 109
6, 80820, Control_c, 0, 11, 107
6, 80865, Control_c, 0, 11, 105
6, 80910, Control_c, 0, 11, 104
6, 80955, Control_c, 0, 11, 102
6, 80999, Note_on_c, 0, 84, 0
6, 81000, Note_on_c, 0, 83, 68
6, 81000, Control_c, 0, 11, 100
6, 81045, Control_c, 0, 11, 99
6, 81090, Control_c, 0, 11, 97
6, 81135, Control_c, 0, 11, 95
6, 81180, Control_c, 0, 11, 94
6, 81225, Control_c, 0, 11, 92
6, 81270, Control_c, 0, 11, 90
6, 81315, Control_c, 0, 11, 87
6, 81359, Note_on_c, 0, 83, 0
6, 82080, Control_c, 0, 11, 47
6, 82125, Control_c, 0, 11, 49
6, 82170, Control_c, 0, 11, 50
6, 82215, Control_c, 0, 11, 52
6, 82260, Control_c, 0, 11, 54
6, 82305, Control_c, 0, 11, 55
6, 82350, Control_c, 0, 11, 57
6, 82395, Control_c, 0, 11, 59
6, 82440, Control_c, 0, 11, 60
6, 82440, Note_on_c, 0, 86, 92
6, 82440, Note_on_c, 0, 81, 92
6, 82485, Control_c, 0, 11, 62
6, 82530, Control_c, 0, 11, 64
6, 82575, Control_c, 0, 11, 65
6, 82620, Control_c, 0, 11, 67
6, 82665, Control_c, 0, 11, 69
6, 82710, Control_c, 0, 11, 70
6, 82755, Control_c, 0, 11, 72
6, 82799, Note_on_c, 0, 81, 0
6, 82800, Control_c, 0, 11, 74
6, 82800, Note_on_c, 0, 83, 92
6, 82845, Control_c, 0, 11, 75
6, 82890, Control_c, 0, 11, 77
6, 82935, Control_c, 0, 11, 79
6, 82980, Control_c, 0, 11, 80
6, 83025, Control_c, 0, 11, 82
6, 83070, Control_c, 0, 11, 84
6, 83115, Control_c, 0, 11, 85
6, 83159, Note_on_c, 0, 86, 0
6, 83159, Note_on_c, 0, 83, 0
6, 83160, Note_on_c, 0, 84, 92
6, 83160, Control_c, 0, 11, 87
6, 83205, Control_c, 0, 11, 89
6, 83250, Control_c, 0, 11, 90
6, 83295, Control_c, 0, 11, 92
6, 83340, Control_c, 0, 11, 94
6, 83385, Control_c, 0, 11, 95
6, 83430, Control_c, 0, 11, 97
6, 83475, Control_c, 0, 11, 99
6, 83520, Control_c, 0, 11, 100
6, 83565, Control_c, 0, 11, 102
6, 83610, Control_c, 0, 11, 104
6, 83655, Control_c, 0, 11, 105
6, 83700, Control_c, 0, 11, 107
6, 83745, Control_c, 0, 11, 109
6, 83790, Control_c, 0, 11, 110
6, 83835, Control_c, 0, 11, 112
6, 83879, Note_on_c, 0, 84, 0
6, 83880, Note_on_c, 0, 83, 92
6, 83880, Control_c, 0, 11, 114
6, 83925, Control_c, 0, 11, 115
6, 83970, Control_c, 0, 11, 117
6, 84015, Control_c, 0, 11, 119
6, 84060, Control_c, 0, 11, 120
6, 84105, Control_c, 0, 11, 122
6, 84150, Control_c, 0, 11, 124
6, 84195, Control_c, 0, 11, 127
6, 84224, Note_on_c, 0, 83, 0
6, 84240, Note_on_c, 0, 84, 92
6, 84480, Note_on_c, 0, 86, 92
6, 84539, Note_on_c, 0, 86, 0
6, 84540, Note_on_c, 0, 88, 92
6, 84584, Note_on_c, 0, 88, 0
6, 84600, Note_on_c, 0, 89, 92
6, 84719, Note_on_c, 0, 84, 0
6, 84719, Note_on_c, 0, 89, 0
6, 84840, Note_on_c, 0, 84, 92
6, 84840, Note_on_c, 0, 88, 92
6, 84929, Note_on_c, 0, 84, 0
6, 84929, Note_on_c, 0, 88, 0
6, 84960, Note_on_c, 0, 86, 92
6, 84960, Note_on_c, 0, 84, 92
6, 85049, Note_on_c, 0, 86, 0
6, 85049, Note_on_c, 0, 84, 0
6, 85200, Note_on_c, 0, 84, 92
6, 85289, Note_on_c, 0, 84, 0
6, 85320, Note_on_c, 0, 86, 92
6, 85320, Note_on_c, 0, 83, 92
6, 85409, Note_on_c, 0, 86, 0
6, 85409, Note_on_c, 0, 83, 0
6, 85560, Note_on_c, 0, 83, 92
6, 85649, Note_on_c, 0, 83, 0
6, 85680, Note_on_c, 0, 84, 92
6, 85680, Note_on_c, 0, 88, 92
6, 85919, Note_on_c, 0, 84, 0
6, 85919, Note_on_c, 0, 88, 0
6, 85920, Note_on_c, 0, 86, 92
6, 85920, Note_on_c, 0, 89, 92
6, 85979, Note_on_c, 0, 86, 0
6, 85979, Note_on_c, 0, 89, 0
6, 85980, Note_on_c, 0, 91, 92
6, 85980, Note_on_c, 0, 88, 92
6, 86024, Note_on_c, 0, 91, 0
6, 86024, Note_on_c, 0, 88, 0
6, 86040, Note_on_c, 0, 93, 92
6, 86040, Note_on_c, 0, 89, 92
6, 86129, Note_on_c, 0, 93, 0
6, 86129, Note_on_c, 0, 89, 0
6, 86280, Note_on_c, 0, 91, 92
6, 86280, Note_on_c, 0, 88, 92
6, 86369, Note_on_c, 0, 91, 0
6, 86369, Note_on_c, 0, 88, 0
6, 86400, Note_on_c, 0, 86, 92
6, 86400, Note_on_c, 0, 89, 92
6, 86489, Note_on_c, 0, 86, 0
6, 86489, Note_on_c, 0, 89, 0
6, 86640, Note_on_c, 0, 84, 92
6, 86640, Note_on_c, 0, 88, 92
6, 86729, Note_on_c, 0, 84, 0
6, 86729, Note_on_c, 0, 88, 0
6, 86760, Note_on_c, 0, 86, 92
6, 86760, Note_on_c, 0, 89, 92
6, 86849, Note_on_c, 0, 86, 0
6, 86849, Note_on_c, 0, 89, 0
6, 87000, Note_on_c, 0, 86, 92
6, 87000, Note_on_c, 0, 83, 92
6, 87089, Note_on_c, 0, 86, 0
6, 87089, Note_on_c, 0, 83, 0
6, 87120, Note_on_c, 0, 84, 92
6, 87209, Note_on_c, 0, 84, 0
6, 87240, Note_on_c, 0, 84, 92
6, 87359, Note_on_c, 0, 84, 0
6, 87360, Note_on_c, 0, 86, 92
6, 87360, Note_on_c, 0, 84, 92
6, 87419, Note_on_c, 0, 86, 0
6, 87420, Note_on_c, 0, 88, 92
6, 87449, Note_on_c, 0, 84, 0
6, 87464, Note_on_c, 0, 88, 0
6, 87480, Note_on_c, 0, 89, 92
6, 87480, Note_on_c, 0, 84, 92
6, 87569, Note_on_c, 0, 89, 0
6, 87569, Note_on_c, 0, 84, 0
6, 87600, Note_on_c, 0, 89, 92
6, 87600, Note_on_c, 0, 84, 92
6, 87689, Note_on_c, 0, 89, 0
6, 87689, Note_on_c, 0, 84, 0
6, 87720, Note_on_c, 0, 88, 92
6, 87720, Note_on_c, 0, 84, 92
6, 87809, Note_on_c, 0, 88, 0
6, 87809, Note_on_c, 0, 84, 0
6, 87840, Note_on_c, 0, 84, 92
6, 87840, Note_on_c, 0, 86, 92
6, 87929, Note_on_c, 0, 84, 0
6, 87929, Note_on_c, 0, 86, 0
6, 87960, Note_on_c, 0, 86, 92
6, 87960, Note_on_c, 0, 84, 92
6, 88049, Note_on_c, 0, 86, 0
6, 88049, Note_on_c, 0, 84, 0
6, 88080, Note_on_c, 0, 84, 92
6, 88169, Note_on_c, 0, 84, 0
6, 88200, Note_on_c, 0, 86, 92
6, 88289, Note_on_c, 0, 86, 0
6, 88320, Note_on_c, 0, 86, 92
6, 88409, Note_on_c, 0, 86, 0
6, 88440, Note_on_c, 0, 83, 92
6, 88529, Note_on_c, 0, 83, 0
6, 88560, Note_on_c, 0, 88, 92
6, 88560, Note_on_c, 0, 84, 92
6, 88649, Note_on_c, 0, 88, 0
6, 88649, Note_on_c, 0, 84, 0
6, 88680, Note_on_c, 0, 84, 92
6, 88680, Note_on_c, 0, 88, 92
6, 88799, Note_on_c, 0, 84, 0
6, 88799, Note_on_c, 0, 88, 0
6, 88800, Note_on_c, 0, 89, 92
6, 88800, Note_on_c, 0, 86, 92
6, 88859, Note_on_c, 0, 89, 0
6, 88859, Note_on_c, 0, 86, 0
6, 88860, Note_on_c, 0, 91, 92
6, 88860, Note_on_c, 0, 88, 92
6, 88904, Note_on_c, 0, 91, 0
6, 88904, Note_on_c, 0, 88, 0
6, 88920, Note_on_c, 0, 89, 92
6, 88920, Note_on_c, 0, 93, 92
6, 89009, Note_on_c, 0, 89, 0
6, 89009, Note_on_c, 0, 93, 0
6, 89040, Note_on_c, 0, 89, 92
6, 89040, Note_on_c, 0, 93, 92
6, 89129, Note_on_c, 0, 89, 0
6, 89129, Note_on_c, 0, 93, 0
6, 89160, Note_on_c, 0, 88, 92
6, 89160, Note_on_c, 0, 91, 92
6, 89249, Note_on_c, 0, 88, 0
6, 89249, Note_on_c, 0, 91, 0
6, 89280, Note_on_c, 0, 86, 92
6, 89280, Note_on_c, 0, 89, 92
6, 89369, Note_on_c, 0, 86, 0
6, 89369, Note_on_c, 0, 89, 0
6, 89400, Note_on_c, 0, 86, 92
6, 89400, Note_on_c, 0, 89, 92
6, 89489, Note_on_c, 0, 86, 0
6, 89489, Note_on_c, 0, 89, 0
6, 89520, Note_on_c, 0, 84, 92
6, 89520, Note_on_c, 0, 88, 92
6, 89609, Note_on_c, 0, 84, 0
6, 89609, Note_on_c, 0, 88, 0
6, 89640, Note_on_c, 0, 86, 92
6, 89640, Note_on_c, 0, 89, 92
6, 89729, Note_on_c, 0, 86, 0
6, 89729, Note_on_c, 0, 89, 0
6, 89760, Note_on_c, 0, 86, 92
6, 89760, Note_on_c, 0, 89, 92
6, 89849, Note_on_c, 0, 86, 0
6, 89849, Note_on_c, 0, 89, 0
6, 89880, Note_on_c, 0, 86, 92
6, 89880, Note_on_c, 0, 83, 92
6, 89969, Note_on_c, 0, 86, 0
6, 89969, Note_on_c, 0, 83, 0
6, 90000, Note_on_c, 0, 88, 92
6, 90164, Note_on_c, 0, 88, 0
6, 90180, Note_on_c, 0, 76, 92
6, 90224, Note_on_c, 0, 76, 0
6, 90240, Note_on_c, 0, 76, 92
6, 90344, Note_on_c, 0, 76, 0
6, 90360, Note_on_c, 0, 88, 92
6, 90449, Note_on_c, 0, 88, 0
6, 90480, Note_on_c, 0, 89, 92
6, 90569, Note_on_c, 0, 89, 0
6, 90600, Note_on_c, 0, 91, 92
6, 90689, Note_on_c, 0, 91, 0
6, 90720, Note_on_c, 0, 93, 92
6, 90839, Note_on_c, 0, 93, 0
6, 91080, Note_on_c, 0, 81, 92
6, 91080, Note_on_c, 0, 69, 92
6, 91169, Note_on_c, 0, 81, 0
6, 91169, Note_on_c, 0, 69, 0
6, 91200, Note_on_c, 0, 83, 92
6, 91200, Note_on_c, 0, 71, 92
6, 91289, Note_on_c, 0, 83, 0
6, 91289, Note_on_c, 0, 71, 0
6, 91320, Note_on_c, 0, 84, 92
6, 91320, Note_on_c, 0, 72, 92
6, 91409, Note_on_c, 0, 84, 0
6, 91409, Note_on_c, 0, 72, 0
6, 91440, Note_on_c, 0, 86, 92
6, 91604, Note_on_c, 0, 86, 0
6, 91620, Note_on_c, 0, 74, 92
6, 91664, Note_on_c, 0, 74, 0
6, 91680, Note_on_c, 0, 74, 92
6, 91784, Note_on_c, 0, 74, 0
6, 91800, Note_on_c, 0, 86, 92
6, 91800, Note_on_c, 0, 74, 92
6, 91889, Note_on_c, 0, 86, 0
6, 91889, Note_on_c, 0, 74, 0
6, 91920, Note_on_c, 0, 76, 92
6, 91920, Note_on_c, 0, 88, 92
6, 92009, Note_on_c, 0, 76, 0
6, 92009, Note_on_c, 0, 88, 0
6, 92040, Note_on_c, 0, 77, 92
6, 92040, Note_on_c, 0, 89, 92
6, 92129, Note_on_c, 0, 77, 0
6, 92129, Note_on_c, 0, 89, 0
6, 92160, Note_on_c, 0, 91, 92
6, 92160, Note_on_c, 0, 79, 92
6, 92279, Note_on_c, 0, 91, 0
6, 92279, Note_on_c, 0, 79, 0
6, 92520, Note_on_c, 0, 67, 92
6, 92520, Note_on_c, 0, 79, 92
6, 92609, Note_on_c, 0, 67, 0
6, 92609, Note_on_c, 0, 79, 0
6, 92640, Note_on_c, 0, 84, 92
6, 92640, Note_on_c, 0, 72, 92
6, 92729, Note_on_c, 0, 84, 0
6, 92729, Note_on_c, 0, 72, 0
6, 92760, Note_on_c, 0, 86, 92
6, 92760, Note_on_c, 0, 74, 92
6, 92849, Note_on_c, 0, 86, 0
6, 92849, Note_on_c, 0, 74, 0
6, 92880, Note_on_c, 0, 88, 44
6, 92880, Note_on_c, 0, 76, 44
6, 92999, Note_on_c, 0, 88, 0
6, 92999, Note_on_c, 0, 76, 0
6, 94920, Control_c, 0, 11, 67
6, 95040, Note_on_c, 0, 84, 80
6, 95040, Control_c, 0, 11, 67
6, 95040, Note_on_c, 0, 89, 80
6, 95070, Control_c, 0, 11, 68
6, 95100, Control_c, 0, 11, 70
6, 95130, Control_c, 0, 11, 71
6, 95160, Control_c, 0, 11, 72
6, 95190, Control_c, 0, 11, 73
6, 95220, Control_c, 0, 11, 75
6, 95250, Control_c, 0, 11, 76
6, 95280, Control_c, 0, 11, 77
6, 95310, Control_c, 0, 11, 78
6, 95340, Control_c, 0, 11, 80
6, 95370, Control_c, 0, 11, 81
6, 95384, Note_on_c, 0, 89, 0
6, 95400, Note_on_c, 0, 88, 80
6, 95400, Control_c, 0, 11, 82
6, 95430, Control_c, 0, 11, 83
6, 95460, Control_c, 0, 11, 85
6, 95490, Control_c, 0, 11, 86
6, 95520, Control_c, 0, 11, 87
6, 95550, Control_c, 0, 11, 88
6, 95580, Control_c, 0, 11, 90
6, 95610, Control_c, 0, 11, 91
6, 95640, Control_c, 0, 11, 92
6, 95670, Control_c, 0, 11, 93
6, 95700, Control_c, 0, 11, 95
6, 95730, Control_c, 0, 11, 96
6, 95760, Control_c, 0, 11, 97
6, 95790, Control_c, 0, 11, 98
6, 95820, Control_c, 0, 11, 100
6, 95850, Control_c, 0, 11, 101
6, 95880, Control_c, 0, 11, 102
6, 95910, Control_c, 0, 11, 103
6, 95940, Control_c, 0, 11, 105
6, 95970, Control_c, 0, 11, 106
6, 96000, Control_c, 0, 11, 107
6, 96030, Control_c, 0, 11, 108
6, 96060, Control_c, 0, 11, 110
6, 96090, Control_c, 0, 11, 111
6, 96120, Control_c, 0, 11, 112
6, 96150, Control_c, 0, 11, 113
6, 96180, Control_c, 0, 11, 115
6, 96210, Control_c, 0, 11, 116
6, 96239, Note_on_c, 0, 84, 0
6, 96239, Note_on_c, 0, 88, 0
6, 96240, Note_on_c, 0, 86, 80
6, 96240, Control_c, 0, 11, 117
6, 96240, Note_on_c, 0, 89, 80
6, 96270, Control_c, 0, 11, 118
6, 96300, Control_c, 0, 11, 120
6, 96330, Control_c, 0, 11, 121
6, 96359, Note_on_c, 0, 86, 0
6, 96359, Note_on_c, 0, 89, 0
6, 96360, Control_c, 0, 11, 122
6, 96360, Note_on_c, 0, 91, 80
6, 96360, Note_on_c, 0, 88, 80
6, 96390, Control_c, 0, 11, 123
6, 96420, Control_c, 0, 11, 125
6, 96450, Control_c, 0, 11, 127
6, 96464, Note_on_c, 0, 91, 0
6, 96464, Note_on_c, 0, 88, 0
6, 96480, Note_on_c, 0, 91, 80
6, 96480, Note_on_c, 0, 79, 80
6, 96569, Note_on_c, 0, 91, 0
6, 96569, Note_on_c, 0, 79, 0
6, 96600, Note_on_c, 0, 88, 80
6, 96600, Note_on_c, 0, 76, 80
6, 96689, Note_on_c, 0, 88, 0
6, 96689, Note_on_c, 0, 76, 0
6, 96720, Note_on_c, 0, 93, 80
6, 96720, Note_on_c, 0, 81, 80
6, 96809, Note_on_c, 0, 93, 0
6, 96809, Note_on_c, 0, 81, 0
6, 96840, Note_on_c, 0, 89, 80
6, 96840, Note_on_c, 0, 77, 80
6, 96929, Note_on_c, 0, 89, 0
6, 96929, Note_on_c, 0, 77, 0
6, 96960, Note_on_c, 0, 74, 80
6, 96960, Note_on_c, 0, 86, 80
6, 97049, Note_on_c, 0, 74, 0
6, 97049, Note_on_c, 0, 86, 0
6, 97080, Note_on_c, 0, 79, 80
6, 97080, Note_on_c, 0, 91, 80
6, 97169, Note_on_c, 0, 79, 0
6, 97169, Note_on_c, 0, 91, 0
6, 97200, Note_on_c, 0, 88, 80
6, 97200, Note_on_c, 0, 76, 80
6, 97319, Note_on_c, 0, 88, 0
6, 97319, Note_on_c, 0, 76, 0
6, 97920, Note_on_c, 0, 79, 80
6, 97920, Note_on_c, 0, 91, 80
6, 98009, Note_on_c, 0, 79, 0
6, 98009, Note_on_c, 0, 91, 0
6, 98040, Note_on_c, 0, 76, 80
6, 98040, Note_on_c, 0, 88, 80
6, 98129, Note_on_c, 0, 76, 0
6, 98129, Note_on_c, 0, 88, 0
6, 98160, Note_on_c, 0, 81, 80
6, 98160, Note_on_c, 0, 93, 80
6, 98249, Note_on_c, 0, 81, 0
6, 98249, Note_on_c, 0, 93, 0
6, 98280, Note_on_c, 0, 77, 80
6, 98280, Note_on_c, 0, 89, 80
6, 98369, Note_on_c, 0, 77, 0
6, 98369, Note_on_c, 0, 89, 0
6, 98400, Note_on_c, 0, 86, 80
6, 98400, Note_on_c, 0, 74, 80
6, 98489, Note_on_c, 0, 86, 0
6, 98489, Note_on_c, 0, 74, 0
6, 98520, Note_on_c, 0, 79, 80
6, 98520, Note_on_c, 0, 91, 80
6, 98609, Note_on_c, 0, 79, 0
6, 98609, Note_on_c, 0, 91, 0
6, 98640, Note_on_c, 0, 79, 80
6, 98640, Note_on_c, 0, 91, 80
6, 98729, Note_on_c, 0, 79, 0
6, 98729, Note_on_c, 0, 91, 0
6, 98760, Note_on_c, 0, 91, 80
6, 98760, Note_on_c, 0, 79, 80
6, 98849, Note_on_c, 0, 91, 0
6, 98849, Note_on_c, 0, 79, 0
6, 98880, Note_on_c, 0, 91, 80
6, 98880, Note_on_c, 0, 79, 80
6, 98969, Note_on_c, 0, 91, 0
6, 98969, Note_on_c, 0, 79, 0
6, 99000, Note_on_c, 0, 91, 80
6, 99000, Note_on_c, 0, 79, 80
6, 99089, Note_on_c, 0, 91, 0
6, 99089, Note_on_c, 0, 79, 0
6, 99120, Note_on_c, 0, 91, 80
6, 99120, Note_on_c, 0, 79, 80
6, 99209, Note_on_c, 0, 91, 0
6, 99209, Note_on_c, 0, 79, 0
6, 99240, Note_on_c, 0, 91, 80
6, 99240, Note_on_c, 0, 79, 80
6, 99329, Note_on_c, 0, 91, 0
6, 99329, Note_on_c, 0, 79, 0
6, 99360, Note_on_c, 0, 88, 80
6, 99360, Note_on_c, 0, 84, 80
6, 99449, Note_on_c, 0, 88, 0
6, 99449, Note_on_c, 0, 84, 0
6, 99480, Note_on_c, 0, 84, 80
6, 99569, Note_on_c, 0, 84, 0
6, 99600, Note_on_c, 0, 91, 80
6, 99600, Note_on_c, 0, 88, 80
6, 99689, Note_on_c, 0, 91, 0
6, 99689, Note_on_c, 0, 88, 0
6, 99720, Note_on_c, 0, 89, 80
6, 99720, Note_on_c, 0, 86, 80
6, 99809, Note_on_c, 0, 89, 0
6, 99809, Note_on_c, 0, 86, 0
6, 99840, Note_on_c, 0, 86, 80
6, 99840, Note_on_c, 0, 83, 80
6, 99929, Note_on_c, 0, 86, 0
6, 99929, Note_on_c, 0, 83, 0
6, 99960, Note_on_c, 0, 91, 80
6, 99960, Note_on_c, 0, 83, 80
6, 100049, Note_on_c, 0, 91, 0
6, 100049, Note_on_c, 0, 83, 0
6, 100080, Note_on_c, 0, 84, 80
6, 100080, Note_on_c, 0, 88, 80
6, 100169, Note_on_c, 0, 84, 0
6, 100169, Note_on_c, 0, 88, 0
6, 100200, Note_on_c, 0, 84, 80
6, 100289, Note_on_c, 0, 84, 0
6, 100320, Note_on_c, 0, 88, 80
6, 100320, Note_on_c, 0, 91, 80
6, 100409, Note_on_c, 0, 88, 0
6, 100409, Note_on_c, 0, 91, 0
6, 100440, Note_on_c, 0, 86, 80
6, 100440, Note_on_c, 0, 89, 80
6, 100529, Note_on_c, 0, 86, 0
6, 100529, Note_on_c, 0, 89, 0
6, 100560, Note_on_c, 0, 83, 80
6, 100560, Note_on_c, 0, 86, 80
6, 100649, Note_on_c, 0, 83, 0
6, 100649, Note_on_c, 0, 86, 0
6, 100680, Note_on_c, 0, 83, 80
6, 100680, Note_on_c, 0, 91, 80
6, 100769, Note_on_c, 0, 83, 0
6, 100769, Note_on_c, 0, 91, 0
6, 100800, Note_on_c, 0, 79, 32
6, 100919, Note_on_c, 0, 79, 0
6, 100920, Note_on_c, 0, 81, 32
6, 101039, Note_on_c, 0, 81, 0
6, 101040, Note_on_c, 0, 83, 32
6, 101159, Note_on_c, 0, 83, 0
6, 101160, Note_on_c, 0, 84, 32
6, 101279, Note_on_c, 0, 84, 0
6, 101280, Note_on_c, 0, 86, 32
6, 101399, Note_on_c, 0, 86, 0
6, 101400, Note_on_c, 0, 88, 32
6, 101519, Note_on_c, 0, 88, 0
6, 101520, Note_on_c, 0, 89, 32
6, 101639, Note_on_c, 0, 89, 0
6, 101640, Note_on_c, 0, 88, 32
6, 101759, Note_on_c, 0, 88, 0
6, 101760, Note_on_c, 0, 89, 32
6, 101879, Note_on_c, 0, 89, 0
6, 101880, Note_on_c, 0, 91, 32
6, 101999, Note_on_c, 0, 91, 0
6, 102000, Note_on_c, 0, 93, 32
6, 102119, Note_on_c, 0, 93, 0
6, 102120, Note_on_c, 0, 83, 32
6, 102239, Note_on_c, 0, 83, 0
6, 102240, Note_on_c, 0, 84, 32
6, 102359, Note_on_c, 0, 84, 0
6, 102600, Note_on_c, 0, 84, 32
6, 102764, Note_on_c, 0, 84, 0
6, 102780, Note_on_c, 0, 72, 32
6, 102824, Note_on_c, 0, 72, 0
6, 102840, Note_on_c, 0, 72, 32
6, 102944, Note_on_c, 0, 72, 0
6, 102960, Note_on_c, 0, 72, 32
6, 103079, Note_on_c, 0, 72, 0
6, 103320, Note_on_c, 0, 86, 32
6, 103484, Note_on_c, 0, 86, 0
6, 103500, Note_on_c, 0, 74, 32
6, 103544, Note_on_c, 0, 74, 0
6, 103560, Note_on_c, 0, 74, 32
6, 103664, Note_on_c, 0, 74, 0
6, 103680, Note_on_c, 0, 74, 32
6, 103799, Note_on_c, 0, 74, 0
6, 105480, Note_on_c, 0, 86, 32
6, 105644, Note_on_c, 0, 86, 0
6, 105660, Note_on_c, 0, 74, 32
6, 105704, Note_on_c, 0, 74, 0
6, 105720, Note_on_c, 0, 74, 32
6, 105824, Note_on_c, 0, 74, 0
6, 105840, Note_on_c, 0, 74, 32
6, 105959, Note_on_c, 0, 74, 0
6, 106200, Note_on_c, 0, 87, 32
6, 106364, Note_on_c, 0, 87, 0
6, 106380, Note_on_c, 0, 75, 32
6, 106424, Note_on_c, 0, 75, 0
6, 106440, Note_on_c, 0, 75, 32
6, 106544, Note_on_c, 0, 75, 0
6, 106560, Note_on_c, 0, 75, 32
6, 106679, Note_on_c, 0, 75, 0
6, 108360, Note_on_c, 0, 87, 36
6, 108524, Note_on_c, 0, 87, 0
6, 108540, Note_on_c, 0, 75, 38
6, 108584, Note_on_c, 0, 75, 0
6, 108600, Note_on_c, 0, 75, 38
6, 108704, Note_on_c, 0, 75, 0
6, 108720, Note_on_c, 0, 75, 40
6, 108839, Note_on_c, 0, 75, 0
6, 109080, Note_on_c, 0, 89, 44
6, 109244, Note_on_c, 0, 89, 0
6, 109260, Note_on_c, 0, 77, 46
6, 109304, Note_on_c, 0, 77, 0
6, 109320, Note_on_c, 0, 77, 46
6, 109424, Note_on_c, 0, 77, 0
6, 109440, Note_on_c, 0, 77, 48
6, 109559, Note_on_c, 0, 77, 0
6, 109800, Note_on_c, 0, 89, 52
6, 109964, Note_on_c, 0, 89, 0
6, 109980, Note_on_c, 0, 77, 54
6, 110024, Note_on_c, 0, 77, 0
6, 110040, Note_on_c, 0, 77, 54
6, 110144, Note_on_c, 0, 77, 0
6, 110160, Note_on_c, 0, 78, 56
6, 110279, Note_on_c, 0, 78, 0
6, 110520, Note_on_c, 0, 90, 60
6, 110684, Note_on_c, 0, 90, 0
6, 110700, Note_on_c, 0, 78, 62
6, 110744, Note_on_c, 0, 78, 0
6, 110760, Note_on_c, 0, 78, 62
6, 110864, Note_on_c, 0, 78, 0
6, 110880, Note_on_c, 0, 78, 64
6, 110999, Note_on_c, 0, 78, 0
6, 111240, Note_on_c, 0, 92, 68
6, 111404, Note_on_c, 0, 92, 0
6, 111420, Note_on_c, 0, 80, 70
6, 111464, Note_on_c, 0, 80, 0
6, 111480, Note_on_c, 0, 80, 70
6, 111584, Note_on_c, 0, 80, 0
6, 111600, Note_on_c, 0, 80, 72
6, 111719, Note_on_c, 0, 80, 0
6, 111960, Note_on_c, 0, 92, 76
6, 112124, Note_on_c, 0, 92, 0
6, 112140, Note_on_c, 0, 80, 78
6, 112184, Note_on_c, 0, 80, 0
6, 112200, Note_on_c, 0, 80, 78
6, 112304, Note_on_c, 0, 80, 0
6, 112320, Note_on_c, 0, 81, 80
6, 112439, Note_on_c, 0, 81, 0
6, 112680, Note_on_c, 0, 93, 80
6, 112680, Note_on_c, 0, 81, 80
6, 112844, Note_on_c, 0, 93, 0
6, 112844, Note_on_c, 0, 81, 0
6, 112860, Note_on_c, 0, 69, 80
6, 112860, Note_on_c, 0, 81, 80
6, 112904, Note_on_c, 0, 69, 0
6, 112904, Note_on_c, 0, 81, 0
6, 112920, Note_on_c, 0, 69, 80
6, 112920, Note_on_c, 0, 81, 80
6, 113024, Note_on_c, 0, 69, 0
6, 113024, Note_on_c, 0, 81, 0
6, 113400, Note_on_c, 0, 82, 92
6, 113564, Note_on_c, 0, 82, 0
6, 113580, Note_on_c, 0, 70, 92
6, 113624, Note_on_c, 0, 70, 0
6, 113640, Note_on_c, 0, 70, 92
6, 113744, Note_on_c, 0, 70, 0
6, 114120, Note_on_c, 0, 83, 92
6, 114284, Note_on_c, 0, 83, 0
6, 114300, Note_on_c, 0, 71, 92
6, 114344, Note_on_c, 0, 71, 0
6, 114360, Note_on_c, 0, 71, 92
6, 114809, Note_on_c, 0, 71, 0
6, 118080, Note_on_c, 0, 88, 44
6, 118244, Note_on_c, 0, 88, 0
6, 118260, Note_on_c, 0, 76, 44
6, 118304, Note_on_c, 0, 76, 0
6, 118320, Note_on_c, 0, 76, 44
6, 118424, Note_on_c, 0, 76, 0
6, 118440, Note_on_c, 0, 81, 44
6, 118529, Note_on_c, 0, 81, 0
6, 118560, Note_on_c, 0, 83, 44
6, 118649, Note_on_c, 0, 83, 0
6, 118680, Note_on_c, 0, 84, 44
6, 118769, Note_on_c, 0, 84, 0
6, 118800, Note_on_c, 0, 83, 44
6, 118889, Note_on_c, 0, 83, 0
6, 118920, Note_on_c, 0, 84, 44
6, 119009, Note_on_c, 0, 84, 0
6, 119040, Note_on_c, 0, 86, 44
6, 119129, Note_on_c, 0, 86, 0
6, 119160, Note_on_c, 0, 84, 44
6, 119249, Note_on_c, 0, 84, 0
6, 119280, Note_on_c, 0, 88, 44
6, 119369, Note_on_c, 0, 88, 0
6, 119400, Note_on_c, 0, 88, 44
6, 119489, Note_on_c, 0, 88, 0
6, 119520, Note_on_c, 0, 88, 44
6, 119609, Note_on_c, 0, 88, 0
6, 119640, Note_on_c, 0, 86, 44
6, 119729, Note_on_c, 0, 86, 0
6, 119760, Note_on_c, 0, 84, 44
6, 119849, Note_on_c, 0, 84, 0
6, 119880, Note_on_c, 0, 86, 44
6, 119969, Note_on_c, 0, 86, 0
6, 120000, Note_on_c, 0, 84, 44
6, 120089, Note_on_c, 0, 84, 0
6, 120120, Note_on_c, 0, 83, 44
6, 120209, Note_on_c, 0, 83, 0
6, 120240, Note_on_c, 0, 88, 44
6, 120404, Note_on_c, 0, 88, 0
6, 120420, Note_on_c, 0, 76, 44
6, 120464, Note_on_c, 0, 76, 0
6, 120480, Note_on_c, 0, 76, 44
6, 120584, Note_on_c, 0, 76, 0
6, 120600, Note_on_c, 0, 81, 44
6, 120689, Note_on_c, 0, 81, 0
6, 120720, Note_on_c, 0, 83, 44
6, 120809, Note_on_c, 0, 83, 0
6, 120840, Note_on_c, 0, 84, 44
6, 120929, Note_on_c, 0, 84, 0
6, 120960, Note_on_c, 0, 83, 44
6, 121049, Note_on_c, 0, 83, 0
6, 121080, Note_on_c, 0, 84, 44
6, 121169, Note_on_c, 0, 84, 0
6, 121200, Note_on_c, 0, 86, 44
6, 121289, Note_on_c, 0, 86, 0
6, 121680, Note_on_c, 0, 81, 44
6, 121769, Note_on_c, 0, 81, 0
6, 121800, Note_on_c, 0, 82, 44
6, 121889, Note_on_c, 0, 82, 0
6, 121920, Note_on_c, 0, 84, 44
6, 122009, Note_on_c, 0, 84, 0
6, 122040, Note_on_c, 0, 82, 44
6, 122129, Note_on_c, 0, 82, 0
6, 122160, Note_on_c, 0, 84, 44
6, 122249, Note_on_c, 0, 84, 0
6, 122280, Note_on_c, 0, 86, 44
6, 122369, Note_on_c, 0, 86, 0
6, 122760, Note_on_c, 0, 84, 44
6, 122849, Note_on_c, 0, 84, 0
6, 122880, Note_on_c, 0, 88, 44
6, 122969, Note_on_c, 0, 88, 0
6, 123000, Note_on_c, 0, 89, 44
6, 123089, Note_on_c, 0, 89, 0
6, 123120, Note_on_c, 0, 88, 44
6, 123209, Note_on_c, 0, 88, 0
6, 123240, Note_on_c, 0, 89, 44
6, 123329, Note_on_c, 0, 89, 0
6, 123360, Note_on_c, 0, 91, 44
6, 123449, Note_on_c, 0, 91, 0
6, 123840, Note_on_c, 0, 77, 44
6, 123840, Note_on_c, 0, 89, 44
6, 123929, Note_on_c, 0, 77, 0
6, 123929, Note_on_c, 0, 89, 0
6, 123960, Note_on_c, 0, 89, 44
6, 123960, Note_on_c, 0, 77, 44
6, 124049, Note_on_c, 0, 89, 0
6, 124049, Note_on_c, 0, 77, 0
6, 124080, Note_on_c, 0, 89, 44
6, 124080, Note_on_c, 0, 77, 44
6, 124169, Note_on_c, 0, 89, 0
6, 124169, Note_on_c, 0, 77, 0
6, 124200, Note_on_c, 0, 77, 44
6, 124200, Note_on_c, 0, 89, 44
6, 124289, Note_on_c, 0, 77, 0
6, 124289, Note_on_c, 0, 89, 0
6, 124320, Note_on_c, 0, 77, 44
6, 124320, Note_on_c, 0, 89, 44
6, 124409, Note_on_c, 0, 77, 0
6, 124409, Note_on_c, 0, 89, 0
6, 124440, Note_on_c, 0, 77, 44
6, 124440, Note_on_c, 0, 89, 44
6, 124529, Note_on_c, 0, 77, 0
6, 124529, Note_on_c, 0, 89, 0
6, 124920, Note_on_c, 0, 93, 44
6, 124920, Note_on_c, 0, 84, 44
6, 125009, Note_on_c, 0, 93, 0
6, 125009, Note_on_c, 0, 84, 0
6, 125040, Note_on_c, 0, 91, 44
6, 125040, Note_on_c, 0, 84, 44
6, 125129, Note_on_c, 0, 91, 0
6, 125129, Note_on_c, 0, 84, 0
6, 125160, Note_on_c, 0, 89, 44
6, 125160, Note_on_c, 0, 84, 44
6, 125249, Note_on_c, 0, 89, 0
6, 125249, Note_on_c, 0, 84, 0
6, 125280, Note_on_c, 0, 84, 44
6, 125280, Note_on_c, 0, 91, 44
6, 125369, Note_on_c, 0, 84, 0
6, 125369, Note_on_c, 0, 91, 0
6, 125400, Note_on_c, 0, 84, 44
6, 125400, Note_on_c, 0, 89, 44
6, 125489, Note_on_c, 0, 84, 0
6, 125489, Note_on_c, 0, 89, 0
6, 125520, Note_on_c, 0, 88, 44
6, 125520, Note_on_c, 0, 84, 44
6, 125609, Note_on_c, 0, 88, 0
6, 125609, Note_on_c, 0, 84, 0
6, 125640, Note_on_c, 0, 89, 44
6, 125640, Note_on_c, 0, 84, 44
6, 125729, Note_on_c, 0, 89, 0
6, 125729, Note_on_c, 0, 84, 0
6, 125760, Note_on_c, 0, 91, 44
6, 125760, Note_on_c, 0, 84, 44
6, 125849, Note_on_c, 0, 91, 0
6, 125849, Note_on_c, 0, 84, 0
6, 125880, Note_on_c, 0, 84, 44
6, 125880, Note_on_c, 0, 93, 44
6, 125969, Note_on_c, 0, 84, 0
6, 125969, Note_on_c, 0, 93, 0
6, 126000, Note_on_c, 0, 84, 44
6, 126000, Note_on_c, 0, 93, 44
6, 126089, Note_on_c, 0, 84, 0
6, 126089, Note_on_c, 0, 93, 0
6, 126120, Note_on_c, 0, 91, 44
6, 126120, Note_on_c, 0, 84, 44
6, 126209, Note_on_c, 0, 91, 0
6, 126209, Note_on_c, 0, 84, 0
6, 126240, Note_on_c, 0, 89, 44
6, 126240, Note_on_c, 0, 84, 44
6, 126329, Note_on_c, 0, 89, 0
6, 126329, Note_on_c, 0, 84, 0
6, 126360, Note_on_c, 0, 89, 43
6, 126360, Note_on_c, 0, 84, 43
6, 126449, Note_on_c, 0, 89, 0
6, 126449, Note_on_c, 0, 84, 0
6, 126480, Note_on_c, 0, 91, 43
6, 126480, Note_on_c, 0, 84, 43
6, 126569, Note_on_c, 0, 91, 0
6, 126569, Note_on_c, 0, 84, 0
6, 126600, Note_on_c, 0, 84, 43
6, 126600, Note_on_c, 0, 89, 43
6, 126689, Note_on_c, 0, 84, 0
6, 126689, Note_on_c, 0, 89, 0
6, 127080, Note_on_c, 0, 84, 41
6, 127244, Note_on_c, 0, 84, 0
6, 127260, Note_on_c, 0, 72, 41
6, 127304, Note_on_c, 0, 72, 0
6, 127320, Note_on_c, 0, 72, 40
6, 127424, Note_on_c, 0, 72, 0
6, 127800, Note_on_c, 0, 81, 39
6, 127800, Note_on_c, 0, 86, 39
6, 127904, Note_on_c, 0, 81, 0
6, 127904, Note_on_c, 0, 86, 0
6, 127920, Note_on_c, 0, 88, 39
6, 127920, Note_on_c, 0, 81, 39
6, 128024, Note_on_c, 0, 88, 0
6, 128024, Note_on_c, 0, 81, 0
6, 128040, Note_on_c, 0, 89, 38
6, 128040, Note_on_c, 0, 81, 38
6, 128144, Note_on_c, 0, 89, 0
6, 128144, Note_on_c, 0, 81, 0
6, 128160, Note_on_c, 0, 81, 38
6, 128160, Note_on_c, 0, 89, 38
6, 128264, Note_on_c, 0, 81, 0
6, 128264, Note_on_c, 0, 89, 0
6, 128280, Note_on_c, 0, 88, 38
6, 128280, Note_on_c, 0, 81, 38
6, 128384, Note_on_c, 0, 88, 0
6, 128384, Note_on_c, 0, 81, 0
6, 128400, Note_on_c, 0, 81, 37
6, 128400, Note_on_c, 0, 86, 37
6, 128504, Note_on_c, 0, 81, 0
6, 128504, Note_on_c, 0, 86, 0
6, 128520, Note_on_c, 0, 81, 37
6, 128520, Note_on_c, 0, 86, 37
6, 128624, Note_on_c, 0, 81, 0
6, 128624, Note_on_c, 0, 86, 0
6, 128640, Note_on_c, 0, 88, 36
6, 128640, Note_on_c, 0, 81, 36
6, 128744, Note_on_c, 0, 88, 0
6, 128744, Note_on_c, 0, 81, 0
6, 128760, Note_on_c, 0, 81, 36
6, 128760, Note_on_c, 0, 86, 36
6, 128879, Note_on_c, 0, 81, 0
6, 128879, Note_on_c, 0, 86, 0
6, 129960, Note_on_c, 0, 86, 32
6, 129960, Note_on_c, 0, 81, 32
6, 130064, Note_on_c, 0, 86, 0
6, 130064, Note_on_c, 0, 81, 0
6, 130080, Note_on_c, 0, 81, 32
6, 130080, Note_on_c, 0, 88, 32
6, 130184, Note_on_c, 0, 81, 0
6, 130184, Note_on_c, 0, 88, 0
6, 130200, Note_on_c, 0, 89, 32
6, 130200, Note_on_c, 0, 81, 32
6, 130304, Note_on_c, 0, 89, 0
6, 130304, Note_on_c, 0, 81, 0
6, 130320, Note_on_c, 0, 81, 32
6, 130320, Note_on_c, 0, 89, 32
6, 130424, Note_on_c, 0, 81, 0
6, 130424, Note_on_c, 0, 89, 0
6, 130440, Note_on_c, 0, 88, 32
6, 130440, Note_on_c, 0, 81, 32
6, 130544, Note_on_c, 0, 88, 0
6, 130544, Note_on_c, 0, 81, 0
6, 130560, Note_on_c, 0, 86, 32
6, 130560, Note_on_c, 0, 81, 32
6, 130664, Note_on_c, 0, 86, 0
6, 130664, Note_on_c, 0, 81, 0
6, 130680, Note_on_c, 0, 86, 32
6, 130680, Note_on_c, 0, 81, 32
6, 130784, Note_on_c, 0, 86, 0
6, 130784, Note_on_c, 0, 81, 0
6, 130800, Note_on_c, 0, 81, 32
6, 130800, Note_on_c, 0, 88, 32
6, 130904, Note_on_c, 0, 81, 0
6, 130904, Note_on_c, 0, 88, 0
6, 130920, Note_on_c, 0, 81, 32
6, 130920, Note_on_c, 0, 86, 32
6, 131039, Note_on_c, 0, 81, 0
6, 131039, Note_on_c, 0, 86, 0
6, 133320, Note_on_c, 0, 81, 32
6, 133424, Note_on_c, 0, 81, 0
6, 133440, Note_on_c, 0, 81, 32
6, 133544, Note_on_c, 0, 81, 0
6, 133560, Note_on_c, 0, 81, 32
6, 133664, Note_on_c, 0, 81, 0
6, 133680, Note_on_c, 0, 81, 32
6, 133784, Note_on_c, 0, 81, 0
6, 133800, Note_on_c, 0, 81, 32
6, 133904, Note_on_c, 0, 81, 0
6, 133920, Note_on_c, 0, 81, 32
6, 134024, Note_on_c, 0, 81, 0
6, 134040, Note_on_c, 0, 81, 32
6, 134144, Note_on_c, 0, 81, 0
6, 134160, Note_on_c, 0, 81, 32
6, 134264, Note_on_c, 0, 81, 0
6, 134280, Note_on_c, 0, 93, 32
6, 134444, Note_on_c, 0, 93, 0
6, 134460, Note_on_c, 0, 81, 32
6, 134504, Note_on_c, 0, 81, 0
6, 134520, Note_on_c, 0, 81, 32
6, 134624, Note_on_c, 0, 81, 0
6, 134640, Note_on_c, 0, 86, 32
6, 134744, Note_on_c, 0, 86, 0
6, 134760, Note_on_c, 0, 88, 32
6, 134864, Note_on_c, 0, 88, 0
6, 134880, Note_on_c, 0, 89, 32
6, 134984, Note_on_c, 0, 89, 0
6, 135000, Note_on_c, 0, 88, 32
6, 135104, Note_on_c, 0, 88, 0
6, 135120, Note_on_c, 0, 89, 32
6, 135224, Note_on_c, 0, 89, 0
6, 135240, Note_on_c, 0, 91, 32
6, 135344, Note_on_c, 0, 91, 0
6, 135360, Note_on_c, 0, 89, 32
6, 135464, Note_on_c, 0, 89, 0
6, 135480, Note_on_c, 0, 93, 32
6, 135584, Note_on_c, 0, 93, 0
6, 135600, Note_on_c, 0, 93, 32
6, 135704, Note_on_c, 0, 93, 0
6, 135720, Note_on_c, 0, 93, 32
6, 135824, Note_on_c, 0, 93, 0
6, 135840, Note_on_c, 0, 91, 32
6, 135944, Note_on_c, 0, 91, 0
6, 135960, Note_on_c, 0, 89, 32
6, 136064, Note_on_c, 0, 89, 0
6, 136080, Note_on_c, 0, 91, 32
6, 136184, Note_on_c, 0, 91, 0
6, 136200, Note_on_c, 0, 89, 32
6, 136304, Note_on_c, 0, 89, 0
6, 136320, Note_on_c, 0, 88, 32
6, 136424, Note_on_c, 0, 88, 0
6, 136440, Note_on_c, 0, 86, 32
6, 136544, Note_on_c, 0, 86, 0
6, 136560, Note_on_c, 0, 85, 32
6, 136664, Note_on_c, 0, 85, 0
6, 136680, Note_on_c, 0, 86, 32
6, 136784, Note_on_c, 0, 86, 0
6, 136800, Note_on_c, 0, 86, 32
6, 136904, Note_on_c, 0, 86, 0
6, 136920, Note_on_c, 0, 91, 32
6, 137024, Note_on_c, 0, 91, 0
6, 137040, Note_on_c, 0, 91, 32
6, 137144, Note_on_c, 0, 91, 0
6, 137160, Note_on_c, 0, 91, 32
6, 137264, Note_on_c, 0, 91, 0
6, 137280, Note_on_c, 0, 91, 32
6, 137384, Note_on_c, 0, 91, 0
6, 137400, Note_on_c, 0, 91, 32
6, 137504, Note_on_c, 0, 91, 0
6, 137520, Note_on_c, 0, 91, 32
6, 137624, Note_on_c, 0, 91, 0
6, 137640, Note_on_c, 0, 91, 32
6, 137744, Note_on_c, 0, 91, 0
6, 137760, Note_on_c, 0, 91, 32
6, 137864, Note_on_c, 0, 91, 0
6, 137880, Note_on_c, 0, 91, 32
6, 137984, Note_on_c, 0, 91, 0
6, 138000, Note_on_c, 0, 91, 32
6, 138104, Note_on_c, 0, 91, 0
6, 138120, Note_on_c, 0, 91, 32
6, 138224, Note_on_c, 0, 91, 0
6, 138240, Note_on_c, 0, 86, 32
6, 138344, Note_on_c, 0, 86, 0
6, 138360, Note_on_c, 0, 82, 32
6, 138464, Note_on_c, 0, 82, 0
6, 138480, Note_on_c, 0, 82, 32
6, 138584, Note_on_c, 0, 82, 0
6, 138600, Note_on_c, 0, 82, 32
6, 138704, Note_on_c, 0, 82, 0
6, 138720, Note_on_c, 0, 86, 32
6, 138824, Note_on_c, 0, 86, 0
6, 138840, Note_on_c, 0, 87, 32
6, 138944, Note_on_c, 0, 87, 0
6, 138960, Note_on_c, 0, 86, 32
6, 139064, Note_on_c, 0, 86, 0
6, 139080, Note_on_c, 0, 87, 32
6, 139184, Note_on_c, 0, 87, 0
6, 139200, Note_on_c, 0, 89, 32
6, 139304, Note_on_c, 0, 89, 0
6, 139320, Note_on_c, 0, 87, 32
6, 139424, Note_on_c, 0, 87, 0
6, 139440, Note_on_c, 0, 86, 32
6, 139544, Note_on_c, 0, 86, 0
6, 139560, Note_on_c, 0, 87, 32
6, 139664, Note_on_c, 0, 87, 0
6, 139680, Note_on_c, 0, 89, 32
6, 139784, Note_on_c, 0, 89, 0
6, 139800, Note_on_c, 0, 91, 32
6, 139904, Note_on_c, 0, 91, 0
6, 139920, Note_on_c, 0, 92, 32
6, 140024, Note_on_c, 0, 92, 0
6, 140040, Note_on_c, 0, 91, 32
6, 140144, Note_on_c, 0, 91, 0
6, 140160, Note_on_c, 0, 89, 32
6, 140264, Note_on_c, 0, 89, 0
6, 140280, Note_on_c, 0, 87, 32
6, 140384, Note_on_c, 0, 87, 0
6, 140400, Note_on_c, 0, 86, 32
6, 140400, Note_on_c, 0, 92, 32
6, 140519, Note_on_c, 0, 86, 0
6, 140519, Note_on_c, 0, 92, 0
6, 141840, Note_on_c, 0, 87, 32
6, 141840, Note_on_c, 0, 91, 32
6, 141959, Note_on_c, 0, 87, 0
6, 141959, Note_on_c, 0, 91, 0
6, 142200, Note_on_c, 0, 91, 32
6, 142200, Note_on_c, 0, 87, 32
6, 142319, Note_on_c, 0, 91, 0
6, 142319, Note_on_c, 0, 87, 0
6, 142560, Note_on_c, 0, 87, 32
6, 142560, Note_on_c, 0, 91, 32
6, 142679, Note_on_c, 0, 87, 0
6, 142679, Note_on_c, 0, 91, 0
6, 142920, Note_on_c, 0, 87, 32
6, 142920, Note_on_c, 0, 91, 32
6, 143039, Note_on_c, 0, 87, 0
6, 143039, Note_on_c, 0, 91, 0
6, 143280, Note_on_c, 0, 89, 32
6, 143280, Note_on_c, 0, 92, 32
6, 143399, Note_on_c, 0, 89, 0
6, 143399, Note_on_c, 0, 92, 0
6, 144720, Note_on_c, 0, 89, 44
6, 144720, Note_on_c, 0, 93, 44
6, 144839, Note_on_c, 0, 89, 0
6, 144839, Note_on_c, 0, 93, 0
6, 145440, Note_on_c, 0, 81, 62
6, 145440, Note_on_c, 0, 86, 62
6, 145559, Note_on_c, 0, 81, 0
6, 145559, Note_on_c, 0, 86, 0
6, 146160, Note_on_c, 0, 89, 80
6, 146160, Note_on_c, 0, 86, 80
6, 146279, Note_on_c, 0, 89, 0
6, 146279, Note_on_c, 0, 86, 0
6, 146880, Note_on_c, 0, 93, 86
6, 146880, Note_on_c, 0, 89, 86
6, 146999, Note_on_c, 0, 93, 0
6, 146999, Note_on_c, 0, 89, 0
6, 147600, Note_on_c, 0, 81, 92
6, 147600, Note_on_c, 0, 93, 92
6, 147764, Note_on_c, 0, 81, 0
6, 147764, Note_on_c, 0, 93, 0
6, 147780, Note_on_c, 0, 69, 92
6, 147780, Note_on_c, 0, 81, 92
6, 147824, Note_on_c, 0, 69, 0
6, 147824, Note_on_c, 0, 81, 0
6, 147840, Note_on_c, 0, 69, 92
6, 147840, Note_on_c, 0, 81, 92
6, 147944, Note_on_c, 0, 69, 0
6, 147944, Note_on_c, 0, 81, 0
6, 147960, Note_on_c, 0, 81, 92
6, 147960, Note_on_c, 0, 93, 92
6, 148124, Note_on_c, 0, 81, 0
6, 148124, Note_on_c, 0, 93, 0
6, 148140, Note_on_c, 0, 81, 92
6, 148140, Note_on_c, 0, 69, 92
6, 148184, Note_on_c, 0, 81, 0
6, 148184, Note_on_c, 0, 69, 0
6, 148200, Note_on_c, 0, 69, 92
6, 148200, Note_on_c, 0, 81, 92
6, 148304, Note_on_c, 0, 69, 0
6, 148304, Note_on_c, 0, 81, 0
6, 148320, Note_on_c, 0, 81, 92
6, 148320, Note_on_c, 0, 93, 92
6, 148484, Note_on_c, 0, 81, 0
6, 148484, Note_on_c, 0, 93, 0
6, 148500, Note_on_c, 0, 69, 92
6, 148500, Note_on_c, 0, 81, 92
6, 148544, Note_on_c, 0, 69, 0
6, 148544, Note_on_c, 0, 81, 0
6, 148560, Note_on_c, 0, 81, 92
6, 148560, Note_on_c, 0, 69, 92
6, 148664, Note_on_c, 0, 81, 0
6, 148664, Note_on_c, 0, 69, 0
6, 148680, Note_on_c, 0, 93, 92
6, 148680, Note_on_c, 0, 81, 92
6, 148844, Note_on_c, 0, 93, 0
6, 148844, Note_on_c, 0, 81, 0
6, 148860, Note_on_c, 0, 81, 92
6, 148860, Note_on_c, 0, 69, 92
6, 148904, Note_on_c, 0, 81, 0
6, 148904, Note_on_c, 0, 69, 0
6, 148920, Note_on_c, 0, 69, 92
6, 148920, Note_on_c, 0, 81, 92
6, 149024, Note_on_c, 0, 69, 0
6, 149024, Note_on_c, 0, 81, 0
6, 149040, Note_on_c, 0, 93, 92
6, 149040, Note_on_c, 0, 81, 92
6, 149204, Note_on_c, 0, 93, 0
6, 149204, Note_on_c, 0, 81, 0
6, 149220, Note_on_c, 0, 81, 92
6, 149220, Note_on_c, 0, 69, 92
6, 149264, Note_on_c, 0, 81, 0
6, 149264, Note_on_c, 0, 69, 0
6, 149280, Note_on_c, 0, 69, 92
6, 149280, Note_on_c, 0, 81, 92
6, 149384, Note_on_c, 0, 69, 0
6, 149384, Note_on_c, 0, 81, 0
6, 149400, Note_on_c, 0, 86, 92
6, 149400, Note_on_c, 0, 74, 92
6, 149489, Note_on_c, 0, 86, 0
6, 149489, Note_on_c, 0, 74, 0
6, 149520, Note_on_c, 0, 76, 92
6, 149520, Note_on_c, 0, 88, 92
6, 149609, Note_on_c, 0, 76, 0
6, 149609, Note_on_c, 0, 88, 0
6, 149640, Note_on_c, 0, 89, 92
6, 149640, Note_on_c, 0, 77, 92
6, 149729, Note_on_c, 0, 89, 0
6, 149729, Note_on_c, 0, 77, 0
6, 149760, Note_on_c, 0, 88, 92
6, 149760, Note_on_c, 0, 76, 92
6, 149849, Note_on_c, 0, 88, 0
6, 149849, Note_on_c, 0, 76, 0
6, 149880, Note_on_c, 0, 77, 92
6, 149880, Note_on_c, 0, 89, 92
6, 149969, Note_on_c, 0, 77, 0
6, 149969, Note_on_c, 0, 89, 0
6, 150000, Note_on_c, 0, 91, 92
6, 150000, Note_on_c, 0, 79, 92
6, 150089, Note_on_c, 0, 91, 0
6, 150089, Note_on_c, 0, 79, 0
6, 150120, Note_on_c, 0, 89, 92
6, 150120, Note_on_c, 0, 77, 92
6, 150209, Note_on_c, 0, 89, 0
6, 150209, Note_on_c, 0, 77, 0
6, 150240, Note_on_c, 0, 76, 92
6, 150240, Note_on_c, 0, 88, 92
6, 150329, Note_on_c, 0, 76, 0
6, 150329, Note_on_c, 0, 88, 0
6, 150360, Note_on_c, 0, 74, 92
6, 150360, Note_on_c, 0, 86, 92
6, 150449, Note_on_c, 0, 74, 0
6, 150449, Note_on_c, 0, 86, 0
6, 150480, Note_on_c, 0, 82, 92
6, 150569, Note_on_c, 0, 82, 0
6, 150600, Note_on_c, 0, 81, 92
6, 150600, Note_on_c, 0, 93, 92
6, 150689, Note_on_c, 0, 81, 0
6, 150689, Note_on_c, 0, 93, 0
6, 150720, Note_on_c, 0, 79, 92
6, 150720, Note_on_c, 0, 91, 92
6, 150809, Note_on_c, 0, 79, 0
6, 150809, Note_on_c, 0, 91, 0
6, 150840, Note_on_c, 0, 89, 92
6, 150840, Note_on_c, 0, 77, 92
6, 150929, Note_on_c, 0, 89, 0
6, 150929, Note_on_c, 0, 77, 0
6, 150960, Note_on_c, 0, 76, 92
6, 150960, Note_on_c, 0, 88, 92
6, 151049, Note_on_c, 0, 76, 0
6, 151049, Note_on_c, 0, 88, 0
6, 151080, Note_on_c, 0, 86, 92
6, 151080, Note_on_c, 0, 74, 92
6, 151169, Note_on_c, 0, 86, 0
6, 151169, Note_on_c, 0, 74, 0
6, 151200, Note_on_c, 0, 73, 92
6, 151200, Note_on_c, 0, 85, 92
6, 151289, Note_on_c, 0, 73, 0
6, 151289, Note_on_c, 0, 85, 0
6, 151320, Note_on_c, 0, 86, 92
6, 151320, Note_on_c, 0, 74, 92
6, 151409, Note_on_c, 0, 86, 0
6, 151409, Note_on_c, 0, 74, 0
6, 151440, Note_on_c, 0, 76, 92
6, 151440, Note_on_c, 0, 88, 92
6, 151529, Note_on_c, 0, 76, 0
6, 151529, Note_on_c, 0, 88, 0
6, 151560, Note_on_c, 0, 86, 92
6, 151560, Note_on_c, 0, 74, 92
6, 151649, Note_on_c, 0, 86, 0
6, 151649, Note_on_c, 0, 74, 0
6, 151680, Note_on_c, 0, 85, 92
6, 151680, Note_on_c, 0, 73, 92
6, 151769, Note_on_c, 0, 85, 0
6, 151769, Note_on_c, 0, 73, 0
6, 151800, Note_on_c, 0, 86, 92
6, 151800, Note_on_c, 0, 74, 92
6, 151889, Note_on_c, 0, 86, 0
6, 151889, Note_on_c, 0, 74, 0
6, 151920, Note_on_c, 0, 82, 92
6, 152009, Note_on_c, 0, 82, 0
6, 152040, Note_on_c, 0, 81, 92
6, 152040, Note_on_c, 0, 93, 92
6, 152129, Note_on_c, 0, 81, 0
6, 152129, Note_on_c, 0, 93, 0
6, 152160, Note_on_c, 0, 79, 92
6, 152160, Note_on_c, 0, 91, 92
6, 152249, Note_on_c, 0, 79, 0
6, 152249, Note_on_c, 0, 91, 0
6, 152280, Note_on_c, 0, 77, 92
6, 152280, Note_on_c, 0, 89, 92
6, 152369, Note_on_c, 0, 77, 0
6, 152369, Note_on_c, 0, 89, 0
6, 152400, Note_on_c, 0, 76, 92
6, 152400, Note_on_c, 0, 88, 92
6, 152489, Note_on_c, 0, 76, 0
6, 152489, Note_on_c, 0, 88, 0
6, 152520, Note_on_c, 0, 86, 92
6, 152520, Note_on_c, 0, 74, 92
6, 152609, Note_on_c, 0, 86, 0
6, 152609, Note_on_c, 0, 74, 0
6, 152640, Note_on_c, 0, 73, 92
6, 152640, Note_on_c, 0, 85, 92
6, 152729, Note_on_c, 0, 73, 0
6, 152729, Note_on_c, 0, 85, 0
6, 152760, Note_on_c, 0, 74, 92
6, 152760, Note_on_c, 0, 86, 92
6, 152849, Note_on_c, 0, 74, 0
6, 152849, Note_on_c, 0, 86, 0
6, 152880, Note_on_c, 0, 76, 92
6, 152880, Note_on_c, 0, 88, 92
6, 152969, Note_on_c, 0, 76, 0
6, 152969, Note_on_c, 0, 88, 0
6, 153000, Note_on_c, 0, 74, 92
6, 153000, Note_on_c, 0, 86, 92
6, 153089, Note_on_c, 0, 74, 0
6, 153089, Note_on_c, 0, 86, 0
6, 153120, Note_on_c, 0, 85, 92
6, 153120, Note_on_c, 0, 73, 92
6, 153209, Note_on_c, 0, 85, 0
6, 153209, Note_on_c, 0, 73, 0
6, 153240, Note_on_c, 0, 74, 92
6, 153240, Note_on_c, 0, 86, 92
6, 153329, Note_on_c, 0, 74, 0
6, 153329, Note_on_c, 0, 86, 0
6, 153360, Note_on_c, 0, 84, 92
6, 153449, Note_on_c, 0, 84, 0
6, 153480, Note_on_c, 0, 86, 92
6, 153569, Note_on_c, 0, 86, 0
6, 153600, Note_on_c, 0, 87, 92
6, 153689, Note_on_c, 0, 87, 0
6, 153720, Note_on_c, 0, 79, 92
6, 153720, Note_on_c, 0, 91, 92
6, 153809, Note_on_c, 0, 79, 0
6, 153809, Note_on_c, 0, 91, 0
6, 153840, Note_on_c, 0, 93, 92
6, 153840, Note_on_c, 0, 81, 92
6, 153929, Note_on_c, 0, 93, 0
6, 153929, Note_on_c, 0, 81, 0
6, 153960, Note_on_c, 0, 82, 92
6, 154049, Note_on_c, 0, 82, 0
6, 154080, Note_on_c, 0, 81, 92
6, 154169, Note_on_c, 0, 81, 0
6, 154200, Note_on_c, 0, 82, 92
6, 154289, Note_on_c, 0, 82, 0
6, 154320, Note_on_c, 0, 84, 92
6, 154409, Note_on_c, 0, 84, 0
6, 154440, Note_on_c, 0, 82, 92
6, 154529, Note_on_c, 0, 82, 0
6, 154560, Note_on_c, 0, 81, 92
6, 154649, Note_on_c, 0, 81, 0
6, 154680, Note_on_c, 0, 79, 92
6, 154769, Note_on_c, 0, 79, 0
6, 154800, Note_on_c, 0, 87, 80
6, 154889, Note_on_c, 0, 87, 0
6, 154920, Note_on_c, 0, 86, 80
6, 155009, Note_on_c, 0, 86, 0
6, 155040, Note_on_c, 0, 84, 80
6, 155129, Note_on_c, 0, 84, 0
6, 155160, Note_on_c, 0, 82, 80
6, 155249, Note_on_c, 0, 82, 0
6, 155280, Note_on_c, 0, 81, 80
6, 155369, Note_on_c, 0, 81, 0
6, 155400, Note_on_c, 0, 79, 80
6, 155489, Note_on_c, 0, 79, 0
6, 155520, Note_on_c, 0, 89, 80
6, 155609, Note_on_c, 0, 89, 0
6, 155640, Note_on_c, 0, 87, 80
6, 155729, Note_on_c, 0, 87, 0
6, 155760, Note_on_c, 0, 86, 80
6, 155849, Note_on_c, 0, 86, 0
6, 155880, Note_on_c, 0, 84, 80
6, 155969, Note_on_c, 0, 84, 0
6, 156000, Note_on_c, 0, 82, 80
6, 156089, Note_on_c, 0, 82, 0
6, 156120, Note_on_c, 0, 81, 80
6, 156209, Note_on_c, 0, 81, 0
6, 156240, Note_on_c, 0, 69, 80
6, 156329, Note_on_c, 0, 69, 0
6, 156360, Note_on_c, 0, 70, 80
6, 156449, Note_on_c, 0, 70, 0
6, 156480, Note_on_c, 0, 72, 80
6, 156569, Note_on_c, 0, 72, 0
6, 156600, Note_on_c, 0, 74, 80
6, 156689, Note_on_c, 0, 74, 0
6, 156720, Note_on_c, 0, 75, 80
6, 156809, Note_on_c, 0, 75, 0
6, 156840, Note_on_c, 0, 77, 80
6, 156929, Note_on_c, 0, 77, 0
6, 156960, Note_on_c, 0, 79, 80
6, 157049, Note_on_c, 0, 79, 0
6, 157080, Note_on_c, 0, 81, 80
6, 157169, Note_on_c, 0, 81, 0
6, 157200, Note_on_c, 0, 82, 80
6, 157289, Note_on_c, 0, 82, 0
6, 157320, Note_on_c, 0, 84, 80
6, 157409, Note_on_c, 0, 84, 0
6, 157440, Note_on_c, 0, 86, 80
6, 157529, Note_on_c, 0, 86, 0
6, 157560, Note_on_c, 0, 87, 80
6, 157649, Note_on_c, 0, 87, 0
6, 157680, Note_on_c, 0, 77, 80
6, 157680, Note_on_c, 0, 89, 80
6, 157740, Control_c, 0, 11, 67
6, 157799, Note_on_c, 0, 77, 0
6, 158400, Control_c, 0, 11, 67
6, 158436, Control_c, 0, 11, 68
6, 158472, Control_c, 0, 11, 69
6, 158508, Control_c, 0, 11, 70
6, 158544, Control_c, 0, 11, 71
6, 158580, Control_c, 0, 11, 72
6, 158616, Control_c, 0, 11, 73
6, 158652, Control_c, 0, 11, 74
6, 158688, Control_c, 0, 11, 75
6, 158724, Control_c, 0, 11, 76
6, 158759, Note_on_c, 0, 89, 0
6, 158760, Note_on_c, 0, 87, 80
6, 158760, Control_c, 0, 11, 77
6, 158796, Control_c, 0, 11, 78
6, 158832, Control_c, 0, 11, 79
6, 158868, Control_c, 0, 11, 80
6, 158904, Control_c, 0, 11, 81
6, 158940, Control_c, 0, 11, 82
6, 158976, Control_c, 0, 11, 83
6, 159012, Control_c, 0, 11, 84
6, 159048, Control_c, 0, 11, 85
6, 159084, Control_c, 0, 11, 86
6, 159120, Control_c, 0, 11, 87
6, 159156, Control_c, 0, 11, 88
6, 159192, Control_c, 0, 11, 89
6, 159228, Control_c, 0, 11, 90
6, 159264, Control_c, 0, 11, 91
6, 159300, Control_c, 0, 11, 92
6, 159336, Control_c, 0, 11, 93
6, 159372, Control_c, 0, 11, 94
6, 159408, Control_c, 0, 11, 95
6, 159444, Control_c, 0, 11, 96
6, 159479, Note_on_c, 0, 87, 0
6, 159480, Note_on_c, 0, 86, 80
6, 159480, Control_c, 0, 11, 97
6, 159516, Control_c, 0, 11, 98
6, 159552, Control_c, 0, 11, 99
6, 159588, Control_c, 0, 11, 100
6, 159624, Control_c, 0, 11, 101
6, 159660, Control_c, 0, 11, 102
6, 159696, Control_c, 0, 11, 103
6, 159732, Control_c, 0, 11, 104
6, 159768, Control_c, 0, 11, 105
6, 159804, Control_c, 0, 11, 106
6, 159839, Note_on_c, 0, 86, 0
6, 159840, Note_on_c, 0, 85, 80
6, 159840, Control_c, 0, 11, 107
6, 159870, Control_c, 0, 11, 105
6, 159900, Control_c, 0, 11, 104
6, 159930, Control_c, 0, 11, 102
6, 159960, Control_c, 0, 11, 100
6, 159990, Control_c, 0, 11, 99
6, 160020, Control_c, 0, 11, 97
6, 160050, Control_c, 0, 11, 95
6, 160080, Control_c, 0, 11, 94
6, 160110, Control_c, 0, 11, 92
6, 160140, Control_c, 0, 11, 90
6, 160170, Control_c, 0, 11, 89
6, 160199, Note_on_c, 0, 85, 0
6, 160200, Note_on_c, 0, 84, 80
6, 160200, Control_c, 0, 11, 87
6, 160230, Control_c, 0, 11, 85
6, 160260, Control_c, 0, 11, 84
6, 160290, Control_c, 0, 11, 82
6, 160320, Control_c, 0, 11, 80
6, 160350, Control_c, 0, 11, 79
6, 160380, Control_c, 0, 11, 77
6, 160410, Control_c, 0, 11, 75
6, 160440, Control_c, 0, 11, 74
6, 160470, Control_c, 0, 11, 72
6, 160500, Control_c, 0, 11, 70
6, 160530, Control_c, 0, 11, 67
6, 160559, Note_on_c, 0, 84, 0
6, 160560, Note_on_c, 0, 82, 80
6, 160679, Note_on_c, 0, 82, 0
6, 162000, Control_c, 0, 11, 87
6, 162030, Control_c, 0, 11, 88
6, 162060, Control_c, 0, 11, 89
6, 162090, Control_c, 0, 11, 90
6, 162120, Control_c, 0, 11, 91
6, 162150, Control_c, 0, 11, 93
6, 162180, Control_c, 0, 11, 94
6, 162210, Control_c, 0, 11, 95
6, 162240, Control_c, 0, 11, 96
6, 162270, Control_c, 0, 11, 97
6, 162300, Control_c, 0, 11, 98
6, 162330, Control_c, 0, 11, 99
6, 162360, Control_c, 0, 11, 100
6, 162360, Note_on_c, 0, 88, 68
6, 162390, Control_c, 0, 11, 101
6, 162420, Control_c, 0, 11, 103
6, 162450, Control_c, 0, 11, 104
6, 162480, Control_c, 0, 11, 105
6, 162510, Control_c, 0, 11, 106
6, 162540, Control_c, 0, 11, 107
6, 162570, Control_c, 0, 11, 108
6, 162600, Control_c, 0, 11, 109
6, 162630, Control_c, 0, 11, 110
6, 162660, Control_c, 0, 11, 111
6, 162690, Control_c, 0, 11, 113
6, 162720, Control_c, 0, 11, 114
6, 162750, Control_c, 0, 11, 115
6, 162780, Control_c, 0, 11, 116
6, 162810, Control_c, 0, 11, 117
6, 162840, Control_c, 0, 11, 118
6, 162870, Control_c, 0, 11, 119
6, 162900, Control_c, 0, 11, 120
6, 162930, Control_c, 0, 11, 121
6, 162960, Control_c, 0, 11, 123
6, 162990, Control_c, 0, 11, 124
6, 163020, Control_c, 0, 11, 125
6, 163050, Control_c, 0, 11, 126
6, 163079, Note_on_c, 0, 88, 0
6, 163080, Control_c, 0, 11, 127
6, 163080, Note_on_c, 0, 86, 68
6, 163110, Control_c, 0, 11, 126
6, 163140, Control_c, 0, 11, 125
6, 163170, Control_c, 0, 11, 124
6, 163200, Control_c, 0, 11, 123
6, 163230, Control_c, 0, 11, 121
6, 163260, Control_c, 0, 11, 120
6, 163290, Control_c, 0, 11, 119
6, 163320, Control_c, 0, 11, 118
6, 163350, Control_c, 0, 11, 117
6, 163380, Control_c, 0, 11, 116
6, 163410, Control_c, 0, 11, 115
6, 163440, Control_c, 0, 11, 114
6, 163470, Control_c, 0, 11, 113
6, 163500, Control_c, 0, 11, 111
6, 163530, Control_c, 0, 11, 110
6, 163560, Control_c, 0, 11, 109
6, 163590, Control_c, 0, 11, 108
6, 163620, Control_c, 0, 11, 107
6, 163650, Control_c, 0, 11, 106
6, 163680, Control_c, 0, 11, 105
6, 163710, Control_c, 0, 11, 104
6, 163740, Control_c, 0, 11, 103
6, 163770, Control_c, 0, 11, 101
6, 163799, Note_on_c, 0, 86, 0
6, 163800, Note_on_c, 0, 85, 68
6, 163800, Control_c, 0, 11, 100
6, 163830, Control_c, 0, 11, 99
6, 163860, Control_c, 0, 11, 98
6, 163890, Control_c, 0, 11, 97
6, 163920, Control_c, 0, 11, 96
6, 163950, Control_c, 0, 11, 95
6, 163980, Control_c, 0, 11, 94
6, 164010, Control_c, 0, 11, 93
6, 164040, Control_c, 0, 11, 91
6, 164070, Control_c, 0, 11, 90
6, 164100, Control_c, 0, 11, 89
6, 164130, Control_c, 0, 11, 88
6, 164159, Note_on_c, 0, 85, 0
6, 167364, Control_c, 0, 11, 56
6, 167400, Control_c, 0, 11, 57
6, 167400, Note_on_c, 0, 90, 92
6, 167436, Control_c, 0, 11, 58
6, 167472, Control_c, 0, 11, 59
6, 167508, Control_c, 0, 11, 60
6, 167544, Control_c, 0, 11, 61
6, 167580, Control_c, 0, 11, 62
6, 167616, Control_c, 0, 11, 63
6, 167652, Control_c, 0, 11, 64
6, 167688, Control_c, 0, 11, 65
6, 167724, Control_c, 0, 11, 66
6, 167760, Note_on_c, 0, 87, 92
6, 167760, Control_c, 0, 11, 67
6, 167796, Control_c, 0, 11, 68
6, 167832, Control_c, 0, 11, 69
6, 167868, Control_c, 0, 11, 70
6, 167904, Control_c, 0, 11, 71
6, 167940, Control_c, 0, 11, 72
6, 167976, Control_c, 0, 11, 73
6, 168012, Control_c, 0, 11, 74
6, 168048, Control_c, 0, 11, 75
6, 168084, Control_c, 0, 11, 76
6, 168119, Note_on_c, 0, 90, 0
6, 168119, Note_on_c, 0, 87, 0
6, 168120, Note_on_c, 0, 91, 92
6, 168120, Control_c, 0, 11, 77
6, 168120, Note_on_c, 0, 88, 92
6, 168156, Control_c, 0, 11, 78
6, 168192, Control_c, 0, 11, 79
6, 168228, Control_c, 0, 11, 80
6, 168264, Control_c, 0, 11, 81
6, 168300, Control_c, 0, 11, 82
6, 168336, Control_c, 0, 11, 83
6, 168372, Control_c, 0, 11, 84
6, 168408, Control_c, 0, 11, 85
6, 168444, Control_c, 0, 11, 86
6, 168479, Note_on_c, 0, 91, 0
6, 168479, Note_on_c, 0, 88, 0
6, 168480, Note_on_c, 0, 88, 92
6, 168480, Note_on_c, 0, 85, 92
6, 168480, Control_c, 0, 11, 87
6, 168516, Control_c, 0, 11, 88
6, 168552, Control_c, 0, 11, 89
6, 168588, Control_c, 0, 11, 90
6, 168624, Control_c, 0, 11, 91
6, 168660, Control_c, 0, 11, 92
6, 168696, Control_c, 0, 11, 93
6, 168732, Control_c, 0, 11, 94
6, 168768, Control_c, 0, 11, 95
6, 168804, Control_c, 0, 11, 96
6, 168839, Note_on_c, 0, 88, 0
6, 168839, Note_on_c, 0, 85, 0
6, 168840, Control_c, 0, 11, 97
6, 168840, Note_on_c, 0, 86, 92
6, 168840, Note_on_c, 0, 90, 92
6, 168876, Control_c, 0, 11, 98
6, 168912, Control_c, 0, 11, 99
6, 168948, Control_c, 0, 11, 100
6, 168984, Control_c, 0, 11, 101
6, 169020, Control_c, 0, 11, 102
6, 169056, Control_c, 0, 11, 103
6, 169092, Control_c, 0, 11, 104
6, 169128, Control_c, 0, 11, 105
6, 169164, Control_c, 0, 11, 106
6, 169199, Note_on_c, 0, 90, 0
6, 169200, Note_on_c, 0, 93, 92
6, 169200, Control_c, 0, 11, 107
6, 169236, Control_c, 0, 11, 108
6, 169272, Control_c, 0, 11, 109
6, 169308, Control_c, 0, 11, 110
6, 169344, Control_c, 0, 11, 111
6, 169380, Control_c, 0, 11, 112
6, 169416, Control_c, 0, 11, 113
6, 169452, Control_c, 0, 11, 114
6, 169488, Control_c, 0, 11, 115
6, 169524, Control_c, 0, 11, 116
6, 169559, Note_on_c, 0, 86, 0
6, 169560, Note_on_c, 0, 85, 92
6, 169560, Control_c, 0, 11, 117
6, 169596, Control_c, 0, 11, 118
6, 169632, Control_c, 0, 11, 119
6, 169668, Control_c, 0, 11, 120
6, 169704, Control_c, 0, 11, 121
6, 169740, Control_c, 0, 11, 122
6, 169776, Control_c, 0, 11, 123
6, 169784, Note_on_c, 0, 93, 0
6, 169784, Note_on_c, 0, 85, 0
6, 169800, Note_on_c, 0, 85, 92
6, 169812, Control_c, 0, 11, 124
6, 169848, Control_c, 0, 11, 125
6, 169884, Control_c, 0, 11, 127
6, 169904, Note_on_c, 0, 85, 0
6, 169920, Note_on_c, 0, 86, 92
6, 170159, Note_on_c, 0, 86, 0
6, 170160, Note_on_c, 0, 88, 92
6, 170219, Note_on_c, 0, 88, 0
6, 170220, Note_on_c, 0, 90, 92
6, 170264, Note_on_c, 0, 90, 0
6, 170280, Note_on_c, 0, 91, 92
6, 170369, Note_on_c, 0, 91, 0
6, 170520, Note_on_c, 0, 90, 92
6, 170609, Note_on_c, 0, 90, 0
6, 170640, Note_on_c, 0, 88, 92
6, 170729, Note_on_c, 0, 88, 0
6, 170880, Note_on_c, 0, 86, 92
6, 170969, Note_on_c, 0, 86, 0
6, 171000, Note_on_c, 0, 88, 92
6, 171089, Note_on_c, 0, 88, 0
6, 171240, Note_on_c, 0, 85, 92
6, 171329, Note_on_c, 0, 85, 0
6, 171360, Note_on_c, 0, 90, 92
6, 171360, Note_on_c, 0, 86, 92
6, 171599, Note_on_c, 0, 90, 0
6, 171599, Note_on_c, 0, 86, 0
6, 171600, Note_on_c, 0, 88, 92
6, 171600, Note_on_c, 0, 91, 92
6, 171659, Note_on_c, 0, 88, 0
6, 171659, Note_on_c, 0, 91, 0
6, 171660, Note_on_c, 0, 93, 92
6, 171660, Note_on_c, 0, 90, 92
6, 171704, Note_on_c, 0, 93, 0
6, 171704, Note_on_c, 0, 90, 0
6, 171720, Note_on_c, 0, 83, 92
6, 171809, Note_on_c, 0, 83, 0
6, 171960, Note_on_c, 0, 90, 92
6, 171960, Note_on_c, 0, 93, 92
6, 172049, Note_on_c, 0, 90, 0
6, 172049, Note_on_c, 0, 93, 0
6, 172080, Note_on_c, 0, 91, 92
6, 172080, Note_on_c, 0, 88, 92
6, 172169, Note_on_c, 0, 91, 0
6, 172169, Note_on_c, 0, 88, 0
6, 172320, Note_on_c, 0, 86, 92
6, 172320, Note_on_c, 0, 90, 92
6, 172409, Note_on_c, 0, 86, 0
6, 172409, Note_on_c, 0, 90, 0
6, 172440, Note_on_c, 0, 91, 92
6, 172440, Note_on_c, 0, 88, 92
6, 172529, Note_on_c, 0, 91, 0
6, 172529, Note_on_c, 0, 88, 0
6, 172680, Note_on_c, 0, 88, 92
6, 172680, Note_on_c, 0, 85, 92
6, 172769, Note_on_c, 0, 88, 0
6, 172769, Note_on_c, 0, 85, 0
6, 172800, Note_on_c, 0, 86, 92
6, 172889, Note_on_c, 0, 86, 0
6, 172920, Note_on_c, 0, 86, 92
6, 173039, Note_on_c, 0, 86, 0
6, 173040, Note_on_c, 0, 88, 92
6, 173099, Note_on_c, 0, 88, 0
6, 173100, Note_on_c, 0, 89, 92
6, 173144, Note_on_c, 0, 89, 0
6, 173160, Note_on_c, 0, 91, 92
6, 173249, Note_on_c, 0, 91, 0
6, 173280, Note_on_c, 0, 91, 92
6, 173369, Note_on_c, 0, 91, 0
6, 173400, Note_on_c, 0, 89, 92
6, 173489, Note_on_c, 0, 89, 0
6, 173520, Note_on_c, 0, 88, 92
6, 173609, Note_on_c, 0, 88, 0
6, 173640, Note_on_c, 0, 88, 92
6, 173729, Note_on_c, 0, 88, 0
6, 173760, Note_on_c, 0, 86, 92
6, 173849, Note_on_c, 0, 86, 0
6, 173880, Note_on_c, 0, 88, 92
6, 173969, Note_on_c, 0, 88, 0
6, 174000, Note_on_c, 0, 88, 92
6, 174089, Note_on_c, 0, 88, 0
6, 174120, Note_on_c, 0, 85, 92
6, 174209, Note_on_c, 0, 85, 0
6, 174240, Note_on_c, 0, 86, 92
6, 174240, Note_on_c, 0, 89, 92
6, 174329, Note_on_c, 0, 86, 0
6, 174329, Note_on_c, 0, 89, 0
6, 174360, Note_on_c, 0, 86, 92
6, 174360, Note_on_c, 0, 89, 92
6, 174479, Note_on_c, 0, 86, 0
6, 174479, Note_on_c, 0, 89, 0
6, 174480, Note_on_c, 0, 91, 92
6, 174480, Note_on_c, 0, 88, 92
6, 174539, Note_on_c, 0, 91, 0
6, 174539, Note_on_c, 0, 88, 0
6, 174540, Note_on_c, 0, 89, 92
6, 174540, Note_on_c, 0, 93, 92
6, 174584, Note_on_c, 0, 89, 0
6, 174584, Note_on_c, 0, 93, 0
6, 174600, Note_on_c, 0, 82, 92
6, 174689, Note_on_c, 0, 82, 0
6, 174720, Note_on_c, 0, 82, 92
6, 174809, Note_on_c, 0, 82, 0
6, 174840, Note_on_c, 0, 89, 92
6, 174840, Note_on_c, 0, 93, 92
6, 174929, Note_on_c, 0, 89, 0
6, 174929, Note_on_c, 0, 93, 0
6, 174960, Note_on_c, 0, 91, 92
6, 174960, Note_on_c, 0, 88, 92
6, 175049, Note_on_c, 0, 91, 0
6, 175049, Note_on_c, 0, 88, 0
6, 175080, Note_on_c, 0, 88, 92
6, 175080, Note_on_c, 0, 91, 92
6, 175169, Note_on_c, 0, 88, 0
6, 175169, Note_on_c, 0, 91, 0
6, 175200, Note_on_c, 0, 86, 92
6, 175200, Note_on_c, 0, 89, 92
6, 175289, Note_on_c, 0, 86, 0
6, 175289, Note_on_c, 0, 89, 0
6, 175320, Note_on_c, 0, 88, 92
6, 175320, Note_on_c, 0, 91, 92
6, 175409, Note_on_c, 0, 88, 0
6, 175409, Note_on_c, 0, 91, 0
6, 175440, Note_on_c, 0, 91, 92
6, 175440, Note_on_c, 0, 88, 92
6, 175529, Note_on_c, 0, 91, 0
6, 175529, Note_on_c, 0, 88, 0
6, 175560, Note_on_c, 0, 88, 92
6, 175560, Note_on_c, 0, 85, 92
6, 175649, Note_on_c, 0, 88, 0
6, 175649, Note_on_c, 0, 85, 0
6, 175680, Note_on_c, 0, 89, 92
6, 175844, Note_on_c, 0, 89, 0
6, 175860, Note_on_c, 0, 77, 92
6, 175904, Note_on_c, 0, 77, 0
6, 175920, Note_on_c, 0, 77, 92
6, 176024, Note_on_c, 0, 77, 0
6, 176040, Note_on_c, 0, 77, 92
6, 176040, Note_on_c, 0, 89, 92
6, 176144, Note_on_c, 0, 77, 0
6, 176144, Note_on_c, 0, 89, 0
6, 176160, Note_on_c, 0, 91, 92
6, 176160, Note_on_c, 0, 79, 92
6, 176264, Note_on_c, 0, 91, 0
6, 176264, Note_on_c, 0, 79, 0
6, 176280, Note_on_c, 0, 93, 92
6, 176280, Note_on_c, 0, 81, 92
6, 176384, Note_on_c, 0, 93, 0
6, 176384, Note_on_c, 0, 81, 0
6, 176400, Note_on_c, 0, 82, 92
6, 176519, Note_on_c, 0, 82, 0
6, 177120, Note_on_c, 0, 88, 92
6, 177284, Note_on_c, 0, 88, 0
6, 177300, Note_on_c, 0, 76, 92
6, 177344, Note_on_c, 0, 76, 0
6, 177360, Note_on_c, 0, 76, 92
6, 177464, Note_on_c, 0, 76, 0
6, 177480, Note_on_c, 0, 76, 92
6, 177480, Note_on_c, 0, 88, 92
6, 177584, Note_on_c, 0, 76, 0
6, 177584, Note_on_c, 0, 88, 0
6, 177600, Note_on_c, 0, 89, 92
6, 177600, Note_on_c, 0, 77, 92
6, 177704, Note_on_c, 0, 89, 0
6, 177704, Note_on_c, 0, 77, 0
6, 177720, Note_on_c, 0, 79, 92
6, 177720, Note_on_c, 0, 91, 92
6, 177824, Note_on_c, 0, 79, 0
6, 177824, Note_on_c, 0, 91, 0
6, 177840, Note_on_c, 0, 81, 92
6, 177840, Note_on_c, 0, 93, 92
6, 177959, Note_on_c, 0, 81, 0
6, 177959, Note_on_c, 0, 93, 0
6, 178200, Note_on_c, 0, 81, 92
6, 178304, Note_on_c, 0, 81, 0
6, 178320, Note_on_c, 0, 86, 92
6, 178424, Note_on_c, 0, 86, 0
6, 178440, Note_on_c, 0, 76, 92
6, 178440, Note_on_c, 0, 88, 92
6, 178544, Note_on_c, 0, 76, 0
6, 178544, Note_on_c, 0, 88, 0
6, 178560, Note_on_c, 0, 90, 44
6, 178560, Note_on_c, 0, 78, 44
6, 178679, Note_on_c, 0, 90, 0
6, 178679, Note_on_c, 0, 78, 0
6, 179280, Note_on_c, 0, 91, 44
6, 179280, Note_on_c, 0, 79, 44
6, 179399, Note_on_c, 0, 91, 0
6, 179399, Note_on_c, 0, 79, 0
6, 180360, Control_c, 0, 11, 67
6, 180720, Note_on_c, 0, 87, 80
6, 180720, Control_c, 0, 11, 67
6, 180720, Note_on_c, 0, 91, 80
6, 180750, Control_c, 0, 11, 68
6, 180780, Control_c, 0, 11, 70
6, 180810, Control_c, 0, 11, 71
6, 180840, Control_c, 0, 11, 72
6, 180870, Control_c, 0, 11, 73
6, 180900, Control_c, 0, 11, 75
6, 180930, Control_c, 0, 11, 76
6, 180960, Control_c, 0, 11, 77
6, 180990, Control_c, 0, 11, 78
6, 181020, Control_c, 0, 11, 80
6, 181050, Control_c, 0, 11, 81
6, 181064, Note_on_c, 0, 87, 0
6, 181064, Note_on_c, 0, 91, 0
6, 181080, Note_on_c, 0, 91, 80
6, 181080, Note_on_c, 0, 87, 80
6, 181080, Control_c, 0, 11, 82
6, 181110, Control_c, 0, 11, 83
6, 181140, Control_c, 0, 11, 85
6, 181170, Control_c, 0, 11, 86
6, 181200, Control_c, 0, 11, 87
6, 181230, Control_c, 0, 11, 88
6, 181260, Control_c, 0, 11, 90
6, 181290, Control_c, 0, 11, 91
6, 181320, Control_c, 0, 11, 92
6, 181350, Control_c, 0, 11, 93
6, 181380, Control_c, 0, 11, 95
6, 181410, Control_c, 0, 11, 96
6, 181424, Note_on_c, 0, 91, 0
6, 181424, Note_on_c, 0, 87, 0
6, 181440, Control_c, 0, 11, 97
6, 181440, Note_on_c, 0, 88, 80
6, 181440, Note_on_c, 0, 91, 80
6, 181470, Control_c, 0, 11, 98
6, 181500, Control_c, 0, 11, 100
6, 181530, Control_c, 0, 11, 101
6, 181560, Control_c, 0, 11, 102
6, 181590, Control_c, 0, 11, 103
6, 181620, Control_c, 0, 11, 105
6, 181650, Control_c, 0, 11, 106
6, 181680, Control_c, 0, 11, 107
6, 181710, Control_c, 0, 11, 108
6, 181740, Control_c, 0, 11, 110
6, 181770, Control_c, 0, 11, 111
6, 181800, Control_c, 0, 11, 112
6, 181830, Control_c, 0, 11, 113
6, 181860, Control_c, 0, 11, 115
6, 181890, Control_c, 0, 11, 116
6, 181919, Note_on_c, 0, 88, 0
6, 181919, Note_on_c, 0, 91, 0
6, 181920, Note_on_c, 0, 89, 80
6, 181920, Note_on_c, 0, 86, 80
6, 181920, Control_c, 0, 11, 117
6, 181950, Control_c, 0, 11, 118
6, 181980, Control_c, 0, 11, 120
6, 182010, Control_c, 0, 11, 121
6, 182039, Note_on_c, 0, 89, 0
6, 182039, Note_on_c, 0, 86, 0
6, 182040, Note_on_c, 0, 88, 80
6, 182040, Note_on_c, 0, 91, 80
6, 182040, Control_c, 0, 11, 122
6, 182070, Control_c, 0, 11, 123
6, 182100, Control_c, 0, 11, 125
6, 182130, Control_c, 0, 11, 127
6, 182144, Note_on_c, 0, 88, 0
6, 182144, Note_on_c, 0, 91, 0
6, 182160, Note_on_c, 0, 81, 80
6, 182160, Note_on_c, 0, 93, 80
6, 182249, Note_on_c, 0, 81, 0
6, 182249, Note_on_c, 0, 93, 0
6, 182280, Note_on_c, 0, 77, 80
6, 182280, Note_on_c, 0, 89, 80
6, 182369, Note_on_c, 0, 77, 0
6, 182369, Note_on_c, 0, 89, 0
6, 182400, Note_on_c, 0, 82, 80
6, 182489, Note_on_c, 0, 82, 0
6, 182520, Note_on_c, 0, 79, 80
6, 182520, Note_on_c, 0, 91, 80
6, 182609, Note_on_c, 0, 79, 0
6, 182609, Note_on_c, 0, 91, 0
6, 182640, Note_on_c, 0, 88, 80
6, 182640, Note_on_c, 0, 76, 80
6, 182729, Note_on_c, 0, 88, 0
6, 182729, Note_on_c, 0, 76, 0
6, 182760, Note_on_c, 0, 81, 80
6, 182760, Note_on_c, 0, 93, 80
6, 182849, Note_on_c, 0, 81, 0
6, 182849, Note_on_c, 0, 93, 0
6, 182880, Note_on_c, 0, 89, 80
6, 182880, Note_on_c, 0, 77, 80
6, 182999, Note_on_c, 0, 89, 0
6, 182999, Note_on_c, 0, 77, 0
6, 183600, Note_on_c, 0, 81, 80
6, 183600, Note_on_c, 0, 93, 80
6, 183689, Note_on_c, 0, 81, 0
6, 183689, Note_on_c, 0, 93, 0
6, 183720, Note_on_c, 0, 77, 80
6, 183720, Note_on_c, 0, 89, 80
6, 183809, Note_on_c, 0, 77, 0
6, 183809, Note_on_c, 0, 89, 0
6, 183840, Note_on_c, 0, 82, 80
6, 183929, Note_on_c, 0, 82, 0
6, 183960, Note_on_c, 0, 79, 80
6, 183960, Note_on_c, 0, 91, 80
6, 184049, Note_on_c, 0, 79, 0
6, 184049, Note_on_c, 0, 91, 0
6, 184080, Note_on_c, 0, 88, 80
6, 184080, Note_on_c, 0, 76, 80
6, 184169, Note_on_c, 0, 88, 0
6, 184169, Note_on_c, 0, 76, 0
6, 184200, Note_on_c, 0, 81, 80
6, 184200, Note_on_c, 0, 93, 80
6, 184289, Note_on_c, 0, 81, 0
6, 184289, Note_on_c, 0, 93, 0
6, 184320, Note_on_c, 0, 93, 80
6, 184320, Note_on_c, 0, 81, 80
6, 184409, Note_on_c, 0, 93, 0
6, 184409, Note_on_c, 0, 81, 0
6, 184440, Note_on_c, 0, 93, 80
6, 184440, Note_on_c, 0, 81, 80
6, 184529, Note_on_c, 0, 93, 0
6, 184529, Note_on_c, 0, 81, 0
6, 184560, Note_on_c, 0, 93, 80
6, 184560, Note_on_c, 0, 81, 80
6, 184649, Note_on_c, 0, 93, 0
6, 184649, Note_on_c, 0, 81, 0
6, 184680, Note_on_c, 0, 81, 80
6, 184680, Note_on_c, 0, 93, 80
6, 184769, Note_on_c, 0, 81, 0
6, 184769, Note_on_c, 0, 93, 0
6, 184800, Note_on_c, 0, 81, 80
6, 184800, Note_on_c, 0, 93, 80
6, 184889, Note_on_c, 0, 81, 0
6, 184889, Note_on_c, 0, 93, 0
6, 184920, Note_on_c, 0, 93, 80
6, 184920, Note_on_c, 0, 81, 80
6, 185009, Note_on_c, 0, 93, 0
6, 185009, Note_on_c, 0, 81, 0
6, 185040, Note_on_c, 0, 89, 80
6, 185040, Note_on_c, 0, 86, 80
6, 185129, Note_on_c, 0, 89, 0
6, 185129, Note_on_c, 0, 86, 0
6, 185160, Note_on_c, 0, 86, 80
6, 185160, Note_on_c, 0, 81, 80
6, 185249, Note_on_c, 0, 86, 0
6, 185249, Note_on_c, 0, 81, 0
6, 185280, Note_on_c, 0, 89, 80
6, 185280, Note_on_c, 0, 93, 80
6, 185369, Note_on_c, 0, 89, 0
6, 185369, Note_on_c, 0, 93, 0
6, 185400, Note_on_c, 0, 91, 80
6, 185400, Note_on_c, 0, 88, 80
6, 185489, Note_on_c, 0, 91, 0
6, 185489, Note_on_c, 0, 88, 0
6, 185520, Note_on_c, 0, 88, 80
6, 185520, Note_on_c, 0, 81, 80
6, 185609, Note_on_c, 0, 88, 0
6, 185609, Note_on_c, 0, 81, 0
6, 185640, Note_on_c, 0, 88, 80
6, 185640, Note_on_c, 0, 93, 80
6, 185729, Note_on_c, 0, 88, 0
6, 185729, Note_on_c, 0, 93, 0
6, 185760, Note_on_c, 0, 86, 80
6, 185760, Note_on_c, 0, 89, 80
6, 185849, Note_on_c, 0, 86, 0
6, 185849, Note_on_c, 0, 89, 0
6, 185880, Note_on_c, 0, 81, 80
6, 185880, Note_on_c, 0, 86, 80
6, 185969, Note_on_c, 0, 81, 0
6, 185969, Note_on_c, 0, 86, 0
6, 186000, Note_on_c, 0, 93, 80
6, 186000, Note_on_c, 0, 89, 80
6, 186089, Note_on_c, 0, 93, 0
6, 186089, Note_on_c, 0, 89, 0
6, 186120, Note_on_c, 0, 91, 80
6, 186120, Note_on_c, 0, 88, 80
6, 186209, Note_on_c, 0, 91, 0
6, 186209, Note_on_c, 0, 88, 0
6, 186240, Note_on_c, 0, 88, 80
6, 186240, Note_on_c, 0, 81, 80
6, 186329, Note_on_c, 0, 88, 0
6, 186329, Note_on_c, 0, 81, 0
6, 186360, Note_on_c, 0, 93, 80
6, 186360, Note_on_c, 0, 88, 80
6, 186449, Note_on_c, 0, 93, 0
6, 186449, Note_on_c, 0, 88, 0
6, 186480, Note_on_c, 0, 69, 32
6, 186599, Note_on_c, 0, 69, 0
6, 186600, Note_on_c, 0, 73, 32
6, 186719, Note_on_c, 0, 73, 0
6, 186720, Note_on_c, 0, 76, 32
6, 186839, Note_on_c, 0, 76, 0
6, 186840, Note_on_c, 0, 79, 32
6, 186959, Note_on_c, 0, 79, 0
6, 186960, Note_on_c, 0, 85, 32
6, 187079, Note_on_c, 0, 85, 0
6, 187080, Note_on_c, 0, 88, 32
6, 187184, Note_on_c, 0, 88, 0
6, 187200, Note_on_c, 0, 91, 32
6, 187679, Note_on_c, 0, 91, 0
6, 187680, Note_on_c, 0, 88, 32
6, 187799, Note_on_c, 0, 88, 0
6, 187800, Note_on_c, 0, 85, 32
6, 187904, Note_on_c, 0, 85, 0
6, 187920, Note_on_c, 0, 86, 32
6, 188039, Note_on_c, 0, 86, 0
6, 188280, Note_on_c, 0, 86, 32
6, 188444, Note_on_c, 0, 86, 0
6, 188460, Note_on_c, 0, 74, 32
6, 188504, Note_on_c, 0, 74, 0
6, 188520, Note_on_c, 0, 74, 32
6, 188624, Note_on_c, 0, 74, 0
6, 188640, Note_on_c, 0, 74, 32
6, 188759, Note_on_c, 0, 74, 0
6, 189000, Note_on_c, 0, 86, 32
6, 189164, Note_on_c, 0, 86, 0
6, 189180, Note_on_c, 0, 74, 32
6, 189224, Note_on_c, 0, 74, 0
6, 189240, Note_on_c, 0, 74, 32
6, 189344, Note_on_c, 0, 74, 0
6, 189360, Note_on_c, 0, 74, 32
6, 189479, Note_on_c, 0, 74, 0
6, 191160, Note_on_c, 0, 86, 32
6, 191324, Note_on_c, 0, 86, 0
6, 191340, Note_on_c, 0, 74, 32
6, 191384, Note_on_c, 0, 74, 0
6, 191400, Note_on_c, 0, 74, 32
6, 191504, Note_on_c, 0, 74, 0
6, 191520, Note_on_c, 0, 74, 32
6, 191639, Note_on_c, 0, 74, 0
6, 191880, Note_on_c, 0, 86, 32
6, 192044, Note_on_c, 0, 86, 0
6, 192060, Note_on_c, 0, 74, 32
6, 192104, Note_on_c, 0, 74, 0
6, 192120, Note_on_c, 0, 74, 32
6, 192224, Note_on_c, 0, 74, 0
6, 192240, Note_on_c, 0, 77, 32
6, 192359, Note_on_c, 0, 77, 0
6, 192600, Note_on_c, 0, 86, 32
6, 192764, Note_on_c, 0, 86, 0
6, 192780, Note_on_c, 0, 82, 32
6, 192824, Note_on_c, 0, 82, 0
6, 192840, Note_on_c, 0, 82, 32
6, 192944, Note_on_c, 0, 82, 0
6, 192960, Note_on_c, 0, 82, 32
6, 193079, Note_on_c, 0, 82, 0
6, 193320, Note_on_c, 0, 82, 32
6, 193484, Note_on_c, 0, 82, 0
6, 193500, Note_on_c, 0, 82, 32
6, 193544, Note_on_c, 0, 82, 0
6, 193560, Note_on_c, 0, 82, 32
6, 193664, Note_on_c, 0, 82, 0
6, 193680, Note_on_c, 0, 82, 32
6, 193799, Note_on_c, 0, 82, 0
6, 195480, Note_on_c, 0, 87, 36
6, 195644, Note_on_c, 0, 87, 0
6, 195660, Note_on_c, 0, 75, 38
6, 195704, Note_on_c, 0, 75, 0
6, 195720, Note_on_c, 0, 75, 38
6, 195824, Note_on_c, 0, 75, 0
6, 195840, Note_on_c, 0, 75, 40
6, 195959, Note_on_c, 0, 75, 0
6, 196200, Note_on_c, 0, 89, 44
6, 196364, Note_on_c, 0, 89, 0
6, 196380, Note_on_c, 0, 77, 46
6, 196424, Note_on_c, 0, 77, 0
6, 196440, Note_on_c, 0, 77, 46
6, 196544, Note_on_c, 0, 77, 0
6, 196560, Note_on_c, 0, 77, 48
6, 196679, Note_on_c, 0, 77, 0
6, 196920, Note_on_c, 0, 89, 52
6, 197084, Note_on_c, 0, 89, 0
6, 197100, Note_on_c, 0, 77, 54
6, 197144, Note_on_c, 0, 77, 0
6, 197160, Note_on_c, 0, 77, 54
6, 197264, Note_on_c, 0, 77, 0
6, 197280, Note_on_c, 0, 78, 56
6, 197399, Note_on_c, 0, 78, 0
6, 197640, Note_on_c, 0, 90, 60
6, 197804, Note_on_c, 0, 90, 0
6, 197820, Note_on_c, 0, 78, 62
6, 197864, Note_on_c, 0, 78, 0
6, 197880, Note_on_c, 0, 78, 62
6, 197984, Note_on_c, 0, 78, 0
6, 198000, Note_on_c, 0, 78, 64
6, 198119, Note_on_c, 0, 78, 0
6, 198360, Note_on_c, 0, 92, 68
6, 198524, Note_on_c, 0, 92, 0
6, 198540, Note_on_c, 0, 80, 70
6, 198584, Note_on_c, 0, 80, 0
6, 198600, Note_on_c, 0, 80, 70
6, 198704, Note_on_c, 0, 80, 0
6, 198720, Note_on_c, 0, 80, 72
6, 198839, Note_on_c, 0, 80, 0
6, 199080, Note_on_c, 0, 92, 76
6, 199244, Note_on_c, 0, 92, 0
6, 199260, Note_on_c, 0, 80, 78
6, 199304, Note_on_c, 0, 80, 0
6, 199320, Note_on_c, 0, 80, 78
6, 199424, Note_on_c, 0, 80, 0
6, 199440, Note_on_c, 0, 81, 80
6, 199559, Note_on_c, 0, 81, 0
6, 199800, Note_on_c, 0, 81, 80
6, 199800, Note_on_c, 0, 93, 80
6, 199964, Note_on_c, 0, 81, 0
6, 199964, Note_on_c, 0, 93, 0
6, 199980, Note_on_c, 0, 69, 80
6, 199980, Note_on_c, 0, 81, 80
6, 200024, Note_on_c, 0, 69, 0
6, 200024, Note_on_c, 0, 81, 0
6, 200040, Note_on_c, 0, 69, 80
6, 200040, Note_on_c, 0, 81, 80
6, 200144, Note_on_c, 0, 69, 0
6, 200144, Note_on_c, 0, 81, 0
6, 200520, Note_on_c, 0, 82, 92
6, 200684, Note_on_c, 0, 82, 0
6, 200700, Note_on_c, 0, 70, 92
6, 200744, Note_on_c, 0, 70, 0
6, 200760, Note_on_c, 0, 70, 92
6, 200864, Note_on_c, 0, 70, 0
6, 201240, Note_on_c, 0, 83, 92
6, 201404, Note_on_c, 0, 83, 0
6, 201420, Note_on_c, 0, 71, 92
6, 201464, Note_on_c, 0, 71, 0
6, 201480, Note_on_c, 0, 71, 92
6, 201929, Note_on_c, 0, 71, 0
6, 205200, Note_on_c, 0, 88, 44
6, 205364, Note_on_c, 0, 88, 0
6, 205380, Note_on_c, 0, 76, 44
6, 205424, Note_on_c, 0, 76, 0
6, 205440, Note_on_c, 0, 76, 44
6, 205544, Note_on_c, 0, 76, 0
6, 205560, Note_on_c, 0, 81, 44
6, 205649, Note_on_c, 0, 81, 0
6, 205680, Note_on_c, 0, 83, 44
6, 205769, Note_on_c, 0, 83, 0
6, 205800, Note_on_c, 0, 84, 44
6, 205889, Note_on_c, 0, 84, 0
6, 205920, Note_on_c, 0, 83, 44
6, 206009, Note_on_c, 0, 83, 0
6, 206040, Note_on_c, 0, 84, 44
6, 206129, Note_on_c, 0, 84, 0
6, 206160, Note_on_c, 0, 86, 44
6, 206249, Note_on_c, 0, 86, 0
6, 206280, Note_on_c, 0, 84, 44
6, 206369, Note_on_c, 0, 84, 0
6, 206400, Note_on_c, 0, 88, 44
6, 206489, Note_on_c, 0, 88, 0
6, 206520, Note_on_c, 0, 88, 44
6, 206609, Note_on_c, 0, 88, 0
6, 206640, Note_on_c, 0, 88, 44
6, 206729, Note_on_c, 0, 88, 0
6, 206760, Note_on_c, 0, 86, 44
6, 206849, Note_on_c, 0, 86, 0
6, 206880, Note_on_c, 0, 84, 44
6, 206969, Note_on_c, 0, 84, 0
6, 207000, Note_on_c, 0, 86, 44
6, 207089, Note_on_c, 0, 86, 0
6, 207120, Note_on_c, 0, 84, 44
6, 207209, Note_on_c, 0, 84, 0
6, 207240, Note_on_c, 0, 83, 44
6, 207329, Note_on_c, 0, 83, 0
6, 207360, Note_on_c, 0, 88, 44
6, 207524, Note_on_c, 0, 88, 0
6, 207540, Note_on_c, 0, 76, 44
6, 207584, Note_on_c, 0, 76, 0
6, 207600, Note_on_c, 0, 76, 44
6, 207704, Note_on_c, 0, 76, 0
6, 207720, Note_on_c, 0, 81, 44
6, 207809, Note_on_c, 0, 81, 0
6, 207840, Note_on_c, 0, 83, 44
6, 207929, Note_on_c, 0, 83, 0
6, 207960, Note_on_c, 0, 84, 44
6, 208049, Note_on_c, 0, 84, 0
6, 208080, Note_on_c, 0, 83, 44
6, 208169, Note_on_c, 0, 83, 0
6, 208200, Note_on_c, 0, 84, 44
6, 208289, Note_on_c, 0, 84, 0
6, 208320, Note_on_c, 0, 86, 44
6, 208409, Note_on_c, 0, 86, 0
6, 208800, Note_on_c, 0, 81, 44
6, 208889, Note_on_c, 0, 81, 0
6, 208920, Note_on_c, 0, 82, 44
6, 209009, Note_on_c, 0, 82, 0
6, 209040, Note_on_c, 0, 84, 44
6, 209129, Note_on_c, 0, 84, 0
6, 209160, Note_on_c, 0, 82, 44
6, 209249, Note_on_c, 0, 82, 0
6, 209280, Note_on_c, 0, 84, 44
6, 209369, Note_on_c, 0, 84, 0
6, 209400, Note_on_c, 0, 86, 44
6, 209489, Note_on_c, 0, 86, 0
6, 209880, Note_on_c, 0, 84, 44
6, 209969, Note_on_c, 0, 84, 0
6, 210000, Note_on_c, 0, 88, 44
6, 210089, Note_on_c, 0, 88, 0
6, 210120, Note_on_c, 0, 89, 44
6, 210209, Note_on_c, 0, 89, 0
6, 210240, Note_on_c, 0, 88, 44
6, 210329, Note_on_c, 0, 88, 0
6, 210360, Note_on_c, 0, 89, 44
6, 210449, Note_on_c, 0, 89, 0
6, 210480, Note_on_c, 0, 91, 44
6, 210569, Note_on_c, 0, 91, 0
6, 210960, Note_on_c, 0, 77, 44
6, 210960, Note_on_c, 0, 89, 44
6, 211049, Note_on_c, 0, 77, 0
6, 211049, Note_on_c, 0, 89, 0
6, 211080, Note_on_c, 0, 77, 44
6, 211080, Note_on_c, 0, 89, 44
6, 211169, Note_on_c, 0, 77, 0
6, 211169, Note_on_c, 0, 89, 0
6, 211200, Note_on_c, 0, 77, 44
6, 211200, Note_on_c, 0, 89, 44
6, 211289, Note_on_c, 0, 77, 0
6, 211289, Note_on_c, 0, 89, 0
6, 211320, Note_on_c, 0, 89, 44
6, 211320, Note_on_c, 0, 77, 44
6, 211409, Note_on_c, 0, 89, 0
6, 211409, Note_on_c, 0, 77, 0
6, 211440, Note_on_c, 0, 89, 44
6, 211440, Note_on_c, 0, 77, 44
6, 211529, Note_on_c, 0, 89, 0
6, 211529, Note_on_c, 0, 77, 0
6, 211560, Note_on_c, 0, 77, 44
6, 211560, Note_on_c, 0, 89, 44
6, 211649, Note_on_c, 0, 77, 0
6, 211649, Note_on_c, 0, 89, 0
6, 212040, Note_on_c, 0, 84, 44
6, 212040, Note_on_c, 0, 93, 44
6, 212129, Note_on_c, 0, 84, 0
6, 212129, Note_on_c, 0, 93, 0
6, 212160, Note_on_c, 0, 84, 44
6, 212160, Note_on_c, 0, 91, 44
6, 212249, Note_on_c, 0, 84, 0
6, 212249, Note_on_c, 0, 91, 0
6, 212280, Note_on_c, 0, 84, 44
6, 212280, Note_on_c, 0, 89, 44
6, 212369, Note_on_c, 0, 84, 0
6, 212369, Note_on_c, 0, 89, 0
6, 212400, Note_on_c, 0, 91, 44
6, 212400, Note_on_c, 0, 84, 44
6, 212489, Note_on_c, 0, 91, 0
6, 212489, Note_on_c, 0, 84, 0
6, 212520, Note_on_c, 0, 84, 44
6, 212520, Note_on_c, 0, 89, 44
6, 212609, Note_on_c, 0, 84, 0
6, 212609, Note_on_c, 0, 89, 0
6, 212640, Note_on_c, 0, 88, 44
6, 212640, Note_on_c, 0, 84, 44
6, 212729, Note_on_c, 0, 88, 0
6, 212729, Note_on_c, 0, 84, 0
6, 212760, Note_on_c, 0, 84, 44
6, 212760, Note_on_c, 0, 89, 44
6, 212849, Note_on_c, 0, 84, 0
6, 212849, Note_on_c, 0, 89, 0
6, 212880, Note_on_c, 0, 91, 44
6, 212880, Note_on_c, 0, 84, 44
6, 212969, Note_on_c, 0, 91, 0
6, 212969, Note_on_c, 0, 84, 0
6, 213000, Note_on_c, 0, 93, 44
6, 213000, Note_on_c, 0, 84, 44
6, 213089, Note_on_c, 0, 93, 0
6, 213089, Note_on_c, 0, 84, 0
6, 213120, Note_on_c, 0, 84, 44
6, 213120, Note_on_c, 0, 93, 44
6, 213209, Note_on_c, 0, 84, 0
6, 213209, Note_on_c, 0, 93, 0
6, 213240, Note_on_c, 0, 84, 44
6, 213240, Note_on_c, 0, 91, 44
6, 213329, Note_on_c, 0, 84, 0
6, 213329, Note_on_c, 0, 91, 0
6, 213360, Note_on_c, 0, 89, 44
6, 213360, Note_on_c, 0, 84, 44
6, 213449, Note_on_c, 0, 89, 0
6, 213449, Note_on_c, 0, 84, 0
6, 213480, Note_on_c, 0, 89, 43
6, 213480, Note_on_c, 0, 84, 43
6, 213569, Note_on_c, 0, 89, 0
6, 213569, Note_on_c, 0, 84, 0
6, 213600, Note_on_c, 0, 84, 43
6, 213600, Note_on_c, 0, 91, 43
6, 213689, Note_on_c, 0, 84, 0
6, 213689, Note_on_c, 0, 91, 0
6, 213720, Note_on_c, 0, 84, 43
6, 213720, Note_on_c, 0, 89, 43
6, 213809, Note_on_c, 0, 84, 0
6, 213809, Note_on_c, 0, 89, 0
6, 214200, Note_on_c, 0, 84, 41
6, 214364, Note_on_c, 0, 84, 0
6, 214380, Note_on_c, 0, 72, 41
6, 214424, Note_on_c, 0, 72, 0
6, 214440, Note_on_c, 0, 72, 40
6, 214544, Note_on_c, 0, 72, 0
6, 214920, Note_on_c, 0, 81, 39
6, 214920, Note_on_c, 0, 86, 39
6, 215024, Note_on_c, 0, 81, 0
6, 215024, Note_on_c, 0, 86, 0
6, 215040, Note_on_c, 0, 81, 39
6, 215040, Note_on_c, 0, 88, 39
6, 215144, Note_on_c, 0, 81, 0
6, 215144, Note_on_c, 0, 88, 0
6, 215160, Note_on_c, 0, 81, 38
6, 215160, Note_on_c, 0, 89, 38
6, 215264, Note_on_c, 0, 81, 0
6, 215264, Note_on_c, 0, 89, 0
6, 215280, Note_on_c, 0, 89, 38
6, 215280, Note_on_c, 0, 81, 38
6, 215384, Note_on_c, 0, 89, 0
6, 215384, Note_on_c, 0, 81, 0
6, 215400, Note_on_c, 0, 88, 38
6, 215400, Note_on_c, 0, 81, 38
6, 215504, Note_on_c, 0, 88, 0
6, 215504, Note_on_c, 0, 81, 0
6, 215520, Note_on_c, 0, 86, 37
6, 215520, Note_on_c, 0, 81, 37
6, 215624, Note_on_c, 0, 86, 0
6, 215624, Note_on_c, 0, 81, 0
6, 215640, Note_on_c, 0, 86, 37
6, 215640, Note_on_c, 0, 81, 37
6, 215744, Note_on_c, 0, 86, 0
6, 215744, Note_on_c, 0, 81, 0
6, 215760, Note_on_c, 0, 81, 36
6, 215760, Note_on_c, 0, 88, 36
6, 215864, Note_on_c, 0, 81, 0
6, 215864, Note_on_c, 0, 88, 0
6, 215880, Note_on_c, 0, 86, 36
6, 215880, Note_on_c, 0, 81, 36
6, 215999, Note_on_c, 0, 86, 0
6, 215999, Note_on_c, 0, 81, 0
6, 217080, Note_on_c, 0, 86, 32
6, 217080, Note_on_c, 0, 81, 32
6, 217184, Note_on_c, 0, 86, 0
6, 217184, Note_on_c, 0, 81, 0
6, 217200, Note_on_c, 0, 88, 32
6, 217200, Note_on_c, 0, 81, 32
6, 217304, Note_on_c, 0, 88, 0
6, 217304, Note_on_c, 0, 81, 0
6, 217320, Note_on_c, 0, 89, 32
6, 217320, Note_on_c, 0, 81, 32
6, 217424, Note_on_c, 0, 89, 0
6, 217424, Note_on_c, 0, 81, 0
6, 217440, Note_on_c, 0, 89, 32
6, 217440, Note_on_c, 0, 81, 32
6, 217544, Note_on_c, 0, 89, 0
6, 217544, Note_on_c, 0, 81, 0
6, 217560, Note_on_c, 0, 81, 32
6, 217560, Note_on_c, 0, 88, 32
6, 217664, Note_on_c, 0, 81, 0
6, 217664, Note_on_c, 0, 88, 0
6, 217680, Note_on_c, 0, 86, 32
6, 217680, Note_on_c, 0, 81, 32
6, 217784, Note_on_c, 0, 86, 0
6, 217784, Note_on_c, 0, 81, 0
6, 217800, Note_on_c, 0, 81, 32
6, 217800, Note_on_c, 0, 86, 32
6, 217904, Note_on_c, 0, 81, 0
6, 217904, Note_on_c, 0, 86, 0
6, 217920, Note_on_c, 0, 81, 32
6, 217920, Note_on_c, 0, 88, 32
6, 218024, Note_on_c, 0, 81, 0
6, 218024, Note_on_c, 0, 88, 0
6, 218040, Note_on_c, 0, 81, 32
6, 218040, Note_on_c, 0, 86, 32
6, 218159, Note_on_c, 0, 81, 0
6, 218159, Note_on_c, 0, 86, 0
6, 220440, Note_on_c, 0, 81, 32
6, 220544, Note_on_c, 0, 81, 0
6, 220560, Note_on_c, 0, 81, 32
6, 220664, Note_on_c, 0, 81, 0
6, 220680, Note_on_c, 0, 81, 32
6, 220784, Note_on_c, 0, 81, 0
6, 220800, Note_on_c, 0, 81, 32
6, 220904, Note_on_c, 0, 81, 0
6, 220920, Note_on_c, 0, 81, 32
6, 221024, Note_on_c, 0, 81, 0
6, 221040, Note_on_c, 0, 81, 32
6, 221144, Note_on_c, 0, 81, 0
6, 221160, Note_on_c, 0, 81, 32
6, 221264, Note_on_c, 0, 81, 0
6, 221280, Note_on_c, 0, 81, 32
6, 221384, Note_on_c, 0, 81, 0
6, 221400, Note_on_c, 0, 93, 32
6, 221564, Note_on_c, 0, 93, 0
6, 221580, Note_on_c, 0, 81, 32
6, 221624, Note_on_c, 0, 81, 0
6, 221640, Note_on_c, 0, 81, 32
6, 221744, Note_on_c, 0, 81, 0
6, 221760, Note_on_c, 0, 86, 32
6, 221864, Note_on_c, 0, 86, 0
6, 221880, Note_on_c, 0, 88, 32
6, 221984, Note_on_c, 0, 88, 0
6, 222000, Note_on_c, 0, 89, 32
6, 222104, Note_on_c, 0, 89, 0
6, 222120, Note_on_c, 0, 88, 32
6, 222224, Note_on_c, 0, 88, 0
6, 222240, Note_on_c, 0, 89, 32
6, 222344, Note_on_c, 0, 89, 0
6, 222360, Note_on_c, 0, 91, 32
6, 222464, Note_on_c, 0, 91, 0
6, 222480, Note_on_c, 0, 89, 32
6, 222584, Note_on_c, 0, 89, 0
6, 222600, Note_on_c, 0, 93, 32
6, 222704, Note_on_c, 0, 93, 0
6, 222720, Note_on_c, 0, 93, 32
6, 222824, Note_on_c, 0, 93, 0
6, 222840, Note_on_c, 0, 93, 32
6, 222944, Note_on_c, 0, 93, 0
6, 222960, Note_on_c, 0, 91, 32
6, 223064, Note_on_c, 0, 91, 0
6, 223080, Note_on_c, 0, 89, 32
6, 223184, Note_on_c, 0, 89, 0
6, 223200, Note_on_c, 0, 91, 32
6, 223304, Note_on_c, 0, 91, 0
6, 223320, Note_on_c, 0, 89, 32
6, 223424, Note_on_c, 0, 89, 0
6, 223440, Note_on_c, 0, 88, 32
6, 223544, Note_on_c, 0, 88, 0
6, 223560, Note_on_c, 0, 86, 32
6, 223664, Note_on_c, 0, 86, 0
6, 223680, Note_on_c, 0, 85, 32
6, 223784, Note_on_c, 0, 85, 0
6, 223800, Note_on_c, 0, 86, 32
6, 223904, Note_on_c, 0, 86, 0
6, 223920, Note_on_c, 0, 86, 32
6, 224024, Note_on_c, 0, 86, 0
6, 224040, Note_on_c, 0, 91, 32
6, 224144, Note_on_c, 0, 91, 0
6, 224160, Note_on_c, 0, 91, 32
6, 224264, Note_on_c, 0, 91, 0
6, 224280, Note_on_c, 0, 91, 32
6, 224384, Note_on_c, 0, 91, 0
6, 224400, Note_on_c, 0, 91, 32
6, 224504, Note_on_c, 0, 91, 0
6, 224520, Note_on_c, 0, 91, 32
6, 224624, Note_on_c, 0, 91, 0
6, 224640, Note_on_c, 0, 91, 32
6, 224744, Note_on_c, 0, 91, 0
6, 224760, Note_on_c, 0, 91, 32
6, 224864, Note_on_c, 0, 91, 0
6, 224880, Note_on_c, 0, 91, 32
6, 224984, Note_on_c, 0, 91, 0
6, 225000, Note_on_c, 0, 91, 32
6, 225104, Note_on_c, 0, 91, 0
6, 225120, Note_on_c, 0, 91, 32
6, 225224, Note_on_c, 0, 91, 0
6, 225240, Note_on_c, 0, 91, 32
6, 225344, Note_on_c, 0, 91, 0
6, 225360, Note_on_c, 0, 86, 32
6, 225464, Note_on_c, 0, 86, 0
6, 225480, Note_on_c, 0, 82, 32
6, 225584, Note_on_c, 0, 82, 0
6, 225600, Note_on_c, 0, 82, 32
6, 225704, Note_on_c, 0, 82, 0
6, 225720, Note_on_c, 0, 82, 32
6, 225824, Note_on_c, 0, 82, 0
6, 225840, Note_on_c, 0, 86, 32
6, 225944, Note_on_c, 0, 86, 0
6, 225960, Note_on_c, 0, 87, 32
6, 226064, Note_on_c, 0, 87, 0
6, 226080, Note_on_c, 0, 86, 32
6, 226184, Note_on_c, 0, 86, 0
6, 226200, Note_on_c, 0, 87, 32
6, 226304, Note_on_c, 0, 87, 0
6, 226320, Note_on_c, 0, 89, 32
6, 226424, Note_on_c, 0, 89, 0
6, 226440, Note_on_c, 0, 87, 32
6, 226544, Note_on_c, 0, 87, 0
6, 226560, Note_on_c, 0, 86, 32
6, 226664, Note_on_c, 0, 86, 0
6, 226680, Note_on_c, 0, 87, 32
6, 226784, Note_on_c, 0, 87, 0
6, 226800, Note_on_c, 0, 89, 32
6, 226904, Note_on_c, 0, 89, 0
6, 226920, Note_on_c, 0, 91, 32
6, 227024, Note_on_c, 0, 91, 0
6, 227040, Note_on_c, 0, 92, 32
6, 227144, Note_on_c, 0, 92, 0
6, 227160, Note_on_c, 0, 91, 32
6, 227264, Note_on_c, 0, 91, 0
6, 227280, Note_on_c, 0, 89, 32
6, 227384, Note_on_c, 0, 89, 0
6, 227400, Note_on_c, 0, 87, 32
6, 227504, Note_on_c, 0, 87, 0
6, 227520, Note_on_c, 0, 86, 32
6, 227520, Note_on_c, 0, 92, 32
6, 227639, Note_on_c, 0, 86, 0
6, 227639, Note_on_c, 0, 92, 0
6, 228960, Note_on_c, 0, 91, 32
6, 228960, Note_on_c, 0, 87, 32
6, 229079, Note_on_c, 0, 91, 0
6, 229079, Note_on_c, 0, 87, 0
6, 229320, Note_on_c, 0, 91, 32
6, 229320, Note_on_c, 0, 87, 32
6, 229439, Note_on_c, 0, 91, 0
6, 229439, Note_on_c, 0, 87, 0
6, 229680, Note_on_c, 0, 87, 32
6, 229680, Note_on_c, 0, 91, 32
6, 229799, Note_on_c, 0, 87, 0
6, 229799, Note_on_c, 0, 91, 0
6, 230040, Note_on_c, 0, 91, 32
6, 230040, Note_on_c, 0, 87, 32
6, 230159, Note_on_c, 0, 91, 0
6, 230159, Note_on_c, 0, 87, 0
6, 230400, Note_on_c, 0, 92, 32
6, 230400, Note_on_c, 0, 89, 32
6, 230519, Note_on_c, 0, 92, 0
6, 230519, Note_on_c, 0, 89, 0
6, 231840, Note_on_c, 0, 89, 44
6, 231840, Note_on_c, 0, 93, 44
6, 231959, Note_on_c, 0, 89, 0
6, 231959, Note_on_c, 0, 93, 0
6, 232560, Note_on_c, 0, 81, 62
6, 232560, Note_on_c, 0, 86, 62
6, 232679, Note_on_c, 0, 81, 0
6, 232679, Note_on_c, 0, 86, 0
6, 233280, Note_on_c, 0, 86, 80
6, 233280, Note_on_c, 0, 89, 80
6, 233399, Note_on_c, 0, 86, 0
6, 233399, Note_on_c, 0, 89, 0
6, 234000, Note_on_c, 0, 93, 86
6, 234000, Note_on_c, 0, 89, 86
6, 234119, Note_on_c, 0, 93, 0
6, 234119, Note_on_c, 0, 89, 0
6, 234720, Note_on_c, 0, 81, 92
6, 234720, Note_on_c, 0, 93, 92
6, 234884, Note_on_c, 0, 81, 0
6, 234884, Note_on_c, 0, 93, 0
6, 234900, Note_on_c, 0, 69, 92
6, 234900, Note_on_c, 0, 81, 92
6, 234944, Note_on_c, 0, 69, 0
6, 234944, Note_on_c, 0, 81, 0
6, 234960, Note_on_c, 0, 81, 92
6, 234960, Note_on_c, 0, 69, 92
6, 235064, Note_on_c, 0, 81, 0
6, 235064, Note_on_c, 0, 69, 0
6, 235080, Note_on_c, 0, 81, 92
6, 235080, Note_on_c, 0, 93, 92
6, 235244, Note_on_c, 0, 81, 0
6, 235244, Note_on_c, 0, 93, 0
6, 235260, Note_on_c, 0, 69, 92
6, 235260, Note_on_c, 0, 81, 92
6, 235304, Note_on_c, 0, 69, 0
6, 235304, Note_on_c, 0, 81, 0
6, 235320, Note_on_c, 0, 81, 92
6, 235320, Note_on_c, 0, 69, 92
6, 235424, Note_on_c, 0, 81, 0
6, 235424, Note_on_c, 0, 69, 0
6, 235440, Note_on_c, 0, 93, 92
6, 235440, Note_on_c, 0, 81, 92
6, 235604, Note_on_c, 0, 93, 0
6, 235604, Note_on_c, 0, 81, 0
6, 235620, Note_on_c, 0, 81, 92
6, 235620, Note_on_c, 0, 69, 92
6, 235664, Note_on_c, 0, 81, 0
6, 235664, Note_on_c, 0, 69, 0
6, 235680, Note_on_c, 0, 69, 92
6, 235680, Note_on_c, 0, 81, 92
6, 235784, Note_on_c, 0, 69, 0
6, 235784, Note_on_c, 0, 81, 0
6, 235800, Note_on_c, 0, 93, 92
6, 235800, Note_on_c, 0, 81, 92
6, 235964, Note_on_c, 0, 93, 0
6, 235964, Note_on_c, 0, 81, 0
6, 235980, Note_on_c, 0, 81, 92
6, 235980, Note_on_c, 0, 69, 92
6, 236024, Note_on_c, 0, 81, 0
6, 236024, Note_on_c, 0, 69, 0
6, 236040, Note_on_c, 0, 69, 92
6, 236040, Note_on_c, 0, 81, 92
6, 236144, Note_on_c, 0, 69, 0
6, 236144, Note_on_c, 0, 81, 0
6, 236160, Note_on_c, 0, 81, 92
6, 236160, Note_on_c, 0, 93, 92
6, 236324, Note_on_c, 0, 81, 0
6, 236324, Note_on_c, 0, 93, 0
6, 236340, Note_on_c, 0, 81, 92
6, 236340, Note_on_c, 0, 69, 92
6, 236384, Note_on_c, 0, 81, 0
6, 236384, Note_on_c, 0, 69, 0
6, 236400, Note_on_c, 0, 69, 92
6, 236400, Note_on_c, 0, 81, 92
6, 236504, Note_on_c, 0, 69, 0
6, 236504, Note_on_c, 0, 81, 0
6, 236520, Note_on_c, 0, 74, 92
6, 236520, Note_on_c, 0, 86, 92
6, 236609, Note_on_c, 0, 74, 0
6, 236609, Note_on_c, 0, 86, 0
6, 236640, Note_on_c, 0, 88, 92
6, 236640, Note_on_c, 0, 76, 92
6, 236729, Note_on_c, 0, 88, 0
6, 236729, Note_on_c, 0, 76, 0
6, 236760, Note_on_c, 0, 89, 92
6, 236760, Note_on_c, 0, 77, 92
6, 236849, Note_on_c, 0, 89, 0
6, 236849, Note_on_c, 0, 77, 0
6, 236880, Note_on_c, 0, 88, 92
6, 236880, Note_on_c, 0, 76, 92
6, 236969, Note_on_c, 0, 88, 0
6, 236969, Note_on_c, 0, 76, 0
6, 237000, Note_on_c, 0, 77, 92
6, 237000, Note_on_c, 0, 89, 92
6, 237089, Note_on_c, 0, 77, 0
6, 237089, Note_on_c, 0, 89, 0
6, 237120, Note_on_c, 0, 79, 92
6, 237120, Note_on_c, 0, 91, 92
6, 237209, Note_on_c, 0, 79, 0
6, 237209, Note_on_c, 0, 91, 0
6, 237240, Note_on_c, 0, 77, 92
6, 237240, Note_on_c, 0, 89, 92
6, 237329, Note_on_c, 0, 77, 0
6, 237329, Note_on_c, 0, 89, 0
6, 237360, Note_on_c, 0, 88, 92
6, 237360, Note_on_c, 0, 76, 92
6, 237449, Note_on_c, 0, 88, 0
6, 237449, Note_on_c, 0, 76, 0
6, 237480, Note_on_c, 0, 74, 92
6, 237480, Note_on_c, 0, 86, 92
6, 237569, Note_on_c, 0, 74, 0
6, 237569, Note_on_c, 0, 86, 0
6, 237600, Note_on_c, 0, 82, 92
6, 237689, Note_on_c, 0, 82, 0
6, 237720, Note_on_c, 0, 81, 92
6, 237720, Note_on_c, 0, 93, 92
6, 237809, Note_on_c, 0, 81, 0
6, 237809, Note_on_c, 0, 93, 0
6, 237840, Note_on_c, 0, 79, 92
6, 237840, Note_on_c, 0, 91, 92
6, 237929, Note_on_c, 0, 79, 0
6, 237929, Note_on_c, 0, 91, 0
6, 237960, Note_on_c, 0, 89, 92
6, 237960, Note_on_c, 0, 77, 92
6, 238049, Note_on_c, 0, 89, 0
6, 238049, Note_on_c, 0, 77, 0
6, 238080, Note_on_c, 0, 76, 92
6, 238080, Note_on_c, 0, 88, 92
6, 238169, Note_on_c, 0, 76, 0
6, 238169, Note_on_c, 0, 88, 0
6, 238200, Note_on_c, 0, 74, 92
6, 238200, Note_on_c, 0, 86, 92
6, 238289, Note_on_c, 0, 74, 0
6, 238289, Note_on_c, 0, 86, 0
6, 238320, Note_on_c, 0, 85, 92
6, 238320, Note_on_c, 0, 73, 92
6, 238409, Note_on_c, 0, 85, 0
6, 238409, Note_on_c, 0, 73, 0
6, 238440, Note_on_c, 0, 74, 92
6, 238440, Note_on_c, 0, 86, 92
6, 238529, Note_on_c, 0, 74, 0
6, 238529, Note_on_c, 0, 86, 0
6, 238560, Note_on_c, 0, 76, 92
6, 238560, Note_on_c, 0, 88, 92
6, 238649, Note_on_c, 0, 76, 0
6, 238649, Note_on_c, 0, 88, 0
6, 238680, Note_on_c, 0, 74, 92
6, 238680, Note_on_c, 0, 86, 92
6, 238769, Note_on_c, 0, 74, 0
6, 238769, Note_on_c, 0, 86, 0
6, 238800, Note_on_c, 0, 85, 92
6, 238800, Note_on_c, 0, 73, 92
6, 238889, Note_on_c, 0, 85, 0
6, 238889, Note_on_c, 0, 73, 0
6, 238920, Note_on_c, 0, 86, 92
6, 238920, Note_on_c, 0, 74, 92
6, 239009, Note_on_c, 0, 86, 0
6, 239009, Note_on_c, 0, 74, 0
6, 239040, Note_on_c, 0, 82, 92
6, 239129, Note_on_c, 0, 82, 0
6, 239160, Note_on_c, 0, 81, 92
6, 239160, Note_on_c, 0, 93, 92
6, 239249, Note_on_c, 0, 81, 0
6, 239249, Note_on_c, 0, 93, 0
6, 239280, Note_on_c, 0, 79, 92
6, 239280, Note_on_c, 0, 91, 92
6, 239369, Note_on_c, 0, 79, 0
6, 239369, Note_on_c, 0, 91, 0
6, 239400, Note_on_c, 0, 77, 92
6, 239400, Note_on_c, 0, 89, 92
6, 239489, Note_on_c, 0, 77, 0
6, 239489, Note_on_c, 0, 89, 0
6, 239520, Note_on_c, 0, 76, 92
6, 239520, Note_on_c, 0, 88, 92
6, 239609, Note_on_c, 0, 76, 0
6, 239609, Note_on_c, 0, 88, 0
6, 239640, Note_on_c, 0, 86, 92
6, 239640, Note_on_c, 0, 74, 92
6, 239729, Note_on_c, 0, 86, 0
6, 239729, Note_on_c, 0, 74, 0
6, 239760, Note_on_c, 0, 73, 92
6, 239760, Note_on_c, 0, 85, 92
6, 239849, Note_on_c, 0, 73, 0
6, 239849, Note_on_c, 0, 85, 0
6, 239880, Note_on_c, 0, 86, 92
6, 239880, Note_on_c, 0, 74, 92
6, 239969, Note_on_c, 0, 86, 0
6, 239969, Note_on_c, 0, 74, 0
6, 240000, Note_on_c, 0, 76, 92
6, 240000, Note_on_c, 0, 88, 92
6, 240089, Note_on_c, 0, 76, 0
6, 240089, Note_on_c, 0, 88, 0
6, 240120, Note_on_c, 0, 86, 92
6, 240120, Note_on_c, 0, 74, 92
6, 240209, Note_on_c, 0, 86, 0
6, 240209, Note_on_c, 0, 74, 0
6, 240240, Note_on_c, 0, 85, 92
6, 240240, Note_on_c, 0, 73, 92
6, 240329, Note_on_c, 0, 85, 0
6, 240329, Note_on_c, 0, 73, 0
6, 240360, Note_on_c, 0, 86, 92
6, 240360, Note_on_c, 0, 74, 92
6, 240449, Note_on_c, 0, 86, 0
6, 240449, Note_on_c, 0, 74, 0
6, 240480, Note_on_c, 0, 84, 92
6, 240569, Note_on_c, 0, 84, 0
6, 240600, Note_on_c, 0, 86, 92
6, 240689, Note_on_c, 0, 86, 0
6, 240720, Note_on_c, 0, 87, 92
6, 240809, Note_on_c, 0, 87, 0
6, 240840, Note_on_c, 0, 91, 92
6, 240840, Note_on_c, 0, 79, 92
6, 240929, Note_on_c, 0, 91, 0
6, 240929, Note_on_c, 0, 79, 0
6, 240960, Note_on_c, 0, 81, 92
6, 240960, Note_on_c, 0, 93, 92
6, 241049, Note_on_c, 0, 81, 0
6, 241049, Note_on_c, 0, 93, 0
6, 241080, Note_on_c, 0, 82, 92
6, 241169, Note_on_c, 0, 82, 0
6, 241200, Note_on_c, 0, 81, 92
6, 241289, Note_on_c, 0, 81, 0
6, 241320, Note_on_c, 0, 82, 92
6, 241409, Note_on_c, 0, 82, 0
6, 241440, Note_on_c, 0, 84, 92
6, 241529, Note_on_c, 0, 84, 0
6, 241560, Note_on_c, 0, 82, 92
6, 241649, Note_on_c, 0, 82, 0
6, 241680, Note_on_c, 0, 81, 92
6, 241769, Note_on_c, 0, 81, 0
6, 241800, Note_on_c, 0, 79, 92
6, 241889, Note_on_c, 0, 79, 0
6, 241920, Note_on_c, 0, 87, 80
6, 242009, Note_on_c, 0, 87, 0
6, 242040, Note_on_c, 0, 86, 80
6, 242129, Note_on_c, 0, 86, 0
6, 242160, Note_on_c, 0, 84, 80
6, 242249, Note_on_c, 0, 84, 0
6, 242280, Note_on_c, 0, 82, 80
6, 242369, Note_on_c, 0, 82, 0
6, 242400, Note_on_c, 0, 81, 80
6, 242489, Note_on_c, 0, 81, 0
6, 242520, Note_on_c, 0, 79, 80
6, 242609, Note_on_c, 0, 79, 0
6, 242640, Note_on_c, 0, 89, 80
6, 242729, Note_on_c, 0, 89, 0
6, 242760, Note_on_c, 0, 87, 80
6, 242849, Note_on_c, 0, 87, 0
6, 242880, Note_on_c, 0, 86, 80
6, 242969, Note_on_c, 0, 86, 0
6, 243000, Note_on_c, 0, 84, 80
6, 243089, Note_on_c, 0, 84, 0
6, 243120, Note_on_c, 0, 82, 80
6, 243209, Note_on_c, 0, 82, 0
6, 243240, Note_on_c, 0, 81, 80
6, 243329, Note_on_c, 0, 81, 0
6, 243360, Note_on_c, 0, 69, 80
6, 243449, Note_on_c, 0, 69, 0
6, 243480, Note_on_c, 0, 70, 80
6, 243569, Note_on_c, 0, 70, 0
6, 243600, Note_on_c, 0, 72, 80
6, 243689, Note_on_c, 0, 72, 0
6, 243720, Note_on_c, 0, 74, 80
6, 243809, Note_on_c, 0, 74, 0
6, 243840, Note_on_c, 0, 75, 80
6, 243929, Note_on_c, 0, 75, 0
6, 243960, Note_on_c, 0, 77, 80
6, 244049, Note_on_c, 0, 77, 0
6, 244080, Note_on_c, 0, 79, 80
6, 244169, Note_on_c, 0, 79, 0
6, 244200, Note_on_c, 0, 81, 80
6, 244289, Note_on_c, 0, 81, 0
6, 244320, Note_on_c, 0, 82, 80
6, 244409, Note_on_c, 0, 82, 0
6, 244440, Note_on_c, 0, 84, 80
6, 244529, Note_on_c, 0, 84, 0
6, 244560, Note_on_c, 0, 86, 80
6, 244649, Note_on_c, 0, 86, 0
6, 244680, Note_on_c, 0, 87, 80
6, 244769, Note_on_c, 0, 87, 0
6, 244800, Note_on_c, 0, 89, 80
6, 244800, Note_on_c, 0, 77, 80
6, 244860, Control_c, 0, 11, 67
6, 244919, Note_on_c, 0, 77, 0
6, 245520, Control_c, 0, 11, 67
6, 245556, Control_c, 0, 11, 68
6, 245592, Control_c, 0, 11, 69
6, 245628, Control_c, 0, 11, 70
6, 245664, Control_c, 0, 11, 71
6, 245700, Control_c, 0, 11, 72
6, 245736, Control_c, 0, 11, 73
6, 245772, Control_c, 0, 11, 74
6, 245808, Control_c, 0, 11, 75
6, 245844, Control_c, 0, 11, 76
6, 245879, Note_on_c, 0, 89, 0
6, 245880, Control_c, 0, 11, 77
6, 245880, Note_on_c, 0, 87, 80
6, 245916, Control_c, 0, 11, 78
6, 245952, Control_c, 0, 11, 79
6, 245988, Control_c, 0, 11, 80
6, 246024, Control_c, 0, 11, 81
6, 246060, Control_c, 0, 11, 82
6, 246096, Control_c, 0, 11, 83
6, 246132, Control_c, 0, 11, 84
6, 246168, Control_c, 0, 11, 85
6, 246204, Control_c, 0, 11, 86
6, 246240, Control_c, 0, 11, 87
6, 246276, Control_c, 0, 11, 88
6, 246312, Control_c, 0, 11, 89
6, 246348, Control_c, 0, 11, 90
6, 246384, Control_c, 0, 11, 91
6, 246420, Control_c, 0, 11, 92
6, 246456, Control_c, 0, 11, 93
6, 246492, Control_c, 0, 11, 94
6, 246528, Control_c, 0, 11, 95
6, 246564, Control_c, 0, 11, 96
6, 246599, Note_on_c, 0, 87, 0
6, 246600, Note_on_c, 0, 86, 80
6, 246600, Control_c, 0, 11, 97
6, 246636, Control_c, 0, 11, 98
6, 246672, Control_c, 0, 11, 99
6, 246708, Control_c, 0, 11, 100
6, 246744, Control_c, 0, 11, 101
6, 246780, Control_c, 0, 11, 102
6, 246816, Control_c, 0, 11, 103
6, 246852, Control_c, 0, 11, 104
6, 246888, Control_c, 0, 11, 105
6, 246924, Control_c, 0, 11, 106
6, 246959, Note_on_c, 0, 86, 0
6, 246960, Control_c, 0, 11, 107
6, 246960, Note_on_c, 0, 85, 80
6, 246990, Control_c, 0, 11, 105
6, 247020, Control_c, 0, 11, 104
6, 247050, Control_c, 0, 11, 102
6, 247080, Control_c, 0, 11, 100
6, 247110, Control_c, 0, 11, 99
6, 247140, Control_c, 0, 11, 97
6, 247170, Control_c, 0, 11, 95
6, 247200, Control_c, 0, 11, 94
6, 247230, Control_c, 0, 11, 92
6, 247260, Control_c, 0, 11, 90
6, 247290, Control_c, 0, 11, 89
6, 247319, Note_on_c, 0, 85, 0
6, 247320, Note_on_c, 0, 84, 80
6, 247320, Control_c, 0, 11, 87
6, 247350, Control_c, 0, 11, 85
6, 247380, Control_c, 0, 11, 84
6, 247410, Control_c, 0, 11, 82
6, 247440, Control_c, 0, 11, 80
6, 247470, Control_c, 0, 11, 79
6, 247500, Control_c, 0, 11, 77
6, 247530, Control_c, 0, 11, 75
6, 247560, Control_c, 0, 11, 74
6, 247590, Control_c, 0, 11, 72
6, 247620, Control_c, 0, 11, 70
6, 247650, Control_c, 0, 11, 67
6, 247679, Note_on_c, 0, 84, 0
6, 247680, Note_on_c, 0, 82, 80
6, 247799, Note_on_c, 0, 82, 0
6, 249120, Control_c, 0, 11, 87
6, 249150, Control_c, 0, 11, 88
6, 249180, Control_c, 0, 11, 89
6, 249210, Control_c, 0, 11, 90
6, 249240, Control_c, 0, 11, 91
6, 249270, Control_c, 0, 11, 93
6, 249300, Control_c, 0, 11, 94
6, 249330, Control_c, 0, 11, 95
6, 249360, Control_c, 0, 11, 96
6, 249390, Control_c, 0, 11, 97
6, 249420, Control_c, 0, 11, 98
6, 249450, Control_c, 0, 11, 99
6, 249480, Control_c, 0, 11, 100
6, 249480, Note_on_c, 0, 88, 68
6, 249510, Control_c, 0, 11, 101
6, 249540, Control_c, 0, 11, 103
6, 249570, Control_c, 0, 11, 104
6, 249600, Control_c, 0, 11, 105
6, 249630, Control_c, 0, 11, 106
6, 249660, Control_c, 0, 11, 107
6, 249690, Control_c, 0, 11, 108
6, 249720, Control_c, 0, 11, 109
6, 249750, Control_c, 0, 11, 110
6, 249780, Control_c, 0, 11, 111
6, 249810, Control_c, 0, 11, 113
6, 249840, Control_c, 0, 11, 114
6, 249870, Control_c, 0, 11, 115
6, 249900, Control_c, 0, 11, 116
6, 249930, Control_c, 0, 11, 117
6, 249960, Control_c, 0, 11, 118
6, 249990, Control_c, 0, 11, 119
6, 250020, Control_c, 0, 11, 120
6, 250050, Control_c, 0, 11, 121
6, 250080, Control_c, 0, 11, 123
6, 250110, Control_c, 0, 11, 124
6, 250140, Control_c, 0, 11, 125
6, 250170, Control_c, 0, 11, 126
6, 250199, Note_on_c, 0, 88, 0
6, 250200, Note_on_c, 0, 86, 68
6, 250200, Control_c, 0, 11, 127
6, 250230, Control_c, 0, 11, 126
6, 250260, Control_c, 0, 11, 125
6, 250290, Control_c, 0, 11, 124
6, 250320, Control_c, 0, 11, 123
6, 250350, Control_c, 0, 11, 121
6, 250380, Control_c, 0, 11, 120
6, 250410, Control_c, 0, 11, 119
6, 250440, Control_c, 0, 11, 118
6, 250470, Control_c, 0, 11, 117
6, 250500, Control_c, 0, 11, 116
6, 250530, Control_c, 0, 11, 115
6, 250560, Control_c, 0, 11, 114
6, 250590, Control_c, 0, 11, 113
6, 250620, Control_c, 0, 11, 111
6, 250650, Control_c, 0, 11, 110
6, 250680, Control_c, 0, 11, 109
6, 250710, Control_c, 0, 11, 108
6, 250740, Control_c, 0, 11, 107
6, 250770, Control_c, 0, 11, 106
6, 250800, Control_c, 0, 11, 105
6, 250830, Control_c, 0, 11, 104
6, 250860, Control_c, 0, 11, 103
6, 250890, Control_c, 0, 11, 101
6, 250919, Note_on_c, 0, 86, 0
6, 250920, Note_on_c, 0, 85, 68
6, 250920, Control_c, 0, 11, 100
6, 250950, Control_c, 0, 11, 99
6, 250980, Control_c, 0, 11, 98
6, 251010, Control_c, 0, 11, 97
6, 251040, Control_c, 0, 11, 96
6, 251070, Control_c, 0, 11, 95
6, 251100, Control_c, 0, 11, 94
6, 251130, Control_c, 0, 11, 93
6, 251160, Control_c, 0, 11, 91
6, 251190, Control_c, 0, 11, 90
6, 251220, Control_c, 0, 11, 89
6, 251250, Control_c, 0, 11, 88
6, 251279, Note_on_c, 0, 85, 0
6, 254484, Control_c, 0, 11, 56
6, 254520, Control_c, 0, 11, 57
6, 254520, Note_on_c, 0, 90, 92
6, 254556, Control_c, 0, 11, 58
6, 254592, Control_c, 0, 11, 59
6, 254628, Control_c, 0, 11, 60
6, 254664, Control_c, 0, 11, 61
6, 254700, Control_c, 0, 11, 62
6, 254736, Control_c, 0, 11, 63
6, 254772, Control_c, 0, 11, 64
6, 254808, Control_c, 0, 11, 65
6, 254844, Control_c, 0, 11, 66
6, 254880, Control_c, 0, 11, 67
6, 254880, Note_on_c, 0, 87, 92
6, 254916, Control_c, 0, 11, 68
6, 254952, Control_c, 0, 11, 69
6, 254988, Control_c, 0, 11, 70
6, 255024, Control_c, 0, 11, 71
6, 255060, Control_c, 0, 11, 72
6, 255096, Control_c, 0, 11, 73
6, 255132, Control_c, 0, 11, 74
6, 255168, Control_c, 0, 11, 75
6, 255204, Control_c, 0, 11, 76
6, 255239, Note_on_c, 0, 90, 0
6, 255239, Note_on_c, 0, 87, 0
6, 255240, Control_c, 0, 11, 77
6, 255240, Note_on_c, 0, 91, 92
6, 255240, Note_on_c, 0, 88, 92
6, 255276, Control_c, 0, 11, 78
6, 255312, Control_c, 0, 11, 79
6, 255348, Control_c, 0, 11, 80
6, 255384, Control_c, 0, 11, 81
6, 255420, Control_c, 0, 11, 82
6, 255456, Control_c, 0, 11, 83
6, 255492, Control_c, 0, 11, 84
6, 255528, Control_c, 0, 11, 85
6, 255564, Control_c, 0, 11, 86
6, 255599, Note_on_c, 0, 91, 0
6, 255599, Note_on_c, 0, 88, 0
6, 255600, Note_on_c, 0, 85, 92
6, 255600, Control_c, 0, 11, 87
6, 255600, Note_on_c, 0, 88, 92
6, 255636, Control_c, 0, 11, 88
6, 255672, Control_c, 0, 11, 89
6, 255708, Control_c, 0, 11, 90
6, 255744, Control_c, 0, 11, 91
6, 255780, Control_c, 0, 11, 92
6, 255816, Control_c, 0, 11, 93
6, 255852, Control_c, 0, 11, 94
6, 255888, Control_c, 0, 11, 95
6, 255924, Control_c, 0, 11, 96
6, 255959, Note_on_c, 0, 85, 0
6, 255959, Note_on_c, 0, 88, 0
6, 255960, Note_on_c, 0, 86, 92
6, 255960, Control_c, 0, 11, 97
6, 255960, Note_on_c, 0, 90, 92
6, 255996, Control_c, 0, 11, 98
6, 256032, Control_c, 0, 11, 99
6, 256068, Control_c, 0, 11, 100
6, 256104, Control_c, 0, 11, 101
6, 256140, Control_c, 0, 11, 102
6, 256176, Control_c, 0, 11, 103
6, 256212, Control_c, 0, 11, 104
6, 256248, Control_c, 0, 11, 105
6, 256284, Control_c, 0, 11, 106
6, 256319, Note_on_c, 0, 90, 0
6, 256320, Control_c, 0, 11, 107
6, 256320, Note_on_c, 0, 93, 92
6, 256356, Control_c, 0, 11, 108
6, 256392, Control_c, 0, 11, 109
6, 256428, Control_c, 0, 11, 110
6, 256464, Control_c, 0, 11, 111
6, 256500, Control_c, 0, 11, 112
6, 256536, Control_c, 0, 11, 113
6, 256572, Control_c, 0, 11, 114
6, 256608, Control_c, 0, 11, 115
6, 256644, Control_c, 0, 11, 116
6, 256679, Note_on_c, 0, 86, 0
6, 256680, Control_c, 0, 11, 117
6, 256680, Note_on_c, 0, 85, 92
6, 256716, Control_c, 0, 11, 118
6, 256752, Control_c, 0, 11, 119
6, 256788, Control_c, 0, 11, 120
6, 256824, Control_c, 0, 11, 121
6, 256860, Control_c, 0, 11, 122
6, 256896, Control_c, 0, 11, 123
6, 256904, Note_on_c, 0, 93, 0
6, 256904, Note_on_c, 0, 85, 0
6, 256920, Note_on_c, 0, 85, 92
6, 256932, Control_c, 0, 11, 124
6, 256968, Control_c, 0, 11, 125
6, 257004, Control_c, 0, 11, 127
6, 257024, Note_on_c, 0, 85, 0
6, 257040, Note_on_c, 0, 86, 92
6, 257279, Note_on_c, 0, 86, 0
6, 257280, Note_on_c, 0, 88, 92
6, 257339, Note_on_c, 0, 88, 0
6, 257340, Note_on_c, 0, 90, 92
6, 257384, Note_on_c, 0, 90, 0
6, 257400, Note_on_c, 0, 91, 92
6, 257489, Note_on_c, 0, 91, 0
6, 257640, Note_on_c, 0, 90, 92
6, 257729, Note_on_c, 0, 90, 0
6, 257760, Note_on_c, 0, 88, 92
6, 257849, Note_on_c, 0, 88, 0
6, 258000, Note_on_c, 0, 86, 92
6, 258089, Note_on_c, 0, 86, 0
6, 258120, Note_on_c, 0, 88, 92
6, 258209, Note_on_c, 0, 88, 0
6, 258360, Note_on_c, 0, 85, 92
6, 258449, Note_on_c, 0, 85, 0
6, 258480, Note_on_c, 0, 86, 92
6, 258480, Note_on_c, 0, 90, 92
6, 258719, Note_on_c, 0, 86, 0
6, 258719, Note_on_c, 0, 90, 0
6, 258720, Note_on_c, 0, 91, 92
6, 258720, Note_on_c, 0, 88, 92
6, 258779, Note_on_c, 0, 91, 0
6, 258779, Note_on_c, 0, 88, 0
6, 258780, Note_on_c, 0, 90, 92
6, 258780, Note_on_c, 0, 93, 92
6, 258824, Note_on_c, 0, 90, 0
6, 258824, Note_on_c, 0, 93, 0
6, 258840, Note_on_c, 0, 83, 92
6, 258929, Note_on_c, 0, 83, 0
6, 259080, Note_on_c, 0, 90, 92
6, 259080, Note_on_c, 0, 93, 92
6, 259169, Note_on_c, 0, 90, 0
6, 259169, Note_on_c, 0, 93, 0
6, 259200, Note_on_c, 0, 88, 92
6, 259200, Note_on_c, 0, 91, 92
6, 259289, Note_on_c, 0, 88, 0
6, 259289, Note_on_c, 0, 91, 0
6, 259440, Note_on_c, 0, 86, 92
6, 259440, Note_on_c, 0, 90, 92
6, 259529, Note_on_c, 0, 86, 0
6, 259529, Note_on_c, 0, 90, 0
6, 259560, Note_on_c, 0, 88, 92
6, 259560, Note_on_c, 0, 91, 92
6, 259649, Note_on_c, 0, 88, 0
6, 259649, Note_on_c, 0, 91, 0
6, 259800, Note_on_c, 0, 88, 92
6, 259800, Note_on_c, 0, 85, 92
6, 259889, Note_on_c, 0, 88, 0
6, 259889, Note_on_c, 0, 85, 0
6, 259920, Note_on_c, 0, 86, 92
6, 260009, Note_on_c, 0, 86, 0
6, 260040, Note_on_c, 0, 86, 92
6, 260159, Note_on_c, 0, 86, 0
6, 260160, Note_on_c, 0, 88, 92
6, 260219, Note_on_c, 0, 88, 0
6, 260220, Note_on_c, 0, 89, 92
6, 260264, Note_on_c, 0, 89, 0
6, 260280, Note_on_c, 0, 91, 92
6, 260369, Note_on_c, 0, 91, 0
6, 260400, Note_on_c, 0, 91, 92
6, 260489, Note_on_c, 0, 91, 0
6, 260520, Note_on_c, 0, 89, 92
6, 260609, Note_on_c, 0, 89, 0
6, 260640, Note_on_c, 0, 88, 92
6, 260729, Note_on_c, 0, 88, 0
6, 260760, Note_on_c, 0, 88, 92
6, 260849, Note_on_c, 0, 88, 0
6, 260880, Note_on_c, 0, 86, 92
6, 260969, Note_on_c, 0, 86, 0
6, 261000, Note_on_c, 0, 88, 92
6, 261089, Note_on_c, 0, 88, 0
6, 261120, Note_on_c, 0, 88, 92
6, 261209, Note_on_c, 0, 88, 0
6, 261240, Note_on_c, 0, 85, 92
6, 261329, Note_on_c, 0, 85, 0
6, 261360, Note_on_c, 0, 89, 92
6, 261360, Note_on_c, 0, 86, 92
6, 261449, Note_on_c, 0, 89, 0
6, 261449, Note_on_c, 0, 86, 0
6, 261480, Note_on_c, 0, 86, 92
6, 261480, Note_on_c, 0, 89, 92
6, 261599, Note_on_c, 0, 86, 0
6, 261599, Note_on_c, 0, 89, 0
6, 261600, Note_on_c, 0, 88, 92
6, 261600, Note_on_c, 0, 91, 92
6, 261659, Note_on_c, 0, 88, 0
6, 261659, Note_on_c, 0, 91, 0
6, 261660, Note_on_c, 0, 89, 92
6, 261660, Note_on_c, 0, 93, 92
6, 261704, Note_on_c, 0, 89, 0
6, 261704, Note_on_c, 0, 93, 0
6, 261720, Note_on_c, 0, 82, 92
6, 261809, Note_on_c, 0, 82, 0
6, 261840, Note_on_c, 0, 82, 92
6, 261929, Note_on_c, 0, 82, 0
6, 261960, Note_on_c, 0, 93, 92
6, 261960, Note_on_c, 0, 89, 92
6, 262049, Note_on_c, 0, 93, 0
6, 262049, Note_on_c, 0, 89, 0
6, 262080, Note_on_c, 0, 88, 92
6, 262080, Note_on_c, 0, 91, 92
6, 262169, Note_on_c, 0, 88, 0
6, 262169, Note_on_c, 0, 91, 0
6, 262200, Note_on_c, 0, 88, 92
6, 262200, Note_on_c, 0, 91, 92
6, 262289, Note_on_c, 0, 88, 0
6, 262289, Note_on_c, 0, 91, 0
6, 262320, Note_on_c, 0, 89, 92
6, 262320, Note_on_c, 0, 86, 92
6, 262409, Note_on_c, 0, 89, 0
6, 262409, Note_on_c, 0, 86, 0
6, 262440, Note_on_c, 0, 91, 92
6, 262440, Note_on_c, 0, 88, 92
6, 262529, Note_on_c, 0, 91, 0
6, 262529, Note_on_c, 0, 88, 0
6, 262560, Note_on_c, 0, 91, 92
6, 262560, Note_on_c, 0, 88, 92
6, 262649, Note_on_c, 0, 91, 0
6, 262649, Note_on_c, 0, 88, 0
6, 262680, Note_on_c, 0, 85, 92
6, 262680, Note_on_c, 0, 88, 92
6, 262769, Note_on_c, 0, 85, 0
6, 262769, Note_on_c, 0, 88, 0
6, 262800, Note_on_c, 0, 89, 92
6, 262964, Note_on_c, 0, 89, 0
6, 262980, Note_on_c, 0, 77, 92
6, 263024, Note_on_c, 0, 77, 0
6, 263040, Note_on_c, 0, 77, 92
6, 263144, Note_on_c, 0, 77, 0
6, 263160, Note_on_c, 0, 77, 92
6, 263160, Note_on_c, 0, 89, 92
6, 263264, Note_on_c, 0, 77, 0
6, 263264, Note_on_c, 0, 89, 0
6, 263280, Note_on_c, 0, 91, 92
6, 263280, Note_on_c, 0, 79, 92
6, 263384, Note_on_c, 0, 91, 0
6, 263384, Note_on_c, 0, 79, 0
6, 263400, Note_on_c, 0, 93, 92
6, 263400, Note_on_c, 0, 81, 92
6, 263504, Note_on_c, 0, 93, 0
6, 263504, Note_on_c, 0, 81, 0
6, 263520, Note_on_c, 0, 82, 92
6, 263639, Note_on_c, 0, 82, 0
6, 264240, Note_on_c, 0, 88, 92
6, 264404, Note_on_c, 0, 88, 0
6, 264420, Note_on_c, 0, 76, 92
6, 264464, Note_on_c, 0, 76, 0
6, 264480, Note_on_c, 0, 76, 92
6, 264584, Note_on_c, 0, 76, 0
6, 264600, Note_on_c, 0, 76, 92
6, 264600, Note_on_c, 0, 88, 92
6, 264704, Note_on_c, 0, 76, 0
6, 264704, Note_on_c, 0, 88, 0
6, 264720, Note_on_c, 0, 77, 92
6, 264720, Note_on_c, 0, 89, 92
6, 264824, Note_on_c, 0, 77, 0
6, 264824, Note_on_c, 0, 89, 0
6, 264840, Note_on_c, 0, 79, 92
6, 264840, Note_on_c, 0, 91, 92
6, 264944, Note_on_c, 0, 79, 0
6, 264944, Note_on_c, 0, 91, 0
6, 264960, Note_on_c, 0, 93, 92
6, 264960, Note_on_c, 0, 81, 92
6, 265079, Note_on_c, 0, 93, 0
6, 265079, Note_on_c, 0, 81, 0
6, 265320, Note_on_c, 0, 81, 92
6, 265424, Note_on_c, 0, 81, 0
6, 265440, Note_on_c, 0, 86, 92
6, 265544, Note_on_c, 0, 86, 0
6, 265560, Note_on_c, 0, 76, 92
6, 265560, Note_on_c, 0, 88, 92
6, 265664, Note_on_c, 0, 76, 0
6, 265664, Note_on_c, 0, 88, 0
6, 265680, Note_on_c, 0, 90, 44
6, 265680, Note_on_c, 0, 78, 44
6, 265799, Note_on_c, 0, 90, 0
6, 265799, Note_on_c, 0, 78, 0
6, 266400, Note_on_c, 0, 91, 44
6, 266400, Note_on_c, 0, 79, 44
6, 266519, Note_on_c, 0, 91, 0
6, 266519, Note_on_c, 0, 79, 0
6, 267480, Control_c, 0, 11, 67
6, 267840, Note_on_c, 0, 91, 80
6, 267840, Note_on_c, 0, 87, 80
6, 267840, Control_c, 0, 11, 67
6, 267870, Control_c, 0, 11, 68
6, 267900, Control_c, 0, 11, 70
6, 267930, Control_c, 0, 11, 71
6, 267960, Control_c, 0, 11, 72
6, 267990, Control_c, 0, 11, 73
6, 268020, Control_c, 0, 11, 75
6, 268050, Control_c, 0, 11, 76
6, 268080, Control_c, 0, 11, 77
6, 268110, Control_c, 0, 11, 78
6, 268140, Control_c, 0, 11, 80
6, 268170, Control_c, 0, 11, 81
6, 268184, Note_on_c, 0, 91, 0
6, 268184, Note_on_c, 0, 87, 0
6, 268200, Note_on_c, 0, 87, 80
6, 268200, Note_on_c, 0, 91, 80
6, 268200, Control_c, 0, 11, 82
6, 268230, Control_c, 0, 11, 83
6, 268260, Control_c, 0, 11, 85
6, 268290, Control_c, 0, 11, 86
6, 268320, Control_c, 0, 11, 87
6, 268350, Control_c, 0, 11, 88
6, 268380, Control_c, 0, 11, 90
6, 268410, Control_c, 0, 11, 91
6, 268440, Control_c, 0, 11, 92
6, 268470, Control_c, 0, 11, 93
6, 268500, Control_c, 0, 11, 95
6, 268530, Control_c, 0, 11, 96
6, 268544, Note_on_c, 0, 87, 0
6, 268544, Note_on_c, 0, 91, 0
6, 268560, Note_on_c, 0, 91, 80
6, 268560, Control_c, 0, 11, 97
6, 268560, Note_on_c, 0, 88, 80
6, 268590, Control_c, 0, 11, 98
6, 268620, Control_c, 0, 11, 100
6, 268650, Control_c, 0, 11, 101
6, 268680, Control_c, 0, 11, 102
6, 268710, Control_c, 0, 11, 103
6, 268740, Control_c, 0, 11, 105
6, 268770, Control_c, 0, 11, 106
6, 268800, Control_c, 0, 11, 107
6, 268830, Control_c, 0, 11, 108
6, 268860, Control_c, 0, 11, 110
6, 268890, Control_c, 0, 11, 111
6, 268920, Control_c, 0, 11, 112
6, 268950, Control_c, 0, 11, 113
6, 268980, Control_c, 0, 11, 115
6, 269010, Control_c, 0, 11, 116
6, 269039, Note_on_c, 0, 91, 0
6, 269039, Note_on_c, 0, 88, 0
6, 269040, Note_on_c, 0, 89, 80
6, 269040, Control_c, 0, 11, 117
6, 269040, Note_on_c, 0, 86, 80
6, 269070, Control_c, 0, 11, 118
6, 269100, Control_c, 0, 11, 120
6, 269130, Control_c, 0, 11, 121
6, 269159, Note_on_c, 0, 89, 0
6, 269159, Note_on_c, 0, 86, 0
6, 269160, Note_on_c, 0, 88, 80
6, 269160, Note_on_c, 0, 91, 80
6, 269160, Control_c, 0, 11, 122
6, 269190, Control_c, 0, 11, 123
6, 269220, Control_c, 0, 11, 125
6, 269250, Control_c, 0, 11, 127
6, 269264, Note_on_c, 0, 88, 0
6, 269264, Note_on_c, 0, 91, 0
6, 269280, Note_on_c, 0, 81, 80
6, 269280, Note_on_c, 0, 93, 80
6, 269369, Note_on_c, 0, 81, 0
6, 269369, Note_on_c, 0, 93, 0
6, 269400, Note_on_c, 0, 77, 80
6, 269400, Note_on_c, 0, 89, 80
6, 269489, Note_on_c, 0, 77, 0
6, 269489, Note_on_c, 0, 89, 0
6, 269520, Note_on_c, 0, 82, 80
6, 269609, Note_on_c, 0, 82, 0
6, 269640, Note_on_c, 0, 91, 80
6, 269640, Note_on_c, 0, 79, 80
6, 269729, Note_on_c, 0, 91, 0
6, 269729, Note_on_c, 0, 79, 0
6, 269760, Note_on_c, 0, 76, 80
6, 269760, Note_on_c, 0, 88, 80
6, 269849, Note_on_c, 0, 76, 0
6, 269849, Note_on_c, 0, 88, 0
6, 269880, Note_on_c, 0, 81, 80
6, 269880, Note_on_c, 0, 93, 80
6, 269969, Note_on_c, 0, 81, 0
6, 269969, Note_on_c, 0, 93, 0
6, 270000, Note_on_c, 0, 89, 80
6, 270000, Note_on_c, 0, 77, 80
6, 270119, Note_on_c, 0, 89, 0
6, 270119, Note_on_c, 0, 77, 0
6, 270720, Note_on_c, 0, 93, 80
6, 270720, Note_on_c, 0, 81, 80
6, 270809, Note_on_c, 0, 93, 0
6, 270809, Note_on_c, 0, 81, 0
6, 270840, Note_on_c, 0, 77, 80
6, 270840, Note_on_c, 0, 89, 80
6, 270929, Note_on_c, 0, 77, 0
6, 270929, Note_on_c, 0, 89, 0
6, 270960, Note_on_c, 0, 82, 80
6, 271049, Note_on_c, 0, 82, 0
6, 271080, Note_on_c, 0, 91, 80
6, 271080, Note_on_c, 0, 79, 80
6, 271169, Note_on_c, 0, 91, 0
6, 271169, Note_on_c, 0, 79, 0
6, 271200, Note_on_c, 0, 88, 80
6, 271200, Note_on_c, 0, 76, 80
6, 271289, Note_on_c, 0, 88, 0
6, 271289, Note_on_c, 0, 76, 0
6, 271320, Note_on_c, 0, 81, 80
6, 271320, Note_on_c, 0, 93, 80
6, 271409, Note_on_c, 0, 81, 0
6, 271409, Note_on_c, 0, 93, 0
6, 271440, Note_on_c, 0, 81, 80
6, 271440, Note_on_c, 0, 93, 80
6, 271529, Note_on_c, 0, 81, 0
6, 271529, Note_on_c, 0, 93, 0
6, 271560, Note_on_c, 0, 93, 80
6, 271560, Note_on_c, 0, 81, 80
6, 271649, Note_on_c, 0, 93, 0
6, 271649, Note_on_c, 0, 81, 0
6, 271680, Note_on_c, 0, 93, 80
6, 271680, Note_on_c, 0, 81, 80
6, 271769, Note_on_c, 0, 93, 0
6, 271769, Note_on_c, 0, 81, 0
6, 271800, Note_on_c, 0, 81, 80
6, 271800, Note_on_c, 0, 93, 80
6, 271889, Note_on_c, 0, 81, 0
6, 271889, Note_on_c, 0, 93, 0
6, 271920, Note_on_c, 0, 93, 80
6, 271920, Note_on_c, 0, 81, 80
6, 272009, Note_on_c, 0, 93, 0
6, 272009, Note_on_c, 0, 81, 0
6, 272040, Note_on_c, 0, 81, 80
6, 272040, Note_on_c, 0, 93, 80
6, 272129, Note_on_c, 0, 81, 0
6, 272129, Note_on_c, 0, 93, 0
6, 272160, Note_on_c, 0, 86, 80
6, 272160, Note_on_c, 0, 89, 80
6, 272249, Note_on_c, 0, 86, 0
6, 272249, Note_on_c, 0, 89, 0
6, 272280, Note_on_c, 0, 81, 80
6, 272280, Note_on_c, 0, 86, 80
6, 272369, Note_on_c, 0, 81, 0
6, 272369, Note_on_c, 0, 86, 0
6, 272400, Note_on_c, 0, 89, 80
6, 272400, Note_on_c, 0, 93, 80
6, 272489, Note_on_c, 0, 89, 0
6, 272489, Note_on_c, 0, 93, 0
6, 272520, Note_on_c, 0, 91, 80
6, 272520, Note_on_c, 0, 88, 80
6, 272609, Note_on_c, 0, 91, 0
6, 272609, Note_on_c, 0, 88, 0
6, 272640, Note_on_c, 0, 88, 80
6, 272640, Note_on_c, 0, 81, 80
6, 272729, Note_on_c, 0, 88, 0
6, 272729, Note_on_c, 0, 81, 0
6, 272760, Note_on_c, 0, 88, 80
6, 272760, Note_on_c, 0, 93, 80
6, 272849, Note_on_c, 0, 88, 0
6, 272849, Note_on_c, 0, 93, 0
6, 272880, Note_on_c, 0, 86, 80
6, 272880, Note_on_c, 0, 89, 80
6, 272969, Note_on_c, 0, 86, 0
6, 272969, Note_on_c, 0, 89, 0
6, 273000, Note_on_c, 0, 86, 80
6, 273000, Note_on_c, 0, 81, 80
6, 273089, Note_on_c, 0, 86, 0
6, 273089, Note_on_c, 0, 81, 0
6, 273120, Note_on_c, 0, 89, 80
6, 273120, Note_on_c, 0, 93, 80
6, 273209, Note_on_c, 0, 89, 0
6, 273209, Note_on_c, 0, 93, 0
6, 273240, Note_on_c, 0, 91, 80
6, 273240, Note_on_c, 0, 88, 80
6, 273329, Note_on_c, 0, 91, 0
6, 273329, Note_on_c, 0, 88, 0
6, 273360, Note_on_c, 0, 88, 80
6, 273360, Note_on_c, 0, 81, 80
6, 273449, Note_on_c, 0, 88, 0
6, 273449, Note_on_c, 0, 81, 0
6, 273480, Note_on_c, 0, 88, 80
6, 273480, Note_on_c, 0, 93, 80
6, 273569, Note_on_c, 0, 88, 0
6, 273569, Note_on_c, 0, 93, 0
6, 273600, Note_on_c, 0, 69, 32
6, 273719, Note_on_c, 0, 69, 0
6, 273720, Note_on_c, 0, 73, 32
6, 273839, Note_on_c, 0, 73, 0
6, 273840, Note_on_c, 0, 76, 32
6, 273959, Note_on_c, 0, 76, 0
6, 273960, Note_on_c, 0, 79, 32
6, 274079, Note_on_c, 0, 79, 0
6, 274080, Note_on_c, 0, 85, 32
6, 274199, Note_on_c, 0, 85, 0
6, 274200, Note_on_c, 0, 88, 32
6, 274304, Note_on_c, 0, 88, 0
6, 274320, Note_on_c, 0, 91, 32
6, 274799, Note_on_c, 0, 91, 0
6, 274800, Note_on_c, 0, 88, 32
6, 274919, Note_on_c, 0, 88, 0
6, 274920, Note_on_c, 0, 85, 32
6, 275024, Note_on_c, 0, 85, 0
6, 275040, Note_on_c, 0, 86, 32
6, 275159, Note_on_c, 0, 86, 0
6, 275400, Note_on_c, 0, 86, 32
6, 275564, Note_on_c, 0, 86, 0
6, 275580, Note_on_c, 0, 74, 32
6, 275624, Note_on_c, 0, 74, 0
6, 275640, Note_on_c, 0, 74, 32
6, 275744, Note_on_c, 0, 74, 0
6, 275760, Note_on_c, 0, 74, 32
6, 275879, Note_on_c, 0, 74, 0
6, 276120, Note_on_c, 0, 86, 32
6, 276284, Note_on_c, 0, 86, 0
6, 276300, Note_on_c, 0, 74, 32
6, 276344, Note_on_c, 0, 74, 0
6, 276360, Note_on_c, 0, 74, 32
6, 276464, Note_on_c, 0, 74, 0
6, 276480, Note_on_c, 0, 74, 32
6, 276599, Note_on_c, 0, 74, 0
6, 278280, Note_on_c, 0, 86, 40
6, 278444, Note_on_c, 0, 86, 0
6, 278460, Note_on_c, 0, 74, 44
6, 278504, Note_on_c, 0, 74, 0
6, 278520, Note_on_c, 0, 74, 46
6, 278624, Note_on_c, 0, 74, 0
6, 278640, Note_on_c, 0, 74, 49
6, 278759, Note_on_c, 0, 74, 0
6, 279000, Note_on_c, 0, 86, 57
6, 279164, Note_on_c, 0, 86, 0
6, 279180, Note_on_c, 0, 74, 62
6, 279224, Note_on_c, 0, 74, 0
6, 279240, Note_on_c, 0, 74, 63
6, 279344, Note_on_c, 0, 74, 0
6, 279360, Note_on_c, 0, 74, 66
6, 279479, Note_on_c, 0, 74, 0
6, 279720, Note_on_c, 0, 86, 74
6, 279884, Note_on_c, 0, 86, 0
6, 279900, Note_on_c, 0, 74, 79
6, 279944, Note_on_c, 0, 74, 0
6, 279960, Note_on_c, 0, 74, 80
6, 280064, Note_on_c, 0, 74, 0
6, 280080, Note_on_c, 0, 74, 83
6, 280199, Note_on_c, 0, 74, 0
6, 280440, Note_on_c, 0, 76, 92
6, 280440, Note_on_c, 0, 88, 92
6, 280604, Note_on_c, 0, 76, 0
6, 280604, Note_on_c, 0, 88, 0
6, 280620, Note_on_c, 0, 76, 92
6, 280664, Note_on_c, 0, 76, 0
6, 280680, Note_on_c, 0, 76, 92
6, 280680, Note_on_c, 0, 88, 92
6, 281129, Note_on_c, 0, 76, 0
6, 281129, Note_on_c, 0, 88, 0
6, 281880, Note_on_c, 0, 86, 32
6, 282044, Note_on_c, 0, 86, 0
6, 282060, Note_on_c, 0, 74, 32
6, 282104, Note_on_c, 0, 74, 0
6, 282120, Note_on_c, 0, 74, 32
6, 282224, Note_on_c, 0, 74, 0
6, 282240, Note_on_c, 0, 79, 32
6, 282329, Note_on_c, 0, 79, 0
6, 282360, Note_on_c, 0, 81, 32
6, 282449, Note_on_c, 0, 81, 0
6, 282480, Note_on_c, 0, 82, 32
6, 282569, Note_on_c, 0, 82, 0
6, 283320, Note_on_c, 0, 86, 32
6, 283484, Note_on_c, 0, 86, 0
6, 283500, Note_on_c, 0, 74, 32
6, 283544, Note_on_c, 0, 74, 0
6, 283560, Note_on_c, 0, 74, 32
6, 283664, Note_on_c, 0, 74, 0
6, 283680, Note_on_c, 0, 79, 32
6, 283769, Note_on_c, 0, 79, 0
6, 283800, Note_on_c, 0, 81, 32
6, 283889, Note_on_c, 0, 81, 0
6, 283920, Note_on_c, 0, 82, 32
6, 284009, Note_on_c, 0, 82, 0
6, 284040, Note_on_c, 0, 93, 32
6, 284040, Note_on_c, 0, 81, 32
6, 284204, Note_on_c, 0, 93, 0
6, 284204, Note_on_c, 0, 81, 0
6, 284220, Note_on_c, 0, 69, 35
6, 284220, Note_on_c, 0, 81, 35
6, 284264, Note_on_c, 0, 69, 0
6, 284264, Note_on_c, 0, 81, 0
6, 284280, Note_on_c, 0, 69, 37
6, 284280, Note_on_c, 0, 81, 37
6, 284384, Note_on_c, 0, 69, 0
6, 284384, Note_on_c, 0, 81, 0
6, 284400, Note_on_c, 0, 86, 39
6, 284400, Note_on_c, 0, 74, 39
6, 284489, Note_on_c, 0, 86, 0
6, 284489, Note_on_c, 0, 74, 0
6, 284520, Note_on_c, 0, 76, 42
6, 284520, Note_on_c, 0, 88, 42
6, 284609, Note_on_c, 0, 76, 0
6, 284609, Note_on_c, 0, 88, 0
6, 284640, Note_on_c, 0, 77, 44
6, 284640, Note_on_c, 0, 89, 44
6, 284729, Note_on_c, 0, 77, 0
6, 284729, Note_on_c, 0, 89, 0
6, 284760, Note_on_c, 0, 81, 47
6, 284760, Note_on_c, 0, 93, 47
6, 284924, Note_on_c, 0, 81, 0
6, 284924, Note_on_c, 0, 93, 0
6, 284940, Note_on_c, 0, 69, 50
6, 284940, Note_on_c, 0, 81, 50
6, 284984, Note_on_c, 0, 69, 0
6, 284984, Note_on_c, 0, 81, 0
6, 285000, Note_on_c, 0, 69, 52
6, 285000, Note_on_c, 0, 81, 52
6, 285104, Note_on_c, 0, 69, 0
6, 285104, Note_on_c, 0, 81, 0
6, 285120, Note_on_c, 0, 86, 54
6, 285120, Note_on_c, 0, 74, 54
6, 285209, Note_on_c, 0, 86, 0
6, 285209, Note_on_c, 0, 74, 0
6, 285240, Note_on_c, 0, 88, 57
6, 285240, Note_on_c, 0, 76, 57
6, 285329, Note_on_c, 0, 88, 0
6, 285329, Note_on_c, 0, 76, 0
6, 285360, Note_on_c, 0, 77, 59
6, 285360, Note_on_c, 0, 89, 59
6, 285449, Note_on_c, 0, 77, 0
6, 285449, Note_on_c, 0, 89, 0
6, 285480, Note_on_c, 0, 93, 62
6, 285480, Note_on_c, 0, 81, 62
6, 285644, Note_on_c, 0, 93, 0
6, 285644, Note_on_c, 0, 81, 0
6, 285660, Note_on_c, 0, 81, 65
6, 285660, Note_on_c, 0, 69, 65
6, 285704, Note_on_c, 0, 81, 0
6, 285704, Note_on_c, 0, 69, 0
6, 285720, Note_on_c, 0, 81, 67
6, 285720, Note_on_c, 0, 69, 67
6, 285824, Note_on_c, 0, 81, 0
6, 285824, Note_on_c, 0, 69, 0
6, 285840, Note_on_c, 0, 86, 69
6, 285840, Note_on_c, 0, 74, 69
6, 285929, Note_on_c, 0, 86, 0
6, 285929, Note_on_c, 0, 74, 0
6, 285960, Note_on_c, 0, 88, 72
6, 285960, Note_on_c, 0, 76, 72
6, 286049, Note_on_c, 0, 88, 0
6, 286049, Note_on_c, 0, 76, 0
6, 286080, Note_on_c, 0, 89, 74
6, 286080, Note_on_c, 0, 77, 74
6, 286169, Note_on_c, 0, 89, 0
6, 286169, Note_on_c, 0, 77, 0
6, 286200, Note_on_c, 0, 81, 77
6, 286200, Note_on_c, 0, 93, 77
6, 286364, Note_on_c, 0, 81, 0
6, 286364, Note_on_c, 0, 93, 0
6, 286380, Note_on_c, 0, 81, 80
6, 286380, Note_on_c, 0, 69, 80
6, 286424, Note_on_c, 0, 81, 0
6, 286424, Note_on_c, 0, 69, 0
6, 286440, Note_on_c, 0, 69, 82
6, 286440, Note_on_c, 0, 81, 82
6, 286544, Note_on_c, 0, 69, 0
6, 286544, Note_on_c, 0, 81, 0
6, 286560, Note_on_c, 0, 74, 84
6, 286560, Note_on_c, 0, 86, 84
6, 286649, Note_on_c, 0, 74, 0
6, 286649, Note_on_c, 0, 86, 0
6, 286680, Note_on_c, 0, 76, 87
6, 286680, Note_on_c, 0, 88, 87
6, 286769, Note_on_c, 0, 76, 0
6, 286769, Note_on_c, 0, 88, 0
6, 286800, Note_on_c, 0, 89, 89
6, 286800, Note_on_c, 0, 77, 89
6, 286889, Note_on_c, 0, 89, 0
6, 286889, Note_on_c, 0, 77, 0
6, 286920, Note_on_c, 0, 81, 92
6, 286920, Note_on_c, 0, 93, 92
6, 287009, Note_on_c, 0, 81, 0
6, 287009, Note_on_c, 0, 93, 0
6, 287040, Note_on_c, 0, 69, 92
6, 287040, Note_on_c, 0, 81, 92
6, 287129, Note_on_c, 0, 69, 0
6, 287129, Note_on_c, 0, 81, 0
6, 287160, Note_on_c, 0, 74, 80
6, 287160, Note_on_c, 0, 86, 80
6, 287249, Note_on_c, 0, 74, 0
6, 287249, Note_on_c, 0, 86, 0
6, 287280, Note_on_c, 0, 74, 80
6, 287280, Note_on_c, 0, 62, 80
6, 287369, Note_on_c, 0, 74, 0
6, 287369, Note_on_c, 0, 62, 0
6, 287400, Note_on_c, 0, 69, 80
6, 287400, Note_on_c, 0, 81, 80
6, 287489, Note_on_c, 0, 69, 0
6, 287489, Note_on_c, 0, 81, 0
6, 287520, Note_on_c, 0, 69, 80
6, 287609, Note_on_c, 0, 69, 0
6, 287640, Note_on_c, 0, 93, 80
6, 287640, Note_on_c, 0, 81, 80
6, 287729, Note_on_c, 0, 93, 0
6, 287729, Note_on_c, 0, 81, 0
6, 287760, Note_on_c, 0, 69, 80
6, 287760, Note_on_c, 0, 81, 80
6, 287849, Note_on_c, 0, 69, 0
6, 287849, Note_on_c, 0, 81, 0
6, 287880, Note_on_c, 0, 74, 80
6, 287969, Note_on_c, 0, 74, 0
6, 288360, Control_c, 0, 11, 127
6, 301440, Note_on_c, 0, 81, 46
6, 301559, Note_on_c, 0, 81, 0
6, 301560, Note_on_c, 0, 83, 48
6, 301679, Note_on_c, 0, 83, 0
6, 301680, Note_on_c, 0, 85, 51
6, 301799, Note_on_c, 0, 85, 0
6, 301800, Note_on_c, 0, 86, 53
6, 301919, Note_on_c, 0, 86, 0
6, 301920, Note_on_c, 0, 85, 56
6, 302039, Note_on_c, 0, 85, 0
6, 302040, Note_on_c, 0, 86, 58
6, 302159, Note_on_c, 0, 86, 0
6, 302160, Note_on_c, 0, 88, 60
6, 302259, Note_on_c, 0, 88, 0
6, 302280, Note_on_c, 0, 90, 63
6, 302399, Note_on_c, 0, 90, 0
6, 302400, Note_on_c, 0, 93, 65
6, 302519, Note_on_c, 0, 93, 0
6, 302520, Note_on_c, 0, 91, 68
6, 302639, Note_on_c, 0, 91, 0
6, 302640, Note_on_c, 0, 83, 56
6, 302739, Note_on_c, 0, 83, 0
6, 302760, Note_on_c, 0, 86, 44
6, 302760, Note_on_c, 0, 81, 44
6, 302879, Note_on_c, 0, 86, 0
6, 302879, Note_on_c, 0, 81, 0
6, 303000, Note_on_c, 0, 85, 44
6, 303000, Note_on_c, 0, 81, 44
6, 303119, Note_on_c, 0, 85, 0
6, 303119, Note_on_c, 0, 81, 0
6, 303240, Note_on_c, 0, 86, 44
6, 303240, Note_on_c, 0, 81, 44
6, 303359, Note_on_c, 0, 86, 0
6, 303359, Note_on_c, 0, 81, 0
6, 321000, Note_on_c, 0, 86, 80
6, 321060, Control_c, 0, 11, 67
6, 321480, Control_c, 0, 11, 67
6, 321536, Control_c, 0, 11, 68
6, 321592, Control_c, 0, 11, 69
6, 321648, Control_c, 0, 11, 70
6, 321699, Note_on_c, 0, 86, 0
6, 321704, Control_c, 0, 11, 71
6, 321720, Note_on_c, 0, 88, 80
6, 321760, Control_c, 0, 11, 72
6, 321816, Control_c, 0, 11, 73
6, 321872, Control_c, 0, 11, 74
6, 321928, Control_c, 0, 11, 75
6, 321939, Note_on_c, 0, 88, 0
6, 321960, Note_on_c, 0, 90, 80
6, 321984, Control_c, 0, 11, 76
6, 322040, Control_c, 0, 11, 77
6, 322096, Control_c, 0, 11, 78
6, 322152, Control_c, 0, 11, 79
6, 322208, Control_c, 0, 11, 80
6, 322264, Control_c, 0, 11, 81
6, 322319, Note_on_c, 0, 90, 0
6, 322320, Control_c, 0, 11, 82
6, 322320, Note_on_c, 0, 91, 80
6, 322376, Control_c, 0, 11, 83
6, 322379, Note_on_c, 0, 91, 0
6, 322380, Note_on_c, 0, 93, 80
6, 322419, Note_on_c, 0, 93, 0
6, 322432, Control_c, 0, 11, 84
6, 322440, Note_on_c, 0, 91, 80
6, 322488, Control_c, 0, 11, 85
6, 322529, Note_on_c, 0, 91, 0
6, 322544, Control_c, 0, 11, 86
6, 322560, Note_on_c, 0, 91, 80
6, 322600, Control_c, 0, 11, 87
6, 322649, Note_on_c, 0, 91, 0
6, 322656, Control_c, 0, 11, 88
6, 322680, Note_on_c, 0, 90, 80
6, 322712, Control_c, 0, 11, 89
6, 322768, Control_c, 0, 11, 90
6, 322769, Note_on_c, 0, 90, 0
6, 322800, Note_on_c, 0, 90, 80
6, 322824, Control_c, 0, 11, 91
6, 322880, Control_c, 0, 11, 92
6, 322889, Note_on_c, 0, 90, 0
6, 322920, Note_on_c, 0, 88, 80
6, 322936, Control_c, 0, 11, 93
6, 322992, Control_c, 0, 11, 94
6, 323048, Control_c, 0, 11, 95
6, 323104, Control_c, 0, 11, 96
6, 323139, Note_on_c, 0, 88, 0
6, 323160, Control_c, 0, 11, 97
6, 323160, Note_on_c, 0, 86, 80
6, 323216, Control_c, 0, 11, 98
6, 323272, Control_c, 0, 11, 99
6, 323328, Control_c, 0, 11, 100
6, 323384, Control_c, 0, 11, 101
6, 323440, Control_c, 0, 11, 102
6, 323496, Control_c, 0, 11, 103
6, 323552, Control_c, 0, 11, 104
6, 323608, Control_c, 0, 11, 105
6, 323619, Note_on_c, 0, 86, 0
6, 323640, Note_on_c, 0, 88, 80
6, 323664, Control_c, 0, 11, 106
6, 323720, Control_c, 0, 11, 107
6, 323776, Control_c, 0, 11, 108
6, 323832, Control_c, 0, 11, 109
6, 323859, Note_on_c, 0, 88, 0
6, 323880, Note_on_c, 0, 90, 80
6, 323888, Control_c, 0, 11, 110
6, 323944, Control_c, 0, 11, 111
6, 324000, Control_c, 0, 11, 112
6, 324056, Control_c, 0, 11, 113
6, 324112, Control_c, 0, 11, 114
6, 324168, Control_c, 0, 11, 115
6, 324224, Control_c, 0, 11, 116
6, 324239, Note_on_c, 0, 90, 0
6, 324240, Note_on_c, 0, 91, 80
6, 324280, Control_c, 0, 11, 117
6, 324299, Note_on_c, 0, 91, 0
6, 324300, Note_on_c, 0, 93, 80
6, 324336, Control_c, 0, 11, 118
6, 324339, Note_on_c, 0, 93, 0
6, 324360, Note_on_c, 0, 91, 80
6, 324392, Control_c, 0, 11, 119
6, 324448, Control_c, 0, 11, 120
6, 324449, Note_on_c, 0, 91, 0
6, 324480, Note_on_c, 0, 91, 80
6, 324504, Control_c, 0, 11, 121
6, 324560, Control_c, 0, 11, 122
6, 324569, Note_on_c, 0, 91, 0
6, 324600, Note_on_c, 0, 90, 80
6, 324616, Control_c, 0, 11, 123
6, 324672, Control_c, 0, 11, 124
6, 324689, Note_on_c, 0, 90, 0
6, 324720, Note_on_c, 0, 90, 80
6, 324728, Control_c, 0, 11, 125
6, 324784, Control_c, 0, 11, 127
6, 324809, Note_on_c, 0, 90, 0
6, 324840, Note_on_c, 0, 88, 80
6, 324959, Note_on_c, 0, 88, 0
6, 325080, Note_on_c, 0, 86, 80
6, 325539, Note_on_c, 0, 86, 0
6, 325560, Note_on_c, 0, 88, 80
6, 325779, Note_on_c, 0, 88, 0
6, 325800, Note_on_c, 0, 90, 80
6, 326159, Note_on_c, 0, 90, 0
6, 326160, Note_on_c, 0, 91, 80
6, 326219, Note_on_c, 0, 91, 0
6, 326220, Note_on_c, 0, 93, 80
6, 326259, Note_on_c, 0, 93, 0
6, 326280, Note_on_c, 0, 91, 80
6, 326369, Note_on_c, 0, 91, 0
6, 326400, Note_on_c, 0, 91, 80
6, 326489, Note_on_c, 0, 91, 0
6, 326520, Note_on_c, 0, 90, 80
6, 326609, Note_on_c, 0, 90, 0
6, 326640, Note_on_c, 0, 90, 80
6, 326729, Note_on_c, 0, 90, 0
6, 326760, Note_on_c, 0, 88, 80
6, 326979, Note_on_c, 0, 88, 0
6, 327000, Note_on_c, 0, 86, 80
6, 327459, Note_on_c, 0, 86, 0
6, 327480, Note_on_c, 0, 88, 80
6, 327699, Note_on_c, 0, 88, 0
6, 327720, Note_on_c, 0, 90, 80
6, 328079, Note_on_c, 0, 90, 0
6, 328080, Note_on_c, 0, 91, 80
6, 328139, Note_on_c, 0, 91, 0
6, 328140, Note_on_c, 0, 93, 80
6, 328179, Note_on_c, 0, 93, 0
6, 328200, Note_on_c, 0, 91, 80
6, 328289, Note_on_c, 0, 91, 0
6, 328320, Note_on_c, 0, 91, 80
6, 328409, Note_on_c, 0, 91, 0
6, 328440, Note_on_c, 0, 90, 80
6, 328529, Note_on_c, 0, 90, 0
6, 328560, Note_on_c, 0, 90, 80
6, 328649, Note_on_c, 0, 90, 0
6, 328680, Note_on_c, 0, 86, 80
6, 328799, Note_on_c, 0, 86, 0
6, 334560, Note_on_c, 0, 81, 46
6, 334679, Note_on_c, 0, 81, 0
6, 334680, Note_on_c, 0, 83, 48
6, 334799, Note_on_c, 0, 83, 0
6, 334800, Note_on_c, 0, 85, 51
6, 334919, Note_on_c, 0, 85, 0
6, 334920, Note_on_c, 0, 86, 53
6, 335039, Note_on_c, 0, 86, 0
6, 335040, Note_on_c, 0, 85, 56
6, 335159, Note_on_c, 0, 85, 0
6, 335160, Note_on_c, 0, 86, 58
6, 335279, Note_on_c, 0, 86, 0
6, 335280, Note_on_c, 0, 88, 60
6, 335379, Note_on_c, 0, 88, 0
6, 335400, Note_on_c, 0, 90, 63
6, 335519, Note_on_c, 0, 90, 0
6, 335520, Note_on_c, 0, 93, 65
6, 335639, Note_on_c, 0, 93, 0
6, 335640, Note_on_c, 0, 91, 68
6, 335759, Note_on_c, 0, 91, 0
6, 335760, Note_on_c, 0, 83, 56
6, 335859, Note_on_c, 0, 83, 0
6, 335880, Note_on_c, 0, 81, 44
6, 335880, Note_on_c, 0, 86, 44
6, 335999, Note_on_c, 0, 81, 0
6, 335999, Note_on_c, 0, 86, 0
6, 336120, Note_on_c, 0, 81, 44
6, 336120, Note_on_c, 0, 85, 44
6, 336239, Note_on_c, 0, 81, 0
6, 336239, Note_on_c, 0, 85, 0
6, 336360, Note_on_c, 0, 81, 44
6, 336360, Note_on_c, 0, 86, 44
6, 336479, Note_on_c, 0, 81, 0
6, 336479, Note_on_c, 0, 86, 0
6, 354120, Note_on_c, 0, 86, 80
6, 354180, Control_c, 0, 11, 67
6, 354600, Control_c, 0, 11, 67
6, 354656, Control_c, 0, 11, 68
6, 354712, Control_c, 0, 11, 69
6, 354768, Control_c, 0, 11, 70
6, 354819, Note_on_c, 0, 86, 0
6, 354824, Control_c, 0, 11, 71
6, 354840, Note_on_c, 0, 88, 80
6, 354880, Control_c, 0, 11, 72
6, 354936, Control_c, 0, 11, 73
6, 354992, Control_c, 0, 11, 74
6, 355048, Control_c, 0, 11, 75
6, 355059, Note_on_c, 0, 88, 0
6, 355080, Note_on_c, 0, 90, 80
6, 355104, Control_c, 0, 11, 76
6, 355160, Control_c, 0, 11, 77
6, 355216, Control_c, 0, 11, 78
6, 355272, Control_c, 0, 11, 79
6, 355328, Control_c, 0, 11, 80
6, 355384, Control_c, 0, 11, 81
6, 355439, Note_on_c, 0, 90, 0
6, 355440, Note_on_c, 0, 91, 80
6, 355440, Control_c, 0, 11, 82
6, 355496, Control_c, 0, 11, 83
6, 355499, Note_on_c, 0, 91, 0
6, 355500, Note_on_c, 0, 93, 80
6, 355539, Note_on_c, 0, 93, 0
6, 355552, Control_c, 0, 11, 84
6, 355560, Note_on_c, 0, 91, 80
6, 355608, Control_c, 0, 11, 85
6, 355649, Note_on_c, 0, 91, 0
6, 355664, Control_c, 0, 11, 86
6, 355680, Note_on_c, 0, 91, 80
6, 355720, Control_c, 0, 11, 87
6, 355769, Note_on_c, 0, 91, 0
6, 355776, Control_c, 0, 11, 88
6, 355800, Note_on_c, 0, 90, 80
6, 355832, Control_c, 0, 11, 89
6, 355888, Control_c, 0, 11, 90
6, 355889, Note_on_c, 0, 90, 0
6, 355920, Note_on_c, 0, 90, 80
6, 355944, Control_c, 0, 11, 91
6, 356000, Control_c, 0, 11, 92
6, 356009, Note_on_c, 0, 90, 0
6, 356040, Note_on_c, 0, 88, 80
6, 356056, Control_c, 0, 11, 93
6, 356112, Control_c, 0, 11, 94
6, 356168, Control_c, 0, 11, 95
6, 356224, Control_c, 0, 11, 96
6, 356259, Note_on_c, 0, 88, 0
6, 356280, Control_c, 0, 11, 97
6, 356280, Note_on_c, 0, 86, 80
6, 356336, Control_c, 0, 11, 98
6, 356392, Control_c, 0, 11, 99
6, 356448, Control_c, 0, 11, 100
6, 356504, Control_c, 0, 11, 101
6, 356560, Control_c, 0, 11, 102
6, 356616, Control_c, 0, 11, 103
6, 356672, Control_c, 0, 11, 104
6, 356728, Control_c, 0, 11, 105
6, 356739, Note_on_c, 0, 86, 0
6, 356760, Note_on_c, 0, 88, 80
6, 356784, Control_c, 0, 11, 106
6, 356840, Control_c, 0, 11, 107
6, 356896, Control_c, 0, 11, 108
6, 356952, Control_c, 0, 11, 109
6, 356979, Note_on_c, 0, 88, 0
6, 357000, Note_on_c, 0, 90, 80
6, 357008, Control_c, 0, 11, 110
6, 357064, Control_c, 0, 11, 111
6, 357120, Control_c, 0, 11, 112
6, 357176, Control_c, 0, 11, 113
6, 357232, Control_c, 0, 11, 114
6, 357288, Control_c, 0, 11, 115
6, 357344, Control_c, 0, 11, 116
6, 357359, Note_on_c, 0, 90, 0
6, 357360, Note_on_c, 0, 91, 80
6, 357400, Control_c, 0, 11, 117
6, 357419, Note_on_c, 0, 91, 0
6, 357420, Note_on_c, 0, 93, 80
6, 357456, Control_c, 0, 11, 118
6, 357459, Note_on_c, 0, 93, 0
6, 357480, Note_on_c, 0, 91, 80
6, 357512, Control_c, 0, 11, 119
6, 357568, Control_c, 0, 11, 120
6, 357569, Note_on_c, 0, 91, 0
6, 357600, Note_on_c, 0, 91, 80
6, 357624, Control_c, 0, 11, 121
6, 357680, Control_c, 0, 11, 122
6, 357689, Note_on_c, 0, 91, 0
6, 357720, Note_on_c, 0, 90, 80
6, 357736, Control_c, 0, 11, 123
6, 357792, Control_c, 0, 11, 124
6, 357809, Note_on_c, 0, 90, 0
6, 357840, Note_on_c, 0, 90, 80
6, 357848, Control_c, 0, 11, 125
6, 357904, Control_c, 0, 11, 127
6, 357929, Note_on_c, 0, 90, 0
6, 357960, Note_on_c, 0, 88, 80
6, 358079, Note_on_c, 0, 88, 0
6, 358200, Note_on_c, 0, 86, 80
6, 358659, Note_on_c, 0, 86, 0
6, 358680, Note_on_c, 0, 88, 80
6, 358899, Note_on_c, 0, 88, 0
6, 358920, Note_on_c, 0, 90, 80
6, 359279, Note_on_c, 0, 90, 0
6, 359280, Note_on_c, 0, 91, 80
6, 359339, Note_on_c, 0, 91, 0
6, 359340, Note_on_c, 0, 93, 80
6, 359379, Note_on_c, 0, 93, 0
6, 359400, Note_on_c, 0, 91, 80
6, 359489, Note_on_c, 0, 91, 0
6, 359520, Note_on_c, 0, 91, 80
6, 359609, Note_on_c, 0, 91, 0
6, 359640, Note_on_c, 0, 90, 80
6, 359729, Note_on_c, 0, 90, 0
6, 359760, Note_on_c, 0, 90, 80
6, 359849, Note_on_c, 0, 90, 0
6, 359880, Note_on_c, 0, 88, 80
6, 360099, Note_on_c, 0, 88, 0
6, 360120, Note_on_c, 0, 86, 80
6, 360579, Note_on_c, 0, 86, 0
6, 360600, Note_on_c, 0, 88, 80
6, 360819, Note_on_c, 0, 88, 0
6, 360840, Note_on_c, 0, 90, 80
6, 361199, Note_on_c, 0, 90, 0
6, 361200, Note_on_c, 0, 91, 80
6, 361259, Note_on_c, 0, 91, 0
6, 361260, Note_on_c, 0, 93, 80
6, 361299, Note_on_c, 0, 93, 0
6, 361320, Note_on_c, 0, 91, 80
6, 361409, Note_on_c, 0, 91, 0
6, 361440, Note_on_c, 0, 91, 80
6, 361529, Note_on_c, 0, 91, 0
6, 361560, Note_on_c, 0, 90, 80
6, 361649, Note_on_c, 0, 90, 0
6, 361680, Note_on_c, 0, 90, 80
6, 361769, Note_on_c, 0, 90, 0
6, 361800, Note_on_c, 0, 86, 80
6, 361919, Note_on_c, 0, 86, 0
6, 362040, Note_on_c, 0, 86, 44
6, 362129, Note_on_c, 0, 86, 0
6, 362160, Note_on_c, 0, 85, 44
6, 362249, Note_on_c, 0, 85, 0
6, 362280, Note_on_c, 0, 86, 44
6, 362369, Note_on_c, 0, 86, 0
6, 362400, Note_on_c, 0, 83, 44
6, 362489, Note_on_c, 0, 83, 0
6, 362520, Note_on_c, 0, 81, 44
6, 362609, Note_on_c, 0, 81, 0
6, 362640, Note_on_c, 0, 79, 44
6, 362729, Note_on_c, 0, 79, 0
6, 362760, Note_on_c, 0, 78, 44
6, 362849, Note_on_c, 0, 78, 0
6, 362880, Note_on_c, 0, 88, 44
6, 362969, Note_on_c, 0, 88, 0
6, 363000, Note_on_c, 0, 86, 44
6, 363089, Note_on_c, 0, 86, 0
6, 363120, Note_on_c, 0, 84, 44
6, 363209, Note_on_c, 0, 84, 0
6, 363240, Note_on_c, 0, 83, 44
6, 363329, Note_on_c, 0, 83, 0
6, 363360, Note_on_c, 0, 85, 44
6, 363449, Note_on_c, 0, 85, 0
6, 363480, Note_on_c, 0, 86, 44
6, 363569, Note_on_c, 0, 86, 0
6, 363600, Note_on_c, 0, 90, 44
6, 363689, Note_on_c, 0, 90, 0
6, 363720, Note_on_c, 0, 93, 44
6, 363809, Note_on_c, 0, 93, 0
6, 363840, Note_on_c, 0, 85, 45
6, 363929, Note_on_c, 0, 85, 0
6, 363960, Note_on_c, 0, 86, 46
6, 364049, Note_on_c, 0, 86, 0
6, 364080, Note_on_c, 0, 85, 47
6, 364169, Note_on_c, 0, 85, 0
6, 364200, Note_on_c, 0, 86, 48
6, 364289, Note_on_c, 0, 86, 0
6, 364320, Note_on_c, 0, 83, 49
6, 364409, Note_on_c, 0, 83, 0
6, 364440, Note_on_c, 0, 81, 50
6, 364529, Note_on_c, 0, 81, 0
6, 364560, Note_on_c, 0, 79, 51
6, 364649, Note_on_c, 0, 79, 0
6, 364680, Note_on_c, 0, 78, 53
6, 364769, Note_on_c, 0, 78, 0
6, 364800, Note_on_c, 0, 74, 54
6, 364889, Note_on_c, 0, 74, 0
6, 364920, Note_on_c, 0, 90, 55
6, 365009, Note_on_c, 0, 90, 0
6, 365040, Note_on_c, 0, 88, 56
6, 365129, Note_on_c, 0, 88, 0
6, 365160, Note_on_c, 0, 90, 57
6, 365249, Note_on_c, 0, 90, 0
6, 365280, Note_on_c, 0, 86, 58
6, 365369, Note_on_c, 0, 86, 0
6, 365400, Note_on_c, 0, 85, 59
6, 365489, Note_on_c, 0, 85, 0
6, 365520, Note_on_c, 0, 83, 60
6, 365609, Note_on_c, 0, 83, 0
6, 365640, Note_on_c, 0, 81, 62
6, 365729, Note_on_c, 0, 81, 0
6, 365760, Note_on_c, 0, 78, 63
6, 365849, Note_on_c, 0, 78, 0
6, 365880, Note_on_c, 0, 93, 64
6, 365969, Note_on_c, 0, 93, 0
6, 366000, Note_on_c, 0, 92, 65
6, 366089, Note_on_c, 0, 92, 0
6, 366120, Note_on_c, 0, 93, 66
6, 366209, Note_on_c, 0, 93, 0
6, 366240, Note_on_c, 0, 90, 67
6, 366329, Note_on_c, 0, 90, 0
6, 366360, Note_on_c, 0, 88, 68
6, 366449, Note_on_c, 0, 88, 0
6, 366480, Note_on_c, 0, 85, 69
6, 366569, Note_on_c, 0, 85, 0
6, 366600, Note_on_c, 0, 81, 71
6, 366689, Note_on_c, 0, 81, 0
6, 366720, Note_on_c, 0, 92, 72
6, 366809, Note_on_c, 0, 92, 0
6, 366840, Note_on_c, 0, 93, 73
6, 366929, Note_on_c, 0, 93, 0
6, 366960, Note_on_c, 0, 92, 74
6, 367049, Note_on_c, 0, 92, 0
6, 367080, Note_on_c, 0, 93, 75
6, 367169, Note_on_c, 0, 93, 0
6, 367200, Note_on_c, 0, 90, 76
6, 367289, Note_on_c, 0, 90, 0
6, 367320, Note_on_c, 0, 88, 77
6, 367409, Note_on_c, 0, 88, 0
6, 367440, Note_on_c, 0, 85, 78
6, 367529, Note_on_c, 0, 85, 0
6, 367560, Note_on_c, 0, 81, 80
6, 367649, Note_on_c, 0, 81, 0
6, 367680, Note_on_c, 0, 86, 80
6, 367769, Note_on_c, 0, 86, 0
6, 367800, Note_on_c, 0, 88, 80
6, 367889, Note_on_c, 0, 88, 0
6, 367920, Note_on_c, 0, 86, 80
6, 368009, Note_on_c, 0, 86, 0
6, 368040, Note_on_c, 0, 81, 80
6, 368129, Note_on_c, 0, 81, 0
6, 368160, Note_on_c, 0, 88, 80
6, 368249, Note_on_c, 0, 88, 0
6, 368280, Note_on_c, 0, 90, 80
6, 368369, Note_on_c, 0, 90, 0
6, 368400, Note_on_c, 0, 88, 80
6, 368489, Note_on_c, 0, 88, 0
6, 368520, Note_on_c, 0, 81, 80
6, 368609, Note_on_c, 0, 81, 0
6, 368640, Note_on_c, 0, 86, 76
6, 368729, Note_on_c, 0, 86, 0
6, 368760, Note_on_c, 0, 88, 71
6, 368849, Note_on_c, 0, 88, 0
6, 368880, Note_on_c, 0, 86, 67
6, 368969, Note_on_c, 0, 86, 0
6, 369000, Note_on_c, 0, 81, 62
6, 369089, Note_on_c, 0, 81, 0
6, 369120, Note_on_c, 0, 88, 58
6, 369209, Note_on_c, 0, 88, 0
6, 369240, Note_on_c, 0, 90, 53
6, 369329, Note_on_c, 0, 90, 0
6, 369360, Note_on_c, 0, 88, 49
6, 369449, Note_on_c, 0, 88, 0
6, 369480, Note_on_c, 0, 86, 44
6, 369599, Note_on_c, 0, 86, 0
6, 371610, Control_c, 0, 11, 89
6, 371640, Note_on_c, 0, 86, 92
6, 371655, Control_c, 0, 11, 90
6, 371700, Control_c, 0, 11, 91
6, 371745, Control_c, 0, 11, 92
6, 371790, Control_c, 0, 11, 93
6, 371835, Control_c, 0, 11, 94
6, 371880, Control_c, 0, 11, 95
6, 371925, Control_c, 0, 11, 96
6, 371970, Control_c, 0, 11, 97
6, 372015, Control_c, 0, 11, 98
6, 372060, Control_c, 0, 11, 99
6, 372099, Note_on_c, 0, 86, 0
6, 372105, Control_c, 0, 11, 100
6, 372120, Note_on_c, 0, 88, 92
6, 372150, Control_c, 0, 11, 101
6, 372195, Control_c, 0, 11, 102
6, 372240, Control_c, 0, 11, 103
6, 372285, Control_c, 0, 11, 104
6, 372330, Control_c, 0, 11, 105
6, 372339, Note_on_c, 0, 88, 0
6, 372360, Note_on_c, 0, 90, 92
6, 372375, Control_c, 0, 11, 106
6, 372420, Control_c, 0, 11, 107
6, 372465, Control_c, 0, 11, 108
6, 372510, Control_c, 0, 11, 109
6, 372555, Control_c, 0, 11, 110
6, 372579, Note_on_c, 0, 90, 0
6, 372600, Note_on_c, 0, 90, 92
6, 372600, Control_c, 0, 11, 111
6, 372600, Note_on_c, 0, 86, 92
6, 372645, Control_c, 0, 11, 112
6, 372690, Control_c, 0, 11, 113
6, 372735, Control_c, 0, 11, 114
6, 372780, Control_c, 0, 11, 115
6, 372825, Control_c, 0, 11, 116
6, 372870, Control_c, 0, 11, 117
6, 372915, Control_c, 0, 11, 118
6, 372960, Control_c, 0, 11, 119
6, 373005, Control_c, 0, 11, 120
6, 373050, Control_c, 0, 11, 121
6, 373059, Note_on_c, 0, 90, 0
6, 373059, Note_on_c, 0, 86, 0
6, 373080, Note_on_c, 0, 88, 92
6, 373080, Note_on_c, 0, 91, 92
6, 373095, Control_c, 0, 11, 122
6, 373140, Control_c, 0, 11, 123
6, 373185, Control_c, 0, 11, 124
6, 373230, Control_c, 0, 11, 125
6, 373275, Control_c, 0, 11, 127
6, 373299, Note_on_c, 0, 88, 0
6, 373299, Note_on_c, 0, 91, 0
6, 373320, Note_on_c, 0, 93, 92
6, 373320, Note_on_c, 0, 90, 92
6, 373499, Note_on_c, 0, 93, 0
6, 373499, Note_on_c, 0, 90, 0
6, 373560, Note_on_c, 0, 93, 92
6, 373560, Note_on_c, 0, 90, 92
6, 373739, Note_on_c, 0, 93, 0
6, 373739, Note_on_c, 0, 90, 0
6, 373800, Note_on_c, 0, 93, 92
6, 373800, Note_on_c, 0, 88, 92
6, 373979, Note_on_c, 0, 93, 0
6, 373979, Note_on_c, 0, 88, 0
6, 374040, Note_on_c, 0, 88, 92
6, 374040, Note_on_c, 0, 93, 92
6, 374219, Note_on_c, 0, 88, 0
6, 374219, Note_on_c, 0, 93, 0
6, 374280, Note_on_c, 0, 93, 92
6, 374280, Control_c, 0, 11, 127
6, 374280, Note_on_c, 0, 90, 92
6, 374342, Control_c, 0, 11, 126
6, 374405, Control_c, 0, 11, 125
6, 374459, Note_on_c, 0, 93, 0
6, 374459, Note_on_c, 0, 90, 0
6, 374467, Control_c, 0, 11, 124
6, 374520, Note_on_c, 0, 90, 92
6, 374520, Note_on_c, 0, 93, 92
6, 374530, Control_c, 0, 11, 123
6, 374592, Control_c, 0, 11, 122
6, 374654, Control_c, 0, 11, 121
6, 374699, Note_on_c, 0, 90, 0
6, 374699, Note_on_c, 0, 93, 0
6, 374717, Control_c, 0, 11, 120
6, 374760, Note_on_c, 0, 93, 92
6, 374760, Note_on_c, 0, 88, 92
6, 374779, Control_c, 0, 11, 119
6, 374842, Control_c, 0, 11, 118
6, 374904, Control_c, 0, 11, 117
6, 374939, Note_on_c, 0, 93, 0
6, 374939, Note_on_c, 0, 88, 0
6, 374966, Control_c, 0, 11, 116
6, 375000, Note_on_c, 0, 93, 92
6, 375000, Note_on_c, 0, 88, 92
6, 375029, Control_c, 0, 11, 115
6, 375091, Control_c, 0, 11, 114
6, 375154, Control_c, 0, 11, 113
6, 375179, Note_on_c, 0, 93, 0
6, 375179, Note_on_c, 0, 88, 0
6, 375216, Control_c, 0, 11, 112
6, 375240, Note_on_c, 0, 93, 92
6, 375240, Note_on_c, 0, 90, 92
6, 375278, Control_c, 0, 11, 111
6, 375341, Control_c, 0, 11, 110
6, 375403, Control_c, 0, 11, 109
6, 375419, Note_on_c, 0, 93, 0
6, 375419, Note_on_c, 0, 90, 0
6, 375466, Control_c, 0, 11, 108
6, 375480, Note_on_c, 0, 93, 92
6, 375480, Note_on_c, 0, 90, 92
6, 375528, Control_c, 0, 11, 107
6, 375590, Control_c, 0, 11, 106
6, 375653, Control_c, 0, 11, 105
6, 375659, Note_on_c, 0, 93, 0
6, 375659, Note_on_c, 0, 90, 0
6, 375715, Control_c, 0, 11, 104
6, 375720, Note_on_c, 0, 93, 92
6, 375720, Note_on_c, 0, 88, 92
6, 375778, Control_c, 0, 11, 103
6, 375840, Control_c, 0, 11, 102
6, 375899, Note_on_c, 0, 93, 0
6, 375899, Note_on_c, 0, 88, 0
6, 375902, Control_c, 0, 11, 101
6, 375960, Note_on_c, 0, 93, 92
6, 375960, Note_on_c, 0, 88, 92
6, 375965, Control_c, 0, 11, 100
6, 376027, Control_c, 0, 11, 99
6, 376090, Control_c, 0, 11, 98
6, 376139, Note_on_c, 0, 93, 0
6, 376139, Note_on_c, 0, 88, 0
6, 376152, Control_c, 0, 11, 97
6, 376200, Note_on_c, 0, 90, 92
6, 376200, Note_on_c, 0, 93, 92
6, 376214, Control_c, 0, 11, 96
6, 376277, Control_c, 0, 11, 95
6, 376339, Control_c, 0, 11, 94
6, 376379, Note_on_c, 0, 90, 0
6, 376379, Note_on_c, 0, 93, 0
6, 376402, Control_c, 0, 11, 93
6, 376440, Note_on_c, 0, 90, 92
6, 376440, Note_on_c, 0, 93, 92
6, 376464, Control_c, 0, 11, 92
6, 376526, Control_c, 0, 11, 91
6, 376589, Control_c, 0, 11, 90
6, 376619, Note_on_c, 0, 90, 0
6, 376619, Note_on_c, 0, 93, 0
6, 376651, Control_c, 0, 11, 89
6, 376680, Note_on_c, 0, 93, 92
6, 376680, Note_on_c, 0, 88, 92
6, 376714, Control_c, 0, 11, 88
6, 376776, Control_c, 0, 11, 87
6, 376838, Control_c, 0, 11, 86
6, 376859, Note_on_c, 0, 93, 0
6, 376859, Note_on_c, 0, 88, 0
6, 376901, Control_c, 0, 11, 85
6, 376920, Note_on_c, 0, 93, 92
6, 376920, Note_on_c, 0, 88, 92
6, 376963, Control_c, 0, 11, 84
6, 377026, Control_c, 0, 11, 83
6, 377088, Control_c, 0, 11, 82
6, 377099, Note_on_c, 0, 93, 0
6, 377099, Note_on_c, 0, 88, 0
6, 377150, Control_c, 0, 11, 81
6, 377160, Note_on_c, 0, 90, 92
6, 377160, Note_on_c, 0, 93, 92
6, 377213, Control_c, 0, 11, 80
6, 377275, Control_c, 0, 11, 79
6, 377338, Control_c, 0, 11, 78
6, 377399, Note_on_c, 0, 90, 0
6, 377399, Note_on_c, 0, 93, 0
6, 377400, Note_on_c, 0, 86, 92
6, 377400, Note_on_c, 0, 74, 92
6, 377400, Control_c, 0, 11, 77
6, 377462, Control_c, 0, 11, 76
6, 377525, Control_c, 0, 11, 75
6, 377587, Control_c, 0, 11, 74
6, 377650, Control_c, 0, 11, 73
6, 377712, Control_c, 0, 11, 72
6, 377774, Control_c, 0, 11, 71
6, 377837, Control_c, 0, 11, 70
6, 377899, Control_c, 0, 11, 69
6, 377962, Control_c, 0, 11, 68
6, 378024, Control_c, 0, 11, 67
6, 378086, Control_c, 0, 11, 66
6, 378149, Control_c, 0, 11, 65
6, 378211, Control_c, 0, 11, 64
6, 378274, Control_c, 0, 11, 63
6, 378336, Control_c, 0, 11, 62
6, 378398, Control_c, 0, 11, 61
6, 378461, Control_c, 0, 11, 60
6, 378523, Control_c, 0, 11, 59
6, 378586, Control_c, 0, 11, 58
6, 378648, Control_c, 0, 11, 57
6, 378710, Control_c, 0, 11, 56
6, 378773, Control_c, 0, 11, 55
6, 378835, Control_c, 0, 11, 54
6, 378898, Control_c, 0, 11, 53
6, 378960, Control_c, 0, 11, 52
6, 379022, Control_c, 0, 11, 51
6, 379085, Control_c, 0, 11, 50
6, 379147, Control_c, 0, 11, 49
6, 379210, Control_c, 0, 11, 48
6, 379272, Control_c, 0, 11, 47
6, 379334, Control_c, 0, 11, 46
6, 379397, Control_c, 0, 11, 45
6, 379459, Control_c, 0, 11, 44
6, 379522, Control_c, 0, 11, 43
6, 379584, Control_c, 0, 11, 42
6, 379646, Control_c, 0, 11, 41
6, 379709, Control_c, 0, 11, 40
6, 379771, Control_c, 0, 11, 39
6, 379834, Control_c, 0, 11, 38
6, 379896, Control_c, 0, 11, 37
6, 379958, Control_c, 0, 11, 36
6, 380021, Control_c, 0, 11, 35
6, 380083, Control_c, 0, 11, 34
6, 380146, Control_c, 0, 11, 33
6, 380208, Control_c, 0, 11, 32
6, 380270, Control_c, 0, 11, 31
6, 380333, Control_c, 0, 11, 30
6, 380395, Control_c, 0, 11, 29
6, 380458, Control_c, 0, 11, 28
6, 381209, Note_on_c, 0, 86, 0
6, 381209, Note_on_c, 0, 74, 0
6, 381600, Control_c, 0, 11, 127
6, 383040, Note_on_c, 0, 86, 92
6, 383204, Note_on_c, 0, 86, 0
6, 383220, Note_on_c, 0, 74, 92
6, 383264, Note_on_c, 0, 74, 0
6, 383280, Note_on_c, 0, 74, 92
6, 383399, Note_on_c, 0, 74, 0
6, 388440, Note_on_c, 0, 86, 32
6, 388559, Note_on_c, 0, 86, 0
6, 388800, Note_on_c, 0, 81, 32
6, 388919, Note_on_c, 0, 81, 0
6, 389160, Note_on_c, 0, 83, 32
6, 389279, Note_on_c, 0, 83, 0
6, 389520, Note_on_c, 0, 84, 32
6, 389639, Note_on_c, 0, 84, 0
6, 389880, Note_on_c, 0, 82, 32
6, 389969, Note_on_c, 0, 82, 0
6, 390000, Note_on_c, 0, 81, 32
6, 390089, Note_on_c, 0, 81, 0
6, 390120, Note_on_c, 0, 79, 32
6, 390209, Note_on_c, 0, 79, 0
6, 390240, Note_on_c, 0, 86, 32
6, 390359, Note_on_c, 0, 86, 0
6, 390600, Note_on_c, 0, 85, 32
6, 390719, Note_on_c, 0, 85, 0
6, 390960, Note_on_c, 0, 86, 32
6, 391079, Note_on_c, 0, 86, 0
6, 391320, Note_on_c, 0, 86, 32
6, 391439, Note_on_c, 0, 86, 0
6, 391680, Note_on_c, 0, 88, 32
6, 391799, Note_on_c, 0, 88, 0
6, 392040, Note_on_c, 0, 88, 32
6, 392159, Note_on_c, 0, 88, 0
6, 392400, Note_on_c, 0, 88, 32
6, 392519, Note_on_c, 0, 88, 0
6, 392760, Note_on_c, 0, 85, 32
6, 392760, Note_on_c, 0, 88, 32
6, 392879, Note_on_c, 0, 85, 0
6, 392879, Note_on_c, 0, 88, 0
6, 393120, Note_on_c, 0, 86, 32
6, 393120, Note_on_c, 0, 81, 32
6, 393239, Note_on_c, 0, 86, 0
6, 393239, Note_on_c, 0, 81, 0
6, 393480, Note_on_c, 0, 88, 32
6, 393480, Note_on_c, 0, 81, 32
6, 393599, Note_on_c, 0, 88, 0
6, 393599, Note_on_c, 0, 81, 0
6, 393840, Note_on_c, 0, 89, 32
6, 393840, Note_on_c, 0, 81, 32
6, 393959, Note_on_c, 0, 89, 0
6, 393959, Note_on_c, 0, 81, 0
6, 394200, Note_on_c, 0, 89, 32
6, 394200, Note_on_c, 0, 77, 32
6, 394289, Note_on_c, 0, 89, 0
6, 394289, Note_on_c, 0, 77, 0
6, 394320, Note_on_c, 0, 76, 32
6, 394320, Note_on_c, 0, 88, 32
6, 394409, Note_on_c, 0, 76, 0
6, 394409, Note_on_c, 0, 88, 0
6, 394440, Note_on_c, 0, 86, 32
6, 394440, Note_on_c, 0, 74, 32
6, 394529, Note_on_c, 0, 86, 0
6, 394529, Note_on_c, 0, 74, 0
6, 394560, Note_on_c, 0, 84, 32
6, 394560, Note_on_c, 0, 72, 32
6, 394649, Note_on_c, 0, 84, 0
6, 394649, Note_on_c, 0, 72, 0
6, 394680, Note_on_c, 0, 83, 32
6, 394680, Note_on_c, 0, 71, 32
6, 394769, Note_on_c, 0, 83, 0
6, 394769, Note_on_c, 0, 71, 0
6, 394800, Note_on_c, 0, 69, 32
6, 394800, Note_on_c, 0, 81, 32
6, 394889, Note_on_c, 0, 69, 0
6, 394889, Note_on_c, 0, 81, 0
6, 394920, Note_on_c, 0, 68, 32
6, 394920, Note_on_c, 0, 80, 32
6, 395009, Note_on_c, 0, 68, 0
6, 395009, Note_on_c, 0, 80, 0
6, 395040, Note_on_c, 0, 69, 32
6, 395040, Note_on_c, 0, 81, 32
6, 395129, Note_on_c, 0, 69, 0
6, 395129, Note_on_c, 0, 81, 0
6, 395160, Note_on_c, 0, 71, 32
6, 395160, Note_on_c, 0, 83, 32
6, 395249, Note_on_c, 0, 71, 0
6, 395249, Note_on_c, 0, 83, 0
6, 395280, Note_on_c, 0, 69, 32
6, 395280, Note_on_c, 0, 81, 32
6, 395369, Note_on_c, 0, 69, 0
6, 395369, Note_on_c, 0, 81, 0
6, 395400, Note_on_c, 0, 68, 32
6, 395400, Note_on_c, 0, 80, 32
6, 395489, Note_on_c, 0, 68, 0
6, 395489, Note_on_c, 0, 80, 0
6, 395520, Note_on_c, 0, 69, 32
6, 395520, Note_on_c, 0, 81, 32
6, 395609, Note_on_c, 0, 69, 0
6, 395609, Note_on_c, 0, 81, 0
6, 395880, Note_on_c, 0, 69, 32
6, 395880, Note_on_c, 0, 81, 32
6, 395999, Note_on_c, 0, 69, 0
6, 395999, Note_on_c, 0, 81, 0
6, 396240, Note_on_c, 0, 81, 32
6, 396240, Note_on_c, 0, 69, 32
6, 396359, Note_on_c, 0, 81, 0
6, 396359, Note_on_c, 0, 69, 0
6, 396600, Note_on_c, 0, 81, 32
6, 396600, Note_on_c, 0, 69, 32
6, 396719, Note_on_c, 0, 81, 0
6, 396719, Note_on_c, 0, 69, 0
6, 396960, Note_on_c, 0, 69, 32
6, 396960, Note_on_c, 0, 81, 32
6, 397079, Note_on_c, 0, 69, 0
6, 397079, Note_on_c, 0, 81, 0
6, 397320, Note_on_c, 0, 69, 32
6, 397320, Note_on_c, 0, 81, 32
6, 397439, Note_on_c, 0, 69, 0
6, 397439, Note_on_c, 0, 81, 0
6, 397680, Note_on_c, 0, 69, 37
6, 397680, Note_on_c, 0, 81, 37
6, 397799, Note_on_c, 0, 69, 0
6, 397799, Note_on_c, 0, 81, 0
6, 398040, Note_on_c, 0, 81, 42
6, 398040, Note_on_c, 0, 69, 42
6, 398159, Note_on_c, 0, 81, 0
6, 398159, Note_on_c, 0, 69, 0
6, 398400, Note_on_c, 0, 81, 47
6, 398400, Note_on_c, 0, 69, 47
6, 398519, Note_on_c, 0, 81, 0
6, 398519, Note_on_c, 0, 69, 0
6, 398760, Note_on_c, 0, 81, 53
6, 398760, Note_on_c, 0, 69, 53
6, 398879, Note_on_c, 0, 81, 0
6, 398879, Note_on_c, 0, 69, 0
6, 399120, Note_on_c, 0, 69, 58
6, 399120, Note_on_c, 0, 81, 58
6, 399239, Note_on_c, 0, 69, 0
6, 399239, Note_on_c, 0, 81, 0
6, 399480, Note_on_c, 0, 81, 63
6, 399480, Note_on_c, 0, 69, 63
6, 399599, Note_on_c, 0, 81, 0
6, 399599, Note_on_c, 0, 69, 0
6, 399840, Note_on_c, 0, 69, 69
6, 399840, Note_on_c, 0, 81, 69
6, 399959, Note_on_c, 0, 69, 0
6, 399959, Note_on_c, 0, 81, 0
6, 400200, Note_on_c, 0, 81, 74
6, 400200, Note_on_c, 0, 69, 74
6, 400319, Note_on_c, 0, 81, 0
6, 400319, Note_on_c, 0, 69, 0
6, 400560, Note_on_c, 0, 81, 79
6, 400679, Note_on_c, 0, 81, 0
6, 400680, Note_on_c, 0, 88, 81
6, 400680, Note_on_c, 0, 81, 81
6, 400784, Note_on_c, 0, 88, 0
6, 400784, Note_on_c, 0, 81, 0
6, 400800, Note_on_c, 0, 81, 83
6, 400800, Note_on_c, 0, 89, 83
6, 400904, Note_on_c, 0, 81, 0
6, 400904, Note_on_c, 0, 89, 0
6, 400920, Note_on_c, 0, 91, 84
6, 400920, Note_on_c, 0, 81, 84
6, 401024, Note_on_c, 0, 91, 0
6, 401024, Note_on_c, 0, 81, 0
6, 401040, Note_on_c, 0, 93, 86
6, 401040, Note_on_c, 0, 81, 86
6, 401204, Note_on_c, 0, 93, 0
6, 401204, Note_on_c, 0, 81, 0
6, 401220, Note_on_c, 0, 69, 89
6, 401220, Note_on_c, 0, 81, 89
6, 401264, Note_on_c, 0, 69, 0
6, 401264, Note_on_c, 0, 81, 0
6, 401280, Note_on_c, 0, 69, 90
6, 401280, Note_on_c, 0, 81, 90
6, 401384, Note_on_c, 0, 69, 0
6, 401384, Note_on_c, 0, 81, 0
6, 401400, Note_on_c, 0, 93, 92
6, 401400, Note_on_c, 0, 81, 92
6, 401564, Note_on_c, 0, 93, 0
6, 401564, Note_on_c, 0, 81, 0
6, 401580, Note_on_c, 0, 69, 92
6, 401580, Note_on_c, 0, 81, 92
6, 401624, Note_on_c, 0, 69, 0
6, 401624, Note_on_c, 0, 81, 0
6, 401640, Note_on_c, 0, 81, 92
6, 401640, Note_on_c, 0, 69, 92
6, 401744, Note_on_c, 0, 81, 0
6, 401744, Note_on_c, 0, 69, 0
6, 401760, Note_on_c, 0, 86, 92
6, 401760, Note_on_c, 0, 81, 92
6, 401864, Note_on_c, 0, 86, 0
6, 401864, Note_on_c, 0, 81, 0
6, 401880, Note_on_c, 0, 81, 92
6, 401880, Note_on_c, 0, 88, 92
6, 401984, Note_on_c, 0, 81, 0
6, 401984, Note_on_c, 0, 88, 0
6, 402000, Note_on_c, 0, 89, 92
6, 402000, Note_on_c, 0, 81, 92
6, 402104, Note_on_c, 0, 89, 0
6, 402104, Note_on_c, 0, 81, 0
6, 402120, Note_on_c, 0, 88, 92
6, 402120, Note_on_c, 0, 81, 92
6, 402224, Note_on_c, 0, 88, 0
6, 402224, Note_on_c, 0, 81, 0
6, 402240, Note_on_c, 0, 81, 92
6, 402240, Note_on_c, 0, 89, 92
6, 402344, Note_on_c, 0, 81, 0
6, 402344, Note_on_c, 0, 89, 0
6, 402360, Note_on_c, 0, 81, 92
6, 402360, Note_on_c, 0, 91, 92
6, 402464, Note_on_c, 0, 81, 0
6, 402464, Note_on_c, 0, 91, 0
6, 402480, Note_on_c, 0, 89, 92
6, 402480, Note_on_c, 0, 81, 92
6, 402584, Note_on_c, 0, 89, 0
6, 402584, Note_on_c, 0, 81, 0
6, 402600, Note_on_c, 0, 88, 92
6, 402600, Note_on_c, 0, 86, 92
6, 402704, Note_on_c, 0, 88, 0
6, 402704, Note_on_c, 0, 86, 0
6, 402720, Note_on_c, 0, 86, 92
6, 402824, Note_on_c, 0, 86, 0
6, 402840, Note_on_c, 0, 82, 80
6, 402840, Note_on_c, 0, 86, 80
6, 402944, Note_on_c, 0, 82, 0
6, 402944, Note_on_c, 0, 86, 0
6, 402960, Note_on_c, 0, 93, 80
6, 402960, Note_on_c, 0, 86, 80
6, 403064, Note_on_c, 0, 93, 0
6, 403064, Note_on_c, 0, 86, 0
6, 403080, Note_on_c, 0, 91, 80
6, 403080, Note_on_c, 0, 86, 80
6, 403184, Note_on_c, 0, 91, 0
6, 403184, Note_on_c, 0, 86, 0
6, 403200, Note_on_c, 0, 89, 80
6, 403304, Note_on_c, 0, 89, 0
6, 403320, Note_on_c, 0, 88, 80
6, 403424, Note_on_c, 0, 88, 0
6, 403440, Note_on_c, 0, 81, 80
6, 403440, Note_on_c, 0, 86, 80
6, 403544, Note_on_c, 0, 81, 0
6, 403544, Note_on_c, 0, 86, 0
6, 403560, Note_on_c, 0, 85, 80
6, 403560, Note_on_c, 0, 81, 80
6, 403664, Note_on_c, 0, 85, 0
6, 403664, Note_on_c, 0, 81, 0
6, 403680, Note_on_c, 0, 81, 80
6, 403680, Note_on_c, 0, 86, 80
6, 403784, Note_on_c, 0, 81, 0
6, 403784, Note_on_c, 0, 86, 0
6, 403800, Note_on_c, 0, 88, 80
6, 403800, Note_on_c, 0, 81, 80
6, 403904, Note_on_c, 0, 88, 0
6, 403904, Note_on_c, 0, 81, 0
6, 403920, Note_on_c, 0, 86, 80
6, 403920, Note_on_c, 0, 81, 80
6, 404024, Note_on_c, 0, 86, 0
6, 404024, Note_on_c, 0, 81, 0
6, 404040, Note_on_c, 0, 81, 80
6, 404040, Note_on_c, 0, 85, 80
6, 404144, Note_on_c, 0, 81, 0
6, 404144, Note_on_c, 0, 85, 0
6, 404160, Note_on_c, 0, 86, 80
6, 404160, Note_on_c, 0, 81, 80
6, 404264, Note_on_c, 0, 86, 0
6, 404264, Note_on_c, 0, 81, 0
6, 404280, Note_on_c, 0, 82, 80
6, 404384, Note_on_c, 0, 82, 0
6, 404400, Note_on_c, 0, 86, 80
6, 404400, Note_on_c, 0, 93, 80
6, 404504, Note_on_c, 0, 86, 0
6, 404504, Note_on_c, 0, 93, 0
6, 404520, Note_on_c, 0, 91, 80
6, 404520, Note_on_c, 0, 86, 80
6, 404624, Note_on_c, 0, 91, 0
6, 404624, Note_on_c, 0, 86, 0
6, 404640, Note_on_c, 0, 86, 80
6, 404640, Note_on_c, 0, 89, 80
6, 404744, Note_on_c, 0, 86, 0
6, 404744, Note_on_c, 0, 89, 0
6, 404760, Note_on_c, 0, 88, 80
6, 404760, Note_on_c, 0, 86, 80
6, 404864, Note_on_c, 0, 88, 0
6, 404864, Note_on_c, 0, 86, 0
6, 404880, Note_on_c, 0, 86, 80
6, 404984, Note_on_c, 0, 86, 0
6, 405000, Note_on_c, 0, 76, 80
6, 405000, Note_on_c, 0, 85, 80
6, 405104, Note_on_c, 0, 76, 0
6, 405104, Note_on_c, 0, 85, 0
6, 405120, Note_on_c, 0, 77, 80
6, 405120, Note_on_c, 0, 86, 80
6, 405224, Note_on_c, 0, 77, 0
6, 405224, Note_on_c, 0, 86, 0
6, 405240, Note_on_c, 0, 88, 80
6, 405240, Note_on_c, 0, 79, 80
6, 405344, Note_on_c, 0, 88, 0
6, 405344, Note_on_c, 0, 79, 0
6, 405360, Note_on_c, 0, 77, 80
6, 405360, Note_on_c, 0, 86, 80
6, 405464, Note_on_c, 0, 77, 0
6, 405464, Note_on_c, 0, 86, 0
6, 405480, Note_on_c, 0, 77, 80
6, 405480, Note_on_c, 0, 85, 80
6, 405584, Note_on_c, 0, 77, 0
6, 405584, Note_on_c, 0, 85, 0
6, 405600, Note_on_c, 0, 77, 80
6, 405600, Note_on_c, 0, 86, 80
6, 405704, Note_on_c, 0, 77, 0
6, 405704, Note_on_c, 0, 86, 0
6, 405720, Note_on_c, 0, 93, 80
6, 405720, Note_on_c, 0, 89, 80
6, 405824, Note_on_c, 0, 93, 0
6, 405824, Note_on_c, 0, 89, 0
6, 405840, Note_on_c, 0, 83, 80
6, 405840, Note_on_c, 0, 91, 80
6, 405944, Note_on_c, 0, 83, 0
6, 405944, Note_on_c, 0, 91, 0
6, 405960, Note_on_c, 0, 86, 80
6, 405960, Note_on_c, 0, 89, 80
6, 406064, Note_on_c, 0, 86, 0
6, 406064, Note_on_c, 0, 89, 0
6, 406080, Note_on_c, 0, 88, 80
6, 406080, Note_on_c, 0, 84, 80
6, 406184, Note_on_c, 0, 88, 0
6, 406184, Note_on_c, 0, 84, 0
6, 406200, Note_on_c, 0, 86, 80
6, 406200, Note_on_c, 0, 83, 80
6, 406304, Note_on_c, 0, 86, 0
6, 406304, Note_on_c, 0, 83, 0
6, 406320, Note_on_c, 0, 84, 80
6, 406320, Note_on_c, 0, 79, 80
6, 406424, Note_on_c, 0, 84, 0
6, 406424, Note_on_c, 0, 79, 0
6, 406440, Note_on_c, 0, 79, 80
6, 406440, Note_on_c, 0, 83, 80
6, 406544, Note_on_c, 0, 79, 0
6, 406544, Note_on_c, 0, 83, 0
6, 406560, Note_on_c, 0, 84, 80
6, 406560, Note_on_c, 0, 79, 80
6, 406664, Note_on_c, 0, 84, 0
6, 406664, Note_on_c, 0, 79, 0
6, 406680, Note_on_c, 0, 77, 80
6, 406680, Note_on_c, 0, 86, 80
6, 406784, Note_on_c, 0, 77, 0
6, 406784, Note_on_c, 0, 86, 0
6, 406800, Note_on_c, 0, 84, 80
6, 406800, Note_on_c, 0, 76, 80
6, 406904, Note_on_c, 0, 84, 0
6, 406904, Note_on_c, 0, 76, 0
6, 406920, Note_on_c, 0, 89, 80
6, 406920, Note_on_c, 0, 93, 80
6, 407024, Note_on_c, 0, 89, 0
6, 407024, Note_on_c, 0, 93, 0
6, 407040, Note_on_c, 0, 93, 80
6, 407040, Note_on_c, 0, 89, 80
6, 407144, Note_on_c, 0, 93, 0
6, 407144, Note_on_c, 0, 89, 0
6, 407160, Note_on_c, 0, 89, 80
6, 407160, Note_on_c, 0, 93, 80
6, 407264, Note_on_c, 0, 89, 0
6, 407264, Note_on_c, 0, 93, 0
6, 407280, Note_on_c, 0, 83, 80
6, 407280, Note_on_c, 0, 91, 80
6, 407384, Note_on_c, 0, 83, 0
6, 407384, Note_on_c, 0, 91, 0
6, 407400, Note_on_c, 0, 86, 80
6, 407400, Note_on_c, 0, 89, 80
6, 407504, Note_on_c, 0, 86, 0
6, 407504, Note_on_c, 0, 89, 0
6, 407520, Note_on_c, 0, 84, 80
6, 407520, Note_on_c, 0, 88, 80
6, 407624, Note_on_c, 0, 84, 0
6, 407624, Note_on_c, 0, 88, 0
6, 407640, Note_on_c, 0, 83, 80
6, 407640, Note_on_c, 0, 86, 80
6, 407744, Note_on_c, 0, 83, 0
6, 407744, Note_on_c, 0, 86, 0
6, 407760, Note_on_c, 0, 79, 80
6, 407760, Note_on_c, 0, 84, 80
6, 407864, Note_on_c, 0, 79, 0
6, 407864, Note_on_c, 0, 84, 0
6, 407880, Note_on_c, 0, 88, 80
6, 407880, Note_on_c, 0, 91, 80
6, 407984, Note_on_c, 0, 88, 0
6, 407984, Note_on_c, 0, 91, 0
6, 408000, Note_on_c, 0, 86, 80
6, 408000, Note_on_c, 0, 89, 80
6, 408104, Note_on_c, 0, 86, 0
6, 408104, Note_on_c, 0, 89, 0
6, 408120, Note_on_c, 0, 88, 80
6, 408120, Note_on_c, 0, 84, 80
6, 408224, Note_on_c, 0, 88, 0
6, 408224, Note_on_c, 0, 84, 0
6, 408240, Note_on_c, 0, 88, 80
6, 408240, Note_on_c, 0, 79, 80
6, 408344, Note_on_c, 0, 88, 0
6, 408344, Note_on_c, 0, 79, 0
6, 408360, Note_on_c, 0, 86, 80
6, 408360, Note_on_c, 0, 77, 80
6, 408464, Note_on_c, 0, 86, 0
6, 408464, Note_on_c, 0, 77, 0
6, 408480, Note_on_c, 0, 76, 80
6, 408480, Note_on_c, 0, 84, 80
6, 408584, Note_on_c, 0, 76, 0
6, 408584, Note_on_c, 0, 84, 0
6, 408600, Note_on_c, 0, 83, 80
6, 408600, Note_on_c, 0, 74, 80
6, 408719, Note_on_c, 0, 83, 0
6, 408719, Note_on_c, 0, 74, 0
6, 409560, Control_c, 0, 11, 87
6, 409680, Note_on_c, 0, 86, 68
6, 409710, Control_c, 0, 11, 89
6, 409740, Control_c, 0, 11, 90
6, 409770, Control_c, 0, 11, 92
6, 409800, Control_c, 0, 11, 94
6, 409830, Control_c, 0, 11, 95
6, 409860, Control_c, 0, 11, 97
6, 409890, Control_c, 0, 11, 99
6, 409920, Control_c, 0, 11, 100
6, 409950, Control_c, 0, 11, 102
6, 409980, Control_c, 0, 11, 104
6, 410010, Control_c, 0, 11, 105
6, 410040, Control_c, 0, 11, 107
6, 410070, Control_c, 0, 11, 109
6, 410100, Control_c, 0, 11, 110
6, 410130, Control_c, 0, 11, 112
6, 410160, Control_c, 0, 11, 114
6, 410190, Control_c, 0, 11, 115
6, 410220, Control_c, 0, 11, 117
6, 410250, Control_c, 0, 11, 119
6, 410280, Control_c, 0, 11, 120
6, 410310, Control_c, 0, 11, 122
6, 410340, Control_c, 0, 11, 124
6, 410370, Control_c, 0, 11, 125
6, 410399, Note_on_c, 0, 86, 0
6, 410400, Note_on_c, 0, 84, 68
6, 410400, Control_c, 0, 11, 127
6, 410445, Control_c, 0, 11, 125
6, 410490, Control_c, 0, 11, 124
6, 410535, Control_c, 0, 11, 122
6, 410580, Control_c, 0, 11, 120
6, 410625, Control_c, 0, 11, 119
6, 410670, Control_c, 0, 11, 117
6, 410715, Control_c, 0, 11, 115
6, 410760, Control_c, 0, 11, 114
6, 410805, Control_c, 0, 11, 112
6, 410850, Control_c, 0, 11, 110
6, 410895, Control_c, 0, 11, 109
6, 410940, Control_c, 0, 11, 107
6, 410985, Control_c, 0, 11, 105
6, 411030, Control_c, 0, 11, 104
6, 411075, Control_c, 0, 11, 102
6, 411119, Note_on_c, 0, 84, 0
6, 411120, Control_c, 0, 11, 100
6, 411120, Note_on_c, 0, 83, 68
6, 411165, Control_c, 0, 11, 99
6, 411210, Control_c, 0, 11, 97
6, 411255, Control_c, 0, 11, 95
6, 411300, Control_c, 0, 11, 94
6, 411345, Control_c, 0, 11, 92
6, 411390, Control_c, 0, 11, 90
6, 411435, Control_c, 0, 11, 87
6, 411479, Note_on_c, 0, 83, 0
6, 412200, Control_c, 0, 11, 47
6, 412245, Control_c, 0, 11, 49
6, 412290, Control_c, 0, 11, 50
6, 412335, Control_c, 0, 11, 52
6, 412380, Control_c, 0, 11, 54
6, 412425, Control_c, 0, 11, 55
6, 412470, Control_c, 0, 11, 57
6, 412515, Control_c, 0, 11, 59
6, 412560, Control_c, 0, 11, 60
6, 412560, Note_on_c, 0, 81, 92
6, 412560, Note_on_c, 0, 86, 92
6, 412605, Control_c, 0, 11, 62
6, 412650, Control_c, 0, 11, 64
6, 412695, Control_c, 0, 11, 65
6, 412740, Control_c, 0, 11, 67
6, 412785, Control_c, 0, 11, 69
6, 412830, Control_c, 0, 11, 70
6, 412875, Control_c, 0, 11, 72
6, 412919, Note_on_c, 0, 81, 0
6, 412920, Note_on_c, 0, 83, 92
6, 412920, Control_c, 0, 11, 74
6, 412965, Control_c, 0, 11, 75
6, 413010, Control_c, 0, 11, 77
6, 413055, Control_c, 0, 11, 79
6, 413100, Control_c, 0, 11, 80
6, 413145, Control_c, 0, 11, 82
6, 413190, Control_c, 0, 11, 84
6, 413235, Control_c, 0, 11, 85
6, 413279, Note_on_c, 0, 86, 0
6, 413279, Note_on_c, 0, 83, 0
6, 413280, Note_on_c, 0, 84, 92
6, 413280, Control_c, 0, 11, 87
6, 413325, Control_c, 0, 11, 89
6, 413370, Control_c, 0, 11, 90
6, 413415, Control_c, 0, 11, 92
6, 413460, Control_c, 0, 11, 94
6, 413505, Control_c, 0, 11, 95
6, 413550, Control_c, 0, 11, 97
6, 413595, Control_c, 0, 11, 99
6, 413640, Control_c, 0, 11, 100
6, 413685, Control_c, 0, 11, 102
6, 413730, Control_c, 0, 11, 104
6, 413775, Control_c, 0, 11, 105
6, 413820, Control_c, 0, 11, 107
6, 413865, Control_c, 0, 11, 109
6, 413910, Control_c, 0, 11, 110
6, 413955, Control_c, 0, 11, 112
6, 413999, Note_on_c, 0, 84, 0
6, 414000, Note_on_c, 0, 83, 92
6, 414000, Control_c, 0, 11, 114
6, 414045, Control_c, 0, 11, 115
6, 414090, Control_c, 0, 11, 117
6, 414135, Control_c, 0, 11, 119
6, 414180, Control_c, 0, 11, 120
6, 414225, Control_c, 0, 11, 122
6, 414270, Control_c, 0, 11, 124
6, 414315, Control_c, 0, 11, 127
6, 414344, Note_on_c, 0, 83, 0
6, 414360, Note_on_c, 0, 84, 92
6, 414600, Note_on_c, 0, 86, 92
6, 414659, Note_on_c, 0, 86, 0
6, 414660, Note_on_c, 0, 88, 92
6, 414704, Note_on_c, 0, 88, 0
6, 414720, Note_on_c, 0, 89, 92
6, 414839, Note_on_c, 0, 84, 0
6, 414839, Note_on_c, 0, 89, 0
6, 414960, Note_on_c, 0, 88, 92
6, 414960, Note_on_c, 0, 84, 92
6, 415049, Note_on_c, 0, 88, 0
6, 415049, Note_on_c, 0, 84, 0
6, 415080, Note_on_c, 0, 86, 92
6, 415080, Note_on_c, 0, 84, 92
6, 415169, Note_on_c, 0, 86, 0
6, 415169, Note_on_c, 0, 84, 0
6, 415320, Note_on_c, 0, 84, 92
6, 415409, Note_on_c, 0, 84, 0
6, 415440, Note_on_c, 0, 83, 92
6, 415440, Note_on_c, 0, 86, 92
6, 415529, Note_on_c, 0, 83, 0
6, 415529, Note_on_c, 0, 86, 0
6, 415680, Note_on_c, 0, 83, 92
6, 415769, Note_on_c, 0, 83, 0
6, 415800, Note_on_c, 0, 84, 92
6, 415800, Note_on_c, 0, 88, 92
6, 416039, Note_on_c, 0, 84, 0
6, 416039, Note_on_c, 0, 88, 0
6, 416040, Note_on_c, 0, 86, 92
6, 416040, Note_on_c, 0, 89, 92
6, 416099, Note_on_c, 0, 86, 0
6, 416099, Note_on_c, 0, 89, 0
6, 416100, Note_on_c, 0, 91, 92
6, 416100, Note_on_c, 0, 88, 92
6, 416144, Note_on_c, 0, 91, 0
6, 416144, Note_on_c, 0, 88, 0
6, 416160, Note_on_c, 0, 93, 92
6, 416160, Note_on_c, 0, 89, 92
6, 416249, Note_on_c, 0, 93, 0
6, 416249, Note_on_c, 0, 89, 0
6, 416400, Note_on_c, 0, 91, 92
6, 416400, Note_on_c, 0, 88, 92
6, 416489, Note_on_c, 0, 91, 0
6, 416489, Note_on_c, 0, 88, 0
6, 416520, Note_on_c, 0, 89, 92
6, 416520, Note_on_c, 0, 86, 92
6, 416609, Note_on_c, 0, 89, 0
6, 416609, Note_on_c, 0, 86, 0
6, 416760, Note_on_c, 0, 84, 92
6, 416760, Note_on_c, 0, 88, 92
6, 416849, Note_on_c, 0, 84, 0
6, 416849, Note_on_c, 0, 88, 0
6, 416880, Note_on_c, 0, 89, 92
6, 416880, Note_on_c, 0, 86, 92
6, 416969, Note_on_c, 0, 89, 0
6, 416969, Note_on_c, 0, 86, 0
6, 417120, Note_on_c, 0, 83, 92
6, 417120, Note_on_c, 0, 86, 92
6, 417209, Note_on_c, 0, 83, 0
6, 417209, Note_on_c, 0, 86, 0
6, 417240, Note_on_c, 0, 84, 92
6, 417329, Note_on_c, 0, 84, 0
6, 417360, Note_on_c, 0, 84, 92
6, 417479, Note_on_c, 0, 84, 0
6, 417480, Note_on_c, 0, 84, 92
6, 417480, Note_on_c, 0, 86, 92
6, 417539, Note_on_c, 0, 86, 0
6, 417540, Note_on_c, 0, 88, 92
6, 417569, Note_on_c, 0, 84, 0
6, 417584, Note_on_c, 0, 88, 0
6, 417600, Note_on_c, 0, 89, 92
6, 417600, Note_on_c, 0, 84, 92
6, 417689, Note_on_c, 0, 89, 0
6, 417689, Note_on_c, 0, 84, 0
6, 417720, Note_on_c, 0, 89, 92
6, 417720, Note_on_c, 0, 84, 92
6, 417809, Note_on_c, 0, 89, 0
6, 417809, Note_on_c, 0, 84, 0
6, 417840, Note_on_c, 0, 84, 92
6, 417840, Note_on_c, 0, 88, 92
6, 417929, Note_on_c, 0, 84, 0
6, 417929, Note_on_c, 0, 88, 0
6, 417960, Note_on_c, 0, 86, 92
6, 417960, Note_on_c, 0, 84, 92
6, 418049, Note_on_c, 0, 86, 0
6, 418049, Note_on_c, 0, 84, 0
6, 418080, Note_on_c, 0, 84, 92
6, 418080, Note_on_c, 0, 86, 92
6, 418169, Note_on_c, 0, 84, 0
6, 418169, Note_on_c, 0, 86, 0
6, 418200, Note_on_c, 0, 84, 92
6, 418289, Note_on_c, 0, 84, 0
6, 418320, Note_on_c, 0, 86, 92
6, 418409, Note_on_c, 0, 86, 0
6, 418440, Note_on_c, 0, 86, 92
6, 418529, Note_on_c, 0, 86, 0
6, 418560, Note_on_c, 0, 83, 92
6, 418649, Note_on_c, 0, 83, 0
6, 418680, Note_on_c, 0, 84, 92
6, 418680, Note_on_c, 0, 88, 92
6, 418769, Note_on_c, 0, 84, 0
6, 418769, Note_on_c, 0, 88, 0
6, 418800, Note_on_c, 0, 88, 92
6, 418800, Note_on_c, 0, 84, 92
6, 418919, Note_on_c, 0, 88, 0
6, 418919, Note_on_c, 0, 84, 0
6, 418920, Note_on_c, 0, 89, 92
6, 418920, Note_on_c, 0, 86, 92
6, 418979, Note_on_c, 0, 89, 0
6, 418979, Note_on_c, 0, 86, 0
6, 418980, Note_on_c, 0, 91, 92
6, 418980, Note_on_c, 0, 88, 92
6, 419024, Note_on_c, 0, 91, 0
6, 419024, Note_on_c, 0, 88, 0
6, 419040, Note_on_c, 0, 89, 92
6, 419040, Note_on_c, 0, 93, 92
6, 419129, Note_on_c, 0, 89, 0
6, 419129, Note_on_c, 0, 93, 0
6, 419160, Note_on_c, 0, 89, 92
6, 419160, Note_on_c, 0, 93, 92
6, 419249, Note_on_c, 0, 89, 0
6, 419249, Note_on_c, 0, 93, 0
6, 419280, Note_on_c, 0, 88, 92
6, 419280, Note_on_c, 0, 91, 92
6, 419369, Note_on_c, 0, 88, 0
6, 419369, Note_on_c, 0, 91, 0
6, 419400, Note_on_c, 0, 86, 92
6, 419400, Note_on_c, 0, 89, 92
6, 419489, Note_on_c, 0, 86, 0
6, 419489, Note_on_c, 0, 89, 0
6, 419520, Note_on_c, 0, 89, 92
6, 419520, Note_on_c, 0, 86, 92
6, 419609, Note_on_c, 0, 89, 0
6, 419609, Note_on_c, 0, 86, 0
6, 419640, Note_on_c, 0, 84, 92
6, 419640, Note_on_c, 0, 88, 92
6, 419729, Note_on_c, 0, 84, 0
6, 419729, Note_on_c, 0, 88, 0
6, 419760, Note_on_c, 0, 86, 92
6, 419760, Note_on_c, 0, 89, 92
6, 419849, Note_on_c, 0, 86, 0
6, 419849, Note_on_c, 0, 89, 0
6, 419880, Note_on_c, 0, 86, 92
6, 419880, Note_on_c, 0, 89, 92
6, 419969, Note_on_c, 0, 86, 0
6, 419969, Note_on_c, 0, 89, 0
6, 420000, Note_on_c, 0, 83, 92
6, 420000, Note_on_c, 0, 86, 92
6, 420089, Note_on_c, 0, 83, 0
6, 420089, Note_on_c, 0, 86, 0
6, 420120, Note_on_c, 0, 88, 92
6, 420284, Note_on_c, 0, 88, 0
6, 420300, Note_on_c, 0, 76, 92
6, 420344, Note_on_c, 0, 76, 0
6, 420360, Note_on_c, 0, 76, 92
6, 420464, Note_on_c, 0, 76, 0
6, 420480, Note_on_c, 0, 88, 92
6, 420569, Note_on_c, 0, 88, 0
6, 420600, Note_on_c, 0, 89, 92
6, 420689, Note_on_c, 0, 89, 0
6, 420720, Note_on_c, 0, 91, 92
6, 420809, Note_on_c, 0, 91, 0
6, 420840, Note_on_c, 0, 93, 92
6, 420959, Note_on_c, 0, 93, 0
6, 421200, Note_on_c, 0, 69, 92
6, 421200, Note_on_c, 0, 81, 92
6, 421289, Note_on_c, 0, 69, 0
6, 421289, Note_on_c, 0, 81, 0
6, 421320, Note_on_c, 0, 83, 92
6, 421320, Note_on_c, 0, 71, 92
6, 421409, Note_on_c, 0, 83, 0
6, 421409, Note_on_c, 0, 71, 0
6, 421440, Note_on_c, 0, 72, 92
6, 421440, Note_on_c, 0, 84, 92
6, 421529, Note_on_c, 0, 72, 0
6, 421529, Note_on_c, 0, 84, 0
6, 421560, Note_on_c, 0, 86, 92
6, 421724, Note_on_c, 0, 86, 0
6, 421740, Note_on_c, 0, 74, 92
6, 421784, Note_on_c, 0, 74, 0
6, 421800, Note_on_c, 0, 74, 92
6, 421904, Note_on_c, 0, 74, 0
6, 421920, Note_on_c, 0, 74, 92
6, 421920, Note_on_c, 0, 86, 92
6, 422009, Note_on_c, 0, 74, 0
6, 422009, Note_on_c, 0, 86, 0
6, 422040, Note_on_c, 0, 88, 92
6, 422040, Note_on_c, 0, 76, 92
6, 422129, Note_on_c, 0, 88, 0
6, 422129, Note_on_c, 0, 76, 0
6, 422160, Note_on_c, 0, 77, 92
6, 422160, Note_on_c, 0, 89, 92
6, 422249, Note_on_c, 0, 77, 0
6, 422249, Note_on_c, 0, 89, 0
6, 422280, Note_on_c, 0, 91, 92
6, 422280, Note_on_c, 0, 79, 92
6, 422399, Note_on_c, 0, 91, 0
6, 422399, Note_on_c, 0, 79, 0
6, 422640, Note_on_c, 0, 79, 92
6, 422640, Note_on_c, 0, 67, 92
6, 422729, Note_on_c, 0, 79, 0
6, 422729, Note_on_c, 0, 67, 0
6, 422760, Note_on_c, 0, 72, 92
6, 422760, Note_on_c, 0, 84, 92
6, 422849, Note_on_c, 0, 72, 0
6, 422849, Note_on_c, 0, 84, 0
6, 422880, Note_on_c, 0, 86, 92
6, 422880, Note_on_c, 0, 74, 92
6, 422969, Note_on_c, 0, 86, 0
6, 422969, Note_on_c, 0, 74, 0
6, 423000, Note_on_c, 0, 76, 44
6, 423000, Note_on_c, 0, 88, 44
6, 423119, Note_on_c, 0, 76, 0
6, 423119, Note_on_c, 0, 88, 0
6, 425040, Control_c, 0, 11, 67
6, 425160, Control_c, 0, 11, 67
6, 425160, Note_on_c, 0, 89, 80
6, 425160, Note_on_c, 0, 84, 80
6, 425190, Control_c, 0, 11, 68
6, 425220, Control_c, 0, 11, 70
6, 425250, Control_c, 0, 11, 71
6, 425280, Control_c, 0, 11, 72
6, 425310, Control_c, 0, 11, 73
6, 425340, Control_c, 0, 11, 75
6, 425370, Control_c, 0, 11, 76
6, 425400, Control_c, 0, 11, 77
6, 425430, Control_c, 0, 11, 78
6, 425460, Control_c, 0, 11, 80
6, 425490, Control_c, 0, 11, 81
6, 425504, Note_on_c, 0, 89, 0
6, 425520, Control_c, 0, 11, 82
6, 425520, Note_on_c, 0, 88, 80
6, 425550, Control_c, 0, 11, 83
6, 425580, Control_c, 0, 11, 85
6, 425610, Control_c, 0, 11, 86
6, 425640, Control_c, 0, 11, 87
6, 425670, Control_c, 0, 11, 88
6, 425700, Control_c, 0, 11, 90
6, 425730, Control_c, 0, 11, 91
6, 425760, Control_c, 0, 11, 92
6, 425790, Control_c, 0, 11, 93
6, 425820, Control_c, 0, 11, 95
6, 425850, Control_c, 0, 11, 96
6, 425880, Control_c, 0, 11, 97
6, 425910, Control_c, 0, 11, 98
6, 425940, Control_c, 0, 11, 100
6, 425970, Control_c, 0, 11, 101
6, 426000, Control_c, 0, 11, 102
6, 426030, Control_c, 0, 11, 103
6, 426060, Control_c, 0, 11, 105
6, 426090, Control_c, 0, 11, 106
6, 426120, Control_c, 0, 11, 107
6, 426150, Control_c, 0, 11, 108
6, 426180, Control_c, 0, 11, 110
6, 426210, Control_c, 0, 11, 111
6, 426240, Control_c, 0, 11, 112
6, 426270, Control_c, 0, 11, 113
6, 426300, Control_c, 0, 11, 115
6, 426330, Control_c, 0, 11, 116
6, 426359, Note_on_c, 0, 84, 0
6, 426359, Note_on_c, 0, 88, 0
6, 426360, Note_on_c, 0, 86, 80
6, 426360, Note_on_c, 0, 89, 80
6, 426360, Control_c, 0, 11, 117
6, 426390, Control_c, 0, 11, 118
6, 426420, Control_c, 0, 11, 120
6, 426450, Control_c, 0, 11, 121
6, 426479, Note_on_c, 0, 86, 0
6, 426479, Note_on_c, 0, 89, 0
6, 426480, Control_c, 0, 11, 122
6, 426480, Note_on_c, 0, 88, 80
6, 426480, Note_on_c, 0, 91, 80
6, 426510, Control_c, 0, 11, 123
6, 426540, Control_c, 0, 11, 125
6, 426570, Control_c, 0, 11, 127
6, 426584, Note_on_c, 0, 88, 0
6, 426584, Note_on_c, 0, 91, 0
6, 426600, Note_on_c, 0, 91, 80
6, 426600, Note_on_c, 0, 79, 80
6, 426689, Note_on_c, 0, 91, 0
6, 426689, Note_on_c, 0, 79, 0
6, 426720, Note_on_c, 0, 76, 80
6, 426720, Note_on_c, 0, 88, 80
6, 426809, Note_on_c, 0, 76, 0
6, 426809, Note_on_c, 0, 88, 0
6, 426840, Note_on_c, 0, 81, 80
6, 426840, Note_on_c, 0, 93, 80
6, 426929, Note_on_c, 0, 81, 0
6, 426929, Note_on_c, 0, 93, 0
6, 426960, Note_on_c, 0, 77, 80
6, 426960, Note_on_c, 0, 89, 80
6, 427049, Note_on_c, 0, 77, 0
6, 427049, Note_on_c, 0, 89, 0
6, 427080, Note_on_c, 0, 74, 80
6, 427080, Note_on_c, 0, 86, 80
6, 427169, Note_on_c, 0, 74, 0
6, 427169, Note_on_c, 0, 86, 0
6, 427200, Note_on_c, 0, 79, 80
6, 427200, Note_on_c, 0, 91, 80
6, 427289, Note_on_c, 0, 79, 0
6, 427289, Note_on_c, 0, 91, 0
6, 427320, Note_on_c, 0, 88, 80
6, 427320, Note_on_c, 0, 76, 80
6, 427439, Note_on_c, 0, 88, 0
6, 427439, Note_on_c, 0, 76, 0
6, 428040, Note_on_c, 0, 79, 80
6, 428040, Note_on_c, 0, 91, 80
6, 428129, Note_on_c, 0, 79, 0
6, 428129, Note_on_c, 0, 91, 0
6, 428160, Note_on_c, 0, 76, 80
6, 428160, Note_on_c, 0, 88, 80
6, 428249, Note_on_c, 0, 76, 0
6, 428249, Note_on_c, 0, 88, 0
6, 428280, Note_on_c, 0, 81, 80
6, 428280, Note_on_c, 0, 93, 80
6, 428369, Note_on_c, 0, 81, 0
6, 428369, Note_on_c, 0, 93, 0
6, 428400, Note_on_c, 0, 89, 80
6, 428400, Note_on_c, 0, 77, 80
6, 428489, Note_on_c, 0, 89, 0
6, 428489, Note_on_c, 0, 77, 0
6, 428520, Note_on_c, 0, 86, 80
6, 428520, Note_on_c, 0, 74, 80
6, 428609, Note_on_c, 0, 86, 0
6, 428609, Note_on_c, 0, 74, 0
6, 428640, Note_on_c, 0, 91, 80
6, 428640, Note_on_c, 0, 79, 80
6, 428729, Note_on_c, 0, 91, 0
6, 428729, Note_on_c, 0, 79, 0
6, 428760, Note_on_c, 0, 79, 80
6, 428760, Note_on_c, 0, 91, 80
6, 428849, Note_on_c, 0, 79, 0
6, 428849, Note_on_c, 0, 91, 0
6, 428880, Note_on_c, 0, 91, 80
6, 428880, Note_on_c, 0, 79, 80
6, 428969, Note_on_c, 0, 91, 0
6, 428969, Note_on_c, 0, 79, 0
6, 429000, Note_on_c, 0, 91, 80
6, 429000, Note_on_c, 0, 79, 80
6, 429089, Note_on_c, 0, 91, 0
6, 429089, Note_on_c, 0, 79, 0
6, 429120, Note_on_c, 0, 79, 80
6, 429120, Note_on_c, 0, 91, 80
6, 429209, Note_on_c, 0, 79, 0
6, 429209, Note_on_c, 0, 91, 0
6, 429240, Note_on_c, 0, 91, 80
6, 429240, Note_on_c, 0, 79, 80
6, 429329, Note_on_c, 0, 91, 0
6, 429329, Note_on_c, 0, 79, 0
6, 429360, Note_on_c, 0, 79, 80
6, 429360, Note_on_c, 0, 91, 80
6, 429449, Note_on_c, 0, 79, 0
6, 429449, Note_on_c, 0, 91, 0
6, 429480, Note_on_c, 0, 84, 80
6, 429480, Note_on_c, 0, 88, 80
6, 429569, Note_on_c, 0, 84, 0
6, 429569, Note_on_c, 0, 88, 0
6, 429600, Note_on_c, 0, 84, 80
6, 429689, Note_on_c, 0, 84, 0
6, 429720, Note_on_c, 0, 88, 80
6, 429720, Note_on_c, 0, 91, 80
6, 429809, Note_on_c, 0, 88, 0
6, 429809, Note_on_c, 0, 91, 0
6, 429840, Note_on_c, 0, 89, 80
6, 429840, Note_on_c, 0, 86, 80
6, 429929, Note_on_c, 0, 89, 0
6, 429929, Note_on_c, 0, 86, 0
6, 429960, Note_on_c, 0, 83, 80
6, 429960, Note_on_c, 0, 86, 80
6, 430049, Note_on_c, 0, 83, 0
6, 430049, Note_on_c, 0, 86, 0
6, 430080, Note_on_c, 0, 83, 80
6, 430080, Note_on_c, 0, 91, 80
6, 430169, Note_on_c, 0, 83, 0
6, 430169, Note_on_c, 0, 91, 0
6, 430200, Note_on_c, 0, 84, 80
6, 430200, Note_on_c, 0, 88, 80
6, 430289, Note_on_c, 0, 84, 0
6, 430289, Note_on_c, 0, 88, 0
6, 430320, Note_on_c, 0, 84, 80
6, 430409, Note_on_c, 0, 84, 0
6, 430440, Note_on_c, 0, 88, 80
6, 430440, Note_on_c, 0, 91, 80
6, 430529, Note_on_c, 0, 88, 0
6, 430529, Note_on_c, 0, 91, 0
6, 430560, Note_on_c, 0, 86, 80
6, 430560, Note_on_c, 0, 89, 80
6, 430649, Note_on_c, 0, 86, 0
6, 430649, Note_on_c, 0, 89, 0
6, 430680, Note_on_c, 0, 83, 80
6, 430680, Note_on_c, 0, 86, 80
6, 430769, Note_on_c, 0, 83, 0
6, 430769, Note_on_c, 0, 86, 0
6, 430800, Note_on_c, 0, 83, 80
6, 430800, Note_on_c, 0, 91, 80
6, 430889, Note_on_c, 0, 83, 0
6, 430889, Note_on_c, 0, 91, 0
6, 430920, Note_on_c, 0, 79, 32
6, 431039, Note_on_c, 0, 79, 0
6, 431040, Note_on_c, 0, 81, 32
6, 431159, Note_on_c, 0, 81, 0
6, 431160, Note_on_c, 0, 83, 32
6, 431279, Note_on_c, 0, 83, 0
6, 431280, Note_on_c, 0, 84, 32
6, 431399, Note_on_c, 0, 84, 0
6, 431400, Note_on_c, 0, 86, 32
6, 431519, Note_on_c, 0, 86, 0
6, 431520, Note_on_c, 0, 88, 32
6, 431639, Note_on_c, 0, 88, 0
6, 431640, Note_on_c, 0, 89, 32
6, 431759, Note_on_c, 0, 89, 0
6, 431760, Note_on_c, 0, 88, 32
6, 431879, Note_on_c, 0, 88, 0
6, 431880, Note_on_c, 0, 89, 32
6, 431999, Note_on_c, 0, 89, 0
6, 432000, Note_on_c, 0, 91, 32
6, 432119, Note_on_c, 0, 91, 0
6, 432120, Note_on_c, 0, 93, 32
6, 432239, Note_on_c, 0, 93, 0
6, 432240, Note_on_c, 0, 83, 32
6, 432359, Note_on_c, 0, 83, 0
6, 432360, Note_on_c, 0, 84, 32
6, 432479, Note_on_c, 0, 84, 0
6, 432720, Note_on_c, 0, 84, 32
6, 432884, Note_on_c, 0, 84, 0
6, 432900, Note_on_c, 0, 72, 32
6, 432944, Note_on_c, 0, 72, 0
6, 432960, Note_on_c, 0, 72, 32
6, 433064, Note_on_c, 0, 72, 0
6, 433080, Note_on_c, 0, 72, 32
6, 433199, Note_on_c, 0, 72, 0
6, 433440, Note_on_c, 0, 86, 32
6, 433604, Note_on_c, 0, 86, 0
6, 433620, Note_on_c, 0, 74, 32
6, 433664, Note_on_c, 0, 74, 0
6, 433680, Note_on_c, 0, 74, 32
6, 433784, Note_on_c, 0, 74, 0
6, 433800, Note_on_c, 0, 74, 32
6, 433919, Note_on_c, 0, 74, 0
6, 439560, Note_on_c, 0, 86, 32
6, 439679, Note_on_c, 0, 86, 0
6, 439920, Note_on_c, 0, 81, 32
6, 440039, Note_on_c, 0, 81, 0
6, 440280, Note_on_c, 0, 83, 32
6, 440399, Note_on_c, 0, 83, 0
6, 440640, Note_on_c, 0, 84, 32
6, 440759, Note_on_c, 0, 84, 0
6, 441000, Note_on_c, 0, 82, 32
6, 441089, Note_on_c, 0, 82, 0
6, 441120, Note_on_c, 0, 81, 32
6, 441209, Note_on_c, 0, 81, 0
6, 441240, Note_on_c, 0, 79, 32
6, 441329, Note_on_c, 0, 79, 0
6, 441360, Note_on_c, 0, 86, 32
6, 441479, Note_on_c, 0, 86, 0
6, 441720, Note_on_c, 0, 85, 32
6, 441839, Note_on_c, 0, 85, 0
6, 442080, Note_on_c, 0, 86, 32
6, 442199, Note_on_c, 0, 86, 0
6, 442440, Note_on_c, 0, 86, 32
6, 442559, Note_on_c, 0, 86, 0
6, 442800, Note_on_c, 0, 88, 32
6, 442919, Note_on_c, 0, 88, 0
6, 443160, Note_on_c, 0, 88, 32
6, 443279, Note_on_c, 0, 88, 0
6, 443520, Note_on_c, 0, 88, 32
6, 443639, Note_on_c, 0, 88, 0
6, 443880, Note_on_c, 0, 88, 32
6, 443880, Note_on_c, 0, 85, 32
6, 443999, Note_on_c, 0, 88, 0
6, 443999, Note_on_c, 0, 85, 0
6, 444240, Note_on_c, 0, 81, 32
6, 444240, Note_on_c, 0, 86, 32
6, 444359, Note_on_c, 0, 81, 0
6, 444359, Note_on_c, 0, 86, 0
6, 444600, Note_on_c, 0, 88, 32
6, 444600, Note_on_c, 0, 81, 32
6, 444719, Note_on_c, 0, 88, 0
6, 444719, Note_on_c, 0, 81, 0
6, 444960, Note_on_c, 0, 81, 32
6, 444960, Note_on_c, 0, 89, 32
6, 445079, Note_on_c, 0, 81, 0
6, 445079, Note_on_c, 0, 89, 0
6, 445320, Note_on_c, 0, 77, 32
6, 445320, Note_on_c, 0, 89, 32
6, 445409, Note_on_c, 0, 77, 0
6, 445409, Note_on_c, 0, 89, 0
6, 445440, Note_on_c, 0, 88, 32
6, 445440, Note_on_c, 0, 76, 32
6, 445529, Note_on_c, 0, 88, 0
6, 445529, Note_on_c, 0, 76, 0
6, 445560, Note_on_c, 0, 74, 32
6, 445560, Note_on_c, 0, 86, 32
6, 445649, Note_on_c, 0, 74, 0
6, 445649, Note_on_c, 0, 86, 0
6, 445680, Note_on_c, 0, 84, 32
6, 445680, Note_on_c, 0, 72, 32
6, 445769, Note_on_c, 0, 84, 0
6, 445769, Note_on_c, 0, 72, 0
6, 445800, Note_on_c, 0, 71, 32
6, 445800, Note_on_c, 0, 83, 32
6, 445889, Note_on_c, 0, 71, 0
6, 445889, Note_on_c, 0, 83, 0
6, 445920, Note_on_c, 0, 81, 32
6, 445920, Note_on_c, 0, 69, 32
6, 446009, Note_on_c, 0, 81, 0
6, 446009, Note_on_c, 0, 69, 0
6, 446040, Note_on_c, 0, 80, 32
6, 446040, Note_on_c, 0, 68, 32
6, 446129, Note_on_c, 0, 80, 0
6, 446129, Note_on_c, 0, 68, 0
6, 446160, Note_on_c, 0, 69, 32
6, 446160, Note_on_c, 0, 81, 32
6, 446249, Note_on_c, 0, 69, 0
6, 446249, Note_on_c, 0, 81, 0
6, 446280, Note_on_c, 0, 71, 32
6, 446280, Note_on_c, 0, 83, 32
6, 446369, Note_on_c, 0, 71, 0
6, 446369, Note_on_c, 0, 83, 0
6, 446400, Note_on_c, 0, 69, 32
6, 446400, Note_on_c, 0, 81, 32
6, 446489, Note_on_c, 0, 69, 0
6, 446489, Note_on_c, 0, 81, 0
6, 446520, Note_on_c, 0, 80, 32
6, 446520, Note_on_c, 0, 68, 32
6, 446609, Note_on_c, 0, 80, 0
6, 446609, Note_on_c, 0, 68, 0
6, 446640, Note_on_c, 0, 69, 32
6, 446640, Note_on_c, 0, 81, 32
6, 446729, Note_on_c, 0, 69, 0
6, 446729, Note_on_c, 0, 81, 0
6, 447000, Note_on_c, 0, 81, 32
6, 447000, Note_on_c, 0, 69, 32
6, 447119, Note_on_c, 0, 81, 0
6, 447119, Note_on_c, 0, 69, 0
6, 447360, Note_on_c, 0, 69, 32
6, 447360, Note_on_c, 0, 81, 32
6, 447479, Note_on_c, 0, 69, 0
6, 447479, Note_on_c, 0, 81, 0
6, 447720, Note_on_c, 0, 69, 32
6, 447720, Note_on_c, 0, 81, 32
6, 447839, Note_on_c, 0, 69, 0
6, 447839, Note_on_c, 0, 81, 0
6, 448080, Note_on_c, 0, 69, 32
6, 448080, Note_on_c, 0, 81, 32
6, 448199, Note_on_c, 0, 69, 0
6, 448199, Note_on_c, 0, 81, 0
6, 448440, Note_on_c, 0, 69, 32
6, 448440, Note_on_c, 0, 81, 32
6, 448559, Note_on_c, 0, 69, 0
6, 448559, Note_on_c, 0, 81, 0
6, 448800, Note_on_c, 0, 69, 37
6, 448800, Note_on_c, 0, 81, 37
6, 448919, Note_on_c, 0, 69, 0
6, 448919, Note_on_c, 0, 81, 0
6, 449160, Note_on_c, 0, 69, 42
6, 449160, Note_on_c, 0, 81, 42
6, 449279, Note_on_c, 0, 69, 0
6, 449279, Note_on_c, 0, 81, 0
6, 449520, Note_on_c, 0, 81, 47
6, 449520, Note_on_c, 0, 69, 47
6, 449639, Note_on_c, 0, 81, 0
6, 449639, Note_on_c, 0, 69, 0
6, 449880, Note_on_c, 0, 69, 53
6, 449880, Note_on_c, 0, 81, 53
6, 449999, Note_on_c, 0, 69, 0
6, 449999, Note_on_c, 0, 81, 0
6, 450240, Note_on_c, 0, 69, 58
6, 450240, Note_on_c, 0, 81, 58
6, 450359, Note_on_c, 0, 69, 0
6, 450359, Note_on_c, 0, 81, 0
6, 450600, Note_on_c, 0, 69, 63
6, 450600, Note_on_c, 0, 81, 63
6, 450719, Note_on_c, 0, 69, 0
6, 450719, Note_on_c, 0, 81, 0
6, 450960, Note_on_c, 0, 69, 69
6, 450960, Note_on_c, 0, 81, 69
6, 451079, Note_on_c, 0, 69, 0
6, 451079, Note_on_c, 0, 81, 0
6, 451320, Note_on_c, 0, 81, 74
6, 451320, Note_on_c, 0, 69, 74
6, 451439, Note_on_c, 0, 81, 0
6, 451439, Note_on_c, 0, 69, 0
6, 451680, Note_on_c, 0, 81, 79
6, 451799, Note_on_c, 0, 81, 0
6, 451800, Note_on_c, 0, 81, 81
6, 451800, Note_on_c, 0, 88, 81
6, 451904, Note_on_c, 0, 81, 0
6, 451904, Note_on_c, 0, 88, 0
6, 451920, Note_on_c, 0, 81, 83
6, 451920, Note_on_c, 0, 89, 83
6, 452024, Note_on_c, 0, 81, 0
6, 452024, Note_on_c, 0, 89, 0
6, 452040, Note_on_c, 0, 81, 84
6, 452040, Note_on_c, 0, 91, 84
6, 452144, Note_on_c, 0, 81, 0
6, 452144, Note_on_c, 0, 91, 0
6, 452160, Note_on_c, 0, 93, 86
6, 452160, Note_on_c, 0, 81, 86
6, 452324, Note_on_c, 0, 93, 0
6, 452324, Note_on_c, 0, 81, 0
6, 452340, Note_on_c, 0, 81, 89
6, 452340, Note_on_c, 0, 69, 89
6, 452384, Note_on_c, 0, 81, 0
6, 452384, Note_on_c, 0, 69, 0
6, 452400, Note_on_c, 0, 69, 90
6, 452400, Note_on_c, 0, 81, 90
6, 452504, Note_on_c, 0, 69, 0
6, 452504, Note_on_c, 0, 81, 0
6, 452520, Note_on_c, 0, 81, 92
6, 452520, Note_on_c, 0, 93, 92
6, 452684, Note_on_c, 0, 81, 0
6, 452684, Note_on_c, 0, 93, 0
6, 452700, Note_on_c, 0, 81, 92
6, 452700, Note_on_c, 0, 69, 92
6, 452744, Note_on_c, 0, 81, 0
6, 452744, Note_on_c, 0, 69, 0
6, 452760, Note_on_c, 0, 81, 92
6, 452760, Note_on_c, 0, 69, 92
6, 452864, Note_on_c, 0, 81, 0
6, 452864, Note_on_c, 0, 69, 0
6, 452880, Note_on_c, 0, 86, 92
6, 452880, Note_on_c, 0, 81, 92
6, 452984, Note_on_c, 0, 86, 0
6, 452984, Note_on_c, 0, 81, 0
6, 453000, Note_on_c, 0, 88, 92
6, 453000, Note_on_c, 0, 81, 92
6, 453104, Note_on_c, 0, 88, 0
6, 453104, Note_on_c, 0, 81, 0
6, 453120, Note_on_c, 0, 89, 92
6, 453120, Note_on_c, 0, 81, 92
6, 453224, Note_on_c, 0, 89, 0
6, 453224, Note_on_c, 0, 81, 0
6, 453240, Note_on_c, 0, 88, 92
6, 453240, Note_on_c, 0, 81, 92
6, 453344, Note_on_c, 0, 88, 0
6, 453344, Note_on_c, 0, 81, 0
6, 453360, Note_on_c, 0, 81, 92
6, 453360, Note_on_c, 0, 89, 92
6, 453464, Note_on_c, 0, 81, 0
6, 453464, Note_on_c, 0, 89, 0
6, 453480, Note_on_c, 0, 91, 92
6, 453480, Note_on_c, 0, 81, 92
6, 453584, Note_on_c, 0, 91, 0
6, 453584, Note_on_c, 0, 81, 0
6, 453600, Note_on_c, 0, 81, 92
6, 453600, Note_on_c, 0, 89, 92
6, 453704, Note_on_c, 0, 81, 0
6, 453704, Note_on_c, 0, 89, 0
6, 453720, Note_on_c, 0, 86, 92
6, 453720, Note_on_c, 0, 88, 92
6, 453824, Note_on_c, 0, 86, 0
6, 453824, Note_on_c, 0, 88, 0
6, 453840, Note_on_c, 0, 86, 92
6, 453944, Note_on_c, 0, 86, 0
6, 453960, Note_on_c, 0, 82, 80
6, 453960, Note_on_c, 0, 86, 80
6, 454064, Note_on_c, 0, 82, 0
6, 454064, Note_on_c, 0, 86, 0
6, 454080, Note_on_c, 0, 86, 80
6, 454080, Note_on_c, 0, 93, 80
6, 454184, Note_on_c, 0, 86, 0
6, 454184, Note_on_c, 0, 93, 0
6, 454200, Note_on_c, 0, 86, 80
6, 454200, Note_on_c, 0, 91, 80
6, 454304, Note_on_c, 0, 86, 0
6, 454304, Note_on_c, 0, 91, 0
6, 454320, Note_on_c, 0, 89, 80
6, 454424, Note_on_c, 0, 89, 0
6, 454440, Note_on_c, 0, 88, 80
6, 454544, Note_on_c, 0, 88, 0
6, 454560, Note_on_c, 0, 81, 80
6, 454560, Note_on_c, 0, 86, 80
6, 454664, Note_on_c, 0, 81, 0
6, 454664, Note_on_c, 0, 86, 0
6, 454680, Note_on_c, 0, 81, 80
6, 454680, Note_on_c, 0, 85, 80
6, 454784, Note_on_c, 0, 81, 0
6, 454784, Note_on_c, 0, 85, 0
6, 454800, Note_on_c, 0, 81, 80
6, 454800, Note_on_c, 0, 86, 80
6, 454904, Note_on_c, 0, 81, 0
6, 454904, Note_on_c, 0, 86, 0
6, 454920, Note_on_c, 0, 81, 80
6, 454920, Note_on_c, 0, 88, 80
6, 455024, Note_on_c, 0, 81, 0
6, 455024, Note_on_c, 0, 88, 0
6, 455040, Note_on_c, 0, 86, 80
6, 455040, Note_on_c, 0, 81, 80
6, 455144, Note_on_c, 0, 86, 0
6, 455144, Note_on_c, 0, 81, 0
6, 455160, Note_on_c, 0, 85, 80
6, 455160, Note_on_c, 0, 81, 80
6, 455264, Note_on_c, 0, 85, 0
6, 455264, Note_on_c, 0, 81, 0
6, 455280, Note_on_c, 0, 81, 80
6, 455280, Note_on_c, 0, 86, 80
6, 455384, Note_on_c, 0, 81, 0
6, 455384, Note_on_c, 0, 86, 0
6, 455400, Note_on_c, 0, 82, 80
6, 455504, Note_on_c, 0, 82, 0
6, 455520, Note_on_c, 0, 93, 80
6, 455520, Note_on_c, 0, 86, 80
6, 455624, Note_on_c, 0, 93, 0
6, 455624, Note_on_c, 0, 86, 0
6, 455640, Note_on_c, 0, 91, 80
6, 455640, Note_on_c, 0, 86, 80
6, 455744, Note_on_c, 0, 91, 0
6, 455744, Note_on_c, 0, 86, 0
6, 455760, Note_on_c, 0, 86, 80
6, 455760, Note_on_c, 0, 89, 80
6, 455864, Note_on_c, 0, 86, 0
6, 455864, Note_on_c, 0, 89, 0
6, 455880, Note_on_c, 0, 88, 80
6, 455880, Note_on_c, 0, 86, 80
6, 455984, Note_on_c, 0, 88, 0
6, 455984, Note_on_c, 0, 86, 0
6, 456000, Note_on_c, 0, 86, 80
6, 456104, Note_on_c, 0, 86, 0
6, 456120, Note_on_c, 0, 85, 80
6, 456120, Note_on_c, 0, 76, 80
6, 456224, Note_on_c, 0, 85, 0
6, 456224, Note_on_c, 0, 76, 0
6, 456240, Note_on_c, 0, 77, 80
6, 456240, Note_on_c, 0, 86, 80
6, 456344, Note_on_c, 0, 77, 0
6, 456344, Note_on_c, 0, 86, 0
6, 456360, Note_on_c, 0, 88, 80
6, 456360, Note_on_c, 0, 79, 80
6, 456464, Note_on_c, 0, 88, 0
6, 456464, Note_on_c, 0, 79, 0
6, 456480, Note_on_c, 0, 77, 80
6, 456480, Note_on_c, 0, 86, 80
6, 456584, Note_on_c, 0, 77, 0
6, 456584, Note_on_c, 0, 86, 0
6, 456600, Note_on_c, 0, 85, 80
6, 456600, Note_on_c, 0, 77, 80
6, 456704, Note_on_c, 0, 85, 0
6, 456704, Note_on_c, 0, 77, 0
6, 456720, Note_on_c, 0, 86, 80
6, 456720, Note_on_c, 0, 77, 80
6, 456824, Note_on_c, 0, 86, 0
6, 456824, Note_on_c, 0, 77, 0
6, 456840, Note_on_c, 0, 93, 80
6, 456840, Note_on_c, 0, 89, 80
6, 456944, Note_on_c, 0, 93, 0
6, 456944, Note_on_c, 0, 89, 0
6, 456960, Note_on_c, 0, 91, 80
6, 456960, Note_on_c, 0, 83, 80
6, 457064, Note_on_c, 0, 91, 0
6, 457064, Note_on_c, 0, 83, 0
6, 457080, Note_on_c, 0, 86, 80
6, 457080, Note_on_c, 0, 89, 80
6, 457184, Note_on_c, 0, 86, 0
6, 457184, Note_on_c, 0, 89, 0
6, 457200, Note_on_c, 0, 88, 80
6, 457200, Note_on_c, 0, 84, 80
6, 457304, Note_on_c, 0, 88, 0
6, 457304, Note_on_c, 0, 84, 0
6, 457320, Note_on_c, 0, 83, 80
6, 457320, Note_on_c, 0, 86, 80
6, 457424, Note_on_c, 0, 83, 0
6, 457424, Note_on_c, 0, 86, 0
6, 457440, Note_on_c, 0, 79, 80
6, 457440, Note_on_c, 0, 84, 80
6, 457544, Note_on_c, 0, 79, 0
6, 457544, Note_on_c, 0, 84, 0
6, 457560, Note_on_c, 0, 79, 80
6, 457560, Note_on_c, 0, 83, 80
6, 457664, Note_on_c, 0, 79, 0
6, 457664, Note_on_c, 0, 83, 0
6, 457680, Note_on_c, 0, 79, 80
6, 457680, Note_on_c, 0, 84, 80
6, 457784, Note_on_c, 0, 79, 0
6, 457784, Note_on_c, 0, 84, 0
6, 457800, Note_on_c, 0, 77, 80
6, 457800, Note_on_c, 0, 86, 80
6, 457904, Note_on_c, 0, 77, 0
6, 457904, Note_on_c, 0, 86, 0
6, 457920, Note_on_c, 0, 84, 80
6, 457920, Note_on_c, 0, 76, 80
6, 458024, Note_on_c, 0, 84, 0
6, 458024, Note_on_c, 0, 76, 0
6, 458040, Note_on_c, 0, 93, 80
6, 458040, Note_on_c, 0, 89, 80
6, 458144, Note_on_c, 0, 93, 0
6, 458144, Note_on_c, 0, 89, 0
6, 458160, Note_on_c, 0, 93, 80
6, 458160, Note_on_c, 0, 89, 80
6, 458264, Note_on_c, 0, 93, 0
6, 458264, Note_on_c, 0, 89, 0
6, 458280, Note_on_c, 0, 89, 80
6, 458280, Note_on_c, 0, 93, 80
6, 458384, Note_on_c, 0, 89, 0
6, 458384, Note_on_c, 0, 93, 0
6, 458400, Note_on_c, 0, 91, 80
6, 458400, Note_on_c, 0, 83, 80
6, 458504, Note_on_c, 0, 91, 0
6, 458504, Note_on_c, 0, 83, 0
6, 458520, Note_on_c, 0, 89, 80
6, 458520, Note_on_c, 0, 86, 80
6, 458624, Note_on_c, 0, 89, 0
6, 458624, Note_on_c, 0, 86, 0
6, 458640, Note_on_c, 0, 84, 80
6, 458640, Note_on_c, 0, 88, 80
6, 458744, Note_on_c, 0, 84, 0
6, 458744, Note_on_c, 0, 88, 0
6, 458760, Note_on_c, 0, 83, 80
6, 458760, Note_on_c, 0, 86, 80
6, 458864, Note_on_c, 0, 83, 0
6, 458864, Note_on_c, 0, 86, 0
6, 458880, Note_on_c, 0, 84, 80
6, 458880, Note_on_c, 0, 79, 80
6, 458984, Note_on_c, 0, 84, 0
6, 458984, Note_on_c, 0, 79, 0
6, 459000, Note_on_c, 0, 88, 80
6, 459000, Note_on_c, 0, 91, 80
6, 459104, Note_on_c, 0, 88, 0
6, 459104, Note_on_c, 0, 91, 0
6, 459120, Note_on_c, 0, 86, 80
6, 459120, Note_on_c, 0, 89, 80
6, 459224, Note_on_c, 0, 86, 0
6, 459224, Note_on_c, 0, 89, 0
6, 459240, Note_on_c, 0, 84, 80
6, 459240, Note_on_c, 0, 88, 80
6, 459344, Note_on_c, 0, 84, 0
6, 459344, Note_on_c, 0, 88, 0
6, 459360, Note_on_c, 0, 88, 80
6, 459360, Note_on_c, 0, 79, 80
6, 459464, Note_on_c, 0, 88, 0
6, 459464, Note_on_c, 0, 79, 0
6, 459480, Note_on_c, 0, 77, 80
6, 459480, Note_on_c, 0, 86, 80
6, 459584, Note_on_c, 0, 77, 0
6, 459584, Note_on_c, 0, 86, 0
6, 459600, Note_on_c, 0, 76, 80
6, 459600, Note_on_c, 0, 84, 80
6, 459704, Note_on_c, 0, 76, 0
6, 459704, Note_on_c, 0, 84, 0
6, 459720, Note_on_c, 0, 83, 80
6, 459720, Note_on_c, 0, 74, 80
6, 459839, Note_on_c, 0, 83, 0
6, 459839, Note_on_c, 0, 74, 0
6, 460680, Control_c, 0, 11, 87
6, 460800, Note_on_c, 0, 86, 68
6, 460830, Control_c, 0, 11, 89
6, 460860, Control_c, 0, 11, 90
6, 460890, Control_c, 0, 11, 92
6, 460920, Control_c, 0, 11, 94
6, 460950, Control_c, 0, 11, 95
6, 460980, Control_c, 0, 11, 97
6, 461010, Control_c, 0, 11, 99
6, 461040, Control_c, 0, 11, 100
6, 461070, Control_c, 0, 11, 102
6, 461100, Control_c, 0, 11, 104
6, 461130, Control_c, 0, 11, 105
6, 461160, Control_c, 0, 11, 107
6, 461190, Control_c, 0, 11, 109
6, 461220, Control_c, 0, 11, 110
6, 461250, Control_c, 0, 11, 112
6, 461280, Control_c, 0, 11, 114
6, 461310, Control_c, 0, 11, 115
6, 461340, Control_c, 0, 11, 117
6, 461370, Control_c, 0, 11, 119
6, 461400, Control_c, 0, 11, 120
6, 461430, Control_c, 0, 11, 122
6, 461460, Control_c, 0, 11, 124
6, 461490, Control_c, 0, 11, 125
6, 461519, Note_on_c, 0, 86, 0
6, 461520, Note_on_c, 0, 84, 68
6, 461520, Control_c, 0, 11, 127
6, 461565, Control_c, 0, 11, 125
6, 461610, Control_c, 0, 11, 124
6, 461655, Control_c, 0, 11, 122
6, 461700, Control_c, 0, 11, 120
6, 461745, Control_c, 0, 11, 119
6, 461790, Control_c, 0, 11, 117
6, 461835, Control_c, 0, 11, 115
6, 461880, Control_c, 0, 11, 114
6, 461925, Control_c, 0, 11, 112
6, 461970, Control_c, 0, 11, 110
6, 462015, Control_c, 0, 11, 109
6, 462060, Control_c, 0, 11, 107
6, 462105, Control_c, 0, 11, 105
6, 462150, Control_c, 0, 11, 104
6, 462195, Control_c, 0, 11, 102
6, 462239, Note_on_c, 0, 84, 0
6, 462240, Note_on_c, 0, 83, 68
6, 462240, Control_c, 0, 11, 100
6, 462285, Control_c, 0, 11, 99
6, 462330, Control_c, 0, 11, 97
6, 462375, Control_c, 0, 11, 95
6, 462420, Control_c, 0, 11, 94
6, 462465, Control_c, 0, 11, 92
6, 462510, Control_c, 0, 11, 90
6, 462555, Control_c, 0, 11, 87
6, 462599, Note_on_c, 0, 83, 0
6, 463320, Control_c, 0, 11, 47
6, 463365, Control_c, 0, 11, 49
6, 463410, Control_c, 0, 11, 50
6, 463455, Control_c, 0, 11, 52
6, 463500, Control_c, 0, 11, 54
6, 463545, Control_c, 0, 11, 55
6, 463590, Control_c, 0, 11, 57
6, 463635, Control_c, 0, 11, 59
6, 463680, Note_on_c, 0, 81, 92
6, 463680, Control_c, 0, 11, 60
6, 463680, Note_on_c, 0, 86, 92
6, 463725, Control_c, 0, 11, 62
6, 463770, Control_c, 0, 11, 64
6, 463815, Control_c, 0, 11, 65
6, 463860, Control_c, 0, 11, 67
6, 463905, Control_c, 0, 11, 69
6, 463950, Control_c, 0, 11, 70
6, 463995, Control_c, 0, 11, 72
6, 464039, Note_on_c, 0, 81, 0
6, 464040, Control_c, 0, 11, 74
6, 464040, Note_on_c, 0, 83, 92
6, 464085, Control_c, 0, 11, 75
6, 464130, Control_c, 0, 11, 77
6, 464175, Control_c, 0, 11, 79
6, 464220, Control_c, 0, 11, 80
6, 464265, Control_c, 0, 11, 82
6, 464310, Control_c, 0, 11, 84
6, 464355, Control_c, 0, 11, 85
6, 464399, Note_on_c, 0, 86, 0
6, 464399, Note_on_c, 0, 83, 0
6, 464400, Note_on_c, 0, 84, 92
6, 464400, Control_c, 0, 11, 87
6, 464445, Control_c, 0, 11, 89
6, 464490, Control_c, 0, 11, 90
6, 464535, Control_c, 0, 11, 92
6, 464580, Control_c, 0, 11, 94
6, 464625, Control_c, 0, 11, 95
6, 464670, Control_c, 0, 11, 97
6, 464715, Control_c, 0, 11, 99
6, 464760, Control_c, 0, 11, 100
6, 464805, Control_c, 0, 11, 102
6, 464850, Control_c, 0, 11, 104
6, 464895, Control_c, 0, 11, 105
6, 464940, Control_c, 0, 11, 107
6, 464985, Control_c, 0, 11, 109
6, 465030, Control_c, 0, 11, 110
6, 465075, Control_c, 0, 11, 112
6, 465119, Note_on_c, 0, 84, 0
6, 465120, Control_c, 0, 11, 114
6, 465120, Note_on_c, 0, 83, 92
6, 465165, Control_c, 0, 11, 115
6, 465210, Control_c, 0, 11, 117
6, 465255, Control_c, 0, 11, 119
6, 465300, Control_c, 0, 11, 120
6, 465345, Control_c, 0, 11, 122
6, 465390, Control_c, 0, 11, 124
6, 465435, Control_c, 0, 11, 127
6, 465464, Note_on_c, 0, 83, 0
6, 465480, Note_on_c, 0, 84, 92
6, 465720, Note_on_c, 0, 86, 92
6, 465779, Note_on_c, 0, 86, 0
6, 465780, Note_on_c, 0, 88, 92
6, 465824, Note_on_c, 0, 88, 0
6, 465840, Note_on_c, 0, 89, 92
6, 465959, Note_on_c, 0, 84, 0
6, 465959, Note_on_c, 0, 89, 0
6, 466080, Note_on_c, 0, 84, 92
6, 466080, Note_on_c, 0, 88, 92
6, 466169, Note_on_c, 0, 84, 0
6, 466169, Note_on_c, 0, 88, 0
6, 466200, Note_on_c, 0, 84, 92
6, 466200, Note_on_c, 0, 86, 92
6, 466289, Note_on_c, 0, 84, 0
6, 466289, Note_on_c, 0, 86, 0
6, 466440, Note_on_c, 0, 84, 92
6, 466529, Note_on_c, 0, 84, 0
6, 466560, Note_on_c, 0, 86, 92
6, 466560, Note_on_c, 0, 83, 92
6, 466649, Note_on_c, 0, 86, 0
6, 466649, Note_on_c, 0, 83, 0
6, 466800, Note_on_c, 0, 83, 92
6, 466889, Note_on_c, 0, 83, 0
6, 466920, Note_on_c, 0, 84, 92
6, 466920, Note_on_c, 0, 88, 92
6, 467159, Note_on_c, 0, 84, 0
6, 467159, Note_on_c, 0, 88, 0
6, 467160, Note_on_c, 0, 86, 92
6, 467160, Note_on_c, 0, 89, 92
6, 467219, Note_on_c, 0, 86, 0
6, 467219, Note_on_c, 0, 89, 0
6, 467220, Note_on_c, 0, 91, 92
6, 467220, Note_on_c, 0, 88, 92
6, 467264, Note_on_c, 0, 91, 0
6, 467264, Note_on_c, 0, 88, 0
6, 467280, Note_on_c, 0, 89, 92
6, 467280, Note_on_c, 0, 93, 92
6, 467369, Note_on_c, 0, 89, 0
6, 467369, Note_on_c, 0, 93, 0
6, 467520, Note_on_c, 0, 88, 92
6, 467520, Note_on_c, 0, 91, 92
6, 467609, Note_on_c, 0, 88, 0
6, 467609, Note_on_c, 0, 91, 0
6, 467640, Note_on_c, 0, 86, 92
6, 467640, Note_on_c, 0, 89, 92
6, 467729, Note_on_c, 0, 86, 0
6, 467729, Note_on_c, 0, 89, 0
6, 467880, Note_on_c, 0, 84, 92
6, 467880, Note_on_c, 0, 88, 92
6, 467969, Note_on_c, 0, 84, 0
6, 467969, Note_on_c, 0, 88, 0
6, 468000, Note_on_c, 0, 89, 92
6, 468000, Note_on_c, 0, 86, 92
6, 468089, Note_on_c, 0, 89, 0
6, 468089, Note_on_c, 0, 86, 0
6, 468240, Note_on_c, 0, 83, 92
6, 468240, Note_on_c, 0, 86, 92
6, 468329, Note_on_c, 0, 83, 0
6, 468329, Note_on_c, 0, 86, 0
6, 468360, Note_on_c, 0, 84, 92
6, 468449, Note_on_c, 0, 84, 0
6, 468480, Note_on_c, 0, 84, 92
6, 468599, Note_on_c, 0, 84, 0
6, 468600, Note_on_c, 0, 84, 92
6, 468600, Note_on_c, 0, 86, 92
6, 468659, Note_on_c, 0, 86, 0
6, 468660, Note_on_c, 0, 88, 92
6, 468689, Note_on_c, 0, 84, 0
6, 468704, Note_on_c, 0, 88, 0
6, 468720, Note_on_c, 0, 89, 92
6, 468720, Note_on_c, 0, 84, 92
6, 468809, Note_on_c, 0, 89, 0
6, 468809, Note_on_c, 0, 84, 0
6, 468840, Note_on_c, 0, 84, 92
6, 468840, Note_on_c, 0, 89, 92
6, 468929, Note_on_c, 0, 84, 0
6, 468929, Note_on_c, 0, 89, 0
6, 468960, Note_on_c, 0, 84, 92
6, 468960, Note_on_c, 0, 88, 92
6, 469049, Note_on_c, 0, 84, 0
6, 469049, Note_on_c, 0, 88, 0
6, 469080, Note_on_c, 0, 86, 92
6, 469080, Note_on_c, 0, 84, 92
6, 469169, Note_on_c, 0, 86, 0
6, 469169, Note_on_c, 0, 84, 0
6, 469200, Note_on_c, 0, 86, 92
6, 469200, Note_on_c, 0, 84, 92
6, 469289, Note_on_c, 0, 86, 0
6, 469289, Note_on_c, 0, 84, 0
6, 469320, Note_on_c, 0, 84, 92
6, 469409, Note_on_c, 0, 84, 0
6, 469440, Note_on_c, 0, 86, 92
6, 469529, Note_on_c, 0, 86, 0
6, 469560, Note_on_c, 0, 86, 92
6, 469649, Note_on_c, 0, 86, 0
6, 469680, Note_on_c, 0, 83, 92
6, 469769, Note_on_c, 0, 83, 0
6, 469800, Note_on_c, 0, 88, 92
6, 469800, Note_on_c, 0, 84, 92
6, 469889, Note_on_c, 0, 88, 0
6, 469889, Note_on_c, 0, 84, 0
6, 469920, Note_on_c, 0, 88, 92
6, 469920, Note_on_c, 0, 84, 92
6, 470039, Note_on_c, 0, 88, 0
6, 470039, Note_on_c, 0, 84, 0
6, 470040, Note_on_c, 0, 89, 92
6, 470040, Note_on_c, 0, 86, 92
6, 470099, Note_on_c, 0, 89, 0
6, 470099, Note_on_c, 0, 86, 0
6, 470100, Note_on_c, 0, 88, 92
6, 470100, Note_on_c, 0, 91, 92
6, 470144, Note_on_c, 0, 88, 0
6, 470144, Note_on_c, 0, 91, 0
6, 470160, Note_on_c, 0, 93, 92
6, 470160, Note_on_c, 0, 89, 92
6, 470249, Note_on_c, 0, 93, 0
6, 470249, Note_on_c, 0, 89, 0
6, 470280, Note_on_c, 0, 93, 92
6, 470280, Note_on_c, 0, 89, 92
6, 470369, Note_on_c, 0, 93, 0
6, 470369, Note_on_c, 0, 89, 0
6, 470400, Note_on_c, 0, 88, 92
6, 470400, Note_on_c, 0, 91, 92
6, 470489, Note_on_c, 0, 88, 0
6, 470489, Note_on_c, 0, 91, 0
6, 470520, Note_on_c, 0, 86, 92
6, 470520, Note_on_c, 0, 89, 92
6, 470609, Note_on_c, 0, 86, 0
6, 470609, Note_on_c, 0, 89, 0
6, 470640, Note_on_c, 0, 89, 92
6, 470640, Note_on_c, 0, 86, 92
6, 470729, Note_on_c, 0, 89, 0
6, 470729, Note_on_c, 0, 86, 0
6, 470760, Note_on_c, 0, 88, 92
6, 470760, Note_on_c, 0, 84, 92
6, 470849, Note_on_c, 0, 88, 0
6, 470849, Note_on_c, 0, 84, 0
6, 470880, Note_on_c, 0, 89, 92
6, 470880, Note_on_c, 0, 86, 92
6, 470969, Note_on_c, 0, 89, 0
6, 470969, Note_on_c, 0, 86, 0
6, 471000, Note_on_c, 0, 89, 92
6, 471000, Note_on_c, 0, 86, 92
6, 471089, Note_on_c, 0, 89, 0
6, 471089, Note_on_c, 0, 86, 0
6, 471120, Note_on_c, 0, 86, 92
6, 471120, Note_on_c, 0, 83, 92
6, 471209, Note_on_c, 0, 86, 0
6, 471209, Note_on_c, 0, 83, 0
6, 471240, Note_on_c, 0, 88, 92
6, 471404, Note_on_c, 0, 88, 0
6, 471420, Note_on_c, 0, 76, 92
6, 471464, Note_on_c, 0, 76, 0
6, 471480, Note_on_c, 0, 76, 92
6, 471584, Note_on_c, 0, 76, 0
6, 471600, Note_on_c, 0, 88, 92
6, 471689, Note_on_c, 0, 88, 0
6, 471720, Note_on_c, 0, 89, 92
6, 471809, Note_on_c, 0, 89, 0
6, 471840, Note_on_c, 0, 91, 92
6, 471929, Note_on_c, 0, 91, 0
6, 471960, Note_on_c, 0, 93, 92
6, 472079, Note_on_c, 0, 93, 0
6, 472320, Note_on_c, 0, 69, 92
6, 472320, Note_on_c, 0, 81, 92
6, 472409, Note_on_c, 0, 69, 0
6, 472409, Note_on_c, 0, 81, 0
6, 472440, Note_on_c, 0, 83, 92
6, 472440, Note_on_c, 0, 71, 92
6, 472529, Note_on_c, 0, 83, 0
6, 472529, Note_on_c, 0, 71, 0
6, 472560, Note_on_c, 0, 72, 92
6, 472560, Note_on_c, 0, 84, 92
6, 472649, Note_on_c, 0, 72, 0
6, 472649, Note_on_c, 0, 84, 0
6, 472680, Note_on_c, 0, 86, 92
6, 472844, Note_on_c, 0, 86, 0
6, 472860, Note_on_c, 0, 74, 92
6, 472904, Note_on_c, 0, 74, 0
6, 472920, Note_on_c, 0, 74, 92
6, 473024, Note_on_c, 0, 74, 0
6, 473040, Note_on_c, 0, 86, 92
6, 473040, Note_on_c, 0, 74, 92
6, 473129, Note_on_c, 0, 86, 0
6, 473129, Note_on_c, 0, 74, 0
6, 473160, Note_on_c, 0, 76, 92
6, 473160, Note_on_c, 0, 88, 92
6, 473249, Note_on_c, 0, 76, 0
6, 473249, Note_on_c, 0, 88, 0
6, 473280, Note_on_c, 0, 89, 92
6, 473280, Note_on_c, 0, 77, 92
6, 473369, Note_on_c, 0, 89, 0
6, 473369, Note_on_c, 0, 77, 0
6, 473400, Note_on_c, 0, 79, 92
6, 473400, Note_on_c, 0, 91, 92
6, 473519, Note_on_c, 0, 79, 0
6, 473519, Note_on_c, 0, 91, 0
6, 473760, Note_on_c, 0, 79, 92
6, 473760, Note_on_c, 0, 67, 92
6, 473849, Note_on_c, 0, 79, 0
6, 473849, Note_on_c, 0, 67, 0
6, 473880, Note_on_c, 0, 84, 92
6, 473880, Note_on_c, 0, 72, 92
6, 473969, Note_on_c, 0, 84, 0
6, 473969, Note_on_c, 0, 72, 0
6, 474000, Note_on_c, 0, 74, 92
6, 474000, Note_on_c, 0, 86, 92
6, 474089, Note_on_c, 0, 74, 0
6, 474089, Note_on_c, 0, 86, 0
6, 474120, Note_on_c, 0, 76, 44
6, 474120, Note_on_c, 0, 88, 44
6, 474239, Note_on_c, 0, 76, 0
6, 474239, Note_on_c, 0, 88, 0
6, 476160, Control_c, 0, 11, 67
6, 476280, Control_c, 0, 11, 67
6, 476280, Note_on_c, 0, 84, 80
6, 476280, Note_on_c, 0, 89, 80
6, 476310, Control_c, 0, 11, 68
6, 476340, Control_c, 0, 11, 70
6, 476370, Control_c, 0, 11, 71
6, 476400, Control_c, 0, 11, 72
6, 476430, Control_c, 0, 11, 73
6, 476460, Control_c, 0, 11, 75
6, 476490, Control_c, 0, 11, 76
6, 476520, Control_c, 0, 11, 77
6, 476550, Control_c, 0, 11, 78
6, 476580, Control_c, 0, 11, 80
6, 476610, Control_c, 0, 11, 81
6, 476624, Note_on_c, 0, 89, 0
6, 476640, Note_on_c, 0, 88, 80
6, 476640, Control_c, 0, 11, 82
6, 476670, Control_c, 0, 11, 83
6, 476700, Control_c, 0, 11, 85
6, 476730, Control_c, 0, 11, 86
6, 476760, Control_c, 0, 11, 87
6, 476790, Control_c, 0, 11, 88
6, 476820, Control_c, 0, 11, 90
6, 476850, Control_c, 0, 11, 91
6, 476880, Control_c, 0, 11, 92
6, 476910, Control_c, 0, 11, 93
6, 476940, Control_c, 0, 11, 95
6, 476970, Control_c, 0, 11, 96
6, 477000, Control_c, 0, 11, 97
6, 477030, Control_c, 0, 11, 98
6, 477060, Control_c, 0, 11, 100
6, 477090, Control_c, 0, 11, 101
6, 477120, Control_c, 0, 11, 102
6, 477150, Control_c, 0, 11, 103
6, 477180, Control_c, 0, 11, 105
6, 477210, Control_c, 0, 11, 106
6, 477240, Control_c, 0, 11, 107
6, 477270, Control_c, 0, 11, 108
6, 477300, Control_c, 0, 11, 110
6, 477330, Control_c, 0, 11, 111
6, 477360, Control_c, 0, 11, 112
6, 477390, Control_c, 0, 11, 113
6, 477420, Control_c, 0, 11, 115
6, 477450, Control_c, 0, 11, 116
6, 477479, Note_on_c, 0, 84, 0
6, 477479, Note_on_c, 0, 88, 0
6, 477480, Note_on_c, 0, 86, 80
6, 477480, Note_on_c, 0, 89, 80
6, 477480, Control_c, 0, 11, 117
6, 477510, Control_c, 0, 11, 118
6, 477540, Control_c, 0, 11, 120
6, 477570, Control_c, 0, 11, 121
6, 477599, Note_on_c, 0, 86, 0
6, 477599, Note_on_c, 0, 89, 0
6, 477600, Note_on_c, 0, 88, 80
6, 477600, Control_c, 0, 11, 122
6, 477600, Note_on_c, 0, 91, 80
6, 477630, Control_c, 0, 11, 123
6, 477660, Control_c, 0, 11, 125
6, 477690, Control_c, 0, 11, 127
6, 477704, Note_on_c, 0, 88, 0
6, 477704, Note_on_c, 0, 91, 0
6, 477720, Note_on_c, 0, 91, 80
6, 477720, Note_on_c, 0, 79, 80
6, 477809, Note_on_c, 0, 91, 0
6, 477809, Note_on_c, 0, 79, 0
6, 477840, Note_on_c, 0, 76, 80
6, 477840, Note_on_c, 0, 88, 80
6, 477929, Note_on_c, 0, 76, 0
6, 477929, Note_on_c, 0, 88, 0
6, 477960, Note_on_c, 0, 81, 80
6, 477960, Note_on_c, 0, 93, 80
6, 478049, Note_on_c, 0, 81, 0
6, 478049, Note_on_c, 0, 93, 0
6, 478080, Note_on_c, 0, 89, 80
6, 478080, Note_on_c, 0, 77, 80
6, 478169, Note_on_c, 0, 89, 0
6, 478169, Note_on_c, 0, 77, 0
6, 478200, Note_on_c, 0, 74, 80
6, 478200, Note_on_c, 0, 86, 80
6, 478289, Note_on_c, 0, 74, 0
6, 478289, Note_on_c, 0, 86, 0
6, 478320, Note_on_c, 0, 91, 80
6, 478320, Note_on_c, 0, 79, 80
6, 478409, Note_on_c, 0, 91, 0
6, 478409, Note_on_c, 0, 79, 0
6, 478440, Note_on_c, 0, 88, 80
6, 478440, Note_on_c, 0, 76, 80
6, 478559, Note_on_c, 0, 88, 0
6, 478559, Note_on_c, 0, 76, 0
6, 479160, Note_on_c, 0, 91, 80
6, 479160, Note_on_c, 0, 79, 80
6, 479249, Note_on_c, 0, 91, 0
6, 479249, Note_on_c, 0, 79, 0
6, 479280, Note_on_c, 0, 88, 80
6, 479280, Note_on_c, 0, 76, 80
6, 479369, Note_on_c, 0, 88, 0
6, 479369, Note_on_c, 0, 76, 0
6, 479400, Note_on_c, 0, 93, 80
6, 479400, Note_on_c, 0, 81, 80
6, 479489, Note_on_c, 0, 93, 0
6, 479489, Note_on_c, 0, 81, 0
6, 479520, Note_on_c, 0, 77, 80
6, 479520, Note_on_c, 0, 89, 80
6, 479609, Note_on_c, 0, 77, 0
6, 479609, Note_on_c, 0, 89, 0
6, 479640, Note_on_c, 0, 86, 80
6, 479640, Note_on_c, 0, 74, 80
6, 479729, Note_on_c, 0, 86, 0
6, 479729, Note_on_c, 0, 74, 0
6, 479760, Note_on_c, 0, 91, 80
6, 479760, Note_on_c, 0, 79, 80
6, 479849, Note_on_c, 0, 91, 0
6, 479849, Note_on_c, 0, 79, 0
6, 479880, Note_on_c, 0, 79, 80
6, 479880, Note_on_c, 0, 91, 80
6, 479969, Note_on_c, 0, 79, 0
6, 479969, Note_on_c, 0, 91, 0
6, 480000, Note_on_c, 0, 79, 80
6, 480000, Note_on_c, 0, 91, 80
6, 480089, Note_on_c, 0, 79, 0
6, 480089, Note_on_c, 0, 91, 0
6, 480120, Note_on_c, 0, 91, 80
6, 480120, Note_on_c, 0, 79, 80
6, 480209, Note_on_c, 0, 91, 0
6, 480209, Note_on_c, 0, 79, 0
6, 480240, Note_on_c, 0, 79, 80
6, 480240, Note_on_c, 0, 91, 80
6, 480329, Note_on_c, 0, 79, 0
6, 480329, Note_on_c, 0, 91, 0
6, 480360, Note_on_c, 0, 79, 80
6, 480360, Note_on_c, 0, 91, 80
6, 480449, Note_on_c, 0, 79, 0
6, 480449, Note_on_c, 0, 91, 0
6, 480480, Note_on_c, 0, 91, 80
6, 480480, Note_on_c, 0, 79, 80
6, 480569, Note_on_c, 0, 91, 0
6, 480569, Note_on_c, 0, 79, 0
6, 480600, Note_on_c, 0, 88, 80
6, 480600, Note_on_c, 0, 84, 80
6, 480689, Note_on_c, 0, 88, 0
6, 480689, Note_on_c, 0, 84, 0
6, 480720, Note_on_c, 0, 84, 80
6, 480809, Note_on_c, 0, 84, 0
6, 480840, Note_on_c, 0, 88, 80
6, 480840, Note_on_c, 0, 91, 80
6, 480929, Note_on_c, 0, 88, 0
6, 480929, Note_on_c, 0, 91, 0
6, 480960, Note_on_c, 0, 89, 80
6, 480960, Note_on_c, 0, 86, 80
6, 481049, Note_on_c, 0, 89, 0
6, 481049, Note_on_c, 0, 86, 0
6, 481080, Note_on_c, 0, 86, 80
6, 481080, Note_on_c, 0, 83, 80
6, 481169, Note_on_c, 0, 86, 0
6, 481169, Note_on_c, 0, 83, 0
6, 481200, Note_on_c, 0, 83, 80
6, 481200, Note_on_c, 0, 91, 80
6, 481289, Note_on_c, 0, 83, 0
6, 481289, Note_on_c, 0, 91, 0
6, 481320, Note_on_c, 0, 84, 80
6, 481320, Note_on_c, 0, 88, 80
6, 481409, Note_on_c, 0, 84, 0
6, 481409, Note_on_c, 0, 88, 0
6, 481440, Note_on_c, 0, 84, 80
6, 481529, Note_on_c, 0, 84, 0
6, 481560, Note_on_c, 0, 88, 80
6, 481560, Note_on_c, 0, 91, 80
6, 481649, Note_on_c, 0, 88, 0
6, 481649, Note_on_c, 0, 91, 0
6, 481680, Note_on_c, 0, 89, 80
6, 481680, Note_on_c, 0, 86, 80
6, 481769, Note_on_c, 0, 89, 0
6, 481769, Note_on_c, 0, 86, 0
6, 481800, Note_on_c, 0, 86, 80
6, 481800, Note_on_c, 0, 83, 80
6, 481889, Note_on_c, 0, 86, 0
6, 481889, Note_on_c, 0, 83, 0
6, 481920, Note_on_c, 0, 91, 80
6, 481920, Note_on_c, 0, 83, 80
6, 482009, Note_on_c, 0, 91, 0
6, 482009, Note_on_c, 0, 83, 0
6, 482040, Note_on_c, 0, 79, 32
6, 482159, Note_on_c, 0, 79, 0
6, 482160, Note_on_c, 0, 81, 32
6, 482279, Note_on_c, 0, 81, 0
6, 482280, Note_on_c, 0, 83, 32
6, 482399, Note_on_c, 0, 83, 0
6, 482400, Note_on_c, 0, 84, 32
6, 482519, Note_on_c, 0, 84, 0
6, 482520, Note_on_c, 0, 86, 32
6, 482639, Note_on_c, 0, 86, 0
6, 482640, Note_on_c, 0, 88, 32
6, 482759, Note_on_c, 0, 88, 0
6, 482760, Note_on_c, 0, 89, 32
6, 482879, Note_on_c, 0, 89, 0
6, 482880, Note_on_c, 0, 88, 32
6, 482999, Note_on_c, 0, 88, 0
6, 483000, Note_on_c, 0, 89, 32
6, 483119, Note_on_c, 0, 89, 0
6, 483120, Note_on_c, 0, 91, 32
6, 483239, Note_on_c, 0, 91, 0
6, 483240, Note_on_c, 0, 93, 32
6, 483359, Note_on_c, 0, 93, 0
6, 483360, Note_on_c, 0, 83, 32
6, 483479, Note_on_c, 0, 83, 0
6, 483480, Note_on_c, 0, 84, 32
6, 483599, Note_on_c, 0, 84, 0
6, 483840, Note_on_c, 0, 84, 32
6, 484004, Note_on_c, 0, 84, 0
6, 484020, Note_on_c, 0, 72, 32
6, 484064, Note_on_c, 0, 72, 0
6, 484080, Note_on_c, 0, 72, 32
6, 484184, Note_on_c, 0, 72, 0
6, 484200, Note_on_c, 0, 72, 32
6, 484319, Note_on_c, 0, 72, 0
6, 484560, Note_on_c, 0, 86, 32
6, 484724, Note_on_c, 0, 86, 0
6, 484740, Note_on_c, 0, 74, 32
6, 484784, Note_on_c, 0, 74, 0
6, 484800, Note_on_c, 0, 74, 32
6, 484904, Note_on_c, 0, 74, 0
6, 484920, Note_on_c, 0, 74, 32
6, 485039, Note_on_c, 0, 74, 0
6, 486720, Note_on_c, 0, 86, 32
6, 486884, Note_on_c, 0, 86, 0
6, 486900, Note_on_c, 0, 74, 32
6, 486944, Note_on_c, 0, 74, 0
6, 486960, Note_on_c, 0, 74, 32
6, 487064, Note_on_c, 0, 74, 0
6, 487080, Note_on_c, 0, 74, 32
6, 487199, Note_on_c, 0, 74, 0
6, 487440, Note_on_c, 0, 87, 32
6, 487604, Note_on_c, 0, 87, 0
6, 487620, Note_on_c, 0, 75, 32
6, 487664, Note_on_c, 0, 75, 0
6, 487680, Note_on_c, 0, 75, 32
6, 487784, Note_on_c, 0, 75, 0
6, 487800, Note_on_c, 0, 75, 32
6, 487919, Note_on_c, 0, 75, 0
6, 489600, Note_on_c, 0, 87, 36
6, 489764, Note_on_c, 0, 87, 0
6, 489780, Note_on_c, 0, 75, 38
6, 489824, Note_on_c, 0, 75, 0
6, 489840, Note_on_c, 0, 75, 38
6, 489944, Note_on_c, 0, 75, 0
6, 489960, Note_on_c, 0, 75, 40
6, 490079, Note_on_c, 0, 75, 0
6, 490320, Note_on_c, 0, 89, 44
6, 490484, Note_on_c, 0, 89, 0
6, 490500, Note_on_c, 0, 77, 46
6, 490544, Note_on_c, 0, 77, 0
6, 490560, Note_on_c, 0, 77, 46
6, 490664, Note_on_c, 0, 77, 0
6, 490680, Note_on_c, 0, 77, 48
6, 490799, Note_on_c, 0, 77, 0
6, 491040, Note_on_c, 0, 89, 52
6, 491204, Note_on_c, 0, 89, 0
6, 491220, Note_on_c, 0, 77, 54
6, 491264, Note_on_c, 0, 77, 0
6, 491280, Note_on_c, 0, 77, 54
6, 491384, Note_on_c, 0, 77, 0
6, 491400, Note_on_c, 0, 78, 56
6, 491519, Note_on_c, 0, 78, 0
6, 491760, Note_on_c, 0, 90, 60
6, 491924, Note_on_c, 0, 90, 0
6, 491940, Note_on_c, 0, 78, 62
6, 491984, Note_on_c, 0, 78, 0
6, 492000, Note_on_c, 0, 78, 62
6, 492104, Note_on_c, 0, 78, 0
6, 492120, Note_on_c, 0, 78, 64
6, 492239, Note_on_c, 0, 78, 0
6, 492480, Note_on_c, 0, 92, 68
6, 492644, Note_on_c, 0, 92, 0
6, 492660, Note_on_c, 0, 80, 70
6, 492704, Note_on_c, 0, 80, 0
6, 492720, Note_on_c, 0, 80, 70
6, 492824, Note_on_c, 0, 80, 0
6, 492840, Note_on_c, 0, 80, 72
6, 492959, Note_on_c, 0, 80, 0
6, 493200, Note_on_c, 0, 92, 76
6, 493364, Note_on_c, 0, 92, 0
6, 493380, Note_on_c, 0, 80, 78
6, 493424, Note_on_c, 0, 80, 0
6, 493440, Note_on_c, 0, 80, 78
6, 493544, Note_on_c, 0, 80, 0
6, 493560, Note_on_c, 0, 81, 80
6, 493679, Note_on_c, 0, 81, 0
6, 493920, Note_on_c, 0, 93, 80
6, 493920, Note_on_c, 0, 81, 80
6, 494084, Note_on_c, 0, 93, 0
6, 494084, Note_on_c, 0, 81, 0
6, 494100, Note_on_c, 0, 81, 80
6, 494100, Note_on_c, 0, 69, 80
6, 494144, Note_on_c, 0, 81, 0
6, 494144, Note_on_c, 0, 69, 0
6, 494160, Note_on_c, 0, 81, 80
6, 494160, Note_on_c, 0, 69, 80
6, 494264, Note_on_c, 0, 81, 0
6, 494264, Note_on_c, 0, 69, 0
6, 494640, Note_on_c, 0, 82, 92
6, 494804, Note_on_c, 0, 82, 0
6, 494820, Note_on_c, 0, 70, 92
6, 494864, Note_on_c, 0, 70, 0
6, 494880, Note_on_c, 0, 70, 92
6, 494984, Note_on_c, 0, 70, 0
6, 495360, Note_on_c, 0, 83, 92
6, 495524, Note_on_c, 0, 83, 0
6, 495540, Note_on_c, 0, 71, 92
6, 495584, Note_on_c, 0, 71, 0
6, 495600, Note_on_c, 0, 71, 92
6, 496049, Note_on_c, 0, 71, 0
6, 499320, Note_on_c, 0, 88, 44
6, 499484, Note_on_c, 0, 88, 0
6, 499500, Note_on_c, 0, 76, 44
6, 499544, Note_on_c, 0, 76, 0
6, 499560, Note_on_c, 0, 76, 44
6, 499664, Note_on_c, 0, 76, 0
6, 499680, Note_on_c, 0, 81, 44
6, 499769, Note_on_c, 0, 81, 0
6, 499800, Note_on_c, 0, 83, 44
6, 499889, Note_on_c, 0, 83, 0
6, 499920, Note_on_c, 0, 84, 44
6, 500009, Note_on_c, 0, 84, 0
6, 500040, Note_on_c, 0, 83, 44
6, 500129, Note_on_c, 0, 83, 0
6, 500160, Note_on_c, 0, 84, 44
6, 500249, Note_on_c, 0, 84, 0
6, 500280, Note_on_c, 0, 86, 44
6, 500369, Note_on_c, 0, 86, 0
6, 500400, Note_on_c, 0, 84, 44
6, 500489, Note_on_c, 0, 84, 0
6, 500520, Note_on_c, 0, 88, 44
6, 500609, Note_on_c, 0, 88, 0
6, 500640, Note_on_c, 0, 88, 44
6, 500729, Note_on_c, 0, 88, 0
6, 500760, Note_on_c, 0, 88, 44
6, 500849, Note_on_c, 0, 88, 0
6, 500880, Note_on_c, 0, 86, 44
6, 500969, Note_on_c, 0, 86, 0
6, 501000, Note_on_c, 0, 84, 44
6, 501089, Note_on_c, 0, 84, 0
6, 501120, Note_on_c, 0, 86, 44
6, 501209, Note_on_c, 0, 86, 0
6, 501240, Note_on_c, 0, 84, 44
6, 501329, Note_on_c, 0, 84, 0
6, 501360, Note_on_c, 0, 83, 44
6, 501449, Note_on_c, 0, 83, 0
6, 501480, Note_on_c, 0, 88, 44
6, 501644, Note_on_c, 0, 88, 0
6, 501660, Note_on_c, 0, 76, 44
6, 501704, Note_on_c, 0, 76, 0
6, 501720, Note_on_c, 0, 76, 44
6, 501824, Note_on_c, 0, 76, 0
6, 501840, Note_on_c, 0, 81, 44
6, 501929, Note_on_c, 0, 81, 0
6, 501960, Note_on_c, 0, 83, 44
6, 502049, Note_on_c, 0, 83, 0
6, 502080, Note_on_c, 0, 84, 44
6, 502169, Note_on_c, 0, 84, 0
6, 502200, Note_on_c, 0, 83, 44
6, 502289, Note_on_c, 0, 83, 0
6, 502320, Note_on_c, 0, 84, 44
6, 502409, Note_on_c, 0, 84, 0
6, 502440, Note_on_c, 0, 86, 44
6, 502529, Note_on_c, 0, 86, 0
6, 502920, Note_on_c, 0, 81, 44
6, 503009, Note_on_c, 0, 81, 0
6, 503040, Note_on_c, 0, 82, 44
6, 503129, Note_on_c, 0, 82, 0
6, 503160, Note_on_c, 0, 84, 44
6, 503249, Note_on_c, 0, 84, 0
6, 503280, Note_on_c, 0, 82, 44
6, 503369, Note_on_c, 0, 82, 0
6, 503400, Note_on_c, 0, 84, 44
6, 503489, Note_on_c, 0, 84, 0
6, 503520, Note_on_c, 0, 86, 44
6, 503609, Note_on_c, 0, 86, 0
6, 504000, Note_on_c, 0, 84, 44
6, 504089, Note_on_c, 0, 84, 0
6, 504120, Note_on_c, 0, 88, 44
6, 504209, Note_on_c, 0, 88, 0
6, 504240, Note_on_c, 0, 89, 44
6, 504329, Note_on_c, 0, 89, 0
6, 504360, Note_on_c, 0, 88, 44
6, 504449, Note_on_c, 0, 88, 0
6, 504480, Note_on_c, 0, 89, 44
6, 504569, Note_on_c, 0, 89, 0
6, 504600, Note_on_c, 0, 91, 44
6, 504689, Note_on_c, 0, 91, 0
6, 505080, Note_on_c, 0, 89, 44
6, 505080, Note_on_c, 0, 77, 44
6, 505169, Note_on_c, 0, 89, 0
6, 505169, Note_on_c, 0, 77, 0
6, 505200, Note_on_c, 0, 89, 44
6, 505200, Note_on_c, 0, 77, 44
6, 505289, Note_on_c, 0, 89, 0
6, 505289, Note_on_c, 0, 77, 0
6, 505320, Note_on_c, 0, 89, 44
6, 505320, Note_on_c, 0, 77, 44
6, 505409, Note_on_c, 0, 89, 0
6, 505409, Note_on_c, 0, 77, 0
6, 505440, Note_on_c, 0, 89, 44
6, 505440, Note_on_c, 0, 77, 44
6, 505529, Note_on_c, 0, 89, 0
6, 505529, Note_on_c, 0, 77, 0
6, 505560, Note_on_c, 0, 89, 44
6, 505560, Note_on_c, 0, 77, 44
6, 505649, Note_on_c, 0, 89, 0
6, 505649, Note_on_c, 0, 77, 0
6, 505680, Note_on_c, 0, 77, 44
6, 505680, Note_on_c, 0, 89, 44
6, 505769, Note_on_c, 0, 77, 0
6, 505769, Note_on_c, 0, 89, 0
6, 506160, Note_on_c, 0, 84, 44
6, 506160, Note_on_c, 0, 93, 44
6, 506249, Note_on_c, 0, 84, 0
6, 506249, Note_on_c, 0, 93, 0
6, 506280, Note_on_c, 0, 84, 44
6, 506280, Note_on_c, 0, 91, 44
6, 506369, Note_on_c, 0, 84, 0
6, 506369, Note_on_c, 0, 91, 0
6, 506400, Note_on_c, 0, 89, 44
6, 506400, Note_on_c, 0, 84, 44
6, 506489, Note_on_c, 0, 89, 0
6, 506489, Note_on_c, 0, 84, 0
6, 506520, Note_on_c, 0, 91, 44
6, 506520, Note_on_c, 0, 84, 44
6, 506609, Note_on_c, 0, 91, 0
6, 506609, Note_on_c, 0, 84, 0
6, 506640, Note_on_c, 0, 84, 44
6, 506640, Note_on_c, 0, 89, 44
6, 506729, Note_on_c, 0, 84, 0
6, 506729, Note_on_c, 0, 89, 0
6, 506760, Note_on_c, 0, 84, 44
6, 506760, Note_on_c, 0, 88, 44
6, 506849, Note_on_c, 0, 84, 0
6, 506849, Note_on_c, 0, 88, 0
6, 506880, Note_on_c, 0, 84, 44
6, 506880, Note_on_c, 0, 89, 44
6, 506969, Note_on_c, 0, 84, 0
6, 506969, Note_on_c, 0, 89, 0
6, 507000, Note_on_c, 0, 84, 44
6, 507000, Note_on_c, 0, 91, 44
6, 507089, Note_on_c, 0, 84, 0
6, 507089, Note_on_c, 0, 91, 0
6, 507120, Note_on_c, 0, 93, 44
6, 507120, Note_on_c, 0, 84, 44
6, 507209, Note_on_c, 0, 93, 0
6, 507209, Note_on_c, 0, 84, 0
6, 507240, Note_on_c, 0, 93, 44
6, 507240, Note_on_c, 0, 84, 44
6, 507329, Note_on_c, 0, 93, 0
6, 507329, Note_on_c, 0, 84, 0
6, 507360, Note_on_c, 0, 91, 44
6, 507360, Note_on_c, 0, 84, 44
6, 507449, Note_on_c, 0, 91, 0
6, 507449, Note_on_c, 0, 84, 0
6, 507480, Note_on_c, 0, 89, 44
6, 507480, Note_on_c, 0, 84, 44
6, 507569, Note_on_c, 0, 89, 0
6, 507569, Note_on_c, 0, 84, 0
6, 507600, Note_on_c, 0, 84, 43
6, 507600, Note_on_c, 0, 89, 43
6, 507689, Note_on_c, 0, 84, 0
6, 507689, Note_on_c, 0, 89, 0
6, 507720, Note_on_c, 0, 91, 43
6, 507720, Note_on_c, 0, 84, 43
6, 507809, Note_on_c, 0, 91, 0
6, 507809, Note_on_c, 0, 84, 0
6, 507840, Note_on_c, 0, 84, 43
6, 507840, Note_on_c, 0, 89, 43
6, 507929, Note_on_c, 0, 84, 0
6, 507929, Note_on_c, 0, 89, 0
6, 508320, Note_on_c, 0, 84, 41
6, 508484, Note_on_c, 0, 84, 0
6, 508500, Note_on_c, 0, 72, 41
6, 508544, Note_on_c, 0, 72, 0
6, 508560, Note_on_c, 0, 72, 40
6, 508664, Note_on_c, 0, 72, 0
6, 509040, Note_on_c, 0, 81, 39
6, 509040, Note_on_c, 0, 86, 39
6, 509144, Note_on_c, 0, 81, 0
6, 509144, Note_on_c, 0, 86, 0
6, 509160, Note_on_c, 0, 81, 39
6, 509160, Note_on_c, 0, 88, 39
6, 509264, Note_on_c, 0, 81, 0
6, 509264, Note_on_c, 0, 88, 0
6, 509280, Note_on_c, 0, 89, 38
6, 509280, Note_on_c, 0, 81, 38
6, 509384, Note_on_c, 0, 89, 0
6, 509384, Note_on_c, 0, 81, 0
6, 509400, Note_on_c, 0, 89, 38
6, 509400, Note_on_c, 0, 81, 38
6, 509504, Note_on_c, 0, 89, 0
6, 509504, Note_on_c, 0, 81, 0
6, 509520, Note_on_c, 0, 81, 38
6, 509520, Note_on_c, 0, 88, 38
6, 509624, Note_on_c, 0, 81, 0
6, 509624, Note_on_c, 0, 88, 0
6, 509640, Note_on_c, 0, 86, 37
6, 509640, Note_on_c, 0, 81, 37
6, 509744, Note_on_c, 0, 86, 0
6, 509744, Note_on_c, 0, 81, 0
6, 509760, Note_on_c, 0, 86, 37
6, 509760, Note_on_c, 0, 81, 37
6, 509864, Note_on_c, 0, 86, 0
6, 509864, Note_on_c, 0, 81, 0
6, 509880, Note_on_c, 0, 88, 36
6, 509880, Note_on_c, 0, 81, 36
6, 509984, Note_on_c, 0, 88, 0
6, 509984, Note_on_c, 0, 81, 0
6, 510000, Note_on_c, 0, 86, 36
6, 510000, Note_on_c, 0, 81, 36
6, 510119, Note_on_c, 0, 86, 0
6, 510119, Note_on_c, 0, 81, 0
6, 511200, Note_on_c, 0, 86, 32
6, 511200, Note_on_c, 0, 81, 32
6, 511304, Note_on_c, 0, 86, 0
6, 511304, Note_on_c, 0, 81, 0
6, 511320, Note_on_c, 0, 88, 32
6, 511320, Note_on_c, 0, 81, 32
6, 511424, Note_on_c, 0, 88, 0
6, 511424, Note_on_c, 0, 81, 0
6, 511440, Note_on_c, 0, 81, 32
6, 511440, Note_on_c, 0, 89, 32
6, 511544, Note_on_c, 0, 81, 0
6, 511544, Note_on_c, 0, 89, 0
6, 511560, Note_on_c, 0, 89, 32
6, 511560, Note_on_c, 0, 81, 32
6, 511664, Note_on_c, 0, 89, 0
6, 511664, Note_on_c, 0, 81, 0
6, 511680, Note_on_c, 0, 88, 32
6, 511680, Note_on_c, 0, 81, 32
6, 511784, Note_on_c, 0, 88, 0
6, 511784, Note_on_c, 0, 81, 0
6, 511800, Note_on_c, 0, 81, 32
6, 511800, Note_on_c, 0, 86, 32
6, 511904, Note_on_c, 0, 81, 0
6, 511904, Note_on_c, 0, 86, 0
6, 511920, Note_on_c, 0, 86, 32
6, 511920, Note_on_c, 0, 81, 32
6, 512024, Note_on_c, 0, 86, 0
6, 512024, Note_on_c, 0, 81, 0
6, 512040, Note_on_c, 0, 81, 32
6, 512040, Note_on_c, 0, 88, 32
6, 512144, Note_on_c, 0, 81, 0
6, 512144, Note_on_c, 0, 88, 0
6, 512160, Note_on_c, 0, 81, 32
6, 512160, Note_on_c, 0, 86, 32
6, 512279, Note_on_c, 0, 81, 0
6, 512279, Note_on_c, 0, 86, 0
6, 514560, Note_on_c, 0, 81, 32
6, 514664, Note_on_c, 0, 81, 0
6, 514680, Note_on_c, 0, 81, 32
6, 514784, Note_on_c, 0, 81, 0
6, 514800, Note_on_c, 0, 81, 32
6, 514904, Note_on_c, 0, 81, 0
6, 514920, Note_on_c, 0, 81, 32
6, 515024, Note_on_c, 0, 81, 0
6, 515040, Note_on_c, 0, 81, 32
6, 515144, Note_on_c, 0, 81, 0
6, 515160, Note_on_c, 0, 81, 32
6, 515264, Note_on_c, 0, 81, 0
6, 515280, Note_on_c, 0, 81, 32
6, 515384, Note_on_c, 0, 81, 0
6, 515400, Note_on_c, 0, 81, 32
6, 515504, Note_on_c, 0, 81, 0
6, 515520, Note_on_c, 0, 93, 32
6, 515684, Note_on_c, 0, 93, 0
6, 515700, Note_on_c, 0, 81, 32
6, 515744, Note_on_c, 0, 81, 0
6, 515760, Note_on_c, 0, 81, 32
6, 515864, Note_on_c, 0, 81, 0
6, 515880, Note_on_c, 0, 86, 32
6, 515984, Note_on_c, 0, 86, 0
6, 516000, Note_on_c, 0, 88, 32
6, 516104, Note_on_c, 0, 88, 0
6, 516120, Note_on_c, 0, 89, 32
6, 516224, Note_on_c, 0, 89, 0
6, 516240, Note_on_c, 0, 88, 32
6, 516344, Note_on_c, 0, 88, 0
6, 516360, Note_on_c, 0, 89, 32
6, 516464, Note_on_c, 0, 89, 0
6, 516480, Note_on_c, 0, 91, 32
6, 516584, Note_on_c, 0, 91, 0
6, 516600, Note_on_c, 0, 89, 32
6, 516704, Note_on_c, 0, 89, 0
6, 516720, Note_on_c, 0, 93, 32
6, 516824, Note_on_c, 0, 93, 0
6, 516840, Note_on_c, 0, 93, 32
6, 516944, Note_on_c, 0, 93, 0
6, 516960, Note_on_c, 0, 93, 32
6, 517064, Note_on_c, 0, 93, 0
6, 517080, Note_on_c, 0, 91, 32
6, 517184, Note_on_c, 0, 91, 0
6, 517200, Note_on_c, 0, 89, 32
6, 517304, Note_on_c, 0, 89, 0
6, 517320, Note_on_c, 0, 91, 32
6, 517424, Note_on_c, 0, 91, 0
6, 517440, Note_on_c, 0, 89, 32
6, 517544, Note_on_c, 0, 89, 0
6, 517560, Note_on_c, 0, 88, 32
6, 517664, Note_on_c, 0, 88, 0
6, 517680, Note_on_c, 0, 86, 32
6, 517784, Note_on_c, 0, 86, 0
6, 517800, Note_on_c, 0, 85, 32
6, 517904, Note_on_c, 0, 85, 0
6, 517920, Note_on_c, 0, 86, 32
6, 518024, Note_on_c, 0, 86, 0
6, 518040, Note_on_c, 0, 86, 32
6, 518144, Note_on_c, 0, 86, 0
6, 518160, Note_on_c, 0, 91, 32
6, 518264, Note_on_c, 0, 91, 0
6, 518280, Note_on_c, 0, 91, 32
6, 518384, Note_on_c, 0, 91, 0
6, 518400, Note_on_c, 0, 91, 32
6, 518504, Note_on_c, 0, 91, 0
6, 518520, Note_on_c, 0, 91, 32
6, 518624, Note_on_c, 0, 91, 0
6, 518640, Note_on_c, 0, 91, 32
6, 518744, Note_on_c, 0, 91, 0
6, 518760, Note_on_c, 0, 91, 32
6, 518864, Note_on_c, 0, 91, 0
6, 518880, Note_on_c, 0, 91, 32
6, 518984, Note_on_c, 0, 91, 0
6, 519000, Note_on_c, 0, 91, 32
6, 519104, Note_on_c, 0, 91, 0
6, 519120, Note_on_c, 0, 91, 32
6, 519224, Note_on_c, 0, 91, 0
6, 519240, Note_on_c, 0, 91, 32
6, 519344, Note_on_c, 0, 91, 0
6, 519360, Note_on_c, 0, 91, 32
6, 519464, Note_on_c, 0, 91, 0
6, 519480, Note_on_c, 0, 86, 32
6, 519584, Note_on_c, 0, 86, 0
6, 519600, Note_on_c, 0, 82, 32
6, 519704, Note_on_c, 0, 82, 0
6, 519720, Note_on_c, 0, 82, 32
6, 519824, Note_on_c, 0, 82, 0
6, 519840, Note_on_c, 0, 82, 32
6, 519944, Note_on_c, 0, 82, 0
6, 519960, Note_on_c, 0, 86, 32
6, 520064, Note_on_c, 0, 86, 0
6, 520080, Note_on_c, 0, 87, 32
6, 520184, Note_on_c, 0, 87, 0
6, 520200, Note_on_c, 0, 86, 32
6, 520304, Note_on_c, 0, 86, 0
6, 520320, Note_on_c, 0, 87, 32
6, 520424, Note_on_c, 0, 87, 0
6, 520440, Note_on_c, 0, 89, 32
6, 520544, Note_on_c, 0, 89, 0
6, 520560, Note_on_c, 0, 87, 32
6, 520664, Note_on_c, 0, 87, 0
6, 520680, Note_on_c, 0, 86, 32
6, 520784, Note_on_c, 0, 86, 0
6, 520800, Note_on_c, 0, 87, 32
6, 520904, Note_on_c, 0, 87, 0
6, 520920, Note_on_c, 0, 89, 32
6, 521024, Note_on_c, 0, 89, 0
6, 521040, Note_on_c, 0, 91, 32
6, 521144, Note_on_c, 0, 91, 0
6, 521160, Note_on_c, 0, 92, 32
6, 521264, Note_on_c, 0, 92, 0
6, 521280, Note_on_c, 0, 91, 32
6, 521384, Note_on_c, 0, 91, 0
6, 521400, Note_on_c, 0, 89, 32
6, 521504, Note_on_c, 0, 89, 0
6, 521520, Note_on_c, 0, 87, 32
6, 521624, Note_on_c, 0, 87, 0
6, 521640, Note_on_c, 0, 86, 32
6, 521640, Note_on_c, 0, 92, 32
6, 521759, Note_on_c, 0, 86, 0
6, 521759, Note_on_c, 0, 92, 0
6, 523080, Note_on_c, 0, 91, 32
6, 523080, Note_on_c, 0, 87, 32
6, 523199, Note_on_c, 0, 91, 0
6, 523199, Note_on_c, 0, 87, 0
6, 523440, Note_on_c, 0, 87, 32
6, 523440, Note_on_c, 0, 91, 32
6, 523559, Note_on_c, 0, 87, 0
6, 523559, Note_on_c, 0, 91, 0
6, 523800, Note_on_c, 0, 91, 32
6, 523800, Note_on_c, 0, 87, 32
6, 523919, Note_on_c, 0, 91, 0
6, 523919, Note_on_c, 0, 87, 0
6, 524160, Note_on_c, 0, 91, 32
6, 524160, Note_on_c, 0, 87, 32
6, 524279, Note_on_c, 0, 91, 0
6, 524279, Note_on_c, 0, 87, 0
6, 524520, Note_on_c, 0, 92, 32
6, 524520, Note_on_c, 0, 89, 32
6, 524639, Note_on_c, 0, 92, 0
6, 524639, Note_on_c, 0, 89, 0
6, 525960, Note_on_c, 0, 93, 44
6, 525960, Note_on_c, 0, 89, 44
6, 526079, Note_on_c, 0, 93, 0
6, 526079, Note_on_c, 0, 89, 0
6, 526680, Note_on_c, 0, 86, 62
6, 526680, Note_on_c, 0, 81, 62
6, 526799, Note_on_c, 0, 86, 0
6, 526799, Note_on_c, 0, 81, 0
6, 527400, Note_on_c, 0, 86, 80
6, 527400, Note_on_c, 0, 89, 80
6, 527519, Note_on_c, 0, 86, 0
6, 527519, Note_on_c, 0, 89, 0
6, 528120, Note_on_c, 0, 93, 86
6, 528120, Note_on_c, 0, 89, 86
6, 528239, Note_on_c, 0, 93, 0
6, 528239, Note_on_c, 0, 89, 0
6, 528840, Note_on_c, 0, 93, 92
6, 528840, Note_on_c, 0, 81, 92
6, 529004, Note_on_c, 0, 93, 0
6, 529004, Note_on_c, 0, 81, 0
6, 529020, Note_on_c, 0, 81, 92
6, 529020, Note_on_c, 0, 69, 92
6, 529064, Note_on_c, 0, 81, 0
6, 529064, Note_on_c, 0, 69, 0
6, 529080, Note_on_c, 0, 69, 92
6, 529080, Note_on_c, 0, 81, 92
6, 529184, Note_on_c, 0, 69, 0
6, 529184, Note_on_c, 0, 81, 0
6, 529200, Note_on_c, 0, 93, 92
6, 529200, Note_on_c, 0, 81, 92
6, 529364, Note_on_c, 0, 93, 0
6, 529364, Note_on_c, 0, 81, 0
6, 529380, Note_on_c, 0, 69, 92
6, 529380, Note_on_c, 0, 81, 92
6, 529424, Note_on_c, 0, 69, 0
6, 529424, Note_on_c, 0, 81, 0
6, 529440, Note_on_c, 0, 69, 92
6, 529440, Note_on_c, 0, 81, 92
6, 529544, Note_on_c, 0, 69, 0
6, 529544, Note_on_c, 0, 81, 0
6, 529560, Note_on_c, 0, 93, 92
6, 529560, Note_on_c, 0, 81, 92
6, 529724, Note_on_c, 0, 93, 0
6, 529724, Note_on_c, 0, 81, 0
6, 529740, Note_on_c, 0, 69, 92
6, 529740, Note_on_c, 0, 81, 92
6, 529784, Note_on_c, 0, 69, 0
6, 529784, Note_on_c, 0, 81, 0
6, 529800, Note_on_c, 0, 81, 92
6, 529800, Note_on_c, 0, 69, 92
6, 529904, Note_on_c, 0, 81, 0
6, 529904, Note_on_c, 0, 69, 0
6, 529920, Note_on_c, 0, 93, 92
6, 529920, Note_on_c, 0, 81, 92
6, 530084, Note_on_c, 0, 93, 0
6, 530084, Note_on_c, 0, 81, 0
6, 530100, Note_on_c, 0, 69, 92
6, 530100, Note_on_c, 0, 81, 92
6, 530144, Note_on_c, 0, 69, 0
6, 530144, Note_on_c, 0, 81, 0
6, 530160, Note_on_c, 0, 81, 92
6, 530160, Note_on_c, 0, 69, 92
6, 530264, Note_on_c, 0, 81, 0
6, 530264, Note_on_c, 0, 69, 0
6, 530280, Note_on_c, 0, 81, 92
6, 530280, Note_on_c, 0, 93, 92
6, 530444, Note_on_c, 0, 81, 0
6, 530444, Note_on_c, 0, 93, 0
6, 530460, Note_on_c, 0, 81, 92
6, 530460, Note_on_c, 0, 69, 92
6, 530504, Note_on_c, 0, 81, 0
6, 530504, Note_on_c, 0, 69, 0
6, 530520, Note_on_c, 0, 69, 92
6, 530520, Note_on_c, 0, 81, 92
6, 530624, Note_on_c, 0, 69, 0
6, 530624, Note_on_c, 0, 81, 0
6, 530640, Note_on_c, 0, 86, 92
6, 530640, Note_on_c, 0, 74, 92
6, 530729, Note_on_c, 0, 86, 0
6, 530729, Note_on_c, 0, 74, 0
6, 530760, Note_on_c, 0, 76, 92
6, 530760, Note_on_c, 0, 88, 92
6, 530849, Note_on_c, 0, 76, 0
6, 530849, Note_on_c, 0, 88, 0
6, 530880, Note_on_c, 0, 77, 92
6, 530880, Note_on_c, 0, 89, 92
6, 530969, Note_on_c, 0, 77, 0
6, 530969, Note_on_c, 0, 89, 0
6, 531000, Note_on_c, 0, 88, 92
6, 531000, Note_on_c, 0, 76, 92
6, 531089, Note_on_c, 0, 88, 0
6, 531089, Note_on_c, 0, 76, 0
6, 531120, Note_on_c, 0, 77, 92
6, 531120, Note_on_c, 0, 89, 92
6, 531209, Note_on_c, 0, 77, 0
6, 531209, Note_on_c, 0, 89, 0
6, 531240, Note_on_c, 0, 79, 92
6, 531240, Note_on_c, 0, 91, 92
6, 531329, Note_on_c, 0, 79, 0
6, 531329, Note_on_c, 0, 91, 0
6, 531360, Note_on_c, 0, 77, 92
6, 531360, Note_on_c, 0, 89, 92
6, 531449, Note_on_c, 0, 77, 0
6, 531449, Note_on_c, 0, 89, 0
6, 531480, Note_on_c, 0, 88, 92
6, 531480, Note_on_c, 0, 76, 92
6, 531569, Note_on_c, 0, 88, 0
6, 531569, Note_on_c, 0, 76, 0
6, 531600, Note_on_c, 0, 86, 92
6, 531600, Note_on_c, 0, 74, 92
6, 531689, Note_on_c, 0, 86, 0
6, 531689, Note_on_c, 0, 74, 0
6, 531720, Note_on_c, 0, 82, 92
6, 531809, Note_on_c, 0, 82, 0
6, 531840, Note_on_c, 0, 93, 92
6, 531840, Note_on_c, 0, 81, 92
6, 531929, Note_on_c, 0, 93, 0
6, 531929, Note_on_c, 0, 81, 0
6, 531960, Note_on_c, 0, 79, 92
6, 531960, Note_on_c, 0, 91, 92
6, 532049, Note_on_c, 0, 79, 0
6, 532049, Note_on_c, 0, 91, 0
6, 532080, Note_on_c, 0, 89, 92
6, 532080, Note_on_c, 0, 77, 92
6, 532169, Note_on_c, 0, 89, 0
6, 532169, Note_on_c, 0, 77, 0
6, 532200, Note_on_c, 0, 88, 92
6, 532200, Note_on_c, 0, 76, 92
6, 532289, Note_on_c, 0, 88, 0
6, 532289, Note_on_c, 0, 76, 0
6, 532320, Note_on_c, 0, 74, 92
6, 532320, Note_on_c, 0, 86, 92
6, 532409, Note_on_c, 0, 74, 0
6, 532409, Note_on_c, 0, 86, 0
6, 532440, Note_on_c, 0, 73, 92
6, 532440, Note_on_c, 0, 85, 92
6, 532529, Note_on_c, 0, 73, 0
6, 532529, Note_on_c, 0, 85, 0
6, 532560, Note_on_c, 0, 86, 92
6, 532560, Note_on_c, 0, 74, 92
6, 532649, Note_on_c, 0, 86, 0
6, 532649, Note_on_c, 0, 74, 0
6, 532680, Note_on_c, 0, 76, 92
6, 532680, Note_on_c, 0, 88, 92
6, 532769, Note_on_c, 0, 76, 0
6, 532769, Note_on_c, 0, 88, 0
6, 532800, Note_on_c, 0, 74, 92
6, 532800, Note_on_c, 0, 86, 92
6, 532889, Note_on_c, 0, 74, 0
6, 532889, Note_on_c, 0, 86, 0
6, 532920, Note_on_c, 0, 73, 92
6, 532920, Note_on_c, 0, 85, 92
6, 533009, Note_on_c, 0, 73, 0
6, 533009, Note_on_c, 0, 85, 0
6, 533040, Note_on_c, 0, 74, 92
6, 533040, Note_on_c, 0, 86, 92
6, 533129, Note_on_c, 0, 74, 0
6, 533129, Note_on_c, 0, 86, 0
6, 533160, Note_on_c, 0, 82, 92
6, 533249, Note_on_c, 0, 82, 0
6, 533280, Note_on_c, 0, 81, 92
6, 533280, Note_on_c, 0, 93, 92
6, 533369, Note_on_c, 0, 81, 0
6, 533369, Note_on_c, 0, 93, 0
6, 533400, Note_on_c, 0, 79, 92
6, 533400, Note_on_c, 0, 91, 92
6, 533489, Note_on_c, 0, 79, 0
6, 533489, Note_on_c, 0, 91, 0
6, 533520, Note_on_c, 0, 77, 92
6, 533520, Note_on_c, 0, 89, 92
6, 533609, Note_on_c, 0, 77, 0
6, 533609, Note_on_c, 0, 89, 0
6, 533640, Note_on_c, 0, 76, 92
6, 533640, Note_on_c, 0, 88, 92
6, 533729, Note_on_c, 0, 76, 0
6, 533729, Note_on_c, 0, 88, 0
6, 533760, Note_on_c, 0, 74, 92
6, 533760, Note_on_c, 0, 86, 92
6, 533849, Note_on_c, 0, 74, 0
6, 533849, Note_on_c, 0, 86, 0
6, 533880, Note_on_c, 0, 85, 92
6, 533880, Note_on_c, 0, 73, 92
6, 533969, Note_on_c, 0, 85, 0
6, 533969, Note_on_c, 0, 73, 0
6, 534000, Note_on_c, 0, 86, 92
6, 534000, Note_on_c, 0, 74, 92
6, 534089, Note_on_c, 0, 86, 0
6, 534089, Note_on_c, 0, 74, 0
6, 534120, Note_on_c, 0, 76, 92
6, 534120, Note_on_c, 0, 88, 92
6, 534209, Note_on_c, 0, 76, 0
6, 534209, Note_on_c, 0, 88, 0
6, 534240, Note_on_c, 0, 74, 92
6, 534240, Note_on_c, 0, 86, 92
6, 534329, Note_on_c, 0, 74, 0
6, 534329, Note_on_c, 0, 86, 0
6, 534360, Note_on_c, 0, 85, 92
6, 534360, Note_on_c, 0, 73, 92
6, 534449, Note_on_c, 0, 85, 0
6, 534449, Note_on_c, 0, 73, 0
6, 534480, Note_on_c, 0, 86, 92
6, 534480, Note_on_c, 0, 74, 92
6, 534569, Note_on_c, 0, 86, 0
6, 534569, Note_on_c, 0, 74, 0
6, 534600, Note_on_c, 0, 84, 92
6, 534689, Note_on_c, 0, 84, 0
6, 534720, Note_on_c, 0, 86, 92
6, 534809, Note_on_c, 0, 86, 0
6, 534840, Note_on_c, 0, 87, 92
6, 534929, Note_on_c, 0, 87, 0
6, 534960, Note_on_c, 0, 91, 92
6, 534960, Note_on_c, 0, 79, 92
6, 535049, Note_on_c, 0, 91, 0
6, 535049, Note_on_c, 0, 79, 0
6, 535080, Note_on_c, 0, 81, 92
6, 535080, Note_on_c, 0, 93, 92
6, 535169, Note_on_c, 0, 81, 0
6, 535169, Note_on_c, 0, 93, 0
6, 535200, Note_on_c, 0, 82, 92
6, 535289, Note_on_c, 0, 82, 0
6, 535320, Note_on_c, 0, 81, 92
6, 535409, Note_on_c, 0, 81, 0
6, 535440, Note_on_c, 0, 82, 92
6, 535529, Note_on_c, 0, 82, 0
6, 535560, Note_on_c, 0, 84, 92
6, 535649, Note_on_c, 0, 84, 0
6, 535680, Note_on_c, 0, 82, 92
6, 535769, Note_on_c, 0, 82, 0
6, 535800, Note_on_c, 0, 81, 92
6, 535889, Note_on_c, 0, 81, 0
6, 535920, Note_on_c, 0, 79, 92
6, 536009, Note_on_c, 0, 79, 0
6, 536040, Note_on_c, 0, 87, 80
6, 536129, Note_on_c, 0, 87, 0
6, 536160, Note_on_c, 0, 86, 80
6, 536249, Note_on_c, 0, 86, 0
6, 536280, Note_on_c, 0, 84, 80
6, 536369, Note_on_c, 0, 84, 0
6, 536400, Note_on_c, 0, 82, 80
6, 536489, Note_on_c, 0, 82, 0
6, 536520, Note_on_c, 0, 81, 80
6, 536609, Note_on_c, 0, 81, 0
6, 536640, Note_on_c, 0, 79, 80
6, 536729, Note_on_c, 0, 79, 0
6, 536760, Note_on_c, 0, 89, 80
6, 536849, Note_on_c, 0, 89, 0
6, 536880, Note_on_c, 0, 87, 80
6, 536969, Note_on_c, 0, 87, 0
6, 537000, Note_on_c, 0, 86, 80
6, 537089, Note_on_c, 0, 86, 0
6, 537120, Note_on_c, 0, 84, 80
6, 537209, Note_on_c, 0, 84, 0
6, 537240, Note_on_c, 0, 82, 80
6, 537329, Note_on_c, 0, 82, 0
6, 537360, Note_on_c, 0, 81, 80
6, 537449, Note_on_c, 0, 81, 0
6, 537480, Note_on_c, 0, 69, 80
6, 537569, Note_on_c, 0, 69, 0
6, 537600, Note_on_c, 0, 70, 80
6, 537689, Note_on_c, 0, 70, 0
6, 537720, Note_on_c, 0, 72, 80
6, 537809, Note_on_c, 0, 72, 0
6, 537840, Note_on_c, 0, 74, 80
6, 537929, Note_on_c, 0, 74, 0
6, 537960, Note_on_c, 0, 75, 80
6, 538049, Note_on_c, 0, 75, 0
6, 538080, Note_on_c, 0, 77, 80
6, 538169, Note_on_c, 0, 77, 0
6, 538200, Note_on_c, 0, 79, 80
6, 538289, Note_on_c, 0, 79, 0
6, 538320, Note_on_c, 0, 81, 80
6, 538409, Note_on_c, 0, 81, 0
6, 538440, Note_on_c, 0, 82, 80
6, 538529, Note_on_c, 0, 82, 0
6, 538560, Note_on_c, 0, 84, 80
6, 538649, Note_on_c, 0, 84, 0
6, 538680, Note_on_c, 0, 86, 80
6, 538769, Note_on_c, 0, 86, 0
6, 538800, Note_on_c, 0, 87, 80
6, 538889, Note_on_c, 0, 87, 0
6, 538920, Note_on_c, 0, 89, 80
6, 538920, Note_on_c, 0, 77, 80
6, 538980, Control_c, 0, 11, 67
6, 539039, Note_on_c, 0, 77, 0
6, 539640, Control_c, 0, 11, 67
6, 539676, Control_c, 0, 11, 68
6, 539712, Control_c, 0, 11, 69
6, 539748, Control_c, 0, 11, 70
6, 539784, Control_c, 0, 11, 71
6, 539820, Control_c, 0, 11, 72
6, 539856, Control_c, 0, 11, 73
6, 539892, Control_c, 0, 11, 74
6, 539928, Control_c, 0, 11, 75
6, 539964, Control_c, 0, 11, 76
6, 539999, Note_on_c, 0, 89, 0
6, 540000, Control_c, 0, 11, 77
6, 540000, Note_on_c, 0, 87, 80
6, 540036, Control_c, 0, 11, 78
6, 540072, Control_c, 0, 11, 79
6, 540108, Control_c, 0, 11, 80
6, 540144, Control_c, 0, 11, 81
6, 540180, Control_c, 0, 11, 82
6, 540216, Control_c, 0, 11, 83
6, 540252, Control_c, 0, 11, 84
6, 540288, Control_c, 0, 11, 85
6, 540324, Control_c, 0, 11, 86
6, 540360, Control_c, 0, 11, 87
6, 540396, Control_c, 0, 11, 88
6, 540432, Control_c, 0, 11, 89
6, 540468, Control_c, 0, 11, 90
6, 540504, Control_c, 0, 11, 91
6, 540540, Control_c, 0, 11, 92
6, 540576, Control_c, 0, 11, 93
6, 540612, Control_c, 0, 11, 94
6, 540648, Control_c, 0, 11, 95
6, 540684, Control_c, 0, 11, 96
6, 540719, Note_on_c, 0, 87, 0
6, 540720, Note_on_c, 0, 86, 80
6, 540720, Control_c, 0, 11, 97
6, 540756, Control_c, 0, 11, 98
6, 540792, Control_c, 0, 11, 99
6, 540828, Control_c, 0, 11, 100
6, 540864, Control_c, 0, 11, 101
6, 540900, Control_c, 0, 11, 102
6, 540936, Control_c, 0, 11, 103
6, 540972, Control_c, 0, 11, 104
6, 541008, Control_c, 0, 11, 105
6, 541044, Control_c, 0, 11, 106
6, 541079, Note_on_c, 0, 86, 0
6, 541080, Control_c, 0, 11, 107
6, 541080, Note_on_c, 0, 85, 80
6, 541110, Control_c, 0, 11, 105
6, 541140, Control_c, 0, 11, 104
6, 541170, Control_c, 0, 11, 102
6, 541200, Control_c, 0, 11, 100
6, 541230, Control_c, 0, 11, 99
6, 541260, Control_c, 0, 11, 97
6, 541290, Control_c, 0, 11, 95
6, 541320, Control_c, 0, 11, 94
6, 541350, Control_c, 0, 11, 92
6, 541380, Control_c, 0, 11, 90
6, 541410, Control_c, 0, 11, 89
6, 541439, Note_on_c, 0, 85, 0
6, 541440, Control_c, 0, 11, 87
6, 541440, Note_on_c, 0, 84, 80
6, 541470, Control_c, 0, 11, 85
6, 541500, Control_c, 0, 11, 84
6, 541530, Control_c, 0, 11, 82
6, 541560, Control_c, 0, 11, 80
6, 541590, Control_c, 0, 11, 79
6, 541620, Control_c, 0, 11, 77
6, 541650, Control_c, 0, 11, 75
6, 541680, Control_c, 0, 11, 74
6, 541710, Control_c, 0, 11, 72
6, 541740, Control_c, 0, 11, 70
6, 541770, Control_c, 0, 11, 67
6, 541799, Note_on_c, 0, 84, 0
6, 541800, Note_on_c, 0, 82, 80
6, 541919, Note_on_c, 0, 82, 0
6, 543240, Control_c, 0, 11, 87
6, 543270, Control_c, 0, 11, 88
6, 543300, Control_c, 0, 11, 89
6, 543330, Control_c, 0, 11, 90
6, 543360, Control_c, 0, 11, 91
6, 543390, Control_c, 0, 11, 93
6, 543420, Control_c, 0, 11, 94
6, 543450, Control_c, 0, 11, 95
6, 543480, Control_c, 0, 11, 96
6, 543510, Control_c, 0, 11, 97
6, 543540, Control_c, 0, 11, 98
6, 543570, Control_c, 0, 11, 99
6, 543600, Note_on_c, 0, 88, 68
6, 543600, Control_c, 0, 11, 100
6, 543630, Control_c, 0, 11, 101
6, 543660, Control_c, 0, 11, 103
6, 543690, Control_c, 0, 11, 104
6, 543720, Control_c, 0, 11, 105
6, 543750, Control_c, 0, 11, 106
6, 543780, Control_c, 0, 11, 107
6, 543810, Control_c, 0, 11, 108
6, 543840, Control_c, 0, 11, 109
6, 543870, Control_c, 0, 11, 110
6, 543900, Control_c, 0, 11, 111
6, 543930, Control_c, 0, 11, 113
6, 543960, Control_c, 0, 11, 114
6, 543990, Control_c, 0, 11, 115
6, 544020, Control_c, 0, 11, 116
6, 544050, Control_c, 0, 11, 117
6, 544080, Control_c, 0, 11, 118
6, 544110, Control_c, 0, 11, 119
6, 544140, Control_c, 0, 11, 120
6, 544170, Control_c, 0, 11, 121
6, 544200, Control_c, 0, 11, 123
6, 544230, Control_c, 0, 11, 124
6, 544260, Control_c, 0, 11, 125
6, 544290, Control_c, 0, 11, 126
6, 544319, Note_on_c, 0, 88, 0
6, 544320, Note_on_c, 0, 86, 68
6, 544320, Control_c, 0, 11, 127
6, 544350, Control_c, 0, 11, 126
6, 544380, Control_c, 0, 11, 125
6, 544410, Control_c, 0, 11, 124
6, 544440, Control_c, 0, 11, 123
6, 544470, Control_c, 0, 11, 121
6, 544500, Control_c, 0, 11, 120
6, 544530, Control_c, 0, 11, 119
6, 544560, Control_c, 0, 11, 118
6, 544590, Control_c, 0, 11, 117
6, 544620, Control_c, 0, 11, 116
6, 544650, Control_c, 0, 11, 115
6, 544680, Control_c, 0, 11, 114
6, 544710, Control_c, 0, 11, 113
6, 544740, Control_c, 0, 11, 111
6, 544770, Control_c, 0, 11, 110
6, 544800, Control_c, 0, 11, 109
6, 544830, Control_c, 0, 11, 108
6, 544860, Control_c, 0, 11, 107
6, 544890, Control_c, 0, 11, 106
6, 544920, Control_c, 0, 11, 105
6, 544950, Control_c, 0, 11, 104
6, 544980, Control_c, 0, 11, 103
6, 545010, Control_c, 0, 11, 101
6, 545039, Note_on_c, 0, 86, 0
6, 545040, Control_c, 0, 11, 100
6, 545040, Note_on_c, 0, 85, 68
6, 545070, Control_c, 0, 11, 99
6, 545100, Control_c, 0, 11, 98
6, 545130, Control_c, 0, 11, 97
6, 545160, Control_c, 0, 11, 96
6, 545190, Control_c, 0, 11, 95
6, 545220, Control_c, 0, 11, 94
6, 545250, Control_c, 0, 11, 93
6, 545280, Control_c, 0, 11, 91
6, 545310, Control_c, 0, 11, 90
6, 545340, Control_c, 0, 11, 89
6, 545370, Control_c, 0, 11, 88
6, 545399, Note_on_c, 0, 85, 0
6, 548604, Control_c, 0, 11, 56
6, 548640, Note_on_c, 0, 90, 92
6, 548640, Control_c, 0, 11, 57
6, 548676, Control_c, 0, 11, 58
6, 548712, Control_c, 0, 11, 59
6, 548748, Control_c, 0, 11, 60
6, 548784, Control_c, 0, 11, 61
6, 548820, Control_c, 0, 11, 62
6, 548856, Control_c, 0, 11, 63
6, 548892, Control_c, 0, 11, 64
6, 548928, Control_c, 0, 11, 65
6, 548964, Control_c, 0, 11, 66
6, 549000, Control_c, 0, 11, 67
6, 549000, Note_on_c, 0, 87, 92
6, 549036, Control_c, 0, 11, 68
6, 549072, Control_c, 0, 11, 69
6, 549108, Control_c, 0, 11, 70
6, 549144, Control_c, 0, 11, 71
6, 549180, Control_c, 0, 11, 72
6, 549216, Control_c, 0, 11, 73
6, 549252, Control_c, 0, 11, 74
6, 549288, Control_c, 0, 11, 75
6, 549324, Control_c, 0, 11, 76
6, 549359, Note_on_c, 0, 90, 0
6, 549359, Note_on_c, 0, 87, 0
6, 549360, Control_c, 0, 11, 77
6, 549360, Note_on_c, 0, 88, 92
6, 549360, Note_on_c, 0, 91, 92
6, 549396, Control_c, 0, 11, 78
6, 549432, Control_c, 0, 11, 79
6, 549468, Control_c, 0, 11, 80
6, 549504, Control_c, 0, 11, 81
6, 549540, Control_c, 0, 11, 82
6, 549576, Control_c, 0, 11, 83
6, 549612, Control_c, 0, 11, 84
6, 549648, Control_c, 0, 11, 85
6, 549684, Control_c, 0, 11, 86
6, 549719, Note_on_c, 0, 88, 0
6, 549719, Note_on_c, 0, 91, 0
6, 549720, Note_on_c, 0, 88, 92
6, 549720, Control_c, 0, 11, 87
6, 549720, Note_on_c, 0, 85, 92
6, 549756, Control_c, 0, 11, 88
6, 549792, Control_c, 0, 11, 89
6, 549828, Control_c, 0, 11, 90
6, 549864, Control_c, 0, 11, 91
6, 549900, Control_c, 0, 11, 92
6, 549936, Control_c, 0, 11, 93
6, 549972, Control_c, 0, 11, 94
6, 550008, Control_c, 0, 11, 95
6, 550044, Control_c, 0, 11, 96
6, 550079, Note_on_c, 0, 88, 0
6, 550079, Note_on_c, 0, 85, 0
6, 550080, Note_on_c, 0, 90, 92
6, 550080, Note_on_c, 0, 86, 92
6, 550080, Control_c, 0, 11, 97
6, 550116, Control_c, 0, 11, 98
6, 550152, Control_c, 0, 11, 99
6, 550188, Control_c, 0, 11, 100
6, 550224, Control_c, 0, 11, 101
6, 550260, Control_c, 0, 11, 102
6, 550296, Control_c, 0, 11, 103
6, 550332, Control_c, 0, 11, 104
6, 550368, Control_c, 0, 11, 105
6, 550404, Control_c, 0, 11, 106
6, 550439, Note_on_c, 0, 90, 0
6, 550440, Control_c, 0, 11, 107
6, 550440, Note_on_c, 0, 93, 92
6, 550476, Control_c, 0, 11, 108
6, 550512, Control_c, 0, 11, 109
6, 550548, Control_c, 0, 11, 110
6, 550584, Control_c, 0, 11, 111
6, 550620, Control_c, 0, 11, 112
6, 550656, Control_c, 0, 11, 113
6, 550692, Control_c, 0, 11, 114
6, 550728, Control_c, 0, 11, 115
6, 550764, Control_c, 0, 11, 116
6, 550799, Note_on_c, 0, 86, 0
6, 550800, Note_on_c, 0, 85, 92
6, 550800, Control_c, 0, 11, 117
6, 550836, Control_c, 0, 11, 118
6, 550872, Control_c, 0, 11, 119
6, 550908, Control_c, 0, 11, 120
6, 550944, Control_c, 0, 11, 121
6, 550980, Control_c, 0, 11, 122
6, 551016, Control_c, 0, 11, 123
6, 551024, Note_on_c, 0, 93, 0
6, 551024, Note_on_c, 0, 85, 0
6, 551040, Note_on_c, 0, 85, 92
6, 551052, Control_c, 0, 11, 124
6, 551088, Control_c, 0, 11, 125
6, 551124, Control_c, 0, 11, 127
6, 551144, Note_on_c, 0, 85, 0
6, 551160, Note_on_c, 0, 86, 92
6, 551399, Note_on_c, 0, 86, 0
6, 551400, Note_on_c, 0, 88, 92
6, 551459, Note_on_c, 0, 88, 0
6, 551460, Note_on_c, 0, 90, 92
6, 551504, Note_on_c, 0, 90, 0
6, 551520, Note_on_c, 0, 91, 92
6, 551609, Note_on_c, 0, 91, 0
6, 551760, Note_on_c, 0, 90, 92
6, 551849, Note_on_c, 0, 90, 0
6, 551880, Note_on_c, 0, 88, 92
6, 551969, Note_on_c, 0, 88, 0
6, 552120, Note_on_c, 0, 86, 92
6, 552209, Note_on_c, 0, 86, 0
6, 552240, Note_on_c, 0, 88, 92
6, 552329, Note_on_c, 0, 88, 0
6, 552480, Note_on_c, 0, 85, 92
6, 552569, Note_on_c, 0, 85, 0
6, 552600, Note_on_c, 0, 90, 92
6, 552600, Note_on_c, 0, 86, 92
6, 552839, Note_on_c, 0, 90, 0
6, 552839, Note_on_c, 0, 86, 0
6, 552840, Note_on_c, 0, 91, 92
6, 552840, Note_on_c, 0, 88, 92
6, 552899, Note_on_c, 0, 91, 0
6, 552899, Note_on_c, 0, 88, 0
6, 552900, Note_on_c, 0, 93, 92
6, 552900, Note_on_c, 0, 90, 92
6, 552944, Note_on_c, 0, 93, 0
6, 552944, Note_on_c, 0, 90, 0
6, 552960, Note_on_c, 0, 83, 92
6, 553049, Note_on_c, 0, 83, 0
6, 553200, Note_on_c, 0, 93, 92
6, 553200, Note_on_c, 0, 90, 92
6, 553289, Note_on_c, 0, 93, 0
6, 553289, Note_on_c, 0, 90, 0
6, 553320, Note_on_c, 0, 88, 92
6, 553320, Note_on_c, 0, 91, 92
6, 553409, Note_on_c, 0, 88, 0
6, 553409, Note_on_c, 0, 91, 0
6, 553560, Note_on_c, 0, 90, 92
6, 553560, Note_on_c, 0, 86, 92
6, 553649, Note_on_c, 0, 90, 0
6, 553649, Note_on_c, 0, 86, 0
6, 553680, Note_on_c, 0, 91, 92
6, 553680, Note_on_c, 0, 88, 92
6, 553769, Note_on_c, 0, 91, 0
6, 553769, Note_on_c, 0, 88, 0
6, 553920, Note_on_c, 0, 85, 92
6, 553920, Note_on_c, 0, 88, 92
6, 554009, Note_on_c, 0, 85, 0
6, 554009, Note_on_c, 0, 88, 0
6, 554040, Note_on_c, 0, 86, 92
6, 554129, Note_on_c, 0, 86, 0
6, 554160, Note_on_c, 0, 86, 92
6, 554279, Note_on_c, 0, 86, 0
6, 554280, Note_on_c, 0, 88, 92
6, 554339, Note_on_c, 0, 88, 0
6, 554340, Note_on_c, 0, 89, 92
6, 554384, Note_on_c, 0, 89, 0
6, 554400, Note_on_c, 0, 91, 92
6, 554489, Note_on_c, 0, 91, 0
6, 554520, Note_on_c, 0, 91, 92
6, 554609, Note_on_c, 0, 91, 0
6, 554640, Note_on_c, 0, 89, 92
6, 554729, Note_on_c, 0, 89, 0
6, 554760, Note_on_c, 0, 88, 92
6, 554849, Note_on_c, 0, 88, 0
6, 554880, Note_on_c, 0, 88, 92
6, 554969, Note_on_c, 0, 88, 0
6, 555000, Note_on_c, 0, 86, 92
6, 555089, Note_on_c, 0, 86, 0
6, 555120, Note_on_c, 0, 88, 92
6, 555209, Note_on_c, 0, 88, 0
6, 555240, Note_on_c, 0, 88, 92
6, 555329, Note_on_c, 0, 88, 0
6, 555360, Note_on_c, 0, 85, 92
6, 555449, Note_on_c, 0, 85, 0
6, 555480, Note_on_c, 0, 89, 92
6, 555480, Note_on_c, 0, 86, 92
6, 555569, Note_on_c, 0, 89, 0
6, 555569, Note_on_c, 0, 86, 0
6, 555600, Note_on_c, 0, 86, 92
6, 555600, Note_on_c, 0, 89, 92
6, 555719, Note_on_c, 0, 86, 0
6, 555719, Note_on_c, 0, 89, 0
6, 555720, Note_on_c, 0, 88, 92
6, 555720, Note_on_c, 0, 91, 92
6, 555779, Note_on_c, 0, 88, 0
6, 555779, Note_on_c, 0, 91, 0
6, 555780, Note_on_c, 0, 89, 92
6, 555780, Note_on_c, 0, 93, 92
6, 555824, Note_on_c, 0, 89, 0
6, 555824, Note_on_c, 0, 93, 0
6, 555840, Note_on_c, 0, 82, 92
6, 555929, Note_on_c, 0, 82, 0
6, 555960, Note_on_c, 0, 82, 92
6, 556049, Note_on_c, 0, 82, 0
6, 556080, Note_on_c, 0, 89, 92
6, 556080, Note_on_c, 0, 93, 92
6, 556169, Note_on_c, 0, 89, 0
6, 556169, Note_on_c, 0, 93, 0
6, 556200, Note_on_c, 0, 91, 92
6, 556200, Note_on_c, 0, 88, 92
6, 556289, Note_on_c, 0, 91, 0
6, 556289, Note_on_c, 0, 88, 0
6, 556320, Note_on_c, 0, 88, 92
6, 556320, Note_on_c, 0, 91, 92
6, 556409, Note_on_c, 0, 88, 0
6, 556409, Note_on_c, 0, 91, 0
6, 556440, Note_on_c, 0, 86, 92
6, 556440, Note_on_c, 0, 89, 92
6, 556529, Note_on_c, 0, 86, 0
6, 556529, Note_on_c, 0, 89, 0
6, 556560, Note_on_c, 0, 88, 92
6, 556560, Note_on_c, 0, 91, 92
6, 556649, Note_on_c, 0, 88, 0
6, 556649, Note_on_c, 0, 91, 0
6, 556680, Note_on_c, 0, 88, 92
6, 556680, Note_on_c, 0, 91, 92
6, 556769, Note_on_c, 0, 88, 0
6, 556769, Note_on_c, 0, 91, 0
6, 556800, Note_on_c, 0, 88, 92
6, 556800, Note_on_c, 0, 85, 92
6, 556889, Note_on_c, 0, 88, 0
6, 556889, Note_on_c, 0, 85, 0
6, 556920, Note_on_c, 0, 89, 92
6, 557084, Note_on_c, 0, 89, 0
6, 557100, Note_on_c, 0, 77, 92
6, 557144, Note_on_c, 0, 77, 0
6, 557160, Note_on_c, 0, 77, 92
6, 557264, Note_on_c, 0, 77, 0
6, 557280, Note_on_c, 0, 89, 92
6, 557280, Note_on_c, 0, 77, 92
6, 557384, Note_on_c, 0, 89, 0
6, 557384, Note_on_c, 0, 77, 0
6, 557400, Note_on_c, 0, 91, 92
6, 557400, Note_on_c, 0, 79, 92
6, 557504, Note_on_c, 0, 91, 0
6, 557504, Note_on_c, 0, 79, 0
6, 557520, Note_on_c, 0, 93, 92
6, 557520, Note_on_c, 0, 81, 92
6, 557624, Note_on_c, 0, 93, 0
6, 557624, Note_on_c, 0, 81, 0
6, 557640, Note_on_c, 0, 82, 92
6, 557759, Note_on_c, 0, 82, 0
6, 558360, Note_on_c, 0, 88, 92
6, 558524, Note_on_c, 0, 88, 0
6, 558540, Note_on_c, 0, 76, 92
6, 558584, Note_on_c, 0, 76, 0
6, 558600, Note_on_c, 0, 76, 92
6, 558704, Note_on_c, 0, 76, 0
6, 558720, Note_on_c, 0, 76, 92
6, 558720, Note_on_c, 0, 88, 92
6, 558824, Note_on_c, 0, 76, 0
6, 558824, Note_on_c, 0, 88, 0
6, 558840, Note_on_c, 0, 89, 92
6, 558840, Note_on_c, 0, 77, 92
6, 558944, Note_on_c, 0, 89, 0
6, 558944, Note_on_c, 0, 77, 0
6, 558960, Note_on_c, 0, 79, 92
6, 558960, Note_on_c, 0, 91, 92
6, 559064, Note_on_c, 0, 79, 0
6, 559064, Note_on_c, 0, 91, 0
6, 559080, Note_on_c, 0, 93, 92
6, 559080, Note_on_c, 0, 81, 92
6, 559199, Note_on_c, 0, 93, 0
6, 559199, Note_on_c, 0, 81, 0
6, 559440, Note_on_c, 0, 81, 92
6, 559544, Note_on_c, 0, 81, 0
6, 559560, Note_on_c, 0, 86, 92
6, 559664, Note_on_c, 0, 86, 0
6, 559680, Note_on_c, 0, 76, 92
6, 559680, Note_on_c, 0, 88, 92
6, 559784, Note_on_c, 0, 76, 0
6, 559784, Note_on_c, 0, 88, 0
6, 559800, Note_on_c, 0, 78, 44
6, 559800, Note_on_c, 0, 90, 44
6, 559919, Note_on_c, 0, 78, 0
6, 559919, Note_on_c, 0, 90, 0
6, 560520, Note_on_c, 0, 91, 44
6, 560520, Note_on_c, 0, 79, 44
6, 560639, Note_on_c, 0, 91, 0
6, 560639, Note_on_c, 0, 79, 0
6, 561600, Control_c, 0, 11, 67
6, 561960, Control_c, 0, 11, 67
6, 561960, Note_on_c, 0, 87, 80
6, 561960, Note_on_c, 0, 91, 80
6, 561990, Control_c, 0, 11, 68
6, 562020, Control_c, 0, 11, 70
6, 562050, Control_c, 0, 11, 71
6, 562080, Control_c, 0, 11, 72
6, 562110, Control_c, 0, 11, 73
6, 562140, Control_c, 0, 11, 75
6, 562170, Control_c, 0, 11, 76
6, 562200, Control_c, 0, 11, 77
6, 562230, Control_c, 0, 11, 78
6, 562260, Control_c, 0, 11, 80
6, 562290, Control_c, 0, 11, 81
6, 562304, Note_on_c, 0, 87, 0
6, 562304, Note_on_c, 0, 91, 0
6, 562320, Note_on_c, 0, 91, 80
6, 562320, Control_c, 0, 11, 82
6, 562320, Note_on_c, 0, 87, 80
6, 562350, Control_c, 0, 11, 83
6, 562380, Control_c, 0, 11, 85
6, 562410, Control_c, 0, 11, 86
6, 562440, Control_c, 0, 11, 87
6, 562470, Control_c, 0, 11, 88
6, 562500, Control_c, 0, 11, 90
6, 562530, Control_c, 0, 11, 91
6, 562560, Control_c, 0, 11, 92
6, 562590, Control_c, 0, 11, 93
6, 562620, Control_c, 0, 11, 95
6, 562650, Control_c, 0, 11, 96
6, 562664, Note_on_c, 0, 91, 0
6, 562664, Note_on_c, 0, 87, 0
6, 562680, Note_on_c, 0, 88, 80
6, 562680, Control_c, 0, 11, 97
6, 562680, Note_on_c, 0, 91, 80
6, 562710, Control_c, 0, 11, 98
6, 562740, Control_c, 0, 11, 100
6, 562770, Control_c, 0, 11, 101
6, 562800, Control_c, 0, 11, 102
6, 562830, Control_c, 0, 11, 103
6, 562860, Control_c, 0, 11, 105
6, 562890, Control_c, 0, 11, 106
6, 562920, Control_c, 0, 11, 107
6, 562950, Control_c, 0, 11, 108
6, 562980, Control_c, 0, 11, 110
6, 563010, Control_c, 0, 11, 111
6, 563040, Control_c, 0, 11, 112
6, 563070, Control_c, 0, 11, 113
6, 563100, Control_c, 0, 11, 115
6, 563130, Control_c, 0, 11, 116
6, 563159, Note_on_c, 0, 88, 0
6, 563159, Note_on_c, 0, 91, 0
6, 563160, Note_on_c, 0, 89, 80
6, 563160, Note_on_c, 0, 86, 80
6, 563160, Control_c, 0, 11, 117
6, 563190, Control_c, 0, 11, 118
6, 563220, Control_c, 0, 11, 120
6, 563250, Control_c, 0, 11, 121
6, 563279, Note_on_c, 0, 89, 0
6, 563279, Note_on_c, 0, 86, 0
6, 563280, Control_c, 0, 11, 122
6, 563280, Note_on_c, 0, 91, 80
6, 563280, Note_on_c, 0, 88, 80
6, 563310, Control_c, 0, 11, 123
6, 563340, Control_c, 0, 11, 125
6, 563370, Control_c, 0, 11, 127
6, 563384, Note_on_c, 0, 91, 0
6, 563384, Note_on_c, 0, 88, 0
6, 563400, Note_on_c, 0, 93, 80
6, 563400, Note_on_c, 0, 81, 80
6, 563489, Note_on_c, 0, 93, 0
6, 563489, Note_on_c, 0, 81, 0
6, 563520, Note_on_c, 0, 77, 80
6, 563520, Note_on_c, 0, 89, 80
6, 563609, Note_on_c, 0, 77, 0
6, 563609, Note_on_c, 0, 89, 0
6, 563640, Note_on_c, 0, 82, 80
6, 563729, Note_on_c, 0, 82, 0
6, 563760, Note_on_c, 0, 79, 80
6, 563760, Note_on_c, 0, 91, 80
6, 563849, Note_on_c, 0, 79, 0
6, 563849, Note_on_c, 0, 91, 0
6, 563880, Note_on_c, 0, 76, 80
6, 563880, Note_on_c, 0, 88, 80
6, 563969, Note_on_c, 0, 76, 0
6, 563969, Note_on_c, 0, 88, 0
6, 564000, Note_on_c, 0, 93, 80
6, 564000, Note_on_c, 0, 81, 80
6, 564089, Note_on_c, 0, 93, 0
6, 564089, Note_on_c, 0, 81, 0
6, 564120, Note_on_c, 0, 77, 80
6, 564120, Note_on_c, 0, 89, 80
6, 564239, Note_on_c, 0, 77, 0
6, 564239, Note_on_c, 0, 89, 0
6, 564840, Note_on_c, 0, 93, 80
6, 564840, Note_on_c, 0, 81, 80
6, 564929, Note_on_c, 0, 93, 0
6, 564929, Note_on_c, 0, 81, 0
6, 564960, Note_on_c, 0, 89, 80
6, 564960, Note_on_c, 0, 77, 80
6, 565049, Note_on_c, 0, 89, 0
6, 565049, Note_on_c, 0, 77, 0
6, 565080, Note_on_c, 0, 82, 80
6, 565169, Note_on_c, 0, 82, 0
6, 565200, Note_on_c, 0, 91, 80
6, 565200, Note_on_c, 0, 79, 80
6, 565289, Note_on_c, 0, 91, 0
6, 565289, Note_on_c, 0, 79, 0
6, 565320, Note_on_c, 0, 88, 80
6, 565320, Note_on_c, 0, 76, 80
6, 565409, Note_on_c, 0, 88, 0
6, 565409, Note_on_c, 0, 76, 0
6, 565440, Note_on_c, 0, 81, 80
6, 565440, Note_on_c, 0, 93, 80
6, 565529, Note_on_c, 0, 81, 0
6, 565529, Note_on_c, 0, 93, 0
6, 565560, Note_on_c, 0, 93, 80
6, 565560, Note_on_c, 0, 81, 80
6, 565649, Note_on_c, 0, 93, 0
6, 565649, Note_on_c, 0, 81, 0
6, 565680, Note_on_c, 0, 93, 80
6, 565680, Note_on_c, 0, 81, 80
6, 565769, Note_on_c, 0, 93, 0
6, 565769, Note_on_c, 0, 81, 0
6, 565800, Note_on_c, 0, 93, 80
6, 565800, Note_on_c, 0, 81, 80
6, 565889, Note_on_c, 0, 93, 0
6, 565889, Note_on_c, 0, 81, 0
6, 565920, Note_on_c, 0, 81, 80
6, 565920, Note_on_c, 0, 93, 80
6, 566009, Note_on_c, 0, 81, 0
6, 566009, Note_on_c, 0, 93, 0
6, 566040, Note_on_c, 0, 81, 80
6, 566040, Note_on_c, 0, 93, 80
6, 566129, Note_on_c, 0, 81, 0
6, 566129, Note_on_c, 0, 93, 0
6, 566160, Note_on_c, 0, 81, 80
6, 566160, Note_on_c, 0, 93, 80
6, 566249, Note_on_c, 0, 81, 0
6, 566249, Note_on_c, 0, 93, 0
6, 566280, Note_on_c, 0, 89, 80
6, 566280, Note_on_c, 0, 86, 80
6, 566369, Note_on_c, 0, 89, 0
6, 566369, Note_on_c, 0, 86, 0
6, 566400, Note_on_c, 0, 86, 80
6, 566400, Note_on_c, 0, 81, 80
6, 566489, Note_on_c, 0, 86, 0
6, 566489, Note_on_c, 0, 81, 0
6, 566520, Note_on_c, 0, 93, 80
6, 566520, Note_on_c, 0, 89, 80
6, 566609, Note_on_c, 0, 93, 0
6, 566609, Note_on_c, 0, 89, 0
6, 566640, Note_on_c, 0, 91, 80
6, 566640, Note_on_c, 0, 88, 80
6, 566729, Note_on_c, 0, 91, 0
6, 566729, Note_on_c, 0, 88, 0
6, 566760, Note_on_c, 0, 88, 80
6, 566760, Note_on_c, 0, 81, 80
6, 566849, Note_on_c, 0, 88, 0
6, 566849, Note_on_c, 0, 81, 0
6, 566880, Note_on_c, 0, 88, 80
6, 566880, Note_on_c, 0, 93, 80
6, 566969, Note_on_c, 0, 88, 0
6, 566969, Note_on_c, 0, 93, 0
6, 567000, Note_on_c, 0, 86, 80
6, 567000, Note_on_c, 0, 89, 80
6, 567089, Note_on_c, 0, 86, 0
6, 567089, Note_on_c, 0, 89, 0
6, 567120, Note_on_c, 0, 86, 80
6, 567120, Note_on_c, 0, 81, 80
6, 567209, Note_on_c, 0, 86, 0
6, 567209, Note_on_c, 0, 81, 0
6, 567240, Note_on_c, 0, 93, 80
6, 567240, Note_on_c, 0, 89, 80
6, 567329, Note_on_c, 0, 93, 0
6, 567329, Note_on_c, 0, 89, 0
6, 567360, Note_on_c, 0, 91, 80
6, 567360, Note_on_c, 0, 88, 80
6, 567449, Note_on_c, 0, 91, 0
6, 567449, Note_on_c, 0, 88, 0
6, 567480, Note_on_c, 0, 88, 80
6, 567480, Note_on_c, 0, 81, 80
6, 567569, Note_on_c, 0, 88, 0
6, 567569, Note_on_c, 0, 81, 0
6, 567600, Note_on_c, 0, 93, 80
6, 567600, Note_on_c, 0, 88, 80
6, 567689, Note_on_c, 0, 93, 0
6, 567689, Note_on_c, 0, 88, 0
6, 567720, Note_on_c, 0, 69, 32
6, 567839, Note_on_c, 0, 69, 0
6, 567840, Note_on_c, 0, 73, 32
6, 567959, Note_on_c, 0, 73, 0
6, 567960, Note_on_c, 0, 76, 32
6, 568079, Note_on_c, 0, 76, 0
6, 568080, Note_on_c, 0, 79, 32
6, 568199, Note_on_c, 0, 79, 0
6, 568200, Note_on_c, 0, 85, 32
6, 568319, Note_on_c, 0, 85, 0
6, 568320, Note_on_c, 0, 88, 32
6, 568424, Note_on_c, 0, 88, 0
6, 568440, Note_on_c, 0, 91, 32
6, 568919, Note_on_c, 0, 91, 0
6, 568920, Note_on_c, 0, 88, 32
6, 569039, Note_on_c, 0, 88, 0
6, 569040, Note_on_c, 0, 85, 32
6, 569144, Note_on_c, 0, 85, 0
6, 569160, Note_on_c, 0, 86, 32
6, 569279, Note_on_c, 0, 86, 0
6, 569520, Note_on_c, 0, 86, 32
6, 569684, Note_on_c, 0, 86, 0
6, 569700, Note_on_c, 0, 74, 32
6, 569744, Note_on_c, 0, 74, 0
6, 569760, Note_on_c, 0, 74, 32
6, 569864, Note_on_c, 0, 74, 0
6, 569880, Note_on_c, 0, 74, 32
6, 569999, Note_on_c, 0, 74, 0
6, 570240, Note_on_c, 0, 86, 32
6, 570404, Note_on_c, 0, 86, 0
6, 570420, Note_on_c, 0, 74, 32
6, 570464, Note_on_c, 0, 74, 0
6, 570480, Note_on_c, 0, 74, 32
6, 570584, Note_on_c, 0, 74, 0
6, 570600, Note_on_c, 0, 74, 32
6, 570719, Note_on_c, 0, 74, 0
6, 572400, Note_on_c, 0, 86, 40
6, 572564, Note_on_c, 0, 86, 0
6, 572580, Note_on_c, 0, 74, 44
6, 572624, Note_on_c, 0, 74, 0
6, 572640, Note_on_c, 0, 74, 46
6, 572744, Note_on_c, 0, 74, 0
6, 572760, Note_on_c, 0, 74, 49
6, 572879, Note_on_c, 0, 74, 0
6, 573120, Note_on_c, 0, 86, 57
6, 573284, Note_on_c, 0, 86, 0
6, 573300, Note_on_c, 0, 74, 62
6, 573344, Note_on_c, 0, 74, 0
6, 573360, Note_on_c, 0, 74, 63
6, 573464, Note_on_c, 0, 74, 0
6, 573480, Note_on_c, 0, 74, 66
6, 573599, Note_on_c, 0, 74, 0
6, 573840, Note_on_c, 0, 86, 74
6, 574004, Note_on_c, 0, 86, 0
6, 574020, Note_on_c, 0, 74, 79
6, 574064, Note_on_c, 0, 74, 0
6, 574080, Note_on_c, 0, 74, 80
6, 574184, Note_on_c, 0, 74, 0
6, 574200, Note_on_c, 0, 74, 83
6, 574319, Note_on_c, 0, 74, 0
6, 574560, Note_on_c, 0, 88, 92
6, 574560, Note_on_c, 0, 76, 92
6, 574724, Note_on_c, 0, 88, 0
6, 574724, Note_on_c, 0, 76, 0
6, 574740, Note_on_c, 0, 76, 92
6, 574784, Note_on_c, 0, 76, 0
6, 574800, Note_on_c, 0, 88, 92
6, 574800, Note_on_c, 0, 76, 92
6, 575249, Note_on_c, 0, 88, 0
6, 575249, Note_on_c, 0, 76, 0
6, 576000, Note_on_c, 0, 86, 32
6, 576164, Note_on_c, 0, 86, 0
6, 576180, Note_on_c, 0, 74, 32
6, 576224, Note_on_c, 0, 74, 0
6, 576240, Note_on_c, 0, 74, 32
6, 576344, Note_on_c, 0, 74, 0
6, 576360, Note_on_c, 0, 79, 32
6, 576464, Note_on_c, 0, 79, 0
6, 576480, Note_on_c, 0, 81, 32
6, 576584, Note_on_c, 0, 81, 0
6, 576600, Note_on_c, 0, 82, 32
6, 576704, Note_on_c, 0, 82, 0
6, 577440, Note_on_c, 0, 86, 32
6, 577604, Note_on_c, 0, 86, 0
6, 577620, Note_on_c, 0, 74, 32
6, 577664, Note_on_c, 0, 74, 0
6, 577680, Note_on_c, 0, 74, 32
6, 577784, Note_on_c, 0, 74, 0
6, 577800, Note_on_c, 0, 79, 32
6, 577904, Note_on_c, 0, 79, 0
6, 577920, Note_on_c, 0, 81, 32
6, 578024, Note_on_c, 0, 81, 0
6, 578040, Note_on_c, 0, 82, 32
6, 578144, Note_on_c, 0, 82, 0
6, 578160, Note_on_c, 0, 93, 32
6, 578160, Note_on_c, 0, 81, 32
6, 578319, Note_on_c, 0, 93, 0
6, 578319, Note_on_c, 0, 81, 0
6, 578340, Note_on_c, 0, 69, 35
6, 578340, Note_on_c, 0, 81, 35
6, 578379, Note_on_c, 0, 69, 0
6, 578379, Note_on_c, 0, 81, 0
6, 578400, Note_on_c, 0, 69, 37
6, 578400, Note_on_c, 0, 81, 37
6, 578499, Note_on_c, 0, 69, 0
6, 578499, Note_on_c, 0, 81, 0
6, 578520, Note_on_c, 0, 86, 39
6, 578520, Note_on_c, 0, 74, 39
6, 578619, Note_on_c, 0, 86, 0
6, 578619, Note_on_c, 0, 74, 0
6, 578640, Note_on_c, 0, 76, 42
6, 578640, Note_on_c, 0, 88, 42
6, 578739, Note_on_c, 0, 76, 0
6, 578739, Note_on_c, 0, 88, 0
6, 578760, Note_on_c, 0, 77, 44
6, 578760, Note_on_c, 0, 89, 44
6, 578859, Note_on_c, 0, 77, 0
6, 578859, Note_on_c, 0, 89, 0
6, 578880, Note_on_c, 0, 93, 47
6, 578880, Note_on_c, 0, 81, 47
6, 579039, Note_on_c, 0, 93, 0
6, 579039, Note_on_c, 0, 81, 0
6, 579060, Note_on_c, 0, 81, 50
6, 579060, Note_on_c, 0, 69, 50
6, 579099, Note_on_c, 0, 81, 0
6, 579099, Note_on_c, 0, 69, 0
6, 579120, Note_on_c, 0, 81, 52
6, 579120, Note_on_c, 0, 69, 52
6, 579219, Note_on_c, 0, 81, 0
6, 579219, Note_on_c, 0, 69, 0
6, 579240, Note_on_c, 0, 86, 54
6, 579240, Note_on_c, 0, 74, 54
6, 579339, Note_on_c, 0, 86, 0
6, 579339, Note_on_c, 0, 74, 0
6, 579360, Note_on_c, 0, 88, 57
6, 579360, Note_on_c, 0, 76, 57
6, 579459, Note_on_c, 0, 88, 0
6, 579459, Note_on_c, 0, 76, 0
6, 579480, Note_on_c, 0, 77, 59
6, 579480, Note_on_c, 0, 89, 59
6, 579579, Note_on_c, 0, 77, 0
6, 579579, Note_on_c, 0, 89, 0
6, 579600, Note_on_c, 0, 81, 62
6, 579600, Note_on_c, 0, 93, 62
6, 579759, Note_on_c, 0, 81, 0
6, 579759, Note_on_c, 0, 93, 0
6, 579780, Note_on_c, 0, 69, 65
6, 579780, Note_on_c, 0, 81, 65
6, 579819, Note_on_c, 0, 69, 0
6, 579819, Note_on_c, 0, 81, 0
6, 579840, Note_on_c, 0, 69, 67
6, 579840, Note_on_c, 0, 81, 67
6, 579939, Note_on_c, 0, 69, 0
6, 579939, Note_on_c, 0, 81, 0
6, 579960, Note_on_c, 0, 74, 69
6, 579960, Note_on_c, 0, 86, 69
6, 580059, Note_on_c, 0, 74, 0
6, 580059, Note_on_c, 0, 86, 0
6, 580080, Note_on_c, 0, 76, 72
6, 580080, Note_on_c, 0, 88, 72
6, 580179, Note_on_c, 0, 76, 0
6, 580179, Note_on_c, 0, 88, 0
6, 580200, Note_on_c, 0, 89, 74
6, 580200, Note_on_c, 0, 77, 74
6, 580299, Note_on_c, 0, 89, 0
6, 580299, Note_on_c, 0, 77, 0
6, 580320, Note_on_c, 0, 81, 77
6, 580320, Note_on_c, 0, 93, 77
6, 580479, Note_on_c, 0, 81, 0
6, 580479, Note_on_c, 0, 93, 0
6, 580500, Note_on_c, 0, 81, 80
6, 580500, Note_on_c, 0, 69, 80
6, 580539, Note_on_c, 0, 81, 0
6, 580539, Note_on_c, 0, 69, 0
6, 580560, Note_on_c, 0, 69, 82
6, 580560, Note_on_c, 0, 81, 82
6, 580659, Note_on_c, 0, 69, 0
6, 580659, Note_on_c, 0, 81, 0
6, 580680, Note_on_c, 0, 86, 84
6, 580680, Note_on_c, 0, 74, 84
6, 580779, Note_on_c, 0, 86, 0
6, 580779, Note_on_c, 0, 74, 0
6, 580800, Note_on_c, 0, 76, 87
6, 580800, Note_on_c, 0, 88, 87
6, 580899, Note_on_c, 0, 76, 0
6, 580899, Note_on_c, 0, 88, 0
6, 580920, Note_on_c, 0, 77, 89
6, 580920, Note_on_c, 0, 89, 89
6, 581019, Note_on_c, 0, 77, 0
6, 581019, Note_on_c, 0, 89, 0
6, 581040, Note_on_c, 0, 93, 92
6, 581040, Note_on_c, 0, 81, 92
6, 581139, Note_on_c, 0, 93, 0
6, 581139, Note_on_c, 0, 81, 0
6, 581160, Note_on_c, 0, 69, 92
6, 581160, Note_on_c, 0, 81, 92
6, 581259, Note_on_c, 0, 69, 0
6, 581259, Note_on_c, 0, 81, 0
6, 581280, Note_on_c, 0, 74, 80
6, 581280, Note_on_c, 0, 86, 80
6, 581379, Note_on_c, 0, 74, 0
6, 581379, Note_on_c, 0, 86, 0
6, 581400, Note_on_c, 0, 74, 80
6, 581400, Note_on_c, 0, 62, 80
6, 581499, Note_on_c, 0, 74, 0
6, 581499, Note_on_c, 0, 62, 0
6, 581520, Note_on_c, 0, 69, 80
6, 581520, Note_on_c, 0, 81, 80
6, 581619, Note_on_c, 0, 69, 0
6, 581619, Note_on_c, 0, 81, 0
6, 581640, Note_on_c, 0, 69, 80
6, 581739, Note_on_c, 0, 69, 0
6, 581760, Note_on_c, 0, 81, 80
6, 581760, Note_on_c, 0, 93, 80
6, 581859, Note_on_c, 0, 81, 0
6, 581859, Note_on_c, 0, 93, 0
6, 581880, Note_on_c, 0, 69, 80
6, 581880, Note_on_c, 0, 81, 80
6, 581979, Note_on_c, 0, 69, 0
6, 581979, Note_on_c, 0, 81, 0
6, 582000, Note_on_c, 0, 74, 80
6, 582000, Note_on_c, 0, 86, 80
6, 582060, Control_c, 0, 11, 67
6, 582119, Note_on_c, 0, 74, 0
6, 582699, Note_on_c, 0, 86, 0
6, 582720, Note_on_c, 0, 88, 80
6, 582939, Note_on_c, 0, 88, 0
6, 582960, Note_on_c, 0, 90, 80
6, 583319, Note_on_c, 0, 90, 0
6, 583320, Note_on_c, 0, 91, 80
6, 583379, Note_on_c, 0, 91, 0
6, 583380, Note_on_c, 0, 93, 80
6, 583419, Note_on_c, 0, 93, 0
6, 583440, Note_on_c, 0, 91, 80
6, 583529, Note_on_c, 0, 91, 0
6, 583560, Note_on_c, 0, 91, 80
6, 583649, Note_on_c, 0, 91, 0
6, 583680, Note_on_c, 0, 90, 80
6, 583769, Note_on_c, 0, 90, 0
6, 583800, Note_on_c, 0, 90, 80
6, 583889, Note_on_c, 0, 90, 0
6, 583920, Note_on_c, 0, 88, 80
6, 584139, Note_on_c, 0, 88, 0
6, 584160, Note_on_c, 0, 86, 80
6, 584619, Note_on_c, 0, 86, 0
6, 584640, Note_on_c, 0, 88, 80
6, 584859, Note_on_c, 0, 88, 0
6, 584880, Note_on_c, 0, 90, 80
6, 585239, Note_on_c, 0, 90, 0
6, 585240, Note_on_c, 0, 91, 80
6, 585299, Note_on_c, 0, 91, 0
6, 585300, Note_on_c, 0, 93, 80
6, 585359, Note_on_c, 0, 93, 0
6, 585838, Control_c, 0, 11, 127
6, 585840, Note_on_c, 0, 81, 92
6, 585840, Note_on_c, 0, 93, 92
6, 585939, Note_on_c, 0, 81, 0
6, 585939, Note_on_c, 0, 93, 0
6, 585960, Note_on_c, 0, 81, 92
6, 585960, Note_on_c, 0, 69, 92
6, 586059, Note_on_c, 0, 81, 0
6, 586059, Note_on_c, 0, 69, 0
6, 586080, Note_on_c, 0, 86, 80
6, 586080, Note_on_c, 0, 74, 80
6, 586179, Note_on_c, 0, 86, 0
6, 586179, Note_on_c, 0, 74, 0
6, 586200, Note_on_c, 0, 74, 80
6, 586200, Note_on_c, 0, 62, 80
6, 586299, Note_on_c, 0, 74, 0
6, 586299, Note_on_c, 0, 62, 0
6, 586320, Note_on_c, 0, 69, 80
6, 586320, Note_on_c, 0, 81, 80
6, 586419, Note_on_c, 0, 69, 0
6, 586419, Note_on_c, 0, 81, 0
6, 586440, Note_on_c, 0, 69, 80
6, 586539, Note_on_c, 0, 69, 0
6, 586560, Note_on_c, 0, 81, 80
6, 586560, Note_on_c, 0, 93, 80
6, 586659, Note_on_c, 0, 81, 0
6, 586659, Note_on_c, 0, 93, 0
6, 586680, Note_on_c, 0, 81, 80
6, 586680, Note_on_c, 0, 69, 80
6, 586779, Note_on_c, 0, 81, 0
6, 586779, Note_on_c, 0, 69, 0
6, 586800, Note_on_c, 0, 74, 80
6, 586919, Note_on_c, 0, 74, 0
6, 586919, End_track
7, 0, Start_track
7, 0, Title_t, "Oboe"
7, 0, MIDI_port, 0
7, 0, Program_c, 1, 68
7, 0, Control_c, 1, 7, 96
7, 0, Control_c, 1, 10, 70
7, 0, Control_c, 1, 11, 127
7, 1800, Note_on_c, 1, 86, 92
7, 1800, Note_on_c, 1, 74, 92
7, 1964, Note_on_c, 1, 86, 0
7, 1964, Note_on_c, 1, 74, 0
7, 1980, Note_on_c, 1, 74, 92
7, 1980, Note_on_c, 1, 62, 92
7, 2024, Note_on_c, 1, 74, 0
7, 2024, Note_on_c, 1, 62, 0
7, 2040, Note_on_c, 1, 62, 92
7, 2040, Note_on_c, 1, 74, 92
7, 2159, Note_on_c, 1, 62, 0
7, 2159, Note_on_c, 1, 74, 0
7, 2880, Note_on_c, 1, 81, 44
7, 2999, Note_on_c, 1, 81, 0
7, 3240, Note_on_c, 1, 74, 44
7, 3359, Note_on_c, 1, 74, 0
7, 3600, Note_on_c, 1, 76, 44
7, 3719, Note_on_c, 1, 76, 0
7, 3960, Note_on_c, 1, 77, 44
7, 4079, Note_on_c, 1, 77, 0
7, 4320, Note_on_c, 1, 77, 32
7, 4439, Note_on_c, 1, 77, 0
7, 4680, Note_on_c, 1, 72, 32
7, 4799, Note_on_c, 1, 72, 0
7, 5040, Note_on_c, 1, 68, 32
7, 5159, Note_on_c, 1, 68, 0
7, 5400, Note_on_c, 1, 69, 32
7, 5519, Note_on_c, 1, 69, 0
7, 5760, Note_on_c, 1, 67, 32
7, 5879, Note_on_c, 1, 67, 0
7, 6120, Note_on_c, 1, 62, 32
7, 6239, Note_on_c, 1, 62, 0
7, 6480, Note_on_c, 1, 69, 32
7, 6599, Note_on_c, 1, 69, 0
7, 6840, Note_on_c, 1, 69, 32
7, 6959, Note_on_c, 1, 69, 0
7, 7200, Note_on_c, 1, 74, 32
7, 7319, Note_on_c, 1, 74, 0
7, 7560, Note_on_c, 1, 76, 32
7, 7679, Note_on_c, 1, 76, 0
7, 7920, Note_on_c, 1, 76, 32
7, 8039, Note_on_c, 1, 76, 0
7, 8280, Note_on_c, 1, 76, 32
7, 8399, Note_on_c, 1, 76, 0
7, 8640, Note_on_c, 1, 79, 32
7, 8759, Note_on_c, 1, 79, 0
7, 9000, Note_on_c, 1, 77, 32
7, 9119, Note_on_c, 1, 77, 0
7, 9360, Note_on_c, 1, 81, 32
7, 9479, Note_on_c, 1, 81, 0
7, 9720, Note_on_c, 1, 81, 32
7, 9839, Note_on_c, 1, 81, 0
7, 10080, Note_on_c, 1, 81, 32
7, 10199, Note_on_c, 1, 81, 0
7, 10440, Note_on_c, 1, 81, 32
7, 10559, Note_on_c, 1, 81, 0
7, 10800, Note_on_c, 1, 83, 32
7, 10919, Note_on_c, 1, 83, 0
7, 11160, Note_on_c, 1, 76, 32
7, 11279, Note_on_c, 1, 76, 0
7, 11520, Note_on_c, 1, 81, 32
7, 11609, Note_on_c, 1, 81, 0
7, 11640, Note_on_c, 1, 81, 32
7, 11729, Note_on_c, 1, 81, 0
7, 11760, Note_on_c, 1, 81, 32
7, 11849, Note_on_c, 1, 81, 0
7, 11880, Note_on_c, 1, 81, 32
7, 11969, Note_on_c, 1, 81, 0
7, 12000, Note_on_c, 1, 81, 32
7, 12089, Note_on_c, 1, 81, 0
7, 12120, Note_on_c, 1, 81, 32
7, 12209, Note_on_c, 1, 81, 0
7, 12240, Note_on_c, 1, 82, 32
7, 12329, Note_on_c, 1, 82, 0
7, 12360, Note_on_c, 1, 81, 32
7, 12449, Note_on_c, 1, 81, 0
7, 12480, Note_on_c, 1, 79, 32
7, 12569, Note_on_c, 1, 79, 0
7, 12600, Note_on_c, 1, 77, 32
7, 12689, Note_on_c, 1, 77, 0
7, 12720, Note_on_c, 1, 76, 32
7, 12809, Note_on_c, 1, 76, 0
7, 12840, Note_on_c, 1, 74, 32
7, 12929, Note_on_c, 1, 74, 0
7, 12960, Note_on_c, 1, 74, 32
7, 12960, Note_on_c, 1, 77, 32
7, 13079, Note_on_c, 1, 74, 0
7, 13079, Note_on_c, 1, 77, 0
7, 13320, Note_on_c, 1, 69, 32
7, 13320, Note_on_c, 1, 72, 32
7, 13439, Note_on_c, 1, 69, 0
7, 13439, Note_on_c, 1, 72, 0
7, 13680, Note_on_c, 1, 71, 32
7, 13680, Note_on_c, 1, 74, 32
7, 13799, Note_on_c, 1, 71, 0
7, 13799, Note_on_c, 1, 74, 0
7, 14040, Note_on_c, 1, 72, 32
7, 14040, Note_on_c, 1, 76, 32
7, 14159, Note_on_c, 1, 72, 0
7, 14159, Note_on_c, 1, 76, 0
7, 14400, Note_on_c, 1, 73, 32
7, 14489, Note_on_c, 1, 73, 0
7, 14520, Note_on_c, 1, 74, 32
7, 14609, Note_on_c, 1, 74, 0
7, 14640, Note_on_c, 1, 76, 32
7, 14729, Note_on_c, 1, 76, 0
7, 14760, Note_on_c, 1, 77, 32
7, 14849, Note_on_c, 1, 77, 0
7, 14880, Note_on_c, 1, 79, 32
7, 14969, Note_on_c, 1, 79, 0
7, 15000, Note_on_c, 1, 81, 32
7, 15089, Note_on_c, 1, 81, 0
7, 15120, Note_on_c, 1, 82, 32
7, 15209, Note_on_c, 1, 82, 0
7, 15240, Note_on_c, 1, 81, 32
7, 15329, Note_on_c, 1, 81, 0
7, 15360, Note_on_c, 1, 79, 32
7, 15449, Note_on_c, 1, 79, 0
7, 15480, Note_on_c, 1, 77, 32
7, 15569, Note_on_c, 1, 77, 0
7, 15600, Note_on_c, 1, 76, 32
7, 15689, Note_on_c, 1, 76, 0
7, 15720, Note_on_c, 1, 74, 32
7, 15809, Note_on_c, 1, 74, 0
7, 15840, Note_on_c, 1, 73, 32
7, 15929, Note_on_c, 1, 73, 0
7, 15960, Note_on_c, 1, 74, 33
7, 16049, Note_on_c, 1, 74, 0
7, 16080, Note_on_c, 1, 76, 35
7, 16169, Note_on_c, 1, 76, 0
7, 16200, Note_on_c, 1, 74, 37
7, 16289, Note_on_c, 1, 74, 0
7, 16320, Note_on_c, 1, 73, 38
7, 16409, Note_on_c, 1, 73, 0
7, 16440, Note_on_c, 1, 74, 40
7, 16529, Note_on_c, 1, 74, 0
7, 16560, Note_on_c, 1, 73, 42
7, 16649, Note_on_c, 1, 73, 0
7, 16680, Note_on_c, 1, 74, 43
7, 16769, Note_on_c, 1, 74, 0
7, 16800, Note_on_c, 1, 76, 45
7, 16889, Note_on_c, 1, 76, 0
7, 16920, Note_on_c, 1, 74, 47
7, 17009, Note_on_c, 1, 74, 0
7, 17040, Note_on_c, 1, 73, 48
7, 17129, Note_on_c, 1, 73, 0
7, 17160, Note_on_c, 1, 74, 50
7, 17249, Note_on_c, 1, 74, 0
7, 17280, Note_on_c, 1, 73, 52
7, 17369, Note_on_c, 1, 73, 0
7, 17400, Note_on_c, 1, 74, 53
7, 17489, Note_on_c, 1, 74, 0
7, 17520, Note_on_c, 1, 76, 55
7, 17609, Note_on_c, 1, 76, 0
7, 17640, Note_on_c, 1, 74, 57
7, 17729, Note_on_c, 1, 74, 0
7, 17760, Note_on_c, 1, 73, 58
7, 17849, Note_on_c, 1, 73, 0
7, 17880, Note_on_c, 1, 74, 60
7, 17969, Note_on_c, 1, 74, 0
7, 18000, Note_on_c, 1, 76, 62
7, 18000, Note_on_c, 1, 73, 62
7, 18089, Note_on_c, 1, 76, 0
7, 18089, Note_on_c, 1, 73, 0
7, 18120, Note_on_c, 1, 77, 63
7, 18120, Note_on_c, 1, 74, 63
7, 18209, Note_on_c, 1, 77, 0
7, 18209, Note_on_c, 1, 74, 0
7, 18240, Note_on_c, 1, 79, 65
7, 18240, Note_on_c, 1, 76, 65
7, 18329, Note_on_c, 1, 79, 0
7, 18329, Note_on_c, 1, 76, 0
7, 18360, Note_on_c, 1, 77, 67
7, 18360, Note_on_c, 1, 74, 67
7, 18449, Note_on_c, 1, 77, 0
7, 18449, Note_on_c, 1, 74, 0
7, 18480, Note_on_c, 1, 76, 68
7, 18480, Note_on_c, 1, 73, 68
7, 18569, Note_on_c, 1, 76, 0
7, 18569, Note_on_c, 1, 73, 0
7, 18600, Note_on_c, 1, 77, 70
7, 18600, Note_on_c, 1, 74, 70
7, 18689, Note_on_c, 1, 77, 0
7, 18689, Note_on_c, 1, 74, 0
7, 18720, Note_on_c, 1, 73, 72
7, 18720, Note_on_c, 1, 76, 72
7, 18809, Note_on_c, 1, 73, 0
7, 18809, Note_on_c, 1, 76, 0
7, 18840, Note_on_c, 1, 74, 73
7, 18840, Note_on_c, 1, 77, 73
7, 18929, Note_on_c, 1, 74, 0
7, 18929, Note_on_c, 1, 77, 0
7, 18960, Note_on_c, 1, 79, 75
7, 18960, Note_on_c, 1, 76, 75
7, 19049, Note_on_c, 1, 79, 0
7, 19049, Note_on_c, 1, 76, 0
7, 19080, Note_on_c, 1, 74, 77
7, 19080, Note_on_c, 1, 77, 77
7, 19169, Note_on_c, 1, 74, 0
7, 19169, Note_on_c, 1, 77, 0
7, 19200, Note_on_c, 1, 73, 78
7, 19200, Note_on_c, 1, 76, 78
7, 19289, Note_on_c, 1, 73, 0
7, 19289, Note_on_c, 1, 76, 0
7, 19320, Note_on_c, 1, 77, 80
7, 19320, Note_on_c, 1, 74, 80
7, 19409, Note_on_c, 1, 77, 0
7, 19409, Note_on_c, 1, 74, 0
7, 19440, Note_on_c, 1, 76, 82
7, 19440, Note_on_c, 1, 73, 82
7, 19529, Note_on_c, 1, 76, 0
7, 19529, Note_on_c, 1, 73, 0
7, 19560, Note_on_c, 1, 77, 83
7, 19560, Note_on_c, 1, 74, 83
7, 19649, Note_on_c, 1, 77, 0
7, 19649, Note_on_c, 1, 74, 0
7, 19680, Note_on_c, 1, 76, 85
7, 19680, Note_on_c, 1, 79, 85
7, 19769, Note_on_c, 1, 76, 0
7, 19769, Note_on_c, 1, 79, 0
7, 19800, Note_on_c, 1, 73, 87
7, 19800, Note_on_c, 1, 76, 87
7, 19889, Note_on_c, 1, 73, 0
7, 19889, Note_on_c, 1, 76, 0
7, 19920, Note_on_c, 1, 74, 88
7, 19920, Note_on_c, 1, 77, 88
7, 20009, Note_on_c, 1, 74, 0
7, 20009, Note_on_c, 1, 77, 0
7, 20040, Note_on_c, 1, 79, 90
7, 20040, Note_on_c, 1, 76, 90
7, 20129, Note_on_c, 1, 79, 0
7, 20129, Note_on_c, 1, 76, 0
7, 20160, Note_on_c, 1, 77, 92
7, 20160, Note_on_c, 1, 81, 92
7, 20324, Note_on_c, 1, 77, 0
7, 20324, Note_on_c, 1, 81, 0
7, 20340, Note_on_c, 1, 69, 92
7, 20384, Note_on_c, 1, 69, 0
7, 20400, Note_on_c, 1, 69, 92
7, 20504, Note_on_c, 1, 69, 0
7, 20520, Note_on_c, 1, 81, 92
7, 20520, Note_on_c, 1, 74, 92
7, 20624, Note_on_c, 1, 81, 0
7, 20624, Note_on_c, 1, 74, 0
7, 20640, Note_on_c, 1, 81, 92
7, 20640, Note_on_c, 1, 76, 92
7, 20744, Note_on_c, 1, 81, 0
7, 20744, Note_on_c, 1, 76, 0
7, 20760, Note_on_c, 1, 81, 92
7, 20760, Note_on_c, 1, 77, 92
7, 20864, Note_on_c, 1, 81, 0
7, 20864, Note_on_c, 1, 77, 0
7, 20880, Note_on_c, 1, 81, 92
7, 20880, Note_on_c, 1, 76, 92
7, 20984, Note_on_c, 1, 81, 0
7, 20984, Note_on_c, 1, 76, 0
7, 21000, Note_on_c, 1, 77, 92
7, 21000, Note_on_c, 1, 81, 92
7, 21104, Note_on_c, 1, 77, 0
7, 21104, Note_on_c, 1, 81, 0
7, 21120, Note_on_c, 1, 81, 92
7, 21120, Note_on_c, 1, 79, 92
7, 21224, Note_on_c, 1, 81, 0
7, 21224, Note_on_c, 1, 79, 0
7, 21240, Note_on_c, 1, 77, 92
7, 21240, Note_on_c, 1, 81, 92
7, 21344, Note_on_c, 1, 77, 0
7, 21344, Note_on_c, 1, 81, 0
7, 21360, Note_on_c, 1, 81, 92
7, 21360, Note_on_c, 1, 76, 92
7, 21464, Note_on_c, 1, 81, 0
7, 21464, Note_on_c, 1, 76, 0
7, 21480, Note_on_c, 1, 81, 92
7, 21480, Note_on_c, 1, 74, 92
7, 21584, Note_on_c, 1, 81, 0
7, 21584, Note_on_c, 1, 74, 0
7, 21600, Note_on_c, 1, 74, 80
7, 21600, Note_on_c, 1, 82, 80
7, 21704, Note_on_c, 1, 74, 0
7, 21704, Note_on_c, 1, 82, 0
7, 21720, Note_on_c, 1, 74, 80
7, 21720, Note_on_c, 1, 81, 80
7, 21824, Note_on_c, 1, 74, 0
7, 21824, Note_on_c, 1, 81, 0
7, 21840, Note_on_c, 1, 74, 80
7, 21840, Note_on_c, 1, 79, 80
7, 21944, Note_on_c, 1, 74, 0
7, 21944, Note_on_c, 1, 79, 0
7, 21960, Note_on_c, 1, 77, 80
7, 21960, Note_on_c, 1, 69, 80
7, 22064, Note_on_c, 1, 77, 0
7, 22064, Note_on_c, 1, 69, 0
7, 22080, Note_on_c, 1, 76, 80
7, 22080, Note_on_c, 1, 81, 80
7, 22184, Note_on_c, 1, 76, 0
7, 22184, Note_on_c, 1, 81, 0
7, 22200, Note_on_c, 1, 74, 80
7, 22200, Note_on_c, 1, 81, 80
7, 22304, Note_on_c, 1, 74, 0
7, 22304, Note_on_c, 1, 81, 0
7, 22320, Note_on_c, 1, 73, 80
7, 22320, Note_on_c, 1, 81, 80
7, 22424, Note_on_c, 1, 73, 0
7, 22424, Note_on_c, 1, 81, 0
7, 22440, Note_on_c, 1, 81, 80
7, 22440, Note_on_c, 1, 74, 80
7, 22544, Note_on_c, 1, 81, 0
7, 22544, Note_on_c, 1, 74, 0
7, 22560, Note_on_c, 1, 81, 80
7, 22560, Note_on_c, 1, 76, 80
7, 22664, Note_on_c, 1, 81, 0
7, 22664, Note_on_c, 1, 76, 0
7, 22680, Note_on_c, 1, 74, 80
7, 22680, Note_on_c, 1, 81, 80
7, 22784, Note_on_c, 1, 74, 0
7, 22784, Note_on_c, 1, 81, 0
7, 22800, Note_on_c, 1, 73, 80
7, 22800, Note_on_c, 1, 81, 80
7, 22904, Note_on_c, 1, 73, 0
7, 22904, Note_on_c, 1, 81, 0
7, 22920, Note_on_c, 1, 74, 80
7, 22920, Note_on_c, 1, 81, 80
7, 23024, Note_on_c, 1, 74, 0
7, 23024, Note_on_c, 1, 81, 0
7, 23040, Note_on_c, 1, 82, 80
7, 23040, Note_on_c, 1, 74, 80
7, 23144, Note_on_c, 1, 82, 0
7, 23144, Note_on_c, 1, 74, 0
7, 23160, Note_on_c, 1, 74, 80
7, 23160, Note_on_c, 1, 81, 80
7, 23264, Note_on_c, 1, 74, 0
7, 23264, Note_on_c, 1, 81, 0
7, 23280, Note_on_c, 1, 74, 80
7, 23280, Note_on_c, 1, 79, 80
7, 23384, Note_on_c, 1, 74, 0
7, 23384, Note_on_c, 1, 79, 0
7, 23400, Note_on_c, 1, 77, 80
7, 23400, Note_on_c, 1, 69, 80
7, 23504, Note_on_c, 1, 77, 0
7, 23504, Note_on_c, 1, 69, 0
7, 23520, Note_on_c, 1, 76, 80
7, 23520, Note_on_c, 1, 69, 80
7, 23624, Note_on_c, 1, 76, 0
7, 23624, Note_on_c, 1, 69, 0
7, 23640, Note_on_c, 1, 69, 80
7, 23640, Note_on_c, 1, 74, 80
7, 23744, Note_on_c, 1, 69, 0
7, 23744, Note_on_c, 1, 74, 0
7, 23760, Note_on_c, 1, 73, 80
7, 23760, Note_on_c, 1, 81, 80
7, 23864, Note_on_c, 1, 73, 0
7, 23864, Note_on_c, 1, 81, 0
7, 23880, Note_on_c, 1, 74, 80
7, 23880, Note_on_c, 1, 81, 80
7, 23984, Note_on_c, 1, 74, 0
7, 23984, Note_on_c, 1, 81, 0
7, 24000, Note_on_c, 1, 76, 80
7, 24000, Note_on_c, 1, 81, 80
7, 24104, Note_on_c, 1, 76, 0
7, 24104, Note_on_c, 1, 81, 0
7, 24120, Note_on_c, 1, 69, 80
7, 24120, Note_on_c, 1, 81, 80
7, 24224, Note_on_c, 1, 69, 0
7, 24224, Note_on_c, 1, 81, 0
7, 24240, Note_on_c, 1, 77, 80
7, 24240, Note_on_c, 1, 81, 80
7, 24344, Note_on_c, 1, 77, 0
7, 24344, Note_on_c, 1, 81, 0
7, 24360, Note_on_c, 1, 77, 80
7, 24360, Note_on_c, 1, 83, 80
7, 24464, Note_on_c, 1, 77, 0
7, 24464, Note_on_c, 1, 83, 0
7, 24480, Note_on_c, 1, 77, 80
7, 24480, Note_on_c, 1, 83, 80
7, 24584, Note_on_c, 1, 77, 0
7, 24584, Note_on_c, 1, 83, 0
7, 24600, Note_on_c, 1, 77, 80
7, 24600, Note_on_c, 1, 71, 80
7, 24704, Note_on_c, 1, 77, 0
7, 24704, Note_on_c, 1, 71, 0
7, 24720, Note_on_c, 1, 77, 80
7, 24720, Note_on_c, 1, 74, 80
7, 24824, Note_on_c, 1, 77, 0
7, 24824, Note_on_c, 1, 74, 0
7, 24840, Note_on_c, 1, 67, 80
7, 24840, Note_on_c, 1, 76, 80
7, 24944, Note_on_c, 1, 67, 0
7, 24944, Note_on_c, 1, 76, 0
7, 24960, Note_on_c, 1, 74, 80
7, 24960, Note_on_c, 1, 79, 80
7, 25064, Note_on_c, 1, 74, 0
7, 25064, Note_on_c, 1, 79, 0
7, 25080, Note_on_c, 1, 72, 80
7, 25080, Note_on_c, 1, 79, 80
7, 25184, Note_on_c, 1, 72, 0
7, 25184, Note_on_c, 1, 79, 0
7, 25200, Note_on_c, 1, 79, 80
7, 25200, Note_on_c, 1, 71, 80
7, 25304, Note_on_c, 1, 79, 0
7, 25304, Note_on_c, 1, 71, 0
7, 25320, Note_on_c, 1, 79, 80
7, 25320, Note_on_c, 1, 72, 80
7, 25424, Note_on_c, 1, 79, 0
7, 25424, Note_on_c, 1, 72, 0
7, 25440, Note_on_c, 1, 79, 80
7, 25440, Note_on_c, 1, 74, 80
7, 25544, Note_on_c, 1, 79, 0
7, 25544, Note_on_c, 1, 74, 0
7, 25560, Note_on_c, 1, 72, 80
7, 25560, Note_on_c, 1, 79, 80
7, 25664, Note_on_c, 1, 72, 0
7, 25664, Note_on_c, 1, 79, 0
7, 25680, Note_on_c, 1, 71, 80
7, 25680, Note_on_c, 1, 81, 80
7, 25784, Note_on_c, 1, 71, 0
7, 25784, Note_on_c, 1, 81, 0
7, 25800, Note_on_c, 1, 81, 80
7, 25800, Note_on_c, 1, 71, 80
7, 25904, Note_on_c, 1, 81, 0
7, 25904, Note_on_c, 1, 71, 0
7, 25920, Note_on_c, 1, 71, 80
7, 25920, Note_on_c, 1, 81, 80
7, 26024, Note_on_c, 1, 71, 0
7, 26024, Note_on_c, 1, 81, 0
7, 26040, Note_on_c, 1, 79, 80
7, 26040, Note_on_c, 1, 71, 80
7, 26144, Note_on_c, 1, 79, 0
7, 26144, Note_on_c, 1, 71, 0
7, 26160, Note_on_c, 1, 74, 80
7, 26160, Note_on_c, 1, 77, 80
7, 26264, Note_on_c, 1, 74, 0
7, 26264, Note_on_c, 1, 77, 0
7, 26280, Note_on_c, 1, 76, 80
7, 26280, Note_on_c, 1, 72, 80
7, 26384, Note_on_c, 1, 76, 0
7, 26384, Note_on_c, 1, 72, 0
7, 26400, Note_on_c, 1, 79, 80
7, 26400, Note_on_c, 1, 71, 80
7, 26504, Note_on_c, 1, 79, 0
7, 26504, Note_on_c, 1, 71, 0
7, 26520, Note_on_c, 1, 72, 80
7, 26520, Note_on_c, 1, 79, 80
7, 26624, Note_on_c, 1, 72, 0
7, 26624, Note_on_c, 1, 79, 0
7, 26640, Note_on_c, 1, 79, 80
7, 26640, Note_on_c, 1, 76, 80
7, 26744, Note_on_c, 1, 79, 0
7, 26744, Note_on_c, 1, 76, 0
7, 26760, Note_on_c, 1, 79, 80
7, 26760, Note_on_c, 1, 74, 80
7, 26864, Note_on_c, 1, 79, 0
7, 26864, Note_on_c, 1, 74, 0
7, 26880, Note_on_c, 1, 72, 80
7, 26880, Note_on_c, 1, 79, 80
7, 26984, Note_on_c, 1, 72, 0
7, 26984, Note_on_c, 1, 79, 0
7, 27000, Note_on_c, 1, 79, 80
7, 27000, Note_on_c, 1, 76, 80
7, 27104, Note_on_c, 1, 79, 0
7, 27104, Note_on_c, 1, 76, 0
7, 27120, Note_on_c, 1, 74, 80
7, 27120, Note_on_c, 1, 79, 80
7, 27224, Note_on_c, 1, 74, 0
7, 27224, Note_on_c, 1, 79, 0
7, 27240, Note_on_c, 1, 72, 80
7, 27240, Note_on_c, 1, 79, 80
7, 27344, Note_on_c, 1, 72, 0
7, 27344, Note_on_c, 1, 79, 0
7, 27360, Note_on_c, 1, 79, 80
7, 27420, Control_c, 1, 11, 67
7, 27720, Control_c, 1, 11, 67
7, 27759, Control_c, 1, 11, 68
7, 27798, Control_c, 1, 11, 69
7, 27837, Control_c, 1, 11, 70
7, 27876, Control_c, 1, 11, 71
7, 27915, Control_c, 1, 11, 72
7, 27954, Control_c, 1, 11, 73
7, 27993, Control_c, 1, 11, 74
7, 28032, Control_c, 1, 11, 75
7, 28071, Control_c, 1, 11, 76
7, 28080, Note_on_c, 1, 81, 80
7, 28110, Control_c, 1, 11, 77
7, 28149, Control_c, 1, 11, 78
7, 28188, Control_c, 1, 11, 79
7, 28227, Control_c, 1, 11, 80
7, 28266, Control_c, 1, 11, 81
7, 28305, Control_c, 1, 11, 82
7, 28344, Control_c, 1, 11, 83
7, 28383, Control_c, 1, 11, 84
7, 28422, Control_c, 1, 11, 85
7, 28439, Note_on_c, 1, 79, 0
7, 28440, Note_on_c, 1, 77, 80
7, 28461, Control_c, 1, 11, 86
7, 28500, Control_c, 1, 11, 87
7, 28539, Control_c, 1, 11, 88
7, 28578, Control_c, 1, 11, 89
7, 28617, Control_c, 1, 11, 90
7, 28656, Control_c, 1, 11, 91
7, 28695, Control_c, 1, 11, 92
7, 28734, Control_c, 1, 11, 93
7, 28773, Control_c, 1, 11, 94
7, 28799, Note_on_c, 1, 81, 0
7, 28800, Note_on_c, 1, 80, 80
7, 28812, Control_c, 1, 11, 95
7, 28851, Control_c, 1, 11, 96
7, 28890, Control_c, 1, 11, 97
7, 28929, Control_c, 1, 11, 98
7, 28968, Control_c, 1, 11, 99
7, 29007, Control_c, 1, 11, 100
7, 29046, Control_c, 1, 11, 101
7, 29085, Control_c, 1, 11, 102
7, 29124, Control_c, 1, 11, 103
7, 29159, Note_on_c, 1, 77, 0
7, 29159, Note_on_c, 1, 80, 0
7, 29160, Note_on_c, 1, 79, 80
7, 29160, Note_on_c, 1, 76, 80
7, 29163, Control_c, 1, 11, 104
7, 29202, Control_c, 1, 11, 105
7, 29241, Control_c, 1, 11, 106
7, 29280, Control_c, 1, 11, 107
7, 29310, Control_c, 1, 11, 105
7, 29340, Control_c, 1, 11, 104
7, 29370, Control_c, 1, 11, 102
7, 29400, Control_c, 1, 11, 100
7, 29430, Control_c, 1, 11, 99
7, 29460, Control_c, 1, 11, 97
7, 29490, Control_c, 1, 11, 95
7, 29519, Note_on_c, 1, 76, 0
7, 29520, Note_on_c, 1, 75, 80
7, 29520, Control_c, 1, 11, 94
7, 29550, Control_c, 1, 11, 92
7, 29580, Control_c, 1, 11, 90
7, 29610, Control_c, 1, 11, 89
7, 29640, Control_c, 1, 11, 87
7, 29670, Control_c, 1, 11, 85
7, 29700, Control_c, 1, 11, 84
7, 29730, Control_c, 1, 11, 82
7, 29760, Control_c, 1, 11, 80
7, 29790, Control_c, 1, 11, 79
7, 29820, Control_c, 1, 11, 77
7, 29850, Control_c, 1, 11, 75
7, 29879, Note_on_c, 1, 75, 0
7, 29880, Control_c, 1, 11, 74
7, 29880, Note_on_c, 1, 74, 80
7, 29910, Control_c, 1, 11, 72
7, 29940, Control_c, 1, 11, 70
7, 29970, Control_c, 1, 11, 69
7, 29998, Control_c, 1, 11, 49
7, 30224, Note_on_c, 1, 79, 0
7, 30224, Note_on_c, 1, 74, 0
7, 30240, Note_on_c, 1, 79, 92
7, 30240, Control_c, 1, 11, 49
7, 30277, Control_c, 1, 11, 50
7, 30314, Control_c, 1, 11, 51
7, 30351, Control_c, 1, 11, 52
7, 30388, Control_c, 1, 11, 53
7, 30425, Control_c, 1, 11, 54
7, 30462, Control_c, 1, 11, 55
7, 30498, Control_c, 1, 11, 56
7, 30535, Control_c, 1, 11, 57
7, 30572, Control_c, 1, 11, 58
7, 30609, Control_c, 1, 11, 59
7, 30646, Control_c, 1, 11, 60
7, 30683, Control_c, 1, 11, 61
7, 30720, Control_c, 1, 11, 62
7, 30757, Control_c, 1, 11, 63
7, 30794, Control_c, 1, 11, 64
7, 30831, Control_c, 1, 11, 65
7, 30868, Control_c, 1, 11, 66
7, 30905, Control_c, 1, 11, 67
7, 30942, Control_c, 1, 11, 68
7, 30960, Note_on_c, 1, 81, 92
7, 30978, Control_c, 1, 11, 69
7, 31015, Control_c, 1, 11, 70
7, 31052, Control_c, 1, 11, 71
7, 31089, Control_c, 1, 11, 72
7, 31126, Control_c, 1, 11, 73
7, 31163, Control_c, 1, 11, 74
7, 31200, Control_c, 1, 11, 75
7, 31237, Control_c, 1, 11, 76
7, 31274, Control_c, 1, 11, 77
7, 31311, Control_c, 1, 11, 78
7, 31319, Note_on_c, 1, 79, 0
7, 31320, Note_on_c, 1, 77, 92
7, 31348, Control_c, 1, 11, 79
7, 31385, Control_c, 1, 11, 80
7, 31422, Control_c, 1, 11, 81
7, 31458, Control_c, 1, 11, 82
7, 31495, Control_c, 1, 11, 83
7, 31532, Control_c, 1, 11, 84
7, 31569, Control_c, 1, 11, 85
7, 31606, Control_c, 1, 11, 86
7, 31643, Control_c, 1, 11, 87
7, 31679, Note_on_c, 1, 81, 0
7, 31679, Note_on_c, 1, 77, 0
7, 31680, Note_on_c, 1, 71, 92
7, 31680, Control_c, 1, 11, 88
7, 31680, Note_on_c, 1, 80, 92
7, 31717, Control_c, 1, 11, 89
7, 31754, Control_c, 1, 11, 90
7, 31791, Control_c, 1, 11, 91
7, 31828, Control_c, 1, 11, 92
7, 31865, Control_c, 1, 11, 93
7, 31902, Control_c, 1, 11, 94
7, 31938, Control_c, 1, 11, 95
7, 31975, Control_c, 1, 11, 96
7, 32012, Control_c, 1, 11, 97
7, 32039, Note_on_c, 1, 71, 0
7, 32039, Note_on_c, 1, 80, 0
7, 32040, Note_on_c, 1, 72, 92
7, 32040, Note_on_c, 1, 79, 92
7, 32049, Control_c, 1, 11, 98
7, 32086, Control_c, 1, 11, 99
7, 32123, Control_c, 1, 11, 100
7, 32160, Control_c, 1, 11, 101
7, 32197, Control_c, 1, 11, 102
7, 32234, Control_c, 1, 11, 103
7, 32271, Control_c, 1, 11, 104
7, 32308, Control_c, 1, 11, 105
7, 32345, Control_c, 1, 11, 106
7, 32382, Control_c, 1, 11, 107
7, 32418, Control_c, 1, 11, 108
7, 32455, Control_c, 1, 11, 109
7, 32492, Control_c, 1, 11, 110
7, 32529, Control_c, 1, 11, 111
7, 32566, Control_c, 1, 11, 112
7, 32603, Control_c, 1, 11, 113
7, 32640, Control_c, 1, 11, 114
7, 32677, Control_c, 1, 11, 115
7, 32714, Control_c, 1, 11, 116
7, 32751, Control_c, 1, 11, 117
7, 32759, Note_on_c, 1, 72, 0
7, 32760, Note_on_c, 1, 71, 92
7, 32788, Control_c, 1, 11, 118
7, 32825, Control_c, 1, 11, 119
7, 32862, Control_c, 1, 11, 120
7, 32898, Control_c, 1, 11, 121
7, 32935, Control_c, 1, 11, 122
7, 32972, Control_c, 1, 11, 123
7, 33009, Control_c, 1, 11, 124
7, 33046, Control_c, 1, 11, 125
7, 33083, Control_c, 1, 11, 127
7, 33104, Note_on_c, 1, 79, 0
7, 33104, Note_on_c, 1, 71, 0
7, 33120, Note_on_c, 1, 72, 92
7, 33120, Note_on_c, 1, 64, 92
7, 33359, Note_on_c, 1, 72, 0
7, 33359, Note_on_c, 1, 64, 0
7, 33360, Note_on_c, 1, 74, 92
7, 33360, Note_on_c, 1, 65, 92
7, 33419, Note_on_c, 1, 74, 0
7, 33419, Note_on_c, 1, 65, 0
7, 33420, Note_on_c, 1, 76, 92
7, 33420, Note_on_c, 1, 67, 92
7, 33464, Note_on_c, 1, 76, 0
7, 33464, Note_on_c, 1, 67, 0
7, 33480, Note_on_c, 1, 77, 92
7, 33480, Note_on_c, 1, 69, 92
7, 33599, Note_on_c, 1, 77, 0
7, 33599, Note_on_c, 1, 69, 0
7, 33720, Note_on_c, 1, 67, 92
7, 33720, Note_on_c, 1, 76, 92
7, 33809, Note_on_c, 1, 67, 0
7, 33809, Note_on_c, 1, 76, 0
7, 33840, Note_on_c, 1, 74, 92
7, 33840, Note_on_c, 1, 65, 92
7, 33929, Note_on_c, 1, 74, 0
7, 33929, Note_on_c, 1, 65, 0
7, 34080, Note_on_c, 1, 72, 92
7, 34080, Note_on_c, 1, 64, 92
7, 34169, Note_on_c, 1, 72, 0
7, 34169, Note_on_c, 1, 64, 0
7, 34200, Note_on_c, 1, 65, 92
7, 34200, Note_on_c, 1, 74, 92
7, 34289, Note_on_c, 1, 65, 0
7, 34289, Note_on_c, 1, 74, 0
7, 34440, Note_on_c, 1, 62, 92
7, 34440, Note_on_c, 1, 71, 92
7, 34529, Note_on_c, 1, 62, 0
7, 34529, Note_on_c, 1, 71, 0
7, 34560, Note_on_c, 1, 72, 92
7, 34560, Note_on_c, 1, 76, 92
7, 34799, Note_on_c, 1, 72, 0
7, 34799, Note_on_c, 1, 76, 0
7, 34800, Note_on_c, 1, 74, 92
7, 34800, Note_on_c, 1, 77, 92
7, 34859, Note_on_c, 1, 74, 0
7, 34859, Note_on_c, 1, 77, 0
7, 34860, Note_on_c, 1, 76, 92
7, 34860, Note_on_c, 1, 79, 92
7, 34904, Note_on_c, 1, 76, 0
7, 34904, Note_on_c, 1, 79, 0
7, 34920, Note_on_c, 1, 81, 92
7, 34920, Note_on_c, 1, 77, 92
7, 35009, Note_on_c, 1, 81, 0
7, 35009, Note_on_c, 1, 77, 0
7, 35160, Note_on_c, 1, 76, 92
7, 35160, Note_on_c, 1, 79, 92
7, 35249, Note_on_c, 1, 76, 0
7, 35249, Note_on_c, 1, 79, 0
7, 35280, Note_on_c, 1, 77, 92
7, 35280, Note_on_c, 1, 74, 92
7, 35369, Note_on_c, 1, 77, 0
7, 35369, Note_on_c, 1, 74, 0
7, 35520, Note_on_c, 1, 76, 92
7, 35520, Note_on_c, 1, 72, 92
7, 35609, Note_on_c, 1, 76, 0
7, 35609, Note_on_c, 1, 72, 0
7, 35640, Note_on_c, 1, 74, 92
7, 35640, Note_on_c, 1, 77, 92
7, 35729, Note_on_c, 1, 74, 0
7, 35729, Note_on_c, 1, 77, 0
7, 35880, Note_on_c, 1, 74, 92
7, 35880, Note_on_c, 1, 71, 92
7, 35969, Note_on_c, 1, 74, 0
7, 35969, Note_on_c, 1, 71, 0
7, 36000, Note_on_c, 1, 64, 92
7, 36000, Note_on_c, 1, 72, 92
7, 36089, Note_on_c, 1, 64, 0
7, 36089, Note_on_c, 1, 72, 0
7, 36120, Note_on_c, 1, 64, 92
7, 36120, Note_on_c, 1, 72, 92
7, 36239, Note_on_c, 1, 64, 0
7, 36239, Note_on_c, 1, 72, 0
7, 36240, Note_on_c, 1, 65, 92
7, 36240, Note_on_c, 1, 74, 92
7, 36299, Note_on_c, 1, 65, 0
7, 36299, Note_on_c, 1, 74, 0
7, 36300, Note_on_c, 1, 67, 92
7, 36300, Note_on_c, 1, 76, 92
7, 36344, Note_on_c, 1, 67, 0
7, 36344, Note_on_c, 1, 76, 0
7, 36360, Note_on_c, 1, 69, 92
7, 36360, Note_on_c, 1, 77, 92
7, 36449, Note_on_c, 1, 69, 0
7, 36449, Note_on_c, 1, 77, 0
7, 36480, Note_on_c, 1, 69, 92
7, 36480, Note_on_c, 1, 77, 92
7, 36569, Note_on_c, 1, 69, 0
7, 36569, Note_on_c, 1, 77, 0
7, 36600, Note_on_c, 1, 67, 92
7, 36600, Note_on_c, 1, 76, 92
7, 36689, Note_on_c, 1, 67, 0
7, 36689, Note_on_c, 1, 76, 0
7, 36720, Note_on_c, 1, 65, 92
7, 36720, Note_on_c, 1, 74, 92
7, 36809, Note_on_c, 1, 65, 0
7, 36809, Note_on_c, 1, 74, 0
7, 36840, Note_on_c, 1, 65, 92
7, 36840, Note_on_c, 1, 74, 92
7, 36929, Note_on_c, 1, 65, 0
7, 36929, Note_on_c, 1, 74, 0
7, 36960, Note_on_c, 1, 64, 92
7, 36960, Note_on_c, 1, 72, 92
7, 37049, Note_on_c, 1, 64, 0
7, 37049, Note_on_c, 1, 72, 0
7, 37080, Note_on_c, 1, 74, 92
7, 37080, Note_on_c, 1, 65, 92
7, 37169, Note_on_c, 1, 74, 0
7, 37169, Note_on_c, 1, 65, 0
7, 37200, Note_on_c, 1, 74, 92
7, 37200, Note_on_c, 1, 65, 92
7, 37289, Note_on_c, 1, 74, 0
7, 37289, Note_on_c, 1, 65, 0
7, 37320, Note_on_c, 1, 71, 92
7, 37320, Note_on_c, 1, 62, 92
7, 37409, Note_on_c, 1, 71, 0
7, 37409, Note_on_c, 1, 62, 0
7, 37440, Note_on_c, 1, 76, 92
7, 37440, Note_on_c, 1, 72, 92
7, 37529, Note_on_c, 1, 76, 0
7, 37529, Note_on_c, 1, 72, 0
7, 37560, Note_on_c, 1, 72, 92
7, 37560, Note_on_c, 1, 76, 92
7, 37679, Note_on_c, 1, 72, 0
7, 37679, Note_on_c, 1, 76, 0
7, 37680, Note_on_c, 1, 74, 92
7, 37680, Note_on_c, 1, 77, 92
7, 37739, Note_on_c, 1, 74, 0
7, 37739, Note_on_c, 1, 77, 0
7, 37740, Note_on_c, 1, 79, 92
7, 37740, Note_on_c, 1, 76, 92
7, 37784, Note_on_c, 1, 79, 0
7, 37784, Note_on_c, 1, 76, 0
7, 37800, Note_on_c, 1, 81, 92
7, 37800, Note_on_c, 1, 77, 92
7, 37889, Note_on_c, 1, 81, 0
7, 37889, Note_on_c, 1, 77, 0
7, 37920, Note_on_c, 1, 77, 92
7, 37920, Note_on_c, 1, 81, 92
7, 38009, Note_on_c, 1, 77, 0
7, 38009, Note_on_c, 1, 81, 0
7, 38040, Note_on_c, 1, 79, 92
7, 38040, Note_on_c, 1, 76, 92
7, 38129, Note_on_c, 1, 79, 0
7, 38129, Note_on_c, 1, 76, 0
7, 38160, Note_on_c, 1, 77, 92
7, 38160, Note_on_c, 1, 74, 92
7, 38249, Note_on_c, 1, 77, 0
7, 38249, Note_on_c, 1, 74, 0
7, 38280, Note_on_c, 1, 74, 92
7, 38280, Note_on_c, 1, 77, 92
7, 38369, Note_on_c, 1, 74, 0
7, 38369, Note_on_c, 1, 77, 0
7, 38400, Note_on_c, 1, 84, 92
7, 38400, Note_on_c, 1, 76, 92
7, 38489, Note_on_c, 1, 84, 0
7, 38489, Note_on_c, 1, 76, 0
7, 38520, Note_on_c, 1, 86, 92
7, 38520, Note_on_c, 1, 77, 92
7, 38609, Note_on_c, 1, 86, 0
7, 38609, Note_on_c, 1, 77, 0
7, 38640, Note_on_c, 1, 77, 92
7, 38640, Note_on_c, 1, 86, 92
7, 38729, Note_on_c, 1, 77, 0
7, 38729, Note_on_c, 1, 86, 0
7, 38760, Note_on_c, 1, 74, 92
7, 38760, Note_on_c, 1, 83, 92
7, 38849, Note_on_c, 1, 74, 0
7, 38849, Note_on_c, 1, 83, 0
7, 38880, Note_on_c, 1, 76, 92
7, 39044, Note_on_c, 1, 76, 0
7, 39060, Note_on_c, 1, 64, 92
7, 39104, Note_on_c, 1, 64, 0
7, 39120, Note_on_c, 1, 64, 92
7, 39224, Note_on_c, 1, 64, 0
7, 39240, Note_on_c, 1, 64, 92
7, 39240, Note_on_c, 1, 76, 92
7, 39329, Note_on_c, 1, 64, 0
7, 39329, Note_on_c, 1, 76, 0
7, 39360, Note_on_c, 1, 65, 92
7, 39360, Note_on_c, 1, 77, 92
7, 39449, Note_on_c, 1, 65, 0
7, 39449, Note_on_c, 1, 77, 0
7, 39480, Note_on_c, 1, 67, 92
7, 39480, Note_on_c, 1, 79, 92
7, 39569, Note_on_c, 1, 67, 0
7, 39569, Note_on_c, 1, 79, 0
7, 39600, Note_on_c, 1, 69, 92
7, 39600, Note_on_c, 1, 81, 92
7, 39719, Note_on_c, 1, 69, 0
7, 39719, Note_on_c, 1, 81, 0
7, 39960, Note_on_c, 1, 69, 92
7, 39960, Note_on_c, 1, 81, 92
7, 40049, Note_on_c, 1, 69, 0
7, 40049, Note_on_c, 1, 81, 0
7, 40080, Note_on_c, 1, 71, 92
7, 40080, Note_on_c, 1, 83, 92
7, 40169, Note_on_c, 1, 71, 0
7, 40169, Note_on_c, 1, 83, 0
7, 40200, Note_on_c, 1, 84, 92
7, 40200, Note_on_c, 1, 72, 92
7, 40289, Note_on_c, 1, 84, 0
7, 40289, Note_on_c, 1, 72, 0
7, 40320, Note_on_c, 1, 86, 92
7, 40320, Note_on_c, 1, 74, 92
7, 40484, Note_on_c, 1, 86, 0
7, 40484, Note_on_c, 1, 74, 0
7, 40500, Note_on_c, 1, 74, 92
7, 40500, Note_on_c, 1, 62, 92
7, 40544, Note_on_c, 1, 74, 0
7, 40544, Note_on_c, 1, 62, 0
7, 40560, Note_on_c, 1, 62, 92
7, 40560, Note_on_c, 1, 74, 92
7, 40664, Note_on_c, 1, 62, 0
7, 40664, Note_on_c, 1, 74, 0
7, 40680, Note_on_c, 1, 74, 92
7, 40680, Note_on_c, 1, 62, 92
7, 40769, Note_on_c, 1, 74, 0
7, 40769, Note_on_c, 1, 62, 0
7, 40800, Note_on_c, 1, 64, 92
7, 40800, Note_on_c, 1, 76, 92
7, 40889, Note_on_c, 1, 64, 0
7, 40889, Note_on_c, 1, 76, 0
7, 40920, Note_on_c, 1, 77, 92
7, 40920, Note_on_c, 1, 65, 92
7, 41009, Note_on_c, 1, 77, 0
7, 41009, Note_on_c, 1, 65, 0
7, 41040, Note_on_c, 1, 67, 92
7, 41040, Note_on_c, 1, 79, 92
7, 41159, Note_on_c, 1, 67, 0
7, 41159, Note_on_c, 1, 79, 0
7, 41400, Note_on_c, 1, 79, 92
7, 41400, Note_on_c, 1, 67, 92
7, 41489, Note_on_c, 1, 79, 0
7, 41489, Note_on_c, 1, 67, 0
7, 41520, Note_on_c, 1, 72, 92
7, 41520, Note_on_c, 1, 84, 92
7, 41609, Note_on_c, 1, 72, 0
7, 41609, Note_on_c, 1, 84, 0
7, 41640, Note_on_c, 1, 86, 92
7, 41640, Note_on_c, 1, 74, 92
7, 41729, Note_on_c, 1, 86, 0
7, 41729, Note_on_c, 1, 74, 0
7, 41760, Note_on_c, 1, 84, 44
7, 41760, Note_on_c, 1, 72, 44
7, 41879, Note_on_c, 1, 84, 0
7, 41879, Note_on_c, 1, 72, 0
7, 43800, Control_c, 1, 11, 67
7, 43920, Control_c, 1, 11, 67
7, 43920, Note_on_c, 1, 77, 80
7, 43920, Note_on_c, 1, 72, 80
7, 43950, Control_c, 1, 11, 68
7, 43980, Control_c, 1, 11, 70
7, 44010, Control_c, 1, 11, 71
7, 44040, Control_c, 1, 11, 72
7, 44070, Control_c, 1, 11, 73
7, 44100, Control_c, 1, 11, 75
7, 44130, Control_c, 1, 11, 76
7, 44160, Control_c, 1, 11, 77
7, 44190, Control_c, 1, 11, 78
7, 44220, Control_c, 1, 11, 80
7, 44250, Control_c, 1, 11, 81
7, 44279, Note_on_c, 1, 77, 0
7, 44280, Note_on_c, 1, 76, 80
7, 44280, Control_c, 1, 11, 82
7, 44310, Control_c, 1, 11, 83
7, 44340, Control_c, 1, 11, 85
7, 44370, Control_c, 1, 11, 86
7, 44400, Control_c, 1, 11, 87
7, 44430, Control_c, 1, 11, 88
7, 44460, Control_c, 1, 11, 90
7, 44490, Control_c, 1, 11, 91
7, 44520, Control_c, 1, 11, 92
7, 44550, Control_c, 1, 11, 93
7, 44580, Control_c, 1, 11, 95
7, 44610, Control_c, 1, 11, 96
7, 44624, Note_on_c, 1, 76, 0
7, 44640, Control_c, 1, 11, 97
7, 44640, Note_on_c, 1, 76, 80
7, 44670, Control_c, 1, 11, 98
7, 44700, Control_c, 1, 11, 100
7, 44730, Control_c, 1, 11, 101
7, 44760, Control_c, 1, 11, 102
7, 44790, Control_c, 1, 11, 103
7, 44820, Control_c, 1, 11, 105
7, 44850, Control_c, 1, 11, 106
7, 44880, Control_c, 1, 11, 107
7, 44910, Control_c, 1, 11, 108
7, 44940, Control_c, 1, 11, 110
7, 44970, Control_c, 1, 11, 111
7, 45000, Control_c, 1, 11, 112
7, 45030, Control_c, 1, 11, 113
7, 45060, Control_c, 1, 11, 115
7, 45090, Control_c, 1, 11, 116
7, 45119, Note_on_c, 1, 72, 0
7, 45119, Note_on_c, 1, 76, 0
7, 45120, Note_on_c, 1, 77, 80
7, 45120, Note_on_c, 1, 74, 80
7, 45120, Control_c, 1, 11, 117
7, 45150, Control_c, 1, 11, 118
7, 45180, Control_c, 1, 11, 120
7, 45210, Control_c, 1, 11, 121
7, 45239, Note_on_c, 1, 77, 0
7, 45239, Note_on_c, 1, 74, 0
7, 45240, Control_c, 1, 11, 122
7, 45240, Note_on_c, 1, 79, 80
7, 45240, Note_on_c, 1, 76, 80
7, 45270, Control_c, 1, 11, 123
7, 45300, Control_c, 1, 11, 125
7, 45330, Control_c, 1, 11, 127
7, 45344, Note_on_c, 1, 79, 0
7, 45344, Note_on_c, 1, 76, 0
7, 45360, Note_on_c, 1, 79, 80
7, 45360, Note_on_c, 1, 67, 80
7, 45449, Note_on_c, 1, 79, 0
7, 45449, Note_on_c, 1, 67, 0
7, 45480, Note_on_c, 1, 76, 80
7, 45480, Note_on_c, 1, 64, 80
7, 45569, Note_on_c, 1, 76, 0
7, 45569, Note_on_c, 1, 64, 0
7, 45600, Note_on_c, 1, 81, 80
7, 45600, Note_on_c, 1, 69, 80
7, 45689, Note_on_c, 1, 81, 0
7, 45689, Note_on_c, 1, 69, 0
7, 45720, Note_on_c, 1, 77, 80
7, 45720, Note_on_c, 1, 65, 80
7, 45809, Note_on_c, 1, 77, 0
7, 45809, Note_on_c, 1, 65, 0
7, 45840, Note_on_c, 1, 74, 80
7, 45840, Note_on_c, 1, 62, 80
7, 45929, Note_on_c, 1, 74, 0
7, 45929, Note_on_c, 1, 62, 0
7, 45960, Note_on_c, 1, 67, 80
7, 45960, Note_on_c, 1, 79, 80
7, 46049, Note_on_c, 1, 67, 0
7, 46049, Note_on_c, 1, 79, 0
7, 46080, Note_on_c, 1, 64, 80
7, 46080, Note_on_c, 1, 76, 80
7, 46199, Note_on_c, 1, 64, 0
7, 46199, Note_on_c, 1, 76, 0
7, 46800, Note_on_c, 1, 67, 80
7, 46800, Note_on_c, 1, 79, 80
7, 46889, Note_on_c, 1, 67, 0
7, 46889, Note_on_c, 1, 79, 0
7, 46920, Note_on_c, 1, 76, 80
7, 46920, Note_on_c, 1, 64, 80
7, 47009, Note_on_c, 1, 76, 0
7, 47009, Note_on_c, 1, 64, 0
7, 47040, Note_on_c, 1, 81, 80
7, 47040, Note_on_c, 1, 69, 80
7, 47129, Note_on_c, 1, 81, 0
7, 47129, Note_on_c, 1, 69, 0
7, 47160, Note_on_c, 1, 77, 80
7, 47160, Note_on_c, 1, 65, 80
7, 47249, Note_on_c, 1, 77, 0
7, 47249, Note_on_c, 1, 65, 0
7, 47280, Note_on_c, 1, 62, 80
7, 47280, Note_on_c, 1, 74, 80
7, 47369, Note_on_c, 1, 62, 0
7, 47369, Note_on_c, 1, 74, 0
7, 47400, Note_on_c, 1, 79, 80
7, 47400, Note_on_c, 1, 67, 80
7, 47489, Note_on_c, 1, 79, 0
7, 47489, Note_on_c, 1, 67, 0
7, 47520, Note_on_c, 1, 67, 80
7, 47520, Note_on_c, 1, 79, 80
7, 47609, Note_on_c, 1, 67, 0
7, 47609, Note_on_c, 1, 79, 0
7, 47640, Note_on_c, 1, 79, 80
7, 47640, Note_on_c, 1, 67, 80
7, 47729, Note_on_c, 1, 79, 0
7, 47729, Note_on_c, 1, 67, 0
7, 47760, Note_on_c, 1, 67, 80
7, 47760, Note_on_c, 1, 79, 80
7, 47849, Note_on_c, 1, 67, 0
7, 47849, Note_on_c, 1, 79, 0
7, 47880, Note_on_c, 1, 67, 80
7, 47880, Note_on_c, 1, 79, 80
7, 47969, Note_on_c, 1, 67, 0
7, 47969, Note_on_c, 1, 79, 0
7, 48000, Note_on_c, 1, 79, 80
7, 48000, Note_on_c, 1, 67, 80
7, 48089, Note_on_c, 1, 79, 0
7, 48089, Note_on_c, 1, 67, 0
7, 48120, Note_on_c, 1, 67, 80
7, 48120, Note_on_c, 1, 79, 80
7, 48209, Note_on_c, 1, 67, 0
7, 48209, Note_on_c, 1, 79, 0
7, 48240, Note_on_c, 1, 76, 80
7, 48240, Note_on_c, 1, 84, 80
7, 48329, Note_on_c, 1, 76, 0
7, 48329, Note_on_c, 1, 84, 0
7, 48360, Note_on_c, 1, 76, 80
7, 48360, Note_on_c, 1, 79, 80
7, 48449, Note_on_c, 1, 76, 0
7, 48449, Note_on_c, 1, 79, 0
7, 48480, Note_on_c, 1, 76, 80
7, 48480, Note_on_c, 1, 84, 80
7, 48569, Note_on_c, 1, 76, 0
7, 48569, Note_on_c, 1, 84, 0
7, 48600, Note_on_c, 1, 77, 80
7, 48600, Note_on_c, 1, 86, 80
7, 48689, Note_on_c, 1, 77, 0
7, 48689, Note_on_c, 1, 86, 0
7, 48720, Note_on_c, 1, 77, 80
7, 48720, Note_on_c, 1, 79, 80
7, 48809, Note_on_c, 1, 77, 0
7, 48809, Note_on_c, 1, 79, 0
7, 48840, Note_on_c, 1, 77, 80
7, 48840, Note_on_c, 1, 86, 80
7, 48929, Note_on_c, 1, 77, 0
7, 48929, Note_on_c, 1, 86, 0
7, 48960, Note_on_c, 1, 76, 80
7, 48960, Note_on_c, 1, 84, 80
7, 49049, Note_on_c, 1, 76, 0
7, 49049, Note_on_c, 1, 84, 0
7, 49080, Note_on_c, 1, 76, 80
7, 49080, Note_on_c, 1, 79, 80
7, 49169, Note_on_c, 1, 76, 0
7, 49169, Note_on_c, 1, 79, 0
7, 49200, Note_on_c, 1, 84, 80
7, 49200, Note_on_c, 1, 76, 80
7, 49289, Note_on_c, 1, 84, 0
7, 49289, Note_on_c, 1, 76, 0
7, 49320, Note_on_c, 1, 86, 80
7, 49320, Note_on_c, 1, 77, 80
7, 49409, Note_on_c, 1, 86, 0
7, 49409, Note_on_c, 1, 77, 0
7, 49440, Note_on_c, 1, 77, 80
7, 49440, Note_on_c, 1, 79, 80
7, 49529, Note_on_c, 1, 77, 0
7, 49529, Note_on_c, 1, 79, 0
7, 49560, Note_on_c, 1, 77, 80
7, 49560, Note_on_c, 1, 86, 80
7, 49649, Note_on_c, 1, 77, 0
7, 49649, Note_on_c, 1, 86, 0
7, 50040, Note_on_c, 1, 72, 32
7, 50159, Note_on_c, 1, 72, 0
7, 50160, Note_on_c, 1, 74, 32
7, 50279, Note_on_c, 1, 74, 0
7, 50280, Note_on_c, 1, 76, 32
7, 50399, Note_on_c, 1, 76, 0
7, 50400, Note_on_c, 1, 77, 32
7, 50519, Note_on_c, 1, 77, 0
7, 50520, Note_on_c, 1, 76, 32
7, 50639, Note_on_c, 1, 76, 0
7, 50640, Note_on_c, 1, 77, 32
7, 50759, Note_on_c, 1, 77, 0
7, 50760, Note_on_c, 1, 79, 32
7, 50879, Note_on_c, 1, 79, 0
7, 50880, Note_on_c, 1, 81, 32
7, 50999, Note_on_c, 1, 81, 0
7, 51000, Note_on_c, 1, 83, 32
7, 51119, Note_on_c, 1, 83, 0
7, 51120, Note_on_c, 1, 84, 32
7, 51239, Note_on_c, 1, 84, 0
7, 51480, Note_on_c, 1, 72, 32
7, 51644, Note_on_c, 1, 72, 0
7, 51660, Note_on_c, 1, 72, 32
7, 51704, Note_on_c, 1, 72, 0
7, 51720, Note_on_c, 1, 72, 32
7, 51824, Note_on_c, 1, 72, 0
7, 51840, Note_on_c, 1, 72, 32
7, 51959, Note_on_c, 1, 72, 0
7, 52200, Note_on_c, 1, 74, 32
7, 52364, Note_on_c, 1, 74, 0
7, 52380, Note_on_c, 1, 74, 32
7, 52424, Note_on_c, 1, 74, 0
7, 52440, Note_on_c, 1, 74, 32
7, 52544, Note_on_c, 1, 74, 0
7, 52560, Note_on_c, 1, 74, 32
7, 52679, Note_on_c, 1, 74, 0
7, 54000, Note_on_c, 1, 81, 44
7, 54119, Note_on_c, 1, 81, 0
7, 54360, Note_on_c, 1, 74, 44
7, 54479, Note_on_c, 1, 74, 0
7, 54720, Note_on_c, 1, 76, 44
7, 54839, Note_on_c, 1, 76, 0
7, 55080, Note_on_c, 1, 77, 44
7, 55199, Note_on_c, 1, 77, 0
7, 55440, Note_on_c, 1, 77, 32
7, 55559, Note_on_c, 1, 77, 0
7, 55800, Note_on_c, 1, 72, 32
7, 55919, Note_on_c, 1, 72, 0
7, 56160, Note_on_c, 1, 68, 32
7, 56279, Note_on_c, 1, 68, 0
7, 56520, Note_on_c, 1, 69, 32
7, 56639, Note_on_c, 1, 69, 0
7, 56880, Note_on_c, 1, 67, 32
7, 56999, Note_on_c, 1, 67, 0
7, 57240, Note_on_c, 1, 62, 32
7, 57359, Note_on_c, 1, 62, 0
7, 57600, Note_on_c, 1, 69, 32
7, 57719, Note_on_c, 1, 69, 0
7, 57960, Note_on_c, 1, 69, 32
7, 58079, Note_on_c, 1, 69, 0
7, 58320, Note_on_c, 1, 74, 32
7, 58439, Note_on_c, 1, 74, 0
7, 58680, Note_on_c, 1, 76, 32
7, 58799, Note_on_c, 1, 76, 0
7, 59040, Note_on_c, 1, 76, 32
7, 59159, Note_on_c, 1, 76, 0
7, 59400, Note_on_c, 1, 76, 32
7, 59519, Note_on_c, 1, 76, 0
7, 59760, Note_on_c, 1, 79, 32
7, 59879, Note_on_c, 1, 79, 0
7, 60120, Note_on_c, 1, 77, 32
7, 60239, Note_on_c, 1, 77, 0
7, 60480, Note_on_c, 1, 81, 32
7, 60599, Note_on_c, 1, 81, 0
7, 60840, Note_on_c, 1, 81, 32
7, 60959, Note_on_c, 1, 81, 0
7, 61200, Note_on_c, 1, 81, 32
7, 61319, Note_on_c, 1, 81, 0
7, 61560, Note_on_c, 1, 81, 32
7, 61679, Note_on_c, 1, 81, 0
7, 61920, Note_on_c, 1, 83, 32
7, 62039, Note_on_c, 1, 83, 0
7, 62280, Note_on_c, 1, 76, 32
7, 62399, Note_on_c, 1, 76, 0
7, 62640, Note_on_c, 1, 81, 32
7, 62729, Note_on_c, 1, 81, 0
7, 62760, Note_on_c, 1, 81, 32
7, 62849, Note_on_c, 1, 81, 0
7, 62880, Note_on_c, 1, 81, 32
7, 62969, Note_on_c, 1, 81, 0
7, 63000, Note_on_c, 1, 81, 32
7, 63089, Note_on_c, 1, 81, 0
7, 63120, Note_on_c, 1, 81, 32
7, 63209, Note_on_c, 1, 81, 0
7, 63240, Note_on_c, 1, 81, 32
7, 63329, Note_on_c, 1, 81, 0
7, 63360, Note_on_c, 1, 82, 32
7, 63449, Note_on_c, 1, 82, 0
7, 63480, Note_on_c, 1, 81, 32
7, 63569, Note_on_c, 1, 81, 0
7, 63600, Note_on_c, 1, 79, 32
7, 63689, Note_on_c, 1, 79, 0
7, 63720, Note_on_c, 1, 77, 32
7, 63809, Note_on_c, 1, 77, 0
7, 63840, Note_on_c, 1, 76, 32
7, 63929, Note_on_c, 1, 76, 0
7, 63960, Note_on_c, 1, 74, 32
7, 64049, Note_on_c, 1, 74, 0
7, 64080, Note_on_c, 1, 74, 32
7, 64080, Note_on_c, 1, 77, 32
7, 64199, Note_on_c, 1, 74, 0
7, 64199, Note_on_c, 1, 77, 0
7, 64440, Note_on_c, 1, 72, 32
7, 64440, Note_on_c, 1, 69, 32
7, 64559, Note_on_c, 1, 72, 0
7, 64559, Note_on_c, 1, 69, 0
7, 64800, Note_on_c, 1, 71, 32
7, 64800, Note_on_c, 1, 74, 32
7, 64919, Note_on_c, 1, 71, 0
7, 64919, Note_on_c, 1, 74, 0
7, 65160, Note_on_c, 1, 76, 32
7, 65160, Note_on_c, 1, 72, 32
7, 65279, Note_on_c, 1, 76, 0
7, 65279, Note_on_c, 1, 72, 0
7, 65520, Note_on_c, 1, 73, 32
7, 65609, Note_on_c, 1, 73, 0
7, 65640, Note_on_c, 1, 74, 32
7, 65729, Note_on_c, 1, 74, 0
7, 65760, Note_on_c, 1, 76, 32
7, 65849, Note_on_c, 1, 76, 0
7, 65880, Note_on_c, 1, 77, 32
7, 65969, Note_on_c, 1, 77, 0
7, 66000, Note_on_c, 1, 79, 32
7, 66089, Note_on_c, 1, 79, 0
7, 66120, Note_on_c, 1, 81, 32
7, 66209, Note_on_c, 1, 81, 0
7, 66240, Note_on_c, 1, 82, 32
7, 66329, Note_on_c, 1, 82, 0
7, 66360, Note_on_c, 1, 81, 32
7, 66449, Note_on_c, 1, 81, 0
7, 66480, Note_on_c, 1, 79, 32
7, 66569, Note_on_c, 1, 79, 0
7, 66600, Note_on_c, 1, 77, 32
7, 66689, Note_on_c, 1, 77, 0
7, 66720, Note_on_c, 1, 76, 32
7, 66809, Note_on_c, 1, 76, 0
7, 66840, Note_on_c, 1, 74, 32
7, 66929, Note_on_c, 1, 74, 0
7, 66960, Note_on_c, 1, 73, 32
7, 67049, Note_on_c, 1, 73, 0
7, 67080, Note_on_c, 1, 74, 33
7, 67169, Note_on_c, 1, 74, 0
7, 67200, Note_on_c, 1, 76, 35
7, 67289, Note_on_c, 1, 76, 0
7, 67320, Note_on_c, 1, 74, 37
7, 67409, Note_on_c, 1, 74, 0
7, 67440, Note_on_c, 1, 73, 38
7, 67529, Note_on_c, 1, 73, 0
7, 67560, Note_on_c, 1, 74, 40
7, 67649, Note_on_c, 1, 74, 0
7, 67680, Note_on_c, 1, 73, 42
7, 67769, Note_on_c, 1, 73, 0
7, 67800, Note_on_c, 1, 74, 43
7, 67889, Note_on_c, 1, 74, 0
7, 67920, Note_on_c, 1, 76, 45
7, 68009, Note_on_c, 1, 76, 0
7, 68040, Note_on_c, 1, 74, 47
7, 68129, Note_on_c, 1, 74, 0
7, 68160, Note_on_c, 1, 73, 48
7, 68249, Note_on_c, 1, 73, 0
7, 68280, Note_on_c, 1, 74, 50
7, 68369, Note_on_c, 1, 74, 0
7, 68400, Note_on_c, 1, 73, 52
7, 68489, Note_on_c, 1, 73, 0
7, 68520, Note_on_c, 1, 74, 53
7, 68609, Note_on_c, 1, 74, 0
7, 68640, Note_on_c, 1, 76, 55
7, 68729, Note_on_c, 1, 76, 0
7, 68760, Note_on_c, 1, 74, 57
7, 68849, Note_on_c, 1, 74, 0
7, 68880, Note_on_c, 1, 73, 58
7, 68969, Note_on_c, 1, 73, 0
7, 69000, Note_on_c, 1, 74, 60
7, 69089, Note_on_c, 1, 74, 0
7, 69120, Note_on_c, 1, 73, 62
7, 69120, Note_on_c, 1, 76, 62
7, 69209, Note_on_c, 1, 73, 0
7, 69209, Note_on_c, 1, 76, 0
7, 69240, Note_on_c, 1, 77, 63
7, 69240, Note_on_c, 1, 74, 63
7, 69329, Note_on_c, 1, 77, 0
7, 69329, Note_on_c, 1, 74, 0
7, 69360, Note_on_c, 1, 79, 65
7, 69360, Note_on_c, 1, 76, 65
7, 69449, Note_on_c, 1, 79, 0
7, 69449, Note_on_c, 1, 76, 0
7, 69480, Note_on_c, 1, 74, 67
7, 69480, Note_on_c, 1, 77, 67
7, 69569, Note_on_c, 1, 74, 0
7, 69569, Note_on_c, 1, 77, 0
7, 69600, Note_on_c, 1, 73, 68
7, 69600, Note_on_c, 1, 76, 68
7, 69689, Note_on_c, 1, 73, 0
7, 69689, Note_on_c, 1, 76, 0
7, 69720, Note_on_c, 1, 74, 70
7, 69720, Note_on_c, 1, 77, 70
7, 69809, Note_on_c, 1, 74, 0
7, 69809, Note_on_c, 1, 77, 0
7, 69840, Note_on_c, 1, 76, 72
7, 69840, Note_on_c, 1, 73, 72
7, 69929, Note_on_c, 1, 76, 0
7, 69929, Note_on_c, 1, 73, 0
7, 69960, Note_on_c, 1, 77, 73
7, 69960, Note_on_c, 1, 74, 73
7, 70049, Note_on_c, 1, 77, 0
7, 70049, Note_on_c, 1, 74, 0
7, 70080, Note_on_c, 1, 79, 75
7, 70080, Note_on_c, 1, 76, 75
7, 70169, Note_on_c, 1, 79, 0
7, 70169, Note_on_c, 1, 76, 0
7, 70200, Note_on_c, 1, 77, 77
7, 70200, Note_on_c, 1, 74, 77
7, 70289, Note_on_c, 1, 77, 0
7, 70289, Note_on_c, 1, 74, 0
7, 70320, Note_on_c, 1, 76, 78
7, 70320, Note_on_c, 1, 73, 78
7, 70409, Note_on_c, 1, 76, 0
7, 70409, Note_on_c, 1, 73, 0
7, 70440, Note_on_c, 1, 77, 80
7, 70440, Note_on_c, 1, 74, 80
7, 70529, Note_on_c, 1, 77, 0
7, 70529, Note_on_c, 1, 74, 0
7, 70560, Note_on_c, 1, 73, 82
7, 70560, Note_on_c, 1, 76, 82
7, 70649, Note_on_c, 1, 73, 0
7, 70649, Note_on_c, 1, 76, 0
7, 70680, Note_on_c, 1, 74, 83
7, 70680, Note_on_c, 1, 77, 83
7, 70769, Note_on_c, 1, 74, 0
7, 70769, Note_on_c, 1, 77, 0
7, 70800, Note_on_c, 1, 76, 85
7, 70800, Note_on_c, 1, 79, 85
7, 70889, Note_on_c, 1, 76, 0
7, 70889, Note_on_c, 1, 79, 0
7, 70920, Note_on_c, 1, 76, 87
7, 70920, Note_on_c, 1, 73, 87
7, 71009, Note_on_c, 1, 76, 0
7, 71009, Note_on_c, 1, 73, 0
7, 71040, Note_on_c, 1, 74, 88
7, 71040, Note_on_c, 1, 77, 88
7, 71129, Note_on_c, 1, 74, 0
7, 71129, Note_on_c, 1, 77, 0
7, 71160, Note_on_c, 1, 79, 90
7, 71160, Note_on_c, 1, 76, 90
7, 71249, Note_on_c, 1, 79, 0
7, 71249, Note_on_c, 1, 76, 0
7, 71280, Note_on_c, 1, 77, 92
7, 71280, Note_on_c, 1, 81, 92
7, 71444, Note_on_c, 1, 77, 0
7, 71444, Note_on_c, 1, 81, 0
7, 71460, Note_on_c, 1, 69, 92
7, 71504, Note_on_c, 1, 69, 0
7, 71520, Note_on_c, 1, 69, 92
7, 71624, Note_on_c, 1, 69, 0
7, 71640, Note_on_c, 1, 74, 92
7, 71640, Note_on_c, 1, 81, 92
7, 71744, Note_on_c, 1, 74, 0
7, 71744, Note_on_c, 1, 81, 0
7, 71760, Note_on_c, 1, 81, 92
7, 71760, Note_on_c, 1, 76, 92
7, 71864, Note_on_c, 1, 81, 0
7, 71864, Note_on_c, 1, 76, 0
7, 71880, Note_on_c, 1, 81, 92
7, 71880, Note_on_c, 1, 77, 92
7, 71984, Note_on_c, 1, 81, 0
7, 71984, Note_on_c, 1, 77, 0
7, 72000, Note_on_c, 1, 76, 92
7, 72000, Note_on_c, 1, 81, 92
7, 72104, Note_on_c, 1, 76, 0
7, 72104, Note_on_c, 1, 81, 0
7, 72120, Note_on_c, 1, 81, 92
7, 72120, Note_on_c, 1, 77, 92
7, 72224, Note_on_c, 1, 81, 0
7, 72224, Note_on_c, 1, 77, 0
7, 72240, Note_on_c, 1, 79, 92
7, 72240, Note_on_c, 1, 81, 92
7, 72344, Note_on_c, 1, 79, 0
7, 72344, Note_on_c, 1, 81, 0
7, 72360, Note_on_c, 1, 77, 92
7, 72360, Note_on_c, 1, 81, 92
7, 72464, Note_on_c, 1, 77, 0
7, 72464, Note_on_c, 1, 81, 0
7, 72480, Note_on_c, 1, 81, 92
7, 72480, Note_on_c, 1, 76, 92
7, 72584, Note_on_c, 1, 81, 0
7, 72584, Note_on_c, 1, 76, 0
7, 72600, Note_on_c, 1, 81, 92
7, 72600, Note_on_c, 1, 74, 92
7, 72704, Note_on_c, 1, 81, 0
7, 72704, Note_on_c, 1, 74, 0
7, 72720, Note_on_c, 1, 82, 80
7, 72720, Note_on_c, 1, 74, 80
7, 72824, Note_on_c, 1, 82, 0
7, 72824, Note_on_c, 1, 74, 0
7, 72840, Note_on_c, 1, 81, 80
7, 72840, Note_on_c, 1, 74, 80
7, 72944, Note_on_c, 1, 81, 0
7, 72944, Note_on_c, 1, 74, 0
7, 72960, Note_on_c, 1, 74, 80
7, 72960, Note_on_c, 1, 79, 80
7, 73064, Note_on_c, 1, 74, 0
7, 73064, Note_on_c, 1, 79, 0
7, 73080, Note_on_c, 1, 77, 80
7, 73080, Note_on_c, 1, 69, 80
7, 73184, Note_on_c, 1, 77, 0
7, 73184, Note_on_c, 1, 69, 0
7, 73200, Note_on_c, 1, 76, 80
7, 73200, Note_on_c, 1, 81, 80
7, 73304, Note_on_c, 1, 76, 0
7, 73304, Note_on_c, 1, 81, 0
7, 73320, Note_on_c, 1, 81, 80
7, 73320, Note_on_c, 1, 74, 80
7, 73424, Note_on_c, 1, 81, 0
7, 73424, Note_on_c, 1, 74, 0
7, 73440, Note_on_c, 1, 73, 80
7, 73440, Note_on_c, 1, 81, 80
7, 73544, Note_on_c, 1, 73, 0
7, 73544, Note_on_c, 1, 81, 0
7, 73560, Note_on_c, 1, 81, 80
7, 73560, Note_on_c, 1, 74, 80
7, 73664, Note_on_c, 1, 81, 0
7, 73664, Note_on_c, 1, 74, 0
7, 73680, Note_on_c, 1, 76, 80
7, 73680, Note_on_c, 1, 81, 80
7, 73784, Note_on_c, 1, 76, 0
7, 73784, Note_on_c, 1, 81, 0
7, 73800, Note_on_c, 1, 74, 80
7, 73800, Note_on_c, 1, 81, 80
7, 73904, Note_on_c, 1, 74, 0
7, 73904, Note_on_c, 1, 81, 0
7, 73920, Note_on_c, 1, 81, 80
7, 73920, Note_on_c, 1, 73, 80
7, 74024, Note_on_c, 1, 81, 0
7, 74024, Note_on_c, 1, 73, 0
7, 74040, Note_on_c, 1, 74, 80
7, 74040, Note_on_c, 1, 81, 80
7, 74144, Note_on_c, 1, 74, 0
7, 74144, Note_on_c, 1, 81, 0
7, 74160, Note_on_c, 1, 82, 80
7, 74160, Note_on_c, 1, 74, 80
7, 74264, Note_on_c, 1, 82, 0
7, 74264, Note_on_c, 1, 74, 0
7, 74280, Note_on_c, 1, 74, 80
7, 74280, Note_on_c, 1, 81, 80
7, 74384, Note_on_c, 1, 74, 0
7, 74384, Note_on_c, 1, 81, 0
7, 74400, Note_on_c, 1, 79, 80
7, 74400, Note_on_c, 1, 74, 80
7, 74504, Note_on_c, 1, 79, 0
7, 74504, Note_on_c, 1, 74, 0
7, 74520, Note_on_c, 1, 69, 80
7, 74520, Note_on_c, 1, 77, 80
7, 74624, Note_on_c, 1, 69, 0
7, 74624, Note_on_c, 1, 77, 0
7, 74640, Note_on_c, 1, 69, 80
7, 74640, Note_on_c, 1, 76, 80
7, 74744, Note_on_c, 1, 69, 0
7, 74744, Note_on_c, 1, 76, 0
7, 74760, Note_on_c, 1, 74, 80
7, 74760, Note_on_c, 1, 69, 80
7, 74864, Note_on_c, 1, 74, 0
7, 74864, Note_on_c, 1, 69, 0
7, 74880, Note_on_c, 1, 73, 80
7, 74880, Note_on_c, 1, 81, 80
7, 74984, Note_on_c, 1, 73, 0
7, 74984, Note_on_c, 1, 81, 0
7, 75000, Note_on_c, 1, 74, 80
7, 75000, Note_on_c, 1, 81, 80
7, 75104, Note_on_c, 1, 74, 0
7, 75104, Note_on_c, 1, 81, 0
7, 75120, Note_on_c, 1, 81, 80
7, 75120, Note_on_c, 1, 76, 80
7, 75224, Note_on_c, 1, 81, 0
7, 75224, Note_on_c, 1, 76, 0
7, 75240, Note_on_c, 1, 81, 80
7, 75240, Note_on_c, 1, 69, 80
7, 75344, Note_on_c, 1, 81, 0
7, 75344, Note_on_c, 1, 69, 0
7, 75360, Note_on_c, 1, 81, 80
7, 75360, Note_on_c, 1, 77, 80
7, 75464, Note_on_c, 1, 81, 0
7, 75464, Note_on_c, 1, 77, 0
7, 75480, Note_on_c, 1, 83, 80
7, 75480, Note_on_c, 1, 77, 80
7, 75584, Note_on_c, 1, 83, 0
7, 75584, Note_on_c, 1, 77, 0
7, 75600, Note_on_c, 1, 77, 80
7, 75600, Note_on_c, 1, 83, 80
7, 75704, Note_on_c, 1, 77, 0
7, 75704, Note_on_c, 1, 83, 0
7, 75720, Note_on_c, 1, 71, 80
7, 75720, Note_on_c, 1, 77, 80
7, 75824, Note_on_c, 1, 71, 0
7, 75824, Note_on_c, 1, 77, 0
7, 75840, Note_on_c, 1, 74, 80
7, 75840, Note_on_c, 1, 77, 80
7, 75944, Note_on_c, 1, 74, 0
7, 75944, Note_on_c, 1, 77, 0
7, 75960, Note_on_c, 1, 76, 80
7, 75960, Note_on_c, 1, 67, 80
7, 76064, Note_on_c, 1, 76, 0
7, 76064, Note_on_c, 1, 67, 0
7, 76080, Note_on_c, 1, 74, 80
7, 76080, Note_on_c, 1, 79, 80
7, 76184, Note_on_c, 1, 74, 0
7, 76184, Note_on_c, 1, 79, 0
7, 76200, Note_on_c, 1, 79, 80
7, 76200, Note_on_c, 1, 72, 80
7, 76304, Note_on_c, 1, 79, 0
7, 76304, Note_on_c, 1, 72, 0
7, 76320, Note_on_c, 1, 71, 80
7, 76320, Note_on_c, 1, 79, 80
7, 76424, Note_on_c, 1, 71, 0
7, 76424, Note_on_c, 1, 79, 0
7, 76440, Note_on_c, 1, 72, 80
7, 76440, Note_on_c, 1, 79, 80
7, 76544, Note_on_c, 1, 72, 0
7, 76544, Note_on_c, 1, 79, 0
7, 76560, Note_on_c, 1, 79, 80
7, 76560, Note_on_c, 1, 74, 80
7, 76664, Note_on_c, 1, 79, 0
7, 76664, Note_on_c, 1, 74, 0
7, 76680, Note_on_c, 1, 72, 80
7, 76680, Note_on_c, 1, 79, 80
7, 76784, Note_on_c, 1, 72, 0
7, 76784, Note_on_c, 1, 79, 0
7, 76800, Note_on_c, 1, 71, 80
7, 76800, Note_on_c, 1, 81, 80
7, 76904, Note_on_c, 1, 71, 0
7, 76904, Note_on_c, 1, 81, 0
7, 76920, Note_on_c, 1, 71, 80
7, 76920, Note_on_c, 1, 81, 80
7, 77024, Note_on_c, 1, 71, 0
7, 77024, Note_on_c, 1, 81, 0
7, 77040, Note_on_c, 1, 81, 80
7, 77040, Note_on_c, 1, 71, 80
7, 77144, Note_on_c, 1, 81, 0
7, 77144, Note_on_c, 1, 71, 0
7, 77160, Note_on_c, 1, 71, 80
7, 77160, Note_on_c, 1, 79, 80
7, 77264, Note_on_c, 1, 71, 0
7, 77264, Note_on_c, 1, 79, 0
7, 77280, Note_on_c, 1, 74, 80
7, 77280, Note_on_c, 1, 77, 80
7, 77384, Note_on_c, 1, 74, 0
7, 77384, Note_on_c, 1, 77, 0
7, 77400, Note_on_c, 1, 76, 80
7, 77400, Note_on_c, 1, 72, 80
7, 77504, Note_on_c, 1, 76, 0
7, 77504, Note_on_c, 1, 72, 0
7, 77520, Note_on_c, 1, 71, 80
7, 77520, Note_on_c, 1, 79, 80
7, 77624, Note_on_c, 1, 71, 0
7, 77624, Note_on_c, 1, 79, 0
7, 77640, Note_on_c, 1, 72, 80
7, 77640, Note_on_c, 1, 79, 80
7, 77744, Note_on_c, 1, 72, 0
7, 77744, Note_on_c, 1, 79, 0
7, 77760, Note_on_c, 1, 76, 80
7, 77760, Note_on_c, 1, 79, 80
7, 77864, Note_on_c, 1, 76, 0
7, 77864, Note_on_c, 1, 79, 0
7, 77880, Note_on_c, 1, 74, 80
7, 77880, Note_on_c, 1, 79, 80
7, 77984, Note_on_c, 1, 74, 0
7, 77984, Note_on_c, 1, 79, 0
7, 78000, Note_on_c, 1, 79, 80
7, 78000, Note_on_c, 1, 72, 80
7, 78104, Note_on_c, 1, 79, 0
7, 78104, Note_on_c, 1, 72, 0
7, 78120, Note_on_c, 1, 79, 80
7, 78120, Note_on_c, 1, 76, 80
7, 78224, Note_on_c, 1, 79, 0
7, 78224, Note_on_c, 1, 76, 0
7, 78240, Note_on_c, 1, 74, 80
7, 78240, Note_on_c, 1, 79, 80
7, 78344, Note_on_c, 1, 74, 0
7, 78344, Note_on_c, 1, 79, 0
7, 78360, Note_on_c, 1, 79, 80
7, 78360, Note_on_c, 1, 72, 80
7, 78464, Note_on_c, 1, 79, 0
7, 78464, Note_on_c, 1, 72, 0
7, 78480, Note_on_c, 1, 79, 80
7, 78540, Control_c, 1, 11, 67
7, 78840, Control_c, 1, 11, 67
7, 78879, Control_c, 1, 11, 68
7, 78918, Control_c, 1, 11, 69
7, 78957, Control_c, 1, 11, 70
7, 78996, Control_c, 1, 11, 71
7, 79035, Control_c, 1, 11, 72
7, 79074, Control_c, 1, 11, 73
7, 79113, Control_c, 1, 11, 74
7, 79152, Control_c, 1, 11, 75
7, 79191, Control_c, 1, 11, 76
7, 79200, Note_on_c, 1, 81, 80
7, 79230, Control_c, 1, 11, 77
7, 79269, Control_c, 1, 11, 78
7, 79308, Control_c, 1, 11, 79
7, 79347, Control_c, 1, 11, 80
7, 79386, Control_c, 1, 11, 81
7, 79425, Control_c, 1, 11, 82
7, 79464, Control_c, 1, 11, 83
7, 79503, Control_c, 1, 11, 84
7, 79542, Control_c, 1, 11, 85
7, 79559, Note_on_c, 1, 79, 0
7, 79560, Note_on_c, 1, 77, 80
7, 79581, Control_c, 1, 11, 86
7, 79620, Control_c, 1, 11, 87
7, 79659, Control_c, 1, 11, 88
7, 79698, Control_c, 1, 11, 89
7, 79737, Control_c, 1, 11, 90
7, 79776, Control_c, 1, 11, 91
7, 79815, Control_c, 1, 11, 92
7, 79854, Control_c, 1, 11, 93
7, 79893, Control_c, 1, 11, 94
7, 79919, Note_on_c, 1, 81, 0
7, 79920, Note_on_c, 1, 80, 80
7, 79932, Control_c, 1, 11, 95
7, 79971, Control_c, 1, 11, 96
7, 80010, Control_c, 1, 11, 97
7, 80049, Control_c, 1, 11, 98
7, 80088, Control_c, 1, 11, 99
7, 80127, Control_c, 1, 11, 100
7, 80166, Control_c, 1, 11, 101
7, 80205, Control_c, 1, 11, 102
7, 80244, Control_c, 1, 11, 103
7, 80279, Note_on_c, 1, 77, 0
7, 80279, Note_on_c, 1, 80, 0
7, 80280, Note_on_c, 1, 79, 80
7, 80280, Note_on_c, 1, 76, 80
7, 80283, Control_c, 1, 11, 104
7, 80322, Control_c, 1, 11, 105
7, 80361, Control_c, 1, 11, 106
7, 80400, Control_c, 1, 11, 107
7, 80430, Control_c, 1, 11, 105
7, 80460, Control_c, 1, 11, 104
7, 80490, Control_c, 1, 11, 102
7, 80520, Control_c, 1, 11, 100
7, 80550, Control_c, 1, 11, 99
7, 80580, Control_c, 1, 11, 97
7, 80610, Control_c, 1, 11, 95
7, 80639, Note_on_c, 1, 76, 0
7, 80640, Control_c, 1, 11, 94
7, 80640, Note_on_c, 1, 75, 80
7, 80670, Control_c, 1, 11, 92
7, 80700, Control_c, 1, 11, 90
7, 80730, Control_c, 1, 11, 89
7, 80760, Control_c, 1, 11, 87
7, 80790, Control_c, 1, 11, 85
7, 80820, Control_c, 1, 11, 84
7, 80850, Control_c, 1, 11, 82
7, 80880, Control_c, 1, 11, 80
7, 80910, Control_c, 1, 11, 79
7, 80940, Control_c, 1, 11, 77
7, 80970, Control_c, 1, 11, 75
7, 80999, Note_on_c, 1, 75, 0
7, 81000, Note_on_c, 1, 74, 80
7, 81000, Control_c, 1, 11, 74
7, 81030, Control_c, 1, 11, 72
7, 81060, Control_c, 1, 11, 70
7, 81090, Control_c, 1, 11, 69
7, 81118, Control_c, 1, 11, 49
7, 81344, Note_on_c, 1, 79, 0
7, 81344, Note_on_c, 1, 74, 0
7, 81360, Control_c, 1, 11, 49
7, 81360, Note_on_c, 1, 79, 92
7, 81397, Control_c, 1, 11, 50
7, 81434, Control_c, 1, 11, 51
7, 81471, Control_c, 1, 11, 52
7, 81508, Control_c, 1, 11, 53
7, 81545, Control_c, 1, 11, 54
7, 81582, Control_c, 1, 11, 55
7, 81618, Control_c, 1, 11, 56
7, 81655, Control_c, 1, 11, 57
7, 81692, Control_c, 1, 11, 58
7, 81729, Control_c, 1, 11, 59
7, 81766, Control_c, 1, 11, 60
7, 81803, Control_c, 1, 11, 61
7, 81840, Control_c, 1, 11, 62
7, 81877, Control_c, 1, 11, 63
7, 81914, Control_c, 1, 11, 64
7, 81951, Control_c, 1, 11, 65
7, 81988, Control_c, 1, 11, 66
7, 82025, Control_c, 1, 11, 67
7, 82062, Control_c, 1, 11, 68
7, 82080, Note_on_c, 1, 81, 92
7, 82098, Control_c, 1, 11, 69
7, 82135, Control_c, 1, 11, 70
7, 82172, Control_c, 1, 11, 71
7, 82209, Control_c, 1, 11, 72
7, 82246, Control_c, 1, 11, 73
7, 82283, Control_c, 1, 11, 74
7, 82320, Control_c, 1, 11, 75
7, 82357, Control_c, 1, 11, 76
7, 82394, Control_c, 1, 11, 77
7, 82431, Control_c, 1, 11, 78
7, 82439, Note_on_c, 1, 79, 0
7, 82440, Note_on_c, 1, 77, 92
7, 82468, Control_c, 1, 11, 79
7, 82505, Control_c, 1, 11, 80
7, 82542, Control_c, 1, 11, 81
7, 82578, Control_c, 1, 11, 82
7, 82615, Control_c, 1, 11, 83
7, 82652, Control_c, 1, 11, 84
7, 82689, Control_c, 1, 11, 85
7, 82726, Control_c, 1, 11, 86
7, 82763, Control_c, 1, 11, 87
7, 82799, Note_on_c, 1, 81, 0
7, 82799, Note_on_c, 1, 77, 0
7, 82800, Note_on_c, 1, 80, 92
7, 82800, Control_c, 1, 11, 88
7, 82800, Note_on_c, 1, 71, 92
7, 82837, Control_c, 1, 11, 89
7, 82874, Control_c, 1, 11, 90
7, 82911, Control_c, 1, 11, 91
7, 82948, Control_c, 1, 11, 92
7, 82985, Control_c, 1, 11, 93
7, 83022, Control_c, 1, 11, 94
7, 83058, Control_c, 1, 11, 95
7, 83095, Control_c, 1, 11, 96
7, 83132, Control_c, 1, 11, 97
7, 83159, Note_on_c, 1, 80, 0
7, 83159, Note_on_c, 1, 71, 0
7, 83160, Note_on_c, 1, 72, 92
7, 83160, Note_on_c, 1, 79, 92
7, 83169, Control_c, 1, 11, 98
7, 83206, Control_c, 1, 11, 99
7, 83243, Control_c, 1, 11, 100
7, 83280, Control_c, 1, 11, 101
7, 83317, Control_c, 1, 11, 102
7, 83354, Control_c, 1, 11, 103
7, 83391, Control_c, 1, 11, 104
7, 83428, Control_c, 1, 11, 105
7, 83465, Control_c, 1, 11, 106
7, 83502, Control_c, 1, 11, 107
7, 83538, Control_c, 1, 11, 108
7, 83575, Control_c, 1, 11, 109
7, 83612, Control_c, 1, 11, 110
7, 83649, Control_c, 1, 11, 111
7, 83686, Control_c, 1, 11, 112
7, 83723, Control_c, 1, 11, 113
7, 83760, Control_c, 1, 11, 114
7, 83797, Control_c, 1, 11, 115
7, 83834, Control_c, 1, 11, 116
7, 83871, Control_c, 1, 11, 117
7, 83879, Note_on_c, 1, 72, 0
7, 83880, Note_on_c, 1, 71, 92
7, 83908, Control_c, 1, 11, 118
7, 83945, Control_c, 1, 11, 119
7, 83982, Control_c, 1, 11, 120
7, 84018, Control_c, 1, 11, 121
7, 84055, Control_c, 1, 11, 122
7, 84092, Control_c, 1, 11, 123
7, 84129, Control_c, 1, 11, 124
7, 84166, Control_c, 1, 11, 125
7, 84203, Control_c, 1, 11, 127
7, 84224, Note_on_c, 1, 79, 0
7, 84224, Note_on_c, 1, 71, 0
7, 84240, Note_on_c, 1, 72, 92
7, 84240, Note_on_c, 1, 64, 92
7, 84479, Note_on_c, 1, 72, 0
7, 84479, Note_on_c, 1, 64, 0
7, 84480, Note_on_c, 1, 65, 92
7, 84480, Note_on_c, 1, 74, 92
7, 84539, Note_on_c, 1, 65, 0
7, 84539, Note_on_c, 1, 74, 0
7, 84540, Note_on_c, 1, 76, 92
7, 84540, Note_on_c, 1, 67, 92
7, 84584, Note_on_c, 1, 76, 0
7, 84584, Note_on_c, 1, 67, 0
7, 84600, Note_on_c, 1, 77, 92
7, 84600, Note_on_c, 1, 69, 92
7, 84719, Note_on_c, 1, 77, 0
7, 84719, Note_on_c, 1, 69, 0
7, 84840, Note_on_c, 1, 67, 92
7, 84840, Note_on_c, 1, 76, 92
7, 84929, Note_on_c, 1, 67, 0
7, 84929, Note_on_c, 1, 76, 0
7, 84960, Note_on_c, 1, 74, 92
7, 84960, Note_on_c, 1, 65, 92
7, 85049, Note_on_c, 1, 74, 0
7, 85049, Note_on_c, 1, 65, 0
7, 85200, Note_on_c, 1, 64, 92
7, 85200, Note_on_c, 1, 72, 92
7, 85289, Note_on_c, 1, 64, 0
7, 85289, Note_on_c, 1, 72, 0
7, 85320, Note_on_c, 1, 65, 92
7, 85320, Note_on_c, 1, 74, 92
7, 85409, Note_on_c, 1, 65, 0
7, 85409, Note_on_c, 1, 74, 0
7, 85560, Note_on_c, 1, 71, 92
7, 85560, Note_on_c, 1, 62, 92
7, 85649, Note_on_c, 1, 71, 0
7, 85649, Note_on_c, 1, 62, 0
7, 85680, Note_on_c, 1, 76, 92
7, 85680, Note_on_c, 1, 72, 92
7, 85919, Note_on_c, 1, 76, 0
7, 85919, Note_on_c, 1, 72, 0
7, 85920, Note_on_c, 1, 74, 92
7, 85920, Note_on_c, 1, 77, 92
7, 85979, Note_on_c, 1, 74, 0
7, 85979, Note_on_c, 1, 77, 0
7, 85980, Note_on_c, 1, 79, 92
7, 85980, Note_on_c, 1, 76, 92
7, 86024, Note_on_c, 1, 79, 0
7, 86024, Note_on_c, 1, 76, 0
7, 86040, Note_on_c, 1, 81, 92
7, 86040, Note_on_c, 1, 77, 92
7, 86129, Note_on_c, 1, 81, 0
7, 86129, Note_on_c, 1, 77, 0
7, 86280, Note_on_c, 1, 79, 92
7, 86280, Note_on_c, 1, 76, 92
7, 86369, Note_on_c, 1, 79, 0
7, 86369, Note_on_c, 1, 76, 0
7, 86400, Note_on_c, 1, 74, 92
7, 86400, Note_on_c, 1, 77, 92
7, 86489, Note_on_c, 1, 74, 0
7, 86489, Note_on_c, 1, 77, 0
7, 86640, Note_on_c, 1, 76, 92
7, 86640, Note_on_c, 1, 72, 92
7, 86729, Note_on_c, 1, 76, 0
7, 86729, Note_on_c, 1, 72, 0
7, 86760, Note_on_c, 1, 77, 92
7, 86760, Note_on_c, 1, 74, 92
7, 86849, Note_on_c, 1, 77, 0
7, 86849, Note_on_c, 1, 74, 0
7, 87000, Note_on_c, 1, 71, 92
7, 87000, Note_on_c, 1, 74, 92
7, 87089, Note_on_c, 1, 71, 0
7, 87089, Note_on_c, 1, 74, 0
7, 87120, Note_on_c, 1, 72, 92
7, 87120, Note_on_c, 1, 64, 92
7, 87209, Note_on_c, 1, 72, 0
7, 87209, Note_on_c, 1, 64, 0
7, 87240, Note_on_c, 1, 72, 92
7, 87240, Note_on_c, 1, 64, 92
7, 87359, Note_on_c, 1, 72, 0
7, 87359, Note_on_c, 1, 64, 0
7, 87360, Note_on_c, 1, 65, 92
7, 87360, Note_on_c, 1, 74, 92
7, 87419, Note_on_c, 1, 65, 0
7, 87419, Note_on_c, 1, 74, 0
7, 87420, Note_on_c, 1, 76, 92
7, 87420, Note_on_c, 1, 67, 92
7, 87464, Note_on_c, 1, 76, 0
7, 87464, Note_on_c, 1, 67, 0
7, 87480, Note_on_c, 1, 77, 92
7, 87480, Note_on_c, 1, 69, 92
7, 87569, Note_on_c, 1, 77, 0
7, 87569, Note_on_c, 1, 69, 0
7, 87600, Note_on_c, 1, 77, 92
7, 87600, Note_on_c, 1, 69, 92
7, 87689, Note_on_c, 1, 77, 0
7, 87689, Note_on_c, 1, 69, 0
7, 87720, Note_on_c, 1, 67, 92
7, 87720, Note_on_c, 1, 76, 92
7, 87809, Note_on_c, 1, 67, 0
7, 87809, Note_on_c, 1, 76, 0
7, 87840, Note_on_c, 1, 65, 92
7, 87840, Note_on_c, 1, 74, 92
7, 87929, Note_on_c, 1, 65, 0
7, 87929, Note_on_c, 1, 74, 0
7, 87960, Note_on_c, 1, 74, 92
7, 87960, Note_on_c, 1, 65, 92
7, 88049, Note_on_c, 1, 74, 0
7, 88049, Note_on_c, 1, 65, 0
7, 88080, Note_on_c, 1, 64, 92
7, 88080, Note_on_c, 1, 72, 92
7, 88169, Note_on_c, 1, 64, 0
7, 88169, Note_on_c, 1, 72, 0
7, 88200, Note_on_c, 1, 65, 92
7, 88200, Note_on_c, 1, 74, 92
7, 88289, Note_on_c, 1, 65, 0
7, 88289, Note_on_c, 1, 74, 0
7, 88320, Note_on_c, 1, 74, 92
7, 88320, Note_on_c, 1, 65, 92
7, 88409, Note_on_c, 1, 74, 0
7, 88409, Note_on_c, 1, 65, 0
7, 88440, Note_on_c, 1, 62, 92
7, 88440, Note_on_c, 1, 71, 92
7, 88529, Note_on_c, 1, 62, 0
7, 88529, Note_on_c, 1, 71, 0
7, 88560, Note_on_c, 1, 72, 92
7, 88560, Note_on_c, 1, 76, 92
7, 88649, Note_on_c, 1, 72, 0
7, 88649, Note_on_c, 1, 76, 0
7, 88680, Note_on_c, 1, 72, 92
7, 88680, Note_on_c, 1, 76, 92
7, 88799, Note_on_c, 1, 72, 0
7, 88799, Note_on_c, 1, 76, 0
7, 88800, Note_on_c, 1, 77, 92
7, 88800, Note_on_c, 1, 74, 92
7, 88859, Note_on_c, 1, 77, 0
7, 88859, Note_on_c, 1, 74, 0
7, 88860, Note_on_c, 1, 79, 92
7, 88860, Note_on_c, 1, 76, 92
7, 88904, Note_on_c, 1, 79, 0
7, 88904, Note_on_c, 1, 76, 0
7, 88920, Note_on_c, 1, 81, 92
7, 88920, Note_on_c, 1, 77, 92
7, 89009, Note_on_c, 1, 81, 0
7, 89009, Note_on_c, 1, 77, 0
7, 89040, Note_on_c, 1, 77, 92
7, 89040, Note_on_c, 1, 81, 92
7, 89129, Note_on_c, 1, 77, 0
7, 89129, Note_on_c, 1, 81, 0
7, 89160, Note_on_c, 1, 79, 92
7, 89160, Note_on_c, 1, 76, 92
7, 89249, Note_on_c, 1, 79, 0
7, 89249, Note_on_c, 1, 76, 0
7, 89280, Note_on_c, 1, 77, 92
7, 89280, Note_on_c, 1, 74, 92
7, 89369, Note_on_c, 1, 77, 0
7, 89369, Note_on_c, 1, 74, 0
7, 89400, Note_on_c, 1, 77, 92
7, 89400, Note_on_c, 1, 74, 92
7, 89489, Note_on_c, 1, 77, 0
7, 89489, Note_on_c, 1, 74, 0
7, 89520, Note_on_c, 1, 84, 92
7, 89520, Note_on_c, 1, 76, 92
7, 89609, Note_on_c, 1, 84, 0
7, 89609, Note_on_c, 1, 76, 0
7, 89640, Note_on_c, 1, 77, 92
7, 89640, Note_on_c, 1, 86, 92
7, 89729, Note_on_c, 1, 77, 0
7, 89729, Note_on_c, 1, 86, 0
7, 89760, Note_on_c, 1, 86, 92
7, 89760, Note_on_c, 1, 77, 92
7, 89849, Note_on_c, 1, 86, 0
7, 89849, Note_on_c, 1, 77, 0
7, 89880, Note_on_c, 1, 83, 92
7, 89880, Note_on_c, 1, 74, 92
7, 89969, Note_on_c, 1, 83, 0
7, 89969, Note_on_c, 1, 74, 0
7, 90000, Note_on_c, 1, 76, 92
7, 90164, Note_on_c, 1, 76, 0
7, 90180, Note_on_c, 1, 64, 92
7, 90224, Note_on_c, 1, 64, 0
7, 90240, Note_on_c, 1, 64, 92
7, 90344, Note_on_c, 1, 64, 0
7, 90360, Note_on_c, 1, 76, 92
7, 90360, Note_on_c, 1, 64, 92
7, 90449, Note_on_c, 1, 76, 0
7, 90449, Note_on_c, 1, 64, 0
7, 90480, Note_on_c, 1, 65, 92
7, 90480, Note_on_c, 1, 77, 92
7, 90569, Note_on_c, 1, 65, 0
7, 90569, Note_on_c, 1, 77, 0
7, 90600, Note_on_c, 1, 79, 92
7, 90600, Note_on_c, 1, 67, 92
7, 90689, Note_on_c, 1, 79, 0
7, 90689, Note_on_c, 1, 67, 0
7, 90720, Note_on_c, 1, 69, 92
7, 90720, Note_on_c, 1, 81, 92
7, 90839, Note_on_c, 1, 69, 0
7, 90839, Note_on_c, 1, 81, 0
7, 91080, Note_on_c, 1, 69, 92
7, 91080, Note_on_c, 1, 81, 92
7, 91169, Note_on_c, 1, 69, 0
7, 91169, Note_on_c, 1, 81, 0
7, 91200, Note_on_c, 1, 83, 92
7, 91200, Note_on_c, 1, 71, 92
7, 91289, Note_on_c, 1, 83, 0
7, 91289, Note_on_c, 1, 71, 0
7, 91320, Note_on_c, 1, 72, 92
7, 91320, Note_on_c, 1, 84, 92
7, 91409, Note_on_c, 1, 72, 0
7, 91409, Note_on_c, 1, 84, 0
7, 91440, Note_on_c, 1, 86, 92
7, 91440, Note_on_c, 1, 74, 92
7, 91604, Note_on_c, 1, 86, 0
7, 91604, Note_on_c, 1, 74, 0
7, 91620, Note_on_c, 1, 62, 92
7, 91620, Note_on_c, 1, 74, 92
7, 91664, Note_on_c, 1, 62, 0
7, 91664, Note_on_c, 1, 74, 0
7, 91680, Note_on_c, 1, 74, 92
7, 91680, Note_on_c, 1, 62, 92
7, 91784, Note_on_c, 1, 74, 0
7, 91784, Note_on_c, 1, 62, 0
7, 91800, Note_on_c, 1, 74, 92
7, 91800, Note_on_c, 1, 62, 92
7, 91889, Note_on_c, 1, 74, 0
7, 91889, Note_on_c, 1, 62, 0
7, 91920, Note_on_c, 1, 76, 92
7, 91920, Note_on_c, 1, 64, 92
7, 92009, Note_on_c, 1, 76, 0
7, 92009, Note_on_c, 1, 64, 0
7, 92040, Note_on_c, 1, 77, 92
7, 92040, Note_on_c, 1, 65, 92
7, 92129, Note_on_c, 1, 77, 0
7, 92129, Note_on_c, 1, 65, 0
7, 92160, Note_on_c, 1, 67, 92
7, 92160, Note_on_c, 1, 79, 92
7, 92279, Note_on_c, 1, 67, 0
7, 92279, Note_on_c, 1, 79, 0
7, 92520, Note_on_c, 1, 67, 92
7, 92520, Note_on_c, 1, 79, 92
7, 92609, Note_on_c, 1, 67, 0
7, 92609, Note_on_c, 1, 79, 0
7, 92640, Note_on_c, 1, 72, 92
7, 92640, Note_on_c, 1, 84, 92
7, 92729, Note_on_c, 1, 72, 0
7, 92729, Note_on_c, 1, 84, 0
7, 92760, Note_on_c, 1, 86, 92
7, 92760, Note_on_c, 1, 74, 92
7, 92849, Note_on_c, 1, 86, 0
7, 92849, Note_on_c, 1, 74, 0
7, 92880, Note_on_c, 1, 84, 44
7, 92880, Note_on_c, 1, 72, 44
7, 92999, Note_on_c, 1, 84, 0
7, 92999, Note_on_c, 1, 72, 0
7, 94920, Control_c, 1, 11, 67
7, 95040, Note_on_c, 1, 72, 80
7, 95040, Note_on_c, 1, 77, 80
7, 95040, Control_c, 1, 11, 67
7, 95070, Control_c, 1, 11, 68
7, 95100, Control_c, 1, 11, 70
7, 95130, Control_c, 1, 11, 71
7, 95160, Control_c, 1, 11, 72
7, 95190, Control_c, 1, 11, 73
7, 95220, Control_c, 1, 11, 75
7, 95250, Control_c, 1, 11, 76
7, 95280, Control_c, 1, 11, 77
7, 95310, Control_c, 1, 11, 78
7, 95340, Control_c, 1, 11, 80
7, 95370, Control_c, 1, 11, 81
7, 95399, Note_on_c, 1, 77, 0
7, 95400, Note_on_c, 1, 76, 80
7, 95400, Control_c, 1, 11, 82
7, 95430, Control_c, 1, 11, 83
7, 95460, Control_c, 1, 11, 85
7, 95490, Control_c, 1, 11, 86
7, 95520, Control_c, 1, 11, 87
7, 95550, Control_c, 1, 11, 88
7, 95580, Control_c, 1, 11, 90
7, 95610, Control_c, 1, 11, 91
7, 95640, Control_c, 1, 11, 92
7, 95670, Control_c, 1, 11, 93
7, 95700, Control_c, 1, 11, 95
7, 95730, Control_c, 1, 11, 96
7, 95744, Note_on_c, 1, 76, 0
7, 95760, Note_on_c, 1, 76, 80
7, 95760, Control_c, 1, 11, 97
7, 95790, Control_c, 1, 11, 98
7, 95820, Control_c, 1, 11, 100
7, 95850, Control_c, 1, 11, 101
7, 95880, Control_c, 1, 11, 102
7, 95910, Control_c, 1, 11, 103
7, 95940, Control_c, 1, 11, 105
7, 95970, Control_c, 1, 11, 106
7, 96000, Control_c, 1, 11, 107
7, 96030, Control_c, 1, 11, 108
7, 96060, Control_c, 1, 11, 110
7, 96090, Control_c, 1, 11, 111
7, 96120, Control_c, 1, 11, 112
7, 96150, Control_c, 1, 11, 113
7, 96180, Control_c, 1, 11, 115
7, 96210, Control_c, 1, 11, 116
7, 96239, Note_on_c, 1, 72, 0
7, 96239, Note_on_c, 1, 76, 0
7, 96240, Control_c, 1, 11, 117
7, 96240, Note_on_c, 1, 77, 80
7, 96240, Note_on_c, 1, 74, 80
7, 96270, Control_c, 1, 11, 118
7, 96300, Control_c, 1, 11, 120
7, 96330, Control_c, 1, 11, 121
7, 96359, Note_on_c, 1, 77, 0
7, 96359, Note_on_c, 1, 74, 0
7, 96360, Note_on_c, 1, 76, 80
7, 96360, Control_c, 1, 11, 122
7, 96360, Note_on_c, 1, 79, 80
7, 96390, Control_c, 1, 11, 123
7, 96420, Control_c, 1, 11, 125
7, 96450, Control_c, 1, 11, 127
7, 96464, Note_on_c, 1, 76, 0
7, 96464, Note_on_c, 1, 79, 0
7, 96480, Note_on_c, 1, 67, 80
7, 96480, Note_on_c, 1, 79, 80
7, 96569, Note_on_c, 1, 67, 0
7, 96569, Note_on_c, 1, 79, 0
7, 96600, Note_on_c, 1, 64, 80
7, 96600, Note_on_c, 1, 76, 80
7, 96689, Note_on_c, 1, 64, 0
7, 96689, Note_on_c, 1, 76, 0
7, 96720, Note_on_c, 1, 81, 80
7, 96720, Note_on_c, 1, 69, 80
7, 96809, Note_on_c, 1, 81, 0
7, 96809, Note_on_c, 1, 69, 0
7, 96840, Note_on_c, 1, 65, 80
7, 96840, Note_on_c, 1, 77, 80
7, 96929, Note_on_c, 1, 65, 0
7, 96929, Note_on_c, 1, 77, 0
7, 96960, Note_on_c, 1, 62, 80
7, 96960, Note_on_c, 1, 74, 80
7, 97049, Note_on_c, 1, 62, 0
7, 97049, Note_on_c, 1, 74, 0
7, 97080, Note_on_c, 1, 79, 80
7, 97080, Note_on_c, 1, 67, 80
7, 97169, Note_on_c, 1, 79, 0
7, 97169, Note_on_c, 1, 67, 0
7, 97200, Note_on_c, 1, 64, 80
7, 97200, Note_on_c, 1, 76, 80
7, 97319, Note_on_c, 1, 64, 0
7, 97319, Note_on_c, 1, 76, 0
7, 97920, Note_on_c, 1, 79, 80
7, 97920, Note_on_c, 1, 67, 80
7, 98009, Note_on_c, 1, 79, 0
7, 98009, Note_on_c, 1, 67, 0
7, 98040, Note_on_c, 1, 64, 80
7, 98040, Note_on_c, 1, 76, 80
7, 98129, Note_on_c, 1, 64, 0
7, 98129, Note_on_c, 1, 76, 0
7, 98160, Note_on_c, 1, 69, 80
7, 98160, Note_on_c, 1, 81, 80
7, 98249, Note_on_c, 1, 69, 0
7, 98249, Note_on_c, 1, 81, 0
7, 98280, Note_on_c, 1, 65, 80
7, 98280, Note_on_c, 1, 77, 80
7, 98369, Note_on_c, 1, 65, 0
7, 98369, Note_on_c, 1, 77, 0
7, 98400, Note_on_c, 1, 62, 80
7, 98400, Note_on_c, 1, 74, 80
7, 98489, Note_on_c, 1, 62, 0
7, 98489, Note_on_c, 1, 74, 0
7, 98520, Note_on_c, 1, 79, 80
7, 98520, Note_on_c, 1, 67, 80
7, 98609, Note_on_c, 1, 79, 0
7, 98609, Note_on_c, 1, 67, 0
7, 98640, Note_on_c, 1, 79, 80
7, 98640, Note_on_c, 1, 67, 80
7, 98729, Note_on_c, 1, 79, 0
7, 98729, Note_on_c, 1, 67, 0
7, 98760, Note_on_c, 1, 67, 80
7, 98760, Note_on_c, 1, 79, 80
7, 98849, Note_on_c, 1, 67, 0
7, 98849, Note_on_c, 1, 79, 0
7, 98880, Note_on_c, 1, 67, 80
7, 98880, Note_on_c, 1, 79, 80
7, 98969, Note_on_c, 1, 67, 0
7, 98969, Note_on_c, 1, 79, 0
7, 99000, Note_on_c, 1, 79, 80
7, 99000, Note_on_c, 1, 67, 80
7, 99089, Note_on_c, 1, 79, 0
7, 99089, Note_on_c, 1, 67, 0
7, 99120, Note_on_c, 1, 67, 80
7, 99120, Note_on_c, 1, 79, 80
7, 99209, Note_on_c, 1, 67, 0
7, 99209, Note_on_c, 1, 79, 0
7, 99240, Note_on_c, 1, 79, 80
7, 99240, Note_on_c, 1, 67, 80
7, 99329, Note_on_c, 1, 79, 0
7, 99329, Note_on_c, 1, 67, 0
7, 99360, Note_on_c, 1, 76, 80
7, 99360, Note_on_c, 1, 84, 80
7, 99449, Note_on_c, 1, 76, 0
7, 99449, Note_on_c, 1, 84, 0
7, 99480, Note_on_c, 1, 76, 80
7, 99480, Note_on_c, 1, 79, 80
7, 99569, Note_on_c, 1, 76, 0
7, 99569, Note_on_c, 1, 79, 0
7, 99600, Note_on_c, 1, 84, 80
7, 99600, Note_on_c, 1, 76, 80
7, 99689, Note_on_c, 1, 84, 0
7, 99689, Note_on_c, 1, 76, 0
7, 99720, Note_on_c, 1, 77, 80
7, 99720, Note_on_c, 1, 86, 80
7, 99809, Note_on_c, 1, 77, 0
7, 99809, Note_on_c, 1, 86, 0
7, 99840, Note_on_c, 1, 79, 80
7, 99840, Note_on_c, 1, 77, 80
7, 99929, Note_on_c, 1, 79, 0
7, 99929, Note_on_c, 1, 77, 0
7, 99960, Note_on_c, 1, 86, 80
7, 99960, Note_on_c, 1, 77, 80
7, 100049, Note_on_c, 1, 86, 0
7, 100049, Note_on_c, 1, 77, 0
7, 100080, Note_on_c, 1, 76, 80
7, 100080, Note_on_c, 1, 84, 80
7, 100169, Note_on_c, 1, 76, 0
7, 100169, Note_on_c, 1, 84, 0
7, 100200, Note_on_c, 1, 76, 80
7, 100200, Note_on_c, 1, 79, 80
7, 100289, Note_on_c, 1, 76, 0
7, 100289, Note_on_c, 1, 79, 0
7, 100320, Note_on_c, 1, 84, 80
7, 100320, Note_on_c, 1, 76, 80
7, 100409, Note_on_c, 1, 84, 0
7, 100409, Note_on_c, 1, 76, 0
7, 100440, Note_on_c, 1, 86, 80
7, 100440, Note_on_c, 1, 77, 80
7, 100529, Note_on_c, 1, 86, 0
7, 100529, Note_on_c, 1, 77, 0
7, 100560, Note_on_c, 1, 77, 80
7, 100560, Note_on_c, 1, 79, 80
7, 100649, Note_on_c, 1, 77, 0
7, 100649, Note_on_c, 1, 79, 0
7, 100680, Note_on_c, 1, 86, 80
7, 100680, Note_on_c, 1, 77, 80
7, 100769, Note_on_c, 1, 86, 0
7, 100769, Note_on_c, 1, 77, 0
7, 101160, Note_on_c, 1, 72, 32
7, 101279, Note_on_c, 1, 72, 0
7, 101280, Note_on_c, 1, 74, 32
7, 101399, Note_on_c, 1, 74, 0
7, 101400, Note_on_c, 1, 76, 32
7, 101519, Note_on_c, 1, 76, 0
7, 101520, Note_on_c, 1, 77, 32
7, 101639, Note_on_c, 1, 77, 0
7, 101640, Note_on_c, 1, 76, 32
7, 101759, Note_on_c, 1, 76, 0
7, 101760, Note_on_c, 1, 77, 32
7, 101879, Note_on_c, 1, 77, 0
7, 101880, Note_on_c, 1, 79, 32
7, 101999, Note_on_c, 1, 79, 0
7, 102000, Note_on_c, 1, 81, 32
7, 102119, Note_on_c, 1, 81, 0
7, 102120, Note_on_c, 1, 83, 32
7, 102239, Note_on_c, 1, 83, 0
7, 102240, Note_on_c, 1, 84, 32
7, 102359, Note_on_c, 1, 84, 0
7, 102600, Note_on_c, 1, 72, 32
7, 102764, Note_on_c, 1, 72, 0
7, 102780, Note_on_c, 1, 72, 32
7, 102824, Note_on_c, 1, 72, 0
7, 102840, Note_on_c, 1, 72, 32
7, 102944, Note_on_c, 1, 72, 0
7, 102960, Note_on_c, 1, 72, 32
7, 103079, Note_on_c, 1, 72, 0
7, 103320, Note_on_c, 1, 74, 32
7, 103484, Note_on_c, 1, 74, 0
7, 103500, Note_on_c, 1, 74, 32
7, 103544, Note_on_c, 1, 74, 0
7, 103560, Note_on_c, 1, 74, 32
7, 103664, Note_on_c, 1, 74, 0
7, 103680, Note_on_c, 1, 74, 32
7, 103799, Note_on_c, 1, 74, 0
7, 105480, Note_on_c, 1, 74, 32
7, 105480, Note_on_c, 1, 70, 32
7, 105644, Note_on_c, 1, 74, 0
7, 105644, Note_on_c, 1, 70, 0
7, 105660, Note_on_c, 1, 70, 32
7, 105660, Note_on_c, 1, 74, 32
7, 105704, Note_on_c, 1, 70, 0
7, 105704, Note_on_c, 1, 74, 0
7, 105720, Note_on_c, 1, 74, 32
7, 105720, Note_on_c, 1, 70, 32
7, 105824, Note_on_c, 1, 74, 0
7, 105824, Note_on_c, 1, 70, 0
7, 105840, Note_on_c, 1, 74, 32
7, 105840, Note_on_c, 1, 70, 32
7, 105959, Note_on_c, 1, 74, 0
7, 105959, Note_on_c, 1, 70, 0
7, 106200, Note_on_c, 1, 75, 32
7, 106200, Note_on_c, 1, 70, 32
7, 106364, Note_on_c, 1, 75, 0
7, 106364, Note_on_c, 1, 70, 0
7, 106380, Note_on_c, 1, 75, 32
7, 106380, Note_on_c, 1, 70, 32
7, 106424, Note_on_c, 1, 75, 0
7, 106424, Note_on_c, 1, 70, 0
7, 106440, Note_on_c, 1, 75, 32
7, 106440, Note_on_c, 1, 70, 32
7, 106544, Note_on_c, 1, 75, 0
7, 106544, Note_on_c, 1, 70, 0
7, 106560, Note_on_c, 1, 75, 32
7, 106560, Note_on_c, 1, 70, 32
7, 106679, Note_on_c, 1, 75, 0
7, 106679, Note_on_c, 1, 70, 0
7, 108360, Note_on_c, 1, 67, 36
7, 108360, Note_on_c, 1, 75, 36
7, 108524, Note_on_c, 1, 67, 0
7, 108524, Note_on_c, 1, 75, 0
7, 108540, Note_on_c, 1, 67, 38
7, 108540, Note_on_c, 1, 75, 38
7, 108584, Note_on_c, 1, 67, 0
7, 108584, Note_on_c, 1, 75, 0
7, 108600, Note_on_c, 1, 67, 38
7, 108600, Note_on_c, 1, 75, 38
7, 108704, Note_on_c, 1, 67, 0
7, 108704, Note_on_c, 1, 75, 0
7, 108720, Note_on_c, 1, 72, 40
7, 108720, Note_on_c, 1, 75, 40
7, 108839, Note_on_c, 1, 72, 0
7, 108839, Note_on_c, 1, 75, 0
7, 109080, Note_on_c, 1, 72, 44
7, 109080, Note_on_c, 1, 77, 44
7, 109244, Note_on_c, 1, 72, 0
7, 109244, Note_on_c, 1, 77, 0
7, 109260, Note_on_c, 1, 72, 46
7, 109260, Note_on_c, 1, 77, 46
7, 109304, Note_on_c, 1, 72, 0
7, 109304, Note_on_c, 1, 77, 0
7, 109320, Note_on_c, 1, 77, 46
7, 109320, Note_on_c, 1, 72, 46
7, 109424, Note_on_c, 1, 77, 0
7, 109424, Note_on_c, 1, 72, 0
7, 109440, Note_on_c, 1, 73, 48
7, 109440, Note_on_c, 1, 77, 48
7, 109559, Note_on_c, 1, 73, 0
7, 109559, Note_on_c, 1, 77, 0
7, 109800, Note_on_c, 1, 77, 52
7, 109800, Note_on_c, 1, 73, 52
7, 109964, Note_on_c, 1, 77, 0
7, 109964, Note_on_c, 1, 73, 0
7, 109980, Note_on_c, 1, 77, 54
7, 109980, Note_on_c, 1, 73, 54
7, 110024, Note_on_c, 1, 77, 0
7, 110024, Note_on_c, 1, 73, 0
7, 110040, Note_on_c, 1, 73, 54
7, 110040, Note_on_c, 1, 77, 54
7, 110144, Note_on_c, 1, 73, 0
7, 110144, Note_on_c, 1, 77, 0
7, 110160, Note_on_c, 1, 78, 56
7, 110160, Note_on_c, 1, 73, 56
7, 110279, Note_on_c, 1, 78, 0
7, 110279, Note_on_c, 1, 73, 0
7, 110520, Note_on_c, 1, 75, 60
7, 110520, Note_on_c, 1, 78, 60
7, 110684, Note_on_c, 1, 75, 0
7, 110684, Note_on_c, 1, 78, 0
7, 110700, Note_on_c, 1, 75, 62
7, 110700, Note_on_c, 1, 78, 62
7, 110744, Note_on_c, 1, 75, 0
7, 110744, Note_on_c, 1, 78, 0
7, 110760, Note_on_c, 1, 78, 62
7, 110760, Note_on_c, 1, 75, 62
7, 110864, Note_on_c, 1, 78, 0
7, 110864, Note_on_c, 1, 75, 0
7, 110880, Note_on_c, 1, 75, 64
7, 110880, Note_on_c, 1, 78, 64
7, 110999, Note_on_c, 1, 75, 0
7, 110999, Note_on_c, 1, 78, 0
7, 111240, Note_on_c, 1, 80, 68
7, 111240, Note_on_c, 1, 75, 68
7, 111404, Note_on_c, 1, 80, 0
7, 111404, Note_on_c, 1, 75, 0
7, 111420, Note_on_c, 1, 75, 70
7, 111420, Note_on_c, 1, 80, 70
7, 111464, Note_on_c, 1, 75, 0
7, 111464, Note_on_c, 1, 80, 0
7, 111480, Note_on_c, 1, 75, 70
7, 111480, Note_on_c, 1, 80, 70
7, 111584, Note_on_c, 1, 75, 0
7, 111584, Note_on_c, 1, 80, 0
7, 111600, Note_on_c, 1, 76, 72
7, 111600, Note_on_c, 1, 80, 72
7, 111719, Note_on_c, 1, 76, 0
7, 111719, Note_on_c, 1, 80, 0
7, 111960, Note_on_c, 1, 76, 76
7, 111960, Note_on_c, 1, 80, 76
7, 112124, Note_on_c, 1, 76, 0
7, 112124, Note_on_c, 1, 80, 0
7, 112140, Note_on_c, 1, 76, 78
7, 112140, Note_on_c, 1, 80, 78
7, 112184, Note_on_c, 1, 76, 0
7, 112184, Note_on_c, 1, 80, 0
7, 112200, Note_on_c, 1, 80, 78
7, 112200, Note_on_c, 1, 76, 78
7, 112304, Note_on_c, 1, 80, 0
7, 112304, Note_on_c, 1, 76, 0
7, 112320, Note_on_c, 1, 81, 80
7, 112320, Note_on_c, 1, 76, 80
7, 112439, Note_on_c, 1, 81, 0
7, 112439, Note_on_c, 1, 76, 0
7, 112680, Note_on_c, 1, 81, 80
7, 112844, Note_on_c, 1, 81, 0
7, 112860, Note_on_c, 1, 69, 80
7, 112904, Note_on_c, 1, 69, 0
7, 112920, Note_on_c, 1, 69, 80
7, 113024, Note_on_c, 1, 69, 0
7, 113400, Note_on_c, 1, 82, 92
7, 113400, Note_on_c, 1, 70, 92
7, 113564, Note_on_c, 1, 82, 0
7, 113564, Note_on_c, 1, 70, 0
7, 113580, Note_on_c, 1, 70, 92
7, 113624, Note_on_c, 1, 70, 0
7, 113640, Note_on_c, 1, 70, 92
7, 113744, Note_on_c, 1, 70, 0
7, 114120, Note_on_c, 1, 71, 92
7, 114120, Note_on_c, 1, 83, 92
7, 114284, Note_on_c, 1, 71, 0
7, 114284, Note_on_c, 1, 83, 0
7, 114300, Note_on_c, 1, 71, 92
7, 114344, Note_on_c, 1, 71, 0
7, 114360, Note_on_c, 1, 71, 92
7, 114809, Note_on_c, 1, 71, 0
7, 115920, Note_on_c, 1, 83, 44
7, 116084, Note_on_c, 1, 83, 0
7, 116100, Note_on_c, 1, 71, 44
7, 116144, Note_on_c, 1, 71, 0
7, 116160, Note_on_c, 1, 71, 44
7, 116264, Note_on_c, 1, 71, 0
7, 116280, Note_on_c, 1, 76, 44
7, 116384, Note_on_c, 1, 76, 0
7, 116400, Note_on_c, 1, 75, 44
7, 116400, Note_on_c, 1, 78, 44
7, 116489, Note_on_c, 1, 75, 0
7, 116489, Note_on_c, 1, 78, 0
7, 116520, Note_on_c, 1, 79, 44
7, 116520, Note_on_c, 1, 76, 44
7, 116609, Note_on_c, 1, 79, 0
7, 116609, Note_on_c, 1, 76, 0
7, 116640, Note_on_c, 1, 78, 44
7, 116640, Note_on_c, 1, 75, 44
7, 116729, Note_on_c, 1, 78, 0
7, 116729, Note_on_c, 1, 75, 0
7, 116760, Note_on_c, 1, 76, 44
7, 116760, Note_on_c, 1, 79, 44
7, 116849, Note_on_c, 1, 76, 0
7, 116849, Note_on_c, 1, 79, 0
7, 116880, Note_on_c, 1, 78, 44
7, 116880, Note_on_c, 1, 81, 44
7, 116969, Note_on_c, 1, 78, 0
7, 116969, Note_on_c, 1, 81, 0
7, 117000, Note_on_c, 1, 79, 44
7, 117000, Note_on_c, 1, 76, 44
7, 117089, Note_on_c, 1, 79, 0
7, 117089, Note_on_c, 1, 76, 0
7, 117120, Note_on_c, 1, 79, 44
7, 117120, Note_on_c, 1, 83, 44
7, 117209, Note_on_c, 1, 79, 0
7, 117209, Note_on_c, 1, 83, 0
7, 117240, Note_on_c, 1, 79, 44
7, 117240, Note_on_c, 1, 83, 44
7, 117329, Note_on_c, 1, 79, 0
7, 117329, Note_on_c, 1, 83, 0
7, 117360, Note_on_c, 1, 79, 44
7, 117360, Note_on_c, 1, 83, 44
7, 117449, Note_on_c, 1, 79, 0
7, 117449, Note_on_c, 1, 83, 0
7, 117480, Note_on_c, 1, 81, 44
7, 117480, Note_on_c, 1, 78, 44
7, 117569, Note_on_c, 1, 81, 0
7, 117569, Note_on_c, 1, 78, 0
7, 117600, Note_on_c, 1, 79, 44
7, 117600, Note_on_c, 1, 76, 44
7, 117689, Note_on_c, 1, 79, 0
7, 117689, Note_on_c, 1, 76, 0
7, 117720, Note_on_c, 1, 81, 44
7, 117720, Note_on_c, 1, 78, 44
7, 117809, Note_on_c, 1, 81, 0
7, 117809, Note_on_c, 1, 78, 0
7, 117840, Note_on_c, 1, 76, 44
7, 117840, Note_on_c, 1, 79, 44
7, 117929, Note_on_c, 1, 76, 0
7, 117929, Note_on_c, 1, 79, 0
7, 117960, Note_on_c, 1, 78, 44
7, 117960, Note_on_c, 1, 75, 44
7, 118049, Note_on_c, 1, 78, 0
7, 118049, Note_on_c, 1, 75, 0
7, 118080, Note_on_c, 1, 76, 44
7, 118244, Note_on_c, 1, 76, 0
7, 118260, Note_on_c, 1, 64, 44
7, 118304, Note_on_c, 1, 64, 0
7, 118320, Note_on_c, 1, 64, 44
7, 118424, Note_on_c, 1, 64, 0
7, 118440, Note_on_c, 1, 76, 44
7, 118529, Note_on_c, 1, 76, 0
7, 118560, Note_on_c, 1, 80, 44
7, 118649, Note_on_c, 1, 80, 0
7, 118680, Note_on_c, 1, 81, 44
7, 118769, Note_on_c, 1, 81, 0
7, 118800, Note_on_c, 1, 80, 44
7, 118889, Note_on_c, 1, 80, 0
7, 118920, Note_on_c, 1, 81, 44
7, 119009, Note_on_c, 1, 81, 0
7, 119040, Note_on_c, 1, 83, 44
7, 119129, Note_on_c, 1, 83, 0
7, 119160, Note_on_c, 1, 81, 44
7, 119249, Note_on_c, 1, 81, 0
7, 119280, Note_on_c, 1, 84, 44
7, 119369, Note_on_c, 1, 84, 0
7, 119400, Note_on_c, 1, 84, 44
7, 119489, Note_on_c, 1, 84, 0
7, 119520, Note_on_c, 1, 84, 44
7, 119609, Note_on_c, 1, 84, 0
7, 119640, Note_on_c, 1, 83, 44
7, 119729, Note_on_c, 1, 83, 0
7, 119760, Note_on_c, 1, 81, 44
7, 119849, Note_on_c, 1, 81, 0
7, 119880, Note_on_c, 1, 83, 44
7, 119969, Note_on_c, 1, 83, 0
7, 120000, Note_on_c, 1, 81, 44
7, 120089, Note_on_c, 1, 81, 0
7, 120120, Note_on_c, 1, 80, 44
7, 120209, Note_on_c, 1, 80, 0
7, 120240, Note_on_c, 1, 76, 44
7, 120404, Note_on_c, 1, 76, 0
7, 120420, Note_on_c, 1, 64, 44
7, 120464, Note_on_c, 1, 64, 0
7, 120480, Note_on_c, 1, 64, 44
7, 120584, Note_on_c, 1, 64, 0
7, 120600, Note_on_c, 1, 76, 44
7, 120689, Note_on_c, 1, 76, 0
7, 120720, Note_on_c, 1, 80, 44
7, 120809, Note_on_c, 1, 80, 0
7, 120840, Note_on_c, 1, 81, 44
7, 120929, Note_on_c, 1, 81, 0
7, 120960, Note_on_c, 1, 80, 44
7, 121049, Note_on_c, 1, 80, 0
7, 121080, Note_on_c, 1, 81, 44
7, 121169, Note_on_c, 1, 81, 0
7, 121200, Note_on_c, 1, 83, 44
7, 121289, Note_on_c, 1, 83, 0
7, 121680, Note_on_c, 1, 77, 44
7, 121769, Note_on_c, 1, 77, 0
7, 121800, Note_on_c, 1, 79, 44
7, 121889, Note_on_c, 1, 79, 0
7, 121920, Note_on_c, 1, 81, 44
7, 122009, Note_on_c, 1, 81, 0
7, 122040, Note_on_c, 1, 79, 44
7, 122129, Note_on_c, 1, 79, 0
7, 122160, Note_on_c, 1, 81, 44
7, 122249, Note_on_c, 1, 81, 0
7, 122280, Note_on_c, 1, 82, 44
7, 122369, Note_on_c, 1, 82, 0
7, 122760, Note_on_c, 1, 81, 44
7, 122849, Note_on_c, 1, 81, 0
7, 122880, Note_on_c, 1, 79, 44
7, 122969, Note_on_c, 1, 79, 0
7, 123000, Note_on_c, 1, 81, 44
7, 123089, Note_on_c, 1, 81, 0
7, 123120, Note_on_c, 1, 79, 44
7, 123209, Note_on_c, 1, 79, 0
7, 123240, Note_on_c, 1, 81, 44
7, 123329, Note_on_c, 1, 81, 0
7, 123360, Note_on_c, 1, 82, 44
7, 123449, Note_on_c, 1, 82, 0
7, 123840, Note_on_c, 1, 77, 44
7, 123840, Note_on_c, 1, 81, 44
7, 123929, Note_on_c, 1, 77, 0
7, 123929, Note_on_c, 1, 81, 0
7, 123960, Note_on_c, 1, 82, 44
7, 123960, Note_on_c, 1, 79, 44
7, 124049, Note_on_c, 1, 82, 0
7, 124049, Note_on_c, 1, 79, 0
7, 124080, Note_on_c, 1, 84, 44
7, 124080, Note_on_c, 1, 81, 44
7, 124169, Note_on_c, 1, 84, 0
7, 124169, Note_on_c, 1, 81, 0
7, 124200, Note_on_c, 1, 82, 44
7, 124200, Note_on_c, 1, 79, 44
7, 124289, Note_on_c, 1, 82, 0
7, 124289, Note_on_c, 1, 79, 0
7, 124320, Note_on_c, 1, 84, 44
7, 124320, Note_on_c, 1, 81, 44
7, 124409, Note_on_c, 1, 84, 0
7, 124409, Note_on_c, 1, 81, 0
7, 124440, Note_on_c, 1, 86, 44
7, 124440, Note_on_c, 1, 82, 44
7, 124529, Note_on_c, 1, 86, 0
7, 124529, Note_on_c, 1, 82, 0
7, 124920, Note_on_c, 1, 72, 44
7, 124920, Note_on_c, 1, 69, 44
7, 125009, Note_on_c, 1, 72, 0
7, 125009, Note_on_c, 1, 69, 0
7, 125040, Note_on_c, 1, 76, 44
7, 125040, Note_on_c, 1, 67, 44
7, 125129, Note_on_c, 1, 76, 0
7, 125129, Note_on_c, 1, 67, 0
7, 125160, Note_on_c, 1, 77, 44
7, 125160, Note_on_c, 1, 69, 44
7, 125249, Note_on_c, 1, 77, 0
7, 125249, Note_on_c, 1, 69, 0
7, 125280, Note_on_c, 1, 67, 44
7, 125280, Note_on_c, 1, 76, 44
7, 125369, Note_on_c, 1, 67, 0
7, 125369, Note_on_c, 1, 76, 0
7, 125400, Note_on_c, 1, 77, 44
7, 125400, Note_on_c, 1, 69, 44
7, 125489, Note_on_c, 1, 77, 0
7, 125489, Note_on_c, 1, 69, 0
7, 125520, Note_on_c, 1, 70, 44
7, 125520, Note_on_c, 1, 79, 44
7, 125609, Note_on_c, 1, 70, 0
7, 125609, Note_on_c, 1, 79, 0
7, 125640, Note_on_c, 1, 81, 44
7, 125640, Note_on_c, 1, 77, 44
7, 125729, Note_on_c, 1, 81, 0
7, 125729, Note_on_c, 1, 77, 0
7, 125760, Note_on_c, 1, 82, 44
7, 125760, Note_on_c, 1, 79, 44
7, 125849, Note_on_c, 1, 82, 0
7, 125849, Note_on_c, 1, 79, 0
7, 125880, Note_on_c, 1, 84, 44
7, 125880, Note_on_c, 1, 81, 44
7, 125969, Note_on_c, 1, 84, 0
7, 125969, Note_on_c, 1, 81, 0
7, 126000, Note_on_c, 1, 81, 44
7, 126000, Note_on_c, 1, 84, 44
7, 126089, Note_on_c, 1, 81, 0
7, 126089, Note_on_c, 1, 84, 0
7, 126120, Note_on_c, 1, 82, 44
7, 126120, Note_on_c, 1, 79, 44
7, 126209, Note_on_c, 1, 82, 0
7, 126209, Note_on_c, 1, 79, 0
7, 126240, Note_on_c, 1, 81, 44
7, 126240, Note_on_c, 1, 77, 44
7, 126329, Note_on_c, 1, 81, 0
7, 126329, Note_on_c, 1, 77, 0
7, 126360, Note_on_c, 1, 77, 43
7, 126360, Note_on_c, 1, 81, 43
7, 126449, Note_on_c, 1, 77, 0
7, 126449, Note_on_c, 1, 81, 0
7, 126480, Note_on_c, 1, 79, 43
7, 126480, Note_on_c, 1, 82, 43
7, 126569, Note_on_c, 1, 79, 0
7, 126569, Note_on_c, 1, 82, 0
7, 126600, Note_on_c, 1, 81, 43
7, 126600, Note_on_c, 1, 77, 43
7, 126689, Note_on_c, 1, 81, 0
7, 126689, Note_on_c, 1, 77, 0
7, 127080, Note_on_c, 1, 72, 41
7, 127244, Note_on_c, 1, 72, 0
7, 127260, Note_on_c, 1, 60, 41
7, 127304, Note_on_c, 1, 60, 0
7, 127320, Note_on_c, 1, 60, 40
7, 127424, Note_on_c, 1, 60, 0
7, 127800, Note_on_c, 1, 74, 39
7, 127800, Note_on_c, 1, 77, 39
7, 127904, Note_on_c, 1, 74, 0
7, 127904, Note_on_c, 1, 77, 0
7, 127920, Note_on_c, 1, 79, 39
7, 127920, Note_on_c, 1, 76, 39
7, 128024, Note_on_c, 1, 79, 0
7, 128024, Note_on_c, 1, 76, 0
7, 128040, Note_on_c, 1, 81, 38
7, 128040, Note_on_c, 1, 77, 38
7, 128144, Note_on_c, 1, 81, 0
7, 128144, Note_on_c, 1, 77, 0
7, 128160, Note_on_c, 1, 77, 38
7, 128160, Note_on_c, 1, 81, 38
7, 128264, Note_on_c, 1, 77, 0
7, 128264, Note_on_c, 1, 81, 0
7, 128280, Note_on_c, 1, 76, 38
7, 128280, Note_on_c, 1, 79, 38
7, 128384, Note_on_c, 1, 76, 0
7, 128384, Note_on_c, 1, 79, 0
7, 128400, Note_on_c, 1, 77, 37
7, 128400, Note_on_c, 1, 74, 37
7, 128504, Note_on_c, 1, 77, 0
7, 128504, Note_on_c, 1, 74, 0
7, 128520, Note_on_c, 1, 74, 37
7, 128520, Note_on_c, 1, 77, 37
7, 128624, Note_on_c, 1, 74, 0
7, 128624, Note_on_c, 1, 77, 0
7, 128640, Note_on_c, 1, 76, 36
7, 128640, Note_on_c, 1, 79, 36
7, 128744, Note_on_c, 1, 76, 0
7, 128744, Note_on_c, 1, 79, 0
7, 128760, Note_on_c, 1, 77, 36
7, 128760, Note_on_c, 1, 74, 36
7, 128879, Note_on_c, 1, 77, 0
7, 128879, Note_on_c, 1, 74, 0
7, 129960, Note_on_c, 1, 77, 32
7, 129960, Note_on_c, 1, 74, 32
7, 130064, Note_on_c, 1, 77, 0
7, 130064, Note_on_c, 1, 74, 0
7, 130080, Note_on_c, 1, 79, 32
7, 130080, Note_on_c, 1, 76, 32
7, 130184, Note_on_c, 1, 79, 0
7, 130184, Note_on_c, 1, 76, 0
7, 130200, Note_on_c, 1, 81, 32
7, 130200, Note_on_c, 1, 77, 32
7, 130304, Note_on_c, 1, 81, 0
7, 130304, Note_on_c, 1, 77, 0
7, 130320, Note_on_c, 1, 81, 32
7, 130320, Note_on_c, 1, 77, 32
7, 130424, Note_on_c, 1, 81, 0
7, 130424, Note_on_c, 1, 77, 0
7, 130440, Note_on_c, 1, 79, 32
7, 130440, Note_on_c, 1, 76, 32
7, 130544, Note_on_c, 1, 79, 0
7, 130544, Note_on_c, 1, 76, 0
7, 130560, Note_on_c, 1, 77, 32
7, 130560, Note_on_c, 1, 74, 32
7, 130664, Note_on_c, 1, 77, 0
7, 130664, Note_on_c, 1, 74, 0
7, 130680, Note_on_c, 1, 77, 32
7, 130680, Note_on_c, 1, 74, 32
7, 130784, Note_on_c, 1, 77, 0
7, 130784, Note_on_c, 1, 74, 0
7, 130800, Note_on_c, 1, 79, 32
7, 130800, Note_on_c, 1, 76, 32
7, 130904, Note_on_c, 1, 79, 0
7, 130904, Note_on_c, 1, 76, 0
7, 130920, Note_on_c, 1, 77, 32
7, 130920, Note_on_c, 1, 74, 32
7, 131039, Note_on_c, 1, 77, 0
7, 131039, Note_on_c, 1, 74, 0
7, 132120, Note_on_c, 1, 81, 32
7, 132284, Note_on_c, 1, 81, 0
7, 132300, Note_on_c, 1, 69, 32
7, 132344, Note_on_c, 1, 69, 0
7, 132360, Note_on_c, 1, 69, 32
7, 132464, Note_on_c, 1, 69, 0
7, 132480, Note_on_c, 1, 74, 32
7, 132584, Note_on_c, 1, 74, 0
7, 132600, Note_on_c, 1, 76, 32
7, 132600, Note_on_c, 1, 73, 32
7, 132704, Note_on_c, 1, 76, 0
7, 132704, Note_on_c, 1, 73, 0
7, 132720, Note_on_c, 1, 74, 32
7, 132720, Note_on_c, 1, 77, 32
7, 132824, Note_on_c, 1, 74, 0
7, 132824, Note_on_c, 1, 77, 0
7, 132840, Note_on_c, 1, 76, 32
7, 132840, Note_on_c, 1, 73, 32
7, 132944, Note_on_c, 1, 76, 0
7, 132944, Note_on_c, 1, 73, 0
7, 132960, Note_on_c, 1, 77, 32
7, 132960, Note_on_c, 1, 74, 32
7, 133064, Note_on_c, 1, 77, 0
7, 133064, Note_on_c, 1, 74, 0
7, 133080, Note_on_c, 1, 76, 32
7, 133080, Note_on_c, 1, 79, 32
7, 133184, Note_on_c, 1, 76, 0
7, 133184, Note_on_c, 1, 79, 0
7, 133200, Note_on_c, 1, 77, 32
7, 133200, Note_on_c, 1, 74, 32
7, 133304, Note_on_c, 1, 77, 0
7, 133304, Note_on_c, 1, 74, 0
7, 133320, Note_on_c, 1, 77, 32
7, 133320, Note_on_c, 1, 81, 32
7, 133424, Note_on_c, 1, 77, 0
7, 133424, Note_on_c, 1, 81, 0
7, 133440, Note_on_c, 1, 81, 32
7, 133440, Note_on_c, 1, 77, 32
7, 133544, Note_on_c, 1, 81, 0
7, 133544, Note_on_c, 1, 77, 0
7, 133560, Note_on_c, 1, 81, 32
7, 133560, Note_on_c, 1, 77, 32
7, 133664, Note_on_c, 1, 81, 0
7, 133664, Note_on_c, 1, 77, 0
7, 133680, Note_on_c, 1, 76, 32
7, 133680, Note_on_c, 1, 79, 32
7, 133784, Note_on_c, 1, 76, 0
7, 133784, Note_on_c, 1, 79, 0
7, 133800, Note_on_c, 1, 77, 32
7, 133800, Note_on_c, 1, 74, 32
7, 133904, Note_on_c, 1, 77, 0
7, 133904, Note_on_c, 1, 74, 0
7, 133920, Note_on_c, 1, 79, 32
7, 133920, Note_on_c, 1, 76, 32
7, 134024, Note_on_c, 1, 79, 0
7, 134024, Note_on_c, 1, 76, 0
7, 134040, Note_on_c, 1, 77, 32
7, 134040, Note_on_c, 1, 74, 32
7, 134144, Note_on_c, 1, 77, 0
7, 134144, Note_on_c, 1, 74, 0
7, 134160, Note_on_c, 1, 73, 32
7, 134160, Note_on_c, 1, 76, 32
7, 134264, Note_on_c, 1, 73, 0
7, 134264, Note_on_c, 1, 76, 0
7, 134280, Note_on_c, 1, 81, 32
7, 134444, Note_on_c, 1, 81, 0
7, 134460, Note_on_c, 1, 69, 32
7, 134504, Note_on_c, 1, 69, 0
7, 134520, Note_on_c, 1, 69, 32
7, 134624, Note_on_c, 1, 69, 0
7, 134640, Note_on_c, 1, 74, 32
7, 134744, Note_on_c, 1, 74, 0
7, 134760, Note_on_c, 1, 73, 32
7, 134760, Note_on_c, 1, 76, 32
7, 134864, Note_on_c, 1, 73, 0
7, 134864, Note_on_c, 1, 76, 0
7, 134880, Note_on_c, 1, 77, 32
7, 134880, Note_on_c, 1, 74, 32
7, 134984, Note_on_c, 1, 77, 0
7, 134984, Note_on_c, 1, 74, 0
7, 135000, Note_on_c, 1, 76, 32
7, 135000, Note_on_c, 1, 73, 32
7, 135104, Note_on_c, 1, 76, 0
7, 135104, Note_on_c, 1, 73, 0
7, 135120, Note_on_c, 1, 74, 32
7, 135120, Note_on_c, 1, 77, 32
7, 135224, Note_on_c, 1, 74, 0
7, 135224, Note_on_c, 1, 77, 0
7, 135240, Note_on_c, 1, 79, 32
7, 135240, Note_on_c, 1, 76, 32
7, 135344, Note_on_c, 1, 79, 0
7, 135344, Note_on_c, 1, 76, 0
7, 135360, Note_on_c, 1, 74, 32
7, 135360, Note_on_c, 1, 77, 32
7, 135464, Note_on_c, 1, 74, 0
7, 135464, Note_on_c, 1, 77, 0
7, 135480, Note_on_c, 1, 81, 32
7, 135584, Note_on_c, 1, 81, 0
7, 135600, Note_on_c, 1, 81, 32
7, 135704, Note_on_c, 1, 81, 0
7, 135720, Note_on_c, 1, 81, 32
7, 135824, Note_on_c, 1, 81, 0
7, 135840, Note_on_c, 1, 81, 32
7, 135944, Note_on_c, 1, 81, 0
7, 135960, Note_on_c, 1, 81, 32
7, 136064, Note_on_c, 1, 81, 0
7, 136080, Note_on_c, 1, 81, 32
7, 136184, Note_on_c, 1, 81, 0
7, 136200, Note_on_c, 1, 81, 32
7, 136304, Note_on_c, 1, 81, 0
7, 136320, Note_on_c, 1, 81, 32
7, 136424, Note_on_c, 1, 81, 0
7, 136440, Note_on_c, 1, 81, 32
7, 136544, Note_on_c, 1, 81, 0
7, 136560, Note_on_c, 1, 81, 32
7, 136664, Note_on_c, 1, 81, 0
7, 136680, Note_on_c, 1, 81, 32
7, 136784, Note_on_c, 1, 81, 0
7, 136800, Note_on_c, 1, 79, 32
7, 136904, Note_on_c, 1, 79, 0
7, 136920, Note_on_c, 1, 79, 32
7, 137024, Note_on_c, 1, 79, 0
7, 137040, Note_on_c, 1, 79, 32
7, 137144, Note_on_c, 1, 79, 0
7, 137160, Note_on_c, 1, 79, 32
7, 137264, Note_on_c, 1, 79, 0
7, 137280, Note_on_c, 1, 79, 32
7, 137384, Note_on_c, 1, 79, 0
7, 137400, Note_on_c, 1, 79, 32
7, 137504, Note_on_c, 1, 79, 0
7, 137520, Note_on_c, 1, 79, 32
7, 137624, Note_on_c, 1, 79, 0
7, 137640, Note_on_c, 1, 79, 32
7, 137744, Note_on_c, 1, 79, 0
7, 137760, Note_on_c, 1, 79, 32
7, 137864, Note_on_c, 1, 79, 0
7, 137880, Note_on_c, 1, 79, 32
7, 137984, Note_on_c, 1, 79, 0
7, 138000, Note_on_c, 1, 79, 32
7, 138104, Note_on_c, 1, 79, 0
7, 138120, Note_on_c, 1, 79, 32
7, 138224, Note_on_c, 1, 79, 0
7, 138240, Note_on_c, 1, 74, 32
7, 138344, Note_on_c, 1, 74, 0
7, 138360, Note_on_c, 1, 75, 32
7, 138464, Note_on_c, 1, 75, 0
7, 138480, Note_on_c, 1, 77, 32
7, 138584, Note_on_c, 1, 77, 0
7, 138600, Note_on_c, 1, 75, 32
7, 138704, Note_on_c, 1, 75, 0
7, 138720, Note_on_c, 1, 82, 32
7, 138824, Note_on_c, 1, 82, 0
7, 138840, Note_on_c, 1, 82, 32
7, 138944, Note_on_c, 1, 82, 0
7, 138960, Note_on_c, 1, 82, 32
7, 139064, Note_on_c, 1, 82, 0
7, 139080, Note_on_c, 1, 82, 32
7, 139184, Note_on_c, 1, 82, 0
7, 139200, Note_on_c, 1, 82, 32
7, 139304, Note_on_c, 1, 82, 0
7, 139320, Note_on_c, 1, 82, 32
7, 139424, Note_on_c, 1, 82, 0
7, 139440, Note_on_c, 1, 82, 32
7, 139544, Note_on_c, 1, 82, 0
7, 139560, Note_on_c, 1, 82, 32
7, 139664, Note_on_c, 1, 82, 0
7, 139680, Note_on_c, 1, 82, 32
7, 139784, Note_on_c, 1, 82, 0
7, 139800, Note_on_c, 1, 82, 32
7, 139904, Note_on_c, 1, 82, 0
7, 139920, Note_on_c, 1, 82, 32
7, 140024, Note_on_c, 1, 82, 0
7, 140040, Note_on_c, 1, 82, 32
7, 140144, Note_on_c, 1, 82, 0
7, 140160, Note_on_c, 1, 82, 32
7, 140264, Note_on_c, 1, 82, 0
7, 140280, Note_on_c, 1, 82, 32
7, 140384, Note_on_c, 1, 82, 0
7, 140400, Note_on_c, 1, 82, 32
7, 140519, Note_on_c, 1, 82, 0
7, 141840, Note_on_c, 1, 82, 32
7, 141959, Note_on_c, 1, 82, 0
7, 142200, Note_on_c, 1, 82, 32
7, 142319, Note_on_c, 1, 82, 0
7, 142560, Note_on_c, 1, 82, 32
7, 142679, Note_on_c, 1, 82, 0
7, 142920, Note_on_c, 1, 82, 32
7, 143039, Note_on_c, 1, 82, 0
7, 143280, Note_on_c, 1, 82, 32
7, 143399, Note_on_c, 1, 82, 0
7, 144720, Note_on_c, 1, 77, 44
7, 144720, Note_on_c, 1, 74, 44
7, 144839, Note_on_c, 1, 77, 0
7, 144839, Note_on_c, 1, 74, 0
7, 145440, Note_on_c, 1, 77, 62
7, 145440, Note_on_c, 1, 65, 62
7, 145559, Note_on_c, 1, 77, 0
7, 145559, Note_on_c, 1, 65, 0
7, 146160, Note_on_c, 1, 74, 80
7, 146160, Note_on_c, 1, 77, 80
7, 146279, Note_on_c, 1, 74, 0
7, 146279, Note_on_c, 1, 77, 0
7, 146880, Note_on_c, 1, 81, 86
7, 146880, Note_on_c, 1, 77, 86
7, 146999, Note_on_c, 1, 81, 0
7, 146999, Note_on_c, 1, 77, 0
7, 147600, Note_on_c, 1, 81, 92
7, 147764, Note_on_c, 1, 81, 0
7, 147780, Note_on_c, 1, 69, 92
7, 147824, Note_on_c, 1, 69, 0
7, 147840, Note_on_c, 1, 69, 92
7, 147944, Note_on_c, 1, 69, 0
7, 147960, Note_on_c, 1, 81, 92
7, 148124, Note_on_c, 1, 81, 0
7, 148140, Note_on_c, 1, 69, 92
7, 148184, Note_on_c, 1, 69, 0
7, 148200, Note_on_c, 1, 69, 92
7, 148304, Note_on_c, 1, 69, 0
7, 148320, Note_on_c, 1, 81, 92
7, 148484, Note_on_c, 1, 81, 0
7, 148500, Note_on_c, 1, 69, 92
7, 148544, Note_on_c, 1, 69, 0
7, 148560, Note_on_c, 1, 69, 92
7, 148664, Note_on_c, 1, 69, 0
7, 148680, Note_on_c, 1, 81, 92
7, 148844, Note_on_c, 1, 81, 0
7, 148860, Note_on_c, 1, 69, 92
7, 148904, Note_on_c, 1, 69, 0
7, 148920, Note_on_c, 1, 69, 92
7, 149024, Note_on_c, 1, 69, 0
7, 149040, Note_on_c, 1, 81, 92
7, 149204, Note_on_c, 1, 81, 0
7, 149220, Note_on_c, 1, 69, 92
7, 149264, Note_on_c, 1, 69, 0
7, 149280, Note_on_c, 1, 69, 92
7, 149384, Note_on_c, 1, 69, 0
7, 149400, Note_on_c, 1, 74, 92
7, 149489, Note_on_c, 1, 74, 0
7, 149520, Note_on_c, 1, 76, 92
7, 149609, Note_on_c, 1, 76, 0
7, 149640, Note_on_c, 1, 77, 92
7, 149729, Note_on_c, 1, 77, 0
7, 149760, Note_on_c, 1, 76, 92
7, 149849, Note_on_c, 1, 76, 0
7, 149880, Note_on_c, 1, 77, 92
7, 149969, Note_on_c, 1, 77, 0
7, 150000, Note_on_c, 1, 79, 92
7, 150089, Note_on_c, 1, 79, 0
7, 150120, Note_on_c, 1, 77, 92
7, 150209, Note_on_c, 1, 77, 0
7, 150240, Note_on_c, 1, 76, 92
7, 150329, Note_on_c, 1, 76, 0
7, 150360, Note_on_c, 1, 74, 92
7, 150449, Note_on_c, 1, 74, 0
7, 150480, Note_on_c, 1, 82, 92
7, 150569, Note_on_c, 1, 82, 0
7, 150600, Note_on_c, 1, 81, 92
7, 150689, Note_on_c, 1, 81, 0
7, 150720, Note_on_c, 1, 79, 92
7, 150809, Note_on_c, 1, 79, 0
7, 150840, Note_on_c, 1, 77, 92
7, 150929, Note_on_c, 1, 77, 0
7, 150960, Note_on_c, 1, 76, 92
7, 151049, Note_on_c, 1, 76, 0
7, 151080, Note_on_c, 1, 74, 92
7, 151169, Note_on_c, 1, 74, 0
7, 151200, Note_on_c, 1, 73, 92
7, 151289, Note_on_c, 1, 73, 0
7, 151320, Note_on_c, 1, 74, 92
7, 151409, Note_on_c, 1, 74, 0
7, 151440, Note_on_c, 1, 76, 92
7, 151529, Note_on_c, 1, 76, 0
7, 151560, Note_on_c, 1, 74, 92
7, 151649, Note_on_c, 1, 74, 0
7, 151680, Note_on_c, 1, 73, 92
7, 151769, Note_on_c, 1, 73, 0
7, 151800, Note_on_c, 1, 74, 92
7, 151889, Note_on_c, 1, 74, 0
7, 151920, Note_on_c, 1, 82, 92
7, 152009, Note_on_c, 1, 82, 0
7, 152040, Note_on_c, 1, 81, 92
7, 152129, Note_on_c, 1, 81, 0
7, 152160, Note_on_c, 1, 79, 92
7, 152249, Note_on_c, 1, 79, 0
7, 152280, Note_on_c, 1, 77, 92
7, 152369, Note_on_c, 1, 77, 0
7, 152400, Note_on_c, 1, 76, 92
7, 152489, Note_on_c, 1, 76, 0
7, 152520, Note_on_c, 1, 74, 92
7, 152609, Note_on_c, 1, 74, 0
7, 152640, Note_on_c, 1, 73, 92
7, 152729, Note_on_c, 1, 73, 0
7, 152760, Note_on_c, 1, 74, 92
7, 152849, Note_on_c, 1, 74, 0
7, 152880, Note_on_c, 1, 76, 92
7, 152969, Note_on_c, 1, 76, 0
7, 153000, Note_on_c, 1, 74, 92
7, 153089, Note_on_c, 1, 74, 0
7, 153120, Note_on_c, 1, 73, 92
7, 153209, Note_on_c, 1, 73, 0
7, 153240, Note_on_c, 1, 74, 92
7, 153329, Note_on_c, 1, 74, 0
7, 153360, Note_on_c, 1, 72, 92
7, 153449, Note_on_c, 1, 72, 0
7, 153480, Note_on_c, 1, 74, 92
7, 153569, Note_on_c, 1, 74, 0
7, 153600, Note_on_c, 1, 75, 92
7, 153689, Note_on_c, 1, 75, 0
7, 153720, Note_on_c, 1, 79, 92
7, 153809, Note_on_c, 1, 79, 0
7, 153840, Note_on_c, 1, 81, 92
7, 153929, Note_on_c, 1, 81, 0
7, 153960, Note_on_c, 1, 82, 92
7, 154049, Note_on_c, 1, 82, 0
7, 154080, Note_on_c, 1, 81, 92
7, 154169, Note_on_c, 1, 81, 0
7, 154200, Note_on_c, 1, 82, 92
7, 154289, Note_on_c, 1, 82, 0
7, 154320, Note_on_c, 1, 84, 92
7, 154409, Note_on_c, 1, 84, 0
7, 154440, Note_on_c, 1, 82, 92
7, 154529, Note_on_c, 1, 82, 0
7, 154560, Note_on_c, 1, 81, 92
7, 154649, Note_on_c, 1, 81, 0
7, 154680, Note_on_c, 1, 79, 92
7, 154769, Note_on_c, 1, 79, 0
7, 154800, Note_on_c, 1, 75, 80
7, 154889, Note_on_c, 1, 75, 0
7, 154920, Note_on_c, 1, 74, 80
7, 155009, Note_on_c, 1, 74, 0
7, 155040, Note_on_c, 1, 72, 80
7, 155129, Note_on_c, 1, 72, 0
7, 155160, Note_on_c, 1, 70, 80
7, 155249, Note_on_c, 1, 70, 0
7, 155280, Note_on_c, 1, 69, 80
7, 155369, Note_on_c, 1, 69, 0
7, 155400, Note_on_c, 1, 67, 80
7, 155489, Note_on_c, 1, 67, 0
7, 155520, Note_on_c, 1, 77, 80
7, 155609, Note_on_c, 1, 77, 0
7, 155640, Note_on_c, 1, 75, 80
7, 155729, Note_on_c, 1, 75, 0
7, 155760, Note_on_c, 1, 74, 80
7, 155849, Note_on_c, 1, 74, 0
7, 155880, Note_on_c, 1, 72, 80
7, 155969, Note_on_c, 1, 72, 0
7, 156000, Note_on_c, 1, 70, 80
7, 156089, Note_on_c, 1, 70, 0
7, 156120, Note_on_c, 1, 69, 80
7, 156209, Note_on_c, 1, 69, 0
7, 156240, Note_on_c, 1, 69, 80
7, 156329, Note_on_c, 1, 69, 0
7, 156360, Note_on_c, 1, 70, 80
7, 156449, Note_on_c, 1, 70, 0
7, 156480, Note_on_c, 1, 72, 80
7, 156569, Note_on_c, 1, 72, 0
7, 156600, Note_on_c, 1, 74, 80
7, 156689, Note_on_c, 1, 74, 0
7, 156720, Note_on_c, 1, 75, 80
7, 156809, Note_on_c, 1, 75, 0
7, 156840, Note_on_c, 1, 77, 80
7, 156929, Note_on_c, 1, 77, 0
7, 156960, Note_on_c, 1, 79, 80
7, 157049, Note_on_c, 1, 79, 0
7, 157080, Note_on_c, 1, 81, 80
7, 157169, Note_on_c, 1, 81, 0
7, 157200, Note_on_c, 1, 82, 80
7, 157289, Note_on_c, 1, 82, 0
7, 157320, Note_on_c, 1, 84, 80
7, 157409, Note_on_c, 1, 84, 0
7, 157440, Note_on_c, 1, 86, 80
7, 157529, Note_on_c, 1, 86, 0
7, 157560, Note_on_c, 1, 75, 80
7, 157649, Note_on_c, 1, 75, 0
7, 157680, Note_on_c, 1, 77, 80
7, 157740, Control_c, 1, 11, 67
7, 158400, Control_c, 1, 11, 67
7, 158436, Control_c, 1, 11, 68
7, 158472, Control_c, 1, 11, 69
7, 158508, Control_c, 1, 11, 70
7, 158544, Control_c, 1, 11, 71
7, 158580, Control_c, 1, 11, 72
7, 158616, Control_c, 1, 11, 73
7, 158652, Control_c, 1, 11, 74
7, 158688, Control_c, 1, 11, 75
7, 158724, Control_c, 1, 11, 76
7, 158759, Note_on_c, 1, 77, 0
7, 158760, Control_c, 1, 11, 77
7, 158760, Note_on_c, 1, 75, 80
7, 158796, Control_c, 1, 11, 78
7, 158832, Control_c, 1, 11, 79
7, 158868, Control_c, 1, 11, 80
7, 158904, Control_c, 1, 11, 81
7, 158940, Control_c, 1, 11, 82
7, 158976, Control_c, 1, 11, 83
7, 159012, Control_c, 1, 11, 84
7, 159048, Control_c, 1, 11, 85
7, 159084, Control_c, 1, 11, 86
7, 159120, Control_c, 1, 11, 87
7, 159156, Control_c, 1, 11, 88
7, 159192, Control_c, 1, 11, 89
7, 159228, Control_c, 1, 11, 90
7, 159264, Control_c, 1, 11, 91
7, 159300, Control_c, 1, 11, 92
7, 159336, Control_c, 1, 11, 93
7, 159372, Control_c, 1, 11, 94
7, 159408, Control_c, 1, 11, 95
7, 159444, Control_c, 1, 11, 96
7, 159479, Note_on_c, 1, 75, 0
7, 159480, Note_on_c, 1, 74, 80
7, 159480, Control_c, 1, 11, 97
7, 159516, Control_c, 1, 11, 98
7, 159552, Control_c, 1, 11, 99
7, 159588, Control_c, 1, 11, 100
7, 159624, Control_c, 1, 11, 101
7, 159660, Control_c, 1, 11, 102
7, 159696, Control_c, 1, 11, 103
7, 159732, Control_c, 1, 11, 104
7, 159768, Control_c, 1, 11, 105
7, 159804, Control_c, 1, 11, 106
7, 159839, Note_on_c, 1, 74, 0
7, 159840, Control_c, 1, 11, 107
7, 159840, Note_on_c, 1, 73, 80
7, 159870, Control_c, 1, 11, 105
7, 159900, Control_c, 1, 11, 104
7, 159930, Control_c, 1, 11, 102
7, 159960, Control_c, 1, 11, 100
7, 159990, Control_c, 1, 11, 99
7, 160020, Control_c, 1, 11, 97
7, 160050, Control_c, 1, 11, 95
7, 160080, Control_c, 1, 11, 94
7, 160110, Control_c, 1, 11, 92
7, 160140, Control_c, 1, 11, 90
7, 160170, Control_c, 1, 11, 89
7, 160199, Note_on_c, 1, 73, 0
7, 160200, Control_c, 1, 11, 87
7, 160200, Note_on_c, 1, 72, 80
7, 160230, Control_c, 1, 11, 85
7, 160260, Control_c, 1, 11, 84
7, 160290, Control_c, 1, 11, 82
7, 160320, Control_c, 1, 11, 80
7, 160350, Control_c, 1, 11, 79
7, 160380, Control_c, 1, 11, 77
7, 160410, Control_c, 1, 11, 75
7, 160440, Control_c, 1, 11, 74
7, 160470, Control_c, 1, 11, 72
7, 160500, Control_c, 1, 11, 70
7, 160530, Control_c, 1, 11, 67
7, 160544, Note_on_c, 1, 72, 0
7, 160560, Note_on_c, 1, 82, 80
7, 161279, Note_on_c, 1, 82, 0
7, 161280, Note_on_c, 1, 81, 80
7, 161640, Control_c, 1, 11, 67
7, 161676, Control_c, 1, 11, 68
7, 161712, Control_c, 1, 11, 69
7, 161748, Control_c, 1, 11, 70
7, 161784, Control_c, 1, 11, 71
7, 161820, Control_c, 1, 11, 72
7, 161856, Control_c, 1, 11, 73
7, 161892, Control_c, 1, 11, 74
7, 161928, Control_c, 1, 11, 75
7, 161964, Control_c, 1, 11, 76
7, 161984, Note_on_c, 1, 81, 0
7, 162000, Note_on_c, 1, 83, 80
7, 162000, Note_on_c, 1, 81, 80
7, 162000, Control_c, 1, 11, 77
7, 162036, Control_c, 1, 11, 78
7, 162072, Control_c, 1, 11, 79
7, 162108, Control_c, 1, 11, 80
7, 162144, Control_c, 1, 11, 81
7, 162180, Control_c, 1, 11, 82
7, 162216, Control_c, 1, 11, 83
7, 162252, Control_c, 1, 11, 84
7, 162288, Control_c, 1, 11, 85
7, 162324, Control_c, 1, 11, 86
7, 162359, Note_on_c, 1, 81, 0
7, 162360, Note_on_c, 1, 79, 80
7, 162360, Control_c, 1, 11, 87
7, 162396, Control_c, 1, 11, 88
7, 162432, Control_c, 1, 11, 89
7, 162468, Control_c, 1, 11, 90
7, 162504, Control_c, 1, 11, 91
7, 162540, Control_c, 1, 11, 92
7, 162576, Control_c, 1, 11, 93
7, 162612, Control_c, 1, 11, 94
7, 162648, Control_c, 1, 11, 95
7, 162684, Control_c, 1, 11, 96
7, 162719, Note_on_c, 1, 83, 0
7, 162720, Note_on_c, 1, 82, 80
7, 162720, Control_c, 1, 11, 97
7, 162756, Control_c, 1, 11, 98
7, 162792, Control_c, 1, 11, 99
7, 162828, Control_c, 1, 11, 100
7, 162864, Control_c, 1, 11, 101
7, 162900, Control_c, 1, 11, 102
7, 162936, Control_c, 1, 11, 103
7, 162972, Control_c, 1, 11, 104
7, 163008, Control_c, 1, 11, 105
7, 163044, Control_c, 1, 11, 106
7, 163079, Note_on_c, 1, 79, 0
7, 163079, Note_on_c, 1, 82, 0
7, 163080, Note_on_c, 1, 78, 80
7, 163080, Note_on_c, 1, 81, 80
7, 163080, Control_c, 1, 11, 107
7, 163110, Control_c, 1, 11, 106
7, 163140, Control_c, 1, 11, 105
7, 163170, Control_c, 1, 11, 104
7, 163200, Control_c, 1, 11, 103
7, 163230, Control_c, 1, 11, 101
7, 163260, Control_c, 1, 11, 100
7, 163290, Control_c, 1, 11, 99
7, 163320, Control_c, 1, 11, 98
7, 163350, Control_c, 1, 11, 97
7, 163380, Control_c, 1, 11, 96
7, 163410, Control_c, 1, 11, 95
7, 163439, Note_on_c, 1, 78, 0
7, 163440, Note_on_c, 1, 77, 80
7, 163440, Control_c, 1, 11, 94
7, 163470, Control_c, 1, 11, 93
7, 163500, Control_c, 1, 11, 91
7, 163530, Control_c, 1, 11, 90
7, 163560, Control_c, 1, 11, 89
7, 163590, Control_c, 1, 11, 88
7, 163620, Control_c, 1, 11, 87
7, 163650, Control_c, 1, 11, 86
7, 163680, Control_c, 1, 11, 85
7, 163710, Control_c, 1, 11, 84
7, 163740, Control_c, 1, 11, 83
7, 163770, Control_c, 1, 11, 81
7, 163799, Note_on_c, 1, 77, 0
7, 163800, Note_on_c, 1, 76, 80
7, 163800, Control_c, 1, 11, 80
7, 163830, Control_c, 1, 11, 79
7, 163860, Control_c, 1, 11, 78
7, 163890, Control_c, 1, 11, 77
7, 163920, Control_c, 1, 11, 76
7, 163950, Control_c, 1, 11, 75
7, 163980, Control_c, 1, 11, 74
7, 164010, Control_c, 1, 11, 73
7, 164040, Control_c, 1, 11, 71
7, 164070, Control_c, 1, 11, 70
7, 164100, Control_c, 1, 11, 69
7, 164130, Control_c, 1, 11, 67
7, 164159, Note_on_c, 1, 81, 0
7, 164159, Note_on_c, 1, 76, 0
7, 167040, Control_c, 1, 11, 57
7, 167400, Control_c, 1, 11, 57
7, 167400, Note_on_c, 1, 78, 92
7, 167436, Control_c, 1, 11, 58
7, 167472, Control_c, 1, 11, 59
7, 167508, Control_c, 1, 11, 60
7, 167544, Control_c, 1, 11, 61
7, 167580, Control_c, 1, 11, 62
7, 167616, Control_c, 1, 11, 63
7, 167652, Control_c, 1, 11, 64
7, 167688, Control_c, 1, 11, 65
7, 167724, Control_c, 1, 11, 66
7, 167760, Note_on_c, 1, 75, 92
7, 167760, Control_c, 1, 11, 67
7, 167796, Control_c, 1, 11, 68
7, 167832, Control_c, 1, 11, 69
7, 167868, Control_c, 1, 11, 70
7, 167904, Control_c, 1, 11, 71
7, 167940, Control_c, 1, 11, 72
7, 167976, Control_c, 1, 11, 73
7, 168012, Control_c, 1, 11, 74
7, 168048, Control_c, 1, 11, 75
7, 168084, Control_c, 1, 11, 76
7, 168119, Note_on_c, 1, 78, 0
7, 168119, Note_on_c, 1, 75, 0
7, 168120, Note_on_c, 1, 79, 92
7, 168120, Note_on_c, 1, 76, 92
7, 168120, Control_c, 1, 11, 77
7, 168156, Control_c, 1, 11, 78
7, 168192, Control_c, 1, 11, 79
7, 168228, Control_c, 1, 11, 80
7, 168264, Control_c, 1, 11, 81
7, 168300, Control_c, 1, 11, 82
7, 168336, Control_c, 1, 11, 83
7, 168372, Control_c, 1, 11, 84
7, 168408, Control_c, 1, 11, 85
7, 168444, Control_c, 1, 11, 86
7, 168479, Note_on_c, 1, 79, 0
7, 168479, Note_on_c, 1, 76, 0
7, 168480, Control_c, 1, 11, 87
7, 168480, Note_on_c, 1, 76, 92
7, 168480, Note_on_c, 1, 73, 92
7, 168516, Control_c, 1, 11, 88
7, 168552, Control_c, 1, 11, 89
7, 168588, Control_c, 1, 11, 90
7, 168624, Control_c, 1, 11, 91
7, 168660, Control_c, 1, 11, 92
7, 168696, Control_c, 1, 11, 93
7, 168732, Control_c, 1, 11, 94
7, 168768, Control_c, 1, 11, 95
7, 168804, Control_c, 1, 11, 96
7, 168839, Note_on_c, 1, 76, 0
7, 168839, Note_on_c, 1, 73, 0
7, 168840, Note_on_c, 1, 78, 92
7, 168840, Control_c, 1, 11, 97
7, 168840, Note_on_c, 1, 74, 92
7, 168876, Control_c, 1, 11, 98
7, 168912, Control_c, 1, 11, 99
7, 168948, Control_c, 1, 11, 100
7, 168984, Control_c, 1, 11, 101
7, 169020, Control_c, 1, 11, 102
7, 169056, Control_c, 1, 11, 103
7, 169092, Control_c, 1, 11, 104
7, 169128, Control_c, 1, 11, 105
7, 169164, Control_c, 1, 11, 106
7, 169199, Note_on_c, 1, 78, 0
7, 169200, Note_on_c, 1, 81, 92
7, 169200, Control_c, 1, 11, 107
7, 169236, Control_c, 1, 11, 108
7, 169272, Control_c, 1, 11, 109
7, 169308, Control_c, 1, 11, 110
7, 169344, Control_c, 1, 11, 111
7, 169380, Control_c, 1, 11, 112
7, 169416, Control_c, 1, 11, 113
7, 169452, Control_c, 1, 11, 114
7, 169488, Control_c, 1, 11, 115
7, 169524, Control_c, 1, 11, 116
7, 169559, Note_on_c, 1, 74, 0
7, 169560, Note_on_c, 1, 73, 92
7, 169560, Control_c, 1, 11, 117
7, 169596, Control_c, 1, 11, 118
7, 169632, Control_c, 1, 11, 119
7, 169668, Control_c, 1, 11, 120
7, 169704, Control_c, 1, 11, 121
7, 169740, Control_c, 1, 11, 122
7, 169776, Control_c, 1, 11, 123
7, 169784, Note_on_c, 1, 81, 0
7, 169784, Note_on_c, 1, 73, 0
7, 169800, Note_on_c, 1, 73, 92
7, 169812, Control_c, 1, 11, 124
7, 169848, Control_c, 1, 11, 125
7, 169884, Control_c, 1, 11, 127
7, 169904, Note_on_c, 1, 73, 0
7, 169920, Note_on_c, 1, 74, 92
7, 170159, Note_on_c, 1, 74, 0
7, 170160, Note_on_c, 1, 76, 92
7, 170219, Note_on_c, 1, 76, 0
7, 170220, Note_on_c, 1, 78, 92
7, 170264, Note_on_c, 1, 78, 0
7, 170280, Note_on_c, 1, 79, 92
7, 170369, Note_on_c, 1, 79, 0
7, 170520, Note_on_c, 1, 78, 92
7, 170609, Note_on_c, 1, 78, 0
7, 170640, Note_on_c, 1, 76, 92
7, 170729, Note_on_c, 1, 76, 0
7, 170880, Note_on_c, 1, 74, 92
7, 170969, Note_on_c, 1, 74, 0
7, 171000, Note_on_c, 1, 76, 92
7, 171089, Note_on_c, 1, 76, 0
7, 171240, Note_on_c, 1, 73, 92
7, 171329, Note_on_c, 1, 73, 0
7, 171360, Note_on_c, 1, 74, 92
7, 171360, Note_on_c, 1, 78, 92
7, 171599, Note_on_c, 1, 74, 0
7, 171599, Note_on_c, 1, 78, 0
7, 171600, Note_on_c, 1, 79, 92
7, 171600, Note_on_c, 1, 76, 92
7, 171659, Note_on_c, 1, 79, 0
7, 171659, Note_on_c, 1, 76, 0
7, 171660, Note_on_c, 1, 81, 92
7, 171660, Note_on_c, 1, 78, 92
7, 171704, Note_on_c, 1, 81, 0
7, 171704, Note_on_c, 1, 78, 0
7, 171720, Note_on_c, 1, 79, 92
7, 171720, Note_on_c, 1, 83, 92
7, 171809, Note_on_c, 1, 79, 0
7, 171809, Note_on_c, 1, 83, 0
7, 171960, Note_on_c, 1, 78, 92
7, 171960, Note_on_c, 1, 81, 92
7, 172049, Note_on_c, 1, 78, 0
7, 172049, Note_on_c, 1, 81, 0
7, 172080, Note_on_c, 1, 76, 92
7, 172080, Note_on_c, 1, 79, 92
7, 172169, Note_on_c, 1, 76, 0
7, 172169, Note_on_c, 1, 79, 0
7, 172320, Note_on_c, 1, 78, 92
7, 172320, Note_on_c, 1, 74, 92
7, 172409, Note_on_c, 1, 78, 0
7, 172409, Note_on_c, 1, 74, 0
7, 172440, Note_on_c, 1, 79, 92
7, 172440, Note_on_c, 1, 76, 92
7, 172529, Note_on_c, 1, 79, 0
7, 172529, Note_on_c, 1, 76, 0
7, 172680, Note_on_c, 1, 73, 92
7, 172680, Note_on_c, 1, 76, 92
7, 172769, Note_on_c, 1, 73, 0
7, 172769, Note_on_c, 1, 76, 0
7, 172800, Note_on_c, 1, 74, 92
7, 172889, Note_on_c, 1, 74, 0
7, 172920, Note_on_c, 1, 74, 92
7, 172920, Note_on_c, 1, 65, 92
7, 173039, Note_on_c, 1, 74, 0
7, 173039, Note_on_c, 1, 65, 0
7, 173040, Note_on_c, 1, 76, 92
7, 173040, Note_on_c, 1, 67, 92
7, 173099, Note_on_c, 1, 76, 0
7, 173099, Note_on_c, 1, 67, 0
7, 173100, Note_on_c, 1, 77, 92
7, 173100, Note_on_c, 1, 69, 92
7, 173144, Note_on_c, 1, 77, 0
7, 173144, Note_on_c, 1, 69, 0
7, 173160, Note_on_c, 1, 79, 92
7, 173160, Note_on_c, 1, 70, 92
7, 173249, Note_on_c, 1, 79, 0
7, 173249, Note_on_c, 1, 70, 0
7, 173280, Note_on_c, 1, 70, 92
7, 173280, Note_on_c, 1, 79, 92
7, 173369, Note_on_c, 1, 70, 0
7, 173369, Note_on_c, 1, 79, 0
7, 173400, Note_on_c, 1, 77, 92
7, 173400, Note_on_c, 1, 69, 92
7, 173489, Note_on_c, 1, 77, 0
7, 173489, Note_on_c, 1, 69, 0
7, 173520, Note_on_c, 1, 67, 92
7, 173520, Note_on_c, 1, 76, 92
7, 173609, Note_on_c, 1, 67, 0
7, 173609, Note_on_c, 1, 76, 0
7, 173640, Note_on_c, 1, 76, 92
7, 173640, Note_on_c, 1, 67, 92
7, 173729, Note_on_c, 1, 76, 0
7, 173729, Note_on_c, 1, 67, 0
7, 173760, Note_on_c, 1, 74, 92
7, 173760, Note_on_c, 1, 65, 92
7, 173849, Note_on_c, 1, 74, 0
7, 173849, Note_on_c, 1, 65, 0
7, 173880, Note_on_c, 1, 67, 92
7, 173880, Note_on_c, 1, 76, 92
7, 173969, Note_on_c, 1, 67, 0
7, 173969, Note_on_c, 1, 76, 0
7, 174000, Note_on_c, 1, 67, 92
7, 174000, Note_on_c, 1, 76, 92
7, 174089, Note_on_c, 1, 67, 0
7, 174089, Note_on_c, 1, 76, 0
7, 174120, Note_on_c, 1, 73, 92
7, 174120, Note_on_c, 1, 64, 92
7, 174209, Note_on_c, 1, 73, 0
7, 174209, Note_on_c, 1, 64, 0
7, 174240, Note_on_c, 1, 77, 92
7, 174240, Note_on_c, 1, 74, 92
7, 174329, Note_on_c, 1, 77, 0
7, 174329, Note_on_c, 1, 74, 0
7, 174360, Note_on_c, 1, 77, 92
7, 174360, Note_on_c, 1, 74, 92
7, 174479, Note_on_c, 1, 77, 0
7, 174479, Note_on_c, 1, 74, 0
7, 174480, Note_on_c, 1, 79, 92
7, 174480, Note_on_c, 1, 76, 92
7, 174539, Note_on_c, 1, 79, 0
7, 174539, Note_on_c, 1, 76, 0
7, 174540, Note_on_c, 1, 81, 92
7, 174540, Note_on_c, 1, 77, 92
7, 174584, Note_on_c, 1, 81, 0
7, 174584, Note_on_c, 1, 77, 0
7, 174600, Note_on_c, 1, 79, 92
7, 174600, Note_on_c, 1, 82, 92
7, 174689, Note_on_c, 1, 79, 0
7, 174689, Note_on_c, 1, 82, 0
7, 174720, Note_on_c, 1, 79, 92
7, 174720, Note_on_c, 1, 82, 92
7, 174809, Note_on_c, 1, 79, 0
7, 174809, Note_on_c, 1, 82, 0
7, 174840, Note_on_c, 1, 77, 92
7, 174840, Note_on_c, 1, 81, 92
7, 174929, Note_on_c, 1, 77, 0
7, 174929, Note_on_c, 1, 81, 0
7, 174960, Note_on_c, 1, 79, 92
7, 174960, Note_on_c, 1, 76, 92
7, 175049, Note_on_c, 1, 79, 0
7, 175049, Note_on_c, 1, 76, 0
7, 175080, Note_on_c, 1, 76, 92
7, 175080, Note_on_c, 1, 79, 92
7, 175169, Note_on_c, 1, 76, 0
7, 175169, Note_on_c, 1, 79, 0
7, 175200, Note_on_c, 1, 77, 92
7, 175200, Note_on_c, 1, 74, 92
7, 175289, Note_on_c, 1, 77, 0
7, 175289, Note_on_c, 1, 74, 0
7, 175320, Note_on_c, 1, 76, 92
7, 175320, Note_on_c, 1, 79, 92
7, 175409, Note_on_c, 1, 76, 0
7, 175409, Note_on_c, 1, 79, 0
7, 175440, Note_on_c, 1, 76, 92
7, 175440, Note_on_c, 1, 79, 92
7, 175529, Note_on_c, 1, 76, 0
7, 175529, Note_on_c, 1, 79, 0
7, 175560, Note_on_c, 1, 73, 92
7, 175560, Note_on_c, 1, 76, 92
7, 175649, Note_on_c, 1, 73, 0
7, 175649, Note_on_c, 1, 76, 0
7, 175680, Note_on_c, 1, 77, 92
7, 175844, Note_on_c, 1, 77, 0
7, 175860, Note_on_c, 1, 65, 92
7, 175904, Note_on_c, 1, 65, 0
7, 175920, Note_on_c, 1, 65, 92
7, 176024, Note_on_c, 1, 65, 0
7, 176040, Note_on_c, 1, 77, 92
7, 176144, Note_on_c, 1, 77, 0
7, 176160, Note_on_c, 1, 79, 92
7, 176264, Note_on_c, 1, 79, 0
7, 176280, Note_on_c, 1, 81, 92
7, 176384, Note_on_c, 1, 81, 0
7, 176400, Note_on_c, 1, 82, 92
7, 176519, Note_on_c, 1, 82, 0
7, 176760, Note_on_c, 1, 82, 92
7, 176760, Note_on_c, 1, 70, 92
7, 176864, Note_on_c, 1, 82, 0
7, 176864, Note_on_c, 1, 70, 0
7, 176880, Note_on_c, 1, 72, 92
7, 176880, Note_on_c, 1, 84, 92
7, 176984, Note_on_c, 1, 72, 0
7, 176984, Note_on_c, 1, 84, 0
7, 177000, Note_on_c, 1, 74, 92
7, 177000, Note_on_c, 1, 86, 92
7, 177104, Note_on_c, 1, 74, 0
7, 177104, Note_on_c, 1, 86, 0
7, 177120, Note_on_c, 1, 76, 92
7, 177284, Note_on_c, 1, 76, 0
7, 177300, Note_on_c, 1, 64, 92
7, 177344, Note_on_c, 1, 64, 0
7, 177360, Note_on_c, 1, 64, 92
7, 177464, Note_on_c, 1, 64, 0
7, 177480, Note_on_c, 1, 76, 92
7, 177480, Note_on_c, 1, 64, 92
7, 177584, Note_on_c, 1, 76, 0
7, 177584, Note_on_c, 1, 64, 0
7, 177600, Note_on_c, 1, 65, 92
7, 177600, Note_on_c, 1, 77, 92
7, 177704, Note_on_c, 1, 65, 0
7, 177704, Note_on_c, 1, 77, 0
7, 177720, Note_on_c, 1, 79, 92
7, 177720, Note_on_c, 1, 67, 92
7, 177824, Note_on_c, 1, 79, 0
7, 177824, Note_on_c, 1, 67, 0
7, 177840, Note_on_c, 1, 69, 92
7, 177840, Note_on_c, 1, 81, 92
7, 177959, Note_on_c, 1, 69, 0
7, 177959, Note_on_c, 1, 81, 0
7, 178200, Note_on_c, 1, 69, 92
7, 178304, Note_on_c, 1, 69, 0
7, 178320, Note_on_c, 1, 74, 92
7, 178424, Note_on_c, 1, 74, 0
7, 178440, Note_on_c, 1, 76, 92
7, 178544, Note_on_c, 1, 76, 0
7, 178560, Note_on_c, 1, 78, 44
7, 178560, Note_on_c, 1, 74, 44
7, 178679, Note_on_c, 1, 78, 0
7, 178679, Note_on_c, 1, 74, 0
7, 179280, Note_on_c, 1, 79, 44
7, 179280, Note_on_c, 1, 74, 44
7, 179399, Note_on_c, 1, 79, 0
7, 179399, Note_on_c, 1, 74, 0
7, 180360, Control_c, 1, 11, 67
7, 180720, Note_on_c, 1, 75, 80
7, 180720, Note_on_c, 1, 79, 80
7, 180720, Control_c, 1, 11, 67
7, 180750, Control_c, 1, 11, 68
7, 180780, Control_c, 1, 11, 70
7, 180810, Control_c, 1, 11, 71
7, 180840, Control_c, 1, 11, 72
7, 180870, Control_c, 1, 11, 73
7, 180900, Control_c, 1, 11, 75
7, 180930, Control_c, 1, 11, 76
7, 180960, Control_c, 1, 11, 77
7, 180990, Control_c, 1, 11, 78
7, 181020, Control_c, 1, 11, 80
7, 181050, Control_c, 1, 11, 81
7, 181064, Note_on_c, 1, 75, 0
7, 181064, Note_on_c, 1, 79, 0
7, 181080, Note_on_c, 1, 75, 80
7, 181080, Note_on_c, 1, 79, 80
7, 181080, Control_c, 1, 11, 82
7, 181110, Control_c, 1, 11, 83
7, 181140, Control_c, 1, 11, 85
7, 181170, Control_c, 1, 11, 86
7, 181200, Control_c, 1, 11, 87
7, 181230, Control_c, 1, 11, 88
7, 181260, Control_c, 1, 11, 90
7, 181290, Control_c, 1, 11, 91
7, 181320, Control_c, 1, 11, 92
7, 181350, Control_c, 1, 11, 93
7, 181380, Control_c, 1, 11, 95
7, 181410, Control_c, 1, 11, 96
7, 181424, Note_on_c, 1, 75, 0
7, 181424, Note_on_c, 1, 79, 0
7, 181440, Control_c, 1, 11, 97
7, 181440, Note_on_c, 1, 76, 80
7, 181440, Note_on_c, 1, 79, 80
7, 181470, Control_c, 1, 11, 98
7, 181500, Control_c, 1, 11, 100
7, 181530, Control_c, 1, 11, 101
7, 181560, Control_c, 1, 11, 102
7, 181590, Control_c, 1, 11, 103
7, 181620, Control_c, 1, 11, 105
7, 181650, Control_c, 1, 11, 106
7, 181680, Control_c, 1, 11, 107
7, 181710, Control_c, 1, 11, 108
7, 181740, Control_c, 1, 11, 110
7, 181770, Control_c, 1, 11, 111
7, 181800, Control_c, 1, 11, 112
7, 181830, Control_c, 1, 11, 113
7, 181860, Control_c, 1, 11, 115
7, 181890, Control_c, 1, 11, 116
7, 181919, Note_on_c, 1, 76, 0
7, 181919, Note_on_c, 1, 79, 0
7, 181920, Note_on_c, 1, 74, 80
7, 181920, Note_on_c, 1, 77, 80
7, 181920, Control_c, 1, 11, 117
7, 181950, Control_c, 1, 11, 118
7, 181980, Control_c, 1, 11, 120
7, 182010, Control_c, 1, 11, 121
7, 182039, Note_on_c, 1, 74, 0
7, 182039, Note_on_c, 1, 77, 0
7, 182040, Control_c, 1, 11, 122
7, 182040, Note_on_c, 1, 76, 80
7, 182040, Note_on_c, 1, 79, 80
7, 182070, Control_c, 1, 11, 123
7, 182100, Control_c, 1, 11, 125
7, 182130, Control_c, 1, 11, 127
7, 182144, Note_on_c, 1, 76, 0
7, 182144, Note_on_c, 1, 79, 0
7, 182160, Note_on_c, 1, 69, 80
7, 182160, Note_on_c, 1, 81, 80
7, 182249, Note_on_c, 1, 69, 0
7, 182249, Note_on_c, 1, 81, 0
7, 182280, Note_on_c, 1, 65, 80
7, 182280, Note_on_c, 1, 77, 80
7, 182369, Note_on_c, 1, 65, 0
7, 182369, Note_on_c, 1, 77, 0
7, 182400, Note_on_c, 1, 82, 80
7, 182400, Note_on_c, 1, 70, 80
7, 182489, Note_on_c, 1, 82, 0
7, 182489, Note_on_c, 1, 70, 0
7, 182520, Note_on_c, 1, 79, 80
7, 182520, Note_on_c, 1, 67, 80
7, 182609, Note_on_c, 1, 79, 0
7, 182609, Note_on_c, 1, 67, 0
7, 182640, Note_on_c, 1, 76, 80
7, 182640, Note_on_c, 1, 64, 80
7, 182729, Note_on_c, 1, 76, 0
7, 182729, Note_on_c, 1, 64, 0
7, 182760, Note_on_c, 1, 69, 80
7, 182760, Note_on_c, 1, 81, 80
7, 182849, Note_on_c, 1, 69, 0
7, 182849, Note_on_c, 1, 81, 0
7, 182880, Note_on_c, 1, 65, 80
7, 182880, Note_on_c, 1, 77, 80
7, 182999, Note_on_c, 1, 65, 0
7, 182999, Note_on_c, 1, 77, 0
7, 183600, Note_on_c, 1, 77, 80
7, 183600, Note_on_c, 1, 81, 80
7, 183689, Note_on_c, 1, 77, 0
7, 183689, Note_on_c, 1, 81, 0
7, 183720, Note_on_c, 1, 65, 80
7, 183720, Note_on_c, 1, 77, 80
7, 183809, Note_on_c, 1, 65, 0
7, 183809, Note_on_c, 1, 77, 0
7, 183840, Note_on_c, 1, 70, 80
7, 183840, Note_on_c, 1, 82, 80
7, 183929, Note_on_c, 1, 70, 0
7, 183929, Note_on_c, 1, 82, 0
7, 183960, Note_on_c, 1, 67, 80
7, 183960, Note_on_c, 1, 79, 80
7, 184049, Note_on_c, 1, 67, 0
7, 184049, Note_on_c, 1, 79, 0
7, 184080, Note_on_c, 1, 64, 80
7, 184080, Note_on_c, 1, 76, 80
7, 184169, Note_on_c, 1, 64, 0
7, 184169, Note_on_c, 1, 76, 0
7, 184200, Note_on_c, 1, 81, 80
7, 184200, Note_on_c, 1, 69, 80
7, 184289, Note_on_c, 1, 81, 0
7, 184289, Note_on_c, 1, 69, 0
7, 184320, Note_on_c, 1, 69, 80
7, 184320, Note_on_c, 1, 81, 80
7, 184409, Note_on_c, 1, 69, 0
7, 184409, Note_on_c, 1, 81, 0
7, 184440, Note_on_c, 1, 69, 80
7, 184440, Note_on_c, 1, 81, 80
7, 184529, Note_on_c, 1, 69, 0
7, 184529, Note_on_c, 1, 81, 0
7, 184560, Note_on_c, 1, 69, 80
7, 184560, Note_on_c, 1, 81, 80
7, 184649, Note_on_c, 1, 69, 0
7, 184649, Note_on_c, 1, 81, 0
7, 184680, Note_on_c, 1, 69, 80
7, 184680, Note_on_c, 1, 81, 80
7, 184769, Note_on_c, 1, 69, 0
7, 184769, Note_on_c, 1, 81, 0
7, 184800, Note_on_c, 1, 69, 80
7, 184800, Note_on_c, 1, 81, 80
7, 184889, Note_on_c, 1, 69, 0
7, 184889, Note_on_c, 1, 81, 0
7, 184920, Note_on_c, 1, 69, 80
7, 184920, Note_on_c, 1, 81, 80
7, 185009, Note_on_c, 1, 69, 0
7, 185009, Note_on_c, 1, 81, 0
7, 185040, Note_on_c, 1, 74, 80
7, 185040, Note_on_c, 1, 77, 80
7, 185129, Note_on_c, 1, 74, 0
7, 185129, Note_on_c, 1, 77, 0
7, 185160, Note_on_c, 1, 81, 80
7, 185160, Note_on_c, 1, 77, 80
7, 185249, Note_on_c, 1, 81, 0
7, 185249, Note_on_c, 1, 77, 0
7, 185280, Note_on_c, 1, 77, 80
7, 185280, Note_on_c, 1, 81, 80
7, 185369, Note_on_c, 1, 77, 0
7, 185369, Note_on_c, 1, 81, 0
7, 185400, Note_on_c, 1, 81, 80
7, 185400, Note_on_c, 1, 79, 80
7, 185489, Note_on_c, 1, 81, 0
7, 185489, Note_on_c, 1, 79, 0
7, 185520, Note_on_c, 1, 81, 80
7, 185520, Note_on_c, 1, 79, 80
7, 185609, Note_on_c, 1, 81, 0
7, 185609, Note_on_c, 1, 79, 0
7, 185640, Note_on_c, 1, 81, 80
7, 185640, Note_on_c, 1, 79, 80
7, 185729, Note_on_c, 1, 81, 0
7, 185729, Note_on_c, 1, 79, 0
7, 185760, Note_on_c, 1, 81, 80
7, 185760, Note_on_c, 1, 77, 80
7, 185849, Note_on_c, 1, 81, 0
7, 185849, Note_on_c, 1, 77, 0
7, 185880, Note_on_c, 1, 77, 80
7, 185880, Note_on_c, 1, 81, 80
7, 185969, Note_on_c, 1, 77, 0
7, 185969, Note_on_c, 1, 81, 0
7, 186000, Note_on_c, 1, 81, 80
7, 186000, Note_on_c, 1, 77, 80
7, 186089, Note_on_c, 1, 81, 0
7, 186089, Note_on_c, 1, 77, 0
7, 186120, Note_on_c, 1, 81, 80
7, 186120, Note_on_c, 1, 79, 80
7, 186209, Note_on_c, 1, 81, 0
7, 186209, Note_on_c, 1, 79, 0
7, 186240, Note_on_c, 1, 81, 80
7, 186240, Note_on_c, 1, 79, 80
7, 186329, Note_on_c, 1, 81, 0
7, 186329, Note_on_c, 1, 79, 0
7, 186360, Note_on_c, 1, 79, 80
7, 186360, Note_on_c, 1, 81, 80
7, 186449, Note_on_c, 1, 79, 0
7, 186449, Note_on_c, 1, 81, 0
7, 187200, Note_on_c, 1, 67, 32
7, 187319, Note_on_c, 1, 67, 0
7, 187320, Note_on_c, 1, 73, 32
7, 187439, Note_on_c, 1, 73, 0
7, 187440, Note_on_c, 1, 76, 32
7, 187559, Note_on_c, 1, 76, 0
7, 187560, Note_on_c, 1, 79, 32
7, 187679, Note_on_c, 1, 79, 0
7, 187680, Note_on_c, 1, 76, 32
7, 187799, Note_on_c, 1, 76, 0
7, 187800, Note_on_c, 1, 73, 32
7, 187904, Note_on_c, 1, 73, 0
7, 187920, Note_on_c, 1, 74, 32
7, 188039, Note_on_c, 1, 74, 0
7, 188280, Note_on_c, 1, 77, 32
7, 188280, Note_on_c, 1, 74, 32
7, 188444, Note_on_c, 1, 77, 0
7, 188444, Note_on_c, 1, 74, 0
7, 188460, Note_on_c, 1, 69, 32
7, 188460, Note_on_c, 1, 65, 32
7, 188504, Note_on_c, 1, 69, 0
7, 188504, Note_on_c, 1, 65, 0
7, 188520, Note_on_c, 1, 65, 32
7, 188520, Note_on_c, 1, 69, 32
7, 188624, Note_on_c, 1, 65, 0
7, 188624, Note_on_c, 1, 69, 0
7, 188640, Note_on_c, 1, 69, 32
7, 188640, Note_on_c, 1, 65, 32
7, 188759, Note_on_c, 1, 69, 0
7, 188759, Note_on_c, 1, 65, 0
7, 189000, Note_on_c, 1, 74, 32
7, 189000, Note_on_c, 1, 77, 32
7, 189164, Note_on_c, 1, 74, 0
7, 189164, Note_on_c, 1, 77, 0
7, 189180, Note_on_c, 1, 74, 32
7, 189180, Note_on_c, 1, 69, 32
7, 189224, Note_on_c, 1, 74, 0
7, 189224, Note_on_c, 1, 69, 0
7, 189240, Note_on_c, 1, 69, 32
7, 189240, Note_on_c, 1, 74, 32
7, 189344, Note_on_c, 1, 69, 0
7, 189344, Note_on_c, 1, 74, 0
7, 189360, Note_on_c, 1, 74, 32
7, 189360, Note_on_c, 1, 69, 32
7, 189479, Note_on_c, 1, 74, 0
7, 189479, Note_on_c, 1, 69, 0
7, 191160, Note_on_c, 1, 74, 32
7, 191160, Note_on_c, 1, 77, 32
7, 191324, Note_on_c, 1, 74, 0
7, 191324, Note_on_c, 1, 77, 0
7, 191340, Note_on_c, 1, 74, 32
7, 191340, Note_on_c, 1, 65, 32
7, 191384, Note_on_c, 1, 74, 0
7, 191384, Note_on_c, 1, 65, 0
7, 191400, Note_on_c, 1, 74, 32
7, 191400, Note_on_c, 1, 65, 32
7, 191504, Note_on_c, 1, 74, 0
7, 191504, Note_on_c, 1, 65, 0
7, 191520, Note_on_c, 1, 74, 32
7, 191520, Note_on_c, 1, 65, 32
7, 191639, Note_on_c, 1, 74, 0
7, 191639, Note_on_c, 1, 65, 0
7, 191880, Note_on_c, 1, 77, 32
7, 191880, Note_on_c, 1, 82, 32
7, 192044, Note_on_c, 1, 77, 0
7, 192044, Note_on_c, 1, 82, 0
7, 192060, Note_on_c, 1, 70, 32
7, 192060, Note_on_c, 1, 74, 32
7, 192104, Note_on_c, 1, 70, 0
7, 192104, Note_on_c, 1, 74, 0
7, 192120, Note_on_c, 1, 74, 32
7, 192120, Note_on_c, 1, 70, 32
7, 192224, Note_on_c, 1, 74, 0
7, 192224, Note_on_c, 1, 70, 0
7, 192240, Note_on_c, 1, 74, 32
7, 192240, Note_on_c, 1, 70, 32
7, 192359, Note_on_c, 1, 74, 0
7, 192359, Note_on_c, 1, 70, 0
7, 192600, Note_on_c, 1, 82, 32
7, 192600, Note_on_c, 1, 74, 32
7, 192764, Note_on_c, 1, 82, 0
7, 192764, Note_on_c, 1, 74, 0
7, 192780, Note_on_c, 1, 70, 32
7, 192780, Note_on_c, 1, 74, 32
7, 192824, Note_on_c, 1, 70, 0
7, 192824, Note_on_c, 1, 74, 0
7, 192840, Note_on_c, 1, 70, 32
7, 192840, Note_on_c, 1, 74, 32
7, 192944, Note_on_c, 1, 70, 0
7, 192944, Note_on_c, 1, 74, 0
7, 192960, Note_on_c, 1, 77, 32
7, 192960, Note_on_c, 1, 70, 32
7, 193079, Note_on_c, 1, 77, 0
7, 193079, Note_on_c, 1, 70, 0
7, 193320, Note_on_c, 1, 79, 32
7, 193320, Note_on_c, 1, 70, 32
7, 193484, Note_on_c, 1, 79, 0
7, 193484, Note_on_c, 1, 70, 0
7, 193500, Note_on_c, 1, 70, 32
7, 193500, Note_on_c, 1, 67, 32
7, 193544, Note_on_c, 1, 70, 0
7, 193544, Note_on_c, 1, 67, 0
7, 193560, Note_on_c, 1, 67, 32
7, 193560, Note_on_c, 1, 70, 32
7, 193664, Note_on_c, 1, 67, 0
7, 193664, Note_on_c, 1, 70, 0
7, 193680, Note_on_c, 1, 67, 32
7, 193680, Note_on_c, 1, 70, 32
7, 193799, Note_on_c, 1, 67, 0
7, 193799, Note_on_c, 1, 70, 0
7, 195480, Note_on_c, 1, 75, 36
7, 195480, Note_on_c, 1, 67, 36
7, 195644, Note_on_c, 1, 75, 0
7, 195644, Note_on_c, 1, 67, 0
7, 195660, Note_on_c, 1, 75, 38
7, 195660, Note_on_c, 1, 67, 38
7, 195704, Note_on_c, 1, 75, 0
7, 195704, Note_on_c, 1, 67, 0
7, 195720, Note_on_c, 1, 75, 38
7, 195720, Note_on_c, 1, 67, 38
7, 195824, Note_on_c, 1, 75, 0
7, 195824, Note_on_c, 1, 67, 0
7, 195840, Note_on_c, 1, 72, 40
7, 195840, Note_on_c, 1, 75, 40
7, 195959, Note_on_c, 1, 72, 0
7, 195959, Note_on_c, 1, 75, 0
7, 196200, Note_on_c, 1, 77, 44
7, 196200, Note_on_c, 1, 72, 44
7, 196364, Note_on_c, 1, 77, 0
7, 196364, Note_on_c, 1, 72, 0
7, 196380, Note_on_c, 1, 77, 46
7, 196380, Note_on_c, 1, 72, 46
7, 196424, Note_on_c, 1, 77, 0
7, 196424, Note_on_c, 1, 72, 0
7, 196440, Note_on_c, 1, 77, 46
7, 196440, Note_on_c, 1, 72, 46
7, 196544, Note_on_c, 1, 77, 0
7, 196544, Note_on_c, 1, 72, 0
7, 196560, Note_on_c, 1, 77, 48
7, 196560, Note_on_c, 1, 73, 48
7, 196679, Note_on_c, 1, 77, 0
7, 196679, Note_on_c, 1, 73, 0
7, 196920, Note_on_c, 1, 73, 52
7, 196920, Note_on_c, 1, 77, 52
7, 197084, Note_on_c, 1, 73, 0
7, 197084, Note_on_c, 1, 77, 0
7, 197100, Note_on_c, 1, 77, 54
7, 197100, Note_on_c, 1, 73, 54
7, 197144, Note_on_c, 1, 77, 0
7, 197144, Note_on_c, 1, 73, 0
7, 197160, Note_on_c, 1, 73, 54
7, 197160, Note_on_c, 1, 77, 54
7, 197264, Note_on_c, 1, 73, 0
7, 197264, Note_on_c, 1, 77, 0
7, 197280, Note_on_c, 1, 78, 56
7, 197280, Note_on_c, 1, 73, 56
7, 197399, Note_on_c, 1, 78, 0
7, 197399, Note_on_c, 1, 73, 0
7, 197640, Note_on_c, 1, 75, 60
7, 197640, Note_on_c, 1, 78, 60
7, 197804, Note_on_c, 1, 75, 0
7, 197804, Note_on_c, 1, 78, 0
7, 197820, Note_on_c, 1, 75, 62
7, 197820, Note_on_c, 1, 78, 62
7, 197864, Note_on_c, 1, 75, 0
7, 197864, Note_on_c, 1, 78, 0
7, 197880, Note_on_c, 1, 78, 62
7, 197880, Note_on_c, 1, 75, 62
7, 197984, Note_on_c, 1, 78, 0
7, 197984, Note_on_c, 1, 75, 0
7, 198000, Note_on_c, 1, 78, 64
7, 198000, Note_on_c, 1, 75, 64
7, 198119, Note_on_c, 1, 78, 0
7, 198119, Note_on_c, 1, 75, 0
7, 198360, Note_on_c, 1, 80, 68
7, 198360, Note_on_c, 1, 75, 68
7, 198524, Note_on_c, 1, 80, 0
7, 198524, Note_on_c, 1, 75, 0
7, 198540, Note_on_c, 1, 80, 70
7, 198540, Note_on_c, 1, 75, 70
7, 198584, Note_on_c, 1, 80, 0
7, 198584, Note_on_c, 1, 75, 0
7, 198600, Note_on_c, 1, 80, 70
7, 198600, Note_on_c, 1, 75, 70
7, 198704, Note_on_c, 1, 80, 0
7, 198704, Note_on_c, 1, 75, 0
7, 198720, Note_on_c, 1, 76, 72
7, 198720, Note_on_c, 1, 80, 72
7, 198839, Note_on_c, 1, 76, 0
7, 198839, Note_on_c, 1, 80, 0
7, 199080, Note_on_c, 1, 80, 76
7, 199080, Note_on_c, 1, 76, 76
7, 199244, Note_on_c, 1, 80, 0
7, 199244, Note_on_c, 1, 76, 0
7, 199260, Note_on_c, 1, 76, 78
7, 199260, Note_on_c, 1, 80, 78
7, 199304, Note_on_c, 1, 76, 0
7, 199304, Note_on_c, 1, 80, 0
7, 199320, Note_on_c, 1, 80, 78
7, 199320, Note_on_c, 1, 76, 78
7, 199424, Note_on_c, 1, 80, 0
7, 199424, Note_on_c, 1, 76, 0
7, 199440, Note_on_c, 1, 81, 80
7, 199440, Note_on_c, 1, 76, 80
7, 199559, Note_on_c, 1, 81, 0
7, 199559, Note_on_c, 1, 76, 0
7, 199800, Note_on_c, 1, 81, 80
7, 199964, Note_on_c, 1, 81, 0
7, 199980, Note_on_c, 1, 69, 80
7, 200024, Note_on_c, 1, 69, 0
7, 200040, Note_on_c, 1, 69, 80
7, 200144, Note_on_c, 1, 69, 0
7, 200520, Note_on_c, 1, 82, 92
7, 200520, Note_on_c, 1, 70, 92
7, 200684, Note_on_c, 1, 82, 0
7, 200684, Note_on_c, 1, 70, 0
7, 200700, Note_on_c, 1, 70, 92
7, 200744, Note_on_c, 1, 70, 0
7, 200760, Note_on_c, 1, 70, 92
7, 200864, Note_on_c, 1, 70, 0
7, 201240, Note_on_c, 1, 83, 92
7, 201240, Note_on_c, 1, 71, 92
7, 201404, Note_on_c, 1, 83, 0
7, 201404, Note_on_c, 1, 71, 0
7, 201420, Note_on_c, 1, 71, 92
7, 201464, Note_on_c, 1, 71, 0
7, 201480, Note_on_c, 1, 71, 92
7, 201929, Note_on_c, 1, 71, 0
7, 203040, Note_on_c, 1, 83, 44
7, 203204, Note_on_c, 1, 83, 0
7, 203220, Note_on_c, 1, 71, 44
7, 203264, Note_on_c, 1, 71, 0
7, 203280, Note_on_c, 1, 71, 44
7, 203384, Note_on_c, 1, 71, 0
7, 203400, Note_on_c, 1, 76, 44
7, 203504, Note_on_c, 1, 76, 0
7, 203520, Note_on_c, 1, 75, 44
7, 203520, Note_on_c, 1, 78, 44
7, 203609, Note_on_c, 1, 75, 0
7, 203609, Note_on_c, 1, 78, 0
7, 203640, Note_on_c, 1, 79, 44
7, 203640, Note_on_c, 1, 76, 44
7, 203729, Note_on_c, 1, 79, 0
7, 203729, Note_on_c, 1, 76, 0
7, 203760, Note_on_c, 1, 78, 44
7, 203760, Note_on_c, 1, 75, 44
7, 203849, Note_on_c, 1, 78, 0
7, 203849, Note_on_c, 1, 75, 0
7, 203880, Note_on_c, 1, 79, 44
7, 203880, Note_on_c, 1, 76, 44
7, 203969, Note_on_c, 1, 79, 0
7, 203969, Note_on_c, 1, 76, 0
7, 204000, Note_on_c, 1, 78, 44
7, 204000, Note_on_c, 1, 81, 44
7, 204089, Note_on_c, 1, 78, 0
7, 204089, Note_on_c, 1, 81, 0
7, 204120, Note_on_c, 1, 79, 44
7, 204120, Note_on_c, 1, 76, 44
7, 204209, Note_on_c, 1, 79, 0
7, 204209, Note_on_c, 1, 76, 0
7, 204240, Note_on_c, 1, 79, 44
7, 204240, Note_on_c, 1, 83, 44
7, 204329, Note_on_c, 1, 79, 0
7, 204329, Note_on_c, 1, 83, 0
7, 204360, Note_on_c, 1, 83, 44
7, 204360, Note_on_c, 1, 79, 44
7, 204449, Note_on_c, 1, 83, 0
7, 204449, Note_on_c, 1, 79, 0
7, 204480, Note_on_c, 1, 79, 44
7, 204480, Note_on_c, 1, 83, 44
7, 204569, Note_on_c, 1, 79, 0
7, 204569, Note_on_c, 1, 83, 0
7, 204600, Note_on_c, 1, 81, 44
7, 204600, Note_on_c, 1, 78, 44
7, 204689, Note_on_c, 1, 81, 0
7, 204689, Note_on_c, 1, 78, 0
7, 204720, Note_on_c, 1, 79, 44
7, 204720, Note_on_c, 1, 76, 44
7, 204809, Note_on_c, 1, 79, 0
7, 204809, Note_on_c, 1, 76, 0
7, 204840, Note_on_c, 1, 81, 44
7, 204840, Note_on_c, 1, 78, 44
7, 204929, Note_on_c, 1, 81, 0
7, 204929, Note_on_c, 1, 78, 0
7, 204960, Note_on_c, 1, 76, 44
7, 204960, Note_on_c, 1, 79, 44
7, 205049, Note_on_c, 1, 76, 0
7, 205049, Note_on_c, 1, 79, 0
7, 205080, Note_on_c, 1, 78, 44
7, 205080, Note_on_c, 1, 75, 44
7, 205169, Note_on_c, 1, 78, 0
7, 205169, Note_on_c, 1, 75, 0
7, 205200, Note_on_c, 1, 76, 44
7, 205364, Note_on_c, 1, 76, 0
7, 205380, Note_on_c, 1, 64, 44
7, 205424, Note_on_c, 1, 64, 0
7, 205440, Note_on_c, 1, 64, 44
7, 205544, Note_on_c, 1, 64, 0
7, 205560, Note_on_c, 1, 76, 44
7, 205649, Note_on_c, 1, 76, 0
7, 205680, Note_on_c, 1, 80, 44
7, 205769, Note_on_c, 1, 80, 0
7, 205800, Note_on_c, 1, 81, 44
7, 205889, Note_on_c, 1, 81, 0
7, 205920, Note_on_c, 1, 80, 44
7, 206009, Note_on_c, 1, 80, 0
7, 206040, Note_on_c, 1, 81, 44
7, 206129, Note_on_c, 1, 81, 0
7, 206160, Note_on_c, 1, 83, 44
7, 206249, Note_on_c, 1, 83, 0
7, 206280, Note_on_c, 1, 81, 44
7, 206369, Note_on_c, 1, 81, 0
7, 206400, Note_on_c, 1, 84, 44
7, 206489, Note_on_c, 1, 84, 0
7, 206520, Note_on_c, 1, 84, 44
7, 206609, Note_on_c, 1, 84, 0
7, 206640, Note_on_c, 1, 84, 44
7, 206729, Note_on_c, 1, 84, 0
7, 206760, Note_on_c, 1, 83, 44
7, 206849, Note_on_c, 1, 83, 0
7, 206880, Note_on_c, 1, 81, 44
7, 206969, Note_on_c, 1, 81, 0
7, 207000, Note_on_c, 1, 83, 44
7, 207089, Note_on_c, 1, 83, 0
7, 207120, Note_on_c, 1, 81, 44
7, 207209, Note_on_c, 1, 81, 0
7, 207240, Note_on_c, 1, 80, 44
7, 207329, Note_on_c, 1, 80, 0
7, 207360, Note_on_c, 1, 76, 44
7, 207524, Note_on_c, 1, 76, 0
7, 207540, Note_on_c, 1, 64, 44
7, 207584, Note_on_c, 1, 64, 0
7, 207600, Note_on_c, 1, 64, 44
7, 207704, Note_on_c, 1, 64, 0
7, 207720, Note_on_c, 1, 76, 44
7, 207809, Note_on_c, 1, 76, 0
7, 207840, Note_on_c, 1, 80, 44
7, 207929, Note_on_c, 1, 80, 0
7, 207960, Note_on_c, 1, 81, 44
7, 208049, Note_on_c, 1, 81, 0
7, 208080, Note_on_c, 1, 80, 44
7, 208169, Note_on_c, 1, 80, 0
7, 208200, Note_on_c, 1, 81, 44
7, 208289, Note_on_c, 1, 81, 0
7, 208320, Note_on_c, 1, 83, 44
7, 208409, Note_on_c, 1, 83, 0
7, 208800, Note_on_c, 1, 77, 44
7, 208889, Note_on_c, 1, 77, 0
7, 208920, Note_on_c, 1, 79, 44
7, 209009, Note_on_c, 1, 79, 0
7, 209040, Note_on_c, 1, 81, 44
7, 209129, Note_on_c, 1, 81, 0
7, 209160, Note_on_c, 1, 79, 44
7, 209249, Note_on_c, 1, 79, 0
7, 209280, Note_on_c, 1, 81, 44
7, 209369, Note_on_c, 1, 81, 0
7, 209400, Note_on_c, 1, 82, 44
7, 209489, Note_on_c, 1, 82, 0
7, 209880, Note_on_c, 1, 81, 44
7, 209969, Note_on_c, 1, 81, 0
7, 210000, Note_on_c, 1, 79, 44
7, 210089, Note_on_c, 1, 79, 0
7, 210120, Note_on_c, 1, 81, 44
7, 210209, Note_on_c, 1, 81, 0
7, 210240, Note_on_c, 1, 79, 44
7, 210329, Note_on_c, 1, 79, 0
7, 210360, Note_on_c, 1, 81, 44
7, 210449, Note_on_c, 1, 81, 0
7, 210480, Note_on_c, 1, 82, 44
7, 210569, Note_on_c, 1, 82, 0
7, 210960, Note_on_c, 1, 77, 44
7, 210960, Note_on_c, 1, 81, 44
7, 211049, Note_on_c, 1, 77, 0
7, 211049, Note_on_c, 1, 81, 0
7, 211080, Note_on_c, 1, 79, 44
7, 211080, Note_on_c, 1, 82, 44
7, 211169, Note_on_c, 1, 79, 0
7, 211169, Note_on_c, 1, 82, 0
7, 211200, Note_on_c, 1, 81, 44
7, 211200, Note_on_c, 1, 84, 44
7, 211289, Note_on_c, 1, 81, 0
7, 211289, Note_on_c, 1, 84, 0
7, 211320, Note_on_c, 1, 79, 44
7, 211320, Note_on_c, 1, 82, 44
7, 211409, Note_on_c, 1, 79, 0
7, 211409, Note_on_c, 1, 82, 0
7, 211440, Note_on_c, 1, 81, 44
7, 211440, Note_on_c, 1, 84, 44
7, 211529, Note_on_c, 1, 81, 0
7, 211529, Note_on_c, 1, 84, 0
7, 211560, Note_on_c, 1, 82, 44
7, 211560, Note_on_c, 1, 86, 44
7, 211649, Note_on_c, 1, 82, 0
7, 211649, Note_on_c, 1, 86, 0
7, 212040, Note_on_c, 1, 72, 44
7, 212040, Note_on_c, 1, 69, 44
7, 212129, Note_on_c, 1, 72, 0
7, 212129, Note_on_c, 1, 69, 0
7, 212160, Note_on_c, 1, 67, 44
7, 212160, Note_on_c, 1, 76, 44
7, 212249, Note_on_c, 1, 67, 0
7, 212249, Note_on_c, 1, 76, 0
7, 212280, Note_on_c, 1, 69, 44
7, 212280, Note_on_c, 1, 77, 44
7, 212369, Note_on_c, 1, 69, 0
7, 212369, Note_on_c, 1, 77, 0
7, 212400, Note_on_c, 1, 76, 44
7, 212400, Note_on_c, 1, 67, 44
7, 212489, Note_on_c, 1, 76, 0
7, 212489, Note_on_c, 1, 67, 0
7, 212520, Note_on_c, 1, 77, 44
7, 212520, Note_on_c, 1, 69, 44
7, 212609, Note_on_c, 1, 77, 0
7, 212609, Note_on_c, 1, 69, 0
7, 212640, Note_on_c, 1, 70, 44
7, 212640, Note_on_c, 1, 79, 44
7, 212729, Note_on_c, 1, 70, 0
7, 212729, Note_on_c, 1, 79, 0
7, 212760, Note_on_c, 1, 77, 44
7, 212760, Note_on_c, 1, 81, 44
7, 212849, Note_on_c, 1, 77, 0
7, 212849, Note_on_c, 1, 81, 0
7, 212880, Note_on_c, 1, 82, 44
7, 212880, Note_on_c, 1, 79, 44
7, 212969, Note_on_c, 1, 82, 0
7, 212969, Note_on_c, 1, 79, 0
7, 213000, Note_on_c, 1, 84, 44
7, 213000, Note_on_c, 1, 81, 44
7, 213089, Note_on_c, 1, 84, 0
7, 213089, Note_on_c, 1, 81, 0
7, 213120, Note_on_c, 1, 81, 44
7, 213120, Note_on_c, 1, 84, 44
7, 213209, Note_on_c, 1, 81, 0
7, 213209, Note_on_c, 1, 84, 0
7, 213240, Note_on_c, 1, 82, 44
7, 213240, Note_on_c, 1, 79, 44
7, 213329, Note_on_c, 1, 82, 0
7, 213329, Note_on_c, 1, 79, 0
7, 213360, Note_on_c, 1, 81, 44
7, 213360, Note_on_c, 1, 77, 44
7, 213449, Note_on_c, 1, 81, 0
7, 213449, Note_on_c, 1, 77, 0
7, 213480, Note_on_c, 1, 77, 43
7, 213480, Note_on_c, 1, 81, 43
7, 213569, Note_on_c, 1, 77, 0
7, 213569, Note_on_c, 1, 81, 0
7, 213600, Note_on_c, 1, 79, 43
7, 213600, Note_on_c, 1, 82, 43
7, 213689, Note_on_c, 1, 79, 0
7, 213689, Note_on_c, 1, 82, 0
7, 213720, Note_on_c, 1, 77, 43
7, 213720, Note_on_c, 1, 81, 43
7, 213809, Note_on_c, 1, 77, 0
7, 213809, Note_on_c, 1, 81, 0
7, 214200, Note_on_c, 1, 72, 41
7, 214364, Note_on_c, 1, 72, 0
7, 214380, Note_on_c, 1, 60, 41
7, 214424, Note_on_c, 1, 60, 0
7, 214440, Note_on_c, 1, 60, 40
7, 214544, Note_on_c, 1, 60, 0
7, 214920, Note_on_c, 1, 77, 39
7, 214920, Note_on_c, 1, 74, 39
7, 215024, Note_on_c, 1, 77, 0
7, 215024, Note_on_c, 1, 74, 0
7, 215040, Note_on_c, 1, 76, 39
7, 215040, Note_on_c, 1, 79, 39
7, 215144, Note_on_c, 1, 76, 0
7, 215144, Note_on_c, 1, 79, 0
7, 215160, Note_on_c, 1, 81, 38
7, 215160, Note_on_c, 1, 77, 38
7, 215264, Note_on_c, 1, 81, 0
7, 215264, Note_on_c, 1, 77, 0
7, 215280, Note_on_c, 1, 81, 38
7, 215280, Note_on_c, 1, 77, 38
7, 215384, Note_on_c, 1, 81, 0
7, 215384, Note_on_c, 1, 77, 0
7, 215400, Note_on_c, 1, 79, 38
7, 215400, Note_on_c, 1, 76, 38
7, 215504, Note_on_c, 1, 79, 0
7, 215504, Note_on_c, 1, 76, 0
7, 215520, Note_on_c, 1, 74, 37
7, 215520, Note_on_c, 1, 77, 37
7, 215624, Note_on_c, 1, 74, 0
7, 215624, Note_on_c, 1, 77, 0
7, 215640, Note_on_c, 1, 74, 37
7, 215640, Note_on_c, 1, 77, 37
7, 215744, Note_on_c, 1, 74, 0
7, 215744, Note_on_c, 1, 77, 0
7, 215760, Note_on_c, 1, 76, 36
7, 215760, Note_on_c, 1, 79, 36
7, 215864, Note_on_c, 1, 76, 0
7, 215864, Note_on_c, 1, 79, 0
7, 215880, Note_on_c, 1, 74, 36
7, 215880, Note_on_c, 1, 77, 36
7, 215999, Note_on_c, 1, 74, 0
7, 215999, Note_on_c, 1, 77, 0
7, 217080, Note_on_c, 1, 74, 32
7, 217080, Note_on_c, 1, 77, 32
7, 217184, Note_on_c, 1, 74, 0
7, 217184, Note_on_c, 1, 77, 0
7, 217200, Note_on_c, 1, 79, 32
7, 217200, Note_on_c, 1, 76, 32
7, 217304, Note_on_c, 1, 79, 0
7, 217304, Note_on_c, 1, 76, 0
7, 217320, Note_on_c, 1, 77, 32
7, 217320, Note_on_c, 1, 81, 32
7, 217424, Note_on_c, 1, 77, 0
7, 217424, Note_on_c, 1, 81, 0
7, 217440, Note_on_c, 1, 81, 32
7, 217440, Note_on_c, 1, 77, 32
7, 217544, Note_on_c, 1, 81, 0
7, 217544, Note_on_c, 1, 77, 0
7, 217560, Note_on_c, 1, 76, 32
7, 217560, Note_on_c, 1, 79, 32
7, 217664, Note_on_c, 1, 76, 0
7, 217664, Note_on_c, 1, 79, 0
7, 217680, Note_on_c, 1, 77, 32
7, 217680, Note_on_c, 1, 74, 32
7, 217784, Note_on_c, 1, 77, 0
7, 217784, Note_on_c, 1, 74, 0
7, 217800, Note_on_c, 1, 74, 32
7, 217800, Note_on_c, 1, 77, 32
7, 217904, Note_on_c, 1, 74, 0
7, 217904, Note_on_c, 1, 77, 0
7, 217920, Note_on_c, 1, 79, 32
7, 217920, Note_on_c, 1, 76, 32
7, 218024, Note_on_c, 1, 79, 0
7, 218024, Note_on_c, 1, 76, 0
7, 218040, Note_on_c, 1, 74, 32
7, 218040, Note_on_c, 1, 77, 32
7, 218159, Note_on_c, 1, 74, 0
7, 218159, Note_on_c, 1, 77, 0
7, 219240, Note_on_c, 1, 81, 32
7, 219404, Note_on_c, 1, 81, 0
7, 219420, Note_on_c, 1, 69, 32
7, 219464, Note_on_c, 1, 69, 0
7, 219480, Note_on_c, 1, 69, 32
7, 219584, Note_on_c, 1, 69, 0
7, 219600, Note_on_c, 1, 74, 32
7, 219704, Note_on_c, 1, 74, 0
7, 219720, Note_on_c, 1, 76, 32
7, 219720, Note_on_c, 1, 73, 32
7, 219824, Note_on_c, 1, 76, 0
7, 219824, Note_on_c, 1, 73, 0
7, 219840, Note_on_c, 1, 74, 32
7, 219840, Note_on_c, 1, 77, 32
7, 219944, Note_on_c, 1, 74, 0
7, 219944, Note_on_c, 1, 77, 0
7, 219960, Note_on_c, 1, 73, 32
7, 219960, Note_on_c, 1, 76, 32
7, 220064, Note_on_c, 1, 73, 0
7, 220064, Note_on_c, 1, 76, 0
7, 220080, Note_on_c, 1, 74, 32
7, 220080, Note_on_c, 1, 77, 32
7, 220184, Note_on_c, 1, 74, 0
7, 220184, Note_on_c, 1, 77, 0
7, 220200, Note_on_c, 1, 79, 32
7, 220200, Note_on_c, 1, 76, 32
7, 220304, Note_on_c, 1, 79, 0
7, 220304, Note_on_c, 1, 76, 0
7, 220320, Note_on_c, 1, 74, 32
7, 220320, Note_on_c, 1, 77, 32
7, 220424, Note_on_c, 1, 74, 0
7, 220424, Note_on_c, 1, 77, 0
7, 220440, Note_on_c, 1, 81, 32
7, 220440, Note_on_c, 1, 77, 32
7, 220544, Note_on_c, 1, 81, 0
7, 220544, Note_on_c, 1, 77, 0
7, 220560, Note_on_c, 1, 81, 32
7, 220560, Note_on_c, 1, 77, 32
7, 220664, Note_on_c, 1, 81, 0
7, 220664, Note_on_c, 1, 77, 0
7, 220680, Note_on_c, 1, 81, 32
7, 220680, Note_on_c, 1, 77, 32
7, 220784, Note_on_c, 1, 81, 0
7, 220784, Note_on_c, 1, 77, 0
7, 220800, Note_on_c, 1, 76, 32
7, 220800, Note_on_c, 1, 79, 32
7, 220904, Note_on_c, 1, 76, 0
7, 220904, Note_on_c, 1, 79, 0
7, 220920, Note_on_c, 1, 74, 32
7, 220920, Note_on_c, 1, 77, 32
7, 221024, Note_on_c, 1, 74, 0
7, 221024, Note_on_c, 1, 77, 0
7, 221040, Note_on_c, 1, 79, 32
7, 221040, Note_on_c, 1, 76, 32
7, 221144, Note_on_c, 1, 79, 0
7, 221144, Note_on_c, 1, 76, 0
7, 221160, Note_on_c, 1, 74, 32
7, 221160, Note_on_c, 1, 77, 32
7, 221264, Note_on_c, 1, 74, 0
7, 221264, Note_on_c, 1, 77, 0
7, 221280, Note_on_c, 1, 73, 32
7, 221280, Note_on_c, 1, 76, 32
7, 221384, Note_on_c, 1, 73, 0
7, 221384, Note_on_c, 1, 76, 0
7, 221400, Note_on_c, 1, 81, 32
7, 221564, Note_on_c, 1, 81, 0
7, 221580, Note_on_c, 1, 69, 32
7, 221624, Note_on_c, 1, 69, 0
7, 221640, Note_on_c, 1, 69, 32
7, 221744, Note_on_c, 1, 69, 0
7, 221760, Note_on_c, 1, 74, 32
7, 221864, Note_on_c, 1, 74, 0
7, 221880, Note_on_c, 1, 76, 32
7, 221880, Note_on_c, 1, 73, 32
7, 221984, Note_on_c, 1, 76, 0
7, 221984, Note_on_c, 1, 73, 0
7, 222000, Note_on_c, 1, 74, 32
7, 222000, Note_on_c, 1, 77, 32
7, 222104, Note_on_c, 1, 74, 0
7, 222104, Note_on_c, 1, 77, 0
7, 222120, Note_on_c, 1, 73, 32
7, 222120, Note_on_c, 1, 76, 32
7, 222224, Note_on_c, 1, 73, 0
7, 222224, Note_on_c, 1, 76, 0
7, 222240, Note_on_c, 1, 74, 32
7, 222240, Note_on_c, 1, 77, 32
7, 222344, Note_on_c, 1, 74, 0
7, 222344, Note_on_c, 1, 77, 0
7, 222360, Note_on_c, 1, 79, 32
7, 222360, Note_on_c, 1, 76, 32
7, 222464, Note_on_c, 1, 79, 0
7, 222464, Note_on_c, 1, 76, 0
7, 222480, Note_on_c, 1, 77, 32
7, 222480, Note_on_c, 1, 74, 32
7, 222584, Note_on_c, 1, 77, 0
7, 222584, Note_on_c, 1, 74, 0
7, 222600, Note_on_c, 1, 81, 32
7, 222704, Note_on_c, 1, 81, 0
7, 222720, Note_on_c, 1, 81, 32
7, 222824, Note_on_c, 1, 81, 0
7, 222840, Note_on_c, 1, 81, 32
7, 222944, Note_on_c, 1, 81, 0
7, 222960, Note_on_c, 1, 81, 32
7, 223064, Note_on_c, 1, 81, 0
7, 223080, Note_on_c, 1, 81, 32
7, 223184, Note_on_c, 1, 81, 0
7, 223200, Note_on_c, 1, 81, 32
7, 223304, Note_on_c, 1, 81, 0
7, 223320, Note_on_c, 1, 81, 32
7, 223424, Note_on_c, 1, 81, 0
7, 223440, Note_on_c, 1, 81, 32
7, 223544, Note_on_c, 1, 81, 0
7, 223560, Note_on_c, 1, 81, 32
7, 223664, Note_on_c, 1, 81, 0
7, 223680, Note_on_c, 1, 81, 32
7, 223784, Note_on_c, 1, 81, 0
7, 223800, Note_on_c, 1, 81, 32
7, 223904, Note_on_c, 1, 81, 0
7, 223920, Note_on_c, 1, 79, 32
7, 224024, Note_on_c, 1, 79, 0
7, 224040, Note_on_c, 1, 79, 32
7, 224144, Note_on_c, 1, 79, 0
7, 224160, Note_on_c, 1, 79, 32
7, 224264, Note_on_c, 1, 79, 0
7, 224280, Note_on_c, 1, 79, 32
7, 224384, Note_on_c, 1, 79, 0
7, 224400, Note_on_c, 1, 79, 32
7, 224504, Note_on_c, 1, 79, 0
7, 224520, Note_on_c, 1, 79, 32
7, 224624, Note_on_c, 1, 79, 0
7, 224640, Note_on_c, 1, 79, 32
7, 224744, Note_on_c, 1, 79, 0
7, 224760, Note_on_c, 1, 79, 32
7, 224864, Note_on_c, 1, 79, 0
7, 224880, Note_on_c, 1, 79, 32
7, 224984, Note_on_c, 1, 79, 0
7, 225000, Note_on_c, 1, 79, 32
7, 225104, Note_on_c, 1, 79, 0
7, 225120, Note_on_c, 1, 79, 32
7, 225224, Note_on_c, 1, 79, 0
7, 225240, Note_on_c, 1, 79, 32
7, 225344, Note_on_c, 1, 79, 0
7, 225360, Note_on_c, 1, 74, 32
7, 225464, Note_on_c, 1, 74, 0
7, 225480, Note_on_c, 1, 75, 32
7, 225584, Note_on_c, 1, 75, 0
7, 225600, Note_on_c, 1, 77, 32
7, 225704, Note_on_c, 1, 77, 0
7, 225720, Note_on_c, 1, 75, 32
7, 225824, Note_on_c, 1, 75, 0
7, 225840, Note_on_c, 1, 82, 32
7, 225944, Note_on_c, 1, 82, 0
7, 225960, Note_on_c, 1, 82, 32
7, 226064, Note_on_c, 1, 82, 0
7, 226080, Note_on_c, 1, 82, 32
7, 226184, Note_on_c, 1, 82, 0
7, 226200, Note_on_c, 1, 82, 32
7, 226304, Note_on_c, 1, 82, 0
7, 226320, Note_on_c, 1, 82, 32
7, 226424, Note_on_c, 1, 82, 0
7, 226440, Note_on_c, 1, 82, 32
7, 226544, Note_on_c, 1, 82, 0
7, 226560, Note_on_c, 1, 82, 32
7, 226664, Note_on_c, 1, 82, 0
7, 226680, Note_on_c, 1, 82, 32
7, 226784, Note_on_c, 1, 82, 0
7, 226800, Note_on_c, 1, 82, 32
7, 226904, Note_on_c, 1, 82, 0
7, 226920, Note_on_c, 1, 82, 32
7, 227024, Note_on_c, 1, 82, 0
7, 227040, Note_on_c, 1, 82, 32
7, 227144, Note_on_c, 1, 82, 0
7, 227160, Note_on_c, 1, 82, 32
7, 227264, Note_on_c, 1, 82, 0
7, 227280, Note_on_c, 1, 82, 32
7, 227384, Note_on_c, 1, 82, 0
7, 227400, Note_on_c, 1, 82, 32
7, 227504, Note_on_c, 1, 82, 0
7, 227520, Note_on_c, 1, 82, 32
7, 227639, Note_on_c, 1, 82, 0
7, 228960, Note_on_c, 1, 82, 32
7, 229079, Note_on_c, 1, 82, 0
7, 229320, Note_on_c, 1, 82, 32
7, 229439, Note_on_c, 1, 82, 0
7, 229680, Note_on_c, 1, 82, 32
7, 229799, Note_on_c, 1, 82, 0
7, 230040, Note_on_c, 1, 82, 32
7, 230159, Note_on_c, 1, 82, 0
7, 230400, Note_on_c, 1, 82, 32
7, 230519, Note_on_c, 1, 82, 0
7, 231840, Note_on_c, 1, 77, 44
7, 231840, Note_on_c, 1, 74, 44
7, 231959, Note_on_c, 1, 77, 0
7, 231959, Note_on_c, 1, 74, 0
7, 232560, Note_on_c, 1, 77, 62
7, 232560, Note_on_c, 1, 65, 62
7, 232679, Note_on_c, 1, 77, 0
7, 232679, Note_on_c, 1, 65, 0
7, 233280, Note_on_c, 1, 74, 80
7, 233280, Note_on_c, 1, 77, 80
7, 233399, Note_on_c, 1, 74, 0
7, 233399, Note_on_c, 1, 77, 0
7, 234000, Note_on_c, 1, 81, 86
7, 234000, Note_on_c, 1, 77, 86
7, 234119, Note_on_c, 1, 81, 0
7, 234119, Note_on_c, 1, 77, 0
7, 234720, Note_on_c, 1, 81, 92
7, 234884, Note_on_c, 1, 81, 0
7, 234900, Note_on_c, 1, 69, 92
7, 234944, Note_on_c, 1, 69, 0
7, 234960, Note_on_c, 1, 69, 92
7, 235064, Note_on_c, 1, 69, 0
7, 235080, Note_on_c, 1, 81, 92
7, 235244, Note_on_c, 1, 81, 0
7, 235260, Note_on_c, 1, 69, 92
7, 235304, Note_on_c, 1, 69, 0
7, 235320, Note_on_c, 1, 69, 92
7, 235424, Note_on_c, 1, 69, 0
7, 235440, Note_on_c, 1, 81, 92
7, 235604, Note_on_c, 1, 81, 0
7, 235620, Note_on_c, 1, 69, 92
7, 235664, Note_on_c, 1, 69, 0
7, 235680, Note_on_c, 1, 69, 92
7, 235784, Note_on_c, 1, 69, 0
7, 235800, Note_on_c, 1, 81, 92
7, 235964, Note_on_c, 1, 81, 0
7, 235980, Note_on_c, 1, 69, 92
7, 236024, Note_on_c, 1, 69, 0
7, 236040, Note_on_c, 1, 69, 92
7, 236144, Note_on_c, 1, 69, 0
7, 236160, Note_on_c, 1, 81, 92
7, 236324, Note_on_c, 1, 81, 0
7, 236340, Note_on_c, 1, 69, 92
7, 236384, Note_on_c, 1, 69, 0
7, 236400, Note_on_c, 1, 69, 92
7, 236504, Note_on_c, 1, 69, 0
7, 236520, Note_on_c, 1, 74, 92
7, 236609, Note_on_c, 1, 74, 0
7, 236640, Note_on_c, 1, 76, 92
7, 236729, Note_on_c, 1, 76, 0
7, 236760, Note_on_c, 1, 77, 92
7, 236849, Note_on_c, 1, 77, 0
7, 236880, Note_on_c, 1, 76, 92
7, 236969, Note_on_c, 1, 76, 0
7, 237000, Note_on_c, 1, 77, 92
7, 237089, Note_on_c, 1, 77, 0
7, 237120, Note_on_c, 1, 79, 92
7, 237209, Note_on_c, 1, 79, 0
7, 237240, Note_on_c, 1, 77, 92
7, 237329, Note_on_c, 1, 77, 0
7, 237360, Note_on_c, 1, 76, 92
7, 237449, Note_on_c, 1, 76, 0
7, 237480, Note_on_c, 1, 74, 92
7, 237569, Note_on_c, 1, 74, 0
7, 237600, Note_on_c, 1, 82, 92
7, 237689, Note_on_c, 1, 82, 0
7, 237720, Note_on_c, 1, 81, 92
7, 237809, Note_on_c, 1, 81, 0
7, 237840, Note_on_c, 1, 79, 92
7, 237929, Note_on_c, 1, 79, 0
7, 237960, Note_on_c, 1, 77, 92
7, 238049, Note_on_c, 1, 77, 0
7, 238080, Note_on_c, 1, 76, 92
7, 238169, Note_on_c, 1, 76, 0
7, 238200, Note_on_c, 1, 74, 92
7, 238289, Note_on_c, 1, 74, 0
7, 238320, Note_on_c, 1, 73, 92
7, 238409, Note_on_c, 1, 73, 0
7, 238440, Note_on_c, 1, 74, 92
7, 238529, Note_on_c, 1, 74, 0
7, 238560, Note_on_c, 1, 76, 92
7, 238649, Note_on_c, 1, 76, 0
7, 238680, Note_on_c, 1, 74, 92
7, 238769, Note_on_c, 1, 74, 0
7, 238800, Note_on_c, 1, 73, 92
7, 238889, Note_on_c, 1, 73, 0
7, 238920, Note_on_c, 1, 74, 92
7, 239009, Note_on_c, 1, 74, 0
7, 239040, Note_on_c, 1, 82, 92
7, 239129, Note_on_c, 1, 82, 0
7, 239160, Note_on_c, 1, 81, 92
7, 239249, Note_on_c, 1, 81, 0
7, 239280, Note_on_c, 1, 79, 92
7, 239369, Note_on_c, 1, 79, 0
7, 239400, Note_on_c, 1, 77, 92
7, 239489, Note_on_c, 1, 77, 0
7, 239520, Note_on_c, 1, 76, 92
7, 239609, Note_on_c, 1, 76, 0
7, 239640, Note_on_c, 1, 74, 92
7, 239729, Note_on_c, 1, 74, 0
7, 239760, Note_on_c, 1, 73, 92
7, 239849, Note_on_c, 1, 73, 0
7, 239880, Note_on_c, 1, 74, 92
7, 239969, Note_on_c, 1, 74, 0
7, 240000, Note_on_c, 1, 76, 92
7, 240089, Note_on_c, 1, 76, 0
7, 240120, Note_on_c, 1, 74, 92
7, 240209, Note_on_c, 1, 74, 0
7, 240240, Note_on_c, 1, 73, 92
7, 240329, Note_on_c, 1, 73, 0
7, 240360, Note_on_c, 1, 74, 92
7, 240449, Note_on_c, 1, 74, 0
7, 240480, Note_on_c, 1, 72, 92
7, 240569, Note_on_c, 1, 72, 0
7, 240600, Note_on_c, 1, 74, 92
7, 240689, Note_on_c, 1, 74, 0
7, 240720, Note_on_c, 1, 75, 92
7, 240809, Note_on_c, 1, 75, 0
7, 240840, Note_on_c, 1, 79, 92
7, 240929, Note_on_c, 1, 79, 0
7, 240960, Note_on_c, 1, 81, 92
7, 241049, Note_on_c, 1, 81, 0
7, 241080, Note_on_c, 1, 82, 92
7, 241169, Note_on_c, 1, 82, 0
7, 241200, Note_on_c, 1, 81, 92
7, 241289, Note_on_c, 1, 81, 0
7, 241320, Note_on_c, 1, 82, 92
7, 241409, Note_on_c, 1, 82, 0
7, 241440, Note_on_c, 1, 84, 92
7, 241529, Note_on_c, 1, 84, 0
7, 241560, Note_on_c, 1, 82, 92
7, 241649, Note_on_c, 1, 82, 0
7, 241680, Note_on_c, 1, 81, 92
7, 241769, Note_on_c, 1, 81, 0
7, 241800, Note_on_c, 1, 79, 92
7, 241889, Note_on_c, 1, 79, 0
7, 241920, Note_on_c, 1, 75, 80
7, 242009, Note_on_c, 1, 75, 0
7, 242040, Note_on_c, 1, 74, 80
7, 242129, Note_on_c, 1, 74, 0
7, 242160, Note_on_c, 1, 72, 80
7, 242249, Note_on_c, 1, 72, 0
7, 242280, Note_on_c, 1, 70, 80
7, 242369, Note_on_c, 1, 70, 0
7, 242400, Note_on_c, 1, 69, 80
7, 242489, Note_on_c, 1, 69, 0
7, 242520, Note_on_c, 1, 67, 80
7, 242609, Note_on_c, 1, 67, 0
7, 242640, Note_on_c, 1, 77, 80
7, 242729, Note_on_c, 1, 77, 0
7, 242760, Note_on_c, 1, 75, 80
7, 242849, Note_on_c, 1, 75, 0
7, 242880, Note_on_c, 1, 74, 80
7, 242969, Note_on_c, 1, 74, 0
7, 243000, Note_on_c, 1, 72, 80
7, 243089, Note_on_c, 1, 72, 0
7, 243120, Note_on_c, 1, 70, 80
7, 243209, Note_on_c, 1, 70, 0
7, 243240, Note_on_c, 1, 69, 80
7, 243329, Note_on_c, 1, 69, 0
7, 243360, Note_on_c, 1, 69, 80
7, 243449, Note_on_c, 1, 69, 0
7, 243480, Note_on_c, 1, 70, 80
7, 243569, Note_on_c, 1, 70, 0
7, 243600, Note_on_c, 1, 72, 80
7, 243689, Note_on_c, 1, 72, 0
7, 243720, Note_on_c, 1, 74, 80
7, 243809, Note_on_c, 1, 74, 0
7, 243840, Note_on_c, 1, 75, 80
7, 243929, Note_on_c, 1, 75, 0
7, 243960, Note_on_c, 1, 77, 80
7, 244049, Note_on_c, 1, 77, 0
7, 244080, Note_on_c, 1, 79, 80
7, 244169, Note_on_c, 1, 79, 0
7, 244200, Note_on_c, 1, 81, 80
7, 244289, Note_on_c, 1, 81, 0
7, 244320, Note_on_c, 1, 82, 80
7, 244409, Note_on_c, 1, 82, 0
7, 244440, Note_on_c, 1, 84, 80
7, 244529, Note_on_c, 1, 84, 0
7, 244560, Note_on_c, 1, 86, 80
7, 244649, Note_on_c, 1, 86, 0
7, 244680, Note_on_c, 1, 75, 80
7, 244769, Note_on_c, 1, 75, 0
7, 244800, Note_on_c, 1, 77, 80
7, 244860, Control_c, 1, 11, 67
7, 245520, Control_c, 1, 11, 67
7, 245556, Control_c, 1, 11, 68
7, 245592, Control_c, 1, 11, 69
7, 245628, Control_c, 1, 11, 70
7, 245664, Control_c, 1, 11, 71
7, 245700, Control_c, 1, 11, 72
7, 245736, Control_c, 1, 11, 73
7, 245772, Control_c, 1, 11, 74
7, 245808, Control_c, 1, 11, 75
7, 245844, Control_c, 1, 11, 76
7, 245879, Note_on_c, 1, 77, 0
7, 245880, Control_c, 1, 11, 77
7, 245880, Note_on_c, 1, 75, 80
7, 245916, Control_c, 1, 11, 78
7, 245952, Control_c, 1, 11, 79
7, 245988, Control_c, 1, 11, 80
7, 246024, Control_c, 1, 11, 81
7, 246060, Control_c, 1, 11, 82
7, 246096, Control_c, 1, 11, 83
7, 246132, Control_c, 1, 11, 84
7, 246168, Control_c, 1, 11, 85
7, 246204, Control_c, 1, 11, 86
7, 246240, Control_c, 1, 11, 87
7, 246276, Control_c, 1, 11, 88
7, 246312, Control_c, 1, 11, 89
7, 246348, Control_c, 1, 11, 90
7, 246384, Control_c, 1, 11, 91
7, 246420, Control_c, 1, 11, 92
7, 246456, Control_c, 1, 11, 93
7, 246492, Control_c, 1, 11, 94
7, 246528, Control_c, 1, 11, 95
7, 246564, Control_c, 1, 11, 96
7, 246599, Note_on_c, 1, 75, 0
7, 246600, Note_on_c, 1, 74, 80
7, 246600, Control_c, 1, 11, 97
7, 246636, Control_c, 1, 11, 98
7, 246672, Control_c, 1, 11, 99
7, 246708, Control_c, 1, 11, 100
7, 246744, Control_c, 1, 11, 101
7, 246780, Control_c, 1, 11, 102
7, 246816, Control_c, 1, 11, 103
7, 246852, Control_c, 1, 11, 104
7, 246888, Control_c, 1, 11, 105
7, 246924, Control_c, 1, 11, 106
7, 246959, Note_on_c, 1, 74, 0
7, 246960, Control_c, 1, 11, 107
7, 246960, Note_on_c, 1, 73, 80
7, 246990, Control_c, 1, 11, 105
7, 247020, Control_c, 1, 11, 104
7, 247050, Control_c, 1, 11, 102
7, 247080, Control_c, 1, 11, 100
7, 247110, Control_c, 1, 11, 99
7, 247140, Control_c, 1, 11, 97
7, 247170, Control_c, 1, 11, 95
7, 247200, Control_c, 1, 11, 94
7, 247230, Control_c, 1, 11, 92
7, 247260, Control_c, 1, 11, 90
7, 247290, Control_c, 1, 11, 89
7, 247319, Note_on_c, 1, 73, 0
7, 247320, Note_on_c, 1, 72, 80
7, 247320, Control_c, 1, 11, 87
7, 247350, Control_c, 1, 11, 85
7, 247380, Control_c, 1, 11, 84
7, 247410, Control_c, 1, 11, 82
7, 247440, Control_c, 1, 11, 80
7, 247470, Control_c, 1, 11, 79
7, 247500, Control_c, 1, 11, 77
7, 247530, Control_c, 1, 11, 75
7, 247560, Control_c, 1, 11, 74
7, 247590, Control_c, 1, 11, 72
7, 247620, Control_c, 1, 11, 70
7, 247650, Control_c, 1, 11, 67
7, 247664, Note_on_c, 1, 72, 0
7, 247680, Note_on_c, 1, 82, 80
7, 248399, Note_on_c, 1, 82, 0
7, 248400, Note_on_c, 1, 81, 80
7, 248760, Control_c, 1, 11, 67
7, 248796, Control_c, 1, 11, 68
7, 248832, Control_c, 1, 11, 69
7, 248868, Control_c, 1, 11, 70
7, 248904, Control_c, 1, 11, 71
7, 248940, Control_c, 1, 11, 72
7, 248976, Control_c, 1, 11, 73
7, 249012, Control_c, 1, 11, 74
7, 249048, Control_c, 1, 11, 75
7, 249084, Control_c, 1, 11, 76
7, 249104, Note_on_c, 1, 81, 0
7, 249120, Note_on_c, 1, 81, 80
7, 249120, Control_c, 1, 11, 77
7, 249120, Note_on_c, 1, 83, 80
7, 249156, Control_c, 1, 11, 78
7, 249192, Control_c, 1, 11, 79
7, 249228, Control_c, 1, 11, 80
7, 249264, Control_c, 1, 11, 81
7, 249300, Control_c, 1, 11, 82
7, 249336, Control_c, 1, 11, 83
7, 249372, Control_c, 1, 11, 84
7, 249408, Control_c, 1, 11, 85
7, 249444, Control_c, 1, 11, 86
7, 249479, Note_on_c, 1, 81, 0
7, 249480, Control_c, 1, 11, 87
7, 249480, Note_on_c, 1, 79, 80
7, 249516, Control_c, 1, 11, 88
7, 249552, Control_c, 1, 11, 89
7, 249588, Control_c, 1, 11, 90
7, 249624, Control_c, 1, 11, 91
7, 249660, Control_c, 1, 11, 92
7, 249696, Control_c, 1, 11, 93
7, 249732, Control_c, 1, 11, 94
7, 249768, Control_c, 1, 11, 95
7, 249804, Control_c, 1, 11, 96
7, 249839, Note_on_c, 1, 83, 0
7, 249840, Note_on_c, 1, 82, 80
7, 249840, Control_c, 1, 11, 97
7, 249876, Control_c, 1, 11, 98
7, 249912, Control_c, 1, 11, 99
7, 249948, Control_c, 1, 11, 100
7, 249984, Control_c, 1, 11, 101
7, 250020, Control_c, 1, 11, 102
7, 250056, Control_c, 1, 11, 103
7, 250092, Control_c, 1, 11, 104
7, 250128, Control_c, 1, 11, 105
7, 250164, Control_c, 1, 11, 106
7, 250199, Note_on_c, 1, 79, 0
7, 250199, Note_on_c, 1, 82, 0
7, 250200, Note_on_c, 1, 81, 80
7, 250200, Control_c, 1, 11, 107
7, 250200, Note_on_c, 1, 78, 80
7, 250230, Control_c, 1, 11, 106
7, 250260, Control_c, 1, 11, 105
7, 250290, Control_c, 1, 11, 104
7, 250320, Control_c, 1, 11, 103
7, 250350, Control_c, 1, 11, 101
7, 250380, Control_c, 1, 11, 100
7, 250410, Control_c, 1, 11, 99
7, 250440, Control_c, 1, 11, 98
7, 250470, Control_c, 1, 11, 97
7, 250500, Control_c, 1, 11, 96
7, 250530, Control_c, 1, 11, 95
7, 250559, Note_on_c, 1, 78, 0
7, 250560, Control_c, 1, 11, 94
7, 250560, Note_on_c, 1, 77, 80
7, 250590, Control_c, 1, 11, 93
7, 250620, Control_c, 1, 11, 91
7, 250650, Control_c, 1, 11, 90
7, 250680, Control_c, 1, 11, 89
7, 250710, Control_c, 1, 11, 88
7, 250740, Control_c, 1, 11, 87
7, 250770, Control_c, 1, 11, 86
7, 250800, Control_c, 1, 11, 85
7, 250830, Control_c, 1, 11, 84
7, 250860, Control_c, 1, 11, 83
7, 250890, Control_c, 1, 11, 81
7, 250919, Note_on_c, 1, 77, 0
7, 250920, Control_c, 1, 11, 80
7, 250920, Note_on_c, 1, 76, 80
7, 250950, Control_c, 1, 11, 79
7, 250980, Control_c, 1, 11, 78
7, 251010, Control_c, 1, 11, 77
7, 251040, Control_c, 1, 11, 76
7, 251070, Control_c, 1, 11, 75
7, 251100, Control_c, 1, 11, 74
7, 251130, Control_c, 1, 11, 73
7, 251160, Control_c, 1, 11, 71
7, 251190, Control_c, 1, 11, 70
7, 251220, Control_c, 1, 11, 69
7, 251250, Control_c, 1, 11, 67
7, 251279, Note_on_c, 1, 81, 0
7, 251279, Note_on_c, 1, 76, 0
7, 254160, Control_c, 1, 11, 57
7, 254520, Note_on_c, 1, 78, 92
7, 254520, Control_c, 1, 11, 57
7, 254556, Control_c, 1, 11, 58
7, 254592, Control_c, 1, 11, 59
7, 254628, Control_c, 1, 11, 60
7, 254664, Control_c, 1, 11, 61
7, 254700, Control_c, 1, 11, 62
7, 254736, Control_c, 1, 11, 63
7, 254772, Control_c, 1, 11, 64
7, 254808, Control_c, 1, 11, 65
7, 254844, Control_c, 1, 11, 66
7, 254880, Note_on_c, 1, 75, 92
7, 254880, Control_c, 1, 11, 67
7, 254916, Control_c, 1, 11, 68
7, 254952, Control_c, 1, 11, 69
7, 254988, Control_c, 1, 11, 70
7, 255024, Control_c, 1, 11, 71
7, 255060, Control_c, 1, 11, 72
7, 255096, Control_c, 1, 11, 73
7, 255132, Control_c, 1, 11, 74
7, 255168, Control_c, 1, 11, 75
7, 255204, Control_c, 1, 11, 76
7, 255239, Note_on_c, 1, 78, 0
7, 255239, Note_on_c, 1, 75, 0
7, 255240, Note_on_c, 1, 76, 92
7, 255240, Control_c, 1, 11, 77
7, 255240, Note_on_c, 1, 79, 92
7, 255276, Control_c, 1, 11, 78
7, 255312, Control_c, 1, 11, 79
7, 255348, Control_c, 1, 11, 80
7, 255384, Control_c, 1, 11, 81
7, 255420, Control_c, 1, 11, 82
7, 255456, Control_c, 1, 11, 83
7, 255492, Control_c, 1, 11, 84
7, 255528, Control_c, 1, 11, 85
7, 255564, Control_c, 1, 11, 86
7, 255599, Note_on_c, 1, 76, 0
7, 255599, Note_on_c, 1, 79, 0
7, 255600, Note_on_c, 1, 76, 92
7, 255600, Control_c, 1, 11, 87
7, 255600, Note_on_c, 1, 73, 92
7, 255636, Control_c, 1, 11, 88
7, 255672, Control_c, 1, 11, 89
7, 255708, Control_c, 1, 11, 90
7, 255744, Control_c, 1, 11, 91
7, 255780, Control_c, 1, 11, 92
7, 255816, Control_c, 1, 11, 93
7, 255852, Control_c, 1, 11, 94
7, 255888, Control_c, 1, 11, 95
7, 255924, Control_c, 1, 11, 96
7, 255959, Note_on_c, 1, 76, 0
7, 255959, Note_on_c, 1, 73, 0
7, 255960, Note_on_c, 1, 78, 92
7, 255960, Note_on_c, 1, 74, 92
7, 255960, Control_c, 1, 11, 97
7, 255996, Control_c, 1, 11, 98
7, 256032, Control_c, 1, 11, 99
7, 256068, Control_c, 1, 11, 100
7, 256104, Control_c, 1, 11, 101
7, 256140, Control_c, 1, 11, 102
7, 256176, Control_c, 1, 11, 103
7, 256212, Control_c, 1, 11, 104
7, 256248, Control_c, 1, 11, 105
7, 256284, Control_c, 1, 11, 106
7, 256319, Note_on_c, 1, 78, 0
7, 256320, Control_c, 1, 11, 107
7, 256320, Note_on_c, 1, 81, 92
7, 256356, Control_c, 1, 11, 108
7, 256392, Control_c, 1, 11, 109
7, 256428, Control_c, 1, 11, 110
7, 256464, Control_c, 1, 11, 111
7, 256500, Control_c, 1, 11, 112
7, 256536, Control_c, 1, 11, 113
7, 256572, Control_c, 1, 11, 114
7, 256608, Control_c, 1, 11, 115
7, 256644, Control_c, 1, 11, 116
7, 256679, Note_on_c, 1, 74, 0
7, 256680, Note_on_c, 1, 73, 92
7, 256680, Control_c, 1, 11, 117
7, 256716, Control_c, 1, 11, 118
7, 256752, Control_c, 1, 11, 119
7, 256788, Control_c, 1, 11, 120
7, 256824, Control_c, 1, 11, 121
7, 256860, Control_c, 1, 11, 122
7, 256896, Control_c, 1, 11, 123
7, 256904, Note_on_c, 1, 81, 0
7, 256904, Note_on_c, 1, 73, 0
7, 256920, Note_on_c, 1, 73, 92
7, 256932, Control_c, 1, 11, 124
7, 256968, Control_c, 1, 11, 125
7, 257004, Control_c, 1, 11, 127
7, 257024, Note_on_c, 1, 73, 0
7, 257040, Note_on_c, 1, 74, 92
7, 257279, Note_on_c, 1, 74, 0
7, 257280, Note_on_c, 1, 76, 92
7, 257339, Note_on_c, 1, 76, 0
7, 257340, Note_on_c, 1, 78, 92
7, 257384, Note_on_c, 1, 78, 0
7, 257400, Note_on_c, 1, 79, 92
7, 257489, Note_on_c, 1, 79, 0
7, 257640, Note_on_c, 1, 78, 92
7, 257729, Note_on_c, 1, 78, 0
7, 257760, Note_on_c, 1, 76, 92
7, 257849, Note_on_c, 1, 76, 0
7, 258000, Note_on_c, 1, 74, 92
7, 258089, Note_on_c, 1, 74, 0
7, 258120, Note_on_c, 1, 76, 92
7, 258209, Note_on_c, 1, 76, 0
7, 258360, Note_on_c, 1, 73, 92
7, 258449, Note_on_c, 1, 73, 0
7, 258480, Note_on_c, 1, 78, 92
7, 258480, Note_on_c, 1, 74, 92
7, 258719, Note_on_c, 1, 78, 0
7, 258719, Note_on_c, 1, 74, 0
7, 258720, Note_on_c, 1, 76, 92
7, 258720, Note_on_c, 1, 79, 92
7, 258779, Note_on_c, 1, 76, 0
7, 258779, Note_on_c, 1, 79, 0
7, 258780, Note_on_c, 1, 81, 92
7, 258780, Note_on_c, 1, 78, 92
7, 258824, Note_on_c, 1, 81, 0
7, 258824, Note_on_c, 1, 78, 0
7, 258840, Note_on_c, 1, 79, 92
7, 258840, Note_on_c, 1, 83, 92
7, 258929, Note_on_c, 1, 79, 0
7, 258929, Note_on_c, 1, 83, 0
7, 259080, Note_on_c, 1, 81, 92
7, 259080, Note_on_c, 1, 78, 92
7, 259169, Note_on_c, 1, 81, 0
7, 259169, Note_on_c, 1, 78, 0
7, 259200, Note_on_c, 1, 76, 92
7, 259200, Note_on_c, 1, 79, 92
7, 259289, Note_on_c, 1, 76, 0
7, 259289, Note_on_c, 1, 79, 0
7, 259440, Note_on_c, 1, 74, 92
7, 259440, Note_on_c, 1, 78, 92
7, 259529, Note_on_c, 1, 74, 0
7, 259529, Note_on_c, 1, 78, 0
7, 259560, Note_on_c, 1, 79, 92
7, 259560, Note_on_c, 1, 76, 92
7, 259649, Note_on_c, 1, 79, 0
7, 259649, Note_on_c, 1, 76, 0
7, 259800, Note_on_c, 1, 73, 92
7, 259800, Note_on_c, 1, 76, 92
7, 259889, Note_on_c, 1, 73, 0
7, 259889, Note_on_c, 1, 76, 0
7, 259920, Note_on_c, 1, 74, 92
7, 260009, Note_on_c, 1, 74, 0
7, 260040, Note_on_c, 1, 74, 92
7, 260040, Note_on_c, 1, 65, 92
7, 260159, Note_on_c, 1, 74, 0
7, 260159, Note_on_c, 1, 65, 0
7, 260160, Note_on_c, 1, 67, 92
7, 260160, Note_on_c, 1, 76, 92
7, 260219, Note_on_c, 1, 67, 0
7, 260219, Note_on_c, 1, 76, 0
7, 260220, Note_on_c, 1, 77, 92
7, 260220, Note_on_c, 1, 69, 92
7, 260264, Note_on_c, 1, 77, 0
7, 260264, Note_on_c, 1, 69, 0
7, 260280, Note_on_c, 1, 70, 92
7, 260280, Note_on_c, 1, 79, 92
7, 260369, Note_on_c, 1, 70, 0
7, 260369, Note_on_c, 1, 79, 0
7, 260400, Note_on_c, 1, 70, 92
7, 260400, Note_on_c, 1, 79, 92
7, 260489, Note_on_c, 1, 70, 0
7, 260489, Note_on_c, 1, 79, 0
7, 260520, Note_on_c, 1, 77, 92
7, 260520, Note_on_c, 1, 69, 92
7, 260609, Note_on_c, 1, 77, 0
7, 260609, Note_on_c, 1, 69, 0
7, 260640, Note_on_c, 1, 76, 92
7, 260640, Note_on_c, 1, 67, 92
7, 260729, Note_on_c, 1, 76, 0
7, 260729, Note_on_c, 1, 67, 0
7, 260760, Note_on_c, 1, 67, 92
7, 260760, Note_on_c, 1, 76, 92
7, 260849, Note_on_c, 1, 67, 0
7, 260849, Note_on_c, 1, 76, 0
7, 260880, Note_on_c, 1, 65, 92
7, 260880, Note_on_c, 1, 74, 92
7, 260969, Note_on_c, 1, 65, 0
7, 260969, Note_on_c, 1, 74, 0
7, 261000, Note_on_c, 1, 76, 92
7, 261000, Note_on_c, 1, 67, 92
7, 261089, Note_on_c, 1, 76, 0
7, 261089, Note_on_c, 1, 67, 0
7, 261120, Note_on_c, 1, 67, 92
7, 261120, Note_on_c, 1, 76, 92
7, 261209, Note_on_c, 1, 67, 0
7, 261209, Note_on_c, 1, 76, 0
7, 261240, Note_on_c, 1, 64, 92
7, 261240, Note_on_c, 1, 73, 92
7, 261329, Note_on_c, 1, 64, 0
7, 261329, Note_on_c, 1, 73, 0
7, 261360, Note_on_c, 1, 74, 92
7, 261360, Note_on_c, 1, 77, 92
7, 261449, Note_on_c, 1, 74, 0
7, 261449, Note_on_c, 1, 77, 0
7, 261480, Note_on_c, 1, 74, 92
7, 261480, Note_on_c, 1, 77, 92
7, 261599, Note_on_c, 1, 74, 0
7, 261599, Note_on_c, 1, 77, 0
7, 261600, Note_on_c, 1, 79, 92
7, 261600, Note_on_c, 1, 76, 92
7, 261659, Note_on_c, 1, 79, 0
7, 261659, Note_on_c, 1, 76, 0
7, 261660, Note_on_c, 1, 81, 92
7, 261660, Note_on_c, 1, 77, 92
7, 261704, Note_on_c, 1, 81, 0
7, 261704, Note_on_c, 1, 77, 0
7, 261720, Note_on_c, 1, 82, 92
7, 261720, Note_on_c, 1, 79, 92
7, 261809, Note_on_c, 1, 82, 0
7, 261809, Note_on_c, 1, 79, 0
7, 261840, Note_on_c, 1, 79, 92
7, 261840, Note_on_c, 1, 82, 92
7, 261929, Note_on_c, 1, 79, 0
7, 261929, Note_on_c, 1, 82, 0
7, 261960, Note_on_c, 1, 77, 92
7, 261960, Note_on_c, 1, 81, 92
7, 262049, Note_on_c, 1, 77, 0
7, 262049, Note_on_c, 1, 81, 0
7, 262080, Note_on_c, 1, 79, 92
7, 262080, Note_on_c, 1, 76, 92
7, 262169, Note_on_c, 1, 79, 0
7, 262169, Note_on_c, 1, 76, 0
7, 262200, Note_on_c, 1, 76, 92
7, 262200, Note_on_c, 1, 79, 92
7, 262289, Note_on_c, 1, 76, 0
7, 262289, Note_on_c, 1, 79, 0
7, 262320, Note_on_c, 1, 77, 92
7, 262320, Note_on_c, 1, 74, 92
7, 262409, Note_on_c, 1, 77, 0
7, 262409, Note_on_c, 1, 74, 0
7, 262440, Note_on_c, 1, 76, 92
7, 262440, Note_on_c, 1, 79, 92
7, 262529, Note_on_c, 1, 76, 0
7, 262529, Note_on_c, 1, 79, 0
7, 262560, Note_on_c, 1, 79, 92
7, 262560, Note_on_c, 1, 76, 92
7, 262649, Note_on_c, 1, 79, 0
7, 262649, Note_on_c, 1, 76, 0
7, 262680, Note_on_c, 1, 73, 92
7, 262680, Note_on_c, 1, 76, 92
7, 262769, Note_on_c, 1, 73, 0
7, 262769, Note_on_c, 1, 76, 0
7, 262800, Note_on_c, 1, 77, 92
7, 262964, Note_on_c, 1, 77, 0
7, 262980, Note_on_c, 1, 65, 92
7, 263024, Note_on_c, 1, 65, 0
7, 263040, Note_on_c, 1, 65, 92
7, 263144, Note_on_c, 1, 65, 0
7, 263160, Note_on_c, 1, 77, 92
7, 263264, Note_on_c, 1, 77, 0
7, 263280, Note_on_c, 1, 79, 92
7, 263384, Note_on_c, 1, 79, 0
7, 263400, Note_on_c, 1, 81, 92
7, 263504, Note_on_c, 1, 81, 0
7, 263520, Note_on_c, 1, 82, 92
7, 263639, Note_on_c, 1, 82, 0
7, 263880, Note_on_c, 1, 70, 92
7, 263880, Note_on_c, 1, 82, 92
7, 263984, Note_on_c, 1, 70, 0
7, 263984, Note_on_c, 1, 82, 0
7, 264000, Note_on_c, 1, 84, 92
7, 264000, Note_on_c, 1, 72, 92
7, 264104, Note_on_c, 1, 84, 0
7, 264104, Note_on_c, 1, 72, 0
7, 264120, Note_on_c, 1, 86, 92
7, 264120, Note_on_c, 1, 74, 92
7, 264224, Note_on_c, 1, 86, 0
7, 264224, Note_on_c, 1, 74, 0
7, 264240, Note_on_c, 1, 76, 92
7, 264404, Note_on_c, 1, 76, 0
7, 264420, Note_on_c, 1, 64, 92
7, 264464, Note_on_c, 1, 64, 0
7, 264480, Note_on_c, 1, 64, 92
7, 264584, Note_on_c, 1, 64, 0
7, 264600, Note_on_c, 1, 76, 92
7, 264600, Note_on_c, 1, 64, 92
7, 264704, Note_on_c, 1, 76, 0
7, 264704, Note_on_c, 1, 64, 0
7, 264720, Note_on_c, 1, 65, 92
7, 264720, Note_on_c, 1, 77, 92
7, 264824, Note_on_c, 1, 65, 0
7, 264824, Note_on_c, 1, 77, 0
7, 264840, Note_on_c, 1, 67, 92
7, 264840, Note_on_c, 1, 79, 92
7, 264944, Note_on_c, 1, 67, 0
7, 264944, Note_on_c, 1, 79, 0
7, 264960, Note_on_c, 1, 81, 92
7, 264960, Note_on_c, 1, 69, 92
7, 265079, Note_on_c, 1, 81, 0
7, 265079, Note_on_c, 1, 69, 0
7, 265320, Note_on_c, 1, 69, 92
7, 265424, Note_on_c, 1, 69, 0
7, 265440, Note_on_c, 1, 74, 92
7, 265544, Note_on_c, 1, 74, 0
7, 265560, Note_on_c, 1, 76, 92
7, 265664, Note_on_c, 1, 76, 0
7, 265680, Note_on_c, 1, 74, 44
7, 265680, Note_on_c, 1, 78, 44
7, 265799, Note_on_c, 1, 74, 0
7, 265799, Note_on_c, 1, 78, 0
7, 266400, Note_on_c, 1, 79, 44
7, 266400, Note_on_c, 1, 74, 44
7, 266519, Note_on_c, 1, 79, 0
7, 266519, Note_on_c, 1, 74, 0
7, 267480, Control_c, 1, 11, 67
7, 267840, Note_on_c, 1, 79, 80
7, 267840, Control_c, 1, 11, 67
7, 267840, Note_on_c, 1, 75, 80
7, 267870, Control_c, 1, 11, 68
7, 267900, Control_c, 1, 11, 70
7, 267930, Control_c, 1, 11, 71
7, 267960, Control_c, 1, 11, 72
7, 267990, Control_c, 1, 11, 73
7, 268020, Control_c, 1, 11, 75
7, 268050, Control_c, 1, 11, 76
7, 268080, Control_c, 1, 11, 77
7, 268110, Control_c, 1, 11, 78
7, 268140, Control_c, 1, 11, 80
7, 268170, Control_c, 1, 11, 81
7, 268184, Note_on_c, 1, 79, 0
7, 268184, Note_on_c, 1, 75, 0
7, 268200, Note_on_c, 1, 75, 80
7, 268200, Note_on_c, 1, 79, 80
7, 268200, Control_c, 1, 11, 82
7, 268230, Control_c, 1, 11, 83
7, 268260, Control_c, 1, 11, 85
7, 268290, Control_c, 1, 11, 86
7, 268320, Control_c, 1, 11, 87
7, 268350, Control_c, 1, 11, 88
7, 268380, Control_c, 1, 11, 90
7, 268410, Control_c, 1, 11, 91
7, 268440, Control_c, 1, 11, 92
7, 268470, Control_c, 1, 11, 93
7, 268500, Control_c, 1, 11, 95
7, 268530, Control_c, 1, 11, 96
7, 268544, Note_on_c, 1, 75, 0
7, 268544, Note_on_c, 1, 79, 0
7, 268560, Note_on_c, 1, 76, 80
7, 268560, Note_on_c, 1, 79, 80
7, 268560, Control_c, 1, 11, 97
7, 268590, Control_c, 1, 11, 98
7, 268620, Control_c, 1, 11, 100
7, 268650, Control_c, 1, 11, 101
7, 268680, Control_c, 1, 11, 102
7, 268710, Control_c, 1, 11, 103
7, 268740, Control_c, 1, 11, 105
7, 268770, Control_c, 1, 11, 106
7, 268800, Control_c, 1, 11, 107
7, 268830, Control_c, 1, 11, 108
7, 268860, Control_c, 1, 11, 110
7, 268890, Control_c, 1, 11, 111
7, 268920, Control_c, 1, 11, 112
7, 268950, Control_c, 1, 11, 113
7, 268980, Control_c, 1, 11, 115
7, 269010, Control_c, 1, 11, 116
7, 269039, Note_on_c, 1, 76, 0
7, 269039, Note_on_c, 1, 79, 0
7, 269040, Control_c, 1, 11, 117
7, 269040, Note_on_c, 1, 77, 80
7, 269040, Note_on_c, 1, 74, 80
7, 269070, Control_c, 1, 11, 118
7, 269100, Control_c, 1, 11, 120
7, 269130, Control_c, 1, 11, 121
7, 269159, Note_on_c, 1, 77, 0
7, 269159, Note_on_c, 1, 74, 0
7, 269160, Note_on_c, 1, 76, 80
7, 269160, Control_c, 1, 11, 122
7, 269160, Note_on_c, 1, 79, 80
7, 269190, Control_c, 1, 11, 123
7, 269220, Control_c, 1, 11, 125
7, 269250, Control_c, 1, 11, 127
7, 269264, Note_on_c, 1, 76, 0
7, 269264, Note_on_c, 1, 79, 0
7, 269280, Note_on_c, 1, 81, 80
7, 269280, Note_on_c, 1, 69, 80
7, 269369, Note_on_c, 1, 81, 0
7, 269369, Note_on_c, 1, 69, 0
7, 269400, Note_on_c, 1, 77, 80
7, 269400, Note_on_c, 1, 65, 80
7, 269489, Note_on_c, 1, 77, 0
7, 269489, Note_on_c, 1, 65, 0
7, 269520, Note_on_c, 1, 82, 80
7, 269520, Note_on_c, 1, 70, 80
7, 269609, Note_on_c, 1, 82, 0
7, 269609, Note_on_c, 1, 70, 0
7, 269640, Note_on_c, 1, 79, 80
7, 269640, Note_on_c, 1, 67, 80
7, 269729, Note_on_c, 1, 79, 0
7, 269729, Note_on_c, 1, 67, 0
7, 269760, Note_on_c, 1, 64, 80
7, 269760, Note_on_c, 1, 76, 80
7, 269849, Note_on_c, 1, 64, 0
7, 269849, Note_on_c, 1, 76, 0
7, 269880, Note_on_c, 1, 81, 80
7, 269880, Note_on_c, 1, 69, 80
7, 269969, Note_on_c, 1, 81, 0
7, 269969, Note_on_c, 1, 69, 0
7, 270000, Note_on_c, 1, 77, 80
7, 270000, Note_on_c, 1, 65, 80
7, 270119, Note_on_c, 1, 77, 0
7, 270119, Note_on_c, 1, 65, 0
7, 270720, Note_on_c, 1, 77, 80
7, 270720, Note_on_c, 1, 81, 80
7, 270809, Note_on_c, 1, 77, 0
7, 270809, Note_on_c, 1, 81, 0
7, 270840, Note_on_c, 1, 77, 80
7, 270840, Note_on_c, 1, 65, 80
7, 270929, Note_on_c, 1, 77, 0
7, 270929, Note_on_c, 1, 65, 0
7, 270960, Note_on_c, 1, 70, 80
7, 270960, Note_on_c, 1, 82, 80
7, 271049, Note_on_c, 1, 70, 0
7, 271049, Note_on_c, 1, 82, 0
7, 271080, Note_on_c, 1, 79, 80
7, 271080, Note_on_c, 1, 67, 80
7, 271169, Note_on_c, 1, 79, 0
7, 271169, Note_on_c, 1, 67, 0
7, 271200, Note_on_c, 1, 64, 80
7, 271200, Note_on_c, 1, 76, 80
7, 271289, Note_on_c, 1, 64, 0
7, 271289, Note_on_c, 1, 76, 0
7, 271320, Note_on_c, 1, 69, 80
7, 271320, Note_on_c, 1, 81, 80
7, 271409, Note_on_c, 1, 69, 0
7, 271409, Note_on_c, 1, 81, 0
7, 271440, Note_on_c, 1, 81, 80
7, 271440, Note_on_c, 1, 69, 80
7, 271529, Note_on_c, 1, 81, 0
7, 271529, Note_on_c, 1, 69, 0
7, 271560, Note_on_c, 1, 69, 80
7, 271560, Note_on_c, 1, 81, 80
7, 271649, Note_on_c, 1, 69, 0
7, 271649, Note_on_c, 1, 81, 0
7, 271680, Note_on_c, 1, 81, 80
7, 271680, Note_on_c, 1, 69, 80
7, 271769, Note_on_c, 1, 81, 0
7, 271769, Note_on_c, 1, 69, 0
7, 271800, Note_on_c, 1, 81, 80
7, 271800, Note_on_c, 1, 69, 80
7, 271889, Note_on_c, 1, 81, 0
7, 271889, Note_on_c, 1, 69, 0
7, 271920, Note_on_c, 1, 69, 80
7, 271920, Note_on_c, 1, 81, 80
7, 272009, Note_on_c, 1, 69, 0
7, 272009, Note_on_c, 1, 81, 0
7, 272040, Note_on_c, 1, 69, 80
7, 272040, Note_on_c, 1, 81, 80
7, 272129, Note_on_c, 1, 69, 0
7, 272129, Note_on_c, 1, 81, 0
7, 272160, Note_on_c, 1, 74, 80
7, 272160, Note_on_c, 1, 77, 80
7, 272249, Note_on_c, 1, 74, 0
7, 272249, Note_on_c, 1, 77, 0
7, 272280, Note_on_c, 1, 77, 80
7, 272280, Note_on_c, 1, 81, 80
7, 272369, Note_on_c, 1, 77, 0
7, 272369, Note_on_c, 1, 81, 0
7, 272400, Note_on_c, 1, 77, 80
7, 272400, Note_on_c, 1, 81, 80
7, 272489, Note_on_c, 1, 77, 0
7, 272489, Note_on_c, 1, 81, 0
7, 272520, Note_on_c, 1, 81, 80
7, 272520, Note_on_c, 1, 79, 80
7, 272609, Note_on_c, 1, 81, 0
7, 272609, Note_on_c, 1, 79, 0
7, 272640, Note_on_c, 1, 79, 80
7, 272640, Note_on_c, 1, 81, 80
7, 272729, Note_on_c, 1, 79, 0
7, 272729, Note_on_c, 1, 81, 0
7, 272760, Note_on_c, 1, 81, 80
7, 272760, Note_on_c, 1, 79, 80
7, 272849, Note_on_c, 1, 81, 0
7, 272849, Note_on_c, 1, 79, 0
7, 272880, Note_on_c, 1, 81, 80
7, 272880, Note_on_c, 1, 77, 80
7, 272969, Note_on_c, 1, 81, 0
7, 272969, Note_on_c, 1, 77, 0
7, 273000, Note_on_c, 1, 77, 80
7, 273000, Note_on_c, 1, 81, 80
7, 273089, Note_on_c, 1, 77, 0
7, 273089, Note_on_c, 1, 81, 0
7, 273120, Note_on_c, 1, 77, 80
7, 273120, Note_on_c, 1, 81, 80
7, 273209, Note_on_c, 1, 77, 0
7, 273209, Note_on_c, 1, 81, 0
7, 273240, Note_on_c, 1, 79, 80
7, 273240, Note_on_c, 1, 81, 80
7, 273329, Note_on_c, 1, 79, 0
7, 273329, Note_on_c, 1, 81, 0
7, 273360, Note_on_c, 1, 79, 80
7, 273360, Note_on_c, 1, 81, 80
7, 273449, Note_on_c, 1, 79, 0
7, 273449, Note_on_c, 1, 81, 0
7, 273480, Note_on_c, 1, 79, 80
7, 273480, Note_on_c, 1, 81, 80
7, 273569, Note_on_c, 1, 79, 0
7, 273569, Note_on_c, 1, 81, 0
7, 274320, Note_on_c, 1, 67, 32
7, 274439, Note_on_c, 1, 67, 0
7, 274440, Note_on_c, 1, 73, 32
7, 274559, Note_on_c, 1, 73, 0
7, 274560, Note_on_c, 1, 76, 32
7, 274679, Note_on_c, 1, 76, 0
7, 274680, Note_on_c, 1, 79, 32
7, 274799, Note_on_c, 1, 79, 0
7, 274800, Note_on_c, 1, 76, 32
7, 274919, Note_on_c, 1, 76, 0
7, 274920, Note_on_c, 1, 73, 32
7, 275024, Note_on_c, 1, 73, 0
7, 275040, Note_on_c, 1, 74, 32
7, 275159, Note_on_c, 1, 74, 0
7, 275400, Note_on_c, 1, 77, 32
7, 275400, Note_on_c, 1, 74, 32
7, 275564, Note_on_c, 1, 77, 0
7, 275564, Note_on_c, 1, 74, 0
7, 275580, Note_on_c, 1, 69, 32
7, 275580, Note_on_c, 1, 65, 32
7, 275624, Note_on_c, 1, 69, 0
7, 275624, Note_on_c, 1, 65, 0
7, 275640, Note_on_c, 1, 65, 32
7, 275640, Note_on_c, 1, 69, 32
7, 275744, Note_on_c, 1, 65, 0
7, 275744, Note_on_c, 1, 69, 0
7, 275760, Note_on_c, 1, 69, 32
7, 275760, Note_on_c, 1, 65, 32
7, 275879, Note_on_c, 1, 69, 0
7, 275879, Note_on_c, 1, 65, 0
7, 276120, Note_on_c, 1, 77, 32
7, 276120, Note_on_c, 1, 74, 32
7, 276284, Note_on_c, 1, 77, 0
7, 276284, Note_on_c, 1, 74, 0
7, 276300, Note_on_c, 1, 69, 32
7, 276300, Note_on_c, 1, 74, 32
7, 276344, Note_on_c, 1, 69, 0
7, 276344, Note_on_c, 1, 74, 0
7, 276360, Note_on_c, 1, 74, 32
7, 276360, Note_on_c, 1, 69, 32
7, 276464, Note_on_c, 1, 74, 0
7, 276464, Note_on_c, 1, 69, 0
7, 276480, Note_on_c, 1, 74, 32
7, 276480, Note_on_c, 1, 69, 32
7, 276599, Note_on_c, 1, 74, 0
7, 276599, Note_on_c, 1, 69, 0
7, 278280, Note_on_c, 1, 74, 40
7, 278444, Note_on_c, 1, 74, 0
7, 278460, Note_on_c, 1, 74, 44
7, 278504, Note_on_c, 1, 74, 0
7, 278520, Note_on_c, 1, 74, 46
7, 278624, Note_on_c, 1, 74, 0
7, 278640, Note_on_c, 1, 74, 49
7, 278759, Note_on_c, 1, 74, 0
7, 279000, Note_on_c, 1, 74, 57
7, 279164, Note_on_c, 1, 74, 0
7, 279180, Note_on_c, 1, 74, 62
7, 279224, Note_on_c, 1, 74, 0
7, 279240, Note_on_c, 1, 74, 63
7, 279344, Note_on_c, 1, 74, 0
7, 279360, Note_on_c, 1, 74, 66
7, 279479, Note_on_c, 1, 74, 0
7, 279720, Note_on_c, 1, 74, 74
7, 279884, Note_on_c, 1, 74, 0
7, 279900, Note_on_c, 1, 74, 79
7, 279944, Note_on_c, 1, 74, 0
7, 279960, Note_on_c, 1, 74, 80
7, 280064, Note_on_c, 1, 74, 0
7, 280080, Note_on_c, 1, 74, 83
7, 280199, Note_on_c, 1, 74, 0
7, 280440, Note_on_c, 1, 73, 92
7, 280440, Note_on_c, 1, 76, 92
7, 280604, Note_on_c, 1, 73, 0
7, 280604, Note_on_c, 1, 76, 0
7, 280620, Note_on_c, 1, 76, 92
7, 280620, Note_on_c, 1, 73, 92
7, 280664, Note_on_c, 1, 76, 0
7, 280664, Note_on_c, 1, 73, 0
7, 280680, Note_on_c, 1, 76, 92
7, 280680, Note_on_c, 1, 73, 92
7, 281129, Note_on_c, 1, 76, 0
7, 281129, Note_on_c, 1, 73, 0
7, 284040, Note_on_c, 1, 81, 32
7, 284204, Note_on_c, 1, 81, 0
7, 284220, Note_on_c, 1, 69, 35
7, 284264, Note_on_c, 1, 69, 0
7, 284280, Note_on_c, 1, 69, 37
7, 284384, Note_on_c, 1, 69, 0
7, 284400, Note_on_c, 1, 74, 39
7, 284489, Note_on_c, 1, 74, 0
7, 284520, Note_on_c, 1, 76, 42
7, 284609, Note_on_c, 1, 76, 0
7, 284640, Note_on_c, 1, 77, 44
7, 284729, Note_on_c, 1, 77, 0
7, 284760, Note_on_c, 1, 81, 47
7, 284924, Note_on_c, 1, 81, 0
7, 284940, Note_on_c, 1, 69, 50
7, 284984, Note_on_c, 1, 69, 0
7, 285000, Note_on_c, 1, 69, 52
7, 285104, Note_on_c, 1, 69, 0
7, 285120, Note_on_c, 1, 74, 54
7, 285209, Note_on_c, 1, 74, 0
7, 285240, Note_on_c, 1, 76, 57
7, 285329, Note_on_c, 1, 76, 0
7, 285360, Note_on_c, 1, 77, 59
7, 285449, Note_on_c, 1, 77, 0
7, 285480, Note_on_c, 1, 81, 62
7, 285644, Note_on_c, 1, 81, 0
7, 285660, Note_on_c, 1, 69, 65
7, 285704, Note_on_c, 1, 69, 0
7, 285720, Note_on_c, 1, 69, 67
7, 285824, Note_on_c, 1, 69, 0
7, 285840, Note_on_c, 1, 74, 69
7, 285929, Note_on_c, 1, 74, 0
7, 285960, Note_on_c, 1, 76, 72
7, 286049, Note_on_c, 1, 76, 0
7, 286080, Note_on_c, 1, 77, 74
7, 286169, Note_on_c, 1, 77, 0
7, 286200, Note_on_c, 1, 81, 77
7, 286364, Note_on_c, 1, 81, 0
7, 286380, Note_on_c, 1, 69, 80
7, 286424, Note_on_c, 1, 69, 0
7, 286440, Note_on_c, 1, 69, 82
7, 286544, Note_on_c, 1, 69, 0
7, 286560, Note_on_c, 1, 74, 84
7, 286649, Note_on_c, 1, 74, 0
7, 286680, Note_on_c, 1, 76, 87
7, 286769, Note_on_c, 1, 76, 0
7, 286800, Note_on_c, 1, 77, 89
7, 286889, Note_on_c, 1, 77, 0
7, 286920, Note_on_c, 1, 81, 92
7, 287009, Note_on_c, 1, 81, 0
7, 287040, Note_on_c, 1, 69, 92
7, 287129, Note_on_c, 1, 69, 0
7, 287160, Note_on_c, 1, 74, 80
7, 287249, Note_on_c, 1, 74, 0
7, 287280, Note_on_c, 1, 62, 80
7, 287369, Note_on_c, 1, 62, 0
7, 287400, Note_on_c, 1, 69, 80
7, 287489, Note_on_c, 1, 69, 0
7, 287520, Note_on_c, 1, 69, 80
7, 287609, Note_on_c, 1, 69, 0
7, 287640, Note_on_c, 1, 81, 80
7, 287729, Note_on_c, 1, 81, 0
7, 287760, Note_on_c, 1, 69, 80
7, 287849, Note_on_c, 1, 69, 0
7, 287880, Control_c, 1, 11, 127
7, 287880, Note_on_c, 1, 74, 80
7, 287920, Control_c, 1, 11, 122
7, 287960, Control_c, 1, 11, 117
7, 288000, Control_c, 1, 11, 112
7, 288040, Control_c, 1, 11, 107
7, 288080, Control_c, 1, 11, 102
7, 288120, Control_c, 1, 11, 97
7, 288160, Control_c, 1, 11, 92
7, 288200, Control_c, 1, 11, 87
7, 288240, Control_c, 1, 11, 82
7, 288280, Control_c, 1, 11, 77
7, 288320, Control_c, 1, 11, 72
7, 288360, Control_c, 1, 11, 67
7, 288600, Note_on_c, 1, 76, 80
7, 288819, Note_on_c, 1, 76, 0
7, 288839, Note_on_c, 1, 74, 0
7, 288840, Note_on_c, 1, 78, 80
7, 288840, Note_on_c, 1, 74, 80
7, 289199, Note_on_c, 1, 78, 0
7, 289199, Note_on_c, 1, 74, 0
7, 289200, Note_on_c, 1, 79, 80
7, 289200, Note_on_c, 1, 76, 80
7, 289259, Note_on_c, 1, 79, 0
7, 289259, Note_on_c, 1, 76, 0
7, 289260, Note_on_c, 1, 81, 80
7, 289260, Note_on_c, 1, 78, 80
7, 289299, Note_on_c, 1, 81, 0
7, 289299, Note_on_c, 1, 78, 0
7, 289320, Note_on_c, 1, 79, 80
7, 289320, Note_on_c, 1, 74, 80
7, 289409, Note_on_c, 1, 79, 0
7, 289409, Note_on_c, 1, 74, 0
7, 289440, Note_on_c, 1, 76, 80
7, 289440, Note_on_c, 1, 79, 80
7, 289529, Note_on_c, 1, 76, 0
7, 289529, Note_on_c, 1, 79, 0
7, 289560, Note_on_c, 1, 78, 80
7, 289560, Note_on_c, 1, 74, 80
7, 289649, Note_on_c, 1, 78, 0
7, 289649, Note_on_c, 1, 74, 0
7, 289680, Note_on_c, 1, 78, 80
7, 289680, Note_on_c, 1, 62, 80
7, 289769, Note_on_c, 1, 78, 0
7, 289769, Note_on_c, 1, 62, 0
7, 289800, Note_on_c, 1, 73, 80
7, 289800, Note_on_c, 1, 76, 80
7, 289889, Note_on_c, 1, 73, 0
7, 289920, Note_on_c, 1, 67, 80
7, 290009, Note_on_c, 1, 67, 0
7, 290019, Note_on_c, 1, 76, 0
7, 290040, Note_on_c, 1, 74, 80
7, 290040, Note_on_c, 1, 66, 80
7, 290129, Note_on_c, 1, 66, 0
7, 290520, Note_on_c, 1, 76, 80
7, 290739, Note_on_c, 1, 76, 0
7, 290760, Note_on_c, 1, 78, 80
7, 291119, Note_on_c, 1, 74, 0
7, 291119, Note_on_c, 1, 78, 0
7, 291120, Note_on_c, 1, 76, 80
7, 291120, Note_on_c, 1, 79, 80
7, 291179, Note_on_c, 1, 76, 0
7, 291179, Note_on_c, 1, 79, 0
7, 291180, Note_on_c, 1, 81, 80
7, 291180, Note_on_c, 1, 78, 80
7, 291219, Note_on_c, 1, 81, 0
7, 291219, Note_on_c, 1, 78, 0
7, 291240, Note_on_c, 1, 74, 80
7, 291240, Note_on_c, 1, 79, 80
7, 291329, Note_on_c, 1, 74, 0
7, 291329, Note_on_c, 1, 79, 0
7, 291360, Note_on_c, 1, 79, 80
7, 291360, Note_on_c, 1, 76, 80
7, 291449, Note_on_c, 1, 79, 0
7, 291449, Note_on_c, 1, 76, 0
7, 291480, Note_on_c, 1, 62, 80
7, 291480, Note_on_c, 1, 78, 80
7, 291569, Note_on_c, 1, 62, 0
7, 291569, Note_on_c, 1, 78, 0
7, 291600, Note_on_c, 1, 78, 80
7, 291600, Note_on_c, 1, 74, 80
7, 291689, Note_on_c, 1, 78, 0
7, 291689, Note_on_c, 1, 74, 0
7, 291720, Note_on_c, 1, 76, 80
7, 291720, Note_on_c, 1, 73, 80
7, 291809, Note_on_c, 1, 76, 0
7, 291809, Note_on_c, 1, 73, 0
7, 291960, Note_on_c, 1, 74, 80
7, 292440, Note_on_c, 1, 76, 80
7, 292659, Note_on_c, 1, 76, 0
7, 292680, Note_on_c, 1, 78, 80
7, 293039, Note_on_c, 1, 74, 0
7, 293039, Note_on_c, 1, 78, 0
7, 293040, Note_on_c, 1, 76, 80
7, 293040, Note_on_c, 1, 79, 80
7, 293099, Note_on_c, 1, 76, 0
7, 293099, Note_on_c, 1, 79, 0
7, 293100, Note_on_c, 1, 78, 80
7, 293100, Note_on_c, 1, 81, 80
7, 293139, Note_on_c, 1, 78, 0
7, 293139, Note_on_c, 1, 81, 0
7, 293160, Note_on_c, 1, 74, 80
7, 293160, Note_on_c, 1, 79, 80
7, 293249, Note_on_c, 1, 74, 0
7, 293249, Note_on_c, 1, 79, 0
7, 293280, Note_on_c, 1, 79, 80
7, 293280, Note_on_c, 1, 76, 80
7, 293369, Note_on_c, 1, 79, 0
7, 293369, Note_on_c, 1, 76, 0
7, 293400, Note_on_c, 1, 74, 80
7, 293400, Note_on_c, 1, 78, 80
7, 293489, Note_on_c, 1, 74, 0
7, 293489, Note_on_c, 1, 78, 0
7, 293520, Note_on_c, 1, 62, 80
7, 293520, Note_on_c, 1, 78, 80
7, 293609, Note_on_c, 1, 62, 0
7, 293609, Note_on_c, 1, 78, 0
7, 293640, Note_on_c, 1, 76, 80
7, 293640, Note_on_c, 1, 73, 80
7, 293729, Note_on_c, 1, 73, 0
7, 293760, Note_on_c, 1, 67, 80
7, 293849, Note_on_c, 1, 67, 0
7, 293859, Note_on_c, 1, 76, 0
7, 293880, Note_on_c, 1, 74, 80
7, 293880, Note_on_c, 1, 66, 80
7, 293969, Note_on_c, 1, 66, 0
7, 294360, Note_on_c, 1, 76, 80
7, 294579, Note_on_c, 1, 76, 0
7, 294600, Note_on_c, 1, 78, 80
7, 294959, Note_on_c, 1, 74, 0
7, 294959, Note_on_c, 1, 78, 0
7, 294960, Note_on_c, 1, 76, 80
7, 294960, Note_on_c, 1, 79, 80
7, 295019, Note_on_c, 1, 76, 0
7, 295019, Note_on_c, 1, 79, 0
7, 295020, Note_on_c, 1, 78, 80
7, 295020, Note_on_c, 1, 81, 80
7, 295059, Note_on_c, 1, 78, 0
7, 295059, Note_on_c, 1, 81, 0
7, 295080, Note_on_c, 1, 79, 80
7, 295080, Note_on_c, 1, 74, 80
7, 295169, Note_on_c, 1, 79, 0
7, 295169, Note_on_c, 1, 74, 0
7, 295200, Note_on_c, 1, 76, 80
7, 295200, Note_on_c, 1, 79, 80
7, 295289, Note_on_c, 1, 76, 0
7, 295289, Note_on_c, 1, 79, 0
7, 295320, Note_on_c, 1, 78, 80
7, 295320, Note_on_c, 1, 62, 80
7, 295409, Note_on_c, 1, 78, 0
7, 295409, Note_on_c, 1, 62, 0
7, 295440, Note_on_c, 1, 78, 80
7, 295440, Note_on_c, 1, 74, 80
7, 295529, Note_on_c, 1, 78, 0
7, 295529, Note_on_c, 1, 74, 0
7, 295560, Note_on_c, 1, 73, 80
7, 295560, Note_on_c, 1, 76, 80
7, 295649, Note_on_c, 1, 73, 0
7, 295649, Note_on_c, 1, 76, 0
7, 295740, Control_c, 1, 11, 127
7, 300360, Control_c, 1, 11, 87
7, 300420, Control_c, 1, 11, 88
7, 300480, Control_c, 1, 11, 89
7, 300480, Note_on_c, 1, 81, 68
7, 300540, Control_c, 1, 11, 90
7, 300599, Note_on_c, 1, 81, 0
7, 300600, Control_c, 1, 11, 91
7, 300600, Note_on_c, 1, 80, 68
7, 300660, Control_c, 1, 11, 93
7, 300719, Note_on_c, 1, 80, 0
7, 300720, Control_c, 1, 11, 94
7, 300720, Note_on_c, 1, 81, 68
7, 300780, Control_c, 1, 11, 95
7, 300839, Note_on_c, 1, 81, 0
7, 300840, Control_c, 1, 11, 96
7, 300840, Note_on_c, 1, 83, 68
7, 300900, Control_c, 1, 11, 97
7, 300959, Note_on_c, 1, 83, 0
7, 300960, Control_c, 1, 11, 98
7, 300960, Note_on_c, 1, 76, 68
7, 301020, Control_c, 1, 11, 99
7, 301079, Note_on_c, 1, 76, 0
7, 301080, Note_on_c, 1, 78, 68
7, 301080, Control_c, 1, 11, 100
7, 301140, Control_c, 1, 11, 101
7, 301199, Note_on_c, 1, 78, 0
7, 301200, Note_on_c, 1, 80, 68
7, 301200, Control_c, 1, 11, 103
7, 301260, Control_c, 1, 11, 104
7, 301299, Note_on_c, 1, 80, 0
7, 301320, Control_c, 1, 11, 105
7, 301320, Note_on_c, 1, 81, 68
7, 301380, Control_c, 1, 11, 106
7, 301440, Control_c, 1, 11, 107
7, 301500, Control_c, 1, 11, 108
7, 301560, Control_c, 1, 11, 109
7, 301620, Control_c, 1, 11, 110
7, 301680, Control_c, 1, 11, 111
7, 301740, Control_c, 1, 11, 113
7, 301800, Control_c, 1, 11, 114
7, 301860, Control_c, 1, 11, 115
7, 301920, Control_c, 1, 11, 116
7, 301980, Control_c, 1, 11, 117
7, 302040, Control_c, 1, 11, 118
7, 302100, Control_c, 1, 11, 119
7, 302160, Control_c, 1, 11, 120
7, 302220, Control_c, 1, 11, 121
7, 302280, Control_c, 1, 11, 123
7, 302340, Control_c, 1, 11, 124
7, 302400, Control_c, 1, 11, 125
7, 302460, Control_c, 1, 11, 127
7, 302519, Note_on_c, 1, 81, 0
7, 302520, Note_on_c, 1, 83, 68
7, 302639, Note_on_c, 1, 83, 0
7, 302640, Note_on_c, 1, 79, 56
7, 302739, Note_on_c, 1, 79, 0
7, 302760, Note_on_c, 1, 78, 44
7, 302760, Note_on_c, 1, 74, 44
7, 302879, Note_on_c, 1, 78, 0
7, 302879, Note_on_c, 1, 74, 0
7, 303000, Note_on_c, 1, 76, 44
7, 303000, Note_on_c, 1, 73, 44
7, 303119, Note_on_c, 1, 76, 0
7, 303119, Note_on_c, 1, 73, 0
7, 303240, Note_on_c, 1, 74, 44
7, 303359, Note_on_c, 1, 74, 0
7, 311160, Note_on_c, 1, 81, 44
7, 311249, Note_on_c, 1, 81, 0
7, 311280, Note_on_c, 1, 80, 44
7, 311369, Note_on_c, 1, 80, 0
7, 311400, Note_on_c, 1, 81, 44
7, 311489, Note_on_c, 1, 81, 0
7, 311520, Note_on_c, 1, 78, 44
7, 311609, Note_on_c, 1, 78, 0
7, 311640, Note_on_c, 1, 76, 44
7, 311729, Note_on_c, 1, 76, 0
7, 311760, Note_on_c, 1, 74, 44
7, 311849, Note_on_c, 1, 74, 0
7, 311880, Note_on_c, 1, 73, 44
7, 311969, Note_on_c, 1, 73, 0
7, 312000, Note_on_c, 1, 71, 44
7, 312089, Note_on_c, 1, 71, 0
7, 312120, Note_on_c, 1, 69, 44
7, 312209, Note_on_c, 1, 69, 0
7, 312240, Note_on_c, 1, 79, 44
7, 312329, Note_on_c, 1, 79, 0
7, 312360, Note_on_c, 1, 78, 44
7, 312449, Note_on_c, 1, 78, 0
7, 312480, Note_on_c, 1, 80, 44
7, 312569, Note_on_c, 1, 80, 0
7, 312600, Note_on_c, 1, 81, 44
7, 312689, Note_on_c, 1, 81, 0
7, 312720, Note_on_c, 1, 76, 44
7, 312809, Note_on_c, 1, 76, 0
7, 312840, Note_on_c, 1, 86, 44
7, 312929, Note_on_c, 1, 86, 0
7, 312960, Note_on_c, 1, 80, 44
7, 313049, Note_on_c, 1, 80, 0
7, 313080, Note_on_c, 1, 81, 44
7, 313199, Note_on_c, 1, 81, 0
7, 313200, Note_on_c, 1, 80, 44
7, 313319, Note_on_c, 1, 80, 0
7, 313320, Note_on_c, 1, 81, 44
7, 313439, Note_on_c, 1, 81, 0
7, 313440, Note_on_c, 1, 78, 44
7, 313559, Note_on_c, 1, 78, 0
7, 313560, Note_on_c, 1, 76, 44
7, 313679, Note_on_c, 1, 76, 0
7, 313680, Note_on_c, 1, 74, 44
7, 313799, Note_on_c, 1, 74, 0
7, 313800, Note_on_c, 1, 73, 44
7, 313919, Note_on_c, 1, 73, 0
7, 313920, Note_on_c, 1, 69, 44
7, 314019, Note_on_c, 1, 69, 0
7, 314040, Note_on_c, 1, 81, 44
7, 314159, Note_on_c, 1, 81, 0
7, 314160, Note_on_c, 1, 80, 44
7, 314279, Note_on_c, 1, 80, 0
7, 314280, Note_on_c, 1, 81, 44
7, 314399, Note_on_c, 1, 81, 0
7, 314400, Note_on_c, 1, 78, 44
7, 314519, Note_on_c, 1, 78, 0
7, 314520, Note_on_c, 1, 76, 44
7, 314639, Note_on_c, 1, 76, 0
7, 314640, Note_on_c, 1, 74, 44
7, 314759, Note_on_c, 1, 74, 0
7, 314760, Note_on_c, 1, 73, 44
7, 314879, Note_on_c, 1, 73, 0
7, 314880, Note_on_c, 1, 69, 44
7, 314979, Note_on_c, 1, 69, 0
7, 315000, Note_on_c, 1, 83, 44
7, 315119, Note_on_c, 1, 83, 0
7, 315120, Note_on_c, 1, 82, 44
7, 315239, Note_on_c, 1, 82, 0
7, 315240, Note_on_c, 1, 83, 44
7, 315359, Note_on_c, 1, 83, 0
7, 315360, Note_on_c, 1, 79, 44
7, 315479, Note_on_c, 1, 79, 0
7, 315480, Note_on_c, 1, 76, 44
7, 315599, Note_on_c, 1, 76, 0
7, 315600, Note_on_c, 1, 74, 44
7, 315719, Note_on_c, 1, 74, 0
7, 315720, Note_on_c, 1, 73, 44
7, 315839, Note_on_c, 1, 73, 0
7, 315840, Note_on_c, 1, 69, 44
7, 315939, Note_on_c, 1, 69, 0
7, 315960, Note_on_c, 1, 83, 44
7, 316079, Note_on_c, 1, 83, 0
7, 316080, Note_on_c, 1, 82, 44
7, 316199, Note_on_c, 1, 82, 0
7, 316200, Note_on_c, 1, 83, 44
7, 316319, Note_on_c, 1, 83, 0
7, 316320, Note_on_c, 1, 79, 44
7, 316439, Note_on_c, 1, 79, 0
7, 316440, Note_on_c, 1, 76, 44
7, 316559, Note_on_c, 1, 76, 0
7, 316560, Note_on_c, 1, 74, 44
7, 316679, Note_on_c, 1, 74, 0
7, 316680, Note_on_c, 1, 73, 44
7, 316799, Note_on_c, 1, 73, 0
7, 316800, Note_on_c, 1, 69, 44
7, 316899, Note_on_c, 1, 69, 0
7, 316920, Note_on_c, 1, 76, 44
7, 317039, Note_on_c, 1, 76, 0
7, 317040, Note_on_c, 1, 75, 45
7, 317159, Note_on_c, 1, 75, 0
7, 317160, Note_on_c, 1, 76, 46
7, 317279, Note_on_c, 1, 76, 0
7, 317280, Note_on_c, 1, 73, 47
7, 317379, Note_on_c, 1, 73, 0
7, 317400, Note_on_c, 1, 79, 48
7, 317519, Note_on_c, 1, 79, 0
7, 317520, Note_on_c, 1, 78, 50
7, 317639, Note_on_c, 1, 78, 0
7, 317640, Note_on_c, 1, 79, 51
7, 317759, Note_on_c, 1, 79, 0
7, 317760, Note_on_c, 1, 76, 52
7, 317859, Note_on_c, 1, 76, 0
7, 317880, Note_on_c, 1, 76, 53
7, 317999, Note_on_c, 1, 76, 0
7, 318000, Note_on_c, 1, 75, 54
7, 318119, Note_on_c, 1, 75, 0
7, 318120, Note_on_c, 1, 76, 56
7, 318239, Note_on_c, 1, 76, 0
7, 318240, Note_on_c, 1, 73, 57
7, 318339, Note_on_c, 1, 73, 0
7, 318360, Note_on_c, 1, 79, 58
7, 318479, Note_on_c, 1, 79, 0
7, 318480, Note_on_c, 1, 78, 59
7, 318599, Note_on_c, 1, 78, 0
7, 318600, Note_on_c, 1, 79, 60
7, 318719, Note_on_c, 1, 79, 0
7, 318720, Note_on_c, 1, 76, 62
7, 318819, Note_on_c, 1, 76, 0
7, 318840, Note_on_c, 1, 79, 63
7, 318959, Note_on_c, 1, 79, 0
7, 318960, Note_on_c, 1, 78, 64
7, 319079, Note_on_c, 1, 78, 0
7, 319080, Note_on_c, 1, 79, 65
7, 319199, Note_on_c, 1, 79, 0
7, 319200, Note_on_c, 1, 76, 66
7, 319299, Note_on_c, 1, 76, 0
7, 319320, Note_on_c, 1, 79, 44
7, 319439, Note_on_c, 1, 79, 0
7, 319440, Note_on_c, 1, 78, 44
7, 319559, Note_on_c, 1, 78, 0
7, 319560, Note_on_c, 1, 79, 44
7, 319679, Note_on_c, 1, 79, 0
7, 319680, Note_on_c, 1, 74, 44
7, 319799, Note_on_c, 1, 74, 0
7, 319800, Note_on_c, 1, 72, 44
7, 319919, Note_on_c, 1, 72, 0
7, 319920, Note_on_c, 1, 70, 44
7, 320039, Note_on_c, 1, 70, 0
7, 320040, Note_on_c, 1, 69, 44
7, 320139, Note_on_c, 1, 69, 0
7, 320160, Note_on_c, 1, 77, 44
7, 320279, Note_on_c, 1, 77, 0
7, 320280, Note_on_c, 1, 79, 49
7, 320399, Note_on_c, 1, 79, 0
7, 320400, Note_on_c, 1, 78, 54
7, 320519, Note_on_c, 1, 78, 0
7, 320520, Note_on_c, 1, 79, 59
7, 320639, Note_on_c, 1, 79, 0
7, 320640, Note_on_c, 1, 70, 64
7, 320759, Note_on_c, 1, 70, 0
7, 320760, Note_on_c, 1, 69, 69
7, 320879, Note_on_c, 1, 69, 0
7, 320880, Note_on_c, 1, 81, 74
7, 320979, Note_on_c, 1, 81, 0
7, 321000, Note_on_c, 1, 81, 80
7, 321060, Control_c, 1, 11, 67
7, 321480, Control_c, 1, 11, 67
7, 321536, Control_c, 1, 11, 68
7, 321592, Control_c, 1, 11, 69
7, 321648, Control_c, 1, 11, 70
7, 321704, Control_c, 1, 11, 71
7, 321760, Control_c, 1, 11, 72
7, 321816, Control_c, 1, 11, 73
7, 321872, Control_c, 1, 11, 74
7, 321928, Control_c, 1, 11, 75
7, 321984, Control_c, 1, 11, 76
7, 322040, Control_c, 1, 11, 77
7, 322096, Control_c, 1, 11, 78
7, 322152, Control_c, 1, 11, 79
7, 322208, Control_c, 1, 11, 80
7, 322264, Control_c, 1, 11, 81
7, 322320, Control_c, 1, 11, 82
7, 322376, Control_c, 1, 11, 83
7, 322432, Control_c, 1, 11, 84
7, 322488, Control_c, 1, 11, 85
7, 322544, Control_c, 1, 11, 86
7, 322600, Control_c, 1, 11, 87
7, 322656, Control_c, 1, 11, 88
7, 322712, Control_c, 1, 11, 89
7, 322768, Control_c, 1, 11, 90
7, 322824, Control_c, 1, 11, 91
7, 322880, Control_c, 1, 11, 92
7, 322936, Control_c, 1, 11, 93
7, 322992, Control_c, 1, 11, 94
7, 323048, Control_c, 1, 11, 95
7, 323104, Control_c, 1, 11, 96
7, 323160, Control_c, 1, 11, 97
7, 323216, Control_c, 1, 11, 98
7, 323272, Control_c, 1, 11, 99
7, 323328, Control_c, 1, 11, 100
7, 323384, Control_c, 1, 11, 101
7, 323440, Control_c, 1, 11, 102
7, 323496, Control_c, 1, 11, 103
7, 323552, Control_c, 1, 11, 104
7, 323608, Control_c, 1, 11, 105
7, 323664, Control_c, 1, 11, 106
7, 323720, Control_c, 1, 11, 107
7, 323776, Control_c, 1, 11, 108
7, 323832, Control_c, 1, 11, 109
7, 323888, Control_c, 1, 11, 110
7, 323944, Control_c, 1, 11, 111
7, 324000, Control_c, 1, 11, 112
7, 324056, Control_c, 1, 11, 113
7, 324112, Control_c, 1, 11, 114
7, 324168, Control_c, 1, 11, 115
7, 324224, Control_c, 1, 11, 116
7, 324280, Control_c, 1, 11, 117
7, 324336, Control_c, 1, 11, 118
7, 324392, Control_c, 1, 11, 119
7, 324448, Control_c, 1, 11, 120
7, 324504, Control_c, 1, 11, 121
7, 324560, Control_c, 1, 11, 122
7, 324616, Control_c, 1, 11, 123
7, 324672, Control_c, 1, 11, 124
7, 324728, Control_c, 1, 11, 125
7, 324784, Control_c, 1, 11, 127
7, 325059, Note_on_c, 1, 81, 0
7, 325080, Note_on_c, 1, 69, 80
7, 325080, Note_on_c, 1, 81, 80
7, 328179, Note_on_c, 1, 69, 0
7, 328179, Note_on_c, 1, 81, 0
7, 328200, Note_on_c, 1, 71, 80
7, 328200, Note_on_c, 1, 83, 80
7, 328289, Note_on_c, 1, 71, 0
7, 328289, Note_on_c, 1, 83, 0
7, 328320, Note_on_c, 1, 83, 80
7, 328320, Note_on_c, 1, 71, 80
7, 328409, Note_on_c, 1, 83, 0
7, 328409, Note_on_c, 1, 71, 0
7, 328440, Note_on_c, 1, 85, 80
7, 328440, Note_on_c, 1, 73, 80
7, 328529, Note_on_c, 1, 85, 0
7, 328529, Note_on_c, 1, 73, 0
7, 328560, Note_on_c, 1, 73, 80
7, 328560, Note_on_c, 1, 85, 80
7, 328649, Note_on_c, 1, 73, 0
7, 328649, Note_on_c, 1, 85, 0
7, 328680, Note_on_c, 1, 74, 80
7, 328680, Note_on_c, 1, 86, 80
7, 328799, Note_on_c, 1, 74, 0
7, 328799, Note_on_c, 1, 86, 0
7, 333480, Control_c, 1, 11, 87
7, 333540, Control_c, 1, 11, 88
7, 333600, Control_c, 1, 11, 89
7, 333600, Note_on_c, 1, 81, 68
7, 333660, Control_c, 1, 11, 90
7, 333719, Note_on_c, 1, 81, 0
7, 333720, Control_c, 1, 11, 91
7, 333720, Note_on_c, 1, 80, 68
7, 333780, Control_c, 1, 11, 93
7, 333839, Note_on_c, 1, 80, 0
7, 333840, Note_on_c, 1, 81, 68
7, 333840, Control_c, 1, 11, 94
7, 333900, Control_c, 1, 11, 95
7, 333959, Note_on_c, 1, 81, 0
7, 333960, Control_c, 1, 11, 96
7, 333960, Note_on_c, 1, 83, 68
7, 334020, Control_c, 1, 11, 97
7, 334079, Note_on_c, 1, 83, 0
7, 334080, Note_on_c, 1, 76, 68
7, 334080, Control_c, 1, 11, 98
7, 334140, Control_c, 1, 11, 99
7, 334199, Note_on_c, 1, 76, 0
7, 334200, Control_c, 1, 11, 100
7, 334200, Note_on_c, 1, 78, 68
7, 334260, Control_c, 1, 11, 101
7, 334319, Note_on_c, 1, 78, 0
7, 334320, Note_on_c, 1, 80, 68
7, 334320, Control_c, 1, 11, 103
7, 334380, Control_c, 1, 11, 104
7, 334419, Note_on_c, 1, 80, 0
7, 334440, Control_c, 1, 11, 105
7, 334440, Note_on_c, 1, 81, 68
7, 334500, Control_c, 1, 11, 106
7, 334560, Control_c, 1, 11, 107
7, 334620, Control_c, 1, 11, 108
7, 334680, Control_c, 1, 11, 109
7, 334740, Control_c, 1, 11, 110
7, 334800, Control_c, 1, 11, 111
7, 334860, Control_c, 1, 11, 113
7, 334920, Control_c, 1, 11, 114
7, 334980, Control_c, 1, 11, 115
7, 335040, Control_c, 1, 11, 116
7, 335100, Control_c, 1, 11, 117
7, 335160, Control_c, 1, 11, 118
7, 335220, Control_c, 1, 11, 119
7, 335280, Control_c, 1, 11, 120
7, 335340, Control_c, 1, 11, 121
7, 335400, Control_c, 1, 11, 123
7, 335460, Control_c, 1, 11, 124
7, 335520, Control_c, 1, 11, 125
7, 335580, Control_c, 1, 11, 127
7, 335639, Note_on_c, 1, 81, 0
7, 335640, Note_on_c, 1, 83, 68
7, 335759, Note_on_c, 1, 83, 0
7, 335760, Note_on_c, 1, 79, 56
7, 335859, Note_on_c, 1, 79, 0
7, 335880, Note_on_c, 1, 74, 44
7, 335880, Note_on_c, 1, 78, 44
7, 335999, Note_on_c, 1, 74, 0
7, 335999, Note_on_c, 1, 78, 0
7, 336120, Note_on_c, 1, 76, 44
7, 336120, Note_on_c, 1, 73, 44
7, 336239, Note_on_c, 1, 76, 0
7, 336239, Note_on_c, 1, 73, 0
7, 336360, Note_on_c, 1, 74, 44
7, 336479, Note_on_c, 1, 74, 0
7, 344280, Note_on_c, 1, 81, 44
7, 344369, Note_on_c, 1, 81, 0
7, 344400, Note_on_c, 1, 80, 44
7, 344489, Note_on_c, 1, 80, 0
7, 344520, Note_on_c, 1, 81, 44
7, 344609, Note_on_c, 1, 81, 0
7, 344640, Note_on_c, 1, 78, 44
7, 344729, Note_on_c, 1, 78, 0
7, 344760, Note_on_c, 1, 76, 44
7, 344849, Note_on_c, 1, 76, 0
7, 344880, Note_on_c, 1, 74, 44
7, 344969, Note_on_c, 1, 74, 0
7, 345000, Note_on_c, 1, 73, 44
7, 345089, Note_on_c, 1, 73, 0
7, 345120, Note_on_c, 1, 71, 44
7, 345209, Note_on_c, 1, 71, 0
7, 345240, Note_on_c, 1, 69, 44
7, 345329, Note_on_c, 1, 69, 0
7, 345360, Note_on_c, 1, 79, 44
7, 345449, Note_on_c, 1, 79, 0
7, 345480, Note_on_c, 1, 78, 44
7, 345569, Note_on_c, 1, 78, 0
7, 345600, Note_on_c, 1, 80, 44
7, 345689, Note_on_c, 1, 80, 0
7, 345720, Note_on_c, 1, 81, 44
7, 345809, Note_on_c, 1, 81, 0
7, 345840, Note_on_c, 1, 76, 44
7, 345929, Note_on_c, 1, 76, 0
7, 345960, Note_on_c, 1, 86, 44
7, 346049, Note_on_c, 1, 86, 0
7, 346080, Note_on_c, 1, 80, 44
7, 346169, Note_on_c, 1, 80, 0
7, 346200, Note_on_c, 1, 81, 44
7, 346319, Note_on_c, 1, 81, 0
7, 346320, Note_on_c, 1, 80, 44
7, 346439, Note_on_c, 1, 80, 0
7, 346440, Note_on_c, 1, 81, 44
7, 346559, Note_on_c, 1, 81, 0
7, 346560, Note_on_c, 1, 78, 44
7, 346679, Note_on_c, 1, 78, 0
7, 346680, Note_on_c, 1, 76, 44
7, 346799, Note_on_c, 1, 76, 0
7, 346800, Note_on_c, 1, 74, 44
7, 346919, Note_on_c, 1, 74, 0
7, 346920, Note_on_c, 1, 73, 44
7, 347039, Note_on_c, 1, 73, 0
7, 347040, Note_on_c, 1, 69, 44
7, 347139, Note_on_c, 1, 69, 0
7, 347160, Note_on_c, 1, 81, 44
7, 347279, Note_on_c, 1, 81, 0
7, 347280, Note_on_c, 1, 80, 44
7, 347399, Note_on_c, 1, 80, 0
7, 347400, Note_on_c, 1, 81, 44
7, 347519, Note_on_c, 1, 81, 0
7, 347520, Note_on_c, 1, 78, 44
7, 347639, Note_on_c, 1, 78, 0
7, 347640, Note_on_c, 1, 76, 44
7, 347759, Note_on_c, 1, 76, 0
7, 347760, Note_on_c, 1, 74, 44
7, 347879, Note_on_c, 1, 74, 0
7, 347880, Note_on_c, 1, 73, 44
7, 347999, Note_on_c, 1, 73, 0
7, 348000, Note_on_c, 1, 69, 44
7, 348099, Note_on_c, 1, 69, 0
7, 348120, Note_on_c, 1, 83, 44
7, 348239, Note_on_c, 1, 83, 0
7, 348240, Note_on_c, 1, 82, 44
7, 348359, Note_on_c, 1, 82, 0
7, 348360, Note_on_c, 1, 83, 44
7, 348479, Note_on_c, 1, 83, 0
7, 348480, Note_on_c, 1, 79, 44
7, 348599, Note_on_c, 1, 79, 0
7, 348600, Note_on_c, 1, 76, 44
7, 348719, Note_on_c, 1, 76, 0
7, 348720, Note_on_c, 1, 74, 44
7, 348839, Note_on_c, 1, 74, 0
7, 348840, Note_on_c, 1, 73, 44
7, 348959, Note_on_c, 1, 73, 0
7, 348960, Note_on_c, 1, 69, 44
7, 349059, Note_on_c, 1, 69, 0
7, 349080, Note_on_c, 1, 83, 44
7, 349199, Note_on_c, 1, 83, 0
7, 349200, Note_on_c, 1, 82, 44
7, 349319, Note_on_c, 1, 82, 0
7, 349320, Note_on_c, 1, 83, 44
7, 349439, Note_on_c, 1, 83, 0
7, 349440, Note_on_c, 1, 79, 44
7, 349559, Note_on_c, 1, 79, 0
7, 349560, Note_on_c, 1, 76, 44
7, 349679, Note_on_c, 1, 76, 0
7, 349680, Note_on_c, 1, 74, 44
7, 349799, Note_on_c, 1, 74, 0
7, 349800, Note_on_c, 1, 73, 44
7, 349919, Note_on_c, 1, 73, 0
7, 349920, Note_on_c, 1, 69, 44
7, 350019, Note_on_c, 1, 69, 0
7, 350040, Note_on_c, 1, 76, 44
7, 350159, Note_on_c, 1, 76, 0
7, 350160, Note_on_c, 1, 75, 45
7, 350279, Note_on_c, 1, 75, 0
7, 350280, Note_on_c, 1, 76, 46
7, 350399, Note_on_c, 1, 76, 0
7, 350400, Note_on_c, 1, 73, 47
7, 350499, Note_on_c, 1, 73, 0
7, 350520, Note_on_c, 1, 79, 48
7, 350639, Note_on_c, 1, 79, 0
7, 350640, Note_on_c, 1, 78, 50
7, 350759, Note_on_c, 1, 78, 0
7, 350760, Note_on_c, 1, 79, 51
7, 350879, Note_on_c, 1, 79, 0
7, 350880, Note_on_c, 1, 76, 52
7, 350979, Note_on_c, 1, 76, 0
7, 351000, Note_on_c, 1, 76, 53
7, 351119, Note_on_c, 1, 76, 0
7, 351120, Note_on_c, 1, 75, 54
7, 351239, Note_on_c, 1, 75, 0
7, 351240, Note_on_c, 1, 76, 56
7, 351359, Note_on_c, 1, 76, 0
7, 351360, Note_on_c, 1, 73, 57
7, 351459, Note_on_c, 1, 73, 0
7, 351480, Note_on_c, 1, 79, 58
7, 351599, Note_on_c, 1, 79, 0
7, 351600, Note_on_c, 1, 78, 59
7, 351719, Note_on_c, 1, 78, 0
7, 351720, Note_on_c, 1, 79, 60
7, 351839, Note_on_c, 1, 79, 0
7, 351840, Note_on_c, 1, 76, 62
7, 351939, Note_on_c, 1, 76, 0
7, 351960, Note_on_c, 1, 79, 63
7, 352079, Note_on_c, 1, 79, 0
7, 352080, Note_on_c, 1, 78, 64
7, 352199, Note_on_c, 1, 78, 0
7, 352200, Note_on_c, 1, 79, 65
7, 352319, Note_on_c, 1, 79, 0
7, 352320, Note_on_c, 1, 76, 66
7, 352419, Note_on_c, 1, 76, 0
7, 352440, Note_on_c, 1, 79, 44
7, 352559, Note_on_c, 1, 79, 0
7, 352560, Note_on_c, 1, 78, 44
7, 352679, Note_on_c, 1, 78, 0
7, 352680, Note_on_c, 1, 79, 44
7, 352799, Note_on_c, 1, 79, 0
7, 352800, Note_on_c, 1, 74, 44
7, 352919, Note_on_c, 1, 74, 0
7, 352920, Note_on_c, 1, 72, 44
7, 353039, Note_on_c, 1, 72, 0
7, 353040, Note_on_c, 1, 70, 44
7, 353159, Note_on_c, 1, 70, 0
7, 353160, Note_on_c, 1, 69, 44
7, 353259, Note_on_c, 1, 69, 0
7, 353280, Note_on_c, 1, 77, 44
7, 353399, Note_on_c, 1, 77, 0
7, 353400, Note_on_c, 1, 79, 49
7, 353519, Note_on_c, 1, 79, 0
7, 353520, Note_on_c, 1, 78, 54
7, 353639, Note_on_c, 1, 78, 0
7, 353640, Note_on_c, 1, 79, 59
7, 353759, Note_on_c, 1, 79, 0
7, 353760, Note_on_c, 1, 70, 64
7, 353879, Note_on_c, 1, 70, 0
7, 353880, Note_on_c, 1, 69, 69
7, 353999, Note_on_c, 1, 69, 0
7, 354000, Note_on_c, 1, 81, 74
7, 354099, Note_on_c, 1, 81, 0
7, 354120, Note_on_c, 1, 81, 80
7, 354180, Control_c, 1, 11, 67
7, 354600, Control_c, 1, 11, 67
7, 354656, Control_c, 1, 11, 68
7, 354712, Control_c, 1, 11, 69
7, 354768, Control_c, 1, 11, 70
7, 354824, Control_c, 1, 11, 71
7, 354880, Control_c, 1, 11, 72
7, 354936, Control_c, 1, 11, 73
7, 354992, Control_c, 1, 11, 74
7, 355048, Control_c, 1, 11, 75
7, 355104, Control_c, 1, 11, 76
7, 355160, Control_c, 1, 11, 77
7, 355216, Control_c, 1, 11, 78
7, 355272, Control_c, 1, 11, 79
7, 355328, Control_c, 1, 11, 80
7, 355384, Control_c, 1, 11, 81
7, 355440, Control_c, 1, 11, 82
7, 355496, Control_c, 1, 11, 83
7, 355552, Control_c, 1, 11, 84
7, 355608, Control_c, 1, 11, 85
7, 355664, Control_c, 1, 11, 86
7, 355720, Control_c, 1, 11, 87
7, 355776, Control_c, 1, 11, 88
7, 355832, Control_c, 1, 11, 89
7, 355888, Control_c, 1, 11, 90
7, 355944, Control_c, 1, 11, 91
7, 356000, Control_c, 1, 11, 92
7, 356056, Control_c, 1, 11, 93
7, 356112, Control_c, 1, 11, 94
7, 356168, Control_c, 1, 11, 95
7, 356224, Control_c, 1, 11, 96
7, 356280, Control_c, 1, 11, 97
7, 356336, Control_c, 1, 11, 98
7, 356392, Control_c, 1, 11, 99
7, 356448, Control_c, 1, 11, 100
7, 356504, Control_c, 1, 11, 101
7, 356560, Control_c, 1, 11, 102
7, 356616, Control_c, 1, 11, 103
7, 356672, Control_c, 1, 11, 104
7, 356728, Control_c, 1, 11, 105
7, 356784, Control_c, 1, 11, 106
7, 356840, Control_c, 1, 11, 107
7, 356896, Control_c, 1, 11, 108
7, 356952, Control_c, 1, 11, 109
7, 357008, Control_c, 1, 11, 110
7, 357064, Control_c, 1, 11, 111
7, 357120, Control_c, 1, 11, 112
7, 357176, Control_c, 1, 11, 113
7, 357232, Control_c, 1, 11, 114
7, 357288, Control_c, 1, 11, 115
7, 357344, Control_c, 1, 11, 116
7, 357400, Control_c, 1, 11, 117
7, 357456, Control_c, 1, 11, 118
7, 357512, Control_c, 1, 11, 119
7, 357568, Control_c, 1, 11, 120
7, 357624, Control_c, 1, 11, 121
7, 357680, Control_c, 1, 11, 122
7, 357736, Control_c, 1, 11, 123
7, 357792, Control_c, 1, 11, 124
7, 357848, Control_c, 1, 11, 125
7, 357904, Control_c, 1, 11, 127
7, 358179, Note_on_c, 1, 81, 0
7, 358200, Note_on_c, 1, 81, 80
7, 358200, Note_on_c, 1, 69, 80
7, 361299, Note_on_c, 1, 81, 0
7, 361299, Note_on_c, 1, 69, 0
7, 361320, Note_on_c, 1, 71, 80
7, 361320, Note_on_c, 1, 83, 80
7, 361409, Note_on_c, 1, 71, 0
7, 361409, Note_on_c, 1, 83, 0
7, 361440, Note_on_c, 1, 71, 80
7, 361440, Note_on_c, 1, 83, 80
7, 361529, Note_on_c, 1, 71, 0
7, 361529, Note_on_c, 1, 83, 0
7, 361560, Note_on_c, 1, 73, 80
7, 361560, Note_on_c, 1, 85, 80
7, 361649, Note_on_c, 1, 73, 0
7, 361649, Note_on_c, 1, 85, 0
7, 361680, Note_on_c, 1, 73, 80
7, 361680, Note_on_c, 1, 85, 80
7, 361769, Note_on_c, 1, 73, 0
7, 361769, Note_on_c, 1, 85, 0
7, 361800, Note_on_c, 1, 86, 80
7, 361800, Note_on_c, 1, 74, 80
7, 361919, Note_on_c, 1, 86, 0
7, 361919, Note_on_c, 1, 74, 0
7, 362040, Note_on_c, 1, 74, 44
7, 362129, Note_on_c, 1, 74, 0
7, 362160, Note_on_c, 1, 73, 44
7, 362249, Note_on_c, 1, 73, 0
7, 362280, Note_on_c, 1, 74, 44
7, 362369, Note_on_c, 1, 74, 0
7, 362400, Note_on_c, 1, 71, 44
7, 362489, Note_on_c, 1, 71, 0
7, 362520, Note_on_c, 1, 69, 44
7, 362609, Note_on_c, 1, 69, 0
7, 362640, Note_on_c, 1, 67, 44
7, 362729, Note_on_c, 1, 67, 0
7, 362760, Note_on_c, 1, 66, 44
7, 362849, Note_on_c, 1, 66, 0
7, 362880, Note_on_c, 1, 76, 44
7, 362969, Note_on_c, 1, 76, 0
7, 363000, Note_on_c, 1, 74, 44
7, 363089, Note_on_c, 1, 74, 0
7, 363120, Note_on_c, 1, 72, 44
7, 363209, Note_on_c, 1, 72, 0
7, 363240, Note_on_c, 1, 71, 44
7, 363329, Note_on_c, 1, 71, 0
7, 363360, Note_on_c, 1, 73, 44
7, 363449, Note_on_c, 1, 73, 0
7, 363480, Note_on_c, 1, 74, 44
7, 363569, Note_on_c, 1, 74, 0
7, 363600, Note_on_c, 1, 78, 44
7, 363689, Note_on_c, 1, 78, 0
7, 363720, Note_on_c, 1, 81, 44
7, 363809, Note_on_c, 1, 81, 0
7, 363840, Note_on_c, 1, 73, 45
7, 363929, Note_on_c, 1, 73, 0
7, 363960, Note_on_c, 1, 74, 46
7, 364049, Note_on_c, 1, 74, 0
7, 364080, Note_on_c, 1, 73, 47
7, 364169, Note_on_c, 1, 73, 0
7, 364200, Note_on_c, 1, 74, 48
7, 364289, Note_on_c, 1, 74, 0
7, 364320, Note_on_c, 1, 71, 49
7, 364409, Note_on_c, 1, 71, 0
7, 364440, Note_on_c, 1, 69, 50
7, 364529, Note_on_c, 1, 69, 0
7, 364560, Note_on_c, 1, 67, 51
7, 364649, Note_on_c, 1, 67, 0
7, 364680, Note_on_c, 1, 66, 53
7, 364769, Note_on_c, 1, 66, 0
7, 364800, Note_on_c, 1, 62, 54
7, 364889, Note_on_c, 1, 62, 0
7, 364920, Note_on_c, 1, 78, 55
7, 365009, Note_on_c, 1, 78, 0
7, 365040, Note_on_c, 1, 76, 56
7, 365129, Note_on_c, 1, 76, 0
7, 365160, Note_on_c, 1, 78, 57
7, 365249, Note_on_c, 1, 78, 0
7, 365280, Note_on_c, 1, 74, 58
7, 365369, Note_on_c, 1, 74, 0
7, 365400, Note_on_c, 1, 73, 59
7, 365489, Note_on_c, 1, 73, 0
7, 365520, Note_on_c, 1, 71, 60
7, 365609, Note_on_c, 1, 71, 0
7, 365640, Note_on_c, 1, 69, 62
7, 365729, Note_on_c, 1, 69, 0
7, 365760, Note_on_c, 1, 66, 63
7, 365849, Note_on_c, 1, 66, 0
7, 365880, Note_on_c, 1, 81, 64
7, 365969, Note_on_c, 1, 81, 0
7, 366000, Note_on_c, 1, 80, 65
7, 366089, Note_on_c, 1, 80, 0
7, 366120, Note_on_c, 1, 81, 66
7, 366209, Note_on_c, 1, 81, 0
7, 366240, Note_on_c, 1, 78, 67
7, 366329, Note_on_c, 1, 78, 0
7, 366360, Note_on_c, 1, 76, 68
7, 366449, Note_on_c, 1, 76, 0
7, 366480, Note_on_c, 1, 73, 69
7, 366569, Note_on_c, 1, 73, 0
7, 366600, Note_on_c, 1, 69, 71
7, 366689, Note_on_c, 1, 69, 0
7, 366720, Note_on_c, 1, 80, 72
7, 366809, Note_on_c, 1, 80, 0
7, 366840, Note_on_c, 1, 81, 73
7, 366929, Note_on_c, 1, 81, 0
7, 366960, Note_on_c, 1, 80, 74
7, 367049, Note_on_c, 1, 80, 0
7, 367080, Note_on_c, 1, 81, 75
7, 367169, Note_on_c, 1, 81, 0
7, 367200, Note_on_c, 1, 78, 76
7, 367289, Note_on_c, 1, 78, 0
7, 367320, Note_on_c, 1, 76, 77
7, 367409, Note_on_c, 1, 76, 0
7, 367440, Note_on_c, 1, 73, 78
7, 367529, Note_on_c, 1, 73, 0
7, 367560, Note_on_c, 1, 69, 80
7, 367649, Note_on_c, 1, 69, 0
7, 367680, Note_on_c, 1, 74, 80
7, 367769, Note_on_c, 1, 74, 0
7, 367800, Note_on_c, 1, 76, 80
7, 367889, Note_on_c, 1, 76, 0
7, 367920, Note_on_c, 1, 74, 80
7, 368009, Note_on_c, 1, 74, 0
7, 368040, Note_on_c, 1, 69, 80
7, 368129, Note_on_c, 1, 69, 0
7, 368160, Note_on_c, 1, 76, 80
7, 368249, Note_on_c, 1, 76, 0
7, 368280, Note_on_c, 1, 78, 80
7, 368369, Note_on_c, 1, 78, 0
7, 368400, Note_on_c, 1, 76, 80
7, 368489, Note_on_c, 1, 76, 0
7, 368520, Note_on_c, 1, 69, 80
7, 368609, Note_on_c, 1, 69, 0
7, 368640, Note_on_c, 1, 74, 76
7, 368729, Note_on_c, 1, 74, 0
7, 368760, Note_on_c, 1, 76, 71
7, 368849, Note_on_c, 1, 76, 0
7, 368880, Note_on_c, 1, 74, 67
7, 368969, Note_on_c, 1, 74, 0
7, 369000, Note_on_c, 1, 69, 62
7, 369089, Note_on_c, 1, 69, 0
7, 369120, Note_on_c, 1, 76, 58
7, 369209, Note_on_c, 1, 76, 0
7, 369240, Note_on_c, 1, 78, 53
7, 369329, Note_on_c, 1, 78, 0
7, 369360, Note_on_c, 1, 76, 49
7, 369449, Note_on_c, 1, 76, 0
7, 369478, Control_c, 1, 11, 47
7, 369480, Note_on_c, 1, 74, 92
7, 369699, Note_on_c, 1, 74, 0
7, 369720, Control_c, 1, 11, 47
7, 369720, Note_on_c, 1, 74, 92
7, 369765, Control_c, 1, 11, 48
7, 369810, Control_c, 1, 11, 49
7, 369855, Control_c, 1, 11, 50
7, 369900, Control_c, 1, 11, 51
7, 369945, Control_c, 1, 11, 52
7, 369990, Control_c, 1, 11, 53
7, 370035, Control_c, 1, 11, 54
7, 370080, Control_c, 1, 11, 55
7, 370125, Control_c, 1, 11, 56
7, 370170, Control_c, 1, 11, 57
7, 370179, Note_on_c, 1, 74, 0
7, 370200, Note_on_c, 1, 76, 92
7, 370215, Control_c, 1, 11, 58
7, 370260, Control_c, 1, 11, 59
7, 370305, Control_c, 1, 11, 60
7, 370350, Control_c, 1, 11, 61
7, 370395, Control_c, 1, 11, 62
7, 370419, Note_on_c, 1, 76, 0
7, 370440, Control_c, 1, 11, 63
7, 370440, Note_on_c, 1, 78, 92
7, 370485, Control_c, 1, 11, 64
7, 370530, Control_c, 1, 11, 65
7, 370575, Control_c, 1, 11, 66
7, 370620, Control_c, 1, 11, 67
7, 370659, Note_on_c, 1, 78, 0
7, 370665, Control_c, 1, 11, 68
7, 370680, Note_on_c, 1, 78, 92
7, 370710, Control_c, 1, 11, 69
7, 370755, Control_c, 1, 11, 70
7, 370800, Control_c, 1, 11, 71
7, 370845, Control_c, 1, 11, 72
7, 370890, Control_c, 1, 11, 73
7, 370935, Control_c, 1, 11, 74
7, 370980, Control_c, 1, 11, 75
7, 371025, Control_c, 1, 11, 76
7, 371070, Control_c, 1, 11, 77
7, 371115, Control_c, 1, 11, 78
7, 371139, Note_on_c, 1, 78, 0
7, 371160, Control_c, 1, 11, 79
7, 371160, Note_on_c, 1, 79, 92
7, 371205, Control_c, 1, 11, 80
7, 371250, Control_c, 1, 11, 81
7, 371295, Control_c, 1, 11, 82
7, 371340, Control_c, 1, 11, 83
7, 371379, Note_on_c, 1, 79, 0
7, 371385, Control_c, 1, 11, 84
7, 371400, Note_on_c, 1, 81, 92
7, 371430, Control_c, 1, 11, 85
7, 371475, Control_c, 1, 11, 86
7, 371520, Control_c, 1, 11, 87
7, 371565, Control_c, 1, 11, 88
7, 371610, Control_c, 1, 11, 89
7, 371619, Note_on_c, 1, 81, 0
7, 371640, Note_on_c, 1, 81, 92
7, 371655, Control_c, 1, 11, 90
7, 371700, Control_c, 1, 11, 91
7, 371745, Control_c, 1, 11, 92
7, 371790, Control_c, 1, 11, 93
7, 371835, Control_c, 1, 11, 94
7, 371880, Control_c, 1, 11, 95
7, 371925, Control_c, 1, 11, 96
7, 371970, Control_c, 1, 11, 97
7, 372015, Control_c, 1, 11, 98
7, 372060, Control_c, 1, 11, 99
7, 372099, Note_on_c, 1, 81, 0
7, 372105, Control_c, 1, 11, 100
7, 372120, Note_on_c, 1, 81, 92
7, 372150, Control_c, 1, 11, 101
7, 372195, Control_c, 1, 11, 102
7, 372240, Control_c, 1, 11, 103
7, 372285, Control_c, 1, 11, 104
7, 372330, Control_c, 1, 11, 105
7, 372339, Note_on_c, 1, 81, 0
7, 372360, Note_on_c, 1, 81, 92
7, 372375, Control_c, 1, 11, 106
7, 372420, Control_c, 1, 11, 107
7, 372465, Control_c, 1, 11, 108
7, 372510, Control_c, 1, 11, 109
7, 372555, Control_c, 1, 11, 110
7, 372579, Note_on_c, 1, 81, 0
7, 372600, Note_on_c, 1, 74, 92
7, 372600, Note_on_c, 1, 78, 92
7, 372600, Control_c, 1, 11, 111
7, 372645, Control_c, 1, 11, 112
7, 372690, Control_c, 1, 11, 113
7, 372735, Control_c, 1, 11, 114
7, 372780, Control_c, 1, 11, 115
7, 372825, Control_c, 1, 11, 116
7, 372870, Control_c, 1, 11, 117
7, 372915, Control_c, 1, 11, 118
7, 372960, Control_c, 1, 11, 119
7, 373005, Control_c, 1, 11, 120
7, 373050, Control_c, 1, 11, 121
7, 373059, Note_on_c, 1, 74, 0
7, 373059, Note_on_c, 1, 78, 0
7, 373080, Note_on_c, 1, 76, 92
7, 373080, Note_on_c, 1, 79, 92
7, 373095, Control_c, 1, 11, 122
7, 373140, Control_c, 1, 11, 123
7, 373185, Control_c, 1, 11, 124
7, 373230, Control_c, 1, 11, 125
7, 373275, Control_c, 1, 11, 127
7, 373299, Note_on_c, 1, 76, 0
7, 373299, Note_on_c, 1, 79, 0
7, 373320, Note_on_c, 1, 81, 92
7, 373320, Note_on_c, 1, 78, 92
7, 373499, Note_on_c, 1, 81, 0
7, 373499, Note_on_c, 1, 78, 0
7, 373560, Note_on_c, 1, 81, 92
7, 373560, Note_on_c, 1, 78, 92
7, 373739, Note_on_c, 1, 81, 0
7, 373739, Note_on_c, 1, 78, 0
7, 373800, Note_on_c, 1, 81, 92
7, 373800, Note_on_c, 1, 76, 92
7, 373979, Note_on_c, 1, 81, 0
7, 373979, Note_on_c, 1, 76, 0
7, 374040, Note_on_c, 1, 81, 92
7, 374040, Note_on_c, 1, 76, 92
7, 374219, Note_on_c, 1, 81, 0
7, 374219, Note_on_c, 1, 76, 0
7, 374280, Note_on_c, 1, 81, 92
7, 374280, Control_c, 1, 11, 127
7, 374280, Note_on_c, 1, 78, 92
7, 374342, Control_c, 1, 11, 126
7, 374405, Control_c, 1, 11, 125
7, 374459, Note_on_c, 1, 81, 0
7, 374459, Note_on_c, 1, 78, 0
7, 374467, Control_c, 1, 11, 124
7, 374520, Note_on_c, 1, 81, 92
7, 374520, Note_on_c, 1, 78, 92
7, 374530, Control_c, 1, 11, 123
7, 374592, Control_c, 1, 11, 122
7, 374654, Control_c, 1, 11, 121
7, 374699, Note_on_c, 1, 81, 0
7, 374699, Note_on_c, 1, 78, 0
7, 374717, Control_c, 1, 11, 120
7, 374760, Note_on_c, 1, 76, 92
7, 374760, Note_on_c, 1, 81, 92
7, 374779, Control_c, 1, 11, 119
7, 374842, Control_c, 1, 11, 118
7, 374904, Control_c, 1, 11, 117
7, 374939, Note_on_c, 1, 76, 0
7, 374939, Note_on_c, 1, 81, 0
7, 374966, Control_c, 1, 11, 116
7, 375000, Note_on_c, 1, 76, 92
7, 375000, Note_on_c, 1, 81, 92
7, 375029, Control_c, 1, 11, 115
7, 375091, Control_c, 1, 11, 114
7, 375154, Control_c, 1, 11, 113
7, 375179, Note_on_c, 1, 76, 0
7, 375179, Note_on_c, 1, 81, 0
7, 375216, Control_c, 1, 11, 112
7, 375240, Note_on_c, 1, 78, 92
7, 375240, Note_on_c, 1, 81, 92
7, 375278, Control_c, 1, 11, 111
7, 375341, Control_c, 1, 11, 110
7, 375403, Control_c, 1, 11, 109
7, 375419, Note_on_c, 1, 78, 0
7, 375419, Note_on_c, 1, 81, 0
7, 375466, Control_c, 1, 11, 108
7, 375480, Note_on_c, 1, 81, 92
7, 375480, Note_on_c, 1, 78, 92
7, 375528, Control_c, 1, 11, 107
7, 375590, Control_c, 1, 11, 106
7, 375653, Control_c, 1, 11, 105
7, 375659, Note_on_c, 1, 81, 0
7, 375659, Note_on_c, 1, 78, 0
7, 375715, Control_c, 1, 11, 104
7, 375720, Note_on_c, 1, 81, 92
7, 375720, Note_on_c, 1, 76, 92
7, 375778, Control_c, 1, 11, 103
7, 375840, Control_c, 1, 11, 102
7, 375899, Note_on_c, 1, 81, 0
7, 375899, Note_on_c, 1, 76, 0
7, 375902, Control_c, 1, 11, 101
7, 375960, Note_on_c, 1, 76, 92
7, 375960, Note_on_c, 1, 81, 92
7, 375965, Control_c, 1, 11, 100
7, 376027, Control_c, 1, 11, 99
7, 376090, Control_c, 1, 11, 98
7, 376139, Note_on_c, 1, 76, 0
7, 376139, Note_on_c, 1, 81, 0
7, 376152, Control_c, 1, 11, 97
7, 376200, Note_on_c, 1, 81, 92
7, 376200, Note_on_c, 1, 78, 92
7, 376214, Control_c, 1, 11, 96
7, 376277, Control_c, 1, 11, 95
7, 376339, Control_c, 1, 11, 94
7, 376379, Note_on_c, 1, 81, 0
7, 376379, Note_on_c, 1, 78, 0
7, 376402, Control_c, 1, 11, 93
7, 376440, Note_on_c, 1, 78, 92
7, 376440, Note_on_c, 1, 81, 92
7, 376464, Control_c, 1, 11, 92
7, 376526, Control_c, 1, 11, 91
7, 376589, Control_c, 1, 11, 90
7, 376619, Note_on_c, 1, 78, 0
7, 376619, Note_on_c, 1, 81, 0
7, 376651, Control_c, 1, 11, 89
7, 376680, Note_on_c, 1, 81, 92
7, 376680, Note_on_c, 1, 76, 92
7, 376714, Control_c, 1, 11, 88
7, 376776, Control_c, 1, 11, 87
7, 376838, Control_c, 1, 11, 86
7, 376859, Note_on_c, 1, 81, 0
7, 376859, Note_on_c, 1, 76, 0
7, 376901, Control_c, 1, 11, 85
7, 376920, Note_on_c, 1, 76, 92
7, 376920, Note_on_c, 1, 81, 92
7, 376963, Control_c, 1, 11, 84
7, 377026, Control_c, 1, 11, 83
7, 377088, Control_c, 1, 11, 82
7, 377099, Note_on_c, 1, 76, 0
7, 377099, Note_on_c, 1, 81, 0
7, 377150, Control_c, 1, 11, 81
7, 377160, Note_on_c, 1, 78, 92
7, 377160, Note_on_c, 1, 81, 92
7, 377213, Control_c, 1, 11, 80
7, 377275, Control_c, 1, 11, 79
7, 377338, Control_c, 1, 11, 78
7, 377399, Note_on_c, 1, 78, 0
7, 377399, Note_on_c, 1, 81, 0
7, 377400, Note_on_c, 1, 79, 92
7, 377400, Control_c, 1, 11, 77
7, 377400, Note_on_c, 1, 83, 92
7, 377462, Control_c, 1, 11, 76
7, 377525, Control_c, 1, 11, 75
7, 377587, Control_c, 1, 11, 74
7, 377650, Control_c, 1, 11, 73
7, 377712, Control_c, 1, 11, 72
7, 377774, Control_c, 1, 11, 71
7, 377837, Control_c, 1, 11, 70
7, 377899, Control_c, 1, 11, 69
7, 377962, Control_c, 1, 11, 68
7, 378024, Control_c, 1, 11, 67
7, 378086, Control_c, 1, 11, 66
7, 378099, Note_on_c, 1, 79, 0
7, 378099, Note_on_c, 1, 83, 0
7, 378120, Note_on_c, 1, 81, 92
7, 378120, Note_on_c, 1, 78, 92
7, 378149, Control_c, 1, 11, 65
7, 378211, Control_c, 1, 11, 64
7, 378274, Control_c, 1, 11, 63
7, 378336, Control_c, 1, 11, 62
7, 378359, Note_on_c, 1, 81, 0
7, 378359, Note_on_c, 1, 78, 0
7, 378360, Note_on_c, 1, 83, 92
7, 378360, Note_on_c, 1, 79, 92
7, 378398, Control_c, 1, 11, 61
7, 378461, Control_c, 1, 11, 60
7, 378523, Control_c, 1, 11, 59
7, 378586, Control_c, 1, 11, 58
7, 378648, Control_c, 1, 11, 57
7, 378710, Control_c, 1, 11, 56
7, 378773, Control_c, 1, 11, 55
7, 378835, Control_c, 1, 11, 54
7, 378898, Control_c, 1, 11, 53
7, 378960, Control_c, 1, 11, 52
7, 379022, Control_c, 1, 11, 51
7, 379059, Note_on_c, 1, 83, 0
7, 379059, Note_on_c, 1, 79, 0
7, 379080, Note_on_c, 1, 81, 92
7, 379080, Note_on_c, 1, 78, 92
7, 379085, Control_c, 1, 11, 50
7, 379147, Control_c, 1, 11, 49
7, 379210, Control_c, 1, 11, 48
7, 379272, Control_c, 1, 11, 47
7, 379319, Note_on_c, 1, 81, 0
7, 379319, Note_on_c, 1, 78, 0
7, 379320, Note_on_c, 1, 83, 92
7, 379320, Note_on_c, 1, 79, 92
7, 379334, Control_c, 1, 11, 46
7, 379397, Control_c, 1, 11, 45
7, 379459, Control_c, 1, 11, 44
7, 379522, Control_c, 1, 11, 43
7, 379584, Control_c, 1, 11, 42
7, 379646, Control_c, 1, 11, 41
7, 379709, Control_c, 1, 11, 40
7, 379771, Control_c, 1, 11, 39
7, 379834, Control_c, 1, 11, 38
7, 379896, Control_c, 1, 11, 37
7, 379958, Control_c, 1, 11, 36
7, 380021, Control_c, 1, 11, 35
7, 380083, Control_c, 1, 11, 34
7, 380146, Control_c, 1, 11, 33
7, 380208, Control_c, 1, 11, 32
7, 380270, Control_c, 1, 11, 31
7, 380333, Control_c, 1, 11, 30
7, 380395, Control_c, 1, 11, 29
7, 380458, Control_c, 1, 11, 28
7, 380499, Note_on_c, 1, 83, 0
7, 380499, Note_on_c, 1, 79, 0
7, 380520, Note_on_c, 1, 82, 92
7, 380520, Note_on_c, 1, 79, 92
7, 381209, Note_on_c, 1, 82, 0
7, 381209, Note_on_c, 1, 79, 0
7, 381600, Control_c, 1, 11, 127
7, 383040, Note_on_c, 1, 74, 92
7, 383040, Note_on_c, 1, 86, 92
7, 383204, Note_on_c, 1, 74, 0
7, 383204, Note_on_c, 1, 86, 0
7, 383220, Note_on_c, 1, 74, 92
7, 383220, Note_on_c, 1, 62, 92
7, 383264, Note_on_c, 1, 74, 0
7, 383264, Note_on_c, 1, 62, 0
7, 383280, Note_on_c, 1, 74, 92
7, 383280, Note_on_c, 1, 62, 92
7, 383399, Note_on_c, 1, 74, 0
7, 383399, Note_on_c, 1, 62, 0
7, 384120, Note_on_c, 1, 81, 44
7, 384239, Note_on_c, 1, 81, 0
7, 384480, Note_on_c, 1, 74, 44
7, 384599, Note_on_c, 1, 74, 0
7, 384840, Note_on_c, 1, 76, 44
7, 384959, Note_on_c, 1, 76, 0
7, 385200, Note_on_c, 1, 77, 44
7, 385319, Note_on_c, 1, 77, 0
7, 385560, Note_on_c, 1, 77, 32
7, 385679, Note_on_c, 1, 77, 0
7, 385920, Note_on_c, 1, 72, 32
7, 386039, Note_on_c, 1, 72, 0
7, 386280, Note_on_c, 1, 68, 32
7, 386399, Note_on_c, 1, 68, 0
7, 386640, Note_on_c, 1, 69, 32
7, 386759, Note_on_c, 1, 69, 0
7, 387000, Note_on_c, 1, 67, 32
7, 387119, Note_on_c, 1, 67, 0
7, 387360, Note_on_c, 1, 62, 32
7, 387479, Note_on_c, 1, 62, 0
7, 387720, Note_on_c, 1, 69, 32
7, 387839, Note_on_c, 1, 69, 0
7, 388080, Note_on_c, 1, 69, 32
7, 388199, Note_on_c, 1, 69, 0
7, 388440, Note_on_c, 1, 74, 32
7, 388559, Note_on_c, 1, 74, 0
7, 388800, Note_on_c, 1, 76, 32
7, 388919, Note_on_c, 1, 76, 0
7, 389160, Note_on_c, 1, 76, 32
7, 389279, Note_on_c, 1, 76, 0
7, 389520, Note_on_c, 1, 76, 32
7, 389639, Note_on_c, 1, 76, 0
7, 389880, Note_on_c, 1, 79, 32
7, 389999, Note_on_c, 1, 79, 0
7, 390240, Note_on_c, 1, 77, 32
7, 390359, Note_on_c, 1, 77, 0
7, 390600, Note_on_c, 1, 81, 32
7, 390719, Note_on_c, 1, 81, 0
7, 390960, Note_on_c, 1, 81, 32
7, 391079, Note_on_c, 1, 81, 0
7, 391320, Note_on_c, 1, 81, 32
7, 391439, Note_on_c, 1, 81, 0
7, 391680, Note_on_c, 1, 81, 32
7, 391799, Note_on_c, 1, 81, 0
7, 392040, Note_on_c, 1, 83, 32
7, 392159, Note_on_c, 1, 83, 0
7, 392400, Note_on_c, 1, 76, 32
7, 392519, Note_on_c, 1, 76, 0
7, 392760, Note_on_c, 1, 81, 32
7, 392849, Note_on_c, 1, 81, 0
7, 392880, Note_on_c, 1, 81, 32
7, 392969, Note_on_c, 1, 81, 0
7, 393000, Note_on_c, 1, 81, 32
7, 393089, Note_on_c, 1, 81, 0
7, 393120, Note_on_c, 1, 81, 32
7, 393209, Note_on_c, 1, 81, 0
7, 393240, Note_on_c, 1, 81, 32
7, 393329, Note_on_c, 1, 81, 0
7, 393360, Note_on_c, 1, 81, 32
7, 393449, Note_on_c, 1, 81, 0
7, 393480, Note_on_c, 1, 82, 32
7, 393569, Note_on_c, 1, 82, 0
7, 393600, Note_on_c, 1, 81, 32
7, 393689, Note_on_c, 1, 81, 0
7, 393720, Note_on_c, 1, 79, 32
7, 393809, Note_on_c, 1, 79, 0
7, 393840, Note_on_c, 1, 77, 32
7, 393929, Note_on_c, 1, 77, 0
7, 393960, Note_on_c, 1, 76, 32
7, 394049, Note_on_c, 1, 76, 0
7, 394080, Note_on_c, 1, 74, 32
7, 394169, Note_on_c, 1, 74, 0
7, 394200, Note_on_c, 1, 77, 32
7, 394200, Note_on_c, 1, 74, 32
7, 394319, Note_on_c, 1, 77, 0
7, 394319, Note_on_c, 1, 74, 0
7, 394560, Note_on_c, 1, 69, 32
7, 394560, Note_on_c, 1, 72, 32
7, 394679, Note_on_c, 1, 69, 0
7, 394679, Note_on_c, 1, 72, 0
7, 394920, Note_on_c, 1, 74, 32
7, 394920, Note_on_c, 1, 71, 32
7, 395039, Note_on_c, 1, 74, 0
7, 395039, Note_on_c, 1, 71, 0
7, 395280, Note_on_c, 1, 72, 32
7, 395280, Note_on_c, 1, 76, 32
7, 395399, Note_on_c, 1, 72, 0
7, 395399, Note_on_c, 1, 76, 0
7, 395640, Note_on_c, 1, 73, 32
7, 395729, Note_on_c, 1, 73, 0
7, 395760, Note_on_c, 1, 74, 32
7, 395849, Note_on_c, 1, 74, 0
7, 395880, Note_on_c, 1, 76, 32
7, 395969, Note_on_c, 1, 76, 0
7, 396000, Note_on_c, 1, 77, 32
7, 396089, Note_on_c, 1, 77, 0
7, 396120, Note_on_c, 1, 79, 32
7, 396209, Note_on_c, 1, 79, 0
7, 396240, Note_on_c, 1, 81, 32
7, 396329, Note_on_c, 1, 81, 0
7, 396360, Note_on_c, 1, 82, 32
7, 396449, Note_on_c, 1, 82, 0
7, 396480, Note_on_c, 1, 81, 32
7, 396569, Note_on_c, 1, 81, 0
7, 396600, Note_on_c, 1, 79, 32
7, 396689, Note_on_c, 1, 79, 0
7, 396720, Note_on_c, 1, 77, 32
7, 396809, Note_on_c, 1, 77, 0
7, 396840, Note_on_c, 1, 76, 32
7, 396929, Note_on_c, 1, 76, 0
7, 396960, Note_on_c, 1, 74, 32
7, 397049, Note_on_c, 1, 74, 0
7, 397080, Note_on_c, 1, 73, 32
7, 397169, Note_on_c, 1, 73, 0
7, 397200, Note_on_c, 1, 74, 33
7, 397289, Note_on_c, 1, 74, 0
7, 397320, Note_on_c, 1, 76, 35
7, 397409, Note_on_c, 1, 76, 0
7, 397440, Note_on_c, 1, 74, 37
7, 397529, Note_on_c, 1, 74, 0
7, 397560, Note_on_c, 1, 73, 38
7, 397649, Note_on_c, 1, 73, 0
7, 397680, Note_on_c, 1, 74, 40
7, 397769, Note_on_c, 1, 74, 0
7, 397800, Note_on_c, 1, 73, 42
7, 397889, Note_on_c, 1, 73, 0
7, 397920, Note_on_c, 1, 74, 43
7, 398009, Note_on_c, 1, 74, 0
7, 398040, Note_on_c, 1, 76, 45
7, 398129, Note_on_c, 1, 76, 0
7, 398160, Note_on_c, 1, 74, 47
7, 398249, Note_on_c, 1, 74, 0
7, 398280, Note_on_c, 1, 73, 48
7, 398369, Note_on_c, 1, 73, 0
7, 398400, Note_on_c, 1, 74, 50
7, 398489, Note_on_c, 1, 74, 0
7, 398520, Note_on_c, 1, 73, 52
7, 398609, Note_on_c, 1, 73, 0
7, 398640, Note_on_c, 1, 74, 53
7, 398729, Note_on_c, 1, 74, 0
7, 398760, Note_on_c, 1, 76, 55
7, 398849, Note_on_c, 1, 76, 0
7, 398880, Note_on_c, 1, 74, 57
7, 398969, Note_on_c, 1, 74, 0
7, 399000, Note_on_c, 1, 73, 58
7, 399089, Note_on_c, 1, 73, 0
7, 399120, Note_on_c, 1, 74, 60
7, 399209, Note_on_c, 1, 74, 0
7, 399240, Note_on_c, 1, 73, 62
7, 399240, Note_on_c, 1, 76, 62
7, 399329, Note_on_c, 1, 73, 0
7, 399329, Note_on_c, 1, 76, 0
7, 399360, Note_on_c, 1, 77, 63
7, 399360, Note_on_c, 1, 74, 63
7, 399449, Note_on_c, 1, 77, 0
7, 399449, Note_on_c, 1, 74, 0
7, 399480, Note_on_c, 1, 79, 65
7, 399480, Note_on_c, 1, 76, 65
7, 399569, Note_on_c, 1, 79, 0
7, 399569, Note_on_c, 1, 76, 0
7, 399600, Note_on_c, 1, 74, 67
7, 399600, Note_on_c, 1, 77, 67
7, 399689, Note_on_c, 1, 74, 0
7, 399689, Note_on_c, 1, 77, 0
7, 399720, Note_on_c, 1, 73, 68
7, 399720, Note_on_c, 1, 76, 68
7, 399809, Note_on_c, 1, 73, 0
7, 399809, Note_on_c, 1, 76, 0
7, 399840, Note_on_c, 1, 77, 70
7, 399840, Note_on_c, 1, 74, 70
7, 399929, Note_on_c, 1, 77, 0
7, 399929, Note_on_c, 1, 74, 0
7, 399960, Note_on_c, 1, 76, 72
7, 399960, Note_on_c, 1, 73, 72
7, 400049, Note_on_c, 1, 76, 0
7, 400049, Note_on_c, 1, 73, 0
7, 400080, Note_on_c, 1, 74, 73
7, 400080, Note_on_c, 1, 77, 73
7, 400169, Note_on_c, 1, 74, 0
7, 400169, Note_on_c, 1, 77, 0
7, 400200, Note_on_c, 1, 76, 75
7, 400200, Note_on_c, 1, 79, 75
7, 400289, Note_on_c, 1, 76, 0
7, 400289, Note_on_c, 1, 79, 0
7, 400320, Note_on_c, 1, 74, 77
7, 400320, Note_on_c, 1, 77, 77
7, 400409, Note_on_c, 1, 74, 0
7, 400409, Note_on_c, 1, 77, 0
7, 400440, Note_on_c, 1, 76, 78
7, 400440, Note_on_c, 1, 73, 78
7, 400529, Note_on_c, 1, 76, 0
7, 400529, Note_on_c, 1, 73, 0
7, 400560, Note_on_c, 1, 77, 80
7, 400560, Note_on_c, 1, 74, 80
7, 400649, Note_on_c, 1, 77, 0
7, 400649, Note_on_c, 1, 74, 0
7, 400680, Note_on_c, 1, 73, 82
7, 400680, Note_on_c, 1, 76, 82
7, 400769, Note_on_c, 1, 73, 0
7, 400769, Note_on_c, 1, 76, 0
7, 400800, Note_on_c, 1, 77, 83
7, 400800, Note_on_c, 1, 74, 83
7, 400889, Note_on_c, 1, 77, 0
7, 400889, Note_on_c, 1, 74, 0
7, 400920, Note_on_c, 1, 79, 85
7, 400920, Note_on_c, 1, 76, 85
7, 401009, Note_on_c, 1, 79, 0
7, 401009, Note_on_c, 1, 76, 0
7, 401040, Note_on_c, 1, 76, 87
7, 401040, Note_on_c, 1, 73, 87
7, 401129, Note_on_c, 1, 76, 0
7, 401129, Note_on_c, 1, 73, 0
7, 401160, Note_on_c, 1, 77, 88
7, 401160, Note_on_c, 1, 74, 88
7, 401249, Note_on_c, 1, 77, 0
7, 401249, Note_on_c, 1, 74, 0
7, 401280, Note_on_c, 1, 76, 90
7, 401280, Note_on_c, 1, 79, 90
7, 401369, Note_on_c, 1, 76, 0
7, 401369, Note_on_c, 1, 79, 0
7, 401400, Note_on_c, 1, 77, 92
7, 401400, Note_on_c, 1, 81, 92
7, 401564, Note_on_c, 1, 77, 0
7, 401564, Note_on_c, 1, 81, 0
7, 401580, Note_on_c, 1, 69, 92
7, 401624, Note_on_c, 1, 69, 0
7, 401640, Note_on_c, 1, 69, 92
7, 401744, Note_on_c, 1, 69, 0
7, 401760, Note_on_c, 1, 74, 92
7, 401760, Note_on_c, 1, 81, 92
7, 401864, Note_on_c, 1, 74, 0
7, 401864, Note_on_c, 1, 81, 0
7, 401880, Note_on_c, 1, 76, 92
7, 401880, Note_on_c, 1, 81, 92
7, 401984, Note_on_c, 1, 76, 0
7, 401984, Note_on_c, 1, 81, 0
7, 402000, Note_on_c, 1, 77, 92
7, 402000, Note_on_c, 1, 81, 92
7, 402104, Note_on_c, 1, 77, 0
7, 402104, Note_on_c, 1, 81, 0
7, 402120, Note_on_c, 1, 76, 92
7, 402120, Note_on_c, 1, 81, 92
7, 402224, Note_on_c, 1, 76, 0
7, 402224, Note_on_c, 1, 81, 0
7, 402240, Note_on_c, 1, 77, 92
7, 402240, Note_on_c, 1, 81, 92
7, 402344, Note_on_c, 1, 77, 0
7, 402344, Note_on_c, 1, 81, 0
7, 402360, Note_on_c, 1, 79, 92
7, 402360, Note_on_c, 1, 81, 92
7, 402464, Note_on_c, 1, 79, 0
7, 402464, Note_on_c, 1, 81, 0
7, 402480, Note_on_c, 1, 81, 92
7, 402480, Note_on_c, 1, 77, 92
7, 402584, Note_on_c, 1, 81, 0
7, 402584, Note_on_c, 1, 77, 0
7, 402600, Note_on_c, 1, 81, 92
7, 402600, Note_on_c, 1, 76, 92
7, 402704, Note_on_c, 1, 81, 0
7, 402704, Note_on_c, 1, 76, 0
7, 402720, Note_on_c, 1, 74, 92
7, 402720, Note_on_c, 1, 81, 92
7, 402824, Note_on_c, 1, 74, 0
7, 402824, Note_on_c, 1, 81, 0
7, 402840, Note_on_c, 1, 82, 80
7, 402840, Note_on_c, 1, 74, 80
7, 402944, Note_on_c, 1, 82, 0
7, 402944, Note_on_c, 1, 74, 0
7, 402960, Note_on_c, 1, 74, 80
7, 402960, Note_on_c, 1, 81, 80
7, 403064, Note_on_c, 1, 74, 0
7, 403064, Note_on_c, 1, 81, 0
7, 403080, Note_on_c, 1, 79, 80
7, 403080, Note_on_c, 1, 74, 80
7, 403184, Note_on_c, 1, 79, 0
7, 403184, Note_on_c, 1, 74, 0
7, 403200, Note_on_c, 1, 77, 80
7, 403200, Note_on_c, 1, 69, 80
7, 403304, Note_on_c, 1, 77, 0
7, 403304, Note_on_c, 1, 69, 0
7, 403320, Note_on_c, 1, 76, 80
7, 403320, Note_on_c, 1, 81, 80
7, 403424, Note_on_c, 1, 76, 0
7, 403424, Note_on_c, 1, 81, 0
7, 403440, Note_on_c, 1, 74, 80
7, 403440, Note_on_c, 1, 81, 80
7, 403544, Note_on_c, 1, 74, 0
7, 403544, Note_on_c, 1, 81, 0
7, 403560, Note_on_c, 1, 81, 80
7, 403560, Note_on_c, 1, 73, 80
7, 403664, Note_on_c, 1, 81, 0
7, 403664, Note_on_c, 1, 73, 0
7, 403680, Note_on_c, 1, 74, 80
7, 403680, Note_on_c, 1, 81, 80
7, 403784, Note_on_c, 1, 74, 0
7, 403784, Note_on_c, 1, 81, 0
7, 403800, Note_on_c, 1, 76, 80
7, 403800, Note_on_c, 1, 81, 80
7, 403904, Note_on_c, 1, 76, 0
7, 403904, Note_on_c, 1, 81, 0
7, 403920, Note_on_c, 1, 74, 80
7, 403920, Note_on_c, 1, 81, 80
7, 404024, Note_on_c, 1, 74, 0
7, 404024, Note_on_c, 1, 81, 0
7, 404040, Note_on_c, 1, 73, 80
7, 404040, Note_on_c, 1, 81, 80
7, 404144, Note_on_c, 1, 73, 0
7, 404144, Note_on_c, 1, 81, 0
7, 404160, Note_on_c, 1, 74, 80
7, 404160, Note_on_c, 1, 81, 80
7, 404264, Note_on_c, 1, 74, 0
7, 404264, Note_on_c, 1, 81, 0
7, 404280, Note_on_c, 1, 82, 80
7, 404280, Note_on_c, 1, 74, 80
7, 404384, Note_on_c, 1, 82, 0
7, 404384, Note_on_c, 1, 74, 0
7, 404400, Note_on_c, 1, 81, 80
7, 404400, Note_on_c, 1, 74, 80
7, 404504, Note_on_c, 1, 81, 0
7, 404504, Note_on_c, 1, 74, 0
7, 404520, Note_on_c, 1, 74, 80
7, 404520, Note_on_c, 1, 79, 80
7, 404624, Note_on_c, 1, 74, 0
7, 404624, Note_on_c, 1, 79, 0
7, 404640, Note_on_c, 1, 77, 80
7, 404640, Note_on_c, 1, 69, 80
7, 404744, Note_on_c, 1, 77, 0
7, 404744, Note_on_c, 1, 69, 0
7, 404760, Note_on_c, 1, 69, 80
7, 404760, Note_on_c, 1, 76, 80
7, 404864, Note_on_c, 1, 69, 0
7, 404864, Note_on_c, 1, 76, 0
7, 404880, Note_on_c, 1, 69, 80
7, 404880, Note_on_c, 1, 74, 80
7, 404984, Note_on_c, 1, 69, 0
7, 404984, Note_on_c, 1, 74, 0
7, 405000, Note_on_c, 1, 73, 80
7, 405000, Note_on_c, 1, 81, 80
7, 405104, Note_on_c, 1, 73, 0
7, 405104, Note_on_c, 1, 81, 0
7, 405120, Note_on_c, 1, 74, 80
7, 405120, Note_on_c, 1, 81, 80
7, 405224, Note_on_c, 1, 74, 0
7, 405224, Note_on_c, 1, 81, 0
7, 405240, Note_on_c, 1, 76, 80
7, 405240, Note_on_c, 1, 81, 80
7, 405344, Note_on_c, 1, 76, 0
7, 405344, Note_on_c, 1, 81, 0
7, 405360, Note_on_c, 1, 69, 80
7, 405360, Note_on_c, 1, 81, 80
7, 405464, Note_on_c, 1, 69, 0
7, 405464, Note_on_c, 1, 81, 0
7, 405480, Note_on_c, 1, 81, 80
7, 405480, Note_on_c, 1, 77, 80
7, 405584, Note_on_c, 1, 81, 0
7, 405584, Note_on_c, 1, 77, 0
7, 405600, Note_on_c, 1, 77, 80
7, 405600, Note_on_c, 1, 83, 80
7, 405704, Note_on_c, 1, 77, 0
7, 405704, Note_on_c, 1, 83, 0
7, 405720, Note_on_c, 1, 83, 80
7, 405720, Note_on_c, 1, 77, 80
7, 405824, Note_on_c, 1, 83, 0
7, 405824, Note_on_c, 1, 77, 0
7, 405840, Note_on_c, 1, 71, 80
7, 405840, Note_on_c, 1, 77, 80
7, 405944, Note_on_c, 1, 71, 0
7, 405944, Note_on_c, 1, 77, 0
7, 405960, Note_on_c, 1, 77, 80
7, 405960, Note_on_c, 1, 74, 80
7, 406064, Note_on_c, 1, 77, 0
7, 406064, Note_on_c, 1, 74, 0
7, 406080, Note_on_c, 1, 67, 80
7, 406080, Note_on_c, 1, 76, 80
7, 406184, Note_on_c, 1, 67, 0
7, 406184, Note_on_c, 1, 76, 0
7, 406200, Note_on_c, 1, 74, 80
7, 406200, Note_on_c, 1, 79, 80
7, 406304, Note_on_c, 1, 74, 0
7, 406304, Note_on_c, 1, 79, 0
7, 406320, Note_on_c, 1, 72, 80
7, 406320, Note_on_c, 1, 79, 80
7, 406424, Note_on_c, 1, 72, 0
7, 406424, Note_on_c, 1, 79, 0
7, 406440, Note_on_c, 1, 79, 80
7, 406440, Note_on_c, 1, 71, 80
7, 406544, Note_on_c, 1, 79, 0
7, 406544, Note_on_c, 1, 71, 0
7, 406560, Note_on_c, 1, 79, 80
7, 406560, Note_on_c, 1, 72, 80
7, 406664, Note_on_c, 1, 79, 0
7, 406664, Note_on_c, 1, 72, 0
7, 406680, Note_on_c, 1, 79, 80
7, 406680, Note_on_c, 1, 74, 80
7, 406784, Note_on_c, 1, 79, 0
7, 406784, Note_on_c, 1, 74, 0
7, 406800, Note_on_c, 1, 72, 80
7, 406800, Note_on_c, 1, 79, 80
7, 406904, Note_on_c, 1, 72, 0
7, 406904, Note_on_c, 1, 79, 0
7, 406920, Note_on_c, 1, 71, 80
7, 406920, Note_on_c, 1, 81, 80
7, 407024, Note_on_c, 1, 71, 0
7, 407024, Note_on_c, 1, 81, 0
7, 407040, Note_on_c, 1, 81, 80
7, 407040, Note_on_c, 1, 71, 80
7, 407144, Note_on_c, 1, 81, 0
7, 407144, Note_on_c, 1, 71, 0
7, 407160, Note_on_c, 1, 71, 80
7, 407160, Note_on_c, 1, 81, 80
7, 407264, Note_on_c, 1, 71, 0
7, 407264, Note_on_c, 1, 81, 0
7, 407280, Note_on_c, 1, 71, 80
7, 407280, Note_on_c, 1, 79, 80
7, 407384, Note_on_c, 1, 71, 0
7, 407384, Note_on_c, 1, 79, 0
7, 407400, Note_on_c, 1, 77, 80
7, 407400, Note_on_c, 1, 74, 80
7, 407504, Note_on_c, 1, 77, 0
7, 407504, Note_on_c, 1, 74, 0
7, 407520, Note_on_c, 1, 76, 80
7, 407520, Note_on_c, 1, 72, 80
7, 407624, Note_on_c, 1, 76, 0
7, 407624, Note_on_c, 1, 72, 0
7, 407640, Note_on_c, 1, 79, 80
7, 407640, Note_on_c, 1, 71, 80
7, 407744, Note_on_c, 1, 79, 0
7, 407744, Note_on_c, 1, 71, 0
7, 407760, Note_on_c, 1, 79, 80
7, 407760, Note_on_c, 1, 72, 80
7, 407864, Note_on_c, 1, 79, 0
7, 407864, Note_on_c, 1, 72, 0
7, 407880, Note_on_c, 1, 79, 80
7, 407880, Note_on_c, 1, 76, 80
7, 407984, Note_on_c, 1, 79, 0
7, 407984, Note_on_c, 1, 76, 0
7, 408000, Note_on_c, 1, 74, 80
7, 408000, Note_on_c, 1, 79, 80
7, 408104, Note_on_c, 1, 74, 0
7, 408104, Note_on_c, 1, 79, 0
7, 408120, Note_on_c, 1, 79, 80
7, 408120, Note_on_c, 1, 72, 80
7, 408224, Note_on_c, 1, 79, 0
7, 408224, Note_on_c, 1, 72, 0
7, 408240, Note_on_c, 1, 79, 80
7, 408240, Note_on_c, 1, 76, 80
7, 408344, Note_on_c, 1, 79, 0
7, 408344, Note_on_c, 1, 76, 0
7, 408360, Note_on_c, 1, 74, 80
7, 408360, Note_on_c, 1, 79, 80
7, 408464, Note_on_c, 1, 74, 0
7, 408464, Note_on_c, 1, 79, 0
7, 408480, Note_on_c, 1, 72, 80
7, 408480, Note_on_c, 1, 79, 80
7, 408584, Note_on_c, 1, 72, 0
7, 408584, Note_on_c, 1, 79, 0
7, 408600, Note_on_c, 1, 79, 80
7, 408660, Control_c, 1, 11, 67
7, 408960, Control_c, 1, 11, 67
7, 408999, Control_c, 1, 11, 68
7, 409038, Control_c, 1, 11, 69
7, 409077, Control_c, 1, 11, 70
7, 409116, Control_c, 1, 11, 71
7, 409155, Control_c, 1, 11, 72
7, 409194, Control_c, 1, 11, 73
7, 409233, Control_c, 1, 11, 74
7, 409272, Control_c, 1, 11, 75
7, 409311, Control_c, 1, 11, 76
7, 409320, Note_on_c, 1, 81, 80
7, 409350, Control_c, 1, 11, 77
7, 409389, Control_c, 1, 11, 78
7, 409428, Control_c, 1, 11, 79
7, 409467, Control_c, 1, 11, 80
7, 409506, Control_c, 1, 11, 81
7, 409545, Control_c, 1, 11, 82
7, 409584, Control_c, 1, 11, 83
7, 409623, Control_c, 1, 11, 84
7, 409662, Control_c, 1, 11, 85
7, 409679, Note_on_c, 1, 79, 0
7, 409680, Note_on_c, 1, 77, 80
7, 409701, Control_c, 1, 11, 86
7, 409740, Control_c, 1, 11, 87
7, 409779, Control_c, 1, 11, 88
7, 409818, Control_c, 1, 11, 89
7, 409857, Control_c, 1, 11, 90
7, 409896, Control_c, 1, 11, 91
7, 409935, Control_c, 1, 11, 92
7, 409974, Control_c, 1, 11, 93
7, 410013, Control_c, 1, 11, 94
7, 410039, Note_on_c, 1, 81, 0
7, 410040, Note_on_c, 1, 80, 80
7, 410052, Control_c, 1, 11, 95
7, 410091, Control_c, 1, 11, 96
7, 410130, Control_c, 1, 11, 97
7, 410169, Control_c, 1, 11, 98
7, 410208, Control_c, 1, 11, 99
7, 410247, Control_c, 1, 11, 100
7, 410286, Control_c, 1, 11, 101
7, 410325, Control_c, 1, 11, 102
7, 410364, Control_c, 1, 11, 103
7, 410399, Note_on_c, 1, 77, 0
7, 410399, Note_on_c, 1, 80, 0
7, 410400, Note_on_c, 1, 76, 80
7, 410400, Note_on_c, 1, 79, 80
7, 410403, Control_c, 1, 11, 104
7, 410442, Control_c, 1, 11, 105
7, 410481, Control_c, 1, 11, 106
7, 410520, Control_c, 1, 11, 107
7, 410550, Control_c, 1, 11, 105
7, 410580, Control_c, 1, 11, 104
7, 410610, Control_c, 1, 11, 102
7, 410640, Control_c, 1, 11, 100
7, 410670, Control_c, 1, 11, 99
7, 410700, Control_c, 1, 11, 97
7, 410730, Control_c, 1, 11, 95
7, 410759, Note_on_c, 1, 76, 0
7, 410760, Note_on_c, 1, 75, 80
7, 410760, Control_c, 1, 11, 94
7, 410790, Control_c, 1, 11, 92
7, 410820, Control_c, 1, 11, 90
7, 410850, Control_c, 1, 11, 89
7, 410880, Control_c, 1, 11, 87
7, 410910, Control_c, 1, 11, 85
7, 410940, Control_c, 1, 11, 84
7, 410970, Control_c, 1, 11, 82
7, 411000, Control_c, 1, 11, 80
7, 411030, Control_c, 1, 11, 79
7, 411060, Control_c, 1, 11, 77
7, 411090, Control_c, 1, 11, 75
7, 411119, Note_on_c, 1, 75, 0
7, 411120, Note_on_c, 1, 74, 80
7, 411120, Control_c, 1, 11, 74
7, 411150, Control_c, 1, 11, 72
7, 411180, Control_c, 1, 11, 70
7, 411210, Control_c, 1, 11, 69
7, 411238, Control_c, 1, 11, 49
7, 411464, Note_on_c, 1, 79, 0
7, 411464, Note_on_c, 1, 74, 0
7, 411480, Control_c, 1, 11, 49
7, 411480, Note_on_c, 1, 79, 92
7, 411517, Control_c, 1, 11, 50
7, 411554, Control_c, 1, 11, 51
7, 411591, Control_c, 1, 11, 52
7, 411628, Control_c, 1, 11, 53
7, 411665, Control_c, 1, 11, 54
7, 411702, Control_c, 1, 11, 55
7, 411738, Control_c, 1, 11, 56
7, 411775, Control_c, 1, 11, 57
7, 411812, Control_c, 1, 11, 58
7, 411849, Control_c, 1, 11, 59
7, 411886, Control_c, 1, 11, 60
7, 411923, Control_c, 1, 11, 61
7, 411960, Control_c, 1, 11, 62
7, 411997, Control_c, 1, 11, 63
7, 412034, Control_c, 1, 11, 64
7, 412071, Control_c, 1, 11, 65
7, 412108, Control_c, 1, 11, 66
7, 412145, Control_c, 1, 11, 67
7, 412182, Control_c, 1, 11, 68
7, 412200, Note_on_c, 1, 81, 92
7, 412218, Control_c, 1, 11, 69
7, 412255, Control_c, 1, 11, 70
7, 412292, Control_c, 1, 11, 71
7, 412329, Control_c, 1, 11, 72
7, 412366, Control_c, 1, 11, 73
7, 412403, Control_c, 1, 11, 74
7, 412440, Control_c, 1, 11, 75
7, 412477, Control_c, 1, 11, 76
7, 412514, Control_c, 1, 11, 77
7, 412551, Control_c, 1, 11, 78
7, 412559, Note_on_c, 1, 79, 0
7, 412560, Note_on_c, 1, 77, 92
7, 412588, Control_c, 1, 11, 79
7, 412625, Control_c, 1, 11, 80
7, 412662, Control_c, 1, 11, 81
7, 412698, Control_c, 1, 11, 82
7, 412735, Control_c, 1, 11, 83
7, 412772, Control_c, 1, 11, 84
7, 412809, Control_c, 1, 11, 85
7, 412846, Control_c, 1, 11, 86
7, 412883, Control_c, 1, 11, 87
7, 412919, Note_on_c, 1, 81, 0
7, 412919, Note_on_c, 1, 77, 0
7, 412920, Note_on_c, 1, 71, 92
7, 412920, Control_c, 1, 11, 88
7, 412920, Note_on_c, 1, 80, 92
7, 412957, Control_c, 1, 11, 89
7, 412994, Control_c, 1, 11, 90
7, 413031, Control_c, 1, 11, 91
7, 413068, Control_c, 1, 11, 92
7, 413105, Control_c, 1, 11, 93
7, 413142, Control_c, 1, 11, 94
7, 413178, Control_c, 1, 11, 95
7, 413215, Control_c, 1, 11, 96
7, 413252, Control_c, 1, 11, 97
7, 413279, Note_on_c, 1, 71, 0
7, 413279, Note_on_c, 1, 80, 0
7, 413280, Note_on_c, 1, 79, 92
7, 413280, Note_on_c, 1, 72, 92
7, 413289, Control_c, 1, 11, 98
7, 413326, Control_c, 1, 11, 99
7, 413363, Control_c, 1, 11, 100
7, 413400, Control_c, 1, 11, 101
7, 413437, Control_c, 1, 11, 102
7, 413474, Control_c, 1, 11, 103
7, 413511, Control_c, 1, 11, 104
7, 413548, Control_c, 1, 11, 105
7, 413585, Control_c, 1, 11, 106
7, 413622, Control_c, 1, 11, 107
7, 413658, Control_c, 1, 11, 108
7, 413695, Control_c, 1, 11, 109
7, 413732, Control_c, 1, 11, 110
7, 413769, Control_c, 1, 11, 111
7, 413806, Control_c, 1, 11, 112
7, 413843, Control_c, 1, 11, 113
7, 413880, Control_c, 1, 11, 114
7, 413917, Control_c, 1, 11, 115
7, 413954, Control_c, 1, 11, 116
7, 413991, Control_c, 1, 11, 117
7, 413999, Note_on_c, 1, 72, 0
7, 414000, Note_on_c, 1, 71, 92
7, 414028, Control_c, 1, 11, 118
7, 414065, Control_c, 1, 11, 119
7, 414102, Control_c, 1, 11, 120
7, 414138, Control_c, 1, 11, 121
7, 414175, Control_c, 1, 11, 122
7, 414212, Control_c, 1, 11, 123
7, 414249, Control_c, 1, 11, 124
7, 414286, Control_c, 1, 11, 125
7, 414323, Control_c, 1, 11, 127
7, 414344, Note_on_c, 1, 79, 0
7, 414344, Note_on_c, 1, 71, 0
7, 414360, Note_on_c, 1, 64, 92
7, 414360, Note_on_c, 1, 72, 92
7, 414599, Note_on_c, 1, 64, 0
7, 414599, Note_on_c, 1, 72, 0
7, 414600, Note_on_c, 1, 74, 92
7, 414600, Note_on_c, 1, 65, 92
7, 414659, Note_on_c, 1, 74, 0
7, 414659, Note_on_c, 1, 65, 0
7, 414660, Note_on_c, 1, 76, 92
7, 414660, Note_on_c, 1, 67, 92
7, 414704, Note_on_c, 1, 76, 0
7, 414704, Note_on_c, 1, 67, 0
7, 414720, Note_on_c, 1, 77, 92
7, 414720, Note_on_c, 1, 69, 92
7, 414839, Note_on_c, 1, 77, 0
7, 414839, Note_on_c, 1, 69, 0
7, 414960, Note_on_c, 1, 67, 92
7, 414960, Note_on_c, 1, 76, 92
7, 415049, Note_on_c, 1, 67, 0
7, 415049, Note_on_c, 1, 76, 0
7, 415080, Note_on_c, 1, 74, 92
7, 415080, Note_on_c, 1, 65, 92
7, 415169, Note_on_c, 1, 74, 0
7, 415169, Note_on_c, 1, 65, 0
7, 415320, Note_on_c, 1, 64, 92
7, 415320, Note_on_c, 1, 72, 92
7, 415409, Note_on_c, 1, 64, 0
7, 415409, Note_on_c, 1, 72, 0
7, 415440, Note_on_c, 1, 65, 92
7, 415440, Note_on_c, 1, 74, 92
7, 415529, Note_on_c, 1, 65, 0
7, 415529, Note_on_c, 1, 74, 0
7, 415680, Note_on_c, 1, 71, 92
7, 415680, Note_on_c, 1, 62, 92
7, 415769, Note_on_c, 1, 71, 0
7, 415769, Note_on_c, 1, 62, 0
7, 415800, Note_on_c, 1, 72, 92
7, 415800, Note_on_c, 1, 76, 92
7, 416039, Note_on_c, 1, 72, 0
7, 416039, Note_on_c, 1, 76, 0
7, 416040, Note_on_c, 1, 77, 92
7, 416040, Note_on_c, 1, 74, 92
7, 416099, Note_on_c, 1, 77, 0
7, 416099, Note_on_c, 1, 74, 0
7, 416100, Note_on_c, 1, 76, 92
7, 416100, Note_on_c, 1, 79, 92
7, 416144, Note_on_c, 1, 76, 0
7, 416144, Note_on_c, 1, 79, 0
7, 416160, Note_on_c, 1, 81, 92
7, 416160, Note_on_c, 1, 77, 92
7, 416249, Note_on_c, 1, 81, 0
7, 416249, Note_on_c, 1, 77, 0
7, 416400, Note_on_c, 1, 76, 92
7, 416400, Note_on_c, 1, 79, 92
7, 416489, Note_on_c, 1, 76, 0
7, 416489, Note_on_c, 1, 79, 0
7, 416520, Note_on_c, 1, 74, 92
7, 416520, Note_on_c, 1, 77, 92
7, 416609, Note_on_c, 1, 74, 0
7, 416609, Note_on_c, 1, 77, 0
7, 416760, Note_on_c, 1, 76, 92
7, 416760, Note_on_c, 1, 72, 92
7, 416849, Note_on_c, 1, 76, 0
7, 416849, Note_on_c, 1, 72, 0
7, 416880, Note_on_c, 1, 77, 92
7, 416880, Note_on_c, 1, 74, 92
7, 416969, Note_on_c, 1, 77, 0
7, 416969, Note_on_c, 1, 74, 0
7, 417120, Note_on_c, 1, 71, 92
7, 417120, Note_on_c, 1, 74, 92
7, 417209, Note_on_c, 1, 71, 0
7, 417209, Note_on_c, 1, 74, 0
7, 417240, Note_on_c, 1, 64, 92
7, 417240, Note_on_c, 1, 72, 92
7, 417329, Note_on_c, 1, 64, 0
7, 417329, Note_on_c, 1, 72, 0
7, 417360, Note_on_c, 1, 72, 92
7, 417360, Note_on_c, 1, 64, 92
7, 417479, Note_on_c, 1, 72, 0
7, 417479, Note_on_c, 1, 64, 0
7, 417480, Note_on_c, 1, 65, 92
7, 417480, Note_on_c, 1, 74, 92
7, 417539, Note_on_c, 1, 65, 0
7, 417539, Note_on_c, 1, 74, 0
7, 417540, Note_on_c, 1, 76, 92
7, 417540, Note_on_c, 1, 67, 92
7, 417584, Note_on_c, 1, 76, 0
7, 417584, Note_on_c, 1, 67, 0
7, 417600, Note_on_c, 1, 77, 92
7, 417600, Note_on_c, 1, 69, 92
7, 417689, Note_on_c, 1, 77, 0
7, 417689, Note_on_c, 1, 69, 0
7, 417720, Note_on_c, 1, 77, 92
7, 417720, Note_on_c, 1, 69, 92
7, 417809, Note_on_c, 1, 77, 0
7, 417809, Note_on_c, 1, 69, 0
7, 417840, Note_on_c, 1, 76, 92
7, 417840, Note_on_c, 1, 67, 92
7, 417929, Note_on_c, 1, 76, 0
7, 417929, Note_on_c, 1, 67, 0
7, 417960, Note_on_c, 1, 65, 92
7, 417960, Note_on_c, 1, 74, 92
7, 418049, Note_on_c, 1, 65, 0
7, 418049, Note_on_c, 1, 74, 0
7, 418080, Note_on_c, 1, 65, 92
7, 418080, Note_on_c, 1, 74, 92
7, 418169, Note_on_c, 1, 65, 0
7, 418169, Note_on_c, 1, 74, 0
7, 418200, Note_on_c, 1, 72, 92
7, 418200, Note_on_c, 1, 64, 92
7, 418289, Note_on_c, 1, 72, 0
7, 418289, Note_on_c, 1, 64, 0
7, 418320, Note_on_c, 1, 74, 92
7, 418320, Note_on_c, 1, 65, 92
7, 418409, Note_on_c, 1, 74, 0
7, 418409, Note_on_c, 1, 65, 0
7, 418440, Note_on_c, 1, 74, 92
7, 418440, Note_on_c, 1, 65, 92
7, 418529, Note_on_c, 1, 74, 0
7, 418529, Note_on_c, 1, 65, 0
7, 418560, Note_on_c, 1, 62, 92
7, 418560, Note_on_c, 1, 71, 92
7, 418649, Note_on_c, 1, 62, 0
7, 418649, Note_on_c, 1, 71, 0
7, 418680, Note_on_c, 1, 76, 92
7, 418680, Note_on_c, 1, 72, 92
7, 418769, Note_on_c, 1, 76, 0
7, 418769, Note_on_c, 1, 72, 0
7, 418800, Note_on_c, 1, 72, 92
7, 418800, Note_on_c, 1, 76, 92
7, 418919, Note_on_c, 1, 72, 0
7, 418919, Note_on_c, 1, 76, 0
7, 418920, Note_on_c, 1, 74, 92
7, 418920, Note_on_c, 1, 77, 92
7, 418979, Note_on_c, 1, 74, 0
7, 418979, Note_on_c, 1, 77, 0
7, 418980, Note_on_c, 1, 79, 92
7, 418980, Note_on_c, 1, 76, 92
7, 419024, Note_on_c, 1, 79, 0
7, 419024, Note_on_c, 1, 76, 0
7, 419040, Note_on_c, 1, 77, 92
7, 419040, Note_on_c, 1, 81, 92
7, 419129, Note_on_c, 1, 77, 0
7, 419129, Note_on_c, 1, 81, 0
7, 419160, Note_on_c, 1, 81, 92
7, 419160, Note_on_c, 1, 77, 92
7, 419249, Note_on_c, 1, 81, 0
7, 419249, Note_on_c, 1, 77, 0
7, 419280, Note_on_c, 1, 79, 92
7, 419280, Note_on_c, 1, 76, 92
7, 419369, Note_on_c, 1, 79, 0
7, 419369, Note_on_c, 1, 76, 0
7, 419400, Note_on_c, 1, 77, 92
7, 419400, Note_on_c, 1, 74, 92
7, 419489, Note_on_c, 1, 77, 0
7, 419489, Note_on_c, 1, 74, 0
7, 419520, Note_on_c, 1, 77, 92
7, 419520, Note_on_c, 1, 74, 92
7, 419609, Note_on_c, 1, 77, 0
7, 419609, Note_on_c, 1, 74, 0
7, 419640, Note_on_c, 1, 84, 92
7, 419640, Note_on_c, 1, 76, 92
7, 419729, Note_on_c, 1, 84, 0
7, 419729, Note_on_c, 1, 76, 0
7, 419760, Note_on_c, 1, 77, 92
7, 419760, Note_on_c, 1, 86, 92
7, 419849, Note_on_c, 1, 77, 0
7, 419849, Note_on_c, 1, 86, 0
7, 419880, Note_on_c, 1, 77, 92
7, 419880, Note_on_c, 1, 86, 92
7, 419969, Note_on_c, 1, 77, 0
7, 419969, Note_on_c, 1, 86, 0
7, 420000, Note_on_c, 1, 74, 92
7, 420000, Note_on_c, 1, 83, 92
7, 420089, Note_on_c, 1, 74, 0
7, 420089, Note_on_c, 1, 83, 0
7, 420120, Note_on_c, 1, 76, 92
7, 420284, Note_on_c, 1, 76, 0
7, 420300, Note_on_c, 1, 64, 92
7, 420344, Note_on_c, 1, 64, 0
7, 420360, Note_on_c, 1, 64, 92
7, 420464, Note_on_c, 1, 64, 0
7, 420480, Note_on_c, 1, 76, 92
7, 420480, Note_on_c, 1, 64, 92
7, 420569, Note_on_c, 1, 76, 0
7, 420569, Note_on_c, 1, 64, 0
7, 420600, Note_on_c, 1, 77, 92
7, 420600, Note_on_c, 1, 65, 92
7, 420689, Note_on_c, 1, 77, 0
7, 420689, Note_on_c, 1, 65, 0
7, 420720, Note_on_c, 1, 79, 92
7, 420720, Note_on_c, 1, 67, 92
7, 420809, Note_on_c, 1, 79, 0
7, 420809, Note_on_c, 1, 67, 0
7, 420840, Note_on_c, 1, 81, 92
7, 420840, Note_on_c, 1, 69, 92
7, 420959, Note_on_c, 1, 81, 0
7, 420959, Note_on_c, 1, 69, 0
7, 421200, Note_on_c, 1, 69, 92
7, 421200, Note_on_c, 1, 81, 92
7, 421289, Note_on_c, 1, 69, 0
7, 421289, Note_on_c, 1, 81, 0
7, 421320, Note_on_c, 1, 83, 92
7, 421320, Note_on_c, 1, 71, 92
7, 421409, Note_on_c, 1, 83, 0
7, 421409, Note_on_c, 1, 71, 0
7, 421440, Note_on_c, 1, 72, 92
7, 421440, Note_on_c, 1, 84, 92
7, 421529, Note_on_c, 1, 72, 0
7, 421529, Note_on_c, 1, 84, 0
7, 421560, Note_on_c, 1, 74, 92
7, 421560, Note_on_c, 1, 86, 92
7, 421724, Note_on_c, 1, 74, 0
7, 421724, Note_on_c, 1, 86, 0
7, 421740, Note_on_c, 1, 74, 92
7, 421740, Note_on_c, 1, 62, 92
7, 421784, Note_on_c, 1, 74, 0
7, 421784, Note_on_c, 1, 62, 0
7, 421800, Note_on_c, 1, 62, 92
7, 421800, Note_on_c, 1, 74, 92
7, 421904, Note_on_c, 1, 62, 0
7, 421904, Note_on_c, 1, 74, 0
7, 421920, Note_on_c, 1, 74, 92
7, 421920, Note_on_c, 1, 62, 92
7, 422009, Note_on_c, 1, 74, 0
7, 422009, Note_on_c, 1, 62, 0
7, 422040, Note_on_c, 1, 64, 92
7, 422040, Note_on_c, 1, 76, 92
7, 422129, Note_on_c, 1, 64, 0
7, 422129, Note_on_c, 1, 76, 0
7, 422160, Note_on_c, 1, 77, 92
7, 422160, Note_on_c, 1, 65, 92
7, 422249, Note_on_c, 1, 77, 0
7, 422249, Note_on_c, 1, 65, 0
7, 422280, Note_on_c, 1, 79, 92
7, 422280, Note_on_c, 1, 67, 92
7, 422399, Note_on_c, 1, 79, 0
7, 422399, Note_on_c, 1, 67, 0
7, 422640, Note_on_c, 1, 67, 92
7, 422640, Note_on_c, 1, 79, 92
7, 422729, Note_on_c, 1, 67, 0
7, 422729, Note_on_c, 1, 79, 0
7, 422760, Note_on_c, 1, 84, 92
7, 422760, Note_on_c, 1, 72, 92
7, 422849, Note_on_c, 1, 84, 0
7, 422849, Note_on_c, 1, 72, 0
7, 422880, Note_on_c, 1, 74, 92
7, 422880, Note_on_c, 1, 86, 92
7, 422969, Note_on_c, 1, 74, 0
7, 422969, Note_on_c, 1, 86, 0
7, 423000, Note_on_c, 1, 72, 44
7, 423000, Note_on_c, 1, 84, 44
7, 423119, Note_on_c, 1, 72, 0
7, 423119, Note_on_c, 1, 84, 0
7, 425040, Control_c, 1, 11, 67
7, 425160, Note_on_c, 1, 77, 80
7, 425160, Note_on_c, 1, 72, 80
7, 425160, Control_c, 1, 11, 67
7, 425190, Control_c, 1, 11, 68
7, 425220, Control_c, 1, 11, 70
7, 425250, Control_c, 1, 11, 71
7, 425280, Control_c, 1, 11, 72
7, 425310, Control_c, 1, 11, 73
7, 425340, Control_c, 1, 11, 75
7, 425370, Control_c, 1, 11, 76
7, 425400, Control_c, 1, 11, 77
7, 425430, Control_c, 1, 11, 78
7, 425460, Control_c, 1, 11, 80
7, 425490, Control_c, 1, 11, 81
7, 425519, Note_on_c, 1, 77, 0
7, 425520, Control_c, 1, 11, 82
7, 425520, Note_on_c, 1, 76, 80
7, 425550, Control_c, 1, 11, 83
7, 425580, Control_c, 1, 11, 85
7, 425610, Control_c, 1, 11, 86
7, 425640, Control_c, 1, 11, 87
7, 425670, Control_c, 1, 11, 88
7, 425700, Control_c, 1, 11, 90
7, 425730, Control_c, 1, 11, 91
7, 425760, Control_c, 1, 11, 92
7, 425790, Control_c, 1, 11, 93
7, 425820, Control_c, 1, 11, 95
7, 425850, Control_c, 1, 11, 96
7, 425864, Note_on_c, 1, 76, 0
7, 425880, Control_c, 1, 11, 97
7, 425880, Note_on_c, 1, 76, 80
7, 425910, Control_c, 1, 11, 98
7, 425940, Control_c, 1, 11, 100
7, 425970, Control_c, 1, 11, 101
7, 426000, Control_c, 1, 11, 102
7, 426030, Control_c, 1, 11, 103
7, 426060, Control_c, 1, 11, 105
7, 426090, Control_c, 1, 11, 106
7, 426120, Control_c, 1, 11, 107
7, 426150, Control_c, 1, 11, 108
7, 426180, Control_c, 1, 11, 110
7, 426210, Control_c, 1, 11, 111
7, 426240, Control_c, 1, 11, 112
7, 426270, Control_c, 1, 11, 113
7, 426300, Control_c, 1, 11, 115
7, 426330, Control_c, 1, 11, 116
7, 426359, Note_on_c, 1, 72, 0
7, 426359, Note_on_c, 1, 76, 0
7, 426360, Note_on_c, 1, 77, 80
7, 426360, Control_c, 1, 11, 117
7, 426360, Note_on_c, 1, 74, 80
7, 426390, Control_c, 1, 11, 118
7, 426420, Control_c, 1, 11, 120
7, 426450, Control_c, 1, 11, 121
7, 426479, Note_on_c, 1, 77, 0
7, 426479, Note_on_c, 1, 74, 0
7, 426480, Note_on_c, 1, 76, 80
7, 426480, Control_c, 1, 11, 122
7, 426480, Note_on_c, 1, 79, 80
7, 426510, Control_c, 1, 11, 123
7, 426540, Control_c, 1, 11, 125
7, 426570, Control_c, 1, 11, 127
7, 426584, Note_on_c, 1, 76, 0
7, 426584, Note_on_c, 1, 79, 0
7, 426600, Note_on_c, 1, 67, 80
7, 426600, Note_on_c, 1, 79, 80
7, 426689, Note_on_c, 1, 67, 0
7, 426689, Note_on_c, 1, 79, 0
7, 426720, Note_on_c, 1, 76, 80
7, 426720, Note_on_c, 1, 64, 80
7, 426809, Note_on_c, 1, 76, 0
7, 426809, Note_on_c, 1, 64, 0
7, 426840, Note_on_c, 1, 69, 80
7, 426840, Note_on_c, 1, 81, 80
7, 426929, Note_on_c, 1, 69, 0
7, 426929, Note_on_c, 1, 81, 0
7, 426960, Note_on_c, 1, 65, 80
7, 426960, Note_on_c, 1, 77, 80
7, 427049, Note_on_c, 1, 65, 0
7, 427049, Note_on_c, 1, 77, 0
7, 427080, Note_on_c, 1, 62, 80
7, 427080, Note_on_c, 1, 74, 80
7, 427169, Note_on_c, 1, 62, 0
7, 427169, Note_on_c, 1, 74, 0
7, 427200, Note_on_c, 1, 79, 80
7, 427200, Note_on_c, 1, 67, 80
7, 427289, Note_on_c, 1, 79, 0
7, 427289, Note_on_c, 1, 67, 0
7, 427320, Note_on_c, 1, 76, 80
7, 427320, Note_on_c, 1, 64, 80
7, 427439, Note_on_c, 1, 76, 0
7, 427439, Note_on_c, 1, 64, 0
7, 428040, Note_on_c, 1, 79, 80
7, 428040, Note_on_c, 1, 67, 80
7, 428129, Note_on_c, 1, 79, 0
7, 428129, Note_on_c, 1, 67, 0
7, 428160, Note_on_c, 1, 64, 80
7, 428160, Note_on_c, 1, 76, 80
7, 428249, Note_on_c, 1, 64, 0
7, 428249, Note_on_c, 1, 76, 0
7, 428280, Note_on_c, 1, 69, 80
7, 428280, Note_on_c, 1, 81, 80
7, 428369, Note_on_c, 1, 69, 0
7, 428369, Note_on_c, 1, 81, 0
7, 428400, Note_on_c, 1, 65, 80
7, 428400, Note_on_c, 1, 77, 80
7, 428489, Note_on_c, 1, 65, 0
7, 428489, Note_on_c, 1, 77, 0
7, 428520, Note_on_c, 1, 74, 80
7, 428520, Note_on_c, 1, 62, 80
7, 428609, Note_on_c, 1, 74, 0
7, 428609, Note_on_c, 1, 62, 0
7, 428640, Note_on_c, 1, 67, 80
7, 428640, Note_on_c, 1, 79, 80
7, 428729, Note_on_c, 1, 67, 0
7, 428729, Note_on_c, 1, 79, 0
7, 428760, Note_on_c, 1, 67, 80
7, 428760, Note_on_c, 1, 79, 80
7, 428849, Note_on_c, 1, 67, 0
7, 428849, Note_on_c, 1, 79, 0
7, 428880, Note_on_c, 1, 67, 80
7, 428880, Note_on_c, 1, 79, 80
7, 428969, Note_on_c, 1, 67, 0
7, 428969, Note_on_c, 1, 79, 0
7, 429000, Note_on_c, 1, 79, 80
7, 429000, Note_on_c, 1, 67, 80
7, 429089, Note_on_c, 1, 79, 0
7, 429089, Note_on_c, 1, 67, 0
7, 429120, Note_on_c, 1, 67, 80
7, 429120, Note_on_c, 1, 79, 80
7, 429209, Note_on_c, 1, 67, 0
7, 429209, Note_on_c, 1, 79, 0
7, 429240, Note_on_c, 1, 67, 80
7, 429240, Note_on_c, 1, 79, 80
7, 429329, Note_on_c, 1, 67, 0
7, 429329, Note_on_c, 1, 79, 0
7, 429360, Note_on_c, 1, 67, 80
7, 429360, Note_on_c, 1, 79, 80
7, 429449, Note_on_c, 1, 67, 0
7, 429449, Note_on_c, 1, 79, 0
7, 429480, Note_on_c, 1, 84, 80
7, 429480, Note_on_c, 1, 76, 80
7, 429569, Note_on_c, 1, 84, 0
7, 429569, Note_on_c, 1, 76, 0
7, 429600, Note_on_c, 1, 76, 80
7, 429600, Note_on_c, 1, 79, 80
7, 429689, Note_on_c, 1, 76, 0
7, 429689, Note_on_c, 1, 79, 0
7, 429720, Note_on_c, 1, 76, 80
7, 429720, Note_on_c, 1, 84, 80
7, 429809, Note_on_c, 1, 76, 0
7, 429809, Note_on_c, 1, 84, 0
7, 429840, Note_on_c, 1, 86, 80
7, 429840, Note_on_c, 1, 77, 80
7, 429929, Note_on_c, 1, 86, 0
7, 429929, Note_on_c, 1, 77, 0
7, 429960, Note_on_c, 1, 77, 80
7, 429960, Note_on_c, 1, 79, 80
7, 430049, Note_on_c, 1, 77, 0
7, 430049, Note_on_c, 1, 79, 0
7, 430080, Note_on_c, 1, 77, 80
7, 430080, Note_on_c, 1, 86, 80
7, 430169, Note_on_c, 1, 77, 0
7, 430169, Note_on_c, 1, 86, 0
7, 430200, Note_on_c, 1, 76, 80
7, 430200, Note_on_c, 1, 84, 80
7, 430289, Note_on_c, 1, 76, 0
7, 430289, Note_on_c, 1, 84, 0
7, 430320, Note_on_c, 1, 76, 80
7, 430320, Note_on_c, 1, 79, 80
7, 430409, Note_on_c, 1, 76, 0
7, 430409, Note_on_c, 1, 79, 0
7, 430440, Note_on_c, 1, 76, 80
7, 430440, Note_on_c, 1, 84, 80
7, 430529, Note_on_c, 1, 76, 0
7, 430529, Note_on_c, 1, 84, 0
7, 430560, Note_on_c, 1, 77, 80
7, 430560, Note_on_c, 1, 86, 80
7, 430649, Note_on_c, 1, 77, 0
7, 430649, Note_on_c, 1, 86, 0
7, 430680, Note_on_c, 1, 79, 80
7, 430680, Note_on_c, 1, 77, 80
7, 430769, Note_on_c, 1, 79, 0
7, 430769, Note_on_c, 1, 77, 0
7, 430800, Note_on_c, 1, 86, 80
7, 430800, Note_on_c, 1, 77, 80
7, 430889, Note_on_c, 1, 86, 0
7, 430889, Note_on_c, 1, 77, 0
7, 431280, Note_on_c, 1, 72, 32
7, 431399, Note_on_c, 1, 72, 0
7, 431400, Note_on_c, 1, 74, 32
7, 431519, Note_on_c, 1, 74, 0
7, 431520, Note_on_c, 1, 76, 32
7, 431639, Note_on_c, 1, 76, 0
7, 431640, Note_on_c, 1, 77, 32
7, 431759, Note_on_c, 1, 77, 0
7, 431760, Note_on_c, 1, 76, 32
7, 431879, Note_on_c, 1, 76, 0
7, 431880, Note_on_c, 1, 77, 32
7, 431999, Note_on_c, 1, 77, 0
7, 432000, Note_on_c, 1, 79, 32
7, 432119, Note_on_c, 1, 79, 0
7, 432120, Note_on_c, 1, 81, 32
7, 432239, Note_on_c, 1, 81, 0
7, 432240, Note_on_c, 1, 83, 32
7, 432359, Note_on_c, 1, 83, 0
7, 432360, Note_on_c, 1, 84, 32
7, 432479, Note_on_c, 1, 84, 0
7, 432720, Note_on_c, 1, 72, 32
7, 432884, Note_on_c, 1, 72, 0
7, 432900, Note_on_c, 1, 72, 32
7, 432944, Note_on_c, 1, 72, 0
7, 432960, Note_on_c, 1, 72, 32
7, 433064, Note_on_c, 1, 72, 0
7, 433080, Note_on_c, 1, 72, 32
7, 433199, Note_on_c, 1, 72, 0
7, 433440, Note_on_c, 1, 74, 32
7, 433604, Note_on_c, 1, 74, 0
7, 433620, Note_on_c, 1, 74, 32
7, 433664, Note_on_c, 1, 74, 0
7, 433680, Note_on_c, 1, 74, 32
7, 433784, Note_on_c, 1, 74, 0
7, 433800, Note_on_c, 1, 74, 32
7, 433919, Note_on_c, 1, 74, 0
7, 435240, Note_on_c, 1, 81, 44
7, 435359, Note_on_c, 1, 81, 0
7, 435600, Note_on_c, 1, 74, 44
7, 435719, Note_on_c, 1, 74, 0
7, 435960, Note_on_c, 1, 76, 44
7, 436079, Note_on_c, 1, 76, 0
7, 436320, Note_on_c, 1, 77, 44
7, 436439, Note_on_c, 1, 77, 0
7, 436680, Note_on_c, 1, 77, 32
7, 436799, Note_on_c, 1, 77, 0
7, 437040, Note_on_c, 1, 72, 32
7, 437159, Note_on_c, 1, 72, 0
7, 437400, Note_on_c, 1, 68, 32
7, 437519, Note_on_c, 1, 68, 0
7, 437760, Note_on_c, 1, 69, 32
7, 437879, Note_on_c, 1, 69, 0
7, 438120, Note_on_c, 1, 67, 32
7, 438239, Note_on_c, 1, 67, 0
7, 438480, Note_on_c, 1, 62, 32
7, 438599, Note_on_c, 1, 62, 0
7, 438840, Note_on_c, 1, 69, 32
7, 438959, Note_on_c, 1, 69, 0
7, 439200, Note_on_c, 1, 69, 32
7, 439319, Note_on_c, 1, 69, 0
7, 439560, Note_on_c, 1, 74, 32
7, 439679, Note_on_c, 1, 74, 0
7, 439920, Note_on_c, 1, 76, 32
7, 440039, Note_on_c, 1, 76, 0
7, 440280, Note_on_c, 1, 76, 32
7, 440399, Note_on_c, 1, 76, 0
7, 440640, Note_on_c, 1, 76, 32
7, 440759, Note_on_c, 1, 76, 0
7, 441000, Note_on_c, 1, 79, 32
7, 441119, Note_on_c, 1, 79, 0
7, 441360, Note_on_c, 1, 77, 32
7, 441479, Note_on_c, 1, 77, 0
7, 441720, Note_on_c, 1, 81, 32
7, 441839, Note_on_c, 1, 81, 0
7, 442080, Note_on_c, 1, 81, 32
7, 442199, Note_on_c, 1, 81, 0
7, 442440, Note_on_c, 1, 81, 32
7, 442559, Note_on_c, 1, 81, 0
7, 442800, Note_on_c, 1, 81, 32
7, 442919, Note_on_c, 1, 81, 0
7, 443160, Note_on_c, 1, 83, 32
7, 443279, Note_on_c, 1, 83, 0
7, 443520, Note_on_c, 1, 76, 32
7, 443639, Note_on_c, 1, 76, 0
7, 443880, Note_on_c, 1, 81, 32
7, 443969, Note_on_c, 1, 81, 0
7, 444000, Note_on_c, 1, 81, 32
7, 444089, Note_on_c, 1, 81, 0
7, 444120, Note_on_c, 1, 81, 32
7, 444209, Note_on_c, 1, 81, 0
7, 444240, Note_on_c, 1, 81, 32
7, 444329, Note_on_c, 1, 81, 0
7, 444360, Note_on_c, 1, 81, 32
7, 444449, Note_on_c, 1, 81, 0
7, 444480, Note_on_c, 1, 81, 32
7, 444569, Note_on_c, 1, 81, 0
7, 444600, Note_on_c, 1, 82, 32
7, 444689, Note_on_c, 1, 82, 0
7, 444720, Note_on_c, 1, 81, 32
7, 444809, Note_on_c, 1, 81, 0
7, 444840, Note_on_c, 1, 79, 32
7, 444929, Note_on_c, 1, 79, 0
7, 444960, Note_on_c, 1, 77, 32
7, 445049, Note_on_c, 1, 77, 0
7, 445080, Note_on_c, 1, 76, 32
7, 445169, Note_on_c, 1, 76, 0
7, 445200, Note_on_c, 1, 74, 32
7, 445289, Note_on_c, 1, 74, 0
7, 445320, Note_on_c, 1, 74, 32
7, 445320, Note_on_c, 1, 77, 32
7, 445439, Note_on_c, 1, 74, 0
7, 445439, Note_on_c, 1, 77, 0
7, 445680, Note_on_c, 1, 69, 32
7, 445680, Note_on_c, 1, 72, 32
7, 445799, Note_on_c, 1, 69, 0
7, 445799, Note_on_c, 1, 72, 0
7, 446040, Note_on_c, 1, 71, 32
7, 446040, Note_on_c, 1, 74, 32
7, 446159, Note_on_c, 1, 71, 0
7, 446159, Note_on_c, 1, 74, 0
7, 446400, Note_on_c, 1, 76, 32
7, 446400, Note_on_c, 1, 72, 32
7, 446519, Note_on_c, 1, 76, 0
7, 446519, Note_on_c, 1, 72, 0
7, 446760, Note_on_c, 1, 73, 32
7, 446849, Note_on_c, 1, 73, 0
7, 446880, Note_on_c, 1, 74, 32
7, 446969, Note_on_c, 1, 74, 0
7, 447000, Note_on_c, 1, 76, 32
7, 447089, Note_on_c, 1, 76, 0
7, 447120, Note_on_c, 1, 77, 32
7, 447209, Note_on_c, 1, 77, 0
7, 447240, Note_on_c, 1, 79, 32
7, 447329, Note_on_c, 1, 79, 0
7, 447360, Note_on_c, 1, 81, 32
7, 447449, Note_on_c, 1, 81, 0
7, 447480, Note_on_c, 1, 82, 32
7, 447569, Note_on_c, 1, 82, 0
7, 447600, Note_on_c, 1, 81, 32
7, 447689, Note_on_c, 1, 81, 0
7, 447720, Note_on_c, 1, 79, 32
7, 447809, Note_on_c, 1, 79, 0
7, 447840, Note_on_c, 1, 77, 32
7, 447929, Note_on_c, 1, 77, 0
7, 447960, Note_on_c, 1, 76, 32
7, 448049, Note_on_c, 1, 76, 0
7, 448080, Note_on_c, 1, 74, 32
7, 448169, Note_on_c, 1, 74, 0
7, 448200, Note_on_c, 1, 73, 32
7, 448289, Note_on_c, 1, 73, 0
7, 448320, Note_on_c, 1, 74, 33
7, 448409, Note_on_c, 1, 74, 0
7, 448440, Note_on_c, 1, 76, 35
7, 448529, Note_on_c, 1, 76, 0
7, 448560, Note_on_c, 1, 74, 37
7, 448649, Note_on_c, 1, 74, 0
7, 448680, Note_on_c, 1, 73, 38
7, 448769, Note_on_c, 1, 73, 0
7, 448800, Note_on_c, 1, 74, 40
7, 448889, Note_on_c, 1, 74, 0
7, 448920, Note_on_c, 1, 73, 42
7, 449009, Note_on_c, 1, 73, 0
7, 449040, Note_on_c, 1, 74, 43
7, 449129, Note_on_c, 1, 74, 0
7, 449160, Note_on_c, 1, 76, 45
7, 449249, Note_on_c, 1, 76, 0
7, 449280, Note_on_c, 1, 74, 47
7, 449369, Note_on_c, 1, 74, 0
7, 449400, Note_on_c, 1, 73, 48
7, 449489, Note_on_c, 1, 73, 0
7, 449520, Note_on_c, 1, 74, 50
7, 449609, Note_on_c, 1, 74, 0
7, 449640, Note_on_c, 1, 73, 52
7, 449729, Note_on_c, 1, 73, 0
7, 449760, Note_on_c, 1, 74, 53
7, 449849, Note_on_c, 1, 74, 0
7, 449880, Note_on_c, 1, 76, 55
7, 449969, Note_on_c, 1, 76, 0
7, 450000, Note_on_c, 1, 74, 57
7, 450089, Note_on_c, 1, 74, 0
7, 450120, Note_on_c, 1, 73, 58
7, 450209, Note_on_c, 1, 73, 0
7, 450240, Note_on_c, 1, 74, 60
7, 450329, Note_on_c, 1, 74, 0
7, 450360, Note_on_c, 1, 73, 62
7, 450360, Note_on_c, 1, 76, 62
7, 450449, Note_on_c, 1, 73, 0
7, 450449, Note_on_c, 1, 76, 0
7, 450480, Note_on_c, 1, 77, 63
7, 450480, Note_on_c, 1, 74, 63
7, 450569, Note_on_c, 1, 77, 0
7, 450569, Note_on_c, 1, 74, 0
7, 450600, Note_on_c, 1, 76, 65
7, 450600, Note_on_c, 1, 79, 65
7, 450689, Note_on_c, 1, 76, 0
7, 450689, Note_on_c, 1, 79, 0
7, 450720, Note_on_c, 1, 74, 67
7, 450720, Note_on_c, 1, 77, 67
7, 450809, Note_on_c, 1, 74, 0
7, 450809, Note_on_c, 1, 77, 0
7, 450840, Note_on_c, 1, 73, 68
7, 450840, Note_on_c, 1, 76, 68
7, 450929, Note_on_c, 1, 73, 0
7, 450929, Note_on_c, 1, 76, 0
7, 450960, Note_on_c, 1, 74, 70
7, 450960, Note_on_c, 1, 77, 70
7, 451049, Note_on_c, 1, 74, 0
7, 451049, Note_on_c, 1, 77, 0
7, 451080, Note_on_c, 1, 73, 72
7, 451080, Note_on_c, 1, 76, 72
7, 451169, Note_on_c, 1, 73, 0
7, 451169, Note_on_c, 1, 76, 0
7, 451200, Note_on_c, 1, 74, 73
7, 451200, Note_on_c, 1, 77, 73
7, 451289, Note_on_c, 1, 74, 0
7, 451289, Note_on_c, 1, 77, 0
7, 451320, Note_on_c, 1, 76, 75
7, 451320, Note_on_c, 1, 79, 75
7, 451409, Note_on_c, 1, 76, 0
7, 451409, Note_on_c, 1, 79, 0
7, 451440, Note_on_c, 1, 77, 77
7, 451440, Note_on_c, 1, 74, 77
7, 451529, Note_on_c, 1, 77, 0
7, 451529, Note_on_c, 1, 74, 0
7, 451560, Note_on_c, 1, 76, 78
7, 451560, Note_on_c, 1, 73, 78
7, 451649, Note_on_c, 1, 76, 0
7, 451649, Note_on_c, 1, 73, 0
7, 451680, Note_on_c, 1, 77, 80
7, 451680, Note_on_c, 1, 74, 80
7, 451769, Note_on_c, 1, 77, 0
7, 451769, Note_on_c, 1, 74, 0
7, 451800, Note_on_c, 1, 76, 82
7, 451800, Note_on_c, 1, 73, 82
7, 451889, Note_on_c, 1, 76, 0
7, 451889, Note_on_c, 1, 73, 0
7, 451920, Note_on_c, 1, 77, 83
7, 451920, Note_on_c, 1, 74, 83
7, 452009, Note_on_c, 1, 77, 0
7, 452009, Note_on_c, 1, 74, 0
7, 452040, Note_on_c, 1, 79, 85
7, 452040, Note_on_c, 1, 76, 85
7, 452129, Note_on_c, 1, 79, 0
7, 452129, Note_on_c, 1, 76, 0
7, 452160, Note_on_c, 1, 73, 87
7, 452160, Note_on_c, 1, 76, 87
7, 452249, Note_on_c, 1, 73, 0
7, 452249, Note_on_c, 1, 76, 0
7, 452280, Note_on_c, 1, 77, 88
7, 452280, Note_on_c, 1, 74, 88
7, 452369, Note_on_c, 1, 77, 0
7, 452369, Note_on_c, 1, 74, 0
7, 452400, Note_on_c, 1, 79, 90
7, 452400, Note_on_c, 1, 76, 90
7, 452489, Note_on_c, 1, 79, 0
7, 452489, Note_on_c, 1, 76, 0
7, 452520, Note_on_c, 1, 81, 92
7, 452520, Note_on_c, 1, 77, 92
7, 452684, Note_on_c, 1, 81, 0
7, 452684, Note_on_c, 1, 77, 0
7, 452700, Note_on_c, 1, 69, 92
7, 452744, Note_on_c, 1, 69, 0
7, 452760, Note_on_c, 1, 69, 92
7, 452864, Note_on_c, 1, 69, 0
7, 452880, Note_on_c, 1, 74, 92
7, 452880, Note_on_c, 1, 81, 92
7, 452984, Note_on_c, 1, 74, 0
7, 452984, Note_on_c, 1, 81, 0
7, 453000, Note_on_c, 1, 81, 92
7, 453000, Note_on_c, 1, 76, 92
7, 453104, Note_on_c, 1, 81, 0
7, 453104, Note_on_c, 1, 76, 0
7, 453120, Note_on_c, 1, 81, 92
7, 453120, Note_on_c, 1, 77, 92
7, 453224, Note_on_c, 1, 81, 0
7, 453224, Note_on_c, 1, 77, 0
7, 453240, Note_on_c, 1, 81, 92
7, 453240, Note_on_c, 1, 76, 92
7, 453344, Note_on_c, 1, 81, 0
7, 453344, Note_on_c, 1, 76, 0
7, 453360, Note_on_c, 1, 77, 92
7, 453360, Note_on_c, 1, 81, 92
7, 453464, Note_on_c, 1, 77, 0
7, 453464, Note_on_c, 1, 81, 0
7, 453480, Note_on_c, 1, 81, 92
7, 453480, Note_on_c, 1, 79, 92
7, 453584, Note_on_c, 1, 81, 0
7, 453584, Note_on_c, 1, 79, 0
7, 453600, Note_on_c, 1, 81, 92
7, 453600, Note_on_c, 1, 77, 92
7, 453704, Note_on_c, 1, 81, 0
7, 453704, Note_on_c, 1, 77, 0
7, 453720, Note_on_c, 1, 81, 92
7, 453720, Note_on_c, 1, 76, 92
7, 453824, Note_on_c, 1, 81, 0
7, 453824, Note_on_c, 1, 76, 0
7, 453840, Note_on_c, 1, 74, 92
7, 453840, Note_on_c, 1, 81, 92
7, 453944, Note_on_c, 1, 74, 0
7, 453944, Note_on_c, 1, 81, 0
7, 453960, Note_on_c, 1, 74, 80
7, 453960, Note_on_c, 1, 82, 80
7, 454064, Note_on_c, 1, 74, 0
7, 454064, Note_on_c, 1, 82, 0
7, 454080, Note_on_c, 1, 74, 80
7, 454080, Note_on_c, 1, 81, 80
7, 454184, Note_on_c, 1, 74, 0
7, 454184, Note_on_c, 1, 81, 0
7, 454200, Note_on_c, 1, 79, 80
7, 454200, Note_on_c, 1, 74, 80
7, 454304, Note_on_c, 1, 79, 0
7, 454304, Note_on_c, 1, 74, 0
7, 454320, Note_on_c, 1, 77, 80
7, 454320, Note_on_c, 1, 69, 80
7, 454424, Note_on_c, 1, 77, 0
7, 454424, Note_on_c, 1, 69, 0
7, 454440, Note_on_c, 1, 76, 80
7, 454440, Note_on_c, 1, 81, 80
7, 454544, Note_on_c, 1, 76, 0
7, 454544, Note_on_c, 1, 81, 0
7, 454560, Note_on_c, 1, 81, 80
7, 454560, Note_on_c, 1, 74, 80
7, 454664, Note_on_c, 1, 81, 0
7, 454664, Note_on_c, 1, 74, 0
7, 454680, Note_on_c, 1, 73, 80
7, 454680, Note_on_c, 1, 81, 80
7, 454784, Note_on_c, 1, 73, 0
7, 454784, Note_on_c, 1, 81, 0
7, 454800, Note_on_c, 1, 74, 80
7, 454800, Note_on_c, 1, 81, 80
7, 454904, Note_on_c, 1, 74, 0
7, 454904, Note_on_c, 1, 81, 0
7, 454920, Note_on_c, 1, 81, 80
7, 454920, Note_on_c, 1, 76, 80
7, 455024, Note_on_c, 1, 81, 0
7, 455024, Note_on_c, 1, 76, 0
7, 455040, Note_on_c, 1, 74, 80
7, 455040, Note_on_c, 1, 81, 80
7, 455144, Note_on_c, 1, 74, 0
7, 455144, Note_on_c, 1, 81, 0
7, 455160, Note_on_c, 1, 73, 80
7, 455160, Note_on_c, 1, 81, 80
7, 455264, Note_on_c, 1, 73, 0
7, 455264, Note_on_c, 1, 81, 0
7, 455280, Note_on_c, 1, 81, 80
7, 455280, Note_on_c, 1, 74, 80
7, 455384, Note_on_c, 1, 81, 0
7, 455384, Note_on_c, 1, 74, 0
7, 455400, Note_on_c, 1, 74, 80
7, 455400, Note_on_c, 1, 82, 80
7, 455504, Note_on_c, 1, 74, 0
7, 455504, Note_on_c, 1, 82, 0
7, 455520, Note_on_c, 1, 74, 80
7, 455520, Note_on_c, 1, 81, 80
7, 455624, Note_on_c, 1, 74, 0
7, 455624, Note_on_c, 1, 81, 0
7, 455640, Note_on_c, 1, 79, 80
7, 455640, Note_on_c, 1, 74, 80
7, 455744, Note_on_c, 1, 79, 0
7, 455744, Note_on_c, 1, 74, 0
7, 455760, Note_on_c, 1, 77, 80
7, 455760, Note_on_c, 1, 69, 80
7, 455864, Note_on_c, 1, 77, 0
7, 455864, Note_on_c, 1, 69, 0
7, 455880, Note_on_c, 1, 76, 80
7, 455880, Note_on_c, 1, 69, 80
7, 455984, Note_on_c, 1, 76, 0
7, 455984, Note_on_c, 1, 69, 0
7, 456000, Note_on_c, 1, 74, 80
7, 456000, Note_on_c, 1, 69, 80
7, 456104, Note_on_c, 1, 74, 0
7, 456104, Note_on_c, 1, 69, 0
7, 456120, Note_on_c, 1, 73, 80
7, 456120, Note_on_c, 1, 81, 80
7, 456224, Note_on_c, 1, 73, 0
7, 456224, Note_on_c, 1, 81, 0
7, 456240, Note_on_c, 1, 81, 80
7, 456240, Note_on_c, 1, 74, 80
7, 456344, Note_on_c, 1, 81, 0
7, 456344, Note_on_c, 1, 74, 0
7, 456360, Note_on_c, 1, 81, 80
7, 456360, Note_on_c, 1, 76, 80
7, 456464, Note_on_c, 1, 81, 0
7, 456464, Note_on_c, 1, 76, 0
7, 456480, Note_on_c, 1, 81, 80
7, 456480, Note_on_c, 1, 69, 80
7, 456584, Note_on_c, 1, 81, 0
7, 456584, Note_on_c, 1, 69, 0
7, 456600, Note_on_c, 1, 77, 80
7, 456600, Note_on_c, 1, 81, 80
7, 456704, Note_on_c, 1, 77, 0
7, 456704, Note_on_c, 1, 81, 0
7, 456720, Note_on_c, 1, 83, 80
7, 456720, Note_on_c, 1, 77, 80
7, 456824, Note_on_c, 1, 83, 0
7, 456824, Note_on_c, 1, 77, 0
7, 456840, Note_on_c, 1, 77, 80
7, 456840, Note_on_c, 1, 83, 80
7, 456944, Note_on_c, 1, 77, 0
7, 456944, Note_on_c, 1, 83, 0
7, 456960, Note_on_c, 1, 77, 80
7, 456960, Note_on_c, 1, 71, 80
7, 457064, Note_on_c, 1, 77, 0
7, 457064, Note_on_c, 1, 71, 0
7, 457080, Note_on_c, 1, 77, 80
7, 457080, Note_on_c, 1, 74, 80
7, 457184, Note_on_c, 1, 77, 0
7, 457184, Note_on_c, 1, 74, 0
7, 457200, Note_on_c, 1, 67, 80
7, 457200, Note_on_c, 1, 76, 80
7, 457304, Note_on_c, 1, 67, 0
7, 457304, Note_on_c, 1, 76, 0
7, 457320, Note_on_c, 1, 79, 80
7, 457320, Note_on_c, 1, 74, 80
7, 457424, Note_on_c, 1, 79, 0
7, 457424, Note_on_c, 1, 74, 0
7, 457440, Note_on_c, 1, 79, 80
7, 457440, Note_on_c, 1, 72, 80
7, 457544, Note_on_c, 1, 79, 0
7, 457544, Note_on_c, 1, 72, 0
7, 457560, Note_on_c, 1, 71, 80
7, 457560, Note_on_c, 1, 79, 80
7, 457664, Note_on_c, 1, 71, 0
7, 457664, Note_on_c, 1, 79, 0
7, 457680, Note_on_c, 1, 72, 80
7, 457680, Note_on_c, 1, 79, 80
7, 457784, Note_on_c, 1, 72, 0
7, 457784, Note_on_c, 1, 79, 0
7, 457800, Note_on_c, 1, 74, 80
7, 457800, Note_on_c, 1, 79, 80
7, 457904, Note_on_c, 1, 74, 0
7, 457904, Note_on_c, 1, 79, 0
7, 457920, Note_on_c, 1, 79, 80
7, 457920, Note_on_c, 1, 72, 80
7, 458024, Note_on_c, 1, 79, 0
7, 458024, Note_on_c, 1, 72, 0
7, 458040, Note_on_c, 1, 81, 80
7, 458040, Note_on_c, 1, 71, 80
7, 458144, Note_on_c, 1, 81, 0
7, 458144, Note_on_c, 1, 71, 0
7, 458160, Note_on_c, 1, 81, 80
7, 458160, Note_on_c, 1, 71, 80
7, 458264, Note_on_c, 1, 81, 0
7, 458264, Note_on_c, 1, 71, 0
7, 458280, Note_on_c, 1, 71, 80
7, 458280, Note_on_c, 1, 81, 80
7, 458384, Note_on_c, 1, 71, 0
7, 458384, Note_on_c, 1, 81, 0
7, 458400, Note_on_c, 1, 71, 80
7, 458400, Note_on_c, 1, 79, 80
7, 458504, Note_on_c, 1, 71, 0
7, 458504, Note_on_c, 1, 79, 0
7, 458520, Note_on_c, 1, 77, 80
7, 458520, Note_on_c, 1, 74, 80
7, 458624, Note_on_c, 1, 77, 0
7, 458624, Note_on_c, 1, 74, 0
7, 458640, Note_on_c, 1, 72, 80
7, 458640, Note_on_c, 1, 76, 80
7, 458744, Note_on_c, 1, 72, 0
7, 458744, Note_on_c, 1, 76, 0
7, 458760, Note_on_c, 1, 79, 80
7, 458760, Note_on_c, 1, 71, 80
7, 458864, Note_on_c, 1, 79, 0
7, 458864, Note_on_c, 1, 71, 0
7, 458880, Note_on_c, 1, 72, 80
7, 458880, Note_on_c, 1, 79, 80
7, 458984, Note_on_c, 1, 72, 0
7, 458984, Note_on_c, 1, 79, 0
7, 459000, Note_on_c, 1, 79, 80
7, 459000, Note_on_c, 1, 76, 80
7, 459104, Note_on_c, 1, 79, 0
7, 459104, Note_on_c, 1, 76, 0
7, 459120, Note_on_c, 1, 74, 80
7, 459120, Note_on_c, 1, 79, 80
7, 459224, Note_on_c, 1, 74, 0
7, 459224, Note_on_c, 1, 79, 0
7, 459240, Note_on_c, 1, 72, 80
7, 459240, Note_on_c, 1, 79, 80
7, 459344, Note_on_c, 1, 72, 0
7, 459344, Note_on_c, 1, 79, 0
7, 459360, Note_on_c, 1, 79, 80
7, 459360, Note_on_c, 1, 76, 80
7, 459464, Note_on_c, 1, 79, 0
7, 459464, Note_on_c, 1, 76, 0
7, 459480, Note_on_c, 1, 74, 80
7, 459480, Note_on_c, 1, 79, 80
7, 459584, Note_on_c, 1, 74, 0
7, 459584, Note_on_c, 1, 79, 0
7, 459600, Note_on_c, 1, 72, 80
7, 459600, Note_on_c, 1, 79, 80
7, 459704, Note_on_c, 1, 72, 0
7, 459704, Note_on_c, 1, 79, 0
7, 459720, Note_on_c, 1, 79, 80
7, 459780, Control_c, 1, 11, 67
7, 460080, Control_c, 1, 11, 67
7, 460119, Control_c, 1, 11, 68
7, 460158, Control_c, 1, 11, 69
7, 460197, Control_c, 1, 11, 70
7, 460236, Control_c, 1, 11, 71
7, 460275, Control_c, 1, 11, 72
7, 460314, Control_c, 1, 11, 73
7, 460353, Control_c, 1, 11, 74
7, 460392, Control_c, 1, 11, 75
7, 460431, Control_c, 1, 11, 76
7, 460440, Note_on_c, 1, 81, 80
7, 460470, Control_c, 1, 11, 77
7, 460509, Control_c, 1, 11, 78
7, 460548, Control_c, 1, 11, 79
7, 460587, Control_c, 1, 11, 80
7, 460626, Control_c, 1, 11, 81
7, 460665, Control_c, 1, 11, 82
7, 460704, Control_c, 1, 11, 83
7, 460743, Control_c, 1, 11, 84
7, 460782, Control_c, 1, 11, 85
7, 460799, Note_on_c, 1, 79, 0
7, 460800, Note_on_c, 1, 77, 80
7, 460821, Control_c, 1, 11, 86
7, 460860, Control_c, 1, 11, 87
7, 460899, Control_c, 1, 11, 88
7, 460938, Control_c, 1, 11, 89
7, 460977, Control_c, 1, 11, 90
7, 461016, Control_c, 1, 11, 91
7, 461055, Control_c, 1, 11, 92
7, 461094, Control_c, 1, 11, 93
7, 461133, Control_c, 1, 11, 94
7, 461159, Note_on_c, 1, 81, 0
7, 461160, Note_on_c, 1, 80, 80
7, 461172, Control_c, 1, 11, 95
7, 461211, Control_c, 1, 11, 96
7, 461250, Control_c, 1, 11, 97
7, 461289, Control_c, 1, 11, 98
7, 461328, Control_c, 1, 11, 99
7, 461367, Control_c, 1, 11, 100
7, 461406, Control_c, 1, 11, 101
7, 461445, Control_c, 1, 11, 102
7, 461484, Control_c, 1, 11, 103
7, 461519, Note_on_c, 1, 77, 0
7, 461519, Note_on_c, 1, 80, 0
7, 461520, Note_on_c, 1, 79, 80
7, 461520, Note_on_c, 1, 76, 80
7, 461523, Control_c, 1, 11, 104
7, 461562, Control_c, 1, 11, 105
7, 461601, Control_c, 1, 11, 106
7, 461640, Control_c, 1, 11, 107
7, 461670, Control_c, 1, 11, 105
7, 461700, Control_c, 1, 11, 104
7, 461730, Control_c, 1, 11, 102
7, 461760, Control_c, 1, 11, 100
7, 461790, Control_c, 1, 11, 99
7, 461820, Control_c, 1, 11, 97
7, 461850, Control_c, 1, 11, 95
7, 461879, Note_on_c, 1, 76, 0
7, 461880, Control_c, 1, 11, 94
7, 461880, Note_on_c, 1, 75, 80
7, 461910, Control_c, 1, 11, 92
7, 461940, Control_c, 1, 11, 90
7, 461970, Control_c, 1, 11, 89
7, 462000, Control_c, 1, 11, 87
7, 462030, Control_c, 1, 11, 85
7, 462060, Control_c, 1, 11, 84
7, 462090, Control_c, 1, 11, 82
7, 462120, Control_c, 1, 11, 80
7, 462150, Control_c, 1, 11, 79
7, 462180, Control_c, 1, 11, 77
7, 462210, Control_c, 1, 11, 75
7, 462239, Note_on_c, 1, 75, 0
7, 462240, Note_on_c, 1, 74, 80
7, 462240, Control_c, 1, 11, 74
7, 462270, Control_c, 1, 11, 72
7, 462300, Control_c, 1, 11, 70
7, 462330, Control_c, 1, 11, 69
7, 462358, Control_c, 1, 11, 49
7, 462584, Note_on_c, 1, 79, 0
7, 462584, Note_on_c, 1, 74, 0
7, 462600, Note_on_c, 1, 79, 92
7, 462600, Control_c, 1, 11, 49
7, 462637, Control_c, 1, 11, 50
7, 462674, Control_c, 1, 11, 51
7, 462711, Control_c, 1, 11, 52
7, 462748, Control_c, 1, 11, 53
7, 462785, Control_c, 1, 11, 54
7, 462822, Control_c, 1, 11, 55
7, 462858, Control_c, 1, 11, 56
7, 462895, Control_c, 1, 11, 57
7, 462932, Control_c, 1, 11, 58
7, 462969, Control_c, 1, 11, 59
7, 463006, Control_c, 1, 11, 60
7, 463043, Control_c, 1, 11, 61
7, 463080, Control_c, 1, 11, 62
7, 463117, Control_c, 1, 11, 63
7, 463154, Control_c, 1, 11, 64
7, 463191, Control_c, 1, 11, 65
7, 463228, Control_c, 1, 11, 66
7, 463265, Control_c, 1, 11, 67
7, 463302, Control_c, 1, 11, 68
7, 463320, Note_on_c, 1, 81, 92
7, 463338, Control_c, 1, 11, 69
7, 463375, Control_c, 1, 11, 70
7, 463412, Control_c, 1, 11, 71
7, 463449, Control_c, 1, 11, 72
7, 463486, Control_c, 1, 11, 73
7, 463523, Control_c, 1, 11, 74
7, 463560, Control_c, 1, 11, 75
7, 463597, Control_c, 1, 11, 76
7, 463634, Control_c, 1, 11, 77
7, 463671, Control_c, 1, 11, 78
7, 463679, Note_on_c, 1, 79, 0
7, 463680, Note_on_c, 1, 77, 92
7, 463708, Control_c, 1, 11, 79
7, 463745, Control_c, 1, 11, 80
7, 463782, Control_c, 1, 11, 81
7, 463818, Control_c, 1, 11, 82
7, 463855, Control_c, 1, 11, 83
7, 463892, Control_c, 1, 11, 84
7, 463929, Control_c, 1, 11, 85
7, 463966, Control_c, 1, 11, 86
7, 464003, Control_c, 1, 11, 87
7, 464039, Note_on_c, 1, 81, 0
7, 464039, Note_on_c, 1, 77, 0
7, 464040, Note_on_c, 1, 80, 92
7, 464040, Note_on_c, 1, 71, 92
7, 464040, Control_c, 1, 11, 88
7, 464077, Control_c, 1, 11, 89
7, 464114, Control_c, 1, 11, 90
7, 464151, Control_c, 1, 11, 91
7, 464188, Control_c, 1, 11, 92
7, 464225, Control_c, 1, 11, 93
7, 464262, Control_c, 1, 11, 94
7, 464298, Control_c, 1, 11, 95
7, 464335, Control_c, 1, 11, 96
7, 464372, Control_c, 1, 11, 97
7, 464399, Note_on_c, 1, 80, 0
7, 464399, Note_on_c, 1, 71, 0
7, 464400, Note_on_c, 1, 79, 92
7, 464400, Note_on_c, 1, 72, 92
7, 464409, Control_c, 1, 11, 98
7, 464446, Control_c, 1, 11, 99
7, 464483, Control_c, 1, 11, 100
7, 464520, Control_c, 1, 11, 101
7, 464557, Control_c, 1, 11, 102
7, 464594, Control_c, 1, 11, 103
7, 464631, Control_c, 1, 11, 104
7, 464668, Control_c, 1, 11, 105
7, 464705, Control_c, 1, 11, 106
7, 464742, Control_c, 1, 11, 107
7, 464778, Control_c, 1, 11, 108
7, 464815, Control_c, 1, 11, 109
7, 464852, Control_c, 1, 11, 110
7, 464889, Control_c, 1, 11, 111
7, 464926, Control_c, 1, 11, 112
7, 464963, Control_c, 1, 11, 113
7, 465000, Control_c, 1, 11, 114
7, 465037, Control_c, 1, 11, 115
7, 465074, Control_c, 1, 11, 116
7, 465111, Control_c, 1, 11, 117
7, 465119, Note_on_c, 1, 72, 0
7, 465120, Note_on_c, 1, 71, 92
7, 465148, Control_c, 1, 11, 118
7, 465185, Control_c, 1, 11, 119
7, 465222, Control_c, 1, 11, 120
7, 465258, Control_c, 1, 11, 121
7, 465295, Control_c, 1, 11, 122
7, 465332, Control_c, 1, 11, 123
7, 465369, Control_c, 1, 11, 124
7, 465406, Control_c, 1, 11, 125
7, 465443, Control_c, 1, 11, 127
7, 465464, Note_on_c, 1, 79, 0
7, 465464, Note_on_c, 1, 71, 0
7, 465480, Note_on_c, 1, 72, 92
7, 465480, Note_on_c, 1, 64, 92
7, 465719, Note_on_c, 1, 72, 0
7, 465719, Note_on_c, 1, 64, 0
7, 465720, Note_on_c, 1, 65, 92
7, 465720, Note_on_c, 1, 74, 92
7, 465779, Note_on_c, 1, 65, 0
7, 465779, Note_on_c, 1, 74, 0
7, 465780, Note_on_c, 1, 76, 92
7, 465780, Note_on_c, 1, 67, 92
7, 465824, Note_on_c, 1, 76, 0
7, 465824, Note_on_c, 1, 67, 0
7, 465840, Note_on_c, 1, 77, 92
7, 465840, Note_on_c, 1, 69, 92
7, 465959, Note_on_c, 1, 77, 0
7, 465959, Note_on_c, 1, 69, 0
7, 466080, Note_on_c, 1, 67, 92
7, 466080, Note_on_c, 1, 76, 92
7, 466169, Note_on_c, 1, 67, 0
7, 466169, Note_on_c, 1, 76, 0
7, 466200, Note_on_c, 1, 74, 92
7, 466200, Note_on_c, 1, 65, 92
7, 466289, Note_on_c, 1, 74, 0
7, 466289, Note_on_c, 1, 65, 0
7, 466440, Note_on_c, 1, 64, 92
7, 466440, Note_on_c, 1, 72, 92
7, 466529, Note_on_c, 1, 64, 0
7, 466529, Note_on_c, 1, 72, 0
7, 466560, Note_on_c, 1, 65, 92
7, 466560, Note_on_c, 1, 74, 92
7, 466649, Note_on_c, 1, 65, 0
7, 466649, Note_on_c, 1, 74, 0
7, 466800, Note_on_c, 1, 71, 92
7, 466800, Note_on_c, 1, 62, 92
7, 466889, Note_on_c, 1, 71, 0
7, 466889, Note_on_c, 1, 62, 0
7, 466920, Note_on_c, 1, 76, 92
7, 466920, Note_on_c, 1, 72, 92
7, 467159, Note_on_c, 1, 76, 0
7, 467159, Note_on_c, 1, 72, 0
7, 467160, Note_on_c, 1, 74, 92
7, 467160, Note_on_c, 1, 77, 92
7, 467219, Note_on_c, 1, 74, 0
7, 467219, Note_on_c, 1, 77, 0
7, 467220, Note_on_c, 1, 79, 92
7, 467220, Note_on_c, 1, 76, 92
7, 467264, Note_on_c, 1, 79, 0
7, 467264, Note_on_c, 1, 76, 0
7, 467280, Note_on_c, 1, 77, 92
7, 467280, Note_on_c, 1, 81, 92
7, 467369, Note_on_c, 1, 77, 0
7, 467369, Note_on_c, 1, 81, 0
7, 467520, Note_on_c, 1, 79, 92
7, 467520, Note_on_c, 1, 76, 92
7, 467609, Note_on_c, 1, 79, 0
7, 467609, Note_on_c, 1, 76, 0
7, 467640, Note_on_c, 1, 77, 92
7, 467640, Note_on_c, 1, 74, 92
7, 467729, Note_on_c, 1, 77, 0
7, 467729, Note_on_c, 1, 74, 0
7, 467880, Note_on_c, 1, 72, 92
7, 467880, Note_on_c, 1, 76, 92
7, 467969, Note_on_c, 1, 72, 0
7, 467969, Note_on_c, 1, 76, 0
7, 468000, Note_on_c, 1, 74, 92
7, 468000, Note_on_c, 1, 77, 92
7, 468089, Note_on_c, 1, 74, 0
7, 468089, Note_on_c, 1, 77, 0
7, 468240, Note_on_c, 1, 71, 92
7, 468240, Note_on_c, 1, 74, 92
7, 468329, Note_on_c, 1, 71, 0
7, 468329, Note_on_c, 1, 74, 0
7, 468360, Note_on_c, 1, 72, 92
7, 468360, Note_on_c, 1, 64, 92
7, 468449, Note_on_c, 1, 72, 0
7, 468449, Note_on_c, 1, 64, 0
7, 468480, Note_on_c, 1, 72, 92
7, 468480, Note_on_c, 1, 64, 92
7, 468599, Note_on_c, 1, 72, 0
7, 468599, Note_on_c, 1, 64, 0
7, 468600, Note_on_c, 1, 65, 92
7, 468600, Note_on_c, 1, 74, 92
7, 468659, Note_on_c, 1, 65, 0
7, 468659, Note_on_c, 1, 74, 0
7, 468660, Note_on_c, 1, 76, 92
7, 468660, Note_on_c, 1, 67, 92
7, 468704, Note_on_c, 1, 76, 0
7, 468704, Note_on_c, 1, 67, 0
7, 468720, Note_on_c, 1, 69, 92
7, 468720, Note_on_c, 1, 77, 92
7, 468809, Note_on_c, 1, 69, 0
7, 468809, Note_on_c, 1, 77, 0
7, 468840, Note_on_c, 1, 77, 92
7, 468840, Note_on_c, 1, 69, 92
7, 468929, Note_on_c, 1, 77, 0
7, 468929, Note_on_c, 1, 69, 0
7, 468960, Note_on_c, 1, 76, 92
7, 468960, Note_on_c, 1, 67, 92
7, 469049, Note_on_c, 1, 76, 0
7, 469049, Note_on_c, 1, 67, 0
7, 469080, Note_on_c, 1, 74, 92
7, 469080, Note_on_c, 1, 65, 92
7, 469169, Note_on_c, 1, 74, 0
7, 469169, Note_on_c, 1, 65, 0
7, 469200, Note_on_c, 1, 65, 92
7, 469200, Note_on_c, 1, 74, 92
7, 469289, Note_on_c, 1, 65, 0
7, 469289, Note_on_c, 1, 74, 0
7, 469320, Note_on_c, 1, 64, 92
7, 469320, Note_on_c, 1, 72, 92
7, 469409, Note_on_c, 1, 64, 0
7, 469409, Note_on_c, 1, 72, 0
7, 469440, Note_on_c, 1, 74, 92
7, 469440, Note_on_c, 1, 65, 92
7, 469529, Note_on_c, 1, 74, 0
7, 469529, Note_on_c, 1, 65, 0
7, 469560, Note_on_c, 1, 65, 92
7, 469560, Note_on_c, 1, 74, 92
7, 469649, Note_on_c, 1, 65, 0
7, 469649, Note_on_c, 1, 74, 0
7, 469680, Note_on_c, 1, 71, 92
7, 469680, Note_on_c, 1, 62, 92
7, 469769, Note_on_c, 1, 71, 0
7, 469769, Note_on_c, 1, 62, 0
7, 469800, Note_on_c, 1, 76, 92
7, 469800, Note_on_c, 1, 72, 92
7, 469889, Note_on_c, 1, 76, 0
7, 469889, Note_on_c, 1, 72, 0
7, 469920, Note_on_c, 1, 76, 92
7, 469920, Note_on_c, 1, 72, 92
7, 470039, Note_on_c, 1, 76, 0
7, 470039, Note_on_c, 1, 72, 0
7, 470040, Note_on_c, 1, 77, 92
7, 470040, Note_on_c, 1, 74, 92
7, 470099, Note_on_c, 1, 77, 0
7, 470099, Note_on_c, 1, 74, 0
7, 470100, Note_on_c, 1, 76, 92
7, 470100, Note_on_c, 1, 79, 92
7, 470144, Note_on_c, 1, 76, 0
7, 470144, Note_on_c, 1, 79, 0
7, 470160, Note_on_c, 1, 77, 92
7, 470160, Note_on_c, 1, 81, 92
7, 470249, Note_on_c, 1, 77, 0
7, 470249, Note_on_c, 1, 81, 0
7, 470280, Note_on_c, 1, 81, 92
7, 470280, Note_on_c, 1, 77, 92
7, 470369, Note_on_c, 1, 81, 0
7, 470369, Note_on_c, 1, 77, 0
7, 470400, Note_on_c, 1, 76, 92
7, 470400, Note_on_c, 1, 79, 92
7, 470489, Note_on_c, 1, 76, 0
7, 470489, Note_on_c, 1, 79, 0
7, 470520, Note_on_c, 1, 74, 92
7, 470520, Note_on_c, 1, 77, 92
7, 470609, Note_on_c, 1, 74, 0
7, 470609, Note_on_c, 1, 77, 0
7, 470640, Note_on_c, 1, 77, 92
7, 470640, Note_on_c, 1, 74, 92
7, 470729, Note_on_c, 1, 77, 0
7, 470729, Note_on_c, 1, 74, 0
7, 470760, Note_on_c, 1, 84, 92
7, 470760, Note_on_c, 1, 76, 92
7, 470849, Note_on_c, 1, 84, 0
7, 470849, Note_on_c, 1, 76, 0
7, 470880, Note_on_c, 1, 86, 92
7, 470880, Note_on_c, 1, 77, 92
7, 470969, Note_on_c, 1, 86, 0
7, 470969, Note_on_c, 1, 77, 0
7, 471000, Note_on_c, 1, 77, 92
7, 471000, Note_on_c, 1, 86, 92
7, 471089, Note_on_c, 1, 77, 0
7, 471089, Note_on_c, 1, 86, 0
7, 471120, Note_on_c, 1, 74, 92
7, 471120, Note_on_c, 1, 83, 92
7, 471209, Note_on_c, 1, 74, 0
7, 471209, Note_on_c, 1, 83, 0
7, 471240, Note_on_c, 1, 76, 92
7, 471404, Note_on_c, 1, 76, 0
7, 471420, Note_on_c, 1, 64, 92
7, 471464, Note_on_c, 1, 64, 0
7, 471480, Note_on_c, 1, 64, 92
7, 471584, Note_on_c, 1, 64, 0
7, 471600, Note_on_c, 1, 76, 92
7, 471600, Note_on_c, 1, 64, 92
7, 471689, Note_on_c, 1, 76, 0
7, 471689, Note_on_c, 1, 64, 0
7, 471720, Note_on_c, 1, 65, 92
7, 471720, Note_on_c, 1, 77, 92
7, 471809, Note_on_c, 1, 65, 0
7, 471809, Note_on_c, 1, 77, 0
7, 471840, Note_on_c, 1, 67, 92
7, 471840, Note_on_c, 1, 79, 92
7, 471929, Note_on_c, 1, 67, 0
7, 471929, Note_on_c, 1, 79, 0
7, 471960, Note_on_c, 1, 69, 92
7, 471960, Note_on_c, 1, 81, 92
7, 472079, Note_on_c, 1, 69, 0
7, 472079, Note_on_c, 1, 81, 0
7, 472320, Note_on_c, 1, 69, 92
7, 472320, Note_on_c, 1, 81, 92
7, 472409, Note_on_c, 1, 69, 0
7, 472409, Note_on_c, 1, 81, 0
7, 472440, Note_on_c, 1, 71, 92
7, 472440, Note_on_c, 1, 83, 92
7, 472529, Note_on_c, 1, 71, 0
7, 472529, Note_on_c, 1, 83, 0
7, 472560, Note_on_c, 1, 84, 92
7, 472560, Note_on_c, 1, 72, 92
7, 472649, Note_on_c, 1, 84, 0
7, 472649, Note_on_c, 1, 72, 0
7, 472680, Note_on_c, 1, 86, 92
7, 472680, Note_on_c, 1, 74, 92
7, 472844, Note_on_c, 1, 86, 0
7, 472844, Note_on_c, 1, 74, 0
7, 472860, Note_on_c, 1, 62, 92
7, 472860, Note_on_c, 1, 74, 92
7, 472904, Note_on_c, 1, 62, 0
7, 472904, Note_on_c, 1, 74, 0
7, 472920, Note_on_c, 1, 74, 92
7, 472920, Note_on_c, 1, 62, 92
7, 473024, Note_on_c, 1, 74, 0
7, 473024, Note_on_c, 1, 62, 0
7, 473040, Note_on_c, 1, 62, 92
7, 473040, Note_on_c, 1, 74, 92
7, 473129, Note_on_c, 1, 62, 0
7, 473129, Note_on_c, 1, 74, 0
7, 473160, Note_on_c, 1, 76, 92
7, 473160, Note_on_c, 1, 64, 92
7, 473249, Note_on_c, 1, 76, 0
7, 473249, Note_on_c, 1, 64, 0
7, 473280, Note_on_c, 1, 65, 92
7, 473280, Note_on_c, 1, 77, 92
7, 473369, Note_on_c, 1, 65, 0
7, 473369, Note_on_c, 1, 77, 0
7, 473400, Note_on_c, 1, 67, 92
7, 473400, Note_on_c, 1, 79, 92
7, 473519, Note_on_c, 1, 67, 0
7, 473519, Note_on_c, 1, 79, 0
7, 473760, Note_on_c, 1, 67, 92
7, 473760, Note_on_c, 1, 79, 92
7, 473849, Note_on_c, 1, 67, 0
7, 473849, Note_on_c, 1, 79, 0
7, 473880, Note_on_c, 1, 84, 92
7, 473880, Note_on_c, 1, 72, 92
7, 473969, Note_on_c, 1, 84, 0
7, 473969, Note_on_c, 1, 72, 0
7, 474000, Note_on_c, 1, 74, 92
7, 474000, Note_on_c, 1, 86, 92
7, 474089, Note_on_c, 1, 74, 0
7, 474089, Note_on_c, 1, 86, 0
7, 474120, Note_on_c, 1, 84, 44
7, 474120, Note_on_c, 1, 72, 44
7, 474239, Note_on_c, 1, 84, 0
7, 474239, Note_on_c, 1, 72, 0
7, 476160, Control_c, 1, 11, 67
7, 476280, Control_c, 1, 11, 67
7, 476280, Note_on_c, 1, 77, 80
7, 476280, Note_on_c, 1, 72, 80
7, 476310, Control_c, 1, 11, 68
7, 476340, Control_c, 1, 11, 70
7, 476370, Control_c, 1, 11, 71
7, 476400, Control_c, 1, 11, 72
7, 476430, Control_c, 1, 11, 73
7, 476460, Control_c, 1, 11, 75
7, 476490, Control_c, 1, 11, 76
7, 476520, Control_c, 1, 11, 77
7, 476550, Control_c, 1, 11, 78
7, 476580, Control_c, 1, 11, 80
7, 476610, Control_c, 1, 11, 81
7, 476639, Note_on_c, 1, 77, 0
7, 476640, Control_c, 1, 11, 82
7, 476640, Note_on_c, 1, 76, 80
7, 476670, Control_c, 1, 11, 83
7, 476700, Control_c, 1, 11, 85
7, 476730, Control_c, 1, 11, 86
7, 476760, Control_c, 1, 11, 87
7, 476790, Control_c, 1, 11, 88
7, 476820, Control_c, 1, 11, 90
7, 476850, Control_c, 1, 11, 91
7, 476880, Control_c, 1, 11, 92
7, 476910, Control_c, 1, 11, 93
7, 476940, Control_c, 1, 11, 95
7, 476970, Control_c, 1, 11, 96
7, 476984, Note_on_c, 1, 76, 0
7, 477000, Control_c, 1, 11, 97
7, 477000, Note_on_c, 1, 76, 80
7, 477030, Control_c, 1, 11, 98
7, 477060, Control_c, 1, 11, 100
7, 477090, Control_c, 1, 11, 101
7, 477120, Control_c, 1, 11, 102
7, 477150, Control_c, 1, 11, 103
7, 477180, Control_c, 1, 11, 105
7, 477210, Control_c, 1, 11, 106
7, 477240, Control_c, 1, 11, 107
7, 477270, Control_c, 1, 11, 108
7, 477300, Control_c, 1, 11, 110
7, 477330, Control_c, 1, 11, 111
7, 477360, Control_c, 1, 11, 112
7, 477390, Control_c, 1, 11, 113
7, 477420, Control_c, 1, 11, 115
7, 477450, Control_c, 1, 11, 116
7, 477479, Note_on_c, 1, 72, 0
7, 477479, Note_on_c, 1, 76, 0
7, 477480, Note_on_c, 1, 74, 80
7, 477480, Control_c, 1, 11, 117
7, 477480, Note_on_c, 1, 77, 80
7, 477510, Control_c, 1, 11, 118
7, 477540, Control_c, 1, 11, 120
7, 477570, Control_c, 1, 11, 121
7, 477599, Note_on_c, 1, 74, 0
7, 477599, Note_on_c, 1, 77, 0
7, 477600, Note_on_c, 1, 79, 80
7, 477600, Note_on_c, 1, 76, 80
7, 477600, Control_c, 1, 11, 122
7, 477630, Control_c, 1, 11, 123
7, 477660, Control_c, 1, 11, 125
7, 477690, Control_c, 1, 11, 127
7, 477704, Note_on_c, 1, 79, 0
7, 477704, Note_on_c, 1, 76, 0
7, 477720, Note_on_c, 1, 79, 80
7, 477720, Note_on_c, 1, 67, 80
7, 477809, Note_on_c, 1, 79, 0
7, 477809, Note_on_c, 1, 67, 0
7, 477840, Note_on_c, 1, 64, 80
7, 477840, Note_on_c, 1, 76, 80
7, 477929, Note_on_c, 1, 64, 0
7, 477929, Note_on_c, 1, 76, 0
7, 477960, Note_on_c, 1, 69, 80
7, 477960, Note_on_c, 1, 81, 80
7, 478049, Note_on_c, 1, 69, 0
7, 478049, Note_on_c, 1, 81, 0
7, 478080, Note_on_c, 1, 77, 80
7, 478080, Note_on_c, 1, 65, 80
7, 478169, Note_on_c, 1, 77, 0
7, 478169, Note_on_c, 1, 65, 0
7, 478200, Note_on_c, 1, 62, 80
7, 478200, Note_on_c, 1, 74, 80
7, 478289, Note_on_c, 1, 62, 0
7, 478289, Note_on_c, 1, 74, 0
7, 478320, Note_on_c, 1, 79, 80
7, 478320, Note_on_c, 1, 67, 80
7, 478409, Note_on_c, 1, 79, 0
7, 478409, Note_on_c, 1, 67, 0
7, 478440, Note_on_c, 1, 76, 80
7, 478440, Note_on_c, 1, 64, 80
7, 478559, Note_on_c, 1, 76, 0
7, 478559, Note_on_c, 1, 64, 0
7, 479160, Note_on_c, 1, 67, 80
7, 479160, Note_on_c, 1, 79, 80
7, 479249, Note_on_c, 1, 67, 0
7, 479249, Note_on_c, 1, 79, 0
7, 479280, Note_on_c, 1, 64, 80
7, 479280, Note_on_c, 1, 76, 80
7, 479369, Note_on_c, 1, 64, 0
7, 479369, Note_on_c, 1, 76, 0
7, 479400, Note_on_c, 1, 69, 80
7, 479400, Note_on_c, 1, 81, 80
7, 479489, Note_on_c, 1, 69, 0
7, 479489, Note_on_c, 1, 81, 0
7, 479520, Note_on_c, 1, 77, 80
7, 479520, Note_on_c, 1, 65, 80
7, 479609, Note_on_c, 1, 77, 0
7, 479609, Note_on_c, 1, 65, 0
7, 479640, Note_on_c, 1, 62, 80
7, 479640, Note_on_c, 1, 74, 80
7, 479729, Note_on_c, 1, 62, 0
7, 479729, Note_on_c, 1, 74, 0
7, 479760, Note_on_c, 1, 67, 80
7, 479760, Note_on_c, 1, 79, 80
7, 479849, Note_on_c, 1, 67, 0
7, 479849, Note_on_c, 1, 79, 0
7, 479880, Note_on_c, 1, 79, 80
7, 479880, Note_on_c, 1, 67, 80
7, 479969, Note_on_c, 1, 79, 0
7, 479969, Note_on_c, 1, 67, 0
7, 480000, Note_on_c, 1, 79, 80
7, 480000, Note_on_c, 1, 67, 80
7, 480089, Note_on_c, 1, 79, 0
7, 480089, Note_on_c, 1, 67, 0
7, 480120, Note_on_c, 1, 79, 80
7, 480120, Note_on_c, 1, 67, 80
7, 480209, Note_on_c, 1, 79, 0
7, 480209, Note_on_c, 1, 67, 0
7, 480240, Note_on_c, 1, 79, 80
7, 480240, Note_on_c, 1, 67, 80
7, 480329, Note_on_c, 1, 79, 0
7, 480329, Note_on_c, 1, 67, 0
7, 480360, Note_on_c, 1, 79, 80
7, 480360, Note_on_c, 1, 67, 80
7, 480449, Note_on_c, 1, 79, 0
7, 480449, Note_on_c, 1, 67, 0
7, 480480, Note_on_c, 1, 67, 80
7, 480480, Note_on_c, 1, 79, 80
7, 480569, Note_on_c, 1, 67, 0
7, 480569, Note_on_c, 1, 79, 0
7, 480600, Note_on_c, 1, 84, 80
7, 480600, Note_on_c, 1, 76, 80
7, 480689, Note_on_c, 1, 84, 0
7, 480689, Note_on_c, 1, 76, 0
7, 480720, Note_on_c, 1, 79, 80
7, 480720, Note_on_c, 1, 76, 80
7, 480809, Note_on_c, 1, 79, 0
7, 480809, Note_on_c, 1, 76, 0
7, 480840, Note_on_c, 1, 76, 80
7, 480840, Note_on_c, 1, 84, 80
7, 480929, Note_on_c, 1, 76, 0
7, 480929, Note_on_c, 1, 84, 0
7, 480960, Note_on_c, 1, 77, 80
7, 480960, Note_on_c, 1, 86, 80
7, 481049, Note_on_c, 1, 77, 0
7, 481049, Note_on_c, 1, 86, 0
7, 481080, Note_on_c, 1, 77, 80
7, 481080, Note_on_c, 1, 79, 80
7, 481169, Note_on_c, 1, 77, 0
7, 481169, Note_on_c, 1, 79, 0
7, 481200, Note_on_c, 1, 77, 80
7, 481200, Note_on_c, 1, 86, 80
7, 481289, Note_on_c, 1, 77, 0
7, 481289, Note_on_c, 1, 86, 0
7, 481320, Note_on_c, 1, 84, 80
7, 481320, Note_on_c, 1, 76, 80
7, 481409, Note_on_c, 1, 84, 0
7, 481409, Note_on_c, 1, 76, 0
7, 481440, Note_on_c, 1, 76, 80
7, 481440, Note_on_c, 1, 79, 80
7, 481529, Note_on_c, 1, 76, 0
7, 481529, Note_on_c, 1, 79, 0
7, 481560, Note_on_c, 1, 84, 80
7, 481560, Note_on_c, 1, 76, 80
7, 481649, Note_on_c, 1, 84, 0
7, 481649, Note_on_c, 1, 76, 0
7, 481680, Note_on_c, 1, 77, 80
7, 481680, Note_on_c, 1, 86, 80
7, 481769, Note_on_c, 1, 77, 0
7, 481769, Note_on_c, 1, 86, 0
7, 481800, Note_on_c, 1, 77, 80
7, 481800, Note_on_c, 1, 79, 80
7, 481889, Note_on_c, 1, 77, 0
7, 481889, Note_on_c, 1, 79, 0
7, 481920, Note_on_c, 1, 86, 80
7, 481920, Note_on_c, 1, 77, 80
7, 482009, Note_on_c, 1, 86, 0
7, 482009, Note_on_c, 1, 77, 0
7, 482400, Note_on_c, 1, 72, 32
7, 482519, Note_on_c, 1, 72, 0
7, 482520, Note_on_c, 1, 74, 32
7, 482639, Note_on_c, 1, 74, 0
7, 482640, Note_on_c, 1, 76, 32
7, 482759, Note_on_c, 1, 76, 0
7, 482760, Note_on_c, 1, 77, 32
7, 482879, Note_on_c, 1, 77, 0
7, 482880, Note_on_c, 1, 76, 32
7, 482999, Note_on_c, 1, 76, 0
7, 483000, Note_on_c, 1, 77, 32
7, 483119, Note_on_c, 1, 77, 0
7, 483120, Note_on_c, 1, 79, 32
7, 483239, Note_on_c, 1, 79, 0
7, 483240, Note_on_c, 1, 81, 32
7, 483359, Note_on_c, 1, 81, 0
7, 483360, Note_on_c, 1, 83, 32
7, 483479, Note_on_c, 1, 83, 0
7, 483480, Note_on_c, 1, 84, 32
7, 483599, Note_on_c, 1, 84, 0
7, 483840, Note_on_c, 1, 72, 32
7, 484004, Note_on_c, 1, 72, 0
7, 484020, Note_on_c, 1, 72, 32
7, 484064, Note_on_c, 1, 72, 0
7, 484080, Note_on_c, 1, 72, 32
7, 484184, Note_on_c, 1, 72, 0
7, 484200, Note_on_c, 1, 72, 32
7, 484319, Note_on_c, 1, 72, 0
7, 484560, Note_on_c, 1, 74, 32
7, 484724, Note_on_c, 1, 74, 0
7, 484740, Note_on_c, 1, 74, 32
7, 484784, Note_on_c, 1, 74, 0
7, 484800, Note_on_c, 1, 74, 32
7, 484904, Note_on_c, 1, 74, 0
7, 484920, Note_on_c, 1, 74, 32
7, 485039, Note_on_c, 1, 74, 0
7, 486720, Note_on_c, 1, 70, 32
7, 486720, Note_on_c, 1, 74, 32
7, 486884, Note_on_c, 1, 70, 0
7, 486884, Note_on_c, 1, 74, 0
7, 486900, Note_on_c, 1, 70, 32
7, 486900, Note_on_c, 1, 74, 32
7, 486944, Note_on_c, 1, 70, 0
7, 486944, Note_on_c, 1, 74, 0
7, 486960, Note_on_c, 1, 74, 32
7, 486960, Note_on_c, 1, 70, 32
7, 487064, Note_on_c, 1, 74, 0
7, 487064, Note_on_c, 1, 70, 0
7, 487080, Note_on_c, 1, 70, 32
7, 487080, Note_on_c, 1, 74, 32
7, 487199, Note_on_c, 1, 70, 0
7, 487199, Note_on_c, 1, 74, 0
7, 487440, Note_on_c, 1, 70, 32
7, 487440, Note_on_c, 1, 75, 32
7, 487604, Note_on_c, 1, 70, 0
7, 487604, Note_on_c, 1, 75, 0
7, 487620, Note_on_c, 1, 70, 32
7, 487620, Note_on_c, 1, 75, 32
7, 487664, Note_on_c, 1, 70, 0
7, 487664, Note_on_c, 1, 75, 0
7, 487680, Note_on_c, 1, 70, 32
7, 487680, Note_on_c, 1, 75, 32
7, 487784, Note_on_c, 1, 70, 0
7, 487784, Note_on_c, 1, 75, 0
7, 487800, Note_on_c, 1, 75, 32
7, 487800, Note_on_c, 1, 70, 32
7, 487919, Note_on_c, 1, 75, 0
7, 487919, Note_on_c, 1, 70, 0
7, 489600, Note_on_c, 1, 67, 36
7, 489600, Note_on_c, 1, 75, 36
7, 489764, Note_on_c, 1, 67, 0
7, 489764, Note_on_c, 1, 75, 0
7, 489780, Note_on_c, 1, 75, 38
7, 489780, Note_on_c, 1, 67, 38
7, 489824, Note_on_c, 1, 75, 0
7, 489824, Note_on_c, 1, 67, 0
7, 489840, Note_on_c, 1, 67, 38
7, 489840, Note_on_c, 1, 75, 38
7, 489944, Note_on_c, 1, 67, 0
7, 489944, Note_on_c, 1, 75, 0
7, 489960, Note_on_c, 1, 72, 40
7, 489960, Note_on_c, 1, 75, 40
7, 490079, Note_on_c, 1, 72, 0
7, 490079, Note_on_c, 1, 75, 0
7, 490320, Note_on_c, 1, 72, 44
7, 490320, Note_on_c, 1, 77, 44
7, 490484, Note_on_c, 1, 72, 0
7, 490484, Note_on_c, 1, 77, 0
7, 490500, Note_on_c, 1, 77, 46
7, 490500, Note_on_c, 1, 72, 46
7, 490544, Note_on_c, 1, 77, 0
7, 490544, Note_on_c, 1, 72, 0
7, 490560, Note_on_c, 1, 77, 46
7, 490560, Note_on_c, 1, 72, 46
7, 490664, Note_on_c, 1, 77, 0
7, 490664, Note_on_c, 1, 72, 0
7, 490680, Note_on_c, 1, 73, 48
7, 490680, Note_on_c, 1, 77, 48
7, 490799, Note_on_c, 1, 73, 0
7, 490799, Note_on_c, 1, 77, 0
7, 491040, Note_on_c, 1, 77, 52
7, 491040, Note_on_c, 1, 73, 52
7, 491204, Note_on_c, 1, 77, 0
7, 491204, Note_on_c, 1, 73, 0
7, 491220, Note_on_c, 1, 77, 54
7, 491220, Note_on_c, 1, 73, 54
7, 491264, Note_on_c, 1, 77, 0
7, 491264, Note_on_c, 1, 73, 0
7, 491280, Note_on_c, 1, 73, 54
7, 491280, Note_on_c, 1, 77, 54
7, 491384, Note_on_c, 1, 73, 0
7, 491384, Note_on_c, 1, 77, 0
7, 491400, Note_on_c, 1, 78, 56
7, 491400, Note_on_c, 1, 73, 56
7, 491519, Note_on_c, 1, 78, 0
7, 491519, Note_on_c, 1, 73, 0
7, 491760, Note_on_c, 1, 75, 60
7, 491760, Note_on_c, 1, 78, 60
7, 491924, Note_on_c, 1, 75, 0
7, 491924, Note_on_c, 1, 78, 0
7, 491940, Note_on_c, 1, 78, 62
7, 491940, Note_on_c, 1, 75, 62
7, 491984, Note_on_c, 1, 78, 0
7, 491984, Note_on_c, 1, 75, 0
7, 492000, Note_on_c, 1, 78, 62
7, 492000, Note_on_c, 1, 75, 62
7, 492104, Note_on_c, 1, 78, 0
7, 492104, Note_on_c, 1, 75, 0
7, 492120, Note_on_c, 1, 78, 64
7, 492120, Note_on_c, 1, 75, 64
7, 492239, Note_on_c, 1, 78, 0
7, 492239, Note_on_c, 1, 75, 0
7, 492480, Note_on_c, 1, 75, 68
7, 492480, Note_on_c, 1, 80, 68
7, 492644, Note_on_c, 1, 75, 0
7, 492644, Note_on_c, 1, 80, 0
7, 492660, Note_on_c, 1, 75, 70
7, 492660, Note_on_c, 1, 80, 70
7, 492704, Note_on_c, 1, 75, 0
7, 492704, Note_on_c, 1, 80, 0
7, 492720, Note_on_c, 1, 75, 70
7, 492720, Note_on_c, 1, 80, 70
7, 492824, Note_on_c, 1, 75, 0
7, 492824, Note_on_c, 1, 80, 0
7, 492840, Note_on_c, 1, 80, 72
7, 492840, Note_on_c, 1, 76, 72
7, 492959, Note_on_c, 1, 80, 0
7, 492959, Note_on_c, 1, 76, 0
7, 493200, Note_on_c, 1, 80, 76
7, 493200, Note_on_c, 1, 76, 76
7, 493364, Note_on_c, 1, 80, 0
7, 493364, Note_on_c, 1, 76, 0
7, 493380, Note_on_c, 1, 80, 78
7, 493380, Note_on_c, 1, 76, 78
7, 493424, Note_on_c, 1, 80, 0
7, 493424, Note_on_c, 1, 76, 0
7, 493440, Note_on_c, 1, 80, 78
7, 493440, Note_on_c, 1, 76, 78
7, 493544, Note_on_c, 1, 80, 0
7, 493544, Note_on_c, 1, 76, 0
7, 493560, Note_on_c, 1, 76, 80
7, 493560, Note_on_c, 1, 81, 80
7, 493679, Note_on_c, 1, 76, 0
7, 493679, Note_on_c, 1, 81, 0
7, 493920, Note_on_c, 1, 81, 80
7, 494084, Note_on_c, 1, 81, 0
7, 494100, Note_on_c, 1, 69, 80
7, 494144, Note_on_c, 1, 69, 0
7, 494160, Note_on_c, 1, 69, 80
7, 494264, Note_on_c, 1, 69, 0
7, 494640, Note_on_c, 1, 70, 92
7, 494640, Note_on_c, 1, 82, 92
7, 494804, Note_on_c, 1, 70, 0
7, 494804, Note_on_c, 1, 82, 0
7, 494820, Note_on_c, 1, 70, 92
7, 494864, Note_on_c, 1, 70, 0
7, 494880, Note_on_c, 1, 70, 92
7, 494984, Note_on_c, 1, 70, 0
7, 495360, Note_on_c, 1, 83, 92
7, 495360, Note_on_c, 1, 71, 92
7, 495524, Note_on_c, 1, 83, 0
7, 495524, Note_on_c, 1, 71, 0
7, 495540, Note_on_c, 1, 71, 92
7, 495584, Note_on_c, 1, 71, 0
7, 495600, Note_on_c, 1, 71, 92
7, 496049, Note_on_c, 1, 71, 0
7, 497160, Note_on_c, 1, 83, 44
7, 497324, Note_on_c, 1, 83, 0
7, 497340, Note_on_c, 1, 71, 44
7, 497384, Note_on_c, 1, 71, 0
7, 497400, Note_on_c, 1, 71, 44
7, 497504, Note_on_c, 1, 71, 0
7, 497520, Note_on_c, 1, 76, 44
7, 497624, Note_on_c, 1, 76, 0
7, 497640, Note_on_c, 1, 78, 44
7, 497640, Note_on_c, 1, 75, 44
7, 497729, Note_on_c, 1, 78, 0
7, 497729, Note_on_c, 1, 75, 0
7, 497760, Note_on_c, 1, 76, 44
7, 497760, Note_on_c, 1, 79, 44
7, 497849, Note_on_c, 1, 76, 0
7, 497849, Note_on_c, 1, 79, 0
7, 497880, Note_on_c, 1, 75, 44
7, 497880, Note_on_c, 1, 78, 44
7, 497969, Note_on_c, 1, 75, 0
7, 497969, Note_on_c, 1, 78, 0
7, 498000, Note_on_c, 1, 76, 44
7, 498000, Note_on_c, 1, 79, 44
7, 498089, Note_on_c, 1, 76, 0
7, 498089, Note_on_c, 1, 79, 0
7, 498120, Note_on_c, 1, 81, 44
7, 498120, Note_on_c, 1, 78, 44
7, 498209, Note_on_c, 1, 81, 0
7, 498209, Note_on_c, 1, 78, 0
7, 498240, Note_on_c, 1, 79, 44
7, 498240, Note_on_c, 1, 76, 44
7, 498329, Note_on_c, 1, 79, 0
7, 498329, Note_on_c, 1, 76, 0
7, 498360, Note_on_c, 1, 79, 44
7, 498360, Note_on_c, 1, 83, 44
7, 498449, Note_on_c, 1, 79, 0
7, 498449, Note_on_c, 1, 83, 0
7, 498480, Note_on_c, 1, 83, 44
7, 498480, Note_on_c, 1, 79, 44
7, 498569, Note_on_c, 1, 83, 0
7, 498569, Note_on_c, 1, 79, 0
7, 498600, Note_on_c, 1, 83, 44
7, 498600, Note_on_c, 1, 79, 44
7, 498689, Note_on_c, 1, 83, 0
7, 498689, Note_on_c, 1, 79, 0
7, 498720, Note_on_c, 1, 78, 44
7, 498720, Note_on_c, 1, 81, 44
7, 498809, Note_on_c, 1, 78, 0
7, 498809, Note_on_c, 1, 81, 0
7, 498840, Note_on_c, 1, 79, 44
7, 498840, Note_on_c, 1, 76, 44
7, 498929, Note_on_c, 1, 79, 0
7, 498929, Note_on_c, 1, 76, 0
7, 498960, Note_on_c, 1, 78, 44
7, 498960, Note_on_c, 1, 81, 44
7, 499049, Note_on_c, 1, 78, 0
7, 499049, Note_on_c, 1, 81, 0
7, 499080, Note_on_c, 1, 76, 44
7, 499080, Note_on_c, 1, 79, 44
7, 499169, Note_on_c, 1, 76, 0
7, 499169, Note_on_c, 1, 79, 0
7, 499200, Note_on_c, 1, 75, 44
7, 499200, Note_on_c, 1, 78, 44
7, 499289, Note_on_c, 1, 75, 0
7, 499289, Note_on_c, 1, 78, 0
7, 499320, Note_on_c, 1, 76, 44
7, 499484, Note_on_c, 1, 76, 0
7, 499500, Note_on_c, 1, 64, 44
7, 499544, Note_on_c, 1, 64, 0
7, 499560, Note_on_c, 1, 64, 44
7, 499664, Note_on_c, 1, 64, 0
7, 499680, Note_on_c, 1, 76, 44
7, 499769, Note_on_c, 1, 76, 0
7, 499800, Note_on_c, 1, 80, 44
7, 499889, Note_on_c, 1, 80, 0
7, 499920, Note_on_c, 1, 81, 44
7, 500009, Note_on_c, 1, 81, 0
7, 500040, Note_on_c, 1, 80, 44
7, 500129, Note_on_c, 1, 80, 0
7, 500160, Note_on_c, 1, 81, 44
7, 500249, Note_on_c, 1, 81, 0
7, 500280, Note_on_c, 1, 83, 44
7, 500369, Note_on_c, 1, 83, 0
7, 500400, Note_on_c, 1, 81, 44
7, 500489, Note_on_c, 1, 81, 0
7, 500520, Note_on_c, 1, 84, 44
7, 500609, Note_on_c, 1, 84, 0
7, 500640, Note_on_c, 1, 84, 44
7, 500729, Note_on_c, 1, 84, 0
7, 500760, Note_on_c, 1, 84, 44
7, 500849, Note_on_c, 1, 84, 0
7, 500880, Note_on_c, 1, 83, 44
7, 500969, Note_on_c, 1, 83, 0
7, 501000, Note_on_c, 1, 81, 44
7, 501089, Note_on_c, 1, 81, 0
7, 501120, Note_on_c, 1, 83, 44
7, 501209, Note_on_c, 1, 83, 0
7, 501240, Note_on_c, 1, 81, 44
7, 501329, Note_on_c, 1, 81, 0
7, 501360, Note_on_c, 1, 80, 44
7, 501449, Note_on_c, 1, 80, 0
7, 501480, Note_on_c, 1, 76, 44
7, 501644, Note_on_c, 1, 76, 0
7, 501660, Note_on_c, 1, 64, 44
7, 501704, Note_on_c, 1, 64, 0
7, 501720, Note_on_c, 1, 64, 44
7, 501824, Note_on_c, 1, 64, 0
7, 501840, Note_on_c, 1, 76, 44
7, 501929, Note_on_c, 1, 76, 0
7, 501960, Note_on_c, 1, 80, 44
7, 502049, Note_on_c, 1, 80, 0
7, 502080, Note_on_c, 1, 81, 44
7, 502169, Note_on_c, 1, 81, 0
7, 502200, Note_on_c, 1, 80, 44
7, 502289, Note_on_c, 1, 80, 0
7, 502320, Note_on_c, 1, 81, 44
7, 502409, Note_on_c, 1, 81, 0
7, 502440, Note_on_c, 1, 83, 44
7, 502529, Note_on_c, 1, 83, 0
7, 502920, Note_on_c, 1, 77, 44
7, 503009, Note_on_c, 1, 77, 0
7, 503040, Note_on_c, 1, 79, 44
7, 503129, Note_on_c, 1, 79, 0
7, 503160, Note_on_c, 1, 81, 44
7, 503249, Note_on_c, 1, 81, 0
7, 503280, Note_on_c, 1, 79, 44
7, 503369, Note_on_c, 1, 79, 0
7, 503400, Note_on_c, 1, 81, 44
7, 503489, Note_on_c, 1, 81, 0
7, 503520, Note_on_c, 1, 82, 44
7, 503609, Note_on_c, 1, 82, 0
7, 504000, Note_on_c, 1, 81, 44
7, 504089, Note_on_c, 1, 81, 0
7, 504120, Note_on_c, 1, 79, 44
7, 504209, Note_on_c, 1, 79, 0
7, 504240, Note_on_c, 1, 81, 44
7, 504329, Note_on_c, 1, 81, 0
7, 504360, Note_on_c, 1, 79, 44
7, 504449, Note_on_c, 1, 79, 0
7, 504480, Note_on_c, 1, 81, 44
7, 504569, Note_on_c, 1, 81, 0
7, 504600, Note_on_c, 1, 82, 44
7, 504689, Note_on_c, 1, 82, 0
7, 505080, Note_on_c, 1, 81, 44
7, 505080, Note_on_c, 1, 77, 44
7, 505169, Note_on_c, 1, 81, 0
7, 505169, Note_on_c, 1, 77, 0
7, 505200, Note_on_c, 1, 79, 44
7, 505200, Note_on_c, 1, 82, 44
7, 505289, Note_on_c, 1, 79, 0
7, 505289, Note_on_c, 1, 82, 0
7, 505320, Note_on_c, 1, 84, 44
7, 505320, Note_on_c, 1, 81, 44
7, 505409, Note_on_c, 1, 84, 0
7, 505409, Note_on_c, 1, 81, 0
7, 505440, Note_on_c, 1, 82, 44
7, 505440, Note_on_c, 1, 79, 44
7, 505529, Note_on_c, 1, 82, 0
7, 505529, Note_on_c, 1, 79, 0
7, 505560, Note_on_c, 1, 84, 44
7, 505560, Note_on_c, 1, 81, 44
7, 505649, Note_on_c, 1, 84, 0
7, 505649, Note_on_c, 1, 81, 0
7, 505680, Note_on_c, 1, 82, 44
7, 505680, Note_on_c, 1, 86, 44
7, 505769, Note_on_c, 1, 82, 0
7, 505769, Note_on_c, 1, 86, 0
7, 506160, Note_on_c, 1, 72, 44
7, 506160, Note_on_c, 1, 69, 44
7, 506249, Note_on_c, 1, 72, 0
7, 506249, Note_on_c, 1, 69, 0
7, 506280, Note_on_c, 1, 67, 44
7, 506280, Note_on_c, 1, 76, 44
7, 506369, Note_on_c, 1, 67, 0
7, 506369, Note_on_c, 1, 76, 0
7, 506400, Note_on_c, 1, 69, 44
7, 506400, Note_on_c, 1, 77, 44
7, 506489, Note_on_c, 1, 69, 0
7, 506489, Note_on_c, 1, 77, 0
7, 506520, Note_on_c, 1, 67, 44
7, 506520, Note_on_c, 1, 76, 44
7, 506609, Note_on_c, 1, 67, 0
7, 506609, Note_on_c, 1, 76, 0
7, 506640, Note_on_c, 1, 77, 44
7, 506640, Note_on_c, 1, 69, 44
7, 506729, Note_on_c, 1, 77, 0
7, 506729, Note_on_c, 1, 69, 0
7, 506760, Note_on_c, 1, 70, 44
7, 506760, Note_on_c, 1, 79, 44
7, 506849, Note_on_c, 1, 70, 0
7, 506849, Note_on_c, 1, 79, 0
7, 506880, Note_on_c, 1, 77, 44
7, 506880, Note_on_c, 1, 81, 44
7, 506969, Note_on_c, 1, 77, 0
7, 506969, Note_on_c, 1, 81, 0
7, 507000, Note_on_c, 1, 79, 44
7, 507000, Note_on_c, 1, 82, 44
7, 507089, Note_on_c, 1, 79, 0
7, 507089, Note_on_c, 1, 82, 0
7, 507120, Note_on_c, 1, 84, 44
7, 507120, Note_on_c, 1, 81, 44
7, 507209, Note_on_c, 1, 84, 0
7, 507209, Note_on_c, 1, 81, 0
7, 507240, Note_on_c, 1, 84, 44
7, 507240, Note_on_c, 1, 81, 44
7, 507329, Note_on_c, 1, 84, 0
7, 507329, Note_on_c, 1, 81, 0
7, 507360, Note_on_c, 1, 82, 44
7, 507360, Note_on_c, 1, 79, 44
7, 507449, Note_on_c, 1, 82, 0
7, 507449, Note_on_c, 1, 79, 0
7, 507480, Note_on_c, 1, 81, 44
7, 507480, Note_on_c, 1, 77, 44
7, 507569, Note_on_c, 1, 81, 0
7, 507569, Note_on_c, 1, 77, 0
7, 507600, Note_on_c, 1, 77, 43
7, 507600, Note_on_c, 1, 81, 43
7, 507689, Note_on_c, 1, 77, 0
7, 507689, Note_on_c, 1, 81, 0
7, 507720, Note_on_c, 1, 82, 43
7, 507720, Note_on_c, 1, 79, 43
7, 507809, Note_on_c, 1, 82, 0
7, 507809, Note_on_c, 1, 79, 0
7, 507840, Note_on_c, 1, 81, 43
7, 507840, Note_on_c, 1, 77, 43
7, 507929, Note_on_c, 1, 81, 0
7, 507929, Note_on_c, 1, 77, 0
7, 508320, Note_on_c, 1, 72, 41
7, 508484, Note_on_c, 1, 72, 0
7, 508500, Note_on_c, 1, 60, 41
7, 508544, Note_on_c, 1, 60, 0
7, 508560, Note_on_c, 1, 60, 40
7, 508664, Note_on_c, 1, 60, 0
7, 509040, Note_on_c, 1, 77, 39
7, 509040, Note_on_c, 1, 74, 39
7, 509144, Note_on_c, 1, 77, 0
7, 509144, Note_on_c, 1, 74, 0
7, 509160, Note_on_c, 1, 79, 39
7, 509160, Note_on_c, 1, 76, 39
7, 509264, Note_on_c, 1, 79, 0
7, 509264, Note_on_c, 1, 76, 0
7, 509280, Note_on_c, 1, 81, 38
7, 509280, Note_on_c, 1, 77, 38
7, 509384, Note_on_c, 1, 81, 0
7, 509384, Note_on_c, 1, 77, 0
7, 509400, Note_on_c, 1, 77, 38
7, 509400, Note_on_c, 1, 81, 38
7, 509504, Note_on_c, 1, 77, 0
7, 509504, Note_on_c, 1, 81, 0
7, 509520, Note_on_c, 1, 79, 38
7, 509520, Note_on_c, 1, 76, 38
7, 509624, Note_on_c, 1, 79, 0
7, 509624, Note_on_c, 1, 76, 0
7, 509640, Note_on_c, 1, 77, 37
7, 509640, Note_on_c, 1, 74, 37
7, 509744, Note_on_c, 1, 77, 0
7, 509744, Note_on_c, 1, 74, 0
7, 509760, Note_on_c, 1, 77, 37
7, 509760, Note_on_c, 1, 74, 37
7, 509864, Note_on_c, 1, 77, 0
7, 509864, Note_on_c, 1, 74, 0
7, 509880, Note_on_c, 1, 79, 36
7, 509880, Note_on_c, 1, 76, 36
7, 509984, Note_on_c, 1, 79, 0
7, 509984, Note_on_c, 1, 76, 0
7, 510000, Note_on_c, 1, 77, 36
7, 510000, Note_on_c, 1, 74, 36
7, 510119, Note_on_c, 1, 77, 0
7, 510119, Note_on_c, 1, 74, 0
7, 511200, Note_on_c, 1, 77, 32
7, 511200, Note_on_c, 1, 74, 32
7, 511304, Note_on_c, 1, 77, 0
7, 511304, Note_on_c, 1, 74, 0
7, 511320, Note_on_c, 1, 79, 32
7, 511320, Note_on_c, 1, 76, 32
7, 511424, Note_on_c, 1, 79, 0
7, 511424, Note_on_c, 1, 76, 0
7, 511440, Note_on_c, 1, 81, 32
7, 511440, Note_on_c, 1, 77, 32
7, 511544, Note_on_c, 1, 81, 0
7, 511544, Note_on_c, 1, 77, 0
7, 511560, Note_on_c, 1, 81, 32
7, 511560, Note_on_c, 1, 77, 32
7, 511664, Note_on_c, 1, 81, 0
7, 511664, Note_on_c, 1, 77, 0
7, 511680, Note_on_c, 1, 76, 32
7, 511680, Note_on_c, 1, 79, 32
7, 511784, Note_on_c, 1, 76, 0
7, 511784, Note_on_c, 1, 79, 0
7, 511800, Note_on_c, 1, 74, 32
7, 511800, Note_on_c, 1, 77, 32
7, 511904, Note_on_c, 1, 74, 0
7, 511904, Note_on_c, 1, 77, 0
7, 511920, Note_on_c, 1, 74, 32
7, 511920, Note_on_c, 1, 77, 32
7, 512024, Note_on_c, 1, 74, 0
7, 512024, Note_on_c, 1, 77, 0
7, 512040, Note_on_c, 1, 79, 32
7, 512040, Note_on_c, 1, 76, 32
7, 512144, Note_on_c, 1, 79, 0
7, 512144, Note_on_c, 1, 76, 0
7, 512160, Note_on_c, 1, 77, 32
7, 512160, Note_on_c, 1, 74, 32
7, 512279, Note_on_c, 1, 77, 0
7, 512279, Note_on_c, 1, 74, 0
7, 513360, Note_on_c, 1, 81, 32
7, 513524, Note_on_c, 1, 81, 0
7, 513540, Note_on_c, 1, 69, 32
7, 513584, Note_on_c, 1, 69, 0
7, 513600, Note_on_c, 1, 69, 32
7, 513704, Note_on_c, 1, 69, 0
7, 513720, Note_on_c, 1, 74, 32
7, 513824, Note_on_c, 1, 74, 0
7, 513840, Note_on_c, 1, 73, 32
7, 513840, Note_on_c, 1, 76, 32
7, 513944, Note_on_c, 1, 73, 0
7, 513944, Note_on_c, 1, 76, 0
7, 513960, Note_on_c, 1, 77, 32
7, 513960, Note_on_c, 1, 74, 32
7, 514064, Note_on_c, 1, 77, 0
7, 514064, Note_on_c, 1, 74, 0
7, 514080, Note_on_c, 1, 73, 32
7, 514080, Note_on_c, 1, 76, 32
7, 514184, Note_on_c, 1, 73, 0
7, 514184, Note_on_c, 1, 76, 0
7, 514200, Note_on_c, 1, 77, 32
7, 514200, Note_on_c, 1, 74, 32
7, 514304, Note_on_c, 1, 77, 0
7, 514304, Note_on_c, 1, 74, 0
7, 514320, Note_on_c, 1, 76, 32
7, 514320, Note_on_c, 1, 79, 32
7, 514424, Note_on_c, 1, 76, 0
7, 514424, Note_on_c, 1, 79, 0
7, 514440, Note_on_c, 1, 77, 32
7, 514440, Note_on_c, 1, 74, 32
7, 514544, Note_on_c, 1, 77, 0
7, 514544, Note_on_c, 1, 74, 0
7, 514560, Note_on_c, 1, 77, 32
7, 514560, Note_on_c, 1, 81, 32
7, 514664, Note_on_c, 1, 77, 0
7, 514664, Note_on_c, 1, 81, 0
7, 514680, Note_on_c, 1, 81, 32
7, 514680, Note_on_c, 1, 77, 32
7, 514784, Note_on_c, 1, 81, 0
7, 514784, Note_on_c, 1, 77, 0
7, 514800, Note_on_c, 1, 81, 32
7, 514800, Note_on_c, 1, 77, 32
7, 514904, Note_on_c, 1, 81, 0
7, 514904, Note_on_c, 1, 77, 0
7, 514920, Note_on_c, 1, 79, 32
7, 514920, Note_on_c, 1, 76, 32
7, 515024, Note_on_c, 1, 79, 0
7, 515024, Note_on_c, 1, 76, 0
7, 515040, Note_on_c, 1, 77, 32
7, 515040, Note_on_c, 1, 74, 32
7, 515144, Note_on_c, 1, 77, 0
7, 515144, Note_on_c, 1, 74, 0
7, 515160, Note_on_c, 1, 76, 32
7, 515160, Note_on_c, 1, 79, 32
7, 515264, Note_on_c, 1, 76, 0
7, 515264, Note_on_c, 1, 79, 0
7, 515280, Note_on_c, 1, 77, 32
7, 515280, Note_on_c, 1, 74, 32
7, 515384, Note_on_c, 1, 77, 0
7, 515384, Note_on_c, 1, 74, 0
7, 515400, Note_on_c, 1, 76, 32
7, 515400, Note_on_c, 1, 73, 32
7, 515504, Note_on_c, 1, 76, 0
7, 515504, Note_on_c, 1, 73, 0
7, 515520, Note_on_c, 1, 81, 32
7, 515684, Note_on_c, 1, 81, 0
7, 515700, Note_on_c, 1, 69, 32
7, 515744, Note_on_c, 1, 69, 0
7, 515760, Note_on_c, 1, 69, 32
7, 515864, Note_on_c, 1, 69, 0
7, 515880, Note_on_c, 1, 74, 32
7, 515984, Note_on_c, 1, 74, 0
7, 516000, Note_on_c, 1, 73, 32
7, 516000, Note_on_c, 1, 76, 32
7, 516104, Note_on_c, 1, 73, 0
7, 516104, Note_on_c, 1, 76, 0
7, 516120, Note_on_c, 1, 74, 32
7, 516120, Note_on_c, 1, 77, 32
7, 516224, Note_on_c, 1, 74, 0
7, 516224, Note_on_c, 1, 77, 0
7, 516240, Note_on_c, 1, 76, 32
7, 516240, Note_on_c, 1, 73, 32
7, 516344, Note_on_c, 1, 76, 0
7, 516344, Note_on_c, 1, 73, 0
7, 516360, Note_on_c, 1, 77, 32
7, 516360, Note_on_c, 1, 74, 32
7, 516464, Note_on_c, 1, 77, 0
7, 516464, Note_on_c, 1, 74, 0
7, 516480, Note_on_c, 1, 79, 32
7, 516480, Note_on_c, 1, 76, 32
7, 516584, Note_on_c, 1, 79, 0
7, 516584, Note_on_c, 1, 76, 0
7, 516600, Note_on_c, 1, 74, 32
7, 516600, Note_on_c, 1, 77, 32
7, 516704, Note_on_c, 1, 74, 0
7, 516704, Note_on_c, 1, 77, 0
7, 516720, Note_on_c, 1, 81, 32
7, 516824, Note_on_c, 1, 81, 0
7, 516840, Note_on_c, 1, 81, 32
7, 516944, Note_on_c, 1, 81, 0
7, 516960, Note_on_c, 1, 81, 32
7, 517064, Note_on_c, 1, 81, 0
7, 517080, Note_on_c, 1, 81, 32
7, 517184, Note_on_c, 1, 81, 0
7, 517200, Note_on_c, 1, 81, 32
7, 517304, Note_on_c, 1, 81, 0
7, 517320, Note_on_c, 1, 81, 32
7, 517424, Note_on_c, 1, 81, 0
7, 517440, Note_on_c, 1, 81, 32
7, 517544, Note_on_c, 1, 81, 0
7, 517560, Note_on_c, 1, 81, 32
7, 517664, Note_on_c, 1, 81, 0
7, 517680, Note_on_c, 1, 81, 32
7, 517784, Note_on_c, 1, 81, 0
7, 517800, Note_on_c, 1, 81, 32
7, 517904, Note_on_c, 1, 81, 0
7, 517920, Note_on_c, 1, 81, 32
7, 518024, Note_on_c, 1, 81, 0
7, 518040, Note_on_c, 1, 79, 32
7, 518144, Note_on_c, 1, 79, 0
7, 518160, Note_on_c, 1, 79, 32
7, 518264, Note_on_c, 1, 79, 0
7, 518280, Note_on_c, 1, 79, 32
7, 518384, Note_on_c, 1, 79, 0
7, 518400, Note_on_c, 1, 79, 32
7, 518504, Note_on_c, 1, 79, 0
7, 518520, Note_on_c, 1, 79, 32
7, 518624, Note_on_c, 1, 79, 0
7, 518640, Note_on_c, 1, 79, 32
7, 518744, Note_on_c, 1, 79, 0
7, 518760, Note_on_c, 1, 79, 32
7, 518864, Note_on_c, 1, 79, 0
7, 518880, Note_on_c, 1, 79, 32
7, 518984, Note_on_c, 1, 79, 0
7, 519000, Note_on_c, 1, 79, 32
7, 519104, Note_on_c, 1, 79, 0
7, 519120, Note_on_c, 1, 79, 32
7, 519224, Note_on_c, 1, 79, 0
7, 519240, Note_on_c, 1, 79, 32
7, 519344, Note_on_c, 1, 79, 0
7, 519360, Note_on_c, 1, 79, 32
7, 519464, Note_on_c, 1, 79, 0
7, 519480, Note_on_c, 1, 74, 32
7, 519584, Note_on_c, 1, 74, 0
7, 519600, Note_on_c, 1, 75, 32
7, 519704, Note_on_c, 1, 75, 0
7, 519720, Note_on_c, 1, 77, 32
7, 519824, Note_on_c, 1, 77, 0
7, 519840, Note_on_c, 1, 75, 32
7, 519944, Note_on_c, 1, 75, 0
7, 519960, Note_on_c, 1, 82, 32
7, 520064, Note_on_c, 1, 82, 0
7, 520080, Note_on_c, 1, 82, 32
7, 520184, Note_on_c, 1, 82, 0
7, 520200, Note_on_c, 1, 82, 32
7, 520304, Note_on_c, 1, 82, 0
7, 520320, Note_on_c, 1, 82, 32
7, 520424, Note_on_c, 1, 82, 0
7, 520440, Note_on_c, 1, 82, 32
7, 520544, Note_on_c, 1, 82, 0
7, 520560, Note_on_c, 1, 82, 32
7, 520664, Note_on_c, 1, 82, 0
7, 520680, Note_on_c, 1, 82, 32
7, 520784, Note_on_c, 1, 82, 0
7, 520800, Note_on_c, 1, 82, 32
7, 520904, Note_on_c, 1, 82, 0
7, 520920, Note_on_c, 1, 82, 32
7, 521024, Note_on_c, 1, 82, 0
7, 521040, Note_on_c, 1, 82, 32
7, 521144, Note_on_c, 1, 82, 0
7, 521160, Note_on_c, 1, 82, 32
7, 521264, Note_on_c, 1, 82, 0
7, 521280, Note_on_c, 1, 82, 32
7, 521384, Note_on_c, 1, 82, 0
7, 521400, Note_on_c, 1, 82, 32
7, 521504, Note_on_c, 1, 82, 0
7, 521520, Note_on_c, 1, 82, 32
7, 521624, Note_on_c, 1, 82, 0
7, 521640, Note_on_c, 1, 82, 32
7, 521759, Note_on_c, 1, 82, 0
7, 523080, Note_on_c, 1, 82, 32
7, 523199, Note_on_c, 1, 82, 0
7, 523440, Note_on_c, 1, 82, 32
7, 523559, Note_on_c, 1, 82, 0
7, 523800, Note_on_c, 1, 82, 32
7, 523919, Note_on_c, 1, 82, 0
7, 524160, Note_on_c, 1, 82, 32
7, 524279, Note_on_c, 1, 82, 0
7, 524520, Note_on_c, 1, 82, 32
7, 524639, Note_on_c, 1, 82, 0
7, 525960, Note_on_c, 1, 77, 44
7, 525960, Note_on_c, 1, 74, 44
7, 526079, Note_on_c, 1, 77, 0
7, 526079, Note_on_c, 1, 74, 0
7, 526680, Note_on_c, 1, 65, 62
7, 526680, Note_on_c, 1, 77, 62
7, 526799, Note_on_c, 1, 65, 0
7, 526799, Note_on_c, 1, 77, 0
7, 527400, Note_on_c, 1, 74, 80
7, 527400, Note_on_c, 1, 77, 80
7, 527519, Note_on_c, 1, 74, 0
7, 527519, Note_on_c, 1, 77, 0
7, 528120, Note_on_c, 1, 77, 86
7, 528120, Note_on_c, 1, 81, 86
7, 528239, Note_on_c, 1, 77, 0
7, 528239, Note_on_c, 1, 81, 0
7, 528840, Note_on_c, 1, 81, 92
7, 529004, Note_on_c, 1, 81, 0
7, 529020, Note_on_c, 1, 69, 92
7, 529064, Note_on_c, 1, 69, 0
7, 529080, Note_on_c, 1, 69, 92
7, 529184, Note_on_c, 1, 69, 0
7, 529200, Note_on_c, 1, 81, 92
7, 529364, Note_on_c, 1, 81, 0
7, 529380, Note_on_c, 1, 69, 92
7, 529424, Note_on_c, 1, 69, 0
7, 529440, Note_on_c, 1, 69, 92
7, 529544, Note_on_c, 1, 69, 0
7, 529560, Note_on_c, 1, 81, 92
7, 529724, Note_on_c, 1, 81, 0
7, 529740, Note_on_c, 1, 69, 92
7, 529784, Note_on_c, 1, 69, 0
7, 529800, Note_on_c, 1, 69, 92
7, 529904, Note_on_c, 1, 69, 0
7, 529920, Note_on_c, 1, 81, 92
7, 530084, Note_on_c, 1, 81, 0
7, 530100, Note_on_c, 1, 69, 92
7, 530144, Note_on_c, 1, 69, 0
7, 530160, Note_on_c, 1, 69, 92
7, 530264, Note_on_c, 1, 69, 0
7, 530280, Note_on_c, 1, 81, 92
7, 530444, Note_on_c, 1, 81, 0
7, 530460, Note_on_c, 1, 69, 92
7, 530504, Note_on_c, 1, 69, 0
7, 530520, Note_on_c, 1, 69, 92
7, 530624, Note_on_c, 1, 69, 0
7, 530640, Note_on_c, 1, 74, 92
7, 530729, Note_on_c, 1, 74, 0
7, 530760, Note_on_c, 1, 76, 92
7, 530849, Note_on_c, 1, 76, 0
7, 530880, Note_on_c, 1, 77, 92
7, 530969, Note_on_c, 1, 77, 0
7, 531000, Note_on_c, 1, 76, 92
7, 531089, Note_on_c, 1, 76, 0
7, 531120, Note_on_c, 1, 77, 92
7, 531209, Note_on_c, 1, 77, 0
7, 531240, Note_on_c, 1, 79, 92
7, 531329, Note_on_c, 1, 79, 0
7, 531360, Note_on_c, 1, 77, 92
7, 531449, Note_on_c, 1, 77, 0
7, 531480, Note_on_c, 1, 76, 92
7, 531569, Note_on_c, 1, 76, 0
7, 531600, Note_on_c, 1, 74, 92
7, 531689, Note_on_c, 1, 74, 0
7, 531720, Note_on_c, 1, 82, 92
7, 531809, Note_on_c, 1, 82, 0
7, 531840, Note_on_c, 1, 81, 92
7, 531929, Note_on_c, 1, 81, 0
7, 531960, Note_on_c, 1, 79, 92
7, 532049, Note_on_c, 1, 79, 0
7, 532080, Note_on_c, 1, 77, 92
7, 532169, Note_on_c, 1, 77, 0
7, 532200, Note_on_c, 1, 76, 92
7, 532289, Note_on_c, 1, 76, 0
7, 532320, Note_on_c, 1, 74, 92
7, 532409, Note_on_c, 1, 74, 0
7, 532440, Note_on_c, 1, 73, 92
7, 532529, Note_on_c, 1, 73, 0
7, 532560, Note_on_c, 1, 74, 92
7, 532649, Note_on_c, 1, 74, 0
7, 532680, Note_on_c, 1, 76, 92
7, 532769, Note_on_c, 1, 76, 0
7, 532800, Note_on_c, 1, 74, 92
7, 532889, Note_on_c, 1, 74, 0
7, 532920, Note_on_c, 1, 73, 92
7, 533009, Note_on_c, 1, 73, 0
7, 533040, Note_on_c, 1, 74, 92
7, 533129, Note_on_c, 1, 74, 0
7, 533160, Note_on_c, 1, 82, 92
7, 533249, Note_on_c, 1, 82, 0
7, 533280, Note_on_c, 1, 81, 92
7, 533369, Note_on_c, 1, 81, 0
7, 533400, Note_on_c, 1, 79, 92
7, 533489, Note_on_c, 1, 79, 0
7, 533520, Note_on_c, 1, 77, 92
7, 533609, Note_on_c, 1, 77, 0
7, 533640, Note_on_c, 1, 76, 92
7, 533729, Note_on_c, 1, 76, 0
7, 533760, Note_on_c, 1, 74, 92
7, 533849, Note_on_c, 1, 74, 0
7, 533880, Note_on_c, 1, 73, 92
7, 533969, Note_on_c, 1, 73, 0
7, 534000, Note_on_c, 1, 74, 92
7, 534089, Note_on_c, 1, 74, 0
7, 534120, Note_on_c, 1, 76, 92
7, 534209, Note_on_c, 1, 76, 0
7, 534240, Note_on_c, 1, 74, 92
7, 534329, Note_on_c, 1, 74, 0
7, 534360, Note_on_c, 1, 73, 92
7, 534449, Note_on_c, 1, 73, 0
7, 534480, Note_on_c, 1, 74, 92
7, 534569, Note_on_c, 1, 74, 0
7, 534600, Note_on_c, 1, 72, 92
7, 534689, Note_on_c, 1, 72, 0
7, 534720, Note_on_c, 1, 74, 92
7, 534809, Note_on_c, 1, 74, 0
7, 534840, Note_on_c, 1, 75, 92
7, 534929, Note_on_c, 1, 75, 0
7, 534960, Note_on_c, 1, 79, 92
7, 535049, Note_on_c, 1, 79, 0
7, 535080, Note_on_c, 1, 81, 92
7, 535169, Note_on_c, 1, 81, 0
7, 535200, Note_on_c, 1, 82, 92
7, 535289, Note_on_c, 1, 82, 0
7, 535320, Note_on_c, 1, 81, 92
7, 535409, Note_on_c, 1, 81, 0
7, 535440, Note_on_c, 1, 82, 92
7, 535529, Note_on_c, 1, 82, 0
7, 535560, Note_on_c, 1, 84, 92
7, 535649, Note_on_c, 1, 84, 0
7, 535680, Note_on_c, 1, 82, 92
7, 535769, Note_on_c, 1, 82, 0
7, 535800, Note_on_c, 1, 81, 92
7, 535889, Note_on_c, 1, 81, 0
7, 535920, Note_on_c, 1, 79, 92
7, 536009, Note_on_c, 1, 79, 0
7, 536040, Note_on_c, 1, 75, 80
7, 536129, Note_on_c, 1, 75, 0
7, 536160, Note_on_c, 1, 74, 80
7, 536249, Note_on_c, 1, 74, 0
7, 536280, Note_on_c, 1, 72, 80
7, 536369, Note_on_c, 1, 72, 0
7, 536400, Note_on_c, 1, 70, 80
7, 536489, Note_on_c, 1, 70, 0
7, 536520, Note_on_c, 1, 69, 80
7, 536609, Note_on_c, 1, 69, 0
7, 536640, Note_on_c, 1, 67, 80
7, 536729, Note_on_c, 1, 67, 0
7, 536760, Note_on_c, 1, 77, 80
7, 536849, Note_on_c, 1, 77, 0
7, 536880, Note_on_c, 1, 75, 80
7, 536969, Note_on_c, 1, 75, 0
7, 537000, Note_on_c, 1, 74, 80
7, 537089, Note_on_c, 1, 74, 0
7, 537120, Note_on_c, 1, 72, 80
7, 537209, Note_on_c, 1, 72, 0
7, 537240, Note_on_c, 1, 70, 80
7, 537329, Note_on_c, 1, 70, 0
7, 537360, Note_on_c, 1, 69, 80
7, 537449, Note_on_c, 1, 69, 0
7, 537480, Note_on_c, 1, 69, 80
7, 537569, Note_on_c, 1, 69, 0
7, 537600, Note_on_c, 1, 70, 80
7, 537689, Note_on_c, 1, 70, 0
7, 537720, Note_on_c, 1, 72, 80
7, 537809, Note_on_c, 1, 72, 0
7, 537840, Note_on_c, 1, 74, 80
7, 537929, Note_on_c, 1, 74, 0
7, 537960, Note_on_c, 1, 75, 80
7, 538049, Note_on_c, 1, 75, 0
7, 538080, Note_on_c, 1, 77, 80
7, 538169, Note_on_c, 1, 77, 0
7, 538200, Note_on_c, 1, 79, 80
7, 538289, Note_on_c, 1, 79, 0
7, 538320, Note_on_c, 1, 81, 80
7, 538409, Note_on_c, 1, 81, 0
7, 538440, Note_on_c, 1, 82, 80
7, 538529, Note_on_c, 1, 82, 0
7, 538560, Note_on_c, 1, 84, 80
7, 538649, Note_on_c, 1, 84, 0
7, 538680, Note_on_c, 1, 86, 80
7, 538769, Note_on_c, 1, 86, 0
7, 538800, Note_on_c, 1, 75, 80
7, 538889, Note_on_c, 1, 75, 0
7, 538920, Note_on_c, 1, 77, 80
7, 538980, Control_c, 1, 11, 67
7, 539640, Control_c, 1, 11, 67
7, 539676, Control_c, 1, 11, 68
7, 539712, Control_c, 1, 11, 69
7, 539748, Control_c, 1, 11, 70
7, 539784, Control_c, 1, 11, 71
7, 539820, Control_c, 1, 11, 72
7, 539856, Control_c, 1, 11, 73
7, 539892, Control_c, 1, 11, 74
7, 539928, Control_c, 1, 11, 75
7, 539964, Control_c, 1, 11, 76
7, 539999, Note_on_c, 1, 77, 0
7, 540000, Note_on_c, 1, 75, 80
7, 540000, Control_c, 1, 11, 77
7, 540036, Control_c, 1, 11, 78
7, 540072, Control_c, 1, 11, 79
7, 540108, Control_c, 1, 11, 80
7, 540144, Control_c, 1, 11, 81
7, 540180, Control_c, 1, 11, 82
7, 540216, Control_c, 1, 11, 83
7, 540252, Control_c, 1, 11, 84
7, 540288, Control_c, 1, 11, 85
7, 540324, Control_c, 1, 11, 86
7, 540360, Control_c, 1, 11, 87
7, 540396, Control_c, 1, 11, 88
7, 540432, Control_c, 1, 11, 89
7, 540468, Control_c, 1, 11, 90
7, 540504, Control_c, 1, 11, 91
7, 540540, Control_c, 1, 11, 92
7, 540576, Control_c, 1, 11, 93
7, 540612, Control_c, 1, 11, 94
7, 540648, Control_c, 1, 11, 95
7, 540684, Control_c, 1, 11, 96
7, 540719, Note_on_c, 1, 75, 0
7, 540720, Control_c, 1, 11, 97
7, 540720, Note_on_c, 1, 74, 80
7, 540756, Control_c, 1, 11, 98
7, 540792, Control_c, 1, 11, 99
7, 540828, Control_c, 1, 11, 100
7, 540864, Control_c, 1, 11, 101
7, 540900, Control_c, 1, 11, 102
7, 540936, Control_c, 1, 11, 103
7, 540972, Control_c, 1, 11, 104
7, 541008, Control_c, 1, 11, 105
7, 541044, Control_c, 1, 11, 106
7, 541079, Note_on_c, 1, 74, 0
7, 541080, Control_c, 1, 11, 107
7, 541080, Note_on_c, 1, 73, 80
7, 541110, Control_c, 1, 11, 105
7, 541140, Control_c, 1, 11, 104
7, 541170, Control_c, 1, 11, 102
7, 541200, Control_c, 1, 11, 100
7, 541230, Control_c, 1, 11, 99
7, 541260, Control_c, 1, 11, 97
7, 541290, Control_c, 1, 11, 95
7, 541320, Control_c, 1, 11, 94
7, 541350, Control_c, 1, 11, 92
7, 541380, Control_c, 1, 11, 90
7, 541410, Control_c, 1, 11, 89
7, 541439, Note_on_c, 1, 73, 0
7, 541440, Control_c, 1, 11, 87
7, 541440, Note_on_c, 1, 72, 80
7, 541470, Control_c, 1, 11, 85
7, 541500, Control_c, 1, 11, 84
7, 541530, Control_c, 1, 11, 82
7, 541560, Control_c, 1, 11, 80
7, 541590, Control_c, 1, 11, 79
7, 541620, Control_c, 1, 11, 77
7, 541650, Control_c, 1, 11, 75
7, 541680, Control_c, 1, 11, 74
7, 541710, Control_c, 1, 11, 72
7, 541740, Control_c, 1, 11, 70
7, 541770, Control_c, 1, 11, 67
7, 541784, Note_on_c, 1, 72, 0
7, 541800, Note_on_c, 1, 82, 80
7, 542519, Note_on_c, 1, 82, 0
7, 542520, Note_on_c, 1, 81, 80
7, 542880, Control_c, 1, 11, 67
7, 542916, Control_c, 1, 11, 68
7, 542952, Control_c, 1, 11, 69
7, 542988, Control_c, 1, 11, 70
7, 543024, Control_c, 1, 11, 71
7, 543060, Control_c, 1, 11, 72
7, 543096, Control_c, 1, 11, 73
7, 543132, Control_c, 1, 11, 74
7, 543168, Control_c, 1, 11, 75
7, 543204, Control_c, 1, 11, 76
7, 543224, Note_on_c, 1, 81, 0
7, 543240, Note_on_c, 1, 81, 80
7, 543240, Control_c, 1, 11, 77
7, 543240, Note_on_c, 1, 83, 80
7, 543276, Control_c, 1, 11, 78
7, 543312, Control_c, 1, 11, 79
7, 543348, Control_c, 1, 11, 80
7, 543384, Control_c, 1, 11, 81
7, 543420, Control_c, 1, 11, 82
7, 543456, Control_c, 1, 11, 83
7, 543492, Control_c, 1, 11, 84
7, 543528, Control_c, 1, 11, 85
7, 543564, Control_c, 1, 11, 86
7, 543599, Note_on_c, 1, 81, 0
7, 543600, Control_c, 1, 11, 87
7, 543600, Note_on_c, 1, 79, 80
7, 543636, Control_c, 1, 11, 88
7, 543672, Control_c, 1, 11, 89
7, 543708, Control_c, 1, 11, 90
7, 543744, Control_c, 1, 11, 91
7, 543780, Control_c, 1, 11, 92
7, 543816, Control_c, 1, 11, 93
7, 543852, Control_c, 1, 11, 94
7, 543888, Control_c, 1, 11, 95
7, 543924, Control_c, 1, 11, 96
7, 543959, Note_on_c, 1, 83, 0
7, 543960, Control_c, 1, 11, 97
7, 543960, Note_on_c, 1, 82, 80
7, 543996, Control_c, 1, 11, 98
7, 544032, Control_c, 1, 11, 99
7, 544068, Control_c, 1, 11, 100
7, 544104, Control_c, 1, 11, 101
7, 544140, Control_c, 1, 11, 102
7, 544176, Control_c, 1, 11, 103
7, 544212, Control_c, 1, 11, 104
7, 544248, Control_c, 1, 11, 105
7, 544284, Control_c, 1, 11, 106
7, 544319, Note_on_c, 1, 79, 0
7, 544319, Note_on_c, 1, 82, 0
7, 544320, Control_c, 1, 11, 107
7, 544320, Note_on_c, 1, 81, 80
7, 544320, Note_on_c, 1, 78, 80
7, 544350, Control_c, 1, 11, 106
7, 544380, Control_c, 1, 11, 105
7, 544410, Control_c, 1, 11, 104
7, 544440, Control_c, 1, 11, 103
7, 544470, Control_c, 1, 11, 101
7, 544500, Control_c, 1, 11, 100
7, 544530, Control_c, 1, 11, 99
7, 544560, Control_c, 1, 11, 98
7, 544590, Control_c, 1, 11, 97
7, 544620, Control_c, 1, 11, 96
7, 544650, Control_c, 1, 11, 95
7, 544679, Note_on_c, 1, 78, 0
7, 544680, Control_c, 1, 11, 94
7, 544680, Note_on_c, 1, 77, 80
7, 544710, Control_c, 1, 11, 93
7, 544740, Control_c, 1, 11, 91
7, 544770, Control_c, 1, 11, 90
7, 544800, Control_c, 1, 11, 89
7, 544830, Control_c, 1, 11, 88
7, 544860, Control_c, 1, 11, 87
7, 544890, Control_c, 1, 11, 86
7, 544920, Control_c, 1, 11, 85
7, 544950, Control_c, 1, 11, 84
7, 544980, Control_c, 1, 11, 83
7, 545010, Control_c, 1, 11, 81
7, 545039, Note_on_c, 1, 77, 0
7, 545040, Note_on_c, 1, 76, 80
7, 545040, Control_c, 1, 11, 80
7, 545070, Control_c, 1, 11, 79
7, 545100, Control_c, 1, 11, 78
7, 545130, Control_c, 1, 11, 77
7, 545160, Control_c, 1, 11, 76
7, 545190, Control_c, 1, 11, 75
7, 545220, Control_c, 1, 11, 74
7, 545250, Control_c, 1, 11, 73
7, 545280, Control_c, 1, 11, 71
7, 545310, Control_c, 1, 11, 70
7, 545340, Control_c, 1, 11, 69
7, 545370, Control_c, 1, 11, 67
7, 545399, Note_on_c, 1, 81, 0
7, 545399, Note_on_c, 1, 76, 0
7, 548280, Control_c, 1, 11, 57
7, 548640, Control_c, 1, 11, 57
7, 548640, Note_on_c, 1, 78, 92
7, 548676, Control_c, 1, 11, 58
7, 548712, Control_c, 1, 11, 59
7, 548748, Control_c, 1, 11, 60
7, 548784, Control_c, 1, 11, 61
7, 548820, Control_c, 1, 11, 62
7, 548856, Control_c, 1, 11, 63
7, 548892, Control_c, 1, 11, 64
7, 548928, Control_c, 1, 11, 65
7, 548964, Control_c, 1, 11, 66
7, 549000, Control_c, 1, 11, 67
7, 549000, Note_on_c, 1, 75, 92
7, 549036, Control_c, 1, 11, 68
7, 549072, Control_c, 1, 11, 69
7, 549108, Control_c, 1, 11, 70
7, 549144, Control_c, 1, 11, 71
7, 549180, Control_c, 1, 11, 72
7, 549216, Control_c, 1, 11, 73
7, 549252, Control_c, 1, 11, 74
7, 549288, Control_c, 1, 11, 75
7, 549324, Control_c, 1, 11, 76
7, 549359, Note_on_c, 1, 78, 0
7, 549359, Note_on_c, 1, 75, 0
7, 549360, Control_c, 1, 11, 77
7, 549360, Note_on_c, 1, 76, 92
7, 549360, Note_on_c, 1, 79, 92
7, 549396, Control_c, 1, 11, 78
7, 549432, Control_c, 1, 11, 79
7, 549468, Control_c, 1, 11, 80
7, 549504, Control_c, 1, 11, 81
7, 549540, Control_c, 1, 11, 82
7, 549576, Control_c, 1, 11, 83
7, 549612, Control_c, 1, 11, 84
7, 549648, Control_c, 1, 11, 85
7, 549684, Control_c, 1, 11, 86
7, 549719, Note_on_c, 1, 76, 0
7, 549719, Note_on_c, 1, 79, 0
7, 549720, Control_c, 1, 11, 87
7, 549720, Note_on_c, 1, 76, 92
7, 549720, Note_on_c, 1, 73, 92
7, 549756, Control_c, 1, 11, 88
7, 549792, Control_c, 1, 11, 89
7, 549828, Control_c, 1, 11, 90
7, 549864, Control_c, 1, 11, 91
7, 549900, Control_c, 1, 11, 92
7, 549936, Control_c, 1, 11, 93
7, 549972, Control_c, 1, 11, 94
7, 550008, Control_c, 1, 11, 95
7, 550044, Control_c, 1, 11, 96
7, 550079, Note_on_c, 1, 76, 0
7, 550079, Note_on_c, 1, 73, 0
7, 550080, Control_c, 1, 11, 97
7, 550080, Note_on_c, 1, 74, 92
7, 550080, Note_on_c, 1, 78, 92
7, 550116, Control_c, 1, 11, 98
7, 550152, Control_c, 1, 11, 99
7, 550188, Control_c, 1, 11, 100
7, 550224, Control_c, 1, 11, 101
7, 550260, Control_c, 1, 11, 102
7, 550296, Control_c, 1, 11, 103
7, 550332, Control_c, 1, 11, 104
7, 550368, Control_c, 1, 11, 105
7, 550404, Control_c, 1, 11, 106
7, 550439, Note_on_c, 1, 78, 0
7, 550440, Note_on_c, 1, 81, 92
7, 550440, Control_c, 1, 11, 107
7, 550476, Control_c, 1, 11, 108
7, 550512, Control_c, 1, 11, 109
7, 550548, Control_c, 1, 11, 110
7, 550584, Control_c, 1, 11, 111
7, 550620, Control_c, 1, 11, 112
7, 550656, Control_c, 1, 11, 113
7, 550692, Control_c, 1, 11, 114
7, 550728, Control_c, 1, 11, 115
7, 550764, Control_c, 1, 11, 116
7, 550799, Note_on_c, 1, 74, 0
7, 550800, Note_on_c, 1, 73, 92
7, 550800, Control_c, 1, 11, 117
7, 550836, Control_c, 1, 11, 118
7, 550872, Control_c, 1, 11, 119
7, 550908, Control_c, 1, 11, 120
7, 550944, Control_c, 1, 11, 121
7, 550980, Control_c, 1, 11, 122
7, 551016, Control_c, 1, 11, 123
7, 551024, Note_on_c, 1, 81, 0
7, 551024, Note_on_c, 1, 73, 0
7, 551040, Note_on_c, 1, 73, 92
7, 551052, Control_c, 1, 11, 124
7, 551088, Control_c, 1, 11, 125
7, 551124, Control_c, 1, 11, 127
7, 551144, Note_on_c, 1, 73, 0
7, 551160, Note_on_c, 1, 74, 92
7, 551399, Note_on_c, 1, 74, 0
7, 551400, Note_on_c, 1, 76, 92
7, 551459, Note_on_c, 1, 76, 0
7, 551460, Note_on_c, 1, 78, 92
7, 551504, Note_on_c, 1, 78, 0
7, 551520, Note_on_c, 1, 79, 92
7, 551609, Note_on_c, 1, 79, 0
7, 551760, Note_on_c, 1, 78, 92
7, 551849, Note_on_c, 1, 78, 0
7, 551880, Note_on_c, 1, 76, 92
7, 551969, Note_on_c, 1, 76, 0
7, 552120, Note_on_c, 1, 74, 92
7, 552209, Note_on_c, 1, 74, 0
7, 552240, Note_on_c, 1, 76, 92
7, 552329, Note_on_c, 1, 76, 0
7, 552480, Note_on_c, 1, 73, 92
7, 552569, Note_on_c, 1, 73, 0
7, 552600, Note_on_c, 1, 74, 92
7, 552600, Note_on_c, 1, 78, 92
7, 552839, Note_on_c, 1, 74, 0
7, 552839, Note_on_c, 1, 78, 0
7, 552840, Note_on_c, 1, 76, 92
7, 552840, Note_on_c, 1, 79, 92
7, 552899, Note_on_c, 1, 76, 0
7, 552899, Note_on_c, 1, 79, 0
7, 552900, Note_on_c, 1, 81, 92
7, 552900, Note_on_c, 1, 78, 92
7, 552944, Note_on_c, 1, 81, 0
7, 552944, Note_on_c, 1, 78, 0
7, 552960, Note_on_c, 1, 83, 92
7, 552960, Note_on_c, 1, 79, 92
7, 553049, Note_on_c, 1, 83, 0
7, 553049, Note_on_c, 1, 79, 0
7, 553200, Note_on_c, 1, 81, 92
7, 553200, Note_on_c, 1, 78, 92
7, 553289, Note_on_c, 1, 81, 0
7, 553289, Note_on_c, 1, 78, 0
7, 553320, Note_on_c, 1, 76, 92
7, 553320, Note_on_c, 1, 79, 92
7, 553409, Note_on_c, 1, 76, 0
7, 553409, Note_on_c, 1, 79, 0
7, 553560, Note_on_c, 1, 74, 92
7, 553560, Note_on_c, 1, 78, 92
7, 553649, Note_on_c, 1, 74, 0
7, 553649, Note_on_c, 1, 78, 0
7, 553680, Note_on_c, 1, 79, 92
7, 553680, Note_on_c, 1, 76, 92
7, 553769, Note_on_c, 1, 79, 0
7, 553769, Note_on_c, 1, 76, 0
7, 553920, Note_on_c, 1, 76, 92
7, 553920, Note_on_c, 1, 73, 92
7, 554009, Note_on_c, 1, 76, 0
7, 554009, Note_on_c, 1, 73, 0
7, 554040, Note_on_c, 1, 74, 92
7, 554129, Note_on_c, 1, 74, 0
7, 554160, Note_on_c, 1, 74, 92
7, 554160, Note_on_c, 1, 65, 92
7, 554279, Note_on_c, 1, 74, 0
7, 554279, Note_on_c, 1, 65, 0
7, 554280, Note_on_c, 1, 76, 92
7, 554280, Note_on_c, 1, 67, 92
7, 554339, Note_on_c, 1, 76, 0
7, 554339, Note_on_c, 1, 67, 0
7, 554340, Note_on_c, 1, 69, 92
7, 554340, Note_on_c, 1, 77, 92
7, 554384, Note_on_c, 1, 69, 0
7, 554384, Note_on_c, 1, 77, 0
7, 554400, Note_on_c, 1, 79, 92
7, 554400, Note_on_c, 1, 70, 92
7, 554489, Note_on_c, 1, 79, 0
7, 554489, Note_on_c, 1, 70, 0
7, 554520, Note_on_c, 1, 70, 92
7, 554520, Note_on_c, 1, 79, 92
7, 554609, Note_on_c, 1, 70, 0
7, 554609, Note_on_c, 1, 79, 0
7, 554640, Note_on_c, 1, 69, 92
7, 554640, Note_on_c, 1, 77, 92
7, 554729, Note_on_c, 1, 69, 0
7, 554729, Note_on_c, 1, 77, 0
7, 554760, Note_on_c, 1, 67, 92
7, 554760, Note_on_c, 1, 76, 92
7, 554849, Note_on_c, 1, 67, 0
7, 554849, Note_on_c, 1, 76, 0
7, 554880, Note_on_c, 1, 76, 92
7, 554880, Note_on_c, 1, 67, 92
7, 554969, Note_on_c, 1, 76, 0
7, 554969, Note_on_c, 1, 67, 0
7, 555000, Note_on_c, 1, 65, 92
7, 555000, Note_on_c, 1, 74, 92
7, 555089, Note_on_c, 1, 65, 0
7, 555089, Note_on_c, 1, 74, 0
7, 555120, Note_on_c, 1, 76, 92
7, 555120, Note_on_c, 1, 67, 92
7, 555209, Note_on_c, 1, 76, 0
7, 555209, Note_on_c, 1, 67, 0
7, 555240, Note_on_c, 1, 76, 92
7, 555240, Note_on_c, 1, 67, 92
7, 555329, Note_on_c, 1, 76, 0
7, 555329, Note_on_c, 1, 67, 0
7, 555360, Note_on_c, 1, 64, 92
7, 555360, Note_on_c, 1, 73, 92
7, 555449, Note_on_c, 1, 64, 0
7, 555449, Note_on_c, 1, 73, 0
7, 555480, Note_on_c, 1, 77, 92
7, 555480, Note_on_c, 1, 74, 92
7, 555569, Note_on_c, 1, 77, 0
7, 555569, Note_on_c, 1, 74, 0
7, 555600, Note_on_c, 1, 74, 92
7, 555600, Note_on_c, 1, 77, 92
7, 555719, Note_on_c, 1, 74, 0
7, 555719, Note_on_c, 1, 77, 0
7, 555720, Note_on_c, 1, 76, 92
7, 555720, Note_on_c, 1, 79, 92
7, 555779, Note_on_c, 1, 76, 0
7, 555779, Note_on_c, 1, 79, 0
7, 555780, Note_on_c, 1, 77, 92
7, 555780, Note_on_c, 1, 81, 92
7, 555824, Note_on_c, 1, 77, 0
7, 555824, Note_on_c, 1, 81, 0
7, 555840, Note_on_c, 1, 79, 92
7, 555840, Note_on_c, 1, 82, 92
7, 555929, Note_on_c, 1, 79, 0
7, 555929, Note_on_c, 1, 82, 0
7, 555960, Note_on_c, 1, 82, 92
7, 555960, Note_on_c, 1, 79, 92
7, 556049, Note_on_c, 1, 82, 0
7, 556049, Note_on_c, 1, 79, 0
7, 556080, Note_on_c, 1, 77, 92
7, 556080, Note_on_c, 1, 81, 92
7, 556169, Note_on_c, 1, 77, 0
7, 556169, Note_on_c, 1, 81, 0
7, 556200, Note_on_c, 1, 79, 92
7, 556200, Note_on_c, 1, 76, 92
7, 556289, Note_on_c, 1, 79, 0
7, 556289, Note_on_c, 1, 76, 0
7, 556320, Note_on_c, 1, 76, 92
7, 556320, Note_on_c, 1, 79, 92
7, 556409, Note_on_c, 1, 76, 0
7, 556409, Note_on_c, 1, 79, 0
7, 556440, Note_on_c, 1, 77, 92
7, 556440, Note_on_c, 1, 74, 92
7, 556529, Note_on_c, 1, 77, 0
7, 556529, Note_on_c, 1, 74, 0
7, 556560, Note_on_c, 1, 76, 92
7, 556560, Note_on_c, 1, 79, 92
7, 556649, Note_on_c, 1, 76, 0
7, 556649, Note_on_c, 1, 79, 0
7, 556680, Note_on_c, 1, 76, 92
7, 556680, Note_on_c, 1, 79, 92
7, 556769, Note_on_c, 1, 76, 0
7, 556769, Note_on_c, 1, 79, 0
7, 556800, Note_on_c, 1, 76, 92
7, 556800, Note_on_c, 1, 73, 92
7, 556889, Note_on_c, 1, 76, 0
7, 556889, Note_on_c, 1, 73, 0
7, 556920, Note_on_c, 1, 77, 92
7, 557084, Note_on_c, 1, 77, 0
7, 557100, Note_on_c, 1, 65, 92
7, 557144, Note_on_c, 1, 65, 0
7, 557160, Note_on_c, 1, 65, 92
7, 557264, Note_on_c, 1, 65, 0
7, 557280, Note_on_c, 1, 77, 92
7, 557384, Note_on_c, 1, 77, 0
7, 557400, Note_on_c, 1, 79, 92
7, 557504, Note_on_c, 1, 79, 0
7, 557520, Note_on_c, 1, 81, 92
7, 557624, Note_on_c, 1, 81, 0
7, 557640, Note_on_c, 1, 82, 92
7, 557759, Note_on_c, 1, 82, 0
7, 558000, Note_on_c, 1, 70, 92
7, 558000, Note_on_c, 1, 82, 92
7, 558104, Note_on_c, 1, 70, 0
7, 558104, Note_on_c, 1, 82, 0
7, 558120, Note_on_c, 1, 72, 92
7, 558120, Note_on_c, 1, 84, 92
7, 558224, Note_on_c, 1, 72, 0
7, 558224, Note_on_c, 1, 84, 0
7, 558240, Note_on_c, 1, 86, 92
7, 558240, Note_on_c, 1, 74, 92
7, 558344, Note_on_c, 1, 86, 0
7, 558344, Note_on_c, 1, 74, 0
7, 558360, Note_on_c, 1, 76, 92
7, 558524, Note_on_c, 1, 76, 0
7, 558540, Note_on_c, 1, 64, 92
7, 558584, Note_on_c, 1, 64, 0
7, 558600, Note_on_c, 1, 64, 92
7, 558704, Note_on_c, 1, 64, 0
7, 558720, Note_on_c, 1, 76, 92
7, 558720, Note_on_c, 1, 64, 92
7, 558824, Note_on_c, 1, 76, 0
7, 558824, Note_on_c, 1, 64, 0
7, 558840, Note_on_c, 1, 77, 92
7, 558840, Note_on_c, 1, 65, 92
7, 558944, Note_on_c, 1, 77, 0
7, 558944, Note_on_c, 1, 65, 0
7, 558960, Note_on_c, 1, 67, 92
7, 558960, Note_on_c, 1, 79, 92
7, 559064, Note_on_c, 1, 67, 0
7, 559064, Note_on_c, 1, 79, 0
7, 559080, Note_on_c, 1, 81, 92
7, 559080, Note_on_c, 1, 69, 92
7, 559199, Note_on_c, 1, 81, 0
7, 559199, Note_on_c, 1, 69, 0
7, 559440, Note_on_c, 1, 69, 92
7, 559544, Note_on_c, 1, 69, 0
7, 559560, Note_on_c, 1, 74, 92
7, 559664, Note_on_c, 1, 74, 0
7, 559680, Note_on_c, 1, 76, 92
7, 559784, Note_on_c, 1, 76, 0
7, 559800, Note_on_c, 1, 78, 44
7, 559800, Note_on_c, 1, 74, 44
7, 559919, Note_on_c, 1, 78, 0
7, 559919, Note_on_c, 1, 74, 0
7, 560520, Note_on_c, 1, 74, 44
7, 560520, Note_on_c, 1, 79, 44
7, 560639, Note_on_c, 1, 74, 0
7, 560639, Note_on_c, 1, 79, 0
7, 561600, Control_c, 1, 11, 67
7, 561960, Note_on_c, 1, 75, 80
7, 561960, Note_on_c, 1, 79, 80
7, 561960, Control_c, 1, 11, 67
7, 561990, Control_c, 1, 11, 68
7, 562020, Control_c, 1, 11, 70
7, 562050, Control_c, 1, 11, 71
7, 562080, Control_c, 1, 11, 72
7, 562110, Control_c, 1, 11, 73
7, 562140, Control_c, 1, 11, 75
7, 562170, Control_c, 1, 11, 76
7, 562200, Control_c, 1, 11, 77
7, 562230, Control_c, 1, 11, 78
7, 562260, Control_c, 1, 11, 80
7, 562290, Control_c, 1, 11, 81
7, 562304, Note_on_c, 1, 75, 0
7, 562304, Note_on_c, 1, 79, 0
7, 562320, Note_on_c, 1, 79, 80
7, 562320, Control_c, 1, 11, 82
7, 562320, Note_on_c, 1, 75, 80
7, 562350, Control_c, 1, 11, 83
7, 562380, Control_c, 1, 11, 85
7, 562410, Control_c, 1, 11, 86
7, 562440, Control_c, 1, 11, 87
7, 562470, Control_c, 1, 11, 88
7, 562500, Control_c, 1, 11, 90
7, 562530, Control_c, 1, 11, 91
7, 562560, Control_c, 1, 11, 92
7, 562590, Control_c, 1, 11, 93
7, 562620, Control_c, 1, 11, 95
7, 562650, Control_c, 1, 11, 96
7, 562664, Note_on_c, 1, 79, 0
7, 562664, Note_on_c, 1, 75, 0
7, 562680, Control_c, 1, 11, 97
7, 562680, Note_on_c, 1, 79, 80
7, 562680, Note_on_c, 1, 76, 80
7, 562710, Control_c, 1, 11, 98
7, 562740, Control_c, 1, 11, 100
7, 562770, Control_c, 1, 11, 101
7, 562800, Control_c, 1, 11, 102
7, 562830, Control_c, 1, 11, 103
7, 562860, Control_c, 1, 11, 105
7, 562890, Control_c, 1, 11, 106
7, 562920, Control_c, 1, 11, 107
7, 562950, Control_c, 1, 11, 108
7, 562980, Control_c, 1, 11, 110
7, 563010, Control_c, 1, 11, 111
7, 563040, Control_c, 1, 11, 112
7, 563070, Control_c, 1, 11, 113
7, 563100, Control_c, 1, 11, 115
7, 563130, Control_c, 1, 11, 116
7, 563159, Note_on_c, 1, 79, 0
7, 563159, Note_on_c, 1, 76, 0
7, 563160, Note_on_c, 1, 74, 80
7, 563160, Note_on_c, 1, 77, 80
7, 563160, Control_c, 1, 11, 117
7, 563190, Control_c, 1, 11, 118
7, 563220, Control_c, 1, 11, 120
7, 563250, Control_c, 1, 11, 121
7, 563279, Note_on_c, 1, 74, 0
7, 563279, Note_on_c, 1, 77, 0
7, 563280, Note_on_c, 1, 79, 80
7, 563280, Note_on_c, 1, 76, 80
7, 563280, Control_c, 1, 11, 122
7, 563310, Control_c, 1, 11, 123
7, 563340, Control_c, 1, 11, 125
7, 563370, Control_c, 1, 11, 127
7, 563384, Note_on_c, 1, 79, 0
7, 563384, Note_on_c, 1, 76, 0
7, 563400, Note_on_c, 1, 69, 80
7, 563400, Note_on_c, 1, 81, 80
7, 563489, Note_on_c, 1, 69, 0
7, 563489, Note_on_c, 1, 81, 0
7, 563520, Note_on_c, 1, 77, 80
7, 563520, Note_on_c, 1, 65, 80
7, 563609, Note_on_c, 1, 77, 0
7, 563609, Note_on_c, 1, 65, 0
7, 563640, Note_on_c, 1, 82, 80
7, 563640, Note_on_c, 1, 70, 80
7, 563729, Note_on_c, 1, 82, 0
7, 563729, Note_on_c, 1, 70, 0
7, 563760, Note_on_c, 1, 67, 80
7, 563760, Note_on_c, 1, 79, 80
7, 563849, Note_on_c, 1, 67, 0
7, 563849, Note_on_c, 1, 79, 0
7, 563880, Note_on_c, 1, 64, 80
7, 563880, Note_on_c, 1, 76, 80
7, 563969, Note_on_c, 1, 64, 0
7, 563969, Note_on_c, 1, 76, 0
7, 564000, Note_on_c, 1, 69, 80
7, 564000, Note_on_c, 1, 81, 80
7, 564089, Note_on_c, 1, 69, 0
7, 564089, Note_on_c, 1, 81, 0
7, 564120, Note_on_c, 1, 65, 80
7, 564120, Note_on_c, 1, 77, 80
7, 564239, Note_on_c, 1, 65, 0
7, 564239, Note_on_c, 1, 77, 0
7, 564840, Note_on_c, 1, 77, 80
7, 564840, Note_on_c, 1, 81, 80
7, 564929, Note_on_c, 1, 77, 0
7, 564929, Note_on_c, 1, 81, 0
7, 564960, Note_on_c, 1, 65, 80
7, 564960, Note_on_c, 1, 77, 80
7, 565049, Note_on_c, 1, 65, 0
7, 565049, Note_on_c, 1, 77, 0
7, 565080, Note_on_c, 1, 82, 80
7, 565080, Note_on_c, 1, 70, 80
7, 565169, Note_on_c, 1, 82, 0
7, 565169, Note_on_c, 1, 70, 0
7, 565200, Note_on_c, 1, 67, 80
7, 565200, Note_on_c, 1, 79, 80
7, 565289, Note_on_c, 1, 67, 0
7, 565289, Note_on_c, 1, 79, 0
7, 565320, Note_on_c, 1, 76, 80
7, 565320, Note_on_c, 1, 64, 80
7, 565409, Note_on_c, 1, 76, 0
7, 565409, Note_on_c, 1, 64, 0
7, 565440, Note_on_c, 1, 69, 80
7, 565440, Note_on_c, 1, 81, 80
7, 565529, Note_on_c, 1, 69, 0
7, 565529, Note_on_c, 1, 81, 0
7, 565560, Note_on_c, 1, 81, 80
7, 565560, Note_on_c, 1, 69, 80
7, 565649, Note_on_c, 1, 81, 0
7, 565649, Note_on_c, 1, 69, 0
7, 565680, Note_on_c, 1, 81, 80
7, 565680, Note_on_c, 1, 69, 80
7, 565769, Note_on_c, 1, 81, 0
7, 565769, Note_on_c, 1, 69, 0
7, 565800, Note_on_c, 1, 69, 80
7, 565800, Note_on_c, 1, 81, 80
7, 565889, Note_on_c, 1, 69, 0
7, 565889, Note_on_c, 1, 81, 0
7, 565920, Note_on_c, 1, 81, 80
7, 565920, Note_on_c, 1, 69, 80
7, 566009, Note_on_c, 1, 81, 0
7, 566009, Note_on_c, 1, 69, 0
7, 566040, Note_on_c, 1, 69, 80
7, 566040, Note_on_c, 1, 81, 80
7, 566129, Note_on_c, 1, 69, 0
7, 566129, Note_on_c, 1, 81, 0
7, 566160, Note_on_c, 1, 69, 80
7, 566160, Note_on_c, 1, 81, 80
7, 566249, Note_on_c, 1, 69, 0
7, 566249, Note_on_c, 1, 81, 0
7, 566280, Note_on_c, 1, 74, 80
7, 566280, Note_on_c, 1, 77, 80
7, 566369, Note_on_c, 1, 74, 0
7, 566369, Note_on_c, 1, 77, 0
7, 566400, Note_on_c, 1, 81, 80
7, 566400, Note_on_c, 1, 77, 80
7, 566489, Note_on_c, 1, 81, 0
7, 566489, Note_on_c, 1, 77, 0
7, 566520, Note_on_c, 1, 77, 80
7, 566520, Note_on_c, 1, 81, 80
7, 566609, Note_on_c, 1, 77, 0
7, 566609, Note_on_c, 1, 81, 0
7, 566640, Note_on_c, 1, 81, 80
7, 566640, Note_on_c, 1, 79, 80
7, 566729, Note_on_c, 1, 81, 0
7, 566729, Note_on_c, 1, 79, 0
7, 566760, Note_on_c, 1, 79, 80
7, 566760, Note_on_c, 1, 81, 80
7, 566849, Note_on_c, 1, 79, 0
7, 566849, Note_on_c, 1, 81, 0
7, 566880, Note_on_c, 1, 81, 80
7, 566880, Note_on_c, 1, 79, 80
7, 566969, Note_on_c, 1, 81, 0
7, 566969, Note_on_c, 1, 79, 0
7, 567000, Note_on_c, 1, 81, 80
7, 567000, Note_on_c, 1, 77, 80
7, 567089, Note_on_c, 1, 81, 0
7, 567089, Note_on_c, 1, 77, 0
7, 567120, Note_on_c, 1, 81, 80
7, 567120, Note_on_c, 1, 77, 80
7, 567209, Note_on_c, 1, 81, 0
7, 567209, Note_on_c, 1, 77, 0
7, 567240, Note_on_c, 1, 81, 80
7, 567240, Note_on_c, 1, 77, 80
7, 567329, Note_on_c, 1, 81, 0
7, 567329, Note_on_c, 1, 77, 0
7, 567360, Note_on_c, 1, 81, 80
7, 567360, Note_on_c, 1, 79, 80
7, 567449, Note_on_c, 1, 81, 0
7, 567449, Note_on_c, 1, 79, 0
7, 567480, Note_on_c, 1, 81, 80
7, 567480, Note_on_c, 1, 79, 80
7, 567569, Note_on_c, 1, 81, 0
7, 567569, Note_on_c, 1, 79, 0
7, 567600, Note_on_c, 1, 79, 80
7, 567600, Note_on_c, 1, 81, 80
7, 567689, Note_on_c, 1, 79, 0
7, 567689, Note_on_c, 1, 81, 0
7, 568440, Note_on_c, 1, 67, 32
7, 568559, Note_on_c, 1, 67, 0
7, 568560, Note_on_c, 1, 73, 32
7, 568679, Note_on_c, 1, 73, 0
7, 568680, Note_on_c, 1, 76, 32
7, 568799, Note_on_c, 1, 76, 0
7, 568800, Note_on_c, 1, 79, 32
7, 568919, Note_on_c, 1, 79, 0
7, 568920, Note_on_c, 1, 76, 32
7, 569039, Note_on_c, 1, 76, 0
7, 569040, Note_on_c, 1, 73, 32
7, 569144, Note_on_c, 1, 73, 0
7, 569160, Note_on_c, 1, 74, 32
7, 569279, Note_on_c, 1, 74, 0
7, 569520, Note_on_c, 1, 74, 32
7, 569520, Note_on_c, 1, 77, 32
7, 569684, Note_on_c, 1, 74, 0
7, 569684, Note_on_c, 1, 77, 0
7, 569700, Note_on_c, 1, 69, 32
7, 569700, Note_on_c, 1, 65, 32
7, 569744, Note_on_c, 1, 69, 0
7, 569744, Note_on_c, 1, 65, 0
7, 569760, Note_on_c, 1, 65, 32
7, 569760, Note_on_c, 1, 69, 32
7, 569864, Note_on_c, 1, 65, 0
7, 569864, Note_on_c, 1, 69, 0
7, 569880, Note_on_c, 1, 65, 32
7, 569880, Note_on_c, 1, 69, 32
7, 569999, Note_on_c, 1, 65, 0
7, 569999, Note_on_c, 1, 69, 0
7, 570240, Note_on_c, 1, 74, 32
7, 570240, Note_on_c, 1, 77, 32
7, 570404, Note_on_c, 1, 74, 0
7, 570404, Note_on_c, 1, 77, 0
7, 570420, Note_on_c, 1, 69, 32
7, 570420, Note_on_c, 1, 74, 32
7, 570464, Note_on_c, 1, 69, 0
7, 570464, Note_on_c, 1, 74, 0
7, 570480, Note_on_c, 1, 69, 32
7, 570480, Note_on_c, 1, 74, 32
7, 570584, Note_on_c, 1, 69, 0
7, 570584, Note_on_c, 1, 74, 0
7, 570600, Note_on_c, 1, 69, 32
7, 570600, Note_on_c, 1, 74, 32
7, 570719, Note_on_c, 1, 69, 0
7, 570719, Note_on_c, 1, 74, 0
7, 572400, Note_on_c, 1, 74, 40
7, 572564, Note_on_c, 1, 74, 0
7, 572580, Note_on_c, 1, 74, 44
7, 572624, Note_on_c, 1, 74, 0
7, 572640, Note_on_c, 1, 74, 46
7, 572744, Note_on_c, 1, 74, 0
7, 572760, Note_on_c, 1, 74, 49
7, 572879, Note_on_c, 1, 74, 0
7, 573120, Note_on_c, 1, 74, 57
7, 573284, Note_on_c, 1, 74, 0
7, 573300, Note_on_c, 1, 74, 62
7, 573344, Note_on_c, 1, 74, 0
7, 573360, Note_on_c, 1, 74, 63
7, 573464, Note_on_c, 1, 74, 0
7, 573480, Note_on_c, 1, 74, 66
7, 573599, Note_on_c, 1, 74, 0
7, 573840, Note_on_c, 1, 74, 74
7, 574004, Note_on_c, 1, 74, 0
7, 574020, Note_on_c, 1, 74, 79
7, 574064, Note_on_c, 1, 74, 0
7, 574080, Note_on_c, 1, 74, 80
7, 574184, Note_on_c, 1, 74, 0
7, 574200, Note_on_c, 1, 74, 83
7, 574319, Note_on_c, 1, 74, 0
7, 574560, Note_on_c, 1, 73, 92
7, 574560, Note_on_c, 1, 76, 92
7, 574724, Note_on_c, 1, 73, 0
7, 574724, Note_on_c, 1, 76, 0
7, 574740, Note_on_c, 1, 73, 92
7, 574740, Note_on_c, 1, 76, 92
7, 574784, Note_on_c, 1, 73, 0
7, 574784, Note_on_c, 1, 76, 0
7, 574800, Note_on_c, 1, 76, 92
7, 574800, Note_on_c, 1, 73, 92
7, 575249, Note_on_c, 1, 76, 0
7, 575249, Note_on_c, 1, 73, 0
7, 578160, Note_on_c, 1, 81, 32
7, 578319, Note_on_c, 1, 81, 0
7, 578340, Note_on_c, 1, 69, 35
7, 578379, Note_on_c, 1, 69, 0
7, 578400, Note_on_c, 1, 69, 37
7, 578499, Note_on_c, 1, 69, 0
7, 578520, Note_on_c, 1, 74, 39
7, 578619, Note_on_c, 1, 74, 0
7, 578640, Note_on_c, 1, 76, 42
7, 578739, Note_on_c, 1, 76, 0
7, 578760, Note_on_c, 1, 77, 44
7, 578859, Note_on_c, 1, 77, 0
7, 578880, Note_on_c, 1, 81, 47
7, 579039, Note_on_c, 1, 81, 0
7, 579060, Note_on_c, 1, 69, 50
7, 579099, Note_on_c, 1, 69, 0
7, 579120, Note_on_c, 1, 69, 52
7, 579219, Note_on_c, 1, 69, 0
7, 579240, Note_on_c, 1, 74, 54
7, 579339, Note_on_c, 1, 74, 0
7, 579360, Note_on_c, 1, 76, 57
7, 579459, Note_on_c, 1, 76, 0
7, 579480, Note_on_c, 1, 77, 59
7, 579579, Note_on_c, 1, 77, 0
7, 579600, Note_on_c, 1, 81, 62
7, 579759, Note_on_c, 1, 81, 0
7, 579780, Note_on_c, 1, 69, 65
7, 579819, Note_on_c, 1, 69, 0
7, 579840, Note_on_c, 1, 69, 67
7, 579939, Note_on_c, 1, 69, 0
7, 579960, Note_on_c, 1, 74, 69
7, 580059, Note_on_c, 1, 74, 0
7, 580080, Note_on_c, 1, 76, 72
7, 580179, Note_on_c, 1, 76, 0
7, 580200, Note_on_c, 1, 77, 74
7, 580299, Note_on_c, 1, 77, 0
7, 580320, Note_on_c, 1, 81, 77
7, 580479, Note_on_c, 1, 81, 0
7, 580500, Note_on_c, 1, 69, 80
7, 580539, Note_on_c, 1, 69, 0
7, 580560, Note_on_c, 1, 69, 82
7, 580659, Note_on_c, 1, 69, 0
7, 580680, Note_on_c, 1, 74, 84
7, 580779, Note_on_c, 1, 74, 0
7, 580800, Note_on_c, 1, 76, 87
7, 580899, Note_on_c, 1, 76, 0
7, 580920, Note_on_c, 1, 77, 89
7, 581019, Note_on_c, 1, 77, 0
7, 581040, Note_on_c, 1, 81, 92
7, 581139, Note_on_c, 1, 81, 0
7, 581160, Note_on_c, 1, 69, 92
7, 581259, Note_on_c, 1, 69, 0
7, 581280, Note_on_c, 1, 74, 80
7, 581379, Note_on_c, 1, 74, 0
7, 581400, Note_on_c, 1, 62, 80
7, 581499, Note_on_c, 1, 62, 0
7, 581520, Note_on_c, 1, 69, 80
7, 581619, Note_on_c, 1, 69, 0
7, 581640, Note_on_c, 1, 69, 80
7, 581739, Note_on_c, 1, 69, 0
7, 581760, Note_on_c, 1, 81, 80
7, 581859, Note_on_c, 1, 81, 0
7, 581880, Note_on_c, 1, 69, 80
7, 581979, Note_on_c, 1, 69, 0
7, 582000, Note_on_c, 1, 74, 80
7, 582060, Control_c, 1, 11, 67
7, 582720, Note_on_c, 1, 76, 80
7, 582959, Note_on_c, 1, 76, 0
7, 582960, Note_on_c, 1, 78, 80
7, 583319, Note_on_c, 1, 74, 0
7, 583319, Note_on_c, 1, 78, 0
7, 583320, Note_on_c, 1, 76, 80
7, 583320, Note_on_c, 1, 79, 80
7, 583379, Note_on_c, 1, 76, 0
7, 583379, Note_on_c, 1, 79, 0
7, 583380, Note_on_c, 1, 81, 80
7, 583380, Note_on_c, 1, 78, 80
7, 583419, Note_on_c, 1, 81, 0
7, 583419, Note_on_c, 1, 78, 0
7, 583440, Note_on_c, 1, 74, 80
7, 583440, Note_on_c, 1, 79, 80
7, 583529, Note_on_c, 1, 74, 0
7, 583529, Note_on_c, 1, 79, 0
7, 583560, Note_on_c, 1, 76, 80
7, 583560, Note_on_c, 1, 79, 80
7, 583649, Note_on_c, 1, 76, 0
7, 583649, Note_on_c, 1, 79, 0
7, 583680, Note_on_c, 1, 78, 80
7, 583680, Note_on_c, 1, 74, 80
7, 583769, Note_on_c, 1, 78, 0
7, 583769, Note_on_c, 1, 74, 0
7, 583800, Note_on_c, 1, 62, 80
7, 583800, Note_on_c, 1, 78, 80
7, 583889, Note_on_c, 1, 62, 0
7, 583889, Note_on_c, 1, 78, 0
7, 583920, Note_on_c, 1, 76, 80
7, 583920, Note_on_c, 1, 73, 80
7, 584009, Note_on_c, 1, 73, 0
7, 584040, Note_on_c, 1, 67, 80
7, 584129, Note_on_c, 1, 67, 0
7, 584139, Note_on_c, 1, 76, 0
7, 584160, Note_on_c, 1, 74, 80
7, 584160, Note_on_c, 1, 66, 80
7, 584249, Note_on_c, 1, 66, 0
7, 584640, Note_on_c, 1, 76, 80
7, 584859, Note_on_c, 1, 76, 0
7, 584880, Note_on_c, 1, 78, 80
7, 585239, Note_on_c, 1, 74, 0
7, 585239, Note_on_c, 1, 78, 0
7, 585240, Note_on_c, 1, 76, 80
7, 585240, Note_on_c, 1, 79, 80
7, 585299, Note_on_c, 1, 76, 0
7, 585299, Note_on_c, 1, 79, 0
7, 585300, Note_on_c, 1, 78, 80
7, 585300, Note_on_c, 1, 81, 80
7, 585359, Note_on_c, 1, 78, 0
7, 585359, Note_on_c, 1, 81, 0
7, 585838, Control_c, 1, 11, 127
7, 585840, Note_on_c, 1, 81, 92
7, 585939, Note_on_c, 1, 81, 0
7, 585960, Note_on_c, 1, 69, 92
7, 586059, Note_on_c, 1, 69, 0
7, 586080, Note_on_c, 1, 74, 80
7, 586179, Note_on_c, 1, 74, 0
7, 586200, Note_on_c, 1, 62, 80
7, 586299, Note_on_c, 1, 62, 0
7, 586320, Note_on_c, 1, 69, 80
7, 586419, Note_on_c, 1, 69, 0
7, 586440, Note_on_c, 1, 69, 80
7, 586539, Note_on_c, 1, 69, 0
7, 586560, Note_on_c, 1, 81, 80
7, 586659, Note_on_c, 1, 81, 0
7, 586680, Note_on_c, 1, 69, 80
7, 586779, Note_on_c, 1, 69, 0
7, 586800, Note_on_c, 1, 74, 80
7, 586800, Note_on_c, 1, 62, 80
7, 586919, Note_on_c, 1, 74, 0
7, 586919, Note_on_c, 1, 62, 0
7, 586919, End_track
8, 0, Start_track
8, 0, Title_t, "Clarinet in C"
8, 0, MIDI_port, 0
8, 0, Program_c, 2, 71
8, 0, Control_c, 2, 7, 96
8, 0, Control_c, 2, 10, 75
8, 0, Control_c, 2, 11, 127
8, 1800, Note_on_c, 2, 74, 92
8, 1964, Note_on_c, 2, 74, 0
8, 1980, Note_on_c, 2, 62, 92
8, 2024, Note_on_c, 2, 62, 0
8, 2040, Note_on_c, 2, 62, 92
8, 2159, Note_on_c, 2, 62, 0
8, 4320, Note_on_c, 2, 74, 32
8, 4439, Note_on_c, 2, 74, 0
8, 4680, Note_on_c, 2, 69, 32
8, 4799, Note_on_c, 2, 69, 0
8, 5040, Note_on_c, 2, 71, 32
8, 5159, Note_on_c, 2, 71, 0
8, 5400, Note_on_c, 2, 72, 32
8, 5519, Note_on_c, 2, 72, 0
8, 5760, Note_on_c, 2, 70, 32
8, 5879, Note_on_c, 2, 70, 0
8, 6120, Note_on_c, 2, 65, 32
8, 6239, Note_on_c, 2, 65, 0
8, 6480, Note_on_c, 2, 61, 32
8, 6599, Note_on_c, 2, 61, 0
8, 6840, Note_on_c, 2, 62, 32
8, 6959, Note_on_c, 2, 62, 0
8, 7200, Note_on_c, 2, 69, 32
8, 7319, Note_on_c, 2, 69, 0
8, 7560, Note_on_c, 2, 69, 32
8, 7679, Note_on_c, 2, 69, 0
8, 7920, Note_on_c, 2, 64, 32
8, 8039, Note_on_c, 2, 64, 0
8, 8280, Note_on_c, 2, 76, 32
8, 8280, Note_on_c, 2, 64, 32
8, 8399, Note_on_c, 2, 76, 0
8, 8399, Note_on_c, 2, 64, 0
8, 8640, Note_on_c, 2, 64, 32
8, 8640, Note_on_c, 2, 73, 32
8, 8759, Note_on_c, 2, 64, 0
8, 8759, Note_on_c, 2, 73, 0
8, 9000, Note_on_c, 2, 74, 32
8, 9000, Note_on_c, 2, 69, 32
8, 9119, Note_on_c, 2, 74, 0
8, 9119, Note_on_c, 2, 69, 0
8, 9360, Note_on_c, 2, 69, 32
8, 9360, Note_on_c, 2, 79, 32
8, 9479, Note_on_c, 2, 69, 0
8, 9479, Note_on_c, 2, 79, 0
8, 9720, Note_on_c, 2, 69, 32
8, 9720, Note_on_c, 2, 74, 32
8, 9839, Note_on_c, 2, 69, 0
8, 9839, Note_on_c, 2, 74, 0
8, 10080, Note_on_c, 2, 69, 32
8, 10080, Note_on_c, 2, 74, 32
8, 10199, Note_on_c, 2, 69, 0
8, 10199, Note_on_c, 2, 74, 0
8, 10440, Note_on_c, 2, 69, 32
8, 10440, Note_on_c, 2, 76, 32
8, 10559, Note_on_c, 2, 69, 0
8, 10559, Note_on_c, 2, 76, 0
8, 10800, Note_on_c, 2, 71, 32
8, 10800, Note_on_c, 2, 76, 32
8, 10919, Note_on_c, 2, 71, 0
8, 10919, Note_on_c, 2, 76, 0
8, 11160, Note_on_c, 2, 72, 32
8, 11160, Note_on_c, 2, 76, 32
8, 11279, Note_on_c, 2, 72, 0
8, 11279, Note_on_c, 2, 76, 0
8, 11520, Note_on_c, 2, 67, 32
8, 11520, Note_on_c, 2, 76, 32
8, 11639, Note_on_c, 2, 67, 0
8, 11639, Note_on_c, 2, 76, 0
8, 11880, Note_on_c, 2, 69, 32
8, 11880, Note_on_c, 2, 74, 32
8, 11999, Note_on_c, 2, 69, 0
8, 11999, Note_on_c, 2, 74, 0
8, 12240, Note_on_c, 2, 64, 32
8, 12240, Note_on_c, 2, 69, 32
8, 12359, Note_on_c, 2, 64, 0
8, 12359, Note_on_c, 2, 69, 0
8, 12600, Note_on_c, 2, 69, 32
8, 12600, Note_on_c, 2, 65, 32
8, 12719, Note_on_c, 2, 69, 0
8, 12719, Note_on_c, 2, 65, 0
8, 12960, Note_on_c, 2, 74, 32
8, 12960, Note_on_c, 2, 62, 32
8, 13079, Note_on_c, 2, 74, 0
8, 13079, Note_on_c, 2, 62, 0
8, 13320, Note_on_c, 2, 64, 32
8, 13320, Note_on_c, 2, 69, 32
8, 13439, Note_on_c, 2, 64, 0
8, 13439, Note_on_c, 2, 69, 0
8, 13680, Note_on_c, 2, 71, 32
8, 13680, Note_on_c, 2, 59, 32
8, 13799, Note_on_c, 2, 71, 0
8, 13799, Note_on_c, 2, 59, 0
8, 14040, Note_on_c, 2, 60, 32
8, 14040, Note_on_c, 2, 69, 32
8, 14159, Note_on_c, 2, 60, 0
8, 14159, Note_on_c, 2, 69, 0
8, 14400, Note_on_c, 2, 64, 32
8, 14400, Note_on_c, 2, 61, 32
8, 14519, Note_on_c, 2, 64, 0
8, 14519, Note_on_c, 2, 61, 0
8, 14760, Note_on_c, 2, 57, 32
8, 14760, Note_on_c, 2, 69, 32
8, 14879, Note_on_c, 2, 57, 0
8, 14879, Note_on_c, 2, 69, 0
8, 15120, Note_on_c, 2, 61, 32
8, 15120, Note_on_c, 2, 69, 32
8, 15239, Note_on_c, 2, 61, 0
8, 15239, Note_on_c, 2, 69, 0
8, 15480, Note_on_c, 2, 69, 32
8, 15480, Note_on_c, 2, 65, 32
8, 15599, Note_on_c, 2, 69, 0
8, 15599, Note_on_c, 2, 65, 0
8, 15720, Control_c, 2, 11, 27
8, 15840, Note_on_c, 2, 57, 92
8, 15840, Control_c, 2, 11, 27
8, 15840, Note_on_c, 2, 69, 92
8, 15883, Control_c, 2, 11, 28
8, 15926, Control_c, 2, 11, 29
8, 15970, Control_c, 2, 11, 30
8, 16013, Control_c, 2, 11, 31
8, 16056, Control_c, 2, 11, 32
8, 16099, Control_c, 2, 11, 33
8, 16142, Control_c, 2, 11, 34
8, 16186, Control_c, 2, 11, 35
8, 16229, Control_c, 2, 11, 36
8, 16272, Control_c, 2, 11, 37
8, 16315, Control_c, 2, 11, 38
8, 16358, Control_c, 2, 11, 39
8, 16402, Control_c, 2, 11, 40
8, 16445, Control_c, 2, 11, 41
8, 16488, Control_c, 2, 11, 42
8, 16531, Control_c, 2, 11, 43
8, 16574, Control_c, 2, 11, 44
8, 16618, Control_c, 2, 11, 45
8, 16661, Control_c, 2, 11, 46
8, 16704, Control_c, 2, 11, 47
8, 16747, Control_c, 2, 11, 48
8, 16790, Control_c, 2, 11, 49
8, 16834, Control_c, 2, 11, 50
8, 16877, Control_c, 2, 11, 51
8, 16920, Control_c, 2, 11, 52
8, 16963, Control_c, 2, 11, 53
8, 17006, Control_c, 2, 11, 54
8, 17050, Control_c, 2, 11, 55
8, 17093, Control_c, 2, 11, 56
8, 17136, Control_c, 2, 11, 57
8, 17179, Control_c, 2, 11, 58
8, 17222, Control_c, 2, 11, 59
8, 17266, Control_c, 2, 11, 60
8, 17309, Control_c, 2, 11, 61
8, 17352, Control_c, 2, 11, 62
8, 17395, Control_c, 2, 11, 63
8, 17438, Control_c, 2, 11, 64
8, 17482, Control_c, 2, 11, 65
8, 17525, Control_c, 2, 11, 66
8, 17568, Control_c, 2, 11, 67
8, 17611, Control_c, 2, 11, 68
8, 17654, Control_c, 2, 11, 69
8, 17698, Control_c, 2, 11, 70
8, 17741, Control_c, 2, 11, 71
8, 17784, Control_c, 2, 11, 72
8, 17827, Control_c, 2, 11, 73
8, 17870, Control_c, 2, 11, 74
8, 17914, Control_c, 2, 11, 75
8, 17957, Control_c, 2, 11, 76
8, 18000, Control_c, 2, 11, 77
8, 18043, Control_c, 2, 11, 78
8, 18086, Control_c, 2, 11, 79
8, 18130, Control_c, 2, 11, 80
8, 18173, Control_c, 2, 11, 81
8, 18216, Control_c, 2, 11, 82
8, 18259, Control_c, 2, 11, 83
8, 18302, Control_c, 2, 11, 84
8, 18346, Control_c, 2, 11, 85
8, 18389, Control_c, 2, 11, 86
8, 18432, Control_c, 2, 11, 87
8, 18475, Control_c, 2, 11, 88
8, 18518, Control_c, 2, 11, 89
8, 18562, Control_c, 2, 11, 90
8, 18605, Control_c, 2, 11, 91
8, 18648, Control_c, 2, 11, 92
8, 18691, Control_c, 2, 11, 93
8, 18734, Control_c, 2, 11, 94
8, 18778, Control_c, 2, 11, 95
8, 18821, Control_c, 2, 11, 96
8, 18864, Control_c, 2, 11, 97
8, 18907, Control_c, 2, 11, 98
8, 18950, Control_c, 2, 11, 99
8, 18994, Control_c, 2, 11, 100
8, 19037, Control_c, 2, 11, 101
8, 19080, Control_c, 2, 11, 102
8, 19123, Control_c, 2, 11, 103
8, 19166, Control_c, 2, 11, 104
8, 19210, Control_c, 2, 11, 105
8, 19253, Control_c, 2, 11, 106
8, 19296, Control_c, 2, 11, 107
8, 19339, Control_c, 2, 11, 108
8, 19382, Control_c, 2, 11, 109
8, 19426, Control_c, 2, 11, 110
8, 19469, Control_c, 2, 11, 111
8, 19512, Control_c, 2, 11, 112
8, 19555, Control_c, 2, 11, 113
8, 19598, Control_c, 2, 11, 114
8, 19642, Control_c, 2, 11, 115
8, 19685, Control_c, 2, 11, 116
8, 19728, Control_c, 2, 11, 117
8, 19771, Control_c, 2, 11, 118
8, 19814, Control_c, 2, 11, 119
8, 19858, Control_c, 2, 11, 120
8, 19901, Control_c, 2, 11, 121
8, 19944, Control_c, 2, 11, 122
8, 19987, Control_c, 2, 11, 123
8, 20030, Control_c, 2, 11, 124
8, 20074, Control_c, 2, 11, 125
8, 20117, Control_c, 2, 11, 127
8, 20144, Note_on_c, 2, 57, 0
8, 20144, Note_on_c, 2, 69, 0
8, 20160, Note_on_c, 2, 81, 92
8, 20160, Note_on_c, 2, 69, 92
8, 20324, Note_on_c, 2, 81, 0
8, 20324, Note_on_c, 2, 69, 0
8, 20340, Note_on_c, 2, 69, 92
8, 20340, Note_on_c, 2, 57, 92
8, 20384, Note_on_c, 2, 69, 0
8, 20384, Note_on_c, 2, 57, 0
8, 20400, Note_on_c, 2, 57, 92
8, 20400, Note_on_c, 2, 69, 92
8, 20504, Note_on_c, 2, 57, 0
8, 20504, Note_on_c, 2, 69, 0
8, 20520, Note_on_c, 2, 74, 92
8, 20520, Note_on_c, 2, 69, 92
8, 20624, Note_on_c, 2, 74, 0
8, 20624, Note_on_c, 2, 69, 0
8, 20640, Note_on_c, 2, 69, 92
8, 20640, Note_on_c, 2, 76, 92
8, 20744, Note_on_c, 2, 69, 0
8, 20744, Note_on_c, 2, 76, 0
8, 20760, Note_on_c, 2, 77, 92
8, 20760, Note_on_c, 2, 69, 92
8, 20864, Note_on_c, 2, 77, 0
8, 20864, Note_on_c, 2, 69, 0
8, 20880, Note_on_c, 2, 69, 92
8, 20880, Note_on_c, 2, 76, 92
8, 20984, Note_on_c, 2, 69, 0
8, 20984, Note_on_c, 2, 76, 0
8, 21000, Note_on_c, 2, 69, 92
8, 21000, Note_on_c, 2, 77, 92
8, 21104, Note_on_c, 2, 69, 0
8, 21104, Note_on_c, 2, 77, 0
8, 21120, Note_on_c, 2, 69, 92
8, 21120, Note_on_c, 2, 79, 92
8, 21224, Note_on_c, 2, 69, 0
8, 21224, Note_on_c, 2, 79, 0
8, 21240, Note_on_c, 2, 77, 92
8, 21240, Note_on_c, 2, 69, 92
8, 21344, Note_on_c, 2, 77, 0
8, 21344, Note_on_c, 2, 69, 0
8, 21360, Note_on_c, 2, 69, 92
8, 21360, Note_on_c, 2, 76, 92
8, 21464, Note_on_c, 2, 69, 0
8, 21464, Note_on_c, 2, 76, 0
8, 21480, Note_on_c, 2, 69, 92
8, 21480, Note_on_c, 2, 74, 92
8, 21584, Note_on_c, 2, 69, 0
8, 21584, Note_on_c, 2, 74, 0
8, 21600, Note_on_c, 2, 70, 80
8, 21600, Note_on_c, 2, 74, 80
8, 21704, Note_on_c, 2, 70, 0
8, 21704, Note_on_c, 2, 74, 0
8, 21720, Note_on_c, 2, 74, 80
8, 21720, Note_on_c, 2, 69, 80
8, 21824, Note_on_c, 2, 74, 0
8, 21824, Note_on_c, 2, 69, 0
8, 21840, Note_on_c, 2, 67, 80
8, 21840, Note_on_c, 2, 74, 80
8, 21944, Note_on_c, 2, 67, 0
8, 21944, Note_on_c, 2, 74, 0
8, 21960, Note_on_c, 2, 77, 80
8, 21960, Note_on_c, 2, 69, 80
8, 22064, Note_on_c, 2, 77, 0
8, 22064, Note_on_c, 2, 69, 0
8, 22080, Note_on_c, 2, 76, 80
8, 22080, Note_on_c, 2, 69, 80
8, 22184, Note_on_c, 2, 76, 0
8, 22184, Note_on_c, 2, 69, 0
8, 22200, Note_on_c, 2, 69, 80
8, 22200, Note_on_c, 2, 74, 80
8, 22304, Note_on_c, 2, 69, 0
8, 22304, Note_on_c, 2, 74, 0
8, 22320, Note_on_c, 2, 73, 80
8, 22320, Note_on_c, 2, 69, 80
8, 22424, Note_on_c, 2, 73, 0
8, 22424, Note_on_c, 2, 69, 0
8, 22440, Note_on_c, 2, 74, 80
8, 22440, Note_on_c, 2, 69, 80
8, 22544, Note_on_c, 2, 74, 0
8, 22544, Note_on_c, 2, 69, 0
8, 22560, Note_on_c, 2, 76, 80
8, 22560, Note_on_c, 2, 69, 80
8, 22664, Note_on_c, 2, 76, 0
8, 22664, Note_on_c, 2, 69, 0
8, 22680, Note_on_c, 2, 74, 80
8, 22680, Note_on_c, 2, 69, 80
8, 22784, Note_on_c, 2, 74, 0
8, 22784, Note_on_c, 2, 69, 0
8, 22800, Note_on_c, 2, 69, 80
8, 22800, Note_on_c, 2, 73, 80
8, 22904, Note_on_c, 2, 69, 0
8, 22904, Note_on_c, 2, 73, 0
8, 22920, Note_on_c, 2, 74, 80
8, 22920, Note_on_c, 2, 69, 80
8, 23024, Note_on_c, 2, 74, 0
8, 23024, Note_on_c, 2, 69, 0
8, 23040, Note_on_c, 2, 70, 80
8, 23040, Note_on_c, 2, 74, 80
8, 23144, Note_on_c, 2, 70, 0
8, 23144, Note_on_c, 2, 74, 0
8, 23160, Note_on_c, 2, 74, 80
8, 23160, Note_on_c, 2, 69, 80
8, 23264, Note_on_c, 2, 74, 0
8, 23264, Note_on_c, 2, 69, 0
8, 23280, Note_on_c, 2, 74, 80
8, 23280, Note_on_c, 2, 67, 80
8, 23384, Note_on_c, 2, 74, 0
8, 23384, Note_on_c, 2, 67, 0
8, 23400, Note_on_c, 2, 65, 80
8, 23400, Note_on_c, 2, 77, 80
8, 23504, Note_on_c, 2, 65, 0
8, 23504, Note_on_c, 2, 77, 0
8, 23520, Note_on_c, 2, 69, 80
8, 23520, Note_on_c, 2, 76, 80
8, 23624, Note_on_c, 2, 69, 0
8, 23624, Note_on_c, 2, 76, 0
8, 23640, Note_on_c, 2, 74, 80
8, 23640, Note_on_c, 2, 69, 80
8, 23744, Note_on_c, 2, 74, 0
8, 23744, Note_on_c, 2, 69, 0
8, 23760, Note_on_c, 2, 73, 80
8, 23760, Note_on_c, 2, 69, 80
8, 23864, Note_on_c, 2, 73, 0
8, 23864, Note_on_c, 2, 69, 0
8, 23880, Note_on_c, 2, 74, 80
8, 23880, Note_on_c, 2, 69, 80
8, 23984, Note_on_c, 2, 74, 0
8, 23984, Note_on_c, 2, 69, 0
8, 24000, Note_on_c, 2, 76, 80
8, 24000, Note_on_c, 2, 67, 80
8, 24104, Note_on_c, 2, 76, 0
8, 24104, Note_on_c, 2, 67, 0
8, 24120, Note_on_c, 2, 69, 80
8, 24120, Note_on_c, 2, 65, 80
8, 24224, Note_on_c, 2, 69, 0
8, 24224, Note_on_c, 2, 65, 0
8, 24240, Note_on_c, 2, 65, 80
8, 24240, Note_on_c, 2, 69, 80
8, 24344, Note_on_c, 2, 65, 0
8, 24344, Note_on_c, 2, 69, 0
8, 24360, Note_on_c, 2, 65, 80
8, 24360, Note_on_c, 2, 71, 80
8, 24464, Note_on_c, 2, 65, 0
8, 24464, Note_on_c, 2, 71, 0
8, 24480, Note_on_c, 2, 71, 80
8, 24480, Note_on_c, 2, 65, 80
8, 24584, Note_on_c, 2, 71, 0
8, 24584, Note_on_c, 2, 65, 0
8, 24600, Note_on_c, 2, 71, 80
8, 24600, Note_on_c, 2, 62, 80
8, 24704, Note_on_c, 2, 71, 0
8, 24704, Note_on_c, 2, 62, 0
8, 24720, Note_on_c, 2, 74, 80
8, 24720, Note_on_c, 2, 65, 80
8, 24824, Note_on_c, 2, 74, 0
8, 24824, Note_on_c, 2, 65, 0
8, 24840, Note_on_c, 2, 64, 80
8, 24840, Note_on_c, 2, 76, 80
8, 24944, Note_on_c, 2, 64, 0
8, 24944, Note_on_c, 2, 76, 0
8, 24960, Note_on_c, 2, 67, 80
8, 24960, Note_on_c, 2, 74, 80
8, 25064, Note_on_c, 2, 67, 0
8, 25064, Note_on_c, 2, 74, 0
8, 25080, Note_on_c, 2, 67, 80
8, 25080, Note_on_c, 2, 72, 80
8, 25184, Note_on_c, 2, 67, 0
8, 25184, Note_on_c, 2, 72, 0
8, 25200, Note_on_c, 2, 67, 80
8, 25200, Note_on_c, 2, 71, 80
8, 25304, Note_on_c, 2, 67, 0
8, 25304, Note_on_c, 2, 71, 0
8, 25320, Note_on_c, 2, 67, 80
8, 25320, Note_on_c, 2, 72, 80
8, 25424, Note_on_c, 2, 67, 0
8, 25424, Note_on_c, 2, 72, 0
8, 25440, Note_on_c, 2, 67, 80
8, 25440, Note_on_c, 2, 74, 80
8, 25544, Note_on_c, 2, 67, 0
8, 25544, Note_on_c, 2, 74, 0
8, 25560, Note_on_c, 2, 72, 80
8, 25560, Note_on_c, 2, 67, 80
8, 25664, Note_on_c, 2, 72, 0
8, 25664, Note_on_c, 2, 67, 0
8, 25680, Note_on_c, 2, 81, 80
8, 25680, Note_on_c, 2, 77, 80
8, 25784, Note_on_c, 2, 81, 0
8, 25784, Note_on_c, 2, 77, 0
8, 25800, Note_on_c, 2, 81, 80
8, 25800, Note_on_c, 2, 77, 80
8, 25904, Note_on_c, 2, 81, 0
8, 25904, Note_on_c, 2, 77, 0
8, 25920, Note_on_c, 2, 81, 80
8, 25920, Note_on_c, 2, 77, 80
8, 26024, Note_on_c, 2, 81, 0
8, 26024, Note_on_c, 2, 77, 0
8, 26040, Note_on_c, 2, 74, 80
8, 26040, Note_on_c, 2, 79, 80
8, 26144, Note_on_c, 2, 74, 0
8, 26144, Note_on_c, 2, 79, 0
8, 26160, Note_on_c, 2, 77, 80
8, 26160, Note_on_c, 2, 74, 80
8, 26264, Note_on_c, 2, 77, 0
8, 26264, Note_on_c, 2, 74, 0
8, 26280, Note_on_c, 2, 67, 80
8, 26280, Note_on_c, 2, 76, 80
8, 26384, Note_on_c, 2, 67, 0
8, 26384, Note_on_c, 2, 76, 0
8, 26400, Note_on_c, 2, 74, 80
8, 26400, Note_on_c, 2, 67, 80
8, 26504, Note_on_c, 2, 74, 0
8, 26504, Note_on_c, 2, 67, 0
8, 26520, Note_on_c, 2, 72, 80
8, 26520, Note_on_c, 2, 67, 80
8, 26624, Note_on_c, 2, 72, 0
8, 26624, Note_on_c, 2, 67, 0
8, 26640, Note_on_c, 2, 67, 80
8, 26640, Note_on_c, 2, 79, 80
8, 26744, Note_on_c, 2, 67, 0
8, 26744, Note_on_c, 2, 79, 0
8, 26760, Note_on_c, 2, 77, 80
8, 26760, Note_on_c, 2, 67, 80
8, 26864, Note_on_c, 2, 77, 0
8, 26864, Note_on_c, 2, 67, 0
8, 26880, Note_on_c, 2, 67, 80
8, 26880, Note_on_c, 2, 76, 80
8, 26984, Note_on_c, 2, 67, 0
8, 26984, Note_on_c, 2, 76, 0
8, 27000, Note_on_c, 2, 79, 80
8, 27000, Note_on_c, 2, 67, 80
8, 27104, Note_on_c, 2, 79, 0
8, 27104, Note_on_c, 2, 67, 0
8, 27120, Note_on_c, 2, 67, 80
8, 27120, Note_on_c, 2, 77, 80
8, 27224, Note_on_c, 2, 67, 0
8, 27224, Note_on_c, 2, 77, 0
8, 27240, Note_on_c, 2, 76, 80
8, 27240, Note_on_c, 2, 67, 80
8, 27344, Note_on_c, 2, 76, 0
8, 27344, Note_on_c, 2, 67, 0
8, 27360, Note_on_c, 2, 67, 80
8, 27360, Note_on_c, 2, 74, 80
8, 27479, Note_on_c, 2, 67, 0
8, 27479, Note_on_c, 2, 74, 0
8, 29880, Control_c, 2, 11, 47
8, 30240, Note_on_c, 2, 67, 92
8, 30240, Control_c, 2, 11, 49
8, 30277, Control_c, 2, 11, 50
8, 30314, Control_c, 2, 11, 51
8, 30351, Control_c, 2, 11, 52
8, 30388, Control_c, 2, 11, 53
8, 30425, Control_c, 2, 11, 54
8, 30462, Control_c, 2, 11, 55
8, 30498, Control_c, 2, 11, 56
8, 30535, Control_c, 2, 11, 57
8, 30572, Control_c, 2, 11, 58
8, 30609, Control_c, 2, 11, 59
8, 30646, Control_c, 2, 11, 60
8, 30683, Control_c, 2, 11, 61
8, 30720, Control_c, 2, 11, 62
8, 30757, Control_c, 2, 11, 63
8, 30794, Control_c, 2, 11, 64
8, 30831, Control_c, 2, 11, 65
8, 30868, Control_c, 2, 11, 66
8, 30905, Control_c, 2, 11, 67
8, 30942, Control_c, 2, 11, 68
8, 30960, Note_on_c, 2, 69, 92
8, 30978, Control_c, 2, 11, 69
8, 31015, Control_c, 2, 11, 70
8, 31052, Control_c, 2, 11, 71
8, 31089, Control_c, 2, 11, 72
8, 31126, Control_c, 2, 11, 73
8, 31163, Control_c, 2, 11, 74
8, 31200, Control_c, 2, 11, 75
8, 31237, Control_c, 2, 11, 76
8, 31274, Control_c, 2, 11, 77
8, 31311, Control_c, 2, 11, 78
8, 31319, Note_on_c, 2, 67, 0
8, 31320, Note_on_c, 2, 65, 92
8, 31348, Control_c, 2, 11, 79
8, 31385, Control_c, 2, 11, 80
8, 31422, Control_c, 2, 11, 81
8, 31458, Control_c, 2, 11, 82
8, 31495, Control_c, 2, 11, 83
8, 31532, Control_c, 2, 11, 84
8, 31569, Control_c, 2, 11, 85
8, 31606, Control_c, 2, 11, 86
8, 31643, Control_c, 2, 11, 87
8, 31679, Note_on_c, 2, 69, 0
8, 31680, Note_on_c, 2, 68, 92
8, 31680, Control_c, 2, 11, 88
8, 31717, Control_c, 2, 11, 89
8, 31754, Control_c, 2, 11, 90
8, 31791, Control_c, 2, 11, 91
8, 31828, Control_c, 2, 11, 92
8, 31865, Control_c, 2, 11, 93
8, 31902, Control_c, 2, 11, 94
8, 31938, Control_c, 2, 11, 95
8, 31975, Control_c, 2, 11, 96
8, 32012, Control_c, 2, 11, 97
8, 32039, Note_on_c, 2, 65, 0
8, 32039, Note_on_c, 2, 68, 0
8, 32040, Note_on_c, 2, 64, 92
8, 32040, Note_on_c, 2, 67, 92
8, 32049, Control_c, 2, 11, 98
8, 32086, Control_c, 2, 11, 99
8, 32123, Control_c, 2, 11, 100
8, 32160, Control_c, 2, 11, 101
8, 32197, Control_c, 2, 11, 102
8, 32234, Control_c, 2, 11, 103
8, 32271, Control_c, 2, 11, 104
8, 32308, Control_c, 2, 11, 105
8, 32345, Control_c, 2, 11, 106
8, 32382, Control_c, 2, 11, 107
8, 32399, Note_on_c, 2, 64, 0
8, 32400, Note_on_c, 2, 63, 60
8, 32418, Control_c, 2, 11, 108
8, 32455, Control_c, 2, 11, 109
8, 32492, Control_c, 2, 11, 110
8, 32529, Control_c, 2, 11, 111
8, 32566, Control_c, 2, 11, 112
8, 32603, Control_c, 2, 11, 113
8, 32640, Control_c, 2, 11, 114
8, 32677, Control_c, 2, 11, 115
8, 32714, Control_c, 2, 11, 116
8, 32751, Control_c, 2, 11, 117
8, 32759, Note_on_c, 2, 63, 0
8, 32760, Note_on_c, 2, 62, 92
8, 32788, Control_c, 2, 11, 118
8, 32825, Control_c, 2, 11, 119
8, 32862, Control_c, 2, 11, 120
8, 32898, Control_c, 2, 11, 121
8, 32935, Control_c, 2, 11, 122
8, 32972, Control_c, 2, 11, 123
8, 33009, Control_c, 2, 11, 124
8, 33046, Control_c, 2, 11, 125
8, 33083, Control_c, 2, 11, 127
8, 33104, Note_on_c, 2, 67, 0
8, 33104, Note_on_c, 2, 62, 0
8, 33120, Note_on_c, 2, 72, 92
8, 33120, Note_on_c, 2, 60, 92
8, 33239, Note_on_c, 2, 60, 0
8, 33240, Note_on_c, 2, 64, 92
8, 33359, Note_on_c, 2, 72, 0
8, 33359, Note_on_c, 2, 64, 0
8, 33360, Note_on_c, 2, 65, 92
8, 33360, Note_on_c, 2, 74, 92
8, 33419, Note_on_c, 2, 65, 0
8, 33419, Note_on_c, 2, 74, 0
8, 33420, Note_on_c, 2, 67, 92
8, 33420, Note_on_c, 2, 76, 92
8, 33464, Note_on_c, 2, 67, 0
8, 33464, Note_on_c, 2, 76, 0
8, 33480, Note_on_c, 2, 77, 92
8, 33480, Note_on_c, 2, 69, 92
8, 33599, Note_on_c, 2, 77, 0
8, 33599, Note_on_c, 2, 69, 0
8, 33720, Note_on_c, 2, 76, 92
8, 33720, Note_on_c, 2, 67, 92
8, 33809, Note_on_c, 2, 76, 0
8, 33809, Note_on_c, 2, 67, 0
8, 33840, Note_on_c, 2, 74, 92
8, 33840, Note_on_c, 2, 65, 92
8, 33929, Note_on_c, 2, 74, 0
8, 33929, Note_on_c, 2, 65, 0
8, 34080, Note_on_c, 2, 64, 92
8, 34080, Note_on_c, 2, 72, 92
8, 34169, Note_on_c, 2, 64, 0
8, 34169, Note_on_c, 2, 72, 0
8, 34200, Note_on_c, 2, 65, 92
8, 34200, Note_on_c, 2, 74, 92
8, 34289, Note_on_c, 2, 65, 0
8, 34289, Note_on_c, 2, 74, 0
8, 34440, Note_on_c, 2, 71, 92
8, 34440, Note_on_c, 2, 62, 92
8, 34529, Note_on_c, 2, 71, 0
8, 34529, Note_on_c, 2, 62, 0
8, 34560, Note_on_c, 2, 60, 92
8, 34560, Note_on_c, 2, 64, 92
8, 34799, Note_on_c, 2, 60, 0
8, 34799, Note_on_c, 2, 64, 0
8, 34800, Note_on_c, 2, 62, 92
8, 34800, Note_on_c, 2, 65, 92
8, 34859, Note_on_c, 2, 62, 0
8, 34859, Note_on_c, 2, 65, 0
8, 34860, Note_on_c, 2, 64, 92
8, 34860, Note_on_c, 2, 67, 92
8, 34904, Note_on_c, 2, 64, 0
8, 34904, Note_on_c, 2, 67, 0
8, 34920, Note_on_c, 2, 69, 92
8, 34920, Note_on_c, 2, 65, 92
8, 35009, Note_on_c, 2, 69, 0
8, 35009, Note_on_c, 2, 65, 0
8, 35160, Note_on_c, 2, 64, 92
8, 35160, Note_on_c, 2, 67, 92
8, 35249, Note_on_c, 2, 64, 0
8, 35249, Note_on_c, 2, 67, 0
8, 35280, Note_on_c, 2, 62, 92
8, 35280, Note_on_c, 2, 65, 92
8, 35369, Note_on_c, 2, 62, 0
8, 35369, Note_on_c, 2, 65, 0
8, 35520, Note_on_c, 2, 60, 92
8, 35520, Note_on_c, 2, 64, 92
8, 35609, Note_on_c, 2, 60, 0
8, 35609, Note_on_c, 2, 64, 0
8, 35640, Note_on_c, 2, 62, 92
8, 35640, Note_on_c, 2, 65, 92
8, 35729, Note_on_c, 2, 62, 0
8, 35729, Note_on_c, 2, 65, 0
8, 35880, Note_on_c, 2, 62, 92
8, 35880, Note_on_c, 2, 59, 92
8, 35969, Note_on_c, 2, 62, 0
8, 35969, Note_on_c, 2, 59, 0
8, 36000, Note_on_c, 2, 64, 92
8, 36000, Note_on_c, 2, 60, 92
8, 36089, Note_on_c, 2, 64, 0
8, 36089, Note_on_c, 2, 60, 0
8, 36120, Note_on_c, 2, 64, 92
8, 36120, Note_on_c, 2, 72, 92
8, 36239, Note_on_c, 2, 64, 0
8, 36239, Note_on_c, 2, 72, 0
8, 36240, Note_on_c, 2, 65, 92
8, 36240, Note_on_c, 2, 74, 92
8, 36299, Note_on_c, 2, 65, 0
8, 36299, Note_on_c, 2, 74, 0
8, 36300, Note_on_c, 2, 67, 92
8, 36300, Note_on_c, 2, 76, 92
8, 36344, Note_on_c, 2, 67, 0
8, 36344, Note_on_c, 2, 76, 0
8, 36360, Note_on_c, 2, 69, 92
8, 36360, Note_on_c, 2, 77, 92
8, 36449, Note_on_c, 2, 69, 0
8, 36449, Note_on_c, 2, 77, 0
8, 36480, Note_on_c, 2, 69, 92
8, 36480, Note_on_c, 2, 77, 92
8, 36569, Note_on_c, 2, 69, 0
8, 36569, Note_on_c, 2, 77, 0
8, 36600, Note_on_c, 2, 67, 92
8, 36600, Note_on_c, 2, 76, 92
8, 36689, Note_on_c, 2, 67, 0
8, 36689, Note_on_c, 2, 76, 0
8, 36720, Note_on_c, 2, 74, 92
8, 36720, Note_on_c, 2, 65, 92
8, 36809, Note_on_c, 2, 74, 0
8, 36809, Note_on_c, 2, 65, 0
8, 36840, Note_on_c, 2, 74, 92
8, 36840, Note_on_c, 2, 65, 92
8, 36929, Note_on_c, 2, 74, 0
8, 36929, Note_on_c, 2, 65, 0
8, 36960, Note_on_c, 2, 64, 92
8, 36960, Note_on_c, 2, 72, 92
8, 37049, Note_on_c, 2, 64, 0
8, 37049, Note_on_c, 2, 72, 0
8, 37080, Note_on_c, 2, 65, 92
8, 37080, Note_on_c, 2, 74, 92
8, 37169, Note_on_c, 2, 65, 0
8, 37169, Note_on_c, 2, 74, 0
8, 37200, Note_on_c, 2, 65, 92
8, 37200, Note_on_c, 2, 74, 92
8, 37289, Note_on_c, 2, 65, 0
8, 37289, Note_on_c, 2, 74, 0
8, 37320, Note_on_c, 2, 71, 92
8, 37320, Note_on_c, 2, 62, 92
8, 37409, Note_on_c, 2, 71, 0
8, 37409, Note_on_c, 2, 62, 0
8, 37440, Note_on_c, 2, 72, 92
8, 37440, Note_on_c, 2, 64, 92
8, 37529, Note_on_c, 2, 72, 0
8, 37529, Note_on_c, 2, 64, 0
8, 37560, Note_on_c, 2, 60, 92
8, 37560, Note_on_c, 2, 64, 92
8, 37679, Note_on_c, 2, 60, 0
8, 37679, Note_on_c, 2, 64, 0
8, 37680, Note_on_c, 2, 65, 92
8, 37680, Note_on_c, 2, 62, 92
8, 37739, Note_on_c, 2, 65, 0
8, 37739, Note_on_c, 2, 62, 0
8, 37740, Note_on_c, 2, 67, 92
8, 37740, Note_on_c, 2, 64, 92
8, 37784, Note_on_c, 2, 67, 0
8, 37784, Note_on_c, 2, 64, 0
8, 37800, Note_on_c, 2, 69, 92
8, 37800, Note_on_c, 2, 65, 92
8, 37889, Note_on_c, 2, 69, 0
8, 37889, Note_on_c, 2, 65, 0
8, 37920, Note_on_c, 2, 65, 92
8, 37920, Note_on_c, 2, 69, 92
8, 38009, Note_on_c, 2, 65, 0
8, 38009, Note_on_c, 2, 69, 0
8, 38040, Note_on_c, 2, 67, 92
8, 38040, Note_on_c, 2, 64, 92
8, 38129, Note_on_c, 2, 67, 0
8, 38129, Note_on_c, 2, 64, 0
8, 38160, Note_on_c, 2, 65, 92
8, 38160, Note_on_c, 2, 62, 92
8, 38249, Note_on_c, 2, 65, 0
8, 38249, Note_on_c, 2, 62, 0
8, 38280, Note_on_c, 2, 65, 92
8, 38280, Note_on_c, 2, 62, 92
8, 38369, Note_on_c, 2, 65, 0
8, 38369, Note_on_c, 2, 62, 0
8, 38400, Note_on_c, 2, 60, 92
8, 38400, Note_on_c, 2, 64, 92
8, 38489, Note_on_c, 2, 60, 0
8, 38489, Note_on_c, 2, 64, 0
8, 38520, Note_on_c, 2, 65, 92
8, 38520, Note_on_c, 2, 62, 92
8, 38609, Note_on_c, 2, 65, 0
8, 38609, Note_on_c, 2, 62, 0
8, 38640, Note_on_c, 2, 62, 92
8, 38640, Note_on_c, 2, 65, 92
8, 38729, Note_on_c, 2, 62, 0
8, 38729, Note_on_c, 2, 65, 0
8, 38760, Note_on_c, 2, 62, 92
8, 38760, Note_on_c, 2, 71, 92
8, 38849, Note_on_c, 2, 62, 0
8, 38849, Note_on_c, 2, 71, 0
8, 38880, Note_on_c, 2, 64, 92
8, 38880, Note_on_c, 2, 60, 92
8, 39044, Note_on_c, 2, 64, 0
8, 39044, Note_on_c, 2, 60, 0
8, 39060, Note_on_c, 2, 64, 92
8, 39060, Note_on_c, 2, 52, 92
8, 39104, Note_on_c, 2, 64, 0
8, 39104, Note_on_c, 2, 52, 0
8, 39120, Note_on_c, 2, 52, 92
8, 39120, Note_on_c, 2, 64, 92
8, 39224, Note_on_c, 2, 52, 0
8, 39224, Note_on_c, 2, 64, 0
8, 39240, Note_on_c, 2, 52, 92
8, 39240, Note_on_c, 2, 64, 92
8, 39329, Note_on_c, 2, 52, 0
8, 39329, Note_on_c, 2, 64, 0
8, 39360, Note_on_c, 2, 53, 92
8, 39360, Note_on_c, 2, 65, 92
8, 39449, Note_on_c, 2, 53, 0
8, 39449, Note_on_c, 2, 65, 0
8, 39480, Note_on_c, 2, 55, 92
8, 39480, Note_on_c, 2, 67, 92
8, 39569, Note_on_c, 2, 55, 0
8, 39569, Note_on_c, 2, 67, 0
8, 39600, Note_on_c, 2, 69, 92
8, 39600, Note_on_c, 2, 57, 92
8, 39719, Note_on_c, 2, 69, 0
8, 39719, Note_on_c, 2, 57, 0
8, 39960, Note_on_c, 2, 57, 92
8, 39960, Note_on_c, 2, 69, 92
8, 40049, Note_on_c, 2, 57, 0
8, 40049, Note_on_c, 2, 69, 0
8, 40080, Note_on_c, 2, 59, 92
8, 40080, Note_on_c, 2, 71, 92
8, 40169, Note_on_c, 2, 59, 0
8, 40169, Note_on_c, 2, 71, 0
8, 40200, Note_on_c, 2, 72, 92
8, 40200, Note_on_c, 2, 60, 92
8, 40289, Note_on_c, 2, 72, 0
8, 40289, Note_on_c, 2, 60, 0
8, 40320, Note_on_c, 2, 74, 92
8, 40320, Note_on_c, 2, 62, 92
8, 40484, Note_on_c, 2, 74, 0
8, 40484, Note_on_c, 2, 62, 0
8, 40500, Note_on_c, 2, 74, 92
8, 40500, Note_on_c, 2, 62, 92
8, 40544, Note_on_c, 2, 74, 0
8, 40544, Note_on_c, 2, 62, 0
8, 40560, Note_on_c, 2, 62, 92
8, 40560, Note_on_c, 2, 74, 92
8, 40664, Note_on_c, 2, 62, 0
8, 40664, Note_on_c, 2, 74, 0
8, 40680, Note_on_c, 2, 62, 92
8, 40680, Note_on_c, 2, 74, 92
8, 40769, Note_on_c, 2, 62, 0
8, 40769, Note_on_c, 2, 74, 0
8, 40800, Note_on_c, 2, 64, 92
8, 40800, Note_on_c, 2, 76, 92
8, 40889, Note_on_c, 2, 64, 0
8, 40889, Note_on_c, 2, 76, 0
8, 40920, Note_on_c, 2, 65, 92
8, 40920, Note_on_c, 2, 77, 92
8, 41009, Note_on_c, 2, 65, 0
8, 41009, Note_on_c, 2, 77, 0
8, 41040, Note_on_c, 2, 67, 92
8, 41040, Note_on_c, 2, 79, 92
8, 41159, Note_on_c, 2, 67, 0
8, 41159, Note_on_c, 2, 79, 0
8, 41400, Note_on_c, 2, 55, 92
8, 41400, Note_on_c, 2, 67, 92
8, 41489, Note_on_c, 2, 55, 0
8, 41489, Note_on_c, 2, 67, 0
8, 41520, Note_on_c, 2, 60, 92
8, 41520, Note_on_c, 2, 72, 92
8, 41609, Note_on_c, 2, 60, 0
8, 41609, Note_on_c, 2, 72, 0
8, 41640, Note_on_c, 2, 62, 92
8, 41640, Note_on_c, 2, 74, 92
8, 41729, Note_on_c, 2, 62, 0
8, 41729, Note_on_c, 2, 74, 0
8, 41760, Note_on_c, 2, 64, 44
8, 41760, Note_on_c, 2, 76, 44
8, 41879, Note_on_c, 2, 64, 0
8, 41879, Note_on_c, 2, 76, 0
8, 43920, Note_on_c, 2, 67, 44
8, 44039, Note_on_c, 2, 67, 0
8, 44040, Note_on_c, 2, 60, 47
8, 44159, Note_on_c, 2, 60, 0
8, 44160, Note_on_c, 2, 62, 50
8, 44279, Note_on_c, 2, 62, 0
8, 44280, Note_on_c, 2, 64, 53
8, 44399, Note_on_c, 2, 64, 0
8, 44400, Note_on_c, 2, 65, 56
8, 44519, Note_on_c, 2, 65, 0
8, 44520, Note_on_c, 2, 67, 59
8, 44639, Note_on_c, 2, 67, 0
8, 44640, Note_on_c, 2, 66, 62
8, 44759, Note_on_c, 2, 66, 0
8, 44760, Note_on_c, 2, 67, 65
8, 44879, Note_on_c, 2, 67, 0
8, 44880, Note_on_c, 2, 69, 68
8, 44999, Note_on_c, 2, 69, 0
8, 45000, Note_on_c, 2, 67, 71
8, 45119, Note_on_c, 2, 67, 0
8, 45120, Note_on_c, 2, 74, 74
8, 45120, Note_on_c, 2, 71, 74
8, 45239, Note_on_c, 2, 74, 0
8, 45239, Note_on_c, 2, 71, 0
8, 45240, Note_on_c, 2, 67, 77
8, 45240, Note_on_c, 2, 72, 77
8, 45344, Note_on_c, 2, 67, 0
8, 45344, Note_on_c, 2, 72, 0
8, 45360, Note_on_c, 2, 55, 80
8, 45360, Note_on_c, 2, 67, 80
8, 45449, Note_on_c, 2, 55, 0
8, 45449, Note_on_c, 2, 67, 0
8, 45480, Note_on_c, 2, 64, 80
8, 45480, Note_on_c, 2, 76, 80
8, 45569, Note_on_c, 2, 64, 0
8, 45569, Note_on_c, 2, 76, 0
8, 45600, Note_on_c, 2, 69, 80
8, 45600, Note_on_c, 2, 65, 80
8, 45689, Note_on_c, 2, 69, 0
8, 45689, Note_on_c, 2, 65, 0
8, 45720, Note_on_c, 2, 77, 80
8, 45720, Note_on_c, 2, 65, 80
8, 45809, Note_on_c, 2, 77, 0
8, 45809, Note_on_c, 2, 65, 0
8, 45840, Note_on_c, 2, 74, 80
8, 45840, Note_on_c, 2, 67, 80
8, 45929, Note_on_c, 2, 74, 0
8, 45929, Note_on_c, 2, 67, 0
8, 45960, Note_on_c, 2, 74, 80
8, 45960, Note_on_c, 2, 71, 80
8, 46049, Note_on_c, 2, 74, 0
8, 46049, Note_on_c, 2, 71, 0
8, 46080, Note_on_c, 2, 76, 80
8, 46080, Note_on_c, 2, 72, 80
8, 46199, Note_on_c, 2, 76, 0
8, 46199, Note_on_c, 2, 72, 0
8, 46800, Note_on_c, 2, 67, 80
8, 46800, Note_on_c, 2, 64, 80
8, 46889, Note_on_c, 2, 67, 0
8, 46889, Note_on_c, 2, 64, 0
8, 46920, Note_on_c, 2, 64, 80
8, 46920, Note_on_c, 2, 76, 80
8, 47009, Note_on_c, 2, 64, 0
8, 47009, Note_on_c, 2, 76, 0
8, 47040, Note_on_c, 2, 69, 80
8, 47040, Note_on_c, 2, 65, 80
8, 47129, Note_on_c, 2, 69, 0
8, 47129, Note_on_c, 2, 65, 0
8, 47160, Note_on_c, 2, 65, 80
8, 47160, Note_on_c, 2, 77, 80
8, 47249, Note_on_c, 2, 65, 0
8, 47249, Note_on_c, 2, 77, 0
8, 47280, Note_on_c, 2, 74, 80
8, 47280, Note_on_c, 2, 67, 80
8, 47369, Note_on_c, 2, 74, 0
8, 47369, Note_on_c, 2, 67, 0
8, 47400, Note_on_c, 2, 74, 80
8, 47400, Note_on_c, 2, 71, 80
8, 47489, Note_on_c, 2, 74, 0
8, 47489, Note_on_c, 2, 71, 0
8, 47520, Note_on_c, 2, 72, 80
8, 47520, Note_on_c, 2, 76, 80
8, 47609, Note_on_c, 2, 72, 0
8, 47609, Note_on_c, 2, 76, 0
8, 47640, Note_on_c, 2, 79, 80
8, 47640, Note_on_c, 2, 67, 80
8, 47729, Note_on_c, 2, 79, 0
8, 47729, Note_on_c, 2, 67, 0
8, 47760, Note_on_c, 2, 67, 80
8, 47760, Note_on_c, 2, 79, 80
8, 47849, Note_on_c, 2, 67, 0
8, 47849, Note_on_c, 2, 79, 0
8, 47880, Note_on_c, 2, 79, 80
8, 47880, Note_on_c, 2, 67, 80
8, 47969, Note_on_c, 2, 79, 0
8, 47969, Note_on_c, 2, 67, 0
8, 48000, Note_on_c, 2, 79, 80
8, 48000, Note_on_c, 2, 67, 80
8, 48089, Note_on_c, 2, 79, 0
8, 48089, Note_on_c, 2, 67, 0
8, 48120, Note_on_c, 2, 67, 80
8, 48120, Note_on_c, 2, 79, 80
8, 48209, Note_on_c, 2, 67, 0
8, 48209, Note_on_c, 2, 79, 0
8, 48240, Note_on_c, 2, 76, 80
8, 48240, Note_on_c, 2, 72, 80
8, 48329, Note_on_c, 2, 76, 0
8, 48329, Note_on_c, 2, 72, 0
8, 48360, Note_on_c, 2, 67, 80
8, 48360, Note_on_c, 2, 72, 80
8, 48449, Note_on_c, 2, 67, 0
8, 48449, Note_on_c, 2, 72, 0
8, 48480, Note_on_c, 2, 76, 80
8, 48480, Note_on_c, 2, 79, 80
8, 48569, Note_on_c, 2, 76, 0
8, 48569, Note_on_c, 2, 79, 0
8, 48600, Note_on_c, 2, 74, 80
8, 48600, Note_on_c, 2, 77, 80
8, 48689, Note_on_c, 2, 74, 0
8, 48689, Note_on_c, 2, 77, 0
8, 48720, Note_on_c, 2, 74, 80
8, 48720, Note_on_c, 2, 67, 80
8, 48809, Note_on_c, 2, 74, 0
8, 48809, Note_on_c, 2, 67, 0
8, 48840, Note_on_c, 2, 79, 80
8, 48840, Note_on_c, 2, 77, 80
8, 48929, Note_on_c, 2, 79, 0
8, 48929, Note_on_c, 2, 77, 0
8, 48960, Note_on_c, 2, 72, 80
8, 48960, Note_on_c, 2, 76, 80
8, 49049, Note_on_c, 2, 72, 0
8, 49049, Note_on_c, 2, 76, 0
8, 49080, Note_on_c, 2, 72, 80
8, 49080, Note_on_c, 2, 67, 80
8, 49169, Note_on_c, 2, 72, 0
8, 49169, Note_on_c, 2, 67, 0
8, 49200, Note_on_c, 2, 79, 80
8, 49200, Note_on_c, 2, 76, 80
8, 49289, Note_on_c, 2, 79, 0
8, 49289, Note_on_c, 2, 76, 0
8, 49320, Note_on_c, 2, 74, 80
8, 49320, Note_on_c, 2, 77, 80
8, 49409, Note_on_c, 2, 74, 0
8, 49409, Note_on_c, 2, 77, 0
8, 49440, Note_on_c, 2, 67, 80
8, 49440, Note_on_c, 2, 74, 80
8, 49529, Note_on_c, 2, 67, 0
8, 49529, Note_on_c, 2, 74, 0
8, 49560, Note_on_c, 2, 77, 80
8, 49560, Note_on_c, 2, 79, 80
8, 49649, Note_on_c, 2, 77, 0
8, 49649, Note_on_c, 2, 79, 0
8, 49680, Note_on_c, 2, 55, 32
8, 49799, Note_on_c, 2, 55, 0
8, 49800, Note_on_c, 2, 57, 32
8, 49919, Note_on_c, 2, 57, 0
8, 49920, Note_on_c, 2, 59, 32
8, 50039, Note_on_c, 2, 59, 0
8, 50040, Note_on_c, 2, 60, 32
8, 50159, Note_on_c, 2, 60, 0
8, 50160, Note_on_c, 2, 62, 32
8, 50279, Note_on_c, 2, 62, 0
8, 50280, Note_on_c, 2, 64, 32
8, 50399, Note_on_c, 2, 64, 0
8, 50400, Note_on_c, 2, 65, 32
8, 50519, Note_on_c, 2, 65, 0
8, 50520, Note_on_c, 2, 64, 32
8, 50639, Note_on_c, 2, 64, 0
8, 50640, Note_on_c, 2, 65, 32
8, 50759, Note_on_c, 2, 65, 0
8, 50760, Note_on_c, 2, 67, 32
8, 50879, Note_on_c, 2, 67, 0
8, 50880, Note_on_c, 2, 69, 32
8, 50999, Note_on_c, 2, 69, 0
8, 51000, Note_on_c, 2, 71, 32
8, 51119, Note_on_c, 2, 71, 0
8, 51120, Note_on_c, 2, 72, 32
8, 51239, Note_on_c, 2, 72, 0
8, 51480, Note_on_c, 2, 64, 32
8, 51480, Note_on_c, 2, 60, 32
8, 51644, Note_on_c, 2, 64, 0
8, 51644, Note_on_c, 2, 60, 0
8, 51660, Note_on_c, 2, 64, 32
8, 51660, Note_on_c, 2, 60, 32
8, 51704, Note_on_c, 2, 64, 0
8, 51704, Note_on_c, 2, 60, 0
8, 51720, Note_on_c, 2, 60, 32
8, 51720, Note_on_c, 2, 64, 32
8, 51824, Note_on_c, 2, 60, 0
8, 51824, Note_on_c, 2, 64, 0
8, 51840, Note_on_c, 2, 60, 32
8, 51840, Note_on_c, 2, 69, 32
8, 51959, Note_on_c, 2, 60, 0
8, 51959, Note_on_c, 2, 69, 0
8, 52200, Note_on_c, 2, 65, 32
8, 52200, Note_on_c, 2, 69, 32
8, 52364, Note_on_c, 2, 65, 0
8, 52364, Note_on_c, 2, 69, 0
8, 52380, Note_on_c, 2, 65, 32
8, 52380, Note_on_c, 2, 69, 32
8, 52424, Note_on_c, 2, 65, 0
8, 52424, Note_on_c, 2, 69, 0
8, 52440, Note_on_c, 2, 65, 32
8, 52440, Note_on_c, 2, 69, 32
8, 52544, Note_on_c, 2, 65, 0
8, 52544, Note_on_c, 2, 69, 0
8, 52560, Note_on_c, 2, 65, 32
8, 52560, Note_on_c, 2, 69, 32
8, 52679, Note_on_c, 2, 65, 0
8, 52679, Note_on_c, 2, 69, 0
8, 55440, Note_on_c, 2, 74, 32
8, 55559, Note_on_c, 2, 74, 0
8, 55800, Note_on_c, 2, 69, 32
8, 55919, Note_on_c, 2, 69, 0
8, 56160, Note_on_c, 2, 71, 32
8, 56279, Note_on_c, 2, 71, 0
8, 56520, Note_on_c, 2, 72, 32
8, 56639, Note_on_c, 2, 72, 0
8, 56880, Note_on_c, 2, 70, 32
8, 56999, Note_on_c, 2, 70, 0
8, 57240, Note_on_c, 2, 65, 32
8, 57359, Note_on_c, 2, 65, 0
8, 57600, Note_on_c, 2, 61, 32
8, 57719, Note_on_c, 2, 61, 0
8, 57960, Note_on_c, 2, 62, 32
8, 58079, Note_on_c, 2, 62, 0
8, 58320, Note_on_c, 2, 69, 32
8, 58439, Note_on_c, 2, 69, 0
8, 58680, Note_on_c, 2, 69, 32
8, 58799, Note_on_c, 2, 69, 0
8, 59040, Note_on_c, 2, 64, 32
8, 59159, Note_on_c, 2, 64, 0
8, 59400, Note_on_c, 2, 76, 32
8, 59400, Note_on_c, 2, 64, 32
8, 59519, Note_on_c, 2, 76, 0
8, 59519, Note_on_c, 2, 64, 0
8, 59760, Note_on_c, 2, 64, 32
8, 59760, Note_on_c, 2, 73, 32
8, 59879, Note_on_c, 2, 64, 0
8, 59879, Note_on_c, 2, 73, 0
8, 60120, Note_on_c, 2, 74, 32
8, 60120, Note_on_c, 2, 69, 32
8, 60239, Note_on_c, 2, 74, 0
8, 60239, Note_on_c, 2, 69, 0
8, 60480, Note_on_c, 2, 79, 32
8, 60480, Note_on_c, 2, 69, 32
8, 60599, Note_on_c, 2, 79, 0
8, 60599, Note_on_c, 2, 69, 0
8, 60840, Note_on_c, 2, 69, 32
8, 60840, Note_on_c, 2, 74, 32
8, 60959, Note_on_c, 2, 69, 0
8, 60959, Note_on_c, 2, 74, 0
8, 61200, Note_on_c, 2, 69, 32
8, 61200, Note_on_c, 2, 74, 32
8, 61319, Note_on_c, 2, 69, 0
8, 61319, Note_on_c, 2, 74, 0
8, 61560, Note_on_c, 2, 69, 32
8, 61560, Note_on_c, 2, 76, 32
8, 61679, Note_on_c, 2, 69, 0
8, 61679, Note_on_c, 2, 76, 0
8, 61920, Note_on_c, 2, 76, 32
8, 61920, Note_on_c, 2, 71, 32
8, 62039, Note_on_c, 2, 76, 0
8, 62039, Note_on_c, 2, 71, 0
8, 62280, Note_on_c, 2, 72, 32
8, 62280, Note_on_c, 2, 76, 32
8, 62399, Note_on_c, 2, 72, 0
8, 62399, Note_on_c, 2, 76, 0
8, 62640, Note_on_c, 2, 67, 32
8, 62640, Note_on_c, 2, 76, 32
8, 62759, Note_on_c, 2, 67, 0
8, 62759, Note_on_c, 2, 76, 0
8, 63000, Note_on_c, 2, 69, 32
8, 63000, Note_on_c, 2, 74, 32
8, 63119, Note_on_c, 2, 69, 0
8, 63119, Note_on_c, 2, 74, 0
8, 63360, Note_on_c, 2, 69, 32
8, 63360, Note_on_c, 2, 64, 32
8, 63479, Note_on_c, 2, 69, 0
8, 63479, Note_on_c, 2, 64, 0
8, 63720, Note_on_c, 2, 69, 32
8, 63720, Note_on_c, 2, 65, 32
8, 63839, Note_on_c, 2, 69, 0
8, 63839, Note_on_c, 2, 65, 0
8, 64080, Note_on_c, 2, 74, 32
8, 64080, Note_on_c, 2, 62, 32
8, 64199, Note_on_c, 2, 74, 0
8, 64199, Note_on_c, 2, 62, 0
8, 64440, Note_on_c, 2, 69, 32
8, 64440, Note_on_c, 2, 64, 32
8, 64559, Note_on_c, 2, 69, 0
8, 64559, Note_on_c, 2, 64, 0
8, 64800, Note_on_c, 2, 71, 32
8, 64800, Note_on_c, 2, 59, 32
8, 64919, Note_on_c, 2, 71, 0
8, 64919, Note_on_c, 2, 59, 0
8, 65160, Note_on_c, 2, 69, 32
8, 65160, Note_on_c, 2, 60, 32
8, 65279, Note_on_c, 2, 69, 0
8, 65279, Note_on_c, 2, 60, 0
8, 65520, Note_on_c, 2, 61, 32
8, 65520, Note_on_c, 2, 64, 32
8, 65639, Note_on_c, 2, 61, 0
8, 65639, Note_on_c, 2, 64, 0
8, 65880, Note_on_c, 2, 69, 32
8, 65880, Note_on_c, 2, 57, 32
8, 65999, Note_on_c, 2, 69, 0
8, 65999, Note_on_c, 2, 57, 0
8, 66240, Note_on_c, 2, 69, 32
8, 66240, Note_on_c, 2, 61, 32
8, 66359, Note_on_c, 2, 69, 0
8, 66359, Note_on_c, 2, 61, 0
8, 66600, Note_on_c, 2, 69, 32
8, 66600, Note_on_c, 2, 65, 32
8, 66719, Note_on_c, 2, 69, 0
8, 66719, Note_on_c, 2, 65, 0
8, 66840, Control_c, 2, 11, 27
8, 66960, Note_on_c, 2, 57, 92
8, 66960, Control_c, 2, 11, 27
8, 66960, Note_on_c, 2, 69, 92
8, 67003, Control_c, 2, 11, 28
8, 67046, Control_c, 2, 11, 29
8, 67090, Control_c, 2, 11, 30
8, 67133, Control_c, 2, 11, 31
8, 67176, Control_c, 2, 11, 32
8, 67219, Control_c, 2, 11, 33
8, 67262, Control_c, 2, 11, 34
8, 67306, Control_c, 2, 11, 35
8, 67349, Control_c, 2, 11, 36
8, 67392, Control_c, 2, 11, 37
8, 67435, Control_c, 2, 11, 38
8, 67478, Control_c, 2, 11, 39
8, 67522, Control_c, 2, 11, 40
8, 67565, Control_c, 2, 11, 41
8, 67608, Control_c, 2, 11, 42
8, 67651, Control_c, 2, 11, 43
8, 67694, Control_c, 2, 11, 44
8, 67738, Control_c, 2, 11, 45
8, 67781, Control_c, 2, 11, 46
8, 67824, Control_c, 2, 11, 47
8, 67867, Control_c, 2, 11, 48
8, 67910, Control_c, 2, 11, 49
8, 67954, Control_c, 2, 11, 50
8, 67997, Control_c, 2, 11, 51
8, 68040, Control_c, 2, 11, 52
8, 68083, Control_c, 2, 11, 53
8, 68126, Control_c, 2, 11, 54
8, 68170, Control_c, 2, 11, 55
8, 68213, Control_c, 2, 11, 56
8, 68256, Control_c, 2, 11, 57
8, 68299, Control_c, 2, 11, 58
8, 68342, Control_c, 2, 11, 59
8, 68386, Control_c, 2, 11, 60
8, 68429, Control_c, 2, 11, 61
8, 68472, Control_c, 2, 11, 62
8, 68515, Control_c, 2, 11, 63
8, 68558, Control_c, 2, 11, 64
8, 68602, Control_c, 2, 11, 65
8, 68645, Control_c, 2, 11, 66
8, 68688, Control_c, 2, 11, 67
8, 68731, Control_c, 2, 11, 68
8, 68774, Control_c, 2, 11, 69
8, 68818, Control_c, 2, 11, 70
8, 68861, Control_c, 2, 11, 71
8, 68904, Control_c, 2, 11, 72
8, 68947, Control_c, 2, 11, 73
8, 68990, Control_c, 2, 11, 74
8, 69034, Control_c, 2, 11, 75
8, 69077, Control_c, 2, 11, 76
8, 69120, Control_c, 2, 11, 77
8, 69163, Control_c, 2, 11, 78
8, 69206, Control_c, 2, 11, 79
8, 69250, Control_c, 2, 11, 80
8, 69293, Control_c, 2, 11, 81
8, 69336, Control_c, 2, 11, 82
8, 69379, Control_c, 2, 11, 83
8, 69422, Control_c, 2, 11, 84
8, 69466, Control_c, 2, 11, 85
8, 69509, Control_c, 2, 11, 86
8, 69552, Control_c, 2, 11, 87
8, 69595, Control_c, 2, 11, 88
8, 69638, Control_c, 2, 11, 89
8, 69682, Control_c, 2, 11, 90
8, 69725, Control_c, 2, 11, 91
8, 69768, Control_c, 2, 11, 92
8, 69811, Control_c, 2, 11, 93
8, 69854, Control_c, 2, 11, 94
8, 69898, Control_c, 2, 11, 95
8, 69941, Control_c, 2, 11, 96
8, 69984, Control_c, 2, 11, 97
8, 70027, Control_c, 2, 11, 98
8, 70070, Control_c, 2, 11, 99
8, 70114, Control_c, 2, 11, 100
8, 70157, Control_c, 2, 11, 101
8, 70200, Control_c, 2, 11, 102
8, 70243, Control_c, 2, 11, 103
8, 70286, Control_c, 2, 11, 104
8, 70330, Control_c, 2, 11, 105
8, 70373, Control_c, 2, 11, 106
8, 70416, Control_c, 2, 11, 107
8, 70459, Control_c, 2, 11, 108
8, 70502, Control_c, 2, 11, 109
8, 70546, Control_c, 2, 11, 110
8, 70589, Control_c, 2, 11, 111
8, 70632, Control_c, 2, 11, 112
8, 70675, Control_c, 2, 11, 113
8, 70718, Control_c, 2, 11, 114
8, 70762, Control_c, 2, 11, 115
8, 70805, Control_c, 2, 11, 116
8, 70848, Control_c, 2, 11, 117
8, 70891, Control_c, 2, 11, 118
8, 70934, Control_c, 2, 11, 119
8, 70978, Control_c, 2, 11, 120
8, 71021, Control_c, 2, 11, 121
8, 71064, Control_c, 2, 11, 122
8, 71107, Control_c, 2, 11, 123
8, 71150, Control_c, 2, 11, 124
8, 71194, Control_c, 2, 11, 125
8, 71237, Control_c, 2, 11, 127
8, 71264, Note_on_c, 2, 57, 0
8, 71264, Note_on_c, 2, 69, 0
8, 71280, Note_on_c, 2, 69, 92
8, 71280, Note_on_c, 2, 81, 92
8, 71444, Note_on_c, 2, 69, 0
8, 71444, Note_on_c, 2, 81, 0
8, 71460, Note_on_c, 2, 57, 92
8, 71460, Note_on_c, 2, 69, 92
8, 71504, Note_on_c, 2, 57, 0
8, 71504, Note_on_c, 2, 69, 0
8, 71520, Note_on_c, 2, 57, 92
8, 71520, Note_on_c, 2, 69, 92
8, 71624, Note_on_c, 2, 57, 0
8, 71624, Note_on_c, 2, 69, 0
8, 71640, Note_on_c, 2, 74, 92
8, 71640, Note_on_c, 2, 69, 92
8, 71744, Note_on_c, 2, 74, 0
8, 71744, Note_on_c, 2, 69, 0
8, 71760, Note_on_c, 2, 76, 92
8, 71760, Note_on_c, 2, 69, 92
8, 71864, Note_on_c, 2, 76, 0
8, 71864, Note_on_c, 2, 69, 0
8, 71880, Note_on_c, 2, 77, 92
8, 71880, Note_on_c, 2, 69, 92
8, 71984, Note_on_c, 2, 77, 0
8, 71984, Note_on_c, 2, 69, 0
8, 72000, Note_on_c, 2, 69, 92
8, 72000, Note_on_c, 2, 76, 92
8, 72104, Note_on_c, 2, 69, 0
8, 72104, Note_on_c, 2, 76, 0
8, 72120, Note_on_c, 2, 69, 92
8, 72120, Note_on_c, 2, 77, 92
8, 72224, Note_on_c, 2, 69, 0
8, 72224, Note_on_c, 2, 77, 0
8, 72240, Note_on_c, 2, 79, 92
8, 72240, Note_on_c, 2, 69, 92
8, 72344, Note_on_c, 2, 79, 0
8, 72344, Note_on_c, 2, 69, 0
8, 72360, Note_on_c, 2, 77, 92
8, 72360, Note_on_c, 2, 69, 92
8, 72464, Note_on_c, 2, 77, 0
8, 72464, Note_on_c, 2, 69, 0
8, 72480, Note_on_c, 2, 76, 92
8, 72480, Note_on_c, 2, 69, 92
8, 72584, Note_on_c, 2, 76, 0
8, 72584, Note_on_c, 2, 69, 0
8, 72600, Note_on_c, 2, 74, 92
8, 72600, Note_on_c, 2, 69, 92
8, 72704, Note_on_c, 2, 74, 0
8, 72704, Note_on_c, 2, 69, 0
8, 72720, Note_on_c, 2, 74, 80
8, 72720, Note_on_c, 2, 70, 80
8, 72824, Note_on_c, 2, 74, 0
8, 72824, Note_on_c, 2, 70, 0
8, 72840, Note_on_c, 2, 69, 80
8, 72840, Note_on_c, 2, 74, 80
8, 72944, Note_on_c, 2, 69, 0
8, 72944, Note_on_c, 2, 74, 0
8, 72960, Note_on_c, 2, 67, 80
8, 72960, Note_on_c, 2, 74, 80
8, 73064, Note_on_c, 2, 67, 0
8, 73064, Note_on_c, 2, 74, 0
8, 73080, Note_on_c, 2, 77, 80
8, 73080, Note_on_c, 2, 69, 80
8, 73184, Note_on_c, 2, 77, 0
8, 73184, Note_on_c, 2, 69, 0
8, 73200, Note_on_c, 2, 69, 80
8, 73200, Note_on_c, 2, 76, 80
8, 73304, Note_on_c, 2, 69, 0
8, 73304, Note_on_c, 2, 76, 0
8, 73320, Note_on_c, 2, 69, 80
8, 73320, Note_on_c, 2, 74, 80
8, 73424, Note_on_c, 2, 69, 0
8, 73424, Note_on_c, 2, 74, 0
8, 73440, Note_on_c, 2, 69, 80
8, 73440, Note_on_c, 2, 73, 80
8, 73544, Note_on_c, 2, 69, 0
8, 73544, Note_on_c, 2, 73, 0
8, 73560, Note_on_c, 2, 74, 80
8, 73560, Note_on_c, 2, 69, 80
8, 73664, Note_on_c, 2, 74, 0
8, 73664, Note_on_c, 2, 69, 0
8, 73680, Note_on_c, 2, 69, 80
8, 73680, Note_on_c, 2, 76, 80
8, 73784, Note_on_c, 2, 69, 0
8, 73784, Note_on_c, 2, 76, 0
8, 73800, Note_on_c, 2, 74, 80
8, 73800, Note_on_c, 2, 69, 80
8, 73904, Note_on_c, 2, 74, 0
8, 73904, Note_on_c, 2, 69, 0
8, 73920, Note_on_c, 2, 69, 80
8, 73920, Note_on_c, 2, 73, 80
8, 74024, Note_on_c, 2, 69, 0
8, 74024, Note_on_c, 2, 73, 0
8, 74040, Note_on_c, 2, 74, 80
8, 74040, Note_on_c, 2, 69, 80
8, 74144, Note_on_c, 2, 74, 0
8, 74144, Note_on_c, 2, 69, 0
8, 74160, Note_on_c, 2, 74, 80
8, 74160, Note_on_c, 2, 70, 80
8, 74264, Note_on_c, 2, 74, 0
8, 74264, Note_on_c, 2, 70, 0
8, 74280, Note_on_c, 2, 69, 80
8, 74280, Note_on_c, 2, 74, 80
8, 74384, Note_on_c, 2, 69, 0
8, 74384, Note_on_c, 2, 74, 0
8, 74400, Note_on_c, 2, 67, 80
8, 74400, Note_on_c, 2, 74, 80
8, 74504, Note_on_c, 2, 67, 0
8, 74504, Note_on_c, 2, 74, 0
8, 74520, Note_on_c, 2, 65, 80
8, 74520, Note_on_c, 2, 77, 80
8, 74624, Note_on_c, 2, 65, 0
8, 74624, Note_on_c, 2, 77, 0
8, 74640, Note_on_c, 2, 69, 80
8, 74640, Note_on_c, 2, 76, 80
8, 74744, Note_on_c, 2, 69, 0
8, 74744, Note_on_c, 2, 76, 0
8, 74760, Note_on_c, 2, 74, 80
8, 74760, Note_on_c, 2, 69, 80
8, 74864, Note_on_c, 2, 74, 0
8, 74864, Note_on_c, 2, 69, 0
8, 74880, Note_on_c, 2, 69, 80
8, 74880, Note_on_c, 2, 73, 80
8, 74984, Note_on_c, 2, 69, 0
8, 74984, Note_on_c, 2, 73, 0
8, 75000, Note_on_c, 2, 74, 80
8, 75000, Note_on_c, 2, 69, 80
8, 75104, Note_on_c, 2, 74, 0
8, 75104, Note_on_c, 2, 69, 0
8, 75120, Note_on_c, 2, 67, 80
8, 75120, Note_on_c, 2, 76, 80
8, 75224, Note_on_c, 2, 67, 0
8, 75224, Note_on_c, 2, 76, 0
8, 75240, Note_on_c, 2, 69, 80
8, 75240, Note_on_c, 2, 65, 80
8, 75344, Note_on_c, 2, 69, 0
8, 75344, Note_on_c, 2, 65, 0
8, 75360, Note_on_c, 2, 65, 80
8, 75360, Note_on_c, 2, 69, 80
8, 75464, Note_on_c, 2, 65, 0
8, 75464, Note_on_c, 2, 69, 0
8, 75480, Note_on_c, 2, 71, 80
8, 75480, Note_on_c, 2, 65, 80
8, 75584, Note_on_c, 2, 71, 0
8, 75584, Note_on_c, 2, 65, 0
8, 75600, Note_on_c, 2, 65, 80
8, 75600, Note_on_c, 2, 71, 80
8, 75704, Note_on_c, 2, 65, 0
8, 75704, Note_on_c, 2, 71, 0
8, 75720, Note_on_c, 2, 62, 80
8, 75720, Note_on_c, 2, 71, 80
8, 75824, Note_on_c, 2, 62, 0
8, 75824, Note_on_c, 2, 71, 0
8, 75840, Note_on_c, 2, 74, 80
8, 75840, Note_on_c, 2, 65, 80
8, 75944, Note_on_c, 2, 74, 0
8, 75944, Note_on_c, 2, 65, 0
8, 75960, Note_on_c, 2, 76, 80
8, 75960, Note_on_c, 2, 64, 80
8, 76064, Note_on_c, 2, 76, 0
8, 76064, Note_on_c, 2, 64, 0
8, 76080, Note_on_c, 2, 74, 80
8, 76080, Note_on_c, 2, 67, 80
8, 76184, Note_on_c, 2, 74, 0
8, 76184, Note_on_c, 2, 67, 0
8, 76200, Note_on_c, 2, 72, 80
8, 76200, Note_on_c, 2, 67, 80
8, 76304, Note_on_c, 2, 72, 0
8, 76304, Note_on_c, 2, 67, 0
8, 76320, Note_on_c, 2, 67, 80
8, 76320, Note_on_c, 2, 71, 80
8, 76424, Note_on_c, 2, 67, 0
8, 76424, Note_on_c, 2, 71, 0
8, 76440, Note_on_c, 2, 67, 80
8, 76440, Note_on_c, 2, 72, 80
8, 76544, Note_on_c, 2, 67, 0
8, 76544, Note_on_c, 2, 72, 0
8, 76560, Note_on_c, 2, 67, 80
8, 76560, Note_on_c, 2, 74, 80
8, 76664, Note_on_c, 2, 67, 0
8, 76664, Note_on_c, 2, 74, 0
8, 76680, Note_on_c, 2, 67, 80
8, 76680, Note_on_c, 2, 72, 80
8, 76784, Note_on_c, 2, 67, 0
8, 76784, Note_on_c, 2, 72, 0
8, 76800, Note_on_c, 2, 81, 80
8, 76800, Note_on_c, 2, 77, 80
8, 76904, Note_on_c, 2, 81, 0
8, 76904, Note_on_c, 2, 77, 0
8, 76920, Note_on_c, 2, 77, 80
8, 76920, Note_on_c, 2, 81, 80
8, 77024, Note_on_c, 2, 77, 0
8, 77024, Note_on_c, 2, 81, 0
8, 77040, Note_on_c, 2, 77, 80
8, 77040, Note_on_c, 2, 81, 80
8, 77144, Note_on_c, 2, 77, 0
8, 77144, Note_on_c, 2, 81, 0
8, 77160, Note_on_c, 2, 74, 80
8, 77160, Note_on_c, 2, 79, 80
8, 77264, Note_on_c, 2, 74, 0
8, 77264, Note_on_c, 2, 79, 0
8, 77280, Note_on_c, 2, 74, 80
8, 77280, Note_on_c, 2, 77, 80
8, 77384, Note_on_c, 2, 74, 0
8, 77384, Note_on_c, 2, 77, 0
8, 77400, Note_on_c, 2, 76, 80
8, 77400, Note_on_c, 2, 67, 80
8, 77504, Note_on_c, 2, 76, 0
8, 77504, Note_on_c, 2, 67, 0
8, 77520, Note_on_c, 2, 67, 80
8, 77520, Note_on_c, 2, 74, 80
8, 77624, Note_on_c, 2, 67, 0
8, 77624, Note_on_c, 2, 74, 0
8, 77640, Note_on_c, 2, 67, 80
8, 77640, Note_on_c, 2, 72, 80
8, 77744, Note_on_c, 2, 67, 0
8, 77744, Note_on_c, 2, 72, 0
8, 77760, Note_on_c, 2, 67, 80
8, 77760, Note_on_c, 2, 79, 80
8, 77864, Note_on_c, 2, 67, 0
8, 77864, Note_on_c, 2, 79, 0
8, 77880, Note_on_c, 2, 67, 80
8, 77880, Note_on_c, 2, 77, 80
8, 77984, Note_on_c, 2, 67, 0
8, 77984, Note_on_c, 2, 77, 0
8, 78000, Note_on_c, 2, 76, 80
8, 78000, Note_on_c, 2, 67, 80
8, 78104, Note_on_c, 2, 76, 0
8, 78104, Note_on_c, 2, 67, 0
8, 78120, Note_on_c, 2, 79, 80
8, 78120, Note_on_c, 2, 67, 80
8, 78224, Note_on_c, 2, 79, 0
8, 78224, Note_on_c, 2, 67, 0
8, 78240, Note_on_c, 2, 77, 80
8, 78240, Note_on_c, 2, 67, 80
8, 78344, Note_on_c, 2, 77, 0
8, 78344, Note_on_c, 2, 67, 0
8, 78360, Note_on_c, 2, 76, 80
8, 78360, Note_on_c, 2, 67, 80
8, 78464, Note_on_c, 2, 76, 0
8, 78464, Note_on_c, 2, 67, 0
8, 78480, Note_on_c, 2, 67, 80
8, 78480, Note_on_c, 2, 74, 80
8, 78599, Note_on_c, 2, 67, 0
8, 78599, Note_on_c, 2, 74, 0
8, 81000, Control_c, 2, 11, 47
8, 81360, Control_c, 2, 11, 49
8, 81360, Note_on_c, 2, 67, 92
8, 81397, Control_c, 2, 11, 50
8, 81434, Control_c, 2, 11, 51
8, 81471, Control_c, 2, 11, 52
8, 81508, Control_c, 2, 11, 53
8, 81545, Control_c, 2, 11, 54
8, 81582, Control_c, 2, 11, 55
8, 81618, Control_c, 2, 11, 56
8, 81655, Control_c, 2, 11, 57
8, 81692, Control_c, 2, 11, 58
8, 81729, Control_c, 2, 11, 59
8, 81766, Control_c, 2, 11, 60
8, 81803, Control_c, 2, 11, 61
8, 81840, Control_c, 2, 11, 62
8, 81877, Control_c, 2, 11, 63
8, 81914, Control_c, 2, 11, 64
8, 81951, Control_c, 2, 11, 65
8, 81988, Control_c, 2, 11, 66
8, 82025, Control_c, 2, 11, 67
8, 82062, Control_c, 2, 11, 68
8, 82080, Note_on_c, 2, 69, 92
8, 82098, Control_c, 2, 11, 69
8, 82135, Control_c, 2, 11, 70
8, 82172, Control_c, 2, 11, 71
8, 82209, Control_c, 2, 11, 72
8, 82246, Control_c, 2, 11, 73
8, 82283, Control_c, 2, 11, 74
8, 82320, Control_c, 2, 11, 75
8, 82357, Control_c, 2, 11, 76
8, 82394, Control_c, 2, 11, 77
8, 82431, Control_c, 2, 11, 78
8, 82439, Note_on_c, 2, 67, 0
8, 82440, Note_on_c, 2, 65, 92
8, 82468, Control_c, 2, 11, 79
8, 82505, Control_c, 2, 11, 80
8, 82542, Control_c, 2, 11, 81
8, 82578, Control_c, 2, 11, 82
8, 82615, Control_c, 2, 11, 83
8, 82652, Control_c, 2, 11, 84
8, 82689, Control_c, 2, 11, 85
8, 82726, Control_c, 2, 11, 86
8, 82763, Control_c, 2, 11, 87
8, 82799, Note_on_c, 2, 69, 0
8, 82800, Note_on_c, 2, 68, 92
8, 82800, Control_c, 2, 11, 88
8, 82837, Control_c, 2, 11, 89
8, 82874, Control_c, 2, 11, 90
8, 82911, Control_c, 2, 11, 91
8, 82948, Control_c, 2, 11, 92
8, 82985, Control_c, 2, 11, 93
8, 83022, Control_c, 2, 11, 94
8, 83058, Control_c, 2, 11, 95
8, 83095, Control_c, 2, 11, 96
8, 83132, Control_c, 2, 11, 97
8, 83159, Note_on_c, 2, 65, 0
8, 83159, Note_on_c, 2, 68, 0
8, 83160, Note_on_c, 2, 64, 92
8, 83160, Note_on_c, 2, 67, 92
8, 83169, Control_c, 2, 11, 98
8, 83206, Control_c, 2, 11, 99
8, 83243, Control_c, 2, 11, 100
8, 83280, Control_c, 2, 11, 101
8, 83317, Control_c, 2, 11, 102
8, 83354, Control_c, 2, 11, 103
8, 83391, Control_c, 2, 11, 104
8, 83428, Control_c, 2, 11, 105
8, 83465, Control_c, 2, 11, 106
8, 83502, Control_c, 2, 11, 107
8, 83519, Note_on_c, 2, 64, 0
8, 83520, Note_on_c, 2, 63, 60
8, 83538, Control_c, 2, 11, 108
8, 83575, Control_c, 2, 11, 109
8, 83612, Control_c, 2, 11, 110
8, 83649, Control_c, 2, 11, 111
8, 83686, Control_c, 2, 11, 112
8, 83723, Control_c, 2, 11, 113
8, 83760, Control_c, 2, 11, 114
8, 83797, Control_c, 2, 11, 115
8, 83834, Control_c, 2, 11, 116
8, 83871, Control_c, 2, 11, 117
8, 83879, Note_on_c, 2, 63, 0
8, 83880, Note_on_c, 2, 62, 92
8, 83908, Control_c, 2, 11, 118
8, 83945, Control_c, 2, 11, 119
8, 83982, Control_c, 2, 11, 120
8, 84018, Control_c, 2, 11, 121
8, 84055, Control_c, 2, 11, 122
8, 84092, Control_c, 2, 11, 123
8, 84129, Control_c, 2, 11, 124
8, 84166, Control_c, 2, 11, 125
8, 84203, Control_c, 2, 11, 127
8, 84224, Note_on_c, 2, 67, 0
8, 84224, Note_on_c, 2, 62, 0
8, 84240, Note_on_c, 2, 72, 92
8, 84240, Note_on_c, 2, 60, 92
8, 84359, Note_on_c, 2, 60, 0
8, 84360, Note_on_c, 2, 64, 92
8, 84479, Note_on_c, 2, 72, 0
8, 84479, Note_on_c, 2, 64, 0
8, 84480, Note_on_c, 2, 74, 92
8, 84480, Note_on_c, 2, 65, 92
8, 84539, Note_on_c, 2, 74, 0
8, 84539, Note_on_c, 2, 65, 0
8, 84540, Note_on_c, 2, 67, 92
8, 84540, Note_on_c, 2, 76, 92
8, 84584, Note_on_c, 2, 67, 0
8, 84584, Note_on_c, 2, 76, 0
8, 84600, Note_on_c, 2, 69, 92
8, 84600, Note_on_c, 2, 77, 92
8, 84719, Note_on_c, 2, 69, 0
8, 84719, Note_on_c, 2, 77, 0
8, 84840, Note_on_c, 2, 76, 92
8, 84840, Note_on_c, 2, 67, 92
8, 84929, Note_on_c, 2, 76, 0
8, 84929, Note_on_c, 2, 67, 0
8, 84960, Note_on_c, 2, 65, 92
8, 84960, Note_on_c, 2, 74, 92
8, 85049, Note_on_c, 2, 65, 0
8, 85049, Note_on_c, 2, 74, 0
8, 85200, Note_on_c, 2, 72, 92
8, 85200, Note_on_c, 2, 64, 92
8, 85289, Note_on_c, 2, 72, 0
8, 85289, Note_on_c, 2, 64, 0
8, 85320, Note_on_c, 2, 65, 92
8, 85320, Note_on_c, 2, 74, 92
8, 85409, Note_on_c, 2, 65, 0
8, 85409, Note_on_c, 2, 74, 0
8, 85560, Note_on_c, 2, 62, 92
8, 85560, Note_on_c, 2, 71, 92
8, 85649, Note_on_c, 2, 62, 0
8, 85649, Note_on_c, 2, 71, 0
8, 85680, Note_on_c, 2, 64, 92
8, 85680, Note_on_c, 2, 60, 92
8, 85919, Note_on_c, 2, 64, 0
8, 85919, Note_on_c, 2, 60, 0
8, 85920, Note_on_c, 2, 62, 92
8, 85920, Note_on_c, 2, 65, 92
8, 85979, Note_on_c, 2, 62, 0
8, 85979, Note_on_c, 2, 65, 0
8, 85980, Note_on_c, 2, 67, 92
8, 85980, Note_on_c, 2, 64, 92
8, 86024, Note_on_c, 2, 67, 0
8, 86024, Note_on_c, 2, 64, 0
8, 86040, Note_on_c, 2, 65, 92
8, 86040, Note_on_c, 2, 69, 92
8, 86129, Note_on_c, 2, 65, 0
8, 86129, Note_on_c, 2, 69, 0
8, 86280, Note_on_c, 2, 67, 92
8, 86280, Note_on_c, 2, 64, 92
8, 86369, Note_on_c, 2, 67, 0
8, 86369, Note_on_c, 2, 64, 0
8, 86400, Note_on_c, 2, 65, 92
8, 86400, Note_on_c, 2, 62, 92
8, 86489, Note_on_c, 2, 65, 0
8, 86489, Note_on_c, 2, 62, 0
8, 86640, Note_on_c, 2, 60, 92
8, 86640, Note_on_c, 2, 64, 92
8, 86729, Note_on_c, 2, 60, 0
8, 86729, Note_on_c, 2, 64, 0
8, 86760, Note_on_c, 2, 65, 92
8, 86760, Note_on_c, 2, 62, 92
8, 86849, Note_on_c, 2, 65, 0
8, 86849, Note_on_c, 2, 62, 0
8, 87000, Note_on_c, 2, 59, 92
8, 87000, Note_on_c, 2, 62, 92
8, 87089, Note_on_c, 2, 59, 0
8, 87089, Note_on_c, 2, 62, 0
8, 87120, Note_on_c, 2, 64, 92
8, 87120, Note_on_c, 2, 60, 92
8, 87209, Note_on_c, 2, 64, 0
8, 87209, Note_on_c, 2, 60, 0
8, 87240, Note_on_c, 2, 72, 92
8, 87240, Note_on_c, 2, 64, 92
8, 87359, Note_on_c, 2, 72, 0
8, 87359, Note_on_c, 2, 64, 0
8, 87360, Note_on_c, 2, 74, 92
8, 87360, Note_on_c, 2, 65, 92
8, 87419, Note_on_c, 2, 74, 0
8, 87419, Note_on_c, 2, 65, 0
8, 87420, Note_on_c, 2, 76, 92
8, 87420, Note_on_c, 2, 67, 92
8, 87464, Note_on_c, 2, 76, 0
8, 87464, Note_on_c, 2, 67, 0
8, 87480, Note_on_c, 2, 69, 92
8, 87480, Note_on_c, 2, 77, 92
8, 87569, Note_on_c, 2, 69, 0
8, 87569, Note_on_c, 2, 77, 0
8, 87600, Note_on_c, 2, 69, 92
8, 87600, Note_on_c, 2, 77, 92
8, 87689, Note_on_c, 2, 69, 0
8, 87689, Note_on_c, 2, 77, 0
8, 87720, Note_on_c, 2, 76, 92
8, 87720, Note_on_c, 2, 67, 92
8, 87809, Note_on_c, 2, 76, 0
8, 87809, Note_on_c, 2, 67, 0
8, 87840, Note_on_c, 2, 65, 92
8, 87840, Note_on_c, 2, 74, 92
8, 87929, Note_on_c, 2, 65, 0
8, 87929, Note_on_c, 2, 74, 0
8, 87960, Note_on_c, 2, 74, 92
8, 87960, Note_on_c, 2, 65, 92
8, 88049, Note_on_c, 2, 74, 0
8, 88049, Note_on_c, 2, 65, 0
8, 88080, Note_on_c, 2, 64, 92
8, 88080, Note_on_c, 2, 72, 92
8, 88169, Note_on_c, 2, 64, 0
8, 88169, Note_on_c, 2, 72, 0
8, 88200, Note_on_c, 2, 65, 92
8, 88200, Note_on_c, 2, 74, 92
8, 88289, Note_on_c, 2, 65, 0
8, 88289, Note_on_c, 2, 74, 0
8, 88320, Note_on_c, 2, 74, 92
8, 88320, Note_on_c, 2, 65, 92
8, 88409, Note_on_c, 2, 74, 0
8, 88409, Note_on_c, 2, 65, 0
8, 88440, Note_on_c, 2, 71, 92
8, 88440, Note_on_c, 2, 62, 92
8, 88529, Note_on_c, 2, 71, 0
8, 88529, Note_on_c, 2, 62, 0
8, 88560, Note_on_c, 2, 64, 92
8, 88560, Note_on_c, 2, 72, 92
8, 88649, Note_on_c, 2, 64, 0
8, 88649, Note_on_c, 2, 72, 0
8, 88680, Note_on_c, 2, 60, 92
8, 88680, Note_on_c, 2, 64, 92
8, 88799, Note_on_c, 2, 60, 0
8, 88799, Note_on_c, 2, 64, 0
8, 88800, Note_on_c, 2, 62, 92
8, 88800, Note_on_c, 2, 65, 92
8, 88859, Note_on_c, 2, 62, 0
8, 88859, Note_on_c, 2, 65, 0
8, 88860, Note_on_c, 2, 64, 92
8, 88860, Note_on_c, 2, 67, 92
8, 88904, Note_on_c, 2, 64, 0
8, 88904, Note_on_c, 2, 67, 0
8, 88920, Note_on_c, 2, 65, 92
8, 88920, Note_on_c, 2, 69, 92
8, 89009, Note_on_c, 2, 65, 0
8, 89009, Note_on_c, 2, 69, 0
8, 89040, Note_on_c, 2, 65, 92
8, 89040, Note_on_c, 2, 69, 92
8, 89129, Note_on_c, 2, 65, 0
8, 89129, Note_on_c, 2, 69, 0
8, 89160, Note_on_c, 2, 64, 92
8, 89160, Note_on_c, 2, 67, 92
8, 89249, Note_on_c, 2, 64, 0
8, 89249, Note_on_c, 2, 67, 0
8, 89280, Note_on_c, 2, 62, 92
8, 89280, Note_on_c, 2, 65, 92
8, 89369, Note_on_c, 2, 62, 0
8, 89369, Note_on_c, 2, 65, 0
8, 89400, Note_on_c, 2, 62, 92
8, 89400, Note_on_c, 2, 65, 92
8, 89489, Note_on_c, 2, 62, 0
8, 89489, Note_on_c, 2, 65, 0
8, 89520, Note_on_c, 2, 64, 92
8, 89520, Note_on_c, 2, 60, 92
8, 89609, Note_on_c, 2, 64, 0
8, 89609, Note_on_c, 2, 60, 0
8, 89640, Note_on_c, 2, 62, 92
8, 89640, Note_on_c, 2, 65, 92
8, 89729, Note_on_c, 2, 62, 0
8, 89729, Note_on_c, 2, 65, 0
8, 89760, Note_on_c, 2, 65, 92
8, 89760, Note_on_c, 2, 62, 92
8, 89849, Note_on_c, 2, 65, 0
8, 89849, Note_on_c, 2, 62, 0
8, 89880, Note_on_c, 2, 71, 92
8, 89880, Note_on_c, 2, 62, 92
8, 89969, Note_on_c, 2, 71, 0
8, 89969, Note_on_c, 2, 62, 0
8, 90000, Note_on_c, 2, 64, 92
8, 90000, Note_on_c, 2, 60, 92
8, 90164, Note_on_c, 2, 64, 0
8, 90164, Note_on_c, 2, 60, 0
8, 90180, Note_on_c, 2, 52, 92
8, 90180, Note_on_c, 2, 64, 92
8, 90224, Note_on_c, 2, 52, 0
8, 90224, Note_on_c, 2, 64, 0
8, 90240, Note_on_c, 2, 52, 92
8, 90240, Note_on_c, 2, 64, 92
8, 90344, Note_on_c, 2, 52, 0
8, 90344, Note_on_c, 2, 64, 0
8, 90360, Note_on_c, 2, 52, 92
8, 90360, Note_on_c, 2, 64, 92
8, 90449, Note_on_c, 2, 52, 0
8, 90449, Note_on_c, 2, 64, 0
8, 90480, Note_on_c, 2, 53, 92
8, 90480, Note_on_c, 2, 65, 92
8, 90569, Note_on_c, 2, 53, 0
8, 90569, Note_on_c, 2, 65, 0
8, 90600, Note_on_c, 2, 55, 92
8, 90600, Note_on_c, 2, 67, 92
8, 90689, Note_on_c, 2, 55, 0
8, 90689, Note_on_c, 2, 67, 0
8, 90720, Note_on_c, 2, 57, 92
8, 90720, Note_on_c, 2, 69, 92
8, 90839, Note_on_c, 2, 57, 0
8, 90839, Note_on_c, 2, 69, 0
8, 91080, Note_on_c, 2, 57, 92
8, 91080, Note_on_c, 2, 69, 92
8, 91169, Note_on_c, 2, 57, 0
8, 91169, Note_on_c, 2, 69, 0
8, 91200, Note_on_c, 2, 71, 92
8, 91200, Note_on_c, 2, 59, 92
8, 91289, Note_on_c, 2, 71, 0
8, 91289, Note_on_c, 2, 59, 0
8, 91320, Note_on_c, 2, 72, 92
8, 91320, Note_on_c, 2, 60, 92
8, 91409, Note_on_c, 2, 72, 0
8, 91409, Note_on_c, 2, 60, 0
8, 91440, Note_on_c, 2, 74, 92
8, 91440, Note_on_c, 2, 62, 92
8, 91604, Note_on_c, 2, 74, 0
8, 91604, Note_on_c, 2, 62, 0
8, 91620, Note_on_c, 2, 62, 92
8, 91620, Note_on_c, 2, 74, 92
8, 91664, Note_on_c, 2, 62, 0
8, 91664, Note_on_c, 2, 74, 0
8, 91680, Note_on_c, 2, 62, 92
8, 91680, Note_on_c, 2, 74, 92
8, 91784, Note_on_c, 2, 62, 0
8, 91784, Note_on_c, 2, 74, 0
8, 91800, Note_on_c, 2, 74, 92
8, 91800, Note_on_c, 2, 62, 92
8, 91889, Note_on_c, 2, 74, 0
8, 91889, Note_on_c, 2, 62, 0
8, 91920, Note_on_c, 2, 64, 92
8, 91920, Note_on_c, 2, 76, 92
8, 92009, Note_on_c, 2, 64, 0
8, 92009, Note_on_c, 2, 76, 0
8, 92040, Note_on_c, 2, 65, 92
8, 92040, Note_on_c, 2, 77, 92
8, 92129, Note_on_c, 2, 65, 0
8, 92129, Note_on_c, 2, 77, 0
8, 92160, Note_on_c, 2, 79, 92
8, 92160, Note_on_c, 2, 67, 92
8, 92279, Note_on_c, 2, 79, 0
8, 92279, Note_on_c, 2, 67, 0
8, 92520, Note_on_c, 2, 67, 92
8, 92520, Note_on_c, 2, 55, 92
8, 92609, Note_on_c, 2, 67, 0
8, 92609, Note_on_c, 2, 55, 0
8, 92640, Note_on_c, 2, 60, 92
8, 92640, Note_on_c, 2, 72, 92
8, 92729, Note_on_c, 2, 60, 0
8, 92729, Note_on_c, 2, 72, 0
8, 92760, Note_on_c, 2, 62, 92
8, 92760, Note_on_c, 2, 74, 92
8, 92849, Note_on_c, 2, 62, 0
8, 92849, Note_on_c, 2, 74, 0
8, 92880, Note_on_c, 2, 64, 44
8, 92880, Note_on_c, 2, 76, 44
8, 92999, Note_on_c, 2, 64, 0
8, 92999, Note_on_c, 2, 76, 0
8, 95040, Note_on_c, 2, 67, 44
8, 95159, Note_on_c, 2, 67, 0
8, 95160, Note_on_c, 2, 60, 47
8, 95279, Note_on_c, 2, 60, 0
8, 95280, Note_on_c, 2, 62, 50
8, 95399, Note_on_c, 2, 62, 0
8, 95400, Note_on_c, 2, 64, 53
8, 95519, Note_on_c, 2, 64, 0
8, 95520, Note_on_c, 2, 65, 56
8, 95639, Note_on_c, 2, 65, 0
8, 95640, Note_on_c, 2, 67, 59
8, 95759, Note_on_c, 2, 67, 0
8, 95760, Note_on_c, 2, 66, 62
8, 95879, Note_on_c, 2, 66, 0
8, 95880, Note_on_c, 2, 67, 65
8, 95999, Note_on_c, 2, 67, 0
8, 96000, Note_on_c, 2, 69, 68
8, 96119, Note_on_c, 2, 69, 0
8, 96120, Note_on_c, 2, 67, 71
8, 96239, Note_on_c, 2, 67, 0
8, 96240, Note_on_c, 2, 74, 74
8, 96240, Note_on_c, 2, 71, 74
8, 96359, Note_on_c, 2, 74, 0
8, 96359, Note_on_c, 2, 71, 0
8, 96360, Note_on_c, 2, 72, 77
8, 96360, Note_on_c, 2, 67, 77
8, 96464, Note_on_c, 2, 72, 0
8, 96464, Note_on_c, 2, 67, 0
8, 96480, Note_on_c, 2, 55, 80
8, 96480, Note_on_c, 2, 67, 80
8, 96569, Note_on_c, 2, 55, 0
8, 96569, Note_on_c, 2, 67, 0
8, 96600, Note_on_c, 2, 76, 80
8, 96600, Note_on_c, 2, 64, 80
8, 96689, Note_on_c, 2, 76, 0
8, 96689, Note_on_c, 2, 64, 0
8, 96720, Note_on_c, 2, 69, 80
8, 96720, Note_on_c, 2, 65, 80
8, 96809, Note_on_c, 2, 69, 0
8, 96809, Note_on_c, 2, 65, 0
8, 96840, Note_on_c, 2, 77, 80
8, 96840, Note_on_c, 2, 65, 80
8, 96929, Note_on_c, 2, 77, 0
8, 96929, Note_on_c, 2, 65, 0
8, 96960, Note_on_c, 2, 74, 80
8, 96960, Note_on_c, 2, 67, 80
8, 97049, Note_on_c, 2, 74, 0
8, 97049, Note_on_c, 2, 67, 0
8, 97080, Note_on_c, 2, 71, 80
8, 97080, Note_on_c, 2, 74, 80
8, 97169, Note_on_c, 2, 71, 0
8, 97169, Note_on_c, 2, 74, 0
8, 97200, Note_on_c, 2, 76, 80
8, 97200, Note_on_c, 2, 72, 80
8, 97319, Note_on_c, 2, 76, 0
8, 97319, Note_on_c, 2, 72, 0
8, 97920, Note_on_c, 2, 67, 80
8, 97920, Note_on_c, 2, 64, 80
8, 98009, Note_on_c, 2, 67, 0
8, 98009, Note_on_c, 2, 64, 0
8, 98040, Note_on_c, 2, 64, 80
8, 98040, Note_on_c, 2, 76, 80
8, 98129, Note_on_c, 2, 64, 0
8, 98129, Note_on_c, 2, 76, 0
8, 98160, Note_on_c, 2, 65, 80
8, 98160, Note_on_c, 2, 69, 80
8, 98249, Note_on_c, 2, 65, 0
8, 98249, Note_on_c, 2, 69, 0
8, 98280, Note_on_c, 2, 65, 80
8, 98280, Note_on_c, 2, 77, 80
8, 98369, Note_on_c, 2, 65, 0
8, 98369, Note_on_c, 2, 77, 0
8, 98400, Note_on_c, 2, 67, 80
8, 98400, Note_on_c, 2, 74, 80
8, 98489, Note_on_c, 2, 67, 0
8, 98489, Note_on_c, 2, 74, 0
8, 98520, Note_on_c, 2, 74, 80
8, 98520, Note_on_c, 2, 71, 80
8, 98609, Note_on_c, 2, 74, 0
8, 98609, Note_on_c, 2, 71, 0
8, 98640, Note_on_c, 2, 76, 80
8, 98640, Note_on_c, 2, 72, 80
8, 98729, Note_on_c, 2, 76, 0
8, 98729, Note_on_c, 2, 72, 0
8, 98760, Note_on_c, 2, 67, 80
8, 98760, Note_on_c, 2, 79, 80
8, 98849, Note_on_c, 2, 67, 0
8, 98849, Note_on_c, 2, 79, 0
8, 98880, Note_on_c, 2, 79, 80
8, 98880, Note_on_c, 2, 67, 80
8, 98969, Note_on_c, 2, 79, 0
8, 98969, Note_on_c, 2, 67, 0
8, 99000, Note_on_c, 2, 79, 80
8, 99000, Note_on_c, 2, 67, 80
8, 99089, Note_on_c, 2, 79, 0
8, 99089, Note_on_c, 2, 67, 0
8, 99120, Note_on_c, 2, 67, 80
8, 99120, Note_on_c, 2, 79, 80
8, 99209, Note_on_c, 2, 67, 0
8, 99209, Note_on_c, 2, 79, 0
8, 99240, Note_on_c, 2, 79, 80
8, 99240, Note_on_c, 2, 67, 80
8, 99329, Note_on_c, 2, 79, 0
8, 99329, Note_on_c, 2, 67, 0
8, 99360, Note_on_c, 2, 72, 80
8, 99360, Note_on_c, 2, 76, 80
8, 99449, Note_on_c, 2, 72, 0
8, 99449, Note_on_c, 2, 76, 0
8, 99480, Note_on_c, 2, 72, 80
8, 99480, Note_on_c, 2, 67, 80
8, 99569, Note_on_c, 2, 72, 0
8, 99569, Note_on_c, 2, 67, 0
8, 99600, Note_on_c, 2, 79, 80
8, 99600, Note_on_c, 2, 76, 80
8, 99689, Note_on_c, 2, 79, 0
8, 99689, Note_on_c, 2, 76, 0
8, 99720, Note_on_c, 2, 74, 80
8, 99720, Note_on_c, 2, 77, 80
8, 99809, Note_on_c, 2, 74, 0
8, 99809, Note_on_c, 2, 77, 0
8, 99840, Note_on_c, 2, 74, 80
8, 99840, Note_on_c, 2, 67, 80
8, 99929, Note_on_c, 2, 74, 0
8, 99929, Note_on_c, 2, 67, 0
8, 99960, Note_on_c, 2, 79, 80
8, 99960, Note_on_c, 2, 77, 80
8, 100049, Note_on_c, 2, 79, 0
8, 100049, Note_on_c, 2, 77, 0
8, 100080, Note_on_c, 2, 72, 80
8, 100080, Note_on_c, 2, 76, 80
8, 100169, Note_on_c, 2, 72, 0
8, 100169, Note_on_c, 2, 76, 0
8, 100200, Note_on_c, 2, 72, 80
8, 100200, Note_on_c, 2, 67, 80
8, 100289, Note_on_c, 2, 72, 0
8, 100289, Note_on_c, 2, 67, 0
8, 100320, Note_on_c, 2, 79, 80
8, 100320, Note_on_c, 2, 76, 80
8, 100409, Note_on_c, 2, 79, 0
8, 100409, Note_on_c, 2, 76, 0
8, 100440, Note_on_c, 2, 77, 80
8, 100440, Note_on_c, 2, 74, 80
8, 100529, Note_on_c, 2, 77, 0
8, 100529, Note_on_c, 2, 74, 0
8, 100560, Note_on_c, 2, 67, 80
8, 100560, Note_on_c, 2, 74, 80
8, 100649, Note_on_c, 2, 67, 0
8, 100649, Note_on_c, 2, 74, 0
8, 100680, Note_on_c, 2, 77, 80
8, 100680, Note_on_c, 2, 79, 80
8, 100769, Note_on_c, 2, 77, 0
8, 100769, Note_on_c, 2, 79, 0
8, 100800, Note_on_c, 2, 55, 32
8, 100919, Note_on_c, 2, 55, 0
8, 100920, Note_on_c, 2, 57, 32
8, 101039, Note_on_c, 2, 57, 0
8, 101040, Note_on_c, 2, 59, 32
8, 101159, Note_on_c, 2, 59, 0
8, 101160, Note_on_c, 2, 60, 32
8, 101279, Note_on_c, 2, 60, 0
8, 101280, Note_on_c, 2, 62, 32
8, 101399, Note_on_c, 2, 62, 0
8, 101400, Note_on_c, 2, 64, 32
8, 101519, Note_on_c, 2, 64, 0
8, 101520, Note_on_c, 2, 65, 32
8, 101639, Note_on_c, 2, 65, 0
8, 101640, Note_on_c, 2, 64, 32
8, 101759, Note_on_c, 2, 64, 0
8, 101760, Note_on_c, 2, 65, 32
8, 101879, Note_on_c, 2, 65, 0
8, 101880, Note_on_c, 2, 67, 32
8, 101999, Note_on_c, 2, 67, 0
8, 102000, Note_on_c, 2, 69, 32
8, 102119, Note_on_c, 2, 69, 0
8, 102120, Note_on_c, 2, 71, 32
8, 102239, Note_on_c, 2, 71, 0
8, 102240, Note_on_c, 2, 72, 32
8, 102359, Note_on_c, 2, 72, 0
8, 102600, Note_on_c, 2, 60, 32
8, 102600, Note_on_c, 2, 64, 32
8, 102764, Note_on_c, 2, 60, 0
8, 102764, Note_on_c, 2, 64, 0
8, 102780, Note_on_c, 2, 64, 32
8, 102780, Note_on_c, 2, 60, 32
8, 102824, Note_on_c, 2, 64, 0
8, 102824, Note_on_c, 2, 60, 0
8, 102840, Note_on_c, 2, 64, 32
8, 102840, Note_on_c, 2, 60, 32
8, 102944, Note_on_c, 2, 64, 0
8, 102944, Note_on_c, 2, 60, 0
8, 102960, Note_on_c, 2, 60, 32
8, 102960, Note_on_c, 2, 69, 32
8, 103079, Note_on_c, 2, 60, 0
8, 103079, Note_on_c, 2, 69, 0
8, 103320, Note_on_c, 2, 69, 32
8, 103320, Note_on_c, 2, 65, 32
8, 103484, Note_on_c, 2, 69, 0
8, 103484, Note_on_c, 2, 65, 0
8, 103500, Note_on_c, 2, 69, 32
8, 103500, Note_on_c, 2, 65, 32
8, 103544, Note_on_c, 2, 69, 0
8, 103544, Note_on_c, 2, 65, 0
8, 103560, Note_on_c, 2, 65, 32
8, 103560, Note_on_c, 2, 69, 32
8, 103664, Note_on_c, 2, 65, 0
8, 103664, Note_on_c, 2, 69, 0
8, 103680, Note_on_c, 2, 65, 32
8, 103680, Note_on_c, 2, 69, 32
8, 103799, Note_on_c, 2, 65, 0
8, 103799, Note_on_c, 2, 69, 0
8, 105480, Note_on_c, 2, 62, 32
8, 105480, Note_on_c, 2, 65, 32
8, 105644, Note_on_c, 2, 62, 0
8, 105644, Note_on_c, 2, 65, 0
8, 105660, Note_on_c, 2, 62, 32
8, 105660, Note_on_c, 2, 65, 32
8, 105704, Note_on_c, 2, 62, 0
8, 105704, Note_on_c, 2, 65, 0
8, 105720, Note_on_c, 2, 65, 32
8, 105720, Note_on_c, 2, 62, 32
8, 105824, Note_on_c, 2, 65, 0
8, 105824, Note_on_c, 2, 62, 0
8, 105840, Note_on_c, 2, 62, 32
8, 105840, Note_on_c, 2, 67, 32
8, 105959, Note_on_c, 2, 62, 0
8, 105959, Note_on_c, 2, 67, 0
8, 106200, Note_on_c, 2, 67, 32
8, 106200, Note_on_c, 2, 63, 32
8, 106364, Note_on_c, 2, 67, 0
8, 106364, Note_on_c, 2, 63, 0
8, 106380, Note_on_c, 2, 67, 32
8, 106380, Note_on_c, 2, 63, 32
8, 106424, Note_on_c, 2, 67, 0
8, 106424, Note_on_c, 2, 63, 0
8, 106440, Note_on_c, 2, 63, 32
8, 106440, Note_on_c, 2, 67, 32
8, 106544, Note_on_c, 2, 63, 0
8, 106544, Note_on_c, 2, 67, 0
8, 106560, Note_on_c, 2, 63, 32
8, 106560, Note_on_c, 2, 67, 32
8, 106679, Note_on_c, 2, 63, 0
8, 106679, Note_on_c, 2, 67, 0
8, 108360, Note_on_c, 2, 63, 36
8, 108360, Note_on_c, 2, 67, 36
8, 108524, Note_on_c, 2, 63, 0
8, 108524, Note_on_c, 2, 67, 0
8, 108540, Note_on_c, 2, 67, 38
8, 108540, Note_on_c, 2, 63, 38
8, 108584, Note_on_c, 2, 67, 0
8, 108584, Note_on_c, 2, 63, 0
8, 108600, Note_on_c, 2, 63, 38
8, 108600, Note_on_c, 2, 67, 38
8, 108704, Note_on_c, 2, 63, 0
8, 108704, Note_on_c, 2, 67, 0
8, 108720, Note_on_c, 2, 63, 40
8, 108720, Note_on_c, 2, 68, 40
8, 108839, Note_on_c, 2, 63, 0
8, 108839, Note_on_c, 2, 68, 0
8, 109080, Note_on_c, 2, 68, 44
8, 109080, Note_on_c, 2, 65, 44
8, 109244, Note_on_c, 2, 68, 0
8, 109244, Note_on_c, 2, 65, 0
8, 109260, Note_on_c, 2, 65, 46
8, 109260, Note_on_c, 2, 68, 46
8, 109304, Note_on_c, 2, 65, 0
8, 109304, Note_on_c, 2, 68, 0
8, 109320, Note_on_c, 2, 65, 46
8, 109320, Note_on_c, 2, 68, 46
8, 109424, Note_on_c, 2, 65, 0
8, 109424, Note_on_c, 2, 68, 0
8, 109440, Note_on_c, 2, 68, 48
8, 109440, Note_on_c, 2, 65, 48
8, 109559, Note_on_c, 2, 68, 0
8, 109559, Note_on_c, 2, 65, 0
8, 109800, Note_on_c, 2, 65, 52
8, 109800, Note_on_c, 2, 70, 52
8, 109964, Note_on_c, 2, 65, 0
8, 109964, Note_on_c, 2, 70, 0
8, 109980, Note_on_c, 2, 65, 54
8, 109980, Note_on_c, 2, 70, 54
8, 110024, Note_on_c, 2, 65, 0
8, 110024, Note_on_c, 2, 70, 0
8, 110040, Note_on_c, 2, 65, 54
8, 110040, Note_on_c, 2, 70, 54
8, 110144, Note_on_c, 2, 65, 0
8, 110144, Note_on_c, 2, 70, 0
8, 110160, Note_on_c, 2, 66, 56
8, 110160, Note_on_c, 2, 70, 56
8, 110279, Note_on_c, 2, 66, 0
8, 110279, Note_on_c, 2, 70, 0
8, 110520, Note_on_c, 2, 70, 60
8, 110520, Note_on_c, 2, 66, 60
8, 110684, Note_on_c, 2, 70, 0
8, 110684, Note_on_c, 2, 66, 0
8, 110700, Note_on_c, 2, 66, 62
8, 110700, Note_on_c, 2, 70, 62
8, 110744, Note_on_c, 2, 66, 0
8, 110744, Note_on_c, 2, 70, 0
8, 110760, Note_on_c, 2, 66, 62
8, 110760, Note_on_c, 2, 70, 62
8, 110864, Note_on_c, 2, 66, 0
8, 110864, Note_on_c, 2, 70, 0
8, 110880, Note_on_c, 2, 66, 64
8, 110880, Note_on_c, 2, 71, 64
8, 110999, Note_on_c, 2, 66, 0
8, 110999, Note_on_c, 2, 71, 0
8, 111240, Note_on_c, 2, 71, 68
8, 111240, Note_on_c, 2, 68, 68
8, 111404, Note_on_c, 2, 71, 0
8, 111404, Note_on_c, 2, 68, 0
8, 111420, Note_on_c, 2, 71, 70
8, 111420, Note_on_c, 2, 68, 70
8, 111464, Note_on_c, 2, 71, 0
8, 111464, Note_on_c, 2, 68, 0
8, 111480, Note_on_c, 2, 71, 70
8, 111480, Note_on_c, 2, 68, 70
8, 111584, Note_on_c, 2, 71, 0
8, 111584, Note_on_c, 2, 68, 0
8, 111600, Note_on_c, 2, 68, 72
8, 111600, Note_on_c, 2, 71, 72
8, 111719, Note_on_c, 2, 68, 0
8, 111719, Note_on_c, 2, 71, 0
8, 111960, Note_on_c, 2, 68, 76
8, 111960, Note_on_c, 2, 73, 76
8, 112124, Note_on_c, 2, 68, 0
8, 112124, Note_on_c, 2, 73, 0
8, 112140, Note_on_c, 2, 73, 78
8, 112140, Note_on_c, 2, 68, 78
8, 112184, Note_on_c, 2, 73, 0
8, 112184, Note_on_c, 2, 68, 0
8, 112200, Note_on_c, 2, 68, 78
8, 112200, Note_on_c, 2, 73, 78
8, 112304, Note_on_c, 2, 68, 0
8, 112304, Note_on_c, 2, 73, 0
8, 112320, Note_on_c, 2, 69, 80
8, 112320, Note_on_c, 2, 73, 80
8, 112439, Note_on_c, 2, 69, 0
8, 112439, Note_on_c, 2, 73, 0
8, 112680, Note_on_c, 2, 69, 80
8, 112680, Note_on_c, 2, 81, 80
8, 112844, Note_on_c, 2, 69, 0
8, 112844, Note_on_c, 2, 81, 0
8, 112860, Note_on_c, 2, 69, 80
8, 112860, Note_on_c, 2, 57, 80
8, 112904, Note_on_c, 2, 69, 0
8, 112904, Note_on_c, 2, 57, 0
8, 112920, Note_on_c, 2, 57, 80
8, 112920, Note_on_c, 2, 69, 80
8, 113024, Note_on_c, 2, 57, 0
8, 113024, Note_on_c, 2, 69, 0
8, 113400, Note_on_c, 2, 58, 92
8, 113400, Note_on_c, 2, 70, 92
8, 113564, Note_on_c, 2, 58, 0
8, 113564, Note_on_c, 2, 70, 0
8, 113580, Note_on_c, 2, 58, 92
8, 113624, Note_on_c, 2, 58, 0
8, 113640, Note_on_c, 2, 58, 92
8, 113744, Note_on_c, 2, 58, 0
8, 114120, Note_on_c, 2, 59, 92
8, 114120, Note_on_c, 2, 71, 92
8, 114284, Note_on_c, 2, 59, 0
8, 114284, Note_on_c, 2, 71, 0
8, 114300, Note_on_c, 2, 59, 92
8, 114344, Note_on_c, 2, 59, 0
8, 114360, Note_on_c, 2, 59, 92
8, 114809, Note_on_c, 2, 59, 0
8, 115920, Note_on_c, 2, 71, 44
8, 116084, Note_on_c, 2, 71, 0
8, 116100, Note_on_c, 2, 59, 44
8, 116144, Note_on_c, 2, 59, 0
8, 116160, Note_on_c, 2, 59, 44
8, 116264, Note_on_c, 2, 59, 0
8, 116280, Note_on_c, 2, 64, 44
8, 116369, Note_on_c, 2, 64, 0
8, 116400, Note_on_c, 2, 66, 44
8, 116400, Note_on_c, 2, 63, 44
8, 116489, Note_on_c, 2, 66, 0
8, 116489, Note_on_c, 2, 63, 0
8, 116520, Note_on_c, 2, 67, 44
8, 116520, Note_on_c, 2, 64, 44
8, 116609, Note_on_c, 2, 67, 0
8, 116609, Note_on_c, 2, 64, 0
8, 116640, Note_on_c, 2, 63, 44
8, 116640, Note_on_c, 2, 66, 44
8, 116729, Note_on_c, 2, 63, 0
8, 116729, Note_on_c, 2, 66, 0
8, 116760, Note_on_c, 2, 67, 44
8, 116760, Note_on_c, 2, 64, 44
8, 116849, Note_on_c, 2, 67, 0
8, 116849, Note_on_c, 2, 64, 0
8, 116880, Note_on_c, 2, 69, 44
8, 116880, Note_on_c, 2, 66, 44
8, 116969, Note_on_c, 2, 69, 0
8, 116969, Note_on_c, 2, 66, 0
8, 117000, Note_on_c, 2, 64, 44
8, 117000, Note_on_c, 2, 67, 44
8, 117089, Note_on_c, 2, 64, 0
8, 117089, Note_on_c, 2, 67, 0
8, 117120, Note_on_c, 2, 71, 44
8, 117120, Note_on_c, 2, 67, 44
8, 117209, Note_on_c, 2, 71, 0
8, 117209, Note_on_c, 2, 67, 0
8, 117240, Note_on_c, 2, 71, 44
8, 117240, Note_on_c, 2, 67, 44
8, 117329, Note_on_c, 2, 71, 0
8, 117329, Note_on_c, 2, 67, 0
8, 117360, Note_on_c, 2, 67, 44
8, 117360, Note_on_c, 2, 71, 44
8, 117449, Note_on_c, 2, 67, 0
8, 117449, Note_on_c, 2, 71, 0
8, 117480, Note_on_c, 2, 69, 44
8, 117480, Note_on_c, 2, 66, 44
8, 117569, Note_on_c, 2, 69, 0
8, 117569, Note_on_c, 2, 66, 0
8, 117600, Note_on_c, 2, 67, 44
8, 117600, Note_on_c, 2, 64, 44
8, 117689, Note_on_c, 2, 67, 0
8, 117689, Note_on_c, 2, 64, 0
8, 117720, Note_on_c, 2, 66, 44
8, 117720, Note_on_c, 2, 69, 44
8, 117809, Note_on_c, 2, 66, 0
8, 117809, Note_on_c, 2, 69, 0
8, 117840, Note_on_c, 2, 64, 44
8, 117840, Note_on_c, 2, 67, 44
8, 117929, Note_on_c, 2, 64, 0
8, 117929, Note_on_c, 2, 67, 0
8, 117960, Note_on_c, 2, 66, 44
8, 117960, Note_on_c, 2, 63, 44
8, 118049, Note_on_c, 2, 66, 0
8, 118049, Note_on_c, 2, 63, 0
8, 118080, Note_on_c, 2, 64, 44
8, 118080, Note_on_c, 2, 68, 44
8, 118169, Note_on_c, 2, 64, 0
8, 118169, Note_on_c, 2, 68, 0
8, 118200, Note_on_c, 2, 76, 44
8, 118200, Note_on_c, 2, 64, 44
8, 118289, Note_on_c, 2, 76, 0
8, 118289, Note_on_c, 2, 64, 0
8, 118320, Note_on_c, 2, 64, 44
8, 118320, Note_on_c, 2, 76, 44
8, 118409, Note_on_c, 2, 64, 0
8, 118409, Note_on_c, 2, 76, 0
8, 118440, Note_on_c, 2, 72, 44
8, 118440, Note_on_c, 2, 76, 44
8, 118529, Note_on_c, 2, 72, 0
8, 118529, Note_on_c, 2, 76, 0
8, 118560, Note_on_c, 2, 71, 44
8, 118560, Note_on_c, 2, 74, 44
8, 118649, Note_on_c, 2, 71, 0
8, 118649, Note_on_c, 2, 74, 0
8, 118680, Note_on_c, 2, 69, 44
8, 118680, Note_on_c, 2, 72, 44
8, 118769, Note_on_c, 2, 69, 0
8, 118769, Note_on_c, 2, 72, 0
8, 118800, Note_on_c, 2, 71, 44
8, 118800, Note_on_c, 2, 74, 44
8, 118889, Note_on_c, 2, 71, 0
8, 118889, Note_on_c, 2, 74, 0
8, 118920, Note_on_c, 2, 72, 44
8, 118920, Note_on_c, 2, 69, 44
8, 119009, Note_on_c, 2, 72, 0
8, 119009, Note_on_c, 2, 69, 0
8, 119040, Note_on_c, 2, 68, 44
8, 119040, Note_on_c, 2, 71, 44
8, 119129, Note_on_c, 2, 68, 0
8, 119129, Note_on_c, 2, 71, 0
8, 119160, Note_on_c, 2, 76, 44
8, 119324, Note_on_c, 2, 76, 0
8, 119340, Note_on_c, 2, 64, 44
8, 119384, Note_on_c, 2, 64, 0
8, 119400, Note_on_c, 2, 64, 44
8, 119504, Note_on_c, 2, 64, 0
8, 119520, Note_on_c, 2, 69, 44
8, 119520, Note_on_c, 2, 64, 44
8, 119609, Note_on_c, 2, 69, 0
8, 119609, Note_on_c, 2, 64, 0
8, 119640, Note_on_c, 2, 68, 44
8, 119640, Note_on_c, 2, 71, 44
8, 119729, Note_on_c, 2, 68, 0
8, 119729, Note_on_c, 2, 71, 0
8, 119760, Note_on_c, 2, 69, 44
8, 119760, Note_on_c, 2, 72, 44
8, 119849, Note_on_c, 2, 69, 0
8, 119849, Note_on_c, 2, 72, 0
8, 119880, Note_on_c, 2, 68, 44
8, 119880, Note_on_c, 2, 71, 44
8, 119969, Note_on_c, 2, 68, 0
8, 119969, Note_on_c, 2, 71, 0
8, 120000, Note_on_c, 2, 69, 44
8, 120000, Note_on_c, 2, 72, 44
8, 120089, Note_on_c, 2, 69, 0
8, 120089, Note_on_c, 2, 72, 0
8, 120120, Note_on_c, 2, 74, 44
8, 120120, Note_on_c, 2, 71, 44
8, 120209, Note_on_c, 2, 74, 0
8, 120209, Note_on_c, 2, 71, 0
8, 120240, Note_on_c, 2, 69, 44
8, 120240, Note_on_c, 2, 72, 44
8, 120329, Note_on_c, 2, 69, 0
8, 120329, Note_on_c, 2, 72, 0
8, 120360, Note_on_c, 2, 76, 44
8, 120360, Note_on_c, 2, 72, 44
8, 120449, Note_on_c, 2, 76, 0
8, 120449, Note_on_c, 2, 72, 0
8, 120480, Note_on_c, 2, 72, 44
8, 120480, Note_on_c, 2, 76, 44
8, 120569, Note_on_c, 2, 72, 0
8, 120569, Note_on_c, 2, 76, 0
8, 120600, Note_on_c, 2, 76, 44
8, 120600, Note_on_c, 2, 72, 44
8, 120689, Note_on_c, 2, 76, 0
8, 120689, Note_on_c, 2, 72, 0
8, 120720, Note_on_c, 2, 74, 44
8, 120720, Note_on_c, 2, 71, 44
8, 120809, Note_on_c, 2, 74, 0
8, 120809, Note_on_c, 2, 71, 0
8, 120840, Note_on_c, 2, 72, 44
8, 120840, Note_on_c, 2, 69, 44
8, 120929, Note_on_c, 2, 72, 0
8, 120929, Note_on_c, 2, 69, 0
8, 120960, Note_on_c, 2, 74, 44
8, 120960, Note_on_c, 2, 71, 44
8, 121049, Note_on_c, 2, 74, 0
8, 121049, Note_on_c, 2, 71, 0
8, 121080, Note_on_c, 2, 69, 44
8, 121080, Note_on_c, 2, 72, 44
8, 121169, Note_on_c, 2, 69, 0
8, 121169, Note_on_c, 2, 72, 0
8, 121200, Note_on_c, 2, 71, 44
8, 121200, Note_on_c, 2, 68, 44
8, 121289, Note_on_c, 2, 71, 0
8, 121289, Note_on_c, 2, 68, 0
8, 121680, Note_on_c, 2, 69, 44
8, 121680, Note_on_c, 2, 65, 44
8, 121769, Note_on_c, 2, 69, 0
8, 121769, Note_on_c, 2, 65, 0
8, 121800, Note_on_c, 2, 70, 44
8, 121800, Note_on_c, 2, 67, 44
8, 121889, Note_on_c, 2, 70, 0
8, 121889, Note_on_c, 2, 67, 0
8, 121920, Note_on_c, 2, 72, 44
8, 121920, Note_on_c, 2, 69, 44
8, 122009, Note_on_c, 2, 72, 0
8, 122009, Note_on_c, 2, 69, 0
8, 122040, Note_on_c, 2, 70, 44
8, 122040, Note_on_c, 2, 67, 44
8, 122129, Note_on_c, 2, 70, 0
8, 122129, Note_on_c, 2, 67, 0
8, 122160, Note_on_c, 2, 69, 44
8, 122160, Note_on_c, 2, 72, 44
8, 122249, Note_on_c, 2, 69, 0
8, 122249, Note_on_c, 2, 72, 0
8, 122280, Note_on_c, 2, 74, 44
8, 122280, Note_on_c, 2, 70, 44
8, 122369, Note_on_c, 2, 74, 0
8, 122369, Note_on_c, 2, 70, 0
8, 122760, Note_on_c, 2, 69, 44
8, 122760, Note_on_c, 2, 72, 44
8, 122849, Note_on_c, 2, 69, 0
8, 122849, Note_on_c, 2, 72, 0
8, 122880, Note_on_c, 2, 67, 44
8, 122880, Note_on_c, 2, 76, 44
8, 122969, Note_on_c, 2, 67, 0
8, 122969, Note_on_c, 2, 76, 0
8, 123000, Note_on_c, 2, 69, 44
8, 123000, Note_on_c, 2, 77, 44
8, 123089, Note_on_c, 2, 69, 0
8, 123089, Note_on_c, 2, 77, 0
8, 123120, Note_on_c, 2, 67, 44
8, 123120, Note_on_c, 2, 76, 44
8, 123209, Note_on_c, 2, 67, 0
8, 123209, Note_on_c, 2, 76, 0
8, 123240, Note_on_c, 2, 77, 44
8, 123240, Note_on_c, 2, 69, 44
8, 123329, Note_on_c, 2, 77, 0
8, 123329, Note_on_c, 2, 69, 0
8, 123360, Note_on_c, 2, 70, 44
8, 123360, Note_on_c, 2, 79, 44
8, 123449, Note_on_c, 2, 70, 0
8, 123449, Note_on_c, 2, 79, 0
8, 123840, Note_on_c, 2, 69, 44
8, 123840, Note_on_c, 2, 72, 44
8, 123929, Note_on_c, 2, 69, 0
8, 123929, Note_on_c, 2, 72, 0
8, 123960, Note_on_c, 2, 70, 44
8, 123960, Note_on_c, 2, 67, 44
8, 124049, Note_on_c, 2, 70, 0
8, 124049, Note_on_c, 2, 67, 0
8, 124080, Note_on_c, 2, 69, 44
8, 124080, Note_on_c, 2, 65, 44
8, 124169, Note_on_c, 2, 69, 0
8, 124169, Note_on_c, 2, 65, 0
8, 124200, Note_on_c, 2, 70, 44
8, 124200, Note_on_c, 2, 74, 44
8, 124289, Note_on_c, 2, 70, 0
8, 124289, Note_on_c, 2, 74, 0
8, 124320, Note_on_c, 2, 69, 44
8, 124320, Note_on_c, 2, 72, 44
8, 124409, Note_on_c, 2, 69, 0
8, 124409, Note_on_c, 2, 72, 0
8, 124440, Note_on_c, 2, 70, 44
8, 124440, Note_on_c, 2, 67, 44
8, 124529, Note_on_c, 2, 70, 0
8, 124529, Note_on_c, 2, 67, 0
8, 124920, Note_on_c, 2, 69, 44
8, 124920, Note_on_c, 2, 65, 44
8, 125009, Note_on_c, 2, 69, 0
8, 125009, Note_on_c, 2, 65, 0
8, 125040, Note_on_c, 2, 60, 44
8, 125040, Note_on_c, 2, 72, 44
8, 125129, Note_on_c, 2, 60, 0
8, 125129, Note_on_c, 2, 72, 0
8, 125160, Note_on_c, 2, 60, 44
8, 125160, Note_on_c, 2, 72, 44
8, 125249, Note_on_c, 2, 60, 0
8, 125249, Note_on_c, 2, 72, 0
8, 125280, Note_on_c, 2, 72, 44
8, 125280, Note_on_c, 2, 60, 44
8, 125369, Note_on_c, 2, 72, 0
8, 125369, Note_on_c, 2, 60, 0
8, 125400, Note_on_c, 2, 72, 44
8, 125400, Note_on_c, 2, 60, 44
8, 125489, Note_on_c, 2, 72, 0
8, 125489, Note_on_c, 2, 60, 0
8, 125520, Note_on_c, 2, 72, 44
8, 125520, Note_on_c, 2, 60, 44
8, 125609, Note_on_c, 2, 72, 0
8, 125609, Note_on_c, 2, 60, 0
8, 125640, Note_on_c, 2, 69, 44
8, 125640, Note_on_c, 2, 77, 44
8, 125729, Note_on_c, 2, 69, 0
8, 125729, Note_on_c, 2, 77, 0
8, 125760, Note_on_c, 2, 79, 44
8, 125760, Note_on_c, 2, 70, 44
8, 125849, Note_on_c, 2, 79, 0
8, 125849, Note_on_c, 2, 70, 0
8, 125880, Note_on_c, 2, 81, 44
8, 125880, Note_on_c, 2, 72, 44
8, 125969, Note_on_c, 2, 81, 0
8, 125969, Note_on_c, 2, 72, 0
8, 126000, Note_on_c, 2, 81, 44
8, 126000, Note_on_c, 2, 72, 44
8, 126089, Note_on_c, 2, 81, 0
8, 126089, Note_on_c, 2, 72, 0
8, 126120, Note_on_c, 2, 70, 44
8, 126120, Note_on_c, 2, 79, 44
8, 126209, Note_on_c, 2, 70, 0
8, 126209, Note_on_c, 2, 79, 0
8, 126240, Note_on_c, 2, 69, 44
8, 126240, Note_on_c, 2, 77, 44
8, 126329, Note_on_c, 2, 69, 0
8, 126329, Note_on_c, 2, 77, 0
8, 126360, Note_on_c, 2, 69, 43
8, 126360, Note_on_c, 2, 77, 43
8, 126449, Note_on_c, 2, 69, 0
8, 126449, Note_on_c, 2, 77, 0
8, 126480, Note_on_c, 2, 79, 43
8, 126480, Note_on_c, 2, 70, 43
8, 126569, Note_on_c, 2, 79, 0
8, 126569, Note_on_c, 2, 70, 0
8, 126600, Note_on_c, 2, 69, 43
8, 126600, Note_on_c, 2, 77, 43
8, 126689, Note_on_c, 2, 69, 0
8, 126689, Note_on_c, 2, 77, 0
8, 127800, Note_on_c, 2, 74, 39
8, 127800, Note_on_c, 2, 65, 39
8, 127904, Note_on_c, 2, 74, 0
8, 127904, Note_on_c, 2, 65, 0
8, 127920, Note_on_c, 2, 76, 39
8, 127920, Note_on_c, 2, 67, 39
8, 128024, Note_on_c, 2, 76, 0
8, 128024, Note_on_c, 2, 67, 0
8, 128040, Note_on_c, 2, 69, 38
8, 128040, Note_on_c, 2, 77, 38
8, 128144, Note_on_c, 2, 69, 0
8, 128144, Note_on_c, 2, 77, 0
8, 128160, Note_on_c, 2, 77, 38
8, 128160, Note_on_c, 2, 69, 38
8, 128264, Note_on_c, 2, 77, 0
8, 128264, Note_on_c, 2, 69, 0
8, 128280, Note_on_c, 2, 67, 38
8, 128280, Note_on_c, 2, 76, 38
8, 128384, Note_on_c, 2, 67, 0
8, 128384, Note_on_c, 2, 76, 0
8, 128400, Note_on_c, 2, 74, 37
8, 128400, Note_on_c, 2, 65, 37
8, 128504, Note_on_c, 2, 74, 0
8, 128504, Note_on_c, 2, 65, 0
8, 128520, Note_on_c, 2, 65, 37
8, 128520, Note_on_c, 2, 74, 37
8, 128624, Note_on_c, 2, 65, 0
8, 128624, Note_on_c, 2, 74, 0
8, 128640, Note_on_c, 2, 67, 36
8, 128640, Note_on_c, 2, 76, 36
8, 128744, Note_on_c, 2, 67, 0
8, 128744, Note_on_c, 2, 76, 0
8, 128760, Note_on_c, 2, 74, 36
8, 128760, Note_on_c, 2, 65, 36
8, 128864, Note_on_c, 2, 74, 0
8, 128864, Note_on_c, 2, 65, 0
8, 128880, Note_on_c, 2, 69, 36
8, 128880, Note_on_c, 2, 57, 36
8, 128984, Note_on_c, 2, 69, 0
8, 128984, Note_on_c, 2, 57, 0
8, 129000, Note_on_c, 2, 69, 35
8, 129000, Note_on_c, 2, 57, 35
8, 129104, Note_on_c, 2, 69, 0
8, 129104, Note_on_c, 2, 57, 0
8, 129120, Note_on_c, 2, 57, 35
8, 129120, Note_on_c, 2, 69, 35
8, 129224, Note_on_c, 2, 57, 0
8, 129224, Note_on_c, 2, 69, 0
8, 129240, Note_on_c, 2, 69, 35
8, 129240, Note_on_c, 2, 57, 35
8, 129344, Note_on_c, 2, 69, 0
8, 129344, Note_on_c, 2, 57, 0
8, 129360, Note_on_c, 2, 57, 34
8, 129360, Note_on_c, 2, 69, 34
8, 129464, Note_on_c, 2, 57, 0
8, 129464, Note_on_c, 2, 69, 0
8, 129480, Note_on_c, 2, 57, 34
8, 129480, Note_on_c, 2, 69, 34
8, 129584, Note_on_c, 2, 57, 0
8, 129584, Note_on_c, 2, 69, 0
8, 129600, Note_on_c, 2, 57, 34
8, 129600, Note_on_c, 2, 69, 34
8, 129704, Note_on_c, 2, 57, 0
8, 129704, Note_on_c, 2, 69, 0
8, 129720, Note_on_c, 2, 69, 33
8, 129720, Note_on_c, 2, 57, 33
8, 129824, Note_on_c, 2, 69, 0
8, 129824, Note_on_c, 2, 57, 0
8, 129840, Note_on_c, 2, 69, 33
8, 129840, Note_on_c, 2, 57, 33
8, 129944, Note_on_c, 2, 69, 0
8, 129944, Note_on_c, 2, 57, 0
8, 129960, Note_on_c, 2, 69, 32
8, 129960, Note_on_c, 2, 57, 32
8, 130064, Note_on_c, 2, 69, 0
8, 130064, Note_on_c, 2, 57, 0
8, 130080, Note_on_c, 2, 69, 32
8, 130080, Note_on_c, 2, 57, 32
8, 130184, Note_on_c, 2, 69, 0
8, 130184, Note_on_c, 2, 57, 0
8, 130200, Note_on_c, 2, 69, 32
8, 130200, Note_on_c, 2, 57, 32
8, 130304, Note_on_c, 2, 69, 0
8, 130304, Note_on_c, 2, 57, 0
8, 130320, Note_on_c, 2, 69, 32
8, 130320, Note_on_c, 2, 57, 32
8, 130424, Note_on_c, 2, 69, 0
8, 130424, Note_on_c, 2, 57, 0
8, 130440, Note_on_c, 2, 57, 32
8, 130440, Note_on_c, 2, 69, 32
8, 130544, Note_on_c, 2, 57, 0
8, 130544, Note_on_c, 2, 69, 0
8, 130560, Note_on_c, 2, 69, 32
8, 130560, Note_on_c, 2, 57, 32
8, 130664, Note_on_c, 2, 69, 0
8, 130664, Note_on_c, 2, 57, 0
8, 130680, Note_on_c, 2, 57, 32
8, 130680, Note_on_c, 2, 69, 32
8, 130784, Note_on_c, 2, 57, 0
8, 130784, Note_on_c, 2, 69, 0
8, 130800, Note_on_c, 2, 69, 32
8, 130800, Note_on_c, 2, 57, 32
8, 130904, Note_on_c, 2, 69, 0
8, 130904, Note_on_c, 2, 57, 0
8, 130920, Note_on_c, 2, 69, 32
8, 130920, Note_on_c, 2, 57, 32
8, 131024, Note_on_c, 2, 69, 0
8, 131024, Note_on_c, 2, 57, 0
8, 131040, Note_on_c, 2, 69, 32
8, 131040, Note_on_c, 2, 57, 32
8, 131144, Note_on_c, 2, 69, 0
8, 131144, Note_on_c, 2, 57, 0
8, 131160, Note_on_c, 2, 57, 32
8, 131160, Note_on_c, 2, 69, 32
8, 131264, Note_on_c, 2, 57, 0
8, 131264, Note_on_c, 2, 69, 0
8, 131280, Note_on_c, 2, 69, 32
8, 131280, Note_on_c, 2, 57, 32
8, 131384, Note_on_c, 2, 69, 0
8, 131384, Note_on_c, 2, 57, 0
8, 131400, Note_on_c, 2, 69, 32
8, 131400, Note_on_c, 2, 57, 32
8, 131504, Note_on_c, 2, 69, 0
8, 131504, Note_on_c, 2, 57, 0
8, 131520, Note_on_c, 2, 57, 32
8, 131520, Note_on_c, 2, 69, 32
8, 131624, Note_on_c, 2, 57, 0
8, 131624, Note_on_c, 2, 69, 0
8, 131640, Note_on_c, 2, 69, 32
8, 131640, Note_on_c, 2, 57, 32
8, 131744, Note_on_c, 2, 69, 0
8, 131744, Note_on_c, 2, 57, 0
8, 131760, Note_on_c, 2, 57, 32
8, 131760, Note_on_c, 2, 69, 32
8, 131864, Note_on_c, 2, 57, 0
8, 131864, Note_on_c, 2, 69, 0
8, 131880, Note_on_c, 2, 57, 32
8, 131880, Note_on_c, 2, 69, 32
8, 131984, Note_on_c, 2, 57, 0
8, 131984, Note_on_c, 2, 69, 0
8, 132000, Note_on_c, 2, 69, 32
8, 132000, Note_on_c, 2, 57, 32
8, 132104, Note_on_c, 2, 69, 0
8, 132104, Note_on_c, 2, 57, 0
8, 132120, Note_on_c, 2, 69, 32
8, 132284, Note_on_c, 2, 69, 0
8, 132300, Note_on_c, 2, 57, 32
8, 132344, Note_on_c, 2, 57, 0
8, 132360, Note_on_c, 2, 57, 32
8, 132464, Note_on_c, 2, 57, 0
8, 132480, Note_on_c, 2, 62, 32
8, 132584, Note_on_c, 2, 62, 0
8, 132600, Note_on_c, 2, 64, 32
8, 132600, Note_on_c, 2, 61, 32
8, 132704, Note_on_c, 2, 64, 0
8, 132704, Note_on_c, 2, 61, 0
8, 132720, Note_on_c, 2, 65, 32
8, 132720, Note_on_c, 2, 62, 32
8, 132824, Note_on_c, 2, 65, 0
8, 132824, Note_on_c, 2, 62, 0
8, 132840, Note_on_c, 2, 64, 32
8, 132840, Note_on_c, 2, 61, 32
8, 132944, Note_on_c, 2, 64, 0
8, 132944, Note_on_c, 2, 61, 0
8, 132960, Note_on_c, 2, 62, 32
8, 132960, Note_on_c, 2, 65, 32
8, 133064, Note_on_c, 2, 62, 0
8, 133064, Note_on_c, 2, 65, 0
8, 133080, Note_on_c, 2, 64, 32
8, 133080, Note_on_c, 2, 67, 32
8, 133184, Note_on_c, 2, 64, 0
8, 133184, Note_on_c, 2, 67, 0
8, 133200, Note_on_c, 2, 62, 32
8, 133200, Note_on_c, 2, 65, 32
8, 133304, Note_on_c, 2, 62, 0
8, 133304, Note_on_c, 2, 65, 0
8, 133320, Note_on_c, 2, 69, 32
8, 133320, Note_on_c, 2, 65, 32
8, 133424, Note_on_c, 2, 69, 0
8, 133424, Note_on_c, 2, 65, 0
8, 133440, Note_on_c, 2, 65, 32
8, 133440, Note_on_c, 2, 69, 32
8, 133544, Note_on_c, 2, 65, 0
8, 133544, Note_on_c, 2, 69, 0
8, 133560, Note_on_c, 2, 65, 32
8, 133560, Note_on_c, 2, 69, 32
8, 133664, Note_on_c, 2, 65, 0
8, 133664, Note_on_c, 2, 69, 0
8, 133680, Note_on_c, 2, 67, 32
8, 133680, Note_on_c, 2, 64, 32
8, 133784, Note_on_c, 2, 67, 0
8, 133784, Note_on_c, 2, 64, 0
8, 133800, Note_on_c, 2, 62, 32
8, 133800, Note_on_c, 2, 65, 32
8, 133904, Note_on_c, 2, 62, 0
8, 133904, Note_on_c, 2, 65, 0
8, 133920, Note_on_c, 2, 67, 32
8, 133920, Note_on_c, 2, 64, 32
8, 134024, Note_on_c, 2, 67, 0
8, 134024, Note_on_c, 2, 64, 0
8, 134040, Note_on_c, 2, 65, 32
8, 134040, Note_on_c, 2, 62, 32
8, 134144, Note_on_c, 2, 65, 0
8, 134144, Note_on_c, 2, 62, 0
8, 134160, Note_on_c, 2, 64, 32
8, 134160, Note_on_c, 2, 61, 32
8, 134264, Note_on_c, 2, 64, 0
8, 134264, Note_on_c, 2, 61, 0
8, 134280, Note_on_c, 2, 65, 32
8, 134280, Note_on_c, 2, 62, 32
8, 134384, Note_on_c, 2, 65, 0
8, 134384, Note_on_c, 2, 62, 0
8, 134400, Note_on_c, 2, 69, 32
8, 134400, Note_on_c, 2, 77, 32
8, 134504, Note_on_c, 2, 69, 0
8, 134504, Note_on_c, 2, 77, 0
8, 134520, Note_on_c, 2, 69, 32
8, 134520, Note_on_c, 2, 77, 32
8, 134624, Note_on_c, 2, 69, 0
8, 134624, Note_on_c, 2, 77, 0
8, 134640, Note_on_c, 2, 77, 32
8, 134640, Note_on_c, 2, 69, 32
8, 134744, Note_on_c, 2, 77, 0
8, 134744, Note_on_c, 2, 69, 0
8, 134760, Note_on_c, 2, 67, 32
8, 134760, Note_on_c, 2, 76, 32
8, 134864, Note_on_c, 2, 67, 0
8, 134864, Note_on_c, 2, 76, 0
8, 134880, Note_on_c, 2, 65, 32
8, 134880, Note_on_c, 2, 74, 32
8, 134984, Note_on_c, 2, 65, 0
8, 134984, Note_on_c, 2, 74, 0
8, 135000, Note_on_c, 2, 76, 32
8, 135000, Note_on_c, 2, 67, 32
8, 135104, Note_on_c, 2, 76, 0
8, 135104, Note_on_c, 2, 67, 0
8, 135120, Note_on_c, 2, 65, 32
8, 135120, Note_on_c, 2, 74, 32
8, 135224, Note_on_c, 2, 65, 0
8, 135224, Note_on_c, 2, 74, 0
8, 135240, Note_on_c, 2, 64, 32
8, 135240, Note_on_c, 2, 73, 32
8, 135344, Note_on_c, 2, 64, 0
8, 135344, Note_on_c, 2, 73, 0
8, 135360, Note_on_c, 2, 74, 32
8, 135360, Note_on_c, 2, 65, 32
8, 135479, Note_on_c, 2, 74, 0
8, 135479, Note_on_c, 2, 65, 0
8, 137160, Note_on_c, 2, 79, 32
8, 137324, Note_on_c, 2, 79, 0
8, 137340, Note_on_c, 2, 67, 32
8, 137384, Note_on_c, 2, 67, 0
8, 137400, Note_on_c, 2, 67, 32
8, 137504, Note_on_c, 2, 67, 0
8, 137520, Note_on_c, 2, 74, 32
8, 137639, Note_on_c, 2, 74, 0
8, 137880, Note_on_c, 2, 79, 32
8, 138044, Note_on_c, 2, 79, 0
8, 138060, Note_on_c, 2, 67, 32
8, 138104, Note_on_c, 2, 67, 0
8, 138120, Note_on_c, 2, 67, 32
8, 138224, Note_on_c, 2, 67, 0
8, 138240, Note_on_c, 2, 62, 32
8, 138344, Note_on_c, 2, 62, 0
8, 138360, Note_on_c, 2, 70, 32
8, 138464, Note_on_c, 2, 70, 0
8, 138480, Note_on_c, 2, 70, 32
8, 138584, Note_on_c, 2, 70, 0
8, 138600, Note_on_c, 2, 70, 32
8, 138704, Note_on_c, 2, 70, 0
8, 138720, Note_on_c, 2, 70, 32
8, 138824, Note_on_c, 2, 70, 0
8, 138840, Note_on_c, 2, 70, 32
8, 138944, Note_on_c, 2, 70, 0
8, 138960, Note_on_c, 2, 70, 32
8, 139064, Note_on_c, 2, 70, 0
8, 139080, Note_on_c, 2, 70, 32
8, 139184, Note_on_c, 2, 70, 0
8, 139200, Note_on_c, 2, 70, 32
8, 139304, Note_on_c, 2, 70, 0
8, 139320, Note_on_c, 2, 70, 32
8, 139424, Note_on_c, 2, 70, 0
8, 139440, Note_on_c, 2, 70, 32
8, 139544, Note_on_c, 2, 70, 0
8, 139560, Note_on_c, 2, 70, 32
8, 139664, Note_on_c, 2, 70, 0
8, 139680, Note_on_c, 2, 70, 32
8, 139784, Note_on_c, 2, 70, 0
8, 139800, Note_on_c, 2, 70, 32
8, 139904, Note_on_c, 2, 70, 0
8, 139920, Note_on_c, 2, 70, 32
8, 140024, Note_on_c, 2, 70, 0
8, 140040, Note_on_c, 2, 70, 32
8, 140144, Note_on_c, 2, 70, 0
8, 140160, Note_on_c, 2, 70, 32
8, 140264, Note_on_c, 2, 70, 0
8, 140280, Note_on_c, 2, 70, 32
8, 140384, Note_on_c, 2, 70, 0
8, 140400, Note_on_c, 2, 77, 32
8, 140519, Note_on_c, 2, 77, 0
8, 141840, Note_on_c, 2, 75, 32
8, 141959, Note_on_c, 2, 75, 0
8, 142200, Note_on_c, 2, 75, 32
8, 142319, Note_on_c, 2, 75, 0
8, 142560, Note_on_c, 2, 75, 32
8, 142679, Note_on_c, 2, 75, 0
8, 142920, Note_on_c, 2, 75, 32
8, 143039, Note_on_c, 2, 75, 0
8, 143280, Note_on_c, 2, 74, 32
8, 143399, Note_on_c, 2, 74, 0
8, 144720, Note_on_c, 2, 74, 44
8, 144720, Note_on_c, 2, 65, 44
8, 144839, Note_on_c, 2, 74, 0
8, 144839, Note_on_c, 2, 65, 0
8, 145440, Note_on_c, 2, 69, 62
8, 145440, Note_on_c, 2, 65, 62
8, 145559, Note_on_c, 2, 69, 0
8, 145559, Note_on_c, 2, 65, 0
8, 146160, Note_on_c, 2, 65, 80
8, 146160, Note_on_c, 2, 62, 80
8, 146279, Note_on_c, 2, 65, 0
8, 146279, Note_on_c, 2, 62, 0
8, 146880, Note_on_c, 2, 69, 86
8, 146880, Note_on_c, 2, 65, 86
8, 146999, Note_on_c, 2, 69, 0
8, 146999, Note_on_c, 2, 65, 0
8, 147600, Note_on_c, 2, 69, 92
8, 147764, Note_on_c, 2, 69, 0
8, 147780, Note_on_c, 2, 57, 92
8, 147824, Note_on_c, 2, 57, 0
8, 147840, Note_on_c, 2, 57, 92
8, 147944, Note_on_c, 2, 57, 0
8, 147960, Note_on_c, 2, 69, 92
8, 148124, Note_on_c, 2, 69, 0
8, 148140, Note_on_c, 2, 57, 92
8, 148184, Note_on_c, 2, 57, 0
8, 148200, Note_on_c, 2, 57, 92
8, 148304, Note_on_c, 2, 57, 0
8, 148320, Note_on_c, 2, 69, 92
8, 148484, Note_on_c, 2, 69, 0
8, 148500, Note_on_c, 2, 57, 92
8, 148544, Note_on_c, 2, 57, 0
8, 148560, Note_on_c, 2, 57, 92
8, 148664, Note_on_c, 2, 57, 0
8, 148680, Note_on_c, 2, 69, 92
8, 148844, Note_on_c, 2, 69, 0
8, 148860, Note_on_c, 2, 57, 92
8, 148904, Note_on_c, 2, 57, 0
8, 148920, Note_on_c, 2, 57, 92
8, 149024, Note_on_c, 2, 57, 0
8, 149040, Note_on_c, 2, 69, 92
8, 149040, Note_on_c, 2, 81, 92
8, 149204, Note_on_c, 2, 69, 0
8, 149204, Note_on_c, 2, 81, 0
8, 149220, Note_on_c, 2, 57, 92
8, 149220, Note_on_c, 2, 69, 92
8, 149264, Note_on_c, 2, 57, 0
8, 149264, Note_on_c, 2, 69, 0
8, 149280, Note_on_c, 2, 57, 92
8, 149280, Note_on_c, 2, 69, 92
8, 149384, Note_on_c, 2, 57, 0
8, 149384, Note_on_c, 2, 69, 0
8, 149400, Note_on_c, 2, 74, 92
8, 149400, Note_on_c, 2, 62, 92
8, 149489, Note_on_c, 2, 74, 0
8, 149489, Note_on_c, 2, 62, 0
8, 149520, Note_on_c, 2, 76, 92
8, 149520, Note_on_c, 2, 64, 92
8, 149609, Note_on_c, 2, 76, 0
8, 149609, Note_on_c, 2, 64, 0
8, 149640, Note_on_c, 2, 77, 92
8, 149640, Note_on_c, 2, 65, 92
8, 149729, Note_on_c, 2, 77, 0
8, 149729, Note_on_c, 2, 65, 0
8, 149760, Note_on_c, 2, 64, 92
8, 149760, Note_on_c, 2, 76, 92
8, 149849, Note_on_c, 2, 64, 0
8, 149849, Note_on_c, 2, 76, 0
8, 149880, Note_on_c, 2, 65, 92
8, 149880, Note_on_c, 2, 77, 92
8, 149969, Note_on_c, 2, 65, 0
8, 149969, Note_on_c, 2, 77, 0
8, 150000, Note_on_c, 2, 67, 92
8, 150000, Note_on_c, 2, 79, 92
8, 150089, Note_on_c, 2, 67, 0
8, 150089, Note_on_c, 2, 79, 0
8, 150120, Note_on_c, 2, 77, 92
8, 150120, Note_on_c, 2, 65, 92
8, 150209, Note_on_c, 2, 77, 0
8, 150209, Note_on_c, 2, 65, 0
8, 150240, Note_on_c, 2, 64, 92
8, 150240, Note_on_c, 2, 76, 92
8, 150329, Note_on_c, 2, 64, 0
8, 150329, Note_on_c, 2, 76, 0
8, 150360, Note_on_c, 2, 74, 92
8, 150360, Note_on_c, 2, 62, 92
8, 150449, Note_on_c, 2, 74, 0
8, 150449, Note_on_c, 2, 62, 0
8, 150480, Note_on_c, 2, 82, 92
8, 150480, Note_on_c, 2, 70, 92
8, 150569, Note_on_c, 2, 82, 0
8, 150569, Note_on_c, 2, 70, 0
8, 150600, Note_on_c, 2, 81, 92
8, 150600, Note_on_c, 2, 69, 92
8, 150689, Note_on_c, 2, 81, 0
8, 150689, Note_on_c, 2, 69, 0
8, 150720, Note_on_c, 2, 79, 92
8, 150720, Note_on_c, 2, 67, 92
8, 150809, Note_on_c, 2, 79, 0
8, 150809, Note_on_c, 2, 67, 0
8, 150840, Note_on_c, 2, 77, 92
8, 150840, Note_on_c, 2, 65, 92
8, 150929, Note_on_c, 2, 77, 0
8, 150929, Note_on_c, 2, 65, 0
8, 150960, Note_on_c, 2, 76, 92
8, 150960, Note_on_c, 2, 64, 92
8, 151049, Note_on_c, 2, 76, 0
8, 151049, Note_on_c, 2, 64, 0
8, 151080, Note_on_c, 2, 62, 92
8, 151080, Note_on_c, 2, 74, 92
8, 151169, Note_on_c, 2, 62, 0
8, 151169, Note_on_c, 2, 74, 0
8, 151200, Note_on_c, 2, 61, 92
8, 151200, Note_on_c, 2, 73, 92
8, 151289, Note_on_c, 2, 61, 0
8, 151289, Note_on_c, 2, 73, 0
8, 151320, Note_on_c, 2, 74, 92
8, 151320, Note_on_c, 2, 62, 92
8, 151409, Note_on_c, 2, 74, 0
8, 151409, Note_on_c, 2, 62, 0
8, 151440, Note_on_c, 2, 64, 92
8, 151440, Note_on_c, 2, 76, 92
8, 151529, Note_on_c, 2, 64, 0
8, 151529, Note_on_c, 2, 76, 0
8, 151560, Note_on_c, 2, 62, 92
8, 151560, Note_on_c, 2, 74, 92
8, 151649, Note_on_c, 2, 62, 0
8, 151649, Note_on_c, 2, 74, 0
8, 151680, Note_on_c, 2, 61, 92
8, 151680, Note_on_c, 2, 73, 92
8, 151769, Note_on_c, 2, 61, 0
8, 151769, Note_on_c, 2, 73, 0
8, 151800, Note_on_c, 2, 62, 92
8, 151800, Note_on_c, 2, 74, 92
8, 151889, Note_on_c, 2, 62, 0
8, 151889, Note_on_c, 2, 74, 0
8, 151920, Note_on_c, 2, 70, 92
8, 151920, Note_on_c, 2, 82, 92
8, 152009, Note_on_c, 2, 70, 0
8, 152009, Note_on_c, 2, 82, 0
8, 152040, Note_on_c, 2, 69, 92
8, 152040, Note_on_c, 2, 81, 92
8, 152129, Note_on_c, 2, 69, 0
8, 152129, Note_on_c, 2, 81, 0
8, 152160, Note_on_c, 2, 79, 92
8, 152160, Note_on_c, 2, 67, 92
8, 152249, Note_on_c, 2, 79, 0
8, 152249, Note_on_c, 2, 67, 0
8, 152280, Note_on_c, 2, 65, 92
8, 152280, Note_on_c, 2, 77, 92
8, 152369, Note_on_c, 2, 65, 0
8, 152369, Note_on_c, 2, 77, 0
8, 152400, Note_on_c, 2, 76, 92
8, 152400, Note_on_c, 2, 64, 92
8, 152489, Note_on_c, 2, 76, 0
8, 152489, Note_on_c, 2, 64, 0
8, 152520, Note_on_c, 2, 62, 92
8, 152520, Note_on_c, 2, 74, 92
8, 152609, Note_on_c, 2, 62, 0
8, 152609, Note_on_c, 2, 74, 0
8, 152640, Note_on_c, 2, 73, 92
8, 152640, Note_on_c, 2, 61, 92
8, 152729, Note_on_c, 2, 73, 0
8, 152729, Note_on_c, 2, 61, 0
8, 152760, Note_on_c, 2, 74, 92
8, 152760, Note_on_c, 2, 62, 92
8, 152849, Note_on_c, 2, 74, 0
8, 152849, Note_on_c, 2, 62, 0
8, 152880, Note_on_c, 2, 76, 92
8, 152880, Note_on_c, 2, 64, 92
8, 152969, Note_on_c, 2, 76, 0
8, 152969, Note_on_c, 2, 64, 0
8, 153000, Note_on_c, 2, 74, 92
8, 153000, Note_on_c, 2, 62, 92
8, 153089, Note_on_c, 2, 74, 0
8, 153089, Note_on_c, 2, 62, 0
8, 153120, Note_on_c, 2, 61, 92
8, 153120, Note_on_c, 2, 73, 92
8, 153209, Note_on_c, 2, 61, 0
8, 153209, Note_on_c, 2, 73, 0
8, 153240, Note_on_c, 2, 62, 92
8, 153240, Note_on_c, 2, 74, 92
8, 153329, Note_on_c, 2, 62, 0
8, 153329, Note_on_c, 2, 74, 0
8, 153360, Note_on_c, 2, 60, 92
8, 153360, Note_on_c, 2, 72, 92
8, 153449, Note_on_c, 2, 60, 0
8, 153449, Note_on_c, 2, 72, 0
8, 153480, Note_on_c, 2, 74, 92
8, 153480, Note_on_c, 2, 62, 92
8, 153569, Note_on_c, 2, 74, 0
8, 153569, Note_on_c, 2, 62, 0
8, 153600, Note_on_c, 2, 63, 92
8, 153600, Note_on_c, 2, 75, 92
8, 153689, Note_on_c, 2, 63, 0
8, 153689, Note_on_c, 2, 75, 0
8, 153720, Note_on_c, 2, 79, 92
8, 153720, Note_on_c, 2, 67, 92
8, 153809, Note_on_c, 2, 79, 0
8, 153809, Note_on_c, 2, 67, 0
8, 153840, Note_on_c, 2, 69, 92
8, 153840, Note_on_c, 2, 81, 92
8, 153929, Note_on_c, 2, 69, 0
8, 153929, Note_on_c, 2, 81, 0
8, 153960, Note_on_c, 2, 82, 92
8, 153960, Note_on_c, 2, 70, 92
8, 154049, Note_on_c, 2, 82, 0
8, 154049, Note_on_c, 2, 70, 0
8, 154080, Note_on_c, 2, 81, 92
8, 154080, Note_on_c, 2, 69, 92
8, 154169, Note_on_c, 2, 81, 0
8, 154169, Note_on_c, 2, 69, 0
8, 154200, Note_on_c, 2, 70, 92
8, 154200, Note_on_c, 2, 82, 92
8, 154289, Note_on_c, 2, 70, 0
8, 154289, Note_on_c, 2, 82, 0
8, 154320, Note_on_c, 2, 84, 92
8, 154320, Note_on_c, 2, 72, 92
8, 154409, Note_on_c, 2, 84, 0
8, 154409, Note_on_c, 2, 72, 0
8, 154440, Note_on_c, 2, 82, 92
8, 154440, Note_on_c, 2, 70, 92
8, 154529, Note_on_c, 2, 82, 0
8, 154529, Note_on_c, 2, 70, 0
8, 154560, Note_on_c, 2, 81, 92
8, 154560, Note_on_c, 2, 69, 92
8, 154649, Note_on_c, 2, 81, 0
8, 154649, Note_on_c, 2, 69, 0
8, 154680, Note_on_c, 2, 67, 92
8, 154680, Note_on_c, 2, 79, 92
8, 154769, Note_on_c, 2, 67, 0
8, 154769, Note_on_c, 2, 79, 0
8, 154800, Note_on_c, 2, 75, 80
8, 154800, Note_on_c, 2, 63, 80
8, 154889, Note_on_c, 2, 75, 0
8, 154889, Note_on_c, 2, 63, 0
8, 154920, Note_on_c, 2, 74, 80
8, 154920, Note_on_c, 2, 62, 80
8, 155009, Note_on_c, 2, 74, 0
8, 155009, Note_on_c, 2, 62, 0
8, 155040, Note_on_c, 2, 72, 80
8, 155040, Note_on_c, 2, 60, 80
8, 155129, Note_on_c, 2, 72, 0
8, 155129, Note_on_c, 2, 60, 0
8, 155160, Note_on_c, 2, 58, 80
8, 155160, Note_on_c, 2, 70, 80
8, 155249, Note_on_c, 2, 58, 0
8, 155249, Note_on_c, 2, 70, 0
8, 155280, Note_on_c, 2, 57, 80
8, 155280, Note_on_c, 2, 69, 80
8, 155369, Note_on_c, 2, 57, 0
8, 155369, Note_on_c, 2, 69, 0
8, 155400, Note_on_c, 2, 55, 80
8, 155400, Note_on_c, 2, 67, 80
8, 155489, Note_on_c, 2, 55, 0
8, 155489, Note_on_c, 2, 67, 0
8, 155520, Note_on_c, 2, 77, 80
8, 155520, Note_on_c, 2, 65, 80
8, 155609, Note_on_c, 2, 77, 0
8, 155609, Note_on_c, 2, 65, 0
8, 155640, Note_on_c, 2, 63, 80
8, 155640, Note_on_c, 2, 75, 80
8, 155729, Note_on_c, 2, 63, 0
8, 155729, Note_on_c, 2, 75, 0
8, 155760, Note_on_c, 2, 62, 80
8, 155760, Note_on_c, 2, 74, 80
8, 155849, Note_on_c, 2, 62, 0
8, 155849, Note_on_c, 2, 74, 0
8, 155880, Note_on_c, 2, 72, 80
8, 155880, Note_on_c, 2, 60, 80
8, 155969, Note_on_c, 2, 72, 0
8, 155969, Note_on_c, 2, 60, 0
8, 156000, Note_on_c, 2, 70, 80
8, 156000, Note_on_c, 2, 58, 80
8, 156089, Note_on_c, 2, 70, 0
8, 156089, Note_on_c, 2, 58, 0
8, 156120, Note_on_c, 2, 57, 80
8, 156120, Note_on_c, 2, 69, 80
8, 156209, Note_on_c, 2, 57, 0
8, 156209, Note_on_c, 2, 69, 0
8, 156240, Note_on_c, 2, 57, 80
8, 156329, Note_on_c, 2, 57, 0
8, 156360, Note_on_c, 2, 58, 80
8, 156449, Note_on_c, 2, 58, 0
8, 156480, Note_on_c, 2, 60, 80
8, 156569, Note_on_c, 2, 60, 0
8, 156600, Note_on_c, 2, 62, 80
8, 156689, Note_on_c, 2, 62, 0
8, 156720, Note_on_c, 2, 63, 80
8, 156809, Note_on_c, 2, 63, 0
8, 156840, Note_on_c, 2, 65, 80
8, 156929, Note_on_c, 2, 65, 0
8, 156960, Note_on_c, 2, 67, 80
8, 157049, Note_on_c, 2, 67, 0
8, 157080, Note_on_c, 2, 69, 80
8, 157169, Note_on_c, 2, 69, 0
8, 157200, Note_on_c, 2, 70, 80
8, 157289, Note_on_c, 2, 70, 0
8, 157320, Note_on_c, 2, 72, 80
8, 157409, Note_on_c, 2, 72, 0
8, 157440, Note_on_c, 2, 74, 80
8, 157529, Note_on_c, 2, 74, 0
8, 157560, Note_on_c, 2, 75, 80
8, 157649, Note_on_c, 2, 75, 0
8, 157680, Note_on_c, 2, 77, 80
8, 157799, Note_on_c, 2, 77, 0
8, 158040, Control_c, 2, 11, 87
8, 158400, Note_on_c, 2, 67, 68
8, 158400, Control_c, 2, 11, 87
8, 158436, Control_c, 2, 11, 88
8, 158472, Control_c, 2, 11, 89
8, 158508, Control_c, 2, 11, 90
8, 158544, Control_c, 2, 11, 91
8, 158580, Control_c, 2, 11, 92
8, 158616, Control_c, 2, 11, 93
8, 158652, Control_c, 2, 11, 94
8, 158688, Control_c, 2, 11, 95
8, 158724, Control_c, 2, 11, 96
8, 158760, Control_c, 2, 11, 97
8, 158796, Control_c, 2, 11, 98
8, 158832, Control_c, 2, 11, 99
8, 158868, Control_c, 2, 11, 100
8, 158904, Control_c, 2, 11, 101
8, 158940, Control_c, 2, 11, 102
8, 158976, Control_c, 2, 11, 103
8, 159012, Control_c, 2, 11, 104
8, 159048, Control_c, 2, 11, 105
8, 159084, Control_c, 2, 11, 106
8, 159119, Note_on_c, 2, 67, 0
8, 159120, Note_on_c, 2, 69, 68
8, 159120, Control_c, 2, 11, 107
8, 159156, Control_c, 2, 11, 108
8, 159192, Control_c, 2, 11, 109
8, 159228, Control_c, 2, 11, 110
8, 159264, Control_c, 2, 11, 111
8, 159300, Control_c, 2, 11, 112
8, 159336, Control_c, 2, 11, 113
8, 159372, Control_c, 2, 11, 114
8, 159408, Control_c, 2, 11, 115
8, 159444, Control_c, 2, 11, 116
8, 159479, Note_on_c, 2, 69, 0
8, 159480, Note_on_c, 2, 70, 68
8, 159480, Control_c, 2, 11, 117
8, 159516, Control_c, 2, 11, 118
8, 159552, Control_c, 2, 11, 119
8, 159588, Control_c, 2, 11, 120
8, 159624, Control_c, 2, 11, 121
8, 159660, Control_c, 2, 11, 122
8, 159696, Control_c, 2, 11, 123
8, 159732, Control_c, 2, 11, 124
8, 159768, Control_c, 2, 11, 125
8, 159804, Control_c, 2, 11, 126
8, 159840, Control_c, 2, 11, 127
8, 159870, Control_c, 2, 11, 125
8, 159900, Control_c, 2, 11, 124
8, 159930, Control_c, 2, 11, 122
8, 159960, Control_c, 2, 11, 120
8, 159990, Control_c, 2, 11, 119
8, 160020, Control_c, 2, 11, 117
8, 160050, Control_c, 2, 11, 115
8, 160080, Control_c, 2, 11, 114
8, 160110, Control_c, 2, 11, 112
8, 160140, Control_c, 2, 11, 110
8, 160170, Control_c, 2, 11, 109
8, 160199, Note_on_c, 2, 70, 0
8, 160200, Note_on_c, 2, 69, 68
8, 160200, Control_c, 2, 11, 107
8, 160230, Control_c, 2, 11, 105
8, 160260, Control_c, 2, 11, 104
8, 160290, Control_c, 2, 11, 102
8, 160320, Control_c, 2, 11, 100
8, 160350, Control_c, 2, 11, 99
8, 160380, Control_c, 2, 11, 97
8, 160410, Control_c, 2, 11, 95
8, 160440, Control_c, 2, 11, 94
8, 160470, Control_c, 2, 11, 92
8, 160500, Control_c, 2, 11, 90
8, 160530, Control_c, 2, 11, 87
8, 160544, Note_on_c, 2, 69, 0
8, 160560, Note_on_c, 2, 70, 68
8, 161279, Note_on_c, 2, 70, 0
8, 161280, Note_on_c, 2, 69, 68
8, 161640, Control_c, 2, 11, 87
8, 161676, Control_c, 2, 11, 88
8, 161712, Control_c, 2, 11, 89
8, 161748, Control_c, 2, 11, 90
8, 161784, Control_c, 2, 11, 91
8, 161820, Control_c, 2, 11, 92
8, 161856, Control_c, 2, 11, 93
8, 161892, Control_c, 2, 11, 94
8, 161928, Control_c, 2, 11, 95
8, 161964, Control_c, 2, 11, 96
8, 162000, Note_on_c, 2, 71, 68
8, 162000, Control_c, 2, 11, 97
8, 162036, Control_c, 2, 11, 98
8, 162072, Control_c, 2, 11, 99
8, 162108, Control_c, 2, 11, 100
8, 162144, Control_c, 2, 11, 101
8, 162180, Control_c, 2, 11, 102
8, 162216, Control_c, 2, 11, 103
8, 162252, Control_c, 2, 11, 104
8, 162288, Control_c, 2, 11, 105
8, 162324, Control_c, 2, 11, 106
8, 162359, Note_on_c, 2, 69, 0
8, 162360, Note_on_c, 2, 67, 68
8, 162360, Control_c, 2, 11, 107
8, 162396, Control_c, 2, 11, 108
8, 162432, Control_c, 2, 11, 109
8, 162468, Control_c, 2, 11, 110
8, 162504, Control_c, 2, 11, 111
8, 162540, Control_c, 2, 11, 112
8, 162576, Control_c, 2, 11, 113
8, 162612, Control_c, 2, 11, 114
8, 162648, Control_c, 2, 11, 115
8, 162684, Control_c, 2, 11, 116
8, 162719, Note_on_c, 2, 71, 0
8, 162720, Note_on_c, 2, 70, 68
8, 162720, Control_c, 2, 11, 117
8, 162756, Control_c, 2, 11, 118
8, 162792, Control_c, 2, 11, 119
8, 162828, Control_c, 2, 11, 120
8, 162864, Control_c, 2, 11, 121
8, 162900, Control_c, 2, 11, 122
8, 162936, Control_c, 2, 11, 123
8, 162972, Control_c, 2, 11, 124
8, 163008, Control_c, 2, 11, 125
8, 163044, Control_c, 2, 11, 126
8, 163079, Note_on_c, 2, 67, 0
8, 163079, Note_on_c, 2, 70, 0
8, 163080, Note_on_c, 2, 69, 68
8, 163080, Control_c, 2, 11, 127
8, 163080, Note_on_c, 2, 66, 68
8, 163110, Control_c, 2, 11, 126
8, 163140, Control_c, 2, 11, 125
8, 163170, Control_c, 2, 11, 124
8, 163200, Control_c, 2, 11, 123
8, 163230, Control_c, 2, 11, 121
8, 163260, Control_c, 2, 11, 120
8, 163290, Control_c, 2, 11, 119
8, 163320, Control_c, 2, 11, 118
8, 163350, Control_c, 2, 11, 117
8, 163380, Control_c, 2, 11, 116
8, 163410, Control_c, 2, 11, 115
8, 163439, Note_on_c, 2, 66, 0
8, 163440, Control_c, 2, 11, 114
8, 163440, Note_on_c, 2, 65, 68
8, 163470, Control_c, 2, 11, 113
8, 163500, Control_c, 2, 11, 111
8, 163530, Control_c, 2, 11, 110
8, 163560, Control_c, 2, 11, 109
8, 163590, Control_c, 2, 11, 108
8, 163620, Control_c, 2, 11, 107
8, 163650, Control_c, 2, 11, 106
8, 163680, Control_c, 2, 11, 105
8, 163710, Control_c, 2, 11, 104
8, 163740, Control_c, 2, 11, 103
8, 163770, Control_c, 2, 11, 101
8, 163799, Note_on_c, 2, 65, 0
8, 163800, Control_c, 2, 11, 100
8, 163800, Note_on_c, 2, 64, 68
8, 163830, Control_c, 2, 11, 99
8, 163860, Control_c, 2, 11, 98
8, 163890, Control_c, 2, 11, 97
8, 163920, Control_c, 2, 11, 96
8, 163950, Control_c, 2, 11, 95
8, 163980, Control_c, 2, 11, 94
8, 164010, Control_c, 2, 11, 93
8, 164040, Control_c, 2, 11, 91
8, 164070, Control_c, 2, 11, 90
8, 164100, Control_c, 2, 11, 89
8, 164130, Control_c, 2, 11, 87
8, 164159, Note_on_c, 2, 69, 0
8, 164159, Note_on_c, 2, 64, 0
8, 166680, Control_c, 2, 11, 47
8, 167040, Note_on_c, 2, 81, 92
8, 167040, Note_on_c, 2, 69, 92
8, 167076, Control_c, 2, 11, 48
8, 167112, Control_c, 2, 11, 49
8, 167148, Control_c, 2, 11, 50
8, 167184, Control_c, 2, 11, 51
8, 167220, Control_c, 2, 11, 52
8, 167256, Control_c, 2, 11, 53
8, 167292, Control_c, 2, 11, 54
8, 167328, Control_c, 2, 11, 55
8, 167364, Control_c, 2, 11, 56
8, 167399, Note_on_c, 2, 81, 0
8, 167399, Note_on_c, 2, 69, 0
8, 167400, Note_on_c, 2, 71, 92
8, 167400, Control_c, 2, 11, 57
8, 167400, Note_on_c, 2, 83, 92
8, 167436, Control_c, 2, 11, 58
8, 167472, Control_c, 2, 11, 59
8, 167508, Control_c, 2, 11, 60
8, 167544, Control_c, 2, 11, 61
8, 167580, Control_c, 2, 11, 62
8, 167616, Control_c, 2, 11, 63
8, 167652, Control_c, 2, 11, 64
8, 167688, Control_c, 2, 11, 65
8, 167724, Control_c, 2, 11, 66
8, 167760, Control_c, 2, 11, 67
8, 167796, Control_c, 2, 11, 68
8, 167832, Control_c, 2, 11, 69
8, 167868, Control_c, 2, 11, 70
8, 167904, Control_c, 2, 11, 71
8, 167940, Control_c, 2, 11, 72
8, 167976, Control_c, 2, 11, 73
8, 168012, Control_c, 2, 11, 74
8, 168048, Control_c, 2, 11, 75
8, 168084, Control_c, 2, 11, 76
8, 168120, Control_c, 2, 11, 77
8, 168156, Control_c, 2, 11, 78
8, 168192, Control_c, 2, 11, 79
8, 168228, Control_c, 2, 11, 80
8, 168264, Control_c, 2, 11, 81
8, 168300, Control_c, 2, 11, 82
8, 168336, Control_c, 2, 11, 83
8, 168372, Control_c, 2, 11, 84
8, 168408, Control_c, 2, 11, 85
8, 168444, Control_c, 2, 11, 86
8, 168479, Note_on_c, 2, 71, 0
8, 168479, Note_on_c, 2, 83, 0
8, 168480, Note_on_c, 2, 81, 92
8, 168480, Control_c, 2, 11, 87
8, 168480, Note_on_c, 2, 69, 92
8, 168516, Control_c, 2, 11, 88
8, 168552, Control_c, 2, 11, 89
8, 168588, Control_c, 2, 11, 90
8, 168624, Control_c, 2, 11, 91
8, 168660, Control_c, 2, 11, 92
8, 168696, Control_c, 2, 11, 93
8, 168732, Control_c, 2, 11, 94
8, 168768, Control_c, 2, 11, 95
8, 168804, Control_c, 2, 11, 96
8, 168840, Control_c, 2, 11, 97
8, 168876, Control_c, 2, 11, 98
8, 168912, Control_c, 2, 11, 99
8, 168948, Control_c, 2, 11, 100
8, 168984, Control_c, 2, 11, 101
8, 169020, Control_c, 2, 11, 102
8, 169056, Control_c, 2, 11, 103
8, 169092, Control_c, 2, 11, 104
8, 169128, Control_c, 2, 11, 105
8, 169164, Control_c, 2, 11, 106
8, 169200, Control_c, 2, 11, 107
8, 169236, Control_c, 2, 11, 108
8, 169272, Control_c, 2, 11, 109
8, 169308, Control_c, 2, 11, 110
8, 169344, Control_c, 2, 11, 111
8, 169380, Control_c, 2, 11, 112
8, 169416, Control_c, 2, 11, 113
8, 169452, Control_c, 2, 11, 114
8, 169488, Control_c, 2, 11, 115
8, 169524, Control_c, 2, 11, 116
8, 169559, Note_on_c, 2, 81, 0
8, 169559, Note_on_c, 2, 69, 0
8, 169560, Note_on_c, 2, 67, 92
8, 169560, Note_on_c, 2, 79, 92
8, 169560, Control_c, 2, 11, 117
8, 169596, Control_c, 2, 11, 118
8, 169632, Control_c, 2, 11, 119
8, 169668, Control_c, 2, 11, 120
8, 169704, Control_c, 2, 11, 121
8, 169740, Control_c, 2, 11, 122
8, 169776, Control_c, 2, 11, 123
8, 169812, Control_c, 2, 11, 124
8, 169848, Control_c, 2, 11, 125
8, 169884, Control_c, 2, 11, 127
8, 169904, Note_on_c, 2, 67, 0
8, 169904, Note_on_c, 2, 79, 0
8, 169920, Note_on_c, 2, 66, 92
8, 169920, Note_on_c, 2, 78, 92
8, 170024, Note_on_c, 2, 66, 0
8, 170024, Note_on_c, 2, 78, 0
8, 170040, Note_on_c, 2, 62, 92
8, 170159, Note_on_c, 2, 62, 0
8, 170160, Note_on_c, 2, 64, 92
8, 170219, Note_on_c, 2, 64, 0
8, 170220, Note_on_c, 2, 66, 92
8, 170264, Note_on_c, 2, 66, 0
8, 170280, Note_on_c, 2, 67, 92
8, 170369, Note_on_c, 2, 67, 0
8, 170520, Note_on_c, 2, 66, 92
8, 170609, Note_on_c, 2, 66, 0
8, 170640, Note_on_c, 2, 64, 92
8, 170729, Note_on_c, 2, 64, 0
8, 170880, Note_on_c, 2, 62, 92
8, 170969, Note_on_c, 2, 62, 0
8, 171000, Note_on_c, 2, 64, 92
8, 171089, Note_on_c, 2, 64, 0
8, 171240, Note_on_c, 2, 61, 92
8, 171329, Note_on_c, 2, 61, 0
8, 171360, Note_on_c, 2, 62, 92
8, 171360, Note_on_c, 2, 66, 92
8, 171599, Note_on_c, 2, 62, 0
8, 171599, Note_on_c, 2, 66, 0
8, 171600, Note_on_c, 2, 67, 92
8, 171600, Note_on_c, 2, 64, 92
8, 171659, Note_on_c, 2, 67, 0
8, 171659, Note_on_c, 2, 64, 0
8, 171660, Note_on_c, 2, 66, 92
8, 171660, Note_on_c, 2, 69, 92
8, 171704, Note_on_c, 2, 66, 0
8, 171704, Note_on_c, 2, 69, 0
8, 171720, Note_on_c, 2, 71, 92
8, 171720, Note_on_c, 2, 67, 92
8, 171809, Note_on_c, 2, 71, 0
8, 171809, Note_on_c, 2, 67, 0
8, 171960, Note_on_c, 2, 69, 92
8, 171960, Note_on_c, 2, 66, 92
8, 172049, Note_on_c, 2, 69, 0
8, 172049, Note_on_c, 2, 66, 0
8, 172080, Note_on_c, 2, 64, 92
8, 172080, Note_on_c, 2, 67, 92
8, 172169, Note_on_c, 2, 64, 0
8, 172169, Note_on_c, 2, 67, 0
8, 172320, Note_on_c, 2, 62, 92
8, 172320, Note_on_c, 2, 66, 92
8, 172409, Note_on_c, 2, 62, 0
8, 172409, Note_on_c, 2, 66, 0
8, 172440, Note_on_c, 2, 64, 92
8, 172440, Note_on_c, 2, 67, 92
8, 172529, Note_on_c, 2, 64, 0
8, 172529, Note_on_c, 2, 67, 0
8, 172680, Note_on_c, 2, 61, 92
8, 172680, Note_on_c, 2, 64, 92
8, 172769, Note_on_c, 2, 61, 0
8, 172769, Note_on_c, 2, 64, 0
8, 172800, Note_on_c, 2, 62, 92
8, 172889, Note_on_c, 2, 62, 0
8, 172920, Note_on_c, 2, 62, 92
8, 172920, Note_on_c, 2, 74, 92
8, 173039, Note_on_c, 2, 62, 0
8, 173039, Note_on_c, 2, 74, 0
8, 173040, Note_on_c, 2, 64, 92
8, 173040, Note_on_c, 2, 76, 92
8, 173099, Note_on_c, 2, 64, 0
8, 173099, Note_on_c, 2, 76, 0
8, 173100, Note_on_c, 2, 65, 92
8, 173100, Note_on_c, 2, 77, 92
8, 173144, Note_on_c, 2, 65, 0
8, 173144, Note_on_c, 2, 77, 0
8, 173160, Note_on_c, 2, 79, 92
8, 173160, Note_on_c, 2, 67, 92
8, 173249, Note_on_c, 2, 79, 0
8, 173249, Note_on_c, 2, 67, 0
8, 173280, Note_on_c, 2, 79, 92
8, 173280, Note_on_c, 2, 67, 92
8, 173369, Note_on_c, 2, 79, 0
8, 173369, Note_on_c, 2, 67, 0
8, 173400, Note_on_c, 2, 65, 92
8, 173400, Note_on_c, 2, 77, 92
8, 173489, Note_on_c, 2, 65, 0
8, 173489, Note_on_c, 2, 77, 0
8, 173520, Note_on_c, 2, 76, 92
8, 173520, Note_on_c, 2, 64, 92
8, 173609, Note_on_c, 2, 76, 0
8, 173609, Note_on_c, 2, 64, 0
8, 173640, Note_on_c, 2, 76, 92
8, 173640, Note_on_c, 2, 64, 92
8, 173729, Note_on_c, 2, 76, 0
8, 173729, Note_on_c, 2, 64, 0
8, 173760, Note_on_c, 2, 62, 92
8, 173760, Note_on_c, 2, 74, 92
8, 173849, Note_on_c, 2, 62, 0
8, 173849, Note_on_c, 2, 74, 0
8, 173880, Note_on_c, 2, 76, 92
8, 173880, Note_on_c, 2, 64, 92
8, 173969, Note_on_c, 2, 76, 0
8, 173969, Note_on_c, 2, 64, 0
8, 174000, Note_on_c, 2, 76, 92
8, 174000, Note_on_c, 2, 64, 92
8, 174089, Note_on_c, 2, 76, 0
8, 174089, Note_on_c, 2, 64, 0
8, 174120, Note_on_c, 2, 73, 92
8, 174120, Note_on_c, 2, 61, 92
8, 174209, Note_on_c, 2, 73, 0
8, 174209, Note_on_c, 2, 61, 0
8, 174240, Note_on_c, 2, 65, 92
8, 174240, Note_on_c, 2, 77, 92
8, 174329, Note_on_c, 2, 65, 0
8, 174329, Note_on_c, 2, 77, 0
8, 174360, Note_on_c, 2, 65, 92
8, 174360, Note_on_c, 2, 62, 92
8, 174479, Note_on_c, 2, 65, 0
8, 174479, Note_on_c, 2, 62, 0
8, 174480, Note_on_c, 2, 64, 92
8, 174480, Note_on_c, 2, 67, 92
8, 174539, Note_on_c, 2, 64, 0
8, 174539, Note_on_c, 2, 67, 0
8, 174540, Note_on_c, 2, 65, 92
8, 174540, Note_on_c, 2, 69, 92
8, 174584, Note_on_c, 2, 65, 0
8, 174584, Note_on_c, 2, 69, 0
8, 174600, Note_on_c, 2, 67, 92
8, 174600, Note_on_c, 2, 70, 92
8, 174689, Note_on_c, 2, 67, 0
8, 174689, Note_on_c, 2, 70, 0
8, 174720, Note_on_c, 2, 70, 92
8, 174720, Note_on_c, 2, 67, 92
8, 174809, Note_on_c, 2, 70, 0
8, 174809, Note_on_c, 2, 67, 0
8, 174840, Note_on_c, 2, 65, 92
8, 174840, Note_on_c, 2, 69, 92
8, 174929, Note_on_c, 2, 65, 0
8, 174929, Note_on_c, 2, 69, 0
8, 174960, Note_on_c, 2, 67, 92
8, 174960, Note_on_c, 2, 64, 92
8, 175049, Note_on_c, 2, 67, 0
8, 175049, Note_on_c, 2, 64, 0
8, 175080, Note_on_c, 2, 67, 92
8, 175080, Note_on_c, 2, 64, 92
8, 175169, Note_on_c, 2, 67, 0
8, 175169, Note_on_c, 2, 64, 0
8, 175200, Note_on_c, 2, 65, 92
8, 175200, Note_on_c, 2, 62, 92
8, 175289, Note_on_c, 2, 65, 0
8, 175289, Note_on_c, 2, 62, 0
8, 175320, Note_on_c, 2, 64, 92
8, 175320, Note_on_c, 2, 67, 92
8, 175409, Note_on_c, 2, 64, 0
8, 175409, Note_on_c, 2, 67, 0
8, 175440, Note_on_c, 2, 64, 92
8, 175440, Note_on_c, 2, 67, 92
8, 175529, Note_on_c, 2, 64, 0
8, 175529, Note_on_c, 2, 67, 0
8, 175560, Note_on_c, 2, 61, 92
8, 175560, Note_on_c, 2, 64, 92
8, 175649, Note_on_c, 2, 61, 0
8, 175649, Note_on_c, 2, 64, 0
8, 175680, Note_on_c, 2, 65, 92
8, 175680, Note_on_c, 2, 53, 92
8, 175844, Note_on_c, 2, 65, 0
8, 175844, Note_on_c, 2, 53, 0
8, 175860, Note_on_c, 2, 53, 92
8, 175860, Note_on_c, 2, 65, 92
8, 175904, Note_on_c, 2, 53, 0
8, 175904, Note_on_c, 2, 65, 0
8, 175920, Note_on_c, 2, 53, 92
8, 175920, Note_on_c, 2, 65, 92
8, 176024, Note_on_c, 2, 53, 0
8, 176024, Note_on_c, 2, 65, 0
8, 176040, Note_on_c, 2, 53, 92
8, 176040, Note_on_c, 2, 65, 92
8, 176144, Note_on_c, 2, 53, 0
8, 176144, Note_on_c, 2, 65, 0
8, 176160, Note_on_c, 2, 55, 92
8, 176160, Note_on_c, 2, 67, 92
8, 176264, Note_on_c, 2, 55, 0
8, 176264, Note_on_c, 2, 67, 0
8, 176280, Note_on_c, 2, 69, 92
8, 176280, Note_on_c, 2, 57, 92
8, 176384, Note_on_c, 2, 69, 0
8, 176384, Note_on_c, 2, 57, 0
8, 176400, Note_on_c, 2, 58, 92
8, 176400, Note_on_c, 2, 70, 92
8, 176519, Note_on_c, 2, 58, 0
8, 176519, Note_on_c, 2, 70, 0
8, 177120, Note_on_c, 2, 76, 92
8, 177120, Note_on_c, 2, 64, 92
8, 177284, Note_on_c, 2, 76, 0
8, 177284, Note_on_c, 2, 64, 0
8, 177300, Note_on_c, 2, 64, 92
8, 177300, Note_on_c, 2, 52, 92
8, 177344, Note_on_c, 2, 64, 0
8, 177344, Note_on_c, 2, 52, 0
8, 177360, Note_on_c, 2, 52, 92
8, 177360, Note_on_c, 2, 64, 92
8, 177464, Note_on_c, 2, 52, 0
8, 177464, Note_on_c, 2, 64, 0
8, 177480, Note_on_c, 2, 76, 92
8, 177480, Note_on_c, 2, 64, 92
8, 177584, Note_on_c, 2, 76, 0
8, 177584, Note_on_c, 2, 64, 0
8, 177600, Note_on_c, 2, 77, 92
8, 177600, Note_on_c, 2, 65, 92
8, 177704, Note_on_c, 2, 77, 0
8, 177704, Note_on_c, 2, 65, 0
8, 177720, Note_on_c, 2, 79, 92
8, 177720, Note_on_c, 2, 67, 92
8, 177824, Note_on_c, 2, 79, 0
8, 177824, Note_on_c, 2, 67, 0
8, 177840, Note_on_c, 2, 69, 92
8, 177840, Note_on_c, 2, 81, 92
8, 177959, Note_on_c, 2, 69, 0
8, 177959, Note_on_c, 2, 81, 0
8, 178200, Note_on_c, 2, 69, 92
8, 178304, Note_on_c, 2, 69, 0
8, 178320, Note_on_c, 2, 74, 92
8, 178424, Note_on_c, 2, 74, 0
8, 178440, Note_on_c, 2, 76, 92
8, 178544, Note_on_c, 2, 76, 0
8, 178560, Note_on_c, 2, 78, 44
8, 178560, Note_on_c, 2, 74, 44
8, 178679, Note_on_c, 2, 78, 0
8, 178679, Note_on_c, 2, 74, 0
8, 179280, Note_on_c, 2, 62, 44
8, 179280, Note_on_c, 2, 74, 44
8, 179399, Note_on_c, 2, 62, 0
8, 179399, Note_on_c, 2, 74, 0
8, 180360, Control_c, 2, 11, 67
8, 180720, Note_on_c, 2, 67, 80
8, 180720, Note_on_c, 2, 58, 80
8, 180720, Control_c, 2, 11, 67
8, 180750, Control_c, 2, 11, 68
8, 180780, Control_c, 2, 11, 70
8, 180810, Control_c, 2, 11, 71
8, 180839, Note_on_c, 2, 67, 0
8, 180840, Control_c, 2, 11, 72
8, 180840, Note_on_c, 2, 65, 80
8, 180870, Control_c, 2, 11, 73
8, 180900, Control_c, 2, 11, 75
8, 180930, Control_c, 2, 11, 76
8, 180959, Note_on_c, 2, 65, 0
8, 180960, Note_on_c, 2, 63, 80
8, 180960, Control_c, 2, 11, 77
8, 180990, Control_c, 2, 11, 78
8, 181020, Control_c, 2, 11, 80
8, 181050, Control_c, 2, 11, 81
8, 181079, Note_on_c, 2, 63, 0
8, 181080, Note_on_c, 2, 75, 80
8, 181080, Control_c, 2, 11, 82
8, 181110, Control_c, 2, 11, 83
8, 181140, Control_c, 2, 11, 85
8, 181170, Control_c, 2, 11, 86
8, 181199, Note_on_c, 2, 75, 0
8, 181200, Note_on_c, 2, 77, 80
8, 181200, Control_c, 2, 11, 87
8, 181230, Control_c, 2, 11, 88
8, 181260, Control_c, 2, 11, 90
8, 181290, Control_c, 2, 11, 91
8, 181319, Note_on_c, 2, 77, 0
8, 181320, Note_on_c, 2, 79, 80
8, 181320, Control_c, 2, 11, 92
8, 181350, Control_c, 2, 11, 93
8, 181380, Control_c, 2, 11, 95
8, 181410, Control_c, 2, 11, 96
8, 181424, Note_on_c, 2, 58, 0
8, 181424, Note_on_c, 2, 79, 0
8, 181440, Control_c, 2, 11, 97
8, 181440, Note_on_c, 2, 70, 80
8, 181440, Note_on_c, 2, 76, 80
8, 181470, Control_c, 2, 11, 98
8, 181500, Control_c, 2, 11, 100
8, 181530, Control_c, 2, 11, 101
8, 181559, Note_on_c, 2, 70, 0
8, 181559, Note_on_c, 2, 76, 0
8, 181560, Note_on_c, 2, 77, 80
8, 181560, Note_on_c, 2, 69, 80
8, 181560, Control_c, 2, 11, 102
8, 181590, Control_c, 2, 11, 103
8, 181620, Control_c, 2, 11, 105
8, 181650, Control_c, 2, 11, 106
8, 181679, Note_on_c, 2, 77, 0
8, 181679, Note_on_c, 2, 69, 0
8, 181680, Note_on_c, 2, 70, 80
8, 181680, Control_c, 2, 11, 107
8, 181680, Note_on_c, 2, 79, 80
8, 181710, Control_c, 2, 11, 108
8, 181740, Control_c, 2, 11, 110
8, 181770, Control_c, 2, 11, 111
8, 181784, Note_on_c, 2, 70, 0
8, 181784, Note_on_c, 2, 79, 0
8, 181800, Note_on_c, 2, 64, 80
8, 181800, Note_on_c, 2, 67, 80
8, 181800, Control_c, 2, 11, 112
8, 181830, Control_c, 2, 11, 113
8, 181860, Control_c, 2, 11, 115
8, 181890, Control_c, 2, 11, 116
8, 181919, Note_on_c, 2, 64, 0
8, 181919, Note_on_c, 2, 67, 0
8, 181920, Control_c, 2, 11, 117
8, 181920, Note_on_c, 2, 62, 80
8, 181920, Note_on_c, 2, 65, 80
8, 181950, Control_c, 2, 11, 118
8, 181980, Control_c, 2, 11, 120
8, 182010, Control_c, 2, 11, 121
8, 182039, Note_on_c, 2, 62, 0
8, 182039, Note_on_c, 2, 65, 0
8, 182040, Note_on_c, 2, 64, 80
8, 182040, Note_on_c, 2, 61, 80
8, 182040, Control_c, 2, 11, 122
8, 182070, Control_c, 2, 11, 123
8, 182100, Control_c, 2, 11, 125
8, 182130, Control_c, 2, 11, 127
8, 182144, Note_on_c, 2, 64, 0
8, 182144, Note_on_c, 2, 61, 0
8, 182160, Note_on_c, 2, 62, 80
8, 182160, Note_on_c, 2, 57, 80
8, 182249, Note_on_c, 2, 62, 0
8, 182249, Note_on_c, 2, 57, 0
8, 182280, Note_on_c, 2, 62, 80
8, 182280, Note_on_c, 2, 65, 80
8, 182369, Note_on_c, 2, 62, 0
8, 182369, Note_on_c, 2, 65, 0
8, 182400, Note_on_c, 2, 58, 80
8, 182400, Note_on_c, 2, 70, 80
8, 182489, Note_on_c, 2, 58, 0
8, 182489, Note_on_c, 2, 70, 0
8, 182520, Note_on_c, 2, 55, 80
8, 182520, Note_on_c, 2, 67, 80
8, 182609, Note_on_c, 2, 55, 0
8, 182609, Note_on_c, 2, 67, 0
8, 182640, Note_on_c, 2, 64, 80
8, 182640, Note_on_c, 2, 76, 80
8, 182729, Note_on_c, 2, 64, 0
8, 182729, Note_on_c, 2, 76, 0
8, 182760, Note_on_c, 2, 64, 80
8, 182760, Note_on_c, 2, 73, 80
8, 182849, Note_on_c, 2, 64, 0
8, 182849, Note_on_c, 2, 73, 0
8, 182880, Note_on_c, 2, 74, 80
8, 182880, Note_on_c, 2, 65, 80
8, 182999, Note_on_c, 2, 74, 0
8, 182999, Note_on_c, 2, 65, 0
8, 183600, Note_on_c, 2, 69, 80
8, 183600, Note_on_c, 2, 65, 80
8, 183689, Note_on_c, 2, 69, 0
8, 183689, Note_on_c, 2, 65, 0
8, 183720, Note_on_c, 2, 74, 80
8, 183720, Note_on_c, 2, 62, 80
8, 183809, Note_on_c, 2, 74, 0
8, 183809, Note_on_c, 2, 62, 0
8, 183840, Note_on_c, 2, 70, 80
8, 183840, Note_on_c, 2, 58, 80
8, 183929, Note_on_c, 2, 70, 0
8, 183929, Note_on_c, 2, 58, 0
8, 183960, Note_on_c, 2, 55, 80
8, 183960, Note_on_c, 2, 67, 80
8, 184049, Note_on_c, 2, 55, 0
8, 184049, Note_on_c, 2, 67, 0
8, 184080, Note_on_c, 2, 76, 80
8, 184080, Note_on_c, 2, 64, 80
8, 184169, Note_on_c, 2, 76, 0
8, 184169, Note_on_c, 2, 64, 0
8, 184200, Note_on_c, 2, 64, 80
8, 184200, Note_on_c, 2, 73, 80
8, 184289, Note_on_c, 2, 64, 0
8, 184289, Note_on_c, 2, 73, 0
8, 184320, Note_on_c, 2, 74, 80
8, 184320, Note_on_c, 2, 65, 80
8, 184409, Note_on_c, 2, 74, 0
8, 184409, Note_on_c, 2, 65, 0
8, 184440, Note_on_c, 2, 81, 80
8, 184440, Note_on_c, 2, 69, 80
8, 184529, Note_on_c, 2, 81, 0
8, 184529, Note_on_c, 2, 69, 0
8, 184560, Note_on_c, 2, 69, 80
8, 184560, Note_on_c, 2, 81, 80
8, 184649, Note_on_c, 2, 69, 0
8, 184649, Note_on_c, 2, 81, 0
8, 184680, Note_on_c, 2, 81, 80
8, 184680, Note_on_c, 2, 69, 80
8, 184769, Note_on_c, 2, 81, 0
8, 184769, Note_on_c, 2, 69, 0
8, 184800, Note_on_c, 2, 69, 80
8, 184800, Note_on_c, 2, 81, 80
8, 184889, Note_on_c, 2, 69, 0
8, 184889, Note_on_c, 2, 81, 0
8, 184920, Note_on_c, 2, 69, 80
8, 184920, Note_on_c, 2, 81, 80
8, 185009, Note_on_c, 2, 69, 0
8, 185009, Note_on_c, 2, 81, 0
8, 185040, Note_on_c, 2, 74, 80
8, 185040, Note_on_c, 2, 65, 80
8, 185129, Note_on_c, 2, 74, 0
8, 185129, Note_on_c, 2, 65, 0
8, 185160, Note_on_c, 2, 65, 80
8, 185160, Note_on_c, 2, 62, 80
8, 185249, Note_on_c, 2, 65, 0
8, 185249, Note_on_c, 2, 62, 0
8, 185280, Note_on_c, 2, 65, 80
8, 185280, Note_on_c, 2, 69, 80
8, 185369, Note_on_c, 2, 65, 0
8, 185369, Note_on_c, 2, 69, 0
8, 185400, Note_on_c, 2, 67, 80
8, 185400, Note_on_c, 2, 64, 80
8, 185489, Note_on_c, 2, 67, 0
8, 185489, Note_on_c, 2, 64, 0
8, 185520, Note_on_c, 2, 76, 80
8, 185520, Note_on_c, 2, 69, 80
8, 185609, Note_on_c, 2, 76, 0
8, 185609, Note_on_c, 2, 69, 0
8, 185640, Note_on_c, 2, 76, 80
8, 185640, Note_on_c, 2, 81, 80
8, 185729, Note_on_c, 2, 76, 0
8, 185729, Note_on_c, 2, 81, 0
8, 185760, Note_on_c, 2, 77, 80
8, 185760, Note_on_c, 2, 74, 80
8, 185849, Note_on_c, 2, 77, 0
8, 185849, Note_on_c, 2, 74, 0
8, 185880, Note_on_c, 2, 65, 80
8, 185880, Note_on_c, 2, 62, 80
8, 185969, Note_on_c, 2, 65, 0
8, 185969, Note_on_c, 2, 62, 0
8, 186000, Note_on_c, 2, 65, 80
8, 186000, Note_on_c, 2, 69, 80
8, 186089, Note_on_c, 2, 65, 0
8, 186089, Note_on_c, 2, 69, 0
8, 186120, Note_on_c, 2, 67, 80
8, 186120, Note_on_c, 2, 64, 80
8, 186209, Note_on_c, 2, 67, 0
8, 186209, Note_on_c, 2, 64, 0
8, 186240, Note_on_c, 2, 69, 80
8, 186240, Note_on_c, 2, 76, 80
8, 186329, Note_on_c, 2, 69, 0
8, 186329, Note_on_c, 2, 76, 0
8, 186360, Note_on_c, 2, 76, 80
8, 186360, Note_on_c, 2, 81, 80
8, 186449, Note_on_c, 2, 76, 0
8, 186449, Note_on_c, 2, 81, 0
8, 186840, Note_on_c, 2, 67, 32
8, 186959, Note_on_c, 2, 67, 0
8, 186960, Note_on_c, 2, 73, 32
8, 187079, Note_on_c, 2, 73, 0
8, 187080, Note_on_c, 2, 76, 32
8, 187679, Note_on_c, 2, 76, 0
8, 187680, Note_on_c, 2, 67, 32
8, 187799, Note_on_c, 2, 67, 0
8, 187800, Note_on_c, 2, 64, 32
8, 187904, Note_on_c, 2, 64, 0
8, 187920, Note_on_c, 2, 62, 32
8, 188039, Note_on_c, 2, 62, 0
8, 188280, Note_on_c, 2, 74, 32
8, 188280, Note_on_c, 2, 65, 32
8, 188444, Note_on_c, 2, 74, 0
8, 188444, Note_on_c, 2, 65, 0
8, 188460, Note_on_c, 2, 62, 32
8, 188460, Note_on_c, 2, 65, 32
8, 188504, Note_on_c, 2, 62, 0
8, 188504, Note_on_c, 2, 65, 0
8, 188520, Note_on_c, 2, 62, 32
8, 188520, Note_on_c, 2, 65, 32
8, 188624, Note_on_c, 2, 62, 0
8, 188624, Note_on_c, 2, 65, 0
8, 188640, Note_on_c, 2, 62, 32
8, 188640, Note_on_c, 2, 65, 32
8, 188759, Note_on_c, 2, 62, 0
8, 188759, Note_on_c, 2, 65, 0
8, 189000, Note_on_c, 2, 65, 32
8, 189000, Note_on_c, 2, 62, 32
8, 189164, Note_on_c, 2, 65, 0
8, 189164, Note_on_c, 2, 62, 0
8, 189180, Note_on_c, 2, 65, 32
8, 189180, Note_on_c, 2, 62, 32
8, 189224, Note_on_c, 2, 65, 0
8, 189224, Note_on_c, 2, 62, 0
8, 189240, Note_on_c, 2, 62, 32
8, 189240, Note_on_c, 2, 65, 32
8, 189344, Note_on_c, 2, 62, 0
8, 189344, Note_on_c, 2, 65, 0
8, 189360, Note_on_c, 2, 65, 32
8, 189360, Note_on_c, 2, 62, 32
8, 189479, Note_on_c, 2, 65, 0
8, 189479, Note_on_c, 2, 62, 0
8, 191160, Note_on_c, 2, 65, 32
8, 191160, Note_on_c, 2, 74, 32
8, 191324, Note_on_c, 2, 65, 0
8, 191324, Note_on_c, 2, 74, 0
8, 191340, Note_on_c, 2, 65, 32
8, 191340, Note_on_c, 2, 62, 32
8, 191384, Note_on_c, 2, 65, 0
8, 191384, Note_on_c, 2, 62, 0
8, 191400, Note_on_c, 2, 62, 32
8, 191400, Note_on_c, 2, 65, 32
8, 191504, Note_on_c, 2, 62, 0
8, 191504, Note_on_c, 2, 65, 0
8, 191520, Note_on_c, 2, 65, 32
8, 191520, Note_on_c, 2, 62, 32
8, 191639, Note_on_c, 2, 65, 0
8, 191639, Note_on_c, 2, 62, 0
8, 191880, Note_on_c, 2, 74, 32
8, 191880, Note_on_c, 2, 70, 32
8, 192044, Note_on_c, 2, 74, 0
8, 192044, Note_on_c, 2, 70, 0
8, 192060, Note_on_c, 2, 70, 32
8, 192060, Note_on_c, 2, 65, 32
8, 192104, Note_on_c, 2, 70, 0
8, 192104, Note_on_c, 2, 65, 0
8, 192120, Note_on_c, 2, 65, 32
8, 192120, Note_on_c, 2, 70, 32
8, 192224, Note_on_c, 2, 65, 0
8, 192224, Note_on_c, 2, 70, 0
8, 192240, Note_on_c, 2, 65, 32
8, 192240, Note_on_c, 2, 70, 32
8, 192359, Note_on_c, 2, 65, 0
8, 192359, Note_on_c, 2, 70, 0
8, 192600, Note_on_c, 2, 62, 32
8, 192600, Note_on_c, 2, 58, 32
8, 192764, Note_on_c, 2, 62, 0
8, 192764, Note_on_c, 2, 58, 0
8, 192780, Note_on_c, 2, 70, 32
8, 192780, Note_on_c, 2, 62, 32
8, 192824, Note_on_c, 2, 70, 0
8, 192824, Note_on_c, 2, 62, 0
8, 192840, Note_on_c, 2, 70, 32
8, 192840, Note_on_c, 2, 62, 32
8, 192944, Note_on_c, 2, 70, 0
8, 192944, Note_on_c, 2, 62, 0
8, 192960, Note_on_c, 2, 65, 32
8, 192960, Note_on_c, 2, 70, 32
8, 193079, Note_on_c, 2, 65, 0
8, 193079, Note_on_c, 2, 70, 0
8, 193320, Note_on_c, 2, 70, 32
8, 193320, Note_on_c, 2, 67, 32
8, 193484, Note_on_c, 2, 70, 0
8, 193484, Note_on_c, 2, 67, 0
8, 193500, Note_on_c, 2, 67, 32
8, 193500, Note_on_c, 2, 63, 32
8, 193544, Note_on_c, 2, 67, 0
8, 193544, Note_on_c, 2, 63, 0
8, 193560, Note_on_c, 2, 67, 32
8, 193560, Note_on_c, 2, 63, 32
8, 193664, Note_on_c, 2, 67, 0
8, 193664, Note_on_c, 2, 63, 0
8, 193680, Note_on_c, 2, 67, 32
8, 193680, Note_on_c, 2, 63, 32
8, 193799, Note_on_c, 2, 67, 0
8, 193799, Note_on_c, 2, 63, 0
8, 195480, Note_on_c, 2, 67, 36
8, 195480, Note_on_c, 2, 63, 36
8, 195644, Note_on_c, 2, 67, 0
8, 195644, Note_on_c, 2, 63, 0
8, 195660, Note_on_c, 2, 63, 38
8, 195660, Note_on_c, 2, 67, 38
8, 195704, Note_on_c, 2, 63, 0
8, 195704, Note_on_c, 2, 67, 0
8, 195720, Note_on_c, 2, 67, 38
8, 195720, Note_on_c, 2, 63, 38
8, 195824, Note_on_c, 2, 67, 0
8, 195824, Note_on_c, 2, 63, 0
8, 195840, Note_on_c, 2, 63, 40
8, 195840, Note_on_c, 2, 68, 40
8, 195959, Note_on_c, 2, 63, 0
8, 195959, Note_on_c, 2, 68, 0
8, 196200, Note_on_c, 2, 68, 44
8, 196200, Note_on_c, 2, 65, 44
8, 196364, Note_on_c, 2, 68, 0
8, 196364, Note_on_c, 2, 65, 0
8, 196380, Note_on_c, 2, 68, 46
8, 196380, Note_on_c, 2, 65, 46
8, 196424, Note_on_c, 2, 68, 0
8, 196424, Note_on_c, 2, 65, 0
8, 196440, Note_on_c, 2, 68, 46
8, 196440, Note_on_c, 2, 65, 46
8, 196544, Note_on_c, 2, 68, 0
8, 196544, Note_on_c, 2, 65, 0
8, 196560, Note_on_c, 2, 68, 48
8, 196560, Note_on_c, 2, 65, 48
8, 196679, Note_on_c, 2, 68, 0
8, 196679, Note_on_c, 2, 65, 0
8, 196920, Note_on_c, 2, 65, 52
8, 196920, Note_on_c, 2, 70, 52
8, 197084, Note_on_c, 2, 65, 0
8, 197084, Note_on_c, 2, 70, 0
8, 197100, Note_on_c, 2, 65, 54
8, 197100, Note_on_c, 2, 70, 54
8, 197144, Note_on_c, 2, 65, 0
8, 197144, Note_on_c, 2, 70, 0
8, 197160, Note_on_c, 2, 70, 54
8, 197160, Note_on_c, 2, 65, 54
8, 197264, Note_on_c, 2, 70, 0
8, 197264, Note_on_c, 2, 65, 0
8, 197280, Note_on_c, 2, 70, 56
8, 197280, Note_on_c, 2, 66, 56
8, 197399, Note_on_c, 2, 70, 0
8, 197399, Note_on_c, 2, 66, 0
8, 197640, Note_on_c, 2, 66, 60
8, 197640, Note_on_c, 2, 70, 60
8, 197804, Note_on_c, 2, 66, 0
8, 197804, Note_on_c, 2, 70, 0
8, 197820, Note_on_c, 2, 66, 62
8, 197820, Note_on_c, 2, 70, 62
8, 197864, Note_on_c, 2, 66, 0
8, 197864, Note_on_c, 2, 70, 0
8, 197880, Note_on_c, 2, 70, 62
8, 197880, Note_on_c, 2, 66, 62
8, 197984, Note_on_c, 2, 70, 0
8, 197984, Note_on_c, 2, 66, 0
8, 198000, Note_on_c, 2, 66, 64
8, 198000, Note_on_c, 2, 71, 64
8, 198119, Note_on_c, 2, 66, 0
8, 198119, Note_on_c, 2, 71, 0
8, 198360, Note_on_c, 2, 71, 68
8, 198360, Note_on_c, 2, 68, 68
8, 198524, Note_on_c, 2, 71, 0
8, 198524, Note_on_c, 2, 68, 0
8, 198540, Note_on_c, 2, 68, 70
8, 198540, Note_on_c, 2, 71, 70
8, 198584, Note_on_c, 2, 68, 0
8, 198584, Note_on_c, 2, 71, 0
8, 198600, Note_on_c, 2, 68, 70
8, 198600, Note_on_c, 2, 71, 70
8, 198704, Note_on_c, 2, 68, 0
8, 198704, Note_on_c, 2, 71, 0
8, 198720, Note_on_c, 2, 68, 72
8, 198720, Note_on_c, 2, 71, 72
8, 198839, Note_on_c, 2, 68, 0
8, 198839, Note_on_c, 2, 71, 0
8, 199080, Note_on_c, 2, 73, 76
8, 199080, Note_on_c, 2, 68, 76
8, 199244, Note_on_c, 2, 73, 0
8, 199244, Note_on_c, 2, 68, 0
8, 199260, Note_on_c, 2, 73, 78
8, 199260, Note_on_c, 2, 68, 78
8, 199304, Note_on_c, 2, 73, 0
8, 199304, Note_on_c, 2, 68, 0
8, 199320, Note_on_c, 2, 73, 78
8, 199320, Note_on_c, 2, 68, 78
8, 199424, Note_on_c, 2, 73, 0
8, 199424, Note_on_c, 2, 68, 0
8, 199440, Note_on_c, 2, 69, 80
8, 199440, Note_on_c, 2, 73, 80
8, 199559, Note_on_c, 2, 69, 0
8, 199559, Note_on_c, 2, 73, 0
8, 199800, Note_on_c, 2, 81, 80
8, 199800, Note_on_c, 2, 69, 80
8, 199964, Note_on_c, 2, 81, 0
8, 199964, Note_on_c, 2, 69, 0
8, 199980, Note_on_c, 2, 69, 80
8, 199980, Note_on_c, 2, 57, 80
8, 200024, Note_on_c, 2, 69, 0
8, 200024, Note_on_c, 2, 57, 0
8, 200040, Note_on_c, 2, 69, 80
8, 200040, Note_on_c, 2, 57, 80
8, 200144, Note_on_c, 2, 69, 0
8, 200144, Note_on_c, 2, 57, 0
8, 200520, Note_on_c, 2, 70, 92
8, 200520, Note_on_c, 2, 58, 92
8, 200684, Note_on_c, 2, 70, 0
8, 200684, Note_on_c, 2, 58, 0
8, 200700, Note_on_c, 2, 58, 92
8, 200744, Note_on_c, 2, 58, 0
8, 200760, Note_on_c, 2, 58, 92
8, 200864, Note_on_c, 2, 58, 0
8, 201240, Note_on_c, 2, 59, 92
8, 201240, Note_on_c, 2, 71, 92
8, 201404, Note_on_c, 2, 59, 0
8, 201404, Note_on_c, 2, 71, 0
8, 201420, Note_on_c, 2, 59, 92
8, 201464, Note_on_c, 2, 59, 0
8, 201480, Note_on_c, 2, 59, 92
8, 201929, Note_on_c, 2, 59, 0
8, 203040, Note_on_c, 2, 71, 44
8, 203204, Note_on_c, 2, 71, 0
8, 203220, Note_on_c, 2, 59, 44
8, 203264, Note_on_c, 2, 59, 0
8, 203280, Note_on_c, 2, 59, 44
8, 203384, Note_on_c, 2, 59, 0
8, 203400, Note_on_c, 2, 64, 44
8, 203489, Note_on_c, 2, 64, 0
8, 203520, Note_on_c, 2, 63, 44
8, 203520, Note_on_c, 2, 66, 44
8, 203609, Note_on_c, 2, 63, 0
8, 203609, Note_on_c, 2, 66, 0
8, 203640, Note_on_c, 2, 64, 44
8, 203640, Note_on_c, 2, 67, 44
8, 203729, Note_on_c, 2, 64, 0
8, 203729, Note_on_c, 2, 67, 0
8, 203760, Note_on_c, 2, 66, 44
8, 203760, Note_on_c, 2, 63, 44
8, 203849, Note_on_c, 2, 66, 0
8, 203849, Note_on_c, 2, 63, 0
8, 203880, Note_on_c, 2, 64, 44
8, 203880, Note_on_c, 2, 67, 44
8, 203969, Note_on_c, 2, 64, 0
8, 203969, Note_on_c, 2, 67, 0
8, 204000, Note_on_c, 2, 66, 44
8, 204000, Note_on_c, 2, 69, 44
8, 204089, Note_on_c, 2, 66, 0
8, 204089, Note_on_c, 2, 69, 0
8, 204120, Note_on_c, 2, 64, 44
8, 204120, Note_on_c, 2, 67, 44
8, 204209, Note_on_c, 2, 64, 0
8, 204209, Note_on_c, 2, 67, 0
8, 204240, Note_on_c, 2, 71, 44
8, 204240, Note_on_c, 2, 67, 44
8, 204329, Note_on_c, 2, 71, 0
8, 204329, Note_on_c, 2, 67, 0
8, 204360, Note_on_c, 2, 71, 44
8, 204360, Note_on_c, 2, 67, 44
8, 204449, Note_on_c, 2, 71, 0
8, 204449, Note_on_c, 2, 67, 0
8, 204480, Note_on_c, 2, 71, 44
8, 204480, Note_on_c, 2, 67, 44
8, 204569, Note_on_c, 2, 71, 0
8, 204569, Note_on_c, 2, 67, 0
8, 204600, Note_on_c, 2, 69, 44
8, 204600, Note_on_c, 2, 66, 44
8, 204689, Note_on_c, 2, 69, 0
8, 204689, Note_on_c, 2, 66, 0
8, 204720, Note_on_c, 2, 67, 44
8, 204720, Note_on_c, 2, 64, 44
8, 204809, Note_on_c, 2, 67, 0
8, 204809, Note_on_c, 2, 64, 0
8, 204840, Note_on_c, 2, 69, 44
8, 204840, Note_on_c, 2, 66, 44
8, 204929, Note_on_c, 2, 69, 0
8, 204929, Note_on_c, 2, 66, 0
8, 204960, Note_on_c, 2, 67, 44
8, 204960, Note_on_c, 2, 64, 44
8, 205049, Note_on_c, 2, 67, 0
8, 205049, Note_on_c, 2, 64, 0
8, 205080, Note_on_c, 2, 63, 44
8, 205080, Note_on_c, 2, 66, 44
8, 205169, Note_on_c, 2, 63, 0
8, 205169, Note_on_c, 2, 66, 0
8, 205200, Note_on_c, 2, 64, 44
8, 205200, Note_on_c, 2, 68, 44
8, 205289, Note_on_c, 2, 64, 0
8, 205289, Note_on_c, 2, 68, 0
8, 205320, Note_on_c, 2, 76, 44
8, 205320, Note_on_c, 2, 64, 44
8, 205409, Note_on_c, 2, 76, 0
8, 205409, Note_on_c, 2, 64, 0
8, 205440, Note_on_c, 2, 76, 44
8, 205440, Note_on_c, 2, 64, 44
8, 205529, Note_on_c, 2, 76, 0
8, 205529, Note_on_c, 2, 64, 0
8, 205560, Note_on_c, 2, 76, 44
8, 205560, Note_on_c, 2, 72, 44
8, 205649, Note_on_c, 2, 76, 0
8, 205649, Note_on_c, 2, 72, 0
8, 205680, Note_on_c, 2, 74, 44
8, 205680, Note_on_c, 2, 71, 44
8, 205769, Note_on_c, 2, 74, 0
8, 205769, Note_on_c, 2, 71, 0
8, 205800, Note_on_c, 2, 69, 44
8, 205800, Note_on_c, 2, 72, 44
8, 205889, Note_on_c, 2, 69, 0
8, 205889, Note_on_c, 2, 72, 0
8, 205920, Note_on_c, 2, 71, 44
8, 205920, Note_on_c, 2, 74, 44
8, 206009, Note_on_c, 2, 71, 0
8, 206009, Note_on_c, 2, 74, 0
8, 206040, Note_on_c, 2, 69, 44
8, 206040, Note_on_c, 2, 72, 44
8, 206129, Note_on_c, 2, 69, 0
8, 206129, Note_on_c, 2, 72, 0
8, 206160, Note_on_c, 2, 68, 44
8, 206160, Note_on_c, 2, 71, 44
8, 206249, Note_on_c, 2, 68, 0
8, 206249, Note_on_c, 2, 71, 0
8, 206280, Note_on_c, 2, 76, 44
8, 206444, Note_on_c, 2, 76, 0
8, 206460, Note_on_c, 2, 64, 44
8, 206504, Note_on_c, 2, 64, 0
8, 206520, Note_on_c, 2, 64, 44
8, 206624, Note_on_c, 2, 64, 0
8, 206640, Note_on_c, 2, 64, 44
8, 206640, Note_on_c, 2, 69, 44
8, 206729, Note_on_c, 2, 64, 0
8, 206729, Note_on_c, 2, 69, 0
8, 206760, Note_on_c, 2, 68, 44
8, 206760, Note_on_c, 2, 71, 44
8, 206849, Note_on_c, 2, 68, 0
8, 206849, Note_on_c, 2, 71, 0
8, 206880, Note_on_c, 2, 72, 44
8, 206880, Note_on_c, 2, 69, 44
8, 206969, Note_on_c, 2, 72, 0
8, 206969, Note_on_c, 2, 69, 0
8, 207000, Note_on_c, 2, 71, 44
8, 207000, Note_on_c, 2, 68, 44
8, 207089, Note_on_c, 2, 71, 0
8, 207089, Note_on_c, 2, 68, 0
8, 207120, Note_on_c, 2, 69, 44
8, 207120, Note_on_c, 2, 72, 44
8, 207209, Note_on_c, 2, 69, 0
8, 207209, Note_on_c, 2, 72, 0
8, 207240, Note_on_c, 2, 71, 44
8, 207240, Note_on_c, 2, 74, 44
8, 207329, Note_on_c, 2, 71, 0
8, 207329, Note_on_c, 2, 74, 0
8, 207360, Note_on_c, 2, 72, 44
8, 207360, Note_on_c, 2, 69, 44
8, 207449, Note_on_c, 2, 72, 0
8, 207449, Note_on_c, 2, 69, 0
8, 207480, Note_on_c, 2, 72, 44
8, 207480, Note_on_c, 2, 76, 44
8, 207569, Note_on_c, 2, 72, 0
8, 207569, Note_on_c, 2, 76, 0
8, 207600, Note_on_c, 2, 72, 44
8, 207600, Note_on_c, 2, 76, 44
8, 207689, Note_on_c, 2, 72, 0
8, 207689, Note_on_c, 2, 76, 0
8, 207720, Note_on_c, 2, 72, 44
8, 207720, Note_on_c, 2, 76, 44
8, 207809, Note_on_c, 2, 72, 0
8, 207809, Note_on_c, 2, 76, 0
8, 207840, Note_on_c, 2, 71, 44
8, 207840, Note_on_c, 2, 74, 44
8, 207929, Note_on_c, 2, 71, 0
8, 207929, Note_on_c, 2, 74, 0
8, 207960, Note_on_c, 2, 72, 44
8, 207960, Note_on_c, 2, 69, 44
8, 208049, Note_on_c, 2, 72, 0
8, 208049, Note_on_c, 2, 69, 0
8, 208080, Note_on_c, 2, 74, 44
8, 208080, Note_on_c, 2, 71, 44
8, 208169, Note_on_c, 2, 74, 0
8, 208169, Note_on_c, 2, 71, 0
8, 208200, Note_on_c, 2, 72, 44
8, 208200, Note_on_c, 2, 69, 44
8, 208289, Note_on_c, 2, 72, 0
8, 208289, Note_on_c, 2, 69, 0
8, 208320, Note_on_c, 2, 68, 44
8, 208320, Note_on_c, 2, 71, 44
8, 208409, Note_on_c, 2, 68, 0
8, 208409, Note_on_c, 2, 71, 0
8, 208800, Note_on_c, 2, 69, 44
8, 208800, Note_on_c, 2, 65, 44
8, 208889, Note_on_c, 2, 69, 0
8, 208889, Note_on_c, 2, 65, 0
8, 208920, Note_on_c, 2, 70, 44
8, 208920, Note_on_c, 2, 67, 44
8, 209009, Note_on_c, 2, 70, 0
8, 209009, Note_on_c, 2, 67, 0
8, 209040, Note_on_c, 2, 69, 44
8, 209040, Note_on_c, 2, 72, 44
8, 209129, Note_on_c, 2, 69, 0
8, 209129, Note_on_c, 2, 72, 0
8, 209160, Note_on_c, 2, 67, 44
8, 209160, Note_on_c, 2, 70, 44
8, 209249, Note_on_c, 2, 67, 0
8, 209249, Note_on_c, 2, 70, 0
8, 209280, Note_on_c, 2, 72, 44
8, 209280, Note_on_c, 2, 69, 44
8, 209369, Note_on_c, 2, 72, 0
8, 209369, Note_on_c, 2, 69, 0
8, 209400, Note_on_c, 2, 70, 44
8, 209400, Note_on_c, 2, 74, 44
8, 209489, Note_on_c, 2, 70, 0
8, 209489, Note_on_c, 2, 74, 0
8, 209880, Note_on_c, 2, 72, 44
8, 209880, Note_on_c, 2, 69, 44
8, 209969, Note_on_c, 2, 72, 0
8, 209969, Note_on_c, 2, 69, 0
8, 210000, Note_on_c, 2, 76, 44
8, 210000, Note_on_c, 2, 67, 44
8, 210089, Note_on_c, 2, 76, 0
8, 210089, Note_on_c, 2, 67, 0
8, 210120, Note_on_c, 2, 69, 44
8, 210120, Note_on_c, 2, 77, 44
8, 210209, Note_on_c, 2, 69, 0
8, 210209, Note_on_c, 2, 77, 0
8, 210240, Note_on_c, 2, 67, 44
8, 210240, Note_on_c, 2, 76, 44
8, 210329, Note_on_c, 2, 67, 0
8, 210329, Note_on_c, 2, 76, 0
8, 210360, Note_on_c, 2, 69, 44
8, 210360, Note_on_c, 2, 77, 44
8, 210449, Note_on_c, 2, 69, 0
8, 210449, Note_on_c, 2, 77, 0
8, 210480, Note_on_c, 2, 70, 44
8, 210480, Note_on_c, 2, 79, 44
8, 210569, Note_on_c, 2, 70, 0
8, 210569, Note_on_c, 2, 79, 0
8, 210960, Note_on_c, 2, 72, 44
8, 210960, Note_on_c, 2, 69, 44
8, 211049, Note_on_c, 2, 72, 0
8, 211049, Note_on_c, 2, 69, 0
8, 211080, Note_on_c, 2, 67, 44
8, 211080, Note_on_c, 2, 70, 44
8, 211169, Note_on_c, 2, 67, 0
8, 211169, Note_on_c, 2, 70, 0
8, 211200, Note_on_c, 2, 69, 44
8, 211200, Note_on_c, 2, 65, 44
8, 211289, Note_on_c, 2, 69, 0
8, 211289, Note_on_c, 2, 65, 0
8, 211320, Note_on_c, 2, 74, 44
8, 211320, Note_on_c, 2, 70, 44
8, 211409, Note_on_c, 2, 74, 0
8, 211409, Note_on_c, 2, 70, 0
8, 211440, Note_on_c, 2, 69, 44
8, 211440, Note_on_c, 2, 72, 44
8, 211529, Note_on_c, 2, 69, 0
8, 211529, Note_on_c, 2, 72, 0
8, 211560, Note_on_c, 2, 67, 44
8, 211560, Note_on_c, 2, 70, 44
8, 211649, Note_on_c, 2, 67, 0
8, 211649, Note_on_c, 2, 70, 0
8, 212040, Note_on_c, 2, 65, 44
8, 212040, Note_on_c, 2, 69, 44
8, 212129, Note_on_c, 2, 65, 0
8, 212129, Note_on_c, 2, 69, 0
8, 212160, Note_on_c, 2, 72, 44
8, 212160, Note_on_c, 2, 60, 44
8, 212249, Note_on_c, 2, 72, 0
8, 212249, Note_on_c, 2, 60, 0
8, 212280, Note_on_c, 2, 60, 44
8, 212280, Note_on_c, 2, 72, 44
8, 212369, Note_on_c, 2, 60, 0
8, 212369, Note_on_c, 2, 72, 0
8, 212400, Note_on_c, 2, 60, 44
8, 212400, Note_on_c, 2, 72, 44
8, 212489, Note_on_c, 2, 60, 0
8, 212489, Note_on_c, 2, 72, 0
8, 212520, Note_on_c, 2, 72, 44
8, 212520, Note_on_c, 2, 60, 44
8, 212609, Note_on_c, 2, 72, 0
8, 212609, Note_on_c, 2, 60, 0
8, 212640, Note_on_c, 2, 60, 44
8, 212640, Note_on_c, 2, 72, 44
8, 212729, Note_on_c, 2, 60, 0
8, 212729, Note_on_c, 2, 72, 0
8, 212760, Note_on_c, 2, 77, 44
8, 212760, Note_on_c, 2, 69, 44
8, 212849, Note_on_c, 2, 77, 0
8, 212849, Note_on_c, 2, 69, 0
8, 212880, Note_on_c, 2, 70, 44
8, 212880, Note_on_c, 2, 79, 44
8, 212969, Note_on_c, 2, 70, 0
8, 212969, Note_on_c, 2, 79, 0
8, 213000, Note_on_c, 2, 72, 44
8, 213000, Note_on_c, 2, 81, 44
8, 213089, Note_on_c, 2, 72, 0
8, 213089, Note_on_c, 2, 81, 0
8, 213120, Note_on_c, 2, 81, 44
8, 213120, Note_on_c, 2, 72, 44
8, 213209, Note_on_c, 2, 81, 0
8, 213209, Note_on_c, 2, 72, 0
8, 213240, Note_on_c, 2, 70, 44
8, 213240, Note_on_c, 2, 79, 44
8, 213329, Note_on_c, 2, 70, 0
8, 213329, Note_on_c, 2, 79, 0
8, 213360, Note_on_c, 2, 69, 44
8, 213360, Note_on_c, 2, 77, 44
8, 213449, Note_on_c, 2, 69, 0
8, 213449, Note_on_c, 2, 77, 0
8, 213480, Note_on_c, 2, 77, 43
8, 213480, Note_on_c, 2, 69, 43
8, 213569, Note_on_c, 2, 77, 0
8, 213569, Note_on_c, 2, 69, 0
8, 213600, Note_on_c, 2, 70, 43
8, 213600, Note_on_c, 2, 79, 43
8, 213689, Note_on_c, 2, 70, 0
8, 213689, Note_on_c, 2, 79, 0
8, 213720, Note_on_c, 2, 69, 43
8, 213720, Note_on_c, 2, 77, 43
8, 213809, Note_on_c, 2, 69, 0
8, 213809, Note_on_c, 2, 77, 0
8, 214920, Note_on_c, 2, 74, 39
8, 214920, Note_on_c, 2, 65, 39
8, 215024, Note_on_c, 2, 74, 0
8, 215024, Note_on_c, 2, 65, 0
8, 215040, Note_on_c, 2, 76, 39
8, 215040, Note_on_c, 2, 67, 39
8, 215144, Note_on_c, 2, 76, 0
8, 215144, Note_on_c, 2, 67, 0
8, 215160, Note_on_c, 2, 77, 38
8, 215160, Note_on_c, 2, 69, 38
8, 215264, Note_on_c, 2, 77, 0
8, 215264, Note_on_c, 2, 69, 0
8, 215280, Note_on_c, 2, 69, 38
8, 215280, Note_on_c, 2, 77, 38
8, 215384, Note_on_c, 2, 69, 0
8, 215384, Note_on_c, 2, 77, 0
8, 215400, Note_on_c, 2, 76, 38
8, 215400, Note_on_c, 2, 67, 38
8, 215504, Note_on_c, 2, 76, 0
8, 215504, Note_on_c, 2, 67, 0
8, 215520, Note_on_c, 2, 74, 37
8, 215520, Note_on_c, 2, 65, 37
8, 215624, Note_on_c, 2, 74, 0
8, 215624, Note_on_c, 2, 65, 0
8, 215640, Note_on_c, 2, 74, 37
8, 215640, Note_on_c, 2, 65, 37
8, 215744, Note_on_c, 2, 74, 0
8, 215744, Note_on_c, 2, 65, 0
8, 215760, Note_on_c, 2, 76, 36
8, 215760, Note_on_c, 2, 67, 36
8, 215864, Note_on_c, 2, 76, 0
8, 215864, Note_on_c, 2, 67, 0
8, 215880, Note_on_c, 2, 74, 36
8, 215880, Note_on_c, 2, 65, 36
8, 215984, Note_on_c, 2, 74, 0
8, 215984, Note_on_c, 2, 65, 0
8, 216000, Note_on_c, 2, 57, 36
8, 216000, Note_on_c, 2, 69, 36
8, 216104, Note_on_c, 2, 57, 0
8, 216104, Note_on_c, 2, 69, 0
8, 216120, Note_on_c, 2, 57, 35
8, 216120, Note_on_c, 2, 69, 35
8, 216224, Note_on_c, 2, 57, 0
8, 216224, Note_on_c, 2, 69, 0
8, 216240, Note_on_c, 2, 69, 35
8, 216240, Note_on_c, 2, 57, 35
8, 216344, Note_on_c, 2, 69, 0
8, 216344, Note_on_c, 2, 57, 0
8, 216360, Note_on_c, 2, 69, 35
8, 216360, Note_on_c, 2, 57, 35
8, 216464, Note_on_c, 2, 69, 0
8, 216464, Note_on_c, 2, 57, 0
8, 216480, Note_on_c, 2, 69, 34
8, 216480, Note_on_c, 2, 57, 34
8, 216584, Note_on_c, 2, 69, 0
8, 216584, Note_on_c, 2, 57, 0
8, 216600, Note_on_c, 2, 57, 34
8, 216600, Note_on_c, 2, 69, 34
8, 216704, Note_on_c, 2, 57, 0
8, 216704, Note_on_c, 2, 69, 0
8, 216720, Note_on_c, 2, 57, 34
8, 216720, Note_on_c, 2, 69, 34
8, 216824, Note_on_c, 2, 57, 0
8, 216824, Note_on_c, 2, 69, 0
8, 216840, Note_on_c, 2, 69, 33
8, 216840, Note_on_c, 2, 57, 33
8, 216944, Note_on_c, 2, 69, 0
8, 216944, Note_on_c, 2, 57, 0
8, 216960, Note_on_c, 2, 57, 33
8, 216960, Note_on_c, 2, 69, 33
8, 217064, Note_on_c, 2, 57, 0
8, 217064, Note_on_c, 2, 69, 0
8, 217080, Note_on_c, 2, 57, 32
8, 217080, Note_on_c, 2, 69, 32
8, 217184, Note_on_c, 2, 57, 0
8, 217184, Note_on_c, 2, 69, 0
8, 217200, Note_on_c, 2, 69, 32
8, 217200, Note_on_c, 2, 57, 32
8, 217304, Note_on_c, 2, 69, 0
8, 217304, Note_on_c, 2, 57, 0
8, 217320, Note_on_c, 2, 57, 32
8, 217320, Note_on_c, 2, 69, 32
8, 217424, Note_on_c, 2, 57, 0
8, 217424, Note_on_c, 2, 69, 0
8, 217440, Note_on_c, 2, 57, 32
8, 217440, Note_on_c, 2, 69, 32
8, 217544, Note_on_c, 2, 57, 0
8, 217544, Note_on_c, 2, 69, 0
8, 217560, Note_on_c, 2, 69, 32
8, 217560, Note_on_c, 2, 57, 32
8, 217664, Note_on_c, 2, 69, 0
8, 217664, Note_on_c, 2, 57, 0
8, 217680, Note_on_c, 2, 57, 32
8, 217680, Note_on_c, 2, 69, 32
8, 217784, Note_on_c, 2, 57, 0
8, 217784, Note_on_c, 2, 69, 0
8, 217800, Note_on_c, 2, 57, 32
8, 217800, Note_on_c, 2, 69, 32
8, 217904, Note_on_c, 2, 57, 0
8, 217904, Note_on_c, 2, 69, 0
8, 217920, Note_on_c, 2, 69, 32
8, 217920, Note_on_c, 2, 57, 32
8, 218024, Note_on_c, 2, 69, 0
8, 218024, Note_on_c, 2, 57, 0
8, 218040, Note_on_c, 2, 57, 32
8, 218040, Note_on_c, 2, 69, 32
8, 218144, Note_on_c, 2, 57, 0
8, 218144, Note_on_c, 2, 69, 0
8, 218160, Note_on_c, 2, 69, 32
8, 218160, Note_on_c, 2, 57, 32
8, 218264, Note_on_c, 2, 69, 0
8, 218264, Note_on_c, 2, 57, 0
8, 218280, Note_on_c, 2, 69, 32
8, 218280, Note_on_c, 2, 57, 32
8, 218384, Note_on_c, 2, 69, 0
8, 218384, Note_on_c, 2, 57, 0
8, 218400, Note_on_c, 2, 69, 32
8, 218400, Note_on_c, 2, 57, 32
8, 218504, Note_on_c, 2, 69, 0
8, 218504, Note_on_c, 2, 57, 0
8, 218520, Note_on_c, 2, 69, 32
8, 218520, Note_on_c, 2, 57, 32
8, 218624, Note_on_c, 2, 69, 0
8, 218624, Note_on_c, 2, 57, 0
8, 218640, Note_on_c, 2, 69, 32
8, 218640, Note_on_c, 2, 57, 32
8, 218744, Note_on_c, 2, 69, 0
8, 218744, Note_on_c, 2, 57, 0
8, 218760, Note_on_c, 2, 57, 32
8, 218760, Note_on_c, 2, 69, 32
8, 218864, Note_on_c, 2, 57, 0
8, 218864, Note_on_c, 2, 69, 0
8, 218880, Note_on_c, 2, 69, 32
8, 218880, Note_on_c, 2, 57, 32
8, 218984, Note_on_c, 2, 69, 0
8, 218984, Note_on_c, 2, 57, 0
8, 219000, Note_on_c, 2, 69, 32
8, 219000, Note_on_c, 2, 57, 32
8, 219104, Note_on_c, 2, 69, 0
8, 219104, Note_on_c, 2, 57, 0
8, 219120, Note_on_c, 2, 57, 32
8, 219120, Note_on_c, 2, 69, 32
8, 219224, Note_on_c, 2, 57, 0
8, 219224, Note_on_c, 2, 69, 0
8, 219240, Note_on_c, 2, 69, 32
8, 219404, Note_on_c, 2, 69, 0
8, 219420, Note_on_c, 2, 57, 32
8, 219464, Note_on_c, 2, 57, 0
8, 219480, Note_on_c, 2, 57, 32
8, 219584, Note_on_c, 2, 57, 0
8, 219600, Note_on_c, 2, 62, 32
8, 219704, Note_on_c, 2, 62, 0
8, 219720, Note_on_c, 2, 61, 32
8, 219720, Note_on_c, 2, 64, 32
8, 219824, Note_on_c, 2, 61, 0
8, 219824, Note_on_c, 2, 64, 0
8, 219840, Note_on_c, 2, 65, 32
8, 219840, Note_on_c, 2, 62, 32
8, 219944, Note_on_c, 2, 65, 0
8, 219944, Note_on_c, 2, 62, 0
8, 219960, Note_on_c, 2, 64, 32
8, 219960, Note_on_c, 2, 61, 32
8, 220064, Note_on_c, 2, 64, 0
8, 220064, Note_on_c, 2, 61, 0
8, 220080, Note_on_c, 2, 65, 32
8, 220080, Note_on_c, 2, 62, 32
8, 220184, Note_on_c, 2, 65, 0
8, 220184, Note_on_c, 2, 62, 0
8, 220200, Note_on_c, 2, 67, 32
8, 220200, Note_on_c, 2, 64, 32
8, 220304, Note_on_c, 2, 67, 0
8, 220304, Note_on_c, 2, 64, 0
8, 220320, Note_on_c, 2, 65, 32
8, 220320, Note_on_c, 2, 62, 32
8, 220424, Note_on_c, 2, 65, 0
8, 220424, Note_on_c, 2, 62, 0
8, 220440, Note_on_c, 2, 69, 32
8, 220440, Note_on_c, 2, 65, 32
8, 220544, Note_on_c, 2, 69, 0
8, 220544, Note_on_c, 2, 65, 0
8, 220560, Note_on_c, 2, 69, 32
8, 220560, Note_on_c, 2, 65, 32
8, 220664, Note_on_c, 2, 69, 0
8, 220664, Note_on_c, 2, 65, 0
8, 220680, Note_on_c, 2, 65, 32
8, 220680, Note_on_c, 2, 69, 32
8, 220784, Note_on_c, 2, 65, 0
8, 220784, Note_on_c, 2, 69, 0
8, 220800, Note_on_c, 2, 64, 32
8, 220800, Note_on_c, 2, 67, 32
8, 220904, Note_on_c, 2, 64, 0
8, 220904, Note_on_c, 2, 67, 0
8, 220920, Note_on_c, 2, 65, 32
8, 220920, Note_on_c, 2, 62, 32
8, 221024, Note_on_c, 2, 65, 0
8, 221024, Note_on_c, 2, 62, 0
8, 221040, Note_on_c, 2, 64, 32
8, 221040, Note_on_c, 2, 67, 32
8, 221144, Note_on_c, 2, 64, 0
8, 221144, Note_on_c, 2, 67, 0
8, 221160, Note_on_c, 2, 65, 32
8, 221160, Note_on_c, 2, 62, 32
8, 221264, Note_on_c, 2, 65, 0
8, 221264, Note_on_c, 2, 62, 0
8, 221280, Note_on_c, 2, 61, 32
8, 221280, Note_on_c, 2, 64, 32
8, 221384, Note_on_c, 2, 61, 0
8, 221384, Note_on_c, 2, 64, 0
8, 221400, Note_on_c, 2, 62, 32
8, 221400, Note_on_c, 2, 65, 32
8, 221504, Note_on_c, 2, 62, 0
8, 221504, Note_on_c, 2, 65, 0
8, 221520, Note_on_c, 2, 77, 32
8, 221520, Note_on_c, 2, 69, 32
8, 221624, Note_on_c, 2, 77, 0
8, 221624, Note_on_c, 2, 69, 0
8, 221640, Note_on_c, 2, 69, 32
8, 221640, Note_on_c, 2, 77, 32
8, 221744, Note_on_c, 2, 69, 0
8, 221744, Note_on_c, 2, 77, 0
8, 221760, Note_on_c, 2, 69, 32
8, 221760, Note_on_c, 2, 77, 32
8, 221864, Note_on_c, 2, 69, 0
8, 221864, Note_on_c, 2, 77, 0
8, 221880, Note_on_c, 2, 76, 32
8, 221880, Note_on_c, 2, 67, 32
8, 221984, Note_on_c, 2, 76, 0
8, 221984, Note_on_c, 2, 67, 0
8, 222000, Note_on_c, 2, 74, 32
8, 222000, Note_on_c, 2, 65, 32
8, 222104, Note_on_c, 2, 74, 0
8, 222104, Note_on_c, 2, 65, 0
8, 222120, Note_on_c, 2, 76, 32
8, 222120, Note_on_c, 2, 67, 32
8, 222224, Note_on_c, 2, 76, 0
8, 222224, Note_on_c, 2, 67, 0
8, 222240, Note_on_c, 2, 65, 32
8, 222240, Note_on_c, 2, 74, 32
8, 222344, Note_on_c, 2, 65, 0
8, 222344, Note_on_c, 2, 74, 0
8, 222360, Note_on_c, 2, 64, 32
8, 222360, Note_on_c, 2, 73, 32
8, 222464, Note_on_c, 2, 64, 0
8, 222464, Note_on_c, 2, 73, 0
8, 222480, Note_on_c, 2, 65, 32
8, 222480, Note_on_c, 2, 74, 32
8, 222599, Note_on_c, 2, 65, 0
8, 222599, Note_on_c, 2, 74, 0
8, 224280, Note_on_c, 2, 79, 32
8, 224444, Note_on_c, 2, 79, 0
8, 224460, Note_on_c, 2, 67, 32
8, 224504, Note_on_c, 2, 67, 0
8, 224520, Note_on_c, 2, 67, 32
8, 224624, Note_on_c, 2, 67, 0
8, 224640, Note_on_c, 2, 74, 32
8, 224759, Note_on_c, 2, 74, 0
8, 225000, Note_on_c, 2, 79, 32
8, 225164, Note_on_c, 2, 79, 0
8, 225180, Note_on_c, 2, 67, 32
8, 225224, Note_on_c, 2, 67, 0
8, 225240, Note_on_c, 2, 67, 32
8, 225344, Note_on_c, 2, 67, 0
8, 225360, Note_on_c, 2, 62, 32
8, 225464, Note_on_c, 2, 62, 0
8, 225480, Note_on_c, 2, 70, 32
8, 225584, Note_on_c, 2, 70, 0
8, 225600, Note_on_c, 2, 70, 32
8, 225704, Note_on_c, 2, 70, 0
8, 225720, Note_on_c, 2, 70, 32
8, 225824, Note_on_c, 2, 70, 0
8, 225840, Note_on_c, 2, 70, 32
8, 225944, Note_on_c, 2, 70, 0
8, 225960, Note_on_c, 2, 70, 32
8, 226064, Note_on_c, 2, 70, 0
8, 226080, Note_on_c, 2, 70, 32
8, 226184, Note_on_c, 2, 70, 0
8, 226200, Note_on_c, 2, 70, 32
8, 226304, Note_on_c, 2, 70, 0
8, 226320, Note_on_c, 2, 70, 32
8, 226424, Note_on_c, 2, 70, 0
8, 226440, Note_on_c, 2, 70, 32
8, 226544, Note_on_c, 2, 70, 0
8, 226560, Note_on_c, 2, 70, 32
8, 226664, Note_on_c, 2, 70, 0
8, 226680, Note_on_c, 2, 70, 32
8, 226784, Note_on_c, 2, 70, 0
8, 226800, Note_on_c, 2, 70, 32
8, 226904, Note_on_c, 2, 70, 0
8, 226920, Note_on_c, 2, 70, 32
8, 227024, Note_on_c, 2, 70, 0
8, 227040, Note_on_c, 2, 70, 32
8, 227144, Note_on_c, 2, 70, 0
8, 227160, Note_on_c, 2, 70, 32
8, 227264, Note_on_c, 2, 70, 0
8, 227280, Note_on_c, 2, 70, 32
8, 227384, Note_on_c, 2, 70, 0
8, 227400, Note_on_c, 2, 70, 32
8, 227504, Note_on_c, 2, 70, 0
8, 227520, Note_on_c, 2, 77, 32
8, 227639, Note_on_c, 2, 77, 0
8, 228960, Note_on_c, 2, 75, 32
8, 229079, Note_on_c, 2, 75, 0
8, 229320, Note_on_c, 2, 75, 32
8, 229439, Note_on_c, 2, 75, 0
8, 229680, Note_on_c, 2, 75, 32
8, 229799, Note_on_c, 2, 75, 0
8, 230040, Note_on_c, 2, 75, 32
8, 230159, Note_on_c, 2, 75, 0
8, 230400, Note_on_c, 2, 74, 32
8, 230519, Note_on_c, 2, 74, 0
8, 231840, Note_on_c, 2, 74, 44
8, 231840, Note_on_c, 2, 65, 44
8, 231959, Note_on_c, 2, 74, 0
8, 231959, Note_on_c, 2, 65, 0
8, 232560, Note_on_c, 2, 69, 62
8, 232560, Note_on_c, 2, 65, 62
8, 232679, Note_on_c, 2, 69, 0
8, 232679, Note_on_c, 2, 65, 0
8, 233280, Note_on_c, 2, 62, 80
8, 233280, Note_on_c, 2, 65, 80
8, 233399, Note_on_c, 2, 62, 0
8, 233399, Note_on_c, 2, 65, 0
8, 234000, Note_on_c, 2, 65, 86
8, 234000, Note_on_c, 2, 69, 86
8, 234119, Note_on_c, 2, 65, 0
8, 234119, Note_on_c, 2, 69, 0
8, 234720, Note_on_c, 2, 69, 92
8, 234884, Note_on_c, 2, 69, 0
8, 234900, Note_on_c, 2, 57, 92
8, 234944, Note_on_c, 2, 57, 0
8, 234960, Note_on_c, 2, 57, 92
8, 235064, Note_on_c, 2, 57, 0
8, 235080, Note_on_c, 2, 69, 92
8, 235244, Note_on_c, 2, 69, 0
8, 235260, Note_on_c, 2, 57, 92
8, 235304, Note_on_c, 2, 57, 0
8, 235320, Note_on_c, 2, 57, 92
8, 235424, Note_on_c, 2, 57, 0
8, 235440, Note_on_c, 2, 69, 92
8, 235604, Note_on_c, 2, 69, 0
8, 235620, Note_on_c, 2, 57, 92
8, 235664, Note_on_c, 2, 57, 0
8, 235680, Note_on_c, 2, 57, 92
8, 235784, Note_on_c, 2, 57, 0
8, 235800, Note_on_c, 2, 69, 92
8, 235964, Note_on_c, 2, 69, 0
8, 235980, Note_on_c, 2, 57, 92
8, 236024, Note_on_c, 2, 57, 0
8, 236040, Note_on_c, 2, 57, 92
8, 236144, Note_on_c, 2, 57, 0
8, 236160, Note_on_c, 2, 69, 92
8, 236160, Note_on_c, 2, 81, 92
8, 236324, Note_on_c, 2, 69, 0
8, 236324, Note_on_c, 2, 81, 0
8, 236340, Note_on_c, 2, 69, 92
8, 236340, Note_on_c, 2, 57, 92
8, 236384, Note_on_c, 2, 69, 0
8, 236384, Note_on_c, 2, 57, 0
8, 236400, Note_on_c, 2, 57, 92
8, 236400, Note_on_c, 2, 69, 92
8, 236504, Note_on_c, 2, 57, 0
8, 236504, Note_on_c, 2, 69, 0
8, 236520, Note_on_c, 2, 74, 92
8, 236520, Note_on_c, 2, 62, 92
8, 236609, Note_on_c, 2, 74, 0
8, 236609, Note_on_c, 2, 62, 0
8, 236640, Note_on_c, 2, 76, 92
8, 236640, Note_on_c, 2, 64, 92
8, 236729, Note_on_c, 2, 76, 0
8, 236729, Note_on_c, 2, 64, 0
8, 236760, Note_on_c, 2, 77, 92
8, 236760, Note_on_c, 2, 65, 92
8, 236849, Note_on_c, 2, 77, 0
8, 236849, Note_on_c, 2, 65, 0
8, 236880, Note_on_c, 2, 64, 92
8, 236880, Note_on_c, 2, 76, 92
8, 236969, Note_on_c, 2, 64, 0
8, 236969, Note_on_c, 2, 76, 0
8, 237000, Note_on_c, 2, 65, 92
8, 237000, Note_on_c, 2, 77, 92
8, 237089, Note_on_c, 2, 65, 0
8, 237089, Note_on_c, 2, 77, 0
8, 237120, Note_on_c, 2, 79, 92
8, 237120, Note_on_c, 2, 67, 92
8, 237209, Note_on_c, 2, 79, 0
8, 237209, Note_on_c, 2, 67, 0
8, 237240, Note_on_c, 2, 77, 92
8, 237240, Note_on_c, 2, 65, 92
8, 237329, Note_on_c, 2, 77, 0
8, 237329, Note_on_c, 2, 65, 0
8, 237360, Note_on_c, 2, 64, 92
8, 237360, Note_on_c, 2, 76, 92
8, 237449, Note_on_c, 2, 64, 0
8, 237449, Note_on_c, 2, 76, 0
8, 237480, Note_on_c, 2, 74, 92
8, 237480, Note_on_c, 2, 62, 92
8, 237569, Note_on_c, 2, 74, 0
8, 237569, Note_on_c, 2, 62, 0
8, 237600, Note_on_c, 2, 70, 92
8, 237600, Note_on_c, 2, 82, 92
8, 237689, Note_on_c, 2, 70, 0
8, 237689, Note_on_c, 2, 82, 0
8, 237720, Note_on_c, 2, 81, 92
8, 237720, Note_on_c, 2, 69, 92
8, 237809, Note_on_c, 2, 81, 0
8, 237809, Note_on_c, 2, 69, 0
8, 237840, Note_on_c, 2, 67, 92
8, 237840, Note_on_c, 2, 79, 92
8, 237929, Note_on_c, 2, 67, 0
8, 237929, Note_on_c, 2, 79, 0
8, 237960, Note_on_c, 2, 65, 92
8, 237960, Note_on_c, 2, 77, 92
8, 238049, Note_on_c, 2, 65, 0
8, 238049, Note_on_c, 2, 77, 0
8, 238080, Note_on_c, 2, 76, 92
8, 238080, Note_on_c, 2, 64, 92
8, 238169, Note_on_c, 2, 76, 0
8, 238169, Note_on_c, 2, 64, 0
8, 238200, Note_on_c, 2, 62, 92
8, 238200, Note_on_c, 2, 74, 92
8, 238289, Note_on_c, 2, 62, 0
8, 238289, Note_on_c, 2, 74, 0
8, 238320, Note_on_c, 2, 61, 92
8, 238320, Note_on_c, 2, 73, 92
8, 238409, Note_on_c, 2, 61, 0
8, 238409, Note_on_c, 2, 73, 0
8, 238440, Note_on_c, 2, 62, 92
8, 238440, Note_on_c, 2, 74, 92
8, 238529, Note_on_c, 2, 62, 0
8, 238529, Note_on_c, 2, 74, 0
8, 238560, Note_on_c, 2, 64, 92
8, 238560, Note_on_c, 2, 76, 92
8, 238649, Note_on_c, 2, 64, 0
8, 238649, Note_on_c, 2, 76, 0
8, 238680, Note_on_c, 2, 62, 92
8, 238680, Note_on_c, 2, 74, 92
8, 238769, Note_on_c, 2, 62, 0
8, 238769, Note_on_c, 2, 74, 0
8, 238800, Note_on_c, 2, 73, 92
8, 238800, Note_on_c, 2, 61, 92
8, 238889, Note_on_c, 2, 73, 0
8, 238889, Note_on_c, 2, 61, 0
8, 238920, Note_on_c, 2, 62, 92
8, 238920, Note_on_c, 2, 74, 92
8, 239009, Note_on_c, 2, 62, 0
8, 239009, Note_on_c, 2, 74, 0
8, 239040, Note_on_c, 2, 70, 92
8, 239040, Note_on_c, 2, 82, 92
8, 239129, Note_on_c, 2, 70, 0
8, 239129, Note_on_c, 2, 82, 0
8, 239160, Note_on_c, 2, 81, 92
8, 239160, Note_on_c, 2, 69, 92
8, 239249, Note_on_c, 2, 81, 0
8, 239249, Note_on_c, 2, 69, 0
8, 239280, Note_on_c, 2, 67, 92
8, 239280, Note_on_c, 2, 79, 92
8, 239369, Note_on_c, 2, 67, 0
8, 239369, Note_on_c, 2, 79, 0
8, 239400, Note_on_c, 2, 77, 92
8, 239400, Note_on_c, 2, 65, 92
8, 239489, Note_on_c, 2, 77, 0
8, 239489, Note_on_c, 2, 65, 0
8, 239520, Note_on_c, 2, 76, 92
8, 239520, Note_on_c, 2, 64, 92
8, 239609, Note_on_c, 2, 76, 0
8, 239609, Note_on_c, 2, 64, 0
8, 239640, Note_on_c, 2, 62, 92
8, 239640, Note_on_c, 2, 74, 92
8, 239729, Note_on_c, 2, 62, 0
8, 239729, Note_on_c, 2, 74, 0
8, 239760, Note_on_c, 2, 73, 92
8, 239760, Note_on_c, 2, 61, 92
8, 239849, Note_on_c, 2, 73, 0
8, 239849, Note_on_c, 2, 61, 0
8, 239880, Note_on_c, 2, 74, 92
8, 239880, Note_on_c, 2, 62, 92
8, 239969, Note_on_c, 2, 74, 0
8, 239969, Note_on_c, 2, 62, 0
8, 240000, Note_on_c, 2, 76, 92
8, 240000, Note_on_c, 2, 64, 92
8, 240089, Note_on_c, 2, 76, 0
8, 240089, Note_on_c, 2, 64, 0
8, 240120, Note_on_c, 2, 74, 92
8, 240120, Note_on_c, 2, 62, 92
8, 240209, Note_on_c, 2, 74, 0
8, 240209, Note_on_c, 2, 62, 0
8, 240240, Note_on_c, 2, 61, 92
8, 240240, Note_on_c, 2, 73, 92
8, 240329, Note_on_c, 2, 61, 0
8, 240329, Note_on_c, 2, 73, 0
8, 240360, Note_on_c, 2, 62, 92
8, 240360, Note_on_c, 2, 74, 92
8, 240449, Note_on_c, 2, 62, 0
8, 240449, Note_on_c, 2, 74, 0
8, 240480, Note_on_c, 2, 60, 92
8, 240480, Note_on_c, 2, 72, 92
8, 240569, Note_on_c, 2, 60, 0
8, 240569, Note_on_c, 2, 72, 0
8, 240600, Note_on_c, 2, 62, 92
8, 240600, Note_on_c, 2, 74, 92
8, 240689, Note_on_c, 2, 62, 0
8, 240689, Note_on_c, 2, 74, 0
8, 240720, Note_on_c, 2, 75, 92
8, 240720, Note_on_c, 2, 63, 92
8, 240809, Note_on_c, 2, 75, 0
8, 240809, Note_on_c, 2, 63, 0
8, 240840, Note_on_c, 2, 79, 92
8, 240840, Note_on_c, 2, 67, 92
8, 240929, Note_on_c, 2, 79, 0
8, 240929, Note_on_c, 2, 67, 0
8, 240960, Note_on_c, 2, 81, 92
8, 240960, Note_on_c, 2, 69, 92
8, 241049, Note_on_c, 2, 81, 0
8, 241049, Note_on_c, 2, 69, 0
8, 241080, Note_on_c, 2, 70, 92
8, 241080, Note_on_c, 2, 82, 92
8, 241169, Note_on_c, 2, 70, 0
8, 241169, Note_on_c, 2, 82, 0
8, 241200, Note_on_c, 2, 81, 92
8, 241200, Note_on_c, 2, 69, 92
8, 241289, Note_on_c, 2, 81, 0
8, 241289, Note_on_c, 2, 69, 0
8, 241320, Note_on_c, 2, 70, 92
8, 241320, Note_on_c, 2, 82, 92
8, 241409, Note_on_c, 2, 70, 0
8, 241409, Note_on_c, 2, 82, 0
8, 241440, Note_on_c, 2, 84, 92
8, 241440, Note_on_c, 2, 72, 92
8, 241529, Note_on_c, 2, 84, 0
8, 241529, Note_on_c, 2, 72, 0
8, 241560, Note_on_c, 2, 82, 92
8, 241560, Note_on_c, 2, 70, 92
8, 241649, Note_on_c, 2, 82, 0
8, 241649, Note_on_c, 2, 70, 0
8, 241680, Note_on_c, 2, 69, 92
8, 241680, Note_on_c, 2, 81, 92
8, 241769, Note_on_c, 2, 69, 0
8, 241769, Note_on_c, 2, 81, 0
8, 241800, Note_on_c, 2, 79, 92
8, 241800, Note_on_c, 2, 67, 92
8, 241889, Note_on_c, 2, 79, 0
8, 241889, Note_on_c, 2, 67, 0
8, 241920, Note_on_c, 2, 75, 80
8, 241920, Note_on_c, 2, 63, 80
8, 242009, Note_on_c, 2, 75, 0
8, 242009, Note_on_c, 2, 63, 0
8, 242040, Note_on_c, 2, 62, 80
8, 242040, Note_on_c, 2, 74, 80
8, 242129, Note_on_c, 2, 62, 0
8, 242129, Note_on_c, 2, 74, 0
8, 242160, Note_on_c, 2, 72, 80
8, 242160, Note_on_c, 2, 60, 80
8, 242249, Note_on_c, 2, 72, 0
8, 242249, Note_on_c, 2, 60, 0
8, 242280, Note_on_c, 2, 58, 80
8, 242280, Note_on_c, 2, 70, 80
8, 242369, Note_on_c, 2, 58, 0
8, 242369, Note_on_c, 2, 70, 0
8, 242400, Note_on_c, 2, 57, 80
8, 242400, Note_on_c, 2, 69, 80
8, 242489, Note_on_c, 2, 57, 0
8, 242489, Note_on_c, 2, 69, 0
8, 242520, Note_on_c, 2, 55, 80
8, 242520, Note_on_c, 2, 67, 80
8, 242609, Note_on_c, 2, 55, 0
8, 242609, Note_on_c, 2, 67, 0
8, 242640, Note_on_c, 2, 65, 80
8, 242640, Note_on_c, 2, 77, 80
8, 242729, Note_on_c, 2, 65, 0
8, 242729, Note_on_c, 2, 77, 0
8, 242760, Note_on_c, 2, 75, 80
8, 242760, Note_on_c, 2, 63, 80
8, 242849, Note_on_c, 2, 75, 0
8, 242849, Note_on_c, 2, 63, 0
8, 242880, Note_on_c, 2, 62, 80
8, 242880, Note_on_c, 2, 74, 80
8, 242969, Note_on_c, 2, 62, 0
8, 242969, Note_on_c, 2, 74, 0
8, 243000, Note_on_c, 2, 72, 80
8, 243000, Note_on_c, 2, 60, 80
8, 243089, Note_on_c, 2, 72, 0
8, 243089, Note_on_c, 2, 60, 0
8, 243120, Note_on_c, 2, 58, 80
8, 243120, Note_on_c, 2, 70, 80
8, 243209, Note_on_c, 2, 58, 0
8, 243209, Note_on_c, 2, 70, 0
8, 243240, Note_on_c, 2, 69, 80
8, 243240, Note_on_c, 2, 57, 80
8, 243329, Note_on_c, 2, 69, 0
8, 243329, Note_on_c, 2, 57, 0
8, 243360, Note_on_c, 2, 57, 80
8, 243449, Note_on_c, 2, 57, 0
8, 243480, Note_on_c, 2, 58, 80
8, 243569, Note_on_c, 2, 58, 0
8, 243600, Note_on_c, 2, 60, 80
8, 243689, Note_on_c, 2, 60, 0
8, 243720, Note_on_c, 2, 62, 80
8, 243809, Note_on_c, 2, 62, 0
8, 243840, Note_on_c, 2, 63, 80
8, 243929, Note_on_c, 2, 63, 0
8, 243960, Note_on_c, 2, 65, 80
8, 244049, Note_on_c, 2, 65, 0
8, 244080, Note_on_c, 2, 67, 80
8, 244169, Note_on_c, 2, 67, 0
8, 244200, Note_on_c, 2, 69, 80
8, 244289, Note_on_c, 2, 69, 0
8, 244320, Note_on_c, 2, 70, 80
8, 244409, Note_on_c, 2, 70, 0
8, 244440, Note_on_c, 2, 72, 80
8, 244529, Note_on_c, 2, 72, 0
8, 244560, Note_on_c, 2, 74, 80
8, 244649, Note_on_c, 2, 74, 0
8, 244680, Note_on_c, 2, 75, 80
8, 244769, Note_on_c, 2, 75, 0
8, 244800, Note_on_c, 2, 77, 80
8, 244919, Note_on_c, 2, 77, 0
8, 245160, Control_c, 2, 11, 87
8, 245520, Note_on_c, 2, 67, 68
8, 245520, Control_c, 2, 11, 87
8, 245556, Control_c, 2, 11, 88
8, 245592, Control_c, 2, 11, 89
8, 245628, Control_c, 2, 11, 90
8, 245664, Control_c, 2, 11, 91
8, 245700, Control_c, 2, 11, 92
8, 245736, Control_c, 2, 11, 93
8, 245772, Control_c, 2, 11, 94
8, 245808, Control_c, 2, 11, 95
8, 245844, Control_c, 2, 11, 96
8, 245880, Control_c, 2, 11, 97
8, 245916, Control_c, 2, 11, 98
8, 245952, Control_c, 2, 11, 99
8, 245988, Control_c, 2, 11, 100
8, 246024, Control_c, 2, 11, 101
8, 246060, Control_c, 2, 11, 102
8, 246096, Control_c, 2, 11, 103
8, 246132, Control_c, 2, 11, 104
8, 246168, Control_c, 2, 11, 105
8, 246204, Control_c, 2, 11, 106
8, 246239, Note_on_c, 2, 67, 0
8, 246240, Note_on_c, 2, 69, 68
8, 246240, Control_c, 2, 11, 107
8, 246276, Control_c, 2, 11, 108
8, 246312, Control_c, 2, 11, 109
8, 246348, Control_c, 2, 11, 110
8, 246384, Control_c, 2, 11, 111
8, 246420, Control_c, 2, 11, 112
8, 246456, Control_c, 2, 11, 113
8, 246492, Control_c, 2, 11, 114
8, 246528, Control_c, 2, 11, 115
8, 246564, Control_c, 2, 11, 116
8, 246599, Note_on_c, 2, 69, 0
8, 246600, Control_c, 2, 11, 117
8, 246600, Note_on_c, 2, 70, 68
8, 246636, Control_c, 2, 11, 118
8, 246672, Control_c, 2, 11, 119
8, 246708, Control_c, 2, 11, 120
8, 246744, Control_c, 2, 11, 121
8, 246780, Control_c, 2, 11, 122
8, 246816, Control_c, 2, 11, 123
8, 246852, Control_c, 2, 11, 124
8, 246888, Control_c, 2, 11, 125
8, 246924, Control_c, 2, 11, 126
8, 246960, Control_c, 2, 11, 127
8, 246990, Control_c, 2, 11, 125
8, 247020, Control_c, 2, 11, 124
8, 247050, Control_c, 2, 11, 122
8, 247080, Control_c, 2, 11, 120
8, 247110, Control_c, 2, 11, 119
8, 247140, Control_c, 2, 11, 117
8, 247170, Control_c, 2, 11, 115
8, 247200, Control_c, 2, 11, 114
8, 247230, Control_c, 2, 11, 112
8, 247260, Control_c, 2, 11, 110
8, 247290, Control_c, 2, 11, 109
8, 247319, Note_on_c, 2, 70, 0
8, 247320, Note_on_c, 2, 69, 68
8, 247320, Control_c, 2, 11, 107
8, 247350, Control_c, 2, 11, 105
8, 247380, Control_c, 2, 11, 104
8, 247410, Control_c, 2, 11, 102
8, 247440, Control_c, 2, 11, 100
8, 247470, Control_c, 2, 11, 99
8, 247500, Control_c, 2, 11, 97
8, 247530, Control_c, 2, 11, 95
8, 247560, Control_c, 2, 11, 94
8, 247590, Control_c, 2, 11, 92
8, 247620, Control_c, 2, 11, 90
8, 247650, Control_c, 2, 11, 87
8, 247664, Note_on_c, 2, 69, 0
8, 247680, Note_on_c, 2, 70, 68
8, 248399, Note_on_c, 2, 70, 0
8, 248400, Note_on_c, 2, 69, 68
8, 248760, Control_c, 2, 11, 87
8, 248796, Control_c, 2, 11, 88
8, 248832, Control_c, 2, 11, 89
8, 248868, Control_c, 2, 11, 90
8, 248904, Control_c, 2, 11, 91
8, 248940, Control_c, 2, 11, 92
8, 248976, Control_c, 2, 11, 93
8, 249012, Control_c, 2, 11, 94
8, 249048, Control_c, 2, 11, 95
8, 249084, Control_c, 2, 11, 96
8, 249120, Control_c, 2, 11, 97
8, 249120, Note_on_c, 2, 71, 68
8, 249156, Control_c, 2, 11, 98
8, 249192, Control_c, 2, 11, 99
8, 249228, Control_c, 2, 11, 100
8, 249264, Control_c, 2, 11, 101
8, 249300, Control_c, 2, 11, 102
8, 249336, Control_c, 2, 11, 103
8, 249372, Control_c, 2, 11, 104
8, 249408, Control_c, 2, 11, 105
8, 249444, Control_c, 2, 11, 106
8, 249479, Note_on_c, 2, 69, 0
8, 249480, Note_on_c, 2, 67, 68
8, 249480, Control_c, 2, 11, 107
8, 249516, Control_c, 2, 11, 108
8, 249552, Control_c, 2, 11, 109
8, 249588, Control_c, 2, 11, 110
8, 249624, Control_c, 2, 11, 111
8, 249660, Control_c, 2, 11, 112
8, 249696, Control_c, 2, 11, 113
8, 249732, Control_c, 2, 11, 114
8, 249768, Control_c, 2, 11, 115
8, 249804, Control_c, 2, 11, 116
8, 249839, Note_on_c, 2, 71, 0
8, 249840, Note_on_c, 2, 70, 68
8, 249840, Control_c, 2, 11, 117
8, 249876, Control_c, 2, 11, 118
8, 249912, Control_c, 2, 11, 119
8, 249948, Control_c, 2, 11, 120
8, 249984, Control_c, 2, 11, 121
8, 250020, Control_c, 2, 11, 122
8, 250056, Control_c, 2, 11, 123
8, 250092, Control_c, 2, 11, 124
8, 250128, Control_c, 2, 11, 125
8, 250164, Control_c, 2, 11, 126
8, 250199, Note_on_c, 2, 67, 0
8, 250199, Note_on_c, 2, 70, 0
8, 250200, Note_on_c, 2, 69, 68
8, 250200, Note_on_c, 2, 66, 68
8, 250200, Control_c, 2, 11, 127
8, 250230, Control_c, 2, 11, 126
8, 250260, Control_c, 2, 11, 125
8, 250290, Control_c, 2, 11, 124
8, 250320, Control_c, 2, 11, 123
8, 250350, Control_c, 2, 11, 121
8, 250380, Control_c, 2, 11, 120
8, 250410, Control_c, 2, 11, 119
8, 250440, Control_c, 2, 11, 118
8, 250470, Control_c, 2, 11, 117
8, 250500, Control_c, 2, 11, 116
8, 250530, Control_c, 2, 11, 115
8, 250559, Note_on_c, 2, 66, 0
8, 250560, Control_c, 2, 11, 114
8, 250560, Note_on_c, 2, 65, 68
8, 250590, Control_c, 2, 11, 113
8, 250620, Control_c, 2, 11, 111
8, 250650, Control_c, 2, 11, 110
8, 250680, Control_c, 2, 11, 109
8, 250710, Control_c, 2, 11, 108
8, 250740, Control_c, 2, 11, 107
8, 250770, Control_c, 2, 11, 106
8, 250800, Control_c, 2, 11, 105
8, 250830, Control_c, 2, 11, 104
8, 250860, Control_c, 2, 11, 103
8, 250890, Control_c, 2, 11, 101
8, 250919, Note_on_c, 2, 65, 0
8, 250920, Note_on_c, 2, 64, 68
8, 250920, Control_c, 2, 11, 100
8, 250950, Control_c, 2, 11, 99
8, 250980, Control_c, 2, 11, 98
8, 251010, Control_c, 2, 11, 97
8, 251040, Control_c, 2, 11, 96
8, 251070, Control_c, 2, 11, 95
8, 251100, Control_c, 2, 11, 94
8, 251130, Control_c, 2, 11, 93
8, 251160, Control_c, 2, 11, 91
8, 251190, Control_c, 2, 11, 90
8, 251220, Control_c, 2, 11, 89
8, 251250, Control_c, 2, 11, 87
8, 251279, Note_on_c, 2, 69, 0
8, 251279, Note_on_c, 2, 64, 0
8, 253800, Control_c, 2, 11, 47
8, 254160, Note_on_c, 2, 69, 92
8, 254160, Note_on_c, 2, 81, 92
8, 254196, Control_c, 2, 11, 48
8, 254232, Control_c, 2, 11, 49
8, 254268, Control_c, 2, 11, 50
8, 254304, Control_c, 2, 11, 51
8, 254340, Control_c, 2, 11, 52
8, 254376, Control_c, 2, 11, 53
8, 254412, Control_c, 2, 11, 54
8, 254448, Control_c, 2, 11, 55
8, 254484, Control_c, 2, 11, 56
8, 254519, Note_on_c, 2, 69, 0
8, 254519, Note_on_c, 2, 81, 0
8, 254520, Control_c, 2, 11, 57
8, 254520, Note_on_c, 2, 83, 92
8, 254520, Note_on_c, 2, 71, 92
8, 254556, Control_c, 2, 11, 58
8, 254592, Control_c, 2, 11, 59
8, 254628, Control_c, 2, 11, 60
8, 254664, Control_c, 2, 11, 61
8, 254700, Control_c, 2, 11, 62
8, 254736, Control_c, 2, 11, 63
8, 254772, Control_c, 2, 11, 64
8, 254808, Control_c, 2, 11, 65
8, 254844, Control_c, 2, 11, 66
8, 254880, Control_c, 2, 11, 67
8, 254916, Control_c, 2, 11, 68
8, 254952, Control_c, 2, 11, 69
8, 254988, Control_c, 2, 11, 70
8, 255024, Control_c, 2, 11, 71
8, 255060, Control_c, 2, 11, 72
8, 255096, Control_c, 2, 11, 73
8, 255132, Control_c, 2, 11, 74
8, 255168, Control_c, 2, 11, 75
8, 255204, Control_c, 2, 11, 76
8, 255240, Control_c, 2, 11, 77
8, 255276, Control_c, 2, 11, 78
8, 255312, Control_c, 2, 11, 79
8, 255348, Control_c, 2, 11, 80
8, 255384, Control_c, 2, 11, 81
8, 255420, Control_c, 2, 11, 82
8, 255456, Control_c, 2, 11, 83
8, 255492, Control_c, 2, 11, 84
8, 255528, Control_c, 2, 11, 85
8, 255564, Control_c, 2, 11, 86
8, 255599, Note_on_c, 2, 83, 0
8, 255599, Note_on_c, 2, 71, 0
8, 255600, Control_c, 2, 11, 87
8, 255600, Note_on_c, 2, 69, 92
8, 255600, Note_on_c, 2, 81, 92
8, 255636, Control_c, 2, 11, 88
8, 255672, Control_c, 2, 11, 89
8, 255708, Control_c, 2, 11, 90
8, 255744, Control_c, 2, 11, 91
8, 255780, Control_c, 2, 11, 92
8, 255816, Control_c, 2, 11, 93
8, 255852, Control_c, 2, 11, 94
8, 255888, Control_c, 2, 11, 95
8, 255924, Control_c, 2, 11, 96
8, 255960, Control_c, 2, 11, 97
8, 255996, Control_c, 2, 11, 98
8, 256032, Control_c, 2, 11, 99
8, 256068, Control_c, 2, 11, 100
8, 256104, Control_c, 2, 11, 101
8, 256140, Control_c, 2, 11, 102
8, 256176, Control_c, 2, 11, 103
8, 256212, Control_c, 2, 11, 104
8, 256248, Control_c, 2, 11, 105
8, 256284, Control_c, 2, 11, 106
8, 256320, Control_c, 2, 11, 107
8, 256356, Control_c, 2, 11, 108
8, 256392, Control_c, 2, 11, 109
8, 256428, Control_c, 2, 11, 110
8, 256464, Control_c, 2, 11, 111
8, 256500, Control_c, 2, 11, 112
8, 256536, Control_c, 2, 11, 113
8, 256572, Control_c, 2, 11, 114
8, 256608, Control_c, 2, 11, 115
8, 256644, Control_c, 2, 11, 116
8, 256679, Note_on_c, 2, 69, 0
8, 256679, Note_on_c, 2, 81, 0
8, 256680, Note_on_c, 2, 79, 92
8, 256680, Control_c, 2, 11, 117
8, 256680, Note_on_c, 2, 67, 92
8, 256716, Control_c, 2, 11, 118
8, 256752, Control_c, 2, 11, 119
8, 256788, Control_c, 2, 11, 120
8, 256824, Control_c, 2, 11, 121
8, 256860, Control_c, 2, 11, 122
8, 256896, Control_c, 2, 11, 123
8, 256932, Control_c, 2, 11, 124
8, 256968, Control_c, 2, 11, 125
8, 257004, Control_c, 2, 11, 127
8, 257024, Note_on_c, 2, 79, 0
8, 257024, Note_on_c, 2, 67, 0
8, 257040, Note_on_c, 2, 66, 92
8, 257040, Note_on_c, 2, 78, 92
8, 257144, Note_on_c, 2, 66, 0
8, 257144, Note_on_c, 2, 78, 0
8, 257160, Note_on_c, 2, 62, 92
8, 257279, Note_on_c, 2, 62, 0
8, 257280, Note_on_c, 2, 64, 92
8, 257339, Note_on_c, 2, 64, 0
8, 257340, Note_on_c, 2, 66, 92
8, 257384, Note_on_c, 2, 66, 0
8, 257400, Note_on_c, 2, 67, 92
8, 257489, Note_on_c, 2, 67, 0
8, 257640, Note_on_c, 2, 66, 92
8, 257729, Note_on_c, 2, 66, 0
8, 257760, Note_on_c, 2, 64, 92
8, 257849, Note_on_c, 2, 64, 0
8, 258000, Note_on_c, 2, 62, 92
8, 258089, Note_on_c, 2, 62, 0
8, 258120, Note_on_c, 2, 64, 92
8, 258209, Note_on_c, 2, 64, 0
8, 258360, Note_on_c, 2, 61, 92
8, 258449, Note_on_c, 2, 61, 0
8, 258480, Note_on_c, 2, 62, 92
8, 258480, Note_on_c, 2, 66, 92
8, 258719, Note_on_c, 2, 62, 0
8, 258719, Note_on_c, 2, 66, 0
8, 258720, Note_on_c, 2, 67, 92
8, 258720, Note_on_c, 2, 64, 92
8, 258779, Note_on_c, 2, 67, 0
8, 258779, Note_on_c, 2, 64, 0
8, 258780, Note_on_c, 2, 69, 92
8, 258780, Note_on_c, 2, 66, 92
8, 258824, Note_on_c, 2, 69, 0
8, 258824, Note_on_c, 2, 66, 0
8, 258840, Note_on_c, 2, 67, 92
8, 258840, Note_on_c, 2, 71, 92
8, 258929, Note_on_c, 2, 67, 0
8, 258929, Note_on_c, 2, 71, 0
8, 259080, Note_on_c, 2, 69, 92
8, 259080, Note_on_c, 2, 66, 92
8, 259169, Note_on_c, 2, 69, 0
8, 259169, Note_on_c, 2, 66, 0
8, 259200, Note_on_c, 2, 64, 92
8, 259200, Note_on_c, 2, 67, 92
8, 259289, Note_on_c, 2, 64, 0
8, 259289, Note_on_c, 2, 67, 0
8, 259440, Note_on_c, 2, 66, 92
8, 259440, Note_on_c, 2, 62, 92
8, 259529, Note_on_c, 2, 66, 0
8, 259529, Note_on_c, 2, 62, 0
8, 259560, Note_on_c, 2, 67, 92
8, 259560, Note_on_c, 2, 64, 92
8, 259649, Note_on_c, 2, 67, 0
8, 259649, Note_on_c, 2, 64, 0
8, 259800, Note_on_c, 2, 61, 92
8, 259800, Note_on_c, 2, 64, 92
8, 259889, Note_on_c, 2, 61, 0
8, 259889, Note_on_c, 2, 64, 0
8, 259920, Note_on_c, 2, 62, 92
8, 260009, Note_on_c, 2, 62, 0
8, 260040, Note_on_c, 2, 62, 92
8, 260040, Note_on_c, 2, 74, 92
8, 260159, Note_on_c, 2, 62, 0
8, 260159, Note_on_c, 2, 74, 0
8, 260160, Note_on_c, 2, 64, 92
8, 260160, Note_on_c, 2, 76, 92
8, 260219, Note_on_c, 2, 64, 0
8, 260219, Note_on_c, 2, 76, 0
8, 260220, Note_on_c, 2, 77, 92
8, 260220, Note_on_c, 2, 65, 92
8, 260264, Note_on_c, 2, 77, 0
8, 260264, Note_on_c, 2, 65, 0
8, 260280, Note_on_c, 2, 79, 92
8, 260280, Note_on_c, 2, 67, 92
8, 260369, Note_on_c, 2, 79, 0
8, 260369, Note_on_c, 2, 67, 0
8, 260400, Note_on_c, 2, 67, 92
8, 260400, Note_on_c, 2, 79, 92
8, 260489, Note_on_c, 2, 67, 0
8, 260489, Note_on_c, 2, 79, 0
8, 260520, Note_on_c, 2, 65, 92
8, 260520, Note_on_c, 2, 77, 92
8, 260609, Note_on_c, 2, 65, 0
8, 260609, Note_on_c, 2, 77, 0
8, 260640, Note_on_c, 2, 76, 92
8, 260640, Note_on_c, 2, 64, 92
8, 260729, Note_on_c, 2, 76, 0
8, 260729, Note_on_c, 2, 64, 0
8, 260760, Note_on_c, 2, 64, 92
8, 260760, Note_on_c, 2, 76, 92
8, 260849, Note_on_c, 2, 64, 0
8, 260849, Note_on_c, 2, 76, 0
8, 260880, Note_on_c, 2, 74, 92
8, 260880, Note_on_c, 2, 62, 92
8, 260969, Note_on_c, 2, 74, 0
8, 260969, Note_on_c, 2, 62, 0
8, 261000, Note_on_c, 2, 64, 92
8, 261000, Note_on_c, 2, 76, 92
8, 261089, Note_on_c, 2, 64, 0
8, 261089, Note_on_c, 2, 76, 0
8, 261120, Note_on_c, 2, 76, 92
8, 261120, Note_on_c, 2, 64, 92
8, 261209, Note_on_c, 2, 76, 0
8, 261209, Note_on_c, 2, 64, 0
8, 261240, Note_on_c, 2, 61, 92
8, 261240, Note_on_c, 2, 73, 92
8, 261329, Note_on_c, 2, 61, 0
8, 261329, Note_on_c, 2, 73, 0
8, 261360, Note_on_c, 2, 65, 92
8, 261360, Note_on_c, 2, 77, 92
8, 261449, Note_on_c, 2, 65, 0
8, 261449, Note_on_c, 2, 77, 0
8, 261480, Note_on_c, 2, 65, 92
8, 261480, Note_on_c, 2, 62, 92
8, 261599, Note_on_c, 2, 65, 0
8, 261599, Note_on_c, 2, 62, 0
8, 261600, Note_on_c, 2, 64, 92
8, 261600, Note_on_c, 2, 67, 92
8, 261659, Note_on_c, 2, 64, 0
8, 261659, Note_on_c, 2, 67, 0
8, 261660, Note_on_c, 2, 65, 92
8, 261660, Note_on_c, 2, 69, 92
8, 261704, Note_on_c, 2, 65, 0
8, 261704, Note_on_c, 2, 69, 0
8, 261720, Note_on_c, 2, 70, 92
8, 261720, Note_on_c, 2, 67, 92
8, 261809, Note_on_c, 2, 70, 0
8, 261809, Note_on_c, 2, 67, 0
8, 261840, Note_on_c, 2, 67, 92
8, 261840, Note_on_c, 2, 70, 92
8, 261929, Note_on_c, 2, 67, 0
8, 261929, Note_on_c, 2, 70, 0
8, 261960, Note_on_c, 2, 69, 92
8, 261960, Note_on_c, 2, 65, 92
8, 262049, Note_on_c, 2, 69, 0
8, 262049, Note_on_c, 2, 65, 0
8, 262080, Note_on_c, 2, 64, 92
8, 262080, Note_on_c, 2, 67, 92
8, 262169, Note_on_c, 2, 64, 0
8, 262169, Note_on_c, 2, 67, 0
8, 262200, Note_on_c, 2, 64, 92
8, 262200, Note_on_c, 2, 67, 92
8, 262289, Note_on_c, 2, 64, 0
8, 262289, Note_on_c, 2, 67, 0
8, 262320, Note_on_c, 2, 65, 92
8, 262320, Note_on_c, 2, 62, 92
8, 262409, Note_on_c, 2, 65, 0
8, 262409, Note_on_c, 2, 62, 0
8, 262440, Note_on_c, 2, 67, 92
8, 262440, Note_on_c, 2, 64, 92
8, 262529, Note_on_c, 2, 67, 0
8, 262529, Note_on_c, 2, 64, 0
8, 262560, Note_on_c, 2, 67, 92
8, 262560, Note_on_c, 2, 64, 92
8, 262649, Note_on_c, 2, 67, 0
8, 262649, Note_on_c, 2, 64, 0
8, 262680, Note_on_c, 2, 64, 92
8, 262680, Note_on_c, 2, 61, 92
8, 262769, Note_on_c, 2, 64, 0
8, 262769, Note_on_c, 2, 61, 0
8, 262800, Note_on_c, 2, 65, 92
8, 262800, Note_on_c, 2, 53, 92
8, 262964, Note_on_c, 2, 65, 0
8, 262964, Note_on_c, 2, 53, 0
8, 262980, Note_on_c, 2, 65, 92
8, 262980, Note_on_c, 2, 53, 92
8, 263024, Note_on_c, 2, 65, 0
8, 263024, Note_on_c, 2, 53, 0
8, 263040, Note_on_c, 2, 65, 92
8, 263040, Note_on_c, 2, 53, 92
8, 263144, Note_on_c, 2, 65, 0
8, 263144, Note_on_c, 2, 53, 0
8, 263160, Note_on_c, 2, 65, 92
8, 263160, Note_on_c, 2, 53, 92
8, 263264, Note_on_c, 2, 65, 0
8, 263264, Note_on_c, 2, 53, 0
8, 263280, Note_on_c, 2, 55, 92
8, 263280, Note_on_c, 2, 67, 92
8, 263384, Note_on_c, 2, 55, 0
8, 263384, Note_on_c, 2, 67, 0
8, 263400, Note_on_c, 2, 57, 92
8, 263400, Note_on_c, 2, 69, 92
8, 263504, Note_on_c, 2, 57, 0
8, 263504, Note_on_c, 2, 69, 0
8, 263520, Note_on_c, 2, 58, 92
8, 263520, Note_on_c, 2, 70, 92
8, 263639, Note_on_c, 2, 58, 0
8, 263639, Note_on_c, 2, 70, 0
8, 264240, Note_on_c, 2, 76, 92
8, 264240, Note_on_c, 2, 64, 92
8, 264404, Note_on_c, 2, 76, 0
8, 264404, Note_on_c, 2, 64, 0
8, 264420, Note_on_c, 2, 52, 92
8, 264420, Note_on_c, 2, 64, 92
8, 264464, Note_on_c, 2, 52, 0
8, 264464, Note_on_c, 2, 64, 0
8, 264480, Note_on_c, 2, 64, 92
8, 264480, Note_on_c, 2, 52, 92
8, 264584, Note_on_c, 2, 64, 0
8, 264584, Note_on_c, 2, 52, 0
8, 264600, Note_on_c, 2, 76, 92
8, 264600, Note_on_c, 2, 64, 92
8, 264704, Note_on_c, 2, 76, 0
8, 264704, Note_on_c, 2, 64, 0
8, 264720, Note_on_c, 2, 65, 92
8, 264720, Note_on_c, 2, 77, 92
8, 264824, Note_on_c, 2, 65, 0
8, 264824, Note_on_c, 2, 77, 0
8, 264840, Note_on_c, 2, 79, 92
8, 264840, Note_on_c, 2, 67, 92
8, 264944, Note_on_c, 2, 79, 0
8, 264944, Note_on_c, 2, 67, 0
8, 264960, Note_on_c, 2, 69, 92
8, 264960, Note_on_c, 2, 81, 92
8, 265079, Note_on_c, 2, 69, 0
8, 265079, Note_on_c, 2, 81, 0
8, 265320, Note_on_c, 2, 69, 92
8, 265424, Note_on_c, 2, 69, 0
8, 265440, Note_on_c, 2, 74, 92
8, 265544, Note_on_c, 2, 74, 0
8, 265560, Note_on_c, 2, 76, 92
8, 265664, Note_on_c, 2, 76, 0
8, 265680, Note_on_c, 2, 78, 44
8, 265680, Note_on_c, 2, 74, 44
8, 265799, Note_on_c, 2, 78, 0
8, 265799, Note_on_c, 2, 74, 0
8, 266400, Note_on_c, 2, 74, 44
8, 266400, Note_on_c, 2, 62, 44
8, 266519, Note_on_c, 2, 74, 0
8, 266519, Note_on_c, 2, 62, 0
8, 267480, Control_c, 2, 11, 67
8, 267840, Note_on_c, 2, 67, 80
8, 267840, Note_on_c, 2, 58, 80
8, 267840, Control_c, 2, 11, 67
8, 267870, Control_c, 2, 11, 68
8, 267900, Control_c, 2, 11, 70
8, 267930, Control_c, 2, 11, 71
8, 267959, Note_on_c, 2, 67, 0
8, 267960, Note_on_c, 2, 65, 80
8, 267960, Control_c, 2, 11, 72
8, 267990, Control_c, 2, 11, 73
8, 268020, Control_c, 2, 11, 75
8, 268050, Control_c, 2, 11, 76
8, 268079, Note_on_c, 2, 65, 0
8, 268080, Control_c, 2, 11, 77
8, 268080, Note_on_c, 2, 63, 80
8, 268110, Control_c, 2, 11, 78
8, 268140, Control_c, 2, 11, 80
8, 268170, Control_c, 2, 11, 81
8, 268199, Note_on_c, 2, 63, 0
8, 268200, Note_on_c, 2, 75, 80
8, 268200, Control_c, 2, 11, 82
8, 268230, Control_c, 2, 11, 83
8, 268260, Control_c, 2, 11, 85
8, 268290, Control_c, 2, 11, 86
8, 268319, Note_on_c, 2, 75, 0
8, 268320, Control_c, 2, 11, 87
8, 268320, Note_on_c, 2, 77, 80
8, 268350, Control_c, 2, 11, 88
8, 268380, Control_c, 2, 11, 90
8, 268410, Control_c, 2, 11, 91
8, 268439, Note_on_c, 2, 77, 0
8, 268440, Note_on_c, 2, 79, 80
8, 268440, Control_c, 2, 11, 92
8, 268470, Control_c, 2, 11, 93
8, 268500, Control_c, 2, 11, 95
8, 268530, Control_c, 2, 11, 96
8, 268544, Note_on_c, 2, 58, 0
8, 268544, Note_on_c, 2, 79, 0
8, 268560, Note_on_c, 2, 70, 80
8, 268560, Note_on_c, 2, 76, 80
8, 268560, Control_c, 2, 11, 97
8, 268590, Control_c, 2, 11, 98
8, 268620, Control_c, 2, 11, 100
8, 268650, Control_c, 2, 11, 101
8, 268679, Note_on_c, 2, 70, 0
8, 268679, Note_on_c, 2, 76, 0
8, 268680, Note_on_c, 2, 69, 80
8, 268680, Control_c, 2, 11, 102
8, 268680, Note_on_c, 2, 77, 80
8, 268710, Control_c, 2, 11, 103
8, 268740, Control_c, 2, 11, 105
8, 268770, Control_c, 2, 11, 106
8, 268799, Note_on_c, 2, 69, 0
8, 268799, Note_on_c, 2, 77, 0
8, 268800, Note_on_c, 2, 70, 80
8, 268800, Note_on_c, 2, 79, 80
8, 268800, Control_c, 2, 11, 107
8, 268830, Control_c, 2, 11, 108
8, 268860, Control_c, 2, 11, 110
8, 268890, Control_c, 2, 11, 111
8, 268904, Note_on_c, 2, 70, 0
8, 268904, Note_on_c, 2, 79, 0
8, 268920, Note_on_c, 2, 64, 80
8, 268920, Note_on_c, 2, 67, 80
8, 268920, Control_c, 2, 11, 112
8, 268950, Control_c, 2, 11, 113
8, 268980, Control_c, 2, 11, 115
8, 269010, Control_c, 2, 11, 116
8, 269039, Note_on_c, 2, 64, 0
8, 269039, Note_on_c, 2, 67, 0
8, 269040, Note_on_c, 2, 62, 80
8, 269040, Note_on_c, 2, 65, 80
8, 269040, Control_c, 2, 11, 117
8, 269070, Control_c, 2, 11, 118
8, 269100, Control_c, 2, 11, 120
8, 269130, Control_c, 2, 11, 121
8, 269159, Note_on_c, 2, 62, 0
8, 269159, Note_on_c, 2, 65, 0
8, 269160, Control_c, 2, 11, 122
8, 269160, Note_on_c, 2, 61, 80
8, 269160, Note_on_c, 2, 64, 80
8, 269190, Control_c, 2, 11, 123
8, 269220, Control_c, 2, 11, 125
8, 269250, Control_c, 2, 11, 127
8, 269264, Note_on_c, 2, 61, 0
8, 269264, Note_on_c, 2, 64, 0
8, 269280, Note_on_c, 2, 57, 80
8, 269280, Note_on_c, 2, 62, 80
8, 269369, Note_on_c, 2, 57, 0
8, 269369, Note_on_c, 2, 62, 0
8, 269400, Note_on_c, 2, 62, 80
8, 269400, Note_on_c, 2, 65, 80
8, 269489, Note_on_c, 2, 62, 0
8, 269489, Note_on_c, 2, 65, 0
8, 269520, Note_on_c, 2, 58, 80
8, 269520, Note_on_c, 2, 70, 80
8, 269609, Note_on_c, 2, 58, 0
8, 269609, Note_on_c, 2, 70, 0
8, 269640, Note_on_c, 2, 55, 80
8, 269640, Note_on_c, 2, 67, 80
8, 269729, Note_on_c, 2, 55, 0
8, 269729, Note_on_c, 2, 67, 0
8, 269760, Note_on_c, 2, 64, 80
8, 269760, Note_on_c, 2, 76, 80
8, 269849, Note_on_c, 2, 64, 0
8, 269849, Note_on_c, 2, 76, 0
8, 269880, Note_on_c, 2, 73, 80
8, 269880, Note_on_c, 2, 64, 80
8, 269969, Note_on_c, 2, 73, 0
8, 269969, Note_on_c, 2, 64, 0
8, 270000, Note_on_c, 2, 65, 80
8, 270000, Note_on_c, 2, 74, 80
8, 270119, Note_on_c, 2, 65, 0
8, 270119, Note_on_c, 2, 74, 0
8, 270720, Note_on_c, 2, 69, 80
8, 270720, Note_on_c, 2, 65, 80
8, 270809, Note_on_c, 2, 69, 0
8, 270809, Note_on_c, 2, 65, 0
8, 270840, Note_on_c, 2, 74, 80
8, 270840, Note_on_c, 2, 62, 80
8, 270929, Note_on_c, 2, 74, 0
8, 270929, Note_on_c, 2, 62, 0
8, 270960, Note_on_c, 2, 58, 80
8, 270960, Note_on_c, 2, 70, 80
8, 271049, Note_on_c, 2, 58, 0
8, 271049, Note_on_c, 2, 70, 0
8, 271080, Note_on_c, 2, 67, 80
8, 271080, Note_on_c, 2, 55, 80
8, 271169, Note_on_c, 2, 67, 0
8, 271169, Note_on_c, 2, 55, 0
8, 271200, Note_on_c, 2, 76, 80
8, 271200, Note_on_c, 2, 64, 80
8, 271289, Note_on_c, 2, 76, 0
8, 271289, Note_on_c, 2, 64, 0
8, 271320, Note_on_c, 2, 64, 80
8, 271320, Note_on_c, 2, 73, 80
8, 271409, Note_on_c, 2, 64, 0
8, 271409, Note_on_c, 2, 73, 0
8, 271440, Note_on_c, 2, 74, 80
8, 271440, Note_on_c, 2, 65, 80
8, 271529, Note_on_c, 2, 74, 0
8, 271529, Note_on_c, 2, 65, 0
8, 271560, Note_on_c, 2, 81, 80
8, 271560, Note_on_c, 2, 69, 80
8, 271649, Note_on_c, 2, 81, 0
8, 271649, Note_on_c, 2, 69, 0
8, 271680, Note_on_c, 2, 69, 80
8, 271680, Note_on_c, 2, 81, 80
8, 271769, Note_on_c, 2, 69, 0
8, 271769, Note_on_c, 2, 81, 0
8, 271800, Note_on_c, 2, 69, 80
8, 271800, Note_on_c, 2, 81, 80
8, 271889, Note_on_c, 2, 69, 0
8, 271889, Note_on_c, 2, 81, 0
8, 271920, Note_on_c, 2, 69, 80
8, 271920, Note_on_c, 2, 81, 80
8, 272009, Note_on_c, 2, 69, 0
8, 272009, Note_on_c, 2, 81, 0
8, 272040, Note_on_c, 2, 69, 80
8, 272040, Note_on_c, 2, 81, 80
8, 272129, Note_on_c, 2, 69, 0
8, 272129, Note_on_c, 2, 81, 0
8, 272160, Note_on_c, 2, 74, 80
8, 272160, Note_on_c, 2, 65, 80
8, 272249, Note_on_c, 2, 74, 0
8, 272249, Note_on_c, 2, 65, 0
8, 272280, Note_on_c, 2, 65, 80
8, 272280, Note_on_c, 2, 62, 80
8, 272369, Note_on_c, 2, 65, 0
8, 272369, Note_on_c, 2, 62, 0
8, 272400, Note_on_c, 2, 65, 80
8, 272400, Note_on_c, 2, 69, 80
8, 272489, Note_on_c, 2, 65, 0
8, 272489, Note_on_c, 2, 69, 0
8, 272520, Note_on_c, 2, 67, 80
8, 272520, Note_on_c, 2, 64, 80
8, 272609, Note_on_c, 2, 67, 0
8, 272609, Note_on_c, 2, 64, 0
8, 272640, Note_on_c, 2, 76, 80
8, 272640, Note_on_c, 2, 69, 80
8, 272729, Note_on_c, 2, 76, 0
8, 272729, Note_on_c, 2, 69, 0
8, 272760, Note_on_c, 2, 81, 80
8, 272760, Note_on_c, 2, 76, 80
8, 272849, Note_on_c, 2, 81, 0
8, 272849, Note_on_c, 2, 76, 0
8, 272880, Note_on_c, 2, 74, 80
8, 272880, Note_on_c, 2, 77, 80
8, 272969, Note_on_c, 2, 74, 0
8, 272969, Note_on_c, 2, 77, 0
8, 273000, Note_on_c, 2, 65, 80
8, 273000, Note_on_c, 2, 62, 80
8, 273089, Note_on_c, 2, 65, 0
8, 273089, Note_on_c, 2, 62, 0
8, 273120, Note_on_c, 2, 65, 80
8, 273120, Note_on_c, 2, 69, 80
8, 273209, Note_on_c, 2, 65, 0
8, 273209, Note_on_c, 2, 69, 0
8, 273240, Note_on_c, 2, 64, 80
8, 273240, Note_on_c, 2, 67, 80
8, 273329, Note_on_c, 2, 64, 0
8, 273329, Note_on_c, 2, 67, 0
8, 273360, Note_on_c, 2, 76, 80
8, 273360, Note_on_c, 2, 69, 80
8, 273449, Note_on_c, 2, 76, 0
8, 273449, Note_on_c, 2, 69, 0
8, 273480, Note_on_c, 2, 81, 80
8, 273480, Note_on_c, 2, 76, 80
8, 273569, Note_on_c, 2, 81, 0
8, 273569, Note_on_c, 2, 76, 0
8, 273960, Note_on_c, 2, 67, 32
8, 274079, Note_on_c, 2, 67, 0
8, 274080, Note_on_c, 2, 73, 32
8, 274199, Note_on_c, 2, 73, 0
8, 274200, Note_on_c, 2, 76, 32
8, 274799, Note_on_c, 2, 76, 0
8, 274800, Note_on_c, 2, 67, 32
8, 274919, Note_on_c, 2, 67, 0
8, 274920, Note_on_c, 2, 64, 32
8, 275024, Note_on_c, 2, 64, 0
8, 275040, Note_on_c, 2, 62, 32
8, 275159, Note_on_c, 2, 62, 0
8, 275400, Note_on_c, 2, 65, 32
8, 275400, Note_on_c, 2, 74, 32
8, 275564, Note_on_c, 2, 65, 0
8, 275564, Note_on_c, 2, 74, 0
8, 275580, Note_on_c, 2, 62, 32
8, 275580, Note_on_c, 2, 65, 32
8, 275624, Note_on_c, 2, 62, 0
8, 275624, Note_on_c, 2, 65, 0
8, 275640, Note_on_c, 2, 65, 32
8, 275640, Note_on_c, 2, 62, 32
8, 275744, Note_on_c, 2, 65, 0
8, 275744, Note_on_c, 2, 62, 0
8, 275760, Note_on_c, 2, 62, 32
8, 275760, Note_on_c, 2, 65, 32
8, 275879, Note_on_c, 2, 62, 0
8, 275879, Note_on_c, 2, 65, 0
8, 276120, Note_on_c, 2, 62, 32
8, 276120, Note_on_c, 2, 65, 32
8, 276284, Note_on_c, 2, 62, 0
8, 276284, Note_on_c, 2, 65, 0
8, 276300, Note_on_c, 2, 65, 32
8, 276300, Note_on_c, 2, 62, 32
8, 276344, Note_on_c, 2, 65, 0
8, 276344, Note_on_c, 2, 62, 0
8, 276360, Note_on_c, 2, 62, 32
8, 276360, Note_on_c, 2, 65, 32
8, 276464, Note_on_c, 2, 62, 0
8, 276464, Note_on_c, 2, 65, 0
8, 276480, Note_on_c, 2, 62, 32
8, 276480, Note_on_c, 2, 65, 32
8, 276599, Note_on_c, 2, 62, 0
8, 276599, Note_on_c, 2, 65, 0
8, 278280, Note_on_c, 2, 65, 40
8, 278280, Note_on_c, 2, 69, 40
8, 278444, Note_on_c, 2, 65, 0
8, 278444, Note_on_c, 2, 69, 0
8, 278460, Note_on_c, 2, 65, 44
8, 278460, Note_on_c, 2, 69, 44
8, 278504, Note_on_c, 2, 65, 0
8, 278504, Note_on_c, 2, 69, 0
8, 278520, Note_on_c, 2, 65, 46
8, 278520, Note_on_c, 2, 69, 46
8, 278624, Note_on_c, 2, 65, 0
8, 278624, Note_on_c, 2, 69, 0
8, 278640, Note_on_c, 2, 69, 49
8, 278640, Note_on_c, 2, 65, 49
8, 278759, Note_on_c, 2, 69, 0
8, 278759, Note_on_c, 2, 65, 0
8, 279000, Note_on_c, 2, 69, 57
8, 279000, Note_on_c, 2, 65, 57
8, 279164, Note_on_c, 2, 69, 0
8, 279164, Note_on_c, 2, 65, 0
8, 279180, Note_on_c, 2, 65, 62
8, 279180, Note_on_c, 2, 69, 62
8, 279224, Note_on_c, 2, 65, 0
8, 279224, Note_on_c, 2, 69, 0
8, 279240, Note_on_c, 2, 69, 63
8, 279240, Note_on_c, 2, 65, 63
8, 279344, Note_on_c, 2, 69, 0
8, 279344, Note_on_c, 2, 65, 0
8, 279360, Note_on_c, 2, 70, 66
8, 279360, Note_on_c, 2, 65, 66
8, 279479, Note_on_c, 2, 70, 0
8, 279479, Note_on_c, 2, 65, 0
8, 279720, Note_on_c, 2, 70, 74
8, 279720, Note_on_c, 2, 67, 74
8, 279884, Note_on_c, 2, 70, 0
8, 279884, Note_on_c, 2, 67, 0
8, 279900, Note_on_c, 2, 67, 79
8, 279900, Note_on_c, 2, 70, 79
8, 279944, Note_on_c, 2, 67, 0
8, 279944, Note_on_c, 2, 70, 0
8, 279960, Note_on_c, 2, 70, 80
8, 279960, Note_on_c, 2, 67, 80
8, 280064, Note_on_c, 2, 70, 0
8, 280064, Note_on_c, 2, 67, 0
8, 280080, Note_on_c, 2, 67, 83
8, 280080, Note_on_c, 2, 62, 83
8, 280199, Note_on_c, 2, 67, 0
8, 280199, Note_on_c, 2, 62, 0
8, 280440, Note_on_c, 2, 61, 92
8, 280440, Note_on_c, 2, 64, 92
8, 280604, Note_on_c, 2, 61, 0
8, 280604, Note_on_c, 2, 64, 0
8, 280620, Note_on_c, 2, 64, 92
8, 280620, Note_on_c, 2, 61, 92
8, 280664, Note_on_c, 2, 64, 0
8, 280664, Note_on_c, 2, 61, 0
8, 280680, Note_on_c, 2, 61, 92
8, 280680, Note_on_c, 2, 64, 92
8, 281129, Note_on_c, 2, 61, 0
8, 281129, Note_on_c, 2, 64, 0
8, 281880, Note_on_c, 2, 74, 32
8, 282044, Note_on_c, 2, 74, 0
8, 282060, Note_on_c, 2, 62, 32
8, 282104, Note_on_c, 2, 62, 0
8, 282120, Note_on_c, 2, 62, 32
8, 282224, Note_on_c, 2, 62, 0
8, 282240, Note_on_c, 2, 67, 32
8, 282329, Note_on_c, 2, 67, 0
8, 282360, Note_on_c, 2, 69, 32
8, 282449, Note_on_c, 2, 69, 0
8, 282480, Note_on_c, 2, 70, 32
8, 282569, Note_on_c, 2, 70, 0
8, 283320, Note_on_c, 2, 74, 32
8, 283484, Note_on_c, 2, 74, 0
8, 283500, Note_on_c, 2, 62, 32
8, 283544, Note_on_c, 2, 62, 0
8, 283560, Note_on_c, 2, 62, 32
8, 283664, Note_on_c, 2, 62, 0
8, 283680, Note_on_c, 2, 67, 32
8, 283769, Note_on_c, 2, 67, 0
8, 283800, Note_on_c, 2, 69, 32
8, 283889, Note_on_c, 2, 69, 0
8, 283920, Note_on_c, 2, 70, 32
8, 284009, Note_on_c, 2, 70, 0
8, 284040, Note_on_c, 2, 81, 32
8, 284040, Note_on_c, 2, 69, 32
8, 284204, Note_on_c, 2, 81, 0
8, 284204, Note_on_c, 2, 69, 0
8, 284220, Note_on_c, 2, 57, 35
8, 284220, Note_on_c, 2, 69, 35
8, 284264, Note_on_c, 2, 57, 0
8, 284264, Note_on_c, 2, 69, 0
8, 284280, Note_on_c, 2, 57, 37
8, 284280, Note_on_c, 2, 69, 37
8, 284384, Note_on_c, 2, 57, 0
8, 284384, Note_on_c, 2, 69, 0
8, 284400, Note_on_c, 2, 62, 39
8, 284400, Note_on_c, 2, 74, 39
8, 284489, Note_on_c, 2, 62, 0
8, 284489, Note_on_c, 2, 74, 0
8, 284520, Note_on_c, 2, 64, 42
8, 284520, Note_on_c, 2, 76, 42
8, 284609, Note_on_c, 2, 64, 0
8, 284609, Note_on_c, 2, 76, 0
8, 284640, Note_on_c, 2, 77, 44
8, 284640, Note_on_c, 2, 65, 44
8, 284729, Note_on_c, 2, 77, 0
8, 284729, Note_on_c, 2, 65, 0
8, 284760, Note_on_c, 2, 69, 47
8, 284760, Note_on_c, 2, 81, 47
8, 284924, Note_on_c, 2, 69, 0
8, 284924, Note_on_c, 2, 81, 0
8, 284940, Note_on_c, 2, 57, 50
8, 284940, Note_on_c, 2, 69, 50
8, 284984, Note_on_c, 2, 57, 0
8, 284984, Note_on_c, 2, 69, 0
8, 285000, Note_on_c, 2, 69, 52
8, 285000, Note_on_c, 2, 57, 52
8, 285104, Note_on_c, 2, 69, 0
8, 285104, Note_on_c, 2, 57, 0
8, 285120, Note_on_c, 2, 62, 54
8, 285120, Note_on_c, 2, 74, 54
8, 285209, Note_on_c, 2, 62, 0
8, 285209, Note_on_c, 2, 74, 0
8, 285240, Note_on_c, 2, 76, 57
8, 285240, Note_on_c, 2, 64, 57
8, 285329, Note_on_c, 2, 76, 0
8, 285329, Note_on_c, 2, 64, 0
8, 285360, Note_on_c, 2, 77, 59
8, 285360, Note_on_c, 2, 65, 59
8, 285449, Note_on_c, 2, 77, 0
8, 285449, Note_on_c, 2, 65, 0
8, 285480, Note_on_c, 2, 81, 62
8, 285480, Note_on_c, 2, 69, 62
8, 285644, Note_on_c, 2, 81, 0
8, 285644, Note_on_c, 2, 69, 0
8, 285660, Note_on_c, 2, 57, 65
8, 285660, Note_on_c, 2, 69, 65
8, 285704, Note_on_c, 2, 57, 0
8, 285704, Note_on_c, 2, 69, 0
8, 285720, Note_on_c, 2, 57, 67
8, 285720, Note_on_c, 2, 69, 67
8, 285824, Note_on_c, 2, 57, 0
8, 285824, Note_on_c, 2, 69, 0
8, 285840, Note_on_c, 2, 74, 69
8, 285840, Note_on_c, 2, 62, 69
8, 285929, Note_on_c, 2, 74, 0
8, 285929, Note_on_c, 2, 62, 0
8, 285960, Note_on_c, 2, 76, 72
8, 285960, Note_on_c, 2, 64, 72
8, 286049, Note_on_c, 2, 76, 0
8, 286049, Note_on_c, 2, 64, 0
8, 286080, Note_on_c, 2, 77, 74
8, 286080, Note_on_c, 2, 65, 74
8, 286169, Note_on_c, 2, 77, 0
8, 286169, Note_on_c, 2, 65, 0
8, 286200, Note_on_c, 2, 81, 77
8, 286200, Note_on_c, 2, 69, 77
8, 286364, Note_on_c, 2, 81, 0
8, 286364, Note_on_c, 2, 69, 0
8, 286380, Note_on_c, 2, 57, 80
8, 286380, Note_on_c, 2, 69, 80
8, 286424, Note_on_c, 2, 57, 0
8, 286424, Note_on_c, 2, 69, 0
8, 286440, Note_on_c, 2, 69, 82
8, 286440, Note_on_c, 2, 57, 82
8, 286544, Note_on_c, 2, 69, 0
8, 286544, Note_on_c, 2, 57, 0
8, 286560, Note_on_c, 2, 74, 84
8, 286560, Note_on_c, 2, 62, 84
8, 286649, Note_on_c, 2, 74, 0
8, 286649, Note_on_c, 2, 62, 0
8, 286680, Note_on_c, 2, 64, 87
8, 286680, Note_on_c, 2, 76, 87
8, 286769, Note_on_c, 2, 64, 0
8, 286769, Note_on_c, 2, 76, 0
8, 286800, Note_on_c, 2, 65, 89
8, 286800, Note_on_c, 2, 77, 89
8, 286889, Note_on_c, 2, 65, 0
8, 286889, Note_on_c, 2, 77, 0
8, 286920, Note_on_c, 2, 81, 92
8, 287009, Note_on_c, 2, 81, 0
8, 287040, Note_on_c, 2, 69, 92
8, 287129, Note_on_c, 2, 69, 0
8, 287160, Note_on_c, 2, 74, 80
8, 287249, Note_on_c, 2, 74, 0
8, 287280, Note_on_c, 2, 62, 80
8, 287369, Note_on_c, 2, 62, 0
8, 287400, Note_on_c, 2, 69, 80
8, 287489, Note_on_c, 2, 69, 0
8, 287520, Note_on_c, 2, 57, 80
8, 287609, Note_on_c, 2, 57, 0
8, 287640, Note_on_c, 2, 81, 80
8, 287640, Note_on_c, 2, 69, 80
8, 287729, Note_on_c, 2, 81, 0
8, 287729, Note_on_c, 2, 69, 0
8, 287760, Note_on_c, 2, 69, 80
8, 287760, Note_on_c, 2, 57, 80
8, 287849, Note_on_c, 2, 69, 0
8, 287849, Note_on_c, 2, 57, 0
8, 287880, Note_on_c, 2, 74, 80
8, 287880, Control_c, 2, 11, 127
8, 287920, Control_c, 2, 11, 122
8, 287960, Control_c, 2, 11, 117
8, 288000, Control_c, 2, 11, 112
8, 288040, Control_c, 2, 11, 107
8, 288080, Control_c, 2, 11, 102
8, 288120, Control_c, 2, 11, 97
8, 288160, Control_c, 2, 11, 92
8, 288200, Control_c, 2, 11, 87
8, 288240, Control_c, 2, 11, 82
8, 288280, Control_c, 2, 11, 77
8, 288320, Control_c, 2, 11, 72
8, 288360, Control_c, 2, 11, 67
8, 288600, Note_on_c, 2, 76, 80
8, 288819, Note_on_c, 2, 76, 0
8, 288839, Note_on_c, 2, 74, 0
8, 288840, Note_on_c, 2, 74, 80
8, 288840, Note_on_c, 2, 78, 80
8, 289199, Note_on_c, 2, 74, 0
8, 289199, Note_on_c, 2, 78, 0
8, 289200, Note_on_c, 2, 79, 80
8, 289200, Note_on_c, 2, 76, 80
8, 289259, Note_on_c, 2, 79, 0
8, 289259, Note_on_c, 2, 76, 0
8, 289260, Note_on_c, 2, 78, 80
8, 289260, Note_on_c, 2, 81, 80
8, 289299, Note_on_c, 2, 78, 0
8, 289299, Note_on_c, 2, 81, 0
8, 289320, Note_on_c, 2, 79, 80
8, 289320, Note_on_c, 2, 74, 80
8, 289409, Note_on_c, 2, 79, 0
8, 289409, Note_on_c, 2, 74, 0
8, 289440, Note_on_c, 2, 76, 80
8, 289440, Note_on_c, 2, 79, 80
8, 289529, Note_on_c, 2, 76, 0
8, 289529, Note_on_c, 2, 79, 0
8, 289560, Note_on_c, 2, 74, 80
8, 289560, Note_on_c, 2, 78, 80
8, 289649, Note_on_c, 2, 74, 0
8, 289649, Note_on_c, 2, 78, 0
8, 289680, Note_on_c, 2, 62, 80
8, 289680, Note_on_c, 2, 78, 80
8, 289769, Note_on_c, 2, 62, 0
8, 289769, Note_on_c, 2, 78, 0
8, 289800, Note_on_c, 2, 73, 80
8, 289800, Note_on_c, 2, 76, 80
8, 289889, Note_on_c, 2, 73, 0
8, 289920, Note_on_c, 2, 67, 80
8, 290009, Note_on_c, 2, 67, 0
8, 290019, Note_on_c, 2, 76, 0
8, 290040, Note_on_c, 2, 66, 80
8, 290040, Note_on_c, 2, 74, 80
8, 290129, Note_on_c, 2, 66, 0
8, 290520, Note_on_c, 2, 76, 80
8, 290739, Note_on_c, 2, 76, 0
8, 290760, Note_on_c, 2, 78, 80
8, 291119, Note_on_c, 2, 74, 0
8, 291119, Note_on_c, 2, 78, 0
8, 291120, Note_on_c, 2, 76, 80
8, 291120, Note_on_c, 2, 79, 80
8, 291179, Note_on_c, 2, 76, 0
8, 291179, Note_on_c, 2, 79, 0
8, 291180, Note_on_c, 2, 78, 80
8, 291180, Note_on_c, 2, 81, 80
8, 291219, Note_on_c, 2, 78, 0
8, 291219, Note_on_c, 2, 81, 0
8, 291240, Note_on_c, 2, 74, 80
8, 291240, Note_on_c, 2, 79, 80
8, 291329, Note_on_c, 2, 74, 0
8, 291329, Note_on_c, 2, 79, 0
8, 291360, Note_on_c, 2, 79, 80
8, 291360, Note_on_c, 2, 76, 80
8, 291449, Note_on_c, 2, 79, 0
8, 291449, Note_on_c, 2, 76, 0
8, 291480, Note_on_c, 2, 78, 80
8, 291480, Note_on_c, 2, 62, 80
8, 291569, Note_on_c, 2, 78, 0
8, 291569, Note_on_c, 2, 62, 0
8, 291600, Note_on_c, 2, 74, 80
8, 291600, Note_on_c, 2, 78, 80
8, 291689, Note_on_c, 2, 74, 0
8, 291689, Note_on_c, 2, 78, 0
8, 291720, Note_on_c, 2, 76, 80
8, 291720, Note_on_c, 2, 73, 80
8, 291809, Note_on_c, 2, 76, 0
8, 291809, Note_on_c, 2, 73, 0
8, 291960, Note_on_c, 2, 74, 80
8, 292440, Note_on_c, 2, 76, 80
8, 292659, Note_on_c, 2, 76, 0
8, 292680, Note_on_c, 2, 78, 80
8, 293039, Note_on_c, 2, 74, 0
8, 293039, Note_on_c, 2, 78, 0
8, 293040, Note_on_c, 2, 76, 80
8, 293040, Note_on_c, 2, 79, 80
8, 293099, Note_on_c, 2, 76, 0
8, 293099, Note_on_c, 2, 79, 0
8, 293100, Note_on_c, 2, 78, 80
8, 293100, Note_on_c, 2, 81, 80
8, 293139, Note_on_c, 2, 78, 0
8, 293139, Note_on_c, 2, 81, 0
8, 293160, Note_on_c, 2, 74, 80
8, 293160, Note_on_c, 2, 79, 80
8, 293249, Note_on_c, 2, 74, 0
8, 293249, Note_on_c, 2, 79, 0
8, 293280, Note_on_c, 2, 76, 80
8, 293280, Note_on_c, 2, 79, 80
8, 293369, Note_on_c, 2, 76, 0
8, 293369, Note_on_c, 2, 79, 0
8, 293400, Note_on_c, 2, 74, 80
8, 293400, Note_on_c, 2, 78, 80
8, 293489, Note_on_c, 2, 74, 0
8, 293489, Note_on_c, 2, 78, 0
8, 293520, Note_on_c, 2, 78, 80
8, 293520, Note_on_c, 2, 62, 80
8, 293609, Note_on_c, 2, 78, 0
8, 293609, Note_on_c, 2, 62, 0
8, 293640, Note_on_c, 2, 73, 80
8, 293640, Note_on_c, 2, 76, 80
8, 293729, Note_on_c, 2, 73, 0
8, 293760, Note_on_c, 2, 67, 80
8, 293849, Note_on_c, 2, 67, 0
8, 293859, Note_on_c, 2, 76, 0
8, 293880, Note_on_c, 2, 66, 80
8, 293880, Note_on_c, 2, 74, 80
8, 293969, Note_on_c, 2, 66, 0
8, 294360, Note_on_c, 2, 76, 80
8, 294579, Note_on_c, 2, 76, 0
8, 294600, Note_on_c, 2, 78, 80
8, 294959, Note_on_c, 2, 74, 0
8, 294959, Note_on_c, 2, 78, 0
8, 294960, Note_on_c, 2, 79, 80
8, 294960, Note_on_c, 2, 76, 80
8, 295019, Note_on_c, 2, 79, 0
8, 295019, Note_on_c, 2, 76, 0
8, 295020, Note_on_c, 2, 81, 80
8, 295020, Note_on_c, 2, 78, 80
8, 295059, Note_on_c, 2, 81, 0
8, 295059, Note_on_c, 2, 78, 0
8, 295080, Note_on_c, 2, 79, 80
8, 295080, Note_on_c, 2, 74, 80
8, 295169, Note_on_c, 2, 79, 0
8, 295169, Note_on_c, 2, 74, 0
8, 295200, Note_on_c, 2, 79, 80
8, 295200, Note_on_c, 2, 76, 80
8, 295289, Note_on_c, 2, 79, 0
8, 295289, Note_on_c, 2, 76, 0
8, 295320, Note_on_c, 2, 78, 80
8, 295320, Note_on_c, 2, 62, 80
8, 295409, Note_on_c, 2, 78, 0
8, 295409, Note_on_c, 2, 62, 0
8, 295440, Note_on_c, 2, 74, 80
8, 295440, Note_on_c, 2, 78, 80
8, 295529, Note_on_c, 2, 74, 0
8, 295529, Note_on_c, 2, 78, 0
8, 295560, Note_on_c, 2, 76, 80
8, 295560, Note_on_c, 2, 73, 80
8, 295649, Note_on_c, 2, 76, 0
8, 295649, Note_on_c, 2, 73, 0
8, 297960, Control_c, 2, 11, 121
8, 298440, Control_c, 2, 11, 122
8, 298440, Note_on_c, 2, 69, 68
8, 298488, Control_c, 2, 11, 123
8, 298536, Control_c, 2, 11, 124
8, 298584, Control_c, 2, 11, 125
8, 298632, Control_c, 2, 11, 127
8, 298679, Note_on_c, 2, 69, 0
8, 298680, Note_on_c, 2, 67, 68
8, 298680, Note_on_c, 2, 71, 68
8, 298799, Note_on_c, 2, 67, 0
8, 298799, Note_on_c, 2, 71, 0
8, 298800, Note_on_c, 2, 67, 56
8, 298800, Note_on_c, 2, 64, 56
8, 298899, Note_on_c, 2, 67, 0
8, 298899, Note_on_c, 2, 64, 0
8, 298920, Note_on_c, 2, 62, 44
8, 298920, Note_on_c, 2, 66, 44
8, 299039, Note_on_c, 2, 62, 0
8, 299039, Note_on_c, 2, 66, 0
8, 299160, Note_on_c, 2, 61, 44
8, 299160, Note_on_c, 2, 64, 44
8, 299279, Note_on_c, 2, 61, 0
8, 299279, Note_on_c, 2, 64, 0
8, 299400, Note_on_c, 2, 62, 44
8, 299499, Note_on_c, 2, 62, 0
8, 299520, Note_on_c, 2, 78, 38
8, 299639, Note_on_c, 2, 78, 0
8, 299640, Note_on_c, 2, 74, 38
8, 299759, Note_on_c, 2, 74, 0
8, 299760, Note_on_c, 2, 73, 38
8, 299879, Note_on_c, 2, 73, 0
8, 299880, Note_on_c, 2, 74, 38
8, 299999, Note_on_c, 2, 74, 0
8, 300000, Note_on_c, 2, 76, 38
8, 300119, Note_on_c, 2, 76, 0
8, 300120, Note_on_c, 2, 78, 38
8, 300239, Note_on_c, 2, 78, 0
8, 300240, Note_on_c, 2, 79, 38
8, 300339, Note_on_c, 2, 79, 0
8, 300360, Note_on_c, 2, 76, 38
8, 300479, Note_on_c, 2, 76, 0
8, 301260, Control_c, 2, 11, 104
8, 301320, Control_c, 2, 11, 105
8, 301320, Note_on_c, 2, 69, 68
8, 301380, Control_c, 2, 11, 106
8, 301440, Control_c, 2, 11, 107
8, 301500, Control_c, 2, 11, 108
8, 301560, Control_c, 2, 11, 109
8, 301620, Control_c, 2, 11, 110
8, 301680, Control_c, 2, 11, 111
8, 301740, Control_c, 2, 11, 113
8, 301800, Control_c, 2, 11, 114
8, 301860, Control_c, 2, 11, 115
8, 301920, Control_c, 2, 11, 116
8, 301980, Control_c, 2, 11, 117
8, 302040, Control_c, 2, 11, 118
8, 302100, Control_c, 2, 11, 119
8, 302160, Control_c, 2, 11, 120
8, 302220, Control_c, 2, 11, 121
8, 302280, Control_c, 2, 11, 123
8, 302340, Control_c, 2, 11, 124
8, 302400, Control_c, 2, 11, 125
8, 302460, Control_c, 2, 11, 127
8, 302519, Note_on_c, 2, 69, 0
8, 302520, Note_on_c, 2, 71, 68
8, 302639, Note_on_c, 2, 71, 0
8, 302640, Note_on_c, 2, 67, 56
8, 302739, Note_on_c, 2, 67, 0
8, 302760, Note_on_c, 2, 66, 44
8, 302879, Note_on_c, 2, 66, 0
8, 303000, Note_on_c, 2, 64, 44
8, 303119, Note_on_c, 2, 64, 0
8, 303240, Note_on_c, 2, 62, 44
8, 303359, Note_on_c, 2, 62, 0
8, 315720, Control_c, 2, 11, 87
8, 315960, Note_on_c, 2, 73, 68
8, 316419, Note_on_c, 2, 73, 0
8, 316440, Note_on_c, 2, 74, 68
8, 316659, Note_on_c, 2, 74, 0
8, 316680, Note_on_c, 2, 76, 68
8, 316899, Note_on_c, 2, 76, 0
8, 316920, Control_c, 2, 11, 87
8, 316920, Note_on_c, 2, 76, 68
8, 316980, Control_c, 2, 11, 88
8, 317040, Control_c, 2, 11, 89
8, 317100, Control_c, 2, 11, 90
8, 317160, Control_c, 2, 11, 91
8, 317220, Control_c, 2, 11, 92
8, 317280, Control_c, 2, 11, 93
8, 317340, Control_c, 2, 11, 94
8, 317379, Note_on_c, 2, 76, 0
8, 317400, Control_c, 2, 11, 95
8, 317400, Note_on_c, 2, 76, 68
8, 317460, Control_c, 2, 11, 96
8, 317520, Control_c, 2, 11, 97
8, 317580, Control_c, 2, 11, 98
8, 317640, Control_c, 2, 11, 99
8, 317700, Control_c, 2, 11, 100
8, 317760, Control_c, 2, 11, 101
8, 317820, Control_c, 2, 11, 102
8, 317859, Note_on_c, 2, 76, 0
8, 317880, Control_c, 2, 11, 103
8, 317880, Note_on_c, 2, 76, 68
8, 317940, Control_c, 2, 11, 104
8, 318000, Control_c, 2, 11, 105
8, 318060, Control_c, 2, 11, 106
8, 318120, Control_c, 2, 11, 107
8, 318180, Control_c, 2, 11, 108
8, 318240, Control_c, 2, 11, 109
8, 318300, Control_c, 2, 11, 110
8, 318339, Note_on_c, 2, 76, 0
8, 318360, Note_on_c, 2, 76, 68
8, 318360, Control_c, 2, 11, 111
8, 318420, Control_c, 2, 11, 112
8, 318480, Control_c, 2, 11, 113
8, 318540, Control_c, 2, 11, 114
8, 318600, Control_c, 2, 11, 115
8, 318660, Control_c, 2, 11, 116
8, 318720, Control_c, 2, 11, 117
8, 318780, Control_c, 2, 11, 118
8, 318819, Note_on_c, 2, 76, 0
8, 318840, Note_on_c, 2, 76, 68
8, 318840, Control_c, 2, 11, 119
8, 318900, Control_c, 2, 11, 120
8, 318960, Control_c, 2, 11, 121
8, 319020, Control_c, 2, 11, 122
8, 319080, Control_c, 2, 11, 123
8, 319140, Control_c, 2, 11, 124
8, 319200, Control_c, 2, 11, 125
8, 319299, Note_on_c, 2, 76, 0
8, 319318, Control_c, 2, 11, 67
8, 319320, Note_on_c, 2, 76, 80
8, 319779, Note_on_c, 2, 76, 0
8, 319800, Note_on_c, 2, 67, 80
8, 320039, Note_on_c, 2, 67, 0
8, 320040, Note_on_c, 2, 69, 80
8, 320279, Note_on_c, 2, 69, 0
8, 320280, Note_on_c, 2, 67, 80
8, 320280, Control_c, 2, 11, 67
8, 320320, Control_c, 2, 11, 70
8, 320360, Control_c, 2, 11, 74
8, 320400, Control_c, 2, 11, 77
8, 320440, Control_c, 2, 11, 80
8, 320480, Control_c, 2, 11, 84
8, 320520, Control_c, 2, 11, 87
8, 320520, Note_on_c, 2, 64, 80
8, 320560, Control_c, 2, 11, 90
8, 320600, Control_c, 2, 11, 94
8, 320639, Note_on_c, 2, 67, 0
8, 320639, Note_on_c, 2, 64, 0
8, 320640, Note_on_c, 2, 67, 80
8, 320640, Note_on_c, 2, 76, 80
8, 320640, Control_c, 2, 11, 97
8, 320680, Control_c, 2, 11, 100
8, 320720, Control_c, 2, 11, 104
8, 320760, Control_c, 2, 11, 107
8, 320800, Control_c, 2, 11, 110
8, 320840, Control_c, 2, 11, 114
8, 320879, Note_on_c, 2, 67, 0
8, 320879, Note_on_c, 2, 76, 0
8, 320880, Note_on_c, 2, 66, 80
8, 320880, Control_c, 2, 11, 117
8, 320880, Note_on_c, 2, 74, 80
8, 320920, Control_c, 2, 11, 120
8, 320960, Control_c, 2, 11, 124
8, 320979, Note_on_c, 2, 66, 0
8, 320979, Note_on_c, 2, 74, 0
8, 320998, Control_c, 2, 11, 127
8, 321000, Note_on_c, 2, 66, 80
8, 321000, Note_on_c, 2, 74, 80
8, 321060, Control_c, 2, 11, 67
8, 321119, Note_on_c, 2, 66, 0
8, 321119, Note_on_c, 2, 74, 0
8, 324840, Control_c, 2, 11, 127
8, 325080, Note_on_c, 2, 62, 80
8, 325080, Note_on_c, 2, 74, 80
8, 325539, Note_on_c, 2, 62, 0
8, 325539, Note_on_c, 2, 74, 0
8, 325560, Note_on_c, 2, 76, 80
8, 325560, Note_on_c, 2, 64, 80
8, 325779, Note_on_c, 2, 76, 0
8, 325779, Note_on_c, 2, 64, 0
8, 325800, Note_on_c, 2, 66, 80
8, 325800, Note_on_c, 2, 78, 80
8, 326159, Note_on_c, 2, 66, 0
8, 326159, Note_on_c, 2, 78, 0
8, 326160, Note_on_c, 2, 67, 80
8, 326160, Note_on_c, 2, 79, 80
8, 326219, Note_on_c, 2, 67, 0
8, 326219, Note_on_c, 2, 79, 0
8, 326220, Note_on_c, 2, 69, 80
8, 326220, Note_on_c, 2, 81, 80
8, 326259, Note_on_c, 2, 69, 0
8, 326259, Note_on_c, 2, 81, 0
8, 326280, Note_on_c, 2, 67, 80
8, 326280, Note_on_c, 2, 79, 80
8, 326369, Note_on_c, 2, 67, 0
8, 326369, Note_on_c, 2, 79, 0
8, 326400, Note_on_c, 2, 67, 80
8, 326400, Note_on_c, 2, 79, 80
8, 326489, Note_on_c, 2, 67, 0
8, 326489, Note_on_c, 2, 79, 0
8, 326520, Note_on_c, 2, 78, 80
8, 326520, Note_on_c, 2, 66, 80
8, 326609, Note_on_c, 2, 78, 0
8, 326609, Note_on_c, 2, 66, 0
8, 326640, Note_on_c, 2, 78, 80
8, 326640, Note_on_c, 2, 66, 80
8, 326729, Note_on_c, 2, 78, 0
8, 326729, Note_on_c, 2, 66, 0
8, 326760, Note_on_c, 2, 64, 80
8, 326760, Note_on_c, 2, 76, 80
8, 326979, Note_on_c, 2, 64, 0
8, 326979, Note_on_c, 2, 76, 0
8, 327000, Note_on_c, 2, 74, 80
8, 327000, Note_on_c, 2, 62, 80
8, 327459, Note_on_c, 2, 74, 0
8, 327459, Note_on_c, 2, 62, 0
8, 327480, Note_on_c, 2, 76, 80
8, 327480, Note_on_c, 2, 64, 80
8, 327699, Note_on_c, 2, 76, 0
8, 327699, Note_on_c, 2, 64, 0
8, 327720, Note_on_c, 2, 66, 80
8, 327720, Note_on_c, 2, 78, 80
8, 328079, Note_on_c, 2, 66, 0
8, 328079, Note_on_c, 2, 78, 0
8, 328080, Note_on_c, 2, 67, 80
8, 328080, Note_on_c, 2, 79, 80
8, 328139, Note_on_c, 2, 67, 0
8, 328139, Note_on_c, 2, 79, 0
8, 328140, Note_on_c, 2, 69, 80
8, 328140, Note_on_c, 2, 81, 80
8, 328179, Note_on_c, 2, 69, 0
8, 328179, Note_on_c, 2, 81, 0
8, 328200, Note_on_c, 2, 67, 80
8, 328200, Note_on_c, 2, 79, 80
8, 328289, Note_on_c, 2, 67, 0
8, 328289, Note_on_c, 2, 79, 0
8, 328320, Note_on_c, 2, 79, 80
8, 328320, Note_on_c, 2, 67, 80
8, 328409, Note_on_c, 2, 79, 0
8, 328409, Note_on_c, 2, 67, 0
8, 328440, Note_on_c, 2, 66, 80
8, 328440, Note_on_c, 2, 78, 80
8, 328529, Note_on_c, 2, 66, 0
8, 328529, Note_on_c, 2, 78, 0
8, 328560, Note_on_c, 2, 66, 80
8, 328560, Note_on_c, 2, 78, 80
8, 328649, Note_on_c, 2, 66, 0
8, 328649, Note_on_c, 2, 78, 0
8, 328680, Note_on_c, 2, 66, 80
8, 328680, Note_on_c, 2, 74, 80
8, 328799, Note_on_c, 2, 66, 0
8, 328799, Note_on_c, 2, 74, 0
8, 331080, Control_c, 2, 11, 121
8, 331560, Control_c, 2, 11, 122
8, 331560, Note_on_c, 2, 69, 68
8, 331608, Control_c, 2, 11, 123
8, 331656, Control_c, 2, 11, 124
8, 331704, Control_c, 2, 11, 125
8, 331752, Control_c, 2, 11, 127
8, 331799, Note_on_c, 2, 69, 0
8, 331800, Note_on_c, 2, 71, 68
8, 331800, Note_on_c, 2, 67, 68
8, 331919, Note_on_c, 2, 71, 0
8, 331919, Note_on_c, 2, 67, 0
8, 331920, Note_on_c, 2, 64, 56
8, 331920, Note_on_c, 2, 67, 56
8, 332019, Note_on_c, 2, 64, 0
8, 332019, Note_on_c, 2, 67, 0
8, 332040, Note_on_c, 2, 62, 44
8, 332040, Note_on_c, 2, 66, 44
8, 332159, Note_on_c, 2, 62, 0
8, 332159, Note_on_c, 2, 66, 0
8, 332280, Note_on_c, 2, 61, 44
8, 332280, Note_on_c, 2, 64, 44
8, 332399, Note_on_c, 2, 61, 0
8, 332399, Note_on_c, 2, 64, 0
8, 332520, Note_on_c, 2, 62, 44
8, 332619, Note_on_c, 2, 62, 0
8, 332640, Note_on_c, 2, 78, 38
8, 332759, Note_on_c, 2, 78, 0
8, 332760, Note_on_c, 2, 74, 38
8, 332879, Note_on_c, 2, 74, 0
8, 332880, Note_on_c, 2, 73, 38
8, 332999, Note_on_c, 2, 73, 0
8, 333000, Note_on_c, 2, 74, 38
8, 333119, Note_on_c, 2, 74, 0
8, 333120, Note_on_c, 2, 76, 38
8, 333239, Note_on_c, 2, 76, 0
8, 333240, Note_on_c, 2, 78, 38
8, 333359, Note_on_c, 2, 78, 0
8, 333360, Note_on_c, 2, 79, 38
8, 333459, Note_on_c, 2, 79, 0
8, 333480, Note_on_c, 2, 76, 38
8, 333599, Note_on_c, 2, 76, 0
8, 334380, Control_c, 2, 11, 104
8, 334440, Control_c, 2, 11, 105
8, 334440, Note_on_c, 2, 69, 68
8, 334500, Control_c, 2, 11, 106
8, 334560, Control_c, 2, 11, 107
8, 334620, Control_c, 2, 11, 108
8, 334680, Control_c, 2, 11, 109
8, 334740, Control_c, 2, 11, 110
8, 334800, Control_c, 2, 11, 111
8, 334860, Control_c, 2, 11, 113
8, 334920, Control_c, 2, 11, 114
8, 334980, Control_c, 2, 11, 115
8, 335040, Control_c, 2, 11, 116
8, 335100, Control_c, 2, 11, 117
8, 335160, Control_c, 2, 11, 118
8, 335220, Control_c, 2, 11, 119
8, 335280, Control_c, 2, 11, 120
8, 335340, Control_c, 2, 11, 121
8, 335400, Control_c, 2, 11, 123
8, 335460, Control_c, 2, 11, 124
8, 335520, Control_c, 2, 11, 125
8, 335580, Control_c, 2, 11, 127
8, 335639, Note_on_c, 2, 69, 0
8, 335640, Note_on_c, 2, 71, 68
8, 335759, Note_on_c, 2, 71, 0
8, 335760, Note_on_c, 2, 67, 56
8, 335859, Note_on_c, 2, 67, 0
8, 335880, Note_on_c, 2, 66, 44
8, 335999, Note_on_c, 2, 66, 0
8, 336120, Note_on_c, 2, 64, 44
8, 336239, Note_on_c, 2, 64, 0
8, 336360, Note_on_c, 2, 62, 44
8, 336479, Note_on_c, 2, 62, 0
8, 348840, Control_c, 2, 11, 87
8, 349080, Note_on_c, 2, 73, 68
8, 349539, Note_on_c, 2, 73, 0
8, 349560, Note_on_c, 2, 74, 68
8, 349779, Note_on_c, 2, 74, 0
8, 349800, Note_on_c, 2, 76, 68
8, 350019, Note_on_c, 2, 76, 0
8, 350040, Control_c, 2, 11, 87
8, 350040, Note_on_c, 2, 76, 68
8, 350100, Control_c, 2, 11, 88
8, 350160, Control_c, 2, 11, 89
8, 350220, Control_c, 2, 11, 90
8, 350280, Control_c, 2, 11, 91
8, 350340, Control_c, 2, 11, 92
8, 350400, Control_c, 2, 11, 93
8, 350460, Control_c, 2, 11, 94
8, 350499, Note_on_c, 2, 76, 0
8, 350520, Note_on_c, 2, 76, 68
8, 350520, Control_c, 2, 11, 95
8, 350580, Control_c, 2, 11, 96
8, 350640, Control_c, 2, 11, 97
8, 350700, Control_c, 2, 11, 98
8, 350760, Control_c, 2, 11, 99
8, 350820, Control_c, 2, 11, 100
8, 350880, Control_c, 2, 11, 101
8, 350940, Control_c, 2, 11, 102
8, 350979, Note_on_c, 2, 76, 0
8, 351000, Note_on_c, 2, 76, 68
8, 351000, Control_c, 2, 11, 103
8, 351060, Control_c, 2, 11, 104
8, 351120, Control_c, 2, 11, 105
8, 351180, Control_c, 2, 11, 106
8, 351240, Control_c, 2, 11, 107
8, 351300, Control_c, 2, 11, 108
8, 351360, Control_c, 2, 11, 109
8, 351420, Control_c, 2, 11, 110
8, 351459, Note_on_c, 2, 76, 0
8, 351480, Note_on_c, 2, 76, 68
8, 351480, Control_c, 2, 11, 111
8, 351540, Control_c, 2, 11, 112
8, 351600, Control_c, 2, 11, 113
8, 351660, Control_c, 2, 11, 114
8, 351720, Control_c, 2, 11, 115
8, 351780, Control_c, 2, 11, 116
8, 351840, Control_c, 2, 11, 117
8, 351900, Control_c, 2, 11, 118
8, 351939, Note_on_c, 2, 76, 0
8, 351960, Note_on_c, 2, 76, 68
8, 351960, Control_c, 2, 11, 119
8, 352020, Control_c, 2, 11, 120
8, 352080, Control_c, 2, 11, 121
8, 352140, Control_c, 2, 11, 122
8, 352200, Control_c, 2, 11, 123
8, 352260, Control_c, 2, 11, 124
8, 352320, Control_c, 2, 11, 125
8, 352419, Note_on_c, 2, 76, 0
8, 352438, Control_c, 2, 11, 67
8, 352440, Note_on_c, 2, 76, 80
8, 352899, Note_on_c, 2, 76, 0
8, 352920, Note_on_c, 2, 67, 80
8, 353159, Note_on_c, 2, 67, 0
8, 353160, Note_on_c, 2, 69, 80
8, 353399, Note_on_c, 2, 69, 0
8, 353400, Note_on_c, 2, 67, 80
8, 353400, Control_c, 2, 11, 67
8, 353440, Control_c, 2, 11, 70
8, 353480, Control_c, 2, 11, 74
8, 353520, Control_c, 2, 11, 77
8, 353560, Control_c, 2, 11, 80
8, 353600, Control_c, 2, 11, 84
8, 353640, Control_c, 2, 11, 87
8, 353640, Note_on_c, 2, 64, 80
8, 353680, Control_c, 2, 11, 90
8, 353720, Control_c, 2, 11, 94
8, 353759, Note_on_c, 2, 67, 0
8, 353759, Note_on_c, 2, 64, 0
8, 353760, Note_on_c, 2, 76, 80
8, 353760, Control_c, 2, 11, 97
8, 353760, Note_on_c, 2, 67, 80
8, 353800, Control_c, 2, 11, 100
8, 353840, Control_c, 2, 11, 104
8, 353880, Control_c, 2, 11, 107
8, 353920, Control_c, 2, 11, 110
8, 353960, Control_c, 2, 11, 114
8, 353999, Note_on_c, 2, 76, 0
8, 353999, Note_on_c, 2, 67, 0
8, 354000, Note_on_c, 2, 74, 80
8, 354000, Note_on_c, 2, 66, 80
8, 354000, Control_c, 2, 11, 117
8, 354040, Control_c, 2, 11, 120
8, 354080, Control_c, 2, 11, 124
8, 354099, Note_on_c, 2, 74, 0
8, 354099, Note_on_c, 2, 66, 0
8, 354118, Control_c, 2, 11, 127
8, 354120, Note_on_c, 2, 74, 80
8, 354120, Note_on_c, 2, 66, 80
8, 354180, Control_c, 2, 11, 67
8, 354239, Note_on_c, 2, 74, 0
8, 354239, Note_on_c, 2, 66, 0
8, 357960, Control_c, 2, 11, 127
8, 358200, Note_on_c, 2, 62, 80
8, 358200, Note_on_c, 2, 74, 80
8, 358659, Note_on_c, 2, 62, 0
8, 358659, Note_on_c, 2, 74, 0
8, 358680, Note_on_c, 2, 76, 80
8, 358680, Note_on_c, 2, 64, 80
8, 358899, Note_on_c, 2, 76, 0
8, 358899, Note_on_c, 2, 64, 0
8, 358920, Note_on_c, 2, 66, 80
8, 358920, Note_on_c, 2, 78, 80
8, 359279, Note_on_c, 2, 66, 0
8, 359279, Note_on_c, 2, 78, 0
8, 359280, Note_on_c, 2, 79, 80
8, 359280, Note_on_c, 2, 67, 80
8, 359339, Note_on_c, 2, 79, 0
8, 359339, Note_on_c, 2, 67, 0
8, 359340, Note_on_c, 2, 81, 80
8, 359340, Note_on_c, 2, 69, 80
8, 359379, Note_on_c, 2, 81, 0
8, 359379, Note_on_c, 2, 69, 0
8, 359400, Note_on_c, 2, 79, 80
8, 359400, Note_on_c, 2, 67, 80
8, 359489, Note_on_c, 2, 79, 0
8, 359489, Note_on_c, 2, 67, 0
8, 359520, Note_on_c, 2, 67, 80
8, 359520, Note_on_c, 2, 79, 80
8, 359609, Note_on_c, 2, 67, 0
8, 359609, Note_on_c, 2, 79, 0
8, 359640, Note_on_c, 2, 78, 80
8, 359640, Note_on_c, 2, 66, 80
8, 359729, Note_on_c, 2, 78, 0
8, 359729, Note_on_c, 2, 66, 0
8, 359760, Note_on_c, 2, 78, 80
8, 359760, Note_on_c, 2, 66, 80
8, 359849, Note_on_c, 2, 78, 0
8, 359849, Note_on_c, 2, 66, 0
8, 359880, Note_on_c, 2, 76, 80
8, 359880, Note_on_c, 2, 64, 80
8, 360099, Note_on_c, 2, 76, 0
8, 360099, Note_on_c, 2, 64, 0
8, 360120, Note_on_c, 2, 74, 80
8, 360120, Note_on_c, 2, 62, 80
8, 360579, Note_on_c, 2, 74, 0
8, 360579, Note_on_c, 2, 62, 0
8, 360600, Note_on_c, 2, 64, 80
8, 360600, Note_on_c, 2, 76, 80
8, 360819, Note_on_c, 2, 64, 0
8, 360819, Note_on_c, 2, 76, 0
8, 360840, Note_on_c, 2, 66, 80
8, 360840, Note_on_c, 2, 78, 80
8, 361199, Note_on_c, 2, 66, 0
8, 361199, Note_on_c, 2, 78, 0
8, 361200, Note_on_c, 2, 79, 80
8, 361200, Note_on_c, 2, 67, 80
8, 361259, Note_on_c, 2, 79, 0
8, 361259, Note_on_c, 2, 67, 0
8, 361260, Note_on_c, 2, 69, 80
8, 361260, Note_on_c, 2, 81, 80
8, 361299, Note_on_c, 2, 69, 0
8, 361299, Note_on_c, 2, 81, 0
8, 361320, Note_on_c, 2, 67, 80
8, 361320, Note_on_c, 2, 79, 80
8, 361409, Note_on_c, 2, 67, 0
8, 361409, Note_on_c, 2, 79, 0
8, 361440, Note_on_c, 2, 67, 80
8, 361440, Note_on_c, 2, 79, 80
8, 361529, Note_on_c, 2, 67, 0
8, 361529, Note_on_c, 2, 79, 0
8, 361560, Note_on_c, 2, 78, 80
8, 361560, Note_on_c, 2, 66, 80
8, 361649, Note_on_c, 2, 78, 0
8, 361649, Note_on_c, 2, 66, 0
8, 361680, Note_on_c, 2, 78, 80
8, 361680, Note_on_c, 2, 66, 80
8, 361769, Note_on_c, 2, 78, 0
8, 361769, Note_on_c, 2, 66, 0
8, 361800, Note_on_c, 2, 62, 80
8, 361860, Control_c, 2, 11, 67
8, 362039, Note_on_c, 2, 62, 0
8, 362040, Note_on_c, 2, 62, 80
8, 362519, Note_on_c, 2, 62, 0
8, 362520, Note_on_c, 2, 64, 80
8, 362759, Note_on_c, 2, 64, 0
8, 362760, Note_on_c, 2, 66, 80
8, 363119, Note_on_c, 2, 66, 0
8, 363120, Note_on_c, 2, 67, 80
8, 363179, Note_on_c, 2, 67, 0
8, 363180, Note_on_c, 2, 69, 80
8, 363219, Note_on_c, 2, 69, 0
8, 363240, Note_on_c, 2, 67, 80
8, 363329, Note_on_c, 2, 67, 0
8, 363360, Note_on_c, 2, 67, 80
8, 363449, Note_on_c, 2, 67, 0
8, 363480, Note_on_c, 2, 66, 80
8, 363569, Note_on_c, 2, 66, 0
8, 363600, Note_on_c, 2, 66, 80
8, 363689, Note_on_c, 2, 66, 0
8, 363720, Note_on_c, 2, 64, 80
8, 363939, Note_on_c, 2, 64, 0
8, 363960, Control_c, 2, 11, 67
8, 363960, Note_on_c, 2, 62, 80
8, 364020, Control_c, 2, 11, 68
8, 364080, Control_c, 2, 11, 69
8, 364140, Control_c, 2, 11, 70
8, 364200, Control_c, 2, 11, 71
8, 364260, Control_c, 2, 11, 72
8, 364320, Control_c, 2, 11, 73
8, 364380, Control_c, 2, 11, 74
8, 364419, Note_on_c, 2, 62, 0
8, 364440, Note_on_c, 2, 64, 80
8, 364440, Control_c, 2, 11, 75
8, 364500, Control_c, 2, 11, 76
8, 364560, Control_c, 2, 11, 77
8, 364620, Control_c, 2, 11, 78
8, 364659, Note_on_c, 2, 64, 0
8, 364680, Note_on_c, 2, 66, 80
8, 364680, Control_c, 2, 11, 79
8, 364740, Control_c, 2, 11, 80
8, 364800, Control_c, 2, 11, 81
8, 364860, Control_c, 2, 11, 82
8, 364899, Note_on_c, 2, 66, 0
8, 364920, Note_on_c, 2, 62, 80
8, 364920, Control_c, 2, 11, 83
8, 364980, Control_c, 2, 11, 84
8, 365040, Control_c, 2, 11, 85
8, 365100, Control_c, 2, 11, 86
8, 365160, Control_c, 2, 11, 87
8, 365220, Control_c, 2, 11, 88
8, 365280, Control_c, 2, 11, 89
8, 365340, Control_c, 2, 11, 90
8, 365400, Control_c, 2, 11, 91
8, 365460, Control_c, 2, 11, 92
8, 365520, Control_c, 2, 11, 93
8, 365580, Control_c, 2, 11, 94
8, 365640, Control_c, 2, 11, 95
8, 365700, Control_c, 2, 11, 96
8, 365760, Control_c, 2, 11, 97
8, 365820, Control_c, 2, 11, 98
8, 365880, Control_c, 2, 11, 99
8, 365940, Control_c, 2, 11, 100
8, 366000, Control_c, 2, 11, 101
8, 366060, Control_c, 2, 11, 102
8, 366120, Control_c, 2, 11, 103
8, 366180, Control_c, 2, 11, 104
8, 366240, Control_c, 2, 11, 105
8, 366300, Control_c, 2, 11, 106
8, 366360, Control_c, 2, 11, 107
8, 366420, Control_c, 2, 11, 108
8, 366480, Control_c, 2, 11, 109
8, 366540, Control_c, 2, 11, 110
8, 366600, Control_c, 2, 11, 111
8, 366660, Control_c, 2, 11, 112
8, 366720, Control_c, 2, 11, 113
8, 366780, Control_c, 2, 11, 114
8, 366819, Note_on_c, 2, 62, 0
8, 366840, Note_on_c, 2, 66, 80
8, 366840, Note_on_c, 2, 57, 80
8, 366840, Control_c, 2, 11, 115
8, 366900, Control_c, 2, 11, 116
8, 366960, Control_c, 2, 11, 117
8, 367020, Control_c, 2, 11, 118
8, 367080, Control_c, 2, 11, 119
8, 367140, Control_c, 2, 11, 120
8, 367200, Control_c, 2, 11, 121
8, 367260, Control_c, 2, 11, 122
8, 367299, Note_on_c, 2, 66, 0
8, 367299, Note_on_c, 2, 57, 0
8, 367320, Note_on_c, 2, 67, 80
8, 367320, Note_on_c, 2, 55, 80
8, 367320, Control_c, 2, 11, 123
8, 367380, Control_c, 2, 11, 124
8, 367440, Control_c, 2, 11, 125
8, 367499, Note_on_c, 2, 67, 0
8, 367499, Note_on_c, 2, 55, 0
8, 367500, Control_c, 2, 11, 127
8, 367560, Note_on_c, 2, 69, 80
8, 367560, Note_on_c, 2, 54, 80
8, 367739, Note_on_c, 2, 69, 0
8, 367739, Note_on_c, 2, 54, 0
8, 367800, Note_on_c, 2, 66, 80
8, 367979, Note_on_c, 2, 66, 0
8, 368040, Note_on_c, 2, 64, 80
8, 368219, Note_on_c, 2, 64, 0
8, 368280, Note_on_c, 2, 64, 80
8, 368459, Note_on_c, 2, 64, 0
8, 368520, Note_on_c, 2, 66, 80
8, 368520, Control_c, 2, 11, 127
8, 368560, Control_c, 2, 11, 125
8, 368600, Control_c, 2, 11, 122
8, 368640, Control_c, 2, 11, 120
8, 368680, Control_c, 2, 11, 117
8, 368699, Note_on_c, 2, 66, 0
8, 368720, Control_c, 2, 11, 115
8, 368760, Note_on_c, 2, 66, 80
8, 368760, Control_c, 2, 11, 112
8, 368800, Control_c, 2, 11, 110
8, 368840, Control_c, 2, 11, 107
8, 368880, Control_c, 2, 11, 105
8, 368920, Control_c, 2, 11, 102
8, 368939, Note_on_c, 2, 66, 0
8, 368960, Control_c, 2, 11, 100
8, 369000, Note_on_c, 2, 64, 80
8, 369000, Control_c, 2, 11, 97
8, 369040, Control_c, 2, 11, 95
8, 369080, Control_c, 2, 11, 92
8, 369120, Control_c, 2, 11, 90
8, 369160, Control_c, 2, 11, 87
8, 369179, Note_on_c, 2, 64, 0
8, 369200, Control_c, 2, 11, 85
8, 369240, Note_on_c, 2, 64, 80
8, 369240, Control_c, 2, 11, 82
8, 369280, Control_c, 2, 11, 80
8, 369320, Control_c, 2, 11, 77
8, 369360, Control_c, 2, 11, 75
8, 369400, Control_c, 2, 11, 72
8, 369419, Note_on_c, 2, 64, 0
8, 369440, Control_c, 2, 11, 67
8, 369480, Note_on_c, 2, 66, 80
8, 369659, Note_on_c, 2, 66, 0
8, 369718, Control_c, 2, 11, 47
8, 369720, Control_c, 2, 11, 47
8, 369720, Note_on_c, 2, 62, 92
8, 369765, Control_c, 2, 11, 48
8, 369810, Control_c, 2, 11, 49
8, 369855, Control_c, 2, 11, 50
8, 369900, Control_c, 2, 11, 51
8, 369945, Control_c, 2, 11, 52
8, 369990, Control_c, 2, 11, 53
8, 370035, Control_c, 2, 11, 54
8, 370080, Control_c, 2, 11, 55
8, 370125, Control_c, 2, 11, 56
8, 370170, Control_c, 2, 11, 57
8, 370179, Note_on_c, 2, 62, 0
8, 370200, Note_on_c, 2, 64, 92
8, 370215, Control_c, 2, 11, 58
8, 370260, Control_c, 2, 11, 59
8, 370305, Control_c, 2, 11, 60
8, 370350, Control_c, 2, 11, 61
8, 370395, Control_c, 2, 11, 62
8, 370419, Note_on_c, 2, 64, 0
8, 370440, Control_c, 2, 11, 63
8, 370440, Note_on_c, 2, 66, 92
8, 370485, Control_c, 2, 11, 64
8, 370530, Control_c, 2, 11, 65
8, 370575, Control_c, 2, 11, 66
8, 370620, Control_c, 2, 11, 67
8, 370659, Note_on_c, 2, 66, 0
8, 370665, Control_c, 2, 11, 68
8, 370680, Note_on_c, 2, 74, 92
8, 370680, Note_on_c, 2, 62, 92
8, 370710, Control_c, 2, 11, 69
8, 370755, Control_c, 2, 11, 70
8, 370800, Control_c, 2, 11, 71
8, 370845, Control_c, 2, 11, 72
8, 370890, Control_c, 2, 11, 73
8, 370935, Control_c, 2, 11, 74
8, 370980, Control_c, 2, 11, 75
8, 371025, Control_c, 2, 11, 76
8, 371070, Control_c, 2, 11, 77
8, 371115, Control_c, 2, 11, 78
8, 371139, Note_on_c, 2, 74, 0
8, 371139, Note_on_c, 2, 62, 0
8, 371160, Control_c, 2, 11, 79
8, 371160, Note_on_c, 2, 64, 92
8, 371160, Note_on_c, 2, 76, 92
8, 371205, Control_c, 2, 11, 80
8, 371250, Control_c, 2, 11, 81
8, 371295, Control_c, 2, 11, 82
8, 371340, Control_c, 2, 11, 83
8, 371379, Note_on_c, 2, 64, 0
8, 371379, Note_on_c, 2, 76, 0
8, 371385, Control_c, 2, 11, 84
8, 371400, Note_on_c, 2, 78, 92
8, 371400, Note_on_c, 2, 66, 92
8, 371430, Control_c, 2, 11, 85
8, 371475, Control_c, 2, 11, 86
8, 371520, Control_c, 2, 11, 87
8, 371565, Control_c, 2, 11, 88
8, 371610, Control_c, 2, 11, 89
8, 371619, Note_on_c, 2, 78, 0
8, 371619, Note_on_c, 2, 66, 0
8, 371640, Note_on_c, 2, 78, 92
8, 371640, Note_on_c, 2, 66, 92
8, 371655, Control_c, 2, 11, 90
8, 371700, Control_c, 2, 11, 91
8, 371745, Control_c, 2, 11, 92
8, 371790, Control_c, 2, 11, 93
8, 371835, Control_c, 2, 11, 94
8, 371880, Control_c, 2, 11, 95
8, 371925, Control_c, 2, 11, 96
8, 371970, Control_c, 2, 11, 97
8, 372015, Control_c, 2, 11, 98
8, 372060, Control_c, 2, 11, 99
8, 372099, Note_on_c, 2, 78, 0
8, 372099, Note_on_c, 2, 66, 0
8, 372105, Control_c, 2, 11, 100
8, 372120, Note_on_c, 2, 64, 92
8, 372120, Note_on_c, 2, 76, 92
8, 372150, Control_c, 2, 11, 101
8, 372195, Control_c, 2, 11, 102
8, 372240, Control_c, 2, 11, 103
8, 372285, Control_c, 2, 11, 104
8, 372330, Control_c, 2, 11, 105
8, 372339, Note_on_c, 2, 64, 0
8, 372339, Note_on_c, 2, 76, 0
8, 372360, Note_on_c, 2, 74, 92
8, 372360, Note_on_c, 2, 62, 92
8, 372375, Control_c, 2, 11, 106
8, 372420, Control_c, 2, 11, 107
8, 372465, Control_c, 2, 11, 108
8, 372510, Control_c, 2, 11, 109
8, 372555, Control_c, 2, 11, 110
8, 372579, Note_on_c, 2, 74, 0
8, 372579, Note_on_c, 2, 62, 0
8, 372600, Control_c, 2, 11, 111
8, 372600, Note_on_c, 2, 81, 92
8, 372600, Note_on_c, 2, 69, 92
8, 372645, Control_c, 2, 11, 112
8, 372690, Control_c, 2, 11, 113
8, 372735, Control_c, 2, 11, 114
8, 372780, Control_c, 2, 11, 115
8, 372825, Control_c, 2, 11, 116
8, 372870, Control_c, 2, 11, 117
8, 372915, Control_c, 2, 11, 118
8, 372960, Control_c, 2, 11, 119
8, 373005, Control_c, 2, 11, 120
8, 373050, Control_c, 2, 11, 121
8, 373059, Note_on_c, 2, 81, 0
8, 373059, Note_on_c, 2, 69, 0
8, 373080, Note_on_c, 2, 69, 92
8, 373080, Note_on_c, 2, 79, 92
8, 373095, Control_c, 2, 11, 122
8, 373140, Control_c, 2, 11, 123
8, 373185, Control_c, 2, 11, 124
8, 373230, Control_c, 2, 11, 125
8, 373275, Control_c, 2, 11, 127
8, 373299, Note_on_c, 2, 69, 0
8, 373299, Note_on_c, 2, 79, 0
8, 373320, Note_on_c, 2, 69, 92
8, 373320, Note_on_c, 2, 78, 92
8, 373499, Note_on_c, 2, 69, 0
8, 373499, Note_on_c, 2, 78, 0
8, 373560, Note_on_c, 2, 69, 92
8, 373560, Note_on_c, 2, 78, 92
8, 373739, Note_on_c, 2, 69, 0
8, 373739, Note_on_c, 2, 78, 0
8, 373800, Note_on_c, 2, 69, 92
8, 373800, Note_on_c, 2, 76, 92
8, 373979, Note_on_c, 2, 69, 0
8, 373979, Note_on_c, 2, 76, 0
8, 374040, Note_on_c, 2, 76, 92
8, 374040, Note_on_c, 2, 69, 92
8, 374219, Note_on_c, 2, 76, 0
8, 374219, Note_on_c, 2, 69, 0
8, 374280, Control_c, 2, 11, 127
8, 374280, Note_on_c, 2, 69, 92
8, 374280, Note_on_c, 2, 78, 92
8, 374342, Control_c, 2, 11, 126
8, 374405, Control_c, 2, 11, 125
8, 374459, Note_on_c, 2, 69, 0
8, 374459, Note_on_c, 2, 78, 0
8, 374467, Control_c, 2, 11, 124
8, 374520, Note_on_c, 2, 78, 92
8, 374520, Note_on_c, 2, 69, 92
8, 374530, Control_c, 2, 11, 123
8, 374592, Control_c, 2, 11, 122
8, 374654, Control_c, 2, 11, 121
8, 374699, Note_on_c, 2, 78, 0
8, 374699, Note_on_c, 2, 69, 0
8, 374717, Control_c, 2, 11, 120
8, 374760, Note_on_c, 2, 76, 92
8, 374760, Note_on_c, 2, 69, 92
8, 374779, Control_c, 2, 11, 119
8, 374842, Control_c, 2, 11, 118
8, 374904, Control_c, 2, 11, 117
8, 374939, Note_on_c, 2, 76, 0
8, 374939, Note_on_c, 2, 69, 0
8, 374966, Control_c, 2, 11, 116
8, 375000, Note_on_c, 2, 69, 92
8, 375000, Note_on_c, 2, 76, 92
8, 375029, Control_c, 2, 11, 115
8, 375091, Control_c, 2, 11, 114
8, 375154, Control_c, 2, 11, 113
8, 375179, Note_on_c, 2, 69, 0
8, 375179, Note_on_c, 2, 76, 0
8, 375216, Control_c, 2, 11, 112
8, 375240, Note_on_c, 2, 78, 92
8, 375240, Note_on_c, 2, 69, 92
8, 375278, Control_c, 2, 11, 111
8, 375341, Control_c, 2, 11, 110
8, 375403, Control_c, 2, 11, 109
8, 375419, Note_on_c, 2, 78, 0
8, 375419, Note_on_c, 2, 69, 0
8, 375466, Control_c, 2, 11, 108
8, 375480, Note_on_c, 2, 69, 92
8, 375480, Note_on_c, 2, 78, 92
8, 375528, Control_c, 2, 11, 107
8, 375590, Control_c, 2, 11, 106
8, 375653, Control_c, 2, 11, 105
8, 375659, Note_on_c, 2, 69, 0
8, 375659, Note_on_c, 2, 78, 0
8, 375715, Control_c, 2, 11, 104
8, 375720, Note_on_c, 2, 76, 92
8, 375720, Note_on_c, 2, 69, 92
8, 375778, Control_c, 2, 11, 103
8, 375840, Control_c, 2, 11, 102
8, 375899, Note_on_c, 2, 76, 0
8, 375899, Note_on_c, 2, 69, 0
8, 375902, Control_c, 2, 11, 101
8, 375960, Note_on_c, 2, 69, 92
8, 375960, Note_on_c, 2, 76, 92
8, 375965, Control_c, 2, 11, 100
8, 376027, Control_c, 2, 11, 99
8, 376090, Control_c, 2, 11, 98
8, 376139, Note_on_c, 2, 69, 0
8, 376139, Note_on_c, 2, 76, 0
8, 376152, Control_c, 2, 11, 97
8, 376200, Note_on_c, 2, 69, 92
8, 376200, Note_on_c, 2, 78, 92
8, 376214, Control_c, 2, 11, 96
8, 376277, Control_c, 2, 11, 95
8, 376339, Control_c, 2, 11, 94
8, 376379, Note_on_c, 2, 69, 0
8, 376379, Note_on_c, 2, 78, 0
8, 376402, Control_c, 2, 11, 93
8, 376440, Note_on_c, 2, 78, 92
8, 376440, Note_on_c, 2, 69, 92
8, 376464, Control_c, 2, 11, 92
8, 376526, Control_c, 2, 11, 91
8, 376589, Control_c, 2, 11, 90
8, 376619, Note_on_c, 2, 78, 0
8, 376619, Note_on_c, 2, 69, 0
8, 376651, Control_c, 2, 11, 89
8, 376680, Note_on_c, 2, 76, 92
8, 376680, Note_on_c, 2, 69, 92
8, 376714, Control_c, 2, 11, 88
8, 376776, Control_c, 2, 11, 87
8, 376838, Control_c, 2, 11, 86
8, 376859, Note_on_c, 2, 76, 0
8, 376859, Note_on_c, 2, 69, 0
8, 376901, Control_c, 2, 11, 85
8, 376920, Note_on_c, 2, 76, 92
8, 376920, Note_on_c, 2, 69, 92
8, 376963, Control_c, 2, 11, 84
8, 377026, Control_c, 2, 11, 83
8, 377088, Control_c, 2, 11, 82
8, 377099, Note_on_c, 2, 76, 0
8, 377099, Note_on_c, 2, 69, 0
8, 377150, Control_c, 2, 11, 81
8, 377160, Note_on_c, 2, 69, 92
8, 377160, Note_on_c, 2, 74, 92
8, 377213, Control_c, 2, 11, 80
8, 377275, Control_c, 2, 11, 79
8, 377338, Control_c, 2, 11, 78
8, 377399, Note_on_c, 2, 69, 0
8, 377399, Note_on_c, 2, 74, 0
8, 377400, Note_on_c, 2, 67, 92
8, 377400, Note_on_c, 2, 71, 92
8, 377400, Control_c, 2, 11, 77
8, 377462, Control_c, 2, 11, 76
8, 377525, Control_c, 2, 11, 75
8, 377587, Control_c, 2, 11, 74
8, 377650, Control_c, 2, 11, 73
8, 377712, Control_c, 2, 11, 72
8, 377774, Control_c, 2, 11, 71
8, 377837, Control_c, 2, 11, 70
8, 377899, Control_c, 2, 11, 69
8, 377962, Control_c, 2, 11, 68
8, 378024, Control_c, 2, 11, 67
8, 378086, Control_c, 2, 11, 66
8, 378099, Note_on_c, 2, 67, 0
8, 378099, Note_on_c, 2, 71, 0
8, 378120, Note_on_c, 2, 66, 92
8, 378120, Note_on_c, 2, 69, 92
8, 378149, Control_c, 2, 11, 65
8, 378211, Control_c, 2, 11, 64
8, 378274, Control_c, 2, 11, 63
8, 378336, Control_c, 2, 11, 62
8, 378359, Note_on_c, 2, 66, 0
8, 378359, Note_on_c, 2, 69, 0
8, 378360, Note_on_c, 2, 71, 92
8, 378360, Note_on_c, 2, 67, 92
8, 378398, Control_c, 2, 11, 61
8, 378461, Control_c, 2, 11, 60
8, 378523, Control_c, 2, 11, 59
8, 378586, Control_c, 2, 11, 58
8, 378648, Control_c, 2, 11, 57
8, 378710, Control_c, 2, 11, 56
8, 378773, Control_c, 2, 11, 55
8, 378835, Control_c, 2, 11, 54
8, 378898, Control_c, 2, 11, 53
8, 378960, Control_c, 2, 11, 52
8, 379022, Control_c, 2, 11, 51
8, 379059, Note_on_c, 2, 71, 0
8, 379059, Note_on_c, 2, 67, 0
8, 379080, Note_on_c, 2, 66, 92
8, 379080, Note_on_c, 2, 69, 92
8, 379085, Control_c, 2, 11, 50
8, 379147, Control_c, 2, 11, 49
8, 379210, Control_c, 2, 11, 48
8, 379272, Control_c, 2, 11, 47
8, 379319, Note_on_c, 2, 66, 0
8, 379319, Note_on_c, 2, 69, 0
8, 379320, Note_on_c, 2, 71, 92
8, 379320, Note_on_c, 2, 67, 92
8, 379334, Control_c, 2, 11, 46
8, 379397, Control_c, 2, 11, 45
8, 379459, Control_c, 2, 11, 44
8, 379522, Control_c, 2, 11, 43
8, 379584, Control_c, 2, 11, 42
8, 379646, Control_c, 2, 11, 41
8, 379709, Control_c, 2, 11, 40
8, 379771, Control_c, 2, 11, 39
8, 379834, Control_c, 2, 11, 38
8, 379896, Control_c, 2, 11, 37
8, 379958, Control_c, 2, 11, 36
8, 380021, Control_c, 2, 11, 35
8, 380083, Control_c, 2, 11, 34
8, 380146, Control_c, 2, 11, 33
8, 380208, Control_c, 2, 11, 32
8, 380270, Control_c, 2, 11, 31
8, 380333, Control_c, 2, 11, 30
8, 380395, Control_c, 2, 11, 29
8, 380458, Control_c, 2, 11, 28
8, 380499, Note_on_c, 2, 71, 0
8, 380499, Note_on_c, 2, 67, 0
8, 380520, Note_on_c, 2, 70, 92
8, 380520, Note_on_c, 2, 67, 92
8, 381209, Note_on_c, 2, 70, 0
8, 381209, Note_on_c, 2, 67, 0
8, 381600, Control_c, 2, 11, 127
8, 383040, Note_on_c, 2, 74, 92
8, 383204, Note_on_c, 2, 74, 0
8, 383220, Note_on_c, 2, 62, 92
8, 383264, Note_on_c, 2, 62, 0
8, 383280, Note_on_c, 2, 62, 92
8, 383399, Note_on_c, 2, 62, 0
8, 385560, Note_on_c, 2, 74, 32
8, 385679, Note_on_c, 2, 74, 0
8, 385920, Note_on_c, 2, 69, 32
8, 386039, Note_on_c, 2, 69, 0
8, 386280, Note_on_c, 2, 71, 32
8, 386399, Note_on_c, 2, 71, 0
8, 386640, Note_on_c, 2, 72, 32
8, 386759, Note_on_c, 2, 72, 0
8, 387000, Note_on_c, 2, 70, 32
8, 387119, Note_on_c, 2, 70, 0
8, 387360, Note_on_c, 2, 65, 32
8, 387479, Note_on_c, 2, 65, 0
8, 387720, Note_on_c, 2, 61, 32
8, 387839, Note_on_c, 2, 61, 0
8, 388080, Note_on_c, 2, 62, 32
8, 388199, Note_on_c, 2, 62, 0
8, 388440, Note_on_c, 2, 69, 32
8, 388559, Note_on_c, 2, 69, 0
8, 388800, Note_on_c, 2, 69, 32
8, 388919, Note_on_c, 2, 69, 0
8, 389160, Note_on_c, 2, 64, 32
8, 389279, Note_on_c, 2, 64, 0
8, 389520, Note_on_c, 2, 76, 32
8, 389520, Note_on_c, 2, 64, 32
8, 389639, Note_on_c, 2, 76, 0
8, 389639, Note_on_c, 2, 64, 0
8, 389880, Note_on_c, 2, 64, 32
8, 389880, Note_on_c, 2, 73, 32
8, 389999, Note_on_c, 2, 64, 0
8, 389999, Note_on_c, 2, 73, 0
8, 390240, Note_on_c, 2, 74, 32
8, 390240, Note_on_c, 2, 69, 32
8, 390359, Note_on_c, 2, 74, 0
8, 390359, Note_on_c, 2, 69, 0
8, 390600, Note_on_c, 2, 69, 32
8, 390600, Note_on_c, 2, 79, 32
8, 390719, Note_on_c, 2, 69, 0
8, 390719, Note_on_c, 2, 79, 0
8, 390960, Note_on_c, 2, 74, 32
8, 390960, Note_on_c, 2, 69, 32
8, 391079, Note_on_c, 2, 74, 0
8, 391079, Note_on_c, 2, 69, 0
8, 391320, Note_on_c, 2, 69, 32
8, 391320, Note_on_c, 2, 74, 32
8, 391439, Note_on_c, 2, 69, 0
8, 391439, Note_on_c, 2, 74, 0
8, 391680, Note_on_c, 2, 76, 32
8, 391680, Note_on_c, 2, 69, 32
8, 391799, Note_on_c, 2, 76, 0
8, 391799, Note_on_c, 2, 69, 0
8, 392040, Note_on_c, 2, 71, 32
8, 392040, Note_on_c, 2, 76, 32
8, 392159, Note_on_c, 2, 71, 0
8, 392159, Note_on_c, 2, 76, 0
8, 392400, Note_on_c, 2, 76, 32
8, 392400, Note_on_c, 2, 72, 32
8, 392519, Note_on_c, 2, 76, 0
8, 392519, Note_on_c, 2, 72, 0
8, 392760, Note_on_c, 2, 76, 32
8, 392760, Note_on_c, 2, 67, 32
8, 392879, Note_on_c, 2, 76, 0
8, 392879, Note_on_c, 2, 67, 0
8, 393120, Note_on_c, 2, 69, 32
8, 393120, Note_on_c, 2, 74, 32
8, 393239, Note_on_c, 2, 69, 0
8, 393239, Note_on_c, 2, 74, 0
8, 393480, Note_on_c, 2, 69, 32
8, 393480, Note_on_c, 2, 64, 32
8, 393599, Note_on_c, 2, 69, 0
8, 393599, Note_on_c, 2, 64, 0
8, 393840, Note_on_c, 2, 65, 32
8, 393840, Note_on_c, 2, 69, 32
8, 393959, Note_on_c, 2, 65, 0
8, 393959, Note_on_c, 2, 69, 0
8, 394200, Note_on_c, 2, 74, 32
8, 394200, Note_on_c, 2, 62, 32
8, 394319, Note_on_c, 2, 74, 0
8, 394319, Note_on_c, 2, 62, 0
8, 394560, Note_on_c, 2, 69, 32
8, 394560, Note_on_c, 2, 64, 32
8, 394679, Note_on_c, 2, 69, 0
8, 394679, Note_on_c, 2, 64, 0
8, 394920, Note_on_c, 2, 71, 32
8, 394920, Note_on_c, 2, 59, 32
8, 395039, Note_on_c, 2, 71, 0
8, 395039, Note_on_c, 2, 59, 0
8, 395280, Note_on_c, 2, 69, 32
8, 395280, Note_on_c, 2, 60, 32
8, 395399, Note_on_c, 2, 69, 0
8, 395399, Note_on_c, 2, 60, 0
8, 395640, Note_on_c, 2, 61, 32
8, 395640, Note_on_c, 2, 64, 32
8, 395759, Note_on_c, 2, 61, 0
8, 395759, Note_on_c, 2, 64, 0
8, 396000, Note_on_c, 2, 69, 32
8, 396000, Note_on_c, 2, 57, 32
8, 396119, Note_on_c, 2, 69, 0
8, 396119, Note_on_c, 2, 57, 0
8, 396360, Note_on_c, 2, 61, 32
8, 396360, Note_on_c, 2, 69, 32
8, 396479, Note_on_c, 2, 61, 0
8, 396479, Note_on_c, 2, 69, 0
8, 396720, Note_on_c, 2, 65, 32
8, 396720, Note_on_c, 2, 69, 32
8, 396839, Note_on_c, 2, 65, 0
8, 396839, Note_on_c, 2, 69, 0
8, 396960, Control_c, 2, 11, 27
8, 397080, Note_on_c, 2, 57, 92
8, 397080, Control_c, 2, 11, 27
8, 397080, Note_on_c, 2, 69, 92
8, 397123, Control_c, 2, 11, 28
8, 397166, Control_c, 2, 11, 29
8, 397210, Control_c, 2, 11, 30
8, 397253, Control_c, 2, 11, 31
8, 397296, Control_c, 2, 11, 32
8, 397339, Control_c, 2, 11, 33
8, 397382, Control_c, 2, 11, 34
8, 397426, Control_c, 2, 11, 35
8, 397469, Control_c, 2, 11, 36
8, 397512, Control_c, 2, 11, 37
8, 397555, Control_c, 2, 11, 38
8, 397598, Control_c, 2, 11, 39
8, 397642, Control_c, 2, 11, 40
8, 397685, Control_c, 2, 11, 41
8, 397728, Control_c, 2, 11, 42
8, 397771, Control_c, 2, 11, 43
8, 397814, Control_c, 2, 11, 44
8, 397858, Control_c, 2, 11, 45
8, 397901, Control_c, 2, 11, 46
8, 397944, Control_c, 2, 11, 47
8, 397987, Control_c, 2, 11, 48
8, 398030, Control_c, 2, 11, 49
8, 398074, Control_c, 2, 11, 50
8, 398117, Control_c, 2, 11, 51
8, 398160, Control_c, 2, 11, 52
8, 398203, Control_c, 2, 11, 53
8, 398246, Control_c, 2, 11, 54
8, 398290, Control_c, 2, 11, 55
8, 398333, Control_c, 2, 11, 56
8, 398376, Control_c, 2, 11, 57
8, 398419, Control_c, 2, 11, 58
8, 398462, Control_c, 2, 11, 59
8, 398506, Control_c, 2, 11, 60
8, 398549, Control_c, 2, 11, 61
8, 398592, Control_c, 2, 11, 62
8, 398635, Control_c, 2, 11, 63
8, 398678, Control_c, 2, 11, 64
8, 398722, Control_c, 2, 11, 65
8, 398765, Control_c, 2, 11, 66
8, 398808, Control_c, 2, 11, 67
8, 398851, Control_c, 2, 11, 68
8, 398894, Control_c, 2, 11, 69
8, 398938, Control_c, 2, 11, 70
8, 398981, Control_c, 2, 11, 71
8, 399024, Control_c, 2, 11, 72
8, 399067, Control_c, 2, 11, 73
8, 399110, Control_c, 2, 11, 74
8, 399154, Control_c, 2, 11, 75
8, 399197, Control_c, 2, 11, 76
8, 399240, Control_c, 2, 11, 77
8, 399283, Control_c, 2, 11, 78
8, 399326, Control_c, 2, 11, 79
8, 399370, Control_c, 2, 11, 80
8, 399413, Control_c, 2, 11, 81
8, 399456, Control_c, 2, 11, 82
8, 399499, Control_c, 2, 11, 83
8, 399542, Control_c, 2, 11, 84
8, 399586, Control_c, 2, 11, 85
8, 399629, Control_c, 2, 11, 86
8, 399672, Control_c, 2, 11, 87
8, 399715, Control_c, 2, 11, 88
8, 399758, Control_c, 2, 11, 89
8, 399802, Control_c, 2, 11, 90
8, 399845, Control_c, 2, 11, 91
8, 399888, Control_c, 2, 11, 92
8, 399931, Control_c, 2, 11, 93
8, 399974, Control_c, 2, 11, 94
8, 400018, Control_c, 2, 11, 95
8, 400061, Control_c, 2, 11, 96
8, 400104, Control_c, 2, 11, 97
8, 400147, Control_c, 2, 11, 98
8, 400190, Control_c, 2, 11, 99
8, 400234, Control_c, 2, 11, 100
8, 400277, Control_c, 2, 11, 101
8, 400320, Control_c, 2, 11, 102
8, 400363, Control_c, 2, 11, 103
8, 400406, Control_c, 2, 11, 104
8, 400450, Control_c, 2, 11, 105
8, 400493, Control_c, 2, 11, 106
8, 400536, Control_c, 2, 11, 107
8, 400579, Control_c, 2, 11, 108
8, 400622, Control_c, 2, 11, 109
8, 400666, Control_c, 2, 11, 110
8, 400709, Control_c, 2, 11, 111
8, 400752, Control_c, 2, 11, 112
8, 400795, Control_c, 2, 11, 113
8, 400838, Control_c, 2, 11, 114
8, 400882, Control_c, 2, 11, 115
8, 400925, Control_c, 2, 11, 116
8, 400968, Control_c, 2, 11, 117
8, 401011, Control_c, 2, 11, 118
8, 401054, Control_c, 2, 11, 119
8, 401098, Control_c, 2, 11, 120
8, 401141, Control_c, 2, 11, 121
8, 401184, Control_c, 2, 11, 122
8, 401227, Control_c, 2, 11, 123
8, 401270, Control_c, 2, 11, 124
8, 401314, Control_c, 2, 11, 125
8, 401357, Control_c, 2, 11, 127
8, 401384, Note_on_c, 2, 57, 0
8, 401384, Note_on_c, 2, 69, 0
8, 401400, Note_on_c, 2, 81, 92
8, 401400, Note_on_c, 2, 69, 92
8, 401564, Note_on_c, 2, 81, 0
8, 401564, Note_on_c, 2, 69, 0
8, 401580, Note_on_c, 2, 69, 92
8, 401580, Note_on_c, 2, 57, 92
8, 401624, Note_on_c, 2, 69, 0
8, 401624, Note_on_c, 2, 57, 0
8, 401640, Note_on_c, 2, 57, 92
8, 401640, Note_on_c, 2, 69, 92
8, 401744, Note_on_c, 2, 57, 0
8, 401744, Note_on_c, 2, 69, 0
8, 401760, Note_on_c, 2, 69, 92
8, 401760, Note_on_c, 2, 74, 92
8, 401864, Note_on_c, 2, 69, 0
8, 401864, Note_on_c, 2, 74, 0
8, 401880, Note_on_c, 2, 69, 92
8, 401880, Note_on_c, 2, 76, 92
8, 401984, Note_on_c, 2, 69, 0
8, 401984, Note_on_c, 2, 76, 0
8, 402000, Note_on_c, 2, 77, 92
8, 402000, Note_on_c, 2, 69, 92
8, 402104, Note_on_c, 2, 77, 0
8, 402104, Note_on_c, 2, 69, 0
8, 402120, Note_on_c, 2, 76, 92
8, 402120, Note_on_c, 2, 69, 92
8, 402224, Note_on_c, 2, 76, 0
8, 402224, Note_on_c, 2, 69, 0
8, 402240, Note_on_c, 2, 77, 92
8, 402240, Note_on_c, 2, 69, 92
8, 402344, Note_on_c, 2, 77, 0
8, 402344, Note_on_c, 2, 69, 0
8, 402360, Note_on_c, 2, 69, 92
8, 402360, Note_on_c, 2, 79, 92
8, 402464, Note_on_c, 2, 69, 0
8, 402464, Note_on_c, 2, 79, 0
8, 402480, Note_on_c, 2, 69, 92
8, 402480, Note_on_c, 2, 77, 92
8, 402584, Note_on_c, 2, 69, 0
8, 402584, Note_on_c, 2, 77, 0
8, 402600, Note_on_c, 2, 69, 92
8, 402600, Note_on_c, 2, 76, 92
8, 402704, Note_on_c, 2, 69, 0
8, 402704, Note_on_c, 2, 76, 0
8, 402720, Note_on_c, 2, 69, 92
8, 402720, Note_on_c, 2, 74, 92
8, 402824, Note_on_c, 2, 69, 0
8, 402824, Note_on_c, 2, 74, 0
8, 402840, Note_on_c, 2, 70, 80
8, 402840, Note_on_c, 2, 74, 80
8, 402944, Note_on_c, 2, 70, 0
8, 402944, Note_on_c, 2, 74, 0
8, 402960, Note_on_c, 2, 69, 80
8, 402960, Note_on_c, 2, 74, 80
8, 403064, Note_on_c, 2, 69, 0
8, 403064, Note_on_c, 2, 74, 0
8, 403080, Note_on_c, 2, 67, 80
8, 403080, Note_on_c, 2, 74, 80
8, 403184, Note_on_c, 2, 67, 0
8, 403184, Note_on_c, 2, 74, 0
8, 403200, Note_on_c, 2, 69, 80
8, 403200, Note_on_c, 2, 77, 80
8, 403304, Note_on_c, 2, 69, 0
8, 403304, Note_on_c, 2, 77, 0
8, 403320, Note_on_c, 2, 69, 80
8, 403320, Note_on_c, 2, 76, 80
8, 403424, Note_on_c, 2, 69, 0
8, 403424, Note_on_c, 2, 76, 0
8, 403440, Note_on_c, 2, 74, 80
8, 403440, Note_on_c, 2, 69, 80
8, 403544, Note_on_c, 2, 74, 0
8, 403544, Note_on_c, 2, 69, 0
8, 403560, Note_on_c, 2, 73, 80
8, 403560, Note_on_c, 2, 69, 80
8, 403664, Note_on_c, 2, 73, 0
8, 403664, Note_on_c, 2, 69, 0
8, 403680, Note_on_c, 2, 69, 80
8, 403680, Note_on_c, 2, 74, 80
8, 403784, Note_on_c, 2, 69, 0
8, 403784, Note_on_c, 2, 74, 0
8, 403800, Note_on_c, 2, 69, 80
8, 403800, Note_on_c, 2, 76, 80
8, 403904, Note_on_c, 2, 69, 0
8, 403904, Note_on_c, 2, 76, 0
8, 403920, Note_on_c, 2, 69, 80
8, 403920, Note_on_c, 2, 74, 80
8, 404024, Note_on_c, 2, 69, 0
8, 404024, Note_on_c, 2, 74, 0
8, 404040, Note_on_c, 2, 69, 80
8, 404040, Note_on_c, 2, 73, 80
8, 404144, Note_on_c, 2, 69, 0
8, 404144, Note_on_c, 2, 73, 0
8, 404160, Note_on_c, 2, 74, 80
8, 404160, Note_on_c, 2, 69, 80
8, 404264, Note_on_c, 2, 74, 0
8, 404264, Note_on_c, 2, 69, 0
8, 404280, Note_on_c, 2, 74, 80
8, 404280, Note_on_c, 2, 70, 80
8, 404384, Note_on_c, 2, 74, 0
8, 404384, Note_on_c, 2, 70, 0
8, 404400, Note_on_c, 2, 69, 80
8, 404400, Note_on_c, 2, 74, 80
8, 404504, Note_on_c, 2, 69, 0
8, 404504, Note_on_c, 2, 74, 0
8, 404520, Note_on_c, 2, 74, 80
8, 404520, Note_on_c, 2, 67, 80
8, 404624, Note_on_c, 2, 74, 0
8, 404624, Note_on_c, 2, 67, 0
8, 404640, Note_on_c, 2, 65, 80
8, 404640, Note_on_c, 2, 77, 80
8, 404744, Note_on_c, 2, 65, 0
8, 404744, Note_on_c, 2, 77, 0
8, 404760, Note_on_c, 2, 69, 80
8, 404760, Note_on_c, 2, 76, 80
8, 404864, Note_on_c, 2, 69, 0
8, 404864, Note_on_c, 2, 76, 0
8, 404880, Note_on_c, 2, 69, 80
8, 404880, Note_on_c, 2, 74, 80
8, 404984, Note_on_c, 2, 69, 0
8, 404984, Note_on_c, 2, 74, 0
8, 405000, Note_on_c, 2, 73, 80
8, 405000, Note_on_c, 2, 69, 80
8, 405104, Note_on_c, 2, 73, 0
8, 405104, Note_on_c, 2, 69, 0
8, 405120, Note_on_c, 2, 74, 80
8, 405120, Note_on_c, 2, 69, 80
8, 405224, Note_on_c, 2, 74, 0
8, 405224, Note_on_c, 2, 69, 0
8, 405240, Note_on_c, 2, 76, 80
8, 405240, Note_on_c, 2, 67, 80
8, 405344, Note_on_c, 2, 76, 0
8, 405344, Note_on_c, 2, 67, 0
8, 405360, Note_on_c, 2, 65, 80
8, 405360, Note_on_c, 2, 69, 80
8, 405464, Note_on_c, 2, 65, 0
8, 405464, Note_on_c, 2, 69, 0
8, 405480, Note_on_c, 2, 69, 80
8, 405480, Note_on_c, 2, 65, 80
8, 405584, Note_on_c, 2, 69, 0
8, 405584, Note_on_c, 2, 65, 0
8, 405600, Note_on_c, 2, 71, 80
8, 405600, Note_on_c, 2, 65, 80
8, 405704, Note_on_c, 2, 71, 0
8, 405704, Note_on_c, 2, 65, 0
8, 405720, Note_on_c, 2, 71, 80
8, 405720, Note_on_c, 2, 65, 80
8, 405824, Note_on_c, 2, 71, 0
8, 405824, Note_on_c, 2, 65, 0
8, 405840, Note_on_c, 2, 62, 80
8, 405840, Note_on_c, 2, 71, 80
8, 405944, Note_on_c, 2, 62, 0
8, 405944, Note_on_c, 2, 71, 0
8, 405960, Note_on_c, 2, 74, 80
8, 405960, Note_on_c, 2, 65, 80
8, 406064, Note_on_c, 2, 74, 0
8, 406064, Note_on_c, 2, 65, 0
8, 406080, Note_on_c, 2, 76, 80
8, 406080, Note_on_c, 2, 64, 80
8, 406184, Note_on_c, 2, 76, 0
8, 406184, Note_on_c, 2, 64, 0
8, 406200, Note_on_c, 2, 67, 80
8, 406200, Note_on_c, 2, 74, 80
8, 406304, Note_on_c, 2, 67, 0
8, 406304, Note_on_c, 2, 74, 0
8, 406320, Note_on_c, 2, 67, 80
8, 406320, Note_on_c, 2, 72, 80
8, 406424, Note_on_c, 2, 67, 0
8, 406424, Note_on_c, 2, 72, 0
8, 406440, Note_on_c, 2, 71, 80
8, 406440, Note_on_c, 2, 67, 80
8, 406544, Note_on_c, 2, 71, 0
8, 406544, Note_on_c, 2, 67, 0
8, 406560, Note_on_c, 2, 67, 80
8, 406560, Note_on_c, 2, 72, 80
8, 406664, Note_on_c, 2, 67, 0
8, 406664, Note_on_c, 2, 72, 0
8, 406680, Note_on_c, 2, 67, 80
8, 406680, Note_on_c, 2, 74, 80
8, 406784, Note_on_c, 2, 67, 0
8, 406784, Note_on_c, 2, 74, 0
8, 406800, Note_on_c, 2, 67, 80
8, 406800, Note_on_c, 2, 72, 80
8, 406904, Note_on_c, 2, 67, 0
8, 406904, Note_on_c, 2, 72, 0
8, 406920, Note_on_c, 2, 81, 80
8, 406920, Note_on_c, 2, 77, 80
8, 407024, Note_on_c, 2, 81, 0
8, 407024, Note_on_c, 2, 77, 0
8, 407040, Note_on_c, 2, 81, 80
8, 407040, Note_on_c, 2, 77, 80
8, 407144, Note_on_c, 2, 81, 0
8, 407144, Note_on_c, 2, 77, 0
8, 407160, Note_on_c, 2, 81, 80
8, 407160, Note_on_c, 2, 77, 80
8, 407264, Note_on_c, 2, 81, 0
8, 407264, Note_on_c, 2, 77, 0
8, 407280, Note_on_c, 2, 74, 80
8, 407280, Note_on_c, 2, 79, 80
8, 407384, Note_on_c, 2, 74, 0
8, 407384, Note_on_c, 2, 79, 0
8, 407400, Note_on_c, 2, 74, 80
8, 407400, Note_on_c, 2, 77, 80
8, 407504, Note_on_c, 2, 74, 0
8, 407504, Note_on_c, 2, 77, 0
8, 407520, Note_on_c, 2, 67, 80
8, 407520, Note_on_c, 2, 76, 80
8, 407624, Note_on_c, 2, 67, 0
8, 407624, Note_on_c, 2, 76, 0
8, 407640, Note_on_c, 2, 74, 80
8, 407640, Note_on_c, 2, 67, 80
8, 407744, Note_on_c, 2, 74, 0
8, 407744, Note_on_c, 2, 67, 0
8, 407760, Note_on_c, 2, 67, 80
8, 407760, Note_on_c, 2, 72, 80
8, 407864, Note_on_c, 2, 67, 0
8, 407864, Note_on_c, 2, 72, 0
8, 407880, Note_on_c, 2, 79, 80
8, 407880, Note_on_c, 2, 67, 80
8, 407984, Note_on_c, 2, 79, 0
8, 407984, Note_on_c, 2, 67, 0
8, 408000, Note_on_c, 2, 77, 80
8, 408000, Note_on_c, 2, 67, 80
8, 408104, Note_on_c, 2, 77, 0
8, 408104, Note_on_c, 2, 67, 0
8, 408120, Note_on_c, 2, 76, 80
8, 408120, Note_on_c, 2, 67, 80
8, 408224, Note_on_c, 2, 76, 0
8, 408224, Note_on_c, 2, 67, 0
8, 408240, Note_on_c, 2, 67, 80
8, 408240, Note_on_c, 2, 79, 80
8, 408344, Note_on_c, 2, 67, 0
8, 408344, Note_on_c, 2, 79, 0
8, 408360, Note_on_c, 2, 77, 80
8, 408360, Note_on_c, 2, 67, 80
8, 408464, Note_on_c, 2, 77, 0
8, 408464, Note_on_c, 2, 67, 0
8, 408480, Note_on_c, 2, 76, 80
8, 408480, Note_on_c, 2, 67, 80
8, 408584, Note_on_c, 2, 76, 0
8, 408584, Note_on_c, 2, 67, 0
8, 408600, Note_on_c, 2, 67, 80
8, 408600, Note_on_c, 2, 74, 80
8, 408719, Note_on_c, 2, 67, 0
8, 408719, Note_on_c, 2, 74, 0
8, 411120, Control_c, 2, 11, 47
8, 411480, Note_on_c, 2, 67, 92
8, 411480, Control_c, 2, 11, 49
8, 411517, Control_c, 2, 11, 50
8, 411554, Control_c, 2, 11, 51
8, 411591, Control_c, 2, 11, 52
8, 411628, Control_c, 2, 11, 53
8, 411665, Control_c, 2, 11, 54
8, 411702, Control_c, 2, 11, 55
8, 411738, Control_c, 2, 11, 56
8, 411775, Control_c, 2, 11, 57
8, 411812, Control_c, 2, 11, 58
8, 411849, Control_c, 2, 11, 59
8, 411886, Control_c, 2, 11, 60
8, 411923, Control_c, 2, 11, 61
8, 411960, Control_c, 2, 11, 62
8, 411997, Control_c, 2, 11, 63
8, 412034, Control_c, 2, 11, 64
8, 412071, Control_c, 2, 11, 65
8, 412108, Control_c, 2, 11, 66
8, 412145, Control_c, 2, 11, 67
8, 412182, Control_c, 2, 11, 68
8, 412200, Note_on_c, 2, 69, 92
8, 412218, Control_c, 2, 11, 69
8, 412255, Control_c, 2, 11, 70
8, 412292, Control_c, 2, 11, 71
8, 412329, Control_c, 2, 11, 72
8, 412366, Control_c, 2, 11, 73
8, 412403, Control_c, 2, 11, 74
8, 412440, Control_c, 2, 11, 75
8, 412477, Control_c, 2, 11, 76
8, 412514, Control_c, 2, 11, 77
8, 412551, Control_c, 2, 11, 78
8, 412559, Note_on_c, 2, 67, 0
8, 412560, Note_on_c, 2, 65, 92
8, 412588, Control_c, 2, 11, 79
8, 412625, Control_c, 2, 11, 80
8, 412662, Control_c, 2, 11, 81
8, 412698, Control_c, 2, 11, 82
8, 412735, Control_c, 2, 11, 83
8, 412772, Control_c, 2, 11, 84
8, 412809, Control_c, 2, 11, 85
8, 412846, Control_c, 2, 11, 86
8, 412883, Control_c, 2, 11, 87
8, 412919, Note_on_c, 2, 69, 0
8, 412920, Control_c, 2, 11, 88
8, 412920, Note_on_c, 2, 68, 92
8, 412957, Control_c, 2, 11, 89
8, 412994, Control_c, 2, 11, 90
8, 413031, Control_c, 2, 11, 91
8, 413068, Control_c, 2, 11, 92
8, 413105, Control_c, 2, 11, 93
8, 413142, Control_c, 2, 11, 94
8, 413178, Control_c, 2, 11, 95
8, 413215, Control_c, 2, 11, 96
8, 413252, Control_c, 2, 11, 97
8, 413279, Note_on_c, 2, 65, 0
8, 413279, Note_on_c, 2, 68, 0
8, 413280, Note_on_c, 2, 64, 92
8, 413280, Note_on_c, 2, 67, 92
8, 413289, Control_c, 2, 11, 98
8, 413326, Control_c, 2, 11, 99
8, 413363, Control_c, 2, 11, 100
8, 413400, Control_c, 2, 11, 101
8, 413437, Control_c, 2, 11, 102
8, 413474, Control_c, 2, 11, 103
8, 413511, Control_c, 2, 11, 104
8, 413548, Control_c, 2, 11, 105
8, 413585, Control_c, 2, 11, 106
8, 413622, Control_c, 2, 11, 107
8, 413639, Note_on_c, 2, 64, 0
8, 413640, Note_on_c, 2, 63, 60
8, 413658, Control_c, 2, 11, 108
8, 413695, Control_c, 2, 11, 109
8, 413732, Control_c, 2, 11, 110
8, 413769, Control_c, 2, 11, 111
8, 413806, Control_c, 2, 11, 112
8, 413843, Control_c, 2, 11, 113
8, 413880, Control_c, 2, 11, 114
8, 413917, Control_c, 2, 11, 115
8, 413954, Control_c, 2, 11, 116
8, 413991, Control_c, 2, 11, 117
8, 413999, Note_on_c, 2, 63, 0
8, 414000, Note_on_c, 2, 62, 92
8, 414028, Control_c, 2, 11, 118
8, 414065, Control_c, 2, 11, 119
8, 414102, Control_c, 2, 11, 120
8, 414138, Control_c, 2, 11, 121
8, 414175, Control_c, 2, 11, 122
8, 414212, Control_c, 2, 11, 123
8, 414249, Control_c, 2, 11, 124
8, 414286, Control_c, 2, 11, 125
8, 414323, Control_c, 2, 11, 127
8, 414344, Note_on_c, 2, 67, 0
8, 414344, Note_on_c, 2, 62, 0
8, 414360, Note_on_c, 2, 72, 92
8, 414360, Note_on_c, 2, 60, 92
8, 414479, Note_on_c, 2, 60, 0
8, 414480, Note_on_c, 2, 64, 92
8, 414599, Note_on_c, 2, 72, 0
8, 414599, Note_on_c, 2, 64, 0
8, 414600, Note_on_c, 2, 74, 92
8, 414600, Note_on_c, 2, 65, 92
8, 414659, Note_on_c, 2, 74, 0
8, 414659, Note_on_c, 2, 65, 0
8, 414660, Note_on_c, 2, 76, 92
8, 414660, Note_on_c, 2, 67, 92
8, 414704, Note_on_c, 2, 76, 0
8, 414704, Note_on_c, 2, 67, 0
8, 414720, Note_on_c, 2, 77, 92
8, 414720, Note_on_c, 2, 69, 92
8, 414839, Note_on_c, 2, 77, 0
8, 414839, Note_on_c, 2, 69, 0
8, 414960, Note_on_c, 2, 67, 92
8, 414960, Note_on_c, 2, 76, 92
8, 415049, Note_on_c, 2, 67, 0
8, 415049, Note_on_c, 2, 76, 0
8, 415080, Note_on_c, 2, 74, 92
8, 415080, Note_on_c, 2, 65, 92
8, 415169, Note_on_c, 2, 74, 0
8, 415169, Note_on_c, 2, 65, 0
8, 415320, Note_on_c, 2, 72, 92
8, 415320, Note_on_c, 2, 64, 92
8, 415409, Note_on_c, 2, 72, 0
8, 415409, Note_on_c, 2, 64, 0
8, 415440, Note_on_c, 2, 65, 92
8, 415440, Note_on_c, 2, 74, 92
8, 415529, Note_on_c, 2, 65, 0
8, 415529, Note_on_c, 2, 74, 0
8, 415680, Note_on_c, 2, 71, 92
8, 415680, Note_on_c, 2, 62, 92
8, 415769, Note_on_c, 2, 71, 0
8, 415769, Note_on_c, 2, 62, 0
8, 415800, Note_on_c, 2, 60, 92
8, 415800, Note_on_c, 2, 64, 92
8, 416039, Note_on_c, 2, 60, 0
8, 416039, Note_on_c, 2, 64, 0
8, 416040, Note_on_c, 2, 62, 92
8, 416040, Note_on_c, 2, 65, 92
8, 416099, Note_on_c, 2, 62, 0
8, 416099, Note_on_c, 2, 65, 0
8, 416100, Note_on_c, 2, 64, 92
8, 416100, Note_on_c, 2, 67, 92
8, 416144, Note_on_c, 2, 64, 0
8, 416144, Note_on_c, 2, 67, 0
8, 416160, Note_on_c, 2, 69, 92
8, 416160, Note_on_c, 2, 65, 92
8, 416249, Note_on_c, 2, 69, 0
8, 416249, Note_on_c, 2, 65, 0
8, 416400, Note_on_c, 2, 67, 92
8, 416400, Note_on_c, 2, 64, 92
8, 416489, Note_on_c, 2, 67, 0
8, 416489, Note_on_c, 2, 64, 0
8, 416520, Note_on_c, 2, 62, 92
8, 416520, Note_on_c, 2, 65, 92
8, 416609, Note_on_c, 2, 62, 0
8, 416609, Note_on_c, 2, 65, 0
8, 416760, Note_on_c, 2, 60, 92
8, 416760, Note_on_c, 2, 64, 92
8, 416849, Note_on_c, 2, 60, 0
8, 416849, Note_on_c, 2, 64, 0
8, 416880, Note_on_c, 2, 62, 92
8, 416880, Note_on_c, 2, 65, 92
8, 416969, Note_on_c, 2, 62, 0
8, 416969, Note_on_c, 2, 65, 0
8, 417120, Note_on_c, 2, 62, 92
8, 417120, Note_on_c, 2, 59, 92
8, 417209, Note_on_c, 2, 62, 0
8, 417209, Note_on_c, 2, 59, 0
8, 417240, Note_on_c, 2, 64, 92
8, 417240, Note_on_c, 2, 60, 92
8, 417329, Note_on_c, 2, 64, 0
8, 417329, Note_on_c, 2, 60, 0
8, 417360, Note_on_c, 2, 64, 92
8, 417360, Note_on_c, 2, 72, 92
8, 417479, Note_on_c, 2, 64, 0
8, 417479, Note_on_c, 2, 72, 0
8, 417480, Note_on_c, 2, 65, 92
8, 417480, Note_on_c, 2, 74, 92
8, 417539, Note_on_c, 2, 65, 0
8, 417539, Note_on_c, 2, 74, 0
8, 417540, Note_on_c, 2, 76, 92
8, 417540, Note_on_c, 2, 67, 92
8, 417584, Note_on_c, 2, 76, 0
8, 417584, Note_on_c, 2, 67, 0
8, 417600, Note_on_c, 2, 77, 92
8, 417600, Note_on_c, 2, 69, 92
8, 417689, Note_on_c, 2, 77, 0
8, 417689, Note_on_c, 2, 69, 0
8, 417720, Note_on_c, 2, 69, 92
8, 417720, Note_on_c, 2, 77, 92
8, 417809, Note_on_c, 2, 69, 0
8, 417809, Note_on_c, 2, 77, 0
8, 417840, Note_on_c, 2, 67, 92
8, 417840, Note_on_c, 2, 76, 92
8, 417929, Note_on_c, 2, 67, 0
8, 417929, Note_on_c, 2, 76, 0
8, 417960, Note_on_c, 2, 65, 92
8, 417960, Note_on_c, 2, 74, 92
8, 418049, Note_on_c, 2, 65, 0
8, 418049, Note_on_c, 2, 74, 0
8, 418080, Note_on_c, 2, 74, 92
8, 418080, Note_on_c, 2, 65, 92
8, 418169, Note_on_c, 2, 74, 0
8, 418169, Note_on_c, 2, 65, 0
8, 418200, Note_on_c, 2, 72, 92
8, 418200, Note_on_c, 2, 64, 92
8, 418289, Note_on_c, 2, 72, 0
8, 418289, Note_on_c, 2, 64, 0
8, 418320, Note_on_c, 2, 74, 92
8, 418320, Note_on_c, 2, 65, 92
8, 418409, Note_on_c, 2, 74, 0
8, 418409, Note_on_c, 2, 65, 0
8, 418440, Note_on_c, 2, 74, 92
8, 418440, Note_on_c, 2, 65, 92
8, 418529, Note_on_c, 2, 74, 0
8, 418529, Note_on_c, 2, 65, 0
8, 418560, Note_on_c, 2, 62, 92
8, 418560, Note_on_c, 2, 71, 92
8, 418649, Note_on_c, 2, 62, 0
8, 418649, Note_on_c, 2, 71, 0
8, 418680, Note_on_c, 2, 64, 92
8, 418680, Note_on_c, 2, 72, 92
8, 418769, Note_on_c, 2, 64, 0
8, 418769, Note_on_c, 2, 72, 0
8, 418800, Note_on_c, 2, 60, 92
8, 418800, Note_on_c, 2, 64, 92
8, 418919, Note_on_c, 2, 60, 0
8, 418919, Note_on_c, 2, 64, 0
8, 418920, Note_on_c, 2, 65, 92
8, 418920, Note_on_c, 2, 62, 92
8, 418979, Note_on_c, 2, 65, 0
8, 418979, Note_on_c, 2, 62, 0
8, 418980, Note_on_c, 2, 64, 92
8, 418980, Note_on_c, 2, 67, 92
8, 419024, Note_on_c, 2, 64, 0
8, 419024, Note_on_c, 2, 67, 0
8, 419040, Note_on_c, 2, 65, 92
8, 419040, Note_on_c, 2, 69, 92
8, 419129, Note_on_c, 2, 65, 0
8, 419129, Note_on_c, 2, 69, 0
8, 419160, Note_on_c, 2, 65, 92
8, 419160, Note_on_c, 2, 69, 92
8, 419249, Note_on_c, 2, 65, 0
8, 419249, Note_on_c, 2, 69, 0
8, 419280, Note_on_c, 2, 64, 92
8, 419280, Note_on_c, 2, 67, 92
8, 419369, Note_on_c, 2, 64, 0
8, 419369, Note_on_c, 2, 67, 0
8, 419400, Note_on_c, 2, 65, 92
8, 419400, Note_on_c, 2, 62, 92
8, 419489, Note_on_c, 2, 65, 0
8, 419489, Note_on_c, 2, 62, 0
8, 419520, Note_on_c, 2, 65, 92
8, 419520, Note_on_c, 2, 62, 92
8, 419609, Note_on_c, 2, 65, 0
8, 419609, Note_on_c, 2, 62, 0
8, 419640, Note_on_c, 2, 60, 92
8, 419640, Note_on_c, 2, 64, 92
8, 419729, Note_on_c, 2, 60, 0
8, 419729, Note_on_c, 2, 64, 0
8, 419760, Note_on_c, 2, 62, 92
8, 419760, Note_on_c, 2, 65, 92
8, 419849, Note_on_c, 2, 62, 0
8, 419849, Note_on_c, 2, 65, 0
8, 419880, Note_on_c, 2, 62, 92
8, 419880, Note_on_c, 2, 65, 92
8, 419969, Note_on_c, 2, 62, 0
8, 419969, Note_on_c, 2, 65, 0
8, 420000, Note_on_c, 2, 71, 92
8, 420000, Note_on_c, 2, 62, 92
8, 420089, Note_on_c, 2, 71, 0
8, 420089, Note_on_c, 2, 62, 0
8, 420120, Note_on_c, 2, 60, 92
8, 420120, Note_on_c, 2, 64, 92
8, 420284, Note_on_c, 2, 60, 0
8, 420284, Note_on_c, 2, 64, 0
8, 420300, Note_on_c, 2, 52, 92
8, 420300, Note_on_c, 2, 64, 92
8, 420344, Note_on_c, 2, 52, 0
8, 420344, Note_on_c, 2, 64, 0
8, 420360, Note_on_c, 2, 52, 92
8, 420360, Note_on_c, 2, 64, 92
8, 420464, Note_on_c, 2, 52, 0
8, 420464, Note_on_c, 2, 64, 0
8, 420480, Note_on_c, 2, 64, 92
8, 420480, Note_on_c, 2, 52, 92
8, 420569, Note_on_c, 2, 64, 0
8, 420569, Note_on_c, 2, 52, 0
8, 420600, Note_on_c, 2, 53, 92
8, 420600, Note_on_c, 2, 65, 92
8, 420689, Note_on_c, 2, 53, 0
8, 420689, Note_on_c, 2, 65, 0
8, 420720, Note_on_c, 2, 55, 92
8, 420720, Note_on_c, 2, 67, 92
8, 420809, Note_on_c, 2, 55, 0
8, 420809, Note_on_c, 2, 67, 0
8, 420840, Note_on_c, 2, 57, 92
8, 420840, Note_on_c, 2, 69, 92
8, 420959, Note_on_c, 2, 57, 0
8, 420959, Note_on_c, 2, 69, 0
8, 421200, Note_on_c, 2, 57, 92
8, 421200, Note_on_c, 2, 69, 92
8, 421289, Note_on_c, 2, 57, 0
8, 421289, Note_on_c, 2, 69, 0
8, 421320, Note_on_c, 2, 59, 92
8, 421320, Note_on_c, 2, 71, 92
8, 421409, Note_on_c, 2, 59, 0
8, 421409, Note_on_c, 2, 71, 0
8, 421440, Note_on_c, 2, 72, 92
8, 421440, Note_on_c, 2, 60, 92
8, 421529, Note_on_c, 2, 72, 0
8, 421529, Note_on_c, 2, 60, 0
8, 421560, Note_on_c, 2, 74, 92
8, 421560, Note_on_c, 2, 62, 92
8, 421724, Note_on_c, 2, 74, 0
8, 421724, Note_on_c, 2, 62, 0
8, 421740, Note_on_c, 2, 62, 92
8, 421740, Note_on_c, 2, 74, 92
8, 421784, Note_on_c, 2, 62, 0
8, 421784, Note_on_c, 2, 74, 0
8, 421800, Note_on_c, 2, 74, 92
8, 421800, Note_on_c, 2, 62, 92
8, 421904, Note_on_c, 2, 74, 0
8, 421904, Note_on_c, 2, 62, 0
8, 421920, Note_on_c, 2, 62, 92
8, 421920, Note_on_c, 2, 74, 92
8, 422009, Note_on_c, 2, 62, 0
8, 422009, Note_on_c, 2, 74, 0
8, 422040, Note_on_c, 2, 64, 92
8, 422040, Note_on_c, 2, 76, 92
8, 422129, Note_on_c, 2, 64, 0
8, 422129, Note_on_c, 2, 76, 0
8, 422160, Note_on_c, 2, 65, 92
8, 422160, Note_on_c, 2, 77, 92
8, 422249, Note_on_c, 2, 65, 0
8, 422249, Note_on_c, 2, 77, 0
8, 422280, Note_on_c, 2, 79, 92
8, 422280, Note_on_c, 2, 67, 92
8, 422399, Note_on_c, 2, 79, 0
8, 422399, Note_on_c, 2, 67, 0
8, 422640, Note_on_c, 2, 67, 92
8, 422640, Note_on_c, 2, 55, 92
8, 422729, Note_on_c, 2, 67, 0
8, 422729, Note_on_c, 2, 55, 0
8, 422760, Note_on_c, 2, 72, 92
8, 422760, Note_on_c, 2, 60, 92
8, 422849, Note_on_c, 2, 72, 0
8, 422849, Note_on_c, 2, 60, 0
8, 422880, Note_on_c, 2, 62, 92
8, 422880, Note_on_c, 2, 74, 92
8, 422969, Note_on_c, 2, 62, 0
8, 422969, Note_on_c, 2, 74, 0
8, 423000, Note_on_c, 2, 64, 44
8, 423000, Note_on_c, 2, 76, 44
8, 423119, Note_on_c, 2, 64, 0
8, 423119, Note_on_c, 2, 76, 0
8, 425160, Note_on_c, 2, 67, 44
8, 425279, Note_on_c, 2, 67, 0
8, 425280, Note_on_c, 2, 60, 47
8, 425399, Note_on_c, 2, 60, 0
8, 425400, Note_on_c, 2, 62, 50
8, 425519, Note_on_c, 2, 62, 0
8, 425520, Note_on_c, 2, 64, 53
8, 425639, Note_on_c, 2, 64, 0
8, 425640, Note_on_c, 2, 65, 56
8, 425759, Note_on_c, 2, 65, 0
8, 425760, Note_on_c, 2, 67, 59
8, 425879, Note_on_c, 2, 67, 0
8, 425880, Note_on_c, 2, 66, 62
8, 425999, Note_on_c, 2, 66, 0
8, 426000, Note_on_c, 2, 67, 65
8, 426119, Note_on_c, 2, 67, 0
8, 426120, Note_on_c, 2, 69, 68
8, 426239, Note_on_c, 2, 69, 0
8, 426240, Note_on_c, 2, 67, 71
8, 426359, Note_on_c, 2, 67, 0
8, 426360, Note_on_c, 2, 71, 74
8, 426360, Note_on_c, 2, 74, 74
8, 426479, Note_on_c, 2, 71, 0
8, 426479, Note_on_c, 2, 74, 0
8, 426480, Note_on_c, 2, 72, 77
8, 426480, Note_on_c, 2, 67, 77
8, 426584, Note_on_c, 2, 72, 0
8, 426584, Note_on_c, 2, 67, 0
8, 426600, Note_on_c, 2, 55, 80
8, 426600, Note_on_c, 2, 67, 80
8, 426689, Note_on_c, 2, 55, 0
8, 426689, Note_on_c, 2, 67, 0
8, 426720, Note_on_c, 2, 64, 80
8, 426720, Note_on_c, 2, 76, 80
8, 426809, Note_on_c, 2, 64, 0
8, 426809, Note_on_c, 2, 76, 0
8, 426840, Note_on_c, 2, 69, 80
8, 426840, Note_on_c, 2, 65, 80
8, 426929, Note_on_c, 2, 69, 0
8, 426929, Note_on_c, 2, 65, 0
8, 426960, Note_on_c, 2, 65, 80
8, 426960, Note_on_c, 2, 77, 80
8, 427049, Note_on_c, 2, 65, 0
8, 427049, Note_on_c, 2, 77, 0
8, 427080, Note_on_c, 2, 67, 80
8, 427080, Note_on_c, 2, 74, 80
8, 427169, Note_on_c, 2, 67, 0
8, 427169, Note_on_c, 2, 74, 0
8, 427200, Note_on_c, 2, 71, 80
8, 427200, Note_on_c, 2, 74, 80
8, 427289, Note_on_c, 2, 71, 0
8, 427289, Note_on_c, 2, 74, 0
8, 427320, Note_on_c, 2, 72, 80
8, 427320, Note_on_c, 2, 76, 80
8, 427439, Note_on_c, 2, 72, 0
8, 427439, Note_on_c, 2, 76, 0
8, 428040, Note_on_c, 2, 67, 80
8, 428040, Note_on_c, 2, 64, 80
8, 428129, Note_on_c, 2, 67, 0
8, 428129, Note_on_c, 2, 64, 0
8, 428160, Note_on_c, 2, 64, 80
8, 428160, Note_on_c, 2, 76, 80
8, 428249, Note_on_c, 2, 64, 0
8, 428249, Note_on_c, 2, 76, 0
8, 428280, Note_on_c, 2, 69, 80
8, 428280, Note_on_c, 2, 65, 80
8, 428369, Note_on_c, 2, 69, 0
8, 428369, Note_on_c, 2, 65, 0
8, 428400, Note_on_c, 2, 65, 80
8, 428400, Note_on_c, 2, 77, 80
8, 428489, Note_on_c, 2, 65, 0
8, 428489, Note_on_c, 2, 77, 0
8, 428520, Note_on_c, 2, 74, 80
8, 428520, Note_on_c, 2, 67, 80
8, 428609, Note_on_c, 2, 74, 0
8, 428609, Note_on_c, 2, 67, 0
8, 428640, Note_on_c, 2, 71, 80
8, 428640, Note_on_c, 2, 74, 80
8, 428729, Note_on_c, 2, 71, 0
8, 428729, Note_on_c, 2, 74, 0
8, 428760, Note_on_c, 2, 76, 80
8, 428760, Note_on_c, 2, 72, 80
8, 428849, Note_on_c, 2, 76, 0
8, 428849, Note_on_c, 2, 72, 0
8, 428880, Note_on_c, 2, 67, 80
8, 428880, Note_on_c, 2, 79, 80
8, 428969, Note_on_c, 2, 67, 0
8, 428969, Note_on_c, 2, 79, 0
8, 429000, Note_on_c, 2, 67, 80
8, 429000, Note_on_c, 2, 79, 80
8, 429089, Note_on_c, 2, 67, 0
8, 429089, Note_on_c, 2, 79, 0
8, 429120, Note_on_c, 2, 79, 80
8, 429120, Note_on_c, 2, 67, 80
8, 429209, Note_on_c, 2, 79, 0
8, 429209, Note_on_c, 2, 67, 0
8, 429240, Note_on_c, 2, 67, 80
8, 429240, Note_on_c, 2, 79, 80
8, 429329, Note_on_c, 2, 67, 0
8, 429329, Note_on_c, 2, 79, 0
8, 429360, Note_on_c, 2, 67, 80
8, 429360, Note_on_c, 2, 79, 80
8, 429449, Note_on_c, 2, 67, 0
8, 429449, Note_on_c, 2, 79, 0
8, 429480, Note_on_c, 2, 72, 80
8, 429480, Note_on_c, 2, 76, 80
8, 429569, Note_on_c, 2, 72, 0
8, 429569, Note_on_c, 2, 76, 0
8, 429600, Note_on_c, 2, 67, 80
8, 429600, Note_on_c, 2, 72, 80
8, 429689, Note_on_c, 2, 67, 0
8, 429689, Note_on_c, 2, 72, 0
8, 429720, Note_on_c, 2, 76, 80
8, 429720, Note_on_c, 2, 79, 80
8, 429809, Note_on_c, 2, 76, 0
8, 429809, Note_on_c, 2, 79, 0
8, 429840, Note_on_c, 2, 74, 80
8, 429840, Note_on_c, 2, 77, 80
8, 429929, Note_on_c, 2, 74, 0
8, 429929, Note_on_c, 2, 77, 0
8, 429960, Note_on_c, 2, 67, 80
8, 429960, Note_on_c, 2, 74, 80
8, 430049, Note_on_c, 2, 67, 0
8, 430049, Note_on_c, 2, 74, 0
8, 430080, Note_on_c, 2, 77, 80
8, 430080, Note_on_c, 2, 79, 80
8, 430169, Note_on_c, 2, 77, 0
8, 430169, Note_on_c, 2, 79, 0
8, 430200, Note_on_c, 2, 72, 80
8, 430200, Note_on_c, 2, 76, 80
8, 430289, Note_on_c, 2, 72, 0
8, 430289, Note_on_c, 2, 76, 0
8, 430320, Note_on_c, 2, 72, 80
8, 430320, Note_on_c, 2, 67, 80
8, 430409, Note_on_c, 2, 72, 0
8, 430409, Note_on_c, 2, 67, 0
8, 430440, Note_on_c, 2, 79, 80
8, 430440, Note_on_c, 2, 76, 80
8, 430529, Note_on_c, 2, 79, 0
8, 430529, Note_on_c, 2, 76, 0
8, 430560, Note_on_c, 2, 77, 80
8, 430560, Note_on_c, 2, 74, 80
8, 430649, Note_on_c, 2, 77, 0
8, 430649, Note_on_c, 2, 74, 0
8, 430680, Note_on_c, 2, 67, 80
8, 430680, Note_on_c, 2, 74, 80
8, 430769, Note_on_c, 2, 67, 0
8, 430769, Note_on_c, 2, 74, 0
8, 430800, Note_on_c, 2, 77, 80
8, 430800, Note_on_c, 2, 79, 80
8, 430889, Note_on_c, 2, 77, 0
8, 430889, Note_on_c, 2, 79, 0
8, 430920, Note_on_c, 2, 55, 32
8, 431039, Note_on_c, 2, 55, 0
8, 431040, Note_on_c, 2, 57, 32
8, 431159, Note_on_c, 2, 57, 0
8, 431160, Note_on_c, 2, 59, 32
8, 431279, Note_on_c, 2, 59, 0
8, 431280, Note_on_c, 2, 60, 32
8, 431399, Note_on_c, 2, 60, 0
8, 431400, Note_on_c, 2, 62, 32
8, 431519, Note_on_c, 2, 62, 0
8, 431520, Note_on_c, 2, 64, 32
8, 431639, Note_on_c, 2, 64, 0
8, 431640, Note_on_c, 2, 65, 32
8, 431759, Note_on_c, 2, 65, 0
8, 431760, Note_on_c, 2, 64, 32
8, 431879, Note_on_c, 2, 64, 0
8, 431880, Note_on_c, 2, 65, 32
8, 431999, Note_on_c, 2, 65, 0
8, 432000, Note_on_c, 2, 67, 32
8, 432119, Note_on_c, 2, 67, 0
8, 432120, Note_on_c, 2, 69, 32
8, 432239, Note_on_c, 2, 69, 0
8, 432240, Note_on_c, 2, 71, 32
8, 432359, Note_on_c, 2, 71, 0
8, 432360, Note_on_c, 2, 72, 32
8, 432479, Note_on_c, 2, 72, 0
8, 432720, Note_on_c, 2, 64, 32
8, 432720, Note_on_c, 2, 60, 32
8, 432884, Note_on_c, 2, 64, 0
8, 432884, Note_on_c, 2, 60, 0
8, 432900, Note_on_c, 2, 64, 32
8, 432900, Note_on_c, 2, 60, 32
8, 432944, Note_on_c, 2, 64, 0
8, 432944, Note_on_c, 2, 60, 0
8, 432960, Note_on_c, 2, 64, 32
8, 432960, Note_on_c, 2, 60, 32
8, 433064, Note_on_c, 2, 64, 0
8, 433064, Note_on_c, 2, 60, 0
8, 433080, Note_on_c, 2, 60, 32
8, 433080, Note_on_c, 2, 69, 32
8, 433199, Note_on_c, 2, 60, 0
8, 433199, Note_on_c, 2, 69, 0
8, 433440, Note_on_c, 2, 65, 32
8, 433440, Note_on_c, 2, 69, 32
8, 433604, Note_on_c, 2, 65, 0
8, 433604, Note_on_c, 2, 69, 0
8, 433620, Note_on_c, 2, 65, 32
8, 433620, Note_on_c, 2, 69, 32
8, 433664, Note_on_c, 2, 65, 0
8, 433664, Note_on_c, 2, 69, 0
8, 433680, Note_on_c, 2, 69, 32
8, 433680, Note_on_c, 2, 65, 32
8, 433784, Note_on_c, 2, 69, 0
8, 433784, Note_on_c, 2, 65, 0
8, 433800, Note_on_c, 2, 65, 32
8, 433800, Note_on_c, 2, 69, 32
8, 433919, Note_on_c, 2, 65, 0
8, 433919, Note_on_c, 2, 69, 0
8, 436680, Note_on_c, 2, 74, 32
8, 436799, Note_on_c, 2, 74, 0
8, 437040, Note_on_c, 2, 69, 32
8, 437159, Note_on_c, 2, 69, 0
8, 437400, Note_on_c, 2, 71, 32
8, 437519, Note_on_c, 2, 71, 0
8, 437760, Note_on_c, 2, 72, 32
8, 437879, Note_on_c, 2, 72, 0
8, 438120, Note_on_c, 2, 70, 32
8, 438239, Note_on_c, 2, 70, 0
8, 438480, Note_on_c, 2, 65, 32
8, 438599, Note_on_c, 2, 65, 0
8, 438840, Note_on_c, 2, 61, 32
8, 438959, Note_on_c, 2, 61, 0
8, 439200, Note_on_c, 2, 62, 32
8, 439319, Note_on_c, 2, 62, 0
8, 439560, Note_on_c, 2, 69, 32
8, 439679, Note_on_c, 2, 69, 0
8, 439920, Note_on_c, 2, 69, 32
8, 440039, Note_on_c, 2, 69, 0
8, 440280, Note_on_c, 2, 64, 32
8, 440399, Note_on_c, 2, 64, 0
8, 440640, Note_on_c, 2, 76, 32
8, 440640, Note_on_c, 2, 64, 32
8, 440759, Note_on_c, 2, 76, 0
8, 440759, Note_on_c, 2, 64, 0
8, 441000, Note_on_c, 2, 73, 32
8, 441000, Note_on_c, 2, 64, 32
8, 441119, Note_on_c, 2, 73, 0
8, 441119, Note_on_c, 2, 64, 0
8, 441360, Note_on_c, 2, 69, 32
8, 441360, Note_on_c, 2, 74, 32
8, 441479, Note_on_c, 2, 69, 0
8, 441479, Note_on_c, 2, 74, 0
8, 441720, Note_on_c, 2, 69, 32
8, 441720, Note_on_c, 2, 79, 32
8, 441839, Note_on_c, 2, 69, 0
8, 441839, Note_on_c, 2, 79, 0
8, 442080, Note_on_c, 2, 69, 32
8, 442080, Note_on_c, 2, 74, 32
8, 442199, Note_on_c, 2, 69, 0
8, 442199, Note_on_c, 2, 74, 0
8, 442440, Note_on_c, 2, 69, 32
8, 442440, Note_on_c, 2, 74, 32
8, 442559, Note_on_c, 2, 69, 0
8, 442559, Note_on_c, 2, 74, 0
8, 442800, Note_on_c, 2, 69, 32
8, 442800, Note_on_c, 2, 76, 32
8, 442919, Note_on_c, 2, 69, 0
8, 442919, Note_on_c, 2, 76, 0
8, 443160, Note_on_c, 2, 71, 32
8, 443160, Note_on_c, 2, 76, 32
8, 443279, Note_on_c, 2, 71, 0
8, 443279, Note_on_c, 2, 76, 0
8, 443520, Note_on_c, 2, 76, 32
8, 443520, Note_on_c, 2, 72, 32
8, 443639, Note_on_c, 2, 76, 0
8, 443639, Note_on_c, 2, 72, 0
8, 443880, Note_on_c, 2, 67, 32
8, 443880, Note_on_c, 2, 76, 32
8, 443999, Note_on_c, 2, 67, 0
8, 443999, Note_on_c, 2, 76, 0
8, 444240, Note_on_c, 2, 74, 32
8, 444240, Note_on_c, 2, 69, 32
8, 444359, Note_on_c, 2, 74, 0
8, 444359, Note_on_c, 2, 69, 0
8, 444600, Note_on_c, 2, 69, 32
8, 444600, Note_on_c, 2, 64, 32
8, 444719, Note_on_c, 2, 69, 0
8, 444719, Note_on_c, 2, 64, 0
8, 444960, Note_on_c, 2, 65, 32
8, 444960, Note_on_c, 2, 69, 32
8, 445079, Note_on_c, 2, 65, 0
8, 445079, Note_on_c, 2, 69, 0
8, 445320, Note_on_c, 2, 74, 32
8, 445320, Note_on_c, 2, 62, 32
8, 445439, Note_on_c, 2, 74, 0
8, 445439, Note_on_c, 2, 62, 0
8, 445680, Note_on_c, 2, 64, 32
8, 445680, Note_on_c, 2, 69, 32
8, 445799, Note_on_c, 2, 64, 0
8, 445799, Note_on_c, 2, 69, 0
8, 446040, Note_on_c, 2, 59, 32
8, 446040, Note_on_c, 2, 71, 32
8, 446159, Note_on_c, 2, 59, 0
8, 446159, Note_on_c, 2, 71, 0
8, 446400, Note_on_c, 2, 60, 32
8, 446400, Note_on_c, 2, 69, 32
8, 446519, Note_on_c, 2, 60, 0
8, 446519, Note_on_c, 2, 69, 0
8, 446760, Note_on_c, 2, 64, 32
8, 446760, Note_on_c, 2, 61, 32
8, 446879, Note_on_c, 2, 64, 0
8, 446879, Note_on_c, 2, 61, 0
8, 447120, Note_on_c, 2, 57, 32
8, 447120, Note_on_c, 2, 69, 32
8, 447239, Note_on_c, 2, 57, 0
8, 447239, Note_on_c, 2, 69, 0
8, 447480, Note_on_c, 2, 69, 32
8, 447480, Note_on_c, 2, 61, 32
8, 447599, Note_on_c, 2, 69, 0
8, 447599, Note_on_c, 2, 61, 0
8, 447840, Note_on_c, 2, 69, 32
8, 447840, Note_on_c, 2, 65, 32
8, 447959, Note_on_c, 2, 69, 0
8, 447959, Note_on_c, 2, 65, 0
8, 448080, Control_c, 2, 11, 27
8, 448200, Control_c, 2, 11, 27
8, 448200, Note_on_c, 2, 69, 92
8, 448200, Note_on_c, 2, 57, 92
8, 448243, Control_c, 2, 11, 28
8, 448286, Control_c, 2, 11, 29
8, 448330, Control_c, 2, 11, 30
8, 448373, Control_c, 2, 11, 31
8, 448416, Control_c, 2, 11, 32
8, 448459, Control_c, 2, 11, 33
8, 448502, Control_c, 2, 11, 34
8, 448546, Control_c, 2, 11, 35
8, 448589, Control_c, 2, 11, 36
8, 448632, Control_c, 2, 11, 37
8, 448675, Control_c, 2, 11, 38
8, 448718, Control_c, 2, 11, 39
8, 448762, Control_c, 2, 11, 40
8, 448805, Control_c, 2, 11, 41
8, 448848, Control_c, 2, 11, 42
8, 448891, Control_c, 2, 11, 43
8, 448934, Control_c, 2, 11, 44
8, 448978, Control_c, 2, 11, 45
8, 449021, Control_c, 2, 11, 46
8, 449064, Control_c, 2, 11, 47
8, 449107, Control_c, 2, 11, 48
8, 449150, Control_c, 2, 11, 49
8, 449194, Control_c, 2, 11, 50
8, 449237, Control_c, 2, 11, 51
8, 449280, Control_c, 2, 11, 52
8, 449323, Control_c, 2, 11, 53
8, 449366, Control_c, 2, 11, 54
8, 449410, Control_c, 2, 11, 55
8, 449453, Control_c, 2, 11, 56
8, 449496, Control_c, 2, 11, 57
8, 449539, Control_c, 2, 11, 58
8, 449582, Control_c, 2, 11, 59
8, 449626, Control_c, 2, 11, 60
8, 449669, Control_c, 2, 11, 61
8, 449712, Control_c, 2, 11, 62
8, 449755, Control_c, 2, 11, 63
8, 449798, Control_c, 2, 11, 64
8, 449842, Control_c, 2, 11, 65
8, 449885, Control_c, 2, 11, 66
8, 449928, Control_c, 2, 11, 67
8, 449971, Control_c, 2, 11, 68
8, 450014, Control_c, 2, 11, 69
8, 450058, Control_c, 2, 11, 70
8, 450101, Control_c, 2, 11, 71
8, 450144, Control_c, 2, 11, 72
8, 450187, Control_c, 2, 11, 73
8, 450230, Control_c, 2, 11, 74
8, 450274, Control_c, 2, 11, 75
8, 450317, Control_c, 2, 11, 76
8, 450360, Control_c, 2, 11, 77
8, 450403, Control_c, 2, 11, 78
8, 450446, Control_c, 2, 11, 79
8, 450490, Control_c, 2, 11, 80
8, 450533, Control_c, 2, 11, 81
8, 450576, Control_c, 2, 11, 82
8, 450619, Control_c, 2, 11, 83
8, 450662, Control_c, 2, 11, 84
8, 450706, Control_c, 2, 11, 85
8, 450749, Control_c, 2, 11, 86
8, 450792, Control_c, 2, 11, 87
8, 450835, Control_c, 2, 11, 88
8, 450878, Control_c, 2, 11, 89
8, 450922, Control_c, 2, 11, 90
8, 450965, Control_c, 2, 11, 91
8, 451008, Control_c, 2, 11, 92
8, 451051, Control_c, 2, 11, 93
8, 451094, Control_c, 2, 11, 94
8, 451138, Control_c, 2, 11, 95
8, 451181, Control_c, 2, 11, 96
8, 451224, Control_c, 2, 11, 97
8, 451267, Control_c, 2, 11, 98
8, 451310, Control_c, 2, 11, 99
8, 451354, Control_c, 2, 11, 100
8, 451397, Control_c, 2, 11, 101
8, 451440, Control_c, 2, 11, 102
8, 451483, Control_c, 2, 11, 103
8, 451526, Control_c, 2, 11, 104
8, 451570, Control_c, 2, 11, 105
8, 451613, Control_c, 2, 11, 106
8, 451656, Control_c, 2, 11, 107
8, 451699, Control_c, 2, 11, 108
8, 451742, Control_c, 2, 11, 109
8, 451786, Control_c, 2, 11, 110
8, 451829, Control_c, 2, 11, 111
8, 451872, Control_c, 2, 11, 112
8, 451915, Control_c, 2, 11, 113
8, 451958, Control_c, 2, 11, 114
8, 452002, Control_c, 2, 11, 115
8, 452045, Control_c, 2, 11, 116
8, 452088, Control_c, 2, 11, 117
8, 452131, Control_c, 2, 11, 118
8, 452174, Control_c, 2, 11, 119
8, 452218, Control_c, 2, 11, 120
8, 452261, Control_c, 2, 11, 121
8, 452304, Control_c, 2, 11, 122
8, 452347, Control_c, 2, 11, 123
8, 452390, Control_c, 2, 11, 124
8, 452434, Control_c, 2, 11, 125
8, 452477, Control_c, 2, 11, 127
8, 452504, Note_on_c, 2, 69, 0
8, 452504, Note_on_c, 2, 57, 0
8, 452520, Note_on_c, 2, 81, 92
8, 452520, Note_on_c, 2, 69, 92
8, 452684, Note_on_c, 2, 81, 0
8, 452684, Note_on_c, 2, 69, 0
8, 452700, Note_on_c, 2, 57, 92
8, 452700, Note_on_c, 2, 69, 92
8, 452744, Note_on_c, 2, 57, 0
8, 452744, Note_on_c, 2, 69, 0
8, 452760, Note_on_c, 2, 69, 92
8, 452760, Note_on_c, 2, 57, 92
8, 452864, Note_on_c, 2, 69, 0
8, 452864, Note_on_c, 2, 57, 0
8, 452880, Note_on_c, 2, 74, 92
8, 452880, Note_on_c, 2, 69, 92
8, 452984, Note_on_c, 2, 74, 0
8, 452984, Note_on_c, 2, 69, 0
8, 453000, Note_on_c, 2, 76, 92
8, 453000, Note_on_c, 2, 69, 92
8, 453104, Note_on_c, 2, 76, 0
8, 453104, Note_on_c, 2, 69, 0
8, 453120, Note_on_c, 2, 77, 92
8, 453120, Note_on_c, 2, 69, 92
8, 453224, Note_on_c, 2, 77, 0
8, 453224, Note_on_c, 2, 69, 0
8, 453240, Note_on_c, 2, 69, 92
8, 453240, Note_on_c, 2, 76, 92
8, 453344, Note_on_c, 2, 69, 0
8, 453344, Note_on_c, 2, 76, 0
8, 453360, Note_on_c, 2, 69, 92
8, 453360, Note_on_c, 2, 77, 92
8, 453464, Note_on_c, 2, 69, 0
8, 453464, Note_on_c, 2, 77, 0
8, 453480, Note_on_c, 2, 79, 92
8, 453480, Note_on_c, 2, 69, 92
8, 453584, Note_on_c, 2, 79, 0
8, 453584, Note_on_c, 2, 69, 0
8, 453600, Note_on_c, 2, 77, 92
8, 453600, Note_on_c, 2, 69, 92
8, 453704, Note_on_c, 2, 77, 0
8, 453704, Note_on_c, 2, 69, 0
8, 453720, Note_on_c, 2, 69, 92
8, 453720, Note_on_c, 2, 76, 92
8, 453824, Note_on_c, 2, 69, 0
8, 453824, Note_on_c, 2, 76, 0
8, 453840, Note_on_c, 2, 69, 92
8, 453840, Note_on_c, 2, 74, 92
8, 453944, Note_on_c, 2, 69, 0
8, 453944, Note_on_c, 2, 74, 0
8, 453960, Note_on_c, 2, 70, 80
8, 453960, Note_on_c, 2, 74, 80
8, 454064, Note_on_c, 2, 70, 0
8, 454064, Note_on_c, 2, 74, 0
8, 454080, Note_on_c, 2, 74, 80
8, 454080, Note_on_c, 2, 69, 80
8, 454184, Note_on_c, 2, 74, 0
8, 454184, Note_on_c, 2, 69, 0
8, 454200, Note_on_c, 2, 67, 80
8, 454200, Note_on_c, 2, 74, 80
8, 454304, Note_on_c, 2, 67, 0
8, 454304, Note_on_c, 2, 74, 0
8, 454320, Note_on_c, 2, 77, 80
8, 454320, Note_on_c, 2, 69, 80
8, 454424, Note_on_c, 2, 77, 0
8, 454424, Note_on_c, 2, 69, 0
8, 454440, Note_on_c, 2, 76, 80
8, 454440, Note_on_c, 2, 69, 80
8, 454544, Note_on_c, 2, 76, 0
8, 454544, Note_on_c, 2, 69, 0
8, 454560, Note_on_c, 2, 74, 80
8, 454560, Note_on_c, 2, 69, 80
8, 454664, Note_on_c, 2, 74, 0
8, 454664, Note_on_c, 2, 69, 0
8, 454680, Note_on_c, 2, 73, 80
8, 454680, Note_on_c, 2, 69, 80
8, 454784, Note_on_c, 2, 73, 0
8, 454784, Note_on_c, 2, 69, 0
8, 454800, Note_on_c, 2, 69, 80
8, 454800, Note_on_c, 2, 74, 80
8, 454904, Note_on_c, 2, 69, 0
8, 454904, Note_on_c, 2, 74, 0
8, 454920, Note_on_c, 2, 69, 80
8, 454920, Note_on_c, 2, 76, 80
8, 455024, Note_on_c, 2, 69, 0
8, 455024, Note_on_c, 2, 76, 0
8, 455040, Note_on_c, 2, 74, 80
8, 455040, Note_on_c, 2, 69, 80
8, 455144, Note_on_c, 2, 74, 0
8, 455144, Note_on_c, 2, 69, 0
8, 455160, Note_on_c, 2, 73, 80
8, 455160, Note_on_c, 2, 69, 80
8, 455264, Note_on_c, 2, 73, 0
8, 455264, Note_on_c, 2, 69, 0
8, 455280, Note_on_c, 2, 69, 80
8, 455280, Note_on_c, 2, 74, 80
8, 455384, Note_on_c, 2, 69, 0
8, 455384, Note_on_c, 2, 74, 0
8, 455400, Note_on_c, 2, 74, 80
8, 455400, Note_on_c, 2, 70, 80
8, 455504, Note_on_c, 2, 74, 0
8, 455504, Note_on_c, 2, 70, 0
8, 455520, Note_on_c, 2, 74, 80
8, 455520, Note_on_c, 2, 69, 80
8, 455624, Note_on_c, 2, 74, 0
8, 455624, Note_on_c, 2, 69, 0
8, 455640, Note_on_c, 2, 74, 80
8, 455640, Note_on_c, 2, 67, 80
8, 455744, Note_on_c, 2, 74, 0
8, 455744, Note_on_c, 2, 67, 0
8, 455760, Note_on_c, 2, 77, 80
8, 455760, Note_on_c, 2, 65, 80
8, 455864, Note_on_c, 2, 77, 0
8, 455864, Note_on_c, 2, 65, 0
8, 455880, Note_on_c, 2, 69, 80
8, 455880, Note_on_c, 2, 76, 80
8, 455984, Note_on_c, 2, 69, 0
8, 455984, Note_on_c, 2, 76, 0
8, 456000, Note_on_c, 2, 74, 80
8, 456000, Note_on_c, 2, 69, 80
8, 456104, Note_on_c, 2, 74, 0
8, 456104, Note_on_c, 2, 69, 0
8, 456120, Note_on_c, 2, 73, 80
8, 456120, Note_on_c, 2, 69, 80
8, 456224, Note_on_c, 2, 73, 0
8, 456224, Note_on_c, 2, 69, 0
8, 456240, Note_on_c, 2, 74, 80
8, 456240, Note_on_c, 2, 69, 80
8, 456344, Note_on_c, 2, 74, 0
8, 456344, Note_on_c, 2, 69, 0
8, 456360, Note_on_c, 2, 76, 80
8, 456360, Note_on_c, 2, 67, 80
8, 456464, Note_on_c, 2, 76, 0
8, 456464, Note_on_c, 2, 67, 0
8, 456480, Note_on_c, 2, 65, 80
8, 456480, Note_on_c, 2, 69, 80
8, 456584, Note_on_c, 2, 65, 0
8, 456584, Note_on_c, 2, 69, 0
8, 456600, Note_on_c, 2, 65, 80
8, 456600, Note_on_c, 2, 69, 80
8, 456704, Note_on_c, 2, 65, 0
8, 456704, Note_on_c, 2, 69, 0
8, 456720, Note_on_c, 2, 65, 80
8, 456720, Note_on_c, 2, 71, 80
8, 456824, Note_on_c, 2, 65, 0
8, 456824, Note_on_c, 2, 71, 0
8, 456840, Note_on_c, 2, 71, 80
8, 456840, Note_on_c, 2, 65, 80
8, 456944, Note_on_c, 2, 71, 0
8, 456944, Note_on_c, 2, 65, 0
8, 456960, Note_on_c, 2, 62, 80
8, 456960, Note_on_c, 2, 71, 80
8, 457064, Note_on_c, 2, 62, 0
8, 457064, Note_on_c, 2, 71, 0
8, 457080, Note_on_c, 2, 65, 80
8, 457080, Note_on_c, 2, 74, 80
8, 457184, Note_on_c, 2, 65, 0
8, 457184, Note_on_c, 2, 74, 0
8, 457200, Note_on_c, 2, 76, 80
8, 457200, Note_on_c, 2, 64, 80
8, 457304, Note_on_c, 2, 76, 0
8, 457304, Note_on_c, 2, 64, 0
8, 457320, Note_on_c, 2, 74, 80
8, 457320, Note_on_c, 2, 67, 80
8, 457424, Note_on_c, 2, 74, 0
8, 457424, Note_on_c, 2, 67, 0
8, 457440, Note_on_c, 2, 67, 80
8, 457440, Note_on_c, 2, 72, 80
8, 457544, Note_on_c, 2, 67, 0
8, 457544, Note_on_c, 2, 72, 0
8, 457560, Note_on_c, 2, 67, 80
8, 457560, Note_on_c, 2, 71, 80
8, 457664, Note_on_c, 2, 67, 0
8, 457664, Note_on_c, 2, 71, 0
8, 457680, Note_on_c, 2, 67, 80
8, 457680, Note_on_c, 2, 72, 80
8, 457784, Note_on_c, 2, 67, 0
8, 457784, Note_on_c, 2, 72, 0
8, 457800, Note_on_c, 2, 74, 80
8, 457800, Note_on_c, 2, 67, 80
8, 457904, Note_on_c, 2, 74, 0
8, 457904, Note_on_c, 2, 67, 0
8, 457920, Note_on_c, 2, 72, 80
8, 457920, Note_on_c, 2, 67, 80
8, 458024, Note_on_c, 2, 72, 0
8, 458024, Note_on_c, 2, 67, 0
8, 458040, Note_on_c, 2, 81, 80
8, 458040, Note_on_c, 2, 77, 80
8, 458144, Note_on_c, 2, 81, 0
8, 458144, Note_on_c, 2, 77, 0
8, 458160, Note_on_c, 2, 81, 80
8, 458160, Note_on_c, 2, 77, 80
8, 458264, Note_on_c, 2, 81, 0
8, 458264, Note_on_c, 2, 77, 0
8, 458280, Note_on_c, 2, 81, 80
8, 458280, Note_on_c, 2, 77, 80
8, 458384, Note_on_c, 2, 81, 0
8, 458384, Note_on_c, 2, 77, 0
8, 458400, Note_on_c, 2, 74, 80
8, 458400, Note_on_c, 2, 79, 80
8, 458504, Note_on_c, 2, 74, 0
8, 458504, Note_on_c, 2, 79, 0
8, 458520, Note_on_c, 2, 74, 80
8, 458520, Note_on_c, 2, 77, 80
8, 458624, Note_on_c, 2, 74, 0
8, 458624, Note_on_c, 2, 77, 0
8, 458640, Note_on_c, 2, 76, 80
8, 458640, Note_on_c, 2, 67, 80
8, 458744, Note_on_c, 2, 76, 0
8, 458744, Note_on_c, 2, 67, 0
8, 458760, Note_on_c, 2, 74, 80
8, 458760, Note_on_c, 2, 67, 80
8, 458864, Note_on_c, 2, 74, 0
8, 458864, Note_on_c, 2, 67, 0
8, 458880, Note_on_c, 2, 67, 80
8, 458880, Note_on_c, 2, 72, 80
8, 458984, Note_on_c, 2, 67, 0
8, 458984, Note_on_c, 2, 72, 0
8, 459000, Note_on_c, 2, 67, 80
8, 459000, Note_on_c, 2, 79, 80
8, 459104, Note_on_c, 2, 67, 0
8, 459104, Note_on_c, 2, 79, 0
8, 459120, Note_on_c, 2, 67, 80
8, 459120, Note_on_c, 2, 77, 80
8, 459224, Note_on_c, 2, 67, 0
8, 459224, Note_on_c, 2, 77, 0
8, 459240, Note_on_c, 2, 67, 80
8, 459240, Note_on_c, 2, 76, 80
8, 459344, Note_on_c, 2, 67, 0
8, 459344, Note_on_c, 2, 76, 0
8, 459360, Note_on_c, 2, 79, 80
8, 459360, Note_on_c, 2, 67, 80
8, 459464, Note_on_c, 2, 79, 0
8, 459464, Note_on_c, 2, 67, 0
8, 459480, Note_on_c, 2, 77, 80
8, 459480, Note_on_c, 2, 67, 80
8, 459584, Note_on_c, 2, 77, 0
8, 459584, Note_on_c, 2, 67, 0
8, 459600, Note_on_c, 2, 76, 80
8, 459600, Note_on_c, 2, 67, 80
8, 459704, Note_on_c, 2, 76, 0
8, 459704, Note_on_c, 2, 67, 0
8, 459720, Note_on_c, 2, 74, 80
8, 459720, Note_on_c, 2, 67, 80
8, 459839, Note_on_c, 2, 74, 0
8, 459839, Note_on_c, 2, 67, 0
8, 462240, Control_c, 2, 11, 47
8, 462600, Control_c, 2, 11, 49
8, 462600, Note_on_c, 2, 67, 92
8, 462637, Control_c, 2, 11, 50
8, 462674, Control_c, 2, 11, 51
8, 462711, Control_c, 2, 11, 52
8, 462748, Control_c, 2, 11, 53
8, 462785, Control_c, 2, 11, 54
8, 462822, Control_c, 2, 11, 55
8, 462858, Control_c, 2, 11, 56
8, 462895, Control_c, 2, 11, 57
8, 462932, Control_c, 2, 11, 58
8, 462969, Control_c, 2, 11, 59
8, 463006, Control_c, 2, 11, 60
8, 463043, Control_c, 2, 11, 61
8, 463080, Control_c, 2, 11, 62
8, 463117, Control_c, 2, 11, 63
8, 463154, Control_c, 2, 11, 64
8, 463191, Control_c, 2, 11, 65
8, 463228, Control_c, 2, 11, 66
8, 463265, Control_c, 2, 11, 67
8, 463302, Control_c, 2, 11, 68
8, 463320, Note_on_c, 2, 69, 92
8, 463338, Control_c, 2, 11, 69
8, 463375, Control_c, 2, 11, 70
8, 463412, Control_c, 2, 11, 71
8, 463449, Control_c, 2, 11, 72
8, 463486, Control_c, 2, 11, 73
8, 463523, Control_c, 2, 11, 74
8, 463560, Control_c, 2, 11, 75
8, 463597, Control_c, 2, 11, 76
8, 463634, Control_c, 2, 11, 77
8, 463671, Control_c, 2, 11, 78
8, 463679, Note_on_c, 2, 67, 0
8, 463680, Note_on_c, 2, 65, 92
8, 463708, Control_c, 2, 11, 79
8, 463745, Control_c, 2, 11, 80
8, 463782, Control_c, 2, 11, 81
8, 463818, Control_c, 2, 11, 82
8, 463855, Control_c, 2, 11, 83
8, 463892, Control_c, 2, 11, 84
8, 463929, Control_c, 2, 11, 85
8, 463966, Control_c, 2, 11, 86
8, 464003, Control_c, 2, 11, 87
8, 464039, Note_on_c, 2, 69, 0
8, 464040, Note_on_c, 2, 68, 92
8, 464040, Control_c, 2, 11, 88
8, 464077, Control_c, 2, 11, 89
8, 464114, Control_c, 2, 11, 90
8, 464151, Control_c, 2, 11, 91
8, 464188, Control_c, 2, 11, 92
8, 464225, Control_c, 2, 11, 93
8, 464262, Control_c, 2, 11, 94
8, 464298, Control_c, 2, 11, 95
8, 464335, Control_c, 2, 11, 96
8, 464372, Control_c, 2, 11, 97
8, 464399, Note_on_c, 2, 65, 0
8, 464399, Note_on_c, 2, 68, 0
8, 464400, Note_on_c, 2, 67, 92
8, 464400, Note_on_c, 2, 64, 92
8, 464409, Control_c, 2, 11, 98
8, 464446, Control_c, 2, 11, 99
8, 464483, Control_c, 2, 11, 100
8, 464520, Control_c, 2, 11, 101
8, 464557, Control_c, 2, 11, 102
8, 464594, Control_c, 2, 11, 103
8, 464631, Control_c, 2, 11, 104
8, 464668, Control_c, 2, 11, 105
8, 464705, Control_c, 2, 11, 106
8, 464742, Control_c, 2, 11, 107
8, 464759, Note_on_c, 2, 64, 0
8, 464760, Note_on_c, 2, 63, 60
8, 464778, Control_c, 2, 11, 108
8, 464815, Control_c, 2, 11, 109
8, 464852, Control_c, 2, 11, 110
8, 464889, Control_c, 2, 11, 111
8, 464926, Control_c, 2, 11, 112
8, 464963, Control_c, 2, 11, 113
8, 465000, Control_c, 2, 11, 114
8, 465037, Control_c, 2, 11, 115
8, 465074, Control_c, 2, 11, 116
8, 465111, Control_c, 2, 11, 117
8, 465119, Note_on_c, 2, 63, 0
8, 465120, Note_on_c, 2, 62, 92
8, 465148, Control_c, 2, 11, 118
8, 465185, Control_c, 2, 11, 119
8, 465222, Control_c, 2, 11, 120
8, 465258, Control_c, 2, 11, 121
8, 465295, Control_c, 2, 11, 122
8, 465332, Control_c, 2, 11, 123
8, 465369, Control_c, 2, 11, 124
8, 465406, Control_c, 2, 11, 125
8, 465443, Control_c, 2, 11, 127
8, 465464, Note_on_c, 2, 67, 0
8, 465464, Note_on_c, 2, 62, 0
8, 465480, Note_on_c, 2, 72, 92
8, 465480, Note_on_c, 2, 60, 92
8, 465599, Note_on_c, 2, 60, 0
8, 465600, Note_on_c, 2, 64, 92
8, 465719, Note_on_c, 2, 72, 0
8, 465719, Note_on_c, 2, 64, 0
8, 465720, Note_on_c, 2, 65, 92
8, 465720, Note_on_c, 2, 74, 92
8, 465779, Note_on_c, 2, 65, 0
8, 465779, Note_on_c, 2, 74, 0
8, 465780, Note_on_c, 2, 76, 92
8, 465780, Note_on_c, 2, 67, 92
8, 465824, Note_on_c, 2, 76, 0
8, 465824, Note_on_c, 2, 67, 0
8, 465840, Note_on_c, 2, 69, 92
8, 465840, Note_on_c, 2, 77, 92
8, 465959, Note_on_c, 2, 69, 0
8, 465959, Note_on_c, 2, 77, 0
8, 466080, Note_on_c, 2, 67, 92
8, 466080, Note_on_c, 2, 76, 92
8, 466169, Note_on_c, 2, 67, 0
8, 466169, Note_on_c, 2, 76, 0
8, 466200, Note_on_c, 2, 74, 92
8, 466200, Note_on_c, 2, 65, 92
8, 466289, Note_on_c, 2, 74, 0
8, 466289, Note_on_c, 2, 65, 0
8, 466440, Note_on_c, 2, 72, 92
8, 466440, Note_on_c, 2, 64, 92
8, 466529, Note_on_c, 2, 72, 0
8, 466529, Note_on_c, 2, 64, 0
8, 466560, Note_on_c, 2, 74, 92
8, 466560, Note_on_c, 2, 65, 92
8, 466649, Note_on_c, 2, 74, 0
8, 466649, Note_on_c, 2, 65, 0
8, 466800, Note_on_c, 2, 62, 92
8, 466800, Note_on_c, 2, 71, 92
8, 466889, Note_on_c, 2, 62, 0
8, 466889, Note_on_c, 2, 71, 0
8, 466920, Note_on_c, 2, 64, 92
8, 466920, Note_on_c, 2, 60, 92
8, 467159, Note_on_c, 2, 64, 0
8, 467159, Note_on_c, 2, 60, 0
8, 467160, Note_on_c, 2, 62, 92
8, 467160, Note_on_c, 2, 65, 92
8, 467219, Note_on_c, 2, 62, 0
8, 467219, Note_on_c, 2, 65, 0
8, 467220, Note_on_c, 2, 64, 92
8, 467220, Note_on_c, 2, 67, 92
8, 467264, Note_on_c, 2, 64, 0
8, 467264, Note_on_c, 2, 67, 0
8, 467280, Note_on_c, 2, 69, 92
8, 467280, Note_on_c, 2, 65, 92
8, 467369, Note_on_c, 2, 69, 0
8, 467369, Note_on_c, 2, 65, 0
8, 467520, Note_on_c, 2, 64, 92
8, 467520, Note_on_c, 2, 67, 92
8, 467609, Note_on_c, 2, 64, 0
8, 467609, Note_on_c, 2, 67, 0
8, 467640, Note_on_c, 2, 62, 92
8, 467640, Note_on_c, 2, 65, 92
8, 467729, Note_on_c, 2, 62, 0
8, 467729, Note_on_c, 2, 65, 0
8, 467880, Note_on_c, 2, 60, 92
8, 467880, Note_on_c, 2, 64, 92
8, 467969, Note_on_c, 2, 60, 0
8, 467969, Note_on_c, 2, 64, 0
8, 468000, Note_on_c, 2, 62, 92
8, 468000, Note_on_c, 2, 65, 92
8, 468089, Note_on_c, 2, 62, 0
8, 468089, Note_on_c, 2, 65, 0
8, 468240, Note_on_c, 2, 62, 92
8, 468240, Note_on_c, 2, 59, 92
8, 468329, Note_on_c, 2, 62, 0
8, 468329, Note_on_c, 2, 59, 0
8, 468360, Note_on_c, 2, 60, 92
8, 468360, Note_on_c, 2, 64, 92
8, 468449, Note_on_c, 2, 60, 0
8, 468449, Note_on_c, 2, 64, 0
8, 468480, Note_on_c, 2, 72, 92
8, 468480, Note_on_c, 2, 64, 92
8, 468599, Note_on_c, 2, 72, 0
8, 468599, Note_on_c, 2, 64, 0
8, 468600, Note_on_c, 2, 65, 92
8, 468600, Note_on_c, 2, 74, 92
8, 468659, Note_on_c, 2, 65, 0
8, 468659, Note_on_c, 2, 74, 0
8, 468660, Note_on_c, 2, 67, 92
8, 468660, Note_on_c, 2, 76, 92
8, 468704, Note_on_c, 2, 67, 0
8, 468704, Note_on_c, 2, 76, 0
8, 468720, Note_on_c, 2, 77, 92
8, 468720, Note_on_c, 2, 69, 92
8, 468809, Note_on_c, 2, 77, 0
8, 468809, Note_on_c, 2, 69, 0
8, 468840, Note_on_c, 2, 77, 92
8, 468840, Note_on_c, 2, 69, 92
8, 468929, Note_on_c, 2, 77, 0
8, 468929, Note_on_c, 2, 69, 0
8, 468960, Note_on_c, 2, 67, 92
8, 468960, Note_on_c, 2, 76, 92
8, 469049, Note_on_c, 2, 67, 0
8, 469049, Note_on_c, 2, 76, 0
8, 469080, Note_on_c, 2, 65, 92
8, 469080, Note_on_c, 2, 74, 92
8, 469169, Note_on_c, 2, 65, 0
8, 469169, Note_on_c, 2, 74, 0
8, 469200, Note_on_c, 2, 74, 92
8, 469200, Note_on_c, 2, 65, 92
8, 469289, Note_on_c, 2, 74, 0
8, 469289, Note_on_c, 2, 65, 0
8, 469320, Note_on_c, 2, 64, 92
8, 469320, Note_on_c, 2, 72, 92
8, 469409, Note_on_c, 2, 64, 0
8, 469409, Note_on_c, 2, 72, 0
8, 469440, Note_on_c, 2, 74, 92
8, 469440, Note_on_c, 2, 65, 92
8, 469529, Note_on_c, 2, 74, 0
8, 469529, Note_on_c, 2, 65, 0
8, 469560, Note_on_c, 2, 74, 92
8, 469560, Note_on_c, 2, 65, 92
8, 469649, Note_on_c, 2, 74, 0
8, 469649, Note_on_c, 2, 65, 0
8, 469680, Note_on_c, 2, 62, 92
8, 469680, Note_on_c, 2, 71, 92
8, 469769, Note_on_c, 2, 62, 0
8, 469769, Note_on_c, 2, 71, 0
8, 469800, Note_on_c, 2, 72, 92
8, 469800, Note_on_c, 2, 64, 92
8, 469889, Note_on_c, 2, 72, 0
8, 469889, Note_on_c, 2, 64, 0
8, 469920, Note_on_c, 2, 60, 92
8, 469920, Note_on_c, 2, 64, 92
8, 470039, Note_on_c, 2, 60, 0
8, 470039, Note_on_c, 2, 64, 0
8, 470040, Note_on_c, 2, 62, 92
8, 470040, Note_on_c, 2, 65, 92
8, 470099, Note_on_c, 2, 62, 0
8, 470099, Note_on_c, 2, 65, 0
8, 470100, Note_on_c, 2, 67, 92
8, 470100, Note_on_c, 2, 64, 92
8, 470144, Note_on_c, 2, 67, 0
8, 470144, Note_on_c, 2, 64, 0
8, 470160, Note_on_c, 2, 65, 92
8, 470160, Note_on_c, 2, 69, 92
8, 470249, Note_on_c, 2, 65, 0
8, 470249, Note_on_c, 2, 69, 0
8, 470280, Note_on_c, 2, 69, 92
8, 470280, Note_on_c, 2, 65, 92
8, 470369, Note_on_c, 2, 69, 0
8, 470369, Note_on_c, 2, 65, 0
8, 470400, Note_on_c, 2, 67, 92
8, 470400, Note_on_c, 2, 64, 92
8, 470489, Note_on_c, 2, 67, 0
8, 470489, Note_on_c, 2, 64, 0
8, 470520, Note_on_c, 2, 62, 92
8, 470520, Note_on_c, 2, 65, 92
8, 470609, Note_on_c, 2, 62, 0
8, 470609, Note_on_c, 2, 65, 0
8, 470640, Note_on_c, 2, 65, 92
8, 470640, Note_on_c, 2, 62, 92
8, 470729, Note_on_c, 2, 65, 0
8, 470729, Note_on_c, 2, 62, 0
8, 470760, Note_on_c, 2, 60, 92
8, 470760, Note_on_c, 2, 64, 92
8, 470849, Note_on_c, 2, 60, 0
8, 470849, Note_on_c, 2, 64, 0
8, 470880, Note_on_c, 2, 65, 92
8, 470880, Note_on_c, 2, 62, 92
8, 470969, Note_on_c, 2, 65, 0
8, 470969, Note_on_c, 2, 62, 0
8, 471000, Note_on_c, 2, 62, 92
8, 471000, Note_on_c, 2, 65, 92
8, 471089, Note_on_c, 2, 62, 0
8, 471089, Note_on_c, 2, 65, 0
8, 471120, Note_on_c, 2, 62, 92
8, 471120, Note_on_c, 2, 71, 92
8, 471209, Note_on_c, 2, 62, 0
8, 471209, Note_on_c, 2, 71, 0
8, 471240, Note_on_c, 2, 64, 92
8, 471240, Note_on_c, 2, 60, 92
8, 471404, Note_on_c, 2, 64, 0
8, 471404, Note_on_c, 2, 60, 0
8, 471420, Note_on_c, 2, 52, 92
8, 471420, Note_on_c, 2, 64, 92
8, 471464, Note_on_c, 2, 52, 0
8, 471464, Note_on_c, 2, 64, 0
8, 471480, Note_on_c, 2, 52, 92
8, 471480, Note_on_c, 2, 64, 92
8, 471584, Note_on_c, 2, 52, 0
8, 471584, Note_on_c, 2, 64, 0
8, 471600, Note_on_c, 2, 64, 92
8, 471600, Note_on_c, 2, 52, 92
8, 471689, Note_on_c, 2, 64, 0
8, 471689, Note_on_c, 2, 52, 0
8, 471720, Note_on_c, 2, 65, 92
8, 471720, Note_on_c, 2, 53, 92
8, 471809, Note_on_c, 2, 65, 0
8, 471809, Note_on_c, 2, 53, 0
8, 471840, Note_on_c, 2, 67, 92
8, 471840, Note_on_c, 2, 55, 92
8, 471929, Note_on_c, 2, 67, 0
8, 471929, Note_on_c, 2, 55, 0
8, 471960, Note_on_c, 2, 69, 92
8, 471960, Note_on_c, 2, 57, 92
8, 472079, Note_on_c, 2, 69, 0
8, 472079, Note_on_c, 2, 57, 0
8, 472320, Note_on_c, 2, 69, 92
8, 472320, Note_on_c, 2, 57, 92
8, 472409, Note_on_c, 2, 69, 0
8, 472409, Note_on_c, 2, 57, 0
8, 472440, Note_on_c, 2, 59, 92
8, 472440, Note_on_c, 2, 71, 92
8, 472529, Note_on_c, 2, 59, 0
8, 472529, Note_on_c, 2, 71, 0
8, 472560, Note_on_c, 2, 60, 92
8, 472560, Note_on_c, 2, 72, 92
8, 472649, Note_on_c, 2, 60, 0
8, 472649, Note_on_c, 2, 72, 0
8, 472680, Note_on_c, 2, 62, 92
8, 472680, Note_on_c, 2, 74, 92
8, 472844, Note_on_c, 2, 62, 0
8, 472844, Note_on_c, 2, 74, 0
8, 472860, Note_on_c, 2, 62, 92
8, 472860, Note_on_c, 2, 74, 92
8, 472904, Note_on_c, 2, 62, 0
8, 472904, Note_on_c, 2, 74, 0
8, 472920, Note_on_c, 2, 62, 92
8, 472920, Note_on_c, 2, 74, 92
8, 473024, Note_on_c, 2, 62, 0
8, 473024, Note_on_c, 2, 74, 0
8, 473040, Note_on_c, 2, 62, 92
8, 473040, Note_on_c, 2, 74, 92
8, 473129, Note_on_c, 2, 62, 0
8, 473129, Note_on_c, 2, 74, 0
8, 473160, Note_on_c, 2, 76, 92
8, 473160, Note_on_c, 2, 64, 92
8, 473249, Note_on_c, 2, 76, 0
8, 473249, Note_on_c, 2, 64, 0
8, 473280, Note_on_c, 2, 77, 92
8, 473280, Note_on_c, 2, 65, 92
8, 473369, Note_on_c, 2, 77, 0
8, 473369, Note_on_c, 2, 65, 0
8, 473400, Note_on_c, 2, 67, 92
8, 473400, Note_on_c, 2, 79, 92
8, 473519, Note_on_c, 2, 67, 0
8, 473519, Note_on_c, 2, 79, 0
8, 473760, Note_on_c, 2, 55, 92
8, 473760, Note_on_c, 2, 67, 92
8, 473849, Note_on_c, 2, 55, 0
8, 473849, Note_on_c, 2, 67, 0
8, 473880, Note_on_c, 2, 60, 92
8, 473880, Note_on_c, 2, 72, 92
8, 473969, Note_on_c, 2, 60, 0
8, 473969, Note_on_c, 2, 72, 0
8, 474000, Note_on_c, 2, 62, 92
8, 474000, Note_on_c, 2, 74, 92
8, 474089, Note_on_c, 2, 62, 0
8, 474089, Note_on_c, 2, 74, 0
8, 474120, Note_on_c, 2, 64, 44
8, 474120, Note_on_c, 2, 76, 44
8, 474239, Note_on_c, 2, 64, 0
8, 474239, Note_on_c, 2, 76, 0
8, 476280, Note_on_c, 2, 67, 44
8, 476399, Note_on_c, 2, 67, 0
8, 476400, Note_on_c, 2, 60, 47
8, 476519, Note_on_c, 2, 60, 0
8, 476520, Note_on_c, 2, 62, 50
8, 476639, Note_on_c, 2, 62, 0
8, 476640, Note_on_c, 2, 64, 53
8, 476759, Note_on_c, 2, 64, 0
8, 476760, Note_on_c, 2, 65, 56
8, 476879, Note_on_c, 2, 65, 0
8, 476880, Note_on_c, 2, 67, 59
8, 476999, Note_on_c, 2, 67, 0
8, 477000, Note_on_c, 2, 66, 62
8, 477119, Note_on_c, 2, 66, 0
8, 477120, Note_on_c, 2, 67, 65
8, 477239, Note_on_c, 2, 67, 0
8, 477240, Note_on_c, 2, 69, 68
8, 477359, Note_on_c, 2, 69, 0
8, 477360, Note_on_c, 2, 67, 71
8, 477479, Note_on_c, 2, 67, 0
8, 477480, Note_on_c, 2, 74, 74
8, 477480, Note_on_c, 2, 71, 74
8, 477599, Note_on_c, 2, 74, 0
8, 477599, Note_on_c, 2, 71, 0
8, 477600, Note_on_c, 2, 72, 77
8, 477600, Note_on_c, 2, 67, 77
8, 477704, Note_on_c, 2, 72, 0
8, 477704, Note_on_c, 2, 67, 0
8, 477720, Note_on_c, 2, 55, 80
8, 477720, Note_on_c, 2, 67, 80
8, 477809, Note_on_c, 2, 55, 0
8, 477809, Note_on_c, 2, 67, 0
8, 477840, Note_on_c, 2, 64, 80
8, 477840, Note_on_c, 2, 76, 80
8, 477929, Note_on_c, 2, 64, 0
8, 477929, Note_on_c, 2, 76, 0
8, 477960, Note_on_c, 2, 69, 80
8, 477960, Note_on_c, 2, 65, 80
8, 478049, Note_on_c, 2, 69, 0
8, 478049, Note_on_c, 2, 65, 0
8, 478080, Note_on_c, 2, 77, 80
8, 478080, Note_on_c, 2, 65, 80
8, 478169, Note_on_c, 2, 77, 0
8, 478169, Note_on_c, 2, 65, 0
8, 478200, Note_on_c, 2, 74, 80
8, 478200, Note_on_c, 2, 67, 80
8, 478289, Note_on_c, 2, 74, 0
8, 478289, Note_on_c, 2, 67, 0
8, 478320, Note_on_c, 2, 71, 80
8, 478320, Note_on_c, 2, 74, 80
8, 478409, Note_on_c, 2, 71, 0
8, 478409, Note_on_c, 2, 74, 0
8, 478440, Note_on_c, 2, 72, 80
8, 478440, Note_on_c, 2, 76, 80
8, 478559, Note_on_c, 2, 72, 0
8, 478559, Note_on_c, 2, 76, 0
8, 479160, Note_on_c, 2, 64, 80
8, 479160, Note_on_c, 2, 67, 80
8, 479249, Note_on_c, 2, 64, 0
8, 479249, Note_on_c, 2, 67, 0
8, 479280, Note_on_c, 2, 64, 80
8, 479280, Note_on_c, 2, 76, 80
8, 479369, Note_on_c, 2, 64, 0
8, 479369, Note_on_c, 2, 76, 0
8, 479400, Note_on_c, 2, 69, 80
8, 479400, Note_on_c, 2, 65, 80
8, 479489, Note_on_c, 2, 69, 0
8, 479489, Note_on_c, 2, 65, 0
8, 479520, Note_on_c, 2, 65, 80
8, 479520, Note_on_c, 2, 77, 80
8, 479609, Note_on_c, 2, 65, 0
8, 479609, Note_on_c, 2, 77, 0
8, 479640, Note_on_c, 2, 67, 80
8, 479640, Note_on_c, 2, 74, 80
8, 479729, Note_on_c, 2, 67, 0
8, 479729, Note_on_c, 2, 74, 0
8, 479760, Note_on_c, 2, 74, 80
8, 479760, Note_on_c, 2, 71, 80
8, 479849, Note_on_c, 2, 74, 0
8, 479849, Note_on_c, 2, 71, 0
8, 479880, Note_on_c, 2, 72, 80
8, 479880, Note_on_c, 2, 76, 80
8, 479969, Note_on_c, 2, 72, 0
8, 479969, Note_on_c, 2, 76, 0
8, 480000, Note_on_c, 2, 67, 80
8, 480000, Note_on_c, 2, 79, 80
8, 480089, Note_on_c, 2, 67, 0
8, 480089, Note_on_c, 2, 79, 0
8, 480120, Note_on_c, 2, 67, 80
8, 480120, Note_on_c, 2, 79, 80
8, 480209, Note_on_c, 2, 67, 0
8, 480209, Note_on_c, 2, 79, 0
8, 480240, Note_on_c, 2, 79, 80
8, 480240, Note_on_c, 2, 67, 80
8, 480329, Note_on_c, 2, 79, 0
8, 480329, Note_on_c, 2, 67, 0
8, 480360, Note_on_c, 2, 67, 80
8, 480360, Note_on_c, 2, 79, 80
8, 480449, Note_on_c, 2, 67, 0
8, 480449, Note_on_c, 2, 79, 0
8, 480480, Note_on_c, 2, 67, 80
8, 480480, Note_on_c, 2, 79, 80
8, 480569, Note_on_c, 2, 67, 0
8, 480569, Note_on_c, 2, 79, 0
8, 480600, Note_on_c, 2, 76, 80
8, 480600, Note_on_c, 2, 72, 80
8, 480689, Note_on_c, 2, 76, 0
8, 480689, Note_on_c, 2, 72, 0
8, 480720, Note_on_c, 2, 67, 80
8, 480720, Note_on_c, 2, 72, 80
8, 480809, Note_on_c, 2, 67, 0
8, 480809, Note_on_c, 2, 72, 0
8, 480840, Note_on_c, 2, 79, 80
8, 480840, Note_on_c, 2, 76, 80
8, 480929, Note_on_c, 2, 79, 0
8, 480929, Note_on_c, 2, 76, 0
8, 480960, Note_on_c, 2, 77, 80
8, 480960, Note_on_c, 2, 74, 80
8, 481049, Note_on_c, 2, 77, 0
8, 481049, Note_on_c, 2, 74, 0
8, 481080, Note_on_c, 2, 67, 80
8, 481080, Note_on_c, 2, 74, 80
8, 481169, Note_on_c, 2, 67, 0
8, 481169, Note_on_c, 2, 74, 0
8, 481200, Note_on_c, 2, 79, 80
8, 481200, Note_on_c, 2, 77, 80
8, 481289, Note_on_c, 2, 79, 0
8, 481289, Note_on_c, 2, 77, 0
8, 481320, Note_on_c, 2, 72, 80
8, 481320, Note_on_c, 2, 76, 80
8, 481409, Note_on_c, 2, 72, 0
8, 481409, Note_on_c, 2, 76, 0
8, 481440, Note_on_c, 2, 67, 80
8, 481440, Note_on_c, 2, 72, 80
8, 481529, Note_on_c, 2, 67, 0
8, 481529, Note_on_c, 2, 72, 0
8, 481560, Note_on_c, 2, 76, 80
8, 481560, Note_on_c, 2, 79, 80
8, 481649, Note_on_c, 2, 76, 0
8, 481649, Note_on_c, 2, 79, 0
8, 481680, Note_on_c, 2, 74, 80
8, 481680, Note_on_c, 2, 77, 80
8, 481769, Note_on_c, 2, 74, 0
8, 481769, Note_on_c, 2, 77, 0
8, 481800, Note_on_c, 2, 67, 80
8, 481800, Note_on_c, 2, 74, 80
8, 481889, Note_on_c, 2, 67, 0
8, 481889, Note_on_c, 2, 74, 0
8, 481920, Note_on_c, 2, 79, 80
8, 481920, Note_on_c, 2, 77, 80
8, 482009, Note_on_c, 2, 79, 0
8, 482009, Note_on_c, 2, 77, 0
8, 482040, Note_on_c, 2, 55, 32
8, 482159, Note_on_c, 2, 55, 0
8, 482160, Note_on_c, 2, 57, 32
8, 482279, Note_on_c, 2, 57, 0
8, 482280, Note_on_c, 2, 59, 32
8, 482399, Note_on_c, 2, 59, 0
8, 482400, Note_on_c, 2, 60, 32
8, 482519, Note_on_c, 2, 60, 0
8, 482520, Note_on_c, 2, 62, 32
8, 482639, Note_on_c, 2, 62, 0
8, 482640, Note_on_c, 2, 64, 32
8, 482759, Note_on_c, 2, 64, 0
8, 482760, Note_on_c, 2, 65, 32
8, 482879, Note_on_c, 2, 65, 0
8, 482880, Note_on_c, 2, 64, 32
8, 482999, Note_on_c, 2, 64, 0
8, 483000, Note_on_c, 2, 65, 32
8, 483119, Note_on_c, 2, 65, 0
8, 483120, Note_on_c, 2, 67, 32
8, 483239, Note_on_c, 2, 67, 0
8, 483240, Note_on_c, 2, 69, 32
8, 483359, Note_on_c, 2, 69, 0
8, 483360, Note_on_c, 2, 71, 32
8, 483479, Note_on_c, 2, 71, 0
8, 483480, Note_on_c, 2, 72, 32
8, 483599, Note_on_c, 2, 72, 0
8, 483840, Note_on_c, 2, 64, 32
8, 483840, Note_on_c, 2, 60, 32
8, 484004, Note_on_c, 2, 64, 0
8, 484004, Note_on_c, 2, 60, 0
8, 484020, Note_on_c, 2, 60, 32
8, 484020, Note_on_c, 2, 64, 32
8, 484064, Note_on_c, 2, 60, 0
8, 484064, Note_on_c, 2, 64, 0
8, 484080, Note_on_c, 2, 64, 32
8, 484080, Note_on_c, 2, 60, 32
8, 484184, Note_on_c, 2, 64, 0
8, 484184, Note_on_c, 2, 60, 0
8, 484200, Note_on_c, 2, 69, 32
8, 484200, Note_on_c, 2, 60, 32
8, 484319, Note_on_c, 2, 69, 0
8, 484319, Note_on_c, 2, 60, 0
8, 484560, Note_on_c, 2, 65, 32
8, 484560, Note_on_c, 2, 69, 32
8, 484724, Note_on_c, 2, 65, 0
8, 484724, Note_on_c, 2, 69, 0
8, 484740, Note_on_c, 2, 65, 32
8, 484740, Note_on_c, 2, 69, 32
8, 484784, Note_on_c, 2, 65, 0
8, 484784, Note_on_c, 2, 69, 0
8, 484800, Note_on_c, 2, 69, 32
8, 484800, Note_on_c, 2, 65, 32
8, 484904, Note_on_c, 2, 69, 0
8, 484904, Note_on_c, 2, 65, 0
8, 484920, Note_on_c, 2, 69, 32
8, 484920, Note_on_c, 2, 65, 32
8, 485039, Note_on_c, 2, 69, 0
8, 485039, Note_on_c, 2, 65, 0
8, 486720, Note_on_c, 2, 65, 32
8, 486720, Note_on_c, 2, 62, 32
8, 486884, Note_on_c, 2, 65, 0
8, 486884, Note_on_c, 2, 62, 0
8, 486900, Note_on_c, 2, 62, 32
8, 486900, Note_on_c, 2, 65, 32
8, 486944, Note_on_c, 2, 62, 0
8, 486944, Note_on_c, 2, 65, 0
8, 486960, Note_on_c, 2, 65, 32
8, 486960, Note_on_c, 2, 62, 32
8, 487064, Note_on_c, 2, 65, 0
8, 487064, Note_on_c, 2, 62, 0
8, 487080, Note_on_c, 2, 62, 32
8, 487080, Note_on_c, 2, 67, 32
8, 487199, Note_on_c, 2, 62, 0
8, 487199, Note_on_c, 2, 67, 0
8, 487440, Note_on_c, 2, 63, 32
8, 487440, Note_on_c, 2, 67, 32
8, 487604, Note_on_c, 2, 63, 0
8, 487604, Note_on_c, 2, 67, 0
8, 487620, Note_on_c, 2, 63, 32
8, 487620, Note_on_c, 2, 67, 32
8, 487664, Note_on_c, 2, 63, 0
8, 487664, Note_on_c, 2, 67, 0
8, 487680, Note_on_c, 2, 63, 32
8, 487680, Note_on_c, 2, 67, 32
8, 487784, Note_on_c, 2, 63, 0
8, 487784, Note_on_c, 2, 67, 0
8, 487800, Note_on_c, 2, 63, 32
8, 487800, Note_on_c, 2, 67, 32
8, 487919, Note_on_c, 2, 63, 0
8, 487919, Note_on_c, 2, 67, 0
8, 489600, Note_on_c, 2, 67, 36
8, 489600, Note_on_c, 2, 63, 36
8, 489764, Note_on_c, 2, 67, 0
8, 489764, Note_on_c, 2, 63, 0
8, 489780, Note_on_c, 2, 67, 38
8, 489780, Note_on_c, 2, 63, 38
8, 489824, Note_on_c, 2, 67, 0
8, 489824, Note_on_c, 2, 63, 0
8, 489840, Note_on_c, 2, 67, 38
8, 489840, Note_on_c, 2, 63, 38
8, 489944, Note_on_c, 2, 67, 0
8, 489944, Note_on_c, 2, 63, 0
8, 489960, Note_on_c, 2, 68, 40
8, 489960, Note_on_c, 2, 63, 40
8, 490079, Note_on_c, 2, 68, 0
8, 490079, Note_on_c, 2, 63, 0
8, 490320, Note_on_c, 2, 65, 44
8, 490320, Note_on_c, 2, 68, 44
8, 490484, Note_on_c, 2, 65, 0
8, 490484, Note_on_c, 2, 68, 0
8, 490500, Note_on_c, 2, 68, 46
8, 490500, Note_on_c, 2, 65, 46
8, 490544, Note_on_c, 2, 68, 0
8, 490544, Note_on_c, 2, 65, 0
8, 490560, Note_on_c, 2, 68, 46
8, 490560, Note_on_c, 2, 65, 46
8, 490664, Note_on_c, 2, 68, 0
8, 490664, Note_on_c, 2, 65, 0
8, 490680, Note_on_c, 2, 68, 48
8, 490680, Note_on_c, 2, 65, 48
8, 490799, Note_on_c, 2, 68, 0
8, 490799, Note_on_c, 2, 65, 0
8, 491040, Note_on_c, 2, 70, 52
8, 491040, Note_on_c, 2, 65, 52
8, 491204, Note_on_c, 2, 70, 0
8, 491204, Note_on_c, 2, 65, 0
8, 491220, Note_on_c, 2, 70, 54
8, 491220, Note_on_c, 2, 65, 54
8, 491264, Note_on_c, 2, 70, 0
8, 491264, Note_on_c, 2, 65, 0
8, 491280, Note_on_c, 2, 70, 54
8, 491280, Note_on_c, 2, 65, 54
8, 491384, Note_on_c, 2, 70, 0
8, 491384, Note_on_c, 2, 65, 0
8, 491400, Note_on_c, 2, 66, 56
8, 491400, Note_on_c, 2, 70, 56
8, 491519, Note_on_c, 2, 66, 0
8, 491519, Note_on_c, 2, 70, 0
8, 491760, Note_on_c, 2, 66, 60
8, 491760, Note_on_c, 2, 70, 60
8, 491924, Note_on_c, 2, 66, 0
8, 491924, Note_on_c, 2, 70, 0
8, 491940, Note_on_c, 2, 66, 62
8, 491940, Note_on_c, 2, 70, 62
8, 491984, Note_on_c, 2, 66, 0
8, 491984, Note_on_c, 2, 70, 0
8, 492000, Note_on_c, 2, 70, 62
8, 492000, Note_on_c, 2, 66, 62
8, 492104, Note_on_c, 2, 70, 0
8, 492104, Note_on_c, 2, 66, 0
8, 492120, Note_on_c, 2, 66, 64
8, 492120, Note_on_c, 2, 71, 64
8, 492239, Note_on_c, 2, 66, 0
8, 492239, Note_on_c, 2, 71, 0
8, 492480, Note_on_c, 2, 68, 68
8, 492480, Note_on_c, 2, 71, 68
8, 492644, Note_on_c, 2, 68, 0
8, 492644, Note_on_c, 2, 71, 0
8, 492660, Note_on_c, 2, 68, 70
8, 492660, Note_on_c, 2, 71, 70
8, 492704, Note_on_c, 2, 68, 0
8, 492704, Note_on_c, 2, 71, 0
8, 492720, Note_on_c, 2, 71, 70
8, 492720, Note_on_c, 2, 68, 70
8, 492824, Note_on_c, 2, 71, 0
8, 492824, Note_on_c, 2, 68, 0
8, 492840, Note_on_c, 2, 68, 72
8, 492840, Note_on_c, 2, 71, 72
8, 492959, Note_on_c, 2, 68, 0
8, 492959, Note_on_c, 2, 71, 0
8, 493200, Note_on_c, 2, 68, 76
8, 493200, Note_on_c, 2, 73, 76
8, 493364, Note_on_c, 2, 68, 0
8, 493364, Note_on_c, 2, 73, 0
8, 493380, Note_on_c, 2, 68, 78
8, 493380, Note_on_c, 2, 73, 78
8, 493424, Note_on_c, 2, 68, 0
8, 493424, Note_on_c, 2, 73, 0
8, 493440, Note_on_c, 2, 73, 78
8, 493440, Note_on_c, 2, 68, 78
8, 493544, Note_on_c, 2, 73, 0
8, 493544, Note_on_c, 2, 68, 0
8, 493560, Note_on_c, 2, 73, 80
8, 493560, Note_on_c, 2, 69, 80
8, 493679, Note_on_c, 2, 73, 0
8, 493679, Note_on_c, 2, 69, 0
8, 493920, Note_on_c, 2, 69, 80
8, 493920, Note_on_c, 2, 81, 80
8, 494084, Note_on_c, 2, 69, 0
8, 494084, Note_on_c, 2, 81, 0
8, 494100, Note_on_c, 2, 69, 80
8, 494100, Note_on_c, 2, 57, 80
8, 494144, Note_on_c, 2, 69, 0
8, 494144, Note_on_c, 2, 57, 0
8, 494160, Note_on_c, 2, 57, 80
8, 494160, Note_on_c, 2, 69, 80
8, 494264, Note_on_c, 2, 57, 0
8, 494264, Note_on_c, 2, 69, 0
8, 494640, Note_on_c, 2, 58, 92
8, 494640, Note_on_c, 2, 70, 92
8, 494804, Note_on_c, 2, 58, 0
8, 494804, Note_on_c, 2, 70, 0
8, 494820, Note_on_c, 2, 58, 92
8, 494864, Note_on_c, 2, 58, 0
8, 494880, Note_on_c, 2, 58, 92
8, 494984, Note_on_c, 2, 58, 0
8, 495360, Note_on_c, 2, 59, 92
8, 495360, Note_on_c, 2, 71, 92
8, 495524, Note_on_c, 2, 59, 0
8, 495524, Note_on_c, 2, 71, 0
8, 495540, Note_on_c, 2, 59, 92
8, 495584, Note_on_c, 2, 59, 0
8, 495600, Note_on_c, 2, 59, 92
8, 496049, Note_on_c, 2, 59, 0
8, 497160, Note_on_c, 2, 71, 44
8, 497324, Note_on_c, 2, 71, 0
8, 497340, Note_on_c, 2, 59, 44
8, 497384, Note_on_c, 2, 59, 0
8, 497400, Note_on_c, 2, 59, 44
8, 497504, Note_on_c, 2, 59, 0
8, 497520, Note_on_c, 2, 64, 44
8, 497609, Note_on_c, 2, 64, 0
8, 497640, Note_on_c, 2, 66, 44
8, 497640, Note_on_c, 2, 63, 44
8, 497729, Note_on_c, 2, 66, 0
8, 497729, Note_on_c, 2, 63, 0
8, 497760, Note_on_c, 2, 64, 44
8, 497760, Note_on_c, 2, 67, 44
8, 497849, Note_on_c, 2, 64, 0
8, 497849, Note_on_c, 2, 67, 0
8, 497880, Note_on_c, 2, 63, 44
8, 497880, Note_on_c, 2, 66, 44
8, 497969, Note_on_c, 2, 63, 0
8, 497969, Note_on_c, 2, 66, 0
8, 498000, Note_on_c, 2, 64, 44
8, 498000, Note_on_c, 2, 67, 44
8, 498089, Note_on_c, 2, 64, 0
8, 498089, Note_on_c, 2, 67, 0
8, 498120, Note_on_c, 2, 66, 44
8, 498120, Note_on_c, 2, 69, 44
8, 498209, Note_on_c, 2, 66, 0
8, 498209, Note_on_c, 2, 69, 0
8, 498240, Note_on_c, 2, 64, 44
8, 498240, Note_on_c, 2, 67, 44
8, 498329, Note_on_c, 2, 64, 0
8, 498329, Note_on_c, 2, 67, 0
8, 498360, Note_on_c, 2, 71, 44
8, 498360, Note_on_c, 2, 67, 44
8, 498449, Note_on_c, 2, 71, 0
8, 498449, Note_on_c, 2, 67, 0
8, 498480, Note_on_c, 2, 71, 44
8, 498480, Note_on_c, 2, 67, 44
8, 498569, Note_on_c, 2, 71, 0
8, 498569, Note_on_c, 2, 67, 0
8, 498600, Note_on_c, 2, 67, 44
8, 498600, Note_on_c, 2, 71, 44
8, 498689, Note_on_c, 2, 67, 0
8, 498689, Note_on_c, 2, 71, 0
8, 498720, Note_on_c, 2, 66, 44
8, 498720, Note_on_c, 2, 69, 44
8, 498809, Note_on_c, 2, 66, 0
8, 498809, Note_on_c, 2, 69, 0
8, 498840, Note_on_c, 2, 67, 44
8, 498840, Note_on_c, 2, 64, 44
8, 498929, Note_on_c, 2, 67, 0
8, 498929, Note_on_c, 2, 64, 0
8, 498960, Note_on_c, 2, 66, 44
8, 498960, Note_on_c, 2, 69, 44
8, 499049, Note_on_c, 2, 66, 0
8, 499049, Note_on_c, 2, 69, 0
8, 499080, Note_on_c, 2, 67, 44
8, 499080, Note_on_c, 2, 64, 44
8, 499169, Note_on_c, 2, 67, 0
8, 499169, Note_on_c, 2, 64, 0
8, 499200, Note_on_c, 2, 63, 44
8, 499200, Note_on_c, 2, 66, 44
8, 499289, Note_on_c, 2, 63, 0
8, 499289, Note_on_c, 2, 66, 0
8, 499320, Note_on_c, 2, 64, 44
8, 499320, Note_on_c, 2, 68, 44
8, 499409, Note_on_c, 2, 64, 0
8, 499409, Note_on_c, 2, 68, 0
8, 499440, Note_on_c, 2, 64, 44
8, 499440, Note_on_c, 2, 76, 44
8, 499529, Note_on_c, 2, 64, 0
8, 499529, Note_on_c, 2, 76, 0
8, 499560, Note_on_c, 2, 76, 44
8, 499560, Note_on_c, 2, 64, 44
8, 499649, Note_on_c, 2, 76, 0
8, 499649, Note_on_c, 2, 64, 0
8, 499680, Note_on_c, 2, 76, 44
8, 499680, Note_on_c, 2, 72, 44
8, 499769, Note_on_c, 2, 76, 0
8, 499769, Note_on_c, 2, 72, 0
8, 499800, Note_on_c, 2, 74, 44
8, 499800, Note_on_c, 2, 71, 44
8, 499889, Note_on_c, 2, 74, 0
8, 499889, Note_on_c, 2, 71, 0
8, 499920, Note_on_c, 2, 69, 44
8, 499920, Note_on_c, 2, 72, 44
8, 500009, Note_on_c, 2, 69, 0
8, 500009, Note_on_c, 2, 72, 0
8, 500040, Note_on_c, 2, 71, 44
8, 500040, Note_on_c, 2, 74, 44
8, 500129, Note_on_c, 2, 71, 0
8, 500129, Note_on_c, 2, 74, 0
8, 500160, Note_on_c, 2, 69, 44
8, 500160, Note_on_c, 2, 72, 44
8, 500249, Note_on_c, 2, 69, 0
8, 500249, Note_on_c, 2, 72, 0
8, 500280, Note_on_c, 2, 71, 44
8, 500280, Note_on_c, 2, 68, 44
8, 500369, Note_on_c, 2, 71, 0
8, 500369, Note_on_c, 2, 68, 0
8, 500400, Note_on_c, 2, 76, 44
8, 500564, Note_on_c, 2, 76, 0
8, 500580, Note_on_c, 2, 64, 44
8, 500624, Note_on_c, 2, 64, 0
8, 500640, Note_on_c, 2, 64, 44
8, 500744, Note_on_c, 2, 64, 0
8, 500760, Note_on_c, 2, 69, 44
8, 500760, Note_on_c, 2, 64, 44
8, 500849, Note_on_c, 2, 69, 0
8, 500849, Note_on_c, 2, 64, 0
8, 500880, Note_on_c, 2, 68, 44
8, 500880, Note_on_c, 2, 71, 44
8, 500969, Note_on_c, 2, 68, 0
8, 500969, Note_on_c, 2, 71, 0
8, 501000, Note_on_c, 2, 69, 44
8, 501000, Note_on_c, 2, 72, 44
8, 501089, Note_on_c, 2, 69, 0
8, 501089, Note_on_c, 2, 72, 0
8, 501120, Note_on_c, 2, 68, 44
8, 501120, Note_on_c, 2, 71, 44
8, 501209, Note_on_c, 2, 68, 0
8, 501209, Note_on_c, 2, 71, 0
8, 501240, Note_on_c, 2, 69, 44
8, 501240, Note_on_c, 2, 72, 44
8, 501329, Note_on_c, 2, 69, 0
8, 501329, Note_on_c, 2, 72, 0
8, 501360, Note_on_c, 2, 71, 44
8, 501360, Note_on_c, 2, 74, 44
8, 501449, Note_on_c, 2, 71, 0
8, 501449, Note_on_c, 2, 74, 0
8, 501480, Note_on_c, 2, 69, 44
8, 501480, Note_on_c, 2, 72, 44
8, 501569, Note_on_c, 2, 69, 0
8, 501569, Note_on_c, 2, 72, 0
8, 501600, Note_on_c, 2, 72, 44
8, 501600, Note_on_c, 2, 76, 44
8, 501689, Note_on_c, 2, 72, 0
8, 501689, Note_on_c, 2, 76, 0
8, 501720, Note_on_c, 2, 76, 44
8, 501720, Note_on_c, 2, 72, 44
8, 501809, Note_on_c, 2, 76, 0
8, 501809, Note_on_c, 2, 72, 0
8, 501840, Note_on_c, 2, 72, 44
8, 501840, Note_on_c, 2, 76, 44
8, 501929, Note_on_c, 2, 72, 0
8, 501929, Note_on_c, 2, 76, 0
8, 501960, Note_on_c, 2, 74, 44
8, 501960, Note_on_c, 2, 71, 44
8, 502049, Note_on_c, 2, 74, 0
8, 502049, Note_on_c, 2, 71, 0
8, 502080, Note_on_c, 2, 72, 44
8, 502080, Note_on_c, 2, 69, 44
8, 502169, Note_on_c, 2, 72, 0
8, 502169, Note_on_c, 2, 69, 0
8, 502200, Note_on_c, 2, 71, 44
8, 502200, Note_on_c, 2, 74, 44
8, 502289, Note_on_c, 2, 71, 0
8, 502289, Note_on_c, 2, 74, 0
8, 502320, Note_on_c, 2, 69, 44
8, 502320, Note_on_c, 2, 72, 44
8, 502409, Note_on_c, 2, 69, 0
8, 502409, Note_on_c, 2, 72, 0
8, 502440, Note_on_c, 2, 68, 44
8, 502440, Note_on_c, 2, 71, 44
8, 502529, Note_on_c, 2, 68, 0
8, 502529, Note_on_c, 2, 71, 0
8, 502920, Note_on_c, 2, 69, 44
8, 502920, Note_on_c, 2, 65, 44
8, 503009, Note_on_c, 2, 69, 0
8, 503009, Note_on_c, 2, 65, 0
8, 503040, Note_on_c, 2, 67, 44
8, 503040, Note_on_c, 2, 70, 44
8, 503129, Note_on_c, 2, 67, 0
8, 503129, Note_on_c, 2, 70, 0
8, 503160, Note_on_c, 2, 72, 44
8, 503160, Note_on_c, 2, 69, 44
8, 503249, Note_on_c, 2, 72, 0
8, 503249, Note_on_c, 2, 69, 0
8, 503280, Note_on_c, 2, 70, 44
8, 503280, Note_on_c, 2, 67, 44
8, 503369, Note_on_c, 2, 70, 0
8, 503369, Note_on_c, 2, 67, 0
8, 503400, Note_on_c, 2, 69, 44
8, 503400, Note_on_c, 2, 72, 44
8, 503489, Note_on_c, 2, 69, 0
8, 503489, Note_on_c, 2, 72, 0
8, 503520, Note_on_c, 2, 70, 44
8, 503520, Note_on_c, 2, 74, 44
8, 503609, Note_on_c, 2, 70, 0
8, 503609, Note_on_c, 2, 74, 0
8, 504000, Note_on_c, 2, 72, 44
8, 504000, Note_on_c, 2, 69, 44
8, 504089, Note_on_c, 2, 72, 0
8, 504089, Note_on_c, 2, 69, 0
8, 504120, Note_on_c, 2, 76, 44
8, 504120, Note_on_c, 2, 67, 44
8, 504209, Note_on_c, 2, 76, 0
8, 504209, Note_on_c, 2, 67, 0
8, 504240, Note_on_c, 2, 69, 44
8, 504240, Note_on_c, 2, 77, 44
8, 504329, Note_on_c, 2, 69, 0
8, 504329, Note_on_c, 2, 77, 0
8, 504360, Note_on_c, 2, 76, 44
8, 504360, Note_on_c, 2, 67, 44
8, 504449, Note_on_c, 2, 76, 0
8, 504449, Note_on_c, 2, 67, 0
8, 504480, Note_on_c, 2, 77, 44
8, 504480, Note_on_c, 2, 69, 44
8, 504569, Note_on_c, 2, 77, 0
8, 504569, Note_on_c, 2, 69, 0
8, 504600, Note_on_c, 2, 79, 44
8, 504600, Note_on_c, 2, 70, 44
8, 504689, Note_on_c, 2, 79, 0
8, 504689, Note_on_c, 2, 70, 0
8, 505080, Note_on_c, 2, 72, 44
8, 505080, Note_on_c, 2, 69, 44
8, 505169, Note_on_c, 2, 72, 0
8, 505169, Note_on_c, 2, 69, 0
8, 505200, Note_on_c, 2, 70, 44
8, 505200, Note_on_c, 2, 67, 44
8, 505289, Note_on_c, 2, 70, 0
8, 505289, Note_on_c, 2, 67, 0
8, 505320, Note_on_c, 2, 69, 44
8, 505320, Note_on_c, 2, 65, 44
8, 505409, Note_on_c, 2, 69, 0
8, 505409, Note_on_c, 2, 65, 0
8, 505440, Note_on_c, 2, 74, 44
8, 505440, Note_on_c, 2, 70, 44
8, 505529, Note_on_c, 2, 74, 0
8, 505529, Note_on_c, 2, 70, 0
8, 505560, Note_on_c, 2, 69, 44
8, 505560, Note_on_c, 2, 72, 44
8, 505649, Note_on_c, 2, 69, 0
8, 505649, Note_on_c, 2, 72, 0
8, 505680, Note_on_c, 2, 70, 44
8, 505680, Note_on_c, 2, 67, 44
8, 505769, Note_on_c, 2, 70, 0
8, 505769, Note_on_c, 2, 67, 0
8, 506160, Note_on_c, 2, 69, 44
8, 506160, Note_on_c, 2, 65, 44
8, 506249, Note_on_c, 2, 69, 0
8, 506249, Note_on_c, 2, 65, 0
8, 506280, Note_on_c, 2, 72, 44
8, 506280, Note_on_c, 2, 60, 44
8, 506369, Note_on_c, 2, 72, 0
8, 506369, Note_on_c, 2, 60, 0
8, 506400, Note_on_c, 2, 72, 44
8, 506400, Note_on_c, 2, 60, 44
8, 506489, Note_on_c, 2, 72, 0
8, 506489, Note_on_c, 2, 60, 0
8, 506520, Note_on_c, 2, 72, 44
8, 506520, Note_on_c, 2, 60, 44
8, 506609, Note_on_c, 2, 72, 0
8, 506609, Note_on_c, 2, 60, 0
8, 506640, Note_on_c, 2, 72, 44
8, 506640, Note_on_c, 2, 60, 44
8, 506729, Note_on_c, 2, 72, 0
8, 506729, Note_on_c, 2, 60, 0
8, 506760, Note_on_c, 2, 72, 44
8, 506760, Note_on_c, 2, 60, 44
8, 506849, Note_on_c, 2, 72, 0
8, 506849, Note_on_c, 2, 60, 0
8, 506880, Note_on_c, 2, 69, 44
8, 506880, Note_on_c, 2, 77, 44
8, 506969, Note_on_c, 2, 69, 0
8, 506969, Note_on_c, 2, 77, 0
8, 507000, Note_on_c, 2, 70, 44
8, 507000, Note_on_c, 2, 79, 44
8, 507089, Note_on_c, 2, 70, 0
8, 507089, Note_on_c, 2, 79, 0
8, 507120, Note_on_c, 2, 72, 44
8, 507120, Note_on_c, 2, 81, 44
8, 507209, Note_on_c, 2, 72, 0
8, 507209, Note_on_c, 2, 81, 0
8, 507240, Note_on_c, 2, 81, 44
8, 507240, Note_on_c, 2, 72, 44
8, 507329, Note_on_c, 2, 81, 0
8, 507329, Note_on_c, 2, 72, 0
8, 507360, Note_on_c, 2, 70, 44
8, 507360, Note_on_c, 2, 79, 44
8, 507449, Note_on_c, 2, 70, 0
8, 507449, Note_on_c, 2, 79, 0
8, 507480, Note_on_c, 2, 69, 44
8, 507480, Note_on_c, 2, 77, 44
8, 507569, Note_on_c, 2, 69, 0
8, 507569, Note_on_c, 2, 77, 0
8, 507600, Note_on_c, 2, 77, 43
8, 507600, Note_on_c, 2, 69, 43
8, 507689, Note_on_c, 2, 77, 0
8, 507689, Note_on_c, 2, 69, 0
8, 507720, Note_on_c, 2, 70, 43
8, 507720, Note_on_c, 2, 79, 43
8, 507809, Note_on_c, 2, 70, 0
8, 507809, Note_on_c, 2, 79, 0
8, 507840, Note_on_c, 2, 69, 43
8, 507840, Note_on_c, 2, 77, 43
8, 507929, Note_on_c, 2, 69, 0
8, 507929, Note_on_c, 2, 77, 0
8, 509040, Note_on_c, 2, 65, 39
8, 509040, Note_on_c, 2, 74, 39
8, 509144, Note_on_c, 2, 65, 0
8, 509144, Note_on_c, 2, 74, 0
8, 509160, Note_on_c, 2, 67, 39
8, 509160, Note_on_c, 2, 76, 39
8, 509264, Note_on_c, 2, 67, 0
8, 509264, Note_on_c, 2, 76, 0
8, 509280, Note_on_c, 2, 77, 38
8, 509280, Note_on_c, 2, 69, 38
8, 509384, Note_on_c, 2, 77, 0
8, 509384, Note_on_c, 2, 69, 0
8, 509400, Note_on_c, 2, 77, 38
8, 509400, Note_on_c, 2, 69, 38
8, 509504, Note_on_c, 2, 77, 0
8, 509504, Note_on_c, 2, 69, 0
8, 509520, Note_on_c, 2, 67, 38
8, 509520, Note_on_c, 2, 76, 38
8, 509624, Note_on_c, 2, 67, 0
8, 509624, Note_on_c, 2, 76, 0
8, 509640, Note_on_c, 2, 65, 37
8, 509640, Note_on_c, 2, 74, 37
8, 509744, Note_on_c, 2, 65, 0
8, 509744, Note_on_c, 2, 74, 0
8, 509760, Note_on_c, 2, 74, 37
8, 509760, Note_on_c, 2, 65, 37
8, 509864, Note_on_c, 2, 74, 0
8, 509864, Note_on_c, 2, 65, 0
8, 509880, Note_on_c, 2, 67, 36
8, 509880, Note_on_c, 2, 76, 36
8, 509984, Note_on_c, 2, 67, 0
8, 509984, Note_on_c, 2, 76, 0
8, 510000, Note_on_c, 2, 74, 36
8, 510000, Note_on_c, 2, 65, 36
8, 510104, Note_on_c, 2, 74, 0
8, 510104, Note_on_c, 2, 65, 0
8, 510120, Note_on_c, 2, 69, 36
8, 510120, Note_on_c, 2, 57, 36
8, 510224, Note_on_c, 2, 69, 0
8, 510224, Note_on_c, 2, 57, 0
8, 510240, Note_on_c, 2, 69, 35
8, 510240, Note_on_c, 2, 57, 35
8, 510344, Note_on_c, 2, 69, 0
8, 510344, Note_on_c, 2, 57, 0
8, 510360, Note_on_c, 2, 57, 35
8, 510360, Note_on_c, 2, 69, 35
8, 510464, Note_on_c, 2, 57, 0
8, 510464, Note_on_c, 2, 69, 0
8, 510480, Note_on_c, 2, 57, 35
8, 510480, Note_on_c, 2, 69, 35
8, 510584, Note_on_c, 2, 57, 0
8, 510584, Note_on_c, 2, 69, 0
8, 510600, Note_on_c, 2, 57, 34
8, 510600, Note_on_c, 2, 69, 34
8, 510704, Note_on_c, 2, 57, 0
8, 510704, Note_on_c, 2, 69, 0
8, 510720, Note_on_c, 2, 69, 34
8, 510720, Note_on_c, 2, 57, 34
8, 510824, Note_on_c, 2, 69, 0
8, 510824, Note_on_c, 2, 57, 0
8, 510840, Note_on_c, 2, 69, 34
8, 510840, Note_on_c, 2, 57, 34
8, 510944, Note_on_c, 2, 69, 0
8, 510944, Note_on_c, 2, 57, 0
8, 510960, Note_on_c, 2, 69, 33
8, 510960, Note_on_c, 2, 57, 33
8, 511064, Note_on_c, 2, 69, 0
8, 511064, Note_on_c, 2, 57, 0
8, 511080, Note_on_c, 2, 69, 33
8, 511080, Note_on_c, 2, 57, 33
8, 511184, Note_on_c, 2, 69, 0
8, 511184, Note_on_c, 2, 57, 0
8, 511200, Note_on_c, 2, 69, 32
8, 511200, Note_on_c, 2, 57, 32
8, 511304, Note_on_c, 2, 69, 0
8, 511304, Note_on_c, 2, 57, 0
8, 511320, Note_on_c, 2, 57, 32
8, 511320, Note_on_c, 2, 69, 32
8, 511424, Note_on_c, 2, 57, 0
8, 511424, Note_on_c, 2, 69, 0
8, 511440, Note_on_c, 2, 57, 32
8, 511440, Note_on_c, 2, 69, 32
8, 511544, Note_on_c, 2, 57, 0
8, 511544, Note_on_c, 2, 69, 0
8, 511560, Note_on_c, 2, 69, 32
8, 511560, Note_on_c, 2, 57, 32
8, 511664, Note_on_c, 2, 69, 0
8, 511664, Note_on_c, 2, 57, 0
8, 511680, Note_on_c, 2, 69, 32
8, 511680, Note_on_c, 2, 57, 32
8, 511784, Note_on_c, 2, 69, 0
8, 511784, Note_on_c, 2, 57, 0
8, 511800, Note_on_c, 2, 57, 32
8, 511800, Note_on_c, 2, 69, 32
8, 511904, Note_on_c, 2, 57, 0
8, 511904, Note_on_c, 2, 69, 0
8, 511920, Note_on_c, 2, 69, 32
8, 511920, Note_on_c, 2, 57, 32
8, 512024, Note_on_c, 2, 69, 0
8, 512024, Note_on_c, 2, 57, 0
8, 512040, Note_on_c, 2, 69, 32
8, 512040, Note_on_c, 2, 57, 32
8, 512144, Note_on_c, 2, 69, 0
8, 512144, Note_on_c, 2, 57, 0
8, 512160, Note_on_c, 2, 57, 32
8, 512160, Note_on_c, 2, 69, 32
8, 512264, Note_on_c, 2, 57, 0
8, 512264, Note_on_c, 2, 69, 0
8, 512280, Note_on_c, 2, 69, 32
8, 512280, Note_on_c, 2, 57, 32
8, 512384, Note_on_c, 2, 69, 0
8, 512384, Note_on_c, 2, 57, 0
8, 512400, Note_on_c, 2, 69, 32
8, 512400, Note_on_c, 2, 57, 32
8, 512504, Note_on_c, 2, 69, 0
8, 512504, Note_on_c, 2, 57, 0
8, 512520, Note_on_c, 2, 57, 32
8, 512520, Note_on_c, 2, 69, 32
8, 512624, Note_on_c, 2, 57, 0
8, 512624, Note_on_c, 2, 69, 0
8, 512640, Note_on_c, 2, 57, 32
8, 512640, Note_on_c, 2, 69, 32
8, 512744, Note_on_c, 2, 57, 0
8, 512744, Note_on_c, 2, 69, 0
8, 512760, Note_on_c, 2, 57, 32
8, 512760, Note_on_c, 2, 69, 32
8, 512864, Note_on_c, 2, 57, 0
8, 512864, Note_on_c, 2, 69, 0
8, 512880, Note_on_c, 2, 69, 32
8, 512880, Note_on_c, 2, 57, 32
8, 512984, Note_on_c, 2, 69, 0
8, 512984, Note_on_c, 2, 57, 0
8, 513000, Note_on_c, 2, 69, 32
8, 513000, Note_on_c, 2, 57, 32
8, 513104, Note_on_c, 2, 69, 0
8, 513104, Note_on_c, 2, 57, 0
8, 513120, Note_on_c, 2, 57, 32
8, 513120, Note_on_c, 2, 69, 32
8, 513224, Note_on_c, 2, 57, 0
8, 513224, Note_on_c, 2, 69, 0
8, 513240, Note_on_c, 2, 69, 32
8, 513240, Note_on_c, 2, 57, 32
8, 513344, Note_on_c, 2, 69, 0
8, 513344, Note_on_c, 2, 57, 0
8, 513360, Note_on_c, 2, 69, 32
8, 513524, Note_on_c, 2, 69, 0
8, 513540, Note_on_c, 2, 57, 32
8, 513584, Note_on_c, 2, 57, 0
8, 513600, Note_on_c, 2, 57, 32
8, 513704, Note_on_c, 2, 57, 0
8, 513720, Note_on_c, 2, 62, 32
8, 513824, Note_on_c, 2, 62, 0
8, 513840, Note_on_c, 2, 61, 32
8, 513840, Note_on_c, 2, 64, 32
8, 513944, Note_on_c, 2, 61, 0
8, 513944, Note_on_c, 2, 64, 0
8, 513960, Note_on_c, 2, 62, 32
8, 513960, Note_on_c, 2, 65, 32
8, 514064, Note_on_c, 2, 62, 0
8, 514064, Note_on_c, 2, 65, 0
8, 514080, Note_on_c, 2, 64, 32
8, 514080, Note_on_c, 2, 61, 32
8, 514184, Note_on_c, 2, 64, 0
8, 514184, Note_on_c, 2, 61, 0
8, 514200, Note_on_c, 2, 62, 32
8, 514200, Note_on_c, 2, 65, 32
8, 514304, Note_on_c, 2, 62, 0
8, 514304, Note_on_c, 2, 65, 0
8, 514320, Note_on_c, 2, 67, 32
8, 514320, Note_on_c, 2, 64, 32
8, 514424, Note_on_c, 2, 67, 0
8, 514424, Note_on_c, 2, 64, 0
8, 514440, Note_on_c, 2, 65, 32
8, 514440, Note_on_c, 2, 62, 32
8, 514544, Note_on_c, 2, 65, 0
8, 514544, Note_on_c, 2, 62, 0
8, 514560, Note_on_c, 2, 69, 32
8, 514560, Note_on_c, 2, 65, 32
8, 514664, Note_on_c, 2, 69, 0
8, 514664, Note_on_c, 2, 65, 0
8, 514680, Note_on_c, 2, 65, 32
8, 514680, Note_on_c, 2, 69, 32
8, 514784, Note_on_c, 2, 65, 0
8, 514784, Note_on_c, 2, 69, 0
8, 514800, Note_on_c, 2, 65, 32
8, 514800, Note_on_c, 2, 69, 32
8, 514904, Note_on_c, 2, 65, 0
8, 514904, Note_on_c, 2, 69, 0
8, 514920, Note_on_c, 2, 67, 32
8, 514920, Note_on_c, 2, 64, 32
8, 515024, Note_on_c, 2, 67, 0
8, 515024, Note_on_c, 2, 64, 0
8, 515040, Note_on_c, 2, 62, 32
8, 515040, Note_on_c, 2, 65, 32
8, 515144, Note_on_c, 2, 62, 0
8, 515144, Note_on_c, 2, 65, 0
8, 515160, Note_on_c, 2, 67, 32
8, 515160, Note_on_c, 2, 64, 32
8, 515264, Note_on_c, 2, 67, 0
8, 515264, Note_on_c, 2, 64, 0
8, 515280, Note_on_c, 2, 65, 32
8, 515280, Note_on_c, 2, 62, 32
8, 515384, Note_on_c, 2, 65, 0
8, 515384, Note_on_c, 2, 62, 0
8, 515400, Note_on_c, 2, 61, 32
8, 515400, Note_on_c, 2, 64, 32
8, 515504, Note_on_c, 2, 61, 0
8, 515504, Note_on_c, 2, 64, 0
8, 515520, Note_on_c, 2, 62, 32
8, 515520, Note_on_c, 2, 65, 32
8, 515624, Note_on_c, 2, 62, 0
8, 515624, Note_on_c, 2, 65, 0
8, 515640, Note_on_c, 2, 77, 32
8, 515640, Note_on_c, 2, 69, 32
8, 515744, Note_on_c, 2, 77, 0
8, 515744, Note_on_c, 2, 69, 0
8, 515760, Note_on_c, 2, 77, 32
8, 515760, Note_on_c, 2, 69, 32
8, 515864, Note_on_c, 2, 77, 0
8, 515864, Note_on_c, 2, 69, 0
8, 515880, Note_on_c, 2, 69, 32
8, 515880, Note_on_c, 2, 77, 32
8, 515984, Note_on_c, 2, 69, 0
8, 515984, Note_on_c, 2, 77, 0
8, 516000, Note_on_c, 2, 67, 32
8, 516000, Note_on_c, 2, 76, 32
8, 516104, Note_on_c, 2, 67, 0
8, 516104, Note_on_c, 2, 76, 0
8, 516120, Note_on_c, 2, 74, 32
8, 516120, Note_on_c, 2, 65, 32
8, 516224, Note_on_c, 2, 74, 0
8, 516224, Note_on_c, 2, 65, 0
8, 516240, Note_on_c, 2, 67, 32
8, 516240, Note_on_c, 2, 76, 32
8, 516344, Note_on_c, 2, 67, 0
8, 516344, Note_on_c, 2, 76, 0
8, 516360, Note_on_c, 2, 65, 32
8, 516360, Note_on_c, 2, 74, 32
8, 516464, Note_on_c, 2, 65, 0
8, 516464, Note_on_c, 2, 74, 0
8, 516480, Note_on_c, 2, 64, 32
8, 516480, Note_on_c, 2, 73, 32
8, 516584, Note_on_c, 2, 64, 0
8, 516584, Note_on_c, 2, 73, 0
8, 516600, Note_on_c, 2, 65, 32
8, 516600, Note_on_c, 2, 74, 32
8, 516719, Note_on_c, 2, 65, 0
8, 516719, Note_on_c, 2, 74, 0
8, 518400, Note_on_c, 2, 79, 32
8, 518564, Note_on_c, 2, 79, 0
8, 518580, Note_on_c, 2, 67, 32
8, 518624, Note_on_c, 2, 67, 0
8, 518640, Note_on_c, 2, 67, 32
8, 518744, Note_on_c, 2, 67, 0
8, 518760, Note_on_c, 2, 74, 32
8, 518879, Note_on_c, 2, 74, 0
8, 519120, Note_on_c, 2, 79, 32
8, 519284, Note_on_c, 2, 79, 0
8, 519300, Note_on_c, 2, 67, 32
8, 519344, Note_on_c, 2, 67, 0
8, 519360, Note_on_c, 2, 67, 32
8, 519464, Note_on_c, 2, 67, 0
8, 519480, Note_on_c, 2, 62, 32
8, 519584, Note_on_c, 2, 62, 0
8, 519600, Note_on_c, 2, 70, 32
8, 519704, Note_on_c, 2, 70, 0
8, 519720, Note_on_c, 2, 70, 32
8, 519824, Note_on_c, 2, 70, 0
8, 519840, Note_on_c, 2, 70, 32
8, 519944, Note_on_c, 2, 70, 0
8, 519960, Note_on_c, 2, 70, 32
8, 520064, Note_on_c, 2, 70, 0
8, 520080, Note_on_c, 2, 70, 32
8, 520184, Note_on_c, 2, 70, 0
8, 520200, Note_on_c, 2, 70, 32
8, 520304, Note_on_c, 2, 70, 0
8, 520320, Note_on_c, 2, 70, 32
8, 520424, Note_on_c, 2, 70, 0
8, 520440, Note_on_c, 2, 70, 32
8, 520544, Note_on_c, 2, 70, 0
8, 520560, Note_on_c, 2, 70, 32
8, 520664, Note_on_c, 2, 70, 0
8, 520680, Note_on_c, 2, 70, 32
8, 520784, Note_on_c, 2, 70, 0
8, 520800, Note_on_c, 2, 70, 32
8, 520904, Note_on_c, 2, 70, 0
8, 520920, Note_on_c, 2, 70, 32
8, 521024, Note_on_c, 2, 70, 0
8, 521040, Note_on_c, 2, 70, 32
8, 521144, Note_on_c, 2, 70, 0
8, 521160, Note_on_c, 2, 70, 32
8, 521264, Note_on_c, 2, 70, 0
8, 521280, Note_on_c, 2, 70, 32
8, 521384, Note_on_c, 2, 70, 0
8, 521400, Note_on_c, 2, 70, 32
8, 521504, Note_on_c, 2, 70, 0
8, 521520, Note_on_c, 2, 70, 32
8, 521624, Note_on_c, 2, 70, 0
8, 521640, Note_on_c, 2, 77, 32
8, 521759, Note_on_c, 2, 77, 0
8, 523080, Note_on_c, 2, 75, 32
8, 523199, Note_on_c, 2, 75, 0
8, 523440, Note_on_c, 2, 75, 32
8, 523559, Note_on_c, 2, 75, 0
8, 523800, Note_on_c, 2, 75, 32
8, 523919, Note_on_c, 2, 75, 0
8, 524160, Note_on_c, 2, 75, 32
8, 524279, Note_on_c, 2, 75, 0
8, 524520, Note_on_c, 2, 74, 32
8, 524639, Note_on_c, 2, 74, 0
8, 525960, Note_on_c, 2, 65, 44
8, 525960, Note_on_c, 2, 74, 44
8, 526079, Note_on_c, 2, 65, 0
8, 526079, Note_on_c, 2, 74, 0
8, 526680, Note_on_c, 2, 65, 62
8, 526680, Note_on_c, 2, 69, 62
8, 526799, Note_on_c, 2, 65, 0
8, 526799, Note_on_c, 2, 69, 0
8, 527400, Note_on_c, 2, 65, 80
8, 527400, Note_on_c, 2, 62, 80
8, 527519, Note_on_c, 2, 65, 0
8, 527519, Note_on_c, 2, 62, 0
8, 528120, Note_on_c, 2, 65, 86
8, 528120, Note_on_c, 2, 69, 86
8, 528239, Note_on_c, 2, 65, 0
8, 528239, Note_on_c, 2, 69, 0
8, 528840, Note_on_c, 2, 69, 92
8, 529004, Note_on_c, 2, 69, 0
8, 529020, Note_on_c, 2, 57, 92
8, 529064, Note_on_c, 2, 57, 0
8, 529080, Note_on_c, 2, 57, 92
8, 529184, Note_on_c, 2, 57, 0
8, 529200, Note_on_c, 2, 69, 92
8, 529364, Note_on_c, 2, 69, 0
8, 529380, Note_on_c, 2, 57, 92
8, 529424, Note_on_c, 2, 57, 0
8, 529440, Note_on_c, 2, 57, 92
8, 529544, Note_on_c, 2, 57, 0
8, 529560, Note_on_c, 2, 69, 92
8, 529724, Note_on_c, 2, 69, 0
8, 529740, Note_on_c, 2, 57, 92
8, 529784, Note_on_c, 2, 57, 0
8, 529800, Note_on_c, 2, 57, 92
8, 529904, Note_on_c, 2, 57, 0
8, 529920, Note_on_c, 2, 69, 92
8, 530084, Note_on_c, 2, 69, 0
8, 530100, Note_on_c, 2, 57, 92
8, 530144, Note_on_c, 2, 57, 0
8, 530160, Note_on_c, 2, 57, 92
8, 530264, Note_on_c, 2, 57, 0
8, 530280, Note_on_c, 2, 81, 92
8, 530280, Note_on_c, 2, 69, 92
8, 530444, Note_on_c, 2, 81, 0
8, 530444, Note_on_c, 2, 69, 0
8, 530460, Note_on_c, 2, 57, 92
8, 530460, Note_on_c, 2, 69, 92
8, 530504, Note_on_c, 2, 57, 0
8, 530504, Note_on_c, 2, 69, 0
8, 530520, Note_on_c, 2, 69, 92
8, 530520, Note_on_c, 2, 57, 92
8, 530624, Note_on_c, 2, 69, 0
8, 530624, Note_on_c, 2, 57, 0
8, 530640, Note_on_c, 2, 62, 92
8, 530640, Note_on_c, 2, 74, 92
8, 530729, Note_on_c, 2, 62, 0
8, 530729, Note_on_c, 2, 74, 0
8, 530760, Note_on_c, 2, 76, 92
8, 530760, Note_on_c, 2, 64, 92
8, 530849, Note_on_c, 2, 76, 0
8, 530849, Note_on_c, 2, 64, 0
8, 530880, Note_on_c, 2, 77, 92
8, 530880, Note_on_c, 2, 65, 92
8, 530969, Note_on_c, 2, 77, 0
8, 530969, Note_on_c, 2, 65, 0
8, 531000, Note_on_c, 2, 76, 92
8, 531000, Note_on_c, 2, 64, 92
8, 531089, Note_on_c, 2, 76, 0
8, 531089, Note_on_c, 2, 64, 0
8, 531120, Note_on_c, 2, 77, 92
8, 531120, Note_on_c, 2, 65, 92
8, 531209, Note_on_c, 2, 77, 0
8, 531209, Note_on_c, 2, 65, 0
8, 531240, Note_on_c, 2, 67, 92
8, 531240, Note_on_c, 2, 79, 92
8, 531329, Note_on_c, 2, 67, 0
8, 531329, Note_on_c, 2, 79, 0
8, 531360, Note_on_c, 2, 77, 92
8, 531360, Note_on_c, 2, 65, 92
8, 531449, Note_on_c, 2, 77, 0
8, 531449, Note_on_c, 2, 65, 0
8, 531480, Note_on_c, 2, 64, 92
8, 531480, Note_on_c, 2, 76, 92
8, 531569, Note_on_c, 2, 64, 0
8, 531569, Note_on_c, 2, 76, 0
8, 531600, Note_on_c, 2, 74, 92
8, 531600, Note_on_c, 2, 62, 92
8, 531689, Note_on_c, 2, 74, 0
8, 531689, Note_on_c, 2, 62, 0
8, 531720, Note_on_c, 2, 82, 92
8, 531720, Note_on_c, 2, 70, 92
8, 531809, Note_on_c, 2, 82, 0
8, 531809, Note_on_c, 2, 70, 0
8, 531840, Note_on_c, 2, 81, 92
8, 531840, Note_on_c, 2, 69, 92
8, 531929, Note_on_c, 2, 81, 0
8, 531929, Note_on_c, 2, 69, 0
8, 531960, Note_on_c, 2, 79, 92
8, 531960, Note_on_c, 2, 67, 92
8, 532049, Note_on_c, 2, 79, 0
8, 532049, Note_on_c, 2, 67, 0
8, 532080, Note_on_c, 2, 65, 92
8, 532080, Note_on_c, 2, 77, 92
8, 532169, Note_on_c, 2, 65, 0
8, 532169, Note_on_c, 2, 77, 0
8, 532200, Note_on_c, 2, 76, 92
8, 532200, Note_on_c, 2, 64, 92
8, 532289, Note_on_c, 2, 76, 0
8, 532289, Note_on_c, 2, 64, 0
8, 532320, Note_on_c, 2, 62, 92
8, 532320, Note_on_c, 2, 74, 92
8, 532409, Note_on_c, 2, 62, 0
8, 532409, Note_on_c, 2, 74, 0
8, 532440, Note_on_c, 2, 61, 92
8, 532440, Note_on_c, 2, 73, 92
8, 532529, Note_on_c, 2, 61, 0
8, 532529, Note_on_c, 2, 73, 0
8, 532560, Note_on_c, 2, 62, 92
8, 532560, Note_on_c, 2, 74, 92
8, 532649, Note_on_c, 2, 62, 0
8, 532649, Note_on_c, 2, 74, 0
8, 532680, Note_on_c, 2, 76, 92
8, 532680, Note_on_c, 2, 64, 92
8, 532769, Note_on_c, 2, 76, 0
8, 532769, Note_on_c, 2, 64, 0
8, 532800, Note_on_c, 2, 62, 92
8, 532800, Note_on_c, 2, 74, 92
8, 532889, Note_on_c, 2, 62, 0
8, 532889, Note_on_c, 2, 74, 0
8, 532920, Note_on_c, 2, 73, 92
8, 532920, Note_on_c, 2, 61, 92
8, 533009, Note_on_c, 2, 73, 0
8, 533009, Note_on_c, 2, 61, 0
8, 533040, Note_on_c, 2, 62, 92
8, 533040, Note_on_c, 2, 74, 92
8, 533129, Note_on_c, 2, 62, 0
8, 533129, Note_on_c, 2, 74, 0
8, 533160, Note_on_c, 2, 82, 92
8, 533160, Note_on_c, 2, 70, 92
8, 533249, Note_on_c, 2, 82, 0
8, 533249, Note_on_c, 2, 70, 0
8, 533280, Note_on_c, 2, 81, 92
8, 533280, Note_on_c, 2, 69, 92
8, 533369, Note_on_c, 2, 81, 0
8, 533369, Note_on_c, 2, 69, 0
8, 533400, Note_on_c, 2, 79, 92
8, 533400, Note_on_c, 2, 67, 92
8, 533489, Note_on_c, 2, 79, 0
8, 533489, Note_on_c, 2, 67, 0
8, 533520, Note_on_c, 2, 77, 92
8, 533520, Note_on_c, 2, 65, 92
8, 533609, Note_on_c, 2, 77, 0
8, 533609, Note_on_c, 2, 65, 0
8, 533640, Note_on_c, 2, 64, 92
8, 533640, Note_on_c, 2, 76, 92
8, 533729, Note_on_c, 2, 64, 0
8, 533729, Note_on_c, 2, 76, 0
8, 533760, Note_on_c, 2, 62, 92
8, 533760, Note_on_c, 2, 74, 92
8, 533849, Note_on_c, 2, 62, 0
8, 533849, Note_on_c, 2, 74, 0
8, 533880, Note_on_c, 2, 61, 92
8, 533880, Note_on_c, 2, 73, 92
8, 533969, Note_on_c, 2, 61, 0
8, 533969, Note_on_c, 2, 73, 0
8, 534000, Note_on_c, 2, 74, 92
8, 534000, Note_on_c, 2, 62, 92
8, 534089, Note_on_c, 2, 74, 0
8, 534089, Note_on_c, 2, 62, 0
8, 534120, Note_on_c, 2, 76, 92
8, 534120, Note_on_c, 2, 64, 92
8, 534209, Note_on_c, 2, 76, 0
8, 534209, Note_on_c, 2, 64, 0
8, 534240, Note_on_c, 2, 74, 92
8, 534240, Note_on_c, 2, 62, 92
8, 534329, Note_on_c, 2, 74, 0
8, 534329, Note_on_c, 2, 62, 0
8, 534360, Note_on_c, 2, 61, 92
8, 534360, Note_on_c, 2, 73, 92
8, 534449, Note_on_c, 2, 61, 0
8, 534449, Note_on_c, 2, 73, 0
8, 534480, Note_on_c, 2, 62, 92
8, 534480, Note_on_c, 2, 74, 92
8, 534569, Note_on_c, 2, 62, 0
8, 534569, Note_on_c, 2, 74, 0
8, 534600, Note_on_c, 2, 72, 92
8, 534600, Note_on_c, 2, 60, 92
8, 534689, Note_on_c, 2, 72, 0
8, 534689, Note_on_c, 2, 60, 0
8, 534720, Note_on_c, 2, 74, 92
8, 534720, Note_on_c, 2, 62, 92
8, 534809, Note_on_c, 2, 74, 0
8, 534809, Note_on_c, 2, 62, 0
8, 534840, Note_on_c, 2, 75, 92
8, 534840, Note_on_c, 2, 63, 92
8, 534929, Note_on_c, 2, 75, 0
8, 534929, Note_on_c, 2, 63, 0
8, 534960, Note_on_c, 2, 79, 92
8, 534960, Note_on_c, 2, 67, 92
8, 535049, Note_on_c, 2, 79, 0
8, 535049, Note_on_c, 2, 67, 0
8, 535080, Note_on_c, 2, 69, 92
8, 535080, Note_on_c, 2, 81, 92
8, 535169, Note_on_c, 2, 69, 0
8, 535169, Note_on_c, 2, 81, 0
8, 535200, Note_on_c, 2, 70, 92
8, 535200, Note_on_c, 2, 82, 92
8, 535289, Note_on_c, 2, 70, 0
8, 535289, Note_on_c, 2, 82, 0
8, 535320, Note_on_c, 2, 81, 92
8, 535320, Note_on_c, 2, 69, 92
8, 535409, Note_on_c, 2, 81, 0
8, 535409, Note_on_c, 2, 69, 0
8, 535440, Note_on_c, 2, 82, 92
8, 535440, Note_on_c, 2, 70, 92
8, 535529, Note_on_c, 2, 82, 0
8, 535529, Note_on_c, 2, 70, 0
8, 535560, Note_on_c, 2, 84, 92
8, 535560, Note_on_c, 2, 72, 92
8, 535649, Note_on_c, 2, 84, 0
8, 535649, Note_on_c, 2, 72, 0
8, 535680, Note_on_c, 2, 82, 92
8, 535680, Note_on_c, 2, 70, 92
8, 535769, Note_on_c, 2, 82, 0
8, 535769, Note_on_c, 2, 70, 0
8, 535800, Note_on_c, 2, 81, 92
8, 535800, Note_on_c, 2, 69, 92
8, 535889, Note_on_c, 2, 81, 0
8, 535889, Note_on_c, 2, 69, 0
8, 535920, Note_on_c, 2, 79, 92
8, 535920, Note_on_c, 2, 67, 92
8, 536009, Note_on_c, 2, 79, 0
8, 536009, Note_on_c, 2, 67, 0
8, 536040, Note_on_c, 2, 63, 80
8, 536040, Note_on_c, 2, 75, 80
8, 536129, Note_on_c, 2, 63, 0
8, 536129, Note_on_c, 2, 75, 0
8, 536160, Note_on_c, 2, 74, 80
8, 536160, Note_on_c, 2, 62, 80
8, 536249, Note_on_c, 2, 74, 0
8, 536249, Note_on_c, 2, 62, 0
8, 536280, Note_on_c, 2, 60, 80
8, 536280, Note_on_c, 2, 72, 80
8, 536369, Note_on_c, 2, 60, 0
8, 536369, Note_on_c, 2, 72, 0
8, 536400, Note_on_c, 2, 70, 80
8, 536400, Note_on_c, 2, 58, 80
8, 536489, Note_on_c, 2, 70, 0
8, 536489, Note_on_c, 2, 58, 0
8, 536520, Note_on_c, 2, 69, 80
8, 536520, Note_on_c, 2, 57, 80
8, 536609, Note_on_c, 2, 69, 0
8, 536609, Note_on_c, 2, 57, 0
8, 536640, Note_on_c, 2, 55, 80
8, 536640, Note_on_c, 2, 67, 80
8, 536729, Note_on_c, 2, 55, 0
8, 536729, Note_on_c, 2, 67, 0
8, 536760, Note_on_c, 2, 65, 80
8, 536760, Note_on_c, 2, 77, 80
8, 536849, Note_on_c, 2, 65, 0
8, 536849, Note_on_c, 2, 77, 0
8, 536880, Note_on_c, 2, 63, 80
8, 536880, Note_on_c, 2, 75, 80
8, 536969, Note_on_c, 2, 63, 0
8, 536969, Note_on_c, 2, 75, 0
8, 537000, Note_on_c, 2, 74, 80
8, 537000, Note_on_c, 2, 62, 80
8, 537089, Note_on_c, 2, 74, 0
8, 537089, Note_on_c, 2, 62, 0
8, 537120, Note_on_c, 2, 60, 80
8, 537120, Note_on_c, 2, 72, 80
8, 537209, Note_on_c, 2, 60, 0
8, 537209, Note_on_c, 2, 72, 0
8, 537240, Note_on_c, 2, 70, 80
8, 537240, Note_on_c, 2, 58, 80
8, 537329, Note_on_c, 2, 70, 0
8, 537329, Note_on_c, 2, 58, 0
8, 537360, Note_on_c, 2, 69, 80
8, 537360, Note_on_c, 2, 57, 80
8, 537449, Note_on_c, 2, 69, 0
8, 537449, Note_on_c, 2, 57, 0
8, 537480, Note_on_c, 2, 57, 80
8, 537569, Note_on_c, 2, 57, 0
8, 537600, Note_on_c, 2, 58, 80
8, 537689, Note_on_c, 2, 58, 0
8, 537720, Note_on_c, 2, 60, 80
8, 537809, Note_on_c, 2, 60, 0
8, 537840, Note_on_c, 2, 62, 80
8, 537929, Note_on_c, 2, 62, 0
8, 537960, Note_on_c, 2, 63, 80
8, 538049, Note_on_c, 2, 63, 0
8, 538080, Note_on_c, 2, 65, 80
8, 538169, Note_on_c, 2, 65, 0
8, 538200, Note_on_c, 2, 67, 80
8, 538289, Note_on_c, 2, 67, 0
8, 538320, Note_on_c, 2, 69, 80
8, 538409, Note_on_c, 2, 69, 0
8, 538440, Note_on_c, 2, 70, 80
8, 538529, Note_on_c, 2, 70, 0
8, 538560, Note_on_c, 2, 72, 80
8, 538649, Note_on_c, 2, 72, 0
8, 538680, Note_on_c, 2, 74, 80
8, 538769, Note_on_c, 2, 74, 0
8, 538800, Note_on_c, 2, 75, 80
8, 538889, Note_on_c, 2, 75, 0
8, 538920, Note_on_c, 2, 77, 80
8, 539039, Note_on_c, 2, 77, 0
8, 539280, Control_c, 2, 11, 87
8, 539640, Control_c, 2, 11, 87
8, 539640, Note_on_c, 2, 67, 68
8, 539676, Control_c, 2, 11, 88
8, 539712, Control_c, 2, 11, 89
8, 539748, Control_c, 2, 11, 90
8, 539784, Control_c, 2, 11, 91
8, 539820, Control_c, 2, 11, 92
8, 539856, Control_c, 2, 11, 93
8, 539892, Control_c, 2, 11, 94
8, 539928, Control_c, 2, 11, 95
8, 539964, Control_c, 2, 11, 96
8, 540000, Control_c, 2, 11, 97
8, 540036, Control_c, 2, 11, 98
8, 540072, Control_c, 2, 11, 99
8, 540108, Control_c, 2, 11, 100
8, 540144, Control_c, 2, 11, 101
8, 540180, Control_c, 2, 11, 102
8, 540216, Control_c, 2, 11, 103
8, 540252, Control_c, 2, 11, 104
8, 540288, Control_c, 2, 11, 105
8, 540324, Control_c, 2, 11, 106
8, 540359, Note_on_c, 2, 67, 0
8, 540360, Control_c, 2, 11, 107
8, 540360, Note_on_c, 2, 69, 68
8, 540396, Control_c, 2, 11, 108
8, 540432, Control_c, 2, 11, 109
8, 540468, Control_c, 2, 11, 110
8, 540504, Control_c, 2, 11, 111
8, 540540, Control_c, 2, 11, 112
8, 540576, Control_c, 2, 11, 113
8, 540612, Control_c, 2, 11, 114
8, 540648, Control_c, 2, 11, 115
8, 540684, Control_c, 2, 11, 116
8, 540719, Note_on_c, 2, 69, 0
8, 540720, Note_on_c, 2, 70, 68
8, 540720, Control_c, 2, 11, 117
8, 540756, Control_c, 2, 11, 118
8, 540792, Control_c, 2, 11, 119
8, 540828, Control_c, 2, 11, 120
8, 540864, Control_c, 2, 11, 121
8, 540900, Control_c, 2, 11, 122
8, 540936, Control_c, 2, 11, 123
8, 540972, Control_c, 2, 11, 124
8, 541008, Control_c, 2, 11, 125
8, 541044, Control_c, 2, 11, 126
8, 541080, Control_c, 2, 11, 127
8, 541110, Control_c, 2, 11, 125
8, 541140, Control_c, 2, 11, 124
8, 541170, Control_c, 2, 11, 122
8, 541200, Control_c, 2, 11, 120
8, 541230, Control_c, 2, 11, 119
8, 541260, Control_c, 2, 11, 117
8, 541290, Control_c, 2, 11, 115
8, 541320, Control_c, 2, 11, 114
8, 541350, Control_c, 2, 11, 112
8, 541380, Control_c, 2, 11, 110
8, 541410, Control_c, 2, 11, 109
8, 541439, Note_on_c, 2, 70, 0
8, 541440, Note_on_c, 2, 69, 68
8, 541440, Control_c, 2, 11, 107
8, 541470, Control_c, 2, 11, 105
8, 541500, Control_c, 2, 11, 104
8, 541530, Control_c, 2, 11, 102
8, 541560, Control_c, 2, 11, 100
8, 541590, Control_c, 2, 11, 99
8, 541620, Control_c, 2, 11, 97
8, 541650, Control_c, 2, 11, 95
8, 541680, Control_c, 2, 11, 94
8, 541710, Control_c, 2, 11, 92
8, 541740, Control_c, 2, 11, 90
8, 541770, Control_c, 2, 11, 87
8, 541784, Note_on_c, 2, 69, 0
8, 541800, Note_on_c, 2, 70, 68
8, 542519, Note_on_c, 2, 70, 0
8, 542520, Note_on_c, 2, 69, 68
8, 542880, Control_c, 2, 11, 87
8, 542916, Control_c, 2, 11, 88
8, 542952, Control_c, 2, 11, 89
8, 542988, Control_c, 2, 11, 90
8, 543024, Control_c, 2, 11, 91
8, 543060, Control_c, 2, 11, 92
8, 543096, Control_c, 2, 11, 93
8, 543132, Control_c, 2, 11, 94
8, 543168, Control_c, 2, 11, 95
8, 543204, Control_c, 2, 11, 96
8, 543240, Control_c, 2, 11, 97
8, 543240, Note_on_c, 2, 71, 68
8, 543276, Control_c, 2, 11, 98
8, 543312, Control_c, 2, 11, 99
8, 543348, Control_c, 2, 11, 100
8, 543384, Control_c, 2, 11, 101
8, 543420, Control_c, 2, 11, 102
8, 543456, Control_c, 2, 11, 103
8, 543492, Control_c, 2, 11, 104
8, 543528, Control_c, 2, 11, 105
8, 543564, Control_c, 2, 11, 106
8, 543599, Note_on_c, 2, 69, 0
8, 543600, Note_on_c, 2, 67, 68
8, 543600, Control_c, 2, 11, 107
8, 543636, Control_c, 2, 11, 108
8, 543672, Control_c, 2, 11, 109
8, 543708, Control_c, 2, 11, 110
8, 543744, Control_c, 2, 11, 111
8, 543780, Control_c, 2, 11, 112
8, 543816, Control_c, 2, 11, 113
8, 543852, Control_c, 2, 11, 114
8, 543888, Control_c, 2, 11, 115
8, 543924, Control_c, 2, 11, 116
8, 543959, Note_on_c, 2, 71, 0
8, 543960, Note_on_c, 2, 70, 68
8, 543960, Control_c, 2, 11, 117
8, 543996, Control_c, 2, 11, 118
8, 544032, Control_c, 2, 11, 119
8, 544068, Control_c, 2, 11, 120
8, 544104, Control_c, 2, 11, 121
8, 544140, Control_c, 2, 11, 122
8, 544176, Control_c, 2, 11, 123
8, 544212, Control_c, 2, 11, 124
8, 544248, Control_c, 2, 11, 125
8, 544284, Control_c, 2, 11, 126
8, 544319, Note_on_c, 2, 67, 0
8, 544319, Note_on_c, 2, 70, 0
8, 544320, Control_c, 2, 11, 127
8, 544320, Note_on_c, 2, 66, 68
8, 544320, Note_on_c, 2, 69, 68
8, 544350, Control_c, 2, 11, 126
8, 544380, Control_c, 2, 11, 125
8, 544410, Control_c, 2, 11, 124
8, 544440, Control_c, 2, 11, 123
8, 544470, Control_c, 2, 11, 121
8, 544500, Control_c, 2, 11, 120
8, 544530, Control_c, 2, 11, 119
8, 544560, Control_c, 2, 11, 118
8, 544590, Control_c, 2, 11, 117
8, 544620, Control_c, 2, 11, 116
8, 544650, Control_c, 2, 11, 115
8, 544679, Note_on_c, 2, 66, 0
8, 544680, Note_on_c, 2, 65, 68
8, 544680, Control_c, 2, 11, 114
8, 544710, Control_c, 2, 11, 113
8, 544740, Control_c, 2, 11, 111
8, 544770, Control_c, 2, 11, 110
8, 544800, Control_c, 2, 11, 109
8, 544830, Control_c, 2, 11, 108
8, 544860, Control_c, 2, 11, 107
8, 544890, Control_c, 2, 11, 106
8, 544920, Control_c, 2, 11, 105
8, 544950, Control_c, 2, 11, 104
8, 544980, Control_c, 2, 11, 103
8, 545010, Control_c, 2, 11, 101
8, 545039, Note_on_c, 2, 65, 0
8, 545040, Control_c, 2, 11, 100
8, 545040, Note_on_c, 2, 64, 68
8, 545070, Control_c, 2, 11, 99
8, 545100, Control_c, 2, 11, 98
8, 545130, Control_c, 2, 11, 97
8, 545160, Control_c, 2, 11, 96
8, 545190, Control_c, 2, 11, 95
8, 545220, Control_c, 2, 11, 94
8, 545250, Control_c, 2, 11, 93
8, 545280, Control_c, 2, 11, 91
8, 545310, Control_c, 2, 11, 90
8, 545340, Control_c, 2, 11, 89
8, 545370, Control_c, 2, 11, 87
8, 545399, Note_on_c, 2, 69, 0
8, 545399, Note_on_c, 2, 64, 0
8, 547920, Control_c, 2, 11, 47
8, 548280, Note_on_c, 2, 81, 92
8, 548280, Note_on_c, 2, 69, 92
8, 548316, Control_c, 2, 11, 48
8, 548352, Control_c, 2, 11, 49
8, 548388, Control_c, 2, 11, 50
8, 548424, Control_c, 2, 11, 51
8, 548460, Control_c, 2, 11, 52
8, 548496, Control_c, 2, 11, 53
8, 548532, Control_c, 2, 11, 54
8, 548568, Control_c, 2, 11, 55
8, 548604, Control_c, 2, 11, 56
8, 548639, Note_on_c, 2, 81, 0
8, 548639, Note_on_c, 2, 69, 0
8, 548640, Note_on_c, 2, 71, 92
8, 548640, Note_on_c, 2, 83, 92
8, 548640, Control_c, 2, 11, 57
8, 548676, Control_c, 2, 11, 58
8, 548712, Control_c, 2, 11, 59
8, 548748, Control_c, 2, 11, 60
8, 548784, Control_c, 2, 11, 61
8, 548820, Control_c, 2, 11, 62
8, 548856, Control_c, 2, 11, 63
8, 548892, Control_c, 2, 11, 64
8, 548928, Control_c, 2, 11, 65
8, 548964, Control_c, 2, 11, 66
8, 549000, Control_c, 2, 11, 67
8, 549036, Control_c, 2, 11, 68
8, 549072, Control_c, 2, 11, 69
8, 549108, Control_c, 2, 11, 70
8, 549144, Control_c, 2, 11, 71
8, 549180, Control_c, 2, 11, 72
8, 549216, Control_c, 2, 11, 73
8, 549252, Control_c, 2, 11, 74
8, 549288, Control_c, 2, 11, 75
8, 549324, Control_c, 2, 11, 76
8, 549360, Control_c, 2, 11, 77
8, 549396, Control_c, 2, 11, 78
8, 549432, Control_c, 2, 11, 79
8, 549468, Control_c, 2, 11, 80
8, 549504, Control_c, 2, 11, 81
8, 549540, Control_c, 2, 11, 82
8, 549576, Control_c, 2, 11, 83
8, 549612, Control_c, 2, 11, 84
8, 549648, Control_c, 2, 11, 85
8, 549684, Control_c, 2, 11, 86
8, 549719, Note_on_c, 2, 71, 0
8, 549719, Note_on_c, 2, 83, 0
8, 549720, Control_c, 2, 11, 87
8, 549720, Note_on_c, 2, 69, 92
8, 549720, Note_on_c, 2, 81, 92
8, 549756, Control_c, 2, 11, 88
8, 549792, Control_c, 2, 11, 89
8, 549828, Control_c, 2, 11, 90
8, 549864, Control_c, 2, 11, 91
8, 549900, Control_c, 2, 11, 92
8, 549936, Control_c, 2, 11, 93
8, 549972, Control_c, 2, 11, 94
8, 550008, Control_c, 2, 11, 95
8, 550044, Control_c, 2, 11, 96
8, 550080, Control_c, 2, 11, 97
8, 550116, Control_c, 2, 11, 98
8, 550152, Control_c, 2, 11, 99
8, 550188, Control_c, 2, 11, 100
8, 550224, Control_c, 2, 11, 101
8, 550260, Control_c, 2, 11, 102
8, 550296, Control_c, 2, 11, 103
8, 550332, Control_c, 2, 11, 104
8, 550368, Control_c, 2, 11, 105
8, 550404, Control_c, 2, 11, 106
8, 550440, Control_c, 2, 11, 107
8, 550476, Control_c, 2, 11, 108
8, 550512, Control_c, 2, 11, 109
8, 550548, Control_c, 2, 11, 110
8, 550584, Control_c, 2, 11, 111
8, 550620, Control_c, 2, 11, 112
8, 550656, Control_c, 2, 11, 113
8, 550692, Control_c, 2, 11, 114
8, 550728, Control_c, 2, 11, 115
8, 550764, Control_c, 2, 11, 116
8, 550799, Note_on_c, 2, 69, 0
8, 550799, Note_on_c, 2, 81, 0
8, 550800, Control_c, 2, 11, 117
8, 550800, Note_on_c, 2, 67, 92
8, 550800, Note_on_c, 2, 79, 92
8, 550836, Control_c, 2, 11, 118
8, 550872, Control_c, 2, 11, 119
8, 550908, Control_c, 2, 11, 120
8, 550944, Control_c, 2, 11, 121
8, 550980, Control_c, 2, 11, 122
8, 551016, Control_c, 2, 11, 123
8, 551052, Control_c, 2, 11, 124
8, 551088, Control_c, 2, 11, 125
8, 551124, Control_c, 2, 11, 127
8, 551144, Note_on_c, 2, 67, 0
8, 551144, Note_on_c, 2, 79, 0
8, 551160, Note_on_c, 2, 78, 92
8, 551160, Note_on_c, 2, 66, 92
8, 551264, Note_on_c, 2, 78, 0
8, 551264, Note_on_c, 2, 66, 0
8, 551280, Note_on_c, 2, 62, 92
8, 551399, Note_on_c, 2, 62, 0
8, 551400, Note_on_c, 2, 64, 92
8, 551459, Note_on_c, 2, 64, 0
8, 551460, Note_on_c, 2, 66, 92
8, 551504, Note_on_c, 2, 66, 0
8, 551520, Note_on_c, 2, 67, 92
8, 551609, Note_on_c, 2, 67, 0
8, 551760, Note_on_c, 2, 66, 92
8, 551849, Note_on_c, 2, 66, 0
8, 551880, Note_on_c, 2, 64, 92
8, 551969, Note_on_c, 2, 64, 0
8, 552120, Note_on_c, 2, 62, 92
8, 552209, Note_on_c, 2, 62, 0
8, 552240, Note_on_c, 2, 64, 92
8, 552329, Note_on_c, 2, 64, 0
8, 552480, Note_on_c, 2, 61, 92
8, 552569, Note_on_c, 2, 61, 0
8, 552600, Note_on_c, 2, 66, 92
8, 552600, Note_on_c, 2, 62, 92
8, 552839, Note_on_c, 2, 66, 0
8, 552839, Note_on_c, 2, 62, 0
8, 552840, Note_on_c, 2, 67, 92
8, 552840, Note_on_c, 2, 64, 92
8, 552899, Note_on_c, 2, 67, 0
8, 552899, Note_on_c, 2, 64, 0
8, 552900, Note_on_c, 2, 69, 92
8, 552900, Note_on_c, 2, 66, 92
8, 552944, Note_on_c, 2, 69, 0
8, 552944, Note_on_c, 2, 66, 0
8, 552960, Note_on_c, 2, 67, 92
8, 552960, Note_on_c, 2, 71, 92
8, 553049, Note_on_c, 2, 67, 0
8, 553049, Note_on_c, 2, 71, 0
8, 553200, Note_on_c, 2, 66, 92
8, 553200, Note_on_c, 2, 69, 92
8, 553289, Note_on_c, 2, 66, 0
8, 553289, Note_on_c, 2, 69, 0
8, 553320, Note_on_c, 2, 64, 92
8, 553320, Note_on_c, 2, 67, 92
8, 553409, Note_on_c, 2, 64, 0
8, 553409, Note_on_c, 2, 67, 0
8, 553560, Note_on_c, 2, 66, 92
8, 553560, Note_on_c, 2, 62, 92
8, 553649, Note_on_c, 2, 66, 0
8, 553649, Note_on_c, 2, 62, 0
8, 553680, Note_on_c, 2, 64, 92
8, 553680, Note_on_c, 2, 67, 92
8, 553769, Note_on_c, 2, 64, 0
8, 553769, Note_on_c, 2, 67, 0
8, 553920, Note_on_c, 2, 64, 92
8, 553920, Note_on_c, 2, 61, 92
8, 554009, Note_on_c, 2, 64, 0
8, 554009, Note_on_c, 2, 61, 0
8, 554040, Note_on_c, 2, 62, 92
8, 554129, Note_on_c, 2, 62, 0
8, 554160, Note_on_c, 2, 74, 92
8, 554160, Note_on_c, 2, 62, 92
8, 554279, Note_on_c, 2, 74, 0
8, 554279, Note_on_c, 2, 62, 0
8, 554280, Note_on_c, 2, 76, 92
8, 554280, Note_on_c, 2, 64, 92
8, 554339, Note_on_c, 2, 76, 0
8, 554339, Note_on_c, 2, 64, 0
8, 554340, Note_on_c, 2, 77, 92
8, 554340, Note_on_c, 2, 65, 92
8, 554384, Note_on_c, 2, 77, 0
8, 554384, Note_on_c, 2, 65, 0
8, 554400, Note_on_c, 2, 79, 92
8, 554400, Note_on_c, 2, 67, 92
8, 554489, Note_on_c, 2, 79, 0
8, 554489, Note_on_c, 2, 67, 0
8, 554520, Note_on_c, 2, 67, 92
8, 554520, Note_on_c, 2, 79, 92
8, 554609, Note_on_c, 2, 67, 0
8, 554609, Note_on_c, 2, 79, 0
8, 554640, Note_on_c, 2, 65, 92
8, 554640, Note_on_c, 2, 77, 92
8, 554729, Note_on_c, 2, 65, 0
8, 554729, Note_on_c, 2, 77, 0
8, 554760, Note_on_c, 2, 76, 92
8, 554760, Note_on_c, 2, 64, 92
8, 554849, Note_on_c, 2, 76, 0
8, 554849, Note_on_c, 2, 64, 0
8, 554880, Note_on_c, 2, 64, 92
8, 554880, Note_on_c, 2, 76, 92
8, 554969, Note_on_c, 2, 64, 0
8, 554969, Note_on_c, 2, 76, 0
8, 555000, Note_on_c, 2, 74, 92
8, 555000, Note_on_c, 2, 62, 92
8, 555089, Note_on_c, 2, 74, 0
8, 555089, Note_on_c, 2, 62, 0
8, 555120, Note_on_c, 2, 64, 92
8, 555120, Note_on_c, 2, 76, 92
8, 555209, Note_on_c, 2, 64, 0
8, 555209, Note_on_c, 2, 76, 0
8, 555240, Note_on_c, 2, 64, 92
8, 555240, Note_on_c, 2, 76, 92
8, 555329, Note_on_c, 2, 64, 0
8, 555329, Note_on_c, 2, 76, 0
8, 555360, Note_on_c, 2, 73, 92
8, 555360, Note_on_c, 2, 61, 92
8, 555449, Note_on_c, 2, 73, 0
8, 555449, Note_on_c, 2, 61, 0
8, 555480, Note_on_c, 2, 77, 92
8, 555480, Note_on_c, 2, 65, 92
8, 555569, Note_on_c, 2, 77, 0
8, 555569, Note_on_c, 2, 65, 0
8, 555600, Note_on_c, 2, 65, 92
8, 555600, Note_on_c, 2, 62, 92
8, 555719, Note_on_c, 2, 65, 0
8, 555719, Note_on_c, 2, 62, 0
8, 555720, Note_on_c, 2, 64, 92
8, 555720, Note_on_c, 2, 67, 92
8, 555779, Note_on_c, 2, 64, 0
8, 555779, Note_on_c, 2, 67, 0
8, 555780, Note_on_c, 2, 69, 92
8, 555780, Note_on_c, 2, 65, 92
8, 555824, Note_on_c, 2, 69, 0
8, 555824, Note_on_c, 2, 65, 0
8, 555840, Note_on_c, 2, 67, 92
8, 555840, Note_on_c, 2, 70, 92
8, 555929, Note_on_c, 2, 67, 0
8, 555929, Note_on_c, 2, 70, 0
8, 555960, Note_on_c, 2, 70, 92
8, 555960, Note_on_c, 2, 67, 92
8, 556049, Note_on_c, 2, 70, 0
8, 556049, Note_on_c, 2, 67, 0
8, 556080, Note_on_c, 2, 69, 92
8, 556080, Note_on_c, 2, 65, 92
8, 556169, Note_on_c, 2, 69, 0
8, 556169, Note_on_c, 2, 65, 0
8, 556200, Note_on_c, 2, 64, 92
8, 556200, Note_on_c, 2, 67, 92
8, 556289, Note_on_c, 2, 64, 0
8, 556289, Note_on_c, 2, 67, 0
8, 556320, Note_on_c, 2, 67, 92
8, 556320, Note_on_c, 2, 64, 92
8, 556409, Note_on_c, 2, 67, 0
8, 556409, Note_on_c, 2, 64, 0
8, 556440, Note_on_c, 2, 62, 92
8, 556440, Note_on_c, 2, 65, 92
8, 556529, Note_on_c, 2, 62, 0
8, 556529, Note_on_c, 2, 65, 0
8, 556560, Note_on_c, 2, 64, 92
8, 556560, Note_on_c, 2, 67, 92
8, 556649, Note_on_c, 2, 64, 0
8, 556649, Note_on_c, 2, 67, 0
8, 556680, Note_on_c, 2, 67, 92
8, 556680, Note_on_c, 2, 64, 92
8, 556769, Note_on_c, 2, 67, 0
8, 556769, Note_on_c, 2, 64, 0
8, 556800, Note_on_c, 2, 64, 92
8, 556800, Note_on_c, 2, 61, 92
8, 556889, Note_on_c, 2, 64, 0
8, 556889, Note_on_c, 2, 61, 0
8, 556920, Note_on_c, 2, 53, 92
8, 556920, Note_on_c, 2, 65, 92
8, 557084, Note_on_c, 2, 53, 0
8, 557084, Note_on_c, 2, 65, 0
8, 557100, Note_on_c, 2, 65, 92
8, 557100, Note_on_c, 2, 53, 92
8, 557144, Note_on_c, 2, 65, 0
8, 557144, Note_on_c, 2, 53, 0
8, 557160, Note_on_c, 2, 65, 92
8, 557160, Note_on_c, 2, 53, 92
8, 557264, Note_on_c, 2, 65, 0
8, 557264, Note_on_c, 2, 53, 0
8, 557280, Note_on_c, 2, 53, 92
8, 557280, Note_on_c, 2, 65, 92
8, 557384, Note_on_c, 2, 53, 0
8, 557384, Note_on_c, 2, 65, 0
8, 557400, Note_on_c, 2, 67, 92
8, 557400, Note_on_c, 2, 55, 92
8, 557504, Note_on_c, 2, 67, 0
8, 557504, Note_on_c, 2, 55, 0
8, 557520, Note_on_c, 2, 69, 92
8, 557520, Note_on_c, 2, 57, 92
8, 557624, Note_on_c, 2, 69, 0
8, 557624, Note_on_c, 2, 57, 0
8, 557640, Note_on_c, 2, 70, 92
8, 557640, Note_on_c, 2, 58, 92
8, 557759, Note_on_c, 2, 70, 0
8, 557759, Note_on_c, 2, 58, 0
8, 558360, Note_on_c, 2, 76, 92
8, 558360, Note_on_c, 2, 64, 92
8, 558524, Note_on_c, 2, 76, 0
8, 558524, Note_on_c, 2, 64, 0
8, 558540, Note_on_c, 2, 64, 92
8, 558540, Note_on_c, 2, 52, 92
8, 558584, Note_on_c, 2, 64, 0
8, 558584, Note_on_c, 2, 52, 0
8, 558600, Note_on_c, 2, 64, 92
8, 558600, Note_on_c, 2, 52, 92
8, 558704, Note_on_c, 2, 64, 0
8, 558704, Note_on_c, 2, 52, 0
8, 558720, Note_on_c, 2, 64, 92
8, 558720, Note_on_c, 2, 76, 92
8, 558824, Note_on_c, 2, 64, 0
8, 558824, Note_on_c, 2, 76, 0
8, 558840, Note_on_c, 2, 77, 92
8, 558840, Note_on_c, 2, 65, 92
8, 558944, Note_on_c, 2, 77, 0
8, 558944, Note_on_c, 2, 65, 0
8, 558960, Note_on_c, 2, 67, 92
8, 558960, Note_on_c, 2, 79, 92
8, 559064, Note_on_c, 2, 67, 0
8, 559064, Note_on_c, 2, 79, 0
8, 559080, Note_on_c, 2, 69, 92
8, 559080, Note_on_c, 2, 81, 92
8, 559199, Note_on_c, 2, 69, 0
8, 559199, Note_on_c, 2, 81, 0
8, 559440, Note_on_c, 2, 69, 92
8, 559544, Note_on_c, 2, 69, 0
8, 559560, Note_on_c, 2, 74, 92
8, 559664, Note_on_c, 2, 74, 0
8, 559680, Note_on_c, 2, 76, 92
8, 559784, Note_on_c, 2, 76, 0
8, 559800, Note_on_c, 2, 78, 44
8, 559800, Note_on_c, 2, 74, 44
8, 559919, Note_on_c, 2, 78, 0
8, 559919, Note_on_c, 2, 74, 0
8, 560520, Note_on_c, 2, 62, 44
8, 560520, Note_on_c, 2, 74, 44
8, 560639, Note_on_c, 2, 62, 0
8, 560639, Note_on_c, 2, 74, 0
8, 561600, Control_c, 2, 11, 67
8, 561960, Note_on_c, 2, 67, 80
8, 561960, Note_on_c, 2, 58, 80
8, 561960, Control_c, 2, 11, 67
8, 561990, Control_c, 2, 11, 68
8, 562020, Control_c, 2, 11, 70
8, 562050, Control_c, 2, 11, 71
8, 562079, Note_on_c, 2, 67, 0
8, 562080, Control_c, 2, 11, 72
8, 562080, Note_on_c, 2, 65, 80
8, 562110, Control_c, 2, 11, 73
8, 562140, Control_c, 2, 11, 75
8, 562170, Control_c, 2, 11, 76
8, 562199, Note_on_c, 2, 65, 0
8, 562200, Note_on_c, 2, 63, 80
8, 562200, Control_c, 2, 11, 77
8, 562230, Control_c, 2, 11, 78
8, 562260, Control_c, 2, 11, 80
8, 562290, Control_c, 2, 11, 81
8, 562319, Note_on_c, 2, 63, 0
8, 562320, Control_c, 2, 11, 82
8, 562320, Note_on_c, 2, 75, 80
8, 562350, Control_c, 2, 11, 83
8, 562380, Control_c, 2, 11, 85
8, 562410, Control_c, 2, 11, 86
8, 562439, Note_on_c, 2, 75, 0
8, 562440, Control_c, 2, 11, 87
8, 562440, Note_on_c, 2, 77, 80
8, 562470, Control_c, 2, 11, 88
8, 562500, Control_c, 2, 11, 90
8, 562530, Control_c, 2, 11, 91
8, 562559, Note_on_c, 2, 77, 0
8, 562560, Note_on_c, 2, 79, 80
8, 562560, Control_c, 2, 11, 92
8, 562590, Control_c, 2, 11, 93
8, 562620, Control_c, 2, 11, 95
8, 562650, Control_c, 2, 11, 96
8, 562664, Note_on_c, 2, 58, 0
8, 562664, Note_on_c, 2, 79, 0
8, 562680, Control_c, 2, 11, 97
8, 562680, Note_on_c, 2, 76, 80
8, 562680, Note_on_c, 2, 70, 80
8, 562710, Control_c, 2, 11, 98
8, 562740, Control_c, 2, 11, 100
8, 562770, Control_c, 2, 11, 101
8, 562799, Note_on_c, 2, 76, 0
8, 562799, Note_on_c, 2, 70, 0
8, 562800, Control_c, 2, 11, 102
8, 562800, Note_on_c, 2, 69, 80
8, 562800, Note_on_c, 2, 77, 80
8, 562830, Control_c, 2, 11, 103
8, 562860, Control_c, 2, 11, 105
8, 562890, Control_c, 2, 11, 106
8, 562919, Note_on_c, 2, 69, 0
8, 562919, Note_on_c, 2, 77, 0
8, 562920, Note_on_c, 2, 79, 80
8, 562920, Control_c, 2, 11, 107
8, 562920, Note_on_c, 2, 70, 80
8, 562950, Control_c, 2, 11, 108
8, 562980, Control_c, 2, 11, 110
8, 563010, Control_c, 2, 11, 111
8, 563024, Note_on_c, 2, 79, 0
8, 563024, Note_on_c, 2, 70, 0
8, 563040, Note_on_c, 2, 64, 80
8, 563040, Control_c, 2, 11, 112
8, 563040, Note_on_c, 2, 67, 80
8, 563070, Control_c, 2, 11, 113
8, 563100, Control_c, 2, 11, 115
8, 563130, Control_c, 2, 11, 116
8, 563159, Note_on_c, 2, 64, 0
8, 563159, Note_on_c, 2, 67, 0
8, 563160, Note_on_c, 2, 62, 80
8, 563160, Control_c, 2, 11, 117
8, 563160, Note_on_c, 2, 65, 80
8, 563190, Control_c, 2, 11, 118
8, 563220, Control_c, 2, 11, 120
8, 563250, Control_c, 2, 11, 121
8, 563279, Note_on_c, 2, 62, 0
8, 563279, Note_on_c, 2, 65, 0
8, 563280, Note_on_c, 2, 61, 80
8, 563280, Note_on_c, 2, 64, 80
8, 563280, Control_c, 2, 11, 122
8, 563310, Control_c, 2, 11, 123
8, 563340, Control_c, 2, 11, 125
8, 563370, Control_c, 2, 11, 127
8, 563384, Note_on_c, 2, 61, 0
8, 563384, Note_on_c, 2, 64, 0
8, 563400, Note_on_c, 2, 57, 80
8, 563400, Note_on_c, 2, 62, 80
8, 563489, Note_on_c, 2, 57, 0
8, 563489, Note_on_c, 2, 62, 0
8, 563520, Note_on_c, 2, 65, 80
8, 563520, Note_on_c, 2, 62, 80
8, 563609, Note_on_c, 2, 65, 0
8, 563609, Note_on_c, 2, 62, 0
8, 563640, Note_on_c, 2, 70, 80
8, 563640, Note_on_c, 2, 58, 80
8, 563729, Note_on_c, 2, 70, 0
8, 563729, Note_on_c, 2, 58, 0
8, 563760, Note_on_c, 2, 55, 80
8, 563760, Note_on_c, 2, 67, 80
8, 563849, Note_on_c, 2, 55, 0
8, 563849, Note_on_c, 2, 67, 0
8, 563880, Note_on_c, 2, 76, 80
8, 563880, Note_on_c, 2, 64, 80
8, 563969, Note_on_c, 2, 76, 0
8, 563969, Note_on_c, 2, 64, 0
8, 564000, Note_on_c, 2, 64, 80
8, 564000, Note_on_c, 2, 73, 80
8, 564089, Note_on_c, 2, 64, 0
8, 564089, Note_on_c, 2, 73, 0
8, 564120, Note_on_c, 2, 74, 80
8, 564120, Note_on_c, 2, 65, 80
8, 564239, Note_on_c, 2, 74, 0
8, 564239, Note_on_c, 2, 65, 0
8, 564840, Note_on_c, 2, 69, 80
8, 564840, Note_on_c, 2, 65, 80
8, 564929, Note_on_c, 2, 69, 0
8, 564929, Note_on_c, 2, 65, 0
8, 564960, Note_on_c, 2, 74, 80
8, 564960, Note_on_c, 2, 62, 80
8, 565049, Note_on_c, 2, 74, 0
8, 565049, Note_on_c, 2, 62, 0
8, 565080, Note_on_c, 2, 70, 80
8, 565080, Note_on_c, 2, 58, 80
8, 565169, Note_on_c, 2, 70, 0
8, 565169, Note_on_c, 2, 58, 0
8, 565200, Note_on_c, 2, 55, 80
8, 565200, Note_on_c, 2, 67, 80
8, 565289, Note_on_c, 2, 55, 0
8, 565289, Note_on_c, 2, 67, 0
8, 565320, Note_on_c, 2, 76, 80
8, 565320, Note_on_c, 2, 64, 80
8, 565409, Note_on_c, 2, 76, 0
8, 565409, Note_on_c, 2, 64, 0
8, 565440, Note_on_c, 2, 64, 80
8, 565440, Note_on_c, 2, 73, 80
8, 565529, Note_on_c, 2, 64, 0
8, 565529, Note_on_c, 2, 73, 0
8, 565560, Note_on_c, 2, 74, 80
8, 565560, Note_on_c, 2, 65, 80
8, 565649, Note_on_c, 2, 74, 0
8, 565649, Note_on_c, 2, 65, 0
8, 565680, Note_on_c, 2, 69, 80
8, 565680, Note_on_c, 2, 81, 80
8, 565769, Note_on_c, 2, 69, 0
8, 565769, Note_on_c, 2, 81, 0
8, 565800, Note_on_c, 2, 81, 80
8, 565800, Note_on_c, 2, 69, 80
8, 565889, Note_on_c, 2, 81, 0
8, 565889, Note_on_c, 2, 69, 0
8, 565920, Note_on_c, 2, 69, 80
8, 565920, Note_on_c, 2, 81, 80
8, 566009, Note_on_c, 2, 69, 0
8, 566009, Note_on_c, 2, 81, 0
8, 566040, Note_on_c, 2, 69, 80
8, 566040, Note_on_c, 2, 81, 80
8, 566129, Note_on_c, 2, 69, 0
8, 566129, Note_on_c, 2, 81, 0
8, 566160, Note_on_c, 2, 81, 80
8, 566160, Note_on_c, 2, 69, 80
8, 566249, Note_on_c, 2, 81, 0
8, 566249, Note_on_c, 2, 69, 0
8, 566280, Note_on_c, 2, 74, 80
8, 566280, Note_on_c, 2, 65, 80
8, 566369, Note_on_c, 2, 74, 0
8, 566369, Note_on_c, 2, 65, 0
8, 566400, Note_on_c, 2, 65, 80
8, 566400, Note_on_c, 2, 62, 80
8, 566489, Note_on_c, 2, 65, 0
8, 566489, Note_on_c, 2, 62, 0
8, 566520, Note_on_c, 2, 69, 80
8, 566520, Note_on_c, 2, 65, 80
8, 566609, Note_on_c, 2, 69, 0
8, 566609, Note_on_c, 2, 65, 0
8, 566640, Note_on_c, 2, 67, 80
8, 566640, Note_on_c, 2, 64, 80
8, 566729, Note_on_c, 2, 67, 0
8, 566729, Note_on_c, 2, 64, 0
8, 566760, Note_on_c, 2, 69, 80
8, 566760, Note_on_c, 2, 76, 80
8, 566849, Note_on_c, 2, 69, 0
8, 566849, Note_on_c, 2, 76, 0
8, 566880, Note_on_c, 2, 81, 80
8, 566880, Note_on_c, 2, 76, 80
8, 566969, Note_on_c, 2, 81, 0
8, 566969, Note_on_c, 2, 76, 0
8, 567000, Note_on_c, 2, 74, 80
8, 567000, Note_on_c, 2, 77, 80
8, 567089, Note_on_c, 2, 74, 0
8, 567089, Note_on_c, 2, 77, 0
8, 567120, Note_on_c, 2, 65, 80
8, 567120, Note_on_c, 2, 62, 80
8, 567209, Note_on_c, 2, 65, 0
8, 567209, Note_on_c, 2, 62, 0
8, 567240, Note_on_c, 2, 65, 80
8, 567240, Note_on_c, 2, 69, 80
8, 567329, Note_on_c, 2, 65, 0
8, 567329, Note_on_c, 2, 69, 0
8, 567360, Note_on_c, 2, 67, 80
8, 567360, Note_on_c, 2, 64, 80
8, 567449, Note_on_c, 2, 67, 0
8, 567449, Note_on_c, 2, 64, 0
8, 567480, Note_on_c, 2, 69, 80
8, 567480, Note_on_c, 2, 76, 80
8, 567569, Note_on_c, 2, 69, 0
8, 567569, Note_on_c, 2, 76, 0
8, 567600, Note_on_c, 2, 76, 80
8, 567600, Note_on_c, 2, 81, 80
8, 567689, Note_on_c, 2, 76, 0
8, 567689, Note_on_c, 2, 81, 0
8, 568080, Note_on_c, 2, 67, 32
8, 568199, Note_on_c, 2, 67, 0
8, 568200, Note_on_c, 2, 73, 32
8, 568319, Note_on_c, 2, 73, 0
8, 568320, Note_on_c, 2, 76, 32
8, 568919, Note_on_c, 2, 76, 0
8, 568920, Note_on_c, 2, 67, 32
8, 569039, Note_on_c, 2, 67, 0
8, 569040, Note_on_c, 2, 64, 32
8, 569144, Note_on_c, 2, 64, 0
8, 569160, Note_on_c, 2, 62, 32
8, 569279, Note_on_c, 2, 62, 0
8, 569520, Note_on_c, 2, 65, 32
8, 569520, Note_on_c, 2, 74, 32
8, 569684, Note_on_c, 2, 65, 0
8, 569684, Note_on_c, 2, 74, 0
8, 569700, Note_on_c, 2, 65, 32
8, 569700, Note_on_c, 2, 62, 32
8, 569744, Note_on_c, 2, 65, 0
8, 569744, Note_on_c, 2, 62, 0
8, 569760, Note_on_c, 2, 65, 32
8, 569760, Note_on_c, 2, 62, 32
8, 569864, Note_on_c, 2, 65, 0
8, 569864, Note_on_c, 2, 62, 0
8, 569880, Note_on_c, 2, 65, 32
8, 569880, Note_on_c, 2, 62, 32
8, 569999, Note_on_c, 2, 65, 0
8, 569999, Note_on_c, 2, 62, 0
8, 570240, Note_on_c, 2, 65, 32
8, 570240, Note_on_c, 2, 62, 32
8, 570404, Note_on_c, 2, 65, 0
8, 570404, Note_on_c, 2, 62, 0
8, 570420, Note_on_c, 2, 65, 32
8, 570420, Note_on_c, 2, 62, 32
8, 570464, Note_on_c, 2, 65, 0
8, 570464, Note_on_c, 2, 62, 0
8, 570480, Note_on_c, 2, 65, 32
8, 570480, Note_on_c, 2, 62, 32
8, 570584, Note_on_c, 2, 65, 0
8, 570584, Note_on_c, 2, 62, 0
8, 570600, Note_on_c, 2, 65, 32
8, 570600, Note_on_c, 2, 62, 32
8, 570719, Note_on_c, 2, 65, 0
8, 570719, Note_on_c, 2, 62, 0
8, 572400, Note_on_c, 2, 69, 40
8, 572400, Note_on_c, 2, 65, 40
8, 572564, Note_on_c, 2, 69, 0
8, 572564, Note_on_c, 2, 65, 0
8, 572580, Note_on_c, 2, 69, 44
8, 572580, Note_on_c, 2, 65, 44
8, 572624, Note_on_c, 2, 69, 0
8, 572624, Note_on_c, 2, 65, 0
8, 572640, Note_on_c, 2, 69, 46
8, 572640, Note_on_c, 2, 65, 46
8, 572744, Note_on_c, 2, 69, 0
8, 572744, Note_on_c, 2, 65, 0
8, 572760, Note_on_c, 2, 69, 49
8, 572760, Note_on_c, 2, 65, 49
8, 572879, Note_on_c, 2, 69, 0
8, 572879, Note_on_c, 2, 65, 0
8, 573120, Note_on_c, 2, 65, 57
8, 573120, Note_on_c, 2, 69, 57
8, 573284, Note_on_c, 2, 65, 0
8, 573284, Note_on_c, 2, 69, 0
8, 573300, Note_on_c, 2, 69, 62
8, 573300, Note_on_c, 2, 65, 62
8, 573344, Note_on_c, 2, 69, 0
8, 573344, Note_on_c, 2, 65, 0
8, 573360, Note_on_c, 2, 69, 63
8, 573360, Note_on_c, 2, 65, 63
8, 573464, Note_on_c, 2, 69, 0
8, 573464, Note_on_c, 2, 65, 0
8, 573480, Note_on_c, 2, 70, 66
8, 573480, Note_on_c, 2, 65, 66
8, 573599, Note_on_c, 2, 70, 0
8, 573599, Note_on_c, 2, 65, 0
8, 573840, Note_on_c, 2, 70, 74
8, 573840, Note_on_c, 2, 67, 74
8, 574004, Note_on_c, 2, 70, 0
8, 574004, Note_on_c, 2, 67, 0
8, 574020, Note_on_c, 2, 70, 79
8, 574020, Note_on_c, 2, 67, 79
8, 574064, Note_on_c, 2, 70, 0
8, 574064, Note_on_c, 2, 67, 0
8, 574080, Note_on_c, 2, 70, 80
8, 574080, Note_on_c, 2, 67, 80
8, 574184, Note_on_c, 2, 70, 0
8, 574184, Note_on_c, 2, 67, 0
8, 574200, Note_on_c, 2, 62, 83
8, 574200, Note_on_c, 2, 67, 83
8, 574319, Note_on_c, 2, 62, 0
8, 574319, Note_on_c, 2, 67, 0
8, 574560, Note_on_c, 2, 61, 92
8, 574560, Note_on_c, 2, 64, 92
8, 574724, Note_on_c, 2, 61, 0
8, 574724, Note_on_c, 2, 64, 0
8, 574740, Note_on_c, 2, 64, 92
8, 574740, Note_on_c, 2, 61, 92
8, 574784, Note_on_c, 2, 64, 0
8, 574784, Note_on_c, 2, 61, 0
8, 574800, Note_on_c, 2, 61, 92
8, 574800, Note_on_c, 2, 64, 92
8, 575249, Note_on_c, 2, 61, 0
8, 575249, Note_on_c, 2, 64, 0
8, 576000, Note_on_c, 2, 74, 32
8, 576164, Note_on_c, 2, 74, 0
8, 576180, Note_on_c, 2, 62, 32
8, 576224, Note_on_c, 2, 62, 0
8, 576240, Note_on_c, 2, 62, 32
8, 576344, Note_on_c, 2, 62, 0
8, 576360, Note_on_c, 2, 67, 32
8, 576464, Note_on_c, 2, 67, 0
8, 576480, Note_on_c, 2, 69, 32
8, 576584, Note_on_c, 2, 69, 0
8, 576600, Note_on_c, 2, 70, 32
8, 576704, Note_on_c, 2, 70, 0
8, 577440, Note_on_c, 2, 74, 32
8, 577604, Note_on_c, 2, 74, 0
8, 577620, Note_on_c, 2, 62, 32
8, 577664, Note_on_c, 2, 62, 0
8, 577680, Note_on_c, 2, 62, 32
8, 577784, Note_on_c, 2, 62, 0
8, 577800, Note_on_c, 2, 67, 32
8, 577904, Note_on_c, 2, 67, 0
8, 577920, Note_on_c, 2, 69, 32
8, 578024, Note_on_c, 2, 69, 0
8, 578040, Note_on_c, 2, 70, 32
8, 578144, Note_on_c, 2, 70, 0
8, 578160, Note_on_c, 2, 81, 32
8, 578160, Note_on_c, 2, 69, 32
8, 578319, Note_on_c, 2, 81, 0
8, 578319, Note_on_c, 2, 69, 0
8, 578340, Note_on_c, 2, 57, 35
8, 578340, Note_on_c, 2, 69, 35
8, 578379, Note_on_c, 2, 57, 0
8, 578379, Note_on_c, 2, 69, 0
8, 578400, Note_on_c, 2, 57, 37
8, 578400, Note_on_c, 2, 69, 37
8, 578499, Note_on_c, 2, 57, 0
8, 578499, Note_on_c, 2, 69, 0
8, 578520, Note_on_c, 2, 62, 39
8, 578520, Note_on_c, 2, 74, 39
8, 578619, Note_on_c, 2, 62, 0
8, 578619, Note_on_c, 2, 74, 0
8, 578640, Note_on_c, 2, 76, 42
8, 578640, Note_on_c, 2, 64, 42
8, 578739, Note_on_c, 2, 76, 0
8, 578739, Note_on_c, 2, 64, 0
8, 578760, Note_on_c, 2, 77, 44
8, 578760, Note_on_c, 2, 65, 44
8, 578859, Note_on_c, 2, 77, 0
8, 578859, Note_on_c, 2, 65, 0
8, 578880, Note_on_c, 2, 81, 47
8, 578880, Note_on_c, 2, 69, 47
8, 579039, Note_on_c, 2, 81, 0
8, 579039, Note_on_c, 2, 69, 0
8, 579060, Note_on_c, 2, 69, 50
8, 579060, Note_on_c, 2, 57, 50
8, 579099, Note_on_c, 2, 69, 0
8, 579099, Note_on_c, 2, 57, 0
8, 579120, Note_on_c, 2, 69, 52
8, 579120, Note_on_c, 2, 57, 52
8, 579219, Note_on_c, 2, 69, 0
8, 579219, Note_on_c, 2, 57, 0
8, 579240, Note_on_c, 2, 62, 54
8, 579240, Note_on_c, 2, 74, 54
8, 579339, Note_on_c, 2, 62, 0
8, 579339, Note_on_c, 2, 74, 0
8, 579360, Note_on_c, 2, 64, 57
8, 579360, Note_on_c, 2, 76, 57
8, 579459, Note_on_c, 2, 64, 0
8, 579459, Note_on_c, 2, 76, 0
8, 579480, Note_on_c, 2, 65, 59
8, 579480, Note_on_c, 2, 77, 59
8, 579579, Note_on_c, 2, 65, 0
8, 579579, Note_on_c, 2, 77, 0
8, 579600, Note_on_c, 2, 69, 62
8, 579600, Note_on_c, 2, 81, 62
8, 579759, Note_on_c, 2, 69, 0
8, 579759, Note_on_c, 2, 81, 0
8, 579780, Note_on_c, 2, 57, 65
8, 579780, Note_on_c, 2, 69, 65
8, 579819, Note_on_c, 2, 57, 0
8, 579819, Note_on_c, 2, 69, 0
8, 579840, Note_on_c, 2, 57, 67
8, 579840, Note_on_c, 2, 69, 67
8, 579939, Note_on_c, 2, 57, 0
8, 579939, Note_on_c, 2, 69, 0
8, 579960, Note_on_c, 2, 62, 69
8, 579960, Note_on_c, 2, 74, 69
8, 580059, Note_on_c, 2, 62, 0
8, 580059, Note_on_c, 2, 74, 0
8, 580080, Note_on_c, 2, 76, 72
8, 580080, Note_on_c, 2, 64, 72
8, 580179, Note_on_c, 2, 76, 0
8, 580179, Note_on_c, 2, 64, 0
8, 580200, Note_on_c, 2, 77, 74
8, 580200, Note_on_c, 2, 65, 74
8, 580299, Note_on_c, 2, 77, 0
8, 580299, Note_on_c, 2, 65, 0
8, 580320, Note_on_c, 2, 69, 77
8, 580320, Note_on_c, 2, 81, 77
8, 580479, Note_on_c, 2, 69, 0
8, 580479, Note_on_c, 2, 81, 0
8, 580500, Note_on_c, 2, 69, 80
8, 580500, Note_on_c, 2, 57, 80
8, 580539, Note_on_c, 2, 69, 0
8, 580539, Note_on_c, 2, 57, 0
8, 580560, Note_on_c, 2, 57, 82
8, 580560, Note_on_c, 2, 69, 82
8, 580659, Note_on_c, 2, 57, 0
8, 580659, Note_on_c, 2, 69, 0
8, 580680, Note_on_c, 2, 62, 84
8, 580680, Note_on_c, 2, 74, 84
8, 580779, Note_on_c, 2, 62, 0
8, 580779, Note_on_c, 2, 74, 0
8, 580800, Note_on_c, 2, 76, 87
8, 580800, Note_on_c, 2, 64, 87
8, 580899, Note_on_c, 2, 76, 0
8, 580899, Note_on_c, 2, 64, 0
8, 580920, Note_on_c, 2, 65, 89
8, 580920, Note_on_c, 2, 77, 89
8, 581019, Note_on_c, 2, 65, 0
8, 581019, Note_on_c, 2, 77, 0
8, 581040, Note_on_c, 2, 81, 92
8, 581139, Note_on_c, 2, 81, 0
8, 581160, Note_on_c, 2, 69, 92
8, 581259, Note_on_c, 2, 69, 0
8, 581280, Note_on_c, 2, 74, 80
8, 581379, Note_on_c, 2, 74, 0
8, 581400, Note_on_c, 2, 62, 80
8, 581499, Note_on_c, 2, 62, 0
8, 581520, Note_on_c, 2, 69, 80
8, 581619, Note_on_c, 2, 69, 0
8, 581640, Note_on_c, 2, 57, 80
8, 581739, Note_on_c, 2, 57, 0
8, 581760, Note_on_c, 2, 69, 80
8, 581760, Note_on_c, 2, 81, 80
8, 581859, Note_on_c, 2, 69, 0
8, 581859, Note_on_c, 2, 81, 0
8, 581880, Note_on_c, 2, 57, 80
8, 581880, Note_on_c, 2, 69, 80
8, 581979, Note_on_c, 2, 57, 0
8, 581979, Note_on_c, 2, 69, 0
8, 582000, Note_on_c, 2, 74, 80
8, 582060, Control_c, 2, 11, 67
8, 582720, Note_on_c, 2, 76, 80
8, 582959, Note_on_c, 2, 76, 0
8, 582960, Note_on_c, 2, 78, 80
8, 583319, Note_on_c, 2, 74, 0
8, 583319, Note_on_c, 2, 78, 0
8, 583320, Note_on_c, 2, 79, 80
8, 583320, Note_on_c, 2, 76, 80
8, 583379, Note_on_c, 2, 79, 0
8, 583379, Note_on_c, 2, 76, 0
8, 583380, Note_on_c, 2, 78, 80
8, 583380, Note_on_c, 2, 81, 80
8, 583419, Note_on_c, 2, 78, 0
8, 583419, Note_on_c, 2, 81, 0
8, 583440, Note_on_c, 2, 74, 80
8, 583440, Note_on_c, 2, 79, 80
8, 583529, Note_on_c, 2, 74, 0
8, 583529, Note_on_c, 2, 79, 0
8, 583560, Note_on_c, 2, 76, 80
8, 583560, Note_on_c, 2, 79, 80
8, 583649, Note_on_c, 2, 76, 0
8, 583649, Note_on_c, 2, 79, 0
8, 583680, Note_on_c, 2, 74, 80
8, 583680, Note_on_c, 2, 78, 80
8, 583769, Note_on_c, 2, 74, 0
8, 583769, Note_on_c, 2, 78, 0
8, 583800, Note_on_c, 2, 78, 80
8, 583800, Note_on_c, 2, 62, 80
8, 583889, Note_on_c, 2, 78, 0
8, 583889, Note_on_c, 2, 62, 0
8, 583920, Note_on_c, 2, 76, 80
8, 583920, Note_on_c, 2, 73, 80
8, 584009, Note_on_c, 2, 73, 0
8, 584040, Note_on_c, 2, 67, 80
8, 584129, Note_on_c, 2, 67, 0
8, 584139, Note_on_c, 2, 76, 0
8, 584160, Note_on_c, 2, 74, 80
8, 584160, Note_on_c, 2, 66, 80
8, 584249, Note_on_c, 2, 66, 0
8, 584640, Note_on_c, 2, 76, 80
8, 584859, Note_on_c, 2, 76, 0
8, 584880, Note_on_c, 2, 78, 80
8, 585239, Note_on_c, 2, 74, 0
8, 585239, Note_on_c, 2, 78, 0
8, 585240, Note_on_c, 2, 79, 80
8, 585240, Note_on_c, 2, 76, 80
8, 585299, Note_on_c, 2, 79, 0
8, 585299, Note_on_c, 2, 76, 0
8, 585300, Note_on_c, 2, 81, 80
8, 585300, Note_on_c, 2, 78, 80
8, 585359, Note_on_c, 2, 81, 0
8, 585359, Note_on_c, 2, 78, 0
8, 585838, Control_c, 2, 11, 127
8, 585840, Note_on_c, 2, 81, 92
8, 585939, Note_on_c, 2, 81, 0
8, 585960, Note_on_c, 2, 69, 92
8, 586059, Note_on_c, 2, 69, 0
8, 586080, Note_on_c, 2, 74, 80
8, 586179, Note_on_c, 2, 74, 0
8, 586200, Note_on_c, 2, 62, 80
8, 586299, Note_on_c, 2, 62, 0
8, 586320, Note_on_c, 2, 69, 80
8, 586419, Note_on_c, 2, 69, 0
8, 586440, Note_on_c, 2, 57, 80
8, 586539, Note_on_c, 2, 57, 0
8, 586560, Note_on_c, 2, 81, 80
8, 586560, Note_on_c, 2, 69, 80
8, 586659, Note_on_c, 2, 81, 0
8, 586659, Note_on_c, 2, 69, 0
8, 586680, Note_on_c, 2, 57, 80
8, 586680, Note_on_c, 2, 69, 80
8, 586779, Note_on_c, 2, 57, 0
8, 586779, Note_on_c, 2, 69, 0
8, 586800, Note_on_c, 2, 62, 80
8, 586919, Note_on_c, 2, 62, 0
8, 586919, End_track
9, 0, Start_track
9, 0, Title_t, "Bassoon"
9, 0, MIDI_port, 0
9, 0, Program_c, 3, 70
9, 0, Control_c, 3, 7, 96
9, 0, Control_c, 3, 11, 127
9, 0, Control_c, 3, 10, 65
9, 1800, Note_on_c, 3, 50, 92
9, 1964, Note_on_c, 3, 50, 0
9, 1980, Note_on_c, 3, 38, 92
9, 2024, Note_on_c, 3, 38, 0
9, 2040, Note_on_c, 3, 38, 92
9, 2159, Note_on_c, 3, 38, 0
9, 5760, Note_on_c, 3, 69, 32
9, 5879, Note_on_c, 3, 69, 0
9, 6120, Note_on_c, 3, 62, 32
9, 6239, Note_on_c, 3, 62, 0
9, 6480, Note_on_c, 3, 64, 32
9, 6599, Note_on_c, 3, 64, 0
9, 6840, Note_on_c, 3, 65, 32
9, 6959, Note_on_c, 3, 65, 0
9, 7200, Note_on_c, 3, 65, 32
9, 7319, Note_on_c, 3, 65, 0
9, 7560, Note_on_c, 3, 60, 32
9, 7679, Note_on_c, 3, 60, 0
9, 7920, Note_on_c, 3, 56, 32
9, 8039, Note_on_c, 3, 56, 0
9, 8280, Note_on_c, 3, 57, 32
9, 8399, Note_on_c, 3, 57, 0
9, 8640, Note_on_c, 3, 57, 32
9, 8640, Note_on_c, 3, 45, 32
9, 8759, Note_on_c, 3, 57, 0
9, 8759, Note_on_c, 3, 45, 0
9, 9000, Note_on_c, 3, 50, 32
9, 9000, Note_on_c, 3, 38, 32
9, 9119, Note_on_c, 3, 50, 0
9, 9119, Note_on_c, 3, 38, 0
9, 9360, Note_on_c, 3, 40, 32
9, 9360, Note_on_c, 3, 52, 32
9, 9479, Note_on_c, 3, 40, 0
9, 9479, Note_on_c, 3, 52, 0
9, 9720, Note_on_c, 3, 41, 32
9, 9720, Note_on_c, 3, 53, 32
9, 9839, Note_on_c, 3, 41, 0
9, 9839, Note_on_c, 3, 53, 0
9, 10080, Note_on_c, 3, 53, 32
9, 10080, Note_on_c, 3, 41, 32
9, 10199, Note_on_c, 3, 53, 0
9, 10199, Note_on_c, 3, 41, 0
9, 10440, Note_on_c, 3, 36, 32
9, 10440, Note_on_c, 3, 48, 32
9, 10559, Note_on_c, 3, 36, 0
9, 10559, Note_on_c, 3, 48, 0
9, 10800, Note_on_c, 3, 44, 32
9, 10919, Note_on_c, 3, 44, 0
9, 11160, Note_on_c, 3, 45, 32
9, 11279, Note_on_c, 3, 45, 0
9, 11520, Note_on_c, 3, 55, 32
9, 11520, Note_on_c, 3, 58, 32
9, 11639, Note_on_c, 3, 55, 0
9, 11639, Note_on_c, 3, 58, 0
9, 11880, Note_on_c, 3, 57, 32
9, 11880, Note_on_c, 3, 53, 32
9, 11999, Note_on_c, 3, 57, 0
9, 11999, Note_on_c, 3, 53, 0
9, 12240, Note_on_c, 3, 52, 32
9, 12240, Note_on_c, 3, 49, 32
9, 12359, Note_on_c, 3, 52, 0
9, 12359, Note_on_c, 3, 49, 0
9, 12600, Note_on_c, 3, 50, 32
9, 12600, Note_on_c, 3, 53, 32
9, 12719, Note_on_c, 3, 50, 0
9, 12719, Note_on_c, 3, 53, 0
9, 12960, Note_on_c, 3, 45, 32
9, 12960, Note_on_c, 3, 53, 32
9, 13079, Note_on_c, 3, 45, 0
9, 13079, Note_on_c, 3, 53, 0
9, 13320, Note_on_c, 3, 57, 32
9, 13320, Note_on_c, 3, 52, 32
9, 13439, Note_on_c, 3, 57, 0
9, 13439, Note_on_c, 3, 52, 0
9, 13680, Note_on_c, 3, 53, 32
9, 13680, Note_on_c, 3, 50, 32
9, 13799, Note_on_c, 3, 53, 0
9, 13799, Note_on_c, 3, 50, 0
9, 14040, Note_on_c, 3, 45, 32
9, 14040, Note_on_c, 3, 52, 32
9, 14159, Note_on_c, 3, 45, 0
9, 14159, Note_on_c, 3, 52, 0
9, 14400, Note_on_c, 3, 52, 32
9, 14400, Note_on_c, 3, 55, 32
9, 14519, Note_on_c, 3, 52, 0
9, 14519, Note_on_c, 3, 55, 0
9, 14760, Note_on_c, 3, 53, 32
9, 14760, Note_on_c, 3, 50, 32
9, 14879, Note_on_c, 3, 53, 0
9, 14879, Note_on_c, 3, 50, 0
9, 15120, Note_on_c, 3, 45, 32
9, 15120, Note_on_c, 3, 52, 32
9, 15239, Note_on_c, 3, 45, 0
9, 15239, Note_on_c, 3, 52, 0
9, 15480, Note_on_c, 3, 57, 32
9, 15480, Note_on_c, 3, 45, 32
9, 15599, Note_on_c, 3, 57, 0
9, 15599, Note_on_c, 3, 45, 0
9, 16080, Note_on_c, 3, 55, 32
9, 16080, Note_on_c, 3, 52, 32
9, 16199, Note_on_c, 3, 55, 0
9, 16199, Note_on_c, 3, 52, 0
9, 16440, Note_on_c, 3, 57, 37
9, 16440, Note_on_c, 3, 53, 37
9, 16559, Note_on_c, 3, 57, 0
9, 16559, Note_on_c, 3, 53, 0
9, 16800, Note_on_c, 3, 52, 42
9, 16800, Note_on_c, 3, 55, 42
9, 16919, Note_on_c, 3, 52, 0
9, 16919, Note_on_c, 3, 55, 0
9, 17160, Note_on_c, 3, 53, 47
9, 17160, Note_on_c, 3, 57, 47
9, 17279, Note_on_c, 3, 53, 0
9, 17279, Note_on_c, 3, 57, 0
9, 17520, Note_on_c, 3, 52, 53
9, 17520, Note_on_c, 3, 55, 53
9, 17639, Note_on_c, 3, 52, 0
9, 17639, Note_on_c, 3, 55, 0
9, 17880, Note_on_c, 3, 57, 58
9, 17880, Note_on_c, 3, 53, 58
9, 17999, Note_on_c, 3, 57, 0
9, 17999, Note_on_c, 3, 53, 0
9, 18240, Note_on_c, 3, 52, 63
9, 18240, Note_on_c, 3, 55, 63
9, 18359, Note_on_c, 3, 52, 0
9, 18359, Note_on_c, 3, 55, 0
9, 18600, Note_on_c, 3, 53, 69
9, 18600, Note_on_c, 3, 57, 69
9, 18719, Note_on_c, 3, 53, 0
9, 18719, Note_on_c, 3, 57, 0
9, 18960, Note_on_c, 3, 52, 74
9, 18960, Note_on_c, 3, 55, 74
9, 19079, Note_on_c, 3, 52, 0
9, 19079, Note_on_c, 3, 55, 0
9, 19320, Note_on_c, 3, 57, 79
9, 19320, Note_on_c, 3, 53, 79
9, 19424, Note_on_c, 3, 57, 0
9, 19424, Note_on_c, 3, 53, 0
9, 19440, Note_on_c, 3, 57, 82
9, 19440, Note_on_c, 3, 55, 82
9, 19529, Note_on_c, 3, 57, 0
9, 19529, Note_on_c, 3, 55, 0
9, 19560, Note_on_c, 3, 57, 83
9, 19560, Note_on_c, 3, 53, 83
9, 19649, Note_on_c, 3, 57, 0
9, 19649, Note_on_c, 3, 53, 0
9, 19680, Note_on_c, 3, 57, 85
9, 19680, Note_on_c, 3, 52, 85
9, 19769, Note_on_c, 3, 57, 0
9, 19769, Note_on_c, 3, 52, 0
9, 19800, Note_on_c, 3, 55, 87
9, 19800, Note_on_c, 3, 64, 87
9, 19889, Note_on_c, 3, 55, 0
9, 19889, Note_on_c, 3, 64, 0
9, 19920, Note_on_c, 3, 53, 88
9, 19920, Note_on_c, 3, 62, 88
9, 20009, Note_on_c, 3, 53, 0
9, 20009, Note_on_c, 3, 62, 0
9, 20040, Note_on_c, 3, 52, 90
9, 20040, Note_on_c, 3, 61, 90
9, 20129, Note_on_c, 3, 52, 0
9, 20129, Note_on_c, 3, 61, 0
9, 20160, Note_on_c, 3, 53, 92
9, 20160, Note_on_c, 3, 57, 92
9, 20264, Note_on_c, 3, 53, 0
9, 20264, Note_on_c, 3, 57, 0
9, 20280, Note_on_c, 3, 65, 92
9, 20280, Note_on_c, 3, 62, 92
9, 20384, Note_on_c, 3, 65, 0
9, 20384, Note_on_c, 3, 62, 0
9, 20400, Note_on_c, 3, 62, 92
9, 20400, Note_on_c, 3, 65, 92
9, 20504, Note_on_c, 3, 62, 0
9, 20504, Note_on_c, 3, 65, 0
9, 20520, Note_on_c, 3, 65, 92
9, 20520, Note_on_c, 3, 62, 92
9, 20624, Note_on_c, 3, 65, 0
9, 20624, Note_on_c, 3, 62, 0
9, 20640, Note_on_c, 3, 62, 92
9, 20640, Note_on_c, 3, 65, 92
9, 20744, Note_on_c, 3, 62, 0
9, 20744, Note_on_c, 3, 65, 0
9, 20760, Note_on_c, 3, 65, 92
9, 20760, Note_on_c, 3, 62, 92
9, 20864, Note_on_c, 3, 65, 0
9, 20864, Note_on_c, 3, 62, 0
9, 20880, Note_on_c, 3, 61, 92
9, 20880, Note_on_c, 3, 64, 92
9, 20984, Note_on_c, 3, 61, 0
9, 20984, Note_on_c, 3, 64, 0
9, 21000, Note_on_c, 3, 62, 92
9, 21000, Note_on_c, 3, 65, 92
9, 21104, Note_on_c, 3, 62, 0
9, 21104, Note_on_c, 3, 65, 0
9, 21120, Note_on_c, 3, 61, 92
9, 21120, Note_on_c, 3, 64, 92
9, 21224, Note_on_c, 3, 61, 0
9, 21224, Note_on_c, 3, 64, 0
9, 21240, Note_on_c, 3, 65, 92
9, 21240, Note_on_c, 3, 62, 92
9, 21344, Note_on_c, 3, 65, 0
9, 21344, Note_on_c, 3, 62, 0
9, 21360, Note_on_c, 3, 65, 92
9, 21360, Note_on_c, 3, 62, 92
9, 21464, Note_on_c, 3, 65, 0
9, 21464, Note_on_c, 3, 62, 0
9, 21480, Note_on_c, 3, 65, 92
9, 21480, Note_on_c, 3, 62, 92
9, 21584, Note_on_c, 3, 65, 0
9, 21584, Note_on_c, 3, 62, 0
9, 21600, Note_on_c, 3, 62, 80
9, 21600, Note_on_c, 3, 55, 80
9, 21704, Note_on_c, 3, 62, 0
9, 21704, Note_on_c, 3, 55, 0
9, 21720, Note_on_c, 3, 62, 80
9, 21720, Note_on_c, 3, 57, 80
9, 21824, Note_on_c, 3, 62, 0
9, 21824, Note_on_c, 3, 57, 0
9, 21840, Note_on_c, 3, 62, 80
9, 21840, Note_on_c, 3, 58, 80
9, 21944, Note_on_c, 3, 62, 0
9, 21944, Note_on_c, 3, 58, 0
9, 21960, Note_on_c, 3, 62, 80
9, 21960, Note_on_c, 3, 57, 80
9, 22064, Note_on_c, 3, 62, 0
9, 22064, Note_on_c, 3, 57, 0
9, 22080, Note_on_c, 3, 64, 80
9, 22080, Note_on_c, 3, 57, 80
9, 22184, Note_on_c, 3, 64, 0
9, 22184, Note_on_c, 3, 57, 0
9, 22200, Note_on_c, 3, 65, 80
9, 22200, Note_on_c, 3, 57, 80
9, 22304, Note_on_c, 3, 65, 0
9, 22304, Note_on_c, 3, 57, 0
9, 22320, Note_on_c, 3, 67, 80
9, 22320, Note_on_c, 3, 64, 80
9, 22424, Note_on_c, 3, 67, 0
9, 22424, Note_on_c, 3, 64, 0
9, 22440, Note_on_c, 3, 65, 80
9, 22440, Note_on_c, 3, 62, 80
9, 22544, Note_on_c, 3, 65, 0
9, 22544, Note_on_c, 3, 62, 0
9, 22560, Note_on_c, 3, 61, 80
9, 22560, Note_on_c, 3, 64, 80
9, 22664, Note_on_c, 3, 61, 0
9, 22664, Note_on_c, 3, 64, 0
9, 22680, Note_on_c, 3, 65, 80
9, 22680, Note_on_c, 3, 62, 80
9, 22784, Note_on_c, 3, 65, 0
9, 22784, Note_on_c, 3, 62, 0
9, 22800, Note_on_c, 3, 67, 80
9, 22800, Note_on_c, 3, 64, 80
9, 22904, Note_on_c, 3, 67, 0
9, 22904, Note_on_c, 3, 64, 0
9, 22920, Note_on_c, 3, 65, 80
9, 22920, Note_on_c, 3, 62, 80
9, 23024, Note_on_c, 3, 65, 0
9, 23024, Note_on_c, 3, 62, 0
9, 23040, Note_on_c, 3, 55, 80
9, 23144, Note_on_c, 3, 55, 0
9, 23160, Note_on_c, 3, 57, 80
9, 23264, Note_on_c, 3, 57, 0
9, 23280, Note_on_c, 3, 58, 80
9, 23384, Note_on_c, 3, 58, 0
9, 23400, Note_on_c, 3, 62, 80
9, 23504, Note_on_c, 3, 62, 0
9, 23520, Note_on_c, 3, 64, 80
9, 23624, Note_on_c, 3, 64, 0
9, 23640, Note_on_c, 3, 65, 80
9, 23744, Note_on_c, 3, 65, 0
9, 23760, Note_on_c, 3, 67, 80
9, 23760, Note_on_c, 3, 64, 80
9, 23864, Note_on_c, 3, 67, 0
9, 23864, Note_on_c, 3, 64, 0
9, 23880, Note_on_c, 3, 65, 80
9, 23880, Note_on_c, 3, 62, 80
9, 23984, Note_on_c, 3, 65, 0
9, 23984, Note_on_c, 3, 62, 0
9, 24000, Note_on_c, 3, 61, 80
9, 24000, Note_on_c, 3, 64, 80
9, 24104, Note_on_c, 3, 61, 0
9, 24104, Note_on_c, 3, 64, 0
9, 24120, Note_on_c, 3, 62, 80
9, 24120, Note_on_c, 3, 65, 80
9, 24224, Note_on_c, 3, 62, 0
9, 24224, Note_on_c, 3, 65, 0
9, 24240, Note_on_c, 3, 65, 80
9, 24240, Note_on_c, 3, 57, 80
9, 24344, Note_on_c, 3, 65, 0
9, 24344, Note_on_c, 3, 57, 0
9, 24360, Note_on_c, 3, 59, 80
9, 24360, Note_on_c, 3, 65, 80
9, 24464, Note_on_c, 3, 59, 0
9, 24464, Note_on_c, 3, 65, 0
9, 24480, Note_on_c, 3, 59, 80
9, 24480, Note_on_c, 3, 65, 80
9, 24584, Note_on_c, 3, 59, 0
9, 24584, Note_on_c, 3, 65, 0
9, 24600, Note_on_c, 3, 59, 80
9, 24600, Note_on_c, 3, 62, 80
9, 24704, Note_on_c, 3, 59, 0
9, 24704, Note_on_c, 3, 62, 0
9, 24720, Note_on_c, 3, 59, 80
9, 24720, Note_on_c, 3, 62, 80
9, 24824, Note_on_c, 3, 59, 0
9, 24824, Note_on_c, 3, 62, 0
9, 24840, Note_on_c, 3, 64, 80
9, 24840, Note_on_c, 3, 60, 80
9, 24944, Note_on_c, 3, 64, 0
9, 24944, Note_on_c, 3, 60, 0
9, 24960, Note_on_c, 3, 65, 80
9, 24960, Note_on_c, 3, 62, 80
9, 25064, Note_on_c, 3, 65, 0
9, 25064, Note_on_c, 3, 62, 0
9, 25080, Note_on_c, 3, 67, 80
9, 25080, Note_on_c, 3, 64, 80
9, 25184, Note_on_c, 3, 67, 0
9, 25184, Note_on_c, 3, 64, 0
9, 25200, Note_on_c, 3, 62, 80
9, 25200, Note_on_c, 3, 65, 80
9, 25304, Note_on_c, 3, 62, 0
9, 25304, Note_on_c, 3, 65, 0
9, 25320, Note_on_c, 3, 64, 80
9, 25320, Note_on_c, 3, 60, 80
9, 25424, Note_on_c, 3, 64, 0
9, 25424, Note_on_c, 3, 60, 0
9, 25440, Note_on_c, 3, 65, 80
9, 25440, Note_on_c, 3, 59, 80
9, 25544, Note_on_c, 3, 65, 0
9, 25544, Note_on_c, 3, 59, 0
9, 25560, Note_on_c, 3, 60, 80
9, 25560, Note_on_c, 3, 64, 80
9, 25664, Note_on_c, 3, 60, 0
9, 25664, Note_on_c, 3, 64, 0
9, 25680, Note_on_c, 3, 59, 80
9, 25680, Note_on_c, 3, 65, 80
9, 25784, Note_on_c, 3, 59, 0
9, 25784, Note_on_c, 3, 65, 0
9, 25800, Note_on_c, 3, 59, 80
9, 25800, Note_on_c, 3, 65, 80
9, 25904, Note_on_c, 3, 59, 0
9, 25904, Note_on_c, 3, 65, 0
9, 25920, Note_on_c, 3, 65, 80
9, 25920, Note_on_c, 3, 59, 80
9, 26024, Note_on_c, 3, 65, 0
9, 26024, Note_on_c, 3, 59, 0
9, 26040, Note_on_c, 3, 62, 80
9, 26040, Note_on_c, 3, 59, 80
9, 26144, Note_on_c, 3, 62, 0
9, 26144, Note_on_c, 3, 59, 0
9, 26160, Note_on_c, 3, 59, 80
9, 26160, Note_on_c, 3, 62, 80
9, 26264, Note_on_c, 3, 59, 0
9, 26264, Note_on_c, 3, 62, 0
9, 26280, Note_on_c, 3, 64, 80
9, 26280, Note_on_c, 3, 60, 80
9, 26384, Note_on_c, 3, 64, 0
9, 26384, Note_on_c, 3, 60, 0
9, 26400, Note_on_c, 3, 62, 80
9, 26400, Note_on_c, 3, 65, 80
9, 26504, Note_on_c, 3, 62, 0
9, 26504, Note_on_c, 3, 65, 0
9, 26520, Note_on_c, 3, 64, 80
9, 26520, Note_on_c, 3, 67, 80
9, 26624, Note_on_c, 3, 64, 0
9, 26624, Note_on_c, 3, 67, 0
9, 26640, Note_on_c, 3, 64, 80
9, 26640, Note_on_c, 3, 60, 80
9, 26744, Note_on_c, 3, 64, 0
9, 26744, Note_on_c, 3, 60, 0
9, 26760, Note_on_c, 3, 62, 80
9, 26760, Note_on_c, 3, 65, 80
9, 26864, Note_on_c, 3, 62, 0
9, 26864, Note_on_c, 3, 65, 0
9, 26880, Note_on_c, 3, 67, 80
9, 26880, Note_on_c, 3, 64, 80
9, 26984, Note_on_c, 3, 67, 0
9, 26984, Note_on_c, 3, 64, 0
9, 27000, Note_on_c, 3, 60, 80
9, 27000, Note_on_c, 3, 64, 80
9, 27104, Note_on_c, 3, 60, 0
9, 27104, Note_on_c, 3, 64, 0
9, 27120, Note_on_c, 3, 62, 80
9, 27120, Note_on_c, 3, 65, 80
9, 27224, Note_on_c, 3, 62, 0
9, 27224, Note_on_c, 3, 65, 0
9, 27240, Note_on_c, 3, 67, 80
9, 27240, Note_on_c, 3, 64, 80
9, 27344, Note_on_c, 3, 67, 0
9, 27344, Note_on_c, 3, 64, 0
9, 27360, Note_on_c, 3, 67, 80
9, 27360, Note_on_c, 3, 55, 80
9, 27420, Control_c, 3, 11, 67
9, 27720, Control_c, 3, 11, 67
9, 27759, Control_c, 3, 11, 68
9, 27798, Control_c, 3, 11, 69
9, 27837, Control_c, 3, 11, 70
9, 27876, Control_c, 3, 11, 71
9, 27915, Control_c, 3, 11, 72
9, 27954, Control_c, 3, 11, 73
9, 27993, Control_c, 3, 11, 74
9, 28032, Control_c, 3, 11, 75
9, 28064, Note_on_c, 3, 67, 0
9, 28064, Note_on_c, 3, 55, 0
9, 28071, Control_c, 3, 11, 76
9, 28080, Note_on_c, 3, 53, 80
9, 28080, Note_on_c, 3, 65, 80
9, 28110, Control_c, 3, 11, 77
9, 28149, Control_c, 3, 11, 78
9, 28188, Control_c, 3, 11, 79
9, 28227, Control_c, 3, 11, 80
9, 28266, Control_c, 3, 11, 81
9, 28305, Control_c, 3, 11, 82
9, 28344, Control_c, 3, 11, 83
9, 28383, Control_c, 3, 11, 84
9, 28422, Control_c, 3, 11, 85
9, 28439, Note_on_c, 3, 53, 0
9, 28439, Note_on_c, 3, 65, 0
9, 28440, Note_on_c, 3, 62, 80
9, 28440, Note_on_c, 3, 50, 80
9, 28461, Control_c, 3, 11, 86
9, 28500, Control_c, 3, 11, 87
9, 28539, Control_c, 3, 11, 88
9, 28578, Control_c, 3, 11, 89
9, 28617, Control_c, 3, 11, 90
9, 28656, Control_c, 3, 11, 91
9, 28695, Control_c, 3, 11, 92
9, 28734, Control_c, 3, 11, 93
9, 28773, Control_c, 3, 11, 94
9, 28799, Note_on_c, 3, 62, 0
9, 28799, Note_on_c, 3, 50, 0
9, 28800, Note_on_c, 3, 47, 80
9, 28800, Note_on_c, 3, 59, 80
9, 28812, Control_c, 3, 11, 95
9, 28851, Control_c, 3, 11, 96
9, 28890, Control_c, 3, 11, 97
9, 28929, Control_c, 3, 11, 98
9, 28968, Control_c, 3, 11, 99
9, 29007, Control_c, 3, 11, 100
9, 29046, Control_c, 3, 11, 101
9, 29085, Control_c, 3, 11, 102
9, 29124, Control_c, 3, 11, 103
9, 29159, Note_on_c, 3, 47, 0
9, 29159, Note_on_c, 3, 59, 0
9, 29160, Note_on_c, 3, 60, 80
9, 29160, Note_on_c, 3, 48, 80
9, 29163, Control_c, 3, 11, 104
9, 29202, Control_c, 3, 11, 105
9, 29241, Control_c, 3, 11, 106
9, 29280, Control_c, 3, 11, 107
9, 29310, Control_c, 3, 11, 105
9, 29340, Control_c, 3, 11, 104
9, 29370, Control_c, 3, 11, 102
9, 29400, Control_c, 3, 11, 100
9, 29430, Control_c, 3, 11, 99
9, 29460, Control_c, 3, 11, 97
9, 29490, Control_c, 3, 11, 95
9, 29519, Note_on_c, 3, 60, 0
9, 29519, Note_on_c, 3, 48, 0
9, 29520, Note_on_c, 3, 55, 80
9, 29520, Note_on_c, 3, 67, 80
9, 29520, Control_c, 3, 11, 94
9, 29550, Control_c, 3, 11, 92
9, 29580, Control_c, 3, 11, 90
9, 29610, Control_c, 3, 11, 89
9, 29640, Control_c, 3, 11, 87
9, 29670, Control_c, 3, 11, 85
9, 29700, Control_c, 3, 11, 84
9, 29730, Control_c, 3, 11, 82
9, 29760, Control_c, 3, 11, 80
9, 29790, Control_c, 3, 11, 79
9, 29820, Control_c, 3, 11, 77
9, 29850, Control_c, 3, 11, 75
9, 29879, Note_on_c, 3, 55, 0
9, 29879, Note_on_c, 3, 67, 0
9, 29880, Note_on_c, 3, 55, 80
9, 29880, Control_c, 3, 11, 74
9, 29880, Note_on_c, 3, 43, 80
9, 29910, Control_c, 3, 11, 72
9, 29940, Control_c, 3, 11, 70
9, 29970, Control_c, 3, 11, 69
9, 29998, Control_c, 3, 11, 49
9, 30224, Note_on_c, 3, 55, 0
9, 30224, Note_on_c, 3, 43, 0
9, 30240, Control_c, 3, 11, 49
9, 30240, Note_on_c, 3, 67, 92
9, 30277, Control_c, 3, 11, 50
9, 30314, Control_c, 3, 11, 51
9, 30351, Control_c, 3, 11, 52
9, 30388, Control_c, 3, 11, 53
9, 30425, Control_c, 3, 11, 54
9, 30462, Control_c, 3, 11, 55
9, 30498, Control_c, 3, 11, 56
9, 30535, Control_c, 3, 11, 57
9, 30572, Control_c, 3, 11, 58
9, 30600, Note_on_c, 3, 60, 92
9, 30609, Control_c, 3, 11, 59
9, 30646, Control_c, 3, 11, 60
9, 30683, Control_c, 3, 11, 61
9, 30720, Control_c, 3, 11, 62
9, 30757, Control_c, 3, 11, 63
9, 30794, Control_c, 3, 11, 64
9, 30831, Control_c, 3, 11, 65
9, 30868, Control_c, 3, 11, 66
9, 30905, Control_c, 3, 11, 67
9, 30942, Control_c, 3, 11, 68
9, 30959, Note_on_c, 3, 60, 0
9, 30960, Note_on_c, 3, 53, 92
9, 30978, Control_c, 3, 11, 69
9, 31015, Control_c, 3, 11, 70
9, 31052, Control_c, 3, 11, 71
9, 31089, Control_c, 3, 11, 72
9, 31126, Control_c, 3, 11, 73
9, 31163, Control_c, 3, 11, 74
9, 31200, Control_c, 3, 11, 75
9, 31237, Control_c, 3, 11, 76
9, 31274, Control_c, 3, 11, 77
9, 31311, Control_c, 3, 11, 78
9, 31319, Note_on_c, 3, 67, 0
9, 31319, Note_on_c, 3, 53, 0
9, 31320, Note_on_c, 3, 65, 92
9, 31320, Note_on_c, 3, 50, 92
9, 31348, Control_c, 3, 11, 79
9, 31385, Control_c, 3, 11, 80
9, 31422, Control_c, 3, 11, 81
9, 31458, Control_c, 3, 11, 82
9, 31495, Control_c, 3, 11, 83
9, 31532, Control_c, 3, 11, 84
9, 31569, Control_c, 3, 11, 85
9, 31606, Control_c, 3, 11, 86
9, 31643, Control_c, 3, 11, 87
9, 31679, Note_on_c, 3, 50, 0
9, 31680, Control_c, 3, 11, 88
9, 31680, Note_on_c, 3, 55, 92
9, 31717, Control_c, 3, 11, 89
9, 31754, Control_c, 3, 11, 90
9, 31791, Control_c, 3, 11, 91
9, 31828, Control_c, 3, 11, 92
9, 31865, Control_c, 3, 11, 93
9, 31902, Control_c, 3, 11, 94
9, 31938, Control_c, 3, 11, 95
9, 31975, Control_c, 3, 11, 96
9, 32012, Control_c, 3, 11, 97
9, 32039, Note_on_c, 3, 65, 0
9, 32039, Note_on_c, 3, 55, 0
9, 32040, Note_on_c, 3, 64, 92
9, 32040, Note_on_c, 3, 60, 92
9, 32049, Control_c, 3, 11, 98
9, 32086, Control_c, 3, 11, 99
9, 32123, Control_c, 3, 11, 100
9, 32160, Control_c, 3, 11, 101
9, 32197, Control_c, 3, 11, 102
9, 32234, Control_c, 3, 11, 103
9, 32271, Control_c, 3, 11, 104
9, 32308, Control_c, 3, 11, 105
9, 32345, Control_c, 3, 11, 106
9, 32382, Control_c, 3, 11, 107
9, 32399, Note_on_c, 3, 64, 0
9, 32399, Note_on_c, 3, 60, 0
9, 32400, Note_on_c, 3, 63, 92
9, 32400, Note_on_c, 3, 55, 92
9, 32418, Control_c, 3, 11, 108
9, 32455, Control_c, 3, 11, 109
9, 32492, Control_c, 3, 11, 110
9, 32529, Control_c, 3, 11, 111
9, 32566, Control_c, 3, 11, 112
9, 32603, Control_c, 3, 11, 113
9, 32640, Control_c, 3, 11, 114
9, 32677, Control_c, 3, 11, 115
9, 32714, Control_c, 3, 11, 116
9, 32751, Control_c, 3, 11, 117
9, 32759, Note_on_c, 3, 63, 0
9, 32759, Note_on_c, 3, 55, 0
9, 32760, Note_on_c, 3, 43, 92
9, 32760, Note_on_c, 3, 67, 92
9, 32788, Control_c, 3, 11, 118
9, 32825, Control_c, 3, 11, 119
9, 32862, Control_c, 3, 11, 120
9, 32898, Control_c, 3, 11, 121
9, 32935, Control_c, 3, 11, 122
9, 32972, Control_c, 3, 11, 123
9, 33009, Control_c, 3, 11, 124
9, 33046, Control_c, 3, 11, 125
9, 33083, Control_c, 3, 11, 127
9, 33104, Note_on_c, 3, 43, 0
9, 33104, Note_on_c, 3, 67, 0
9, 33120, Note_on_c, 3, 60, 92
9, 33120, Note_on_c, 3, 48, 92
9, 33239, Note_on_c, 3, 48, 0
9, 33240, Note_on_c, 3, 52, 92
9, 33359, Note_on_c, 3, 60, 0
9, 33359, Note_on_c, 3, 52, 0
9, 33360, Note_on_c, 3, 62, 92
9, 33360, Note_on_c, 3, 53, 92
9, 33419, Note_on_c, 3, 62, 0
9, 33419, Note_on_c, 3, 53, 0
9, 33420, Note_on_c, 3, 64, 92
9, 33420, Note_on_c, 3, 55, 92
9, 33464, Note_on_c, 3, 64, 0
9, 33464, Note_on_c, 3, 55, 0
9, 33480, Note_on_c, 3, 65, 92
9, 33480, Note_on_c, 3, 57, 92
9, 33599, Note_on_c, 3, 65, 0
9, 33599, Note_on_c, 3, 57, 0
9, 33720, Note_on_c, 3, 55, 92
9, 33720, Note_on_c, 3, 64, 92
9, 33809, Note_on_c, 3, 55, 0
9, 33809, Note_on_c, 3, 64, 0
9, 33840, Note_on_c, 3, 53, 92
9, 33840, Note_on_c, 3, 62, 92
9, 33929, Note_on_c, 3, 53, 0
9, 33929, Note_on_c, 3, 62, 0
9, 34080, Note_on_c, 3, 52, 92
9, 34080, Note_on_c, 3, 60, 92
9, 34169, Note_on_c, 3, 52, 0
9, 34169, Note_on_c, 3, 60, 0
9, 34200, Note_on_c, 3, 62, 92
9, 34200, Note_on_c, 3, 53, 92
9, 34289, Note_on_c, 3, 62, 0
9, 34289, Note_on_c, 3, 53, 0
9, 34440, Note_on_c, 3, 59, 92
9, 34440, Note_on_c, 3, 50, 92
9, 34529, Note_on_c, 3, 59, 0
9, 34529, Note_on_c, 3, 50, 0
9, 34560, Note_on_c, 3, 64, 92
9, 34560, Note_on_c, 3, 60, 92
9, 34679, Note_on_c, 3, 64, 0
9, 34679, Note_on_c, 3, 60, 0
9, 34680, Note_on_c, 3, 48, 92
9, 34680, Note_on_c, 3, 52, 92
9, 34799, Note_on_c, 3, 48, 0
9, 34799, Note_on_c, 3, 52, 0
9, 34800, Note_on_c, 3, 53, 92
9, 34800, Note_on_c, 3, 50, 92
9, 34859, Note_on_c, 3, 53, 0
9, 34859, Note_on_c, 3, 50, 0
9, 34860, Note_on_c, 3, 52, 92
9, 34860, Note_on_c, 3, 55, 92
9, 34904, Note_on_c, 3, 52, 0
9, 34904, Note_on_c, 3, 55, 0
9, 34920, Note_on_c, 3, 57, 92
9, 34920, Note_on_c, 3, 53, 92
9, 35009, Note_on_c, 3, 57, 0
9, 35009, Note_on_c, 3, 53, 0
9, 35160, Note_on_c, 3, 52, 92
9, 35160, Note_on_c, 3, 55, 92
9, 35249, Note_on_c, 3, 52, 0
9, 35249, Note_on_c, 3, 55, 0
9, 35280, Note_on_c, 3, 53, 92
9, 35280, Note_on_c, 3, 50, 92
9, 35369, Note_on_c, 3, 53, 0
9, 35369, Note_on_c, 3, 50, 0
9, 35520, Note_on_c, 3, 52, 92
9, 35520, Note_on_c, 3, 48, 92
9, 35609, Note_on_c, 3, 52, 0
9, 35609, Note_on_c, 3, 48, 0
9, 35640, Note_on_c, 3, 50, 92
9, 35640, Note_on_c, 3, 53, 92
9, 35729, Note_on_c, 3, 50, 0
9, 35729, Note_on_c, 3, 53, 0
9, 35880, Note_on_c, 3, 59, 92
9, 35880, Note_on_c, 3, 50, 92
9, 35969, Note_on_c, 3, 59, 0
9, 35969, Note_on_c, 3, 50, 0
9, 36000, Note_on_c, 3, 60, 92
9, 36000, Note_on_c, 3, 48, 92
9, 36089, Note_on_c, 3, 60, 0
9, 36089, Note_on_c, 3, 48, 0
9, 36120, Note_on_c, 3, 60, 92
9, 36120, Note_on_c, 3, 52, 92
9, 36239, Note_on_c, 3, 60, 0
9, 36239, Note_on_c, 3, 52, 0
9, 36240, Note_on_c, 3, 62, 92
9, 36240, Note_on_c, 3, 53, 92
9, 36299, Note_on_c, 3, 62, 0
9, 36299, Note_on_c, 3, 53, 0
9, 36300, Note_on_c, 3, 55, 92
9, 36300, Note_on_c, 3, 64, 92
9, 36344, Note_on_c, 3, 55, 0
9, 36344, Note_on_c, 3, 64, 0
9, 36360, Note_on_c, 3, 57, 92
9, 36360, Note_on_c, 3, 65, 92
9, 36449, Note_on_c, 3, 57, 0
9, 36449, Note_on_c, 3, 65, 0
9, 36480, Note_on_c, 3, 57, 92
9, 36480, Note_on_c, 3, 65, 92
9, 36569, Note_on_c, 3, 57, 0
9, 36569, Note_on_c, 3, 65, 0
9, 36600, Note_on_c, 3, 64, 92
9, 36600, Note_on_c, 3, 55, 92
9, 36689, Note_on_c, 3, 64, 0
9, 36689, Note_on_c, 3, 55, 0
9, 36720, Note_on_c, 3, 62, 92
9, 36720, Note_on_c, 3, 53, 92
9, 36809, Note_on_c, 3, 62, 0
9, 36809, Note_on_c, 3, 53, 0
9, 36840, Note_on_c, 3, 62, 92
9, 36840, Note_on_c, 3, 53, 92
9, 36929, Note_on_c, 3, 62, 0
9, 36929, Note_on_c, 3, 53, 0
9, 36960, Note_on_c, 3, 60, 92
9, 36960, Note_on_c, 3, 52, 92
9, 37049, Note_on_c, 3, 60, 0
9, 37049, Note_on_c, 3, 52, 0
9, 37080, Note_on_c, 3, 62, 92
9, 37080, Note_on_c, 3, 53, 92
9, 37169, Note_on_c, 3, 62, 0
9, 37169, Note_on_c, 3, 53, 0
9, 37200, Note_on_c, 3, 53, 92
9, 37200, Note_on_c, 3, 62, 92
9, 37289, Note_on_c, 3, 53, 0
9, 37289, Note_on_c, 3, 62, 0
9, 37320, Note_on_c, 3, 59, 92
9, 37320, Note_on_c, 3, 50, 92
9, 37409, Note_on_c, 3, 59, 0
9, 37409, Note_on_c, 3, 50, 0
9, 37440, Note_on_c, 3, 52, 92
9, 37440, Note_on_c, 3, 48, 92
9, 37529, Note_on_c, 3, 52, 0
9, 37529, Note_on_c, 3, 48, 0
9, 37560, Note_on_c, 3, 52, 92
9, 37560, Note_on_c, 3, 48, 92
9, 37679, Note_on_c, 3, 52, 0
9, 37679, Note_on_c, 3, 48, 0
9, 37680, Note_on_c, 3, 50, 92
9, 37680, Note_on_c, 3, 53, 92
9, 37739, Note_on_c, 3, 50, 0
9, 37739, Note_on_c, 3, 53, 0
9, 37740, Note_on_c, 3, 55, 92
9, 37740, Note_on_c, 3, 52, 92
9, 37784, Note_on_c, 3, 55, 0
9, 37784, Note_on_c, 3, 52, 0
9, 37800, Note_on_c, 3, 53, 92
9, 37800, Note_on_c, 3, 57, 92
9, 37889, Note_on_c, 3, 53, 0
9, 37889, Note_on_c, 3, 57, 0
9, 37920, Note_on_c, 3, 57, 92
9, 37920, Note_on_c, 3, 53, 92
9, 38009, Note_on_c, 3, 57, 0
9, 38009, Note_on_c, 3, 53, 0
9, 38040, Note_on_c, 3, 52, 92
9, 38040, Note_on_c, 3, 55, 92
9, 38129, Note_on_c, 3, 52, 0
9, 38129, Note_on_c, 3, 55, 0
9, 38160, Note_on_c, 3, 53, 92
9, 38160, Note_on_c, 3, 50, 92
9, 38249, Note_on_c, 3, 53, 0
9, 38249, Note_on_c, 3, 50, 0
9, 38280, Note_on_c, 3, 50, 92
9, 38280, Note_on_c, 3, 53, 92
9, 38369, Note_on_c, 3, 50, 0
9, 38369, Note_on_c, 3, 53, 0
9, 38400, Note_on_c, 3, 48, 92
9, 38400, Note_on_c, 3, 52, 92
9, 38489, Note_on_c, 3, 48, 0
9, 38489, Note_on_c, 3, 52, 0
9, 38520, Note_on_c, 3, 53, 92
9, 38520, Note_on_c, 3, 50, 92
9, 38609, Note_on_c, 3, 53, 0
9, 38609, Note_on_c, 3, 50, 0
9, 38640, Note_on_c, 3, 50, 92
9, 38640, Note_on_c, 3, 53, 92
9, 38729, Note_on_c, 3, 50, 0
9, 38729, Note_on_c, 3, 53, 0
9, 38760, Note_on_c, 3, 59, 92
9, 38760, Note_on_c, 3, 50, 92
9, 38849, Note_on_c, 3, 59, 0
9, 38849, Note_on_c, 3, 50, 0
9, 38880, Note_on_c, 3, 60, 92
9, 38880, Note_on_c, 3, 48, 92
9, 39044, Note_on_c, 3, 60, 0
9, 39044, Note_on_c, 3, 48, 0
9, 39060, Note_on_c, 3, 48, 92
9, 39060, Note_on_c, 3, 36, 92
9, 39104, Note_on_c, 3, 48, 0
9, 39104, Note_on_c, 3, 36, 0
9, 39120, Note_on_c, 3, 36, 92
9, 39120, Note_on_c, 3, 48, 92
9, 39224, Note_on_c, 3, 36, 0
9, 39224, Note_on_c, 3, 48, 0
9, 39240, Note_on_c, 3, 48, 92
9, 39240, Note_on_c, 3, 60, 92
9, 39329, Note_on_c, 3, 48, 0
9, 39329, Note_on_c, 3, 60, 0
9, 39360, Note_on_c, 3, 62, 92
9, 39360, Note_on_c, 3, 50, 92
9, 39449, Note_on_c, 3, 62, 0
9, 39449, Note_on_c, 3, 50, 0
9, 39480, Note_on_c, 3, 64, 92
9, 39480, Note_on_c, 3, 52, 92
9, 39569, Note_on_c, 3, 64, 0
9, 39569, Note_on_c, 3, 52, 0
9, 39600, Note_on_c, 3, 65, 92
9, 39600, Note_on_c, 3, 53, 92
9, 39719, Note_on_c, 3, 65, 0
9, 39719, Note_on_c, 3, 53, 0
9, 40320, Note_on_c, 3, 47, 92
9, 40320, Note_on_c, 3, 59, 92
9, 40484, Note_on_c, 3, 47, 0
9, 40484, Note_on_c, 3, 59, 0
9, 40500, Note_on_c, 3, 35, 92
9, 40500, Note_on_c, 3, 47, 92
9, 40544, Note_on_c, 3, 35, 0
9, 40544, Note_on_c, 3, 47, 0
9, 40560, Note_on_c, 3, 35, 92
9, 40560, Note_on_c, 3, 47, 92
9, 40664, Note_on_c, 3, 35, 0
9, 40664, Note_on_c, 3, 47, 0
9, 40680, Note_on_c, 3, 59, 92
9, 40680, Note_on_c, 3, 47, 92
9, 40769, Note_on_c, 3, 59, 0
9, 40769, Note_on_c, 3, 47, 0
9, 40800, Note_on_c, 3, 48, 92
9, 40800, Note_on_c, 3, 60, 92
9, 40889, Note_on_c, 3, 48, 0
9, 40889, Note_on_c, 3, 60, 0
9, 40920, Note_on_c, 3, 62, 92
9, 40920, Note_on_c, 3, 50, 92
9, 41009, Note_on_c, 3, 62, 0
9, 41009, Note_on_c, 3, 50, 0
9, 41040, Note_on_c, 3, 64, 92
9, 41040, Note_on_c, 3, 52, 92
9, 41159, Note_on_c, 3, 64, 0
9, 41159, Note_on_c, 3, 52, 0
9, 41400, Control_c, 3, 11, 87
9, 41760, Note_on_c, 3, 48, 68
9, 42480, Control_c, 3, 11, 87
9, 42510, Control_c, 3, 11, 89
9, 42540, Control_c, 3, 11, 90
9, 42570, Control_c, 3, 11, 92
9, 42600, Control_c, 3, 11, 94
9, 42630, Control_c, 3, 11, 95
9, 42660, Control_c, 3, 11, 97
9, 42690, Control_c, 3, 11, 99
9, 42720, Control_c, 3, 11, 100
9, 42750, Control_c, 3, 11, 102
9, 42780, Control_c, 3, 11, 104
9, 42810, Control_c, 3, 11, 105
9, 42840, Control_c, 3, 11, 107
9, 42870, Control_c, 3, 11, 109
9, 42900, Control_c, 3, 11, 110
9, 42930, Control_c, 3, 11, 112
9, 42960, Control_c, 3, 11, 114
9, 42990, Control_c, 3, 11, 115
9, 43020, Control_c, 3, 11, 117
9, 43050, Control_c, 3, 11, 119
9, 43080, Control_c, 3, 11, 120
9, 43110, Control_c, 3, 11, 122
9, 43140, Control_c, 3, 11, 124
9, 43170, Control_c, 3, 11, 125
9, 43200, Control_c, 3, 11, 127
9, 43230, Control_c, 3, 11, 125
9, 43260, Control_c, 3, 11, 124
9, 43290, Control_c, 3, 11, 122
9, 43320, Control_c, 3, 11, 120
9, 43350, Control_c, 3, 11, 119
9, 43380, Control_c, 3, 11, 117
9, 43410, Control_c, 3, 11, 115
9, 43440, Control_c, 3, 11, 114
9, 43470, Control_c, 3, 11, 112
9, 43500, Control_c, 3, 11, 110
9, 43530, Control_c, 3, 11, 109
9, 43560, Control_c, 3, 11, 107
9, 43590, Control_c, 3, 11, 105
9, 43620, Control_c, 3, 11, 104
9, 43650, Control_c, 3, 11, 102
9, 43680, Control_c, 3, 11, 100
9, 43710, Control_c, 3, 11, 99
9, 43740, Control_c, 3, 11, 97
9, 43770, Control_c, 3, 11, 95
9, 43800, Control_c, 3, 11, 94
9, 43830, Control_c, 3, 11, 92
9, 43860, Control_c, 3, 11, 90
9, 43890, Control_c, 3, 11, 89
9, 43904, Note_on_c, 3, 48, 0
9, 43918, Control_c, 3, 11, 67
9, 43920, Note_on_c, 3, 55, 80
9, 43920, Control_c, 3, 11, 67
9, 43920, Note_on_c, 3, 46, 80
9, 43950, Control_c, 3, 11, 68
9, 43980, Control_c, 3, 11, 70
9, 44010, Control_c, 3, 11, 71
9, 44039, Note_on_c, 3, 55, 0
9, 44040, Control_c, 3, 11, 72
9, 44040, Note_on_c, 3, 48, 80
9, 44070, Control_c, 3, 11, 73
9, 44100, Control_c, 3, 11, 75
9, 44130, Control_c, 3, 11, 76
9, 44159, Note_on_c, 3, 48, 0
9, 44160, Note_on_c, 3, 50, 80
9, 44160, Control_c, 3, 11, 77
9, 44190, Control_c, 3, 11, 78
9, 44220, Control_c, 3, 11, 80
9, 44250, Control_c, 3, 11, 81
9, 44279, Note_on_c, 3, 50, 0
9, 44280, Control_c, 3, 11, 82
9, 44280, Note_on_c, 3, 52, 80
9, 44310, Control_c, 3, 11, 83
9, 44340, Control_c, 3, 11, 85
9, 44370, Control_c, 3, 11, 86
9, 44399, Note_on_c, 3, 46, 0
9, 44399, Note_on_c, 3, 52, 0
9, 44400, Note_on_c, 3, 45, 80
9, 44400, Note_on_c, 3, 53, 80
9, 44400, Control_c, 3, 11, 87
9, 44430, Control_c, 3, 11, 88
9, 44460, Control_c, 3, 11, 90
9, 44490, Control_c, 3, 11, 91
9, 44519, Note_on_c, 3, 45, 0
9, 44519, Note_on_c, 3, 53, 0
9, 44520, Control_c, 3, 11, 92
9, 44520, Note_on_c, 3, 55, 80
9, 44520, Note_on_c, 3, 43, 80
9, 44550, Control_c, 3, 11, 93
9, 44580, Control_c, 3, 11, 95
9, 44610, Control_c, 3, 11, 96
9, 44639, Note_on_c, 3, 55, 0
9, 44639, Note_on_c, 3, 43, 0
9, 44640, Note_on_c, 3, 45, 80
9, 44640, Note_on_c, 3, 54, 80
9, 44640, Control_c, 3, 11, 97
9, 44670, Control_c, 3, 11, 98
9, 44700, Control_c, 3, 11, 100
9, 44730, Control_c, 3, 11, 101
9, 44759, Note_on_c, 3, 45, 0
9, 44759, Note_on_c, 3, 54, 0
9, 44760, Note_on_c, 3, 43, 80
9, 44760, Control_c, 3, 11, 102
9, 44760, Note_on_c, 3, 55, 80
9, 44790, Control_c, 3, 11, 103
9, 44820, Control_c, 3, 11, 105
9, 44850, Control_c, 3, 11, 106
9, 44879, Note_on_c, 3, 43, 0
9, 44879, Note_on_c, 3, 55, 0
9, 44880, Note_on_c, 3, 57, 80
9, 44880, Control_c, 3, 11, 107
9, 44880, Note_on_c, 3, 42, 80
9, 44910, Control_c, 3, 11, 108
9, 44940, Control_c, 3, 11, 110
9, 44970, Control_c, 3, 11, 111
9, 44999, Note_on_c, 3, 57, 0
9, 44999, Note_on_c, 3, 42, 0
9, 45000, Note_on_c, 3, 55, 80
9, 45000, Note_on_c, 3, 43, 80
9, 45000, Control_c, 3, 11, 112
9, 45030, Control_c, 3, 11, 113
9, 45060, Control_c, 3, 11, 115
9, 45090, Control_c, 3, 11, 116
9, 45119, Note_on_c, 3, 55, 0
9, 45119, Note_on_c, 3, 43, 0
9, 45120, Note_on_c, 3, 53, 80
9, 45120, Control_c, 3, 11, 117
9, 45120, Note_on_c, 3, 41, 80
9, 45150, Control_c, 3, 11, 118
9, 45180, Control_c, 3, 11, 120
9, 45210, Control_c, 3, 11, 121
9, 45239, Note_on_c, 3, 53, 0
9, 45239, Note_on_c, 3, 41, 0
9, 45240, Note_on_c, 3, 52, 80
9, 45240, Control_c, 3, 11, 122
9, 45240, Note_on_c, 3, 40, 80
9, 45270, Control_c, 3, 11, 123
9, 45300, Control_c, 3, 11, 125
9, 45330, Control_c, 3, 11, 127
9, 45344, Note_on_c, 3, 52, 0
9, 45344, Note_on_c, 3, 40, 0
9, 45360, Note_on_c, 3, 52, 80
9, 45360, Note_on_c, 3, 40, 80
9, 45449, Note_on_c, 3, 52, 0
9, 45449, Note_on_c, 3, 40, 0
9, 45480, Note_on_c, 3, 36, 80
9, 45480, Note_on_c, 3, 48, 80
9, 45569, Note_on_c, 3, 36, 0
9, 45569, Note_on_c, 3, 48, 0
9, 45600, Note_on_c, 3, 53, 80
9, 45600, Note_on_c, 3, 41, 80
9, 45689, Note_on_c, 3, 53, 0
9, 45689, Note_on_c, 3, 41, 0
9, 45720, Note_on_c, 3, 38, 80
9, 45720, Note_on_c, 3, 50, 80
9, 45809, Note_on_c, 3, 38, 0
9, 45809, Note_on_c, 3, 50, 0
9, 45840, Note_on_c, 3, 47, 80
9, 45840, Note_on_c, 3, 59, 80
9, 45929, Note_on_c, 3, 47, 0
9, 45929, Note_on_c, 3, 59, 0
9, 45960, Note_on_c, 3, 43, 80
9, 45960, Note_on_c, 3, 55, 80
9, 46049, Note_on_c, 3, 43, 0
9, 46049, Note_on_c, 3, 55, 0
9, 46080, Note_on_c, 3, 43, 80
9, 46080, Note_on_c, 3, 55, 80
9, 46199, Note_on_c, 3, 43, 0
9, 46199, Note_on_c, 3, 55, 0
9, 46800, Note_on_c, 3, 36, 80
9, 46800, Note_on_c, 3, 48, 80
9, 46889, Note_on_c, 3, 36, 0
9, 46889, Note_on_c, 3, 48, 0
9, 46920, Note_on_c, 3, 36, 80
9, 46920, Note_on_c, 3, 48, 80
9, 47009, Note_on_c, 3, 36, 0
9, 47009, Note_on_c, 3, 48, 0
9, 47040, Note_on_c, 3, 41, 80
9, 47040, Note_on_c, 3, 53, 80
9, 47129, Note_on_c, 3, 41, 0
9, 47129, Note_on_c, 3, 53, 0
9, 47160, Note_on_c, 3, 50, 80
9, 47160, Note_on_c, 3, 38, 80
9, 47249, Note_on_c, 3, 50, 0
9, 47249, Note_on_c, 3, 38, 0
9, 47280, Note_on_c, 3, 59, 80
9, 47280, Note_on_c, 3, 47, 80
9, 47369, Note_on_c, 3, 59, 0
9, 47369, Note_on_c, 3, 47, 0
9, 47400, Note_on_c, 3, 43, 80
9, 47400, Note_on_c, 3, 55, 80
9, 47489, Note_on_c, 3, 43, 0
9, 47489, Note_on_c, 3, 55, 0
9, 47520, Note_on_c, 3, 43, 80
9, 47520, Note_on_c, 3, 55, 80
9, 47609, Note_on_c, 3, 43, 0
9, 47609, Note_on_c, 3, 55, 0
9, 47640, Note_on_c, 3, 67, 80
9, 47640, Note_on_c, 3, 55, 80
9, 47729, Note_on_c, 3, 67, 0
9, 47729, Note_on_c, 3, 55, 0
9, 47760, Note_on_c, 3, 67, 80
9, 47760, Note_on_c, 3, 55, 80
9, 47849, Note_on_c, 3, 67, 0
9, 47849, Note_on_c, 3, 55, 0
9, 47880, Note_on_c, 3, 67, 80
9, 47880, Note_on_c, 3, 55, 80
9, 47969, Note_on_c, 3, 67, 0
9, 47969, Note_on_c, 3, 55, 0
9, 48000, Note_on_c, 3, 67, 80
9, 48000, Note_on_c, 3, 55, 80
9, 48089, Note_on_c, 3, 67, 0
9, 48089, Note_on_c, 3, 55, 0
9, 48120, Note_on_c, 3, 55, 80
9, 48120, Note_on_c, 3, 67, 80
9, 48209, Note_on_c, 3, 55, 0
9, 48209, Note_on_c, 3, 67, 0
9, 48240, Note_on_c, 3, 64, 80
9, 48240, Note_on_c, 3, 60, 80
9, 48329, Note_on_c, 3, 64, 0
9, 48329, Note_on_c, 3, 60, 0
9, 48360, Note_on_c, 3, 67, 80
9, 48360, Note_on_c, 3, 64, 80
9, 48449, Note_on_c, 3, 67, 0
9, 48449, Note_on_c, 3, 64, 0
9, 48480, Note_on_c, 3, 64, 80
9, 48480, Note_on_c, 3, 60, 80
9, 48569, Note_on_c, 3, 64, 0
9, 48569, Note_on_c, 3, 60, 0
9, 48600, Note_on_c, 3, 62, 80
9, 48600, Note_on_c, 3, 59, 80
9, 48689, Note_on_c, 3, 62, 0
9, 48689, Note_on_c, 3, 59, 0
9, 48720, Note_on_c, 3, 65, 80
9, 48720, Note_on_c, 3, 62, 80
9, 48809, Note_on_c, 3, 65, 0
9, 48809, Note_on_c, 3, 62, 0
9, 48840, Note_on_c, 3, 62, 80
9, 48840, Note_on_c, 3, 59, 80
9, 48929, Note_on_c, 3, 62, 0
9, 48929, Note_on_c, 3, 59, 0
9, 48960, Note_on_c, 3, 64, 80
9, 48960, Note_on_c, 3, 60, 80
9, 49049, Note_on_c, 3, 64, 0
9, 49049, Note_on_c, 3, 60, 0
9, 49080, Note_on_c, 3, 67, 80
9, 49080, Note_on_c, 3, 64, 80
9, 49169, Note_on_c, 3, 67, 0
9, 49169, Note_on_c, 3, 64, 0
9, 49200, Note_on_c, 3, 64, 80
9, 49200, Note_on_c, 3, 60, 80
9, 49289, Note_on_c, 3, 64, 0
9, 49289, Note_on_c, 3, 60, 0
9, 49320, Note_on_c, 3, 59, 80
9, 49320, Note_on_c, 3, 62, 80
9, 49409, Note_on_c, 3, 59, 0
9, 49409, Note_on_c, 3, 62, 0
9, 49440, Note_on_c, 3, 62, 80
9, 49440, Note_on_c, 3, 65, 80
9, 49529, Note_on_c, 3, 62, 0
9, 49529, Note_on_c, 3, 65, 0
9, 49560, Note_on_c, 3, 62, 80
9, 49560, Note_on_c, 3, 59, 80
9, 49649, Note_on_c, 3, 62, 0
9, 49649, Note_on_c, 3, 59, 0
9, 49680, Note_on_c, 3, 43, 32
9, 49799, Note_on_c, 3, 43, 0
9, 49800, Note_on_c, 3, 45, 32
9, 49919, Note_on_c, 3, 45, 0
9, 49920, Note_on_c, 3, 47, 32
9, 50039, Note_on_c, 3, 47, 0
9, 50040, Note_on_c, 3, 48, 32
9, 50159, Note_on_c, 3, 48, 0
9, 50160, Note_on_c, 3, 50, 32
9, 50279, Note_on_c, 3, 50, 0
9, 50280, Note_on_c, 3, 52, 32
9, 50399, Note_on_c, 3, 52, 0
9, 50400, Note_on_c, 3, 53, 32
9, 50519, Note_on_c, 3, 53, 0
9, 50520, Note_on_c, 3, 52, 32
9, 50639, Note_on_c, 3, 52, 0
9, 50640, Note_on_c, 3, 53, 32
9, 50759, Note_on_c, 3, 53, 0
9, 50760, Note_on_c, 3, 55, 32
9, 50879, Note_on_c, 3, 55, 0
9, 50880, Note_on_c, 3, 57, 32
9, 50999, Note_on_c, 3, 57, 0
9, 51000, Note_on_c, 3, 59, 32
9, 51119, Note_on_c, 3, 59, 0
9, 51120, Note_on_c, 3, 60, 32
9, 51239, Note_on_c, 3, 60, 0
9, 51480, Note_on_c, 3, 45, 32
9, 51644, Note_on_c, 3, 45, 0
9, 51660, Note_on_c, 3, 57, 32
9, 51704, Note_on_c, 3, 57, 0
9, 51720, Note_on_c, 3, 57, 32
9, 51824, Note_on_c, 3, 57, 0
9, 51840, Note_on_c, 3, 53, 32
9, 51959, Note_on_c, 3, 53, 0
9, 52200, Note_on_c, 3, 50, 32
9, 52200, Note_on_c, 3, 53, 32
9, 52364, Note_on_c, 3, 50, 0
9, 52364, Note_on_c, 3, 53, 0
9, 52380, Note_on_c, 3, 62, 32
9, 52380, Note_on_c, 3, 65, 32
9, 52424, Note_on_c, 3, 62, 0
9, 52424, Note_on_c, 3, 65, 0
9, 52440, Note_on_c, 3, 65, 32
9, 52440, Note_on_c, 3, 62, 32
9, 52544, Note_on_c, 3, 65, 0
9, 52544, Note_on_c, 3, 62, 0
9, 52560, Note_on_c, 3, 65, 32
9, 52560, Note_on_c, 3, 62, 32
9, 52679, Note_on_c, 3, 65, 0
9, 52679, Note_on_c, 3, 62, 0
9, 56880, Note_on_c, 3, 69, 32
9, 56999, Note_on_c, 3, 69, 0
9, 57240, Note_on_c, 3, 62, 32
9, 57359, Note_on_c, 3, 62, 0
9, 57600, Note_on_c, 3, 64, 32
9, 57719, Note_on_c, 3, 64, 0
9, 57960, Note_on_c, 3, 65, 32
9, 58079, Note_on_c, 3, 65, 0
9, 58320, Note_on_c, 3, 65, 32
9, 58439, Note_on_c, 3, 65, 0
9, 58680, Note_on_c, 3, 60, 32
9, 58799, Note_on_c, 3, 60, 0
9, 59040, Note_on_c, 3, 56, 32
9, 59159, Note_on_c, 3, 56, 0
9, 59400, Note_on_c, 3, 57, 32
9, 59519, Note_on_c, 3, 57, 0
9, 59760, Note_on_c, 3, 57, 32
9, 59760, Note_on_c, 3, 45, 32
9, 59879, Note_on_c, 3, 57, 0
9, 59879, Note_on_c, 3, 45, 0
9, 60120, Note_on_c, 3, 38, 32
9, 60120, Note_on_c, 3, 50, 32
9, 60239, Note_on_c, 3, 38, 0
9, 60239, Note_on_c, 3, 50, 0
9, 60480, Note_on_c, 3, 40, 32
9, 60480, Note_on_c, 3, 52, 32
9, 60599, Note_on_c, 3, 40, 0
9, 60599, Note_on_c, 3, 52, 0
9, 60840, Note_on_c, 3, 41, 32
9, 60840, Note_on_c, 3, 53, 32
9, 60959, Note_on_c, 3, 41, 0
9, 60959, Note_on_c, 3, 53, 0
9, 61200, Note_on_c, 3, 53, 32
9, 61200, Note_on_c, 3, 41, 32
9, 61319, Note_on_c, 3, 53, 0
9, 61319, Note_on_c, 3, 41, 0
9, 61560, Note_on_c, 3, 48, 32
9, 61560, Note_on_c, 3, 36, 32
9, 61679, Note_on_c, 3, 48, 0
9, 61679, Note_on_c, 3, 36, 0
9, 61920, Note_on_c, 3, 44, 32
9, 62039, Note_on_c, 3, 44, 0
9, 62280, Note_on_c, 3, 45, 32
9, 62399, Note_on_c, 3, 45, 0
9, 62640, Note_on_c, 3, 58, 32
9, 62640, Note_on_c, 3, 55, 32
9, 62759, Note_on_c, 3, 58, 0
9, 62759, Note_on_c, 3, 55, 0
9, 63000, Note_on_c, 3, 53, 32
9, 63000, Note_on_c, 3, 57, 32
9, 63119, Note_on_c, 3, 53, 0
9, 63119, Note_on_c, 3, 57, 0
9, 63360, Note_on_c, 3, 52, 32
9, 63360, Note_on_c, 3, 49, 32
9, 63479, Note_on_c, 3, 52, 0
9, 63479, Note_on_c, 3, 49, 0
9, 63720, Note_on_c, 3, 53, 32
9, 63720, Note_on_c, 3, 50, 32
9, 63839, Note_on_c, 3, 53, 0
9, 63839, Note_on_c, 3, 50, 0
9, 64080, Note_on_c, 3, 53, 32
9, 64080, Note_on_c, 3, 45, 32
9, 64199, Note_on_c, 3, 53, 0
9, 64199, Note_on_c, 3, 45, 0
9, 64440, Note_on_c, 3, 57, 32
9, 64440, Note_on_c, 3, 52, 32
9, 64559, Note_on_c, 3, 57, 0
9, 64559, Note_on_c, 3, 52, 0
9, 64800, Note_on_c, 3, 53, 32
9, 64800, Note_on_c, 3, 50, 32
9, 64919, Note_on_c, 3, 53, 0
9, 64919, Note_on_c, 3, 50, 0
9, 65160, Note_on_c, 3, 45, 32
9, 65160, Note_on_c, 3, 52, 32
9, 65279, Note_on_c, 3, 45, 0
9, 65279, Note_on_c, 3, 52, 0
9, 65520, Note_on_c, 3, 52, 32
9, 65520, Note_on_c, 3, 55, 32
9, 65639, Note_on_c, 3, 52, 0
9, 65639, Note_on_c, 3, 55, 0
9, 65880, Note_on_c, 3, 53, 32
9, 65880, Note_on_c, 3, 50, 32
9, 65999, Note_on_c, 3, 53, 0
9, 65999, Note_on_c, 3, 50, 0
9, 66240, Note_on_c, 3, 52, 32
9, 66240, Note_on_c, 3, 45, 32
9, 66359, Note_on_c, 3, 52, 0
9, 66359, Note_on_c, 3, 45, 0
9, 66600, Note_on_c, 3, 57, 32
9, 66600, Note_on_c, 3, 45, 32
9, 66719, Note_on_c, 3, 57, 0
9, 66719, Note_on_c, 3, 45, 0
9, 67200, Note_on_c, 3, 55, 32
9, 67200, Note_on_c, 3, 52, 32
9, 67319, Note_on_c, 3, 55, 0
9, 67319, Note_on_c, 3, 52, 0
9, 67560, Note_on_c, 3, 57, 37
9, 67560, Note_on_c, 3, 53, 37
9, 67679, Note_on_c, 3, 57, 0
9, 67679, Note_on_c, 3, 53, 0
9, 67920, Note_on_c, 3, 52, 42
9, 67920, Note_on_c, 3, 55, 42
9, 68039, Note_on_c, 3, 52, 0
9, 68039, Note_on_c, 3, 55, 0
9, 68280, Note_on_c, 3, 57, 47
9, 68280, Note_on_c, 3, 53, 47
9, 68399, Note_on_c, 3, 57, 0
9, 68399, Note_on_c, 3, 53, 0
9, 68640, Note_on_c, 3, 55, 53
9, 68640, Note_on_c, 3, 52, 53
9, 68759, Note_on_c, 3, 55, 0
9, 68759, Note_on_c, 3, 52, 0
9, 69000, Note_on_c, 3, 53, 58
9, 69000, Note_on_c, 3, 57, 58
9, 69119, Note_on_c, 3, 53, 0
9, 69119, Note_on_c, 3, 57, 0
9, 69360, Note_on_c, 3, 55, 63
9, 69360, Note_on_c, 3, 52, 63
9, 69479, Note_on_c, 3, 55, 0
9, 69479, Note_on_c, 3, 52, 0
9, 69720, Note_on_c, 3, 57, 69
9, 69720, Note_on_c, 3, 53, 69
9, 69839, Note_on_c, 3, 57, 0
9, 69839, Note_on_c, 3, 53, 0
9, 70080, Note_on_c, 3, 52, 74
9, 70080, Note_on_c, 3, 55, 74
9, 70199, Note_on_c, 3, 52, 0
9, 70199, Note_on_c, 3, 55, 0
9, 70440, Note_on_c, 3, 57, 79
9, 70440, Note_on_c, 3, 53, 79
9, 70544, Note_on_c, 3, 57, 0
9, 70544, Note_on_c, 3, 53, 0
9, 70560, Note_on_c, 3, 55, 82
9, 70560, Note_on_c, 3, 57, 82
9, 70649, Note_on_c, 3, 55, 0
9, 70649, Note_on_c, 3, 57, 0
9, 70680, Note_on_c, 3, 53, 83
9, 70680, Note_on_c, 3, 57, 83
9, 70769, Note_on_c, 3, 53, 0
9, 70769, Note_on_c, 3, 57, 0
9, 70800, Note_on_c, 3, 57, 85
9, 70800, Note_on_c, 3, 52, 85
9, 70889, Note_on_c, 3, 57, 0
9, 70889, Note_on_c, 3, 52, 0
9, 70920, Note_on_c, 3, 64, 87
9, 70920, Note_on_c, 3, 55, 87
9, 71009, Note_on_c, 3, 64, 0
9, 71009, Note_on_c, 3, 55, 0
9, 71040, Note_on_c, 3, 62, 88
9, 71040, Note_on_c, 3, 53, 88
9, 71129, Note_on_c, 3, 62, 0
9, 71129, Note_on_c, 3, 53, 0
9, 71160, Note_on_c, 3, 52, 90
9, 71160, Note_on_c, 3, 61, 90
9, 71249, Note_on_c, 3, 52, 0
9, 71249, Note_on_c, 3, 61, 0
9, 71280, Note_on_c, 3, 53, 92
9, 71280, Note_on_c, 3, 57, 92
9, 71384, Note_on_c, 3, 53, 0
9, 71384, Note_on_c, 3, 57, 0
9, 71400, Note_on_c, 3, 62, 92
9, 71400, Note_on_c, 3, 65, 92
9, 71504, Note_on_c, 3, 62, 0
9, 71504, Note_on_c, 3, 65, 0
9, 71520, Note_on_c, 3, 65, 92
9, 71520, Note_on_c, 3, 62, 92
9, 71624, Note_on_c, 3, 65, 0
9, 71624, Note_on_c, 3, 62, 0
9, 71640, Note_on_c, 3, 62, 92
9, 71640, Note_on_c, 3, 65, 92
9, 71744, Note_on_c, 3, 62, 0
9, 71744, Note_on_c, 3, 65, 0
9, 71760, Note_on_c, 3, 62, 92
9, 71760, Note_on_c, 3, 65, 92
9, 71864, Note_on_c, 3, 62, 0
9, 71864, Note_on_c, 3, 65, 0
9, 71880, Note_on_c, 3, 62, 92
9, 71880, Note_on_c, 3, 65, 92
9, 71984, Note_on_c, 3, 62, 0
9, 71984, Note_on_c, 3, 65, 0
9, 72000, Note_on_c, 3, 61, 92
9, 72000, Note_on_c, 3, 64, 92
9, 72104, Note_on_c, 3, 61, 0
9, 72104, Note_on_c, 3, 64, 0
9, 72120, Note_on_c, 3, 62, 92
9, 72120, Note_on_c, 3, 65, 92
9, 72224, Note_on_c, 3, 62, 0
9, 72224, Note_on_c, 3, 65, 0
9, 72240, Note_on_c, 3, 64, 92
9, 72240, Note_on_c, 3, 61, 92
9, 72344, Note_on_c, 3, 64, 0
9, 72344, Note_on_c, 3, 61, 0
9, 72360, Note_on_c, 3, 62, 92
9, 72360, Note_on_c, 3, 65, 92
9, 72464, Note_on_c, 3, 62, 0
9, 72464, Note_on_c, 3, 65, 0
9, 72480, Note_on_c, 3, 65, 92
9, 72480, Note_on_c, 3, 62, 92
9, 72584, Note_on_c, 3, 65, 0
9, 72584, Note_on_c, 3, 62, 0
9, 72600, Note_on_c, 3, 62, 92
9, 72600, Note_on_c, 3, 65, 92
9, 72704, Note_on_c, 3, 62, 0
9, 72704, Note_on_c, 3, 65, 0
9, 72720, Note_on_c, 3, 55, 80
9, 72720, Note_on_c, 3, 62, 80
9, 72824, Note_on_c, 3, 55, 0
9, 72824, Note_on_c, 3, 62, 0
9, 72840, Note_on_c, 3, 57, 80
9, 72840, Note_on_c, 3, 62, 80
9, 72944, Note_on_c, 3, 57, 0
9, 72944, Note_on_c, 3, 62, 0
9, 72960, Note_on_c, 3, 58, 80
9, 72960, Note_on_c, 3, 62, 80
9, 73064, Note_on_c, 3, 58, 0
9, 73064, Note_on_c, 3, 62, 0
9, 73080, Note_on_c, 3, 57, 80
9, 73080, Note_on_c, 3, 62, 80
9, 73184, Note_on_c, 3, 57, 0
9, 73184, Note_on_c, 3, 62, 0
9, 73200, Note_on_c, 3, 57, 80
9, 73200, Note_on_c, 3, 64, 80
9, 73304, Note_on_c, 3, 57, 0
9, 73304, Note_on_c, 3, 64, 0
9, 73320, Note_on_c, 3, 57, 80
9, 73320, Note_on_c, 3, 65, 80
9, 73424, Note_on_c, 3, 57, 0
9, 73424, Note_on_c, 3, 65, 0
9, 73440, Note_on_c, 3, 64, 80
9, 73440, Note_on_c, 3, 67, 80
9, 73544, Note_on_c, 3, 64, 0
9, 73544, Note_on_c, 3, 67, 0
9, 73560, Note_on_c, 3, 62, 80
9, 73560, Note_on_c, 3, 65, 80
9, 73664, Note_on_c, 3, 62, 0
9, 73664, Note_on_c, 3, 65, 0
9, 73680, Note_on_c, 3, 61, 80
9, 73680, Note_on_c, 3, 64, 80
9, 73784, Note_on_c, 3, 61, 0
9, 73784, Note_on_c, 3, 64, 0
9, 73800, Note_on_c, 3, 62, 80
9, 73800, Note_on_c, 3, 65, 80
9, 73904, Note_on_c, 3, 62, 0
9, 73904, Note_on_c, 3, 65, 0
9, 73920, Note_on_c, 3, 67, 80
9, 73920, Note_on_c, 3, 64, 80
9, 74024, Note_on_c, 3, 67, 0
9, 74024, Note_on_c, 3, 64, 0
9, 74040, Note_on_c, 3, 65, 80
9, 74040, Note_on_c, 3, 62, 80
9, 74144, Note_on_c, 3, 65, 0
9, 74144, Note_on_c, 3, 62, 0
9, 74160, Note_on_c, 3, 55, 80
9, 74264, Note_on_c, 3, 55, 0
9, 74280, Note_on_c, 3, 57, 80
9, 74384, Note_on_c, 3, 57, 0
9, 74400, Note_on_c, 3, 58, 80
9, 74504, Note_on_c, 3, 58, 0
9, 74520, Note_on_c, 3, 62, 80
9, 74624, Note_on_c, 3, 62, 0
9, 74640, Note_on_c, 3, 64, 80
9, 74744, Note_on_c, 3, 64, 0
9, 74760, Note_on_c, 3, 65, 80
9, 74864, Note_on_c, 3, 65, 0
9, 74880, Note_on_c, 3, 67, 80
9, 74880, Note_on_c, 3, 64, 80
9, 74984, Note_on_c, 3, 67, 0
9, 74984, Note_on_c, 3, 64, 0
9, 75000, Note_on_c, 3, 62, 80
9, 75000, Note_on_c, 3, 65, 80
9, 75104, Note_on_c, 3, 62, 0
9, 75104, Note_on_c, 3, 65, 0
9, 75120, Note_on_c, 3, 61, 80
9, 75120, Note_on_c, 3, 64, 80
9, 75224, Note_on_c, 3, 61, 0
9, 75224, Note_on_c, 3, 64, 0
9, 75240, Note_on_c, 3, 62, 80
9, 75240, Note_on_c, 3, 65, 80
9, 75344, Note_on_c, 3, 62, 0
9, 75344, Note_on_c, 3, 65, 0
9, 75360, Note_on_c, 3, 65, 80
9, 75360, Note_on_c, 3, 57, 80
9, 75464, Note_on_c, 3, 65, 0
9, 75464, Note_on_c, 3, 57, 0
9, 75480, Note_on_c, 3, 59, 80
9, 75480, Note_on_c, 3, 65, 80
9, 75584, Note_on_c, 3, 59, 0
9, 75584, Note_on_c, 3, 65, 0
9, 75600, Note_on_c, 3, 59, 80
9, 75600, Note_on_c, 3, 65, 80
9, 75704, Note_on_c, 3, 59, 0
9, 75704, Note_on_c, 3, 65, 0
9, 75720, Note_on_c, 3, 62, 80
9, 75720, Note_on_c, 3, 59, 80
9, 75824, Note_on_c, 3, 62, 0
9, 75824, Note_on_c, 3, 59, 0
9, 75840, Note_on_c, 3, 59, 80
9, 75840, Note_on_c, 3, 62, 80
9, 75944, Note_on_c, 3, 59, 0
9, 75944, Note_on_c, 3, 62, 0
9, 75960, Note_on_c, 3, 60, 80
9, 75960, Note_on_c, 3, 64, 80
9, 76064, Note_on_c, 3, 60, 0
9, 76064, Note_on_c, 3, 64, 0
9, 76080, Note_on_c, 3, 62, 80
9, 76080, Note_on_c, 3, 65, 80
9, 76184, Note_on_c, 3, 62, 0
9, 76184, Note_on_c, 3, 65, 0
9, 76200, Note_on_c, 3, 64, 80
9, 76200, Note_on_c, 3, 67, 80
9, 76304, Note_on_c, 3, 64, 0
9, 76304, Note_on_c, 3, 67, 0
9, 76320, Note_on_c, 3, 65, 80
9, 76320, Note_on_c, 3, 62, 80
9, 76424, Note_on_c, 3, 65, 0
9, 76424, Note_on_c, 3, 62, 0
9, 76440, Note_on_c, 3, 64, 80
9, 76440, Note_on_c, 3, 60, 80
9, 76544, Note_on_c, 3, 64, 0
9, 76544, Note_on_c, 3, 60, 0
9, 76560, Note_on_c, 3, 59, 80
9, 76560, Note_on_c, 3, 65, 80
9, 76664, Note_on_c, 3, 59, 0
9, 76664, Note_on_c, 3, 65, 0
9, 76680, Note_on_c, 3, 60, 80
9, 76680, Note_on_c, 3, 64, 80
9, 76784, Note_on_c, 3, 60, 0
9, 76784, Note_on_c, 3, 64, 0
9, 76800, Note_on_c, 3, 65, 80
9, 76800, Note_on_c, 3, 59, 80
9, 76904, Note_on_c, 3, 65, 0
9, 76904, Note_on_c, 3, 59, 0
9, 76920, Note_on_c, 3, 59, 80
9, 76920, Note_on_c, 3, 65, 80
9, 77024, Note_on_c, 3, 59, 0
9, 77024, Note_on_c, 3, 65, 0
9, 77040, Note_on_c, 3, 65, 80
9, 77040, Note_on_c, 3, 59, 80
9, 77144, Note_on_c, 3, 65, 0
9, 77144, Note_on_c, 3, 59, 0
9, 77160, Note_on_c, 3, 62, 80
9, 77160, Note_on_c, 3, 59, 80
9, 77264, Note_on_c, 3, 62, 0
9, 77264, Note_on_c, 3, 59, 0
9, 77280, Note_on_c, 3, 59, 80
9, 77280, Note_on_c, 3, 62, 80
9, 77384, Note_on_c, 3, 59, 0
9, 77384, Note_on_c, 3, 62, 0
9, 77400, Note_on_c, 3, 60, 80
9, 77400, Note_on_c, 3, 64, 80
9, 77504, Note_on_c, 3, 60, 0
9, 77504, Note_on_c, 3, 64, 0
9, 77520, Note_on_c, 3, 62, 80
9, 77520, Note_on_c, 3, 65, 80
9, 77624, Note_on_c, 3, 62, 0
9, 77624, Note_on_c, 3, 65, 0
9, 77640, Note_on_c, 3, 64, 80
9, 77640, Note_on_c, 3, 67, 80
9, 77744, Note_on_c, 3, 64, 0
9, 77744, Note_on_c, 3, 67, 0
9, 77760, Note_on_c, 3, 64, 80
9, 77760, Note_on_c, 3, 60, 80
9, 77864, Note_on_c, 3, 64, 0
9, 77864, Note_on_c, 3, 60, 0
9, 77880, Note_on_c, 3, 62, 80
9, 77880, Note_on_c, 3, 65, 80
9, 77984, Note_on_c, 3, 62, 0
9, 77984, Note_on_c, 3, 65, 0
9, 78000, Note_on_c, 3, 67, 80
9, 78000, Note_on_c, 3, 64, 80
9, 78104, Note_on_c, 3, 67, 0
9, 78104, Note_on_c, 3, 64, 0
9, 78120, Note_on_c, 3, 64, 80
9, 78120, Note_on_c, 3, 60, 80
9, 78224, Note_on_c, 3, 64, 0
9, 78224, Note_on_c, 3, 60, 0
9, 78240, Note_on_c, 3, 65, 80
9, 78240, Note_on_c, 3, 62, 80
9, 78344, Note_on_c, 3, 65, 0
9, 78344, Note_on_c, 3, 62, 0
9, 78360, Note_on_c, 3, 67, 80
9, 78360, Note_on_c, 3, 64, 80
9, 78464, Note_on_c, 3, 67, 0
9, 78464, Note_on_c, 3, 64, 0
9, 78480, Note_on_c, 3, 67, 80
9, 78480, Note_on_c, 3, 55, 80
9, 78540, Control_c, 3, 11, 67
9, 78840, Control_c, 3, 11, 67
9, 78879, Control_c, 3, 11, 68
9, 78918, Control_c, 3, 11, 69
9, 78957, Control_c, 3, 11, 70
9, 78996, Control_c, 3, 11, 71
9, 79035, Control_c, 3, 11, 72
9, 79074, Control_c, 3, 11, 73
9, 79113, Control_c, 3, 11, 74
9, 79152, Control_c, 3, 11, 75
9, 79184, Note_on_c, 3, 67, 0
9, 79184, Note_on_c, 3, 55, 0
9, 79191, Control_c, 3, 11, 76
9, 79200, Note_on_c, 3, 65, 80
9, 79200, Note_on_c, 3, 53, 80
9, 79230, Control_c, 3, 11, 77
9, 79269, Control_c, 3, 11, 78
9, 79308, Control_c, 3, 11, 79
9, 79347, Control_c, 3, 11, 80
9, 79386, Control_c, 3, 11, 81
9, 79425, Control_c, 3, 11, 82
9, 79464, Control_c, 3, 11, 83
9, 79503, Control_c, 3, 11, 84
9, 79542, Control_c, 3, 11, 85
9, 79559, Note_on_c, 3, 65, 0
9, 79559, Note_on_c, 3, 53, 0
9, 79560, Note_on_c, 3, 50, 80
9, 79560, Note_on_c, 3, 62, 80
9, 79581, Control_c, 3, 11, 86
9, 79620, Control_c, 3, 11, 87
9, 79659, Control_c, 3, 11, 88
9, 79698, Control_c, 3, 11, 89
9, 79737, Control_c, 3, 11, 90
9, 79776, Control_c, 3, 11, 91
9, 79815, Control_c, 3, 11, 92
9, 79854, Control_c, 3, 11, 93
9, 79893, Control_c, 3, 11, 94
9, 79919, Note_on_c, 3, 50, 0
9, 79919, Note_on_c, 3, 62, 0
9, 79920, Note_on_c, 3, 47, 80
9, 79920, Note_on_c, 3, 59, 80
9, 79932, Control_c, 3, 11, 95
9, 79971, Control_c, 3, 11, 96
9, 80010, Control_c, 3, 11, 97
9, 80049, Control_c, 3, 11, 98
9, 80088, Control_c, 3, 11, 99
9, 80127, Control_c, 3, 11, 100
9, 80166, Control_c, 3, 11, 101
9, 80205, Control_c, 3, 11, 102
9, 80244, Control_c, 3, 11, 103
9, 80279, Note_on_c, 3, 47, 0
9, 80279, Note_on_c, 3, 59, 0
9, 80280, Note_on_c, 3, 60, 80
9, 80280, Note_on_c, 3, 48, 80
9, 80283, Control_c, 3, 11, 104
9, 80322, Control_c, 3, 11, 105
9, 80361, Control_c, 3, 11, 106
9, 80400, Control_c, 3, 11, 107
9, 80430, Control_c, 3, 11, 105
9, 80460, Control_c, 3, 11, 104
9, 80490, Control_c, 3, 11, 102
9, 80520, Control_c, 3, 11, 100
9, 80550, Control_c, 3, 11, 99
9, 80580, Control_c, 3, 11, 97
9, 80610, Control_c, 3, 11, 95
9, 80639, Note_on_c, 3, 60, 0
9, 80639, Note_on_c, 3, 48, 0
9, 80640, Note_on_c, 3, 67, 80
9, 80640, Note_on_c, 3, 55, 80
9, 80640, Control_c, 3, 11, 94
9, 80670, Control_c, 3, 11, 92
9, 80700, Control_c, 3, 11, 90
9, 80730, Control_c, 3, 11, 89
9, 80760, Control_c, 3, 11, 87
9, 80790, Control_c, 3, 11, 85
9, 80820, Control_c, 3, 11, 84
9, 80850, Control_c, 3, 11, 82
9, 80880, Control_c, 3, 11, 80
9, 80910, Control_c, 3, 11, 79
9, 80940, Control_c, 3, 11, 77
9, 80970, Control_c, 3, 11, 75
9, 80999, Note_on_c, 3, 67, 0
9, 80999, Note_on_c, 3, 55, 0
9, 81000, Note_on_c, 3, 55, 80
9, 81000, Control_c, 3, 11, 74
9, 81000, Note_on_c, 3, 43, 80
9, 81030, Control_c, 3, 11, 72
9, 81060, Control_c, 3, 11, 70
9, 81090, Control_c, 3, 11, 69
9, 81118, Control_c, 3, 11, 49
9, 81344, Note_on_c, 3, 55, 0
9, 81344, Note_on_c, 3, 43, 0
9, 81360, Note_on_c, 3, 67, 92
9, 81360, Control_c, 3, 11, 49
9, 81397, Control_c, 3, 11, 50
9, 81434, Control_c, 3, 11, 51
9, 81471, Control_c, 3, 11, 52
9, 81508, Control_c, 3, 11, 53
9, 81545, Control_c, 3, 11, 54
9, 81582, Control_c, 3, 11, 55
9, 81618, Control_c, 3, 11, 56
9, 81655, Control_c, 3, 11, 57
9, 81692, Control_c, 3, 11, 58
9, 81720, Note_on_c, 3, 60, 92
9, 81729, Control_c, 3, 11, 59
9, 81766, Control_c, 3, 11, 60
9, 81803, Control_c, 3, 11, 61
9, 81840, Control_c, 3, 11, 62
9, 81877, Control_c, 3, 11, 63
9, 81914, Control_c, 3, 11, 64
9, 81951, Control_c, 3, 11, 65
9, 81988, Control_c, 3, 11, 66
9, 82025, Control_c, 3, 11, 67
9, 82062, Control_c, 3, 11, 68
9, 82079, Note_on_c, 3, 60, 0
9, 82080, Note_on_c, 3, 53, 92
9, 82098, Control_c, 3, 11, 69
9, 82135, Control_c, 3, 11, 70
9, 82172, Control_c, 3, 11, 71
9, 82209, Control_c, 3, 11, 72
9, 82246, Control_c, 3, 11, 73
9, 82283, Control_c, 3, 11, 74
9, 82320, Control_c, 3, 11, 75
9, 82357, Control_c, 3, 11, 76
9, 82394, Control_c, 3, 11, 77
9, 82431, Control_c, 3, 11, 78
9, 82439, Note_on_c, 3, 67, 0
9, 82439, Note_on_c, 3, 53, 0
9, 82440, Note_on_c, 3, 50, 92
9, 82440, Note_on_c, 3, 65, 92
9, 82468, Control_c, 3, 11, 79
9, 82505, Control_c, 3, 11, 80
9, 82542, Control_c, 3, 11, 81
9, 82578, Control_c, 3, 11, 82
9, 82615, Control_c, 3, 11, 83
9, 82652, Control_c, 3, 11, 84
9, 82689, Control_c, 3, 11, 85
9, 82726, Control_c, 3, 11, 86
9, 82763, Control_c, 3, 11, 87
9, 82799, Note_on_c, 3, 50, 0
9, 82800, Note_on_c, 3, 55, 92
9, 82800, Control_c, 3, 11, 88
9, 82837, Control_c, 3, 11, 89
9, 82874, Control_c, 3, 11, 90
9, 82911, Control_c, 3, 11, 91
9, 82948, Control_c, 3, 11, 92
9, 82985, Control_c, 3, 11, 93
9, 83022, Control_c, 3, 11, 94
9, 83058, Control_c, 3, 11, 95
9, 83095, Control_c, 3, 11, 96
9, 83132, Control_c, 3, 11, 97
9, 83159, Note_on_c, 3, 65, 0
9, 83159, Note_on_c, 3, 55, 0
9, 83160, Note_on_c, 3, 60, 92
9, 83160, Note_on_c, 3, 64, 92
9, 83169, Control_c, 3, 11, 98
9, 83206, Control_c, 3, 11, 99
9, 83243, Control_c, 3, 11, 100
9, 83280, Control_c, 3, 11, 101
9, 83317, Control_c, 3, 11, 102
9, 83354, Control_c, 3, 11, 103
9, 83391, Control_c, 3, 11, 104
9, 83428, Control_c, 3, 11, 105
9, 83465, Control_c, 3, 11, 106
9, 83502, Control_c, 3, 11, 107
9, 83519, Note_on_c, 3, 60, 0
9, 83519, Note_on_c, 3, 64, 0
9, 83520, Note_on_c, 3, 55, 92
9, 83520, Note_on_c, 3, 63, 92
9, 83538, Control_c, 3, 11, 108
9, 83575, Control_c, 3, 11, 109
9, 83612, Control_c, 3, 11, 110
9, 83649, Control_c, 3, 11, 111
9, 83686, Control_c, 3, 11, 112
9, 83723, Control_c, 3, 11, 113
9, 83760, Control_c, 3, 11, 114
9, 83797, Control_c, 3, 11, 115
9, 83834, Control_c, 3, 11, 116
9, 83871, Control_c, 3, 11, 117
9, 83879, Note_on_c, 3, 55, 0
9, 83879, Note_on_c, 3, 63, 0
9, 83880, Note_on_c, 3, 43, 92
9, 83880, Note_on_c, 3, 67, 92
9, 83908, Control_c, 3, 11, 118
9, 83945, Control_c, 3, 11, 119
9, 83982, Control_c, 3, 11, 120
9, 84018, Control_c, 3, 11, 121
9, 84055, Control_c, 3, 11, 122
9, 84092, Control_c, 3, 11, 123
9, 84129, Control_c, 3, 11, 124
9, 84166, Control_c, 3, 11, 125
9, 84203, Control_c, 3, 11, 127
9, 84224, Note_on_c, 3, 43, 0
9, 84224, Note_on_c, 3, 67, 0
9, 84240, Note_on_c, 3, 48, 92
9, 84240, Note_on_c, 3, 60, 92
9, 84359, Note_on_c, 3, 48, 0
9, 84360, Note_on_c, 3, 52, 92
9, 84479, Note_on_c, 3, 60, 0
9, 84479, Note_on_c, 3, 52, 0
9, 84480, Note_on_c, 3, 53, 92
9, 84480, Note_on_c, 3, 62, 92
9, 84539, Note_on_c, 3, 53, 0
9, 84539, Note_on_c, 3, 62, 0
9, 84540, Note_on_c, 3, 64, 92
9, 84540, Note_on_c, 3, 55, 92
9, 84584, Note_on_c, 3, 64, 0
9, 84584, Note_on_c, 3, 55, 0
9, 84600, Note_on_c, 3, 57, 92
9, 84600, Note_on_c, 3, 65, 92
9, 84719, Note_on_c, 3, 57, 0
9, 84719, Note_on_c, 3, 65, 0
9, 84840, Note_on_c, 3, 64, 92
9, 84840, Note_on_c, 3, 55, 92
9, 84929, Note_on_c, 3, 64, 0
9, 84929, Note_on_c, 3, 55, 0
9, 84960, Note_on_c, 3, 62, 92
9, 84960, Note_on_c, 3, 53, 92
9, 85049, Note_on_c, 3, 62, 0
9, 85049, Note_on_c, 3, 53, 0
9, 85200, Note_on_c, 3, 52, 92
9, 85200, Note_on_c, 3, 60, 92
9, 85289, Note_on_c, 3, 52, 0
9, 85289, Note_on_c, 3, 60, 0
9, 85320, Note_on_c, 3, 62, 92
9, 85320, Note_on_c, 3, 53, 92
9, 85409, Note_on_c, 3, 62, 0
9, 85409, Note_on_c, 3, 53, 0
9, 85560, Note_on_c, 3, 50, 92
9, 85560, Note_on_c, 3, 59, 92
9, 85649, Note_on_c, 3, 50, 0
9, 85649, Note_on_c, 3, 59, 0
9, 85680, Note_on_c, 3, 60, 92
9, 85680, Note_on_c, 3, 64, 92
9, 85799, Note_on_c, 3, 60, 0
9, 85799, Note_on_c, 3, 64, 0
9, 85800, Note_on_c, 3, 52, 92
9, 85800, Note_on_c, 3, 48, 92
9, 85919, Note_on_c, 3, 52, 0
9, 85919, Note_on_c, 3, 48, 0
9, 85920, Note_on_c, 3, 50, 92
9, 85920, Note_on_c, 3, 53, 92
9, 85979, Note_on_c, 3, 50, 0
9, 85979, Note_on_c, 3, 53, 0
9, 85980, Note_on_c, 3, 52, 92
9, 85980, Note_on_c, 3, 55, 92
9, 86024, Note_on_c, 3, 52, 0
9, 86024, Note_on_c, 3, 55, 0
9, 86040, Note_on_c, 3, 53, 92
9, 86040, Note_on_c, 3, 57, 92
9, 86129, Note_on_c, 3, 53, 0
9, 86129, Note_on_c, 3, 57, 0
9, 86280, Note_on_c, 3, 55, 92
9, 86280, Note_on_c, 3, 52, 92
9, 86369, Note_on_c, 3, 55, 0
9, 86369, Note_on_c, 3, 52, 0
9, 86400, Note_on_c, 3, 50, 92
9, 86400, Note_on_c, 3, 53, 92
9, 86489, Note_on_c, 3, 50, 0
9, 86489, Note_on_c, 3, 53, 0
9, 86640, Note_on_c, 3, 48, 92
9, 86640, Note_on_c, 3, 52, 92
9, 86729, Note_on_c, 3, 48, 0
9, 86729, Note_on_c, 3, 52, 0
9, 86760, Note_on_c, 3, 53, 92
9, 86760, Note_on_c, 3, 50, 92
9, 86849, Note_on_c, 3, 53, 0
9, 86849, Note_on_c, 3, 50, 0
9, 87000, Note_on_c, 3, 50, 92
9, 87000, Note_on_c, 3, 59, 92
9, 87089, Note_on_c, 3, 50, 0
9, 87089, Note_on_c, 3, 59, 0
9, 87120, Note_on_c, 3, 60, 92
9, 87120, Note_on_c, 3, 48, 92
9, 87209, Note_on_c, 3, 60, 0
9, 87209, Note_on_c, 3, 48, 0
9, 87240, Note_on_c, 3, 52, 92
9, 87240, Note_on_c, 3, 60, 92
9, 87359, Note_on_c, 3, 52, 0
9, 87359, Note_on_c, 3, 60, 0
9, 87360, Note_on_c, 3, 62, 92
9, 87360, Note_on_c, 3, 53, 92
9, 87419, Note_on_c, 3, 62, 0
9, 87419, Note_on_c, 3, 53, 0
9, 87420, Note_on_c, 3, 55, 92
9, 87420, Note_on_c, 3, 64, 92
9, 87464, Note_on_c, 3, 55, 0
9, 87464, Note_on_c, 3, 64, 0
9, 87480, Note_on_c, 3, 57, 92
9, 87480, Note_on_c, 3, 65, 92
9, 87569, Note_on_c, 3, 57, 0
9, 87569, Note_on_c, 3, 65, 0
9, 87600, Note_on_c, 3, 57, 92
9, 87600, Note_on_c, 3, 65, 92
9, 87689, Note_on_c, 3, 57, 0
9, 87689, Note_on_c, 3, 65, 0
9, 87720, Note_on_c, 3, 64, 92
9, 87720, Note_on_c, 3, 55, 92
9, 87809, Note_on_c, 3, 64, 0
9, 87809, Note_on_c, 3, 55, 0
9, 87840, Note_on_c, 3, 62, 92
9, 87840, Note_on_c, 3, 53, 92
9, 87929, Note_on_c, 3, 62, 0
9, 87929, Note_on_c, 3, 53, 0
9, 87960, Note_on_c, 3, 53, 92
9, 87960, Note_on_c, 3, 62, 92
9, 88049, Note_on_c, 3, 53, 0
9, 88049, Note_on_c, 3, 62, 0
9, 88080, Note_on_c, 3, 52, 92
9, 88080, Note_on_c, 3, 60, 92
9, 88169, Note_on_c, 3, 52, 0
9, 88169, Note_on_c, 3, 60, 0
9, 88200, Note_on_c, 3, 53, 92
9, 88200, Note_on_c, 3, 62, 92
9, 88289, Note_on_c, 3, 53, 0
9, 88289, Note_on_c, 3, 62, 0
9, 88320, Note_on_c, 3, 62, 92
9, 88320, Note_on_c, 3, 53, 92
9, 88409, Note_on_c, 3, 62, 0
9, 88409, Note_on_c, 3, 53, 0
9, 88440, Note_on_c, 3, 50, 92
9, 88440, Note_on_c, 3, 59, 92
9, 88529, Note_on_c, 3, 50, 0
9, 88529, Note_on_c, 3, 59, 0
9, 88560, Note_on_c, 3, 52, 92
9, 88560, Note_on_c, 3, 48, 92
9, 88649, Note_on_c, 3, 52, 0
9, 88649, Note_on_c, 3, 48, 0
9, 88680, Note_on_c, 3, 48, 92
9, 88680, Note_on_c, 3, 52, 92
9, 88799, Note_on_c, 3, 48, 0
9, 88799, Note_on_c, 3, 52, 0
9, 88800, Note_on_c, 3, 53, 92
9, 88800, Note_on_c, 3, 50, 92
9, 88859, Note_on_c, 3, 53, 0
9, 88859, Note_on_c, 3, 50, 0
9, 88860, Note_on_c, 3, 52, 92
9, 88860, Note_on_c, 3, 55, 92
9, 88904, Note_on_c, 3, 52, 0
9, 88904, Note_on_c, 3, 55, 0
9, 88920, Note_on_c, 3, 57, 92
9, 88920, Note_on_c, 3, 53, 92
9, 89009, Note_on_c, 3, 57, 0
9, 89009, Note_on_c, 3, 53, 0
9, 89040, Note_on_c, 3, 53, 92
9, 89040, Note_on_c, 3, 57, 92
9, 89129, Note_on_c, 3, 53, 0
9, 89129, Note_on_c, 3, 57, 0
9, 89160, Note_on_c, 3, 55, 92
9, 89160, Note_on_c, 3, 52, 92
9, 89249, Note_on_c, 3, 55, 0
9, 89249, Note_on_c, 3, 52, 0
9, 89280, Note_on_c, 3, 50, 92
9, 89280, Note_on_c, 3, 53, 92
9, 89369, Note_on_c, 3, 50, 0
9, 89369, Note_on_c, 3, 53, 0
9, 89400, Note_on_c, 3, 50, 92
9, 89400, Note_on_c, 3, 53, 92
9, 89489, Note_on_c, 3, 50, 0
9, 89489, Note_on_c, 3, 53, 0
9, 89520, Note_on_c, 3, 48, 92
9, 89520, Note_on_c, 3, 52, 92
9, 89609, Note_on_c, 3, 48, 0
9, 89609, Note_on_c, 3, 52, 0
9, 89640, Note_on_c, 3, 53, 92
9, 89640, Note_on_c, 3, 50, 92
9, 89729, Note_on_c, 3, 53, 0
9, 89729, Note_on_c, 3, 50, 0
9, 89760, Note_on_c, 3, 50, 92
9, 89760, Note_on_c, 3, 53, 92
9, 89849, Note_on_c, 3, 50, 0
9, 89849, Note_on_c, 3, 53, 0
9, 89880, Note_on_c, 3, 59, 92
9, 89880, Note_on_c, 3, 50, 92
9, 89969, Note_on_c, 3, 59, 0
9, 89969, Note_on_c, 3, 50, 0
9, 90000, Note_on_c, 3, 60, 92
9, 90000, Note_on_c, 3, 48, 92
9, 90164, Note_on_c, 3, 60, 0
9, 90164, Note_on_c, 3, 48, 0
9, 90180, Note_on_c, 3, 48, 92
9, 90180, Note_on_c, 3, 36, 92
9, 90224, Note_on_c, 3, 48, 0
9, 90224, Note_on_c, 3, 36, 0
9, 90240, Note_on_c, 3, 48, 92
9, 90240, Note_on_c, 3, 36, 92
9, 90344, Note_on_c, 3, 48, 0
9, 90344, Note_on_c, 3, 36, 0
9, 90360, Note_on_c, 3, 48, 92
9, 90360, Note_on_c, 3, 60, 92
9, 90449, Note_on_c, 3, 48, 0
9, 90449, Note_on_c, 3, 60, 0
9, 90480, Note_on_c, 3, 62, 92
9, 90480, Note_on_c, 3, 50, 92
9, 90569, Note_on_c, 3, 62, 0
9, 90569, Note_on_c, 3, 50, 0
9, 90600, Note_on_c, 3, 52, 92
9, 90600, Note_on_c, 3, 64, 92
9, 90689, Note_on_c, 3, 52, 0
9, 90689, Note_on_c, 3, 64, 0
9, 90720, Note_on_c, 3, 65, 92
9, 90720, Note_on_c, 3, 53, 92
9, 90839, Note_on_c, 3, 65, 0
9, 90839, Note_on_c, 3, 53, 0
9, 91440, Note_on_c, 3, 47, 92
9, 91440, Note_on_c, 3, 59, 92
9, 91604, Note_on_c, 3, 47, 0
9, 91604, Note_on_c, 3, 59, 0
9, 91620, Note_on_c, 3, 35, 92
9, 91620, Note_on_c, 3, 47, 92
9, 91664, Note_on_c, 3, 35, 0
9, 91664, Note_on_c, 3, 47, 0
9, 91680, Note_on_c, 3, 47, 92
9, 91680, Note_on_c, 3, 35, 92
9, 91784, Note_on_c, 3, 47, 0
9, 91784, Note_on_c, 3, 35, 0
9, 91800, Note_on_c, 3, 47, 92
9, 91800, Note_on_c, 3, 59, 92
9, 91889, Note_on_c, 3, 47, 0
9, 91889, Note_on_c, 3, 59, 0
9, 91920, Note_on_c, 3, 60, 92
9, 91920, Note_on_c, 3, 48, 92
9, 92009, Note_on_c, 3, 60, 0
9, 92009, Note_on_c, 3, 48, 0
9, 92040, Note_on_c, 3, 62, 92
9, 92040, Note_on_c, 3, 50, 92
9, 92129, Note_on_c, 3, 62, 0
9, 92129, Note_on_c, 3, 50, 0
9, 92160, Note_on_c, 3, 64, 92
9, 92160, Note_on_c, 3, 52, 92
9, 92279, Note_on_c, 3, 64, 0
9, 92279, Note_on_c, 3, 52, 0
9, 92520, Control_c, 3, 11, 87
9, 92880, Note_on_c, 3, 48, 68
9, 93600, Control_c, 3, 11, 87
9, 93630, Control_c, 3, 11, 89
9, 93660, Control_c, 3, 11, 90
9, 93690, Control_c, 3, 11, 92
9, 93720, Control_c, 3, 11, 94
9, 93750, Control_c, 3, 11, 95
9, 93780, Control_c, 3, 11, 97
9, 93810, Control_c, 3, 11, 99
9, 93840, Control_c, 3, 11, 100
9, 93870, Control_c, 3, 11, 102
9, 93900, Control_c, 3, 11, 104
9, 93930, Control_c, 3, 11, 105
9, 93960, Control_c, 3, 11, 107
9, 93990, Control_c, 3, 11, 109
9, 94020, Control_c, 3, 11, 110
9, 94050, Control_c, 3, 11, 112
9, 94080, Control_c, 3, 11, 114
9, 94110, Control_c, 3, 11, 115
9, 94140, Control_c, 3, 11, 117
9, 94170, Control_c, 3, 11, 119
9, 94200, Control_c, 3, 11, 120
9, 94230, Control_c, 3, 11, 122
9, 94260, Control_c, 3, 11, 124
9, 94290, Control_c, 3, 11, 125
9, 94320, Control_c, 3, 11, 127
9, 94350, Control_c, 3, 11, 125
9, 94380, Control_c, 3, 11, 124
9, 94410, Control_c, 3, 11, 122
9, 94440, Control_c, 3, 11, 120
9, 94470, Control_c, 3, 11, 119
9, 94500, Control_c, 3, 11, 117
9, 94530, Control_c, 3, 11, 115
9, 94560, Control_c, 3, 11, 114
9, 94590, Control_c, 3, 11, 112
9, 94620, Control_c, 3, 11, 110
9, 94650, Control_c, 3, 11, 109
9, 94680, Control_c, 3, 11, 107
9, 94710, Control_c, 3, 11, 105
9, 94740, Control_c, 3, 11, 104
9, 94770, Control_c, 3, 11, 102
9, 94800, Control_c, 3, 11, 100
9, 94830, Control_c, 3, 11, 99
9, 94860, Control_c, 3, 11, 97
9, 94890, Control_c, 3, 11, 95
9, 94920, Control_c, 3, 11, 94
9, 94950, Control_c, 3, 11, 92
9, 94980, Control_c, 3, 11, 90
9, 95010, Control_c, 3, 11, 89
9, 95024, Note_on_c, 3, 48, 0
9, 95038, Control_c, 3, 11, 67
9, 95040, Note_on_c, 3, 55, 80
9, 95040, Note_on_c, 3, 46, 80
9, 95040, Control_c, 3, 11, 67
9, 95070, Control_c, 3, 11, 68
9, 95100, Control_c, 3, 11, 70
9, 95130, Control_c, 3, 11, 71
9, 95159, Note_on_c, 3, 55, 0
9, 95160, Note_on_c, 3, 48, 80
9, 95160, Control_c, 3, 11, 72
9, 95190, Control_c, 3, 11, 73
9, 95220, Control_c, 3, 11, 75
9, 95250, Control_c, 3, 11, 76
9, 95279, Note_on_c, 3, 48, 0
9, 95280, Note_on_c, 3, 50, 80
9, 95280, Control_c, 3, 11, 77
9, 95310, Control_c, 3, 11, 78
9, 95340, Control_c, 3, 11, 80
9, 95370, Control_c, 3, 11, 81
9, 95399, Note_on_c, 3, 50, 0
9, 95400, Note_on_c, 3, 52, 80
9, 95400, Control_c, 3, 11, 82
9, 95430, Control_c, 3, 11, 83
9, 95460, Control_c, 3, 11, 85
9, 95490, Control_c, 3, 11, 86
9, 95519, Note_on_c, 3, 46, 0
9, 95519, Note_on_c, 3, 52, 0
9, 95520, Note_on_c, 3, 45, 80
9, 95520, Control_c, 3, 11, 87
9, 95520, Note_on_c, 3, 53, 80
9, 95550, Control_c, 3, 11, 88
9, 95580, Control_c, 3, 11, 90
9, 95610, Control_c, 3, 11, 91
9, 95639, Note_on_c, 3, 45, 0
9, 95639, Note_on_c, 3, 53, 0
9, 95640, Control_c, 3, 11, 92
9, 95640, Note_on_c, 3, 43, 80
9, 95640, Note_on_c, 3, 55, 80
9, 95670, Control_c, 3, 11, 93
9, 95700, Control_c, 3, 11, 95
9, 95730, Control_c, 3, 11, 96
9, 95759, Note_on_c, 3, 43, 0
9, 95759, Note_on_c, 3, 55, 0
9, 95760, Note_on_c, 3, 45, 80
9, 95760, Control_c, 3, 11, 97
9, 95760, Note_on_c, 3, 54, 80
9, 95790, Control_c, 3, 11, 98
9, 95820, Control_c, 3, 11, 100
9, 95850, Control_c, 3, 11, 101
9, 95879, Note_on_c, 3, 45, 0
9, 95879, Note_on_c, 3, 54, 0
9, 95880, Note_on_c, 3, 55, 80
9, 95880, Control_c, 3, 11, 102
9, 95880, Note_on_c, 3, 43, 80
9, 95910, Control_c, 3, 11, 103
9, 95940, Control_c, 3, 11, 105
9, 95970, Control_c, 3, 11, 106
9, 95999, Note_on_c, 3, 55, 0
9, 95999, Note_on_c, 3, 43, 0
9, 96000, Control_c, 3, 11, 107
9, 96000, Note_on_c, 3, 42, 80
9, 96000, Note_on_c, 3, 57, 80
9, 96030, Control_c, 3, 11, 108
9, 96060, Control_c, 3, 11, 110
9, 96090, Control_c, 3, 11, 111
9, 96119, Note_on_c, 3, 42, 0
9, 96119, Note_on_c, 3, 57, 0
9, 96120, Note_on_c, 3, 43, 80
9, 96120, Note_on_c, 3, 55, 80
9, 96120, Control_c, 3, 11, 112
9, 96150, Control_c, 3, 11, 113
9, 96180, Control_c, 3, 11, 115
9, 96210, Control_c, 3, 11, 116
9, 96239, Note_on_c, 3, 43, 0
9, 96239, Note_on_c, 3, 55, 0
9, 96240, Note_on_c, 3, 53, 80
9, 96240, Note_on_c, 3, 41, 80
9, 96240, Control_c, 3, 11, 117
9, 96270, Control_c, 3, 11, 118
9, 96300, Control_c, 3, 11, 120
9, 96330, Control_c, 3, 11, 121
9, 96359, Note_on_c, 3, 53, 0
9, 96359, Note_on_c, 3, 41, 0
9, 96360, Note_on_c, 3, 40, 80
9, 96360, Control_c, 3, 11, 122
9, 96360, Note_on_c, 3, 52, 80
9, 96390, Control_c, 3, 11, 123
9, 96420, Control_c, 3, 11, 125
9, 96450, Control_c, 3, 11, 127
9, 96464, Note_on_c, 3, 40, 0
9, 96464, Note_on_c, 3, 52, 0
9, 96480, Note_on_c, 3, 52, 80
9, 96480, Note_on_c, 3, 40, 80
9, 96569, Note_on_c, 3, 52, 0
9, 96569, Note_on_c, 3, 40, 0
9, 96600, Note_on_c, 3, 48, 80
9, 96600, Note_on_c, 3, 36, 80
9, 96689, Note_on_c, 3, 48, 0
9, 96689, Note_on_c, 3, 36, 0
9, 96720, Note_on_c, 3, 41, 80
9, 96720, Note_on_c, 3, 53, 80
9, 96809, Note_on_c, 3, 41, 0
9, 96809, Note_on_c, 3, 53, 0
9, 96840, Note_on_c, 3, 38, 80
9, 96840, Note_on_c, 3, 50, 80
9, 96929, Note_on_c, 3, 38, 0
9, 96929, Note_on_c, 3, 50, 0
9, 96960, Note_on_c, 3, 47, 80
9, 96960, Note_on_c, 3, 59, 80
9, 97049, Note_on_c, 3, 47, 0
9, 97049, Note_on_c, 3, 59, 0
9, 97080, Note_on_c, 3, 55, 80
9, 97080, Note_on_c, 3, 43, 80
9, 97169, Note_on_c, 3, 55, 0
9, 97169, Note_on_c, 3, 43, 0
9, 97200, Note_on_c, 3, 55, 80
9, 97200, Note_on_c, 3, 43, 80
9, 97319, Note_on_c, 3, 55, 0
9, 97319, Note_on_c, 3, 43, 0
9, 97920, Note_on_c, 3, 36, 80
9, 97920, Note_on_c, 3, 48, 80
9, 98009, Note_on_c, 3, 36, 0
9, 98009, Note_on_c, 3, 48, 0
9, 98040, Note_on_c, 3, 48, 80
9, 98040, Note_on_c, 3, 36, 80
9, 98129, Note_on_c, 3, 48, 0
9, 98129, Note_on_c, 3, 36, 0
9, 98160, Note_on_c, 3, 41, 80
9, 98160, Note_on_c, 3, 53, 80
9, 98249, Note_on_c, 3, 41, 0
9, 98249, Note_on_c, 3, 53, 0
9, 98280, Note_on_c, 3, 50, 80
9, 98280, Note_on_c, 3, 38, 80
9, 98369, Note_on_c, 3, 50, 0
9, 98369, Note_on_c, 3, 38, 0
9, 98400, Note_on_c, 3, 47, 80
9, 98400, Note_on_c, 3, 59, 80
9, 98489, Note_on_c, 3, 47, 0
9, 98489, Note_on_c, 3, 59, 0
9, 98520, Note_on_c, 3, 43, 80
9, 98520, Note_on_c, 3, 55, 80
9, 98609, Note_on_c, 3, 43, 0
9, 98609, Note_on_c, 3, 55, 0
9, 98640, Note_on_c, 3, 43, 80
9, 98640, Note_on_c, 3, 55, 80
9, 98729, Note_on_c, 3, 43, 0
9, 98729, Note_on_c, 3, 55, 0
9, 98760, Note_on_c, 3, 55, 80
9, 98760, Note_on_c, 3, 67, 80
9, 98849, Note_on_c, 3, 55, 0
9, 98849, Note_on_c, 3, 67, 0
9, 98880, Note_on_c, 3, 55, 80
9, 98880, Note_on_c, 3, 67, 80
9, 98969, Note_on_c, 3, 55, 0
9, 98969, Note_on_c, 3, 67, 0
9, 99000, Note_on_c, 3, 55, 80
9, 99000, Note_on_c, 3, 67, 80
9, 99089, Note_on_c, 3, 55, 0
9, 99089, Note_on_c, 3, 67, 0
9, 99120, Note_on_c, 3, 55, 80
9, 99120, Note_on_c, 3, 67, 80
9, 99209, Note_on_c, 3, 55, 0
9, 99209, Note_on_c, 3, 67, 0
9, 99240, Note_on_c, 3, 55, 80
9, 99240, Note_on_c, 3, 67, 80
9, 99329, Note_on_c, 3, 55, 0
9, 99329, Note_on_c, 3, 67, 0
9, 99360, Note_on_c, 3, 64, 80
9, 99360, Note_on_c, 3, 60, 80
9, 99449, Note_on_c, 3, 64, 0
9, 99449, Note_on_c, 3, 60, 0
9, 99480, Note_on_c, 3, 64, 80
9, 99480, Note_on_c, 3, 67, 80
9, 99569, Note_on_c, 3, 64, 0
9, 99569, Note_on_c, 3, 67, 0
9, 99600, Note_on_c, 3, 64, 80
9, 99600, Note_on_c, 3, 60, 80
9, 99689, Note_on_c, 3, 64, 0
9, 99689, Note_on_c, 3, 60, 0
9, 99720, Note_on_c, 3, 59, 80
9, 99720, Note_on_c, 3, 62, 80
9, 99809, Note_on_c, 3, 59, 0
9, 99809, Note_on_c, 3, 62, 0
9, 99840, Note_on_c, 3, 65, 80
9, 99840, Note_on_c, 3, 62, 80
9, 99929, Note_on_c, 3, 65, 0
9, 99929, Note_on_c, 3, 62, 0
9, 99960, Note_on_c, 3, 62, 80
9, 99960, Note_on_c, 3, 59, 80
9, 100049, Note_on_c, 3, 62, 0
9, 100049, Note_on_c, 3, 59, 0
9, 100080, Note_on_c, 3, 64, 80
9, 100080, Note_on_c, 3, 60, 80
9, 100169, Note_on_c, 3, 64, 0
9, 100169, Note_on_c, 3, 60, 0
9, 100200, Note_on_c, 3, 67, 80
9, 100200, Note_on_c, 3, 64, 80
9, 100289, Note_on_c, 3, 67, 0
9, 100289, Note_on_c, 3, 64, 0
9, 100320, Note_on_c, 3, 60, 80
9, 100320, Note_on_c, 3, 64, 80
9, 100409, Note_on_c, 3, 60, 0
9, 100409, Note_on_c, 3, 64, 0
9, 100440, Note_on_c, 3, 62, 80
9, 100440, Note_on_c, 3, 59, 80
9, 100529, Note_on_c, 3, 62, 0
9, 100529, Note_on_c, 3, 59, 0
9, 100560, Note_on_c, 3, 65, 80
9, 100560, Note_on_c, 3, 62, 80
9, 100649, Note_on_c, 3, 65, 0
9, 100649, Note_on_c, 3, 62, 0
9, 100680, Note_on_c, 3, 59, 80
9, 100680, Note_on_c, 3, 62, 80
9, 100769, Note_on_c, 3, 59, 0
9, 100769, Note_on_c, 3, 62, 0
9, 100800, Note_on_c, 3, 43, 32
9, 100919, Note_on_c, 3, 43, 0
9, 100920, Note_on_c, 3, 45, 32
9, 101039, Note_on_c, 3, 45, 0
9, 101040, Note_on_c, 3, 47, 32
9, 101159, Note_on_c, 3, 47, 0
9, 101160, Note_on_c, 3, 48, 32
9, 101279, Note_on_c, 3, 48, 0
9, 101280, Note_on_c, 3, 50, 32
9, 101399, Note_on_c, 3, 50, 0
9, 101400, Note_on_c, 3, 52, 32
9, 101519, Note_on_c, 3, 52, 0
9, 101520, Note_on_c, 3, 53, 32
9, 101639, Note_on_c, 3, 53, 0
9, 101640, Note_on_c, 3, 52, 32
9, 101759, Note_on_c, 3, 52, 0
9, 101760, Note_on_c, 3, 53, 32
9, 101879, Note_on_c, 3, 53, 0
9, 101880, Note_on_c, 3, 55, 32
9, 101999, Note_on_c, 3, 55, 0
9, 102000, Note_on_c, 3, 57, 32
9, 102119, Note_on_c, 3, 57, 0
9, 102120, Note_on_c, 3, 59, 32
9, 102239, Note_on_c, 3, 59, 0
9, 102240, Note_on_c, 3, 60, 32
9, 102359, Note_on_c, 3, 60, 0
9, 102600, Note_on_c, 3, 45, 32
9, 102764, Note_on_c, 3, 45, 0
9, 102780, Note_on_c, 3, 57, 32
9, 102824, Note_on_c, 3, 57, 0
9, 102840, Note_on_c, 3, 57, 32
9, 102944, Note_on_c, 3, 57, 0
9, 102960, Note_on_c, 3, 53, 32
9, 103079, Note_on_c, 3, 53, 0
9, 103320, Note_on_c, 3, 53, 32
9, 103320, Note_on_c, 3, 50, 32
9, 103484, Note_on_c, 3, 53, 0
9, 103484, Note_on_c, 3, 50, 0
9, 103500, Note_on_c, 3, 65, 32
9, 103500, Note_on_c, 3, 62, 32
9, 103544, Note_on_c, 3, 65, 0
9, 103544, Note_on_c, 3, 62, 0
9, 103560, Note_on_c, 3, 62, 32
9, 103560, Note_on_c, 3, 65, 32
9, 103664, Note_on_c, 3, 62, 0
9, 103664, Note_on_c, 3, 65, 0
9, 103680, Note_on_c, 3, 62, 32
9, 103680, Note_on_c, 3, 65, 32
9, 103799, Note_on_c, 3, 62, 0
9, 103799, Note_on_c, 3, 65, 0
9, 105480, Note_on_c, 3, 46, 32
9, 105644, Note_on_c, 3, 46, 0
9, 105660, Note_on_c, 3, 58, 32
9, 105704, Note_on_c, 3, 58, 0
9, 105720, Note_on_c, 3, 58, 32
9, 105824, Note_on_c, 3, 58, 0
9, 105840, Note_on_c, 3, 55, 32
9, 105959, Note_on_c, 3, 55, 0
9, 106200, Note_on_c, 3, 51, 32
9, 106364, Note_on_c, 3, 51, 0
9, 106380, Note_on_c, 3, 63, 32
9, 106424, Note_on_c, 3, 63, 0
9, 106440, Note_on_c, 3, 63, 32
9, 106544, Note_on_c, 3, 63, 0
9, 106560, Note_on_c, 3, 63, 32
9, 106679, Note_on_c, 3, 63, 0
9, 108360, Note_on_c, 3, 48, 36
9, 108360, Note_on_c, 3, 36, 36
9, 108524, Note_on_c, 3, 48, 0
9, 108524, Note_on_c, 3, 36, 0
9, 108540, Note_on_c, 3, 60, 38
9, 108540, Note_on_c, 3, 48, 38
9, 108584, Note_on_c, 3, 60, 0
9, 108584, Note_on_c, 3, 48, 0
9, 108600, Note_on_c, 3, 60, 38
9, 108600, Note_on_c, 3, 48, 38
9, 108704, Note_on_c, 3, 60, 0
9, 108704, Note_on_c, 3, 48, 0
9, 108720, Note_on_c, 3, 44, 40
9, 108720, Note_on_c, 3, 56, 40
9, 108839, Note_on_c, 3, 44, 0
9, 108839, Note_on_c, 3, 56, 0
9, 109080, Note_on_c, 3, 53, 44
9, 109080, Note_on_c, 3, 41, 44
9, 109244, Note_on_c, 3, 53, 0
9, 109244, Note_on_c, 3, 41, 0
9, 109260, Note_on_c, 3, 65, 46
9, 109260, Note_on_c, 3, 53, 46
9, 109304, Note_on_c, 3, 65, 0
9, 109304, Note_on_c, 3, 53, 0
9, 109320, Note_on_c, 3, 65, 46
9, 109320, Note_on_c, 3, 53, 46
9, 109424, Note_on_c, 3, 65, 0
9, 109424, Note_on_c, 3, 53, 0
9, 109440, Note_on_c, 3, 61, 48
9, 109440, Note_on_c, 3, 49, 48
9, 109559, Note_on_c, 3, 61, 0
9, 109559, Note_on_c, 3, 49, 0
9, 109800, Note_on_c, 3, 46, 52
9, 109800, Note_on_c, 3, 34, 52
9, 109964, Note_on_c, 3, 46, 0
9, 109964, Note_on_c, 3, 34, 0
9, 109980, Note_on_c, 3, 46, 54
9, 109980, Note_on_c, 3, 58, 54
9, 110024, Note_on_c, 3, 46, 0
9, 110024, Note_on_c, 3, 58, 0
9, 110040, Note_on_c, 3, 46, 54
9, 110040, Note_on_c, 3, 58, 54
9, 110144, Note_on_c, 3, 46, 0
9, 110144, Note_on_c, 3, 58, 0
9, 110160, Note_on_c, 3, 42, 56
9, 110160, Note_on_c, 3, 54, 56
9, 110279, Note_on_c, 3, 42, 0
9, 110279, Note_on_c, 3, 54, 0
9, 110520, Note_on_c, 3, 39, 60
9, 110520, Note_on_c, 3, 51, 60
9, 110684, Note_on_c, 3, 39, 0
9, 110684, Note_on_c, 3, 51, 0
9, 110700, Note_on_c, 3, 63, 62
9, 110700, Note_on_c, 3, 51, 62
9, 110744, Note_on_c, 3, 63, 0
9, 110744, Note_on_c, 3, 51, 0
9, 110760, Note_on_c, 3, 51, 62
9, 110760, Note_on_c, 3, 63, 62
9, 110864, Note_on_c, 3, 51, 0
9, 110864, Note_on_c, 3, 63, 0
9, 110880, Note_on_c, 3, 47, 64
9, 110880, Note_on_c, 3, 59, 64
9, 110999, Note_on_c, 3, 47, 0
9, 110999, Note_on_c, 3, 59, 0
9, 111240, Note_on_c, 3, 44, 68
9, 111404, Note_on_c, 3, 44, 0
9, 111420, Note_on_c, 3, 56, 70
9, 111420, Note_on_c, 3, 44, 70
9, 111464, Note_on_c, 3, 56, 0
9, 111464, Note_on_c, 3, 44, 0
9, 111480, Note_on_c, 3, 44, 70
9, 111480, Note_on_c, 3, 56, 70
9, 111584, Note_on_c, 3, 44, 0
9, 111584, Note_on_c, 3, 56, 0
9, 111600, Note_on_c, 3, 40, 72
9, 111600, Note_on_c, 3, 52, 72
9, 111719, Note_on_c, 3, 40, 0
9, 111719, Note_on_c, 3, 52, 0
9, 111960, Note_on_c, 3, 49, 76
9, 111960, Note_on_c, 3, 37, 76
9, 112124, Note_on_c, 3, 49, 0
9, 112124, Note_on_c, 3, 37, 0
9, 112140, Note_on_c, 3, 49, 78
9, 112140, Note_on_c, 3, 61, 78
9, 112184, Note_on_c, 3, 49, 0
9, 112184, Note_on_c, 3, 61, 0
9, 112200, Note_on_c, 3, 49, 78
9, 112200, Note_on_c, 3, 61, 78
9, 112304, Note_on_c, 3, 49, 0
9, 112304, Note_on_c, 3, 61, 0
9, 112320, Note_on_c, 3, 45, 80
9, 112320, Note_on_c, 3, 57, 80
9, 112439, Note_on_c, 3, 45, 0
9, 112439, Note_on_c, 3, 57, 0
9, 112680, Note_on_c, 3, 45, 80
9, 112844, Note_on_c, 3, 45, 0
9, 112860, Note_on_c, 3, 45, 80
9, 112860, Note_on_c, 3, 57, 80
9, 112904, Note_on_c, 3, 45, 0
9, 112904, Note_on_c, 3, 57, 0
9, 112920, Note_on_c, 3, 45, 80
9, 112920, Note_on_c, 3, 57, 80
9, 113024, Note_on_c, 3, 45, 0
9, 113024, Note_on_c, 3, 57, 0
9, 113400, Note_on_c, 3, 46, 92
9, 113400, Note_on_c, 3, 34, 92
9, 113564, Note_on_c, 3, 46, 0
9, 113564, Note_on_c, 3, 34, 0
9, 113580, Note_on_c, 3, 46, 92
9, 113580, Note_on_c, 3, 58, 92
9, 113624, Note_on_c, 3, 46, 0
9, 113624, Note_on_c, 3, 58, 0
9, 113640, Note_on_c, 3, 58, 92
9, 113640, Note_on_c, 3, 46, 92
9, 113744, Note_on_c, 3, 58, 0
9, 113744, Note_on_c, 3, 46, 0
9, 114120, Note_on_c, 3, 47, 92
9, 114120, Note_on_c, 3, 35, 92
9, 114284, Note_on_c, 3, 47, 0
9, 114284, Note_on_c, 3, 35, 0
9, 114300, Note_on_c, 3, 47, 92
9, 114300, Note_on_c, 3, 59, 92
9, 114344, Note_on_c, 3, 47, 0
9, 114344, Note_on_c, 3, 59, 0
9, 114360, Note_on_c, 3, 47, 92
9, 114360, Note_on_c, 3, 59, 92
9, 114809, Note_on_c, 3, 47, 0
9, 114809, Note_on_c, 3, 59, 0
9, 114840, Note_on_c, 3, 59, 44
9, 115004, Note_on_c, 3, 59, 0
9, 115020, Note_on_c, 3, 47, 44
9, 115064, Note_on_c, 3, 47, 0
9, 115080, Note_on_c, 3, 47, 44
9, 115184, Note_on_c, 3, 47, 0
9, 115200, Note_on_c, 3, 52, 44
9, 115289, Note_on_c, 3, 52, 0
9, 115320, Note_on_c, 3, 51, 44
9, 115320, Note_on_c, 3, 54, 44
9, 115409, Note_on_c, 3, 51, 0
9, 115409, Note_on_c, 3, 54, 0
9, 115440, Note_on_c, 3, 52, 44
9, 115440, Note_on_c, 3, 55, 44
9, 115529, Note_on_c, 3, 52, 0
9, 115529, Note_on_c, 3, 55, 0
9, 115560, Note_on_c, 3, 51, 44
9, 115560, Note_on_c, 3, 54, 44
9, 115649, Note_on_c, 3, 51, 0
9, 115649, Note_on_c, 3, 54, 0
9, 115680, Note_on_c, 3, 52, 44
9, 115680, Note_on_c, 3, 55, 44
9, 115769, Note_on_c, 3, 52, 0
9, 115769, Note_on_c, 3, 55, 0
9, 115800, Note_on_c, 3, 54, 44
9, 115800, Note_on_c, 3, 57, 44
9, 115889, Note_on_c, 3, 54, 0
9, 115889, Note_on_c, 3, 57, 0
9, 115920, Note_on_c, 3, 52, 44
9, 115920, Note_on_c, 3, 55, 44
9, 116009, Note_on_c, 3, 52, 0
9, 116009, Note_on_c, 3, 55, 0
9, 116040, Note_on_c, 3, 55, 44
9, 116040, Note_on_c, 3, 59, 44
9, 116129, Note_on_c, 3, 55, 0
9, 116129, Note_on_c, 3, 59, 0
9, 116160, Note_on_c, 3, 55, 44
9, 116160, Note_on_c, 3, 59, 44
9, 116249, Note_on_c, 3, 55, 0
9, 116249, Note_on_c, 3, 59, 0
9, 116280, Note_on_c, 3, 55, 44
9, 116280, Note_on_c, 3, 59, 44
9, 116369, Note_on_c, 3, 55, 0
9, 116369, Note_on_c, 3, 59, 0
9, 116400, Note_on_c, 3, 57, 44
9, 116400, Note_on_c, 3, 54, 44
9, 116489, Note_on_c, 3, 57, 0
9, 116489, Note_on_c, 3, 54, 0
9, 116520, Note_on_c, 3, 55, 44
9, 116520, Note_on_c, 3, 52, 44
9, 116609, Note_on_c, 3, 55, 0
9, 116609, Note_on_c, 3, 52, 0
9, 116640, Note_on_c, 3, 54, 44
9, 116640, Note_on_c, 3, 57, 44
9, 116729, Note_on_c, 3, 54, 0
9, 116729, Note_on_c, 3, 57, 0
9, 116760, Note_on_c, 3, 55, 44
9, 116760, Note_on_c, 3, 52, 44
9, 116849, Note_on_c, 3, 55, 0
9, 116849, Note_on_c, 3, 52, 0
9, 116880, Note_on_c, 3, 54, 44
9, 116880, Note_on_c, 3, 51, 44
9, 116969, Note_on_c, 3, 54, 0
9, 116969, Note_on_c, 3, 51, 0
9, 117000, Note_on_c, 3, 59, 44
9, 117164, Note_on_c, 3, 59, 0
9, 117180, Note_on_c, 3, 47, 44
9, 117224, Note_on_c, 3, 47, 0
9, 117240, Note_on_c, 3, 47, 44
9, 117344, Note_on_c, 3, 47, 0
9, 117360, Note_on_c, 3, 52, 44
9, 117360, Note_on_c, 3, 47, 44
9, 117449, Note_on_c, 3, 52, 0
9, 117449, Note_on_c, 3, 47, 0
9, 117480, Note_on_c, 3, 54, 44
9, 117480, Note_on_c, 3, 47, 44
9, 117569, Note_on_c, 3, 54, 0
9, 117569, Note_on_c, 3, 47, 0
9, 117600, Note_on_c, 3, 55, 44
9, 117600, Note_on_c, 3, 47, 44
9, 117689, Note_on_c, 3, 55, 0
9, 117689, Note_on_c, 3, 47, 0
9, 117720, Note_on_c, 3, 47, 44
9, 117720, Note_on_c, 3, 54, 44
9, 117809, Note_on_c, 3, 47, 0
9, 117809, Note_on_c, 3, 54, 0
9, 117840, Note_on_c, 3, 55, 44
9, 117840, Note_on_c, 3, 47, 44
9, 117929, Note_on_c, 3, 55, 0
9, 117929, Note_on_c, 3, 47, 0
9, 117960, Note_on_c, 3, 47, 44
9, 117960, Note_on_c, 3, 57, 44
9, 118049, Note_on_c, 3, 47, 0
9, 118049, Note_on_c, 3, 57, 0
9, 118080, Note_on_c, 3, 56, 44
9, 118080, Note_on_c, 3, 52, 44
9, 118169, Note_on_c, 3, 56, 0
9, 118169, Note_on_c, 3, 52, 0
9, 118200, Note_on_c, 3, 64, 44
9, 118200, Note_on_c, 3, 52, 44
9, 118289, Note_on_c, 3, 64, 0
9, 118289, Note_on_c, 3, 52, 0
9, 118320, Note_on_c, 3, 64, 44
9, 118320, Note_on_c, 3, 52, 44
9, 118409, Note_on_c, 3, 64, 0
9, 118409, Note_on_c, 3, 52, 0
9, 118440, Note_on_c, 3, 60, 44
9, 118440, Note_on_c, 3, 64, 44
9, 118529, Note_on_c, 3, 60, 0
9, 118529, Note_on_c, 3, 64, 0
9, 118560, Note_on_c, 3, 59, 44
9, 118560, Note_on_c, 3, 62, 44
9, 118649, Note_on_c, 3, 59, 0
9, 118649, Note_on_c, 3, 62, 0
9, 118680, Note_on_c, 3, 57, 44
9, 118680, Note_on_c, 3, 60, 44
9, 118769, Note_on_c, 3, 57, 0
9, 118769, Note_on_c, 3, 60, 0
9, 118800, Note_on_c, 3, 59, 44
9, 118800, Note_on_c, 3, 62, 44
9, 118889, Note_on_c, 3, 59, 0
9, 118889, Note_on_c, 3, 62, 0
9, 118920, Note_on_c, 3, 60, 44
9, 118920, Note_on_c, 3, 57, 44
9, 119009, Note_on_c, 3, 60, 0
9, 119009, Note_on_c, 3, 57, 0
9, 119040, Note_on_c, 3, 56, 44
9, 119040, Note_on_c, 3, 59, 44
9, 119129, Note_on_c, 3, 56, 0
9, 119129, Note_on_c, 3, 59, 0
9, 119160, Note_on_c, 3, 64, 44
9, 119324, Note_on_c, 3, 64, 0
9, 119340, Note_on_c, 3, 52, 44
9, 119384, Note_on_c, 3, 52, 0
9, 119400, Note_on_c, 3, 52, 44
9, 119504, Note_on_c, 3, 52, 0
9, 119520, Note_on_c, 3, 52, 44
9, 119520, Note_on_c, 3, 57, 44
9, 119609, Note_on_c, 3, 52, 0
9, 119609, Note_on_c, 3, 57, 0
9, 119640, Note_on_c, 3, 59, 44
9, 119640, Note_on_c, 3, 56, 44
9, 119729, Note_on_c, 3, 59, 0
9, 119729, Note_on_c, 3, 56, 0
9, 119760, Note_on_c, 3, 60, 44
9, 119760, Note_on_c, 3, 57, 44
9, 119849, Note_on_c, 3, 60, 0
9, 119849, Note_on_c, 3, 57, 0
9, 119880, Note_on_c, 3, 56, 44
9, 119880, Note_on_c, 3, 59, 44
9, 119969, Note_on_c, 3, 56, 0
9, 119969, Note_on_c, 3, 59, 0
9, 120000, Note_on_c, 3, 57, 44
9, 120000, Note_on_c, 3, 60, 44
9, 120089, Note_on_c, 3, 57, 0
9, 120089, Note_on_c, 3, 60, 0
9, 120120, Note_on_c, 3, 59, 44
9, 120120, Note_on_c, 3, 62, 44
9, 120209, Note_on_c, 3, 59, 0
9, 120209, Note_on_c, 3, 62, 0
9, 120240, Note_on_c, 3, 60, 44
9, 120240, Note_on_c, 3, 57, 44
9, 120329, Note_on_c, 3, 60, 0
9, 120329, Note_on_c, 3, 57, 0
9, 120360, Note_on_c, 3, 60, 44
9, 120360, Note_on_c, 3, 64, 44
9, 120449, Note_on_c, 3, 60, 0
9, 120449, Note_on_c, 3, 64, 0
9, 120480, Note_on_c, 3, 64, 44
9, 120480, Note_on_c, 3, 60, 44
9, 120569, Note_on_c, 3, 64, 0
9, 120569, Note_on_c, 3, 60, 0
9, 120600, Note_on_c, 3, 64, 44
9, 120600, Note_on_c, 3, 60, 44
9, 120689, Note_on_c, 3, 64, 0
9, 120689, Note_on_c, 3, 60, 0
9, 120720, Note_on_c, 3, 59, 44
9, 120720, Note_on_c, 3, 62, 44
9, 120809, Note_on_c, 3, 59, 0
9, 120809, Note_on_c, 3, 62, 0
9, 120840, Note_on_c, 3, 60, 44
9, 120840, Note_on_c, 3, 57, 44
9, 120929, Note_on_c, 3, 60, 0
9, 120929, Note_on_c, 3, 57, 0
9, 120960, Note_on_c, 3, 62, 44
9, 120960, Note_on_c, 3, 59, 44
9, 121049, Note_on_c, 3, 62, 0
9, 121049, Note_on_c, 3, 59, 0
9, 121080, Note_on_c, 3, 60, 44
9, 121080, Note_on_c, 3, 57, 44
9, 121169, Note_on_c, 3, 60, 0
9, 121169, Note_on_c, 3, 57, 0
9, 121200, Note_on_c, 3, 59, 44
9, 121200, Note_on_c, 3, 56, 44
9, 121289, Note_on_c, 3, 59, 0
9, 121289, Note_on_c, 3, 56, 0
9, 121680, Note_on_c, 3, 60, 44
9, 121680, Note_on_c, 3, 57, 44
9, 121769, Note_on_c, 3, 60, 0
9, 121769, Note_on_c, 3, 57, 0
9, 121800, Note_on_c, 3, 58, 44
9, 121800, Note_on_c, 3, 55, 44
9, 121889, Note_on_c, 3, 58, 0
9, 121889, Note_on_c, 3, 55, 0
9, 121920, Note_on_c, 3, 57, 44
9, 121920, Note_on_c, 3, 53, 44
9, 122009, Note_on_c, 3, 57, 0
9, 122009, Note_on_c, 3, 53, 0
9, 122040, Note_on_c, 3, 58, 44
9, 122040, Note_on_c, 3, 62, 44
9, 122129, Note_on_c, 3, 58, 0
9, 122129, Note_on_c, 3, 62, 0
9, 122160, Note_on_c, 3, 57, 44
9, 122160, Note_on_c, 3, 60, 44
9, 122249, Note_on_c, 3, 57, 0
9, 122249, Note_on_c, 3, 60, 0
9, 122280, Note_on_c, 3, 58, 44
9, 122280, Note_on_c, 3, 55, 44
9, 122369, Note_on_c, 3, 58, 0
9, 122369, Note_on_c, 3, 55, 0
9, 122760, Note_on_c, 3, 65, 44
9, 122760, Note_on_c, 3, 57, 44
9, 122849, Note_on_c, 3, 65, 0
9, 122849, Note_on_c, 3, 57, 0
9, 122880, Note_on_c, 3, 58, 44
9, 122880, Note_on_c, 3, 55, 44
9, 122969, Note_on_c, 3, 58, 0
9, 122969, Note_on_c, 3, 55, 0
9, 123000, Note_on_c, 3, 53, 44
9, 123000, Note_on_c, 3, 57, 44
9, 123089, Note_on_c, 3, 53, 0
9, 123089, Note_on_c, 3, 57, 0
9, 123120, Note_on_c, 3, 55, 44
9, 123120, Note_on_c, 3, 58, 44
9, 123209, Note_on_c, 3, 55, 0
9, 123209, Note_on_c, 3, 58, 0
9, 123240, Note_on_c, 3, 57, 44
9, 123240, Note_on_c, 3, 53, 44
9, 123329, Note_on_c, 3, 57, 0
9, 123329, Note_on_c, 3, 53, 0
9, 123360, Note_on_c, 3, 55, 44
9, 123360, Note_on_c, 3, 52, 44
9, 123449, Note_on_c, 3, 55, 0
9, 123449, Note_on_c, 3, 52, 0
9, 123840, Note_on_c, 3, 57, 44
9, 123840, Note_on_c, 3, 65, 44
9, 123929, Note_on_c, 3, 57, 0
9, 123929, Note_on_c, 3, 65, 0
9, 123960, Note_on_c, 3, 55, 44
9, 123960, Note_on_c, 3, 58, 44
9, 124049, Note_on_c, 3, 55, 0
9, 124049, Note_on_c, 3, 58, 0
9, 124080, Note_on_c, 3, 57, 44
9, 124080, Note_on_c, 3, 53, 44
9, 124169, Note_on_c, 3, 57, 0
9, 124169, Note_on_c, 3, 53, 0
9, 124200, Note_on_c, 3, 58, 44
9, 124200, Note_on_c, 3, 62, 44
9, 124289, Note_on_c, 3, 58, 0
9, 124289, Note_on_c, 3, 62, 0
9, 124320, Note_on_c, 3, 57, 44
9, 124320, Note_on_c, 3, 60, 44
9, 124409, Note_on_c, 3, 57, 0
9, 124409, Note_on_c, 3, 60, 0
9, 124440, Note_on_c, 3, 55, 44
9, 124440, Note_on_c, 3, 58, 44
9, 124529, Note_on_c, 3, 55, 0
9, 124529, Note_on_c, 3, 58, 0
9, 124920, Note_on_c, 3, 60, 44
9, 124920, Note_on_c, 3, 57, 44
9, 125009, Note_on_c, 3, 60, 0
9, 125009, Note_on_c, 3, 57, 0
9, 125040, Note_on_c, 3, 55, 44
9, 125040, Note_on_c, 3, 64, 44
9, 125129, Note_on_c, 3, 55, 0
9, 125129, Note_on_c, 3, 64, 0
9, 125160, Note_on_c, 3, 57, 44
9, 125160, Note_on_c, 3, 65, 44
9, 125249, Note_on_c, 3, 57, 0
9, 125249, Note_on_c, 3, 65, 0
9, 125280, Note_on_c, 3, 64, 44
9, 125280, Note_on_c, 3, 55, 44
9, 125369, Note_on_c, 3, 64, 0
9, 125369, Note_on_c, 3, 55, 0
9, 125400, Note_on_c, 3, 65, 44
9, 125400, Note_on_c, 3, 57, 44
9, 125489, Note_on_c, 3, 65, 0
9, 125489, Note_on_c, 3, 57, 0
9, 125520, Note_on_c, 3, 67, 44
9, 125520, Note_on_c, 3, 58, 44
9, 125609, Note_on_c, 3, 67, 0
9, 125609, Note_on_c, 3, 58, 0
9, 125640, Note_on_c, 3, 57, 44
9, 125640, Note_on_c, 3, 60, 44
9, 125729, Note_on_c, 3, 57, 0
9, 125729, Note_on_c, 3, 60, 0
9, 125760, Note_on_c, 3, 55, 44
9, 125760, Note_on_c, 3, 58, 44
9, 125849, Note_on_c, 3, 55, 0
9, 125849, Note_on_c, 3, 58, 0
9, 125880, Note_on_c, 3, 53, 44
9, 125880, Note_on_c, 3, 57, 44
9, 125969, Note_on_c, 3, 53, 0
9, 125969, Note_on_c, 3, 57, 0
9, 126000, Note_on_c, 3, 53, 44
9, 126000, Note_on_c, 3, 57, 44
9, 126089, Note_on_c, 3, 53, 0
9, 126089, Note_on_c, 3, 57, 0
9, 126120, Note_on_c, 3, 58, 44
9, 126120, Note_on_c, 3, 55, 44
9, 126209, Note_on_c, 3, 58, 0
9, 126209, Note_on_c, 3, 55, 0
9, 126240, Note_on_c, 3, 57, 44
9, 126240, Note_on_c, 3, 60, 44
9, 126329, Note_on_c, 3, 57, 0
9, 126329, Note_on_c, 3, 60, 0
9, 126360, Note_on_c, 3, 60, 43
9, 126360, Note_on_c, 3, 57, 43
9, 126449, Note_on_c, 3, 60, 0
9, 126449, Note_on_c, 3, 57, 0
9, 126480, Note_on_c, 3, 58, 43
9, 126480, Note_on_c, 3, 55, 43
9, 126569, Note_on_c, 3, 58, 0
9, 126569, Note_on_c, 3, 55, 0
9, 126600, Note_on_c, 3, 60, 43
9, 126600, Note_on_c, 3, 57, 43
9, 126689, Note_on_c, 3, 60, 0
9, 126689, Note_on_c, 3, 57, 0
9, 127080, Note_on_c, 3, 60, 41
9, 127244, Note_on_c, 3, 60, 0
9, 127260, Note_on_c, 3, 48, 41
9, 127304, Note_on_c, 3, 48, 0
9, 127320, Note_on_c, 3, 48, 40
9, 127424, Note_on_c, 3, 48, 0
9, 127800, Note_on_c, 3, 57, 39
9, 127800, Note_on_c, 3, 53, 39
9, 127904, Note_on_c, 3, 57, 0
9, 127904, Note_on_c, 3, 53, 0
9, 127920, Note_on_c, 3, 52, 39
9, 127920, Note_on_c, 3, 55, 39
9, 128024, Note_on_c, 3, 52, 0
9, 128024, Note_on_c, 3, 55, 0
9, 128040, Note_on_c, 3, 50, 38
9, 128040, Note_on_c, 3, 53, 38
9, 128144, Note_on_c, 3, 50, 0
9, 128144, Note_on_c, 3, 53, 0
9, 128160, Note_on_c, 3, 50, 38
9, 128160, Note_on_c, 3, 53, 38
9, 128264, Note_on_c, 3, 50, 0
9, 128264, Note_on_c, 3, 53, 0
9, 128280, Note_on_c, 3, 52, 38
9, 128280, Note_on_c, 3, 55, 38
9, 128384, Note_on_c, 3, 52, 0
9, 128384, Note_on_c, 3, 55, 0
9, 128400, Note_on_c, 3, 53, 37
9, 128400, Note_on_c, 3, 57, 37
9, 128504, Note_on_c, 3, 53, 0
9, 128504, Note_on_c, 3, 57, 0
9, 128520, Note_on_c, 3, 53, 37
9, 128520, Note_on_c, 3, 57, 37
9, 128624, Note_on_c, 3, 53, 0
9, 128624, Note_on_c, 3, 57, 0
9, 128640, Note_on_c, 3, 55, 36
9, 128640, Note_on_c, 3, 52, 36
9, 128744, Note_on_c, 3, 55, 0
9, 128744, Note_on_c, 3, 52, 0
9, 128760, Note_on_c, 3, 57, 36
9, 128760, Note_on_c, 3, 53, 36
9, 128879, Note_on_c, 3, 57, 0
9, 128879, Note_on_c, 3, 53, 0
9, 129960, Note_on_c, 3, 57, 32
9, 129960, Note_on_c, 3, 53, 32
9, 130064, Note_on_c, 3, 57, 0
9, 130064, Note_on_c, 3, 53, 0
9, 130080, Note_on_c, 3, 52, 32
9, 130080, Note_on_c, 3, 55, 32
9, 130184, Note_on_c, 3, 52, 0
9, 130184, Note_on_c, 3, 55, 0
9, 130200, Note_on_c, 3, 50, 32
9, 130200, Note_on_c, 3, 53, 32
9, 130304, Note_on_c, 3, 50, 0
9, 130304, Note_on_c, 3, 53, 0
9, 130320, Note_on_c, 3, 53, 32
9, 130320, Note_on_c, 3, 50, 32
9, 130424, Note_on_c, 3, 53, 0
9, 130424, Note_on_c, 3, 50, 0
9, 130440, Note_on_c, 3, 55, 32
9, 130440, Note_on_c, 3, 52, 32
9, 130544, Note_on_c, 3, 55, 0
9, 130544, Note_on_c, 3, 52, 0
9, 130560, Note_on_c, 3, 57, 32
9, 130560, Note_on_c, 3, 53, 32
9, 130664, Note_on_c, 3, 57, 0
9, 130664, Note_on_c, 3, 53, 0
9, 130680, Note_on_c, 3, 53, 32
9, 130680, Note_on_c, 3, 57, 32
9, 130784, Note_on_c, 3, 53, 0
9, 130784, Note_on_c, 3, 57, 0
9, 130800, Note_on_c, 3, 55, 32
9, 130800, Note_on_c, 3, 52, 32
9, 130904, Note_on_c, 3, 55, 0
9, 130904, Note_on_c, 3, 52, 0
9, 130920, Note_on_c, 3, 57, 32
9, 130920, Note_on_c, 3, 53, 32
9, 131039, Note_on_c, 3, 57, 0
9, 131039, Note_on_c, 3, 53, 0
9, 133200, Note_on_c, 3, 57, 32
9, 133364, Note_on_c, 3, 57, 0
9, 133380, Note_on_c, 3, 45, 32
9, 133424, Note_on_c, 3, 45, 0
9, 133440, Note_on_c, 3, 45, 32
9, 133544, Note_on_c, 3, 45, 0
9, 133560, Note_on_c, 3, 50, 32
9, 133560, Note_on_c, 3, 53, 32
9, 133664, Note_on_c, 3, 50, 0
9, 133664, Note_on_c, 3, 53, 0
9, 133680, Note_on_c, 3, 55, 32
9, 133680, Note_on_c, 3, 52, 32
9, 133784, Note_on_c, 3, 55, 0
9, 133784, Note_on_c, 3, 52, 0
9, 133800, Note_on_c, 3, 53, 32
9, 133800, Note_on_c, 3, 57, 32
9, 133904, Note_on_c, 3, 53, 0
9, 133904, Note_on_c, 3, 57, 0
9, 133920, Note_on_c, 3, 52, 32
9, 133920, Note_on_c, 3, 55, 32
9, 134024, Note_on_c, 3, 52, 0
9, 134024, Note_on_c, 3, 55, 0
9, 134040, Note_on_c, 3, 57, 32
9, 134040, Note_on_c, 3, 53, 32
9, 134144, Note_on_c, 3, 57, 0
9, 134144, Note_on_c, 3, 53, 0
9, 134160, Note_on_c, 3, 55, 32
9, 134160, Note_on_c, 3, 57, 32
9, 134264, Note_on_c, 3, 55, 0
9, 134264, Note_on_c, 3, 57, 0
9, 134280, Note_on_c, 3, 53, 32
9, 134280, Note_on_c, 3, 57, 32
9, 134384, Note_on_c, 3, 53, 0
9, 134384, Note_on_c, 3, 57, 0
9, 134400, Note_on_c, 3, 65, 32
9, 134400, Note_on_c, 3, 57, 32
9, 134504, Note_on_c, 3, 65, 0
9, 134504, Note_on_c, 3, 57, 0
9, 134520, Note_on_c, 3, 65, 32
9, 134520, Note_on_c, 3, 57, 32
9, 134624, Note_on_c, 3, 65, 0
9, 134624, Note_on_c, 3, 57, 0
9, 134640, Note_on_c, 3, 65, 32
9, 134640, Note_on_c, 3, 57, 32
9, 134744, Note_on_c, 3, 65, 0
9, 134744, Note_on_c, 3, 57, 0
9, 134760, Note_on_c, 3, 64, 32
9, 134760, Note_on_c, 3, 55, 32
9, 134864, Note_on_c, 3, 64, 0
9, 134864, Note_on_c, 3, 55, 0
9, 134880, Note_on_c, 3, 53, 32
9, 134880, Note_on_c, 3, 62, 32
9, 134984, Note_on_c, 3, 53, 0
9, 134984, Note_on_c, 3, 62, 0
9, 135000, Note_on_c, 3, 64, 32
9, 135000, Note_on_c, 3, 55, 32
9, 135104, Note_on_c, 3, 64, 0
9, 135104, Note_on_c, 3, 55, 0
9, 135120, Note_on_c, 3, 62, 32
9, 135120, Note_on_c, 3, 53, 32
9, 135224, Note_on_c, 3, 62, 0
9, 135224, Note_on_c, 3, 53, 0
9, 135240, Note_on_c, 3, 61, 32
9, 135240, Note_on_c, 3, 52, 32
9, 135344, Note_on_c, 3, 61, 0
9, 135344, Note_on_c, 3, 52, 0
9, 135360, Note_on_c, 3, 53, 32
9, 135360, Note_on_c, 3, 62, 32
9, 135464, Note_on_c, 3, 53, 0
9, 135464, Note_on_c, 3, 62, 0
9, 135480, Note_on_c, 3, 65, 32
9, 135584, Note_on_c, 3, 65, 0
9, 135600, Note_on_c, 3, 65, 32
9, 135704, Note_on_c, 3, 65, 0
9, 135720, Note_on_c, 3, 65, 32
9, 135824, Note_on_c, 3, 65, 0
9, 135840, Note_on_c, 3, 64, 32
9, 135944, Note_on_c, 3, 64, 0
9, 135960, Note_on_c, 3, 62, 32
9, 136064, Note_on_c, 3, 62, 0
9, 136080, Note_on_c, 3, 64, 32
9, 136184, Note_on_c, 3, 64, 0
9, 136200, Note_on_c, 3, 62, 32
9, 136304, Note_on_c, 3, 62, 0
9, 136320, Note_on_c, 3, 61, 32
9, 136424, Note_on_c, 3, 61, 0
9, 136440, Note_on_c, 3, 62, 32
9, 136544, Note_on_c, 3, 62, 0
9, 136560, Note_on_c, 3, 67, 32
9, 136664, Note_on_c, 3, 67, 0
9, 136680, Note_on_c, 3, 65, 32
9, 136784, Note_on_c, 3, 65, 0
9, 136800, Note_on_c, 3, 65, 32
9, 136904, Note_on_c, 3, 65, 0
9, 136920, Note_on_c, 3, 63, 32
9, 137024, Note_on_c, 3, 63, 0
9, 137040, Note_on_c, 3, 59, 32
9, 137144, Note_on_c, 3, 59, 0
9, 137160, Note_on_c, 3, 60, 32
9, 137264, Note_on_c, 3, 60, 0
9, 137280, Note_on_c, 3, 65, 32
9, 137384, Note_on_c, 3, 65, 0
9, 137400, Note_on_c, 3, 63, 32
9, 137504, Note_on_c, 3, 63, 0
9, 137520, Note_on_c, 3, 65, 32
9, 137624, Note_on_c, 3, 65, 0
9, 137640, Note_on_c, 3, 63, 32
9, 137744, Note_on_c, 3, 63, 0
9, 137760, Note_on_c, 3, 67, 32
9, 137864, Note_on_c, 3, 67, 0
9, 137880, Note_on_c, 3, 67, 32
9, 138044, Note_on_c, 3, 67, 0
9, 138060, Note_on_c, 3, 55, 32
9, 138104, Note_on_c, 3, 55, 0
9, 138120, Note_on_c, 3, 55, 32
9, 138224, Note_on_c, 3, 55, 0
9, 138240, Note_on_c, 3, 58, 32
9, 138344, Note_on_c, 3, 58, 0
9, 138360, Note_on_c, 3, 58, 32
9, 138464, Note_on_c, 3, 58, 0
9, 138480, Note_on_c, 3, 58, 32
9, 138584, Note_on_c, 3, 58, 0
9, 138600, Note_on_c, 3, 58, 32
9, 138704, Note_on_c, 3, 58, 0
9, 138720, Note_on_c, 3, 58, 32
9, 138824, Note_on_c, 3, 58, 0
9, 138840, Note_on_c, 3, 58, 32
9, 138944, Note_on_c, 3, 58, 0
9, 138960, Note_on_c, 3, 58, 32
9, 139064, Note_on_c, 3, 58, 0
9, 139080, Note_on_c, 3, 58, 32
9, 139184, Note_on_c, 3, 58, 0
9, 139200, Note_on_c, 3, 58, 32
9, 139304, Note_on_c, 3, 58, 0
9, 139320, Note_on_c, 3, 58, 32
9, 139424, Note_on_c, 3, 58, 0
9, 139440, Note_on_c, 3, 58, 32
9, 139544, Note_on_c, 3, 58, 0
9, 139560, Note_on_c, 3, 58, 32
9, 139664, Note_on_c, 3, 58, 0
9, 139680, Note_on_c, 3, 58, 32
9, 139784, Note_on_c, 3, 58, 0
9, 139800, Note_on_c, 3, 58, 32
9, 139904, Note_on_c, 3, 58, 0
9, 139920, Note_on_c, 3, 58, 32
9, 140024, Note_on_c, 3, 58, 0
9, 140040, Note_on_c, 3, 58, 32
9, 140144, Note_on_c, 3, 58, 0
9, 140160, Note_on_c, 3, 58, 32
9, 140264, Note_on_c, 3, 58, 0
9, 140280, Note_on_c, 3, 58, 32
9, 140384, Note_on_c, 3, 58, 0
9, 140400, Note_on_c, 3, 58, 32
9, 140519, Note_on_c, 3, 58, 0
9, 141840, Note_on_c, 3, 58, 32
9, 141959, Note_on_c, 3, 58, 0
9, 142200, Note_on_c, 3, 58, 32
9, 142319, Note_on_c, 3, 58, 0
9, 142560, Note_on_c, 3, 58, 32
9, 142679, Note_on_c, 3, 58, 0
9, 142920, Note_on_c, 3, 58, 32
9, 143039, Note_on_c, 3, 58, 0
9, 143280, Note_on_c, 3, 46, 32
9, 143280, Note_on_c, 3, 58, 32
9, 143399, Note_on_c, 3, 46, 0
9, 143399, Note_on_c, 3, 58, 0
9, 144720, Note_on_c, 3, 57, 44
9, 144720, Note_on_c, 3, 45, 44
9, 144839, Note_on_c, 3, 57, 0
9, 144839, Note_on_c, 3, 45, 0
9, 145440, Note_on_c, 3, 57, 62
9, 145440, Note_on_c, 3, 45, 62
9, 145559, Note_on_c, 3, 57, 0
9, 145559, Note_on_c, 3, 45, 0
9, 146160, Note_on_c, 3, 57, 80
9, 146160, Note_on_c, 3, 45, 80
9, 146279, Note_on_c, 3, 57, 0
9, 146279, Note_on_c, 3, 45, 0
9, 146880, Note_on_c, 3, 45, 86
9, 146880, Note_on_c, 3, 57, 86
9, 146999, Note_on_c, 3, 45, 0
9, 146999, Note_on_c, 3, 57, 0
9, 147600, Note_on_c, 3, 38, 92
9, 147764, Note_on_c, 3, 38, 0
9, 147780, Note_on_c, 3, 38, 92
9, 147824, Note_on_c, 3, 38, 0
9, 147840, Note_on_c, 3, 38, 92
9, 147944, Note_on_c, 3, 38, 0
9, 147960, Note_on_c, 3, 38, 92
9, 148124, Note_on_c, 3, 38, 0
9, 148140, Note_on_c, 3, 38, 92
9, 148184, Note_on_c, 3, 38, 0
9, 148200, Note_on_c, 3, 38, 92
9, 148304, Note_on_c, 3, 38, 0
9, 148320, Note_on_c, 3, 38, 92
9, 148484, Note_on_c, 3, 38, 0
9, 148500, Note_on_c, 3, 38, 92
9, 148544, Note_on_c, 3, 38, 0
9, 148560, Note_on_c, 3, 38, 92
9, 148664, Note_on_c, 3, 38, 0
9, 148680, Note_on_c, 3, 38, 92
9, 148844, Note_on_c, 3, 38, 0
9, 148860, Note_on_c, 3, 38, 92
9, 148904, Note_on_c, 3, 38, 0
9, 148920, Note_on_c, 3, 38, 92
9, 149024, Note_on_c, 3, 38, 0
9, 149040, Note_on_c, 3, 38, 92
9, 149204, Note_on_c, 3, 38, 0
9, 149220, Note_on_c, 3, 38, 92
9, 149264, Note_on_c, 3, 38, 0
9, 149280, Note_on_c, 3, 38, 92
9, 149384, Note_on_c, 3, 38, 0
9, 149400, Note_on_c, 3, 38, 92
9, 149564, Note_on_c, 3, 38, 0
9, 149580, Note_on_c, 3, 38, 92
9, 149624, Note_on_c, 3, 38, 0
9, 149640, Note_on_c, 3, 38, 92
9, 149744, Note_on_c, 3, 38, 0
9, 149760, Note_on_c, 3, 38, 92
9, 149924, Note_on_c, 3, 38, 0
9, 149940, Note_on_c, 3, 38, 92
9, 149984, Note_on_c, 3, 38, 0
9, 150000, Note_on_c, 3, 38, 92
9, 150104, Note_on_c, 3, 38, 0
9, 150120, Note_on_c, 3, 38, 92
9, 150284, Note_on_c, 3, 38, 0
9, 150300, Note_on_c, 3, 38, 92
9, 150344, Note_on_c, 3, 38, 0
9, 150360, Note_on_c, 3, 38, 92
9, 150464, Note_on_c, 3, 38, 0
9, 150480, Note_on_c, 3, 38, 92
9, 150644, Note_on_c, 3, 38, 0
9, 150660, Note_on_c, 3, 38, 92
9, 150704, Note_on_c, 3, 38, 0
9, 150720, Note_on_c, 3, 38, 92
9, 150824, Note_on_c, 3, 38, 0
9, 150840, Note_on_c, 3, 38, 92
9, 151004, Note_on_c, 3, 38, 0
9, 151020, Note_on_c, 3, 38, 92
9, 151064, Note_on_c, 3, 38, 0
9, 151080, Note_on_c, 3, 38, 92
9, 151184, Note_on_c, 3, 38, 0
9, 151200, Note_on_c, 3, 38, 92
9, 151364, Note_on_c, 3, 38, 0
9, 151380, Note_on_c, 3, 38, 92
9, 151424, Note_on_c, 3, 38, 0
9, 151440, Note_on_c, 3, 38, 92
9, 151544, Note_on_c, 3, 38, 0
9, 151560, Note_on_c, 3, 38, 92
9, 151724, Note_on_c, 3, 38, 0
9, 151740, Note_on_c, 3, 38, 92
9, 151784, Note_on_c, 3, 38, 0
9, 151800, Note_on_c, 3, 38, 92
9, 151904, Note_on_c, 3, 38, 0
9, 151920, Note_on_c, 3, 38, 92
9, 152084, Note_on_c, 3, 38, 0
9, 152100, Note_on_c, 3, 38, 92
9, 152144, Note_on_c, 3, 38, 0
9, 152160, Note_on_c, 3, 38, 92
9, 152264, Note_on_c, 3, 38, 0
9, 152280, Note_on_c, 3, 38, 92
9, 152444, Note_on_c, 3, 38, 0
9, 152460, Note_on_c, 3, 38, 92
9, 152504, Note_on_c, 3, 38, 0
9, 152520, Note_on_c, 3, 38, 92
9, 152624, Note_on_c, 3, 38, 0
9, 152640, Note_on_c, 3, 38, 92
9, 152804, Note_on_c, 3, 38, 0
9, 152820, Note_on_c, 3, 38, 92
9, 152864, Note_on_c, 3, 38, 0
9, 152880, Note_on_c, 3, 38, 92
9, 152984, Note_on_c, 3, 38, 0
9, 153000, Note_on_c, 3, 38, 92
9, 153164, Note_on_c, 3, 38, 0
9, 153180, Note_on_c, 3, 38, 92
9, 153224, Note_on_c, 3, 38, 0
9, 153240, Note_on_c, 3, 38, 92
9, 153344, Note_on_c, 3, 38, 0
9, 153360, Note_on_c, 3, 63, 92
9, 153360, Note_on_c, 3, 51, 92
9, 153449, Note_on_c, 3, 63, 0
9, 153449, Note_on_c, 3, 51, 0
9, 153480, Note_on_c, 3, 62, 92
9, 153480, Note_on_c, 3, 50, 92
9, 153569, Note_on_c, 3, 62, 0
9, 153569, Note_on_c, 3, 50, 0
9, 153600, Note_on_c, 3, 48, 92
9, 153600, Note_on_c, 3, 60, 92
9, 153689, Note_on_c, 3, 48, 0
9, 153689, Note_on_c, 3, 60, 0
9, 153720, Note_on_c, 3, 46, 92
9, 153720, Note_on_c, 3, 58, 92
9, 153809, Note_on_c, 3, 46, 0
9, 153809, Note_on_c, 3, 58, 0
9, 153840, Note_on_c, 3, 57, 92
9, 153840, Note_on_c, 3, 45, 92
9, 153929, Note_on_c, 3, 57, 0
9, 153929, Note_on_c, 3, 45, 0
9, 153960, Note_on_c, 3, 43, 92
9, 153960, Note_on_c, 3, 55, 92
9, 154049, Note_on_c, 3, 43, 0
9, 154049, Note_on_c, 3, 55, 0
9, 154080, Note_on_c, 3, 54, 92
9, 154080, Note_on_c, 3, 42, 92
9, 154169, Note_on_c, 3, 54, 0
9, 154169, Note_on_c, 3, 42, 0
9, 154200, Note_on_c, 3, 43, 92
9, 154200, Note_on_c, 3, 55, 92
9, 154289, Note_on_c, 3, 43, 0
9, 154289, Note_on_c, 3, 55, 0
9, 154320, Note_on_c, 3, 57, 92
9, 154320, Note_on_c, 3, 45, 92
9, 154409, Note_on_c, 3, 57, 0
9, 154409, Note_on_c, 3, 45, 0
9, 154440, Note_on_c, 3, 43, 92
9, 154440, Note_on_c, 3, 55, 92
9, 154529, Note_on_c, 3, 43, 0
9, 154529, Note_on_c, 3, 55, 0
9, 154560, Note_on_c, 3, 57, 92
9, 154560, Note_on_c, 3, 45, 92
9, 154649, Note_on_c, 3, 57, 0
9, 154649, Note_on_c, 3, 45, 0
9, 154680, Note_on_c, 3, 46, 92
9, 154680, Note_on_c, 3, 58, 92
9, 154769, Note_on_c, 3, 46, 0
9, 154769, Note_on_c, 3, 58, 0
9, 154800, Note_on_c, 3, 51, 80
9, 154800, Note_on_c, 3, 63, 80
9, 154889, Note_on_c, 3, 51, 0
9, 154889, Note_on_c, 3, 63, 0
9, 154920, Note_on_c, 3, 50, 80
9, 154920, Note_on_c, 3, 62, 80
9, 155009, Note_on_c, 3, 50, 0
9, 155009, Note_on_c, 3, 62, 0
9, 155040, Note_on_c, 3, 48, 80
9, 155040, Note_on_c, 3, 60, 80
9, 155129, Note_on_c, 3, 48, 0
9, 155129, Note_on_c, 3, 60, 0
9, 155160, Note_on_c, 3, 58, 80
9, 155160, Note_on_c, 3, 46, 80
9, 155249, Note_on_c, 3, 58, 0
9, 155249, Note_on_c, 3, 46, 0
9, 155280, Note_on_c, 3, 45, 80
9, 155280, Note_on_c, 3, 57, 80
9, 155369, Note_on_c, 3, 45, 0
9, 155369, Note_on_c, 3, 57, 0
9, 155400, Note_on_c, 3, 55, 80
9, 155400, Note_on_c, 3, 43, 80
9, 155489, Note_on_c, 3, 55, 0
9, 155489, Note_on_c, 3, 43, 0
9, 155520, Note_on_c, 3, 53, 80
9, 155520, Note_on_c, 3, 65, 80
9, 155609, Note_on_c, 3, 53, 0
9, 155609, Note_on_c, 3, 65, 0
9, 155640, Note_on_c, 3, 63, 80
9, 155640, Note_on_c, 3, 51, 80
9, 155729, Note_on_c, 3, 63, 0
9, 155729, Note_on_c, 3, 51, 0
9, 155760, Note_on_c, 3, 50, 80
9, 155760, Note_on_c, 3, 62, 80
9, 155849, Note_on_c, 3, 50, 0
9, 155849, Note_on_c, 3, 62, 0
9, 155880, Note_on_c, 3, 48, 80
9, 155880, Note_on_c, 3, 60, 80
9, 155969, Note_on_c, 3, 48, 0
9, 155969, Note_on_c, 3, 60, 0
9, 156000, Note_on_c, 3, 46, 80
9, 156000, Note_on_c, 3, 58, 80
9, 156089, Note_on_c, 3, 46, 0
9, 156089, Note_on_c, 3, 58, 0
9, 156120, Note_on_c, 3, 45, 80
9, 156120, Note_on_c, 3, 57, 80
9, 156209, Note_on_c, 3, 45, 0
9, 156209, Note_on_c, 3, 57, 0
9, 156240, Note_on_c, 3, 45, 80
9, 156329, Note_on_c, 3, 45, 0
9, 156360, Note_on_c, 3, 46, 80
9, 156449, Note_on_c, 3, 46, 0
9, 156480, Note_on_c, 3, 48, 80
9, 156569, Note_on_c, 3, 48, 0
9, 156600, Note_on_c, 3, 50, 80
9, 156689, Note_on_c, 3, 50, 0
9, 156720, Note_on_c, 3, 51, 80
9, 156809, Note_on_c, 3, 51, 0
9, 156840, Note_on_c, 3, 53, 80
9, 156929, Note_on_c, 3, 53, 0
9, 156960, Note_on_c, 3, 55, 80
9, 157049, Note_on_c, 3, 55, 0
9, 157080, Note_on_c, 3, 57, 80
9, 157169, Note_on_c, 3, 57, 0
9, 157200, Note_on_c, 3, 58, 80
9, 157289, Note_on_c, 3, 58, 0
9, 157320, Note_on_c, 3, 60, 80
9, 157409, Note_on_c, 3, 60, 0
9, 157440, Note_on_c, 3, 62, 80
9, 157529, Note_on_c, 3, 62, 0
9, 157560, Note_on_c, 3, 63, 80
9, 157649, Note_on_c, 3, 63, 0
9, 157680, Note_on_c, 3, 65, 80
9, 157740, Control_c, 3, 11, 67
9, 158400, Control_c, 3, 11, 67
9, 158436, Control_c, 3, 11, 68
9, 158472, Control_c, 3, 11, 69
9, 158508, Control_c, 3, 11, 70
9, 158544, Control_c, 3, 11, 71
9, 158580, Control_c, 3, 11, 72
9, 158616, Control_c, 3, 11, 73
9, 158652, Control_c, 3, 11, 74
9, 158688, Control_c, 3, 11, 75
9, 158724, Control_c, 3, 11, 76
9, 158759, Note_on_c, 3, 65, 0
9, 158760, Note_on_c, 3, 63, 80
9, 158760, Control_c, 3, 11, 77
9, 158796, Control_c, 3, 11, 78
9, 158832, Control_c, 3, 11, 79
9, 158868, Control_c, 3, 11, 80
9, 158904, Control_c, 3, 11, 81
9, 158940, Control_c, 3, 11, 82
9, 158976, Control_c, 3, 11, 83
9, 159012, Control_c, 3, 11, 84
9, 159048, Control_c, 3, 11, 85
9, 159084, Control_c, 3, 11, 86
9, 159120, Control_c, 3, 11, 87
9, 159156, Control_c, 3, 11, 88
9, 159192, Control_c, 3, 11, 89
9, 159228, Control_c, 3, 11, 90
9, 159264, Control_c, 3, 11, 91
9, 159300, Control_c, 3, 11, 92
9, 159336, Control_c, 3, 11, 93
9, 159372, Control_c, 3, 11, 94
9, 159408, Control_c, 3, 11, 95
9, 159444, Control_c, 3, 11, 96
9, 159479, Note_on_c, 3, 63, 0
9, 159480, Note_on_c, 3, 62, 80
9, 159480, Control_c, 3, 11, 97
9, 159516, Control_c, 3, 11, 98
9, 159552, Control_c, 3, 11, 99
9, 159588, Control_c, 3, 11, 100
9, 159624, Control_c, 3, 11, 101
9, 159660, Control_c, 3, 11, 102
9, 159696, Control_c, 3, 11, 103
9, 159732, Control_c, 3, 11, 104
9, 159768, Control_c, 3, 11, 105
9, 159804, Control_c, 3, 11, 106
9, 159839, Note_on_c, 3, 62, 0
9, 159840, Control_c, 3, 11, 107
9, 159840, Note_on_c, 3, 61, 80
9, 159870, Control_c, 3, 11, 105
9, 159900, Control_c, 3, 11, 104
9, 159930, Control_c, 3, 11, 102
9, 159960, Control_c, 3, 11, 100
9, 159990, Control_c, 3, 11, 99
9, 160020, Control_c, 3, 11, 97
9, 160050, Control_c, 3, 11, 95
9, 160080, Control_c, 3, 11, 94
9, 160110, Control_c, 3, 11, 92
9, 160140, Control_c, 3, 11, 90
9, 160170, Control_c, 3, 11, 89
9, 160199, Note_on_c, 3, 61, 0
9, 160200, Control_c, 3, 11, 87
9, 160200, Note_on_c, 3, 60, 80
9, 160230, Control_c, 3, 11, 85
9, 160260, Control_c, 3, 11, 84
9, 160290, Control_c, 3, 11, 82
9, 160320, Control_c, 3, 11, 80
9, 160350, Control_c, 3, 11, 79
9, 160380, Control_c, 3, 11, 77
9, 160410, Control_c, 3, 11, 75
9, 160440, Control_c, 3, 11, 74
9, 160470, Control_c, 3, 11, 72
9, 160500, Control_c, 3, 11, 70
9, 160530, Control_c, 3, 11, 67
9, 160544, Note_on_c, 3, 60, 0
9, 160560, Note_on_c, 3, 58, 80
9, 160560, Note_on_c, 3, 46, 80
9, 161279, Note_on_c, 3, 58, 0
9, 161279, Note_on_c, 3, 46, 0
9, 161280, Note_on_c, 3, 57, 80
9, 161640, Control_c, 3, 11, 67
9, 161676, Control_c, 3, 11, 68
9, 161712, Control_c, 3, 11, 69
9, 161748, Control_c, 3, 11, 70
9, 161784, Control_c, 3, 11, 71
9, 161820, Control_c, 3, 11, 72
9, 161856, Control_c, 3, 11, 73
9, 161892, Control_c, 3, 11, 74
9, 161928, Control_c, 3, 11, 75
9, 161964, Control_c, 3, 11, 76
9, 162000, Note_on_c, 3, 59, 80
9, 162000, Control_c, 3, 11, 77
9, 162036, Control_c, 3, 11, 78
9, 162072, Control_c, 3, 11, 79
9, 162108, Control_c, 3, 11, 80
9, 162144, Control_c, 3, 11, 81
9, 162180, Control_c, 3, 11, 82
9, 162216, Control_c, 3, 11, 83
9, 162252, Control_c, 3, 11, 84
9, 162288, Control_c, 3, 11, 85
9, 162324, Control_c, 3, 11, 86
9, 162344, Note_on_c, 3, 57, 0
9, 162360, Note_on_c, 3, 55, 80
9, 162360, Control_c, 3, 11, 87
9, 162396, Control_c, 3, 11, 88
9, 162432, Control_c, 3, 11, 89
9, 162468, Control_c, 3, 11, 90
9, 162504, Control_c, 3, 11, 91
9, 162540, Control_c, 3, 11, 92
9, 162576, Control_c, 3, 11, 93
9, 162612, Control_c, 3, 11, 94
9, 162648, Control_c, 3, 11, 95
9, 162684, Control_c, 3, 11, 96
9, 162719, Note_on_c, 3, 59, 0
9, 162720, Note_on_c, 3, 58, 80
9, 162720, Control_c, 3, 11, 97
9, 162756, Control_c, 3, 11, 98
9, 162792, Control_c, 3, 11, 99
9, 162828, Control_c, 3, 11, 100
9, 162864, Control_c, 3, 11, 101
9, 162900, Control_c, 3, 11, 102
9, 162936, Control_c, 3, 11, 103
9, 162972, Control_c, 3, 11, 104
9, 163008, Control_c, 3, 11, 105
9, 163044, Control_c, 3, 11, 106
9, 163079, Note_on_c, 3, 55, 0
9, 163079, Note_on_c, 3, 58, 0
9, 163080, Note_on_c, 3, 57, 80
9, 163080, Note_on_c, 3, 54, 80
9, 163080, Control_c, 3, 11, 107
9, 163110, Control_c, 3, 11, 106
9, 163140, Control_c, 3, 11, 105
9, 163170, Control_c, 3, 11, 104
9, 163200, Control_c, 3, 11, 103
9, 163230, Control_c, 3, 11, 101
9, 163260, Control_c, 3, 11, 100
9, 163290, Control_c, 3, 11, 99
9, 163320, Control_c, 3, 11, 98
9, 163350, Control_c, 3, 11, 97
9, 163380, Control_c, 3, 11, 96
9, 163410, Control_c, 3, 11, 95
9, 163439, Note_on_c, 3, 54, 0
9, 163440, Control_c, 3, 11, 94
9, 163440, Note_on_c, 3, 53, 80
9, 163470, Control_c, 3, 11, 93
9, 163500, Control_c, 3, 11, 91
9, 163530, Control_c, 3, 11, 90
9, 163560, Control_c, 3, 11, 89
9, 163590, Control_c, 3, 11, 88
9, 163620, Control_c, 3, 11, 87
9, 163650, Control_c, 3, 11, 86
9, 163680, Control_c, 3, 11, 85
9, 163710, Control_c, 3, 11, 84
9, 163740, Control_c, 3, 11, 83
9, 163770, Control_c, 3, 11, 81
9, 163799, Note_on_c, 3, 53, 0
9, 163800, Note_on_c, 3, 52, 80
9, 163800, Control_c, 3, 11, 80
9, 163830, Control_c, 3, 11, 79
9, 163860, Control_c, 3, 11, 78
9, 163890, Control_c, 3, 11, 77
9, 163920, Control_c, 3, 11, 76
9, 163950, Control_c, 3, 11, 75
9, 163980, Control_c, 3, 11, 74
9, 164010, Control_c, 3, 11, 73
9, 164040, Control_c, 3, 11, 71
9, 164070, Control_c, 3, 11, 70
9, 164100, Control_c, 3, 11, 69
9, 164130, Control_c, 3, 11, 67
9, 164159, Note_on_c, 3, 57, 0
9, 164159, Note_on_c, 3, 52, 0
9, 164520, Control_c, 3, 11, 87
9, 164556, Control_c, 3, 11, 88
9, 164592, Control_c, 3, 11, 89
9, 164628, Control_c, 3, 11, 90
9, 164664, Control_c, 3, 11, 91
9, 164700, Control_c, 3, 11, 92
9, 164736, Control_c, 3, 11, 93
9, 164772, Control_c, 3, 11, 94
9, 164808, Control_c, 3, 11, 95
9, 164844, Control_c, 3, 11, 96
9, 164880, Note_on_c, 3, 58, 68
9, 164880, Control_c, 3, 11, 97
9, 164916, Control_c, 3, 11, 98
9, 164952, Control_c, 3, 11, 99
9, 164988, Control_c, 3, 11, 100
9, 165024, Control_c, 3, 11, 101
9, 165060, Control_c, 3, 11, 102
9, 165096, Control_c, 3, 11, 103
9, 165132, Control_c, 3, 11, 104
9, 165168, Control_c, 3, 11, 105
9, 165204, Control_c, 3, 11, 106
9, 165240, Note_on_c, 3, 64, 68
9, 165240, Control_c, 3, 11, 107
9, 165276, Control_c, 3, 11, 108
9, 165312, Control_c, 3, 11, 109
9, 165348, Control_c, 3, 11, 110
9, 165384, Control_c, 3, 11, 111
9, 165420, Control_c, 3, 11, 112
9, 165456, Control_c, 3, 11, 113
9, 165492, Control_c, 3, 11, 114
9, 165528, Control_c, 3, 11, 115
9, 165564, Control_c, 3, 11, 116
9, 165599, Note_on_c, 3, 58, 0
9, 165600, Note_on_c, 3, 57, 68
9, 165600, Control_c, 3, 11, 117
9, 165636, Control_c, 3, 11, 118
9, 165672, Control_c, 3, 11, 119
9, 165708, Control_c, 3, 11, 120
9, 165744, Control_c, 3, 11, 121
9, 165780, Control_c, 3, 11, 122
9, 165816, Control_c, 3, 11, 123
9, 165852, Control_c, 3, 11, 124
9, 165888, Control_c, 3, 11, 125
9, 165924, Control_c, 3, 11, 126
9, 165959, Note_on_c, 3, 64, 0
9, 165960, Note_on_c, 3, 62, 68
9, 165960, Control_c, 3, 11, 127
9, 165987, Control_c, 3, 11, 126
9, 166014, Control_c, 3, 11, 125
9, 166041, Control_c, 3, 11, 124
9, 166068, Control_c, 3, 11, 123
9, 166095, Control_c, 3, 11, 122
9, 166122, Control_c, 3, 11, 121
9, 166149, Control_c, 3, 11, 120
9, 166176, Control_c, 3, 11, 119
9, 166203, Control_c, 3, 11, 118
9, 166230, Control_c, 3, 11, 117
9, 166257, Control_c, 3, 11, 116
9, 166284, Control_c, 3, 11, 115
9, 166311, Control_c, 3, 11, 114
9, 166319, Note_on_c, 3, 57, 0
9, 166320, Note_on_c, 3, 56, 68
9, 166338, Control_c, 3, 11, 113
9, 166365, Control_c, 3, 11, 112
9, 166392, Control_c, 3, 11, 111
9, 166419, Control_c, 3, 11, 110
9, 166446, Control_c, 3, 11, 109
9, 166473, Control_c, 3, 11, 108
9, 166500, Control_c, 3, 11, 107
9, 166527, Control_c, 3, 11, 106
9, 166554, Control_c, 3, 11, 105
9, 166581, Control_c, 3, 11, 104
9, 166608, Control_c, 3, 11, 103
9, 166635, Control_c, 3, 11, 102
9, 166662, Control_c, 3, 11, 101
9, 166679, Note_on_c, 3, 62, 0
9, 166679, Note_on_c, 3, 56, 0
9, 166680, Note_on_c, 3, 55, 68
9, 166680, Note_on_c, 3, 61, 68
9, 166689, Control_c, 3, 11, 100
9, 166716, Control_c, 3, 11, 99
9, 166743, Control_c, 3, 11, 98
9, 166770, Control_c, 3, 11, 97
9, 166797, Control_c, 3, 11, 96
9, 166824, Control_c, 3, 11, 95
9, 166851, Control_c, 3, 11, 94
9, 166878, Control_c, 3, 11, 93
9, 166905, Control_c, 3, 11, 92
9, 166932, Control_c, 3, 11, 91
9, 166959, Control_c, 3, 11, 90
9, 166986, Control_c, 3, 11, 89
9, 167013, Control_c, 3, 11, 88
9, 167024, Note_on_c, 3, 55, 0
9, 167024, Note_on_c, 3, 61, 0
9, 167038, Control_c, 3, 11, 47
9, 167040, Note_on_c, 3, 45, 92
9, 167040, Note_on_c, 3, 57, 92
9, 167076, Control_c, 3, 11, 48
9, 167112, Control_c, 3, 11, 49
9, 167148, Control_c, 3, 11, 50
9, 167184, Control_c, 3, 11, 51
9, 167220, Control_c, 3, 11, 52
9, 167256, Control_c, 3, 11, 53
9, 167292, Control_c, 3, 11, 54
9, 167328, Control_c, 3, 11, 55
9, 167364, Control_c, 3, 11, 56
9, 167400, Control_c, 3, 11, 57
9, 167436, Control_c, 3, 11, 58
9, 167472, Control_c, 3, 11, 59
9, 167508, Control_c, 3, 11, 60
9, 167544, Control_c, 3, 11, 61
9, 167580, Control_c, 3, 11, 62
9, 167616, Control_c, 3, 11, 63
9, 167652, Control_c, 3, 11, 64
9, 167688, Control_c, 3, 11, 65
9, 167724, Control_c, 3, 11, 66
9, 167760, Control_c, 3, 11, 67
9, 167796, Control_c, 3, 11, 68
9, 167832, Control_c, 3, 11, 69
9, 167868, Control_c, 3, 11, 70
9, 167904, Control_c, 3, 11, 71
9, 167940, Control_c, 3, 11, 72
9, 167976, Control_c, 3, 11, 73
9, 168012, Control_c, 3, 11, 74
9, 168048, Control_c, 3, 11, 75
9, 168084, Control_c, 3, 11, 76
9, 168119, Note_on_c, 3, 45, 0
9, 168119, Note_on_c, 3, 57, 0
9, 168120, Note_on_c, 3, 55, 92
9, 168120, Note_on_c, 3, 43, 92
9, 168120, Control_c, 3, 11, 77
9, 168156, Control_c, 3, 11, 78
9, 168192, Control_c, 3, 11, 79
9, 168228, Control_c, 3, 11, 80
9, 168264, Control_c, 3, 11, 81
9, 168300, Control_c, 3, 11, 82
9, 168336, Control_c, 3, 11, 83
9, 168372, Control_c, 3, 11, 84
9, 168408, Control_c, 3, 11, 85
9, 168444, Control_c, 3, 11, 86
9, 168480, Control_c, 3, 11, 87
9, 168516, Control_c, 3, 11, 88
9, 168552, Control_c, 3, 11, 89
9, 168588, Control_c, 3, 11, 90
9, 168624, Control_c, 3, 11, 91
9, 168660, Control_c, 3, 11, 92
9, 168696, Control_c, 3, 11, 93
9, 168732, Control_c, 3, 11, 94
9, 168768, Control_c, 3, 11, 95
9, 168804, Control_c, 3, 11, 96
9, 168839, Note_on_c, 3, 55, 0
9, 168839, Note_on_c, 3, 43, 0
9, 168840, Control_c, 3, 11, 97
9, 168840, Note_on_c, 3, 42, 92
9, 168840, Note_on_c, 3, 54, 92
9, 168876, Control_c, 3, 11, 98
9, 168912, Control_c, 3, 11, 99
9, 168948, Control_c, 3, 11, 100
9, 168984, Control_c, 3, 11, 101
9, 169020, Control_c, 3, 11, 102
9, 169056, Control_c, 3, 11, 103
9, 169092, Control_c, 3, 11, 104
9, 169128, Control_c, 3, 11, 105
9, 169164, Control_c, 3, 11, 106
9, 169199, Note_on_c, 3, 42, 0
9, 169199, Note_on_c, 3, 54, 0
9, 169200, Note_on_c, 3, 53, 92
9, 169200, Control_c, 3, 11, 107
9, 169200, Note_on_c, 3, 41, 92
9, 169236, Control_c, 3, 11, 108
9, 169272, Control_c, 3, 11, 109
9, 169308, Control_c, 3, 11, 110
9, 169344, Control_c, 3, 11, 111
9, 169380, Control_c, 3, 11, 112
9, 169416, Control_c, 3, 11, 113
9, 169452, Control_c, 3, 11, 114
9, 169488, Control_c, 3, 11, 115
9, 169524, Control_c, 3, 11, 116
9, 169559, Note_on_c, 3, 53, 0
9, 169559, Note_on_c, 3, 41, 0
9, 169560, Note_on_c, 3, 40, 92
9, 169560, Note_on_c, 3, 52, 92
9, 169560, Control_c, 3, 11, 117
9, 169596, Control_c, 3, 11, 118
9, 169632, Control_c, 3, 11, 119
9, 169668, Control_c, 3, 11, 120
9, 169704, Control_c, 3, 11, 121
9, 169740, Control_c, 3, 11, 122
9, 169776, Control_c, 3, 11, 123
9, 169812, Control_c, 3, 11, 124
9, 169848, Control_c, 3, 11, 125
9, 169884, Control_c, 3, 11, 127
9, 169904, Note_on_c, 3, 40, 0
9, 169904, Note_on_c, 3, 52, 0
9, 169920, Note_on_c, 3, 50, 92
9, 170159, Note_on_c, 3, 50, 0
9, 170160, Note_on_c, 3, 52, 92
9, 170219, Note_on_c, 3, 52, 0
9, 170220, Note_on_c, 3, 54, 92
9, 170264, Note_on_c, 3, 54, 0
9, 170280, Note_on_c, 3, 55, 92
9, 170369, Note_on_c, 3, 55, 0
9, 170520, Note_on_c, 3, 54, 92
9, 170609, Note_on_c, 3, 54, 0
9, 170640, Note_on_c, 3, 52, 92
9, 170729, Note_on_c, 3, 52, 0
9, 170880, Note_on_c, 3, 50, 92
9, 170969, Note_on_c, 3, 50, 0
9, 171000, Note_on_c, 3, 52, 92
9, 171089, Note_on_c, 3, 52, 0
9, 171240, Note_on_c, 3, 49, 92
9, 171329, Note_on_c, 3, 49, 0
9, 171360, Note_on_c, 3, 54, 92
9, 171360, Note_on_c, 3, 50, 92
9, 171599, Note_on_c, 3, 54, 0
9, 171599, Note_on_c, 3, 50, 0
9, 171600, Note_on_c, 3, 55, 92
9, 171600, Note_on_c, 3, 52, 92
9, 171659, Note_on_c, 3, 55, 0
9, 171659, Note_on_c, 3, 52, 0
9, 171660, Note_on_c, 3, 57, 92
9, 171660, Note_on_c, 3, 54, 92
9, 171704, Note_on_c, 3, 57, 0
9, 171704, Note_on_c, 3, 54, 0
9, 171720, Note_on_c, 3, 59, 92
9, 171720, Note_on_c, 3, 55, 92
9, 171809, Note_on_c, 3, 59, 0
9, 171809, Note_on_c, 3, 55, 0
9, 171960, Note_on_c, 3, 57, 92
9, 171960, Note_on_c, 3, 54, 92
9, 172049, Note_on_c, 3, 57, 0
9, 172049, Note_on_c, 3, 54, 0
9, 172080, Note_on_c, 3, 55, 92
9, 172080, Note_on_c, 3, 52, 92
9, 172169, Note_on_c, 3, 55, 0
9, 172169, Note_on_c, 3, 52, 0
9, 172320, Note_on_c, 3, 50, 92
9, 172320, Note_on_c, 3, 54, 92
9, 172409, Note_on_c, 3, 50, 0
9, 172409, Note_on_c, 3, 54, 0
9, 172440, Note_on_c, 3, 55, 92
9, 172440, Note_on_c, 3, 52, 92
9, 172529, Note_on_c, 3, 55, 0
9, 172529, Note_on_c, 3, 52, 0
9, 172680, Note_on_c, 3, 49, 92
9, 172680, Note_on_c, 3, 52, 92
9, 172769, Note_on_c, 3, 49, 0
9, 172769, Note_on_c, 3, 52, 0
9, 172800, Note_on_c, 3, 50, 92
9, 172889, Note_on_c, 3, 50, 0
9, 172920, Note_on_c, 3, 62, 92
9, 172920, Note_on_c, 3, 53, 92
9, 173039, Note_on_c, 3, 62, 0
9, 173039, Note_on_c, 3, 53, 0
9, 173040, Note_on_c, 3, 55, 92
9, 173040, Note_on_c, 3, 64, 92
9, 173099, Note_on_c, 3, 55, 0
9, 173099, Note_on_c, 3, 64, 0
9, 173100, Note_on_c, 3, 65, 92
9, 173100, Note_on_c, 3, 57, 92
9, 173144, Note_on_c, 3, 65, 0
9, 173144, Note_on_c, 3, 57, 0
9, 173160, Note_on_c, 3, 67, 92
9, 173160, Note_on_c, 3, 58, 92
9, 173249, Note_on_c, 3, 67, 0
9, 173249, Note_on_c, 3, 58, 0
9, 173280, Note_on_c, 3, 67, 92
9, 173280, Note_on_c, 3, 58, 92
9, 173369, Note_on_c, 3, 67, 0
9, 173369, Note_on_c, 3, 58, 0
9, 173400, Note_on_c, 3, 65, 92
9, 173400, Note_on_c, 3, 57, 92
9, 173489, Note_on_c, 3, 65, 0
9, 173489, Note_on_c, 3, 57, 0
9, 173520, Note_on_c, 3, 55, 92
9, 173520, Note_on_c, 3, 64, 92
9, 173609, Note_on_c, 3, 55, 0
9, 173609, Note_on_c, 3, 64, 0
9, 173640, Note_on_c, 3, 55, 92
9, 173640, Note_on_c, 3, 64, 92
9, 173729, Note_on_c, 3, 55, 0
9, 173729, Note_on_c, 3, 64, 0
9, 173760, Note_on_c, 3, 53, 92
9, 173760, Note_on_c, 3, 62, 92
9, 173849, Note_on_c, 3, 53, 0
9, 173849, Note_on_c, 3, 62, 0
9, 173880, Note_on_c, 3, 64, 92
9, 173880, Note_on_c, 3, 55, 92
9, 173969, Note_on_c, 3, 64, 0
9, 173969, Note_on_c, 3, 55, 0
9, 174000, Note_on_c, 3, 64, 92
9, 174000, Note_on_c, 3, 55, 92
9, 174089, Note_on_c, 3, 64, 0
9, 174089, Note_on_c, 3, 55, 0
9, 174120, Note_on_c, 3, 61, 92
9, 174120, Note_on_c, 3, 52, 92
9, 174209, Note_on_c, 3, 61, 0
9, 174209, Note_on_c, 3, 52, 0
9, 174240, Note_on_c, 3, 62, 92
9, 174240, Note_on_c, 3, 65, 92
9, 174329, Note_on_c, 3, 62, 0
9, 174329, Note_on_c, 3, 65, 0
9, 174360, Note_on_c, 3, 53, 92
9, 174360, Note_on_c, 3, 50, 92
9, 174479, Note_on_c, 3, 53, 0
9, 174479, Note_on_c, 3, 50, 0
9, 174480, Note_on_c, 3, 55, 92
9, 174480, Note_on_c, 3, 52, 92
9, 174539, Note_on_c, 3, 55, 0
9, 174539, Note_on_c, 3, 52, 0
9, 174540, Note_on_c, 3, 57, 92
9, 174540, Note_on_c, 3, 53, 92
9, 174584, Note_on_c, 3, 57, 0
9, 174584, Note_on_c, 3, 53, 0
9, 174600, Note_on_c, 3, 58, 92
9, 174600, Note_on_c, 3, 55, 92
9, 174689, Note_on_c, 3, 58, 0
9, 174689, Note_on_c, 3, 55, 0
9, 174720, Note_on_c, 3, 58, 92
9, 174720, Note_on_c, 3, 55, 92
9, 174809, Note_on_c, 3, 58, 0
9, 174809, Note_on_c, 3, 55, 0
9, 174840, Note_on_c, 3, 57, 92
9, 174840, Note_on_c, 3, 53, 92
9, 174929, Note_on_c, 3, 57, 0
9, 174929, Note_on_c, 3, 53, 0
9, 174960, Note_on_c, 3, 52, 92
9, 174960, Note_on_c, 3, 55, 92
9, 175049, Note_on_c, 3, 52, 0
9, 175049, Note_on_c, 3, 55, 0
9, 175080, Note_on_c, 3, 52, 92
9, 175080, Note_on_c, 3, 55, 92
9, 175169, Note_on_c, 3, 52, 0
9, 175169, Note_on_c, 3, 55, 0
9, 175200, Note_on_c, 3, 50, 92
9, 175200, Note_on_c, 3, 53, 92
9, 175289, Note_on_c, 3, 50, 0
9, 175289, Note_on_c, 3, 53, 0
9, 175320, Note_on_c, 3, 55, 92
9, 175320, Note_on_c, 3, 52, 92
9, 175409, Note_on_c, 3, 55, 0
9, 175409, Note_on_c, 3, 52, 0
9, 175440, Note_on_c, 3, 55, 92
9, 175440, Note_on_c, 3, 52, 92
9, 175529, Note_on_c, 3, 55, 0
9, 175529, Note_on_c, 3, 52, 0
9, 175560, Note_on_c, 3, 49, 92
9, 175560, Note_on_c, 3, 52, 92
9, 175649, Note_on_c, 3, 49, 0
9, 175649, Note_on_c, 3, 52, 0
9, 175680, Note_on_c, 3, 50, 92
9, 175680, Note_on_c, 3, 62, 92
9, 175844, Note_on_c, 3, 50, 0
9, 175844, Note_on_c, 3, 62, 0
9, 175860, Note_on_c, 3, 38, 92
9, 175860, Note_on_c, 3, 50, 92
9, 175904, Note_on_c, 3, 38, 0
9, 175904, Note_on_c, 3, 50, 0
9, 175920, Note_on_c, 3, 50, 92
9, 175920, Note_on_c, 3, 38, 92
9, 176024, Note_on_c, 3, 50, 0
9, 176024, Note_on_c, 3, 38, 0
9, 176040, Note_on_c, 3, 62, 92
9, 176040, Note_on_c, 3, 50, 92
9, 176144, Note_on_c, 3, 62, 0
9, 176144, Note_on_c, 3, 50, 0
9, 176160, Note_on_c, 3, 64, 92
9, 176160, Note_on_c, 3, 52, 92
9, 176264, Note_on_c, 3, 64, 0
9, 176264, Note_on_c, 3, 52, 0
9, 176280, Note_on_c, 3, 65, 92
9, 176280, Note_on_c, 3, 53, 92
9, 176384, Note_on_c, 3, 65, 0
9, 176384, Note_on_c, 3, 53, 0
9, 176400, Note_on_c, 3, 67, 92
9, 176400, Note_on_c, 3, 55, 92
9, 176519, Note_on_c, 3, 67, 0
9, 176519, Note_on_c, 3, 55, 0
9, 176760, Note_on_c, 3, 58, 92
9, 176760, Note_on_c, 3, 46, 92
9, 176864, Note_on_c, 3, 58, 0
9, 176864, Note_on_c, 3, 46, 0
9, 176880, Note_on_c, 3, 48, 92
9, 176880, Note_on_c, 3, 60, 92
9, 176984, Note_on_c, 3, 48, 0
9, 176984, Note_on_c, 3, 60, 0
9, 177000, Note_on_c, 3, 50, 92
9, 177000, Note_on_c, 3, 62, 92
9, 177104, Note_on_c, 3, 50, 0
9, 177104, Note_on_c, 3, 62, 0
9, 177120, Note_on_c, 3, 48, 92
9, 177120, Note_on_c, 3, 60, 92
9, 177284, Note_on_c, 3, 48, 0
9, 177284, Note_on_c, 3, 60, 0
9, 177300, Note_on_c, 3, 36, 92
9, 177300, Note_on_c, 3, 48, 92
9, 177344, Note_on_c, 3, 36, 0
9, 177344, Note_on_c, 3, 48, 0
9, 177360, Note_on_c, 3, 48, 92
9, 177360, Note_on_c, 3, 36, 92
9, 177464, Note_on_c, 3, 48, 0
9, 177464, Note_on_c, 3, 36, 0
9, 177480, Note_on_c, 3, 48, 92
9, 177480, Note_on_c, 3, 60, 92
9, 177584, Note_on_c, 3, 48, 0
9, 177584, Note_on_c, 3, 60, 0
9, 177600, Note_on_c, 3, 50, 92
9, 177600, Note_on_c, 3, 62, 92
9, 177704, Note_on_c, 3, 50, 0
9, 177704, Note_on_c, 3, 62, 0
9, 177720, Note_on_c, 3, 52, 92
9, 177720, Note_on_c, 3, 64, 92
9, 177824, Note_on_c, 3, 52, 0
9, 177824, Note_on_c, 3, 64, 0
9, 177840, Note_on_c, 3, 53, 92
9, 177840, Note_on_c, 3, 65, 92
9, 177959, Note_on_c, 3, 53, 0
9, 177959, Note_on_c, 3, 65, 0
9, 178200, Note_on_c, 3, 57, 92
9, 178304, Note_on_c, 3, 57, 0
9, 178320, Note_on_c, 3, 62, 92
9, 178424, Note_on_c, 3, 62, 0
9, 178440, Note_on_c, 3, 64, 92
9, 178544, Note_on_c, 3, 64, 0
9, 178560, Note_on_c, 3, 62, 44
9, 178560, Note_on_c, 3, 66, 44
9, 178679, Note_on_c, 3, 62, 0
9, 178679, Note_on_c, 3, 66, 0
9, 179280, Note_on_c, 3, 55, 44
9, 179280, Note_on_c, 3, 67, 44
9, 179399, Note_on_c, 3, 55, 0
9, 179399, Note_on_c, 3, 67, 0
9, 180360, Control_c, 3, 11, 67
9, 180720, Control_c, 3, 11, 67
9, 180720, Note_on_c, 3, 55, 80
9, 180720, Note_on_c, 3, 46, 80
9, 180750, Control_c, 3, 11, 68
9, 180780, Control_c, 3, 11, 70
9, 180810, Control_c, 3, 11, 71
9, 180839, Note_on_c, 3, 55, 0
9, 180840, Control_c, 3, 11, 72
9, 180840, Note_on_c, 3, 53, 80
9, 180870, Control_c, 3, 11, 73
9, 180900, Control_c, 3, 11, 75
9, 180930, Control_c, 3, 11, 76
9, 180959, Note_on_c, 3, 53, 0
9, 180960, Control_c, 3, 11, 77
9, 180960, Note_on_c, 3, 51, 80
9, 180990, Control_c, 3, 11, 78
9, 181020, Control_c, 3, 11, 80
9, 181050, Control_c, 3, 11, 81
9, 181064, Note_on_c, 3, 51, 0
9, 181080, Note_on_c, 3, 67, 80
9, 181080, Control_c, 3, 11, 82
9, 181110, Control_c, 3, 11, 83
9, 181140, Control_c, 3, 11, 85
9, 181170, Control_c, 3, 11, 86
9, 181199, Note_on_c, 3, 46, 0
9, 181199, Note_on_c, 3, 67, 0
9, 181200, Control_c, 3, 11, 87
9, 181200, Note_on_c, 3, 44, 80
9, 181200, Note_on_c, 3, 65, 80
9, 181230, Control_c, 3, 11, 88
9, 181260, Control_c, 3, 11, 90
9, 181290, Control_c, 3, 11, 91
9, 181319, Note_on_c, 3, 44, 0
9, 181319, Note_on_c, 3, 65, 0
9, 181320, Note_on_c, 3, 63, 80
9, 181320, Note_on_c, 3, 43, 80
9, 181320, Control_c, 3, 11, 92
9, 181350, Control_c, 3, 11, 93
9, 181380, Control_c, 3, 11, 95
9, 181410, Control_c, 3, 11, 96
9, 181424, Note_on_c, 3, 63, 0
9, 181424, Note_on_c, 3, 43, 0
9, 181440, Note_on_c, 3, 58, 80
9, 181440, Control_c, 3, 11, 97
9, 181440, Note_on_c, 3, 43, 80
9, 181470, Control_c, 3, 11, 98
9, 181500, Control_c, 3, 11, 100
9, 181530, Control_c, 3, 11, 101
9, 181559, Note_on_c, 3, 58, 0
9, 181560, Control_c, 3, 11, 102
9, 181560, Note_on_c, 3, 57, 80
9, 181590, Control_c, 3, 11, 103
9, 181620, Control_c, 3, 11, 105
9, 181650, Control_c, 3, 11, 106
9, 181679, Note_on_c, 3, 57, 0
9, 181680, Note_on_c, 3, 58, 80
9, 181680, Control_c, 3, 11, 107
9, 181710, Control_c, 3, 11, 108
9, 181740, Control_c, 3, 11, 110
9, 181770, Control_c, 3, 11, 111
9, 181784, Note_on_c, 3, 43, 0
9, 181800, Control_c, 3, 11, 112
9, 181800, Note_on_c, 3, 45, 80
9, 181830, Control_c, 3, 11, 113
9, 181860, Control_c, 3, 11, 115
9, 181890, Control_c, 3, 11, 116
9, 181919, Note_on_c, 3, 58, 0
9, 181920, Note_on_c, 3, 57, 80
9, 181920, Control_c, 3, 11, 117
9, 181950, Control_c, 3, 11, 118
9, 181980, Control_c, 3, 11, 120
9, 182010, Control_c, 3, 11, 121
9, 182024, Note_on_c, 3, 45, 0
9, 182039, Note_on_c, 3, 57, 0
9, 182040, Note_on_c, 3, 55, 80
9, 182040, Control_c, 3, 11, 122
9, 182040, Note_on_c, 3, 43, 80
9, 182070, Control_c, 3, 11, 123
9, 182100, Control_c, 3, 11, 125
9, 182130, Control_c, 3, 11, 127
9, 182144, Note_on_c, 3, 55, 0
9, 182144, Note_on_c, 3, 43, 0
9, 182160, Note_on_c, 3, 53, 80
9, 182160, Note_on_c, 3, 41, 80
9, 182249, Note_on_c, 3, 53, 0
9, 182249, Note_on_c, 3, 41, 0
9, 182280, Note_on_c, 3, 50, 80
9, 182280, Note_on_c, 3, 38, 80
9, 182369, Note_on_c, 3, 50, 0
9, 182369, Note_on_c, 3, 38, 0
9, 182400, Note_on_c, 3, 55, 80
9, 182400, Note_on_c, 3, 43, 80
9, 182489, Note_on_c, 3, 55, 0
9, 182489, Note_on_c, 3, 43, 0
9, 182520, Note_on_c, 3, 40, 80
9, 182520, Note_on_c, 3, 52, 80
9, 182609, Note_on_c, 3, 40, 0
9, 182609, Note_on_c, 3, 52, 0
9, 182640, Note_on_c, 3, 49, 80
9, 182640, Note_on_c, 3, 61, 80
9, 182729, Note_on_c, 3, 49, 0
9, 182729, Note_on_c, 3, 61, 0
9, 182760, Note_on_c, 3, 45, 80
9, 182760, Note_on_c, 3, 57, 80
9, 182849, Note_on_c, 3, 45, 0
9, 182849, Note_on_c, 3, 57, 0
9, 182880, Note_on_c, 3, 50, 80
9, 182880, Note_on_c, 3, 62, 80
9, 182999, Note_on_c, 3, 50, 0
9, 182999, Note_on_c, 3, 62, 0
9, 183600, Note_on_c, 3, 38, 80
9, 183600, Note_on_c, 3, 50, 80
9, 183689, Note_on_c, 3, 38, 0
9, 183689, Note_on_c, 3, 50, 0
9, 183720, Note_on_c, 3, 38, 80
9, 183720, Note_on_c, 3, 50, 80
9, 183809, Note_on_c, 3, 38, 0
9, 183809, Note_on_c, 3, 50, 0
9, 183840, Note_on_c, 3, 43, 80
9, 183840, Note_on_c, 3, 55, 80
9, 183929, Note_on_c, 3, 43, 0
9, 183929, Note_on_c, 3, 55, 0
9, 183960, Note_on_c, 3, 52, 80
9, 183960, Note_on_c, 3, 40, 80
9, 184049, Note_on_c, 3, 52, 0
9, 184049, Note_on_c, 3, 40, 0
9, 184080, Note_on_c, 3, 61, 80
9, 184080, Note_on_c, 3, 49, 80
9, 184169, Note_on_c, 3, 61, 0
9, 184169, Note_on_c, 3, 49, 0
9, 184200, Note_on_c, 3, 45, 80
9, 184200, Note_on_c, 3, 57, 80
9, 184289, Note_on_c, 3, 45, 0
9, 184289, Note_on_c, 3, 57, 0
9, 184320, Note_on_c, 3, 45, 80
9, 184320, Note_on_c, 3, 57, 80
9, 184409, Note_on_c, 3, 45, 0
9, 184409, Note_on_c, 3, 57, 0
9, 184440, Note_on_c, 3, 57, 80
9, 184529, Note_on_c, 3, 57, 0
9, 184560, Note_on_c, 3, 62, 80
9, 184649, Note_on_c, 3, 62, 0
9, 184680, Note_on_c, 3, 58, 80
9, 184769, Note_on_c, 3, 58, 0
9, 184800, Note_on_c, 3, 55, 80
9, 184889, Note_on_c, 3, 55, 0
9, 184920, Note_on_c, 3, 61, 80
9, 185009, Note_on_c, 3, 61, 0
9, 185040, Note_on_c, 3, 50, 80
9, 185040, Note_on_c, 3, 53, 80
9, 185129, Note_on_c, 3, 50, 0
9, 185129, Note_on_c, 3, 53, 0
9, 185160, Note_on_c, 3, 53, 80
9, 185160, Note_on_c, 3, 57, 80
9, 185249, Note_on_c, 3, 53, 0
9, 185249, Note_on_c, 3, 57, 0
9, 185280, Note_on_c, 3, 50, 80
9, 185280, Note_on_c, 3, 53, 80
9, 185369, Note_on_c, 3, 50, 0
9, 185369, Note_on_c, 3, 53, 0
9, 185400, Note_on_c, 3, 55, 80
9, 185400, Note_on_c, 3, 52, 80
9, 185489, Note_on_c, 3, 55, 0
9, 185489, Note_on_c, 3, 52, 0
9, 185520, Note_on_c, 3, 55, 80
9, 185520, Note_on_c, 3, 64, 80
9, 185609, Note_on_c, 3, 55, 0
9, 185609, Note_on_c, 3, 64, 0
9, 185640, Note_on_c, 3, 52, 80
9, 185640, Note_on_c, 3, 61, 80
9, 185729, Note_on_c, 3, 52, 0
9, 185729, Note_on_c, 3, 61, 0
9, 185760, Note_on_c, 3, 53, 80
9, 185760, Note_on_c, 3, 62, 80
9, 185849, Note_on_c, 3, 53, 0
9, 185849, Note_on_c, 3, 62, 0
9, 185880, Note_on_c, 3, 57, 80
9, 185880, Note_on_c, 3, 53, 80
9, 185969, Note_on_c, 3, 57, 0
9, 185969, Note_on_c, 3, 53, 0
9, 186000, Note_on_c, 3, 50, 80
9, 186000, Note_on_c, 3, 53, 80
9, 186089, Note_on_c, 3, 50, 0
9, 186089, Note_on_c, 3, 53, 0
9, 186120, Note_on_c, 3, 55, 80
9, 186120, Note_on_c, 3, 52, 80
9, 186209, Note_on_c, 3, 55, 0
9, 186209, Note_on_c, 3, 52, 0
9, 186240, Note_on_c, 3, 64, 80
9, 186240, Note_on_c, 3, 55, 80
9, 186329, Note_on_c, 3, 64, 0
9, 186329, Note_on_c, 3, 55, 0
9, 186360, Note_on_c, 3, 61, 80
9, 186360, Note_on_c, 3, 52, 80
9, 186449, Note_on_c, 3, 61, 0
9, 186449, Note_on_c, 3, 52, 0
9, 186480, Note_on_c, 3, 45, 32
9, 186599, Note_on_c, 3, 45, 0
9, 186600, Note_on_c, 3, 49, 32
9, 186719, Note_on_c, 3, 49, 0
9, 186720, Note_on_c, 3, 52, 32
9, 186839, Note_on_c, 3, 52, 0
9, 186840, Note_on_c, 3, 55, 32
9, 186959, Note_on_c, 3, 55, 0
9, 186960, Note_on_c, 3, 61, 32
9, 187079, Note_on_c, 3, 61, 0
9, 187080, Note_on_c, 3, 64, 32
9, 187184, Note_on_c, 3, 64, 0
9, 187200, Note_on_c, 3, 67, 32
9, 187679, Note_on_c, 3, 67, 0
9, 187680, Note_on_c, 3, 64, 32
9, 187799, Note_on_c, 3, 64, 0
9, 187800, Note_on_c, 3, 61, 32
9, 187904, Note_on_c, 3, 61, 0
9, 187920, Note_on_c, 3, 62, 32
9, 188039, Note_on_c, 3, 62, 0
9, 188280, Note_on_c, 3, 45, 32
9, 188280, Note_on_c, 3, 57, 32
9, 188444, Note_on_c, 3, 45, 0
9, 188444, Note_on_c, 3, 57, 0
9, 188460, Note_on_c, 3, 62, 32
9, 188460, Note_on_c, 3, 57, 32
9, 188504, Note_on_c, 3, 62, 0
9, 188504, Note_on_c, 3, 57, 0
9, 188520, Note_on_c, 3, 57, 32
9, 188520, Note_on_c, 3, 62, 32
9, 188624, Note_on_c, 3, 57, 0
9, 188624, Note_on_c, 3, 62, 0
9, 188640, Note_on_c, 3, 57, 32
9, 188640, Note_on_c, 3, 53, 32
9, 188759, Note_on_c, 3, 57, 0
9, 188759, Note_on_c, 3, 53, 0
9, 189000, Note_on_c, 3, 50, 32
9, 189000, Note_on_c, 3, 53, 32
9, 189164, Note_on_c, 3, 50, 0
9, 189164, Note_on_c, 3, 53, 0
9, 189180, Note_on_c, 3, 65, 32
9, 189180, Note_on_c, 3, 62, 32
9, 189224, Note_on_c, 3, 65, 0
9, 189224, Note_on_c, 3, 62, 0
9, 189240, Note_on_c, 3, 62, 32
9, 189240, Note_on_c, 3, 65, 32
9, 189344, Note_on_c, 3, 62, 0
9, 189344, Note_on_c, 3, 65, 0
9, 189360, Note_on_c, 3, 65, 32
9, 189360, Note_on_c, 3, 62, 32
9, 189479, Note_on_c, 3, 65, 0
9, 189479, Note_on_c, 3, 62, 0
9, 191160, Note_on_c, 3, 58, 32
9, 191160, Note_on_c, 3, 46, 32
9, 191324, Note_on_c, 3, 58, 0
9, 191324, Note_on_c, 3, 46, 0
9, 191340, Note_on_c, 3, 62, 32
9, 191340, Note_on_c, 3, 58, 32
9, 191384, Note_on_c, 3, 62, 0
9, 191384, Note_on_c, 3, 58, 0
9, 191400, Note_on_c, 3, 62, 32
9, 191400, Note_on_c, 3, 58, 32
9, 191504, Note_on_c, 3, 62, 0
9, 191504, Note_on_c, 3, 58, 0
9, 191520, Note_on_c, 3, 58, 32
9, 191520, Note_on_c, 3, 53, 32
9, 191639, Note_on_c, 3, 58, 0
9, 191639, Note_on_c, 3, 53, 0
9, 191880, Note_on_c, 3, 50, 32
9, 191880, Note_on_c, 3, 53, 32
9, 192044, Note_on_c, 3, 50, 0
9, 192044, Note_on_c, 3, 53, 0
9, 192060, Note_on_c, 3, 62, 32
9, 192060, Note_on_c, 3, 65, 32
9, 192104, Note_on_c, 3, 62, 0
9, 192104, Note_on_c, 3, 65, 0
9, 192120, Note_on_c, 3, 62, 32
9, 192120, Note_on_c, 3, 65, 32
9, 192224, Note_on_c, 3, 62, 0
9, 192224, Note_on_c, 3, 65, 0
9, 192240, Note_on_c, 3, 58, 32
9, 192240, Note_on_c, 3, 62, 32
9, 192359, Note_on_c, 3, 58, 0
9, 192359, Note_on_c, 3, 62, 0
9, 192600, Note_on_c, 3, 53, 32
9, 192600, Note_on_c, 3, 41, 32
9, 192764, Note_on_c, 3, 53, 0
9, 192764, Note_on_c, 3, 41, 0
9, 192780, Note_on_c, 3, 65, 32
9, 192780, Note_on_c, 3, 53, 32
9, 192824, Note_on_c, 3, 65, 0
9, 192824, Note_on_c, 3, 53, 0
9, 192840, Note_on_c, 3, 65, 32
9, 192840, Note_on_c, 3, 53, 32
9, 192944, Note_on_c, 3, 65, 0
9, 192944, Note_on_c, 3, 53, 0
9, 192960, Note_on_c, 3, 50, 32
9, 192960, Note_on_c, 3, 38, 32
9, 193079, Note_on_c, 3, 50, 0
9, 193079, Note_on_c, 3, 38, 0
9, 193320, Note_on_c, 3, 51, 32
9, 193320, Note_on_c, 3, 39, 32
9, 193484, Note_on_c, 3, 51, 0
9, 193484, Note_on_c, 3, 39, 0
9, 193500, Note_on_c, 3, 63, 32
9, 193500, Note_on_c, 3, 51, 32
9, 193544, Note_on_c, 3, 63, 0
9, 193544, Note_on_c, 3, 51, 0
9, 193560, Note_on_c, 3, 51, 32
9, 193560, Note_on_c, 3, 63, 32
9, 193664, Note_on_c, 3, 51, 0
9, 193664, Note_on_c, 3, 63, 0
9, 193680, Note_on_c, 3, 63, 32
9, 193680, Note_on_c, 3, 51, 32
9, 193799, Note_on_c, 3, 63, 0
9, 193799, Note_on_c, 3, 51, 0
9, 195480, Note_on_c, 3, 48, 36
9, 195480, Note_on_c, 3, 36, 36
9, 195644, Note_on_c, 3, 48, 0
9, 195644, Note_on_c, 3, 36, 0
9, 195660, Note_on_c, 3, 60, 38
9, 195660, Note_on_c, 3, 48, 38
9, 195704, Note_on_c, 3, 60, 0
9, 195704, Note_on_c, 3, 48, 0
9, 195720, Note_on_c, 3, 60, 38
9, 195720, Note_on_c, 3, 48, 38
9, 195824, Note_on_c, 3, 60, 0
9, 195824, Note_on_c, 3, 48, 0
9, 195840, Note_on_c, 3, 44, 40
9, 195840, Note_on_c, 3, 56, 40
9, 195959, Note_on_c, 3, 44, 0
9, 195959, Note_on_c, 3, 56, 0
9, 196200, Note_on_c, 3, 41, 44
9, 196200, Note_on_c, 3, 53, 44
9, 196364, Note_on_c, 3, 41, 0
9, 196364, Note_on_c, 3, 53, 0
9, 196380, Note_on_c, 3, 53, 46
9, 196380, Note_on_c, 3, 65, 46
9, 196424, Note_on_c, 3, 53, 0
9, 196424, Note_on_c, 3, 65, 0
9, 196440, Note_on_c, 3, 53, 46
9, 196440, Note_on_c, 3, 65, 46
9, 196544, Note_on_c, 3, 53, 0
9, 196544, Note_on_c, 3, 65, 0
9, 196560, Note_on_c, 3, 49, 48
9, 196560, Note_on_c, 3, 61, 48
9, 196679, Note_on_c, 3, 49, 0
9, 196679, Note_on_c, 3, 61, 0
9, 196920, Note_on_c, 3, 46, 52
9, 196920, Note_on_c, 3, 34, 52
9, 197084, Note_on_c, 3, 46, 0
9, 197084, Note_on_c, 3, 34, 0
9, 197100, Note_on_c, 3, 58, 54
9, 197100, Note_on_c, 3, 46, 54
9, 197144, Note_on_c, 3, 58, 0
9, 197144, Note_on_c, 3, 46, 0
9, 197160, Note_on_c, 3, 58, 54
9, 197160, Note_on_c, 3, 46, 54
9, 197264, Note_on_c, 3, 58, 0
9, 197264, Note_on_c, 3, 46, 0
9, 197280, Note_on_c, 3, 42, 56
9, 197280, Note_on_c, 3, 54, 56
9, 197399, Note_on_c, 3, 42, 0
9, 197399, Note_on_c, 3, 54, 0
9, 197640, Note_on_c, 3, 39, 60
9, 197640, Note_on_c, 3, 51, 60
9, 197804, Note_on_c, 3, 39, 0
9, 197804, Note_on_c, 3, 51, 0
9, 197820, Note_on_c, 3, 51, 62
9, 197820, Note_on_c, 3, 63, 62
9, 197864, Note_on_c, 3, 51, 0
9, 197864, Note_on_c, 3, 63, 0
9, 197880, Note_on_c, 3, 63, 62
9, 197880, Note_on_c, 3, 51, 62
9, 197984, Note_on_c, 3, 63, 0
9, 197984, Note_on_c, 3, 51, 0
9, 198000, Note_on_c, 3, 59, 64
9, 198000, Note_on_c, 3, 47, 64
9, 198119, Note_on_c, 3, 59, 0
9, 198119, Note_on_c, 3, 47, 0
9, 198360, Note_on_c, 3, 44, 68
9, 198524, Note_on_c, 3, 44, 0
9, 198540, Note_on_c, 3, 44, 70
9, 198540, Note_on_c, 3, 56, 70
9, 198584, Note_on_c, 3, 44, 0
9, 198584, Note_on_c, 3, 56, 0
9, 198600, Note_on_c, 3, 44, 70
9, 198600, Note_on_c, 3, 56, 70
9, 198704, Note_on_c, 3, 44, 0
9, 198704, Note_on_c, 3, 56, 0
9, 198720, Note_on_c, 3, 40, 72
9, 198720, Note_on_c, 3, 52, 72
9, 198839, Note_on_c, 3, 40, 0
9, 198839, Note_on_c, 3, 52, 0
9, 199080, Note_on_c, 3, 49, 76
9, 199080, Note_on_c, 3, 37, 76
9, 199244, Note_on_c, 3, 49, 0
9, 199244, Note_on_c, 3, 37, 0
9, 199260, Note_on_c, 3, 61, 78
9, 199260, Note_on_c, 3, 49, 78
9, 199304, Note_on_c, 3, 61, 0
9, 199304, Note_on_c, 3, 49, 0
9, 199320, Note_on_c, 3, 61, 78
9, 199320, Note_on_c, 3, 49, 78
9, 199424, Note_on_c, 3, 61, 0
9, 199424, Note_on_c, 3, 49, 0
9, 199440, Note_on_c, 3, 57, 80
9, 199440, Note_on_c, 3, 45, 80
9, 199559, Note_on_c, 3, 57, 0
9, 199559, Note_on_c, 3, 45, 0
9, 199800, Note_on_c, 3, 45, 80
9, 199964, Note_on_c, 3, 45, 0
9, 199980, Note_on_c, 3, 45, 80
9, 199980, Note_on_c, 3, 57, 80
9, 200024, Note_on_c, 3, 45, 0
9, 200024, Note_on_c, 3, 57, 0
9, 200040, Note_on_c, 3, 57, 80
9, 200040, Note_on_c, 3, 45, 80
9, 200144, Note_on_c, 3, 57, 0
9, 200144, Note_on_c, 3, 45, 0
9, 200520, Note_on_c, 3, 46, 92
9, 200520, Note_on_c, 3, 34, 92
9, 200684, Note_on_c, 3, 46, 0
9, 200684, Note_on_c, 3, 34, 0
9, 200700, Note_on_c, 3, 46, 92
9, 200700, Note_on_c, 3, 58, 92
9, 200744, Note_on_c, 3, 46, 0
9, 200744, Note_on_c, 3, 58, 0
9, 200760, Note_on_c, 3, 58, 92
9, 200760, Note_on_c, 3, 46, 92
9, 200864, Note_on_c, 3, 58, 0
9, 200864, Note_on_c, 3, 46, 0
9, 201240, Note_on_c, 3, 47, 92
9, 201240, Note_on_c, 3, 35, 92
9, 201404, Note_on_c, 3, 47, 0
9, 201404, Note_on_c, 3, 35, 0
9, 201420, Note_on_c, 3, 47, 92
9, 201420, Note_on_c, 3, 59, 92
9, 201464, Note_on_c, 3, 47, 0
9, 201464, Note_on_c, 3, 59, 0
9, 201480, Note_on_c, 3, 59, 92
9, 201480, Note_on_c, 3, 47, 92
9, 201929, Note_on_c, 3, 59, 0
9, 201929, Note_on_c, 3, 47, 0
9, 201960, Note_on_c, 3, 59, 44
9, 202124, Note_on_c, 3, 59, 0
9, 202140, Note_on_c, 3, 47, 44
9, 202184, Note_on_c, 3, 47, 0
9, 202200, Note_on_c, 3, 47, 44
9, 202304, Note_on_c, 3, 47, 0
9, 202320, Note_on_c, 3, 52, 44
9, 202409, Note_on_c, 3, 52, 0
9, 202440, Note_on_c, 3, 54, 44
9, 202440, Note_on_c, 3, 51, 44
9, 202529, Note_on_c, 3, 54, 0
9, 202529, Note_on_c, 3, 51, 0
9, 202560, Note_on_c, 3, 55, 44
9, 202560, Note_on_c, 3, 52, 44
9, 202649, Note_on_c, 3, 55, 0
9, 202649, Note_on_c, 3, 52, 0
9, 202680, Note_on_c, 3, 54, 44
9, 202680, Note_on_c, 3, 51, 44
9, 202769, Note_on_c, 3, 54, 0
9, 202769, Note_on_c, 3, 51, 0
9, 202800, Note_on_c, 3, 55, 44
9, 202800, Note_on_c, 3, 52, 44
9, 202889, Note_on_c, 3, 55, 0
9, 202889, Note_on_c, 3, 52, 0
9, 202920, Note_on_c, 3, 54, 44
9, 202920, Note_on_c, 3, 57, 44
9, 203009, Note_on_c, 3, 54, 0
9, 203009, Note_on_c, 3, 57, 0
9, 203040, Note_on_c, 3, 55, 44
9, 203040, Note_on_c, 3, 52, 44
9, 203129, Note_on_c, 3, 55, 0
9, 203129, Note_on_c, 3, 52, 0
9, 203160, Note_on_c, 3, 59, 44
9, 203160, Note_on_c, 3, 55, 44
9, 203249, Note_on_c, 3, 59, 0
9, 203249, Note_on_c, 3, 55, 0
9, 203280, Note_on_c, 3, 59, 44
9, 203280, Note_on_c, 3, 55, 44
9, 203369, Note_on_c, 3, 59, 0
9, 203369, Note_on_c, 3, 55, 0
9, 203400, Note_on_c, 3, 55, 44
9, 203400, Note_on_c, 3, 59, 44
9, 203489, Note_on_c, 3, 55, 0
9, 203489, Note_on_c, 3, 59, 0
9, 203520, Note_on_c, 3, 54, 44
9, 203520, Note_on_c, 3, 57, 44
9, 203609, Note_on_c, 3, 54, 0
9, 203609, Note_on_c, 3, 57, 0
9, 203640, Note_on_c, 3, 55, 44
9, 203640, Note_on_c, 3, 52, 44
9, 203729, Note_on_c, 3, 55, 0
9, 203729, Note_on_c, 3, 52, 0
9, 203760, Note_on_c, 3, 57, 44
9, 203760, Note_on_c, 3, 54, 44
9, 203849, Note_on_c, 3, 57, 0
9, 203849, Note_on_c, 3, 54, 0
9, 203880, Note_on_c, 3, 55, 44
9, 203880, Note_on_c, 3, 52, 44
9, 203969, Note_on_c, 3, 55, 0
9, 203969, Note_on_c, 3, 52, 0
9, 204000, Note_on_c, 3, 51, 44
9, 204000, Note_on_c, 3, 54, 44
9, 204089, Note_on_c, 3, 51, 0
9, 204089, Note_on_c, 3, 54, 0
9, 204120, Note_on_c, 3, 59, 44
9, 204284, Note_on_c, 3, 59, 0
9, 204300, Note_on_c, 3, 47, 44
9, 204344, Note_on_c, 3, 47, 0
9, 204360, Note_on_c, 3, 47, 44
9, 204464, Note_on_c, 3, 47, 0
9, 204480, Note_on_c, 3, 52, 44
9, 204480, Note_on_c, 3, 47, 44
9, 204569, Note_on_c, 3, 52, 0
9, 204569, Note_on_c, 3, 47, 0
9, 204600, Note_on_c, 3, 47, 44
9, 204600, Note_on_c, 3, 54, 44
9, 204689, Note_on_c, 3, 47, 0
9, 204689, Note_on_c, 3, 54, 0
9, 204720, Note_on_c, 3, 55, 44
9, 204720, Note_on_c, 3, 47, 44
9, 204809, Note_on_c, 3, 55, 0
9, 204809, Note_on_c, 3, 47, 0
9, 204840, Note_on_c, 3, 47, 44
9, 204840, Note_on_c, 3, 54, 44
9, 204929, Note_on_c, 3, 47, 0
9, 204929, Note_on_c, 3, 54, 0
9, 204960, Note_on_c, 3, 47, 44
9, 204960, Note_on_c, 3, 55, 44
9, 205049, Note_on_c, 3, 47, 0
9, 205049, Note_on_c, 3, 55, 0
9, 205080, Note_on_c, 3, 57, 44
9, 205080, Note_on_c, 3, 47, 44
9, 205169, Note_on_c, 3, 57, 0
9, 205169, Note_on_c, 3, 47, 0
9, 205200, Note_on_c, 3, 56, 44
9, 205200, Note_on_c, 3, 52, 44
9, 205289, Note_on_c, 3, 56, 0
9, 205289, Note_on_c, 3, 52, 0
9, 205320, Note_on_c, 3, 52, 44
9, 205320, Note_on_c, 3, 64, 44
9, 205409, Note_on_c, 3, 52, 0
9, 205409, Note_on_c, 3, 64, 0
9, 205440, Note_on_c, 3, 64, 44
9, 205440, Note_on_c, 3, 52, 44
9, 205529, Note_on_c, 3, 64, 0
9, 205529, Note_on_c, 3, 52, 0
9, 205560, Note_on_c, 3, 64, 44
9, 205560, Note_on_c, 3, 60, 44
9, 205649, Note_on_c, 3, 64, 0
9, 205649, Note_on_c, 3, 60, 0
9, 205680, Note_on_c, 3, 59, 44
9, 205680, Note_on_c, 3, 62, 44
9, 205769, Note_on_c, 3, 59, 0
9, 205769, Note_on_c, 3, 62, 0
9, 205800, Note_on_c, 3, 57, 44
9, 205800, Note_on_c, 3, 60, 44
9, 205889, Note_on_c, 3, 57, 0
9, 205889, Note_on_c, 3, 60, 0
9, 205920, Note_on_c, 3, 59, 44
9, 205920, Note_on_c, 3, 62, 44
9, 206009, Note_on_c, 3, 59, 0
9, 206009, Note_on_c, 3, 62, 0
9, 206040, Note_on_c, 3, 57, 44
9, 206040, Note_on_c, 3, 60, 44
9, 206129, Note_on_c, 3, 57, 0
9, 206129, Note_on_c, 3, 60, 0
9, 206160, Note_on_c, 3, 59, 44
9, 206160, Note_on_c, 3, 56, 44
9, 206249, Note_on_c, 3, 59, 0
9, 206249, Note_on_c, 3, 56, 0
9, 206280, Note_on_c, 3, 64, 44
9, 206444, Note_on_c, 3, 64, 0
9, 206460, Note_on_c, 3, 52, 44
9, 206504, Note_on_c, 3, 52, 0
9, 206520, Note_on_c, 3, 52, 44
9, 206624, Note_on_c, 3, 52, 0
9, 206640, Note_on_c, 3, 57, 44
9, 206640, Note_on_c, 3, 52, 44
9, 206729, Note_on_c, 3, 57, 0
9, 206729, Note_on_c, 3, 52, 0
9, 206760, Note_on_c, 3, 56, 44
9, 206760, Note_on_c, 3, 59, 44
9, 206849, Note_on_c, 3, 56, 0
9, 206849, Note_on_c, 3, 59, 0
9, 206880, Note_on_c, 3, 57, 44
9, 206880, Note_on_c, 3, 60, 44
9, 206969, Note_on_c, 3, 57, 0
9, 206969, Note_on_c, 3, 60, 0
9, 207000, Note_on_c, 3, 59, 44
9, 207000, Note_on_c, 3, 56, 44
9, 207089, Note_on_c, 3, 59, 0
9, 207089, Note_on_c, 3, 56, 0
9, 207120, Note_on_c, 3, 57, 44
9, 207120, Note_on_c, 3, 60, 44
9, 207209, Note_on_c, 3, 57, 0
9, 207209, Note_on_c, 3, 60, 0
9, 207240, Note_on_c, 3, 59, 44
9, 207240, Note_on_c, 3, 62, 44
9, 207329, Note_on_c, 3, 59, 0
9, 207329, Note_on_c, 3, 62, 0
9, 207360, Note_on_c, 3, 57, 44
9, 207360, Note_on_c, 3, 60, 44
9, 207449, Note_on_c, 3, 57, 0
9, 207449, Note_on_c, 3, 60, 0
9, 207480, Note_on_c, 3, 60, 44
9, 207480, Note_on_c, 3, 64, 44
9, 207569, Note_on_c, 3, 60, 0
9, 207569, Note_on_c, 3, 64, 0
9, 207600, Note_on_c, 3, 64, 44
9, 207600, Note_on_c, 3, 60, 44
9, 207689, Note_on_c, 3, 64, 0
9, 207689, Note_on_c, 3, 60, 0
9, 207720, Note_on_c, 3, 60, 44
9, 207720, Note_on_c, 3, 64, 44
9, 207809, Note_on_c, 3, 60, 0
9, 207809, Note_on_c, 3, 64, 0
9, 207840, Note_on_c, 3, 59, 44
9, 207840, Note_on_c, 3, 62, 44
9, 207929, Note_on_c, 3, 59, 0
9, 207929, Note_on_c, 3, 62, 0
9, 207960, Note_on_c, 3, 60, 44
9, 207960, Note_on_c, 3, 57, 44
9, 208049, Note_on_c, 3, 60, 0
9, 208049, Note_on_c, 3, 57, 0
9, 208080, Note_on_c, 3, 62, 44
9, 208080, Note_on_c, 3, 59, 44
9, 208169, Note_on_c, 3, 62, 0
9, 208169, Note_on_c, 3, 59, 0
9, 208200, Note_on_c, 3, 60, 44
9, 208200, Note_on_c, 3, 57, 44
9, 208289, Note_on_c, 3, 60, 0
9, 208289, Note_on_c, 3, 57, 0
9, 208320, Note_on_c, 3, 56, 44
9, 208320, Note_on_c, 3, 59, 44
9, 208409, Note_on_c, 3, 56, 0
9, 208409, Note_on_c, 3, 59, 0
9, 208800, Note_on_c, 3, 57, 44
9, 208800, Note_on_c, 3, 60, 44
9, 208889, Note_on_c, 3, 57, 0
9, 208889, Note_on_c, 3, 60, 0
9, 208920, Note_on_c, 3, 55, 44
9, 208920, Note_on_c, 3, 58, 44
9, 209009, Note_on_c, 3, 55, 0
9, 209009, Note_on_c, 3, 58, 0
9, 209040, Note_on_c, 3, 53, 44
9, 209040, Note_on_c, 3, 57, 44
9, 209129, Note_on_c, 3, 53, 0
9, 209129, Note_on_c, 3, 57, 0
9, 209160, Note_on_c, 3, 58, 44
9, 209160, Note_on_c, 3, 62, 44
9, 209249, Note_on_c, 3, 58, 0
9, 209249, Note_on_c, 3, 62, 0
9, 209280, Note_on_c, 3, 60, 44
9, 209280, Note_on_c, 3, 57, 44
9, 209369, Note_on_c, 3, 60, 0
9, 209369, Note_on_c, 3, 57, 0
9, 209400, Note_on_c, 3, 58, 44
9, 209400, Note_on_c, 3, 55, 44
9, 209489, Note_on_c, 3, 58, 0
9, 209489, Note_on_c, 3, 55, 0
9, 209880, Note_on_c, 3, 65, 44
9, 209880, Note_on_c, 3, 57, 44
9, 209969, Note_on_c, 3, 65, 0
9, 209969, Note_on_c, 3, 57, 0
9, 210000, Note_on_c, 3, 58, 44
9, 210000, Note_on_c, 3, 55, 44
9, 210089, Note_on_c, 3, 58, 0
9, 210089, Note_on_c, 3, 55, 0
9, 210120, Note_on_c, 3, 57, 44
9, 210120, Note_on_c, 3, 53, 44
9, 210209, Note_on_c, 3, 57, 0
9, 210209, Note_on_c, 3, 53, 0
9, 210240, Note_on_c, 3, 55, 44
9, 210240, Note_on_c, 3, 58, 44
9, 210329, Note_on_c, 3, 55, 0
9, 210329, Note_on_c, 3, 58, 0
9, 210360, Note_on_c, 3, 57, 44
9, 210360, Note_on_c, 3, 53, 44
9, 210449, Note_on_c, 3, 57, 0
9, 210449, Note_on_c, 3, 53, 0
9, 210480, Note_on_c, 3, 55, 44
9, 210480, Note_on_c, 3, 52, 44
9, 210569, Note_on_c, 3, 55, 0
9, 210569, Note_on_c, 3, 52, 0
9, 210960, Note_on_c, 3, 65, 44
9, 210960, Note_on_c, 3, 57, 44
9, 211049, Note_on_c, 3, 65, 0
9, 211049, Note_on_c, 3, 57, 0
9, 211080, Note_on_c, 3, 58, 44
9, 211080, Note_on_c, 3, 55, 44
9, 211169, Note_on_c, 3, 58, 0
9, 211169, Note_on_c, 3, 55, 0
9, 211200, Note_on_c, 3, 53, 44
9, 211200, Note_on_c, 3, 57, 44
9, 211289, Note_on_c, 3, 53, 0
9, 211289, Note_on_c, 3, 57, 0
9, 211320, Note_on_c, 3, 58, 44
9, 211320, Note_on_c, 3, 62, 44
9, 211409, Note_on_c, 3, 58, 0
9, 211409, Note_on_c, 3, 62, 0
9, 211440, Note_on_c, 3, 57, 44
9, 211440, Note_on_c, 3, 60, 44
9, 211529, Note_on_c, 3, 57, 0
9, 211529, Note_on_c, 3, 60, 0
9, 211560, Note_on_c, 3, 55, 44
9, 211560, Note_on_c, 3, 58, 44
9, 211649, Note_on_c, 3, 55, 0
9, 211649, Note_on_c, 3, 58, 0
9, 212040, Note_on_c, 3, 57, 44
9, 212040, Note_on_c, 3, 60, 44
9, 212129, Note_on_c, 3, 57, 0
9, 212129, Note_on_c, 3, 60, 0
9, 212160, Note_on_c, 3, 55, 44
9, 212160, Note_on_c, 3, 64, 44
9, 212249, Note_on_c, 3, 55, 0
9, 212249, Note_on_c, 3, 64, 0
9, 212280, Note_on_c, 3, 57, 44
9, 212280, Note_on_c, 3, 65, 44
9, 212369, Note_on_c, 3, 57, 0
9, 212369, Note_on_c, 3, 65, 0
9, 212400, Note_on_c, 3, 64, 44
9, 212400, Note_on_c, 3, 55, 44
9, 212489, Note_on_c, 3, 64, 0
9, 212489, Note_on_c, 3, 55, 0
9, 212520, Note_on_c, 3, 57, 44
9, 212520, Note_on_c, 3, 65, 44
9, 212609, Note_on_c, 3, 57, 0
9, 212609, Note_on_c, 3, 65, 0
9, 212640, Note_on_c, 3, 58, 44
9, 212640, Note_on_c, 3, 67, 44
9, 212729, Note_on_c, 3, 58, 0
9, 212729, Note_on_c, 3, 67, 0
9, 212760, Note_on_c, 3, 57, 44
9, 212760, Note_on_c, 3, 60, 44
9, 212849, Note_on_c, 3, 57, 0
9, 212849, Note_on_c, 3, 60, 0
9, 212880, Note_on_c, 3, 55, 44
9, 212880, Note_on_c, 3, 58, 44
9, 212969, Note_on_c, 3, 55, 0
9, 212969, Note_on_c, 3, 58, 0
9, 213000, Note_on_c, 3, 53, 44
9, 213000, Note_on_c, 3, 57, 44
9, 213089, Note_on_c, 3, 53, 0
9, 213089, Note_on_c, 3, 57, 0
9, 213120, Note_on_c, 3, 53, 44
9, 213120, Note_on_c, 3, 57, 44
9, 213209, Note_on_c, 3, 53, 0
9, 213209, Note_on_c, 3, 57, 0
9, 213240, Note_on_c, 3, 58, 44
9, 213240, Note_on_c, 3, 55, 44
9, 213329, Note_on_c, 3, 58, 0
9, 213329, Note_on_c, 3, 55, 0
9, 213360, Note_on_c, 3, 57, 44
9, 213360, Note_on_c, 3, 60, 44
9, 213449, Note_on_c, 3, 57, 0
9, 213449, Note_on_c, 3, 60, 0
9, 213480, Note_on_c, 3, 60, 43
9, 213480, Note_on_c, 3, 57, 43
9, 213569, Note_on_c, 3, 60, 0
9, 213569, Note_on_c, 3, 57, 0
9, 213600, Note_on_c, 3, 58, 43
9, 213600, Note_on_c, 3, 55, 43
9, 213689, Note_on_c, 3, 58, 0
9, 213689, Note_on_c, 3, 55, 0
9, 213720, Note_on_c, 3, 57, 43
9, 213720, Note_on_c, 3, 60, 43
9, 213809, Note_on_c, 3, 57, 0
9, 213809, Note_on_c, 3, 60, 0
9, 214200, Note_on_c, 3, 60, 41
9, 214364, Note_on_c, 3, 60, 0
9, 214380, Note_on_c, 3, 48, 41
9, 214424, Note_on_c, 3, 48, 0
9, 214440, Note_on_c, 3, 48, 40
9, 214544, Note_on_c, 3, 48, 0
9, 214920, Note_on_c, 3, 53, 39
9, 214920, Note_on_c, 3, 57, 39
9, 215024, Note_on_c, 3, 53, 0
9, 215024, Note_on_c, 3, 57, 0
9, 215040, Note_on_c, 3, 55, 39
9, 215040, Note_on_c, 3, 52, 39
9, 215144, Note_on_c, 3, 55, 0
9, 215144, Note_on_c, 3, 52, 0
9, 215160, Note_on_c, 3, 50, 38
9, 215160, Note_on_c, 3, 53, 38
9, 215264, Note_on_c, 3, 50, 0
9, 215264, Note_on_c, 3, 53, 0
9, 215280, Note_on_c, 3, 53, 38
9, 215280, Note_on_c, 3, 50, 38
9, 215384, Note_on_c, 3, 53, 0
9, 215384, Note_on_c, 3, 50, 0
9, 215400, Note_on_c, 3, 55, 38
9, 215400, Note_on_c, 3, 52, 38
9, 215504, Note_on_c, 3, 55, 0
9, 215504, Note_on_c, 3, 52, 0
9, 215520, Note_on_c, 3, 57, 37
9, 215520, Note_on_c, 3, 53, 37
9, 215624, Note_on_c, 3, 57, 0
9, 215624, Note_on_c, 3, 53, 0
9, 215640, Note_on_c, 3, 53, 37
9, 215640, Note_on_c, 3, 57, 37
9, 215744, Note_on_c, 3, 53, 0
9, 215744, Note_on_c, 3, 57, 0
9, 215760, Note_on_c, 3, 55, 36
9, 215760, Note_on_c, 3, 52, 36
9, 215864, Note_on_c, 3, 55, 0
9, 215864, Note_on_c, 3, 52, 0
9, 215880, Note_on_c, 3, 57, 36
9, 215880, Note_on_c, 3, 53, 36
9, 215999, Note_on_c, 3, 57, 0
9, 215999, Note_on_c, 3, 53, 0
9, 217080, Note_on_c, 3, 53, 32
9, 217080, Note_on_c, 3, 57, 32
9, 217184, Note_on_c, 3, 53, 0
9, 217184, Note_on_c, 3, 57, 0
9, 217200, Note_on_c, 3, 55, 32
9, 217200, Note_on_c, 3, 52, 32
9, 217304, Note_on_c, 3, 55, 0
9, 217304, Note_on_c, 3, 52, 0
9, 217320, Note_on_c, 3, 53, 32
9, 217320, Note_on_c, 3, 50, 32
9, 217424, Note_on_c, 3, 53, 0
9, 217424, Note_on_c, 3, 50, 0
9, 217440, Note_on_c, 3, 53, 32
9, 217440, Note_on_c, 3, 50, 32
9, 217544, Note_on_c, 3, 53, 0
9, 217544, Note_on_c, 3, 50, 0
9, 217560, Note_on_c, 3, 55, 32
9, 217560, Note_on_c, 3, 52, 32
9, 217664, Note_on_c, 3, 55, 0
9, 217664, Note_on_c, 3, 52, 0
9, 217680, Note_on_c, 3, 57, 32
9, 217680, Note_on_c, 3, 53, 32
9, 217784, Note_on_c, 3, 57, 0
9, 217784, Note_on_c, 3, 53, 0
9, 217800, Note_on_c, 3, 53, 32
9, 217800, Note_on_c, 3, 57, 32
9, 217904, Note_on_c, 3, 53, 0
9, 217904, Note_on_c, 3, 57, 0
9, 217920, Note_on_c, 3, 52, 32
9, 217920, Note_on_c, 3, 55, 32
9, 218024, Note_on_c, 3, 52, 0
9, 218024, Note_on_c, 3, 55, 0
9, 218040, Note_on_c, 3, 53, 32
9, 218040, Note_on_c, 3, 57, 32
9, 218159, Note_on_c, 3, 53, 0
9, 218159, Note_on_c, 3, 57, 0
9, 220320, Note_on_c, 3, 57, 32
9, 220484, Note_on_c, 3, 57, 0
9, 220500, Note_on_c, 3, 45, 32
9, 220544, Note_on_c, 3, 45, 0
9, 220560, Note_on_c, 3, 45, 32
9, 220664, Note_on_c, 3, 45, 0
9, 220680, Note_on_c, 3, 50, 32
9, 220680, Note_on_c, 3, 53, 32
9, 220784, Note_on_c, 3, 50, 0
9, 220784, Note_on_c, 3, 53, 0
9, 220800, Note_on_c, 3, 52, 32
9, 220800, Note_on_c, 3, 55, 32
9, 220904, Note_on_c, 3, 52, 0
9, 220904, Note_on_c, 3, 55, 0
9, 220920, Note_on_c, 3, 53, 32
9, 220920, Note_on_c, 3, 57, 32
9, 221024, Note_on_c, 3, 53, 0
9, 221024, Note_on_c, 3, 57, 0
9, 221040, Note_on_c, 3, 55, 32
9, 221040, Note_on_c, 3, 52, 32
9, 221144, Note_on_c, 3, 55, 0
9, 221144, Note_on_c, 3, 52, 0
9, 221160, Note_on_c, 3, 53, 32
9, 221160, Note_on_c, 3, 57, 32
9, 221264, Note_on_c, 3, 53, 0
9, 221264, Note_on_c, 3, 57, 0
9, 221280, Note_on_c, 3, 57, 32
9, 221280, Note_on_c, 3, 55, 32
9, 221384, Note_on_c, 3, 57, 0
9, 221384, Note_on_c, 3, 55, 0
9, 221400, Note_on_c, 3, 53, 32
9, 221400, Note_on_c, 3, 57, 32
9, 221504, Note_on_c, 3, 53, 0
9, 221504, Note_on_c, 3, 57, 0
9, 221520, Note_on_c, 3, 65, 32
9, 221520, Note_on_c, 3, 57, 32
9, 221624, Note_on_c, 3, 65, 0
9, 221624, Note_on_c, 3, 57, 0
9, 221640, Note_on_c, 3, 57, 32
9, 221640, Note_on_c, 3, 65, 32
9, 221744, Note_on_c, 3, 57, 0
9, 221744, Note_on_c, 3, 65, 0
9, 221760, Note_on_c, 3, 57, 32
9, 221760, Note_on_c, 3, 65, 32
9, 221864, Note_on_c, 3, 57, 0
9, 221864, Note_on_c, 3, 65, 0
9, 221880, Note_on_c, 3, 64, 32
9, 221880, Note_on_c, 3, 55, 32
9, 221984, Note_on_c, 3, 64, 0
9, 221984, Note_on_c, 3, 55, 0
9, 222000, Note_on_c, 3, 62, 32
9, 222000, Note_on_c, 3, 53, 32
9, 222104, Note_on_c, 3, 62, 0
9, 222104, Note_on_c, 3, 53, 0
9, 222120, Note_on_c, 3, 55, 32
9, 222120, Note_on_c, 3, 64, 32
9, 222224, Note_on_c, 3, 55, 0
9, 222224, Note_on_c, 3, 64, 0
9, 222240, Note_on_c, 3, 53, 32
9, 222240, Note_on_c, 3, 62, 32
9, 222344, Note_on_c, 3, 53, 0
9, 222344, Note_on_c, 3, 62, 0
9, 222360, Note_on_c, 3, 61, 32
9, 222360, Note_on_c, 3, 52, 32
9, 222464, Note_on_c, 3, 61, 0
9, 222464, Note_on_c, 3, 52, 0
9, 222480, Note_on_c, 3, 62, 32
9, 222480, Note_on_c, 3, 53, 32
9, 222584, Note_on_c, 3, 62, 0
9, 222584, Note_on_c, 3, 53, 0
9, 222600, Note_on_c, 3, 65, 32
9, 222704, Note_on_c, 3, 65, 0
9, 222720, Note_on_c, 3, 65, 32
9, 222824, Note_on_c, 3, 65, 0
9, 222840, Note_on_c, 3, 65, 32
9, 222944, Note_on_c, 3, 65, 0
9, 222960, Note_on_c, 3, 64, 32
9, 223064, Note_on_c, 3, 64, 0
9, 223080, Note_on_c, 3, 62, 32
9, 223184, Note_on_c, 3, 62, 0
9, 223200, Note_on_c, 3, 64, 32
9, 223304, Note_on_c, 3, 64, 0
9, 223320, Note_on_c, 3, 62, 32
9, 223424, Note_on_c, 3, 62, 0
9, 223440, Note_on_c, 3, 61, 32
9, 223544, Note_on_c, 3, 61, 0
9, 223560, Note_on_c, 3, 62, 32
9, 223664, Note_on_c, 3, 62, 0
9, 223680, Note_on_c, 3, 67, 32
9, 223784, Note_on_c, 3, 67, 0
9, 223800, Note_on_c, 3, 65, 32
9, 223904, Note_on_c, 3, 65, 0
9, 223920, Note_on_c, 3, 65, 32
9, 224024, Note_on_c, 3, 65, 0
9, 224040, Note_on_c, 3, 63, 32
9, 224144, Note_on_c, 3, 63, 0
9, 224160, Note_on_c, 3, 59, 32
9, 224264, Note_on_c, 3, 59, 0
9, 224280, Note_on_c, 3, 60, 32
9, 224384, Note_on_c, 3, 60, 0
9, 224400, Note_on_c, 3, 65, 32
9, 224504, Note_on_c, 3, 65, 0
9, 224520, Note_on_c, 3, 63, 32
9, 224624, Note_on_c, 3, 63, 0
9, 224640, Note_on_c, 3, 65, 32
9, 224744, Note_on_c, 3, 65, 0
9, 224760, Note_on_c, 3, 63, 32
9, 224864, Note_on_c, 3, 63, 0
9, 224880, Note_on_c, 3, 67, 32
9, 224984, Note_on_c, 3, 67, 0
9, 225000, Note_on_c, 3, 67, 32
9, 225164, Note_on_c, 3, 67, 0
9, 225180, Note_on_c, 3, 55, 32
9, 225224, Note_on_c, 3, 55, 0
9, 225240, Note_on_c, 3, 55, 32
9, 225344, Note_on_c, 3, 55, 0
9, 225360, Note_on_c, 3, 58, 32
9, 225464, Note_on_c, 3, 58, 0
9, 225480, Note_on_c, 3, 58, 32
9, 225584, Note_on_c, 3, 58, 0
9, 225600, Note_on_c, 3, 58, 32
9, 225704, Note_on_c, 3, 58, 0
9, 225720, Note_on_c, 3, 58, 32
9, 225824, Note_on_c, 3, 58, 0
9, 225840, Note_on_c, 3, 58, 32
9, 225944, Note_on_c, 3, 58, 0
9, 225960, Note_on_c, 3, 58, 32
9, 226064, Note_on_c, 3, 58, 0
9, 226080, Note_on_c, 3, 58, 32
9, 226184, Note_on_c, 3, 58, 0
9, 226200, Note_on_c, 3, 58, 32
9, 226304, Note_on_c, 3, 58, 0
9, 226320, Note_on_c, 3, 58, 32
9, 226424, Note_on_c, 3, 58, 0
9, 226440, Note_on_c, 3, 58, 32
9, 226544, Note_on_c, 3, 58, 0
9, 226560, Note_on_c, 3, 58, 32
9, 226664, Note_on_c, 3, 58, 0
9, 226680, Note_on_c, 3, 58, 32
9, 226784, Note_on_c, 3, 58, 0
9, 226800, Note_on_c, 3, 58, 32
9, 226904, Note_on_c, 3, 58, 0
9, 226920, Note_on_c, 3, 58, 32
9, 227024, Note_on_c, 3, 58, 0
9, 227040, Note_on_c, 3, 58, 32
9, 227144, Note_on_c, 3, 58, 0
9, 227160, Note_on_c, 3, 58, 32
9, 227264, Note_on_c, 3, 58, 0
9, 227280, Note_on_c, 3, 58, 32
9, 227384, Note_on_c, 3, 58, 0
9, 227400, Note_on_c, 3, 58, 32
9, 227504, Note_on_c, 3, 58, 0
9, 227520, Note_on_c, 3, 58, 32
9, 227639, Note_on_c, 3, 58, 0
9, 228960, Note_on_c, 3, 58, 32
9, 229079, Note_on_c, 3, 58, 0
9, 229320, Note_on_c, 3, 58, 32
9, 229439, Note_on_c, 3, 58, 0
9, 229680, Note_on_c, 3, 58, 32
9, 229799, Note_on_c, 3, 58, 0
9, 230040, Note_on_c, 3, 58, 32
9, 230159, Note_on_c, 3, 58, 0
9, 230400, Note_on_c, 3, 46, 32
9, 230400, Note_on_c, 3, 58, 32
9, 230519, Note_on_c, 3, 46, 0
9, 230519, Note_on_c, 3, 58, 0
9, 231840, Note_on_c, 3, 57, 44
9, 231840, Note_on_c, 3, 45, 44
9, 231959, Note_on_c, 3, 57, 0
9, 231959, Note_on_c, 3, 45, 0
9, 232560, Note_on_c, 3, 45, 62
9, 232560, Note_on_c, 3, 57, 62
9, 232679, Note_on_c, 3, 45, 0
9, 232679, Note_on_c, 3, 57, 0
9, 233280, Note_on_c, 3, 45, 80
9, 233280, Note_on_c, 3, 57, 80
9, 233399, Note_on_c, 3, 45, 0
9, 233399, Note_on_c, 3, 57, 0
9, 234000, Note_on_c, 3, 45, 86
9, 234000, Note_on_c, 3, 57, 86
9, 234119, Note_on_c, 3, 45, 0
9, 234119, Note_on_c, 3, 57, 0
9, 234720, Note_on_c, 3, 38, 92
9, 234884, Note_on_c, 3, 38, 0
9, 234900, Note_on_c, 3, 38, 92
9, 234944, Note_on_c, 3, 38, 0
9, 234960, Note_on_c, 3, 38, 92
9, 235064, Note_on_c, 3, 38, 0
9, 235080, Note_on_c, 3, 38, 92
9, 235244, Note_on_c, 3, 38, 0
9, 235260, Note_on_c, 3, 38, 92
9, 235304, Note_on_c, 3, 38, 0
9, 235320, Note_on_c, 3, 38, 92
9, 235424, Note_on_c, 3, 38, 0
9, 235440, Note_on_c, 3, 38, 92
9, 235604, Note_on_c, 3, 38, 0
9, 235620, Note_on_c, 3, 38, 92
9, 235664, Note_on_c, 3, 38, 0
9, 235680, Note_on_c, 3, 38, 92
9, 235784, Note_on_c, 3, 38, 0
9, 235800, Note_on_c, 3, 38, 92
9, 235964, Note_on_c, 3, 38, 0
9, 235980, Note_on_c, 3, 38, 92
9, 236024, Note_on_c, 3, 38, 0
9, 236040, Note_on_c, 3, 38, 92
9, 236144, Note_on_c, 3, 38, 0
9, 236160, Note_on_c, 3, 38, 92
9, 236324, Note_on_c, 3, 38, 0
9, 236340, Note_on_c, 3, 38, 92
9, 236384, Note_on_c, 3, 38, 0
9, 236400, Note_on_c, 3, 38, 92
9, 236504, Note_on_c, 3, 38, 0
9, 236520, Note_on_c, 3, 38, 92
9, 236684, Note_on_c, 3, 38, 0
9, 236700, Note_on_c, 3, 38, 92
9, 236744, Note_on_c, 3, 38, 0
9, 236760, Note_on_c, 3, 38, 92
9, 236864, Note_on_c, 3, 38, 0
9, 236880, Note_on_c, 3, 38, 92
9, 237044, Note_on_c, 3, 38, 0
9, 237060, Note_on_c, 3, 38, 92
9, 237104, Note_on_c, 3, 38, 0
9, 237120, Note_on_c, 3, 38, 92
9, 237224, Note_on_c, 3, 38, 0
9, 237240, Note_on_c, 3, 38, 92
9, 237404, Note_on_c, 3, 38, 0
9, 237420, Note_on_c, 3, 38, 92
9, 237464, Note_on_c, 3, 38, 0
9, 237480, Note_on_c, 3, 38, 92
9, 237584, Note_on_c, 3, 38, 0
9, 237600, Note_on_c, 3, 38, 92
9, 237764, Note_on_c, 3, 38, 0
9, 237780, Note_on_c, 3, 38, 92
9, 237824, Note_on_c, 3, 38, 0
9, 237840, Note_on_c, 3, 38, 92
9, 237944, Note_on_c, 3, 38, 0
9, 237960, Note_on_c, 3, 38, 92
9, 238124, Note_on_c, 3, 38, 0
9, 238140, Note_on_c, 3, 38, 92
9, 238184, Note_on_c, 3, 38, 0
9, 238200, Note_on_c, 3, 38, 92
9, 238304, Note_on_c, 3, 38, 0
9, 238320, Note_on_c, 3, 38, 92
9, 238484, Note_on_c, 3, 38, 0
9, 238500, Note_on_c, 3, 38, 92
9, 238544, Note_on_c, 3, 38, 0
9, 238560, Note_on_c, 3, 38, 92
9, 238664, Note_on_c, 3, 38, 0
9, 238680, Note_on_c, 3, 38, 92
9, 238844, Note_on_c, 3, 38, 0
9, 238860, Note_on_c, 3, 38, 92
9, 238904, Note_on_c, 3, 38, 0
9, 238920, Note_on_c, 3, 38, 92
9, 239024, Note_on_c, 3, 38, 0
9, 239040, Note_on_c, 3, 38, 92
9, 239204, Note_on_c, 3, 38, 0
9, 239220, Note_on_c, 3, 38, 92
9, 239264, Note_on_c, 3, 38, 0
9, 239280, Note_on_c, 3, 38, 92
9, 239384, Note_on_c, 3, 38, 0
9, 239400, Note_on_c, 3, 38, 92
9, 239564, Note_on_c, 3, 38, 0
9, 239580, Note_on_c, 3, 38, 92
9, 239624, Note_on_c, 3, 38, 0
9, 239640, Note_on_c, 3, 38, 92
9, 239744, Note_on_c, 3, 38, 0
9, 239760, Note_on_c, 3, 38, 92
9, 239924, Note_on_c, 3, 38, 0
9, 239940, Note_on_c, 3, 38, 92
9, 239984, Note_on_c, 3, 38, 0
9, 240000, Note_on_c, 3, 38, 92
9, 240104, Note_on_c, 3, 38, 0
9, 240120, Note_on_c, 3, 38, 92
9, 240284, Note_on_c, 3, 38, 0
9, 240300, Note_on_c, 3, 38, 92
9, 240344, Note_on_c, 3, 38, 0
9, 240360, Note_on_c, 3, 38, 92
9, 240464, Note_on_c, 3, 38, 0
9, 240480, Note_on_c, 3, 51, 92
9, 240480, Note_on_c, 3, 63, 92
9, 240569, Note_on_c, 3, 51, 0
9, 240569, Note_on_c, 3, 63, 0
9, 240600, Note_on_c, 3, 50, 92
9, 240600, Note_on_c, 3, 62, 92
9, 240689, Note_on_c, 3, 50, 0
9, 240689, Note_on_c, 3, 62, 0
9, 240720, Note_on_c, 3, 60, 92
9, 240720, Note_on_c, 3, 48, 92
9, 240809, Note_on_c, 3, 60, 0
9, 240809, Note_on_c, 3, 48, 0
9, 240840, Note_on_c, 3, 58, 92
9, 240840, Note_on_c, 3, 46, 92
9, 240929, Note_on_c, 3, 58, 0
9, 240929, Note_on_c, 3, 46, 0
9, 240960, Note_on_c, 3, 45, 92
9, 240960, Note_on_c, 3, 57, 92
9, 241049, Note_on_c, 3, 45, 0
9, 241049, Note_on_c, 3, 57, 0
9, 241080, Note_on_c, 3, 43, 92
9, 241080, Note_on_c, 3, 55, 92
9, 241169, Note_on_c, 3, 43, 0
9, 241169, Note_on_c, 3, 55, 0
9, 241200, Note_on_c, 3, 54, 92
9, 241200, Note_on_c, 3, 42, 92
9, 241289, Note_on_c, 3, 54, 0
9, 241289, Note_on_c, 3, 42, 0
9, 241320, Note_on_c, 3, 55, 92
9, 241320, Note_on_c, 3, 43, 92
9, 241409, Note_on_c, 3, 55, 0
9, 241409, Note_on_c, 3, 43, 0
9, 241440, Note_on_c, 3, 57, 92
9, 241440, Note_on_c, 3, 45, 92
9, 241529, Note_on_c, 3, 57, 0
9, 241529, Note_on_c, 3, 45, 0
9, 241560, Note_on_c, 3, 43, 92
9, 241560, Note_on_c, 3, 55, 92
9, 241649, Note_on_c, 3, 43, 0
9, 241649, Note_on_c, 3, 55, 0
9, 241680, Note_on_c, 3, 45, 92
9, 241680, Note_on_c, 3, 57, 92
9, 241769, Note_on_c, 3, 45, 0
9, 241769, Note_on_c, 3, 57, 0
9, 241800, Note_on_c, 3, 46, 92
9, 241800, Note_on_c, 3, 58, 92
9, 241889, Note_on_c, 3, 46, 0
9, 241889, Note_on_c, 3, 58, 0
9, 241920, Note_on_c, 3, 51, 80
9, 241920, Note_on_c, 3, 63, 80
9, 242009, Note_on_c, 3, 51, 0
9, 242009, Note_on_c, 3, 63, 0
9, 242040, Note_on_c, 3, 50, 80
9, 242040, Note_on_c, 3, 62, 80
9, 242129, Note_on_c, 3, 50, 0
9, 242129, Note_on_c, 3, 62, 0
9, 242160, Note_on_c, 3, 60, 80
9, 242160, Note_on_c, 3, 48, 80
9, 242249, Note_on_c, 3, 60, 0
9, 242249, Note_on_c, 3, 48, 0
9, 242280, Note_on_c, 3, 46, 80
9, 242280, Note_on_c, 3, 58, 80
9, 242369, Note_on_c, 3, 46, 0
9, 242369, Note_on_c, 3, 58, 0
9, 242400, Note_on_c, 3, 57, 80
9, 242400, Note_on_c, 3, 45, 80
9, 242489, Note_on_c, 3, 57, 0
9, 242489, Note_on_c, 3, 45, 0
9, 242520, Note_on_c, 3, 43, 80
9, 242520, Note_on_c, 3, 55, 80
9, 242609, Note_on_c, 3, 43, 0
9, 242609, Note_on_c, 3, 55, 0
9, 242640, Note_on_c, 3, 53, 80
9, 242640, Note_on_c, 3, 65, 80
9, 242729, Note_on_c, 3, 53, 0
9, 242729, Note_on_c, 3, 65, 0
9, 242760, Note_on_c, 3, 51, 80
9, 242760, Note_on_c, 3, 63, 80
9, 242849, Note_on_c, 3, 51, 0
9, 242849, Note_on_c, 3, 63, 0
9, 242880, Note_on_c, 3, 62, 80
9, 242880, Note_on_c, 3, 50, 80
9, 242969, Note_on_c, 3, 62, 0
9, 242969, Note_on_c, 3, 50, 0
9, 243000, Note_on_c, 3, 48, 80
9, 243000, Note_on_c, 3, 60, 80
9, 243089, Note_on_c, 3, 48, 0
9, 243089, Note_on_c, 3, 60, 0
9, 243120, Note_on_c, 3, 46, 80
9, 243120, Note_on_c, 3, 58, 80
9, 243209, Note_on_c, 3, 46, 0
9, 243209, Note_on_c, 3, 58, 0
9, 243240, Note_on_c, 3, 45, 80
9, 243240, Note_on_c, 3, 57, 80
9, 243329, Note_on_c, 3, 45, 0
9, 243329, Note_on_c, 3, 57, 0
9, 243360, Note_on_c, 3, 45, 80
9, 243449, Note_on_c, 3, 45, 0
9, 243480, Note_on_c, 3, 46, 80
9, 243569, Note_on_c, 3, 46, 0
9, 243600, Note_on_c, 3, 48, 80
9, 243689, Note_on_c, 3, 48, 0
9, 243720, Note_on_c, 3, 50, 80
9, 243809, Note_on_c, 3, 50, 0
9, 243840, Note_on_c, 3, 51, 80
9, 243929, Note_on_c, 3, 51, 0
9, 243960, Note_on_c, 3, 53, 80
9, 244049, Note_on_c, 3, 53, 0
9, 244080, Note_on_c, 3, 55, 80
9, 244169, Note_on_c, 3, 55, 0
9, 244200, Note_on_c, 3, 57, 80
9, 244289, Note_on_c, 3, 57, 0
9, 244320, Note_on_c, 3, 58, 80
9, 244409, Note_on_c, 3, 58, 0
9, 244440, Note_on_c, 3, 60, 80
9, 244529, Note_on_c, 3, 60, 0
9, 244560, Note_on_c, 3, 62, 80
9, 244649, Note_on_c, 3, 62, 0
9, 244680, Note_on_c, 3, 63, 80
9, 244769, Note_on_c, 3, 63, 0
9, 244800, Note_on_c, 3, 65, 80
9, 244860, Control_c, 3, 11, 67
9, 245520, Control_c, 3, 11, 67
9, 245556, Control_c, 3, 11, 68
9, 245592, Control_c, 3, 11, 69
9, 245628, Control_c, 3, 11, 70
9, 245664, Control_c, 3, 11, 71
9, 245700, Control_c, 3, 11, 72
9, 245736, Control_c, 3, 11, 73
9, 245772, Control_c, 3, 11, 74
9, 245808, Control_c, 3, 11, 75
9, 245844, Control_c, 3, 11, 76
9, 245879, Note_on_c, 3, 65, 0
9, 245880, Control_c, 3, 11, 77
9, 245880, Note_on_c, 3, 63, 80
9, 245916, Control_c, 3, 11, 78
9, 245952, Control_c, 3, 11, 79
9, 245988, Control_c, 3, 11, 80
9, 246024, Control_c, 3, 11, 81
9, 246060, Control_c, 3, 11, 82
9, 246096, Control_c, 3, 11, 83
9, 246132, Control_c, 3, 11, 84
9, 246168, Control_c, 3, 11, 85
9, 246204, Control_c, 3, 11, 86
9, 246240, Control_c, 3, 11, 87
9, 246276, Control_c, 3, 11, 88
9, 246312, Control_c, 3, 11, 89
9, 246348, Control_c, 3, 11, 90
9, 246384, Control_c, 3, 11, 91
9, 246420, Control_c, 3, 11, 92
9, 246456, Control_c, 3, 11, 93
9, 246492, Control_c, 3, 11, 94
9, 246528, Control_c, 3, 11, 95
9, 246564, Control_c, 3, 11, 96
9, 246599, Note_on_c, 3, 63, 0
9, 246600, Control_c, 3, 11, 97
9, 246600, Note_on_c, 3, 62, 80
9, 246636, Control_c, 3, 11, 98
9, 246672, Control_c, 3, 11, 99
9, 246708, Control_c, 3, 11, 100
9, 246744, Control_c, 3, 11, 101
9, 246780, Control_c, 3, 11, 102
9, 246816, Control_c, 3, 11, 103
9, 246852, Control_c, 3, 11, 104
9, 246888, Control_c, 3, 11, 105
9, 246924, Control_c, 3, 11, 106
9, 246959, Note_on_c, 3, 62, 0
9, 246960, Note_on_c, 3, 61, 80
9, 246960, Control_c, 3, 11, 107
9, 246990, Control_c, 3, 11, 105
9, 247020, Control_c, 3, 11, 104
9, 247050, Control_c, 3, 11, 102
9, 247080, Control_c, 3, 11, 100
9, 247110, Control_c, 3, 11, 99
9, 247140, Control_c, 3, 11, 97
9, 247170, Control_c, 3, 11, 95
9, 247200, Control_c, 3, 11, 94
9, 247230, Control_c, 3, 11, 92
9, 247260, Control_c, 3, 11, 90
9, 247290, Control_c, 3, 11, 89
9, 247319, Note_on_c, 3, 61, 0
9, 247320, Control_c, 3, 11, 87
9, 247320, Note_on_c, 3, 60, 80
9, 247350, Control_c, 3, 11, 85
9, 247380, Control_c, 3, 11, 84
9, 247410, Control_c, 3, 11, 82
9, 247440, Control_c, 3, 11, 80
9, 247470, Control_c, 3, 11, 79
9, 247500, Control_c, 3, 11, 77
9, 247530, Control_c, 3, 11, 75
9, 247560, Control_c, 3, 11, 74
9, 247590, Control_c, 3, 11, 72
9, 247620, Control_c, 3, 11, 70
9, 247650, Control_c, 3, 11, 67
9, 247664, Note_on_c, 3, 60, 0
9, 247680, Note_on_c, 3, 58, 80
9, 247680, Note_on_c, 3, 46, 80
9, 248399, Note_on_c, 3, 58, 0
9, 248399, Note_on_c, 3, 46, 0
9, 248400, Note_on_c, 3, 57, 80
9, 248760, Control_c, 3, 11, 67
9, 248796, Control_c, 3, 11, 68
9, 248832, Control_c, 3, 11, 69
9, 248868, Control_c, 3, 11, 70
9, 248904, Control_c, 3, 11, 71
9, 248940, Control_c, 3, 11, 72
9, 248976, Control_c, 3, 11, 73
9, 249012, Control_c, 3, 11, 74
9, 249048, Control_c, 3, 11, 75
9, 249084, Control_c, 3, 11, 76
9, 249120, Note_on_c, 3, 59, 80
9, 249120, Control_c, 3, 11, 77
9, 249156, Control_c, 3, 11, 78
9, 249192, Control_c, 3, 11, 79
9, 249228, Control_c, 3, 11, 80
9, 249264, Control_c, 3, 11, 81
9, 249300, Control_c, 3, 11, 82
9, 249336, Control_c, 3, 11, 83
9, 249372, Control_c, 3, 11, 84
9, 249408, Control_c, 3, 11, 85
9, 249444, Control_c, 3, 11, 86
9, 249464, Note_on_c, 3, 57, 0
9, 249480, Note_on_c, 3, 55, 80
9, 249480, Control_c, 3, 11, 87
9, 249516, Control_c, 3, 11, 88
9, 249552, Control_c, 3, 11, 89
9, 249588, Control_c, 3, 11, 90
9, 249624, Control_c, 3, 11, 91
9, 249660, Control_c, 3, 11, 92
9, 249696, Control_c, 3, 11, 93
9, 249732, Control_c, 3, 11, 94
9, 249768, Control_c, 3, 11, 95
9, 249804, Control_c, 3, 11, 96
9, 249839, Note_on_c, 3, 59, 0
9, 249840, Control_c, 3, 11, 97
9, 249840, Note_on_c, 3, 58, 80
9, 249876, Control_c, 3, 11, 98
9, 249912, Control_c, 3, 11, 99
9, 249948, Control_c, 3, 11, 100
9, 249984, Control_c, 3, 11, 101
9, 250020, Control_c, 3, 11, 102
9, 250056, Control_c, 3, 11, 103
9, 250092, Control_c, 3, 11, 104
9, 250128, Control_c, 3, 11, 105
9, 250164, Control_c, 3, 11, 106
9, 250199, Note_on_c, 3, 55, 0
9, 250199, Note_on_c, 3, 58, 0
9, 250200, Note_on_c, 3, 54, 80
9, 250200, Note_on_c, 3, 57, 80
9, 250200, Control_c, 3, 11, 107
9, 250230, Control_c, 3, 11, 106
9, 250260, Control_c, 3, 11, 105
9, 250290, Control_c, 3, 11, 104
9, 250320, Control_c, 3, 11, 103
9, 250350, Control_c, 3, 11, 101
9, 250380, Control_c, 3, 11, 100
9, 250410, Control_c, 3, 11, 99
9, 250440, Control_c, 3, 11, 98
9, 250470, Control_c, 3, 11, 97
9, 250500, Control_c, 3, 11, 96
9, 250530, Control_c, 3, 11, 95
9, 250559, Note_on_c, 3, 54, 0
9, 250560, Note_on_c, 3, 53, 80
9, 250560, Control_c, 3, 11, 94
9, 250590, Control_c, 3, 11, 93
9, 250620, Control_c, 3, 11, 91
9, 250650, Control_c, 3, 11, 90
9, 250680, Control_c, 3, 11, 89
9, 250710, Control_c, 3, 11, 88
9, 250740, Control_c, 3, 11, 87
9, 250770, Control_c, 3, 11, 86
9, 250800, Control_c, 3, 11, 85
9, 250830, Control_c, 3, 11, 84
9, 250860, Control_c, 3, 11, 83
9, 250890, Control_c, 3, 11, 81
9, 250919, Note_on_c, 3, 53, 0
9, 250920, Note_on_c, 3, 52, 80
9, 250920, Control_c, 3, 11, 80
9, 250950, Control_c, 3, 11, 79
9, 250980, Control_c, 3, 11, 78
9, 251010, Control_c, 3, 11, 77
9, 251040, Control_c, 3, 11, 76
9, 251070, Control_c, 3, 11, 75
9, 251100, Control_c, 3, 11, 74
9, 251130, Control_c, 3, 11, 73
9, 251160, Control_c, 3, 11, 71
9, 251190, Control_c, 3, 11, 70
9, 251220, Control_c, 3, 11, 69
9, 251250, Control_c, 3, 11, 67
9, 251279, Note_on_c, 3, 57, 0
9, 251279, Note_on_c, 3, 52, 0
9, 251640, Control_c, 3, 11, 87
9, 251676, Control_c, 3, 11, 88
9, 251712, Control_c, 3, 11, 89
9, 251748, Control_c, 3, 11, 90
9, 251784, Control_c, 3, 11, 91
9, 251820, Control_c, 3, 11, 92
9, 251856, Control_c, 3, 11, 93
9, 251892, Control_c, 3, 11, 94
9, 251928, Control_c, 3, 11, 95
9, 251964, Control_c, 3, 11, 96
9, 252000, Note_on_c, 3, 58, 68
9, 252000, Control_c, 3, 11, 97
9, 252036, Control_c, 3, 11, 98
9, 252072, Control_c, 3, 11, 99
9, 252108, Control_c, 3, 11, 100
9, 252144, Control_c, 3, 11, 101
9, 252180, Control_c, 3, 11, 102
9, 252216, Control_c, 3, 11, 103
9, 252252, Control_c, 3, 11, 104
9, 252288, Control_c, 3, 11, 105
9, 252324, Control_c, 3, 11, 106
9, 252360, Control_c, 3, 11, 107
9, 252360, Note_on_c, 3, 64, 68
9, 252396, Control_c, 3, 11, 108
9, 252432, Control_c, 3, 11, 109
9, 252468, Control_c, 3, 11, 110
9, 252504, Control_c, 3, 11, 111
9, 252540, Control_c, 3, 11, 112
9, 252576, Control_c, 3, 11, 113
9, 252612, Control_c, 3, 11, 114
9, 252648, Control_c, 3, 11, 115
9, 252684, Control_c, 3, 11, 116
9, 252719, Note_on_c, 3, 58, 0
9, 252720, Control_c, 3, 11, 117
9, 252720, Note_on_c, 3, 57, 68
9, 252756, Control_c, 3, 11, 118
9, 252792, Control_c, 3, 11, 119
9, 252828, Control_c, 3, 11, 120
9, 252864, Control_c, 3, 11, 121
9, 252900, Control_c, 3, 11, 122
9, 252936, Control_c, 3, 11, 123
9, 252972, Control_c, 3, 11, 124
9, 253008, Control_c, 3, 11, 125
9, 253044, Control_c, 3, 11, 126
9, 253079, Note_on_c, 3, 64, 0
9, 253080, Note_on_c, 3, 62, 68
9, 253080, Control_c, 3, 11, 127
9, 253107, Control_c, 3, 11, 126
9, 253134, Control_c, 3, 11, 125
9, 253161, Control_c, 3, 11, 124
9, 253188, Control_c, 3, 11, 123
9, 253215, Control_c, 3, 11, 122
9, 253242, Control_c, 3, 11, 121
9, 253269, Control_c, 3, 11, 120
9, 253296, Control_c, 3, 11, 119
9, 253323, Control_c, 3, 11, 118
9, 253350, Control_c, 3, 11, 117
9, 253377, Control_c, 3, 11, 116
9, 253404, Control_c, 3, 11, 115
9, 253431, Control_c, 3, 11, 114
9, 253439, Note_on_c, 3, 57, 0
9, 253440, Note_on_c, 3, 56, 68
9, 253458, Control_c, 3, 11, 113
9, 253485, Control_c, 3, 11, 112
9, 253512, Control_c, 3, 11, 111
9, 253539, Control_c, 3, 11, 110
9, 253566, Control_c, 3, 11, 109
9, 253593, Control_c, 3, 11, 108
9, 253620, Control_c, 3, 11, 107
9, 253647, Control_c, 3, 11, 106
9, 253674, Control_c, 3, 11, 105
9, 253701, Control_c, 3, 11, 104
9, 253728, Control_c, 3, 11, 103
9, 253755, Control_c, 3, 11, 102
9, 253782, Control_c, 3, 11, 101
9, 253799, Note_on_c, 3, 62, 0
9, 253799, Note_on_c, 3, 56, 0
9, 253800, Note_on_c, 3, 61, 68
9, 253800, Note_on_c, 3, 55, 68
9, 253809, Control_c, 3, 11, 100
9, 253836, Control_c, 3, 11, 99
9, 253863, Control_c, 3, 11, 98
9, 253890, Control_c, 3, 11, 97
9, 253917, Control_c, 3, 11, 96
9, 253944, Control_c, 3, 11, 95
9, 253971, Control_c, 3, 11, 94
9, 253998, Control_c, 3, 11, 93
9, 254025, Control_c, 3, 11, 92
9, 254052, Control_c, 3, 11, 91
9, 254079, Control_c, 3, 11, 90
9, 254106, Control_c, 3, 11, 89
9, 254133, Control_c, 3, 11, 88
9, 254144, Note_on_c, 3, 61, 0
9, 254144, Note_on_c, 3, 55, 0
9, 254158, Control_c, 3, 11, 47
9, 254160, Note_on_c, 3, 57, 92
9, 254160, Note_on_c, 3, 45, 92
9, 254196, Control_c, 3, 11, 48
9, 254232, Control_c, 3, 11, 49
9, 254268, Control_c, 3, 11, 50
9, 254304, Control_c, 3, 11, 51
9, 254340, Control_c, 3, 11, 52
9, 254376, Control_c, 3, 11, 53
9, 254412, Control_c, 3, 11, 54
9, 254448, Control_c, 3, 11, 55
9, 254484, Control_c, 3, 11, 56
9, 254520, Control_c, 3, 11, 57
9, 254556, Control_c, 3, 11, 58
9, 254592, Control_c, 3, 11, 59
9, 254628, Control_c, 3, 11, 60
9, 254664, Control_c, 3, 11, 61
9, 254700, Control_c, 3, 11, 62
9, 254736, Control_c, 3, 11, 63
9, 254772, Control_c, 3, 11, 64
9, 254808, Control_c, 3, 11, 65
9, 254844, Control_c, 3, 11, 66
9, 254880, Control_c, 3, 11, 67
9, 254916, Control_c, 3, 11, 68
9, 254952, Control_c, 3, 11, 69
9, 254988, Control_c, 3, 11, 70
9, 255024, Control_c, 3, 11, 71
9, 255060, Control_c, 3, 11, 72
9, 255096, Control_c, 3, 11, 73
9, 255132, Control_c, 3, 11, 74
9, 255168, Control_c, 3, 11, 75
9, 255204, Control_c, 3, 11, 76
9, 255239, Note_on_c, 3, 57, 0
9, 255239, Note_on_c, 3, 45, 0
9, 255240, Note_on_c, 3, 55, 92
9, 255240, Control_c, 3, 11, 77
9, 255240, Note_on_c, 3, 43, 92
9, 255276, Control_c, 3, 11, 78
9, 255312, Control_c, 3, 11, 79
9, 255348, Control_c, 3, 11, 80
9, 255384, Control_c, 3, 11, 81
9, 255420, Control_c, 3, 11, 82
9, 255456, Control_c, 3, 11, 83
9, 255492, Control_c, 3, 11, 84
9, 255528, Control_c, 3, 11, 85
9, 255564, Control_c, 3, 11, 86
9, 255600, Control_c, 3, 11, 87
9, 255636, Control_c, 3, 11, 88
9, 255672, Control_c, 3, 11, 89
9, 255708, Control_c, 3, 11, 90
9, 255744, Control_c, 3, 11, 91
9, 255780, Control_c, 3, 11, 92
9, 255816, Control_c, 3, 11, 93
9, 255852, Control_c, 3, 11, 94
9, 255888, Control_c, 3, 11, 95
9, 255924, Control_c, 3, 11, 96
9, 255959, Note_on_c, 3, 55, 0
9, 255959, Note_on_c, 3, 43, 0
9, 255960, Control_c, 3, 11, 97
9, 255960, Note_on_c, 3, 54, 92
9, 255960, Note_on_c, 3, 42, 92
9, 255996, Control_c, 3, 11, 98
9, 256032, Control_c, 3, 11, 99
9, 256068, Control_c, 3, 11, 100
9, 256104, Control_c, 3, 11, 101
9, 256140, Control_c, 3, 11, 102
9, 256176, Control_c, 3, 11, 103
9, 256212, Control_c, 3, 11, 104
9, 256248, Control_c, 3, 11, 105
9, 256284, Control_c, 3, 11, 106
9, 256319, Note_on_c, 3, 54, 0
9, 256319, Note_on_c, 3, 42, 0
9, 256320, Control_c, 3, 11, 107
9, 256320, Note_on_c, 3, 41, 92
9, 256320, Note_on_c, 3, 53, 92
9, 256356, Control_c, 3, 11, 108
9, 256392, Control_c, 3, 11, 109
9, 256428, Control_c, 3, 11, 110
9, 256464, Control_c, 3, 11, 111
9, 256500, Control_c, 3, 11, 112
9, 256536, Control_c, 3, 11, 113
9, 256572, Control_c, 3, 11, 114
9, 256608, Control_c, 3, 11, 115
9, 256644, Control_c, 3, 11, 116
9, 256679, Note_on_c, 3, 41, 0
9, 256679, Note_on_c, 3, 53, 0
9, 256680, Note_on_c, 3, 52, 92
9, 256680, Note_on_c, 3, 40, 92
9, 256680, Control_c, 3, 11, 117
9, 256716, Control_c, 3, 11, 118
9, 256752, Control_c, 3, 11, 119
9, 256788, Control_c, 3, 11, 120
9, 256824, Control_c, 3, 11, 121
9, 256860, Control_c, 3, 11, 122
9, 256896, Control_c, 3, 11, 123
9, 256932, Control_c, 3, 11, 124
9, 256968, Control_c, 3, 11, 125
9, 257004, Control_c, 3, 11, 127
9, 257024, Note_on_c, 3, 52, 0
9, 257024, Note_on_c, 3, 40, 0
9, 257040, Note_on_c, 3, 50, 92
9, 257279, Note_on_c, 3, 50, 0
9, 257280, Note_on_c, 3, 52, 92
9, 257339, Note_on_c, 3, 52, 0
9, 257340, Note_on_c, 3, 54, 92
9, 257384, Note_on_c, 3, 54, 0
9, 257400, Note_on_c, 3, 55, 92
9, 257489, Note_on_c, 3, 55, 0
9, 257640, Note_on_c, 3, 54, 92
9, 257729, Note_on_c, 3, 54, 0
9, 257760, Note_on_c, 3, 52, 92
9, 257849, Note_on_c, 3, 52, 0
9, 258000, Note_on_c, 3, 50, 92
9, 258089, Note_on_c, 3, 50, 0
9, 258120, Note_on_c, 3, 52, 92
9, 258209, Note_on_c, 3, 52, 0
9, 258360, Note_on_c, 3, 49, 92
9, 258449, Note_on_c, 3, 49, 0
9, 258480, Note_on_c, 3, 50, 92
9, 258480, Note_on_c, 3, 54, 92
9, 258719, Note_on_c, 3, 50, 0
9, 258719, Note_on_c, 3, 54, 0
9, 258720, Note_on_c, 3, 52, 92
9, 258720, Note_on_c, 3, 55, 92
9, 258779, Note_on_c, 3, 52, 0
9, 258779, Note_on_c, 3, 55, 0
9, 258780, Note_on_c, 3, 57, 92
9, 258780, Note_on_c, 3, 54, 92
9, 258824, Note_on_c, 3, 57, 0
9, 258824, Note_on_c, 3, 54, 0
9, 258840, Note_on_c, 3, 59, 92
9, 258840, Note_on_c, 3, 55, 92
9, 258929, Note_on_c, 3, 59, 0
9, 258929, Note_on_c, 3, 55, 0
9, 259080, Note_on_c, 3, 57, 92
9, 259080, Note_on_c, 3, 54, 92
9, 259169, Note_on_c, 3, 57, 0
9, 259169, Note_on_c, 3, 54, 0
9, 259200, Note_on_c, 3, 52, 92
9, 259200, Note_on_c, 3, 55, 92
9, 259289, Note_on_c, 3, 52, 0
9, 259289, Note_on_c, 3, 55, 0
9, 259440, Note_on_c, 3, 50, 92
9, 259440, Note_on_c, 3, 54, 92
9, 259529, Note_on_c, 3, 50, 0
9, 259529, Note_on_c, 3, 54, 0
9, 259560, Note_on_c, 3, 52, 92
9, 259560, Note_on_c, 3, 55, 92
9, 259649, Note_on_c, 3, 52, 0
9, 259649, Note_on_c, 3, 55, 0
9, 259800, Note_on_c, 3, 52, 92
9, 259800, Note_on_c, 3, 49, 92
9, 259889, Note_on_c, 3, 52, 0
9, 259889, Note_on_c, 3, 49, 0
9, 259920, Note_on_c, 3, 50, 92
9, 260009, Note_on_c, 3, 50, 0
9, 260040, Note_on_c, 3, 53, 92
9, 260040, Note_on_c, 3, 62, 92
9, 260159, Note_on_c, 3, 53, 0
9, 260159, Note_on_c, 3, 62, 0
9, 260160, Note_on_c, 3, 64, 92
9, 260160, Note_on_c, 3, 55, 92
9, 260219, Note_on_c, 3, 64, 0
9, 260219, Note_on_c, 3, 55, 0
9, 260220, Note_on_c, 3, 65, 92
9, 260220, Note_on_c, 3, 57, 92
9, 260264, Note_on_c, 3, 65, 0
9, 260264, Note_on_c, 3, 57, 0
9, 260280, Note_on_c, 3, 58, 92
9, 260280, Note_on_c, 3, 67, 92
9, 260369, Note_on_c, 3, 58, 0
9, 260369, Note_on_c, 3, 67, 0
9, 260400, Note_on_c, 3, 58, 92
9, 260400, Note_on_c, 3, 67, 92
9, 260489, Note_on_c, 3, 58, 0
9, 260489, Note_on_c, 3, 67, 0
9, 260520, Note_on_c, 3, 57, 92
9, 260520, Note_on_c, 3, 65, 92
9, 260609, Note_on_c, 3, 57, 0
9, 260609, Note_on_c, 3, 65, 0
9, 260640, Note_on_c, 3, 55, 92
9, 260640, Note_on_c, 3, 64, 92
9, 260729, Note_on_c, 3, 55, 0
9, 260729, Note_on_c, 3, 64, 0
9, 260760, Note_on_c, 3, 64, 92
9, 260760, Note_on_c, 3, 55, 92
9, 260849, Note_on_c, 3, 64, 0
9, 260849, Note_on_c, 3, 55, 0
9, 260880, Note_on_c, 3, 53, 92
9, 260880, Note_on_c, 3, 62, 92
9, 260969, Note_on_c, 3, 53, 0
9, 260969, Note_on_c, 3, 62, 0
9, 261000, Note_on_c, 3, 55, 92
9, 261000, Note_on_c, 3, 64, 92
9, 261089, Note_on_c, 3, 55, 0
9, 261089, Note_on_c, 3, 64, 0
9, 261120, Note_on_c, 3, 55, 92
9, 261120, Note_on_c, 3, 64, 92
9, 261209, Note_on_c, 3, 55, 0
9, 261209, Note_on_c, 3, 64, 0
9, 261240, Note_on_c, 3, 61, 92
9, 261240, Note_on_c, 3, 52, 92
9, 261329, Note_on_c, 3, 61, 0
9, 261329, Note_on_c, 3, 52, 0
9, 261360, Note_on_c, 3, 65, 92
9, 261360, Note_on_c, 3, 62, 92
9, 261449, Note_on_c, 3, 65, 0
9, 261449, Note_on_c, 3, 62, 0
9, 261480, Note_on_c, 3, 50, 92
9, 261480, Note_on_c, 3, 53, 92
9, 261599, Note_on_c, 3, 50, 0
9, 261599, Note_on_c, 3, 53, 0
9, 261600, Note_on_c, 3, 55, 92
9, 261600, Note_on_c, 3, 52, 92
9, 261659, Note_on_c, 3, 55, 0
9, 261659, Note_on_c, 3, 52, 0
9, 261660, Note_on_c, 3, 53, 92
9, 261660, Note_on_c, 3, 57, 92
9, 261704, Note_on_c, 3, 53, 0
9, 261704, Note_on_c, 3, 57, 0
9, 261720, Note_on_c, 3, 55, 92
9, 261720, Note_on_c, 3, 58, 92
9, 261809, Note_on_c, 3, 55, 0
9, 261809, Note_on_c, 3, 58, 0
9, 261840, Note_on_c, 3, 55, 92
9, 261840, Note_on_c, 3, 58, 92
9, 261929, Note_on_c, 3, 55, 0
9, 261929, Note_on_c, 3, 58, 0
9, 261960, Note_on_c, 3, 57, 92
9, 261960, Note_on_c, 3, 53, 92
9, 262049, Note_on_c, 3, 57, 0
9, 262049, Note_on_c, 3, 53, 0
9, 262080, Note_on_c, 3, 55, 92
9, 262080, Note_on_c, 3, 52, 92
9, 262169, Note_on_c, 3, 55, 0
9, 262169, Note_on_c, 3, 52, 0
9, 262200, Note_on_c, 3, 52, 92
9, 262200, Note_on_c, 3, 55, 92
9, 262289, Note_on_c, 3, 52, 0
9, 262289, Note_on_c, 3, 55, 0
9, 262320, Note_on_c, 3, 53, 92
9, 262320, Note_on_c, 3, 50, 92
9, 262409, Note_on_c, 3, 53, 0
9, 262409, Note_on_c, 3, 50, 0
9, 262440, Note_on_c, 3, 52, 92
9, 262440, Note_on_c, 3, 55, 92
9, 262529, Note_on_c, 3, 52, 0
9, 262529, Note_on_c, 3, 55, 0
9, 262560, Note_on_c, 3, 55, 92
9, 262560, Note_on_c, 3, 52, 92
9, 262649, Note_on_c, 3, 55, 0
9, 262649, Note_on_c, 3, 52, 0
9, 262680, Note_on_c, 3, 49, 92
9, 262680, Note_on_c, 3, 52, 92
9, 262769, Note_on_c, 3, 49, 0
9, 262769, Note_on_c, 3, 52, 0
9, 262800, Note_on_c, 3, 62, 92
9, 262800, Note_on_c, 3, 50, 92
9, 262964, Note_on_c, 3, 62, 0
9, 262964, Note_on_c, 3, 50, 0
9, 262980, Note_on_c, 3, 38, 92
9, 262980, Note_on_c, 3, 50, 92
9, 263024, Note_on_c, 3, 38, 0
9, 263024, Note_on_c, 3, 50, 0
9, 263040, Note_on_c, 3, 38, 92
9, 263040, Note_on_c, 3, 50, 92
9, 263144, Note_on_c, 3, 38, 0
9, 263144, Note_on_c, 3, 50, 0
9, 263160, Note_on_c, 3, 50, 92
9, 263160, Note_on_c, 3, 62, 92
9, 263264, Note_on_c, 3, 50, 0
9, 263264, Note_on_c, 3, 62, 0
9, 263280, Note_on_c, 3, 52, 92
9, 263280, Note_on_c, 3, 64, 92
9, 263384, Note_on_c, 3, 52, 0
9, 263384, Note_on_c, 3, 64, 0
9, 263400, Note_on_c, 3, 53, 92
9, 263400, Note_on_c, 3, 65, 92
9, 263504, Note_on_c, 3, 53, 0
9, 263504, Note_on_c, 3, 65, 0
9, 263520, Note_on_c, 3, 55, 92
9, 263520, Note_on_c, 3, 67, 92
9, 263639, Note_on_c, 3, 55, 0
9, 263639, Note_on_c, 3, 67, 0
9, 263880, Note_on_c, 3, 46, 92
9, 263880, Note_on_c, 3, 58, 92
9, 263984, Note_on_c, 3, 46, 0
9, 263984, Note_on_c, 3, 58, 0
9, 264000, Note_on_c, 3, 60, 92
9, 264000, Note_on_c, 3, 48, 92
9, 264104, Note_on_c, 3, 60, 0
9, 264104, Note_on_c, 3, 48, 0
9, 264120, Note_on_c, 3, 50, 92
9, 264120, Note_on_c, 3, 62, 92
9, 264224, Note_on_c, 3, 50, 0
9, 264224, Note_on_c, 3, 62, 0
9, 264240, Note_on_c, 3, 48, 92
9, 264240, Note_on_c, 3, 60, 92
9, 264404, Note_on_c, 3, 48, 0
9, 264404, Note_on_c, 3, 60, 0
9, 264420, Note_on_c, 3, 36, 92
9, 264420, Note_on_c, 3, 48, 92
9, 264464, Note_on_c, 3, 36, 0
9, 264464, Note_on_c, 3, 48, 0
9, 264480, Note_on_c, 3, 48, 92
9, 264480, Note_on_c, 3, 36, 92
9, 264584, Note_on_c, 3, 48, 0
9, 264584, Note_on_c, 3, 36, 0
9, 264600, Note_on_c, 3, 60, 92
9, 264600, Note_on_c, 3, 48, 92
9, 264704, Note_on_c, 3, 60, 0
9, 264704, Note_on_c, 3, 48, 0
9, 264720, Note_on_c, 3, 62, 92
9, 264720, Note_on_c, 3, 50, 92
9, 264824, Note_on_c, 3, 62, 0
9, 264824, Note_on_c, 3, 50, 0
9, 264840, Note_on_c, 3, 52, 92
9, 264840, Note_on_c, 3, 64, 92
9, 264944, Note_on_c, 3, 52, 0
9, 264944, Note_on_c, 3, 64, 0
9, 264960, Note_on_c, 3, 53, 92
9, 264960, Note_on_c, 3, 65, 92
9, 265079, Note_on_c, 3, 53, 0
9, 265079, Note_on_c, 3, 65, 0
9, 265320, Note_on_c, 3, 57, 92
9, 265424, Note_on_c, 3, 57, 0
9, 265440, Note_on_c, 3, 62, 92
9, 265544, Note_on_c, 3, 62, 0
9, 265560, Note_on_c, 3, 64, 92
9, 265664, Note_on_c, 3, 64, 0
9, 265680, Note_on_c, 3, 62, 44
9, 265680, Note_on_c, 3, 66, 44
9, 265799, Note_on_c, 3, 62, 0
9, 265799, Note_on_c, 3, 66, 0
9, 266400, Note_on_c, 3, 67, 44
9, 266400, Note_on_c, 3, 55, 44
9, 266519, Note_on_c, 3, 67, 0
9, 266519, Note_on_c, 3, 55, 0
9, 267480, Control_c, 3, 11, 67
9, 267840, Control_c, 3, 11, 67
9, 267840, Note_on_c, 3, 55, 80
9, 267840, Note_on_c, 3, 46, 80
9, 267870, Control_c, 3, 11, 68
9, 267900, Control_c, 3, 11, 70
9, 267930, Control_c, 3, 11, 71
9, 267959, Note_on_c, 3, 55, 0
9, 267960, Note_on_c, 3, 53, 80
9, 267960, Control_c, 3, 11, 72
9, 267990, Control_c, 3, 11, 73
9, 268020, Control_c, 3, 11, 75
9, 268050, Control_c, 3, 11, 76
9, 268079, Note_on_c, 3, 53, 0
9, 268080, Note_on_c, 3, 51, 80
9, 268080, Control_c, 3, 11, 77
9, 268110, Control_c, 3, 11, 78
9, 268140, Control_c, 3, 11, 80
9, 268170, Control_c, 3, 11, 81
9, 268184, Note_on_c, 3, 51, 0
9, 268200, Control_c, 3, 11, 82
9, 268200, Note_on_c, 3, 67, 80
9, 268230, Control_c, 3, 11, 83
9, 268260, Control_c, 3, 11, 85
9, 268290, Control_c, 3, 11, 86
9, 268319, Note_on_c, 3, 46, 0
9, 268319, Note_on_c, 3, 67, 0
9, 268320, Note_on_c, 3, 44, 80
9, 268320, Note_on_c, 3, 65, 80
9, 268320, Control_c, 3, 11, 87
9, 268350, Control_c, 3, 11, 88
9, 268380, Control_c, 3, 11, 90
9, 268410, Control_c, 3, 11, 91
9, 268439, Note_on_c, 3, 44, 0
9, 268439, Note_on_c, 3, 65, 0
9, 268440, Control_c, 3, 11, 92
9, 268440, Note_on_c, 3, 63, 80
9, 268440, Note_on_c, 3, 43, 80
9, 268470, Control_c, 3, 11, 93
9, 268500, Control_c, 3, 11, 95
9, 268530, Control_c, 3, 11, 96
9, 268544, Note_on_c, 3, 63, 0
9, 268544, Note_on_c, 3, 43, 0
9, 268560, Control_c, 3, 11, 97
9, 268560, Note_on_c, 3, 58, 80
9, 268560, Note_on_c, 3, 43, 80
9, 268590, Control_c, 3, 11, 98
9, 268620, Control_c, 3, 11, 100
9, 268650, Control_c, 3, 11, 101
9, 268679, Note_on_c, 3, 58, 0
9, 268680, Control_c, 3, 11, 102
9, 268680, Note_on_c, 3, 57, 80
9, 268710, Control_c, 3, 11, 103
9, 268740, Control_c, 3, 11, 105
9, 268770, Control_c, 3, 11, 106
9, 268799, Note_on_c, 3, 57, 0
9, 268800, Control_c, 3, 11, 107
9, 268800, Note_on_c, 3, 58, 80
9, 268830, Control_c, 3, 11, 108
9, 268860, Control_c, 3, 11, 110
9, 268890, Control_c, 3, 11, 111
9, 268904, Note_on_c, 3, 43, 0
9, 268920, Control_c, 3, 11, 112
9, 268920, Note_on_c, 3, 45, 80
9, 268950, Control_c, 3, 11, 113
9, 268980, Control_c, 3, 11, 115
9, 269010, Control_c, 3, 11, 116
9, 269039, Note_on_c, 3, 58, 0
9, 269040, Note_on_c, 3, 57, 80
9, 269040, Control_c, 3, 11, 117
9, 269070, Control_c, 3, 11, 118
9, 269100, Control_c, 3, 11, 120
9, 269130, Control_c, 3, 11, 121
9, 269144, Note_on_c, 3, 45, 0
9, 269159, Note_on_c, 3, 57, 0
9, 269160, Control_c, 3, 11, 122
9, 269160, Note_on_c, 3, 55, 80
9, 269160, Note_on_c, 3, 43, 80
9, 269190, Control_c, 3, 11, 123
9, 269220, Control_c, 3, 11, 125
9, 269250, Control_c, 3, 11, 127
9, 269264, Note_on_c, 3, 55, 0
9, 269264, Note_on_c, 3, 43, 0
9, 269280, Note_on_c, 3, 53, 80
9, 269280, Note_on_c, 3, 41, 80
9, 269369, Note_on_c, 3, 53, 0
9, 269369, Note_on_c, 3, 41, 0
9, 269400, Note_on_c, 3, 50, 80
9, 269400, Note_on_c, 3, 38, 80
9, 269489, Note_on_c, 3, 50, 0
9, 269489, Note_on_c, 3, 38, 0
9, 269520, Note_on_c, 3, 55, 80
9, 269520, Note_on_c, 3, 43, 80
9, 269609, Note_on_c, 3, 55, 0
9, 269609, Note_on_c, 3, 43, 0
9, 269640, Note_on_c, 3, 40, 80
9, 269640, Note_on_c, 3, 52, 80
9, 269729, Note_on_c, 3, 40, 0
9, 269729, Note_on_c, 3, 52, 0
9, 269760, Note_on_c, 3, 61, 80
9, 269760, Note_on_c, 3, 49, 80
9, 269849, Note_on_c, 3, 61, 0
9, 269849, Note_on_c, 3, 49, 0
9, 269880, Note_on_c, 3, 57, 80
9, 269880, Note_on_c, 3, 45, 80
9, 269969, Note_on_c, 3, 57, 0
9, 269969, Note_on_c, 3, 45, 0
9, 270000, Note_on_c, 3, 62, 80
9, 270000, Note_on_c, 3, 50, 80
9, 270119, Note_on_c, 3, 62, 0
9, 270119, Note_on_c, 3, 50, 0
9, 270720, Note_on_c, 3, 38, 80
9, 270720, Note_on_c, 3, 50, 80
9, 270809, Note_on_c, 3, 38, 0
9, 270809, Note_on_c, 3, 50, 0
9, 270840, Note_on_c, 3, 38, 80
9, 270840, Note_on_c, 3, 50, 80
9, 270929, Note_on_c, 3, 38, 0
9, 270929, Note_on_c, 3, 50, 0
9, 270960, Note_on_c, 3, 55, 80
9, 270960, Note_on_c, 3, 43, 80
9, 271049, Note_on_c, 3, 55, 0
9, 271049, Note_on_c, 3, 43, 0
9, 271080, Note_on_c, 3, 40, 80
9, 271080, Note_on_c, 3, 52, 80
9, 271169, Note_on_c, 3, 40, 0
9, 271169, Note_on_c, 3, 52, 0
9, 271200, Note_on_c, 3, 61, 80
9, 271200, Note_on_c, 3, 49, 80
9, 271289, Note_on_c, 3, 61, 0
9, 271289, Note_on_c, 3, 49, 0
9, 271320, Note_on_c, 3, 57, 80
9, 271320, Note_on_c, 3, 45, 80
9, 271409, Note_on_c, 3, 57, 0
9, 271409, Note_on_c, 3, 45, 0
9, 271440, Note_on_c, 3, 57, 80
9, 271440, Note_on_c, 3, 45, 80
9, 271529, Note_on_c, 3, 57, 0
9, 271529, Note_on_c, 3, 45, 0
9, 271560, Note_on_c, 3, 57, 80
9, 271649, Note_on_c, 3, 57, 0
9, 271680, Note_on_c, 3, 62, 80
9, 271769, Note_on_c, 3, 62, 0
9, 271800, Note_on_c, 3, 58, 80
9, 271889, Note_on_c, 3, 58, 0
9, 271920, Note_on_c, 3, 55, 80
9, 272009, Note_on_c, 3, 55, 0
9, 272040, Note_on_c, 3, 61, 80
9, 272129, Note_on_c, 3, 61, 0
9, 272160, Note_on_c, 3, 50, 80
9, 272160, Note_on_c, 3, 53, 80
9, 272249, Note_on_c, 3, 50, 0
9, 272249, Note_on_c, 3, 53, 0
9, 272280, Note_on_c, 3, 53, 80
9, 272280, Note_on_c, 3, 57, 80
9, 272369, Note_on_c, 3, 53, 0
9, 272369, Note_on_c, 3, 57, 0
9, 272400, Note_on_c, 3, 50, 80
9, 272400, Note_on_c, 3, 53, 80
9, 272489, Note_on_c, 3, 50, 0
9, 272489, Note_on_c, 3, 53, 0
9, 272520, Note_on_c, 3, 52, 80
9, 272520, Note_on_c, 3, 55, 80
9, 272609, Note_on_c, 3, 52, 0
9, 272609, Note_on_c, 3, 55, 0
9, 272640, Note_on_c, 3, 64, 80
9, 272640, Note_on_c, 3, 55, 80
9, 272729, Note_on_c, 3, 64, 0
9, 272729, Note_on_c, 3, 55, 0
9, 272760, Note_on_c, 3, 61, 80
9, 272760, Note_on_c, 3, 52, 80
9, 272849, Note_on_c, 3, 61, 0
9, 272849, Note_on_c, 3, 52, 0
9, 272880, Note_on_c, 3, 62, 80
9, 272880, Note_on_c, 3, 53, 80
9, 272969, Note_on_c, 3, 62, 0
9, 272969, Note_on_c, 3, 53, 0
9, 273000, Note_on_c, 3, 53, 80
9, 273000, Note_on_c, 3, 57, 80
9, 273089, Note_on_c, 3, 53, 0
9, 273089, Note_on_c, 3, 57, 0
9, 273120, Note_on_c, 3, 50, 80
9, 273120, Note_on_c, 3, 53, 80
9, 273209, Note_on_c, 3, 50, 0
9, 273209, Note_on_c, 3, 53, 0
9, 273240, Note_on_c, 3, 55, 80
9, 273240, Note_on_c, 3, 52, 80
9, 273329, Note_on_c, 3, 55, 0
9, 273329, Note_on_c, 3, 52, 0
9, 273360, Note_on_c, 3, 64, 80
9, 273360, Note_on_c, 3, 55, 80
9, 273449, Note_on_c, 3, 64, 0
9, 273449, Note_on_c, 3, 55, 0
9, 273480, Note_on_c, 3, 52, 80
9, 273480, Note_on_c, 3, 61, 80
9, 273569, Note_on_c, 3, 52, 0
9, 273569, Note_on_c, 3, 61, 0
9, 273600, Note_on_c, 3, 45, 32
9, 273719, Note_on_c, 3, 45, 0
9, 273720, Note_on_c, 3, 49, 32
9, 273839, Note_on_c, 3, 49, 0
9, 273840, Note_on_c, 3, 52, 32
9, 273959, Note_on_c, 3, 52, 0
9, 273960, Note_on_c, 3, 55, 32
9, 274079, Note_on_c, 3, 55, 0
9, 274080, Note_on_c, 3, 61, 32
9, 274199, Note_on_c, 3, 61, 0
9, 274200, Note_on_c, 3, 64, 32
9, 274304, Note_on_c, 3, 64, 0
9, 274320, Note_on_c, 3, 67, 32
9, 274799, Note_on_c, 3, 67, 0
9, 274800, Note_on_c, 3, 64, 32
9, 274919, Note_on_c, 3, 64, 0
9, 274920, Note_on_c, 3, 61, 32
9, 275024, Note_on_c, 3, 61, 0
9, 275040, Note_on_c, 3, 62, 32
9, 275159, Note_on_c, 3, 62, 0
9, 275400, Note_on_c, 3, 57, 32
9, 275400, Note_on_c, 3, 45, 32
9, 275564, Note_on_c, 3, 57, 0
9, 275564, Note_on_c, 3, 45, 0
9, 275580, Note_on_c, 3, 62, 32
9, 275580, Note_on_c, 3, 57, 32
9, 275624, Note_on_c, 3, 62, 0
9, 275624, Note_on_c, 3, 57, 0
9, 275640, Note_on_c, 3, 62, 32
9, 275640, Note_on_c, 3, 57, 32
9, 275744, Note_on_c, 3, 62, 0
9, 275744, Note_on_c, 3, 57, 0
9, 275760, Note_on_c, 3, 57, 32
9, 275760, Note_on_c, 3, 53, 32
9, 275879, Note_on_c, 3, 57, 0
9, 275879, Note_on_c, 3, 53, 0
9, 276120, Note_on_c, 3, 53, 32
9, 276120, Note_on_c, 3, 50, 32
9, 276284, Note_on_c, 3, 53, 0
9, 276284, Note_on_c, 3, 50, 0
9, 276300, Note_on_c, 3, 65, 32
9, 276300, Note_on_c, 3, 62, 32
9, 276344, Note_on_c, 3, 65, 0
9, 276344, Note_on_c, 3, 62, 0
9, 276360, Note_on_c, 3, 65, 32
9, 276360, Note_on_c, 3, 62, 32
9, 276464, Note_on_c, 3, 65, 0
9, 276464, Note_on_c, 3, 62, 0
9, 276480, Note_on_c, 3, 65, 32
9, 276480, Note_on_c, 3, 62, 32
9, 276599, Note_on_c, 3, 65, 0
9, 276599, Note_on_c, 3, 62, 0
9, 278280, Note_on_c, 3, 57, 40
9, 278280, Note_on_c, 3, 45, 40
9, 278444, Note_on_c, 3, 57, 0
9, 278444, Note_on_c, 3, 45, 0
9, 278460, Note_on_c, 3, 62, 44
9, 278460, Note_on_c, 3, 57, 44
9, 278504, Note_on_c, 3, 62, 0
9, 278504, Note_on_c, 3, 57, 0
9, 278520, Note_on_c, 3, 62, 46
9, 278520, Note_on_c, 3, 57, 46
9, 278624, Note_on_c, 3, 62, 0
9, 278624, Note_on_c, 3, 57, 0
9, 278640, Note_on_c, 3, 57, 49
9, 278640, Note_on_c, 3, 53, 49
9, 278759, Note_on_c, 3, 57, 0
9, 278759, Note_on_c, 3, 53, 0
9, 279000, Note_on_c, 3, 38, 57
9, 279000, Note_on_c, 3, 50, 57
9, 279164, Note_on_c, 3, 38, 0
9, 279164, Note_on_c, 3, 50, 0
9, 279180, Note_on_c, 3, 62, 62
9, 279180, Note_on_c, 3, 50, 62
9, 279224, Note_on_c, 3, 62, 0
9, 279224, Note_on_c, 3, 50, 0
9, 279240, Note_on_c, 3, 50, 63
9, 279240, Note_on_c, 3, 62, 63
9, 279344, Note_on_c, 3, 50, 0
9, 279344, Note_on_c, 3, 62, 0
9, 279360, Note_on_c, 3, 46, 66
9, 279360, Note_on_c, 3, 58, 66
9, 279479, Note_on_c, 3, 46, 0
9, 279479, Note_on_c, 3, 58, 0
9, 279720, Note_on_c, 3, 43, 74
9, 279884, Note_on_c, 3, 43, 0
9, 279900, Note_on_c, 3, 43, 79
9, 279900, Note_on_c, 3, 55, 79
9, 279944, Note_on_c, 3, 43, 0
9, 279944, Note_on_c, 3, 55, 0
9, 279960, Note_on_c, 3, 55, 80
9, 279960, Note_on_c, 3, 43, 80
9, 280064, Note_on_c, 3, 55, 0
9, 280064, Note_on_c, 3, 43, 0
9, 280080, Note_on_c, 3, 58, 83
9, 280080, Note_on_c, 3, 46, 83
9, 280199, Note_on_c, 3, 58, 0
9, 280199, Note_on_c, 3, 46, 0
9, 280440, Note_on_c, 3, 45, 92
9, 280604, Note_on_c, 3, 45, 0
9, 280620, Note_on_c, 3, 57, 92
9, 280620, Note_on_c, 3, 45, 92
9, 280664, Note_on_c, 3, 57, 0
9, 280664, Note_on_c, 3, 45, 0
9, 280680, Note_on_c, 3, 57, 92
9, 280680, Note_on_c, 3, 45, 92
9, 281129, Note_on_c, 3, 57, 0
9, 281129, Note_on_c, 3, 45, 0
9, 281880, Note_on_c, 3, 62, 32
9, 282044, Note_on_c, 3, 62, 0
9, 282060, Note_on_c, 3, 50, 32
9, 282104, Note_on_c, 3, 50, 0
9, 282120, Note_on_c, 3, 50, 32
9, 282224, Note_on_c, 3, 50, 0
9, 282240, Note_on_c, 3, 55, 32
9, 282329, Note_on_c, 3, 55, 0
9, 282360, Note_on_c, 3, 57, 32
9, 282449, Note_on_c, 3, 57, 0
9, 282480, Note_on_c, 3, 58, 32
9, 282569, Note_on_c, 3, 58, 0
9, 283320, Note_on_c, 3, 62, 32
9, 283484, Note_on_c, 3, 62, 0
9, 283500, Note_on_c, 3, 50, 32
9, 283544, Note_on_c, 3, 50, 0
9, 283560, Note_on_c, 3, 50, 32
9, 283664, Note_on_c, 3, 50, 0
9, 283680, Note_on_c, 3, 55, 32
9, 283769, Note_on_c, 3, 55, 0
9, 283800, Note_on_c, 3, 57, 32
9, 283889, Note_on_c, 3, 57, 0
9, 283920, Note_on_c, 3, 58, 32
9, 284009, Note_on_c, 3, 58, 0
9, 284040, Note_on_c, 3, 57, 32
9, 284204, Note_on_c, 3, 57, 0
9, 284220, Note_on_c, 3, 45, 35
9, 284264, Note_on_c, 3, 45, 0
9, 284280, Note_on_c, 3, 45, 37
9, 284384, Note_on_c, 3, 45, 0
9, 284400, Note_on_c, 3, 50, 39
9, 284489, Note_on_c, 3, 50, 0
9, 284520, Note_on_c, 3, 52, 42
9, 284609, Note_on_c, 3, 52, 0
9, 284640, Note_on_c, 3, 53, 44
9, 284729, Note_on_c, 3, 53, 0
9, 284760, Note_on_c, 3, 57, 47
9, 284924, Note_on_c, 3, 57, 0
9, 284940, Note_on_c, 3, 45, 50
9, 284984, Note_on_c, 3, 45, 0
9, 285000, Note_on_c, 3, 45, 52
9, 285104, Note_on_c, 3, 45, 0
9, 285120, Note_on_c, 3, 50, 54
9, 285209, Note_on_c, 3, 50, 0
9, 285240, Note_on_c, 3, 52, 57
9, 285329, Note_on_c, 3, 52, 0
9, 285360, Note_on_c, 3, 53, 59
9, 285449, Note_on_c, 3, 53, 0
9, 285480, Note_on_c, 3, 57, 62
9, 285644, Note_on_c, 3, 57, 0
9, 285660, Note_on_c, 3, 45, 65
9, 285704, Note_on_c, 3, 45, 0
9, 285720, Note_on_c, 3, 45, 67
9, 285824, Note_on_c, 3, 45, 0
9, 285840, Note_on_c, 3, 50, 69
9, 285929, Note_on_c, 3, 50, 0
9, 285960, Note_on_c, 3, 52, 72
9, 286049, Note_on_c, 3, 52, 0
9, 286080, Note_on_c, 3, 53, 74
9, 286169, Note_on_c, 3, 53, 0
9, 286200, Note_on_c, 3, 57, 77
9, 286364, Note_on_c, 3, 57, 0
9, 286380, Note_on_c, 3, 45, 80
9, 286424, Note_on_c, 3, 45, 0
9, 286440, Note_on_c, 3, 45, 82
9, 286544, Note_on_c, 3, 45, 0
9, 286560, Note_on_c, 3, 50, 84
9, 286649, Note_on_c, 3, 50, 0
9, 286680, Note_on_c, 3, 52, 87
9, 286769, Note_on_c, 3, 52, 0
9, 286800, Note_on_c, 3, 53, 89
9, 286889, Note_on_c, 3, 53, 0
9, 286920, Note_on_c, 3, 69, 92
9, 287009, Note_on_c, 3, 69, 0
9, 287040, Note_on_c, 3, 57, 92
9, 287129, Note_on_c, 3, 57, 0
9, 287160, Note_on_c, 3, 62, 80
9, 287249, Note_on_c, 3, 62, 0
9, 287280, Note_on_c, 3, 50, 80
9, 287369, Note_on_c, 3, 50, 0
9, 287400, Note_on_c, 3, 57, 80
9, 287489, Note_on_c, 3, 57, 0
9, 287520, Note_on_c, 3, 45, 80
9, 287609, Note_on_c, 3, 45, 0
9, 287640, Note_on_c, 3, 57, 80
9, 287729, Note_on_c, 3, 57, 0
9, 287760, Note_on_c, 3, 45, 80
9, 287849, Note_on_c, 3, 45, 0
9, 287880, Note_on_c, 3, 38, 80
9, 287880, Note_on_c, 3, 50, 80
9, 287999, Note_on_c, 3, 38, 0
9, 287999, Note_on_c, 3, 50, 0
9, 288120, Note_on_c, 3, 62, 62
9, 288209, Note_on_c, 3, 62, 0
9, 288240, Note_on_c, 3, 61, 53
9, 288329, Note_on_c, 3, 61, 0
9, 288360, Note_on_c, 3, 62, 44
9, 288449, Note_on_c, 3, 62, 0
9, 288480, Note_on_c, 3, 59, 44
9, 288569, Note_on_c, 3, 59, 0
9, 288600, Note_on_c, 3, 57, 44
9, 288689, Note_on_c, 3, 57, 0
9, 288720, Note_on_c, 3, 55, 44
9, 288809, Note_on_c, 3, 55, 0
9, 288840, Note_on_c, 3, 54, 44
9, 288929, Note_on_c, 3, 54, 0
9, 288960, Note_on_c, 3, 52, 44
9, 289049, Note_on_c, 3, 52, 0
9, 289080, Note_on_c, 3, 50, 44
9, 289169, Note_on_c, 3, 50, 0
9, 289200, Note_on_c, 3, 48, 44
9, 289289, Note_on_c, 3, 48, 0
9, 289320, Note_on_c, 3, 47, 44
9, 289409, Note_on_c, 3, 47, 0
9, 289440, Note_on_c, 3, 49, 44
9, 289529, Note_on_c, 3, 49, 0
9, 289560, Note_on_c, 3, 50, 44
9, 289649, Note_on_c, 3, 50, 0
9, 289680, Note_on_c, 3, 54, 44
9, 289769, Note_on_c, 3, 54, 0
9, 289800, Note_on_c, 3, 57, 44
9, 289889, Note_on_c, 3, 57, 0
9, 289920, Note_on_c, 3, 61, 44
9, 290009, Note_on_c, 3, 61, 0
9, 290040, Note_on_c, 3, 62, 44
9, 290129, Note_on_c, 3, 62, 0
9, 290160, Note_on_c, 3, 61, 44
9, 290249, Note_on_c, 3, 61, 0
9, 290280, Note_on_c, 3, 62, 44
9, 290369, Note_on_c, 3, 62, 0
9, 290400, Note_on_c, 3, 59, 44
9, 290489, Note_on_c, 3, 59, 0
9, 290520, Note_on_c, 3, 57, 44
9, 290609, Note_on_c, 3, 57, 0
9, 290640, Note_on_c, 3, 55, 44
9, 290729, Note_on_c, 3, 55, 0
9, 290760, Note_on_c, 3, 54, 44
9, 290849, Note_on_c, 3, 54, 0
9, 290880, Note_on_c, 3, 52, 44
9, 290969, Note_on_c, 3, 52, 0
9, 291000, Note_on_c, 3, 50, 44
9, 291089, Note_on_c, 3, 50, 0
9, 291120, Note_on_c, 3, 48, 44
9, 291209, Note_on_c, 3, 48, 0
9, 291240, Note_on_c, 3, 47, 44
9, 291329, Note_on_c, 3, 47, 0
9, 291360, Note_on_c, 3, 49, 44
9, 291449, Note_on_c, 3, 49, 0
9, 291480, Note_on_c, 3, 50, 44
9, 291569, Note_on_c, 3, 50, 0
9, 291600, Note_on_c, 3, 56, 44
9, 291689, Note_on_c, 3, 56, 0
9, 291720, Note_on_c, 3, 57, 44
9, 291809, Note_on_c, 3, 57, 0
9, 291960, Note_on_c, 3, 62, 44
9, 292049, Note_on_c, 3, 62, 0
9, 292080, Note_on_c, 3, 61, 44
9, 292169, Note_on_c, 3, 61, 0
9, 292200, Note_on_c, 3, 62, 44
9, 292289, Note_on_c, 3, 62, 0
9, 292320, Note_on_c, 3, 59, 44
9, 292409, Note_on_c, 3, 59, 0
9, 292440, Note_on_c, 3, 57, 44
9, 292529, Note_on_c, 3, 57, 0
9, 292560, Note_on_c, 3, 55, 44
9, 292649, Note_on_c, 3, 55, 0
9, 292680, Note_on_c, 3, 54, 44
9, 292769, Note_on_c, 3, 54, 0
9, 292800, Note_on_c, 3, 52, 44
9, 292889, Note_on_c, 3, 52, 0
9, 292920, Note_on_c, 3, 50, 44
9, 293009, Note_on_c, 3, 50, 0
9, 293040, Note_on_c, 3, 48, 44
9, 293129, Note_on_c, 3, 48, 0
9, 293160, Note_on_c, 3, 47, 44
9, 293249, Note_on_c, 3, 47, 0
9, 293280, Note_on_c, 3, 49, 44
9, 293369, Note_on_c, 3, 49, 0
9, 293400, Note_on_c, 3, 50, 44
9, 293489, Note_on_c, 3, 50, 0
9, 293520, Note_on_c, 3, 54, 44
9, 293609, Note_on_c, 3, 54, 0
9, 293640, Note_on_c, 3, 57, 44
9, 293729, Note_on_c, 3, 57, 0
9, 293760, Note_on_c, 3, 61, 44
9, 293849, Note_on_c, 3, 61, 0
9, 293880, Note_on_c, 3, 62, 44
9, 293969, Note_on_c, 3, 62, 0
9, 294000, Note_on_c, 3, 61, 44
9, 294089, Note_on_c, 3, 61, 0
9, 294120, Note_on_c, 3, 62, 44
9, 294209, Note_on_c, 3, 62, 0
9, 294240, Note_on_c, 3, 59, 44
9, 294329, Note_on_c, 3, 59, 0
9, 294360, Note_on_c, 3, 57, 44
9, 294449, Note_on_c, 3, 57, 0
9, 294480, Note_on_c, 3, 55, 44
9, 294569, Note_on_c, 3, 55, 0
9, 294600, Note_on_c, 3, 54, 44
9, 294689, Note_on_c, 3, 54, 0
9, 294720, Note_on_c, 3, 52, 44
9, 294809, Note_on_c, 3, 52, 0
9, 294840, Note_on_c, 3, 50, 44
9, 294929, Note_on_c, 3, 50, 0
9, 294960, Note_on_c, 3, 48, 44
9, 295049, Note_on_c, 3, 48, 0
9, 295080, Note_on_c, 3, 47, 44
9, 295169, Note_on_c, 3, 47, 0
9, 295200, Note_on_c, 3, 49, 44
9, 295289, Note_on_c, 3, 49, 0
9, 295320, Note_on_c, 3, 50, 44
9, 295409, Note_on_c, 3, 50, 0
9, 295440, Note_on_c, 3, 56, 44
9, 295529, Note_on_c, 3, 56, 0
9, 295560, Note_on_c, 3, 57, 44
9, 295649, Note_on_c, 3, 57, 0
9, 310920, Note_on_c, 3, 57, 80
9, 310980, Control_c, 3, 11, 67
9, 311640, Note_on_c, 3, 59, 80
9, 311859, Note_on_c, 3, 59, 0
9, 311880, Note_on_c, 3, 61, 80
9, 312239, Note_on_c, 3, 61, 0
9, 312240, Note_on_c, 3, 62, 80
9, 312299, Note_on_c, 3, 62, 0
9, 312300, Note_on_c, 3, 64, 80
9, 312339, Note_on_c, 3, 64, 0
9, 312360, Note_on_c, 3, 62, 80
9, 312449, Note_on_c, 3, 62, 0
9, 312480, Note_on_c, 3, 62, 80
9, 312569, Note_on_c, 3, 62, 0
9, 312600, Note_on_c, 3, 61, 80
9, 312689, Note_on_c, 3, 61, 0
9, 312720, Note_on_c, 3, 61, 80
9, 312809, Note_on_c, 3, 61, 0
9, 312840, Note_on_c, 3, 59, 80
9, 313059, Note_on_c, 3, 59, 0
9, 313560, Note_on_c, 3, 59, 80
9, 313779, Note_on_c, 3, 59, 0
9, 313800, Note_on_c, 3, 61, 80
9, 314019, Note_on_c, 3, 57, 0
9, 314019, Note_on_c, 3, 61, 0
9, 314040, Note_on_c, 3, 61, 80
9, 314040, Note_on_c, 3, 57, 80
9, 314499, Note_on_c, 3, 61, 0
9, 314499, Note_on_c, 3, 57, 0
9, 314520, Note_on_c, 3, 59, 80
9, 314520, Note_on_c, 3, 62, 80
9, 314739, Note_on_c, 3, 59, 0
9, 314739, Note_on_c, 3, 62, 0
9, 314760, Note_on_c, 3, 64, 80
9, 314760, Note_on_c, 3, 61, 80
9, 314979, Note_on_c, 3, 64, 0
9, 314979, Note_on_c, 3, 61, 0
9, 315000, Note_on_c, 3, 61, 80
9, 315000, Note_on_c, 3, 64, 80
9, 315459, Note_on_c, 3, 61, 0
9, 315459, Note_on_c, 3, 64, 0
9, 315480, Note_on_c, 3, 62, 80
9, 315480, Note_on_c, 3, 66, 80
9, 315699, Note_on_c, 3, 62, 0
9, 315699, Note_on_c, 3, 66, 0
9, 315720, Note_on_c, 3, 67, 80
9, 315720, Note_on_c, 3, 64, 80
9, 315939, Note_on_c, 3, 67, 0
9, 315939, Note_on_c, 3, 64, 0
9, 315960, Note_on_c, 3, 64, 80
9, 315960, Note_on_c, 3, 57, 80
9, 316419, Note_on_c, 3, 64, 0
9, 316419, Note_on_c, 3, 57, 0
9, 316440, Note_on_c, 3, 66, 80
9, 316440, Note_on_c, 3, 57, 80
9, 316659, Note_on_c, 3, 66, 0
9, 316659, Note_on_c, 3, 57, 0
9, 316680, Note_on_c, 3, 67, 80
9, 316680, Note_on_c, 3, 57, 80
9, 316899, Note_on_c, 3, 67, 0
9, 316899, Note_on_c, 3, 57, 0
9, 316920, Note_on_c, 3, 67, 80
9, 316920, Control_c, 3, 11, 67
9, 316920, Note_on_c, 3, 57, 80
9, 316980, Control_c, 3, 11, 68
9, 317040, Control_c, 3, 11, 69
9, 317100, Control_c, 3, 11, 70
9, 317160, Control_c, 3, 11, 71
9, 317220, Control_c, 3, 11, 72
9, 317280, Control_c, 3, 11, 73
9, 317340, Control_c, 3, 11, 74
9, 317379, Note_on_c, 3, 67, 0
9, 317379, Note_on_c, 3, 57, 0
9, 317400, Note_on_c, 3, 67, 80
9, 317400, Note_on_c, 3, 57, 80
9, 317400, Control_c, 3, 11, 75
9, 317460, Control_c, 3, 11, 76
9, 317520, Control_c, 3, 11, 77
9, 317580, Control_c, 3, 11, 78
9, 317640, Control_c, 3, 11, 79
9, 317700, Control_c, 3, 11, 80
9, 317760, Control_c, 3, 11, 81
9, 317820, Control_c, 3, 11, 82
9, 317859, Note_on_c, 3, 67, 0
9, 317859, Note_on_c, 3, 57, 0
9, 317880, Note_on_c, 3, 57, 80
9, 317880, Control_c, 3, 11, 83
9, 317880, Note_on_c, 3, 67, 80
9, 317940, Control_c, 3, 11, 84
9, 318000, Control_c, 3, 11, 85
9, 318060, Control_c, 3, 11, 86
9, 318120, Control_c, 3, 11, 87
9, 318180, Control_c, 3, 11, 88
9, 318240, Control_c, 3, 11, 89
9, 318300, Control_c, 3, 11, 90
9, 318339, Note_on_c, 3, 57, 0
9, 318339, Note_on_c, 3, 67, 0
9, 318360, Note_on_c, 3, 58, 80
9, 318360, Note_on_c, 3, 67, 80
9, 318360, Control_c, 3, 11, 91
9, 318420, Control_c, 3, 11, 92
9, 318480, Control_c, 3, 11, 93
9, 318540, Control_c, 3, 11, 94
9, 318600, Control_c, 3, 11, 95
9, 318660, Control_c, 3, 11, 96
9, 318720, Control_c, 3, 11, 97
9, 318780, Control_c, 3, 11, 98
9, 318819, Note_on_c, 3, 58, 0
9, 318819, Note_on_c, 3, 67, 0
9, 318840, Control_c, 3, 11, 99
9, 318840, Note_on_c, 3, 60, 80
9, 318840, Note_on_c, 3, 67, 80
9, 318900, Control_c, 3, 11, 100
9, 318960, Control_c, 3, 11, 101
9, 319020, Control_c, 3, 11, 102
9, 319080, Control_c, 3, 11, 103
9, 319140, Control_c, 3, 11, 104
9, 319200, Control_c, 3, 11, 105
9, 319260, Control_c, 3, 11, 106
9, 319299, Note_on_c, 3, 60, 0
9, 319299, Note_on_c, 3, 67, 0
9, 319318, Control_c, 3, 11, 67
9, 319320, Note_on_c, 3, 67, 80
9, 319320, Note_on_c, 3, 60, 80
9, 319779, Note_on_c, 3, 60, 0
9, 319799, Note_on_c, 3, 67, 0
9, 319800, Note_on_c, 3, 64, 80
9, 319800, Note_on_c, 3, 60, 80
9, 320039, Note_on_c, 3, 64, 0
9, 320040, Note_on_c, 3, 65, 80
9, 320259, Note_on_c, 3, 60, 0
9, 320279, Note_on_c, 3, 65, 0
9, 320280, Note_on_c, 3, 60, 80
9, 320280, Control_c, 3, 11, 67
9, 320280, Note_on_c, 3, 64, 80
9, 320320, Control_c, 3, 11, 70
9, 320360, Control_c, 3, 11, 74
9, 320400, Control_c, 3, 11, 77
9, 320440, Control_c, 3, 11, 80
9, 320480, Control_c, 3, 11, 84
9, 320520, Control_c, 3, 11, 87
9, 320560, Control_c, 3, 11, 90
9, 320600, Control_c, 3, 11, 94
9, 320640, Control_c, 3, 11, 97
9, 320680, Control_c, 3, 11, 100
9, 320720, Control_c, 3, 11, 104
9, 320759, Note_on_c, 3, 60, 0
9, 320760, Control_c, 3, 11, 107
9, 320760, Note_on_c, 3, 61, 80
9, 320800, Control_c, 3, 11, 110
9, 320840, Control_c, 3, 11, 114
9, 320859, Note_on_c, 3, 64, 0
9, 320859, Note_on_c, 3, 61, 0
9, 320880, Note_on_c, 3, 62, 80
9, 320880, Note_on_c, 3, 66, 80
9, 320880, Control_c, 3, 11, 117
9, 320920, Control_c, 3, 11, 120
9, 320960, Control_c, 3, 11, 124
9, 320998, Control_c, 3, 11, 127
9, 321060, Control_c, 3, 11, 67
9, 321119, Note_on_c, 3, 62, 0
9, 321119, Note_on_c, 3, 66, 0
9, 321240, Note_on_c, 3, 66, 80
9, 321240, Note_on_c, 3, 62, 80
9, 321329, Note_on_c, 3, 66, 0
9, 321329, Note_on_c, 3, 62, 0
9, 321360, Note_on_c, 3, 64, 80
9, 321360, Note_on_c, 3, 61, 80
9, 321449, Note_on_c, 3, 64, 0
9, 321449, Note_on_c, 3, 61, 0
9, 321480, Note_on_c, 3, 62, 80
9, 321480, Note_on_c, 3, 66, 80
9, 321480, Control_c, 3, 11, 67
9, 321540, Control_c, 3, 11, 68
9, 321569, Note_on_c, 3, 62, 0
9, 321569, Note_on_c, 3, 66, 0
9, 321600, Note_on_c, 3, 59, 80
9, 321600, Note_on_c, 3, 62, 80
9, 321600, Control_c, 3, 11, 69
9, 321660, Control_c, 3, 11, 70
9, 321689, Note_on_c, 3, 59, 0
9, 321689, Note_on_c, 3, 62, 0
9, 321720, Control_c, 3, 11, 71
9, 321720, Note_on_c, 3, 61, 80
9, 321720, Note_on_c, 3, 57, 80
9, 321780, Control_c, 3, 11, 72
9, 321809, Note_on_c, 3, 61, 0
9, 321809, Note_on_c, 3, 57, 0
9, 321840, Control_c, 3, 11, 73
9, 321840, Note_on_c, 3, 55, 80
9, 321840, Note_on_c, 3, 59, 80
9, 321900, Control_c, 3, 11, 74
9, 321929, Note_on_c, 3, 55, 0
9, 321929, Note_on_c, 3, 59, 0
9, 321960, Note_on_c, 3, 57, 80
9, 321960, Note_on_c, 3, 54, 80
9, 321960, Control_c, 3, 11, 75
9, 322020, Control_c, 3, 11, 76
9, 322049, Note_on_c, 3, 57, 0
9, 322049, Note_on_c, 3, 54, 0
9, 322080, Control_c, 3, 11, 77
9, 322080, Note_on_c, 3, 52, 80
9, 322080, Note_on_c, 3, 55, 80
9, 322140, Control_c, 3, 11, 78
9, 322169, Note_on_c, 3, 52, 0
9, 322169, Note_on_c, 3, 55, 0
9, 322200, Control_c, 3, 11, 79
9, 322200, Note_on_c, 3, 54, 80
9, 322200, Note_on_c, 3, 50, 80
9, 322260, Control_c, 3, 11, 80
9, 322289, Note_on_c, 3, 54, 0
9, 322289, Note_on_c, 3, 50, 0
9, 322320, Note_on_c, 3, 48, 80
9, 322320, Note_on_c, 3, 50, 80
9, 322320, Control_c, 3, 11, 81
9, 322380, Control_c, 3, 11, 82
9, 322409, Note_on_c, 3, 48, 0
9, 322409, Note_on_c, 3, 50, 0
9, 322440, Note_on_c, 3, 50, 80
9, 322440, Note_on_c, 3, 47, 80
9, 322440, Control_c, 3, 11, 83
9, 322500, Control_c, 3, 11, 84
9, 322529, Note_on_c, 3, 50, 0
9, 322529, Note_on_c, 3, 47, 0
9, 322560, Note_on_c, 3, 49, 80
9, 322560, Control_c, 3, 11, 85
9, 322560, Note_on_c, 3, 52, 80
9, 322620, Control_c, 3, 11, 86
9, 322649, Note_on_c, 3, 49, 0
9, 322649, Note_on_c, 3, 52, 0
9, 322680, Note_on_c, 3, 50, 80
9, 322680, Note_on_c, 3, 54, 80
9, 322680, Control_c, 3, 11, 87
9, 322740, Control_c, 3, 11, 88
9, 322769, Note_on_c, 3, 50, 0
9, 322769, Note_on_c, 3, 54, 0
9, 322800, Note_on_c, 3, 54, 80
9, 322800, Control_c, 3, 11, 89
9, 322800, Note_on_c, 3, 57, 80
9, 322860, Control_c, 3, 11, 90
9, 322889, Note_on_c, 3, 54, 0
9, 322889, Note_on_c, 3, 57, 0
9, 322920, Control_c, 3, 11, 91
9, 322920, Note_on_c, 3, 61, 80
9, 322920, Note_on_c, 3, 57, 80
9, 322980, Control_c, 3, 11, 92
9, 323009, Note_on_c, 3, 61, 0
9, 323009, Note_on_c, 3, 57, 0
9, 323040, Control_c, 3, 11, 93
9, 323040, Note_on_c, 3, 64, 80
9, 323040, Note_on_c, 3, 61, 80
9, 323100, Control_c, 3, 11, 94
9, 323129, Note_on_c, 3, 64, 0
9, 323129, Note_on_c, 3, 61, 0
9, 323160, Note_on_c, 3, 62, 80
9, 323160, Note_on_c, 3, 66, 80
9, 323160, Control_c, 3, 11, 95
9, 323220, Control_c, 3, 11, 96
9, 323249, Note_on_c, 3, 62, 0
9, 323249, Note_on_c, 3, 66, 0
9, 323280, Note_on_c, 3, 61, 80
9, 323280, Control_c, 3, 11, 97
9, 323280, Note_on_c, 3, 64, 80
9, 323340, Control_c, 3, 11, 98
9, 323369, Note_on_c, 3, 61, 0
9, 323369, Note_on_c, 3, 64, 0
9, 323400, Note_on_c, 3, 66, 80
9, 323400, Note_on_c, 3, 62, 80
9, 323400, Control_c, 3, 11, 99
9, 323460, Control_c, 3, 11, 100
9, 323489, Note_on_c, 3, 66, 0
9, 323489, Note_on_c, 3, 62, 0
9, 323520, Note_on_c, 3, 62, 80
9, 323520, Note_on_c, 3, 59, 80
9, 323520, Control_c, 3, 11, 101
9, 323580, Control_c, 3, 11, 102
9, 323609, Note_on_c, 3, 62, 0
9, 323609, Note_on_c, 3, 59, 0
9, 323640, Note_on_c, 3, 61, 80
9, 323640, Note_on_c, 3, 57, 80
9, 323640, Control_c, 3, 11, 103
9, 323700, Control_c, 3, 11, 104
9, 323729, Note_on_c, 3, 61, 0
9, 323729, Note_on_c, 3, 57, 0
9, 323760, Note_on_c, 3, 59, 80
9, 323760, Control_c, 3, 11, 105
9, 323760, Note_on_c, 3, 55, 80
9, 323820, Control_c, 3, 11, 106
9, 323849, Note_on_c, 3, 59, 0
9, 323849, Note_on_c, 3, 55, 0
9, 323880, Note_on_c, 3, 54, 80
9, 323880, Control_c, 3, 11, 107
9, 323880, Note_on_c, 3, 57, 80
9, 323940, Control_c, 3, 11, 108
9, 323969, Note_on_c, 3, 54, 0
9, 323969, Note_on_c, 3, 57, 0
9, 324000, Control_c, 3, 11, 109
9, 324000, Note_on_c, 3, 55, 80
9, 324000, Note_on_c, 3, 52, 80
9, 324060, Control_c, 3, 11, 110
9, 324089, Note_on_c, 3, 55, 0
9, 324089, Note_on_c, 3, 52, 0
9, 324120, Note_on_c, 3, 54, 80
9, 324120, Control_c, 3, 11, 111
9, 324120, Note_on_c, 3, 50, 80
9, 324180, Control_c, 3, 11, 112
9, 324209, Note_on_c, 3, 54, 0
9, 324209, Note_on_c, 3, 50, 0
9, 324240, Note_on_c, 3, 48, 80
9, 324240, Control_c, 3, 11, 113
9, 324240, Note_on_c, 3, 50, 80
9, 324300, Control_c, 3, 11, 114
9, 324329, Note_on_c, 3, 48, 0
9, 324329, Note_on_c, 3, 50, 0
9, 324360, Note_on_c, 3, 50, 80
9, 324360, Note_on_c, 3, 47, 80
9, 324360, Control_c, 3, 11, 115
9, 324420, Control_c, 3, 11, 116
9, 324449, Note_on_c, 3, 50, 0
9, 324449, Note_on_c, 3, 47, 0
9, 324480, Note_on_c, 3, 52, 80
9, 324480, Control_c, 3, 11, 117
9, 324480, Note_on_c, 3, 49, 80
9, 324540, Control_c, 3, 11, 118
9, 324569, Note_on_c, 3, 52, 0
9, 324569, Note_on_c, 3, 49, 0
9, 324600, Control_c, 3, 11, 119
9, 324600, Note_on_c, 3, 54, 80
9, 324600, Note_on_c, 3, 50, 80
9, 324660, Control_c, 3, 11, 120
9, 324689, Note_on_c, 3, 54, 0
9, 324689, Note_on_c, 3, 50, 0
9, 324720, Note_on_c, 3, 57, 80
9, 324720, Note_on_c, 3, 54, 80
9, 324720, Control_c, 3, 11, 121
9, 324780, Control_c, 3, 11, 122
9, 324809, Note_on_c, 3, 57, 0
9, 324809, Note_on_c, 3, 54, 0
9, 324840, Control_c, 3, 11, 123
9, 324840, Note_on_c, 3, 57, 80
9, 324840, Note_on_c, 3, 61, 80
9, 324900, Control_c, 3, 11, 124
9, 324929, Note_on_c, 3, 57, 0
9, 324929, Note_on_c, 3, 61, 0
9, 324960, Note_on_c, 3, 64, 80
9, 324960, Control_c, 3, 11, 125
9, 324960, Note_on_c, 3, 61, 80
9, 325020, Control_c, 3, 11, 127
9, 325049, Note_on_c, 3, 64, 0
9, 325049, Note_on_c, 3, 61, 0
9, 325080, Note_on_c, 3, 66, 80
9, 325080, Note_on_c, 3, 62, 80
9, 325169, Note_on_c, 3, 66, 0
9, 325169, Note_on_c, 3, 62, 0
9, 325200, Note_on_c, 3, 64, 80
9, 325200, Note_on_c, 3, 61, 80
9, 325289, Note_on_c, 3, 64, 0
9, 325289, Note_on_c, 3, 61, 0
9, 325320, Note_on_c, 3, 66, 80
9, 325320, Note_on_c, 3, 62, 80
9, 325409, Note_on_c, 3, 66, 0
9, 325409, Note_on_c, 3, 62, 0
9, 325440, Note_on_c, 3, 59, 80
9, 325440, Note_on_c, 3, 62, 80
9, 325529, Note_on_c, 3, 59, 0
9, 325529, Note_on_c, 3, 62, 0
9, 325560, Note_on_c, 3, 61, 80
9, 325560, Note_on_c, 3, 57, 80
9, 325649, Note_on_c, 3, 61, 0
9, 325649, Note_on_c, 3, 57, 0
9, 325680, Note_on_c, 3, 59, 80
9, 325680, Note_on_c, 3, 55, 80
9, 325769, Note_on_c, 3, 59, 0
9, 325769, Note_on_c, 3, 55, 0
9, 325800, Note_on_c, 3, 54, 80
9, 325800, Note_on_c, 3, 57, 80
9, 325889, Note_on_c, 3, 54, 0
9, 325889, Note_on_c, 3, 57, 0
9, 325920, Note_on_c, 3, 55, 80
9, 325920, Note_on_c, 3, 52, 80
9, 326009, Note_on_c, 3, 55, 0
9, 326009, Note_on_c, 3, 52, 0
9, 326040, Note_on_c, 3, 54, 80
9, 326040, Note_on_c, 3, 50, 80
9, 326129, Note_on_c, 3, 54, 0
9, 326129, Note_on_c, 3, 50, 0
9, 326160, Note_on_c, 3, 50, 80
9, 326160, Note_on_c, 3, 48, 80
9, 326249, Note_on_c, 3, 50, 0
9, 326249, Note_on_c, 3, 48, 0
9, 326280, Note_on_c, 3, 50, 80
9, 326280, Note_on_c, 3, 47, 80
9, 326369, Note_on_c, 3, 50, 0
9, 326369, Note_on_c, 3, 47, 0
9, 326400, Note_on_c, 3, 52, 80
9, 326400, Note_on_c, 3, 49, 80
9, 326489, Note_on_c, 3, 52, 0
9, 326489, Note_on_c, 3, 49, 0
9, 326520, Note_on_c, 3, 54, 80
9, 326520, Note_on_c, 3, 50, 80
9, 326609, Note_on_c, 3, 54, 0
9, 326609, Note_on_c, 3, 50, 0
9, 326640, Note_on_c, 3, 57, 80
9, 326640, Note_on_c, 3, 54, 80
9, 326729, Note_on_c, 3, 57, 0
9, 326729, Note_on_c, 3, 54, 0
9, 326760, Note_on_c, 3, 61, 80
9, 326760, Note_on_c, 3, 57, 80
9, 326849, Note_on_c, 3, 61, 0
9, 326849, Note_on_c, 3, 57, 0
9, 326880, Note_on_c, 3, 64, 80
9, 326880, Note_on_c, 3, 61, 80
9, 326969, Note_on_c, 3, 64, 0
9, 326969, Note_on_c, 3, 61, 0
9, 327000, Note_on_c, 3, 66, 80
9, 327000, Note_on_c, 3, 62, 80
9, 327089, Note_on_c, 3, 66, 0
9, 327089, Note_on_c, 3, 62, 0
9, 327120, Note_on_c, 3, 61, 80
9, 327120, Note_on_c, 3, 64, 80
9, 327209, Note_on_c, 3, 61, 0
9, 327209, Note_on_c, 3, 64, 0
9, 327240, Note_on_c, 3, 62, 80
9, 327240, Note_on_c, 3, 66, 80
9, 327329, Note_on_c, 3, 62, 0
9, 327329, Note_on_c, 3, 66, 0
9, 327360, Note_on_c, 3, 59, 80
9, 327360, Note_on_c, 3, 62, 80
9, 327449, Note_on_c, 3, 59, 0
9, 327449, Note_on_c, 3, 62, 0
9, 327480, Note_on_c, 3, 57, 80
9, 327480, Note_on_c, 3, 61, 80
9, 327569, Note_on_c, 3, 57, 0
9, 327569, Note_on_c, 3, 61, 0
9, 327600, Note_on_c, 3, 55, 80
9, 327600, Note_on_c, 3, 59, 80
9, 327689, Note_on_c, 3, 55, 0
9, 327689, Note_on_c, 3, 59, 0
9, 327720, Note_on_c, 3, 54, 80
9, 327720, Note_on_c, 3, 57, 80
9, 327809, Note_on_c, 3, 54, 0
9, 327809, Note_on_c, 3, 57, 0
9, 327840, Note_on_c, 3, 52, 80
9, 327840, Note_on_c, 3, 55, 80
9, 327929, Note_on_c, 3, 52, 0
9, 327929, Note_on_c, 3, 55, 0
9, 327960, Note_on_c, 3, 54, 80
9, 327960, Note_on_c, 3, 50, 80
9, 328049, Note_on_c, 3, 54, 0
9, 328049, Note_on_c, 3, 50, 0
9, 328080, Note_on_c, 3, 60, 80
9, 328080, Note_on_c, 3, 48, 80
9, 328169, Note_on_c, 3, 60, 0
9, 328169, Note_on_c, 3, 48, 0
9, 328200, Note_on_c, 3, 59, 80
9, 328200, Note_on_c, 3, 47, 80
9, 328289, Note_on_c, 3, 59, 0
9, 328289, Note_on_c, 3, 47, 0
9, 328320, Note_on_c, 3, 43, 80
9, 328320, Note_on_c, 3, 55, 80
9, 328409, Note_on_c, 3, 43, 0
9, 328409, Note_on_c, 3, 55, 0
9, 328440, Note_on_c, 3, 45, 80
9, 328440, Note_on_c, 3, 57, 80
9, 328529, Note_on_c, 3, 45, 0
9, 328529, Note_on_c, 3, 57, 0
9, 328560, Note_on_c, 3, 45, 80
9, 328560, Note_on_c, 3, 57, 80
9, 328649, Note_on_c, 3, 45, 0
9, 328649, Note_on_c, 3, 57, 0
9, 328680, Note_on_c, 3, 50, 80
9, 328799, Note_on_c, 3, 50, 0
9, 344040, Note_on_c, 3, 57, 80
9, 344100, Control_c, 3, 11, 67
9, 344760, Note_on_c, 3, 59, 80
9, 344979, Note_on_c, 3, 59, 0
9, 345000, Note_on_c, 3, 61, 80
9, 345359, Note_on_c, 3, 61, 0
9, 345360, Note_on_c, 3, 62, 80
9, 345419, Note_on_c, 3, 62, 0
9, 345420, Note_on_c, 3, 64, 80
9, 345459, Note_on_c, 3, 64, 0
9, 345480, Note_on_c, 3, 62, 80
9, 345569, Note_on_c, 3, 62, 0
9, 345600, Note_on_c, 3, 62, 80
9, 345689, Note_on_c, 3, 62, 0
9, 345720, Note_on_c, 3, 61, 80
9, 345809, Note_on_c, 3, 61, 0
9, 345840, Note_on_c, 3, 61, 80
9, 345929, Note_on_c, 3, 61, 0
9, 345960, Note_on_c, 3, 59, 80
9, 346179, Note_on_c, 3, 59, 0
9, 346680, Note_on_c, 3, 59, 80
9, 346899, Note_on_c, 3, 59, 0
9, 346920, Note_on_c, 3, 61, 80
9, 347139, Note_on_c, 3, 57, 0
9, 347139, Note_on_c, 3, 61, 0
9, 347160, Note_on_c, 3, 57, 80
9, 347160, Note_on_c, 3, 61, 80
9, 347619, Note_on_c, 3, 57, 0
9, 347619, Note_on_c, 3, 61, 0
9, 347640, Note_on_c, 3, 62, 80
9, 347640, Note_on_c, 3, 59, 80
9, 347859, Note_on_c, 3, 62, 0
9, 347859, Note_on_c, 3, 59, 0
9, 347880, Note_on_c, 3, 64, 80
9, 347880, Note_on_c, 3, 61, 80
9, 348099, Note_on_c, 3, 64, 0
9, 348099, Note_on_c, 3, 61, 0
9, 348120, Note_on_c, 3, 64, 80
9, 348120, Note_on_c, 3, 61, 80
9, 348579, Note_on_c, 3, 64, 0
9, 348579, Note_on_c, 3, 61, 0
9, 348600, Note_on_c, 3, 62, 80
9, 348600, Note_on_c, 3, 66, 80
9, 348819, Note_on_c, 3, 62, 0
9, 348819, Note_on_c, 3, 66, 0
9, 348840, Note_on_c, 3, 67, 80
9, 348840, Note_on_c, 3, 64, 80
9, 349059, Note_on_c, 3, 67, 0
9, 349059, Note_on_c, 3, 64, 0
9, 349080, Note_on_c, 3, 57, 80
9, 349080, Note_on_c, 3, 64, 80
9, 349539, Note_on_c, 3, 57, 0
9, 349539, Note_on_c, 3, 64, 0
9, 349560, Note_on_c, 3, 66, 80
9, 349560, Note_on_c, 3, 57, 80
9, 349779, Note_on_c, 3, 66, 0
9, 349779, Note_on_c, 3, 57, 0
9, 349800, Note_on_c, 3, 57, 80
9, 349800, Note_on_c, 3, 67, 80
9, 350019, Note_on_c, 3, 57, 0
9, 350019, Note_on_c, 3, 67, 0
9, 350040, Note_on_c, 3, 67, 80
9, 350040, Note_on_c, 3, 57, 80
9, 350040, Control_c, 3, 11, 67
9, 350100, Control_c, 3, 11, 68
9, 350160, Control_c, 3, 11, 69
9, 350220, Control_c, 3, 11, 70
9, 350280, Control_c, 3, 11, 71
9, 350340, Control_c, 3, 11, 72
9, 350400, Control_c, 3, 11, 73
9, 350460, Control_c, 3, 11, 74
9, 350499, Note_on_c, 3, 67, 0
9, 350499, Note_on_c, 3, 57, 0
9, 350520, Control_c, 3, 11, 75
9, 350520, Note_on_c, 3, 57, 80
9, 350520, Note_on_c, 3, 67, 80
9, 350580, Control_c, 3, 11, 76
9, 350640, Control_c, 3, 11, 77
9, 350700, Control_c, 3, 11, 78
9, 350760, Control_c, 3, 11, 79
9, 350820, Control_c, 3, 11, 80
9, 350880, Control_c, 3, 11, 81
9, 350940, Control_c, 3, 11, 82
9, 350979, Note_on_c, 3, 57, 0
9, 350979, Note_on_c, 3, 67, 0
9, 351000, Note_on_c, 3, 57, 80
9, 351000, Note_on_c, 3, 67, 80
9, 351000, Control_c, 3, 11, 83
9, 351060, Control_c, 3, 11, 84
9, 351120, Control_c, 3, 11, 85
9, 351180, Control_c, 3, 11, 86
9, 351240, Control_c, 3, 11, 87
9, 351300, Control_c, 3, 11, 88
9, 351360, Control_c, 3, 11, 89
9, 351420, Control_c, 3, 11, 90
9, 351459, Note_on_c, 3, 57, 0
9, 351459, Note_on_c, 3, 67, 0
9, 351480, Control_c, 3, 11, 91
9, 351480, Note_on_c, 3, 67, 80
9, 351480, Note_on_c, 3, 58, 80
9, 351540, Control_c, 3, 11, 92
9, 351600, Control_c, 3, 11, 93
9, 351660, Control_c, 3, 11, 94
9, 351720, Control_c, 3, 11, 95
9, 351780, Control_c, 3, 11, 96
9, 351840, Control_c, 3, 11, 97
9, 351900, Control_c, 3, 11, 98
9, 351939, Note_on_c, 3, 67, 0
9, 351939, Note_on_c, 3, 58, 0
9, 351960, Note_on_c, 3, 67, 80
9, 351960, Note_on_c, 3, 60, 80
9, 351960, Control_c, 3, 11, 99
9, 352020, Control_c, 3, 11, 100
9, 352080, Control_c, 3, 11, 101
9, 352140, Control_c, 3, 11, 102
9, 352200, Control_c, 3, 11, 103
9, 352260, Control_c, 3, 11, 104
9, 352320, Control_c, 3, 11, 105
9, 352380, Control_c, 3, 11, 106
9, 352419, Note_on_c, 3, 67, 0
9, 352419, Note_on_c, 3, 60, 0
9, 352438, Control_c, 3, 11, 67
9, 352440, Note_on_c, 3, 67, 80
9, 352440, Note_on_c, 3, 60, 80
9, 352899, Note_on_c, 3, 60, 0
9, 352919, Note_on_c, 3, 67, 0
9, 352920, Note_on_c, 3, 64, 80
9, 352920, Note_on_c, 3, 60, 80
9, 353159, Note_on_c, 3, 64, 0
9, 353160, Note_on_c, 3, 65, 80
9, 353379, Note_on_c, 3, 60, 0
9, 353399, Note_on_c, 3, 65, 0
9, 353400, Note_on_c, 3, 60, 80
9, 353400, Control_c, 3, 11, 67
9, 353400, Note_on_c, 3, 64, 80
9, 353440, Control_c, 3, 11, 70
9, 353480, Control_c, 3, 11, 74
9, 353520, Control_c, 3, 11, 77
9, 353560, Control_c, 3, 11, 80
9, 353600, Control_c, 3, 11, 84
9, 353640, Control_c, 3, 11, 87
9, 353680, Control_c, 3, 11, 90
9, 353720, Control_c, 3, 11, 94
9, 353760, Control_c, 3, 11, 97
9, 353800, Control_c, 3, 11, 100
9, 353840, Control_c, 3, 11, 104
9, 353879, Note_on_c, 3, 60, 0
9, 353880, Note_on_c, 3, 61, 80
9, 353880, Control_c, 3, 11, 107
9, 353920, Control_c, 3, 11, 110
9, 353960, Control_c, 3, 11, 114
9, 353979, Note_on_c, 3, 64, 0
9, 353979, Note_on_c, 3, 61, 0
9, 354000, Note_on_c, 3, 66, 80
9, 354000, Control_c, 3, 11, 117
9, 354000, Note_on_c, 3, 62, 80
9, 354040, Control_c, 3, 11, 120
9, 354080, Control_c, 3, 11, 124
9, 354118, Control_c, 3, 11, 127
9, 354180, Control_c, 3, 11, 67
9, 354239, Note_on_c, 3, 66, 0
9, 354239, Note_on_c, 3, 62, 0
9, 354360, Note_on_c, 3, 62, 80
9, 354360, Note_on_c, 3, 66, 80
9, 354449, Note_on_c, 3, 62, 0
9, 354449, Note_on_c, 3, 66, 0
9, 354480, Note_on_c, 3, 61, 80
9, 354480, Note_on_c, 3, 64, 80
9, 354569, Note_on_c, 3, 61, 0
9, 354569, Note_on_c, 3, 64, 0
9, 354600, Control_c, 3, 11, 67
9, 354600, Note_on_c, 3, 62, 80
9, 354600, Note_on_c, 3, 66, 80
9, 354660, Control_c, 3, 11, 68
9, 354689, Note_on_c, 3, 62, 0
9, 354689, Note_on_c, 3, 66, 0
9, 354720, Control_c, 3, 11, 69
9, 354720, Note_on_c, 3, 59, 80
9, 354720, Note_on_c, 3, 62, 80
9, 354780, Control_c, 3, 11, 70
9, 354809, Note_on_c, 3, 59, 0
9, 354809, Note_on_c, 3, 62, 0
9, 354840, Note_on_c, 3, 61, 80
9, 354840, Note_on_c, 3, 57, 80
9, 354840, Control_c, 3, 11, 71
9, 354900, Control_c, 3, 11, 72
9, 354929, Note_on_c, 3, 61, 0
9, 354929, Note_on_c, 3, 57, 0
9, 354960, Note_on_c, 3, 55, 80
9, 354960, Control_c, 3, 11, 73
9, 354960, Note_on_c, 3, 59, 80
9, 355020, Control_c, 3, 11, 74
9, 355049, Note_on_c, 3, 55, 0
9, 355049, Note_on_c, 3, 59, 0
9, 355080, Control_c, 3, 11, 75
9, 355080, Note_on_c, 3, 54, 80
9, 355080, Note_on_c, 3, 57, 80
9, 355140, Control_c, 3, 11, 76
9, 355169, Note_on_c, 3, 54, 0
9, 355169, Note_on_c, 3, 57, 0
9, 355200, Note_on_c, 3, 55, 80
9, 355200, Note_on_c, 3, 52, 80
9, 355200, Control_c, 3, 11, 77
9, 355260, Control_c, 3, 11, 78
9, 355289, Note_on_c, 3, 55, 0
9, 355289, Note_on_c, 3, 52, 0
9, 355320, Note_on_c, 3, 50, 80
9, 355320, Control_c, 3, 11, 79
9, 355320, Note_on_c, 3, 54, 80
9, 355380, Control_c, 3, 11, 80
9, 355409, Note_on_c, 3, 50, 0
9, 355409, Note_on_c, 3, 54, 0
9, 355440, Note_on_c, 3, 48, 80
9, 355440, Control_c, 3, 11, 81
9, 355440, Note_on_c, 3, 50, 80
9, 355500, Control_c, 3, 11, 82
9, 355529, Note_on_c, 3, 48, 0
9, 355529, Note_on_c, 3, 50, 0
9, 355560, Note_on_c, 3, 50, 80
9, 355560, Note_on_c, 3, 47, 80
9, 355560, Control_c, 3, 11, 83
9, 355620, Control_c, 3, 11, 84
9, 355649, Note_on_c, 3, 50, 0
9, 355649, Note_on_c, 3, 47, 0
9, 355680, Control_c, 3, 11, 85
9, 355680, Note_on_c, 3, 52, 80
9, 355680, Note_on_c, 3, 49, 80
9, 355740, Control_c, 3, 11, 86
9, 355769, Note_on_c, 3, 52, 0
9, 355769, Note_on_c, 3, 49, 0
9, 355800, Control_c, 3, 11, 87
9, 355800, Note_on_c, 3, 50, 80
9, 355800, Note_on_c, 3, 54, 80
9, 355860, Control_c, 3, 11, 88
9, 355889, Note_on_c, 3, 50, 0
9, 355889, Note_on_c, 3, 54, 0
9, 355920, Note_on_c, 3, 54, 80
9, 355920, Control_c, 3, 11, 89
9, 355920, Note_on_c, 3, 57, 80
9, 355980, Control_c, 3, 11, 90
9, 356009, Note_on_c, 3, 54, 0
9, 356009, Note_on_c, 3, 57, 0
9, 356040, Note_on_c, 3, 61, 80
9, 356040, Note_on_c, 3, 57, 80
9, 356040, Control_c, 3, 11, 91
9, 356100, Control_c, 3, 11, 92
9, 356129, Note_on_c, 3, 61, 0
9, 356129, Note_on_c, 3, 57, 0
9, 356160, Control_c, 3, 11, 93
9, 356160, Note_on_c, 3, 64, 80
9, 356160, Note_on_c, 3, 61, 80
9, 356220, Control_c, 3, 11, 94
9, 356249, Note_on_c, 3, 64, 0
9, 356249, Note_on_c, 3, 61, 0
9, 356280, Note_on_c, 3, 66, 80
9, 356280, Note_on_c, 3, 62, 80
9, 356280, Control_c, 3, 11, 95
9, 356340, Control_c, 3, 11, 96
9, 356369, Note_on_c, 3, 66, 0
9, 356369, Note_on_c, 3, 62, 0
9, 356400, Note_on_c, 3, 64, 80
9, 356400, Note_on_c, 3, 61, 80
9, 356400, Control_c, 3, 11, 97
9, 356460, Control_c, 3, 11, 98
9, 356489, Note_on_c, 3, 64, 0
9, 356489, Note_on_c, 3, 61, 0
9, 356520, Note_on_c, 3, 66, 80
9, 356520, Note_on_c, 3, 62, 80
9, 356520, Control_c, 3, 11, 99
9, 356580, Control_c, 3, 11, 100
9, 356609, Note_on_c, 3, 66, 0
9, 356609, Note_on_c, 3, 62, 0
9, 356640, Note_on_c, 3, 59, 80
9, 356640, Control_c, 3, 11, 101
9, 356640, Note_on_c, 3, 62, 80
9, 356700, Control_c, 3, 11, 102
9, 356729, Note_on_c, 3, 59, 0
9, 356729, Note_on_c, 3, 62, 0
9, 356760, Note_on_c, 3, 57, 80
9, 356760, Note_on_c, 3, 61, 80
9, 356760, Control_c, 3, 11, 103
9, 356820, Control_c, 3, 11, 104
9, 356849, Note_on_c, 3, 57, 0
9, 356849, Note_on_c, 3, 61, 0
9, 356880, Note_on_c, 3, 55, 80
9, 356880, Note_on_c, 3, 59, 80
9, 356880, Control_c, 3, 11, 105
9, 356940, Control_c, 3, 11, 106
9, 356969, Note_on_c, 3, 55, 0
9, 356969, Note_on_c, 3, 59, 0
9, 357000, Note_on_c, 3, 57, 80
9, 357000, Control_c, 3, 11, 107
9, 357000, Note_on_c, 3, 54, 80
9, 357060, Control_c, 3, 11, 108
9, 357089, Note_on_c, 3, 57, 0
9, 357089, Note_on_c, 3, 54, 0
9, 357120, Note_on_c, 3, 55, 80
9, 357120, Note_on_c, 3, 52, 80
9, 357120, Control_c, 3, 11, 109
9, 357180, Control_c, 3, 11, 110
9, 357209, Note_on_c, 3, 55, 0
9, 357209, Note_on_c, 3, 52, 0
9, 357240, Note_on_c, 3, 54, 80
9, 357240, Control_c, 3, 11, 111
9, 357240, Note_on_c, 3, 50, 80
9, 357300, Control_c, 3, 11, 112
9, 357329, Note_on_c, 3, 54, 0
9, 357329, Note_on_c, 3, 50, 0
9, 357360, Note_on_c, 3, 48, 80
9, 357360, Note_on_c, 3, 50, 80
9, 357360, Control_c, 3, 11, 113
9, 357420, Control_c, 3, 11, 114
9, 357449, Note_on_c, 3, 48, 0
9, 357449, Note_on_c, 3, 50, 0
9, 357480, Note_on_c, 3, 50, 80
9, 357480, Control_c, 3, 11, 115
9, 357480, Note_on_c, 3, 47, 80
9, 357540, Control_c, 3, 11, 116
9, 357569, Note_on_c, 3, 50, 0
9, 357569, Note_on_c, 3, 47, 0
9, 357600, Note_on_c, 3, 49, 80
9, 357600, Control_c, 3, 11, 117
9, 357600, Note_on_c, 3, 52, 80
9, 357660, Control_c, 3, 11, 118
9, 357689, Note_on_c, 3, 49, 0
9, 357689, Note_on_c, 3, 52, 0
9, 357720, Note_on_c, 3, 50, 80
9, 357720, Note_on_c, 3, 54, 80
9, 357720, Control_c, 3, 11, 119
9, 357780, Control_c, 3, 11, 120
9, 357809, Note_on_c, 3, 50, 0
9, 357809, Note_on_c, 3, 54, 0
9, 357840, Note_on_c, 3, 54, 80
9, 357840, Control_c, 3, 11, 121
9, 357840, Note_on_c, 3, 57, 80
9, 357900, Control_c, 3, 11, 122
9, 357929, Note_on_c, 3, 54, 0
9, 357929, Note_on_c, 3, 57, 0
9, 357960, Note_on_c, 3, 57, 80
9, 357960, Control_c, 3, 11, 123
9, 357960, Note_on_c, 3, 61, 80
9, 358020, Control_c, 3, 11, 124
9, 358049, Note_on_c, 3, 57, 0
9, 358049, Note_on_c, 3, 61, 0
9, 358080, Note_on_c, 3, 61, 80
9, 358080, Control_c, 3, 11, 125
9, 358080, Note_on_c, 3, 64, 80
9, 358140, Control_c, 3, 11, 127
9, 358169, Note_on_c, 3, 61, 0
9, 358169, Note_on_c, 3, 64, 0
9, 358200, Note_on_c, 3, 62, 80
9, 358200, Note_on_c, 3, 66, 80
9, 358289, Note_on_c, 3, 62, 0
9, 358289, Note_on_c, 3, 66, 0
9, 358320, Note_on_c, 3, 61, 80
9, 358320, Note_on_c, 3, 64, 80
9, 358409, Note_on_c, 3, 61, 0
9, 358409, Note_on_c, 3, 64, 0
9, 358440, Note_on_c, 3, 62, 80
9, 358440, Note_on_c, 3, 66, 80
9, 358529, Note_on_c, 3, 62, 0
9, 358529, Note_on_c, 3, 66, 0
9, 358560, Note_on_c, 3, 62, 80
9, 358560, Note_on_c, 3, 59, 80
9, 358649, Note_on_c, 3, 62, 0
9, 358649, Note_on_c, 3, 59, 0
9, 358680, Note_on_c, 3, 57, 80
9, 358680, Note_on_c, 3, 61, 80
9, 358769, Note_on_c, 3, 57, 0
9, 358769, Note_on_c, 3, 61, 0
9, 358800, Note_on_c, 3, 59, 80
9, 358800, Note_on_c, 3, 55, 80
9, 358889, Note_on_c, 3, 59, 0
9, 358889, Note_on_c, 3, 55, 0
9, 358920, Note_on_c, 3, 57, 80
9, 358920, Note_on_c, 3, 54, 80
9, 359009, Note_on_c, 3, 57, 0
9, 359009, Note_on_c, 3, 54, 0
9, 359040, Note_on_c, 3, 52, 80
9, 359040, Note_on_c, 3, 55, 80
9, 359129, Note_on_c, 3, 52, 0
9, 359129, Note_on_c, 3, 55, 0
9, 359160, Note_on_c, 3, 54, 80
9, 359160, Note_on_c, 3, 50, 80
9, 359249, Note_on_c, 3, 54, 0
9, 359249, Note_on_c, 3, 50, 0
9, 359280, Note_on_c, 3, 50, 80
9, 359280, Note_on_c, 3, 48, 80
9, 359369, Note_on_c, 3, 50, 0
9, 359369, Note_on_c, 3, 48, 0
9, 359400, Note_on_c, 3, 47, 80
9, 359400, Note_on_c, 3, 50, 80
9, 359489, Note_on_c, 3, 47, 0
9, 359489, Note_on_c, 3, 50, 0
9, 359520, Note_on_c, 3, 52, 80
9, 359520, Note_on_c, 3, 49, 80
9, 359609, Note_on_c, 3, 52, 0
9, 359609, Note_on_c, 3, 49, 0
9, 359640, Note_on_c, 3, 54, 80
9, 359640, Note_on_c, 3, 50, 80
9, 359729, Note_on_c, 3, 54, 0
9, 359729, Note_on_c, 3, 50, 0
9, 359760, Note_on_c, 3, 54, 80
9, 359760, Note_on_c, 3, 57, 80
9, 359849, Note_on_c, 3, 54, 0
9, 359849, Note_on_c, 3, 57, 0
9, 359880, Note_on_c, 3, 57, 80
9, 359880, Note_on_c, 3, 61, 80
9, 359969, Note_on_c, 3, 57, 0
9, 359969, Note_on_c, 3, 61, 0
9, 360000, Note_on_c, 3, 64, 80
9, 360000, Note_on_c, 3, 61, 80
9, 360089, Note_on_c, 3, 64, 0
9, 360089, Note_on_c, 3, 61, 0
9, 360120, Note_on_c, 3, 62, 80
9, 360120, Note_on_c, 3, 66, 80
9, 360209, Note_on_c, 3, 62, 0
9, 360209, Note_on_c, 3, 66, 0
9, 360240, Note_on_c, 3, 61, 80
9, 360240, Note_on_c, 3, 64, 80
9, 360329, Note_on_c, 3, 61, 0
9, 360329, Note_on_c, 3, 64, 0
9, 360360, Note_on_c, 3, 62, 80
9, 360360, Note_on_c, 3, 66, 80
9, 360449, Note_on_c, 3, 62, 0
9, 360449, Note_on_c, 3, 66, 0
9, 360480, Note_on_c, 3, 62, 80
9, 360480, Note_on_c, 3, 59, 80
9, 360569, Note_on_c, 3, 62, 0
9, 360569, Note_on_c, 3, 59, 0
9, 360600, Note_on_c, 3, 61, 80
9, 360600, Note_on_c, 3, 57, 80
9, 360689, Note_on_c, 3, 61, 0
9, 360689, Note_on_c, 3, 57, 0
9, 360720, Note_on_c, 3, 55, 80
9, 360720, Note_on_c, 3, 59, 80
9, 360809, Note_on_c, 3, 55, 0
9, 360809, Note_on_c, 3, 59, 0
9, 360840, Note_on_c, 3, 54, 80
9, 360840, Note_on_c, 3, 57, 80
9, 360929, Note_on_c, 3, 54, 0
9, 360929, Note_on_c, 3, 57, 0
9, 360960, Note_on_c, 3, 55, 80
9, 360960, Note_on_c, 3, 52, 80
9, 361049, Note_on_c, 3, 55, 0
9, 361049, Note_on_c, 3, 52, 0
9, 361080, Note_on_c, 3, 54, 80
9, 361080, Note_on_c, 3, 50, 80
9, 361169, Note_on_c, 3, 54, 0
9, 361169, Note_on_c, 3, 50, 0
9, 361200, Note_on_c, 3, 60, 80
9, 361200, Note_on_c, 3, 48, 80
9, 361289, Note_on_c, 3, 60, 0
9, 361289, Note_on_c, 3, 48, 0
9, 361320, Note_on_c, 3, 47, 80
9, 361320, Note_on_c, 3, 59, 80
9, 361409, Note_on_c, 3, 47, 0
9, 361409, Note_on_c, 3, 59, 0
9, 361440, Note_on_c, 3, 55, 80
9, 361440, Note_on_c, 3, 43, 80
9, 361529, Note_on_c, 3, 55, 0
9, 361529, Note_on_c, 3, 43, 0
9, 361560, Note_on_c, 3, 45, 80
9, 361560, Note_on_c, 3, 57, 80
9, 361649, Note_on_c, 3, 45, 0
9, 361649, Note_on_c, 3, 57, 0
9, 361680, Note_on_c, 3, 45, 80
9, 361680, Note_on_c, 3, 57, 80
9, 361769, Note_on_c, 3, 45, 0
9, 361769, Note_on_c, 3, 57, 0
9, 361800, Note_on_c, 3, 50, 80
9, 361919, Note_on_c, 3, 50, 0
9, 362040, Note_on_c, 3, 62, 44
9, 362129, Note_on_c, 3, 62, 0
9, 362160, Note_on_c, 3, 61, 44
9, 362249, Note_on_c, 3, 61, 0
9, 362280, Note_on_c, 3, 62, 44
9, 362369, Note_on_c, 3, 62, 0
9, 362400, Note_on_c, 3, 59, 44
9, 362489, Note_on_c, 3, 59, 0
9, 362520, Note_on_c, 3, 57, 44
9, 362609, Note_on_c, 3, 57, 0
9, 362640, Note_on_c, 3, 55, 44
9, 362729, Note_on_c, 3, 55, 0
9, 362760, Note_on_c, 3, 54, 44
9, 362849, Note_on_c, 3, 54, 0
9, 362880, Note_on_c, 3, 64, 44
9, 362969, Note_on_c, 3, 64, 0
9, 363000, Note_on_c, 3, 62, 44
9, 363089, Note_on_c, 3, 62, 0
9, 363120, Note_on_c, 3, 60, 44
9, 363209, Note_on_c, 3, 60, 0
9, 363240, Note_on_c, 3, 59, 44
9, 363329, Note_on_c, 3, 59, 0
9, 363360, Note_on_c, 3, 61, 44
9, 363449, Note_on_c, 3, 61, 0
9, 363480, Note_on_c, 3, 62, 44
9, 363569, Note_on_c, 3, 62, 0
9, 363600, Note_on_c, 3, 66, 44
9, 363689, Note_on_c, 3, 66, 0
9, 363720, Note_on_c, 3, 57, 44
9, 363809, Note_on_c, 3, 57, 0
9, 363840, Note_on_c, 3, 61, 45
9, 363929, Note_on_c, 3, 61, 0
9, 363960, Note_on_c, 3, 62, 46
9, 364049, Note_on_c, 3, 62, 0
9, 364080, Note_on_c, 3, 61, 47
9, 364169, Note_on_c, 3, 61, 0
9, 364200, Note_on_c, 3, 62, 48
9, 364289, Note_on_c, 3, 62, 0
9, 364320, Note_on_c, 3, 59, 49
9, 364409, Note_on_c, 3, 59, 0
9, 364440, Note_on_c, 3, 57, 50
9, 364529, Note_on_c, 3, 57, 0
9, 364560, Note_on_c, 3, 55, 51
9, 364649, Note_on_c, 3, 55, 0
9, 364680, Note_on_c, 3, 54, 53
9, 364769, Note_on_c, 3, 54, 0
9, 364800, Note_on_c, 3, 50, 54
9, 364889, Note_on_c, 3, 50, 0
9, 364920, Note_on_c, 3, 66, 55
9, 365009, Note_on_c, 3, 66, 0
9, 365040, Note_on_c, 3, 64, 56
9, 365129, Note_on_c, 3, 64, 0
9, 365160, Note_on_c, 3, 66, 57
9, 365249, Note_on_c, 3, 66, 0
9, 365280, Note_on_c, 3, 62, 58
9, 365369, Note_on_c, 3, 62, 0
9, 365400, Note_on_c, 3, 61, 59
9, 365489, Note_on_c, 3, 61, 0
9, 365520, Note_on_c, 3, 59, 60
9, 365609, Note_on_c, 3, 59, 0
9, 365640, Note_on_c, 3, 57, 62
9, 365729, Note_on_c, 3, 57, 0
9, 365760, Note_on_c, 3, 54, 63
9, 365849, Note_on_c, 3, 54, 0
9, 365880, Note_on_c, 3, 57, 64
9, 365969, Note_on_c, 3, 57, 0
9, 366000, Note_on_c, 3, 68, 65
9, 366089, Note_on_c, 3, 68, 0
9, 366120, Note_on_c, 3, 69, 66
9, 366209, Note_on_c, 3, 69, 0
9, 366240, Note_on_c, 3, 66, 67
9, 366329, Note_on_c, 3, 66, 0
9, 366360, Note_on_c, 3, 64, 68
9, 366449, Note_on_c, 3, 64, 0
9, 366480, Note_on_c, 3, 61, 69
9, 366569, Note_on_c, 3, 61, 0
9, 366600, Note_on_c, 3, 57, 71
9, 366689, Note_on_c, 3, 57, 0
9, 366720, Note_on_c, 3, 68, 72
9, 366809, Note_on_c, 3, 68, 0
9, 366840, Note_on_c, 3, 69, 73
9, 366929, Note_on_c, 3, 69, 0
9, 366960, Note_on_c, 3, 68, 74
9, 367049, Note_on_c, 3, 68, 0
9, 367080, Note_on_c, 3, 69, 75
9, 367169, Note_on_c, 3, 69, 0
9, 367200, Note_on_c, 3, 66, 76
9, 367289, Note_on_c, 3, 66, 0
9, 367320, Note_on_c, 3, 64, 77
9, 367409, Note_on_c, 3, 64, 0
9, 367440, Note_on_c, 3, 61, 78
9, 367529, Note_on_c, 3, 61, 0
9, 367560, Note_on_c, 3, 57, 80
9, 367649, Note_on_c, 3, 57, 0
9, 367680, Note_on_c, 3, 62, 80
9, 367769, Note_on_c, 3, 62, 0
9, 367800, Note_on_c, 3, 64, 80
9, 367889, Note_on_c, 3, 64, 0
9, 367920, Note_on_c, 3, 62, 80
9, 368009, Note_on_c, 3, 62, 0
9, 368040, Note_on_c, 3, 57, 80
9, 368129, Note_on_c, 3, 57, 0
9, 368160, Note_on_c, 3, 64, 80
9, 368249, Note_on_c, 3, 64, 0
9, 368280, Note_on_c, 3, 66, 80
9, 368369, Note_on_c, 3, 66, 0
9, 368400, Note_on_c, 3, 64, 80
9, 368489, Note_on_c, 3, 64, 0
9, 368520, Note_on_c, 3, 57, 80
9, 368609, Note_on_c, 3, 57, 0
9, 368640, Note_on_c, 3, 62, 76
9, 368729, Note_on_c, 3, 62, 0
9, 368760, Note_on_c, 3, 64, 71
9, 368849, Note_on_c, 3, 64, 0
9, 368880, Note_on_c, 3, 62, 67
9, 368969, Note_on_c, 3, 62, 0
9, 369000, Note_on_c, 3, 57, 62
9, 369089, Note_on_c, 3, 57, 0
9, 369120, Note_on_c, 3, 64, 58
9, 369209, Note_on_c, 3, 64, 0
9, 369240, Note_on_c, 3, 66, 53
9, 369329, Note_on_c, 3, 66, 0
9, 369360, Note_on_c, 3, 64, 49
9, 369449, Note_on_c, 3, 64, 0
9, 369478, Control_c, 3, 11, 47
9, 369480, Note_on_c, 3, 62, 92
9, 369599, Note_on_c, 3, 62, 0
9, 369720, Control_c, 3, 11, 47
9, 369720, Note_on_c, 3, 50, 92
9, 369765, Control_c, 3, 11, 48
9, 369810, Control_c, 3, 11, 49
9, 369855, Control_c, 3, 11, 50
9, 369900, Control_c, 3, 11, 51
9, 369945, Control_c, 3, 11, 52
9, 369990, Control_c, 3, 11, 53
9, 370035, Control_c, 3, 11, 54
9, 370080, Control_c, 3, 11, 55
9, 370125, Control_c, 3, 11, 56
9, 370170, Control_c, 3, 11, 57
9, 370179, Note_on_c, 3, 50, 0
9, 370200, Note_on_c, 3, 52, 92
9, 370215, Control_c, 3, 11, 58
9, 370260, Control_c, 3, 11, 59
9, 370305, Control_c, 3, 11, 60
9, 370350, Control_c, 3, 11, 61
9, 370395, Control_c, 3, 11, 62
9, 370419, Note_on_c, 3, 52, 0
9, 370440, Control_c, 3, 11, 63
9, 370440, Note_on_c, 3, 54, 92
9, 370485, Control_c, 3, 11, 64
9, 370530, Control_c, 3, 11, 65
9, 370575, Control_c, 3, 11, 66
9, 370620, Control_c, 3, 11, 67
9, 370659, Note_on_c, 3, 54, 0
9, 370665, Control_c, 3, 11, 68
9, 370680, Note_on_c, 3, 50, 92
9, 370680, Note_on_c, 3, 54, 92
9, 370710, Control_c, 3, 11, 69
9, 370755, Control_c, 3, 11, 70
9, 370800, Control_c, 3, 11, 71
9, 370845, Control_c, 3, 11, 72
9, 370890, Control_c, 3, 11, 73
9, 370935, Control_c, 3, 11, 74
9, 370980, Control_c, 3, 11, 75
9, 371025, Control_c, 3, 11, 76
9, 371070, Control_c, 3, 11, 77
9, 371115, Control_c, 3, 11, 78
9, 371139, Note_on_c, 3, 50, 0
9, 371139, Note_on_c, 3, 54, 0
9, 371160, Note_on_c, 3, 52, 92
9, 371160, Note_on_c, 3, 55, 92
9, 371160, Control_c, 3, 11, 79
9, 371205, Control_c, 3, 11, 80
9, 371250, Control_c, 3, 11, 81
9, 371295, Control_c, 3, 11, 82
9, 371340, Control_c, 3, 11, 83
9, 371379, Note_on_c, 3, 52, 0
9, 371379, Note_on_c, 3, 55, 0
9, 371385, Control_c, 3, 11, 84
9, 371400, Note_on_c, 3, 57, 92
9, 371400, Note_on_c, 3, 54, 92
9, 371430, Control_c, 3, 11, 85
9, 371475, Control_c, 3, 11, 86
9, 371520, Control_c, 3, 11, 87
9, 371565, Control_c, 3, 11, 88
9, 371610, Control_c, 3, 11, 89
9, 371619, Note_on_c, 3, 57, 0
9, 371619, Note_on_c, 3, 54, 0
9, 371640, Note_on_c, 3, 57, 92
9, 371640, Note_on_c, 3, 54, 92
9, 371655, Control_c, 3, 11, 90
9, 371700, Control_c, 3, 11, 91
9, 371745, Control_c, 3, 11, 92
9, 371790, Control_c, 3, 11, 93
9, 371835, Control_c, 3, 11, 94
9, 371880, Control_c, 3, 11, 95
9, 371925, Control_c, 3, 11, 96
9, 371970, Control_c, 3, 11, 97
9, 372015, Control_c, 3, 11, 98
9, 372060, Control_c, 3, 11, 99
9, 372099, Note_on_c, 3, 57, 0
9, 372099, Note_on_c, 3, 54, 0
9, 372105, Control_c, 3, 11, 100
9, 372120, Note_on_c, 3, 61, 92
9, 372120, Note_on_c, 3, 55, 92
9, 372150, Control_c, 3, 11, 101
9, 372195, Control_c, 3, 11, 102
9, 372240, Control_c, 3, 11, 103
9, 372285, Control_c, 3, 11, 104
9, 372330, Control_c, 3, 11, 105
9, 372339, Note_on_c, 3, 61, 0
9, 372339, Note_on_c, 3, 55, 0
9, 372360, Note_on_c, 3, 54, 92
9, 372360, Note_on_c, 3, 62, 92
9, 372375, Control_c, 3, 11, 106
9, 372420, Control_c, 3, 11, 107
9, 372465, Control_c, 3, 11, 108
9, 372510, Control_c, 3, 11, 109
9, 372555, Control_c, 3, 11, 110
9, 372579, Note_on_c, 3, 54, 0
9, 372579, Note_on_c, 3, 62, 0
9, 372600, Note_on_c, 3, 57, 92
9, 372600, Control_c, 3, 11, 111
9, 372600, Note_on_c, 3, 66, 92
9, 372645, Control_c, 3, 11, 112
9, 372690, Control_c, 3, 11, 113
9, 372735, Control_c, 3, 11, 114
9, 372780, Control_c, 3, 11, 115
9, 372825, Control_c, 3, 11, 116
9, 372870, Control_c, 3, 11, 117
9, 372915, Control_c, 3, 11, 118
9, 372960, Control_c, 3, 11, 119
9, 373005, Control_c, 3, 11, 120
9, 373050, Control_c, 3, 11, 121
9, 373059, Note_on_c, 3, 57, 0
9, 373059, Note_on_c, 3, 66, 0
9, 373080, Note_on_c, 3, 55, 92
9, 373080, Note_on_c, 3, 64, 92
9, 373095, Control_c, 3, 11, 122
9, 373140, Control_c, 3, 11, 123
9, 373185, Control_c, 3, 11, 124
9, 373230, Control_c, 3, 11, 125
9, 373275, Control_c, 3, 11, 127
9, 373299, Note_on_c, 3, 55, 0
9, 373299, Note_on_c, 3, 64, 0
9, 373320, Note_on_c, 3, 54, 92
9, 373320, Note_on_c, 3, 62, 92
9, 373499, Note_on_c, 3, 54, 0
9, 373499, Note_on_c, 3, 62, 0
9, 373560, Note_on_c, 3, 54, 92
9, 373560, Note_on_c, 3, 62, 92
9, 373739, Note_on_c, 3, 54, 0
9, 373739, Note_on_c, 3, 62, 0
9, 373800, Note_on_c, 3, 55, 92
9, 373800, Note_on_c, 3, 64, 92
9, 373979, Note_on_c, 3, 55, 0
9, 373979, Note_on_c, 3, 64, 0
9, 374040, Note_on_c, 3, 64, 92
9, 374040, Note_on_c, 3, 55, 92
9, 374219, Note_on_c, 3, 64, 0
9, 374219, Note_on_c, 3, 55, 0
9, 374280, Note_on_c, 3, 62, 92
9, 374280, Control_c, 3, 11, 127
9, 374280, Note_on_c, 3, 54, 92
9, 374342, Control_c, 3, 11, 126
9, 374405, Control_c, 3, 11, 125
9, 374459, Note_on_c, 3, 62, 0
9, 374459, Note_on_c, 3, 54, 0
9, 374467, Control_c, 3, 11, 124
9, 374520, Note_on_c, 3, 54, 92
9, 374520, Note_on_c, 3, 62, 92
9, 374530, Control_c, 3, 11, 123
9, 374592, Control_c, 3, 11, 122
9, 374654, Control_c, 3, 11, 121
9, 374699, Note_on_c, 3, 54, 0
9, 374699, Note_on_c, 3, 62, 0
9, 374717, Control_c, 3, 11, 120
9, 374760, Note_on_c, 3, 64, 92
9, 374760, Note_on_c, 3, 55, 92
9, 374779, Control_c, 3, 11, 119
9, 374842, Control_c, 3, 11, 118
9, 374904, Control_c, 3, 11, 117
9, 374939, Note_on_c, 3, 64, 0
9, 374939, Note_on_c, 3, 55, 0
9, 374966, Control_c, 3, 11, 116
9, 375000, Note_on_c, 3, 64, 92
9, 375000, Note_on_c, 3, 55, 92
9, 375029, Control_c, 3, 11, 115
9, 375091, Control_c, 3, 11, 114
9, 375154, Control_c, 3, 11, 113
9, 375179, Note_on_c, 3, 64, 0
9, 375179, Note_on_c, 3, 55, 0
9, 375216, Control_c, 3, 11, 112
9, 375240, Note_on_c, 3, 54, 92
9, 375240, Note_on_c, 3, 62, 92
9, 375278, Control_c, 3, 11, 111
9, 375341, Control_c, 3, 11, 110
9, 375403, Control_c, 3, 11, 109
9, 375419, Note_on_c, 3, 54, 0
9, 375419, Note_on_c, 3, 62, 0
9, 375466, Control_c, 3, 11, 108
9, 375480, Note_on_c, 3, 62, 92
9, 375480, Note_on_c, 3, 54, 92
9, 375528, Control_c, 3, 11, 107
9, 375590, Control_c, 3, 11, 106
9, 375653, Control_c, 3, 11, 105
9, 375659, Note_on_c, 3, 62, 0
9, 375659, Note_on_c, 3, 54, 0
9, 375715, Control_c, 3, 11, 104
9, 375720, Note_on_c, 3, 64, 92
9, 375720, Note_on_c, 3, 55, 92
9, 375778, Control_c, 3, 11, 103
9, 375840, Control_c, 3, 11, 102
9, 375899, Note_on_c, 3, 64, 0
9, 375899, Note_on_c, 3, 55, 0
9, 375902, Control_c, 3, 11, 101
9, 375960, Note_on_c, 3, 64, 92
9, 375960, Note_on_c, 3, 55, 92
9, 375965, Control_c, 3, 11, 100
9, 376027, Control_c, 3, 11, 99
9, 376090, Control_c, 3, 11, 98
9, 376139, Note_on_c, 3, 64, 0
9, 376139, Note_on_c, 3, 55, 0
9, 376152, Control_c, 3, 11, 97
9, 376200, Note_on_c, 3, 54, 92
9, 376200, Note_on_c, 3, 62, 92
9, 376214, Control_c, 3, 11, 96
9, 376277, Control_c, 3, 11, 95
9, 376339, Control_c, 3, 11, 94
9, 376379, Note_on_c, 3, 54, 0
9, 376379, Note_on_c, 3, 62, 0
9, 376402, Control_c, 3, 11, 93
9, 376440, Note_on_c, 3, 62, 92
9, 376440, Note_on_c, 3, 54, 92
9, 376464, Control_c, 3, 11, 92
9, 376526, Control_c, 3, 11, 91
9, 376589, Control_c, 3, 11, 90
9, 376619, Note_on_c, 3, 62, 0
9, 376619, Note_on_c, 3, 54, 0
9, 376651, Control_c, 3, 11, 89
9, 376680, Note_on_c, 3, 64, 92
9, 376680, Note_on_c, 3, 55, 92
9, 376714, Control_c, 3, 11, 88
9, 376776, Control_c, 3, 11, 87
9, 376838, Control_c, 3, 11, 86
9, 376859, Note_on_c, 3, 64, 0
9, 376859, Note_on_c, 3, 55, 0
9, 376901, Control_c, 3, 11, 85
9, 376920, Note_on_c, 3, 64, 92
9, 376920, Note_on_c, 3, 55, 92
9, 376963, Control_c, 3, 11, 84
9, 377026, Control_c, 3, 11, 83
9, 377088, Control_c, 3, 11, 82
9, 377099, Note_on_c, 3, 64, 0
9, 377099, Note_on_c, 3, 55, 0
9, 377150, Control_c, 3, 11, 81
9, 377160, Note_on_c, 3, 62, 92
9, 377160, Note_on_c, 3, 54, 92
9, 377213, Control_c, 3, 11, 80
9, 377275, Control_c, 3, 11, 79
9, 377338, Control_c, 3, 11, 78
9, 377399, Note_on_c, 3, 62, 0
9, 377399, Note_on_c, 3, 54, 0
9, 377400, Note_on_c, 3, 59, 92
9, 377400, Note_on_c, 3, 55, 92
9, 377400, Control_c, 3, 11, 77
9, 377462, Control_c, 3, 11, 76
9, 377525, Control_c, 3, 11, 75
9, 377587, Control_c, 3, 11, 74
9, 377650, Control_c, 3, 11, 73
9, 377712, Control_c, 3, 11, 72
9, 377774, Control_c, 3, 11, 71
9, 377837, Control_c, 3, 11, 70
9, 377899, Control_c, 3, 11, 69
9, 377962, Control_c, 3, 11, 68
9, 378024, Control_c, 3, 11, 67
9, 378086, Control_c, 3, 11, 66
9, 378099, Note_on_c, 3, 59, 0
9, 378099, Note_on_c, 3, 55, 0
9, 378120, Note_on_c, 3, 54, 92
9, 378120, Note_on_c, 3, 57, 92
9, 378149, Control_c, 3, 11, 65
9, 378211, Control_c, 3, 11, 64
9, 378274, Control_c, 3, 11, 63
9, 378336, Control_c, 3, 11, 62
9, 378359, Note_on_c, 3, 54, 0
9, 378359, Note_on_c, 3, 57, 0
9, 378360, Note_on_c, 3, 59, 92
9, 378360, Note_on_c, 3, 55, 92
9, 378398, Control_c, 3, 11, 61
9, 378461, Control_c, 3, 11, 60
9, 378523, Control_c, 3, 11, 59
9, 378586, Control_c, 3, 11, 58
9, 378648, Control_c, 3, 11, 57
9, 378710, Control_c, 3, 11, 56
9, 378773, Control_c, 3, 11, 55
9, 378835, Control_c, 3, 11, 54
9, 378898, Control_c, 3, 11, 53
9, 378960, Control_c, 3, 11, 52
9, 379022, Control_c, 3, 11, 51
9, 379059, Note_on_c, 3, 59, 0
9, 379059, Note_on_c, 3, 55, 0
9, 379080, Note_on_c, 3, 57, 92
9, 379080, Note_on_c, 3, 54, 92
9, 379085, Control_c, 3, 11, 50
9, 379147, Control_c, 3, 11, 49
9, 379210, Control_c, 3, 11, 48
9, 379272, Control_c, 3, 11, 47
9, 379319, Note_on_c, 3, 57, 0
9, 379319, Note_on_c, 3, 54, 0
9, 379320, Note_on_c, 3, 59, 92
9, 379320, Note_on_c, 3, 55, 92
9, 379334, Control_c, 3, 11, 46
9, 379397, Control_c, 3, 11, 45
9, 379459, Control_c, 3, 11, 44
9, 379522, Control_c, 3, 11, 43
9, 379584, Control_c, 3, 11, 42
9, 379646, Control_c, 3, 11, 41
9, 379709, Control_c, 3, 11, 40
9, 379771, Control_c, 3, 11, 39
9, 379834, Control_c, 3, 11, 38
9, 379896, Control_c, 3, 11, 37
9, 379958, Control_c, 3, 11, 36
9, 380021, Control_c, 3, 11, 35
9, 380083, Control_c, 3, 11, 34
9, 380146, Control_c, 3, 11, 33
9, 380208, Control_c, 3, 11, 32
9, 380270, Control_c, 3, 11, 31
9, 380333, Control_c, 3, 11, 30
9, 380395, Control_c, 3, 11, 29
9, 380458, Control_c, 3, 11, 28
9, 380499, Note_on_c, 3, 59, 0
9, 380499, Note_on_c, 3, 55, 0
9, 380520, Note_on_c, 3, 55, 92
9, 380520, Note_on_c, 3, 58, 92
9, 381209, Note_on_c, 3, 55, 0
9, 381209, Note_on_c, 3, 58, 0
9, 381600, Control_c, 3, 11, 127
9, 383040, Note_on_c, 3, 50, 92
9, 383204, Note_on_c, 3, 50, 0
9, 383220, Note_on_c, 3, 38, 92
9, 383264, Note_on_c, 3, 38, 0
9, 383280, Note_on_c, 3, 38, 92
9, 383399, Note_on_c, 3, 38, 0
9, 387000, Note_on_c, 3, 69, 32
9, 387119, Note_on_c, 3, 69, 0
9, 387360, Note_on_c, 3, 62, 32
9, 387479, Note_on_c, 3, 62, 0
9, 387720, Note_on_c, 3, 64, 32
9, 387839, Note_on_c, 3, 64, 0
9, 388080, Note_on_c, 3, 65, 32
9, 388199, Note_on_c, 3, 65, 0
9, 388440, Note_on_c, 3, 65, 32
9, 388559, Note_on_c, 3, 65, 0
9, 388800, Note_on_c, 3, 60, 32
9, 388919, Note_on_c, 3, 60, 0
9, 389160, Note_on_c, 3, 56, 32
9, 389279, Note_on_c, 3, 56, 0
9, 389520, Note_on_c, 3, 57, 32
9, 389639, Note_on_c, 3, 57, 0
9, 389880, Note_on_c, 3, 45, 32
9, 389880, Note_on_c, 3, 57, 32
9, 389999, Note_on_c, 3, 45, 0
9, 389999, Note_on_c, 3, 57, 0
9, 390240, Note_on_c, 3, 50, 32
9, 390240, Note_on_c, 3, 38, 32
9, 390359, Note_on_c, 3, 50, 0
9, 390359, Note_on_c, 3, 38, 0
9, 390600, Note_on_c, 3, 52, 32
9, 390600, Note_on_c, 3, 40, 32
9, 390719, Note_on_c, 3, 52, 0
9, 390719, Note_on_c, 3, 40, 0
9, 390960, Note_on_c, 3, 53, 32
9, 390960, Note_on_c, 3, 41, 32
9, 391079, Note_on_c, 3, 53, 0
9, 391079, Note_on_c, 3, 41, 0
9, 391320, Note_on_c, 3, 53, 32
9, 391320, Note_on_c, 3, 41, 32
9, 391439, Note_on_c, 3, 53, 0
9, 391439, Note_on_c, 3, 41, 0
9, 391680, Note_on_c, 3, 36, 32
9, 391680, Note_on_c, 3, 48, 32
9, 391799, Note_on_c, 3, 36, 0
9, 391799, Note_on_c, 3, 48, 0
9, 392040, Note_on_c, 3, 44, 32
9, 392159, Note_on_c, 3, 44, 0
9, 392400, Note_on_c, 3, 45, 32
9, 392519, Note_on_c, 3, 45, 0
9, 392760, Note_on_c, 3, 58, 32
9, 392760, Note_on_c, 3, 55, 32
9, 392879, Note_on_c, 3, 58, 0
9, 392879, Note_on_c, 3, 55, 0
9, 393120, Note_on_c, 3, 53, 32
9, 393120, Note_on_c, 3, 57, 32
9, 393239, Note_on_c, 3, 53, 0
9, 393239, Note_on_c, 3, 57, 0
9, 393480, Note_on_c, 3, 52, 32
9, 393480, Note_on_c, 3, 49, 32
9, 393599, Note_on_c, 3, 52, 0
9, 393599, Note_on_c, 3, 49, 0
9, 393840, Note_on_c, 3, 50, 32
9, 393840, Note_on_c, 3, 53, 32
9, 393959, Note_on_c, 3, 50, 0
9, 393959, Note_on_c, 3, 53, 0
9, 394200, Note_on_c, 3, 53, 32
9, 394200, Note_on_c, 3, 45, 32
9, 394319, Note_on_c, 3, 53, 0
9, 394319, Note_on_c, 3, 45, 0
9, 394560, Note_on_c, 3, 52, 32
9, 394560, Note_on_c, 3, 57, 32
9, 394679, Note_on_c, 3, 52, 0
9, 394679, Note_on_c, 3, 57, 0
9, 394920, Note_on_c, 3, 53, 32
9, 394920, Note_on_c, 3, 50, 32
9, 395039, Note_on_c, 3, 53, 0
9, 395039, Note_on_c, 3, 50, 0
9, 395280, Note_on_c, 3, 45, 32
9, 395280, Note_on_c, 3, 52, 32
9, 395399, Note_on_c, 3, 45, 0
9, 395399, Note_on_c, 3, 52, 0
9, 395640, Note_on_c, 3, 55, 32
9, 395640, Note_on_c, 3, 52, 32
9, 395759, Note_on_c, 3, 55, 0
9, 395759, Note_on_c, 3, 52, 0
9, 396000, Note_on_c, 3, 53, 32
9, 396000, Note_on_c, 3, 50, 32
9, 396119, Note_on_c, 3, 53, 0
9, 396119, Note_on_c, 3, 50, 0
9, 396360, Note_on_c, 3, 45, 32
9, 396360, Note_on_c, 3, 52, 32
9, 396479, Note_on_c, 3, 45, 0
9, 396479, Note_on_c, 3, 52, 0
9, 396720, Note_on_c, 3, 57, 32
9, 396720, Note_on_c, 3, 45, 32
9, 396839, Note_on_c, 3, 57, 0
9, 396839, Note_on_c, 3, 45, 0
9, 397320, Note_on_c, 3, 55, 32
9, 397320, Note_on_c, 3, 52, 32
9, 397439, Note_on_c, 3, 55, 0
9, 397439, Note_on_c, 3, 52, 0
9, 397680, Note_on_c, 3, 57, 37
9, 397680, Note_on_c, 3, 53, 37
9, 397799, Note_on_c, 3, 57, 0
9, 397799, Note_on_c, 3, 53, 0
9, 398040, Note_on_c, 3, 52, 42
9, 398040, Note_on_c, 3, 55, 42
9, 398159, Note_on_c, 3, 52, 0
9, 398159, Note_on_c, 3, 55, 0
9, 398400, Note_on_c, 3, 53, 47
9, 398400, Note_on_c, 3, 57, 47
9, 398519, Note_on_c, 3, 53, 0
9, 398519, Note_on_c, 3, 57, 0
9, 398760, Note_on_c, 3, 55, 53
9, 398760, Note_on_c, 3, 52, 53
9, 398879, Note_on_c, 3, 55, 0
9, 398879, Note_on_c, 3, 52, 0
9, 399120, Note_on_c, 3, 57, 58
9, 399120, Note_on_c, 3, 53, 58
9, 399239, Note_on_c, 3, 57, 0
9, 399239, Note_on_c, 3, 53, 0
9, 399480, Note_on_c, 3, 55, 63
9, 399480, Note_on_c, 3, 52, 63
9, 399599, Note_on_c, 3, 55, 0
9, 399599, Note_on_c, 3, 52, 0
9, 399840, Note_on_c, 3, 53, 69
9, 399840, Note_on_c, 3, 57, 69
9, 399959, Note_on_c, 3, 53, 0
9, 399959, Note_on_c, 3, 57, 0
9, 400200, Note_on_c, 3, 55, 74
9, 400200, Note_on_c, 3, 52, 74
9, 400319, Note_on_c, 3, 55, 0
9, 400319, Note_on_c, 3, 52, 0
9, 400560, Note_on_c, 3, 57, 79
9, 400560, Note_on_c, 3, 53, 79
9, 400664, Note_on_c, 3, 57, 0
9, 400664, Note_on_c, 3, 53, 0
9, 400680, Note_on_c, 3, 55, 82
9, 400680, Note_on_c, 3, 57, 82
9, 400769, Note_on_c, 3, 55, 0
9, 400769, Note_on_c, 3, 57, 0
9, 400800, Note_on_c, 3, 53, 83
9, 400800, Note_on_c, 3, 57, 83
9, 400889, Note_on_c, 3, 53, 0
9, 400889, Note_on_c, 3, 57, 0
9, 400920, Note_on_c, 3, 57, 85
9, 400920, Note_on_c, 3, 52, 85
9, 401009, Note_on_c, 3, 57, 0
9, 401009, Note_on_c, 3, 52, 0
9, 401040, Note_on_c, 3, 55, 87
9, 401040, Note_on_c, 3, 64, 87
9, 401129, Note_on_c, 3, 55, 0
9, 401129, Note_on_c, 3, 64, 0
9, 401160, Note_on_c, 3, 53, 88
9, 401160, Note_on_c, 3, 62, 88
9, 401249, Note_on_c, 3, 53, 0
9, 401249, Note_on_c, 3, 62, 0
9, 401280, Note_on_c, 3, 52, 90
9, 401280, Note_on_c, 3, 61, 90
9, 401369, Note_on_c, 3, 52, 0
9, 401369, Note_on_c, 3, 61, 0
9, 401400, Note_on_c, 3, 57, 92
9, 401400, Note_on_c, 3, 53, 92
9, 401504, Note_on_c, 3, 57, 0
9, 401504, Note_on_c, 3, 53, 0
9, 401520, Note_on_c, 3, 65, 92
9, 401520, Note_on_c, 3, 62, 92
9, 401624, Note_on_c, 3, 65, 0
9, 401624, Note_on_c, 3, 62, 0
9, 401640, Note_on_c, 3, 62, 92
9, 401640, Note_on_c, 3, 65, 92
9, 401744, Note_on_c, 3, 62, 0
9, 401744, Note_on_c, 3, 65, 0
9, 401760, Note_on_c, 3, 65, 92
9, 401760, Note_on_c, 3, 62, 92
9, 401864, Note_on_c, 3, 65, 0
9, 401864, Note_on_c, 3, 62, 0
9, 401880, Note_on_c, 3, 65, 92
9, 401880, Note_on_c, 3, 62, 92
9, 401984, Note_on_c, 3, 65, 0
9, 401984, Note_on_c, 3, 62, 0
9, 402000, Note_on_c, 3, 65, 92
9, 402000, Note_on_c, 3, 62, 92
9, 402104, Note_on_c, 3, 65, 0
9, 402104, Note_on_c, 3, 62, 0
9, 402120, Note_on_c, 3, 61, 92
9, 402120, Note_on_c, 3, 64, 92
9, 402224, Note_on_c, 3, 61, 0
9, 402224, Note_on_c, 3, 64, 0
9, 402240, Note_on_c, 3, 62, 92
9, 402240, Note_on_c, 3, 65, 92
9, 402344, Note_on_c, 3, 62, 0
9, 402344, Note_on_c, 3, 65, 0
9, 402360, Note_on_c, 3, 61, 92
9, 402360, Note_on_c, 3, 64, 92
9, 402464, Note_on_c, 3, 61, 0
9, 402464, Note_on_c, 3, 64, 0
9, 402480, Note_on_c, 3, 62, 92
9, 402480, Note_on_c, 3, 65, 92
9, 402584, Note_on_c, 3, 62, 0
9, 402584, Note_on_c, 3, 65, 0
9, 402600, Note_on_c, 3, 65, 92
9, 402600, Note_on_c, 3, 62, 92
9, 402704, Note_on_c, 3, 65, 0
9, 402704, Note_on_c, 3, 62, 0
9, 402720, Note_on_c, 3, 62, 92
9, 402720, Note_on_c, 3, 65, 92
9, 402824, Note_on_c, 3, 62, 0
9, 402824, Note_on_c, 3, 65, 0
9, 402840, Note_on_c, 3, 55, 80
9, 402840, Note_on_c, 3, 62, 80
9, 402944, Note_on_c, 3, 55, 0
9, 402944, Note_on_c, 3, 62, 0
9, 402960, Note_on_c, 3, 62, 80
9, 402960, Note_on_c, 3, 57, 80
9, 403064, Note_on_c, 3, 62, 0
9, 403064, Note_on_c, 3, 57, 0
9, 403080, Note_on_c, 3, 62, 80
9, 403080, Note_on_c, 3, 58, 80
9, 403184, Note_on_c, 3, 62, 0
9, 403184, Note_on_c, 3, 58, 0
9, 403200, Note_on_c, 3, 62, 80
9, 403200, Note_on_c, 3, 57, 80
9, 403304, Note_on_c, 3, 62, 0
9, 403304, Note_on_c, 3, 57, 0
9, 403320, Note_on_c, 3, 64, 80
9, 403320, Note_on_c, 3, 57, 80
9, 403424, Note_on_c, 3, 64, 0
9, 403424, Note_on_c, 3, 57, 0
9, 403440, Note_on_c, 3, 65, 80
9, 403440, Note_on_c, 3, 57, 80
9, 403544, Note_on_c, 3, 65, 0
9, 403544, Note_on_c, 3, 57, 0
9, 403560, Note_on_c, 3, 67, 80
9, 403560, Note_on_c, 3, 64, 80
9, 403664, Note_on_c, 3, 67, 0
9, 403664, Note_on_c, 3, 64, 0
9, 403680, Note_on_c, 3, 65, 80
9, 403680, Note_on_c, 3, 62, 80
9, 403784, Note_on_c, 3, 65, 0
9, 403784, Note_on_c, 3, 62, 0
9, 403800, Note_on_c, 3, 64, 80
9, 403800, Note_on_c, 3, 61, 80
9, 403904, Note_on_c, 3, 64, 0
9, 403904, Note_on_c, 3, 61, 0
9, 403920, Note_on_c, 3, 65, 80
9, 403920, Note_on_c, 3, 62, 80
9, 404024, Note_on_c, 3, 65, 0
9, 404024, Note_on_c, 3, 62, 0
9, 404040, Note_on_c, 3, 64, 80
9, 404040, Note_on_c, 3, 67, 80
9, 404144, Note_on_c, 3, 64, 0
9, 404144, Note_on_c, 3, 67, 0
9, 404160, Note_on_c, 3, 62, 80
9, 404160, Note_on_c, 3, 65, 80
9, 404264, Note_on_c, 3, 62, 0
9, 404264, Note_on_c, 3, 65, 0
9, 404280, Note_on_c, 3, 55, 80
9, 404384, Note_on_c, 3, 55, 0
9, 404400, Note_on_c, 3, 57, 80
9, 404504, Note_on_c, 3, 57, 0
9, 404520, Note_on_c, 3, 58, 80
9, 404624, Note_on_c, 3, 58, 0
9, 404640, Note_on_c, 3, 62, 80
9, 404744, Note_on_c, 3, 62, 0
9, 404760, Note_on_c, 3, 64, 80
9, 404864, Note_on_c, 3, 64, 0
9, 404880, Note_on_c, 3, 65, 80
9, 404984, Note_on_c, 3, 65, 0
9, 405000, Note_on_c, 3, 64, 80
9, 405000, Note_on_c, 3, 67, 80
9, 405104, Note_on_c, 3, 64, 0
9, 405104, Note_on_c, 3, 67, 0
9, 405120, Note_on_c, 3, 65, 80
9, 405120, Note_on_c, 3, 62, 80
9, 405224, Note_on_c, 3, 65, 0
9, 405224, Note_on_c, 3, 62, 0
9, 405240, Note_on_c, 3, 61, 80
9, 405240, Note_on_c, 3, 64, 80
9, 405344, Note_on_c, 3, 61, 0
9, 405344, Note_on_c, 3, 64, 0
9, 405360, Note_on_c, 3, 62, 80
9, 405360, Note_on_c, 3, 65, 80
9, 405464, Note_on_c, 3, 62, 0
9, 405464, Note_on_c, 3, 65, 0
9, 405480, Note_on_c, 3, 57, 80
9, 405480, Note_on_c, 3, 65, 80
9, 405584, Note_on_c, 3, 57, 0
9, 405584, Note_on_c, 3, 65, 0
9, 405600, Note_on_c, 3, 65, 80
9, 405600, Note_on_c, 3, 59, 80
9, 405704, Note_on_c, 3, 65, 0
9, 405704, Note_on_c, 3, 59, 0
9, 405720, Note_on_c, 3, 65, 80
9, 405720, Note_on_c, 3, 59, 80
9, 405824, Note_on_c, 3, 65, 0
9, 405824, Note_on_c, 3, 59, 0
9, 405840, Note_on_c, 3, 62, 80
9, 405840, Note_on_c, 3, 59, 80
9, 405944, Note_on_c, 3, 62, 0
9, 405944, Note_on_c, 3, 59, 0
9, 405960, Note_on_c, 3, 59, 80
9, 405960, Note_on_c, 3, 62, 80
9, 406064, Note_on_c, 3, 59, 0
9, 406064, Note_on_c, 3, 62, 0
9, 406080, Note_on_c, 3, 64, 80
9, 406080, Note_on_c, 3, 60, 80
9, 406184, Note_on_c, 3, 64, 0
9, 406184, Note_on_c, 3, 60, 0
9, 406200, Note_on_c, 3, 62, 80
9, 406200, Note_on_c, 3, 65, 80
9, 406304, Note_on_c, 3, 62, 0
9, 406304, Note_on_c, 3, 65, 0
9, 406320, Note_on_c, 3, 64, 80
9, 406320, Note_on_c, 3, 67, 80
9, 406424, Note_on_c, 3, 64, 0
9, 406424, Note_on_c, 3, 67, 0
9, 406440, Note_on_c, 3, 65, 80
9, 406440, Note_on_c, 3, 62, 80
9, 406544, Note_on_c, 3, 65, 0
9, 406544, Note_on_c, 3, 62, 0
9, 406560, Note_on_c, 3, 60, 80
9, 406560, Note_on_c, 3, 64, 80
9, 406664, Note_on_c, 3, 60, 0
9, 406664, Note_on_c, 3, 64, 0
9, 406680, Note_on_c, 3, 59, 80
9, 406680, Note_on_c, 3, 65, 80
9, 406784, Note_on_c, 3, 59, 0
9, 406784, Note_on_c, 3, 65, 0
9, 406800, Note_on_c, 3, 64, 80
9, 406800, Note_on_c, 3, 60, 80
9, 406904, Note_on_c, 3, 64, 0
9, 406904, Note_on_c, 3, 60, 0
9, 406920, Note_on_c, 3, 65, 80
9, 406920, Note_on_c, 3, 59, 80
9, 407024, Note_on_c, 3, 65, 0
9, 407024, Note_on_c, 3, 59, 0
9, 407040, Note_on_c, 3, 59, 80
9, 407040, Note_on_c, 3, 65, 80
9, 407144, Note_on_c, 3, 59, 0
9, 407144, Note_on_c, 3, 65, 0
9, 407160, Note_on_c, 3, 65, 80
9, 407160, Note_on_c, 3, 59, 80
9, 407264, Note_on_c, 3, 65, 0
9, 407264, Note_on_c, 3, 59, 0
9, 407280, Note_on_c, 3, 59, 80
9, 407280, Note_on_c, 3, 62, 80
9, 407384, Note_on_c, 3, 59, 0
9, 407384, Note_on_c, 3, 62, 0
9, 407400, Note_on_c, 3, 59, 80
9, 407400, Note_on_c, 3, 62, 80
9, 407504, Note_on_c, 3, 59, 0
9, 407504, Note_on_c, 3, 62, 0
9, 407520, Note_on_c, 3, 60, 80
9, 407520, Note_on_c, 3, 64, 80
9, 407624, Note_on_c, 3, 60, 0
9, 407624, Note_on_c, 3, 64, 0
9, 407640, Note_on_c, 3, 62, 80
9, 407640, Note_on_c, 3, 65, 80
9, 407744, Note_on_c, 3, 62, 0
9, 407744, Note_on_c, 3, 65, 0
9, 407760, Note_on_c, 3, 67, 80
9, 407760, Note_on_c, 3, 64, 80
9, 407864, Note_on_c, 3, 67, 0
9, 407864, Note_on_c, 3, 64, 0
9, 407880, Note_on_c, 3, 60, 80
9, 407880, Note_on_c, 3, 64, 80
9, 407984, Note_on_c, 3, 60, 0
9, 407984, Note_on_c, 3, 64, 0
9, 408000, Note_on_c, 3, 65, 80
9, 408000, Note_on_c, 3, 62, 80
9, 408104, Note_on_c, 3, 65, 0
9, 408104, Note_on_c, 3, 62, 0
9, 408120, Note_on_c, 3, 67, 80
9, 408120, Note_on_c, 3, 64, 80
9, 408224, Note_on_c, 3, 67, 0
9, 408224, Note_on_c, 3, 64, 0
9, 408240, Note_on_c, 3, 64, 80
9, 408240, Note_on_c, 3, 60, 80
9, 408344, Note_on_c, 3, 64, 0
9, 408344, Note_on_c, 3, 60, 0
9, 408360, Note_on_c, 3, 62, 80
9, 408360, Note_on_c, 3, 65, 80
9, 408464, Note_on_c, 3, 62, 0
9, 408464, Note_on_c, 3, 65, 0
9, 408480, Note_on_c, 3, 64, 80
9, 408480, Note_on_c, 3, 67, 80
9, 408584, Note_on_c, 3, 64, 0
9, 408584, Note_on_c, 3, 67, 0
9, 408600, Note_on_c, 3, 67, 80
9, 408600, Note_on_c, 3, 55, 80
9, 408660, Control_c, 3, 11, 67
9, 408960, Control_c, 3, 11, 67
9, 408999, Control_c, 3, 11, 68
9, 409038, Control_c, 3, 11, 69
9, 409077, Control_c, 3, 11, 70
9, 409116, Control_c, 3, 11, 71
9, 409155, Control_c, 3, 11, 72
9, 409194, Control_c, 3, 11, 73
9, 409233, Control_c, 3, 11, 74
9, 409272, Control_c, 3, 11, 75
9, 409304, Note_on_c, 3, 67, 0
9, 409304, Note_on_c, 3, 55, 0
9, 409311, Control_c, 3, 11, 76
9, 409320, Note_on_c, 3, 53, 80
9, 409320, Note_on_c, 3, 65, 80
9, 409350, Control_c, 3, 11, 77
9, 409389, Control_c, 3, 11, 78
9, 409428, Control_c, 3, 11, 79
9, 409467, Control_c, 3, 11, 80
9, 409506, Control_c, 3, 11, 81
9, 409545, Control_c, 3, 11, 82
9, 409584, Control_c, 3, 11, 83
9, 409623, Control_c, 3, 11, 84
9, 409662, Control_c, 3, 11, 85
9, 409679, Note_on_c, 3, 53, 0
9, 409679, Note_on_c, 3, 65, 0
9, 409680, Note_on_c, 3, 62, 80
9, 409680, Note_on_c, 3, 50, 80
9, 409701, Control_c, 3, 11, 86
9, 409740, Control_c, 3, 11, 87
9, 409779, Control_c, 3, 11, 88
9, 409818, Control_c, 3, 11, 89
9, 409857, Control_c, 3, 11, 90
9, 409896, Control_c, 3, 11, 91
9, 409935, Control_c, 3, 11, 92
9, 409974, Control_c, 3, 11, 93
9, 410013, Control_c, 3, 11, 94
9, 410039, Note_on_c, 3, 62, 0
9, 410039, Note_on_c, 3, 50, 0
9, 410040, Note_on_c, 3, 47, 80
9, 410040, Note_on_c, 3, 59, 80
9, 410052, Control_c, 3, 11, 95
9, 410091, Control_c, 3, 11, 96
9, 410130, Control_c, 3, 11, 97
9, 410169, Control_c, 3, 11, 98
9, 410208, Control_c, 3, 11, 99
9, 410247, Control_c, 3, 11, 100
9, 410286, Control_c, 3, 11, 101
9, 410325, Control_c, 3, 11, 102
9, 410364, Control_c, 3, 11, 103
9, 410399, Note_on_c, 3, 47, 0
9, 410399, Note_on_c, 3, 59, 0
9, 410400, Note_on_c, 3, 60, 80
9, 410400, Note_on_c, 3, 48, 80
9, 410403, Control_c, 3, 11, 104
9, 410442, Control_c, 3, 11, 105
9, 410481, Control_c, 3, 11, 106
9, 410520, Control_c, 3, 11, 107
9, 410550, Control_c, 3, 11, 105
9, 410580, Control_c, 3, 11, 104
9, 410610, Control_c, 3, 11, 102
9, 410640, Control_c, 3, 11, 100
9, 410670, Control_c, 3, 11, 99
9, 410700, Control_c, 3, 11, 97
9, 410730, Control_c, 3, 11, 95
9, 410759, Note_on_c, 3, 60, 0
9, 410759, Note_on_c, 3, 48, 0
9, 410760, Note_on_c, 3, 55, 80
9, 410760, Note_on_c, 3, 67, 80
9, 410760, Control_c, 3, 11, 94
9, 410790, Control_c, 3, 11, 92
9, 410820, Control_c, 3, 11, 90
9, 410850, Control_c, 3, 11, 89
9, 410880, Control_c, 3, 11, 87
9, 410910, Control_c, 3, 11, 85
9, 410940, Control_c, 3, 11, 84
9, 410970, Control_c, 3, 11, 82
9, 411000, Control_c, 3, 11, 80
9, 411030, Control_c, 3, 11, 79
9, 411060, Control_c, 3, 11, 77
9, 411090, Control_c, 3, 11, 75
9, 411119, Note_on_c, 3, 55, 0
9, 411119, Note_on_c, 3, 67, 0
9, 411120, Note_on_c, 3, 43, 80
9, 411120, Note_on_c, 3, 55, 80
9, 411120, Control_c, 3, 11, 74
9, 411150, Control_c, 3, 11, 72
9, 411180, Control_c, 3, 11, 70
9, 411210, Control_c, 3, 11, 69
9, 411238, Control_c, 3, 11, 49
9, 411464, Note_on_c, 3, 43, 0
9, 411464, Note_on_c, 3, 55, 0
9, 411480, Control_c, 3, 11, 49
9, 411480, Note_on_c, 3, 67, 92
9, 411517, Control_c, 3, 11, 50
9, 411554, Control_c, 3, 11, 51
9, 411591, Control_c, 3, 11, 52
9, 411628, Control_c, 3, 11, 53
9, 411665, Control_c, 3, 11, 54
9, 411702, Control_c, 3, 11, 55
9, 411738, Control_c, 3, 11, 56
9, 411775, Control_c, 3, 11, 57
9, 411812, Control_c, 3, 11, 58
9, 411840, Note_on_c, 3, 60, 92
9, 411849, Control_c, 3, 11, 59
9, 411886, Control_c, 3, 11, 60
9, 411923, Control_c, 3, 11, 61
9, 411960, Control_c, 3, 11, 62
9, 411997, Control_c, 3, 11, 63
9, 412034, Control_c, 3, 11, 64
9, 412071, Control_c, 3, 11, 65
9, 412108, Control_c, 3, 11, 66
9, 412145, Control_c, 3, 11, 67
9, 412182, Control_c, 3, 11, 68
9, 412199, Note_on_c, 3, 60, 0
9, 412200, Note_on_c, 3, 53, 92
9, 412218, Control_c, 3, 11, 69
9, 412255, Control_c, 3, 11, 70
9, 412292, Control_c, 3, 11, 71
9, 412329, Control_c, 3, 11, 72
9, 412366, Control_c, 3, 11, 73
9, 412403, Control_c, 3, 11, 74
9, 412440, Control_c, 3, 11, 75
9, 412477, Control_c, 3, 11, 76
9, 412514, Control_c, 3, 11, 77
9, 412551, Control_c, 3, 11, 78
9, 412559, Note_on_c, 3, 67, 0
9, 412559, Note_on_c, 3, 53, 0
9, 412560, Note_on_c, 3, 65, 92
9, 412560, Note_on_c, 3, 50, 92
9, 412588, Control_c, 3, 11, 79
9, 412625, Control_c, 3, 11, 80
9, 412662, Control_c, 3, 11, 81
9, 412698, Control_c, 3, 11, 82
9, 412735, Control_c, 3, 11, 83
9, 412772, Control_c, 3, 11, 84
9, 412809, Control_c, 3, 11, 85
9, 412846, Control_c, 3, 11, 86
9, 412883, Control_c, 3, 11, 87
9, 412919, Note_on_c, 3, 50, 0
9, 412920, Control_c, 3, 11, 88
9, 412920, Note_on_c, 3, 55, 92
9, 412957, Control_c, 3, 11, 89
9, 412994, Control_c, 3, 11, 90
9, 413031, Control_c, 3, 11, 91
9, 413068, Control_c, 3, 11, 92
9, 413105, Control_c, 3, 11, 93
9, 413142, Control_c, 3, 11, 94
9, 413178, Control_c, 3, 11, 95
9, 413215, Control_c, 3, 11, 96
9, 413252, Control_c, 3, 11, 97
9, 413279, Note_on_c, 3, 65, 0
9, 413279, Note_on_c, 3, 55, 0
9, 413280, Note_on_c, 3, 60, 92
9, 413280, Note_on_c, 3, 64, 92
9, 413289, Control_c, 3, 11, 98
9, 413326, Control_c, 3, 11, 99
9, 413363, Control_c, 3, 11, 100
9, 413400, Control_c, 3, 11, 101
9, 413437, Control_c, 3, 11, 102
9, 413474, Control_c, 3, 11, 103
9, 413511, Control_c, 3, 11, 104
9, 413548, Control_c, 3, 11, 105
9, 413585, Control_c, 3, 11, 106
9, 413622, Control_c, 3, 11, 107
9, 413639, Note_on_c, 3, 60, 0
9, 413639, Note_on_c, 3, 64, 0
9, 413640, Note_on_c, 3, 55, 92
9, 413640, Note_on_c, 3, 63, 92
9, 413658, Control_c, 3, 11, 108
9, 413695, Control_c, 3, 11, 109
9, 413732, Control_c, 3, 11, 110
9, 413769, Control_c, 3, 11, 111
9, 413806, Control_c, 3, 11, 112
9, 413843, Control_c, 3, 11, 113
9, 413880, Control_c, 3, 11, 114
9, 413917, Control_c, 3, 11, 115
9, 413954, Control_c, 3, 11, 116
9, 413991, Control_c, 3, 11, 117
9, 413999, Note_on_c, 3, 55, 0
9, 413999, Note_on_c, 3, 63, 0
9, 414000, Note_on_c, 3, 43, 92
9, 414000, Note_on_c, 3, 67, 92
9, 414028, Control_c, 3, 11, 118
9, 414065, Control_c, 3, 11, 119
9, 414102, Control_c, 3, 11, 120
9, 414138, Control_c, 3, 11, 121
9, 414175, Control_c, 3, 11, 122
9, 414212, Control_c, 3, 11, 123
9, 414249, Control_c, 3, 11, 124
9, 414286, Control_c, 3, 11, 125
9, 414323, Control_c, 3, 11, 127
9, 414344, Note_on_c, 3, 43, 0
9, 414344, Note_on_c, 3, 67, 0
9, 414360, Note_on_c, 3, 60, 92
9, 414360, Note_on_c, 3, 48, 92
9, 414479, Note_on_c, 3, 48, 0
9, 414480, Note_on_c, 3, 52, 92
9, 414599, Note_on_c, 3, 60, 0
9, 414599, Note_on_c, 3, 52, 0
9, 414600, Note_on_c, 3, 62, 92
9, 414600, Note_on_c, 3, 53, 92
9, 414659, Note_on_c, 3, 62, 0
9, 414659, Note_on_c, 3, 53, 0
9, 414660, Note_on_c, 3, 55, 92
9, 414660, Note_on_c, 3, 64, 92
9, 414704, Note_on_c, 3, 55, 0
9, 414704, Note_on_c, 3, 64, 0
9, 414720, Note_on_c, 3, 57, 92
9, 414720, Note_on_c, 3, 65, 92
9, 414839, Note_on_c, 3, 57, 0
9, 414839, Note_on_c, 3, 65, 0
9, 414960, Note_on_c, 3, 64, 92
9, 414960, Note_on_c, 3, 55, 92
9, 415049, Note_on_c, 3, 64, 0
9, 415049, Note_on_c, 3, 55, 0
9, 415080, Note_on_c, 3, 53, 92
9, 415080, Note_on_c, 3, 62, 92
9, 415169, Note_on_c, 3, 53, 0
9, 415169, Note_on_c, 3, 62, 0
9, 415320, Note_on_c, 3, 52, 92
9, 415320, Note_on_c, 3, 60, 92
9, 415409, Note_on_c, 3, 52, 0
9, 415409, Note_on_c, 3, 60, 0
9, 415440, Note_on_c, 3, 62, 92
9, 415440, Note_on_c, 3, 53, 92
9, 415529, Note_on_c, 3, 62, 0
9, 415529, Note_on_c, 3, 53, 0
9, 415680, Note_on_c, 3, 59, 92
9, 415680, Note_on_c, 3, 50, 92
9, 415769, Note_on_c, 3, 59, 0
9, 415769, Note_on_c, 3, 50, 0
9, 415800, Note_on_c, 3, 60, 92
9, 415800, Note_on_c, 3, 64, 92
9, 415919, Note_on_c, 3, 60, 0
9, 415919, Note_on_c, 3, 64, 0
9, 415920, Note_on_c, 3, 52, 92
9, 415920, Note_on_c, 3, 48, 92
9, 416039, Note_on_c, 3, 52, 0
9, 416039, Note_on_c, 3, 48, 0
9, 416040, Note_on_c, 3, 53, 92
9, 416040, Note_on_c, 3, 50, 92
9, 416099, Note_on_c, 3, 53, 0
9, 416099, Note_on_c, 3, 50, 0
9, 416100, Note_on_c, 3, 52, 92
9, 416100, Note_on_c, 3, 55, 92
9, 416144, Note_on_c, 3, 52, 0
9, 416144, Note_on_c, 3, 55, 0
9, 416160, Note_on_c, 3, 57, 92
9, 416160, Note_on_c, 3, 53, 92
9, 416249, Note_on_c, 3, 57, 0
9, 416249, Note_on_c, 3, 53, 0
9, 416400, Note_on_c, 3, 55, 92
9, 416400, Note_on_c, 3, 52, 92
9, 416489, Note_on_c, 3, 55, 0
9, 416489, Note_on_c, 3, 52, 0
9, 416520, Note_on_c, 3, 53, 92
9, 416520, Note_on_c, 3, 50, 92
9, 416609, Note_on_c, 3, 53, 0
9, 416609, Note_on_c, 3, 50, 0
9, 416760, Note_on_c, 3, 52, 92
9, 416760, Note_on_c, 3, 48, 92
9, 416849, Note_on_c, 3, 52, 0
9, 416849, Note_on_c, 3, 48, 0
9, 416880, Note_on_c, 3, 50, 92
9, 416880, Note_on_c, 3, 53, 92
9, 416969, Note_on_c, 3, 50, 0
9, 416969, Note_on_c, 3, 53, 0
9, 417120, Note_on_c, 3, 59, 92
9, 417120, Note_on_c, 3, 50, 92
9, 417209, Note_on_c, 3, 59, 0
9, 417209, Note_on_c, 3, 50, 0
9, 417240, Note_on_c, 3, 48, 92
9, 417240, Note_on_c, 3, 60, 92
9, 417329, Note_on_c, 3, 48, 0
9, 417329, Note_on_c, 3, 60, 0
9, 417360, Note_on_c, 3, 60, 92
9, 417360, Note_on_c, 3, 52, 92
9, 417479, Note_on_c, 3, 60, 0
9, 417479, Note_on_c, 3, 52, 0
9, 417480, Note_on_c, 3, 53, 92
9, 417480, Note_on_c, 3, 62, 92
9, 417539, Note_on_c, 3, 53, 0
9, 417539, Note_on_c, 3, 62, 0
9, 417540, Note_on_c, 3, 55, 92
9, 417540, Note_on_c, 3, 64, 92
9, 417584, Note_on_c, 3, 55, 0
9, 417584, Note_on_c, 3, 64, 0
9, 417600, Note_on_c, 3, 65, 92
9, 417600, Note_on_c, 3, 57, 92
9, 417689, Note_on_c, 3, 65, 0
9, 417689, Note_on_c, 3, 57, 0
9, 417720, Note_on_c, 3, 57, 92
9, 417720, Note_on_c, 3, 65, 92
9, 417809, Note_on_c, 3, 57, 0
9, 417809, Note_on_c, 3, 65, 0
9, 417840, Note_on_c, 3, 55, 92
9, 417840, Note_on_c, 3, 64, 92
9, 417929, Note_on_c, 3, 55, 0
9, 417929, Note_on_c, 3, 64, 0
9, 417960, Note_on_c, 3, 62, 92
9, 417960, Note_on_c, 3, 53, 92
9, 418049, Note_on_c, 3, 62, 0
9, 418049, Note_on_c, 3, 53, 0
9, 418080, Note_on_c, 3, 53, 92
9, 418080, Note_on_c, 3, 62, 92
9, 418169, Note_on_c, 3, 53, 0
9, 418169, Note_on_c, 3, 62, 0
9, 418200, Note_on_c, 3, 60, 92
9, 418200, Note_on_c, 3, 52, 92
9, 418289, Note_on_c, 3, 60, 0
9, 418289, Note_on_c, 3, 52, 0
9, 418320, Note_on_c, 3, 53, 92
9, 418320, Note_on_c, 3, 62, 92
9, 418409, Note_on_c, 3, 53, 0
9, 418409, Note_on_c, 3, 62, 0
9, 418440, Note_on_c, 3, 53, 92
9, 418440, Note_on_c, 3, 62, 92
9, 418529, Note_on_c, 3, 53, 0
9, 418529, Note_on_c, 3, 62, 0
9, 418560, Note_on_c, 3, 50, 92
9, 418560, Note_on_c, 3, 59, 92
9, 418649, Note_on_c, 3, 50, 0
9, 418649, Note_on_c, 3, 59, 0
9, 418680, Note_on_c, 3, 52, 92
9, 418680, Note_on_c, 3, 48, 92
9, 418769, Note_on_c, 3, 52, 0
9, 418769, Note_on_c, 3, 48, 0
9, 418800, Note_on_c, 3, 48, 92
9, 418800, Note_on_c, 3, 52, 92
9, 418919, Note_on_c, 3, 48, 0
9, 418919, Note_on_c, 3, 52, 0
9, 418920, Note_on_c, 3, 53, 92
9, 418920, Note_on_c, 3, 50, 92
9, 418979, Note_on_c, 3, 53, 0
9, 418979, Note_on_c, 3, 50, 0
9, 418980, Note_on_c, 3, 55, 92
9, 418980, Note_on_c, 3, 52, 92
9, 419024, Note_on_c, 3, 55, 0
9, 419024, Note_on_c, 3, 52, 0
9, 419040, Note_on_c, 3, 57, 92
9, 419040, Note_on_c, 3, 53, 92
9, 419129, Note_on_c, 3, 57, 0
9, 419129, Note_on_c, 3, 53, 0
9, 419160, Note_on_c, 3, 53, 92
9, 419160, Note_on_c, 3, 57, 92
9, 419249, Note_on_c, 3, 53, 0
9, 419249, Note_on_c, 3, 57, 0
9, 419280, Note_on_c, 3, 52, 92
9, 419280, Note_on_c, 3, 55, 92
9, 419369, Note_on_c, 3, 52, 0
9, 419369, Note_on_c, 3, 55, 0
9, 419400, Note_on_c, 3, 50, 92
9, 419400, Note_on_c, 3, 53, 92
9, 419489, Note_on_c, 3, 50, 0
9, 419489, Note_on_c, 3, 53, 0
9, 419520, Note_on_c, 3, 53, 92
9, 419520, Note_on_c, 3, 50, 92
9, 419609, Note_on_c, 3, 53, 0
9, 419609, Note_on_c, 3, 50, 0
9, 419640, Note_on_c, 3, 48, 92
9, 419640, Note_on_c, 3, 52, 92
9, 419729, Note_on_c, 3, 48, 0
9, 419729, Note_on_c, 3, 52, 0
9, 419760, Note_on_c, 3, 53, 92
9, 419760, Note_on_c, 3, 50, 92
9, 419849, Note_on_c, 3, 53, 0
9, 419849, Note_on_c, 3, 50, 0
9, 419880, Note_on_c, 3, 53, 92
9, 419880, Note_on_c, 3, 50, 92
9, 419969, Note_on_c, 3, 53, 0
9, 419969, Note_on_c, 3, 50, 0
9, 420000, Note_on_c, 3, 59, 92
9, 420000, Note_on_c, 3, 50, 92
9, 420089, Note_on_c, 3, 59, 0
9, 420089, Note_on_c, 3, 50, 0
9, 420120, Note_on_c, 3, 60, 92
9, 420120, Note_on_c, 3, 48, 92
9, 420284, Note_on_c, 3, 60, 0
9, 420284, Note_on_c, 3, 48, 0
9, 420300, Note_on_c, 3, 48, 92
9, 420300, Note_on_c, 3, 36, 92
9, 420344, Note_on_c, 3, 48, 0
9, 420344, Note_on_c, 3, 36, 0
9, 420360, Note_on_c, 3, 48, 92
9, 420360, Note_on_c, 3, 36, 92
9, 420464, Note_on_c, 3, 48, 0
9, 420464, Note_on_c, 3, 36, 0
9, 420480, Note_on_c, 3, 48, 92
9, 420480, Note_on_c, 3, 60, 92
9, 420569, Note_on_c, 3, 48, 0
9, 420569, Note_on_c, 3, 60, 0
9, 420600, Note_on_c, 3, 50, 92
9, 420600, Note_on_c, 3, 62, 92
9, 420689, Note_on_c, 3, 50, 0
9, 420689, Note_on_c, 3, 62, 0
9, 420720, Note_on_c, 3, 52, 92
9, 420720, Note_on_c, 3, 64, 92
9, 420809, Note_on_c, 3, 52, 0
9, 420809, Note_on_c, 3, 64, 0
9, 420840, Note_on_c, 3, 65, 92
9, 420840, Note_on_c, 3, 53, 92
9, 420959, Note_on_c, 3, 65, 0
9, 420959, Note_on_c, 3, 53, 0
9, 421560, Note_on_c, 3, 47, 92
9, 421560, Note_on_c, 3, 59, 92
9, 421724, Note_on_c, 3, 47, 0
9, 421724, Note_on_c, 3, 59, 0
9, 421740, Note_on_c, 3, 47, 92
9, 421740, Note_on_c, 3, 35, 92
9, 421784, Note_on_c, 3, 47, 0
9, 421784, Note_on_c, 3, 35, 0
9, 421800, Note_on_c, 3, 47, 92
9, 421800, Note_on_c, 3, 35, 92
9, 421904, Note_on_c, 3, 47, 0
9, 421904, Note_on_c, 3, 35, 0
9, 421920, Note_on_c, 3, 59, 92
9, 421920, Note_on_c, 3, 47, 92
9, 422009, Note_on_c, 3, 59, 0
9, 422009, Note_on_c, 3, 47, 0
9, 422040, Note_on_c, 3, 60, 92
9, 422040, Note_on_c, 3, 48, 92
9, 422129, Note_on_c, 3, 60, 0
9, 422129, Note_on_c, 3, 48, 0
9, 422160, Note_on_c, 3, 62, 92
9, 422160, Note_on_c, 3, 50, 92
9, 422249, Note_on_c, 3, 62, 0
9, 422249, Note_on_c, 3, 50, 0
9, 422280, Note_on_c, 3, 64, 92
9, 422280, Note_on_c, 3, 52, 92
9, 422399, Note_on_c, 3, 64, 0
9, 422399, Note_on_c, 3, 52, 0
9, 422640, Control_c, 3, 11, 87
9, 423000, Note_on_c, 3, 48, 68
9, 423720, Control_c, 3, 11, 87
9, 423750, Control_c, 3, 11, 89
9, 423780, Control_c, 3, 11, 90
9, 423810, Control_c, 3, 11, 92
9, 423840, Control_c, 3, 11, 94
9, 423870, Control_c, 3, 11, 95
9, 423900, Control_c, 3, 11, 97
9, 423930, Control_c, 3, 11, 99
9, 423960, Control_c, 3, 11, 100
9, 423990, Control_c, 3, 11, 102
9, 424020, Control_c, 3, 11, 104
9, 424050, Control_c, 3, 11, 105
9, 424080, Control_c, 3, 11, 107
9, 424110, Control_c, 3, 11, 109
9, 424140, Control_c, 3, 11, 110
9, 424170, Control_c, 3, 11, 112
9, 424200, Control_c, 3, 11, 114
9, 424230, Control_c, 3, 11, 115
9, 424260, Control_c, 3, 11, 117
9, 424290, Control_c, 3, 11, 119
9, 424320, Control_c, 3, 11, 120
9, 424350, Control_c, 3, 11, 122
9, 424380, Control_c, 3, 11, 124
9, 424410, Control_c, 3, 11, 125
9, 424440, Control_c, 3, 11, 127
9, 424470, Control_c, 3, 11, 125
9, 424500, Control_c, 3, 11, 124
9, 424530, Control_c, 3, 11, 122
9, 424560, Control_c, 3, 11, 120
9, 424590, Control_c, 3, 11, 119
9, 424620, Control_c, 3, 11, 117
9, 424650, Control_c, 3, 11, 115
9, 424680, Control_c, 3, 11, 114
9, 424710, Control_c, 3, 11, 112
9, 424740, Control_c, 3, 11, 110
9, 424770, Control_c, 3, 11, 109
9, 424800, Control_c, 3, 11, 107
9, 424830, Control_c, 3, 11, 105
9, 424860, Control_c, 3, 11, 104
9, 424890, Control_c, 3, 11, 102
9, 424920, Control_c, 3, 11, 100
9, 424950, Control_c, 3, 11, 99
9, 424980, Control_c, 3, 11, 97
9, 425010, Control_c, 3, 11, 95
9, 425040, Control_c, 3, 11, 94
9, 425070, Control_c, 3, 11, 92
9, 425100, Control_c, 3, 11, 90
9, 425130, Control_c, 3, 11, 89
9, 425144, Note_on_c, 3, 48, 0
9, 425158, Control_c, 3, 11, 67
9, 425160, Control_c, 3, 11, 67
9, 425160, Note_on_c, 3, 46, 80
9, 425160, Note_on_c, 3, 55, 80
9, 425190, Control_c, 3, 11, 68
9, 425220, Control_c, 3, 11, 70
9, 425250, Control_c, 3, 11, 71
9, 425279, Note_on_c, 3, 55, 0
9, 425280, Note_on_c, 3, 48, 80
9, 425280, Control_c, 3, 11, 72
9, 425310, Control_c, 3, 11, 73
9, 425340, Control_c, 3, 11, 75
9, 425370, Control_c, 3, 11, 76
9, 425399, Note_on_c, 3, 48, 0
9, 425400, Control_c, 3, 11, 77
9, 425400, Note_on_c, 3, 50, 80
9, 425430, Control_c, 3, 11, 78
9, 425460, Control_c, 3, 11, 80
9, 425490, Control_c, 3, 11, 81
9, 425519, Note_on_c, 3, 50, 0
9, 425520, Control_c, 3, 11, 82
9, 425520, Note_on_c, 3, 52, 80
9, 425550, Control_c, 3, 11, 83
9, 425580, Control_c, 3, 11, 85
9, 425610, Control_c, 3, 11, 86
9, 425639, Note_on_c, 3, 46, 0
9, 425639, Note_on_c, 3, 52, 0
9, 425640, Note_on_c, 3, 45, 80
9, 425640, Control_c, 3, 11, 87
9, 425640, Note_on_c, 3, 53, 80
9, 425670, Control_c, 3, 11, 88
9, 425700, Control_c, 3, 11, 90
9, 425730, Control_c, 3, 11, 91
9, 425759, Note_on_c, 3, 45, 0
9, 425759, Note_on_c, 3, 53, 0
9, 425760, Note_on_c, 3, 43, 80
9, 425760, Note_on_c, 3, 55, 80
9, 425760, Control_c, 3, 11, 92
9, 425790, Control_c, 3, 11, 93
9, 425820, Control_c, 3, 11, 95
9, 425850, Control_c, 3, 11, 96
9, 425879, Note_on_c, 3, 43, 0
9, 425879, Note_on_c, 3, 55, 0
9, 425880, Note_on_c, 3, 45, 80
9, 425880, Note_on_c, 3, 54, 80
9, 425880, Control_c, 3, 11, 97
9, 425910, Control_c, 3, 11, 98
9, 425940, Control_c, 3, 11, 100
9, 425970, Control_c, 3, 11, 101
9, 425999, Note_on_c, 3, 45, 0
9, 425999, Note_on_c, 3, 54, 0
9, 426000, Control_c, 3, 11, 102
9, 426000, Note_on_c, 3, 43, 80
9, 426000, Note_on_c, 3, 55, 80
9, 426030, Control_c, 3, 11, 103
9, 426060, Control_c, 3, 11, 105
9, 426090, Control_c, 3, 11, 106
9, 426119, Note_on_c, 3, 43, 0
9, 426119, Note_on_c, 3, 55, 0
9, 426120, Note_on_c, 3, 42, 80
9, 426120, Control_c, 3, 11, 107
9, 426120, Note_on_c, 3, 57, 80
9, 426150, Control_c, 3, 11, 108
9, 426180, Control_c, 3, 11, 110
9, 426210, Control_c, 3, 11, 111
9, 426239, Note_on_c, 3, 42, 0
9, 426239, Note_on_c, 3, 57, 0
9, 426240, Control_c, 3, 11, 112
9, 426240, Note_on_c, 3, 55, 80
9, 426240, Note_on_c, 3, 43, 80
9, 426270, Control_c, 3, 11, 113
9, 426300, Control_c, 3, 11, 115
9, 426330, Control_c, 3, 11, 116
9, 426359, Note_on_c, 3, 55, 0
9, 426359, Note_on_c, 3, 43, 0
9, 426360, Note_on_c, 3, 41, 80
9, 426360, Note_on_c, 3, 53, 80
9, 426360, Control_c, 3, 11, 117
9, 426390, Control_c, 3, 11, 118
9, 426420, Control_c, 3, 11, 120
9, 426450, Control_c, 3, 11, 121
9, 426479, Note_on_c, 3, 41, 0
9, 426479, Note_on_c, 3, 53, 0
9, 426480, Note_on_c, 3, 52, 80
9, 426480, Note_on_c, 3, 40, 80
9, 426480, Control_c, 3, 11, 122
9, 426510, Control_c, 3, 11, 123
9, 426540, Control_c, 3, 11, 125
9, 426570, Control_c, 3, 11, 127
9, 426584, Note_on_c, 3, 52, 0
9, 426584, Note_on_c, 3, 40, 0
9, 426600, Note_on_c, 3, 40, 80
9, 426600, Note_on_c, 3, 52, 80
9, 426689, Note_on_c, 3, 40, 0
9, 426689, Note_on_c, 3, 52, 0
9, 426720, Note_on_c, 3, 48, 80
9, 426720, Note_on_c, 3, 36, 80
9, 426809, Note_on_c, 3, 48, 0
9, 426809, Note_on_c, 3, 36, 0
9, 426840, Note_on_c, 3, 41, 80
9, 426840, Note_on_c, 3, 53, 80
9, 426929, Note_on_c, 3, 41, 0
9, 426929, Note_on_c, 3, 53, 0
9, 426960, Note_on_c, 3, 50, 80
9, 426960, Note_on_c, 3, 38, 80
9, 427049, Note_on_c, 3, 50, 0
9, 427049, Note_on_c, 3, 38, 0
9, 427080, Note_on_c, 3, 47, 80
9, 427080, Note_on_c, 3, 59, 80
9, 427169, Note_on_c, 3, 47, 0
9, 427169, Note_on_c, 3, 59, 0
9, 427200, Note_on_c, 3, 43, 80
9, 427200, Note_on_c, 3, 55, 80
9, 427289, Note_on_c, 3, 43, 0
9, 427289, Note_on_c, 3, 55, 0
9, 427320, Note_on_c, 3, 43, 80
9, 427320, Note_on_c, 3, 55, 80
9, 427439, Note_on_c, 3, 43, 0
9, 427439, Note_on_c, 3, 55, 0
9, 428040, Note_on_c, 3, 48, 80
9, 428040, Note_on_c, 3, 36, 80
9, 428129, Note_on_c, 3, 48, 0
9, 428129, Note_on_c, 3, 36, 0
9, 428160, Note_on_c, 3, 36, 80
9, 428160, Note_on_c, 3, 48, 80
9, 428249, Note_on_c, 3, 36, 0
9, 428249, Note_on_c, 3, 48, 0
9, 428280, Note_on_c, 3, 53, 80
9, 428280, Note_on_c, 3, 41, 80
9, 428369, Note_on_c, 3, 53, 0
9, 428369, Note_on_c, 3, 41, 0
9, 428400, Note_on_c, 3, 38, 80
9, 428400, Note_on_c, 3, 50, 80
9, 428489, Note_on_c, 3, 38, 0
9, 428489, Note_on_c, 3, 50, 0
9, 428520, Note_on_c, 3, 59, 80
9, 428520, Note_on_c, 3, 47, 80
9, 428609, Note_on_c, 3, 59, 0
9, 428609, Note_on_c, 3, 47, 0
9, 428640, Note_on_c, 3, 43, 80
9, 428640, Note_on_c, 3, 55, 80
9, 428729, Note_on_c, 3, 43, 0
9, 428729, Note_on_c, 3, 55, 0
9, 428760, Note_on_c, 3, 43, 80
9, 428760, Note_on_c, 3, 55, 80
9, 428849, Note_on_c, 3, 43, 0
9, 428849, Note_on_c, 3, 55, 0
9, 428880, Note_on_c, 3, 55, 80
9, 428880, Note_on_c, 3, 67, 80
9, 428969, Note_on_c, 3, 55, 0
9, 428969, Note_on_c, 3, 67, 0
9, 429000, Note_on_c, 3, 55, 80
9, 429000, Note_on_c, 3, 67, 80
9, 429089, Note_on_c, 3, 55, 0
9, 429089, Note_on_c, 3, 67, 0
9, 429120, Note_on_c, 3, 55, 80
9, 429120, Note_on_c, 3, 67, 80
9, 429209, Note_on_c, 3, 55, 0
9, 429209, Note_on_c, 3, 67, 0
9, 429240, Note_on_c, 3, 55, 80
9, 429240, Note_on_c, 3, 67, 80
9, 429329, Note_on_c, 3, 55, 0
9, 429329, Note_on_c, 3, 67, 0
9, 429360, Note_on_c, 3, 67, 80
9, 429360, Note_on_c, 3, 55, 80
9, 429449, Note_on_c, 3, 67, 0
9, 429449, Note_on_c, 3, 55, 0
9, 429480, Note_on_c, 3, 64, 80
9, 429480, Note_on_c, 3, 60, 80
9, 429569, Note_on_c, 3, 64, 0
9, 429569, Note_on_c, 3, 60, 0
9, 429600, Note_on_c, 3, 67, 80
9, 429600, Note_on_c, 3, 64, 80
9, 429689, Note_on_c, 3, 67, 0
9, 429689, Note_on_c, 3, 64, 0
9, 429720, Note_on_c, 3, 60, 80
9, 429720, Note_on_c, 3, 64, 80
9, 429809, Note_on_c, 3, 60, 0
9, 429809, Note_on_c, 3, 64, 0
9, 429840, Note_on_c, 3, 62, 80
9, 429840, Note_on_c, 3, 59, 80
9, 429929, Note_on_c, 3, 62, 0
9, 429929, Note_on_c, 3, 59, 0
9, 429960, Note_on_c, 3, 62, 80
9, 429960, Note_on_c, 3, 65, 80
9, 430049, Note_on_c, 3, 62, 0
9, 430049, Note_on_c, 3, 65, 0
9, 430080, Note_on_c, 3, 59, 80
9, 430080, Note_on_c, 3, 62, 80
9, 430169, Note_on_c, 3, 59, 0
9, 430169, Note_on_c, 3, 62, 0
9, 430200, Note_on_c, 3, 64, 80
9, 430200, Note_on_c, 3, 60, 80
9, 430289, Note_on_c, 3, 64, 0
9, 430289, Note_on_c, 3, 60, 0
9, 430320, Note_on_c, 3, 67, 80
9, 430320, Note_on_c, 3, 64, 80
9, 430409, Note_on_c, 3, 67, 0
9, 430409, Note_on_c, 3, 64, 0
9, 430440, Note_on_c, 3, 64, 80
9, 430440, Note_on_c, 3, 60, 80
9, 430529, Note_on_c, 3, 64, 0
9, 430529, Note_on_c, 3, 60, 0
9, 430560, Note_on_c, 3, 59, 80
9, 430560, Note_on_c, 3, 62, 80
9, 430649, Note_on_c, 3, 59, 0
9, 430649, Note_on_c, 3, 62, 0
9, 430680, Note_on_c, 3, 65, 80
9, 430680, Note_on_c, 3, 62, 80
9, 430769, Note_on_c, 3, 65, 0
9, 430769, Note_on_c, 3, 62, 0
9, 430800, Note_on_c, 3, 59, 80
9, 430800, Note_on_c, 3, 62, 80
9, 430889, Note_on_c, 3, 59, 0
9, 430889, Note_on_c, 3, 62, 0
9, 430920, Note_on_c, 3, 43, 32
9, 431039, Note_on_c, 3, 43, 0
9, 431040, Note_on_c, 3, 45, 32
9, 431159, Note_on_c, 3, 45, 0
9, 431160, Note_on_c, 3, 47, 32
9, 431279, Note_on_c, 3, 47, 0
9, 431280, Note_on_c, 3, 48, 32
9, 431399, Note_on_c, 3, 48, 0
9, 431400, Note_on_c, 3, 50, 32
9, 431519, Note_on_c, 3, 50, 0
9, 431520, Note_on_c, 3, 52, 32
9, 431639, Note_on_c, 3, 52, 0
9, 431640, Note_on_c, 3, 53, 32
9, 431759, Note_on_c, 3, 53, 0
9, 431760, Note_on_c, 3, 52, 32
9, 431879, Note_on_c, 3, 52, 0
9, 431880, Note_on_c, 3, 53, 32
9, 431999, Note_on_c, 3, 53, 0
9, 432000, Note_on_c, 3, 55, 32
9, 432119, Note_on_c, 3, 55, 0
9, 432120, Note_on_c, 3, 57, 32
9, 432239, Note_on_c, 3, 57, 0
9, 432240, Note_on_c, 3, 59, 32
9, 432359, Note_on_c, 3, 59, 0
9, 432360, Note_on_c, 3, 60, 32
9, 432479, Note_on_c, 3, 60, 0
9, 432720, Note_on_c, 3, 45, 32
9, 432884, Note_on_c, 3, 45, 0
9, 432900, Note_on_c, 3, 57, 32
9, 432944, Note_on_c, 3, 57, 0
9, 432960, Note_on_c, 3, 57, 32
9, 433064, Note_on_c, 3, 57, 0
9, 433080, Note_on_c, 3, 53, 32
9, 433199, Note_on_c, 3, 53, 0
9, 433440, Note_on_c, 3, 53, 32
9, 433440, Note_on_c, 3, 50, 32
9, 433604, Note_on_c, 3, 53, 0
9, 433604, Note_on_c, 3, 50, 0
9, 433620, Note_on_c, 3, 65, 32
9, 433620, Note_on_c, 3, 62, 32
9, 433664, Note_on_c, 3, 65, 0
9, 433664, Note_on_c, 3, 62, 0
9, 433680, Note_on_c, 3, 65, 32
9, 433680, Note_on_c, 3, 62, 32
9, 433784, Note_on_c, 3, 65, 0
9, 433784, Note_on_c, 3, 62, 0
9, 433800, Note_on_c, 3, 65, 32
9, 433800, Note_on_c, 3, 62, 32
9, 433919, Note_on_c, 3, 65, 0
9, 433919, Note_on_c, 3, 62, 0
9, 438120, Note_on_c, 3, 69, 32
9, 438239, Note_on_c, 3, 69, 0
9, 438480, Note_on_c, 3, 62, 32
9, 438599, Note_on_c, 3, 62, 0
9, 438840, Note_on_c, 3, 64, 32
9, 438959, Note_on_c, 3, 64, 0
9, 439200, Note_on_c, 3, 65, 32
9, 439319, Note_on_c, 3, 65, 0
9, 439560, Note_on_c, 3, 65, 32
9, 439679, Note_on_c, 3, 65, 0
9, 439920, Note_on_c, 3, 60, 32
9, 440039, Note_on_c, 3, 60, 0
9, 440280, Note_on_c, 3, 56, 32
9, 440399, Note_on_c, 3, 56, 0
9, 440640, Note_on_c, 3, 57, 32
9, 440759, Note_on_c, 3, 57, 0
9, 441000, Note_on_c, 3, 45, 32
9, 441000, Note_on_c, 3, 57, 32
9, 441119, Note_on_c, 3, 45, 0
9, 441119, Note_on_c, 3, 57, 0
9, 441360, Note_on_c, 3, 38, 32
9, 441360, Note_on_c, 3, 50, 32
9, 441479, Note_on_c, 3, 38, 0
9, 441479, Note_on_c, 3, 50, 0
9, 441720, Note_on_c, 3, 52, 32
9, 441720, Note_on_c, 3, 40, 32
9, 441839, Note_on_c, 3, 52, 0
9, 441839, Note_on_c, 3, 40, 0
9, 442080, Note_on_c, 3, 53, 32
9, 442080, Note_on_c, 3, 41, 32
9, 442199, Note_on_c, 3, 53, 0
9, 442199, Note_on_c, 3, 41, 0
9, 442440, Note_on_c, 3, 41, 32
9, 442440, Note_on_c, 3, 53, 32
9, 442559, Note_on_c, 3, 41, 0
9, 442559, Note_on_c, 3, 53, 0
9, 442800, Note_on_c, 3, 48, 32
9, 442800, Note_on_c, 3, 36, 32
9, 442919, Note_on_c, 3, 48, 0
9, 442919, Note_on_c, 3, 36, 0
9, 443160, Note_on_c, 3, 44, 32
9, 443279, Note_on_c, 3, 44, 0
9, 443520, Note_on_c, 3, 45, 32
9, 443639, Note_on_c, 3, 45, 0
9, 443880, Note_on_c, 3, 58, 32
9, 443880, Note_on_c, 3, 55, 32
9, 443999, Note_on_c, 3, 58, 0
9, 443999, Note_on_c, 3, 55, 0
9, 444240, Note_on_c, 3, 53, 32
9, 444240, Note_on_c, 3, 57, 32
9, 444359, Note_on_c, 3, 53, 0
9, 444359, Note_on_c, 3, 57, 0
9, 444600, Note_on_c, 3, 52, 32
9, 444600, Note_on_c, 3, 49, 32
9, 444719, Note_on_c, 3, 52, 0
9, 444719, Note_on_c, 3, 49, 0
9, 444960, Note_on_c, 3, 50, 32
9, 444960, Note_on_c, 3, 53, 32
9, 445079, Note_on_c, 3, 50, 0
9, 445079, Note_on_c, 3, 53, 0
9, 445320, Note_on_c, 3, 53, 32
9, 445320, Note_on_c, 3, 45, 32
9, 445439, Note_on_c, 3, 53, 0
9, 445439, Note_on_c, 3, 45, 0
9, 445680, Note_on_c, 3, 52, 32
9, 445680, Note_on_c, 3, 57, 32
9, 445799, Note_on_c, 3, 52, 0
9, 445799, Note_on_c, 3, 57, 0
9, 446040, Note_on_c, 3, 53, 32
9, 446040, Note_on_c, 3, 50, 32
9, 446159, Note_on_c, 3, 53, 0
9, 446159, Note_on_c, 3, 50, 0
9, 446400, Note_on_c, 3, 52, 32
9, 446400, Note_on_c, 3, 45, 32
9, 446519, Note_on_c, 3, 52, 0
9, 446519, Note_on_c, 3, 45, 0
9, 446760, Note_on_c, 3, 52, 32
9, 446760, Note_on_c, 3, 55, 32
9, 446879, Note_on_c, 3, 52, 0
9, 446879, Note_on_c, 3, 55, 0
9, 447120, Note_on_c, 3, 50, 32
9, 447120, Note_on_c, 3, 53, 32
9, 447239, Note_on_c, 3, 50, 0
9, 447239, Note_on_c, 3, 53, 0
9, 447480, Note_on_c, 3, 45, 32
9, 447480, Note_on_c, 3, 52, 32
9, 447599, Note_on_c, 3, 45, 0
9, 447599, Note_on_c, 3, 52, 0
9, 447840, Note_on_c, 3, 57, 32
9, 447840, Note_on_c, 3, 45, 32
9, 447959, Note_on_c, 3, 57, 0
9, 447959, Note_on_c, 3, 45, 0
9, 448440, Note_on_c, 3, 55, 32
9, 448440, Note_on_c, 3, 52, 32
9, 448559, Note_on_c, 3, 55, 0
9, 448559, Note_on_c, 3, 52, 0
9, 448800, Note_on_c, 3, 53, 37
9, 448800, Note_on_c, 3, 57, 37
9, 448919, Note_on_c, 3, 53, 0
9, 448919, Note_on_c, 3, 57, 0
9, 449160, Note_on_c, 3, 52, 42
9, 449160, Note_on_c, 3, 55, 42
9, 449279, Note_on_c, 3, 52, 0
9, 449279, Note_on_c, 3, 55, 0
9, 449520, Note_on_c, 3, 57, 47
9, 449520, Note_on_c, 3, 53, 47
9, 449639, Note_on_c, 3, 57, 0
9, 449639, Note_on_c, 3, 53, 0
9, 449880, Note_on_c, 3, 52, 53
9, 449880, Note_on_c, 3, 55, 53
9, 449999, Note_on_c, 3, 52, 0
9, 449999, Note_on_c, 3, 55, 0
9, 450240, Note_on_c, 3, 53, 58
9, 450240, Note_on_c, 3, 57, 58
9, 450359, Note_on_c, 3, 53, 0
9, 450359, Note_on_c, 3, 57, 0
9, 450600, Note_on_c, 3, 55, 63
9, 450600, Note_on_c, 3, 52, 63
9, 450719, Note_on_c, 3, 55, 0
9, 450719, Note_on_c, 3, 52, 0
9, 450960, Note_on_c, 3, 57, 69
9, 450960, Note_on_c, 3, 53, 69
9, 451079, Note_on_c, 3, 57, 0
9, 451079, Note_on_c, 3, 53, 0
9, 451320, Note_on_c, 3, 55, 74
9, 451320, Note_on_c, 3, 52, 74
9, 451439, Note_on_c, 3, 55, 0
9, 451439, Note_on_c, 3, 52, 0
9, 451680, Note_on_c, 3, 53, 79
9, 451680, Note_on_c, 3, 57, 79
9, 451784, Note_on_c, 3, 53, 0
9, 451784, Note_on_c, 3, 57, 0
9, 451800, Note_on_c, 3, 55, 82
9, 451800, Note_on_c, 3, 57, 82
9, 451889, Note_on_c, 3, 55, 0
9, 451889, Note_on_c, 3, 57, 0
9, 451920, Note_on_c, 3, 53, 83
9, 451920, Note_on_c, 3, 57, 83
9, 452009, Note_on_c, 3, 53, 0
9, 452009, Note_on_c, 3, 57, 0
9, 452040, Note_on_c, 3, 57, 85
9, 452040, Note_on_c, 3, 52, 85
9, 452129, Note_on_c, 3, 57, 0
9, 452129, Note_on_c, 3, 52, 0
9, 452160, Note_on_c, 3, 55, 87
9, 452160, Note_on_c, 3, 64, 87
9, 452249, Note_on_c, 3, 55, 0
9, 452249, Note_on_c, 3, 64, 0
9, 452280, Note_on_c, 3, 62, 88
9, 452280, Note_on_c, 3, 53, 88
9, 452369, Note_on_c, 3, 62, 0
9, 452369, Note_on_c, 3, 53, 0
9, 452400, Note_on_c, 3, 61, 90
9, 452400, Note_on_c, 3, 52, 90
9, 452489, Note_on_c, 3, 61, 0
9, 452489, Note_on_c, 3, 52, 0
9, 452520, Note_on_c, 3, 53, 92
9, 452520, Note_on_c, 3, 57, 92
9, 452624, Note_on_c, 3, 53, 0
9, 452624, Note_on_c, 3, 57, 0
9, 452640, Note_on_c, 3, 62, 92
9, 452640, Note_on_c, 3, 65, 92
9, 452744, Note_on_c, 3, 62, 0
9, 452744, Note_on_c, 3, 65, 0
9, 452760, Note_on_c, 3, 62, 92
9, 452760, Note_on_c, 3, 65, 92
9, 452864, Note_on_c, 3, 62, 0
9, 452864, Note_on_c, 3, 65, 0
9, 452880, Note_on_c, 3, 62, 92
9, 452880, Note_on_c, 3, 65, 92
9, 452984, Note_on_c, 3, 62, 0
9, 452984, Note_on_c, 3, 65, 0
9, 453000, Note_on_c, 3, 65, 92
9, 453000, Note_on_c, 3, 62, 92
9, 453104, Note_on_c, 3, 65, 0
9, 453104, Note_on_c, 3, 62, 0
9, 453120, Note_on_c, 3, 62, 92
9, 453120, Note_on_c, 3, 65, 92
9, 453224, Note_on_c, 3, 62, 0
9, 453224, Note_on_c, 3, 65, 0
9, 453240, Note_on_c, 3, 64, 92
9, 453240, Note_on_c, 3, 61, 92
9, 453344, Note_on_c, 3, 64, 0
9, 453344, Note_on_c, 3, 61, 0
9, 453360, Note_on_c, 3, 62, 92
9, 453360, Note_on_c, 3, 65, 92
9, 453464, Note_on_c, 3, 62, 0
9, 453464, Note_on_c, 3, 65, 0
9, 453480, Note_on_c, 3, 64, 92
9, 453480, Note_on_c, 3, 61, 92
9, 453584, Note_on_c, 3, 64, 0
9, 453584, Note_on_c, 3, 61, 0
9, 453600, Note_on_c, 3, 65, 92
9, 453600, Note_on_c, 3, 62, 92
9, 453704, Note_on_c, 3, 65, 0
9, 453704, Note_on_c, 3, 62, 0
9, 453720, Note_on_c, 3, 65, 92
9, 453720, Note_on_c, 3, 62, 92
9, 453824, Note_on_c, 3, 65, 0
9, 453824, Note_on_c, 3, 62, 0
9, 453840, Note_on_c, 3, 65, 92
9, 453840, Note_on_c, 3, 62, 92
9, 453944, Note_on_c, 3, 65, 0
9, 453944, Note_on_c, 3, 62, 0
9, 453960, Note_on_c, 3, 62, 80
9, 453960, Note_on_c, 3, 55, 80
9, 454064, Note_on_c, 3, 62, 0
9, 454064, Note_on_c, 3, 55, 0
9, 454080, Note_on_c, 3, 57, 80
9, 454080, Note_on_c, 3, 62, 80
9, 454184, Note_on_c, 3, 57, 0
9, 454184, Note_on_c, 3, 62, 0
9, 454200, Note_on_c, 3, 62, 80
9, 454200, Note_on_c, 3, 58, 80
9, 454304, Note_on_c, 3, 62, 0
9, 454304, Note_on_c, 3, 58, 0
9, 454320, Note_on_c, 3, 57, 80
9, 454320, Note_on_c, 3, 62, 80
9, 454424, Note_on_c, 3, 57, 0
9, 454424, Note_on_c, 3, 62, 0
9, 454440, Note_on_c, 3, 57, 80
9, 454440, Note_on_c, 3, 64, 80
9, 454544, Note_on_c, 3, 57, 0
9, 454544, Note_on_c, 3, 64, 0
9, 454560, Note_on_c, 3, 65, 80
9, 454560, Note_on_c, 3, 57, 80
9, 454664, Note_on_c, 3, 65, 0
9, 454664, Note_on_c, 3, 57, 0
9, 454680, Note_on_c, 3, 64, 80
9, 454680, Note_on_c, 3, 67, 80
9, 454784, Note_on_c, 3, 64, 0
9, 454784, Note_on_c, 3, 67, 0
9, 454800, Note_on_c, 3, 65, 80
9, 454800, Note_on_c, 3, 62, 80
9, 454904, Note_on_c, 3, 65, 0
9, 454904, Note_on_c, 3, 62, 0
9, 454920, Note_on_c, 3, 64, 80
9, 454920, Note_on_c, 3, 61, 80
9, 455024, Note_on_c, 3, 64, 0
9, 455024, Note_on_c, 3, 61, 0
9, 455040, Note_on_c, 3, 65, 80
9, 455040, Note_on_c, 3, 62, 80
9, 455144, Note_on_c, 3, 65, 0
9, 455144, Note_on_c, 3, 62, 0
9, 455160, Note_on_c, 3, 67, 80
9, 455160, Note_on_c, 3, 64, 80
9, 455264, Note_on_c, 3, 67, 0
9, 455264, Note_on_c, 3, 64, 0
9, 455280, Note_on_c, 3, 62, 80
9, 455280, Note_on_c, 3, 65, 80
9, 455384, Note_on_c, 3, 62, 0
9, 455384, Note_on_c, 3, 65, 0
9, 455400, Note_on_c, 3, 55, 80
9, 455504, Note_on_c, 3, 55, 0
9, 455520, Note_on_c, 3, 57, 80
9, 455624, Note_on_c, 3, 57, 0
9, 455640, Note_on_c, 3, 58, 80
9, 455744, Note_on_c, 3, 58, 0
9, 455760, Note_on_c, 3, 62, 80
9, 455864, Note_on_c, 3, 62, 0
9, 455880, Note_on_c, 3, 64, 80
9, 455984, Note_on_c, 3, 64, 0
9, 456000, Note_on_c, 3, 65, 80
9, 456104, Note_on_c, 3, 65, 0
9, 456120, Note_on_c, 3, 67, 80
9, 456120, Note_on_c, 3, 64, 80
9, 456224, Note_on_c, 3, 67, 0
9, 456224, Note_on_c, 3, 64, 0
9, 456240, Note_on_c, 3, 62, 80
9, 456240, Note_on_c, 3, 65, 80
9, 456344, Note_on_c, 3, 62, 0
9, 456344, Note_on_c, 3, 65, 0
9, 456360, Note_on_c, 3, 64, 80
9, 456360, Note_on_c, 3, 61, 80
9, 456464, Note_on_c, 3, 64, 0
9, 456464, Note_on_c, 3, 61, 0
9, 456480, Note_on_c, 3, 65, 80
9, 456480, Note_on_c, 3, 62, 80
9, 456584, Note_on_c, 3, 65, 0
9, 456584, Note_on_c, 3, 62, 0
9, 456600, Note_on_c, 3, 65, 80
9, 456600, Note_on_c, 3, 57, 80
9, 456704, Note_on_c, 3, 65, 0
9, 456704, Note_on_c, 3, 57, 0
9, 456720, Note_on_c, 3, 59, 80
9, 456720, Note_on_c, 3, 65, 80
9, 456824, Note_on_c, 3, 59, 0
9, 456824, Note_on_c, 3, 65, 0
9, 456840, Note_on_c, 3, 59, 80
9, 456840, Note_on_c, 3, 65, 80
9, 456944, Note_on_c, 3, 59, 0
9, 456944, Note_on_c, 3, 65, 0
9, 456960, Note_on_c, 3, 59, 80
9, 456960, Note_on_c, 3, 62, 80
9, 457064, Note_on_c, 3, 59, 0
9, 457064, Note_on_c, 3, 62, 0
9, 457080, Note_on_c, 3, 59, 80
9, 457080, Note_on_c, 3, 62, 80
9, 457184, Note_on_c, 3, 59, 0
9, 457184, Note_on_c, 3, 62, 0
9, 457200, Note_on_c, 3, 64, 80
9, 457200, Note_on_c, 3, 60, 80
9, 457304, Note_on_c, 3, 64, 0
9, 457304, Note_on_c, 3, 60, 0
9, 457320, Note_on_c, 3, 62, 80
9, 457320, Note_on_c, 3, 65, 80
9, 457424, Note_on_c, 3, 62, 0
9, 457424, Note_on_c, 3, 65, 0
9, 457440, Note_on_c, 3, 64, 80
9, 457440, Note_on_c, 3, 67, 80
9, 457544, Note_on_c, 3, 64, 0
9, 457544, Note_on_c, 3, 67, 0
9, 457560, Note_on_c, 3, 65, 80
9, 457560, Note_on_c, 3, 62, 80
9, 457664, Note_on_c, 3, 65, 0
9, 457664, Note_on_c, 3, 62, 0
9, 457680, Note_on_c, 3, 64, 80
9, 457680, Note_on_c, 3, 60, 80
9, 457784, Note_on_c, 3, 64, 0
9, 457784, Note_on_c, 3, 60, 0
9, 457800, Note_on_c, 3, 59, 80
9, 457800, Note_on_c, 3, 65, 80
9, 457904, Note_on_c, 3, 59, 0
9, 457904, Note_on_c, 3, 65, 0
9, 457920, Note_on_c, 3, 60, 80
9, 457920, Note_on_c, 3, 64, 80
9, 458024, Note_on_c, 3, 60, 0
9, 458024, Note_on_c, 3, 64, 0
9, 458040, Note_on_c, 3, 65, 80
9, 458040, Note_on_c, 3, 59, 80
9, 458144, Note_on_c, 3, 65, 0
9, 458144, Note_on_c, 3, 59, 0
9, 458160, Note_on_c, 3, 59, 80
9, 458160, Note_on_c, 3, 65, 80
9, 458264, Note_on_c, 3, 59, 0
9, 458264, Note_on_c, 3, 65, 0
9, 458280, Note_on_c, 3, 59, 80
9, 458280, Note_on_c, 3, 65, 80
9, 458384, Note_on_c, 3, 59, 0
9, 458384, Note_on_c, 3, 65, 0
9, 458400, Note_on_c, 3, 59, 80
9, 458400, Note_on_c, 3, 62, 80
9, 458504, Note_on_c, 3, 59, 0
9, 458504, Note_on_c, 3, 62, 0
9, 458520, Note_on_c, 3, 62, 80
9, 458520, Note_on_c, 3, 59, 80
9, 458624, Note_on_c, 3, 62, 0
9, 458624, Note_on_c, 3, 59, 0
9, 458640, Note_on_c, 3, 60, 80
9, 458640, Note_on_c, 3, 64, 80
9, 458744, Note_on_c, 3, 60, 0
9, 458744, Note_on_c, 3, 64, 0
9, 458760, Note_on_c, 3, 62, 80
9, 458760, Note_on_c, 3, 65, 80
9, 458864, Note_on_c, 3, 62, 0
9, 458864, Note_on_c, 3, 65, 0
9, 458880, Note_on_c, 3, 64, 80
9, 458880, Note_on_c, 3, 67, 80
9, 458984, Note_on_c, 3, 64, 0
9, 458984, Note_on_c, 3, 67, 0
9, 459000, Note_on_c, 3, 64, 80
9, 459000, Note_on_c, 3, 60, 80
9, 459104, Note_on_c, 3, 64, 0
9, 459104, Note_on_c, 3, 60, 0
9, 459120, Note_on_c, 3, 65, 80
9, 459120, Note_on_c, 3, 62, 80
9, 459224, Note_on_c, 3, 65, 0
9, 459224, Note_on_c, 3, 62, 0
9, 459240, Note_on_c, 3, 67, 80
9, 459240, Note_on_c, 3, 64, 80
9, 459344, Note_on_c, 3, 67, 0
9, 459344, Note_on_c, 3, 64, 0
9, 459360, Note_on_c, 3, 64, 80
9, 459360, Note_on_c, 3, 60, 80
9, 459464, Note_on_c, 3, 64, 0
9, 459464, Note_on_c, 3, 60, 0
9, 459480, Note_on_c, 3, 62, 80
9, 459480, Note_on_c, 3, 65, 80
9, 459584, Note_on_c, 3, 62, 0
9, 459584, Note_on_c, 3, 65, 0
9, 459600, Note_on_c, 3, 64, 80
9, 459600, Note_on_c, 3, 67, 80
9, 459704, Note_on_c, 3, 64, 0
9, 459704, Note_on_c, 3, 67, 0
9, 459720, Note_on_c, 3, 67, 80
9, 459720, Note_on_c, 3, 55, 80
9, 459780, Control_c, 3, 11, 67
9, 460080, Control_c, 3, 11, 67
9, 460119, Control_c, 3, 11, 68
9, 460158, Control_c, 3, 11, 69
9, 460197, Control_c, 3, 11, 70
9, 460236, Control_c, 3, 11, 71
9, 460275, Control_c, 3, 11, 72
9, 460314, Control_c, 3, 11, 73
9, 460353, Control_c, 3, 11, 74
9, 460392, Control_c, 3, 11, 75
9, 460424, Note_on_c, 3, 67, 0
9, 460424, Note_on_c, 3, 55, 0
9, 460431, Control_c, 3, 11, 76
9, 460440, Note_on_c, 3, 65, 80
9, 460440, Note_on_c, 3, 53, 80
9, 460470, Control_c, 3, 11, 77
9, 460509, Control_c, 3, 11, 78
9, 460548, Control_c, 3, 11, 79
9, 460587, Control_c, 3, 11, 80
9, 460626, Control_c, 3, 11, 81
9, 460665, Control_c, 3, 11, 82
9, 460704, Control_c, 3, 11, 83
9, 460743, Control_c, 3, 11, 84
9, 460782, Control_c, 3, 11, 85
9, 460799, Note_on_c, 3, 65, 0
9, 460799, Note_on_c, 3, 53, 0
9, 460800, Note_on_c, 3, 62, 80
9, 460800, Note_on_c, 3, 50, 80
9, 460821, Control_c, 3, 11, 86
9, 460860, Control_c, 3, 11, 87
9, 460899, Control_c, 3, 11, 88
9, 460938, Control_c, 3, 11, 89
9, 460977, Control_c, 3, 11, 90
9, 461016, Control_c, 3, 11, 91
9, 461055, Control_c, 3, 11, 92
9, 461094, Control_c, 3, 11, 93
9, 461133, Control_c, 3, 11, 94
9, 461159, Note_on_c, 3, 62, 0
9, 461159, Note_on_c, 3, 50, 0
9, 461160, Note_on_c, 3, 59, 80
9, 461160, Note_on_c, 3, 47, 80
9, 461172, Control_c, 3, 11, 95
9, 461211, Control_c, 3, 11, 96
9, 461250, Control_c, 3, 11, 97
9, 461289, Control_c, 3, 11, 98
9, 461328, Control_c, 3, 11, 99
9, 461367, Control_c, 3, 11, 100
9, 461406, Control_c, 3, 11, 101
9, 461445, Control_c, 3, 11, 102
9, 461484, Control_c, 3, 11, 103
9, 461519, Note_on_c, 3, 59, 0
9, 461519, Note_on_c, 3, 47, 0
9, 461520, Note_on_c, 3, 48, 80
9, 461520, Note_on_c, 3, 60, 80
9, 461523, Control_c, 3, 11, 104
9, 461562, Control_c, 3, 11, 105
9, 461601, Control_c, 3, 11, 106
9, 461640, Control_c, 3, 11, 107
9, 461670, Control_c, 3, 11, 105
9, 461700, Control_c, 3, 11, 104
9, 461730, Control_c, 3, 11, 102
9, 461760, Control_c, 3, 11, 100
9, 461790, Control_c, 3, 11, 99
9, 461820, Control_c, 3, 11, 97
9, 461850, Control_c, 3, 11, 95
9, 461879, Note_on_c, 3, 48, 0
9, 461879, Note_on_c, 3, 60, 0
9, 461880, Note_on_c, 3, 67, 80
9, 461880, Note_on_c, 3, 55, 80
9, 461880, Control_c, 3, 11, 94
9, 461910, Control_c, 3, 11, 92
9, 461940, Control_c, 3, 11, 90
9, 461970, Control_c, 3, 11, 89
9, 462000, Control_c, 3, 11, 87
9, 462030, Control_c, 3, 11, 85
9, 462060, Control_c, 3, 11, 84
9, 462090, Control_c, 3, 11, 82
9, 462120, Control_c, 3, 11, 80
9, 462150, Control_c, 3, 11, 79
9, 462180, Control_c, 3, 11, 77
9, 462210, Control_c, 3, 11, 75
9, 462239, Note_on_c, 3, 67, 0
9, 462239, Note_on_c, 3, 55, 0
9, 462240, Control_c, 3, 11, 74
9, 462240, Note_on_c, 3, 43, 80
9, 462240, Note_on_c, 3, 55, 80
9, 462270, Control_c, 3, 11, 72
9, 462300, Control_c, 3, 11, 70
9, 462330, Control_c, 3, 11, 69
9, 462358, Control_c, 3, 11, 49
9, 462584, Note_on_c, 3, 43, 0
9, 462584, Note_on_c, 3, 55, 0
9, 462600, Control_c, 3, 11, 49
9, 462600, Note_on_c, 3, 67, 92
9, 462637, Control_c, 3, 11, 50
9, 462674, Control_c, 3, 11, 51
9, 462711, Control_c, 3, 11, 52
9, 462748, Control_c, 3, 11, 53
9, 462785, Control_c, 3, 11, 54
9, 462822, Control_c, 3, 11, 55
9, 462858, Control_c, 3, 11, 56
9, 462895, Control_c, 3, 11, 57
9, 462932, Control_c, 3, 11, 58
9, 462960, Note_on_c, 3, 60, 92
9, 462969, Control_c, 3, 11, 59
9, 463006, Control_c, 3, 11, 60
9, 463043, Control_c, 3, 11, 61
9, 463080, Control_c, 3, 11, 62
9, 463117, Control_c, 3, 11, 63
9, 463154, Control_c, 3, 11, 64
9, 463191, Control_c, 3, 11, 65
9, 463228, Control_c, 3, 11, 66
9, 463265, Control_c, 3, 11, 67
9, 463302, Control_c, 3, 11, 68
9, 463319, Note_on_c, 3, 60, 0
9, 463320, Note_on_c, 3, 53, 92
9, 463338, Control_c, 3, 11, 69
9, 463375, Control_c, 3, 11, 70
9, 463412, Control_c, 3, 11, 71
9, 463449, Control_c, 3, 11, 72
9, 463486, Control_c, 3, 11, 73
9, 463523, Control_c, 3, 11, 74
9, 463560, Control_c, 3, 11, 75
9, 463597, Control_c, 3, 11, 76
9, 463634, Control_c, 3, 11, 77
9, 463671, Control_c, 3, 11, 78
9, 463679, Note_on_c, 3, 67, 0
9, 463679, Note_on_c, 3, 53, 0
9, 463680, Note_on_c, 3, 50, 92
9, 463680, Note_on_c, 3, 65, 92
9, 463708, Control_c, 3, 11, 79
9, 463745, Control_c, 3, 11, 80
9, 463782, Control_c, 3, 11, 81
9, 463818, Control_c, 3, 11, 82
9, 463855, Control_c, 3, 11, 83
9, 463892, Control_c, 3, 11, 84
9, 463929, Control_c, 3, 11, 85
9, 463966, Control_c, 3, 11, 86
9, 464003, Control_c, 3, 11, 87
9, 464039, Note_on_c, 3, 50, 0
9, 464040, Note_on_c, 3, 55, 92
9, 464040, Control_c, 3, 11, 88
9, 464077, Control_c, 3, 11, 89
9, 464114, Control_c, 3, 11, 90
9, 464151, Control_c, 3, 11, 91
9, 464188, Control_c, 3, 11, 92
9, 464225, Control_c, 3, 11, 93
9, 464262, Control_c, 3, 11, 94
9, 464298, Control_c, 3, 11, 95
9, 464335, Control_c, 3, 11, 96
9, 464372, Control_c, 3, 11, 97
9, 464399, Note_on_c, 3, 65, 0
9, 464399, Note_on_c, 3, 55, 0
9, 464400, Note_on_c, 3, 60, 92
9, 464400, Note_on_c, 3, 64, 92
9, 464409, Control_c, 3, 11, 98
9, 464446, Control_c, 3, 11, 99
9, 464483, Control_c, 3, 11, 100
9, 464520, Control_c, 3, 11, 101
9, 464557, Control_c, 3, 11, 102
9, 464594, Control_c, 3, 11, 103
9, 464631, Control_c, 3, 11, 104
9, 464668, Control_c, 3, 11, 105
9, 464705, Control_c, 3, 11, 106
9, 464742, Control_c, 3, 11, 107
9, 464759, Note_on_c, 3, 60, 0
9, 464759, Note_on_c, 3, 64, 0
9, 464760, Note_on_c, 3, 55, 92
9, 464760, Note_on_c, 3, 63, 92
9, 464778, Control_c, 3, 11, 108
9, 464815, Control_c, 3, 11, 109
9, 464852, Control_c, 3, 11, 110
9, 464889, Control_c, 3, 11, 111
9, 464926, Control_c, 3, 11, 112
9, 464963, Control_c, 3, 11, 113
9, 465000, Control_c, 3, 11, 114
9, 465037, Control_c, 3, 11, 115
9, 465074, Control_c, 3, 11, 116
9, 465111, Control_c, 3, 11, 117
9, 465119, Note_on_c, 3, 55, 0
9, 465119, Note_on_c, 3, 63, 0
9, 465120, Note_on_c, 3, 67, 92
9, 465120, Note_on_c, 3, 43, 92
9, 465148, Control_c, 3, 11, 118
9, 465185, Control_c, 3, 11, 119
9, 465222, Control_c, 3, 11, 120
9, 465258, Control_c, 3, 11, 121
9, 465295, Control_c, 3, 11, 122
9, 465332, Control_c, 3, 11, 123
9, 465369, Control_c, 3, 11, 124
9, 465406, Control_c, 3, 11, 125
9, 465443, Control_c, 3, 11, 127
9, 465464, Note_on_c, 3, 67, 0
9, 465464, Note_on_c, 3, 43, 0
9, 465480, Note_on_c, 3, 48, 92
9, 465480, Note_on_c, 3, 60, 92
9, 465599, Note_on_c, 3, 48, 0
9, 465600, Note_on_c, 3, 52, 92
9, 465719, Note_on_c, 3, 60, 0
9, 465719, Note_on_c, 3, 52, 0
9, 465720, Note_on_c, 3, 62, 92
9, 465720, Note_on_c, 3, 53, 92
9, 465779, Note_on_c, 3, 62, 0
9, 465779, Note_on_c, 3, 53, 0
9, 465780, Note_on_c, 3, 55, 92
9, 465780, Note_on_c, 3, 64, 92
9, 465824, Note_on_c, 3, 55, 0
9, 465824, Note_on_c, 3, 64, 0
9, 465840, Note_on_c, 3, 65, 92
9, 465840, Note_on_c, 3, 57, 92
9, 465959, Note_on_c, 3, 65, 0
9, 465959, Note_on_c, 3, 57, 0
9, 466080, Note_on_c, 3, 55, 92
9, 466080, Note_on_c, 3, 64, 92
9, 466169, Note_on_c, 3, 55, 0
9, 466169, Note_on_c, 3, 64, 0
9, 466200, Note_on_c, 3, 53, 92
9, 466200, Note_on_c, 3, 62, 92
9, 466289, Note_on_c, 3, 53, 0
9, 466289, Note_on_c, 3, 62, 0
9, 466440, Note_on_c, 3, 60, 92
9, 466440, Note_on_c, 3, 52, 92
9, 466529, Note_on_c, 3, 60, 0
9, 466529, Note_on_c, 3, 52, 0
9, 466560, Note_on_c, 3, 53, 92
9, 466560, Note_on_c, 3, 62, 92
9, 466649, Note_on_c, 3, 53, 0
9, 466649, Note_on_c, 3, 62, 0
9, 466800, Note_on_c, 3, 59, 92
9, 466800, Note_on_c, 3, 50, 92
9, 466889, Note_on_c, 3, 59, 0
9, 466889, Note_on_c, 3, 50, 0
9, 466920, Note_on_c, 3, 60, 92
9, 466920, Note_on_c, 3, 64, 92
9, 467039, Note_on_c, 3, 60, 0
9, 467039, Note_on_c, 3, 64, 0
9, 467040, Note_on_c, 3, 48, 92
9, 467040, Note_on_c, 3, 52, 92
9, 467159, Note_on_c, 3, 48, 0
9, 467159, Note_on_c, 3, 52, 0
9, 467160, Note_on_c, 3, 53, 92
9, 467160, Note_on_c, 3, 50, 92
9, 467219, Note_on_c, 3, 53, 0
9, 467219, Note_on_c, 3, 50, 0
9, 467220, Note_on_c, 3, 55, 92
9, 467220, Note_on_c, 3, 52, 92
9, 467264, Note_on_c, 3, 55, 0
9, 467264, Note_on_c, 3, 52, 0
9, 467280, Note_on_c, 3, 57, 92
9, 467280, Note_on_c, 3, 53, 92
9, 467369, Note_on_c, 3, 57, 0
9, 467369, Note_on_c, 3, 53, 0
9, 467520, Note_on_c, 3, 55, 92
9, 467520, Note_on_c, 3, 52, 92
9, 467609, Note_on_c, 3, 55, 0
9, 467609, Note_on_c, 3, 52, 0
9, 467640, Note_on_c, 3, 53, 92
9, 467640, Note_on_c, 3, 50, 92
9, 467729, Note_on_c, 3, 53, 0
9, 467729, Note_on_c, 3, 50, 0
9, 467880, Note_on_c, 3, 52, 92
9, 467880, Note_on_c, 3, 48, 92
9, 467969, Note_on_c, 3, 52, 0
9, 467969, Note_on_c, 3, 48, 0
9, 468000, Note_on_c, 3, 53, 92
9, 468000, Note_on_c, 3, 50, 92
9, 468089, Note_on_c, 3, 53, 0
9, 468089, Note_on_c, 3, 50, 0
9, 468240, Note_on_c, 3, 50, 92
9, 468240, Note_on_c, 3, 59, 92
9, 468329, Note_on_c, 3, 50, 0
9, 468329, Note_on_c, 3, 59, 0
9, 468360, Note_on_c, 3, 48, 92
9, 468360, Note_on_c, 3, 60, 92
9, 468449, Note_on_c, 3, 48, 0
9, 468449, Note_on_c, 3, 60, 0
9, 468480, Note_on_c, 3, 60, 92
9, 468480, Note_on_c, 3, 52, 92
9, 468599, Note_on_c, 3, 60, 0
9, 468599, Note_on_c, 3, 52, 0
9, 468600, Note_on_c, 3, 53, 92
9, 468600, Note_on_c, 3, 62, 92
9, 468659, Note_on_c, 3, 53, 0
9, 468659, Note_on_c, 3, 62, 0
9, 468660, Note_on_c, 3, 64, 92
9, 468660, Note_on_c, 3, 55, 92
9, 468704, Note_on_c, 3, 64, 0
9, 468704, Note_on_c, 3, 55, 0
9, 468720, Note_on_c, 3, 65, 92
9, 468720, Note_on_c, 3, 57, 92
9, 468809, Note_on_c, 3, 65, 0
9, 468809, Note_on_c, 3, 57, 0
9, 468840, Note_on_c, 3, 65, 92
9, 468840, Note_on_c, 3, 57, 92
9, 468929, Note_on_c, 3, 65, 0
9, 468929, Note_on_c, 3, 57, 0
9, 468960, Note_on_c, 3, 55, 92
9, 468960, Note_on_c, 3, 64, 92
9, 469049, Note_on_c, 3, 55, 0
9, 469049, Note_on_c, 3, 64, 0
9, 469080, Note_on_c, 3, 53, 92
9, 469080, Note_on_c, 3, 62, 92
9, 469169, Note_on_c, 3, 53, 0
9, 469169, Note_on_c, 3, 62, 0
9, 469200, Note_on_c, 3, 53, 92
9, 469200, Note_on_c, 3, 62, 92
9, 469289, Note_on_c, 3, 53, 0
9, 469289, Note_on_c, 3, 62, 0
9, 469320, Note_on_c, 3, 52, 92
9, 469320, Note_on_c, 3, 60, 92
9, 469409, Note_on_c, 3, 52, 0
9, 469409, Note_on_c, 3, 60, 0
9, 469440, Note_on_c, 3, 53, 92
9, 469440, Note_on_c, 3, 62, 92
9, 469529, Note_on_c, 3, 53, 0
9, 469529, Note_on_c, 3, 62, 0
9, 469560, Note_on_c, 3, 62, 92
9, 469560, Note_on_c, 3, 53, 92
9, 469649, Note_on_c, 3, 62, 0
9, 469649, Note_on_c, 3, 53, 0
9, 469680, Note_on_c, 3, 50, 92
9, 469680, Note_on_c, 3, 59, 92
9, 469769, Note_on_c, 3, 50, 0
9, 469769, Note_on_c, 3, 59, 0
9, 469800, Note_on_c, 3, 48, 92
9, 469800, Note_on_c, 3, 52, 92
9, 469889, Note_on_c, 3, 48, 0
9, 469889, Note_on_c, 3, 52, 0
9, 469920, Note_on_c, 3, 48, 92
9, 469920, Note_on_c, 3, 52, 92
9, 470039, Note_on_c, 3, 48, 0
9, 470039, Note_on_c, 3, 52, 0
9, 470040, Note_on_c, 3, 53, 92
9, 470040, Note_on_c, 3, 50, 92
9, 470099, Note_on_c, 3, 53, 0
9, 470099, Note_on_c, 3, 50, 0
9, 470100, Note_on_c, 3, 52, 92
9, 470100, Note_on_c, 3, 55, 92
9, 470144, Note_on_c, 3, 52, 0
9, 470144, Note_on_c, 3, 55, 0
9, 470160, Note_on_c, 3, 53, 92
9, 470160, Note_on_c, 3, 57, 92
9, 470249, Note_on_c, 3, 53, 0
9, 470249, Note_on_c, 3, 57, 0
9, 470280, Note_on_c, 3, 53, 92
9, 470280, Note_on_c, 3, 57, 92
9, 470369, Note_on_c, 3, 53, 0
9, 470369, Note_on_c, 3, 57, 0
9, 470400, Note_on_c, 3, 52, 92
9, 470400, Note_on_c, 3, 55, 92
9, 470489, Note_on_c, 3, 52, 0
9, 470489, Note_on_c, 3, 55, 0
9, 470520, Note_on_c, 3, 50, 92
9, 470520, Note_on_c, 3, 53, 92
9, 470609, Note_on_c, 3, 50, 0
9, 470609, Note_on_c, 3, 53, 0
9, 470640, Note_on_c, 3, 50, 92
9, 470640, Note_on_c, 3, 53, 92
9, 470729, Note_on_c, 3, 50, 0
9, 470729, Note_on_c, 3, 53, 0
9, 470760, Note_on_c, 3, 48, 92
9, 470760, Note_on_c, 3, 52, 92
9, 470849, Note_on_c, 3, 48, 0
9, 470849, Note_on_c, 3, 52, 0
9, 470880, Note_on_c, 3, 50, 92
9, 470880, Note_on_c, 3, 53, 92
9, 470969, Note_on_c, 3, 50, 0
9, 470969, Note_on_c, 3, 53, 0
9, 471000, Note_on_c, 3, 50, 92
9, 471000, Note_on_c, 3, 53, 92
9, 471089, Note_on_c, 3, 50, 0
9, 471089, Note_on_c, 3, 53, 0
9, 471120, Note_on_c, 3, 50, 92
9, 471120, Note_on_c, 3, 59, 92
9, 471209, Note_on_c, 3, 50, 0
9, 471209, Note_on_c, 3, 59, 0
9, 471240, Note_on_c, 3, 60, 92
9, 471240, Note_on_c, 3, 48, 92
9, 471404, Note_on_c, 3, 60, 0
9, 471404, Note_on_c, 3, 48, 0
9, 471420, Note_on_c, 3, 36, 92
9, 471420, Note_on_c, 3, 48, 92
9, 471464, Note_on_c, 3, 36, 0
9, 471464, Note_on_c, 3, 48, 0
9, 471480, Note_on_c, 3, 48, 92
9, 471480, Note_on_c, 3, 36, 92
9, 471584, Note_on_c, 3, 48, 0
9, 471584, Note_on_c, 3, 36, 0
9, 471600, Note_on_c, 3, 60, 92
9, 471600, Note_on_c, 3, 48, 92
9, 471689, Note_on_c, 3, 60, 0
9, 471689, Note_on_c, 3, 48, 0
9, 471720, Note_on_c, 3, 62, 92
9, 471720, Note_on_c, 3, 50, 92
9, 471809, Note_on_c, 3, 62, 0
9, 471809, Note_on_c, 3, 50, 0
9, 471840, Note_on_c, 3, 64, 92
9, 471840, Note_on_c, 3, 52, 92
9, 471929, Note_on_c, 3, 64, 0
9, 471929, Note_on_c, 3, 52, 0
9, 471960, Note_on_c, 3, 53, 92
9, 471960, Note_on_c, 3, 65, 92
9, 472079, Note_on_c, 3, 53, 0
9, 472079, Note_on_c, 3, 65, 0
9, 472680, Note_on_c, 3, 59, 92
9, 472680, Note_on_c, 3, 47, 92
9, 472844, Note_on_c, 3, 59, 0
9, 472844, Note_on_c, 3, 47, 0
9, 472860, Note_on_c, 3, 35, 92
9, 472860, Note_on_c, 3, 47, 92
9, 472904, Note_on_c, 3, 35, 0
9, 472904, Note_on_c, 3, 47, 0
9, 472920, Note_on_c, 3, 47, 92
9, 472920, Note_on_c, 3, 35, 92
9, 473024, Note_on_c, 3, 47, 0
9, 473024, Note_on_c, 3, 35, 0
9, 473040, Note_on_c, 3, 47, 92
9, 473040, Note_on_c, 3, 59, 92
9, 473129, Note_on_c, 3, 47, 0
9, 473129, Note_on_c, 3, 59, 0
9, 473160, Note_on_c, 3, 48, 92
9, 473160, Note_on_c, 3, 60, 92
9, 473249, Note_on_c, 3, 48, 0
9, 473249, Note_on_c, 3, 60, 0
9, 473280, Note_on_c, 3, 50, 92
9, 473280, Note_on_c, 3, 62, 92
9, 473369, Note_on_c, 3, 50, 0
9, 473369, Note_on_c, 3, 62, 0
9, 473400, Note_on_c, 3, 52, 92
9, 473400, Note_on_c, 3, 64, 92
9, 473519, Note_on_c, 3, 52, 0
9, 473519, Note_on_c, 3, 64, 0
9, 473760, Control_c, 3, 11, 87
9, 474120, Note_on_c, 3, 48, 68
9, 474840, Control_c, 3, 11, 87
9, 474870, Control_c, 3, 11, 89
9, 474900, Control_c, 3, 11, 90
9, 474930, Control_c, 3, 11, 92
9, 474960, Control_c, 3, 11, 94
9, 474990, Control_c, 3, 11, 95
9, 475020, Control_c, 3, 11, 97
9, 475050, Control_c, 3, 11, 99
9, 475080, Control_c, 3, 11, 100
9, 475110, Control_c, 3, 11, 102
9, 475140, Control_c, 3, 11, 104
9, 475170, Control_c, 3, 11, 105
9, 475200, Control_c, 3, 11, 107
9, 475230, Control_c, 3, 11, 109
9, 475260, Control_c, 3, 11, 110
9, 475290, Control_c, 3, 11, 112
9, 475320, Control_c, 3, 11, 114
9, 475350, Control_c, 3, 11, 115
9, 475380, Control_c, 3, 11, 117
9, 475410, Control_c, 3, 11, 119
9, 475440, Control_c, 3, 11, 120
9, 475470, Control_c, 3, 11, 122
9, 475500, Control_c, 3, 11, 124
9, 475530, Control_c, 3, 11, 125
9, 475560, Control_c, 3, 11, 127
9, 475590, Control_c, 3, 11, 125
9, 475620, Control_c, 3, 11, 124
9, 475650, Control_c, 3, 11, 122
9, 475680, Control_c, 3, 11, 120
9, 475710, Control_c, 3, 11, 119
9, 475740, Control_c, 3, 11, 117
9, 475770, Control_c, 3, 11, 115
9, 475800, Control_c, 3, 11, 114
9, 475830, Control_c, 3, 11, 112
9, 475860, Control_c, 3, 11, 110
9, 475890, Control_c, 3, 11, 109
9, 475920, Control_c, 3, 11, 107
9, 475950, Control_c, 3, 11, 105
9, 475980, Control_c, 3, 11, 104
9, 476010, Control_c, 3, 11, 102
9, 476040, Control_c, 3, 11, 100
9, 476070, Control_c, 3, 11, 99
9, 476100, Control_c, 3, 11, 97
9, 476130, Control_c, 3, 11, 95
9, 476160, Control_c, 3, 11, 94
9, 476190, Control_c, 3, 11, 92
9, 476220, Control_c, 3, 11, 90
9, 476250, Control_c, 3, 11, 89
9, 476264, Note_on_c, 3, 48, 0
9, 476278, Control_c, 3, 11, 67
9, 476280, Control_c, 3, 11, 67
9, 476280, Note_on_c, 3, 55, 80
9, 476280, Note_on_c, 3, 46, 80
9, 476310, Control_c, 3, 11, 68
9, 476340, Control_c, 3, 11, 70
9, 476370, Control_c, 3, 11, 71
9, 476399, Note_on_c, 3, 55, 0
9, 476400, Note_on_c, 3, 48, 80
9, 476400, Control_c, 3, 11, 72
9, 476430, Control_c, 3, 11, 73
9, 476460, Control_c, 3, 11, 75
9, 476490, Control_c, 3, 11, 76
9, 476519, Note_on_c, 3, 48, 0
9, 476520, Note_on_c, 3, 50, 80
9, 476520, Control_c, 3, 11, 77
9, 476550, Control_c, 3, 11, 78
9, 476580, Control_c, 3, 11, 80
9, 476610, Control_c, 3, 11, 81
9, 476639, Note_on_c, 3, 50, 0
9, 476640, Note_on_c, 3, 52, 80
9, 476640, Control_c, 3, 11, 82
9, 476670, Control_c, 3, 11, 83
9, 476700, Control_c, 3, 11, 85
9, 476730, Control_c, 3, 11, 86
9, 476759, Note_on_c, 3, 46, 0
9, 476759, Note_on_c, 3, 52, 0
9, 476760, Control_c, 3, 11, 87
9, 476760, Note_on_c, 3, 53, 80
9, 476760, Note_on_c, 3, 45, 80
9, 476790, Control_c, 3, 11, 88
9, 476820, Control_c, 3, 11, 90
9, 476850, Control_c, 3, 11, 91
9, 476879, Note_on_c, 3, 53, 0
9, 476879, Note_on_c, 3, 45, 0
9, 476880, Control_c, 3, 11, 92
9, 476880, Note_on_c, 3, 55, 80
9, 476880, Note_on_c, 3, 43, 80
9, 476910, Control_c, 3, 11, 93
9, 476940, Control_c, 3, 11, 95
9, 476970, Control_c, 3, 11, 96
9, 476999, Note_on_c, 3, 55, 0
9, 476999, Note_on_c, 3, 43, 0
9, 477000, Control_c, 3, 11, 97
9, 477000, Note_on_c, 3, 54, 80
9, 477000, Note_on_c, 3, 45, 80
9, 477030, Control_c, 3, 11, 98
9, 477060, Control_c, 3, 11, 100
9, 477090, Control_c, 3, 11, 101
9, 477119, Note_on_c, 3, 54, 0
9, 477119, Note_on_c, 3, 45, 0
9, 477120, Note_on_c, 3, 43, 80
9, 477120, Note_on_c, 3, 55, 80
9, 477120, Control_c, 3, 11, 102
9, 477150, Control_c, 3, 11, 103
9, 477180, Control_c, 3, 11, 105
9, 477210, Control_c, 3, 11, 106
9, 477239, Note_on_c, 3, 43, 0
9, 477239, Note_on_c, 3, 55, 0
9, 477240, Note_on_c, 3, 57, 80
9, 477240, Control_c, 3, 11, 107
9, 477240, Note_on_c, 3, 42, 80
9, 477270, Control_c, 3, 11, 108
9, 477300, Control_c, 3, 11, 110
9, 477330, Control_c, 3, 11, 111
9, 477359, Note_on_c, 3, 57, 0
9, 477359, Note_on_c, 3, 42, 0
9, 477360, Control_c, 3, 11, 112
9, 477360, Note_on_c, 3, 43, 80
9, 477360, Note_on_c, 3, 55, 80
9, 477390, Control_c, 3, 11, 113
9, 477420, Control_c, 3, 11, 115
9, 477450, Control_c, 3, 11, 116
9, 477479, Note_on_c, 3, 43, 0
9, 477479, Note_on_c, 3, 55, 0
9, 477480, Note_on_c, 3, 53, 80
9, 477480, Control_c, 3, 11, 117
9, 477480, Note_on_c, 3, 41, 80
9, 477510, Control_c, 3, 11, 118
9, 477540, Control_c, 3, 11, 120
9, 477570, Control_c, 3, 11, 121
9, 477599, Note_on_c, 3, 53, 0
9, 477599, Note_on_c, 3, 41, 0
9, 477600, Note_on_c, 3, 52, 80
9, 477600, Control_c, 3, 11, 122
9, 477600, Note_on_c, 3, 40, 80
9, 477630, Control_c, 3, 11, 123
9, 477660, Control_c, 3, 11, 125
9, 477690, Control_c, 3, 11, 127
9, 477704, Note_on_c, 3, 52, 0
9, 477704, Note_on_c, 3, 40, 0
9, 477720, Note_on_c, 3, 52, 80
9, 477720, Note_on_c, 3, 40, 80
9, 477809, Note_on_c, 3, 52, 0
9, 477809, Note_on_c, 3, 40, 0
9, 477840, Note_on_c, 3, 48, 80
9, 477840, Note_on_c, 3, 36, 80
9, 477929, Note_on_c, 3, 48, 0
9, 477929, Note_on_c, 3, 36, 0
9, 477960, Note_on_c, 3, 53, 80
9, 477960, Note_on_c, 3, 41, 80
9, 478049, Note_on_c, 3, 53, 0
9, 478049, Note_on_c, 3, 41, 0
9, 478080, Note_on_c, 3, 38, 80
9, 478080, Note_on_c, 3, 50, 80
9, 478169, Note_on_c, 3, 38, 0
9, 478169, Note_on_c, 3, 50, 0
9, 478200, Note_on_c, 3, 47, 80
9, 478200, Note_on_c, 3, 59, 80
9, 478289, Note_on_c, 3, 47, 0
9, 478289, Note_on_c, 3, 59, 0
9, 478320, Note_on_c, 3, 43, 80
9, 478320, Note_on_c, 3, 55, 80
9, 478409, Note_on_c, 3, 43, 0
9, 478409, Note_on_c, 3, 55, 0
9, 478440, Note_on_c, 3, 43, 80
9, 478440, Note_on_c, 3, 55, 80
9, 478559, Note_on_c, 3, 43, 0
9, 478559, Note_on_c, 3, 55, 0
9, 479160, Note_on_c, 3, 36, 80
9, 479160, Note_on_c, 3, 48, 80
9, 479249, Note_on_c, 3, 36, 0
9, 479249, Note_on_c, 3, 48, 0
9, 479280, Note_on_c, 3, 48, 80
9, 479280, Note_on_c, 3, 36, 80
9, 479369, Note_on_c, 3, 48, 0
9, 479369, Note_on_c, 3, 36, 0
9, 479400, Note_on_c, 3, 53, 80
9, 479400, Note_on_c, 3, 41, 80
9, 479489, Note_on_c, 3, 53, 0
9, 479489, Note_on_c, 3, 41, 0
9, 479520, Note_on_c, 3, 38, 80
9, 479520, Note_on_c, 3, 50, 80
9, 479609, Note_on_c, 3, 38, 0
9, 479609, Note_on_c, 3, 50, 0
9, 479640, Note_on_c, 3, 59, 80
9, 479640, Note_on_c, 3, 47, 80
9, 479729, Note_on_c, 3, 59, 0
9, 479729, Note_on_c, 3, 47, 0
9, 479760, Note_on_c, 3, 55, 80
9, 479760, Note_on_c, 3, 43, 80
9, 479849, Note_on_c, 3, 55, 0
9, 479849, Note_on_c, 3, 43, 0
9, 479880, Note_on_c, 3, 43, 80
9, 479880, Note_on_c, 3, 55, 80
9, 479969, Note_on_c, 3, 43, 0
9, 479969, Note_on_c, 3, 55, 0
9, 480000, Note_on_c, 3, 55, 80
9, 480000, Note_on_c, 3, 67, 80
9, 480089, Note_on_c, 3, 55, 0
9, 480089, Note_on_c, 3, 67, 0
9, 480120, Note_on_c, 3, 67, 80
9, 480120, Note_on_c, 3, 55, 80
9, 480209, Note_on_c, 3, 67, 0
9, 480209, Note_on_c, 3, 55, 0
9, 480240, Note_on_c, 3, 55, 80
9, 480240, Note_on_c, 3, 67, 80
9, 480329, Note_on_c, 3, 55, 0
9, 480329, Note_on_c, 3, 67, 0
9, 480360, Note_on_c, 3, 67, 80
9, 480360, Note_on_c, 3, 55, 80
9, 480449, Note_on_c, 3, 67, 0
9, 480449, Note_on_c, 3, 55, 0
9, 480480, Note_on_c, 3, 67, 80
9, 480480, Note_on_c, 3, 55, 80
9, 480569, Note_on_c, 3, 67, 0
9, 480569, Note_on_c, 3, 55, 0
9, 480600, Note_on_c, 3, 64, 80
9, 480600, Note_on_c, 3, 60, 80
9, 480689, Note_on_c, 3, 64, 0
9, 480689, Note_on_c, 3, 60, 0
9, 480720, Note_on_c, 3, 67, 80
9, 480720, Note_on_c, 3, 64, 80
9, 480809, Note_on_c, 3, 67, 0
9, 480809, Note_on_c, 3, 64, 0
9, 480840, Note_on_c, 3, 60, 80
9, 480840, Note_on_c, 3, 64, 80
9, 480929, Note_on_c, 3, 60, 0
9, 480929, Note_on_c, 3, 64, 0
9, 480960, Note_on_c, 3, 59, 80
9, 480960, Note_on_c, 3, 62, 80
9, 481049, Note_on_c, 3, 59, 0
9, 481049, Note_on_c, 3, 62, 0
9, 481080, Note_on_c, 3, 62, 80
9, 481080, Note_on_c, 3, 65, 80
9, 481169, Note_on_c, 3, 62, 0
9, 481169, Note_on_c, 3, 65, 0
9, 481200, Note_on_c, 3, 59, 80
9, 481200, Note_on_c, 3, 62, 80
9, 481289, Note_on_c, 3, 59, 0
9, 481289, Note_on_c, 3, 62, 0
9, 481320, Note_on_c, 3, 64, 80
9, 481320, Note_on_c, 3, 60, 80
9, 481409, Note_on_c, 3, 64, 0
9, 481409, Note_on_c, 3, 60, 0
9, 481440, Note_on_c, 3, 67, 80
9, 481440, Note_on_c, 3, 64, 80
9, 481529, Note_on_c, 3, 67, 0
9, 481529, Note_on_c, 3, 64, 0
9, 481560, Note_on_c, 3, 60, 80
9, 481560, Note_on_c, 3, 64, 80
9, 481649, Note_on_c, 3, 60, 0
9, 481649, Note_on_c, 3, 64, 0
9, 481680, Note_on_c, 3, 62, 80
9, 481680, Note_on_c, 3, 59, 80
9, 481769, Note_on_c, 3, 62, 0
9, 481769, Note_on_c, 3, 59, 0
9, 481800, Note_on_c, 3, 65, 80
9, 481800, Note_on_c, 3, 62, 80
9, 481889, Note_on_c, 3, 65, 0
9, 481889, Note_on_c, 3, 62, 0
9, 481920, Note_on_c, 3, 59, 80
9, 481920, Note_on_c, 3, 62, 80
9, 482009, Note_on_c, 3, 59, 0
9, 482009, Note_on_c, 3, 62, 0
9, 482040, Note_on_c, 3, 43, 32
9, 482159, Note_on_c, 3, 43, 0
9, 482160, Note_on_c, 3, 45, 32
9, 482279, Note_on_c, 3, 45, 0
9, 482280, Note_on_c, 3, 47, 32
9, 482399, Note_on_c, 3, 47, 0
9, 482400, Note_on_c, 3, 48, 32
9, 482519, Note_on_c, 3, 48, 0
9, 482520, Note_on_c, 3, 50, 32
9, 482639, Note_on_c, 3, 50, 0
9, 482640, Note_on_c, 3, 52, 32
9, 482759, Note_on_c, 3, 52, 0
9, 482760, Note_on_c, 3, 53, 32
9, 482879, Note_on_c, 3, 53, 0
9, 482880, Note_on_c, 3, 52, 32
9, 482999, Note_on_c, 3, 52, 0
9, 483000, Note_on_c, 3, 53, 32
9, 483119, Note_on_c, 3, 53, 0
9, 483120, Note_on_c, 3, 55, 32
9, 483239, Note_on_c, 3, 55, 0
9, 483240, Note_on_c, 3, 57, 32
9, 483359, Note_on_c, 3, 57, 0
9, 483360, Note_on_c, 3, 59, 32
9, 483479, Note_on_c, 3, 59, 0
9, 483480, Note_on_c, 3, 60, 32
9, 483599, Note_on_c, 3, 60, 0
9, 483840, Note_on_c, 3, 45, 32
9, 484004, Note_on_c, 3, 45, 0
9, 484020, Note_on_c, 3, 57, 32
9, 484064, Note_on_c, 3, 57, 0
9, 484080, Note_on_c, 3, 57, 32
9, 484184, Note_on_c, 3, 57, 0
9, 484200, Note_on_c, 3, 53, 32
9, 484319, Note_on_c, 3, 53, 0
9, 484560, Note_on_c, 3, 53, 32
9, 484560, Note_on_c, 3, 50, 32
9, 484724, Note_on_c, 3, 53, 0
9, 484724, Note_on_c, 3, 50, 0
9, 484740, Note_on_c, 3, 65, 32
9, 484740, Note_on_c, 3, 62, 32
9, 484784, Note_on_c, 3, 65, 0
9, 484784, Note_on_c, 3, 62, 0
9, 484800, Note_on_c, 3, 65, 32
9, 484800, Note_on_c, 3, 62, 32
9, 484904, Note_on_c, 3, 65, 0
9, 484904, Note_on_c, 3, 62, 0
9, 484920, Note_on_c, 3, 65, 32
9, 484920, Note_on_c, 3, 62, 32
9, 485039, Note_on_c, 3, 65, 0
9, 485039, Note_on_c, 3, 62, 0
9, 486720, Note_on_c, 3, 46, 32
9, 486884, Note_on_c, 3, 46, 0
9, 486900, Note_on_c, 3, 58, 32
9, 486944, Note_on_c, 3, 58, 0
9, 486960, Note_on_c, 3, 58, 32
9, 487064, Note_on_c, 3, 58, 0
9, 487080, Note_on_c, 3, 55, 32
9, 487199, Note_on_c, 3, 55, 0
9, 487440, Note_on_c, 3, 51, 32
9, 487604, Note_on_c, 3, 51, 0
9, 487620, Note_on_c, 3, 63, 32
9, 487664, Note_on_c, 3, 63, 0
9, 487680, Note_on_c, 3, 63, 32
9, 487784, Note_on_c, 3, 63, 0
9, 487800, Note_on_c, 3, 63, 32
9, 487919, Note_on_c, 3, 63, 0
9, 489600, Note_on_c, 3, 48, 36
9, 489600, Note_on_c, 3, 36, 36
9, 489764, Note_on_c, 3, 48, 0
9, 489764, Note_on_c, 3, 36, 0
9, 489780, Note_on_c, 3, 48, 38
9, 489780, Note_on_c, 3, 60, 38
9, 489824, Note_on_c, 3, 48, 0
9, 489824, Note_on_c, 3, 60, 0
9, 489840, Note_on_c, 3, 48, 38
9, 489840, Note_on_c, 3, 60, 38
9, 489944, Note_on_c, 3, 48, 0
9, 489944, Note_on_c, 3, 60, 0
9, 489960, Note_on_c, 3, 44, 40
9, 489960, Note_on_c, 3, 56, 40
9, 490079, Note_on_c, 3, 44, 0
9, 490079, Note_on_c, 3, 56, 0
9, 490320, Note_on_c, 3, 53, 44
9, 490320, Note_on_c, 3, 41, 44
9, 490484, Note_on_c, 3, 53, 0
9, 490484, Note_on_c, 3, 41, 0
9, 490500, Note_on_c, 3, 65, 46
9, 490500, Note_on_c, 3, 53, 46
9, 490544, Note_on_c, 3, 65, 0
9, 490544, Note_on_c, 3, 53, 0
9, 490560, Note_on_c, 3, 53, 46
9, 490560, Note_on_c, 3, 65, 46
9, 490664, Note_on_c, 3, 53, 0
9, 490664, Note_on_c, 3, 65, 0
9, 490680, Note_on_c, 3, 49, 48
9, 490680, Note_on_c, 3, 61, 48
9, 490799, Note_on_c, 3, 49, 0
9, 490799, Note_on_c, 3, 61, 0
9, 491040, Note_on_c, 3, 34, 52
9, 491040, Note_on_c, 3, 46, 52
9, 491204, Note_on_c, 3, 34, 0
9, 491204, Note_on_c, 3, 46, 0
9, 491220, Note_on_c, 3, 58, 54
9, 491220, Note_on_c, 3, 46, 54
9, 491264, Note_on_c, 3, 58, 0
9, 491264, Note_on_c, 3, 46, 0
9, 491280, Note_on_c, 3, 46, 54
9, 491280, Note_on_c, 3, 58, 54
9, 491384, Note_on_c, 3, 46, 0
9, 491384, Note_on_c, 3, 58, 0
9, 491400, Note_on_c, 3, 42, 56
9, 491400, Note_on_c, 3, 54, 56
9, 491519, Note_on_c, 3, 42, 0
9, 491519, Note_on_c, 3, 54, 0
9, 491760, Note_on_c, 3, 51, 60
9, 491760, Note_on_c, 3, 39, 60
9, 491924, Note_on_c, 3, 51, 0
9, 491924, Note_on_c, 3, 39, 0
9, 491940, Note_on_c, 3, 63, 62
9, 491940, Note_on_c, 3, 51, 62
9, 491984, Note_on_c, 3, 63, 0
9, 491984, Note_on_c, 3, 51, 0
9, 492000, Note_on_c, 3, 51, 62
9, 492000, Note_on_c, 3, 63, 62
9, 492104, Note_on_c, 3, 51, 0
9, 492104, Note_on_c, 3, 63, 0
9, 492120, Note_on_c, 3, 59, 64
9, 492120, Note_on_c, 3, 47, 64
9, 492239, Note_on_c, 3, 59, 0
9, 492239, Note_on_c, 3, 47, 0
9, 492480, Note_on_c, 3, 44, 68
9, 492644, Note_on_c, 3, 44, 0
9, 492660, Note_on_c, 3, 44, 70
9, 492660, Note_on_c, 3, 56, 70
9, 492704, Note_on_c, 3, 44, 0
9, 492704, Note_on_c, 3, 56, 0
9, 492720, Note_on_c, 3, 44, 70
9, 492720, Note_on_c, 3, 56, 70
9, 492824, Note_on_c, 3, 44, 0
9, 492824, Note_on_c, 3, 56, 0
9, 492840, Note_on_c, 3, 52, 72
9, 492840, Note_on_c, 3, 40, 72
9, 492959, Note_on_c, 3, 52, 0
9, 492959, Note_on_c, 3, 40, 0
9, 493200, Note_on_c, 3, 49, 76
9, 493200, Note_on_c, 3, 37, 76
9, 493364, Note_on_c, 3, 49, 0
9, 493364, Note_on_c, 3, 37, 0
9, 493380, Note_on_c, 3, 49, 78
9, 493380, Note_on_c, 3, 61, 78
9, 493424, Note_on_c, 3, 49, 0
9, 493424, Note_on_c, 3, 61, 0
9, 493440, Note_on_c, 3, 49, 78
9, 493440, Note_on_c, 3, 61, 78
9, 493544, Note_on_c, 3, 49, 0
9, 493544, Note_on_c, 3, 61, 0
9, 493560, Note_on_c, 3, 57, 80
9, 493560, Note_on_c, 3, 45, 80
9, 493679, Note_on_c, 3, 57, 0
9, 493679, Note_on_c, 3, 45, 0
9, 493920, Note_on_c, 3, 45, 80
9, 494084, Note_on_c, 3, 45, 0
9, 494100, Note_on_c, 3, 45, 80
9, 494100, Note_on_c, 3, 57, 80
9, 494144, Note_on_c, 3, 45, 0
9, 494144, Note_on_c, 3, 57, 0
9, 494160, Note_on_c, 3, 57, 80
9, 494160, Note_on_c, 3, 45, 80
9, 494264, Note_on_c, 3, 57, 0
9, 494264, Note_on_c, 3, 45, 0
9, 494640, Note_on_c, 3, 46, 92
9, 494640, Note_on_c, 3, 34, 92
9, 494804, Note_on_c, 3, 46, 0
9, 494804, Note_on_c, 3, 34, 0
9, 494820, Note_on_c, 3, 58, 92
9, 494820, Note_on_c, 3, 46, 92
9, 494864, Note_on_c, 3, 58, 0
9, 494864, Note_on_c, 3, 46, 0
9, 494880, Note_on_c, 3, 46, 92
9, 494880, Note_on_c, 3, 58, 92
9, 494984, Note_on_c, 3, 46, 0
9, 494984, Note_on_c, 3, 58, 0
9, 495360, Note_on_c, 3, 47, 92
9, 495360, Note_on_c, 3, 35, 92
9, 495524, Note_on_c, 3, 47, 0
9, 495524, Note_on_c, 3, 35, 0
9, 495540, Note_on_c, 3, 59, 92
9, 495540, Note_on_c, 3, 47, 92
9, 495584, Note_on_c, 3, 59, 0
9, 495584, Note_on_c, 3, 47, 0
9, 495600, Note_on_c, 3, 59, 92
9, 495600, Note_on_c, 3, 47, 92
9, 496049, Note_on_c, 3, 59, 0
9, 496049, Note_on_c, 3, 47, 0
9, 496080, Note_on_c, 3, 59, 44
9, 496244, Note_on_c, 3, 59, 0
9, 496260, Note_on_c, 3, 47, 44
9, 496304, Note_on_c, 3, 47, 0
9, 496320, Note_on_c, 3, 47, 44
9, 496424, Note_on_c, 3, 47, 0
9, 496440, Note_on_c, 3, 52, 44
9, 496529, Note_on_c, 3, 52, 0
9, 496560, Note_on_c, 3, 51, 44
9, 496560, Note_on_c, 3, 54, 44
9, 496649, Note_on_c, 3, 51, 0
9, 496649, Note_on_c, 3, 54, 0
9, 496680, Note_on_c, 3, 55, 44
9, 496680, Note_on_c, 3, 52, 44
9, 496769, Note_on_c, 3, 55, 0
9, 496769, Note_on_c, 3, 52, 0
9, 496800, Note_on_c, 3, 51, 44
9, 496800, Note_on_c, 3, 54, 44
9, 496889, Note_on_c, 3, 51, 0
9, 496889, Note_on_c, 3, 54, 0
9, 496920, Note_on_c, 3, 52, 44
9, 496920, Note_on_c, 3, 55, 44
9, 497009, Note_on_c, 3, 52, 0
9, 497009, Note_on_c, 3, 55, 0
9, 497040, Note_on_c, 3, 57, 44
9, 497040, Note_on_c, 3, 54, 44
9, 497129, Note_on_c, 3, 57, 0
9, 497129, Note_on_c, 3, 54, 0
9, 497160, Note_on_c, 3, 55, 44
9, 497160, Note_on_c, 3, 52, 44
9, 497249, Note_on_c, 3, 55, 0
9, 497249, Note_on_c, 3, 52, 0
9, 497280, Note_on_c, 3, 55, 44
9, 497280, Note_on_c, 3, 59, 44
9, 497369, Note_on_c, 3, 55, 0
9, 497369, Note_on_c, 3, 59, 0
9, 497400, Note_on_c, 3, 59, 44
9, 497400, Note_on_c, 3, 55, 44
9, 497489, Note_on_c, 3, 59, 0
9, 497489, Note_on_c, 3, 55, 0
9, 497520, Note_on_c, 3, 59, 44
9, 497520, Note_on_c, 3, 55, 44
9, 497609, Note_on_c, 3, 59, 0
9, 497609, Note_on_c, 3, 55, 0
9, 497640, Note_on_c, 3, 54, 44
9, 497640, Note_on_c, 3, 57, 44
9, 497729, Note_on_c, 3, 54, 0
9, 497729, Note_on_c, 3, 57, 0
9, 497760, Note_on_c, 3, 55, 44
9, 497760, Note_on_c, 3, 52, 44
9, 497849, Note_on_c, 3, 55, 0
9, 497849, Note_on_c, 3, 52, 0
9, 497880, Note_on_c, 3, 54, 44
9, 497880, Note_on_c, 3, 57, 44
9, 497969, Note_on_c, 3, 54, 0
9, 497969, Note_on_c, 3, 57, 0
9, 498000, Note_on_c, 3, 52, 44
9, 498000, Note_on_c, 3, 55, 44
9, 498089, Note_on_c, 3, 52, 0
9, 498089, Note_on_c, 3, 55, 0
9, 498120, Note_on_c, 3, 51, 44
9, 498120, Note_on_c, 3, 54, 44
9, 498209, Note_on_c, 3, 51, 0
9, 498209, Note_on_c, 3, 54, 0
9, 498240, Note_on_c, 3, 59, 44
9, 498404, Note_on_c, 3, 59, 0
9, 498420, Note_on_c, 3, 47, 44
9, 498464, Note_on_c, 3, 47, 0
9, 498480, Note_on_c, 3, 47, 44
9, 498584, Note_on_c, 3, 47, 0
9, 498600, Note_on_c, 3, 47, 44
9, 498600, Note_on_c, 3, 52, 44
9, 498689, Note_on_c, 3, 47, 0
9, 498689, Note_on_c, 3, 52, 0
9, 498720, Note_on_c, 3, 54, 44
9, 498720, Note_on_c, 3, 47, 44
9, 498809, Note_on_c, 3, 54, 0
9, 498809, Note_on_c, 3, 47, 0
9, 498840, Note_on_c, 3, 47, 44
9, 498840, Note_on_c, 3, 55, 44
9, 498929, Note_on_c, 3, 47, 0
9, 498929, Note_on_c, 3, 55, 0
9, 498960, Note_on_c, 3, 47, 44
9, 498960, Note_on_c, 3, 54, 44
9, 499049, Note_on_c, 3, 47, 0
9, 499049, Note_on_c, 3, 54, 0
9, 499080, Note_on_c, 3, 55, 44
9, 499080, Note_on_c, 3, 47, 44
9, 499169, Note_on_c, 3, 55, 0
9, 499169, Note_on_c, 3, 47, 0
9, 499200, Note_on_c, 3, 47, 44
9, 499200, Note_on_c, 3, 57, 44
9, 499289, Note_on_c, 3, 47, 0
9, 499289, Note_on_c, 3, 57, 0
9, 499320, Note_on_c, 3, 52, 44
9, 499320, Note_on_c, 3, 56, 44
9, 499409, Note_on_c, 3, 52, 0
9, 499409, Note_on_c, 3, 56, 0
9, 499440, Note_on_c, 3, 52, 44
9, 499440, Note_on_c, 3, 64, 44
9, 499529, Note_on_c, 3, 52, 0
9, 499529, Note_on_c, 3, 64, 0
9, 499560, Note_on_c, 3, 52, 44
9, 499560, Note_on_c, 3, 64, 44
9, 499649, Note_on_c, 3, 52, 0
9, 499649, Note_on_c, 3, 64, 0
9, 499680, Note_on_c, 3, 60, 44
9, 499680, Note_on_c, 3, 64, 44
9, 499769, Note_on_c, 3, 60, 0
9, 499769, Note_on_c, 3, 64, 0
9, 499800, Note_on_c, 3, 59, 44
9, 499800, Note_on_c, 3, 62, 44
9, 499889, Note_on_c, 3, 59, 0
9, 499889, Note_on_c, 3, 62, 0
9, 499920, Note_on_c, 3, 57, 44
9, 499920, Note_on_c, 3, 60, 44
9, 500009, Note_on_c, 3, 57, 0
9, 500009, Note_on_c, 3, 60, 0
9, 500040, Note_on_c, 3, 59, 44
9, 500040, Note_on_c, 3, 62, 44
9, 500129, Note_on_c, 3, 59, 0
9, 500129, Note_on_c, 3, 62, 0
9, 500160, Note_on_c, 3, 57, 44
9, 500160, Note_on_c, 3, 60, 44
9, 500249, Note_on_c, 3, 57, 0
9, 500249, Note_on_c, 3, 60, 0
9, 500280, Note_on_c, 3, 59, 44
9, 500280, Note_on_c, 3, 56, 44
9, 500369, Note_on_c, 3, 59, 0
9, 500369, Note_on_c, 3, 56, 0
9, 500400, Note_on_c, 3, 64, 44
9, 500564, Note_on_c, 3, 64, 0
9, 500580, Note_on_c, 3, 52, 44
9, 500624, Note_on_c, 3, 52, 0
9, 500640, Note_on_c, 3, 52, 44
9, 500744, Note_on_c, 3, 52, 0
9, 500760, Note_on_c, 3, 52, 44
9, 500760, Note_on_c, 3, 57, 44
9, 500849, Note_on_c, 3, 52, 0
9, 500849, Note_on_c, 3, 57, 0
9, 500880, Note_on_c, 3, 59, 44
9, 500880, Note_on_c, 3, 56, 44
9, 500969, Note_on_c, 3, 59, 0
9, 500969, Note_on_c, 3, 56, 0
9, 501000, Note_on_c, 3, 57, 44
9, 501000, Note_on_c, 3, 60, 44
9, 501089, Note_on_c, 3, 57, 0
9, 501089, Note_on_c, 3, 60, 0
9, 501120, Note_on_c, 3, 59, 44
9, 501120, Note_on_c, 3, 56, 44
9, 501209, Note_on_c, 3, 59, 0
9, 501209, Note_on_c, 3, 56, 0
9, 501240, Note_on_c, 3, 57, 44
9, 501240, Note_on_c, 3, 60, 44
9, 501329, Note_on_c, 3, 57, 0
9, 501329, Note_on_c, 3, 60, 0
9, 501360, Note_on_c, 3, 62, 44
9, 501360, Note_on_c, 3, 59, 44
9, 501449, Note_on_c, 3, 62, 0
9, 501449, Note_on_c, 3, 59, 0
9, 501480, Note_on_c, 3, 60, 44
9, 501480, Note_on_c, 3, 57, 44
9, 501569, Note_on_c, 3, 60, 0
9, 501569, Note_on_c, 3, 57, 0
9, 501600, Note_on_c, 3, 60, 44
9, 501600, Note_on_c, 3, 64, 44
9, 501689, Note_on_c, 3, 60, 0
9, 501689, Note_on_c, 3, 64, 0
9, 501720, Note_on_c, 3, 60, 44
9, 501720, Note_on_c, 3, 64, 44
9, 501809, Note_on_c, 3, 60, 0
9, 501809, Note_on_c, 3, 64, 0
9, 501840, Note_on_c, 3, 60, 44
9, 501840, Note_on_c, 3, 64, 44
9, 501929, Note_on_c, 3, 60, 0
9, 501929, Note_on_c, 3, 64, 0
9, 501960, Note_on_c, 3, 62, 44
9, 501960, Note_on_c, 3, 59, 44
9, 502049, Note_on_c, 3, 62, 0
9, 502049, Note_on_c, 3, 59, 0
9, 502080, Note_on_c, 3, 60, 44
9, 502080, Note_on_c, 3, 57, 44
9, 502169, Note_on_c, 3, 60, 0
9, 502169, Note_on_c, 3, 57, 0
9, 502200, Note_on_c, 3, 59, 44
9, 502200, Note_on_c, 3, 62, 44
9, 502289, Note_on_c, 3, 59, 0
9, 502289, Note_on_c, 3, 62, 0
9, 502320, Note_on_c, 3, 60, 44
9, 502320, Note_on_c, 3, 57, 44
9, 502409, Note_on_c, 3, 60, 0
9, 502409, Note_on_c, 3, 57, 0
9, 502440, Note_on_c, 3, 56, 44
9, 502440, Note_on_c, 3, 59, 44
9, 502529, Note_on_c, 3, 56, 0
9, 502529, Note_on_c, 3, 59, 0
9, 502920, Note_on_c, 3, 57, 44
9, 502920, Note_on_c, 3, 60, 44
9, 503009, Note_on_c, 3, 57, 0
9, 503009, Note_on_c, 3, 60, 0
9, 503040, Note_on_c, 3, 55, 44
9, 503040, Note_on_c, 3, 58, 44
9, 503129, Note_on_c, 3, 55, 0
9, 503129, Note_on_c, 3, 58, 0
9, 503160, Note_on_c, 3, 53, 44
9, 503160, Note_on_c, 3, 57, 44
9, 503249, Note_on_c, 3, 53, 0
9, 503249, Note_on_c, 3, 57, 0
9, 503280, Note_on_c, 3, 58, 44
9, 503280, Note_on_c, 3, 62, 44
9, 503369, Note_on_c, 3, 58, 0
9, 503369, Note_on_c, 3, 62, 0
9, 503400, Note_on_c, 3, 60, 44
9, 503400, Note_on_c, 3, 57, 44
9, 503489, Note_on_c, 3, 60, 0
9, 503489, Note_on_c, 3, 57, 0
9, 503520, Note_on_c, 3, 55, 44
9, 503520, Note_on_c, 3, 58, 44
9, 503609, Note_on_c, 3, 55, 0
9, 503609, Note_on_c, 3, 58, 0
9, 504000, Note_on_c, 3, 65, 44
9, 504000, Note_on_c, 3, 57, 44
9, 504089, Note_on_c, 3, 65, 0
9, 504089, Note_on_c, 3, 57, 0
9, 504120, Note_on_c, 3, 55, 44
9, 504120, Note_on_c, 3, 58, 44
9, 504209, Note_on_c, 3, 55, 0
9, 504209, Note_on_c, 3, 58, 0
9, 504240, Note_on_c, 3, 53, 44
9, 504240, Note_on_c, 3, 57, 44
9, 504329, Note_on_c, 3, 53, 0
9, 504329, Note_on_c, 3, 57, 0
9, 504360, Note_on_c, 3, 55, 44
9, 504360, Note_on_c, 3, 58, 44
9, 504449, Note_on_c, 3, 55, 0
9, 504449, Note_on_c, 3, 58, 0
9, 504480, Note_on_c, 3, 53, 44
9, 504480, Note_on_c, 3, 57, 44
9, 504569, Note_on_c, 3, 53, 0
9, 504569, Note_on_c, 3, 57, 0
9, 504600, Note_on_c, 3, 52, 44
9, 504600, Note_on_c, 3, 55, 44
9, 504689, Note_on_c, 3, 52, 0
9, 504689, Note_on_c, 3, 55, 0
9, 505080, Note_on_c, 3, 65, 44
9, 505080, Note_on_c, 3, 57, 44
9, 505169, Note_on_c, 3, 65, 0
9, 505169, Note_on_c, 3, 57, 0
9, 505200, Note_on_c, 3, 58, 44
9, 505200, Note_on_c, 3, 55, 44
9, 505289, Note_on_c, 3, 58, 0
9, 505289, Note_on_c, 3, 55, 0
9, 505320, Note_on_c, 3, 53, 44
9, 505320, Note_on_c, 3, 57, 44
9, 505409, Note_on_c, 3, 53, 0
9, 505409, Note_on_c, 3, 57, 0
9, 505440, Note_on_c, 3, 62, 44
9, 505440, Note_on_c, 3, 58, 44
9, 505529, Note_on_c, 3, 62, 0
9, 505529, Note_on_c, 3, 58, 0
9, 505560, Note_on_c, 3, 57, 44
9, 505560, Note_on_c, 3, 60, 44
9, 505649, Note_on_c, 3, 57, 0
9, 505649, Note_on_c, 3, 60, 0
9, 505680, Note_on_c, 3, 55, 44
9, 505680, Note_on_c, 3, 58, 44
9, 505769, Note_on_c, 3, 55, 0
9, 505769, Note_on_c, 3, 58, 0
9, 506160, Note_on_c, 3, 60, 44
9, 506160, Note_on_c, 3, 57, 44
9, 506249, Note_on_c, 3, 60, 0
9, 506249, Note_on_c, 3, 57, 0
9, 506280, Note_on_c, 3, 55, 44
9, 506280, Note_on_c, 3, 64, 44
9, 506369, Note_on_c, 3, 55, 0
9, 506369, Note_on_c, 3, 64, 0
9, 506400, Note_on_c, 3, 57, 44
9, 506400, Note_on_c, 3, 65, 44
9, 506489, Note_on_c, 3, 57, 0
9, 506489, Note_on_c, 3, 65, 0
9, 506520, Note_on_c, 3, 55, 44
9, 506520, Note_on_c, 3, 64, 44
9, 506609, Note_on_c, 3, 55, 0
9, 506609, Note_on_c, 3, 64, 0
9, 506640, Note_on_c, 3, 57, 44
9, 506640, Note_on_c, 3, 65, 44
9, 506729, Note_on_c, 3, 57, 0
9, 506729, Note_on_c, 3, 65, 0
9, 506760, Note_on_c, 3, 58, 44
9, 506760, Note_on_c, 3, 67, 44
9, 506849, Note_on_c, 3, 58, 0
9, 506849, Note_on_c, 3, 67, 0
9, 506880, Note_on_c, 3, 60, 44
9, 506880, Note_on_c, 3, 57, 44
9, 506969, Note_on_c, 3, 60, 0
9, 506969, Note_on_c, 3, 57, 0
9, 507000, Note_on_c, 3, 58, 44
9, 507000, Note_on_c, 3, 55, 44
9, 507089, Note_on_c, 3, 58, 0
9, 507089, Note_on_c, 3, 55, 0
9, 507120, Note_on_c, 3, 57, 44
9, 507120, Note_on_c, 3, 53, 44
9, 507209, Note_on_c, 3, 57, 0
9, 507209, Note_on_c, 3, 53, 0
9, 507240, Note_on_c, 3, 57, 44
9, 507240, Note_on_c, 3, 53, 44
9, 507329, Note_on_c, 3, 57, 0
9, 507329, Note_on_c, 3, 53, 0
9, 507360, Note_on_c, 3, 55, 44
9, 507360, Note_on_c, 3, 58, 44
9, 507449, Note_on_c, 3, 55, 0
9, 507449, Note_on_c, 3, 58, 0
9, 507480, Note_on_c, 3, 57, 44
9, 507480, Note_on_c, 3, 60, 44
9, 507569, Note_on_c, 3, 57, 0
9, 507569, Note_on_c, 3, 60, 0
9, 507600, Note_on_c, 3, 57, 43
9, 507600, Note_on_c, 3, 60, 43
9, 507689, Note_on_c, 3, 57, 0
9, 507689, Note_on_c, 3, 60, 0
9, 507720, Note_on_c, 3, 58, 43
9, 507720, Note_on_c, 3, 55, 43
9, 507809, Note_on_c, 3, 58, 0
9, 507809, Note_on_c, 3, 55, 0
9, 507840, Note_on_c, 3, 60, 43
9, 507840, Note_on_c, 3, 57, 43
9, 507929, Note_on_c, 3, 60, 0
9, 507929, Note_on_c, 3, 57, 0
9, 508320, Note_on_c, 3, 60, 41
9, 508484, Note_on_c, 3, 60, 0
9, 508500, Note_on_c, 3, 48, 41
9, 508544, Note_on_c, 3, 48, 0
9, 508560, Note_on_c, 3, 48, 40
9, 508664, Note_on_c, 3, 48, 0
9, 509040, Note_on_c, 3, 57, 39
9, 509040, Note_on_c, 3, 53, 39
9, 509144, Note_on_c, 3, 57, 0
9, 509144, Note_on_c, 3, 53, 0
9, 509160, Note_on_c, 3, 55, 39
9, 509160, Note_on_c, 3, 52, 39
9, 509264, Note_on_c, 3, 55, 0
9, 509264, Note_on_c, 3, 52, 0
9, 509280, Note_on_c, 3, 50, 38
9, 509280, Note_on_c, 3, 53, 38
9, 509384, Note_on_c, 3, 50, 0
9, 509384, Note_on_c, 3, 53, 0
9, 509400, Note_on_c, 3, 50, 38
9, 509400, Note_on_c, 3, 53, 38
9, 509504, Note_on_c, 3, 50, 0
9, 509504, Note_on_c, 3, 53, 0
9, 509520, Note_on_c, 3, 52, 38
9, 509520, Note_on_c, 3, 55, 38
9, 509624, Note_on_c, 3, 52, 0
9, 509624, Note_on_c, 3, 55, 0
9, 509640, Note_on_c, 3, 53, 37
9, 509640, Note_on_c, 3, 57, 37
9, 509744, Note_on_c, 3, 53, 0
9, 509744, Note_on_c, 3, 57, 0
9, 509760, Note_on_c, 3, 57, 37
9, 509760, Note_on_c, 3, 53, 37
9, 509864, Note_on_c, 3, 57, 0
9, 509864, Note_on_c, 3, 53, 0
9, 509880, Note_on_c, 3, 55, 36
9, 509880, Note_on_c, 3, 52, 36
9, 509984, Note_on_c, 3, 55, 0
9, 509984, Note_on_c, 3, 52, 0
9, 510000, Note_on_c, 3, 57, 36
9, 510000, Note_on_c, 3, 53, 36
9, 510119, Note_on_c, 3, 57, 0
9, 510119, Note_on_c, 3, 53, 0
9, 511200, Note_on_c, 3, 53, 32
9, 511200, Note_on_c, 3, 57, 32
9, 511304, Note_on_c, 3, 53, 0
9, 511304, Note_on_c, 3, 57, 0
9, 511320, Note_on_c, 3, 55, 32
9, 511320, Note_on_c, 3, 52, 32
9, 511424, Note_on_c, 3, 55, 0
9, 511424, Note_on_c, 3, 52, 0
9, 511440, Note_on_c, 3, 50, 32
9, 511440, Note_on_c, 3, 53, 32
9, 511544, Note_on_c, 3, 50, 0
9, 511544, Note_on_c, 3, 53, 0
9, 511560, Note_on_c, 3, 50, 32
9, 511560, Note_on_c, 3, 53, 32
9, 511664, Note_on_c, 3, 50, 0
9, 511664, Note_on_c, 3, 53, 0
9, 511680, Note_on_c, 3, 52, 32
9, 511680, Note_on_c, 3, 55, 32
9, 511784, Note_on_c, 3, 52, 0
9, 511784, Note_on_c, 3, 55, 0
9, 511800, Note_on_c, 3, 53, 32
9, 511800, Note_on_c, 3, 57, 32
9, 511904, Note_on_c, 3, 53, 0
9, 511904, Note_on_c, 3, 57, 0
9, 511920, Note_on_c, 3, 57, 32
9, 511920, Note_on_c, 3, 53, 32
9, 512024, Note_on_c, 3, 57, 0
9, 512024, Note_on_c, 3, 53, 0
9, 512040, Note_on_c, 3, 55, 32
9, 512040, Note_on_c, 3, 52, 32
9, 512144, Note_on_c, 3, 55, 0
9, 512144, Note_on_c, 3, 52, 0
9, 512160, Note_on_c, 3, 57, 32
9, 512160, Note_on_c, 3, 53, 32
9, 512279, Note_on_c, 3, 57, 0
9, 512279, Note_on_c, 3, 53, 0
9, 514440, Note_on_c, 3, 57, 32
9, 514604, Note_on_c, 3, 57, 0
9, 514620, Note_on_c, 3, 45, 32
9, 514664, Note_on_c, 3, 45, 0
9, 514680, Note_on_c, 3, 45, 32
9, 514784, Note_on_c, 3, 45, 0
9, 514800, Note_on_c, 3, 53, 32
9, 514800, Note_on_c, 3, 50, 32
9, 514904, Note_on_c, 3, 53, 0
9, 514904, Note_on_c, 3, 50, 0
9, 514920, Note_on_c, 3, 52, 32
9, 514920, Note_on_c, 3, 55, 32
9, 515024, Note_on_c, 3, 52, 0
9, 515024, Note_on_c, 3, 55, 0
9, 515040, Note_on_c, 3, 53, 32
9, 515040, Note_on_c, 3, 57, 32
9, 515144, Note_on_c, 3, 53, 0
9, 515144, Note_on_c, 3, 57, 0
9, 515160, Note_on_c, 3, 55, 32
9, 515160, Note_on_c, 3, 52, 32
9, 515264, Note_on_c, 3, 55, 0
9, 515264, Note_on_c, 3, 52, 0
9, 515280, Note_on_c, 3, 57, 32
9, 515280, Note_on_c, 3, 53, 32
9, 515384, Note_on_c, 3, 57, 0
9, 515384, Note_on_c, 3, 53, 0
9, 515400, Note_on_c, 3, 55, 32
9, 515400, Note_on_c, 3, 57, 32
9, 515504, Note_on_c, 3, 55, 0
9, 515504, Note_on_c, 3, 57, 0
9, 515520, Note_on_c, 3, 53, 32
9, 515520, Note_on_c, 3, 57, 32
9, 515624, Note_on_c, 3, 53, 0
9, 515624, Note_on_c, 3, 57, 0
9, 515640, Note_on_c, 3, 57, 32
9, 515640, Note_on_c, 3, 65, 32
9, 515744, Note_on_c, 3, 57, 0
9, 515744, Note_on_c, 3, 65, 0
9, 515760, Note_on_c, 3, 57, 32
9, 515760, Note_on_c, 3, 65, 32
9, 515864, Note_on_c, 3, 57, 0
9, 515864, Note_on_c, 3, 65, 0
9, 515880, Note_on_c, 3, 57, 32
9, 515880, Note_on_c, 3, 65, 32
9, 515984, Note_on_c, 3, 57, 0
9, 515984, Note_on_c, 3, 65, 0
9, 516000, Note_on_c, 3, 64, 32
9, 516000, Note_on_c, 3, 55, 32
9, 516104, Note_on_c, 3, 64, 0
9, 516104, Note_on_c, 3, 55, 0
9, 516120, Note_on_c, 3, 62, 32
9, 516120, Note_on_c, 3, 53, 32
9, 516224, Note_on_c, 3, 62, 0
9, 516224, Note_on_c, 3, 53, 0
9, 516240, Note_on_c, 3, 55, 32
9, 516240, Note_on_c, 3, 64, 32
9, 516344, Note_on_c, 3, 55, 0
9, 516344, Note_on_c, 3, 64, 0
9, 516360, Note_on_c, 3, 53, 32
9, 516360, Note_on_c, 3, 62, 32
9, 516464, Note_on_c, 3, 53, 0
9, 516464, Note_on_c, 3, 62, 0
9, 516480, Note_on_c, 3, 61, 32
9, 516480, Note_on_c, 3, 52, 32
9, 516584, Note_on_c, 3, 61, 0
9, 516584, Note_on_c, 3, 52, 0
9, 516600, Note_on_c, 3, 53, 32
9, 516600, Note_on_c, 3, 62, 32
9, 516704, Note_on_c, 3, 53, 0
9, 516704, Note_on_c, 3, 62, 0
9, 516720, Note_on_c, 3, 65, 32
9, 516824, Note_on_c, 3, 65, 0
9, 516840, Note_on_c, 3, 65, 32
9, 516944, Note_on_c, 3, 65, 0
9, 516960, Note_on_c, 3, 65, 32
9, 517064, Note_on_c, 3, 65, 0
9, 517080, Note_on_c, 3, 64, 32
9, 517184, Note_on_c, 3, 64, 0
9, 517200, Note_on_c, 3, 62, 32
9, 517304, Note_on_c, 3, 62, 0
9, 517320, Note_on_c, 3, 64, 32
9, 517424, Note_on_c, 3, 64, 0
9, 517440, Note_on_c, 3, 62, 32
9, 517544, Note_on_c, 3, 62, 0
9, 517560, Note_on_c, 3, 61, 32
9, 517664, Note_on_c, 3, 61, 0
9, 517680, Note_on_c, 3, 62, 32
9, 517784, Note_on_c, 3, 62, 0
9, 517800, Note_on_c, 3, 67, 32
9, 517904, Note_on_c, 3, 67, 0
9, 517920, Note_on_c, 3, 65, 32
9, 518024, Note_on_c, 3, 65, 0
9, 518040, Note_on_c, 3, 65, 32
9, 518144, Note_on_c, 3, 65, 0
9, 518160, Note_on_c, 3, 63, 32
9, 518264, Note_on_c, 3, 63, 0
9, 518280, Note_on_c, 3, 59, 32
9, 518384, Note_on_c, 3, 59, 0
9, 518400, Note_on_c, 3, 60, 32
9, 518504, Note_on_c, 3, 60, 0
9, 518520, Note_on_c, 3, 65, 32
9, 518624, Note_on_c, 3, 65, 0
9, 518640, Note_on_c, 3, 63, 32
9, 518744, Note_on_c, 3, 63, 0
9, 518760, Note_on_c, 3, 65, 32
9, 518864, Note_on_c, 3, 65, 0
9, 518880, Note_on_c, 3, 63, 32
9, 518984, Note_on_c, 3, 63, 0
9, 519000, Note_on_c, 3, 67, 32
9, 519104, Note_on_c, 3, 67, 0
9, 519120, Note_on_c, 3, 67, 32
9, 519284, Note_on_c, 3, 67, 0
9, 519300, Note_on_c, 3, 55, 32
9, 519344, Note_on_c, 3, 55, 0
9, 519360, Note_on_c, 3, 55, 32
9, 519464, Note_on_c, 3, 55, 0
9, 519480, Note_on_c, 3, 58, 32
9, 519584, Note_on_c, 3, 58, 0
9, 519600, Note_on_c, 3, 58, 32
9, 519704, Note_on_c, 3, 58, 0
9, 519720, Note_on_c, 3, 58, 32
9, 519824, Note_on_c, 3, 58, 0
9, 519840, Note_on_c, 3, 58, 32
9, 519944, Note_on_c, 3, 58, 0
9, 519960, Note_on_c, 3, 58, 32
9, 520064, Note_on_c, 3, 58, 0
9, 520080, Note_on_c, 3, 58, 32
9, 520184, Note_on_c, 3, 58, 0
9, 520200, Note_on_c, 3, 58, 32
9, 520304, Note_on_c, 3, 58, 0
9, 520320, Note_on_c, 3, 58, 32
9, 520424, Note_on_c, 3, 58, 0
9, 520440, Note_on_c, 3, 58, 32
9, 520544, Note_on_c, 3, 58, 0
9, 520560, Note_on_c, 3, 58, 32
9, 520664, Note_on_c, 3, 58, 0
9, 520680, Note_on_c, 3, 58, 32
9, 520784, Note_on_c, 3, 58, 0
9, 520800, Note_on_c, 3, 58, 32
9, 520904, Note_on_c, 3, 58, 0
9, 520920, Note_on_c, 3, 58, 32
9, 521024, Note_on_c, 3, 58, 0
9, 521040, Note_on_c, 3, 58, 32
9, 521144, Note_on_c, 3, 58, 0
9, 521160, Note_on_c, 3, 58, 32
9, 521264, Note_on_c, 3, 58, 0
9, 521280, Note_on_c, 3, 58, 32
9, 521384, Note_on_c, 3, 58, 0
9, 521400, Note_on_c, 3, 58, 32
9, 521504, Note_on_c, 3, 58, 0
9, 521520, Note_on_c, 3, 58, 32
9, 521624, Note_on_c, 3, 58, 0
9, 521640, Note_on_c, 3, 58, 32
9, 521759, Note_on_c, 3, 58, 0
9, 523080, Note_on_c, 3, 58, 32
9, 523199, Note_on_c, 3, 58, 0
9, 523440, Note_on_c, 3, 58, 32
9, 523559, Note_on_c, 3, 58, 0
9, 523800, Note_on_c, 3, 58, 32
9, 523919, Note_on_c, 3, 58, 0
9, 524160, Note_on_c, 3, 58, 32
9, 524279, Note_on_c, 3, 58, 0
9, 524520, Note_on_c, 3, 58, 32
9, 524520, Note_on_c, 3, 46, 32
9, 524639, Note_on_c, 3, 58, 0
9, 524639, Note_on_c, 3, 46, 0
9, 525960, Note_on_c, 3, 45, 44
9, 525960, Note_on_c, 3, 57, 44
9, 526079, Note_on_c, 3, 45, 0
9, 526079, Note_on_c, 3, 57, 0
9, 526680, Note_on_c, 3, 45, 62
9, 526680, Note_on_c, 3, 57, 62
9, 526799, Note_on_c, 3, 45, 0
9, 526799, Note_on_c, 3, 57, 0
9, 527400, Note_on_c, 3, 45, 80
9, 527400, Note_on_c, 3, 57, 80
9, 527519, Note_on_c, 3, 45, 0
9, 527519, Note_on_c, 3, 57, 0
9, 528120, Note_on_c, 3, 45, 86
9, 528120, Note_on_c, 3, 57, 86
9, 528239, Note_on_c, 3, 45, 0
9, 528239, Note_on_c, 3, 57, 0
9, 528840, Note_on_c, 3, 38, 92
9, 529004, Note_on_c, 3, 38, 0
9, 529020, Note_on_c, 3, 38, 92
9, 529064, Note_on_c, 3, 38, 0
9, 529080, Note_on_c, 3, 38, 92
9, 529184, Note_on_c, 3, 38, 0
9, 529200, Note_on_c, 3, 38, 92
9, 529364, Note_on_c, 3, 38, 0
9, 529380, Note_on_c, 3, 38, 92
9, 529424, Note_on_c, 3, 38, 0
9, 529440, Note_on_c, 3, 38, 92
9, 529544, Note_on_c, 3, 38, 0
9, 529560, Note_on_c, 3, 38, 92
9, 529724, Note_on_c, 3, 38, 0
9, 529740, Note_on_c, 3, 38, 92
9, 529784, Note_on_c, 3, 38, 0
9, 529800, Note_on_c, 3, 38, 92
9, 529904, Note_on_c, 3, 38, 0
9, 529920, Note_on_c, 3, 38, 92
9, 530084, Note_on_c, 3, 38, 0
9, 530100, Note_on_c, 3, 38, 92
9, 530144, Note_on_c, 3, 38, 0
9, 530160, Note_on_c, 3, 38, 92
9, 530264, Note_on_c, 3, 38, 0
9, 530280, Note_on_c, 3, 38, 92
9, 530444, Note_on_c, 3, 38, 0
9, 530460, Note_on_c, 3, 38, 92
9, 530504, Note_on_c, 3, 38, 0
9, 530520, Note_on_c, 3, 38, 92
9, 530624, Note_on_c, 3, 38, 0
9, 530640, Note_on_c, 3, 38, 92
9, 530804, Note_on_c, 3, 38, 0
9, 530820, Note_on_c, 3, 38, 92
9, 530864, Note_on_c, 3, 38, 0
9, 530880, Note_on_c, 3, 38, 92
9, 530984, Note_on_c, 3, 38, 0
9, 531000, Note_on_c, 3, 38, 92
9, 531164, Note_on_c, 3, 38, 0
9, 531180, Note_on_c, 3, 38, 92
9, 531224, Note_on_c, 3, 38, 0
9, 531240, Note_on_c, 3, 38, 92
9, 531344, Note_on_c, 3, 38, 0
9, 531360, Note_on_c, 3, 38, 92
9, 531524, Note_on_c, 3, 38, 0
9, 531540, Note_on_c, 3, 38, 92
9, 531584, Note_on_c, 3, 38, 0
9, 531600, Note_on_c, 3, 38, 92
9, 531704, Note_on_c, 3, 38, 0
9, 531720, Note_on_c, 3, 38, 92
9, 531884, Note_on_c, 3, 38, 0
9, 531900, Note_on_c, 3, 38, 92
9, 531944, Note_on_c, 3, 38, 0
9, 531960, Note_on_c, 3, 38, 92
9, 532064, Note_on_c, 3, 38, 0
9, 532080, Note_on_c, 3, 38, 92
9, 532244, Note_on_c, 3, 38, 0
9, 532260, Note_on_c, 3, 38, 92
9, 532304, Note_on_c, 3, 38, 0
9, 532320, Note_on_c, 3, 38, 92
9, 532424, Note_on_c, 3, 38, 0
9, 532440, Note_on_c, 3, 38, 92
9, 532604, Note_on_c, 3, 38, 0
9, 532620, Note_on_c, 3, 38, 92
9, 532664, Note_on_c, 3, 38, 0
9, 532680, Note_on_c, 3, 38, 92
9, 532784, Note_on_c, 3, 38, 0
9, 532800, Note_on_c, 3, 38, 92
9, 532964, Note_on_c, 3, 38, 0
9, 532980, Note_on_c, 3, 38, 92
9, 533024, Note_on_c, 3, 38, 0
9, 533040, Note_on_c, 3, 38, 92
9, 533144, Note_on_c, 3, 38, 0
9, 533160, Note_on_c, 3, 38, 92
9, 533324, Note_on_c, 3, 38, 0
9, 533340, Note_on_c, 3, 38, 92
9, 533384, Note_on_c, 3, 38, 0
9, 533400, Note_on_c, 3, 38, 92
9, 533504, Note_on_c, 3, 38, 0
9, 533520, Note_on_c, 3, 38, 92
9, 533684, Note_on_c, 3, 38, 0
9, 533700, Note_on_c, 3, 38, 92
9, 533744, Note_on_c, 3, 38, 0
9, 533760, Note_on_c, 3, 38, 92
9, 533864, Note_on_c, 3, 38, 0
9, 533880, Note_on_c, 3, 38, 92
9, 534044, Note_on_c, 3, 38, 0
9, 534060, Note_on_c, 3, 38, 92
9, 534104, Note_on_c, 3, 38, 0
9, 534120, Note_on_c, 3, 38, 92
9, 534224, Note_on_c, 3, 38, 0
9, 534240, Note_on_c, 3, 38, 92
9, 534404, Note_on_c, 3, 38, 0
9, 534420, Note_on_c, 3, 38, 92
9, 534464, Note_on_c, 3, 38, 0
9, 534480, Note_on_c, 3, 38, 92
9, 534584, Note_on_c, 3, 38, 0
9, 534600, Note_on_c, 3, 63, 92
9, 534600, Note_on_c, 3, 51, 92
9, 534689, Note_on_c, 3, 63, 0
9, 534689, Note_on_c, 3, 51, 0
9, 534720, Note_on_c, 3, 50, 92
9, 534720, Note_on_c, 3, 62, 92
9, 534809, Note_on_c, 3, 50, 0
9, 534809, Note_on_c, 3, 62, 0
9, 534840, Note_on_c, 3, 60, 92
9, 534840, Note_on_c, 3, 48, 92
9, 534929, Note_on_c, 3, 60, 0
9, 534929, Note_on_c, 3, 48, 0
9, 534960, Note_on_c, 3, 58, 92
9, 534960, Note_on_c, 3, 46, 92
9, 535049, Note_on_c, 3, 58, 0
9, 535049, Note_on_c, 3, 46, 0
9, 535080, Note_on_c, 3, 45, 92
9, 535080, Note_on_c, 3, 57, 92
9, 535169, Note_on_c, 3, 45, 0
9, 535169, Note_on_c, 3, 57, 0
9, 535200, Note_on_c, 3, 55, 92
9, 535200, Note_on_c, 3, 43, 92
9, 535289, Note_on_c, 3, 55, 0
9, 535289, Note_on_c, 3, 43, 0
9, 535320, Note_on_c, 3, 54, 92
9, 535320, Note_on_c, 3, 42, 92
9, 535409, Note_on_c, 3, 54, 0
9, 535409, Note_on_c, 3, 42, 0
9, 535440, Note_on_c, 3, 55, 92
9, 535440, Note_on_c, 3, 43, 92
9, 535529, Note_on_c, 3, 55, 0
9, 535529, Note_on_c, 3, 43, 0
9, 535560, Note_on_c, 3, 45, 92
9, 535560, Note_on_c, 3, 57, 92
9, 535649, Note_on_c, 3, 45, 0
9, 535649, Note_on_c, 3, 57, 0
9, 535680, Note_on_c, 3, 43, 92
9, 535680, Note_on_c, 3, 55, 92
9, 535769, Note_on_c, 3, 43, 0
9, 535769, Note_on_c, 3, 55, 0
9, 535800, Note_on_c, 3, 57, 92
9, 535800, Note_on_c, 3, 45, 92
9, 535889, Note_on_c, 3, 57, 0
9, 535889, Note_on_c, 3, 45, 0
9, 535920, Note_on_c, 3, 58, 92
9, 535920, Note_on_c, 3, 46, 92
9, 536009, Note_on_c, 3, 58, 0
9, 536009, Note_on_c, 3, 46, 0
9, 536040, Note_on_c, 3, 51, 80
9, 536040, Note_on_c, 3, 63, 80
9, 536129, Note_on_c, 3, 51, 0
9, 536129, Note_on_c, 3, 63, 0
9, 536160, Note_on_c, 3, 50, 80
9, 536160, Note_on_c, 3, 62, 80
9, 536249, Note_on_c, 3, 50, 0
9, 536249, Note_on_c, 3, 62, 0
9, 536280, Note_on_c, 3, 48, 80
9, 536280, Note_on_c, 3, 60, 80
9, 536369, Note_on_c, 3, 48, 0
9, 536369, Note_on_c, 3, 60, 0
9, 536400, Note_on_c, 3, 58, 80
9, 536400, Note_on_c, 3, 46, 80
9, 536489, Note_on_c, 3, 58, 0
9, 536489, Note_on_c, 3, 46, 0
9, 536520, Note_on_c, 3, 45, 80
9, 536520, Note_on_c, 3, 57, 80
9, 536609, Note_on_c, 3, 45, 0
9, 536609, Note_on_c, 3, 57, 0
9, 536640, Note_on_c, 3, 43, 80
9, 536640, Note_on_c, 3, 55, 80
9, 536729, Note_on_c, 3, 43, 0
9, 536729, Note_on_c, 3, 55, 0
9, 536760, Note_on_c, 3, 53, 80
9, 536760, Note_on_c, 3, 65, 80
9, 536849, Note_on_c, 3, 53, 0
9, 536849, Note_on_c, 3, 65, 0
9, 536880, Note_on_c, 3, 63, 80
9, 536880, Note_on_c, 3, 51, 80
9, 536969, Note_on_c, 3, 63, 0
9, 536969, Note_on_c, 3, 51, 0
9, 537000, Note_on_c, 3, 50, 80
9, 537000, Note_on_c, 3, 62, 80
9, 537089, Note_on_c, 3, 50, 0
9, 537089, Note_on_c, 3, 62, 0
9, 537120, Note_on_c, 3, 60, 80
9, 537120, Note_on_c, 3, 48, 80
9, 537209, Note_on_c, 3, 60, 0
9, 537209, Note_on_c, 3, 48, 0
9, 537240, Note_on_c, 3, 58, 80
9, 537240, Note_on_c, 3, 46, 80
9, 537329, Note_on_c, 3, 58, 0
9, 537329, Note_on_c, 3, 46, 0
9, 537360, Note_on_c, 3, 45, 80
9, 537360, Note_on_c, 3, 57, 80
9, 537449, Note_on_c, 3, 45, 0
9, 537449, Note_on_c, 3, 57, 0
9, 537480, Note_on_c, 3, 45, 80
9, 537569, Note_on_c, 3, 45, 0
9, 537600, Note_on_c, 3, 46, 80
9, 537689, Note_on_c, 3, 46, 0
9, 537720, Note_on_c, 3, 48, 80
9, 537809, Note_on_c, 3, 48, 0
9, 537840, Note_on_c, 3, 50, 80
9, 537929, Note_on_c, 3, 50, 0
9, 537960, Note_on_c, 3, 51, 80
9, 538049, Note_on_c, 3, 51, 0
9, 538080, Note_on_c, 3, 53, 80
9, 538169, Note_on_c, 3, 53, 0
9, 538200, Note_on_c, 3, 55, 80
9, 538289, Note_on_c, 3, 55, 0
9, 538320, Note_on_c, 3, 57, 80
9, 538409, Note_on_c, 3, 57, 0
9, 538440, Note_on_c, 3, 58, 80
9, 538529, Note_on_c, 3, 58, 0
9, 538560, Note_on_c, 3, 60, 80
9, 538649, Note_on_c, 3, 60, 0
9, 538680, Note_on_c, 3, 62, 80
9, 538769, Note_on_c, 3, 62, 0
9, 538800, Note_on_c, 3, 63, 80
9, 538889, Note_on_c, 3, 63, 0
9, 538920, Note_on_c, 3, 65, 80
9, 538980, Control_c, 3, 11, 67
9, 539640, Control_c, 3, 11, 67
9, 539676, Control_c, 3, 11, 68
9, 539712, Control_c, 3, 11, 69
9, 539748, Control_c, 3, 11, 70
9, 539784, Control_c, 3, 11, 71
9, 539820, Control_c, 3, 11, 72
9, 539856, Control_c, 3, 11, 73
9, 539892, Control_c, 3, 11, 74
9, 539928, Control_c, 3, 11, 75
9, 539964, Control_c, 3, 11, 76
9, 539999, Note_on_c, 3, 65, 0
9, 540000, Control_c, 3, 11, 77
9, 540000, Note_on_c, 3, 63, 80
9, 540036, Control_c, 3, 11, 78
9, 540072, Control_c, 3, 11, 79
9, 540108, Control_c, 3, 11, 80
9, 540144, Control_c, 3, 11, 81
9, 540180, Control_c, 3, 11, 82
9, 540216, Control_c, 3, 11, 83
9, 540252, Control_c, 3, 11, 84
9, 540288, Control_c, 3, 11, 85
9, 540324, Control_c, 3, 11, 86
9, 540360, Control_c, 3, 11, 87
9, 540396, Control_c, 3, 11, 88
9, 540432, Control_c, 3, 11, 89
9, 540468, Control_c, 3, 11, 90
9, 540504, Control_c, 3, 11, 91
9, 540540, Control_c, 3, 11, 92
9, 540576, Control_c, 3, 11, 93
9, 540612, Control_c, 3, 11, 94
9, 540648, Control_c, 3, 11, 95
9, 540684, Control_c, 3, 11, 96
9, 540719, Note_on_c, 3, 63, 0
9, 540720, Control_c, 3, 11, 97
9, 540720, Note_on_c, 3, 62, 80
9, 540756, Control_c, 3, 11, 98
9, 540792, Control_c, 3, 11, 99
9, 540828, Control_c, 3, 11, 100
9, 540864, Control_c, 3, 11, 101
9, 540900, Control_c, 3, 11, 102
9, 540936, Control_c, 3, 11, 103
9, 540972, Control_c, 3, 11, 104
9, 541008, Control_c, 3, 11, 105
9, 541044, Control_c, 3, 11, 106
9, 541079, Note_on_c, 3, 62, 0
9, 541080, Note_on_c, 3, 61, 80
9, 541080, Control_c, 3, 11, 107
9, 541110, Control_c, 3, 11, 105
9, 541140, Control_c, 3, 11, 104
9, 541170, Control_c, 3, 11, 102
9, 541200, Control_c, 3, 11, 100
9, 541230, Control_c, 3, 11, 99
9, 541260, Control_c, 3, 11, 97
9, 541290, Control_c, 3, 11, 95
9, 541320, Control_c, 3, 11, 94
9, 541350, Control_c, 3, 11, 92
9, 541380, Control_c, 3, 11, 90
9, 541410, Control_c, 3, 11, 89
9, 541439, Note_on_c, 3, 61, 0
9, 541440, Control_c, 3, 11, 87
9, 541440, Note_on_c, 3, 60, 80
9, 541470, Control_c, 3, 11, 85
9, 541500, Control_c, 3, 11, 84
9, 541530, Control_c, 3, 11, 82
9, 541560, Control_c, 3, 11, 80
9, 541590, Control_c, 3, 11, 79
9, 541620, Control_c, 3, 11, 77
9, 541650, Control_c, 3, 11, 75
9, 541680, Control_c, 3, 11, 74
9, 541710, Control_c, 3, 11, 72
9, 541740, Control_c, 3, 11, 70
9, 541770, Control_c, 3, 11, 67
9, 541784, Note_on_c, 3, 60, 0
9, 541800, Note_on_c, 3, 58, 80
9, 541800, Note_on_c, 3, 46, 80
9, 542519, Note_on_c, 3, 58, 0
9, 542519, Note_on_c, 3, 46, 0
9, 542520, Note_on_c, 3, 57, 80
9, 542880, Control_c, 3, 11, 67
9, 542916, Control_c, 3, 11, 68
9, 542952, Control_c, 3, 11, 69
9, 542988, Control_c, 3, 11, 70
9, 543024, Control_c, 3, 11, 71
9, 543060, Control_c, 3, 11, 72
9, 543096, Control_c, 3, 11, 73
9, 543132, Control_c, 3, 11, 74
9, 543168, Control_c, 3, 11, 75
9, 543204, Control_c, 3, 11, 76
9, 543240, Control_c, 3, 11, 77
9, 543240, Note_on_c, 3, 59, 80
9, 543276, Control_c, 3, 11, 78
9, 543312, Control_c, 3, 11, 79
9, 543348, Control_c, 3, 11, 80
9, 543384, Control_c, 3, 11, 81
9, 543420, Control_c, 3, 11, 82
9, 543456, Control_c, 3, 11, 83
9, 543492, Control_c, 3, 11, 84
9, 543528, Control_c, 3, 11, 85
9, 543564, Control_c, 3, 11, 86
9, 543584, Note_on_c, 3, 57, 0
9, 543600, Control_c, 3, 11, 87
9, 543600, Note_on_c, 3, 55, 80
9, 543636, Control_c, 3, 11, 88
9, 543672, Control_c, 3, 11, 89
9, 543708, Control_c, 3, 11, 90
9, 543744, Control_c, 3, 11, 91
9, 543780, Control_c, 3, 11, 92
9, 543816, Control_c, 3, 11, 93
9, 543852, Control_c, 3, 11, 94
9, 543888, Control_c, 3, 11, 95
9, 543924, Control_c, 3, 11, 96
9, 543959, Note_on_c, 3, 59, 0
9, 543960, Note_on_c, 3, 58, 80
9, 543960, Control_c, 3, 11, 97
9, 543996, Control_c, 3, 11, 98
9, 544032, Control_c, 3, 11, 99
9, 544068, Control_c, 3, 11, 100
9, 544104, Control_c, 3, 11, 101
9, 544140, Control_c, 3, 11, 102
9, 544176, Control_c, 3, 11, 103
9, 544212, Control_c, 3, 11, 104
9, 544248, Control_c, 3, 11, 105
9, 544284, Control_c, 3, 11, 106
9, 544319, Note_on_c, 3, 55, 0
9, 544319, Note_on_c, 3, 58, 0
9, 544320, Note_on_c, 3, 57, 80
9, 544320, Note_on_c, 3, 54, 80
9, 544320, Control_c, 3, 11, 107
9, 544350, Control_c, 3, 11, 106
9, 544380, Control_c, 3, 11, 105
9, 544410, Control_c, 3, 11, 104
9, 544440, Control_c, 3, 11, 103
9, 544470, Control_c, 3, 11, 101
9, 544500, Control_c, 3, 11, 100
9, 544530, Control_c, 3, 11, 99
9, 544560, Control_c, 3, 11, 98
9, 544590, Control_c, 3, 11, 97
9, 544620, Control_c, 3, 11, 96
9, 544650, Control_c, 3, 11, 95
9, 544679, Note_on_c, 3, 54, 0
9, 544680, Note_on_c, 3, 53, 80
9, 544680, Control_c, 3, 11, 94
9, 544710, Control_c, 3, 11, 93
9, 544740, Control_c, 3, 11, 91
9, 544770, Control_c, 3, 11, 90
9, 544800, Control_c, 3, 11, 89
9, 544830, Control_c, 3, 11, 88
9, 544860, Control_c, 3, 11, 87
9, 544890, Control_c, 3, 11, 86
9, 544920, Control_c, 3, 11, 85
9, 544950, Control_c, 3, 11, 84
9, 544980, Control_c, 3, 11, 83
9, 545010, Control_c, 3, 11, 81
9, 545039, Note_on_c, 3, 53, 0
9, 545040, Note_on_c, 3, 52, 80
9, 545040, Control_c, 3, 11, 80
9, 545070, Control_c, 3, 11, 79
9, 545100, Control_c, 3, 11, 78
9, 545130, Control_c, 3, 11, 77
9, 545160, Control_c, 3, 11, 76
9, 545190, Control_c, 3, 11, 75
9, 545220, Control_c, 3, 11, 74
9, 545250, Control_c, 3, 11, 73
9, 545280, Control_c, 3, 11, 71
9, 545310, Control_c, 3, 11, 70
9, 545340, Control_c, 3, 11, 69
9, 545370, Control_c, 3, 11, 67
9, 545399, Note_on_c, 3, 57, 0
9, 545399, Note_on_c, 3, 52, 0
9, 545760, Control_c, 3, 11, 87
9, 545796, Control_c, 3, 11, 88
9, 545832, Control_c, 3, 11, 89
9, 545868, Control_c, 3, 11, 90
9, 545904, Control_c, 3, 11, 91
9, 545940, Control_c, 3, 11, 92
9, 545976, Control_c, 3, 11, 93
9, 546012, Control_c, 3, 11, 94
9, 546048, Control_c, 3, 11, 95
9, 546084, Control_c, 3, 11, 96
9, 546120, Control_c, 3, 11, 97
9, 546120, Note_on_c, 3, 58, 68
9, 546156, Control_c, 3, 11, 98
9, 546192, Control_c, 3, 11, 99
9, 546228, Control_c, 3, 11, 100
9, 546264, Control_c, 3, 11, 101
9, 546300, Control_c, 3, 11, 102
9, 546336, Control_c, 3, 11, 103
9, 546372, Control_c, 3, 11, 104
9, 546408, Control_c, 3, 11, 105
9, 546444, Control_c, 3, 11, 106
9, 546480, Note_on_c, 3, 64, 68
9, 546480, Control_c, 3, 11, 107
9, 546516, Control_c, 3, 11, 108
9, 546552, Control_c, 3, 11, 109
9, 546588, Control_c, 3, 11, 110
9, 546624, Control_c, 3, 11, 111
9, 546660, Control_c, 3, 11, 112
9, 546696, Control_c, 3, 11, 113
9, 546732, Control_c, 3, 11, 114
9, 546768, Control_c, 3, 11, 115
9, 546804, Control_c, 3, 11, 116
9, 546839, Note_on_c, 3, 58, 0
9, 546840, Control_c, 3, 11, 117
9, 546840, Note_on_c, 3, 57, 68
9, 546876, Control_c, 3, 11, 118
9, 546912, Control_c, 3, 11, 119
9, 546948, Control_c, 3, 11, 120
9, 546984, Control_c, 3, 11, 121
9, 547020, Control_c, 3, 11, 122
9, 547056, Control_c, 3, 11, 123
9, 547092, Control_c, 3, 11, 124
9, 547128, Control_c, 3, 11, 125
9, 547164, Control_c, 3, 11, 126
9, 547199, Note_on_c, 3, 64, 0
9, 547200, Control_c, 3, 11, 127
9, 547200, Note_on_c, 3, 62, 68
9, 547227, Control_c, 3, 11, 126
9, 547254, Control_c, 3, 11, 125
9, 547281, Control_c, 3, 11, 124
9, 547308, Control_c, 3, 11, 123
9, 547335, Control_c, 3, 11, 122
9, 547362, Control_c, 3, 11, 121
9, 547389, Control_c, 3, 11, 120
9, 547416, Control_c, 3, 11, 119
9, 547443, Control_c, 3, 11, 118
9, 547470, Control_c, 3, 11, 117
9, 547497, Control_c, 3, 11, 116
9, 547524, Control_c, 3, 11, 115
9, 547551, Control_c, 3, 11, 114
9, 547559, Note_on_c, 3, 57, 0
9, 547560, Note_on_c, 3, 56, 68
9, 547578, Control_c, 3, 11, 113
9, 547605, Control_c, 3, 11, 112
9, 547632, Control_c, 3, 11, 111
9, 547659, Control_c, 3, 11, 110
9, 547686, Control_c, 3, 11, 109
9, 547713, Control_c, 3, 11, 108
9, 547740, Control_c, 3, 11, 107
9, 547767, Control_c, 3, 11, 106
9, 547794, Control_c, 3, 11, 105
9, 547821, Control_c, 3, 11, 104
9, 547848, Control_c, 3, 11, 103
9, 547875, Control_c, 3, 11, 102
9, 547902, Control_c, 3, 11, 101
9, 547919, Note_on_c, 3, 62, 0
9, 547919, Note_on_c, 3, 56, 0
9, 547920, Note_on_c, 3, 55, 68
9, 547920, Note_on_c, 3, 61, 68
9, 547929, Control_c, 3, 11, 100
9, 547956, Control_c, 3, 11, 99
9, 547983, Control_c, 3, 11, 98
9, 548010, Control_c, 3, 11, 97
9, 548037, Control_c, 3, 11, 96
9, 548064, Control_c, 3, 11, 95
9, 548091, Control_c, 3, 11, 94
9, 548118, Control_c, 3, 11, 93
9, 548145, Control_c, 3, 11, 92
9, 548172, Control_c, 3, 11, 91
9, 548199, Control_c, 3, 11, 90
9, 548226, Control_c, 3, 11, 89
9, 548253, Control_c, 3, 11, 88
9, 548264, Note_on_c, 3, 55, 0
9, 548264, Note_on_c, 3, 61, 0
9, 548278, Control_c, 3, 11, 47
9, 548280, Note_on_c, 3, 45, 92
9, 548280, Note_on_c, 3, 57, 92
9, 548316, Control_c, 3, 11, 48
9, 548352, Control_c, 3, 11, 49
9, 548388, Control_c, 3, 11, 50
9, 548424, Control_c, 3, 11, 51
9, 548460, Control_c, 3, 11, 52
9, 548496, Control_c, 3, 11, 53
9, 548532, Control_c, 3, 11, 54
9, 548568, Control_c, 3, 11, 55
9, 548604, Control_c, 3, 11, 56
9, 548640, Control_c, 3, 11, 57
9, 548676, Control_c, 3, 11, 58
9, 548712, Control_c, 3, 11, 59
9, 548748, Control_c, 3, 11, 60
9, 548784, Control_c, 3, 11, 61
9, 548820, Control_c, 3, 11, 62
9, 548856, Control_c, 3, 11, 63
9, 548892, Control_c, 3, 11, 64
9, 548928, Control_c, 3, 11, 65
9, 548964, Control_c, 3, 11, 66
9, 549000, Control_c, 3, 11, 67
9, 549036, Control_c, 3, 11, 68
9, 549072, Control_c, 3, 11, 69
9, 549108, Control_c, 3, 11, 70
9, 549144, Control_c, 3, 11, 71
9, 549180, Control_c, 3, 11, 72
9, 549216, Control_c, 3, 11, 73
9, 549252, Control_c, 3, 11, 74
9, 549288, Control_c, 3, 11, 75
9, 549324, Control_c, 3, 11, 76
9, 549359, Note_on_c, 3, 45, 0
9, 549359, Note_on_c, 3, 57, 0
9, 549360, Control_c, 3, 11, 77
9, 549360, Note_on_c, 3, 43, 92
9, 549360, Note_on_c, 3, 55, 92
9, 549396, Control_c, 3, 11, 78
9, 549432, Control_c, 3, 11, 79
9, 549468, Control_c, 3, 11, 80
9, 549504, Control_c, 3, 11, 81
9, 549540, Control_c, 3, 11, 82
9, 549576, Control_c, 3, 11, 83
9, 549612, Control_c, 3, 11, 84
9, 549648, Control_c, 3, 11, 85
9, 549684, Control_c, 3, 11, 86
9, 549720, Control_c, 3, 11, 87
9, 549756, Control_c, 3, 11, 88
9, 549792, Control_c, 3, 11, 89
9, 549828, Control_c, 3, 11, 90
9, 549864, Control_c, 3, 11, 91
9, 549900, Control_c, 3, 11, 92
9, 549936, Control_c, 3, 11, 93
9, 549972, Control_c, 3, 11, 94
9, 550008, Control_c, 3, 11, 95
9, 550044, Control_c, 3, 11, 96
9, 550079, Note_on_c, 3, 43, 0
9, 550079, Note_on_c, 3, 55, 0
9, 550080, Control_c, 3, 11, 97
9, 550080, Note_on_c, 3, 42, 92
9, 550080, Note_on_c, 3, 54, 92
9, 550116, Control_c, 3, 11, 98
9, 550152, Control_c, 3, 11, 99
9, 550188, Control_c, 3, 11, 100
9, 550224, Control_c, 3, 11, 101
9, 550260, Control_c, 3, 11, 102
9, 550296, Control_c, 3, 11, 103
9, 550332, Control_c, 3, 11, 104
9, 550368, Control_c, 3, 11, 105
9, 550404, Control_c, 3, 11, 106
9, 550439, Note_on_c, 3, 42, 0
9, 550439, Note_on_c, 3, 54, 0
9, 550440, Note_on_c, 3, 53, 92
9, 550440, Control_c, 3, 11, 107
9, 550440, Note_on_c, 3, 41, 92
9, 550476, Control_c, 3, 11, 108
9, 550512, Control_c, 3, 11, 109
9, 550548, Control_c, 3, 11, 110
9, 550584, Control_c, 3, 11, 111
9, 550620, Control_c, 3, 11, 112
9, 550656, Control_c, 3, 11, 113
9, 550692, Control_c, 3, 11, 114
9, 550728, Control_c, 3, 11, 115
9, 550764, Control_c, 3, 11, 116
9, 550799, Note_on_c, 3, 53, 0
9, 550799, Note_on_c, 3, 41, 0
9, 550800, Note_on_c, 3, 40, 92
9, 550800, Note_on_c, 3, 52, 92
9, 550800, Control_c, 3, 11, 117
9, 550836, Control_c, 3, 11, 118
9, 550872, Control_c, 3, 11, 119
9, 550908, Control_c, 3, 11, 120
9, 550944, Control_c, 3, 11, 121
9, 550980, Control_c, 3, 11, 122
9, 551016, Control_c, 3, 11, 123
9, 551052, Control_c, 3, 11, 124
9, 551088, Control_c, 3, 11, 125
9, 551124, Control_c, 3, 11, 127
9, 551144, Note_on_c, 3, 40, 0
9, 551144, Note_on_c, 3, 52, 0
9, 551160, Note_on_c, 3, 50, 92
9, 551399, Note_on_c, 3, 50, 0
9, 551400, Note_on_c, 3, 52, 92
9, 551459, Note_on_c, 3, 52, 0
9, 551460, Note_on_c, 3, 54, 92
9, 551504, Note_on_c, 3, 54, 0
9, 551520, Note_on_c, 3, 55, 92
9, 551609, Note_on_c, 3, 55, 0
9, 551760, Note_on_c, 3, 54, 92
9, 551849, Note_on_c, 3, 54, 0
9, 551880, Note_on_c, 3, 52, 92
9, 551969, Note_on_c, 3, 52, 0
9, 552120, Note_on_c, 3, 50, 92
9, 552209, Note_on_c, 3, 50, 0
9, 552240, Note_on_c, 3, 52, 92
9, 552329, Note_on_c, 3, 52, 0
9, 552480, Note_on_c, 3, 49, 92
9, 552569, Note_on_c, 3, 49, 0
9, 552600, Note_on_c, 3, 54, 92
9, 552600, Note_on_c, 3, 50, 92
9, 552839, Note_on_c, 3, 54, 0
9, 552839, Note_on_c, 3, 50, 0
9, 552840, Note_on_c, 3, 52, 92
9, 552840, Note_on_c, 3, 55, 92
9, 552899, Note_on_c, 3, 52, 0
9, 552899, Note_on_c, 3, 55, 0
9, 552900, Note_on_c, 3, 54, 92
9, 552900, Note_on_c, 3, 57, 92
9, 552944, Note_on_c, 3, 54, 0
9, 552944, Note_on_c, 3, 57, 0
9, 552960, Note_on_c, 3, 55, 92
9, 552960, Note_on_c, 3, 59, 92
9, 553049, Note_on_c, 3, 55, 0
9, 553049, Note_on_c, 3, 59, 0
9, 553200, Note_on_c, 3, 54, 92
9, 553200, Note_on_c, 3, 57, 92
9, 553289, Note_on_c, 3, 54, 0
9, 553289, Note_on_c, 3, 57, 0
9, 553320, Note_on_c, 3, 55, 92
9, 553320, Note_on_c, 3, 52, 92
9, 553409, Note_on_c, 3, 55, 0
9, 553409, Note_on_c, 3, 52, 0
9, 553560, Note_on_c, 3, 54, 92
9, 553560, Note_on_c, 3, 50, 92
9, 553649, Note_on_c, 3, 54, 0
9, 553649, Note_on_c, 3, 50, 0
9, 553680, Note_on_c, 3, 55, 92
9, 553680, Note_on_c, 3, 52, 92
9, 553769, Note_on_c, 3, 55, 0
9, 553769, Note_on_c, 3, 52, 0
9, 553920, Note_on_c, 3, 49, 92
9, 553920, Note_on_c, 3, 52, 92
9, 554009, Note_on_c, 3, 49, 0
9, 554009, Note_on_c, 3, 52, 0
9, 554040, Note_on_c, 3, 50, 92
9, 554129, Note_on_c, 3, 50, 0
9, 554160, Note_on_c, 3, 62, 92
9, 554160, Note_on_c, 3, 53, 92
9, 554279, Note_on_c, 3, 62, 0
9, 554279, Note_on_c, 3, 53, 0
9, 554280, Note_on_c, 3, 55, 92
9, 554280, Note_on_c, 3, 64, 92
9, 554339, Note_on_c, 3, 55, 0
9, 554339, Note_on_c, 3, 64, 0
9, 554340, Note_on_c, 3, 57, 92
9, 554340, Note_on_c, 3, 65, 92
9, 554384, Note_on_c, 3, 57, 0
9, 554384, Note_on_c, 3, 65, 0
9, 554400, Note_on_c, 3, 67, 92
9, 554400, Note_on_c, 3, 58, 92
9, 554489, Note_on_c, 3, 67, 0
9, 554489, Note_on_c, 3, 58, 0
9, 554520, Note_on_c, 3, 58, 92
9, 554520, Note_on_c, 3, 67, 92
9, 554609, Note_on_c, 3, 58, 0
9, 554609, Note_on_c, 3, 67, 0
9, 554640, Note_on_c, 3, 65, 92
9, 554640, Note_on_c, 3, 57, 92
9, 554729, Note_on_c, 3, 65, 0
9, 554729, Note_on_c, 3, 57, 0
9, 554760, Note_on_c, 3, 64, 92
9, 554760, Note_on_c, 3, 55, 92
9, 554849, Note_on_c, 3, 64, 0
9, 554849, Note_on_c, 3, 55, 0
9, 554880, Note_on_c, 3, 55, 92
9, 554880, Note_on_c, 3, 64, 92
9, 554969, Note_on_c, 3, 55, 0
9, 554969, Note_on_c, 3, 64, 0
9, 555000, Note_on_c, 3, 53, 92
9, 555000, Note_on_c, 3, 62, 92
9, 555089, Note_on_c, 3, 53, 0
9, 555089, Note_on_c, 3, 62, 0
9, 555120, Note_on_c, 3, 64, 92
9, 555120, Note_on_c, 3, 55, 92
9, 555209, Note_on_c, 3, 64, 0
9, 555209, Note_on_c, 3, 55, 0
9, 555240, Note_on_c, 3, 55, 92
9, 555240, Note_on_c, 3, 64, 92
9, 555329, Note_on_c, 3, 55, 0
9, 555329, Note_on_c, 3, 64, 0
9, 555360, Note_on_c, 3, 52, 92
9, 555360, Note_on_c, 3, 61, 92
9, 555449, Note_on_c, 3, 52, 0
9, 555449, Note_on_c, 3, 61, 0
9, 555480, Note_on_c, 3, 65, 92
9, 555480, Note_on_c, 3, 62, 92
9, 555569, Note_on_c, 3, 65, 0
9, 555569, Note_on_c, 3, 62, 0
9, 555600, Note_on_c, 3, 50, 92
9, 555600, Note_on_c, 3, 53, 92
9, 555719, Note_on_c, 3, 50, 0
9, 555719, Note_on_c, 3, 53, 0
9, 555720, Note_on_c, 3, 52, 92
9, 555720, Note_on_c, 3, 55, 92
9, 555779, Note_on_c, 3, 52, 0
9, 555779, Note_on_c, 3, 55, 0
9, 555780, Note_on_c, 3, 57, 92
9, 555780, Note_on_c, 3, 53, 92
9, 555824, Note_on_c, 3, 57, 0
9, 555824, Note_on_c, 3, 53, 0
9, 555840, Note_on_c, 3, 58, 92
9, 555840, Note_on_c, 3, 55, 92
9, 555929, Note_on_c, 3, 58, 0
9, 555929, Note_on_c, 3, 55, 0
9, 555960, Note_on_c, 3, 58, 92
9, 555960, Note_on_c, 3, 55, 92
9, 556049, Note_on_c, 3, 58, 0
9, 556049, Note_on_c, 3, 55, 0
9, 556080, Note_on_c, 3, 53, 92
9, 556080, Note_on_c, 3, 57, 92
9, 556169, Note_on_c, 3, 53, 0
9, 556169, Note_on_c, 3, 57, 0
9, 556200, Note_on_c, 3, 52, 92
9, 556200, Note_on_c, 3, 55, 92
9, 556289, Note_on_c, 3, 52, 0
9, 556289, Note_on_c, 3, 55, 0
9, 556320, Note_on_c, 3, 52, 92
9, 556320, Note_on_c, 3, 55, 92
9, 556409, Note_on_c, 3, 52, 0
9, 556409, Note_on_c, 3, 55, 0
9, 556440, Note_on_c, 3, 50, 92
9, 556440, Note_on_c, 3, 53, 92
9, 556529, Note_on_c, 3, 50, 0
9, 556529, Note_on_c, 3, 53, 0
9, 556560, Note_on_c, 3, 52, 92
9, 556560, Note_on_c, 3, 55, 92
9, 556649, Note_on_c, 3, 52, 0
9, 556649, Note_on_c, 3, 55, 0
9, 556680, Note_on_c, 3, 52, 92
9, 556680, Note_on_c, 3, 55, 92
9, 556769, Note_on_c, 3, 52, 0
9, 556769, Note_on_c, 3, 55, 0
9, 556800, Note_on_c, 3, 52, 92
9, 556800, Note_on_c, 3, 49, 92
9, 556889, Note_on_c, 3, 52, 0
9, 556889, Note_on_c, 3, 49, 0
9, 556920, Note_on_c, 3, 50, 92
9, 556920, Note_on_c, 3, 62, 92
9, 557084, Note_on_c, 3, 50, 0
9, 557084, Note_on_c, 3, 62, 0
9, 557100, Note_on_c, 3, 38, 92
9, 557100, Note_on_c, 3, 50, 92
9, 557144, Note_on_c, 3, 38, 0
9, 557144, Note_on_c, 3, 50, 0
9, 557160, Note_on_c, 3, 50, 92
9, 557160, Note_on_c, 3, 38, 92
9, 557264, Note_on_c, 3, 50, 0
9, 557264, Note_on_c, 3, 38, 0
9, 557280, Note_on_c, 3, 62, 92
9, 557280, Note_on_c, 3, 50, 92
9, 557384, Note_on_c, 3, 62, 0
9, 557384, Note_on_c, 3, 50, 0
9, 557400, Note_on_c, 3, 52, 92
9, 557400, Note_on_c, 3, 64, 92
9, 557504, Note_on_c, 3, 52, 0
9, 557504, Note_on_c, 3, 64, 0
9, 557520, Note_on_c, 3, 53, 92
9, 557520, Note_on_c, 3, 65, 92
9, 557624, Note_on_c, 3, 53, 0
9, 557624, Note_on_c, 3, 65, 0
9, 557640, Note_on_c, 3, 67, 92
9, 557640, Note_on_c, 3, 55, 92
9, 557759, Note_on_c, 3, 67, 0
9, 557759, Note_on_c, 3, 55, 0
9, 558000, Note_on_c, 3, 46, 92
9, 558000, Note_on_c, 3, 58, 92
9, 558104, Note_on_c, 3, 46, 0
9, 558104, Note_on_c, 3, 58, 0
9, 558120, Note_on_c, 3, 60, 92
9, 558120, Note_on_c, 3, 48, 92
9, 558224, Note_on_c, 3, 60, 0
9, 558224, Note_on_c, 3, 48, 0
9, 558240, Note_on_c, 3, 62, 92
9, 558240, Note_on_c, 3, 50, 92
9, 558344, Note_on_c, 3, 62, 0
9, 558344, Note_on_c, 3, 50, 0
9, 558360, Note_on_c, 3, 60, 92
9, 558360, Note_on_c, 3, 48, 92
9, 558524, Note_on_c, 3, 60, 0
9, 558524, Note_on_c, 3, 48, 0
9, 558540, Note_on_c, 3, 48, 92
9, 558540, Note_on_c, 3, 36, 92
9, 558584, Note_on_c, 3, 48, 0
9, 558584, Note_on_c, 3, 36, 0
9, 558600, Note_on_c, 3, 36, 92
9, 558600, Note_on_c, 3, 48, 92
9, 558704, Note_on_c, 3, 36, 0
9, 558704, Note_on_c, 3, 48, 0
9, 558720, Note_on_c, 3, 48, 92
9, 558720, Note_on_c, 3, 60, 92
9, 558824, Note_on_c, 3, 48, 0
9, 558824, Note_on_c, 3, 60, 0
9, 558840, Note_on_c, 3, 50, 92
9, 558840, Note_on_c, 3, 62, 92
9, 558944, Note_on_c, 3, 50, 0
9, 558944, Note_on_c, 3, 62, 0
9, 558960, Note_on_c, 3, 64, 92
9, 558960, Note_on_c, 3, 52, 92
9, 559064, Note_on_c, 3, 64, 0
9, 559064, Note_on_c, 3, 52, 0
9, 559080, Note_on_c, 3, 65, 92
9, 559080, Note_on_c, 3, 53, 92
9, 559199, Note_on_c, 3, 65, 0
9, 559199, Note_on_c, 3, 53, 0
9, 559440, Note_on_c, 3, 57, 92
9, 559544, Note_on_c, 3, 57, 0
9, 559560, Note_on_c, 3, 62, 92
9, 559664, Note_on_c, 3, 62, 0
9, 559680, Note_on_c, 3, 64, 92
9, 559784, Note_on_c, 3, 64, 0
9, 559800, Note_on_c, 3, 66, 44
9, 559800, Note_on_c, 3, 62, 44
9, 559919, Note_on_c, 3, 66, 0
9, 559919, Note_on_c, 3, 62, 0
9, 560520, Note_on_c, 3, 67, 44
9, 560520, Note_on_c, 3, 55, 44
9, 560639, Note_on_c, 3, 67, 0
9, 560639, Note_on_c, 3, 55, 0
9, 561600, Control_c, 3, 11, 67
9, 561960, Control_c, 3, 11, 67
9, 561960, Note_on_c, 3, 55, 80
9, 561960, Note_on_c, 3, 46, 80
9, 561990, Control_c, 3, 11, 68
9, 562020, Control_c, 3, 11, 70
9, 562050, Control_c, 3, 11, 71
9, 562079, Note_on_c, 3, 55, 0
9, 562080, Note_on_c, 3, 53, 80
9, 562080, Control_c, 3, 11, 72
9, 562110, Control_c, 3, 11, 73
9, 562140, Control_c, 3, 11, 75
9, 562170, Control_c, 3, 11, 76
9, 562199, Note_on_c, 3, 53, 0
9, 562200, Note_on_c, 3, 51, 80
9, 562200, Control_c, 3, 11, 77
9, 562230, Control_c, 3, 11, 78
9, 562260, Control_c, 3, 11, 80
9, 562290, Control_c, 3, 11, 81
9, 562304, Note_on_c, 3, 51, 0
9, 562320, Control_c, 3, 11, 82
9, 562320, Note_on_c, 3, 67, 80
9, 562350, Control_c, 3, 11, 83
9, 562380, Control_c, 3, 11, 85
9, 562410, Control_c, 3, 11, 86
9, 562439, Note_on_c, 3, 46, 0
9, 562439, Note_on_c, 3, 67, 0
9, 562440, Note_on_c, 3, 44, 80
9, 562440, Control_c, 3, 11, 87
9, 562440, Note_on_c, 3, 65, 80
9, 562470, Control_c, 3, 11, 88
9, 562500, Control_c, 3, 11, 90
9, 562530, Control_c, 3, 11, 91
9, 562559, Note_on_c, 3, 44, 0
9, 562559, Note_on_c, 3, 65, 0
9, 562560, Control_c, 3, 11, 92
9, 562560, Note_on_c, 3, 43, 80
9, 562560, Note_on_c, 3, 63, 80
9, 562590, Control_c, 3, 11, 93
9, 562620, Control_c, 3, 11, 95
9, 562650, Control_c, 3, 11, 96
9, 562664, Note_on_c, 3, 43, 0
9, 562664, Note_on_c, 3, 63, 0
9, 562680, Note_on_c, 3, 58, 80
9, 562680, Control_c, 3, 11, 97
9, 562680, Note_on_c, 3, 43, 80
9, 562710, Control_c, 3, 11, 98
9, 562740, Control_c, 3, 11, 100
9, 562770, Control_c, 3, 11, 101
9, 562799, Note_on_c, 3, 58, 0
9, 562800, Note_on_c, 3, 57, 80
9, 562800, Control_c, 3, 11, 102
9, 562830, Control_c, 3, 11, 103
9, 562860, Control_c, 3, 11, 105
9, 562890, Control_c, 3, 11, 106
9, 562919, Note_on_c, 3, 57, 0
9, 562920, Control_c, 3, 11, 107
9, 562920, Note_on_c, 3, 58, 80
9, 562950, Control_c, 3, 11, 108
9, 562980, Control_c, 3, 11, 110
9, 563010, Control_c, 3, 11, 111
9, 563024, Note_on_c, 3, 43, 0
9, 563040, Control_c, 3, 11, 112
9, 563040, Note_on_c, 3, 45, 80
9, 563070, Control_c, 3, 11, 113
9, 563100, Control_c, 3, 11, 115
9, 563130, Control_c, 3, 11, 116
9, 563159, Note_on_c, 3, 58, 0
9, 563160, Note_on_c, 3, 57, 80
9, 563160, Control_c, 3, 11, 117
9, 563190, Control_c, 3, 11, 118
9, 563220, Control_c, 3, 11, 120
9, 563250, Control_c, 3, 11, 121
9, 563264, Note_on_c, 3, 45, 0
9, 563279, Note_on_c, 3, 57, 0
9, 563280, Note_on_c, 3, 55, 80
9, 563280, Note_on_c, 3, 43, 80
9, 563280, Control_c, 3, 11, 122
9, 563310, Control_c, 3, 11, 123
9, 563340, Control_c, 3, 11, 125
9, 563370, Control_c, 3, 11, 127
9, 563384, Note_on_c, 3, 55, 0
9, 563384, Note_on_c, 3, 43, 0
9, 563400, Note_on_c, 3, 41, 80
9, 563400, Note_on_c, 3, 53, 80
9, 563489, Note_on_c, 3, 41, 0
9, 563489, Note_on_c, 3, 53, 0
9, 563520, Note_on_c, 3, 50, 80
9, 563520, Note_on_c, 3, 38, 80
9, 563609, Note_on_c, 3, 50, 0
9, 563609, Note_on_c, 3, 38, 0
9, 563640, Note_on_c, 3, 43, 80
9, 563640, Note_on_c, 3, 55, 80
9, 563729, Note_on_c, 3, 43, 0
9, 563729, Note_on_c, 3, 55, 0
9, 563760, Note_on_c, 3, 40, 80
9, 563760, Note_on_c, 3, 52, 80
9, 563849, Note_on_c, 3, 40, 0
9, 563849, Note_on_c, 3, 52, 0
9, 563880, Note_on_c, 3, 61, 80
9, 563880, Note_on_c, 3, 49, 80
9, 563969, Note_on_c, 3, 61, 0
9, 563969, Note_on_c, 3, 49, 0
9, 564000, Note_on_c, 3, 57, 80
9, 564000, Note_on_c, 3, 45, 80
9, 564089, Note_on_c, 3, 57, 0
9, 564089, Note_on_c, 3, 45, 0
9, 564120, Note_on_c, 3, 50, 80
9, 564120, Note_on_c, 3, 62, 80
9, 564239, Note_on_c, 3, 50, 0
9, 564239, Note_on_c, 3, 62, 0
9, 564840, Note_on_c, 3, 50, 80
9, 564840, Note_on_c, 3, 38, 80
9, 564929, Note_on_c, 3, 50, 0
9, 564929, Note_on_c, 3, 38, 0
9, 564960, Note_on_c, 3, 50, 80
9, 564960, Note_on_c, 3, 38, 80
9, 565049, Note_on_c, 3, 50, 0
9, 565049, Note_on_c, 3, 38, 0
9, 565080, Note_on_c, 3, 43, 80
9, 565080, Note_on_c, 3, 55, 80
9, 565169, Note_on_c, 3, 43, 0
9, 565169, Note_on_c, 3, 55, 0
9, 565200, Note_on_c, 3, 40, 80
9, 565200, Note_on_c, 3, 52, 80
9, 565289, Note_on_c, 3, 40, 0
9, 565289, Note_on_c, 3, 52, 0
9, 565320, Note_on_c, 3, 49, 80
9, 565320, Note_on_c, 3, 61, 80
9, 565409, Note_on_c, 3, 49, 0
9, 565409, Note_on_c, 3, 61, 0
9, 565440, Note_on_c, 3, 45, 80
9, 565440, Note_on_c, 3, 57, 80
9, 565529, Note_on_c, 3, 45, 0
9, 565529, Note_on_c, 3, 57, 0
9, 565560, Note_on_c, 3, 45, 80
9, 565560, Note_on_c, 3, 57, 80
9, 565649, Note_on_c, 3, 45, 0
9, 565649, Note_on_c, 3, 57, 0
9, 565680, Note_on_c, 3, 57, 80
9, 565769, Note_on_c, 3, 57, 0
9, 565800, Note_on_c, 3, 62, 80
9, 565889, Note_on_c, 3, 62, 0
9, 565920, Note_on_c, 3, 58, 80
9, 566009, Note_on_c, 3, 58, 0
9, 566040, Note_on_c, 3, 55, 80
9, 566129, Note_on_c, 3, 55, 0
9, 566160, Note_on_c, 3, 61, 80
9, 566249, Note_on_c, 3, 61, 0
9, 566280, Note_on_c, 3, 50, 80
9, 566280, Note_on_c, 3, 53, 80
9, 566369, Note_on_c, 3, 50, 0
9, 566369, Note_on_c, 3, 53, 0
9, 566400, Note_on_c, 3, 53, 80
9, 566400, Note_on_c, 3, 57, 80
9, 566489, Note_on_c, 3, 53, 0
9, 566489, Note_on_c, 3, 57, 0
9, 566520, Note_on_c, 3, 50, 80
9, 566520, Note_on_c, 3, 53, 80
9, 566609, Note_on_c, 3, 50, 0
9, 566609, Note_on_c, 3, 53, 0
9, 566640, Note_on_c, 3, 55, 80
9, 566640, Note_on_c, 3, 52, 80
9, 566729, Note_on_c, 3, 55, 0
9, 566729, Note_on_c, 3, 52, 0
9, 566760, Note_on_c, 3, 55, 80
9, 566760, Note_on_c, 3, 64, 80
9, 566849, Note_on_c, 3, 55, 0
9, 566849, Note_on_c, 3, 64, 0
9, 566880, Note_on_c, 3, 52, 80
9, 566880, Note_on_c, 3, 61, 80
9, 566969, Note_on_c, 3, 52, 0
9, 566969, Note_on_c, 3, 61, 0
9, 567000, Note_on_c, 3, 62, 80
9, 567000, Note_on_c, 3, 53, 80
9, 567089, Note_on_c, 3, 62, 0
9, 567089, Note_on_c, 3, 53, 0
9, 567120, Note_on_c, 3, 53, 80
9, 567120, Note_on_c, 3, 57, 80
9, 567209, Note_on_c, 3, 53, 0
9, 567209, Note_on_c, 3, 57, 0
9, 567240, Note_on_c, 3, 53, 80
9, 567240, Note_on_c, 3, 50, 80
9, 567329, Note_on_c, 3, 53, 0
9, 567329, Note_on_c, 3, 50, 0
9, 567360, Note_on_c, 3, 55, 80
9, 567360, Note_on_c, 3, 52, 80
9, 567449, Note_on_c, 3, 55, 0
9, 567449, Note_on_c, 3, 52, 0
9, 567480, Note_on_c, 3, 64, 80
9, 567480, Note_on_c, 3, 55, 80
9, 567569, Note_on_c, 3, 64, 0
9, 567569, Note_on_c, 3, 55, 0
9, 567600, Note_on_c, 3, 52, 80
9, 567600, Note_on_c, 3, 61, 80
9, 567689, Note_on_c, 3, 52, 0
9, 567689, Note_on_c, 3, 61, 0
9, 567720, Note_on_c, 3, 45, 32
9, 567839, Note_on_c, 3, 45, 0
9, 567840, Note_on_c, 3, 49, 32
9, 567959, Note_on_c, 3, 49, 0
9, 567960, Note_on_c, 3, 52, 32
9, 568079, Note_on_c, 3, 52, 0
9, 568080, Note_on_c, 3, 55, 32
9, 568199, Note_on_c, 3, 55, 0
9, 568200, Note_on_c, 3, 61, 32
9, 568319, Note_on_c, 3, 61, 0
9, 568320, Note_on_c, 3, 64, 32
9, 568424, Note_on_c, 3, 64, 0
9, 568440, Note_on_c, 3, 67, 32
9, 568919, Note_on_c, 3, 67, 0
9, 568920, Note_on_c, 3, 64, 32
9, 569039, Note_on_c, 3, 64, 0
9, 569040, Note_on_c, 3, 61, 32
9, 569144, Note_on_c, 3, 61, 0
9, 569160, Note_on_c, 3, 62, 32
9, 569279, Note_on_c, 3, 62, 0
9, 569520, Note_on_c, 3, 57, 32
9, 569520, Note_on_c, 3, 45, 32
9, 569684, Note_on_c, 3, 57, 0
9, 569684, Note_on_c, 3, 45, 0
9, 569700, Note_on_c, 3, 62, 32
9, 569700, Note_on_c, 3, 57, 32
9, 569744, Note_on_c, 3, 62, 0
9, 569744, Note_on_c, 3, 57, 0
9, 569760, Note_on_c, 3, 62, 32
9, 569760, Note_on_c, 3, 57, 32
9, 569864, Note_on_c, 3, 62, 0
9, 569864, Note_on_c, 3, 57, 0
9, 569880, Note_on_c, 3, 57, 32
9, 569880, Note_on_c, 3, 53, 32
9, 569999, Note_on_c, 3, 57, 0
9, 569999, Note_on_c, 3, 53, 0
9, 570240, Note_on_c, 3, 50, 32
9, 570240, Note_on_c, 3, 53, 32
9, 570404, Note_on_c, 3, 50, 0
9, 570404, Note_on_c, 3, 53, 0
9, 570420, Note_on_c, 3, 65, 32
9, 570420, Note_on_c, 3, 62, 32
9, 570464, Note_on_c, 3, 65, 0
9, 570464, Note_on_c, 3, 62, 0
9, 570480, Note_on_c, 3, 62, 32
9, 570480, Note_on_c, 3, 65, 32
9, 570584, Note_on_c, 3, 62, 0
9, 570584, Note_on_c, 3, 65, 0
9, 570600, Note_on_c, 3, 65, 32
9, 570600, Note_on_c, 3, 62, 32
9, 570719, Note_on_c, 3, 65, 0
9, 570719, Note_on_c, 3, 62, 0
9, 572400, Note_on_c, 3, 57, 40
9, 572400, Note_on_c, 3, 45, 40
9, 572564, Note_on_c, 3, 57, 0
9, 572564, Note_on_c, 3, 45, 0
9, 572580, Note_on_c, 3, 57, 44
9, 572580, Note_on_c, 3, 62, 44
9, 572624, Note_on_c, 3, 57, 0
9, 572624, Note_on_c, 3, 62, 0
9, 572640, Note_on_c, 3, 62, 46
9, 572640, Note_on_c, 3, 57, 46
9, 572744, Note_on_c, 3, 62, 0
9, 572744, Note_on_c, 3, 57, 0
9, 572760, Note_on_c, 3, 53, 49
9, 572760, Note_on_c, 3, 57, 49
9, 572879, Note_on_c, 3, 53, 0
9, 572879, Note_on_c, 3, 57, 0
9, 573120, Note_on_c, 3, 38, 57
9, 573120, Note_on_c, 3, 50, 57
9, 573284, Note_on_c, 3, 38, 0
9, 573284, Note_on_c, 3, 50, 0
9, 573300, Note_on_c, 3, 50, 62
9, 573300, Note_on_c, 3, 62, 62
9, 573344, Note_on_c, 3, 50, 0
9, 573344, Note_on_c, 3, 62, 0
9, 573360, Note_on_c, 3, 50, 63
9, 573360, Note_on_c, 3, 62, 63
9, 573464, Note_on_c, 3, 50, 0
9, 573464, Note_on_c, 3, 62, 0
9, 573480, Note_on_c, 3, 58, 66
9, 573480, Note_on_c, 3, 46, 66
9, 573599, Note_on_c, 3, 58, 0
9, 573599, Note_on_c, 3, 46, 0
9, 573840, Note_on_c, 3, 43, 74
9, 574004, Note_on_c, 3, 43, 0
9, 574020, Note_on_c, 3, 43, 79
9, 574020, Note_on_c, 3, 55, 79
9, 574064, Note_on_c, 3, 43, 0
9, 574064, Note_on_c, 3, 55, 0
9, 574080, Note_on_c, 3, 43, 80
9, 574080, Note_on_c, 3, 55, 80
9, 574184, Note_on_c, 3, 43, 0
9, 574184, Note_on_c, 3, 55, 0
9, 574200, Note_on_c, 3, 58, 83
9, 574200, Note_on_c, 3, 46, 83
9, 574319, Note_on_c, 3, 58, 0
9, 574319, Note_on_c, 3, 46, 0
9, 574560, Note_on_c, 3, 45, 92
9, 574724, Note_on_c, 3, 45, 0
9, 574740, Note_on_c, 3, 45, 92
9, 574740, Note_on_c, 3, 57, 92
9, 574784, Note_on_c, 3, 45, 0
9, 574784, Note_on_c, 3, 57, 0
9, 574800, Note_on_c, 3, 45, 92
9, 574800, Note_on_c, 3, 57, 92
9, 575249, Note_on_c, 3, 45, 0
9, 575249, Note_on_c, 3, 57, 0
9, 576000, Note_on_c, 3, 62, 32
9, 576164, Note_on_c, 3, 62, 0
9, 576180, Note_on_c, 3, 50, 32
9, 576224, Note_on_c, 3, 50, 0
9, 576240, Note_on_c, 3, 50, 32
9, 576344, Note_on_c, 3, 50, 0
9, 576360, Note_on_c, 3, 55, 32
9, 576464, Note_on_c, 3, 55, 0
9, 576480, Note_on_c, 3, 57, 32
9, 576584, Note_on_c, 3, 57, 0
9, 576600, Note_on_c, 3, 58, 32
9, 576704, Note_on_c, 3, 58, 0
9, 577440, Note_on_c, 3, 62, 32
9, 577604, Note_on_c, 3, 62, 0
9, 577620, Note_on_c, 3, 50, 32
9, 577664, Note_on_c, 3, 50, 0
9, 577680, Note_on_c, 3, 50, 32
9, 577784, Note_on_c, 3, 50, 0
9, 577800, Note_on_c, 3, 55, 32
9, 577904, Note_on_c, 3, 55, 0
9, 577920, Note_on_c, 3, 57, 32
9, 578024, Note_on_c, 3, 57, 0
9, 578040, Note_on_c, 3, 58, 32
9, 578144, Note_on_c, 3, 58, 0
9, 578160, Note_on_c, 3, 57, 32
9, 578319, Note_on_c, 3, 57, 0
9, 578340, Note_on_c, 3, 45, 35
9, 578379, Note_on_c, 3, 45, 0
9, 578400, Note_on_c, 3, 45, 37
9, 578499, Note_on_c, 3, 45, 0
9, 578520, Note_on_c, 3, 50, 39
9, 578619, Note_on_c, 3, 50, 0
9, 578640, Note_on_c, 3, 52, 42
9, 578739, Note_on_c, 3, 52, 0
9, 578760, Note_on_c, 3, 53, 44
9, 578859, Note_on_c, 3, 53, 0
9, 578880, Note_on_c, 3, 57, 47
9, 579039, Note_on_c, 3, 57, 0
9, 579060, Note_on_c, 3, 45, 50
9, 579099, Note_on_c, 3, 45, 0
9, 579120, Note_on_c, 3, 45, 52
9, 579219, Note_on_c, 3, 45, 0
9, 579240, Note_on_c, 3, 50, 54
9, 579339, Note_on_c, 3, 50, 0
9, 579360, Note_on_c, 3, 52, 57
9, 579459, Note_on_c, 3, 52, 0
9, 579480, Note_on_c, 3, 53, 59
9, 579579, Note_on_c, 3, 53, 0
9, 579600, Note_on_c, 3, 57, 62
9, 579759, Note_on_c, 3, 57, 0
9, 579780, Note_on_c, 3, 45, 65
9, 579819, Note_on_c, 3, 45, 0
9, 579840, Note_on_c, 3, 45, 67
9, 579939, Note_on_c, 3, 45, 0
9, 579960, Note_on_c, 3, 50, 69
9, 580059, Note_on_c, 3, 50, 0
9, 580080, Note_on_c, 3, 52, 72
9, 580179, Note_on_c, 3, 52, 0
9, 580200, Note_on_c, 3, 53, 74
9, 580299, Note_on_c, 3, 53, 0
9, 580320, Note_on_c, 3, 57, 77
9, 580479, Note_on_c, 3, 57, 0
9, 580500, Note_on_c, 3, 45, 80
9, 580539, Note_on_c, 3, 45, 0
9, 580560, Note_on_c, 3, 45, 82
9, 580659, Note_on_c, 3, 45, 0
9, 580680, Note_on_c, 3, 50, 84
9, 580779, Note_on_c, 3, 50, 0
9, 580800, Note_on_c, 3, 52, 87
9, 580899, Note_on_c, 3, 52, 0
9, 580920, Note_on_c, 3, 53, 89
9, 581019, Note_on_c, 3, 53, 0
9, 581040, Note_on_c, 3, 69, 92
9, 581139, Note_on_c, 3, 69, 0
9, 581160, Note_on_c, 3, 57, 92
9, 581259, Note_on_c, 3, 57, 0
9, 581280, Note_on_c, 3, 62, 80
9, 581379, Note_on_c, 3, 62, 0
9, 581400, Note_on_c, 3, 50, 80
9, 581499, Note_on_c, 3, 50, 0
9, 581520, Note_on_c, 3, 57, 80
9, 581619, Note_on_c, 3, 57, 0
9, 581640, Note_on_c, 3, 45, 80
9, 581739, Note_on_c, 3, 45, 0
9, 581760, Note_on_c, 3, 57, 80
9, 581859, Note_on_c, 3, 57, 0
9, 581880, Note_on_c, 3, 45, 80
9, 581979, Note_on_c, 3, 45, 0
9, 582000, Note_on_c, 3, 50, 80
9, 582000, Note_on_c, 3, 38, 80
9, 582119, Note_on_c, 3, 50, 0
9, 582119, Note_on_c, 3, 38, 0
9, 582240, Note_on_c, 3, 62, 68
9, 582329, Note_on_c, 3, 62, 0
9, 582360, Note_on_c, 3, 61, 56
9, 582449, Note_on_c, 3, 61, 0
9, 582480, Note_on_c, 3, 62, 44
9, 582569, Note_on_c, 3, 62, 0
9, 582600, Note_on_c, 3, 59, 44
9, 582689, Note_on_c, 3, 59, 0
9, 582720, Note_on_c, 3, 57, 44
9, 582809, Note_on_c, 3, 57, 0
9, 582840, Note_on_c, 3, 55, 44
9, 582929, Note_on_c, 3, 55, 0
9, 582960, Note_on_c, 3, 54, 44
9, 583049, Note_on_c, 3, 54, 0
9, 583080, Note_on_c, 3, 52, 44
9, 583169, Note_on_c, 3, 52, 0
9, 583200, Note_on_c, 3, 50, 44
9, 583289, Note_on_c, 3, 50, 0
9, 583320, Note_on_c, 3, 48, 44
9, 583409, Note_on_c, 3, 48, 0
9, 583440, Note_on_c, 3, 47, 44
9, 583529, Note_on_c, 3, 47, 0
9, 583560, Note_on_c, 3, 49, 44
9, 583649, Note_on_c, 3, 49, 0
9, 583680, Note_on_c, 3, 50, 44
9, 583769, Note_on_c, 3, 50, 0
9, 583800, Note_on_c, 3, 54, 44
9, 583889, Note_on_c, 3, 54, 0
9, 583920, Note_on_c, 3, 57, 44
9, 584009, Note_on_c, 3, 57, 0
9, 584040, Note_on_c, 3, 61, 44
9, 584129, Note_on_c, 3, 61, 0
9, 584160, Note_on_c, 3, 62, 44
9, 584249, Note_on_c, 3, 62, 0
9, 584280, Note_on_c, 3, 61, 44
9, 584369, Note_on_c, 3, 61, 0
9, 584400, Note_on_c, 3, 62, 44
9, 584489, Note_on_c, 3, 62, 0
9, 584520, Note_on_c, 3, 59, 44
9, 584609, Note_on_c, 3, 59, 0
9, 584640, Note_on_c, 3, 57, 44
9, 584729, Note_on_c, 3, 57, 0
9, 584760, Note_on_c, 3, 55, 44
9, 584849, Note_on_c, 3, 55, 0
9, 584880, Note_on_c, 3, 54, 44
9, 584969, Note_on_c, 3, 54, 0
9, 585000, Note_on_c, 3, 52, 44
9, 585089, Note_on_c, 3, 52, 0
9, 585120, Note_on_c, 3, 50, 44
9, 585209, Note_on_c, 3, 50, 0
9, 585240, Note_on_c, 3, 62, 44
9, 585329, Note_on_c, 3, 62, 0
9, 585840, Note_on_c, 3, 69, 92
9, 585939, Note_on_c, 3, 69, 0
9, 585960, Note_on_c, 3, 57, 92
9, 586059, Note_on_c, 3, 57, 0
9, 586080, Note_on_c, 3, 62, 80
9, 586179, Note_on_c, 3, 62, 0
9, 586200, Note_on_c, 3, 50, 80
9, 586299, Note_on_c, 3, 50, 0
9, 586320, Note_on_c, 3, 57, 80
9, 586419, Note_on_c, 3, 57, 0
9, 586440, Note_on_c, 3, 45, 80
9, 586539, Note_on_c, 3, 45, 0
9, 586560, Note_on_c, 3, 57, 80
9, 586659, Note_on_c, 3, 57, 0
9, 586680, Note_on_c, 3, 45, 80
9, 586779, Note_on_c, 3, 45, 0
9, 586800, Note_on_c, 3, 50, 80
9, 586800, Note_on_c, 3, 38, 80
9, 586919, Note_on_c, 3, 50, 0
9, 586919, Note_on_c, 3, 38, 0
9, 586919, End_track
10, 0, Start_track
10, 0, Title_t, "French Horn in D"
10, 0, MIDI_port, 0
10, 0, Program_c, 4, 60
10, 0, Control_c, 4, 7, 104
10, 0, Control_c, 4, 10, 45
10, 0, Control_c, 4, 11, 127
10, 1800, Note_on_c, 4, 62, 92
10, 1964, Note_on_c, 4, 62, 0
10, 1980, Note_on_c, 4, 50, 92
10, 2024, Note_on_c, 4, 50, 0
10, 2040, Note_on_c, 4, 50, 92
10, 2159, Note_on_c, 4, 50, 0
10, 5760, Note_on_c, 4, 69, 32
10, 5879, Note_on_c, 4, 69, 0
10, 6120, Note_on_c, 4, 62, 32
10, 6239, Note_on_c, 4, 62, 0
10, 6480, Note_on_c, 4, 64, 32
10, 6599, Note_on_c, 4, 64, 0
10, 6840, Note_on_c, 4, 65, 32
10, 6959, Note_on_c, 4, 65, 0
10, 8640, Note_on_c, 4, 45, 32
10, 8640, Note_on_c, 4, 57, 32
10, 8759, Note_on_c, 4, 45, 0
10, 8759, Note_on_c, 4, 57, 0
10, 9000, Note_on_c, 4, 38, 32
10, 9000, Note_on_c, 4, 57, 32
10, 9119, Note_on_c, 4, 38, 0
10, 9119, Note_on_c, 4, 57, 0
10, 11160, Note_on_c, 4, 45, 32
10, 11160, Note_on_c, 4, 57, 32
10, 11279, Note_on_c, 4, 45, 0
10, 11279, Note_on_c, 4, 57, 0
10, 11520, Note_on_c, 4, 57, 32
10, 11520, Note_on_c, 4, 45, 32
10, 11639, Note_on_c, 4, 57, 0
10, 11639, Note_on_c, 4, 45, 0
10, 11880, Note_on_c, 4, 57, 32
10, 11880, Note_on_c, 4, 45, 32
10, 11999, Note_on_c, 4, 57, 0
10, 11999, Note_on_c, 4, 45, 0
10, 12240, Note_on_c, 4, 57, 32
10, 12240, Note_on_c, 4, 45, 32
10, 12359, Note_on_c, 4, 57, 0
10, 12359, Note_on_c, 4, 45, 0
10, 12600, Note_on_c, 4, 57, 32
10, 12600, Note_on_c, 4, 45, 32
10, 12719, Note_on_c, 4, 57, 0
10, 12719, Note_on_c, 4, 45, 0
10, 12960, Note_on_c, 4, 57, 32
10, 12960, Note_on_c, 4, 45, 32
10, 13079, Note_on_c, 4, 57, 0
10, 13079, Note_on_c, 4, 45, 0
10, 13320, Note_on_c, 4, 57, 32
10, 13320, Note_on_c, 4, 45, 32
10, 13439, Note_on_c, 4, 57, 0
10, 13439, Note_on_c, 4, 45, 0
10, 13680, Note_on_c, 4, 57, 32
10, 13680, Note_on_c, 4, 45, 32
10, 13799, Note_on_c, 4, 57, 0
10, 13799, Note_on_c, 4, 45, 0
10, 14040, Note_on_c, 4, 57, 32
10, 14040, Note_on_c, 4, 45, 32
10, 14159, Note_on_c, 4, 57, 0
10, 14159, Note_on_c, 4, 45, 0
10, 14640, Note_on_c, 4, 57, 32
10, 14640, Note_on_c, 4, 45, 32
10, 14759, Note_on_c, 4, 57, 0
10, 14759, Note_on_c, 4, 45, 0
10, 15000, Note_on_c, 4, 45, 32
10, 15000, Note_on_c, 4, 57, 32
10, 15119, Note_on_c, 4, 45, 0
10, 15119, Note_on_c, 4, 57, 0
10, 15360, Note_on_c, 4, 45, 32
10, 15360, Note_on_c, 4, 57, 32
10, 15479, Note_on_c, 4, 45, 0
10, 15479, Note_on_c, 4, 57, 0
10, 15720, Note_on_c, 4, 57, 32
10, 15720, Note_on_c, 4, 45, 32
10, 15824, Note_on_c, 4, 57, 0
10, 15824, Note_on_c, 4, 45, 0
10, 15838, Control_c, 4, 11, 27
10, 15840, Note_on_c, 4, 57, 92
10, 15840, Note_on_c, 4, 45, 92
10, 15883, Control_c, 4, 11, 28
10, 15926, Control_c, 4, 11, 29
10, 15970, Control_c, 4, 11, 30
10, 16013, Control_c, 4, 11, 31
10, 16056, Control_c, 4, 11, 32
10, 16099, Control_c, 4, 11, 33
10, 16142, Control_c, 4, 11, 34
10, 16186, Control_c, 4, 11, 35
10, 16229, Control_c, 4, 11, 36
10, 16272, Control_c, 4, 11, 37
10, 16315, Control_c, 4, 11, 38
10, 16358, Control_c, 4, 11, 39
10, 16402, Control_c, 4, 11, 40
10, 16445, Control_c, 4, 11, 41
10, 16488, Control_c, 4, 11, 42
10, 16531, Control_c, 4, 11, 43
10, 16574, Control_c, 4, 11, 44
10, 16618, Control_c, 4, 11, 45
10, 16661, Control_c, 4, 11, 46
10, 16704, Control_c, 4, 11, 47
10, 16747, Control_c, 4, 11, 48
10, 16790, Control_c, 4, 11, 49
10, 16834, Control_c, 4, 11, 50
10, 16877, Control_c, 4, 11, 51
10, 16920, Control_c, 4, 11, 52
10, 16963, Control_c, 4, 11, 53
10, 17006, Control_c, 4, 11, 54
10, 17050, Control_c, 4, 11, 55
10, 17093, Control_c, 4, 11, 56
10, 17136, Control_c, 4, 11, 57
10, 17179, Control_c, 4, 11, 58
10, 17222, Control_c, 4, 11, 59
10, 17266, Control_c, 4, 11, 60
10, 17309, Control_c, 4, 11, 61
10, 17352, Control_c, 4, 11, 62
10, 17395, Control_c, 4, 11, 63
10, 17438, Control_c, 4, 11, 64
10, 17482, Control_c, 4, 11, 65
10, 17525, Control_c, 4, 11, 66
10, 17568, Control_c, 4, 11, 67
10, 17611, Control_c, 4, 11, 68
10, 17654, Control_c, 4, 11, 69
10, 17698, Control_c, 4, 11, 70
10, 17741, Control_c, 4, 11, 71
10, 17784, Control_c, 4, 11, 72
10, 17827, Control_c, 4, 11, 73
10, 17870, Control_c, 4, 11, 74
10, 17914, Control_c, 4, 11, 75
10, 17957, Control_c, 4, 11, 76
10, 18000, Control_c, 4, 11, 77
10, 18043, Control_c, 4, 11, 78
10, 18086, Control_c, 4, 11, 79
10, 18130, Control_c, 4, 11, 80
10, 18173, Control_c, 4, 11, 81
10, 18216, Control_c, 4, 11, 82
10, 18259, Control_c, 4, 11, 83
10, 18302, Control_c, 4, 11, 84
10, 18346, Control_c, 4, 11, 85
10, 18389, Control_c, 4, 11, 86
10, 18432, Control_c, 4, 11, 87
10, 18475, Control_c, 4, 11, 88
10, 18518, Control_c, 4, 11, 89
10, 18562, Control_c, 4, 11, 90
10, 18605, Control_c, 4, 11, 91
10, 18648, Control_c, 4, 11, 92
10, 18691, Control_c, 4, 11, 93
10, 18734, Control_c, 4, 11, 94
10, 18778, Control_c, 4, 11, 95
10, 18821, Control_c, 4, 11, 96
10, 18864, Control_c, 4, 11, 97
10, 18907, Control_c, 4, 11, 98
10, 18950, Control_c, 4, 11, 99
10, 18994, Control_c, 4, 11, 100
10, 19037, Control_c, 4, 11, 101
10, 19080, Control_c, 4, 11, 102
10, 19123, Control_c, 4, 11, 103
10, 19166, Control_c, 4, 11, 104
10, 19210, Control_c, 4, 11, 105
10, 19253, Control_c, 4, 11, 106
10, 19296, Control_c, 4, 11, 107
10, 19339, Control_c, 4, 11, 108
10, 19382, Control_c, 4, 11, 109
10, 19426, Control_c, 4, 11, 110
10, 19469, Control_c, 4, 11, 111
10, 19512, Control_c, 4, 11, 112
10, 19555, Control_c, 4, 11, 113
10, 19598, Control_c, 4, 11, 114
10, 19642, Control_c, 4, 11, 115
10, 19685, Control_c, 4, 11, 116
10, 19728, Control_c, 4, 11, 117
10, 19771, Control_c, 4, 11, 118
10, 19814, Control_c, 4, 11, 119
10, 19858, Control_c, 4, 11, 120
10, 19901, Control_c, 4, 11, 121
10, 19944, Control_c, 4, 11, 122
10, 19987, Control_c, 4, 11, 123
10, 20030, Control_c, 4, 11, 124
10, 20074, Control_c, 4, 11, 125
10, 20117, Control_c, 4, 11, 127
10, 20144, Note_on_c, 4, 57, 0
10, 20144, Note_on_c, 4, 45, 0
10, 20160, Note_on_c, 4, 57, 92
10, 20160, Note_on_c, 4, 69, 92
10, 20264, Note_on_c, 4, 57, 0
10, 20264, Note_on_c, 4, 69, 0
10, 20280, Note_on_c, 4, 69, 92
10, 20280, Note_on_c, 4, 57, 92
10, 20384, Note_on_c, 4, 69, 0
10, 20384, Note_on_c, 4, 57, 0
10, 20400, Note_on_c, 4, 57, 92
10, 20400, Note_on_c, 4, 69, 92
10, 20504, Note_on_c, 4, 57, 0
10, 20504, Note_on_c, 4, 69, 0
10, 20520, Note_on_c, 4, 57, 92
10, 20520, Note_on_c, 4, 69, 92
10, 20624, Note_on_c, 4, 57, 0
10, 20624, Note_on_c, 4, 69, 0
10, 20640, Note_on_c, 4, 69, 92
10, 20640, Note_on_c, 4, 57, 92
10, 20744, Note_on_c, 4, 69, 0
10, 20744, Note_on_c, 4, 57, 0
10, 20760, Note_on_c, 4, 69, 92
10, 20760, Note_on_c, 4, 57, 92
10, 20864, Note_on_c, 4, 69, 0
10, 20864, Note_on_c, 4, 57, 0
10, 20880, Note_on_c, 4, 57, 92
10, 20880, Note_on_c, 4, 69, 92
10, 20984, Note_on_c, 4, 57, 0
10, 20984, Note_on_c, 4, 69, 0
10, 21000, Note_on_c, 4, 69, 92
10, 21000, Note_on_c, 4, 57, 92
10, 21104, Note_on_c, 4, 69, 0
10, 21104, Note_on_c, 4, 57, 0
10, 21120, Note_on_c, 4, 57, 92
10, 21120, Note_on_c, 4, 69, 92
10, 21224, Note_on_c, 4, 57, 0
10, 21224, Note_on_c, 4, 69, 0
10, 21240, Note_on_c, 4, 57, 92
10, 21240, Note_on_c, 4, 69, 92
10, 21344, Note_on_c, 4, 57, 0
10, 21344, Note_on_c, 4, 69, 0
10, 21360, Note_on_c, 4, 57, 92
10, 21360, Note_on_c, 4, 69, 92
10, 21464, Note_on_c, 4, 57, 0
10, 21464, Note_on_c, 4, 69, 0
10, 21480, Note_on_c, 4, 69, 92
10, 21480, Note_on_c, 4, 57, 92
10, 21584, Note_on_c, 4, 69, 0
10, 21584, Note_on_c, 4, 57, 0
10, 21600, Note_on_c, 4, 50, 80
10, 21600, Note_on_c, 4, 67, 80
10, 21704, Note_on_c, 4, 50, 0
10, 21704, Note_on_c, 4, 67, 0
10, 21720, Note_on_c, 4, 50, 80
10, 21720, Note_on_c, 4, 67, 80
10, 21824, Note_on_c, 4, 50, 0
10, 21824, Note_on_c, 4, 67, 0
10, 21840, Note_on_c, 4, 67, 80
10, 21840, Note_on_c, 4, 50, 80
10, 21944, Note_on_c, 4, 67, 0
10, 21944, Note_on_c, 4, 50, 0
10, 21960, Note_on_c, 4, 50, 80
10, 21960, Note_on_c, 4, 62, 80
10, 22064, Note_on_c, 4, 50, 0
10, 22064, Note_on_c, 4, 62, 0
10, 22080, Note_on_c, 4, 57, 80
10, 22080, Note_on_c, 4, 69, 80
10, 22184, Note_on_c, 4, 57, 0
10, 22184, Note_on_c, 4, 69, 0
10, 22200, Note_on_c, 4, 69, 80
10, 22200, Note_on_c, 4, 57, 80
10, 22304, Note_on_c, 4, 69, 0
10, 22304, Note_on_c, 4, 57, 0
10, 22320, Note_on_c, 4, 57, 80
10, 22320, Note_on_c, 4, 69, 80
10, 22424, Note_on_c, 4, 57, 0
10, 22424, Note_on_c, 4, 69, 0
10, 22440, Note_on_c, 4, 57, 80
10, 22440, Note_on_c, 4, 69, 80
10, 22544, Note_on_c, 4, 57, 0
10, 22544, Note_on_c, 4, 69, 0
10, 22560, Note_on_c, 4, 57, 80
10, 22560, Note_on_c, 4, 69, 80
10, 22664, Note_on_c, 4, 57, 0
10, 22664, Note_on_c, 4, 69, 0
10, 22680, Note_on_c, 4, 57, 80
10, 22680, Note_on_c, 4, 69, 80
10, 22784, Note_on_c, 4, 57, 0
10, 22784, Note_on_c, 4, 69, 0
10, 22800, Note_on_c, 4, 62, 80
10, 22800, Note_on_c, 4, 69, 80
10, 22904, Note_on_c, 4, 62, 0
10, 22904, Note_on_c, 4, 69, 0
10, 22920, Note_on_c, 4, 69, 80
10, 22920, Note_on_c, 4, 62, 80
10, 23024, Note_on_c, 4, 69, 0
10, 23024, Note_on_c, 4, 62, 0
10, 23040, Note_on_c, 4, 62, 80
10, 23040, Note_on_c, 4, 67, 80
10, 23144, Note_on_c, 4, 62, 0
10, 23144, Note_on_c, 4, 67, 0
10, 23160, Note_on_c, 4, 62, 80
10, 23160, Note_on_c, 4, 67, 80
10, 23264, Note_on_c, 4, 62, 0
10, 23264, Note_on_c, 4, 67, 0
10, 23280, Note_on_c, 4, 62, 80
10, 23280, Note_on_c, 4, 67, 80
10, 23384, Note_on_c, 4, 62, 0
10, 23384, Note_on_c, 4, 67, 0
10, 23400, Note_on_c, 4, 57, 80
10, 23400, Note_on_c, 4, 69, 80
10, 23504, Note_on_c, 4, 57, 0
10, 23504, Note_on_c, 4, 69, 0
10, 23520, Note_on_c, 4, 57, 80
10, 23520, Note_on_c, 4, 69, 80
10, 23624, Note_on_c, 4, 57, 0
10, 23624, Note_on_c, 4, 69, 0
10, 23640, Note_on_c, 4, 57, 80
10, 23640, Note_on_c, 4, 69, 80
10, 23744, Note_on_c, 4, 57, 0
10, 23744, Note_on_c, 4, 69, 0
10, 23760, Note_on_c, 4, 69, 80
10, 23760, Note_on_c, 4, 57, 80
10, 23864, Note_on_c, 4, 69, 0
10, 23864, Note_on_c, 4, 57, 0
10, 23880, Note_on_c, 4, 57, 80
10, 23880, Note_on_c, 4, 69, 80
10, 23984, Note_on_c, 4, 57, 0
10, 23984, Note_on_c, 4, 69, 0
10, 24000, Note_on_c, 4, 69, 80
10, 24000, Note_on_c, 4, 57, 80
10, 24104, Note_on_c, 4, 69, 0
10, 24104, Note_on_c, 4, 57, 0
10, 24120, Note_on_c, 4, 69, 80
10, 24120, Note_on_c, 4, 57, 80
10, 24224, Note_on_c, 4, 69, 0
10, 24224, Note_on_c, 4, 57, 0
10, 24240, Note_on_c, 4, 65, 80
10, 24240, Note_on_c, 4, 69, 80
10, 24344, Note_on_c, 4, 65, 0
10, 24344, Note_on_c, 4, 69, 0
10, 24360, Note_on_c, 4, 67, 80
10, 24360, Note_on_c, 4, 65, 80
10, 24464, Note_on_c, 4, 67, 0
10, 24464, Note_on_c, 4, 65, 0
10, 24480, Note_on_c, 4, 65, 80
10, 24480, Note_on_c, 4, 67, 80
10, 24584, Note_on_c, 4, 65, 0
10, 24584, Note_on_c, 4, 67, 0
10, 24600, Note_on_c, 4, 65, 80
10, 24600, Note_on_c, 4, 67, 80
10, 24704, Note_on_c, 4, 65, 0
10, 24704, Note_on_c, 4, 67, 0
10, 24720, Note_on_c, 4, 65, 80
10, 24720, Note_on_c, 4, 67, 80
10, 24824, Note_on_c, 4, 65, 0
10, 24824, Note_on_c, 4, 67, 0
10, 24840, Note_on_c, 4, 64, 80
10, 24840, Note_on_c, 4, 67, 80
10, 24944, Note_on_c, 4, 64, 0
10, 24944, Note_on_c, 4, 67, 0
10, 24960, Note_on_c, 4, 67, 80
10, 25064, Note_on_c, 4, 67, 0
10, 25080, Note_on_c, 4, 67, 80
10, 25184, Note_on_c, 4, 67, 0
10, 25200, Note_on_c, 4, 67, 80
10, 25304, Note_on_c, 4, 67, 0
10, 25320, Note_on_c, 4, 67, 80
10, 25424, Note_on_c, 4, 67, 0
10, 25440, Note_on_c, 4, 67, 80
10, 25544, Note_on_c, 4, 67, 0
10, 25560, Note_on_c, 4, 67, 80
10, 25664, Note_on_c, 4, 67, 0
10, 25680, Note_on_c, 4, 67, 80
10, 25784, Note_on_c, 4, 67, 0
10, 25800, Note_on_c, 4, 67, 80
10, 25904, Note_on_c, 4, 67, 0
10, 25920, Note_on_c, 4, 67, 80
10, 26024, Note_on_c, 4, 67, 0
10, 26040, Note_on_c, 4, 67, 80
10, 26144, Note_on_c, 4, 67, 0
10, 26160, Note_on_c, 4, 67, 80
10, 26264, Note_on_c, 4, 67, 0
10, 26280, Note_on_c, 4, 67, 80
10, 26384, Note_on_c, 4, 67, 0
10, 26400, Note_on_c, 4, 67, 80
10, 26504, Note_on_c, 4, 67, 0
10, 26520, Note_on_c, 4, 67, 80
10, 26624, Note_on_c, 4, 67, 0
10, 26640, Note_on_c, 4, 67, 80
10, 26744, Note_on_c, 4, 67, 0
10, 26760, Note_on_c, 4, 67, 80
10, 26864, Note_on_c, 4, 67, 0
10, 26880, Note_on_c, 4, 67, 80
10, 26984, Note_on_c, 4, 67, 0
10, 27000, Note_on_c, 4, 67, 80
10, 27104, Note_on_c, 4, 67, 0
10, 27120, Note_on_c, 4, 67, 80
10, 27224, Note_on_c, 4, 67, 0
10, 27240, Note_on_c, 4, 67, 80
10, 27344, Note_on_c, 4, 67, 0
10, 27360, Note_on_c, 4, 67, 80
10, 27464, Note_on_c, 4, 67, 0
10, 33120, Note_on_c, 4, 60, 92
10, 33464, Note_on_c, 4, 60, 0
10, 33480, Note_on_c, 4, 60, 92
10, 33599, Note_on_c, 4, 60, 0
10, 33720, Note_on_c, 4, 60, 92
10, 33824, Note_on_c, 4, 60, 0
10, 33840, Note_on_c, 4, 60, 92
10, 33959, Note_on_c, 4, 60, 0
10, 34080, Note_on_c, 4, 60, 92
10, 34184, Note_on_c, 4, 60, 0
10, 34200, Note_on_c, 4, 60, 92
10, 34319, Note_on_c, 4, 60, 0
10, 34440, Note_on_c, 4, 60, 92
10, 34544, Note_on_c, 4, 60, 0
10, 34560, Note_on_c, 4, 60, 92
10, 34904, Note_on_c, 4, 60, 0
10, 34920, Note_on_c, 4, 60, 92
10, 35039, Note_on_c, 4, 60, 0
10, 35160, Note_on_c, 4, 60, 92
10, 35264, Note_on_c, 4, 60, 0
10, 35280, Note_on_c, 4, 60, 92
10, 35399, Note_on_c, 4, 60, 0
10, 35520, Note_on_c, 4, 60, 92
10, 35624, Note_on_c, 4, 60, 0
10, 35640, Note_on_c, 4, 60, 92
10, 35759, Note_on_c, 4, 60, 0
10, 35880, Note_on_c, 4, 60, 92
10, 35984, Note_on_c, 4, 60, 0
10, 36000, Note_on_c, 4, 60, 92
10, 36104, Note_on_c, 4, 60, 0
10, 36120, Note_on_c, 4, 60, 92
10, 36224, Note_on_c, 4, 60, 0
10, 36240, Note_on_c, 4, 60, 92
10, 36344, Note_on_c, 4, 60, 0
10, 36360, Note_on_c, 4, 60, 92
10, 36464, Note_on_c, 4, 60, 0
10, 36480, Note_on_c, 4, 60, 92
10, 36584, Note_on_c, 4, 60, 0
10, 36600, Note_on_c, 4, 60, 92
10, 36704, Note_on_c, 4, 60, 0
10, 36720, Note_on_c, 4, 60, 92
10, 36824, Note_on_c, 4, 60, 0
10, 36840, Note_on_c, 4, 60, 92
10, 36944, Note_on_c, 4, 60, 0
10, 36960, Note_on_c, 4, 60, 92
10, 37064, Note_on_c, 4, 60, 0
10, 37080, Note_on_c, 4, 60, 92
10, 37184, Note_on_c, 4, 60, 0
10, 37200, Note_on_c, 4, 60, 92
10, 37304, Note_on_c, 4, 60, 0
10, 37320, Note_on_c, 4, 60, 92
10, 37424, Note_on_c, 4, 60, 0
10, 37440, Note_on_c, 4, 60, 92
10, 37544, Note_on_c, 4, 60, 0
10, 37560, Note_on_c, 4, 60, 92
10, 37664, Note_on_c, 4, 60, 0
10, 37680, Note_on_c, 4, 60, 92
10, 37784, Note_on_c, 4, 60, 0
10, 37800, Note_on_c, 4, 60, 92
10, 37904, Note_on_c, 4, 60, 0
10, 37920, Note_on_c, 4, 60, 92
10, 38024, Note_on_c, 4, 60, 0
10, 38040, Note_on_c, 4, 60, 92
10, 38144, Note_on_c, 4, 60, 0
10, 38160, Note_on_c, 4, 60, 92
10, 38264, Note_on_c, 4, 60, 0
10, 38280, Note_on_c, 4, 60, 92
10, 38384, Note_on_c, 4, 60, 0
10, 38400, Note_on_c, 4, 60, 92
10, 38504, Note_on_c, 4, 60, 0
10, 38520, Note_on_c, 4, 60, 92
10, 38624, Note_on_c, 4, 60, 0
10, 38640, Note_on_c, 4, 60, 92
10, 38744, Note_on_c, 4, 60, 0
10, 38760, Note_on_c, 4, 60, 92
10, 38864, Note_on_c, 4, 60, 0
10, 38880, Note_on_c, 4, 64, 92
10, 39044, Note_on_c, 4, 64, 0
10, 39060, Note_on_c, 4, 64, 92
10, 39104, Note_on_c, 4, 64, 0
10, 39120, Note_on_c, 4, 64, 92
10, 39224, Note_on_c, 4, 64, 0
10, 39240, Note_on_c, 4, 64, 92
10, 39344, Note_on_c, 4, 64, 0
10, 40320, Note_on_c, 4, 50, 92
10, 40320, Note_on_c, 4, 62, 92
10, 40484, Note_on_c, 4, 50, 0
10, 40484, Note_on_c, 4, 62, 0
10, 40500, Note_on_c, 4, 50, 92
10, 40544, Note_on_c, 4, 50, 0
10, 40560, Note_on_c, 4, 50, 92
10, 40664, Note_on_c, 4, 50, 0
10, 40680, Note_on_c, 4, 50, 92
10, 40680, Note_on_c, 4, 62, 92
10, 40799, Note_on_c, 4, 50, 0
10, 40799, Note_on_c, 4, 62, 0
10, 41040, Note_on_c, 4, 67, 92
10, 41204, Note_on_c, 4, 67, 0
10, 41220, Note_on_c, 4, 67, 92
10, 41264, Note_on_c, 4, 67, 0
10, 41280, Note_on_c, 4, 67, 92
10, 41384, Note_on_c, 4, 67, 0
10, 41400, Note_on_c, 4, 67, 92
10, 41519, Note_on_c, 4, 67, 0
10, 43560, Control_c, 4, 11, 67
10, 43920, Note_on_c, 4, 60, 80
10, 43920, Control_c, 4, 11, 67
10, 43950, Control_c, 4, 11, 68
10, 43980, Control_c, 4, 11, 70
10, 44010, Control_c, 4, 11, 71
10, 44040, Control_c, 4, 11, 72
10, 44070, Control_c, 4, 11, 73
10, 44100, Control_c, 4, 11, 75
10, 44130, Control_c, 4, 11, 76
10, 44160, Control_c, 4, 11, 77
10, 44190, Control_c, 4, 11, 78
10, 44220, Control_c, 4, 11, 80
10, 44250, Control_c, 4, 11, 81
10, 44280, Control_c, 4, 11, 82
10, 44310, Control_c, 4, 11, 83
10, 44340, Control_c, 4, 11, 85
10, 44370, Control_c, 4, 11, 86
10, 44400, Control_c, 4, 11, 87
10, 44430, Control_c, 4, 11, 88
10, 44460, Control_c, 4, 11, 90
10, 44490, Control_c, 4, 11, 91
10, 44520, Control_c, 4, 11, 92
10, 44550, Control_c, 4, 11, 93
10, 44580, Control_c, 4, 11, 95
10, 44610, Control_c, 4, 11, 96
10, 44640, Control_c, 4, 11, 97
10, 44670, Control_c, 4, 11, 98
10, 44700, Control_c, 4, 11, 100
10, 44730, Control_c, 4, 11, 101
10, 44760, Control_c, 4, 11, 102
10, 44790, Control_c, 4, 11, 103
10, 44820, Control_c, 4, 11, 105
10, 44850, Control_c, 4, 11, 106
10, 44880, Control_c, 4, 11, 107
10, 44910, Control_c, 4, 11, 108
10, 44940, Control_c, 4, 11, 110
10, 44970, Control_c, 4, 11, 111
10, 45000, Control_c, 4, 11, 112
10, 45030, Control_c, 4, 11, 113
10, 45060, Control_c, 4, 11, 115
10, 45090, Control_c, 4, 11, 116
10, 45120, Control_c, 4, 11, 117
10, 45150, Control_c, 4, 11, 118
10, 45180, Control_c, 4, 11, 120
10, 45210, Control_c, 4, 11, 121
10, 45240, Control_c, 4, 11, 122
10, 45270, Control_c, 4, 11, 123
10, 45300, Control_c, 4, 11, 125
10, 45330, Control_c, 4, 11, 127
10, 45344, Note_on_c, 4, 60, 0
10, 45360, Note_on_c, 4, 60, 80
10, 45464, Note_on_c, 4, 60, 0
10, 45480, Note_on_c, 4, 60, 80
10, 45584, Note_on_c, 4, 60, 0
10, 45600, Note_on_c, 4, 60, 80
10, 45704, Note_on_c, 4, 60, 0
10, 45720, Note_on_c, 4, 50, 80
10, 45720, Note_on_c, 4, 62, 80
10, 45824, Note_on_c, 4, 50, 0
10, 45824, Note_on_c, 4, 62, 0
10, 45840, Note_on_c, 4, 62, 80
10, 45840, Note_on_c, 4, 50, 80
10, 45944, Note_on_c, 4, 62, 0
10, 45944, Note_on_c, 4, 50, 0
10, 45960, Note_on_c, 4, 50, 80
10, 45960, Note_on_c, 4, 62, 80
10, 46064, Note_on_c, 4, 50, 0
10, 46064, Note_on_c, 4, 62, 0
10, 46080, Note_on_c, 4, 64, 80
10, 46184, Note_on_c, 4, 64, 0
10, 46200, Note_on_c, 4, 67, 80
10, 46304, Note_on_c, 4, 67, 0
10, 46320, Note_on_c, 4, 69, 80
10, 46424, Note_on_c, 4, 69, 0
10, 46440, Note_on_c, 4, 69, 80
10, 46544, Note_on_c, 4, 69, 0
10, 46560, Note_on_c, 4, 67, 80
10, 46664, Note_on_c, 4, 67, 0
10, 46680, Note_on_c, 4, 67, 80
10, 46784, Note_on_c, 4, 67, 0
10, 46800, Note_on_c, 4, 67, 80
10, 46919, Note_on_c, 4, 67, 0
10, 47520, Note_on_c, 4, 64, 80
10, 47624, Note_on_c, 4, 64, 0
10, 47640, Note_on_c, 4, 67, 80
10, 47744, Note_on_c, 4, 67, 0
10, 47760, Note_on_c, 4, 67, 80
10, 47864, Note_on_c, 4, 67, 0
10, 47880, Note_on_c, 4, 67, 80
10, 47984, Note_on_c, 4, 67, 0
10, 48000, Note_on_c, 4, 67, 80
10, 48104, Note_on_c, 4, 67, 0
10, 48120, Note_on_c, 4, 67, 80
10, 48224, Note_on_c, 4, 67, 0
10, 48240, Note_on_c, 4, 67, 80
10, 48344, Note_on_c, 4, 67, 0
10, 48360, Note_on_c, 4, 67, 80
10, 48464, Note_on_c, 4, 67, 0
10, 48480, Note_on_c, 4, 67, 80
10, 48584, Note_on_c, 4, 67, 0
10, 48600, Note_on_c, 4, 67, 80
10, 48704, Note_on_c, 4, 67, 0
10, 48720, Note_on_c, 4, 67, 80
10, 48824, Note_on_c, 4, 67, 0
10, 48840, Note_on_c, 4, 67, 80
10, 48944, Note_on_c, 4, 67, 0
10, 48960, Note_on_c, 4, 67, 80
10, 49064, Note_on_c, 4, 67, 0
10, 49080, Note_on_c, 4, 67, 80
10, 49184, Note_on_c, 4, 67, 0
10, 49200, Note_on_c, 4, 67, 80
10, 49304, Note_on_c, 4, 67, 0
10, 49320, Note_on_c, 4, 67, 80
10, 49424, Note_on_c, 4, 67, 0
10, 49440, Note_on_c, 4, 67, 80
10, 49544, Note_on_c, 4, 67, 0
10, 49560, Note_on_c, 4, 67, 80
10, 49664, Note_on_c, 4, 67, 0
10, 51120, Note_on_c, 4, 60, 32
10, 51284, Note_on_c, 4, 60, 0
10, 51300, Note_on_c, 4, 60, 32
10, 51344, Note_on_c, 4, 60, 0
10, 51360, Note_on_c, 4, 60, 32
10, 51464, Note_on_c, 4, 60, 0
10, 51480, Note_on_c, 4, 60, 32
10, 51480, Note_on_c, 4, 57, 32
10, 51599, Note_on_c, 4, 60, 0
10, 51599, Note_on_c, 4, 57, 0
10, 51840, Note_on_c, 4, 57, 32
10, 51840, Note_on_c, 4, 60, 32
10, 52004, Note_on_c, 4, 57, 0
10, 52004, Note_on_c, 4, 60, 0
10, 52020, Note_on_c, 4, 60, 32
10, 52020, Note_on_c, 4, 57, 32
10, 52064, Note_on_c, 4, 60, 0
10, 52064, Note_on_c, 4, 57, 0
10, 52080, Note_on_c, 4, 57, 32
10, 52080, Note_on_c, 4, 60, 32
10, 52184, Note_on_c, 4, 57, 0
10, 52184, Note_on_c, 4, 60, 0
10, 52200, Note_on_c, 4, 62, 32
10, 52200, Note_on_c, 4, 57, 32
10, 52319, Note_on_c, 4, 62, 0
10, 52319, Note_on_c, 4, 57, 0
10, 56880, Note_on_c, 4, 69, 32
10, 56999, Note_on_c, 4, 69, 0
10, 57240, Note_on_c, 4, 62, 32
10, 57359, Note_on_c, 4, 62, 0
10, 57600, Note_on_c, 4, 64, 32
10, 57719, Note_on_c, 4, 64, 0
10, 57960, Note_on_c, 4, 65, 32
10, 58079, Note_on_c, 4, 65, 0
10, 59760, Note_on_c, 4, 45, 32
10, 59760, Note_on_c, 4, 57, 32
10, 59879, Note_on_c, 4, 45, 0
10, 59879, Note_on_c, 4, 57, 0
10, 60120, Note_on_c, 4, 38, 32
10, 60120, Note_on_c, 4, 57, 32
10, 60239, Note_on_c, 4, 38, 0
10, 60239, Note_on_c, 4, 57, 0
10, 62280, Note_on_c, 4, 57, 32
10, 62280, Note_on_c, 4, 45, 32
10, 62399, Note_on_c, 4, 57, 0
10, 62399, Note_on_c, 4, 45, 0
10, 62640, Note_on_c, 4, 45, 32
10, 62640, Note_on_c, 4, 57, 32
10, 62759, Note_on_c, 4, 45, 0
10, 62759, Note_on_c, 4, 57, 0
10, 63000, Note_on_c, 4, 57, 32
10, 63000, Note_on_c, 4, 45, 32
10, 63119, Note_on_c, 4, 57, 0
10, 63119, Note_on_c, 4, 45, 0
10, 63360, Note_on_c, 4, 57, 32
10, 63360, Note_on_c, 4, 45, 32
10, 63479, Note_on_c, 4, 57, 0
10, 63479, Note_on_c, 4, 45, 0
10, 63720, Note_on_c, 4, 45, 32
10, 63720, Note_on_c, 4, 57, 32
10, 63839, Note_on_c, 4, 45, 0
10, 63839, Note_on_c, 4, 57, 0
10, 64080, Note_on_c, 4, 45, 32
10, 64080, Note_on_c, 4, 57, 32
10, 64199, Note_on_c, 4, 45, 0
10, 64199, Note_on_c, 4, 57, 0
10, 64440, Note_on_c, 4, 57, 32
10, 64440, Note_on_c, 4, 45, 32
10, 64559, Note_on_c, 4, 57, 0
10, 64559, Note_on_c, 4, 45, 0
10, 64800, Note_on_c, 4, 45, 32
10, 64800, Note_on_c, 4, 57, 32
10, 64919, Note_on_c, 4, 45, 0
10, 64919, Note_on_c, 4, 57, 0
10, 65160, Note_on_c, 4, 57, 32
10, 65160, Note_on_c, 4, 45, 32
10, 65279, Note_on_c, 4, 57, 0
10, 65279, Note_on_c, 4, 45, 0
10, 65760, Note_on_c, 4, 57, 32
10, 65760, Note_on_c, 4, 45, 32
10, 65879, Note_on_c, 4, 57, 0
10, 65879, Note_on_c, 4, 45, 0
10, 66120, Note_on_c, 4, 57, 32
10, 66120, Note_on_c, 4, 45, 32
10, 66239, Note_on_c, 4, 57, 0
10, 66239, Note_on_c, 4, 45, 0
10, 66480, Note_on_c, 4, 45, 32
10, 66480, Note_on_c, 4, 57, 32
10, 66599, Note_on_c, 4, 45, 0
10, 66599, Note_on_c, 4, 57, 0
10, 66840, Note_on_c, 4, 57, 32
10, 66840, Note_on_c, 4, 45, 32
10, 66944, Note_on_c, 4, 57, 0
10, 66944, Note_on_c, 4, 45, 0
10, 66958, Control_c, 4, 11, 27
10, 66960, Note_on_c, 4, 57, 92
10, 66960, Note_on_c, 4, 45, 92
10, 67003, Control_c, 4, 11, 28
10, 67046, Control_c, 4, 11, 29
10, 67090, Control_c, 4, 11, 30
10, 67133, Control_c, 4, 11, 31
10, 67176, Control_c, 4, 11, 32
10, 67219, Control_c, 4, 11, 33
10, 67262, Control_c, 4, 11, 34
10, 67306, Control_c, 4, 11, 35
10, 67349, Control_c, 4, 11, 36
10, 67392, Control_c, 4, 11, 37
10, 67435, Control_c, 4, 11, 38
10, 67478, Control_c, 4, 11, 39
10, 67522, Control_c, 4, 11, 40
10, 67565, Control_c, 4, 11, 41
10, 67608, Control_c, 4, 11, 42
10, 67651, Control_c, 4, 11, 43
10, 67694, Control_c, 4, 11, 44
10, 67738, Control_c, 4, 11, 45
10, 67781, Control_c, 4, 11, 46
10, 67824, Control_c, 4, 11, 47
10, 67867, Control_c, 4, 11, 48
10, 67910, Control_c, 4, 11, 49
10, 67954, Control_c, 4, 11, 50
10, 67997, Control_c, 4, 11, 51
10, 68040, Control_c, 4, 11, 52
10, 68083, Control_c, 4, 11, 53
10, 68126, Control_c, 4, 11, 54
10, 68170, Control_c, 4, 11, 55
10, 68213, Control_c, 4, 11, 56
10, 68256, Control_c, 4, 11, 57
10, 68299, Control_c, 4, 11, 58
10, 68342, Control_c, 4, 11, 59
10, 68386, Control_c, 4, 11, 60
10, 68429, Control_c, 4, 11, 61
10, 68472, Control_c, 4, 11, 62
10, 68515, Control_c, 4, 11, 63
10, 68558, Control_c, 4, 11, 64
10, 68602, Control_c, 4, 11, 65
10, 68645, Control_c, 4, 11, 66
10, 68688, Control_c, 4, 11, 67
10, 68731, Control_c, 4, 11, 68
10, 68774, Control_c, 4, 11, 69
10, 68818, Control_c, 4, 11, 70
10, 68861, Control_c, 4, 11, 71
10, 68904, Control_c, 4, 11, 72
10, 68947, Control_c, 4, 11, 73
10, 68990, Control_c, 4, 11, 74
10, 69034, Control_c, 4, 11, 75
10, 69077, Control_c, 4, 11, 76
10, 69120, Control_c, 4, 11, 77
10, 69163, Control_c, 4, 11, 78
10, 69206, Control_c, 4, 11, 79
10, 69250, Control_c, 4, 11, 80
10, 69293, Control_c, 4, 11, 81
10, 69336, Control_c, 4, 11, 82
10, 69379, Control_c, 4, 11, 83
10, 69422, Control_c, 4, 11, 84
10, 69466, Control_c, 4, 11, 85
10, 69509, Control_c, 4, 11, 86
10, 69552, Control_c, 4, 11, 87
10, 69595, Control_c, 4, 11, 88
10, 69638, Control_c, 4, 11, 89
10, 69682, Control_c, 4, 11, 90
10, 69725, Control_c, 4, 11, 91
10, 69768, Control_c, 4, 11, 92
10, 69811, Control_c, 4, 11, 93
10, 69854, Control_c, 4, 11, 94
10, 69898, Control_c, 4, 11, 95
10, 69941, Control_c, 4, 11, 96
10, 69984, Control_c, 4, 11, 97
10, 70027, Control_c, 4, 11, 98
10, 70070, Control_c, 4, 11, 99
10, 70114, Control_c, 4, 11, 100
10, 70157, Control_c, 4, 11, 101
10, 70200, Control_c, 4, 11, 102
10, 70243, Control_c, 4, 11, 103
10, 70286, Control_c, 4, 11, 104
10, 70330, Control_c, 4, 11, 105
10, 70373, Control_c, 4, 11, 106
10, 70416, Control_c, 4, 11, 107
10, 70459, Control_c, 4, 11, 108
10, 70502, Control_c, 4, 11, 109
10, 70546, Control_c, 4, 11, 110
10, 70589, Control_c, 4, 11, 111
10, 70632, Control_c, 4, 11, 112
10, 70675, Control_c, 4, 11, 113
10, 70718, Control_c, 4, 11, 114
10, 70762, Control_c, 4, 11, 115
10, 70805, Control_c, 4, 11, 116
10, 70848, Control_c, 4, 11, 117
10, 70891, Control_c, 4, 11, 118
10, 70934, Control_c, 4, 11, 119
10, 70978, Control_c, 4, 11, 120
10, 71021, Control_c, 4, 11, 121
10, 71064, Control_c, 4, 11, 122
10, 71107, Control_c, 4, 11, 123
10, 71150, Control_c, 4, 11, 124
10, 71194, Control_c, 4, 11, 125
10, 71237, Control_c, 4, 11, 127
10, 71264, Note_on_c, 4, 57, 0
10, 71264, Note_on_c, 4, 45, 0
10, 71280, Note_on_c, 4, 57, 92
10, 71280, Note_on_c, 4, 69, 92
10, 71384, Note_on_c, 4, 57, 0
10, 71384, Note_on_c, 4, 69, 0
10, 71400, Note_on_c, 4, 69, 92
10, 71400, Note_on_c, 4, 57, 92
10, 71504, Note_on_c, 4, 69, 0
10, 71504, Note_on_c, 4, 57, 0
10, 71520, Note_on_c, 4, 57, 92
10, 71520, Note_on_c, 4, 69, 92
10, 71624, Note_on_c, 4, 57, 0
10, 71624, Note_on_c, 4, 69, 0
10, 71640, Note_on_c, 4, 57, 92
10, 71640, Note_on_c, 4, 69, 92
10, 71744, Note_on_c, 4, 57, 0
10, 71744, Note_on_c, 4, 69, 0
10, 71760, Note_on_c, 4, 57, 92
10, 71760, Note_on_c, 4, 69, 92
10, 71864, Note_on_c, 4, 57, 0
10, 71864, Note_on_c, 4, 69, 0
10, 71880, Note_on_c, 4, 57, 92
10, 71880, Note_on_c, 4, 69, 92
10, 71984, Note_on_c, 4, 57, 0
10, 71984, Note_on_c, 4, 69, 0
10, 72000, Note_on_c, 4, 57, 92
10, 72000, Note_on_c, 4, 69, 92
10, 72104, Note_on_c, 4, 57, 0
10, 72104, Note_on_c, 4, 69, 0
10, 72120, Note_on_c, 4, 69, 92
10, 72120, Note_on_c, 4, 57, 92
10, 72224, Note_on_c, 4, 69, 0
10, 72224, Note_on_c, 4, 57, 0
10, 72240, Note_on_c, 4, 57, 92
10, 72240, Note_on_c, 4, 69, 92
10, 72344, Note_on_c, 4, 57, 0
10, 72344, Note_on_c, 4, 69, 0
10, 72360, Note_on_c, 4, 57, 92
10, 72360, Note_on_c, 4, 69, 92
10, 72464, Note_on_c, 4, 57, 0
10, 72464, Note_on_c, 4, 69, 0
10, 72480, Note_on_c, 4, 69, 92
10, 72480, Note_on_c, 4, 57, 92
10, 72584, Note_on_c, 4, 69, 0
10, 72584, Note_on_c, 4, 57, 0
10, 72600, Note_on_c, 4, 57, 92
10, 72600, Note_on_c, 4, 69, 92
10, 72704, Note_on_c, 4, 57, 0
10, 72704, Note_on_c, 4, 69, 0
10, 72720, Note_on_c, 4, 67, 80
10, 72720, Note_on_c, 4, 50, 80
10, 72824, Note_on_c, 4, 67, 0
10, 72824, Note_on_c, 4, 50, 0
10, 72840, Note_on_c, 4, 67, 80
10, 72840, Note_on_c, 4, 50, 80
10, 72944, Note_on_c, 4, 67, 0
10, 72944, Note_on_c, 4, 50, 0
10, 72960, Note_on_c, 4, 50, 80
10, 72960, Note_on_c, 4, 67, 80
10, 73064, Note_on_c, 4, 50, 0
10, 73064, Note_on_c, 4, 67, 0
10, 73080, Note_on_c, 4, 50, 80
10, 73080, Note_on_c, 4, 62, 80
10, 73184, Note_on_c, 4, 50, 0
10, 73184, Note_on_c, 4, 62, 0
10, 73200, Note_on_c, 4, 57, 80
10, 73200, Note_on_c, 4, 69, 80
10, 73304, Note_on_c, 4, 57, 0
10, 73304, Note_on_c, 4, 69, 0
10, 73320, Note_on_c, 4, 57, 80
10, 73320, Note_on_c, 4, 69, 80
10, 73424, Note_on_c, 4, 57, 0
10, 73424, Note_on_c, 4, 69, 0
10, 73440, Note_on_c, 4, 69, 80
10, 73440, Note_on_c, 4, 57, 80
10, 73544, Note_on_c, 4, 69, 0
10, 73544, Note_on_c, 4, 57, 0
10, 73560, Note_on_c, 4, 69, 80
10, 73560, Note_on_c, 4, 57, 80
10, 73664, Note_on_c, 4, 69, 0
10, 73664, Note_on_c, 4, 57, 0
10, 73680, Note_on_c, 4, 69, 80
10, 73680, Note_on_c, 4, 57, 80
10, 73784, Note_on_c, 4, 69, 0
10, 73784, Note_on_c, 4, 57, 0
10, 73800, Note_on_c, 4, 69, 80
10, 73800, Note_on_c, 4, 57, 80
10, 73904, Note_on_c, 4, 69, 0
10, 73904, Note_on_c, 4, 57, 0
10, 73920, Note_on_c, 4, 69, 80
10, 73920, Note_on_c, 4, 62, 80
10, 74024, Note_on_c, 4, 69, 0
10, 74024, Note_on_c, 4, 62, 0
10, 74040, Note_on_c, 4, 62, 80
10, 74040, Note_on_c, 4, 69, 80
10, 74144, Note_on_c, 4, 62, 0
10, 74144, Note_on_c, 4, 69, 0
10, 74160, Note_on_c, 4, 62, 80
10, 74160, Note_on_c, 4, 67, 80
10, 74264, Note_on_c, 4, 62, 0
10, 74264, Note_on_c, 4, 67, 0
10, 74280, Note_on_c, 4, 67, 80
10, 74280, Note_on_c, 4, 62, 80
10, 74384, Note_on_c, 4, 67, 0
10, 74384, Note_on_c, 4, 62, 0
10, 74400, Note_on_c, 4, 67, 80
10, 74400, Note_on_c, 4, 62, 80
10, 74504, Note_on_c, 4, 67, 0
10, 74504, Note_on_c, 4, 62, 0
10, 74520, Note_on_c, 4, 57, 80
10, 74520, Note_on_c, 4, 69, 80
10, 74624, Note_on_c, 4, 57, 0
10, 74624, Note_on_c, 4, 69, 0
10, 74640, Note_on_c, 4, 57, 80
10, 74640, Note_on_c, 4, 69, 80
10, 74744, Note_on_c, 4, 57, 0
10, 74744, Note_on_c, 4, 69, 0
10, 74760, Note_on_c, 4, 57, 80
10, 74760, Note_on_c, 4, 69, 80
10, 74864, Note_on_c, 4, 57, 0
10, 74864, Note_on_c, 4, 69, 0
10, 74880, Note_on_c, 4, 57, 80
10, 74880, Note_on_c, 4, 69, 80
10, 74984, Note_on_c, 4, 57, 0
10, 74984, Note_on_c, 4, 69, 0
10, 75000, Note_on_c, 4, 57, 80
10, 75000, Note_on_c, 4, 69, 80
10, 75104, Note_on_c, 4, 57, 0
10, 75104, Note_on_c, 4, 69, 0
10, 75120, Note_on_c, 4, 69, 80
10, 75120, Note_on_c, 4, 57, 80
10, 75224, Note_on_c, 4, 69, 0
10, 75224, Note_on_c, 4, 57, 0
10, 75240, Note_on_c, 4, 57, 80
10, 75240, Note_on_c, 4, 69, 80
10, 75344, Note_on_c, 4, 57, 0
10, 75344, Note_on_c, 4, 69, 0
10, 75360, Note_on_c, 4, 69, 80
10, 75360, Note_on_c, 4, 65, 80
10, 75464, Note_on_c, 4, 69, 0
10, 75464, Note_on_c, 4, 65, 0
10, 75480, Note_on_c, 4, 65, 80
10, 75480, Note_on_c, 4, 67, 80
10, 75584, Note_on_c, 4, 65, 0
10, 75584, Note_on_c, 4, 67, 0
10, 75600, Note_on_c, 4, 65, 80
10, 75600, Note_on_c, 4, 67, 80
10, 75704, Note_on_c, 4, 65, 0
10, 75704, Note_on_c, 4, 67, 0
10, 75720, Note_on_c, 4, 67, 80
10, 75720, Note_on_c, 4, 65, 80
10, 75824, Note_on_c, 4, 67, 0
10, 75824, Note_on_c, 4, 65, 0
10, 75840, Note_on_c, 4, 67, 80
10, 75840, Note_on_c, 4, 65, 80
10, 75944, Note_on_c, 4, 67, 0
10, 75944, Note_on_c, 4, 65, 0
10, 75960, Note_on_c, 4, 67, 80
10, 75960, Note_on_c, 4, 64, 80
10, 76064, Note_on_c, 4, 67, 0
10, 76064, Note_on_c, 4, 64, 0
10, 76080, Note_on_c, 4, 67, 80
10, 76184, Note_on_c, 4, 67, 0
10, 76200, Note_on_c, 4, 67, 80
10, 76304, Note_on_c, 4, 67, 0
10, 76320, Note_on_c, 4, 67, 80
10, 76424, Note_on_c, 4, 67, 0
10, 76440, Note_on_c, 4, 67, 80
10, 76544, Note_on_c, 4, 67, 0
10, 76560, Note_on_c, 4, 67, 80
10, 76664, Note_on_c, 4, 67, 0
10, 76680, Note_on_c, 4, 67, 80
10, 76784, Note_on_c, 4, 67, 0
10, 76800, Note_on_c, 4, 67, 80
10, 76904, Note_on_c, 4, 67, 0
10, 76920, Note_on_c, 4, 67, 80
10, 77024, Note_on_c, 4, 67, 0
10, 77040, Note_on_c, 4, 67, 80
10, 77144, Note_on_c, 4, 67, 0
10, 77160, Note_on_c, 4, 67, 80
10, 77264, Note_on_c, 4, 67, 0
10, 77280, Note_on_c, 4, 67, 80
10, 77384, Note_on_c, 4, 67, 0
10, 77400, Note_on_c, 4, 67, 80
10, 77504, Note_on_c, 4, 67, 0
10, 77520, Note_on_c, 4, 67, 80
10, 77624, Note_on_c, 4, 67, 0
10, 77640, Note_on_c, 4, 67, 80
10, 77744, Note_on_c, 4, 67, 0
10, 77760, Note_on_c, 4, 67, 80
10, 77864, Note_on_c, 4, 67, 0
10, 77880, Note_on_c, 4, 67, 80
10, 77984, Note_on_c, 4, 67, 0
10, 78000, Note_on_c, 4, 67, 80
10, 78104, Note_on_c, 4, 67, 0
10, 78120, Note_on_c, 4, 67, 80
10, 78224, Note_on_c, 4, 67, 0
10, 78240, Note_on_c, 4, 67, 80
10, 78344, Note_on_c, 4, 67, 0
10, 78360, Note_on_c, 4, 67, 80
10, 78464, Note_on_c, 4, 67, 0
10, 78480, Note_on_c, 4, 67, 80
10, 78584, Note_on_c, 4, 67, 0
10, 84240, Note_on_c, 4, 60, 92
10, 84584, Note_on_c, 4, 60, 0
10, 84600, Note_on_c, 4, 60, 92
10, 84719, Note_on_c, 4, 60, 0
10, 84840, Note_on_c, 4, 60, 92
10, 84944, Note_on_c, 4, 60, 0
10, 84960, Note_on_c, 4, 60, 92
10, 85079, Note_on_c, 4, 60, 0
10, 85200, Note_on_c, 4, 60, 92
10, 85304, Note_on_c, 4, 60, 0
10, 85320, Note_on_c, 4, 60, 92
10, 85439, Note_on_c, 4, 60, 0
10, 85560, Note_on_c, 4, 60, 92
10, 85664, Note_on_c, 4, 60, 0
10, 85680, Note_on_c, 4, 60, 92
10, 86024, Note_on_c, 4, 60, 0
10, 86040, Note_on_c, 4, 60, 92
10, 86159, Note_on_c, 4, 60, 0
10, 86280, Note_on_c, 4, 60, 92
10, 86384, Note_on_c, 4, 60, 0
10, 86400, Note_on_c, 4, 60, 92
10, 86519, Note_on_c, 4, 60, 0
10, 86640, Note_on_c, 4, 60, 92
10, 86744, Note_on_c, 4, 60, 0
10, 86760, Note_on_c, 4, 60, 92
10, 86879, Note_on_c, 4, 60, 0
10, 87000, Note_on_c, 4, 60, 92
10, 87104, Note_on_c, 4, 60, 0
10, 87120, Note_on_c, 4, 60, 92
10, 87224, Note_on_c, 4, 60, 0
10, 87240, Note_on_c, 4, 60, 92
10, 87344, Note_on_c, 4, 60, 0
10, 87360, Note_on_c, 4, 60, 92
10, 87464, Note_on_c, 4, 60, 0
10, 87480, Note_on_c, 4, 60, 92
10, 87584, Note_on_c, 4, 60, 0
10, 87600, Note_on_c, 4, 60, 92
10, 87704, Note_on_c, 4, 60, 0
10, 87720, Note_on_c, 4, 60, 92
10, 87824, Note_on_c, 4, 60, 0
10, 87840, Note_on_c, 4, 60, 92
10, 87944, Note_on_c, 4, 60, 0
10, 87960, Note_on_c, 4, 60, 92
10, 88064, Note_on_c, 4, 60, 0
10, 88080, Note_on_c, 4, 60, 92
10, 88184, Note_on_c, 4, 60, 0
10, 88200, Note_on_c, 4, 60, 92
10, 88304, Note_on_c, 4, 60, 0
10, 88320, Note_on_c, 4, 60, 92
10, 88424, Note_on_c, 4, 60, 0
10, 88440, Note_on_c, 4, 60, 92
10, 88544, Note_on_c, 4, 60, 0
10, 88560, Note_on_c, 4, 60, 92
10, 88664, Note_on_c, 4, 60, 0
10, 88680, Note_on_c, 4, 60, 92
10, 88784, Note_on_c, 4, 60, 0
10, 88800, Note_on_c, 4, 60, 92
10, 88904, Note_on_c, 4, 60, 0
10, 88920, Note_on_c, 4, 60, 92
10, 89024, Note_on_c, 4, 60, 0
10, 89040, Note_on_c, 4, 60, 92
10, 89144, Note_on_c, 4, 60, 0
10, 89160, Note_on_c, 4, 60, 92
10, 89264, Note_on_c, 4, 60, 0
10, 89280, Note_on_c, 4, 60, 92
10, 89384, Note_on_c, 4, 60, 0
10, 89400, Note_on_c, 4, 60, 92
10, 89504, Note_on_c, 4, 60, 0
10, 89520, Note_on_c, 4, 60, 92
10, 89624, Note_on_c, 4, 60, 0
10, 89640, Note_on_c, 4, 60, 92
10, 89744, Note_on_c, 4, 60, 0
10, 89760, Note_on_c, 4, 60, 92
10, 89864, Note_on_c, 4, 60, 0
10, 89880, Note_on_c, 4, 60, 92
10, 89984, Note_on_c, 4, 60, 0
10, 90000, Note_on_c, 4, 64, 92
10, 90164, Note_on_c, 4, 64, 0
10, 90180, Note_on_c, 4, 64, 92
10, 90224, Note_on_c, 4, 64, 0
10, 90240, Note_on_c, 4, 64, 92
10, 90344, Note_on_c, 4, 64, 0
10, 90360, Note_on_c, 4, 64, 92
10, 90464, Note_on_c, 4, 64, 0
10, 91440, Note_on_c, 4, 50, 92
10, 91440, Note_on_c, 4, 62, 92
10, 91604, Note_on_c, 4, 50, 0
10, 91604, Note_on_c, 4, 62, 0
10, 91620, Note_on_c, 4, 50, 92
10, 91664, Note_on_c, 4, 50, 0
10, 91680, Note_on_c, 4, 50, 92
10, 91784, Note_on_c, 4, 50, 0
10, 91800, Note_on_c, 4, 50, 92
10, 91800, Note_on_c, 4, 62, 92
10, 91919, Note_on_c, 4, 50, 0
10, 91919, Note_on_c, 4, 62, 0
10, 92160, Note_on_c, 4, 67, 92
10, 92324, Note_on_c, 4, 67, 0
10, 92340, Note_on_c, 4, 67, 92
10, 92384, Note_on_c, 4, 67, 0
10, 92400, Note_on_c, 4, 67, 92
10, 92504, Note_on_c, 4, 67, 0
10, 92520, Note_on_c, 4, 67, 92
10, 92639, Note_on_c, 4, 67, 0
10, 94680, Control_c, 4, 11, 67
10, 95040, Note_on_c, 4, 60, 80
10, 95040, Control_c, 4, 11, 67
10, 95070, Control_c, 4, 11, 68
10, 95100, Control_c, 4, 11, 70
10, 95130, Control_c, 4, 11, 71
10, 95160, Control_c, 4, 11, 72
10, 95190, Control_c, 4, 11, 73
10, 95220, Control_c, 4, 11, 75
10, 95250, Control_c, 4, 11, 76
10, 95280, Control_c, 4, 11, 77
10, 95310, Control_c, 4, 11, 78
10, 95340, Control_c, 4, 11, 80
10, 95370, Control_c, 4, 11, 81
10, 95400, Control_c, 4, 11, 82
10, 95430, Control_c, 4, 11, 83
10, 95460, Control_c, 4, 11, 85
10, 95490, Control_c, 4, 11, 86
10, 95520, Control_c, 4, 11, 87
10, 95550, Control_c, 4, 11, 88
10, 95580, Control_c, 4, 11, 90
10, 95610, Control_c, 4, 11, 91
10, 95640, Control_c, 4, 11, 92
10, 95670, Control_c, 4, 11, 93
10, 95700, Control_c, 4, 11, 95
10, 95730, Control_c, 4, 11, 96
10, 95760, Control_c, 4, 11, 97
10, 95790, Control_c, 4, 11, 98
10, 95820, Control_c, 4, 11, 100
10, 95850, Control_c, 4, 11, 101
10, 95880, Control_c, 4, 11, 102
10, 95910, Control_c, 4, 11, 103
10, 95940, Control_c, 4, 11, 105
10, 95970, Control_c, 4, 11, 106
10, 96000, Control_c, 4, 11, 107
10, 96030, Control_c, 4, 11, 108
10, 96060, Control_c, 4, 11, 110
10, 96090, Control_c, 4, 11, 111
10, 96120, Control_c, 4, 11, 112
10, 96150, Control_c, 4, 11, 113
10, 96180, Control_c, 4, 11, 115
10, 96210, Control_c, 4, 11, 116
10, 96240, Control_c, 4, 11, 117
10, 96270, Control_c, 4, 11, 118
10, 96300, Control_c, 4, 11, 120
10, 96330, Control_c, 4, 11, 121
10, 96360, Control_c, 4, 11, 122
10, 96390, Control_c, 4, 11, 123
10, 96420, Control_c, 4, 11, 125
10, 96450, Control_c, 4, 11, 127
10, 96464, Note_on_c, 4, 60, 0
10, 96480, Note_on_c, 4, 60, 80
10, 96584, Note_on_c, 4, 60, 0
10, 96600, Note_on_c, 4, 60, 80
10, 96704, Note_on_c, 4, 60, 0
10, 96720, Note_on_c, 4, 60, 80
10, 96824, Note_on_c, 4, 60, 0
10, 96840, Note_on_c, 4, 62, 80
10, 96840, Note_on_c, 4, 50, 80
10, 96944, Note_on_c, 4, 62, 0
10, 96944, Note_on_c, 4, 50, 0
10, 96960, Note_on_c, 4, 50, 80
10, 96960, Note_on_c, 4, 62, 80
10, 97064, Note_on_c, 4, 50, 0
10, 97064, Note_on_c, 4, 62, 0
10, 97080, Note_on_c, 4, 62, 80
10, 97080, Note_on_c, 4, 50, 80
10, 97184, Note_on_c, 4, 62, 0
10, 97184, Note_on_c, 4, 50, 0
10, 97200, Note_on_c, 4, 64, 80
10, 97304, Note_on_c, 4, 64, 0
10, 97320, Note_on_c, 4, 67, 80
10, 97424, Note_on_c, 4, 67, 0
10, 97440, Note_on_c, 4, 69, 80
10, 97544, Note_on_c, 4, 69, 0
10, 97560, Note_on_c, 4, 69, 80
10, 97664, Note_on_c, 4, 69, 0
10, 97680, Note_on_c, 4, 67, 80
10, 97784, Note_on_c, 4, 67, 0
10, 97800, Note_on_c, 4, 67, 80
10, 97904, Note_on_c, 4, 67, 0
10, 97920, Note_on_c, 4, 67, 80
10, 98039, Note_on_c, 4, 67, 0
10, 98640, Note_on_c, 4, 64, 80
10, 98744, Note_on_c, 4, 64, 0
10, 98760, Note_on_c, 4, 67, 80
10, 98864, Note_on_c, 4, 67, 0
10, 98880, Note_on_c, 4, 67, 80
10, 98984, Note_on_c, 4, 67, 0
10, 99000, Note_on_c, 4, 67, 80
10, 99104, Note_on_c, 4, 67, 0
10, 99120, Note_on_c, 4, 67, 80
10, 99224, Note_on_c, 4, 67, 0
10, 99240, Note_on_c, 4, 67, 80
10, 99344, Note_on_c, 4, 67, 0
10, 99360, Note_on_c, 4, 67, 80
10, 99464, Note_on_c, 4, 67, 0
10, 99480, Note_on_c, 4, 67, 80
10, 99584, Note_on_c, 4, 67, 0
10, 99600, Note_on_c, 4, 67, 80
10, 99704, Note_on_c, 4, 67, 0
10, 99720, Note_on_c, 4, 67, 80
10, 99824, Note_on_c, 4, 67, 0
10, 99840, Note_on_c, 4, 67, 80
10, 99944, Note_on_c, 4, 67, 0
10, 99960, Note_on_c, 4, 67, 80
10, 100064, Note_on_c, 4, 67, 0
10, 100080, Note_on_c, 4, 67, 80
10, 100184, Note_on_c, 4, 67, 0
10, 100200, Note_on_c, 4, 67, 80
10, 100304, Note_on_c, 4, 67, 0
10, 100320, Note_on_c, 4, 67, 80
10, 100424, Note_on_c, 4, 67, 0
10, 100440, Note_on_c, 4, 67, 80
10, 100544, Note_on_c, 4, 67, 0
10, 100560, Note_on_c, 4, 67, 80
10, 100664, Note_on_c, 4, 67, 0
10, 100680, Note_on_c, 4, 67, 80
10, 100784, Note_on_c, 4, 67, 0
10, 102240, Note_on_c, 4, 60, 32
10, 102404, Note_on_c, 4, 60, 0
10, 102420, Note_on_c, 4, 60, 32
10, 102464, Note_on_c, 4, 60, 0
10, 102480, Note_on_c, 4, 60, 32
10, 102584, Note_on_c, 4, 60, 0
10, 102600, Note_on_c, 4, 60, 32
10, 102600, Note_on_c, 4, 57, 32
10, 102719, Note_on_c, 4, 60, 0
10, 102719, Note_on_c, 4, 57, 0
10, 102960, Note_on_c, 4, 60, 32
10, 102960, Note_on_c, 4, 57, 32
10, 103124, Note_on_c, 4, 60, 0
10, 103124, Note_on_c, 4, 57, 0
10, 103140, Note_on_c, 4, 57, 32
10, 103140, Note_on_c, 4, 60, 32
10, 103184, Note_on_c, 4, 57, 0
10, 103184, Note_on_c, 4, 60, 0
10, 103200, Note_on_c, 4, 60, 32
10, 103200, Note_on_c, 4, 57, 32
10, 103304, Note_on_c, 4, 60, 0
10, 103304, Note_on_c, 4, 57, 0
10, 103320, Note_on_c, 4, 62, 32
10, 103320, Note_on_c, 4, 57, 32
10, 103439, Note_on_c, 4, 62, 0
10, 103439, Note_on_c, 4, 57, 0
10, 105120, Note_on_c, 4, 62, 32
10, 105120, Note_on_c, 4, 50, 32
10, 105284, Note_on_c, 4, 62, 0
10, 105284, Note_on_c, 4, 50, 0
10, 105300, Note_on_c, 4, 50, 32
10, 105300, Note_on_c, 4, 62, 32
10, 105344, Note_on_c, 4, 50, 0
10, 105344, Note_on_c, 4, 62, 0
10, 105360, Note_on_c, 4, 50, 32
10, 105360, Note_on_c, 4, 62, 32
10, 105464, Note_on_c, 4, 50, 0
10, 105464, Note_on_c, 4, 62, 0
10, 105480, Note_on_c, 4, 62, 32
10, 105480, Note_on_c, 4, 50, 32
10, 105599, Note_on_c, 4, 62, 0
10, 105599, Note_on_c, 4, 50, 0
10, 110160, Note_on_c, 4, 53, 56
10, 110160, Note_on_c, 4, 65, 56
10, 110324, Note_on_c, 4, 53, 0
10, 110324, Note_on_c, 4, 65, 0
10, 110340, Note_on_c, 4, 65, 58
10, 110340, Note_on_c, 4, 53, 58
10, 110384, Note_on_c, 4, 65, 0
10, 110384, Note_on_c, 4, 53, 0
10, 110400, Note_on_c, 4, 65, 58
10, 110400, Note_on_c, 4, 53, 58
10, 110504, Note_on_c, 4, 65, 0
10, 110504, Note_on_c, 4, 53, 0
10, 110520, Note_on_c, 4, 53, 60
10, 110520, Note_on_c, 4, 65, 60
10, 110639, Note_on_c, 4, 53, 0
10, 110639, Note_on_c, 4, 65, 0
10, 111600, Note_on_c, 4, 64, 72
10, 111764, Note_on_c, 4, 64, 0
10, 111780, Note_on_c, 4, 64, 74
10, 111824, Note_on_c, 4, 64, 0
10, 111840, Note_on_c, 4, 64, 74
10, 111944, Note_on_c, 4, 64, 0
10, 111960, Note_on_c, 4, 64, 76
10, 112079, Note_on_c, 4, 64, 0
10, 112320, Note_on_c, 4, 57, 80
10, 112320, Note_on_c, 4, 69, 80
10, 112484, Note_on_c, 4, 57, 0
10, 112484, Note_on_c, 4, 69, 0
10, 112500, Note_on_c, 4, 45, 80
10, 112500, Note_on_c, 4, 57, 80
10, 112544, Note_on_c, 4, 45, 0
10, 112544, Note_on_c, 4, 57, 0
10, 112560, Note_on_c, 4, 45, 80
10, 112560, Note_on_c, 4, 57, 80
10, 112664, Note_on_c, 4, 45, 0
10, 112664, Note_on_c, 4, 57, 0
10, 128160, Note_on_c, 4, 62, 39
10, 128324, Note_on_c, 4, 62, 0
10, 128340, Note_on_c, 4, 50, 38
10, 128384, Note_on_c, 4, 50, 0
10, 128400, Note_on_c, 4, 50, 38
10, 128519, Note_on_c, 4, 50, 0
10, 129240, Note_on_c, 4, 57, 35
10, 129240, Note_on_c, 4, 69, 35
10, 129404, Note_on_c, 4, 57, 0
10, 129404, Note_on_c, 4, 69, 0
10, 129420, Note_on_c, 4, 57, 34
10, 129420, Note_on_c, 4, 45, 34
10, 129464, Note_on_c, 4, 57, 0
10, 129464, Note_on_c, 4, 45, 0
10, 129480, Note_on_c, 4, 57, 34
10, 129480, Note_on_c, 4, 45, 34
10, 129599, Note_on_c, 4, 57, 0
10, 129599, Note_on_c, 4, 45, 0
10, 130320, Note_on_c, 4, 57, 32
10, 130320, Note_on_c, 4, 69, 32
10, 130484, Note_on_c, 4, 57, 0
10, 130484, Note_on_c, 4, 69, 0
10, 130500, Note_on_c, 4, 57, 32
10, 130500, Note_on_c, 4, 45, 32
10, 130544, Note_on_c, 4, 57, 0
10, 130544, Note_on_c, 4, 45, 0
10, 130560, Note_on_c, 4, 45, 32
10, 130560, Note_on_c, 4, 57, 32
10, 130679, Note_on_c, 4, 45, 0
10, 130679, Note_on_c, 4, 57, 0
10, 131400, Note_on_c, 4, 69, 32
10, 131400, Note_on_c, 4, 57, 32
10, 131564, Note_on_c, 4, 69, 0
10, 131564, Note_on_c, 4, 57, 0
10, 131580, Note_on_c, 4, 57, 32
10, 131580, Note_on_c, 4, 45, 32
10, 131624, Note_on_c, 4, 57, 0
10, 131624, Note_on_c, 4, 45, 0
10, 131640, Note_on_c, 4, 57, 32
10, 131640, Note_on_c, 4, 45, 32
10, 131759, Note_on_c, 4, 57, 0
10, 131759, Note_on_c, 4, 45, 0
10, 132120, Note_on_c, 4, 69, 32
10, 132120, Note_on_c, 4, 57, 32
10, 132224, Note_on_c, 4, 69, 0
10, 132224, Note_on_c, 4, 57, 0
10, 132240, Note_on_c, 4, 57, 32
10, 132240, Note_on_c, 4, 69, 32
10, 132344, Note_on_c, 4, 57, 0
10, 132344, Note_on_c, 4, 69, 0
10, 132360, Note_on_c, 4, 69, 32
10, 132360, Note_on_c, 4, 57, 32
10, 132464, Note_on_c, 4, 69, 0
10, 132464, Note_on_c, 4, 57, 0
10, 132480, Note_on_c, 4, 69, 32
10, 132480, Note_on_c, 4, 57, 32
10, 132584, Note_on_c, 4, 69, 0
10, 132584, Note_on_c, 4, 57, 0
10, 132600, Note_on_c, 4, 69, 32
10, 132600, Note_on_c, 4, 57, 32
10, 132704, Note_on_c, 4, 69, 0
10, 132704, Note_on_c, 4, 57, 0
10, 132720, Note_on_c, 4, 57, 32
10, 132720, Note_on_c, 4, 69, 32
10, 132824, Note_on_c, 4, 57, 0
10, 132824, Note_on_c, 4, 69, 0
10, 132840, Note_on_c, 4, 57, 32
10, 132840, Note_on_c, 4, 69, 32
10, 132944, Note_on_c, 4, 57, 0
10, 132944, Note_on_c, 4, 69, 0
10, 132960, Note_on_c, 4, 69, 32
10, 132960, Note_on_c, 4, 57, 32
10, 133064, Note_on_c, 4, 69, 0
10, 133064, Note_on_c, 4, 57, 0
10, 133080, Note_on_c, 4, 69, 32
10, 133080, Note_on_c, 4, 57, 32
10, 133184, Note_on_c, 4, 69, 0
10, 133184, Note_on_c, 4, 57, 0
10, 133200, Note_on_c, 4, 69, 32
10, 133200, Note_on_c, 4, 57, 32
10, 133364, Note_on_c, 4, 69, 0
10, 133364, Note_on_c, 4, 57, 0
10, 133380, Note_on_c, 4, 45, 32
10, 133380, Note_on_c, 4, 57, 32
10, 133424, Note_on_c, 4, 45, 0
10, 133424, Note_on_c, 4, 57, 0
10, 133440, Note_on_c, 4, 57, 32
10, 133440, Note_on_c, 4, 45, 32
10, 133544, Note_on_c, 4, 57, 0
10, 133544, Note_on_c, 4, 45, 0
10, 133560, Note_on_c, 4, 57, 32
10, 133560, Note_on_c, 4, 45, 32
10, 133664, Note_on_c, 4, 57, 0
10, 133664, Note_on_c, 4, 45, 0
10, 133680, Note_on_c, 4, 45, 32
10, 133680, Note_on_c, 4, 57, 32
10, 133784, Note_on_c, 4, 45, 0
10, 133784, Note_on_c, 4, 57, 0
10, 133800, Note_on_c, 4, 45, 32
10, 133800, Note_on_c, 4, 57, 32
10, 133904, Note_on_c, 4, 45, 0
10, 133904, Note_on_c, 4, 57, 0
10, 133920, Note_on_c, 4, 57, 32
10, 133920, Note_on_c, 4, 45, 32
10, 134024, Note_on_c, 4, 57, 0
10, 134024, Note_on_c, 4, 45, 0
10, 134040, Note_on_c, 4, 57, 32
10, 134040, Note_on_c, 4, 45, 32
10, 134144, Note_on_c, 4, 57, 0
10, 134144, Note_on_c, 4, 45, 0
10, 134160, Note_on_c, 4, 57, 32
10, 134160, Note_on_c, 4, 45, 32
10, 134264, Note_on_c, 4, 57, 0
10, 134264, Note_on_c, 4, 45, 0
10, 134280, Note_on_c, 4, 45, 32
10, 134280, Note_on_c, 4, 57, 32
10, 134444, Note_on_c, 4, 45, 0
10, 134444, Note_on_c, 4, 57, 0
10, 134460, Note_on_c, 4, 69, 32
10, 134460, Note_on_c, 4, 57, 32
10, 134504, Note_on_c, 4, 69, 0
10, 134504, Note_on_c, 4, 57, 0
10, 134520, Note_on_c, 4, 69, 32
10, 134520, Note_on_c, 4, 57, 32
10, 134624, Note_on_c, 4, 69, 0
10, 134624, Note_on_c, 4, 57, 0
10, 134640, Note_on_c, 4, 69, 32
10, 134640, Note_on_c, 4, 57, 32
10, 134744, Note_on_c, 4, 69, 0
10, 134744, Note_on_c, 4, 57, 0
10, 134760, Note_on_c, 4, 69, 32
10, 134760, Note_on_c, 4, 57, 32
10, 134864, Note_on_c, 4, 69, 0
10, 134864, Note_on_c, 4, 57, 0
10, 134880, Note_on_c, 4, 69, 32
10, 134880, Note_on_c, 4, 57, 32
10, 134984, Note_on_c, 4, 69, 0
10, 134984, Note_on_c, 4, 57, 0
10, 135000, Note_on_c, 4, 69, 32
10, 135000, Note_on_c, 4, 57, 32
10, 135104, Note_on_c, 4, 69, 0
10, 135104, Note_on_c, 4, 57, 0
10, 135120, Note_on_c, 4, 69, 32
10, 135120, Note_on_c, 4, 57, 32
10, 135224, Note_on_c, 4, 69, 0
10, 135224, Note_on_c, 4, 57, 0
10, 135240, Note_on_c, 4, 69, 32
10, 135240, Note_on_c, 4, 57, 32
10, 135344, Note_on_c, 4, 69, 0
10, 135344, Note_on_c, 4, 57, 0
10, 135360, Note_on_c, 4, 57, 32
10, 135360, Note_on_c, 4, 69, 32
10, 135464, Note_on_c, 4, 57, 0
10, 135464, Note_on_c, 4, 69, 0
10, 135480, Note_on_c, 4, 69, 32
10, 135480, Note_on_c, 4, 57, 32
10, 135584, Note_on_c, 4, 69, 0
10, 135584, Note_on_c, 4, 57, 0
10, 135600, Note_on_c, 4, 69, 32
10, 135600, Note_on_c, 4, 57, 32
10, 135704, Note_on_c, 4, 69, 0
10, 135704, Note_on_c, 4, 57, 0
10, 135720, Note_on_c, 4, 57, 32
10, 135720, Note_on_c, 4, 69, 32
10, 135824, Note_on_c, 4, 57, 0
10, 135824, Note_on_c, 4, 69, 0
10, 135840, Note_on_c, 4, 69, 32
10, 135840, Note_on_c, 4, 57, 32
10, 135944, Note_on_c, 4, 69, 0
10, 135944, Note_on_c, 4, 57, 0
10, 135960, Note_on_c, 4, 69, 32
10, 135960, Note_on_c, 4, 57, 32
10, 136064, Note_on_c, 4, 69, 0
10, 136064, Note_on_c, 4, 57, 0
10, 136080, Note_on_c, 4, 57, 32
10, 136080, Note_on_c, 4, 69, 32
10, 136184, Note_on_c, 4, 57, 0
10, 136184, Note_on_c, 4, 69, 0
10, 136200, Note_on_c, 4, 57, 32
10, 136200, Note_on_c, 4, 69, 32
10, 136304, Note_on_c, 4, 57, 0
10, 136304, Note_on_c, 4, 69, 0
10, 136320, Note_on_c, 4, 57, 32
10, 136320, Note_on_c, 4, 69, 32
10, 136424, Note_on_c, 4, 57, 0
10, 136424, Note_on_c, 4, 69, 0
10, 136440, Note_on_c, 4, 69, 32
10, 136440, Note_on_c, 4, 57, 32
10, 136604, Note_on_c, 4, 69, 0
10, 136604, Note_on_c, 4, 57, 0
10, 136620, Note_on_c, 4, 45, 32
10, 136620, Note_on_c, 4, 57, 32
10, 136664, Note_on_c, 4, 45, 0
10, 136664, Note_on_c, 4, 57, 0
10, 136680, Note_on_c, 4, 57, 32
10, 136680, Note_on_c, 4, 45, 32
10, 136784, Note_on_c, 4, 57, 0
10, 136784, Note_on_c, 4, 45, 0
10, 136800, Note_on_c, 4, 62, 32
10, 136800, Note_on_c, 4, 50, 32
10, 136904, Note_on_c, 4, 62, 0
10, 136904, Note_on_c, 4, 50, 0
10, 136920, Note_on_c, 4, 67, 32
10, 137024, Note_on_c, 4, 67, 0
10, 137040, Note_on_c, 4, 67, 32
10, 137144, Note_on_c, 4, 67, 0
10, 137160, Note_on_c, 4, 67, 32
10, 137264, Note_on_c, 4, 67, 0
10, 137280, Note_on_c, 4, 67, 32
10, 137384, Note_on_c, 4, 67, 0
10, 137400, Note_on_c, 4, 67, 32
10, 137504, Note_on_c, 4, 67, 0
10, 137520, Note_on_c, 4, 67, 32
10, 137624, Note_on_c, 4, 67, 0
10, 137640, Note_on_c, 4, 67, 32
10, 137744, Note_on_c, 4, 67, 0
10, 137760, Note_on_c, 4, 67, 32
10, 137864, Note_on_c, 4, 67, 0
10, 137880, Note_on_c, 4, 67, 32
10, 137984, Note_on_c, 4, 67, 0
10, 138000, Note_on_c, 4, 67, 32
10, 138104, Note_on_c, 4, 67, 0
10, 138120, Note_on_c, 4, 67, 32
10, 138239, Note_on_c, 4, 67, 0
10, 141120, Note_on_c, 4, 62, 32
10, 141284, Note_on_c, 4, 62, 0
10, 141300, Note_on_c, 4, 50, 32
10, 141344, Note_on_c, 4, 50, 0
10, 141360, Note_on_c, 4, 50, 32
10, 141464, Note_on_c, 4, 50, 0
10, 144000, Note_on_c, 4, 62, 44
10, 144164, Note_on_c, 4, 62, 0
10, 144180, Note_on_c, 4, 50, 47
10, 144224, Note_on_c, 4, 50, 0
10, 144240, Note_on_c, 4, 50, 48
10, 144344, Note_on_c, 4, 50, 0
10, 145080, Note_on_c, 4, 57, 62
10, 145244, Note_on_c, 4, 57, 0
10, 145260, Note_on_c, 4, 45, 65
10, 145260, Note_on_c, 4, 57, 65
10, 145304, Note_on_c, 4, 45, 0
10, 145304, Note_on_c, 4, 57, 0
10, 145320, Note_on_c, 4, 57, 66
10, 145320, Note_on_c, 4, 45, 66
10, 145424, Note_on_c, 4, 57, 0
10, 145424, Note_on_c, 4, 45, 0
10, 145440, Note_on_c, 4, 62, 68
10, 145604, Note_on_c, 4, 62, 0
10, 145620, Note_on_c, 4, 50, 71
10, 145664, Note_on_c, 4, 50, 0
10, 145680, Note_on_c, 4, 50, 72
10, 145784, Note_on_c, 4, 50, 0
10, 146160, Note_on_c, 4, 69, 80
10, 146324, Note_on_c, 4, 69, 0
10, 146340, Note_on_c, 4, 57, 80
10, 146384, Note_on_c, 4, 57, 0
10, 146400, Note_on_c, 4, 57, 80
10, 146504, Note_on_c, 4, 57, 0
10, 146520, Note_on_c, 4, 69, 80
10, 146684, Note_on_c, 4, 69, 0
10, 146700, Note_on_c, 4, 57, 80
10, 146744, Note_on_c, 4, 57, 0
10, 146760, Note_on_c, 4, 57, 80
10, 146864, Note_on_c, 4, 57, 0
10, 146880, Note_on_c, 4, 69, 86
10, 147044, Note_on_c, 4, 69, 0
10, 147060, Note_on_c, 4, 57, 86
10, 147104, Note_on_c, 4, 57, 0
10, 147120, Note_on_c, 4, 57, 86
10, 147224, Note_on_c, 4, 57, 0
10, 147240, Note_on_c, 4, 69, 86
10, 147404, Note_on_c, 4, 69, 0
10, 147420, Note_on_c, 4, 57, 86
10, 147464, Note_on_c, 4, 57, 0
10, 147480, Note_on_c, 4, 57, 86
10, 147584, Note_on_c, 4, 57, 0
10, 147600, Note_on_c, 4, 69, 92
10, 147764, Note_on_c, 4, 69, 0
10, 147780, Note_on_c, 4, 57, 92
10, 147824, Note_on_c, 4, 57, 0
10, 147840, Note_on_c, 4, 57, 92
10, 147944, Note_on_c, 4, 57, 0
10, 147960, Note_on_c, 4, 69, 92
10, 148124, Note_on_c, 4, 69, 0
10, 148140, Note_on_c, 4, 57, 92
10, 148184, Note_on_c, 4, 57, 0
10, 148200, Note_on_c, 4, 57, 92
10, 148304, Note_on_c, 4, 57, 0
10, 148320, Note_on_c, 4, 69, 92
10, 148484, Note_on_c, 4, 69, 0
10, 148500, Note_on_c, 4, 57, 92
10, 148544, Note_on_c, 4, 57, 0
10, 148560, Note_on_c, 4, 57, 92
10, 148664, Note_on_c, 4, 57, 0
10, 148680, Note_on_c, 4, 69, 92
10, 148844, Note_on_c, 4, 69, 0
10, 148860, Note_on_c, 4, 57, 92
10, 148904, Note_on_c, 4, 57, 0
10, 148920, Note_on_c, 4, 57, 92
10, 149024, Note_on_c, 4, 57, 0
10, 149040, Note_on_c, 4, 69, 92
10, 149204, Note_on_c, 4, 69, 0
10, 149220, Note_on_c, 4, 57, 92
10, 149264, Note_on_c, 4, 57, 0
10, 149280, Note_on_c, 4, 57, 92
10, 149384, Note_on_c, 4, 57, 0
10, 149400, Note_on_c, 4, 69, 92
10, 149564, Note_on_c, 4, 69, 0
10, 149580, Note_on_c, 4, 57, 92
10, 149624, Note_on_c, 4, 57, 0
10, 149640, Note_on_c, 4, 57, 92
10, 149744, Note_on_c, 4, 57, 0
10, 149760, Note_on_c, 4, 69, 92
10, 149924, Note_on_c, 4, 69, 0
10, 149940, Note_on_c, 4, 57, 92
10, 149984, Note_on_c, 4, 57, 0
10, 150000, Note_on_c, 4, 57, 92
10, 150104, Note_on_c, 4, 57, 0
10, 150120, Note_on_c, 4, 69, 92
10, 150284, Note_on_c, 4, 69, 0
10, 150300, Note_on_c, 4, 57, 92
10, 150344, Note_on_c, 4, 57, 0
10, 150360, Note_on_c, 4, 57, 92
10, 150464, Note_on_c, 4, 57, 0
10, 150480, Note_on_c, 4, 69, 92
10, 150644, Note_on_c, 4, 69, 0
10, 150660, Note_on_c, 4, 57, 92
10, 150704, Note_on_c, 4, 57, 0
10, 150720, Note_on_c, 4, 57, 92
10, 150824, Note_on_c, 4, 57, 0
10, 150840, Note_on_c, 4, 69, 92
10, 151004, Note_on_c, 4, 69, 0
10, 151020, Note_on_c, 4, 57, 92
10, 151064, Note_on_c, 4, 57, 0
10, 151080, Note_on_c, 4, 57, 92
10, 151184, Note_on_c, 4, 57, 0
10, 151200, Note_on_c, 4, 69, 92
10, 151364, Note_on_c, 4, 69, 0
10, 151380, Note_on_c, 4, 57, 92
10, 151424, Note_on_c, 4, 57, 0
10, 151440, Note_on_c, 4, 57, 92
10, 151544, Note_on_c, 4, 57, 0
10, 151560, Note_on_c, 4, 69, 92
10, 151724, Note_on_c, 4, 69, 0
10, 151740, Note_on_c, 4, 57, 92
10, 151784, Note_on_c, 4, 57, 0
10, 151800, Note_on_c, 4, 57, 92
10, 151904, Note_on_c, 4, 57, 0
10, 151920, Note_on_c, 4, 69, 92
10, 152084, Note_on_c, 4, 69, 0
10, 152100, Note_on_c, 4, 57, 92
10, 152144, Note_on_c, 4, 57, 0
10, 152160, Note_on_c, 4, 57, 92
10, 152264, Note_on_c, 4, 57, 0
10, 152280, Note_on_c, 4, 69, 92
10, 152444, Note_on_c, 4, 69, 0
10, 152460, Note_on_c, 4, 57, 92
10, 152504, Note_on_c, 4, 57, 0
10, 152520, Note_on_c, 4, 57, 92
10, 152624, Note_on_c, 4, 57, 0
10, 152640, Note_on_c, 4, 69, 92
10, 152804, Note_on_c, 4, 69, 0
10, 152820, Note_on_c, 4, 57, 92
10, 152864, Note_on_c, 4, 57, 0
10, 152880, Note_on_c, 4, 57, 92
10, 152984, Note_on_c, 4, 57, 0
10, 153000, Note_on_c, 4, 69, 92
10, 153164, Note_on_c, 4, 69, 0
10, 153180, Note_on_c, 4, 57, 92
10, 153224, Note_on_c, 4, 57, 0
10, 153240, Note_on_c, 4, 57, 92
10, 153344, Note_on_c, 4, 57, 0
10, 153360, Note_on_c, 4, 67, 92
10, 153464, Note_on_c, 4, 67, 0
10, 153480, Note_on_c, 4, 67, 92
10, 153584, Note_on_c, 4, 67, 0
10, 153600, Note_on_c, 4, 67, 92
10, 153704, Note_on_c, 4, 67, 0
10, 153720, Note_on_c, 4, 62, 92
10, 153884, Note_on_c, 4, 62, 0
10, 153900, Note_on_c, 4, 50, 92
10, 153944, Note_on_c, 4, 50, 0
10, 153960, Note_on_c, 4, 50, 92
10, 154064, Note_on_c, 4, 50, 0
10, 154080, Note_on_c, 4, 62, 92
10, 154244, Note_on_c, 4, 62, 0
10, 154260, Note_on_c, 4, 50, 92
10, 154304, Note_on_c, 4, 50, 0
10, 154320, Note_on_c, 4, 50, 92
10, 154424, Note_on_c, 4, 50, 0
10, 154440, Note_on_c, 4, 62, 92
10, 154604, Note_on_c, 4, 62, 0
10, 154620, Note_on_c, 4, 50, 92
10, 154664, Note_on_c, 4, 50, 0
10, 154680, Note_on_c, 4, 50, 92
10, 154784, Note_on_c, 4, 50, 0
10, 154800, Note_on_c, 4, 67, 80
10, 154904, Note_on_c, 4, 67, 0
10, 154920, Note_on_c, 4, 67, 80
10, 155024, Note_on_c, 4, 67, 0
10, 155040, Note_on_c, 4, 67, 80
10, 155144, Note_on_c, 4, 67, 0
10, 155160, Note_on_c, 4, 67, 80
10, 155264, Note_on_c, 4, 67, 0
10, 155280, Note_on_c, 4, 67, 80
10, 155384, Note_on_c, 4, 67, 0
10, 155400, Note_on_c, 4, 67, 80
10, 155504, Note_on_c, 4, 67, 0
10, 155520, Note_on_c, 4, 65, 80
10, 155624, Note_on_c, 4, 65, 0
10, 155640, Note_on_c, 4, 65, 80
10, 155744, Note_on_c, 4, 65, 0
10, 155760, Note_on_c, 4, 65, 80
10, 155864, Note_on_c, 4, 65, 0
10, 155880, Note_on_c, 4, 65, 80
10, 155984, Note_on_c, 4, 65, 0
10, 156000, Note_on_c, 4, 65, 80
10, 156104, Note_on_c, 4, 65, 0
10, 156120, Note_on_c, 4, 65, 80
10, 156224, Note_on_c, 4, 65, 0
10, 156240, Note_on_c, 4, 65, 80
10, 156344, Note_on_c, 4, 65, 0
10, 156360, Note_on_c, 4, 65, 80
10, 156464, Note_on_c, 4, 65, 0
10, 156480, Note_on_c, 4, 65, 80
10, 156584, Note_on_c, 4, 65, 0
10, 156600, Note_on_c, 4, 65, 80
10, 156704, Note_on_c, 4, 65, 0
10, 156720, Note_on_c, 4, 65, 80
10, 156824, Note_on_c, 4, 65, 0
10, 156840, Note_on_c, 4, 65, 80
10, 156944, Note_on_c, 4, 65, 0
10, 156960, Note_on_c, 4, 65, 80
10, 157064, Note_on_c, 4, 65, 0
10, 157080, Note_on_c, 4, 65, 80
10, 157184, Note_on_c, 4, 65, 0
10, 157200, Note_on_c, 4, 65, 80
10, 157304, Note_on_c, 4, 65, 0
10, 157320, Note_on_c, 4, 65, 80
10, 157424, Note_on_c, 4, 65, 0
10, 157440, Note_on_c, 4, 65, 80
10, 157544, Note_on_c, 4, 65, 0
10, 157560, Note_on_c, 4, 65, 80
10, 157664, Note_on_c, 4, 65, 0
10, 157680, Note_on_c, 4, 65, 80
10, 157799, Note_on_c, 4, 65, 0
10, 160920, Control_c, 4, 11, 87
10, 161280, Note_on_c, 4, 57, 68
10, 161280, Note_on_c, 4, 45, 68
10, 161640, Control_c, 4, 11, 87
10, 161676, Control_c, 4, 11, 88
10, 161712, Control_c, 4, 11, 89
10, 161748, Control_c, 4, 11, 90
10, 161784, Control_c, 4, 11, 91
10, 161820, Control_c, 4, 11, 92
10, 161856, Control_c, 4, 11, 93
10, 161892, Control_c, 4, 11, 94
10, 161928, Control_c, 4, 11, 95
10, 161964, Control_c, 4, 11, 96
10, 162000, Control_c, 4, 11, 97
10, 162036, Control_c, 4, 11, 98
10, 162072, Control_c, 4, 11, 99
10, 162108, Control_c, 4, 11, 100
10, 162144, Control_c, 4, 11, 101
10, 162180, Control_c, 4, 11, 102
10, 162216, Control_c, 4, 11, 103
10, 162252, Control_c, 4, 11, 104
10, 162288, Control_c, 4, 11, 105
10, 162324, Control_c, 4, 11, 106
10, 162360, Control_c, 4, 11, 107
10, 162396, Control_c, 4, 11, 108
10, 162432, Control_c, 4, 11, 109
10, 162468, Control_c, 4, 11, 110
10, 162504, Control_c, 4, 11, 111
10, 162540, Control_c, 4, 11, 112
10, 162576, Control_c, 4, 11, 113
10, 162612, Control_c, 4, 11, 114
10, 162648, Control_c, 4, 11, 115
10, 162684, Control_c, 4, 11, 116
10, 162720, Control_c, 4, 11, 117
10, 162756, Control_c, 4, 11, 118
10, 162792, Control_c, 4, 11, 119
10, 162828, Control_c, 4, 11, 120
10, 162864, Control_c, 4, 11, 121
10, 162900, Control_c, 4, 11, 122
10, 162936, Control_c, 4, 11, 123
10, 162972, Control_c, 4, 11, 124
10, 163008, Control_c, 4, 11, 125
10, 163044, Control_c, 4, 11, 126
10, 163080, Control_c, 4, 11, 127
10, 163110, Control_c, 4, 11, 126
10, 163140, Control_c, 4, 11, 125
10, 163170, Control_c, 4, 11, 124
10, 163200, Control_c, 4, 11, 123
10, 163230, Control_c, 4, 11, 121
10, 163260, Control_c, 4, 11, 120
10, 163290, Control_c, 4, 11, 119
10, 163320, Control_c, 4, 11, 118
10, 163350, Control_c, 4, 11, 117
10, 163380, Control_c, 4, 11, 116
10, 163410, Control_c, 4, 11, 115
10, 163440, Control_c, 4, 11, 114
10, 163470, Control_c, 4, 11, 113
10, 163500, Control_c, 4, 11, 111
10, 163530, Control_c, 4, 11, 110
10, 163560, Control_c, 4, 11, 109
10, 163590, Control_c, 4, 11, 108
10, 163620, Control_c, 4, 11, 107
10, 163650, Control_c, 4, 11, 106
10, 163680, Control_c, 4, 11, 105
10, 163710, Control_c, 4, 11, 104
10, 163740, Control_c, 4, 11, 103
10, 163770, Control_c, 4, 11, 101
10, 163800, Control_c, 4, 11, 100
10, 163830, Control_c, 4, 11, 99
10, 163860, Control_c, 4, 11, 98
10, 163890, Control_c, 4, 11, 97
10, 163920, Control_c, 4, 11, 96
10, 163950, Control_c, 4, 11, 95
10, 163980, Control_c, 4, 11, 94
10, 164010, Control_c, 4, 11, 93
10, 164040, Control_c, 4, 11, 91
10, 164070, Control_c, 4, 11, 90
10, 164100, Control_c, 4, 11, 89
10, 164130, Control_c, 4, 11, 87
10, 164144, Note_on_c, 4, 57, 0
10, 164144, Note_on_c, 4, 45, 0
10, 164160, Note_on_c, 4, 57, 68
10, 164160, Note_on_c, 4, 45, 68
10, 164520, Control_c, 4, 11, 87
10, 164556, Control_c, 4, 11, 88
10, 164592, Control_c, 4, 11, 89
10, 164628, Control_c, 4, 11, 90
10, 164664, Control_c, 4, 11, 91
10, 164700, Control_c, 4, 11, 92
10, 164736, Control_c, 4, 11, 93
10, 164772, Control_c, 4, 11, 94
10, 164808, Control_c, 4, 11, 95
10, 164844, Control_c, 4, 11, 96
10, 164880, Control_c, 4, 11, 97
10, 164916, Control_c, 4, 11, 98
10, 164952, Control_c, 4, 11, 99
10, 164988, Control_c, 4, 11, 100
10, 165024, Control_c, 4, 11, 101
10, 165060, Control_c, 4, 11, 102
10, 165096, Control_c, 4, 11, 103
10, 165132, Control_c, 4, 11, 104
10, 165168, Control_c, 4, 11, 105
10, 165204, Control_c, 4, 11, 106
10, 165240, Control_c, 4, 11, 107
10, 165276, Control_c, 4, 11, 108
10, 165312, Control_c, 4, 11, 109
10, 165348, Control_c, 4, 11, 110
10, 165384, Control_c, 4, 11, 111
10, 165420, Control_c, 4, 11, 112
10, 165456, Control_c, 4, 11, 113
10, 165492, Control_c, 4, 11, 114
10, 165528, Control_c, 4, 11, 115
10, 165564, Control_c, 4, 11, 116
10, 165600, Control_c, 4, 11, 117
10, 165636, Control_c, 4, 11, 118
10, 165672, Control_c, 4, 11, 119
10, 165708, Control_c, 4, 11, 120
10, 165744, Control_c, 4, 11, 121
10, 165780, Control_c, 4, 11, 122
10, 165816, Control_c, 4, 11, 123
10, 165852, Control_c, 4, 11, 124
10, 165888, Control_c, 4, 11, 125
10, 165924, Control_c, 4, 11, 126
10, 165960, Control_c, 4, 11, 127
10, 165990, Control_c, 4, 11, 126
10, 166020, Control_c, 4, 11, 125
10, 166050, Control_c, 4, 11, 124
10, 166080, Control_c, 4, 11, 123
10, 166110, Control_c, 4, 11, 121
10, 166140, Control_c, 4, 11, 120
10, 166170, Control_c, 4, 11, 119
10, 166200, Control_c, 4, 11, 118
10, 166230, Control_c, 4, 11, 117
10, 166260, Control_c, 4, 11, 116
10, 166290, Control_c, 4, 11, 115
10, 166320, Control_c, 4, 11, 114
10, 166350, Control_c, 4, 11, 113
10, 166380, Control_c, 4, 11, 111
10, 166410, Control_c, 4, 11, 110
10, 166440, Control_c, 4, 11, 109
10, 166470, Control_c, 4, 11, 108
10, 166500, Control_c, 4, 11, 107
10, 166530, Control_c, 4, 11, 106
10, 166560, Control_c, 4, 11, 105
10, 166590, Control_c, 4, 11, 104
10, 166620, Control_c, 4, 11, 103
10, 166650, Control_c, 4, 11, 101
10, 166680, Control_c, 4, 11, 100
10, 166710, Control_c, 4, 11, 99
10, 166740, Control_c, 4, 11, 98
10, 166770, Control_c, 4, 11, 97
10, 166800, Control_c, 4, 11, 96
10, 166830, Control_c, 4, 11, 95
10, 166860, Control_c, 4, 11, 94
10, 166890, Control_c, 4, 11, 93
10, 166920, Control_c, 4, 11, 91
10, 166950, Control_c, 4, 11, 90
10, 166980, Control_c, 4, 11, 89
10, 167010, Control_c, 4, 11, 87
10, 167024, Note_on_c, 4, 57, 0
10, 167024, Note_on_c, 4, 45, 0
10, 167038, Control_c, 4, 11, 47
10, 167040, Control_c, 4, 11, 47
10, 167040, Note_on_c, 4, 57, 92
10, 167040, Note_on_c, 4, 69, 92
10, 167076, Control_c, 4, 11, 48
10, 167112, Control_c, 4, 11, 49
10, 167148, Control_c, 4, 11, 50
10, 167184, Control_c, 4, 11, 51
10, 167204, Note_on_c, 4, 57, 0
10, 167204, Note_on_c, 4, 69, 0
10, 167220, Note_on_c, 4, 45, 92
10, 167220, Control_c, 4, 11, 52
10, 167220, Note_on_c, 4, 57, 92
10, 167256, Control_c, 4, 11, 53
10, 167264, Note_on_c, 4, 45, 0
10, 167264, Note_on_c, 4, 57, 0
10, 167280, Note_on_c, 4, 45, 92
10, 167280, Note_on_c, 4, 57, 92
10, 167292, Control_c, 4, 11, 54
10, 167328, Control_c, 4, 11, 55
10, 167364, Control_c, 4, 11, 56
10, 167384, Note_on_c, 4, 45, 0
10, 167384, Note_on_c, 4, 57, 0
10, 167400, Control_c, 4, 11, 57
10, 167400, Note_on_c, 4, 57, 92
10, 167400, Note_on_c, 4, 69, 92
10, 167436, Control_c, 4, 11, 58
10, 167472, Control_c, 4, 11, 59
10, 167508, Control_c, 4, 11, 60
10, 167544, Control_c, 4, 11, 61
10, 167564, Note_on_c, 4, 57, 0
10, 167564, Note_on_c, 4, 69, 0
10, 167580, Control_c, 4, 11, 62
10, 167580, Note_on_c, 4, 45, 92
10, 167580, Note_on_c, 4, 57, 92
10, 167616, Control_c, 4, 11, 63
10, 167624, Note_on_c, 4, 45, 0
10, 167624, Note_on_c, 4, 57, 0
10, 167640, Note_on_c, 4, 57, 92
10, 167640, Note_on_c, 4, 45, 92
10, 167652, Control_c, 4, 11, 64
10, 167688, Control_c, 4, 11, 65
10, 167724, Control_c, 4, 11, 66
10, 167744, Note_on_c, 4, 57, 0
10, 167744, Note_on_c, 4, 45, 0
10, 167760, Control_c, 4, 11, 67
10, 167796, Control_c, 4, 11, 68
10, 167832, Control_c, 4, 11, 69
10, 167868, Control_c, 4, 11, 70
10, 167904, Control_c, 4, 11, 71
10, 167940, Control_c, 4, 11, 72
10, 167940, Note_on_c, 4, 65, 92
10, 167976, Control_c, 4, 11, 73
10, 167984, Note_on_c, 4, 65, 0
10, 168000, Note_on_c, 4, 65, 92
10, 168012, Control_c, 4, 11, 74
10, 168048, Control_c, 4, 11, 75
10, 168084, Control_c, 4, 11, 76
10, 168104, Note_on_c, 4, 65, 0
10, 168120, Control_c, 4, 11, 77
10, 168156, Control_c, 4, 11, 78
10, 168192, Control_c, 4, 11, 79
10, 168228, Control_c, 4, 11, 80
10, 168264, Control_c, 4, 11, 81
10, 168300, Note_on_c, 4, 67, 92
10, 168300, Control_c, 4, 11, 82
10, 168300, Note_on_c, 4, 64, 92
10, 168336, Control_c, 4, 11, 83
10, 168344, Note_on_c, 4, 67, 0
10, 168344, Note_on_c, 4, 64, 0
10, 168360, Note_on_c, 4, 64, 92
10, 168360, Note_on_c, 4, 67, 92
10, 168372, Control_c, 4, 11, 84
10, 168408, Control_c, 4, 11, 85
10, 168444, Control_c, 4, 11, 86
10, 168464, Note_on_c, 4, 64, 0
10, 168464, Note_on_c, 4, 67, 0
10, 168480, Control_c, 4, 11, 87
10, 168516, Control_c, 4, 11, 88
10, 168552, Control_c, 4, 11, 89
10, 168588, Control_c, 4, 11, 90
10, 168624, Control_c, 4, 11, 91
10, 168660, Note_on_c, 4, 57, 92
10, 168660, Control_c, 4, 11, 92
10, 168660, Note_on_c, 4, 64, 92
10, 168696, Control_c, 4, 11, 93
10, 168704, Note_on_c, 4, 57, 0
10, 168704, Note_on_c, 4, 64, 0
10, 168720, Note_on_c, 4, 57, 92
10, 168720, Note_on_c, 4, 64, 92
10, 168732, Control_c, 4, 11, 94
10, 168768, Control_c, 4, 11, 95
10, 168804, Control_c, 4, 11, 96
10, 168824, Note_on_c, 4, 57, 0
10, 168824, Note_on_c, 4, 64, 0
10, 168840, Control_c, 4, 11, 97
10, 168876, Control_c, 4, 11, 98
10, 168912, Control_c, 4, 11, 99
10, 168948, Control_c, 4, 11, 100
10, 168984, Control_c, 4, 11, 101
10, 169020, Note_on_c, 4, 65, 92
10, 169020, Control_c, 4, 11, 102
10, 169020, Note_on_c, 4, 62, 92
10, 169056, Control_c, 4, 11, 103
10, 169064, Note_on_c, 4, 65, 0
10, 169064, Note_on_c, 4, 62, 0
10, 169080, Note_on_c, 4, 65, 92
10, 169080, Note_on_c, 4, 62, 92
10, 169092, Control_c, 4, 11, 104
10, 169128, Control_c, 4, 11, 105
10, 169164, Control_c, 4, 11, 106
10, 169184, Note_on_c, 4, 65, 0
10, 169184, Note_on_c, 4, 62, 0
10, 169200, Control_c, 4, 11, 107
10, 169236, Control_c, 4, 11, 108
10, 169272, Control_c, 4, 11, 109
10, 169308, Control_c, 4, 11, 110
10, 169344, Control_c, 4, 11, 111
10, 169380, Control_c, 4, 11, 112
10, 169380, Note_on_c, 4, 57, 92
10, 169380, Note_on_c, 4, 69, 92
10, 169416, Control_c, 4, 11, 113
10, 169424, Note_on_c, 4, 57, 0
10, 169424, Note_on_c, 4, 69, 0
10, 169440, Note_on_c, 4, 69, 92
10, 169440, Note_on_c, 4, 57, 92
10, 169452, Control_c, 4, 11, 114
10, 169488, Control_c, 4, 11, 115
10, 169524, Control_c, 4, 11, 116
10, 169544, Note_on_c, 4, 69, 0
10, 169544, Note_on_c, 4, 57, 0
10, 169560, Control_c, 4, 11, 117
10, 169596, Control_c, 4, 11, 118
10, 169632, Control_c, 4, 11, 119
10, 169668, Control_c, 4, 11, 120
10, 169704, Control_c, 4, 11, 121
10, 169740, Note_on_c, 4, 69, 92
10, 169740, Note_on_c, 4, 57, 92
10, 169740, Control_c, 4, 11, 122
10, 169776, Control_c, 4, 11, 123
10, 169784, Note_on_c, 4, 69, 0
10, 169784, Note_on_c, 4, 57, 0
10, 169800, Note_on_c, 4, 57, 92
10, 169800, Note_on_c, 4, 69, 92
10, 169812, Control_c, 4, 11, 124
10, 169848, Control_c, 4, 11, 125
10, 169884, Control_c, 4, 11, 127
10, 169904, Note_on_c, 4, 57, 0
10, 169904, Note_on_c, 4, 69, 0
10, 169920, Note_on_c, 4, 50, 92
10, 169920, Note_on_c, 4, 62, 92
10, 170264, Note_on_c, 4, 50, 0
10, 170264, Note_on_c, 4, 62, 0
10, 170280, Note_on_c, 4, 62, 92
10, 170280, Note_on_c, 4, 50, 92
10, 170399, Note_on_c, 4, 62, 0
10, 170399, Note_on_c, 4, 50, 0
10, 170520, Note_on_c, 4, 62, 92
10, 170520, Note_on_c, 4, 50, 92
10, 170624, Note_on_c, 4, 62, 0
10, 170624, Note_on_c, 4, 50, 0
10, 170640, Note_on_c, 4, 50, 92
10, 170640, Note_on_c, 4, 62, 92
10, 170759, Note_on_c, 4, 50, 0
10, 170759, Note_on_c, 4, 62, 0
10, 170880, Note_on_c, 4, 50, 92
10, 170880, Note_on_c, 4, 62, 92
10, 170984, Note_on_c, 4, 50, 0
10, 170984, Note_on_c, 4, 62, 0
10, 171000, Note_on_c, 4, 50, 92
10, 171000, Note_on_c, 4, 62, 92
10, 171119, Note_on_c, 4, 50, 0
10, 171119, Note_on_c, 4, 62, 0
10, 171240, Note_on_c, 4, 62, 92
10, 171240, Note_on_c, 4, 50, 92
10, 171344, Note_on_c, 4, 62, 0
10, 171344, Note_on_c, 4, 50, 0
10, 171360, Note_on_c, 4, 50, 92
10, 171360, Note_on_c, 4, 62, 92
10, 171704, Note_on_c, 4, 50, 0
10, 171704, Note_on_c, 4, 62, 0
10, 171720, Note_on_c, 4, 62, 92
10, 171720, Note_on_c, 4, 50, 92
10, 171839, Note_on_c, 4, 62, 0
10, 171839, Note_on_c, 4, 50, 0
10, 171960, Note_on_c, 4, 62, 92
10, 171960, Note_on_c, 4, 50, 92
10, 172064, Note_on_c, 4, 62, 0
10, 172064, Note_on_c, 4, 50, 0
10, 172080, Note_on_c, 4, 50, 92
10, 172080, Note_on_c, 4, 62, 92
10, 172199, Note_on_c, 4, 50, 0
10, 172199, Note_on_c, 4, 62, 0
10, 172320, Note_on_c, 4, 62, 92
10, 172320, Note_on_c, 4, 50, 92
10, 172424, Note_on_c, 4, 62, 0
10, 172424, Note_on_c, 4, 50, 0
10, 172440, Note_on_c, 4, 62, 92
10, 172440, Note_on_c, 4, 50, 92
10, 172559, Note_on_c, 4, 62, 0
10, 172559, Note_on_c, 4, 50, 0
10, 172680, Note_on_c, 4, 50, 92
10, 172680, Note_on_c, 4, 62, 92
10, 172784, Note_on_c, 4, 50, 0
10, 172784, Note_on_c, 4, 62, 0
10, 172800, Note_on_c, 4, 50, 92
10, 172800, Note_on_c, 4, 62, 92
10, 172904, Note_on_c, 4, 50, 0
10, 172904, Note_on_c, 4, 62, 0
10, 172920, Note_on_c, 4, 50, 92
10, 172920, Note_on_c, 4, 62, 92
10, 173024, Note_on_c, 4, 50, 0
10, 173024, Note_on_c, 4, 62, 0
10, 173040, Note_on_c, 4, 50, 92
10, 173040, Note_on_c, 4, 62, 92
10, 173144, Note_on_c, 4, 50, 0
10, 173144, Note_on_c, 4, 62, 0
10, 173160, Note_on_c, 4, 62, 92
10, 173160, Note_on_c, 4, 50, 92
10, 173264, Note_on_c, 4, 62, 0
10, 173264, Note_on_c, 4, 50, 0
10, 173280, Note_on_c, 4, 62, 92
10, 173280, Note_on_c, 4, 50, 92
10, 173384, Note_on_c, 4, 62, 0
10, 173384, Note_on_c, 4, 50, 0
10, 173400, Note_on_c, 4, 62, 92
10, 173400, Note_on_c, 4, 50, 92
10, 173504, Note_on_c, 4, 62, 0
10, 173504, Note_on_c, 4, 50, 0
10, 173520, Note_on_c, 4, 62, 92
10, 173520, Note_on_c, 4, 50, 92
10, 173624, Note_on_c, 4, 62, 0
10, 173624, Note_on_c, 4, 50, 0
10, 173640, Note_on_c, 4, 50, 92
10, 173640, Note_on_c, 4, 62, 92
10, 173744, Note_on_c, 4, 50, 0
10, 173744, Note_on_c, 4, 62, 0
10, 173760, Note_on_c, 4, 62, 92
10, 173760, Note_on_c, 4, 50, 92
10, 173864, Note_on_c, 4, 62, 0
10, 173864, Note_on_c, 4, 50, 0
10, 173880, Note_on_c, 4, 50, 92
10, 173880, Note_on_c, 4, 62, 92
10, 173984, Note_on_c, 4, 50, 0
10, 173984, Note_on_c, 4, 62, 0
10, 174000, Note_on_c, 4, 50, 92
10, 174000, Note_on_c, 4, 62, 92
10, 174104, Note_on_c, 4, 50, 0
10, 174104, Note_on_c, 4, 62, 0
10, 174120, Note_on_c, 4, 50, 92
10, 174120, Note_on_c, 4, 62, 92
10, 174224, Note_on_c, 4, 50, 0
10, 174224, Note_on_c, 4, 62, 0
10, 174240, Note_on_c, 4, 50, 92
10, 174240, Note_on_c, 4, 62, 92
10, 174344, Note_on_c, 4, 50, 0
10, 174344, Note_on_c, 4, 62, 0
10, 174360, Note_on_c, 4, 50, 92
10, 174360, Note_on_c, 4, 62, 92
10, 174464, Note_on_c, 4, 50, 0
10, 174464, Note_on_c, 4, 62, 0
10, 174480, Note_on_c, 4, 50, 92
10, 174480, Note_on_c, 4, 62, 92
10, 174584, Note_on_c, 4, 50, 0
10, 174584, Note_on_c, 4, 62, 0
10, 174600, Note_on_c, 4, 50, 92
10, 174600, Note_on_c, 4, 62, 92
10, 174704, Note_on_c, 4, 50, 0
10, 174704, Note_on_c, 4, 62, 0
10, 174720, Note_on_c, 4, 62, 92
10, 174720, Note_on_c, 4, 50, 92
10, 174824, Note_on_c, 4, 62, 0
10, 174824, Note_on_c, 4, 50, 0
10, 174840, Note_on_c, 4, 62, 92
10, 174840, Note_on_c, 4, 50, 92
10, 174944, Note_on_c, 4, 62, 0
10, 174944, Note_on_c, 4, 50, 0
10, 174960, Note_on_c, 4, 50, 92
10, 174960, Note_on_c, 4, 62, 92
10, 175064, Note_on_c, 4, 50, 0
10, 175064, Note_on_c, 4, 62, 0
10, 175080, Note_on_c, 4, 50, 92
10, 175080, Note_on_c, 4, 62, 92
10, 175184, Note_on_c, 4, 50, 0
10, 175184, Note_on_c, 4, 62, 0
10, 175200, Note_on_c, 4, 62, 92
10, 175200, Note_on_c, 4, 50, 92
10, 175304, Note_on_c, 4, 62, 0
10, 175304, Note_on_c, 4, 50, 0
10, 175320, Note_on_c, 4, 62, 92
10, 175320, Note_on_c, 4, 50, 92
10, 175424, Note_on_c, 4, 62, 0
10, 175424, Note_on_c, 4, 50, 0
10, 175440, Note_on_c, 4, 50, 92
10, 175440, Note_on_c, 4, 62, 92
10, 175544, Note_on_c, 4, 50, 0
10, 175544, Note_on_c, 4, 62, 0
10, 175560, Note_on_c, 4, 50, 92
10, 175560, Note_on_c, 4, 62, 92
10, 175664, Note_on_c, 4, 50, 0
10, 175664, Note_on_c, 4, 62, 0
10, 175680, Note_on_c, 4, 50, 92
10, 175680, Note_on_c, 4, 62, 92
10, 175799, Note_on_c, 4, 50, 0
10, 175799, Note_on_c, 4, 62, 0
10, 176400, Note_on_c, 4, 67, 92
10, 176564, Note_on_c, 4, 67, 0
10, 176580, Note_on_c, 4, 67, 92
10, 176624, Note_on_c, 4, 67, 0
10, 176640, Note_on_c, 4, 67, 92
10, 176744, Note_on_c, 4, 67, 0
10, 176760, Note_on_c, 4, 67, 92
10, 176864, Note_on_c, 4, 67, 0
10, 176880, Note_on_c, 4, 67, 92
10, 176984, Note_on_c, 4, 67, 0
10, 177000, Note_on_c, 4, 67, 92
10, 177104, Note_on_c, 4, 67, 0
10, 177120, Note_on_c, 4, 60, 92
10, 177239, Note_on_c, 4, 60, 0
10, 177840, Note_on_c, 4, 57, 92
10, 178004, Note_on_c, 4, 57, 0
10, 178020, Note_on_c, 4, 57, 92
10, 178064, Note_on_c, 4, 57, 0
10, 178080, Note_on_c, 4, 57, 92
10, 178184, Note_on_c, 4, 57, 0
10, 178200, Note_on_c, 4, 57, 92
10, 178304, Note_on_c, 4, 57, 0
10, 178320, Note_on_c, 4, 57, 92
10, 178424, Note_on_c, 4, 57, 0
10, 178440, Note_on_c, 4, 57, 92
10, 178544, Note_on_c, 4, 57, 0
10, 178560, Note_on_c, 4, 50, 44
10, 178560, Note_on_c, 4, 62, 44
10, 179279, Note_on_c, 4, 50, 0
10, 179279, Note_on_c, 4, 62, 0
10, 179280, Note_on_c, 4, 67, 44
10, 179399, Note_on_c, 4, 67, 0
10, 179640, Control_c, 4, 11, 87
10, 180000, Control_c, 4, 11, 87
10, 180000, Note_on_c, 4, 67, 68
10, 180030, Control_c, 4, 11, 90
10, 180060, Control_c, 4, 11, 94
10, 180090, Control_c, 4, 11, 97
10, 180120, Control_c, 4, 11, 100
10, 180150, Control_c, 4, 11, 104
10, 180180, Control_c, 4, 11, 107
10, 180210, Control_c, 4, 11, 110
10, 180240, Control_c, 4, 11, 114
10, 180270, Control_c, 4, 11, 117
10, 180300, Control_c, 4, 11, 120
10, 180330, Control_c, 4, 11, 124
10, 180360, Control_c, 4, 11, 127
10, 180390, Control_c, 4, 11, 124
10, 180420, Control_c, 4, 11, 120
10, 180450, Control_c, 4, 11, 117
10, 180479, Note_on_c, 4, 67, 0
10, 180480, Note_on_c, 4, 57, 68
10, 180480, Note_on_c, 4, 69, 68
10, 180480, Control_c, 4, 11, 114
10, 180510, Control_c, 4, 11, 110
10, 180540, Control_c, 4, 11, 107
10, 180570, Control_c, 4, 11, 104
10, 180584, Note_on_c, 4, 57, 0
10, 180599, Note_on_c, 4, 69, 0
10, 180600, Note_on_c, 4, 57, 68
10, 180600, Control_c, 4, 11, 100
10, 180630, Control_c, 4, 11, 97
10, 180660, Control_c, 4, 11, 94
10, 180690, Control_c, 4, 11, 90
10, 180719, Note_on_c, 4, 57, 0
10, 181440, Control_c, 4, 11, 127
10, 181680, Note_on_c, 4, 67, 68
10, 181904, Note_on_c, 4, 67, 0
10, 181920, Note_on_c, 4, 57, 74
10, 181920, Note_on_c, 4, 69, 74
10, 182024, Note_on_c, 4, 57, 0
10, 182024, Note_on_c, 4, 69, 0
10, 182040, Note_on_c, 4, 69, 77
10, 182040, Note_on_c, 4, 57, 77
10, 182144, Note_on_c, 4, 69, 0
10, 182144, Note_on_c, 4, 57, 0
10, 182160, Note_on_c, 4, 57, 80
10, 182160, Note_on_c, 4, 69, 80
10, 182264, Note_on_c, 4, 57, 0
10, 182264, Note_on_c, 4, 69, 0
10, 182280, Note_on_c, 4, 57, 80
10, 182280, Note_on_c, 4, 69, 80
10, 182384, Note_on_c, 4, 57, 0
10, 182384, Note_on_c, 4, 69, 0
10, 182400, Note_on_c, 4, 69, 80
10, 182400, Note_on_c, 4, 57, 80
10, 182504, Note_on_c, 4, 69, 0
10, 182504, Note_on_c, 4, 57, 0
10, 182520, Note_on_c, 4, 69, 80
10, 182520, Note_on_c, 4, 57, 80
10, 182624, Note_on_c, 4, 69, 0
10, 182624, Note_on_c, 4, 57, 0
10, 182640, Note_on_c, 4, 69, 80
10, 182640, Note_on_c, 4, 57, 80
10, 182744, Note_on_c, 4, 69, 0
10, 182744, Note_on_c, 4, 57, 0
10, 182760, Note_on_c, 4, 57, 80
10, 182760, Note_on_c, 4, 69, 80
10, 182864, Note_on_c, 4, 57, 0
10, 182864, Note_on_c, 4, 69, 0
10, 182880, Note_on_c, 4, 69, 80
10, 182880, Note_on_c, 4, 57, 80
10, 182984, Note_on_c, 4, 69, 0
10, 182984, Note_on_c, 4, 57, 0
10, 183000, Note_on_c, 4, 50, 80
10, 183000, Note_on_c, 4, 62, 80
10, 183104, Note_on_c, 4, 50, 0
10, 183104, Note_on_c, 4, 62, 0
10, 183120, Note_on_c, 4, 62, 80
10, 183120, Note_on_c, 4, 50, 80
10, 183224, Note_on_c, 4, 62, 0
10, 183224, Note_on_c, 4, 50, 0
10, 183240, Note_on_c, 4, 62, 80
10, 183240, Note_on_c, 4, 50, 80
10, 183344, Note_on_c, 4, 62, 0
10, 183344, Note_on_c, 4, 50, 0
10, 183360, Note_on_c, 4, 45, 80
10, 183360, Note_on_c, 4, 57, 80
10, 183464, Note_on_c, 4, 45, 0
10, 183464, Note_on_c, 4, 57, 0
10, 183480, Note_on_c, 4, 57, 80
10, 183480, Note_on_c, 4, 69, 80
10, 183584, Note_on_c, 4, 57, 0
10, 183584, Note_on_c, 4, 69, 0
10, 183600, Note_on_c, 4, 57, 80
10, 183600, Note_on_c, 4, 69, 80
10, 183704, Note_on_c, 4, 57, 0
10, 183704, Note_on_c, 4, 69, 0
10, 183720, Note_on_c, 4, 57, 80
10, 183720, Note_on_c, 4, 69, 80
10, 183824, Note_on_c, 4, 57, 0
10, 183824, Note_on_c, 4, 69, 0
10, 183840, Note_on_c, 4, 57, 80
10, 183840, Note_on_c, 4, 69, 80
10, 183944, Note_on_c, 4, 57, 0
10, 183944, Note_on_c, 4, 69, 0
10, 183960, Note_on_c, 4, 57, 80
10, 183960, Note_on_c, 4, 69, 80
10, 184064, Note_on_c, 4, 57, 0
10, 184064, Note_on_c, 4, 69, 0
10, 184080, Note_on_c, 4, 57, 80
10, 184080, Note_on_c, 4, 69, 80
10, 184184, Note_on_c, 4, 57, 0
10, 184184, Note_on_c, 4, 69, 0
10, 184200, Note_on_c, 4, 69, 80
10, 184200, Note_on_c, 4, 57, 80
10, 184304, Note_on_c, 4, 69, 0
10, 184304, Note_on_c, 4, 57, 0
10, 184320, Note_on_c, 4, 57, 80
10, 184320, Note_on_c, 4, 69, 80
10, 184424, Note_on_c, 4, 57, 0
10, 184424, Note_on_c, 4, 69, 0
10, 184440, Note_on_c, 4, 57, 80
10, 184440, Note_on_c, 4, 69, 80
10, 184544, Note_on_c, 4, 57, 0
10, 184544, Note_on_c, 4, 69, 0
10, 184560, Note_on_c, 4, 57, 80
10, 184560, Note_on_c, 4, 69, 80
10, 184664, Note_on_c, 4, 57, 0
10, 184664, Note_on_c, 4, 69, 0
10, 184680, Note_on_c, 4, 69, 80
10, 184680, Note_on_c, 4, 57, 80
10, 184784, Note_on_c, 4, 69, 0
10, 184784, Note_on_c, 4, 57, 0
10, 184800, Note_on_c, 4, 69, 80
10, 184800, Note_on_c, 4, 57, 80
10, 184904, Note_on_c, 4, 69, 0
10, 184904, Note_on_c, 4, 57, 0
10, 184920, Note_on_c, 4, 57, 80
10, 184920, Note_on_c, 4, 69, 80
10, 185024, Note_on_c, 4, 57, 0
10, 185024, Note_on_c, 4, 69, 0
10, 185040, Note_on_c, 4, 69, 80
10, 185040, Note_on_c, 4, 57, 80
10, 185144, Note_on_c, 4, 69, 0
10, 185144, Note_on_c, 4, 57, 0
10, 185160, Note_on_c, 4, 69, 80
10, 185160, Note_on_c, 4, 57, 80
10, 185264, Note_on_c, 4, 69, 0
10, 185264, Note_on_c, 4, 57, 0
10, 185280, Note_on_c, 4, 69, 80
10, 185280, Note_on_c, 4, 57, 80
10, 185384, Note_on_c, 4, 69, 0
10, 185384, Note_on_c, 4, 57, 0
10, 185400, Note_on_c, 4, 69, 80
10, 185400, Note_on_c, 4, 57, 80
10, 185504, Note_on_c, 4, 69, 0
10, 185504, Note_on_c, 4, 57, 0
10, 185520, Note_on_c, 4, 69, 80
10, 185520, Note_on_c, 4, 57, 80
10, 185624, Note_on_c, 4, 69, 0
10, 185624, Note_on_c, 4, 57, 0
10, 185640, Note_on_c, 4, 57, 80
10, 185640, Note_on_c, 4, 69, 80
10, 185744, Note_on_c, 4, 57, 0
10, 185744, Note_on_c, 4, 69, 0
10, 185760, Note_on_c, 4, 69, 80
10, 185760, Note_on_c, 4, 57, 80
10, 185864, Note_on_c, 4, 69, 0
10, 185864, Note_on_c, 4, 57, 0
10, 185880, Note_on_c, 4, 69, 80
10, 185880, Note_on_c, 4, 57, 80
10, 185984, Note_on_c, 4, 69, 0
10, 185984, Note_on_c, 4, 57, 0
10, 186000, Note_on_c, 4, 69, 80
10, 186000, Note_on_c, 4, 57, 80
10, 186104, Note_on_c, 4, 69, 0
10, 186104, Note_on_c, 4, 57, 0
10, 186120, Note_on_c, 4, 57, 80
10, 186120, Note_on_c, 4, 69, 80
10, 186224, Note_on_c, 4, 57, 0
10, 186224, Note_on_c, 4, 69, 0
10, 186240, Note_on_c, 4, 57, 80
10, 186240, Note_on_c, 4, 69, 80
10, 186344, Note_on_c, 4, 57, 0
10, 186344, Note_on_c, 4, 69, 0
10, 186360, Note_on_c, 4, 69, 80
10, 186360, Note_on_c, 4, 57, 80
10, 186464, Note_on_c, 4, 69, 0
10, 186464, Note_on_c, 4, 57, 0
10, 187920, Note_on_c, 4, 50, 32
10, 187920, Note_on_c, 4, 62, 32
10, 188084, Note_on_c, 4, 50, 0
10, 188084, Note_on_c, 4, 62, 0
10, 188100, Note_on_c, 4, 62, 32
10, 188100, Note_on_c, 4, 50, 32
10, 188144, Note_on_c, 4, 62, 0
10, 188144, Note_on_c, 4, 50, 0
10, 188160, Note_on_c, 4, 50, 32
10, 188160, Note_on_c, 4, 62, 32
10, 188264, Note_on_c, 4, 50, 0
10, 188264, Note_on_c, 4, 62, 0
10, 188280, Note_on_c, 4, 62, 32
10, 188280, Note_on_c, 4, 50, 32
10, 188399, Note_on_c, 4, 62, 0
10, 188399, Note_on_c, 4, 50, 0
10, 189000, Note_on_c, 4, 50, 32
10, 189000, Note_on_c, 4, 62, 32
10, 189164, Note_on_c, 4, 50, 0
10, 189164, Note_on_c, 4, 62, 0
10, 189180, Note_on_c, 4, 62, 32
10, 189180, Note_on_c, 4, 50, 32
10, 189224, Note_on_c, 4, 62, 0
10, 189224, Note_on_c, 4, 50, 0
10, 189240, Note_on_c, 4, 62, 32
10, 189240, Note_on_c, 4, 50, 32
10, 189344, Note_on_c, 4, 62, 0
10, 189344, Note_on_c, 4, 50, 0
10, 189360, Note_on_c, 4, 62, 32
10, 189360, Note_on_c, 4, 50, 32
10, 189479, Note_on_c, 4, 62, 0
10, 189479, Note_on_c, 4, 50, 0
10, 190800, Note_on_c, 4, 62, 32
10, 190800, Note_on_c, 4, 50, 32
10, 190964, Note_on_c, 4, 62, 0
10, 190964, Note_on_c, 4, 50, 0
10, 190980, Note_on_c, 4, 62, 32
10, 190980, Note_on_c, 4, 50, 32
10, 191024, Note_on_c, 4, 62, 0
10, 191024, Note_on_c, 4, 50, 0
10, 191040, Note_on_c, 4, 50, 32
10, 191040, Note_on_c, 4, 62, 32
10, 191144, Note_on_c, 4, 50, 0
10, 191144, Note_on_c, 4, 62, 0
10, 191160, Note_on_c, 4, 62, 32
10, 191160, Note_on_c, 4, 50, 32
10, 191279, Note_on_c, 4, 62, 0
10, 191279, Note_on_c, 4, 50, 0
10, 191520, Note_on_c, 4, 50, 32
10, 191520, Note_on_c, 4, 62, 32
10, 191684, Note_on_c, 4, 50, 0
10, 191684, Note_on_c, 4, 62, 0
10, 191700, Note_on_c, 4, 50, 32
10, 191700, Note_on_c, 4, 62, 32
10, 191744, Note_on_c, 4, 50, 0
10, 191744, Note_on_c, 4, 62, 0
10, 191760, Note_on_c, 4, 62, 32
10, 191760, Note_on_c, 4, 50, 32
10, 191864, Note_on_c, 4, 62, 0
10, 191864, Note_on_c, 4, 50, 0
10, 191880, Note_on_c, 4, 62, 32
10, 191880, Note_on_c, 4, 50, 32
10, 191999, Note_on_c, 4, 62, 0
10, 191999, Note_on_c, 4, 50, 0
10, 192240, Note_on_c, 4, 62, 32
10, 192240, Note_on_c, 4, 50, 32
10, 192404, Note_on_c, 4, 62, 0
10, 192404, Note_on_c, 4, 50, 0
10, 192420, Note_on_c, 4, 62, 32
10, 192420, Note_on_c, 4, 50, 32
10, 192464, Note_on_c, 4, 62, 0
10, 192464, Note_on_c, 4, 50, 0
10, 192480, Note_on_c, 4, 50, 32
10, 192480, Note_on_c, 4, 62, 32
10, 192584, Note_on_c, 4, 50, 0
10, 192584, Note_on_c, 4, 62, 0
10, 192600, Note_on_c, 4, 50, 32
10, 192600, Note_on_c, 4, 62, 32
10, 192719, Note_on_c, 4, 50, 0
10, 192719, Note_on_c, 4, 62, 0
10, 192960, Note_on_c, 4, 65, 32
10, 193124, Note_on_c, 4, 65, 0
10, 193140, Note_on_c, 4, 65, 32
10, 193184, Note_on_c, 4, 65, 0
10, 193200, Note_on_c, 4, 65, 32
10, 193304, Note_on_c, 4, 65, 0
10, 193320, Note_on_c, 4, 67, 32
10, 193439, Note_on_c, 4, 67, 0
10, 197280, Note_on_c, 4, 65, 56
10, 197280, Note_on_c, 4, 53, 56
10, 197444, Note_on_c, 4, 65, 0
10, 197444, Note_on_c, 4, 53, 0
10, 197460, Note_on_c, 4, 65, 58
10, 197460, Note_on_c, 4, 53, 58
10, 197504, Note_on_c, 4, 65, 0
10, 197504, Note_on_c, 4, 53, 0
10, 197520, Note_on_c, 4, 53, 58
10, 197520, Note_on_c, 4, 65, 58
10, 197624, Note_on_c, 4, 53, 0
10, 197624, Note_on_c, 4, 65, 0
10, 197640, Note_on_c, 4, 65, 60
10, 197640, Note_on_c, 4, 53, 60
10, 197759, Note_on_c, 4, 65, 0
10, 197759, Note_on_c, 4, 53, 0
10, 198720, Note_on_c, 4, 64, 72
10, 198884, Note_on_c, 4, 64, 0
10, 198900, Note_on_c, 4, 64, 74
10, 198944, Note_on_c, 4, 64, 0
10, 198960, Note_on_c, 4, 64, 74
10, 199064, Note_on_c, 4, 64, 0
10, 199080, Note_on_c, 4, 64, 76
10, 199199, Note_on_c, 4, 64, 0
10, 199440, Note_on_c, 4, 69, 80
10, 199440, Note_on_c, 4, 57, 80
10, 199604, Note_on_c, 4, 69, 0
10, 199604, Note_on_c, 4, 57, 0
10, 199620, Note_on_c, 4, 57, 80
10, 199620, Note_on_c, 4, 45, 80
10, 199664, Note_on_c, 4, 57, 0
10, 199664, Note_on_c, 4, 45, 0
10, 199680, Note_on_c, 4, 57, 80
10, 199680, Note_on_c, 4, 45, 80
10, 199784, Note_on_c, 4, 57, 0
10, 199784, Note_on_c, 4, 45, 0
10, 215280, Note_on_c, 4, 62, 39
10, 215444, Note_on_c, 4, 62, 0
10, 215460, Note_on_c, 4, 50, 38
10, 215504, Note_on_c, 4, 50, 0
10, 215520, Note_on_c, 4, 50, 38
10, 215639, Note_on_c, 4, 50, 0
10, 216360, Note_on_c, 4, 69, 35
10, 216360, Note_on_c, 4, 57, 35
10, 216524, Note_on_c, 4, 69, 0
10, 216524, Note_on_c, 4, 57, 0
10, 216540, Note_on_c, 4, 57, 34
10, 216540, Note_on_c, 4, 45, 34
10, 216584, Note_on_c, 4, 57, 0
10, 216584, Note_on_c, 4, 45, 0
10, 216600, Note_on_c, 4, 45, 34
10, 216600, Note_on_c, 4, 57, 34
10, 216719, Note_on_c, 4, 45, 0
10, 216719, Note_on_c, 4, 57, 0
10, 217440, Note_on_c, 4, 57, 32
10, 217440, Note_on_c, 4, 69, 32
10, 217604, Note_on_c, 4, 57, 0
10, 217604, Note_on_c, 4, 69, 0
10, 217620, Note_on_c, 4, 45, 32
10, 217620, Note_on_c, 4, 57, 32
10, 217664, Note_on_c, 4, 45, 0
10, 217664, Note_on_c, 4, 57, 0
10, 217680, Note_on_c, 4, 45, 32
10, 217680, Note_on_c, 4, 57, 32
10, 217799, Note_on_c, 4, 45, 0
10, 217799, Note_on_c, 4, 57, 0
10, 218520, Note_on_c, 4, 57, 32
10, 218520, Note_on_c, 4, 69, 32
10, 218684, Note_on_c, 4, 57, 0
10, 218684, Note_on_c, 4, 69, 0
10, 218700, Note_on_c, 4, 57, 32
10, 218700, Note_on_c, 4, 45, 32
10, 218744, Note_on_c, 4, 57, 0
10, 218744, Note_on_c, 4, 45, 0
10, 218760, Note_on_c, 4, 45, 32
10, 218760, Note_on_c, 4, 57, 32
10, 218879, Note_on_c, 4, 45, 0
10, 218879, Note_on_c, 4, 57, 0
10, 219240, Note_on_c, 4, 57, 32
10, 219240, Note_on_c, 4, 69, 32
10, 219344, Note_on_c, 4, 57, 0
10, 219344, Note_on_c, 4, 69, 0
10, 219360, Note_on_c, 4, 69, 32
10, 219360, Note_on_c, 4, 57, 32
10, 219464, Note_on_c, 4, 69, 0
10, 219464, Note_on_c, 4, 57, 0
10, 219480, Note_on_c, 4, 57, 32
10, 219480, Note_on_c, 4, 69, 32
10, 219584, Note_on_c, 4, 57, 0
10, 219584, Note_on_c, 4, 69, 0
10, 219600, Note_on_c, 4, 57, 32
10, 219600, Note_on_c, 4, 69, 32
10, 219704, Note_on_c, 4, 57, 0
10, 219704, Note_on_c, 4, 69, 0
10, 219720, Note_on_c, 4, 57, 32
10, 219720, Note_on_c, 4, 69, 32
10, 219824, Note_on_c, 4, 57, 0
10, 219824, Note_on_c, 4, 69, 0
10, 219840, Note_on_c, 4, 57, 32
10, 219840, Note_on_c, 4, 69, 32
10, 219944, Note_on_c, 4, 57, 0
10, 219944, Note_on_c, 4, 69, 0
10, 219960, Note_on_c, 4, 69, 32
10, 219960, Note_on_c, 4, 57, 32
10, 220064, Note_on_c, 4, 69, 0
10, 220064, Note_on_c, 4, 57, 0
10, 220080, Note_on_c, 4, 69, 32
10, 220080, Note_on_c, 4, 57, 32
10, 220184, Note_on_c, 4, 69, 0
10, 220184, Note_on_c, 4, 57, 0
10, 220200, Note_on_c, 4, 57, 32
10, 220200, Note_on_c, 4, 69, 32
10, 220304, Note_on_c, 4, 57, 0
10, 220304, Note_on_c, 4, 69, 0
10, 220320, Note_on_c, 4, 57, 32
10, 220320, Note_on_c, 4, 69, 32
10, 220484, Note_on_c, 4, 57, 0
10, 220484, Note_on_c, 4, 69, 0
10, 220500, Note_on_c, 4, 45, 32
10, 220500, Note_on_c, 4, 57, 32
10, 220544, Note_on_c, 4, 45, 0
10, 220544, Note_on_c, 4, 57, 0
10, 220560, Note_on_c, 4, 45, 32
10, 220560, Note_on_c, 4, 57, 32
10, 220664, Note_on_c, 4, 45, 0
10, 220664, Note_on_c, 4, 57, 0
10, 220680, Note_on_c, 4, 57, 32
10, 220680, Note_on_c, 4, 45, 32
10, 220784, Note_on_c, 4, 57, 0
10, 220784, Note_on_c, 4, 45, 0
10, 220800, Note_on_c, 4, 57, 32
10, 220800, Note_on_c, 4, 45, 32
10, 220904, Note_on_c, 4, 57, 0
10, 220904, Note_on_c, 4, 45, 0
10, 220920, Note_on_c, 4, 57, 32
10, 220920, Note_on_c, 4, 45, 32
10, 221024, Note_on_c, 4, 57, 0
10, 221024, Note_on_c, 4, 45, 0
10, 221040, Note_on_c, 4, 45, 32
10, 221040, Note_on_c, 4, 57, 32
10, 221144, Note_on_c, 4, 45, 0
10, 221144, Note_on_c, 4, 57, 0
10, 221160, Note_on_c, 4, 45, 32
10, 221160, Note_on_c, 4, 57, 32
10, 221264, Note_on_c, 4, 45, 0
10, 221264, Note_on_c, 4, 57, 0
10, 221280, Note_on_c, 4, 45, 32
10, 221280, Note_on_c, 4, 57, 32
10, 221384, Note_on_c, 4, 45, 0
10, 221384, Note_on_c, 4, 57, 0
10, 221400, Note_on_c, 4, 45, 32
10, 221400, Note_on_c, 4, 57, 32
10, 221564, Note_on_c, 4, 45, 0
10, 221564, Note_on_c, 4, 57, 0
10, 221580, Note_on_c, 4, 57, 32
10, 221580, Note_on_c, 4, 69, 32
10, 221624, Note_on_c, 4, 57, 0
10, 221624, Note_on_c, 4, 69, 0
10, 221640, Note_on_c, 4, 69, 32
10, 221640, Note_on_c, 4, 57, 32
10, 221744, Note_on_c, 4, 69, 0
10, 221744, Note_on_c, 4, 57, 0
10, 221760, Note_on_c, 4, 57, 32
10, 221760, Note_on_c, 4, 69, 32
10, 221864, Note_on_c, 4, 57, 0
10, 221864, Note_on_c, 4, 69, 0
10, 221880, Note_on_c, 4, 57, 32
10, 221880, Note_on_c, 4, 69, 32
10, 221984, Note_on_c, 4, 57, 0
10, 221984, Note_on_c, 4, 69, 0
10, 222000, Note_on_c, 4, 69, 32
10, 222000, Note_on_c, 4, 57, 32
10, 222104, Note_on_c, 4, 69, 0
10, 222104, Note_on_c, 4, 57, 0
10, 222120, Note_on_c, 4, 69, 32
10, 222120, Note_on_c, 4, 57, 32
10, 222224, Note_on_c, 4, 69, 0
10, 222224, Note_on_c, 4, 57, 0
10, 222240, Note_on_c, 4, 57, 32
10, 222240, Note_on_c, 4, 69, 32
10, 222344, Note_on_c, 4, 57, 0
10, 222344, Note_on_c, 4, 69, 0
10, 222360, Note_on_c, 4, 69, 32
10, 222360, Note_on_c, 4, 57, 32
10, 222464, Note_on_c, 4, 69, 0
10, 222464, Note_on_c, 4, 57, 0
10, 222480, Note_on_c, 4, 57, 32
10, 222480, Note_on_c, 4, 69, 32
10, 222584, Note_on_c, 4, 57, 0
10, 222584, Note_on_c, 4, 69, 0
10, 222600, Note_on_c, 4, 57, 32
10, 222600, Note_on_c, 4, 69, 32
10, 222704, Note_on_c, 4, 57, 0
10, 222704, Note_on_c, 4, 69, 0
10, 222720, Note_on_c, 4, 57, 32
10, 222720, Note_on_c, 4, 69, 32
10, 222824, Note_on_c, 4, 57, 0
10, 222824, Note_on_c, 4, 69, 0
10, 222840, Note_on_c, 4, 57, 32
10, 222840, Note_on_c, 4, 69, 32
10, 222944, Note_on_c, 4, 57, 0
10, 222944, Note_on_c, 4, 69, 0
10, 222960, Note_on_c, 4, 69, 32
10, 222960, Note_on_c, 4, 57, 32
10, 223064, Note_on_c, 4, 69, 0
10, 223064, Note_on_c, 4, 57, 0
10, 223080, Note_on_c, 4, 69, 32
10, 223080, Note_on_c, 4, 57, 32
10, 223184, Note_on_c, 4, 69, 0
10, 223184, Note_on_c, 4, 57, 0
10, 223200, Note_on_c, 4, 57, 32
10, 223200, Note_on_c, 4, 69, 32
10, 223304, Note_on_c, 4, 57, 0
10, 223304, Note_on_c, 4, 69, 0
10, 223320, Note_on_c, 4, 57, 32
10, 223320, Note_on_c, 4, 69, 32
10, 223424, Note_on_c, 4, 57, 0
10, 223424, Note_on_c, 4, 69, 0
10, 223440, Note_on_c, 4, 57, 32
10, 223440, Note_on_c, 4, 69, 32
10, 223544, Note_on_c, 4, 57, 0
10, 223544, Note_on_c, 4, 69, 0
10, 223560, Note_on_c, 4, 57, 32
10, 223560, Note_on_c, 4, 69, 32
10, 223724, Note_on_c, 4, 57, 0
10, 223724, Note_on_c, 4, 69, 0
10, 223740, Note_on_c, 4, 57, 32
10, 223740, Note_on_c, 4, 45, 32
10, 223784, Note_on_c, 4, 57, 0
10, 223784, Note_on_c, 4, 45, 0
10, 223800, Note_on_c, 4, 57, 32
10, 223800, Note_on_c, 4, 45, 32
10, 223904, Note_on_c, 4, 57, 0
10, 223904, Note_on_c, 4, 45, 0
10, 223920, Note_on_c, 4, 50, 32
10, 223920, Note_on_c, 4, 62, 32
10, 224024, Note_on_c, 4, 50, 0
10, 224024, Note_on_c, 4, 62, 0
10, 224040, Note_on_c, 4, 67, 32
10, 224144, Note_on_c, 4, 67, 0
10, 224160, Note_on_c, 4, 67, 32
10, 224264, Note_on_c, 4, 67, 0
10, 224280, Note_on_c, 4, 67, 32
10, 224384, Note_on_c, 4, 67, 0
10, 224400, Note_on_c, 4, 67, 32
10, 224504, Note_on_c, 4, 67, 0
10, 224520, Note_on_c, 4, 67, 32
10, 224624, Note_on_c, 4, 67, 0
10, 224640, Note_on_c, 4, 67, 32
10, 224744, Note_on_c, 4, 67, 0
10, 224760, Note_on_c, 4, 67, 32
10, 224864, Note_on_c, 4, 67, 0
10, 224880, Note_on_c, 4, 67, 32
10, 224984, Note_on_c, 4, 67, 0
10, 225000, Note_on_c, 4, 67, 32
10, 225104, Note_on_c, 4, 67, 0
10, 225120, Note_on_c, 4, 67, 32
10, 225224, Note_on_c, 4, 67, 0
10, 225240, Note_on_c, 4, 67, 32
10, 225359, Note_on_c, 4, 67, 0
10, 228240, Note_on_c, 4, 62, 32
10, 228404, Note_on_c, 4, 62, 0
10, 228420, Note_on_c, 4, 50, 32
10, 228464, Note_on_c, 4, 50, 0
10, 228480, Note_on_c, 4, 50, 32
10, 228584, Note_on_c, 4, 50, 0
10, 231120, Note_on_c, 4, 62, 44
10, 231284, Note_on_c, 4, 62, 0
10, 231300, Note_on_c, 4, 50, 47
10, 231344, Note_on_c, 4, 50, 0
10, 231360, Note_on_c, 4, 50, 48
10, 231464, Note_on_c, 4, 50, 0
10, 232200, Note_on_c, 4, 57, 62
10, 232364, Note_on_c, 4, 57, 0
10, 232380, Note_on_c, 4, 45, 65
10, 232380, Note_on_c, 4, 57, 65
10, 232424, Note_on_c, 4, 45, 0
10, 232424, Note_on_c, 4, 57, 0
10, 232440, Note_on_c, 4, 45, 66
10, 232440, Note_on_c, 4, 57, 66
10, 232544, Note_on_c, 4, 45, 0
10, 232544, Note_on_c, 4, 57, 0
10, 232560, Note_on_c, 4, 62, 68
10, 232724, Note_on_c, 4, 62, 0
10, 232740, Note_on_c, 4, 50, 71
10, 232784, Note_on_c, 4, 50, 0
10, 232800, Note_on_c, 4, 50, 72
10, 232904, Note_on_c, 4, 50, 0
10, 233280, Note_on_c, 4, 69, 80
10, 233444, Note_on_c, 4, 69, 0
10, 233460, Note_on_c, 4, 57, 80
10, 233504, Note_on_c, 4, 57, 0
10, 233520, Note_on_c, 4, 57, 80
10, 233624, Note_on_c, 4, 57, 0
10, 233640, Note_on_c, 4, 69, 80
10, 233804, Note_on_c, 4, 69, 0
10, 233820, Note_on_c, 4, 57, 80
10, 233864, Note_on_c, 4, 57, 0
10, 233880, Note_on_c, 4, 57, 80
10, 233984, Note_on_c, 4, 57, 0
10, 234000, Note_on_c, 4, 69, 86
10, 234164, Note_on_c, 4, 69, 0
10, 234180, Note_on_c, 4, 57, 86
10, 234224, Note_on_c, 4, 57, 0
10, 234240, Note_on_c, 4, 57, 86
10, 234344, Note_on_c, 4, 57, 0
10, 234360, Note_on_c, 4, 69, 86
10, 234524, Note_on_c, 4, 69, 0
10, 234540, Note_on_c, 4, 57, 86
10, 234584, Note_on_c, 4, 57, 0
10, 234600, Note_on_c, 4, 57, 86
10, 234704, Note_on_c, 4, 57, 0
10, 234720, Note_on_c, 4, 69, 92
10, 234884, Note_on_c, 4, 69, 0
10, 234900, Note_on_c, 4, 57, 92
10, 234944, Note_on_c, 4, 57, 0
10, 234960, Note_on_c, 4, 57, 92
10, 235064, Note_on_c, 4, 57, 0
10, 235080, Note_on_c, 4, 69, 92
10, 235244, Note_on_c, 4, 69, 0
10, 235260, Note_on_c, 4, 57, 92
10, 235304, Note_on_c, 4, 57, 0
10, 235320, Note_on_c, 4, 57, 92
10, 235424, Note_on_c, 4, 57, 0
10, 235440, Note_on_c, 4, 69, 92
10, 235604, Note_on_c, 4, 69, 0
10, 235620, Note_on_c, 4, 57, 92
10, 235664, Note_on_c, 4, 57, 0
10, 235680, Note_on_c, 4, 57, 92
10, 235784, Note_on_c, 4, 57, 0
10, 235800, Note_on_c, 4, 69, 92
10, 235964, Note_on_c, 4, 69, 0
10, 235980, Note_on_c, 4, 57, 92
10, 236024, Note_on_c, 4, 57, 0
10, 236040, Note_on_c, 4, 57, 92
10, 236144, Note_on_c, 4, 57, 0
10, 236160, Note_on_c, 4, 69, 92
10, 236324, Note_on_c, 4, 69, 0
10, 236340, Note_on_c, 4, 57, 92
10, 236384, Note_on_c, 4, 57, 0
10, 236400, Note_on_c, 4, 57, 92
10, 236504, Note_on_c, 4, 57, 0
10, 236520, Note_on_c, 4, 69, 92
10, 236684, Note_on_c, 4, 69, 0
10, 236700, Note_on_c, 4, 57, 92
10, 236744, Note_on_c, 4, 57, 0
10, 236760, Note_on_c, 4, 57, 92
10, 236864, Note_on_c, 4, 57, 0
10, 236880, Note_on_c, 4, 69, 92
10, 237044, Note_on_c, 4, 69, 0
10, 237060, Note_on_c, 4, 57, 92
10, 237104, Note_on_c, 4, 57, 0
10, 237120, Note_on_c, 4, 57, 92
10, 237224, Note_on_c, 4, 57, 0
10, 237240, Note_on_c, 4, 69, 92
10, 237404, Note_on_c, 4, 69, 0
10, 237420, Note_on_c, 4, 57, 92
10, 237464, Note_on_c, 4, 57, 0
10, 237480, Note_on_c, 4, 57, 92
10, 237584, Note_on_c, 4, 57, 0
10, 237600, Note_on_c, 4, 69, 92
10, 237764, Note_on_c, 4, 69, 0
10, 237780, Note_on_c, 4, 57, 92
10, 237824, Note_on_c, 4, 57, 0
10, 237840, Note_on_c, 4, 57, 92
10, 237944, Note_on_c, 4, 57, 0
10, 237960, Note_on_c, 4, 69, 92
10, 238124, Note_on_c, 4, 69, 0
10, 238140, Note_on_c, 4, 57, 92
10, 238184, Note_on_c, 4, 57, 0
10, 238200, Note_on_c, 4, 57, 92
10, 238304, Note_on_c, 4, 57, 0
10, 238320, Note_on_c, 4, 69, 92
10, 238484, Note_on_c, 4, 69, 0
10, 238500, Note_on_c, 4, 57, 92
10, 238544, Note_on_c, 4, 57, 0
10, 238560, Note_on_c, 4, 57, 92
10, 238664, Note_on_c, 4, 57, 0
10, 238680, Note_on_c, 4, 69, 92
10, 238844, Note_on_c, 4, 69, 0
10, 238860, Note_on_c, 4, 57, 92
10, 238904, Note_on_c, 4, 57, 0
10, 238920, Note_on_c, 4, 57, 92
10, 239024, Note_on_c, 4, 57, 0
10, 239040, Note_on_c, 4, 69, 92
10, 239204, Note_on_c, 4, 69, 0
10, 239220, Note_on_c, 4, 57, 92
10, 239264, Note_on_c, 4, 57, 0
10, 239280, Note_on_c, 4, 57, 92
10, 239384, Note_on_c, 4, 57, 0
10, 239400, Note_on_c, 4, 69, 92
10, 239564, Note_on_c, 4, 69, 0
10, 239580, Note_on_c, 4, 57, 92
10, 239624, Note_on_c, 4, 57, 0
10, 239640, Note_on_c, 4, 57, 92
10, 239744, Note_on_c, 4, 57, 0
10, 239760, Note_on_c, 4, 69, 92
10, 239924, Note_on_c, 4, 69, 0
10, 239940, Note_on_c, 4, 57, 92
10, 239984, Note_on_c, 4, 57, 0
10, 240000, Note_on_c, 4, 57, 92
10, 240104, Note_on_c, 4, 57, 0
10, 240120, Note_on_c, 4, 69, 92
10, 240284, Note_on_c, 4, 69, 0
10, 240300, Note_on_c, 4, 57, 92
10, 240344, Note_on_c, 4, 57, 0
10, 240360, Note_on_c, 4, 57, 92
10, 240464, Note_on_c, 4, 57, 0
10, 240480, Note_on_c, 4, 67, 92
10, 240584, Note_on_c, 4, 67, 0
10, 240600, Note_on_c, 4, 67, 92
10, 240704, Note_on_c, 4, 67, 0
10, 240720, Note_on_c, 4, 67, 92
10, 240824, Note_on_c, 4, 67, 0
10, 240840, Note_on_c, 4, 62, 92
10, 241004, Note_on_c, 4, 62, 0
10, 241020, Note_on_c, 4, 50, 92
10, 241064, Note_on_c, 4, 50, 0
10, 241080, Note_on_c, 4, 50, 92
10, 241184, Note_on_c, 4, 50, 0
10, 241200, Note_on_c, 4, 62, 92
10, 241364, Note_on_c, 4, 62, 0
10, 241380, Note_on_c, 4, 50, 92
10, 241424, Note_on_c, 4, 50, 0
10, 241440, Note_on_c, 4, 50, 92
10, 241544, Note_on_c, 4, 50, 0
10, 241560, Note_on_c, 4, 62, 92
10, 241724, Note_on_c, 4, 62, 0
10, 241740, Note_on_c, 4, 50, 92
10, 241784, Note_on_c, 4, 50, 0
10, 241800, Note_on_c, 4, 50, 92
10, 241904, Note_on_c, 4, 50, 0
10, 241920, Note_on_c, 4, 67, 80
10, 242024, Note_on_c, 4, 67, 0
10, 242040, Note_on_c, 4, 67, 80
10, 242144, Note_on_c, 4, 67, 0
10, 242160, Note_on_c, 4, 67, 80
10, 242264, Note_on_c, 4, 67, 0
10, 242280, Note_on_c, 4, 67, 80
10, 242384, Note_on_c, 4, 67, 0
10, 242400, Note_on_c, 4, 67, 80
10, 242504, Note_on_c, 4, 67, 0
10, 242520, Note_on_c, 4, 67, 80
10, 242624, Note_on_c, 4, 67, 0
10, 242640, Note_on_c, 4, 65, 80
10, 242744, Note_on_c, 4, 65, 0
10, 242760, Note_on_c, 4, 65, 80
10, 242864, Note_on_c, 4, 65, 0
10, 242880, Note_on_c, 4, 65, 80
10, 242984, Note_on_c, 4, 65, 0
10, 243000, Note_on_c, 4, 65, 80
10, 243104, Note_on_c, 4, 65, 0
10, 243120, Note_on_c, 4, 65, 80
10, 243224, Note_on_c, 4, 65, 0
10, 243240, Note_on_c, 4, 65, 80
10, 243344, Note_on_c, 4, 65, 0
10, 243360, Note_on_c, 4, 65, 80
10, 243464, Note_on_c, 4, 65, 0
10, 243480, Note_on_c, 4, 65, 80
10, 243584, Note_on_c, 4, 65, 0
10, 243600, Note_on_c, 4, 65, 80
10, 243704, Note_on_c, 4, 65, 0
10, 243720, Note_on_c, 4, 65, 80
10, 243824, Note_on_c, 4, 65, 0
10, 243840, Note_on_c, 4, 65, 80
10, 243944, Note_on_c, 4, 65, 0
10, 243960, Note_on_c, 4, 65, 80
10, 244064, Note_on_c, 4, 65, 0
10, 244080, Note_on_c, 4, 65, 80
10, 244184, Note_on_c, 4, 65, 0
10, 244200, Note_on_c, 4, 65, 80
10, 244304, Note_on_c, 4, 65, 0
10, 244320, Note_on_c, 4, 65, 80
10, 244424, Note_on_c, 4, 65, 0
10, 244440, Note_on_c, 4, 65, 80
10, 244544, Note_on_c, 4, 65, 0
10, 244560, Note_on_c, 4, 65, 80
10, 244664, Note_on_c, 4, 65, 0
10, 244680, Note_on_c, 4, 65, 80
10, 244784, Note_on_c, 4, 65, 0
10, 244800, Note_on_c, 4, 65, 80
10, 244919, Note_on_c, 4, 65, 0
10, 248040, Control_c, 4, 11, 87
10, 248400, Note_on_c, 4, 45, 68
10, 248400, Note_on_c, 4, 57, 68
10, 248760, Control_c, 4, 11, 87
10, 248796, Control_c, 4, 11, 88
10, 248832, Control_c, 4, 11, 89
10, 248868, Control_c, 4, 11, 90
10, 248904, Control_c, 4, 11, 91
10, 248940, Control_c, 4, 11, 92
10, 248976, Control_c, 4, 11, 93
10, 249012, Control_c, 4, 11, 94
10, 249048, Control_c, 4, 11, 95
10, 249084, Control_c, 4, 11, 96
10, 249120, Control_c, 4, 11, 97
10, 249156, Control_c, 4, 11, 98
10, 249192, Control_c, 4, 11, 99
10, 249228, Control_c, 4, 11, 100
10, 249264, Control_c, 4, 11, 101
10, 249300, Control_c, 4, 11, 102
10, 249336, Control_c, 4, 11, 103
10, 249372, Control_c, 4, 11, 104
10, 249408, Control_c, 4, 11, 105
10, 249444, Control_c, 4, 11, 106
10, 249480, Control_c, 4, 11, 107
10, 249516, Control_c, 4, 11, 108
10, 249552, Control_c, 4, 11, 109
10, 249588, Control_c, 4, 11, 110
10, 249624, Control_c, 4, 11, 111
10, 249660, Control_c, 4, 11, 112
10, 249696, Control_c, 4, 11, 113
10, 249732, Control_c, 4, 11, 114
10, 249768, Control_c, 4, 11, 115
10, 249804, Control_c, 4, 11, 116
10, 249840, Control_c, 4, 11, 117
10, 249876, Control_c, 4, 11, 118
10, 249912, Control_c, 4, 11, 119
10, 249948, Control_c, 4, 11, 120
10, 249984, Control_c, 4, 11, 121
10, 250020, Control_c, 4, 11, 122
10, 250056, Control_c, 4, 11, 123
10, 250092, Control_c, 4, 11, 124
10, 250128, Control_c, 4, 11, 125
10, 250164, Control_c, 4, 11, 126
10, 250200, Control_c, 4, 11, 127
10, 250230, Control_c, 4, 11, 126
10, 250260, Control_c, 4, 11, 125
10, 250290, Control_c, 4, 11, 124
10, 250320, Control_c, 4, 11, 123
10, 250350, Control_c, 4, 11, 121
10, 250380, Control_c, 4, 11, 120
10, 250410, Control_c, 4, 11, 119
10, 250440, Control_c, 4, 11, 118
10, 250470, Control_c, 4, 11, 117
10, 250500, Control_c, 4, 11, 116
10, 250530, Control_c, 4, 11, 115
10, 250560, Control_c, 4, 11, 114
10, 250590, Control_c, 4, 11, 113
10, 250620, Control_c, 4, 11, 111
10, 250650, Control_c, 4, 11, 110
10, 250680, Control_c, 4, 11, 109
10, 250710, Control_c, 4, 11, 108
10, 250740, Control_c, 4, 11, 107
10, 250770, Control_c, 4, 11, 106
10, 250800, Control_c, 4, 11, 105
10, 250830, Control_c, 4, 11, 104
10, 250860, Control_c, 4, 11, 103
10, 250890, Control_c, 4, 11, 101
10, 250920, Control_c, 4, 11, 100
10, 250950, Control_c, 4, 11, 99
10, 250980, Control_c, 4, 11, 98
10, 251010, Control_c, 4, 11, 97
10, 251040, Control_c, 4, 11, 96
10, 251070, Control_c, 4, 11, 95
10, 251100, Control_c, 4, 11, 94
10, 251130, Control_c, 4, 11, 93
10, 251160, Control_c, 4, 11, 91
10, 251190, Control_c, 4, 11, 90
10, 251220, Control_c, 4, 11, 89
10, 251250, Control_c, 4, 11, 87
10, 251264, Note_on_c, 4, 45, 0
10, 251264, Note_on_c, 4, 57, 0
10, 251280, Note_on_c, 4, 57, 68
10, 251280, Note_on_c, 4, 45, 68
10, 251640, Control_c, 4, 11, 87
10, 251676, Control_c, 4, 11, 88
10, 251712, Control_c, 4, 11, 89
10, 251748, Control_c, 4, 11, 90
10, 251784, Control_c, 4, 11, 91
10, 251820, Control_c, 4, 11, 92
10, 251856, Control_c, 4, 11, 93
10, 251892, Control_c, 4, 11, 94
10, 251928, Control_c, 4, 11, 95
10, 251964, Control_c, 4, 11, 96
10, 252000, Control_c, 4, 11, 97
10, 252036, Control_c, 4, 11, 98
10, 252072, Control_c, 4, 11, 99
10, 252108, Control_c, 4, 11, 100
10, 252144, Control_c, 4, 11, 101
10, 252180, Control_c, 4, 11, 102
10, 252216, Control_c, 4, 11, 103
10, 252252, Control_c, 4, 11, 104
10, 252288, Control_c, 4, 11, 105
10, 252324, Control_c, 4, 11, 106
10, 252360, Control_c, 4, 11, 107
10, 252396, Control_c, 4, 11, 108
10, 252432, Control_c, 4, 11, 109
10, 252468, Control_c, 4, 11, 110
10, 252504, Control_c, 4, 11, 111
10, 252540, Control_c, 4, 11, 112
10, 252576, Control_c, 4, 11, 113
10, 252612, Control_c, 4, 11, 114
10, 252648, Control_c, 4, 11, 115
10, 252684, Control_c, 4, 11, 116
10, 252720, Control_c, 4, 11, 117
10, 252756, Control_c, 4, 11, 118
10, 252792, Control_c, 4, 11, 119
10, 252828, Control_c, 4, 11, 120
10, 252864, Control_c, 4, 11, 121
10, 252900, Control_c, 4, 11, 122
10, 252936, Control_c, 4, 11, 123
10, 252972, Control_c, 4, 11, 124
10, 253008, Control_c, 4, 11, 125
10, 253044, Control_c, 4, 11, 126
10, 253080, Control_c, 4, 11, 127
10, 253110, Control_c, 4, 11, 126
10, 253140, Control_c, 4, 11, 125
10, 253170, Control_c, 4, 11, 124
10, 253200, Control_c, 4, 11, 123
10, 253230, Control_c, 4, 11, 121
10, 253260, Control_c, 4, 11, 120
10, 253290, Control_c, 4, 11, 119
10, 253320, Control_c, 4, 11, 118
10, 253350, Control_c, 4, 11, 117
10, 253380, Control_c, 4, 11, 116
10, 253410, Control_c, 4, 11, 115
10, 253440, Control_c, 4, 11, 114
10, 253470, Control_c, 4, 11, 113
10, 253500, Control_c, 4, 11, 111
10, 253530, Control_c, 4, 11, 110
10, 253560, Control_c, 4, 11, 109
10, 253590, Control_c, 4, 11, 108
10, 253620, Control_c, 4, 11, 107
10, 253650, Control_c, 4, 11, 106
10, 253680, Control_c, 4, 11, 105
10, 253710, Control_c, 4, 11, 104
10, 253740, Control_c, 4, 11, 103
10, 253770, Control_c, 4, 11, 101
10, 253800, Control_c, 4, 11, 100
10, 253830, Control_c, 4, 11, 99
10, 253860, Control_c, 4, 11, 98
10, 253890, Control_c, 4, 11, 97
10, 253920, Control_c, 4, 11, 96
10, 253950, Control_c, 4, 11, 95
10, 253980, Control_c, 4, 11, 94
10, 254010, Control_c, 4, 11, 93
10, 254040, Control_c, 4, 11, 91
10, 254070, Control_c, 4, 11, 90
10, 254100, Control_c, 4, 11, 89
10, 254130, Control_c, 4, 11, 87
10, 254144, Note_on_c, 4, 57, 0
10, 254144, Note_on_c, 4, 45, 0
10, 254158, Control_c, 4, 11, 47
10, 254160, Note_on_c, 4, 57, 92
10, 254160, Note_on_c, 4, 69, 92
10, 254160, Control_c, 4, 11, 47
10, 254196, Control_c, 4, 11, 48
10, 254232, Control_c, 4, 11, 49
10, 254268, Control_c, 4, 11, 50
10, 254304, Control_c, 4, 11, 51
10, 254324, Note_on_c, 4, 57, 0
10, 254324, Note_on_c, 4, 69, 0
10, 254340, Control_c, 4, 11, 52
10, 254340, Note_on_c, 4, 57, 92
10, 254340, Note_on_c, 4, 45, 92
10, 254376, Control_c, 4, 11, 53
10, 254384, Note_on_c, 4, 57, 0
10, 254384, Note_on_c, 4, 45, 0
10, 254400, Note_on_c, 4, 45, 92
10, 254400, Note_on_c, 4, 57, 92
10, 254412, Control_c, 4, 11, 54
10, 254448, Control_c, 4, 11, 55
10, 254484, Control_c, 4, 11, 56
10, 254504, Note_on_c, 4, 45, 0
10, 254504, Note_on_c, 4, 57, 0
10, 254520, Control_c, 4, 11, 57
10, 254520, Note_on_c, 4, 69, 92
10, 254520, Note_on_c, 4, 57, 92
10, 254556, Control_c, 4, 11, 58
10, 254592, Control_c, 4, 11, 59
10, 254628, Control_c, 4, 11, 60
10, 254664, Control_c, 4, 11, 61
10, 254684, Note_on_c, 4, 69, 0
10, 254684, Note_on_c, 4, 57, 0
10, 254700, Control_c, 4, 11, 62
10, 254700, Note_on_c, 4, 45, 92
10, 254700, Note_on_c, 4, 57, 92
10, 254736, Control_c, 4, 11, 63
10, 254744, Note_on_c, 4, 45, 0
10, 254744, Note_on_c, 4, 57, 0
10, 254760, Note_on_c, 4, 45, 92
10, 254760, Note_on_c, 4, 57, 92
10, 254772, Control_c, 4, 11, 64
10, 254808, Control_c, 4, 11, 65
10, 254844, Control_c, 4, 11, 66
10, 254864, Note_on_c, 4, 45, 0
10, 254864, Note_on_c, 4, 57, 0
10, 254880, Control_c, 4, 11, 67
10, 254916, Control_c, 4, 11, 68
10, 254952, Control_c, 4, 11, 69
10, 254988, Control_c, 4, 11, 70
10, 255024, Control_c, 4, 11, 71
10, 255060, Control_c, 4, 11, 72
10, 255060, Note_on_c, 4, 65, 92
10, 255096, Control_c, 4, 11, 73
10, 255104, Note_on_c, 4, 65, 0
10, 255120, Note_on_c, 4, 65, 92
10, 255132, Control_c, 4, 11, 74
10, 255168, Control_c, 4, 11, 75
10, 255204, Control_c, 4, 11, 76
10, 255224, Note_on_c, 4, 65, 0
10, 255240, Control_c, 4, 11, 77
10, 255276, Control_c, 4, 11, 78
10, 255312, Control_c, 4, 11, 79
10, 255348, Control_c, 4, 11, 80
10, 255384, Control_c, 4, 11, 81
10, 255420, Control_c, 4, 11, 82
10, 255420, Note_on_c, 4, 67, 92
10, 255420, Note_on_c, 4, 64, 92
10, 255456, Control_c, 4, 11, 83
10, 255464, Note_on_c, 4, 67, 0
10, 255464, Note_on_c, 4, 64, 0
10, 255480, Note_on_c, 4, 64, 92
10, 255480, Note_on_c, 4, 67, 92
10, 255492, Control_c, 4, 11, 84
10, 255528, Control_c, 4, 11, 85
10, 255564, Control_c, 4, 11, 86
10, 255584, Note_on_c, 4, 64, 0
10, 255584, Note_on_c, 4, 67, 0
10, 255600, Control_c, 4, 11, 87
10, 255636, Control_c, 4, 11, 88
10, 255672, Control_c, 4, 11, 89
10, 255708, Control_c, 4, 11, 90
10, 255744, Control_c, 4, 11, 91
10, 255780, Note_on_c, 4, 64, 92
10, 255780, Note_on_c, 4, 57, 92
10, 255780, Control_c, 4, 11, 92
10, 255816, Control_c, 4, 11, 93
10, 255824, Note_on_c, 4, 64, 0
10, 255824, Note_on_c, 4, 57, 0
10, 255840, Note_on_c, 4, 64, 92
10, 255840, Note_on_c, 4, 57, 92
10, 255852, Control_c, 4, 11, 94
10, 255888, Control_c, 4, 11, 95
10, 255924, Control_c, 4, 11, 96
10, 255944, Note_on_c, 4, 64, 0
10, 255944, Note_on_c, 4, 57, 0
10, 255960, Control_c, 4, 11, 97
10, 255996, Control_c, 4, 11, 98
10, 256032, Control_c, 4, 11, 99
10, 256068, Control_c, 4, 11, 100
10, 256104, Control_c, 4, 11, 101
10, 256140, Note_on_c, 4, 65, 92
10, 256140, Control_c, 4, 11, 102
10, 256140, Note_on_c, 4, 62, 92
10, 256176, Control_c, 4, 11, 103
10, 256184, Note_on_c, 4, 65, 0
10, 256184, Note_on_c, 4, 62, 0
10, 256200, Note_on_c, 4, 62, 92
10, 256200, Note_on_c, 4, 65, 92
10, 256212, Control_c, 4, 11, 104
10, 256248, Control_c, 4, 11, 105
10, 256284, Control_c, 4, 11, 106
10, 256304, Note_on_c, 4, 62, 0
10, 256304, Note_on_c, 4, 65, 0
10, 256320, Control_c, 4, 11, 107
10, 256356, Control_c, 4, 11, 108
10, 256392, Control_c, 4, 11, 109
10, 256428, Control_c, 4, 11, 110
10, 256464, Control_c, 4, 11, 111
10, 256500, Note_on_c, 4, 57, 92
10, 256500, Note_on_c, 4, 69, 92
10, 256500, Control_c, 4, 11, 112
10, 256536, Control_c, 4, 11, 113
10, 256544, Note_on_c, 4, 57, 0
10, 256544, Note_on_c, 4, 69, 0
10, 256560, Note_on_c, 4, 57, 92
10, 256560, Note_on_c, 4, 69, 92
10, 256572, Control_c, 4, 11, 114
10, 256608, Control_c, 4, 11, 115
10, 256644, Control_c, 4, 11, 116
10, 256664, Note_on_c, 4, 57, 0
10, 256664, Note_on_c, 4, 69, 0
10, 256680, Control_c, 4, 11, 117
10, 256716, Control_c, 4, 11, 118
10, 256752, Control_c, 4, 11, 119
10, 256788, Control_c, 4, 11, 120
10, 256824, Control_c, 4, 11, 121
10, 256860, Note_on_c, 4, 57, 92
10, 256860, Note_on_c, 4, 69, 92
10, 256860, Control_c, 4, 11, 122
10, 256896, Control_c, 4, 11, 123
10, 256904, Note_on_c, 4, 57, 0
10, 256904, Note_on_c, 4, 69, 0
10, 256920, Note_on_c, 4, 69, 92
10, 256920, Note_on_c, 4, 57, 92
10, 256932, Control_c, 4, 11, 124
10, 256968, Control_c, 4, 11, 125
10, 257004, Control_c, 4, 11, 127
10, 257024, Note_on_c, 4, 69, 0
10, 257024, Note_on_c, 4, 57, 0
10, 257040, Note_on_c, 4, 50, 92
10, 257040, Note_on_c, 4, 62, 92
10, 257384, Note_on_c, 4, 50, 0
10, 257384, Note_on_c, 4, 62, 0
10, 257400, Note_on_c, 4, 50, 92
10, 257400, Note_on_c, 4, 62, 92
10, 257519, Note_on_c, 4, 50, 0
10, 257519, Note_on_c, 4, 62, 0
10, 257640, Note_on_c, 4, 62, 92
10, 257640, Note_on_c, 4, 50, 92
10, 257744, Note_on_c, 4, 62, 0
10, 257744, Note_on_c, 4, 50, 0
10, 257760, Note_on_c, 4, 50, 92
10, 257760, Note_on_c, 4, 62, 92
10, 257879, Note_on_c, 4, 50, 0
10, 257879, Note_on_c, 4, 62, 0
10, 258000, Note_on_c, 4, 62, 92
10, 258000, Note_on_c, 4, 50, 92
10, 258104, Note_on_c, 4, 62, 0
10, 258104, Note_on_c, 4, 50, 0
10, 258120, Note_on_c, 4, 62, 92
10, 258120, Note_on_c, 4, 50, 92
10, 258239, Note_on_c, 4, 62, 0
10, 258239, Note_on_c, 4, 50, 0
10, 258360, Note_on_c, 4, 50, 92
10, 258360, Note_on_c, 4, 62, 92
10, 258464, Note_on_c, 4, 50, 0
10, 258464, Note_on_c, 4, 62, 0
10, 258480, Note_on_c, 4, 50, 92
10, 258480, Note_on_c, 4, 62, 92
10, 258824, Note_on_c, 4, 50, 0
10, 258824, Note_on_c, 4, 62, 0
10, 258840, Note_on_c, 4, 50, 92
10, 258840, Note_on_c, 4, 62, 92
10, 258959, Note_on_c, 4, 50, 0
10, 258959, Note_on_c, 4, 62, 0
10, 259080, Note_on_c, 4, 50, 92
10, 259080, Note_on_c, 4, 62, 92
10, 259184, Note_on_c, 4, 50, 0
10, 259184, Note_on_c, 4, 62, 0
10, 259200, Note_on_c, 4, 62, 92
10, 259200, Note_on_c, 4, 50, 92
10, 259319, Note_on_c, 4, 62, 0
10, 259319, Note_on_c, 4, 50, 0
10, 259440, Note_on_c, 4, 62, 92
10, 259440, Note_on_c, 4, 50, 92
10, 259544, Note_on_c, 4, 62, 0
10, 259544, Note_on_c, 4, 50, 0
10, 259560, Note_on_c, 4, 50, 92
10, 259560, Note_on_c, 4, 62, 92
10, 259679, Note_on_c, 4, 50, 0
10, 259679, Note_on_c, 4, 62, 0
10, 259800, Note_on_c, 4, 62, 92
10, 259800, Note_on_c, 4, 50, 92
10, 259904, Note_on_c, 4, 62, 0
10, 259904, Note_on_c, 4, 50, 0
10, 259920, Note_on_c, 4, 62, 92
10, 259920, Note_on_c, 4, 50, 92
10, 260024, Note_on_c, 4, 62, 0
10, 260024, Note_on_c, 4, 50, 0
10, 260040, Note_on_c, 4, 50, 92
10, 260040, Note_on_c, 4, 62, 92
10, 260144, Note_on_c, 4, 50, 0
10, 260144, Note_on_c, 4, 62, 0
10, 260160, Note_on_c, 4, 62, 92
10, 260160, Note_on_c, 4, 50, 92
10, 260264, Note_on_c, 4, 62, 0
10, 260264, Note_on_c, 4, 50, 0
10, 260280, Note_on_c, 4, 50, 92
10, 260280, Note_on_c, 4, 62, 92
10, 260384, Note_on_c, 4, 50, 0
10, 260384, Note_on_c, 4, 62, 0
10, 260400, Note_on_c, 4, 62, 92
10, 260400, Note_on_c, 4, 50, 92
10, 260504, Note_on_c, 4, 62, 0
10, 260504, Note_on_c, 4, 50, 0
10, 260520, Note_on_c, 4, 62, 92
10, 260520, Note_on_c, 4, 50, 92
10, 260624, Note_on_c, 4, 62, 0
10, 260624, Note_on_c, 4, 50, 0
10, 260640, Note_on_c, 4, 50, 92
10, 260640, Note_on_c, 4, 62, 92
10, 260744, Note_on_c, 4, 50, 0
10, 260744, Note_on_c, 4, 62, 0
10, 260760, Note_on_c, 4, 50, 92
10, 260760, Note_on_c, 4, 62, 92
10, 260864, Note_on_c, 4, 50, 0
10, 260864, Note_on_c, 4, 62, 0
10, 260880, Note_on_c, 4, 50, 92
10, 260880, Note_on_c, 4, 62, 92
10, 260984, Note_on_c, 4, 50, 0
10, 260984, Note_on_c, 4, 62, 0
10, 261000, Note_on_c, 4, 62, 92
10, 261000, Note_on_c, 4, 50, 92
10, 261104, Note_on_c, 4, 62, 0
10, 261104, Note_on_c, 4, 50, 0
10, 261120, Note_on_c, 4, 62, 92
10, 261120, Note_on_c, 4, 50, 92
10, 261224, Note_on_c, 4, 62, 0
10, 261224, Note_on_c, 4, 50, 0
10, 261240, Note_on_c, 4, 62, 92
10, 261240, Note_on_c, 4, 50, 92
10, 261344, Note_on_c, 4, 62, 0
10, 261344, Note_on_c, 4, 50, 0
10, 261360, Note_on_c, 4, 50, 92
10, 261360, Note_on_c, 4, 62, 92
10, 261464, Note_on_c, 4, 50, 0
10, 261464, Note_on_c, 4, 62, 0
10, 261480, Note_on_c, 4, 62, 92
10, 261480, Note_on_c, 4, 50, 92
10, 261584, Note_on_c, 4, 62, 0
10, 261584, Note_on_c, 4, 50, 0
10, 261600, Note_on_c, 4, 50, 92
10, 261600, Note_on_c, 4, 62, 92
10, 261704, Note_on_c, 4, 50, 0
10, 261704, Note_on_c, 4, 62, 0
10, 261720, Note_on_c, 4, 62, 92
10, 261720, Note_on_c, 4, 50, 92
10, 261824, Note_on_c, 4, 62, 0
10, 261824, Note_on_c, 4, 50, 0
10, 261840, Note_on_c, 4, 62, 92
10, 261840, Note_on_c, 4, 50, 92
10, 261944, Note_on_c, 4, 62, 0
10, 261944, Note_on_c, 4, 50, 0
10, 261960, Note_on_c, 4, 62, 92
10, 261960, Note_on_c, 4, 50, 92
10, 262064, Note_on_c, 4, 62, 0
10, 262064, Note_on_c, 4, 50, 0
10, 262080, Note_on_c, 4, 62, 92
10, 262080, Note_on_c, 4, 50, 92
10, 262184, Note_on_c, 4, 62, 0
10, 262184, Note_on_c, 4, 50, 0
10, 262200, Note_on_c, 4, 50, 92
10, 262200, Note_on_c, 4, 62, 92
10, 262304, Note_on_c, 4, 50, 0
10, 262304, Note_on_c, 4, 62, 0
10, 262320, Note_on_c, 4, 50, 92
10, 262320, Note_on_c, 4, 62, 92
10, 262424, Note_on_c, 4, 50, 0
10, 262424, Note_on_c, 4, 62, 0
10, 262440, Note_on_c, 4, 50, 92
10, 262440, Note_on_c, 4, 62, 92
10, 262544, Note_on_c, 4, 50, 0
10, 262544, Note_on_c, 4, 62, 0
10, 262560, Note_on_c, 4, 50, 92
10, 262560, Note_on_c, 4, 62, 92
10, 262664, Note_on_c, 4, 50, 0
10, 262664, Note_on_c, 4, 62, 0
10, 262680, Note_on_c, 4, 50, 92
10, 262680, Note_on_c, 4, 62, 92
10, 262784, Note_on_c, 4, 50, 0
10, 262784, Note_on_c, 4, 62, 0
10, 262800, Note_on_c, 4, 50, 92
10, 262800, Note_on_c, 4, 62, 92
10, 262919, Note_on_c, 4, 50, 0
10, 262919, Note_on_c, 4, 62, 0
10, 263520, Note_on_c, 4, 67, 92
10, 263684, Note_on_c, 4, 67, 0
10, 263700, Note_on_c, 4, 67, 92
10, 263744, Note_on_c, 4, 67, 0
10, 263760, Note_on_c, 4, 67, 92
10, 263864, Note_on_c, 4, 67, 0
10, 263880, Note_on_c, 4, 67, 92
10, 263984, Note_on_c, 4, 67, 0
10, 264000, Note_on_c, 4, 67, 92
10, 264104, Note_on_c, 4, 67, 0
10, 264120, Note_on_c, 4, 67, 92
10, 264224, Note_on_c, 4, 67, 0
10, 264240, Note_on_c, 4, 60, 92
10, 264359, Note_on_c, 4, 60, 0
10, 264960, Note_on_c, 4, 57, 92
10, 265124, Note_on_c, 4, 57, 0
10, 265140, Note_on_c, 4, 57, 92
10, 265184, Note_on_c, 4, 57, 0
10, 265200, Note_on_c, 4, 57, 92
10, 265304, Note_on_c, 4, 57, 0
10, 265320, Note_on_c, 4, 57, 92
10, 265424, Note_on_c, 4, 57, 0
10, 265440, Note_on_c, 4, 57, 92
10, 265544, Note_on_c, 4, 57, 0
10, 265560, Note_on_c, 4, 57, 92
10, 265664, Note_on_c, 4, 57, 0
10, 265680, Note_on_c, 4, 50, 44
10, 265680, Note_on_c, 4, 62, 44
10, 266399, Note_on_c, 4, 50, 0
10, 266399, Note_on_c, 4, 62, 0
10, 266400, Note_on_c, 4, 67, 44
10, 266519, Note_on_c, 4, 67, 0
10, 266760, Control_c, 4, 11, 87
10, 267120, Control_c, 4, 11, 87
10, 267120, Note_on_c, 4, 67, 68
10, 267150, Control_c, 4, 11, 90
10, 267180, Control_c, 4, 11, 94
10, 267210, Control_c, 4, 11, 97
10, 267240, Control_c, 4, 11, 100
10, 267270, Control_c, 4, 11, 104
10, 267300, Control_c, 4, 11, 107
10, 267330, Control_c, 4, 11, 110
10, 267360, Control_c, 4, 11, 114
10, 267390, Control_c, 4, 11, 117
10, 267420, Control_c, 4, 11, 120
10, 267450, Control_c, 4, 11, 124
10, 267480, Control_c, 4, 11, 127
10, 267510, Control_c, 4, 11, 124
10, 267540, Control_c, 4, 11, 120
10, 267570, Control_c, 4, 11, 117
10, 267599, Note_on_c, 4, 67, 0
10, 267600, Note_on_c, 4, 57, 68
10, 267600, Note_on_c, 4, 69, 68
10, 267600, Control_c, 4, 11, 114
10, 267630, Control_c, 4, 11, 110
10, 267660, Control_c, 4, 11, 107
10, 267690, Control_c, 4, 11, 104
10, 267704, Note_on_c, 4, 57, 0
10, 267719, Note_on_c, 4, 69, 0
10, 267720, Control_c, 4, 11, 100
10, 267720, Note_on_c, 4, 57, 68
10, 267750, Control_c, 4, 11, 97
10, 267780, Control_c, 4, 11, 94
10, 267810, Control_c, 4, 11, 90
10, 267839, Note_on_c, 4, 57, 0
10, 268560, Control_c, 4, 11, 127
10, 268800, Note_on_c, 4, 67, 68
10, 269024, Note_on_c, 4, 67, 0
10, 269040, Note_on_c, 4, 57, 74
10, 269040, Note_on_c, 4, 69, 74
10, 269144, Note_on_c, 4, 57, 0
10, 269144, Note_on_c, 4, 69, 0
10, 269160, Note_on_c, 4, 69, 77
10, 269160, Note_on_c, 4, 57, 77
10, 269264, Note_on_c, 4, 69, 0
10, 269264, Note_on_c, 4, 57, 0
10, 269280, Note_on_c, 4, 69, 80
10, 269280, Note_on_c, 4, 57, 80
10, 269384, Note_on_c, 4, 69, 0
10, 269384, Note_on_c, 4, 57, 0
10, 269400, Note_on_c, 4, 69, 80
10, 269400, Note_on_c, 4, 57, 80
10, 269504, Note_on_c, 4, 69, 0
10, 269504, Note_on_c, 4, 57, 0
10, 269520, Note_on_c, 4, 69, 80
10, 269520, Note_on_c, 4, 57, 80
10, 269624, Note_on_c, 4, 69, 0
10, 269624, Note_on_c, 4, 57, 0
10, 269640, Note_on_c, 4, 69, 80
10, 269640, Note_on_c, 4, 57, 80
10, 269744, Note_on_c, 4, 69, 0
10, 269744, Note_on_c, 4, 57, 0
10, 269760, Note_on_c, 4, 69, 80
10, 269760, Note_on_c, 4, 57, 80
10, 269864, Note_on_c, 4, 69, 0
10, 269864, Note_on_c, 4, 57, 0
10, 269880, Note_on_c, 4, 57, 80
10, 269880, Note_on_c, 4, 69, 80
10, 269984, Note_on_c, 4, 57, 0
10, 269984, Note_on_c, 4, 69, 0
10, 270000, Note_on_c, 4, 69, 80
10, 270000, Note_on_c, 4, 57, 80
10, 270104, Note_on_c, 4, 69, 0
10, 270104, Note_on_c, 4, 57, 0
10, 270120, Note_on_c, 4, 62, 80
10, 270120, Note_on_c, 4, 50, 80
10, 270224, Note_on_c, 4, 62, 0
10, 270224, Note_on_c, 4, 50, 0
10, 270240, Note_on_c, 4, 62, 80
10, 270240, Note_on_c, 4, 50, 80
10, 270344, Note_on_c, 4, 62, 0
10, 270344, Note_on_c, 4, 50, 0
10, 270360, Note_on_c, 4, 62, 80
10, 270360, Note_on_c, 4, 50, 80
10, 270464, Note_on_c, 4, 62, 0
10, 270464, Note_on_c, 4, 50, 0
10, 270480, Note_on_c, 4, 45, 80
10, 270480, Note_on_c, 4, 57, 80
10, 270584, Note_on_c, 4, 45, 0
10, 270584, Note_on_c, 4, 57, 0
10, 270600, Note_on_c, 4, 57, 80
10, 270600, Note_on_c, 4, 69, 80
10, 270704, Note_on_c, 4, 57, 0
10, 270704, Note_on_c, 4, 69, 0
10, 270720, Note_on_c, 4, 57, 80
10, 270720, Note_on_c, 4, 69, 80
10, 270824, Note_on_c, 4, 57, 0
10, 270824, Note_on_c, 4, 69, 0
10, 270840, Note_on_c, 4, 69, 80
10, 270840, Note_on_c, 4, 57, 80
10, 270944, Note_on_c, 4, 69, 0
10, 270944, Note_on_c, 4, 57, 0
10, 270960, Note_on_c, 4, 69, 80
10, 270960, Note_on_c, 4, 57, 80
10, 271064, Note_on_c, 4, 69, 0
10, 271064, Note_on_c, 4, 57, 0
10, 271080, Note_on_c, 4, 69, 80
10, 271080, Note_on_c, 4, 57, 80
10, 271184, Note_on_c, 4, 69, 0
10, 271184, Note_on_c, 4, 57, 0
10, 271200, Note_on_c, 4, 69, 80
10, 271200, Note_on_c, 4, 57, 80
10, 271304, Note_on_c, 4, 69, 0
10, 271304, Note_on_c, 4, 57, 0
10, 271320, Note_on_c, 4, 57, 80
10, 271320, Note_on_c, 4, 69, 80
10, 271424, Note_on_c, 4, 57, 0
10, 271424, Note_on_c, 4, 69, 0
10, 271440, Note_on_c, 4, 57, 80
10, 271440, Note_on_c, 4, 69, 80
10, 271544, Note_on_c, 4, 57, 0
10, 271544, Note_on_c, 4, 69, 0
10, 271560, Note_on_c, 4, 69, 80
10, 271560, Note_on_c, 4, 57, 80
10, 271664, Note_on_c, 4, 69, 0
10, 271664, Note_on_c, 4, 57, 0
10, 271680, Note_on_c, 4, 69, 80
10, 271680, Note_on_c, 4, 57, 80
10, 271784, Note_on_c, 4, 69, 0
10, 271784, Note_on_c, 4, 57, 0
10, 271800, Note_on_c, 4, 69, 80
10, 271800, Note_on_c, 4, 57, 80
10, 271904, Note_on_c, 4, 69, 0
10, 271904, Note_on_c, 4, 57, 0
10, 271920, Note_on_c, 4, 57, 80
10, 271920, Note_on_c, 4, 69, 80
10, 272024, Note_on_c, 4, 57, 0
10, 272024, Note_on_c, 4, 69, 0
10, 272040, Note_on_c, 4, 57, 80
10, 272040, Note_on_c, 4, 69, 80
10, 272144, Note_on_c, 4, 57, 0
10, 272144, Note_on_c, 4, 69, 0
10, 272160, Note_on_c, 4, 57, 80
10, 272160, Note_on_c, 4, 69, 80
10, 272264, Note_on_c, 4, 57, 0
10, 272264, Note_on_c, 4, 69, 0
10, 272280, Note_on_c, 4, 57, 80
10, 272280, Note_on_c, 4, 69, 80
10, 272384, Note_on_c, 4, 57, 0
10, 272384, Note_on_c, 4, 69, 0
10, 272400, Note_on_c, 4, 69, 80
10, 272400, Note_on_c, 4, 57, 80
10, 272504, Note_on_c, 4, 69, 0
10, 272504, Note_on_c, 4, 57, 0
10, 272520, Note_on_c, 4, 57, 80
10, 272520, Note_on_c, 4, 69, 80
10, 272624, Note_on_c, 4, 57, 0
10, 272624, Note_on_c, 4, 69, 0
10, 272640, Note_on_c, 4, 69, 80
10, 272640, Note_on_c, 4, 57, 80
10, 272744, Note_on_c, 4, 69, 0
10, 272744, Note_on_c, 4, 57, 0
10, 272760, Note_on_c, 4, 69, 80
10, 272760, Note_on_c, 4, 57, 80
10, 272864, Note_on_c, 4, 69, 0
10, 272864, Note_on_c, 4, 57, 0
10, 272880, Note_on_c, 4, 57, 80
10, 272880, Note_on_c, 4, 69, 80
10, 272984, Note_on_c, 4, 57, 0
10, 272984, Note_on_c, 4, 69, 0
10, 273000, Note_on_c, 4, 69, 80
10, 273000, Note_on_c, 4, 57, 80
10, 273104, Note_on_c, 4, 69, 0
10, 273104, Note_on_c, 4, 57, 0
10, 273120, Note_on_c, 4, 69, 80
10, 273120, Note_on_c, 4, 57, 80
10, 273224, Note_on_c, 4, 69, 0
10, 273224, Note_on_c, 4, 57, 0
10, 273240, Note_on_c, 4, 69, 80
10, 273240, Note_on_c, 4, 57, 80
10, 273344, Note_on_c, 4, 69, 0
10, 273344, Note_on_c, 4, 57, 0
10, 273360, Note_on_c, 4, 57, 80
10, 273360, Note_on_c, 4, 69, 80
10, 273464, Note_on_c, 4, 57, 0
10, 273464, Note_on_c, 4, 69, 0
10, 273480, Note_on_c, 4, 69, 80
10, 273480, Note_on_c, 4, 57, 80
10, 273584, Note_on_c, 4, 69, 0
10, 273584, Note_on_c, 4, 57, 0
10, 275040, Note_on_c, 4, 50, 32
10, 275040, Note_on_c, 4, 62, 32
10, 275204, Note_on_c, 4, 50, 0
10, 275204, Note_on_c, 4, 62, 0
10, 275220, Note_on_c, 4, 50, 32
10, 275220, Note_on_c, 4, 62, 32
10, 275264, Note_on_c, 4, 50, 0
10, 275264, Note_on_c, 4, 62, 0
10, 275280, Note_on_c, 4, 62, 32
10, 275280, Note_on_c, 4, 50, 32
10, 275384, Note_on_c, 4, 62, 0
10, 275384, Note_on_c, 4, 50, 0
10, 275400, Note_on_c, 4, 50, 32
10, 275400, Note_on_c, 4, 62, 32
10, 275519, Note_on_c, 4, 50, 0
10, 275519, Note_on_c, 4, 62, 0
10, 276120, Note_on_c, 4, 50, 32
10, 276120, Note_on_c, 4, 62, 32
10, 276284, Note_on_c, 4, 50, 0
10, 276284, Note_on_c, 4, 62, 0
10, 276300, Note_on_c, 4, 62, 32
10, 276300, Note_on_c, 4, 50, 32
10, 276344, Note_on_c, 4, 62, 0
10, 276344, Note_on_c, 4, 50, 0
10, 276360, Note_on_c, 4, 62, 32
10, 276360, Note_on_c, 4, 50, 32
10, 276464, Note_on_c, 4, 62, 0
10, 276464, Note_on_c, 4, 50, 0
10, 276480, Note_on_c, 4, 50, 32
10, 276480, Note_on_c, 4, 62, 32
10, 276599, Note_on_c, 4, 50, 0
10, 276599, Note_on_c, 4, 62, 0
10, 277920, Note_on_c, 4, 62, 32
10, 277920, Note_on_c, 4, 50, 32
10, 278084, Note_on_c, 4, 62, 0
10, 278084, Note_on_c, 4, 50, 0
10, 278100, Note_on_c, 4, 62, 36
10, 278100, Note_on_c, 4, 50, 36
10, 278144, Note_on_c, 4, 62, 0
10, 278144, Note_on_c, 4, 50, 0
10, 278160, Note_on_c, 4, 62, 37
10, 278160, Note_on_c, 4, 50, 37
10, 278264, Note_on_c, 4, 62, 0
10, 278264, Note_on_c, 4, 50, 0
10, 278280, Note_on_c, 4, 50, 40
10, 278280, Note_on_c, 4, 62, 40
10, 278399, Note_on_c, 4, 50, 0
10, 278399, Note_on_c, 4, 62, 0
10, 278640, Note_on_c, 4, 62, 49
10, 278640, Note_on_c, 4, 50, 49
10, 278804, Note_on_c, 4, 62, 0
10, 278804, Note_on_c, 4, 50, 0
10, 278820, Note_on_c, 4, 62, 53
10, 278820, Note_on_c, 4, 50, 53
10, 278864, Note_on_c, 4, 62, 0
10, 278864, Note_on_c, 4, 50, 0
10, 278880, Note_on_c, 4, 50, 54
10, 278880, Note_on_c, 4, 62, 54
10, 278984, Note_on_c, 4, 50, 0
10, 278984, Note_on_c, 4, 62, 0
10, 279000, Note_on_c, 4, 50, 57
10, 279000, Note_on_c, 4, 62, 57
10, 279119, Note_on_c, 4, 50, 0
10, 279119, Note_on_c, 4, 62, 0
10, 279360, Note_on_c, 4, 50, 66
10, 279360, Note_on_c, 4, 62, 66
10, 279524, Note_on_c, 4, 50, 0
10, 279524, Note_on_c, 4, 62, 0
10, 279540, Note_on_c, 4, 50, 70
10, 279540, Note_on_c, 4, 62, 70
10, 279584, Note_on_c, 4, 50, 0
10, 279584, Note_on_c, 4, 62, 0
10, 279600, Note_on_c, 4, 50, 72
10, 279600, Note_on_c, 4, 62, 72
10, 279704, Note_on_c, 4, 50, 0
10, 279704, Note_on_c, 4, 62, 0
10, 279720, Note_on_c, 4, 62, 74
10, 279720, Note_on_c, 4, 50, 74
10, 279839, Note_on_c, 4, 62, 0
10, 279839, Note_on_c, 4, 50, 0
10, 280080, Note_on_c, 4, 62, 80
10, 280080, Note_on_c, 4, 50, 80
10, 280244, Note_on_c, 4, 62, 0
10, 280244, Note_on_c, 4, 50, 0
10, 280260, Note_on_c, 4, 62, 80
10, 280260, Note_on_c, 4, 50, 80
10, 280304, Note_on_c, 4, 62, 0
10, 280304, Note_on_c, 4, 50, 0
10, 280320, Note_on_c, 4, 62, 80
10, 280320, Note_on_c, 4, 50, 80
10, 280424, Note_on_c, 4, 62, 0
10, 280424, Note_on_c, 4, 50, 0
10, 280440, Note_on_c, 4, 64, 92
10, 280440, Note_on_c, 4, 57, 92
10, 280604, Note_on_c, 4, 64, 0
10, 280604, Note_on_c, 4, 57, 0
10, 280620, Note_on_c, 4, 64, 92
10, 280620, Note_on_c, 4, 57, 92
10, 280664, Note_on_c, 4, 64, 0
10, 280664, Note_on_c, 4, 57, 0
10, 280680, Note_on_c, 4, 57, 92
10, 280680, Note_on_c, 4, 64, 92
10, 281129, Note_on_c, 4, 57, 0
10, 281129, Note_on_c, 4, 64, 0
10, 281160, Note_on_c, 4, 57, 32
10, 281160, Note_on_c, 4, 69, 32
10, 281264, Note_on_c, 4, 57, 0
10, 281264, Note_on_c, 4, 69, 0
10, 281280, Note_on_c, 4, 57, 32
10, 281280, Note_on_c, 4, 69, 32
10, 281384, Note_on_c, 4, 57, 0
10, 281384, Note_on_c, 4, 69, 0
10, 281400, Note_on_c, 4, 69, 32
10, 281400, Note_on_c, 4, 57, 32
10, 281504, Note_on_c, 4, 69, 0
10, 281504, Note_on_c, 4, 57, 0
10, 281520, Note_on_c, 4, 57, 32
10, 281520, Note_on_c, 4, 69, 32
10, 281624, Note_on_c, 4, 57, 0
10, 281624, Note_on_c, 4, 69, 0
10, 281640, Note_on_c, 4, 57, 32
10, 281640, Note_on_c, 4, 69, 32
10, 281744, Note_on_c, 4, 57, 0
10, 281744, Note_on_c, 4, 69, 0
10, 281760, Note_on_c, 4, 57, 32
10, 281760, Note_on_c, 4, 69, 32
10, 281864, Note_on_c, 4, 57, 0
10, 281864, Note_on_c, 4, 69, 0
10, 281880, Note_on_c, 4, 69, 32
10, 281880, Note_on_c, 4, 57, 32
10, 281984, Note_on_c, 4, 69, 0
10, 281984, Note_on_c, 4, 57, 0
10, 282000, Note_on_c, 4, 50, 32
10, 282000, Note_on_c, 4, 62, 32
10, 282104, Note_on_c, 4, 50, 0
10, 282104, Note_on_c, 4, 62, 0
10, 282120, Note_on_c, 4, 62, 32
10, 282120, Note_on_c, 4, 50, 32
10, 282224, Note_on_c, 4, 62, 0
10, 282224, Note_on_c, 4, 50, 0
10, 282240, Note_on_c, 4, 62, 32
10, 282240, Note_on_c, 4, 50, 32
10, 282344, Note_on_c, 4, 62, 0
10, 282344, Note_on_c, 4, 50, 0
10, 282360, Note_on_c, 4, 62, 32
10, 282360, Note_on_c, 4, 50, 32
10, 282464, Note_on_c, 4, 62, 0
10, 282464, Note_on_c, 4, 50, 0
10, 282480, Note_on_c, 4, 62, 32
10, 282480, Note_on_c, 4, 50, 32
10, 282584, Note_on_c, 4, 62, 0
10, 282584, Note_on_c, 4, 50, 0
10, 282600, Note_on_c, 4, 57, 32
10, 282600, Note_on_c, 4, 45, 32
10, 282704, Note_on_c, 4, 57, 0
10, 282704, Note_on_c, 4, 45, 0
10, 282720, Note_on_c, 4, 57, 32
10, 282720, Note_on_c, 4, 69, 32
10, 282824, Note_on_c, 4, 57, 0
10, 282824, Note_on_c, 4, 69, 0
10, 282840, Note_on_c, 4, 57, 32
10, 282840, Note_on_c, 4, 69, 32
10, 282944, Note_on_c, 4, 57, 0
10, 282944, Note_on_c, 4, 69, 0
10, 282960, Note_on_c, 4, 57, 32
10, 282960, Note_on_c, 4, 69, 32
10, 283064, Note_on_c, 4, 57, 0
10, 283064, Note_on_c, 4, 69, 0
10, 283080, Note_on_c, 4, 57, 32
10, 283080, Note_on_c, 4, 69, 32
10, 283184, Note_on_c, 4, 57, 0
10, 283184, Note_on_c, 4, 69, 0
10, 283200, Note_on_c, 4, 57, 32
10, 283200, Note_on_c, 4, 69, 32
10, 283304, Note_on_c, 4, 57, 0
10, 283304, Note_on_c, 4, 69, 0
10, 283320, Note_on_c, 4, 69, 32
10, 283320, Note_on_c, 4, 57, 32
10, 283424, Note_on_c, 4, 69, 0
10, 283424, Note_on_c, 4, 57, 0
10, 283440, Note_on_c, 4, 50, 32
10, 283440, Note_on_c, 4, 62, 32
10, 283544, Note_on_c, 4, 50, 0
10, 283544, Note_on_c, 4, 62, 0
10, 283560, Note_on_c, 4, 62, 32
10, 283560, Note_on_c, 4, 50, 32
10, 283664, Note_on_c, 4, 62, 0
10, 283664, Note_on_c, 4, 50, 0
10, 283680, Note_on_c, 4, 62, 32
10, 283680, Note_on_c, 4, 50, 32
10, 283784, Note_on_c, 4, 62, 0
10, 283784, Note_on_c, 4, 50, 0
10, 283800, Note_on_c, 4, 62, 32
10, 283800, Note_on_c, 4, 50, 32
10, 283904, Note_on_c, 4, 62, 0
10, 283904, Note_on_c, 4, 50, 0
10, 283920, Note_on_c, 4, 62, 32
10, 283920, Note_on_c, 4, 50, 32
10, 284024, Note_on_c, 4, 62, 0
10, 284024, Note_on_c, 4, 50, 0
10, 284040, Note_on_c, 4, 57, 32
10, 284040, Note_on_c, 4, 45, 32
10, 284139, Note_on_c, 4, 57, 0
10, 284139, Note_on_c, 4, 45, 0
10, 284160, Note_on_c, 4, 69, 34
10, 284160, Note_on_c, 4, 57, 34
10, 284259, Note_on_c, 4, 69, 0
10, 284259, Note_on_c, 4, 57, 0
10, 284280, Note_on_c, 4, 69, 37
10, 284280, Note_on_c, 4, 57, 37
10, 284379, Note_on_c, 4, 69, 0
10, 284379, Note_on_c, 4, 57, 0
10, 284400, Note_on_c, 4, 69, 39
10, 284400, Note_on_c, 4, 57, 39
10, 284499, Note_on_c, 4, 69, 0
10, 284499, Note_on_c, 4, 57, 0
10, 284520, Note_on_c, 4, 57, 42
10, 284520, Note_on_c, 4, 69, 42
10, 284619, Note_on_c, 4, 57, 0
10, 284619, Note_on_c, 4, 69, 0
10, 284640, Note_on_c, 4, 57, 44
10, 284640, Note_on_c, 4, 69, 44
10, 284739, Note_on_c, 4, 57, 0
10, 284739, Note_on_c, 4, 69, 0
10, 284760, Note_on_c, 4, 69, 47
10, 284760, Note_on_c, 4, 57, 47
10, 284859, Note_on_c, 4, 69, 0
10, 284859, Note_on_c, 4, 57, 0
10, 284880, Note_on_c, 4, 57, 49
10, 284880, Note_on_c, 4, 69, 49
10, 284979, Note_on_c, 4, 57, 0
10, 284979, Note_on_c, 4, 69, 0
10, 285000, Note_on_c, 4, 69, 52
10, 285000, Note_on_c, 4, 57, 52
10, 285099, Note_on_c, 4, 69, 0
10, 285099, Note_on_c, 4, 57, 0
10, 285120, Note_on_c, 4, 69, 54
10, 285120, Note_on_c, 4, 57, 54
10, 285219, Note_on_c, 4, 69, 0
10, 285219, Note_on_c, 4, 57, 0
10, 285240, Note_on_c, 4, 69, 57
10, 285240, Note_on_c, 4, 57, 57
10, 285339, Note_on_c, 4, 69, 0
10, 285339, Note_on_c, 4, 57, 0
10, 285360, Note_on_c, 4, 57, 59
10, 285360, Note_on_c, 4, 69, 59
10, 285459, Note_on_c, 4, 57, 0
10, 285459, Note_on_c, 4, 69, 0
10, 285480, Note_on_c, 4, 69, 62
10, 285480, Note_on_c, 4, 57, 62
10, 285579, Note_on_c, 4, 69, 0
10, 285579, Note_on_c, 4, 57, 0
10, 285600, Note_on_c, 4, 57, 64
10, 285600, Note_on_c, 4, 69, 64
10, 285699, Note_on_c, 4, 57, 0
10, 285699, Note_on_c, 4, 69, 0
10, 285720, Note_on_c, 4, 69, 67
10, 285720, Note_on_c, 4, 57, 67
10, 285819, Note_on_c, 4, 69, 0
10, 285819, Note_on_c, 4, 57, 0
10, 285840, Note_on_c, 4, 69, 69
10, 285840, Note_on_c, 4, 57, 69
10, 285939, Note_on_c, 4, 69, 0
10, 285939, Note_on_c, 4, 57, 0
10, 285960, Note_on_c, 4, 57, 72
10, 285960, Note_on_c, 4, 69, 72
10, 286059, Note_on_c, 4, 57, 0
10, 286059, Note_on_c, 4, 69, 0
10, 286080, Note_on_c, 4, 69, 74
10, 286080, Note_on_c, 4, 57, 74
10, 286179, Note_on_c, 4, 69, 0
10, 286179, Note_on_c, 4, 57, 0
10, 286200, Note_on_c, 4, 69, 77
10, 286200, Note_on_c, 4, 57, 77
10, 286299, Note_on_c, 4, 69, 0
10, 286299, Note_on_c, 4, 57, 0
10, 286320, Note_on_c, 4, 57, 79
10, 286320, Note_on_c, 4, 69, 79
10, 286419, Note_on_c, 4, 57, 0
10, 286419, Note_on_c, 4, 69, 0
10, 286440, Note_on_c, 4, 69, 82
10, 286440, Note_on_c, 4, 57, 82
10, 286539, Note_on_c, 4, 69, 0
10, 286539, Note_on_c, 4, 57, 0
10, 286560, Note_on_c, 4, 69, 84
10, 286560, Note_on_c, 4, 57, 84
10, 286659, Note_on_c, 4, 69, 0
10, 286659, Note_on_c, 4, 57, 0
10, 286680, Note_on_c, 4, 69, 87
10, 286680, Note_on_c, 4, 57, 87
10, 286779, Note_on_c, 4, 69, 0
10, 286779, Note_on_c, 4, 57, 0
10, 286800, Note_on_c, 4, 57, 89
10, 286800, Note_on_c, 4, 69, 89
10, 286899, Note_on_c, 4, 57, 0
10, 286899, Note_on_c, 4, 69, 0
10, 286920, Note_on_c, 4, 69, 92
10, 287019, Note_on_c, 4, 69, 0
10, 287040, Note_on_c, 4, 57, 92
10, 287139, Note_on_c, 4, 57, 0
10, 287160, Note_on_c, 4, 62, 80
10, 287259, Note_on_c, 4, 62, 0
10, 287280, Note_on_c, 4, 50, 80
10, 287379, Note_on_c, 4, 50, 0
10, 287400, Note_on_c, 4, 57, 80
10, 287499, Note_on_c, 4, 57, 0
10, 287520, Note_on_c, 4, 45, 80
10, 287619, Note_on_c, 4, 45, 0
10, 287640, Note_on_c, 4, 69, 80
10, 287739, Note_on_c, 4, 69, 0
10, 287760, Note_on_c, 4, 57, 80
10, 287859, Note_on_c, 4, 57, 0
10, 287880, Note_on_c, 4, 62, 80
10, 287880, Note_on_c, 4, 50, 80
10, 287999, Note_on_c, 4, 62, 0
10, 287999, Note_on_c, 4, 50, 0
10, 303240, Note_on_c, 4, 62, 80
10, 303300, Control_c, 4, 11, 67
10, 303960, Note_on_c, 4, 64, 80
10, 304199, Note_on_c, 4, 64, 0
10, 304200, Note_on_c, 4, 66, 80
10, 304559, Note_on_c, 4, 66, 0
10, 304560, Note_on_c, 4, 67, 80
10, 304619, Note_on_c, 4, 67, 0
10, 304620, Note_on_c, 4, 69, 80
10, 304659, Note_on_c, 4, 69, 0
10, 304680, Note_on_c, 4, 67, 80
10, 304769, Note_on_c, 4, 67, 0
10, 304800, Note_on_c, 4, 67, 80
10, 304889, Note_on_c, 4, 67, 0
10, 304920, Note_on_c, 4, 66, 80
10, 305009, Note_on_c, 4, 66, 0
10, 305040, Note_on_c, 4, 66, 80
10, 305129, Note_on_c, 4, 66, 0
10, 305160, Note_on_c, 4, 64, 80
10, 305379, Note_on_c, 4, 64, 0
10, 305880, Note_on_c, 4, 64, 80
10, 306099, Note_on_c, 4, 64, 0
10, 306120, Note_on_c, 4, 66, 80
10, 306479, Note_on_c, 4, 66, 0
10, 306480, Note_on_c, 4, 67, 80
10, 306539, Note_on_c, 4, 67, 0
10, 306540, Note_on_c, 4, 69, 80
10, 306579, Note_on_c, 4, 69, 0
10, 306600, Note_on_c, 4, 67, 80
10, 306689, Note_on_c, 4, 67, 0
10, 306720, Note_on_c, 4, 67, 80
10, 306809, Note_on_c, 4, 67, 0
10, 306840, Note_on_c, 4, 66, 80
10, 306929, Note_on_c, 4, 66, 0
10, 306960, Note_on_c, 4, 66, 80
10, 307049, Note_on_c, 4, 66, 0
10, 307079, Note_on_c, 4, 62, 0
10, 307080, Note_on_c, 4, 64, 80
10, 307080, Note_on_c, 4, 62, 80
10, 307199, Note_on_c, 4, 64, 0
10, 307800, Note_on_c, 4, 64, 80
10, 308019, Note_on_c, 4, 64, 0
10, 308040, Note_on_c, 4, 66, 80
10, 308399, Note_on_c, 4, 66, 0
10, 308400, Note_on_c, 4, 67, 80
10, 308459, Note_on_c, 4, 67, 0
10, 308460, Note_on_c, 4, 69, 80
10, 308499, Note_on_c, 4, 69, 0
10, 308520, Note_on_c, 4, 67, 80
10, 308609, Note_on_c, 4, 67, 0
10, 308640, Note_on_c, 4, 67, 80
10, 308729, Note_on_c, 4, 67, 0
10, 308760, Note_on_c, 4, 66, 80
10, 308849, Note_on_c, 4, 66, 0
10, 308880, Note_on_c, 4, 66, 80
10, 308969, Note_on_c, 4, 66, 0
10, 309000, Note_on_c, 4, 64, 80
10, 309219, Note_on_c, 4, 64, 0
10, 309720, Note_on_c, 4, 64, 80
10, 309939, Note_on_c, 4, 64, 0
10, 309960, Note_on_c, 4, 66, 80
10, 310319, Note_on_c, 4, 66, 0
10, 310320, Note_on_c, 4, 67, 80
10, 310379, Note_on_c, 4, 67, 0
10, 310380, Note_on_c, 4, 69, 80
10, 310419, Note_on_c, 4, 69, 0
10, 310440, Note_on_c, 4, 67, 80
10, 310529, Note_on_c, 4, 67, 0
10, 310560, Note_on_c, 4, 67, 80
10, 310649, Note_on_c, 4, 67, 0
10, 310680, Note_on_c, 4, 66, 80
10, 310769, Note_on_c, 4, 66, 0
10, 310800, Note_on_c, 4, 66, 80
10, 310899, Note_on_c, 4, 62, 0
10, 310899, Note_on_c, 4, 66, 0
10, 310920, Note_on_c, 4, 57, 80
10, 310920, Note_on_c, 4, 64, 80
10, 311039, Note_on_c, 4, 57, 0
10, 311039, Note_on_c, 4, 64, 0
10, 313800, Control_c, 4, 11, 87
10, 314040, Note_on_c, 4, 57, 68
10, 314499, Note_on_c, 4, 57, 0
10, 314520, Note_on_c, 4, 57, 68
10, 314739, Note_on_c, 4, 57, 0
10, 314760, Note_on_c, 4, 57, 68
10, 314979, Note_on_c, 4, 57, 0
10, 315000, Note_on_c, 4, 57, 68
10, 315459, Note_on_c, 4, 57, 0
10, 315480, Note_on_c, 4, 57, 68
10, 315699, Note_on_c, 4, 57, 0
10, 315720, Note_on_c, 4, 57, 68
10, 315939, Note_on_c, 4, 57, 0
10, 315960, Note_on_c, 4, 57, 68
10, 316419, Note_on_c, 4, 57, 0
10, 316440, Note_on_c, 4, 57, 68
10, 316659, Note_on_c, 4, 57, 0
10, 316680, Note_on_c, 4, 57, 68
10, 316899, Note_on_c, 4, 57, 0
10, 316920, Note_on_c, 4, 64, 68
10, 316920, Control_c, 4, 11, 87
10, 316980, Control_c, 4, 11, 88
10, 317040, Control_c, 4, 11, 89
10, 317100, Control_c, 4, 11, 90
10, 317160, Control_c, 4, 11, 91
10, 317220, Control_c, 4, 11, 92
10, 317280, Control_c, 4, 11, 93
10, 317340, Control_c, 4, 11, 94
10, 317379, Note_on_c, 4, 64, 0
10, 317400, Control_c, 4, 11, 95
10, 317400, Note_on_c, 4, 64, 68
10, 317460, Control_c, 4, 11, 96
10, 317520, Control_c, 4, 11, 97
10, 317580, Control_c, 4, 11, 98
10, 317640, Control_c, 4, 11, 99
10, 317700, Control_c, 4, 11, 100
10, 317760, Control_c, 4, 11, 101
10, 317820, Control_c, 4, 11, 102
10, 317859, Note_on_c, 4, 64, 0
10, 317880, Control_c, 4, 11, 103
10, 317880, Note_on_c, 4, 64, 68
10, 317940, Control_c, 4, 11, 104
10, 318000, Control_c, 4, 11, 105
10, 318060, Control_c, 4, 11, 106
10, 318120, Control_c, 4, 11, 107
10, 318180, Control_c, 4, 11, 108
10, 318240, Control_c, 4, 11, 109
10, 318300, Control_c, 4, 11, 110
10, 318339, Note_on_c, 4, 64, 0
10, 318360, Note_on_c, 4, 64, 68
10, 318360, Control_c, 4, 11, 111
10, 318420, Control_c, 4, 11, 112
10, 318480, Control_c, 4, 11, 113
10, 318540, Control_c, 4, 11, 114
10, 318600, Control_c, 4, 11, 115
10, 318660, Control_c, 4, 11, 116
10, 318720, Control_c, 4, 11, 117
10, 318780, Control_c, 4, 11, 118
10, 318819, Note_on_c, 4, 64, 0
10, 318840, Control_c, 4, 11, 119
10, 318840, Note_on_c, 4, 64, 68
10, 318900, Control_c, 4, 11, 120
10, 318960, Control_c, 4, 11, 121
10, 319020, Control_c, 4, 11, 122
10, 319080, Control_c, 4, 11, 123
10, 319140, Control_c, 4, 11, 124
10, 319200, Control_c, 4, 11, 125
10, 319299, Note_on_c, 4, 64, 0
10, 319318, Control_c, 4, 11, 67
10, 319320, Note_on_c, 4, 64, 80
10, 319779, Note_on_c, 4, 64, 0
10, 319800, Note_on_c, 4, 60, 80
10, 320280, Control_c, 4, 11, 67
10, 320320, Control_c, 4, 11, 70
10, 320360, Control_c, 4, 11, 74
10, 320400, Control_c, 4, 11, 77
10, 320440, Control_c, 4, 11, 80
10, 320480, Control_c, 4, 11, 84
10, 320499, Note_on_c, 4, 60, 0
10, 320520, Control_c, 4, 11, 87
10, 320520, Note_on_c, 4, 64, 80
10, 320560, Control_c, 4, 11, 90
10, 320600, Control_c, 4, 11, 94
10, 320640, Control_c, 4, 11, 97
10, 320680, Control_c, 4, 11, 100
10, 320720, Control_c, 4, 11, 104
10, 320739, Note_on_c, 4, 64, 0
10, 320760, Note_on_c, 4, 69, 80
10, 320760, Control_c, 4, 11, 107
10, 320800, Control_c, 4, 11, 110
10, 320840, Control_c, 4, 11, 114
10, 320880, Control_c, 4, 11, 117
10, 320920, Control_c, 4, 11, 120
10, 320960, Control_c, 4, 11, 124
10, 320998, Control_c, 4, 11, 127
10, 321060, Control_c, 4, 11, 67
10, 321480, Control_c, 4, 11, 67
10, 321540, Control_c, 4, 11, 68
10, 321600, Control_c, 4, 11, 69
10, 321660, Control_c, 4, 11, 70
10, 321720, Control_c, 4, 11, 71
10, 321780, Control_c, 4, 11, 72
10, 321840, Control_c, 4, 11, 73
10, 321900, Control_c, 4, 11, 74
10, 321960, Control_c, 4, 11, 75
10, 322020, Control_c, 4, 11, 76
10, 322080, Control_c, 4, 11, 77
10, 322140, Control_c, 4, 11, 78
10, 322200, Control_c, 4, 11, 79
10, 322260, Control_c, 4, 11, 80
10, 322320, Control_c, 4, 11, 81
10, 322380, Control_c, 4, 11, 82
10, 322440, Control_c, 4, 11, 83
10, 322500, Control_c, 4, 11, 84
10, 322560, Control_c, 4, 11, 85
10, 322620, Control_c, 4, 11, 86
10, 322680, Control_c, 4, 11, 87
10, 322740, Control_c, 4, 11, 88
10, 322800, Control_c, 4, 11, 89
10, 322860, Control_c, 4, 11, 90
10, 322899, Note_on_c, 4, 69, 0
10, 322920, Note_on_c, 4, 69, 80
10, 322920, Control_c, 4, 11, 91
10, 322920, Note_on_c, 4, 57, 80
10, 322980, Control_c, 4, 11, 92
10, 323040, Control_c, 4, 11, 93
10, 323100, Control_c, 4, 11, 94
10, 323160, Control_c, 4, 11, 95
10, 323220, Control_c, 4, 11, 96
10, 323280, Control_c, 4, 11, 97
10, 323340, Control_c, 4, 11, 98
10, 323400, Control_c, 4, 11, 99
10, 323460, Control_c, 4, 11, 100
10, 323520, Control_c, 4, 11, 101
10, 323580, Control_c, 4, 11, 102
10, 323640, Control_c, 4, 11, 103
10, 323700, Control_c, 4, 11, 104
10, 323760, Control_c, 4, 11, 105
10, 323820, Control_c, 4, 11, 106
10, 323880, Control_c, 4, 11, 107
10, 323940, Control_c, 4, 11, 108
10, 324000, Control_c, 4, 11, 109
10, 324060, Control_c, 4, 11, 110
10, 324120, Control_c, 4, 11, 111
10, 324180, Control_c, 4, 11, 112
10, 324240, Control_c, 4, 11, 113
10, 324300, Control_c, 4, 11, 114
10, 324360, Control_c, 4, 11, 115
10, 324420, Control_c, 4, 11, 116
10, 324480, Control_c, 4, 11, 117
10, 324540, Control_c, 4, 11, 118
10, 324600, Control_c, 4, 11, 119
10, 324660, Control_c, 4, 11, 120
10, 324720, Control_c, 4, 11, 121
10, 324780, Control_c, 4, 11, 122
10, 324840, Control_c, 4, 11, 123
10, 324900, Control_c, 4, 11, 124
10, 324960, Control_c, 4, 11, 125
10, 325020, Control_c, 4, 11, 127
10, 325079, Note_on_c, 4, 69, 0
10, 325079, Note_on_c, 4, 57, 0
10, 325080, Note_on_c, 4, 57, 80
10, 325080, Note_on_c, 4, 69, 80
10, 328179, Note_on_c, 4, 57, 0
10, 328179, Note_on_c, 4, 69, 0
10, 328200, Note_on_c, 4, 67, 80
10, 328289, Note_on_c, 4, 67, 0
10, 328320, Note_on_c, 4, 67, 80
10, 328409, Note_on_c, 4, 67, 0
10, 328440, Note_on_c, 4, 66, 80
10, 328529, Note_on_c, 4, 66, 0
10, 328560, Note_on_c, 4, 66, 80
10, 328649, Note_on_c, 4, 66, 0
10, 328680, Note_on_c, 4, 62, 80
10, 328680, Note_on_c, 4, 54, 80
10, 328799, Note_on_c, 4, 62, 0
10, 328799, Note_on_c, 4, 54, 0
10, 336360, Note_on_c, 4, 62, 80
10, 336420, Control_c, 4, 11, 67
10, 337080, Note_on_c, 4, 64, 80
10, 337319, Note_on_c, 4, 64, 0
10, 337320, Note_on_c, 4, 66, 80
10, 337679, Note_on_c, 4, 66, 0
10, 337680, Note_on_c, 4, 67, 80
10, 337739, Note_on_c, 4, 67, 0
10, 337740, Note_on_c, 4, 69, 80
10, 337779, Note_on_c, 4, 69, 0
10, 337800, Note_on_c, 4, 67, 80
10, 337889, Note_on_c, 4, 67, 0
10, 337920, Note_on_c, 4, 67, 80
10, 338009, Note_on_c, 4, 67, 0
10, 338040, Note_on_c, 4, 66, 80
10, 338129, Note_on_c, 4, 66, 0
10, 338160, Note_on_c, 4, 66, 80
10, 338249, Note_on_c, 4, 66, 0
10, 338280, Note_on_c, 4, 64, 80
10, 338499, Note_on_c, 4, 64, 0
10, 339000, Note_on_c, 4, 64, 80
10, 339219, Note_on_c, 4, 64, 0
10, 339240, Note_on_c, 4, 66, 80
10, 339599, Note_on_c, 4, 66, 0
10, 339600, Note_on_c, 4, 67, 80
10, 339659, Note_on_c, 4, 67, 0
10, 339660, Note_on_c, 4, 69, 80
10, 339699, Note_on_c, 4, 69, 0
10, 339720, Note_on_c, 4, 67, 80
10, 339809, Note_on_c, 4, 67, 0
10, 339840, Note_on_c, 4, 67, 80
10, 339929, Note_on_c, 4, 67, 0
10, 339960, Note_on_c, 4, 66, 80
10, 340049, Note_on_c, 4, 66, 0
10, 340080, Note_on_c, 4, 66, 80
10, 340169, Note_on_c, 4, 66, 0
10, 340199, Note_on_c, 4, 62, 0
10, 340200, Note_on_c, 4, 64, 80
10, 340200, Note_on_c, 4, 62, 80
10, 340319, Note_on_c, 4, 64, 0
10, 340920, Note_on_c, 4, 64, 80
10, 341139, Note_on_c, 4, 64, 0
10, 341160, Note_on_c, 4, 66, 80
10, 341519, Note_on_c, 4, 66, 0
10, 341520, Note_on_c, 4, 67, 80
10, 341579, Note_on_c, 4, 67, 0
10, 341580, Note_on_c, 4, 69, 80
10, 341619, Note_on_c, 4, 69, 0
10, 341640, Note_on_c, 4, 67, 80
10, 341729, Note_on_c, 4, 67, 0
10, 341760, Note_on_c, 4, 67, 80
10, 341849, Note_on_c, 4, 67, 0
10, 341880, Note_on_c, 4, 66, 80
10, 341969, Note_on_c, 4, 66, 0
10, 342000, Note_on_c, 4, 66, 80
10, 342089, Note_on_c, 4, 66, 0
10, 342120, Note_on_c, 4, 64, 80
10, 342339, Note_on_c, 4, 64, 0
10, 342840, Note_on_c, 4, 64, 80
10, 343059, Note_on_c, 4, 64, 0
10, 343080, Note_on_c, 4, 66, 80
10, 343439, Note_on_c, 4, 66, 0
10, 343440, Note_on_c, 4, 67, 80
10, 343499, Note_on_c, 4, 67, 0
10, 343500, Note_on_c, 4, 69, 80
10, 343539, Note_on_c, 4, 69, 0
10, 343560, Note_on_c, 4, 67, 80
10, 343649, Note_on_c, 4, 67, 0
10, 343680, Note_on_c, 4, 67, 80
10, 343769, Note_on_c, 4, 67, 0
10, 343800, Note_on_c, 4, 66, 80
10, 343889, Note_on_c, 4, 66, 0
10, 343920, Note_on_c, 4, 66, 80
10, 344019, Note_on_c, 4, 62, 0
10, 344019, Note_on_c, 4, 66, 0
10, 344040, Note_on_c, 4, 57, 80
10, 344040, Note_on_c, 4, 64, 80
10, 344159, Note_on_c, 4, 57, 0
10, 344159, Note_on_c, 4, 64, 0
10, 346920, Control_c, 4, 11, 87
10, 347160, Note_on_c, 4, 57, 68
10, 347619, Note_on_c, 4, 57, 0
10, 347640, Note_on_c, 4, 57, 68
10, 347859, Note_on_c, 4, 57, 0
10, 347880, Note_on_c, 4, 57, 68
10, 348099, Note_on_c, 4, 57, 0
10, 348120, Note_on_c, 4, 57, 68
10, 348579, Note_on_c, 4, 57, 0
10, 348600, Note_on_c, 4, 57, 68
10, 348819, Note_on_c, 4, 57, 0
10, 348840, Note_on_c, 4, 57, 68
10, 349059, Note_on_c, 4, 57, 0
10, 349080, Note_on_c, 4, 57, 68
10, 349539, Note_on_c, 4, 57, 0
10, 349560, Note_on_c, 4, 57, 68
10, 349779, Note_on_c, 4, 57, 0
10, 349800, Note_on_c, 4, 57, 68
10, 350019, Note_on_c, 4, 57, 0
10, 350040, Note_on_c, 4, 64, 68
10, 350040, Control_c, 4, 11, 87
10, 350100, Control_c, 4, 11, 88
10, 350160, Control_c, 4, 11, 89
10, 350220, Control_c, 4, 11, 90
10, 350280, Control_c, 4, 11, 91
10, 350340, Control_c, 4, 11, 92
10, 350400, Control_c, 4, 11, 93
10, 350460, Control_c, 4, 11, 94
10, 350499, Note_on_c, 4, 64, 0
10, 350520, Note_on_c, 4, 64, 68
10, 350520, Control_c, 4, 11, 95
10, 350580, Control_c, 4, 11, 96
10, 350640, Control_c, 4, 11, 97
10, 350700, Control_c, 4, 11, 98
10, 350760, Control_c, 4, 11, 99
10, 350820, Control_c, 4, 11, 100
10, 350880, Control_c, 4, 11, 101
10, 350940, Control_c, 4, 11, 102
10, 350979, Note_on_c, 4, 64, 0
10, 351000, Control_c, 4, 11, 103
10, 351000, Note_on_c, 4, 64, 68
10, 351060, Control_c, 4, 11, 104
10, 351120, Control_c, 4, 11, 105
10, 351180, Control_c, 4, 11, 106
10, 351240, Control_c, 4, 11, 107
10, 351300, Control_c, 4, 11, 108
10, 351360, Control_c, 4, 11, 109
10, 351420, Control_c, 4, 11, 110
10, 351459, Note_on_c, 4, 64, 0
10, 351480, Note_on_c, 4, 64, 68
10, 351480, Control_c, 4, 11, 111
10, 351540, Control_c, 4, 11, 112
10, 351600, Control_c, 4, 11, 113
10, 351660, Control_c, 4, 11, 114
10, 351720, Control_c, 4, 11, 115
10, 351780, Control_c, 4, 11, 116
10, 351840, Control_c, 4, 11, 117
10, 351900, Control_c, 4, 11, 118
10, 351939, Note_on_c, 4, 64, 0
10, 351960, Control_c, 4, 11, 119
10, 351960, Note_on_c, 4, 64, 68
10, 352020, Control_c, 4, 11, 120
10, 352080, Control_c, 4, 11, 121
10, 352140, Control_c, 4, 11, 122
10, 352200, Control_c, 4, 11, 123
10, 352260, Control_c, 4, 11, 124
10, 352320, Control_c, 4, 11, 125
10, 352419, Note_on_c, 4, 64, 0
10, 352438, Control_c, 4, 11, 67
10, 352440, Note_on_c, 4, 64, 80
10, 352899, Note_on_c, 4, 64, 0
10, 352920, Note_on_c, 4, 60, 80
10, 353400, Control_c, 4, 11, 67
10, 353440, Control_c, 4, 11, 70
10, 353480, Control_c, 4, 11, 74
10, 353520, Control_c, 4, 11, 77
10, 353560, Control_c, 4, 11, 80
10, 353600, Control_c, 4, 11, 84
10, 353619, Note_on_c, 4, 60, 0
10, 353640, Control_c, 4, 11, 87
10, 353640, Note_on_c, 4, 64, 80
10, 353680, Control_c, 4, 11, 90
10, 353720, Control_c, 4, 11, 94
10, 353760, Control_c, 4, 11, 97
10, 353800, Control_c, 4, 11, 100
10, 353840, Control_c, 4, 11, 104
10, 353859, Note_on_c, 4, 64, 0
10, 353880, Note_on_c, 4, 69, 80
10, 353880, Control_c, 4, 11, 107
10, 353920, Control_c, 4, 11, 110
10, 353960, Control_c, 4, 11, 114
10, 354000, Control_c, 4, 11, 117
10, 354040, Control_c, 4, 11, 120
10, 354080, Control_c, 4, 11, 124
10, 354118, Control_c, 4, 11, 127
10, 354180, Control_c, 4, 11, 67
10, 354600, Control_c, 4, 11, 67
10, 354660, Control_c, 4, 11, 68
10, 354720, Control_c, 4, 11, 69
10, 354780, Control_c, 4, 11, 70
10, 354840, Control_c, 4, 11, 71
10, 354900, Control_c, 4, 11, 72
10, 354960, Control_c, 4, 11, 73
10, 355020, Control_c, 4, 11, 74
10, 355080, Control_c, 4, 11, 75
10, 355140, Control_c, 4, 11, 76
10, 355200, Control_c, 4, 11, 77
10, 355260, Control_c, 4, 11, 78
10, 355320, Control_c, 4, 11, 79
10, 355380, Control_c, 4, 11, 80
10, 355440, Control_c, 4, 11, 81
10, 355500, Control_c, 4, 11, 82
10, 355560, Control_c, 4, 11, 83
10, 355620, Control_c, 4, 11, 84
10, 355680, Control_c, 4, 11, 85
10, 355740, Control_c, 4, 11, 86
10, 355800, Control_c, 4, 11, 87
10, 355860, Control_c, 4, 11, 88
10, 355920, Control_c, 4, 11, 89
10, 355980, Control_c, 4, 11, 90
10, 356019, Note_on_c, 4, 69, 0
10, 356040, Note_on_c, 4, 57, 80
10, 356040, Note_on_c, 4, 69, 80
10, 356040, Control_c, 4, 11, 91
10, 356100, Control_c, 4, 11, 92
10, 356160, Control_c, 4, 11, 93
10, 356220, Control_c, 4, 11, 94
10, 356280, Control_c, 4, 11, 95
10, 356340, Control_c, 4, 11, 96
10, 356400, Control_c, 4, 11, 97
10, 356460, Control_c, 4, 11, 98
10, 356520, Control_c, 4, 11, 99
10, 356580, Control_c, 4, 11, 100
10, 356640, Control_c, 4, 11, 101
10, 356700, Control_c, 4, 11, 102
10, 356760, Control_c, 4, 11, 103
10, 356820, Control_c, 4, 11, 104
10, 356880, Control_c, 4, 11, 105
10, 356940, Control_c, 4, 11, 106
10, 357000, Control_c, 4, 11, 107
10, 357060, Control_c, 4, 11, 108
10, 357120, Control_c, 4, 11, 109
10, 357180, Control_c, 4, 11, 110
10, 357240, Control_c, 4, 11, 111
10, 357300, Control_c, 4, 11, 112
10, 357360, Control_c, 4, 11, 113
10, 357420, Control_c, 4, 11, 114
10, 357480, Control_c, 4, 11, 115
10, 357540, Control_c, 4, 11, 116
10, 357600, Control_c, 4, 11, 117
10, 357660, Control_c, 4, 11, 118
10, 357720, Control_c, 4, 11, 119
10, 357780, Control_c, 4, 11, 120
10, 357840, Control_c, 4, 11, 121
10, 357900, Control_c, 4, 11, 122
10, 357960, Control_c, 4, 11, 123
10, 358020, Control_c, 4, 11, 124
10, 358080, Control_c, 4, 11, 125
10, 358140, Control_c, 4, 11, 127
10, 358199, Note_on_c, 4, 57, 0
10, 358199, Note_on_c, 4, 69, 0
10, 358200, Note_on_c, 4, 57, 80
10, 358200, Note_on_c, 4, 69, 80
10, 361299, Note_on_c, 4, 57, 0
10, 361299, Note_on_c, 4, 69, 0
10, 361320, Note_on_c, 4, 67, 80
10, 361409, Note_on_c, 4, 67, 0
10, 361440, Note_on_c, 4, 67, 80
10, 361529, Note_on_c, 4, 67, 0
10, 361560, Note_on_c, 4, 66, 80
10, 361649, Note_on_c, 4, 66, 0
10, 361680, Note_on_c, 4, 66, 80
10, 361769, Note_on_c, 4, 66, 0
10, 361800, Note_on_c, 4, 50, 80
10, 361800, Note_on_c, 4, 62, 80
10, 361860, Control_c, 4, 11, 67
10, 363720, Control_c, 4, 11, 67
10, 363784, Control_c, 4, 11, 68
10, 363848, Control_c, 4, 11, 69
10, 363912, Control_c, 4, 11, 70
10, 363976, Control_c, 4, 11, 71
10, 364040, Control_c, 4, 11, 72
10, 364104, Control_c, 4, 11, 73
10, 364168, Control_c, 4, 11, 74
10, 364232, Control_c, 4, 11, 75
10, 364296, Control_c, 4, 11, 76
10, 364360, Control_c, 4, 11, 77
10, 364424, Control_c, 4, 11, 78
10, 364488, Control_c, 4, 11, 79
10, 364552, Control_c, 4, 11, 80
10, 364616, Control_c, 4, 11, 81
10, 364680, Control_c, 4, 11, 82
10, 364744, Control_c, 4, 11, 83
10, 364808, Control_c, 4, 11, 84
10, 364872, Control_c, 4, 11, 85
10, 364899, Note_on_c, 4, 50, 0
10, 364899, Note_on_c, 4, 62, 0
10, 364920, Note_on_c, 4, 50, 80
10, 364920, Note_on_c, 4, 62, 80
10, 364936, Control_c, 4, 11, 86
10, 365000, Control_c, 4, 11, 87
10, 365064, Control_c, 4, 11, 88
10, 365128, Control_c, 4, 11, 89
10, 365192, Control_c, 4, 11, 90
10, 365256, Control_c, 4, 11, 91
10, 365320, Control_c, 4, 11, 92
10, 365379, Note_on_c, 4, 62, 0
10, 365384, Control_c, 4, 11, 93
10, 365400, Note_on_c, 4, 64, 80
10, 365448, Control_c, 4, 11, 94
10, 365512, Control_c, 4, 11, 95
10, 365576, Control_c, 4, 11, 96
10, 365619, Note_on_c, 4, 64, 0
10, 365640, Control_c, 4, 11, 97
10, 365640, Note_on_c, 4, 66, 80
10, 365704, Control_c, 4, 11, 98
10, 365768, Control_c, 4, 11, 99
10, 365832, Control_c, 4, 11, 100
10, 365859, Note_on_c, 4, 50, 0
10, 365859, Note_on_c, 4, 66, 0
10, 365880, Note_on_c, 4, 62, 80
10, 365880, Note_on_c, 4, 66, 80
10, 365896, Control_c, 4, 11, 101
10, 365960, Control_c, 4, 11, 102
10, 366024, Control_c, 4, 11, 103
10, 366088, Control_c, 4, 11, 104
10, 366152, Control_c, 4, 11, 105
10, 366216, Control_c, 4, 11, 106
10, 366280, Control_c, 4, 11, 107
10, 366339, Note_on_c, 4, 62, 0
10, 366339, Note_on_c, 4, 66, 0
10, 366344, Control_c, 4, 11, 108
10, 366360, Note_on_c, 4, 67, 80
10, 366360, Note_on_c, 4, 64, 80
10, 366408, Control_c, 4, 11, 109
10, 366472, Control_c, 4, 11, 110
10, 366536, Control_c, 4, 11, 111
10, 366579, Note_on_c, 4, 67, 0
10, 366579, Note_on_c, 4, 64, 0
10, 366600, Control_c, 4, 11, 112
10, 366600, Note_on_c, 4, 69, 80
10, 366600, Note_on_c, 4, 66, 80
10, 366664, Control_c, 4, 11, 113
10, 366728, Control_c, 4, 11, 114
10, 366792, Control_c, 4, 11, 115
10, 366819, Note_on_c, 4, 69, 0
10, 366819, Note_on_c, 4, 66, 0
10, 366840, Note_on_c, 4, 69, 80
10, 366840, Note_on_c, 4, 62, 80
10, 366856, Control_c, 4, 11, 116
10, 366920, Control_c, 4, 11, 117
10, 366984, Control_c, 4, 11, 118
10, 367048, Control_c, 4, 11, 119
10, 367112, Control_c, 4, 11, 120
10, 367176, Control_c, 4, 11, 121
10, 367240, Control_c, 4, 11, 122
10, 367299, Note_on_c, 4, 69, 0
10, 367299, Note_on_c, 4, 62, 0
10, 367304, Control_c, 4, 11, 123
10, 367320, Note_on_c, 4, 69, 80
10, 367320, Note_on_c, 4, 64, 80
10, 367368, Control_c, 4, 11, 124
10, 367432, Control_c, 4, 11, 125
10, 367496, Control_c, 4, 11, 127
10, 367539, Note_on_c, 4, 69, 0
10, 367539, Note_on_c, 4, 64, 0
10, 367560, Note_on_c, 4, 69, 80
10, 367739, Note_on_c, 4, 69, 0
10, 367800, Note_on_c, 4, 69, 80
10, 367979, Note_on_c, 4, 69, 0
10, 368040, Note_on_c, 4, 69, 80
10, 368219, Note_on_c, 4, 69, 0
10, 368280, Note_on_c, 4, 69, 80
10, 368459, Note_on_c, 4, 69, 0
10, 368520, Note_on_c, 4, 69, 80
10, 368520, Control_c, 4, 11, 127
10, 368560, Control_c, 4, 11, 125
10, 368600, Control_c, 4, 11, 122
10, 368640, Control_c, 4, 11, 120
10, 368680, Control_c, 4, 11, 117
10, 368699, Note_on_c, 4, 69, 0
10, 368720, Control_c, 4, 11, 115
10, 368760, Note_on_c, 4, 69, 80
10, 368760, Control_c, 4, 11, 112
10, 368800, Control_c, 4, 11, 110
10, 368840, Control_c, 4, 11, 107
10, 368880, Control_c, 4, 11, 105
10, 368920, Control_c, 4, 11, 102
10, 368939, Note_on_c, 4, 69, 0
10, 368960, Control_c, 4, 11, 100
10, 369000, Note_on_c, 4, 69, 80
10, 369000, Control_c, 4, 11, 97
10, 369040, Control_c, 4, 11, 95
10, 369080, Control_c, 4, 11, 92
10, 369120, Control_c, 4, 11, 90
10, 369160, Control_c, 4, 11, 87
10, 369179, Note_on_c, 4, 69, 0
10, 369200, Control_c, 4, 11, 85
10, 369240, Note_on_c, 4, 69, 80
10, 369240, Control_c, 4, 11, 82
10, 369280, Control_c, 4, 11, 80
10, 369320, Control_c, 4, 11, 77
10, 369360, Control_c, 4, 11, 75
10, 369400, Control_c, 4, 11, 72
10, 369419, Note_on_c, 4, 69, 0
10, 369440, Control_c, 4, 11, 70
10, 369478, Control_c, 4, 11, 67
10, 369480, Note_on_c, 4, 69, 80
10, 369599, Note_on_c, 4, 69, 0
10, 371610, Control_c, 4, 11, 89
10, 371640, Note_on_c, 4, 62, 92
10, 371640, Note_on_c, 4, 54, 92
10, 371655, Control_c, 4, 11, 90
10, 371700, Control_c, 4, 11, 91
10, 371745, Control_c, 4, 11, 92
10, 371790, Control_c, 4, 11, 93
10, 371835, Control_c, 4, 11, 94
10, 371880, Control_c, 4, 11, 95
10, 371925, Control_c, 4, 11, 96
10, 371970, Control_c, 4, 11, 97
10, 372015, Control_c, 4, 11, 98
10, 372060, Control_c, 4, 11, 99
10, 372099, Note_on_c, 4, 62, 0
10, 372099, Note_on_c, 4, 54, 0
10, 372105, Control_c, 4, 11, 100
10, 372120, Note_on_c, 4, 57, 92
10, 372120, Note_on_c, 4, 64, 92
10, 372150, Control_c, 4, 11, 101
10, 372195, Control_c, 4, 11, 102
10, 372240, Control_c, 4, 11, 103
10, 372285, Control_c, 4, 11, 104
10, 372330, Control_c, 4, 11, 105
10, 372339, Note_on_c, 4, 57, 0
10, 372339, Note_on_c, 4, 64, 0
10, 372360, Note_on_c, 4, 66, 92
10, 372360, Note_on_c, 4, 62, 92
10, 372375, Control_c, 4, 11, 106
10, 372420, Control_c, 4, 11, 107
10, 372465, Control_c, 4, 11, 108
10, 372510, Control_c, 4, 11, 109
10, 372555, Control_c, 4, 11, 110
10, 372579, Note_on_c, 4, 66, 0
10, 372579, Note_on_c, 4, 62, 0
10, 372600, Note_on_c, 4, 66, 92
10, 372600, Note_on_c, 4, 69, 92
10, 372600, Control_c, 4, 11, 111
10, 372645, Control_c, 4, 11, 112
10, 372690, Control_c, 4, 11, 113
10, 372735, Control_c, 4, 11, 114
10, 372780, Control_c, 4, 11, 115
10, 372825, Control_c, 4, 11, 116
10, 372870, Control_c, 4, 11, 117
10, 372915, Control_c, 4, 11, 118
10, 372960, Control_c, 4, 11, 119
10, 373005, Control_c, 4, 11, 120
10, 373050, Control_c, 4, 11, 121
10, 373059, Note_on_c, 4, 66, 0
10, 373059, Note_on_c, 4, 69, 0
10, 373080, Note_on_c, 4, 67, 92
10, 373080, Note_on_c, 4, 64, 92
10, 373095, Control_c, 4, 11, 122
10, 373140, Control_c, 4, 11, 123
10, 373185, Control_c, 4, 11, 124
10, 373230, Control_c, 4, 11, 125
10, 373275, Control_c, 4, 11, 127
10, 373299, Note_on_c, 4, 67, 0
10, 373299, Note_on_c, 4, 64, 0
10, 373320, Note_on_c, 4, 62, 92
10, 373320, Note_on_c, 4, 66, 92
10, 373499, Note_on_c, 4, 62, 0
10, 373499, Note_on_c, 4, 66, 0
10, 373560, Note_on_c, 4, 66, 92
10, 373560, Note_on_c, 4, 62, 92
10, 373739, Note_on_c, 4, 66, 0
10, 373739, Note_on_c, 4, 62, 0
10, 373800, Note_on_c, 4, 64, 92
10, 373800, Note_on_c, 4, 57, 92
10, 373979, Note_on_c, 4, 64, 0
10, 373979, Note_on_c, 4, 57, 0
10, 374040, Note_on_c, 4, 64, 92
10, 374040, Note_on_c, 4, 57, 92
10, 374219, Note_on_c, 4, 64, 0
10, 374219, Note_on_c, 4, 57, 0
10, 374280, Note_on_c, 4, 66, 92
10, 374280, Note_on_c, 4, 62, 92
10, 374342, Control_c, 4, 11, 126
10, 374405, Control_c, 4, 11, 125
10, 374459, Note_on_c, 4, 66, 0
10, 374459, Note_on_c, 4, 62, 0
10, 374467, Control_c, 4, 11, 124
10, 374520, Note_on_c, 4, 66, 92
10, 374520, Note_on_c, 4, 62, 92
10, 374530, Control_c, 4, 11, 123
10, 374592, Control_c, 4, 11, 122
10, 374654, Control_c, 4, 11, 121
10, 374699, Note_on_c, 4, 66, 0
10, 374699, Note_on_c, 4, 62, 0
10, 374717, Control_c, 4, 11, 120
10, 374760, Note_on_c, 4, 64, 92
10, 374760, Note_on_c, 4, 57, 92
10, 374779, Control_c, 4, 11, 119
10, 374842, Control_c, 4, 11, 118
10, 374904, Control_c, 4, 11, 117
10, 374939, Note_on_c, 4, 64, 0
10, 374939, Note_on_c, 4, 57, 0
10, 374966, Control_c, 4, 11, 116
10, 375000, Note_on_c, 4, 57, 92
10, 375000, Note_on_c, 4, 64, 92
10, 375029, Control_c, 4, 11, 115
10, 375091, Control_c, 4, 11, 114
10, 375154, Control_c, 4, 11, 113
10, 375179, Note_on_c, 4, 57, 0
10, 375179, Note_on_c, 4, 64, 0
10, 375216, Control_c, 4, 11, 112
10, 375240, Note_on_c, 4, 62, 92
10, 375240, Note_on_c, 4, 66, 92
10, 375278, Control_c, 4, 11, 111
10, 375341, Control_c, 4, 11, 110
10, 375403, Control_c, 4, 11, 109
10, 375419, Note_on_c, 4, 62, 0
10, 375419, Note_on_c, 4, 66, 0
10, 375466, Control_c, 4, 11, 108
10, 375480, Note_on_c, 4, 66, 92
10, 375480, Note_on_c, 4, 62, 92
10, 375528, Control_c, 4, 11, 107
10, 375590, Control_c, 4, 11, 106
10, 375653, Control_c, 4, 11, 105
10, 375659, Note_on_c, 4, 66, 0
10, 375659, Note_on_c, 4, 62, 0
10, 375715, Control_c, 4, 11, 104
10, 375720, Note_on_c, 4, 57, 92
10, 375720, Note_on_c, 4, 64, 92
10, 375778, Control_c, 4, 11, 103
10, 375840, Control_c, 4, 11, 102
10, 375899, Note_on_c, 4, 57, 0
10, 375899, Note_on_c, 4, 64, 0
10, 375902, Control_c, 4, 11, 101
10, 375960, Note_on_c, 4, 64, 92
10, 375960, Note_on_c, 4, 57, 92
10, 375965, Control_c, 4, 11, 100
10, 376027, Control_c, 4, 11, 99
10, 376090, Control_c, 4, 11, 98
10, 376139, Note_on_c, 4, 64, 0
10, 376139, Note_on_c, 4, 57, 0
10, 376152, Control_c, 4, 11, 97
10, 376200, Note_on_c, 4, 62, 92
10, 376200, Note_on_c, 4, 66, 92
10, 376214, Control_c, 4, 11, 96
10, 376277, Control_c, 4, 11, 95
10, 376339, Control_c, 4, 11, 94
10, 376379, Note_on_c, 4, 62, 0
10, 376379, Note_on_c, 4, 66, 0
10, 376402, Control_c, 4, 11, 93
10, 376440, Note_on_c, 4, 62, 92
10, 376440, Note_on_c, 4, 66, 92
10, 376464, Control_c, 4, 11, 92
10, 376526, Control_c, 4, 11, 91
10, 376589, Control_c, 4, 11, 90
10, 376619, Note_on_c, 4, 62, 0
10, 376619, Note_on_c, 4, 66, 0
10, 376651, Control_c, 4, 11, 89
10, 376680, Note_on_c, 4, 64, 92
10, 376680, Note_on_c, 4, 57, 92
10, 376714, Control_c, 4, 11, 88
10, 376776, Control_c, 4, 11, 87
10, 376838, Control_c, 4, 11, 86
10, 376859, Note_on_c, 4, 64, 0
10, 376859, Note_on_c, 4, 57, 0
10, 376901, Control_c, 4, 11, 85
10, 376920, Note_on_c, 4, 64, 92
10, 376920, Note_on_c, 4, 57, 92
10, 376963, Control_c, 4, 11, 84
10, 377026, Control_c, 4, 11, 83
10, 377088, Control_c, 4, 11, 82
10, 377099, Note_on_c, 4, 64, 0
10, 377099, Note_on_c, 4, 57, 0
10, 377150, Control_c, 4, 11, 81
10, 377160, Note_on_c, 4, 62, 92
10, 377160, Note_on_c, 4, 66, 92
10, 377213, Control_c, 4, 11, 80
10, 377275, Control_c, 4, 11, 79
10, 377338, Control_c, 4, 11, 78
10, 377399, Note_on_c, 4, 66, 0
10, 377400, Note_on_c, 4, 67, 92
10, 377400, Control_c, 4, 11, 77
10, 377462, Control_c, 4, 11, 76
10, 377525, Control_c, 4, 11, 75
10, 377587, Control_c, 4, 11, 74
10, 377650, Control_c, 4, 11, 73
10, 377712, Control_c, 4, 11, 72
10, 377774, Control_c, 4, 11, 71
10, 377837, Control_c, 4, 11, 70
10, 377899, Control_c, 4, 11, 69
10, 377962, Control_c, 4, 11, 68
10, 378024, Control_c, 4, 11, 67
10, 378086, Control_c, 4, 11, 66
10, 378099, Note_on_c, 4, 62, 0
10, 378099, Note_on_c, 4, 67, 0
10, 378120, Note_on_c, 4, 66, 92
10, 378120, Note_on_c, 4, 62, 92
10, 378149, Control_c, 4, 11, 65
10, 378211, Control_c, 4, 11, 64
10, 378274, Control_c, 4, 11, 63
10, 378336, Control_c, 4, 11, 62
10, 378359, Note_on_c, 4, 66, 0
10, 378360, Note_on_c, 4, 67, 92
10, 378398, Control_c, 4, 11, 61
10, 378461, Control_c, 4, 11, 60
10, 378523, Control_c, 4, 11, 59
10, 378586, Control_c, 4, 11, 58
10, 378648, Control_c, 4, 11, 57
10, 378710, Control_c, 4, 11, 56
10, 378773, Control_c, 4, 11, 55
10, 378835, Control_c, 4, 11, 54
10, 378898, Control_c, 4, 11, 53
10, 378960, Control_c, 4, 11, 52
10, 379022, Control_c, 4, 11, 51
10, 379059, Note_on_c, 4, 62, 0
10, 379059, Note_on_c, 4, 67, 0
10, 379080, Note_on_c, 4, 62, 92
10, 379080, Note_on_c, 4, 66, 92
10, 379085, Control_c, 4, 11, 50
10, 379147, Control_c, 4, 11, 49
10, 379210, Control_c, 4, 11, 48
10, 379272, Control_c, 4, 11, 47
10, 379319, Note_on_c, 4, 66, 0
10, 379320, Note_on_c, 4, 67, 92
10, 379334, Control_c, 4, 11, 46
10, 379397, Control_c, 4, 11, 45
10, 379459, Control_c, 4, 11, 44
10, 379522, Control_c, 4, 11, 43
10, 379584, Control_c, 4, 11, 42
10, 379646, Control_c, 4, 11, 41
10, 379709, Control_c, 4, 11, 40
10, 379771, Control_c, 4, 11, 39
10, 379834, Control_c, 4, 11, 38
10, 379896, Control_c, 4, 11, 37
10, 379958, Control_c, 4, 11, 36
10, 380021, Control_c, 4, 11, 35
10, 380083, Control_c, 4, 11, 34
10, 380146, Control_c, 4, 11, 33
10, 380208, Control_c, 4, 11, 32
10, 380270, Control_c, 4, 11, 31
10, 380333, Control_c, 4, 11, 30
10, 380395, Control_c, 4, 11, 29
10, 380458, Control_c, 4, 11, 28
10, 381209, Note_on_c, 4, 62, 0
10, 381209, Note_on_c, 4, 67, 0
10, 381600, Control_c, 4, 11, 127
10, 383040, Note_on_c, 4, 62, 92
10, 383204, Note_on_c, 4, 62, 0
10, 383220, Note_on_c, 4, 50, 92
10, 383264, Note_on_c, 4, 50, 0
10, 383280, Note_on_c, 4, 50, 92
10, 383399, Note_on_c, 4, 50, 0
10, 387000, Note_on_c, 4, 69, 32
10, 387119, Note_on_c, 4, 69, 0
10, 387360, Note_on_c, 4, 62, 32
10, 387479, Note_on_c, 4, 62, 0
10, 387720, Note_on_c, 4, 64, 32
10, 387839, Note_on_c, 4, 64, 0
10, 388080, Note_on_c, 4, 65, 32
10, 388199, Note_on_c, 4, 65, 0
10, 389880, Note_on_c, 4, 57, 32
10, 389880, Note_on_c, 4, 45, 32
10, 389999, Note_on_c, 4, 57, 0
10, 389999, Note_on_c, 4, 45, 0
10, 390240, Note_on_c, 4, 38, 32
10, 390240, Note_on_c, 4, 57, 32
10, 390359, Note_on_c, 4, 38, 0
10, 390359, Note_on_c, 4, 57, 0
10, 392400, Note_on_c, 4, 45, 32
10, 392400, Note_on_c, 4, 57, 32
10, 392519, Note_on_c, 4, 45, 0
10, 392519, Note_on_c, 4, 57, 0
10, 392760, Note_on_c, 4, 57, 32
10, 392760, Note_on_c, 4, 45, 32
10, 392879, Note_on_c, 4, 57, 0
10, 392879, Note_on_c, 4, 45, 0
10, 393120, Note_on_c, 4, 57, 32
10, 393120, Note_on_c, 4, 45, 32
10, 393239, Note_on_c, 4, 57, 0
10, 393239, Note_on_c, 4, 45, 0
10, 393480, Note_on_c, 4, 45, 32
10, 393480, Note_on_c, 4, 57, 32
10, 393599, Note_on_c, 4, 45, 0
10, 393599, Note_on_c, 4, 57, 0
10, 393840, Note_on_c, 4, 45, 32
10, 393840, Note_on_c, 4, 57, 32
10, 393959, Note_on_c, 4, 45, 0
10, 393959, Note_on_c, 4, 57, 0
10, 394200, Note_on_c, 4, 45, 32
10, 394200, Note_on_c, 4, 57, 32
10, 394319, Note_on_c, 4, 45, 0
10, 394319, Note_on_c, 4, 57, 0
10, 394560, Note_on_c, 4, 57, 32
10, 394560, Note_on_c, 4, 45, 32
10, 394679, Note_on_c, 4, 57, 0
10, 394679, Note_on_c, 4, 45, 0
10, 394920, Note_on_c, 4, 45, 32
10, 394920, Note_on_c, 4, 57, 32
10, 395039, Note_on_c, 4, 45, 0
10, 395039, Note_on_c, 4, 57, 0
10, 395280, Note_on_c, 4, 57, 32
10, 395280, Note_on_c, 4, 45, 32
10, 395399, Note_on_c, 4, 57, 0
10, 395399, Note_on_c, 4, 45, 0
10, 395880, Note_on_c, 4, 57, 32
10, 395880, Note_on_c, 4, 45, 32
10, 395999, Note_on_c, 4, 57, 0
10, 395999, Note_on_c, 4, 45, 0
10, 396240, Note_on_c, 4, 45, 32
10, 396240, Note_on_c, 4, 57, 32
10, 396359, Note_on_c, 4, 45, 0
10, 396359, Note_on_c, 4, 57, 0
10, 396600, Note_on_c, 4, 45, 32
10, 396600, Note_on_c, 4, 57, 32
10, 396719, Note_on_c, 4, 45, 0
10, 396719, Note_on_c, 4, 57, 0
10, 396960, Note_on_c, 4, 45, 32
10, 396960, Note_on_c, 4, 57, 32
10, 397064, Note_on_c, 4, 45, 0
10, 397064, Note_on_c, 4, 57, 0
10, 397078, Control_c, 4, 11, 27
10, 397080, Note_on_c, 4, 57, 92
10, 397080, Note_on_c, 4, 45, 92
10, 397123, Control_c, 4, 11, 28
10, 397166, Control_c, 4, 11, 29
10, 397210, Control_c, 4, 11, 30
10, 397253, Control_c, 4, 11, 31
10, 397296, Control_c, 4, 11, 32
10, 397339, Control_c, 4, 11, 33
10, 397382, Control_c, 4, 11, 34
10, 397426, Control_c, 4, 11, 35
10, 397469, Control_c, 4, 11, 36
10, 397512, Control_c, 4, 11, 37
10, 397555, Control_c, 4, 11, 38
10, 397598, Control_c, 4, 11, 39
10, 397642, Control_c, 4, 11, 40
10, 397685, Control_c, 4, 11, 41
10, 397728, Control_c, 4, 11, 42
10, 397771, Control_c, 4, 11, 43
10, 397814, Control_c, 4, 11, 44
10, 397858, Control_c, 4, 11, 45
10, 397901, Control_c, 4, 11, 46
10, 397944, Control_c, 4, 11, 47
10, 397987, Control_c, 4, 11, 48
10, 398030, Control_c, 4, 11, 49
10, 398074, Control_c, 4, 11, 50
10, 398117, Control_c, 4, 11, 51
10, 398160, Control_c, 4, 11, 52
10, 398203, Control_c, 4, 11, 53
10, 398246, Control_c, 4, 11, 54
10, 398290, Control_c, 4, 11, 55
10, 398333, Control_c, 4, 11, 56
10, 398376, Control_c, 4, 11, 57
10, 398419, Control_c, 4, 11, 58
10, 398462, Control_c, 4, 11, 59
10, 398506, Control_c, 4, 11, 60
10, 398549, Control_c, 4, 11, 61
10, 398592, Control_c, 4, 11, 62
10, 398635, Control_c, 4, 11, 63
10, 398678, Control_c, 4, 11, 64
10, 398722, Control_c, 4, 11, 65
10, 398765, Control_c, 4, 11, 66
10, 398808, Control_c, 4, 11, 67
10, 398851, Control_c, 4, 11, 68
10, 398894, Control_c, 4, 11, 69
10, 398938, Control_c, 4, 11, 70
10, 398981, Control_c, 4, 11, 71
10, 399024, Control_c, 4, 11, 72
10, 399067, Control_c, 4, 11, 73
10, 399110, Control_c, 4, 11, 74
10, 399154, Control_c, 4, 11, 75
10, 399197, Control_c, 4, 11, 76
10, 399240, Control_c, 4, 11, 77
10, 399283, Control_c, 4, 11, 78
10, 399326, Control_c, 4, 11, 79
10, 399370, Control_c, 4, 11, 80
10, 399413, Control_c, 4, 11, 81
10, 399456, Control_c, 4, 11, 82
10, 399499, Control_c, 4, 11, 83
10, 399542, Control_c, 4, 11, 84
10, 399586, Control_c, 4, 11, 85
10, 399629, Control_c, 4, 11, 86
10, 399672, Control_c, 4, 11, 87
10, 399715, Control_c, 4, 11, 88
10, 399758, Control_c, 4, 11, 89
10, 399802, Control_c, 4, 11, 90
10, 399845, Control_c, 4, 11, 91
10, 399888, Control_c, 4, 11, 92
10, 399931, Control_c, 4, 11, 93
10, 399974, Control_c, 4, 11, 94
10, 400018, Control_c, 4, 11, 95
10, 400061, Control_c, 4, 11, 96
10, 400104, Control_c, 4, 11, 97
10, 400147, Control_c, 4, 11, 98
10, 400190, Control_c, 4, 11, 99
10, 400234, Control_c, 4, 11, 100
10, 400277, Control_c, 4, 11, 101
10, 400320, Control_c, 4, 11, 102
10, 400363, Control_c, 4, 11, 103
10, 400406, Control_c, 4, 11, 104
10, 400450, Control_c, 4, 11, 105
10, 400493, Control_c, 4, 11, 106
10, 400536, Control_c, 4, 11, 107
10, 400579, Control_c, 4, 11, 108
10, 400622, Control_c, 4, 11, 109
10, 400666, Control_c, 4, 11, 110
10, 400709, Control_c, 4, 11, 111
10, 400752, Control_c, 4, 11, 112
10, 400795, Control_c, 4, 11, 113
10, 400838, Control_c, 4, 11, 114
10, 400882, Control_c, 4, 11, 115
10, 400925, Control_c, 4, 11, 116
10, 400968, Control_c, 4, 11, 117
10, 401011, Control_c, 4, 11, 118
10, 401054, Control_c, 4, 11, 119
10, 401098, Control_c, 4, 11, 120
10, 401141, Control_c, 4, 11, 121
10, 401184, Control_c, 4, 11, 122
10, 401227, Control_c, 4, 11, 123
10, 401270, Control_c, 4, 11, 124
10, 401314, Control_c, 4, 11, 125
10, 401357, Control_c, 4, 11, 127
10, 401384, Note_on_c, 4, 57, 0
10, 401384, Note_on_c, 4, 45, 0
10, 401400, Note_on_c, 4, 57, 92
10, 401400, Note_on_c, 4, 69, 92
10, 401504, Note_on_c, 4, 57, 0
10, 401504, Note_on_c, 4, 69, 0
10, 401520, Note_on_c, 4, 57, 92
10, 401520, Note_on_c, 4, 69, 92
10, 401624, Note_on_c, 4, 57, 0
10, 401624, Note_on_c, 4, 69, 0
10, 401640, Note_on_c, 4, 57, 92
10, 401640, Note_on_c, 4, 69, 92
10, 401744, Note_on_c, 4, 57, 0
10, 401744, Note_on_c, 4, 69, 0
10, 401760, Note_on_c, 4, 69, 92
10, 401760, Note_on_c, 4, 57, 92
10, 401864, Note_on_c, 4, 69, 0
10, 401864, Note_on_c, 4, 57, 0
10, 401880, Note_on_c, 4, 57, 92
10, 401880, Note_on_c, 4, 69, 92
10, 401984, Note_on_c, 4, 57, 0
10, 401984, Note_on_c, 4, 69, 0
10, 402000, Note_on_c, 4, 57, 92
10, 402000, Note_on_c, 4, 69, 92
10, 402104, Note_on_c, 4, 57, 0
10, 402104, Note_on_c, 4, 69, 0
10, 402120, Note_on_c, 4, 69, 92
10, 402120, Note_on_c, 4, 57, 92
10, 402224, Note_on_c, 4, 69, 0
10, 402224, Note_on_c, 4, 57, 0
10, 402240, Note_on_c, 4, 69, 92
10, 402240, Note_on_c, 4, 57, 92
10, 402344, Note_on_c, 4, 69, 0
10, 402344, Note_on_c, 4, 57, 0
10, 402360, Note_on_c, 4, 69, 92
10, 402360, Note_on_c, 4, 57, 92
10, 402464, Note_on_c, 4, 69, 0
10, 402464, Note_on_c, 4, 57, 0
10, 402480, Note_on_c, 4, 69, 92
10, 402480, Note_on_c, 4, 57, 92
10, 402584, Note_on_c, 4, 69, 0
10, 402584, Note_on_c, 4, 57, 0
10, 402600, Note_on_c, 4, 69, 92
10, 402600, Note_on_c, 4, 57, 92
10, 402704, Note_on_c, 4, 69, 0
10, 402704, Note_on_c, 4, 57, 0
10, 402720, Note_on_c, 4, 69, 92
10, 402720, Note_on_c, 4, 57, 92
10, 402824, Note_on_c, 4, 69, 0
10, 402824, Note_on_c, 4, 57, 0
10, 402840, Note_on_c, 4, 50, 80
10, 402840, Note_on_c, 4, 67, 80
10, 402944, Note_on_c, 4, 50, 0
10, 402944, Note_on_c, 4, 67, 0
10, 402960, Note_on_c, 4, 67, 80
10, 402960, Note_on_c, 4, 50, 80
10, 403064, Note_on_c, 4, 67, 0
10, 403064, Note_on_c, 4, 50, 0
10, 403080, Note_on_c, 4, 67, 80
10, 403080, Note_on_c, 4, 50, 80
10, 403184, Note_on_c, 4, 67, 0
10, 403184, Note_on_c, 4, 50, 0
10, 403200, Note_on_c, 4, 50, 80
10, 403200, Note_on_c, 4, 62, 80
10, 403304, Note_on_c, 4, 50, 0
10, 403304, Note_on_c, 4, 62, 0
10, 403320, Note_on_c, 4, 69, 80
10, 403320, Note_on_c, 4, 57, 80
10, 403424, Note_on_c, 4, 69, 0
10, 403424, Note_on_c, 4, 57, 0
10, 403440, Note_on_c, 4, 57, 80
10, 403440, Note_on_c, 4, 69, 80
10, 403544, Note_on_c, 4, 57, 0
10, 403544, Note_on_c, 4, 69, 0
10, 403560, Note_on_c, 4, 69, 80
10, 403560, Note_on_c, 4, 57, 80
10, 403664, Note_on_c, 4, 69, 0
10, 403664, Note_on_c, 4, 57, 0
10, 403680, Note_on_c, 4, 69, 80
10, 403680, Note_on_c, 4, 57, 80
10, 403784, Note_on_c, 4, 69, 0
10, 403784, Note_on_c, 4, 57, 0
10, 403800, Note_on_c, 4, 57, 80
10, 403800, Note_on_c, 4, 69, 80
10, 403904, Note_on_c, 4, 57, 0
10, 403904, Note_on_c, 4, 69, 0
10, 403920, Note_on_c, 4, 57, 80
10, 403920, Note_on_c, 4, 69, 80
10, 404024, Note_on_c, 4, 57, 0
10, 404024, Note_on_c, 4, 69, 0
10, 404040, Note_on_c, 4, 62, 80
10, 404040, Note_on_c, 4, 69, 80
10, 404144, Note_on_c, 4, 62, 0
10, 404144, Note_on_c, 4, 69, 0
10, 404160, Note_on_c, 4, 69, 80
10, 404160, Note_on_c, 4, 62, 80
10, 404264, Note_on_c, 4, 69, 0
10, 404264, Note_on_c, 4, 62, 0
10, 404280, Note_on_c, 4, 67, 80
10, 404280, Note_on_c, 4, 62, 80
10, 404384, Note_on_c, 4, 67, 0
10, 404384, Note_on_c, 4, 62, 0
10, 404400, Note_on_c, 4, 67, 80
10, 404400, Note_on_c, 4, 62, 80
10, 404504, Note_on_c, 4, 67, 0
10, 404504, Note_on_c, 4, 62, 0
10, 404520, Note_on_c, 4, 62, 80
10, 404520, Note_on_c, 4, 67, 80
10, 404624, Note_on_c, 4, 62, 0
10, 404624, Note_on_c, 4, 67, 0
10, 404640, Note_on_c, 4, 57, 80
10, 404640, Note_on_c, 4, 69, 80
10, 404744, Note_on_c, 4, 57, 0
10, 404744, Note_on_c, 4, 69, 0
10, 404760, Note_on_c, 4, 57, 80
10, 404760, Note_on_c, 4, 69, 80
10, 404864, Note_on_c, 4, 57, 0
10, 404864, Note_on_c, 4, 69, 0
10, 404880, Note_on_c, 4, 57, 80
10, 404880, Note_on_c, 4, 69, 80
10, 404984, Note_on_c, 4, 57, 0
10, 404984, Note_on_c, 4, 69, 0
10, 405000, Note_on_c, 4, 57, 80
10, 405000, Note_on_c, 4, 69, 80
10, 405104, Note_on_c, 4, 57, 0
10, 405104, Note_on_c, 4, 69, 0
10, 405120, Note_on_c, 4, 57, 80
10, 405120, Note_on_c, 4, 69, 80
10, 405224, Note_on_c, 4, 57, 0
10, 405224, Note_on_c, 4, 69, 0
10, 405240, Note_on_c, 4, 69, 80
10, 405240, Note_on_c, 4, 57, 80
10, 405344, Note_on_c, 4, 69, 0
10, 405344, Note_on_c, 4, 57, 0
10, 405360, Note_on_c, 4, 57, 80
10, 405360, Note_on_c, 4, 69, 80
10, 405464, Note_on_c, 4, 57, 0
10, 405464, Note_on_c, 4, 69, 0
10, 405480, Note_on_c, 4, 65, 80
10, 405480, Note_on_c, 4, 69, 80
10, 405584, Note_on_c, 4, 65, 0
10, 405584, Note_on_c, 4, 69, 0
10, 405600, Note_on_c, 4, 67, 80
10, 405600, Note_on_c, 4, 65, 80
10, 405704, Note_on_c, 4, 67, 0
10, 405704, Note_on_c, 4, 65, 0
10, 405720, Note_on_c, 4, 65, 80
10, 405720, Note_on_c, 4, 67, 80
10, 405824, Note_on_c, 4, 65, 0
10, 405824, Note_on_c, 4, 67, 0
10, 405840, Note_on_c, 4, 67, 80
10, 405840, Note_on_c, 4, 65, 80
10, 405944, Note_on_c, 4, 67, 0
10, 405944, Note_on_c, 4, 65, 0
10, 405960, Note_on_c, 4, 65, 80
10, 405960, Note_on_c, 4, 67, 80
10, 406064, Note_on_c, 4, 65, 0
10, 406064, Note_on_c, 4, 67, 0
10, 406080, Note_on_c, 4, 67, 80
10, 406080, Note_on_c, 4, 64, 80
10, 406184, Note_on_c, 4, 67, 0
10, 406184, Note_on_c, 4, 64, 0
10, 406200, Note_on_c, 4, 67, 80
10, 406304, Note_on_c, 4, 67, 0
10, 406320, Note_on_c, 4, 67, 80
10, 406424, Note_on_c, 4, 67, 0
10, 406440, Note_on_c, 4, 67, 80
10, 406544, Note_on_c, 4, 67, 0
10, 406560, Note_on_c, 4, 67, 80
10, 406664, Note_on_c, 4, 67, 0
10, 406680, Note_on_c, 4, 67, 80
10, 406784, Note_on_c, 4, 67, 0
10, 406800, Note_on_c, 4, 67, 80
10, 406904, Note_on_c, 4, 67, 0
10, 406920, Note_on_c, 4, 67, 80
10, 407024, Note_on_c, 4, 67, 0
10, 407040, Note_on_c, 4, 67, 80
10, 407144, Note_on_c, 4, 67, 0
10, 407160, Note_on_c, 4, 67, 80
10, 407264, Note_on_c, 4, 67, 0
10, 407280, Note_on_c, 4, 67, 80
10, 407384, Note_on_c, 4, 67, 0
10, 407400, Note_on_c, 4, 67, 80
10, 407504, Note_on_c, 4, 67, 0
10, 407520, Note_on_c, 4, 67, 80
10, 407624, Note_on_c, 4, 67, 0
10, 407640, Note_on_c, 4, 67, 80
10, 407744, Note_on_c, 4, 67, 0
10, 407760, Note_on_c, 4, 67, 80
10, 407864, Note_on_c, 4, 67, 0
10, 407880, Note_on_c, 4, 67, 80
10, 407984, Note_on_c, 4, 67, 0
10, 408000, Note_on_c, 4, 67, 80
10, 408104, Note_on_c, 4, 67, 0
10, 408120, Note_on_c, 4, 67, 80
10, 408224, Note_on_c, 4, 67, 0
10, 408240, Note_on_c, 4, 67, 80
10, 408344, Note_on_c, 4, 67, 0
10, 408360, Note_on_c, 4, 67, 80
10, 408464, Note_on_c, 4, 67, 0
10, 408480, Note_on_c, 4, 67, 80
10, 408584, Note_on_c, 4, 67, 0
10, 408600, Note_on_c, 4, 67, 80
10, 408704, Note_on_c, 4, 67, 0
10, 414360, Note_on_c, 4, 60, 92
10, 414704, Note_on_c, 4, 60, 0
10, 414720, Note_on_c, 4, 60, 92
10, 414839, Note_on_c, 4, 60, 0
10, 414960, Note_on_c, 4, 60, 92
10, 415064, Note_on_c, 4, 60, 0
10, 415080, Note_on_c, 4, 60, 92
10, 415199, Note_on_c, 4, 60, 0
10, 415320, Note_on_c, 4, 60, 92
10, 415424, Note_on_c, 4, 60, 0
10, 415440, Note_on_c, 4, 60, 92
10, 415559, Note_on_c, 4, 60, 0
10, 415680, Note_on_c, 4, 60, 92
10, 415784, Note_on_c, 4, 60, 0
10, 415800, Note_on_c, 4, 60, 92
10, 416144, Note_on_c, 4, 60, 0
10, 416160, Note_on_c, 4, 60, 92
10, 416279, Note_on_c, 4, 60, 0
10, 416400, Note_on_c, 4, 60, 92
10, 416504, Note_on_c, 4, 60, 0
10, 416520, Note_on_c, 4, 60, 92
10, 416639, Note_on_c, 4, 60, 0
10, 416760, Note_on_c, 4, 60, 92
10, 416864, Note_on_c, 4, 60, 0
10, 416880, Note_on_c, 4, 60, 92
10, 416999, Note_on_c, 4, 60, 0
10, 417120, Note_on_c, 4, 60, 92
10, 417224, Note_on_c, 4, 60, 0
10, 417240, Note_on_c, 4, 60, 92
10, 417344, Note_on_c, 4, 60, 0
10, 417360, Note_on_c, 4, 60, 92
10, 417464, Note_on_c, 4, 60, 0
10, 417480, Note_on_c, 4, 60, 92
10, 417584, Note_on_c, 4, 60, 0
10, 417600, Note_on_c, 4, 60, 92
10, 417704, Note_on_c, 4, 60, 0
10, 417720, Note_on_c, 4, 60, 92
10, 417824, Note_on_c, 4, 60, 0
10, 417840, Note_on_c, 4, 60, 92
10, 417944, Note_on_c, 4, 60, 0
10, 417960, Note_on_c, 4, 60, 92
10, 418064, Note_on_c, 4, 60, 0
10, 418080, Note_on_c, 4, 60, 92
10, 418184, Note_on_c, 4, 60, 0
10, 418200, Note_on_c, 4, 60, 92
10, 418304, Note_on_c, 4, 60, 0
10, 418320, Note_on_c, 4, 60, 92
10, 418424, Note_on_c, 4, 60, 0
10, 418440, Note_on_c, 4, 60, 92
10, 418544, Note_on_c, 4, 60, 0
10, 418560, Note_on_c, 4, 60, 92
10, 418664, Note_on_c, 4, 60, 0
10, 418680, Note_on_c, 4, 60, 92
10, 418784, Note_on_c, 4, 60, 0
10, 418800, Note_on_c, 4, 60, 92
10, 418904, Note_on_c, 4, 60, 0
10, 418920, Note_on_c, 4, 60, 92
10, 419024, Note_on_c, 4, 60, 0
10, 419040, Note_on_c, 4, 60, 92
10, 419144, Note_on_c, 4, 60, 0
10, 419160, Note_on_c, 4, 60, 92
10, 419264, Note_on_c, 4, 60, 0
10, 419280, Note_on_c, 4, 60, 92
10, 419384, Note_on_c, 4, 60, 0
10, 419400, Note_on_c, 4, 60, 92
10, 419504, Note_on_c, 4, 60, 0
10, 419520, Note_on_c, 4, 60, 92
10, 419624, Note_on_c, 4, 60, 0
10, 419640, Note_on_c, 4, 60, 92
10, 419744, Note_on_c, 4, 60, 0
10, 419760, Note_on_c, 4, 60, 92
10, 419864, Note_on_c, 4, 60, 0
10, 419880, Note_on_c, 4, 60, 92
10, 419984, Note_on_c, 4, 60, 0
10, 420000, Note_on_c, 4, 60, 92
10, 420104, Note_on_c, 4, 60, 0
10, 420120, Note_on_c, 4, 64, 92
10, 420284, Note_on_c, 4, 64, 0
10, 420300, Note_on_c, 4, 64, 92
10, 420344, Note_on_c, 4, 64, 0
10, 420360, Note_on_c, 4, 64, 92
10, 420464, Note_on_c, 4, 64, 0
10, 420480, Note_on_c, 4, 64, 92
10, 420584, Note_on_c, 4, 64, 0
10, 421560, Note_on_c, 4, 50, 92
10, 421560, Note_on_c, 4, 62, 92
10, 421724, Note_on_c, 4, 50, 0
10, 421724, Note_on_c, 4, 62, 0
10, 421740, Note_on_c, 4, 50, 92
10, 421784, Note_on_c, 4, 50, 0
10, 421800, Note_on_c, 4, 50, 92
10, 421904, Note_on_c, 4, 50, 0
10, 421920, Note_on_c, 4, 62, 92
10, 421920, Note_on_c, 4, 50, 92
10, 422039, Note_on_c, 4, 62, 0
10, 422039, Note_on_c, 4, 50, 0
10, 422280, Note_on_c, 4, 67, 92
10, 422444, Note_on_c, 4, 67, 0
10, 422460, Note_on_c, 4, 67, 92
10, 422504, Note_on_c, 4, 67, 0
10, 422520, Note_on_c, 4, 67, 92
10, 422624, Note_on_c, 4, 67, 0
10, 422640, Note_on_c, 4, 67, 92
10, 422759, Note_on_c, 4, 67, 0
10, 424800, Control_c, 4, 11, 67
10, 425160, Note_on_c, 4, 60, 80
10, 425160, Control_c, 4, 11, 67
10, 425190, Control_c, 4, 11, 68
10, 425220, Control_c, 4, 11, 70
10, 425250, Control_c, 4, 11, 71
10, 425280, Control_c, 4, 11, 72
10, 425310, Control_c, 4, 11, 73
10, 425340, Control_c, 4, 11, 75
10, 425370, Control_c, 4, 11, 76
10, 425400, Control_c, 4, 11, 77
10, 425430, Control_c, 4, 11, 78
10, 425460, Control_c, 4, 11, 80
10, 425490, Control_c, 4, 11, 81
10, 425520, Control_c, 4, 11, 82
10, 425550, Control_c, 4, 11, 83
10, 425580, Control_c, 4, 11, 85
10, 425610, Control_c, 4, 11, 86
10, 425640, Control_c, 4, 11, 87
10, 425670, Control_c, 4, 11, 88
10, 425700, Control_c, 4, 11, 90
10, 425730, Control_c, 4, 11, 91
10, 425760, Control_c, 4, 11, 92
10, 425790, Control_c, 4, 11, 93
10, 425820, Control_c, 4, 11, 95
10, 425850, Control_c, 4, 11, 96
10, 425880, Control_c, 4, 11, 97
10, 425910, Control_c, 4, 11, 98
10, 425940, Control_c, 4, 11, 100
10, 425970, Control_c, 4, 11, 101
10, 426000, Control_c, 4, 11, 102
10, 426030, Control_c, 4, 11, 103
10, 426060, Control_c, 4, 11, 105
10, 426090, Control_c, 4, 11, 106
10, 426120, Control_c, 4, 11, 107
10, 426150, Control_c, 4, 11, 108
10, 426180, Control_c, 4, 11, 110
10, 426210, Control_c, 4, 11, 111
10, 426240, Control_c, 4, 11, 112
10, 426270, Control_c, 4, 11, 113
10, 426300, Control_c, 4, 11, 115
10, 426330, Control_c, 4, 11, 116
10, 426360, Control_c, 4, 11, 117
10, 426390, Control_c, 4, 11, 118
10, 426420, Control_c, 4, 11, 120
10, 426450, Control_c, 4, 11, 121
10, 426480, Control_c, 4, 11, 122
10, 426510, Control_c, 4, 11, 123
10, 426540, Control_c, 4, 11, 125
10, 426570, Control_c, 4, 11, 127
10, 426584, Note_on_c, 4, 60, 0
10, 426600, Note_on_c, 4, 60, 80
10, 426704, Note_on_c, 4, 60, 0
10, 426720, Note_on_c, 4, 60, 80
10, 426824, Note_on_c, 4, 60, 0
10, 426840, Note_on_c, 4, 60, 80
10, 426944, Note_on_c, 4, 60, 0
10, 426960, Note_on_c, 4, 62, 80
10, 426960, Note_on_c, 4, 50, 80
10, 427064, Note_on_c, 4, 62, 0
10, 427064, Note_on_c, 4, 50, 0
10, 427080, Note_on_c, 4, 62, 80
10, 427080, Note_on_c, 4, 50, 80
10, 427184, Note_on_c, 4, 62, 0
10, 427184, Note_on_c, 4, 50, 0
10, 427200, Note_on_c, 4, 62, 80
10, 427200, Note_on_c, 4, 50, 80
10, 427304, Note_on_c, 4, 62, 0
10, 427304, Note_on_c, 4, 50, 0
10, 427320, Note_on_c, 4, 64, 80
10, 427424, Note_on_c, 4, 64, 0
10, 427440, Note_on_c, 4, 67, 80
10, 427544, Note_on_c, 4, 67, 0
10, 427560, Note_on_c, 4, 69, 80
10, 427664, Note_on_c, 4, 69, 0
10, 427680, Note_on_c, 4, 69, 80
10, 427784, Note_on_c, 4, 69, 0
10, 427800, Note_on_c, 4, 67, 80
10, 427904, Note_on_c, 4, 67, 0
10, 427920, Note_on_c, 4, 67, 80
10, 428024, Note_on_c, 4, 67, 0
10, 428040, Note_on_c, 4, 67, 80
10, 428159, Note_on_c, 4, 67, 0
10, 428760, Note_on_c, 4, 64, 80
10, 428864, Note_on_c, 4, 64, 0
10, 428880, Note_on_c, 4, 67, 80
10, 428984, Note_on_c, 4, 67, 0
10, 429000, Note_on_c, 4, 67, 80
10, 429104, Note_on_c, 4, 67, 0
10, 429120, Note_on_c, 4, 67, 80
10, 429224, Note_on_c, 4, 67, 0
10, 429240, Note_on_c, 4, 67, 80
10, 429344, Note_on_c, 4, 67, 0
10, 429360, Note_on_c, 4, 67, 80
10, 429464, Note_on_c, 4, 67, 0
10, 429480, Note_on_c, 4, 67, 80
10, 429584, Note_on_c, 4, 67, 0
10, 429600, Note_on_c, 4, 67, 80
10, 429704, Note_on_c, 4, 67, 0
10, 429720, Note_on_c, 4, 67, 80
10, 429824, Note_on_c, 4, 67, 0
10, 429840, Note_on_c, 4, 67, 80
10, 429944, Note_on_c, 4, 67, 0
10, 429960, Note_on_c, 4, 67, 80
10, 430064, Note_on_c, 4, 67, 0
10, 430080, Note_on_c, 4, 67, 80
10, 430184, Note_on_c, 4, 67, 0
10, 430200, Note_on_c, 4, 67, 80
10, 430304, Note_on_c, 4, 67, 0
10, 430320, Note_on_c, 4, 67, 80
10, 430424, Note_on_c, 4, 67, 0
10, 430440, Note_on_c, 4, 67, 80
10, 430544, Note_on_c, 4, 67, 0
10, 430560, Note_on_c, 4, 67, 80
10, 430664, Note_on_c, 4, 67, 0
10, 430680, Note_on_c, 4, 67, 80
10, 430784, Note_on_c, 4, 67, 0
10, 430800, Note_on_c, 4, 67, 80
10, 430904, Note_on_c, 4, 67, 0
10, 432360, Note_on_c, 4, 60, 32
10, 432524, Note_on_c, 4, 60, 0
10, 432540, Note_on_c, 4, 60, 32
10, 432584, Note_on_c, 4, 60, 0
10, 432600, Note_on_c, 4, 60, 32
10, 432704, Note_on_c, 4, 60, 0
10, 432720, Note_on_c, 4, 60, 32
10, 432720, Note_on_c, 4, 57, 32
10, 432839, Note_on_c, 4, 60, 0
10, 432839, Note_on_c, 4, 57, 0
10, 433080, Note_on_c, 4, 60, 32
10, 433080, Note_on_c, 4, 57, 32
10, 433244, Note_on_c, 4, 60, 0
10, 433244, Note_on_c, 4, 57, 0
10, 433260, Note_on_c, 4, 60, 32
10, 433260, Note_on_c, 4, 57, 32
10, 433304, Note_on_c, 4, 60, 0
10, 433304, Note_on_c, 4, 57, 0
10, 433320, Note_on_c, 4, 60, 32
10, 433320, Note_on_c, 4, 57, 32
10, 433424, Note_on_c, 4, 60, 0
10, 433424, Note_on_c, 4, 57, 0
10, 433440, Note_on_c, 4, 57, 32
10, 433440, Note_on_c, 4, 62, 32
10, 433559, Note_on_c, 4, 57, 0
10, 433559, Note_on_c, 4, 62, 0
10, 438120, Note_on_c, 4, 69, 32
10, 438239, Note_on_c, 4, 69, 0
10, 438480, Note_on_c, 4, 62, 32
10, 438599, Note_on_c, 4, 62, 0
10, 438840, Note_on_c, 4, 64, 32
10, 438959, Note_on_c, 4, 64, 0
10, 439200, Note_on_c, 4, 65, 32
10, 439319, Note_on_c, 4, 65, 0
10, 441000, Note_on_c, 4, 45, 32
10, 441000, Note_on_c, 4, 57, 32
10, 441119, Note_on_c, 4, 45, 0
10, 441119, Note_on_c, 4, 57, 0
10, 441360, Note_on_c, 4, 38, 32
10, 441360, Note_on_c, 4, 57, 32
10, 441479, Note_on_c, 4, 38, 0
10, 441479, Note_on_c, 4, 57, 0
10, 443520, Note_on_c, 4, 57, 32
10, 443520, Note_on_c, 4, 45, 32
10, 443639, Note_on_c, 4, 57, 0
10, 443639, Note_on_c, 4, 45, 0
10, 443880, Note_on_c, 4, 45, 32
10, 443880, Note_on_c, 4, 57, 32
10, 443999, Note_on_c, 4, 45, 0
10, 443999, Note_on_c, 4, 57, 0
10, 444240, Note_on_c, 4, 57, 32
10, 444240, Note_on_c, 4, 45, 32
10, 444359, Note_on_c, 4, 57, 0
10, 444359, Note_on_c, 4, 45, 0
10, 444600, Note_on_c, 4, 57, 32
10, 444600, Note_on_c, 4, 45, 32
10, 444719, Note_on_c, 4, 57, 0
10, 444719, Note_on_c, 4, 45, 0
10, 444960, Note_on_c, 4, 57, 32
10, 444960, Note_on_c, 4, 45, 32
10, 445079, Note_on_c, 4, 57, 0
10, 445079, Note_on_c, 4, 45, 0
10, 445320, Note_on_c, 4, 45, 32
10, 445320, Note_on_c, 4, 57, 32
10, 445439, Note_on_c, 4, 45, 0
10, 445439, Note_on_c, 4, 57, 0
10, 445680, Note_on_c, 4, 45, 32
10, 445680, Note_on_c, 4, 57, 32
10, 445799, Note_on_c, 4, 45, 0
10, 445799, Note_on_c, 4, 57, 0
10, 446040, Note_on_c, 4, 45, 32
10, 446040, Note_on_c, 4, 57, 32
10, 446159, Note_on_c, 4, 45, 0
10, 446159, Note_on_c, 4, 57, 0
10, 446400, Note_on_c, 4, 45, 32
10, 446400, Note_on_c, 4, 57, 32
10, 446519, Note_on_c, 4, 45, 0
10, 446519, Note_on_c, 4, 57, 0
10, 447000, Note_on_c, 4, 57, 32
10, 447000, Note_on_c, 4, 45, 32
10, 447119, Note_on_c, 4, 57, 0
10, 447119, Note_on_c, 4, 45, 0
10, 447360, Note_on_c, 4, 45, 32
10, 447360, Note_on_c, 4, 57, 32
10, 447479, Note_on_c, 4, 45, 0
10, 447479, Note_on_c, 4, 57, 0
10, 447720, Note_on_c, 4, 45, 32
10, 447720, Note_on_c, 4, 57, 32
10, 447839, Note_on_c, 4, 45, 0
10, 447839, Note_on_c, 4, 57, 0
10, 448080, Note_on_c, 4, 57, 32
10, 448080, Note_on_c, 4, 45, 32
10, 448184, Note_on_c, 4, 57, 0
10, 448184, Note_on_c, 4, 45, 0
10, 448198, Control_c, 4, 11, 27
10, 448200, Note_on_c, 4, 45, 92
10, 448200, Note_on_c, 4, 57, 92
10, 448243, Control_c, 4, 11, 28
10, 448286, Control_c, 4, 11, 29
10, 448330, Control_c, 4, 11, 30
10, 448373, Control_c, 4, 11, 31
10, 448416, Control_c, 4, 11, 32
10, 448459, Control_c, 4, 11, 33
10, 448502, Control_c, 4, 11, 34
10, 448546, Control_c, 4, 11, 35
10, 448589, Control_c, 4, 11, 36
10, 448632, Control_c, 4, 11, 37
10, 448675, Control_c, 4, 11, 38
10, 448718, Control_c, 4, 11, 39
10, 448762, Control_c, 4, 11, 40
10, 448805, Control_c, 4, 11, 41
10, 448848, Control_c, 4, 11, 42
10, 448891, Control_c, 4, 11, 43
10, 448934, Control_c, 4, 11, 44
10, 448978, Control_c, 4, 11, 45
10, 449021, Control_c, 4, 11, 46
10, 449064, Control_c, 4, 11, 47
10, 449107, Control_c, 4, 11, 48
10, 449150, Control_c, 4, 11, 49
10, 449194, Control_c, 4, 11, 50
10, 449237, Control_c, 4, 11, 51
10, 449280, Control_c, 4, 11, 52
10, 449323, Control_c, 4, 11, 53
10, 449366, Control_c, 4, 11, 54
10, 449410, Control_c, 4, 11, 55
10, 449453, Control_c, 4, 11, 56
10, 449496, Control_c, 4, 11, 57
10, 449539, Control_c, 4, 11, 58
10, 449582, Control_c, 4, 11, 59
10, 449626, Control_c, 4, 11, 60
10, 449669, Control_c, 4, 11, 61
10, 449712, Control_c, 4, 11, 62
10, 449755, Control_c, 4, 11, 63
10, 449798, Control_c, 4, 11, 64
10, 449842, Control_c, 4, 11, 65
10, 449885, Control_c, 4, 11, 66
10, 449928, Control_c, 4, 11, 67
10, 449971, Control_c, 4, 11, 68
10, 450014, Control_c, 4, 11, 69
10, 450058, Control_c, 4, 11, 70
10, 450101, Control_c, 4, 11, 71
10, 450144, Control_c, 4, 11, 72
10, 450187, Control_c, 4, 11, 73
10, 450230, Control_c, 4, 11, 74
10, 450274, Control_c, 4, 11, 75
10, 450317, Control_c, 4, 11, 76
10, 450360, Control_c, 4, 11, 77
10, 450403, Control_c, 4, 11, 78
10, 450446, Control_c, 4, 11, 79
10, 450490, Control_c, 4, 11, 80
10, 450533, Control_c, 4, 11, 81
10, 450576, Control_c, 4, 11, 82
10, 450619, Control_c, 4, 11, 83
10, 450662, Control_c, 4, 11, 84
10, 450706, Control_c, 4, 11, 85
10, 450749, Control_c, 4, 11, 86
10, 450792, Control_c, 4, 11, 87
10, 450835, Control_c, 4, 11, 88
10, 450878, Control_c, 4, 11, 89
10, 450922, Control_c, 4, 11, 90
10, 450965, Control_c, 4, 11, 91
10, 451008, Control_c, 4, 11, 92
10, 451051, Control_c, 4, 11, 93
10, 451094, Control_c, 4, 11, 94
10, 451138, Control_c, 4, 11, 95
10, 451181, Control_c, 4, 11, 96
10, 451224, Control_c, 4, 11, 97
10, 451267, Control_c, 4, 11, 98
10, 451310, Control_c, 4, 11, 99
10, 451354, Control_c, 4, 11, 100
10, 451397, Control_c, 4, 11, 101
10, 451440, Control_c, 4, 11, 102
10, 451483, Control_c, 4, 11, 103
10, 451526, Control_c, 4, 11, 104
10, 451570, Control_c, 4, 11, 105
10, 451613, Control_c, 4, 11, 106
10, 451656, Control_c, 4, 11, 107
10, 451699, Control_c, 4, 11, 108
10, 451742, Control_c, 4, 11, 109
10, 451786, Control_c, 4, 11, 110
10, 451829, Control_c, 4, 11, 111
10, 451872, Control_c, 4, 11, 112
10, 451915, Control_c, 4, 11, 113
10, 451958, Control_c, 4, 11, 114
10, 452002, Control_c, 4, 11, 115
10, 452045, Control_c, 4, 11, 116
10, 452088, Control_c, 4, 11, 117
10, 452131, Control_c, 4, 11, 118
10, 452174, Control_c, 4, 11, 119
10, 452218, Control_c, 4, 11, 120
10, 452261, Control_c, 4, 11, 121
10, 452304, Control_c, 4, 11, 122
10, 452347, Control_c, 4, 11, 123
10, 452390, Control_c, 4, 11, 124
10, 452434, Control_c, 4, 11, 125
10, 452477, Control_c, 4, 11, 127
10, 452504, Note_on_c, 4, 45, 0
10, 452504, Note_on_c, 4, 57, 0
10, 452520, Note_on_c, 4, 69, 92
10, 452520, Note_on_c, 4, 57, 92
10, 452624, Note_on_c, 4, 69, 0
10, 452624, Note_on_c, 4, 57, 0
10, 452640, Note_on_c, 4, 57, 92
10, 452640, Note_on_c, 4, 69, 92
10, 452744, Note_on_c, 4, 57, 0
10, 452744, Note_on_c, 4, 69, 0
10, 452760, Note_on_c, 4, 69, 92
10, 452760, Note_on_c, 4, 57, 92
10, 452864, Note_on_c, 4, 69, 0
10, 452864, Note_on_c, 4, 57, 0
10, 452880, Note_on_c, 4, 57, 92
10, 452880, Note_on_c, 4, 69, 92
10, 452984, Note_on_c, 4, 57, 0
10, 452984, Note_on_c, 4, 69, 0
10, 453000, Note_on_c, 4, 57, 92
10, 453000, Note_on_c, 4, 69, 92
10, 453104, Note_on_c, 4, 57, 0
10, 453104, Note_on_c, 4, 69, 0
10, 453120, Note_on_c, 4, 57, 92
10, 453120, Note_on_c, 4, 69, 92
10, 453224, Note_on_c, 4, 57, 0
10, 453224, Note_on_c, 4, 69, 0
10, 453240, Note_on_c, 4, 57, 92
10, 453240, Note_on_c, 4, 69, 92
10, 453344, Note_on_c, 4, 57, 0
10, 453344, Note_on_c, 4, 69, 0
10, 453360, Note_on_c, 4, 69, 92
10, 453360, Note_on_c, 4, 57, 92
10, 453464, Note_on_c, 4, 69, 0
10, 453464, Note_on_c, 4, 57, 0
10, 453480, Note_on_c, 4, 57, 92
10, 453480, Note_on_c, 4, 69, 92
10, 453584, Note_on_c, 4, 57, 0
10, 453584, Note_on_c, 4, 69, 0
10, 453600, Note_on_c, 4, 69, 92
10, 453600, Note_on_c, 4, 57, 92
10, 453704, Note_on_c, 4, 69, 0
10, 453704, Note_on_c, 4, 57, 0
10, 453720, Note_on_c, 4, 69, 92
10, 453720, Note_on_c, 4, 57, 92
10, 453824, Note_on_c, 4, 69, 0
10, 453824, Note_on_c, 4, 57, 0
10, 453840, Note_on_c, 4, 69, 92
10, 453840, Note_on_c, 4, 57, 92
10, 453944, Note_on_c, 4, 69, 0
10, 453944, Note_on_c, 4, 57, 0
10, 453960, Note_on_c, 4, 50, 80
10, 453960, Note_on_c, 4, 67, 80
10, 454064, Note_on_c, 4, 50, 0
10, 454064, Note_on_c, 4, 67, 0
10, 454080, Note_on_c, 4, 67, 80
10, 454080, Note_on_c, 4, 50, 80
10, 454184, Note_on_c, 4, 67, 0
10, 454184, Note_on_c, 4, 50, 0
10, 454200, Note_on_c, 4, 50, 80
10, 454200, Note_on_c, 4, 67, 80
10, 454304, Note_on_c, 4, 50, 0
10, 454304, Note_on_c, 4, 67, 0
10, 454320, Note_on_c, 4, 50, 80
10, 454320, Note_on_c, 4, 62, 80
10, 454424, Note_on_c, 4, 50, 0
10, 454424, Note_on_c, 4, 62, 0
10, 454440, Note_on_c, 4, 69, 80
10, 454440, Note_on_c, 4, 57, 80
10, 454544, Note_on_c, 4, 69, 0
10, 454544, Note_on_c, 4, 57, 0
10, 454560, Note_on_c, 4, 69, 80
10, 454560, Note_on_c, 4, 57, 80
10, 454664, Note_on_c, 4, 69, 0
10, 454664, Note_on_c, 4, 57, 0
10, 454680, Note_on_c, 4, 57, 80
10, 454680, Note_on_c, 4, 69, 80
10, 454784, Note_on_c, 4, 57, 0
10, 454784, Note_on_c, 4, 69, 0
10, 454800, Note_on_c, 4, 57, 80
10, 454800, Note_on_c, 4, 69, 80
10, 454904, Note_on_c, 4, 57, 0
10, 454904, Note_on_c, 4, 69, 0
10, 454920, Note_on_c, 4, 69, 80
10, 454920, Note_on_c, 4, 57, 80
10, 455024, Note_on_c, 4, 69, 0
10, 455024, Note_on_c, 4, 57, 0
10, 455040, Note_on_c, 4, 57, 80
10, 455040, Note_on_c, 4, 69, 80
10, 455144, Note_on_c, 4, 57, 0
10, 455144, Note_on_c, 4, 69, 0
10, 455160, Note_on_c, 4, 62, 80
10, 455160, Note_on_c, 4, 69, 80
10, 455264, Note_on_c, 4, 62, 0
10, 455264, Note_on_c, 4, 69, 0
10, 455280, Note_on_c, 4, 69, 80
10, 455280, Note_on_c, 4, 62, 80
10, 455384, Note_on_c, 4, 69, 0
10, 455384, Note_on_c, 4, 62, 0
10, 455400, Note_on_c, 4, 62, 80
10, 455400, Note_on_c, 4, 67, 80
10, 455504, Note_on_c, 4, 62, 0
10, 455504, Note_on_c, 4, 67, 0
10, 455520, Note_on_c, 4, 62, 80
10, 455520, Note_on_c, 4, 67, 80
10, 455624, Note_on_c, 4, 62, 0
10, 455624, Note_on_c, 4, 67, 0
10, 455640, Note_on_c, 4, 62, 80
10, 455640, Note_on_c, 4, 67, 80
10, 455744, Note_on_c, 4, 62, 0
10, 455744, Note_on_c, 4, 67, 0
10, 455760, Note_on_c, 4, 69, 80
10, 455760, Note_on_c, 4, 57, 80
10, 455864, Note_on_c, 4, 69, 0
10, 455864, Note_on_c, 4, 57, 0
10, 455880, Note_on_c, 4, 69, 80
10, 455880, Note_on_c, 4, 57, 80
10, 455984, Note_on_c, 4, 69, 0
10, 455984, Note_on_c, 4, 57, 0
10, 456000, Note_on_c, 4, 69, 80
10, 456000, Note_on_c, 4, 57, 80
10, 456104, Note_on_c, 4, 69, 0
10, 456104, Note_on_c, 4, 57, 0
10, 456120, Note_on_c, 4, 69, 80
10, 456120, Note_on_c, 4, 57, 80
10, 456224, Note_on_c, 4, 69, 0
10, 456224, Note_on_c, 4, 57, 0
10, 456240, Note_on_c, 4, 69, 80
10, 456240, Note_on_c, 4, 57, 80
10, 456344, Note_on_c, 4, 69, 0
10, 456344, Note_on_c, 4, 57, 0
10, 456360, Note_on_c, 4, 69, 80
10, 456360, Note_on_c, 4, 57, 80
10, 456464, Note_on_c, 4, 69, 0
10, 456464, Note_on_c, 4, 57, 0
10, 456480, Note_on_c, 4, 69, 80
10, 456480, Note_on_c, 4, 57, 80
10, 456584, Note_on_c, 4, 69, 0
10, 456584, Note_on_c, 4, 57, 0
10, 456600, Note_on_c, 4, 65, 80
10, 456600, Note_on_c, 4, 69, 80
10, 456704, Note_on_c, 4, 65, 0
10, 456704, Note_on_c, 4, 69, 0
10, 456720, Note_on_c, 4, 65, 80
10, 456720, Note_on_c, 4, 67, 80
10, 456824, Note_on_c, 4, 65, 0
10, 456824, Note_on_c, 4, 67, 0
10, 456840, Note_on_c, 4, 65, 80
10, 456840, Note_on_c, 4, 67, 80
10, 456944, Note_on_c, 4, 65, 0
10, 456944, Note_on_c, 4, 67, 0
10, 456960, Note_on_c, 4, 65, 80
10, 456960, Note_on_c, 4, 67, 80
10, 457064, Note_on_c, 4, 65, 0
10, 457064, Note_on_c, 4, 67, 0
10, 457080, Note_on_c, 4, 67, 80
10, 457080, Note_on_c, 4, 65, 80
10, 457184, Note_on_c, 4, 67, 0
10, 457184, Note_on_c, 4, 65, 0
10, 457200, Note_on_c, 4, 64, 80
10, 457200, Note_on_c, 4, 67, 80
10, 457304, Note_on_c, 4, 64, 0
10, 457304, Note_on_c, 4, 67, 0
10, 457320, Note_on_c, 4, 67, 80
10, 457424, Note_on_c, 4, 67, 0
10, 457440, Note_on_c, 4, 67, 80
10, 457544, Note_on_c, 4, 67, 0
10, 457560, Note_on_c, 4, 67, 80
10, 457664, Note_on_c, 4, 67, 0
10, 457680, Note_on_c, 4, 67, 80
10, 457784, Note_on_c, 4, 67, 0
10, 457800, Note_on_c, 4, 67, 80
10, 457904, Note_on_c, 4, 67, 0
10, 457920, Note_on_c, 4, 67, 80
10, 458024, Note_on_c, 4, 67, 0
10, 458040, Note_on_c, 4, 67, 80
10, 458144, Note_on_c, 4, 67, 0
10, 458160, Note_on_c, 4, 67, 80
10, 458264, Note_on_c, 4, 67, 0
10, 458280, Note_on_c, 4, 67, 80
10, 458384, Note_on_c, 4, 67, 0
10, 458400, Note_on_c, 4, 67, 80
10, 458504, Note_on_c, 4, 67, 0
10, 458520, Note_on_c, 4, 67, 80
10, 458624, Note_on_c, 4, 67, 0
10, 458640, Note_on_c, 4, 67, 80
10, 458744, Note_on_c, 4, 67, 0
10, 458760, Note_on_c, 4, 67, 80
10, 458864, Note_on_c, 4, 67, 0
10, 458880, Note_on_c, 4, 67, 80
10, 458984, Note_on_c, 4, 67, 0
10, 459000, Note_on_c, 4, 67, 80
10, 459104, Note_on_c, 4, 67, 0
10, 459120, Note_on_c, 4, 67, 80
10, 459224, Note_on_c, 4, 67, 0
10, 459240, Note_on_c, 4, 67, 80
10, 459344, Note_on_c, 4, 67, 0
10, 459360, Note_on_c, 4, 67, 80
10, 459464, Note_on_c, 4, 67, 0
10, 459480, Note_on_c, 4, 67, 80
10, 459584, Note_on_c, 4, 67, 0
10, 459600, Note_on_c, 4, 67, 80
10, 459704, Note_on_c, 4, 67, 0
10, 459720, Note_on_c, 4, 67, 80
10, 459824, Note_on_c, 4, 67, 0
10, 465480, Note_on_c, 4, 60, 92
10, 465824, Note_on_c, 4, 60, 0
10, 465840, Note_on_c, 4, 60, 92
10, 465959, Note_on_c, 4, 60, 0
10, 466080, Note_on_c, 4, 60, 92
10, 466184, Note_on_c, 4, 60, 0
10, 466200, Note_on_c, 4, 60, 92
10, 466319, Note_on_c, 4, 60, 0
10, 466440, Note_on_c, 4, 60, 92
10, 466544, Note_on_c, 4, 60, 0
10, 466560, Note_on_c, 4, 60, 92
10, 466679, Note_on_c, 4, 60, 0
10, 466800, Note_on_c, 4, 60, 92
10, 466904, Note_on_c, 4, 60, 0
10, 466920, Note_on_c, 4, 60, 92
10, 467264, Note_on_c, 4, 60, 0
10, 467280, Note_on_c, 4, 60, 92
10, 467399, Note_on_c, 4, 60, 0
10, 467520, Note_on_c, 4, 60, 92
10, 467624, Note_on_c, 4, 60, 0
10, 467640, Note_on_c, 4, 60, 92
10, 467759, Note_on_c, 4, 60, 0
10, 467880, Note_on_c, 4, 60, 92
10, 467984, Note_on_c, 4, 60, 0
10, 468000, Note_on_c, 4, 60, 92
10, 468119, Note_on_c, 4, 60, 0
10, 468240, Note_on_c, 4, 60, 92
10, 468344, Note_on_c, 4, 60, 0
10, 468360, Note_on_c, 4, 60, 92
10, 468464, Note_on_c, 4, 60, 0
10, 468480, Note_on_c, 4, 60, 92
10, 468584, Note_on_c, 4, 60, 0
10, 468600, Note_on_c, 4, 60, 92
10, 468704, Note_on_c, 4, 60, 0
10, 468720, Note_on_c, 4, 60, 92
10, 468824, Note_on_c, 4, 60, 0
10, 468840, Note_on_c, 4, 60, 92
10, 468944, Note_on_c, 4, 60, 0
10, 468960, Note_on_c, 4, 60, 92
10, 469064, Note_on_c, 4, 60, 0
10, 469080, Note_on_c, 4, 60, 92
10, 469184, Note_on_c, 4, 60, 0
10, 469200, Note_on_c, 4, 60, 92
10, 469304, Note_on_c, 4, 60, 0
10, 469320, Note_on_c, 4, 60, 92
10, 469424, Note_on_c, 4, 60, 0
10, 469440, Note_on_c, 4, 60, 92
10, 469544, Note_on_c, 4, 60, 0
10, 469560, Note_on_c, 4, 60, 92
10, 469664, Note_on_c, 4, 60, 0
10, 469680, Note_on_c, 4, 60, 92
10, 469784, Note_on_c, 4, 60, 0
10, 469800, Note_on_c, 4, 60, 92
10, 469904, Note_on_c, 4, 60, 0
10, 469920, Note_on_c, 4, 60, 92
10, 470024, Note_on_c, 4, 60, 0
10, 470040, Note_on_c, 4, 60, 92
10, 470144, Note_on_c, 4, 60, 0
10, 470160, Note_on_c, 4, 60, 92
10, 470264, Note_on_c, 4, 60, 0
10, 470280, Note_on_c, 4, 60, 92
10, 470384, Note_on_c, 4, 60, 0
10, 470400, Note_on_c, 4, 60, 92
10, 470504, Note_on_c, 4, 60, 0
10, 470520, Note_on_c, 4, 60, 92
10, 470624, Note_on_c, 4, 60, 0
10, 470640, Note_on_c, 4, 60, 92
10, 470744, Note_on_c, 4, 60, 0
10, 470760, Note_on_c, 4, 60, 92
10, 470864, Note_on_c, 4, 60, 0
10, 470880, Note_on_c, 4, 60, 92
10, 470984, Note_on_c, 4, 60, 0
10, 471000, Note_on_c, 4, 60, 92
10, 471104, Note_on_c, 4, 60, 0
10, 471120, Note_on_c, 4, 60, 92
10, 471224, Note_on_c, 4, 60, 0
10, 471240, Note_on_c, 4, 64, 92
10, 471404, Note_on_c, 4, 64, 0
10, 471420, Note_on_c, 4, 64, 92
10, 471464, Note_on_c, 4, 64, 0
10, 471480, Note_on_c, 4, 64, 92
10, 471584, Note_on_c, 4, 64, 0
10, 471600, Note_on_c, 4, 64, 92
10, 471704, Note_on_c, 4, 64, 0
10, 472680, Note_on_c, 4, 50, 92
10, 472680, Note_on_c, 4, 62, 92
10, 472844, Note_on_c, 4, 50, 0
10, 472844, Note_on_c, 4, 62, 0
10, 472860, Note_on_c, 4, 50, 92
10, 472904, Note_on_c, 4, 50, 0
10, 472920, Note_on_c, 4, 50, 92
10, 473024, Note_on_c, 4, 50, 0
10, 473040, Note_on_c, 4, 62, 92
10, 473040, Note_on_c, 4, 50, 92
10, 473159, Note_on_c, 4, 62, 0
10, 473159, Note_on_c, 4, 50, 0
10, 473400, Note_on_c, 4, 67, 92
10, 473564, Note_on_c, 4, 67, 0
10, 473580, Note_on_c, 4, 67, 92
10, 473624, Note_on_c, 4, 67, 0
10, 473640, Note_on_c, 4, 67, 92
10, 473744, Note_on_c, 4, 67, 0
10, 473760, Note_on_c, 4, 67, 92
10, 473879, Note_on_c, 4, 67, 0
10, 475920, Control_c, 4, 11, 67
10, 476280, Control_c, 4, 11, 67
10, 476280, Note_on_c, 4, 60, 80
10, 476310, Control_c, 4, 11, 68
10, 476340, Control_c, 4, 11, 70
10, 476370, Control_c, 4, 11, 71
10, 476400, Control_c, 4, 11, 72
10, 476430, Control_c, 4, 11, 73
10, 476460, Control_c, 4, 11, 75
10, 476490, Control_c, 4, 11, 76
10, 476520, Control_c, 4, 11, 77
10, 476550, Control_c, 4, 11, 78
10, 476580, Control_c, 4, 11, 80
10, 476610, Control_c, 4, 11, 81
10, 476640, Control_c, 4, 11, 82
10, 476670, Control_c, 4, 11, 83
10, 476700, Control_c, 4, 11, 85
10, 476730, Control_c, 4, 11, 86
10, 476760, Control_c, 4, 11, 87
10, 476790, Control_c, 4, 11, 88
10, 476820, Control_c, 4, 11, 90
10, 476850, Control_c, 4, 11, 91
10, 476880, Control_c, 4, 11, 92
10, 476910, Control_c, 4, 11, 93
10, 476940, Control_c, 4, 11, 95
10, 476970, Control_c, 4, 11, 96
10, 477000, Control_c, 4, 11, 97
10, 477030, Control_c, 4, 11, 98
10, 477060, Control_c, 4, 11, 100
10, 477090, Control_c, 4, 11, 101
10, 477120, Control_c, 4, 11, 102
10, 477150, Control_c, 4, 11, 103
10, 477180, Control_c, 4, 11, 105
10, 477210, Control_c, 4, 11, 106
10, 477240, Control_c, 4, 11, 107
10, 477270, Control_c, 4, 11, 108
10, 477300, Control_c, 4, 11, 110
10, 477330, Control_c, 4, 11, 111
10, 477360, Control_c, 4, 11, 112
10, 477390, Control_c, 4, 11, 113
10, 477420, Control_c, 4, 11, 115
10, 477450, Control_c, 4, 11, 116
10, 477480, Control_c, 4, 11, 117
10, 477510, Control_c, 4, 11, 118
10, 477540, Control_c, 4, 11, 120
10, 477570, Control_c, 4, 11, 121
10, 477600, Control_c, 4, 11, 122
10, 477630, Control_c, 4, 11, 123
10, 477660, Control_c, 4, 11, 125
10, 477690, Control_c, 4, 11, 127
10, 477704, Note_on_c, 4, 60, 0
10, 477720, Note_on_c, 4, 60, 80
10, 477824, Note_on_c, 4, 60, 0
10, 477840, Note_on_c, 4, 60, 80
10, 477944, Note_on_c, 4, 60, 0
10, 477960, Note_on_c, 4, 60, 80
10, 478064, Note_on_c, 4, 60, 0
10, 478080, Note_on_c, 4, 50, 80
10, 478080, Note_on_c, 4, 62, 80
10, 478184, Note_on_c, 4, 50, 0
10, 478184, Note_on_c, 4, 62, 0
10, 478200, Note_on_c, 4, 62, 80
10, 478200, Note_on_c, 4, 50, 80
10, 478304, Note_on_c, 4, 62, 0
10, 478304, Note_on_c, 4, 50, 0
10, 478320, Note_on_c, 4, 62, 80
10, 478320, Note_on_c, 4, 50, 80
10, 478424, Note_on_c, 4, 62, 0
10, 478424, Note_on_c, 4, 50, 0
10, 478440, Note_on_c, 4, 64, 80
10, 478544, Note_on_c, 4, 64, 0
10, 478560, Note_on_c, 4, 67, 80
10, 478664, Note_on_c, 4, 67, 0
10, 478680, Note_on_c, 4, 69, 80
10, 478784, Note_on_c, 4, 69, 0
10, 478800, Note_on_c, 4, 69, 80
10, 478904, Note_on_c, 4, 69, 0
10, 478920, Note_on_c, 4, 67, 80
10, 479024, Note_on_c, 4, 67, 0
10, 479040, Note_on_c, 4, 67, 80
10, 479144, Note_on_c, 4, 67, 0
10, 479160, Note_on_c, 4, 67, 80
10, 479279, Note_on_c, 4, 67, 0
10, 479880, Note_on_c, 4, 64, 80
10, 479984, Note_on_c, 4, 64, 0
10, 480000, Note_on_c, 4, 67, 80
10, 480104, Note_on_c, 4, 67, 0
10, 480120, Note_on_c, 4, 67, 80
10, 480224, Note_on_c, 4, 67, 0
10, 480240, Note_on_c, 4, 67, 80
10, 480344, Note_on_c, 4, 67, 0
10, 480360, Note_on_c, 4, 67, 80
10, 480464, Note_on_c, 4, 67, 0
10, 480480, Note_on_c, 4, 67, 80
10, 480584, Note_on_c, 4, 67, 0
10, 480600, Note_on_c, 4, 67, 80
10, 480704, Note_on_c, 4, 67, 0
10, 480720, Note_on_c, 4, 67, 80
10, 480824, Note_on_c, 4, 67, 0
10, 480840, Note_on_c, 4, 67, 80
10, 480944, Note_on_c, 4, 67, 0
10, 480960, Note_on_c, 4, 67, 80
10, 481064, Note_on_c, 4, 67, 0
10, 481080, Note_on_c, 4, 67, 80
10, 481184, Note_on_c, 4, 67, 0
10, 481200, Note_on_c, 4, 67, 80
10, 481304, Note_on_c, 4, 67, 0
10, 481320, Note_on_c, 4, 67, 80
10, 481424, Note_on_c, 4, 67, 0
10, 481440, Note_on_c, 4, 67, 80
10, 481544, Note_on_c, 4, 67, 0
10, 481560, Note_on_c, 4, 67, 80
10, 481664, Note_on_c, 4, 67, 0
10, 481680, Note_on_c, 4, 67, 80
10, 481784, Note_on_c, 4, 67, 0
10, 481800, Note_on_c, 4, 67, 80
10, 481904, Note_on_c, 4, 67, 0
10, 481920, Note_on_c, 4, 67, 80
10, 482024, Note_on_c, 4, 67, 0
10, 483480, Note_on_c, 4, 60, 32
10, 483644, Note_on_c, 4, 60, 0
10, 483660, Note_on_c, 4, 60, 32
10, 483704, Note_on_c, 4, 60, 0
10, 483720, Note_on_c, 4, 60, 32
10, 483824, Note_on_c, 4, 60, 0
10, 483840, Note_on_c, 4, 57, 32
10, 483840, Note_on_c, 4, 60, 32
10, 483959, Note_on_c, 4, 57, 0
10, 483959, Note_on_c, 4, 60, 0
10, 484200, Note_on_c, 4, 57, 32
10, 484200, Note_on_c, 4, 60, 32
10, 484364, Note_on_c, 4, 57, 0
10, 484364, Note_on_c, 4, 60, 0
10, 484380, Note_on_c, 4, 57, 32
10, 484380, Note_on_c, 4, 60, 32
10, 484424, Note_on_c, 4, 57, 0
10, 484424, Note_on_c, 4, 60, 0
10, 484440, Note_on_c, 4, 57, 32
10, 484440, Note_on_c, 4, 60, 32
10, 484544, Note_on_c, 4, 57, 0
10, 484544, Note_on_c, 4, 60, 0
10, 484560, Note_on_c, 4, 62, 32
10, 484560, Note_on_c, 4, 57, 32
10, 484679, Note_on_c, 4, 62, 0
10, 484679, Note_on_c, 4, 57, 0
10, 486360, Note_on_c, 4, 62, 32
10, 486360, Note_on_c, 4, 50, 32
10, 486524, Note_on_c, 4, 62, 0
10, 486524, Note_on_c, 4, 50, 0
10, 486540, Note_on_c, 4, 50, 32
10, 486540, Note_on_c, 4, 62, 32
10, 486584, Note_on_c, 4, 50, 0
10, 486584, Note_on_c, 4, 62, 0
10, 486600, Note_on_c, 4, 62, 32
10, 486600, Note_on_c, 4, 50, 32
10, 486704, Note_on_c, 4, 62, 0
10, 486704, Note_on_c, 4, 50, 0
10, 486720, Note_on_c, 4, 50, 32
10, 486720, Note_on_c, 4, 62, 32
10, 486839, Note_on_c, 4, 50, 0
10, 486839, Note_on_c, 4, 62, 0
10, 491400, Note_on_c, 4, 53, 56
10, 491400, Note_on_c, 4, 65, 56
10, 491564, Note_on_c, 4, 53, 0
10, 491564, Note_on_c, 4, 65, 0
10, 491580, Note_on_c, 4, 53, 58
10, 491580, Note_on_c, 4, 65, 58
10, 491624, Note_on_c, 4, 53, 0
10, 491624, Note_on_c, 4, 65, 0
10, 491640, Note_on_c, 4, 65, 58
10, 491640, Note_on_c, 4, 53, 58
10, 491744, Note_on_c, 4, 65, 0
10, 491744, Note_on_c, 4, 53, 0
10, 491760, Note_on_c, 4, 65, 60
10, 491760, Note_on_c, 4, 53, 60
10, 491879, Note_on_c, 4, 65, 0
10, 491879, Note_on_c, 4, 53, 0
10, 492840, Note_on_c, 4, 64, 72
10, 493004, Note_on_c, 4, 64, 0
10, 493020, Note_on_c, 4, 64, 74
10, 493064, Note_on_c, 4, 64, 0
10, 493080, Note_on_c, 4, 64, 74
10, 493184, Note_on_c, 4, 64, 0
10, 493200, Note_on_c, 4, 64, 76
10, 493319, Note_on_c, 4, 64, 0
10, 493560, Note_on_c, 4, 69, 80
10, 493560, Note_on_c, 4, 57, 80
10, 493724, Note_on_c, 4, 69, 0
10, 493724, Note_on_c, 4, 57, 0
10, 493740, Note_on_c, 4, 45, 80
10, 493740, Note_on_c, 4, 57, 80
10, 493784, Note_on_c, 4, 45, 0
10, 493784, Note_on_c, 4, 57, 0
10, 493800, Note_on_c, 4, 45, 80
10, 493800, Note_on_c, 4, 57, 80
10, 493904, Note_on_c, 4, 45, 0
10, 493904, Note_on_c, 4, 57, 0
10, 509400, Note_on_c, 4, 62, 39
10, 509564, Note_on_c, 4, 62, 0
10, 509580, Note_on_c, 4, 50, 38
10, 509624, Note_on_c, 4, 50, 0
10, 509640, Note_on_c, 4, 50, 38
10, 509759, Note_on_c, 4, 50, 0
10, 510480, Note_on_c, 4, 57, 35
10, 510480, Note_on_c, 4, 69, 35
10, 510644, Note_on_c, 4, 57, 0
10, 510644, Note_on_c, 4, 69, 0
10, 510660, Note_on_c, 4, 57, 34
10, 510660, Note_on_c, 4, 45, 34
10, 510704, Note_on_c, 4, 57, 0
10, 510704, Note_on_c, 4, 45, 0
10, 510720, Note_on_c, 4, 45, 34
10, 510720, Note_on_c, 4, 57, 34
10, 510839, Note_on_c, 4, 45, 0
10, 510839, Note_on_c, 4, 57, 0
10, 511560, Note_on_c, 4, 57, 32
10, 511560, Note_on_c, 4, 69, 32
10, 511724, Note_on_c, 4, 57, 0
10, 511724, Note_on_c, 4, 69, 0
10, 511740, Note_on_c, 4, 57, 32
10, 511740, Note_on_c, 4, 45, 32
10, 511784, Note_on_c, 4, 57, 0
10, 511784, Note_on_c, 4, 45, 0
10, 511800, Note_on_c, 4, 45, 32
10, 511800, Note_on_c, 4, 57, 32
10, 511919, Note_on_c, 4, 45, 0
10, 511919, Note_on_c, 4, 57, 0
10, 512640, Note_on_c, 4, 69, 32
10, 512640, Note_on_c, 4, 57, 32
10, 512804, Note_on_c, 4, 69, 0
10, 512804, Note_on_c, 4, 57, 0
10, 512820, Note_on_c, 4, 57, 32
10, 512820, Note_on_c, 4, 45, 32
10, 512864, Note_on_c, 4, 57, 0
10, 512864, Note_on_c, 4, 45, 0
10, 512880, Note_on_c, 4, 57, 32
10, 512880, Note_on_c, 4, 45, 32
10, 512999, Note_on_c, 4, 57, 0
10, 512999, Note_on_c, 4, 45, 0
10, 513360, Note_on_c, 4, 57, 32
10, 513360, Note_on_c, 4, 69, 32
10, 513464, Note_on_c, 4, 57, 0
10, 513464, Note_on_c, 4, 69, 0
10, 513480, Note_on_c, 4, 69, 32
10, 513480, Note_on_c, 4, 57, 32
10, 513584, Note_on_c, 4, 69, 0
10, 513584, Note_on_c, 4, 57, 0
10, 513600, Note_on_c, 4, 57, 32
10, 513600, Note_on_c, 4, 69, 32
10, 513704, Note_on_c, 4, 57, 0
10, 513704, Note_on_c, 4, 69, 0
10, 513720, Note_on_c, 4, 57, 32
10, 513720, Note_on_c, 4, 69, 32
10, 513824, Note_on_c, 4, 57, 0
10, 513824, Note_on_c, 4, 69, 0
10, 513840, Note_on_c, 4, 57, 32
10, 513840, Note_on_c, 4, 69, 32
10, 513944, Note_on_c, 4, 57, 0
10, 513944, Note_on_c, 4, 69, 0
10, 513960, Note_on_c, 4, 69, 32
10, 513960, Note_on_c, 4, 57, 32
10, 514064, Note_on_c, 4, 69, 0
10, 514064, Note_on_c, 4, 57, 0
10, 514080, Note_on_c, 4, 57, 32
10, 514080, Note_on_c, 4, 69, 32
10, 514184, Note_on_c, 4, 57, 0
10, 514184, Note_on_c, 4, 69, 0
10, 514200, Note_on_c, 4, 69, 32
10, 514200, Note_on_c, 4, 57, 32
10, 514304, Note_on_c, 4, 69, 0
10, 514304, Note_on_c, 4, 57, 0
10, 514320, Note_on_c, 4, 69, 32
10, 514320, Note_on_c, 4, 57, 32
10, 514424, Note_on_c, 4, 69, 0
10, 514424, Note_on_c, 4, 57, 0
10, 514440, Note_on_c, 4, 69, 32
10, 514440, Note_on_c, 4, 57, 32
10, 514604, Note_on_c, 4, 69, 0
10, 514604, Note_on_c, 4, 57, 0
10, 514620, Note_on_c, 4, 57, 32
10, 514620, Note_on_c, 4, 45, 32
10, 514664, Note_on_c, 4, 57, 0
10, 514664, Note_on_c, 4, 45, 0
10, 514680, Note_on_c, 4, 57, 32
10, 514680, Note_on_c, 4, 45, 32
10, 514784, Note_on_c, 4, 57, 0
10, 514784, Note_on_c, 4, 45, 0
10, 514800, Note_on_c, 4, 57, 32
10, 514800, Note_on_c, 4, 45, 32
10, 514904, Note_on_c, 4, 57, 0
10, 514904, Note_on_c, 4, 45, 0
10, 514920, Note_on_c, 4, 45, 32
10, 514920, Note_on_c, 4, 57, 32
10, 515024, Note_on_c, 4, 45, 0
10, 515024, Note_on_c, 4, 57, 0
10, 515040, Note_on_c, 4, 45, 32
10, 515040, Note_on_c, 4, 57, 32
10, 515144, Note_on_c, 4, 45, 0
10, 515144, Note_on_c, 4, 57, 0
10, 515160, Note_on_c, 4, 57, 32
10, 515160, Note_on_c, 4, 45, 32
10, 515264, Note_on_c, 4, 57, 0
10, 515264, Note_on_c, 4, 45, 0
10, 515280, Note_on_c, 4, 57, 32
10, 515280, Note_on_c, 4, 45, 32
10, 515384, Note_on_c, 4, 57, 0
10, 515384, Note_on_c, 4, 45, 0
10, 515400, Note_on_c, 4, 45, 32
10, 515400, Note_on_c, 4, 57, 32
10, 515504, Note_on_c, 4, 45, 0
10, 515504, Note_on_c, 4, 57, 0
10, 515520, Note_on_c, 4, 57, 32
10, 515520, Note_on_c, 4, 45, 32
10, 515684, Note_on_c, 4, 57, 0
10, 515684, Note_on_c, 4, 45, 0
10, 515700, Note_on_c, 4, 57, 32
10, 515700, Note_on_c, 4, 69, 32
10, 515744, Note_on_c, 4, 57, 0
10, 515744, Note_on_c, 4, 69, 0
10, 515760, Note_on_c, 4, 57, 32
10, 515760, Note_on_c, 4, 69, 32
10, 515864, Note_on_c, 4, 57, 0
10, 515864, Note_on_c, 4, 69, 0
10, 515880, Note_on_c, 4, 69, 32
10, 515880, Note_on_c, 4, 57, 32
10, 515984, Note_on_c, 4, 69, 0
10, 515984, Note_on_c, 4, 57, 0
10, 516000, Note_on_c, 4, 57, 32
10, 516000, Note_on_c, 4, 69, 32
10, 516104, Note_on_c, 4, 57, 0
10, 516104, Note_on_c, 4, 69, 0
10, 516120, Note_on_c, 4, 69, 32
10, 516120, Note_on_c, 4, 57, 32
10, 516224, Note_on_c, 4, 69, 0
10, 516224, Note_on_c, 4, 57, 0
10, 516240, Note_on_c, 4, 69, 32
10, 516240, Note_on_c, 4, 57, 32
10, 516344, Note_on_c, 4, 69, 0
10, 516344, Note_on_c, 4, 57, 0
10, 516360, Note_on_c, 4, 69, 32
10, 516360, Note_on_c, 4, 57, 32
10, 516464, Note_on_c, 4, 69, 0
10, 516464, Note_on_c, 4, 57, 0
10, 516480, Note_on_c, 4, 57, 32
10, 516480, Note_on_c, 4, 69, 32
10, 516584, Note_on_c, 4, 57, 0
10, 516584, Note_on_c, 4, 69, 0
10, 516600, Note_on_c, 4, 57, 32
10, 516600, Note_on_c, 4, 69, 32
10, 516704, Note_on_c, 4, 57, 0
10, 516704, Note_on_c, 4, 69, 0
10, 516720, Note_on_c, 4, 69, 32
10, 516720, Note_on_c, 4, 57, 32
10, 516824, Note_on_c, 4, 69, 0
10, 516824, Note_on_c, 4, 57, 0
10, 516840, Note_on_c, 4, 57, 32
10, 516840, Note_on_c, 4, 69, 32
10, 516944, Note_on_c, 4, 57, 0
10, 516944, Note_on_c, 4, 69, 0
10, 516960, Note_on_c, 4, 57, 32
10, 516960, Note_on_c, 4, 69, 32
10, 517064, Note_on_c, 4, 57, 0
10, 517064, Note_on_c, 4, 69, 0
10, 517080, Note_on_c, 4, 57, 32
10, 517080, Note_on_c, 4, 69, 32
10, 517184, Note_on_c, 4, 57, 0
10, 517184, Note_on_c, 4, 69, 0
10, 517200, Note_on_c, 4, 57, 32
10, 517200, Note_on_c, 4, 69, 32
10, 517304, Note_on_c, 4, 57, 0
10, 517304, Note_on_c, 4, 69, 0
10, 517320, Note_on_c, 4, 57, 32
10, 517320, Note_on_c, 4, 69, 32
10, 517424, Note_on_c, 4, 57, 0
10, 517424, Note_on_c, 4, 69, 0
10, 517440, Note_on_c, 4, 57, 32
10, 517440, Note_on_c, 4, 69, 32
10, 517544, Note_on_c, 4, 57, 0
10, 517544, Note_on_c, 4, 69, 0
10, 517560, Note_on_c, 4, 57, 32
10, 517560, Note_on_c, 4, 69, 32
10, 517664, Note_on_c, 4, 57, 0
10, 517664, Note_on_c, 4, 69, 0
10, 517680, Note_on_c, 4, 69, 32
10, 517680, Note_on_c, 4, 57, 32
10, 517844, Note_on_c, 4, 69, 0
10, 517844, Note_on_c, 4, 57, 0
10, 517860, Note_on_c, 4, 45, 32
10, 517860, Note_on_c, 4, 57, 32
10, 517904, Note_on_c, 4, 45, 0
10, 517904, Note_on_c, 4, 57, 0
10, 517920, Note_on_c, 4, 57, 32
10, 517920, Note_on_c, 4, 45, 32
10, 518024, Note_on_c, 4, 57, 0
10, 518024, Note_on_c, 4, 45, 0
10, 518040, Note_on_c, 4, 62, 32
10, 518040, Note_on_c, 4, 50, 32
10, 518144, Note_on_c, 4, 62, 0
10, 518144, Note_on_c, 4, 50, 0
10, 518160, Note_on_c, 4, 67, 32
10, 518264, Note_on_c, 4, 67, 0
10, 518280, Note_on_c, 4, 67, 32
10, 518384, Note_on_c, 4, 67, 0
10, 518400, Note_on_c, 4, 67, 32
10, 518504, Note_on_c, 4, 67, 0
10, 518520, Note_on_c, 4, 67, 32
10, 518624, Note_on_c, 4, 67, 0
10, 518640, Note_on_c, 4, 67, 32
10, 518744, Note_on_c, 4, 67, 0
10, 518760, Note_on_c, 4, 67, 32
10, 518864, Note_on_c, 4, 67, 0
10, 518880, Note_on_c, 4, 67, 32
10, 518984, Note_on_c, 4, 67, 0
10, 519000, Note_on_c, 4, 67, 32
10, 519104, Note_on_c, 4, 67, 0
10, 519120, Note_on_c, 4, 67, 32
10, 519224, Note_on_c, 4, 67, 0
10, 519240, Note_on_c, 4, 67, 32
10, 519344, Note_on_c, 4, 67, 0
10, 519360, Note_on_c, 4, 67, 32
10, 519479, Note_on_c, 4, 67, 0
10, 522360, Note_on_c, 4, 62, 32
10, 522524, Note_on_c, 4, 62, 0
10, 522540, Note_on_c, 4, 50, 32
10, 522584, Note_on_c, 4, 50, 0
10, 522600, Note_on_c, 4, 50, 32
10, 522704, Note_on_c, 4, 50, 0
10, 525240, Note_on_c, 4, 62, 44
10, 525404, Note_on_c, 4, 62, 0
10, 525420, Note_on_c, 4, 50, 47
10, 525464, Note_on_c, 4, 50, 0
10, 525480, Note_on_c, 4, 50, 48
10, 525584, Note_on_c, 4, 50, 0
10, 526320, Note_on_c, 4, 57, 62
10, 526484, Note_on_c, 4, 57, 0
10, 526500, Note_on_c, 4, 45, 65
10, 526500, Note_on_c, 4, 57, 65
10, 526544, Note_on_c, 4, 45, 0
10, 526544, Note_on_c, 4, 57, 0
10, 526560, Note_on_c, 4, 57, 66
10, 526560, Note_on_c, 4, 45, 66
10, 526664, Note_on_c, 4, 57, 0
10, 526664, Note_on_c, 4, 45, 0
10, 526680, Note_on_c, 4, 62, 68
10, 526844, Note_on_c, 4, 62, 0
10, 526860, Note_on_c, 4, 50, 71
10, 526904, Note_on_c, 4, 50, 0
10, 526920, Note_on_c, 4, 50, 72
10, 527024, Note_on_c, 4, 50, 0
10, 527400, Note_on_c, 4, 69, 80
10, 527564, Note_on_c, 4, 69, 0
10, 527580, Note_on_c, 4, 57, 80
10, 527624, Note_on_c, 4, 57, 0
10, 527640, Note_on_c, 4, 57, 80
10, 527744, Note_on_c, 4, 57, 0
10, 527760, Note_on_c, 4, 69, 80
10, 527924, Note_on_c, 4, 69, 0
10, 527940, Note_on_c, 4, 57, 80
10, 527984, Note_on_c, 4, 57, 0
10, 528000, Note_on_c, 4, 57, 80
10, 528104, Note_on_c, 4, 57, 0
10, 528120, Note_on_c, 4, 69, 86
10, 528284, Note_on_c, 4, 69, 0
10, 528300, Note_on_c, 4, 57, 86
10, 528344, Note_on_c, 4, 57, 0
10, 528360, Note_on_c, 4, 57, 86
10, 528464, Note_on_c, 4, 57, 0
10, 528480, Note_on_c, 4, 69, 86
10, 528644, Note_on_c, 4, 69, 0
10, 528660, Note_on_c, 4, 57, 86
10, 528704, Note_on_c, 4, 57, 0
10, 528720, Note_on_c, 4, 57, 86
10, 528824, Note_on_c, 4, 57, 0
10, 528840, Note_on_c, 4, 69, 92
10, 529004, Note_on_c, 4, 69, 0
10, 529020, Note_on_c, 4, 57, 92
10, 529064, Note_on_c, 4, 57, 0
10, 529080, Note_on_c, 4, 57, 92
10, 529184, Note_on_c, 4, 57, 0
10, 529200, Note_on_c, 4, 69, 92
10, 529364, Note_on_c, 4, 69, 0
10, 529380, Note_on_c, 4, 57, 92
10, 529424, Note_on_c, 4, 57, 0
10, 529440, Note_on_c, 4, 57, 92
10, 529544, Note_on_c, 4, 57, 0
10, 529560, Note_on_c, 4, 69, 92
10, 529724, Note_on_c, 4, 69, 0
10, 529740, Note_on_c, 4, 57, 92
10, 529784, Note_on_c, 4, 57, 0
10, 529800, Note_on_c, 4, 57, 92
10, 529904, Note_on_c, 4, 57, 0
10, 529920, Note_on_c, 4, 69, 92
10, 530084, Note_on_c, 4, 69, 0
10, 530100, Note_on_c, 4, 57, 92
10, 530144, Note_on_c, 4, 57, 0
10, 530160, Note_on_c, 4, 57, 92
10, 530264, Note_on_c, 4, 57, 0
10, 530280, Note_on_c, 4, 69, 92
10, 530444, Note_on_c, 4, 69, 0
10, 530460, Note_on_c, 4, 57, 92
10, 530504, Note_on_c, 4, 57, 0
10, 530520, Note_on_c, 4, 57, 92
10, 530624, Note_on_c, 4, 57, 0
10, 530640, Note_on_c, 4, 69, 92
10, 530804, Note_on_c, 4, 69, 0
10, 530820, Note_on_c, 4, 57, 92
10, 530864, Note_on_c, 4, 57, 0
10, 530880, Note_on_c, 4, 57, 92
10, 530984, Note_on_c, 4, 57, 0
10, 531000, Note_on_c, 4, 69, 92
10, 531164, Note_on_c, 4, 69, 0
10, 531180, Note_on_c, 4, 57, 92
10, 531224, Note_on_c, 4, 57, 0
10, 531240, Note_on_c, 4, 57, 92
10, 531344, Note_on_c, 4, 57, 0
10, 531360, Note_on_c, 4, 69, 92
10, 531524, Note_on_c, 4, 69, 0
10, 531540, Note_on_c, 4, 57, 92
10, 531584, Note_on_c, 4, 57, 0
10, 531600, Note_on_c, 4, 57, 92
10, 531704, Note_on_c, 4, 57, 0
10, 531720, Note_on_c, 4, 69, 92
10, 531884, Note_on_c, 4, 69, 0
10, 531900, Note_on_c, 4, 57, 92
10, 531944, Note_on_c, 4, 57, 0
10, 531960, Note_on_c, 4, 57, 92
10, 532064, Note_on_c, 4, 57, 0
10, 532080, Note_on_c, 4, 69, 92
10, 532244, Note_on_c, 4, 69, 0
10, 532260, Note_on_c, 4, 57, 92
10, 532304, Note_on_c, 4, 57, 0
10, 532320, Note_on_c, 4, 57, 92
10, 532424, Note_on_c, 4, 57, 0
10, 532440, Note_on_c, 4, 69, 92
10, 532604, Note_on_c, 4, 69, 0
10, 532620, Note_on_c, 4, 57, 92
10, 532664, Note_on_c, 4, 57, 0
10, 532680, Note_on_c, 4, 57, 92
10, 532784, Note_on_c, 4, 57, 0
10, 532800, Note_on_c, 4, 69, 92
10, 532964, Note_on_c, 4, 69, 0
10, 532980, Note_on_c, 4, 57, 92
10, 533024, Note_on_c, 4, 57, 0
10, 533040, Note_on_c, 4, 57, 92
10, 533144, Note_on_c, 4, 57, 0
10, 533160, Note_on_c, 4, 69, 92
10, 533324, Note_on_c, 4, 69, 0
10, 533340, Note_on_c, 4, 57, 92
10, 533384, Note_on_c, 4, 57, 0
10, 533400, Note_on_c, 4, 57, 92
10, 533504, Note_on_c, 4, 57, 0
10, 533520, Note_on_c, 4, 69, 92
10, 533684, Note_on_c, 4, 69, 0
10, 533700, Note_on_c, 4, 57, 92
10, 533744, Note_on_c, 4, 57, 0
10, 533760, Note_on_c, 4, 57, 92
10, 533864, Note_on_c, 4, 57, 0
10, 533880, Note_on_c, 4, 69, 92
10, 534044, Note_on_c, 4, 69, 0
10, 534060, Note_on_c, 4, 57, 92
10, 534104, Note_on_c, 4, 57, 0
10, 534120, Note_on_c, 4, 57, 92
10, 534224, Note_on_c, 4, 57, 0
10, 534240, Note_on_c, 4, 69, 92
10, 534404, Note_on_c, 4, 69, 0
10, 534420, Note_on_c, 4, 57, 92
10, 534464, Note_on_c, 4, 57, 0
10, 534480, Note_on_c, 4, 57, 92
10, 534584, Note_on_c, 4, 57, 0
10, 534600, Note_on_c, 4, 67, 92
10, 534704, Note_on_c, 4, 67, 0
10, 534720, Note_on_c, 4, 67, 92
10, 534824, Note_on_c, 4, 67, 0
10, 534840, Note_on_c, 4, 67, 92
10, 534944, Note_on_c, 4, 67, 0
10, 534960, Note_on_c, 4, 62, 92
10, 535124, Note_on_c, 4, 62, 0
10, 535140, Note_on_c, 4, 50, 92
10, 535184, Note_on_c, 4, 50, 0
10, 535200, Note_on_c, 4, 50, 92
10, 535304, Note_on_c, 4, 50, 0
10, 535320, Note_on_c, 4, 62, 92
10, 535484, Note_on_c, 4, 62, 0
10, 535500, Note_on_c, 4, 50, 92
10, 535544, Note_on_c, 4, 50, 0
10, 535560, Note_on_c, 4, 50, 92
10, 535664, Note_on_c, 4, 50, 0
10, 535680, Note_on_c, 4, 62, 92
10, 535844, Note_on_c, 4, 62, 0
10, 535860, Note_on_c, 4, 50, 92
10, 535904, Note_on_c, 4, 50, 0
10, 535920, Note_on_c, 4, 50, 92
10, 536024, Note_on_c, 4, 50, 0
10, 536040, Note_on_c, 4, 67, 80
10, 536144, Note_on_c, 4, 67, 0
10, 536160, Note_on_c, 4, 67, 80
10, 536264, Note_on_c, 4, 67, 0
10, 536280, Note_on_c, 4, 67, 80
10, 536384, Note_on_c, 4, 67, 0
10, 536400, Note_on_c, 4, 67, 80
10, 536504, Note_on_c, 4, 67, 0
10, 536520, Note_on_c, 4, 67, 80
10, 536624, Note_on_c, 4, 67, 0
10, 536640, Note_on_c, 4, 67, 80
10, 536744, Note_on_c, 4, 67, 0
10, 536760, Note_on_c, 4, 65, 80
10, 536864, Note_on_c, 4, 65, 0
10, 536880, Note_on_c, 4, 65, 80
10, 536984, Note_on_c, 4, 65, 0
10, 537000, Note_on_c, 4, 65, 80
10, 537104, Note_on_c, 4, 65, 0
10, 537120, Note_on_c, 4, 65, 80
10, 537224, Note_on_c, 4, 65, 0
10, 537240, Note_on_c, 4, 65, 80
10, 537344, Note_on_c, 4, 65, 0
10, 537360, Note_on_c, 4, 65, 80
10, 537464, Note_on_c, 4, 65, 0
10, 537480, Note_on_c, 4, 65, 80
10, 537584, Note_on_c, 4, 65, 0
10, 537600, Note_on_c, 4, 65, 80
10, 537704, Note_on_c, 4, 65, 0
10, 537720, Note_on_c, 4, 65, 80
10, 537824, Note_on_c, 4, 65, 0
10, 537840, Note_on_c, 4, 65, 80
10, 537944, Note_on_c, 4, 65, 0
10, 537960, Note_on_c, 4, 65, 80
10, 538064, Note_on_c, 4, 65, 0
10, 538080, Note_on_c, 4, 65, 80
10, 538184, Note_on_c, 4, 65, 0
10, 538200, Note_on_c, 4, 65, 80
10, 538304, Note_on_c, 4, 65, 0
10, 538320, Note_on_c, 4, 65, 80
10, 538424, Note_on_c, 4, 65, 0
10, 538440, Note_on_c, 4, 65, 80
10, 538544, Note_on_c, 4, 65, 0
10, 538560, Note_on_c, 4, 65, 80
10, 538664, Note_on_c, 4, 65, 0
10, 538680, Note_on_c, 4, 65, 80
10, 538784, Note_on_c, 4, 65, 0
10, 538800, Note_on_c, 4, 65, 80
10, 538904, Note_on_c, 4, 65, 0
10, 538920, Note_on_c, 4, 65, 80
10, 539039, Note_on_c, 4, 65, 0
10, 542160, Control_c, 4, 11, 87
10, 542520, Note_on_c, 4, 57, 68
10, 542520, Note_on_c, 4, 45, 68
10, 542880, Control_c, 4, 11, 87
10, 542916, Control_c, 4, 11, 88
10, 542952, Control_c, 4, 11, 89
10, 542988, Control_c, 4, 11, 90
10, 543024, Control_c, 4, 11, 91
10, 543060, Control_c, 4, 11, 92
10, 543096, Control_c, 4, 11, 93
10, 543132, Control_c, 4, 11, 94
10, 543168, Control_c, 4, 11, 95
10, 543204, Control_c, 4, 11, 96
10, 543240, Control_c, 4, 11, 97
10, 543276, Control_c, 4, 11, 98
10, 543312, Control_c, 4, 11, 99
10, 543348, Control_c, 4, 11, 100
10, 543384, Control_c, 4, 11, 101
10, 543420, Control_c, 4, 11, 102
10, 543456, Control_c, 4, 11, 103
10, 543492, Control_c, 4, 11, 104
10, 543528, Control_c, 4, 11, 105
10, 543564, Control_c, 4, 11, 106
10, 543600, Control_c, 4, 11, 107
10, 543636, Control_c, 4, 11, 108
10, 543672, Control_c, 4, 11, 109
10, 543708, Control_c, 4, 11, 110
10, 543744, Control_c, 4, 11, 111
10, 543780, Control_c, 4, 11, 112
10, 543816, Control_c, 4, 11, 113
10, 543852, Control_c, 4, 11, 114
10, 543888, Control_c, 4, 11, 115
10, 543924, Control_c, 4, 11, 116
10, 543960, Control_c, 4, 11, 117
10, 543996, Control_c, 4, 11, 118
10, 544032, Control_c, 4, 11, 119
10, 544068, Control_c, 4, 11, 120
10, 544104, Control_c, 4, 11, 121
10, 544140, Control_c, 4, 11, 122
10, 544176, Control_c, 4, 11, 123
10, 544212, Control_c, 4, 11, 124
10, 544248, Control_c, 4, 11, 125
10, 544284, Control_c, 4, 11, 126
10, 544320, Control_c, 4, 11, 127
10, 544350, Control_c, 4, 11, 126
10, 544380, Control_c, 4, 11, 125
10, 544410, Control_c, 4, 11, 124
10, 544440, Control_c, 4, 11, 123
10, 544470, Control_c, 4, 11, 121
10, 544500, Control_c, 4, 11, 120
10, 544530, Control_c, 4, 11, 119
10, 544560, Control_c, 4, 11, 118
10, 544590, Control_c, 4, 11, 117
10, 544620, Control_c, 4, 11, 116
10, 544650, Control_c, 4, 11, 115
10, 544680, Control_c, 4, 11, 114
10, 544710, Control_c, 4, 11, 113
10, 544740, Control_c, 4, 11, 111
10, 544770, Control_c, 4, 11, 110
10, 544800, Control_c, 4, 11, 109
10, 544830, Control_c, 4, 11, 108
10, 544860, Control_c, 4, 11, 107
10, 544890, Control_c, 4, 11, 106
10, 544920, Control_c, 4, 11, 105
10, 544950, Control_c, 4, 11, 104
10, 544980, Control_c, 4, 11, 103
10, 545010, Control_c, 4, 11, 101
10, 545040, Control_c, 4, 11, 100
10, 545070, Control_c, 4, 11, 99
10, 545100, Control_c, 4, 11, 98
10, 545130, Control_c, 4, 11, 97
10, 545160, Control_c, 4, 11, 96
10, 545190, Control_c, 4, 11, 95
10, 545220, Control_c, 4, 11, 94
10, 545250, Control_c, 4, 11, 93
10, 545280, Control_c, 4, 11, 91
10, 545310, Control_c, 4, 11, 90
10, 545340, Control_c, 4, 11, 89
10, 545370, Control_c, 4, 11, 87
10, 545384, Note_on_c, 4, 57, 0
10, 545384, Note_on_c, 4, 45, 0
10, 545400, Note_on_c, 4, 57, 68
10, 545400, Note_on_c, 4, 45, 68
10, 545760, Control_c, 4, 11, 87
10, 545796, Control_c, 4, 11, 88
10, 545832, Control_c, 4, 11, 89
10, 545868, Control_c, 4, 11, 90
10, 545904, Control_c, 4, 11, 91
10, 545940, Control_c, 4, 11, 92
10, 545976, Control_c, 4, 11, 93
10, 546012, Control_c, 4, 11, 94
10, 546048, Control_c, 4, 11, 95
10, 546084, Control_c, 4, 11, 96
10, 546120, Control_c, 4, 11, 97
10, 546156, Control_c, 4, 11, 98
10, 546192, Control_c, 4, 11, 99
10, 546228, Control_c, 4, 11, 100
10, 546264, Control_c, 4, 11, 101
10, 546300, Control_c, 4, 11, 102
10, 546336, Control_c, 4, 11, 103
10, 546372, Control_c, 4, 11, 104
10, 546408, Control_c, 4, 11, 105
10, 546444, Control_c, 4, 11, 106
10, 546480, Control_c, 4, 11, 107
10, 546516, Control_c, 4, 11, 108
10, 546552, Control_c, 4, 11, 109
10, 546588, Control_c, 4, 11, 110
10, 546624, Control_c, 4, 11, 111
10, 546660, Control_c, 4, 11, 112
10, 546696, Control_c, 4, 11, 113
10, 546732, Control_c, 4, 11, 114
10, 546768, Control_c, 4, 11, 115
10, 546804, Control_c, 4, 11, 116
10, 546840, Control_c, 4, 11, 117
10, 546876, Control_c, 4, 11, 118
10, 546912, Control_c, 4, 11, 119
10, 546948, Control_c, 4, 11, 120
10, 546984, Control_c, 4, 11, 121
10, 547020, Control_c, 4, 11, 122
10, 547056, Control_c, 4, 11, 123
10, 547092, Control_c, 4, 11, 124
10, 547128, Control_c, 4, 11, 125
10, 547164, Control_c, 4, 11, 126
10, 547200, Control_c, 4, 11, 127
10, 547230, Control_c, 4, 11, 126
10, 547260, Control_c, 4, 11, 125
10, 547290, Control_c, 4, 11, 124
10, 547320, Control_c, 4, 11, 123
10, 547350, Control_c, 4, 11, 121
10, 547380, Control_c, 4, 11, 120
10, 547410, Control_c, 4, 11, 119
10, 547440, Control_c, 4, 11, 118
10, 547470, Control_c, 4, 11, 117
10, 547500, Control_c, 4, 11, 116
10, 547530, Control_c, 4, 11, 115
10, 547560, Control_c, 4, 11, 114
10, 547590, Control_c, 4, 11, 113
10, 547620, Control_c, 4, 11, 111
10, 547650, Control_c, 4, 11, 110
10, 547680, Control_c, 4, 11, 109
10, 547710, Control_c, 4, 11, 108
10, 547740, Control_c, 4, 11, 107
10, 547770, Control_c, 4, 11, 106
10, 547800, Control_c, 4, 11, 105
10, 547830, Control_c, 4, 11, 104
10, 547860, Control_c, 4, 11, 103
10, 547890, Control_c, 4, 11, 101
10, 547920, Control_c, 4, 11, 100
10, 547950, Control_c, 4, 11, 99
10, 547980, Control_c, 4, 11, 98
10, 548010, Control_c, 4, 11, 97
10, 548040, Control_c, 4, 11, 96
10, 548070, Control_c, 4, 11, 95
10, 548100, Control_c, 4, 11, 94
10, 548130, Control_c, 4, 11, 93
10, 548160, Control_c, 4, 11, 91
10, 548190, Control_c, 4, 11, 90
10, 548220, Control_c, 4, 11, 89
10, 548250, Control_c, 4, 11, 87
10, 548264, Note_on_c, 4, 57, 0
10, 548264, Note_on_c, 4, 45, 0
10, 548278, Control_c, 4, 11, 47
10, 548280, Control_c, 4, 11, 47
10, 548280, Note_on_c, 4, 69, 92
10, 548280, Note_on_c, 4, 57, 92
10, 548316, Control_c, 4, 11, 48
10, 548352, Control_c, 4, 11, 49
10, 548388, Control_c, 4, 11, 50
10, 548424, Control_c, 4, 11, 51
10, 548444, Note_on_c, 4, 69, 0
10, 548444, Note_on_c, 4, 57, 0
10, 548460, Control_c, 4, 11, 52
10, 548460, Note_on_c, 4, 57, 92
10, 548460, Note_on_c, 4, 45, 92
10, 548496, Control_c, 4, 11, 53
10, 548504, Note_on_c, 4, 57, 0
10, 548504, Note_on_c, 4, 45, 0
10, 548520, Note_on_c, 4, 45, 92
10, 548520, Note_on_c, 4, 57, 92
10, 548532, Control_c, 4, 11, 54
10, 548568, Control_c, 4, 11, 55
10, 548604, Control_c, 4, 11, 56
10, 548624, Note_on_c, 4, 45, 0
10, 548624, Note_on_c, 4, 57, 0
10, 548640, Control_c, 4, 11, 57
10, 548640, Note_on_c, 4, 57, 92
10, 548640, Note_on_c, 4, 69, 92
10, 548676, Control_c, 4, 11, 58
10, 548712, Control_c, 4, 11, 59
10, 548748, Control_c, 4, 11, 60
10, 548784, Control_c, 4, 11, 61
10, 548804, Note_on_c, 4, 57, 0
10, 548804, Note_on_c, 4, 69, 0
10, 548820, Note_on_c, 4, 45, 92
10, 548820, Control_c, 4, 11, 62
10, 548820, Note_on_c, 4, 57, 92
10, 548856, Control_c, 4, 11, 63
10, 548864, Note_on_c, 4, 45, 0
10, 548864, Note_on_c, 4, 57, 0
10, 548880, Note_on_c, 4, 45, 92
10, 548880, Note_on_c, 4, 57, 92
10, 548892, Control_c, 4, 11, 64
10, 548928, Control_c, 4, 11, 65
10, 548964, Control_c, 4, 11, 66
10, 548984, Note_on_c, 4, 45, 0
10, 548984, Note_on_c, 4, 57, 0
10, 549000, Control_c, 4, 11, 67
10, 549036, Control_c, 4, 11, 68
10, 549072, Control_c, 4, 11, 69
10, 549108, Control_c, 4, 11, 70
10, 549144, Control_c, 4, 11, 71
10, 549180, Note_on_c, 4, 65, 92
10, 549180, Control_c, 4, 11, 72
10, 549216, Control_c, 4, 11, 73
10, 549224, Note_on_c, 4, 65, 0
10, 549240, Note_on_c, 4, 65, 92
10, 549252, Control_c, 4, 11, 74
10, 549288, Control_c, 4, 11, 75
10, 549324, Control_c, 4, 11, 76
10, 549344, Note_on_c, 4, 65, 0
10, 549360, Control_c, 4, 11, 77
10, 549396, Control_c, 4, 11, 78
10, 549432, Control_c, 4, 11, 79
10, 549468, Control_c, 4, 11, 80
10, 549504, Control_c, 4, 11, 81
10, 549540, Control_c, 4, 11, 82
10, 549540, Note_on_c, 4, 64, 92
10, 549540, Note_on_c, 4, 67, 92
10, 549576, Control_c, 4, 11, 83
10, 549584, Note_on_c, 4, 64, 0
10, 549584, Note_on_c, 4, 67, 0
10, 549600, Note_on_c, 4, 64, 92
10, 549600, Note_on_c, 4, 67, 92
10, 549612, Control_c, 4, 11, 84
10, 549648, Control_c, 4, 11, 85
10, 549684, Control_c, 4, 11, 86
10, 549704, Note_on_c, 4, 64, 0
10, 549704, Note_on_c, 4, 67, 0
10, 549720, Control_c, 4, 11, 87
10, 549756, Control_c, 4, 11, 88
10, 549792, Control_c, 4, 11, 89
10, 549828, Control_c, 4, 11, 90
10, 549864, Control_c, 4, 11, 91
10, 549900, Control_c, 4, 11, 92
10, 549900, Note_on_c, 4, 57, 92
10, 549900, Note_on_c, 4, 64, 92
10, 549936, Control_c, 4, 11, 93
10, 549944, Note_on_c, 4, 57, 0
10, 549944, Note_on_c, 4, 64, 0
10, 549960, Note_on_c, 4, 57, 92
10, 549960, Note_on_c, 4, 64, 92
10, 549972, Control_c, 4, 11, 94
10, 550008, Control_c, 4, 11, 95
10, 550044, Control_c, 4, 11, 96
10, 550064, Note_on_c, 4, 57, 0
10, 550064, Note_on_c, 4, 64, 0
10, 550080, Control_c, 4, 11, 97
10, 550116, Control_c, 4, 11, 98
10, 550152, Control_c, 4, 11, 99
10, 550188, Control_c, 4, 11, 100
10, 550224, Control_c, 4, 11, 101
10, 550260, Control_c, 4, 11, 102
10, 550260, Note_on_c, 4, 65, 92
10, 550260, Note_on_c, 4, 62, 92
10, 550296, Control_c, 4, 11, 103
10, 550304, Note_on_c, 4, 65, 0
10, 550304, Note_on_c, 4, 62, 0
10, 550320, Note_on_c, 4, 65, 92
10, 550320, Note_on_c, 4, 62, 92
10, 550332, Control_c, 4, 11, 104
10, 550368, Control_c, 4, 11, 105
10, 550404, Control_c, 4, 11, 106
10, 550424, Note_on_c, 4, 65, 0
10, 550424, Note_on_c, 4, 62, 0
10, 550440, Control_c, 4, 11, 107
10, 550476, Control_c, 4, 11, 108
10, 550512, Control_c, 4, 11, 109
10, 550548, Control_c, 4, 11, 110
10, 550584, Control_c, 4, 11, 111
10, 550620, Note_on_c, 4, 69, 92
10, 550620, Control_c, 4, 11, 112
10, 550620, Note_on_c, 4, 57, 92
10, 550656, Control_c, 4, 11, 113
10, 550664, Note_on_c, 4, 69, 0
10, 550664, Note_on_c, 4, 57, 0
10, 550680, Note_on_c, 4, 69, 92
10, 550680, Note_on_c, 4, 57, 92
10, 550692, Control_c, 4, 11, 114
10, 550728, Control_c, 4, 11, 115
10, 550764, Control_c, 4, 11, 116
10, 550784, Note_on_c, 4, 69, 0
10, 550784, Note_on_c, 4, 57, 0
10, 550800, Control_c, 4, 11, 117
10, 550836, Control_c, 4, 11, 118
10, 550872, Control_c, 4, 11, 119
10, 550908, Control_c, 4, 11, 120
10, 550944, Control_c, 4, 11, 121
10, 550980, Note_on_c, 4, 69, 92
10, 550980, Note_on_c, 4, 57, 92
10, 550980, Control_c, 4, 11, 122
10, 551016, Control_c, 4, 11, 123
10, 551024, Note_on_c, 4, 69, 0
10, 551024, Note_on_c, 4, 57, 0
10, 551040, Note_on_c, 4, 69, 92
10, 551040, Note_on_c, 4, 57, 92
10, 551052, Control_c, 4, 11, 124
10, 551088, Control_c, 4, 11, 125
10, 551124, Control_c, 4, 11, 127
10, 551144, Note_on_c, 4, 69, 0
10, 551144, Note_on_c, 4, 57, 0
10, 551160, Note_on_c, 4, 50, 92
10, 551160, Note_on_c, 4, 62, 92
10, 551504, Note_on_c, 4, 50, 0
10, 551504, Note_on_c, 4, 62, 0
10, 551520, Note_on_c, 4, 50, 92
10, 551520, Note_on_c, 4, 62, 92
10, 551639, Note_on_c, 4, 50, 0
10, 551639, Note_on_c, 4, 62, 0
10, 551760, Note_on_c, 4, 50, 92
10, 551760, Note_on_c, 4, 62, 92
10, 551864, Note_on_c, 4, 50, 0
10, 551864, Note_on_c, 4, 62, 0
10, 551880, Note_on_c, 4, 50, 92
10, 551880, Note_on_c, 4, 62, 92
10, 551999, Note_on_c, 4, 50, 0
10, 551999, Note_on_c, 4, 62, 0
10, 552120, Note_on_c, 4, 50, 92
10, 552120, Note_on_c, 4, 62, 92
10, 552224, Note_on_c, 4, 50, 0
10, 552224, Note_on_c, 4, 62, 0
10, 552240, Note_on_c, 4, 50, 92
10, 552240, Note_on_c, 4, 62, 92
10, 552359, Note_on_c, 4, 50, 0
10, 552359, Note_on_c, 4, 62, 0
10, 552480, Note_on_c, 4, 50, 92
10, 552480, Note_on_c, 4, 62, 92
10, 552584, Note_on_c, 4, 50, 0
10, 552584, Note_on_c, 4, 62, 0
10, 552600, Note_on_c, 4, 62, 92
10, 552600, Note_on_c, 4, 50, 92
10, 552944, Note_on_c, 4, 62, 0
10, 552944, Note_on_c, 4, 50, 0
10, 552960, Note_on_c, 4, 62, 92
10, 552960, Note_on_c, 4, 50, 92
10, 553079, Note_on_c, 4, 62, 0
10, 553079, Note_on_c, 4, 50, 0
10, 553200, Note_on_c, 4, 50, 92
10, 553200, Note_on_c, 4, 62, 92
10, 553304, Note_on_c, 4, 50, 0
10, 553304, Note_on_c, 4, 62, 0
10, 553320, Note_on_c, 4, 62, 92
10, 553320, Note_on_c, 4, 50, 92
10, 553439, Note_on_c, 4, 62, 0
10, 553439, Note_on_c, 4, 50, 0
10, 553560, Note_on_c, 4, 62, 92
10, 553560, Note_on_c, 4, 50, 92
10, 553664, Note_on_c, 4, 62, 0
10, 553664, Note_on_c, 4, 50, 0
10, 553680, Note_on_c, 4, 62, 92
10, 553680, Note_on_c, 4, 50, 92
10, 553799, Note_on_c, 4, 62, 0
10, 553799, Note_on_c, 4, 50, 0
10, 553920, Note_on_c, 4, 62, 92
10, 553920, Note_on_c, 4, 50, 92
10, 554024, Note_on_c, 4, 62, 0
10, 554024, Note_on_c, 4, 50, 0
10, 554040, Note_on_c, 4, 62, 92
10, 554040, Note_on_c, 4, 50, 92
10, 554144, Note_on_c, 4, 62, 0
10, 554144, Note_on_c, 4, 50, 0
10, 554160, Note_on_c, 4, 62, 92
10, 554160, Note_on_c, 4, 50, 92
10, 554264, Note_on_c, 4, 62, 0
10, 554264, Note_on_c, 4, 50, 0
10, 554280, Note_on_c, 4, 62, 92
10, 554280, Note_on_c, 4, 50, 92
10, 554384, Note_on_c, 4, 62, 0
10, 554384, Note_on_c, 4, 50, 0
10, 554400, Note_on_c, 4, 50, 92
10, 554400, Note_on_c, 4, 62, 92
10, 554504, Note_on_c, 4, 50, 0
10, 554504, Note_on_c, 4, 62, 0
10, 554520, Note_on_c, 4, 62, 92
10, 554520, Note_on_c, 4, 50, 92
10, 554624, Note_on_c, 4, 62, 0
10, 554624, Note_on_c, 4, 50, 0
10, 554640, Note_on_c, 4, 62, 92
10, 554640, Note_on_c, 4, 50, 92
10, 554744, Note_on_c, 4, 62, 0
10, 554744, Note_on_c, 4, 50, 0
10, 554760, Note_on_c, 4, 50, 92
10, 554760, Note_on_c, 4, 62, 92
10, 554864, Note_on_c, 4, 50, 0
10, 554864, Note_on_c, 4, 62, 0
10, 554880, Note_on_c, 4, 62, 92
10, 554880, Note_on_c, 4, 50, 92
10, 554984, Note_on_c, 4, 62, 0
10, 554984, Note_on_c, 4, 50, 0
10, 555000, Note_on_c, 4, 62, 92
10, 555000, Note_on_c, 4, 50, 92
10, 555104, Note_on_c, 4, 62, 0
10, 555104, Note_on_c, 4, 50, 0
10, 555120, Note_on_c, 4, 50, 92
10, 555120, Note_on_c, 4, 62, 92
10, 555224, Note_on_c, 4, 50, 0
10, 555224, Note_on_c, 4, 62, 0
10, 555240, Note_on_c, 4, 62, 92
10, 555240, Note_on_c, 4, 50, 92
10, 555344, Note_on_c, 4, 62, 0
10, 555344, Note_on_c, 4, 50, 0
10, 555360, Note_on_c, 4, 50, 92
10, 555360, Note_on_c, 4, 62, 92
10, 555464, Note_on_c, 4, 50, 0
10, 555464, Note_on_c, 4, 62, 0
10, 555480, Note_on_c, 4, 62, 92
10, 555480, Note_on_c, 4, 50, 92
10, 555584, Note_on_c, 4, 62, 0
10, 555584, Note_on_c, 4, 50, 0
10, 555600, Note_on_c, 4, 62, 92
10, 555600, Note_on_c, 4, 50, 92
10, 555704, Note_on_c, 4, 62, 0
10, 555704, Note_on_c, 4, 50, 0
10, 555720, Note_on_c, 4, 62, 92
10, 555720, Note_on_c, 4, 50, 92
10, 555824, Note_on_c, 4, 62, 0
10, 555824, Note_on_c, 4, 50, 0
10, 555840, Note_on_c, 4, 62, 92
10, 555840, Note_on_c, 4, 50, 92
10, 555944, Note_on_c, 4, 62, 0
10, 555944, Note_on_c, 4, 50, 0
10, 555960, Note_on_c, 4, 62, 92
10, 555960, Note_on_c, 4, 50, 92
10, 556064, Note_on_c, 4, 62, 0
10, 556064, Note_on_c, 4, 50, 0
10, 556080, Note_on_c, 4, 50, 92
10, 556080, Note_on_c, 4, 62, 92
10, 556184, Note_on_c, 4, 50, 0
10, 556184, Note_on_c, 4, 62, 0
10, 556200, Note_on_c, 4, 50, 92
10, 556200, Note_on_c, 4, 62, 92
10, 556304, Note_on_c, 4, 50, 0
10, 556304, Note_on_c, 4, 62, 0
10, 556320, Note_on_c, 4, 50, 92
10, 556320, Note_on_c, 4, 62, 92
10, 556424, Note_on_c, 4, 50, 0
10, 556424, Note_on_c, 4, 62, 0
10, 556440, Note_on_c, 4, 50, 92
10, 556440, Note_on_c, 4, 62, 92
10, 556544, Note_on_c, 4, 50, 0
10, 556544, Note_on_c, 4, 62, 0
10, 556560, Note_on_c, 4, 62, 92
10, 556560, Note_on_c, 4, 50, 92
10, 556664, Note_on_c, 4, 62, 0
10, 556664, Note_on_c, 4, 50, 0
10, 556680, Note_on_c, 4, 62, 92
10, 556680, Note_on_c, 4, 50, 92
10, 556784, Note_on_c, 4, 62, 0
10, 556784, Note_on_c, 4, 50, 0
10, 556800, Note_on_c, 4, 62, 92
10, 556800, Note_on_c, 4, 50, 92
10, 556904, Note_on_c, 4, 62, 0
10, 556904, Note_on_c, 4, 50, 0
10, 556920, Note_on_c, 4, 50, 92
10, 556920, Note_on_c, 4, 62, 92
10, 557039, Note_on_c, 4, 50, 0
10, 557039, Note_on_c, 4, 62, 0
10, 557640, Note_on_c, 4, 67, 92
10, 557804, Note_on_c, 4, 67, 0
10, 557820, Note_on_c, 4, 67, 92
10, 557864, Note_on_c, 4, 67, 0
10, 557880, Note_on_c, 4, 67, 92
10, 557984, Note_on_c, 4, 67, 0
10, 558000, Note_on_c, 4, 67, 92
10, 558104, Note_on_c, 4, 67, 0
10, 558120, Note_on_c, 4, 67, 92
10, 558224, Note_on_c, 4, 67, 0
10, 558240, Note_on_c, 4, 67, 92
10, 558344, Note_on_c, 4, 67, 0
10, 558360, Note_on_c, 4, 60, 92
10, 558479, Note_on_c, 4, 60, 0
10, 559080, Note_on_c, 4, 57, 92
10, 559244, Note_on_c, 4, 57, 0
10, 559260, Note_on_c, 4, 57, 92
10, 559304, Note_on_c, 4, 57, 0
10, 559320, Note_on_c, 4, 57, 92
10, 559424, Note_on_c, 4, 57, 0
10, 559440, Note_on_c, 4, 57, 92
10, 559544, Note_on_c, 4, 57, 0
10, 559560, Note_on_c, 4, 57, 92
10, 559664, Note_on_c, 4, 57, 0
10, 559680, Note_on_c, 4, 57, 92
10, 559784, Note_on_c, 4, 57, 0
10, 559800, Note_on_c, 4, 50, 44
10, 559800, Note_on_c, 4, 62, 44
10, 560519, Note_on_c, 4, 50, 0
10, 560519, Note_on_c, 4, 62, 0
10, 560520, Note_on_c, 4, 67, 44
10, 560639, Note_on_c, 4, 67, 0
10, 560880, Control_c, 4, 11, 87
10, 561240, Note_on_c, 4, 67, 68
10, 561240, Control_c, 4, 11, 87
10, 561270, Control_c, 4, 11, 90
10, 561300, Control_c, 4, 11, 94
10, 561330, Control_c, 4, 11, 97
10, 561360, Control_c, 4, 11, 100
10, 561390, Control_c, 4, 11, 104
10, 561420, Control_c, 4, 11, 107
10, 561450, Control_c, 4, 11, 110
10, 561480, Control_c, 4, 11, 114
10, 561510, Control_c, 4, 11, 117
10, 561540, Control_c, 4, 11, 120
10, 561570, Control_c, 4, 11, 124
10, 561600, Control_c, 4, 11, 127
10, 561630, Control_c, 4, 11, 124
10, 561660, Control_c, 4, 11, 120
10, 561690, Control_c, 4, 11, 117
10, 561719, Note_on_c, 4, 67, 0
10, 561720, Note_on_c, 4, 57, 68
10, 561720, Control_c, 4, 11, 114
10, 561720, Note_on_c, 4, 69, 68
10, 561750, Control_c, 4, 11, 110
10, 561780, Control_c, 4, 11, 107
10, 561810, Control_c, 4, 11, 104
10, 561824, Note_on_c, 4, 57, 0
10, 561839, Note_on_c, 4, 69, 0
10, 561840, Control_c, 4, 11, 100
10, 561840, Note_on_c, 4, 57, 68
10, 561870, Control_c, 4, 11, 97
10, 561900, Control_c, 4, 11, 94
10, 561930, Control_c, 4, 11, 90
10, 561959, Note_on_c, 4, 57, 0
10, 562680, Control_c, 4, 11, 127
10, 562920, Note_on_c, 4, 67, 68
10, 563144, Note_on_c, 4, 67, 0
10, 563160, Note_on_c, 4, 69, 74
10, 563160, Note_on_c, 4, 57, 74
10, 563264, Note_on_c, 4, 69, 0
10, 563264, Note_on_c, 4, 57, 0
10, 563280, Note_on_c, 4, 69, 77
10, 563280, Note_on_c, 4, 57, 77
10, 563384, Note_on_c, 4, 69, 0
10, 563384, Note_on_c, 4, 57, 0
10, 563400, Note_on_c, 4, 57, 80
10, 563400, Note_on_c, 4, 69, 80
10, 563504, Note_on_c, 4, 57, 0
10, 563504, Note_on_c, 4, 69, 0
10, 563520, Note_on_c, 4, 57, 80
10, 563520, Note_on_c, 4, 69, 80
10, 563624, Note_on_c, 4, 57, 0
10, 563624, Note_on_c, 4, 69, 0
10, 563640, Note_on_c, 4, 57, 80
10, 563640, Note_on_c, 4, 69, 80
10, 563744, Note_on_c, 4, 57, 0
10, 563744, Note_on_c, 4, 69, 0
10, 563760, Note_on_c, 4, 57, 80
10, 563760, Note_on_c, 4, 69, 80
10, 563864, Note_on_c, 4, 57, 0
10, 563864, Note_on_c, 4, 69, 0
10, 563880, Note_on_c, 4, 57, 80
10, 563880, Note_on_c, 4, 69, 80
10, 563984, Note_on_c, 4, 57, 0
10, 563984, Note_on_c, 4, 69, 0
10, 564000, Note_on_c, 4, 57, 80
10, 564000, Note_on_c, 4, 69, 80
10, 564104, Note_on_c, 4, 57, 0
10, 564104, Note_on_c, 4, 69, 0
10, 564120, Note_on_c, 4, 69, 80
10, 564120, Note_on_c, 4, 57, 80
10, 564224, Note_on_c, 4, 69, 0
10, 564224, Note_on_c, 4, 57, 0
10, 564240, Note_on_c, 4, 50, 80
10, 564240, Note_on_c, 4, 62, 80
10, 564344, Note_on_c, 4, 50, 0
10, 564344, Note_on_c, 4, 62, 0
10, 564360, Note_on_c, 4, 62, 80
10, 564360, Note_on_c, 4, 50, 80
10, 564464, Note_on_c, 4, 62, 0
10, 564464, Note_on_c, 4, 50, 0
10, 564480, Note_on_c, 4, 50, 80
10, 564480, Note_on_c, 4, 62, 80
10, 564584, Note_on_c, 4, 50, 0
10, 564584, Note_on_c, 4, 62, 0
10, 564600, Note_on_c, 4, 57, 80
10, 564600, Note_on_c, 4, 45, 80
10, 564704, Note_on_c, 4, 57, 0
10, 564704, Note_on_c, 4, 45, 0
10, 564720, Note_on_c, 4, 69, 80
10, 564720, Note_on_c, 4, 57, 80
10, 564824, Note_on_c, 4, 69, 0
10, 564824, Note_on_c, 4, 57, 0
10, 564840, Note_on_c, 4, 69, 80
10, 564840, Note_on_c, 4, 57, 80
10, 564944, Note_on_c, 4, 69, 0
10, 564944, Note_on_c, 4, 57, 0
10, 564960, Note_on_c, 4, 57, 80
10, 564960, Note_on_c, 4, 69, 80
10, 565064, Note_on_c, 4, 57, 0
10, 565064, Note_on_c, 4, 69, 0
10, 565080, Note_on_c, 4, 69, 80
10, 565080, Note_on_c, 4, 57, 80
10, 565184, Note_on_c, 4, 69, 0
10, 565184, Note_on_c, 4, 57, 0
10, 565200, Note_on_c, 4, 57, 80
10, 565200, Note_on_c, 4, 69, 80
10, 565304, Note_on_c, 4, 57, 0
10, 565304, Note_on_c, 4, 69, 0
10, 565320, Note_on_c, 4, 69, 80
10, 565320, Note_on_c, 4, 57, 80
10, 565424, Note_on_c, 4, 69, 0
10, 565424, Note_on_c, 4, 57, 0
10, 565440, Note_on_c, 4, 69, 80
10, 565440, Note_on_c, 4, 57, 80
10, 565544, Note_on_c, 4, 69, 0
10, 565544, Note_on_c, 4, 57, 0
10, 565560, Note_on_c, 4, 57, 80
10, 565560, Note_on_c, 4, 69, 80
10, 565664, Note_on_c, 4, 57, 0
10, 565664, Note_on_c, 4, 69, 0
10, 565680, Note_on_c, 4, 57, 80
10, 565680, Note_on_c, 4, 69, 80
10, 565784, Note_on_c, 4, 57, 0
10, 565784, Note_on_c, 4, 69, 0
10, 565800, Note_on_c, 4, 57, 80
10, 565800, Note_on_c, 4, 69, 80
10, 565904, Note_on_c, 4, 57, 0
10, 565904, Note_on_c, 4, 69, 0
10, 565920, Note_on_c, 4, 69, 80
10, 565920, Note_on_c, 4, 57, 80
10, 566024, Note_on_c, 4, 69, 0
10, 566024, Note_on_c, 4, 57, 0
10, 566040, Note_on_c, 4, 69, 80
10, 566040, Note_on_c, 4, 57, 80
10, 566144, Note_on_c, 4, 69, 0
10, 566144, Note_on_c, 4, 57, 0
10, 566160, Note_on_c, 4, 57, 80
10, 566160, Note_on_c, 4, 69, 80
10, 566264, Note_on_c, 4, 57, 0
10, 566264, Note_on_c, 4, 69, 0
10, 566280, Note_on_c, 4, 57, 80
10, 566280, Note_on_c, 4, 69, 80
10, 566384, Note_on_c, 4, 57, 0
10, 566384, Note_on_c, 4, 69, 0
10, 566400, Note_on_c, 4, 69, 80
10, 566400, Note_on_c, 4, 57, 80
10, 566504, Note_on_c, 4, 69, 0
10, 566504, Note_on_c, 4, 57, 0
10, 566520, Note_on_c, 4, 57, 80
10, 566520, Note_on_c, 4, 69, 80
10, 566624, Note_on_c, 4, 57, 0
10, 566624, Note_on_c, 4, 69, 0
10, 566640, Note_on_c, 4, 69, 80
10, 566640, Note_on_c, 4, 57, 80
10, 566744, Note_on_c, 4, 69, 0
10, 566744, Note_on_c, 4, 57, 0
10, 566760, Note_on_c, 4, 57, 80
10, 566760, Note_on_c, 4, 69, 80
10, 566864, Note_on_c, 4, 57, 0
10, 566864, Note_on_c, 4, 69, 0
10, 566880, Note_on_c, 4, 69, 80
10, 566880, Note_on_c, 4, 57, 80
10, 566984, Note_on_c, 4, 69, 0
10, 566984, Note_on_c, 4, 57, 0
10, 567000, Note_on_c, 4, 57, 80
10, 567000, Note_on_c, 4, 69, 80
10, 567104, Note_on_c, 4, 57, 0
10, 567104, Note_on_c, 4, 69, 0
10, 567120, Note_on_c, 4, 69, 80
10, 567120, Note_on_c, 4, 57, 80
10, 567224, Note_on_c, 4, 69, 0
10, 567224, Note_on_c, 4, 57, 0
10, 567240, Note_on_c, 4, 57, 80
10, 567240, Note_on_c, 4, 69, 80
10, 567344, Note_on_c, 4, 57, 0
10, 567344, Note_on_c, 4, 69, 0
10, 567360, Note_on_c, 4, 57, 80
10, 567360, Note_on_c, 4, 69, 80
10, 567464, Note_on_c, 4, 57, 0
10, 567464, Note_on_c, 4, 69, 0
10, 567480, Note_on_c, 4, 69, 80
10, 567480, Note_on_c, 4, 57, 80
10, 567584, Note_on_c, 4, 69, 0
10, 567584, Note_on_c, 4, 57, 0
10, 567600, Note_on_c, 4, 69, 80
10, 567600, Note_on_c, 4, 57, 80
10, 567704, Note_on_c, 4, 69, 0
10, 567704, Note_on_c, 4, 57, 0
10, 569160, Note_on_c, 4, 62, 32
10, 569160, Note_on_c, 4, 50, 32
10, 569324, Note_on_c, 4, 62, 0
10, 569324, Note_on_c, 4, 50, 0
10, 569340, Note_on_c, 4, 50, 32
10, 569340, Note_on_c, 4, 62, 32
10, 569384, Note_on_c, 4, 50, 0
10, 569384, Note_on_c, 4, 62, 0
10, 569400, Note_on_c, 4, 50, 32
10, 569400, Note_on_c, 4, 62, 32
10, 569504, Note_on_c, 4, 50, 0
10, 569504, Note_on_c, 4, 62, 0
10, 569520, Note_on_c, 4, 62, 32
10, 569520, Note_on_c, 4, 50, 32
10, 569639, Note_on_c, 4, 62, 0
10, 569639, Note_on_c, 4, 50, 0
10, 570240, Note_on_c, 4, 62, 32
10, 570240, Note_on_c, 4, 50, 32
10, 570404, Note_on_c, 4, 62, 0
10, 570404, Note_on_c, 4, 50, 0
10, 570420, Note_on_c, 4, 62, 32
10, 570420, Note_on_c, 4, 50, 32
10, 570464, Note_on_c, 4, 62, 0
10, 570464, Note_on_c, 4, 50, 0
10, 570480, Note_on_c, 4, 50, 32
10, 570480, Note_on_c, 4, 62, 32
10, 570584, Note_on_c, 4, 50, 0
10, 570584, Note_on_c, 4, 62, 0
10, 570600, Note_on_c, 4, 50, 32
10, 570600, Note_on_c, 4, 62, 32
10, 570719, Note_on_c, 4, 50, 0
10, 570719, Note_on_c, 4, 62, 0
10, 572040, Note_on_c, 4, 50, 32
10, 572040, Note_on_c, 4, 62, 32
10, 572204, Note_on_c, 4, 50, 0
10, 572204, Note_on_c, 4, 62, 0
10, 572220, Note_on_c, 4, 62, 36
10, 572220, Note_on_c, 4, 50, 36
10, 572264, Note_on_c, 4, 62, 0
10, 572264, Note_on_c, 4, 50, 0
10, 572280, Note_on_c, 4, 62, 37
10, 572280, Note_on_c, 4, 50, 37
10, 572384, Note_on_c, 4, 62, 0
10, 572384, Note_on_c, 4, 50, 0
10, 572400, Note_on_c, 4, 62, 40
10, 572400, Note_on_c, 4, 50, 40
10, 572519, Note_on_c, 4, 62, 0
10, 572519, Note_on_c, 4, 50, 0
10, 572760, Note_on_c, 4, 62, 49
10, 572760, Note_on_c, 4, 50, 49
10, 572924, Note_on_c, 4, 62, 0
10, 572924, Note_on_c, 4, 50, 0
10, 572940, Note_on_c, 4, 62, 53
10, 572940, Note_on_c, 4, 50, 53
10, 572984, Note_on_c, 4, 62, 0
10, 572984, Note_on_c, 4, 50, 0
10, 573000, Note_on_c, 4, 62, 54
10, 573000, Note_on_c, 4, 50, 54
10, 573104, Note_on_c, 4, 62, 0
10, 573104, Note_on_c, 4, 50, 0
10, 573120, Note_on_c, 4, 62, 57
10, 573120, Note_on_c, 4, 50, 57
10, 573239, Note_on_c, 4, 62, 0
10, 573239, Note_on_c, 4, 50, 0
10, 573480, Note_on_c, 4, 62, 66
10, 573480, Note_on_c, 4, 50, 66
10, 573644, Note_on_c, 4, 62, 0
10, 573644, Note_on_c, 4, 50, 0
10, 573660, Note_on_c, 4, 50, 70
10, 573660, Note_on_c, 4, 62, 70
10, 573704, Note_on_c, 4, 50, 0
10, 573704, Note_on_c, 4, 62, 0
10, 573720, Note_on_c, 4, 50, 72
10, 573720, Note_on_c, 4, 62, 72
10, 573824, Note_on_c, 4, 50, 0
10, 573824, Note_on_c, 4, 62, 0
10, 573840, Note_on_c, 4, 50, 74
10, 573840, Note_on_c, 4, 62, 74
10, 573959, Note_on_c, 4, 50, 0
10, 573959, Note_on_c, 4, 62, 0
10, 574200, Note_on_c, 4, 50, 80
10, 574200, Note_on_c, 4, 62, 80
10, 574364, Note_on_c, 4, 50, 0
10, 574364, Note_on_c, 4, 62, 0
10, 574380, Note_on_c, 4, 50, 80
10, 574380, Note_on_c, 4, 62, 80
10, 574424, Note_on_c, 4, 50, 0
10, 574424, Note_on_c, 4, 62, 0
10, 574440, Note_on_c, 4, 50, 80
10, 574440, Note_on_c, 4, 62, 80
10, 574544, Note_on_c, 4, 50, 0
10, 574544, Note_on_c, 4, 62, 0
10, 574560, Note_on_c, 4, 57, 92
10, 574560, Note_on_c, 4, 64, 92
10, 574724, Note_on_c, 4, 57, 0
10, 574724, Note_on_c, 4, 64, 0
10, 574740, Note_on_c, 4, 57, 92
10, 574740, Note_on_c, 4, 64, 92
10, 574784, Note_on_c, 4, 57, 0
10, 574784, Note_on_c, 4, 64, 0
10, 574800, Note_on_c, 4, 57, 92
10, 574800, Note_on_c, 4, 64, 92
10, 575249, Note_on_c, 4, 57, 0
10, 575249, Note_on_c, 4, 64, 0
10, 575280, Note_on_c, 4, 57, 32
10, 575280, Note_on_c, 4, 69, 32
10, 575384, Note_on_c, 4, 57, 0
10, 575384, Note_on_c, 4, 69, 0
10, 575400, Note_on_c, 4, 69, 32
10, 575400, Note_on_c, 4, 57, 32
10, 575504, Note_on_c, 4, 69, 0
10, 575504, Note_on_c, 4, 57, 0
10, 575520, Note_on_c, 4, 57, 32
10, 575520, Note_on_c, 4, 69, 32
10, 575624, Note_on_c, 4, 57, 0
10, 575624, Note_on_c, 4, 69, 0
10, 575640, Note_on_c, 4, 57, 32
10, 575640, Note_on_c, 4, 69, 32
10, 575744, Note_on_c, 4, 57, 0
10, 575744, Note_on_c, 4, 69, 0
10, 575760, Note_on_c, 4, 57, 32
10, 575760, Note_on_c, 4, 69, 32
10, 575864, Note_on_c, 4, 57, 0
10, 575864, Note_on_c, 4, 69, 0
10, 575880, Note_on_c, 4, 69, 32
10, 575880, Note_on_c, 4, 57, 32
10, 575984, Note_on_c, 4, 69, 0
10, 575984, Note_on_c, 4, 57, 0
10, 576000, Note_on_c, 4, 69, 32
10, 576000, Note_on_c, 4, 57, 32
10, 576104, Note_on_c, 4, 69, 0
10, 576104, Note_on_c, 4, 57, 0
10, 576120, Note_on_c, 4, 50, 32
10, 576120, Note_on_c, 4, 62, 32
10, 576224, Note_on_c, 4, 50, 0
10, 576224, Note_on_c, 4, 62, 0
10, 576240, Note_on_c, 4, 50, 32
10, 576240, Note_on_c, 4, 62, 32
10, 576344, Note_on_c, 4, 50, 0
10, 576344, Note_on_c, 4, 62, 0
10, 576360, Note_on_c, 4, 62, 32
10, 576360, Note_on_c, 4, 50, 32
10, 576464, Note_on_c, 4, 62, 0
10, 576464, Note_on_c, 4, 50, 0
10, 576480, Note_on_c, 4, 50, 32
10, 576480, Note_on_c, 4, 62, 32
10, 576584, Note_on_c, 4, 50, 0
10, 576584, Note_on_c, 4, 62, 0
10, 576600, Note_on_c, 4, 62, 32
10, 576600, Note_on_c, 4, 50, 32
10, 576704, Note_on_c, 4, 62, 0
10, 576704, Note_on_c, 4, 50, 0
10, 576720, Note_on_c, 4, 45, 32
10, 576720, Note_on_c, 4, 57, 32
10, 576824, Note_on_c, 4, 45, 0
10, 576824, Note_on_c, 4, 57, 0
10, 576840, Note_on_c, 4, 69, 32
10, 576840, Note_on_c, 4, 57, 32
10, 576944, Note_on_c, 4, 69, 0
10, 576944, Note_on_c, 4, 57, 0
10, 576960, Note_on_c, 4, 57, 32
10, 576960, Note_on_c, 4, 69, 32
10, 577064, Note_on_c, 4, 57, 0
10, 577064, Note_on_c, 4, 69, 0
10, 577080, Note_on_c, 4, 57, 32
10, 577080, Note_on_c, 4, 69, 32
10, 577184, Note_on_c, 4, 57, 0
10, 577184, Note_on_c, 4, 69, 0
10, 577200, Note_on_c, 4, 57, 32
10, 577200, Note_on_c, 4, 69, 32
10, 577304, Note_on_c, 4, 57, 0
10, 577304, Note_on_c, 4, 69, 0
10, 577320, Note_on_c, 4, 69, 32
10, 577320, Note_on_c, 4, 57, 32
10, 577424, Note_on_c, 4, 69, 0
10, 577424, Note_on_c, 4, 57, 0
10, 577440, Note_on_c, 4, 57, 32
10, 577440, Note_on_c, 4, 69, 32
10, 577544, Note_on_c, 4, 57, 0
10, 577544, Note_on_c, 4, 69, 0
10, 577560, Note_on_c, 4, 62, 32
10, 577560, Note_on_c, 4, 50, 32
10, 577664, Note_on_c, 4, 62, 0
10, 577664, Note_on_c, 4, 50, 0
10, 577680, Note_on_c, 4, 50, 32
10, 577680, Note_on_c, 4, 62, 32
10, 577784, Note_on_c, 4, 50, 0
10, 577784, Note_on_c, 4, 62, 0
10, 577800, Note_on_c, 4, 50, 32
10, 577800, Note_on_c, 4, 62, 32
10, 577904, Note_on_c, 4, 50, 0
10, 577904, Note_on_c, 4, 62, 0
10, 577920, Note_on_c, 4, 50, 32
10, 577920, Note_on_c, 4, 62, 32
10, 578024, Note_on_c, 4, 50, 0
10, 578024, Note_on_c, 4, 62, 0
10, 578040, Note_on_c, 4, 62, 32
10, 578040, Note_on_c, 4, 50, 32
10, 578144, Note_on_c, 4, 62, 0
10, 578144, Note_on_c, 4, 50, 0
10, 578160, Note_on_c, 4, 45, 32
10, 578160, Note_on_c, 4, 57, 32
10, 578259, Note_on_c, 4, 45, 0
10, 578259, Note_on_c, 4, 57, 0
10, 578280, Note_on_c, 4, 57, 34
10, 578280, Note_on_c, 4, 69, 34
10, 578379, Note_on_c, 4, 57, 0
10, 578379, Note_on_c, 4, 69, 0
10, 578400, Note_on_c, 4, 57, 37
10, 578400, Note_on_c, 4, 69, 37
10, 578499, Note_on_c, 4, 57, 0
10, 578499, Note_on_c, 4, 69, 0
10, 578520, Note_on_c, 4, 57, 39
10, 578520, Note_on_c, 4, 69, 39
10, 578619, Note_on_c, 4, 57, 0
10, 578619, Note_on_c, 4, 69, 0
10, 578640, Note_on_c, 4, 69, 42
10, 578640, Note_on_c, 4, 57, 42
10, 578739, Note_on_c, 4, 69, 0
10, 578739, Note_on_c, 4, 57, 0
10, 578760, Note_on_c, 4, 57, 44
10, 578760, Note_on_c, 4, 69, 44
10, 578859, Note_on_c, 4, 57, 0
10, 578859, Note_on_c, 4, 69, 0
10, 578880, Note_on_c, 4, 69, 47
10, 578880, Note_on_c, 4, 57, 47
10, 578979, Note_on_c, 4, 69, 0
10, 578979, Note_on_c, 4, 57, 0
10, 579000, Note_on_c, 4, 57, 49
10, 579000, Note_on_c, 4, 69, 49
10, 579099, Note_on_c, 4, 57, 0
10, 579099, Note_on_c, 4, 69, 0
10, 579120, Note_on_c, 4, 69, 52
10, 579120, Note_on_c, 4, 57, 52
10, 579219, Note_on_c, 4, 69, 0
10, 579219, Note_on_c, 4, 57, 0
10, 579240, Note_on_c, 4, 69, 54
10, 579240, Note_on_c, 4, 57, 54
10, 579339, Note_on_c, 4, 69, 0
10, 579339, Note_on_c, 4, 57, 0
10, 579360, Note_on_c, 4, 57, 57
10, 579360, Note_on_c, 4, 69, 57
10, 579459, Note_on_c, 4, 57, 0
10, 579459, Note_on_c, 4, 69, 0
10, 579480, Note_on_c, 4, 57, 59
10, 579480, Note_on_c, 4, 69, 59
10, 579579, Note_on_c, 4, 57, 0
10, 579579, Note_on_c, 4, 69, 0
10, 579600, Note_on_c, 4, 57, 62
10, 579600, Note_on_c, 4, 69, 62
10, 579699, Note_on_c, 4, 57, 0
10, 579699, Note_on_c, 4, 69, 0
10, 579720, Note_on_c, 4, 57, 64
10, 579720, Note_on_c, 4, 69, 64
10, 579819, Note_on_c, 4, 57, 0
10, 579819, Note_on_c, 4, 69, 0
10, 579840, Note_on_c, 4, 57, 67
10, 579840, Note_on_c, 4, 69, 67
10, 579939, Note_on_c, 4, 57, 0
10, 579939, Note_on_c, 4, 69, 0
10, 579960, Note_on_c, 4, 69, 69
10, 579960, Note_on_c, 4, 57, 69
10, 580059, Note_on_c, 4, 69, 0
10, 580059, Note_on_c, 4, 57, 0
10, 580080, Note_on_c, 4, 69, 72
10, 580080, Note_on_c, 4, 57, 72
10, 580179, Note_on_c, 4, 69, 0
10, 580179, Note_on_c, 4, 57, 0
10, 580200, Note_on_c, 4, 69, 74
10, 580200, Note_on_c, 4, 57, 74
10, 580299, Note_on_c, 4, 69, 0
10, 580299, Note_on_c, 4, 57, 0
10, 580320, Note_on_c, 4, 69, 77
10, 580320, Note_on_c, 4, 57, 77
10, 580419, Note_on_c, 4, 69, 0
10, 580419, Note_on_c, 4, 57, 0
10, 580440, Note_on_c, 4, 69, 79
10, 580440, Note_on_c, 4, 57, 79
10, 580539, Note_on_c, 4, 69, 0
10, 580539, Note_on_c, 4, 57, 0
10, 580560, Note_on_c, 4, 57, 82
10, 580560, Note_on_c, 4, 69, 82
10, 580659, Note_on_c, 4, 57, 0
10, 580659, Note_on_c, 4, 69, 0
10, 580680, Note_on_c, 4, 57, 84
10, 580680, Note_on_c, 4, 69, 84
10, 580779, Note_on_c, 4, 57, 0
10, 580779, Note_on_c, 4, 69, 0
10, 580800, Note_on_c, 4, 57, 87
10, 580800, Note_on_c, 4, 69, 87
10, 580899, Note_on_c, 4, 57, 0
10, 580899, Note_on_c, 4, 69, 0
10, 580920, Note_on_c, 4, 57, 89
10, 580920, Note_on_c, 4, 69, 89
10, 581019, Note_on_c, 4, 57, 0
10, 581019, Note_on_c, 4, 69, 0
10, 581040, Note_on_c, 4, 69, 92
10, 581139, Note_on_c, 4, 69, 0
10, 581160, Note_on_c, 4, 57, 92
10, 581259, Note_on_c, 4, 57, 0
10, 581280, Note_on_c, 4, 62, 80
10, 581379, Note_on_c, 4, 62, 0
10, 581400, Note_on_c, 4, 50, 80
10, 581499, Note_on_c, 4, 50, 0
10, 581520, Note_on_c, 4, 57, 80
10, 581619, Note_on_c, 4, 57, 0
10, 581640, Note_on_c, 4, 45, 80
10, 581739, Note_on_c, 4, 45, 0
10, 581760, Note_on_c, 4, 69, 80
10, 581859, Note_on_c, 4, 69, 0
10, 581880, Note_on_c, 4, 57, 80
10, 581979, Note_on_c, 4, 57, 0
10, 582000, Note_on_c, 4, 62, 80
10, 582000, Note_on_c, 4, 50, 80
10, 582119, Note_on_c, 4, 62, 0
10, 582119, Note_on_c, 4, 50, 0
10, 585840, Note_on_c, 4, 69, 92
10, 585939, Note_on_c, 4, 69, 0
10, 585960, Note_on_c, 4, 57, 92
10, 586059, Note_on_c, 4, 57, 0
10, 586080, Note_on_c, 4, 62, 80
10, 586179, Note_on_c, 4, 62, 0
10, 586200, Note_on_c, 4, 50, 80
10, 586299, Note_on_c, 4, 50, 0
10, 586320, Note_on_c, 4, 57, 80
10, 586419, Note_on_c, 4, 57, 0
10, 586440, Note_on_c, 4, 45, 80
10, 586539, Note_on_c, 4, 45, 0
10, 586560, Note_on_c, 4, 69, 80
10, 586659, Note_on_c, 4, 69, 0
10, 586680, Note_on_c, 4, 57, 80
10, 586779, Note_on_c, 4, 57, 0
10, 586800, Note_on_c, 4, 50, 80
10, 586800, Note_on_c, 4, 62, 80
10, 586919, Note_on_c, 4, 50, 0
10, 586919, Note_on_c, 4, 62, 0
10, 586919, End_track
11, 0, Start_track
11, 0, Title_t, "French Horn in B-flat basso"
11, 0, MIDI_port, 0
11, 0, Program_c, 5, 60
11, 0, Control_c, 5, 7, 104
11, 0, Control_c, 5, 10, 50
11, 0, Control_c, 5, 11, 127
11, 1800, Note_on_c, 5, 62, 92
11, 1964, Note_on_c, 5, 62, 0
11, 1980, Note_on_c, 5, 50, 92
11, 2024, Note_on_c, 5, 50, 0
11, 2040, Note_on_c, 5, 50, 92
11, 2159, Note_on_c, 5, 50, 0
11, 7200, Note_on_c, 5, 65, 32
11, 7319, Note_on_c, 5, 65, 0
11, 7560, Note_on_c, 5, 60, 32
11, 7679, Note_on_c, 5, 60, 0
11, 9720, Note_on_c, 5, 41, 32
11, 9720, Note_on_c, 5, 53, 32
11, 9839, Note_on_c, 5, 41, 0
11, 9839, Note_on_c, 5, 53, 0
11, 10080, Note_on_c, 5, 41, 32
11, 10080, Note_on_c, 5, 53, 32
11, 10199, Note_on_c, 5, 41, 0
11, 10199, Note_on_c, 5, 53, 0
11, 15000, Note_on_c, 5, 53, 32
11, 15000, Note_on_c, 5, 65, 32
11, 15119, Note_on_c, 5, 53, 0
11, 15119, Note_on_c, 5, 65, 0
11, 15480, Note_on_c, 5, 62, 32
11, 15480, Note_on_c, 5, 50, 32
11, 15599, Note_on_c, 5, 62, 0
11, 15599, Note_on_c, 5, 50, 0
11, 15720, Note_on_c, 5, 65, 32
11, 15720, Note_on_c, 5, 53, 32
11, 15824, Note_on_c, 5, 65, 0
11, 15824, Note_on_c, 5, 53, 0
11, 16200, Note_on_c, 5, 62, 37
11, 16200, Note_on_c, 5, 50, 37
11, 16319, Note_on_c, 5, 62, 0
11, 16319, Note_on_c, 5, 50, 0
11, 16440, Note_on_c, 5, 65, 40
11, 16440, Note_on_c, 5, 53, 40
11, 16559, Note_on_c, 5, 65, 0
11, 16559, Note_on_c, 5, 53, 0
11, 16920, Note_on_c, 5, 62, 47
11, 16920, Note_on_c, 5, 50, 47
11, 17039, Note_on_c, 5, 62, 0
11, 17039, Note_on_c, 5, 50, 0
11, 17160, Note_on_c, 5, 53, 50
11, 17160, Note_on_c, 5, 65, 50
11, 17279, Note_on_c, 5, 53, 0
11, 17279, Note_on_c, 5, 65, 0
11, 17640, Note_on_c, 5, 62, 57
11, 17640, Note_on_c, 5, 50, 57
11, 17759, Note_on_c, 5, 62, 0
11, 17759, Note_on_c, 5, 50, 0
11, 17880, Note_on_c, 5, 53, 60
11, 17880, Note_on_c, 5, 65, 60
11, 17999, Note_on_c, 5, 53, 0
11, 17999, Note_on_c, 5, 65, 0
11, 18360, Note_on_c, 5, 62, 67
11, 18360, Note_on_c, 5, 50, 67
11, 18479, Note_on_c, 5, 62, 0
11, 18479, Note_on_c, 5, 50, 0
11, 18600, Note_on_c, 5, 53, 70
11, 18600, Note_on_c, 5, 65, 70
11, 18719, Note_on_c, 5, 53, 0
11, 18719, Note_on_c, 5, 65, 0
11, 19080, Note_on_c, 5, 62, 77
11, 19080, Note_on_c, 5, 50, 77
11, 19199, Note_on_c, 5, 62, 0
11, 19199, Note_on_c, 5, 50, 0
11, 19320, Note_on_c, 5, 53, 80
11, 19320, Note_on_c, 5, 65, 80
11, 19439, Note_on_c, 5, 53, 0
11, 19439, Note_on_c, 5, 65, 0
11, 19560, Note_on_c, 5, 53, 83
11, 19560, Note_on_c, 5, 65, 83
11, 19679, Note_on_c, 5, 53, 0
11, 19679, Note_on_c, 5, 65, 0
11, 20160, Note_on_c, 5, 62, 92
11, 20160, Note_on_c, 5, 50, 92
11, 20264, Note_on_c, 5, 62, 0
11, 20264, Note_on_c, 5, 50, 0
11, 20280, Note_on_c, 5, 62, 92
11, 20280, Note_on_c, 5, 50, 92
11, 20384, Note_on_c, 5, 62, 0
11, 20384, Note_on_c, 5, 50, 0
11, 20400, Note_on_c, 5, 62, 92
11, 20400, Note_on_c, 5, 50, 92
11, 20504, Note_on_c, 5, 62, 0
11, 20504, Note_on_c, 5, 50, 0
11, 20520, Note_on_c, 5, 50, 92
11, 20520, Note_on_c, 5, 62, 92
11, 20624, Note_on_c, 5, 50, 0
11, 20624, Note_on_c, 5, 62, 0
11, 20640, Note_on_c, 5, 62, 92
11, 20640, Note_on_c, 5, 50, 92
11, 20744, Note_on_c, 5, 62, 0
11, 20744, Note_on_c, 5, 50, 0
11, 20760, Note_on_c, 5, 62, 92
11, 20760, Note_on_c, 5, 50, 92
11, 20879, Note_on_c, 5, 62, 0
11, 20879, Note_on_c, 5, 50, 0
11, 21240, Note_on_c, 5, 62, 92
11, 21240, Note_on_c, 5, 50, 92
11, 21344, Note_on_c, 5, 62, 0
11, 21344, Note_on_c, 5, 50, 0
11, 21360, Note_on_c, 5, 62, 92
11, 21360, Note_on_c, 5, 50, 92
11, 21464, Note_on_c, 5, 62, 0
11, 21464, Note_on_c, 5, 50, 0
11, 21480, Note_on_c, 5, 50, 92
11, 21480, Note_on_c, 5, 62, 92
11, 21584, Note_on_c, 5, 50, 0
11, 21584, Note_on_c, 5, 62, 0
11, 21600, Note_on_c, 5, 50, 80
11, 21600, Note_on_c, 5, 62, 80
11, 21704, Note_on_c, 5, 50, 0
11, 21704, Note_on_c, 5, 62, 0
11, 21720, Note_on_c, 5, 50, 80
11, 21720, Note_on_c, 5, 62, 80
11, 21824, Note_on_c, 5, 50, 0
11, 21824, Note_on_c, 5, 62, 0
11, 21840, Note_on_c, 5, 50, 80
11, 21840, Note_on_c, 5, 62, 80
11, 21944, Note_on_c, 5, 50, 0
11, 21944, Note_on_c, 5, 62, 0
11, 21960, Note_on_c, 5, 53, 80
11, 21960, Note_on_c, 5, 65, 80
11, 22064, Note_on_c, 5, 53, 0
11, 22064, Note_on_c, 5, 65, 0
11, 22080, Note_on_c, 5, 65, 80
11, 22080, Note_on_c, 5, 53, 80
11, 22184, Note_on_c, 5, 65, 0
11, 22184, Note_on_c, 5, 53, 0
11, 22200, Note_on_c, 5, 53, 80
11, 22200, Note_on_c, 5, 65, 80
11, 22304, Note_on_c, 5, 53, 0
11, 22304, Note_on_c, 5, 65, 0
11, 22680, Note_on_c, 5, 53, 80
11, 22680, Note_on_c, 5, 65, 80
11, 22799, Note_on_c, 5, 53, 0
11, 22799, Note_on_c, 5, 65, 0
11, 22920, Note_on_c, 5, 65, 80
11, 22920, Note_on_c, 5, 53, 80
11, 23024, Note_on_c, 5, 65, 0
11, 23024, Note_on_c, 5, 53, 0
11, 23040, Note_on_c, 5, 50, 80
11, 23040, Note_on_c, 5, 62, 80
11, 23144, Note_on_c, 5, 50, 0
11, 23144, Note_on_c, 5, 62, 0
11, 23160, Note_on_c, 5, 50, 80
11, 23160, Note_on_c, 5, 62, 80
11, 23264, Note_on_c, 5, 50, 0
11, 23264, Note_on_c, 5, 62, 0
11, 23280, Note_on_c, 5, 62, 80
11, 23280, Note_on_c, 5, 50, 80
11, 23384, Note_on_c, 5, 62, 0
11, 23384, Note_on_c, 5, 50, 0
11, 23400, Note_on_c, 5, 65, 80
11, 23400, Note_on_c, 5, 53, 80
11, 23504, Note_on_c, 5, 65, 0
11, 23504, Note_on_c, 5, 53, 0
11, 23520, Note_on_c, 5, 53, 80
11, 23520, Note_on_c, 5, 65, 80
11, 23624, Note_on_c, 5, 53, 0
11, 23624, Note_on_c, 5, 65, 0
11, 23640, Note_on_c, 5, 65, 80
11, 23640, Note_on_c, 5, 53, 80
11, 23744, Note_on_c, 5, 65, 0
11, 23744, Note_on_c, 5, 53, 0
11, 24120, Note_on_c, 5, 50, 80
11, 24120, Note_on_c, 5, 62, 80
11, 24224, Note_on_c, 5, 50, 0
11, 24224, Note_on_c, 5, 62, 0
11, 24240, Note_on_c, 5, 62, 80
11, 24240, Note_on_c, 5, 50, 80
11, 24344, Note_on_c, 5, 62, 0
11, 24344, Note_on_c, 5, 50, 0
11, 24360, Note_on_c, 5, 62, 80
11, 24360, Note_on_c, 5, 50, 80
11, 24464, Note_on_c, 5, 62, 0
11, 24464, Note_on_c, 5, 50, 0
11, 24480, Note_on_c, 5, 50, 80
11, 24480, Note_on_c, 5, 62, 80
11, 24584, Note_on_c, 5, 50, 0
11, 24584, Note_on_c, 5, 62, 0
11, 24600, Note_on_c, 5, 62, 80
11, 24600, Note_on_c, 5, 50, 80
11, 24704, Note_on_c, 5, 62, 0
11, 24704, Note_on_c, 5, 50, 0
11, 24720, Note_on_c, 5, 62, 80
11, 24720, Note_on_c, 5, 50, 80
11, 24824, Note_on_c, 5, 62, 0
11, 24824, Note_on_c, 5, 50, 0
11, 24840, Note_on_c, 5, 60, 80
11, 24944, Note_on_c, 5, 60, 0
11, 25680, Note_on_c, 5, 50, 80
11, 25680, Note_on_c, 5, 62, 80
11, 25784, Note_on_c, 5, 50, 0
11, 25784, Note_on_c, 5, 62, 0
11, 25800, Note_on_c, 5, 50, 80
11, 25800, Note_on_c, 5, 62, 80
11, 25904, Note_on_c, 5, 50, 0
11, 25904, Note_on_c, 5, 62, 0
11, 25920, Note_on_c, 5, 50, 80
11, 25920, Note_on_c, 5, 62, 80
11, 26024, Note_on_c, 5, 50, 0
11, 26024, Note_on_c, 5, 62, 0
11, 26040, Note_on_c, 5, 62, 80
11, 26040, Note_on_c, 5, 50, 80
11, 26144, Note_on_c, 5, 62, 0
11, 26144, Note_on_c, 5, 50, 0
11, 26160, Note_on_c, 5, 62, 80
11, 26160, Note_on_c, 5, 50, 80
11, 26264, Note_on_c, 5, 62, 0
11, 26264, Note_on_c, 5, 50, 0
11, 26280, Note_on_c, 5, 60, 80
11, 26399, Note_on_c, 5, 60, 0
11, 26640, Note_on_c, 5, 60, 80
11, 26759, Note_on_c, 5, 60, 0
11, 27000, Note_on_c, 5, 60, 80
11, 27119, Note_on_c, 5, 60, 0
11, 33120, Note_on_c, 5, 60, 92
11, 33464, Note_on_c, 5, 60, 0
11, 33480, Note_on_c, 5, 53, 92
11, 33480, Note_on_c, 5, 65, 92
11, 33599, Note_on_c, 5, 53, 0
11, 33599, Note_on_c, 5, 65, 0
11, 33720, Note_on_c, 5, 60, 92
11, 33824, Note_on_c, 5, 60, 0
11, 33840, Note_on_c, 5, 53, 92
11, 33840, Note_on_c, 5, 65, 92
11, 33959, Note_on_c, 5, 53, 0
11, 33959, Note_on_c, 5, 65, 0
11, 34080, Note_on_c, 5, 60, 92
11, 34184, Note_on_c, 5, 60, 0
11, 34200, Note_on_c, 5, 65, 92
11, 34200, Note_on_c, 5, 53, 92
11, 34319, Note_on_c, 5, 65, 0
11, 34319, Note_on_c, 5, 53, 0
11, 34440, Note_on_c, 5, 65, 92
11, 34544, Note_on_c, 5, 65, 0
11, 34560, Note_on_c, 5, 60, 92
11, 34904, Note_on_c, 5, 60, 0
11, 34920, Note_on_c, 5, 53, 92
11, 34920, Note_on_c, 5, 65, 92
11, 35039, Note_on_c, 5, 53, 0
11, 35039, Note_on_c, 5, 65, 0
11, 35160, Note_on_c, 5, 60, 92
11, 35264, Note_on_c, 5, 60, 0
11, 35280, Note_on_c, 5, 53, 92
11, 35280, Note_on_c, 5, 65, 92
11, 35399, Note_on_c, 5, 53, 0
11, 35399, Note_on_c, 5, 65, 0
11, 35520, Note_on_c, 5, 60, 92
11, 35624, Note_on_c, 5, 60, 0
11, 35640, Note_on_c, 5, 65, 92
11, 35640, Note_on_c, 5, 53, 92
11, 35759, Note_on_c, 5, 65, 0
11, 35759, Note_on_c, 5, 53, 0
11, 35880, Note_on_c, 5, 65, 92
11, 35984, Note_on_c, 5, 65, 0
11, 36000, Note_on_c, 5, 60, 92
11, 36104, Note_on_c, 5, 60, 0
11, 36120, Note_on_c, 5, 60, 92
11, 36224, Note_on_c, 5, 60, 0
11, 36240, Note_on_c, 5, 60, 92
11, 36344, Note_on_c, 5, 60, 0
11, 36360, Note_on_c, 5, 65, 92
11, 36464, Note_on_c, 5, 65, 0
11, 36480, Note_on_c, 5, 65, 92
11, 36584, Note_on_c, 5, 65, 0
11, 36600, Note_on_c, 5, 60, 92
11, 36704, Note_on_c, 5, 60, 0
11, 36720, Note_on_c, 5, 65, 92
11, 36824, Note_on_c, 5, 65, 0
11, 36840, Note_on_c, 5, 65, 92
11, 36944, Note_on_c, 5, 65, 0
11, 36960, Note_on_c, 5, 60, 92
11, 37064, Note_on_c, 5, 60, 0
11, 37080, Note_on_c, 5, 65, 92
11, 37184, Note_on_c, 5, 65, 0
11, 37200, Note_on_c, 5, 65, 92
11, 37304, Note_on_c, 5, 65, 0
11, 37320, Note_on_c, 5, 65, 92
11, 37424, Note_on_c, 5, 65, 0
11, 37440, Note_on_c, 5, 60, 92
11, 37544, Note_on_c, 5, 60, 0
11, 37560, Note_on_c, 5, 60, 92
11, 37664, Note_on_c, 5, 60, 0
11, 37680, Note_on_c, 5, 60, 92
11, 37784, Note_on_c, 5, 60, 0
11, 37800, Note_on_c, 5, 65, 92
11, 37904, Note_on_c, 5, 65, 0
11, 37920, Note_on_c, 5, 65, 92
11, 38024, Note_on_c, 5, 65, 0
11, 38040, Note_on_c, 5, 60, 92
11, 38144, Note_on_c, 5, 60, 0
11, 38160, Note_on_c, 5, 65, 92
11, 38264, Note_on_c, 5, 65, 0
11, 38280, Note_on_c, 5, 65, 92
11, 38384, Note_on_c, 5, 65, 0
11, 38400, Note_on_c, 5, 60, 92
11, 38504, Note_on_c, 5, 60, 0
11, 38520, Note_on_c, 5, 65, 92
11, 38624, Note_on_c, 5, 65, 0
11, 38640, Note_on_c, 5, 65, 92
11, 38744, Note_on_c, 5, 65, 0
11, 38760, Note_on_c, 5, 60, 92
11, 38864, Note_on_c, 5, 60, 0
11, 38880, Note_on_c, 5, 60, 92
11, 39044, Note_on_c, 5, 60, 0
11, 39060, Note_on_c, 5, 60, 92
11, 39104, Note_on_c, 5, 60, 0
11, 39120, Note_on_c, 5, 60, 92
11, 39224, Note_on_c, 5, 60, 0
11, 39240, Note_on_c, 5, 60, 92
11, 39359, Note_on_c, 5, 60, 0
11, 39600, Note_on_c, 5, 53, 92
11, 39600, Note_on_c, 5, 65, 92
11, 39764, Note_on_c, 5, 53, 0
11, 39764, Note_on_c, 5, 65, 0
11, 39780, Note_on_c, 5, 53, 92
11, 39780, Note_on_c, 5, 41, 92
11, 39824, Note_on_c, 5, 53, 0
11, 39824, Note_on_c, 5, 41, 0
11, 39840, Note_on_c, 5, 53, 92
11, 39840, Note_on_c, 5, 41, 92
11, 39944, Note_on_c, 5, 53, 0
11, 39944, Note_on_c, 5, 41, 0
11, 39960, Note_on_c, 5, 53, 92
11, 39960, Note_on_c, 5, 65, 92
11, 40079, Note_on_c, 5, 53, 0
11, 40079, Note_on_c, 5, 65, 0
11, 41400, Control_c, 5, 11, 87
11, 41760, Note_on_c, 5, 60, 68
11, 42480, Control_c, 5, 11, 87
11, 42510, Control_c, 5, 11, 89
11, 42540, Control_c, 5, 11, 90
11, 42570, Control_c, 5, 11, 92
11, 42600, Control_c, 5, 11, 94
11, 42630, Control_c, 5, 11, 95
11, 42660, Control_c, 5, 11, 97
11, 42690, Control_c, 5, 11, 99
11, 42720, Control_c, 5, 11, 100
11, 42750, Control_c, 5, 11, 102
11, 42780, Control_c, 5, 11, 104
11, 42810, Control_c, 5, 11, 105
11, 42840, Control_c, 5, 11, 107
11, 42870, Control_c, 5, 11, 109
11, 42900, Control_c, 5, 11, 110
11, 42930, Control_c, 5, 11, 112
11, 42960, Control_c, 5, 11, 114
11, 42990, Control_c, 5, 11, 115
11, 43020, Control_c, 5, 11, 117
11, 43050, Control_c, 5, 11, 119
11, 43080, Control_c, 5, 11, 120
11, 43110, Control_c, 5, 11, 122
11, 43140, Control_c, 5, 11, 124
11, 43170, Control_c, 5, 11, 125
11, 43200, Control_c, 5, 11, 127
11, 43230, Control_c, 5, 11, 125
11, 43260, Control_c, 5, 11, 124
11, 43290, Control_c, 5, 11, 122
11, 43320, Control_c, 5, 11, 120
11, 43350, Control_c, 5, 11, 119
11, 43380, Control_c, 5, 11, 117
11, 43410, Control_c, 5, 11, 115
11, 43440, Control_c, 5, 11, 114
11, 43470, Control_c, 5, 11, 112
11, 43500, Control_c, 5, 11, 110
11, 43530, Control_c, 5, 11, 109
11, 43560, Control_c, 5, 11, 107
11, 43590, Control_c, 5, 11, 105
11, 43620, Control_c, 5, 11, 104
11, 43650, Control_c, 5, 11, 102
11, 43680, Control_c, 5, 11, 100
11, 43710, Control_c, 5, 11, 99
11, 43740, Control_c, 5, 11, 97
11, 43770, Control_c, 5, 11, 95
11, 43800, Control_c, 5, 11, 94
11, 43830, Control_c, 5, 11, 92
11, 43860, Control_c, 5, 11, 90
11, 43890, Control_c, 5, 11, 89
11, 43904, Note_on_c, 5, 60, 0
11, 45000, Control_c, 5, 11, 127
11, 45360, Note_on_c, 5, 60, 80
11, 45464, Note_on_c, 5, 60, 0
11, 45480, Note_on_c, 5, 60, 80
11, 45584, Note_on_c, 5, 60, 0
11, 45600, Note_on_c, 5, 60, 80
11, 45704, Note_on_c, 5, 60, 0
11, 45720, Note_on_c, 5, 50, 80
11, 45720, Note_on_c, 5, 62, 80
11, 45824, Note_on_c, 5, 50, 0
11, 45824, Note_on_c, 5, 62, 0
11, 45840, Note_on_c, 5, 50, 80
11, 45840, Note_on_c, 5, 62, 80
11, 45944, Note_on_c, 5, 50, 0
11, 45944, Note_on_c, 5, 62, 0
11, 45960, Note_on_c, 5, 50, 80
11, 45960, Note_on_c, 5, 62, 80
11, 46064, Note_on_c, 5, 50, 0
11, 46064, Note_on_c, 5, 62, 0
11, 46080, Note_on_c, 5, 60, 80
11, 46199, Note_on_c, 5, 60, 0
11, 46800, Note_on_c, 5, 60, 80
11, 46904, Note_on_c, 5, 60, 0
11, 46920, Note_on_c, 5, 60, 80
11, 47024, Note_on_c, 5, 60, 0
11, 47040, Note_on_c, 5, 60, 80
11, 47144, Note_on_c, 5, 60, 0
11, 47160, Note_on_c, 5, 50, 80
11, 47160, Note_on_c, 5, 62, 80
11, 47264, Note_on_c, 5, 50, 0
11, 47264, Note_on_c, 5, 62, 0
11, 47280, Note_on_c, 5, 62, 80
11, 47280, Note_on_c, 5, 50, 80
11, 47384, Note_on_c, 5, 62, 0
11, 47384, Note_on_c, 5, 50, 0
11, 47400, Note_on_c, 5, 50, 80
11, 47400, Note_on_c, 5, 62, 80
11, 47504, Note_on_c, 5, 50, 0
11, 47504, Note_on_c, 5, 62, 0
11, 47520, Note_on_c, 5, 60, 80
11, 47639, Note_on_c, 5, 60, 0
11, 48240, Note_on_c, 5, 60, 80
11, 48359, Note_on_c, 5, 60, 0
11, 48960, Note_on_c, 5, 60, 80
11, 49079, Note_on_c, 5, 60, 0
11, 51840, Note_on_c, 5, 53, 32
11, 52004, Note_on_c, 5, 53, 0
11, 52020, Note_on_c, 5, 53, 32
11, 52064, Note_on_c, 5, 53, 0
11, 52080, Note_on_c, 5, 53, 32
11, 52184, Note_on_c, 5, 53, 0
11, 52200, Note_on_c, 5, 50, 32
11, 52319, Note_on_c, 5, 50, 0
11, 58320, Note_on_c, 5, 65, 32
11, 58439, Note_on_c, 5, 65, 0
11, 58680, Note_on_c, 5, 60, 32
11, 58799, Note_on_c, 5, 60, 0
11, 60840, Note_on_c, 5, 41, 32
11, 60840, Note_on_c, 5, 53, 32
11, 60959, Note_on_c, 5, 41, 0
11, 60959, Note_on_c, 5, 53, 0
11, 61200, Note_on_c, 5, 53, 32
11, 61200, Note_on_c, 5, 41, 32
11, 61319, Note_on_c, 5, 53, 0
11, 61319, Note_on_c, 5, 41, 0
11, 66120, Note_on_c, 5, 53, 32
11, 66120, Note_on_c, 5, 65, 32
11, 66239, Note_on_c, 5, 53, 0
11, 66239, Note_on_c, 5, 65, 0
11, 66600, Note_on_c, 5, 62, 32
11, 66600, Note_on_c, 5, 50, 32
11, 66719, Note_on_c, 5, 62, 0
11, 66719, Note_on_c, 5, 50, 0
11, 66840, Note_on_c, 5, 53, 32
11, 66840, Note_on_c, 5, 65, 32
11, 66944, Note_on_c, 5, 53, 0
11, 66944, Note_on_c, 5, 65, 0
11, 67320, Note_on_c, 5, 62, 37
11, 67320, Note_on_c, 5, 50, 37
11, 67439, Note_on_c, 5, 62, 0
11, 67439, Note_on_c, 5, 50, 0
11, 67560, Note_on_c, 5, 53, 40
11, 67560, Note_on_c, 5, 65, 40
11, 67679, Note_on_c, 5, 53, 0
11, 67679, Note_on_c, 5, 65, 0
11, 68040, Note_on_c, 5, 62, 47
11, 68040, Note_on_c, 5, 50, 47
11, 68159, Note_on_c, 5, 62, 0
11, 68159, Note_on_c, 5, 50, 0
11, 68280, Note_on_c, 5, 65, 50
11, 68280, Note_on_c, 5, 53, 50
11, 68399, Note_on_c, 5, 65, 0
11, 68399, Note_on_c, 5, 53, 0
11, 68760, Note_on_c, 5, 62, 57
11, 68760, Note_on_c, 5, 50, 57
11, 68879, Note_on_c, 5, 62, 0
11, 68879, Note_on_c, 5, 50, 0
11, 69000, Note_on_c, 5, 65, 60
11, 69000, Note_on_c, 5, 53, 60
11, 69119, Note_on_c, 5, 65, 0
11, 69119, Note_on_c, 5, 53, 0
11, 69480, Note_on_c, 5, 50, 67
11, 69480, Note_on_c, 5, 62, 67
11, 69599, Note_on_c, 5, 50, 0
11, 69599, Note_on_c, 5, 62, 0
11, 69720, Note_on_c, 5, 65, 70
11, 69720, Note_on_c, 5, 53, 70
11, 69839, Note_on_c, 5, 65, 0
11, 69839, Note_on_c, 5, 53, 0
11, 70200, Note_on_c, 5, 50, 77
11, 70200, Note_on_c, 5, 62, 77
11, 70319, Note_on_c, 5, 50, 0
11, 70319, Note_on_c, 5, 62, 0
11, 70440, Note_on_c, 5, 53, 80
11, 70440, Note_on_c, 5, 65, 80
11, 70559, Note_on_c, 5, 53, 0
11, 70559, Note_on_c, 5, 65, 0
11, 70680, Note_on_c, 5, 65, 83
11, 70680, Note_on_c, 5, 53, 83
11, 70799, Note_on_c, 5, 65, 0
11, 70799, Note_on_c, 5, 53, 0
11, 71280, Note_on_c, 5, 50, 92
11, 71280, Note_on_c, 5, 62, 92
11, 71384, Note_on_c, 5, 50, 0
11, 71384, Note_on_c, 5, 62, 0
11, 71400, Note_on_c, 5, 50, 92
11, 71400, Note_on_c, 5, 62, 92
11, 71504, Note_on_c, 5, 50, 0
11, 71504, Note_on_c, 5, 62, 0
11, 71520, Note_on_c, 5, 62, 92
11, 71520, Note_on_c, 5, 50, 92
11, 71624, Note_on_c, 5, 62, 0
11, 71624, Note_on_c, 5, 50, 0
11, 71640, Note_on_c, 5, 62, 92
11, 71640, Note_on_c, 5, 50, 92
11, 71744, Note_on_c, 5, 62, 0
11, 71744, Note_on_c, 5, 50, 0
11, 71760, Note_on_c, 5, 50, 92
11, 71760, Note_on_c, 5, 62, 92
11, 71864, Note_on_c, 5, 50, 0
11, 71864, Note_on_c, 5, 62, 0
11, 71880, Note_on_c, 5, 50, 92
11, 71880, Note_on_c, 5, 62, 92
11, 71999, Note_on_c, 5, 50, 0
11, 71999, Note_on_c, 5, 62, 0
11, 72360, Note_on_c, 5, 62, 92
11, 72360, Note_on_c, 5, 50, 92
11, 72464, Note_on_c, 5, 62, 0
11, 72464, Note_on_c, 5, 50, 0
11, 72480, Note_on_c, 5, 50, 92
11, 72480, Note_on_c, 5, 62, 92
11, 72584, Note_on_c, 5, 50, 0
11, 72584, Note_on_c, 5, 62, 0
11, 72600, Note_on_c, 5, 50, 92
11, 72600, Note_on_c, 5, 62, 92
11, 72704, Note_on_c, 5, 50, 0
11, 72704, Note_on_c, 5, 62, 0
11, 72720, Note_on_c, 5, 50, 80
11, 72720, Note_on_c, 5, 62, 80
11, 72824, Note_on_c, 5, 50, 0
11, 72824, Note_on_c, 5, 62, 0
11, 72840, Note_on_c, 5, 62, 80
11, 72840, Note_on_c, 5, 50, 80
11, 72944, Note_on_c, 5, 62, 0
11, 72944, Note_on_c, 5, 50, 0
11, 72960, Note_on_c, 5, 50, 80
11, 72960, Note_on_c, 5, 62, 80
11, 73064, Note_on_c, 5, 50, 0
11, 73064, Note_on_c, 5, 62, 0
11, 73080, Note_on_c, 5, 65, 80
11, 73080, Note_on_c, 5, 53, 80
11, 73184, Note_on_c, 5, 65, 0
11, 73184, Note_on_c, 5, 53, 0
11, 73200, Note_on_c, 5, 65, 80
11, 73200, Note_on_c, 5, 53, 80
11, 73304, Note_on_c, 5, 65, 0
11, 73304, Note_on_c, 5, 53, 0
11, 73320, Note_on_c, 5, 65, 80
11, 73320, Note_on_c, 5, 53, 80
11, 73424, Note_on_c, 5, 65, 0
11, 73424, Note_on_c, 5, 53, 0
11, 73800, Note_on_c, 5, 65, 80
11, 73800, Note_on_c, 5, 53, 80
11, 73919, Note_on_c, 5, 65, 0
11, 73919, Note_on_c, 5, 53, 0
11, 74040, Note_on_c, 5, 65, 80
11, 74040, Note_on_c, 5, 53, 80
11, 74144, Note_on_c, 5, 65, 0
11, 74144, Note_on_c, 5, 53, 0
11, 74160, Note_on_c, 5, 50, 80
11, 74160, Note_on_c, 5, 62, 80
11, 74264, Note_on_c, 5, 50, 0
11, 74264, Note_on_c, 5, 62, 0
11, 74280, Note_on_c, 5, 62, 80
11, 74280, Note_on_c, 5, 50, 80
11, 74384, Note_on_c, 5, 62, 0
11, 74384, Note_on_c, 5, 50, 0
11, 74400, Note_on_c, 5, 50, 80
11, 74400, Note_on_c, 5, 62, 80
11, 74504, Note_on_c, 5, 50, 0
11, 74504, Note_on_c, 5, 62, 0
11, 74520, Note_on_c, 5, 53, 80
11, 74520, Note_on_c, 5, 65, 80
11, 74624, Note_on_c, 5, 53, 0
11, 74624, Note_on_c, 5, 65, 0
11, 74640, Note_on_c, 5, 65, 80
11, 74640, Note_on_c, 5, 53, 80
11, 74744, Note_on_c, 5, 65, 0
11, 74744, Note_on_c, 5, 53, 0
11, 74760, Note_on_c, 5, 53, 80
11, 74760, Note_on_c, 5, 65, 80
11, 74864, Note_on_c, 5, 53, 0
11, 74864, Note_on_c, 5, 65, 0
11, 75240, Note_on_c, 5, 62, 80
11, 75240, Note_on_c, 5, 50, 80
11, 75344, Note_on_c, 5, 62, 0
11, 75344, Note_on_c, 5, 50, 0
11, 75360, Note_on_c, 5, 62, 80
11, 75360, Note_on_c, 5, 50, 80
11, 75464, Note_on_c, 5, 62, 0
11, 75464, Note_on_c, 5, 50, 0
11, 75480, Note_on_c, 5, 62, 80
11, 75480, Note_on_c, 5, 50, 80
11, 75584, Note_on_c, 5, 62, 0
11, 75584, Note_on_c, 5, 50, 0
11, 75600, Note_on_c, 5, 62, 80
11, 75600, Note_on_c, 5, 50, 80
11, 75704, Note_on_c, 5, 62, 0
11, 75704, Note_on_c, 5, 50, 0
11, 75720, Note_on_c, 5, 50, 80
11, 75720, Note_on_c, 5, 62, 80
11, 75824, Note_on_c, 5, 50, 0
11, 75824, Note_on_c, 5, 62, 0
11, 75840, Note_on_c, 5, 50, 80
11, 75840, Note_on_c, 5, 62, 80
11, 75944, Note_on_c, 5, 50, 0
11, 75944, Note_on_c, 5, 62, 0
11, 75960, Note_on_c, 5, 60, 80
11, 76064, Note_on_c, 5, 60, 0
11, 76800, Note_on_c, 5, 50, 80
11, 76800, Note_on_c, 5, 62, 80
11, 76904, Note_on_c, 5, 50, 0
11, 76904, Note_on_c, 5, 62, 0
11, 76920, Note_on_c, 5, 62, 80
11, 76920, Note_on_c, 5, 50, 80
11, 77024, Note_on_c, 5, 62, 0
11, 77024, Note_on_c, 5, 50, 0
11, 77040, Note_on_c, 5, 50, 80
11, 77040, Note_on_c, 5, 62, 80
11, 77144, Note_on_c, 5, 50, 0
11, 77144, Note_on_c, 5, 62, 0
11, 77160, Note_on_c, 5, 62, 80
11, 77160, Note_on_c, 5, 50, 80
11, 77264, Note_on_c, 5, 62, 0
11, 77264, Note_on_c, 5, 50, 0
11, 77280, Note_on_c, 5, 50, 80
11, 77280, Note_on_c, 5, 62, 80
11, 77384, Note_on_c, 5, 50, 0
11, 77384, Note_on_c, 5, 62, 0
11, 77400, Note_on_c, 5, 60, 80
11, 77519, Note_on_c, 5, 60, 0
11, 77760, Note_on_c, 5, 60, 80
11, 77879, Note_on_c, 5, 60, 0
11, 78120, Note_on_c, 5, 60, 80
11, 78239, Note_on_c, 5, 60, 0
11, 84240, Note_on_c, 5, 60, 92
11, 84584, Note_on_c, 5, 60, 0
11, 84600, Note_on_c, 5, 53, 92
11, 84600, Note_on_c, 5, 65, 92
11, 84719, Note_on_c, 5, 53, 0
11, 84719, Note_on_c, 5, 65, 0
11, 84840, Note_on_c, 5, 60, 92
11, 84944, Note_on_c, 5, 60, 0
11, 84960, Note_on_c, 5, 65, 92
11, 84960, Note_on_c, 5, 53, 92
11, 85079, Note_on_c, 5, 65, 0
11, 85079, Note_on_c, 5, 53, 0
11, 85200, Note_on_c, 5, 60, 92
11, 85304, Note_on_c, 5, 60, 0
11, 85320, Note_on_c, 5, 65, 92
11, 85320, Note_on_c, 5, 53, 92
11, 85439, Note_on_c, 5, 65, 0
11, 85439, Note_on_c, 5, 53, 0
11, 85560, Note_on_c, 5, 65, 92
11, 85664, Note_on_c, 5, 65, 0
11, 85680, Note_on_c, 5, 60, 92
11, 86024, Note_on_c, 5, 60, 0
11, 86040, Note_on_c, 5, 65, 92
11, 86040, Note_on_c, 5, 53, 92
11, 86159, Note_on_c, 5, 65, 0
11, 86159, Note_on_c, 5, 53, 0
11, 86280, Note_on_c, 5, 60, 92
11, 86384, Note_on_c, 5, 60, 0
11, 86400, Note_on_c, 5, 65, 92
11, 86400, Note_on_c, 5, 53, 92
11, 86519, Note_on_c, 5, 65, 0
11, 86519, Note_on_c, 5, 53, 0
11, 86640, Note_on_c, 5, 60, 92
11, 86744, Note_on_c, 5, 60, 0
11, 86760, Note_on_c, 5, 53, 92
11, 86760, Note_on_c, 5, 65, 92
11, 86879, Note_on_c, 5, 53, 0
11, 86879, Note_on_c, 5, 65, 0
11, 87000, Note_on_c, 5, 65, 92
11, 87104, Note_on_c, 5, 65, 0
11, 87120, Note_on_c, 5, 60, 92
11, 87224, Note_on_c, 5, 60, 0
11, 87240, Note_on_c, 5, 60, 92
11, 87344, Note_on_c, 5, 60, 0
11, 87360, Note_on_c, 5, 60, 92
11, 87464, Note_on_c, 5, 60, 0
11, 87480, Note_on_c, 5, 65, 92
11, 87584, Note_on_c, 5, 65, 0
11, 87600, Note_on_c, 5, 65, 92
11, 87704, Note_on_c, 5, 65, 0
11, 87720, Note_on_c, 5, 60, 92
11, 87824, Note_on_c, 5, 60, 0
11, 87840, Note_on_c, 5, 65, 92
11, 87944, Note_on_c, 5, 65, 0
11, 87960, Note_on_c, 5, 65, 92
11, 88064, Note_on_c, 5, 65, 0
11, 88080, Note_on_c, 5, 60, 92
11, 88184, Note_on_c, 5, 60, 0
11, 88200, Note_on_c, 5, 65, 92
11, 88304, Note_on_c, 5, 65, 0
11, 88320, Note_on_c, 5, 65, 92
11, 88424, Note_on_c, 5, 65, 0
11, 88440, Note_on_c, 5, 65, 92
11, 88544, Note_on_c, 5, 65, 0
11, 88560, Note_on_c, 5, 60, 92
11, 88664, Note_on_c, 5, 60, 0
11, 88680, Note_on_c, 5, 60, 92
11, 88784, Note_on_c, 5, 60, 0
11, 88800, Note_on_c, 5, 60, 92
11, 88904, Note_on_c, 5, 60, 0
11, 88920, Note_on_c, 5, 65, 92
11, 89024, Note_on_c, 5, 65, 0
11, 89040, Note_on_c, 5, 65, 92
11, 89144, Note_on_c, 5, 65, 0
11, 89160, Note_on_c, 5, 60, 92
11, 89264, Note_on_c, 5, 60, 0
11, 89280, Note_on_c, 5, 65, 92
11, 89384, Note_on_c, 5, 65, 0
11, 89400, Note_on_c, 5, 65, 92
11, 89504, Note_on_c, 5, 65, 0
11, 89520, Note_on_c, 5, 60, 92
11, 89624, Note_on_c, 5, 60, 0
11, 89640, Note_on_c, 5, 65, 92
11, 89744, Note_on_c, 5, 65, 0
11, 89760, Note_on_c, 5, 65, 92
11, 89864, Note_on_c, 5, 65, 0
11, 89880, Note_on_c, 5, 60, 92
11, 89984, Note_on_c, 5, 60, 0
11, 90000, Note_on_c, 5, 60, 92
11, 90164, Note_on_c, 5, 60, 0
11, 90180, Note_on_c, 5, 60, 92
11, 90224, Note_on_c, 5, 60, 0
11, 90240, Note_on_c, 5, 60, 92
11, 90344, Note_on_c, 5, 60, 0
11, 90360, Note_on_c, 5, 60, 92
11, 90479, Note_on_c, 5, 60, 0
11, 90720, Note_on_c, 5, 65, 92
11, 90720, Note_on_c, 5, 53, 92
11, 90884, Note_on_c, 5, 65, 0
11, 90884, Note_on_c, 5, 53, 0
11, 90900, Note_on_c, 5, 41, 92
11, 90900, Note_on_c, 5, 53, 92
11, 90944, Note_on_c, 5, 41, 0
11, 90944, Note_on_c, 5, 53, 0
11, 90960, Note_on_c, 5, 41, 92
11, 90960, Note_on_c, 5, 53, 92
11, 91064, Note_on_c, 5, 41, 0
11, 91064, Note_on_c, 5, 53, 0
11, 91080, Note_on_c, 5, 53, 92
11, 91080, Note_on_c, 5, 65, 92
11, 91199, Note_on_c, 5, 53, 0
11, 91199, Note_on_c, 5, 65, 0
11, 92520, Control_c, 5, 11, 87
11, 92880, Note_on_c, 5, 60, 68
11, 93600, Control_c, 5, 11, 87
11, 93630, Control_c, 5, 11, 89
11, 93660, Control_c, 5, 11, 90
11, 93690, Control_c, 5, 11, 92
11, 93720, Control_c, 5, 11, 94
11, 93750, Control_c, 5, 11, 95
11, 93780, Control_c, 5, 11, 97
11, 93810, Control_c, 5, 11, 99
11, 93840, Control_c, 5, 11, 100
11, 93870, Control_c, 5, 11, 102
11, 93900, Control_c, 5, 11, 104
11, 93930, Control_c, 5, 11, 105
11, 93960, Control_c, 5, 11, 107
11, 93990, Control_c, 5, 11, 109
11, 94020, Control_c, 5, 11, 110
11, 94050, Control_c, 5, 11, 112
11, 94080, Control_c, 5, 11, 114
11, 94110, Control_c, 5, 11, 115
11, 94140, Control_c, 5, 11, 117
11, 94170, Control_c, 5, 11, 119
11, 94200, Control_c, 5, 11, 120
11, 94230, Control_c, 5, 11, 122
11, 94260, Control_c, 5, 11, 124
11, 94290, Control_c, 5, 11, 125
11, 94320, Control_c, 5, 11, 127
11, 94350, Control_c, 5, 11, 125
11, 94380, Control_c, 5, 11, 124
11, 94410, Control_c, 5, 11, 122
11, 94440, Control_c, 5, 11, 120
11, 94470, Control_c, 5, 11, 119
11, 94500, Control_c, 5, 11, 117
11, 94530, Control_c, 5, 11, 115
11, 94560, Control_c, 5, 11, 114
11, 94590, Control_c, 5, 11, 112
11, 94620, Control_c, 5, 11, 110
11, 94650, Control_c, 5, 11, 109
11, 94680, Control_c, 5, 11, 107
11, 94710, Control_c, 5, 11, 105
11, 94740, Control_c, 5, 11, 104
11, 94770, Control_c, 5, 11, 102
11, 94800, Control_c, 5, 11, 100
11, 94830, Control_c, 5, 11, 99
11, 94860, Control_c, 5, 11, 97
11, 94890, Control_c, 5, 11, 95
11, 94920, Control_c, 5, 11, 94
11, 94950, Control_c, 5, 11, 92
11, 94980, Control_c, 5, 11, 90
11, 95010, Control_c, 5, 11, 89
11, 95024, Note_on_c, 5, 60, 0
11, 96120, Control_c, 5, 11, 127
11, 96480, Note_on_c, 5, 60, 80
11, 96584, Note_on_c, 5, 60, 0
11, 96600, Note_on_c, 5, 60, 80
11, 96704, Note_on_c, 5, 60, 0
11, 96720, Note_on_c, 5, 60, 80
11, 96824, Note_on_c, 5, 60, 0
11, 96840, Note_on_c, 5, 62, 80
11, 96840, Note_on_c, 5, 50, 80
11, 96944, Note_on_c, 5, 62, 0
11, 96944, Note_on_c, 5, 50, 0
11, 96960, Note_on_c, 5, 62, 80
11, 96960, Note_on_c, 5, 50, 80
11, 97064, Note_on_c, 5, 62, 0
11, 97064, Note_on_c, 5, 50, 0
11, 97080, Note_on_c, 5, 62, 80
11, 97080, Note_on_c, 5, 50, 80
11, 97184, Note_on_c, 5, 62, 0
11, 97184, Note_on_c, 5, 50, 0
11, 97200, Note_on_c, 5, 60, 80
11, 97319, Note_on_c, 5, 60, 0
11, 97920, Note_on_c, 5, 60, 80
11, 98024, Note_on_c, 5, 60, 0
11, 98040, Note_on_c, 5, 60, 80
11, 98144, Note_on_c, 5, 60, 0
11, 98160, Note_on_c, 5, 60, 80
11, 98264, Note_on_c, 5, 60, 0
11, 98280, Note_on_c, 5, 62, 80
11, 98280, Note_on_c, 5, 50, 80
11, 98384, Note_on_c, 5, 62, 0
11, 98384, Note_on_c, 5, 50, 0
11, 98400, Note_on_c, 5, 62, 80
11, 98400, Note_on_c, 5, 50, 80
11, 98504, Note_on_c, 5, 62, 0
11, 98504, Note_on_c, 5, 50, 0
11, 98520, Note_on_c, 5, 50, 80
11, 98520, Note_on_c, 5, 62, 80
11, 98624, Note_on_c, 5, 50, 0
11, 98624, Note_on_c, 5, 62, 0
11, 98640, Note_on_c, 5, 60, 80
11, 98759, Note_on_c, 5, 60, 0
11, 99360, Note_on_c, 5, 60, 80
11, 99479, Note_on_c, 5, 60, 0
11, 100080, Note_on_c, 5, 60, 80
11, 100199, Note_on_c, 5, 60, 0
11, 102960, Note_on_c, 5, 53, 32
11, 103124, Note_on_c, 5, 53, 0
11, 103140, Note_on_c, 5, 53, 32
11, 103184, Note_on_c, 5, 53, 0
11, 103200, Note_on_c, 5, 53, 32
11, 103304, Note_on_c, 5, 53, 0
11, 103320, Note_on_c, 5, 50, 32
11, 103439, Note_on_c, 5, 50, 0
11, 105840, Note_on_c, 5, 46, 32
11, 105840, Note_on_c, 5, 58, 32
11, 106004, Note_on_c, 5, 46, 0
11, 106004, Note_on_c, 5, 58, 0
11, 106020, Note_on_c, 5, 46, 32
11, 106020, Note_on_c, 5, 58, 32
11, 106064, Note_on_c, 5, 46, 0
11, 106064, Note_on_c, 5, 58, 0
11, 106080, Note_on_c, 5, 46, 32
11, 106080, Note_on_c, 5, 58, 32
11, 106184, Note_on_c, 5, 46, 0
11, 106184, Note_on_c, 5, 58, 0
11, 106200, Note_on_c, 5, 46, 32
11, 106200, Note_on_c, 5, 58, 32
11, 106319, Note_on_c, 5, 46, 0
11, 106319, Note_on_c, 5, 58, 0
11, 108000, Note_on_c, 5, 63, 32
11, 108164, Note_on_c, 5, 63, 0
11, 108180, Note_on_c, 5, 63, 34
11, 108224, Note_on_c, 5, 63, 0
11, 108240, Note_on_c, 5, 63, 34
11, 108344, Note_on_c, 5, 63, 0
11, 108360, Note_on_c, 5, 63, 36
11, 108479, Note_on_c, 5, 63, 0
11, 108720, Note_on_c, 5, 60, 40
11, 108720, Note_on_c, 5, 63, 40
11, 108884, Note_on_c, 5, 60, 0
11, 108884, Note_on_c, 5, 63, 0
11, 108900, Note_on_c, 5, 60, 42
11, 108900, Note_on_c, 5, 63, 42
11, 108944, Note_on_c, 5, 60, 0
11, 108944, Note_on_c, 5, 63, 0
11, 108960, Note_on_c, 5, 63, 42
11, 108960, Note_on_c, 5, 60, 42
11, 109064, Note_on_c, 5, 63, 0
11, 109064, Note_on_c, 5, 60, 0
11, 109080, Note_on_c, 5, 60, 44
11, 109080, Note_on_c, 5, 65, 44
11, 109199, Note_on_c, 5, 60, 0
11, 109199, Note_on_c, 5, 65, 0
11, 109440, Note_on_c, 5, 53, 48
11, 109440, Note_on_c, 5, 65, 48
11, 109604, Note_on_c, 5, 53, 0
11, 109604, Note_on_c, 5, 65, 0
11, 109620, Note_on_c, 5, 53, 50
11, 109620, Note_on_c, 5, 65, 50
11, 109664, Note_on_c, 5, 53, 0
11, 109664, Note_on_c, 5, 65, 0
11, 109680, Note_on_c, 5, 53, 50
11, 109680, Note_on_c, 5, 65, 50
11, 109784, Note_on_c, 5, 53, 0
11, 109784, Note_on_c, 5, 65, 0
11, 109800, Note_on_c, 5, 53, 52
11, 109800, Note_on_c, 5, 65, 52
11, 109919, Note_on_c, 5, 53, 0
11, 109919, Note_on_c, 5, 65, 0
11, 110520, Note_on_c, 5, 63, 60
11, 110684, Note_on_c, 5, 63, 0
11, 110700, Note_on_c, 5, 63, 62
11, 110744, Note_on_c, 5, 63, 0
11, 110760, Note_on_c, 5, 63, 62
11, 110864, Note_on_c, 5, 63, 0
11, 110880, Note_on_c, 5, 63, 64
11, 111044, Note_on_c, 5, 63, 0
11, 111060, Note_on_c, 5, 63, 66
11, 111104, Note_on_c, 5, 63, 0
11, 111120, Note_on_c, 5, 63, 66
11, 111224, Note_on_c, 5, 63, 0
11, 111240, Note_on_c, 5, 63, 68
11, 111359, Note_on_c, 5, 63, 0
11, 113040, Note_on_c, 5, 58, 92
11, 113204, Note_on_c, 5, 58, 0
11, 113220, Note_on_c, 5, 58, 92
11, 113220, Note_on_c, 5, 46, 92
11, 113264, Note_on_c, 5, 58, 0
11, 113264, Note_on_c, 5, 46, 0
11, 113280, Note_on_c, 5, 46, 92
11, 113280, Note_on_c, 5, 58, 92
11, 113384, Note_on_c, 5, 46, 0
11, 113384, Note_on_c, 5, 58, 0
11, 121680, Note_on_c, 5, 65, 44
11, 121680, Note_on_c, 5, 53, 44
11, 121769, Note_on_c, 5, 65, 0
11, 121769, Note_on_c, 5, 53, 0
11, 121800, Note_on_c, 5, 65, 44
11, 121800, Note_on_c, 5, 53, 44
11, 121889, Note_on_c, 5, 65, 0
11, 121889, Note_on_c, 5, 53, 0
11, 121920, Note_on_c, 5, 65, 44
11, 121920, Note_on_c, 5, 53, 44
11, 122009, Note_on_c, 5, 65, 0
11, 122009, Note_on_c, 5, 53, 0
11, 122040, Note_on_c, 5, 53, 44
11, 122040, Note_on_c, 5, 65, 44
11, 122129, Note_on_c, 5, 53, 0
11, 122129, Note_on_c, 5, 65, 0
11, 122160, Note_on_c, 5, 53, 44
11, 122160, Note_on_c, 5, 65, 44
11, 122249, Note_on_c, 5, 53, 0
11, 122249, Note_on_c, 5, 65, 0
11, 122280, Note_on_c, 5, 65, 44
11, 122280, Note_on_c, 5, 53, 44
11, 122369, Note_on_c, 5, 65, 0
11, 122369, Note_on_c, 5, 53, 0
11, 122760, Note_on_c, 5, 53, 44
11, 122760, Note_on_c, 5, 65, 44
11, 122849, Note_on_c, 5, 53, 0
11, 122849, Note_on_c, 5, 65, 0
11, 122880, Note_on_c, 5, 60, 44
11, 122969, Note_on_c, 5, 60, 0
11, 123000, Note_on_c, 5, 60, 44
11, 123089, Note_on_c, 5, 60, 0
11, 123120, Note_on_c, 5, 60, 44
11, 123209, Note_on_c, 5, 60, 0
11, 123240, Note_on_c, 5, 60, 44
11, 123329, Note_on_c, 5, 60, 0
11, 123360, Note_on_c, 5, 60, 44
11, 123449, Note_on_c, 5, 60, 0
11, 123840, Note_on_c, 5, 53, 44
11, 123840, Note_on_c, 5, 65, 44
11, 123929, Note_on_c, 5, 53, 0
11, 123929, Note_on_c, 5, 65, 0
11, 123960, Note_on_c, 5, 65, 44
11, 123960, Note_on_c, 5, 53, 44
11, 124049, Note_on_c, 5, 65, 0
11, 124049, Note_on_c, 5, 53, 0
11, 124080, Note_on_c, 5, 53, 44
11, 124080, Note_on_c, 5, 65, 44
11, 124169, Note_on_c, 5, 53, 0
11, 124169, Note_on_c, 5, 65, 0
11, 124200, Note_on_c, 5, 65, 44
11, 124200, Note_on_c, 5, 53, 44
11, 124289, Note_on_c, 5, 65, 0
11, 124289, Note_on_c, 5, 53, 0
11, 124320, Note_on_c, 5, 53, 44
11, 124320, Note_on_c, 5, 65, 44
11, 124409, Note_on_c, 5, 53, 0
11, 124409, Note_on_c, 5, 65, 0
11, 124440, Note_on_c, 5, 53, 44
11, 124440, Note_on_c, 5, 65, 44
11, 124529, Note_on_c, 5, 53, 0
11, 124529, Note_on_c, 5, 65, 0
11, 124920, Note_on_c, 5, 65, 44
11, 124920, Note_on_c, 5, 53, 44
11, 125009, Note_on_c, 5, 65, 0
11, 125009, Note_on_c, 5, 53, 0
11, 125040, Note_on_c, 5, 60, 44
11, 125129, Note_on_c, 5, 60, 0
11, 125160, Note_on_c, 5, 60, 44
11, 125249, Note_on_c, 5, 60, 0
11, 125280, Note_on_c, 5, 60, 44
11, 125369, Note_on_c, 5, 60, 0
11, 125400, Note_on_c, 5, 60, 44
11, 125489, Note_on_c, 5, 60, 0
11, 125520, Note_on_c, 5, 60, 44
11, 125609, Note_on_c, 5, 60, 0
11, 125640, Note_on_c, 5, 65, 44
11, 125640, Note_on_c, 5, 53, 44
11, 125729, Note_on_c, 5, 65, 0
11, 125729, Note_on_c, 5, 53, 0
11, 125760, Note_on_c, 5, 65, 44
11, 125760, Note_on_c, 5, 53, 44
11, 125849, Note_on_c, 5, 65, 0
11, 125849, Note_on_c, 5, 53, 0
11, 125880, Note_on_c, 5, 65, 44
11, 125880, Note_on_c, 5, 53, 44
11, 125969, Note_on_c, 5, 65, 0
11, 125969, Note_on_c, 5, 53, 0
11, 126000, Note_on_c, 5, 65, 44
11, 126000, Note_on_c, 5, 53, 44
11, 126089, Note_on_c, 5, 65, 0
11, 126089, Note_on_c, 5, 53, 0
11, 126120, Note_on_c, 5, 65, 44
11, 126120, Note_on_c, 5, 53, 44
11, 126209, Note_on_c, 5, 65, 0
11, 126209, Note_on_c, 5, 53, 0
11, 126240, Note_on_c, 5, 65, 43
11, 126240, Note_on_c, 5, 53, 43
11, 126329, Note_on_c, 5, 65, 0
11, 126329, Note_on_c, 5, 53, 0
11, 126360, Note_on_c, 5, 53, 43
11, 126360, Note_on_c, 5, 65, 43
11, 126449, Note_on_c, 5, 53, 0
11, 126449, Note_on_c, 5, 65, 0
11, 126480, Note_on_c, 5, 53, 42
11, 126480, Note_on_c, 5, 65, 42
11, 126569, Note_on_c, 5, 53, 0
11, 126569, Note_on_c, 5, 65, 0
11, 126600, Note_on_c, 5, 65, 42
11, 126600, Note_on_c, 5, 53, 42
11, 126689, Note_on_c, 5, 65, 0
11, 126689, Note_on_c, 5, 53, 0
11, 127800, Note_on_c, 5, 62, 36
11, 127800, Note_on_c, 5, 50, 36
11, 127904, Note_on_c, 5, 62, 0
11, 127904, Note_on_c, 5, 50, 0
11, 127920, Note_on_c, 5, 62, 35
11, 127920, Note_on_c, 5, 50, 35
11, 128024, Note_on_c, 5, 62, 0
11, 128024, Note_on_c, 5, 50, 0
11, 128040, Note_on_c, 5, 50, 35
11, 128040, Note_on_c, 5, 62, 35
11, 128144, Note_on_c, 5, 50, 0
11, 128144, Note_on_c, 5, 62, 0
11, 128160, Note_on_c, 5, 62, 34
11, 128160, Note_on_c, 5, 50, 34
11, 128264, Note_on_c, 5, 62, 0
11, 128264, Note_on_c, 5, 50, 0
11, 128280, Note_on_c, 5, 50, 34
11, 128280, Note_on_c, 5, 62, 34
11, 128384, Note_on_c, 5, 50, 0
11, 128384, Note_on_c, 5, 62, 0
11, 128400, Note_on_c, 5, 50, 33
11, 128400, Note_on_c, 5, 62, 33
11, 128504, Note_on_c, 5, 50, 0
11, 128504, Note_on_c, 5, 62, 0
11, 128520, Note_on_c, 5, 62, 32
11, 128520, Note_on_c, 5, 50, 32
11, 128624, Note_on_c, 5, 62, 0
11, 128624, Note_on_c, 5, 50, 0
11, 128640, Note_on_c, 5, 62, 32
11, 128640, Note_on_c, 5, 50, 32
11, 128744, Note_on_c, 5, 62, 0
11, 128744, Note_on_c, 5, 50, 0
11, 128760, Note_on_c, 5, 62, 32
11, 128760, Note_on_c, 5, 50, 32
11, 128879, Note_on_c, 5, 62, 0
11, 128879, Note_on_c, 5, 50, 0
11, 138600, Note_on_c, 5, 58, 32
11, 138764, Note_on_c, 5, 58, 0
11, 138780, Note_on_c, 5, 46, 32
11, 138824, Note_on_c, 5, 46, 0
11, 138840, Note_on_c, 5, 46, 32
11, 138959, Note_on_c, 5, 46, 0
11, 139320, Note_on_c, 5, 58, 32
11, 139484, Note_on_c, 5, 58, 0
11, 139500, Note_on_c, 5, 46, 32
11, 139544, Note_on_c, 5, 46, 0
11, 139560, Note_on_c, 5, 46, 32
11, 139679, Note_on_c, 5, 46, 0
11, 140040, Note_on_c, 5, 58, 32
11, 140204, Note_on_c, 5, 58, 0
11, 140220, Note_on_c, 5, 46, 32
11, 140264, Note_on_c, 5, 46, 0
11, 140280, Note_on_c, 5, 46, 32
11, 140399, Note_on_c, 5, 46, 0
11, 140760, Note_on_c, 5, 58, 32
11, 140924, Note_on_c, 5, 58, 0
11, 140940, Note_on_c, 5, 46, 32
11, 140984, Note_on_c, 5, 46, 0
11, 141000, Note_on_c, 5, 46, 32
11, 141119, Note_on_c, 5, 46, 0
11, 141480, Note_on_c, 5, 65, 32
11, 141644, Note_on_c, 5, 65, 0
11, 141660, Note_on_c, 5, 53, 32
11, 141704, Note_on_c, 5, 53, 0
11, 141720, Note_on_c, 5, 53, 32
11, 141824, Note_on_c, 5, 53, 0
11, 141840, Note_on_c, 5, 58, 32
11, 142004, Note_on_c, 5, 58, 0
11, 142020, Note_on_c, 5, 46, 32
11, 142064, Note_on_c, 5, 46, 0
11, 142080, Note_on_c, 5, 46, 32
11, 142184, Note_on_c, 5, 46, 0
11, 142200, Note_on_c, 5, 58, 32
11, 142364, Note_on_c, 5, 58, 0
11, 142380, Note_on_c, 5, 46, 32
11, 142424, Note_on_c, 5, 46, 0
11, 142440, Note_on_c, 5, 46, 32
11, 142544, Note_on_c, 5, 46, 0
11, 142560, Note_on_c, 5, 58, 32
11, 142724, Note_on_c, 5, 58, 0
11, 142740, Note_on_c, 5, 46, 32
11, 142784, Note_on_c, 5, 46, 0
11, 142800, Note_on_c, 5, 46, 32
11, 142904, Note_on_c, 5, 46, 0
11, 142920, Note_on_c, 5, 58, 32
11, 143084, Note_on_c, 5, 58, 0
11, 143100, Note_on_c, 5, 46, 32
11, 143144, Note_on_c, 5, 46, 0
11, 143160, Note_on_c, 5, 46, 32
11, 143279, Note_on_c, 5, 46, 0
11, 143640, Note_on_c, 5, 58, 38
11, 143804, Note_on_c, 5, 58, 0
11, 143820, Note_on_c, 5, 46, 41
11, 143864, Note_on_c, 5, 46, 0
11, 143880, Note_on_c, 5, 46, 42
11, 143999, Note_on_c, 5, 46, 0
11, 144360, Note_on_c, 5, 65, 50
11, 144524, Note_on_c, 5, 65, 0
11, 144540, Note_on_c, 5, 53, 53
11, 144584, Note_on_c, 5, 53, 0
11, 144600, Note_on_c, 5, 53, 54
11, 144719, Note_on_c, 5, 53, 0
11, 145800, Note_on_c, 5, 65, 74
11, 145964, Note_on_c, 5, 65, 0
11, 145980, Note_on_c, 5, 53, 77
11, 146024, Note_on_c, 5, 53, 0
11, 146040, Note_on_c, 5, 53, 78
11, 146144, Note_on_c, 5, 53, 0
11, 146160, Note_on_c, 5, 65, 80
11, 146324, Note_on_c, 5, 65, 0
11, 146340, Note_on_c, 5, 53, 80
11, 146384, Note_on_c, 5, 53, 0
11, 146400, Note_on_c, 5, 53, 80
11, 146504, Note_on_c, 5, 53, 0
11, 146520, Note_on_c, 5, 65, 80
11, 146684, Note_on_c, 5, 65, 0
11, 146700, Note_on_c, 5, 53, 80
11, 146744, Note_on_c, 5, 53, 0
11, 146760, Note_on_c, 5, 53, 80
11, 146864, Note_on_c, 5, 53, 0
11, 146880, Note_on_c, 5, 65, 86
11, 147044, Note_on_c, 5, 65, 0
11, 147060, Note_on_c, 5, 53, 86
11, 147104, Note_on_c, 5, 53, 0
11, 147120, Note_on_c, 5, 53, 86
11, 147224, Note_on_c, 5, 53, 0
11, 147240, Note_on_c, 5, 65, 86
11, 147404, Note_on_c, 5, 65, 0
11, 147420, Note_on_c, 5, 53, 86
11, 147464, Note_on_c, 5, 53, 0
11, 147480, Note_on_c, 5, 53, 86
11, 147584, Note_on_c, 5, 53, 0
11, 147600, Note_on_c, 5, 65, 92
11, 147764, Note_on_c, 5, 65, 0
11, 147780, Note_on_c, 5, 53, 92
11, 147824, Note_on_c, 5, 53, 0
11, 147840, Note_on_c, 5, 53, 92
11, 147944, Note_on_c, 5, 53, 0
11, 147960, Note_on_c, 5, 65, 92
11, 148124, Note_on_c, 5, 65, 0
11, 148140, Note_on_c, 5, 53, 92
11, 148184, Note_on_c, 5, 53, 0
11, 148200, Note_on_c, 5, 53, 92
11, 148304, Note_on_c, 5, 53, 0
11, 148320, Note_on_c, 5, 65, 92
11, 148484, Note_on_c, 5, 65, 0
11, 148500, Note_on_c, 5, 53, 92
11, 148544, Note_on_c, 5, 53, 0
11, 148560, Note_on_c, 5, 53, 92
11, 148664, Note_on_c, 5, 53, 0
11, 148680, Note_on_c, 5, 65, 92
11, 148844, Note_on_c, 5, 65, 0
11, 148860, Note_on_c, 5, 53, 92
11, 148904, Note_on_c, 5, 53, 0
11, 148920, Note_on_c, 5, 53, 92
11, 149024, Note_on_c, 5, 53, 0
11, 149040, Note_on_c, 5, 65, 92
11, 149204, Note_on_c, 5, 65, 0
11, 149220, Note_on_c, 5, 53, 92
11, 149264, Note_on_c, 5, 53, 0
11, 149280, Note_on_c, 5, 53, 92
11, 149384, Note_on_c, 5, 53, 0
11, 149400, Note_on_c, 5, 65, 92
11, 149564, Note_on_c, 5, 65, 0
11, 149580, Note_on_c, 5, 53, 92
11, 149624, Note_on_c, 5, 53, 0
11, 149640, Note_on_c, 5, 53, 92
11, 149744, Note_on_c, 5, 53, 0
11, 149760, Note_on_c, 5, 65, 92
11, 149924, Note_on_c, 5, 65, 0
11, 149940, Note_on_c, 5, 53, 92
11, 149984, Note_on_c, 5, 53, 0
11, 150000, Note_on_c, 5, 53, 92
11, 150104, Note_on_c, 5, 53, 0
11, 150120, Note_on_c, 5, 65, 92
11, 150284, Note_on_c, 5, 65, 0
11, 150300, Note_on_c, 5, 53, 92
11, 150344, Note_on_c, 5, 53, 0
11, 150360, Note_on_c, 5, 53, 92
11, 150464, Note_on_c, 5, 53, 0
11, 150480, Note_on_c, 5, 65, 92
11, 150644, Note_on_c, 5, 65, 0
11, 150660, Note_on_c, 5, 53, 92
11, 150704, Note_on_c, 5, 53, 0
11, 150720, Note_on_c, 5, 53, 92
11, 150824, Note_on_c, 5, 53, 0
11, 150840, Note_on_c, 5, 65, 92
11, 151004, Note_on_c, 5, 65, 0
11, 151020, Note_on_c, 5, 53, 92
11, 151064, Note_on_c, 5, 53, 0
11, 151080, Note_on_c, 5, 53, 92
11, 151184, Note_on_c, 5, 53, 0
11, 151200, Note_on_c, 5, 65, 92
11, 151364, Note_on_c, 5, 65, 0
11, 151380, Note_on_c, 5, 53, 92
11, 151424, Note_on_c, 5, 53, 0
11, 151440, Note_on_c, 5, 53, 92
11, 151544, Note_on_c, 5, 53, 0
11, 151560, Note_on_c, 5, 65, 92
11, 151724, Note_on_c, 5, 65, 0
11, 151740, Note_on_c, 5, 53, 92
11, 151784, Note_on_c, 5, 53, 0
11, 151800, Note_on_c, 5, 53, 92
11, 151904, Note_on_c, 5, 53, 0
11, 151920, Note_on_c, 5, 65, 92
11, 152084, Note_on_c, 5, 65, 0
11, 152100, Note_on_c, 5, 53, 92
11, 152144, Note_on_c, 5, 53, 0
11, 152160, Note_on_c, 5, 53, 92
11, 152264, Note_on_c, 5, 53, 0
11, 152280, Note_on_c, 5, 65, 92
11, 152444, Note_on_c, 5, 65, 0
11, 152460, Note_on_c, 5, 53, 92
11, 152504, Note_on_c, 5, 53, 0
11, 152520, Note_on_c, 5, 53, 92
11, 152624, Note_on_c, 5, 53, 0
11, 152640, Note_on_c, 5, 65, 92
11, 152804, Note_on_c, 5, 65, 0
11, 152820, Note_on_c, 5, 53, 92
11, 152864, Note_on_c, 5, 53, 0
11, 152880, Note_on_c, 5, 53, 92
11, 152984, Note_on_c, 5, 53, 0
11, 153000, Note_on_c, 5, 65, 92
11, 153164, Note_on_c, 5, 65, 0
11, 153180, Note_on_c, 5, 53, 92
11, 153224, Note_on_c, 5, 53, 0
11, 153240, Note_on_c, 5, 53, 92
11, 153344, Note_on_c, 5, 53, 0
11, 155160, Note_on_c, 5, 58, 80
11, 155324, Note_on_c, 5, 58, 0
11, 155340, Note_on_c, 5, 46, 80
11, 155384, Note_on_c, 5, 46, 0
11, 155400, Note_on_c, 5, 46, 80
11, 155504, Note_on_c, 5, 46, 0
11, 155520, Note_on_c, 5, 65, 80
11, 155684, Note_on_c, 5, 65, 0
11, 155700, Note_on_c, 5, 53, 80
11, 155744, Note_on_c, 5, 53, 0
11, 155760, Note_on_c, 5, 53, 80
11, 155864, Note_on_c, 5, 53, 0
11, 155880, Note_on_c, 5, 65, 80
11, 156044, Note_on_c, 5, 65, 0
11, 156060, Note_on_c, 5, 53, 80
11, 156104, Note_on_c, 5, 53, 0
11, 156120, Note_on_c, 5, 53, 80
11, 156224, Note_on_c, 5, 53, 0
11, 156240, Note_on_c, 5, 65, 80
11, 156404, Note_on_c, 5, 65, 0
11, 156420, Note_on_c, 5, 53, 80
11, 156464, Note_on_c, 5, 53, 0
11, 156480, Note_on_c, 5, 53, 80
11, 156584, Note_on_c, 5, 53, 0
11, 156600, Note_on_c, 5, 65, 80
11, 156764, Note_on_c, 5, 65, 0
11, 156780, Note_on_c, 5, 53, 80
11, 156824, Note_on_c, 5, 53, 0
11, 156840, Note_on_c, 5, 53, 80
11, 156944, Note_on_c, 5, 53, 0
11, 156960, Note_on_c, 5, 65, 80
11, 157124, Note_on_c, 5, 65, 0
11, 157140, Note_on_c, 5, 53, 80
11, 157184, Note_on_c, 5, 53, 0
11, 157200, Note_on_c, 5, 53, 80
11, 157304, Note_on_c, 5, 53, 0
11, 157320, Note_on_c, 5, 65, 80
11, 157484, Note_on_c, 5, 65, 0
11, 157500, Note_on_c, 5, 53, 80
11, 157544, Note_on_c, 5, 53, 0
11, 157560, Note_on_c, 5, 53, 80
11, 157664, Note_on_c, 5, 53, 0
11, 157680, Note_on_c, 5, 46, 80
11, 157680, Note_on_c, 5, 58, 80
11, 157799, Note_on_c, 5, 46, 0
11, 157799, Note_on_c, 5, 58, 0
11, 158400, Control_c, 5, 11, 87
11, 158760, Control_c, 5, 11, 87
11, 158760, Note_on_c, 5, 63, 68
11, 158790, Control_c, 5, 11, 89
11, 158820, Control_c, 5, 11, 90
11, 158850, Control_c, 5, 11, 92
11, 158880, Control_c, 5, 11, 94
11, 158910, Control_c, 5, 11, 95
11, 158940, Control_c, 5, 11, 97
11, 158970, Control_c, 5, 11, 99
11, 159000, Control_c, 5, 11, 100
11, 159030, Control_c, 5, 11, 102
11, 159060, Control_c, 5, 11, 104
11, 159090, Control_c, 5, 11, 105
11, 159120, Control_c, 5, 11, 107
11, 159120, Note_on_c, 5, 60, 68
11, 159150, Control_c, 5, 11, 109
11, 159180, Control_c, 5, 11, 110
11, 159210, Control_c, 5, 11, 112
11, 159240, Control_c, 5, 11, 114
11, 159270, Control_c, 5, 11, 115
11, 159300, Control_c, 5, 11, 117
11, 159330, Control_c, 5, 11, 119
11, 159360, Control_c, 5, 11, 120
11, 159390, Control_c, 5, 11, 122
11, 159420, Control_c, 5, 11, 124
11, 159450, Control_c, 5, 11, 125
11, 159464, Note_on_c, 5, 63, 0
11, 159464, Note_on_c, 5, 60, 0
11, 159480, Note_on_c, 5, 58, 68
11, 159480, Note_on_c, 5, 62, 68
11, 159480, Control_c, 5, 11, 127
11, 159510, Control_c, 5, 11, 126
11, 159540, Control_c, 5, 11, 125
11, 159570, Control_c, 5, 11, 124
11, 159600, Control_c, 5, 11, 123
11, 159630, Control_c, 5, 11, 121
11, 159660, Control_c, 5, 11, 120
11, 159690, Control_c, 5, 11, 119
11, 159720, Control_c, 5, 11, 118
11, 159750, Control_c, 5, 11, 117
11, 159780, Control_c, 5, 11, 116
11, 159810, Control_c, 5, 11, 115
11, 159824, Note_on_c, 5, 62, 0
11, 159840, Note_on_c, 5, 65, 68
11, 159840, Control_c, 5, 11, 114
11, 159870, Control_c, 5, 11, 113
11, 159900, Control_c, 5, 11, 111
11, 159930, Control_c, 5, 11, 110
11, 159960, Control_c, 5, 11, 109
11, 159990, Control_c, 5, 11, 108
11, 160020, Control_c, 5, 11, 107
11, 160050, Control_c, 5, 11, 106
11, 160080, Control_c, 5, 11, 105
11, 160110, Control_c, 5, 11, 104
11, 160140, Control_c, 5, 11, 103
11, 160170, Control_c, 5, 11, 101
11, 160184, Note_on_c, 5, 58, 0
11, 160200, Control_c, 5, 11, 100
11, 160200, Note_on_c, 5, 53, 68
11, 160230, Control_c, 5, 11, 99
11, 160260, Control_c, 5, 11, 98
11, 160290, Control_c, 5, 11, 97
11, 160320, Control_c, 5, 11, 96
11, 160350, Control_c, 5, 11, 95
11, 160380, Control_c, 5, 11, 94
11, 160410, Control_c, 5, 11, 93
11, 160440, Control_c, 5, 11, 91
11, 160470, Control_c, 5, 11, 90
11, 160500, Control_c, 5, 11, 89
11, 160530, Control_c, 5, 11, 88
11, 160559, Note_on_c, 5, 65, 0
11, 160559, Note_on_c, 5, 53, 0
11, 169560, Control_c, 5, 11, 127
11, 169920, Note_on_c, 5, 62, 92
11, 169920, Note_on_c, 5, 50, 92
11, 170264, Note_on_c, 5, 62, 0
11, 170264, Note_on_c, 5, 50, 0
11, 170280, Note_on_c, 5, 62, 92
11, 170280, Note_on_c, 5, 50, 92
11, 170399, Note_on_c, 5, 62, 0
11, 170399, Note_on_c, 5, 50, 0
11, 170520, Note_on_c, 5, 50, 92
11, 170520, Note_on_c, 5, 62, 92
11, 170624, Note_on_c, 5, 50, 0
11, 170624, Note_on_c, 5, 62, 0
11, 170640, Note_on_c, 5, 50, 92
11, 170640, Note_on_c, 5, 62, 92
11, 170759, Note_on_c, 5, 50, 0
11, 170759, Note_on_c, 5, 62, 0
11, 170880, Note_on_c, 5, 50, 92
11, 170880, Note_on_c, 5, 62, 92
11, 170984, Note_on_c, 5, 50, 0
11, 170984, Note_on_c, 5, 62, 0
11, 171000, Note_on_c, 5, 62, 92
11, 171000, Note_on_c, 5, 50, 92
11, 171119, Note_on_c, 5, 62, 0
11, 171119, Note_on_c, 5, 50, 0
11, 171240, Note_on_c, 5, 50, 92
11, 171240, Note_on_c, 5, 62, 92
11, 171344, Note_on_c, 5, 50, 0
11, 171344, Note_on_c, 5, 62, 0
11, 171360, Note_on_c, 5, 50, 92
11, 171360, Note_on_c, 5, 62, 92
11, 171704, Note_on_c, 5, 50, 0
11, 171704, Note_on_c, 5, 62, 0
11, 171720, Note_on_c, 5, 50, 92
11, 171720, Note_on_c, 5, 62, 92
11, 171839, Note_on_c, 5, 50, 0
11, 171839, Note_on_c, 5, 62, 0
11, 171960, Note_on_c, 5, 50, 92
11, 171960, Note_on_c, 5, 62, 92
11, 172064, Note_on_c, 5, 50, 0
11, 172064, Note_on_c, 5, 62, 0
11, 172080, Note_on_c, 5, 62, 92
11, 172080, Note_on_c, 5, 50, 92
11, 172199, Note_on_c, 5, 62, 0
11, 172199, Note_on_c, 5, 50, 0
11, 172320, Note_on_c, 5, 62, 92
11, 172320, Note_on_c, 5, 50, 92
11, 172424, Note_on_c, 5, 62, 0
11, 172424, Note_on_c, 5, 50, 0
11, 172440, Note_on_c, 5, 50, 92
11, 172440, Note_on_c, 5, 62, 92
11, 172559, Note_on_c, 5, 50, 0
11, 172559, Note_on_c, 5, 62, 0
11, 172680, Note_on_c, 5, 50, 92
11, 172680, Note_on_c, 5, 62, 92
11, 172784, Note_on_c, 5, 50, 0
11, 172784, Note_on_c, 5, 62, 0
11, 172800, Note_on_c, 5, 62, 92
11, 172800, Note_on_c, 5, 50, 92
11, 172904, Note_on_c, 5, 62, 0
11, 172904, Note_on_c, 5, 50, 0
11, 172920, Note_on_c, 5, 50, 92
11, 172920, Note_on_c, 5, 62, 92
11, 173024, Note_on_c, 5, 50, 0
11, 173024, Note_on_c, 5, 62, 0
11, 173040, Note_on_c, 5, 62, 92
11, 173040, Note_on_c, 5, 50, 92
11, 173144, Note_on_c, 5, 62, 0
11, 173144, Note_on_c, 5, 50, 0
11, 173160, Note_on_c, 5, 50, 92
11, 173160, Note_on_c, 5, 62, 92
11, 173264, Note_on_c, 5, 50, 0
11, 173264, Note_on_c, 5, 62, 0
11, 173280, Note_on_c, 5, 62, 92
11, 173280, Note_on_c, 5, 50, 92
11, 173384, Note_on_c, 5, 62, 0
11, 173384, Note_on_c, 5, 50, 0
11, 173400, Note_on_c, 5, 62, 92
11, 173400, Note_on_c, 5, 50, 92
11, 173504, Note_on_c, 5, 62, 0
11, 173504, Note_on_c, 5, 50, 0
11, 173520, Note_on_c, 5, 62, 92
11, 173520, Note_on_c, 5, 50, 92
11, 173624, Note_on_c, 5, 62, 0
11, 173624, Note_on_c, 5, 50, 0
11, 173640, Note_on_c, 5, 50, 92
11, 173640, Note_on_c, 5, 62, 92
11, 173744, Note_on_c, 5, 50, 0
11, 173744, Note_on_c, 5, 62, 0
11, 173760, Note_on_c, 5, 62, 92
11, 173760, Note_on_c, 5, 50, 92
11, 173864, Note_on_c, 5, 62, 0
11, 173864, Note_on_c, 5, 50, 0
11, 173880, Note_on_c, 5, 50, 92
11, 173880, Note_on_c, 5, 62, 92
11, 173984, Note_on_c, 5, 50, 0
11, 173984, Note_on_c, 5, 62, 0
11, 174000, Note_on_c, 5, 62, 92
11, 174000, Note_on_c, 5, 50, 92
11, 174104, Note_on_c, 5, 62, 0
11, 174104, Note_on_c, 5, 50, 0
11, 174120, Note_on_c, 5, 62, 92
11, 174120, Note_on_c, 5, 50, 92
11, 174224, Note_on_c, 5, 62, 0
11, 174224, Note_on_c, 5, 50, 0
11, 174240, Note_on_c, 5, 62, 92
11, 174240, Note_on_c, 5, 50, 92
11, 174344, Note_on_c, 5, 62, 0
11, 174344, Note_on_c, 5, 50, 0
11, 174360, Note_on_c, 5, 50, 92
11, 174360, Note_on_c, 5, 62, 92
11, 174464, Note_on_c, 5, 50, 0
11, 174464, Note_on_c, 5, 62, 0
11, 174480, Note_on_c, 5, 50, 92
11, 174480, Note_on_c, 5, 62, 92
11, 174584, Note_on_c, 5, 50, 0
11, 174584, Note_on_c, 5, 62, 0
11, 174600, Note_on_c, 5, 50, 92
11, 174600, Note_on_c, 5, 62, 92
11, 174704, Note_on_c, 5, 50, 0
11, 174704, Note_on_c, 5, 62, 0
11, 174720, Note_on_c, 5, 62, 92
11, 174720, Note_on_c, 5, 50, 92
11, 174824, Note_on_c, 5, 62, 0
11, 174824, Note_on_c, 5, 50, 0
11, 174840, Note_on_c, 5, 50, 92
11, 174840, Note_on_c, 5, 62, 92
11, 174944, Note_on_c, 5, 50, 0
11, 174944, Note_on_c, 5, 62, 0
11, 174960, Note_on_c, 5, 50, 92
11, 174960, Note_on_c, 5, 62, 92
11, 175064, Note_on_c, 5, 50, 0
11, 175064, Note_on_c, 5, 62, 0
11, 175080, Note_on_c, 5, 62, 92
11, 175080, Note_on_c, 5, 50, 92
11, 175184, Note_on_c, 5, 62, 0
11, 175184, Note_on_c, 5, 50, 0
11, 175200, Note_on_c, 5, 62, 92
11, 175200, Note_on_c, 5, 50, 92
11, 175304, Note_on_c, 5, 62, 0
11, 175304, Note_on_c, 5, 50, 0
11, 175320, Note_on_c, 5, 50, 92
11, 175320, Note_on_c, 5, 62, 92
11, 175424, Note_on_c, 5, 50, 0
11, 175424, Note_on_c, 5, 62, 0
11, 175440, Note_on_c, 5, 50, 92
11, 175440, Note_on_c, 5, 62, 92
11, 175544, Note_on_c, 5, 50, 0
11, 175544, Note_on_c, 5, 62, 0
11, 175560, Note_on_c, 5, 50, 92
11, 175560, Note_on_c, 5, 62, 92
11, 175664, Note_on_c, 5, 50, 0
11, 175664, Note_on_c, 5, 62, 0
11, 175680, Note_on_c, 5, 50, 92
11, 175680, Note_on_c, 5, 62, 92
11, 175844, Note_on_c, 5, 50, 0
11, 175844, Note_on_c, 5, 62, 0
11, 175860, Note_on_c, 5, 50, 92
11, 175860, Note_on_c, 5, 62, 92
11, 175904, Note_on_c, 5, 50, 0
11, 175904, Note_on_c, 5, 62, 0
11, 175920, Note_on_c, 5, 62, 92
11, 175920, Note_on_c, 5, 50, 92
11, 176024, Note_on_c, 5, 62, 0
11, 176024, Note_on_c, 5, 50, 0
11, 176040, Note_on_c, 5, 50, 92
11, 176040, Note_on_c, 5, 62, 92
11, 176144, Note_on_c, 5, 50, 0
11, 176144, Note_on_c, 5, 62, 0
11, 176160, Note_on_c, 5, 50, 92
11, 176160, Note_on_c, 5, 62, 92
11, 176264, Note_on_c, 5, 50, 0
11, 176264, Note_on_c, 5, 62, 0
11, 176280, Note_on_c, 5, 62, 92
11, 176280, Note_on_c, 5, 50, 92
11, 176384, Note_on_c, 5, 62, 0
11, 176384, Note_on_c, 5, 50, 0
11, 176400, Note_on_c, 5, 62, 92
11, 176400, Note_on_c, 5, 50, 92
11, 176519, Note_on_c, 5, 62, 0
11, 176519, Note_on_c, 5, 50, 0
11, 177120, Note_on_c, 5, 60, 92
11, 177284, Note_on_c, 5, 60, 0
11, 177300, Note_on_c, 5, 60, 92
11, 177344, Note_on_c, 5, 60, 0
11, 177360, Note_on_c, 5, 60, 92
11, 177464, Note_on_c, 5, 60, 0
11, 177480, Note_on_c, 5, 60, 92
11, 177584, Note_on_c, 5, 60, 0
11, 177600, Note_on_c, 5, 60, 92
11, 177704, Note_on_c, 5, 60, 0
11, 177720, Note_on_c, 5, 60, 92
11, 177824, Note_on_c, 5, 60, 0
11, 177840, Note_on_c, 5, 65, 92
11, 177840, Note_on_c, 5, 53, 92
11, 177959, Note_on_c, 5, 65, 0
11, 177959, Note_on_c, 5, 53, 0
11, 178560, Control_c, 5, 11, 87
11, 178920, Note_on_c, 5, 46, 68
11, 178920, Control_c, 5, 11, 87
11, 178920, Note_on_c, 5, 58, 68
11, 178950, Control_c, 5, 11, 88
11, 178980, Control_c, 5, 11, 89
11, 179010, Control_c, 5, 11, 90
11, 179040, Control_c, 5, 11, 91
11, 179070, Control_c, 5, 11, 93
11, 179100, Control_c, 5, 11, 94
11, 179130, Control_c, 5, 11, 95
11, 179160, Control_c, 5, 11, 96
11, 179190, Control_c, 5, 11, 97
11, 179220, Control_c, 5, 11, 98
11, 179250, Control_c, 5, 11, 99
11, 179280, Control_c, 5, 11, 100
11, 179310, Control_c, 5, 11, 101
11, 179340, Control_c, 5, 11, 103
11, 179370, Control_c, 5, 11, 104
11, 179400, Control_c, 5, 11, 105
11, 179430, Control_c, 5, 11, 106
11, 179460, Control_c, 5, 11, 107
11, 179490, Control_c, 5, 11, 108
11, 179520, Control_c, 5, 11, 109
11, 179550, Control_c, 5, 11, 110
11, 179580, Control_c, 5, 11, 111
11, 179610, Control_c, 5, 11, 113
11, 179640, Control_c, 5, 11, 114
11, 179670, Control_c, 5, 11, 115
11, 179700, Control_c, 5, 11, 116
11, 179730, Control_c, 5, 11, 117
11, 179760, Control_c, 5, 11, 118
11, 179790, Control_c, 5, 11, 119
11, 179820, Control_c, 5, 11, 120
11, 179850, Control_c, 5, 11, 121
11, 179880, Control_c, 5, 11, 123
11, 179910, Control_c, 5, 11, 124
11, 179940, Control_c, 5, 11, 125
11, 179970, Control_c, 5, 11, 127
11, 180119, Note_on_c, 5, 46, 0
11, 180119, Note_on_c, 5, 58, 0
11, 180360, Control_c, 5, 11, 67
11, 180720, Control_c, 5, 11, 67
11, 180720, Note_on_c, 5, 58, 80
11, 180720, Note_on_c, 5, 46, 80
11, 180750, Control_c, 5, 11, 68
11, 180780, Control_c, 5, 11, 70
11, 180810, Control_c, 5, 11, 71
11, 180840, Control_c, 5, 11, 72
11, 180870, Control_c, 5, 11, 73
11, 180900, Control_c, 5, 11, 75
11, 180930, Control_c, 5, 11, 76
11, 180960, Control_c, 5, 11, 77
11, 180990, Control_c, 5, 11, 78
11, 181020, Control_c, 5, 11, 80
11, 181050, Control_c, 5, 11, 81
11, 181080, Control_c, 5, 11, 82
11, 181110, Control_c, 5, 11, 83
11, 181140, Control_c, 5, 11, 85
11, 181170, Control_c, 5, 11, 86
11, 181200, Control_c, 5, 11, 87
11, 181230, Control_c, 5, 11, 88
11, 181260, Control_c, 5, 11, 90
11, 181290, Control_c, 5, 11, 91
11, 181320, Control_c, 5, 11, 92
11, 181350, Control_c, 5, 11, 93
11, 181380, Control_c, 5, 11, 95
11, 181410, Control_c, 5, 11, 96
11, 181440, Control_c, 5, 11, 97
11, 181470, Control_c, 5, 11, 98
11, 181500, Control_c, 5, 11, 100
11, 181530, Control_c, 5, 11, 101
11, 181559, Note_on_c, 5, 58, 0
11, 181559, Note_on_c, 5, 46, 0
11, 181560, Control_c, 5, 11, 102
11, 181590, Control_c, 5, 11, 103
11, 181620, Control_c, 5, 11, 105
11, 181650, Control_c, 5, 11, 106
11, 181680, Control_c, 5, 11, 107
11, 181710, Control_c, 5, 11, 108
11, 181740, Control_c, 5, 11, 110
11, 181770, Control_c, 5, 11, 111
11, 181800, Control_c, 5, 11, 112
11, 181830, Control_c, 5, 11, 113
11, 181860, Control_c, 5, 11, 115
11, 181890, Control_c, 5, 11, 116
11, 181920, Control_c, 5, 11, 117
11, 181950, Control_c, 5, 11, 118
11, 181980, Control_c, 5, 11, 120
11, 182010, Control_c, 5, 11, 121
11, 182040, Control_c, 5, 11, 122
11, 182070, Control_c, 5, 11, 123
11, 182100, Control_c, 5, 11, 125
11, 182130, Control_c, 5, 11, 127
11, 182880, Note_on_c, 5, 65, 80
11, 182880, Note_on_c, 5, 53, 80
11, 182984, Note_on_c, 5, 65, 0
11, 182984, Note_on_c, 5, 53, 0
11, 183000, Note_on_c, 5, 65, 80
11, 183000, Note_on_c, 5, 53, 80
11, 183119, Note_on_c, 5, 65, 0
11, 183119, Note_on_c, 5, 53, 0
11, 183480, Note_on_c, 5, 65, 80
11, 183480, Note_on_c, 5, 53, 80
11, 183584, Note_on_c, 5, 65, 0
11, 183584, Note_on_c, 5, 53, 0
11, 183600, Note_on_c, 5, 65, 80
11, 183600, Note_on_c, 5, 53, 80
11, 183704, Note_on_c, 5, 65, 0
11, 183704, Note_on_c, 5, 53, 0
11, 183720, Note_on_c, 5, 53, 80
11, 183720, Note_on_c, 5, 65, 80
11, 183839, Note_on_c, 5, 53, 0
11, 183839, Note_on_c, 5, 65, 0
11, 184320, Note_on_c, 5, 53, 80
11, 184320, Note_on_c, 5, 65, 80
11, 184424, Note_on_c, 5, 53, 0
11, 184424, Note_on_c, 5, 65, 0
11, 184440, Note_on_c, 5, 53, 80
11, 184440, Note_on_c, 5, 65, 80
11, 184559, Note_on_c, 5, 53, 0
11, 184559, Note_on_c, 5, 65, 0
11, 185040, Note_on_c, 5, 62, 80
11, 185040, Note_on_c, 5, 50, 80
11, 185204, Note_on_c, 5, 62, 0
11, 185204, Note_on_c, 5, 50, 0
11, 185220, Note_on_c, 5, 50, 80
11, 185220, Note_on_c, 5, 62, 80
11, 185264, Note_on_c, 5, 50, 0
11, 185264, Note_on_c, 5, 62, 0
11, 185280, Note_on_c, 5, 50, 80
11, 185280, Note_on_c, 5, 62, 80
11, 185399, Note_on_c, 5, 50, 0
11, 185399, Note_on_c, 5, 62, 0
11, 185760, Note_on_c, 5, 50, 80
11, 185760, Note_on_c, 5, 62, 80
11, 185924, Note_on_c, 5, 50, 0
11, 185924, Note_on_c, 5, 62, 0
11, 185940, Note_on_c, 5, 62, 80
11, 185940, Note_on_c, 5, 50, 80
11, 185984, Note_on_c, 5, 62, 0
11, 185984, Note_on_c, 5, 50, 0
11, 186000, Note_on_c, 5, 62, 80
11, 186000, Note_on_c, 5, 50, 80
11, 186119, Note_on_c, 5, 62, 0
11, 186119, Note_on_c, 5, 50, 0
11, 188280, Note_on_c, 5, 62, 32
11, 188280, Note_on_c, 5, 50, 32
11, 188444, Note_on_c, 5, 62, 0
11, 188444, Note_on_c, 5, 50, 0
11, 188460, Note_on_c, 5, 62, 32
11, 188460, Note_on_c, 5, 50, 32
11, 188504, Note_on_c, 5, 62, 0
11, 188504, Note_on_c, 5, 50, 0
11, 188520, Note_on_c, 5, 62, 32
11, 188520, Note_on_c, 5, 50, 32
11, 188624, Note_on_c, 5, 62, 0
11, 188624, Note_on_c, 5, 50, 0
11, 188640, Note_on_c, 5, 62, 32
11, 188640, Note_on_c, 5, 50, 32
11, 188759, Note_on_c, 5, 62, 0
11, 188759, Note_on_c, 5, 50, 0
11, 191880, Note_on_c, 5, 62, 32
11, 191880, Note_on_c, 5, 50, 32
11, 192044, Note_on_c, 5, 62, 0
11, 192044, Note_on_c, 5, 50, 0
11, 192060, Note_on_c, 5, 62, 32
11, 192060, Note_on_c, 5, 50, 32
11, 192104, Note_on_c, 5, 62, 0
11, 192104, Note_on_c, 5, 50, 0
11, 192120, Note_on_c, 5, 50, 32
11, 192120, Note_on_c, 5, 62, 32
11, 192224, Note_on_c, 5, 50, 0
11, 192224, Note_on_c, 5, 62, 0
11, 192240, Note_on_c, 5, 58, 32
11, 192240, Note_on_c, 5, 46, 32
11, 192359, Note_on_c, 5, 58, 0
11, 192359, Note_on_c, 5, 46, 0
11, 192600, Note_on_c, 5, 58, 32
11, 192600, Note_on_c, 5, 46, 32
11, 192764, Note_on_c, 5, 58, 0
11, 192764, Note_on_c, 5, 46, 0
11, 192780, Note_on_c, 5, 58, 32
11, 192780, Note_on_c, 5, 46, 32
11, 192824, Note_on_c, 5, 58, 0
11, 192824, Note_on_c, 5, 46, 0
11, 192840, Note_on_c, 5, 46, 32
11, 192840, Note_on_c, 5, 58, 32
11, 192944, Note_on_c, 5, 46, 0
11, 192944, Note_on_c, 5, 58, 0
11, 192960, Note_on_c, 5, 46, 32
11, 192960, Note_on_c, 5, 58, 32
11, 193079, Note_on_c, 5, 46, 0
11, 193079, Note_on_c, 5, 58, 0
11, 193320, Note_on_c, 5, 58, 32
11, 193484, Note_on_c, 5, 58, 0
11, 193500, Note_on_c, 5, 58, 32
11, 193544, Note_on_c, 5, 58, 0
11, 193560, Note_on_c, 5, 58, 32
11, 193664, Note_on_c, 5, 58, 0
11, 193680, Note_on_c, 5, 58, 32
11, 193799, Note_on_c, 5, 58, 0
11, 195120, Note_on_c, 5, 63, 32
11, 195284, Note_on_c, 5, 63, 0
11, 195300, Note_on_c, 5, 63, 34
11, 195344, Note_on_c, 5, 63, 0
11, 195360, Note_on_c, 5, 63, 34
11, 195464, Note_on_c, 5, 63, 0
11, 195480, Note_on_c, 5, 63, 36
11, 195599, Note_on_c, 5, 63, 0
11, 195840, Note_on_c, 5, 63, 40
11, 195840, Note_on_c, 5, 60, 40
11, 196004, Note_on_c, 5, 63, 0
11, 196004, Note_on_c, 5, 60, 0
11, 196020, Note_on_c, 5, 63, 42
11, 196020, Note_on_c, 5, 60, 42
11, 196064, Note_on_c, 5, 63, 0
11, 196064, Note_on_c, 5, 60, 0
11, 196080, Note_on_c, 5, 60, 42
11, 196080, Note_on_c, 5, 63, 42
11, 196184, Note_on_c, 5, 60, 0
11, 196184, Note_on_c, 5, 63, 0
11, 196200, Note_on_c, 5, 60, 44
11, 196200, Note_on_c, 5, 65, 44
11, 196319, Note_on_c, 5, 60, 0
11, 196319, Note_on_c, 5, 65, 0
11, 196560, Note_on_c, 5, 53, 48
11, 196560, Note_on_c, 5, 65, 48
11, 196724, Note_on_c, 5, 53, 0
11, 196724, Note_on_c, 5, 65, 0
11, 196740, Note_on_c, 5, 53, 50
11, 196740, Note_on_c, 5, 65, 50
11, 196784, Note_on_c, 5, 53, 0
11, 196784, Note_on_c, 5, 65, 0
11, 196800, Note_on_c, 5, 65, 50
11, 196800, Note_on_c, 5, 53, 50
11, 196904, Note_on_c, 5, 65, 0
11, 196904, Note_on_c, 5, 53, 0
11, 196920, Note_on_c, 5, 65, 52
11, 196920, Note_on_c, 5, 53, 52
11, 197039, Note_on_c, 5, 65, 0
11, 197039, Note_on_c, 5, 53, 0
11, 197640, Note_on_c, 5, 63, 60
11, 197804, Note_on_c, 5, 63, 0
11, 197820, Note_on_c, 5, 63, 62
11, 197864, Note_on_c, 5, 63, 0
11, 197880, Note_on_c, 5, 63, 62
11, 197984, Note_on_c, 5, 63, 0
11, 198000, Note_on_c, 5, 63, 64
11, 198164, Note_on_c, 5, 63, 0
11, 198180, Note_on_c, 5, 63, 66
11, 198224, Note_on_c, 5, 63, 0
11, 198240, Note_on_c, 5, 63, 66
11, 198344, Note_on_c, 5, 63, 0
11, 198360, Note_on_c, 5, 63, 68
11, 198479, Note_on_c, 5, 63, 0
11, 200160, Note_on_c, 5, 58, 92
11, 200324, Note_on_c, 5, 58, 0
11, 200340, Note_on_c, 5, 58, 92
11, 200340, Note_on_c, 5, 46, 92
11, 200384, Note_on_c, 5, 58, 0
11, 200384, Note_on_c, 5, 46, 0
11, 200400, Note_on_c, 5, 46, 92
11, 200400, Note_on_c, 5, 58, 92
11, 200504, Note_on_c, 5, 46, 0
11, 200504, Note_on_c, 5, 58, 0
11, 208800, Note_on_c, 5, 53, 44
11, 208800, Note_on_c, 5, 65, 44
11, 208889, Note_on_c, 5, 53, 0
11, 208889, Note_on_c, 5, 65, 0
11, 208920, Note_on_c, 5, 53, 44
11, 208920, Note_on_c, 5, 65, 44
11, 209009, Note_on_c, 5, 53, 0
11, 209009, Note_on_c, 5, 65, 0
11, 209040, Note_on_c, 5, 65, 44
11, 209040, Note_on_c, 5, 53, 44
11, 209129, Note_on_c, 5, 65, 0
11, 209129, Note_on_c, 5, 53, 0
11, 209160, Note_on_c, 5, 65, 44
11, 209160, Note_on_c, 5, 53, 44
11, 209249, Note_on_c, 5, 65, 0
11, 209249, Note_on_c, 5, 53, 0
11, 209280, Note_on_c, 5, 53, 44
11, 209280, Note_on_c, 5, 65, 44
11, 209369, Note_on_c, 5, 53, 0
11, 209369, Note_on_c, 5, 65, 0
11, 209400, Note_on_c, 5, 65, 44
11, 209400, Note_on_c, 5, 53, 44
11, 209489, Note_on_c, 5, 65, 0
11, 209489, Note_on_c, 5, 53, 0
11, 209880, Note_on_c, 5, 65, 44
11, 209880, Note_on_c, 5, 53, 44
11, 209969, Note_on_c, 5, 65, 0
11, 209969, Note_on_c, 5, 53, 0
11, 210000, Note_on_c, 5, 60, 44
11, 210089, Note_on_c, 5, 60, 0
11, 210120, Note_on_c, 5, 60, 44
11, 210209, Note_on_c, 5, 60, 0
11, 210240, Note_on_c, 5, 60, 44
11, 210329, Note_on_c, 5, 60, 0
11, 210360, Note_on_c, 5, 60, 44
11, 210449, Note_on_c, 5, 60, 0
11, 210480, Note_on_c, 5, 60, 44
11, 210569, Note_on_c, 5, 60, 0
11, 210960, Note_on_c, 5, 53, 44
11, 210960, Note_on_c, 5, 65, 44
11, 211049, Note_on_c, 5, 53, 0
11, 211049, Note_on_c, 5, 65, 0
11, 211080, Note_on_c, 5, 65, 44
11, 211080, Note_on_c, 5, 53, 44
11, 211169, Note_on_c, 5, 65, 0
11, 211169, Note_on_c, 5, 53, 0
11, 211200, Note_on_c, 5, 53, 44
11, 211200, Note_on_c, 5, 65, 44
11, 211289, Note_on_c, 5, 53, 0
11, 211289, Note_on_c, 5, 65, 0
11, 211320, Note_on_c, 5, 65, 44
11, 211320, Note_on_c, 5, 53, 44
11, 211409, Note_on_c, 5, 65, 0
11, 211409, Note_on_c, 5, 53, 0
11, 211440, Note_on_c, 5, 53, 44
11, 211440, Note_on_c, 5, 65, 44
11, 211529, Note_on_c, 5, 53, 0
11, 211529, Note_on_c, 5, 65, 0
11, 211560, Note_on_c, 5, 65, 44
11, 211560, Note_on_c, 5, 53, 44
11, 211649, Note_on_c, 5, 65, 0
11, 211649, Note_on_c, 5, 53, 0
11, 212040, Note_on_c, 5, 53, 44
11, 212040, Note_on_c, 5, 65, 44
11, 212129, Note_on_c, 5, 53, 0
11, 212129, Note_on_c, 5, 65, 0
11, 212160, Note_on_c, 5, 60, 44
11, 212249, Note_on_c, 5, 60, 0
11, 212280, Note_on_c, 5, 60, 44
11, 212369, Note_on_c, 5, 60, 0
11, 212400, Note_on_c, 5, 60, 44
11, 212489, Note_on_c, 5, 60, 0
11, 212520, Note_on_c, 5, 60, 44
11, 212609, Note_on_c, 5, 60, 0
11, 212640, Note_on_c, 5, 60, 44
11, 212729, Note_on_c, 5, 60, 0
11, 212760, Note_on_c, 5, 65, 44
11, 212760, Note_on_c, 5, 53, 44
11, 212849, Note_on_c, 5, 65, 0
11, 212849, Note_on_c, 5, 53, 0
11, 212880, Note_on_c, 5, 65, 44
11, 212880, Note_on_c, 5, 53, 44
11, 212969, Note_on_c, 5, 65, 0
11, 212969, Note_on_c, 5, 53, 0
11, 213000, Note_on_c, 5, 53, 44
11, 213000, Note_on_c, 5, 65, 44
11, 213089, Note_on_c, 5, 53, 0
11, 213089, Note_on_c, 5, 65, 0
11, 213120, Note_on_c, 5, 53, 44
11, 213120, Note_on_c, 5, 65, 44
11, 213209, Note_on_c, 5, 53, 0
11, 213209, Note_on_c, 5, 65, 0
11, 213240, Note_on_c, 5, 65, 44
11, 213240, Note_on_c, 5, 53, 44
11, 213329, Note_on_c, 5, 65, 0
11, 213329, Note_on_c, 5, 53, 0
11, 213360, Note_on_c, 5, 53, 43
11, 213360, Note_on_c, 5, 65, 43
11, 213449, Note_on_c, 5, 53, 0
11, 213449, Note_on_c, 5, 65, 0
11, 213480, Note_on_c, 5, 53, 43
11, 213480, Note_on_c, 5, 65, 43
11, 213569, Note_on_c, 5, 53, 0
11, 213569, Note_on_c, 5, 65, 0
11, 213600, Note_on_c, 5, 53, 42
11, 213600, Note_on_c, 5, 65, 42
11, 213689, Note_on_c, 5, 53, 0
11, 213689, Note_on_c, 5, 65, 0
11, 213720, Note_on_c, 5, 65, 42
11, 213720, Note_on_c, 5, 53, 42
11, 213809, Note_on_c, 5, 65, 0
11, 213809, Note_on_c, 5, 53, 0
11, 214920, Note_on_c, 5, 62, 36
11, 214920, Note_on_c, 5, 50, 36
11, 215024, Note_on_c, 5, 62, 0
11, 215024, Note_on_c, 5, 50, 0
11, 215040, Note_on_c, 5, 62, 35
11, 215040, Note_on_c, 5, 50, 35
11, 215144, Note_on_c, 5, 62, 0
11, 215144, Note_on_c, 5, 50, 0
11, 215160, Note_on_c, 5, 50, 35
11, 215160, Note_on_c, 5, 62, 35
11, 215264, Note_on_c, 5, 50, 0
11, 215264, Note_on_c, 5, 62, 0
11, 215280, Note_on_c, 5, 62, 34
11, 215280, Note_on_c, 5, 50, 34
11, 215384, Note_on_c, 5, 62, 0
11, 215384, Note_on_c, 5, 50, 0
11, 215400, Note_on_c, 5, 50, 34
11, 215400, Note_on_c, 5, 62, 34
11, 215504, Note_on_c, 5, 50, 0
11, 215504, Note_on_c, 5, 62, 0
11, 215520, Note_on_c, 5, 62, 33
11, 215520, Note_on_c, 5, 50, 33
11, 215624, Note_on_c, 5, 62, 0
11, 215624, Note_on_c, 5, 50, 0
11, 215640, Note_on_c, 5, 50, 32
11, 215640, Note_on_c, 5, 62, 32
11, 215744, Note_on_c, 5, 50, 0
11, 215744, Note_on_c, 5, 62, 0
11, 215760, Note_on_c, 5, 50, 32
11, 215760, Note_on_c, 5, 62, 32
11, 215864, Note_on_c, 5, 50, 0
11, 215864, Note_on_c, 5, 62, 0
11, 215880, Note_on_c, 5, 62, 32
11, 215880, Note_on_c, 5, 50, 32
11, 215999, Note_on_c, 5, 62, 0
11, 215999, Note_on_c, 5, 50, 0
11, 225720, Note_on_c, 5, 58, 32
11, 225884, Note_on_c, 5, 58, 0
11, 225900, Note_on_c, 5, 46, 32
11, 225944, Note_on_c, 5, 46, 0
11, 225960, Note_on_c, 5, 46, 32
11, 226079, Note_on_c, 5, 46, 0
11, 226440, Note_on_c, 5, 58, 32
11, 226604, Note_on_c, 5, 58, 0
11, 226620, Note_on_c, 5, 46, 32
11, 226664, Note_on_c, 5, 46, 0
11, 226680, Note_on_c, 5, 46, 32
11, 226799, Note_on_c, 5, 46, 0
11, 227160, Note_on_c, 5, 58, 32
11, 227324, Note_on_c, 5, 58, 0
11, 227340, Note_on_c, 5, 46, 32
11, 227384, Note_on_c, 5, 46, 0
11, 227400, Note_on_c, 5, 46, 32
11, 227519, Note_on_c, 5, 46, 0
11, 227880, Note_on_c, 5, 58, 32
11, 228044, Note_on_c, 5, 58, 0
11, 228060, Note_on_c, 5, 46, 32
11, 228104, Note_on_c, 5, 46, 0
11, 228120, Note_on_c, 5, 46, 32
11, 228239, Note_on_c, 5, 46, 0
11, 228600, Note_on_c, 5, 65, 32
11, 228764, Note_on_c, 5, 65, 0
11, 228780, Note_on_c, 5, 53, 32
11, 228824, Note_on_c, 5, 53, 0
11, 228840, Note_on_c, 5, 53, 32
11, 228944, Note_on_c, 5, 53, 0
11, 228960, Note_on_c, 5, 58, 32
11, 229124, Note_on_c, 5, 58, 0
11, 229140, Note_on_c, 5, 46, 32
11, 229184, Note_on_c, 5, 46, 0
11, 229200, Note_on_c, 5, 46, 32
11, 229304, Note_on_c, 5, 46, 0
11, 229320, Note_on_c, 5, 58, 32
11, 229484, Note_on_c, 5, 58, 0
11, 229500, Note_on_c, 5, 46, 32
11, 229544, Note_on_c, 5, 46, 0
11, 229560, Note_on_c, 5, 46, 32
11, 229664, Note_on_c, 5, 46, 0
11, 229680, Note_on_c, 5, 58, 32
11, 229844, Note_on_c, 5, 58, 0
11, 229860, Note_on_c, 5, 46, 32
11, 229904, Note_on_c, 5, 46, 0
11, 229920, Note_on_c, 5, 46, 32
11, 230024, Note_on_c, 5, 46, 0
11, 230040, Note_on_c, 5, 58, 32
11, 230204, Note_on_c, 5, 58, 0
11, 230220, Note_on_c, 5, 46, 32
11, 230264, Note_on_c, 5, 46, 0
11, 230280, Note_on_c, 5, 46, 32
11, 230399, Note_on_c, 5, 46, 0
11, 230760, Note_on_c, 5, 58, 38
11, 230924, Note_on_c, 5, 58, 0
11, 230940, Note_on_c, 5, 46, 41
11, 230984, Note_on_c, 5, 46, 0
11, 231000, Note_on_c, 5, 46, 42
11, 231119, Note_on_c, 5, 46, 0
11, 231480, Note_on_c, 5, 65, 50
11, 231644, Note_on_c, 5, 65, 0
11, 231660, Note_on_c, 5, 53, 53
11, 231704, Note_on_c, 5, 53, 0
11, 231720, Note_on_c, 5, 53, 54
11, 231839, Note_on_c, 5, 53, 0
11, 232920, Note_on_c, 5, 65, 74
11, 233084, Note_on_c, 5, 65, 0
11, 233100, Note_on_c, 5, 53, 77
11, 233144, Note_on_c, 5, 53, 0
11, 233160, Note_on_c, 5, 53, 78
11, 233264, Note_on_c, 5, 53, 0
11, 233280, Note_on_c, 5, 65, 80
11, 233444, Note_on_c, 5, 65, 0
11, 233460, Note_on_c, 5, 53, 80
11, 233504, Note_on_c, 5, 53, 0
11, 233520, Note_on_c, 5, 53, 80
11, 233624, Note_on_c, 5, 53, 0
11, 233640, Note_on_c, 5, 65, 80
11, 233804, Note_on_c, 5, 65, 0
11, 233820, Note_on_c, 5, 53, 80
11, 233864, Note_on_c, 5, 53, 0
11, 233880, Note_on_c, 5, 53, 80
11, 233984, Note_on_c, 5, 53, 0
11, 234000, Note_on_c, 5, 65, 86
11, 234164, Note_on_c, 5, 65, 0
11, 234180, Note_on_c, 5, 53, 86
11, 234224, Note_on_c, 5, 53, 0
11, 234240, Note_on_c, 5, 53, 86
11, 234344, Note_on_c, 5, 53, 0
11, 234360, Note_on_c, 5, 65, 86
11, 234524, Note_on_c, 5, 65, 0
11, 234540, Note_on_c, 5, 53, 86
11, 234584, Note_on_c, 5, 53, 0
11, 234600, Note_on_c, 5, 53, 86
11, 234704, Note_on_c, 5, 53, 0
11, 234720, Note_on_c, 5, 65, 92
11, 234884, Note_on_c, 5, 65, 0
11, 234900, Note_on_c, 5, 53, 92
11, 234944, Note_on_c, 5, 53, 0
11, 234960, Note_on_c, 5, 53, 92
11, 235064, Note_on_c, 5, 53, 0
11, 235080, Note_on_c, 5, 65, 92
11, 235244, Note_on_c, 5, 65, 0
11, 235260, Note_on_c, 5, 53, 92
11, 235304, Note_on_c, 5, 53, 0
11, 235320, Note_on_c, 5, 53, 92
11, 235424, Note_on_c, 5, 53, 0
11, 235440, Note_on_c, 5, 65, 92
11, 235604, Note_on_c, 5, 65, 0
11, 235620, Note_on_c, 5, 53, 92
11, 235664, Note_on_c, 5, 53, 0
11, 235680, Note_on_c, 5, 53, 92
11, 235784, Note_on_c, 5, 53, 0
11, 235800, Note_on_c, 5, 65, 92
11, 235964, Note_on_c, 5, 65, 0
11, 235980, Note_on_c, 5, 53, 92
11, 236024, Note_on_c, 5, 53, 0
11, 236040, Note_on_c, 5, 53, 92
11, 236144, Note_on_c, 5, 53, 0
11, 236160, Note_on_c, 5, 65, 92
11, 236324, Note_on_c, 5, 65, 0
11, 236340, Note_on_c, 5, 53, 92
11, 236384, Note_on_c, 5, 53, 0
11, 236400, Note_on_c, 5, 53, 92
11, 236504, Note_on_c, 5, 53, 0
11, 236520, Note_on_c, 5, 65, 92
11, 236684, Note_on_c, 5, 65, 0
11, 236700, Note_on_c, 5, 53, 92
11, 236744, Note_on_c, 5, 53, 0
11, 236760, Note_on_c, 5, 53, 92
11, 236864, Note_on_c, 5, 53, 0
11, 236880, Note_on_c, 5, 65, 92
11, 237044, Note_on_c, 5, 65, 0
11, 237060, Note_on_c, 5, 53, 92
11, 237104, Note_on_c, 5, 53, 0
11, 237120, Note_on_c, 5, 53, 92
11, 237224, Note_on_c, 5, 53, 0
11, 237240, Note_on_c, 5, 65, 92
11, 237404, Note_on_c, 5, 65, 0
11, 237420, Note_on_c, 5, 53, 92
11, 237464, Note_on_c, 5, 53, 0
11, 237480, Note_on_c, 5, 53, 92
11, 237584, Note_on_c, 5, 53, 0
11, 237600, Note_on_c, 5, 65, 92
11, 237764, Note_on_c, 5, 65, 0
11, 237780, Note_on_c, 5, 53, 92
11, 237824, Note_on_c, 5, 53, 0
11, 237840, Note_on_c, 5, 53, 92
11, 237944, Note_on_c, 5, 53, 0
11, 237960, Note_on_c, 5, 65, 92
11, 238124, Note_on_c, 5, 65, 0
11, 238140, Note_on_c, 5, 53, 92
11, 238184, Note_on_c, 5, 53, 0
11, 238200, Note_on_c, 5, 53, 92
11, 238304, Note_on_c, 5, 53, 0
11, 238320, Note_on_c, 5, 65, 92
11, 238484, Note_on_c, 5, 65, 0
11, 238500, Note_on_c, 5, 53, 92
11, 238544, Note_on_c, 5, 53, 0
11, 238560, Note_on_c, 5, 53, 92
11, 238664, Note_on_c, 5, 53, 0
11, 238680, Note_on_c, 5, 65, 92
11, 238844, Note_on_c, 5, 65, 0
11, 238860, Note_on_c, 5, 53, 92
11, 238904, Note_on_c, 5, 53, 0
11, 238920, Note_on_c, 5, 53, 92
11, 239024, Note_on_c, 5, 53, 0
11, 239040, Note_on_c, 5, 65, 92
11, 239204, Note_on_c, 5, 65, 0
11, 239220, Note_on_c, 5, 53, 92
11, 239264, Note_on_c, 5, 53, 0
11, 239280, Note_on_c, 5, 53, 92
11, 239384, Note_on_c, 5, 53, 0
11, 239400, Note_on_c, 5, 65, 92
11, 239564, Note_on_c, 5, 65, 0
11, 239580, Note_on_c, 5, 53, 92
11, 239624, Note_on_c, 5, 53, 0
11, 239640, Note_on_c, 5, 53, 92
11, 239744, Note_on_c, 5, 53, 0
11, 239760, Note_on_c, 5, 65, 92
11, 239924, Note_on_c, 5, 65, 0
11, 239940, Note_on_c, 5, 53, 92
11, 239984, Note_on_c, 5, 53, 0
11, 240000, Note_on_c, 5, 53, 92
11, 240104, Note_on_c, 5, 53, 0
11, 240120, Note_on_c, 5, 65, 92
11, 240284, Note_on_c, 5, 65, 0
11, 240300, Note_on_c, 5, 53, 92
11, 240344, Note_on_c, 5, 53, 0
11, 240360, Note_on_c, 5, 53, 92
11, 240464, Note_on_c, 5, 53, 0
11, 242280, Note_on_c, 5, 58, 80
11, 242444, Note_on_c, 5, 58, 0
11, 242460, Note_on_c, 5, 46, 80
11, 242504, Note_on_c, 5, 46, 0
11, 242520, Note_on_c, 5, 46, 80
11, 242624, Note_on_c, 5, 46, 0
11, 242640, Note_on_c, 5, 65, 80
11, 242804, Note_on_c, 5, 65, 0
11, 242820, Note_on_c, 5, 53, 80
11, 242864, Note_on_c, 5, 53, 0
11, 242880, Note_on_c, 5, 53, 80
11, 242984, Note_on_c, 5, 53, 0
11, 243000, Note_on_c, 5, 65, 80
11, 243164, Note_on_c, 5, 65, 0
11, 243180, Note_on_c, 5, 53, 80
11, 243224, Note_on_c, 5, 53, 0
11, 243240, Note_on_c, 5, 53, 80
11, 243344, Note_on_c, 5, 53, 0
11, 243360, Note_on_c, 5, 65, 80
11, 243524, Note_on_c, 5, 65, 0
11, 243540, Note_on_c, 5, 53, 80
11, 243584, Note_on_c, 5, 53, 0
11, 243600, Note_on_c, 5, 53, 80
11, 243704, Note_on_c, 5, 53, 0
11, 243720, Note_on_c, 5, 65, 80
11, 243884, Note_on_c, 5, 65, 0
11, 243900, Note_on_c, 5, 53, 80
11, 243944, Note_on_c, 5, 53, 0
11, 243960, Note_on_c, 5, 53, 80
11, 244064, Note_on_c, 5, 53, 0
11, 244080, Note_on_c, 5, 65, 80
11, 244244, Note_on_c, 5, 65, 0
11, 244260, Note_on_c, 5, 53, 80
11, 244304, Note_on_c, 5, 53, 0
11, 244320, Note_on_c, 5, 53, 80
11, 244424, Note_on_c, 5, 53, 0
11, 244440, Note_on_c, 5, 65, 80
11, 244604, Note_on_c, 5, 65, 0
11, 244620, Note_on_c, 5, 53, 80
11, 244664, Note_on_c, 5, 53, 0
11, 244680, Note_on_c, 5, 53, 80
11, 244784, Note_on_c, 5, 53, 0
11, 244800, Note_on_c, 5, 46, 80
11, 244800, Note_on_c, 5, 58, 80
11, 244919, Note_on_c, 5, 46, 0
11, 244919, Note_on_c, 5, 58, 0
11, 245520, Control_c, 5, 11, 87
11, 245880, Control_c, 5, 11, 87
11, 245880, Note_on_c, 5, 63, 68
11, 245910, Control_c, 5, 11, 89
11, 245940, Control_c, 5, 11, 90
11, 245970, Control_c, 5, 11, 92
11, 246000, Control_c, 5, 11, 94
11, 246030, Control_c, 5, 11, 95
11, 246060, Control_c, 5, 11, 97
11, 246090, Control_c, 5, 11, 99
11, 246120, Control_c, 5, 11, 100
11, 246150, Control_c, 5, 11, 102
11, 246180, Control_c, 5, 11, 104
11, 246210, Control_c, 5, 11, 105
11, 246240, Note_on_c, 5, 60, 68
11, 246240, Control_c, 5, 11, 107
11, 246270, Control_c, 5, 11, 109
11, 246300, Control_c, 5, 11, 110
11, 246330, Control_c, 5, 11, 112
11, 246360, Control_c, 5, 11, 114
11, 246390, Control_c, 5, 11, 115
11, 246420, Control_c, 5, 11, 117
11, 246450, Control_c, 5, 11, 119
11, 246480, Control_c, 5, 11, 120
11, 246510, Control_c, 5, 11, 122
11, 246540, Control_c, 5, 11, 124
11, 246570, Control_c, 5, 11, 125
11, 246584, Note_on_c, 5, 63, 0
11, 246584, Note_on_c, 5, 60, 0
11, 246600, Note_on_c, 5, 62, 68
11, 246600, Note_on_c, 5, 58, 68
11, 246600, Control_c, 5, 11, 127
11, 246630, Control_c, 5, 11, 126
11, 246660, Control_c, 5, 11, 125
11, 246690, Control_c, 5, 11, 124
11, 246720, Control_c, 5, 11, 123
11, 246750, Control_c, 5, 11, 121
11, 246780, Control_c, 5, 11, 120
11, 246810, Control_c, 5, 11, 119
11, 246840, Control_c, 5, 11, 118
11, 246870, Control_c, 5, 11, 117
11, 246900, Control_c, 5, 11, 116
11, 246930, Control_c, 5, 11, 115
11, 246944, Note_on_c, 5, 62, 0
11, 246960, Control_c, 5, 11, 114
11, 246960, Note_on_c, 5, 65, 68
11, 246990, Control_c, 5, 11, 113
11, 247020, Control_c, 5, 11, 111
11, 247050, Control_c, 5, 11, 110
11, 247080, Control_c, 5, 11, 109
11, 247110, Control_c, 5, 11, 108
11, 247140, Control_c, 5, 11, 107
11, 247170, Control_c, 5, 11, 106
11, 247200, Control_c, 5, 11, 105
11, 247230, Control_c, 5, 11, 104
11, 247260, Control_c, 5, 11, 103
11, 247290, Control_c, 5, 11, 101
11, 247304, Note_on_c, 5, 58, 0
11, 247320, Note_on_c, 5, 53, 68
11, 247320, Control_c, 5, 11, 100
11, 247350, Control_c, 5, 11, 99
11, 247380, Control_c, 5, 11, 98
11, 247410, Control_c, 5, 11, 97
11, 247440, Control_c, 5, 11, 96
11, 247470, Control_c, 5, 11, 95
11, 247500, Control_c, 5, 11, 94
11, 247530, Control_c, 5, 11, 93
11, 247560, Control_c, 5, 11, 91
11, 247590, Control_c, 5, 11, 90
11, 247620, Control_c, 5, 11, 89
11, 247650, Control_c, 5, 11, 88
11, 247679, Note_on_c, 5, 65, 0
11, 247679, Note_on_c, 5, 53, 0
11, 256680, Control_c, 5, 11, 127
11, 257040, Note_on_c, 5, 62, 92
11, 257040, Note_on_c, 5, 50, 92
11, 257384, Note_on_c, 5, 62, 0
11, 257384, Note_on_c, 5, 50, 0
11, 257400, Note_on_c, 5, 62, 92
11, 257400, Note_on_c, 5, 50, 92
11, 257519, Note_on_c, 5, 62, 0
11, 257519, Note_on_c, 5, 50, 0
11, 257640, Note_on_c, 5, 50, 92
11, 257640, Note_on_c, 5, 62, 92
11, 257744, Note_on_c, 5, 50, 0
11, 257744, Note_on_c, 5, 62, 0
11, 257760, Note_on_c, 5, 50, 92
11, 257760, Note_on_c, 5, 62, 92
11, 257879, Note_on_c, 5, 50, 0
11, 257879, Note_on_c, 5, 62, 0
11, 258000, Note_on_c, 5, 62, 92
11, 258000, Note_on_c, 5, 50, 92
11, 258104, Note_on_c, 5, 62, 0
11, 258104, Note_on_c, 5, 50, 0
11, 258120, Note_on_c, 5, 62, 92
11, 258120, Note_on_c, 5, 50, 92
11, 258239, Note_on_c, 5, 62, 0
11, 258239, Note_on_c, 5, 50, 0
11, 258360, Note_on_c, 5, 62, 92
11, 258360, Note_on_c, 5, 50, 92
11, 258464, Note_on_c, 5, 62, 0
11, 258464, Note_on_c, 5, 50, 0
11, 258480, Note_on_c, 5, 50, 92
11, 258480, Note_on_c, 5, 62, 92
11, 258824, Note_on_c, 5, 50, 0
11, 258824, Note_on_c, 5, 62, 0
11, 258840, Note_on_c, 5, 62, 92
11, 258840, Note_on_c, 5, 50, 92
11, 258959, Note_on_c, 5, 62, 0
11, 258959, Note_on_c, 5, 50, 0
11, 259080, Note_on_c, 5, 62, 92
11, 259080, Note_on_c, 5, 50, 92
11, 259184, Note_on_c, 5, 62, 0
11, 259184, Note_on_c, 5, 50, 0
11, 259200, Note_on_c, 5, 62, 92
11, 259200, Note_on_c, 5, 50, 92
11, 259319, Note_on_c, 5, 62, 0
11, 259319, Note_on_c, 5, 50, 0
11, 259440, Note_on_c, 5, 50, 92
11, 259440, Note_on_c, 5, 62, 92
11, 259544, Note_on_c, 5, 50, 0
11, 259544, Note_on_c, 5, 62, 0
11, 259560, Note_on_c, 5, 50, 92
11, 259560, Note_on_c, 5, 62, 92
11, 259679, Note_on_c, 5, 50, 0
11, 259679, Note_on_c, 5, 62, 0
11, 259800, Note_on_c, 5, 50, 92
11, 259800, Note_on_c, 5, 62, 92
11, 259904, Note_on_c, 5, 50, 0
11, 259904, Note_on_c, 5, 62, 0
11, 259920, Note_on_c, 5, 50, 92
11, 259920, Note_on_c, 5, 62, 92
11, 260024, Note_on_c, 5, 50, 0
11, 260024, Note_on_c, 5, 62, 0
11, 260040, Note_on_c, 5, 62, 92
11, 260040, Note_on_c, 5, 50, 92
11, 260144, Note_on_c, 5, 62, 0
11, 260144, Note_on_c, 5, 50, 0
11, 260160, Note_on_c, 5, 50, 92
11, 260160, Note_on_c, 5, 62, 92
11, 260264, Note_on_c, 5, 50, 0
11, 260264, Note_on_c, 5, 62, 0
11, 260280, Note_on_c, 5, 62, 92
11, 260280, Note_on_c, 5, 50, 92
11, 260384, Note_on_c, 5, 62, 0
11, 260384, Note_on_c, 5, 50, 0
11, 260400, Note_on_c, 5, 50, 92
11, 260400, Note_on_c, 5, 62, 92
11, 260504, Note_on_c, 5, 50, 0
11, 260504, Note_on_c, 5, 62, 0
11, 260520, Note_on_c, 5, 50, 92
11, 260520, Note_on_c, 5, 62, 92
11, 260624, Note_on_c, 5, 50, 0
11, 260624, Note_on_c, 5, 62, 0
11, 260640, Note_on_c, 5, 50, 92
11, 260640, Note_on_c, 5, 62, 92
11, 260744, Note_on_c, 5, 50, 0
11, 260744, Note_on_c, 5, 62, 0
11, 260760, Note_on_c, 5, 50, 92
11, 260760, Note_on_c, 5, 62, 92
11, 260864, Note_on_c, 5, 50, 0
11, 260864, Note_on_c, 5, 62, 0
11, 260880, Note_on_c, 5, 62, 92
11, 260880, Note_on_c, 5, 50, 92
11, 260984, Note_on_c, 5, 62, 0
11, 260984, Note_on_c, 5, 50, 0
11, 261000, Note_on_c, 5, 62, 92
11, 261000, Note_on_c, 5, 50, 92
11, 261104, Note_on_c, 5, 62, 0
11, 261104, Note_on_c, 5, 50, 0
11, 261120, Note_on_c, 5, 62, 92
11, 261120, Note_on_c, 5, 50, 92
11, 261224, Note_on_c, 5, 62, 0
11, 261224, Note_on_c, 5, 50, 0
11, 261240, Note_on_c, 5, 50, 92
11, 261240, Note_on_c, 5, 62, 92
11, 261344, Note_on_c, 5, 50, 0
11, 261344, Note_on_c, 5, 62, 0
11, 261360, Note_on_c, 5, 50, 92
11, 261360, Note_on_c, 5, 62, 92
11, 261464, Note_on_c, 5, 50, 0
11, 261464, Note_on_c, 5, 62, 0
11, 261480, Note_on_c, 5, 50, 92
11, 261480, Note_on_c, 5, 62, 92
11, 261584, Note_on_c, 5, 50, 0
11, 261584, Note_on_c, 5, 62, 0
11, 261600, Note_on_c, 5, 62, 92
11, 261600, Note_on_c, 5, 50, 92
11, 261704, Note_on_c, 5, 62, 0
11, 261704, Note_on_c, 5, 50, 0
11, 261720, Note_on_c, 5, 62, 92
11, 261720, Note_on_c, 5, 50, 92
11, 261824, Note_on_c, 5, 62, 0
11, 261824, Note_on_c, 5, 50, 0
11, 261840, Note_on_c, 5, 62, 92
11, 261840, Note_on_c, 5, 50, 92
11, 261944, Note_on_c, 5, 62, 0
11, 261944, Note_on_c, 5, 50, 0
11, 261960, Note_on_c, 5, 50, 92
11, 261960, Note_on_c, 5, 62, 92
11, 262064, Note_on_c, 5, 50, 0
11, 262064, Note_on_c, 5, 62, 0
11, 262080, Note_on_c, 5, 50, 92
11, 262080, Note_on_c, 5, 62, 92
11, 262184, Note_on_c, 5, 50, 0
11, 262184, Note_on_c, 5, 62, 0
11, 262200, Note_on_c, 5, 62, 92
11, 262200, Note_on_c, 5, 50, 92
11, 262304, Note_on_c, 5, 62, 0
11, 262304, Note_on_c, 5, 50, 0
11, 262320, Note_on_c, 5, 50, 92
11, 262320, Note_on_c, 5, 62, 92
11, 262424, Note_on_c, 5, 50, 0
11, 262424, Note_on_c, 5, 62, 0
11, 262440, Note_on_c, 5, 50, 92
11, 262440, Note_on_c, 5, 62, 92
11, 262544, Note_on_c, 5, 50, 0
11, 262544, Note_on_c, 5, 62, 0
11, 262560, Note_on_c, 5, 62, 92
11, 262560, Note_on_c, 5, 50, 92
11, 262664, Note_on_c, 5, 62, 0
11, 262664, Note_on_c, 5, 50, 0
11, 262680, Note_on_c, 5, 50, 92
11, 262680, Note_on_c, 5, 62, 92
11, 262784, Note_on_c, 5, 50, 0
11, 262784, Note_on_c, 5, 62, 0
11, 262800, Note_on_c, 5, 62, 92
11, 262800, Note_on_c, 5, 50, 92
11, 262964, Note_on_c, 5, 62, 0
11, 262964, Note_on_c, 5, 50, 0
11, 262980, Note_on_c, 5, 50, 92
11, 262980, Note_on_c, 5, 62, 92
11, 263024, Note_on_c, 5, 50, 0
11, 263024, Note_on_c, 5, 62, 0
11, 263040, Note_on_c, 5, 50, 92
11, 263040, Note_on_c, 5, 62, 92
11, 263144, Note_on_c, 5, 50, 0
11, 263144, Note_on_c, 5, 62, 0
11, 263160, Note_on_c, 5, 50, 92
11, 263160, Note_on_c, 5, 62, 92
11, 263264, Note_on_c, 5, 50, 0
11, 263264, Note_on_c, 5, 62, 0
11, 263280, Note_on_c, 5, 50, 92
11, 263280, Note_on_c, 5, 62, 92
11, 263384, Note_on_c, 5, 50, 0
11, 263384, Note_on_c, 5, 62, 0
11, 263400, Note_on_c, 5, 62, 92
11, 263400, Note_on_c, 5, 50, 92
11, 263504, Note_on_c, 5, 62, 0
11, 263504, Note_on_c, 5, 50, 0
11, 263520, Note_on_c, 5, 62, 92
11, 263520, Note_on_c, 5, 50, 92
11, 263639, Note_on_c, 5, 62, 0
11, 263639, Note_on_c, 5, 50, 0
11, 264240, Note_on_c, 5, 60, 92
11, 264404, Note_on_c, 5, 60, 0
11, 264420, Note_on_c, 5, 60, 92
11, 264464, Note_on_c, 5, 60, 0
11, 264480, Note_on_c, 5, 60, 92
11, 264584, Note_on_c, 5, 60, 0
11, 264600, Note_on_c, 5, 60, 92
11, 264704, Note_on_c, 5, 60, 0
11, 264720, Note_on_c, 5, 60, 92
11, 264824, Note_on_c, 5, 60, 0
11, 264840, Note_on_c, 5, 60, 92
11, 264944, Note_on_c, 5, 60, 0
11, 264960, Note_on_c, 5, 65, 92
11, 264960, Note_on_c, 5, 53, 92
11, 265079, Note_on_c, 5, 65, 0
11, 265079, Note_on_c, 5, 53, 0
11, 265680, Control_c, 5, 11, 87
11, 266040, Control_c, 5, 11, 87
11, 266040, Note_on_c, 5, 46, 68
11, 266040, Note_on_c, 5, 58, 68
11, 266070, Control_c, 5, 11, 88
11, 266100, Control_c, 5, 11, 89
11, 266130, Control_c, 5, 11, 90
11, 266160, Control_c, 5, 11, 91
11, 266190, Control_c, 5, 11, 93
11, 266220, Control_c, 5, 11, 94
11, 266250, Control_c, 5, 11, 95
11, 266280, Control_c, 5, 11, 96
11, 266310, Control_c, 5, 11, 97
11, 266340, Control_c, 5, 11, 98
11, 266370, Control_c, 5, 11, 99
11, 266400, Control_c, 5, 11, 100
11, 266430, Control_c, 5, 11, 101
11, 266460, Control_c, 5, 11, 103
11, 266490, Control_c, 5, 11, 104
11, 266520, Control_c, 5, 11, 105
11, 266550, Control_c, 5, 11, 106
11, 266580, Control_c, 5, 11, 107
11, 266610, Control_c, 5, 11, 108
11, 266640, Control_c, 5, 11, 109
11, 266670, Control_c, 5, 11, 110
11, 266700, Control_c, 5, 11, 111
11, 266730, Control_c, 5, 11, 113
11, 266760, Control_c, 5, 11, 114
11, 266790, Control_c, 5, 11, 115
11, 266820, Control_c, 5, 11, 116
11, 266850, Control_c, 5, 11, 117
11, 266880, Control_c, 5, 11, 118
11, 266910, Control_c, 5, 11, 119
11, 266940, Control_c, 5, 11, 120
11, 266970, Control_c, 5, 11, 121
11, 267000, Control_c, 5, 11, 123
11, 267030, Control_c, 5, 11, 124
11, 267060, Control_c, 5, 11, 125
11, 267090, Control_c, 5, 11, 127
11, 267239, Note_on_c, 5, 46, 0
11, 267239, Note_on_c, 5, 58, 0
11, 267480, Control_c, 5, 11, 67
11, 267840, Note_on_c, 5, 58, 80
11, 267840, Note_on_c, 5, 46, 80
11, 267840, Control_c, 5, 11, 67
11, 267870, Control_c, 5, 11, 68
11, 267900, Control_c, 5, 11, 70
11, 267930, Control_c, 5, 11, 71
11, 267960, Control_c, 5, 11, 72
11, 267990, Control_c, 5, 11, 73
11, 268020, Control_c, 5, 11, 75
11, 268050, Control_c, 5, 11, 76
11, 268080, Control_c, 5, 11, 77
11, 268110, Control_c, 5, 11, 78
11, 268140, Control_c, 5, 11, 80
11, 268170, Control_c, 5, 11, 81
11, 268200, Control_c, 5, 11, 82
11, 268230, Control_c, 5, 11, 83
11, 268260, Control_c, 5, 11, 85
11, 268290, Control_c, 5, 11, 86
11, 268320, Control_c, 5, 11, 87
11, 268350, Control_c, 5, 11, 88
11, 268380, Control_c, 5, 11, 90
11, 268410, Control_c, 5, 11, 91
11, 268440, Control_c, 5, 11, 92
11, 268470, Control_c, 5, 11, 93
11, 268500, Control_c, 5, 11, 95
11, 268530, Control_c, 5, 11, 96
11, 268560, Control_c, 5, 11, 97
11, 268590, Control_c, 5, 11, 98
11, 268620, Control_c, 5, 11, 100
11, 268650, Control_c, 5, 11, 101
11, 268679, Note_on_c, 5, 58, 0
11, 268679, Note_on_c, 5, 46, 0
11, 268680, Control_c, 5, 11, 102
11, 268710, Control_c, 5, 11, 103
11, 268740, Control_c, 5, 11, 105
11, 268770, Control_c, 5, 11, 106
11, 268800, Control_c, 5, 11, 107
11, 268830, Control_c, 5, 11, 108
11, 268860, Control_c, 5, 11, 110
11, 268890, Control_c, 5, 11, 111
11, 268920, Control_c, 5, 11, 112
11, 268950, Control_c, 5, 11, 113
11, 268980, Control_c, 5, 11, 115
11, 269010, Control_c, 5, 11, 116
11, 269040, Control_c, 5, 11, 117
11, 269070, Control_c, 5, 11, 118
11, 269100, Control_c, 5, 11, 120
11, 269130, Control_c, 5, 11, 121
11, 269160, Control_c, 5, 11, 122
11, 269190, Control_c, 5, 11, 123
11, 269220, Control_c, 5, 11, 125
11, 269250, Control_c, 5, 11, 127
11, 270000, Note_on_c, 5, 65, 80
11, 270000, Note_on_c, 5, 53, 80
11, 270104, Note_on_c, 5, 65, 0
11, 270104, Note_on_c, 5, 53, 0
11, 270120, Note_on_c, 5, 53, 80
11, 270120, Note_on_c, 5, 65, 80
11, 270239, Note_on_c, 5, 53, 0
11, 270239, Note_on_c, 5, 65, 0
11, 270600, Note_on_c, 5, 53, 80
11, 270600, Note_on_c, 5, 65, 80
11, 270704, Note_on_c, 5, 53, 0
11, 270704, Note_on_c, 5, 65, 0
11, 270720, Note_on_c, 5, 65, 80
11, 270720, Note_on_c, 5, 53, 80
11, 270824, Note_on_c, 5, 65, 0
11, 270824, Note_on_c, 5, 53, 0
11, 270840, Note_on_c, 5, 65, 80
11, 270840, Note_on_c, 5, 53, 80
11, 270959, Note_on_c, 5, 65, 0
11, 270959, Note_on_c, 5, 53, 0
11, 271440, Note_on_c, 5, 53, 80
11, 271440, Note_on_c, 5, 65, 80
11, 271544, Note_on_c, 5, 53, 0
11, 271544, Note_on_c, 5, 65, 0
11, 271560, Note_on_c, 5, 53, 80
11, 271560, Note_on_c, 5, 65, 80
11, 271679, Note_on_c, 5, 53, 0
11, 271679, Note_on_c, 5, 65, 0
11, 272160, Note_on_c, 5, 50, 80
11, 272160, Note_on_c, 5, 62, 80
11, 272324, Note_on_c, 5, 50, 0
11, 272324, Note_on_c, 5, 62, 0
11, 272340, Note_on_c, 5, 62, 80
11, 272340, Note_on_c, 5, 50, 80
11, 272384, Note_on_c, 5, 62, 0
11, 272384, Note_on_c, 5, 50, 0
11, 272400, Note_on_c, 5, 62, 80
11, 272400, Note_on_c, 5, 50, 80
11, 272519, Note_on_c, 5, 62, 0
11, 272519, Note_on_c, 5, 50, 0
11, 272880, Note_on_c, 5, 50, 80
11, 272880, Note_on_c, 5, 62, 80
11, 273044, Note_on_c, 5, 50, 0
11, 273044, Note_on_c, 5, 62, 0
11, 273060, Note_on_c, 5, 62, 80
11, 273060, Note_on_c, 5, 50, 80
11, 273104, Note_on_c, 5, 62, 0
11, 273104, Note_on_c, 5, 50, 0
11, 273120, Note_on_c, 5, 62, 80
11, 273120, Note_on_c, 5, 50, 80
11, 273239, Note_on_c, 5, 62, 0
11, 273239, Note_on_c, 5, 50, 0
11, 275400, Note_on_c, 5, 50, 32
11, 275400, Note_on_c, 5, 62, 32
11, 275564, Note_on_c, 5, 50, 0
11, 275564, Note_on_c, 5, 62, 0
11, 275580, Note_on_c, 5, 50, 32
11, 275580, Note_on_c, 5, 62, 32
11, 275624, Note_on_c, 5, 50, 0
11, 275624, Note_on_c, 5, 62, 0
11, 275640, Note_on_c, 5, 50, 32
11, 275640, Note_on_c, 5, 62, 32
11, 275744, Note_on_c, 5, 50, 0
11, 275744, Note_on_c, 5, 62, 0
11, 275760, Note_on_c, 5, 50, 32
11, 275760, Note_on_c, 5, 62, 32
11, 275879, Note_on_c, 5, 50, 0
11, 275879, Note_on_c, 5, 62, 0
11, 278280, Note_on_c, 5, 50, 40
11, 278280, Note_on_c, 5, 62, 40
11, 278444, Note_on_c, 5, 50, 0
11, 278444, Note_on_c, 5, 62, 0
11, 278460, Note_on_c, 5, 62, 44
11, 278460, Note_on_c, 5, 50, 44
11, 278504, Note_on_c, 5, 62, 0
11, 278504, Note_on_c, 5, 50, 0
11, 278520, Note_on_c, 5, 62, 46
11, 278520, Note_on_c, 5, 50, 46
11, 278624, Note_on_c, 5, 62, 0
11, 278624, Note_on_c, 5, 50, 0
11, 278640, Note_on_c, 5, 50, 49
11, 278640, Note_on_c, 5, 62, 49
11, 278759, Note_on_c, 5, 50, 0
11, 278759, Note_on_c, 5, 62, 0
11, 279000, Note_on_c, 5, 50, 57
11, 279000, Note_on_c, 5, 62, 57
11, 279164, Note_on_c, 5, 50, 0
11, 279164, Note_on_c, 5, 62, 0
11, 279180, Note_on_c, 5, 50, 62
11, 279180, Note_on_c, 5, 62, 62
11, 279224, Note_on_c, 5, 50, 0
11, 279224, Note_on_c, 5, 62, 0
11, 279240, Note_on_c, 5, 50, 63
11, 279240, Note_on_c, 5, 62, 63
11, 279344, Note_on_c, 5, 50, 0
11, 279344, Note_on_c, 5, 62, 0
11, 279360, Note_on_c, 5, 62, 66
11, 279360, Note_on_c, 5, 50, 66
11, 279479, Note_on_c, 5, 62, 0
11, 279479, Note_on_c, 5, 50, 0
11, 279720, Note_on_c, 5, 50, 74
11, 279720, Note_on_c, 5, 62, 74
11, 279884, Note_on_c, 5, 50, 0
11, 279884, Note_on_c, 5, 62, 0
11, 279900, Note_on_c, 5, 50, 79
11, 279900, Note_on_c, 5, 62, 79
11, 279944, Note_on_c, 5, 50, 0
11, 279944, Note_on_c, 5, 62, 0
11, 279960, Note_on_c, 5, 62, 80
11, 279960, Note_on_c, 5, 50, 80
11, 280064, Note_on_c, 5, 62, 0
11, 280064, Note_on_c, 5, 50, 0
11, 280080, Note_on_c, 5, 50, 83
11, 280080, Note_on_c, 5, 62, 83
11, 280199, Note_on_c, 5, 50, 0
11, 280199, Note_on_c, 5, 62, 0
11, 287160, Note_on_c, 5, 62, 80
11, 287264, Note_on_c, 5, 62, 0
11, 287280, Note_on_c, 5, 50, 80
11, 287399, Note_on_c, 5, 50, 0
11, 287880, Note_on_c, 5, 50, 80
11, 287880, Note_on_c, 5, 62, 80
11, 287999, Note_on_c, 5, 50, 0
11, 287999, Note_on_c, 5, 62, 0
11, 361800, Note_on_c, 5, 50, 80
11, 361800, Note_on_c, 5, 62, 80
11, 361860, Control_c, 5, 11, 67
11, 363720, Control_c, 5, 11, 67
11, 363784, Control_c, 5, 11, 68
11, 363848, Control_c, 5, 11, 69
11, 363912, Control_c, 5, 11, 70
11, 363976, Control_c, 5, 11, 71
11, 364040, Control_c, 5, 11, 72
11, 364104, Control_c, 5, 11, 73
11, 364168, Control_c, 5, 11, 74
11, 364232, Control_c, 5, 11, 75
11, 364296, Control_c, 5, 11, 76
11, 364360, Control_c, 5, 11, 77
11, 364424, Control_c, 5, 11, 78
11, 364488, Control_c, 5, 11, 79
11, 364552, Control_c, 5, 11, 80
11, 364616, Control_c, 5, 11, 81
11, 364680, Control_c, 5, 11, 82
11, 364744, Control_c, 5, 11, 83
11, 364808, Control_c, 5, 11, 84
11, 364872, Control_c, 5, 11, 85
11, 364936, Control_c, 5, 11, 86
11, 365000, Control_c, 5, 11, 87
11, 365064, Control_c, 5, 11, 88
11, 365128, Control_c, 5, 11, 89
11, 365192, Control_c, 5, 11, 90
11, 365256, Control_c, 5, 11, 91
11, 365320, Control_c, 5, 11, 92
11, 365384, Control_c, 5, 11, 93
11, 365448, Control_c, 5, 11, 94
11, 365512, Control_c, 5, 11, 95
11, 365576, Control_c, 5, 11, 96
11, 365639, Note_on_c, 5, 50, 0
11, 365639, Note_on_c, 5, 62, 0
11, 365640, Control_c, 5, 11, 97
11, 365640, Note_on_c, 5, 62, 80
11, 365640, Note_on_c, 5, 50, 80
11, 365704, Control_c, 5, 11, 98
11, 365768, Control_c, 5, 11, 99
11, 365832, Control_c, 5, 11, 100
11, 365896, Control_c, 5, 11, 101
11, 365960, Control_c, 5, 11, 102
11, 366024, Control_c, 5, 11, 103
11, 366088, Control_c, 5, 11, 104
11, 366152, Control_c, 5, 11, 105
11, 366216, Control_c, 5, 11, 106
11, 366280, Control_c, 5, 11, 107
11, 366344, Control_c, 5, 11, 108
11, 366408, Control_c, 5, 11, 109
11, 366472, Control_c, 5, 11, 110
11, 366536, Control_c, 5, 11, 111
11, 366600, Control_c, 5, 11, 112
11, 366664, Control_c, 5, 11, 113
11, 366728, Control_c, 5, 11, 114
11, 366792, Control_c, 5, 11, 115
11, 366856, Control_c, 5, 11, 116
11, 366920, Control_c, 5, 11, 117
11, 366984, Control_c, 5, 11, 118
11, 367048, Control_c, 5, 11, 119
11, 367112, Control_c, 5, 11, 120
11, 367176, Control_c, 5, 11, 121
11, 367240, Control_c, 5, 11, 122
11, 367304, Control_c, 5, 11, 123
11, 367368, Control_c, 5, 11, 124
11, 367432, Control_c, 5, 11, 125
11, 367496, Control_c, 5, 11, 127
11, 368520, Control_c, 5, 11, 127
11, 368560, Control_c, 5, 11, 125
11, 368600, Control_c, 5, 11, 122
11, 368640, Control_c, 5, 11, 120
11, 368680, Control_c, 5, 11, 117
11, 368720, Control_c, 5, 11, 115
11, 368760, Control_c, 5, 11, 112
11, 368800, Control_c, 5, 11, 110
11, 368840, Control_c, 5, 11, 107
11, 368880, Control_c, 5, 11, 105
11, 368920, Control_c, 5, 11, 102
11, 368960, Control_c, 5, 11, 100
11, 369000, Control_c, 5, 11, 97
11, 369040, Control_c, 5, 11, 95
11, 369080, Control_c, 5, 11, 92
11, 369120, Control_c, 5, 11, 90
11, 369160, Control_c, 5, 11, 87
11, 369200, Control_c, 5, 11, 85
11, 369240, Control_c, 5, 11, 82
11, 369280, Control_c, 5, 11, 80
11, 369320, Control_c, 5, 11, 77
11, 369360, Control_c, 5, 11, 75
11, 369400, Control_c, 5, 11, 72
11, 369440, Control_c, 5, 11, 70
11, 369478, Control_c, 5, 11, 67
11, 369599, Note_on_c, 5, 62, 0
11, 369599, Note_on_c, 5, 50, 0
11, 369718, Control_c, 5, 11, 47
11, 369720, Note_on_c, 5, 50, 92
11, 369720, Note_on_c, 5, 62, 92
11, 369720, Control_c, 5, 11, 47
11, 369765, Control_c, 5, 11, 48
11, 369810, Control_c, 5, 11, 49
11, 369855, Control_c, 5, 11, 50
11, 369900, Control_c, 5, 11, 51
11, 369945, Control_c, 5, 11, 52
11, 369990, Control_c, 5, 11, 53
11, 370035, Control_c, 5, 11, 54
11, 370080, Control_c, 5, 11, 55
11, 370125, Control_c, 5, 11, 56
11, 370170, Control_c, 5, 11, 57
11, 370215, Control_c, 5, 11, 58
11, 370260, Control_c, 5, 11, 59
11, 370305, Control_c, 5, 11, 60
11, 370350, Control_c, 5, 11, 61
11, 370395, Control_c, 5, 11, 62
11, 370440, Control_c, 5, 11, 63
11, 370485, Control_c, 5, 11, 64
11, 370530, Control_c, 5, 11, 65
11, 370575, Control_c, 5, 11, 66
11, 370620, Control_c, 5, 11, 67
11, 370659, Note_on_c, 5, 50, 0
11, 370659, Note_on_c, 5, 62, 0
11, 370665, Control_c, 5, 11, 68
11, 370680, Note_on_c, 5, 50, 92
11, 370680, Note_on_c, 5, 62, 92
11, 370710, Control_c, 5, 11, 69
11, 370755, Control_c, 5, 11, 70
11, 370800, Control_c, 5, 11, 71
11, 370845, Control_c, 5, 11, 72
11, 370890, Control_c, 5, 11, 73
11, 370935, Control_c, 5, 11, 74
11, 370980, Control_c, 5, 11, 75
11, 371025, Control_c, 5, 11, 76
11, 371070, Control_c, 5, 11, 77
11, 371115, Control_c, 5, 11, 78
11, 371160, Control_c, 5, 11, 79
11, 371205, Control_c, 5, 11, 80
11, 371250, Control_c, 5, 11, 81
11, 371295, Control_c, 5, 11, 82
11, 371340, Control_c, 5, 11, 83
11, 371385, Control_c, 5, 11, 84
11, 371430, Control_c, 5, 11, 85
11, 371475, Control_c, 5, 11, 86
11, 371520, Control_c, 5, 11, 87
11, 371565, Control_c, 5, 11, 88
11, 371610, Control_c, 5, 11, 89
11, 371619, Note_on_c, 5, 50, 0
11, 371619, Note_on_c, 5, 62, 0
11, 371640, Note_on_c, 5, 62, 92
11, 371640, Note_on_c, 5, 50, 92
11, 371655, Control_c, 5, 11, 90
11, 371700, Control_c, 5, 11, 91
11, 371745, Control_c, 5, 11, 92
11, 371790, Control_c, 5, 11, 93
11, 371835, Control_c, 5, 11, 94
11, 371880, Control_c, 5, 11, 95
11, 371925, Control_c, 5, 11, 96
11, 371970, Control_c, 5, 11, 97
11, 372015, Control_c, 5, 11, 98
11, 372060, Control_c, 5, 11, 99
11, 372105, Control_c, 5, 11, 100
11, 372150, Control_c, 5, 11, 101
11, 372195, Control_c, 5, 11, 102
11, 372240, Control_c, 5, 11, 103
11, 372285, Control_c, 5, 11, 104
11, 372330, Control_c, 5, 11, 105
11, 372375, Control_c, 5, 11, 106
11, 372420, Control_c, 5, 11, 107
11, 372465, Control_c, 5, 11, 108
11, 372510, Control_c, 5, 11, 109
11, 372555, Control_c, 5, 11, 110
11, 372579, Note_on_c, 5, 62, 0
11, 372579, Note_on_c, 5, 50, 0
11, 372600, Note_on_c, 5, 62, 92
11, 372600, Note_on_c, 5, 50, 92
11, 372600, Control_c, 5, 11, 111
11, 372645, Control_c, 5, 11, 112
11, 372690, Control_c, 5, 11, 113
11, 372735, Control_c, 5, 11, 114
11, 372780, Control_c, 5, 11, 115
11, 372825, Control_c, 5, 11, 116
11, 372870, Control_c, 5, 11, 117
11, 372915, Control_c, 5, 11, 118
11, 372960, Control_c, 5, 11, 119
11, 373005, Control_c, 5, 11, 120
11, 373050, Control_c, 5, 11, 121
11, 373095, Control_c, 5, 11, 122
11, 373140, Control_c, 5, 11, 123
11, 373185, Control_c, 5, 11, 124
11, 373230, Control_c, 5, 11, 125
11, 373275, Control_c, 5, 11, 127
11, 373299, Note_on_c, 5, 62, 0
11, 373299, Note_on_c, 5, 50, 0
11, 373320, Note_on_c, 5, 50, 92
11, 373320, Note_on_c, 5, 62, 92
11, 373499, Note_on_c, 5, 50, 0
11, 373499, Note_on_c, 5, 62, 0
11, 373560, Note_on_c, 5, 62, 92
11, 373560, Note_on_c, 5, 50, 92
11, 373739, Note_on_c, 5, 62, 0
11, 373739, Note_on_c, 5, 50, 0
11, 374280, Note_on_c, 5, 62, 92
11, 374280, Note_on_c, 5, 50, 92
11, 374342, Control_c, 5, 11, 126
11, 374405, Control_c, 5, 11, 125
11, 374459, Note_on_c, 5, 62, 0
11, 374459, Note_on_c, 5, 50, 0
11, 374467, Control_c, 5, 11, 124
11, 374520, Note_on_c, 5, 50, 92
11, 374520, Note_on_c, 5, 62, 92
11, 374530, Control_c, 5, 11, 123
11, 374592, Control_c, 5, 11, 122
11, 374654, Control_c, 5, 11, 121
11, 374699, Note_on_c, 5, 50, 0
11, 374699, Note_on_c, 5, 62, 0
11, 374717, Control_c, 5, 11, 120
11, 374779, Control_c, 5, 11, 119
11, 374842, Control_c, 5, 11, 118
11, 374904, Control_c, 5, 11, 117
11, 374966, Control_c, 5, 11, 116
11, 375029, Control_c, 5, 11, 115
11, 375091, Control_c, 5, 11, 114
11, 375154, Control_c, 5, 11, 113
11, 375216, Control_c, 5, 11, 112
11, 375240, Note_on_c, 5, 62, 92
11, 375240, Note_on_c, 5, 50, 92
11, 375278, Control_c, 5, 11, 111
11, 375341, Control_c, 5, 11, 110
11, 375403, Control_c, 5, 11, 109
11, 375419, Note_on_c, 5, 62, 0
11, 375419, Note_on_c, 5, 50, 0
11, 375466, Control_c, 5, 11, 108
11, 375480, Note_on_c, 5, 62, 92
11, 375480, Note_on_c, 5, 50, 92
11, 375528, Control_c, 5, 11, 107
11, 375590, Control_c, 5, 11, 106
11, 375653, Control_c, 5, 11, 105
11, 375659, Note_on_c, 5, 62, 0
11, 375659, Note_on_c, 5, 50, 0
11, 375715, Control_c, 5, 11, 104
11, 375778, Control_c, 5, 11, 103
11, 375840, Control_c, 5, 11, 102
11, 375902, Control_c, 5, 11, 101
11, 375965, Control_c, 5, 11, 100
11, 376027, Control_c, 5, 11, 99
11, 376090, Control_c, 5, 11, 98
11, 376152, Control_c, 5, 11, 97
11, 376200, Note_on_c, 5, 62, 92
11, 376200, Note_on_c, 5, 50, 92
11, 376214, Control_c, 5, 11, 96
11, 376277, Control_c, 5, 11, 95
11, 376339, Control_c, 5, 11, 94
11, 376379, Note_on_c, 5, 62, 0
11, 376379, Note_on_c, 5, 50, 0
11, 376402, Control_c, 5, 11, 93
11, 376440, Note_on_c, 5, 62, 92
11, 376440, Note_on_c, 5, 50, 92
11, 376464, Control_c, 5, 11, 92
11, 376526, Control_c, 5, 11, 91
11, 376589, Control_c, 5, 11, 90
11, 376619, Note_on_c, 5, 62, 0
11, 376619, Note_on_c, 5, 50, 0
11, 376651, Control_c, 5, 11, 89
11, 376714, Control_c, 5, 11, 88
11, 376776, Control_c, 5, 11, 87
11, 376838, Control_c, 5, 11, 86
11, 376901, Control_c, 5, 11, 85
11, 376963, Control_c, 5, 11, 84
11, 377026, Control_c, 5, 11, 83
11, 377088, Control_c, 5, 11, 82
11, 377150, Control_c, 5, 11, 81
11, 377160, Note_on_c, 5, 50, 92
11, 377160, Note_on_c, 5, 62, 92
11, 377213, Control_c, 5, 11, 80
11, 377275, Control_c, 5, 11, 79
11, 377338, Control_c, 5, 11, 78
11, 377400, Control_c, 5, 11, 77
11, 377462, Control_c, 5, 11, 76
11, 377525, Control_c, 5, 11, 75
11, 377587, Control_c, 5, 11, 74
11, 377650, Control_c, 5, 11, 73
11, 377712, Control_c, 5, 11, 72
11, 377774, Control_c, 5, 11, 71
11, 377837, Control_c, 5, 11, 70
11, 377899, Control_c, 5, 11, 69
11, 377962, Control_c, 5, 11, 68
11, 378024, Control_c, 5, 11, 67
11, 378086, Control_c, 5, 11, 66
11, 378149, Control_c, 5, 11, 65
11, 378211, Control_c, 5, 11, 64
11, 378274, Control_c, 5, 11, 63
11, 378336, Control_c, 5, 11, 62
11, 378398, Control_c, 5, 11, 61
11, 378461, Control_c, 5, 11, 60
11, 378523, Control_c, 5, 11, 59
11, 378586, Control_c, 5, 11, 58
11, 378648, Control_c, 5, 11, 57
11, 378710, Control_c, 5, 11, 56
11, 378773, Control_c, 5, 11, 55
11, 378835, Control_c, 5, 11, 54
11, 378898, Control_c, 5, 11, 53
11, 378960, Control_c, 5, 11, 52
11, 379022, Control_c, 5, 11, 51
11, 379085, Control_c, 5, 11, 50
11, 379147, Control_c, 5, 11, 49
11, 379210, Control_c, 5, 11, 48
11, 379272, Control_c, 5, 11, 47
11, 379334, Control_c, 5, 11, 46
11, 379397, Control_c, 5, 11, 45
11, 379459, Control_c, 5, 11, 44
11, 379522, Control_c, 5, 11, 43
11, 379584, Control_c, 5, 11, 42
11, 379646, Control_c, 5, 11, 41
11, 379709, Control_c, 5, 11, 40
11, 379771, Control_c, 5, 11, 39
11, 379834, Control_c, 5, 11, 38
11, 379896, Control_c, 5, 11, 37
11, 379958, Control_c, 5, 11, 36
11, 380021, Control_c, 5, 11, 35
11, 380083, Control_c, 5, 11, 34
11, 380146, Control_c, 5, 11, 33
11, 380208, Control_c, 5, 11, 32
11, 380270, Control_c, 5, 11, 31
11, 380333, Control_c, 5, 11, 30
11, 380395, Control_c, 5, 11, 29
11, 380458, Control_c, 5, 11, 28
11, 381209, Note_on_c, 5, 50, 0
11, 381209, Note_on_c, 5, 62, 0
11, 381600, Control_c, 5, 11, 127
11, 383040, Note_on_c, 5, 62, 92
11, 383204, Note_on_c, 5, 62, 0
11, 383220, Note_on_c, 5, 50, 92
11, 383264, Note_on_c, 5, 50, 0
11, 383280, Note_on_c, 5, 50, 92
11, 383399, Note_on_c, 5, 50, 0
11, 388440, Note_on_c, 5, 65, 32
11, 388559, Note_on_c, 5, 65, 0
11, 388800, Note_on_c, 5, 60, 32
11, 388919, Note_on_c, 5, 60, 0
11, 390960, Note_on_c, 5, 53, 32
11, 390960, Note_on_c, 5, 41, 32
11, 391079, Note_on_c, 5, 53, 0
11, 391079, Note_on_c, 5, 41, 0
11, 391320, Note_on_c, 5, 53, 32
11, 391320, Note_on_c, 5, 41, 32
11, 391439, Note_on_c, 5, 53, 0
11, 391439, Note_on_c, 5, 41, 0
11, 396240, Note_on_c, 5, 53, 32
11, 396240, Note_on_c, 5, 65, 32
11, 396359, Note_on_c, 5, 53, 0
11, 396359, Note_on_c, 5, 65, 0
11, 396720, Note_on_c, 5, 50, 32
11, 396720, Note_on_c, 5, 62, 32
11, 396839, Note_on_c, 5, 50, 0
11, 396839, Note_on_c, 5, 62, 0
11, 396960, Note_on_c, 5, 65, 32
11, 396960, Note_on_c, 5, 53, 32
11, 397064, Note_on_c, 5, 65, 0
11, 397064, Note_on_c, 5, 53, 0
11, 397440, Note_on_c, 5, 50, 37
11, 397440, Note_on_c, 5, 62, 37
11, 397559, Note_on_c, 5, 50, 0
11, 397559, Note_on_c, 5, 62, 0
11, 397680, Note_on_c, 5, 65, 40
11, 397680, Note_on_c, 5, 53, 40
11, 397799, Note_on_c, 5, 65, 0
11, 397799, Note_on_c, 5, 53, 0
11, 398160, Note_on_c, 5, 62, 47
11, 398160, Note_on_c, 5, 50, 47
11, 398279, Note_on_c, 5, 62, 0
11, 398279, Note_on_c, 5, 50, 0
11, 398400, Note_on_c, 5, 53, 50
11, 398400, Note_on_c, 5, 65, 50
11, 398519, Note_on_c, 5, 53, 0
11, 398519, Note_on_c, 5, 65, 0
11, 398880, Note_on_c, 5, 62, 57
11, 398880, Note_on_c, 5, 50, 57
11, 398999, Note_on_c, 5, 62, 0
11, 398999, Note_on_c, 5, 50, 0
11, 399120, Note_on_c, 5, 65, 60
11, 399120, Note_on_c, 5, 53, 60
11, 399239, Note_on_c, 5, 65, 0
11, 399239, Note_on_c, 5, 53, 0
11, 399600, Note_on_c, 5, 62, 67
11, 399600, Note_on_c, 5, 50, 67
11, 399719, Note_on_c, 5, 62, 0
11, 399719, Note_on_c, 5, 50, 0
11, 399840, Note_on_c, 5, 53, 70
11, 399840, Note_on_c, 5, 65, 70
11, 399959, Note_on_c, 5, 53, 0
11, 399959, Note_on_c, 5, 65, 0
11, 400320, Note_on_c, 5, 62, 77
11, 400320, Note_on_c, 5, 50, 77
11, 400439, Note_on_c, 5, 62, 0
11, 400439, Note_on_c, 5, 50, 0
11, 400560, Note_on_c, 5, 53, 80
11, 400560, Note_on_c, 5, 65, 80
11, 400679, Note_on_c, 5, 53, 0
11, 400679, Note_on_c, 5, 65, 0
11, 400800, Note_on_c, 5, 53, 83
11, 400800, Note_on_c, 5, 65, 83
11, 400919, Note_on_c, 5, 53, 0
11, 400919, Note_on_c, 5, 65, 0
11, 401400, Note_on_c, 5, 62, 92
11, 401400, Note_on_c, 5, 50, 92
11, 401504, Note_on_c, 5, 62, 0
11, 401504, Note_on_c, 5, 50, 0
11, 401520, Note_on_c, 5, 50, 92
11, 401520, Note_on_c, 5, 62, 92
11, 401624, Note_on_c, 5, 50, 0
11, 401624, Note_on_c, 5, 62, 0
11, 401640, Note_on_c, 5, 50, 92
11, 401640, Note_on_c, 5, 62, 92
11, 401744, Note_on_c, 5, 50, 0
11, 401744, Note_on_c, 5, 62, 0
11, 401760, Note_on_c, 5, 62, 92
11, 401760, Note_on_c, 5, 50, 92
11, 401864, Note_on_c, 5, 62, 0
11, 401864, Note_on_c, 5, 50, 0
11, 401880, Note_on_c, 5, 50, 92
11, 401880, Note_on_c, 5, 62, 92
11, 401984, Note_on_c, 5, 50, 0
11, 401984, Note_on_c, 5, 62, 0
11, 402000, Note_on_c, 5, 62, 92
11, 402000, Note_on_c, 5, 50, 92
11, 402119, Note_on_c, 5, 62, 0
11, 402119, Note_on_c, 5, 50, 0
11, 402480, Note_on_c, 5, 50, 92
11, 402480, Note_on_c, 5, 62, 92
11, 402584, Note_on_c, 5, 50, 0
11, 402584, Note_on_c, 5, 62, 0
11, 402600, Note_on_c, 5, 50, 92
11, 402600, Note_on_c, 5, 62, 92
11, 402704, Note_on_c, 5, 50, 0
11, 402704, Note_on_c, 5, 62, 0
11, 402720, Note_on_c, 5, 50, 92
11, 402720, Note_on_c, 5, 62, 92
11, 402824, Note_on_c, 5, 50, 0
11, 402824, Note_on_c, 5, 62, 0
11, 402840, Note_on_c, 5, 50, 80
11, 402840, Note_on_c, 5, 62, 80
11, 402944, Note_on_c, 5, 50, 0
11, 402944, Note_on_c, 5, 62, 0
11, 402960, Note_on_c, 5, 62, 80
11, 402960, Note_on_c, 5, 50, 80
11, 403064, Note_on_c, 5, 62, 0
11, 403064, Note_on_c, 5, 50, 0
11, 403080, Note_on_c, 5, 50, 80
11, 403080, Note_on_c, 5, 62, 80
11, 403184, Note_on_c, 5, 50, 0
11, 403184, Note_on_c, 5, 62, 0
11, 403200, Note_on_c, 5, 65, 80
11, 403200, Note_on_c, 5, 53, 80
11, 403304, Note_on_c, 5, 65, 0
11, 403304, Note_on_c, 5, 53, 0
11, 403320, Note_on_c, 5, 53, 80
11, 403320, Note_on_c, 5, 65, 80
11, 403424, Note_on_c, 5, 53, 0
11, 403424, Note_on_c, 5, 65, 0
11, 403440, Note_on_c, 5, 53, 80
11, 403440, Note_on_c, 5, 65, 80
11, 403544, Note_on_c, 5, 53, 0
11, 403544, Note_on_c, 5, 65, 0
11, 403920, Note_on_c, 5, 53, 80
11, 403920, Note_on_c, 5, 65, 80
11, 404039, Note_on_c, 5, 53, 0
11, 404039, Note_on_c, 5, 65, 0
11, 404160, Note_on_c, 5, 65, 80
11, 404160, Note_on_c, 5, 53, 80
11, 404264, Note_on_c, 5, 65, 0
11, 404264, Note_on_c, 5, 53, 0
11, 404280, Note_on_c, 5, 62, 80
11, 404280, Note_on_c, 5, 50, 80
11, 404384, Note_on_c, 5, 62, 0
11, 404384, Note_on_c, 5, 50, 0
11, 404400, Note_on_c, 5, 62, 80
11, 404400, Note_on_c, 5, 50, 80
11, 404504, Note_on_c, 5, 62, 0
11, 404504, Note_on_c, 5, 50, 0
11, 404520, Note_on_c, 5, 62, 80
11, 404520, Note_on_c, 5, 50, 80
11, 404624, Note_on_c, 5, 62, 0
11, 404624, Note_on_c, 5, 50, 0
11, 404640, Note_on_c, 5, 53, 80
11, 404640, Note_on_c, 5, 65, 80
11, 404744, Note_on_c, 5, 53, 0
11, 404744, Note_on_c, 5, 65, 0
11, 404760, Note_on_c, 5, 65, 80
11, 404760, Note_on_c, 5, 53, 80
11, 404864, Note_on_c, 5, 65, 0
11, 404864, Note_on_c, 5, 53, 0
11, 404880, Note_on_c, 5, 53, 80
11, 404880, Note_on_c, 5, 65, 80
11, 404984, Note_on_c, 5, 53, 0
11, 404984, Note_on_c, 5, 65, 0
11, 405360, Note_on_c, 5, 62, 80
11, 405360, Note_on_c, 5, 50, 80
11, 405464, Note_on_c, 5, 62, 0
11, 405464, Note_on_c, 5, 50, 0
11, 405480, Note_on_c, 5, 62, 80
11, 405480, Note_on_c, 5, 50, 80
11, 405584, Note_on_c, 5, 62, 0
11, 405584, Note_on_c, 5, 50, 0
11, 405600, Note_on_c, 5, 62, 80
11, 405600, Note_on_c, 5, 50, 80
11, 405704, Note_on_c, 5, 62, 0
11, 405704, Note_on_c, 5, 50, 0
11, 405720, Note_on_c, 5, 62, 80
11, 405720, Note_on_c, 5, 50, 80
11, 405824, Note_on_c, 5, 62, 0
11, 405824, Note_on_c, 5, 50, 0
11, 405840, Note_on_c, 5, 62, 80
11, 405840, Note_on_c, 5, 50, 80
11, 405944, Note_on_c, 5, 62, 0
11, 405944, Note_on_c, 5, 50, 0
11, 405960, Note_on_c, 5, 50, 80
11, 405960, Note_on_c, 5, 62, 80
11, 406064, Note_on_c, 5, 50, 0
11, 406064, Note_on_c, 5, 62, 0
11, 406080, Note_on_c, 5, 60, 80
11, 406184, Note_on_c, 5, 60, 0
11, 406920, Note_on_c, 5, 62, 80
11, 406920, Note_on_c, 5, 50, 80
11, 407024, Note_on_c, 5, 62, 0
11, 407024, Note_on_c, 5, 50, 0
11, 407040, Note_on_c, 5, 50, 80
11, 407040, Note_on_c, 5, 62, 80
11, 407144, Note_on_c, 5, 50, 0
11, 407144, Note_on_c, 5, 62, 0
11, 407160, Note_on_c, 5, 50, 80
11, 407160, Note_on_c, 5, 62, 80
11, 407264, Note_on_c, 5, 50, 0
11, 407264, Note_on_c, 5, 62, 0
11, 407280, Note_on_c, 5, 50, 80
11, 407280, Note_on_c, 5, 62, 80
11, 407384, Note_on_c, 5, 50, 0
11, 407384, Note_on_c, 5, 62, 0
11, 407400, Note_on_c, 5, 50, 80
11, 407400, Note_on_c, 5, 62, 80
11, 407504, Note_on_c, 5, 50, 0
11, 407504, Note_on_c, 5, 62, 0
11, 407520, Note_on_c, 5, 60, 80
11, 407639, Note_on_c, 5, 60, 0
11, 407880, Note_on_c, 5, 60, 80
11, 407999, Note_on_c, 5, 60, 0
11, 408240, Note_on_c, 5, 60, 80
11, 408359, Note_on_c, 5, 60, 0
11, 414360, Note_on_c, 5, 60, 92
11, 414704, Note_on_c, 5, 60, 0
11, 414720, Note_on_c, 5, 53, 92
11, 414720, Note_on_c, 5, 65, 92
11, 414839, Note_on_c, 5, 53, 0
11, 414839, Note_on_c, 5, 65, 0
11, 414960, Note_on_c, 5, 60, 92
11, 415064, Note_on_c, 5, 60, 0
11, 415080, Note_on_c, 5, 53, 92
11, 415080, Note_on_c, 5, 65, 92
11, 415199, Note_on_c, 5, 53, 0
11, 415199, Note_on_c, 5, 65, 0
11, 415320, Note_on_c, 5, 60, 92
11, 415424, Note_on_c, 5, 60, 0
11, 415440, Note_on_c, 5, 53, 92
11, 415440, Note_on_c, 5, 65, 92
11, 415559, Note_on_c, 5, 53, 0
11, 415559, Note_on_c, 5, 65, 0
11, 415680, Note_on_c, 5, 65, 92
11, 415784, Note_on_c, 5, 65, 0
11, 415800, Note_on_c, 5, 60, 92
11, 416144, Note_on_c, 5, 60, 0
11, 416160, Note_on_c, 5, 65, 92
11, 416160, Note_on_c, 5, 53, 92
11, 416279, Note_on_c, 5, 65, 0
11, 416279, Note_on_c, 5, 53, 0
11, 416400, Note_on_c, 5, 60, 92
11, 416504, Note_on_c, 5, 60, 0
11, 416520, Note_on_c, 5, 65, 92
11, 416520, Note_on_c, 5, 53, 92
11, 416639, Note_on_c, 5, 65, 0
11, 416639, Note_on_c, 5, 53, 0
11, 416760, Note_on_c, 5, 60, 92
11, 416864, Note_on_c, 5, 60, 0
11, 416880, Note_on_c, 5, 53, 92
11, 416880, Note_on_c, 5, 65, 92
11, 416999, Note_on_c, 5, 53, 0
11, 416999, Note_on_c, 5, 65, 0
11, 417120, Note_on_c, 5, 65, 92
11, 417224, Note_on_c, 5, 65, 0
11, 417240, Note_on_c, 5, 60, 92
11, 417344, Note_on_c, 5, 60, 0
11, 417360, Note_on_c, 5, 60, 92
11, 417464, Note_on_c, 5, 60, 0
11, 417480, Note_on_c, 5, 60, 92
11, 417584, Note_on_c, 5, 60, 0
11, 417600, Note_on_c, 5, 65, 92
11, 417704, Note_on_c, 5, 65, 0
11, 417720, Note_on_c, 5, 65, 92
11, 417824, Note_on_c, 5, 65, 0
11, 417840, Note_on_c, 5, 60, 92
11, 417944, Note_on_c, 5, 60, 0
11, 417960, Note_on_c, 5, 65, 92
11, 418064, Note_on_c, 5, 65, 0
11, 418080, Note_on_c, 5, 65, 92
11, 418184, Note_on_c, 5, 65, 0
11, 418200, Note_on_c, 5, 60, 92
11, 418304, Note_on_c, 5, 60, 0
11, 418320, Note_on_c, 5, 65, 92
11, 418424, Note_on_c, 5, 65, 0
11, 418440, Note_on_c, 5, 65, 92
11, 418544, Note_on_c, 5, 65, 0
11, 418560, Note_on_c, 5, 65, 92
11, 418664, Note_on_c, 5, 65, 0
11, 418680, Note_on_c, 5, 60, 92
11, 418784, Note_on_c, 5, 60, 0
11, 418800, Note_on_c, 5, 60, 92
11, 418904, Note_on_c, 5, 60, 0
11, 418920, Note_on_c, 5, 60, 92
11, 419024, Note_on_c, 5, 60, 0
11, 419040, Note_on_c, 5, 65, 92
11, 419144, Note_on_c, 5, 65, 0
11, 419160, Note_on_c, 5, 65, 92
11, 419264, Note_on_c, 5, 65, 0
11, 419280, Note_on_c, 5, 60, 92
11, 419384, Note_on_c, 5, 60, 0
11, 419400, Note_on_c, 5, 65, 92
11, 419504, Note_on_c, 5, 65, 0
11, 419520, Note_on_c, 5, 65, 92
11, 419624, Note_on_c, 5, 65, 0
11, 419640, Note_on_c, 5, 60, 92
11, 419744, Note_on_c, 5, 60, 0
11, 419760, Note_on_c, 5, 65, 92
11, 419864, Note_on_c, 5, 65, 0
11, 419880, Note_on_c, 5, 65, 92
11, 419984, Note_on_c, 5, 65, 0
11, 420000, Note_on_c, 5, 60, 92
11, 420104, Note_on_c, 5, 60, 0
11, 420120, Note_on_c, 5, 60, 92
11, 420284, Note_on_c, 5, 60, 0
11, 420300, Note_on_c, 5, 60, 92
11, 420344, Note_on_c, 5, 60, 0
11, 420360, Note_on_c, 5, 60, 92
11, 420464, Note_on_c, 5, 60, 0
11, 420480, Note_on_c, 5, 60, 92
11, 420599, Note_on_c, 5, 60, 0
11, 420840, Note_on_c, 5, 65, 92
11, 420840, Note_on_c, 5, 53, 92
11, 421004, Note_on_c, 5, 65, 0
11, 421004, Note_on_c, 5, 53, 0
11, 421020, Note_on_c, 5, 41, 92
11, 421020, Note_on_c, 5, 53, 92
11, 421064, Note_on_c, 5, 41, 0
11, 421064, Note_on_c, 5, 53, 0
11, 421080, Note_on_c, 5, 41, 92
11, 421080, Note_on_c, 5, 53, 92
11, 421184, Note_on_c, 5, 41, 0
11, 421184, Note_on_c, 5, 53, 0
11, 421200, Note_on_c, 5, 53, 92
11, 421200, Note_on_c, 5, 65, 92
11, 421319, Note_on_c, 5, 53, 0
11, 421319, Note_on_c, 5, 65, 0
11, 422640, Control_c, 5, 11, 87
11, 423000, Note_on_c, 5, 60, 68
11, 423720, Control_c, 5, 11, 87
11, 423750, Control_c, 5, 11, 89
11, 423780, Control_c, 5, 11, 90
11, 423810, Control_c, 5, 11, 92
11, 423840, Control_c, 5, 11, 94
11, 423870, Control_c, 5, 11, 95
11, 423900, Control_c, 5, 11, 97
11, 423930, Control_c, 5, 11, 99
11, 423960, Control_c, 5, 11, 100
11, 423990, Control_c, 5, 11, 102
11, 424020, Control_c, 5, 11, 104
11, 424050, Control_c, 5, 11, 105
11, 424080, Control_c, 5, 11, 107
11, 424110, Control_c, 5, 11, 109
11, 424140, Control_c, 5, 11, 110
11, 424170, Control_c, 5, 11, 112
11, 424200, Control_c, 5, 11, 114
11, 424230, Control_c, 5, 11, 115
11, 424260, Control_c, 5, 11, 117
11, 424290, Control_c, 5, 11, 119
11, 424320, Control_c, 5, 11, 120
11, 424350, Control_c, 5, 11, 122
11, 424380, Control_c, 5, 11, 124
11, 424410, Control_c, 5, 11, 125
11, 424440, Control_c, 5, 11, 127
11, 424470, Control_c, 5, 11, 125
11, 424500, Control_c, 5, 11, 124
11, 424530, Control_c, 5, 11, 122
11, 424560, Control_c, 5, 11, 120
11, 424590, Control_c, 5, 11, 119
11, 424620, Control_c, 5, 11, 117
11, 424650, Control_c, 5, 11, 115
11, 424680, Control_c, 5, 11, 114
11, 424710, Control_c, 5, 11, 112
11, 424740, Control_c, 5, 11, 110
11, 424770, Control_c, 5, 11, 109
11, 424800, Control_c, 5, 11, 107
11, 424830, Control_c, 5, 11, 105
11, 424860, Control_c, 5, 11, 104
11, 424890, Control_c, 5, 11, 102
11, 424920, Control_c, 5, 11, 100
11, 424950, Control_c, 5, 11, 99
11, 424980, Control_c, 5, 11, 97
11, 425010, Control_c, 5, 11, 95
11, 425040, Control_c, 5, 11, 94
11, 425070, Control_c, 5, 11, 92
11, 425100, Control_c, 5, 11, 90
11, 425130, Control_c, 5, 11, 89
11, 425144, Note_on_c, 5, 60, 0
11, 426240, Control_c, 5, 11, 127
11, 426600, Note_on_c, 5, 60, 80
11, 426704, Note_on_c, 5, 60, 0
11, 426720, Note_on_c, 5, 60, 80
11, 426824, Note_on_c, 5, 60, 0
11, 426840, Note_on_c, 5, 60, 80
11, 426944, Note_on_c, 5, 60, 0
11, 426960, Note_on_c, 5, 62, 80
11, 426960, Note_on_c, 5, 50, 80
11, 427064, Note_on_c, 5, 62, 0
11, 427064, Note_on_c, 5, 50, 0
11, 427080, Note_on_c, 5, 50, 80
11, 427080, Note_on_c, 5, 62, 80
11, 427184, Note_on_c, 5, 50, 0
11, 427184, Note_on_c, 5, 62, 0
11, 427200, Note_on_c, 5, 50, 80
11, 427200, Note_on_c, 5, 62, 80
11, 427304, Note_on_c, 5, 50, 0
11, 427304, Note_on_c, 5, 62, 0
11, 427320, Note_on_c, 5, 60, 80
11, 427439, Note_on_c, 5, 60, 0
11, 428040, Note_on_c, 5, 60, 80
11, 428144, Note_on_c, 5, 60, 0
11, 428160, Note_on_c, 5, 60, 80
11, 428264, Note_on_c, 5, 60, 0
11, 428280, Note_on_c, 5, 60, 80
11, 428384, Note_on_c, 5, 60, 0
11, 428400, Note_on_c, 5, 50, 80
11, 428400, Note_on_c, 5, 62, 80
11, 428504, Note_on_c, 5, 50, 0
11, 428504, Note_on_c, 5, 62, 0
11, 428520, Note_on_c, 5, 62, 80
11, 428520, Note_on_c, 5, 50, 80
11, 428624, Note_on_c, 5, 62, 0
11, 428624, Note_on_c, 5, 50, 0
11, 428640, Note_on_c, 5, 50, 80
11, 428640, Note_on_c, 5, 62, 80
11, 428744, Note_on_c, 5, 50, 0
11, 428744, Note_on_c, 5, 62, 0
11, 428760, Note_on_c, 5, 60, 80
11, 428879, Note_on_c, 5, 60, 0
11, 429480, Note_on_c, 5, 60, 80
11, 429599, Note_on_c, 5, 60, 0
11, 430200, Note_on_c, 5, 60, 80
11, 430319, Note_on_c, 5, 60, 0
11, 433080, Note_on_c, 5, 53, 32
11, 433244, Note_on_c, 5, 53, 0
11, 433260, Note_on_c, 5, 53, 32
11, 433304, Note_on_c, 5, 53, 0
11, 433320, Note_on_c, 5, 53, 32
11, 433424, Note_on_c, 5, 53, 0
11, 433440, Note_on_c, 5, 50, 32
11, 433559, Note_on_c, 5, 50, 0
11, 439560, Note_on_c, 5, 65, 32
11, 439679, Note_on_c, 5, 65, 0
11, 439920, Note_on_c, 5, 60, 32
11, 440039, Note_on_c, 5, 60, 0
11, 442080, Note_on_c, 5, 41, 32
11, 442080, Note_on_c, 5, 53, 32
11, 442199, Note_on_c, 5, 41, 0
11, 442199, Note_on_c, 5, 53, 0
11, 442440, Note_on_c, 5, 41, 32
11, 442440, Note_on_c, 5, 53, 32
11, 442559, Note_on_c, 5, 41, 0
11, 442559, Note_on_c, 5, 53, 0
11, 447360, Note_on_c, 5, 65, 32
11, 447360, Note_on_c, 5, 53, 32
11, 447479, Note_on_c, 5, 65, 0
11, 447479, Note_on_c, 5, 53, 0
11, 447840, Note_on_c, 5, 62, 32
11, 447840, Note_on_c, 5, 50, 32
11, 447959, Note_on_c, 5, 62, 0
11, 447959, Note_on_c, 5, 50, 0
11, 448080, Note_on_c, 5, 65, 32
11, 448080, Note_on_c, 5, 53, 32
11, 448184, Note_on_c, 5, 65, 0
11, 448184, Note_on_c, 5, 53, 0
11, 448560, Note_on_c, 5, 62, 37
11, 448560, Note_on_c, 5, 50, 37
11, 448679, Note_on_c, 5, 62, 0
11, 448679, Note_on_c, 5, 50, 0
11, 448800, Note_on_c, 5, 53, 40
11, 448800, Note_on_c, 5, 65, 40
11, 448919, Note_on_c, 5, 53, 0
11, 448919, Note_on_c, 5, 65, 0
11, 449280, Note_on_c, 5, 50, 47
11, 449280, Note_on_c, 5, 62, 47
11, 449399, Note_on_c, 5, 50, 0
11, 449399, Note_on_c, 5, 62, 0
11, 449520, Note_on_c, 5, 65, 50
11, 449520, Note_on_c, 5, 53, 50
11, 449639, Note_on_c, 5, 65, 0
11, 449639, Note_on_c, 5, 53, 0
11, 450000, Note_on_c, 5, 62, 57
11, 450000, Note_on_c, 5, 50, 57
11, 450119, Note_on_c, 5, 62, 0
11, 450119, Note_on_c, 5, 50, 0
11, 450240, Note_on_c, 5, 53, 60
11, 450240, Note_on_c, 5, 65, 60
11, 450359, Note_on_c, 5, 53, 0
11, 450359, Note_on_c, 5, 65, 0
11, 450720, Note_on_c, 5, 50, 67
11, 450720, Note_on_c, 5, 62, 67
11, 450839, Note_on_c, 5, 50, 0
11, 450839, Note_on_c, 5, 62, 0
11, 450960, Note_on_c, 5, 65, 70
11, 450960, Note_on_c, 5, 53, 70
11, 451079, Note_on_c, 5, 65, 0
11, 451079, Note_on_c, 5, 53, 0
11, 451440, Note_on_c, 5, 62, 77
11, 451440, Note_on_c, 5, 50, 77
11, 451559, Note_on_c, 5, 62, 0
11, 451559, Note_on_c, 5, 50, 0
11, 451680, Note_on_c, 5, 65, 80
11, 451680, Note_on_c, 5, 53, 80
11, 451799, Note_on_c, 5, 65, 0
11, 451799, Note_on_c, 5, 53, 0
11, 451920, Note_on_c, 5, 53, 83
11, 451920, Note_on_c, 5, 65, 83
11, 452039, Note_on_c, 5, 53, 0
11, 452039, Note_on_c, 5, 65, 0
11, 452520, Note_on_c, 5, 62, 92
11, 452520, Note_on_c, 5, 50, 92
11, 452624, Note_on_c, 5, 62, 0
11, 452624, Note_on_c, 5, 50, 0
11, 452640, Note_on_c, 5, 62, 92
11, 452640, Note_on_c, 5, 50, 92
11, 452744, Note_on_c, 5, 62, 0
11, 452744, Note_on_c, 5, 50, 0
11, 452760, Note_on_c, 5, 50, 92
11, 452760, Note_on_c, 5, 62, 92
11, 452864, Note_on_c, 5, 50, 0
11, 452864, Note_on_c, 5, 62, 0
11, 452880, Note_on_c, 5, 62, 92
11, 452880, Note_on_c, 5, 50, 92
11, 452984, Note_on_c, 5, 62, 0
11, 452984, Note_on_c, 5, 50, 0
11, 453000, Note_on_c, 5, 50, 92
11, 453000, Note_on_c, 5, 62, 92
11, 453104, Note_on_c, 5, 50, 0
11, 453104, Note_on_c, 5, 62, 0
11, 453120, Note_on_c, 5, 50, 92
11, 453120, Note_on_c, 5, 62, 92
11, 453239, Note_on_c, 5, 50, 0
11, 453239, Note_on_c, 5, 62, 0
11, 453600, Note_on_c, 5, 50, 92
11, 453600, Note_on_c, 5, 62, 92
11, 453704, Note_on_c, 5, 50, 0
11, 453704, Note_on_c, 5, 62, 0
11, 453720, Note_on_c, 5, 50, 92
11, 453720, Note_on_c, 5, 62, 92
11, 453824, Note_on_c, 5, 50, 0
11, 453824, Note_on_c, 5, 62, 0
11, 453840, Note_on_c, 5, 50, 92
11, 453840, Note_on_c, 5, 62, 92
11, 453944, Note_on_c, 5, 50, 0
11, 453944, Note_on_c, 5, 62, 0
11, 453960, Note_on_c, 5, 50, 80
11, 453960, Note_on_c, 5, 62, 80
11, 454064, Note_on_c, 5, 50, 0
11, 454064, Note_on_c, 5, 62, 0
11, 454080, Note_on_c, 5, 50, 80
11, 454080, Note_on_c, 5, 62, 80
11, 454184, Note_on_c, 5, 50, 0
11, 454184, Note_on_c, 5, 62, 0
11, 454200, Note_on_c, 5, 62, 80
11, 454200, Note_on_c, 5, 50, 80
11, 454304, Note_on_c, 5, 62, 0
11, 454304, Note_on_c, 5, 50, 0
11, 454320, Note_on_c, 5, 65, 80
11, 454320, Note_on_c, 5, 53, 80
11, 454424, Note_on_c, 5, 65, 0
11, 454424, Note_on_c, 5, 53, 0
11, 454440, Note_on_c, 5, 65, 80
11, 454440, Note_on_c, 5, 53, 80
11, 454544, Note_on_c, 5, 65, 0
11, 454544, Note_on_c, 5, 53, 0
11, 454560, Note_on_c, 5, 53, 80
11, 454560, Note_on_c, 5, 65, 80
11, 454664, Note_on_c, 5, 53, 0
11, 454664, Note_on_c, 5, 65, 0
11, 455040, Note_on_c, 5, 53, 80
11, 455040, Note_on_c, 5, 65, 80
11, 455159, Note_on_c, 5, 53, 0
11, 455159, Note_on_c, 5, 65, 0
11, 455280, Note_on_c, 5, 65, 80
11, 455280, Note_on_c, 5, 53, 80
11, 455384, Note_on_c, 5, 65, 0
11, 455384, Note_on_c, 5, 53, 0
11, 455400, Note_on_c, 5, 62, 80
11, 455400, Note_on_c, 5, 50, 80
11, 455504, Note_on_c, 5, 62, 0
11, 455504, Note_on_c, 5, 50, 0
11, 455520, Note_on_c, 5, 62, 80
11, 455520, Note_on_c, 5, 50, 80
11, 455624, Note_on_c, 5, 62, 0
11, 455624, Note_on_c, 5, 50, 0
11, 455640, Note_on_c, 5, 50, 80
11, 455640, Note_on_c, 5, 62, 80
11, 455744, Note_on_c, 5, 50, 0
11, 455744, Note_on_c, 5, 62, 0
11, 455760, Note_on_c, 5, 65, 80
11, 455760, Note_on_c, 5, 53, 80
11, 455864, Note_on_c, 5, 65, 0
11, 455864, Note_on_c, 5, 53, 0
11, 455880, Note_on_c, 5, 65, 80
11, 455880, Note_on_c, 5, 53, 80
11, 455984, Note_on_c, 5, 65, 0
11, 455984, Note_on_c, 5, 53, 0
11, 456000, Note_on_c, 5, 65, 80
11, 456000, Note_on_c, 5, 53, 80
11, 456104, Note_on_c, 5, 65, 0
11, 456104, Note_on_c, 5, 53, 0
11, 456480, Note_on_c, 5, 50, 80
11, 456480, Note_on_c, 5, 62, 80
11, 456584, Note_on_c, 5, 50, 0
11, 456584, Note_on_c, 5, 62, 0
11, 456600, Note_on_c, 5, 50, 80
11, 456600, Note_on_c, 5, 62, 80
11, 456704, Note_on_c, 5, 50, 0
11, 456704, Note_on_c, 5, 62, 0
11, 456720, Note_on_c, 5, 62, 80
11, 456720, Note_on_c, 5, 50, 80
11, 456824, Note_on_c, 5, 62, 0
11, 456824, Note_on_c, 5, 50, 0
11, 456840, Note_on_c, 5, 50, 80
11, 456840, Note_on_c, 5, 62, 80
11, 456944, Note_on_c, 5, 50, 0
11, 456944, Note_on_c, 5, 62, 0
11, 456960, Note_on_c, 5, 62, 80
11, 456960, Note_on_c, 5, 50, 80
11, 457064, Note_on_c, 5, 62, 0
11, 457064, Note_on_c, 5, 50, 0
11, 457080, Note_on_c, 5, 62, 80
11, 457080, Note_on_c, 5, 50, 80
11, 457184, Note_on_c, 5, 62, 0
11, 457184, Note_on_c, 5, 50, 0
11, 457200, Note_on_c, 5, 60, 80
11, 457304, Note_on_c, 5, 60, 0
11, 458040, Note_on_c, 5, 62, 80
11, 458040, Note_on_c, 5, 50, 80
11, 458144, Note_on_c, 5, 62, 0
11, 458144, Note_on_c, 5, 50, 0
11, 458160, Note_on_c, 5, 50, 80
11, 458160, Note_on_c, 5, 62, 80
11, 458264, Note_on_c, 5, 50, 0
11, 458264, Note_on_c, 5, 62, 0
11, 458280, Note_on_c, 5, 50, 80
11, 458280, Note_on_c, 5, 62, 80
11, 458384, Note_on_c, 5, 50, 0
11, 458384, Note_on_c, 5, 62, 0
11, 458400, Note_on_c, 5, 62, 80
11, 458400, Note_on_c, 5, 50, 80
11, 458504, Note_on_c, 5, 62, 0
11, 458504, Note_on_c, 5, 50, 0
11, 458520, Note_on_c, 5, 50, 80
11, 458520, Note_on_c, 5, 62, 80
11, 458624, Note_on_c, 5, 50, 0
11, 458624, Note_on_c, 5, 62, 0
11, 458640, Note_on_c, 5, 60, 80
11, 458759, Note_on_c, 5, 60, 0
11, 459000, Note_on_c, 5, 60, 80
11, 459119, Note_on_c, 5, 60, 0
11, 459360, Note_on_c, 5, 60, 80
11, 459479, Note_on_c, 5, 60, 0
11, 465480, Note_on_c, 5, 60, 92
11, 465824, Note_on_c, 5, 60, 0
11, 465840, Note_on_c, 5, 53, 92
11, 465840, Note_on_c, 5, 65, 92
11, 465959, Note_on_c, 5, 53, 0
11, 465959, Note_on_c, 5, 65, 0
11, 466080, Note_on_c, 5, 60, 92
11, 466184, Note_on_c, 5, 60, 0
11, 466200, Note_on_c, 5, 53, 92
11, 466200, Note_on_c, 5, 65, 92
11, 466319, Note_on_c, 5, 53, 0
11, 466319, Note_on_c, 5, 65, 0
11, 466440, Note_on_c, 5, 60, 92
11, 466544, Note_on_c, 5, 60, 0
11, 466560, Note_on_c, 5, 53, 92
11, 466560, Note_on_c, 5, 65, 92
11, 466679, Note_on_c, 5, 53, 0
11, 466679, Note_on_c, 5, 65, 0
11, 466800, Note_on_c, 5, 65, 92
11, 466904, Note_on_c, 5, 65, 0
11, 466920, Note_on_c, 5, 60, 92
11, 467264, Note_on_c, 5, 60, 0
11, 467280, Note_on_c, 5, 65, 92
11, 467280, Note_on_c, 5, 53, 92
11, 467399, Note_on_c, 5, 65, 0
11, 467399, Note_on_c, 5, 53, 0
11, 467520, Note_on_c, 5, 60, 92
11, 467624, Note_on_c, 5, 60, 0
11, 467640, Note_on_c, 5, 65, 92
11, 467640, Note_on_c, 5, 53, 92
11, 467759, Note_on_c, 5, 65, 0
11, 467759, Note_on_c, 5, 53, 0
11, 467880, Note_on_c, 5, 60, 92
11, 467984, Note_on_c, 5, 60, 0
11, 468000, Note_on_c, 5, 53, 92
11, 468000, Note_on_c, 5, 65, 92
11, 468119, Note_on_c, 5, 53, 0
11, 468119, Note_on_c, 5, 65, 0
11, 468240, Note_on_c, 5, 65, 92
11, 468344, Note_on_c, 5, 65, 0
11, 468360, Note_on_c, 5, 60, 92
11, 468464, Note_on_c, 5, 60, 0
11, 468480, Note_on_c, 5, 60, 92
11, 468584, Note_on_c, 5, 60, 0
11, 468600, Note_on_c, 5, 60, 92
11, 468704, Note_on_c, 5, 60, 0
11, 468720, Note_on_c, 5, 65, 92
11, 468824, Note_on_c, 5, 65, 0
11, 468840, Note_on_c, 5, 65, 92
11, 468944, Note_on_c, 5, 65, 0
11, 468960, Note_on_c, 5, 60, 92
11, 469064, Note_on_c, 5, 60, 0
11, 469080, Note_on_c, 5, 65, 92
11, 469184, Note_on_c, 5, 65, 0
11, 469200, Note_on_c, 5, 65, 92
11, 469304, Note_on_c, 5, 65, 0
11, 469320, Note_on_c, 5, 60, 92
11, 469424, Note_on_c, 5, 60, 0
11, 469440, Note_on_c, 5, 65, 92
11, 469544, Note_on_c, 5, 65, 0
11, 469560, Note_on_c, 5, 65, 92
11, 469664, Note_on_c, 5, 65, 0
11, 469680, Note_on_c, 5, 65, 92
11, 469784, Note_on_c, 5, 65, 0
11, 469800, Note_on_c, 5, 60, 92
11, 469904, Note_on_c, 5, 60, 0
11, 469920, Note_on_c, 5, 60, 92
11, 470024, Note_on_c, 5, 60, 0
11, 470040, Note_on_c, 5, 60, 92
11, 470144, Note_on_c, 5, 60, 0
11, 470160, Note_on_c, 5, 65, 92
11, 470264, Note_on_c, 5, 65, 0
11, 470280, Note_on_c, 5, 65, 92
11, 470384, Note_on_c, 5, 65, 0
11, 470400, Note_on_c, 5, 60, 92
11, 470504, Note_on_c, 5, 60, 0
11, 470520, Note_on_c, 5, 65, 92
11, 470624, Note_on_c, 5, 65, 0
11, 470640, Note_on_c, 5, 65, 92
11, 470744, Note_on_c, 5, 65, 0
11, 470760, Note_on_c, 5, 60, 92
11, 470864, Note_on_c, 5, 60, 0
11, 470880, Note_on_c, 5, 65, 92
11, 470984, Note_on_c, 5, 65, 0
11, 471000, Note_on_c, 5, 65, 92
11, 471104, Note_on_c, 5, 65, 0
11, 471120, Note_on_c, 5, 60, 92
11, 471224, Note_on_c, 5, 60, 0
11, 471240, Note_on_c, 5, 60, 92
11, 471404, Note_on_c, 5, 60, 0
11, 471420, Note_on_c, 5, 60, 92
11, 471464, Note_on_c, 5, 60, 0
11, 471480, Note_on_c, 5, 60, 92
11, 471584, Note_on_c, 5, 60, 0
11, 471600, Note_on_c, 5, 60, 92
11, 471719, Note_on_c, 5, 60, 0
11, 471960, Note_on_c, 5, 65, 92
11, 471960, Note_on_c, 5, 53, 92
11, 472124, Note_on_c, 5, 65, 0
11, 472124, Note_on_c, 5, 53, 0
11, 472140, Note_on_c, 5, 53, 92
11, 472140, Note_on_c, 5, 41, 92
11, 472184, Note_on_c, 5, 53, 0
11, 472184, Note_on_c, 5, 41, 0
11, 472200, Note_on_c, 5, 53, 92
11, 472200, Note_on_c, 5, 41, 92
11, 472304, Note_on_c, 5, 53, 0
11, 472304, Note_on_c, 5, 41, 0
11, 472320, Note_on_c, 5, 65, 92
11, 472320, Note_on_c, 5, 53, 92
11, 472439, Note_on_c, 5, 65, 0
11, 472439, Note_on_c, 5, 53, 0
11, 473760, Control_c, 5, 11, 87
11, 474120, Note_on_c, 5, 60, 68
11, 474840, Control_c, 5, 11, 87
11, 474870, Control_c, 5, 11, 89
11, 474900, Control_c, 5, 11, 90
11, 474930, Control_c, 5, 11, 92
11, 474960, Control_c, 5, 11, 94
11, 474990, Control_c, 5, 11, 95
11, 475020, Control_c, 5, 11, 97
11, 475050, Control_c, 5, 11, 99
11, 475080, Control_c, 5, 11, 100
11, 475110, Control_c, 5, 11, 102
11, 475140, Control_c, 5, 11, 104
11, 475170, Control_c, 5, 11, 105
11, 475200, Control_c, 5, 11, 107
11, 475230, Control_c, 5, 11, 109
11, 475260, Control_c, 5, 11, 110
11, 475290, Control_c, 5, 11, 112
11, 475320, Control_c, 5, 11, 114
11, 475350, Control_c, 5, 11, 115
11, 475380, Control_c, 5, 11, 117
11, 475410, Control_c, 5, 11, 119
11, 475440, Control_c, 5, 11, 120
11, 475470, Control_c, 5, 11, 122
11, 475500, Control_c, 5, 11, 124
11, 475530, Control_c, 5, 11, 125
11, 475560, Control_c, 5, 11, 127
11, 475590, Control_c, 5, 11, 125
11, 475620, Control_c, 5, 11, 124
11, 475650, Control_c, 5, 11, 122
11, 475680, Control_c, 5, 11, 120
11, 475710, Control_c, 5, 11, 119
11, 475740, Control_c, 5, 11, 117
11, 475770, Control_c, 5, 11, 115
11, 475800, Control_c, 5, 11, 114
11, 475830, Control_c, 5, 11, 112
11, 475860, Control_c, 5, 11, 110
11, 475890, Control_c, 5, 11, 109
11, 475920, Control_c, 5, 11, 107
11, 475950, Control_c, 5, 11, 105
11, 475980, Control_c, 5, 11, 104
11, 476010, Control_c, 5, 11, 102
11, 476040, Control_c, 5, 11, 100
11, 476070, Control_c, 5, 11, 99
11, 476100, Control_c, 5, 11, 97
11, 476130, Control_c, 5, 11, 95
11, 476160, Control_c, 5, 11, 94
11, 476190, Control_c, 5, 11, 92
11, 476220, Control_c, 5, 11, 90
11, 476250, Control_c, 5, 11, 89
11, 476264, Note_on_c, 5, 60, 0
11, 477360, Control_c, 5, 11, 127
11, 477720, Note_on_c, 5, 60, 80
11, 477824, Note_on_c, 5, 60, 0
11, 477840, Note_on_c, 5, 60, 80
11, 477944, Note_on_c, 5, 60, 0
11, 477960, Note_on_c, 5, 60, 80
11, 478064, Note_on_c, 5, 60, 0
11, 478080, Note_on_c, 5, 50, 80
11, 478080, Note_on_c, 5, 62, 80
11, 478184, Note_on_c, 5, 50, 0
11, 478184, Note_on_c, 5, 62, 0
11, 478200, Note_on_c, 5, 62, 80
11, 478200, Note_on_c, 5, 50, 80
11, 478304, Note_on_c, 5, 62, 0
11, 478304, Note_on_c, 5, 50, 0
11, 478320, Note_on_c, 5, 62, 80
11, 478320, Note_on_c, 5, 50, 80
11, 478424, Note_on_c, 5, 62, 0
11, 478424, Note_on_c, 5, 50, 0
11, 478440, Note_on_c, 5, 60, 80
11, 478559, Note_on_c, 5, 60, 0
11, 479160, Note_on_c, 5, 60, 80
11, 479264, Note_on_c, 5, 60, 0
11, 479280, Note_on_c, 5, 60, 80
11, 479384, Note_on_c, 5, 60, 0
11, 479400, Note_on_c, 5, 60, 80
11, 479504, Note_on_c, 5, 60, 0
11, 479520, Note_on_c, 5, 50, 80
11, 479520, Note_on_c, 5, 62, 80
11, 479624, Note_on_c, 5, 50, 0
11, 479624, Note_on_c, 5, 62, 0
11, 479640, Note_on_c, 5, 62, 80
11, 479640, Note_on_c, 5, 50, 80
11, 479744, Note_on_c, 5, 62, 0
11, 479744, Note_on_c, 5, 50, 0
11, 479760, Note_on_c, 5, 62, 80
11, 479760, Note_on_c, 5, 50, 80
11, 479864, Note_on_c, 5, 62, 0
11, 479864, Note_on_c, 5, 50, 0
11, 479880, Note_on_c, 5, 60, 80
11, 479999, Note_on_c, 5, 60, 0
11, 480600, Note_on_c, 5, 60, 80
11, 480719, Note_on_c, 5, 60, 0
11, 481320, Note_on_c, 5, 60, 80
11, 481439, Note_on_c, 5, 60, 0
11, 484200, Note_on_c, 5, 53, 32
11, 484364, Note_on_c, 5, 53, 0
11, 484380, Note_on_c, 5, 53, 32
11, 484424, Note_on_c, 5, 53, 0
11, 484440, Note_on_c, 5, 53, 32
11, 484544, Note_on_c, 5, 53, 0
11, 484560, Note_on_c, 5, 50, 32
11, 484679, Note_on_c, 5, 50, 0
11, 487080, Note_on_c, 5, 58, 32
11, 487080, Note_on_c, 5, 46, 32
11, 487244, Note_on_c, 5, 58, 0
11, 487244, Note_on_c, 5, 46, 0
11, 487260, Note_on_c, 5, 58, 32
11, 487260, Note_on_c, 5, 46, 32
11, 487304, Note_on_c, 5, 58, 0
11, 487304, Note_on_c, 5, 46, 0
11, 487320, Note_on_c, 5, 46, 32
11, 487320, Note_on_c, 5, 58, 32
11, 487424, Note_on_c, 5, 46, 0
11, 487424, Note_on_c, 5, 58, 0
11, 487440, Note_on_c, 5, 46, 32
11, 487440, Note_on_c, 5, 58, 32
11, 487559, Note_on_c, 5, 46, 0
11, 487559, Note_on_c, 5, 58, 0
11, 489240, Note_on_c, 5, 63, 32
11, 489404, Note_on_c, 5, 63, 0
11, 489420, Note_on_c, 5, 63, 34
11, 489464, Note_on_c, 5, 63, 0
11, 489480, Note_on_c, 5, 63, 34
11, 489584, Note_on_c, 5, 63, 0
11, 489600, Note_on_c, 5, 63, 36
11, 489719, Note_on_c, 5, 63, 0
11, 489960, Note_on_c, 5, 60, 40
11, 489960, Note_on_c, 5, 63, 40
11, 490124, Note_on_c, 5, 60, 0
11, 490124, Note_on_c, 5, 63, 0
11, 490140, Note_on_c, 5, 63, 42
11, 490140, Note_on_c, 5, 60, 42
11, 490184, Note_on_c, 5, 63, 0
11, 490184, Note_on_c, 5, 60, 0
11, 490200, Note_on_c, 5, 63, 42
11, 490200, Note_on_c, 5, 60, 42
11, 490304, Note_on_c, 5, 63, 0
11, 490304, Note_on_c, 5, 60, 0
11, 490320, Note_on_c, 5, 60, 44
11, 490320, Note_on_c, 5, 65, 44
11, 490439, Note_on_c, 5, 60, 0
11, 490439, Note_on_c, 5, 65, 0
11, 490680, Note_on_c, 5, 53, 48
11, 490680, Note_on_c, 5, 65, 48
11, 490844, Note_on_c, 5, 53, 0
11, 490844, Note_on_c, 5, 65, 0
11, 490860, Note_on_c, 5, 65, 50
11, 490860, Note_on_c, 5, 53, 50
11, 490904, Note_on_c, 5, 65, 0
11, 490904, Note_on_c, 5, 53, 0
11, 490920, Note_on_c, 5, 65, 50
11, 490920, Note_on_c, 5, 53, 50
11, 491024, Note_on_c, 5, 65, 0
11, 491024, Note_on_c, 5, 53, 0
11, 491040, Note_on_c, 5, 53, 52
11, 491040, Note_on_c, 5, 65, 52
11, 491159, Note_on_c, 5, 53, 0
11, 491159, Note_on_c, 5, 65, 0
11, 491760, Note_on_c, 5, 63, 60
11, 491924, Note_on_c, 5, 63, 0
11, 491940, Note_on_c, 5, 63, 62
11, 491984, Note_on_c, 5, 63, 0
11, 492000, Note_on_c, 5, 63, 62
11, 492104, Note_on_c, 5, 63, 0
11, 492120, Note_on_c, 5, 63, 64
11, 492284, Note_on_c, 5, 63, 0
11, 492300, Note_on_c, 5, 63, 66
11, 492344, Note_on_c, 5, 63, 0
11, 492360, Note_on_c, 5, 63, 66
11, 492464, Note_on_c, 5, 63, 0
11, 492480, Note_on_c, 5, 63, 68
11, 492599, Note_on_c, 5, 63, 0
11, 494280, Note_on_c, 5, 58, 92
11, 494444, Note_on_c, 5, 58, 0
11, 494460, Note_on_c, 5, 58, 92
11, 494460, Note_on_c, 5, 46, 92
11, 494504, Note_on_c, 5, 58, 0
11, 494504, Note_on_c, 5, 46, 0
11, 494520, Note_on_c, 5, 46, 92
11, 494520, Note_on_c, 5, 58, 92
11, 494624, Note_on_c, 5, 46, 0
11, 494624, Note_on_c, 5, 58, 0
11, 502920, Note_on_c, 5, 65, 44
11, 502920, Note_on_c, 5, 53, 44
11, 503009, Note_on_c, 5, 65, 0
11, 503009, Note_on_c, 5, 53, 0
11, 503040, Note_on_c, 5, 65, 44
11, 503040, Note_on_c, 5, 53, 44
11, 503129, Note_on_c, 5, 65, 0
11, 503129, Note_on_c, 5, 53, 0
11, 503160, Note_on_c, 5, 53, 44
11, 503160, Note_on_c, 5, 65, 44
11, 503249, Note_on_c, 5, 53, 0
11, 503249, Note_on_c, 5, 65, 0
11, 503280, Note_on_c, 5, 65, 44
11, 503280, Note_on_c, 5, 53, 44
11, 503369, Note_on_c, 5, 65, 0
11, 503369, Note_on_c, 5, 53, 0
11, 503400, Note_on_c, 5, 53, 44
11, 503400, Note_on_c, 5, 65, 44
11, 503489, Note_on_c, 5, 53, 0
11, 503489, Note_on_c, 5, 65, 0
11, 503520, Note_on_c, 5, 53, 44
11, 503520, Note_on_c, 5, 65, 44
11, 503609, Note_on_c, 5, 53, 0
11, 503609, Note_on_c, 5, 65, 0
11, 504000, Note_on_c, 5, 65, 44
11, 504000, Note_on_c, 5, 53, 44
11, 504089, Note_on_c, 5, 65, 0
11, 504089, Note_on_c, 5, 53, 0
11, 504120, Note_on_c, 5, 60, 44
11, 504209, Note_on_c, 5, 60, 0
11, 504240, Note_on_c, 5, 60, 44
11, 504329, Note_on_c, 5, 60, 0
11, 504360, Note_on_c, 5, 60, 44
11, 504449, Note_on_c, 5, 60, 0
11, 504480, Note_on_c, 5, 60, 44
11, 504569, Note_on_c, 5, 60, 0
11, 504600, Note_on_c, 5, 60, 44
11, 504689, Note_on_c, 5, 60, 0
11, 505080, Note_on_c, 5, 65, 44
11, 505080, Note_on_c, 5, 53, 44
11, 505169, Note_on_c, 5, 65, 0
11, 505169, Note_on_c, 5, 53, 0
11, 505200, Note_on_c, 5, 65, 44
11, 505200, Note_on_c, 5, 53, 44
11, 505289, Note_on_c, 5, 65, 0
11, 505289, Note_on_c, 5, 53, 0
11, 505320, Note_on_c, 5, 65, 44
11, 505320, Note_on_c, 5, 53, 44
11, 505409, Note_on_c, 5, 65, 0
11, 505409, Note_on_c, 5, 53, 0
11, 505440, Note_on_c, 5, 53, 44
11, 505440, Note_on_c, 5, 65, 44
11, 505529, Note_on_c, 5, 53, 0
11, 505529, Note_on_c, 5, 65, 0
11, 505560, Note_on_c, 5, 65, 44
11, 505560, Note_on_c, 5, 53, 44
11, 505649, Note_on_c, 5, 65, 0
11, 505649, Note_on_c, 5, 53, 0
11, 505680, Note_on_c, 5, 65, 44
11, 505680, Note_on_c, 5, 53, 44
11, 505769, Note_on_c, 5, 65, 0
11, 505769, Note_on_c, 5, 53, 0
11, 506160, Note_on_c, 5, 53, 44
11, 506160, Note_on_c, 5, 65, 44
11, 506249, Note_on_c, 5, 53, 0
11, 506249, Note_on_c, 5, 65, 0
11, 506280, Note_on_c, 5, 60, 44
11, 506369, Note_on_c, 5, 60, 0
11, 506400, Note_on_c, 5, 60, 44
11, 506489, Note_on_c, 5, 60, 0
11, 506520, Note_on_c, 5, 60, 44
11, 506609, Note_on_c, 5, 60, 0
11, 506640, Note_on_c, 5, 60, 44
11, 506729, Note_on_c, 5, 60, 0
11, 506760, Note_on_c, 5, 60, 44
11, 506849, Note_on_c, 5, 60, 0
11, 506880, Note_on_c, 5, 65, 44
11, 506880, Note_on_c, 5, 53, 44
11, 506969, Note_on_c, 5, 65, 0
11, 506969, Note_on_c, 5, 53, 0
11, 507000, Note_on_c, 5, 53, 44
11, 507000, Note_on_c, 5, 65, 44
11, 507089, Note_on_c, 5, 53, 0
11, 507089, Note_on_c, 5, 65, 0
11, 507120, Note_on_c, 5, 53, 44
11, 507120, Note_on_c, 5, 65, 44
11, 507209, Note_on_c, 5, 53, 0
11, 507209, Note_on_c, 5, 65, 0
11, 507240, Note_on_c, 5, 53, 44
11, 507240, Note_on_c, 5, 65, 44
11, 507329, Note_on_c, 5, 53, 0
11, 507329, Note_on_c, 5, 65, 0
11, 507360, Note_on_c, 5, 65, 44
11, 507360, Note_on_c, 5, 53, 44
11, 507449, Note_on_c, 5, 65, 0
11, 507449, Note_on_c, 5, 53, 0
11, 507480, Note_on_c, 5, 53, 43
11, 507480, Note_on_c, 5, 65, 43
11, 507569, Note_on_c, 5, 53, 0
11, 507569, Note_on_c, 5, 65, 0
11, 507600, Note_on_c, 5, 65, 43
11, 507600, Note_on_c, 5, 53, 43
11, 507689, Note_on_c, 5, 65, 0
11, 507689, Note_on_c, 5, 53, 0
11, 507720, Note_on_c, 5, 53, 42
11, 507720, Note_on_c, 5, 65, 42
11, 507809, Note_on_c, 5, 53, 0
11, 507809, Note_on_c, 5, 65, 0
11, 507840, Note_on_c, 5, 65, 42
11, 507840, Note_on_c, 5, 53, 42
11, 507929, Note_on_c, 5, 65, 0
11, 507929, Note_on_c, 5, 53, 0
11, 509040, Note_on_c, 5, 62, 36
11, 509040, Note_on_c, 5, 50, 36
11, 509144, Note_on_c, 5, 62, 0
11, 509144, Note_on_c, 5, 50, 0
11, 509160, Note_on_c, 5, 50, 35
11, 509160, Note_on_c, 5, 62, 35
11, 509264, Note_on_c, 5, 50, 0
11, 509264, Note_on_c, 5, 62, 0
11, 509280, Note_on_c, 5, 50, 35
11, 509280, Note_on_c, 5, 62, 35
11, 509384, Note_on_c, 5, 50, 0
11, 509384, Note_on_c, 5, 62, 0
11, 509400, Note_on_c, 5, 50, 34
11, 509400, Note_on_c, 5, 62, 34
11, 509504, Note_on_c, 5, 50, 0
11, 509504, Note_on_c, 5, 62, 0
11, 509520, Note_on_c, 5, 50, 34
11, 509520, Note_on_c, 5, 62, 34
11, 509624, Note_on_c, 5, 50, 0
11, 509624, Note_on_c, 5, 62, 0
11, 509640, Note_on_c, 5, 50, 33
11, 509640, Note_on_c, 5, 62, 33
11, 509744, Note_on_c, 5, 50, 0
11, 509744, Note_on_c, 5, 62, 0
11, 509760, Note_on_c, 5, 62, 32
11, 509760, Note_on_c, 5, 50, 32
11, 509864, Note_on_c, 5, 62, 0
11, 509864, Note_on_c, 5, 50, 0
11, 509880, Note_on_c, 5, 62, 32
11, 509880, Note_on_c, 5, 50, 32
11, 509984, Note_on_c, 5, 62, 0
11, 509984, Note_on_c, 5, 50, 0
11, 510000, Note_on_c, 5, 50, 32
11, 510000, Note_on_c, 5, 62, 32
11, 510119, Note_on_c, 5, 50, 0
11, 510119, Note_on_c, 5, 62, 0
11, 519840, Note_on_c, 5, 58, 32
11, 520004, Note_on_c, 5, 58, 0
11, 520020, Note_on_c, 5, 46, 32
11, 520064, Note_on_c, 5, 46, 0
11, 520080, Note_on_c, 5, 46, 32
11, 520199, Note_on_c, 5, 46, 0
11, 520560, Note_on_c, 5, 58, 32
11, 520724, Note_on_c, 5, 58, 0
11, 520740, Note_on_c, 5, 46, 32
11, 520784, Note_on_c, 5, 46, 0
11, 520800, Note_on_c, 5, 46, 32
11, 520919, Note_on_c, 5, 46, 0
11, 521280, Note_on_c, 5, 58, 32
11, 521444, Note_on_c, 5, 58, 0
11, 521460, Note_on_c, 5, 46, 32
11, 521504, Note_on_c, 5, 46, 0
11, 521520, Note_on_c, 5, 46, 32
11, 521639, Note_on_c, 5, 46, 0
11, 522000, Note_on_c, 5, 58, 32
11, 522164, Note_on_c, 5, 58, 0
11, 522180, Note_on_c, 5, 46, 32
11, 522224, Note_on_c, 5, 46, 0
11, 522240, Note_on_c, 5, 46, 32
11, 522359, Note_on_c, 5, 46, 0
11, 522720, Note_on_c, 5, 65, 32
11, 522884, Note_on_c, 5, 65, 0
11, 522900, Note_on_c, 5, 53, 32
11, 522944, Note_on_c, 5, 53, 0
11, 522960, Note_on_c, 5, 53, 32
11, 523064, Note_on_c, 5, 53, 0
11, 523080, Note_on_c, 5, 58, 32
11, 523244, Note_on_c, 5, 58, 0
11, 523260, Note_on_c, 5, 46, 32
11, 523304, Note_on_c, 5, 46, 0
11, 523320, Note_on_c, 5, 46, 32
11, 523424, Note_on_c, 5, 46, 0
11, 523440, Note_on_c, 5, 58, 32
11, 523604, Note_on_c, 5, 58, 0
11, 523620, Note_on_c, 5, 46, 32
11, 523664, Note_on_c, 5, 46, 0
11, 523680, Note_on_c, 5, 46, 32
11, 523784, Note_on_c, 5, 46, 0
11, 523800, Note_on_c, 5, 58, 32
11, 523964, Note_on_c, 5, 58, 0
11, 523980, Note_on_c, 5, 46, 32
11, 524024, Note_on_c, 5, 46, 0
11, 524040, Note_on_c, 5, 46, 32
11, 524144, Note_on_c, 5, 46, 0
11, 524160, Note_on_c, 5, 58, 32
11, 524324, Note_on_c, 5, 58, 0
11, 524340, Note_on_c, 5, 46, 32
11, 524384, Note_on_c, 5, 46, 0
11, 524400, Note_on_c, 5, 46, 32
11, 524519, Note_on_c, 5, 46, 0
11, 524880, Note_on_c, 5, 58, 38
11, 525044, Note_on_c, 5, 58, 0
11, 525060, Note_on_c, 5, 46, 41
11, 525104, Note_on_c, 5, 46, 0
11, 525120, Note_on_c, 5, 46, 42
11, 525239, Note_on_c, 5, 46, 0
11, 525600, Note_on_c, 5, 65, 50
11, 525764, Note_on_c, 5, 65, 0
11, 525780, Note_on_c, 5, 53, 53
11, 525824, Note_on_c, 5, 53, 0
11, 525840, Note_on_c, 5, 53, 54
11, 525959, Note_on_c, 5, 53, 0
11, 527040, Note_on_c, 5, 65, 74
11, 527204, Note_on_c, 5, 65, 0
11, 527220, Note_on_c, 5, 53, 77
11, 527264, Note_on_c, 5, 53, 0
11, 527280, Note_on_c, 5, 53, 78
11, 527384, Note_on_c, 5, 53, 0
11, 527400, Note_on_c, 5, 65, 80
11, 527564, Note_on_c, 5, 65, 0
11, 527580, Note_on_c, 5, 53, 80
11, 527624, Note_on_c, 5, 53, 0
11, 527640, Note_on_c, 5, 53, 80
11, 527744, Note_on_c, 5, 53, 0
11, 527760, Note_on_c, 5, 65, 80
11, 527924, Note_on_c, 5, 65, 0
11, 527940, Note_on_c, 5, 53, 80
11, 527984, Note_on_c, 5, 53, 0
11, 528000, Note_on_c, 5, 53, 80
11, 528104, Note_on_c, 5, 53, 0
11, 528120, Note_on_c, 5, 65, 86
11, 528284, Note_on_c, 5, 65, 0
11, 528300, Note_on_c, 5, 53, 86
11, 528344, Note_on_c, 5, 53, 0
11, 528360, Note_on_c, 5, 53, 86
11, 528464, Note_on_c, 5, 53, 0
11, 528480, Note_on_c, 5, 65, 86
11, 528644, Note_on_c, 5, 65, 0
11, 528660, Note_on_c, 5, 53, 86
11, 528704, Note_on_c, 5, 53, 0
11, 528720, Note_on_c, 5, 53, 86
11, 528824, Note_on_c, 5, 53, 0
11, 528840, Note_on_c, 5, 65, 92
11, 529004, Note_on_c, 5, 65, 0
11, 529020, Note_on_c, 5, 53, 92
11, 529064, Note_on_c, 5, 53, 0
11, 529080, Note_on_c, 5, 53, 92
11, 529184, Note_on_c, 5, 53, 0
11, 529200, Note_on_c, 5, 65, 92
11, 529364, Note_on_c, 5, 65, 0
11, 529380, Note_on_c, 5, 53, 92
11, 529424, Note_on_c, 5, 53, 0
11, 529440, Note_on_c, 5, 53, 92
11, 529544, Note_on_c, 5, 53, 0
11, 529560, Note_on_c, 5, 65, 92
11, 529724, Note_on_c, 5, 65, 0
11, 529740, Note_on_c, 5, 53, 92
11, 529784, Note_on_c, 5, 53, 0
11, 529800, Note_on_c, 5, 53, 92
11, 529904, Note_on_c, 5, 53, 0
11, 529920, Note_on_c, 5, 65, 92
11, 530084, Note_on_c, 5, 65, 0
11, 530100, Note_on_c, 5, 53, 92
11, 530144, Note_on_c, 5, 53, 0
11, 530160, Note_on_c, 5, 53, 92
11, 530264, Note_on_c, 5, 53, 0
11, 530280, Note_on_c, 5, 65, 92
11, 530444, Note_on_c, 5, 65, 0
11, 530460, Note_on_c, 5, 53, 92
11, 530504, Note_on_c, 5, 53, 0
11, 530520, Note_on_c, 5, 53, 92
11, 530624, Note_on_c, 5, 53, 0
11, 530640, Note_on_c, 5, 65, 92
11, 530804, Note_on_c, 5, 65, 0
11, 530820, Note_on_c, 5, 53, 92
11, 530864, Note_on_c, 5, 53, 0
11, 530880, Note_on_c, 5, 53, 92
11, 530984, Note_on_c, 5, 53, 0
11, 531000, Note_on_c, 5, 65, 92
11, 531164, Note_on_c, 5, 65, 0
11, 531180, Note_on_c, 5, 53, 92
11, 531224, Note_on_c, 5, 53, 0
11, 531240, Note_on_c, 5, 53, 92
11, 531344, Note_on_c, 5, 53, 0
11, 531360, Note_on_c, 5, 65, 92
11, 531524, Note_on_c, 5, 65, 0
11, 531540, Note_on_c, 5, 53, 92
11, 531584, Note_on_c, 5, 53, 0
11, 531600, Note_on_c, 5, 53, 92
11, 531704, Note_on_c, 5, 53, 0
11, 531720, Note_on_c, 5, 65, 92
11, 531884, Note_on_c, 5, 65, 0
11, 531900, Note_on_c, 5, 53, 92
11, 531944, Note_on_c, 5, 53, 0
11, 531960, Note_on_c, 5, 53, 92
11, 532064, Note_on_c, 5, 53, 0
11, 532080, Note_on_c, 5, 65, 92
11, 532244, Note_on_c, 5, 65, 0
11, 532260, Note_on_c, 5, 53, 92
11, 532304, Note_on_c, 5, 53, 0
11, 532320, Note_on_c, 5, 53, 92
11, 532424, Note_on_c, 5, 53, 0
11, 532440, Note_on_c, 5, 65, 92
11, 532604, Note_on_c, 5, 65, 0
11, 532620, Note_on_c, 5, 53, 92
11, 532664, Note_on_c, 5, 53, 0
11, 532680, Note_on_c, 5, 53, 92
11, 532784, Note_on_c, 5, 53, 0
11, 532800, Note_on_c, 5, 65, 92
11, 532964, Note_on_c, 5, 65, 0
11, 532980, Note_on_c, 5, 53, 92
11, 533024, Note_on_c, 5, 53, 0
11, 533040, Note_on_c, 5, 53, 92
11, 533144, Note_on_c, 5, 53, 0
11, 533160, Note_on_c, 5, 65, 92
11, 533324, Note_on_c, 5, 65, 0
11, 533340, Note_on_c, 5, 53, 92
11, 533384, Note_on_c, 5, 53, 0
11, 533400, Note_on_c, 5, 53, 92
11, 533504, Note_on_c, 5, 53, 0
11, 533520, Note_on_c, 5, 65, 92
11, 533684, Note_on_c, 5, 65, 0
11, 533700, Note_on_c, 5, 53, 92
11, 533744, Note_on_c, 5, 53, 0
11, 533760, Note_on_c, 5, 53, 92
11, 533864, Note_on_c, 5, 53, 0
11, 533880, Note_on_c, 5, 65, 92
11, 534044, Note_on_c, 5, 65, 0
11, 534060, Note_on_c, 5, 53, 92
11, 534104, Note_on_c, 5, 53, 0
11, 534120, Note_on_c, 5, 53, 92
11, 534224, Note_on_c, 5, 53, 0
11, 534240, Note_on_c, 5, 65, 92
11, 534404, Note_on_c, 5, 65, 0
11, 534420, Note_on_c, 5, 53, 92
11, 534464, Note_on_c, 5, 53, 0
11, 534480, Note_on_c, 5, 53, 92
11, 534584, Note_on_c, 5, 53, 0
11, 536400, Note_on_c, 5, 58, 80
11, 536564, Note_on_c, 5, 58, 0
11, 536580, Note_on_c, 5, 46, 80
11, 536624, Note_on_c, 5, 46, 0
11, 536640, Note_on_c, 5, 46, 80
11, 536744, Note_on_c, 5, 46, 0
11, 536760, Note_on_c, 5, 65, 80
11, 536924, Note_on_c, 5, 65, 0
11, 536940, Note_on_c, 5, 53, 80
11, 536984, Note_on_c, 5, 53, 0
11, 537000, Note_on_c, 5, 53, 80
11, 537104, Note_on_c, 5, 53, 0
11, 537120, Note_on_c, 5, 65, 80
11, 537284, Note_on_c, 5, 65, 0
11, 537300, Note_on_c, 5, 53, 80
11, 537344, Note_on_c, 5, 53, 0
11, 537360, Note_on_c, 5, 53, 80
11, 537464, Note_on_c, 5, 53, 0
11, 537480, Note_on_c, 5, 65, 80
11, 537644, Note_on_c, 5, 65, 0
11, 537660, Note_on_c, 5, 53, 80
11, 537704, Note_on_c, 5, 53, 0
11, 537720, Note_on_c, 5, 53, 80
11, 537824, Note_on_c, 5, 53, 0
11, 537840, Note_on_c, 5, 65, 80
11, 538004, Note_on_c, 5, 65, 0
11, 538020, Note_on_c, 5, 53, 80
11, 538064, Note_on_c, 5, 53, 0
11, 538080, Note_on_c, 5, 53, 80
11, 538184, Note_on_c, 5, 53, 0
11, 538200, Note_on_c, 5, 65, 80
11, 538364, Note_on_c, 5, 65, 0
11, 538380, Note_on_c, 5, 53, 80
11, 538424, Note_on_c, 5, 53, 0
11, 538440, Note_on_c, 5, 53, 80
11, 538544, Note_on_c, 5, 53, 0
11, 538560, Note_on_c, 5, 65, 80
11, 538724, Note_on_c, 5, 65, 0
11, 538740, Note_on_c, 5, 53, 80
11, 538784, Note_on_c, 5, 53, 0
11, 538800, Note_on_c, 5, 53, 80
11, 538904, Note_on_c, 5, 53, 0
11, 538920, Note_on_c, 5, 46, 80
11, 538920, Note_on_c, 5, 58, 80
11, 539039, Note_on_c, 5, 46, 0
11, 539039, Note_on_c, 5, 58, 0
11, 539640, Control_c, 5, 11, 87
11, 540000, Control_c, 5, 11, 87
11, 540000, Note_on_c, 5, 63, 68
11, 540030, Control_c, 5, 11, 89
11, 540060, Control_c, 5, 11, 90
11, 540090, Control_c, 5, 11, 92
11, 540120, Control_c, 5, 11, 94
11, 540150, Control_c, 5, 11, 95
11, 540180, Control_c, 5, 11, 97
11, 540210, Control_c, 5, 11, 99
11, 540240, Control_c, 5, 11, 100
11, 540270, Control_c, 5, 11, 102
11, 540300, Control_c, 5, 11, 104
11, 540330, Control_c, 5, 11, 105
11, 540360, Note_on_c, 5, 60, 68
11, 540360, Control_c, 5, 11, 107
11, 540390, Control_c, 5, 11, 109
11, 540420, Control_c, 5, 11, 110
11, 540450, Control_c, 5, 11, 112
11, 540480, Control_c, 5, 11, 114
11, 540510, Control_c, 5, 11, 115
11, 540540, Control_c, 5, 11, 117
11, 540570, Control_c, 5, 11, 119
11, 540600, Control_c, 5, 11, 120
11, 540630, Control_c, 5, 11, 122
11, 540660, Control_c, 5, 11, 124
11, 540690, Control_c, 5, 11, 125
11, 540704, Note_on_c, 5, 63, 0
11, 540704, Note_on_c, 5, 60, 0
11, 540720, Note_on_c, 5, 62, 68
11, 540720, Note_on_c, 5, 58, 68
11, 540720, Control_c, 5, 11, 127
11, 540750, Control_c, 5, 11, 126
11, 540780, Control_c, 5, 11, 125
11, 540810, Control_c, 5, 11, 124
11, 540840, Control_c, 5, 11, 123
11, 540870, Control_c, 5, 11, 121
11, 540900, Control_c, 5, 11, 120
11, 540930, Control_c, 5, 11, 119
11, 540960, Control_c, 5, 11, 118
11, 540990, Control_c, 5, 11, 117
11, 541020, Control_c, 5, 11, 116
11, 541050, Control_c, 5, 11, 115
11, 541064, Note_on_c, 5, 62, 0
11, 541080, Note_on_c, 5, 65, 68
11, 541080, Control_c, 5, 11, 114
11, 541110, Control_c, 5, 11, 113
11, 541140, Control_c, 5, 11, 111
11, 541170, Control_c, 5, 11, 110
11, 541200, Control_c, 5, 11, 109
11, 541230, Control_c, 5, 11, 108
11, 541260, Control_c, 5, 11, 107
11, 541290, Control_c, 5, 11, 106
11, 541320, Control_c, 5, 11, 105
11, 541350, Control_c, 5, 11, 104
11, 541380, Control_c, 5, 11, 103
11, 541410, Control_c, 5, 11, 101
11, 541424, Note_on_c, 5, 58, 0
11, 541440, Control_c, 5, 11, 100
11, 541440, Note_on_c, 5, 53, 68
11, 541470, Control_c, 5, 11, 99
11, 541500, Control_c, 5, 11, 98
11, 541530, Control_c, 5, 11, 97
11, 541560, Control_c, 5, 11, 96
11, 541590, Control_c, 5, 11, 95
11, 541620, Control_c, 5, 11, 94
11, 541650, Control_c, 5, 11, 93
11, 541680, Control_c, 5, 11, 91
11, 541710, Control_c, 5, 11, 90
11, 541740, Control_c, 5, 11, 89
11, 541770, Control_c, 5, 11, 88
11, 541799, Note_on_c, 5, 65, 0
11, 541799, Note_on_c, 5, 53, 0
11, 550800, Control_c, 5, 11, 127
11, 551160, Note_on_c, 5, 50, 92
11, 551160, Note_on_c, 5, 62, 92
11, 551504, Note_on_c, 5, 50, 0
11, 551504, Note_on_c, 5, 62, 0
11, 551520, Note_on_c, 5, 50, 92
11, 551520, Note_on_c, 5, 62, 92
11, 551639, Note_on_c, 5, 50, 0
11, 551639, Note_on_c, 5, 62, 0
11, 551760, Note_on_c, 5, 62, 92
11, 551760, Note_on_c, 5, 50, 92
11, 551864, Note_on_c, 5, 62, 0
11, 551864, Note_on_c, 5, 50, 0
11, 551880, Note_on_c, 5, 50, 92
11, 551880, Note_on_c, 5, 62, 92
11, 551999, Note_on_c, 5, 50, 0
11, 551999, Note_on_c, 5, 62, 0
11, 552120, Note_on_c, 5, 50, 92
11, 552120, Note_on_c, 5, 62, 92
11, 552224, Note_on_c, 5, 50, 0
11, 552224, Note_on_c, 5, 62, 0
11, 552240, Note_on_c, 5, 50, 92
11, 552240, Note_on_c, 5, 62, 92
11, 552359, Note_on_c, 5, 50, 0
11, 552359, Note_on_c, 5, 62, 0
11, 552480, Note_on_c, 5, 62, 92
11, 552480, Note_on_c, 5, 50, 92
11, 552584, Note_on_c, 5, 62, 0
11, 552584, Note_on_c, 5, 50, 0
11, 552600, Note_on_c, 5, 62, 92
11, 552600, Note_on_c, 5, 50, 92
11, 552944, Note_on_c, 5, 62, 0
11, 552944, Note_on_c, 5, 50, 0
11, 552960, Note_on_c, 5, 62, 92
11, 552960, Note_on_c, 5, 50, 92
11, 553079, Note_on_c, 5, 62, 0
11, 553079, Note_on_c, 5, 50, 0
11, 553200, Note_on_c, 5, 50, 92
11, 553200, Note_on_c, 5, 62, 92
11, 553304, Note_on_c, 5, 50, 0
11, 553304, Note_on_c, 5, 62, 0
11, 553320, Note_on_c, 5, 62, 92
11, 553320, Note_on_c, 5, 50, 92
11, 553439, Note_on_c, 5, 62, 0
11, 553439, Note_on_c, 5, 50, 0
11, 553560, Note_on_c, 5, 50, 92
11, 553560, Note_on_c, 5, 62, 92
11, 553664, Note_on_c, 5, 50, 0
11, 553664, Note_on_c, 5, 62, 0
11, 553680, Note_on_c, 5, 62, 92
11, 553680, Note_on_c, 5, 50, 92
11, 553799, Note_on_c, 5, 62, 0
11, 553799, Note_on_c, 5, 50, 0
11, 553920, Note_on_c, 5, 50, 92
11, 553920, Note_on_c, 5, 62, 92
11, 554024, Note_on_c, 5, 50, 0
11, 554024, Note_on_c, 5, 62, 0
11, 554040, Note_on_c, 5, 62, 92
11, 554040, Note_on_c, 5, 50, 92
11, 554144, Note_on_c, 5, 62, 0
11, 554144, Note_on_c, 5, 50, 0
11, 554160, Note_on_c, 5, 62, 92
11, 554160, Note_on_c, 5, 50, 92
11, 554264, Note_on_c, 5, 62, 0
11, 554264, Note_on_c, 5, 50, 0
11, 554280, Note_on_c, 5, 50, 92
11, 554280, Note_on_c, 5, 62, 92
11, 554384, Note_on_c, 5, 50, 0
11, 554384, Note_on_c, 5, 62, 0
11, 554400, Note_on_c, 5, 50, 92
11, 554400, Note_on_c, 5, 62, 92
11, 554504, Note_on_c, 5, 50, 0
11, 554504, Note_on_c, 5, 62, 0
11, 554520, Note_on_c, 5, 50, 92
11, 554520, Note_on_c, 5, 62, 92
11, 554624, Note_on_c, 5, 50, 0
11, 554624, Note_on_c, 5, 62, 0
11, 554640, Note_on_c, 5, 62, 92
11, 554640, Note_on_c, 5, 50, 92
11, 554744, Note_on_c, 5, 62, 0
11, 554744, Note_on_c, 5, 50, 0
11, 554760, Note_on_c, 5, 62, 92
11, 554760, Note_on_c, 5, 50, 92
11, 554864, Note_on_c, 5, 62, 0
11, 554864, Note_on_c, 5, 50, 0
11, 554880, Note_on_c, 5, 50, 92
11, 554880, Note_on_c, 5, 62, 92
11, 554984, Note_on_c, 5, 50, 0
11, 554984, Note_on_c, 5, 62, 0
11, 555000, Note_on_c, 5, 62, 92
11, 555000, Note_on_c, 5, 50, 92
11, 555104, Note_on_c, 5, 62, 0
11, 555104, Note_on_c, 5, 50, 0
11, 555120, Note_on_c, 5, 50, 92
11, 555120, Note_on_c, 5, 62, 92
11, 555224, Note_on_c, 5, 50, 0
11, 555224, Note_on_c, 5, 62, 0
11, 555240, Note_on_c, 5, 50, 92
11, 555240, Note_on_c, 5, 62, 92
11, 555344, Note_on_c, 5, 50, 0
11, 555344, Note_on_c, 5, 62, 0
11, 555360, Note_on_c, 5, 62, 92
11, 555360, Note_on_c, 5, 50, 92
11, 555464, Note_on_c, 5, 62, 0
11, 555464, Note_on_c, 5, 50, 0
11, 555480, Note_on_c, 5, 50, 92
11, 555480, Note_on_c, 5, 62, 92
11, 555584, Note_on_c, 5, 50, 0
11, 555584, Note_on_c, 5, 62, 0
11, 555600, Note_on_c, 5, 62, 92
11, 555600, Note_on_c, 5, 50, 92
11, 555704, Note_on_c, 5, 62, 0
11, 555704, Note_on_c, 5, 50, 0
11, 555720, Note_on_c, 5, 62, 92
11, 555720, Note_on_c, 5, 50, 92
11, 555824, Note_on_c, 5, 62, 0
11, 555824, Note_on_c, 5, 50, 0
11, 555840, Note_on_c, 5, 50, 92
11, 555840, Note_on_c, 5, 62, 92
11, 555944, Note_on_c, 5, 50, 0
11, 555944, Note_on_c, 5, 62, 0
11, 555960, Note_on_c, 5, 50, 92
11, 555960, Note_on_c, 5, 62, 92
11, 556064, Note_on_c, 5, 50, 0
11, 556064, Note_on_c, 5, 62, 0
11, 556080, Note_on_c, 5, 62, 92
11, 556080, Note_on_c, 5, 50, 92
11, 556184, Note_on_c, 5, 62, 0
11, 556184, Note_on_c, 5, 50, 0
11, 556200, Note_on_c, 5, 62, 92
11, 556200, Note_on_c, 5, 50, 92
11, 556304, Note_on_c, 5, 62, 0
11, 556304, Note_on_c, 5, 50, 0
11, 556320, Note_on_c, 5, 50, 92
11, 556320, Note_on_c, 5, 62, 92
11, 556424, Note_on_c, 5, 50, 0
11, 556424, Note_on_c, 5, 62, 0
11, 556440, Note_on_c, 5, 50, 92
11, 556440, Note_on_c, 5, 62, 92
11, 556544, Note_on_c, 5, 50, 0
11, 556544, Note_on_c, 5, 62, 0
11, 556560, Note_on_c, 5, 62, 92
11, 556560, Note_on_c, 5, 50, 92
11, 556664, Note_on_c, 5, 62, 0
11, 556664, Note_on_c, 5, 50, 0
11, 556680, Note_on_c, 5, 62, 92
11, 556680, Note_on_c, 5, 50, 92
11, 556784, Note_on_c, 5, 62, 0
11, 556784, Note_on_c, 5, 50, 0
11, 556800, Note_on_c, 5, 62, 92
11, 556800, Note_on_c, 5, 50, 92
11, 556904, Note_on_c, 5, 62, 0
11, 556904, Note_on_c, 5, 50, 0
11, 556920, Note_on_c, 5, 62, 92
11, 556920, Note_on_c, 5, 50, 92
11, 557084, Note_on_c, 5, 62, 0
11, 557084, Note_on_c, 5, 50, 0
11, 557100, Note_on_c, 5, 62, 92
11, 557100, Note_on_c, 5, 50, 92
11, 557144, Note_on_c, 5, 62, 0
11, 557144, Note_on_c, 5, 50, 0
11, 557160, Note_on_c, 5, 50, 92
11, 557160, Note_on_c, 5, 62, 92
11, 557264, Note_on_c, 5, 50, 0
11, 557264, Note_on_c, 5, 62, 0
11, 557280, Note_on_c, 5, 50, 92
11, 557280, Note_on_c, 5, 62, 92
11, 557384, Note_on_c, 5, 50, 0
11, 557384, Note_on_c, 5, 62, 0
11, 557400, Note_on_c, 5, 50, 92
11, 557400, Note_on_c, 5, 62, 92
11, 557504, Note_on_c, 5, 50, 0
11, 557504, Note_on_c, 5, 62, 0
11, 557520, Note_on_c, 5, 62, 92
11, 557520, Note_on_c, 5, 50, 92
11, 557624, Note_on_c, 5, 62, 0
11, 557624, Note_on_c, 5, 50, 0
11, 557640, Note_on_c, 5, 50, 92
11, 557640, Note_on_c, 5, 62, 92
11, 557759, Note_on_c, 5, 50, 0
11, 557759, Note_on_c, 5, 62, 0
11, 558360, Note_on_c, 5, 60, 92
11, 558524, Note_on_c, 5, 60, 0
11, 558540, Note_on_c, 5, 60, 92
11, 558584, Note_on_c, 5, 60, 0
11, 558600, Note_on_c, 5, 60, 92
11, 558704, Note_on_c, 5, 60, 0
11, 558720, Note_on_c, 5, 60, 92
11, 558824, Note_on_c, 5, 60, 0
11, 558840, Note_on_c, 5, 60, 92
11, 558944, Note_on_c, 5, 60, 0
11, 558960, Note_on_c, 5, 60, 92
11, 559064, Note_on_c, 5, 60, 0
11, 559080, Note_on_c, 5, 53, 92
11, 559080, Note_on_c, 5, 65, 92
11, 559199, Note_on_c, 5, 53, 0
11, 559199, Note_on_c, 5, 65, 0
11, 559800, Control_c, 5, 11, 87
11, 560160, Note_on_c, 5, 46, 68
11, 560160, Note_on_c, 5, 58, 68
11, 560160, Control_c, 5, 11, 87
11, 560190, Control_c, 5, 11, 88
11, 560220, Control_c, 5, 11, 89
11, 560250, Control_c, 5, 11, 90
11, 560280, Control_c, 5, 11, 91
11, 560310, Control_c, 5, 11, 93
11, 560340, Control_c, 5, 11, 94
11, 560370, Control_c, 5, 11, 95
11, 560400, Control_c, 5, 11, 96
11, 560430, Control_c, 5, 11, 97
11, 560460, Control_c, 5, 11, 98
11, 560490, Control_c, 5, 11, 99
11, 560520, Control_c, 5, 11, 100
11, 560550, Control_c, 5, 11, 101
11, 560580, Control_c, 5, 11, 103
11, 560610, Control_c, 5, 11, 104
11, 560640, Control_c, 5, 11, 105
11, 560670, Control_c, 5, 11, 106
11, 560700, Control_c, 5, 11, 107
11, 560730, Control_c, 5, 11, 108
11, 560760, Control_c, 5, 11, 109
11, 560790, Control_c, 5, 11, 110
11, 560820, Control_c, 5, 11, 111
11, 560850, Control_c, 5, 11, 113
11, 560880, Control_c, 5, 11, 114
11, 560910, Control_c, 5, 11, 115
11, 560940, Control_c, 5, 11, 116
11, 560970, Control_c, 5, 11, 117
11, 561000, Control_c, 5, 11, 118
11, 561030, Control_c, 5, 11, 119
11, 561060, Control_c, 5, 11, 120
11, 561090, Control_c, 5, 11, 121
11, 561120, Control_c, 5, 11, 123
11, 561150, Control_c, 5, 11, 124
11, 561180, Control_c, 5, 11, 125
11, 561210, Control_c, 5, 11, 127
11, 561359, Note_on_c, 5, 46, 0
11, 561359, Note_on_c, 5, 58, 0
11, 561600, Control_c, 5, 11, 67
11, 561960, Note_on_c, 5, 46, 80
11, 561960, Note_on_c, 5, 58, 80
11, 561960, Control_c, 5, 11, 67
11, 561990, Control_c, 5, 11, 68
11, 562020, Control_c, 5, 11, 70
11, 562050, Control_c, 5, 11, 71
11, 562080, Control_c, 5, 11, 72
11, 562110, Control_c, 5, 11, 73
11, 562140, Control_c, 5, 11, 75
11, 562170, Control_c, 5, 11, 76
11, 562200, Control_c, 5, 11, 77
11, 562230, Control_c, 5, 11, 78
11, 562260, Control_c, 5, 11, 80
11, 562290, Control_c, 5, 11, 81
11, 562320, Control_c, 5, 11, 82
11, 562350, Control_c, 5, 11, 83
11, 562380, Control_c, 5, 11, 85
11, 562410, Control_c, 5, 11, 86
11, 562440, Control_c, 5, 11, 87
11, 562470, Control_c, 5, 11, 88
11, 562500, Control_c, 5, 11, 90
11, 562530, Control_c, 5, 11, 91
11, 562560, Control_c, 5, 11, 92
11, 562590, Control_c, 5, 11, 93
11, 562620, Control_c, 5, 11, 95
11, 562650, Control_c, 5, 11, 96
11, 562680, Control_c, 5, 11, 97
11, 562710, Control_c, 5, 11, 98
11, 562740, Control_c, 5, 11, 100
11, 562770, Control_c, 5, 11, 101
11, 562799, Note_on_c, 5, 46, 0
11, 562799, Note_on_c, 5, 58, 0
11, 562800, Control_c, 5, 11, 102
11, 562830, Control_c, 5, 11, 103
11, 562860, Control_c, 5, 11, 105
11, 562890, Control_c, 5, 11, 106
11, 562920, Control_c, 5, 11, 107
11, 562950, Control_c, 5, 11, 108
11, 562980, Control_c, 5, 11, 110
11, 563010, Control_c, 5, 11, 111
11, 563040, Control_c, 5, 11, 112
11, 563070, Control_c, 5, 11, 113
11, 563100, Control_c, 5, 11, 115
11, 563130, Control_c, 5, 11, 116
11, 563160, Control_c, 5, 11, 117
11, 563190, Control_c, 5, 11, 118
11, 563220, Control_c, 5, 11, 120
11, 563250, Control_c, 5, 11, 121
11, 563280, Control_c, 5, 11, 122
11, 563310, Control_c, 5, 11, 123
11, 563340, Control_c, 5, 11, 125
11, 563370, Control_c, 5, 11, 127
11, 564120, Note_on_c, 5, 65, 80
11, 564120, Note_on_c, 5, 53, 80
11, 564224, Note_on_c, 5, 65, 0
11, 564224, Note_on_c, 5, 53, 0
11, 564240, Note_on_c, 5, 53, 80
11, 564240, Note_on_c, 5, 65, 80
11, 564359, Note_on_c, 5, 53, 0
11, 564359, Note_on_c, 5, 65, 0
11, 564720, Note_on_c, 5, 65, 80
11, 564720, Note_on_c, 5, 53, 80
11, 564824, Note_on_c, 5, 65, 0
11, 564824, Note_on_c, 5, 53, 0
11, 564840, Note_on_c, 5, 65, 80
11, 564840, Note_on_c, 5, 53, 80
11, 564944, Note_on_c, 5, 65, 0
11, 564944, Note_on_c, 5, 53, 0
11, 564960, Note_on_c, 5, 65, 80
11, 564960, Note_on_c, 5, 53, 80
11, 565079, Note_on_c, 5, 65, 0
11, 565079, Note_on_c, 5, 53, 0
11, 565560, Note_on_c, 5, 65, 80
11, 565560, Note_on_c, 5, 53, 80
11, 565664, Note_on_c, 5, 65, 0
11, 565664, Note_on_c, 5, 53, 0
11, 565680, Note_on_c, 5, 65, 80
11, 565680, Note_on_c, 5, 53, 80
11, 565799, Note_on_c, 5, 65, 0
11, 565799, Note_on_c, 5, 53, 0
11, 566280, Note_on_c, 5, 50, 80
11, 566280, Note_on_c, 5, 62, 80
11, 566444, Note_on_c, 5, 50, 0
11, 566444, Note_on_c, 5, 62, 0
11, 566460, Note_on_c, 5, 62, 80
11, 566460, Note_on_c, 5, 50, 80
11, 566504, Note_on_c, 5, 62, 0
11, 566504, Note_on_c, 5, 50, 0
11, 566520, Note_on_c, 5, 50, 80
11, 566520, Note_on_c, 5, 62, 80
11, 566639, Note_on_c, 5, 50, 0
11, 566639, Note_on_c, 5, 62, 0
11, 567000, Note_on_c, 5, 50, 80
11, 567000, Note_on_c, 5, 62, 80
11, 567164, Note_on_c, 5, 50, 0
11, 567164, Note_on_c, 5, 62, 0
11, 567180, Note_on_c, 5, 50, 80
11, 567180, Note_on_c, 5, 62, 80
11, 567224, Note_on_c, 5, 50, 0
11, 567224, Note_on_c, 5, 62, 0
11, 567240, Note_on_c, 5, 62, 80
11, 567240, Note_on_c, 5, 50, 80
11, 567359, Note_on_c, 5, 62, 0
11, 567359, Note_on_c, 5, 50, 0
11, 569520, Note_on_c, 5, 50, 32
11, 569520, Note_on_c, 5, 62, 32
11, 569684, Note_on_c, 5, 50, 0
11, 569684, Note_on_c, 5, 62, 0
11, 569700, Note_on_c, 5, 50, 32
11, 569700, Note_on_c, 5, 62, 32
11, 569744, Note_on_c, 5, 50, 0
11, 569744, Note_on_c, 5, 62, 0
11, 569760, Note_on_c, 5, 62, 32
11, 569760, Note_on_c, 5, 50, 32
11, 569864, Note_on_c, 5, 62, 0
11, 569864, Note_on_c, 5, 50, 0
11, 569880, Note_on_c, 5, 50, 32
11, 569880, Note_on_c, 5, 62, 32
11, 569999, Note_on_c, 5, 50, 0
11, 569999, Note_on_c, 5, 62, 0
11, 572400, Note_on_c, 5, 50, 40
11, 572400, Note_on_c, 5, 62, 40
11, 572564, Note_on_c, 5, 50, 0
11, 572564, Note_on_c, 5, 62, 0
11, 572580, Note_on_c, 5, 62, 44
11, 572580, Note_on_c, 5, 50, 44
11, 572624, Note_on_c, 5, 62, 0
11, 572624, Note_on_c, 5, 50, 0
11, 572640, Note_on_c, 5, 50, 46
11, 572640, Note_on_c, 5, 62, 46
11, 572744, Note_on_c, 5, 50, 0
11, 572744, Note_on_c, 5, 62, 0
11, 572760, Note_on_c, 5, 50, 49
11, 572760, Note_on_c, 5, 62, 49
11, 572879, Note_on_c, 5, 50, 0
11, 572879, Note_on_c, 5, 62, 0
11, 573120, Note_on_c, 5, 62, 57
11, 573120, Note_on_c, 5, 50, 57
11, 573284, Note_on_c, 5, 62, 0
11, 573284, Note_on_c, 5, 50, 0
11, 573300, Note_on_c, 5, 62, 62
11, 573300, Note_on_c, 5, 50, 62
11, 573344, Note_on_c, 5, 62, 0
11, 573344, Note_on_c, 5, 50, 0
11, 573360, Note_on_c, 5, 50, 63
11, 573360, Note_on_c, 5, 62, 63
11, 573464, Note_on_c, 5, 50, 0
11, 573464, Note_on_c, 5, 62, 0
11, 573480, Note_on_c, 5, 62, 66
11, 573480, Note_on_c, 5, 50, 66
11, 573599, Note_on_c, 5, 62, 0
11, 573599, Note_on_c, 5, 50, 0
11, 573840, Note_on_c, 5, 62, 74
11, 573840, Note_on_c, 5, 50, 74
11, 574004, Note_on_c, 5, 62, 0
11, 574004, Note_on_c, 5, 50, 0
11, 574020, Note_on_c, 5, 50, 79
11, 574020, Note_on_c, 5, 62, 79
11, 574064, Note_on_c, 5, 50, 0
11, 574064, Note_on_c, 5, 62, 0
11, 574080, Note_on_c, 5, 62, 80
11, 574080, Note_on_c, 5, 50, 80
11, 574184, Note_on_c, 5, 62, 0
11, 574184, Note_on_c, 5, 50, 0
11, 574200, Note_on_c, 5, 50, 83
11, 574200, Note_on_c, 5, 62, 83
11, 574319, Note_on_c, 5, 50, 0
11, 574319, Note_on_c, 5, 62, 0
11, 581280, Note_on_c, 5, 62, 80
11, 581379, Note_on_c, 5, 62, 0
11, 581400, Note_on_c, 5, 50, 80
11, 581519, Note_on_c, 5, 50, 0
11, 582000, Note_on_c, 5, 50, 80
11, 582000, Note_on_c, 5, 62, 80
11, 582119, Note_on_c, 5, 50, 0
11, 582119, Note_on_c, 5, 62, 0
11, 586080, Note_on_c, 5, 62, 80
11, 586179, Note_on_c, 5, 62, 0
11, 586200, Note_on_c, 5, 50, 80
11, 586319, Note_on_c, 5, 50, 0
11, 586800, Note_on_c, 5, 62, 80
11, 586800, Note_on_c, 5, 50, 80
11, 586919, Note_on_c, 5, 62, 0
11, 586919, Note_on_c, 5, 50, 0
11, 586919, End_track
12, 0, Start_track
12, 0, Title_t, "Trumpet in D"
12, 0, MIDI_port, 0
12, 0, Program_c, 6, 56
12, 0, Control_c, 6, 7, 112
12, 0, Control_c, 6, 10, 60
12, 0, Control_c, 6, 11, 127
12, 1800, Note_on_c, 6, 74, 92
12, 1964, Note_on_c, 6, 74, 0
12, 1980, Note_on_c, 6, 62, 92
12, 2024, Note_on_c, 6, 62, 0
12, 2040, Note_on_c, 6, 62, 92
12, 2159, Note_on_c, 6, 62, 0
12, 14040, Note_on_c, 6, 69, 32
12, 14040, Note_on_c, 6, 57, 32
12, 14159, Note_on_c, 6, 69, 0
12, 14159, Note_on_c, 6, 57, 0
12, 14400, Note_on_c, 6, 57, 32
12, 14400, Note_on_c, 6, 69, 32
12, 14519, Note_on_c, 6, 57, 0
12, 14519, Note_on_c, 6, 69, 0
12, 14760, Note_on_c, 6, 57, 32
12, 14760, Note_on_c, 6, 69, 32
12, 14879, Note_on_c, 6, 57, 0
12, 14879, Note_on_c, 6, 69, 0
12, 15120, Note_on_c, 6, 57, 32
12, 15120, Note_on_c, 6, 69, 32
12, 15239, Note_on_c, 6, 57, 0
12, 15239, Note_on_c, 6, 69, 0
12, 15480, Note_on_c, 6, 69, 32
12, 15480, Note_on_c, 6, 57, 32
12, 15599, Note_on_c, 6, 69, 0
12, 15599, Note_on_c, 6, 57, 0
12, 15840, Note_on_c, 6, 69, 32
12, 15840, Note_on_c, 6, 57, 32
12, 15959, Note_on_c, 6, 69, 0
12, 15959, Note_on_c, 6, 57, 0
12, 16200, Note_on_c, 6, 57, 37
12, 16200, Note_on_c, 6, 69, 37
12, 16319, Note_on_c, 6, 57, 0
12, 16319, Note_on_c, 6, 69, 0
12, 16560, Note_on_c, 6, 57, 42
12, 16560, Note_on_c, 6, 69, 42
12, 16679, Note_on_c, 6, 57, 0
12, 16679, Note_on_c, 6, 69, 0
12, 16920, Note_on_c, 6, 69, 47
12, 16920, Note_on_c, 6, 57, 47
12, 17039, Note_on_c, 6, 69, 0
12, 17039, Note_on_c, 6, 57, 0
12, 17280, Note_on_c, 6, 69, 52
12, 17280, Note_on_c, 6, 57, 52
12, 17399, Note_on_c, 6, 69, 0
12, 17399, Note_on_c, 6, 57, 0
12, 17640, Note_on_c, 6, 69, 57
12, 17640, Note_on_c, 6, 57, 57
12, 17759, Note_on_c, 6, 69, 0
12, 17759, Note_on_c, 6, 57, 0
12, 18000, Note_on_c, 6, 69, 62
12, 18000, Note_on_c, 6, 57, 62
12, 18119, Note_on_c, 6, 69, 0
12, 18119, Note_on_c, 6, 57, 0
12, 18360, Note_on_c, 6, 57, 67
12, 18360, Note_on_c, 6, 69, 67
12, 18479, Note_on_c, 6, 57, 0
12, 18479, Note_on_c, 6, 69, 0
12, 18720, Note_on_c, 6, 69, 72
12, 18720, Note_on_c, 6, 57, 72
12, 18839, Note_on_c, 6, 69, 0
12, 18839, Note_on_c, 6, 57, 0
12, 19080, Note_on_c, 6, 69, 77
12, 19080, Note_on_c, 6, 57, 77
12, 19199, Note_on_c, 6, 69, 0
12, 19199, Note_on_c, 6, 57, 0
12, 19440, Note_on_c, 6, 57, 82
12, 19440, Note_on_c, 6, 69, 82
12, 19559, Note_on_c, 6, 57, 0
12, 19559, Note_on_c, 6, 69, 0
12, 19800, Note_on_c, 6, 69, 87
12, 19800, Note_on_c, 6, 57, 87
12, 19919, Note_on_c, 6, 69, 0
12, 19919, Note_on_c, 6, 57, 0
12, 20160, Note_on_c, 6, 57, 92
12, 20160, Note_on_c, 6, 69, 92
12, 20324, Note_on_c, 6, 57, 0
12, 20324, Note_on_c, 6, 69, 0
12, 20340, Note_on_c, 6, 69, 92
12, 20340, Note_on_c, 6, 57, 92
12, 20384, Note_on_c, 6, 69, 0
12, 20384, Note_on_c, 6, 57, 0
12, 20400, Note_on_c, 6, 69, 92
12, 20400, Note_on_c, 6, 57, 92
12, 20504, Note_on_c, 6, 69, 0
12, 20504, Note_on_c, 6, 57, 0
12, 20520, Note_on_c, 6, 62, 92
12, 20520, Note_on_c, 6, 74, 92
12, 20639, Note_on_c, 6, 62, 0
12, 20639, Note_on_c, 6, 74, 0
12, 20880, Note_on_c, 6, 69, 92
12, 20880, Note_on_c, 6, 57, 92
12, 20999, Note_on_c, 6, 69, 0
12, 20999, Note_on_c, 6, 57, 0
12, 21240, Note_on_c, 6, 74, 92
12, 21240, Note_on_c, 6, 62, 92
12, 21359, Note_on_c, 6, 74, 0
12, 21359, Note_on_c, 6, 62, 0
12, 21600, Note_on_c, 6, 74, 80
12, 21600, Note_on_c, 6, 62, 80
12, 21719, Note_on_c, 6, 74, 0
12, 21719, Note_on_c, 6, 62, 0
12, 21960, Note_on_c, 6, 62, 80
12, 21960, Note_on_c, 6, 74, 80
12, 22079, Note_on_c, 6, 62, 0
12, 22079, Note_on_c, 6, 74, 0
12, 22320, Note_on_c, 6, 57, 80
12, 22320, Note_on_c, 6, 69, 80
12, 22439, Note_on_c, 6, 57, 0
12, 22439, Note_on_c, 6, 69, 0
12, 22680, Note_on_c, 6, 62, 80
12, 22680, Note_on_c, 6, 74, 80
12, 22799, Note_on_c, 6, 62, 0
12, 22799, Note_on_c, 6, 74, 0
12, 23040, Note_on_c, 6, 62, 80
12, 23040, Note_on_c, 6, 74, 80
12, 23159, Note_on_c, 6, 62, 0
12, 23159, Note_on_c, 6, 74, 0
12, 23400, Note_on_c, 6, 74, 80
12, 23400, Note_on_c, 6, 62, 80
12, 23519, Note_on_c, 6, 74, 0
12, 23519, Note_on_c, 6, 62, 0
12, 23760, Note_on_c, 6, 69, 80
12, 23760, Note_on_c, 6, 57, 80
12, 23879, Note_on_c, 6, 69, 0
12, 23879, Note_on_c, 6, 57, 0
12, 24120, Note_on_c, 6, 62, 80
12, 24120, Note_on_c, 6, 74, 80
12, 24239, Note_on_c, 6, 62, 0
12, 24239, Note_on_c, 6, 74, 0
12, 24480, Note_on_c, 6, 62, 80
12, 24480, Note_on_c, 6, 74, 80
12, 24599, Note_on_c, 6, 62, 0
12, 24599, Note_on_c, 6, 74, 0
12, 24840, Note_on_c, 6, 72, 80
12, 24959, Note_on_c, 6, 72, 0
12, 25560, Note_on_c, 6, 72, 80
12, 25679, Note_on_c, 6, 72, 0
12, 25920, Note_on_c, 6, 74, 80
12, 25920, Note_on_c, 6, 62, 80
12, 26039, Note_on_c, 6, 74, 0
12, 26039, Note_on_c, 6, 62, 0
12, 26280, Note_on_c, 6, 72, 80
12, 26399, Note_on_c, 6, 72, 0
12, 26640, Note_on_c, 6, 72, 80
12, 26759, Note_on_c, 6, 72, 0
12, 27000, Note_on_c, 6, 72, 80
12, 27119, Note_on_c, 6, 72, 0
12, 27360, Note_on_c, 6, 79, 80
12, 27479, Note_on_c, 6, 79, 0
12, 38880, Note_on_c, 6, 72, 92
12, 39044, Note_on_c, 6, 72, 0
12, 39060, Note_on_c, 6, 72, 92
12, 39104, Note_on_c, 6, 72, 0
12, 39120, Note_on_c, 6, 72, 92
12, 39224, Note_on_c, 6, 72, 0
12, 39240, Note_on_c, 6, 72, 92
12, 39344, Note_on_c, 6, 72, 0
12, 40320, Note_on_c, 6, 62, 92
12, 40320, Note_on_c, 6, 74, 92
12, 40484, Note_on_c, 6, 62, 0
12, 40484, Note_on_c, 6, 74, 0
12, 40500, Note_on_c, 6, 62, 92
12, 40544, Note_on_c, 6, 62, 0
12, 40560, Note_on_c, 6, 62, 92
12, 40664, Note_on_c, 6, 62, 0
12, 40680, Note_on_c, 6, 62, 92
12, 40680, Note_on_c, 6, 74, 92
12, 40799, Note_on_c, 6, 62, 0
12, 40799, Note_on_c, 6, 74, 0
12, 46800, Note_on_c, 6, 72, 80
12, 46919, Note_on_c, 6, 72, 0
12, 47520, Note_on_c, 6, 72, 80
12, 47639, Note_on_c, 6, 72, 0
12, 48240, Note_on_c, 6, 72, 80
12, 48359, Note_on_c, 6, 72, 0
12, 48960, Note_on_c, 6, 72, 80
12, 49079, Note_on_c, 6, 72, 0
12, 65160, Note_on_c, 6, 57, 32
12, 65160, Note_on_c, 6, 69, 32
12, 65279, Note_on_c, 6, 57, 0
12, 65279, Note_on_c, 6, 69, 0
12, 65520, Note_on_c, 6, 69, 32
12, 65520, Note_on_c, 6, 57, 32
12, 65639, Note_on_c, 6, 69, 0
12, 65639, Note_on_c, 6, 57, 0
12, 65880, Note_on_c, 6, 69, 32
12, 65880, Note_on_c, 6, 57, 32
12, 65999, Note_on_c, 6, 69, 0
12, 65999, Note_on_c, 6, 57, 0
12, 66240, Note_on_c, 6, 69, 32
12, 66240, Note_on_c, 6, 57, 32
12, 66359, Note_on_c, 6, 69, 0
12, 66359, Note_on_c, 6, 57, 0
12, 66600, Note_on_c, 6, 69, 32
12, 66600, Note_on_c, 6, 57, 32
12, 66719, Note_on_c, 6, 69, 0
12, 66719, Note_on_c, 6, 57, 0
12, 66960, Note_on_c, 6, 69, 32
12, 66960, Note_on_c, 6, 57, 32
12, 67079, Note_on_c, 6, 69, 0
12, 67079, Note_on_c, 6, 57, 0
12, 67320, Note_on_c, 6, 69, 37
12, 67320, Note_on_c, 6, 57, 37
12, 67439, Note_on_c, 6, 69, 0
12, 67439, Note_on_c, 6, 57, 0
12, 67680, Note_on_c, 6, 57, 42
12, 67680, Note_on_c, 6, 69, 42
12, 67799, Note_on_c, 6, 57, 0
12, 67799, Note_on_c, 6, 69, 0
12, 68040, Note_on_c, 6, 69, 47
12, 68040, Note_on_c, 6, 57, 47
12, 68159, Note_on_c, 6, 69, 0
12, 68159, Note_on_c, 6, 57, 0
12, 68400, Note_on_c, 6, 57, 52
12, 68400, Note_on_c, 6, 69, 52
12, 68519, Note_on_c, 6, 57, 0
12, 68519, Note_on_c, 6, 69, 0
12, 68760, Note_on_c, 6, 69, 57
12, 68760, Note_on_c, 6, 57, 57
12, 68879, Note_on_c, 6, 69, 0
12, 68879, Note_on_c, 6, 57, 0
12, 69120, Note_on_c, 6, 57, 62
12, 69120, Note_on_c, 6, 69, 62
12, 69239, Note_on_c, 6, 57, 0
12, 69239, Note_on_c, 6, 69, 0
12, 69480, Note_on_c, 6, 57, 67
12, 69480, Note_on_c, 6, 69, 67
12, 69599, Note_on_c, 6, 57, 0
12, 69599, Note_on_c, 6, 69, 0
12, 69840, Note_on_c, 6, 69, 72
12, 69840, Note_on_c, 6, 57, 72
12, 69959, Note_on_c, 6, 69, 0
12, 69959, Note_on_c, 6, 57, 0
12, 70200, Note_on_c, 6, 57, 77
12, 70200, Note_on_c, 6, 69, 77
12, 70319, Note_on_c, 6, 57, 0
12, 70319, Note_on_c, 6, 69, 0
12, 70560, Note_on_c, 6, 69, 82
12, 70560, Note_on_c, 6, 57, 82
12, 70679, Note_on_c, 6, 69, 0
12, 70679, Note_on_c, 6, 57, 0
12, 70920, Note_on_c, 6, 57, 87
12, 70920, Note_on_c, 6, 69, 87
12, 71039, Note_on_c, 6, 57, 0
12, 71039, Note_on_c, 6, 69, 0
12, 71280, Note_on_c, 6, 57, 92
12, 71280, Note_on_c, 6, 69, 92
12, 71444, Note_on_c, 6, 57, 0
12, 71444, Note_on_c, 6, 69, 0
12, 71460, Note_on_c, 6, 57, 92
12, 71460, Note_on_c, 6, 69, 92
12, 71504, Note_on_c, 6, 57, 0
12, 71504, Note_on_c, 6, 69, 0
12, 71520, Note_on_c, 6, 69, 92
12, 71520, Note_on_c, 6, 57, 92
12, 71624, Note_on_c, 6, 69, 0
12, 71624, Note_on_c, 6, 57, 0
12, 71640, Note_on_c, 6, 62, 92
12, 71640, Note_on_c, 6, 74, 92
12, 71759, Note_on_c, 6, 62, 0
12, 71759, Note_on_c, 6, 74, 0
12, 72000, Note_on_c, 6, 69, 92
12, 72000, Note_on_c, 6, 57, 92
12, 72119, Note_on_c, 6, 69, 0
12, 72119, Note_on_c, 6, 57, 0
12, 72360, Note_on_c, 6, 62, 92
12, 72360, Note_on_c, 6, 74, 92
12, 72479, Note_on_c, 6, 62, 0
12, 72479, Note_on_c, 6, 74, 0
12, 72720, Note_on_c, 6, 62, 80
12, 72720, Note_on_c, 6, 74, 80
12, 72839, Note_on_c, 6, 62, 0
12, 72839, Note_on_c, 6, 74, 0
12, 73080, Note_on_c, 6, 74, 80
12, 73080, Note_on_c, 6, 62, 80
12, 73199, Note_on_c, 6, 74, 0
12, 73199, Note_on_c, 6, 62, 0
12, 73440, Note_on_c, 6, 69, 80
12, 73440, Note_on_c, 6, 57, 80
12, 73559, Note_on_c, 6, 69, 0
12, 73559, Note_on_c, 6, 57, 0
12, 73800, Note_on_c, 6, 62, 80
12, 73800, Note_on_c, 6, 74, 80
12, 73919, Note_on_c, 6, 62, 0
12, 73919, Note_on_c, 6, 74, 0
12, 74160, Note_on_c, 6, 62, 80
12, 74160, Note_on_c, 6, 74, 80
12, 74279, Note_on_c, 6, 62, 0
12, 74279, Note_on_c, 6, 74, 0
12, 74520, Note_on_c, 6, 74, 80
12, 74520, Note_on_c, 6, 62, 80
12, 74639, Note_on_c, 6, 74, 0
12, 74639, Note_on_c, 6, 62, 0
12, 74880, Note_on_c, 6, 57, 80
12, 74880, Note_on_c, 6, 69, 80
12, 74999, Note_on_c, 6, 57, 0
12, 74999, Note_on_c, 6, 69, 0
12, 75240, Note_on_c, 6, 74, 80
12, 75240, Note_on_c, 6, 62, 80
12, 75359, Note_on_c, 6, 74, 0
12, 75359, Note_on_c, 6, 62, 0
12, 75600, Note_on_c, 6, 74, 80
12, 75600, Note_on_c, 6, 62, 80
12, 75719, Note_on_c, 6, 74, 0
12, 75719, Note_on_c, 6, 62, 0
12, 75960, Note_on_c, 6, 72, 80
12, 76079, Note_on_c, 6, 72, 0
12, 76680, Note_on_c, 6, 72, 80
12, 76799, Note_on_c, 6, 72, 0
12, 77040, Note_on_c, 6, 62, 80
12, 77040, Note_on_c, 6, 74, 80
12, 77159, Note_on_c, 6, 62, 0
12, 77159, Note_on_c, 6, 74, 0
12, 77400, Note_on_c, 6, 72, 80
12, 77519, Note_on_c, 6, 72, 0
12, 77760, Note_on_c, 6, 72, 80
12, 77879, Note_on_c, 6, 72, 0
12, 78120, Note_on_c, 6, 72, 80
12, 78239, Note_on_c, 6, 72, 0
12, 78480, Note_on_c, 6, 79, 80
12, 78599, Note_on_c, 6, 79, 0
12, 90000, Note_on_c, 6, 72, 92
12, 90164, Note_on_c, 6, 72, 0
12, 90180, Note_on_c, 6, 72, 92
12, 90224, Note_on_c, 6, 72, 0
12, 90240, Note_on_c, 6, 72, 92
12, 90344, Note_on_c, 6, 72, 0
12, 90360, Note_on_c, 6, 72, 92
12, 90464, Note_on_c, 6, 72, 0
12, 91440, Note_on_c, 6, 74, 92
12, 91440, Note_on_c, 6, 62, 92
12, 91604, Note_on_c, 6, 74, 0
12, 91604, Note_on_c, 6, 62, 0
12, 91620, Note_on_c, 6, 62, 92
12, 91664, Note_on_c, 6, 62, 0
12, 91680, Note_on_c, 6, 62, 92
12, 91784, Note_on_c, 6, 62, 0
12, 91800, Note_on_c, 6, 62, 92
12, 91800, Note_on_c, 6, 74, 92
12, 91919, Note_on_c, 6, 62, 0
12, 91919, Note_on_c, 6, 74, 0
12, 97920, Note_on_c, 6, 72, 80
12, 98039, Note_on_c, 6, 72, 0
12, 98640, Note_on_c, 6, 72, 80
12, 98759, Note_on_c, 6, 72, 0
12, 99360, Note_on_c, 6, 72, 80
12, 99479, Note_on_c, 6, 72, 0
12, 100080, Note_on_c, 6, 72, 80
12, 100199, Note_on_c, 6, 72, 0
12, 112320, Note_on_c, 6, 69, 80
12, 112484, Note_on_c, 6, 69, 0
12, 112500, Note_on_c, 6, 69, 80
12, 112500, Note_on_c, 6, 57, 80
12, 112544, Note_on_c, 6, 69, 0
12, 112544, Note_on_c, 6, 57, 0
12, 112560, Note_on_c, 6, 57, 80
12, 112560, Note_on_c, 6, 69, 80
12, 112664, Note_on_c, 6, 57, 0
12, 112664, Note_on_c, 6, 69, 0
12, 128160, Note_on_c, 6, 74, 39
12, 128324, Note_on_c, 6, 74, 0
12, 128340, Note_on_c, 6, 62, 38
12, 128384, Note_on_c, 6, 62, 0
12, 128400, Note_on_c, 6, 62, 38
12, 128519, Note_on_c, 6, 62, 0
12, 144000, Note_on_c, 6, 74, 44
12, 144164, Note_on_c, 6, 74, 0
12, 144180, Note_on_c, 6, 62, 47
12, 144224, Note_on_c, 6, 62, 0
12, 144240, Note_on_c, 6, 62, 48
12, 144359, Note_on_c, 6, 62, 0
12, 145440, Note_on_c, 6, 74, 68
12, 145604, Note_on_c, 6, 74, 0
12, 145620, Note_on_c, 6, 62, 71
12, 145664, Note_on_c, 6, 62, 0
12, 145680, Note_on_c, 6, 62, 72
12, 145799, Note_on_c, 6, 62, 0
12, 146160, Note_on_c, 6, 74, 80
12, 146324, Note_on_c, 6, 74, 0
12, 146340, Note_on_c, 6, 62, 80
12, 146384, Note_on_c, 6, 62, 0
12, 146400, Note_on_c, 6, 62, 80
12, 146504, Note_on_c, 6, 62, 0
12, 146520, Note_on_c, 6, 74, 80
12, 146684, Note_on_c, 6, 74, 0
12, 146700, Note_on_c, 6, 62, 80
12, 146744, Note_on_c, 6, 62, 0
12, 146760, Note_on_c, 6, 62, 80
12, 146864, Note_on_c, 6, 62, 0
12, 146880, Note_on_c, 6, 74, 86
12, 147044, Note_on_c, 6, 74, 0
12, 147060, Note_on_c, 6, 62, 86
12, 147104, Note_on_c, 6, 62, 0
12, 147120, Note_on_c, 6, 62, 86
12, 147224, Note_on_c, 6, 62, 0
12, 147240, Note_on_c, 6, 74, 86
12, 147404, Note_on_c, 6, 74, 0
12, 147420, Note_on_c, 6, 62, 86
12, 147464, Note_on_c, 6, 62, 0
12, 147480, Note_on_c, 6, 62, 86
12, 147584, Note_on_c, 6, 62, 0
12, 147600, Note_on_c, 6, 74, 92
12, 147764, Note_on_c, 6, 74, 0
12, 147780, Note_on_c, 6, 62, 92
12, 147824, Note_on_c, 6, 62, 0
12, 147840, Note_on_c, 6, 62, 92
12, 147944, Note_on_c, 6, 62, 0
12, 147960, Note_on_c, 6, 74, 92
12, 148124, Note_on_c, 6, 74, 0
12, 148140, Note_on_c, 6, 62, 92
12, 148184, Note_on_c, 6, 62, 0
12, 148200, Note_on_c, 6, 62, 92
12, 148304, Note_on_c, 6, 62, 0
12, 148320, Note_on_c, 6, 74, 92
12, 148484, Note_on_c, 6, 74, 0
12, 148500, Note_on_c, 6, 62, 92
12, 148544, Note_on_c, 6, 62, 0
12, 148560, Note_on_c, 6, 62, 92
12, 148664, Note_on_c, 6, 62, 0
12, 148680, Note_on_c, 6, 74, 92
12, 148844, Note_on_c, 6, 74, 0
12, 148860, Note_on_c, 6, 62, 92
12, 148904, Note_on_c, 6, 62, 0
12, 148920, Note_on_c, 6, 62, 92
12, 149024, Note_on_c, 6, 62, 0
12, 149040, Note_on_c, 6, 74, 92
12, 149204, Note_on_c, 6, 74, 0
12, 149220, Note_on_c, 6, 62, 92
12, 149264, Note_on_c, 6, 62, 0
12, 149280, Note_on_c, 6, 62, 92
12, 149384, Note_on_c, 6, 62, 0
12, 149400, Note_on_c, 6, 74, 92
12, 149564, Note_on_c, 6, 74, 0
12, 149580, Note_on_c, 6, 62, 92
12, 149624, Note_on_c, 6, 62, 0
12, 149640, Note_on_c, 6, 62, 92
12, 149744, Note_on_c, 6, 62, 0
12, 149760, Note_on_c, 6, 74, 92
12, 149924, Note_on_c, 6, 74, 0
12, 149940, Note_on_c, 6, 62, 92
12, 149984, Note_on_c, 6, 62, 0
12, 150000, Note_on_c, 6, 62, 92
12, 150104, Note_on_c, 6, 62, 0
12, 150120, Note_on_c, 6, 74, 92
12, 150284, Note_on_c, 6, 74, 0
12, 150300, Note_on_c, 6, 62, 92
12, 150344, Note_on_c, 6, 62, 0
12, 150360, Note_on_c, 6, 62, 92
12, 150464, Note_on_c, 6, 62, 0
12, 150480, Note_on_c, 6, 74, 92
12, 150644, Note_on_c, 6, 74, 0
12, 150660, Note_on_c, 6, 62, 92
12, 150704, Note_on_c, 6, 62, 0
12, 150720, Note_on_c, 6, 62, 92
12, 150824, Note_on_c, 6, 62, 0
12, 150840, Note_on_c, 6, 74, 92
12, 151004, Note_on_c, 6, 74, 0
12, 151020, Note_on_c, 6, 62, 92
12, 151064, Note_on_c, 6, 62, 0
12, 151080, Note_on_c, 6, 62, 92
12, 151184, Note_on_c, 6, 62, 0
12, 151200, Note_on_c, 6, 74, 92
12, 151364, Note_on_c, 6, 74, 0
12, 151380, Note_on_c, 6, 62, 92
12, 151424, Note_on_c, 6, 62, 0
12, 151440, Note_on_c, 6, 62, 92
12, 151544, Note_on_c, 6, 62, 0
12, 151560, Note_on_c, 6, 74, 92
12, 151724, Note_on_c, 6, 74, 0
12, 151740, Note_on_c, 6, 62, 92
12, 151784, Note_on_c, 6, 62, 0
12, 151800, Note_on_c, 6, 62, 92
12, 151904, Note_on_c, 6, 62, 0
12, 151920, Note_on_c, 6, 74, 92
12, 152084, Note_on_c, 6, 74, 0
12, 152100, Note_on_c, 6, 62, 92
12, 152144, Note_on_c, 6, 62, 0
12, 152160, Note_on_c, 6, 62, 92
12, 152264, Note_on_c, 6, 62, 0
12, 152280, Note_on_c, 6, 74, 92
12, 152444, Note_on_c, 6, 74, 0
12, 152460, Note_on_c, 6, 62, 92
12, 152504, Note_on_c, 6, 62, 0
12, 152520, Note_on_c, 6, 62, 92
12, 152624, Note_on_c, 6, 62, 0
12, 152640, Note_on_c, 6, 74, 92
12, 152804, Note_on_c, 6, 74, 0
12, 152820, Note_on_c, 6, 62, 92
12, 152864, Note_on_c, 6, 62, 0
12, 152880, Note_on_c, 6, 62, 92
12, 152984, Note_on_c, 6, 62, 0
12, 153000, Note_on_c, 6, 74, 92
12, 153164, Note_on_c, 6, 74, 0
12, 153180, Note_on_c, 6, 62, 92
12, 153224, Note_on_c, 6, 62, 0
12, 153240, Note_on_c, 6, 62, 92
12, 153344, Note_on_c, 6, 62, 0
12, 153720, Note_on_c, 6, 74, 92
12, 153884, Note_on_c, 6, 74, 0
12, 153900, Note_on_c, 6, 62, 92
12, 153944, Note_on_c, 6, 62, 0
12, 153960, Note_on_c, 6, 62, 92
12, 154064, Note_on_c, 6, 62, 0
12, 154080, Note_on_c, 6, 74, 92
12, 154244, Note_on_c, 6, 74, 0
12, 154260, Note_on_c, 6, 62, 92
12, 154304, Note_on_c, 6, 62, 0
12, 154320, Note_on_c, 6, 62, 92
12, 154424, Note_on_c, 6, 62, 0
12, 154440, Note_on_c, 6, 74, 92
12, 154604, Note_on_c, 6, 74, 0
12, 154620, Note_on_c, 6, 62, 92
12, 154664, Note_on_c, 6, 62, 0
12, 154680, Note_on_c, 6, 62, 92
12, 154784, Note_on_c, 6, 62, 0
12, 169080, Note_on_c, 6, 74, 78
12, 169080, Note_on_c, 6, 62, 78
12, 169199, Note_on_c, 6, 74, 0
12, 169199, Note_on_c, 6, 62, 0
12, 169440, Note_on_c, 6, 74, 84
12, 169440, Note_on_c, 6, 62, 84
12, 169559, Note_on_c, 6, 74, 0
12, 169559, Note_on_c, 6, 62, 0
12, 169800, Note_on_c, 6, 57, 90
12, 169800, Note_on_c, 6, 69, 90
12, 169904, Note_on_c, 6, 57, 0
12, 169904, Note_on_c, 6, 69, 0
12, 169920, Note_on_c, 6, 74, 92
12, 169920, Note_on_c, 6, 62, 92
12, 170039, Note_on_c, 6, 74, 0
12, 170039, Note_on_c, 6, 62, 0
12, 170280, Note_on_c, 6, 62, 92
12, 170280, Note_on_c, 6, 74, 92
12, 170399, Note_on_c, 6, 62, 0
12, 170399, Note_on_c, 6, 74, 0
12, 170520, Note_on_c, 6, 74, 92
12, 170520, Note_on_c, 6, 62, 92
12, 170624, Note_on_c, 6, 74, 0
12, 170624, Note_on_c, 6, 62, 0
12, 170640, Note_on_c, 6, 62, 92
12, 170640, Note_on_c, 6, 74, 92
12, 170759, Note_on_c, 6, 62, 0
12, 170759, Note_on_c, 6, 74, 0
12, 170880, Note_on_c, 6, 62, 92
12, 170880, Note_on_c, 6, 74, 92
12, 170984, Note_on_c, 6, 62, 0
12, 170984, Note_on_c, 6, 74, 0
12, 171000, Note_on_c, 6, 62, 92
12, 171000, Note_on_c, 6, 74, 92
12, 171119, Note_on_c, 6, 62, 0
12, 171119, Note_on_c, 6, 74, 0
12, 171240, Note_on_c, 6, 74, 92
12, 171240, Note_on_c, 6, 62, 92
12, 171344, Note_on_c, 6, 74, 0
12, 171344, Note_on_c, 6, 62, 0
12, 171360, Note_on_c, 6, 74, 92
12, 171360, Note_on_c, 6, 62, 92
12, 171479, Note_on_c, 6, 74, 0
12, 171479, Note_on_c, 6, 62, 0
12, 171720, Note_on_c, 6, 62, 92
12, 171720, Note_on_c, 6, 74, 92
12, 171839, Note_on_c, 6, 62, 0
12, 171839, Note_on_c, 6, 74, 0
12, 171960, Note_on_c, 6, 62, 92
12, 171960, Note_on_c, 6, 74, 92
12, 172064, Note_on_c, 6, 62, 0
12, 172064, Note_on_c, 6, 74, 0
12, 172080, Note_on_c, 6, 62, 92
12, 172080, Note_on_c, 6, 74, 92
12, 172199, Note_on_c, 6, 62, 0
12, 172199, Note_on_c, 6, 74, 0
12, 172320, Note_on_c, 6, 62, 92
12, 172320, Note_on_c, 6, 74, 92
12, 172424, Note_on_c, 6, 62, 0
12, 172424, Note_on_c, 6, 74, 0
12, 172440, Note_on_c, 6, 74, 92
12, 172440, Note_on_c, 6, 62, 92
12, 172559, Note_on_c, 6, 74, 0
12, 172559, Note_on_c, 6, 62, 0
12, 172680, Note_on_c, 6, 62, 92
12, 172680, Note_on_c, 6, 74, 92
12, 172784, Note_on_c, 6, 62, 0
12, 172784, Note_on_c, 6, 74, 0
12, 172800, Note_on_c, 6, 74, 92
12, 172800, Note_on_c, 6, 62, 92
12, 172904, Note_on_c, 6, 74, 0
12, 172904, Note_on_c, 6, 62, 0
12, 172920, Note_on_c, 6, 74, 92
12, 172920, Note_on_c, 6, 62, 92
12, 173024, Note_on_c, 6, 74, 0
12, 173024, Note_on_c, 6, 62, 0
12, 173040, Note_on_c, 6, 62, 92
12, 173040, Note_on_c, 6, 74, 92
12, 173144, Note_on_c, 6, 62, 0
12, 173144, Note_on_c, 6, 74, 0
12, 173160, Note_on_c, 6, 74, 92
12, 173160, Note_on_c, 6, 62, 92
12, 173264, Note_on_c, 6, 74, 0
12, 173264, Note_on_c, 6, 62, 0
12, 173280, Note_on_c, 6, 74, 92
12, 173280, Note_on_c, 6, 62, 92
12, 173384, Note_on_c, 6, 74, 0
12, 173384, Note_on_c, 6, 62, 0
12, 173400, Note_on_c, 6, 62, 92
12, 173400, Note_on_c, 6, 74, 92
12, 173504, Note_on_c, 6, 62, 0
12, 173504, Note_on_c, 6, 74, 0
12, 173520, Note_on_c, 6, 74, 92
12, 173520, Note_on_c, 6, 62, 92
12, 173624, Note_on_c, 6, 74, 0
12, 173624, Note_on_c, 6, 62, 0
12, 173640, Note_on_c, 6, 74, 92
12, 173640, Note_on_c, 6, 62, 92
12, 173744, Note_on_c, 6, 74, 0
12, 173744, Note_on_c, 6, 62, 0
12, 173760, Note_on_c, 6, 74, 92
12, 173760, Note_on_c, 6, 62, 92
12, 173864, Note_on_c, 6, 74, 0
12, 173864, Note_on_c, 6, 62, 0
12, 173880, Note_on_c, 6, 62, 92
12, 173880, Note_on_c, 6, 74, 92
12, 173984, Note_on_c, 6, 62, 0
12, 173984, Note_on_c, 6, 74, 0
12, 174000, Note_on_c, 6, 74, 92
12, 174000, Note_on_c, 6, 62, 92
12, 174104, Note_on_c, 6, 74, 0
12, 174104, Note_on_c, 6, 62, 0
12, 174120, Note_on_c, 6, 62, 92
12, 174120, Note_on_c, 6, 74, 92
12, 174224, Note_on_c, 6, 62, 0
12, 174224, Note_on_c, 6, 74, 0
12, 174240, Note_on_c, 6, 74, 92
12, 174240, Note_on_c, 6, 62, 92
12, 174344, Note_on_c, 6, 74, 0
12, 174344, Note_on_c, 6, 62, 0
12, 174360, Note_on_c, 6, 62, 92
12, 174360, Note_on_c, 6, 74, 92
12, 174464, Note_on_c, 6, 62, 0
12, 174464, Note_on_c, 6, 74, 0
12, 174480, Note_on_c, 6, 74, 92
12, 174480, Note_on_c, 6, 62, 92
12, 174584, Note_on_c, 6, 74, 0
12, 174584, Note_on_c, 6, 62, 0
12, 174600, Note_on_c, 6, 74, 92
12, 174600, Note_on_c, 6, 62, 92
12, 174704, Note_on_c, 6, 74, 0
12, 174704, Note_on_c, 6, 62, 0
12, 174720, Note_on_c, 6, 62, 92
12, 174720, Note_on_c, 6, 74, 92
12, 174824, Note_on_c, 6, 62, 0
12, 174824, Note_on_c, 6, 74, 0
12, 174840, Note_on_c, 6, 62, 92
12, 174840, Note_on_c, 6, 74, 92
12, 174944, Note_on_c, 6, 62, 0
12, 174944, Note_on_c, 6, 74, 0
12, 174960, Note_on_c, 6, 62, 92
12, 174960, Note_on_c, 6, 74, 92
12, 175064, Note_on_c, 6, 62, 0
12, 175064, Note_on_c, 6, 74, 0
12, 175080, Note_on_c, 6, 74, 92
12, 175080, Note_on_c, 6, 62, 92
12, 175184, Note_on_c, 6, 74, 0
12, 175184, Note_on_c, 6, 62, 0
12, 175200, Note_on_c, 6, 62, 92
12, 175200, Note_on_c, 6, 74, 92
12, 175304, Note_on_c, 6, 62, 0
12, 175304, Note_on_c, 6, 74, 0
12, 175320, Note_on_c, 6, 62, 92
12, 175320, Note_on_c, 6, 74, 92
12, 175424, Note_on_c, 6, 62, 0
12, 175424, Note_on_c, 6, 74, 0
12, 175440, Note_on_c, 6, 62, 92
12, 175440, Note_on_c, 6, 74, 92
12, 175544, Note_on_c, 6, 62, 0
12, 175544, Note_on_c, 6, 74, 0
12, 175560, Note_on_c, 6, 74, 92
12, 175560, Note_on_c, 6, 62, 92
12, 175664, Note_on_c, 6, 74, 0
12, 175664, Note_on_c, 6, 62, 0
12, 175680, Note_on_c, 6, 74, 92
12, 175680, Note_on_c, 6, 62, 92
12, 175844, Note_on_c, 6, 74, 0
12, 175844, Note_on_c, 6, 62, 0
12, 175860, Note_on_c, 6, 62, 92
12, 175860, Note_on_c, 6, 74, 92
12, 175904, Note_on_c, 6, 62, 0
12, 175904, Note_on_c, 6, 74, 0
12, 175920, Note_on_c, 6, 74, 92
12, 175920, Note_on_c, 6, 62, 92
12, 176024, Note_on_c, 6, 74, 0
12, 176024, Note_on_c, 6, 62, 0
12, 176040, Note_on_c, 6, 62, 92
12, 176040, Note_on_c, 6, 74, 92
12, 176144, Note_on_c, 6, 62, 0
12, 176144, Note_on_c, 6, 74, 0
12, 176160, Note_on_c, 6, 62, 92
12, 176160, Note_on_c, 6, 74, 92
12, 176264, Note_on_c, 6, 62, 0
12, 176264, Note_on_c, 6, 74, 0
12, 176280, Note_on_c, 6, 74, 92
12, 176280, Note_on_c, 6, 62, 92
12, 176384, Note_on_c, 6, 74, 0
12, 176384, Note_on_c, 6, 62, 0
12, 176400, Note_on_c, 6, 62, 92
12, 176400, Note_on_c, 6, 74, 92
12, 176519, Note_on_c, 6, 62, 0
12, 176519, Note_on_c, 6, 74, 0
12, 177000, Note_on_c, 6, 79, 92
12, 177104, Note_on_c, 6, 79, 0
12, 177120, Note_on_c, 6, 72, 92
12, 177284, Note_on_c, 6, 72, 0
12, 177300, Note_on_c, 6, 72, 92
12, 177344, Note_on_c, 6, 72, 0
12, 177360, Note_on_c, 6, 72, 92
12, 177464, Note_on_c, 6, 72, 0
12, 177480, Note_on_c, 6, 72, 92
12, 177584, Note_on_c, 6, 72, 0
12, 177600, Note_on_c, 6, 72, 92
12, 177704, Note_on_c, 6, 72, 0
12, 177720, Note_on_c, 6, 72, 92
12, 177824, Note_on_c, 6, 72, 0
12, 177840, Note_on_c, 6, 69, 92
12, 178004, Note_on_c, 6, 69, 0
12, 178020, Note_on_c, 6, 69, 92
12, 178064, Note_on_c, 6, 69, 0
12, 178080, Note_on_c, 6, 69, 92
12, 178184, Note_on_c, 6, 69, 0
12, 178200, Note_on_c, 6, 69, 92
12, 178304, Note_on_c, 6, 69, 0
12, 178320, Note_on_c, 6, 69, 92
12, 178424, Note_on_c, 6, 69, 0
12, 178440, Note_on_c, 6, 69, 92
12, 178544, Note_on_c, 6, 69, 0
12, 178560, Note_on_c, 6, 62, 44
12, 178679, Note_on_c, 6, 62, 0
12, 182160, Note_on_c, 6, 74, 80
12, 182160, Note_on_c, 6, 62, 80
12, 182279, Note_on_c, 6, 74, 0
12, 182279, Note_on_c, 6, 62, 0
12, 182520, Note_on_c, 6, 69, 80
12, 182520, Note_on_c, 6, 57, 80
12, 182639, Note_on_c, 6, 69, 0
12, 182639, Note_on_c, 6, 57, 0
12, 182880, Note_on_c, 6, 74, 80
12, 182880, Note_on_c, 6, 62, 80
12, 182999, Note_on_c, 6, 74, 0
12, 182999, Note_on_c, 6, 62, 0
12, 183240, Note_on_c, 6, 62, 80
12, 183240, Note_on_c, 6, 74, 80
12, 183344, Note_on_c, 6, 62, 0
12, 183344, Note_on_c, 6, 74, 0
12, 183360, Note_on_c, 6, 57, 80
12, 183360, Note_on_c, 6, 69, 80
12, 183464, Note_on_c, 6, 57, 0
12, 183464, Note_on_c, 6, 69, 0
12, 183480, Note_on_c, 6, 57, 80
12, 183480, Note_on_c, 6, 69, 80
12, 183584, Note_on_c, 6, 57, 0
12, 183584, Note_on_c, 6, 69, 0
12, 183600, Note_on_c, 6, 62, 80
12, 183600, Note_on_c, 6, 74, 80
12, 183719, Note_on_c, 6, 62, 0
12, 183719, Note_on_c, 6, 74, 0
12, 184320, Note_on_c, 6, 74, 80
12, 184320, Note_on_c, 6, 62, 80
12, 184439, Note_on_c, 6, 74, 0
12, 184439, Note_on_c, 6, 62, 0
12, 184680, Note_on_c, 6, 69, 80
12, 184680, Note_on_c, 6, 57, 80
12, 184799, Note_on_c, 6, 69, 0
12, 184799, Note_on_c, 6, 57, 0
12, 185040, Note_on_c, 6, 74, 80
12, 185040, Note_on_c, 6, 62, 80
12, 185159, Note_on_c, 6, 74, 0
12, 185159, Note_on_c, 6, 62, 0
12, 185400, Note_on_c, 6, 57, 80
12, 185400, Note_on_c, 6, 69, 80
12, 185564, Note_on_c, 6, 57, 0
12, 185564, Note_on_c, 6, 69, 0
12, 185580, Note_on_c, 6, 69, 80
12, 185580, Note_on_c, 6, 57, 80
12, 185624, Note_on_c, 6, 69, 0
12, 185624, Note_on_c, 6, 57, 0
12, 185640, Note_on_c, 6, 57, 80
12, 185640, Note_on_c, 6, 69, 80
12, 185759, Note_on_c, 6, 57, 0
12, 185759, Note_on_c, 6, 69, 0
12, 186120, Note_on_c, 6, 57, 80
12, 186120, Note_on_c, 6, 69, 80
12, 186284, Note_on_c, 6, 57, 0
12, 186284, Note_on_c, 6, 69, 0
12, 186300, Note_on_c, 6, 69, 80
12, 186300, Note_on_c, 6, 57, 80
12, 186344, Note_on_c, 6, 69, 0
12, 186344, Note_on_c, 6, 57, 0
12, 186360, Note_on_c, 6, 57, 80
12, 186360, Note_on_c, 6, 69, 80
12, 186479, Note_on_c, 6, 57, 0
12, 186479, Note_on_c, 6, 69, 0
12, 199440, Note_on_c, 6, 69, 80
12, 199604, Note_on_c, 6, 69, 0
12, 199620, Note_on_c, 6, 69, 80
12, 199620, Note_on_c, 6, 57, 80
12, 199664, Note_on_c, 6, 69, 0
12, 199664, Note_on_c, 6, 57, 0
12, 199680, Note_on_c, 6, 57, 80
12, 199680, Note_on_c, 6, 69, 80
12, 199784, Note_on_c, 6, 57, 0
12, 199784, Note_on_c, 6, 69, 0
12, 215280, Note_on_c, 6, 74, 39
12, 215444, Note_on_c, 6, 74, 0
12, 215460, Note_on_c, 6, 62, 38
12, 215504, Note_on_c, 6, 62, 0
12, 215520, Note_on_c, 6, 62, 38
12, 215639, Note_on_c, 6, 62, 0
12, 231120, Note_on_c, 6, 74, 44
12, 231284, Note_on_c, 6, 74, 0
12, 231300, Note_on_c, 6, 62, 47
12, 231344, Note_on_c, 6, 62, 0
12, 231360, Note_on_c, 6, 62, 48
12, 231479, Note_on_c, 6, 62, 0
12, 232560, Note_on_c, 6, 74, 68
12, 232724, Note_on_c, 6, 74, 0
12, 232740, Note_on_c, 6, 62, 71
12, 232784, Note_on_c, 6, 62, 0
12, 232800, Note_on_c, 6, 62, 72
12, 232919, Note_on_c, 6, 62, 0
12, 233280, Note_on_c, 6, 74, 80
12, 233444, Note_on_c, 6, 74, 0
12, 233460, Note_on_c, 6, 62, 80
12, 233504, Note_on_c, 6, 62, 0
12, 233520, Note_on_c, 6, 62, 80
12, 233624, Note_on_c, 6, 62, 0
12, 233640, Note_on_c, 6, 74, 80
12, 233804, Note_on_c, 6, 74, 0
12, 233820, Note_on_c, 6, 62, 80
12, 233864, Note_on_c, 6, 62, 0
12, 233880, Note_on_c, 6, 62, 80
12, 233984, Note_on_c, 6, 62, 0
12, 234000, Note_on_c, 6, 74, 86
12, 234164, Note_on_c, 6, 74, 0
12, 234180, Note_on_c, 6, 62, 86
12, 234224, Note_on_c, 6, 62, 0
12, 234240, Note_on_c, 6, 62, 86
12, 234344, Note_on_c, 6, 62, 0
12, 234360, Note_on_c, 6, 74, 86
12, 234524, Note_on_c, 6, 74, 0
12, 234540, Note_on_c, 6, 62, 86
12, 234584, Note_on_c, 6, 62, 0
12, 234600, Note_on_c, 6, 62, 86
12, 234704, Note_on_c, 6, 62, 0
12, 234720, Note_on_c, 6, 74, 92
12, 234884, Note_on_c, 6, 74, 0
12, 234900, Note_on_c, 6, 62, 92
12, 234944, Note_on_c, 6, 62, 0
12, 234960, Note_on_c, 6, 62, 92
12, 235064, Note_on_c, 6, 62, 0
12, 235080, Note_on_c, 6, 74, 92
12, 235244, Note_on_c, 6, 74, 0
12, 235260, Note_on_c, 6, 62, 92
12, 235304, Note_on_c, 6, 62, 0
12, 235320, Note_on_c, 6, 62, 92
12, 235424, Note_on_c, 6, 62, 0
12, 235440, Note_on_c, 6, 74, 92
12, 235604, Note_on_c, 6, 74, 0
12, 235620, Note_on_c, 6, 62, 92
12, 235664, Note_on_c, 6, 62, 0
12, 235680, Note_on_c, 6, 62, 92
12, 235784, Note_on_c, 6, 62, 0
12, 235800, Note_on_c, 6, 74, 92
12, 235964, Note_on_c, 6, 74, 0
12, 235980, Note_on_c, 6, 62, 92
12, 236024, Note_on_c, 6, 62, 0
12, 236040, Note_on_c, 6, 62, 92
12, 236144, Note_on_c, 6, 62, 0
12, 236160, Note_on_c, 6, 74, 92
12, 236324, Note_on_c, 6, 74, 0
12, 236340, Note_on_c, 6, 62, 92
12, 236384, Note_on_c, 6, 62, 0
12, 236400, Note_on_c, 6, 62, 92
12, 236504, Note_on_c, 6, 62, 0
12, 236520, Note_on_c, 6, 74, 92
12, 236684, Note_on_c, 6, 74, 0
12, 236700, Note_on_c, 6, 62, 92
12, 236744, Note_on_c, 6, 62, 0
12, 236760, Note_on_c, 6, 62, 92
12, 236864, Note_on_c, 6, 62, 0
12, 236880, Note_on_c, 6, 74, 92
12, 237044, Note_on_c, 6, 74, 0
12, 237060, Note_on_c, 6, 62, 92
12, 237104, Note_on_c, 6, 62, 0
12, 237120, Note_on_c, 6, 62, 92
12, 237224, Note_on_c, 6, 62, 0
12, 237240, Note_on_c, 6, 74, 92
12, 237404, Note_on_c, 6, 74, 0
12, 237420, Note_on_c, 6, 62, 92
12, 237464, Note_on_c, 6, 62, 0
12, 237480, Note_on_c, 6, 62, 92
12, 237584, Note_on_c, 6, 62, 0
12, 237600, Note_on_c, 6, 74, 92
12, 237764, Note_on_c, 6, 74, 0
12, 237780, Note_on_c, 6, 62, 92
12, 237824, Note_on_c, 6, 62, 0
12, 237840, Note_on_c, 6, 62, 92
12, 237944, Note_on_c, 6, 62, 0
12, 237960, Note_on_c, 6, 74, 92
12, 238124, Note_on_c, 6, 74, 0
12, 238140, Note_on_c, 6, 62, 92
12, 238184, Note_on_c, 6, 62, 0
12, 238200, Note_on_c, 6, 62, 92
12, 238304, Note_on_c, 6, 62, 0
12, 238320, Note_on_c, 6, 74, 92
12, 238484, Note_on_c, 6, 74, 0
12, 238500, Note_on_c, 6, 62, 92
12, 238544, Note_on_c, 6, 62, 0
12, 238560, Note_on_c, 6, 62, 92
12, 238664, Note_on_c, 6, 62, 0
12, 238680, Note_on_c, 6, 74, 92
12, 238844, Note_on_c, 6, 74, 0
12, 238860, Note_on_c, 6, 62, 92
12, 238904, Note_on_c, 6, 62, 0
12, 238920, Note_on_c, 6, 62, 92
12, 239024, Note_on_c, 6, 62, 0
12, 239040, Note_on_c, 6, 74, 92
12, 239204, Note_on_c, 6, 74, 0
12, 239220, Note_on_c, 6, 62, 92
12, 239264, Note_on_c, 6, 62, 0
12, 239280, Note_on_c, 6, 62, 92
12, 239384, Note_on_c, 6, 62, 0
12, 239400, Note_on_c, 6, 74, 92
12, 239564, Note_on_c, 6, 74, 0
12, 239580, Note_on_c, 6, 62, 92
12, 239624, Note_on_c, 6, 62, 0
12, 239640, Note_on_c, 6, 62, 92
12, 239744, Note_on_c, 6, 62, 0
12, 239760, Note_on_c, 6, 74, 92
12, 239924, Note_on_c, 6, 74, 0
12, 239940, Note_on_c, 6, 62, 92
12, 239984, Note_on_c, 6, 62, 0
12, 240000, Note_on_c, 6, 62, 92
12, 240104, Note_on_c, 6, 62, 0
12, 240120, Note_on_c, 6, 74, 92
12, 240284, Note_on_c, 6, 74, 0
12, 240300, Note_on_c, 6, 62, 92
12, 240344, Note_on_c, 6, 62, 0
12, 240360, Note_on_c, 6, 62, 92
12, 240464, Note_on_c, 6, 62, 0
12, 240840, Note_on_c, 6, 74, 92
12, 241004, Note_on_c, 6, 74, 0
12, 241020, Note_on_c, 6, 62, 92
12, 241064, Note_on_c, 6, 62, 0
12, 241080, Note_on_c, 6, 62, 92
12, 241184, Note_on_c, 6, 62, 0
12, 241200, Note_on_c, 6, 74, 92
12, 241364, Note_on_c, 6, 74, 0
12, 241380, Note_on_c, 6, 62, 92
12, 241424, Note_on_c, 6, 62, 0
12, 241440, Note_on_c, 6, 62, 92
12, 241544, Note_on_c, 6, 62, 0
12, 241560, Note_on_c, 6, 74, 92
12, 241724, Note_on_c, 6, 74, 0
12, 241740, Note_on_c, 6, 62, 92
12, 241784, Note_on_c, 6, 62, 0
12, 241800, Note_on_c, 6, 62, 92
12, 241904, Note_on_c, 6, 62, 0
12, 256200, Note_on_c, 6, 62, 78
12, 256200, Note_on_c, 6, 74, 78
12, 256319, Note_on_c, 6, 62, 0
12, 256319, Note_on_c, 6, 74, 0
12, 256560, Note_on_c, 6, 62, 84
12, 256560, Note_on_c, 6, 74, 84
12, 256679, Note_on_c, 6, 62, 0
12, 256679, Note_on_c, 6, 74, 0
12, 256920, Note_on_c, 6, 57, 90
12, 256920, Note_on_c, 6, 69, 90
12, 257024, Note_on_c, 6, 57, 0
12, 257024, Note_on_c, 6, 69, 0
12, 257040, Note_on_c, 6, 62, 92
12, 257040, Note_on_c, 6, 74, 92
12, 257159, Note_on_c, 6, 62, 0
12, 257159, Note_on_c, 6, 74, 0
12, 257400, Note_on_c, 6, 74, 92
12, 257400, Note_on_c, 6, 62, 92
12, 257519, Note_on_c, 6, 74, 0
12, 257519, Note_on_c, 6, 62, 0
12, 257640, Note_on_c, 6, 62, 92
12, 257640, Note_on_c, 6, 74, 92
12, 257744, Note_on_c, 6, 62, 0
12, 257744, Note_on_c, 6, 74, 0
12, 257760, Note_on_c, 6, 74, 92
12, 257760, Note_on_c, 6, 62, 92
12, 257879, Note_on_c, 6, 74, 0
12, 257879, Note_on_c, 6, 62, 0
12, 258000, Note_on_c, 6, 62, 92
12, 258000, Note_on_c, 6, 74, 92
12, 258104, Note_on_c, 6, 62, 0
12, 258104, Note_on_c, 6, 74, 0
12, 258120, Note_on_c, 6, 74, 92
12, 258120, Note_on_c, 6, 62, 92
12, 258239, Note_on_c, 6, 74, 0
12, 258239, Note_on_c, 6, 62, 0
12, 258360, Note_on_c, 6, 62, 92
12, 258360, Note_on_c, 6, 74, 92
12, 258464, Note_on_c, 6, 62, 0
12, 258464, Note_on_c, 6, 74, 0
12, 258480, Note_on_c, 6, 62, 92
12, 258480, Note_on_c, 6, 74, 92
12, 258599, Note_on_c, 6, 62, 0
12, 258599, Note_on_c, 6, 74, 0
12, 258840, Note_on_c, 6, 74, 92
12, 258840, Note_on_c, 6, 62, 92
12, 258959, Note_on_c, 6, 74, 0
12, 258959, Note_on_c, 6, 62, 0
12, 259080, Note_on_c, 6, 62, 92
12, 259080, Note_on_c, 6, 74, 92
12, 259184, Note_on_c, 6, 62, 0
12, 259184, Note_on_c, 6, 74, 0
12, 259200, Note_on_c, 6, 62, 92
12, 259200, Note_on_c, 6, 74, 92
12, 259319, Note_on_c, 6, 62, 0
12, 259319, Note_on_c, 6, 74, 0
12, 259440, Note_on_c, 6, 74, 92
12, 259440, Note_on_c, 6, 62, 92
12, 259544, Note_on_c, 6, 74, 0
12, 259544, Note_on_c, 6, 62, 0
12, 259560, Note_on_c, 6, 74, 92
12, 259560, Note_on_c, 6, 62, 92
12, 259679, Note_on_c, 6, 74, 0
12, 259679, Note_on_c, 6, 62, 0
12, 259800, Note_on_c, 6, 74, 92
12, 259800, Note_on_c, 6, 62, 92
12, 259904, Note_on_c, 6, 74, 0
12, 259904, Note_on_c, 6, 62, 0
12, 259920, Note_on_c, 6, 62, 92
12, 259920, Note_on_c, 6, 74, 92
12, 260024, Note_on_c, 6, 62, 0
12, 260024, Note_on_c, 6, 74, 0
12, 260040, Note_on_c, 6, 62, 92
12, 260040, Note_on_c, 6, 74, 92
12, 260144, Note_on_c, 6, 62, 0
12, 260144, Note_on_c, 6, 74, 0
12, 260160, Note_on_c, 6, 74, 92
12, 260160, Note_on_c, 6, 62, 92
12, 260264, Note_on_c, 6, 74, 0
12, 260264, Note_on_c, 6, 62, 0
12, 260280, Note_on_c, 6, 74, 92
12, 260280, Note_on_c, 6, 62, 92
12, 260384, Note_on_c, 6, 74, 0
12, 260384, Note_on_c, 6, 62, 0
12, 260400, Note_on_c, 6, 74, 92
12, 260400, Note_on_c, 6, 62, 92
12, 260504, Note_on_c, 6, 74, 0
12, 260504, Note_on_c, 6, 62, 0
12, 260520, Note_on_c, 6, 74, 92
12, 260520, Note_on_c, 6, 62, 92
12, 260624, Note_on_c, 6, 74, 0
12, 260624, Note_on_c, 6, 62, 0
12, 260640, Note_on_c, 6, 74, 92
12, 260640, Note_on_c, 6, 62, 92
12, 260744, Note_on_c, 6, 74, 0
12, 260744, Note_on_c, 6, 62, 0
12, 260760, Note_on_c, 6, 62, 92
12, 260760, Note_on_c, 6, 74, 92
12, 260864, Note_on_c, 6, 62, 0
12, 260864, Note_on_c, 6, 74, 0
12, 260880, Note_on_c, 6, 74, 92
12, 260880, Note_on_c, 6, 62, 92
12, 260984, Note_on_c, 6, 74, 0
12, 260984, Note_on_c, 6, 62, 0
12, 261000, Note_on_c, 6, 62, 92
12, 261000, Note_on_c, 6, 74, 92
12, 261104, Note_on_c, 6, 62, 0
12, 261104, Note_on_c, 6, 74, 0
12, 261120, Note_on_c, 6, 62, 92
12, 261120, Note_on_c, 6, 74, 92
12, 261224, Note_on_c, 6, 62, 0
12, 261224, Note_on_c, 6, 74, 0
12, 261240, Note_on_c, 6, 62, 92
12, 261240, Note_on_c, 6, 74, 92
12, 261344, Note_on_c, 6, 62, 0
12, 261344, Note_on_c, 6, 74, 0
12, 261360, Note_on_c, 6, 74, 92
12, 261360, Note_on_c, 6, 62, 92
12, 261464, Note_on_c, 6, 74, 0
12, 261464, Note_on_c, 6, 62, 0
12, 261480, Note_on_c, 6, 74, 92
12, 261480, Note_on_c, 6, 62, 92
12, 261584, Note_on_c, 6, 74, 0
12, 261584, Note_on_c, 6, 62, 0
12, 261600, Note_on_c, 6, 74, 92
12, 261600, Note_on_c, 6, 62, 92
12, 261704, Note_on_c, 6, 74, 0
12, 261704, Note_on_c, 6, 62, 0
12, 261720, Note_on_c, 6, 62, 92
12, 261720, Note_on_c, 6, 74, 92
12, 261824, Note_on_c, 6, 62, 0
12, 261824, Note_on_c, 6, 74, 0
12, 261840, Note_on_c, 6, 62, 92
12, 261840, Note_on_c, 6, 74, 92
12, 261944, Note_on_c, 6, 62, 0
12, 261944, Note_on_c, 6, 74, 0
12, 261960, Note_on_c, 6, 74, 92
12, 261960, Note_on_c, 6, 62, 92
12, 262064, Note_on_c, 6, 74, 0
12, 262064, Note_on_c, 6, 62, 0
12, 262080, Note_on_c, 6, 62, 92
12, 262080, Note_on_c, 6, 74, 92
12, 262184, Note_on_c, 6, 62, 0
12, 262184, Note_on_c, 6, 74, 0
12, 262200, Note_on_c, 6, 62, 92
12, 262200, Note_on_c, 6, 74, 92
12, 262304, Note_on_c, 6, 62, 0
12, 262304, Note_on_c, 6, 74, 0
12, 262320, Note_on_c, 6, 62, 92
12, 262320, Note_on_c, 6, 74, 92
12, 262424, Note_on_c, 6, 62, 0
12, 262424, Note_on_c, 6, 74, 0
12, 262440, Note_on_c, 6, 62, 92
12, 262440, Note_on_c, 6, 74, 92
12, 262544, Note_on_c, 6, 62, 0
12, 262544, Note_on_c, 6, 74, 0
12, 262560, Note_on_c, 6, 74, 92
12, 262560, Note_on_c, 6, 62, 92
12, 262664, Note_on_c, 6, 74, 0
12, 262664, Note_on_c, 6, 62, 0
12, 262680, Note_on_c, 6, 62, 92
12, 262680, Note_on_c, 6, 74, 92
12, 262784, Note_on_c, 6, 62, 0
12, 262784, Note_on_c, 6, 74, 0
12, 262800, Note_on_c, 6, 74, 92
12, 262800, Note_on_c, 6, 62, 92
12, 262964, Note_on_c, 6, 74, 0
12, 262964, Note_on_c, 6, 62, 0
12, 262980, Note_on_c, 6, 62, 92
12, 262980, Note_on_c, 6, 74, 92
12, 263024, Note_on_c, 6, 62, 0
12, 263024, Note_on_c, 6, 74, 0
12, 263040, Note_on_c, 6, 62, 92
12, 263040, Note_on_c, 6, 74, 92
12, 263144, Note_on_c, 6, 62, 0
12, 263144, Note_on_c, 6, 74, 0
12, 263160, Note_on_c, 6, 62, 92
12, 263160, Note_on_c, 6, 74, 92
12, 263264, Note_on_c, 6, 62, 0
12, 263264, Note_on_c, 6, 74, 0
12, 263280, Note_on_c, 6, 62, 92
12, 263280, Note_on_c, 6, 74, 92
12, 263384, Note_on_c, 6, 62, 0
12, 263384, Note_on_c, 6, 74, 0
12, 263400, Note_on_c, 6, 74, 92
12, 263400, Note_on_c, 6, 62, 92
12, 263504, Note_on_c, 6, 74, 0
12, 263504, Note_on_c, 6, 62, 0
12, 263520, Note_on_c, 6, 74, 92
12, 263520, Note_on_c, 6, 62, 92
12, 263639, Note_on_c, 6, 74, 0
12, 263639, Note_on_c, 6, 62, 0
12, 264120, Note_on_c, 6, 79, 92
12, 264224, Note_on_c, 6, 79, 0
12, 264240, Note_on_c, 6, 72, 92
12, 264404, Note_on_c, 6, 72, 0
12, 264420, Note_on_c, 6, 72, 92
12, 264464, Note_on_c, 6, 72, 0
12, 264480, Note_on_c, 6, 72, 92
12, 264584, Note_on_c, 6, 72, 0
12, 264600, Note_on_c, 6, 72, 92
12, 264704, Note_on_c, 6, 72, 0
12, 264720, Note_on_c, 6, 72, 92
12, 264824, Note_on_c, 6, 72, 0
12, 264840, Note_on_c, 6, 72, 92
12, 264944, Note_on_c, 6, 72, 0
12, 264960, Note_on_c, 6, 69, 92
12, 265124, Note_on_c, 6, 69, 0
12, 265140, Note_on_c, 6, 69, 92
12, 265184, Note_on_c, 6, 69, 0
12, 265200, Note_on_c, 6, 69, 92
12, 265304, Note_on_c, 6, 69, 0
12, 265320, Note_on_c, 6, 69, 92
12, 265424, Note_on_c, 6, 69, 0
12, 265440, Note_on_c, 6, 69, 92
12, 265544, Note_on_c, 6, 69, 0
12, 265560, Note_on_c, 6, 69, 92
12, 265664, Note_on_c, 6, 69, 0
12, 265680, Note_on_c, 6, 62, 44
12, 265799, Note_on_c, 6, 62, 0
12, 269280, Note_on_c, 6, 62, 80
12, 269280, Note_on_c, 6, 74, 80
12, 269399, Note_on_c, 6, 62, 0
12, 269399, Note_on_c, 6, 74, 0
12, 269640, Note_on_c, 6, 57, 80
12, 269640, Note_on_c, 6, 69, 80
12, 269759, Note_on_c, 6, 57, 0
12, 269759, Note_on_c, 6, 69, 0
12, 270000, Note_on_c, 6, 62, 80
12, 270000, Note_on_c, 6, 74, 80
12, 270119, Note_on_c, 6, 62, 0
12, 270119, Note_on_c, 6, 74, 0
12, 270360, Note_on_c, 6, 62, 80
12, 270360, Note_on_c, 6, 74, 80
12, 270464, Note_on_c, 6, 62, 0
12, 270464, Note_on_c, 6, 74, 0
12, 270480, Note_on_c, 6, 69, 80
12, 270480, Note_on_c, 6, 57, 80
12, 270584, Note_on_c, 6, 69, 0
12, 270584, Note_on_c, 6, 57, 0
12, 270600, Note_on_c, 6, 69, 80
12, 270600, Note_on_c, 6, 57, 80
12, 270704, Note_on_c, 6, 69, 0
12, 270704, Note_on_c, 6, 57, 0
12, 270720, Note_on_c, 6, 74, 80
12, 270720, Note_on_c, 6, 62, 80
12, 270839, Note_on_c, 6, 74, 0
12, 270839, Note_on_c, 6, 62, 0
12, 271440, Note_on_c, 6, 62, 80
12, 271440, Note_on_c, 6, 74, 80
12, 271559, Note_on_c, 6, 62, 0
12, 271559, Note_on_c, 6, 74, 0
12, 271800, Note_on_c, 6, 57, 80
12, 271800, Note_on_c, 6, 69, 80
12, 271919, Note_on_c, 6, 57, 0
12, 271919, Note_on_c, 6, 69, 0
12, 272160, Note_on_c, 6, 62, 80
12, 272160, Note_on_c, 6, 74, 80
12, 272279, Note_on_c, 6, 62, 0
12, 272279, Note_on_c, 6, 74, 0
12, 272520, Note_on_c, 6, 57, 80
12, 272520, Note_on_c, 6, 69, 80
12, 272684, Note_on_c, 6, 57, 0
12, 272684, Note_on_c, 6, 69, 0
12, 272700, Note_on_c, 6, 57, 80
12, 272700, Note_on_c, 6, 69, 80
12, 272744, Note_on_c, 6, 57, 0
12, 272744, Note_on_c, 6, 69, 0
12, 272760, Note_on_c, 6, 57, 80
12, 272760, Note_on_c, 6, 69, 80
12, 272879, Note_on_c, 6, 57, 0
12, 272879, Note_on_c, 6, 69, 0
12, 273240, Note_on_c, 6, 57, 80
12, 273240, Note_on_c, 6, 69, 80
12, 273404, Note_on_c, 6, 57, 0
12, 273404, Note_on_c, 6, 69, 0
12, 273420, Note_on_c, 6, 57, 80
12, 273420, Note_on_c, 6, 69, 80
12, 273464, Note_on_c, 6, 57, 0
12, 273464, Note_on_c, 6, 69, 0
12, 273480, Note_on_c, 6, 69, 80
12, 273480, Note_on_c, 6, 57, 80
12, 273599, Note_on_c, 6, 69, 0
12, 273599, Note_on_c, 6, 57, 0
12, 280080, Note_on_c, 6, 74, 80
12, 280080, Note_on_c, 6, 62, 80
12, 280244, Note_on_c, 6, 74, 0
12, 280244, Note_on_c, 6, 62, 0
12, 280260, Note_on_c, 6, 62, 80
12, 280260, Note_on_c, 6, 74, 80
12, 280304, Note_on_c, 6, 62, 0
12, 280304, Note_on_c, 6, 74, 0
12, 280320, Note_on_c, 6, 74, 80
12, 280320, Note_on_c, 6, 62, 80
12, 280424, Note_on_c, 6, 74, 0
12, 280424, Note_on_c, 6, 62, 0
12, 280440, Note_on_c, 6, 57, 92
12, 280440, Note_on_c, 6, 69, 92
12, 280604, Note_on_c, 6, 57, 0
12, 280604, Note_on_c, 6, 69, 0
12, 280620, Note_on_c, 6, 57, 92
12, 280620, Note_on_c, 6, 69, 92
12, 280664, Note_on_c, 6, 57, 0
12, 280664, Note_on_c, 6, 69, 0
12, 280680, Note_on_c, 6, 69, 92
12, 280680, Note_on_c, 6, 57, 92
12, 281129, Note_on_c, 6, 69, 0
12, 281129, Note_on_c, 6, 57, 0
12, 284040, Note_on_c, 6, 57, 32
12, 284040, Note_on_c, 6, 69, 32
12, 284159, Note_on_c, 6, 57, 0
12, 284159, Note_on_c, 6, 69, 0
12, 284400, Note_on_c, 6, 62, 39
12, 284519, Note_on_c, 6, 62, 0
12, 284760, Note_on_c, 6, 69, 47
12, 284760, Note_on_c, 6, 57, 47
12, 284879, Note_on_c, 6, 69, 0
12, 284879, Note_on_c, 6, 57, 0
12, 285120, Note_on_c, 6, 62, 54
12, 285239, Note_on_c, 6, 62, 0
12, 285480, Note_on_c, 6, 69, 62
12, 285480, Note_on_c, 6, 57, 62
12, 285599, Note_on_c, 6, 69, 0
12, 285599, Note_on_c, 6, 57, 0
12, 285840, Note_on_c, 6, 62, 69
12, 285959, Note_on_c, 6, 62, 0
12, 286200, Note_on_c, 6, 69, 77
12, 286200, Note_on_c, 6, 57, 77
12, 286319, Note_on_c, 6, 69, 0
12, 286319, Note_on_c, 6, 57, 0
12, 286560, Note_on_c, 6, 62, 84
12, 286679, Note_on_c, 6, 62, 0
12, 286920, Note_on_c, 6, 57, 92
12, 286920, Note_on_c, 6, 69, 92
12, 287039, Note_on_c, 6, 57, 0
12, 287039, Note_on_c, 6, 69, 0
12, 287160, Note_on_c, 6, 62, 80
12, 287160, Note_on_c, 6, 74, 80
12, 287279, Note_on_c, 6, 62, 0
12, 287279, Note_on_c, 6, 74, 0
12, 287400, Note_on_c, 6, 57, 80
12, 287400, Note_on_c, 6, 69, 80
12, 287519, Note_on_c, 6, 57, 0
12, 287519, Note_on_c, 6, 69, 0
12, 287640, Note_on_c, 6, 69, 80
12, 287640, Note_on_c, 6, 57, 80
12, 287759, Note_on_c, 6, 69, 0
12, 287759, Note_on_c, 6, 57, 0
12, 287880, Note_on_c, 6, 74, 80
12, 287880, Note_on_c, 6, 62, 80
12, 287999, Note_on_c, 6, 74, 0
12, 287999, Note_on_c, 6, 62, 0
12, 321000, Note_on_c, 6, 62, 80
12, 321000, Note_on_c, 6, 74, 80
12, 321119, Note_on_c, 6, 62, 0
12, 321119, Note_on_c, 6, 74, 0
12, 325080, Note_on_c, 6, 74, 80
12, 325080, Note_on_c, 6, 62, 80
12, 325199, Note_on_c, 6, 74, 0
12, 325199, Note_on_c, 6, 62, 0
12, 325560, Note_on_c, 6, 62, 80
12, 325560, Note_on_c, 6, 74, 80
12, 325679, Note_on_c, 6, 62, 0
12, 325679, Note_on_c, 6, 74, 0
12, 326040, Note_on_c, 6, 74, 80
12, 326040, Note_on_c, 6, 62, 80
12, 326159, Note_on_c, 6, 74, 0
12, 326159, Note_on_c, 6, 62, 0
12, 326520, Note_on_c, 6, 62, 80
12, 326520, Note_on_c, 6, 74, 80
12, 326639, Note_on_c, 6, 62, 0
12, 326639, Note_on_c, 6, 74, 0
12, 327000, Note_on_c, 6, 62, 80
12, 327000, Note_on_c, 6, 74, 80
12, 327119, Note_on_c, 6, 62, 0
12, 327119, Note_on_c, 6, 74, 0
12, 327480, Note_on_c, 6, 74, 80
12, 327480, Note_on_c, 6, 62, 80
12, 327599, Note_on_c, 6, 74, 0
12, 327599, Note_on_c, 6, 62, 0
12, 327960, Note_on_c, 6, 74, 80
12, 327960, Note_on_c, 6, 62, 80
12, 328079, Note_on_c, 6, 74, 0
12, 328079, Note_on_c, 6, 62, 0
12, 328200, Note_on_c, 6, 62, 80
12, 328200, Note_on_c, 6, 74, 80
12, 328319, Note_on_c, 6, 62, 0
12, 328319, Note_on_c, 6, 74, 0
12, 328440, Note_on_c, 6, 69, 80
12, 328440, Note_on_c, 6, 57, 80
12, 328559, Note_on_c, 6, 69, 0
12, 328559, Note_on_c, 6, 57, 0
12, 328680, Note_on_c, 6, 62, 80
12, 328680, Note_on_c, 6, 74, 80
12, 328799, Note_on_c, 6, 62, 0
12, 328799, Note_on_c, 6, 74, 0
12, 354120, Note_on_c, 6, 62, 80
12, 354120, Note_on_c, 6, 74, 80
12, 354239, Note_on_c, 6, 62, 0
12, 354239, Note_on_c, 6, 74, 0
12, 358200, Note_on_c, 6, 62, 80
12, 358200, Note_on_c, 6, 74, 80
12, 358319, Note_on_c, 6, 62, 0
12, 358319, Note_on_c, 6, 74, 0
12, 358680, Note_on_c, 6, 62, 80
12, 358680, Note_on_c, 6, 74, 80
12, 358799, Note_on_c, 6, 62, 0
12, 358799, Note_on_c, 6, 74, 0
12, 359160, Note_on_c, 6, 74, 80
12, 359160, Note_on_c, 6, 62, 80
12, 359279, Note_on_c, 6, 74, 0
12, 359279, Note_on_c, 6, 62, 0
12, 359640, Note_on_c, 6, 74, 80
12, 359640, Note_on_c, 6, 62, 80
12, 359759, Note_on_c, 6, 74, 0
12, 359759, Note_on_c, 6, 62, 0
12, 360120, Note_on_c, 6, 62, 80
12, 360120, Note_on_c, 6, 74, 80
12, 360239, Note_on_c, 6, 62, 0
12, 360239, Note_on_c, 6, 74, 0
12, 360600, Note_on_c, 6, 62, 80
12, 360600, Note_on_c, 6, 74, 80
12, 360719, Note_on_c, 6, 62, 0
12, 360719, Note_on_c, 6, 74, 0
12, 361080, Note_on_c, 6, 62, 80
12, 361080, Note_on_c, 6, 74, 80
12, 361199, Note_on_c, 6, 62, 0
12, 361199, Note_on_c, 6, 74, 0
12, 361320, Note_on_c, 6, 74, 80
12, 361320, Note_on_c, 6, 62, 80
12, 361439, Note_on_c, 6, 74, 0
12, 361439, Note_on_c, 6, 62, 0
12, 361560, Note_on_c, 6, 69, 80
12, 361560, Note_on_c, 6, 57, 80
12, 361679, Note_on_c, 6, 69, 0
12, 361679, Note_on_c, 6, 57, 0
12, 367320, Note_on_c, 6, 69, 77
12, 367320, Note_on_c, 6, 57, 77
12, 367539, Note_on_c, 6, 69, 0
12, 367539, Note_on_c, 6, 57, 0
12, 367560, Note_on_c, 6, 57, 80
12, 367560, Note_on_c, 6, 66, 80
12, 367739, Note_on_c, 6, 57, 0
12, 367739, Note_on_c, 6, 66, 0
12, 367800, Note_on_c, 6, 66, 80
12, 367800, Note_on_c, 6, 57, 80
12, 367979, Note_on_c, 6, 66, 0
12, 367979, Note_on_c, 6, 57, 0
12, 368040, Note_on_c, 6, 69, 80
12, 368040, Note_on_c, 6, 57, 80
12, 368219, Note_on_c, 6, 69, 0
12, 368219, Note_on_c, 6, 57, 0
12, 368280, Note_on_c, 6, 57, 80
12, 368280, Note_on_c, 6, 69, 80
12, 368459, Note_on_c, 6, 57, 0
12, 368459, Note_on_c, 6, 69, 0
12, 368520, Control_c, 6, 11, 127
12, 368520, Note_on_c, 6, 66, 80
12, 368520, Note_on_c, 6, 57, 80
12, 368560, Control_c, 6, 11, 125
12, 368600, Control_c, 6, 11, 122
12, 368640, Control_c, 6, 11, 120
12, 368680, Control_c, 6, 11, 117
12, 368699, Note_on_c, 6, 66, 0
12, 368699, Note_on_c, 6, 57, 0
12, 368720, Control_c, 6, 11, 115
12, 368760, Control_c, 6, 11, 112
12, 368760, Note_on_c, 6, 66, 80
12, 368760, Note_on_c, 6, 57, 80
12, 368800, Control_c, 6, 11, 110
12, 368840, Control_c, 6, 11, 107
12, 368880, Control_c, 6, 11, 105
12, 368920, Control_c, 6, 11, 102
12, 368939, Note_on_c, 6, 66, 0
12, 368939, Note_on_c, 6, 57, 0
12, 368960, Control_c, 6, 11, 100
12, 369000, Note_on_c, 6, 57, 80
12, 369000, Control_c, 6, 11, 97
12, 369000, Note_on_c, 6, 69, 80
12, 369040, Control_c, 6, 11, 95
12, 369080, Control_c, 6, 11, 92
12, 369120, Control_c, 6, 11, 90
12, 369160, Control_c, 6, 11, 87
12, 369179, Note_on_c, 6, 57, 0
12, 369179, Note_on_c, 6, 69, 0
12, 369200, Control_c, 6, 11, 85
12, 369240, Control_c, 6, 11, 82
12, 369240, Note_on_c, 6, 69, 80
12, 369240, Note_on_c, 6, 57, 80
12, 369280, Control_c, 6, 11, 80
12, 369320, Control_c, 6, 11, 77
12, 369360, Control_c, 6, 11, 75
12, 369400, Control_c, 6, 11, 72
12, 369419, Note_on_c, 6, 69, 0
12, 369419, Note_on_c, 6, 57, 0
12, 369440, Control_c, 6, 11, 70
12, 369478, Control_c, 6, 11, 67
12, 369480, Note_on_c, 6, 69, 80
12, 369480, Note_on_c, 6, 57, 80
12, 369599, Note_on_c, 6, 69, 0
12, 369599, Note_on_c, 6, 57, 0
12, 372510, Control_c, 6, 11, 109
12, 372555, Control_c, 6, 11, 110
12, 372600, Note_on_c, 6, 57, 92
12, 372600, Note_on_c, 6, 69, 92
12, 372600, Control_c, 6, 11, 111
12, 372645, Control_c, 6, 11, 112
12, 372690, Control_c, 6, 11, 113
12, 372735, Control_c, 6, 11, 114
12, 372780, Control_c, 6, 11, 115
12, 372825, Control_c, 6, 11, 116
12, 372870, Control_c, 6, 11, 117
12, 372915, Control_c, 6, 11, 118
12, 372960, Control_c, 6, 11, 119
12, 373005, Control_c, 6, 11, 120
12, 373050, Control_c, 6, 11, 121
12, 373059, Note_on_c, 6, 57, 0
12, 373059, Note_on_c, 6, 69, 0
12, 373080, Note_on_c, 6, 57, 92
12, 373080, Note_on_c, 6, 69, 92
12, 373095, Control_c, 6, 11, 122
12, 373140, Control_c, 6, 11, 123
12, 373185, Control_c, 6, 11, 124
12, 373230, Control_c, 6, 11, 125
12, 373275, Control_c, 6, 11, 127
12, 373299, Note_on_c, 6, 57, 0
12, 373299, Note_on_c, 6, 69, 0
12, 373320, Note_on_c, 6, 69, 92
12, 373320, Note_on_c, 6, 57, 92
12, 373499, Note_on_c, 6, 69, 0
12, 373499, Note_on_c, 6, 57, 0
12, 373560, Note_on_c, 6, 69, 92
12, 373560, Note_on_c, 6, 57, 92
12, 373739, Note_on_c, 6, 69, 0
12, 373739, Note_on_c, 6, 57, 0
12, 373800, Note_on_c, 6, 57, 92
12, 373800, Note_on_c, 6, 69, 92
12, 373979, Note_on_c, 6, 57, 0
12, 373979, Note_on_c, 6, 69, 0
12, 374040, Note_on_c, 6, 57, 92
12, 374040, Note_on_c, 6, 69, 92
12, 374219, Note_on_c, 6, 57, 0
12, 374219, Note_on_c, 6, 69, 0
12, 374280, Note_on_c, 6, 57, 92
12, 374280, Note_on_c, 6, 69, 92
12, 374342, Control_c, 6, 11, 126
12, 374405, Control_c, 6, 11, 125
12, 374459, Note_on_c, 6, 57, 0
12, 374459, Note_on_c, 6, 69, 0
12, 374467, Control_c, 6, 11, 124
12, 374520, Note_on_c, 6, 57, 92
12, 374520, Note_on_c, 6, 69, 92
12, 374530, Control_c, 6, 11, 123
12, 374592, Control_c, 6, 11, 122
12, 374654, Control_c, 6, 11, 121
12, 374699, Note_on_c, 6, 57, 0
12, 374699, Note_on_c, 6, 69, 0
12, 374717, Control_c, 6, 11, 120
12, 374760, Note_on_c, 6, 69, 92
12, 374760, Note_on_c, 6, 57, 92
12, 374779, Control_c, 6, 11, 119
12, 374842, Control_c, 6, 11, 118
12, 374904, Control_c, 6, 11, 117
12, 374939, Note_on_c, 6, 69, 0
12, 374939, Note_on_c, 6, 57, 0
12, 374966, Control_c, 6, 11, 116
12, 375000, Note_on_c, 6, 69, 92
12, 375000, Note_on_c, 6, 57, 92
12, 375029, Control_c, 6, 11, 115
12, 375091, Control_c, 6, 11, 114
12, 375154, Control_c, 6, 11, 113
12, 375179, Note_on_c, 6, 69, 0
12, 375179, Note_on_c, 6, 57, 0
12, 375216, Control_c, 6, 11, 112
12, 375240, Note_on_c, 6, 69, 92
12, 375240, Note_on_c, 6, 57, 92
12, 375278, Control_c, 6, 11, 111
12, 375341, Control_c, 6, 11, 110
12, 375403, Control_c, 6, 11, 109
12, 375419, Note_on_c, 6, 69, 0
12, 375419, Note_on_c, 6, 57, 0
12, 375466, Control_c, 6, 11, 108
12, 375480, Note_on_c, 6, 69, 92
12, 375480, Note_on_c, 6, 57, 92
12, 375528, Control_c, 6, 11, 107
12, 375590, Control_c, 6, 11, 106
12, 375653, Control_c, 6, 11, 105
12, 375659, Note_on_c, 6, 69, 0
12, 375659, Note_on_c, 6, 57, 0
12, 375715, Control_c, 6, 11, 104
12, 375720, Note_on_c, 6, 69, 92
12, 375720, Note_on_c, 6, 57, 92
12, 375778, Control_c, 6, 11, 103
12, 375840, Control_c, 6, 11, 102
12, 375899, Note_on_c, 6, 69, 0
12, 375899, Note_on_c, 6, 57, 0
12, 375902, Control_c, 6, 11, 101
12, 375960, Note_on_c, 6, 57, 92
12, 375960, Note_on_c, 6, 69, 92
12, 375965, Control_c, 6, 11, 100
12, 376027, Control_c, 6, 11, 99
12, 376090, Control_c, 6, 11, 98
12, 376139, Note_on_c, 6, 57, 0
12, 376139, Note_on_c, 6, 69, 0
12, 376152, Control_c, 6, 11, 97
12, 376200, Note_on_c, 6, 57, 92
12, 376200, Note_on_c, 6, 69, 92
12, 376214, Control_c, 6, 11, 96
12, 376277, Control_c, 6, 11, 95
12, 376339, Control_c, 6, 11, 94
12, 376379, Note_on_c, 6, 57, 0
12, 376379, Note_on_c, 6, 69, 0
12, 376402, Control_c, 6, 11, 93
12, 376440, Note_on_c, 6, 57, 92
12, 376440, Note_on_c, 6, 69, 92
12, 376464, Control_c, 6, 11, 92
12, 376526, Control_c, 6, 11, 91
12, 376589, Control_c, 6, 11, 90
12, 376619, Note_on_c, 6, 57, 0
12, 376619, Note_on_c, 6, 69, 0
12, 376651, Control_c, 6, 11, 89
12, 376680, Note_on_c, 6, 57, 92
12, 376680, Note_on_c, 6, 69, 92
12, 376714, Control_c, 6, 11, 88
12, 376776, Control_c, 6, 11, 87
12, 376838, Control_c, 6, 11, 86
12, 376859, Note_on_c, 6, 57, 0
12, 376859, Note_on_c, 6, 69, 0
12, 376901, Control_c, 6, 11, 85
12, 376920, Note_on_c, 6, 57, 92
12, 376920, Note_on_c, 6, 69, 92
12, 376963, Control_c, 6, 11, 84
12, 377026, Control_c, 6, 11, 83
12, 377088, Control_c, 6, 11, 82
12, 377099, Note_on_c, 6, 57, 0
12, 377099, Note_on_c, 6, 69, 0
12, 377150, Control_c, 6, 11, 81
12, 377160, Note_on_c, 6, 57, 92
12, 377160, Note_on_c, 6, 69, 92
12, 377213, Control_c, 6, 11, 80
12, 377275, Control_c, 6, 11, 79
12, 377338, Control_c, 6, 11, 78
12, 377379, Note_on_c, 6, 57, 0
12, 377379, Note_on_c, 6, 69, 0
12, 377400, Note_on_c, 6, 62, 92
12, 377400, Control_c, 6, 11, 77
12, 377462, Control_c, 6, 11, 76
12, 377525, Control_c, 6, 11, 75
12, 377587, Control_c, 6, 11, 74
12, 377650, Control_c, 6, 11, 73
12, 377712, Control_c, 6, 11, 72
12, 377759, Note_on_c, 6, 62, 0
12, 381240, Control_c, 6, 11, 127
12, 383040, Note_on_c, 6, 74, 92
12, 383204, Note_on_c, 6, 74, 0
12, 383220, Note_on_c, 6, 62, 92
12, 383264, Note_on_c, 6, 62, 0
12, 383280, Note_on_c, 6, 62, 92
12, 383399, Note_on_c, 6, 62, 0
12, 395280, Note_on_c, 6, 69, 32
12, 395280, Note_on_c, 6, 57, 32
12, 395399, Note_on_c, 6, 69, 0
12, 395399, Note_on_c, 6, 57, 0
12, 395640, Note_on_c, 6, 69, 32
12, 395640, Note_on_c, 6, 57, 32
12, 395759, Note_on_c, 6, 69, 0
12, 395759, Note_on_c, 6, 57, 0
12, 396000, Note_on_c, 6, 57, 32
12, 396000, Note_on_c, 6, 69, 32
12, 396119, Note_on_c, 6, 57, 0
12, 396119, Note_on_c, 6, 69, 0
12, 396360, Note_on_c, 6, 57, 32
12, 396360, Note_on_c, 6, 69, 32
12, 396479, Note_on_c, 6, 57, 0
12, 396479, Note_on_c, 6, 69, 0
12, 396720, Note_on_c, 6, 69, 32
12, 396720, Note_on_c, 6, 57, 32
12, 396839, Note_on_c, 6, 69, 0
12, 396839, Note_on_c, 6, 57, 0
12, 397080, Note_on_c, 6, 69, 32
12, 397080, Note_on_c, 6, 57, 32
12, 397199, Note_on_c, 6, 69, 0
12, 397199, Note_on_c, 6, 57, 0
12, 397440, Note_on_c, 6, 69, 37
12, 397440, Note_on_c, 6, 57, 37
12, 397559, Note_on_c, 6, 69, 0
12, 397559, Note_on_c, 6, 57, 0
12, 397800, Note_on_c, 6, 69, 42
12, 397800, Note_on_c, 6, 57, 42
12, 397919, Note_on_c, 6, 69, 0
12, 397919, Note_on_c, 6, 57, 0
12, 398160, Note_on_c, 6, 57, 47
12, 398160, Note_on_c, 6, 69, 47
12, 398279, Note_on_c, 6, 57, 0
12, 398279, Note_on_c, 6, 69, 0
12, 398520, Note_on_c, 6, 69, 52
12, 398520, Note_on_c, 6, 57, 52
12, 398639, Note_on_c, 6, 69, 0
12, 398639, Note_on_c, 6, 57, 0
12, 398880, Note_on_c, 6, 57, 57
12, 398880, Note_on_c, 6, 69, 57
12, 398999, Note_on_c, 6, 57, 0
12, 398999, Note_on_c, 6, 69, 0
12, 399240, Note_on_c, 6, 57, 62
12, 399240, Note_on_c, 6, 69, 62
12, 399359, Note_on_c, 6, 57, 0
12, 399359, Note_on_c, 6, 69, 0
12, 399600, Note_on_c, 6, 57, 67
12, 399600, Note_on_c, 6, 69, 67
12, 399719, Note_on_c, 6, 57, 0
12, 399719, Note_on_c, 6, 69, 0
12, 399960, Note_on_c, 6, 69, 72
12, 399960, Note_on_c, 6, 57, 72
12, 400079, Note_on_c, 6, 69, 0
12, 400079, Note_on_c, 6, 57, 0
12, 400320, Note_on_c, 6, 57, 77
12, 400320, Note_on_c, 6, 69, 77
12, 400439, Note_on_c, 6, 57, 0
12, 400439, Note_on_c, 6, 69, 0
12, 400680, Note_on_c, 6, 69, 82
12, 400680, Note_on_c, 6, 57, 82
12, 400799, Note_on_c, 6, 69, 0
12, 400799, Note_on_c, 6, 57, 0
12, 401040, Note_on_c, 6, 57, 87
12, 401040, Note_on_c, 6, 69, 87
12, 401159, Note_on_c, 6, 57, 0
12, 401159, Note_on_c, 6, 69, 0
12, 401400, Note_on_c, 6, 69, 92
12, 401400, Note_on_c, 6, 57, 92
12, 401564, Note_on_c, 6, 69, 0
12, 401564, Note_on_c, 6, 57, 0
12, 401580, Note_on_c, 6, 69, 92
12, 401580, Note_on_c, 6, 57, 92
12, 401624, Note_on_c, 6, 69, 0
12, 401624, Note_on_c, 6, 57, 0
12, 401640, Note_on_c, 6, 69, 92
12, 401640, Note_on_c, 6, 57, 92
12, 401744, Note_on_c, 6, 69, 0
12, 401744, Note_on_c, 6, 57, 0
12, 401760, Note_on_c, 6, 74, 92
12, 401760, Note_on_c, 6, 62, 92
12, 401879, Note_on_c, 6, 74, 0
12, 401879, Note_on_c, 6, 62, 0
12, 402120, Note_on_c, 6, 57, 92
12, 402120, Note_on_c, 6, 69, 92
12, 402239, Note_on_c, 6, 57, 0
12, 402239, Note_on_c, 6, 69, 0
12, 402480, Note_on_c, 6, 62, 92
12, 402480, Note_on_c, 6, 74, 92
12, 402599, Note_on_c, 6, 62, 0
12, 402599, Note_on_c, 6, 74, 0
12, 402840, Note_on_c, 6, 74, 80
12, 402840, Note_on_c, 6, 62, 80
12, 402959, Note_on_c, 6, 74, 0
12, 402959, Note_on_c, 6, 62, 0
12, 403200, Note_on_c, 6, 62, 80
12, 403200, Note_on_c, 6, 74, 80
12, 403319, Note_on_c, 6, 62, 0
12, 403319, Note_on_c, 6, 74, 0
12, 403560, Note_on_c, 6, 69, 80
12, 403560, Note_on_c, 6, 57, 80
12, 403679, Note_on_c, 6, 69, 0
12, 403679, Note_on_c, 6, 57, 0
12, 403920, Note_on_c, 6, 62, 80
12, 403920, Note_on_c, 6, 74, 80
12, 404039, Note_on_c, 6, 62, 0
12, 404039, Note_on_c, 6, 74, 0
12, 404280, Note_on_c, 6, 74, 80
12, 404280, Note_on_c, 6, 62, 80
12, 404399, Note_on_c, 6, 74, 0
12, 404399, Note_on_c, 6, 62, 0
12, 404640, Note_on_c, 6, 62, 80
12, 404640, Note_on_c, 6, 74, 80
12, 404759, Note_on_c, 6, 62, 0
12, 404759, Note_on_c, 6, 74, 0
12, 405000, Note_on_c, 6, 69, 80
12, 405000, Note_on_c, 6, 57, 80
12, 405119, Note_on_c, 6, 69, 0
12, 405119, Note_on_c, 6, 57, 0
12, 405360, Note_on_c, 6, 62, 80
12, 405360, Note_on_c, 6, 74, 80
12, 405479, Note_on_c, 6, 62, 0
12, 405479, Note_on_c, 6, 74, 0
12, 405720, Note_on_c, 6, 62, 80
12, 405720, Note_on_c, 6, 74, 80
12, 405839, Note_on_c, 6, 62, 0
12, 405839, Note_on_c, 6, 74, 0
12, 406080, Note_on_c, 6, 72, 80
12, 406199, Note_on_c, 6, 72, 0
12, 406800, Note_on_c, 6, 72, 80
12, 406919, Note_on_c, 6, 72, 0
12, 407160, Note_on_c, 6, 62, 80
12, 407160, Note_on_c, 6, 74, 80
12, 407279, Note_on_c, 6, 62, 0
12, 407279, Note_on_c, 6, 74, 0
12, 407520, Note_on_c, 6, 72, 80
12, 407639, Note_on_c, 6, 72, 0
12, 407880, Note_on_c, 6, 72, 80
12, 407999, Note_on_c, 6, 72, 0
12, 408240, Note_on_c, 6, 72, 80
12, 408359, Note_on_c, 6, 72, 0
12, 408600, Note_on_c, 6, 79, 80
12, 408719, Note_on_c, 6, 79, 0
12, 420120, Note_on_c, 6, 72, 92
12, 420284, Note_on_c, 6, 72, 0
12, 420300, Note_on_c, 6, 72, 92
12, 420344, Note_on_c, 6, 72, 0
12, 420360, Note_on_c, 6, 72, 92
12, 420464, Note_on_c, 6, 72, 0
12, 420480, Note_on_c, 6, 72, 92
12, 420584, Note_on_c, 6, 72, 0
12, 421560, Note_on_c, 6, 74, 92
12, 421560, Note_on_c, 6, 62, 92
12, 421724, Note_on_c, 6, 74, 0
12, 421724, Note_on_c, 6, 62, 0
12, 421740, Note_on_c, 6, 62, 92
12, 421784, Note_on_c, 6, 62, 0
12, 421800, Note_on_c, 6, 62, 92
12, 421904, Note_on_c, 6, 62, 0
12, 421920, Note_on_c, 6, 62, 92
12, 421920, Note_on_c, 6, 74, 92
12, 422039, Note_on_c, 6, 62, 0
12, 422039, Note_on_c, 6, 74, 0
12, 428040, Note_on_c, 6, 72, 80
12, 428159, Note_on_c, 6, 72, 0
12, 428760, Note_on_c, 6, 72, 80
12, 428879, Note_on_c, 6, 72, 0
12, 429480, Note_on_c, 6, 72, 80
12, 429599, Note_on_c, 6, 72, 0
12, 430200, Note_on_c, 6, 72, 80
12, 430319, Note_on_c, 6, 72, 0
12, 446400, Note_on_c, 6, 57, 32
12, 446400, Note_on_c, 6, 69, 32
12, 446519, Note_on_c, 6, 57, 0
12, 446519, Note_on_c, 6, 69, 0
12, 446760, Note_on_c, 6, 57, 32
12, 446760, Note_on_c, 6, 69, 32
12, 446879, Note_on_c, 6, 57, 0
12, 446879, Note_on_c, 6, 69, 0
12, 447120, Note_on_c, 6, 57, 32
12, 447120, Note_on_c, 6, 69, 32
12, 447239, Note_on_c, 6, 57, 0
12, 447239, Note_on_c, 6, 69, 0
12, 447480, Note_on_c, 6, 69, 32
12, 447480, Note_on_c, 6, 57, 32
12, 447599, Note_on_c, 6, 69, 0
12, 447599, Note_on_c, 6, 57, 0
12, 447840, Note_on_c, 6, 57, 32
12, 447840, Note_on_c, 6, 69, 32
12, 447959, Note_on_c, 6, 57, 0
12, 447959, Note_on_c, 6, 69, 0
12, 448200, Note_on_c, 6, 69, 32
12, 448200, Note_on_c, 6, 57, 32
12, 448319, Note_on_c, 6, 69, 0
12, 448319, Note_on_c, 6, 57, 0
12, 448560, Note_on_c, 6, 57, 37
12, 448560, Note_on_c, 6, 69, 37
12, 448679, Note_on_c, 6, 57, 0
12, 448679, Note_on_c, 6, 69, 0
12, 448920, Note_on_c, 6, 57, 42
12, 448920, Note_on_c, 6, 69, 42
12, 449039, Note_on_c, 6, 57, 0
12, 449039, Note_on_c, 6, 69, 0
12, 449280, Note_on_c, 6, 69, 47
12, 449280, Note_on_c, 6, 57, 47
12, 449399, Note_on_c, 6, 69, 0
12, 449399, Note_on_c, 6, 57, 0
12, 449640, Note_on_c, 6, 57, 52
12, 449640, Note_on_c, 6, 69, 52
12, 449759, Note_on_c, 6, 57, 0
12, 449759, Note_on_c, 6, 69, 0
12, 450000, Note_on_c, 6, 69, 57
12, 450000, Note_on_c, 6, 57, 57
12, 450119, Note_on_c, 6, 69, 0
12, 450119, Note_on_c, 6, 57, 0
12, 450360, Note_on_c, 6, 69, 62
12, 450360, Note_on_c, 6, 57, 62
12, 450479, Note_on_c, 6, 69, 0
12, 450479, Note_on_c, 6, 57, 0
12, 450720, Note_on_c, 6, 57, 67
12, 450720, Note_on_c, 6, 69, 67
12, 450839, Note_on_c, 6, 57, 0
12, 450839, Note_on_c, 6, 69, 0
12, 451080, Note_on_c, 6, 69, 72
12, 451080, Note_on_c, 6, 57, 72
12, 451199, Note_on_c, 6, 69, 0
12, 451199, Note_on_c, 6, 57, 0
12, 451440, Note_on_c, 6, 69, 77
12, 451440, Note_on_c, 6, 57, 77
12, 451559, Note_on_c, 6, 69, 0
12, 451559, Note_on_c, 6, 57, 0
12, 451800, Note_on_c, 6, 57, 82
12, 451800, Note_on_c, 6, 69, 82
12, 451919, Note_on_c, 6, 57, 0
12, 451919, Note_on_c, 6, 69, 0
12, 452160, Note_on_c, 6, 69, 87
12, 452160, Note_on_c, 6, 57, 87
12, 452279, Note_on_c, 6, 69, 0
12, 452279, Note_on_c, 6, 57, 0
12, 452520, Note_on_c, 6, 57, 92
12, 452520, Note_on_c, 6, 69, 92
12, 452684, Note_on_c, 6, 57, 0
12, 452684, Note_on_c, 6, 69, 0
12, 452700, Note_on_c, 6, 69, 92
12, 452700, Note_on_c, 6, 57, 92
12, 452744, Note_on_c, 6, 69, 0
12, 452744, Note_on_c, 6, 57, 0
12, 452760, Note_on_c, 6, 57, 92
12, 452760, Note_on_c, 6, 69, 92
12, 452864, Note_on_c, 6, 57, 0
12, 452864, Note_on_c, 6, 69, 0
12, 452880, Note_on_c, 6, 74, 92
12, 452880, Note_on_c, 6, 62, 92
12, 452999, Note_on_c, 6, 74, 0
12, 452999, Note_on_c, 6, 62, 0
12, 453240, Note_on_c, 6, 57, 92
12, 453240, Note_on_c, 6, 69, 92
12, 453359, Note_on_c, 6, 57, 0
12, 453359, Note_on_c, 6, 69, 0
12, 453600, Note_on_c, 6, 74, 92
12, 453600, Note_on_c, 6, 62, 92
12, 453719, Note_on_c, 6, 74, 0
12, 453719, Note_on_c, 6, 62, 0
12, 453960, Note_on_c, 6, 62, 80
12, 453960, Note_on_c, 6, 74, 80
12, 454079, Note_on_c, 6, 62, 0
12, 454079, Note_on_c, 6, 74, 0
12, 454320, Note_on_c, 6, 74, 80
12, 454320, Note_on_c, 6, 62, 80
12, 454439, Note_on_c, 6, 74, 0
12, 454439, Note_on_c, 6, 62, 0
12, 454680, Note_on_c, 6, 57, 80
12, 454680, Note_on_c, 6, 69, 80
12, 454799, Note_on_c, 6, 57, 0
12, 454799, Note_on_c, 6, 69, 0
12, 455040, Note_on_c, 6, 74, 80
12, 455040, Note_on_c, 6, 62, 80
12, 455159, Note_on_c, 6, 74, 0
12, 455159, Note_on_c, 6, 62, 0
12, 455400, Note_on_c, 6, 62, 80
12, 455400, Note_on_c, 6, 74, 80
12, 455519, Note_on_c, 6, 62, 0
12, 455519, Note_on_c, 6, 74, 0
12, 455760, Note_on_c, 6, 62, 80
12, 455760, Note_on_c, 6, 74, 80
12, 455879, Note_on_c, 6, 62, 0
12, 455879, Note_on_c, 6, 74, 0
12, 456120, Note_on_c, 6, 69, 80
12, 456120, Note_on_c, 6, 57, 80
12, 456239, Note_on_c, 6, 69, 0
12, 456239, Note_on_c, 6, 57, 0
12, 456480, Note_on_c, 6, 74, 80
12, 456480, Note_on_c, 6, 62, 80
12, 456599, Note_on_c, 6, 74, 0
12, 456599, Note_on_c, 6, 62, 0
12, 456840, Note_on_c, 6, 62, 80
12, 456840, Note_on_c, 6, 74, 80
12, 456959, Note_on_c, 6, 62, 0
12, 456959, Note_on_c, 6, 74, 0
12, 457200, Note_on_c, 6, 72, 80
12, 457319, Note_on_c, 6, 72, 0
12, 457920, Note_on_c, 6, 72, 80
12, 458039, Note_on_c, 6, 72, 0
12, 458280, Note_on_c, 6, 62, 80
12, 458280, Note_on_c, 6, 74, 80
12, 458399, Note_on_c, 6, 62, 0
12, 458399, Note_on_c, 6, 74, 0
12, 458640, Note_on_c, 6, 72, 80
12, 458759, Note_on_c, 6, 72, 0
12, 459000, Note_on_c, 6, 72, 80
12, 459119, Note_on_c, 6, 72, 0
12, 459360, Note_on_c, 6, 72, 80
12, 459479, Note_on_c, 6, 72, 0
12, 459720, Note_on_c, 6, 79, 80
12, 459839, Note_on_c, 6, 79, 0
12, 471240, Note_on_c, 6, 72, 92
12, 471404, Note_on_c, 6, 72, 0
12, 471420, Note_on_c, 6, 72, 92
12, 471464, Note_on_c, 6, 72, 0
12, 471480, Note_on_c, 6, 72, 92
12, 471584, Note_on_c, 6, 72, 0
12, 471600, Note_on_c, 6, 72, 92
12, 471704, Note_on_c, 6, 72, 0
12, 472680, Note_on_c, 6, 74, 92
12, 472680, Note_on_c, 6, 62, 92
12, 472844, Note_on_c, 6, 74, 0
12, 472844, Note_on_c, 6, 62, 0
12, 472860, Note_on_c, 6, 62, 92
12, 472904, Note_on_c, 6, 62, 0
12, 472920, Note_on_c, 6, 62, 92
12, 473024, Note_on_c, 6, 62, 0
12, 473040, Note_on_c, 6, 74, 92
12, 473040, Note_on_c, 6, 62, 92
12, 473159, Note_on_c, 6, 74, 0
12, 473159, Note_on_c, 6, 62, 0
12, 479160, Note_on_c, 6, 72, 80
12, 479279, Note_on_c, 6, 72, 0
12, 479880, Note_on_c, 6, 72, 80
12, 479999, Note_on_c, 6, 72, 0
12, 480600, Note_on_c, 6, 72, 80
12, 480719, Note_on_c, 6, 72, 0
12, 481320, Note_on_c, 6, 72, 80
12, 481439, Note_on_c, 6, 72, 0
12, 493560, Note_on_c, 6, 69, 80
12, 493724, Note_on_c, 6, 69, 0
12, 493740, Note_on_c, 6, 69, 80
12, 493740, Note_on_c, 6, 57, 80
12, 493784, Note_on_c, 6, 69, 0
12, 493784, Note_on_c, 6, 57, 0
12, 493800, Note_on_c, 6, 57, 80
12, 493800, Note_on_c, 6, 69, 80
12, 493904, Note_on_c, 6, 57, 0
12, 493904, Note_on_c, 6, 69, 0
12, 509400, Note_on_c, 6, 74, 39
12, 509564, Note_on_c, 6, 74, 0
12, 509580, Note_on_c, 6, 62, 38
12, 509624, Note_on_c, 6, 62, 0
12, 509640, Note_on_c, 6, 62, 38
12, 509759, Note_on_c, 6, 62, 0
12, 525240, Note_on_c, 6, 74, 44
12, 525404, Note_on_c, 6, 74, 0
12, 525420, Note_on_c, 6, 62, 47
12, 525464, Note_on_c, 6, 62, 0
12, 525480, Note_on_c, 6, 62, 48
12, 525599, Note_on_c, 6, 62, 0
12, 526680, Note_on_c, 6, 74, 68
12, 526844, Note_on_c, 6, 74, 0
12, 526860, Note_on_c, 6, 62, 71
12, 526904, Note_on_c, 6, 62, 0
12, 526920, Note_on_c, 6, 62, 72
12, 527039, Note_on_c, 6, 62, 0
12, 527400, Note_on_c, 6, 74, 80
12, 527564, Note_on_c, 6, 74, 0
12, 527580, Note_on_c, 6, 62, 80
12, 527624, Note_on_c, 6, 62, 0
12, 527640, Note_on_c, 6, 62, 80
12, 527744, Note_on_c, 6, 62, 0
12, 527760, Note_on_c, 6, 74, 80
12, 527924, Note_on_c, 6, 74, 0
12, 527940, Note_on_c, 6, 62, 80
12, 527984, Note_on_c, 6, 62, 0
12, 528000, Note_on_c, 6, 62, 80
12, 528104, Note_on_c, 6, 62, 0
12, 528120, Note_on_c, 6, 74, 86
12, 528284, Note_on_c, 6, 74, 0
12, 528300, Note_on_c, 6, 62, 86
12, 528344, Note_on_c, 6, 62, 0
12, 528360, Note_on_c, 6, 62, 86
12, 528464, Note_on_c, 6, 62, 0
12, 528480, Note_on_c, 6, 74, 86
12, 528644, Note_on_c, 6, 74, 0
12, 528660, Note_on_c, 6, 62, 86
12, 528704, Note_on_c, 6, 62, 0
12, 528720, Note_on_c, 6, 62, 86
12, 528824, Note_on_c, 6, 62, 0
12, 528840, Note_on_c, 6, 74, 92
12, 529004, Note_on_c, 6, 74, 0
12, 529020, Note_on_c, 6, 62, 92
12, 529064, Note_on_c, 6, 62, 0
12, 529080, Note_on_c, 6, 62, 92
12, 529184, Note_on_c, 6, 62, 0
12, 529200, Note_on_c, 6, 74, 92
12, 529364, Note_on_c, 6, 74, 0
12, 529380, Note_on_c, 6, 62, 92
12, 529424, Note_on_c, 6, 62, 0
12, 529440, Note_on_c, 6, 62, 92
12, 529544, Note_on_c, 6, 62, 0
12, 529560, Note_on_c, 6, 74, 92
12, 529724, Note_on_c, 6, 74, 0
12, 529740, Note_on_c, 6, 62, 92
12, 529784, Note_on_c, 6, 62, 0
12, 529800, Note_on_c, 6, 62, 92
12, 529904, Note_on_c, 6, 62, 0
12, 529920, Note_on_c, 6, 74, 92
12, 530084, Note_on_c, 6, 74, 0
12, 530100, Note_on_c, 6, 62, 92
12, 530144, Note_on_c, 6, 62, 0
12, 530160, Note_on_c, 6, 62, 92
12, 530264, Note_on_c, 6, 62, 0
12, 530280, Note_on_c, 6, 74, 92
12, 530444, Note_on_c, 6, 74, 0
12, 530460, Note_on_c, 6, 62, 92
12, 530504, Note_on_c, 6, 62, 0
12, 530520, Note_on_c, 6, 62, 92
12, 530624, Note_on_c, 6, 62, 0
12, 530640, Note_on_c, 6, 74, 92
12, 530804, Note_on_c, 6, 74, 0
12, 530820, Note_on_c, 6, 62, 92
12, 530864, Note_on_c, 6, 62, 0
12, 530880, Note_on_c, 6, 62, 92
12, 530984, Note_on_c, 6, 62, 0
12, 531000, Note_on_c, 6, 74, 92
12, 531164, Note_on_c, 6, 74, 0
12, 531180, Note_on_c, 6, 62, 92
12, 531224, Note_on_c, 6, 62, 0
12, 531240, Note_on_c, 6, 62, 92
12, 531344, Note_on_c, 6, 62, 0
12, 531360, Note_on_c, 6, 74, 92
12, 531524, Note_on_c, 6, 74, 0
12, 531540, Note_on_c, 6, 62, 92
12, 531584, Note_on_c, 6, 62, 0
12, 531600, Note_on_c, 6, 62, 92
12, 531704, Note_on_c, 6, 62, 0
12, 531720, Note_on_c, 6, 74, 92
12, 531884, Note_on_c, 6, 74, 0
12, 531900, Note_on_c, 6, 62, 92
12, 531944, Note_on_c, 6, 62, 0
12, 531960, Note_on_c, 6, 62, 92
12, 532064, Note_on_c, 6, 62, 0
12, 532080, Note_on_c, 6, 74, 92
12, 532244, Note_on_c, 6, 74, 0
12, 532260, Note_on_c, 6, 62, 92
12, 532304, Note_on_c, 6, 62, 0
12, 532320, Note_on_c, 6, 62, 92
12, 532424, Note_on_c, 6, 62, 0
12, 532440, Note_on_c, 6, 74, 92
12, 532604, Note_on_c, 6, 74, 0
12, 532620, Note_on_c, 6, 62, 92
12, 532664, Note_on_c, 6, 62, 0
12, 532680, Note_on_c, 6, 62, 92
12, 532784, Note_on_c, 6, 62, 0
12, 532800, Note_on_c, 6, 74, 92
12, 532964, Note_on_c, 6, 74, 0
12, 532980, Note_on_c, 6, 62, 92
12, 533024, Note_on_c, 6, 62, 0
12, 533040, Note_on_c, 6, 62, 92
12, 533144, Note_on_c, 6, 62, 0
12, 533160, Note_on_c, 6, 74, 92
12, 533324, Note_on_c, 6, 74, 0
12, 533340, Note_on_c, 6, 62, 92
12, 533384, Note_on_c, 6, 62, 0
12, 533400, Note_on_c, 6, 62, 92
12, 533504, Note_on_c, 6, 62, 0
12, 533520, Note_on_c, 6, 74, 92
12, 533684, Note_on_c, 6, 74, 0
12, 533700, Note_on_c, 6, 62, 92
12, 533744, Note_on_c, 6, 62, 0
12, 533760, Note_on_c, 6, 62, 92
12, 533864, Note_on_c, 6, 62, 0
12, 533880, Note_on_c, 6, 74, 92
12, 534044, Note_on_c, 6, 74, 0
12, 534060, Note_on_c, 6, 62, 92
12, 534104, Note_on_c, 6, 62, 0
12, 534120, Note_on_c, 6, 62, 92
12, 534224, Note_on_c, 6, 62, 0
12, 534240, Note_on_c, 6, 74, 92
12, 534404, Note_on_c, 6, 74, 0
12, 534420, Note_on_c, 6, 62, 92
12, 534464, Note_on_c, 6, 62, 0
12, 534480, Note_on_c, 6, 62, 92
12, 534584, Note_on_c, 6, 62, 0
12, 534960, Note_on_c, 6, 74, 92
12, 535124, Note_on_c, 6, 74, 0
12, 535140, Note_on_c, 6, 62, 92
12, 535184, Note_on_c, 6, 62, 0
12, 535200, Note_on_c, 6, 62, 92
12, 535304, Note_on_c, 6, 62, 0
12, 535320, Note_on_c, 6, 74, 92
12, 535484, Note_on_c, 6, 74, 0
12, 535500, Note_on_c, 6, 62, 92
12, 535544, Note_on_c, 6, 62, 0
12, 535560, Note_on_c, 6, 62, 92
12, 535664, Note_on_c, 6, 62, 0
12, 535680, Note_on_c, 6, 74, 92
12, 535844, Note_on_c, 6, 74, 0
12, 535860, Note_on_c, 6, 62, 92
12, 535904, Note_on_c, 6, 62, 0
12, 535920, Note_on_c, 6, 62, 92
12, 536024, Note_on_c, 6, 62, 0
12, 550320, Note_on_c, 6, 74, 78
12, 550320, Note_on_c, 6, 62, 78
12, 550439, Note_on_c, 6, 74, 0
12, 550439, Note_on_c, 6, 62, 0
12, 550680, Note_on_c, 6, 62, 84
12, 550680, Note_on_c, 6, 74, 84
12, 550799, Note_on_c, 6, 62, 0
12, 550799, Note_on_c, 6, 74, 0
12, 551040, Note_on_c, 6, 57, 90
12, 551040, Note_on_c, 6, 69, 90
12, 551144, Note_on_c, 6, 57, 0
12, 551144, Note_on_c, 6, 69, 0
12, 551160, Note_on_c, 6, 62, 92
12, 551160, Note_on_c, 6, 74, 92
12, 551279, Note_on_c, 6, 62, 0
12, 551279, Note_on_c, 6, 74, 0
12, 551520, Note_on_c, 6, 74, 92
12, 551520, Note_on_c, 6, 62, 92
12, 551639, Note_on_c, 6, 74, 0
12, 551639, Note_on_c, 6, 62, 0
12, 551760, Note_on_c, 6, 62, 92
12, 551760, Note_on_c, 6, 74, 92
12, 551864, Note_on_c, 6, 62, 0
12, 551864, Note_on_c, 6, 74, 0
12, 551880, Note_on_c, 6, 62, 92
12, 551880, Note_on_c, 6, 74, 92
12, 551999, Note_on_c, 6, 62, 0
12, 551999, Note_on_c, 6, 74, 0
12, 552120, Note_on_c, 6, 62, 92
12, 552120, Note_on_c, 6, 74, 92
12, 552224, Note_on_c, 6, 62, 0
12, 552224, Note_on_c, 6, 74, 0
12, 552240, Note_on_c, 6, 62, 92
12, 552240, Note_on_c, 6, 74, 92
12, 552359, Note_on_c, 6, 62, 0
12, 552359, Note_on_c, 6, 74, 0
12, 552480, Note_on_c, 6, 62, 92
12, 552480, Note_on_c, 6, 74, 92
12, 552584, Note_on_c, 6, 62, 0
12, 552584, Note_on_c, 6, 74, 0
12, 552600, Note_on_c, 6, 62, 92
12, 552600, Note_on_c, 6, 74, 92
12, 552719, Note_on_c, 6, 62, 0
12, 552719, Note_on_c, 6, 74, 0
12, 552960, Note_on_c, 6, 62, 92
12, 552960, Note_on_c, 6, 74, 92
12, 553079, Note_on_c, 6, 62, 0
12, 553079, Note_on_c, 6, 74, 0
12, 553200, Note_on_c, 6, 74, 92
12, 553200, Note_on_c, 6, 62, 92
12, 553304, Note_on_c, 6, 74, 0
12, 553304, Note_on_c, 6, 62, 0
12, 553320, Note_on_c, 6, 62, 92
12, 553320, Note_on_c, 6, 74, 92
12, 553439, Note_on_c, 6, 62, 0
12, 553439, Note_on_c, 6, 74, 0
12, 553560, Note_on_c, 6, 62, 92
12, 553560, Note_on_c, 6, 74, 92
12, 553664, Note_on_c, 6, 62, 0
12, 553664, Note_on_c, 6, 74, 0
12, 553680, Note_on_c, 6, 62, 92
12, 553680, Note_on_c, 6, 74, 92
12, 553799, Note_on_c, 6, 62, 0
12, 553799, Note_on_c, 6, 74, 0
12, 553920, Note_on_c, 6, 74, 92
12, 553920, Note_on_c, 6, 62, 92
12, 554024, Note_on_c, 6, 74, 0
12, 554024, Note_on_c, 6, 62, 0
12, 554040, Note_on_c, 6, 74, 92
12, 554040, Note_on_c, 6, 62, 92
12, 554144, Note_on_c, 6, 74, 0
12, 554144, Note_on_c, 6, 62, 0
12, 554160, Note_on_c, 6, 74, 92
12, 554160, Note_on_c, 6, 62, 92
12, 554264, Note_on_c, 6, 74, 0
12, 554264, Note_on_c, 6, 62, 0
12, 554280, Note_on_c, 6, 62, 92
12, 554280, Note_on_c, 6, 74, 92
12, 554384, Note_on_c, 6, 62, 0
12, 554384, Note_on_c, 6, 74, 0
12, 554400, Note_on_c, 6, 74, 92
12, 554400, Note_on_c, 6, 62, 92
12, 554504, Note_on_c, 6, 74, 0
12, 554504, Note_on_c, 6, 62, 0
12, 554520, Note_on_c, 6, 74, 92
12, 554520, Note_on_c, 6, 62, 92
12, 554624, Note_on_c, 6, 74, 0
12, 554624, Note_on_c, 6, 62, 0
12, 554640, Note_on_c, 6, 62, 92
12, 554640, Note_on_c, 6, 74, 92
12, 554744, Note_on_c, 6, 62, 0
12, 554744, Note_on_c, 6, 74, 0
12, 554760, Note_on_c, 6, 74, 92
12, 554760, Note_on_c, 6, 62, 92
12, 554864, Note_on_c, 6, 74, 0
12, 554864, Note_on_c, 6, 62, 0
12, 554880, Note_on_c, 6, 62, 92
12, 554880, Note_on_c, 6, 74, 92
12, 554984, Note_on_c, 6, 62, 0
12, 554984, Note_on_c, 6, 74, 0
12, 555000, Note_on_c, 6, 74, 92
12, 555000, Note_on_c, 6, 62, 92
12, 555104, Note_on_c, 6, 74, 0
12, 555104, Note_on_c, 6, 62, 0
12, 555120, Note_on_c, 6, 74, 92
12, 555120, Note_on_c, 6, 62, 92
12, 555224, Note_on_c, 6, 74, 0
12, 555224, Note_on_c, 6, 62, 0
12, 555240, Note_on_c, 6, 62, 92
12, 555240, Note_on_c, 6, 74, 92
12, 555344, Note_on_c, 6, 62, 0
12, 555344, Note_on_c, 6, 74, 0
12, 555360, Note_on_c, 6, 74, 92
12, 555360, Note_on_c, 6, 62, 92
12, 555464, Note_on_c, 6, 74, 0
12, 555464, Note_on_c, 6, 62, 0
12, 555480, Note_on_c, 6, 62, 92
12, 555480, Note_on_c, 6, 74, 92
12, 555584, Note_on_c, 6, 62, 0
12, 555584, Note_on_c, 6, 74, 0
12, 555600, Note_on_c, 6, 62, 92
12, 555600, Note_on_c, 6, 74, 92
12, 555704, Note_on_c, 6, 62, 0
12, 555704, Note_on_c, 6, 74, 0
12, 555720, Note_on_c, 6, 62, 92
12, 555720, Note_on_c, 6, 74, 92
12, 555824, Note_on_c, 6, 62, 0
12, 555824, Note_on_c, 6, 74, 0
12, 555840, Note_on_c, 6, 74, 92
12, 555840, Note_on_c, 6, 62, 92
12, 555944, Note_on_c, 6, 74, 0
12, 555944, Note_on_c, 6, 62, 0
12, 555960, Note_on_c, 6, 74, 92
12, 555960, Note_on_c, 6, 62, 92
12, 556064, Note_on_c, 6, 74, 0
12, 556064, Note_on_c, 6, 62, 0
12, 556080, Note_on_c, 6, 74, 92
12, 556080, Note_on_c, 6, 62, 92
12, 556184, Note_on_c, 6, 74, 0
12, 556184, Note_on_c, 6, 62, 0
12, 556200, Note_on_c, 6, 62, 92
12, 556200, Note_on_c, 6, 74, 92
12, 556304, Note_on_c, 6, 62, 0
12, 556304, Note_on_c, 6, 74, 0
12, 556320, Note_on_c, 6, 62, 92
12, 556320, Note_on_c, 6, 74, 92
12, 556424, Note_on_c, 6, 62, 0
12, 556424, Note_on_c, 6, 74, 0
12, 556440, Note_on_c, 6, 74, 92
12, 556440, Note_on_c, 6, 62, 92
12, 556544, Note_on_c, 6, 74, 0
12, 556544, Note_on_c, 6, 62, 0
12, 556560, Note_on_c, 6, 74, 92
12, 556560, Note_on_c, 6, 62, 92
12, 556664, Note_on_c, 6, 74, 0
12, 556664, Note_on_c, 6, 62, 0
12, 556680, Note_on_c, 6, 74, 92
12, 556680, Note_on_c, 6, 62, 92
12, 556784, Note_on_c, 6, 74, 0
12, 556784, Note_on_c, 6, 62, 0
12, 556800, Note_on_c, 6, 62, 92
12, 556800, Note_on_c, 6, 74, 92
12, 556904, Note_on_c, 6, 62, 0
12, 556904, Note_on_c, 6, 74, 0
12, 556920, Note_on_c, 6, 62, 92
12, 556920, Note_on_c, 6, 74, 92
12, 557084, Note_on_c, 6, 62, 0
12, 557084, Note_on_c, 6, 74, 0
12, 557100, Note_on_c, 6, 62, 92
12, 557100, Note_on_c, 6, 74, 92
12, 557144, Note_on_c, 6, 62, 0
12, 557144, Note_on_c, 6, 74, 0
12, 557160, Note_on_c, 6, 62, 92
12, 557160, Note_on_c, 6, 74, 92
12, 557264, Note_on_c, 6, 62, 0
12, 557264, Note_on_c, 6, 74, 0
12, 557280, Note_on_c, 6, 62, 92
12, 557280, Note_on_c, 6, 74, 92
12, 557384, Note_on_c, 6, 62, 0
12, 557384, Note_on_c, 6, 74, 0
12, 557400, Note_on_c, 6, 74, 92
12, 557400, Note_on_c, 6, 62, 92
12, 557504, Note_on_c, 6, 74, 0
12, 557504, Note_on_c, 6, 62, 0
12, 557520, Note_on_c, 6, 74, 92
12, 557520, Note_on_c, 6, 62, 92
12, 557624, Note_on_c, 6, 74, 0
12, 557624, Note_on_c, 6, 62, 0
12, 557640, Note_on_c, 6, 62, 92
12, 557640, Note_on_c, 6, 74, 92
12, 557759, Note_on_c, 6, 62, 0
12, 557759, Note_on_c, 6, 74, 0
12, 558240, Note_on_c, 6, 79, 92
12, 558344, Note_on_c, 6, 79, 0
12, 558360, Note_on_c, 6, 72, 92
12, 558524, Note_on_c, 6, 72, 0
12, 558540, Note_on_c, 6, 72, 92
12, 558584, Note_on_c, 6, 72, 0
12, 558600, Note_on_c, 6, 72, 92
12, 558704, Note_on_c, 6, 72, 0
12, 558720, Note_on_c, 6, 72, 92
12, 558824, Note_on_c, 6, 72, 0
12, 558840, Note_on_c, 6, 72, 92
12, 558944, Note_on_c, 6, 72, 0
12, 558960, Note_on_c, 6, 72, 92
12, 559064, Note_on_c, 6, 72, 0
12, 559080, Note_on_c, 6, 69, 92
12, 559244, Note_on_c, 6, 69, 0
12, 559260, Note_on_c, 6, 69, 92
12, 559304, Note_on_c, 6, 69, 0
12, 559320, Note_on_c, 6, 69, 92
12, 559424, Note_on_c, 6, 69, 0
12, 559440, Note_on_c, 6, 69, 92
12, 559544, Note_on_c, 6, 69, 0
12, 559560, Note_on_c, 6, 69, 92
12, 559664, Note_on_c, 6, 69, 0
12, 559680, Note_on_c, 6, 69, 92
12, 559784, Note_on_c, 6, 69, 0
12, 559800, Note_on_c, 6, 62, 44
12, 559919, Note_on_c, 6, 62, 0
12, 563400, Note_on_c, 6, 74, 80
12, 563400, Note_on_c, 6, 62, 80
12, 563519, Note_on_c, 6, 74, 0
12, 563519, Note_on_c, 6, 62, 0
12, 563760, Note_on_c, 6, 69, 80
12, 563760, Note_on_c, 6, 57, 80
12, 563879, Note_on_c, 6, 69, 0
12, 563879, Note_on_c, 6, 57, 0
12, 564120, Note_on_c, 6, 74, 80
12, 564120, Note_on_c, 6, 62, 80
12, 564239, Note_on_c, 6, 74, 0
12, 564239, Note_on_c, 6, 62, 0
12, 564480, Note_on_c, 6, 62, 80
12, 564480, Note_on_c, 6, 74, 80
12, 564584, Note_on_c, 6, 62, 0
12, 564584, Note_on_c, 6, 74, 0
12, 564600, Note_on_c, 6, 57, 80
12, 564600, Note_on_c, 6, 69, 80
12, 564704, Note_on_c, 6, 57, 0
12, 564704, Note_on_c, 6, 69, 0
12, 564720, Note_on_c, 6, 57, 80
12, 564720, Note_on_c, 6, 69, 80
12, 564824, Note_on_c, 6, 57, 0
12, 564824, Note_on_c, 6, 69, 0
12, 564840, Note_on_c, 6, 74, 80
12, 564840, Note_on_c, 6, 62, 80
12, 564959, Note_on_c, 6, 74, 0
12, 564959, Note_on_c, 6, 62, 0
12, 565560, Note_on_c, 6, 74, 80
12, 565560, Note_on_c, 6, 62, 80
12, 565679, Note_on_c, 6, 74, 0
12, 565679, Note_on_c, 6, 62, 0
12, 565920, Note_on_c, 6, 57, 80
12, 565920, Note_on_c, 6, 69, 80
12, 566039, Note_on_c, 6, 57, 0
12, 566039, Note_on_c, 6, 69, 0
12, 566280, Note_on_c, 6, 62, 80
12, 566280, Note_on_c, 6, 74, 80
12, 566399, Note_on_c, 6, 62, 0
12, 566399, Note_on_c, 6, 74, 0
12, 566640, Note_on_c, 6, 57, 80
12, 566640, Note_on_c, 6, 69, 80
12, 566804, Note_on_c, 6, 57, 0
12, 566804, Note_on_c, 6, 69, 0
12, 566820, Note_on_c, 6, 69, 80
12, 566820, Note_on_c, 6, 57, 80
12, 566864, Note_on_c, 6, 69, 0
12, 566864, Note_on_c, 6, 57, 0
12, 566880, Note_on_c, 6, 57, 80
12, 566880, Note_on_c, 6, 69, 80
12, 566999, Note_on_c, 6, 57, 0
12, 566999, Note_on_c, 6, 69, 0
12, 567360, Note_on_c, 6, 57, 80
12, 567360, Note_on_c, 6, 69, 80
12, 567524, Note_on_c, 6, 57, 0
12, 567524, Note_on_c, 6, 69, 0
12, 567540, Note_on_c, 6, 69, 80
12, 567540, Note_on_c, 6, 57, 80
12, 567584, Note_on_c, 6, 69, 0
12, 567584, Note_on_c, 6, 57, 0
12, 567600, Note_on_c, 6, 69, 80
12, 567600, Note_on_c, 6, 57, 80
12, 567719, Note_on_c, 6, 69, 0
12, 567719, Note_on_c, 6, 57, 0
12, 574200, Note_on_c, 6, 62, 80
12, 574200, Note_on_c, 6, 74, 80
12, 574364, Note_on_c, 6, 62, 0
12, 574364, Note_on_c, 6, 74, 0
12, 574380, Note_on_c, 6, 62, 80
12, 574380, Note_on_c, 6, 74, 80
12, 574424, Note_on_c, 6, 62, 0
12, 574424, Note_on_c, 6, 74, 0
12, 574440, Note_on_c, 6, 74, 80
12, 574440, Note_on_c, 6, 62, 80
12, 574544, Note_on_c, 6, 74, 0
12, 574544, Note_on_c, 6, 62, 0
12, 574560, Note_on_c, 6, 69, 92
12, 574560, Note_on_c, 6, 57, 92
12, 574724, Note_on_c, 6, 69, 0
12, 574724, Note_on_c, 6, 57, 0
12, 574740, Note_on_c, 6, 69, 92
12, 574740, Note_on_c, 6, 57, 92
12, 574784, Note_on_c, 6, 69, 0
12, 574784, Note_on_c, 6, 57, 0
12, 574800, Note_on_c, 6, 69, 92
12, 574800, Note_on_c, 6, 57, 92
12, 575249, Note_on_c, 6, 69, 0
12, 575249, Note_on_c, 6, 57, 0
12, 578160, Note_on_c, 6, 69, 32
12, 578160, Note_on_c, 6, 57, 32
12, 578279, Note_on_c, 6, 69, 0
12, 578279, Note_on_c, 6, 57, 0
12, 578520, Note_on_c, 6, 62, 39
12, 578639, Note_on_c, 6, 62, 0
12, 578880, Note_on_c, 6, 57, 47
12, 578880, Note_on_c, 6, 69, 47
12, 578999, Note_on_c, 6, 57, 0
12, 578999, Note_on_c, 6, 69, 0
12, 579240, Note_on_c, 6, 62, 54
12, 579359, Note_on_c, 6, 62, 0
12, 579600, Note_on_c, 6, 69, 62
12, 579600, Note_on_c, 6, 57, 62
12, 579719, Note_on_c, 6, 69, 0
12, 579719, Note_on_c, 6, 57, 0
12, 579960, Note_on_c, 6, 62, 69
12, 580079, Note_on_c, 6, 62, 0
12, 580320, Note_on_c, 6, 69, 77
12, 580320, Note_on_c, 6, 57, 77
12, 580439, Note_on_c, 6, 69, 0
12, 580439, Note_on_c, 6, 57, 0
12, 580680, Note_on_c, 6, 62, 84
12, 580799, Note_on_c, 6, 62, 0
12, 581040, Note_on_c, 6, 57, 92
12, 581040, Note_on_c, 6, 69, 92
12, 581159, Note_on_c, 6, 57, 0
12, 581159, Note_on_c, 6, 69, 0
12, 581280, Note_on_c, 6, 74, 80
12, 581280, Note_on_c, 6, 62, 80
12, 581399, Note_on_c, 6, 74, 0
12, 581399, Note_on_c, 6, 62, 0
12, 581520, Note_on_c, 6, 69, 80
12, 581520, Note_on_c, 6, 57, 80
12, 581639, Note_on_c, 6, 69, 0
12, 581639, Note_on_c, 6, 57, 0
12, 581760, Note_on_c, 6, 57, 80
12, 581760, Note_on_c, 6, 69, 80
12, 581879, Note_on_c, 6, 57, 0
12, 581879, Note_on_c, 6, 69, 0
12, 582000, Note_on_c, 6, 62, 80
12, 582119, Note_on_c, 6, 62, 0
12, 585840, Note_on_c, 6, 69, 92
12, 585840, Note_on_c, 6, 57, 92
12, 585959, Note_on_c, 6, 69, 0
12, 585959, Note_on_c, 6, 57, 0
12, 586080, Note_on_c, 6, 74, 80
12, 586080, Note_on_c, 6, 62, 80
12, 586199, Note_on_c, 6, 74, 0
12, 586199, Note_on_c, 6, 62, 0
12, 586320, Note_on_c, 6, 69, 80
12, 586320, Note_on_c, 6, 57, 80
12, 586439, Note_on_c, 6, 69, 0
12, 586439, Note_on_c, 6, 57, 0
12, 586560, Note_on_c, 6, 69, 80
12, 586560, Note_on_c, 6, 57, 80
12, 586679, Note_on_c, 6, 69, 0
12, 586679, Note_on_c, 6, 57, 0
12, 586800, Note_on_c, 6, 62, 80
12, 586919, Note_on_c, 6, 62, 0
12, 586919, End_track
13, 0, Start_track
13, 0, Title_t, "Alto and Tenor Trombone"
13, 0, MIDI_port, 0
13, 0, Program_c, 7, 57
13, 0, Control_c, 7, 7, 104
13, 0, Control_c, 7, 10, 80
13, 0, Control_c, 7, 11, 127
13, 366120, Control_c, 7, 11, 103
13, 366180, Control_c, 7, 11, 104
13, 366240, Control_c, 7, 11, 105
13, 366300, Control_c, 7, 11, 106
13, 366360, Control_c, 7, 11, 107
13, 366420, Control_c, 7, 11, 108
13, 366480, Control_c, 7, 11, 109
13, 366540, Control_c, 7, 11, 110
13, 366600, Control_c, 7, 11, 111
13, 366660, Control_c, 7, 11, 112
13, 366720, Control_c, 7, 11, 113
13, 366780, Control_c, 7, 11, 114
13, 366840, Note_on_c, 7, 54, 80
13, 366840, Control_c, 7, 11, 115
13, 366840, Note_on_c, 7, 62, 80
13, 366900, Control_c, 7, 11, 116
13, 366960, Control_c, 7, 11, 117
13, 367020, Control_c, 7, 11, 118
13, 367080, Control_c, 7, 11, 119
13, 367140, Control_c, 7, 11, 120
13, 367200, Control_c, 7, 11, 121
13, 367260, Control_c, 7, 11, 122
13, 367299, Note_on_c, 7, 54, 0
13, 367299, Note_on_c, 7, 62, 0
13, 367320, Note_on_c, 7, 57, 80
13, 367320, Control_c, 7, 11, 123
13, 367320, Note_on_c, 7, 64, 80
13, 367380, Control_c, 7, 11, 124
13, 367440, Control_c, 7, 11, 125
13, 367500, Control_c, 7, 11, 127
13, 367539, Note_on_c, 7, 57, 0
13, 367539, Note_on_c, 7, 64, 0
13, 367560, Note_on_c, 7, 62, 80
13, 367560, Note_on_c, 7, 66, 80
13, 367739, Note_on_c, 7, 62, 0
13, 367739, Note_on_c, 7, 66, 0
13, 367800, Note_on_c, 7, 66, 80
13, 367800, Note_on_c, 7, 62, 80
13, 367979, Note_on_c, 7, 66, 0
13, 367979, Note_on_c, 7, 62, 0
13, 368040, Note_on_c, 7, 57, 80
13, 368040, Note_on_c, 7, 64, 80
13, 368219, Note_on_c, 7, 57, 0
13, 368219, Note_on_c, 7, 64, 0
13, 368280, Note_on_c, 7, 64, 80
13, 368280, Note_on_c, 7, 57, 80
13, 368459, Note_on_c, 7, 64, 0
13, 368459, Note_on_c, 7, 57, 0
13, 368520, Note_on_c, 7, 66, 80
13, 368520, Control_c, 7, 11, 127
13, 368520, Note_on_c, 7, 62, 80
13, 368560, Control_c, 7, 11, 125
13, 368600, Control_c, 7, 11, 122
13, 368640, Control_c, 7, 11, 120
13, 368680, Control_c, 7, 11, 117
13, 368699, Note_on_c, 7, 66, 0
13, 368699, Note_on_c, 7, 62, 0
13, 368720, Control_c, 7, 11, 115
13, 368760, Note_on_c, 7, 66, 80
13, 368760, Note_on_c, 7, 62, 80
13, 368760, Control_c, 7, 11, 112
13, 368800, Control_c, 7, 11, 110
13, 368840, Control_c, 7, 11, 107
13, 368880, Control_c, 7, 11, 105
13, 368920, Control_c, 7, 11, 102
13, 368939, Note_on_c, 7, 66, 0
13, 368939, Note_on_c, 7, 62, 0
13, 368960, Control_c, 7, 11, 100
13, 369000, Note_on_c, 7, 57, 80
13, 369000, Control_c, 7, 11, 97
13, 369000, Note_on_c, 7, 64, 80
13, 369040, Control_c, 7, 11, 95
13, 369080, Control_c, 7, 11, 92
13, 369120, Control_c, 7, 11, 90
13, 369160, Control_c, 7, 11, 87
13, 369179, Note_on_c, 7, 57, 0
13, 369179, Note_on_c, 7, 64, 0
13, 369200, Control_c, 7, 11, 85
13, 369240, Note_on_c, 7, 64, 80
13, 369240, Control_c, 7, 11, 82
13, 369240, Note_on_c, 7, 57, 80
13, 369280, Control_c, 7, 11, 80
13, 369320, Control_c, 7, 11, 77
13, 369360, Control_c, 7, 11, 75
13, 369400, Control_c, 7, 11, 72
13, 369419, Note_on_c, 7, 64, 0
13, 369419, Note_on_c, 7, 57, 0
13, 369440, Control_c, 7, 11, 70
13, 369478, Control_c, 7, 11, 47
13, 369480, Control_c, 7, 11, 47
13, 369480, Note_on_c, 7, 62, 80
13, 369480, Note_on_c, 7, 66, 80
13, 369599, Note_on_c, 7, 62, 0
13, 369599, Note_on_c, 7, 66, 0
13, 372540, Control_c, 7, 11, 114
13, 372600, Note_on_c, 7, 62, 80
13, 372600, Note_on_c, 7, 66, 80
13, 372600, Control_c, 7, 11, 115
13, 372660, Control_c, 7, 11, 116
13, 372720, Control_c, 7, 11, 117
13, 372780, Control_c, 7, 11, 118
13, 372840, Control_c, 7, 11, 119
13, 372900, Control_c, 7, 11, 120
13, 372960, Control_c, 7, 11, 121
13, 373020, Control_c, 7, 11, 122
13, 373059, Note_on_c, 7, 62, 0
13, 373059, Note_on_c, 7, 66, 0
13, 373080, Note_on_c, 7, 67, 80
13, 373080, Note_on_c, 7, 64, 80
13, 373080, Control_c, 7, 11, 123
13, 373140, Control_c, 7, 11, 124
13, 373200, Control_c, 7, 11, 125
13, 373260, Control_c, 7, 11, 126
13, 373299, Note_on_c, 7, 67, 0
13, 373299, Note_on_c, 7, 64, 0
13, 373320, Control_c, 7, 11, 127
13, 373320, Note_on_c, 7, 69, 80
13, 373320, Note_on_c, 7, 66, 80
13, 373499, Note_on_c, 7, 69, 0
13, 373499, Note_on_c, 7, 66, 0
13, 373560, Note_on_c, 7, 66, 80
13, 373560, Note_on_c, 7, 69, 80
13, 373739, Note_on_c, 7, 66, 0
13, 373739, Note_on_c, 7, 69, 0
13, 373800, Note_on_c, 7, 69, 80
13, 373800, Note_on_c, 7, 64, 80
13, 373979, Note_on_c, 7, 69, 0
13, 373979, Note_on_c, 7, 64, 0
13, 374040, Note_on_c, 7, 64, 80
13, 374040, Note_on_c, 7, 69, 80
13, 374219, Note_on_c, 7, 64, 0
13, 374219, Note_on_c, 7, 69, 0
13, 374280, Note_on_c, 7, 69, 80
13, 374280, Note_on_c, 7, 66, 80
13, 374280, Control_c, 7, 11, 127
13, 374340, Control_c, 7, 11, 126
13, 374400, Control_c, 7, 11, 125
13, 374459, Note_on_c, 7, 69, 0
13, 374459, Note_on_c, 7, 66, 0
13, 374460, Control_c, 7, 11, 124
13, 374520, Note_on_c, 7, 66, 80
13, 374520, Control_c, 7, 11, 123
13, 374520, Note_on_c, 7, 69, 80
13, 374580, Control_c, 7, 11, 122
13, 374640, Control_c, 7, 11, 121
13, 374699, Note_on_c, 7, 66, 0
13, 374699, Note_on_c, 7, 69, 0
13, 374700, Control_c, 7, 11, 120
13, 374760, Note_on_c, 7, 69, 80
13, 374760, Note_on_c, 7, 64, 80
13, 374760, Control_c, 7, 11, 119
13, 374820, Control_c, 7, 11, 118
13, 374880, Control_c, 7, 11, 117
13, 374939, Note_on_c, 7, 69, 0
13, 374939, Note_on_c, 7, 64, 0
13, 374940, Control_c, 7, 11, 116
13, 375000, Control_c, 7, 11, 115
13, 375000, Note_on_c, 7, 69, 80
13, 375000, Note_on_c, 7, 64, 80
13, 375060, Control_c, 7, 11, 114
13, 375120, Control_c, 7, 11, 113
13, 375179, Note_on_c, 7, 69, 0
13, 375179, Note_on_c, 7, 64, 0
13, 375180, Control_c, 7, 11, 112
13, 375240, Note_on_c, 7, 66, 80
13, 375240, Control_c, 7, 11, 111
13, 375240, Note_on_c, 7, 69, 80
13, 375300, Control_c, 7, 11, 110
13, 375360, Control_c, 7, 11, 109
13, 375419, Note_on_c, 7, 66, 0
13, 375419, Note_on_c, 7, 69, 0
13, 375420, Control_c, 7, 11, 108
13, 375480, Control_c, 7, 11, 107
13, 375480, Note_on_c, 7, 66, 80
13, 375480, Note_on_c, 7, 69, 80
13, 375540, Control_c, 7, 11, 106
13, 375600, Control_c, 7, 11, 105
13, 375659, Note_on_c, 7, 66, 0
13, 375659, Note_on_c, 7, 69, 0
13, 375660, Control_c, 7, 11, 104
13, 375720, Control_c, 7, 11, 103
13, 375720, Note_on_c, 7, 69, 80
13, 375720, Note_on_c, 7, 64, 80
13, 375780, Control_c, 7, 11, 102
13, 375840, Control_c, 7, 11, 101
13, 375899, Note_on_c, 7, 69, 0
13, 375899, Note_on_c, 7, 64, 0
13, 375900, Control_c, 7, 11, 100
13, 375960, Note_on_c, 7, 69, 80
13, 375960, Note_on_c, 7, 64, 80
13, 375960, Control_c, 7, 11, 99
13, 376020, Control_c, 7, 11, 98
13, 376080, Control_c, 7, 11, 97
13, 376139, Note_on_c, 7, 69, 0
13, 376139, Note_on_c, 7, 64, 0
13, 376140, Control_c, 7, 11, 96
13, 376200, Control_c, 7, 11, 95
13, 376200, Note_on_c, 7, 69, 80
13, 376200, Note_on_c, 7, 66, 80
13, 376260, Control_c, 7, 11, 94
13, 376320, Control_c, 7, 11, 93
13, 376379, Note_on_c, 7, 69, 0
13, 376379, Note_on_c, 7, 66, 0
13, 376380, Control_c, 7, 11, 92
13, 376440, Note_on_c, 7, 66, 80
13, 376440, Note_on_c, 7, 69, 80
13, 376440, Control_c, 7, 11, 91
13, 376500, Control_c, 7, 11, 90
13, 376560, Control_c, 7, 11, 89
13, 376619, Note_on_c, 7, 66, 0
13, 376619, Note_on_c, 7, 69, 0
13, 376620, Control_c, 7, 11, 88
13, 376680, Note_on_c, 7, 69, 80
13, 376680, Note_on_c, 7, 64, 80
13, 376680, Control_c, 7, 11, 87
13, 376740, Control_c, 7, 11, 86
13, 376800, Control_c, 7, 11, 85
13, 376859, Note_on_c, 7, 69, 0
13, 376859, Note_on_c, 7, 64, 0
13, 376860, Control_c, 7, 11, 84
13, 376920, Note_on_c, 7, 69, 80
13, 376920, Control_c, 7, 11, 83
13, 376920, Note_on_c, 7, 64, 80
13, 376980, Control_c, 7, 11, 82
13, 377040, Control_c, 7, 11, 81
13, 377099, Note_on_c, 7, 69, 0
13, 377099, Note_on_c, 7, 64, 0
13, 377100, Control_c, 7, 11, 80
13, 377160, Note_on_c, 7, 66, 80
13, 377160, Control_c, 7, 11, 79
13, 377160, Note_on_c, 7, 69, 80
13, 377220, Control_c, 7, 11, 78
13, 377280, Control_c, 7, 11, 77
13, 377340, Control_c, 7, 11, 76
13, 377399, Note_on_c, 7, 66, 0
13, 377399, Note_on_c, 7, 69, 0
13, 377400, Control_c, 7, 11, 75
13, 377460, Control_c, 7, 11, 74
13, 377520, Control_c, 7, 11, 73
13, 377580, Control_c, 7, 11, 72
13, 377640, Control_c, 7, 11, 71
13, 377700, Control_c, 7, 11, 70
13, 377760, Control_c, 7, 11, 69
13, 377820, Control_c, 7, 11, 68
13, 377880, Control_c, 7, 11, 67
13, 377940, Control_c, 7, 11, 66
13, 378000, Control_c, 7, 11, 65
13, 378060, Control_c, 7, 11, 64
13, 378120, Control_c, 7, 11, 63
13, 378120, Note_on_c, 7, 50, 80
13, 378120, Note_on_c, 7, 62, 80
13, 378180, Control_c, 7, 11, 62
13, 378240, Control_c, 7, 11, 61
13, 378300, Control_c, 7, 11, 60
13, 378359, Note_on_c, 7, 50, 0
13, 378359, Note_on_c, 7, 62, 0
13, 378360, Control_c, 7, 11, 59
13, 378420, Control_c, 7, 11, 58
13, 378480, Control_c, 7, 11, 57
13, 378540, Control_c, 7, 11, 56
13, 378600, Control_c, 7, 11, 55
13, 378660, Control_c, 7, 11, 54
13, 378720, Control_c, 7, 11, 53
13, 378780, Control_c, 7, 11, 52
13, 378840, Control_c, 7, 11, 51
13, 378900, Control_c, 7, 11, 50
13, 378960, Control_c, 7, 11, 49
13, 379020, Control_c, 7, 11, 48
13, 379080, Control_c, 7, 11, 47
13, 379080, Note_on_c, 7, 50, 80
13, 379080, Note_on_c, 7, 62, 80
13, 379319, Note_on_c, 7, 50, 0
13, 379319, Note_on_c, 7, 62, 0
13, 380040, Note_on_c, 7, 50, 80
13, 380040, Note_on_c, 7, 62, 80
13, 380279, Note_on_c, 7, 50, 0
13, 380279, Note_on_c, 7, 62, 0
13, 381240, Control_c, 7, 11, 127
13, 381240, End_track
14, 0, Start_track
14, 0, Title_t, "Bass Trombone"
14, 0, MIDI_port, 0
14, 0, Program_c, 8, 57
14, 0, Control_c, 8, 7, 104
14, 0, Control_c, 8, 10, 90
14, 0, Control_c, 8, 11, 127
14, 287880, Control_c, 8, 11, 127
14, 287880, Note_on_c, 8, 62, 92
14, 287920, Control_c, 8, 11, 120
14, 287960, Control_c, 8, 11, 114
14, 288000, Control_c, 8, 11, 107
14, 288040, Control_c, 8, 11, 100
14, 288080, Control_c, 8, 11, 94
14, 288120, Control_c, 8, 11, 87
14, 288160, Control_c, 8, 11, 80
14, 288200, Control_c, 8, 11, 74
14, 288240, Control_c, 8, 11, 67
14, 288280, Control_c, 8, 11, 60
14, 288320, Control_c, 8, 11, 54
14, 288360, Control_c, 8, 11, 47
14, 288479, Note_on_c, 8, 62, 0
14, 288840, Control_c, 8, 11, 127
14, 321000, Note_on_c, 8, 50, 80
14, 321060, Control_c, 8, 11, 67
14, 321119, Note_on_c, 8, 50, 0
14, 321240, Note_on_c, 8, 62, 80
14, 321359, Note_on_c, 8, 62, 0
14, 321480, Note_on_c, 8, 62, 80
14, 321480, Control_c, 8, 11, 67
14, 321540, Control_c, 8, 11, 68
14, 321599, Note_on_c, 8, 62, 0
14, 321600, Control_c, 8, 11, 69
14, 321660, Control_c, 8, 11, 70
14, 321720, Note_on_c, 8, 57, 80
14, 321720, Control_c, 8, 11, 71
14, 321780, Control_c, 8, 11, 72
14, 321839, Note_on_c, 8, 57, 0
14, 321840, Control_c, 8, 11, 73
14, 321900, Control_c, 8, 11, 74
14, 321960, Control_c, 8, 11, 75
14, 321960, Note_on_c, 8, 54, 80
14, 322020, Control_c, 8, 11, 76
14, 322079, Note_on_c, 8, 54, 0
14, 322080, Control_c, 8, 11, 77
14, 322140, Control_c, 8, 11, 78
14, 322200, Control_c, 8, 11, 79
14, 322200, Note_on_c, 8, 50, 80
14, 322260, Control_c, 8, 11, 80
14, 322299, Note_on_c, 8, 50, 0
14, 322320, Note_on_c, 8, 48, 80
14, 322320, Control_c, 8, 11, 81
14, 322380, Control_c, 8, 11, 82
14, 322419, Note_on_c, 8, 48, 0
14, 322440, Note_on_c, 8, 47, 80
14, 322440, Control_c, 8, 11, 83
14, 322500, Control_c, 8, 11, 84
14, 322559, Note_on_c, 8, 47, 0
14, 322560, Control_c, 8, 11, 85
14, 322620, Control_c, 8, 11, 86
14, 322680, Control_c, 8, 11, 87
14, 322680, Note_on_c, 8, 50, 80
14, 322740, Control_c, 8, 11, 88
14, 322799, Note_on_c, 8, 50, 0
14, 322800, Control_c, 8, 11, 89
14, 322860, Control_c, 8, 11, 90
14, 322920, Control_c, 8, 11, 91
14, 322920, Note_on_c, 8, 57, 80
14, 322980, Control_c, 8, 11, 92
14, 323039, Note_on_c, 8, 57, 0
14, 323040, Control_c, 8, 11, 93
14, 323100, Control_c, 8, 11, 94
14, 323160, Control_c, 8, 11, 95
14, 323160, Note_on_c, 8, 62, 80
14, 323220, Control_c, 8, 11, 96
14, 323279, Note_on_c, 8, 62, 0
14, 323280, Control_c, 8, 11, 97
14, 323340, Control_c, 8, 11, 98
14, 323400, Control_c, 8, 11, 99
14, 323400, Note_on_c, 8, 62, 80
14, 323460, Control_c, 8, 11, 100
14, 323519, Note_on_c, 8, 62, 0
14, 323520, Control_c, 8, 11, 101
14, 323580, Control_c, 8, 11, 102
14, 323640, Note_on_c, 8, 57, 80
14, 323640, Control_c, 8, 11, 103
14, 323700, Control_c, 8, 11, 104
14, 323759, Note_on_c, 8, 57, 0
14, 323760, Control_c, 8, 11, 105
14, 323820, Control_c, 8, 11, 106
14, 323880, Note_on_c, 8, 54, 80
14, 323880, Control_c, 8, 11, 107
14, 323940, Control_c, 8, 11, 108
14, 323999, Note_on_c, 8, 54, 0
14, 324000, Control_c, 8, 11, 109
14, 324060, Control_c, 8, 11, 110
14, 324120, Control_c, 8, 11, 111
14, 324120, Note_on_c, 8, 50, 80
14, 324180, Control_c, 8, 11, 112
14, 324219, Note_on_c, 8, 50, 0
14, 324240, Note_on_c, 8, 48, 80
14, 324240, Control_c, 8, 11, 113
14, 324300, Control_c, 8, 11, 114
14, 324339, Note_on_c, 8, 48, 0
14, 324360, Control_c, 8, 11, 115
14, 324360, Note_on_c, 8, 47, 80
14, 324420, Control_c, 8, 11, 116
14, 324479, Note_on_c, 8, 47, 0
14, 324480, Control_c, 8, 11, 117
14, 324540, Control_c, 8, 11, 118
14, 324600, Note_on_c, 8, 50, 80
14, 324600, Control_c, 8, 11, 119
14, 324660, Control_c, 8, 11, 120
14, 324719, Note_on_c, 8, 50, 0
14, 324720, Control_c, 8, 11, 121
14, 324780, Control_c, 8, 11, 122
14, 324840, Control_c, 8, 11, 123
14, 324840, Note_on_c, 8, 57, 80
14, 324900, Control_c, 8, 11, 124
14, 324959, Note_on_c, 8, 57, 0
14, 324960, Control_c, 8, 11, 125
14, 325020, Control_c, 8, 11, 127
14, 325080, Note_on_c, 8, 62, 80
14, 325179, Note_on_c, 8, 62, 0
14, 325200, Note_on_c, 8, 61, 80
14, 325299, Note_on_c, 8, 61, 0
14, 325320, Note_on_c, 8, 62, 80
14, 325439, Note_on_c, 8, 62, 0
14, 325560, Note_on_c, 8, 57, 80
14, 325679, Note_on_c, 8, 57, 0
14, 325800, Note_on_c, 8, 54, 80
14, 325919, Note_on_c, 8, 54, 0
14, 326040, Note_on_c, 8, 50, 80
14, 326139, Note_on_c, 8, 50, 0
14, 326160, Note_on_c, 8, 48, 80
14, 326259, Note_on_c, 8, 48, 0
14, 326280, Note_on_c, 8, 47, 80
14, 326399, Note_on_c, 8, 47, 0
14, 326520, Note_on_c, 8, 50, 80
14, 326619, Note_on_c, 8, 50, 0
14, 326640, Note_on_c, 8, 54, 80
14, 326739, Note_on_c, 8, 54, 0
14, 326760, Note_on_c, 8, 57, 80
14, 326879, Note_on_c, 8, 57, 0
14, 327000, Note_on_c, 8, 62, 80
14, 327099, Note_on_c, 8, 62, 0
14, 327120, Note_on_c, 8, 61, 80
14, 327219, Note_on_c, 8, 61, 0
14, 327240, Note_on_c, 8, 62, 80
14, 327359, Note_on_c, 8, 62, 0
14, 327480, Note_on_c, 8, 57, 80
14, 327599, Note_on_c, 8, 57, 0
14, 327720, Note_on_c, 8, 54, 80
14, 327839, Note_on_c, 8, 54, 0
14, 327960, Note_on_c, 8, 50, 80
14, 328079, Note_on_c, 8, 50, 0
14, 328200, Note_on_c, 8, 47, 80
14, 328299, Note_on_c, 8, 47, 0
14, 328320, Note_on_c, 8, 43, 80
14, 328419, Note_on_c, 8, 43, 0
14, 328440, Note_on_c, 8, 45, 80
14, 328559, Note_on_c, 8, 45, 0
14, 328680, Note_on_c, 8, 50, 80
14, 328799, Note_on_c, 8, 50, 0
14, 354120, Note_on_c, 8, 50, 80
14, 354180, Control_c, 8, 11, 67
14, 354239, Note_on_c, 8, 50, 0
14, 354360, Note_on_c, 8, 62, 80
14, 354479, Note_on_c, 8, 62, 0
14, 354600, Note_on_c, 8, 62, 80
14, 354600, Control_c, 8, 11, 67
14, 354660, Control_c, 8, 11, 68
14, 354719, Note_on_c, 8, 62, 0
14, 354720, Control_c, 8, 11, 69
14, 354780, Control_c, 8, 11, 70
14, 354840, Control_c, 8, 11, 71
14, 354840, Note_on_c, 8, 57, 80
14, 354900, Control_c, 8, 11, 72
14, 354959, Note_on_c, 8, 57, 0
14, 354960, Control_c, 8, 11, 73
14, 355020, Control_c, 8, 11, 74
14, 355080, Control_c, 8, 11, 75
14, 355080, Note_on_c, 8, 54, 80
14, 355140, Control_c, 8, 11, 76
14, 355199, Note_on_c, 8, 54, 0
14, 355200, Control_c, 8, 11, 77
14, 355260, Control_c, 8, 11, 78
14, 355320, Note_on_c, 8, 50, 80
14, 355320, Control_c, 8, 11, 79
14, 355380, Control_c, 8, 11, 80
14, 355419, Note_on_c, 8, 50, 0
14, 355440, Control_c, 8, 11, 81
14, 355440, Note_on_c, 8, 48, 80
14, 355500, Control_c, 8, 11, 82
14, 355539, Note_on_c, 8, 48, 0
14, 355560, Note_on_c, 8, 47, 80
14, 355560, Control_c, 8, 11, 83
14, 355620, Control_c, 8, 11, 84
14, 355679, Note_on_c, 8, 47, 0
14, 355680, Control_c, 8, 11, 85
14, 355740, Control_c, 8, 11, 86
14, 355800, Control_c, 8, 11, 87
14, 355800, Note_on_c, 8, 50, 80
14, 355860, Control_c, 8, 11, 88
14, 355919, Note_on_c, 8, 50, 0
14, 355920, Control_c, 8, 11, 89
14, 355980, Control_c, 8, 11, 90
14, 356040, Control_c, 8, 11, 91
14, 356040, Note_on_c, 8, 57, 80
14, 356100, Control_c, 8, 11, 92
14, 356159, Note_on_c, 8, 57, 0
14, 356160, Control_c, 8, 11, 93
14, 356220, Control_c, 8, 11, 94
14, 356280, Control_c, 8, 11, 95
14, 356280, Note_on_c, 8, 62, 80
14, 356340, Control_c, 8, 11, 96
14, 356399, Note_on_c, 8, 62, 0
14, 356400, Control_c, 8, 11, 97
14, 356460, Control_c, 8, 11, 98
14, 356520, Note_on_c, 8, 62, 80
14, 356520, Control_c, 8, 11, 99
14, 356580, Control_c, 8, 11, 100
14, 356639, Note_on_c, 8, 62, 0
14, 356640, Control_c, 8, 11, 101
14, 356700, Control_c, 8, 11, 102
14, 356760, Note_on_c, 8, 57, 80
14, 356760, Control_c, 8, 11, 103
14, 356820, Control_c, 8, 11, 104
14, 356879, Note_on_c, 8, 57, 0
14, 356880, Control_c, 8, 11, 105
14, 356940, Control_c, 8, 11, 106
14, 357000, Note_on_c, 8, 54, 80
14, 357000, Control_c, 8, 11, 107
14, 357060, Control_c, 8, 11, 108
14, 357119, Note_on_c, 8, 54, 0
14, 357120, Control_c, 8, 11, 109
14, 357180, Control_c, 8, 11, 110
14, 357240, Control_c, 8, 11, 111
14, 357240, Note_on_c, 8, 50, 80
14, 357300, Control_c, 8, 11, 112
14, 357339, Note_on_c, 8, 50, 0
14, 357360, Note_on_c, 8, 48, 80
14, 357360, Control_c, 8, 11, 113
14, 357420, Control_c, 8, 11, 114
14, 357459, Note_on_c, 8, 48, 0
14, 357480, Note_on_c, 8, 47, 80
14, 357480, Control_c, 8, 11, 115
14, 357540, Control_c, 8, 11, 116
14, 357599, Note_on_c, 8, 47, 0
14, 357600, Control_c, 8, 11, 117
14, 357660, Control_c, 8, 11, 118
14, 357720, Control_c, 8, 11, 119
14, 357720, Note_on_c, 8, 50, 80
14, 357780, Control_c, 8, 11, 120
14, 357839, Note_on_c, 8, 50, 0
14, 357840, Control_c, 8, 11, 121
14, 357900, Control_c, 8, 11, 122
14, 357960, Control_c, 8, 11, 123
14, 357960, Note_on_c, 8, 57, 80
14, 358020, Control_c, 8, 11, 124
14, 358079, Note_on_c, 8, 57, 0
14, 358080, Control_c, 8, 11, 125
14, 358140, Control_c, 8, 11, 127
14, 358200, Note_on_c, 8, 62, 80
14, 358299, Note_on_c, 8, 62, 0
14, 358320, Note_on_c, 8, 61, 80
14, 358419, Note_on_c, 8, 61, 0
14, 358440, Note_on_c, 8, 62, 80
14, 358559, Note_on_c, 8, 62, 0
14, 358680, Note_on_c, 8, 57, 80
14, 358799, Note_on_c, 8, 57, 0
14, 358920, Note_on_c, 8, 54, 80
14, 359039, Note_on_c, 8, 54, 0
14, 359160, Note_on_c, 8, 50, 80
14, 359259, Note_on_c, 8, 50, 0
14, 359280, Note_on_c, 8, 48, 80
14, 359379, Note_on_c, 8, 48, 0
14, 359400, Note_on_c, 8, 47, 80
14, 359519, Note_on_c, 8, 47, 0
14, 359640, Note_on_c, 8, 50, 80
14, 359739, Note_on_c, 8, 50, 0
14, 359760, Note_on_c, 8, 54, 80
14, 359859, Note_on_c, 8, 54, 0
14, 359880, Note_on_c, 8, 57, 80
14, 359999, Note_on_c, 8, 57, 0
14, 360120, Note_on_c, 8, 62, 80
14, 360219, Note_on_c, 8, 62, 0
14, 360240, Note_on_c, 8, 61, 80
14, 360339, Note_on_c, 8, 61, 0
14, 360360, Note_on_c, 8, 62, 80
14, 360479, Note_on_c, 8, 62, 0
14, 360600, Note_on_c, 8, 57, 80
14, 360719, Note_on_c, 8, 57, 0
14, 360840, Note_on_c, 8, 54, 80
14, 360959, Note_on_c, 8, 54, 0
14, 361080, Note_on_c, 8, 50, 80
14, 361199, Note_on_c, 8, 50, 0
14, 361320, Note_on_c, 8, 47, 80
14, 361419, Note_on_c, 8, 47, 0
14, 361440, Note_on_c, 8, 43, 80
14, 361539, Note_on_c, 8, 43, 0
14, 361560, Note_on_c, 8, 45, 80
14, 361679, Note_on_c, 8, 45, 0
14, 361800, Note_on_c, 8, 50, 80
14, 361860, Control_c, 8, 11, 67
14, 362499, Note_on_c, 8, 50, 0
14, 362520, Note_on_c, 8, 52, 80
14, 362739, Note_on_c, 8, 52, 0
14, 362760, Note_on_c, 8, 54, 80
14, 362979, Note_on_c, 8, 54, 0
14, 363240, Note_on_c, 8, 55, 80
14, 363359, Note_on_c, 8, 55, 0
14, 363480, Note_on_c, 8, 54, 80
14, 363599, Note_on_c, 8, 54, 0
14, 363720, Note_on_c, 8, 52, 80
14, 363939, Note_on_c, 8, 52, 0
14, 363960, Note_on_c, 8, 50, 80
14, 363960, Control_c, 8, 11, 67
14, 364020, Control_c, 8, 11, 68
14, 364080, Control_c, 8, 11, 69
14, 364140, Control_c, 8, 11, 70
14, 364200, Control_c, 8, 11, 71
14, 364260, Control_c, 8, 11, 72
14, 364320, Control_c, 8, 11, 73
14, 364380, Control_c, 8, 11, 74
14, 364419, Note_on_c, 8, 50, 0
14, 364440, Control_c, 8, 11, 75
14, 364440, Note_on_c, 8, 52, 80
14, 364500, Control_c, 8, 11, 76
14, 364560, Control_c, 8, 11, 77
14, 364620, Control_c, 8, 11, 78
14, 364659, Note_on_c, 8, 52, 0
14, 364680, Note_on_c, 8, 54, 80
14, 364680, Control_c, 8, 11, 79
14, 364740, Control_c, 8, 11, 80
14, 364800, Control_c, 8, 11, 81
14, 364860, Control_c, 8, 11, 82
14, 364899, Note_on_c, 8, 54, 0
14, 364920, Control_c, 8, 11, 83
14, 364920, Note_on_c, 8, 54, 80
14, 364980, Control_c, 8, 11, 84
14, 365040, Control_c, 8, 11, 85
14, 365100, Control_c, 8, 11, 86
14, 365160, Control_c, 8, 11, 87
14, 365220, Control_c, 8, 11, 88
14, 365280, Control_c, 8, 11, 89
14, 365340, Control_c, 8, 11, 90
14, 365379, Note_on_c, 8, 54, 0
14, 365400, Control_c, 8, 11, 91
14, 365400, Note_on_c, 8, 55, 80
14, 365460, Control_c, 8, 11, 92
14, 365520, Control_c, 8, 11, 93
14, 365580, Control_c, 8, 11, 94
14, 365619, Note_on_c, 8, 55, 0
14, 365640, Control_c, 8, 11, 95
14, 365640, Note_on_c, 8, 57, 80
14, 365700, Control_c, 8, 11, 96
14, 365760, Control_c, 8, 11, 97
14, 365820, Control_c, 8, 11, 98
14, 365880, Control_c, 8, 11, 99
14, 365940, Control_c, 8, 11, 100
14, 366000, Control_c, 8, 11, 101
14, 366060, Control_c, 8, 11, 102
14, 366120, Control_c, 8, 11, 103
14, 366180, Control_c, 8, 11, 104
14, 366240, Control_c, 8, 11, 105
14, 366300, Control_c, 8, 11, 106
14, 366339, Note_on_c, 8, 57, 0
14, 366360, Note_on_c, 8, 55, 80
14, 366360, Control_c, 8, 11, 107
14, 366420, Control_c, 8, 11, 108
14, 366480, Control_c, 8, 11, 109
14, 366540, Control_c, 8, 11, 110
14, 366579, Note_on_c, 8, 55, 0
14, 366600, Note_on_c, 8, 54, 80
14, 366600, Control_c, 8, 11, 111
14, 366660, Control_c, 8, 11, 112
14, 366720, Control_c, 8, 11, 113
14, 366780, Control_c, 8, 11, 114
14, 366819, Note_on_c, 8, 54, 0
14, 366840, Control_c, 8, 11, 115
14, 366840, Note_on_c, 8, 54, 80
14, 366900, Control_c, 8, 11, 116
14, 366960, Control_c, 8, 11, 117
14, 367020, Control_c, 8, 11, 118
14, 367080, Control_c, 8, 11, 119
14, 367140, Control_c, 8, 11, 120
14, 367200, Control_c, 8, 11, 121
14, 367260, Control_c, 8, 11, 122
14, 367299, Note_on_c, 8, 54, 0
14, 367320, Control_c, 8, 11, 123
14, 367320, Note_on_c, 8, 52, 80
14, 367380, Control_c, 8, 11, 124
14, 367440, Control_c, 8, 11, 125
14, 367500, Control_c, 8, 11, 127
14, 367539, Note_on_c, 8, 52, 0
14, 367560, Note_on_c, 8, 50, 80
14, 367739, Note_on_c, 8, 50, 0
14, 367800, Note_on_c, 8, 50, 80
14, 367979, Note_on_c, 8, 50, 0
14, 368040, Note_on_c, 8, 45, 80
14, 368219, Note_on_c, 8, 45, 0
14, 368280, Note_on_c, 8, 45, 80
14, 368459, Note_on_c, 8, 45, 0
14, 368520, Note_on_c, 8, 50, 80
14, 368520, Control_c, 8, 11, 127
14, 368560, Control_c, 8, 11, 125
14, 368600, Control_c, 8, 11, 122
14, 368640, Control_c, 8, 11, 120
14, 368680, Control_c, 8, 11, 117
14, 368699, Note_on_c, 8, 50, 0
14, 368720, Control_c, 8, 11, 115
14, 368760, Note_on_c, 8, 50, 80
14, 368760, Control_c, 8, 11, 112
14, 368800, Control_c, 8, 11, 110
14, 368840, Control_c, 8, 11, 107
14, 368880, Control_c, 8, 11, 105
14, 368920, Control_c, 8, 11, 102
14, 368939, Note_on_c, 8, 50, 0
14, 368960, Control_c, 8, 11, 100
14, 369000, Note_on_c, 8, 45, 80
14, 369000, Control_c, 8, 11, 97
14, 369040, Control_c, 8, 11, 95
14, 369080, Control_c, 8, 11, 92
14, 369120, Control_c, 8, 11, 90
14, 369160, Control_c, 8, 11, 87
14, 369179, Note_on_c, 8, 45, 0
14, 369200, Control_c, 8, 11, 85
14, 369240, Note_on_c, 8, 45, 80
14, 369240, Control_c, 8, 11, 82
14, 369280, Control_c, 8, 11, 80
14, 369320, Control_c, 8, 11, 77
14, 369360, Control_c, 8, 11, 75
14, 369400, Control_c, 8, 11, 72
14, 369419, Note_on_c, 8, 45, 0
14, 369440, Control_c, 8, 11, 70
14, 369478, Control_c, 8, 11, 47
14, 369480, Note_on_c, 8, 50, 80
14, 369480, Control_c, 8, 11, 47
14, 369528, Control_c, 8, 11, 48
14, 369576, Control_c, 8, 11, 49
14, 369599, Note_on_c, 8, 50, 0
14, 369624, Control_c, 8, 11, 50
14, 369672, Control_c, 8, 11, 51
14, 369720, Note_on_c, 8, 62, 80
14, 369720, Control_c, 8, 11, 67
14, 369780, Control_c, 8, 11, 68
14, 369839, Note_on_c, 8, 62, 0
14, 369840, Control_c, 8, 11, 69
14, 369900, Control_c, 8, 11, 70
14, 369960, Control_c, 8, 11, 71
14, 369960, Note_on_c, 8, 62, 80
14, 370020, Control_c, 8, 11, 72
14, 370079, Note_on_c, 8, 62, 0
14, 370080, Control_c, 8, 11, 73
14, 370140, Control_c, 8, 11, 74
14, 370200, Control_c, 8, 11, 75
14, 370200, Note_on_c, 8, 57, 80
14, 370260, Control_c, 8, 11, 76
14, 370319, Note_on_c, 8, 57, 0
14, 370320, Control_c, 8, 11, 77
14, 370380, Control_c, 8, 11, 78
14, 370440, Control_c, 8, 11, 79
14, 370440, Note_on_c, 8, 54, 80
14, 370500, Control_c, 8, 11, 80
14, 370559, Note_on_c, 8, 54, 0
14, 370560, Control_c, 8, 11, 81
14, 370620, Control_c, 8, 11, 82
14, 370680, Control_c, 8, 11, 83
14, 370680, Note_on_c, 8, 66, 80
14, 370740, Control_c, 8, 11, 84
14, 370799, Note_on_c, 8, 66, 0
14, 370800, Control_c, 8, 11, 85
14, 370860, Control_c, 8, 11, 86
14, 370920, Control_c, 8, 11, 87
14, 370920, Note_on_c, 8, 66, 80
14, 370980, Control_c, 8, 11, 88
14, 371039, Note_on_c, 8, 66, 0
14, 371040, Control_c, 8, 11, 89
14, 371100, Control_c, 8, 11, 90
14, 371160, Control_c, 8, 11, 91
14, 371160, Note_on_c, 8, 61, 80
14, 371220, Control_c, 8, 11, 92
14, 371259, Note_on_c, 8, 61, 0
14, 371280, Note_on_c, 8, 59, 80
14, 371280, Control_c, 8, 11, 93
14, 371340, Control_c, 8, 11, 94
14, 371379, Note_on_c, 8, 59, 0
14, 371400, Control_c, 8, 11, 95
14, 371400, Note_on_c, 8, 57, 80
14, 371460, Control_c, 8, 11, 96
14, 371519, Note_on_c, 8, 57, 0
14, 371520, Control_c, 8, 11, 97
14, 371580, Control_c, 8, 11, 98
14, 371640, Control_c, 8, 11, 99
14, 371700, Control_c, 8, 11, 100
14, 371760, Control_c, 8, 11, 101
14, 371820, Control_c, 8, 11, 102
14, 371880, Control_c, 8, 11, 103
14, 371940, Control_c, 8, 11, 104
14, 372000, Control_c, 8, 11, 105
14, 372060, Control_c, 8, 11, 106
14, 372120, Control_c, 8, 11, 107
14, 372180, Control_c, 8, 11, 108
14, 372240, Control_c, 8, 11, 109
14, 372300, Control_c, 8, 11, 110
14, 372360, Control_c, 8, 11, 111
14, 372420, Control_c, 8, 11, 112
14, 372480, Control_c, 8, 11, 113
14, 372540, Control_c, 8, 11, 114
14, 372600, Note_on_c, 8, 50, 80
14, 372600, Control_c, 8, 11, 115
14, 372660, Control_c, 8, 11, 116
14, 372720, Control_c, 8, 11, 117
14, 372780, Control_c, 8, 11, 118
14, 372840, Control_c, 8, 11, 119
14, 372900, Control_c, 8, 11, 120
14, 372960, Control_c, 8, 11, 121
14, 373020, Control_c, 8, 11, 122
14, 373059, Note_on_c, 8, 50, 0
14, 373080, Control_c, 8, 11, 123
14, 373080, Note_on_c, 8, 50, 80
14, 373140, Control_c, 8, 11, 124
14, 373200, Control_c, 8, 11, 125
14, 373260, Control_c, 8, 11, 126
14, 373299, Note_on_c, 8, 50, 0
14, 373320, Note_on_c, 8, 50, 80
14, 373320, Control_c, 8, 11, 127
14, 373499, Note_on_c, 8, 50, 0
14, 373560, Note_on_c, 8, 50, 80
14, 373739, Note_on_c, 8, 50, 0
14, 373800, Note_on_c, 8, 45, 80
14, 373979, Note_on_c, 8, 45, 0
14, 374040, Note_on_c, 8, 45, 80
14, 374219, Note_on_c, 8, 45, 0
14, 374280, Note_on_c, 8, 50, 80
14, 374280, Control_c, 8, 11, 127
14, 374340, Control_c, 8, 11, 126
14, 374400, Control_c, 8, 11, 125
14, 374459, Note_on_c, 8, 50, 0
14, 374460, Control_c, 8, 11, 124
14, 374520, Note_on_c, 8, 50, 80
14, 374520, Control_c, 8, 11, 123
14, 374580, Control_c, 8, 11, 122
14, 374640, Control_c, 8, 11, 121
14, 374699, Note_on_c, 8, 50, 0
14, 374700, Control_c, 8, 11, 120
14, 374760, Control_c, 8, 11, 119
14, 374760, Note_on_c, 8, 45, 80
14, 374820, Control_c, 8, 11, 118
14, 374880, Control_c, 8, 11, 117
14, 374939, Note_on_c, 8, 45, 0
14, 374940, Control_c, 8, 11, 116
14, 375000, Note_on_c, 8, 45, 80
14, 375000, Control_c, 8, 11, 115
14, 375060, Control_c, 8, 11, 114
14, 375120, Control_c, 8, 11, 113
14, 375179, Note_on_c, 8, 45, 0
14, 375180, Control_c, 8, 11, 112
14, 375240, Control_c, 8, 11, 111
14, 375240, Note_on_c, 8, 50, 80
14, 375300, Control_c, 8, 11, 110
14, 375360, Control_c, 8, 11, 109
14, 375419, Note_on_c, 8, 50, 0
14, 375420, Control_c, 8, 11, 108
14, 375480, Note_on_c, 8, 50, 80
14, 375480, Control_c, 8, 11, 107
14, 375540, Control_c, 8, 11, 106
14, 375600, Control_c, 8, 11, 105
14, 375659, Note_on_c, 8, 50, 0
14, 375660, Control_c, 8, 11, 104
14, 375720, Note_on_c, 8, 45, 80
14, 375720, Control_c, 8, 11, 103
14, 375780, Control_c, 8, 11, 102
14, 375840, Control_c, 8, 11, 101
14, 375899, Note_on_c, 8, 45, 0
14, 375900, Control_c, 8, 11, 100
14, 375960, Note_on_c, 8, 45, 80
14, 375960, Control_c, 8, 11, 99
14, 376020, Control_c, 8, 11, 98
14, 376080, Control_c, 8, 11, 97
14, 376139, Note_on_c, 8, 45, 0
14, 376140, Control_c, 8, 11, 96
14, 376200, Note_on_c, 8, 50, 80
14, 376200, Control_c, 8, 11, 95
14, 376260, Control_c, 8, 11, 94
14, 376320, Control_c, 8, 11, 93
14, 376379, Note_on_c, 8, 50, 0
14, 376380, Control_c, 8, 11, 92
14, 376440, Note_on_c, 8, 50, 80
14, 376440, Control_c, 8, 11, 91
14, 376500, Control_c, 8, 11, 90
14, 376560, Control_c, 8, 11, 89
14, 376619, Note_on_c, 8, 50, 0
14, 376620, Control_c, 8, 11, 88
14, 376680, Note_on_c, 8, 45, 80
14, 376680, Control_c, 8, 11, 87
14, 376740, Control_c, 8, 11, 86
14, 376800, Control_c, 8, 11, 85
14, 376859, Note_on_c, 8, 45, 0
14, 376860, Control_c, 8, 11, 84
14, 376920, Note_on_c, 8, 45, 80
14, 376920, Control_c, 8, 11, 83
14, 376980, Control_c, 8, 11, 82
14, 377040, Control_c, 8, 11, 81
14, 377099, Note_on_c, 8, 45, 0
14, 377100, Control_c, 8, 11, 80
14, 377160, Control_c, 8, 11, 79
14, 377160, Note_on_c, 8, 50, 80
14, 377220, Control_c, 8, 11, 78
14, 377280, Control_c, 8, 11, 77
14, 377340, Control_c, 8, 11, 76
14, 377399, Note_on_c, 8, 50, 0
14, 377400, Control_c, 8, 11, 75
14, 377460, Control_c, 8, 11, 74
14, 377520, Control_c, 8, 11, 73
14, 377580, Control_c, 8, 11, 72
14, 377640, Control_c, 8, 11, 71
14, 377700, Control_c, 8, 11, 70
14, 377760, Control_c, 8, 11, 69
14, 377820, Control_c, 8, 11, 68
14, 377880, Control_c, 8, 11, 67
14, 377940, Control_c, 8, 11, 66
14, 378000, Control_c, 8, 11, 65
14, 378060, Control_c, 8, 11, 64
14, 378120, Note_on_c, 8, 50, 80
14, 378120, Control_c, 8, 11, 63
14, 378180, Control_c, 8, 11, 62
14, 378240, Control_c, 8, 11, 61
14, 378300, Control_c, 8, 11, 60
14, 378359, Note_on_c, 8, 50, 0
14, 378360, Control_c, 8, 11, 59
14, 378420, Control_c, 8, 11, 58
14, 378480, Control_c, 8, 11, 57
14, 378540, Control_c, 8, 11, 56
14, 378600, Control_c, 8, 11, 55
14, 378660, Control_c, 8, 11, 54
14, 378720, Control_c, 8, 11, 53
14, 378780, Control_c, 8, 11, 52
14, 378840, Control_c, 8, 11, 51
14, 378900, Control_c, 8, 11, 50
14, 378960, Control_c, 8, 11, 49
14, 379020, Control_c, 8, 11, 48
14, 379080, Control_c, 8, 11, 47
14, 379080, Note_on_c, 8, 50, 80
14, 379319, Note_on_c, 8, 50, 0
14, 380040, Note_on_c, 8, 50, 80
14, 380279, Note_on_c, 8, 50, 0
14, 381240, Control_c, 8, 11, 127
14, 582000, Note_on_c, 8, 62, 92
14, 582000, Control_c, 8, 11, 127
14, 582040, Control_c, 8, 11, 120
14, 582080, Control_c, 8, 11, 114
14, 582120, Control_c, 8, 11, 107
14, 582160, Control_c, 8, 11, 100
14, 582200, Control_c, 8, 11, 94
14, 582240, Control_c, 8, 11, 87
14, 582280, Control_c, 8, 11, 80
14, 582320, Control_c, 8, 11, 74
14, 582360, Control_c, 8, 11, 67
14, 582400, Control_c, 8, 11, 60
14, 582440, Control_c, 8, 11, 54
14, 582599, Note_on_c, 8, 62, 0
14, 584880, Control_c, 8, 11, 127
14, 585840, Note_on_c, 8, 57, 92
14, 585959, Note_on_c, 8, 57, 0
14, 586080, Note_on_c, 8, 50, 80
14, 586199, Note_on_c, 8, 50, 0
14, 586320, Note_on_c, 8, 45, 80
14, 586439, Note_on_c, 8, 45, 0
14, 586560, Note_on_c, 8, 57, 80
14, 586679, Note_on_c, 8, 57, 0
14, 586800, Note_on_c, 8, 50, 80
14, 586919, Note_on_c, 8, 50, 0
14, 586919, End_track
15, 0, Start_track
15, 0, Title_t, "Timpani"
15, 0, MIDI_port, 0
15, 0, Program_c, 10, 47
15, 0, Control_c, 10, 7, 96
15, 0, Control_c, 10, 10, 25
15, 0, Control_c, 10, 11, 127
15, 1440, Note_on_c, 10, 53, 104
15, 1619, Note_on_c, 10, 53, 0
15, 1620, Note_on_c, 10, 41, 92
15, 1679, Note_on_c, 10, 41, 0
15, 1680, Note_on_c, 10, 41, 92
15, 1799, Note_on_c, 10, 41, 0
15, 20160, Note_on_c, 10, 53, 92
15, 20279, Note_on_c, 10, 53, 0
15, 20520, Note_on_c, 10, 53, 92
15, 20639, Note_on_c, 10, 53, 0
15, 21240, Note_on_c, 10, 53, 92
15, 21359, Note_on_c, 10, 53, 0
15, 21960, Note_on_c, 10, 53, 80
15, 22079, Note_on_c, 10, 53, 0
15, 22680, Note_on_c, 10, 53, 80
15, 22799, Note_on_c, 10, 53, 0
15, 23400, Note_on_c, 10, 53, 80
15, 23519, Note_on_c, 10, 53, 0
15, 24120, Note_on_c, 10, 53, 80
15, 24239, Note_on_c, 10, 53, 0
15, 24360, Note_on_c, 10, 53, 80
15, 24479, Note_on_c, 10, 53, 0
15, 24480, Note_on_c, 10, 53, 80
15, 24599, Note_on_c, 10, 53, 0
15, 25680, Note_on_c, 10, 53, 80
15, 25799, Note_on_c, 10, 53, 0
15, 25800, Note_on_c, 10, 53, 80
15, 25919, Note_on_c, 10, 53, 0
15, 25920, Note_on_c, 10, 53, 80
15, 26039, Note_on_c, 10, 53, 0
15, 39600, Note_on_c, 10, 53, 92
15, 39779, Note_on_c, 10, 53, 0
15, 39780, Note_on_c, 10, 41, 92
15, 39839, Note_on_c, 10, 41, 0
15, 39840, Note_on_c, 10, 41, 92
15, 39959, Note_on_c, 10, 41, 0
15, 39960, Note_on_c, 10, 53, 92
15, 40079, Note_on_c, 10, 53, 0
15, 71280, Note_on_c, 10, 53, 92
15, 71399, Note_on_c, 10, 53, 0
15, 71640, Note_on_c, 10, 53, 92
15, 71759, Note_on_c, 10, 53, 0
15, 72360, Note_on_c, 10, 53, 92
15, 72479, Note_on_c, 10, 53, 0
15, 73080, Note_on_c, 10, 53, 80
15, 73199, Note_on_c, 10, 53, 0
15, 73800, Note_on_c, 10, 53, 80
15, 73919, Note_on_c, 10, 53, 0
15, 74520, Note_on_c, 10, 53, 80
15, 74639, Note_on_c, 10, 53, 0
15, 75240, Note_on_c, 10, 53, 80
15, 75359, Note_on_c, 10, 53, 0
15, 75480, Note_on_c, 10, 53, 80
15, 75599, Note_on_c, 10, 53, 0
15, 75600, Note_on_c, 10, 53, 80
15, 75719, Note_on_c, 10, 53, 0
15, 76800, Note_on_c, 10, 53, 80
15, 76919, Note_on_c, 10, 53, 0
15, 76920, Note_on_c, 10, 53, 80
15, 77039, Note_on_c, 10, 53, 0
15, 77040, Note_on_c, 10, 53, 80
15, 77159, Note_on_c, 10, 53, 0
15, 90720, Note_on_c, 10, 53, 92
15, 90899, Note_on_c, 10, 53, 0
15, 90900, Note_on_c, 10, 41, 92
15, 90959, Note_on_c, 10, 41, 0
15, 90960, Note_on_c, 10, 41, 92
15, 91079, Note_on_c, 10, 41, 0
15, 91080, Note_on_c, 10, 53, 92
15, 91199, Note_on_c, 10, 53, 0
15, 121320, Note_on_c, 10, 53, 80
15, 121499, Note_on_c, 10, 53, 0
15, 121500, Note_on_c, 10, 41, 80
15, 121559, Note_on_c, 10, 41, 0
15, 121560, Note_on_c, 10, 41, 80
15, 121679, Note_on_c, 10, 41, 0
15, 122400, Note_on_c, 10, 53, 80
15, 122579, Note_on_c, 10, 53, 0
15, 122580, Note_on_c, 10, 41, 68
15, 122639, Note_on_c, 10, 41, 0
15, 122640, Note_on_c, 10, 41, 68
15, 122759, Note_on_c, 10, 41, 0
15, 123480, Note_on_c, 10, 53, 80
15, 123659, Note_on_c, 10, 53, 0
15, 123660, Note_on_c, 10, 41, 68
15, 123719, Note_on_c, 10, 41, 0
15, 123720, Note_on_c, 10, 41, 68
15, 123839, Note_on_c, 10, 41, 0
15, 124560, Note_on_c, 10, 53, 80
15, 124739, Note_on_c, 10, 53, 0
15, 124740, Note_on_c, 10, 41, 68
15, 124799, Note_on_c, 10, 41, 0
15, 124800, Note_on_c, 10, 41, 68
15, 124919, Note_on_c, 10, 41, 0
15, 126000, Note_on_c, 10, 53, 44
15, 126179, Note_on_c, 10, 53, 0
15, 126180, Note_on_c, 10, 41, 32
15, 126239, Note_on_c, 10, 41, 0
15, 126240, Note_on_c, 10, 41, 32
15, 126359, Note_on_c, 10, 41, 0
15, 140400, Note_on_c, 10, 53, 32
15, 140579, Note_on_c, 10, 53, 0
15, 140580, Note_on_c, 10, 41, 32
15, 140639, Note_on_c, 10, 41, 0
15, 140640, Note_on_c, 10, 41, 32
15, 140759, Note_on_c, 10, 41, 0
15, 143280, Note_on_c, 10, 53, 32
15, 143459, Note_on_c, 10, 53, 0
15, 143460, Note_on_c, 10, 41, 35
15, 143519, Note_on_c, 10, 41, 0
15, 143520, Note_on_c, 10, 41, 36
15, 143639, Note_on_c, 10, 41, 0
15, 144720, Note_on_c, 10, 53, 56
15, 144899, Note_on_c, 10, 53, 0
15, 144900, Note_on_c, 10, 41, 59
15, 144959, Note_on_c, 10, 41, 0
15, 144960, Note_on_c, 10, 41, 60
15, 145079, Note_on_c, 10, 41, 0
15, 146160, Note_on_c, 10, 53, 80
15, 146339, Note_on_c, 10, 53, 0
15, 146340, Note_on_c, 10, 41, 80
15, 146399, Note_on_c, 10, 41, 0
15, 146400, Note_on_c, 10, 41, 80
15, 146519, Note_on_c, 10, 41, 0
15, 146520, Note_on_c, 10, 53, 80
15, 146699, Note_on_c, 10, 53, 0
15, 146700, Note_on_c, 10, 41, 80
15, 146759, Note_on_c, 10, 41, 0
15, 146760, Note_on_c, 10, 41, 80
15, 146879, Note_on_c, 10, 41, 0
15, 146880, Note_on_c, 10, 53, 86
15, 147059, Note_on_c, 10, 53, 0
15, 147060, Note_on_c, 10, 41, 86
15, 147119, Note_on_c, 10, 41, 0
15, 147120, Note_on_c, 10, 41, 86
15, 147239, Note_on_c, 10, 41, 0
15, 147240, Note_on_c, 10, 53, 86
15, 147419, Note_on_c, 10, 53, 0
15, 147420, Note_on_c, 10, 41, 86
15, 147479, Note_on_c, 10, 41, 0
15, 147480, Note_on_c, 10, 41, 86
15, 147599, Note_on_c, 10, 41, 0
15, 147600, Note_on_c, 10, 53, 92
15, 147779, Note_on_c, 10, 53, 0
15, 147780, Note_on_c, 10, 41, 92
15, 147839, Note_on_c, 10, 41, 0
15, 147840, Note_on_c, 10, 41, 92
15, 147959, Note_on_c, 10, 41, 0
15, 147960, Note_on_c, 10, 53, 92
15, 148139, Note_on_c, 10, 53, 0
15, 148140, Note_on_c, 10, 41, 92
15, 148199, Note_on_c, 10, 41, 0
15, 148200, Note_on_c, 10, 41, 92
15, 148319, Note_on_c, 10, 41, 0
15, 148320, Note_on_c, 10, 53, 92
15, 148499, Note_on_c, 10, 53, 0
15, 148500, Note_on_c, 10, 41, 92
15, 148559, Note_on_c, 10, 41, 0
15, 148560, Note_on_c, 10, 41, 92
15, 148679, Note_on_c, 10, 41, 0
15, 148680, Note_on_c, 10, 53, 92
15, 148859, Note_on_c, 10, 53, 0
15, 148860, Note_on_c, 10, 41, 92
15, 148919, Note_on_c, 10, 41, 0
15, 148920, Note_on_c, 10, 41, 92
15, 149039, Note_on_c, 10, 41, 0
15, 149040, Note_on_c, 10, 53, 92
15, 149079, Note_on_c, 10, 53, 0
15, 149080, Note_on_c, 10, 53, 92
15, 149119, Note_on_c, 10, 53, 0
15, 149120, Note_on_c, 10, 53, 92
15, 149159, Note_on_c, 10, 53, 0
15, 149160, Note_on_c, 10, 53, 92
15, 149199, Note_on_c, 10, 53, 0
15, 149200, Note_on_c, 10, 53, 92
15, 149239, Note_on_c, 10, 53, 0
15, 149240, Note_on_c, 10, 53, 92
15, 149279, Note_on_c, 10, 53, 0
15, 149280, Note_on_c, 10, 53, 92
15, 149319, Note_on_c, 10, 53, 0
15, 149320, Note_on_c, 10, 53, 92
15, 149359, Note_on_c, 10, 53, 0
15, 149360, Note_on_c, 10, 53, 92
15, 149399, Note_on_c, 10, 53, 0
15, 149400, Note_on_c, 10, 53, 92
15, 149519, Note_on_c, 10, 53, 0
15, 149520, Note_on_c, 10, 53, 92
15, 149639, Note_on_c, 10, 53, 0
15, 149640, Note_on_c, 10, 53, 92
15, 149759, Note_on_c, 10, 53, 0
15, 149760, Note_on_c, 10, 53, 92
15, 149879, Note_on_c, 10, 53, 0
15, 149880, Note_on_c, 10, 53, 92
15, 149999, Note_on_c, 10, 53, 0
15, 150000, Note_on_c, 10, 53, 92
15, 150119, Note_on_c, 10, 53, 0
15, 150120, Note_on_c, 10, 53, 92
15, 150239, Note_on_c, 10, 53, 0
15, 150240, Note_on_c, 10, 53, 92
15, 150359, Note_on_c, 10, 53, 0
15, 150360, Note_on_c, 10, 53, 92
15, 150479, Note_on_c, 10, 53, 0
15, 150480, Note_on_c, 10, 53, 92
15, 150599, Note_on_c, 10, 53, 0
15, 150600, Note_on_c, 10, 53, 92
15, 150719, Note_on_c, 10, 53, 0
15, 150720, Note_on_c, 10, 53, 92
15, 150839, Note_on_c, 10, 53, 0
15, 150840, Note_on_c, 10, 53, 92
15, 150959, Note_on_c, 10, 53, 0
15, 150960, Note_on_c, 10, 53, 92
15, 151079, Note_on_c, 10, 53, 0
15, 151080, Note_on_c, 10, 53, 92
15, 151199, Note_on_c, 10, 53, 0
15, 151200, Note_on_c, 10, 53, 92
15, 151319, Note_on_c, 10, 53, 0
15, 151320, Note_on_c, 10, 53, 92
15, 151439, Note_on_c, 10, 53, 0
15, 151440, Note_on_c, 10, 53, 92
15, 151559, Note_on_c, 10, 53, 0
15, 151560, Note_on_c, 10, 53, 92
15, 151679, Note_on_c, 10, 53, 0
15, 151680, Note_on_c, 10, 53, 92
15, 151799, Note_on_c, 10, 53, 0
15, 151800, Note_on_c, 10, 53, 92
15, 151919, Note_on_c, 10, 53, 0
15, 151920, Note_on_c, 10, 53, 92
15, 152039, Note_on_c, 10, 53, 0
15, 152040, Note_on_c, 10, 53, 92
15, 152159, Note_on_c, 10, 53, 0
15, 152160, Note_on_c, 10, 53, 92
15, 152279, Note_on_c, 10, 53, 0
15, 152280, Note_on_c, 10, 53, 92
15, 152399, Note_on_c, 10, 53, 0
15, 152400, Note_on_c, 10, 53, 92
15, 152519, Note_on_c, 10, 53, 0
15, 152520, Note_on_c, 10, 53, 92
15, 152639, Note_on_c, 10, 53, 0
15, 152640, Note_on_c, 10, 53, 92
15, 152759, Note_on_c, 10, 53, 0
15, 152760, Note_on_c, 10, 53, 92
15, 152879, Note_on_c, 10, 53, 0
15, 152880, Note_on_c, 10, 53, 92
15, 152999, Note_on_c, 10, 53, 0
15, 153000, Note_on_c, 10, 53, 92
15, 153119, Note_on_c, 10, 53, 0
15, 153120, Note_on_c, 10, 53, 92
15, 153239, Note_on_c, 10, 53, 0
15, 153240, Note_on_c, 10, 53, 92
15, 153359, Note_on_c, 10, 53, 0
15, 155520, Note_on_c, 10, 53, 80
15, 155699, Note_on_c, 10, 53, 0
15, 155700, Note_on_c, 10, 41, 80
15, 155759, Note_on_c, 10, 41, 0
15, 155760, Note_on_c, 10, 41, 80
15, 155879, Note_on_c, 10, 41, 0
15, 155880, Note_on_c, 10, 53, 80
15, 156059, Note_on_c, 10, 53, 0
15, 156060, Note_on_c, 10, 41, 80
15, 156119, Note_on_c, 10, 41, 0
15, 156120, Note_on_c, 10, 41, 80
15, 156239, Note_on_c, 10, 41, 0
15, 156240, Note_on_c, 10, 53, 80
15, 156419, Note_on_c, 10, 53, 0
15, 156420, Note_on_c, 10, 41, 80
15, 156479, Note_on_c, 10, 41, 0
15, 156480, Note_on_c, 10, 41, 80
15, 156599, Note_on_c, 10, 41, 0
15, 156600, Note_on_c, 10, 53, 80
15, 156779, Note_on_c, 10, 53, 0
15, 156780, Note_on_c, 10, 41, 80
15, 156839, Note_on_c, 10, 41, 0
15, 156840, Note_on_c, 10, 41, 80
15, 156959, Note_on_c, 10, 41, 0
15, 156960, Note_on_c, 10, 53, 80
15, 157139, Note_on_c, 10, 53, 0
15, 157140, Note_on_c, 10, 41, 80
15, 157199, Note_on_c, 10, 41, 0
15, 157200, Note_on_c, 10, 41, 80
15, 157319, Note_on_c, 10, 41, 0
15, 157320, Note_on_c, 10, 53, 80
15, 157499, Note_on_c, 10, 53, 0
15, 157500, Note_on_c, 10, 41, 80
15, 157559, Note_on_c, 10, 41, 0
15, 157560, Note_on_c, 10, 41, 80
15, 157679, Note_on_c, 10, 41, 0
15, 157680, Note_on_c, 10, 53, 80
15, 157799, Note_on_c, 10, 53, 0
15, 172800, Note_on_c, 10, 53, 80
15, 172919, Note_on_c, 10, 53, 0
15, 172920, Note_on_c, 10, 53, 80
15, 173039, Note_on_c, 10, 53, 0
15, 174240, Note_on_c, 10, 53, 80
15, 174359, Note_on_c, 10, 53, 0
15, 174360, Note_on_c, 10, 53, 80
15, 174479, Note_on_c, 10, 53, 0
15, 175680, Note_on_c, 10, 53, 80
15, 175859, Note_on_c, 10, 53, 0
15, 175860, Note_on_c, 10, 53, 80
15, 175919, Note_on_c, 10, 53, 0
15, 175920, Note_on_c, 10, 53, 80
15, 176039, Note_on_c, 10, 53, 0
15, 177840, Note_on_c, 10, 53, 80
15, 177959, Note_on_c, 10, 53, 0
15, 178200, Note_on_c, 10, 53, 80
15, 178319, Note_on_c, 10, 53, 0
15, 182160, Note_on_c, 10, 53, 80
15, 182279, Note_on_c, 10, 53, 0
15, 182880, Note_on_c, 10, 53, 80
15, 182999, Note_on_c, 10, 53, 0
15, 183600, Note_on_c, 10, 53, 80
15, 183719, Note_on_c, 10, 53, 0
15, 184320, Note_on_c, 10, 53, 80
15, 184439, Note_on_c, 10, 53, 0
15, 185040, Note_on_c, 10, 53, 80
15, 185159, Note_on_c, 10, 53, 0
15, 185760, Note_on_c, 10, 53, 80
15, 185879, Note_on_c, 10, 53, 0
15, 188640, Note_on_c, 10, 41, 32
15, 188819, Note_on_c, 10, 41, 0
15, 188820, Note_on_c, 10, 53, 32
15, 188879, Note_on_c, 10, 53, 0
15, 188880, Note_on_c, 10, 53, 32
15, 188999, Note_on_c, 10, 53, 0
15, 189000, Note_on_c, 10, 53, 32
15, 189119, Note_on_c, 10, 53, 0
15, 190800, Note_on_c, 10, 41, 32
15, 190979, Note_on_c, 10, 41, 0
15, 190980, Note_on_c, 10, 53, 32
15, 191039, Note_on_c, 10, 53, 0
15, 191040, Note_on_c, 10, 53, 32
15, 191159, Note_on_c, 10, 53, 0
15, 191160, Note_on_c, 10, 53, 32
15, 191279, Note_on_c, 10, 53, 0
15, 191520, Note_on_c, 10, 41, 32
15, 191699, Note_on_c, 10, 41, 0
15, 191700, Note_on_c, 10, 53, 32
15, 191759, Note_on_c, 10, 53, 0
15, 191760, Note_on_c, 10, 53, 32
15, 191879, Note_on_c, 10, 53, 0
15, 191880, Note_on_c, 10, 53, 32
15, 191999, Note_on_c, 10, 53, 0
15, 208440, Note_on_c, 10, 53, 80
15, 208619, Note_on_c, 10, 53, 0
15, 208620, Note_on_c, 10, 41, 80
15, 208679, Note_on_c, 10, 41, 0
15, 208680, Note_on_c, 10, 41, 80
15, 208799, Note_on_c, 10, 41, 0
15, 209520, Note_on_c, 10, 53, 80
15, 209699, Note_on_c, 10, 53, 0
15, 209700, Note_on_c, 10, 41, 68
15, 209759, Note_on_c, 10, 41, 0
15, 209760, Note_on_c, 10, 41, 68
15, 209879, Note_on_c, 10, 41, 0
15, 210600, Note_on_c, 10, 53, 80
15, 210779, Note_on_c, 10, 53, 0
15, 210780, Note_on_c, 10, 41, 68
15, 210839, Note_on_c, 10, 41, 0
15, 210840, Note_on_c, 10, 41, 68
15, 210959, Note_on_c, 10, 41, 0
15, 211680, Note_on_c, 10, 53, 80
15, 211859, Note_on_c, 10, 53, 0
15, 211860, Note_on_c, 10, 41, 68
15, 211919, Note_on_c, 10, 41, 0
15, 211920, Note_on_c, 10, 41, 68
15, 212039, Note_on_c, 10, 41, 0
15, 213120, Note_on_c, 10, 53, 44
15, 213299, Note_on_c, 10, 53, 0
15, 213300, Note_on_c, 10, 41, 32
15, 213359, Note_on_c, 10, 41, 0
15, 213360, Note_on_c, 10, 41, 32
15, 213479, Note_on_c, 10, 41, 0
15, 227520, Note_on_c, 10, 53, 32
15, 227699, Note_on_c, 10, 53, 0
15, 227700, Note_on_c, 10, 41, 32
15, 227759, Note_on_c, 10, 41, 0
15, 227760, Note_on_c, 10, 41, 32
15, 227879, Note_on_c, 10, 41, 0
15, 230400, Note_on_c, 10, 53, 32
15, 230579, Note_on_c, 10, 53, 0
15, 230580, Note_on_c, 10, 41, 35
15, 230639, Note_on_c, 10, 41, 0
15, 230640, Note_on_c, 10, 41, 36
15, 230759, Note_on_c, 10, 41, 0
15, 231840, Note_on_c, 10, 53, 56
15, 232019, Note_on_c, 10, 53, 0
15, 232020, Note_on_c, 10, 41, 59
15, 232079, Note_on_c, 10, 41, 0
15, 232080, Note_on_c, 10, 41, 60
15, 232199, Note_on_c, 10, 41, 0
15, 233280, Note_on_c, 10, 53, 80
15, 233459, Note_on_c, 10, 53, 0
15, 233460, Note_on_c, 10, 41, 80
15, 233519, Note_on_c, 10, 41, 0
15, 233520, Note_on_c, 10, 41, 80
15, 233639, Note_on_c, 10, 41, 0
15, 233640, Note_on_c, 10, 53, 80
15, 233819, Note_on_c, 10, 53, 0
15, 233820, Note_on_c, 10, 41, 80
15, 233879, Note_on_c, 10, 41, 0
15, 233880, Note_on_c, 10, 41, 80
15, 233999, Note_on_c, 10, 41, 0
15, 234000, Note_on_c, 10, 53, 86
15, 234179, Note_on_c, 10, 53, 0
15, 234180, Note_on_c, 10, 41, 86
15, 234239, Note_on_c, 10, 41, 0
15, 234240, Note_on_c, 10, 41, 86
15, 234359, Note_on_c, 10, 41, 0
15, 234360, Note_on_c, 10, 53, 86
15, 234539, Note_on_c, 10, 53, 0
15, 234540, Note_on_c, 10, 41, 86
15, 234599, Note_on_c, 10, 41, 0
15, 234600, Note_on_c, 10, 41, 86
15, 234719, Note_on_c, 10, 41, 0
15, 234720, Note_on_c, 10, 53, 92
15, 234899, Note_on_c, 10, 53, 0
15, 234900, Note_on_c, 10, 41, 92
15, 234959, Note_on_c, 10, 41, 0
15, 234960, Note_on_c, 10, 41, 92
15, 235079, Note_on_c, 10, 41, 0
15, 235080, Note_on_c, 10, 53, 92
15, 235259, Note_on_c, 10, 53, 0
15, 235260, Note_on_c, 10, 41, 92
15, 235319, Note_on_c, 10, 41, 0
15, 235320, Note_on_c, 10, 41, 92
15, 235439, Note_on_c, 10, 41, 0
15, 235440, Note_on_c, 10, 53, 92
15, 235619, Note_on_c, 10, 53, 0
15, 235620, Note_on_c, 10, 41, 92
15, 235679, Note_on_c, 10, 41, 0
15, 235680, Note_on_c, 10, 41, 92
15, 235799, Note_on_c, 10, 41, 0
15, 235800, Note_on_c, 10, 53, 92
15, 235979, Note_on_c, 10, 53, 0
15, 235980, Note_on_c, 10, 41, 92
15, 236039, Note_on_c, 10, 41, 0
15, 236040, Note_on_c, 10, 41, 92
15, 236159, Note_on_c, 10, 41, 0
15, 236160, Note_on_c, 10, 53, 92
15, 236199, Note_on_c, 10, 53, 0
15, 236200, Note_on_c, 10, 53, 92
15, 236239, Note_on_c, 10, 53, 0
15, 236240, Note_on_c, 10, 53, 92
15, 236279, Note_on_c, 10, 53, 0
15, 236280, Note_on_c, 10, 53, 92
15, 236319, Note_on_c, 10, 53, 0
15, 236320, Note_on_c, 10, 53, 92
15, 236359, Note_on_c, 10, 53, 0
15, 236360, Note_on_c, 10, 53, 92
15, 236399, Note_on_c, 10, 53, 0
15, 236400, Note_on_c, 10, 53, 92
15, 236439, Note_on_c, 10, 53, 0
15, 236440, Note_on_c, 10, 53, 92
15, 236479, Note_on_c, 10, 53, 0
15, 236480, Note_on_c, 10, 53, 92
15, 236519, Note_on_c, 10, 53, 0
15, 236520, Note_on_c, 10, 53, 92
15, 236639, Note_on_c, 10, 53, 0
15, 236640, Note_on_c, 10, 53, 92
15, 236759, Note_on_c, 10, 53, 0
15, 236760, Note_on_c, 10, 53, 92
15, 236879, Note_on_c, 10, 53, 0
15, 236880, Note_on_c, 10, 53, 92
15, 236999, Note_on_c, 10, 53, 0
15, 237000, Note_on_c, 10, 53, 92
15, 237119, Note_on_c, 10, 53, 0
15, 237120, Note_on_c, 10, 53, 92
15, 237239, Note_on_c, 10, 53, 0
15, 237240, Note_on_c, 10, 53, 92
15, 237359, Note_on_c, 10, 53, 0
15, 237360, Note_on_c, 10, 53, 92
15, 237479, Note_on_c, 10, 53, 0
15, 237480, Note_on_c, 10, 53, 92
15, 237599, Note_on_c, 10, 53, 0
15, 237600, Note_on_c, 10, 53, 92
15, 237719, Note_on_c, 10, 53, 0
15, 237720, Note_on_c, 10, 53, 92
15, 237839, Note_on_c, 10, 53, 0
15, 237840, Note_on_c, 10, 53, 92
15, 237959, Note_on_c, 10, 53, 0
15, 237960, Note_on_c, 10, 53, 92
15, 238079, Note_on_c, 10, 53, 0
15, 238080, Note_on_c, 10, 53, 92
15, 238199, Note_on_c, 10, 53, 0
15, 238200, Note_on_c, 10, 53, 92
15, 238319, Note_on_c, 10, 53, 0
15, 238320, Note_on_c, 10, 53, 92
15, 238439, Note_on_c, 10, 53, 0
15, 238440, Note_on_c, 10, 53, 92
15, 238559, Note_on_c, 10, 53, 0
15, 238560, Note_on_c, 10, 53, 92
15, 238679, Note_on_c, 10, 53, 0
15, 238680, Note_on_c, 10, 53, 92
15, 238799, Note_on_c, 10, 53, 0
15, 238800, Note_on_c, 10, 53, 92
15, 238919, Note_on_c, 10, 53, 0
15, 238920, Note_on_c, 10, 53, 92
15, 239039, Note_on_c, 10, 53, 0
15, 239040, Note_on_c, 10, 53, 92
15, 239159, Note_on_c, 10, 53, 0
15, 239160, Note_on_c, 10, 53, 92
15, 239279, Note_on_c, 10, 53, 0
15, 239280, Note_on_c, 10, 53, 92
15, 239399, Note_on_c, 10, 53, 0
15, 239400, Note_on_c, 10, 53, 92
15, 239519, Note_on_c, 10, 53, 0
15, 239520, Note_on_c, 10, 53, 92
15, 239639, Note_on_c, 10, 53, 0
15, 239640, Note_on_c, 10, 53, 92
15, 239759, Note_on_c, 10, 53, 0
15, 239760, Note_on_c, 10, 53, 92
15, 239879, Note_on_c, 10, 53, 0
15, 239880, Note_on_c, 10, 53, 92
15, 239999, Note_on_c, 10, 53, 0
15, 240000, Note_on_c, 10, 53, 92
15, 240119, Note_on_c, 10, 53, 0
15, 240120, Note_on_c, 10, 53, 92
15, 240239, Note_on_c, 10, 53, 0
15, 240240, Note_on_c, 10, 53, 92
15, 240359, Note_on_c, 10, 53, 0
15, 240360, Note_on_c, 10, 53, 92
15, 240479, Note_on_c, 10, 53, 0
15, 242640, Note_on_c, 10, 53, 80
15, 242819, Note_on_c, 10, 53, 0
15, 242820, Note_on_c, 10, 41, 80
15, 242879, Note_on_c, 10, 41, 0
15, 242880, Note_on_c, 10, 41, 80
15, 242999, Note_on_c, 10, 41, 0
15, 243000, Note_on_c, 10, 53, 80
15, 243179, Note_on_c, 10, 53, 0
15, 243180, Note_on_c, 10, 41, 80
15, 243239, Note_on_c, 10, 41, 0
15, 243240, Note_on_c, 10, 41, 80
15, 243359, Note_on_c, 10, 41, 0
15, 243360, Note_on_c, 10, 53, 80
15, 243539, Note_on_c, 10, 53, 0
15, 243540, Note_on_c, 10, 41, 80
15, 243599, Note_on_c, 10, 41, 0
15, 243600, Note_on_c, 10, 41, 80
15, 243719, Note_on_c, 10, 41, 0
15, 243720, Note_on_c, 10, 53, 80
15, 243899, Note_on_c, 10, 53, 0
15, 243900, Note_on_c, 10, 41, 80
15, 243959, Note_on_c, 10, 41, 0
15, 243960, Note_on_c, 10, 41, 80
15, 244079, Note_on_c, 10, 41, 0
15, 244080, Note_on_c, 10, 53, 80
15, 244259, Note_on_c, 10, 53, 0
15, 244260, Note_on_c, 10, 41, 80
15, 244319, Note_on_c, 10, 41, 0
15, 244320, Note_on_c, 10, 41, 80
15, 244439, Note_on_c, 10, 41, 0
15, 244440, Note_on_c, 10, 53, 80
15, 244619, Note_on_c, 10, 53, 0
15, 244620, Note_on_c, 10, 41, 80
15, 244679, Note_on_c, 10, 41, 0
15, 244680, Note_on_c, 10, 41, 80
15, 244799, Note_on_c, 10, 41, 0
15, 244800, Note_on_c, 10, 53, 80
15, 244919, Note_on_c, 10, 53, 0
15, 259920, Note_on_c, 10, 53, 80
15, 260039, Note_on_c, 10, 53, 0
15, 260040, Note_on_c, 10, 53, 80
15, 260159, Note_on_c, 10, 53, 0
15, 261360, Note_on_c, 10, 53, 80
15, 261479, Note_on_c, 10, 53, 0
15, 261480, Note_on_c, 10, 53, 80
15, 261599, Note_on_c, 10, 53, 0
15, 262800, Note_on_c, 10, 53, 80
15, 262979, Note_on_c, 10, 53, 0
15, 262980, Note_on_c, 10, 53, 80
15, 263039, Note_on_c, 10, 53, 0
15, 263040, Note_on_c, 10, 53, 80
15, 263159, Note_on_c, 10, 53, 0
15, 264960, Note_on_c, 10, 53, 80
15, 265079, Note_on_c, 10, 53, 0
15, 265320, Note_on_c, 10, 53, 80
15, 265439, Note_on_c, 10, 53, 0
15, 269280, Note_on_c, 10, 53, 80
15, 269399, Note_on_c, 10, 53, 0
15, 270000, Note_on_c, 10, 53, 80
15, 270119, Note_on_c, 10, 53, 0
15, 270720, Note_on_c, 10, 53, 80
15, 270839, Note_on_c, 10, 53, 0
15, 271440, Note_on_c, 10, 53, 80
15, 271559, Note_on_c, 10, 53, 0
15, 272160, Note_on_c, 10, 53, 80
15, 272279, Note_on_c, 10, 53, 0
15, 272880, Note_on_c, 10, 53, 80
15, 272999, Note_on_c, 10, 53, 0
15, 275760, Note_on_c, 10, 41, 32
15, 275939, Note_on_c, 10, 41, 0
15, 275940, Note_on_c, 10, 53, 32
15, 275999, Note_on_c, 10, 53, 0
15, 276000, Note_on_c, 10, 53, 32
15, 276119, Note_on_c, 10, 53, 0
15, 276120, Note_on_c, 10, 53, 32
15, 276239, Note_on_c, 10, 53, 0
15, 278640, Note_on_c, 10, 41, 44
15, 278819, Note_on_c, 10, 41, 0
15, 278820, Note_on_c, 10, 53, 48
15, 278879, Note_on_c, 10, 53, 0
15, 278880, Note_on_c, 10, 53, 50
15, 278999, Note_on_c, 10, 53, 0
15, 279000, Note_on_c, 10, 53, 53
15, 279119, Note_on_c, 10, 53, 0
15, 284400, Note_on_c, 10, 53, 39
15, 284579, Note_on_c, 10, 53, 0
15, 284580, Note_on_c, 10, 41, 43
15, 284639, Note_on_c, 10, 41, 0
15, 284640, Note_on_c, 10, 41, 44
15, 284759, Note_on_c, 10, 41, 0
15, 285120, Note_on_c, 10, 53, 54
15, 285299, Note_on_c, 10, 53, 0
15, 285300, Note_on_c, 10, 41, 58
15, 285359, Note_on_c, 10, 41, 0
15, 285360, Note_on_c, 10, 41, 59
15, 285479, Note_on_c, 10, 41, 0
15, 285840, Note_on_c, 10, 53, 69
15, 286019, Note_on_c, 10, 53, 0
15, 286020, Note_on_c, 10, 41, 73
15, 286079, Note_on_c, 10, 41, 0
15, 286080, Note_on_c, 10, 41, 74
15, 286199, Note_on_c, 10, 41, 0
15, 286560, Note_on_c, 10, 53, 84
15, 286739, Note_on_c, 10, 53, 0
15, 286740, Note_on_c, 10, 41, 88
15, 286799, Note_on_c, 10, 41, 0
15, 286800, Note_on_c, 10, 41, 89
15, 286919, Note_on_c, 10, 41, 0
15, 382680, Note_on_c, 10, 53, 104
15, 382859, Note_on_c, 10, 53, 0
15, 382860, Note_on_c, 10, 41, 92
15, 382919, Note_on_c, 10, 41, 0
15, 382920, Note_on_c, 10, 41, 92
15, 383039, Note_on_c, 10, 41, 0
15, 401400, Note_on_c, 10, 53, 92
15, 401519, Note_on_c, 10, 53, 0
15, 401760, Note_on_c, 10, 53, 92
15, 401879, Note_on_c, 10, 53, 0
15, 402480, Note_on_c, 10, 53, 92
15, 402599, Note_on_c, 10, 53, 0
15, 403200, Note_on_c, 10, 53, 80
15, 403319, Note_on_c, 10, 53, 0
15, 403920, Note_on_c, 10, 53, 80
15, 404039, Note_on_c, 10, 53, 0
15, 404640, Note_on_c, 10, 53, 80
15, 404759, Note_on_c, 10, 53, 0
15, 405360, Note_on_c, 10, 53, 80
15, 405479, Note_on_c, 10, 53, 0
15, 405600, Note_on_c, 10, 53, 80
15, 405719, Note_on_c, 10, 53, 0
15, 405720, Note_on_c, 10, 53, 80
15, 405839, Note_on_c, 10, 53, 0
15, 406920, Note_on_c, 10, 53, 80
15, 407039, Note_on_c, 10, 53, 0
15, 407040, Note_on_c, 10, 53, 80
15, 407159, Note_on_c, 10, 53, 0
15, 407160, Note_on_c, 10, 53, 80
15, 407279, Note_on_c, 10, 53, 0
15, 420840, Note_on_c, 10, 53, 92
15, 421019, Note_on_c, 10, 53, 0
15, 421020, Note_on_c, 10, 41, 92
15, 421079, Note_on_c, 10, 41, 0
15, 421080, Note_on_c, 10, 41, 92
15, 421199, Note_on_c, 10, 41, 0
15, 421200, Note_on_c, 10, 53, 92
15, 421319, Note_on_c, 10, 53, 0
15, 452520, Note_on_c, 10, 53, 92
15, 452639, Note_on_c, 10, 53, 0
15, 452880, Note_on_c, 10, 53, 92
15, 452999, Note_on_c, 10, 53, 0
15, 453600, Note_on_c, 10, 53, 92
15, 453719, Note_on_c, 10, 53, 0
15, 454320, Note_on_c, 10, 53, 80
15, 454439, Note_on_c, 10, 53, 0
15, 455040, Note_on_c, 10, 53, 80
15, 455159, Note_on_c, 10, 53, 0
15, 455760, Note_on_c, 10, 53, 80
15, 455879, Note_on_c, 10, 53, 0
15, 456480, Note_on_c, 10, 53, 80
15, 456599, Note_on_c, 10, 53, 0
15, 456720, Note_on_c, 10, 53, 80
15, 456839, Note_on_c, 10, 53, 0
15, 456840, Note_on_c, 10, 53, 80
15, 456959, Note_on_c, 10, 53, 0
15, 458040, Note_on_c, 10, 53, 80
15, 458159, Note_on_c, 10, 53, 0
15, 458160, Note_on_c, 10, 53, 80
15, 458279, Note_on_c, 10, 53, 0
15, 458280, Note_on_c, 10, 53, 80
15, 458399, Note_on_c, 10, 53, 0
15, 471960, Note_on_c, 10, 53, 92
15, 472139, Note_on_c, 10, 53, 0
15, 472140, Note_on_c, 10, 41, 92
15, 472199, Note_on_c, 10, 41, 0
15, 472200, Note_on_c, 10, 41, 92
15, 472319, Note_on_c, 10, 41, 0
15, 472320, Note_on_c, 10, 53, 92
15, 472439, Note_on_c, 10, 53, 0
15, 502560, Note_on_c, 10, 53, 80
15, 502739, Note_on_c, 10, 53, 0
15, 502740, Note_on_c, 10, 41, 80
15, 502799, Note_on_c, 10, 41, 0
15, 502800, Note_on_c, 10, 41, 80
15, 502919, Note_on_c, 10, 41, 0
15, 503640, Note_on_c, 10, 53, 80
15, 503819, Note_on_c, 10, 53, 0
15, 503820, Note_on_c, 10, 41, 68
15, 503879, Note_on_c, 10, 41, 0
15, 503880, Note_on_c, 10, 41, 68
15, 503999, Note_on_c, 10, 41, 0
15, 504720, Note_on_c, 10, 53, 80
15, 504899, Note_on_c, 10, 53, 0
15, 504900, Note_on_c, 10, 41, 68
15, 504959, Note_on_c, 10, 41, 0
15, 504960, Note_on_c, 10, 41, 68
15, 505079, Note_on_c, 10, 41, 0
15, 505800, Note_on_c, 10, 53, 80
15, 505979, Note_on_c, 10, 53, 0
15, 505980, Note_on_c, 10, 41, 68
15, 506039, Note_on_c, 10, 41, 0
15, 506040, Note_on_c, 10, 41, 68
15, 506159, Note_on_c, 10, 41, 0
15, 507240, Note_on_c, 10, 53, 44
15, 507419, Note_on_c, 10, 53, 0
15, 507420, Note_on_c, 10, 41, 32
15, 507479, Note_on_c, 10, 41, 0
15, 507480, Note_on_c, 10, 41, 32
15, 507599, Note_on_c, 10, 41, 0
15, 521640, Note_on_c, 10, 53, 32
15, 521819, Note_on_c, 10, 53, 0
15, 521820, Note_on_c, 10, 41, 32
15, 521879, Note_on_c, 10, 41, 0
15, 521880, Note_on_c, 10, 41, 32
15, 521999, Note_on_c, 10, 41, 0
15, 524520, Note_on_c, 10, 53, 32
15, 524699, Note_on_c, 10, 53, 0
15, 524700, Note_on_c, 10, 41, 35
15, 524759, Note_on_c, 10, 41, 0
15, 524760, Note_on_c, 10, 41, 36
15, 524879, Note_on_c, 10, 41, 0
15, 525960, Note_on_c, 10, 53, 56
15, 526139, Note_on_c, 10, 53, 0
15, 526140, Note_on_c, 10, 41, 59
15, 526199, Note_on_c, 10, 41, 0
15, 526200, Note_on_c, 10, 41, 60
15, 526319, Note_on_c, 10, 41, 0
15, 527400, Note_on_c, 10, 53, 80
15, 527579, Note_on_c, 10, 53, 0
15, 527580, Note_on_c, 10, 41, 80
15, 527639, Note_on_c, 10, 41, 0
15, 527640, Note_on_c, 10, 41, 80
15, 527759, Note_on_c, 10, 41, 0
15, 527760, Note_on_c, 10, 53, 80
15, 527939, Note_on_c, 10, 53, 0
15, 527940, Note_on_c, 10, 41, 80
15, 527999, Note_on_c, 10, 41, 0
15, 528000, Note_on_c, 10, 41, 80
15, 528119, Note_on_c, 10, 41, 0
15, 528120, Note_on_c, 10, 53, 86
15, 528299, Note_on_c, 10, 53, 0
15, 528300, Note_on_c, 10, 41, 86
15, 528359, Note_on_c, 10, 41, 0
15, 528360, Note_on_c, 10, 41, 86
15, 528479, Note_on_c, 10, 41, 0
15, 528480, Note_on_c, 10, 53, 86
15, 528659, Note_on_c, 10, 53, 0
15, 528660, Note_on_c, 10, 41, 86
15, 528719, Note_on_c, 10, 41, 0
15, 528720, Note_on_c, 10, 41, 86
15, 528839, Note_on_c, 10, 41, 0
15, 528840, Note_on_c, 10, 53, 92
15, 529019, Note_on_c, 10, 53, 0
15, 529020, Note_on_c, 10, 41, 92
15, 529079, Note_on_c, 10, 41, 0
15, 529080, Note_on_c, 10, 41, 92
15, 529199, Note_on_c, 10, 41, 0
15, 529200, Note_on_c, 10, 53, 92
15, 529379, Note_on_c, 10, 53, 0
15, 529380, Note_on_c, 10, 41, 92
15, 529439, Note_on_c, 10, 41, 0
15, 529440, Note_on_c, 10, 41, 92
15, 529559, Note_on_c, 10, 41, 0
15, 529560, Note_on_c, 10, 53, 92
15, 529739, Note_on_c, 10, 53, 0
15, 529740, Note_on_c, 10, 41, 92
15, 529799, Note_on_c, 10, 41, 0
15, 529800, Note_on_c, 10, 41, 92
15, 529919, Note_on_c, 10, 41, 0
15, 529920, Note_on_c, 10, 53, 92
15, 530099, Note_on_c, 10, 53, 0
15, 530100, Note_on_c, 10, 41, 92
15, 530159, Note_on_c, 10, 41, 0
15, 530160, Note_on_c, 10, 41, 92
15, 530279, Note_on_c, 10, 41, 0
15, 530280, Note_on_c, 10, 53, 92
15, 530319, Note_on_c, 10, 53, 0
15, 530320, Note_on_c, 10, 53, 92
15, 530359, Note_on_c, 10, 53, 0
15, 530360, Note_on_c, 10, 53, 92
15, 530399, Note_on_c, 10, 53, 0
15, 530400, Note_on_c, 10, 53, 92
15, 530439, Note_on_c, 10, 53, 0
15, 530440, Note_on_c, 10, 53, 92
15, 530479, Note_on_c, 10, 53, 0
15, 530480, Note_on_c, 10, 53, 92
15, 530519, Note_on_c, 10, 53, 0
15, 530520, Note_on_c, 10, 53, 92
15, 530559, Note_on_c, 10, 53, 0
15, 530560, Note_on_c, 10, 53, 92
15, 530599, Note_on_c, 10, 53, 0
15, 530600, Note_on_c, 10, 53, 92
15, 530639, Note_on_c, 10, 53, 0
15, 530640, Note_on_c, 10, 53, 92
15, 530759, Note_on_c, 10, 53, 0
15, 530760, Note_on_c, 10, 53, 92
15, 530879, Note_on_c, 10, 53, 0
15, 530880, Note_on_c, 10, 53, 92
15, 530999, Note_on_c, 10, 53, 0
15, 531000, Note_on_c, 10, 53, 92
15, 531119, Note_on_c, 10, 53, 0
15, 531120, Note_on_c, 10, 53, 92
15, 531239, Note_on_c, 10, 53, 0
15, 531240, Note_on_c, 10, 53, 92
15, 531359, Note_on_c, 10, 53, 0
15, 531360, Note_on_c, 10, 53, 92
15, 531479, Note_on_c, 10, 53, 0
15, 531480, Note_on_c, 10, 53, 92
15, 531599, Note_on_c, 10, 53, 0
15, 531600, Note_on_c, 10, 53, 92
15, 531719, Note_on_c, 10, 53, 0
15, 531720, Note_on_c, 10, 53, 92
15, 531839, Note_on_c, 10, 53, 0
15, 531840, Note_on_c, 10, 53, 92
15, 531959, Note_on_c, 10, 53, 0
15, 531960, Note_on_c, 10, 53, 92
15, 532079, Note_on_c, 10, 53, 0
15, 532080, Note_on_c, 10, 53, 92
15, 532199, Note_on_c, 10, 53, 0
15, 532200, Note_on_c, 10, 53, 92
15, 532319, Note_on_c, 10, 53, 0
15, 532320, Note_on_c, 10, 53, 92
15, 532439, Note_on_c, 10, 53, 0
15, 532440, Note_on_c, 10, 53, 92
15, 532559, Note_on_c, 10, 53, 0
15, 532560, Note_on_c, 10, 53, 92
15, 532679, Note_on_c, 10, 53, 0
15, 532680, Note_on_c, 10, 53, 92
15, 532799, Note_on_c, 10, 53, 0
15, 532800, Note_on_c, 10, 53, 92
15, 532919, Note_on_c, 10, 53, 0
15, 532920, Note_on_c, 10, 53, 92
15, 533039, Note_on_c, 10, 53, 0
15, 533040, Note_on_c, 10, 53, 92
15, 533159, Note_on_c, 10, 53, 0
15, 533160, Note_on_c, 10, 53, 92
15, 533279, Note_on_c, 10, 53, 0
15, 533280, Note_on_c, 10, 53, 92
15, 533399, Note_on_c, 10, 53, 0
15, 533400, Note_on_c, 10, 53, 92
15, 533519, Note_on_c, 10, 53, 0
15, 533520, Note_on_c, 10, 53, 92
15, 533639, Note_on_c, 10, 53, 0
15, 533640, Note_on_c, 10, 53, 92
15, 533759, Note_on_c, 10, 53, 0
15, 533760, Note_on_c, 10, 53, 92
15, 533879, Note_on_c, 10, 53, 0
15, 533880, Note_on_c, 10, 53, 92
15, 533999, Note_on_c, 10, 53, 0
15, 534000, Note_on_c, 10, 53, 92
15, 534119, Note_on_c, 10, 53, 0
15, 534120, Note_on_c, 10, 53, 92
15, 534239, Note_on_c, 10, 53, 0
15, 534240, Note_on_c, 10, 53, 92
15, 534359, Note_on_c, 10, 53, 0
15, 534360, Note_on_c, 10, 53, 92
15, 534479, Note_on_c, 10, 53, 0
15, 534480, Note_on_c, 10, 53, 92
15, 534599, Note_on_c, 10, 53, 0
15, 536760, Note_on_c, 10, 53, 80
15, 536939, Note_on_c, 10, 53, 0
15, 536940, Note_on_c, 10, 41, 80
15, 536999, Note_on_c, 10, 41, 0
15, 537000, Note_on_c, 10, 41, 80
15, 537119, Note_on_c, 10, 41, 0
15, 537120, Note_on_c, 10, 53, 80
15, 537299, Note_on_c, 10, 53, 0
15, 537300, Note_on_c, 10, 41, 80
15, 537359, Note_on_c, 10, 41, 0
15, 537360, Note_on_c, 10, 41, 80
15, 537479, Note_on_c, 10, 41, 0
15, 537480, Note_on_c, 10, 53, 80
15, 537659, Note_on_c, 10, 53, 0
15, 537660, Note_on_c, 10, 41, 80
15, 537719, Note_on_c, 10, 41, 0
15, 537720, Note_on_c, 10, 41, 80
15, 537839, Note_on_c, 10, 41, 0
15, 537840, Note_on_c, 10, 53, 80
15, 538019, Note_on_c, 10, 53, 0
15, 538020, Note_on_c, 10, 41, 80
15, 538079, Note_on_c, 10, 41, 0
15, 538080, Note_on_c, 10, 41, 80
15, 538199, Note_on_c, 10, 41, 0
15, 538200, Note_on_c, 10, 53, 80
15, 538379, Note_on_c, 10, 53, 0
15, 538380, Note_on_c, 10, 41, 80
15, 538439, Note_on_c, 10, 41, 0
15, 538440, Note_on_c, 10, 41, 80
15, 538559, Note_on_c, 10, 41, 0
15, 538560, Note_on_c, 10, 53, 80
15, 538739, Note_on_c, 10, 53, 0
15, 538740, Note_on_c, 10, 41, 80
15, 538799, Note_on_c, 10, 41, 0
15, 538800, Note_on_c, 10, 41, 80
15, 538919, Note_on_c, 10, 41, 0
15, 538920, Note_on_c, 10, 53, 80
15, 539039, Note_on_c, 10, 53, 0
15, 554040, Note_on_c, 10, 53, 80
15, 554159, Note_on_c, 10, 53, 0
15, 554160, Note_on_c, 10, 53, 80
15, 554279, Note_on_c, 10, 53, 0
15, 555480, Note_on_c, 10, 53, 80
15, 555599, Note_on_c, 10, 53, 0
15, 555600, Note_on_c, 10, 53, 80
15, 555719, Note_on_c, 10, 53, 0
15, 556920, Note_on_c, 10, 53, 80
15, 557099, Note_on_c, 10, 53, 0
15, 557100, Note_on_c, 10, 53, 80
15, 557159, Note_on_c, 10, 53, 0
15, 557160, Note_on_c, 10, 53, 80
15, 557279, Note_on_c, 10, 53, 0
15, 559080, Note_on_c, 10, 53, 80
15, 559199, Note_on_c, 10, 53, 0
15, 559440, Note_on_c, 10, 53, 80
15, 559559, Note_on_c, 10, 53, 0
15, 563400, Note_on_c, 10, 53, 80
15, 563519, Note_on_c, 10, 53, 0
15, 564120, Note_on_c, 10, 53, 80
15, 564239, Note_on_c, 10, 53, 0
15, 564840, Note_on_c, 10, 53, 80
15, 564959, Note_on_c, 10, 53, 0
15, 565560, Note_on_c, 10, 53, 80
15, 565679, Note_on_c, 10, 53, 0
15, 566280, Note_on_c, 10, 53, 80
15, 566399, Note_on_c, 10, 53, 0
15, 567000, Note_on_c, 10, 53, 80
15, 567119, Note_on_c, 10, 53, 0
15, 569880, Note_on_c, 10, 41, 32
15, 570059, Note_on_c, 10, 41, 0
15, 570060, Note_on_c, 10, 53, 32
15, 570119, Note_on_c, 10, 53, 0
15, 570120, Note_on_c, 10, 53, 32
15, 570239, Note_on_c, 10, 53, 0
15, 570240, Note_on_c, 10, 53, 32
15, 570359, Note_on_c, 10, 53, 0
15, 572760, Note_on_c, 10, 53, 44
15, 572939, Note_on_c, 10, 53, 0
15, 572940, Note_on_c, 10, 53, 48
15, 572999, Note_on_c, 10, 53, 0
15, 573000, Note_on_c, 10, 53, 50
15, 573119, Note_on_c, 10, 53, 0
15, 573120, Note_on_c, 10, 53, 53
15, 573239, Note_on_c, 10, 53, 0
15, 578520, Note_on_c, 10, 53, 39
15, 578699, Note_on_c, 10, 53, 0
15, 578700, Note_on_c, 10, 41, 43
15, 578759, Note_on_c, 10, 41, 0
15, 578760, Note_on_c, 10, 41, 44
15, 578879, Note_on_c, 10, 41, 0
15, 579240, Note_on_c, 10, 53, 54
15, 579419, Note_on_c, 10, 53, 0
15, 579420, Note_on_c, 10, 41, 58
15, 579479, Note_on_c, 10, 41, 0
15, 579480, Note_on_c, 10, 41, 59
15, 579599, Note_on_c, 10, 41, 0
15, 579960, Note_on_c, 10, 53, 69
15, 580139, Note_on_c, 10, 53, 0
15, 580140, Note_on_c, 10, 41, 73
15, 580199, Note_on_c, 10, 41, 0
15, 580200, Note_on_c, 10, 41, 74
15, 580319, Note_on_c, 10, 41, 0
15, 580680, Note_on_c, 10, 53, 84
15, 580859, Note_on_c, 10, 53, 0
15, 580860, Note_on_c, 10, 41, 88
15, 580919, Note_on_c, 10, 41, 0
15, 580920, Note_on_c, 10, 41, 89
15, 581039, Note_on_c, 10, 41, 0
15, 581039, End_track
16, 0, Start_track
16, 0, Title_t, "Violin I"
16, 0, MIDI_port, 0
16, 0, Program_c, 11, 48
16, 0, Control_c, 11, 7, 96
16, 0, Control_c, 11, 10, 48
16, 0, Control_c, 11, 11, 127
16, 0, Note_on_c, 11, 86, 92
16, 164, Note_on_c, 11, 86, 0
16, 180, Note_on_c, 11, 74, 92
16, 224, Note_on_c, 11, 74, 0
16, 240, Note_on_c, 11, 74, 92
16, 359, Note_on_c, 11, 74, 0
16, 720, Note_on_c, 11, 81, 104
16, 749, Note_on_c, 11, 81, 0
16, 750, Note_on_c, 11, 81, 92
16, 869, Note_on_c, 11, 81, 0
16, 900, Note_on_c, 11, 69, 92
16, 944, Note_on_c, 11, 69, 0
16, 960, Note_on_c, 11, 69, 92
16, 1079, Note_on_c, 11, 69, 0
16, 1800, Note_on_c, 11, 74, 92
16, 1964, Note_on_c, 11, 74, 0
16, 1980, Note_on_c, 11, 62, 92
16, 2024, Note_on_c, 11, 62, 0
16, 2040, Note_on_c, 11, 62, 92
16, 2159, Note_on_c, 11, 62, 0
16, 7200, Note_on_c, 11, 86, 32
16, 7364, Note_on_c, 11, 86, 0
16, 7380, Note_on_c, 11, 74, 32
16, 7424, Note_on_c, 11, 74, 0
16, 7440, Note_on_c, 11, 74, 32
16, 7544, Note_on_c, 11, 74, 0
16, 7560, Note_on_c, 11, 81, 32
16, 7649, Note_on_c, 11, 81, 0
16, 7680, Note_on_c, 11, 83, 32
16, 7769, Note_on_c, 11, 83, 0
16, 7800, Note_on_c, 11, 84, 32
16, 7889, Note_on_c, 11, 84, 0
16, 7920, Note_on_c, 11, 83, 32
16, 8009, Note_on_c, 11, 83, 0
16, 8040, Note_on_c, 11, 84, 32
16, 8129, Note_on_c, 11, 84, 0
16, 8160, Note_on_c, 11, 86, 32
16, 8249, Note_on_c, 11, 86, 0
16, 8280, Note_on_c, 11, 84, 32
16, 8369, Note_on_c, 11, 84, 0
16, 8400, Note_on_c, 11, 83, 32
16, 8489, Note_on_c, 11, 83, 0
16, 8520, Note_on_c, 11, 81, 32
16, 8609, Note_on_c, 11, 81, 0
16, 8640, Note_on_c, 11, 82, 32
16, 8729, Note_on_c, 11, 82, 0
16, 8760, Note_on_c, 11, 81, 32
16, 8849, Note_on_c, 11, 81, 0
16, 8880, Note_on_c, 11, 79, 32
16, 8969, Note_on_c, 11, 79, 0
16, 9000, Note_on_c, 11, 77, 32
16, 9089, Note_on_c, 11, 77, 0
16, 9120, Note_on_c, 11, 76, 32
16, 9209, Note_on_c, 11, 76, 0
16, 9240, Note_on_c, 11, 74, 32
16, 9329, Note_on_c, 11, 74, 0
16, 9360, Note_on_c, 11, 73, 32
16, 9449, Note_on_c, 11, 73, 0
16, 9480, Note_on_c, 11, 74, 32
16, 9569, Note_on_c, 11, 74, 0
16, 9600, Note_on_c, 11, 76, 32
16, 9689, Note_on_c, 11, 76, 0
16, 9720, Note_on_c, 11, 74, 32
16, 9809, Note_on_c, 11, 74, 0
16, 9840, Note_on_c, 11, 73, 32
16, 9929, Note_on_c, 11, 73, 0
16, 9960, Note_on_c, 11, 74, 32
16, 10049, Note_on_c, 11, 74, 0
16, 10080, Note_on_c, 11, 69, 32
16, 10169, Note_on_c, 11, 69, 0
16, 10200, Note_on_c, 11, 81, 32
16, 10289, Note_on_c, 11, 81, 0
16, 10320, Note_on_c, 11, 81, 32
16, 10409, Note_on_c, 11, 81, 0
16, 10440, Note_on_c, 11, 81, 32
16, 10529, Note_on_c, 11, 81, 0
16, 10560, Note_on_c, 11, 88, 32
16, 10649, Note_on_c, 11, 88, 0
16, 10680, Note_on_c, 11, 88, 32
16, 10769, Note_on_c, 11, 88, 0
16, 10800, Note_on_c, 11, 88, 32
16, 10889, Note_on_c, 11, 88, 0
16, 10920, Note_on_c, 11, 88, 32
16, 11009, Note_on_c, 11, 88, 0
16, 11040, Note_on_c, 11, 88, 32
16, 11129, Note_on_c, 11, 88, 0
16, 11160, Note_on_c, 11, 88, 32
16, 11249, Note_on_c, 11, 88, 0
16, 11280, Note_on_c, 11, 88, 32
16, 11369, Note_on_c, 11, 88, 0
16, 11400, Note_on_c, 11, 81, 32
16, 11489, Note_on_c, 11, 81, 0
16, 11520, Note_on_c, 11, 81, 32
16, 11609, Note_on_c, 11, 81, 0
16, 11640, Note_on_c, 11, 81, 32
16, 11729, Note_on_c, 11, 81, 0
16, 11760, Note_on_c, 11, 81, 32
16, 11849, Note_on_c, 11, 81, 0
16, 11880, Note_on_c, 11, 81, 32
16, 11969, Note_on_c, 11, 81, 0
16, 12000, Note_on_c, 11, 81, 32
16, 12089, Note_on_c, 11, 81, 0
16, 12120, Note_on_c, 11, 81, 32
16, 12209, Note_on_c, 11, 81, 0
16, 12240, Note_on_c, 11, 82, 32
16, 12329, Note_on_c, 11, 82, 0
16, 12360, Note_on_c, 11, 81, 32
16, 12449, Note_on_c, 11, 81, 0
16, 12480, Note_on_c, 11, 79, 32
16, 12569, Note_on_c, 11, 79, 0
16, 12600, Note_on_c, 11, 77, 32
16, 12689, Note_on_c, 11, 77, 0
16, 12720, Note_on_c, 11, 76, 32
16, 12809, Note_on_c, 11, 76, 0
16, 12840, Note_on_c, 11, 74, 32
16, 12929, Note_on_c, 11, 74, 0
16, 12960, Note_on_c, 11, 77, 32
16, 13049, Note_on_c, 11, 77, 0
16, 13080, Note_on_c, 11, 76, 32
16, 13169, Note_on_c, 11, 76, 0
16, 13200, Note_on_c, 11, 74, 32
16, 13289, Note_on_c, 11, 74, 0
16, 13320, Note_on_c, 11, 72, 32
16, 13409, Note_on_c, 11, 72, 0
16, 13440, Note_on_c, 11, 71, 32
16, 13529, Note_on_c, 11, 71, 0
16, 13560, Note_on_c, 11, 69, 32
16, 13649, Note_on_c, 11, 69, 0
16, 13680, Note_on_c, 11, 68, 32
16, 13769, Note_on_c, 11, 68, 0
16, 13800, Note_on_c, 11, 69, 32
16, 13889, Note_on_c, 11, 69, 0
16, 13920, Note_on_c, 11, 71, 32
16, 14009, Note_on_c, 11, 71, 0
16, 14040, Note_on_c, 11, 69, 32
16, 14129, Note_on_c, 11, 69, 0
16, 14160, Note_on_c, 11, 68, 32
16, 14249, Note_on_c, 11, 68, 0
16, 14280, Note_on_c, 11, 69, 32
16, 14369, Note_on_c, 11, 69, 0
16, 14400, Note_on_c, 11, 73, 32
16, 14489, Note_on_c, 11, 73, 0
16, 14520, Note_on_c, 11, 74, 32
16, 14609, Note_on_c, 11, 74, 0
16, 14640, Note_on_c, 11, 76, 32
16, 14729, Note_on_c, 11, 76, 0
16, 14760, Note_on_c, 11, 77, 32
16, 14849, Note_on_c, 11, 77, 0
16, 14880, Note_on_c, 11, 79, 32
16, 14969, Note_on_c, 11, 79, 0
16, 15000, Note_on_c, 11, 81, 32
16, 15089, Note_on_c, 11, 81, 0
16, 15120, Note_on_c, 11, 82, 32
16, 15209, Note_on_c, 11, 82, 0
16, 15240, Note_on_c, 11, 81, 32
16, 15329, Note_on_c, 11, 81, 0
16, 15360, Note_on_c, 11, 79, 32
16, 15449, Note_on_c, 11, 79, 0
16, 15480, Note_on_c, 11, 77, 32
16, 15569, Note_on_c, 11, 77, 0
16, 15600, Note_on_c, 11, 76, 32
16, 15689, Note_on_c, 11, 76, 0
16, 15720, Note_on_c, 11, 74, 32
16, 15809, Note_on_c, 11, 74, 0
16, 15840, Note_on_c, 11, 73, 32
16, 15929, Note_on_c, 11, 73, 0
16, 15960, Note_on_c, 11, 74, 33
16, 16049, Note_on_c, 11, 74, 0
16, 16080, Note_on_c, 11, 76, 35
16, 16169, Note_on_c, 11, 76, 0
16, 16200, Note_on_c, 11, 74, 37
16, 16289, Note_on_c, 11, 74, 0
16, 16320, Note_on_c, 11, 73, 38
16, 16409, Note_on_c, 11, 73, 0
16, 16440, Note_on_c, 11, 74, 40
16, 16529, Note_on_c, 11, 74, 0
16, 16560, Note_on_c, 11, 73, 42
16, 16649, Note_on_c, 11, 73, 0
16, 16680, Note_on_c, 11, 74, 43
16, 16769, Note_on_c, 11, 74, 0
16, 16800, Note_on_c, 11, 76, 45
16, 16889, Note_on_c, 11, 76, 0
16, 16920, Note_on_c, 11, 74, 47
16, 17009, Note_on_c, 11, 74, 0
16, 17040, Note_on_c, 11, 73, 48
16, 17129, Note_on_c, 11, 73, 0
16, 17160, Note_on_c, 11, 74, 50
16, 17249, Note_on_c, 11, 74, 0
16, 17280, Note_on_c, 11, 73, 52
16, 17369, Note_on_c, 11, 73, 0
16, 17400, Note_on_c, 11, 74, 53
16, 17489, Note_on_c, 11, 74, 0
16, 17520, Note_on_c, 11, 76, 55
16, 17609, Note_on_c, 11, 76, 0
16, 17640, Note_on_c, 11, 74, 57
16, 17729, Note_on_c, 11, 74, 0
16, 17760, Note_on_c, 11, 73, 58
16, 17849, Note_on_c, 11, 73, 0
16, 17880, Note_on_c, 11, 74, 60
16, 17969, Note_on_c, 11, 74, 0
16, 18000, Note_on_c, 11, 76, 62
16, 18089, Note_on_c, 11, 76, 0
16, 18120, Note_on_c, 11, 77, 63
16, 18209, Note_on_c, 11, 77, 0
16, 18240, Note_on_c, 11, 79, 65
16, 18329, Note_on_c, 11, 79, 0
16, 18360, Note_on_c, 11, 77, 67
16, 18449, Note_on_c, 11, 77, 0
16, 18480, Note_on_c, 11, 76, 68
16, 18569, Note_on_c, 11, 76, 0
16, 18600, Note_on_c, 11, 77, 70
16, 18689, Note_on_c, 11, 77, 0
16, 18720, Note_on_c, 11, 76, 72
16, 18809, Note_on_c, 11, 76, 0
16, 18840, Note_on_c, 11, 77, 73
16, 18929, Note_on_c, 11, 77, 0
16, 18960, Note_on_c, 11, 79, 75
16, 19049, Note_on_c, 11, 79, 0
16, 19080, Note_on_c, 11, 77, 77
16, 19169, Note_on_c, 11, 77, 0
16, 19200, Note_on_c, 11, 76, 78
16, 19289, Note_on_c, 11, 76, 0
16, 19320, Note_on_c, 11, 77, 80
16, 19409, Note_on_c, 11, 77, 0
16, 19440, Note_on_c, 11, 76, 82
16, 19529, Note_on_c, 11, 76, 0
16, 19560, Note_on_c, 11, 77, 83
16, 19649, Note_on_c, 11, 77, 0
16, 19680, Note_on_c, 11, 79, 85
16, 19769, Note_on_c, 11, 79, 0
16, 19800, Note_on_c, 11, 81, 87
16, 19964, Note_on_c, 11, 81, 0
16, 19980, Note_on_c, 11, 69, 89
16, 20024, Note_on_c, 11, 69, 0
16, 20040, Note_on_c, 11, 69, 90
16, 20144, Note_on_c, 11, 69, 0
16, 20160, Note_on_c, 11, 81, 92
16, 20160, Note_on_c, 11, 62, 92
16, 20160, Note_on_c, 11, 69, 92
16, 20279, Note_on_c, 11, 62, 0
16, 20279, Note_on_c, 11, 69, 0
16, 20324, Note_on_c, 11, 81, 0
16, 20340, Note_on_c, 11, 69, 92
16, 20384, Note_on_c, 11, 69, 0
16, 20400, Note_on_c, 11, 69, 92
16, 20504, Note_on_c, 11, 69, 0
16, 20520, Note_on_c, 11, 74, 92
16, 20624, Note_on_c, 11, 74, 0
16, 20640, Note_on_c, 11, 76, 92
16, 20744, Note_on_c, 11, 76, 0
16, 20760, Note_on_c, 11, 77, 92
16, 20864, Note_on_c, 11, 77, 0
16, 20880, Note_on_c, 11, 76, 92
16, 20984, Note_on_c, 11, 76, 0
16, 21000, Note_on_c, 11, 77, 92
16, 21104, Note_on_c, 11, 77, 0
16, 21120, Note_on_c, 11, 79, 92
16, 21224, Note_on_c, 11, 79, 0
16, 21240, Note_on_c, 11, 77, 92
16, 21344, Note_on_c, 11, 77, 0
16, 21360, Note_on_c, 11, 76, 92
16, 21464, Note_on_c, 11, 76, 0
16, 21480, Note_on_c, 11, 74, 92
16, 21584, Note_on_c, 11, 74, 0
16, 21600, Note_on_c, 11, 82, 80
16, 21704, Note_on_c, 11, 82, 0
16, 21720, Note_on_c, 11, 81, 80
16, 21824, Note_on_c, 11, 81, 0
16, 21840, Note_on_c, 11, 79, 80
16, 21944, Note_on_c, 11, 79, 0
16, 21960, Note_on_c, 11, 77, 80
16, 22064, Note_on_c, 11, 77, 0
16, 22080, Note_on_c, 11, 76, 80
16, 22184, Note_on_c, 11, 76, 0
16, 22200, Note_on_c, 11, 74, 80
16, 22304, Note_on_c, 11, 74, 0
16, 22320, Note_on_c, 11, 73, 80
16, 22424, Note_on_c, 11, 73, 0
16, 22440, Note_on_c, 11, 74, 80
16, 22544, Note_on_c, 11, 74, 0
16, 22560, Note_on_c, 11, 76, 80
16, 22664, Note_on_c, 11, 76, 0
16, 22680, Note_on_c, 11, 74, 80
16, 22784, Note_on_c, 11, 74, 0
16, 22800, Note_on_c, 11, 73, 80
16, 22904, Note_on_c, 11, 73, 0
16, 22920, Note_on_c, 11, 74, 80
16, 23024, Note_on_c, 11, 74, 0
16, 23040, Note_on_c, 11, 82, 80
16, 23144, Note_on_c, 11, 82, 0
16, 23160, Note_on_c, 11, 81, 80
16, 23264, Note_on_c, 11, 81, 0
16, 23280, Note_on_c, 11, 79, 80
16, 23384, Note_on_c, 11, 79, 0
16, 23400, Note_on_c, 11, 77, 80
16, 23504, Note_on_c, 11, 77, 0
16, 23520, Note_on_c, 11, 76, 80
16, 23624, Note_on_c, 11, 76, 0
16, 23640, Note_on_c, 11, 74, 80
16, 23744, Note_on_c, 11, 74, 0
16, 23760, Note_on_c, 11, 73, 80
16, 23864, Note_on_c, 11, 73, 0
16, 23880, Note_on_c, 11, 74, 80
16, 23984, Note_on_c, 11, 74, 0
16, 24000, Note_on_c, 11, 76, 80
16, 24104, Note_on_c, 11, 76, 0
16, 24120, Note_on_c, 11, 74, 80
16, 24224, Note_on_c, 11, 74, 0
16, 24240, Note_on_c, 11, 73, 80
16, 24344, Note_on_c, 11, 73, 0
16, 24360, Note_on_c, 11, 74, 80
16, 24464, Note_on_c, 11, 74, 0
16, 24480, Note_on_c, 11, 81, 80
16, 24584, Note_on_c, 11, 81, 0
16, 24600, Note_on_c, 11, 79, 80
16, 24704, Note_on_c, 11, 79, 0
16, 24720, Note_on_c, 11, 77, 80
16, 24824, Note_on_c, 11, 77, 0
16, 24840, Note_on_c, 11, 76, 80
16, 24944, Note_on_c, 11, 76, 0
16, 24960, Note_on_c, 11, 74, 80
16, 25064, Note_on_c, 11, 74, 0
16, 25080, Note_on_c, 11, 72, 80
16, 25184, Note_on_c, 11, 72, 0
16, 25200, Note_on_c, 11, 71, 80
16, 25304, Note_on_c, 11, 71, 0
16, 25320, Note_on_c, 11, 72, 80
16, 25424, Note_on_c, 11, 72, 0
16, 25440, Note_on_c, 11, 74, 80
16, 25544, Note_on_c, 11, 74, 0
16, 25560, Note_on_c, 11, 72, 80
16, 25664, Note_on_c, 11, 72, 0
16, 25680, Note_on_c, 11, 81, 80
16, 25784, Note_on_c, 11, 81, 0
16, 25800, Note_on_c, 11, 81, 80
16, 25904, Note_on_c, 11, 81, 0
16, 25920, Note_on_c, 11, 81, 80
16, 26024, Note_on_c, 11, 81, 0
16, 26040, Note_on_c, 11, 79, 80
16, 26144, Note_on_c, 11, 79, 0
16, 26160, Note_on_c, 11, 77, 80
16, 26264, Note_on_c, 11, 77, 0
16, 26280, Note_on_c, 11, 76, 80
16, 26384, Note_on_c, 11, 76, 0
16, 26400, Note_on_c, 11, 74, 80
16, 26504, Note_on_c, 11, 74, 0
16, 26520, Note_on_c, 11, 72, 80
16, 26624, Note_on_c, 11, 72, 0
16, 26640, Note_on_c, 11, 79, 80
16, 26744, Note_on_c, 11, 79, 0
16, 26760, Note_on_c, 11, 77, 80
16, 26864, Note_on_c, 11, 77, 0
16, 26880, Note_on_c, 11, 76, 80
16, 26984, Note_on_c, 11, 76, 0
16, 27000, Note_on_c, 11, 88, 80
16, 27104, Note_on_c, 11, 88, 0
16, 27120, Note_on_c, 11, 86, 80
16, 27224, Note_on_c, 11, 86, 0
16, 27240, Note_on_c, 11, 84, 80
16, 27344, Note_on_c, 11, 84, 0
16, 27360, Note_on_c, 11, 83, 80
16, 27360, Note_on_c, 11, 67, 80
16, 27360, Note_on_c, 11, 74, 80
16, 27479, Note_on_c, 11, 83, 0
16, 27479, Note_on_c, 11, 67, 0
16, 27479, Note_on_c, 11, 74, 0
16, 27960, Control_c, 11, 11, 87
16, 28080, Control_c, 11, 11, 87
16, 28080, Note_on_c, 11, 81, 68
16, 28110, Control_c, 11, 11, 88
16, 28140, Control_c, 11, 11, 89
16, 28170, Control_c, 11, 11, 90
16, 28200, Control_c, 11, 11, 91
16, 28230, Control_c, 11, 11, 93
16, 28244, Note_on_c, 11, 81, 0
16, 28260, Control_c, 11, 11, 94
16, 28260, Note_on_c, 11, 69, 68
16, 28290, Control_c, 11, 11, 95
16, 28304, Note_on_c, 11, 69, 0
16, 28320, Control_c, 11, 11, 96
16, 28320, Note_on_c, 11, 69, 68
16, 28350, Control_c, 11, 11, 97
16, 28380, Control_c, 11, 11, 98
16, 28410, Control_c, 11, 11, 99
16, 28424, Note_on_c, 11, 69, 0
16, 28440, Note_on_c, 11, 86, 68
16, 28440, Control_c, 11, 11, 100
16, 28470, Control_c, 11, 11, 101
16, 28500, Control_c, 11, 11, 103
16, 28530, Control_c, 11, 11, 104
16, 28560, Control_c, 11, 11, 105
16, 28590, Control_c, 11, 11, 106
16, 28604, Note_on_c, 11, 86, 0
16, 28620, Note_on_c, 11, 74, 68
16, 28620, Control_c, 11, 11, 107
16, 28650, Control_c, 11, 11, 108
16, 28664, Note_on_c, 11, 74, 0
16, 28680, Control_c, 11, 11, 109
16, 28680, Note_on_c, 11, 74, 68
16, 28710, Control_c, 11, 11, 110
16, 28740, Control_c, 11, 11, 111
16, 28770, Control_c, 11, 11, 113
16, 28784, Note_on_c, 11, 74, 0
16, 28800, Control_c, 11, 11, 114
16, 28800, Note_on_c, 11, 86, 68
16, 28830, Control_c, 11, 11, 115
16, 28860, Control_c, 11, 11, 116
16, 28890, Control_c, 11, 11, 117
16, 28920, Control_c, 11, 11, 118
16, 28950, Control_c, 11, 11, 119
16, 28964, Note_on_c, 11, 86, 0
16, 28980, Note_on_c, 11, 74, 68
16, 28980, Control_c, 11, 11, 120
16, 29010, Control_c, 11, 11, 121
16, 29024, Note_on_c, 11, 74, 0
16, 29040, Control_c, 11, 11, 123
16, 29040, Note_on_c, 11, 74, 68
16, 29070, Control_c, 11, 11, 124
16, 29100, Control_c, 11, 11, 125
16, 29130, Control_c, 11, 11, 127
16, 29144, Note_on_c, 11, 74, 0
16, 29160, Note_on_c, 11, 84, 68
16, 29324, Note_on_c, 11, 84, 0
16, 29340, Control_c, 11, 11, 127
16, 29340, Note_on_c, 11, 72, 68
16, 29365, Control_c, 11, 11, 126
16, 29384, Note_on_c, 11, 72, 0
16, 29390, Control_c, 11, 11, 125
16, 29400, Note_on_c, 11, 72, 68
16, 29415, Control_c, 11, 11, 124
16, 29440, Control_c, 11, 11, 123
16, 29465, Control_c, 11, 11, 121
16, 29490, Control_c, 11, 11, 120
16, 29504, Note_on_c, 11, 72, 0
16, 29515, Control_c, 11, 11, 119
16, 29520, Note_on_c, 11, 84, 68
16, 29540, Control_c, 11, 11, 118
16, 29565, Control_c, 11, 11, 117
16, 29590, Control_c, 11, 11, 116
16, 29615, Control_c, 11, 11, 115
16, 29640, Control_c, 11, 11, 114
16, 29665, Control_c, 11, 11, 113
16, 29684, Note_on_c, 11, 84, 0
16, 29690, Control_c, 11, 11, 111
16, 29700, Note_on_c, 11, 72, 68
16, 29715, Control_c, 11, 11, 110
16, 29740, Control_c, 11, 11, 109
16, 29744, Note_on_c, 11, 72, 0
16, 29760, Note_on_c, 11, 72, 68
16, 29765, Control_c, 11, 11, 108
16, 29790, Control_c, 11, 11, 107
16, 29815, Control_c, 11, 11, 106
16, 29840, Control_c, 11, 11, 105
16, 29864, Note_on_c, 11, 72, 0
16, 29865, Control_c, 11, 11, 104
16, 29880, Note_on_c, 11, 83, 68
16, 29890, Control_c, 11, 11, 103
16, 29915, Control_c, 11, 11, 101
16, 29940, Control_c, 11, 11, 100
16, 29965, Control_c, 11, 11, 99
16, 29990, Control_c, 11, 11, 98
16, 30015, Control_c, 11, 11, 97
16, 30040, Control_c, 11, 11, 96
16, 30044, Note_on_c, 11, 83, 0
16, 30060, Note_on_c, 11, 71, 68
16, 30065, Control_c, 11, 11, 95
16, 30090, Control_c, 11, 11, 94
16, 30104, Note_on_c, 11, 71, 0
16, 30115, Control_c, 11, 11, 93
16, 30120, Note_on_c, 11, 71, 68
16, 30140, Control_c, 11, 11, 91
16, 30165, Control_c, 11, 11, 90
16, 30190, Control_c, 11, 11, 89
16, 30215, Control_c, 11, 11, 87
16, 30239, Note_on_c, 11, 71, 0
16, 31275, Control_c, 11, 11, 59
16, 31320, Control_c, 11, 11, 60
16, 31320, Note_on_c, 11, 86, 92
16, 31365, Control_c, 11, 11, 62
16, 31410, Control_c, 11, 11, 64
16, 31455, Control_c, 11, 11, 65
16, 31484, Note_on_c, 11, 86, 0
16, 31500, Note_on_c, 11, 74, 92
16, 31500, Control_c, 11, 11, 67
16, 31544, Note_on_c, 11, 74, 0
16, 31545, Control_c, 11, 11, 69
16, 31560, Note_on_c, 11, 74, 92
16, 31590, Control_c, 11, 11, 70
16, 31635, Control_c, 11, 11, 72
16, 31664, Note_on_c, 11, 74, 0
16, 31680, Control_c, 11, 11, 74
16, 31680, Note_on_c, 11, 86, 92
16, 31725, Control_c, 11, 11, 75
16, 31770, Control_c, 11, 11, 77
16, 31815, Control_c, 11, 11, 79
16, 31844, Note_on_c, 11, 86, 0
16, 31860, Note_on_c, 11, 74, 92
16, 31860, Control_c, 11, 11, 80
16, 31904, Note_on_c, 11, 74, 0
16, 31905, Control_c, 11, 11, 82
16, 31920, Note_on_c, 11, 74, 92
16, 31950, Control_c, 11, 11, 84
16, 31995, Control_c, 11, 11, 85
16, 32024, Note_on_c, 11, 74, 0
16, 32040, Note_on_c, 11, 84, 92
16, 32040, Control_c, 11, 11, 87
16, 32085, Control_c, 11, 11, 89
16, 32130, Control_c, 11, 11, 90
16, 32175, Control_c, 11, 11, 92
16, 32204, Note_on_c, 11, 84, 0
16, 32220, Control_c, 11, 11, 94
16, 32220, Note_on_c, 11, 72, 92
16, 32264, Note_on_c, 11, 72, 0
16, 32265, Control_c, 11, 11, 95
16, 32280, Note_on_c, 11, 72, 92
16, 32310, Control_c, 11, 11, 97
16, 32355, Control_c, 11, 11, 99
16, 32384, Note_on_c, 11, 72, 0
16, 32400, Note_on_c, 11, 84, 92
16, 32400, Control_c, 11, 11, 100
16, 32445, Control_c, 11, 11, 102
16, 32490, Control_c, 11, 11, 104
16, 32535, Control_c, 11, 11, 105
16, 32564, Note_on_c, 11, 84, 0
16, 32580, Control_c, 11, 11, 107
16, 32580, Note_on_c, 11, 72, 92
16, 32624, Note_on_c, 11, 72, 0
16, 32625, Control_c, 11, 11, 109
16, 32640, Note_on_c, 11, 72, 92
16, 32670, Control_c, 11, 11, 110
16, 32715, Control_c, 11, 11, 112
16, 32744, Note_on_c, 11, 72, 0
16, 32760, Note_on_c, 11, 83, 92
16, 32760, Control_c, 11, 11, 114
16, 32805, Control_c, 11, 11, 115
16, 32850, Control_c, 11, 11, 117
16, 32895, Control_c, 11, 11, 119
16, 32924, Note_on_c, 11, 83, 0
16, 32940, Control_c, 11, 11, 120
16, 32940, Note_on_c, 11, 71, 92
16, 32984, Note_on_c, 11, 71, 0
16, 32985, Control_c, 11, 11, 122
16, 33000, Note_on_c, 11, 71, 92
16, 33030, Control_c, 11, 11, 124
16, 33075, Control_c, 11, 11, 127
16, 33104, Note_on_c, 11, 71, 0
16, 33120, Note_on_c, 11, 84, 92
16, 33284, Note_on_c, 11, 84, 0
16, 33300, Note_on_c, 11, 72, 92
16, 33344, Note_on_c, 11, 72, 0
16, 33360, Note_on_c, 11, 72, 92
16, 33464, Note_on_c, 11, 72, 0
16, 33480, Note_on_c, 11, 84, 92
16, 33644, Note_on_c, 11, 84, 0
16, 33660, Note_on_c, 11, 72, 92
16, 33704, Note_on_c, 11, 72, 0
16, 33720, Note_on_c, 11, 72, 92
16, 33824, Note_on_c, 11, 72, 0
16, 33840, Note_on_c, 11, 84, 92
16, 34004, Note_on_c, 11, 84, 0
16, 34020, Note_on_c, 11, 72, 92
16, 34064, Note_on_c, 11, 72, 0
16, 34080, Note_on_c, 11, 72, 92
16, 34184, Note_on_c, 11, 72, 0
16, 34200, Note_on_c, 11, 84, 92
16, 34364, Note_on_c, 11, 84, 0
16, 34380, Note_on_c, 11, 72, 92
16, 34424, Note_on_c, 11, 72, 0
16, 34440, Note_on_c, 11, 72, 92
16, 34544, Note_on_c, 11, 72, 0
16, 34560, Note_on_c, 11, 84, 92
16, 34724, Note_on_c, 11, 84, 0
16, 34740, Note_on_c, 11, 72, 92
16, 34784, Note_on_c, 11, 72, 0
16, 34800, Note_on_c, 11, 72, 92
16, 34904, Note_on_c, 11, 72, 0
16, 34920, Note_on_c, 11, 84, 92
16, 35084, Note_on_c, 11, 84, 0
16, 35100, Note_on_c, 11, 72, 92
16, 35144, Note_on_c, 11, 72, 0
16, 35160, Note_on_c, 11, 72, 92
16, 35264, Note_on_c, 11, 72, 0
16, 35280, Note_on_c, 11, 84, 92
16, 35444, Note_on_c, 11, 84, 0
16, 35460, Note_on_c, 11, 72, 92
16, 35504, Note_on_c, 11, 72, 0
16, 35520, Note_on_c, 11, 72, 92
16, 35624, Note_on_c, 11, 72, 0
16, 35640, Note_on_c, 11, 84, 92
16, 35804, Note_on_c, 11, 84, 0
16, 35820, Note_on_c, 11, 72, 92
16, 35864, Note_on_c, 11, 72, 0
16, 35880, Note_on_c, 11, 72, 92
16, 35984, Note_on_c, 11, 72, 0
16, 36000, Note_on_c, 11, 84, 92
16, 36164, Note_on_c, 11, 84, 0
16, 36180, Note_on_c, 11, 72, 92
16, 36224, Note_on_c, 11, 72, 0
16, 36240, Note_on_c, 11, 72, 92
16, 36344, Note_on_c, 11, 72, 0
16, 36360, Note_on_c, 11, 84, 92
16, 36524, Note_on_c, 11, 84, 0
16, 36540, Note_on_c, 11, 72, 92
16, 36584, Note_on_c, 11, 72, 0
16, 36600, Note_on_c, 11, 72, 92
16, 36704, Note_on_c, 11, 72, 0
16, 36720, Note_on_c, 11, 84, 92
16, 36884, Note_on_c, 11, 84, 0
16, 36900, Note_on_c, 11, 72, 92
16, 36944, Note_on_c, 11, 72, 0
16, 36960, Note_on_c, 11, 72, 92
16, 37064, Note_on_c, 11, 72, 0
16, 37080, Note_on_c, 11, 84, 92
16, 37244, Note_on_c, 11, 84, 0
16, 37260, Note_on_c, 11, 72, 92
16, 37304, Note_on_c, 11, 72, 0
16, 37320, Note_on_c, 11, 72, 92
16, 37424, Note_on_c, 11, 72, 0
16, 37440, Note_on_c, 11, 84, 92
16, 37604, Note_on_c, 11, 84, 0
16, 37620, Note_on_c, 11, 72, 92
16, 37664, Note_on_c, 11, 72, 0
16, 37680, Note_on_c, 11, 72, 92
16, 37784, Note_on_c, 11, 72, 0
16, 37800, Note_on_c, 11, 84, 92
16, 37964, Note_on_c, 11, 84, 0
16, 37980, Note_on_c, 11, 72, 92
16, 38024, Note_on_c, 11, 72, 0
16, 38040, Note_on_c, 11, 72, 92
16, 38144, Note_on_c, 11, 72, 0
16, 38160, Note_on_c, 11, 84, 92
16, 38324, Note_on_c, 11, 84, 0
16, 38340, Note_on_c, 11, 72, 92
16, 38384, Note_on_c, 11, 72, 0
16, 38400, Note_on_c, 11, 72, 92
16, 38504, Note_on_c, 11, 72, 0
16, 38520, Note_on_c, 11, 84, 92
16, 38684, Note_on_c, 11, 84, 0
16, 38700, Note_on_c, 11, 72, 92
16, 38744, Note_on_c, 11, 72, 0
16, 38760, Note_on_c, 11, 72, 92
16, 38864, Note_on_c, 11, 72, 0
16, 38880, Note_on_c, 11, 84, 92
16, 38999, Note_on_c, 11, 84, 0
16, 39600, Note_on_c, 11, 81, 92
16, 39764, Note_on_c, 11, 81, 0
16, 39780, Note_on_c, 11, 69, 92
16, 39824, Note_on_c, 11, 69, 0
16, 39840, Note_on_c, 11, 69, 92
16, 39944, Note_on_c, 11, 69, 0
16, 39960, Note_on_c, 11, 81, 92
16, 40049, Note_on_c, 11, 81, 0
16, 40080, Note_on_c, 11, 77, 92
16, 40169, Note_on_c, 11, 77, 0
16, 40200, Note_on_c, 11, 76, 92
16, 40289, Note_on_c, 11, 76, 0
16, 40320, Note_on_c, 11, 74, 92
16, 40439, Note_on_c, 11, 74, 0
16, 41040, Note_on_c, 11, 79, 92
16, 41204, Note_on_c, 11, 79, 0
16, 41220, Note_on_c, 11, 67, 92
16, 41264, Note_on_c, 11, 67, 0
16, 41280, Note_on_c, 11, 67, 92
16, 41384, Note_on_c, 11, 67, 0
16, 41400, Note_on_c, 11, 79, 92
16, 41489, Note_on_c, 11, 79, 0
16, 41520, Note_on_c, 11, 76, 92
16, 41609, Note_on_c, 11, 76, 0
16, 41640, Note_on_c, 11, 74, 92
16, 41729, Note_on_c, 11, 74, 0
16, 41758, Control_c, 11, 11, 87
16, 41760, Note_on_c, 11, 72, 68
16, 42239, Note_on_c, 11, 72, 0
16, 42240, Note_on_c, 11, 74, 68
16, 42359, Note_on_c, 11, 74, 0
16, 42360, Note_on_c, 11, 76, 68
16, 42479, Note_on_c, 11, 76, 0
16, 42480, Control_c, 11, 11, 87
16, 42480, Note_on_c, 11, 77, 68
16, 42510, Control_c, 11, 11, 89
16, 42540, Control_c, 11, 11, 90
16, 42570, Control_c, 11, 11, 92
16, 42600, Control_c, 11, 11, 94
16, 42630, Control_c, 11, 11, 95
16, 42660, Control_c, 11, 11, 97
16, 42690, Control_c, 11, 11, 99
16, 42720, Control_c, 11, 11, 100
16, 42750, Control_c, 11, 11, 102
16, 42780, Control_c, 11, 11, 104
16, 42810, Control_c, 11, 11, 105
16, 42839, Note_on_c, 11, 77, 0
16, 42840, Control_c, 11, 11, 107
16, 42840, Note_on_c, 11, 76, 68
16, 42870, Control_c, 11, 11, 109
16, 42900, Control_c, 11, 11, 110
16, 42930, Control_c, 11, 11, 112
16, 42960, Control_c, 11, 11, 114
16, 42990, Control_c, 11, 11, 115
16, 43020, Control_c, 11, 11, 117
16, 43050, Control_c, 11, 11, 119
16, 43080, Control_c, 11, 11, 120
16, 43110, Control_c, 11, 11, 122
16, 43140, Control_c, 11, 11, 124
16, 43170, Control_c, 11, 11, 125
16, 43184, Note_on_c, 11, 76, 0
16, 43200, Note_on_c, 11, 76, 68
16, 43200, Control_c, 11, 11, 127
16, 43230, Control_c, 11, 11, 125
16, 43260, Control_c, 11, 11, 124
16, 43290, Control_c, 11, 11, 122
16, 43320, Control_c, 11, 11, 120
16, 43350, Control_c, 11, 11, 119
16, 43380, Control_c, 11, 11, 117
16, 43410, Control_c, 11, 11, 115
16, 43440, Control_c, 11, 11, 114
16, 43470, Control_c, 11, 11, 112
16, 43500, Control_c, 11, 11, 110
16, 43530, Control_c, 11, 11, 109
16, 43560, Control_c, 11, 11, 107
16, 43590, Control_c, 11, 11, 105
16, 43620, Control_c, 11, 11, 104
16, 43650, Control_c, 11, 11, 102
16, 43679, Note_on_c, 11, 76, 0
16, 43680, Note_on_c, 11, 74, 68
16, 43680, Control_c, 11, 11, 100
16, 43710, Control_c, 11, 11, 99
16, 43740, Control_c, 11, 11, 97
16, 43770, Control_c, 11, 11, 95
16, 43799, Note_on_c, 11, 74, 0
16, 43800, Control_c, 11, 11, 94
16, 43800, Note_on_c, 11, 72, 68
16, 43830, Control_c, 11, 11, 92
16, 43860, Control_c, 11, 11, 90
16, 43890, Control_c, 11, 11, 87
16, 43919, Note_on_c, 11, 72, 0
16, 45720, Control_c, 11, 11, 127
16, 46080, Note_on_c, 11, 88, 80
16, 46169, Note_on_c, 11, 88, 0
16, 46200, Note_on_c, 11, 84, 80
16, 46289, Note_on_c, 11, 84, 0
16, 46320, Note_on_c, 11, 89, 80
16, 46409, Note_on_c, 11, 89, 0
16, 46440, Note_on_c, 11, 86, 80
16, 46529, Note_on_c, 11, 86, 0
16, 46560, Note_on_c, 11, 83, 80
16, 46649, Note_on_c, 11, 83, 0
16, 46680, Note_on_c, 11, 88, 80
16, 46769, Note_on_c, 11, 88, 0
16, 46800, Note_on_c, 11, 84, 80
16, 46919, Note_on_c, 11, 84, 0
16, 47520, Note_on_c, 11, 88, 80
16, 47609, Note_on_c, 11, 88, 0
16, 47640, Note_on_c, 11, 84, 80
16, 47729, Note_on_c, 11, 84, 0
16, 47760, Note_on_c, 11, 89, 80
16, 47849, Note_on_c, 11, 89, 0
16, 47880, Note_on_c, 11, 86, 80
16, 47969, Note_on_c, 11, 86, 0
16, 48000, Note_on_c, 11, 83, 80
16, 48089, Note_on_c, 11, 83, 0
16, 48120, Note_on_c, 11, 88, 80
16, 48209, Note_on_c, 11, 88, 0
16, 48240, Note_on_c, 11, 84, 80
16, 48404, Note_on_c, 11, 84, 0
16, 48420, Note_on_c, 11, 72, 80
16, 48464, Note_on_c, 11, 72, 0
16, 48480, Note_on_c, 11, 72, 80
16, 48584, Note_on_c, 11, 72, 0
16, 48600, Note_on_c, 11, 67, 80
16, 48719, Note_on_c, 11, 67, 0
16, 48960, Note_on_c, 11, 84, 80
16, 49124, Note_on_c, 11, 84, 0
16, 49140, Note_on_c, 11, 72, 80
16, 49184, Note_on_c, 11, 72, 0
16, 49200, Note_on_c, 11, 72, 80
16, 49304, Note_on_c, 11, 72, 0
16, 49320, Note_on_c, 11, 67, 80
16, 49439, Note_on_c, 11, 67, 0
16, 49680, Note_on_c, 11, 77, 32
16, 49799, Note_on_c, 11, 77, 0
16, 49800, Note_on_c, 11, 76, 32
16, 49919, Note_on_c, 11, 76, 0
16, 49920, Note_on_c, 11, 74, 32
16, 50039, Note_on_c, 11, 74, 0
16, 50040, Note_on_c, 11, 72, 32
16, 50159, Note_on_c, 11, 72, 0
16, 50160, Note_on_c, 11, 71, 32
16, 50279, Note_on_c, 11, 71, 0
16, 50280, Note_on_c, 11, 69, 32
16, 50399, Note_on_c, 11, 69, 0
16, 50400, Note_on_c, 11, 67, 32
16, 50519, Note_on_c, 11, 67, 0
16, 50520, Note_on_c, 11, 69, 32
16, 50639, Note_on_c, 11, 69, 0
16, 50640, Note_on_c, 11, 67, 32
16, 50759, Note_on_c, 11, 67, 0
16, 50760, Note_on_c, 11, 65, 32
16, 50879, Note_on_c, 11, 65, 0
16, 50880, Note_on_c, 11, 64, 32
16, 50999, Note_on_c, 11, 64, 0
16, 51000, Note_on_c, 11, 62, 32
16, 51059, Note_on_c, 11, 62, 0
16, 51060, Note_on_c, 11, 71, 32
16, 51104, Note_on_c, 11, 71, 0
16, 51120, Note_on_c, 11, 72, 32
16, 51284, Note_on_c, 11, 72, 0
16, 51300, Note_on_c, 11, 60, 32
16, 51344, Note_on_c, 11, 60, 0
16, 51360, Note_on_c, 11, 60, 32
16, 51464, Note_on_c, 11, 60, 0
16, 51480, Note_on_c, 11, 60, 32
16, 51599, Note_on_c, 11, 60, 0
16, 51840, Note_on_c, 11, 72, 32
16, 52004, Note_on_c, 11, 72, 0
16, 52020, Note_on_c, 11, 60, 32
16, 52064, Note_on_c, 11, 60, 0
16, 52080, Note_on_c, 11, 60, 32
16, 52184, Note_on_c, 11, 60, 0
16, 52200, Note_on_c, 11, 62, 32
16, 52319, Note_on_c, 11, 62, 0
16, 58320, Note_on_c, 11, 86, 32
16, 58484, Note_on_c, 11, 86, 0
16, 58500, Note_on_c, 11, 74, 32
16, 58544, Note_on_c, 11, 74, 0
16, 58560, Note_on_c, 11, 74, 32
16, 58664, Note_on_c, 11, 74, 0
16, 58680, Note_on_c, 11, 81, 32
16, 58769, Note_on_c, 11, 81, 0
16, 58800, Note_on_c, 11, 83, 32
16, 58889, Note_on_c, 11, 83, 0
16, 58920, Note_on_c, 11, 84, 32
16, 59009, Note_on_c, 11, 84, 0
16, 59040, Note_on_c, 11, 83, 32
16, 59129, Note_on_c, 11, 83, 0
16, 59160, Note_on_c, 11, 84, 32
16, 59249, Note_on_c, 11, 84, 0
16, 59280, Note_on_c, 11, 86, 32
16, 59369, Note_on_c, 11, 86, 0
16, 59400, Note_on_c, 11, 84, 32
16, 59489, Note_on_c, 11, 84, 0
16, 59520, Note_on_c, 11, 83, 32
16, 59609, Note_on_c, 11, 83, 0
16, 59640, Note_on_c, 11, 81, 32
16, 59729, Note_on_c, 11, 81, 0
16, 59760, Note_on_c, 11, 82, 32
16, 59849, Note_on_c, 11, 82, 0
16, 59880, Note_on_c, 11, 81, 32
16, 59969, Note_on_c, 11, 81, 0
16, 60000, Note_on_c, 11, 79, 32
16, 60089, Note_on_c, 11, 79, 0
16, 60120, Note_on_c, 11, 77, 32
16, 60209, Note_on_c, 11, 77, 0
16, 60240, Note_on_c, 11, 76, 32
16, 60329, Note_on_c, 11, 76, 0
16, 60360, Note_on_c, 11, 74, 32
16, 60449, Note_on_c, 11, 74, 0
16, 60480, Note_on_c, 11, 73, 32
16, 60569, Note_on_c, 11, 73, 0
16, 60600, Note_on_c, 11, 74, 32
16, 60689, Note_on_c, 11, 74, 0
16, 60720, Note_on_c, 11, 76, 32
16, 60809, Note_on_c, 11, 76, 0
16, 60840, Note_on_c, 11, 74, 32
16, 60929, Note_on_c, 11, 74, 0
16, 60960, Note_on_c, 11, 73, 32
16, 61049, Note_on_c, 11, 73, 0
16, 61080, Note_on_c, 11, 74, 32
16, 61169, Note_on_c, 11, 74, 0
16, 61200, Note_on_c, 11, 69, 32
16, 61289, Note_on_c, 11, 69, 0
16, 61320, Note_on_c, 11, 81, 32
16, 61409, Note_on_c, 11, 81, 0
16, 61440, Note_on_c, 11, 81, 32
16, 61529, Note_on_c, 11, 81, 0
16, 61560, Note_on_c, 11, 81, 32
16, 61649, Note_on_c, 11, 81, 0
16, 61680, Note_on_c, 11, 88, 32
16, 61769, Note_on_c, 11, 88, 0
16, 61800, Note_on_c, 11, 88, 32
16, 61889, Note_on_c, 11, 88, 0
16, 61920, Note_on_c, 11, 88, 32
16, 62009, Note_on_c, 11, 88, 0
16, 62040, Note_on_c, 11, 88, 32
16, 62129, Note_on_c, 11, 88, 0
16, 62160, Note_on_c, 11, 88, 32
16, 62249, Note_on_c, 11, 88, 0
16, 62280, Note_on_c, 11, 88, 32
16, 62369, Note_on_c, 11, 88, 0
16, 62400, Note_on_c, 11, 88, 32
16, 62489, Note_on_c, 11, 88, 0
16, 62520, Note_on_c, 11, 81, 32
16, 62609, Note_on_c, 11, 81, 0
16, 62640, Note_on_c, 11, 81, 32
16, 62729, Note_on_c, 11, 81, 0
16, 62760, Note_on_c, 11, 81, 32
16, 62849, Note_on_c, 11, 81, 0
16, 62880, Note_on_c, 11, 81, 32
16, 62969, Note_on_c, 11, 81, 0
16, 63000, Note_on_c, 11, 81, 32
16, 63089, Note_on_c, 11, 81, 0
16, 63120, Note_on_c, 11, 81, 32
16, 63209, Note_on_c, 11, 81, 0
16, 63240, Note_on_c, 11, 81, 32
16, 63329, Note_on_c, 11, 81, 0
16, 63360, Note_on_c, 11, 82, 32
16, 63449, Note_on_c, 11, 82, 0
16, 63480, Note_on_c, 11, 81, 32
16, 63569, Note_on_c, 11, 81, 0
16, 63600, Note_on_c, 11, 79, 32
16, 63689, Note_on_c, 11, 79, 0
16, 63720, Note_on_c, 11, 77, 32
16, 63809, Note_on_c, 11, 77, 0
16, 63840, Note_on_c, 11, 76, 32
16, 63929, Note_on_c, 11, 76, 0
16, 63960, Note_on_c, 11, 74, 32
16, 64049, Note_on_c, 11, 74, 0
16, 64080, Note_on_c, 11, 77, 32
16, 64169, Note_on_c, 11, 77, 0
16, 64200, Note_on_c, 11, 76, 32
16, 64289, Note_on_c, 11, 76, 0
16, 64320, Note_on_c, 11, 74, 32
16, 64409, Note_on_c, 11, 74, 0
16, 64440, Note_on_c, 11, 72, 32
16, 64529, Note_on_c, 11, 72, 0
16, 64560, Note_on_c, 11, 71, 32
16, 64649, Note_on_c, 11, 71, 0
16, 64680, Note_on_c, 11, 69, 32
16, 64769, Note_on_c, 11, 69, 0
16, 64800, Note_on_c, 11, 68, 32
16, 64889, Note_on_c, 11, 68, 0
16, 64920, Note_on_c, 11, 69, 32
16, 65009, Note_on_c, 11, 69, 0
16, 65040, Note_on_c, 11, 71, 32
16, 65129, Note_on_c, 11, 71, 0
16, 65160, Note_on_c, 11, 69, 32
16, 65249, Note_on_c, 11, 69, 0
16, 65280, Note_on_c, 11, 68, 32
16, 65369, Note_on_c, 11, 68, 0
16, 65400, Note_on_c, 11, 69, 32
16, 65489, Note_on_c, 11, 69, 0
16, 65520, Note_on_c, 11, 73, 32
16, 65609, Note_on_c, 11, 73, 0
16, 65640, Note_on_c, 11, 74, 32
16, 65729, Note_on_c, 11, 74, 0
16, 65760, Note_on_c, 11, 76, 32
16, 65849, Note_on_c, 11, 76, 0
16, 65880, Note_on_c, 11, 77, 32
16, 65969, Note_on_c, 11, 77, 0
16, 66000, Note_on_c, 11, 79, 32
16, 66089, Note_on_c, 11, 79, 0
16, 66120, Note_on_c, 11, 81, 32
16, 66209, Note_on_c, 11, 81, 0
16, 66240, Note_on_c, 11, 82, 32
16, 66329, Note_on_c, 11, 82, 0
16, 66360, Note_on_c, 11, 81, 32
16, 66449, Note_on_c, 11, 81, 0
16, 66480, Note_on_c, 11, 79, 32
16, 66569, Note_on_c, 11, 79, 0
16, 66600, Note_on_c, 11, 77, 32
16, 66689, Note_on_c, 11, 77, 0
16, 66720, Note_on_c, 11, 76, 32
16, 66809, Note_on_c, 11, 76, 0
16, 66840, Note_on_c, 11, 74, 32
16, 66929, Note_on_c, 11, 74, 0
16, 66960, Note_on_c, 11, 73, 32
16, 67049, Note_on_c, 11, 73, 0
16, 67080, Note_on_c, 11, 74, 33
16, 67169, Note_on_c, 11, 74, 0
16, 67200, Note_on_c, 11, 76, 35
16, 67289, Note_on_c, 11, 76, 0
16, 67320, Note_on_c, 11, 74, 37
16, 67409, Note_on_c, 11, 74, 0
16, 67440, Note_on_c, 11, 73, 38
16, 67529, Note_on_c, 11, 73, 0
16, 67560, Note_on_c, 11, 74, 40
16, 67649, Note_on_c, 11, 74, 0
16, 67680, Note_on_c, 11, 73, 42
16, 67769, Note_on_c, 11, 73, 0
16, 67800, Note_on_c, 11, 74, 43
16, 67889, Note_on_c, 11, 74, 0
16, 67920, Note_on_c, 11, 76, 45
16, 68009, Note_on_c, 11, 76, 0
16, 68040, Note_on_c, 11, 74, 47
16, 68129, Note_on_c, 11, 74, 0
16, 68160, Note_on_c, 11, 73, 48
16, 68249, Note_on_c, 11, 73, 0
16, 68280, Note_on_c, 11, 74, 50
16, 68369, Note_on_c, 11, 74, 0
16, 68400, Note_on_c, 11, 73, 52
16, 68489, Note_on_c, 11, 73, 0
16, 68520, Note_on_c, 11, 74, 53
16, 68609, Note_on_c, 11, 74, 0
16, 68640, Note_on_c, 11, 76, 55
16, 68729, Note_on_c, 11, 76, 0
16, 68760, Note_on_c, 11, 74, 57
16, 68849, Note_on_c, 11, 74, 0
16, 68880, Note_on_c, 11, 73, 58
16, 68969, Note_on_c, 11, 73, 0
16, 69000, Note_on_c, 11, 74, 60
16, 69089, Note_on_c, 11, 74, 0
16, 69120, Note_on_c, 11, 76, 62
16, 69209, Note_on_c, 11, 76, 0
16, 69240, Note_on_c, 11, 77, 63
16, 69329, Note_on_c, 11, 77, 0
16, 69360, Note_on_c, 11, 79, 65
16, 69449, Note_on_c, 11, 79, 0
16, 69480, Note_on_c, 11, 77, 67
16, 69569, Note_on_c, 11, 77, 0
16, 69600, Note_on_c, 11, 76, 68
16, 69689, Note_on_c, 11, 76, 0
16, 69720, Note_on_c, 11, 77, 70
16, 69809, Note_on_c, 11, 77, 0
16, 69840, Note_on_c, 11, 76, 72
16, 69929, Note_on_c, 11, 76, 0
16, 69960, Note_on_c, 11, 77, 73
16, 70049, Note_on_c, 11, 77, 0
16, 70080, Note_on_c, 11, 79, 75
16, 70169, Note_on_c, 11, 79, 0
16, 70200, Note_on_c, 11, 77, 77
16, 70289, Note_on_c, 11, 77, 0
16, 70320, Note_on_c, 11, 76, 78
16, 70409, Note_on_c, 11, 76, 0
16, 70440, Note_on_c, 11, 77, 80
16, 70529, Note_on_c, 11, 77, 0
16, 70560, Note_on_c, 11, 76, 82
16, 70649, Note_on_c, 11, 76, 0
16, 70680, Note_on_c, 11, 77, 83
16, 70769, Note_on_c, 11, 77, 0
16, 70800, Note_on_c, 11, 79, 85
16, 70889, Note_on_c, 11, 79, 0
16, 70920, Note_on_c, 11, 81, 87
16, 71084, Note_on_c, 11, 81, 0
16, 71100, Note_on_c, 11, 69, 89
16, 71144, Note_on_c, 11, 69, 0
16, 71160, Note_on_c, 11, 69, 90
16, 71264, Note_on_c, 11, 69, 0
16, 71280, Note_on_c, 11, 62, 92
16, 71280, Note_on_c, 11, 81, 92
16, 71280, Note_on_c, 11, 69, 92
16, 71399, Note_on_c, 11, 62, 0
16, 71399, Note_on_c, 11, 69, 0
16, 71444, Note_on_c, 11, 81, 0
16, 71460, Note_on_c, 11, 69, 92
16, 71504, Note_on_c, 11, 69, 0
16, 71520, Note_on_c, 11, 69, 92
16, 71624, Note_on_c, 11, 69, 0
16, 71640, Note_on_c, 11, 74, 92
16, 71744, Note_on_c, 11, 74, 0
16, 71760, Note_on_c, 11, 76, 92
16, 71864, Note_on_c, 11, 76, 0
16, 71880, Note_on_c, 11, 77, 92
16, 71984, Note_on_c, 11, 77, 0
16, 72000, Note_on_c, 11, 76, 92
16, 72104, Note_on_c, 11, 76, 0
16, 72120, Note_on_c, 11, 77, 92
16, 72224, Note_on_c, 11, 77, 0
16, 72240, Note_on_c, 11, 79, 92
16, 72344, Note_on_c, 11, 79, 0
16, 72360, Note_on_c, 11, 77, 92
16, 72464, Note_on_c, 11, 77, 0
16, 72480, Note_on_c, 11, 76, 92
16, 72584, Note_on_c, 11, 76, 0
16, 72600, Note_on_c, 11, 74, 92
16, 72704, Note_on_c, 11, 74, 0
16, 72720, Note_on_c, 11, 82, 80
16, 72824, Note_on_c, 11, 82, 0
16, 72840, Note_on_c, 11, 81, 80
16, 72944, Note_on_c, 11, 81, 0
16, 72960, Note_on_c, 11, 79, 80
16, 73064, Note_on_c, 11, 79, 0
16, 73080, Note_on_c, 11, 77, 80
16, 73184, Note_on_c, 11, 77, 0
16, 73200, Note_on_c, 11, 76, 80
16, 73304, Note_on_c, 11, 76, 0
16, 73320, Note_on_c, 11, 74, 80
16, 73424, Note_on_c, 11, 74, 0
16, 73440, Note_on_c, 11, 73, 80
16, 73544, Note_on_c, 11, 73, 0
16, 73560, Note_on_c, 11, 74, 80
16, 73664, Note_on_c, 11, 74, 0
16, 73680, Note_on_c, 11, 76, 80
16, 73784, Note_on_c, 11, 76, 0
16, 73800, Note_on_c, 11, 74, 80
16, 73904, Note_on_c, 11, 74, 0
16, 73920, Note_on_c, 11, 73, 80
16, 74024, Note_on_c, 11, 73, 0
16, 74040, Note_on_c, 11, 74, 80
16, 74144, Note_on_c, 11, 74, 0
16, 74160, Note_on_c, 11, 82, 80
16, 74264, Note_on_c, 11, 82, 0
16, 74280, Note_on_c, 11, 81, 80
16, 74384, Note_on_c, 11, 81, 0
16, 74400, Note_on_c, 11, 79, 80
16, 74504, Note_on_c, 11, 79, 0
16, 74520, Note_on_c, 11, 77, 80
16, 74624, Note_on_c, 11, 77, 0
16, 74640, Note_on_c, 11, 76, 80
16, 74744, Note_on_c, 11, 76, 0
16, 74760, Note_on_c, 11, 74, 80
16, 74864, Note_on_c, 11, 74, 0
16, 74880, Note_on_c, 11, 73, 80
16, 74984, Note_on_c, 11, 73, 0
16, 75000, Note_on_c, 11, 74, 80
16, 75104, Note_on_c, 11, 74, 0
16, 75120, Note_on_c, 11, 76, 80
16, 75224, Note_on_c, 11, 76, 0
16, 75240, Note_on_c, 11, 74, 80
16, 75344, Note_on_c, 11, 74, 0
16, 75360, Note_on_c, 11, 73, 80
16, 75464, Note_on_c, 11, 73, 0
16, 75480, Note_on_c, 11, 74, 80
16, 75584, Note_on_c, 11, 74, 0
16, 75600, Note_on_c, 11, 81, 80
16, 75704, Note_on_c, 11, 81, 0
16, 75720, Note_on_c, 11, 79, 80
16, 75824, Note_on_c, 11, 79, 0
16, 75840, Note_on_c, 11, 77, 80
16, 75944, Note_on_c, 11, 77, 0
16, 75960, Note_on_c, 11, 76, 80
16, 76064, Note_on_c, 11, 76, 0
16, 76080, Note_on_c, 11, 74, 80
16, 76184, Note_on_c, 11, 74, 0
16, 76200, Note_on_c, 11, 72, 80
16, 76304, Note_on_c, 11, 72, 0
16, 76320, Note_on_c, 11, 71, 80
16, 76424, Note_on_c, 11, 71, 0
16, 76440, Note_on_c, 11, 72, 80
16, 76544, Note_on_c, 11, 72, 0
16, 76560, Note_on_c, 11, 74, 80
16, 76664, Note_on_c, 11, 74, 0
16, 76680, Note_on_c, 11, 72, 80
16, 76784, Note_on_c, 11, 72, 0
16, 76800, Note_on_c, 11, 81, 80
16, 76904, Note_on_c, 11, 81, 0
16, 76920, Note_on_c, 11, 81, 80
16, 77024, Note_on_c, 11, 81, 0
16, 77040, Note_on_c, 11, 81, 80
16, 77144, Note_on_c, 11, 81, 0
16, 77160, Note_on_c, 11, 79, 80
16, 77264, Note_on_c, 11, 79, 0
16, 77280, Note_on_c, 11, 77, 80
16, 77384, Note_on_c, 11, 77, 0
16, 77400, Note_on_c, 11, 76, 80
16, 77504, Note_on_c, 11, 76, 0
16, 77520, Note_on_c, 11, 74, 80
16, 77624, Note_on_c, 11, 74, 0
16, 77640, Note_on_c, 11, 72, 80
16, 77744, Note_on_c, 11, 72, 0
16, 77760, Note_on_c, 11, 79, 80
16, 77864, Note_on_c, 11, 79, 0
16, 77880, Note_on_c, 11, 77, 80
16, 77984, Note_on_c, 11, 77, 0
16, 78000, Note_on_c, 11, 76, 80
16, 78104, Note_on_c, 11, 76, 0
16, 78120, Note_on_c, 11, 88, 80
16, 78224, Note_on_c, 11, 88, 0
16, 78240, Note_on_c, 11, 86, 80
16, 78344, Note_on_c, 11, 86, 0
16, 78360, Note_on_c, 11, 84, 80
16, 78464, Note_on_c, 11, 84, 0
16, 78480, Note_on_c, 11, 67, 80
16, 78480, Note_on_c, 11, 74, 80
16, 78480, Note_on_c, 11, 83, 80
16, 78599, Note_on_c, 11, 67, 0
16, 78599, Note_on_c, 11, 74, 0
16, 78599, Note_on_c, 11, 83, 0
16, 79080, Control_c, 11, 11, 87
16, 79200, Control_c, 11, 11, 87
16, 79200, Note_on_c, 11, 81, 68
16, 79230, Control_c, 11, 11, 88
16, 79260, Control_c, 11, 11, 89
16, 79290, Control_c, 11, 11, 90
16, 79320, Control_c, 11, 11, 91
16, 79350, Control_c, 11, 11, 93
16, 79364, Note_on_c, 11, 81, 0
16, 79380, Note_on_c, 11, 69, 68
16, 79380, Control_c, 11, 11, 94
16, 79410, Control_c, 11, 11, 95
16, 79424, Note_on_c, 11, 69, 0
16, 79440, Control_c, 11, 11, 96
16, 79440, Note_on_c, 11, 69, 68
16, 79470, Control_c, 11, 11, 97
16, 79500, Control_c, 11, 11, 98
16, 79530, Control_c, 11, 11, 99
16, 79544, Note_on_c, 11, 69, 0
16, 79560, Note_on_c, 11, 86, 68
16, 79560, Control_c, 11, 11, 100
16, 79590, Control_c, 11, 11, 101
16, 79620, Control_c, 11, 11, 103
16, 79650, Control_c, 11, 11, 104
16, 79680, Control_c, 11, 11, 105
16, 79710, Control_c, 11, 11, 106
16, 79724, Note_on_c, 11, 86, 0
16, 79740, Note_on_c, 11, 74, 68
16, 79740, Control_c, 11, 11, 107
16, 79770, Control_c, 11, 11, 108
16, 79784, Note_on_c, 11, 74, 0
16, 79800, Note_on_c, 11, 74, 68
16, 79800, Control_c, 11, 11, 109
16, 79830, Control_c, 11, 11, 110
16, 79860, Control_c, 11, 11, 111
16, 79890, Control_c, 11, 11, 113
16, 79904, Note_on_c, 11, 74, 0
16, 79920, Control_c, 11, 11, 114
16, 79920, Note_on_c, 11, 86, 68
16, 79950, Control_c, 11, 11, 115
16, 79980, Control_c, 11, 11, 116
16, 80010, Control_c, 11, 11, 117
16, 80040, Control_c, 11, 11, 118
16, 80070, Control_c, 11, 11, 119
16, 80084, Note_on_c, 11, 86, 0
16, 80100, Control_c, 11, 11, 120
16, 80100, Note_on_c, 11, 74, 68
16, 80130, Control_c, 11, 11, 121
16, 80144, Note_on_c, 11, 74, 0
16, 80160, Control_c, 11, 11, 123
16, 80160, Note_on_c, 11, 74, 68
16, 80190, Control_c, 11, 11, 124
16, 80220, Control_c, 11, 11, 125
16, 80250, Control_c, 11, 11, 127
16, 80264, Note_on_c, 11, 74, 0
16, 80280, Note_on_c, 11, 84, 68
16, 80444, Note_on_c, 11, 84, 0
16, 80460, Note_on_c, 11, 72, 68
16, 80460, Control_c, 11, 11, 127
16, 80485, Control_c, 11, 11, 126
16, 80504, Note_on_c, 11, 72, 0
16, 80510, Control_c, 11, 11, 125
16, 80520, Note_on_c, 11, 72, 68
16, 80535, Control_c, 11, 11, 124
16, 80560, Control_c, 11, 11, 123
16, 80585, Control_c, 11, 11, 121
16, 80610, Control_c, 11, 11, 120
16, 80624, Note_on_c, 11, 72, 0
16, 80635, Control_c, 11, 11, 119
16, 80640, Note_on_c, 11, 84, 68
16, 80660, Control_c, 11, 11, 118
16, 80685, Control_c, 11, 11, 117
16, 80710, Control_c, 11, 11, 116
16, 80735, Control_c, 11, 11, 115
16, 80760, Control_c, 11, 11, 114
16, 80785, Control_c, 11, 11, 113
16, 80804, Note_on_c, 11, 84, 0
16, 80810, Control_c, 11, 11, 111
16, 80820, Note_on_c, 11, 72, 68
16, 80835, Control_c, 11, 11, 110
16, 80860, Control_c, 11, 11, 109
16, 80864, Note_on_c, 11, 72, 0
16, 80880, Note_on_c, 11, 72, 68
16, 80885, Control_c, 11, 11, 108
16, 80910, Control_c, 11, 11, 107
16, 80935, Control_c, 11, 11, 106
16, 80960, Control_c, 11, 11, 105
16, 80984, Note_on_c, 11, 72, 0
16, 80985, Control_c, 11, 11, 104
16, 81000, Note_on_c, 11, 83, 68
16, 81010, Control_c, 11, 11, 103
16, 81035, Control_c, 11, 11, 101
16, 81060, Control_c, 11, 11, 100
16, 81085, Control_c, 11, 11, 99
16, 81110, Control_c, 11, 11, 98
16, 81135, Control_c, 11, 11, 97
16, 81160, Control_c, 11, 11, 96
16, 81164, Note_on_c, 11, 83, 0
16, 81180, Note_on_c, 11, 71, 68
16, 81185, Control_c, 11, 11, 95
16, 81210, Control_c, 11, 11, 94
16, 81224, Note_on_c, 11, 71, 0
16, 81235, Control_c, 11, 11, 93
16, 81240, Note_on_c, 11, 71, 68
16, 81260, Control_c, 11, 11, 91
16, 81285, Control_c, 11, 11, 90
16, 81310, Control_c, 11, 11, 89
16, 81335, Control_c, 11, 11, 87
16, 81359, Note_on_c, 11, 71, 0
16, 82395, Control_c, 11, 11, 59
16, 82440, Control_c, 11, 11, 60
16, 82440, Note_on_c, 11, 86, 92
16, 82485, Control_c, 11, 11, 62
16, 82530, Control_c, 11, 11, 64
16, 82575, Control_c, 11, 11, 65
16, 82604, Note_on_c, 11, 86, 0
16, 82620, Note_on_c, 11, 74, 92
16, 82620, Control_c, 11, 11, 67
16, 82664, Note_on_c, 11, 74, 0
16, 82665, Control_c, 11, 11, 69
16, 82680, Note_on_c, 11, 74, 92
16, 82710, Control_c, 11, 11, 70
16, 82755, Control_c, 11, 11, 72
16, 82784, Note_on_c, 11, 74, 0
16, 82800, Note_on_c, 11, 86, 92
16, 82800, Control_c, 11, 11, 74
16, 82845, Control_c, 11, 11, 75
16, 82890, Control_c, 11, 11, 77
16, 82935, Control_c, 11, 11, 79
16, 82964, Note_on_c, 11, 86, 0
16, 82980, Control_c, 11, 11, 80
16, 82980, Note_on_c, 11, 74, 92
16, 83024, Note_on_c, 11, 74, 0
16, 83025, Control_c, 11, 11, 82
16, 83040, Note_on_c, 11, 74, 92
16, 83070, Control_c, 11, 11, 84
16, 83115, Control_c, 11, 11, 85
16, 83144, Note_on_c, 11, 74, 0
16, 83160, Control_c, 11, 11, 87
16, 83160, Note_on_c, 11, 84, 92
16, 83205, Control_c, 11, 11, 89
16, 83250, Control_c, 11, 11, 90
16, 83295, Control_c, 11, 11, 92
16, 83324, Note_on_c, 11, 84, 0
16, 83340, Control_c, 11, 11, 94
16, 83340, Note_on_c, 11, 72, 92
16, 83384, Note_on_c, 11, 72, 0
16, 83385, Control_c, 11, 11, 95
16, 83400, Note_on_c, 11, 72, 92
16, 83430, Control_c, 11, 11, 97
16, 83475, Control_c, 11, 11, 99
16, 83504, Note_on_c, 11, 72, 0
16, 83520, Control_c, 11, 11, 100
16, 83520, Note_on_c, 11, 84, 92
16, 83565, Control_c, 11, 11, 102
16, 83610, Control_c, 11, 11, 104
16, 83655, Control_c, 11, 11, 105
16, 83684, Note_on_c, 11, 84, 0
16, 83700, Note_on_c, 11, 72, 92
16, 83700, Control_c, 11, 11, 107
16, 83744, Note_on_c, 11, 72, 0
16, 83745, Control_c, 11, 11, 109
16, 83760, Note_on_c, 11, 72, 92
16, 83790, Control_c, 11, 11, 110
16, 83835, Control_c, 11, 11, 112
16, 83864, Note_on_c, 11, 72, 0
16, 83880, Control_c, 11, 11, 114
16, 83880, Note_on_c, 11, 83, 92
16, 83925, Control_c, 11, 11, 115
16, 83970, Control_c, 11, 11, 117
16, 84015, Control_c, 11, 11, 119
16, 84044, Note_on_c, 11, 83, 0
16, 84060, Note_on_c, 11, 71, 92
16, 84060, Control_c, 11, 11, 120
16, 84104, Note_on_c, 11, 71, 0
16, 84105, Control_c, 11, 11, 122
16, 84120, Note_on_c, 11, 71, 92
16, 84150, Control_c, 11, 11, 124
16, 84195, Control_c, 11, 11, 127
16, 84224, Note_on_c, 11, 71, 0
16, 84240, Note_on_c, 11, 84, 92
16, 84404, Note_on_c, 11, 84, 0
16, 84420, Note_on_c, 11, 72, 92
16, 84464, Note_on_c, 11, 72, 0
16, 84480, Note_on_c, 11, 72, 92
16, 84584, Note_on_c, 11, 72, 0
16, 84600, Note_on_c, 11, 84, 92
16, 84764, Note_on_c, 11, 84, 0
16, 84780, Note_on_c, 11, 72, 92
16, 84824, Note_on_c, 11, 72, 0
16, 84840, Note_on_c, 11, 72, 92
16, 84944, Note_on_c, 11, 72, 0
16, 84960, Note_on_c, 11, 84, 92
16, 85124, Note_on_c, 11, 84, 0
16, 85140, Note_on_c, 11, 72, 92
16, 85184, Note_on_c, 11, 72, 0
16, 85200, Note_on_c, 11, 72, 92
16, 85304, Note_on_c, 11, 72, 0
16, 85320, Note_on_c, 11, 84, 92
16, 85484, Note_on_c, 11, 84, 0
16, 85500, Note_on_c, 11, 72, 92
16, 85544, Note_on_c, 11, 72, 0
16, 85560, Note_on_c, 11, 72, 92
16, 85664, Note_on_c, 11, 72, 0
16, 85680, Note_on_c, 11, 84, 92
16, 85844, Note_on_c, 11, 84, 0
16, 85860, Note_on_c, 11, 72, 92
16, 85904, Note_on_c, 11, 72, 0
16, 85920, Note_on_c, 11, 72, 92
16, 86024, Note_on_c, 11, 72, 0
16, 86040, Note_on_c, 11, 84, 92
16, 86204, Note_on_c, 11, 84, 0
16, 86220, Note_on_c, 11, 72, 92
16, 86264, Note_on_c, 11, 72, 0
16, 86280, Note_on_c, 11, 72, 92
16, 86384, Note_on_c, 11, 72, 0
16, 86400, Note_on_c, 11, 84, 92
16, 86564, Note_on_c, 11, 84, 0
16, 86580, Note_on_c, 11, 72, 92
16, 86624, Note_on_c, 11, 72, 0
16, 86640, Note_on_c, 11, 72, 92
16, 86744, Note_on_c, 11, 72, 0
16, 86760, Note_on_c, 11, 84, 92
16, 86924, Note_on_c, 11, 84, 0
16, 86940, Note_on_c, 11, 72, 92
16, 86984, Note_on_c, 11, 72, 0
16, 87000, Note_on_c, 11, 72, 92
16, 87104, Note_on_c, 11, 72, 0
16, 87120, Note_on_c, 11, 84, 92
16, 87284, Note_on_c, 11, 84, 0
16, 87300, Note_on_c, 11, 72, 92
16, 87344, Note_on_c, 11, 72, 0
16, 87360, Note_on_c, 11, 72, 92
16, 87464, Note_on_c, 11, 72, 0
16, 87480, Note_on_c, 11, 84, 92
16, 87644, Note_on_c, 11, 84, 0
16, 87660, Note_on_c, 11, 72, 92
16, 87704, Note_on_c, 11, 72, 0
16, 87720, Note_on_c, 11, 72, 92
16, 87824, Note_on_c, 11, 72, 0
16, 87840, Note_on_c, 11, 84, 92
16, 88004, Note_on_c, 11, 84, 0
16, 88020, Note_on_c, 11, 72, 92
16, 88064, Note_on_c, 11, 72, 0
16, 88080, Note_on_c, 11, 72, 92
16, 88184, Note_on_c, 11, 72, 0
16, 88200, Note_on_c, 11, 84, 92
16, 88364, Note_on_c, 11, 84, 0
16, 88380, Note_on_c, 11, 72, 92
16, 88424, Note_on_c, 11, 72, 0
16, 88440, Note_on_c, 11, 72, 92
16, 88544, Note_on_c, 11, 72, 0
16, 88560, Note_on_c, 11, 84, 92
16, 88724, Note_on_c, 11, 84, 0
16, 88740, Note_on_c, 11, 72, 92
16, 88784, Note_on_c, 11, 72, 0
16, 88800, Note_on_c, 11, 72, 92
16, 88904, Note_on_c, 11, 72, 0
16, 88920, Note_on_c, 11, 84, 92
16, 89084, Note_on_c, 11, 84, 0
16, 89100, Note_on_c, 11, 72, 92
16, 89144, Note_on_c, 11, 72, 0
16, 89160, Note_on_c, 11, 72, 92
16, 89264, Note_on_c, 11, 72, 0
16, 89280, Note_on_c, 11, 84, 92
16, 89444, Note_on_c, 11, 84, 0
16, 89460, Note_on_c, 11, 72, 92
16, 89504, Note_on_c, 11, 72, 0
16, 89520, Note_on_c, 11, 72, 92
16, 89624, Note_on_c, 11, 72, 0
16, 89640, Note_on_c, 11, 84, 92
16, 89804, Note_on_c, 11, 84, 0
16, 89820, Note_on_c, 11, 72, 92
16, 89864, Note_on_c, 11, 72, 0
16, 89880, Note_on_c, 11, 72, 92
16, 89984, Note_on_c, 11, 72, 0
16, 90000, Note_on_c, 11, 84, 92
16, 90119, Note_on_c, 11, 84, 0
16, 90720, Note_on_c, 11, 81, 92
16, 90884, Note_on_c, 11, 81, 0
16, 90900, Note_on_c, 11, 69, 92
16, 90944, Note_on_c, 11, 69, 0
16, 90960, Note_on_c, 11, 69, 92
16, 91064, Note_on_c, 11, 69, 0
16, 91080, Note_on_c, 11, 81, 92
16, 91169, Note_on_c, 11, 81, 0
16, 91200, Note_on_c, 11, 77, 92
16, 91289, Note_on_c, 11, 77, 0
16, 91320, Note_on_c, 11, 76, 92
16, 91409, Note_on_c, 11, 76, 0
16, 91440, Note_on_c, 11, 74, 92
16, 91559, Note_on_c, 11, 74, 0
16, 92160, Note_on_c, 11, 79, 92
16, 92324, Note_on_c, 11, 79, 0
16, 92340, Note_on_c, 11, 67, 92
16, 92384, Note_on_c, 11, 67, 0
16, 92400, Note_on_c, 11, 67, 92
16, 92504, Note_on_c, 11, 67, 0
16, 92520, Note_on_c, 11, 79, 92
16, 92609, Note_on_c, 11, 79, 0
16, 92640, Note_on_c, 11, 76, 92
16, 92729, Note_on_c, 11, 76, 0
16, 92760, Note_on_c, 11, 74, 92
16, 92849, Note_on_c, 11, 74, 0
16, 92878, Control_c, 11, 11, 87
16, 92880, Note_on_c, 11, 72, 68
16, 93359, Note_on_c, 11, 72, 0
16, 93360, Note_on_c, 11, 74, 68
16, 93479, Note_on_c, 11, 74, 0
16, 93480, Note_on_c, 11, 76, 68
16, 93599, Note_on_c, 11, 76, 0
16, 93600, Control_c, 11, 11, 87
16, 93600, Note_on_c, 11, 77, 68
16, 93630, Control_c, 11, 11, 89
16, 93660, Control_c, 11, 11, 90
16, 93690, Control_c, 11, 11, 92
16, 93720, Control_c, 11, 11, 94
16, 93750, Control_c, 11, 11, 95
16, 93780, Control_c, 11, 11, 97
16, 93810, Control_c, 11, 11, 99
16, 93840, Control_c, 11, 11, 100
16, 93870, Control_c, 11, 11, 102
16, 93900, Control_c, 11, 11, 104
16, 93930, Control_c, 11, 11, 105
16, 93959, Note_on_c, 11, 77, 0
16, 93960, Control_c, 11, 11, 107
16, 93960, Note_on_c, 11, 76, 68
16, 93990, Control_c, 11, 11, 109
16, 94020, Control_c, 11, 11, 110
16, 94050, Control_c, 11, 11, 112
16, 94080, Control_c, 11, 11, 114
16, 94110, Control_c, 11, 11, 115
16, 94140, Control_c, 11, 11, 117
16, 94170, Control_c, 11, 11, 119
16, 94200, Control_c, 11, 11, 120
16, 94230, Control_c, 11, 11, 122
16, 94260, Control_c, 11, 11, 124
16, 94290, Control_c, 11, 11, 125
16, 94304, Note_on_c, 11, 76, 0
16, 94320, Control_c, 11, 11, 127
16, 94320, Note_on_c, 11, 76, 68
16, 94350, Control_c, 11, 11, 125
16, 94380, Control_c, 11, 11, 124
16, 94410, Control_c, 11, 11, 122
16, 94440, Control_c, 11, 11, 120
16, 94470, Control_c, 11, 11, 119
16, 94500, Control_c, 11, 11, 117
16, 94530, Control_c, 11, 11, 115
16, 94560, Control_c, 11, 11, 114
16, 94590, Control_c, 11, 11, 112
16, 94620, Control_c, 11, 11, 110
16, 94650, Control_c, 11, 11, 109
16, 94680, Control_c, 11, 11, 107
16, 94710, Control_c, 11, 11, 105
16, 94740, Control_c, 11, 11, 104
16, 94770, Control_c, 11, 11, 102
16, 94799, Note_on_c, 11, 76, 0
16, 94800, Note_on_c, 11, 74, 68
16, 94800, Control_c, 11, 11, 100
16, 94830, Control_c, 11, 11, 99
16, 94860, Control_c, 11, 11, 97
16, 94890, Control_c, 11, 11, 95
16, 94919, Note_on_c, 11, 74, 0
16, 94920, Note_on_c, 11, 72, 68
16, 94920, Control_c, 11, 11, 94
16, 94950, Control_c, 11, 11, 92
16, 94980, Control_c, 11, 11, 90
16, 95010, Control_c, 11, 11, 87
16, 95039, Note_on_c, 11, 72, 0
16, 96840, Control_c, 11, 11, 127
16, 97200, Note_on_c, 11, 88, 80
16, 97289, Note_on_c, 11, 88, 0
16, 97320, Note_on_c, 11, 84, 80
16, 97409, Note_on_c, 11, 84, 0
16, 97440, Note_on_c, 11, 89, 80
16, 97529, Note_on_c, 11, 89, 0
16, 97560, Note_on_c, 11, 86, 80
16, 97649, Note_on_c, 11, 86, 0
16, 97680, Note_on_c, 11, 83, 80
16, 97769, Note_on_c, 11, 83, 0
16, 97800, Note_on_c, 11, 88, 80
16, 97889, Note_on_c, 11, 88, 0
16, 97920, Note_on_c, 11, 84, 80
16, 98039, Note_on_c, 11, 84, 0
16, 98640, Note_on_c, 11, 88, 80
16, 98729, Note_on_c, 11, 88, 0
16, 98760, Note_on_c, 11, 84, 80
16, 98849, Note_on_c, 11, 84, 0
16, 98880, Note_on_c, 11, 89, 80
16, 98969, Note_on_c, 11, 89, 0
16, 99000, Note_on_c, 11, 86, 80
16, 99089, Note_on_c, 11, 86, 0
16, 99120, Note_on_c, 11, 83, 80
16, 99209, Note_on_c, 11, 83, 0
16, 99240, Note_on_c, 11, 88, 80
16, 99329, Note_on_c, 11, 88, 0
16, 99360, Note_on_c, 11, 84, 80
16, 99524, Note_on_c, 11, 84, 0
16, 99540, Note_on_c, 11, 72, 80
16, 99584, Note_on_c, 11, 72, 0
16, 99600, Note_on_c, 11, 72, 80
16, 99704, Note_on_c, 11, 72, 0
16, 99720, Note_on_c, 11, 67, 80
16, 99839, Note_on_c, 11, 67, 0
16, 100080, Note_on_c, 11, 84, 80
16, 100244, Note_on_c, 11, 84, 0
16, 100260, Note_on_c, 11, 72, 80
16, 100304, Note_on_c, 11, 72, 0
16, 100320, Note_on_c, 11, 72, 80
16, 100424, Note_on_c, 11, 72, 0
16, 100440, Note_on_c, 11, 67, 80
16, 100559, Note_on_c, 11, 67, 0
16, 100800, Note_on_c, 11, 77, 32
16, 100919, Note_on_c, 11, 77, 0
16, 100920, Note_on_c, 11, 76, 32
16, 101039, Note_on_c, 11, 76, 0
16, 101040, Note_on_c, 11, 74, 32
16, 101159, Note_on_c, 11, 74, 0
16, 101160, Note_on_c, 11, 72, 32
16, 101279, Note_on_c, 11, 72, 0
16, 101280, Note_on_c, 11, 71, 32
16, 101399, Note_on_c, 11, 71, 0
16, 101400, Note_on_c, 11, 69, 32
16, 101519, Note_on_c, 11, 69, 0
16, 101520, Note_on_c, 11, 67, 32
16, 101639, Note_on_c, 11, 67, 0
16, 101640, Note_on_c, 11, 69, 32
16, 101759, Note_on_c, 11, 69, 0
16, 101760, Note_on_c, 11, 67, 32
16, 101879, Note_on_c, 11, 67, 0
16, 101880, Note_on_c, 11, 65, 32
16, 101999, Note_on_c, 11, 65, 0
16, 102000, Note_on_c, 11, 64, 32
16, 102119, Note_on_c, 11, 64, 0
16, 102120, Note_on_c, 11, 62, 32
16, 102179, Note_on_c, 11, 62, 0
16, 102180, Note_on_c, 11, 71, 32
16, 102224, Note_on_c, 11, 71, 0
16, 102240, Note_on_c, 11, 72, 32
16, 102404, Note_on_c, 11, 72, 0
16, 102420, Note_on_c, 11, 60, 32
16, 102464, Note_on_c, 11, 60, 0
16, 102480, Note_on_c, 11, 60, 32
16, 102584, Note_on_c, 11, 60, 0
16, 102600, Note_on_c, 11, 60, 32
16, 102719, Note_on_c, 11, 60, 0
16, 102960, Note_on_c, 11, 72, 32
16, 103124, Note_on_c, 11, 72, 0
16, 103140, Note_on_c, 11, 60, 32
16, 103184, Note_on_c, 11, 60, 0
16, 103200, Note_on_c, 11, 60, 32
16, 103304, Note_on_c, 11, 60, 0
16, 103320, Note_on_c, 11, 62, 32
16, 103439, Note_on_c, 11, 62, 0
16, 105120, Note_on_c, 11, 74, 32
16, 105284, Note_on_c, 11, 74, 0
16, 105300, Note_on_c, 11, 62, 32
16, 105344, Note_on_c, 11, 62, 0
16, 105360, Note_on_c, 11, 62, 32
16, 105464, Note_on_c, 11, 62, 0
16, 105480, Note_on_c, 11, 62, 32
16, 105599, Note_on_c, 11, 62, 0
16, 105840, Note_on_c, 11, 74, 32
16, 106004, Note_on_c, 11, 74, 0
16, 106020, Note_on_c, 11, 62, 32
16, 106064, Note_on_c, 11, 62, 0
16, 106080, Note_on_c, 11, 62, 32
16, 106184, Note_on_c, 11, 62, 0
16, 106200, Note_on_c, 11, 63, 32
16, 106319, Note_on_c, 11, 63, 0
16, 108000, Note_on_c, 11, 75, 32
16, 108164, Note_on_c, 11, 75, 0
16, 108180, Note_on_c, 11, 63, 34
16, 108224, Note_on_c, 11, 63, 0
16, 108240, Note_on_c, 11, 63, 34
16, 108344, Note_on_c, 11, 63, 0
16, 108360, Note_on_c, 11, 63, 36
16, 108479, Note_on_c, 11, 63, 0
16, 108720, Note_on_c, 11, 75, 40
16, 108884, Note_on_c, 11, 75, 0
16, 108900, Note_on_c, 11, 63, 42
16, 108944, Note_on_c, 11, 63, 0
16, 108960, Note_on_c, 11, 63, 42
16, 109064, Note_on_c, 11, 63, 0
16, 109080, Note_on_c, 11, 65, 44
16, 109199, Note_on_c, 11, 65, 0
16, 109440, Note_on_c, 11, 77, 48
16, 109604, Note_on_c, 11, 77, 0
16, 109620, Note_on_c, 11, 65, 50
16, 109664, Note_on_c, 11, 65, 0
16, 109680, Note_on_c, 11, 65, 50
16, 109784, Note_on_c, 11, 65, 0
16, 109800, Note_on_c, 11, 65, 52
16, 109919, Note_on_c, 11, 65, 0
16, 110160, Note_on_c, 11, 78, 56
16, 110324, Note_on_c, 11, 78, 0
16, 110340, Note_on_c, 11, 66, 58
16, 110384, Note_on_c, 11, 66, 0
16, 110400, Note_on_c, 11, 66, 58
16, 110504, Note_on_c, 11, 66, 0
16, 110520, Note_on_c, 11, 66, 60
16, 110639, Note_on_c, 11, 66, 0
16, 110880, Note_on_c, 11, 78, 64
16, 111044, Note_on_c, 11, 78, 0
16, 111060, Note_on_c, 11, 66, 66
16, 111104, Note_on_c, 11, 66, 0
16, 111120, Note_on_c, 11, 66, 66
16, 111224, Note_on_c, 11, 66, 0
16, 111240, Note_on_c, 11, 68, 68
16, 111359, Note_on_c, 11, 68, 0
16, 111600, Note_on_c, 11, 80, 72
16, 111764, Note_on_c, 11, 80, 0
16, 111780, Note_on_c, 11, 68, 74
16, 111824, Note_on_c, 11, 68, 0
16, 111840, Note_on_c, 11, 68, 74
16, 111944, Note_on_c, 11, 68, 0
16, 111960, Note_on_c, 11, 68, 76
16, 112079, Note_on_c, 11, 68, 0
16, 112320, Note_on_c, 11, 81, 80
16, 112484, Note_on_c, 11, 81, 0
16, 112500, Note_on_c, 11, 69, 80
16, 112544, Note_on_c, 11, 69, 0
16, 112560, Note_on_c, 11, 69, 80
16, 112664, Note_on_c, 11, 69, 0
16, 113040, Note_on_c, 11, 82, 92
16, 113204, Note_on_c, 11, 82, 0
16, 113220, Note_on_c, 11, 70, 92
16, 113264, Note_on_c, 11, 70, 0
16, 113280, Note_on_c, 11, 70, 92
16, 113384, Note_on_c, 11, 70, 0
16, 113760, Note_on_c, 11, 83, 92
16, 113924, Note_on_c, 11, 83, 0
16, 113940, Note_on_c, 11, 71, 92
16, 113984, Note_on_c, 11, 71, 0
16, 114000, Note_on_c, 11, 71, 92
16, 114104, Note_on_c, 11, 71, 0
16, 114840, Program_c, 11, 45
16, 115200, Note_on_c, 11, 64, 40
16, 115319, Note_on_c, 11, 64, 0
16, 115560, Note_on_c, 11, 59, 40
16, 115679, Note_on_c, 11, 59, 0
16, 116280, Note_on_c, 11, 64, 40
16, 116399, Note_on_c, 11, 64, 0
16, 116640, Note_on_c, 11, 59, 40
16, 116759, Note_on_c, 11, 59, 0
16, 117360, Note_on_c, 11, 64, 40
16, 117479, Note_on_c, 11, 64, 0
16, 117720, Note_on_c, 11, 59, 40
16, 117839, Note_on_c, 11, 59, 0
16, 118440, Note_on_c, 11, 76, 40
16, 118559, Note_on_c, 11, 76, 0
16, 118800, Note_on_c, 11, 64, 40
16, 118919, Note_on_c, 11, 64, 0
16, 119520, Note_on_c, 11, 69, 40
16, 119639, Note_on_c, 11, 69, 0
16, 119880, Note_on_c, 11, 64, 40
16, 119999, Note_on_c, 11, 64, 0
16, 120600, Note_on_c, 11, 69, 40
16, 120719, Note_on_c, 11, 69, 0
16, 120960, Note_on_c, 11, 64, 40
16, 121079, Note_on_c, 11, 64, 0
16, 121680, Note_on_c, 11, 77, 40
16, 121799, Note_on_c, 11, 77, 0
16, 122040, Note_on_c, 11, 65, 40
16, 122159, Note_on_c, 11, 65, 0
16, 122760, Note_on_c, 11, 77, 40
16, 122879, Note_on_c, 11, 77, 0
16, 123120, Note_on_c, 11, 65, 40
16, 123239, Note_on_c, 11, 65, 0
16, 123840, Note_on_c, 11, 77, 40
16, 123959, Note_on_c, 11, 77, 0
16, 124200, Note_on_c, 11, 65, 40
16, 124319, Note_on_c, 11, 65, 0
16, 124920, Note_on_c, 11, 77, 40
16, 125039, Note_on_c, 11, 77, 0
16, 125280, Note_on_c, 11, 65, 40
16, 125399, Note_on_c, 11, 65, 0
16, 125640, Note_on_c, 11, 77, 40
16, 125759, Note_on_c, 11, 77, 0
16, 126000, Note_on_c, 11, 65, 40
16, 126119, Note_on_c, 11, 65, 0
16, 126360, Note_on_c, 11, 77, 40
16, 126479, Note_on_c, 11, 77, 0
16, 126600, Program_c, 11, 48
16, 126720, Note_on_c, 11, 76, 44
16, 126824, Note_on_c, 11, 76, 0
16, 126840, Note_on_c, 11, 77, 44
16, 126944, Note_on_c, 11, 77, 0
16, 126960, Note_on_c, 11, 79, 44
16, 127064, Note_on_c, 11, 79, 0
16, 127080, Note_on_c, 11, 79, 43
16, 127184, Note_on_c, 11, 79, 0
16, 127200, Note_on_c, 11, 77, 43
16, 127304, Note_on_c, 11, 77, 0
16, 127320, Note_on_c, 11, 76, 43
16, 127424, Note_on_c, 11, 76, 0
16, 127440, Note_on_c, 11, 76, 42
16, 127544, Note_on_c, 11, 76, 0
16, 127560, Note_on_c, 11, 77, 42
16, 127664, Note_on_c, 11, 77, 0
16, 127680, Note_on_c, 11, 76, 42
16, 127784, Note_on_c, 11, 76, 0
16, 127798, Program_c, 11, 45
16, 127800, Note_on_c, 11, 74, 33
16, 127919, Note_on_c, 11, 74, 0
16, 128160, Note_on_c, 11, 62, 32
16, 128279, Note_on_c, 11, 62, 0
16, 128520, Note_on_c, 11, 74, 31
16, 128639, Note_on_c, 11, 74, 0
16, 128760, Program_c, 11, 48
16, 128880, Note_on_c, 11, 73, 38
16, 128984, Note_on_c, 11, 73, 0
16, 129000, Note_on_c, 11, 74, 38
16, 129104, Note_on_c, 11, 74, 0
16, 129120, Note_on_c, 11, 76, 38
16, 129224, Note_on_c, 11, 76, 0
16, 129240, Note_on_c, 11, 76, 37
16, 129344, Note_on_c, 11, 76, 0
16, 129360, Note_on_c, 11, 74, 37
16, 129464, Note_on_c, 11, 74, 0
16, 129480, Note_on_c, 11, 73, 37
16, 129584, Note_on_c, 11, 73, 0
16, 129600, Note_on_c, 11, 73, 36
16, 129704, Note_on_c, 11, 73, 0
16, 129720, Note_on_c, 11, 74, 36
16, 129824, Note_on_c, 11, 74, 0
16, 129840, Note_on_c, 11, 73, 36
16, 129944, Note_on_c, 11, 73, 0
16, 129958, Program_c, 11, 45
16, 130320, Note_on_c, 11, 69, 30
16, 130439, Note_on_c, 11, 69, 0
16, 130680, Note_on_c, 11, 81, 29
16, 130799, Note_on_c, 11, 81, 0
16, 130920, Program_c, 11, 48
16, 131040, Note_on_c, 11, 73, 32
16, 131144, Note_on_c, 11, 73, 0
16, 131160, Note_on_c, 11, 74, 32
16, 131264, Note_on_c, 11, 74, 0
16, 131280, Note_on_c, 11, 76, 32
16, 131384, Note_on_c, 11, 76, 0
16, 131400, Note_on_c, 11, 76, 32
16, 131504, Note_on_c, 11, 76, 0
16, 131520, Note_on_c, 11, 74, 32
16, 131624, Note_on_c, 11, 74, 0
16, 131640, Note_on_c, 11, 73, 32
16, 131744, Note_on_c, 11, 73, 0
16, 131760, Note_on_c, 11, 73, 32
16, 131864, Note_on_c, 11, 73, 0
16, 131880, Note_on_c, 11, 74, 32
16, 131984, Note_on_c, 11, 74, 0
16, 132000, Note_on_c, 11, 73, 32
16, 132104, Note_on_c, 11, 73, 0
16, 132120, Note_on_c, 11, 73, 32
16, 132224, Note_on_c, 11, 73, 0
16, 132240, Note_on_c, 11, 74, 32
16, 132344, Note_on_c, 11, 74, 0
16, 132360, Note_on_c, 11, 76, 32
16, 132464, Note_on_c, 11, 76, 0
16, 132480, Note_on_c, 11, 77, 32
16, 132599, Note_on_c, 11, 77, 0
16, 132720, Program_c, 11, 45
16, 132840, Note_on_c, 11, 57, 28
16, 132959, Note_on_c, 11, 57, 0
16, 133560, Note_on_c, 11, 62, 28
16, 133679, Note_on_c, 11, 62, 0
16, 133920, Note_on_c, 11, 57, 28
16, 134039, Note_on_c, 11, 57, 0
16, 134640, Note_on_c, 11, 62, 28
16, 134759, Note_on_c, 11, 62, 0
16, 135000, Note_on_c, 11, 57, 28
16, 135119, Note_on_c, 11, 57, 0
16, 137160, Program_c, 11, 48
16, 137520, Note_on_c, 11, 79, 32
16, 137684, Note_on_c, 11, 79, 0
16, 137700, Note_on_c, 11, 67, 32
16, 137744, Note_on_c, 11, 67, 0
16, 137760, Note_on_c, 11, 67, 32
16, 137864, Note_on_c, 11, 67, 0
16, 137880, Note_on_c, 11, 72, 32
16, 137984, Note_on_c, 11, 72, 0
16, 138000, Note_on_c, 11, 74, 32
16, 138104, Note_on_c, 11, 74, 0
16, 138120, Note_on_c, 11, 75, 32
16, 138224, Note_on_c, 11, 75, 0
16, 138240, Note_on_c, 11, 74, 32
16, 138344, Note_on_c, 11, 74, 0
16, 138360, Note_on_c, 11, 75, 32
16, 138464, Note_on_c, 11, 75, 0
16, 138480, Note_on_c, 11, 77, 32
16, 138584, Note_on_c, 11, 77, 0
16, 138600, Note_on_c, 11, 75, 32
16, 138704, Note_on_c, 11, 75, 0
16, 138720, Note_on_c, 11, 74, 32
16, 138824, Note_on_c, 11, 74, 0
16, 138840, Note_on_c, 11, 75, 32
16, 138944, Note_on_c, 11, 75, 0
16, 138960, Note_on_c, 11, 74, 32
16, 139064, Note_on_c, 11, 74, 0
16, 139080, Note_on_c, 11, 75, 32
16, 139184, Note_on_c, 11, 75, 0
16, 139200, Note_on_c, 11, 77, 32
16, 139304, Note_on_c, 11, 77, 0
16, 139320, Note_on_c, 11, 75, 32
16, 139424, Note_on_c, 11, 75, 0
16, 139440, Note_on_c, 11, 74, 32
16, 139544, Note_on_c, 11, 74, 0
16, 139560, Note_on_c, 11, 75, 32
16, 139664, Note_on_c, 11, 75, 0
16, 139680, Note_on_c, 11, 82, 32
16, 139844, Note_on_c, 11, 82, 0
16, 139860, Note_on_c, 11, 70, 32
16, 139904, Note_on_c, 11, 70, 0
16, 139920, Note_on_c, 11, 70, 32
16, 140024, Note_on_c, 11, 70, 0
16, 140040, Note_on_c, 11, 75, 32
16, 140144, Note_on_c, 11, 75, 0
16, 140160, Note_on_c, 11, 77, 32
16, 140264, Note_on_c, 11, 77, 0
16, 140280, Note_on_c, 11, 79, 32
16, 140384, Note_on_c, 11, 79, 0
16, 140400, Note_on_c, 11, 80, 32
16, 141824, Note_on_c, 11, 80, 0
16, 141840, Note_on_c, 11, 79, 32
16, 141929, Note_on_c, 11, 79, 0
16, 141960, Note_on_c, 11, 77, 32
16, 142049, Note_on_c, 11, 77, 0
16, 142080, Note_on_c, 11, 75, 32
16, 142169, Note_on_c, 11, 75, 0
16, 142200, Note_on_c, 11, 82, 32
16, 142289, Note_on_c, 11, 82, 0
16, 142320, Note_on_c, 11, 80, 32
16, 142409, Note_on_c, 11, 80, 0
16, 142440, Note_on_c, 11, 79, 32
16, 142529, Note_on_c, 11, 79, 0
16, 142560, Note_on_c, 11, 79, 32
16, 142649, Note_on_c, 11, 79, 0
16, 142680, Note_on_c, 11, 77, 32
16, 142769, Note_on_c, 11, 77, 0
16, 142800, Note_on_c, 11, 75, 32
16, 142889, Note_on_c, 11, 75, 0
16, 142920, Note_on_c, 11, 82, 32
16, 143009, Note_on_c, 11, 82, 0
16, 143040, Note_on_c, 11, 80, 32
16, 143129, Note_on_c, 11, 80, 0
16, 143160, Note_on_c, 11, 79, 32
16, 143249, Note_on_c, 11, 79, 0
16, 143278, Control_c, 11, 11, 47
16, 143280, Control_c, 11, 11, 47
16, 143280, Note_on_c, 11, 80, 80
16, 143352, Control_c, 11, 11, 48
16, 143424, Control_c, 11, 11, 49
16, 143496, Control_c, 11, 11, 50
16, 143568, Control_c, 11, 11, 51
16, 143640, Control_c, 11, 11, 52
16, 143712, Control_c, 11, 11, 53
16, 143784, Control_c, 11, 11, 54
16, 143856, Control_c, 11, 11, 55
16, 143928, Control_c, 11, 11, 56
16, 144000, Control_c, 11, 11, 57
16, 144072, Control_c, 11, 11, 58
16, 144144, Control_c, 11, 11, 59
16, 144216, Control_c, 11, 11, 60
16, 144288, Control_c, 11, 11, 61
16, 144360, Control_c, 11, 11, 62
16, 144432, Control_c, 11, 11, 63
16, 144504, Control_c, 11, 11, 64
16, 144576, Control_c, 11, 11, 65
16, 144648, Control_c, 11, 11, 66
16, 144704, Note_on_c, 11, 80, 0
16, 144720, Note_on_c, 11, 81, 80
16, 144720, Control_c, 11, 11, 67
16, 144750, Control_c, 11, 11, 68
16, 144780, Control_c, 11, 11, 70
16, 144810, Control_c, 11, 11, 71
16, 144840, Control_c, 11, 11, 72
16, 144870, Control_c, 11, 11, 73
16, 144900, Control_c, 11, 11, 75
16, 144930, Control_c, 11, 11, 76
16, 144960, Control_c, 11, 11, 77
16, 144990, Control_c, 11, 11, 78
16, 145020, Control_c, 11, 11, 80
16, 145050, Control_c, 11, 11, 81
16, 145080, Control_c, 11, 11, 82
16, 145110, Control_c, 11, 11, 83
16, 145140, Control_c, 11, 11, 85
16, 145170, Control_c, 11, 11, 86
16, 145200, Control_c, 11, 11, 87
16, 145230, Control_c, 11, 11, 88
16, 145260, Control_c, 11, 11, 90
16, 145290, Control_c, 11, 11, 91
16, 145320, Control_c, 11, 11, 92
16, 145350, Control_c, 11, 11, 93
16, 145380, Control_c, 11, 11, 95
16, 145410, Control_c, 11, 11, 96
16, 145424, Note_on_c, 11, 81, 0
16, 145440, Control_c, 11, 11, 97
16, 145440, Note_on_c, 11, 86, 80
16, 145470, Control_c, 11, 11, 98
16, 145500, Control_c, 11, 11, 100
16, 145530, Control_c, 11, 11, 101
16, 145560, Control_c, 11, 11, 102
16, 145590, Control_c, 11, 11, 103
16, 145620, Control_c, 11, 11, 105
16, 145650, Control_c, 11, 11, 106
16, 145680, Control_c, 11, 11, 107
16, 145710, Control_c, 11, 11, 108
16, 145740, Control_c, 11, 11, 110
16, 145770, Control_c, 11, 11, 111
16, 145800, Control_c, 11, 11, 112
16, 145830, Control_c, 11, 11, 113
16, 145860, Control_c, 11, 11, 115
16, 145890, Control_c, 11, 11, 116
16, 145920, Control_c, 11, 11, 117
16, 145950, Control_c, 11, 11, 118
16, 145980, Control_c, 11, 11, 120
16, 146010, Control_c, 11, 11, 121
16, 146040, Control_c, 11, 11, 122
16, 146070, Control_c, 11, 11, 123
16, 146100, Control_c, 11, 11, 125
16, 146130, Control_c, 11, 11, 127
16, 146144, Note_on_c, 11, 86, 0
16, 146160, Note_on_c, 11, 69, 80
16, 146160, Note_on_c, 11, 89, 80
16, 146279, Note_on_c, 11, 69, 0
16, 146279, Note_on_c, 11, 89, 0
16, 146880, Note_on_c, 11, 93, 86
16, 146880, Note_on_c, 11, 69, 86
16, 146999, Note_on_c, 11, 93, 0
16, 146999, Note_on_c, 11, 69, 0
16, 147600, Note_on_c, 11, 69, 92
16, 147600, Note_on_c, 11, 93, 92
16, 147764, Note_on_c, 11, 69, 0
16, 147764, Note_on_c, 11, 93, 0
16, 147780, Note_on_c, 11, 69, 92
16, 147824, Note_on_c, 11, 69, 0
16, 147840, Note_on_c, 11, 69, 92
16, 147944, Note_on_c, 11, 69, 0
16, 147960, Note_on_c, 11, 93, 92
16, 147960, Note_on_c, 11, 69, 92
16, 148124, Note_on_c, 11, 93, 0
16, 148124, Note_on_c, 11, 69, 0
16, 148140, Note_on_c, 11, 69, 92
16, 148184, Note_on_c, 11, 69, 0
16, 148200, Note_on_c, 11, 69, 92
16, 148304, Note_on_c, 11, 69, 0
16, 148320, Note_on_c, 11, 69, 92
16, 148320, Note_on_c, 11, 93, 92
16, 148484, Note_on_c, 11, 69, 0
16, 148484, Note_on_c, 11, 93, 0
16, 148500, Note_on_c, 11, 69, 92
16, 148544, Note_on_c, 11, 69, 0
16, 148560, Note_on_c, 11, 69, 92
16, 148664, Note_on_c, 11, 69, 0
16, 148680, Note_on_c, 11, 93, 92
16, 148680, Note_on_c, 11, 69, 92
16, 148844, Note_on_c, 11, 93, 0
16, 148844, Note_on_c, 11, 69, 0
16, 148860, Note_on_c, 11, 69, 92
16, 148904, Note_on_c, 11, 69, 0
16, 148920, Note_on_c, 11, 69, 92
16, 149024, Note_on_c, 11, 69, 0
16, 149040, Note_on_c, 11, 93, 92
16, 149040, Note_on_c, 11, 69, 92
16, 149204, Note_on_c, 11, 93, 0
16, 149204, Note_on_c, 11, 69, 0
16, 149220, Note_on_c, 11, 69, 92
16, 149264, Note_on_c, 11, 69, 0
16, 149280, Note_on_c, 11, 69, 92
16, 149384, Note_on_c, 11, 69, 0
16, 149400, Note_on_c, 11, 86, 92
16, 149489, Note_on_c, 11, 86, 0
16, 149520, Note_on_c, 11, 88, 92
16, 149609, Note_on_c, 11, 88, 0
16, 149640, Note_on_c, 11, 89, 92
16, 149729, Note_on_c, 11, 89, 0
16, 149760, Note_on_c, 11, 88, 92
16, 149849, Note_on_c, 11, 88, 0
16, 149880, Note_on_c, 11, 89, 92
16, 149969, Note_on_c, 11, 89, 0
16, 150000, Note_on_c, 11, 91, 92
16, 150089, Note_on_c, 11, 91, 0
16, 150120, Note_on_c, 11, 89, 92
16, 150209, Note_on_c, 11, 89, 0
16, 150240, Note_on_c, 11, 88, 92
16, 150329, Note_on_c, 11, 88, 0
16, 150360, Note_on_c, 11, 86, 92
16, 150449, Note_on_c, 11, 86, 0
16, 150480, Note_on_c, 11, 82, 92
16, 150569, Note_on_c, 11, 82, 0
16, 150600, Note_on_c, 11, 81, 92
16, 150689, Note_on_c, 11, 81, 0
16, 150720, Note_on_c, 11, 79, 92
16, 150809, Note_on_c, 11, 79, 0
16, 150840, Note_on_c, 11, 77, 92
16, 150929, Note_on_c, 11, 77, 0
16, 150960, Note_on_c, 11, 88, 92
16, 151049, Note_on_c, 11, 88, 0
16, 151080, Note_on_c, 11, 86, 92
16, 151169, Note_on_c, 11, 86, 0
16, 151200, Note_on_c, 11, 85, 92
16, 151289, Note_on_c, 11, 85, 0
16, 151320, Note_on_c, 11, 86, 92
16, 151409, Note_on_c, 11, 86, 0
16, 151440, Note_on_c, 11, 88, 92
16, 151529, Note_on_c, 11, 88, 0
16, 151560, Note_on_c, 11, 86, 92
16, 151649, Note_on_c, 11, 86, 0
16, 151680, Note_on_c, 11, 85, 92
16, 151769, Note_on_c, 11, 85, 0
16, 151800, Note_on_c, 11, 86, 92
16, 151889, Note_on_c, 11, 86, 0
16, 151920, Note_on_c, 11, 82, 92
16, 152009, Note_on_c, 11, 82, 0
16, 152040, Note_on_c, 11, 81, 92
16, 152129, Note_on_c, 11, 81, 0
16, 152160, Note_on_c, 11, 79, 92
16, 152249, Note_on_c, 11, 79, 0
16, 152280, Note_on_c, 11, 77, 92
16, 152369, Note_on_c, 11, 77, 0
16, 152400, Note_on_c, 11, 88, 92
16, 152489, Note_on_c, 11, 88, 0
16, 152520, Note_on_c, 11, 86, 92
16, 152609, Note_on_c, 11, 86, 0
16, 152640, Note_on_c, 11, 85, 92
16, 152729, Note_on_c, 11, 85, 0
16, 152760, Note_on_c, 11, 86, 92
16, 152849, Note_on_c, 11, 86, 0
16, 152880, Note_on_c, 11, 88, 92
16, 152969, Note_on_c, 11, 88, 0
16, 153000, Note_on_c, 11, 86, 92
16, 153089, Note_on_c, 11, 86, 0
16, 153120, Note_on_c, 11, 85, 92
16, 153209, Note_on_c, 11, 85, 0
16, 153240, Note_on_c, 11, 86, 92
16, 153329, Note_on_c, 11, 86, 0
16, 153360, Note_on_c, 11, 84, 92
16, 153449, Note_on_c, 11, 84, 0
16, 153480, Note_on_c, 11, 86, 92
16, 153569, Note_on_c, 11, 86, 0
16, 153600, Note_on_c, 11, 87, 92
16, 153689, Note_on_c, 11, 87, 0
16, 153720, Note_on_c, 11, 79, 92
16, 153809, Note_on_c, 11, 79, 0
16, 153840, Note_on_c, 11, 81, 92
16, 153929, Note_on_c, 11, 81, 0
16, 153960, Note_on_c, 11, 82, 92
16, 154049, Note_on_c, 11, 82, 0
16, 154080, Note_on_c, 11, 81, 92
16, 154169, Note_on_c, 11, 81, 0
16, 154200, Note_on_c, 11, 82, 92
16, 154289, Note_on_c, 11, 82, 0
16, 154320, Note_on_c, 11, 84, 92
16, 154409, Note_on_c, 11, 84, 0
16, 154440, Note_on_c, 11, 82, 92
16, 154529, Note_on_c, 11, 82, 0
16, 154560, Note_on_c, 11, 81, 92
16, 154649, Note_on_c, 11, 81, 0
16, 154680, Note_on_c, 11, 79, 92
16, 154769, Note_on_c, 11, 79, 0
16, 154800, Note_on_c, 11, 75, 80
16, 154889, Note_on_c, 11, 75, 0
16, 154920, Note_on_c, 11, 74, 80
16, 155009, Note_on_c, 11, 74, 0
16, 155040, Note_on_c, 11, 72, 80
16, 155129, Note_on_c, 11, 72, 0
16, 155160, Note_on_c, 11, 70, 80
16, 155249, Note_on_c, 11, 70, 0
16, 155280, Note_on_c, 11, 69, 80
16, 155369, Note_on_c, 11, 69, 0
16, 155400, Note_on_c, 11, 67, 80
16, 155489, Note_on_c, 11, 67, 0
16, 155520, Note_on_c, 11, 77, 80
16, 155609, Note_on_c, 11, 77, 0
16, 155640, Note_on_c, 11, 75, 80
16, 155729, Note_on_c, 11, 75, 0
16, 155760, Note_on_c, 11, 74, 80
16, 155849, Note_on_c, 11, 74, 0
16, 155880, Note_on_c, 11, 72, 80
16, 155969, Note_on_c, 11, 72, 0
16, 156000, Note_on_c, 11, 70, 80
16, 156089, Note_on_c, 11, 70, 0
16, 156120, Note_on_c, 11, 69, 80
16, 156209, Note_on_c, 11, 69, 0
16, 156240, Note_on_c, 11, 79, 80
16, 156329, Note_on_c, 11, 79, 0
16, 156360, Note_on_c, 11, 77, 80
16, 156449, Note_on_c, 11, 77, 0
16, 156480, Note_on_c, 11, 75, 80
16, 156569, Note_on_c, 11, 75, 0
16, 156600, Note_on_c, 11, 74, 80
16, 156689, Note_on_c, 11, 74, 0
16, 156720, Note_on_c, 11, 72, 80
16, 156809, Note_on_c, 11, 72, 0
16, 156840, Note_on_c, 11, 70, 80
16, 156929, Note_on_c, 11, 70, 0
16, 156960, Note_on_c, 11, 69, 80
16, 157049, Note_on_c, 11, 69, 0
16, 157080, Note_on_c, 11, 67, 80
16, 157169, Note_on_c, 11, 67, 0
16, 157200, Note_on_c, 11, 65, 80
16, 157289, Note_on_c, 11, 65, 0
16, 157320, Note_on_c, 11, 63, 80
16, 157409, Note_on_c, 11, 63, 0
16, 157440, Note_on_c, 11, 62, 80
16, 157529, Note_on_c, 11, 62, 0
16, 157560, Note_on_c, 11, 60, 80
16, 157649, Note_on_c, 11, 60, 0
16, 157680, Note_on_c, 11, 58, 80
16, 157769, Note_on_c, 11, 58, 0
16, 158400, Note_on_c, 11, 79, 44
16, 158564, Note_on_c, 11, 79, 0
16, 158580, Note_on_c, 11, 67, 48
16, 158624, Note_on_c, 11, 67, 0
16, 158640, Note_on_c, 11, 67, 49
16, 158744, Note_on_c, 11, 67, 0
16, 158760, Note_on_c, 11, 79, 52
16, 158924, Note_on_c, 11, 79, 0
16, 158940, Note_on_c, 11, 67, 56
16, 158984, Note_on_c, 11, 67, 0
16, 159000, Note_on_c, 11, 67, 57
16, 159104, Note_on_c, 11, 67, 0
16, 159120, Note_on_c, 11, 81, 60
16, 159284, Note_on_c, 11, 81, 0
16, 159300, Note_on_c, 11, 69, 64
16, 159344, Note_on_c, 11, 69, 0
16, 159360, Note_on_c, 11, 69, 65
16, 159464, Note_on_c, 11, 69, 0
16, 159480, Note_on_c, 11, 82, 68
16, 159644, Note_on_c, 11, 82, 0
16, 159660, Note_on_c, 11, 70, 64
16, 159704, Note_on_c, 11, 70, 0
16, 159720, Note_on_c, 11, 70, 63
16, 159824, Note_on_c, 11, 70, 0
16, 159840, Note_on_c, 11, 82, 60
16, 160004, Note_on_c, 11, 82, 0
16, 160020, Note_on_c, 11, 70, 56
16, 160064, Note_on_c, 11, 70, 0
16, 160080, Note_on_c, 11, 70, 55
16, 160184, Note_on_c, 11, 70, 0
16, 160200, Note_on_c, 11, 81, 52
16, 160364, Note_on_c, 11, 81, 0
16, 160380, Note_on_c, 11, 69, 48
16, 160424, Note_on_c, 11, 69, 0
16, 160440, Note_on_c, 11, 69, 47
16, 160544, Note_on_c, 11, 69, 0
16, 162000, Note_on_c, 11, 83, 50
16, 162164, Note_on_c, 11, 83, 0
16, 162180, Note_on_c, 11, 71, 53
16, 162224, Note_on_c, 11, 71, 0
16, 162240, Note_on_c, 11, 71, 54
16, 162344, Note_on_c, 11, 71, 0
16, 162360, Note_on_c, 11, 88, 56
16, 162524, Note_on_c, 11, 88, 0
16, 162540, Note_on_c, 11, 76, 59
16, 162584, Note_on_c, 11, 76, 0
16, 162600, Note_on_c, 11, 76, 60
16, 162704, Note_on_c, 11, 76, 0
16, 162720, Note_on_c, 11, 88, 62
16, 162884, Note_on_c, 11, 88, 0
16, 162900, Note_on_c, 11, 76, 65
16, 162944, Note_on_c, 11, 76, 0
16, 162960, Note_on_c, 11, 76, 66
16, 163064, Note_on_c, 11, 76, 0
16, 163080, Note_on_c, 11, 86, 68
16, 163244, Note_on_c, 11, 86, 0
16, 163260, Note_on_c, 11, 74, 64
16, 163304, Note_on_c, 11, 74, 0
16, 163320, Note_on_c, 11, 74, 63
16, 163424, Note_on_c, 11, 74, 0
16, 163440, Note_on_c, 11, 86, 60
16, 163604, Note_on_c, 11, 86, 0
16, 163620, Note_on_c, 11, 74, 56
16, 163664, Note_on_c, 11, 74, 0
16, 163680, Note_on_c, 11, 74, 55
16, 163784, Note_on_c, 11, 74, 0
16, 163800, Note_on_c, 11, 85, 52
16, 163964, Note_on_c, 11, 85, 0
16, 163980, Note_on_c, 11, 73, 48
16, 164024, Note_on_c, 11, 73, 0
16, 164040, Note_on_c, 11, 73, 47
16, 164144, Note_on_c, 11, 73, 0
16, 165240, Note_on_c, 11, 76, 56
16, 165404, Note_on_c, 11, 76, 0
16, 165420, Note_on_c, 11, 64, 59
16, 165464, Note_on_c, 11, 64, 0
16, 165480, Note_on_c, 11, 64, 60
16, 165584, Note_on_c, 11, 64, 0
16, 165600, Note_on_c, 11, 76, 62
16, 165764, Note_on_c, 11, 76, 0
16, 165780, Note_on_c, 11, 64, 65
16, 165824, Note_on_c, 11, 64, 0
16, 165840, Note_on_c, 11, 64, 66
16, 165944, Note_on_c, 11, 64, 0
16, 165960, Note_on_c, 11, 74, 68
16, 166124, Note_on_c, 11, 74, 0
16, 166140, Note_on_c, 11, 62, 64
16, 166184, Note_on_c, 11, 62, 0
16, 166200, Note_on_c, 11, 62, 63
16, 166304, Note_on_c, 11, 62, 0
16, 166320, Note_on_c, 11, 74, 60
16, 166484, Note_on_c, 11, 74, 0
16, 166500, Note_on_c, 11, 62, 56
16, 166544, Note_on_c, 11, 62, 0
16, 166560, Note_on_c, 11, 62, 55
16, 166664, Note_on_c, 11, 62, 0
16, 166680, Note_on_c, 11, 73, 52
16, 166844, Note_on_c, 11, 73, 0
16, 166860, Note_on_c, 11, 61, 48
16, 166904, Note_on_c, 11, 61, 0
16, 166920, Note_on_c, 11, 61, 47
16, 167024, Note_on_c, 11, 61, 0
16, 167040, Program_c, 11, 45
16, 167280, Note_on_c, 11, 69, 40
16, 167399, Note_on_c, 11, 69, 0
16, 167640, Note_on_c, 11, 81, 46
16, 167759, Note_on_c, 11, 81, 0
16, 168000, Note_on_c, 11, 78, 52
16, 168119, Note_on_c, 11, 78, 0
16, 168360, Note_on_c, 11, 79, 58
16, 168479, Note_on_c, 11, 79, 0
16, 168720, Note_on_c, 11, 76, 64
16, 168839, Note_on_c, 11, 76, 0
16, 169080, Note_on_c, 11, 78, 70
16, 169199, Note_on_c, 11, 78, 0
16, 169440, Note_on_c, 11, 81, 76
16, 169559, Note_on_c, 11, 81, 0
16, 169800, Note_on_c, 11, 85, 82
16, 169904, Note_on_c, 11, 85, 0
16, 169918, Program_c, 11, 48
16, 169920, Note_on_c, 11, 86, 92
16, 170084, Note_on_c, 11, 86, 0
16, 170100, Note_on_c, 11, 74, 92
16, 170144, Note_on_c, 11, 74, 0
16, 170160, Note_on_c, 11, 74, 92
16, 170264, Note_on_c, 11, 74, 0
16, 170280, Note_on_c, 11, 86, 92
16, 170444, Note_on_c, 11, 86, 0
16, 170460, Note_on_c, 11, 74, 92
16, 170504, Note_on_c, 11, 74, 0
16, 170520, Note_on_c, 11, 74, 92
16, 170624, Note_on_c, 11, 74, 0
16, 170640, Note_on_c, 11, 86, 92
16, 170804, Note_on_c, 11, 86, 0
16, 170820, Note_on_c, 11, 74, 92
16, 170864, Note_on_c, 11, 74, 0
16, 170880, Note_on_c, 11, 74, 92
16, 170984, Note_on_c, 11, 74, 0
16, 171000, Note_on_c, 11, 86, 92
16, 171164, Note_on_c, 11, 86, 0
16, 171180, Note_on_c, 11, 74, 92
16, 171224, Note_on_c, 11, 74, 0
16, 171240, Note_on_c, 11, 74, 92
16, 171344, Note_on_c, 11, 74, 0
16, 171360, Note_on_c, 11, 86, 92
16, 171524, Note_on_c, 11, 86, 0
16, 171540, Note_on_c, 11, 74, 92
16, 171584, Note_on_c, 11, 74, 0
16, 171600, Note_on_c, 11, 74, 92
16, 171704, Note_on_c, 11, 74, 0
16, 171720, Note_on_c, 11, 86, 92
16, 171884, Note_on_c, 11, 86, 0
16, 171900, Note_on_c, 11, 74, 92
16, 171944, Note_on_c, 11, 74, 0
16, 171960, Note_on_c, 11, 74, 92
16, 172064, Note_on_c, 11, 74, 0
16, 172080, Note_on_c, 11, 86, 92
16, 172244, Note_on_c, 11, 86, 0
16, 172260, Note_on_c, 11, 74, 92
16, 172304, Note_on_c, 11, 74, 0
16, 172320, Note_on_c, 11, 74, 92
16, 172424, Note_on_c, 11, 74, 0
16, 172440, Note_on_c, 11, 86, 92
16, 172604, Note_on_c, 11, 86, 0
16, 172620, Note_on_c, 11, 74, 92
16, 172664, Note_on_c, 11, 74, 0
16, 172680, Note_on_c, 11, 74, 92
16, 172784, Note_on_c, 11, 74, 0
16, 172800, Note_on_c, 11, 86, 92
16, 172964, Note_on_c, 11, 86, 0
16, 172980, Note_on_c, 11, 74, 92
16, 173024, Note_on_c, 11, 74, 0
16, 173040, Note_on_c, 11, 74, 92
16, 173144, Note_on_c, 11, 74, 0
16, 173160, Note_on_c, 11, 86, 92
16, 173324, Note_on_c, 11, 86, 0
16, 173340, Note_on_c, 11, 74, 92
16, 173384, Note_on_c, 11, 74, 0
16, 173400, Note_on_c, 11, 74, 92
16, 173504, Note_on_c, 11, 74, 0
16, 173520, Note_on_c, 11, 86, 92
16, 173684, Note_on_c, 11, 86, 0
16, 173700, Note_on_c, 11, 74, 92
16, 173744, Note_on_c, 11, 74, 0
16, 173760, Note_on_c, 11, 74, 92
16, 173864, Note_on_c, 11, 74, 0
16, 173880, Note_on_c, 11, 86, 92
16, 174044, Note_on_c, 11, 86, 0
16, 174060, Note_on_c, 11, 74, 92
16, 174104, Note_on_c, 11, 74, 0
16, 174120, Note_on_c, 11, 74, 92
16, 174224, Note_on_c, 11, 74, 0
16, 174240, Note_on_c, 11, 86, 92
16, 174404, Note_on_c, 11, 86, 0
16, 174420, Note_on_c, 11, 74, 92
16, 174464, Note_on_c, 11, 74, 0
16, 174480, Note_on_c, 11, 74, 92
16, 174584, Note_on_c, 11, 74, 0
16, 174600, Note_on_c, 11, 86, 92
16, 174764, Note_on_c, 11, 86, 0
16, 174780, Note_on_c, 11, 74, 92
16, 174824, Note_on_c, 11, 74, 0
16, 174840, Note_on_c, 11, 74, 92
16, 174944, Note_on_c, 11, 74, 0
16, 174960, Note_on_c, 11, 86, 92
16, 175124, Note_on_c, 11, 86, 0
16, 175140, Note_on_c, 11, 74, 92
16, 175184, Note_on_c, 11, 74, 0
16, 175200, Note_on_c, 11, 74, 92
16, 175304, Note_on_c, 11, 74, 0
16, 175320, Note_on_c, 11, 86, 92
16, 175484, Note_on_c, 11, 86, 0
16, 175500, Note_on_c, 11, 74, 92
16, 175544, Note_on_c, 11, 74, 0
16, 175560, Note_on_c, 11, 74, 92
16, 175664, Note_on_c, 11, 74, 0
16, 175680, Note_on_c, 11, 74, 92
16, 175680, Note_on_c, 11, 86, 92
16, 175799, Note_on_c, 11, 74, 0
16, 175799, Note_on_c, 11, 86, 0
16, 176400, Note_on_c, 11, 82, 92
16, 176564, Note_on_c, 11, 82, 0
16, 176580, Note_on_c, 11, 70, 92
16, 176624, Note_on_c, 11, 70, 0
16, 176640, Note_on_c, 11, 70, 92
16, 176744, Note_on_c, 11, 70, 0
16, 176760, Note_on_c, 11, 82, 92
16, 176864, Note_on_c, 11, 82, 0
16, 176880, Note_on_c, 11, 79, 92
16, 176984, Note_on_c, 11, 79, 0
16, 177000, Note_on_c, 11, 77, 92
16, 177104, Note_on_c, 11, 77, 0
16, 177120, Note_on_c, 11, 76, 92
16, 177239, Note_on_c, 11, 76, 0
16, 177840, Note_on_c, 11, 81, 92
16, 178004, Note_on_c, 11, 81, 0
16, 178020, Note_on_c, 11, 69, 92
16, 178064, Note_on_c, 11, 69, 0
16, 178080, Note_on_c, 11, 69, 92
16, 178184, Note_on_c, 11, 69, 0
16, 178200, Note_on_c, 11, 81, 92
16, 178304, Note_on_c, 11, 81, 0
16, 178320, Note_on_c, 11, 77, 92
16, 178424, Note_on_c, 11, 77, 0
16, 178440, Note_on_c, 11, 76, 92
16, 178544, Note_on_c, 11, 76, 0
16, 178558, Control_c, 11, 11, 87
16, 178560, Note_on_c, 11, 74, 68
16, 179039, Note_on_c, 11, 74, 0
16, 179040, Note_on_c, 11, 76, 68
16, 179159, Note_on_c, 11, 76, 0
16, 179160, Note_on_c, 11, 78, 68
16, 179264, Note_on_c, 11, 78, 0
16, 179280, Control_c, 11, 11, 87
16, 179280, Note_on_c, 11, 79, 68
16, 179315, Control_c, 11, 11, 89
16, 179350, Control_c, 11, 11, 90
16, 179385, Control_c, 11, 11, 92
16, 179420, Control_c, 11, 11, 94
16, 179455, Control_c, 11, 11, 95
16, 179490, Control_c, 11, 11, 97
16, 179525, Control_c, 11, 11, 99
16, 179560, Control_c, 11, 11, 100
16, 179595, Control_c, 11, 11, 102
16, 179624, Note_on_c, 11, 79, 0
16, 179630, Control_c, 11, 11, 104
16, 179640, Note_on_c, 11, 79, 68
16, 179665, Control_c, 11, 11, 105
16, 179700, Control_c, 11, 11, 107
16, 179735, Control_c, 11, 11, 109
16, 179770, Control_c, 11, 11, 110
16, 179805, Control_c, 11, 11, 112
16, 179840, Control_c, 11, 11, 114
16, 179875, Control_c, 11, 11, 115
16, 179910, Control_c, 11, 11, 117
16, 179945, Control_c, 11, 11, 119
16, 179980, Control_c, 11, 11, 120
16, 179984, Note_on_c, 11, 79, 0
16, 180000, Note_on_c, 11, 79, 68
16, 180015, Control_c, 11, 11, 122
16, 180050, Control_c, 11, 11, 124
16, 180085, Control_c, 11, 11, 125
16, 180240, Control_c, 11, 11, 127
16, 180267, Control_c, 11, 11, 125
16, 180293, Control_c, 11, 11, 123
16, 180320, Control_c, 11, 11, 120
16, 180347, Control_c, 11, 11, 118
16, 180373, Control_c, 11, 11, 116
16, 180400, Control_c, 11, 11, 114
16, 180427, Control_c, 11, 11, 111
16, 180453, Control_c, 11, 11, 109
16, 180479, Note_on_c, 11, 79, 0
16, 180480, Note_on_c, 11, 77, 68
16, 180480, Control_c, 11, 11, 107
16, 180507, Control_c, 11, 11, 105
16, 180533, Control_c, 11, 11, 103
16, 180560, Control_c, 11, 11, 100
16, 180587, Control_c, 11, 11, 98
16, 180599, Note_on_c, 11, 77, 0
16, 180600, Note_on_c, 11, 76, 68
16, 180613, Control_c, 11, 11, 96
16, 180640, Control_c, 11, 11, 94
16, 180667, Control_c, 11, 11, 91
16, 180693, Control_c, 11, 11, 89
16, 180719, Note_on_c, 11, 76, 0
16, 182520, Control_c, 11, 11, 127
16, 182880, Note_on_c, 11, 77, 80
16, 182969, Note_on_c, 11, 77, 0
16, 183000, Note_on_c, 11, 74, 80
16, 183089, Note_on_c, 11, 74, 0
16, 183120, Note_on_c, 11, 79, 80
16, 183209, Note_on_c, 11, 79, 0
16, 183240, Note_on_c, 11, 76, 80
16, 183329, Note_on_c, 11, 76, 0
16, 183360, Note_on_c, 11, 73, 80
16, 183449, Note_on_c, 11, 73, 0
16, 183480, Note_on_c, 11, 77, 80
16, 183569, Note_on_c, 11, 77, 0
16, 183600, Note_on_c, 11, 74, 80
16, 183689, Note_on_c, 11, 74, 0
16, 184320, Note_on_c, 11, 77, 80
16, 184409, Note_on_c, 11, 77, 0
16, 184440, Note_on_c, 11, 74, 80
16, 184529, Note_on_c, 11, 74, 0
16, 184560, Note_on_c, 11, 79, 80
16, 184649, Note_on_c, 11, 79, 0
16, 184680, Note_on_c, 11, 76, 80
16, 184769, Note_on_c, 11, 76, 0
16, 184800, Note_on_c, 11, 73, 80
16, 184889, Note_on_c, 11, 73, 0
16, 184920, Note_on_c, 11, 77, 80
16, 185009, Note_on_c, 11, 77, 0
16, 185040, Note_on_c, 11, 86, 80
16, 185204, Note_on_c, 11, 86, 0
16, 185220, Note_on_c, 11, 74, 80
16, 185264, Note_on_c, 11, 74, 0
16, 185280, Note_on_c, 11, 74, 80
16, 185384, Note_on_c, 11, 74, 0
16, 185400, Note_on_c, 11, 69, 80
16, 185519, Note_on_c, 11, 69, 0
16, 185760, Note_on_c, 11, 86, 80
16, 185924, Note_on_c, 11, 86, 0
16, 185940, Note_on_c, 11, 74, 80
16, 185984, Note_on_c, 11, 74, 0
16, 186000, Note_on_c, 11, 74, 80
16, 186104, Note_on_c, 11, 74, 0
16, 186120, Note_on_c, 11, 69, 80
16, 186239, Note_on_c, 11, 69, 0
16, 186480, Note_on_c, 11, 79, 32
16, 186599, Note_on_c, 11, 79, 0
16, 186600, Note_on_c, 11, 76, 32
16, 186719, Note_on_c, 11, 76, 0
16, 186720, Note_on_c, 11, 73, 32
16, 186839, Note_on_c, 11, 73, 0
16, 186840, Note_on_c, 11, 67, 32
16, 186959, Note_on_c, 11, 67, 0
16, 186960, Note_on_c, 11, 64, 32
16, 187079, Note_on_c, 11, 64, 0
16, 187080, Note_on_c, 11, 61, 32
16, 187199, Note_on_c, 11, 61, 0
16, 187200, Note_on_c, 11, 55, 32
16, 187319, Note_on_c, 11, 55, 0
16, 187320, Note_on_c, 11, 61, 32
16, 187439, Note_on_c, 11, 61, 0
16, 187440, Note_on_c, 11, 64, 32
16, 187559, Note_on_c, 11, 64, 0
16, 187560, Note_on_c, 11, 67, 32
16, 187679, Note_on_c, 11, 67, 0
16, 187680, Note_on_c, 11, 73, 32
16, 187799, Note_on_c, 11, 73, 0
16, 187800, Note_on_c, 11, 76, 32
16, 187904, Note_on_c, 11, 76, 0
16, 187920, Note_on_c, 11, 74, 32
16, 188084, Note_on_c, 11, 74, 0
16, 188100, Note_on_c, 11, 62, 32
16, 188144, Note_on_c, 11, 62, 0
16, 188160, Note_on_c, 11, 62, 32
16, 188264, Note_on_c, 11, 62, 0
16, 188280, Note_on_c, 11, 62, 32
16, 188399, Note_on_c, 11, 62, 0
16, 188640, Note_on_c, 11, 74, 32
16, 188804, Note_on_c, 11, 74, 0
16, 188820, Note_on_c, 11, 62, 32
16, 188864, Note_on_c, 11, 62, 0
16, 188880, Note_on_c, 11, 62, 32
16, 188984, Note_on_c, 11, 62, 0
16, 189000, Note_on_c, 11, 62, 32
16, 189119, Note_on_c, 11, 62, 0
16, 190800, Note_on_c, 11, 74, 32
16, 190964, Note_on_c, 11, 74, 0
16, 190980, Note_on_c, 11, 62, 32
16, 191024, Note_on_c, 11, 62, 0
16, 191040, Note_on_c, 11, 62, 32
16, 191144, Note_on_c, 11, 62, 0
16, 191160, Note_on_c, 11, 62, 32
16, 191279, Note_on_c, 11, 62, 0
16, 191520, Note_on_c, 11, 74, 32
16, 191684, Note_on_c, 11, 74, 0
16, 191700, Note_on_c, 11, 62, 32
16, 191744, Note_on_c, 11, 62, 0
16, 191760, Note_on_c, 11, 62, 32
16, 191864, Note_on_c, 11, 62, 0
16, 191880, Note_on_c, 11, 65, 32
16, 191880, Note_on_c, 11, 62, 32
16, 191999, Note_on_c, 11, 65, 0
16, 191999, Note_on_c, 11, 62, 0
16, 192240, Note_on_c, 11, 74, 32
16, 192404, Note_on_c, 11, 74, 0
16, 192420, Note_on_c, 11, 62, 32
16, 192464, Note_on_c, 11, 62, 0
16, 192480, Note_on_c, 11, 62, 32
16, 192584, Note_on_c, 11, 62, 0
16, 192600, Note_on_c, 11, 70, 32
16, 192600, Note_on_c, 11, 62, 32
16, 192719, Note_on_c, 11, 70, 0
16, 192719, Note_on_c, 11, 62, 0
16, 192960, Note_on_c, 11, 70, 32
16, 193124, Note_on_c, 11, 70, 0
16, 193140, Note_on_c, 11, 58, 32
16, 193184, Note_on_c, 11, 58, 0
16, 193200, Note_on_c, 11, 58, 32
16, 193304, Note_on_c, 11, 58, 0
16, 193320, Note_on_c, 11, 58, 32
16, 193439, Note_on_c, 11, 58, 0
16, 195120, Note_on_c, 11, 75, 32
16, 195284, Note_on_c, 11, 75, 0
16, 195300, Note_on_c, 11, 63, 34
16, 195344, Note_on_c, 11, 63, 0
16, 195360, Note_on_c, 11, 63, 34
16, 195464, Note_on_c, 11, 63, 0
16, 195480, Note_on_c, 11, 63, 36
16, 195599, Note_on_c, 11, 63, 0
16, 195840, Note_on_c, 11, 75, 40
16, 196004, Note_on_c, 11, 75, 0
16, 196020, Note_on_c, 11, 63, 42
16, 196064, Note_on_c, 11, 63, 0
16, 196080, Note_on_c, 11, 63, 42
16, 196184, Note_on_c, 11, 63, 0
16, 196200, Note_on_c, 11, 65, 44
16, 196319, Note_on_c, 11, 65, 0
16, 196560, Note_on_c, 11, 77, 48
16, 196724, Note_on_c, 11, 77, 0
16, 196740, Note_on_c, 11, 65, 50
16, 196784, Note_on_c, 11, 65, 0
16, 196800, Note_on_c, 11, 65, 50
16, 196904, Note_on_c, 11, 65, 0
16, 196920, Note_on_c, 11, 65, 52
16, 197039, Note_on_c, 11, 65, 0
16, 197280, Note_on_c, 11, 78, 56
16, 197444, Note_on_c, 11, 78, 0
16, 197460, Note_on_c, 11, 66, 58
16, 197504, Note_on_c, 11, 66, 0
16, 197520, Note_on_c, 11, 66, 58
16, 197624, Note_on_c, 11, 66, 0
16, 197640, Note_on_c, 11, 66, 60
16, 197759, Note_on_c, 11, 66, 0
16, 198000, Note_on_c, 11, 78, 64
16, 198164, Note_on_c, 11, 78, 0
16, 198180, Note_on_c, 11, 66, 66
16, 198224, Note_on_c, 11, 66, 0
16, 198240, Note_on_c, 11, 66, 66
16, 198344, Note_on_c, 11, 66, 0
16, 198360, Note_on_c, 11, 68, 68
16, 198479, Note_on_c, 11, 68, 0
16, 198720, Note_on_c, 11, 80, 72
16, 198884, Note_on_c, 11, 80, 0
16, 198900, Note_on_c, 11, 68, 74
16, 198944, Note_on_c, 11, 68, 0
16, 198960, Note_on_c, 11, 68, 74
16, 199064, Note_on_c, 11, 68, 0
16, 199080, Note_on_c, 11, 68, 76
16, 199199, Note_on_c, 11, 68, 0
16, 199440, Note_on_c, 11, 81, 80
16, 199604, Note_on_c, 11, 81, 0
16, 199620, Note_on_c, 11, 69, 80
16, 199664, Note_on_c, 11, 69, 0
16, 199680, Note_on_c, 11, 69, 80
16, 199784, Note_on_c, 11, 69, 0
16, 200160, Note_on_c, 11, 82, 92
16, 200324, Note_on_c, 11, 82, 0
16, 200340, Note_on_c, 11, 70, 92
16, 200384, Note_on_c, 11, 70, 0
16, 200400, Note_on_c, 11, 70, 92
16, 200504, Note_on_c, 11, 70, 0
16, 200880, Note_on_c, 11, 83, 92
16, 201044, Note_on_c, 11, 83, 0
16, 201060, Note_on_c, 11, 71, 92
16, 201104, Note_on_c, 11, 71, 0
16, 201120, Note_on_c, 11, 71, 92
16, 201224, Note_on_c, 11, 71, 0
16, 201960, Program_c, 11, 45
16, 202320, Note_on_c, 11, 64, 40
16, 202439, Note_on_c, 11, 64, 0
16, 202680, Note_on_c, 11, 59, 40
16, 202799, Note_on_c, 11, 59, 0
16, 203400, Note_on_c, 11, 64, 40
16, 203519, Note_on_c, 11, 64, 0
16, 203760, Note_on_c, 11, 59, 40
16, 203879, Note_on_c, 11, 59, 0
16, 204480, Note_on_c, 11, 64, 40
16, 204599, Note_on_c, 11, 64, 0
16, 204840, Note_on_c, 11, 59, 40
16, 204959, Note_on_c, 11, 59, 0
16, 205560, Note_on_c, 11, 76, 40
16, 205679, Note_on_c, 11, 76, 0
16, 205920, Note_on_c, 11, 64, 40
16, 206039, Note_on_c, 11, 64, 0
16, 206640, Note_on_c, 11, 69, 40
16, 206759, Note_on_c, 11, 69, 0
16, 207000, Note_on_c, 11, 64, 40
16, 207119, Note_on_c, 11, 64, 0
16, 207720, Note_on_c, 11, 69, 40
16, 207839, Note_on_c, 11, 69, 0
16, 208080, Note_on_c, 11, 64, 40
16, 208199, Note_on_c, 11, 64, 0
16, 208800, Note_on_c, 11, 77, 40
16, 208919, Note_on_c, 11, 77, 0
16, 209160, Note_on_c, 11, 65, 40
16, 209279, Note_on_c, 11, 65, 0
16, 209880, Note_on_c, 11, 77, 40
16, 209999, Note_on_c, 11, 77, 0
16, 210240, Note_on_c, 11, 65, 40
16, 210359, Note_on_c, 11, 65, 0
16, 210960, Note_on_c, 11, 77, 40
16, 211079, Note_on_c, 11, 77, 0
16, 211320, Note_on_c, 11, 65, 40
16, 211439, Note_on_c, 11, 65, 0
16, 212040, Note_on_c, 11, 77, 40
16, 212159, Note_on_c, 11, 77, 0
16, 212400, Note_on_c, 11, 65, 40
16, 212519, Note_on_c, 11, 65, 0
16, 212760, Note_on_c, 11, 77, 40
16, 212879, Note_on_c, 11, 77, 0
16, 213120, Note_on_c, 11, 65, 40
16, 213239, Note_on_c, 11, 65, 0
16, 213480, Note_on_c, 11, 77, 40
16, 213599, Note_on_c, 11, 77, 0
16, 213720, Program_c, 11, 48
16, 213840, Note_on_c, 11, 76, 44
16, 213944, Note_on_c, 11, 76, 0
16, 213960, Note_on_c, 11, 77, 44
16, 214064, Note_on_c, 11, 77, 0
16, 214080, Note_on_c, 11, 79, 44
16, 214184, Note_on_c, 11, 79, 0
16, 214200, Note_on_c, 11, 79, 43
16, 214304, Note_on_c, 11, 79, 0
16, 214320, Note_on_c, 11, 77, 43
16, 214424, Note_on_c, 11, 77, 0
16, 214440, Note_on_c, 11, 76, 43
16, 214544, Note_on_c, 11, 76, 0
16, 214560, Note_on_c, 11, 76, 42
16, 214664, Note_on_c, 11, 76, 0
16, 214680, Note_on_c, 11, 77, 42
16, 214784, Note_on_c, 11, 77, 0
16, 214800, Note_on_c, 11, 76, 42
16, 214904, Note_on_c, 11, 76, 0
16, 214918, Program_c, 11, 45
16, 214920, Note_on_c, 11, 74, 33
16, 215039, Note_on_c, 11, 74, 0
16, 215280, Note_on_c, 11, 62, 32
16, 215399, Note_on_c, 11, 62, 0
16, 215640, Note_on_c, 11, 74, 31
16, 215759, Note_on_c, 11, 74, 0
16, 215880, Program_c, 11, 48
16, 216000, Note_on_c, 11, 73, 38
16, 216104, Note_on_c, 11, 73, 0
16, 216120, Note_on_c, 11, 74, 38
16, 216224, Note_on_c, 11, 74, 0
16, 216240, Note_on_c, 11, 76, 38
16, 216344, Note_on_c, 11, 76, 0
16, 216360, Note_on_c, 11, 76, 37
16, 216464, Note_on_c, 11, 76, 0
16, 216480, Note_on_c, 11, 74, 37
16, 216584, Note_on_c, 11, 74, 0
16, 216600, Note_on_c, 11, 73, 37
16, 216704, Note_on_c, 11, 73, 0
16, 216720, Note_on_c, 11, 73, 36
16, 216824, Note_on_c, 11, 73, 0
16, 216840, Note_on_c, 11, 74, 36
16, 216944, Note_on_c, 11, 74, 0
16, 216960, Note_on_c, 11, 73, 36
16, 217064, Note_on_c, 11, 73, 0
16, 217078, Program_c, 11, 45
16, 217440, Note_on_c, 11, 69, 30
16, 217559, Note_on_c, 11, 69, 0
16, 217800, Note_on_c, 11, 81, 29
16, 217919, Note_on_c, 11, 81, 0
16, 218040, Program_c, 11, 48
16, 218160, Note_on_c, 11, 73, 32
16, 218264, Note_on_c, 11, 73, 0
16, 218280, Note_on_c, 11, 74, 32
16, 218384, Note_on_c, 11, 74, 0
16, 218400, Note_on_c, 11, 76, 32
16, 218504, Note_on_c, 11, 76, 0
16, 218520, Note_on_c, 11, 76, 32
16, 218624, Note_on_c, 11, 76, 0
16, 218640, Note_on_c, 11, 74, 32
16, 218744, Note_on_c, 11, 74, 0
16, 218760, Note_on_c, 11, 73, 32
16, 218864, Note_on_c, 11, 73, 0
16, 218880, Note_on_c, 11, 73, 32
16, 218984, Note_on_c, 11, 73, 0
16, 219000, Note_on_c, 11, 74, 32
16, 219104, Note_on_c, 11, 74, 0
16, 219120, Note_on_c, 11, 73, 32
16, 219224, Note_on_c, 11, 73, 0
16, 219240, Note_on_c, 11, 73, 32
16, 219344, Note_on_c, 11, 73, 0
16, 219360, Note_on_c, 11, 74, 32
16, 219464, Note_on_c, 11, 74, 0
16, 219480, Note_on_c, 11, 76, 32
16, 219584, Note_on_c, 11, 76, 0
16, 219600, Note_on_c, 11, 77, 32
16, 219719, Note_on_c, 11, 77, 0
16, 219840, Program_c, 11, 45
16, 219960, Note_on_c, 11, 57, 28
16, 220079, Note_on_c, 11, 57, 0
16, 220680, Note_on_c, 11, 62, 28
16, 220799, Note_on_c, 11, 62, 0
16, 221040, Note_on_c, 11, 57, 28
16, 221159, Note_on_c, 11, 57, 0
16, 221760, Note_on_c, 11, 62, 28
16, 221879, Note_on_c, 11, 62, 0
16, 222120, Note_on_c, 11, 57, 28
16, 222239, Note_on_c, 11, 57, 0
16, 224280, Program_c, 11, 48
16, 224640, Note_on_c, 11, 79, 32
16, 224804, Note_on_c, 11, 79, 0
16, 224820, Note_on_c, 11, 67, 32
16, 224864, Note_on_c, 11, 67, 0
16, 224880, Note_on_c, 11, 67, 32
16, 224984, Note_on_c, 11, 67, 0
16, 225000, Note_on_c, 11, 72, 32
16, 225104, Note_on_c, 11, 72, 0
16, 225120, Note_on_c, 11, 74, 32
16, 225224, Note_on_c, 11, 74, 0
16, 225240, Note_on_c, 11, 75, 32
16, 225344, Note_on_c, 11, 75, 0
16, 225360, Note_on_c, 11, 74, 32
16, 225464, Note_on_c, 11, 74, 0
16, 225480, Note_on_c, 11, 75, 32
16, 225584, Note_on_c, 11, 75, 0
16, 225600, Note_on_c, 11, 77, 32
16, 225704, Note_on_c, 11, 77, 0
16, 225720, Note_on_c, 11, 75, 32
16, 225824, Note_on_c, 11, 75, 0
16, 225840, Note_on_c, 11, 74, 32
16, 225944, Note_on_c, 11, 74, 0
16, 225960, Note_on_c, 11, 75, 32
16, 226064, Note_on_c, 11, 75, 0
16, 226080, Note_on_c, 11, 74, 32
16, 226184, Note_on_c, 11, 74, 0
16, 226200, Note_on_c, 11, 75, 32
16, 226304, Note_on_c, 11, 75, 0
16, 226320, Note_on_c, 11, 77, 32
16, 226424, Note_on_c, 11, 77, 0
16, 226440, Note_on_c, 11, 75, 32
16, 226544, Note_on_c, 11, 75, 0
16, 226560, Note_on_c, 11, 74, 32
16, 226664, Note_on_c, 11, 74, 0
16, 226680, Note_on_c, 11, 75, 32
16, 226784, Note_on_c, 11, 75, 0
16, 226800, Note_on_c, 11, 82, 32
16, 226964, Note_on_c, 11, 82, 0
16, 226980, Note_on_c, 11, 70, 32
16, 227024, Note_on_c, 11, 70, 0
16, 227040, Note_on_c, 11, 70, 32
16, 227144, Note_on_c, 11, 70, 0
16, 227160, Note_on_c, 11, 75, 32
16, 227264, Note_on_c, 11, 75, 0
16, 227280, Note_on_c, 11, 77, 32
16, 227384, Note_on_c, 11, 77, 0
16, 227400, Note_on_c, 11, 79, 32
16, 227504, Note_on_c, 11, 79, 0
16, 227520, Note_on_c, 11, 80, 32
16, 228944, Note_on_c, 11, 80, 0
16, 228960, Note_on_c, 11, 79, 32
16, 229049, Note_on_c, 11, 79, 0
16, 229080, Note_on_c, 11, 77, 32
16, 229169, Note_on_c, 11, 77, 0
16, 229200, Note_on_c, 11, 75, 32
16, 229289, Note_on_c, 11, 75, 0
16, 229320, Note_on_c, 11, 82, 32
16, 229409, Note_on_c, 11, 82, 0
16, 229440, Note_on_c, 11, 80, 32
16, 229529, Note_on_c, 11, 80, 0
16, 229560, Note_on_c, 11, 79, 32
16, 229649, Note_on_c, 11, 79, 0
16, 229680, Note_on_c, 11, 79, 32
16, 229769, Note_on_c, 11, 79, 0
16, 229800, Note_on_c, 11, 77, 32
16, 229889, Note_on_c, 11, 77, 0
16, 229920, Note_on_c, 11, 75, 32
16, 230009, Note_on_c, 11, 75, 0
16, 230040, Note_on_c, 11, 82, 32
16, 230129, Note_on_c, 11, 82, 0
16, 230160, Note_on_c, 11, 80, 32
16, 230249, Note_on_c, 11, 80, 0
16, 230280, Note_on_c, 11, 79, 32
16, 230369, Note_on_c, 11, 79, 0
16, 230398, Control_c, 11, 11, 47
16, 230400, Note_on_c, 11, 80, 80
16, 230400, Control_c, 11, 11, 47
16, 230472, Control_c, 11, 11, 48
16, 230544, Control_c, 11, 11, 49
16, 230616, Control_c, 11, 11, 50
16, 230688, Control_c, 11, 11, 51
16, 230760, Control_c, 11, 11, 52
16, 230832, Control_c, 11, 11, 53
16, 230904, Control_c, 11, 11, 54
16, 230976, Control_c, 11, 11, 55
16, 231048, Control_c, 11, 11, 56
16, 231120, Control_c, 11, 11, 57
16, 231192, Control_c, 11, 11, 58
16, 231264, Control_c, 11, 11, 59
16, 231336, Control_c, 11, 11, 60
16, 231408, Control_c, 11, 11, 61
16, 231480, Control_c, 11, 11, 62
16, 231552, Control_c, 11, 11, 63
16, 231624, Control_c, 11, 11, 64
16, 231696, Control_c, 11, 11, 65
16, 231768, Control_c, 11, 11, 66
16, 231824, Note_on_c, 11, 80, 0
16, 231840, Control_c, 11, 11, 67
16, 231840, Note_on_c, 11, 81, 80
16, 231870, Control_c, 11, 11, 68
16, 231900, Control_c, 11, 11, 70
16, 231930, Control_c, 11, 11, 71
16, 231960, Control_c, 11, 11, 72
16, 231990, Control_c, 11, 11, 73
16, 232020, Control_c, 11, 11, 75
16, 232050, Control_c, 11, 11, 76
16, 232080, Control_c, 11, 11, 77
16, 232110, Control_c, 11, 11, 78
16, 232140, Control_c, 11, 11, 80
16, 232170, Control_c, 11, 11, 81
16, 232200, Control_c, 11, 11, 82
16, 232230, Control_c, 11, 11, 83
16, 232260, Control_c, 11, 11, 85
16, 232290, Control_c, 11, 11, 86
16, 232320, Control_c, 11, 11, 87
16, 232350, Control_c, 11, 11, 88
16, 232380, Control_c, 11, 11, 90
16, 232410, Control_c, 11, 11, 91
16, 232440, Control_c, 11, 11, 92
16, 232470, Control_c, 11, 11, 93
16, 232500, Control_c, 11, 11, 95
16, 232530, Control_c, 11, 11, 96
16, 232544, Note_on_c, 11, 81, 0
16, 232560, Control_c, 11, 11, 97
16, 232560, Note_on_c, 11, 86, 80
16, 232590, Control_c, 11, 11, 98
16, 232620, Control_c, 11, 11, 100
16, 232650, Control_c, 11, 11, 101
16, 232680, Control_c, 11, 11, 102
16, 232710, Control_c, 11, 11, 103
16, 232740, Control_c, 11, 11, 105
16, 232770, Control_c, 11, 11, 106
16, 232800, Control_c, 11, 11, 107
16, 232830, Control_c, 11, 11, 108
16, 232860, Control_c, 11, 11, 110
16, 232890, Control_c, 11, 11, 111
16, 232920, Control_c, 11, 11, 112
16, 232950, Control_c, 11, 11, 113
16, 232980, Control_c, 11, 11, 115
16, 233010, Control_c, 11, 11, 116
16, 233040, Control_c, 11, 11, 117
16, 233070, Control_c, 11, 11, 118
16, 233100, Control_c, 11, 11, 120
16, 233130, Control_c, 11, 11, 121
16, 233160, Control_c, 11, 11, 122
16, 233190, Control_c, 11, 11, 123
16, 233220, Control_c, 11, 11, 125
16, 233250, Control_c, 11, 11, 127
16, 233264, Note_on_c, 11, 86, 0
16, 233280, Note_on_c, 11, 89, 80
16, 233280, Note_on_c, 11, 69, 80
16, 233399, Note_on_c, 11, 89, 0
16, 233399, Note_on_c, 11, 69, 0
16, 234000, Note_on_c, 11, 93, 86
16, 234000, Note_on_c, 11, 69, 86
16, 234119, Note_on_c, 11, 93, 0
16, 234119, Note_on_c, 11, 69, 0
16, 234720, Note_on_c, 11, 69, 92
16, 234720, Note_on_c, 11, 93, 92
16, 234884, Note_on_c, 11, 69, 0
16, 234884, Note_on_c, 11, 93, 0
16, 234900, Note_on_c, 11, 69, 92
16, 234944, Note_on_c, 11, 69, 0
16, 234960, Note_on_c, 11, 69, 92
16, 235064, Note_on_c, 11, 69, 0
16, 235080, Note_on_c, 11, 69, 92
16, 235080, Note_on_c, 11, 93, 92
16, 235244, Note_on_c, 11, 69, 0
16, 235244, Note_on_c, 11, 93, 0
16, 235260, Note_on_c, 11, 69, 92
16, 235304, Note_on_c, 11, 69, 0
16, 235320, Note_on_c, 11, 69, 92
16, 235424, Note_on_c, 11, 69, 0
16, 235440, Note_on_c, 11, 69, 92
16, 235440, Note_on_c, 11, 93, 92
16, 235604, Note_on_c, 11, 69, 0
16, 235604, Note_on_c, 11, 93, 0
16, 235620, Note_on_c, 11, 69, 92
16, 235664, Note_on_c, 11, 69, 0
16, 235680, Note_on_c, 11, 69, 92
16, 235784, Note_on_c, 11, 69, 0
16, 235800, Note_on_c, 11, 93, 92
16, 235800, Note_on_c, 11, 69, 92
16, 235964, Note_on_c, 11, 93, 0
16, 235964, Note_on_c, 11, 69, 0
16, 235980, Note_on_c, 11, 69, 92
16, 236024, Note_on_c, 11, 69, 0
16, 236040, Note_on_c, 11, 69, 92
16, 236144, Note_on_c, 11, 69, 0
16, 236160, Note_on_c, 11, 69, 92
16, 236160, Note_on_c, 11, 93, 92
16, 236324, Note_on_c, 11, 69, 0
16, 236324, Note_on_c, 11, 93, 0
16, 236340, Note_on_c, 11, 69, 92
16, 236384, Note_on_c, 11, 69, 0
16, 236400, Note_on_c, 11, 69, 92
16, 236504, Note_on_c, 11, 69, 0
16, 236520, Note_on_c, 11, 86, 92
16, 236609, Note_on_c, 11, 86, 0
16, 236640, Note_on_c, 11, 88, 92
16, 236729, Note_on_c, 11, 88, 0
16, 236760, Note_on_c, 11, 89, 92
16, 236849, Note_on_c, 11, 89, 0
16, 236880, Note_on_c, 11, 88, 92
16, 236969, Note_on_c, 11, 88, 0
16, 237000, Note_on_c, 11, 89, 92
16, 237089, Note_on_c, 11, 89, 0
16, 237120, Note_on_c, 11, 91, 92
16, 237209, Note_on_c, 11, 91, 0
16, 237240, Note_on_c, 11, 89, 92
16, 237329, Note_on_c, 11, 89, 0
16, 237360, Note_on_c, 11, 88, 92
16, 237449, Note_on_c, 11, 88, 0
16, 237480, Note_on_c, 11, 86, 92
16, 237569, Note_on_c, 11, 86, 0
16, 237600, Note_on_c, 11, 82, 92
16, 237689, Note_on_c, 11, 82, 0
16, 237720, Note_on_c, 11, 81, 92
16, 237809, Note_on_c, 11, 81, 0
16, 237840, Note_on_c, 11, 79, 92
16, 237929, Note_on_c, 11, 79, 0
16, 237960, Note_on_c, 11, 77, 92
16, 238049, Note_on_c, 11, 77, 0
16, 238080, Note_on_c, 11, 88, 92
16, 238169, Note_on_c, 11, 88, 0
16, 238200, Note_on_c, 11, 86, 92
16, 238289, Note_on_c, 11, 86, 0
16, 238320, Note_on_c, 11, 85, 92
16, 238409, Note_on_c, 11, 85, 0
16, 238440, Note_on_c, 11, 86, 92
16, 238529, Note_on_c, 11, 86, 0
16, 238560, Note_on_c, 11, 88, 92
16, 238649, Note_on_c, 11, 88, 0
16, 238680, Note_on_c, 11, 86, 92
16, 238769, Note_on_c, 11, 86, 0
16, 238800, Note_on_c, 11, 85, 92
16, 238889, Note_on_c, 11, 85, 0
16, 238920, Note_on_c, 11, 86, 92
16, 239009, Note_on_c, 11, 86, 0
16, 239040, Note_on_c, 11, 82, 92
16, 239129, Note_on_c, 11, 82, 0
16, 239160, Note_on_c, 11, 81, 92
16, 239249, Note_on_c, 11, 81, 0
16, 239280, Note_on_c, 11, 79, 92
16, 239369, Note_on_c, 11, 79, 0
16, 239400, Note_on_c, 11, 77, 92
16, 239489, Note_on_c, 11, 77, 0
16, 239520, Note_on_c, 11, 88, 92
16, 239609, Note_on_c, 11, 88, 0
16, 239640, Note_on_c, 11, 86, 92
16, 239729, Note_on_c, 11, 86, 0
16, 239760, Note_on_c, 11, 85, 92
16, 239849, Note_on_c, 11, 85, 0
16, 239880, Note_on_c, 11, 86, 92
16, 239969, Note_on_c, 11, 86, 0
16, 240000, Note_on_c, 11, 88, 92
16, 240089, Note_on_c, 11, 88, 0
16, 240120, Note_on_c, 11, 86, 92
16, 240209, Note_on_c, 11, 86, 0
16, 240240, Note_on_c, 11, 85, 92
16, 240329, Note_on_c, 11, 85, 0
16, 240360, Note_on_c, 11, 86, 92
16, 240449, Note_on_c, 11, 86, 0
16, 240480, Note_on_c, 11, 84, 92
16, 240569, Note_on_c, 11, 84, 0
16, 240600, Note_on_c, 11, 86, 92
16, 240689, Note_on_c, 11, 86, 0
16, 240720, Note_on_c, 11, 87, 92
16, 240809, Note_on_c, 11, 87, 0
16, 240840, Note_on_c, 11, 79, 92
16, 240929, Note_on_c, 11, 79, 0
16, 240960, Note_on_c, 11, 81, 92
16, 241049, Note_on_c, 11, 81, 0
16, 241080, Note_on_c, 11, 82, 92
16, 241169, Note_on_c, 11, 82, 0
16, 241200, Note_on_c, 11, 81, 92
16, 241289, Note_on_c, 11, 81, 0
16, 241320, Note_on_c, 11, 82, 92
16, 241409, Note_on_c, 11, 82, 0
16, 241440, Note_on_c, 11, 84, 92
16, 241529, Note_on_c, 11, 84, 0
16, 241560, Note_on_c, 11, 82, 92
16, 241649, Note_on_c, 11, 82, 0
16, 241680, Note_on_c, 11, 81, 92
16, 241769, Note_on_c, 11, 81, 0
16, 241800, Note_on_c, 11, 79, 92
16, 241889, Note_on_c, 11, 79, 0
16, 241920, Note_on_c, 11, 75, 80
16, 242009, Note_on_c, 11, 75, 0
16, 242040, Note_on_c, 11, 74, 80
16, 242129, Note_on_c, 11, 74, 0
16, 242160, Note_on_c, 11, 72, 80
16, 242249, Note_on_c, 11, 72, 0
16, 242280, Note_on_c, 11, 70, 80
16, 242369, Note_on_c, 11, 70, 0
16, 242400, Note_on_c, 11, 69, 80
16, 242489, Note_on_c, 11, 69, 0
16, 242520, Note_on_c, 11, 67, 80
16, 242609, Note_on_c, 11, 67, 0
16, 242640, Note_on_c, 11, 77, 80
16, 242729, Note_on_c, 11, 77, 0
16, 242760, Note_on_c, 11, 75, 80
16, 242849, Note_on_c, 11, 75, 0
16, 242880, Note_on_c, 11, 74, 80
16, 242969, Note_on_c, 11, 74, 0
16, 243000, Note_on_c, 11, 72, 80
16, 243089, Note_on_c, 11, 72, 0
16, 243120, Note_on_c, 11, 70, 80
16, 243209, Note_on_c, 11, 70, 0
16, 243240, Note_on_c, 11, 69, 80
16, 243329, Note_on_c, 11, 69, 0
16, 243360, Note_on_c, 11, 79, 80
16, 243449, Note_on_c, 11, 79, 0
16, 243480, Note_on_c, 11, 77, 80
16, 243569, Note_on_c, 11, 77, 0
16, 243600, Note_on_c, 11, 75, 80
16, 243689, Note_on_c, 11, 75, 0
16, 243720, Note_on_c, 11, 74, 80
16, 243809, Note_on_c, 11, 74, 0
16, 243840, Note_on_c, 11, 72, 80
16, 243929, Note_on_c, 11, 72, 0
16, 243960, Note_on_c, 11, 70, 80
16, 244049, Note_on_c, 11, 70, 0
16, 244080, Note_on_c, 11, 69, 80
16, 244169, Note_on_c, 11, 69, 0
16, 244200, Note_on_c, 11, 67, 80
16, 244289, Note_on_c, 11, 67, 0
16, 244320, Note_on_c, 11, 65, 80
16, 244409, Note_on_c, 11, 65, 0
16, 244440, Note_on_c, 11, 63, 80
16, 244529, Note_on_c, 11, 63, 0
16, 244560, Note_on_c, 11, 62, 80
16, 244649, Note_on_c, 11, 62, 0
16, 244680, Note_on_c, 11, 60, 80
16, 244769, Note_on_c, 11, 60, 0
16, 244800, Note_on_c, 11, 58, 80
16, 244889, Note_on_c, 11, 58, 0
16, 245520, Note_on_c, 11, 79, 44
16, 245684, Note_on_c, 11, 79, 0
16, 245700, Note_on_c, 11, 67, 48
16, 245744, Note_on_c, 11, 67, 0
16, 245760, Note_on_c, 11, 67, 49
16, 245864, Note_on_c, 11, 67, 0
16, 245880, Note_on_c, 11, 79, 52
16, 246044, Note_on_c, 11, 79, 0
16, 246060, Note_on_c, 11, 67, 56
16, 246104, Note_on_c, 11, 67, 0
16, 246120, Note_on_c, 11, 67, 57
16, 246224, Note_on_c, 11, 67, 0
16, 246240, Note_on_c, 11, 81, 60
16, 246404, Note_on_c, 11, 81, 0
16, 246420, Note_on_c, 11, 69, 64
16, 246464, Note_on_c, 11, 69, 0
16, 246480, Note_on_c, 11, 69, 65
16, 246584, Note_on_c, 11, 69, 0
16, 246600, Note_on_c, 11, 82, 68
16, 246764, Note_on_c, 11, 82, 0
16, 246780, Note_on_c, 11, 70, 64
16, 246824, Note_on_c, 11, 70, 0
16, 246840, Note_on_c, 11, 70, 63
16, 246944, Note_on_c, 11, 70, 0
16, 246960, Note_on_c, 11, 82, 60
16, 247124, Note_on_c, 11, 82, 0
16, 247140, Note_on_c, 11, 70, 56
16, 247184, Note_on_c, 11, 70, 0
16, 247200, Note_on_c, 11, 70, 55
16, 247304, Note_on_c, 11, 70, 0
16, 247320, Note_on_c, 11, 81, 52
16, 247484, Note_on_c, 11, 81, 0
16, 247500, Note_on_c, 11, 69, 48
16, 247544, Note_on_c, 11, 69, 0
16, 247560, Note_on_c, 11, 69, 47
16, 247664, Note_on_c, 11, 69, 0
16, 249120, Note_on_c, 11, 83, 50
16, 249284, Note_on_c, 11, 83, 0
16, 249300, Note_on_c, 11, 71, 53
16, 249344, Note_on_c, 11, 71, 0
16, 249360, Note_on_c, 11, 71, 54
16, 249464, Note_on_c, 11, 71, 0
16, 249480, Note_on_c, 11, 88, 56
16, 249644, Note_on_c, 11, 88, 0
16, 249660, Note_on_c, 11, 76, 59
16, 249704, Note_on_c, 11, 76, 0
16, 249720, Note_on_c, 11, 76, 60
16, 249824, Note_on_c, 11, 76, 0
16, 249840, Note_on_c, 11, 88, 62
16, 250004, Note_on_c, 11, 88, 0
16, 250020, Note_on_c, 11, 76, 65
16, 250064, Note_on_c, 11, 76, 0
16, 250080, Note_on_c, 11, 76, 66
16, 250184, Note_on_c, 11, 76, 0
16, 250200, Note_on_c, 11, 86, 68
16, 250364, Note_on_c, 11, 86, 0
16, 250380, Note_on_c, 11, 74, 64
16, 250424, Note_on_c, 11, 74, 0
16, 250440, Note_on_c, 11, 74, 63
16, 250544, Note_on_c, 11, 74, 0
16, 250560, Note_on_c, 11, 86, 60
16, 250724, Note_on_c, 11, 86, 0
16, 250740, Note_on_c, 11, 74, 56
16, 250784, Note_on_c, 11, 74, 0
16, 250800, Note_on_c, 11, 74, 55
16, 250904, Note_on_c, 11, 74, 0
16, 250920, Note_on_c, 11, 85, 52
16, 251084, Note_on_c, 11, 85, 0
16, 251100, Note_on_c, 11, 73, 48
16, 251144, Note_on_c, 11, 73, 0
16, 251160, Note_on_c, 11, 73, 47
16, 251264, Note_on_c, 11, 73, 0
16, 252360, Note_on_c, 11, 76, 56
16, 252524, Note_on_c, 11, 76, 0
16, 252540, Note_on_c, 11, 64, 59
16, 252584, Note_on_c, 11, 64, 0
16, 252600, Note_on_c, 11, 64, 60
16, 252704, Note_on_c, 11, 64, 0
16, 252720, Note_on_c, 11, 76, 62
16, 252884, Note_on_c, 11, 76, 0
16, 252900, Note_on_c, 11, 64, 65
16, 252944, Note_on_c, 11, 64, 0
16, 252960, Note_on_c, 11, 64, 66
16, 253064, Note_on_c, 11, 64, 0
16, 253080, Note_on_c, 11, 74, 68
16, 253244, Note_on_c, 11, 74, 0
16, 253260, Note_on_c, 11, 62, 64
16, 253304, Note_on_c, 11, 62, 0
16, 253320, Note_on_c, 11, 62, 63
16, 253424, Note_on_c, 11, 62, 0
16, 253440, Note_on_c, 11, 74, 60
16, 253604, Note_on_c, 11, 74, 0
16, 253620, Note_on_c, 11, 62, 56
16, 253664, Note_on_c, 11, 62, 0
16, 253680, Note_on_c, 11, 62, 55
16, 253784, Note_on_c, 11, 62, 0
16, 253800, Note_on_c, 11, 73, 52
16, 253964, Note_on_c, 11, 73, 0
16, 253980, Note_on_c, 11, 61, 48
16, 254024, Note_on_c, 11, 61, 0
16, 254040, Note_on_c, 11, 61, 47
16, 254144, Note_on_c, 11, 61, 0
16, 254160, Program_c, 11, 45
16, 254400, Note_on_c, 11, 69, 40
16, 254519, Note_on_c, 11, 69, 0
16, 254760, Note_on_c, 11, 81, 46
16, 254879, Note_on_c, 11, 81, 0
16, 255120, Note_on_c, 11, 78, 52
16, 255239, Note_on_c, 11, 78, 0
16, 255480, Note_on_c, 11, 79, 58
16, 255599, Note_on_c, 11, 79, 0
16, 255840, Note_on_c, 11, 76, 64
16, 255959, Note_on_c, 11, 76, 0
16, 256200, Note_on_c, 11, 78, 70
16, 256319, Note_on_c, 11, 78, 0
16, 256560, Note_on_c, 11, 81, 76
16, 256679, Note_on_c, 11, 81, 0
16, 256920, Note_on_c, 11, 85, 82
16, 257024, Note_on_c, 11, 85, 0
16, 257038, Program_c, 11, 48
16, 257040, Note_on_c, 11, 86, 92
16, 257204, Note_on_c, 11, 86, 0
16, 257220, Note_on_c, 11, 74, 92
16, 257264, Note_on_c, 11, 74, 0
16, 257280, Note_on_c, 11, 74, 92
16, 257384, Note_on_c, 11, 74, 0
16, 257400, Note_on_c, 11, 86, 92
16, 257564, Note_on_c, 11, 86, 0
16, 257580, Note_on_c, 11, 74, 92
16, 257624, Note_on_c, 11, 74, 0
16, 257640, Note_on_c, 11, 74, 92
16, 257744, Note_on_c, 11, 74, 0
16, 257760, Note_on_c, 11, 86, 92
16, 257924, Note_on_c, 11, 86, 0
16, 257940, Note_on_c, 11, 74, 92
16, 257984, Note_on_c, 11, 74, 0
16, 258000, Note_on_c, 11, 74, 92
16, 258104, Note_on_c, 11, 74, 0
16, 258120, Note_on_c, 11, 86, 92
16, 258284, Note_on_c, 11, 86, 0
16, 258300, Note_on_c, 11, 74, 92
16, 258344, Note_on_c, 11, 74, 0
16, 258360, Note_on_c, 11, 74, 92
16, 258464, Note_on_c, 11, 74, 0
16, 258480, Note_on_c, 11, 86, 92
16, 258644, Note_on_c, 11, 86, 0
16, 258660, Note_on_c, 11, 74, 92
16, 258704, Note_on_c, 11, 74, 0
16, 258720, Note_on_c, 11, 74, 92
16, 258824, Note_on_c, 11, 74, 0
16, 258840, Note_on_c, 11, 86, 92
16, 259004, Note_on_c, 11, 86, 0
16, 259020, Note_on_c, 11, 74, 92
16, 259064, Note_on_c, 11, 74, 0
16, 259080, Note_on_c, 11, 74, 92
16, 259184, Note_on_c, 11, 74, 0
16, 259200, Note_on_c, 11, 86, 92
16, 259364, Note_on_c, 11, 86, 0
16, 259380, Note_on_c, 11, 74, 92
16, 259424, Note_on_c, 11, 74, 0
16, 259440, Note_on_c, 11, 74, 92
16, 259544, Note_on_c, 11, 74, 0
16, 259560, Note_on_c, 11, 86, 92
16, 259724, Note_on_c, 11, 86, 0
16, 259740, Note_on_c, 11, 74, 92
16, 259784, Note_on_c, 11, 74, 0
16, 259800, Note_on_c, 11, 74, 92
16, 259904, Note_on_c, 11, 74, 0
16, 259920, Note_on_c, 11, 86, 92
16, 260084, Note_on_c, 11, 86, 0
16, 260100, Note_on_c, 11, 74, 92
16, 260144, Note_on_c, 11, 74, 0
16, 260160, Note_on_c, 11, 74, 92
16, 260264, Note_on_c, 11, 74, 0
16, 260280, Note_on_c, 11, 86, 92
16, 260444, Note_on_c, 11, 86, 0
16, 260460, Note_on_c, 11, 74, 92
16, 260504, Note_on_c, 11, 74, 0
16, 260520, Note_on_c, 11, 74, 92
16, 260624, Note_on_c, 11, 74, 0
16, 260640, Note_on_c, 11, 86, 92
16, 260804, Note_on_c, 11, 86, 0
16, 260820, Note_on_c, 11, 74, 92
16, 260864, Note_on_c, 11, 74, 0
16, 260880, Note_on_c, 11, 74, 92
16, 260984, Note_on_c, 11, 74, 0
16, 261000, Note_on_c, 11, 86, 92
16, 261164, Note_on_c, 11, 86, 0
16, 261180, Note_on_c, 11, 74, 92
16, 261224, Note_on_c, 11, 74, 0
16, 261240, Note_on_c, 11, 74, 92
16, 261344, Note_on_c, 11, 74, 0
16, 261360, Note_on_c, 11, 86, 92
16, 261524, Note_on_c, 11, 86, 0
16, 261540, Note_on_c, 11, 74, 92
16, 261584, Note_on_c, 11, 74, 0
16, 261600, Note_on_c, 11, 74, 92
16, 261704, Note_on_c, 11, 74, 0
16, 261720, Note_on_c, 11, 86, 92
16, 261884, Note_on_c, 11, 86, 0
16, 261900, Note_on_c, 11, 74, 92
16, 261944, Note_on_c, 11, 74, 0
16, 261960, Note_on_c, 11, 74, 92
16, 262064, Note_on_c, 11, 74, 0
16, 262080, Note_on_c, 11, 86, 92
16, 262244, Note_on_c, 11, 86, 0
16, 262260, Note_on_c, 11, 74, 92
16, 262304, Note_on_c, 11, 74, 0
16, 262320, Note_on_c, 11, 74, 92
16, 262424, Note_on_c, 11, 74, 0
16, 262440, Note_on_c, 11, 86, 92
16, 262604, Note_on_c, 11, 86, 0
16, 262620, Note_on_c, 11, 74, 92
16, 262664, Note_on_c, 11, 74, 0
16, 262680, Note_on_c, 11, 74, 92
16, 262784, Note_on_c, 11, 74, 0
16, 262800, Note_on_c, 11, 86, 92
16, 262800, Note_on_c, 11, 74, 92
16, 262919, Note_on_c, 11, 86, 0
16, 262919, Note_on_c, 11, 74, 0
16, 263520, Note_on_c, 11, 82, 92
16, 263684, Note_on_c, 11, 82, 0
16, 263700, Note_on_c, 11, 70, 92
16, 263744, Note_on_c, 11, 70, 0
16, 263760, Note_on_c, 11, 70, 92
16, 263864, Note_on_c, 11, 70, 0
16, 263880, Note_on_c, 11, 82, 92
16, 263984, Note_on_c, 11, 82, 0
16, 264000, Note_on_c, 11, 79, 92
16, 264104, Note_on_c, 11, 79, 0
16, 264120, Note_on_c, 11, 77, 92
16, 264224, Note_on_c, 11, 77, 0
16, 264240, Note_on_c, 11, 76, 92
16, 264359, Note_on_c, 11, 76, 0
16, 264960, Note_on_c, 11, 81, 92
16, 265124, Note_on_c, 11, 81, 0
16, 265140, Note_on_c, 11, 69, 92
16, 265184, Note_on_c, 11, 69, 0
16, 265200, Note_on_c, 11, 69, 92
16, 265304, Note_on_c, 11, 69, 0
16, 265320, Note_on_c, 11, 81, 92
16, 265424, Note_on_c, 11, 81, 0
16, 265440, Note_on_c, 11, 77, 92
16, 265544, Note_on_c, 11, 77, 0
16, 265560, Note_on_c, 11, 76, 92
16, 265664, Note_on_c, 11, 76, 0
16, 265678, Control_c, 11, 11, 87
16, 265680, Note_on_c, 11, 74, 68
16, 266159, Note_on_c, 11, 74, 0
16, 266160, Note_on_c, 11, 76, 68
16, 266279, Note_on_c, 11, 76, 0
16, 266280, Note_on_c, 11, 78, 68
16, 266384, Note_on_c, 11, 78, 0
16, 266400, Note_on_c, 11, 79, 68
16, 266400, Control_c, 11, 11, 87
16, 266435, Control_c, 11, 11, 89
16, 266470, Control_c, 11, 11, 90
16, 266505, Control_c, 11, 11, 92
16, 266540, Control_c, 11, 11, 94
16, 266575, Control_c, 11, 11, 95
16, 266610, Control_c, 11, 11, 97
16, 266645, Control_c, 11, 11, 99
16, 266680, Control_c, 11, 11, 100
16, 266715, Control_c, 11, 11, 102
16, 266744, Note_on_c, 11, 79, 0
16, 266750, Control_c, 11, 11, 104
16, 266760, Note_on_c, 11, 79, 68
16, 266785, Control_c, 11, 11, 105
16, 266820, Control_c, 11, 11, 107
16, 266855, Control_c, 11, 11, 109
16, 266890, Control_c, 11, 11, 110
16, 266925, Control_c, 11, 11, 112
16, 266960, Control_c, 11, 11, 114
16, 266995, Control_c, 11, 11, 115
16, 267030, Control_c, 11, 11, 117
16, 267065, Control_c, 11, 11, 119
16, 267100, Control_c, 11, 11, 120
16, 267104, Note_on_c, 11, 79, 0
16, 267120, Note_on_c, 11, 79, 68
16, 267135, Control_c, 11, 11, 122
16, 267170, Control_c, 11, 11, 124
16, 267205, Control_c, 11, 11, 125
16, 267360, Control_c, 11, 11, 127
16, 267387, Control_c, 11, 11, 125
16, 267413, Control_c, 11, 11, 123
16, 267440, Control_c, 11, 11, 120
16, 267467, Control_c, 11, 11, 118
16, 267493, Control_c, 11, 11, 116
16, 267520, Control_c, 11, 11, 114
16, 267547, Control_c, 11, 11, 111
16, 267573, Control_c, 11, 11, 109
16, 267599, Note_on_c, 11, 79, 0
16, 267600, Control_c, 11, 11, 107
16, 267600, Note_on_c, 11, 77, 68
16, 267627, Control_c, 11, 11, 105
16, 267653, Control_c, 11, 11, 103
16, 267680, Control_c, 11, 11, 100
16, 267707, Control_c, 11, 11, 98
16, 267719, Note_on_c, 11, 77, 0
16, 267720, Note_on_c, 11, 76, 68
16, 267733, Control_c, 11, 11, 96
16, 267760, Control_c, 11, 11, 94
16, 267787, Control_c, 11, 11, 91
16, 267813, Control_c, 11, 11, 89
16, 267839, Note_on_c, 11, 76, 0
16, 269640, Control_c, 11, 11, 127
16, 270000, Note_on_c, 11, 77, 80
16, 270089, Note_on_c, 11, 77, 0
16, 270120, Note_on_c, 11, 74, 80
16, 270209, Note_on_c, 11, 74, 0
16, 270240, Note_on_c, 11, 79, 80
16, 270329, Note_on_c, 11, 79, 0
16, 270360, Note_on_c, 11, 76, 80
16, 270449, Note_on_c, 11, 76, 0
16, 270480, Note_on_c, 11, 73, 80
16, 270569, Note_on_c, 11, 73, 0
16, 270600, Note_on_c, 11, 77, 80
16, 270689, Note_on_c, 11, 77, 0
16, 270720, Note_on_c, 11, 74, 80
16, 270809, Note_on_c, 11, 74, 0
16, 271440, Note_on_c, 11, 77, 80
16, 271529, Note_on_c, 11, 77, 0
16, 271560, Note_on_c, 11, 74, 80
16, 271649, Note_on_c, 11, 74, 0
16, 271680, Note_on_c, 11, 79, 80
16, 271769, Note_on_c, 11, 79, 0
16, 271800, Note_on_c, 11, 76, 80
16, 271889, Note_on_c, 11, 76, 0
16, 271920, Note_on_c, 11, 73, 80
16, 272009, Note_on_c, 11, 73, 0
16, 272040, Note_on_c, 11, 77, 80
16, 272129, Note_on_c, 11, 77, 0
16, 272160, Note_on_c, 11, 86, 80
16, 272324, Note_on_c, 11, 86, 0
16, 272340, Note_on_c, 11, 74, 80
16, 272384, Note_on_c, 11, 74, 0
16, 272400, Note_on_c, 11, 74, 80
16, 272504, Note_on_c, 11, 74, 0
16, 272520, Note_on_c, 11, 69, 80
16, 272639, Note_on_c, 11, 69, 0
16, 272880, Note_on_c, 11, 86, 80
16, 273044, Note_on_c, 11, 86, 0
16, 273060, Note_on_c, 11, 74, 80
16, 273104, Note_on_c, 11, 74, 0
16, 273120, Note_on_c, 11, 74, 80
16, 273224, Note_on_c, 11, 74, 0
16, 273240, Note_on_c, 11, 69, 80
16, 273359, Note_on_c, 11, 69, 0
16, 273600, Note_on_c, 11, 79, 32
16, 273719, Note_on_c, 11, 79, 0
16, 273720, Note_on_c, 11, 76, 32
16, 273839, Note_on_c, 11, 76, 0
16, 273840, Note_on_c, 11, 73, 32
16, 273959, Note_on_c, 11, 73, 0
16, 273960, Note_on_c, 11, 67, 32
16, 274079, Note_on_c, 11, 67, 0
16, 274080, Note_on_c, 11, 64, 32
16, 274199, Note_on_c, 11, 64, 0
16, 274200, Note_on_c, 11, 61, 32
16, 274319, Note_on_c, 11, 61, 0
16, 274320, Note_on_c, 11, 55, 32
16, 274439, Note_on_c, 11, 55, 0
16, 274440, Note_on_c, 11, 61, 32
16, 274559, Note_on_c, 11, 61, 0
16, 274560, Note_on_c, 11, 64, 32
16, 274679, Note_on_c, 11, 64, 0
16, 274680, Note_on_c, 11, 67, 32
16, 274799, Note_on_c, 11, 67, 0
16, 274800, Note_on_c, 11, 73, 32
16, 274919, Note_on_c, 11, 73, 0
16, 274920, Note_on_c, 11, 76, 32
16, 275024, Note_on_c, 11, 76, 0
16, 275040, Note_on_c, 11, 74, 32
16, 275204, Note_on_c, 11, 74, 0
16, 275220, Note_on_c, 11, 62, 32
16, 275264, Note_on_c, 11, 62, 0
16, 275280, Note_on_c, 11, 62, 32
16, 275384, Note_on_c, 11, 62, 0
16, 275400, Note_on_c, 11, 62, 32
16, 275519, Note_on_c, 11, 62, 0
16, 275760, Note_on_c, 11, 74, 32
16, 275924, Note_on_c, 11, 74, 0
16, 275940, Note_on_c, 11, 62, 32
16, 275984, Note_on_c, 11, 62, 0
16, 276000, Note_on_c, 11, 62, 32
16, 276104, Note_on_c, 11, 62, 0
16, 276120, Note_on_c, 11, 62, 32
16, 276239, Note_on_c, 11, 62, 0
16, 277920, Note_on_c, 11, 74, 32
16, 278084, Note_on_c, 11, 74, 0
16, 278100, Note_on_c, 11, 62, 36
16, 278144, Note_on_c, 11, 62, 0
16, 278160, Note_on_c, 11, 62, 37
16, 278264, Note_on_c, 11, 62, 0
16, 278280, Note_on_c, 11, 62, 40
16, 278399, Note_on_c, 11, 62, 0
16, 278640, Note_on_c, 11, 74, 48
16, 278804, Note_on_c, 11, 74, 0
16, 278820, Note_on_c, 11, 62, 52
16, 278864, Note_on_c, 11, 62, 0
16, 278880, Note_on_c, 11, 62, 53
16, 278984, Note_on_c, 11, 62, 0
16, 279000, Note_on_c, 11, 65, 56
16, 279000, Note_on_c, 11, 62, 56
16, 279119, Note_on_c, 11, 65, 0
16, 279119, Note_on_c, 11, 62, 0
16, 279360, Note_on_c, 11, 74, 64
16, 279524, Note_on_c, 11, 74, 0
16, 279540, Note_on_c, 11, 62, 68
16, 279584, Note_on_c, 11, 62, 0
16, 279600, Note_on_c, 11, 62, 69
16, 279704, Note_on_c, 11, 62, 0
16, 279720, Note_on_c, 11, 70, 72
16, 279720, Note_on_c, 11, 62, 72
16, 279839, Note_on_c, 11, 70, 0
16, 279839, Note_on_c, 11, 62, 0
16, 280080, Note_on_c, 11, 74, 80
16, 280244, Note_on_c, 11, 74, 0
16, 280260, Note_on_c, 11, 62, 80
16, 280304, Note_on_c, 11, 62, 0
16, 280320, Note_on_c, 11, 62, 80
16, 280424, Note_on_c, 11, 62, 0
16, 280440, Note_on_c, 11, 73, 92
16, 280440, Note_on_c, 11, 76, 92
16, 280559, Note_on_c, 11, 73, 0
16, 280559, Note_on_c, 11, 76, 0
16, 281160, Note_on_c, 11, 81, 32
16, 281324, Note_on_c, 11, 81, 0
16, 281340, Note_on_c, 11, 69, 32
16, 281384, Note_on_c, 11, 69, 0
16, 281400, Note_on_c, 11, 69, 32
16, 281504, Note_on_c, 11, 69, 0
16, 281520, Note_on_c, 11, 74, 32
16, 281609, Note_on_c, 11, 74, 0
16, 281640, Note_on_c, 11, 76, 32
16, 281729, Note_on_c, 11, 76, 0
16, 281760, Note_on_c, 11, 77, 32
16, 281849, Note_on_c, 11, 77, 0
16, 281880, Note_on_c, 11, 81, 32
16, 281969, Note_on_c, 11, 81, 0
16, 282000, Note_on_c, 11, 82, 32
16, 282089, Note_on_c, 11, 82, 0
16, 282120, Note_on_c, 11, 84, 32
16, 282209, Note_on_c, 11, 84, 0
16, 282240, Note_on_c, 11, 86, 32
16, 282329, Note_on_c, 11, 86, 0
16, 282360, Note_on_c, 11, 84, 32
16, 282449, Note_on_c, 11, 84, 0
16, 282480, Note_on_c, 11, 82, 32
16, 282569, Note_on_c, 11, 82, 0
16, 282600, Note_on_c, 11, 81, 32
16, 282764, Note_on_c, 11, 81, 0
16, 282780, Note_on_c, 11, 69, 32
16, 282824, Note_on_c, 11, 69, 0
16, 282840, Note_on_c, 11, 69, 32
16, 282944, Note_on_c, 11, 69, 0
16, 282960, Note_on_c, 11, 74, 32
16, 283049, Note_on_c, 11, 74, 0
16, 283080, Note_on_c, 11, 76, 32
16, 283169, Note_on_c, 11, 76, 0
16, 283200, Note_on_c, 11, 77, 32
16, 283289, Note_on_c, 11, 77, 0
16, 283320, Note_on_c, 11, 81, 32
16, 283409, Note_on_c, 11, 81, 0
16, 283440, Note_on_c, 11, 82, 32
16, 283529, Note_on_c, 11, 82, 0
16, 283560, Note_on_c, 11, 84, 32
16, 283649, Note_on_c, 11, 84, 0
16, 283680, Note_on_c, 11, 86, 32
16, 283769, Note_on_c, 11, 86, 0
16, 283800, Note_on_c, 11, 84, 32
16, 283889, Note_on_c, 11, 84, 0
16, 283920, Note_on_c, 11, 82, 32
16, 284009, Note_on_c, 11, 82, 0
16, 284040, Note_on_c, 11, 81, 32
16, 284204, Note_on_c, 11, 81, 0
16, 284220, Note_on_c, 11, 69, 35
16, 284264, Note_on_c, 11, 69, 0
16, 284280, Note_on_c, 11, 69, 37
16, 284384, Note_on_c, 11, 69, 0
16, 284400, Note_on_c, 11, 74, 39
16, 284489, Note_on_c, 11, 74, 0
16, 284520, Note_on_c, 11, 76, 42
16, 284609, Note_on_c, 11, 76, 0
16, 284640, Note_on_c, 11, 77, 44
16, 284729, Note_on_c, 11, 77, 0
16, 284760, Note_on_c, 11, 81, 47
16, 284924, Note_on_c, 11, 81, 0
16, 284940, Note_on_c, 11, 69, 50
16, 284984, Note_on_c, 11, 69, 0
16, 285000, Note_on_c, 11, 69, 52
16, 285104, Note_on_c, 11, 69, 0
16, 285120, Note_on_c, 11, 74, 54
16, 285209, Note_on_c, 11, 74, 0
16, 285240, Note_on_c, 11, 76, 57
16, 285329, Note_on_c, 11, 76, 0
16, 285360, Note_on_c, 11, 77, 59
16, 285449, Note_on_c, 11, 77, 0
16, 285480, Note_on_c, 11, 81, 62
16, 285644, Note_on_c, 11, 81, 0
16, 285660, Note_on_c, 11, 69, 65
16, 285704, Note_on_c, 11, 69, 0
16, 285720, Note_on_c, 11, 69, 67
16, 285824, Note_on_c, 11, 69, 0
16, 285840, Note_on_c, 11, 74, 69
16, 285929, Note_on_c, 11, 74, 0
16, 285960, Note_on_c, 11, 76, 72
16, 286049, Note_on_c, 11, 76, 0
16, 286080, Note_on_c, 11, 77, 74
16, 286169, Note_on_c, 11, 77, 0
16, 286200, Note_on_c, 11, 81, 77
16, 286364, Note_on_c, 11, 81, 0
16, 286380, Note_on_c, 11, 69, 80
16, 286424, Note_on_c, 11, 69, 0
16, 286440, Note_on_c, 11, 69, 82
16, 286544, Note_on_c, 11, 69, 0
16, 286560, Note_on_c, 11, 74, 84
16, 286649, Note_on_c, 11, 74, 0
16, 286680, Note_on_c, 11, 76, 87
16, 286769, Note_on_c, 11, 76, 0
16, 286800, Note_on_c, 11, 77, 89
16, 286889, Note_on_c, 11, 77, 0
16, 286920, Note_on_c, 11, 81, 92
16, 287009, Note_on_c, 11, 81, 0
16, 287040, Note_on_c, 11, 69, 92
16, 287129, Note_on_c, 11, 69, 0
16, 287160, Note_on_c, 11, 74, 80
16, 287249, Note_on_c, 11, 74, 0
16, 287280, Note_on_c, 11, 62, 80
16, 287369, Note_on_c, 11, 62, 0
16, 287400, Note_on_c, 11, 69, 80
16, 287489, Note_on_c, 11, 69, 0
16, 287520, Note_on_c, 11, 57, 80
16, 287609, Note_on_c, 11, 57, 0
16, 287640, Note_on_c, 11, 81, 80
16, 287729, Note_on_c, 11, 81, 0
16, 287760, Note_on_c, 11, 69, 80
16, 287849, Note_on_c, 11, 69, 0
16, 287880, Note_on_c, 11, 62, 80
16, 287969, Note_on_c, 11, 62, 0
16, 296520, Control_c, 11, 11, 87
16, 296736, Control_c, 11, 11, 91
16, 296760, Note_on_c, 11, 69, 68
16, 296790, Control_c, 11, 11, 92
16, 296844, Control_c, 11, 11, 93
16, 296898, Control_c, 11, 11, 94
16, 296952, Control_c, 11, 11, 95
16, 297006, Control_c, 11, 11, 96
16, 297060, Control_c, 11, 11, 97
16, 297114, Control_c, 11, 11, 98
16, 297168, Control_c, 11, 11, 99
16, 297222, Control_c, 11, 11, 100
16, 297239, Note_on_c, 11, 69, 0
16, 297240, Note_on_c, 11, 68, 68
16, 297276, Control_c, 11, 11, 101
16, 297330, Control_c, 11, 11, 102
16, 297384, Control_c, 11, 11, 103
16, 297438, Control_c, 11, 11, 104
16, 297459, Note_on_c, 11, 68, 0
16, 297480, Note_on_c, 11, 69, 68
16, 297492, Control_c, 11, 11, 105
16, 297546, Control_c, 11, 11, 106
16, 297600, Control_c, 11, 11, 107
16, 297654, Control_c, 11, 11, 108
16, 297708, Control_c, 11, 11, 109
16, 297719, Note_on_c, 11, 69, 0
16, 297720, Note_on_c, 11, 71, 68
16, 297762, Control_c, 11, 11, 110
16, 297816, Control_c, 11, 11, 111
16, 297839, Note_on_c, 11, 71, 0
16, 297840, Note_on_c, 11, 73, 68
16, 297870, Control_c, 11, 11, 112
16, 297924, Control_c, 11, 11, 113
16, 297959, Note_on_c, 11, 73, 0
16, 297960, Note_on_c, 11, 74, 68
16, 297978, Control_c, 11, 11, 114
16, 298032, Control_c, 11, 11, 115
16, 298079, Note_on_c, 11, 74, 0
16, 298080, Note_on_c, 11, 73, 68
16, 298086, Control_c, 11, 11, 116
16, 298140, Control_c, 11, 11, 117
16, 298194, Control_c, 11, 11, 118
16, 298199, Note_on_c, 11, 73, 0
16, 298200, Note_on_c, 11, 74, 68
16, 298248, Control_c, 11, 11, 119
16, 298302, Control_c, 11, 11, 120
16, 298319, Note_on_c, 11, 74, 0
16, 298320, Note_on_c, 11, 76, 68
16, 298356, Control_c, 11, 11, 121
16, 298410, Control_c, 11, 11, 122
16, 298419, Note_on_c, 11, 76, 0
16, 298440, Note_on_c, 11, 78, 68
16, 298464, Control_c, 11, 11, 123
16, 298518, Control_c, 11, 11, 124
16, 298559, Note_on_c, 11, 78, 0
16, 298560, Note_on_c, 11, 81, 68
16, 298572, Control_c, 11, 11, 125
16, 298626, Control_c, 11, 11, 127
16, 298679, Note_on_c, 11, 81, 0
16, 298680, Note_on_c, 11, 83, 68
16, 298799, Note_on_c, 11, 83, 0
16, 298800, Note_on_c, 11, 79, 56
16, 298899, Note_on_c, 11, 79, 0
16, 298920, Note_on_c, 11, 78, 44
16, 299039, Note_on_c, 11, 78, 0
16, 299160, Note_on_c, 11, 76, 44
16, 299160, Note_on_c, 11, 73, 44
16, 299279, Note_on_c, 11, 76, 0
16, 299279, Note_on_c, 11, 73, 0
16, 299400, Note_on_c, 11, 74, 44
16, 299499, Note_on_c, 11, 74, 0
16, 299520, Note_on_c, 11, 66, 44
16, 299639, Note_on_c, 11, 66, 0
16, 299640, Note_on_c, 11, 62, 44
16, 299759, Note_on_c, 11, 62, 0
16, 299760, Note_on_c, 11, 61, 44
16, 299879, Note_on_c, 11, 61, 0
16, 299880, Note_on_c, 11, 62, 44
16, 299999, Note_on_c, 11, 62, 0
16, 300000, Note_on_c, 11, 64, 44
16, 300119, Note_on_c, 11, 64, 0
16, 300120, Note_on_c, 11, 66, 44
16, 300239, Note_on_c, 11, 66, 0
16, 300240, Note_on_c, 11, 67, 44
16, 300339, Note_on_c, 11, 67, 0
16, 300360, Note_on_c, 11, 64, 44
16, 300479, Note_on_c, 11, 64, 0
16, 301440, Note_on_c, 11, 69, 56
16, 301559, Note_on_c, 11, 69, 0
16, 301560, Note_on_c, 11, 71, 57
16, 301679, Note_on_c, 11, 71, 0
16, 301680, Note_on_c, 11, 73, 58
16, 301799, Note_on_c, 11, 73, 0
16, 301800, Note_on_c, 11, 74, 60
16, 301919, Note_on_c, 11, 74, 0
16, 301920, Note_on_c, 11, 73, 61
16, 302039, Note_on_c, 11, 73, 0
16, 302040, Note_on_c, 11, 74, 62
16, 302159, Note_on_c, 11, 74, 0
16, 302160, Note_on_c, 11, 76, 64
16, 302259, Note_on_c, 11, 76, 0
16, 302280, Note_on_c, 11, 78, 65
16, 302399, Note_on_c, 11, 78, 0
16, 302400, Note_on_c, 11, 81, 66
16, 302519, Note_on_c, 11, 81, 0
16, 302520, Note_on_c, 11, 79, 68
16, 302639, Note_on_c, 11, 79, 0
16, 302640, Note_on_c, 11, 71, 56
16, 302739, Note_on_c, 11, 71, 0
16, 302760, Note_on_c, 11, 74, 44
16, 302879, Note_on_c, 11, 74, 0
16, 303000, Note_on_c, 11, 73, 44
16, 303119, Note_on_c, 11, 73, 0
16, 303240, Note_on_c, 11, 74, 44
16, 303359, Note_on_c, 11, 74, 0
16, 303480, Note_on_c, 11, 86, 44
16, 303569, Note_on_c, 11, 86, 0
16, 303600, Note_on_c, 11, 85, 44
16, 303689, Note_on_c, 11, 85, 0
16, 303720, Note_on_c, 11, 86, 44
16, 303809, Note_on_c, 11, 86, 0
16, 303840, Note_on_c, 11, 83, 44
16, 303929, Note_on_c, 11, 83, 0
16, 303960, Note_on_c, 11, 81, 44
16, 304049, Note_on_c, 11, 81, 0
16, 304080, Note_on_c, 11, 79, 44
16, 304169, Note_on_c, 11, 79, 0
16, 304200, Note_on_c, 11, 78, 44
16, 304289, Note_on_c, 11, 78, 0
16, 304320, Note_on_c, 11, 76, 44
16, 304409, Note_on_c, 11, 76, 0
16, 304440, Note_on_c, 11, 74, 44
16, 304529, Note_on_c, 11, 74, 0
16, 304560, Note_on_c, 11, 72, 44
16, 304649, Note_on_c, 11, 72, 0
16, 304680, Note_on_c, 11, 71, 44
16, 304769, Note_on_c, 11, 71, 0
16, 304800, Note_on_c, 11, 73, 44
16, 304889, Note_on_c, 11, 73, 0
16, 304920, Note_on_c, 11, 74, 44
16, 305009, Note_on_c, 11, 74, 0
16, 305040, Note_on_c, 11, 78, 44
16, 305129, Note_on_c, 11, 78, 0
16, 305160, Note_on_c, 11, 81, 44
16, 305249, Note_on_c, 11, 81, 0
16, 305280, Note_on_c, 11, 79, 44
16, 305369, Note_on_c, 11, 79, 0
16, 305400, Note_on_c, 11, 78, 44
16, 305489, Note_on_c, 11, 78, 0
16, 309240, Note_on_c, 11, 86, 44
16, 309329, Note_on_c, 11, 86, 0
16, 309360, Note_on_c, 11, 85, 44
16, 309449, Note_on_c, 11, 85, 0
16, 309480, Note_on_c, 11, 86, 44
16, 309569, Note_on_c, 11, 86, 0
16, 309600, Note_on_c, 11, 83, 44
16, 309689, Note_on_c, 11, 83, 0
16, 309720, Note_on_c, 11, 81, 44
16, 309809, Note_on_c, 11, 81, 0
16, 309840, Note_on_c, 11, 79, 44
16, 309929, Note_on_c, 11, 79, 0
16, 309960, Note_on_c, 11, 78, 44
16, 310049, Note_on_c, 11, 78, 0
16, 310080, Note_on_c, 11, 76, 44
16, 310169, Note_on_c, 11, 76, 0
16, 310200, Note_on_c, 11, 74, 44
16, 310289, Note_on_c, 11, 74, 0
16, 310320, Note_on_c, 11, 72, 44
16, 310409, Note_on_c, 11, 72, 0
16, 310440, Note_on_c, 11, 71, 44
16, 310529, Note_on_c, 11, 71, 0
16, 310560, Note_on_c, 11, 73, 44
16, 310649, Note_on_c, 11, 73, 0
16, 310680, Note_on_c, 11, 74, 44
16, 310769, Note_on_c, 11, 74, 0
16, 310800, Note_on_c, 11, 78, 44
16, 310889, Note_on_c, 11, 78, 0
16, 310920, Note_on_c, 11, 81, 44
16, 311009, Note_on_c, 11, 81, 0
16, 321000, Note_on_c, 11, 74, 80
16, 321060, Control_c, 11, 11, 67
16, 321480, Control_c, 11, 11, 67
16, 321540, Control_c, 11, 11, 68
16, 321600, Control_c, 11, 11, 69
16, 321660, Control_c, 11, 11, 70
16, 321699, Note_on_c, 11, 74, 0
16, 321720, Control_c, 11, 11, 71
16, 321720, Note_on_c, 11, 76, 80
16, 321780, Control_c, 11, 11, 72
16, 321840, Control_c, 11, 11, 73
16, 321900, Control_c, 11, 11, 74
16, 321939, Note_on_c, 11, 76, 0
16, 321960, Control_c, 11, 11, 75
16, 321960, Note_on_c, 11, 78, 80
16, 322020, Control_c, 11, 11, 76
16, 322080, Control_c, 11, 11, 77
16, 322140, Control_c, 11, 11, 78
16, 322200, Control_c, 11, 11, 79
16, 322260, Control_c, 11, 11, 80
16, 322319, Note_on_c, 11, 78, 0
16, 322320, Note_on_c, 11, 79, 80
16, 322320, Control_c, 11, 11, 81
16, 322379, Note_on_c, 11, 79, 0
16, 322380, Control_c, 11, 11, 82
16, 322380, Note_on_c, 11, 81, 80
16, 322419, Note_on_c, 11, 81, 0
16, 322440, Control_c, 11, 11, 83
16, 322440, Note_on_c, 11, 79, 80
16, 322500, Control_c, 11, 11, 84
16, 322529, Note_on_c, 11, 79, 0
16, 322560, Control_c, 11, 11, 85
16, 322560, Note_on_c, 11, 79, 80
16, 322620, Control_c, 11, 11, 86
16, 322649, Note_on_c, 11, 79, 0
16, 322680, Note_on_c, 11, 78, 80
16, 322680, Control_c, 11, 11, 87
16, 322740, Control_c, 11, 11, 88
16, 322769, Note_on_c, 11, 78, 0
16, 322800, Note_on_c, 11, 78, 80
16, 322800, Control_c, 11, 11, 89
16, 322860, Control_c, 11, 11, 90
16, 322889, Note_on_c, 11, 78, 0
16, 322920, Control_c, 11, 11, 91
16, 322920, Note_on_c, 11, 76, 80
16, 322980, Control_c, 11, 11, 92
16, 323040, Control_c, 11, 11, 93
16, 323100, Control_c, 11, 11, 94
16, 323139, Note_on_c, 11, 76, 0
16, 323160, Note_on_c, 11, 74, 80
16, 323160, Control_c, 11, 11, 95
16, 323220, Control_c, 11, 11, 96
16, 323280, Control_c, 11, 11, 97
16, 323340, Control_c, 11, 11, 98
16, 323400, Control_c, 11, 11, 99
16, 323460, Control_c, 11, 11, 100
16, 323520, Control_c, 11, 11, 101
16, 323580, Control_c, 11, 11, 102
16, 323619, Note_on_c, 11, 74, 0
16, 323640, Note_on_c, 11, 76, 80
16, 323640, Control_c, 11, 11, 103
16, 323700, Control_c, 11, 11, 104
16, 323760, Control_c, 11, 11, 105
16, 323820, Control_c, 11, 11, 106
16, 323859, Note_on_c, 11, 76, 0
16, 323880, Control_c, 11, 11, 107
16, 323880, Note_on_c, 11, 78, 80
16, 323940, Control_c, 11, 11, 108
16, 324000, Control_c, 11, 11, 109
16, 324060, Control_c, 11, 11, 110
16, 324120, Control_c, 11, 11, 111
16, 324180, Control_c, 11, 11, 112
16, 324239, Note_on_c, 11, 78, 0
16, 324240, Control_c, 11, 11, 113
16, 324240, Note_on_c, 11, 79, 80
16, 324299, Note_on_c, 11, 79, 0
16, 324300, Note_on_c, 11, 81, 80
16, 324300, Control_c, 11, 11, 114
16, 324339, Note_on_c, 11, 81, 0
16, 324360, Note_on_c, 11, 79, 80
16, 324360, Control_c, 11, 11, 115
16, 324420, Control_c, 11, 11, 116
16, 324449, Note_on_c, 11, 79, 0
16, 324480, Control_c, 11, 11, 117
16, 324480, Note_on_c, 11, 79, 80
16, 324540, Control_c, 11, 11, 118
16, 324569, Note_on_c, 11, 79, 0
16, 324600, Control_c, 11, 11, 119
16, 324600, Note_on_c, 11, 78, 80
16, 324660, Control_c, 11, 11, 120
16, 324689, Note_on_c, 11, 78, 0
16, 324720, Control_c, 11, 11, 121
16, 324720, Note_on_c, 11, 78, 80
16, 324780, Control_c, 11, 11, 122
16, 324809, Note_on_c, 11, 78, 0
16, 324840, Note_on_c, 11, 76, 80
16, 324840, Control_c, 11, 11, 123
16, 324900, Control_c, 11, 11, 124
16, 324959, Note_on_c, 11, 76, 0
16, 324960, Control_c, 11, 11, 125
16, 325020, Control_c, 11, 11, 127
16, 325080, Note_on_c, 11, 74, 80
16, 325539, Note_on_c, 11, 74, 0
16, 325560, Note_on_c, 11, 76, 80
16, 325779, Note_on_c, 11, 76, 0
16, 325800, Note_on_c, 11, 78, 80
16, 326159, Note_on_c, 11, 78, 0
16, 326160, Note_on_c, 11, 79, 80
16, 326219, Note_on_c, 11, 79, 0
16, 326220, Note_on_c, 11, 81, 80
16, 326259, Note_on_c, 11, 81, 0
16, 326280, Note_on_c, 11, 79, 80
16, 326369, Note_on_c, 11, 79, 0
16, 326400, Note_on_c, 11, 79, 80
16, 326489, Note_on_c, 11, 79, 0
16, 326520, Note_on_c, 11, 78, 80
16, 326609, Note_on_c, 11, 78, 0
16, 326640, Note_on_c, 11, 78, 80
16, 326729, Note_on_c, 11, 78, 0
16, 326760, Note_on_c, 11, 76, 80
16, 326979, Note_on_c, 11, 76, 0
16, 327000, Note_on_c, 11, 74, 80
16, 327459, Note_on_c, 11, 74, 0
16, 327480, Note_on_c, 11, 76, 80
16, 327699, Note_on_c, 11, 76, 0
16, 327720, Note_on_c, 11, 78, 80
16, 328079, Note_on_c, 11, 78, 0
16, 328080, Note_on_c, 11, 79, 80
16, 328139, Note_on_c, 11, 79, 0
16, 328140, Note_on_c, 11, 81, 80
16, 328179, Note_on_c, 11, 81, 0
16, 328200, Note_on_c, 11, 83, 80
16, 328289, Note_on_c, 11, 83, 0
16, 328320, Note_on_c, 11, 83, 80
16, 328409, Note_on_c, 11, 83, 0
16, 328440, Note_on_c, 11, 85, 80
16, 328529, Note_on_c, 11, 85, 0
16, 328560, Note_on_c, 11, 85, 80
16, 328649, Note_on_c, 11, 85, 0
16, 328680, Note_on_c, 11, 86, 80
16, 328799, Note_on_c, 11, 86, 0
16, 329640, Control_c, 11, 11, 87
16, 329856, Control_c, 11, 11, 91
16, 329880, Note_on_c, 11, 69, 68
16, 329910, Control_c, 11, 11, 92
16, 329964, Control_c, 11, 11, 93
16, 330018, Control_c, 11, 11, 94
16, 330072, Control_c, 11, 11, 95
16, 330126, Control_c, 11, 11, 96
16, 330180, Control_c, 11, 11, 97
16, 330234, Control_c, 11, 11, 98
16, 330288, Control_c, 11, 11, 99
16, 330342, Control_c, 11, 11, 100
16, 330359, Note_on_c, 11, 69, 0
16, 330360, Note_on_c, 11, 68, 68
16, 330396, Control_c, 11, 11, 101
16, 330450, Control_c, 11, 11, 102
16, 330504, Control_c, 11, 11, 103
16, 330558, Control_c, 11, 11, 104
16, 330579, Note_on_c, 11, 68, 0
16, 330600, Note_on_c, 11, 69, 68
16, 330612, Control_c, 11, 11, 105
16, 330666, Control_c, 11, 11, 106
16, 330720, Control_c, 11, 11, 107
16, 330774, Control_c, 11, 11, 108
16, 330828, Control_c, 11, 11, 109
16, 330839, Note_on_c, 11, 69, 0
16, 330840, Note_on_c, 11, 71, 68
16, 330882, Control_c, 11, 11, 110
16, 330936, Control_c, 11, 11, 111
16, 330959, Note_on_c, 11, 71, 0
16, 330960, Note_on_c, 11, 73, 68
16, 330990, Control_c, 11, 11, 112
16, 331044, Control_c, 11, 11, 113
16, 331079, Note_on_c, 11, 73, 0
16, 331080, Note_on_c, 11, 74, 68
16, 331098, Control_c, 11, 11, 114
16, 331152, Control_c, 11, 11, 115
16, 331199, Note_on_c, 11, 74, 0
16, 331200, Note_on_c, 11, 73, 68
16, 331206, Control_c, 11, 11, 116
16, 331260, Control_c, 11, 11, 117
16, 331314, Control_c, 11, 11, 118
16, 331319, Note_on_c, 11, 73, 0
16, 331320, Note_on_c, 11, 74, 68
16, 331368, Control_c, 11, 11, 119
16, 331422, Control_c, 11, 11, 120
16, 331439, Note_on_c, 11, 74, 0
16, 331440, Note_on_c, 11, 76, 68
16, 331476, Control_c, 11, 11, 121
16, 331530, Control_c, 11, 11, 122
16, 331539, Note_on_c, 11, 76, 0
16, 331560, Note_on_c, 11, 78, 68
16, 331584, Control_c, 11, 11, 123
16, 331638, Control_c, 11, 11, 124
16, 331679, Note_on_c, 11, 78, 0
16, 331680, Note_on_c, 11, 81, 68
16, 331692, Control_c, 11, 11, 125
16, 331746, Control_c, 11, 11, 127
16, 331799, Note_on_c, 11, 81, 0
16, 331800, Note_on_c, 11, 83, 68
16, 331919, Note_on_c, 11, 83, 0
16, 331920, Note_on_c, 11, 79, 56
16, 332019, Note_on_c, 11, 79, 0
16, 332040, Note_on_c, 11, 78, 44
16, 332159, Note_on_c, 11, 78, 0
16, 332280, Note_on_c, 11, 73, 44
16, 332280, Note_on_c, 11, 76, 44
16, 332399, Note_on_c, 11, 73, 0
16, 332399, Note_on_c, 11, 76, 0
16, 332520, Note_on_c, 11, 74, 44
16, 332619, Note_on_c, 11, 74, 0
16, 332640, Note_on_c, 11, 66, 44
16, 332759, Note_on_c, 11, 66, 0
16, 332760, Note_on_c, 11, 62, 44
16, 332879, Note_on_c, 11, 62, 0
16, 332880, Note_on_c, 11, 61, 44
16, 332999, Note_on_c, 11, 61, 0
16, 333000, Note_on_c, 11, 62, 44
16, 333119, Note_on_c, 11, 62, 0
16, 333120, Note_on_c, 11, 64, 44
16, 333239, Note_on_c, 11, 64, 0
16, 333240, Note_on_c, 11, 66, 44
16, 333359, Note_on_c, 11, 66, 0
16, 333360, Note_on_c, 11, 67, 44
16, 333459, Note_on_c, 11, 67, 0
16, 333480, Note_on_c, 11, 64, 44
16, 333599, Note_on_c, 11, 64, 0
16, 334560, Note_on_c, 11, 69, 56
16, 334679, Note_on_c, 11, 69, 0
16, 334680, Note_on_c, 11, 71, 57
16, 334799, Note_on_c, 11, 71, 0
16, 334800, Note_on_c, 11, 73, 58
16, 334919, Note_on_c, 11, 73, 0
16, 334920, Note_on_c, 11, 74, 60
16, 335039, Note_on_c, 11, 74, 0
16, 335040, Note_on_c, 11, 73, 61
16, 335159, Note_on_c, 11, 73, 0
16, 335160, Note_on_c, 11, 74, 62
16, 335279, Note_on_c, 11, 74, 0
16, 335280, Note_on_c, 11, 76, 64
16, 335379, Note_on_c, 11, 76, 0
16, 335400, Note_on_c, 11, 78, 65
16, 335519, Note_on_c, 11, 78, 0
16, 335520, Note_on_c, 11, 81, 66
16, 335639, Note_on_c, 11, 81, 0
16, 335640, Note_on_c, 11, 79, 68
16, 335759, Note_on_c, 11, 79, 0
16, 335760, Note_on_c, 11, 71, 56
16, 335859, Note_on_c, 11, 71, 0
16, 335880, Note_on_c, 11, 74, 44
16, 335999, Note_on_c, 11, 74, 0
16, 336120, Note_on_c, 11, 73, 44
16, 336239, Note_on_c, 11, 73, 0
16, 336360, Note_on_c, 11, 74, 44
16, 336479, Note_on_c, 11, 74, 0
16, 336600, Note_on_c, 11, 86, 44
16, 336689, Note_on_c, 11, 86, 0
16, 336720, Note_on_c, 11, 85, 44
16, 336809, Note_on_c, 11, 85, 0
16, 336840, Note_on_c, 11, 86, 44
16, 336929, Note_on_c, 11, 86, 0
16, 336960, Note_on_c, 11, 83, 44
16, 337049, Note_on_c, 11, 83, 0
16, 337080, Note_on_c, 11, 81, 44
16, 337169, Note_on_c, 11, 81, 0
16, 337200, Note_on_c, 11, 79, 44
16, 337289, Note_on_c, 11, 79, 0
16, 337320, Note_on_c, 11, 78, 44
16, 337409, Note_on_c, 11, 78, 0
16, 337440, Note_on_c, 11, 76, 44
16, 337529, Note_on_c, 11, 76, 0
16, 337560, Note_on_c, 11, 74, 44
16, 337649, Note_on_c, 11, 74, 0
16, 337680, Note_on_c, 11, 72, 44
16, 337769, Note_on_c, 11, 72, 0
16, 337800, Note_on_c, 11, 71, 44
16, 337889, Note_on_c, 11, 71, 0
16, 337920, Note_on_c, 11, 73, 44
16, 338009, Note_on_c, 11, 73, 0
16, 338040, Note_on_c, 11, 74, 44
16, 338129, Note_on_c, 11, 74, 0
16, 338160, Note_on_c, 11, 78, 44
16, 338249, Note_on_c, 11, 78, 0
16, 338280, Note_on_c, 11, 81, 44
16, 338369, Note_on_c, 11, 81, 0
16, 338400, Note_on_c, 11, 79, 44
16, 338489, Note_on_c, 11, 79, 0
16, 338520, Note_on_c, 11, 78, 44
16, 338609, Note_on_c, 11, 78, 0
16, 342360, Note_on_c, 11, 86, 44
16, 342449, Note_on_c, 11, 86, 0
16, 342480, Note_on_c, 11, 85, 44
16, 342569, Note_on_c, 11, 85, 0
16, 342600, Note_on_c, 11, 86, 44
16, 342689, Note_on_c, 11, 86, 0
16, 342720, Note_on_c, 11, 83, 44
16, 342809, Note_on_c, 11, 83, 0
16, 342840, Note_on_c, 11, 81, 44
16, 342929, Note_on_c, 11, 81, 0
16, 342960, Note_on_c, 11, 79, 44
16, 343049, Note_on_c, 11, 79, 0
16, 343080, Note_on_c, 11, 78, 44
16, 343169, Note_on_c, 11, 78, 0
16, 343200, Note_on_c, 11, 76, 44
16, 343289, Note_on_c, 11, 76, 0
16, 343320, Note_on_c, 11, 74, 44
16, 343409, Note_on_c, 11, 74, 0
16, 343440, Note_on_c, 11, 72, 44
16, 343529, Note_on_c, 11, 72, 0
16, 343560, Note_on_c, 11, 71, 44
16, 343649, Note_on_c, 11, 71, 0
16, 343680, Note_on_c, 11, 73, 44
16, 343769, Note_on_c, 11, 73, 0
16, 343800, Note_on_c, 11, 74, 44
16, 343889, Note_on_c, 11, 74, 0
16, 343920, Note_on_c, 11, 78, 44
16, 344009, Note_on_c, 11, 78, 0
16, 344040, Note_on_c, 11, 81, 44
16, 344129, Note_on_c, 11, 81, 0
16, 354120, Note_on_c, 11, 74, 80
16, 354180, Control_c, 11, 11, 67
16, 354600, Control_c, 11, 11, 67
16, 354660, Control_c, 11, 11, 68
16, 354720, Control_c, 11, 11, 69
16, 354780, Control_c, 11, 11, 70
16, 354819, Note_on_c, 11, 74, 0
16, 354840, Note_on_c, 11, 76, 80
16, 354840, Control_c, 11, 11, 71
16, 354900, Control_c, 11, 11, 72
16, 354960, Control_c, 11, 11, 73
16, 355020, Control_c, 11, 11, 74
16, 355059, Note_on_c, 11, 76, 0
16, 355080, Note_on_c, 11, 78, 80
16, 355080, Control_c, 11, 11, 75
16, 355140, Control_c, 11, 11, 76
16, 355200, Control_c, 11, 11, 77
16, 355260, Control_c, 11, 11, 78
16, 355320, Control_c, 11, 11, 79
16, 355380, Control_c, 11, 11, 80
16, 355439, Note_on_c, 11, 78, 0
16, 355440, Note_on_c, 11, 79, 80
16, 355440, Control_c, 11, 11, 81
16, 355499, Note_on_c, 11, 79, 0
16, 355500, Note_on_c, 11, 81, 80
16, 355500, Control_c, 11, 11, 82
16, 355539, Note_on_c, 11, 81, 0
16, 355560, Note_on_c, 11, 79, 80
16, 355560, Control_c, 11, 11, 83
16, 355620, Control_c, 11, 11, 84
16, 355649, Note_on_c, 11, 79, 0
16, 355680, Control_c, 11, 11, 85
16, 355680, Note_on_c, 11, 79, 80
16, 355740, Control_c, 11, 11, 86
16, 355769, Note_on_c, 11, 79, 0
16, 355800, Note_on_c, 11, 78, 80
16, 355800, Control_c, 11, 11, 87
16, 355860, Control_c, 11, 11, 88
16, 355889, Note_on_c, 11, 78, 0
16, 355920, Control_c, 11, 11, 89
16, 355920, Note_on_c, 11, 78, 80
16, 355980, Control_c, 11, 11, 90
16, 356009, Note_on_c, 11, 78, 0
16, 356040, Control_c, 11, 11, 91
16, 356040, Note_on_c, 11, 76, 80
16, 356100, Control_c, 11, 11, 92
16, 356160, Control_c, 11, 11, 93
16, 356220, Control_c, 11, 11, 94
16, 356259, Note_on_c, 11, 76, 0
16, 356280, Control_c, 11, 11, 95
16, 356280, Note_on_c, 11, 74, 80
16, 356340, Control_c, 11, 11, 96
16, 356400, Control_c, 11, 11, 97
16, 356460, Control_c, 11, 11, 98
16, 356520, Control_c, 11, 11, 99
16, 356580, Control_c, 11, 11, 100
16, 356640, Control_c, 11, 11, 101
16, 356700, Control_c, 11, 11, 102
16, 356739, Note_on_c, 11, 74, 0
16, 356760, Control_c, 11, 11, 103
16, 356760, Note_on_c, 11, 76, 80
16, 356820, Control_c, 11, 11, 104
16, 356880, Control_c, 11, 11, 105
16, 356940, Control_c, 11, 11, 106
16, 356979, Note_on_c, 11, 76, 0
16, 357000, Control_c, 11, 11, 107
16, 357000, Note_on_c, 11, 78, 80
16, 357060, Control_c, 11, 11, 108
16, 357120, Control_c, 11, 11, 109
16, 357180, Control_c, 11, 11, 110
16, 357240, Control_c, 11, 11, 111
16, 357300, Control_c, 11, 11, 112
16, 357359, Note_on_c, 11, 78, 0
16, 357360, Control_c, 11, 11, 113
16, 357360, Note_on_c, 11, 79, 80
16, 357419, Note_on_c, 11, 79, 0
16, 357420, Note_on_c, 11, 81, 80
16, 357420, Control_c, 11, 11, 114
16, 357459, Note_on_c, 11, 81, 0
16, 357480, Control_c, 11, 11, 115
16, 357480, Note_on_c, 11, 79, 80
16, 357540, Control_c, 11, 11, 116
16, 357569, Note_on_c, 11, 79, 0
16, 357600, Control_c, 11, 11, 117
16, 357600, Note_on_c, 11, 79, 80
16, 357660, Control_c, 11, 11, 118
16, 357689, Note_on_c, 11, 79, 0
16, 357720, Control_c, 11, 11, 119
16, 357720, Note_on_c, 11, 78, 80
16, 357780, Control_c, 11, 11, 120
16, 357809, Note_on_c, 11, 78, 0
16, 357840, Note_on_c, 11, 78, 80
16, 357840, Control_c, 11, 11, 121
16, 357900, Control_c, 11, 11, 122
16, 357929, Note_on_c, 11, 78, 0
16, 357960, Note_on_c, 11, 76, 80
16, 357960, Control_c, 11, 11, 123
16, 358020, Control_c, 11, 11, 124
16, 358079, Note_on_c, 11, 76, 0
16, 358080, Control_c, 11, 11, 125
16, 358140, Control_c, 11, 11, 127
16, 358200, Note_on_c, 11, 74, 80
16, 358659, Note_on_c, 11, 74, 0
16, 358680, Note_on_c, 11, 76, 80
16, 358899, Note_on_c, 11, 76, 0
16, 358920, Note_on_c, 11, 78, 80
16, 359279, Note_on_c, 11, 78, 0
16, 359280, Note_on_c, 11, 79, 80
16, 359339, Note_on_c, 11, 79, 0
16, 359340, Note_on_c, 11, 81, 80
16, 359379, Note_on_c, 11, 81, 0
16, 359400, Note_on_c, 11, 79, 80
16, 359489, Note_on_c, 11, 79, 0
16, 359520, Note_on_c, 11, 79, 80
16, 359609, Note_on_c, 11, 79, 0
16, 359640, Note_on_c, 11, 78, 80
16, 359729, Note_on_c, 11, 78, 0
16, 359760, Note_on_c, 11, 78, 80
16, 359849, Note_on_c, 11, 78, 0
16, 359880, Note_on_c, 11, 76, 80
16, 360099, Note_on_c, 11, 76, 0
16, 360120, Note_on_c, 11, 74, 80
16, 360579, Note_on_c, 11, 74, 0
16, 360600, Note_on_c, 11, 76, 80
16, 360819, Note_on_c, 11, 76, 0
16, 360840, Note_on_c, 11, 78, 80
16, 361199, Note_on_c, 11, 78, 0
16, 361200, Note_on_c, 11, 79, 80
16, 361259, Note_on_c, 11, 79, 0
16, 361260, Note_on_c, 11, 81, 80
16, 361299, Note_on_c, 11, 81, 0
16, 361320, Note_on_c, 11, 83, 80
16, 361409, Note_on_c, 11, 83, 0
16, 361440, Note_on_c, 11, 83, 80
16, 361529, Note_on_c, 11, 83, 0
16, 361560, Note_on_c, 11, 85, 80
16, 361649, Note_on_c, 11, 85, 0
16, 361680, Note_on_c, 11, 85, 80
16, 361769, Note_on_c, 11, 85, 0
16, 361800, Note_on_c, 11, 86, 80
16, 361800, Note_on_c, 11, 74, 80
16, 361860, Control_c, 11, 11, 67
16, 362759, Note_on_c, 11, 86, 0
16, 362759, Note_on_c, 11, 74, 0
16, 362760, Note_on_c, 11, 74, 80
16, 362760, Note_on_c, 11, 86, 80
16, 363719, Note_on_c, 11, 74, 0
16, 363719, Note_on_c, 11, 86, 0
16, 363720, Control_c, 11, 11, 67
16, 363720, Note_on_c, 11, 74, 80
16, 363720, Note_on_c, 11, 86, 80
16, 363784, Control_c, 11, 11, 68
16, 363848, Control_c, 11, 11, 69
16, 363912, Control_c, 11, 11, 70
16, 363976, Control_c, 11, 11, 71
16, 364040, Control_c, 11, 11, 72
16, 364104, Control_c, 11, 11, 73
16, 364168, Control_c, 11, 11, 74
16, 364232, Control_c, 11, 11, 75
16, 364296, Control_c, 11, 11, 76
16, 364360, Control_c, 11, 11, 77
16, 364424, Control_c, 11, 11, 78
16, 364488, Control_c, 11, 11, 79
16, 364552, Control_c, 11, 11, 80
16, 364616, Control_c, 11, 11, 81
16, 364679, Note_on_c, 11, 74, 0
16, 364679, Note_on_c, 11, 86, 0
16, 364680, Note_on_c, 11, 74, 80
16, 364680, Control_c, 11, 11, 82
16, 364680, Note_on_c, 11, 86, 80
16, 364744, Control_c, 11, 11, 83
16, 364808, Control_c, 11, 11, 84
16, 364872, Control_c, 11, 11, 85
16, 364936, Control_c, 11, 11, 86
16, 365000, Control_c, 11, 11, 87
16, 365064, Control_c, 11, 11, 88
16, 365128, Control_c, 11, 11, 89
16, 365192, Control_c, 11, 11, 90
16, 365256, Control_c, 11, 11, 91
16, 365320, Control_c, 11, 11, 92
16, 365384, Control_c, 11, 11, 93
16, 365448, Control_c, 11, 11, 94
16, 365512, Control_c, 11, 11, 95
16, 365576, Control_c, 11, 11, 96
16, 365639, Note_on_c, 11, 74, 0
16, 365639, Note_on_c, 11, 86, 0
16, 365640, Note_on_c, 11, 74, 80
16, 365640, Control_c, 11, 11, 97
16, 365640, Note_on_c, 11, 86, 80
16, 365704, Control_c, 11, 11, 98
16, 365768, Control_c, 11, 11, 99
16, 365832, Control_c, 11, 11, 100
16, 365896, Control_c, 11, 11, 101
16, 365960, Control_c, 11, 11, 102
16, 366024, Control_c, 11, 11, 103
16, 366088, Control_c, 11, 11, 104
16, 366152, Control_c, 11, 11, 105
16, 366216, Control_c, 11, 11, 106
16, 366280, Control_c, 11, 11, 107
16, 366344, Control_c, 11, 11, 108
16, 366408, Control_c, 11, 11, 109
16, 366472, Control_c, 11, 11, 110
16, 366536, Control_c, 11, 11, 111
16, 366599, Note_on_c, 11, 74, 0
16, 366599, Note_on_c, 11, 86, 0
16, 366600, Note_on_c, 11, 86, 80
16, 366600, Control_c, 11, 11, 112
16, 366600, Note_on_c, 11, 74, 80
16, 366664, Control_c, 11, 11, 113
16, 366728, Control_c, 11, 11, 114
16, 366792, Control_c, 11, 11, 115
16, 366856, Control_c, 11, 11, 116
16, 366920, Control_c, 11, 11, 117
16, 366984, Control_c, 11, 11, 118
16, 367048, Control_c, 11, 11, 119
16, 367112, Control_c, 11, 11, 120
16, 367176, Control_c, 11, 11, 121
16, 367240, Control_c, 11, 11, 122
16, 367304, Control_c, 11, 11, 123
16, 367368, Control_c, 11, 11, 124
16, 367432, Control_c, 11, 11, 125
16, 367496, Control_c, 11, 11, 127
16, 367539, Note_on_c, 11, 86, 0
16, 367539, Note_on_c, 11, 74, 0
16, 367560, Note_on_c, 11, 86, 80
16, 367560, Note_on_c, 11, 74, 80
16, 367739, Note_on_c, 11, 86, 0
16, 367739, Note_on_c, 11, 74, 0
16, 367800, Note_on_c, 11, 74, 80
16, 367800, Note_on_c, 11, 86, 80
16, 367979, Note_on_c, 11, 74, 0
16, 367979, Note_on_c, 11, 86, 0
16, 368040, Note_on_c, 11, 76, 80
16, 368040, Note_on_c, 11, 85, 80
16, 368219, Note_on_c, 11, 76, 0
16, 368219, Note_on_c, 11, 85, 0
16, 368280, Note_on_c, 11, 76, 80
16, 368280, Note_on_c, 11, 85, 80
16, 368459, Note_on_c, 11, 76, 0
16, 368459, Note_on_c, 11, 85, 0
16, 368520, Control_c, 11, 11, 127
16, 368520, Note_on_c, 11, 74, 80
16, 368520, Note_on_c, 11, 86, 80
16, 368560, Control_c, 11, 11, 125
16, 368600, Control_c, 11, 11, 122
16, 368640, Control_c, 11, 11, 120
16, 368680, Control_c, 11, 11, 117
16, 368699, Note_on_c, 11, 74, 0
16, 368699, Note_on_c, 11, 86, 0
16, 368720, Control_c, 11, 11, 115
16, 368760, Control_c, 11, 11, 112
16, 368760, Note_on_c, 11, 86, 80
16, 368760, Note_on_c, 11, 74, 80
16, 368800, Control_c, 11, 11, 110
16, 368840, Control_c, 11, 11, 107
16, 368880, Control_c, 11, 11, 105
16, 368920, Control_c, 11, 11, 102
16, 368939, Note_on_c, 11, 86, 0
16, 368939, Note_on_c, 11, 74, 0
16, 368960, Control_c, 11, 11, 100
16, 369000, Control_c, 11, 11, 97
16, 369000, Note_on_c, 11, 76, 80
16, 369000, Note_on_c, 11, 85, 80
16, 369040, Control_c, 11, 11, 95
16, 369080, Control_c, 11, 11, 92
16, 369120, Control_c, 11, 11, 90
16, 369160, Control_c, 11, 11, 87
16, 369179, Note_on_c, 11, 76, 0
16, 369179, Note_on_c, 11, 85, 0
16, 369200, Control_c, 11, 11, 85
16, 369240, Control_c, 11, 11, 82
16, 369240, Note_on_c, 11, 85, 80
16, 369240, Note_on_c, 11, 76, 80
16, 369280, Control_c, 11, 11, 80
16, 369320, Control_c, 11, 11, 77
16, 369360, Control_c, 11, 11, 75
16, 369400, Control_c, 11, 11, 72
16, 369419, Note_on_c, 11, 85, 0
16, 369419, Note_on_c, 11, 76, 0
16, 369440, Control_c, 11, 11, 70
16, 369478, Control_c, 11, 11, 67
16, 369480, Note_on_c, 11, 86, 80
16, 369480, Note_on_c, 11, 74, 80
16, 369720, Control_c, 11, 11, 67
16, 369780, Control_c, 11, 11, 68
16, 369840, Control_c, 11, 11, 69
16, 369900, Control_c, 11, 11, 70
16, 369960, Control_c, 11, 11, 71
16, 370020, Control_c, 11, 11, 72
16, 370080, Control_c, 11, 11, 73
16, 370140, Control_c, 11, 11, 74
16, 370200, Control_c, 11, 11, 75
16, 370260, Control_c, 11, 11, 76
16, 370320, Control_c, 11, 11, 77
16, 370380, Control_c, 11, 11, 78
16, 370439, Note_on_c, 11, 86, 0
16, 370439, Note_on_c, 11, 74, 0
16, 370440, Note_on_c, 11, 86, 80
16, 370440, Control_c, 11, 11, 79
16, 370440, Note_on_c, 11, 74, 80
16, 370500, Control_c, 11, 11, 80
16, 370560, Control_c, 11, 11, 81
16, 370620, Control_c, 11, 11, 82
16, 370680, Control_c, 11, 11, 83
16, 370740, Control_c, 11, 11, 84
16, 370800, Control_c, 11, 11, 85
16, 370860, Control_c, 11, 11, 86
16, 370920, Control_c, 11, 11, 87
16, 370980, Control_c, 11, 11, 88
16, 371040, Control_c, 11, 11, 89
16, 371100, Control_c, 11, 11, 90
16, 371160, Control_c, 11, 11, 91
16, 371220, Control_c, 11, 11, 92
16, 371280, Control_c, 11, 11, 93
16, 371340, Control_c, 11, 11, 94
16, 371399, Note_on_c, 11, 86, 0
16, 371399, Note_on_c, 11, 74, 0
16, 371400, Control_c, 11, 11, 95
16, 371400, Note_on_c, 11, 74, 80
16, 371400, Note_on_c, 11, 86, 80
16, 371460, Control_c, 11, 11, 96
16, 371520, Control_c, 11, 11, 97
16, 371580, Control_c, 11, 11, 98
16, 371640, Control_c, 11, 11, 99
16, 371700, Control_c, 11, 11, 100
16, 371760, Control_c, 11, 11, 101
16, 371820, Control_c, 11, 11, 102
16, 371880, Control_c, 11, 11, 103
16, 371940, Control_c, 11, 11, 104
16, 372000, Control_c, 11, 11, 105
16, 372060, Control_c, 11, 11, 106
16, 372120, Control_c, 11, 11, 107
16, 372180, Control_c, 11, 11, 108
16, 372240, Control_c, 11, 11, 109
16, 372300, Control_c, 11, 11, 110
16, 372359, Note_on_c, 11, 74, 0
16, 372359, Note_on_c, 11, 86, 0
16, 372360, Note_on_c, 11, 74, 80
16, 372360, Control_c, 11, 11, 111
16, 372360, Note_on_c, 11, 86, 80
16, 372420, Control_c, 11, 11, 112
16, 372480, Control_c, 11, 11, 113
16, 372540, Control_c, 11, 11, 114
16, 372600, Control_c, 11, 11, 115
16, 372660, Control_c, 11, 11, 116
16, 372720, Control_c, 11, 11, 117
16, 372780, Control_c, 11, 11, 118
16, 372840, Control_c, 11, 11, 119
16, 372900, Control_c, 11, 11, 120
16, 372960, Control_c, 11, 11, 121
16, 373020, Control_c, 11, 11, 122
16, 373080, Control_c, 11, 11, 123
16, 373140, Control_c, 11, 11, 124
16, 373200, Control_c, 11, 11, 125
16, 373260, Control_c, 11, 11, 126
16, 373299, Note_on_c, 11, 74, 0
16, 373299, Note_on_c, 11, 86, 0
16, 373320, Control_c, 11, 11, 127
16, 373320, Note_on_c, 11, 74, 80
16, 373320, Note_on_c, 11, 86, 80
16, 373499, Note_on_c, 11, 74, 0
16, 373499, Note_on_c, 11, 86, 0
16, 373560, Note_on_c, 11, 86, 80
16, 373560, Note_on_c, 11, 74, 80
16, 373739, Note_on_c, 11, 86, 0
16, 373739, Note_on_c, 11, 74, 0
16, 373800, Note_on_c, 11, 76, 80
16, 373800, Note_on_c, 11, 85, 80
16, 373979, Note_on_c, 11, 76, 0
16, 373979, Note_on_c, 11, 85, 0
16, 374040, Note_on_c, 11, 76, 80
16, 374040, Note_on_c, 11, 85, 80
16, 374219, Note_on_c, 11, 76, 0
16, 374219, Note_on_c, 11, 85, 0
16, 374280, Control_c, 11, 11, 127
16, 374280, Note_on_c, 11, 86, 80
16, 374280, Note_on_c, 11, 74, 80
16, 374358, Control_c, 11, 11, 126
16, 374436, Control_c, 11, 11, 125
16, 374459, Note_on_c, 11, 86, 0
16, 374459, Note_on_c, 11, 74, 0
16, 374514, Control_c, 11, 11, 124
16, 374520, Note_on_c, 11, 74, 80
16, 374520, Note_on_c, 11, 86, 80
16, 374592, Control_c, 11, 11, 123
16, 374670, Control_c, 11, 11, 122
16, 374699, Note_on_c, 11, 74, 0
16, 374699, Note_on_c, 11, 86, 0
16, 374748, Control_c, 11, 11, 121
16, 374760, Note_on_c, 11, 85, 80
16, 374760, Note_on_c, 11, 76, 80
16, 374826, Control_c, 11, 11, 120
16, 374904, Control_c, 11, 11, 119
16, 374939, Note_on_c, 11, 85, 0
16, 374939, Note_on_c, 11, 76, 0
16, 374982, Control_c, 11, 11, 118
16, 375000, Note_on_c, 11, 76, 80
16, 375000, Note_on_c, 11, 85, 80
16, 375060, Control_c, 11, 11, 117
16, 375138, Control_c, 11, 11, 116
16, 375179, Note_on_c, 11, 76, 0
16, 375179, Note_on_c, 11, 85, 0
16, 375216, Control_c, 11, 11, 115
16, 375240, Note_on_c, 11, 86, 80
16, 375240, Note_on_c, 11, 74, 80
16, 375294, Control_c, 11, 11, 114
16, 375372, Control_c, 11, 11, 113
16, 375419, Note_on_c, 11, 86, 0
16, 375419, Note_on_c, 11, 74, 0
16, 375450, Control_c, 11, 11, 112
16, 375480, Note_on_c, 11, 74, 80
16, 375480, Note_on_c, 11, 86, 80
16, 375528, Control_c, 11, 11, 111
16, 375606, Control_c, 11, 11, 110
16, 375659, Note_on_c, 11, 74, 0
16, 375659, Note_on_c, 11, 86, 0
16, 375684, Control_c, 11, 11, 109
16, 375720, Note_on_c, 11, 85, 80
16, 375720, Note_on_c, 11, 76, 80
16, 375762, Control_c, 11, 11, 108
16, 375840, Control_c, 11, 11, 107
16, 375899, Note_on_c, 11, 85, 0
16, 375899, Note_on_c, 11, 76, 0
16, 375918, Control_c, 11, 11, 106
16, 375960, Note_on_c, 11, 85, 80
16, 375960, Note_on_c, 11, 76, 80
16, 375996, Control_c, 11, 11, 105
16, 376074, Control_c, 11, 11, 104
16, 376139, Note_on_c, 11, 85, 0
16, 376139, Note_on_c, 11, 76, 0
16, 376152, Control_c, 11, 11, 103
16, 376200, Note_on_c, 11, 74, 80
16, 376200, Note_on_c, 11, 86, 80
16, 376230, Control_c, 11, 11, 102
16, 376308, Control_c, 11, 11, 101
16, 376379, Note_on_c, 11, 74, 0
16, 376379, Note_on_c, 11, 86, 0
16, 376386, Control_c, 11, 11, 100
16, 376440, Note_on_c, 11, 86, 80
16, 376440, Note_on_c, 11, 74, 80
16, 376464, Control_c, 11, 11, 99
16, 376542, Control_c, 11, 11, 98
16, 376619, Note_on_c, 11, 86, 0
16, 376619, Note_on_c, 11, 74, 0
16, 376620, Control_c, 11, 11, 97
16, 376680, Note_on_c, 11, 85, 80
16, 376680, Note_on_c, 11, 76, 80
16, 376698, Control_c, 11, 11, 96
16, 376776, Control_c, 11, 11, 95
16, 376854, Control_c, 11, 11, 94
16, 376859, Note_on_c, 11, 85, 0
16, 376859, Note_on_c, 11, 76, 0
16, 376920, Note_on_c, 11, 76, 80
16, 376920, Note_on_c, 11, 85, 80
16, 376932, Control_c, 11, 11, 93
16, 377010, Control_c, 11, 11, 92
16, 377088, Control_c, 11, 11, 91
16, 377099, Note_on_c, 11, 76, 0
16, 377099, Note_on_c, 11, 85, 0
16, 377160, Note_on_c, 11, 86, 80
16, 377160, Note_on_c, 11, 74, 80
16, 377166, Control_c, 11, 11, 90
16, 377244, Control_c, 11, 11, 89
16, 377322, Control_c, 11, 11, 88
16, 377400, Control_c, 11, 11, 87
16, 377478, Control_c, 11, 11, 86
16, 377556, Control_c, 11, 11, 85
16, 377634, Control_c, 11, 11, 84
16, 377712, Control_c, 11, 11, 83
16, 377790, Control_c, 11, 11, 82
16, 377868, Control_c, 11, 11, 81
16, 377946, Control_c, 11, 11, 80
16, 378024, Control_c, 11, 11, 79
16, 378102, Control_c, 11, 11, 78
16, 378180, Control_c, 11, 11, 77
16, 378219, Note_on_c, 11, 86, 0
16, 378219, Note_on_c, 11, 74, 0
16, 378240, Note_on_c, 11, 74, 80
16, 378258, Control_c, 11, 11, 76
16, 378336, Control_c, 11, 11, 75
16, 378339, Note_on_c, 11, 74, 0
16, 378360, Note_on_c, 11, 74, 80
16, 378414, Control_c, 11, 11, 74
16, 378479, Note_on_c, 11, 74, 0
16, 378480, Note_on_c, 11, 73, 80
16, 378492, Control_c, 11, 11, 73
16, 378570, Control_c, 11, 11, 72
16, 378599, Note_on_c, 11, 73, 0
16, 378600, Note_on_c, 11, 74, 80
16, 378648, Control_c, 11, 11, 71
16, 378719, Note_on_c, 11, 74, 0
16, 378720, Note_on_c, 11, 71, 80
16, 378726, Control_c, 11, 11, 70
16, 378804, Control_c, 11, 11, 69
16, 378839, Note_on_c, 11, 71, 0
16, 378840, Note_on_c, 11, 69, 80
16, 378882, Control_c, 11, 11, 68
16, 378959, Note_on_c, 11, 69, 0
16, 378960, Note_on_c, 11, 67, 80
16, 378960, Control_c, 11, 11, 67
16, 379038, Control_c, 11, 11, 66
16, 379079, Note_on_c, 11, 67, 0
16, 379080, Note_on_c, 11, 74, 80
16, 379116, Control_c, 11, 11, 65
16, 379194, Control_c, 11, 11, 64
16, 379199, Note_on_c, 11, 74, 0
16, 379272, Control_c, 11, 11, 63
16, 379350, Control_c, 11, 11, 62
16, 379428, Control_c, 11, 11, 61
16, 379506, Control_c, 11, 11, 60
16, 379560, Control_c, 11, 11, 127
16, 380520, Note_on_c, 11, 86, 32
16, 380639, Note_on_c, 11, 86, 0
16, 380640, Note_on_c, 11, 82, 32
16, 380759, Note_on_c, 11, 82, 0
16, 380760, Note_on_c, 11, 81, 32
16, 380879, Note_on_c, 11, 81, 0
16, 380880, Note_on_c, 11, 79, 32
16, 381209, Note_on_c, 11, 79, 0
16, 381240, Note_on_c, 11, 86, 92
16, 381404, Note_on_c, 11, 86, 0
16, 381420, Note_on_c, 11, 74, 92
16, 381464, Note_on_c, 11, 74, 0
16, 381480, Note_on_c, 11, 74, 92
16, 381599, Note_on_c, 11, 74, 0
16, 381960, Note_on_c, 11, 81, 104
16, 381989, Note_on_c, 11, 81, 0
16, 381990, Note_on_c, 11, 81, 92
16, 382109, Note_on_c, 11, 81, 0
16, 382140, Note_on_c, 11, 69, 92
16, 382184, Note_on_c, 11, 69, 0
16, 382200, Note_on_c, 11, 69, 92
16, 382319, Note_on_c, 11, 69, 0
16, 383040, Note_on_c, 11, 74, 92
16, 383204, Note_on_c, 11, 74, 0
16, 383220, Note_on_c, 11, 62, 92
16, 383264, Note_on_c, 11, 62, 0
16, 383280, Note_on_c, 11, 62, 92
16, 383399, Note_on_c, 11, 62, 0
16, 388440, Note_on_c, 11, 86, 32
16, 388604, Note_on_c, 11, 86, 0
16, 388620, Note_on_c, 11, 74, 32
16, 388664, Note_on_c, 11, 74, 0
16, 388680, Note_on_c, 11, 74, 32
16, 388784, Note_on_c, 11, 74, 0
16, 388800, Note_on_c, 11, 81, 32
16, 388889, Note_on_c, 11, 81, 0
16, 388920, Note_on_c, 11, 83, 32
16, 389009, Note_on_c, 11, 83, 0
16, 389040, Note_on_c, 11, 84, 32
16, 389129, Note_on_c, 11, 84, 0
16, 389160, Note_on_c, 11, 83, 32
16, 389249, Note_on_c, 11, 83, 0
16, 389280, Note_on_c, 11, 84, 32
16, 389369, Note_on_c, 11, 84, 0
16, 389400, Note_on_c, 11, 86, 32
16, 389489, Note_on_c, 11, 86, 0
16, 389520, Note_on_c, 11, 84, 32
16, 389609, Note_on_c, 11, 84, 0
16, 389640, Note_on_c, 11, 83, 32
16, 389729, Note_on_c, 11, 83, 0
16, 389760, Note_on_c, 11, 81, 32
16, 389849, Note_on_c, 11, 81, 0
16, 389880, Note_on_c, 11, 82, 32
16, 389969, Note_on_c, 11, 82, 0
16, 390000, Note_on_c, 11, 81, 32
16, 390089, Note_on_c, 11, 81, 0
16, 390120, Note_on_c, 11, 79, 32
16, 390209, Note_on_c, 11, 79, 0
16, 390240, Note_on_c, 11, 77, 32
16, 390329, Note_on_c, 11, 77, 0
16, 390360, Note_on_c, 11, 76, 32
16, 390449, Note_on_c, 11, 76, 0
16, 390480, Note_on_c, 11, 74, 32
16, 390569, Note_on_c, 11, 74, 0
16, 390600, Note_on_c, 11, 73, 32
16, 390689, Note_on_c, 11, 73, 0
16, 390720, Note_on_c, 11, 74, 32
16, 390809, Note_on_c, 11, 74, 0
16, 390840, Note_on_c, 11, 76, 32
16, 390929, Note_on_c, 11, 76, 0
16, 390960, Note_on_c, 11, 74, 32
16, 391049, Note_on_c, 11, 74, 0
16, 391080, Note_on_c, 11, 73, 32
16, 391169, Note_on_c, 11, 73, 0
16, 391200, Note_on_c, 11, 74, 32
16, 391289, Note_on_c, 11, 74, 0
16, 391320, Note_on_c, 11, 69, 32
16, 391409, Note_on_c, 11, 69, 0
16, 391440, Note_on_c, 11, 81, 32
16, 391529, Note_on_c, 11, 81, 0
16, 391560, Note_on_c, 11, 81, 32
16, 391649, Note_on_c, 11, 81, 0
16, 391680, Note_on_c, 11, 81, 32
16, 391769, Note_on_c, 11, 81, 0
16, 391800, Note_on_c, 11, 88, 32
16, 391889, Note_on_c, 11, 88, 0
16, 391920, Note_on_c, 11, 88, 32
16, 392009, Note_on_c, 11, 88, 0
16, 392040, Note_on_c, 11, 88, 32
16, 392129, Note_on_c, 11, 88, 0
16, 392160, Note_on_c, 11, 88, 32
16, 392249, Note_on_c, 11, 88, 0
16, 392280, Note_on_c, 11, 88, 32
16, 392369, Note_on_c, 11, 88, 0
16, 392400, Note_on_c, 11, 88, 32
16, 392489, Note_on_c, 11, 88, 0
16, 392520, Note_on_c, 11, 88, 32
16, 392609, Note_on_c, 11, 88, 0
16, 392640, Note_on_c, 11, 81, 32
16, 392729, Note_on_c, 11, 81, 0
16, 392760, Note_on_c, 11, 81, 32
16, 392849, Note_on_c, 11, 81, 0
16, 392880, Note_on_c, 11, 81, 32
16, 392969, Note_on_c, 11, 81, 0
16, 393000, Note_on_c, 11, 81, 32
16, 393089, Note_on_c, 11, 81, 0
16, 393120, Note_on_c, 11, 81, 32
16, 393209, Note_on_c, 11, 81, 0
16, 393240, Note_on_c, 11, 81, 32
16, 393329, Note_on_c, 11, 81, 0
16, 393360, Note_on_c, 11, 81, 32
16, 393449, Note_on_c, 11, 81, 0
16, 393480, Note_on_c, 11, 82, 32
16, 393569, Note_on_c, 11, 82, 0
16, 393600, Note_on_c, 11, 81, 32
16, 393689, Note_on_c, 11, 81, 0
16, 393720, Note_on_c, 11, 79, 32
16, 393809, Note_on_c, 11, 79, 0
16, 393840, Note_on_c, 11, 77, 32
16, 393929, Note_on_c, 11, 77, 0
16, 393960, Note_on_c, 11, 76, 32
16, 394049, Note_on_c, 11, 76, 0
16, 394080, Note_on_c, 11, 74, 32
16, 394169, Note_on_c, 11, 74, 0
16, 394200, Note_on_c, 11, 77, 32
16, 394289, Note_on_c, 11, 77, 0
16, 394320, Note_on_c, 11, 76, 32
16, 394409, Note_on_c, 11, 76, 0
16, 394440, Note_on_c, 11, 74, 32
16, 394529, Note_on_c, 11, 74, 0
16, 394560, Note_on_c, 11, 72, 32
16, 394649, Note_on_c, 11, 72, 0
16, 394680, Note_on_c, 11, 71, 32
16, 394769, Note_on_c, 11, 71, 0
16, 394800, Note_on_c, 11, 69, 32
16, 394889, Note_on_c, 11, 69, 0
16, 394920, Note_on_c, 11, 68, 32
16, 395009, Note_on_c, 11, 68, 0
16, 395040, Note_on_c, 11, 69, 32
16, 395129, Note_on_c, 11, 69, 0
16, 395160, Note_on_c, 11, 71, 32
16, 395249, Note_on_c, 11, 71, 0
16, 395280, Note_on_c, 11, 69, 32
16, 395369, Note_on_c, 11, 69, 0
16, 395400, Note_on_c, 11, 68, 32
16, 395489, Note_on_c, 11, 68, 0
16, 395520, Note_on_c, 11, 69, 32
16, 395609, Note_on_c, 11, 69, 0
16, 395640, Note_on_c, 11, 73, 32
16, 395729, Note_on_c, 11, 73, 0
16, 395760, Note_on_c, 11, 74, 32
16, 395849, Note_on_c, 11, 74, 0
16, 395880, Note_on_c, 11, 76, 32
16, 395969, Note_on_c, 11, 76, 0
16, 396000, Note_on_c, 11, 77, 32
16, 396089, Note_on_c, 11, 77, 0
16, 396120, Note_on_c, 11, 79, 32
16, 396209, Note_on_c, 11, 79, 0
16, 396240, Note_on_c, 11, 81, 32
16, 396329, Note_on_c, 11, 81, 0
16, 396360, Note_on_c, 11, 82, 32
16, 396449, Note_on_c, 11, 82, 0
16, 396480, Note_on_c, 11, 81, 32
16, 396569, Note_on_c, 11, 81, 0
16, 396600, Note_on_c, 11, 79, 32
16, 396689, Note_on_c, 11, 79, 0
16, 396720, Note_on_c, 11, 77, 32
16, 396809, Note_on_c, 11, 77, 0
16, 396840, Note_on_c, 11, 76, 32
16, 396929, Note_on_c, 11, 76, 0
16, 396960, Note_on_c, 11, 74, 32
16, 397049, Note_on_c, 11, 74, 0
16, 397080, Note_on_c, 11, 73, 32
16, 397169, Note_on_c, 11, 73, 0
16, 397200, Note_on_c, 11, 74, 33
16, 397289, Note_on_c, 11, 74, 0
16, 397320, Note_on_c, 11, 76, 35
16, 397409, Note_on_c, 11, 76, 0
16, 397440, Note_on_c, 11, 74, 37
16, 397529, Note_on_c, 11, 74, 0
16, 397560, Note_on_c, 11, 73, 38
16, 397649, Note_on_c, 11, 73, 0
16, 397680, Note_on_c, 11, 74, 40
16, 397769, Note_on_c, 11, 74, 0
16, 397800, Note_on_c, 11, 73, 42
16, 397889, Note_on_c, 11, 73, 0
16, 397920, Note_on_c, 11, 74, 43
16, 398009, Note_on_c, 11, 74, 0
16, 398040, Note_on_c, 11, 76, 45
16, 398129, Note_on_c, 11, 76, 0
16, 398160, Note_on_c, 11, 74, 47
16, 398249, Note_on_c, 11, 74, 0
16, 398280, Note_on_c, 11, 73, 48
16, 398369, Note_on_c, 11, 73, 0
16, 398400, Note_on_c, 11, 74, 50
16, 398489, Note_on_c, 11, 74, 0
16, 398520, Note_on_c, 11, 73, 52
16, 398609, Note_on_c, 11, 73, 0
16, 398640, Note_on_c, 11, 74, 53
16, 398729, Note_on_c, 11, 74, 0
16, 398760, Note_on_c, 11, 76, 55
16, 398849, Note_on_c, 11, 76, 0
16, 398880, Note_on_c, 11, 74, 57
16, 398969, Note_on_c, 11, 74, 0
16, 399000, Note_on_c, 11, 73, 58
16, 399089, Note_on_c, 11, 73, 0
16, 399120, Note_on_c, 11, 74, 60
16, 399209, Note_on_c, 11, 74, 0
16, 399240, Note_on_c, 11, 76, 62
16, 399329, Note_on_c, 11, 76, 0
16, 399360, Note_on_c, 11, 77, 63
16, 399449, Note_on_c, 11, 77, 0
16, 399480, Note_on_c, 11, 79, 65
16, 399569, Note_on_c, 11, 79, 0
16, 399600, Note_on_c, 11, 77, 67
16, 399689, Note_on_c, 11, 77, 0
16, 399720, Note_on_c, 11, 76, 68
16, 399809, Note_on_c, 11, 76, 0
16, 399840, Note_on_c, 11, 77, 70
16, 399929, Note_on_c, 11, 77, 0
16, 399960, Note_on_c, 11, 76, 72
16, 400049, Note_on_c, 11, 76, 0
16, 400080, Note_on_c, 11, 77, 73
16, 400169, Note_on_c, 11, 77, 0
16, 400200, Note_on_c, 11, 79, 75
16, 400289, Note_on_c, 11, 79, 0
16, 400320, Note_on_c, 11, 77, 77
16, 400409, Note_on_c, 11, 77, 0
16, 400440, Note_on_c, 11, 76, 78
16, 400529, Note_on_c, 11, 76, 0
16, 400560, Note_on_c, 11, 77, 80
16, 400649, Note_on_c, 11, 77, 0
16, 400680, Note_on_c, 11, 76, 82
16, 400769, Note_on_c, 11, 76, 0
16, 400800, Note_on_c, 11, 77, 83
16, 400889, Note_on_c, 11, 77, 0
16, 400920, Note_on_c, 11, 79, 85
16, 401009, Note_on_c, 11, 79, 0
16, 401040, Note_on_c, 11, 81, 87
16, 401204, Note_on_c, 11, 81, 0
16, 401220, Note_on_c, 11, 69, 89
16, 401264, Note_on_c, 11, 69, 0
16, 401280, Note_on_c, 11, 69, 90
16, 401384, Note_on_c, 11, 69, 0
16, 401400, Note_on_c, 11, 62, 92
16, 401400, Note_on_c, 11, 81, 92
16, 401400, Note_on_c, 11, 69, 92
16, 401519, Note_on_c, 11, 62, 0
16, 401519, Note_on_c, 11, 69, 0
16, 401564, Note_on_c, 11, 81, 0
16, 401580, Note_on_c, 11, 69, 92
16, 401624, Note_on_c, 11, 69, 0
16, 401640, Note_on_c, 11, 69, 92
16, 401744, Note_on_c, 11, 69, 0
16, 401760, Note_on_c, 11, 74, 92
16, 401864, Note_on_c, 11, 74, 0
16, 401880, Note_on_c, 11, 76, 92
16, 401984, Note_on_c, 11, 76, 0
16, 402000, Note_on_c, 11, 77, 92
16, 402104, Note_on_c, 11, 77, 0
16, 402120, Note_on_c, 11, 76, 92
16, 402224, Note_on_c, 11, 76, 0
16, 402240, Note_on_c, 11, 77, 92
16, 402344, Note_on_c, 11, 77, 0
16, 402360, Note_on_c, 11, 79, 92
16, 402464, Note_on_c, 11, 79, 0
16, 402480, Note_on_c, 11, 77, 92
16, 402584, Note_on_c, 11, 77, 0
16, 402600, Note_on_c, 11, 76, 92
16, 402704, Note_on_c, 11, 76, 0
16, 402720, Note_on_c, 11, 74, 92
16, 402824, Note_on_c, 11, 74, 0
16, 402840, Note_on_c, 11, 82, 80
16, 402944, Note_on_c, 11, 82, 0
16, 402960, Note_on_c, 11, 81, 80
16, 403064, Note_on_c, 11, 81, 0
16, 403080, Note_on_c, 11, 79, 80
16, 403184, Note_on_c, 11, 79, 0
16, 403200, Note_on_c, 11, 77, 80
16, 403304, Note_on_c, 11, 77, 0
16, 403320, Note_on_c, 11, 76, 80
16, 403424, Note_on_c, 11, 76, 0
16, 403440, Note_on_c, 11, 74, 80
16, 403544, Note_on_c, 11, 74, 0
16, 403560, Note_on_c, 11, 73, 80
16, 403664, Note_on_c, 11, 73, 0
16, 403680, Note_on_c, 11, 74, 80
16, 403784, Note_on_c, 11, 74, 0
16, 403800, Note_on_c, 11, 76, 80
16, 403904, Note_on_c, 11, 76, 0
16, 403920, Note_on_c, 11, 74, 80
16, 404024, Note_on_c, 11, 74, 0
16, 404040, Note_on_c, 11, 73, 80
16, 404144, Note_on_c, 11, 73, 0
16, 404160, Note_on_c, 11, 74, 80
16, 404264, Note_on_c, 11, 74, 0
16, 404280, Note_on_c, 11, 82, 80
16, 404384, Note_on_c, 11, 82, 0
16, 404400, Note_on_c, 11, 81, 80
16, 404504, Note_on_c, 11, 81, 0
16, 404520, Note_on_c, 11, 79, 80
16, 404624, Note_on_c, 11, 79, 0
16, 404640, Note_on_c, 11, 77, 80
16, 404744, Note_on_c, 11, 77, 0
16, 404760, Note_on_c, 11, 76, 80
16, 404864, Note_on_c, 11, 76, 0
16, 404880, Note_on_c, 11, 74, 80
16, 404984, Note_on_c, 11, 74, 0
16, 405000, Note_on_c, 11, 73, 80
16, 405104, Note_on_c, 11, 73, 0
16, 405120, Note_on_c, 11, 74, 80
16, 405224, Note_on_c, 11, 74, 0
16, 405240, Note_on_c, 11, 76, 80
16, 405344, Note_on_c, 11, 76, 0
16, 405360, Note_on_c, 11, 74, 80
16, 405464, Note_on_c, 11, 74, 0
16, 405480, Note_on_c, 11, 73, 80
16, 405584, Note_on_c, 11, 73, 0
16, 405600, Note_on_c, 11, 74, 80
16, 405704, Note_on_c, 11, 74, 0
16, 405720, Note_on_c, 11, 81, 80
16, 405824, Note_on_c, 11, 81, 0
16, 405840, Note_on_c, 11, 79, 80
16, 405944, Note_on_c, 11, 79, 0
16, 405960, Note_on_c, 11, 77, 80
16, 406064, Note_on_c, 11, 77, 0
16, 406080, Note_on_c, 11, 76, 80
16, 406184, Note_on_c, 11, 76, 0
16, 406200, Note_on_c, 11, 74, 80
16, 406304, Note_on_c, 11, 74, 0
16, 406320, Note_on_c, 11, 72, 80
16, 406424, Note_on_c, 11, 72, 0
16, 406440, Note_on_c, 11, 71, 80
16, 406544, Note_on_c, 11, 71, 0
16, 406560, Note_on_c, 11, 72, 80
16, 406664, Note_on_c, 11, 72, 0
16, 406680, Note_on_c, 11, 74, 80
16, 406784, Note_on_c, 11, 74, 0
16, 406800, Note_on_c, 11, 72, 80
16, 406904, Note_on_c, 11, 72, 0
16, 406920, Note_on_c, 11, 81, 80
16, 407024, Note_on_c, 11, 81, 0
16, 407040, Note_on_c, 11, 81, 80
16, 407144, Note_on_c, 11, 81, 0
16, 407160, Note_on_c, 11, 81, 80
16, 407264, Note_on_c, 11, 81, 0
16, 407280, Note_on_c, 11, 79, 80
16, 407384, Note_on_c, 11, 79, 0
16, 407400, Note_on_c, 11, 77, 80
16, 407504, Note_on_c, 11, 77, 0
16, 407520, Note_on_c, 11, 76, 80
16, 407624, Note_on_c, 11, 76, 0
16, 407640, Note_on_c, 11, 74, 80
16, 407744, Note_on_c, 11, 74, 0
16, 407760, Note_on_c, 11, 72, 80
16, 407864, Note_on_c, 11, 72, 0
16, 407880, Note_on_c, 11, 79, 80
16, 407984, Note_on_c, 11, 79, 0
16, 408000, Note_on_c, 11, 77, 80
16, 408104, Note_on_c, 11, 77, 0
16, 408120, Note_on_c, 11, 76, 80
16, 408224, Note_on_c, 11, 76, 0
16, 408240, Note_on_c, 11, 88, 80
16, 408344, Note_on_c, 11, 88, 0
16, 408360, Note_on_c, 11, 86, 80
16, 408464, Note_on_c, 11, 86, 0
16, 408480, Note_on_c, 11, 84, 80
16, 408584, Note_on_c, 11, 84, 0
16, 408600, Note_on_c, 11, 74, 80
16, 408600, Note_on_c, 11, 83, 80
16, 408600, Note_on_c, 11, 67, 80
16, 408719, Note_on_c, 11, 74, 0
16, 408719, Note_on_c, 11, 83, 0
16, 408719, Note_on_c, 11, 67, 0
16, 409200, Control_c, 11, 11, 87
16, 409320, Note_on_c, 11, 81, 68
16, 409320, Control_c, 11, 11, 87
16, 409350, Control_c, 11, 11, 88
16, 409380, Control_c, 11, 11, 89
16, 409410, Control_c, 11, 11, 90
16, 409440, Control_c, 11, 11, 91
16, 409470, Control_c, 11, 11, 93
16, 409484, Note_on_c, 11, 81, 0
16, 409500, Note_on_c, 11, 69, 68
16, 409500, Control_c, 11, 11, 94
16, 409530, Control_c, 11, 11, 95
16, 409544, Note_on_c, 11, 69, 0
16, 409560, Note_on_c, 11, 69, 68
16, 409560, Control_c, 11, 11, 96
16, 409590, Control_c, 11, 11, 97
16, 409620, Control_c, 11, 11, 98
16, 409650, Control_c, 11, 11, 99
16, 409664, Note_on_c, 11, 69, 0
16, 409680, Note_on_c, 11, 86, 68
16, 409680, Control_c, 11, 11, 100
16, 409710, Control_c, 11, 11, 101
16, 409740, Control_c, 11, 11, 103
16, 409770, Control_c, 11, 11, 104
16, 409800, Control_c, 11, 11, 105
16, 409830, Control_c, 11, 11, 106
16, 409844, Note_on_c, 11, 86, 0
16, 409860, Note_on_c, 11, 74, 68
16, 409860, Control_c, 11, 11, 107
16, 409890, Control_c, 11, 11, 108
16, 409904, Note_on_c, 11, 74, 0
16, 409920, Note_on_c, 11, 74, 68
16, 409920, Control_c, 11, 11, 109
16, 409950, Control_c, 11, 11, 110
16, 409980, Control_c, 11, 11, 111
16, 410010, Control_c, 11, 11, 113
16, 410024, Note_on_c, 11, 74, 0
16, 410040, Note_on_c, 11, 86, 68
16, 410040, Control_c, 11, 11, 114
16, 410070, Control_c, 11, 11, 115
16, 410100, Control_c, 11, 11, 116
16, 410130, Control_c, 11, 11, 117
16, 410160, Control_c, 11, 11, 118
16, 410190, Control_c, 11, 11, 119
16, 410204, Note_on_c, 11, 86, 0
16, 410220, Note_on_c, 11, 74, 68
16, 410220, Control_c, 11, 11, 120
16, 410250, Control_c, 11, 11, 121
16, 410264, Note_on_c, 11, 74, 0
16, 410280, Control_c, 11, 11, 123
16, 410280, Note_on_c, 11, 74, 68
16, 410310, Control_c, 11, 11, 124
16, 410340, Control_c, 11, 11, 125
16, 410370, Control_c, 11, 11, 127
16, 410384, Note_on_c, 11, 74, 0
16, 410400, Note_on_c, 11, 84, 68
16, 410564, Note_on_c, 11, 84, 0
16, 410580, Control_c, 11, 11, 127
16, 410580, Note_on_c, 11, 72, 68
16, 410605, Control_c, 11, 11, 126
16, 410624, Note_on_c, 11, 72, 0
16, 410630, Control_c, 11, 11, 125
16, 410640, Note_on_c, 11, 72, 68
16, 410655, Control_c, 11, 11, 124
16, 410680, Control_c, 11, 11, 123
16, 410705, Control_c, 11, 11, 121
16, 410730, Control_c, 11, 11, 120
16, 410744, Note_on_c, 11, 72, 0
16, 410755, Control_c, 11, 11, 119
16, 410760, Note_on_c, 11, 84, 68
16, 410780, Control_c, 11, 11, 118
16, 410805, Control_c, 11, 11, 117
16, 410830, Control_c, 11, 11, 116
16, 410855, Control_c, 11, 11, 115
16, 410880, Control_c, 11, 11, 114
16, 410905, Control_c, 11, 11, 113
16, 410924, Note_on_c, 11, 84, 0
16, 410930, Control_c, 11, 11, 111
16, 410940, Note_on_c, 11, 72, 68
16, 410955, Control_c, 11, 11, 110
16, 410980, Control_c, 11, 11, 109
16, 410984, Note_on_c, 11, 72, 0
16, 411000, Note_on_c, 11, 72, 68
16, 411005, Control_c, 11, 11, 108
16, 411030, Control_c, 11, 11, 107
16, 411055, Control_c, 11, 11, 106
16, 411080, Control_c, 11, 11, 105
16, 411104, Note_on_c, 11, 72, 0
16, 411105, Control_c, 11, 11, 104
16, 411120, Note_on_c, 11, 83, 68
16, 411130, Control_c, 11, 11, 103
16, 411155, Control_c, 11, 11, 101
16, 411180, Control_c, 11, 11, 100
16, 411205, Control_c, 11, 11, 99
16, 411230, Control_c, 11, 11, 98
16, 411255, Control_c, 11, 11, 97
16, 411280, Control_c, 11, 11, 96
16, 411284, Note_on_c, 11, 83, 0
16, 411300, Note_on_c, 11, 71, 68
16, 411305, Control_c, 11, 11, 95
16, 411330, Control_c, 11, 11, 94
16, 411344, Note_on_c, 11, 71, 0
16, 411355, Control_c, 11, 11, 93
16, 411360, Note_on_c, 11, 71, 68
16, 411380, Control_c, 11, 11, 91
16, 411405, Control_c, 11, 11, 90
16, 411430, Control_c, 11, 11, 89
16, 411455, Control_c, 11, 11, 87
16, 411479, Note_on_c, 11, 71, 0
16, 412515, Control_c, 11, 11, 59
16, 412560, Control_c, 11, 11, 60
16, 412560, Note_on_c, 11, 86, 92
16, 412605, Control_c, 11, 11, 62
16, 412650, Control_c, 11, 11, 64
16, 412695, Control_c, 11, 11, 65
16, 412724, Note_on_c, 11, 86, 0
16, 412740, Control_c, 11, 11, 67
16, 412740, Note_on_c, 11, 74, 92
16, 412784, Note_on_c, 11, 74, 0
16, 412785, Control_c, 11, 11, 69
16, 412800, Note_on_c, 11, 74, 92
16, 412830, Control_c, 11, 11, 70
16, 412875, Control_c, 11, 11, 72
16, 412904, Note_on_c, 11, 74, 0
16, 412920, Control_c, 11, 11, 74
16, 412920, Note_on_c, 11, 86, 92
16, 412965, Control_c, 11, 11, 75
16, 413010, Control_c, 11, 11, 77
16, 413055, Control_c, 11, 11, 79
16, 413084, Note_on_c, 11, 86, 0
16, 413100, Control_c, 11, 11, 80
16, 413100, Note_on_c, 11, 74, 92
16, 413144, Note_on_c, 11, 74, 0
16, 413145, Control_c, 11, 11, 82
16, 413160, Note_on_c, 11, 74, 92
16, 413190, Control_c, 11, 11, 84
16, 413235, Control_c, 11, 11, 85
16, 413264, Note_on_c, 11, 74, 0
16, 413280, Control_c, 11, 11, 87
16, 413280, Note_on_c, 11, 84, 92
16, 413325, Control_c, 11, 11, 89
16, 413370, Control_c, 11, 11, 90
16, 413415, Control_c, 11, 11, 92
16, 413444, Note_on_c, 11, 84, 0
16, 413460, Control_c, 11, 11, 94
16, 413460, Note_on_c, 11, 72, 92
16, 413504, Note_on_c, 11, 72, 0
16, 413505, Control_c, 11, 11, 95
16, 413520, Note_on_c, 11, 72, 92
16, 413550, Control_c, 11, 11, 97
16, 413595, Control_c, 11, 11, 99
16, 413624, Note_on_c, 11, 72, 0
16, 413640, Note_on_c, 11, 84, 92
16, 413640, Control_c, 11, 11, 100
16, 413685, Control_c, 11, 11, 102
16, 413730, Control_c, 11, 11, 104
16, 413775, Control_c, 11, 11, 105
16, 413804, Note_on_c, 11, 84, 0
16, 413820, Note_on_c, 11, 72, 92
16, 413820, Control_c, 11, 11, 107
16, 413864, Note_on_c, 11, 72, 0
16, 413865, Control_c, 11, 11, 109
16, 413880, Note_on_c, 11, 72, 92
16, 413910, Control_c, 11, 11, 110
16, 413955, Control_c, 11, 11, 112
16, 413984, Note_on_c, 11, 72, 0
16, 414000, Control_c, 11, 11, 114
16, 414000, Note_on_c, 11, 83, 92
16, 414045, Control_c, 11, 11, 115
16, 414090, Control_c, 11, 11, 117
16, 414135, Control_c, 11, 11, 119
16, 414164, Note_on_c, 11, 83, 0
16, 414180, Control_c, 11, 11, 120
16, 414180, Note_on_c, 11, 71, 92
16, 414224, Note_on_c, 11, 71, 0
16, 414225, Control_c, 11, 11, 122
16, 414240, Note_on_c, 11, 71, 92
16, 414270, Control_c, 11, 11, 124
16, 414315, Control_c, 11, 11, 127
16, 414344, Note_on_c, 11, 71, 0
16, 414360, Note_on_c, 11, 84, 92
16, 414524, Note_on_c, 11, 84, 0
16, 414540, Note_on_c, 11, 72, 92
16, 414584, Note_on_c, 11, 72, 0
16, 414600, Note_on_c, 11, 72, 92
16, 414704, Note_on_c, 11, 72, 0
16, 414720, Note_on_c, 11, 84, 92
16, 414884, Note_on_c, 11, 84, 0
16, 414900, Note_on_c, 11, 72, 92
16, 414944, Note_on_c, 11, 72, 0
16, 414960, Note_on_c, 11, 72, 92
16, 415064, Note_on_c, 11, 72, 0
16, 415080, Note_on_c, 11, 84, 92
16, 415244, Note_on_c, 11, 84, 0
16, 415260, Note_on_c, 11, 72, 92
16, 415304, Note_on_c, 11, 72, 0
16, 415320, Note_on_c, 11, 72, 92
16, 415424, Note_on_c, 11, 72, 0
16, 415440, Note_on_c, 11, 84, 92
16, 415604, Note_on_c, 11, 84, 0
16, 415620, Note_on_c, 11, 72, 92
16, 415664, Note_on_c, 11, 72, 0
16, 415680, Note_on_c, 11, 72, 92
16, 415784, Note_on_c, 11, 72, 0
16, 415800, Note_on_c, 11, 84, 92
16, 415964, Note_on_c, 11, 84, 0
16, 415980, Note_on_c, 11, 72, 92
16, 416024, Note_on_c, 11, 72, 0
16, 416040, Note_on_c, 11, 72, 92
16, 416144, Note_on_c, 11, 72, 0
16, 416160, Note_on_c, 11, 84, 92
16, 416324, Note_on_c, 11, 84, 0
16, 416340, Note_on_c, 11, 72, 92
16, 416384, Note_on_c, 11, 72, 0
16, 416400, Note_on_c, 11, 72, 92
16, 416504, Note_on_c, 11, 72, 0
16, 416520, Note_on_c, 11, 84, 92
16, 416684, Note_on_c, 11, 84, 0
16, 416700, Note_on_c, 11, 72, 92
16, 416744, Note_on_c, 11, 72, 0
16, 416760, Note_on_c, 11, 72, 92
16, 416864, Note_on_c, 11, 72, 0
16, 416880, Note_on_c, 11, 84, 92
16, 417044, Note_on_c, 11, 84, 0
16, 417060, Note_on_c, 11, 72, 92
16, 417104, Note_on_c, 11, 72, 0
16, 417120, Note_on_c, 11, 72, 92
16, 417224, Note_on_c, 11, 72, 0
16, 417240, Note_on_c, 11, 84, 92
16, 417404, Note_on_c, 11, 84, 0
16, 417420, Note_on_c, 11, 72, 92
16, 417464, Note_on_c, 11, 72, 0
16, 417480, Note_on_c, 11, 72, 92
16, 417584, Note_on_c, 11, 72, 0
16, 417600, Note_on_c, 11, 84, 92
16, 417764, Note_on_c, 11, 84, 0
16, 417780, Note_on_c, 11, 72, 92
16, 417824, Note_on_c, 11, 72, 0
16, 417840, Note_on_c, 11, 72, 92
16, 417944, Note_on_c, 11, 72, 0
16, 417960, Note_on_c, 11, 84, 92
16, 418124, Note_on_c, 11, 84, 0
16, 418140, Note_on_c, 11, 72, 92
16, 418184, Note_on_c, 11, 72, 0
16, 418200, Note_on_c, 11, 72, 92
16, 418304, Note_on_c, 11, 72, 0
16, 418320, Note_on_c, 11, 84, 92
16, 418484, Note_on_c, 11, 84, 0
16, 418500, Note_on_c, 11, 72, 92
16, 418544, Note_on_c, 11, 72, 0
16, 418560, Note_on_c, 11, 72, 92
16, 418664, Note_on_c, 11, 72, 0
16, 418680, Note_on_c, 11, 84, 92
16, 418844, Note_on_c, 11, 84, 0
16, 418860, Note_on_c, 11, 72, 92
16, 418904, Note_on_c, 11, 72, 0
16, 418920, Note_on_c, 11, 72, 92
16, 419024, Note_on_c, 11, 72, 0
16, 419040, Note_on_c, 11, 84, 92
16, 419204, Note_on_c, 11, 84, 0
16, 419220, Note_on_c, 11, 72, 92
16, 419264, Note_on_c, 11, 72, 0
16, 419280, Note_on_c, 11, 72, 92
16, 419384, Note_on_c, 11, 72, 0
16, 419400, Note_on_c, 11, 84, 92
16, 419564, Note_on_c, 11, 84, 0
16, 419580, Note_on_c, 11, 72, 92
16, 419624, Note_on_c, 11, 72, 0
16, 419640, Note_on_c, 11, 72, 92
16, 419744, Note_on_c, 11, 72, 0
16, 419760, Note_on_c, 11, 84, 92
16, 419924, Note_on_c, 11, 84, 0
16, 419940, Note_on_c, 11, 72, 92
16, 419984, Note_on_c, 11, 72, 0
16, 420000, Note_on_c, 11, 72, 92
16, 420104, Note_on_c, 11, 72, 0
16, 420120, Note_on_c, 11, 84, 92
16, 420239, Note_on_c, 11, 84, 0
16, 420840, Note_on_c, 11, 81, 92
16, 421004, Note_on_c, 11, 81, 0
16, 421020, Note_on_c, 11, 69, 92
16, 421064, Note_on_c, 11, 69, 0
16, 421080, Note_on_c, 11, 69, 92
16, 421184, Note_on_c, 11, 69, 0
16, 421200, Note_on_c, 11, 81, 92
16, 421289, Note_on_c, 11, 81, 0
16, 421320, Note_on_c, 11, 77, 92
16, 421409, Note_on_c, 11, 77, 0
16, 421440, Note_on_c, 11, 76, 92
16, 421529, Note_on_c, 11, 76, 0
16, 421560, Note_on_c, 11, 74, 92
16, 421679, Note_on_c, 11, 74, 0
16, 422280, Note_on_c, 11, 79, 92
16, 422444, Note_on_c, 11, 79, 0
16, 422460, Note_on_c, 11, 67, 92
16, 422504, Note_on_c, 11, 67, 0
16, 422520, Note_on_c, 11, 67, 92
16, 422624, Note_on_c, 11, 67, 0
16, 422640, Note_on_c, 11, 79, 92
16, 422729, Note_on_c, 11, 79, 0
16, 422760, Note_on_c, 11, 76, 92
16, 422849, Note_on_c, 11, 76, 0
16, 422880, Note_on_c, 11, 74, 92
16, 422969, Note_on_c, 11, 74, 0
16, 422998, Control_c, 11, 11, 87
16, 423000, Note_on_c, 11, 72, 68
16, 423479, Note_on_c, 11, 72, 0
16, 423480, Note_on_c, 11, 74, 68
16, 423599, Note_on_c, 11, 74, 0
16, 423600, Note_on_c, 11, 76, 68
16, 423719, Note_on_c, 11, 76, 0
16, 423720, Note_on_c, 11, 77, 68
16, 423720, Control_c, 11, 11, 87
16, 423750, Control_c, 11, 11, 89
16, 423780, Control_c, 11, 11, 90
16, 423810, Control_c, 11, 11, 92
16, 423840, Control_c, 11, 11, 94
16, 423870, Control_c, 11, 11, 95
16, 423900, Control_c, 11, 11, 97
16, 423930, Control_c, 11, 11, 99
16, 423960, Control_c, 11, 11, 100
16, 423990, Control_c, 11, 11, 102
16, 424020, Control_c, 11, 11, 104
16, 424050, Control_c, 11, 11, 105
16, 424079, Note_on_c, 11, 77, 0
16, 424080, Control_c, 11, 11, 107
16, 424080, Note_on_c, 11, 76, 68
16, 424110, Control_c, 11, 11, 109
16, 424140, Control_c, 11, 11, 110
16, 424170, Control_c, 11, 11, 112
16, 424200, Control_c, 11, 11, 114
16, 424230, Control_c, 11, 11, 115
16, 424260, Control_c, 11, 11, 117
16, 424290, Control_c, 11, 11, 119
16, 424320, Control_c, 11, 11, 120
16, 424350, Control_c, 11, 11, 122
16, 424380, Control_c, 11, 11, 124
16, 424410, Control_c, 11, 11, 125
16, 424424, Note_on_c, 11, 76, 0
16, 424440, Control_c, 11, 11, 127
16, 424440, Note_on_c, 11, 76, 68
16, 424470, Control_c, 11, 11, 125
16, 424500, Control_c, 11, 11, 124
16, 424530, Control_c, 11, 11, 122
16, 424560, Control_c, 11, 11, 120
16, 424590, Control_c, 11, 11, 119
16, 424620, Control_c, 11, 11, 117
16, 424650, Control_c, 11, 11, 115
16, 424680, Control_c, 11, 11, 114
16, 424710, Control_c, 11, 11, 112
16, 424740, Control_c, 11, 11, 110
16, 424770, Control_c, 11, 11, 109
16, 424800, Control_c, 11, 11, 107
16, 424830, Control_c, 11, 11, 105
16, 424860, Control_c, 11, 11, 104
16, 424890, Control_c, 11, 11, 102
16, 424919, Note_on_c, 11, 76, 0
16, 424920, Control_c, 11, 11, 100
16, 424920, Note_on_c, 11, 74, 68
16, 424950, Control_c, 11, 11, 99
16, 424980, Control_c, 11, 11, 97
16, 425010, Control_c, 11, 11, 95
16, 425039, Note_on_c, 11, 74, 0
16, 425040, Note_on_c, 11, 72, 68
16, 425040, Control_c, 11, 11, 94
16, 425070, Control_c, 11, 11, 92
16, 425100, Control_c, 11, 11, 90
16, 425130, Control_c, 11, 11, 87
16, 425159, Note_on_c, 11, 72, 0
16, 426960, Control_c, 11, 11, 127
16, 427320, Note_on_c, 11, 88, 80
16, 427409, Note_on_c, 11, 88, 0
16, 427440, Note_on_c, 11, 84, 80
16, 427529, Note_on_c, 11, 84, 0
16, 427560, Note_on_c, 11, 89, 80
16, 427649, Note_on_c, 11, 89, 0
16, 427680, Note_on_c, 11, 86, 80
16, 427769, Note_on_c, 11, 86, 0
16, 427800, Note_on_c, 11, 83, 80
16, 427889, Note_on_c, 11, 83, 0
16, 427920, Note_on_c, 11, 88, 80
16, 428009, Note_on_c, 11, 88, 0
16, 428040, Note_on_c, 11, 84, 80
16, 428159, Note_on_c, 11, 84, 0
16, 428760, Note_on_c, 11, 88, 80
16, 428849, Note_on_c, 11, 88, 0
16, 428880, Note_on_c, 11, 84, 80
16, 428969, Note_on_c, 11, 84, 0
16, 429000, Note_on_c, 11, 89, 80
16, 429089, Note_on_c, 11, 89, 0
16, 429120, Note_on_c, 11, 86, 80
16, 429209, Note_on_c, 11, 86, 0
16, 429240, Note_on_c, 11, 83, 80
16, 429329, Note_on_c, 11, 83, 0
16, 429360, Note_on_c, 11, 88, 80
16, 429449, Note_on_c, 11, 88, 0
16, 429480, Note_on_c, 11, 84, 80
16, 429644, Note_on_c, 11, 84, 0
16, 429660, Note_on_c, 11, 72, 80
16, 429704, Note_on_c, 11, 72, 0
16, 429720, Note_on_c, 11, 72, 80
16, 429824, Note_on_c, 11, 72, 0
16, 429840, Note_on_c, 11, 67, 80
16, 429959, Note_on_c, 11, 67, 0
16, 430200, Note_on_c, 11, 84, 80
16, 430364, Note_on_c, 11, 84, 0
16, 430380, Note_on_c, 11, 72, 80
16, 430424, Note_on_c, 11, 72, 0
16, 430440, Note_on_c, 11, 72, 80
16, 430544, Note_on_c, 11, 72, 0
16, 430560, Note_on_c, 11, 67, 80
16, 430679, Note_on_c, 11, 67, 0
16, 430920, Note_on_c, 11, 77, 32
16, 431039, Note_on_c, 11, 77, 0
16, 431040, Note_on_c, 11, 76, 32
16, 431159, Note_on_c, 11, 76, 0
16, 431160, Note_on_c, 11, 74, 32
16, 431279, Note_on_c, 11, 74, 0
16, 431280, Note_on_c, 11, 72, 32
16, 431399, Note_on_c, 11, 72, 0
16, 431400, Note_on_c, 11, 71, 32
16, 431519, Note_on_c, 11, 71, 0
16, 431520, Note_on_c, 11, 69, 32
16, 431639, Note_on_c, 11, 69, 0
16, 431640, Note_on_c, 11, 67, 32
16, 431759, Note_on_c, 11, 67, 0
16, 431760, Note_on_c, 11, 69, 32
16, 431879, Note_on_c, 11, 69, 0
16, 431880, Note_on_c, 11, 67, 32
16, 431999, Note_on_c, 11, 67, 0
16, 432000, Note_on_c, 11, 65, 32
16, 432119, Note_on_c, 11, 65, 0
16, 432120, Note_on_c, 11, 64, 32
16, 432239, Note_on_c, 11, 64, 0
16, 432240, Note_on_c, 11, 62, 32
16, 432299, Note_on_c, 11, 62, 0
16, 432300, Note_on_c, 11, 71, 32
16, 432344, Note_on_c, 11, 71, 0
16, 432360, Note_on_c, 11, 72, 32
16, 432524, Note_on_c, 11, 72, 0
16, 432540, Note_on_c, 11, 60, 32
16, 432584, Note_on_c, 11, 60, 0
16, 432600, Note_on_c, 11, 60, 32
16, 432704, Note_on_c, 11, 60, 0
16, 432720, Note_on_c, 11, 60, 32
16, 432839, Note_on_c, 11, 60, 0
16, 433080, Note_on_c, 11, 72, 32
16, 433244, Note_on_c, 11, 72, 0
16, 433260, Note_on_c, 11, 60, 32
16, 433304, Note_on_c, 11, 60, 0
16, 433320, Note_on_c, 11, 60, 32
16, 433424, Note_on_c, 11, 60, 0
16, 433440, Note_on_c, 11, 62, 32
16, 433559, Note_on_c, 11, 62, 0
16, 439560, Note_on_c, 11, 86, 32
16, 439724, Note_on_c, 11, 86, 0
16, 439740, Note_on_c, 11, 74, 32
16, 439784, Note_on_c, 11, 74, 0
16, 439800, Note_on_c, 11, 74, 32
16, 439904, Note_on_c, 11, 74, 0
16, 439920, Note_on_c, 11, 81, 32
16, 440009, Note_on_c, 11, 81, 0
16, 440040, Note_on_c, 11, 83, 32
16, 440129, Note_on_c, 11, 83, 0
16, 440160, Note_on_c, 11, 84, 32
16, 440249, Note_on_c, 11, 84, 0
16, 440280, Note_on_c, 11, 83, 32
16, 440369, Note_on_c, 11, 83, 0
16, 440400, Note_on_c, 11, 84, 32
16, 440489, Note_on_c, 11, 84, 0
16, 440520, Note_on_c, 11, 86, 32
16, 440609, Note_on_c, 11, 86, 0
16, 440640, Note_on_c, 11, 84, 32
16, 440729, Note_on_c, 11, 84, 0
16, 440760, Note_on_c, 11, 83, 32
16, 440849, Note_on_c, 11, 83, 0
16, 440880, Note_on_c, 11, 81, 32
16, 440969, Note_on_c, 11, 81, 0
16, 441000, Note_on_c, 11, 82, 32
16, 441089, Note_on_c, 11, 82, 0
16, 441120, Note_on_c, 11, 81, 32
16, 441209, Note_on_c, 11, 81, 0
16, 441240, Note_on_c, 11, 79, 32
16, 441329, Note_on_c, 11, 79, 0
16, 441360, Note_on_c, 11, 77, 32
16, 441449, Note_on_c, 11, 77, 0
16, 441480, Note_on_c, 11, 76, 32
16, 441569, Note_on_c, 11, 76, 0
16, 441600, Note_on_c, 11, 74, 32
16, 441689, Note_on_c, 11, 74, 0
16, 441720, Note_on_c, 11, 73, 32
16, 441809, Note_on_c, 11, 73, 0
16, 441840, Note_on_c, 11, 74, 32
16, 441929, Note_on_c, 11, 74, 0
16, 441960, Note_on_c, 11, 76, 32
16, 442049, Note_on_c, 11, 76, 0
16, 442080, Note_on_c, 11, 74, 32
16, 442169, Note_on_c, 11, 74, 0
16, 442200, Note_on_c, 11, 73, 32
16, 442289, Note_on_c, 11, 73, 0
16, 442320, Note_on_c, 11, 74, 32
16, 442409, Note_on_c, 11, 74, 0
16, 442440, Note_on_c, 11, 69, 32
16, 442529, Note_on_c, 11, 69, 0
16, 442560, Note_on_c, 11, 81, 32
16, 442649, Note_on_c, 11, 81, 0
16, 442680, Note_on_c, 11, 81, 32
16, 442769, Note_on_c, 11, 81, 0
16, 442800, Note_on_c, 11, 81, 32
16, 442889, Note_on_c, 11, 81, 0
16, 442920, Note_on_c, 11, 88, 32
16, 443009, Note_on_c, 11, 88, 0
16, 443040, Note_on_c, 11, 88, 32
16, 443129, Note_on_c, 11, 88, 0
16, 443160, Note_on_c, 11, 88, 32
16, 443249, Note_on_c, 11, 88, 0
16, 443280, Note_on_c, 11, 88, 32
16, 443369, Note_on_c, 11, 88, 0
16, 443400, Note_on_c, 11, 88, 32
16, 443489, Note_on_c, 11, 88, 0
16, 443520, Note_on_c, 11, 88, 32
16, 443609, Note_on_c, 11, 88, 0
16, 443640, Note_on_c, 11, 88, 32
16, 443729, Note_on_c, 11, 88, 0
16, 443760, Note_on_c, 11, 81, 32
16, 443849, Note_on_c, 11, 81, 0
16, 443880, Note_on_c, 11, 81, 32
16, 443969, Note_on_c, 11, 81, 0
16, 444000, Note_on_c, 11, 81, 32
16, 444089, Note_on_c, 11, 81, 0
16, 444120, Note_on_c, 11, 81, 32
16, 444209, Note_on_c, 11, 81, 0
16, 444240, Note_on_c, 11, 81, 32
16, 444329, Note_on_c, 11, 81, 0
16, 444360, Note_on_c, 11, 81, 32
16, 444449, Note_on_c, 11, 81, 0
16, 444480, Note_on_c, 11, 81, 32
16, 444569, Note_on_c, 11, 81, 0
16, 444600, Note_on_c, 11, 82, 32
16, 444689, Note_on_c, 11, 82, 0
16, 444720, Note_on_c, 11, 81, 32
16, 444809, Note_on_c, 11, 81, 0
16, 444840, Note_on_c, 11, 79, 32
16, 444929, Note_on_c, 11, 79, 0
16, 444960, Note_on_c, 11, 77, 32
16, 445049, Note_on_c, 11, 77, 0
16, 445080, Note_on_c, 11, 76, 32
16, 445169, Note_on_c, 11, 76, 0
16, 445200, Note_on_c, 11, 74, 32
16, 445289, Note_on_c, 11, 74, 0
16, 445320, Note_on_c, 11, 77, 32
16, 445409, Note_on_c, 11, 77, 0
16, 445440, Note_on_c, 11, 76, 32
16, 445529, Note_on_c, 11, 76, 0
16, 445560, Note_on_c, 11, 74, 32
16, 445649, Note_on_c, 11, 74, 0
16, 445680, Note_on_c, 11, 72, 32
16, 445769, Note_on_c, 11, 72, 0
16, 445800, Note_on_c, 11, 71, 32
16, 445889, Note_on_c, 11, 71, 0
16, 445920, Note_on_c, 11, 69, 32
16, 446009, Note_on_c, 11, 69, 0
16, 446040, Note_on_c, 11, 68, 32
16, 446129, Note_on_c, 11, 68, 0
16, 446160, Note_on_c, 11, 69, 32
16, 446249, Note_on_c, 11, 69, 0
16, 446280, Note_on_c, 11, 71, 32
16, 446369, Note_on_c, 11, 71, 0
16, 446400, Note_on_c, 11, 69, 32
16, 446489, Note_on_c, 11, 69, 0
16, 446520, Note_on_c, 11, 68, 32
16, 446609, Note_on_c, 11, 68, 0
16, 446640, Note_on_c, 11, 69, 32
16, 446729, Note_on_c, 11, 69, 0
16, 446760, Note_on_c, 11, 73, 32
16, 446849, Note_on_c, 11, 73, 0
16, 446880, Note_on_c, 11, 74, 32
16, 446969, Note_on_c, 11, 74, 0
16, 447000, Note_on_c, 11, 76, 32
16, 447089, Note_on_c, 11, 76, 0
16, 447120, Note_on_c, 11, 77, 32
16, 447209, Note_on_c, 11, 77, 0
16, 447240, Note_on_c, 11, 79, 32
16, 447329, Note_on_c, 11, 79, 0
16, 447360, Note_on_c, 11, 81, 32
16, 447449, Note_on_c, 11, 81, 0
16, 447480, Note_on_c, 11, 82, 32
16, 447569, Note_on_c, 11, 82, 0
16, 447600, Note_on_c, 11, 81, 32
16, 447689, Note_on_c, 11, 81, 0
16, 447720, Note_on_c, 11, 79, 32
16, 447809, Note_on_c, 11, 79, 0
16, 447840, Note_on_c, 11, 77, 32
16, 447929, Note_on_c, 11, 77, 0
16, 447960, Note_on_c, 11, 76, 32
16, 448049, Note_on_c, 11, 76, 0
16, 448080, Note_on_c, 11, 74, 32
16, 448169, Note_on_c, 11, 74, 0
16, 448200, Note_on_c, 11, 73, 32
16, 448289, Note_on_c, 11, 73, 0
16, 448320, Note_on_c, 11, 74, 33
16, 448409, Note_on_c, 11, 74, 0
16, 448440, Note_on_c, 11, 76, 35
16, 448529, Note_on_c, 11, 76, 0
16, 448560, Note_on_c, 11, 74, 37
16, 448649, Note_on_c, 11, 74, 0
16, 448680, Note_on_c, 11, 73, 38
16, 448769, Note_on_c, 11, 73, 0
16, 448800, Note_on_c, 11, 74, 40
16, 448889, Note_on_c, 11, 74, 0
16, 448920, Note_on_c, 11, 73, 42
16, 449009, Note_on_c, 11, 73, 0
16, 449040, Note_on_c, 11, 74, 43
16, 449129, Note_on_c, 11, 74, 0
16, 449160, Note_on_c, 11, 76, 45
16, 449249, Note_on_c, 11, 76, 0
16, 449280, Note_on_c, 11, 74, 47
16, 449369, Note_on_c, 11, 74, 0
16, 449400, Note_on_c, 11, 73, 48
16, 449489, Note_on_c, 11, 73, 0
16, 449520, Note_on_c, 11, 74, 50
16, 449609, Note_on_c, 11, 74, 0
16, 449640, Note_on_c, 11, 73, 52
16, 449729, Note_on_c, 11, 73, 0
16, 449760, Note_on_c, 11, 74, 53
16, 449849, Note_on_c, 11, 74, 0
16, 449880, Note_on_c, 11, 76, 55
16, 449969, Note_on_c, 11, 76, 0
16, 450000, Note_on_c, 11, 74, 57
16, 450089, Note_on_c, 11, 74, 0
16, 450120, Note_on_c, 11, 73, 58
16, 450209, Note_on_c, 11, 73, 0
16, 450240, Note_on_c, 11, 74, 60
16, 450329, Note_on_c, 11, 74, 0
16, 450360, Note_on_c, 11, 76, 62
16, 450449, Note_on_c, 11, 76, 0
16, 450480, Note_on_c, 11, 77, 63
16, 450569, Note_on_c, 11, 77, 0
16, 450600, Note_on_c, 11, 79, 65
16, 450689, Note_on_c, 11, 79, 0
16, 450720, Note_on_c, 11, 77, 67
16, 450809, Note_on_c, 11, 77, 0
16, 450840, Note_on_c, 11, 76, 68
16, 450929, Note_on_c, 11, 76, 0
16, 450960, Note_on_c, 11, 77, 70
16, 451049, Note_on_c, 11, 77, 0
16, 451080, Note_on_c, 11, 76, 72
16, 451169, Note_on_c, 11, 76, 0
16, 451200, Note_on_c, 11, 77, 73
16, 451289, Note_on_c, 11, 77, 0
16, 451320, Note_on_c, 11, 79, 75
16, 451409, Note_on_c, 11, 79, 0
16, 451440, Note_on_c, 11, 77, 77
16, 451529, Note_on_c, 11, 77, 0
16, 451560, Note_on_c, 11, 76, 78
16, 451649, Note_on_c, 11, 76, 0
16, 451680, Note_on_c, 11, 77, 80
16, 451769, Note_on_c, 11, 77, 0
16, 451800, Note_on_c, 11, 76, 82
16, 451889, Note_on_c, 11, 76, 0
16, 451920, Note_on_c, 11, 77, 83
16, 452009, Note_on_c, 11, 77, 0
16, 452040, Note_on_c, 11, 79, 85
16, 452129, Note_on_c, 11, 79, 0
16, 452160, Note_on_c, 11, 81, 87
16, 452324, Note_on_c, 11, 81, 0
16, 452340, Note_on_c, 11, 69, 89
16, 452384, Note_on_c, 11, 69, 0
16, 452400, Note_on_c, 11, 69, 90
16, 452504, Note_on_c, 11, 69, 0
16, 452520, Note_on_c, 11, 69, 92
16, 452520, Note_on_c, 11, 62, 92
16, 452520, Note_on_c, 11, 81, 92
16, 452639, Note_on_c, 11, 69, 0
16, 452639, Note_on_c, 11, 62, 0
16, 452684, Note_on_c, 11, 81, 0
16, 452700, Note_on_c, 11, 69, 92
16, 452744, Note_on_c, 11, 69, 0
16, 452760, Note_on_c, 11, 69, 92
16, 452864, Note_on_c, 11, 69, 0
16, 452880, Note_on_c, 11, 74, 92
16, 452984, Note_on_c, 11, 74, 0
16, 453000, Note_on_c, 11, 76, 92
16, 453104, Note_on_c, 11, 76, 0
16, 453120, Note_on_c, 11, 77, 92
16, 453224, Note_on_c, 11, 77, 0
16, 453240, Note_on_c, 11, 76, 92
16, 453344, Note_on_c, 11, 76, 0
16, 453360, Note_on_c, 11, 77, 92
16, 453464, Note_on_c, 11, 77, 0
16, 453480, Note_on_c, 11, 79, 92
16, 453584, Note_on_c, 11, 79, 0
16, 453600, Note_on_c, 11, 77, 92
16, 453704, Note_on_c, 11, 77, 0
16, 453720, Note_on_c, 11, 76, 92
16, 453824, Note_on_c, 11, 76, 0
16, 453840, Note_on_c, 11, 74, 92
16, 453944, Note_on_c, 11, 74, 0
16, 453960, Note_on_c, 11, 82, 80
16, 454064, Note_on_c, 11, 82, 0
16, 454080, Note_on_c, 11, 81, 80
16, 454184, Note_on_c, 11, 81, 0
16, 454200, Note_on_c, 11, 79, 80
16, 454304, Note_on_c, 11, 79, 0
16, 454320, Note_on_c, 11, 77, 80
16, 454424, Note_on_c, 11, 77, 0
16, 454440, Note_on_c, 11, 76, 80
16, 454544, Note_on_c, 11, 76, 0
16, 454560, Note_on_c, 11, 74, 80
16, 454664, Note_on_c, 11, 74, 0
16, 454680, Note_on_c, 11, 73, 80
16, 454784, Note_on_c, 11, 73, 0
16, 454800, Note_on_c, 11, 74, 80
16, 454904, Note_on_c, 11, 74, 0
16, 454920, Note_on_c, 11, 76, 80
16, 455024, Note_on_c, 11, 76, 0
16, 455040, Note_on_c, 11, 74, 80
16, 455144, Note_on_c, 11, 74, 0
16, 455160, Note_on_c, 11, 73, 80
16, 455264, Note_on_c, 11, 73, 0
16, 455280, Note_on_c, 11, 74, 80
16, 455384, Note_on_c, 11, 74, 0
16, 455400, Note_on_c, 11, 82, 80
16, 455504, Note_on_c, 11, 82, 0
16, 455520, Note_on_c, 11, 81, 80
16, 455624, Note_on_c, 11, 81, 0
16, 455640, Note_on_c, 11, 79, 80
16, 455744, Note_on_c, 11, 79, 0
16, 455760, Note_on_c, 11, 77, 80
16, 455864, Note_on_c, 11, 77, 0
16, 455880, Note_on_c, 11, 76, 80
16, 455984, Note_on_c, 11, 76, 0
16, 456000, Note_on_c, 11, 74, 80
16, 456104, Note_on_c, 11, 74, 0
16, 456120, Note_on_c, 11, 73, 80
16, 456224, Note_on_c, 11, 73, 0
16, 456240, Note_on_c, 11, 74, 80
16, 456344, Note_on_c, 11, 74, 0
16, 456360, Note_on_c, 11, 76, 80
16, 456464, Note_on_c, 11, 76, 0
16, 456480, Note_on_c, 11, 74, 80
16, 456584, Note_on_c, 11, 74, 0
16, 456600, Note_on_c, 11, 73, 80
16, 456704, Note_on_c, 11, 73, 0
16, 456720, Note_on_c, 11, 74, 80
16, 456824, Note_on_c, 11, 74, 0
16, 456840, Note_on_c, 11, 81, 80
16, 456944, Note_on_c, 11, 81, 0
16, 456960, Note_on_c, 11, 79, 80
16, 457064, Note_on_c, 11, 79, 0
16, 457080, Note_on_c, 11, 77, 80
16, 457184, Note_on_c, 11, 77, 0
16, 457200, Note_on_c, 11, 76, 80
16, 457304, Note_on_c, 11, 76, 0
16, 457320, Note_on_c, 11, 74, 80
16, 457424, Note_on_c, 11, 74, 0
16, 457440, Note_on_c, 11, 72, 80
16, 457544, Note_on_c, 11, 72, 0
16, 457560, Note_on_c, 11, 71, 80
16, 457664, Note_on_c, 11, 71, 0
16, 457680, Note_on_c, 11, 72, 80
16, 457784, Note_on_c, 11, 72, 0
16, 457800, Note_on_c, 11, 74, 80
16, 457904, Note_on_c, 11, 74, 0
16, 457920, Note_on_c, 11, 72, 80
16, 458024, Note_on_c, 11, 72, 0
16, 458040, Note_on_c, 11, 81, 80
16, 458144, Note_on_c, 11, 81, 0
16, 458160, Note_on_c, 11, 81, 80
16, 458264, Note_on_c, 11, 81, 0
16, 458280, Note_on_c, 11, 81, 80
16, 458384, Note_on_c, 11, 81, 0
16, 458400, Note_on_c, 11, 79, 80
16, 458504, Note_on_c, 11, 79, 0
16, 458520, Note_on_c, 11, 77, 80
16, 458624, Note_on_c, 11, 77, 0
16, 458640, Note_on_c, 11, 76, 80
16, 458744, Note_on_c, 11, 76, 0
16, 458760, Note_on_c, 11, 74, 80
16, 458864, Note_on_c, 11, 74, 0
16, 458880, Note_on_c, 11, 72, 80
16, 458984, Note_on_c, 11, 72, 0
16, 459000, Note_on_c, 11, 79, 80
16, 459104, Note_on_c, 11, 79, 0
16, 459120, Note_on_c, 11, 77, 80
16, 459224, Note_on_c, 11, 77, 0
16, 459240, Note_on_c, 11, 76, 80
16, 459344, Note_on_c, 11, 76, 0
16, 459360, Note_on_c, 11, 88, 80
16, 459464, Note_on_c, 11, 88, 0
16, 459480, Note_on_c, 11, 86, 80
16, 459584, Note_on_c, 11, 86, 0
16, 459600, Note_on_c, 11, 84, 80
16, 459704, Note_on_c, 11, 84, 0
16, 459720, Note_on_c, 11, 74, 80
16, 459720, Note_on_c, 11, 67, 80
16, 459720, Note_on_c, 11, 83, 80
16, 459839, Note_on_c, 11, 74, 0
16, 459839, Note_on_c, 11, 67, 0
16, 459839, Note_on_c, 11, 83, 0
16, 460320, Control_c, 11, 11, 87
16, 460440, Control_c, 11, 11, 87
16, 460440, Note_on_c, 11, 81, 68
16, 460470, Control_c, 11, 11, 88
16, 460500, Control_c, 11, 11, 89
16, 460530, Control_c, 11, 11, 90
16, 460560, Control_c, 11, 11, 91
16, 460590, Control_c, 11, 11, 93
16, 460604, Note_on_c, 11, 81, 0
16, 460620, Control_c, 11, 11, 94
16, 460620, Note_on_c, 11, 69, 68
16, 460650, Control_c, 11, 11, 95
16, 460664, Note_on_c, 11, 69, 0
16, 460680, Note_on_c, 11, 69, 68
16, 460680, Control_c, 11, 11, 96
16, 460710, Control_c, 11, 11, 97
16, 460740, Control_c, 11, 11, 98
16, 460770, Control_c, 11, 11, 99
16, 460784, Note_on_c, 11, 69, 0
16, 460800, Control_c, 11, 11, 100
16, 460800, Note_on_c, 11, 86, 68
16, 460830, Control_c, 11, 11, 101
16, 460860, Control_c, 11, 11, 103
16, 460890, Control_c, 11, 11, 104
16, 460920, Control_c, 11, 11, 105
16, 460950, Control_c, 11, 11, 106
16, 460964, Note_on_c, 11, 86, 0
16, 460980, Note_on_c, 11, 74, 68
16, 460980, Control_c, 11, 11, 107
16, 461010, Control_c, 11, 11, 108
16, 461024, Note_on_c, 11, 74, 0
16, 461040, Note_on_c, 11, 74, 68
16, 461040, Control_c, 11, 11, 109
16, 461070, Control_c, 11, 11, 110
16, 461100, Control_c, 11, 11, 111
16, 461130, Control_c, 11, 11, 113
16, 461144, Note_on_c, 11, 74, 0
16, 461160, Note_on_c, 11, 86, 68
16, 461160, Control_c, 11, 11, 114
16, 461190, Control_c, 11, 11, 115
16, 461220, Control_c, 11, 11, 116
16, 461250, Control_c, 11, 11, 117
16, 461280, Control_c, 11, 11, 118
16, 461310, Control_c, 11, 11, 119
16, 461324, Note_on_c, 11, 86, 0
16, 461340, Note_on_c, 11, 74, 68
16, 461340, Control_c, 11, 11, 120
16, 461370, Control_c, 11, 11, 121
16, 461384, Note_on_c, 11, 74, 0
16, 461400, Control_c, 11, 11, 123
16, 461400, Note_on_c, 11, 74, 68
16, 461430, Control_c, 11, 11, 124
16, 461460, Control_c, 11, 11, 125
16, 461490, Control_c, 11, 11, 127
16, 461504, Note_on_c, 11, 74, 0
16, 461520, Note_on_c, 11, 84, 68
16, 461684, Note_on_c, 11, 84, 0
16, 461700, Control_c, 11, 11, 127
16, 461700, Note_on_c, 11, 72, 68
16, 461725, Control_c, 11, 11, 126
16, 461744, Note_on_c, 11, 72, 0
16, 461750, Control_c, 11, 11, 125
16, 461760, Note_on_c, 11, 72, 68
16, 461775, Control_c, 11, 11, 124
16, 461800, Control_c, 11, 11, 123
16, 461825, Control_c, 11, 11, 121
16, 461850, Control_c, 11, 11, 120
16, 461864, Note_on_c, 11, 72, 0
16, 461875, Control_c, 11, 11, 119
16, 461880, Note_on_c, 11, 84, 68
16, 461900, Control_c, 11, 11, 118
16, 461925, Control_c, 11, 11, 117
16, 461950, Control_c, 11, 11, 116
16, 461975, Control_c, 11, 11, 115
16, 462000, Control_c, 11, 11, 114
16, 462025, Control_c, 11, 11, 113
16, 462044, Note_on_c, 11, 84, 0
16, 462050, Control_c, 11, 11, 111
16, 462060, Note_on_c, 11, 72, 68
16, 462075, Control_c, 11, 11, 110
16, 462100, Control_c, 11, 11, 109
16, 462104, Note_on_c, 11, 72, 0
16, 462120, Note_on_c, 11, 72, 68
16, 462125, Control_c, 11, 11, 108
16, 462150, Control_c, 11, 11, 107
16, 462175, Control_c, 11, 11, 106
16, 462200, Control_c, 11, 11, 105
16, 462224, Note_on_c, 11, 72, 0
16, 462225, Control_c, 11, 11, 104
16, 462240, Note_on_c, 11, 83, 68
16, 462250, Control_c, 11, 11, 103
16, 462275, Control_c, 11, 11, 101
16, 462300, Control_c, 11, 11, 100
16, 462325, Control_c, 11, 11, 99
16, 462350, Control_c, 11, 11, 98
16, 462375, Control_c, 11, 11, 97
16, 462400, Control_c, 11, 11, 96
16, 462404, Note_on_c, 11, 83, 0
16, 462420, Note_on_c, 11, 71, 68
16, 462425, Control_c, 11, 11, 95
16, 462450, Control_c, 11, 11, 94
16, 462464, Note_on_c, 11, 71, 0
16, 462475, Control_c, 11, 11, 93
16, 462480, Note_on_c, 11, 71, 68
16, 462500, Control_c, 11, 11, 91
16, 462525, Control_c, 11, 11, 90
16, 462550, Control_c, 11, 11, 89
16, 462575, Control_c, 11, 11, 87
16, 462599, Note_on_c, 11, 71, 0
16, 463635, Control_c, 11, 11, 59
16, 463680, Control_c, 11, 11, 60
16, 463680, Note_on_c, 11, 86, 92
16, 463725, Control_c, 11, 11, 62
16, 463770, Control_c, 11, 11, 64
16, 463815, Control_c, 11, 11, 65
16, 463844, Note_on_c, 11, 86, 0
16, 463860, Note_on_c, 11, 74, 92
16, 463860, Control_c, 11, 11, 67
16, 463904, Note_on_c, 11, 74, 0
16, 463905, Control_c, 11, 11, 69
16, 463920, Note_on_c, 11, 74, 92
16, 463950, Control_c, 11, 11, 70
16, 463995, Control_c, 11, 11, 72
16, 464024, Note_on_c, 11, 74, 0
16, 464040, Note_on_c, 11, 86, 92
16, 464040, Control_c, 11, 11, 74
16, 464085, Control_c, 11, 11, 75
16, 464130, Control_c, 11, 11, 77
16, 464175, Control_c, 11, 11, 79
16, 464204, Note_on_c, 11, 86, 0
16, 464220, Note_on_c, 11, 74, 92
16, 464220, Control_c, 11, 11, 80
16, 464264, Note_on_c, 11, 74, 0
16, 464265, Control_c, 11, 11, 82
16, 464280, Note_on_c, 11, 74, 92
16, 464310, Control_c, 11, 11, 84
16, 464355, Control_c, 11, 11, 85
16, 464384, Note_on_c, 11, 74, 0
16, 464400, Control_c, 11, 11, 87
16, 464400, Note_on_c, 11, 84, 92
16, 464445, Control_c, 11, 11, 89
16, 464490, Control_c, 11, 11, 90
16, 464535, Control_c, 11, 11, 92
16, 464564, Note_on_c, 11, 84, 0
16, 464580, Note_on_c, 11, 72, 92
16, 464580, Control_c, 11, 11, 94
16, 464624, Note_on_c, 11, 72, 0
16, 464625, Control_c, 11, 11, 95
16, 464640, Note_on_c, 11, 72, 92
16, 464670, Control_c, 11, 11, 97
16, 464715, Control_c, 11, 11, 99
16, 464744, Note_on_c, 11, 72, 0
16, 464760, Note_on_c, 11, 84, 92
16, 464760, Control_c, 11, 11, 100
16, 464805, Control_c, 11, 11, 102
16, 464850, Control_c, 11, 11, 104
16, 464895, Control_c, 11, 11, 105
16, 464924, Note_on_c, 11, 84, 0
16, 464940, Note_on_c, 11, 72, 92
16, 464940, Control_c, 11, 11, 107
16, 464984, Note_on_c, 11, 72, 0
16, 464985, Control_c, 11, 11, 109
16, 465000, Note_on_c, 11, 72, 92
16, 465030, Control_c, 11, 11, 110
16, 465075, Control_c, 11, 11, 112
16, 465104, Note_on_c, 11, 72, 0
16, 465120, Control_c, 11, 11, 114
16, 465120, Note_on_c, 11, 83, 92
16, 465165, Control_c, 11, 11, 115
16, 465210, Control_c, 11, 11, 117
16, 465255, Control_c, 11, 11, 119
16, 465284, Note_on_c, 11, 83, 0
16, 465300, Control_c, 11, 11, 120
16, 465300, Note_on_c, 11, 71, 92
16, 465344, Note_on_c, 11, 71, 0
16, 465345, Control_c, 11, 11, 122
16, 465360, Note_on_c, 11, 71, 92
16, 465390, Control_c, 11, 11, 124
16, 465435, Control_c, 11, 11, 127
16, 465464, Note_on_c, 11, 71, 0
16, 465480, Note_on_c, 11, 84, 92
16, 465644, Note_on_c, 11, 84, 0
16, 465660, Note_on_c, 11, 72, 92
16, 465704, Note_on_c, 11, 72, 0
16, 465720, Note_on_c, 11, 72, 92
16, 465824, Note_on_c, 11, 72, 0
16, 465840, Note_on_c, 11, 84, 92
16, 466004, Note_on_c, 11, 84, 0
16, 466020, Note_on_c, 11, 72, 92
16, 466064, Note_on_c, 11, 72, 0
16, 466080, Note_on_c, 11, 72, 92
16, 466184, Note_on_c, 11, 72, 0
16, 466200, Note_on_c, 11, 84, 92
16, 466364, Note_on_c, 11, 84, 0
16, 466380, Note_on_c, 11, 72, 92
16, 466424, Note_on_c, 11, 72, 0
16, 466440, Note_on_c, 11, 72, 92
16, 466544, Note_on_c, 11, 72, 0
16, 466560, Note_on_c, 11, 84, 92
16, 466724, Note_on_c, 11, 84, 0
16, 466740, Note_on_c, 11, 72, 92
16, 466784, Note_on_c, 11, 72, 0
16, 466800, Note_on_c, 11, 72, 92
16, 466904, Note_on_c, 11, 72, 0
16, 466920, Note_on_c, 11, 84, 92
16, 467084, Note_on_c, 11, 84, 0
16, 467100, Note_on_c, 11, 72, 92
16, 467144, Note_on_c, 11, 72, 0
16, 467160, Note_on_c, 11, 72, 92
16, 467264, Note_on_c, 11, 72, 0
16, 467280, Note_on_c, 11, 84, 92
16, 467444, Note_on_c, 11, 84, 0
16, 467460, Note_on_c, 11, 72, 92
16, 467504, Note_on_c, 11, 72, 0
16, 467520, Note_on_c, 11, 72, 92
16, 467624, Note_on_c, 11, 72, 0
16, 467640, Note_on_c, 11, 84, 92
16, 467804, Note_on_c, 11, 84, 0
16, 467820, Note_on_c, 11, 72, 92
16, 467864, Note_on_c, 11, 72, 0
16, 467880, Note_on_c, 11, 72, 92
16, 467984, Note_on_c, 11, 72, 0
16, 468000, Note_on_c, 11, 84, 92
16, 468164, Note_on_c, 11, 84, 0
16, 468180, Note_on_c, 11, 72, 92
16, 468224, Note_on_c, 11, 72, 0
16, 468240, Note_on_c, 11, 72, 92
16, 468344, Note_on_c, 11, 72, 0
16, 468360, Note_on_c, 11, 84, 92
16, 468524, Note_on_c, 11, 84, 0
16, 468540, Note_on_c, 11, 72, 92
16, 468584, Note_on_c, 11, 72, 0
16, 468600, Note_on_c, 11, 72, 92
16, 468704, Note_on_c, 11, 72, 0
16, 468720, Note_on_c, 11, 84, 92
16, 468884, Note_on_c, 11, 84, 0
16, 468900, Note_on_c, 11, 72, 92
16, 468944, Note_on_c, 11, 72, 0
16, 468960, Note_on_c, 11, 72, 92
16, 469064, Note_on_c, 11, 72, 0
16, 469080, Note_on_c, 11, 84, 92
16, 469244, Note_on_c, 11, 84, 0
16, 469260, Note_on_c, 11, 72, 92
16, 469304, Note_on_c, 11, 72, 0
16, 469320, Note_on_c, 11, 72, 92
16, 469424, Note_on_c, 11, 72, 0
16, 469440, Note_on_c, 11, 84, 92
16, 469604, Note_on_c, 11, 84, 0
16, 469620, Note_on_c, 11, 72, 92
16, 469664, Note_on_c, 11, 72, 0
16, 469680, Note_on_c, 11, 72, 92
16, 469784, Note_on_c, 11, 72, 0
16, 469800, Note_on_c, 11, 84, 92
16, 469964, Note_on_c, 11, 84, 0
16, 469980, Note_on_c, 11, 72, 92
16, 470024, Note_on_c, 11, 72, 0
16, 470040, Note_on_c, 11, 72, 92
16, 470144, Note_on_c, 11, 72, 0
16, 470160, Note_on_c, 11, 84, 92
16, 470324, Note_on_c, 11, 84, 0
16, 470340, Note_on_c, 11, 72, 92
16, 470384, Note_on_c, 11, 72, 0
16, 470400, Note_on_c, 11, 72, 92
16, 470504, Note_on_c, 11, 72, 0
16, 470520, Note_on_c, 11, 84, 92
16, 470684, Note_on_c, 11, 84, 0
16, 470700, Note_on_c, 11, 72, 92
16, 470744, Note_on_c, 11, 72, 0
16, 470760, Note_on_c, 11, 72, 92
16, 470864, Note_on_c, 11, 72, 0
16, 470880, Note_on_c, 11, 84, 92
16, 471044, Note_on_c, 11, 84, 0
16, 471060, Note_on_c, 11, 72, 92
16, 471104, Note_on_c, 11, 72, 0
16, 471120, Note_on_c, 11, 72, 92
16, 471224, Note_on_c, 11, 72, 0
16, 471240, Note_on_c, 11, 84, 92
16, 471359, Note_on_c, 11, 84, 0
16, 471960, Note_on_c, 11, 81, 92
16, 472124, Note_on_c, 11, 81, 0
16, 472140, Note_on_c, 11, 69, 92
16, 472184, Note_on_c, 11, 69, 0
16, 472200, Note_on_c, 11, 69, 92
16, 472304, Note_on_c, 11, 69, 0
16, 472320, Note_on_c, 11, 81, 92
16, 472409, Note_on_c, 11, 81, 0
16, 472440, Note_on_c, 11, 77, 92
16, 472529, Note_on_c, 11, 77, 0
16, 472560, Note_on_c, 11, 76, 92
16, 472649, Note_on_c, 11, 76, 0
16, 472680, Note_on_c, 11, 74, 92
16, 472799, Note_on_c, 11, 74, 0
16, 473400, Note_on_c, 11, 79, 92
16, 473564, Note_on_c, 11, 79, 0
16, 473580, Note_on_c, 11, 67, 92
16, 473624, Note_on_c, 11, 67, 0
16, 473640, Note_on_c, 11, 67, 92
16, 473744, Note_on_c, 11, 67, 0
16, 473760, Note_on_c, 11, 79, 92
16, 473849, Note_on_c, 11, 79, 0
16, 473880, Note_on_c, 11, 76, 92
16, 473969, Note_on_c, 11, 76, 0
16, 474000, Note_on_c, 11, 74, 92
16, 474089, Note_on_c, 11, 74, 0
16, 474118, Control_c, 11, 11, 87
16, 474120, Note_on_c, 11, 72, 68
16, 474599, Note_on_c, 11, 72, 0
16, 474600, Note_on_c, 11, 74, 68
16, 474719, Note_on_c, 11, 74, 0
16, 474720, Note_on_c, 11, 76, 68
16, 474839, Note_on_c, 11, 76, 0
16, 474840, Control_c, 11, 11, 87
16, 474840, Note_on_c, 11, 77, 68
16, 474870, Control_c, 11, 11, 89
16, 474900, Control_c, 11, 11, 90
16, 474930, Control_c, 11, 11, 92
16, 474960, Control_c, 11, 11, 94
16, 474990, Control_c, 11, 11, 95
16, 475020, Control_c, 11, 11, 97
16, 475050, Control_c, 11, 11, 99
16, 475080, Control_c, 11, 11, 100
16, 475110, Control_c, 11, 11, 102
16, 475140, Control_c, 11, 11, 104
16, 475170, Control_c, 11, 11, 105
16, 475199, Note_on_c, 11, 77, 0
16, 475200, Note_on_c, 11, 76, 68
16, 475200, Control_c, 11, 11, 107
16, 475230, Control_c, 11, 11, 109
16, 475260, Control_c, 11, 11, 110
16, 475290, Control_c, 11, 11, 112
16, 475320, Control_c, 11, 11, 114
16, 475350, Control_c, 11, 11, 115
16, 475380, Control_c, 11, 11, 117
16, 475410, Control_c, 11, 11, 119
16, 475440, Control_c, 11, 11, 120
16, 475470, Control_c, 11, 11, 122
16, 475500, Control_c, 11, 11, 124
16, 475530, Control_c, 11, 11, 125
16, 475544, Note_on_c, 11, 76, 0
16, 475560, Control_c, 11, 11, 127
16, 475560, Note_on_c, 11, 76, 68
16, 475590, Control_c, 11, 11, 125
16, 475620, Control_c, 11, 11, 124
16, 475650, Control_c, 11, 11, 122
16, 475680, Control_c, 11, 11, 120
16, 475710, Control_c, 11, 11, 119
16, 475740, Control_c, 11, 11, 117
16, 475770, Control_c, 11, 11, 115
16, 475800, Control_c, 11, 11, 114
16, 475830, Control_c, 11, 11, 112
16, 475860, Control_c, 11, 11, 110
16, 475890, Control_c, 11, 11, 109
16, 475920, Control_c, 11, 11, 107
16, 475950, Control_c, 11, 11, 105
16, 475980, Control_c, 11, 11, 104
16, 476010, Control_c, 11, 11, 102
16, 476039, Note_on_c, 11, 76, 0
16, 476040, Control_c, 11, 11, 100
16, 476040, Note_on_c, 11, 74, 68
16, 476070, Control_c, 11, 11, 99
16, 476100, Control_c, 11, 11, 97
16, 476130, Control_c, 11, 11, 95
16, 476159, Note_on_c, 11, 74, 0
16, 476160, Control_c, 11, 11, 94
16, 476160, Note_on_c, 11, 72, 68
16, 476190, Control_c, 11, 11, 92
16, 476220, Control_c, 11, 11, 90
16, 476250, Control_c, 11, 11, 87
16, 476279, Note_on_c, 11, 72, 0
16, 478080, Control_c, 11, 11, 127
16, 478440, Note_on_c, 11, 88, 80
16, 478529, Note_on_c, 11, 88, 0
16, 478560, Note_on_c, 11, 84, 80
16, 478649, Note_on_c, 11, 84, 0
16, 478680, Note_on_c, 11, 89, 80
16, 478769, Note_on_c, 11, 89, 0
16, 478800, Note_on_c, 11, 86, 80
16, 478889, Note_on_c, 11, 86, 0
16, 478920, Note_on_c, 11, 83, 80
16, 479009, Note_on_c, 11, 83, 0
16, 479040, Note_on_c, 11, 88, 80
16, 479129, Note_on_c, 11, 88, 0
16, 479160, Note_on_c, 11, 84, 80
16, 479279, Note_on_c, 11, 84, 0
16, 479880, Note_on_c, 11, 88, 80
16, 479969, Note_on_c, 11, 88, 0
16, 480000, Note_on_c, 11, 84, 80
16, 480089, Note_on_c, 11, 84, 0
16, 480120, Note_on_c, 11, 89, 80
16, 480209, Note_on_c, 11, 89, 0
16, 480240, Note_on_c, 11, 86, 80
16, 480329, Note_on_c, 11, 86, 0
16, 480360, Note_on_c, 11, 83, 80
16, 480449, Note_on_c, 11, 83, 0
16, 480480, Note_on_c, 11, 88, 80
16, 480569, Note_on_c, 11, 88, 0
16, 480600, Note_on_c, 11, 84, 80
16, 480764, Note_on_c, 11, 84, 0
16, 480780, Note_on_c, 11, 72, 80
16, 480824, Note_on_c, 11, 72, 0
16, 480840, Note_on_c, 11, 72, 80
16, 480944, Note_on_c, 11, 72, 0
16, 480960, Note_on_c, 11, 67, 80
16, 481079, Note_on_c, 11, 67, 0
16, 481320, Note_on_c, 11, 84, 80
16, 481484, Note_on_c, 11, 84, 0
16, 481500, Note_on_c, 11, 72, 80
16, 481544, Note_on_c, 11, 72, 0
16, 481560, Note_on_c, 11, 72, 80
16, 481664, Note_on_c, 11, 72, 0
16, 481680, Note_on_c, 11, 67, 80
16, 481799, Note_on_c, 11, 67, 0
16, 482040, Note_on_c, 11, 77, 32
16, 482159, Note_on_c, 11, 77, 0
16, 482160, Note_on_c, 11, 76, 32
16, 482279, Note_on_c, 11, 76, 0
16, 482280, Note_on_c, 11, 74, 32
16, 482399, Note_on_c, 11, 74, 0
16, 482400, Note_on_c, 11, 72, 32
16, 482519, Note_on_c, 11, 72, 0
16, 482520, Note_on_c, 11, 71, 32
16, 482639, Note_on_c, 11, 71, 0
16, 482640, Note_on_c, 11, 69, 32
16, 482759, Note_on_c, 11, 69, 0
16, 482760, Note_on_c, 11, 67, 32
16, 482879, Note_on_c, 11, 67, 0
16, 482880, Note_on_c, 11, 69, 32
16, 482999, Note_on_c, 11, 69, 0
16, 483000, Note_on_c, 11, 67, 32
16, 483119, Note_on_c, 11, 67, 0
16, 483120, Note_on_c, 11, 65, 32
16, 483239, Note_on_c, 11, 65, 0
16, 483240, Note_on_c, 11, 64, 32
16, 483359, Note_on_c, 11, 64, 0
16, 483360, Note_on_c, 11, 62, 32
16, 483419, Note_on_c, 11, 62, 0
16, 483420, Note_on_c, 11, 71, 32
16, 483464, Note_on_c, 11, 71, 0
16, 483480, Note_on_c, 11, 72, 32
16, 483644, Note_on_c, 11, 72, 0
16, 483660, Note_on_c, 11, 60, 32
16, 483704, Note_on_c, 11, 60, 0
16, 483720, Note_on_c, 11, 60, 32
16, 483824, Note_on_c, 11, 60, 0
16, 483840, Note_on_c, 11, 60, 32
16, 483959, Note_on_c, 11, 60, 0
16, 484200, Note_on_c, 11, 72, 32
16, 484364, Note_on_c, 11, 72, 0
16, 484380, Note_on_c, 11, 60, 32
16, 484424, Note_on_c, 11, 60, 0
16, 484440, Note_on_c, 11, 60, 32
16, 484544, Note_on_c, 11, 60, 0
16, 484560, Note_on_c, 11, 62, 32
16, 484679, Note_on_c, 11, 62, 0
16, 486360, Note_on_c, 11, 74, 32
16, 486524, Note_on_c, 11, 74, 0
16, 486540, Note_on_c, 11, 62, 32
16, 486584, Note_on_c, 11, 62, 0
16, 486600, Note_on_c, 11, 62, 32
16, 486704, Note_on_c, 11, 62, 0
16, 486720, Note_on_c, 11, 62, 32
16, 486839, Note_on_c, 11, 62, 0
16, 487080, Note_on_c, 11, 74, 32
16, 487244, Note_on_c, 11, 74, 0
16, 487260, Note_on_c, 11, 62, 32
16, 487304, Note_on_c, 11, 62, 0
16, 487320, Note_on_c, 11, 62, 32
16, 487424, Note_on_c, 11, 62, 0
16, 487440, Note_on_c, 11, 63, 32
16, 487559, Note_on_c, 11, 63, 0
16, 489240, Note_on_c, 11, 75, 32
16, 489404, Note_on_c, 11, 75, 0
16, 489420, Note_on_c, 11, 63, 34
16, 489464, Note_on_c, 11, 63, 0
16, 489480, Note_on_c, 11, 63, 34
16, 489584, Note_on_c, 11, 63, 0
16, 489600, Note_on_c, 11, 63, 36
16, 489719, Note_on_c, 11, 63, 0
16, 489960, Note_on_c, 11, 75, 40
16, 490124, Note_on_c, 11, 75, 0
16, 490140, Note_on_c, 11, 63, 42
16, 490184, Note_on_c, 11, 63, 0
16, 490200, Note_on_c, 11, 63, 42
16, 490304, Note_on_c, 11, 63, 0
16, 490320, Note_on_c, 11, 65, 44
16, 490439, Note_on_c, 11, 65, 0
16, 490680, Note_on_c, 11, 77, 48
16, 490844, Note_on_c, 11, 77, 0
16, 490860, Note_on_c, 11, 65, 50
16, 490904, Note_on_c, 11, 65, 0
16, 490920, Note_on_c, 11, 65, 50
16, 491024, Note_on_c, 11, 65, 0
16, 491040, Note_on_c, 11, 65, 52
16, 491159, Note_on_c, 11, 65, 0
16, 491400, Note_on_c, 11, 78, 56
16, 491564, Note_on_c, 11, 78, 0
16, 491580, Note_on_c, 11, 66, 58
16, 491624, Note_on_c, 11, 66, 0
16, 491640, Note_on_c, 11, 66, 58
16, 491744, Note_on_c, 11, 66, 0
16, 491760, Note_on_c, 11, 66, 60
16, 491879, Note_on_c, 11, 66, 0
16, 492120, Note_on_c, 11, 78, 64
16, 492284, Note_on_c, 11, 78, 0
16, 492300, Note_on_c, 11, 66, 66
16, 492344, Note_on_c, 11, 66, 0
16, 492360, Note_on_c, 11, 66, 66
16, 492464, Note_on_c, 11, 66, 0
16, 492480, Note_on_c, 11, 68, 68
16, 492599, Note_on_c, 11, 68, 0
16, 492840, Note_on_c, 11, 80, 72
16, 493004, Note_on_c, 11, 80, 0
16, 493020, Note_on_c, 11, 68, 74
16, 493064, Note_on_c, 11, 68, 0
16, 493080, Note_on_c, 11, 68, 74
16, 493184, Note_on_c, 11, 68, 0
16, 493200, Note_on_c, 11, 68, 76
16, 493319, Note_on_c, 11, 68, 0
16, 493560, Note_on_c, 11, 81, 80
16, 493724, Note_on_c, 11, 81, 0
16, 493740, Note_on_c, 11, 69, 80
16, 493784, Note_on_c, 11, 69, 0
16, 493800, Note_on_c, 11, 69, 80
16, 493904, Note_on_c, 11, 69, 0
16, 494280, Note_on_c, 11, 82, 92
16, 494444, Note_on_c, 11, 82, 0
16, 494460, Note_on_c, 11, 70, 92
16, 494504, Note_on_c, 11, 70, 0
16, 494520, Note_on_c, 11, 70, 92
16, 494624, Note_on_c, 11, 70, 0
16, 495000, Note_on_c, 11, 83, 92
16, 495164, Note_on_c, 11, 83, 0
16, 495180, Note_on_c, 11, 71, 92
16, 495224, Note_on_c, 11, 71, 0
16, 495240, Note_on_c, 11, 71, 92
16, 495344, Note_on_c, 11, 71, 0
16, 496080, Program_c, 11, 45
16, 496440, Note_on_c, 11, 64, 40
16, 496559, Note_on_c, 11, 64, 0
16, 496800, Note_on_c, 11, 59, 40
16, 496919, Note_on_c, 11, 59, 0
16, 497520, Note_on_c, 11, 64, 40
16, 497639, Note_on_c, 11, 64, 0
16, 497880, Note_on_c, 11, 59, 40
16, 497999, Note_on_c, 11, 59, 0
16, 498600, Note_on_c, 11, 64, 40
16, 498719, Note_on_c, 11, 64, 0
16, 498960, Note_on_c, 11, 59, 40
16, 499079, Note_on_c, 11, 59, 0
16, 499680, Note_on_c, 11, 76, 40
16, 499799, Note_on_c, 11, 76, 0
16, 500040, Note_on_c, 11, 64, 40
16, 500159, Note_on_c, 11, 64, 0
16, 500760, Note_on_c, 11, 69, 40
16, 500879, Note_on_c, 11, 69, 0
16, 501120, Note_on_c, 11, 64, 40
16, 501239, Note_on_c, 11, 64, 0
16, 501840, Note_on_c, 11, 69, 40
16, 501959, Note_on_c, 11, 69, 0
16, 502200, Note_on_c, 11, 64, 40
16, 502319, Note_on_c, 11, 64, 0
16, 502920, Note_on_c, 11, 77, 40
16, 503039, Note_on_c, 11, 77, 0
16, 503280, Note_on_c, 11, 65, 40
16, 503399, Note_on_c, 11, 65, 0
16, 504000, Note_on_c, 11, 77, 40
16, 504119, Note_on_c, 11, 77, 0
16, 504360, Note_on_c, 11, 65, 40
16, 504479, Note_on_c, 11, 65, 0
16, 505080, Note_on_c, 11, 77, 40
16, 505199, Note_on_c, 11, 77, 0
16, 505440, Note_on_c, 11, 65, 40
16, 505559, Note_on_c, 11, 65, 0
16, 506160, Note_on_c, 11, 77, 40
16, 506279, Note_on_c, 11, 77, 0
16, 506520, Note_on_c, 11, 65, 40
16, 506639, Note_on_c, 11, 65, 0
16, 506880, Note_on_c, 11, 77, 40
16, 506999, Note_on_c, 11, 77, 0
16, 507240, Note_on_c, 11, 65, 40
16, 507359, Note_on_c, 11, 65, 0
16, 507600, Note_on_c, 11, 77, 40
16, 507719, Note_on_c, 11, 77, 0
16, 507840, Program_c, 11, 48
16, 507960, Note_on_c, 11, 76, 44
16, 508064, Note_on_c, 11, 76, 0
16, 508080, Note_on_c, 11, 77, 44
16, 508184, Note_on_c, 11, 77, 0
16, 508200, Note_on_c, 11, 79, 44
16, 508304, Note_on_c, 11, 79, 0
16, 508320, Note_on_c, 11, 79, 43
16, 508424, Note_on_c, 11, 79, 0
16, 508440, Note_on_c, 11, 77, 43
16, 508544, Note_on_c, 11, 77, 0
16, 508560, Note_on_c, 11, 76, 43
16, 508664, Note_on_c, 11, 76, 0
16, 508680, Note_on_c, 11, 76, 42
16, 508784, Note_on_c, 11, 76, 0
16, 508800, Note_on_c, 11, 77, 42
16, 508904, Note_on_c, 11, 77, 0
16, 508920, Note_on_c, 11, 76, 42
16, 509024, Note_on_c, 11, 76, 0
16, 509038, Program_c, 11, 45
16, 509040, Note_on_c, 11, 74, 33
16, 509159, Note_on_c, 11, 74, 0
16, 509400, Note_on_c, 11, 62, 32
16, 509519, Note_on_c, 11, 62, 0
16, 509760, Note_on_c, 11, 74, 31
16, 509879, Note_on_c, 11, 74, 0
16, 510000, Program_c, 11, 48
16, 510120, Note_on_c, 11, 73, 38
16, 510224, Note_on_c, 11, 73, 0
16, 510240, Note_on_c, 11, 74, 38
16, 510344, Note_on_c, 11, 74, 0
16, 510360, Note_on_c, 11, 76, 38
16, 510464, Note_on_c, 11, 76, 0
16, 510480, Note_on_c, 11, 76, 37
16, 510584, Note_on_c, 11, 76, 0
16, 510600, Note_on_c, 11, 74, 37
16, 510704, Note_on_c, 11, 74, 0
16, 510720, Note_on_c, 11, 73, 37
16, 510824, Note_on_c, 11, 73, 0
16, 510840, Note_on_c, 11, 73, 36
16, 510944, Note_on_c, 11, 73, 0
16, 510960, Note_on_c, 11, 74, 36
16, 511064, Note_on_c, 11, 74, 0
16, 511080, Note_on_c, 11, 73, 36
16, 511184, Note_on_c, 11, 73, 0
16, 511198, Program_c, 11, 45
16, 511560, Note_on_c, 11, 69, 30
16, 511679, Note_on_c, 11, 69, 0
16, 511920, Note_on_c, 11, 81, 29
16, 512039, Note_on_c, 11, 81, 0
16, 512160, Program_c, 11, 48
16, 512280, Note_on_c, 11, 73, 32
16, 512384, Note_on_c, 11, 73, 0
16, 512400, Note_on_c, 11, 74, 32
16, 512504, Note_on_c, 11, 74, 0
16, 512520, Note_on_c, 11, 76, 32
16, 512624, Note_on_c, 11, 76, 0
16, 512640, Note_on_c, 11, 76, 32
16, 512744, Note_on_c, 11, 76, 0
16, 512760, Note_on_c, 11, 74, 32
16, 512864, Note_on_c, 11, 74, 0
16, 512880, Note_on_c, 11, 73, 32
16, 512984, Note_on_c, 11, 73, 0
16, 513000, Note_on_c, 11, 73, 32
16, 513104, Note_on_c, 11, 73, 0
16, 513120, Note_on_c, 11, 74, 32
16, 513224, Note_on_c, 11, 74, 0
16, 513240, Note_on_c, 11, 73, 32
16, 513344, Note_on_c, 11, 73, 0
16, 513360, Note_on_c, 11, 73, 32
16, 513464, Note_on_c, 11, 73, 0
16, 513480, Note_on_c, 11, 74, 32
16, 513584, Note_on_c, 11, 74, 0
16, 513600, Note_on_c, 11, 76, 32
16, 513704, Note_on_c, 11, 76, 0
16, 513720, Note_on_c, 11, 77, 32
16, 513839, Note_on_c, 11, 77, 0
16, 513960, Program_c, 11, 45
16, 514080, Note_on_c, 11, 57, 28
16, 514199, Note_on_c, 11, 57, 0
16, 514800, Note_on_c, 11, 62, 28
16, 514919, Note_on_c, 11, 62, 0
16, 515160, Note_on_c, 11, 57, 28
16, 515279, Note_on_c, 11, 57, 0
16, 515880, Note_on_c, 11, 62, 28
16, 515999, Note_on_c, 11, 62, 0
16, 516240, Note_on_c, 11, 57, 28
16, 516359, Note_on_c, 11, 57, 0
16, 518400, Program_c, 11, 48
16, 518760, Note_on_c, 11, 79, 32
16, 518924, Note_on_c, 11, 79, 0
16, 518940, Note_on_c, 11, 67, 32
16, 518984, Note_on_c, 11, 67, 0
16, 519000, Note_on_c, 11, 67, 32
16, 519104, Note_on_c, 11, 67, 0
16, 519120, Note_on_c, 11, 72, 32
16, 519224, Note_on_c, 11, 72, 0
16, 519240, Note_on_c, 11, 74, 32
16, 519344, Note_on_c, 11, 74, 0
16, 519360, Note_on_c, 11, 75, 32
16, 519464, Note_on_c, 11, 75, 0
16, 519480, Note_on_c, 11, 74, 32
16, 519584, Note_on_c, 11, 74, 0
16, 519600, Note_on_c, 11, 75, 32
16, 519704, Note_on_c, 11, 75, 0
16, 519720, Note_on_c, 11, 77, 32
16, 519824, Note_on_c, 11, 77, 0
16, 519840, Note_on_c, 11, 75, 32
16, 519944, Note_on_c, 11, 75, 0
16, 519960, Note_on_c, 11, 74, 32
16, 520064, Note_on_c, 11, 74, 0
16, 520080, Note_on_c, 11, 75, 32
16, 520184, Note_on_c, 11, 75, 0
16, 520200, Note_on_c, 11, 74, 32
16, 520304, Note_on_c, 11, 74, 0
16, 520320, Note_on_c, 11, 75, 32
16, 520424, Note_on_c, 11, 75, 0
16, 520440, Note_on_c, 11, 77, 32
16, 520544, Note_on_c, 11, 77, 0
16, 520560, Note_on_c, 11, 75, 32
16, 520664, Note_on_c, 11, 75, 0
16, 520680, Note_on_c, 11, 74, 32
16, 520784, Note_on_c, 11, 74, 0
16, 520800, Note_on_c, 11, 75, 32
16, 520904, Note_on_c, 11, 75, 0
16, 520920, Note_on_c, 11, 82, 32
16, 521084, Note_on_c, 11, 82, 0
16, 521100, Note_on_c, 11, 70, 32
16, 521144, Note_on_c, 11, 70, 0
16, 521160, Note_on_c, 11, 70, 32
16, 521264, Note_on_c, 11, 70, 0
16, 521280, Note_on_c, 11, 75, 32
16, 521384, Note_on_c, 11, 75, 0
16, 521400, Note_on_c, 11, 77, 32
16, 521504, Note_on_c, 11, 77, 0
16, 521520, Note_on_c, 11, 79, 32
16, 521624, Note_on_c, 11, 79, 0
16, 521640, Note_on_c, 11, 80, 32
16, 523064, Note_on_c, 11, 80, 0
16, 523080, Note_on_c, 11, 79, 32
16, 523169, Note_on_c, 11, 79, 0
16, 523200, Note_on_c, 11, 77, 32
16, 523289, Note_on_c, 11, 77, 0
16, 523320, Note_on_c, 11, 75, 32
16, 523409, Note_on_c, 11, 75, 0
16, 523440, Note_on_c, 11, 82, 32
16, 523529, Note_on_c, 11, 82, 0
16, 523560, Note_on_c, 11, 80, 32
16, 523649, Note_on_c, 11, 80, 0
16, 523680, Note_on_c, 11, 79, 32
16, 523769, Note_on_c, 11, 79, 0
16, 523800, Note_on_c, 11, 79, 32
16, 523889, Note_on_c, 11, 79, 0
16, 523920, Note_on_c, 11, 77, 32
16, 524009, Note_on_c, 11, 77, 0
16, 524040, Note_on_c, 11, 75, 32
16, 524129, Note_on_c, 11, 75, 0
16, 524160, Note_on_c, 11, 82, 32
16, 524249, Note_on_c, 11, 82, 0
16, 524280, Note_on_c, 11, 80, 32
16, 524369, Note_on_c, 11, 80, 0
16, 524400, Note_on_c, 11, 79, 32
16, 524489, Note_on_c, 11, 79, 0
16, 524518, Control_c, 11, 11, 47
16, 524520, Note_on_c, 11, 80, 80
16, 524520, Control_c, 11, 11, 47
16, 524592, Control_c, 11, 11, 48
16, 524664, Control_c, 11, 11, 49
16, 524736, Control_c, 11, 11, 50
16, 524808, Control_c, 11, 11, 51
16, 524880, Control_c, 11, 11, 52
16, 524952, Control_c, 11, 11, 53
16, 525024, Control_c, 11, 11, 54
16, 525096, Control_c, 11, 11, 55
16, 525168, Control_c, 11, 11, 56
16, 525240, Control_c, 11, 11, 57
16, 525312, Control_c, 11, 11, 58
16, 525384, Control_c, 11, 11, 59
16, 525456, Control_c, 11, 11, 60
16, 525528, Control_c, 11, 11, 61
16, 525600, Control_c, 11, 11, 62
16, 525672, Control_c, 11, 11, 63
16, 525744, Control_c, 11, 11, 64
16, 525816, Control_c, 11, 11, 65
16, 525888, Control_c, 11, 11, 66
16, 525944, Note_on_c, 11, 80, 0
16, 525960, Note_on_c, 11, 81, 80
16, 525960, Control_c, 11, 11, 67
16, 525990, Control_c, 11, 11, 68
16, 526020, Control_c, 11, 11, 70
16, 526050, Control_c, 11, 11, 71
16, 526080, Control_c, 11, 11, 72
16, 526110, Control_c, 11, 11, 73
16, 526140, Control_c, 11, 11, 75
16, 526170, Control_c, 11, 11, 76
16, 526200, Control_c, 11, 11, 77
16, 526230, Control_c, 11, 11, 78
16, 526260, Control_c, 11, 11, 80
16, 526290, Control_c, 11, 11, 81
16, 526320, Control_c, 11, 11, 82
16, 526350, Control_c, 11, 11, 83
16, 526380, Control_c, 11, 11, 85
16, 526410, Control_c, 11, 11, 86
16, 526440, Control_c, 11, 11, 87
16, 526470, Control_c, 11, 11, 88
16, 526500, Control_c, 11, 11, 90
16, 526530, Control_c, 11, 11, 91
16, 526560, Control_c, 11, 11, 92
16, 526590, Control_c, 11, 11, 93
16, 526620, Control_c, 11, 11, 95
16, 526650, Control_c, 11, 11, 96
16, 526664, Note_on_c, 11, 81, 0
16, 526680, Control_c, 11, 11, 97
16, 526680, Note_on_c, 11, 86, 80
16, 526710, Control_c, 11, 11, 98
16, 526740, Control_c, 11, 11, 100
16, 526770, Control_c, 11, 11, 101
16, 526800, Control_c, 11, 11, 102
16, 526830, Control_c, 11, 11, 103
16, 526860, Control_c, 11, 11, 105
16, 526890, Control_c, 11, 11, 106
16, 526920, Control_c, 11, 11, 107
16, 526950, Control_c, 11, 11, 108
16, 526980, Control_c, 11, 11, 110
16, 527010, Control_c, 11, 11, 111
16, 527040, Control_c, 11, 11, 112
16, 527070, Control_c, 11, 11, 113
16, 527100, Control_c, 11, 11, 115
16, 527130, Control_c, 11, 11, 116
16, 527160, Control_c, 11, 11, 117
16, 527190, Control_c, 11, 11, 118
16, 527220, Control_c, 11, 11, 120
16, 527250, Control_c, 11, 11, 121
16, 527280, Control_c, 11, 11, 122
16, 527310, Control_c, 11, 11, 123
16, 527340, Control_c, 11, 11, 125
16, 527370, Control_c, 11, 11, 127
16, 527384, Note_on_c, 11, 86, 0
16, 527400, Note_on_c, 11, 89, 80
16, 527400, Note_on_c, 11, 69, 80
16, 527519, Note_on_c, 11, 89, 0
16, 527519, Note_on_c, 11, 69, 0
16, 528120, Note_on_c, 11, 69, 86
16, 528120, Note_on_c, 11, 93, 86
16, 528239, Note_on_c, 11, 69, 0
16, 528239, Note_on_c, 11, 93, 0
16, 528840, Note_on_c, 11, 69, 92
16, 528840, Note_on_c, 11, 93, 92
16, 529004, Note_on_c, 11, 69, 0
16, 529004, Note_on_c, 11, 93, 0
16, 529020, Note_on_c, 11, 69, 92
16, 529064, Note_on_c, 11, 69, 0
16, 529080, Note_on_c, 11, 69, 92
16, 529184, Note_on_c, 11, 69, 0
16, 529200, Note_on_c, 11, 69, 92
16, 529200, Note_on_c, 11, 93, 92
16, 529364, Note_on_c, 11, 69, 0
16, 529364, Note_on_c, 11, 93, 0
16, 529380, Note_on_c, 11, 69, 92
16, 529424, Note_on_c, 11, 69, 0
16, 529440, Note_on_c, 11, 69, 92
16, 529544, Note_on_c, 11, 69, 0
16, 529560, Note_on_c, 11, 69, 92
16, 529560, Note_on_c, 11, 93, 92
16, 529724, Note_on_c, 11, 69, 0
16, 529724, Note_on_c, 11, 93, 0
16, 529740, Note_on_c, 11, 69, 92
16, 529784, Note_on_c, 11, 69, 0
16, 529800, Note_on_c, 11, 69, 92
16, 529904, Note_on_c, 11, 69, 0
16, 529920, Note_on_c, 11, 69, 92
16, 529920, Note_on_c, 11, 93, 92
16, 530084, Note_on_c, 11, 69, 0
16, 530084, Note_on_c, 11, 93, 0
16, 530100, Note_on_c, 11, 69, 92
16, 530144, Note_on_c, 11, 69, 0
16, 530160, Note_on_c, 11, 69, 92
16, 530264, Note_on_c, 11, 69, 0
16, 530280, Note_on_c, 11, 69, 92
16, 530280, Note_on_c, 11, 93, 92
16, 530444, Note_on_c, 11, 69, 0
16, 530444, Note_on_c, 11, 93, 0
16, 530460, Note_on_c, 11, 69, 92
16, 530504, Note_on_c, 11, 69, 0
16, 530520, Note_on_c, 11, 69, 92
16, 530624, Note_on_c, 11, 69, 0
16, 530640, Note_on_c, 11, 86, 92
16, 530729, Note_on_c, 11, 86, 0
16, 530760, Note_on_c, 11, 88, 92
16, 530849, Note_on_c, 11, 88, 0
16, 530880, Note_on_c, 11, 89, 92
16, 530969, Note_on_c, 11, 89, 0
16, 531000, Note_on_c, 11, 88, 92
16, 531089, Note_on_c, 11, 88, 0
16, 531120, Note_on_c, 11, 89, 92
16, 531209, Note_on_c, 11, 89, 0
16, 531240, Note_on_c, 11, 91, 92
16, 531329, Note_on_c, 11, 91, 0
16, 531360, Note_on_c, 11, 89, 92
16, 531449, Note_on_c, 11, 89, 0
16, 531480, Note_on_c, 11, 88, 92
16, 531569, Note_on_c, 11, 88, 0
16, 531600, Note_on_c, 11, 86, 92
16, 531689, Note_on_c, 11, 86, 0
16, 531720, Note_on_c, 11, 82, 92
16, 531809, Note_on_c, 11, 82, 0
16, 531840, Note_on_c, 11, 81, 92
16, 531929, Note_on_c, 11, 81, 0
16, 531960, Note_on_c, 11, 79, 92
16, 532049, Note_on_c, 11, 79, 0
16, 532080, Note_on_c, 11, 77, 92
16, 532169, Note_on_c, 11, 77, 0
16, 532200, Note_on_c, 11, 88, 92
16, 532289, Note_on_c, 11, 88, 0
16, 532320, Note_on_c, 11, 86, 92
16, 532409, Note_on_c, 11, 86, 0
16, 532440, Note_on_c, 11, 85, 92
16, 532529, Note_on_c, 11, 85, 0
16, 532560, Note_on_c, 11, 86, 92
16, 532649, Note_on_c, 11, 86, 0
16, 532680, Note_on_c, 11, 88, 92
16, 532769, Note_on_c, 11, 88, 0
16, 532800, Note_on_c, 11, 86, 92
16, 532889, Note_on_c, 11, 86, 0
16, 532920, Note_on_c, 11, 85, 92
16, 533009, Note_on_c, 11, 85, 0
16, 533040, Note_on_c, 11, 86, 92
16, 533129, Note_on_c, 11, 86, 0
16, 533160, Note_on_c, 11, 82, 92
16, 533249, Note_on_c, 11, 82, 0
16, 533280, Note_on_c, 11, 81, 92
16, 533369, Note_on_c, 11, 81, 0
16, 533400, Note_on_c, 11, 79, 92
16, 533489, Note_on_c, 11, 79, 0
16, 533520, Note_on_c, 11, 77, 92
16, 533609, Note_on_c, 11, 77, 0
16, 533640, Note_on_c, 11, 88, 92
16, 533729, Note_on_c, 11, 88, 0
16, 533760, Note_on_c, 11, 86, 92
16, 533849, Note_on_c, 11, 86, 0
16, 533880, Note_on_c, 11, 85, 92
16, 533969, Note_on_c, 11, 85, 0
16, 534000, Note_on_c, 11, 86, 92
16, 534089, Note_on_c, 11, 86, 0
16, 534120, Note_on_c, 11, 88, 92
16, 534209, Note_on_c, 11, 88, 0
16, 534240, Note_on_c, 11, 86, 92
16, 534329, Note_on_c, 11, 86, 0
16, 534360, Note_on_c, 11, 85, 92
16, 534449, Note_on_c, 11, 85, 0
16, 534480, Note_on_c, 11, 86, 92
16, 534569, Note_on_c, 11, 86, 0
16, 534600, Note_on_c, 11, 84, 92
16, 534689, Note_on_c, 11, 84, 0
16, 534720, Note_on_c, 11, 86, 92
16, 534809, Note_on_c, 11, 86, 0
16, 534840, Note_on_c, 11, 87, 92
16, 534929, Note_on_c, 11, 87, 0
16, 534960, Note_on_c, 11, 79, 92
16, 535049, Note_on_c, 11, 79, 0
16, 535080, Note_on_c, 11, 81, 92
16, 535169, Note_on_c, 11, 81, 0
16, 535200, Note_on_c, 11, 82, 92
16, 535289, Note_on_c, 11, 82, 0
16, 535320, Note_on_c, 11, 81, 92
16, 535409, Note_on_c, 11, 81, 0
16, 535440, Note_on_c, 11, 82, 92
16, 535529, Note_on_c, 11, 82, 0
16, 535560, Note_on_c, 11, 84, 92
16, 535649, Note_on_c, 11, 84, 0
16, 535680, Note_on_c, 11, 82, 92
16, 535769, Note_on_c, 11, 82, 0
16, 535800, Note_on_c, 11, 81, 92
16, 535889, Note_on_c, 11, 81, 0
16, 535920, Note_on_c, 11, 79, 92
16, 536009, Note_on_c, 11, 79, 0
16, 536040, Note_on_c, 11, 75, 80
16, 536129, Note_on_c, 11, 75, 0
16, 536160, Note_on_c, 11, 74, 80
16, 536249, Note_on_c, 11, 74, 0
16, 536280, Note_on_c, 11, 72, 80
16, 536369, Note_on_c, 11, 72, 0
16, 536400, Note_on_c, 11, 70, 80
16, 536489, Note_on_c, 11, 70, 0
16, 536520, Note_on_c, 11, 69, 80
16, 536609, Note_on_c, 11, 69, 0
16, 536640, Note_on_c, 11, 67, 80
16, 536729, Note_on_c, 11, 67, 0
16, 536760, Note_on_c, 11, 77, 80
16, 536849, Note_on_c, 11, 77, 0
16, 536880, Note_on_c, 11, 75, 80
16, 536969, Note_on_c, 11, 75, 0
16, 537000, Note_on_c, 11, 74, 80
16, 537089, Note_on_c, 11, 74, 0
16, 537120, Note_on_c, 11, 72, 80
16, 537209, Note_on_c, 11, 72, 0
16, 537240, Note_on_c, 11, 70, 80
16, 537329, Note_on_c, 11, 70, 0
16, 537360, Note_on_c, 11, 69, 80
16, 537449, Note_on_c, 11, 69, 0
16, 537480, Note_on_c, 11, 79, 80
16, 537569, Note_on_c, 11, 79, 0
16, 537600, Note_on_c, 11, 77, 80
16, 537689, Note_on_c, 11, 77, 0
16, 537720, Note_on_c, 11, 75, 80
16, 537809, Note_on_c, 11, 75, 0
16, 537840, Note_on_c, 11, 74, 80
16, 537929, Note_on_c, 11, 74, 0
16, 537960, Note_on_c, 11, 72, 80
16, 538049, Note_on_c, 11, 72, 0
16, 538080, Note_on_c, 11, 70, 80
16, 538169, Note_on_c, 11, 70, 0
16, 538200, Note_on_c, 11, 69, 80
16, 538289, Note_on_c, 11, 69, 0
16, 538320, Note_on_c, 11, 67, 80
16, 538409, Note_on_c, 11, 67, 0
16, 538440, Note_on_c, 11, 65, 80
16, 538529, Note_on_c, 11, 65, 0
16, 538560, Note_on_c, 11, 63, 80
16, 538649, Note_on_c, 11, 63, 0
16, 538680, Note_on_c, 11, 62, 80
16, 538769, Note_on_c, 11, 62, 0
16, 538800, Note_on_c, 11, 60, 80
16, 538889, Note_on_c, 11, 60, 0
16, 538920, Note_on_c, 11, 58, 80
16, 539009, Note_on_c, 11, 58, 0
16, 539640, Note_on_c, 11, 79, 44
16, 539804, Note_on_c, 11, 79, 0
16, 539820, Note_on_c, 11, 67, 48
16, 539864, Note_on_c, 11, 67, 0
16, 539880, Note_on_c, 11, 67, 49
16, 539984, Note_on_c, 11, 67, 0
16, 540000, Note_on_c, 11, 79, 52
16, 540164, Note_on_c, 11, 79, 0
16, 540180, Note_on_c, 11, 67, 56
16, 540224, Note_on_c, 11, 67, 0
16, 540240, Note_on_c, 11, 67, 57
16, 540344, Note_on_c, 11, 67, 0
16, 540360, Note_on_c, 11, 81, 60
16, 540524, Note_on_c, 11, 81, 0
16, 540540, Note_on_c, 11, 69, 64
16, 540584, Note_on_c, 11, 69, 0
16, 540600, Note_on_c, 11, 69, 65
16, 540704, Note_on_c, 11, 69, 0
16, 540720, Note_on_c, 11, 82, 68
16, 540884, Note_on_c, 11, 82, 0
16, 540900, Note_on_c, 11, 70, 64
16, 540944, Note_on_c, 11, 70, 0
16, 540960, Note_on_c, 11, 70, 63
16, 541064, Note_on_c, 11, 70, 0
16, 541080, Note_on_c, 11, 82, 60
16, 541244, Note_on_c, 11, 82, 0
16, 541260, Note_on_c, 11, 70, 56
16, 541304, Note_on_c, 11, 70, 0
16, 541320, Note_on_c, 11, 70, 55
16, 541424, Note_on_c, 11, 70, 0
16, 541440, Note_on_c, 11, 81, 52
16, 541604, Note_on_c, 11, 81, 0
16, 541620, Note_on_c, 11, 69, 48
16, 541664, Note_on_c, 11, 69, 0
16, 541680, Note_on_c, 11, 69, 47
16, 541784, Note_on_c, 11, 69, 0
16, 543240, Note_on_c, 11, 83, 50
16, 543404, Note_on_c, 11, 83, 0
16, 543420, Note_on_c, 11, 71, 53
16, 543464, Note_on_c, 11, 71, 0
16, 543480, Note_on_c, 11, 71, 54
16, 543584, Note_on_c, 11, 71, 0
16, 543600, Note_on_c, 11, 88, 56
16, 543764, Note_on_c, 11, 88, 0
16, 543780, Note_on_c, 11, 76, 59
16, 543824, Note_on_c, 11, 76, 0
16, 543840, Note_on_c, 11, 76, 60
16, 543944, Note_on_c, 11, 76, 0
16, 543960, Note_on_c, 11, 88, 62
16, 544124, Note_on_c, 11, 88, 0
16, 544140, Note_on_c, 11, 76, 65
16, 544184, Note_on_c, 11, 76, 0
16, 544200, Note_on_c, 11, 76, 66
16, 544304, Note_on_c, 11, 76, 0
16, 544320, Note_on_c, 11, 86, 68
16, 544484, Note_on_c, 11, 86, 0
16, 544500, Note_on_c, 11, 74, 64
16, 544544, Note_on_c, 11, 74, 0
16, 544560, Note_on_c, 11, 74, 63
16, 544664, Note_on_c, 11, 74, 0
16, 544680, Note_on_c, 11, 86, 60
16, 544844, Note_on_c, 11, 86, 0
16, 544860, Note_on_c, 11, 74, 56
16, 544904, Note_on_c, 11, 74, 0
16, 544920, Note_on_c, 11, 74, 55
16, 545024, Note_on_c, 11, 74, 0
16, 545040, Note_on_c, 11, 85, 52
16, 545204, Note_on_c, 11, 85, 0
16, 545220, Note_on_c, 11, 73, 48
16, 545264, Note_on_c, 11, 73, 0
16, 545280, Note_on_c, 11, 73, 47
16, 545384, Note_on_c, 11, 73, 0
16, 546480, Note_on_c, 11, 76, 56
16, 546644, Note_on_c, 11, 76, 0
16, 546660, Note_on_c, 11, 64, 59
16, 546704, Note_on_c, 11, 64, 0
16, 546720, Note_on_c, 11, 64, 60
16, 546824, Note_on_c, 11, 64, 0
16, 546840, Note_on_c, 11, 76, 62
16, 547004, Note_on_c, 11, 76, 0
16, 547020, Note_on_c, 11, 64, 65
16, 547064, Note_on_c, 11, 64, 0
16, 547080, Note_on_c, 11, 64, 66
16, 547184, Note_on_c, 11, 64, 0
16, 547200, Note_on_c, 11, 74, 68
16, 547364, Note_on_c, 11, 74, 0
16, 547380, Note_on_c, 11, 62, 64
16, 547424, Note_on_c, 11, 62, 0
16, 547440, Note_on_c, 11, 62, 63
16, 547544, Note_on_c, 11, 62, 0
16, 547560, Note_on_c, 11, 74, 60
16, 547724, Note_on_c, 11, 74, 0
16, 547740, Note_on_c, 11, 62, 56
16, 547784, Note_on_c, 11, 62, 0
16, 547800, Note_on_c, 11, 62, 55
16, 547904, Note_on_c, 11, 62, 0
16, 547920, Note_on_c, 11, 73, 52
16, 548084, Note_on_c, 11, 73, 0
16, 548100, Note_on_c, 11, 61, 48
16, 548144, Note_on_c, 11, 61, 0
16, 548160, Note_on_c, 11, 61, 47
16, 548264, Note_on_c, 11, 61, 0
16, 548280, Program_c, 11, 45
16, 548520, Note_on_c, 11, 69, 40
16, 548639, Note_on_c, 11, 69, 0
16, 548880, Note_on_c, 11, 81, 46
16, 548999, Note_on_c, 11, 81, 0
16, 549240, Note_on_c, 11, 78, 52
16, 549359, Note_on_c, 11, 78, 0
16, 549600, Note_on_c, 11, 79, 58
16, 549719, Note_on_c, 11, 79, 0
16, 549960, Note_on_c, 11, 76, 64
16, 550079, Note_on_c, 11, 76, 0
16, 550320, Note_on_c, 11, 78, 70
16, 550439, Note_on_c, 11, 78, 0
16, 550680, Note_on_c, 11, 81, 76
16, 550799, Note_on_c, 11, 81, 0
16, 551040, Note_on_c, 11, 85, 82
16, 551144, Note_on_c, 11, 85, 0
16, 551158, Program_c, 11, 48
16, 551160, Note_on_c, 11, 86, 92
16, 551324, Note_on_c, 11, 86, 0
16, 551340, Note_on_c, 11, 74, 92
16, 551384, Note_on_c, 11, 74, 0
16, 551400, Note_on_c, 11, 74, 92
16, 551504, Note_on_c, 11, 74, 0
16, 551520, Note_on_c, 11, 86, 92
16, 551684, Note_on_c, 11, 86, 0
16, 551700, Note_on_c, 11, 74, 92
16, 551744, Note_on_c, 11, 74, 0
16, 551760, Note_on_c, 11, 74, 92
16, 551864, Note_on_c, 11, 74, 0
16, 551880, Note_on_c, 11, 86, 92
16, 552044, Note_on_c, 11, 86, 0
16, 552060, Note_on_c, 11, 74, 92
16, 552104, Note_on_c, 11, 74, 0
16, 552120, Note_on_c, 11, 74, 92
16, 552224, Note_on_c, 11, 74, 0
16, 552240, Note_on_c, 11, 86, 92
16, 552404, Note_on_c, 11, 86, 0
16, 552420, Note_on_c, 11, 74, 92
16, 552464, Note_on_c, 11, 74, 0
16, 552480, Note_on_c, 11, 74, 92
16, 552584, Note_on_c, 11, 74, 0
16, 552600, Note_on_c, 11, 86, 92
16, 552764, Note_on_c, 11, 86, 0
16, 552780, Note_on_c, 11, 74, 92
16, 552824, Note_on_c, 11, 74, 0
16, 552840, Note_on_c, 11, 74, 92
16, 552944, Note_on_c, 11, 74, 0
16, 552960, Note_on_c, 11, 86, 92
16, 553124, Note_on_c, 11, 86, 0
16, 553140, Note_on_c, 11, 74, 92
16, 553184, Note_on_c, 11, 74, 0
16, 553200, Note_on_c, 11, 74, 92
16, 553304, Note_on_c, 11, 74, 0
16, 553320, Note_on_c, 11, 86, 92
16, 553484, Note_on_c, 11, 86, 0
16, 553500, Note_on_c, 11, 74, 92
16, 553544, Note_on_c, 11, 74, 0
16, 553560, Note_on_c, 11, 74, 92
16, 553664, Note_on_c, 11, 74, 0
16, 553680, Note_on_c, 11, 86, 92
16, 553844, Note_on_c, 11, 86, 0
16, 553860, Note_on_c, 11, 74, 92
16, 553904, Note_on_c, 11, 74, 0
16, 553920, Note_on_c, 11, 74, 92
16, 554024, Note_on_c, 11, 74, 0
16, 554040, Note_on_c, 11, 86, 92
16, 554204, Note_on_c, 11, 86, 0
16, 554220, Note_on_c, 11, 74, 92
16, 554264, Note_on_c, 11, 74, 0
16, 554280, Note_on_c, 11, 74, 92
16, 554384, Note_on_c, 11, 74, 0
16, 554400, Note_on_c, 11, 86, 92
16, 554564, Note_on_c, 11, 86, 0
16, 554580, Note_on_c, 11, 74, 92
16, 554624, Note_on_c, 11, 74, 0
16, 554640, Note_on_c, 11, 74, 92
16, 554744, Note_on_c, 11, 74, 0
16, 554760, Note_on_c, 11, 86, 92
16, 554924, Note_on_c, 11, 86, 0
16, 554940, Note_on_c, 11, 74, 92
16, 554984, Note_on_c, 11, 74, 0
16, 555000, Note_on_c, 11, 74, 92
16, 555104, Note_on_c, 11, 74, 0
16, 555120, Note_on_c, 11, 86, 92
16, 555284, Note_on_c, 11, 86, 0
16, 555300, Note_on_c, 11, 74, 92
16, 555344, Note_on_c, 11, 74, 0
16, 555360, Note_on_c, 11, 74, 92
16, 555464, Note_on_c, 11, 74, 0
16, 555480, Note_on_c, 11, 86, 92
16, 555644, Note_on_c, 11, 86, 0
16, 555660, Note_on_c, 11, 74, 92
16, 555704, Note_on_c, 11, 74, 0
16, 555720, Note_on_c, 11, 74, 92
16, 555824, Note_on_c, 11, 74, 0
16, 555840, Note_on_c, 11, 86, 92
16, 556004, Note_on_c, 11, 86, 0
16, 556020, Note_on_c, 11, 74, 92
16, 556064, Note_on_c, 11, 74, 0
16, 556080, Note_on_c, 11, 74, 92
16, 556184, Note_on_c, 11, 74, 0
16, 556200, Note_on_c, 11, 86, 92
16, 556364, Note_on_c, 11, 86, 0
16, 556380, Note_on_c, 11, 74, 92
16, 556424, Note_on_c, 11, 74, 0
16, 556440, Note_on_c, 11, 74, 92
16, 556544, Note_on_c, 11, 74, 0
16, 556560, Note_on_c, 11, 86, 92
16, 556724, Note_on_c, 11, 86, 0
16, 556740, Note_on_c, 11, 74, 92
16, 556784, Note_on_c, 11, 74, 0
16, 556800, Note_on_c, 11, 74, 92
16, 556904, Note_on_c, 11, 74, 0
16, 556920, Note_on_c, 11, 86, 92
16, 556920, Note_on_c, 11, 74, 92
16, 557039, Note_on_c, 11, 86, 0
16, 557039, Note_on_c, 11, 74, 0
16, 557640, Note_on_c, 11, 82, 92
16, 557804, Note_on_c, 11, 82, 0
16, 557820, Note_on_c, 11, 70, 92
16, 557864, Note_on_c, 11, 70, 0
16, 557880, Note_on_c, 11, 70, 92
16, 557984, Note_on_c, 11, 70, 0
16, 558000, Note_on_c, 11, 82, 92
16, 558089, Note_on_c, 11, 82, 0
16, 558120, Note_on_c, 11, 79, 92
16, 558209, Note_on_c, 11, 79, 0
16, 558240, Note_on_c, 11, 77, 92
16, 558329, Note_on_c, 11, 77, 0
16, 558360, Note_on_c, 11, 76, 92
16, 558479, Note_on_c, 11, 76, 0
16, 559080, Note_on_c, 11, 81, 92
16, 559244, Note_on_c, 11, 81, 0
16, 559260, Note_on_c, 11, 69, 92
16, 559304, Note_on_c, 11, 69, 0
16, 559320, Note_on_c, 11, 69, 92
16, 559424, Note_on_c, 11, 69, 0
16, 559440, Note_on_c, 11, 81, 92
16, 559544, Note_on_c, 11, 81, 0
16, 559560, Note_on_c, 11, 77, 92
16, 559664, Note_on_c, 11, 77, 0
16, 559680, Note_on_c, 11, 76, 92
16, 559784, Note_on_c, 11, 76, 0
16, 559798, Control_c, 11, 11, 87
16, 559800, Note_on_c, 11, 74, 68
16, 560279, Note_on_c, 11, 74, 0
16, 560280, Note_on_c, 11, 76, 68
16, 560399, Note_on_c, 11, 76, 0
16, 560400, Note_on_c, 11, 78, 68
16, 560504, Note_on_c, 11, 78, 0
16, 560520, Note_on_c, 11, 79, 68
16, 560520, Control_c, 11, 11, 87
16, 560555, Control_c, 11, 11, 89
16, 560590, Control_c, 11, 11, 90
16, 560625, Control_c, 11, 11, 92
16, 560660, Control_c, 11, 11, 94
16, 560695, Control_c, 11, 11, 95
16, 560730, Control_c, 11, 11, 97
16, 560765, Control_c, 11, 11, 99
16, 560800, Control_c, 11, 11, 100
16, 560835, Control_c, 11, 11, 102
16, 560864, Note_on_c, 11, 79, 0
16, 560870, Control_c, 11, 11, 104
16, 560880, Note_on_c, 11, 79, 68
16, 560905, Control_c, 11, 11, 105
16, 560940, Control_c, 11, 11, 107
16, 560975, Control_c, 11, 11, 109
16, 561010, Control_c, 11, 11, 110
16, 561045, Control_c, 11, 11, 112
16, 561080, Control_c, 11, 11, 114
16, 561115, Control_c, 11, 11, 115
16, 561150, Control_c, 11, 11, 117
16, 561185, Control_c, 11, 11, 119
16, 561220, Control_c, 11, 11, 120
16, 561224, Note_on_c, 11, 79, 0
16, 561240, Note_on_c, 11, 79, 68
16, 561255, Control_c, 11, 11, 122
16, 561290, Control_c, 11, 11, 124
16, 561325, Control_c, 11, 11, 125
16, 561480, Control_c, 11, 11, 127
16, 561507, Control_c, 11, 11, 125
16, 561533, Control_c, 11, 11, 123
16, 561560, Control_c, 11, 11, 120
16, 561587, Control_c, 11, 11, 118
16, 561613, Control_c, 11, 11, 116
16, 561640, Control_c, 11, 11, 114
16, 561667, Control_c, 11, 11, 111
16, 561693, Control_c, 11, 11, 109
16, 561719, Note_on_c, 11, 79, 0
16, 561720, Control_c, 11, 11, 107
16, 561720, Note_on_c, 11, 77, 68
16, 561747, Control_c, 11, 11, 105
16, 561773, Control_c, 11, 11, 103
16, 561800, Control_c, 11, 11, 100
16, 561827, Control_c, 11, 11, 98
16, 561839, Note_on_c, 11, 77, 0
16, 561840, Note_on_c, 11, 76, 68
16, 561853, Control_c, 11, 11, 96
16, 561880, Control_c, 11, 11, 94
16, 561907, Control_c, 11, 11, 91
16, 561933, Control_c, 11, 11, 89
16, 561959, Note_on_c, 11, 76, 0
16, 563760, Control_c, 11, 11, 127
16, 564120, Note_on_c, 11, 77, 80
16, 564209, Note_on_c, 11, 77, 0
16, 564240, Note_on_c, 11, 74, 80
16, 564329, Note_on_c, 11, 74, 0
16, 564360, Note_on_c, 11, 79, 80
16, 564449, Note_on_c, 11, 79, 0
16, 564480, Note_on_c, 11, 76, 80
16, 564569, Note_on_c, 11, 76, 0
16, 564600, Note_on_c, 11, 73, 80
16, 564689, Note_on_c, 11, 73, 0
16, 564720, Note_on_c, 11, 77, 80
16, 564809, Note_on_c, 11, 77, 0
16, 564840, Note_on_c, 11, 74, 80
16, 564929, Note_on_c, 11, 74, 0
16, 565560, Note_on_c, 11, 77, 80
16, 565649, Note_on_c, 11, 77, 0
16, 565680, Note_on_c, 11, 74, 80
16, 565769, Note_on_c, 11, 74, 0
16, 565800, Note_on_c, 11, 79, 80
16, 565889, Note_on_c, 11, 79, 0
16, 565920, Note_on_c, 11, 76, 80
16, 566009, Note_on_c, 11, 76, 0
16, 566040, Note_on_c, 11, 73, 80
16, 566129, Note_on_c, 11, 73, 0
16, 566160, Note_on_c, 11, 77, 80
16, 566249, Note_on_c, 11, 77, 0
16, 566280, Note_on_c, 11, 86, 80
16, 566444, Note_on_c, 11, 86, 0
16, 566460, Note_on_c, 11, 74, 80
16, 566504, Note_on_c, 11, 74, 0
16, 566520, Note_on_c, 11, 74, 80
16, 566624, Note_on_c, 11, 74, 0
16, 566640, Note_on_c, 11, 69, 80
16, 566759, Note_on_c, 11, 69, 0
16, 567000, Note_on_c, 11, 86, 80
16, 567164, Note_on_c, 11, 86, 0
16, 567180, Note_on_c, 11, 74, 80
16, 567224, Note_on_c, 11, 74, 0
16, 567240, Note_on_c, 11, 74, 80
16, 567344, Note_on_c, 11, 74, 0
16, 567360, Note_on_c, 11, 69, 80
16, 567479, Note_on_c, 11, 69, 0
16, 567720, Note_on_c, 11, 79, 32
16, 567839, Note_on_c, 11, 79, 0
16, 567840, Note_on_c, 11, 76, 32
16, 567959, Note_on_c, 11, 76, 0
16, 567960, Note_on_c, 11, 73, 32
16, 568079, Note_on_c, 11, 73, 0
16, 568080, Note_on_c, 11, 67, 32
16, 568199, Note_on_c, 11, 67, 0
16, 568200, Note_on_c, 11, 64, 32
16, 568319, Note_on_c, 11, 64, 0
16, 568320, Note_on_c, 11, 61, 32
16, 568439, Note_on_c, 11, 61, 0
16, 568440, Note_on_c, 11, 55, 32
16, 568559, Note_on_c, 11, 55, 0
16, 568560, Note_on_c, 11, 61, 32
16, 568679, Note_on_c, 11, 61, 0
16, 568680, Note_on_c, 11, 64, 32
16, 568799, Note_on_c, 11, 64, 0
16, 568800, Note_on_c, 11, 67, 32
16, 568919, Note_on_c, 11, 67, 0
16, 568920, Note_on_c, 11, 73, 32
16, 569039, Note_on_c, 11, 73, 0
16, 569040, Note_on_c, 11, 76, 32
16, 569144, Note_on_c, 11, 76, 0
16, 569160, Note_on_c, 11, 74, 32
16, 569324, Note_on_c, 11, 74, 0
16, 569340, Note_on_c, 11, 62, 32
16, 569384, Note_on_c, 11, 62, 0
16, 569400, Note_on_c, 11, 62, 32
16, 569504, Note_on_c, 11, 62, 0
16, 569520, Note_on_c, 11, 62, 32
16, 569639, Note_on_c, 11, 62, 0
16, 569880, Note_on_c, 11, 74, 32
16, 570044, Note_on_c, 11, 74, 0
16, 570060, Note_on_c, 11, 62, 32
16, 570104, Note_on_c, 11, 62, 0
16, 570120, Note_on_c, 11, 62, 32
16, 570224, Note_on_c, 11, 62, 0
16, 570240, Note_on_c, 11, 62, 32
16, 570359, Note_on_c, 11, 62, 0
16, 572040, Note_on_c, 11, 74, 32
16, 572204, Note_on_c, 11, 74, 0
16, 572220, Note_on_c, 11, 62, 36
16, 572264, Note_on_c, 11, 62, 0
16, 572280, Note_on_c, 11, 62, 37
16, 572384, Note_on_c, 11, 62, 0
16, 572400, Note_on_c, 11, 62, 40
16, 572519, Note_on_c, 11, 62, 0
16, 572760, Note_on_c, 11, 74, 48
16, 572924, Note_on_c, 11, 74, 0
16, 572940, Note_on_c, 11, 62, 52
16, 572984, Note_on_c, 11, 62, 0
16, 573000, Note_on_c, 11, 62, 53
16, 573104, Note_on_c, 11, 62, 0
16, 573120, Note_on_c, 11, 62, 56
16, 573120, Note_on_c, 11, 65, 56
16, 573239, Note_on_c, 11, 62, 0
16, 573239, Note_on_c, 11, 65, 0
16, 573480, Note_on_c, 11, 74, 64
16, 573644, Note_on_c, 11, 74, 0
16, 573660, Note_on_c, 11, 62, 68
16, 573704, Note_on_c, 11, 62, 0
16, 573720, Note_on_c, 11, 62, 69
16, 573824, Note_on_c, 11, 62, 0
16, 573840, Note_on_c, 11, 62, 72
16, 573840, Note_on_c, 11, 70, 72
16, 573959, Note_on_c, 11, 62, 0
16, 573959, Note_on_c, 11, 70, 0
16, 574200, Note_on_c, 11, 74, 80
16, 574364, Note_on_c, 11, 74, 0
16, 574380, Note_on_c, 11, 62, 80
16, 574424, Note_on_c, 11, 62, 0
16, 574440, Note_on_c, 11, 62, 80
16, 574544, Note_on_c, 11, 62, 0
16, 574560, Note_on_c, 11, 76, 92
16, 574560, Note_on_c, 11, 73, 92
16, 574679, Note_on_c, 11, 76, 0
16, 574679, Note_on_c, 11, 73, 0
16, 575280, Note_on_c, 11, 81, 32
16, 575444, Note_on_c, 11, 81, 0
16, 575460, Note_on_c, 11, 69, 32
16, 575504, Note_on_c, 11, 69, 0
16, 575520, Note_on_c, 11, 69, 32
16, 575624, Note_on_c, 11, 69, 0
16, 575640, Note_on_c, 11, 74, 32
16, 575744, Note_on_c, 11, 74, 0
16, 575760, Note_on_c, 11, 76, 32
16, 575864, Note_on_c, 11, 76, 0
16, 575880, Note_on_c, 11, 77, 32
16, 575984, Note_on_c, 11, 77, 0
16, 576000, Note_on_c, 11, 81, 32
16, 576104, Note_on_c, 11, 81, 0
16, 576120, Note_on_c, 11, 82, 32
16, 576224, Note_on_c, 11, 82, 0
16, 576240, Note_on_c, 11, 84, 32
16, 576344, Note_on_c, 11, 84, 0
16, 576360, Note_on_c, 11, 86, 32
16, 576464, Note_on_c, 11, 86, 0
16, 576480, Note_on_c, 11, 84, 32
16, 576584, Note_on_c, 11, 84, 0
16, 576600, Note_on_c, 11, 82, 32
16, 576704, Note_on_c, 11, 82, 0
16, 576720, Note_on_c, 11, 81, 32
16, 576884, Note_on_c, 11, 81, 0
16, 576900, Note_on_c, 11, 69, 32
16, 576944, Note_on_c, 11, 69, 0
16, 576960, Note_on_c, 11, 69, 32
16, 577064, Note_on_c, 11, 69, 0
16, 577080, Note_on_c, 11, 74, 32
16, 577184, Note_on_c, 11, 74, 0
16, 577200, Note_on_c, 11, 76, 32
16, 577304, Note_on_c, 11, 76, 0
16, 577320, Note_on_c, 11, 77, 32
16, 577424, Note_on_c, 11, 77, 0
16, 577440, Note_on_c, 11, 81, 32
16, 577544, Note_on_c, 11, 81, 0
16, 577560, Note_on_c, 11, 82, 32
16, 577664, Note_on_c, 11, 82, 0
16, 577680, Note_on_c, 11, 84, 32
16, 577784, Note_on_c, 11, 84, 0
16, 577800, Note_on_c, 11, 86, 32
16, 577904, Note_on_c, 11, 86, 0
16, 577920, Note_on_c, 11, 84, 32
16, 578024, Note_on_c, 11, 84, 0
16, 578040, Note_on_c, 11, 82, 32
16, 578144, Note_on_c, 11, 82, 0
16, 578160, Note_on_c, 11, 81, 32
16, 578324, Note_on_c, 11, 81, 0
16, 578340, Note_on_c, 11, 69, 35
16, 578384, Note_on_c, 11, 69, 0
16, 578400, Note_on_c, 11, 69, 37
16, 578504, Note_on_c, 11, 69, 0
16, 578520, Note_on_c, 11, 74, 39
16, 578619, Note_on_c, 11, 74, 0
16, 578640, Note_on_c, 11, 76, 42
16, 578739, Note_on_c, 11, 76, 0
16, 578760, Note_on_c, 11, 77, 44
16, 578859, Note_on_c, 11, 77, 0
16, 578880, Note_on_c, 11, 81, 47
16, 579039, Note_on_c, 11, 81, 0
16, 579060, Note_on_c, 11, 69, 50
16, 579099, Note_on_c, 11, 69, 0
16, 579120, Note_on_c, 11, 69, 52
16, 579219, Note_on_c, 11, 69, 0
16, 579240, Note_on_c, 11, 74, 54
16, 579339, Note_on_c, 11, 74, 0
16, 579360, Note_on_c, 11, 76, 57
16, 579459, Note_on_c, 11, 76, 0
16, 579480, Note_on_c, 11, 77, 59
16, 579579, Note_on_c, 11, 77, 0
16, 579600, Note_on_c, 11, 81, 62
16, 579759, Note_on_c, 11, 81, 0
16, 579780, Note_on_c, 11, 69, 65
16, 579819, Note_on_c, 11, 69, 0
16, 579840, Note_on_c, 11, 69, 67
16, 579939, Note_on_c, 11, 69, 0
16, 579960, Note_on_c, 11, 74, 69
16, 580059, Note_on_c, 11, 74, 0
16, 580080, Note_on_c, 11, 76, 72
16, 580179, Note_on_c, 11, 76, 0
16, 580200, Note_on_c, 11, 77, 74
16, 580299, Note_on_c, 11, 77, 0
16, 580320, Note_on_c, 11, 81, 77
16, 580479, Note_on_c, 11, 81, 0
16, 580500, Note_on_c, 11, 69, 80
16, 580539, Note_on_c, 11, 69, 0
16, 580560, Note_on_c, 11, 69, 82
16, 580659, Note_on_c, 11, 69, 0
16, 580680, Note_on_c, 11, 74, 84
16, 580779, Note_on_c, 11, 74, 0
16, 580800, Note_on_c, 11, 76, 87
16, 580899, Note_on_c, 11, 76, 0
16, 580920, Note_on_c, 11, 77, 89
16, 581019, Note_on_c, 11, 77, 0
16, 581040, Note_on_c, 11, 81, 92
16, 581139, Note_on_c, 11, 81, 0
16, 581160, Note_on_c, 11, 69, 92
16, 581259, Note_on_c, 11, 69, 0
16, 581280, Note_on_c, 11, 74, 80
16, 581379, Note_on_c, 11, 74, 0
16, 581400, Note_on_c, 11, 62, 80
16, 581499, Note_on_c, 11, 62, 0
16, 581520, Note_on_c, 11, 69, 80
16, 581619, Note_on_c, 11, 69, 0
16, 581640, Note_on_c, 11, 57, 80
16, 581739, Note_on_c, 11, 57, 0
16, 581760, Note_on_c, 11, 81, 80
16, 581859, Note_on_c, 11, 81, 0
16, 581880, Note_on_c, 11, 69, 80
16, 581979, Note_on_c, 11, 69, 0
16, 582000, Note_on_c, 11, 74, 80
16, 582000, Note_on_c, 11, 86, 80
16, 582059, Note_on_c, 11, 74, 0
16, 582059, Note_on_c, 11, 86, 0
16, 582060, Note_on_c, 11, 86, 44
16, 582060, Note_on_c, 11, 74, 44
16, 583439, Note_on_c, 11, 86, 0
16, 583439, Note_on_c, 11, 74, 0
16, 583440, Note_on_c, 11, 86, 44
16, 583440, Note_on_c, 11, 74, 44
16, 585359, Note_on_c, 11, 86, 0
16, 585359, Note_on_c, 11, 74, 0
16, 585840, Note_on_c, 11, 81, 92
16, 585939, Note_on_c, 11, 81, 0
16, 585960, Note_on_c, 11, 69, 92
16, 586059, Note_on_c, 11, 69, 0
16, 586080, Note_on_c, 11, 74, 80
16, 586179, Note_on_c, 11, 74, 0
16, 586200, Note_on_c, 11, 62, 80
16, 586299, Note_on_c, 11, 62, 0
16, 586320, Note_on_c, 11, 69, 80
16, 586419, Note_on_c, 11, 69, 0
16, 586440, Note_on_c, 11, 57, 80
16, 586539, Note_on_c, 11, 57, 0
16, 586560, Note_on_c, 11, 81, 80
16, 586659, Note_on_c, 11, 81, 0
16, 586680, Note_on_c, 11, 69, 80
16, 586779, Note_on_c, 11, 69, 0
16, 586800, Note_on_c, 11, 62, 80
16, 586919, Note_on_c, 11, 62, 0
16, 586919, End_track
17, 0, Start_track
17, 0, Title_t, "Violin II"
17, 0, MIDI_port, 0
17, 0, Program_c, 12, 48
17, 0, Control_c, 12, 7, 96
17, 0, Control_c, 12, 10, 24
17, 0, Control_c, 12, 11, 127
17, 0, Note_on_c, 12, 86, 92
17, 164, Note_on_c, 12, 86, 0
17, 180, Note_on_c, 12, 74, 92
17, 224, Note_on_c, 12, 74, 0
17, 240, Note_on_c, 12, 74, 92
17, 359, Note_on_c, 12, 74, 0
17, 720, Note_on_c, 12, 81, 104
17, 749, Note_on_c, 12, 81, 0
17, 750, Note_on_c, 12, 81, 92
17, 869, Note_on_c, 12, 81, 0
17, 900, Note_on_c, 12, 69, 92
17, 944, Note_on_c, 12, 69, 0
17, 960, Note_on_c, 12, 69, 92
17, 1079, Note_on_c, 12, 69, 0
17, 1800, Note_on_c, 12, 74, 92
17, 1964, Note_on_c, 12, 74, 0
17, 1980, Note_on_c, 12, 62, 92
17, 2024, Note_on_c, 12, 62, 0
17, 2040, Note_on_c, 12, 62, 92
17, 2159, Note_on_c, 12, 62, 0
17, 2880, Note_on_c, 12, 81, 32
17, 3044, Note_on_c, 12, 81, 0
17, 3060, Note_on_c, 12, 69, 32
17, 3104, Note_on_c, 12, 69, 0
17, 3120, Note_on_c, 12, 69, 32
17, 3224, Note_on_c, 12, 69, 0
17, 3240, Note_on_c, 12, 74, 32
17, 3329, Note_on_c, 12, 74, 0
17, 3360, Note_on_c, 12, 76, 32
17, 3449, Note_on_c, 12, 76, 0
17, 3480, Note_on_c, 12, 77, 32
17, 3569, Note_on_c, 12, 77, 0
17, 3600, Note_on_c, 12, 76, 32
17, 3689, Note_on_c, 12, 76, 0
17, 3720, Note_on_c, 12, 77, 32
17, 3809, Note_on_c, 12, 77, 0
17, 3840, Note_on_c, 12, 79, 32
17, 3929, Note_on_c, 12, 79, 0
17, 3960, Note_on_c, 12, 77, 32
17, 4049, Note_on_c, 12, 77, 0
17, 4080, Note_on_c, 12, 76, 32
17, 4169, Note_on_c, 12, 76, 0
17, 4200, Note_on_c, 12, 74, 32
17, 4289, Note_on_c, 12, 74, 0
17, 4320, Note_on_c, 12, 77, 32
17, 4409, Note_on_c, 12, 77, 0
17, 4440, Note_on_c, 12, 76, 32
17, 4529, Note_on_c, 12, 76, 0
17, 4560, Note_on_c, 12, 74, 32
17, 4649, Note_on_c, 12, 74, 0
17, 4680, Note_on_c, 12, 72, 32
17, 4769, Note_on_c, 12, 72, 0
17, 4800, Note_on_c, 12, 71, 32
17, 4889, Note_on_c, 12, 71, 0
17, 4920, Note_on_c, 12, 69, 32
17, 5009, Note_on_c, 12, 69, 0
17, 5040, Note_on_c, 12, 68, 32
17, 5129, Note_on_c, 12, 68, 0
17, 5160, Note_on_c, 12, 69, 32
17, 5249, Note_on_c, 12, 69, 0
17, 5280, Note_on_c, 12, 71, 32
17, 5369, Note_on_c, 12, 71, 0
17, 5400, Note_on_c, 12, 69, 32
17, 5489, Note_on_c, 12, 69, 0
17, 5520, Note_on_c, 12, 68, 32
17, 5609, Note_on_c, 12, 68, 0
17, 5640, Note_on_c, 12, 69, 32
17, 5729, Note_on_c, 12, 69, 0
17, 5760, Note_on_c, 12, 67, 32
17, 5849, Note_on_c, 12, 67, 0
17, 5880, Note_on_c, 12, 65, 32
17, 5969, Note_on_c, 12, 65, 0
17, 6000, Note_on_c, 12, 64, 32
17, 6089, Note_on_c, 12, 64, 0
17, 6120, Note_on_c, 12, 62, 32
17, 6209, Note_on_c, 12, 62, 0
17, 6240, Note_on_c, 12, 67, 32
17, 6329, Note_on_c, 12, 67, 0
17, 6360, Note_on_c, 12, 69, 32
17, 6449, Note_on_c, 12, 69, 0
17, 6480, Note_on_c, 12, 69, 32
17, 6569, Note_on_c, 12, 69, 0
17, 6600, Note_on_c, 12, 69, 32
17, 6689, Note_on_c, 12, 69, 0
17, 6720, Note_on_c, 12, 69, 32
17, 6809, Note_on_c, 12, 69, 0
17, 6840, Note_on_c, 12, 69, 32
17, 6929, Note_on_c, 12, 69, 0
17, 6960, Note_on_c, 12, 69, 32
17, 7049, Note_on_c, 12, 69, 0
17, 7080, Note_on_c, 12, 81, 32
17, 7169, Note_on_c, 12, 81, 0
17, 7200, Note_on_c, 12, 74, 32
17, 7289, Note_on_c, 12, 74, 0
17, 7320, Note_on_c, 12, 76, 32
17, 7409, Note_on_c, 12, 76, 0
17, 7440, Note_on_c, 12, 77, 32
17, 7529, Note_on_c, 12, 77, 0
17, 7560, Note_on_c, 12, 76, 32
17, 7649, Note_on_c, 12, 76, 0
17, 7680, Note_on_c, 12, 74, 32
17, 7769, Note_on_c, 12, 74, 0
17, 7800, Note_on_c, 12, 72, 32
17, 7889, Note_on_c, 12, 72, 0
17, 7920, Note_on_c, 12, 71, 32
17, 8009, Note_on_c, 12, 71, 0
17, 8040, Note_on_c, 12, 69, 32
17, 8129, Note_on_c, 12, 69, 0
17, 8160, Note_on_c, 12, 68, 32
17, 8249, Note_on_c, 12, 68, 0
17, 8280, Note_on_c, 12, 69, 32
17, 8369, Note_on_c, 12, 69, 0
17, 8400, Note_on_c, 12, 74, 32
17, 8489, Note_on_c, 12, 74, 0
17, 8520, Note_on_c, 12, 72, 32
17, 8609, Note_on_c, 12, 72, 0
17, 8640, Note_on_c, 12, 73, 32
17, 8729, Note_on_c, 12, 73, 0
17, 8760, Note_on_c, 12, 74, 32
17, 8849, Note_on_c, 12, 74, 0
17, 8880, Note_on_c, 12, 76, 32
17, 8969, Note_on_c, 12, 76, 0
17, 9000, Note_on_c, 12, 74, 32
17, 9089, Note_on_c, 12, 74, 0
17, 9120, Note_on_c, 12, 73, 32
17, 9209, Note_on_c, 12, 73, 0
17, 9240, Note_on_c, 12, 74, 32
17, 9329, Note_on_c, 12, 74, 0
17, 9360, Note_on_c, 12, 69, 32
17, 9449, Note_on_c, 12, 69, 0
17, 9480, Note_on_c, 12, 69, 32
17, 9569, Note_on_c, 12, 69, 0
17, 9600, Note_on_c, 12, 69, 32
17, 9689, Note_on_c, 12, 69, 0
17, 9720, Note_on_c, 12, 69, 32
17, 9809, Note_on_c, 12, 69, 0
17, 9840, Note_on_c, 12, 69, 32
17, 9929, Note_on_c, 12, 69, 0
17, 9960, Note_on_c, 12, 69, 32
17, 10049, Note_on_c, 12, 69, 0
17, 10080, Note_on_c, 12, 81, 32
17, 10169, Note_on_c, 12, 81, 0
17, 10200, Note_on_c, 12, 79, 32
17, 10289, Note_on_c, 12, 79, 0
17, 10320, Note_on_c, 12, 77, 32
17, 10409, Note_on_c, 12, 77, 0
17, 10440, Note_on_c, 12, 76, 32
17, 10529, Note_on_c, 12, 76, 0
17, 10560, Note_on_c, 12, 74, 32
17, 10649, Note_on_c, 12, 74, 0
17, 10680, Note_on_c, 12, 72, 32
17, 10769, Note_on_c, 12, 72, 0
17, 10800, Note_on_c, 12, 71, 32
17, 10889, Note_on_c, 12, 71, 0
17, 10920, Note_on_c, 12, 72, 32
17, 11009, Note_on_c, 12, 72, 0
17, 11040, Note_on_c, 12, 74, 32
17, 11129, Note_on_c, 12, 74, 0
17, 11160, Note_on_c, 12, 72, 32
17, 11249, Note_on_c, 12, 72, 0
17, 11280, Note_on_c, 12, 59, 32
17, 11369, Note_on_c, 12, 59, 0
17, 11400, Note_on_c, 12, 60, 32
17, 11489, Note_on_c, 12, 60, 0
17, 11520, Note_on_c, 12, 61, 32
17, 11609, Note_on_c, 12, 61, 0
17, 11640, Note_on_c, 12, 62, 32
17, 11729, Note_on_c, 12, 62, 0
17, 11760, Note_on_c, 12, 64, 32
17, 11849, Note_on_c, 12, 64, 0
17, 11880, Note_on_c, 12, 65, 32
17, 11969, Note_on_c, 12, 65, 0
17, 12000, Note_on_c, 12, 67, 32
17, 12089, Note_on_c, 12, 67, 0
17, 12120, Note_on_c, 12, 69, 32
17, 12209, Note_on_c, 12, 69, 0
17, 12240, Note_on_c, 12, 69, 32
17, 12329, Note_on_c, 12, 69, 0
17, 12360, Note_on_c, 12, 69, 32
17, 12449, Note_on_c, 12, 69, 0
17, 12480, Note_on_c, 12, 69, 32
17, 12569, Note_on_c, 12, 69, 0
17, 12600, Note_on_c, 12, 69, 32
17, 12689, Note_on_c, 12, 69, 0
17, 12720, Note_on_c, 12, 69, 32
17, 12809, Note_on_c, 12, 69, 0
17, 12840, Note_on_c, 12, 69, 32
17, 12929, Note_on_c, 12, 69, 0
17, 12960, Note_on_c, 12, 74, 32
17, 13049, Note_on_c, 12, 74, 0
17, 13080, Note_on_c, 12, 72, 32
17, 13169, Note_on_c, 12, 72, 0
17, 13200, Note_on_c, 12, 68, 32
17, 13289, Note_on_c, 12, 68, 0
17, 13320, Note_on_c, 12, 69, 32
17, 13409, Note_on_c, 12, 69, 0
17, 13440, Note_on_c, 12, 68, 32
17, 13529, Note_on_c, 12, 68, 0
17, 13560, Note_on_c, 12, 69, 32
17, 13649, Note_on_c, 12, 69, 0
17, 13680, Note_on_c, 12, 59, 32
17, 13769, Note_on_c, 12, 59, 0
17, 13800, Note_on_c, 12, 60, 32
17, 13889, Note_on_c, 12, 60, 0
17, 13920, Note_on_c, 12, 56, 32
17, 14009, Note_on_c, 12, 56, 0
17, 14040, Note_on_c, 12, 64, 32
17, 14129, Note_on_c, 12, 64, 0
17, 14160, Note_on_c, 12, 62, 32
17, 14249, Note_on_c, 12, 62, 0
17, 14280, Note_on_c, 12, 60, 32
17, 14369, Note_on_c, 12, 60, 0
17, 14400, Note_on_c, 12, 70, 32
17, 14489, Note_on_c, 12, 70, 0
17, 14520, Note_on_c, 12, 69, 32
17, 14609, Note_on_c, 12, 69, 0
17, 14640, Note_on_c, 12, 67, 32
17, 14729, Note_on_c, 12, 67, 0
17, 14760, Note_on_c, 12, 65, 32
17, 14849, Note_on_c, 12, 65, 0
17, 14880, Note_on_c, 12, 64, 32
17, 14969, Note_on_c, 12, 64, 0
17, 15000, Note_on_c, 12, 62, 32
17, 15089, Note_on_c, 12, 62, 0
17, 15120, Note_on_c, 12, 61, 32
17, 15209, Note_on_c, 12, 61, 0
17, 15240, Note_on_c, 12, 62, 32
17, 15329, Note_on_c, 12, 62, 0
17, 15360, Note_on_c, 12, 64, 32
17, 15449, Note_on_c, 12, 64, 0
17, 15480, Note_on_c, 12, 62, 32
17, 15569, Note_on_c, 12, 62, 0
17, 15600, Note_on_c, 12, 61, 32
17, 15689, Note_on_c, 12, 61, 0
17, 15720, Note_on_c, 12, 62, 32
17, 15809, Note_on_c, 12, 62, 0
17, 15840, Note_on_c, 12, 64, 32
17, 15929, Note_on_c, 12, 64, 0
17, 15960, Note_on_c, 12, 65, 33
17, 16049, Note_on_c, 12, 65, 0
17, 16080, Note_on_c, 12, 67, 35
17, 16169, Note_on_c, 12, 67, 0
17, 16200, Note_on_c, 12, 65, 37
17, 16289, Note_on_c, 12, 65, 0
17, 16320, Note_on_c, 12, 64, 38
17, 16409, Note_on_c, 12, 64, 0
17, 16440, Note_on_c, 12, 65, 40
17, 16529, Note_on_c, 12, 65, 0
17, 16560, Note_on_c, 12, 64, 42
17, 16649, Note_on_c, 12, 64, 0
17, 16680, Note_on_c, 12, 65, 43
17, 16769, Note_on_c, 12, 65, 0
17, 16800, Note_on_c, 12, 67, 45
17, 16889, Note_on_c, 12, 67, 0
17, 16920, Note_on_c, 12, 65, 47
17, 17009, Note_on_c, 12, 65, 0
17, 17040, Note_on_c, 12, 64, 48
17, 17129, Note_on_c, 12, 64, 0
17, 17160, Note_on_c, 12, 65, 50
17, 17249, Note_on_c, 12, 65, 0
17, 17280, Note_on_c, 12, 64, 52
17, 17369, Note_on_c, 12, 64, 0
17, 17400, Note_on_c, 12, 65, 53
17, 17489, Note_on_c, 12, 65, 0
17, 17520, Note_on_c, 12, 67, 55
17, 17609, Note_on_c, 12, 67, 0
17, 17640, Note_on_c, 12, 65, 57
17, 17729, Note_on_c, 12, 65, 0
17, 17760, Note_on_c, 12, 64, 58
17, 17849, Note_on_c, 12, 64, 0
17, 17880, Note_on_c, 12, 65, 60
17, 17969, Note_on_c, 12, 65, 0
17, 18000, Note_on_c, 12, 73, 62
17, 18089, Note_on_c, 12, 73, 0
17, 18120, Note_on_c, 12, 74, 63
17, 18209, Note_on_c, 12, 74, 0
17, 18240, Note_on_c, 12, 76, 65
17, 18329, Note_on_c, 12, 76, 0
17, 18360, Note_on_c, 12, 74, 67
17, 18449, Note_on_c, 12, 74, 0
17, 18480, Note_on_c, 12, 73, 68
17, 18569, Note_on_c, 12, 73, 0
17, 18600, Note_on_c, 12, 74, 70
17, 18689, Note_on_c, 12, 74, 0
17, 18720, Note_on_c, 12, 73, 72
17, 18809, Note_on_c, 12, 73, 0
17, 18840, Note_on_c, 12, 74, 73
17, 18929, Note_on_c, 12, 74, 0
17, 18960, Note_on_c, 12, 76, 75
17, 19049, Note_on_c, 12, 76, 0
17, 19080, Note_on_c, 12, 74, 77
17, 19169, Note_on_c, 12, 74, 0
17, 19200, Note_on_c, 12, 73, 78
17, 19289, Note_on_c, 12, 73, 0
17, 19320, Note_on_c, 12, 74, 80
17, 19409, Note_on_c, 12, 74, 0
17, 19440, Note_on_c, 12, 64, 82
17, 19440, Note_on_c, 12, 73, 82
17, 19529, Note_on_c, 12, 64, 0
17, 19529, Note_on_c, 12, 73, 0
17, 19560, Note_on_c, 12, 74, 83
17, 19649, Note_on_c, 12, 74, 0
17, 19680, Note_on_c, 12, 76, 85
17, 19769, Note_on_c, 12, 76, 0
17, 19800, Note_on_c, 12, 76, 87
17, 19800, Note_on_c, 12, 64, 87
17, 19904, Note_on_c, 12, 76, 0
17, 19904, Note_on_c, 12, 64, 0
17, 19920, Note_on_c, 12, 77, 89
17, 20024, Note_on_c, 12, 77, 0
17, 20040, Note_on_c, 12, 79, 90
17, 20144, Note_on_c, 12, 79, 0
17, 20160, Note_on_c, 12, 81, 92
17, 20160, Note_on_c, 12, 62, 92
17, 20160, Note_on_c, 12, 69, 92
17, 20279, Note_on_c, 12, 62, 0
17, 20279, Note_on_c, 12, 69, 0
17, 20324, Note_on_c, 12, 81, 0
17, 20340, Note_on_c, 12, 69, 92
17, 20384, Note_on_c, 12, 69, 0
17, 20400, Note_on_c, 12, 69, 92
17, 20504, Note_on_c, 12, 69, 0
17, 20520, Note_on_c, 12, 74, 92
17, 20624, Note_on_c, 12, 74, 0
17, 20640, Note_on_c, 12, 76, 92
17, 20744, Note_on_c, 12, 76, 0
17, 20760, Note_on_c, 12, 77, 92
17, 20864, Note_on_c, 12, 77, 0
17, 20880, Note_on_c, 12, 76, 92
17, 20984, Note_on_c, 12, 76, 0
17, 21000, Note_on_c, 12, 77, 92
17, 21104, Note_on_c, 12, 77, 0
17, 21120, Note_on_c, 12, 79, 92
17, 21224, Note_on_c, 12, 79, 0
17, 21240, Note_on_c, 12, 77, 92
17, 21344, Note_on_c, 12, 77, 0
17, 21360, Note_on_c, 12, 76, 92
17, 21464, Note_on_c, 12, 76, 0
17, 21480, Note_on_c, 12, 74, 92
17, 21584, Note_on_c, 12, 74, 0
17, 21600, Note_on_c, 12, 82, 80
17, 21704, Note_on_c, 12, 82, 0
17, 21720, Note_on_c, 12, 81, 80
17, 21824, Note_on_c, 12, 81, 0
17, 21840, Note_on_c, 12, 79, 80
17, 21944, Note_on_c, 12, 79, 0
17, 21960, Note_on_c, 12, 77, 80
17, 22064, Note_on_c, 12, 77, 0
17, 22080, Note_on_c, 12, 76, 80
17, 22184, Note_on_c, 12, 76, 0
17, 22200, Note_on_c, 12, 74, 80
17, 22304, Note_on_c, 12, 74, 0
17, 22320, Note_on_c, 12, 73, 80
17, 22424, Note_on_c, 12, 73, 0
17, 22440, Note_on_c, 12, 74, 80
17, 22544, Note_on_c, 12, 74, 0
17, 22560, Note_on_c, 12, 76, 80
17, 22664, Note_on_c, 12, 76, 0
17, 22680, Note_on_c, 12, 74, 80
17, 22784, Note_on_c, 12, 74, 0
17, 22800, Note_on_c, 12, 73, 80
17, 22904, Note_on_c, 12, 73, 0
17, 22920, Note_on_c, 12, 74, 80
17, 23024, Note_on_c, 12, 74, 0
17, 23040, Note_on_c, 12, 82, 80
17, 23144, Note_on_c, 12, 82, 0
17, 23160, Note_on_c, 12, 81, 80
17, 23264, Note_on_c, 12, 81, 0
17, 23280, Note_on_c, 12, 79, 80
17, 23384, Note_on_c, 12, 79, 0
17, 23400, Note_on_c, 12, 77, 80
17, 23504, Note_on_c, 12, 77, 0
17, 23520, Note_on_c, 12, 76, 80
17, 23624, Note_on_c, 12, 76, 0
17, 23640, Note_on_c, 12, 74, 80
17, 23744, Note_on_c, 12, 74, 0
17, 23760, Note_on_c, 12, 73, 80
17, 23864, Note_on_c, 12, 73, 0
17, 23880, Note_on_c, 12, 74, 80
17, 23984, Note_on_c, 12, 74, 0
17, 24000, Note_on_c, 12, 76, 80
17, 24104, Note_on_c, 12, 76, 0
17, 24120, Note_on_c, 12, 74, 80
17, 24224, Note_on_c, 12, 74, 0
17, 24240, Note_on_c, 12, 73, 80
17, 24344, Note_on_c, 12, 73, 0
17, 24360, Note_on_c, 12, 74, 80
17, 24464, Note_on_c, 12, 74, 0
17, 24480, Note_on_c, 12, 81, 80
17, 24584, Note_on_c, 12, 81, 0
17, 24600, Note_on_c, 12, 79, 80
17, 24704, Note_on_c, 12, 79, 0
17, 24720, Note_on_c, 12, 77, 80
17, 24824, Note_on_c, 12, 77, 0
17, 24840, Note_on_c, 12, 76, 80
17, 24944, Note_on_c, 12, 76, 0
17, 24960, Note_on_c, 12, 74, 80
17, 25064, Note_on_c, 12, 74, 0
17, 25080, Note_on_c, 12, 72, 80
17, 25184, Note_on_c, 12, 72, 0
17, 25200, Note_on_c, 12, 71, 80
17, 25304, Note_on_c, 12, 71, 0
17, 25320, Note_on_c, 12, 72, 80
17, 25424, Note_on_c, 12, 72, 0
17, 25440, Note_on_c, 12, 74, 80
17, 25544, Note_on_c, 12, 74, 0
17, 25560, Note_on_c, 12, 72, 80
17, 25664, Note_on_c, 12, 72, 0
17, 25680, Note_on_c, 12, 81, 80
17, 25784, Note_on_c, 12, 81, 0
17, 25800, Note_on_c, 12, 81, 80
17, 25904, Note_on_c, 12, 81, 0
17, 25920, Note_on_c, 12, 81, 80
17, 26024, Note_on_c, 12, 81, 0
17, 26040, Note_on_c, 12, 79, 80
17, 26144, Note_on_c, 12, 79, 0
17, 26160, Note_on_c, 12, 77, 80
17, 26264, Note_on_c, 12, 77, 0
17, 26280, Note_on_c, 12, 76, 80
17, 26384, Note_on_c, 12, 76, 0
17, 26400, Note_on_c, 12, 74, 80
17, 26504, Note_on_c, 12, 74, 0
17, 26520, Note_on_c, 12, 72, 80
17, 26624, Note_on_c, 12, 72, 0
17, 26640, Note_on_c, 12, 79, 80
17, 26744, Note_on_c, 12, 79, 0
17, 26760, Note_on_c, 12, 77, 80
17, 26864, Note_on_c, 12, 77, 0
17, 26880, Note_on_c, 12, 76, 80
17, 26984, Note_on_c, 12, 76, 0
17, 27000, Note_on_c, 12, 88, 80
17, 27104, Note_on_c, 12, 88, 0
17, 27120, Note_on_c, 12, 86, 80
17, 27224, Note_on_c, 12, 86, 0
17, 27240, Note_on_c, 12, 84, 80
17, 27344, Note_on_c, 12, 84, 0
17, 27360, Note_on_c, 12, 79, 80
17, 27419, Note_on_c, 12, 79, 0
17, 27420, Note_on_c, 12, 79, 44
17, 27524, Note_on_c, 12, 79, 0
17, 27540, Note_on_c, 12, 67, 44
17, 27584, Note_on_c, 12, 67, 0
17, 27600, Note_on_c, 12, 67, 44
17, 27704, Note_on_c, 12, 67, 0
17, 27718, Control_c, 12, 11, 87
17, 27720, Note_on_c, 12, 79, 68
17, 27884, Note_on_c, 12, 79, 0
17, 27900, Note_on_c, 12, 67, 68
17, 27944, Note_on_c, 12, 67, 0
17, 27960, Note_on_c, 12, 67, 68
17, 28064, Note_on_c, 12, 67, 0
17, 28080, Note_on_c, 12, 79, 68
17, 28080, Control_c, 12, 11, 87
17, 28110, Control_c, 12, 11, 88
17, 28140, Control_c, 12, 11, 89
17, 28170, Control_c, 12, 11, 90
17, 28200, Control_c, 12, 11, 91
17, 28230, Control_c, 12, 11, 93
17, 28244, Note_on_c, 12, 79, 0
17, 28260, Note_on_c, 12, 67, 68
17, 28260, Control_c, 12, 11, 94
17, 28290, Control_c, 12, 11, 95
17, 28304, Note_on_c, 12, 67, 0
17, 28320, Control_c, 12, 11, 96
17, 28320, Note_on_c, 12, 67, 68
17, 28350, Control_c, 12, 11, 97
17, 28380, Control_c, 12, 11, 98
17, 28410, Control_c, 12, 11, 99
17, 28424, Note_on_c, 12, 67, 0
17, 28440, Control_c, 12, 11, 100
17, 28440, Note_on_c, 12, 77, 68
17, 28470, Control_c, 12, 11, 101
17, 28500, Control_c, 12, 11, 103
17, 28530, Control_c, 12, 11, 104
17, 28560, Control_c, 12, 11, 105
17, 28590, Control_c, 12, 11, 106
17, 28604, Note_on_c, 12, 77, 0
17, 28620, Control_c, 12, 11, 107
17, 28620, Note_on_c, 12, 65, 68
17, 28650, Control_c, 12, 11, 108
17, 28664, Note_on_c, 12, 65, 0
17, 28680, Control_c, 12, 11, 109
17, 28680, Note_on_c, 12, 65, 68
17, 28710, Control_c, 12, 11, 110
17, 28740, Control_c, 12, 11, 111
17, 28770, Control_c, 12, 11, 113
17, 28784, Note_on_c, 12, 65, 0
17, 28800, Note_on_c, 12, 77, 68
17, 28800, Control_c, 12, 11, 114
17, 28830, Control_c, 12, 11, 115
17, 28860, Control_c, 12, 11, 116
17, 28890, Control_c, 12, 11, 117
17, 28920, Control_c, 12, 11, 118
17, 28950, Control_c, 12, 11, 119
17, 28964, Note_on_c, 12, 77, 0
17, 28980, Note_on_c, 12, 65, 68
17, 28980, Control_c, 12, 11, 120
17, 29010, Control_c, 12, 11, 121
17, 29024, Note_on_c, 12, 65, 0
17, 29040, Control_c, 12, 11, 123
17, 29040, Note_on_c, 12, 65, 68
17, 29070, Control_c, 12, 11, 124
17, 29100, Control_c, 12, 11, 125
17, 29130, Control_c, 12, 11, 127
17, 29144, Note_on_c, 12, 65, 0
17, 29160, Note_on_c, 12, 76, 68
17, 29324, Note_on_c, 12, 76, 0
17, 29340, Note_on_c, 12, 64, 68
17, 29340, Control_c, 12, 11, 127
17, 29365, Control_c, 12, 11, 126
17, 29384, Note_on_c, 12, 64, 0
17, 29390, Control_c, 12, 11, 125
17, 29400, Note_on_c, 12, 64, 68
17, 29415, Control_c, 12, 11, 124
17, 29440, Control_c, 12, 11, 123
17, 29465, Control_c, 12, 11, 121
17, 29490, Control_c, 12, 11, 120
17, 29504, Note_on_c, 12, 64, 0
17, 29515, Control_c, 12, 11, 119
17, 29520, Note_on_c, 12, 75, 68
17, 29540, Control_c, 12, 11, 118
17, 29565, Control_c, 12, 11, 117
17, 29590, Control_c, 12, 11, 116
17, 29615, Control_c, 12, 11, 115
17, 29640, Control_c, 12, 11, 114
17, 29665, Control_c, 12, 11, 113
17, 29684, Note_on_c, 12, 75, 0
17, 29690, Control_c, 12, 11, 111
17, 29700, Note_on_c, 12, 63, 68
17, 29715, Control_c, 12, 11, 110
17, 29740, Control_c, 12, 11, 109
17, 29744, Note_on_c, 12, 63, 0
17, 29760, Note_on_c, 12, 63, 68
17, 29765, Control_c, 12, 11, 108
17, 29790, Control_c, 12, 11, 107
17, 29815, Control_c, 12, 11, 106
17, 29840, Control_c, 12, 11, 105
17, 29864, Note_on_c, 12, 63, 0
17, 29865, Control_c, 12, 11, 104
17, 29880, Note_on_c, 12, 74, 68
17, 29890, Control_c, 12, 11, 103
17, 29915, Control_c, 12, 11, 101
17, 29940, Control_c, 12, 11, 100
17, 29965, Control_c, 12, 11, 99
17, 29990, Control_c, 12, 11, 98
17, 30015, Control_c, 12, 11, 97
17, 30040, Control_c, 12, 11, 96
17, 30044, Note_on_c, 12, 74, 0
17, 30060, Note_on_c, 12, 62, 68
17, 30065, Control_c, 12, 11, 95
17, 30090, Control_c, 12, 11, 94
17, 30104, Note_on_c, 12, 62, 0
17, 30115, Control_c, 12, 11, 93
17, 30120, Note_on_c, 12, 62, 68
17, 30140, Control_c, 12, 11, 91
17, 30165, Control_c, 12, 11, 90
17, 30190, Control_c, 12, 11, 89
17, 30215, Control_c, 12, 11, 87
17, 30239, Note_on_c, 12, 62, 0
17, 30840, Control_c, 12, 11, 47
17, 30960, Control_c, 12, 11, 47
17, 30960, Note_on_c, 12, 69, 92
17, 31005, Control_c, 12, 11, 49
17, 31050, Control_c, 12, 11, 50
17, 31095, Control_c, 12, 11, 52
17, 31124, Note_on_c, 12, 69, 0
17, 31140, Control_c, 12, 11, 54
17, 31140, Note_on_c, 12, 57, 92
17, 31184, Note_on_c, 12, 57, 0
17, 31185, Control_c, 12, 11, 55
17, 31200, Note_on_c, 12, 57, 92
17, 31230, Control_c, 12, 11, 57
17, 31275, Control_c, 12, 11, 59
17, 31304, Note_on_c, 12, 57, 0
17, 31320, Control_c, 12, 11, 60
17, 31320, Note_on_c, 12, 69, 92
17, 31365, Control_c, 12, 11, 62
17, 31410, Control_c, 12, 11, 64
17, 31455, Control_c, 12, 11, 65
17, 31484, Note_on_c, 12, 69, 0
17, 31500, Note_on_c, 12, 57, 92
17, 31500, Control_c, 12, 11, 67
17, 31544, Note_on_c, 12, 57, 0
17, 31545, Control_c, 12, 11, 69
17, 31560, Note_on_c, 12, 57, 92
17, 31590, Control_c, 12, 11, 70
17, 31635, Control_c, 12, 11, 72
17, 31664, Note_on_c, 12, 57, 0
17, 31680, Control_c, 12, 11, 74
17, 31680, Note_on_c, 12, 68, 92
17, 31725, Control_c, 12, 11, 75
17, 31770, Control_c, 12, 11, 77
17, 31815, Control_c, 12, 11, 79
17, 31844, Note_on_c, 12, 68, 0
17, 31860, Control_c, 12, 11, 80
17, 31860, Note_on_c, 12, 56, 92
17, 31904, Note_on_c, 12, 56, 0
17, 31905, Control_c, 12, 11, 82
17, 31920, Note_on_c, 12, 56, 92
17, 31950, Control_c, 12, 11, 84
17, 31995, Control_c, 12, 11, 85
17, 32024, Note_on_c, 12, 56, 0
17, 32040, Note_on_c, 12, 67, 92
17, 32040, Control_c, 12, 11, 87
17, 32085, Control_c, 12, 11, 89
17, 32130, Control_c, 12, 11, 90
17, 32175, Control_c, 12, 11, 92
17, 32204, Note_on_c, 12, 67, 0
17, 32220, Note_on_c, 12, 55, 92
17, 32220, Control_c, 12, 11, 94
17, 32264, Note_on_c, 12, 55, 0
17, 32265, Control_c, 12, 11, 95
17, 32280, Note_on_c, 12, 55, 92
17, 32310, Control_c, 12, 11, 97
17, 32355, Control_c, 12, 11, 99
17, 32384, Note_on_c, 12, 55, 0
17, 32400, Control_c, 12, 11, 100
17, 32400, Note_on_c, 12, 67, 92
17, 32445, Control_c, 12, 11, 102
17, 32490, Control_c, 12, 11, 104
17, 32535, Control_c, 12, 11, 105
17, 32564, Note_on_c, 12, 67, 0
17, 32580, Control_c, 12, 11, 107
17, 32580, Note_on_c, 12, 55, 92
17, 32624, Note_on_c, 12, 55, 0
17, 32625, Control_c, 12, 11, 109
17, 32640, Note_on_c, 12, 55, 92
17, 32670, Control_c, 12, 11, 110
17, 32715, Control_c, 12, 11, 112
17, 32744, Note_on_c, 12, 55, 0
17, 32760, Note_on_c, 12, 67, 92
17, 32760, Control_c, 12, 11, 114
17, 32805, Control_c, 12, 11, 115
17, 32850, Control_c, 12, 11, 117
17, 32895, Control_c, 12, 11, 119
17, 32924, Note_on_c, 12, 67, 0
17, 32940, Control_c, 12, 11, 120
17, 32940, Note_on_c, 12, 55, 92
17, 32984, Note_on_c, 12, 55, 0
17, 32985, Control_c, 12, 11, 122
17, 33000, Note_on_c, 12, 55, 92
17, 33030, Control_c, 12, 11, 124
17, 33075, Control_c, 12, 11, 127
17, 33104, Note_on_c, 12, 55, 0
17, 33120, Note_on_c, 12, 72, 92
17, 33284, Note_on_c, 12, 72, 0
17, 33300, Note_on_c, 12, 60, 92
17, 33344, Note_on_c, 12, 60, 0
17, 33360, Note_on_c, 12, 60, 92
17, 33464, Note_on_c, 12, 60, 0
17, 33480, Note_on_c, 12, 72, 92
17, 33644, Note_on_c, 12, 72, 0
17, 33660, Note_on_c, 12, 60, 92
17, 33704, Note_on_c, 12, 60, 0
17, 33720, Note_on_c, 12, 60, 92
17, 33824, Note_on_c, 12, 60, 0
17, 33840, Note_on_c, 12, 72, 92
17, 34004, Note_on_c, 12, 72, 0
17, 34020, Note_on_c, 12, 60, 92
17, 34064, Note_on_c, 12, 60, 0
17, 34080, Note_on_c, 12, 60, 92
17, 34184, Note_on_c, 12, 60, 0
17, 34200, Note_on_c, 12, 72, 92
17, 34364, Note_on_c, 12, 72, 0
17, 34380, Note_on_c, 12, 60, 92
17, 34424, Note_on_c, 12, 60, 0
17, 34440, Note_on_c, 12, 60, 92
17, 34544, Note_on_c, 12, 60, 0
17, 34560, Note_on_c, 12, 72, 92
17, 34724, Note_on_c, 12, 72, 0
17, 34740, Note_on_c, 12, 60, 92
17, 34784, Note_on_c, 12, 60, 0
17, 34800, Note_on_c, 12, 60, 92
17, 34904, Note_on_c, 12, 60, 0
17, 34920, Note_on_c, 12, 72, 92
17, 35084, Note_on_c, 12, 72, 0
17, 35100, Note_on_c, 12, 60, 92
17, 35144, Note_on_c, 12, 60, 0
17, 35160, Note_on_c, 12, 60, 92
17, 35264, Note_on_c, 12, 60, 0
17, 35280, Note_on_c, 12, 72, 92
17, 35444, Note_on_c, 12, 72, 0
17, 35460, Note_on_c, 12, 60, 92
17, 35504, Note_on_c, 12, 60, 0
17, 35520, Note_on_c, 12, 60, 92
17, 35624, Note_on_c, 12, 60, 0
17, 35640, Note_on_c, 12, 72, 92
17, 35804, Note_on_c, 12, 72, 0
17, 35820, Note_on_c, 12, 60, 92
17, 35864, Note_on_c, 12, 60, 0
17, 35880, Note_on_c, 12, 60, 92
17, 35984, Note_on_c, 12, 60, 0
17, 36000, Note_on_c, 12, 72, 92
17, 36164, Note_on_c, 12, 72, 0
17, 36180, Note_on_c, 12, 60, 92
17, 36224, Note_on_c, 12, 60, 0
17, 36240, Note_on_c, 12, 60, 92
17, 36344, Note_on_c, 12, 60, 0
17, 36360, Note_on_c, 12, 72, 92
17, 36524, Note_on_c, 12, 72, 0
17, 36540, Note_on_c, 12, 60, 92
17, 36584, Note_on_c, 12, 60, 0
17, 36600, Note_on_c, 12, 60, 92
17, 36704, Note_on_c, 12, 60, 0
17, 36720, Note_on_c, 12, 72, 92
17, 36884, Note_on_c, 12, 72, 0
17, 36900, Note_on_c, 12, 60, 92
17, 36944, Note_on_c, 12, 60, 0
17, 36960, Note_on_c, 12, 60, 92
17, 37064, Note_on_c, 12, 60, 0
17, 37080, Note_on_c, 12, 72, 92
17, 37244, Note_on_c, 12, 72, 0
17, 37260, Note_on_c, 12, 60, 92
17, 37304, Note_on_c, 12, 60, 0
17, 37320, Note_on_c, 12, 60, 92
17, 37424, Note_on_c, 12, 60, 0
17, 37440, Note_on_c, 12, 72, 92
17, 37604, Note_on_c, 12, 72, 0
17, 37620, Note_on_c, 12, 60, 92
17, 37664, Note_on_c, 12, 60, 0
17, 37680, Note_on_c, 12, 60, 92
17, 37784, Note_on_c, 12, 60, 0
17, 37800, Note_on_c, 12, 72, 92
17, 37964, Note_on_c, 12, 72, 0
17, 37980, Note_on_c, 12, 60, 92
17, 38024, Note_on_c, 12, 60, 0
17, 38040, Note_on_c, 12, 60, 92
17, 38144, Note_on_c, 12, 60, 0
17, 38160, Note_on_c, 12, 72, 92
17, 38324, Note_on_c, 12, 72, 0
17, 38340, Note_on_c, 12, 60, 92
17, 38384, Note_on_c, 12, 60, 0
17, 38400, Note_on_c, 12, 60, 92
17, 38504, Note_on_c, 12, 60, 0
17, 38520, Note_on_c, 12, 72, 92
17, 38684, Note_on_c, 12, 72, 0
17, 38700, Note_on_c, 12, 60, 92
17, 38744, Note_on_c, 12, 60, 0
17, 38760, Note_on_c, 12, 60, 92
17, 38864, Note_on_c, 12, 60, 0
17, 38880, Note_on_c, 12, 72, 92
17, 38999, Note_on_c, 12, 72, 0
17, 39600, Note_on_c, 12, 69, 92
17, 39764, Note_on_c, 12, 69, 0
17, 39780, Note_on_c, 12, 57, 92
17, 39824, Note_on_c, 12, 57, 0
17, 39840, Note_on_c, 12, 57, 92
17, 39944, Note_on_c, 12, 57, 0
17, 39960, Note_on_c, 12, 69, 92
17, 40049, Note_on_c, 12, 69, 0
17, 40080, Note_on_c, 12, 65, 92
17, 40169, Note_on_c, 12, 65, 0
17, 40200, Note_on_c, 12, 64, 92
17, 40289, Note_on_c, 12, 64, 0
17, 40320, Note_on_c, 12, 62, 92
17, 40439, Note_on_c, 12, 62, 0
17, 41040, Note_on_c, 12, 67, 92
17, 41204, Note_on_c, 12, 67, 0
17, 41220, Note_on_c, 12, 55, 92
17, 41264, Note_on_c, 12, 55, 0
17, 41280, Note_on_c, 12, 55, 92
17, 41384, Note_on_c, 12, 55, 0
17, 41400, Note_on_c, 12, 67, 92
17, 41489, Note_on_c, 12, 67, 0
17, 41520, Note_on_c, 12, 64, 92
17, 41609, Note_on_c, 12, 64, 0
17, 41640, Note_on_c, 12, 62, 92
17, 41729, Note_on_c, 12, 62, 0
17, 41758, Control_c, 12, 11, 87
17, 41760, Note_on_c, 12, 55, 68
17, 41880, Note_on_c, 12, 65, 68
17, 41999, Note_on_c, 12, 65, 0
17, 42000, Note_on_c, 12, 64, 68
17, 42239, Note_on_c, 12, 64, 0
17, 42240, Note_on_c, 12, 65, 68
17, 42359, Note_on_c, 12, 65, 0
17, 42360, Note_on_c, 12, 67, 68
17, 42479, Note_on_c, 12, 67, 0
17, 42480, Control_c, 12, 11, 87
17, 42480, Note_on_c, 12, 65, 68
17, 42510, Control_c, 12, 11, 89
17, 42540, Control_c, 12, 11, 90
17, 42570, Control_c, 12, 11, 92
17, 42599, Note_on_c, 12, 55, 0
17, 42599, Note_on_c, 12, 65, 0
17, 42600, Control_c, 12, 11, 94
17, 42600, Note_on_c, 12, 64, 68
17, 42630, Control_c, 12, 11, 95
17, 42660, Control_c, 12, 11, 97
17, 42690, Control_c, 12, 11, 99
17, 42719, Note_on_c, 12, 64, 0
17, 42720, Note_on_c, 12, 65, 68
17, 42720, Control_c, 12, 11, 100
17, 42750, Control_c, 12, 11, 102
17, 42780, Control_c, 12, 11, 104
17, 42810, Control_c, 12, 11, 105
17, 42839, Note_on_c, 12, 65, 0
17, 42840, Note_on_c, 12, 67, 68
17, 42840, Control_c, 12, 11, 107
17, 42870, Control_c, 12, 11, 109
17, 42900, Control_c, 12, 11, 110
17, 42930, Control_c, 12, 11, 112
17, 42959, Note_on_c, 12, 67, 0
17, 42960, Note_on_c, 12, 60, 68
17, 42960, Control_c, 12, 11, 114
17, 42990, Control_c, 12, 11, 115
17, 43020, Control_c, 12, 11, 117
17, 43050, Control_c, 12, 11, 119
17, 43079, Note_on_c, 12, 60, 0
17, 43080, Control_c, 12, 11, 120
17, 43080, Note_on_c, 12, 72, 68
17, 43110, Control_c, 12, 11, 122
17, 43140, Control_c, 12, 11, 124
17, 43170, Control_c, 12, 11, 125
17, 43200, Control_c, 12, 11, 127
17, 43230, Control_c, 12, 11, 125
17, 43260, Control_c, 12, 11, 124
17, 43290, Control_c, 12, 11, 122
17, 43320, Control_c, 12, 11, 120
17, 43350, Control_c, 12, 11, 119
17, 43380, Control_c, 12, 11, 117
17, 43410, Control_c, 12, 11, 115
17, 43439, Note_on_c, 12, 72, 0
17, 43440, Control_c, 12, 11, 114
17, 43440, Note_on_c, 12, 60, 68
17, 43470, Control_c, 12, 11, 112
17, 43500, Control_c, 12, 11, 110
17, 43530, Control_c, 12, 11, 109
17, 43560, Control_c, 12, 11, 107
17, 43590, Control_c, 12, 11, 105
17, 43620, Control_c, 12, 11, 104
17, 43650, Control_c, 12, 11, 102
17, 43679, Note_on_c, 12, 60, 0
17, 43680, Note_on_c, 12, 62, 68
17, 43680, Control_c, 12, 11, 100
17, 43710, Control_c, 12, 11, 99
17, 43740, Control_c, 12, 11, 97
17, 43770, Control_c, 12, 11, 95
17, 43799, Note_on_c, 12, 62, 0
17, 43800, Note_on_c, 12, 64, 68
17, 43800, Control_c, 12, 11, 94
17, 43830, Control_c, 12, 11, 92
17, 43860, Control_c, 12, 11, 90
17, 43890, Control_c, 12, 11, 87
17, 43919, Note_on_c, 12, 64, 0
17, 45720, Control_c, 12, 11, 127
17, 46080, Note_on_c, 12, 76, 80
17, 46169, Note_on_c, 12, 76, 0
17, 46200, Note_on_c, 12, 64, 80
17, 46289, Note_on_c, 12, 64, 0
17, 46320, Note_on_c, 12, 81, 80
17, 46409, Note_on_c, 12, 81, 0
17, 46440, Note_on_c, 12, 81, 80
17, 46529, Note_on_c, 12, 81, 0
17, 46560, Note_on_c, 12, 79, 80
17, 46649, Note_on_c, 12, 79, 0
17, 46680, Note_on_c, 12, 76, 80
17, 46680, Note_on_c, 12, 72, 80
17, 46769, Note_on_c, 12, 76, 0
17, 46769, Note_on_c, 12, 72, 0
17, 46800, Note_on_c, 12, 72, 80
17, 46800, Note_on_c, 12, 76, 80
17, 46919, Note_on_c, 12, 72, 0
17, 46919, Note_on_c, 12, 76, 0
17, 47520, Note_on_c, 12, 76, 80
17, 47609, Note_on_c, 12, 76, 0
17, 47640, Note_on_c, 12, 72, 80
17, 47729, Note_on_c, 12, 72, 0
17, 47760, Note_on_c, 12, 77, 80
17, 47849, Note_on_c, 12, 77, 0
17, 47880, Note_on_c, 12, 74, 80
17, 47969, Note_on_c, 12, 74, 0
17, 48000, Note_on_c, 12, 71, 80
17, 48089, Note_on_c, 12, 71, 0
17, 48120, Note_on_c, 12, 76, 80
17, 48209, Note_on_c, 12, 76, 0
17, 48240, Note_on_c, 12, 76, 80
17, 48240, Note_on_c, 12, 67, 80
17, 48240, Note_on_c, 12, 60, 80
17, 48359, Note_on_c, 12, 67, 0
17, 48359, Note_on_c, 12, 60, 0
17, 48404, Note_on_c, 12, 76, 0
17, 48420, Note_on_c, 12, 72, 80
17, 48464, Note_on_c, 12, 72, 0
17, 48480, Note_on_c, 12, 72, 80
17, 48584, Note_on_c, 12, 72, 0
17, 48600, Note_on_c, 12, 67, 80
17, 48719, Note_on_c, 12, 67, 0
17, 48960, Note_on_c, 12, 72, 80
17, 49124, Note_on_c, 12, 72, 0
17, 49140, Note_on_c, 12, 60, 80
17, 49184, Note_on_c, 12, 60, 0
17, 49200, Note_on_c, 12, 60, 80
17, 49304, Note_on_c, 12, 60, 0
17, 49320, Note_on_c, 12, 55, 80
17, 49439, Note_on_c, 12, 55, 0
17, 49680, Note_on_c, 12, 65, 32
17, 49799, Note_on_c, 12, 65, 0
17, 49800, Note_on_c, 12, 64, 32
17, 49919, Note_on_c, 12, 64, 0
17, 49920, Note_on_c, 12, 62, 32
17, 50039, Note_on_c, 12, 62, 0
17, 50040, Note_on_c, 12, 60, 32
17, 50159, Note_on_c, 12, 60, 0
17, 50160, Note_on_c, 12, 59, 32
17, 50279, Note_on_c, 12, 59, 0
17, 50280, Note_on_c, 12, 57, 32
17, 50399, Note_on_c, 12, 57, 0
17, 50400, Note_on_c, 12, 55, 32
17, 50519, Note_on_c, 12, 55, 0
17, 50520, Note_on_c, 12, 57, 32
17, 50639, Note_on_c, 12, 57, 0
17, 50640, Note_on_c, 12, 55, 32
17, 51104, Note_on_c, 12, 55, 0
17, 51120, Note_on_c, 12, 55, 32
17, 51120, Note_on_c, 12, 64, 32
17, 51284, Note_on_c, 12, 55, 0
17, 51284, Note_on_c, 12, 64, 0
17, 51300, Note_on_c, 12, 67, 32
17, 51344, Note_on_c, 12, 67, 0
17, 51360, Note_on_c, 12, 67, 32
17, 51464, Note_on_c, 12, 67, 0
17, 51480, Note_on_c, 12, 69, 32
17, 51599, Note_on_c, 12, 69, 0
17, 51840, Note_on_c, 12, 69, 32
17, 52004, Note_on_c, 12, 69, 0
17, 52020, Note_on_c, 12, 69, 32
17, 52064, Note_on_c, 12, 69, 0
17, 52080, Note_on_c, 12, 69, 32
17, 52184, Note_on_c, 12, 69, 0
17, 52200, Note_on_c, 12, 69, 32
17, 52319, Note_on_c, 12, 69, 0
17, 54000, Note_on_c, 12, 81, 32
17, 54164, Note_on_c, 12, 81, 0
17, 54180, Note_on_c, 12, 69, 32
17, 54224, Note_on_c, 12, 69, 0
17, 54240, Note_on_c, 12, 69, 32
17, 54344, Note_on_c, 12, 69, 0
17, 54360, Note_on_c, 12, 74, 32
17, 54449, Note_on_c, 12, 74, 0
17, 54480, Note_on_c, 12, 76, 32
17, 54569, Note_on_c, 12, 76, 0
17, 54600, Note_on_c, 12, 77, 32
17, 54689, Note_on_c, 12, 77, 0
17, 54720, Note_on_c, 12, 76, 32
17, 54809, Note_on_c, 12, 76, 0
17, 54840, Note_on_c, 12, 77, 32
17, 54929, Note_on_c, 12, 77, 0
17, 54960, Note_on_c, 12, 79, 32
17, 55049, Note_on_c, 12, 79, 0
17, 55080, Note_on_c, 12, 77, 32
17, 55169, Note_on_c, 12, 77, 0
17, 55200, Note_on_c, 12, 76, 32
17, 55289, Note_on_c, 12, 76, 0
17, 55320, Note_on_c, 12, 74, 32
17, 55409, Note_on_c, 12, 74, 0
17, 55440, Note_on_c, 12, 77, 32
17, 55529, Note_on_c, 12, 77, 0
17, 55560, Note_on_c, 12, 76, 32
17, 55649, Note_on_c, 12, 76, 0
17, 55680, Note_on_c, 12, 74, 32
17, 55769, Note_on_c, 12, 74, 0
17, 55800, Note_on_c, 12, 72, 32
17, 55889, Note_on_c, 12, 72, 0
17, 55920, Note_on_c, 12, 71, 32
17, 56009, Note_on_c, 12, 71, 0
17, 56040, Note_on_c, 12, 69, 32
17, 56129, Note_on_c, 12, 69, 0
17, 56160, Note_on_c, 12, 68, 32
17, 56249, Note_on_c, 12, 68, 0
17, 56280, Note_on_c, 12, 69, 32
17, 56369, Note_on_c, 12, 69, 0
17, 56400, Note_on_c, 12, 71, 32
17, 56489, Note_on_c, 12, 71, 0
17, 56520, Note_on_c, 12, 69, 32
17, 56609, Note_on_c, 12, 69, 0
17, 56640, Note_on_c, 12, 68, 32
17, 56729, Note_on_c, 12, 68, 0
17, 56760, Note_on_c, 12, 69, 32
17, 56849, Note_on_c, 12, 69, 0
17, 56880, Note_on_c, 12, 67, 32
17, 56969, Note_on_c, 12, 67, 0
17, 57000, Note_on_c, 12, 65, 32
17, 57089, Note_on_c, 12, 65, 0
17, 57120, Note_on_c, 12, 64, 32
17, 57209, Note_on_c, 12, 64, 0
17, 57240, Note_on_c, 12, 62, 32
17, 57329, Note_on_c, 12, 62, 0
17, 57360, Note_on_c, 12, 67, 32
17, 57449, Note_on_c, 12, 67, 0
17, 57480, Note_on_c, 12, 69, 32
17, 57569, Note_on_c, 12, 69, 0
17, 57600, Note_on_c, 12, 69, 32
17, 57689, Note_on_c, 12, 69, 0
17, 57720, Note_on_c, 12, 69, 32
17, 57809, Note_on_c, 12, 69, 0
17, 57840, Note_on_c, 12, 69, 32
17, 57929, Note_on_c, 12, 69, 0
17, 57960, Note_on_c, 12, 69, 32
17, 58049, Note_on_c, 12, 69, 0
17, 58080, Note_on_c, 12, 69, 32
17, 58169, Note_on_c, 12, 69, 0
17, 58200, Note_on_c, 12, 81, 32
17, 58289, Note_on_c, 12, 81, 0
17, 58320, Note_on_c, 12, 74, 32
17, 58409, Note_on_c, 12, 74, 0
17, 58440, Note_on_c, 12, 76, 32
17, 58529, Note_on_c, 12, 76, 0
17, 58560, Note_on_c, 12, 77, 32
17, 58649, Note_on_c, 12, 77, 0
17, 58680, Note_on_c, 12, 76, 32
17, 58769, Note_on_c, 12, 76, 0
17, 58800, Note_on_c, 12, 74, 32
17, 58889, Note_on_c, 12, 74, 0
17, 58920, Note_on_c, 12, 72, 32
17, 59009, Note_on_c, 12, 72, 0
17, 59040, Note_on_c, 12, 71, 32
17, 59129, Note_on_c, 12, 71, 0
17, 59160, Note_on_c, 12, 69, 32
17, 59249, Note_on_c, 12, 69, 0
17, 59280, Note_on_c, 12, 68, 32
17, 59369, Note_on_c, 12, 68, 0
17, 59400, Note_on_c, 12, 69, 32
17, 59489, Note_on_c, 12, 69, 0
17, 59520, Note_on_c, 12, 74, 32
17, 59609, Note_on_c, 12, 74, 0
17, 59640, Note_on_c, 12, 72, 32
17, 59729, Note_on_c, 12, 72, 0
17, 59760, Note_on_c, 12, 73, 32
17, 59849, Note_on_c, 12, 73, 0
17, 59880, Note_on_c, 12, 74, 32
17, 59969, Note_on_c, 12, 74, 0
17, 60000, Note_on_c, 12, 76, 32
17, 60089, Note_on_c, 12, 76, 0
17, 60120, Note_on_c, 12, 74, 32
17, 60209, Note_on_c, 12, 74, 0
17, 60240, Note_on_c, 12, 73, 32
17, 60329, Note_on_c, 12, 73, 0
17, 60360, Note_on_c, 12, 74, 32
17, 60449, Note_on_c, 12, 74, 0
17, 60480, Note_on_c, 12, 69, 32
17, 60569, Note_on_c, 12, 69, 0
17, 60600, Note_on_c, 12, 69, 32
17, 60689, Note_on_c, 12, 69, 0
17, 60720, Note_on_c, 12, 69, 32
17, 60809, Note_on_c, 12, 69, 0
17, 60840, Note_on_c, 12, 69, 32
17, 60929, Note_on_c, 12, 69, 0
17, 60960, Note_on_c, 12, 69, 32
17, 61049, Note_on_c, 12, 69, 0
17, 61080, Note_on_c, 12, 69, 32
17, 61169, Note_on_c, 12, 69, 0
17, 61200, Note_on_c, 12, 81, 32
17, 61289, Note_on_c, 12, 81, 0
17, 61320, Note_on_c, 12, 79, 32
17, 61409, Note_on_c, 12, 79, 0
17, 61440, Note_on_c, 12, 77, 32
17, 61529, Note_on_c, 12, 77, 0
17, 61560, Note_on_c, 12, 76, 32
17, 61649, Note_on_c, 12, 76, 0
17, 61680, Note_on_c, 12, 74, 32
17, 61769, Note_on_c, 12, 74, 0
17, 61800, Note_on_c, 12, 72, 32
17, 61889, Note_on_c, 12, 72, 0
17, 61920, Note_on_c, 12, 71, 32
17, 62009, Note_on_c, 12, 71, 0
17, 62040, Note_on_c, 12, 72, 32
17, 62129, Note_on_c, 12, 72, 0
17, 62160, Note_on_c, 12, 74, 32
17, 62249, Note_on_c, 12, 74, 0
17, 62280, Note_on_c, 12, 72, 32
17, 62369, Note_on_c, 12, 72, 0
17, 62400, Note_on_c, 12, 59, 32
17, 62489, Note_on_c, 12, 59, 0
17, 62520, Note_on_c, 12, 60, 32
17, 62609, Note_on_c, 12, 60, 0
17, 62640, Note_on_c, 12, 61, 32
17, 62729, Note_on_c, 12, 61, 0
17, 62760, Note_on_c, 12, 62, 32
17, 62849, Note_on_c, 12, 62, 0
17, 62880, Note_on_c, 12, 64, 32
17, 62969, Note_on_c, 12, 64, 0
17, 63000, Note_on_c, 12, 65, 32
17, 63089, Note_on_c, 12, 65, 0
17, 63120, Note_on_c, 12, 67, 32
17, 63209, Note_on_c, 12, 67, 0
17, 63240, Note_on_c, 12, 69, 32
17, 63329, Note_on_c, 12, 69, 0
17, 63360, Note_on_c, 12, 69, 32
17, 63449, Note_on_c, 12, 69, 0
17, 63480, Note_on_c, 12, 69, 32
17, 63569, Note_on_c, 12, 69, 0
17, 63600, Note_on_c, 12, 69, 32
17, 63689, Note_on_c, 12, 69, 0
17, 63720, Note_on_c, 12, 69, 32
17, 63809, Note_on_c, 12, 69, 0
17, 63840, Note_on_c, 12, 69, 32
17, 63929, Note_on_c, 12, 69, 0
17, 63960, Note_on_c, 12, 69, 32
17, 64049, Note_on_c, 12, 69, 0
17, 64080, Note_on_c, 12, 74, 32
17, 64169, Note_on_c, 12, 74, 0
17, 64200, Note_on_c, 12, 72, 32
17, 64289, Note_on_c, 12, 72, 0
17, 64320, Note_on_c, 12, 68, 32
17, 64409, Note_on_c, 12, 68, 0
17, 64440, Note_on_c, 12, 69, 32
17, 64529, Note_on_c, 12, 69, 0
17, 64560, Note_on_c, 12, 68, 32
17, 64649, Note_on_c, 12, 68, 0
17, 64680, Note_on_c, 12, 69, 32
17, 64769, Note_on_c, 12, 69, 0
17, 64800, Note_on_c, 12, 59, 32
17, 64889, Note_on_c, 12, 59, 0
17, 64920, Note_on_c, 12, 60, 32
17, 65009, Note_on_c, 12, 60, 0
17, 65040, Note_on_c, 12, 56, 32
17, 65129, Note_on_c, 12, 56, 0
17, 65160, Note_on_c, 12, 64, 32
17, 65249, Note_on_c, 12, 64, 0
17, 65280, Note_on_c, 12, 62, 32
17, 65369, Note_on_c, 12, 62, 0
17, 65400, Note_on_c, 12, 60, 32
17, 65489, Note_on_c, 12, 60, 0
17, 65520, Note_on_c, 12, 70, 32
17, 65609, Note_on_c, 12, 70, 0
17, 65640, Note_on_c, 12, 69, 32
17, 65729, Note_on_c, 12, 69, 0
17, 65760, Note_on_c, 12, 67, 32
17, 65849, Note_on_c, 12, 67, 0
17, 65880, Note_on_c, 12, 65, 32
17, 65969, Note_on_c, 12, 65, 0
17, 66000, Note_on_c, 12, 64, 32
17, 66089, Note_on_c, 12, 64, 0
17, 66120, Note_on_c, 12, 62, 32
17, 66209, Note_on_c, 12, 62, 0
17, 66240, Note_on_c, 12, 61, 32
17, 66329, Note_on_c, 12, 61, 0
17, 66360, Note_on_c, 12, 62, 32
17, 66449, Note_on_c, 12, 62, 0
17, 66480, Note_on_c, 12, 64, 32
17, 66569, Note_on_c, 12, 64, 0
17, 66600, Note_on_c, 12, 62, 32
17, 66689, Note_on_c, 12, 62, 0
17, 66720, Note_on_c, 12, 61, 32
17, 66809, Note_on_c, 12, 61, 0
17, 66840, Note_on_c, 12, 62, 32
17, 66929, Note_on_c, 12, 62, 0
17, 66960, Note_on_c, 12, 64, 32
17, 67049, Note_on_c, 12, 64, 0
17, 67080, Note_on_c, 12, 65, 33
17, 67169, Note_on_c, 12, 65, 0
17, 67200, Note_on_c, 12, 67, 35
17, 67289, Note_on_c, 12, 67, 0
17, 67320, Note_on_c, 12, 65, 37
17, 67409, Note_on_c, 12, 65, 0
17, 67440, Note_on_c, 12, 64, 38
17, 67529, Note_on_c, 12, 64, 0
17, 67560, Note_on_c, 12, 65, 40
17, 67649, Note_on_c, 12, 65, 0
17, 67680, Note_on_c, 12, 64, 42
17, 67769, Note_on_c, 12, 64, 0
17, 67800, Note_on_c, 12, 65, 43
17, 67889, Note_on_c, 12, 65, 0
17, 67920, Note_on_c, 12, 67, 45
17, 68009, Note_on_c, 12, 67, 0
17, 68040, Note_on_c, 12, 65, 47
17, 68129, Note_on_c, 12, 65, 0
17, 68160, Note_on_c, 12, 64, 48
17, 68249, Note_on_c, 12, 64, 0
17, 68280, Note_on_c, 12, 65, 50
17, 68369, Note_on_c, 12, 65, 0
17, 68400, Note_on_c, 12, 64, 52
17, 68489, Note_on_c, 12, 64, 0
17, 68520, Note_on_c, 12, 65, 53
17, 68609, Note_on_c, 12, 65, 0
17, 68640, Note_on_c, 12, 67, 55
17, 68729, Note_on_c, 12, 67, 0
17, 68760, Note_on_c, 12, 65, 57
17, 68849, Note_on_c, 12, 65, 0
17, 68880, Note_on_c, 12, 64, 58
17, 68969, Note_on_c, 12, 64, 0
17, 69000, Note_on_c, 12, 65, 60
17, 69089, Note_on_c, 12, 65, 0
17, 69120, Note_on_c, 12, 73, 62
17, 69209, Note_on_c, 12, 73, 0
17, 69240, Note_on_c, 12, 74, 63
17, 69329, Note_on_c, 12, 74, 0
17, 69360, Note_on_c, 12, 76, 65
17, 69449, Note_on_c, 12, 76, 0
17, 69480, Note_on_c, 12, 74, 67
17, 69569, Note_on_c, 12, 74, 0
17, 69600, Note_on_c, 12, 73, 68
17, 69689, Note_on_c, 12, 73, 0
17, 69720, Note_on_c, 12, 74, 70
17, 69809, Note_on_c, 12, 74, 0
17, 69840, Note_on_c, 12, 73, 72
17, 69929, Note_on_c, 12, 73, 0
17, 69960, Note_on_c, 12, 74, 73
17, 70049, Note_on_c, 12, 74, 0
17, 70080, Note_on_c, 12, 76, 75
17, 70169, Note_on_c, 12, 76, 0
17, 70200, Note_on_c, 12, 74, 77
17, 70289, Note_on_c, 12, 74, 0
17, 70320, Note_on_c, 12, 73, 78
17, 70409, Note_on_c, 12, 73, 0
17, 70440, Note_on_c, 12, 74, 80
17, 70529, Note_on_c, 12, 74, 0
17, 70560, Note_on_c, 12, 73, 82
17, 70560, Note_on_c, 12, 64, 82
17, 70649, Note_on_c, 12, 73, 0
17, 70649, Note_on_c, 12, 64, 0
17, 70680, Note_on_c, 12, 74, 83
17, 70769, Note_on_c, 12, 74, 0
17, 70800, Note_on_c, 12, 76, 85
17, 70889, Note_on_c, 12, 76, 0
17, 70920, Note_on_c, 12, 64, 87
17, 70920, Note_on_c, 12, 76, 87
17, 71024, Note_on_c, 12, 64, 0
17, 71024, Note_on_c, 12, 76, 0
17, 71040, Note_on_c, 12, 77, 89
17, 71144, Note_on_c, 12, 77, 0
17, 71160, Note_on_c, 12, 79, 90
17, 71264, Note_on_c, 12, 79, 0
17, 71280, Note_on_c, 12, 81, 92
17, 71280, Note_on_c, 12, 62, 92
17, 71280, Note_on_c, 12, 69, 92
17, 71399, Note_on_c, 12, 62, 0
17, 71399, Note_on_c, 12, 69, 0
17, 71444, Note_on_c, 12, 81, 0
17, 71460, Note_on_c, 12, 69, 92
17, 71504, Note_on_c, 12, 69, 0
17, 71520, Note_on_c, 12, 69, 92
17, 71624, Note_on_c, 12, 69, 0
17, 71640, Note_on_c, 12, 74, 92
17, 71744, Note_on_c, 12, 74, 0
17, 71760, Note_on_c, 12, 76, 92
17, 71864, Note_on_c, 12, 76, 0
17, 71880, Note_on_c, 12, 77, 92
17, 71984, Note_on_c, 12, 77, 0
17, 72000, Note_on_c, 12, 76, 92
17, 72104, Note_on_c, 12, 76, 0
17, 72120, Note_on_c, 12, 77, 92
17, 72224, Note_on_c, 12, 77, 0
17, 72240, Note_on_c, 12, 79, 92
17, 72344, Note_on_c, 12, 79, 0
17, 72360, Note_on_c, 12, 77, 92
17, 72464, Note_on_c, 12, 77, 0
17, 72480, Note_on_c, 12, 76, 92
17, 72584, Note_on_c, 12, 76, 0
17, 72600, Note_on_c, 12, 74, 92
17, 72704, Note_on_c, 12, 74, 0
17, 72720, Note_on_c, 12, 82, 80
17, 72824, Note_on_c, 12, 82, 0
17, 72840, Note_on_c, 12, 81, 80
17, 72944, Note_on_c, 12, 81, 0
17, 72960, Note_on_c, 12, 79, 80
17, 73064, Note_on_c, 12, 79, 0
17, 73080, Note_on_c, 12, 77, 80
17, 73184, Note_on_c, 12, 77, 0
17, 73200, Note_on_c, 12, 76, 80
17, 73304, Note_on_c, 12, 76, 0
17, 73320, Note_on_c, 12, 74, 80
17, 73424, Note_on_c, 12, 74, 0
17, 73440, Note_on_c, 12, 73, 80
17, 73544, Note_on_c, 12, 73, 0
17, 73560, Note_on_c, 12, 74, 80
17, 73664, Note_on_c, 12, 74, 0
17, 73680, Note_on_c, 12, 76, 80
17, 73784, Note_on_c, 12, 76, 0
17, 73800, Note_on_c, 12, 74, 80
17, 73904, Note_on_c, 12, 74, 0
17, 73920, Note_on_c, 12, 73, 80
17, 74024, Note_on_c, 12, 73, 0
17, 74040, Note_on_c, 12, 74, 80
17, 74144, Note_on_c, 12, 74, 0
17, 74160, Note_on_c, 12, 82, 80
17, 74264, Note_on_c, 12, 82, 0
17, 74280, Note_on_c, 12, 81, 80
17, 74384, Note_on_c, 12, 81, 0
17, 74400, Note_on_c, 12, 79, 80
17, 74504, Note_on_c, 12, 79, 0
17, 74520, Note_on_c, 12, 77, 80
17, 74624, Note_on_c, 12, 77, 0
17, 74640, Note_on_c, 12, 76, 80
17, 74744, Note_on_c, 12, 76, 0
17, 74760, Note_on_c, 12, 74, 80
17, 74864, Note_on_c, 12, 74, 0
17, 74880, Note_on_c, 12, 73, 80
17, 74984, Note_on_c, 12, 73, 0
17, 75000, Note_on_c, 12, 74, 80
17, 75104, Note_on_c, 12, 74, 0
17, 75120, Note_on_c, 12, 76, 80
17, 75224, Note_on_c, 12, 76, 0
17, 75240, Note_on_c, 12, 74, 80
17, 75344, Note_on_c, 12, 74, 0
17, 75360, Note_on_c, 12, 73, 80
17, 75464, Note_on_c, 12, 73, 0
17, 75480, Note_on_c, 12, 74, 80
17, 75584, Note_on_c, 12, 74, 0
17, 75600, Note_on_c, 12, 81, 80
17, 75704, Note_on_c, 12, 81, 0
17, 75720, Note_on_c, 12, 79, 80
17, 75824, Note_on_c, 12, 79, 0
17, 75840, Note_on_c, 12, 77, 80
17, 75944, Note_on_c, 12, 77, 0
17, 75960, Note_on_c, 12, 76, 80
17, 76064, Note_on_c, 12, 76, 0
17, 76080, Note_on_c, 12, 74, 80
17, 76184, Note_on_c, 12, 74, 0
17, 76200, Note_on_c, 12, 72, 80
17, 76304, Note_on_c, 12, 72, 0
17, 76320, Note_on_c, 12, 71, 80
17, 76424, Note_on_c, 12, 71, 0
17, 76440, Note_on_c, 12, 72, 80
17, 76544, Note_on_c, 12, 72, 0
17, 76560, Note_on_c, 12, 74, 80
17, 76664, Note_on_c, 12, 74, 0
17, 76680, Note_on_c, 12, 72, 80
17, 76784, Note_on_c, 12, 72, 0
17, 76800, Note_on_c, 12, 81, 80
17, 76904, Note_on_c, 12, 81, 0
17, 76920, Note_on_c, 12, 81, 80
17, 77024, Note_on_c, 12, 81, 0
17, 77040, Note_on_c, 12, 81, 80
17, 77144, Note_on_c, 12, 81, 0
17, 77160, Note_on_c, 12, 79, 80
17, 77264, Note_on_c, 12, 79, 0
17, 77280, Note_on_c, 12, 77, 80
17, 77384, Note_on_c, 12, 77, 0
17, 77400, Note_on_c, 12, 76, 80
17, 77504, Note_on_c, 12, 76, 0
17, 77520, Note_on_c, 12, 74, 80
17, 77624, Note_on_c, 12, 74, 0
17, 77640, Note_on_c, 12, 72, 80
17, 77744, Note_on_c, 12, 72, 0
17, 77760, Note_on_c, 12, 79, 80
17, 77864, Note_on_c, 12, 79, 0
17, 77880, Note_on_c, 12, 77, 80
17, 77984, Note_on_c, 12, 77, 0
17, 78000, Note_on_c, 12, 76, 80
17, 78104, Note_on_c, 12, 76, 0
17, 78120, Note_on_c, 12, 88, 80
17, 78224, Note_on_c, 12, 88, 0
17, 78240, Note_on_c, 12, 86, 80
17, 78344, Note_on_c, 12, 86, 0
17, 78360, Note_on_c, 12, 84, 80
17, 78464, Note_on_c, 12, 84, 0
17, 78480, Note_on_c, 12, 79, 80
17, 78539, Note_on_c, 12, 79, 0
17, 78540, Note_on_c, 12, 79, 44
17, 78644, Note_on_c, 12, 79, 0
17, 78660, Note_on_c, 12, 67, 44
17, 78704, Note_on_c, 12, 67, 0
17, 78720, Note_on_c, 12, 67, 44
17, 78824, Note_on_c, 12, 67, 0
17, 78838, Control_c, 12, 11, 87
17, 78840, Note_on_c, 12, 79, 68
17, 79004, Note_on_c, 12, 79, 0
17, 79020, Note_on_c, 12, 67, 68
17, 79064, Note_on_c, 12, 67, 0
17, 79080, Note_on_c, 12, 67, 68
17, 79184, Note_on_c, 12, 67, 0
17, 79200, Control_c, 12, 11, 87
17, 79200, Note_on_c, 12, 79, 68
17, 79230, Control_c, 12, 11, 88
17, 79260, Control_c, 12, 11, 89
17, 79290, Control_c, 12, 11, 90
17, 79320, Control_c, 12, 11, 91
17, 79350, Control_c, 12, 11, 93
17, 79364, Note_on_c, 12, 79, 0
17, 79380, Control_c, 12, 11, 94
17, 79380, Note_on_c, 12, 67, 68
17, 79410, Control_c, 12, 11, 95
17, 79424, Note_on_c, 12, 67, 0
17, 79440, Note_on_c, 12, 67, 68
17, 79440, Control_c, 12, 11, 96
17, 79470, Control_c, 12, 11, 97
17, 79500, Control_c, 12, 11, 98
17, 79530, Control_c, 12, 11, 99
17, 79544, Note_on_c, 12, 67, 0
17, 79560, Control_c, 12, 11, 100
17, 79560, Note_on_c, 12, 77, 68
17, 79590, Control_c, 12, 11, 101
17, 79620, Control_c, 12, 11, 103
17, 79650, Control_c, 12, 11, 104
17, 79680, Control_c, 12, 11, 105
17, 79710, Control_c, 12, 11, 106
17, 79724, Note_on_c, 12, 77, 0
17, 79740, Note_on_c, 12, 65, 68
17, 79740, Control_c, 12, 11, 107
17, 79770, Control_c, 12, 11, 108
17, 79784, Note_on_c, 12, 65, 0
17, 79800, Control_c, 12, 11, 109
17, 79800, Note_on_c, 12, 65, 68
17, 79830, Control_c, 12, 11, 110
17, 79860, Control_c, 12, 11, 111
17, 79890, Control_c, 12, 11, 113
17, 79904, Note_on_c, 12, 65, 0
17, 79920, Note_on_c, 12, 77, 68
17, 79920, Control_c, 12, 11, 114
17, 79950, Control_c, 12, 11, 115
17, 79980, Control_c, 12, 11, 116
17, 80010, Control_c, 12, 11, 117
17, 80040, Control_c, 12, 11, 118
17, 80070, Control_c, 12, 11, 119
17, 80084, Note_on_c, 12, 77, 0
17, 80100, Note_on_c, 12, 65, 68
17, 80100, Control_c, 12, 11, 120
17, 80130, Control_c, 12, 11, 121
17, 80144, Note_on_c, 12, 65, 0
17, 80160, Note_on_c, 12, 65, 68
17, 80160, Control_c, 12, 11, 123
17, 80190, Control_c, 12, 11, 124
17, 80220, Control_c, 12, 11, 125
17, 80250, Control_c, 12, 11, 127
17, 80264, Note_on_c, 12, 65, 0
17, 80280, Note_on_c, 12, 76, 68
17, 80444, Note_on_c, 12, 76, 0
17, 80460, Control_c, 12, 11, 127
17, 80460, Note_on_c, 12, 64, 68
17, 80485, Control_c, 12, 11, 126
17, 80504, Note_on_c, 12, 64, 0
17, 80510, Control_c, 12, 11, 125
17, 80520, Note_on_c, 12, 64, 68
17, 80535, Control_c, 12, 11, 124
17, 80560, Control_c, 12, 11, 123
17, 80585, Control_c, 12, 11, 121
17, 80610, Control_c, 12, 11, 120
17, 80624, Note_on_c, 12, 64, 0
17, 80635, Control_c, 12, 11, 119
17, 80640, Note_on_c, 12, 75, 68
17, 80660, Control_c, 12, 11, 118
17, 80685, Control_c, 12, 11, 117
17, 80710, Control_c, 12, 11, 116
17, 80735, Control_c, 12, 11, 115
17, 80760, Control_c, 12, 11, 114
17, 80785, Control_c, 12, 11, 113
17, 80804, Note_on_c, 12, 75, 0
17, 80810, Control_c, 12, 11, 111
17, 80820, Note_on_c, 12, 63, 68
17, 80835, Control_c, 12, 11, 110
17, 80860, Control_c, 12, 11, 109
17, 80864, Note_on_c, 12, 63, 0
17, 80880, Note_on_c, 12, 63, 68
17, 80885, Control_c, 12, 11, 108
17, 80910, Control_c, 12, 11, 107
17, 80935, Control_c, 12, 11, 106
17, 80960, Control_c, 12, 11, 105
17, 80984, Note_on_c, 12, 63, 0
17, 80985, Control_c, 12, 11, 104
17, 81000, Note_on_c, 12, 74, 68
17, 81010, Control_c, 12, 11, 103
17, 81035, Control_c, 12, 11, 101
17, 81060, Control_c, 12, 11, 100
17, 81085, Control_c, 12, 11, 99
17, 81110, Control_c, 12, 11, 98
17, 81135, Control_c, 12, 11, 97
17, 81160, Control_c, 12, 11, 96
17, 81164, Note_on_c, 12, 74, 0
17, 81180, Note_on_c, 12, 62, 68
17, 81185, Control_c, 12, 11, 95
17, 81210, Control_c, 12, 11, 94
17, 81224, Note_on_c, 12, 62, 0
17, 81235, Control_c, 12, 11, 93
17, 81240, Note_on_c, 12, 62, 68
17, 81260, Control_c, 12, 11, 91
17, 81285, Control_c, 12, 11, 90
17, 81310, Control_c, 12, 11, 89
17, 81335, Control_c, 12, 11, 87
17, 81359, Note_on_c, 12, 62, 0
17, 81960, Control_c, 12, 11, 47
17, 82080, Control_c, 12, 11, 47
17, 82080, Note_on_c, 12, 69, 92
17, 82125, Control_c, 12, 11, 49
17, 82170, Control_c, 12, 11, 50
17, 82215, Control_c, 12, 11, 52
17, 82244, Note_on_c, 12, 69, 0
17, 82260, Control_c, 12, 11, 54
17, 82260, Note_on_c, 12, 57, 92
17, 82304, Note_on_c, 12, 57, 0
17, 82305, Control_c, 12, 11, 55
17, 82320, Note_on_c, 12, 57, 92
17, 82350, Control_c, 12, 11, 57
17, 82395, Control_c, 12, 11, 59
17, 82424, Note_on_c, 12, 57, 0
17, 82440, Note_on_c, 12, 69, 92
17, 82440, Control_c, 12, 11, 60
17, 82485, Control_c, 12, 11, 62
17, 82530, Control_c, 12, 11, 64
17, 82575, Control_c, 12, 11, 65
17, 82604, Note_on_c, 12, 69, 0
17, 82620, Note_on_c, 12, 57, 92
17, 82620, Control_c, 12, 11, 67
17, 82664, Note_on_c, 12, 57, 0
17, 82665, Control_c, 12, 11, 69
17, 82680, Note_on_c, 12, 57, 92
17, 82710, Control_c, 12, 11, 70
17, 82755, Control_c, 12, 11, 72
17, 82784, Note_on_c, 12, 57, 0
17, 82800, Control_c, 12, 11, 74
17, 82800, Note_on_c, 12, 68, 92
17, 82845, Control_c, 12, 11, 75
17, 82890, Control_c, 12, 11, 77
17, 82935, Control_c, 12, 11, 79
17, 82964, Note_on_c, 12, 68, 0
17, 82980, Note_on_c, 12, 56, 92
17, 82980, Control_c, 12, 11, 80
17, 83024, Note_on_c, 12, 56, 0
17, 83025, Control_c, 12, 11, 82
17, 83040, Note_on_c, 12, 56, 92
17, 83070, Control_c, 12, 11, 84
17, 83115, Control_c, 12, 11, 85
17, 83144, Note_on_c, 12, 56, 0
17, 83160, Control_c, 12, 11, 87
17, 83160, Note_on_c, 12, 67, 92
17, 83205, Control_c, 12, 11, 89
17, 83250, Control_c, 12, 11, 90
17, 83295, Control_c, 12, 11, 92
17, 83324, Note_on_c, 12, 67, 0
17, 83340, Control_c, 12, 11, 94
17, 83340, Note_on_c, 12, 55, 92
17, 83384, Note_on_c, 12, 55, 0
17, 83385, Control_c, 12, 11, 95
17, 83400, Note_on_c, 12, 55, 92
17, 83430, Control_c, 12, 11, 97
17, 83475, Control_c, 12, 11, 99
17, 83504, Note_on_c, 12, 55, 0
17, 83520, Note_on_c, 12, 67, 92
17, 83520, Control_c, 12, 11, 100
17, 83565, Control_c, 12, 11, 102
17, 83610, Control_c, 12, 11, 104
17, 83655, Control_c, 12, 11, 105
17, 83684, Note_on_c, 12, 67, 0
17, 83700, Control_c, 12, 11, 107
17, 83700, Note_on_c, 12, 55, 92
17, 83744, Note_on_c, 12, 55, 0
17, 83745, Control_c, 12, 11, 109
17, 83760, Note_on_c, 12, 55, 92
17, 83790, Control_c, 12, 11, 110
17, 83835, Control_c, 12, 11, 112
17, 83864, Note_on_c, 12, 55, 0
17, 83880, Control_c, 12, 11, 114
17, 83880, Note_on_c, 12, 67, 92
17, 83925, Control_c, 12, 11, 115
17, 83970, Control_c, 12, 11, 117
17, 84015, Control_c, 12, 11, 119
17, 84044, Note_on_c, 12, 67, 0
17, 84060, Note_on_c, 12, 55, 92
17, 84060, Control_c, 12, 11, 120
17, 84104, Note_on_c, 12, 55, 0
17, 84105, Control_c, 12, 11, 122
17, 84120, Note_on_c, 12, 55, 92
17, 84150, Control_c, 12, 11, 124
17, 84195, Control_c, 12, 11, 127
17, 84224, Note_on_c, 12, 55, 0
17, 84240, Note_on_c, 12, 72, 92
17, 84404, Note_on_c, 12, 72, 0
17, 84420, Note_on_c, 12, 60, 92
17, 84464, Note_on_c, 12, 60, 0
17, 84480, Note_on_c, 12, 60, 92
17, 84584, Note_on_c, 12, 60, 0
17, 84600, Note_on_c, 12, 72, 92
17, 84764, Note_on_c, 12, 72, 0
17, 84780, Note_on_c, 12, 60, 92
17, 84824, Note_on_c, 12, 60, 0
17, 84840, Note_on_c, 12, 60, 92
17, 84944, Note_on_c, 12, 60, 0
17, 84960, Note_on_c, 12, 72, 92
17, 85124, Note_on_c, 12, 72, 0
17, 85140, Note_on_c, 12, 60, 92
17, 85184, Note_on_c, 12, 60, 0
17, 85200, Note_on_c, 12, 60, 92
17, 85304, Note_on_c, 12, 60, 0
17, 85320, Note_on_c, 12, 72, 92
17, 85484, Note_on_c, 12, 72, 0
17, 85500, Note_on_c, 12, 60, 92
17, 85544, Note_on_c, 12, 60, 0
17, 85560, Note_on_c, 12, 60, 92
17, 85664, Note_on_c, 12, 60, 0
17, 85680, Note_on_c, 12, 72, 92
17, 85844, Note_on_c, 12, 72, 0
17, 85860, Note_on_c, 12, 60, 92
17, 85904, Note_on_c, 12, 60, 0
17, 85920, Note_on_c, 12, 60, 92
17, 86024, Note_on_c, 12, 60, 0
17, 86040, Note_on_c, 12, 72, 92
17, 86204, Note_on_c, 12, 72, 0
17, 86220, Note_on_c, 12, 60, 92
17, 86264, Note_on_c, 12, 60, 0
17, 86280, Note_on_c, 12, 60, 92
17, 86384, Note_on_c, 12, 60, 0
17, 86400, Note_on_c, 12, 72, 92
17, 86564, Note_on_c, 12, 72, 0
17, 86580, Note_on_c, 12, 60, 92
17, 86624, Note_on_c, 12, 60, 0
17, 86640, Note_on_c, 12, 60, 92
17, 86744, Note_on_c, 12, 60, 0
17, 86760, Note_on_c, 12, 72, 92
17, 86924, Note_on_c, 12, 72, 0
17, 86940, Note_on_c, 12, 60, 92
17, 86984, Note_on_c, 12, 60, 0
17, 87000, Note_on_c, 12, 60, 92
17, 87104, Note_on_c, 12, 60, 0
17, 87120, Note_on_c, 12, 72, 92
17, 87284, Note_on_c, 12, 72, 0
17, 87300, Note_on_c, 12, 60, 92
17, 87344, Note_on_c, 12, 60, 0
17, 87360, Note_on_c, 12, 60, 92
17, 87464, Note_on_c, 12, 60, 0
17, 87480, Note_on_c, 12, 72, 92
17, 87644, Note_on_c, 12, 72, 0
17, 87660, Note_on_c, 12, 60, 92
17, 87704, Note_on_c, 12, 60, 0
17, 87720, Note_on_c, 12, 60, 92
17, 87824, Note_on_c, 12, 60, 0
17, 87840, Note_on_c, 12, 72, 92
17, 88004, Note_on_c, 12, 72, 0
17, 88020, Note_on_c, 12, 60, 92
17, 88064, Note_on_c, 12, 60, 0
17, 88080, Note_on_c, 12, 60, 92
17, 88184, Note_on_c, 12, 60, 0
17, 88200, Note_on_c, 12, 72, 92
17, 88364, Note_on_c, 12, 72, 0
17, 88380, Note_on_c, 12, 60, 92
17, 88424, Note_on_c, 12, 60, 0
17, 88440, Note_on_c, 12, 60, 92
17, 88544, Note_on_c, 12, 60, 0
17, 88560, Note_on_c, 12, 72, 92
17, 88724, Note_on_c, 12, 72, 0
17, 88740, Note_on_c, 12, 60, 92
17, 88784, Note_on_c, 12, 60, 0
17, 88800, Note_on_c, 12, 60, 92
17, 88904, Note_on_c, 12, 60, 0
17, 88920, Note_on_c, 12, 72, 92
17, 89084, Note_on_c, 12, 72, 0
17, 89100, Note_on_c, 12, 60, 92
17, 89144, Note_on_c, 12, 60, 0
17, 89160, Note_on_c, 12, 60, 92
17, 89264, Note_on_c, 12, 60, 0
17, 89280, Note_on_c, 12, 72, 92
17, 89444, Note_on_c, 12, 72, 0
17, 89460, Note_on_c, 12, 60, 92
17, 89504, Note_on_c, 12, 60, 0
17, 89520, Note_on_c, 12, 60, 92
17, 89624, Note_on_c, 12, 60, 0
17, 89640, Note_on_c, 12, 72, 92
17, 89804, Note_on_c, 12, 72, 0
17, 89820, Note_on_c, 12, 60, 92
17, 89864, Note_on_c, 12, 60, 0
17, 89880, Note_on_c, 12, 60, 92
17, 89984, Note_on_c, 12, 60, 0
17, 90000, Note_on_c, 12, 72, 92
17, 90119, Note_on_c, 12, 72, 0
17, 90720, Note_on_c, 12, 69, 92
17, 90884, Note_on_c, 12, 69, 0
17, 90900, Note_on_c, 12, 57, 92
17, 90944, Note_on_c, 12, 57, 0
17, 90960, Note_on_c, 12, 57, 92
17, 91064, Note_on_c, 12, 57, 0
17, 91080, Note_on_c, 12, 69, 92
17, 91169, Note_on_c, 12, 69, 0
17, 91200, Note_on_c, 12, 65, 92
17, 91289, Note_on_c, 12, 65, 0
17, 91320, Note_on_c, 12, 64, 92
17, 91409, Note_on_c, 12, 64, 0
17, 91440, Note_on_c, 12, 62, 92
17, 91559, Note_on_c, 12, 62, 0
17, 92160, Note_on_c, 12, 67, 92
17, 92324, Note_on_c, 12, 67, 0
17, 92340, Note_on_c, 12, 55, 92
17, 92384, Note_on_c, 12, 55, 0
17, 92400, Note_on_c, 12, 55, 92
17, 92504, Note_on_c, 12, 55, 0
17, 92520, Note_on_c, 12, 67, 92
17, 92609, Note_on_c, 12, 67, 0
17, 92640, Note_on_c, 12, 64, 92
17, 92729, Note_on_c, 12, 64, 0
17, 92760, Note_on_c, 12, 62, 92
17, 92849, Note_on_c, 12, 62, 0
17, 92878, Control_c, 12, 11, 87
17, 92880, Note_on_c, 12, 55, 68
17, 93000, Note_on_c, 12, 65, 68
17, 93119, Note_on_c, 12, 65, 0
17, 93120, Note_on_c, 12, 64, 68
17, 93359, Note_on_c, 12, 64, 0
17, 93360, Note_on_c, 12, 65, 68
17, 93479, Note_on_c, 12, 65, 0
17, 93480, Note_on_c, 12, 67, 68
17, 93599, Note_on_c, 12, 67, 0
17, 93600, Note_on_c, 12, 65, 68
17, 93600, Control_c, 12, 11, 87
17, 93630, Control_c, 12, 11, 89
17, 93660, Control_c, 12, 11, 90
17, 93690, Control_c, 12, 11, 92
17, 93719, Note_on_c, 12, 55, 0
17, 93719, Note_on_c, 12, 65, 0
17, 93720, Note_on_c, 12, 64, 68
17, 93720, Control_c, 12, 11, 94
17, 93750, Control_c, 12, 11, 95
17, 93780, Control_c, 12, 11, 97
17, 93810, Control_c, 12, 11, 99
17, 93839, Note_on_c, 12, 64, 0
17, 93840, Control_c, 12, 11, 100
17, 93840, Note_on_c, 12, 65, 68
17, 93870, Control_c, 12, 11, 102
17, 93900, Control_c, 12, 11, 104
17, 93930, Control_c, 12, 11, 105
17, 93959, Note_on_c, 12, 65, 0
17, 93960, Note_on_c, 12, 67, 68
17, 93960, Control_c, 12, 11, 107
17, 93990, Control_c, 12, 11, 109
17, 94020, Control_c, 12, 11, 110
17, 94050, Control_c, 12, 11, 112
17, 94079, Note_on_c, 12, 67, 0
17, 94080, Note_on_c, 12, 60, 68
17, 94080, Control_c, 12, 11, 114
17, 94110, Control_c, 12, 11, 115
17, 94140, Control_c, 12, 11, 117
17, 94170, Control_c, 12, 11, 119
17, 94199, Note_on_c, 12, 60, 0
17, 94200, Note_on_c, 12, 72, 68
17, 94200, Control_c, 12, 11, 120
17, 94230, Control_c, 12, 11, 122
17, 94260, Control_c, 12, 11, 124
17, 94290, Control_c, 12, 11, 125
17, 94320, Control_c, 12, 11, 127
17, 94350, Control_c, 12, 11, 125
17, 94380, Control_c, 12, 11, 124
17, 94410, Control_c, 12, 11, 122
17, 94440, Control_c, 12, 11, 120
17, 94470, Control_c, 12, 11, 119
17, 94500, Control_c, 12, 11, 117
17, 94530, Control_c, 12, 11, 115
17, 94559, Note_on_c, 12, 72, 0
17, 94560, Note_on_c, 12, 60, 68
17, 94560, Control_c, 12, 11, 114
17, 94590, Control_c, 12, 11, 112
17, 94620, Control_c, 12, 11, 110
17, 94650, Control_c, 12, 11, 109
17, 94680, Control_c, 12, 11, 107
17, 94710, Control_c, 12, 11, 105
17, 94740, Control_c, 12, 11, 104
17, 94770, Control_c, 12, 11, 102
17, 94799, Note_on_c, 12, 60, 0
17, 94800, Note_on_c, 12, 62, 68
17, 94800, Control_c, 12, 11, 100
17, 94830, Control_c, 12, 11, 99
17, 94860, Control_c, 12, 11, 97
17, 94890, Control_c, 12, 11, 95
17, 94919, Note_on_c, 12, 62, 0
17, 94920, Note_on_c, 12, 64, 68
17, 94920, Control_c, 12, 11, 94
17, 94950, Control_c, 12, 11, 92
17, 94980, Control_c, 12, 11, 90
17, 95010, Control_c, 12, 11, 87
17, 95039, Note_on_c, 12, 64, 0
17, 96840, Control_c, 12, 11, 127
17, 97200, Note_on_c, 12, 76, 80
17, 97289, Note_on_c, 12, 76, 0
17, 97320, Note_on_c, 12, 64, 80
17, 97409, Note_on_c, 12, 64, 0
17, 97440, Note_on_c, 12, 81, 80
17, 97529, Note_on_c, 12, 81, 0
17, 97560, Note_on_c, 12, 81, 80
17, 97649, Note_on_c, 12, 81, 0
17, 97680, Note_on_c, 12, 79, 80
17, 97769, Note_on_c, 12, 79, 0
17, 97800, Note_on_c, 12, 76, 80
17, 97800, Note_on_c, 12, 72, 80
17, 97889, Note_on_c, 12, 76, 0
17, 97889, Note_on_c, 12, 72, 0
17, 97920, Note_on_c, 12, 76, 80
17, 97920, Note_on_c, 12, 72, 80
17, 98039, Note_on_c, 12, 76, 0
17, 98039, Note_on_c, 12, 72, 0
17, 98640, Note_on_c, 12, 76, 80
17, 98729, Note_on_c, 12, 76, 0
17, 98760, Note_on_c, 12, 72, 80
17, 98849, Note_on_c, 12, 72, 0
17, 98880, Note_on_c, 12, 77, 80
17, 98969, Note_on_c, 12, 77, 0
17, 99000, Note_on_c, 12, 74, 80
17, 99089, Note_on_c, 12, 74, 0
17, 99120, Note_on_c, 12, 71, 80
17, 99209, Note_on_c, 12, 71, 0
17, 99240, Note_on_c, 12, 76, 80
17, 99329, Note_on_c, 12, 76, 0
17, 99360, Note_on_c, 12, 76, 80
17, 99360, Note_on_c, 12, 67, 80
17, 99360, Note_on_c, 12, 60, 80
17, 99479, Note_on_c, 12, 67, 0
17, 99479, Note_on_c, 12, 60, 0
17, 99524, Note_on_c, 12, 76, 0
17, 99540, Note_on_c, 12, 72, 80
17, 99584, Note_on_c, 12, 72, 0
17, 99600, Note_on_c, 12, 72, 80
17, 99704, Note_on_c, 12, 72, 0
17, 99720, Note_on_c, 12, 67, 80
17, 99839, Note_on_c, 12, 67, 0
17, 100080, Note_on_c, 12, 72, 80
17, 100244, Note_on_c, 12, 72, 0
17, 100260, Note_on_c, 12, 60, 80
17, 100304, Note_on_c, 12, 60, 0
17, 100320, Note_on_c, 12, 60, 80
17, 100424, Note_on_c, 12, 60, 0
17, 100440, Note_on_c, 12, 55, 80
17, 100559, Note_on_c, 12, 55, 0
17, 100800, Note_on_c, 12, 65, 32
17, 100919, Note_on_c, 12, 65, 0
17, 100920, Note_on_c, 12, 64, 32
17, 101039, Note_on_c, 12, 64, 0
17, 101040, Note_on_c, 12, 62, 32
17, 101159, Note_on_c, 12, 62, 0
17, 101160, Note_on_c, 12, 60, 32
17, 101279, Note_on_c, 12, 60, 0
17, 101280, Note_on_c, 12, 59, 32
17, 101399, Note_on_c, 12, 59, 0
17, 101400, Note_on_c, 12, 57, 32
17, 101519, Note_on_c, 12, 57, 0
17, 101520, Note_on_c, 12, 55, 32
17, 101639, Note_on_c, 12, 55, 0
17, 101640, Note_on_c, 12, 57, 32
17, 101759, Note_on_c, 12, 57, 0
17, 101760, Note_on_c, 12, 55, 32
17, 102224, Note_on_c, 12, 55, 0
17, 102240, Note_on_c, 12, 64, 32
17, 102240, Note_on_c, 12, 55, 32
17, 102404, Note_on_c, 12, 64, 0
17, 102404, Note_on_c, 12, 55, 0
17, 102420, Note_on_c, 12, 67, 32
17, 102464, Note_on_c, 12, 67, 0
17, 102480, Note_on_c, 12, 67, 32
17, 102584, Note_on_c, 12, 67, 0
17, 102600, Note_on_c, 12, 69, 32
17, 102719, Note_on_c, 12, 69, 0
17, 102960, Note_on_c, 12, 69, 32
17, 103124, Note_on_c, 12, 69, 0
17, 103140, Note_on_c, 12, 69, 32
17, 103184, Note_on_c, 12, 69, 0
17, 103200, Note_on_c, 12, 69, 32
17, 103304, Note_on_c, 12, 69, 0
17, 103320, Note_on_c, 12, 69, 32
17, 103439, Note_on_c, 12, 69, 0
17, 105120, Note_on_c, 12, 57, 32
17, 105284, Note_on_c, 12, 57, 0
17, 105300, Note_on_c, 12, 69, 32
17, 105344, Note_on_c, 12, 69, 0
17, 105360, Note_on_c, 12, 69, 32
17, 105464, Note_on_c, 12, 69, 0
17, 105480, Note_on_c, 12, 70, 32
17, 105599, Note_on_c, 12, 70, 0
17, 105840, Note_on_c, 12, 58, 32
17, 106004, Note_on_c, 12, 58, 0
17, 106020, Note_on_c, 12, 70, 32
17, 106064, Note_on_c, 12, 70, 0
17, 106080, Note_on_c, 12, 70, 32
17, 106184, Note_on_c, 12, 70, 0
17, 106200, Note_on_c, 12, 70, 32
17, 106319, Note_on_c, 12, 70, 0
17, 108000, Note_on_c, 12, 58, 32
17, 108164, Note_on_c, 12, 58, 0
17, 108180, Note_on_c, 12, 70, 34
17, 108224, Note_on_c, 12, 70, 0
17, 108240, Note_on_c, 12, 70, 34
17, 108344, Note_on_c, 12, 70, 0
17, 108360, Note_on_c, 12, 72, 36
17, 108479, Note_on_c, 12, 72, 0
17, 108720, Note_on_c, 12, 60, 40
17, 108884, Note_on_c, 12, 60, 0
17, 108900, Note_on_c, 12, 72, 42
17, 108944, Note_on_c, 12, 72, 0
17, 108960, Note_on_c, 12, 72, 42
17, 109064, Note_on_c, 12, 72, 0
17, 109080, Note_on_c, 12, 68, 44
17, 109199, Note_on_c, 12, 68, 0
17, 109440, Note_on_c, 12, 68, 48
17, 109604, Note_on_c, 12, 68, 0
17, 109620, Note_on_c, 12, 65, 50
17, 109664, Note_on_c, 12, 65, 0
17, 109680, Note_on_c, 12, 65, 50
17, 109784, Note_on_c, 12, 65, 0
17, 109800, Note_on_c, 12, 70, 52
17, 109919, Note_on_c, 12, 70, 0
17, 110160, Note_on_c, 12, 61, 56
17, 110324, Note_on_c, 12, 61, 0
17, 110340, Note_on_c, 12, 70, 58
17, 110384, Note_on_c, 12, 70, 0
17, 110400, Note_on_c, 12, 70, 58
17, 110504, Note_on_c, 12, 70, 0
17, 110520, Note_on_c, 12, 70, 60
17, 110639, Note_on_c, 12, 70, 0
17, 110880, Note_on_c, 12, 75, 64
17, 111044, Note_on_c, 12, 75, 0
17, 111060, Note_on_c, 12, 63, 66
17, 111104, Note_on_c, 12, 63, 0
17, 111120, Note_on_c, 12, 63, 66
17, 111224, Note_on_c, 12, 63, 0
17, 111240, Note_on_c, 12, 63, 68
17, 111359, Note_on_c, 12, 63, 0
17, 111600, Note_on_c, 12, 64, 72
17, 111764, Note_on_c, 12, 64, 0
17, 111780, Note_on_c, 12, 71, 74
17, 111824, Note_on_c, 12, 71, 0
17, 111840, Note_on_c, 12, 71, 74
17, 111944, Note_on_c, 12, 71, 0
17, 111960, Note_on_c, 12, 73, 76
17, 112079, Note_on_c, 12, 73, 0
17, 112320, Note_on_c, 12, 57, 80
17, 112484, Note_on_c, 12, 57, 0
17, 112500, Note_on_c, 12, 69, 80
17, 112544, Note_on_c, 12, 69, 0
17, 112560, Note_on_c, 12, 69, 80
17, 112664, Note_on_c, 12, 69, 0
17, 113040, Note_on_c, 12, 58, 92
17, 113204, Note_on_c, 12, 58, 0
17, 113220, Note_on_c, 12, 70, 92
17, 113264, Note_on_c, 12, 70, 0
17, 113280, Note_on_c, 12, 70, 92
17, 113384, Note_on_c, 12, 70, 0
17, 113760, Note_on_c, 12, 59, 92
17, 113924, Note_on_c, 12, 59, 0
17, 113940, Note_on_c, 12, 71, 92
17, 113984, Note_on_c, 12, 71, 0
17, 114000, Note_on_c, 12, 71, 92
17, 114104, Note_on_c, 12, 71, 0
17, 114840, Program_c, 12, 45
17, 115200, Note_on_c, 12, 64, 40
17, 115319, Note_on_c, 12, 64, 0
17, 115560, Note_on_c, 12, 59, 40
17, 115679, Note_on_c, 12, 59, 0
17, 116280, Note_on_c, 12, 64, 40
17, 116399, Note_on_c, 12, 64, 0
17, 116640, Note_on_c, 12, 59, 40
17, 116759, Note_on_c, 12, 59, 0
17, 117360, Note_on_c, 12, 64, 40
17, 117479, Note_on_c, 12, 64, 0
17, 117720, Note_on_c, 12, 59, 40
17, 117839, Note_on_c, 12, 59, 0
17, 118440, Note_on_c, 12, 76, 40
17, 118559, Note_on_c, 12, 76, 0
17, 118800, Note_on_c, 12, 64, 40
17, 118919, Note_on_c, 12, 64, 0
17, 119520, Note_on_c, 12, 64, 40
17, 119639, Note_on_c, 12, 64, 0
17, 119880, Note_on_c, 12, 64, 40
17, 119999, Note_on_c, 12, 64, 0
17, 120600, Note_on_c, 12, 64, 40
17, 120719, Note_on_c, 12, 64, 0
17, 120960, Note_on_c, 12, 64, 40
17, 121079, Note_on_c, 12, 64, 0
17, 121680, Note_on_c, 12, 65, 40
17, 121799, Note_on_c, 12, 65, 0
17, 122040, Note_on_c, 12, 65, 40
17, 122159, Note_on_c, 12, 65, 0
17, 122760, Note_on_c, 12, 65, 40
17, 122879, Note_on_c, 12, 65, 0
17, 123120, Note_on_c, 12, 65, 40
17, 123239, Note_on_c, 12, 65, 0
17, 123840, Note_on_c, 12, 65, 40
17, 123959, Note_on_c, 12, 65, 0
17, 124200, Note_on_c, 12, 65, 40
17, 124319, Note_on_c, 12, 65, 0
17, 124920, Note_on_c, 12, 65, 40
17, 125039, Note_on_c, 12, 65, 0
17, 125280, Note_on_c, 12, 65, 40
17, 125399, Note_on_c, 12, 65, 0
17, 125640, Note_on_c, 12, 65, 40
17, 125759, Note_on_c, 12, 65, 0
17, 126000, Note_on_c, 12, 65, 40
17, 126119, Note_on_c, 12, 65, 0
17, 126360, Note_on_c, 12, 65, 40
17, 126479, Note_on_c, 12, 65, 0
17, 126600, Program_c, 12, 48
17, 126720, Note_on_c, 12, 67, 44
17, 126824, Note_on_c, 12, 67, 0
17, 126840, Note_on_c, 12, 69, 44
17, 126944, Note_on_c, 12, 69, 0
17, 126960, Note_on_c, 12, 70, 44
17, 127064, Note_on_c, 12, 70, 0
17, 127080, Note_on_c, 12, 70, 43
17, 127184, Note_on_c, 12, 70, 0
17, 127200, Note_on_c, 12, 69, 43
17, 127304, Note_on_c, 12, 69, 0
17, 127320, Note_on_c, 12, 67, 43
17, 127424, Note_on_c, 12, 67, 0
17, 127440, Note_on_c, 12, 67, 42
17, 127544, Note_on_c, 12, 67, 0
17, 127560, Note_on_c, 12, 69, 42
17, 127664, Note_on_c, 12, 69, 0
17, 127680, Note_on_c, 12, 67, 42
17, 127784, Note_on_c, 12, 67, 0
17, 127798, Program_c, 12, 45
17, 127800, Note_on_c, 12, 62, 33
17, 127919, Note_on_c, 12, 62, 0
17, 128160, Note_on_c, 12, 62, 32
17, 128279, Note_on_c, 12, 62, 0
17, 128520, Note_on_c, 12, 62, 31
17, 128639, Note_on_c, 12, 62, 0
17, 128760, Program_c, 12, 48
17, 128880, Note_on_c, 12, 64, 38
17, 128984, Note_on_c, 12, 64, 0
17, 129000, Note_on_c, 12, 65, 38
17, 129104, Note_on_c, 12, 65, 0
17, 129120, Note_on_c, 12, 67, 38
17, 129224, Note_on_c, 12, 67, 0
17, 129240, Note_on_c, 12, 67, 37
17, 129344, Note_on_c, 12, 67, 0
17, 129360, Note_on_c, 12, 65, 37
17, 129464, Note_on_c, 12, 65, 0
17, 129480, Note_on_c, 12, 64, 37
17, 129584, Note_on_c, 12, 64, 0
17, 129600, Note_on_c, 12, 64, 36
17, 129704, Note_on_c, 12, 64, 0
17, 129720, Note_on_c, 12, 65, 36
17, 129824, Note_on_c, 12, 65, 0
17, 129840, Note_on_c, 12, 64, 36
17, 129944, Note_on_c, 12, 64, 0
17, 129958, Program_c, 12, 45
17, 130320, Note_on_c, 12, 57, 30
17, 130439, Note_on_c, 12, 57, 0
17, 130680, Note_on_c, 12, 69, 29
17, 130799, Note_on_c, 12, 69, 0
17, 130920, Program_c, 12, 48
17, 131040, Note_on_c, 12, 64, 32
17, 131144, Note_on_c, 12, 64, 0
17, 131160, Note_on_c, 12, 65, 32
17, 131264, Note_on_c, 12, 65, 0
17, 131280, Note_on_c, 12, 67, 32
17, 131384, Note_on_c, 12, 67, 0
17, 131400, Note_on_c, 12, 67, 32
17, 131504, Note_on_c, 12, 67, 0
17, 131520, Note_on_c, 12, 65, 32
17, 131624, Note_on_c, 12, 65, 0
17, 131640, Note_on_c, 12, 64, 32
17, 131744, Note_on_c, 12, 64, 0
17, 131760, Note_on_c, 12, 64, 32
17, 131864, Note_on_c, 12, 64, 0
17, 131880, Note_on_c, 12, 65, 32
17, 131984, Note_on_c, 12, 65, 0
17, 132000, Note_on_c, 12, 64, 32
17, 132104, Note_on_c, 12, 64, 0
17, 132120, Note_on_c, 12, 64, 32
17, 132224, Note_on_c, 12, 64, 0
17, 132240, Note_on_c, 12, 65, 32
17, 132344, Note_on_c, 12, 65, 0
17, 132360, Note_on_c, 12, 67, 32
17, 132464, Note_on_c, 12, 67, 0
17, 132480, Note_on_c, 12, 69, 32
17, 132599, Note_on_c, 12, 69, 0
17, 132720, Program_c, 12, 45
17, 132840, Note_on_c, 12, 57, 28
17, 132959, Note_on_c, 12, 57, 0
17, 133560, Note_on_c, 12, 62, 28
17, 133679, Note_on_c, 12, 62, 0
17, 133920, Note_on_c, 12, 57, 28
17, 134039, Note_on_c, 12, 57, 0
17, 134640, Note_on_c, 12, 62, 28
17, 134759, Note_on_c, 12, 62, 0
17, 135000, Note_on_c, 12, 57, 28
17, 135119, Note_on_c, 12, 57, 0
17, 136440, Program_c, 12, 48
17, 136800, Note_on_c, 12, 79, 32
17, 136964, Note_on_c, 12, 79, 0
17, 136980, Note_on_c, 12, 67, 32
17, 137024, Note_on_c, 12, 67, 0
17, 137040, Note_on_c, 12, 67, 32
17, 137144, Note_on_c, 12, 67, 0
17, 137160, Note_on_c, 12, 72, 32
17, 137264, Note_on_c, 12, 72, 0
17, 137280, Note_on_c, 12, 74, 32
17, 137384, Note_on_c, 12, 74, 0
17, 137400, Note_on_c, 12, 75, 32
17, 137504, Note_on_c, 12, 75, 0
17, 137520, Note_on_c, 12, 74, 32
17, 137624, Note_on_c, 12, 74, 0
17, 137640, Note_on_c, 12, 75, 32
17, 137744, Note_on_c, 12, 75, 0
17, 137760, Note_on_c, 12, 77, 32
17, 137864, Note_on_c, 12, 77, 0
17, 137880, Note_on_c, 12, 75, 32
17, 137984, Note_on_c, 12, 75, 0
17, 138000, Note_on_c, 12, 71, 32
17, 138104, Note_on_c, 12, 71, 0
17, 138120, Note_on_c, 12, 72, 32
17, 138224, Note_on_c, 12, 72, 0
17, 138240, Note_on_c, 12, 70, 32
17, 138344, Note_on_c, 12, 70, 0
17, 138360, Note_on_c, 12, 70, 32
17, 138464, Note_on_c, 12, 70, 0
17, 138480, Note_on_c, 12, 70, 32
17, 138584, Note_on_c, 12, 70, 0
17, 138600, Note_on_c, 12, 70, 32
17, 138704, Note_on_c, 12, 70, 0
17, 138720, Note_on_c, 12, 70, 32
17, 138824, Note_on_c, 12, 70, 0
17, 138840, Note_on_c, 12, 70, 32
17, 138944, Note_on_c, 12, 70, 0
17, 138960, Note_on_c, 12, 68, 32
17, 139064, Note_on_c, 12, 68, 0
17, 139080, Note_on_c, 12, 67, 32
17, 139184, Note_on_c, 12, 67, 0
17, 139200, Note_on_c, 12, 65, 32
17, 139304, Note_on_c, 12, 65, 0
17, 139320, Note_on_c, 12, 70, 32
17, 139424, Note_on_c, 12, 70, 0
17, 139440, Note_on_c, 12, 70, 32
17, 139544, Note_on_c, 12, 70, 0
17, 139560, Note_on_c, 12, 70, 32
17, 139664, Note_on_c, 12, 70, 0
17, 139680, Note_on_c, 12, 70, 32
17, 139784, Note_on_c, 12, 70, 0
17, 139800, Note_on_c, 12, 75, 32
17, 139904, Note_on_c, 12, 75, 0
17, 139920, Note_on_c, 12, 77, 32
17, 140024, Note_on_c, 12, 77, 0
17, 140040, Note_on_c, 12, 79, 32
17, 140144, Note_on_c, 12, 79, 0
17, 140160, Note_on_c, 12, 77, 32
17, 140264, Note_on_c, 12, 77, 0
17, 140280, Note_on_c, 12, 75, 32
17, 140384, Note_on_c, 12, 75, 0
17, 140400, Note_on_c, 12, 74, 32
17, 141824, Note_on_c, 12, 74, 0
17, 141840, Note_on_c, 12, 70, 32
17, 141929, Note_on_c, 12, 70, 0
17, 141960, Note_on_c, 12, 68, 32
17, 142049, Note_on_c, 12, 68, 0
17, 142080, Note_on_c, 12, 67, 32
17, 142169, Note_on_c, 12, 67, 0
17, 142200, Note_on_c, 12, 79, 32
17, 142289, Note_on_c, 12, 79, 0
17, 142320, Note_on_c, 12, 77, 32
17, 142409, Note_on_c, 12, 77, 0
17, 142440, Note_on_c, 12, 75, 32
17, 142529, Note_on_c, 12, 75, 0
17, 142560, Note_on_c, 12, 82, 32
17, 142649, Note_on_c, 12, 82, 0
17, 142680, Note_on_c, 12, 80, 32
17, 142769, Note_on_c, 12, 80, 0
17, 142800, Note_on_c, 12, 79, 32
17, 142889, Note_on_c, 12, 79, 0
17, 142920, Note_on_c, 12, 79, 32
17, 143009, Note_on_c, 12, 79, 0
17, 143040, Note_on_c, 12, 77, 32
17, 143129, Note_on_c, 12, 77, 0
17, 143160, Note_on_c, 12, 75, 32
17, 143249, Note_on_c, 12, 75, 0
17, 143278, Control_c, 12, 11, 47
17, 143280, Note_on_c, 12, 65, 80
17, 143280, Control_c, 12, 11, 47
17, 143352, Control_c, 12, 11, 48
17, 143424, Control_c, 12, 11, 49
17, 143496, Control_c, 12, 11, 50
17, 143568, Control_c, 12, 11, 51
17, 143640, Control_c, 12, 11, 52
17, 143712, Control_c, 12, 11, 53
17, 143784, Control_c, 12, 11, 54
17, 143856, Control_c, 12, 11, 55
17, 143928, Control_c, 12, 11, 56
17, 144000, Control_c, 12, 11, 57
17, 144072, Control_c, 12, 11, 58
17, 144144, Control_c, 12, 11, 59
17, 144216, Control_c, 12, 11, 60
17, 144288, Control_c, 12, 11, 61
17, 144360, Control_c, 12, 11, 62
17, 144432, Control_c, 12, 11, 63
17, 144504, Control_c, 12, 11, 64
17, 144576, Control_c, 12, 11, 65
17, 144648, Control_c, 12, 11, 66
17, 144704, Note_on_c, 12, 65, 0
17, 144720, Note_on_c, 12, 65, 80
17, 144720, Control_c, 12, 11, 67
17, 144750, Control_c, 12, 11, 68
17, 144780, Control_c, 12, 11, 70
17, 144810, Control_c, 12, 11, 71
17, 144840, Control_c, 12, 11, 72
17, 144870, Control_c, 12, 11, 73
17, 144900, Control_c, 12, 11, 75
17, 144930, Control_c, 12, 11, 76
17, 144960, Control_c, 12, 11, 77
17, 144990, Control_c, 12, 11, 78
17, 145020, Control_c, 12, 11, 80
17, 145050, Control_c, 12, 11, 81
17, 145080, Control_c, 12, 11, 82
17, 145110, Control_c, 12, 11, 83
17, 145140, Control_c, 12, 11, 85
17, 145170, Control_c, 12, 11, 86
17, 145200, Control_c, 12, 11, 87
17, 145230, Control_c, 12, 11, 88
17, 145260, Control_c, 12, 11, 90
17, 145290, Control_c, 12, 11, 91
17, 145320, Control_c, 12, 11, 92
17, 145350, Control_c, 12, 11, 93
17, 145380, Control_c, 12, 11, 95
17, 145410, Control_c, 12, 11, 96
17, 145440, Control_c, 12, 11, 97
17, 145470, Control_c, 12, 11, 98
17, 145500, Control_c, 12, 11, 100
17, 145530, Control_c, 12, 11, 101
17, 145560, Control_c, 12, 11, 102
17, 145590, Control_c, 12, 11, 103
17, 145620, Control_c, 12, 11, 105
17, 145650, Control_c, 12, 11, 106
17, 145680, Control_c, 12, 11, 107
17, 145710, Control_c, 12, 11, 108
17, 145740, Control_c, 12, 11, 110
17, 145770, Control_c, 12, 11, 111
17, 145800, Control_c, 12, 11, 112
17, 145830, Control_c, 12, 11, 113
17, 145860, Control_c, 12, 11, 115
17, 145890, Control_c, 12, 11, 116
17, 145920, Control_c, 12, 11, 117
17, 145950, Control_c, 12, 11, 118
17, 145980, Control_c, 12, 11, 120
17, 146010, Control_c, 12, 11, 121
17, 146040, Control_c, 12, 11, 122
17, 146070, Control_c, 12, 11, 123
17, 146100, Control_c, 12, 11, 125
17, 146130, Control_c, 12, 11, 127
17, 146144, Note_on_c, 12, 65, 0
17, 146160, Note_on_c, 12, 69, 80
17, 146160, Note_on_c, 12, 77, 80
17, 146279, Note_on_c, 12, 69, 0
17, 146279, Note_on_c, 12, 77, 0
17, 146880, Note_on_c, 12, 69, 86
17, 146880, Note_on_c, 12, 81, 86
17, 146999, Note_on_c, 12, 69, 0
17, 146999, Note_on_c, 12, 81, 0
17, 147600, Note_on_c, 12, 69, 92
17, 147600, Note_on_c, 12, 81, 92
17, 147764, Note_on_c, 12, 69, 0
17, 147764, Note_on_c, 12, 81, 0
17, 147780, Note_on_c, 12, 69, 92
17, 147824, Note_on_c, 12, 69, 0
17, 147840, Note_on_c, 12, 69, 92
17, 147944, Note_on_c, 12, 69, 0
17, 147960, Note_on_c, 12, 69, 92
17, 147960, Note_on_c, 12, 81, 92
17, 148124, Note_on_c, 12, 69, 0
17, 148124, Note_on_c, 12, 81, 0
17, 148140, Note_on_c, 12, 69, 92
17, 148184, Note_on_c, 12, 69, 0
17, 148200, Note_on_c, 12, 69, 92
17, 148304, Note_on_c, 12, 69, 0
17, 148320, Note_on_c, 12, 69, 92
17, 148320, Note_on_c, 12, 81, 92
17, 148484, Note_on_c, 12, 69, 0
17, 148484, Note_on_c, 12, 81, 0
17, 148500, Note_on_c, 12, 69, 92
17, 148544, Note_on_c, 12, 69, 0
17, 148560, Note_on_c, 12, 69, 92
17, 148664, Note_on_c, 12, 69, 0
17, 148680, Note_on_c, 12, 81, 92
17, 148680, Note_on_c, 12, 69, 92
17, 148844, Note_on_c, 12, 81, 0
17, 148844, Note_on_c, 12, 69, 0
17, 148860, Note_on_c, 12, 69, 92
17, 148904, Note_on_c, 12, 69, 0
17, 148920, Note_on_c, 12, 69, 92
17, 149024, Note_on_c, 12, 69, 0
17, 149040, Note_on_c, 12, 81, 92
17, 149040, Note_on_c, 12, 69, 92
17, 149204, Note_on_c, 12, 81, 0
17, 149204, Note_on_c, 12, 69, 0
17, 149220, Note_on_c, 12, 69, 92
17, 149264, Note_on_c, 12, 69, 0
17, 149280, Note_on_c, 12, 69, 92
17, 149384, Note_on_c, 12, 69, 0
17, 149400, Note_on_c, 12, 74, 92
17, 149489, Note_on_c, 12, 74, 0
17, 149520, Note_on_c, 12, 76, 92
17, 149609, Note_on_c, 12, 76, 0
17, 149640, Note_on_c, 12, 77, 92
17, 149729, Note_on_c, 12, 77, 0
17, 149760, Note_on_c, 12, 76, 92
17, 149849, Note_on_c, 12, 76, 0
17, 149880, Note_on_c, 12, 77, 92
17, 149969, Note_on_c, 12, 77, 0
17, 150000, Note_on_c, 12, 79, 92
17, 150089, Note_on_c, 12, 79, 0
17, 150120, Note_on_c, 12, 77, 92
17, 150209, Note_on_c, 12, 77, 0
17, 150240, Note_on_c, 12, 76, 92
17, 150329, Note_on_c, 12, 76, 0
17, 150360, Note_on_c, 12, 74, 92
17, 150449, Note_on_c, 12, 74, 0
17, 150480, Note_on_c, 12, 70, 92
17, 150569, Note_on_c, 12, 70, 0
17, 150600, Note_on_c, 12, 69, 92
17, 150689, Note_on_c, 12, 69, 0
17, 150720, Note_on_c, 12, 67, 92
17, 150809, Note_on_c, 12, 67, 0
17, 150840, Note_on_c, 12, 65, 92
17, 150929, Note_on_c, 12, 65, 0
17, 150960, Note_on_c, 12, 76, 92
17, 151049, Note_on_c, 12, 76, 0
17, 151080, Note_on_c, 12, 74, 92
17, 151169, Note_on_c, 12, 74, 0
17, 151200, Note_on_c, 12, 73, 92
17, 151289, Note_on_c, 12, 73, 0
17, 151320, Note_on_c, 12, 74, 92
17, 151409, Note_on_c, 12, 74, 0
17, 151440, Note_on_c, 12, 76, 92
17, 151529, Note_on_c, 12, 76, 0
17, 151560, Note_on_c, 12, 74, 92
17, 151649, Note_on_c, 12, 74, 0
17, 151680, Note_on_c, 12, 73, 92
17, 151769, Note_on_c, 12, 73, 0
17, 151800, Note_on_c, 12, 74, 92
17, 151889, Note_on_c, 12, 74, 0
17, 151920, Note_on_c, 12, 70, 92
17, 152009, Note_on_c, 12, 70, 0
17, 152040, Note_on_c, 12, 69, 92
17, 152129, Note_on_c, 12, 69, 0
17, 152160, Note_on_c, 12, 67, 92
17, 152249, Note_on_c, 12, 67, 0
17, 152280, Note_on_c, 12, 65, 92
17, 152369, Note_on_c, 12, 65, 0
17, 152400, Note_on_c, 12, 76, 92
17, 152489, Note_on_c, 12, 76, 0
17, 152520, Note_on_c, 12, 74, 92
17, 152609, Note_on_c, 12, 74, 0
17, 152640, Note_on_c, 12, 73, 92
17, 152729, Note_on_c, 12, 73, 0
17, 152760, Note_on_c, 12, 74, 92
17, 152849, Note_on_c, 12, 74, 0
17, 152880, Note_on_c, 12, 76, 92
17, 152969, Note_on_c, 12, 76, 0
17, 153000, Note_on_c, 12, 74, 92
17, 153089, Note_on_c, 12, 74, 0
17, 153120, Note_on_c, 12, 73, 92
17, 153209, Note_on_c, 12, 73, 0
17, 153240, Note_on_c, 12, 74, 92
17, 153329, Note_on_c, 12, 74, 0
17, 153360, Note_on_c, 12, 72, 92
17, 153449, Note_on_c, 12, 72, 0
17, 153480, Note_on_c, 12, 74, 92
17, 153569, Note_on_c, 12, 74, 0
17, 153600, Note_on_c, 12, 75, 92
17, 153689, Note_on_c, 12, 75, 0
17, 153720, Note_on_c, 12, 67, 92
17, 153809, Note_on_c, 12, 67, 0
17, 153840, Note_on_c, 12, 69, 92
17, 153929, Note_on_c, 12, 69, 0
17, 153960, Note_on_c, 12, 70, 92
17, 154049, Note_on_c, 12, 70, 0
17, 154080, Note_on_c, 12, 69, 92
17, 154169, Note_on_c, 12, 69, 0
17, 154200, Note_on_c, 12, 70, 92
17, 154289, Note_on_c, 12, 70, 0
17, 154320, Note_on_c, 12, 72, 92
17, 154409, Note_on_c, 12, 72, 0
17, 154440, Note_on_c, 12, 70, 92
17, 154529, Note_on_c, 12, 70, 0
17, 154560, Note_on_c, 12, 69, 92
17, 154649, Note_on_c, 12, 69, 0
17, 154680, Note_on_c, 12, 67, 92
17, 154769, Note_on_c, 12, 67, 0
17, 154800, Note_on_c, 12, 75, 80
17, 154889, Note_on_c, 12, 75, 0
17, 154920, Note_on_c, 12, 74, 80
17, 155009, Note_on_c, 12, 74, 0
17, 155040, Note_on_c, 12, 72, 80
17, 155129, Note_on_c, 12, 72, 0
17, 155160, Note_on_c, 12, 70, 80
17, 155249, Note_on_c, 12, 70, 0
17, 155280, Note_on_c, 12, 69, 80
17, 155369, Note_on_c, 12, 69, 0
17, 155400, Note_on_c, 12, 67, 80
17, 155489, Note_on_c, 12, 67, 0
17, 155520, Note_on_c, 12, 77, 80
17, 155609, Note_on_c, 12, 77, 0
17, 155640, Note_on_c, 12, 75, 80
17, 155729, Note_on_c, 12, 75, 0
17, 155760, Note_on_c, 12, 74, 80
17, 155849, Note_on_c, 12, 74, 0
17, 155880, Note_on_c, 12, 72, 80
17, 155969, Note_on_c, 12, 72, 0
17, 156000, Note_on_c, 12, 70, 80
17, 156089, Note_on_c, 12, 70, 0
17, 156120, Note_on_c, 12, 69, 80
17, 156209, Note_on_c, 12, 69, 0
17, 156240, Note_on_c, 12, 79, 80
17, 156329, Note_on_c, 12, 79, 0
17, 156360, Note_on_c, 12, 77, 80
17, 156449, Note_on_c, 12, 77, 0
17, 156480, Note_on_c, 12, 75, 80
17, 156569, Note_on_c, 12, 75, 0
17, 156600, Note_on_c, 12, 74, 80
17, 156689, Note_on_c, 12, 74, 0
17, 156720, Note_on_c, 12, 72, 80
17, 156809, Note_on_c, 12, 72, 0
17, 156840, Note_on_c, 12, 70, 80
17, 156929, Note_on_c, 12, 70, 0
17, 156960, Note_on_c, 12, 69, 80
17, 157049, Note_on_c, 12, 69, 0
17, 157080, Note_on_c, 12, 67, 80
17, 157169, Note_on_c, 12, 67, 0
17, 157200, Note_on_c, 12, 65, 80
17, 157289, Note_on_c, 12, 65, 0
17, 157320, Note_on_c, 12, 63, 80
17, 157409, Note_on_c, 12, 63, 0
17, 157440, Note_on_c, 12, 62, 80
17, 157529, Note_on_c, 12, 62, 0
17, 157560, Note_on_c, 12, 60, 80
17, 157649, Note_on_c, 12, 60, 0
17, 157680, Note_on_c, 12, 58, 80
17, 157769, Note_on_c, 12, 58, 0
17, 158040, Note_on_c, 12, 77, 44
17, 158204, Note_on_c, 12, 77, 0
17, 158220, Note_on_c, 12, 65, 44
17, 158264, Note_on_c, 12, 65, 0
17, 158280, Note_on_c, 12, 65, 44
17, 158384, Note_on_c, 12, 65, 0
17, 158400, Note_on_c, 12, 77, 44
17, 158564, Note_on_c, 12, 77, 0
17, 158580, Note_on_c, 12, 65, 48
17, 158624, Note_on_c, 12, 65, 0
17, 158640, Note_on_c, 12, 65, 49
17, 158744, Note_on_c, 12, 65, 0
17, 158760, Note_on_c, 12, 75, 52
17, 158924, Note_on_c, 12, 75, 0
17, 158940, Note_on_c, 12, 63, 56
17, 158984, Note_on_c, 12, 63, 0
17, 159000, Note_on_c, 12, 63, 57
17, 159104, Note_on_c, 12, 63, 0
17, 159120, Note_on_c, 12, 75, 60
17, 159284, Note_on_c, 12, 75, 0
17, 159300, Note_on_c, 12, 63, 64
17, 159344, Note_on_c, 12, 63, 0
17, 159360, Note_on_c, 12, 63, 65
17, 159464, Note_on_c, 12, 63, 0
17, 159480, Note_on_c, 12, 77, 68
17, 159644, Note_on_c, 12, 77, 0
17, 159660, Note_on_c, 12, 65, 64
17, 159704, Note_on_c, 12, 65, 0
17, 159720, Note_on_c, 12, 65, 63
17, 159824, Note_on_c, 12, 65, 0
17, 159840, Note_on_c, 12, 77, 60
17, 160004, Note_on_c, 12, 77, 0
17, 160020, Note_on_c, 12, 65, 56
17, 160064, Note_on_c, 12, 65, 0
17, 160080, Note_on_c, 12, 65, 55
17, 160184, Note_on_c, 12, 65, 0
17, 160200, Note_on_c, 12, 77, 52
17, 160364, Note_on_c, 12, 77, 0
17, 160380, Note_on_c, 12, 65, 48
17, 160424, Note_on_c, 12, 65, 0
17, 160440, Note_on_c, 12, 65, 47
17, 160544, Note_on_c, 12, 65, 0
17, 161640, Note_on_c, 12, 81, 44
17, 161804, Note_on_c, 12, 81, 0
17, 161820, Note_on_c, 12, 69, 47
17, 161864, Note_on_c, 12, 69, 0
17, 161880, Note_on_c, 12, 69, 48
17, 161984, Note_on_c, 12, 69, 0
17, 162000, Note_on_c, 12, 81, 50
17, 162164, Note_on_c, 12, 81, 0
17, 162180, Note_on_c, 12, 69, 53
17, 162224, Note_on_c, 12, 69, 0
17, 162240, Note_on_c, 12, 69, 54
17, 162344, Note_on_c, 12, 69, 0
17, 162360, Note_on_c, 12, 79, 56
17, 162524, Note_on_c, 12, 79, 0
17, 162540, Note_on_c, 12, 67, 59
17, 162584, Note_on_c, 12, 67, 0
17, 162600, Note_on_c, 12, 67, 60
17, 162704, Note_on_c, 12, 67, 0
17, 162720, Note_on_c, 12, 79, 62
17, 162884, Note_on_c, 12, 79, 0
17, 162900, Note_on_c, 12, 67, 65
17, 162944, Note_on_c, 12, 67, 0
17, 162960, Note_on_c, 12, 67, 66
17, 163064, Note_on_c, 12, 67, 0
17, 163080, Note_on_c, 12, 78, 68
17, 163244, Note_on_c, 12, 78, 0
17, 163260, Note_on_c, 12, 66, 64
17, 163304, Note_on_c, 12, 66, 0
17, 163320, Note_on_c, 12, 66, 63
17, 163424, Note_on_c, 12, 66, 0
17, 163440, Note_on_c, 12, 77, 60
17, 163604, Note_on_c, 12, 77, 0
17, 163620, Note_on_c, 12, 65, 56
17, 163664, Note_on_c, 12, 65, 0
17, 163680, Note_on_c, 12, 65, 55
17, 163784, Note_on_c, 12, 65, 0
17, 163800, Note_on_c, 12, 76, 52
17, 163964, Note_on_c, 12, 76, 0
17, 163980, Note_on_c, 12, 64, 48
17, 164024, Note_on_c, 12, 64, 0
17, 164040, Note_on_c, 12, 64, 47
17, 164144, Note_on_c, 12, 64, 0
17, 164880, Note_on_c, 12, 70, 50
17, 165044, Note_on_c, 12, 70, 0
17, 165060, Note_on_c, 12, 58, 53
17, 165104, Note_on_c, 12, 58, 0
17, 165120, Note_on_c, 12, 58, 54
17, 165224, Note_on_c, 12, 58, 0
17, 165240, Note_on_c, 12, 70, 56
17, 165404, Note_on_c, 12, 70, 0
17, 165420, Note_on_c, 12, 58, 59
17, 165464, Note_on_c, 12, 58, 0
17, 165480, Note_on_c, 12, 58, 60
17, 165584, Note_on_c, 12, 58, 0
17, 165600, Note_on_c, 12, 69, 62
17, 165764, Note_on_c, 12, 69, 0
17, 165780, Note_on_c, 12, 57, 65
17, 165824, Note_on_c, 12, 57, 0
17, 165840, Note_on_c, 12, 57, 66
17, 165944, Note_on_c, 12, 57, 0
17, 165960, Note_on_c, 12, 69, 68
17, 166124, Note_on_c, 12, 69, 0
17, 166140, Note_on_c, 12, 57, 64
17, 166184, Note_on_c, 12, 57, 0
17, 166200, Note_on_c, 12, 57, 63
17, 166304, Note_on_c, 12, 57, 0
17, 166320, Note_on_c, 12, 68, 60
17, 166484, Note_on_c, 12, 68, 0
17, 166500, Note_on_c, 12, 56, 56
17, 166544, Note_on_c, 12, 56, 0
17, 166560, Note_on_c, 12, 56, 55
17, 166664, Note_on_c, 12, 56, 0
17, 166680, Note_on_c, 12, 69, 52
17, 166844, Note_on_c, 12, 69, 0
17, 166860, Note_on_c, 12, 57, 48
17, 166904, Note_on_c, 12, 57, 0
17, 166920, Note_on_c, 12, 57, 47
17, 167024, Note_on_c, 12, 57, 0
17, 167040, Program_c, 12, 45
17, 167280, Note_on_c, 12, 57, 40
17, 167399, Note_on_c, 12, 57, 0
17, 167640, Note_on_c, 12, 69, 46
17, 167759, Note_on_c, 12, 69, 0
17, 168000, Note_on_c, 12, 75, 52
17, 168119, Note_on_c, 12, 75, 0
17, 168360, Note_on_c, 12, 76, 58
17, 168479, Note_on_c, 12, 76, 0
17, 168720, Note_on_c, 12, 69, 64
17, 168839, Note_on_c, 12, 69, 0
17, 169080, Note_on_c, 12, 69, 70
17, 169199, Note_on_c, 12, 69, 0
17, 169440, Note_on_c, 12, 74, 76
17, 169559, Note_on_c, 12, 74, 0
17, 169800, Note_on_c, 12, 69, 82
17, 169904, Note_on_c, 12, 69, 0
17, 169918, Program_c, 12, 48
17, 169920, Note_on_c, 12, 74, 92
17, 170084, Note_on_c, 12, 74, 0
17, 170100, Note_on_c, 12, 62, 92
17, 170144, Note_on_c, 12, 62, 0
17, 170160, Note_on_c, 12, 62, 92
17, 170264, Note_on_c, 12, 62, 0
17, 170280, Note_on_c, 12, 74, 92
17, 170444, Note_on_c, 12, 74, 0
17, 170460, Note_on_c, 12, 62, 92
17, 170504, Note_on_c, 12, 62, 0
17, 170520, Note_on_c, 12, 62, 92
17, 170624, Note_on_c, 12, 62, 0
17, 170640, Note_on_c, 12, 74, 92
17, 170804, Note_on_c, 12, 74, 0
17, 170820, Note_on_c, 12, 62, 92
17, 170864, Note_on_c, 12, 62, 0
17, 170880, Note_on_c, 12, 62, 92
17, 170984, Note_on_c, 12, 62, 0
17, 171000, Note_on_c, 12, 74, 92
17, 171164, Note_on_c, 12, 74, 0
17, 171180, Note_on_c, 12, 62, 92
17, 171224, Note_on_c, 12, 62, 0
17, 171240, Note_on_c, 12, 62, 92
17, 171344, Note_on_c, 12, 62, 0
17, 171360, Note_on_c, 12, 74, 92
17, 171524, Note_on_c, 12, 74, 0
17, 171540, Note_on_c, 12, 62, 92
17, 171584, Note_on_c, 12, 62, 0
17, 171600, Note_on_c, 12, 62, 92
17, 171704, Note_on_c, 12, 62, 0
17, 171720, Note_on_c, 12, 74, 92
17, 171884, Note_on_c, 12, 74, 0
17, 171900, Note_on_c, 12, 62, 92
17, 171944, Note_on_c, 12, 62, 0
17, 171960, Note_on_c, 12, 62, 92
17, 172064, Note_on_c, 12, 62, 0
17, 172080, Note_on_c, 12, 74, 92
17, 172244, Note_on_c, 12, 74, 0
17, 172260, Note_on_c, 12, 62, 92
17, 172304, Note_on_c, 12, 62, 0
17, 172320, Note_on_c, 12, 62, 92
17, 172424, Note_on_c, 12, 62, 0
17, 172440, Note_on_c, 12, 74, 92
17, 172604, Note_on_c, 12, 74, 0
17, 172620, Note_on_c, 12, 62, 92
17, 172664, Note_on_c, 12, 62, 0
17, 172680, Note_on_c, 12, 62, 92
17, 172784, Note_on_c, 12, 62, 0
17, 172800, Note_on_c, 12, 74, 92
17, 172964, Note_on_c, 12, 74, 0
17, 172980, Note_on_c, 12, 62, 92
17, 173024, Note_on_c, 12, 62, 0
17, 173040, Note_on_c, 12, 62, 92
17, 173144, Note_on_c, 12, 62, 0
17, 173160, Note_on_c, 12, 74, 92
17, 173324, Note_on_c, 12, 74, 0
17, 173340, Note_on_c, 12, 62, 92
17, 173384, Note_on_c, 12, 62, 0
17, 173400, Note_on_c, 12, 62, 92
17, 173504, Note_on_c, 12, 62, 0
17, 173520, Note_on_c, 12, 74, 92
17, 173684, Note_on_c, 12, 74, 0
17, 173700, Note_on_c, 12, 62, 92
17, 173744, Note_on_c, 12, 62, 0
17, 173760, Note_on_c, 12, 62, 92
17, 173864, Note_on_c, 12, 62, 0
17, 173880, Note_on_c, 12, 74, 92
17, 174044, Note_on_c, 12, 74, 0
17, 174060, Note_on_c, 12, 62, 92
17, 174104, Note_on_c, 12, 62, 0
17, 174120, Note_on_c, 12, 62, 92
17, 174224, Note_on_c, 12, 62, 0
17, 174240, Note_on_c, 12, 74, 92
17, 174404, Note_on_c, 12, 74, 0
17, 174420, Note_on_c, 12, 62, 92
17, 174464, Note_on_c, 12, 62, 0
17, 174480, Note_on_c, 12, 62, 92
17, 174584, Note_on_c, 12, 62, 0
17, 174600, Note_on_c, 12, 74, 92
17, 174764, Note_on_c, 12, 74, 0
17, 174780, Note_on_c, 12, 62, 92
17, 174824, Note_on_c, 12, 62, 0
17, 174840, Note_on_c, 12, 62, 92
17, 174944, Note_on_c, 12, 62, 0
17, 174960, Note_on_c, 12, 74, 92
17, 175124, Note_on_c, 12, 74, 0
17, 175140, Note_on_c, 12, 62, 92
17, 175184, Note_on_c, 12, 62, 0
17, 175200, Note_on_c, 12, 62, 92
17, 175304, Note_on_c, 12, 62, 0
17, 175320, Note_on_c, 12, 74, 92
17, 175484, Note_on_c, 12, 74, 0
17, 175500, Note_on_c, 12, 62, 92
17, 175544, Note_on_c, 12, 62, 0
17, 175560, Note_on_c, 12, 62, 92
17, 175664, Note_on_c, 12, 62, 0
17, 175680, Note_on_c, 12, 62, 92
17, 175680, Note_on_c, 12, 74, 92
17, 175799, Note_on_c, 12, 62, 0
17, 175799, Note_on_c, 12, 74, 0
17, 176400, Note_on_c, 12, 70, 92
17, 176564, Note_on_c, 12, 70, 0
17, 176580, Note_on_c, 12, 58, 92
17, 176624, Note_on_c, 12, 58, 0
17, 176640, Note_on_c, 12, 58, 92
17, 176744, Note_on_c, 12, 58, 0
17, 176760, Note_on_c, 12, 70, 92
17, 176864, Note_on_c, 12, 70, 0
17, 176880, Note_on_c, 12, 67, 92
17, 176984, Note_on_c, 12, 67, 0
17, 177000, Note_on_c, 12, 65, 92
17, 177104, Note_on_c, 12, 65, 0
17, 177120, Note_on_c, 12, 64, 92
17, 177239, Note_on_c, 12, 64, 0
17, 177840, Note_on_c, 12, 81, 92
17, 178004, Note_on_c, 12, 81, 0
17, 178020, Note_on_c, 12, 69, 92
17, 178064, Note_on_c, 12, 69, 0
17, 178080, Note_on_c, 12, 69, 92
17, 178184, Note_on_c, 12, 69, 0
17, 178200, Note_on_c, 12, 81, 92
17, 178304, Note_on_c, 12, 81, 0
17, 178320, Note_on_c, 12, 77, 92
17, 178424, Note_on_c, 12, 77, 0
17, 178440, Note_on_c, 12, 76, 92
17, 178544, Note_on_c, 12, 76, 0
17, 178558, Control_c, 12, 11, 87
17, 178560, Note_on_c, 12, 62, 68
17, 178679, Note_on_c, 12, 62, 0
17, 178680, Note_on_c, 12, 64, 68
17, 178799, Note_on_c, 12, 64, 0
17, 178800, Note_on_c, 12, 66, 68
17, 178919, Note_on_c, 12, 66, 0
17, 178920, Note_on_c, 12, 67, 68
17, 179280, Control_c, 12, 11, 87
17, 179315, Control_c, 12, 11, 89
17, 179350, Control_c, 12, 11, 90
17, 179385, Control_c, 12, 11, 92
17, 179399, Note_on_c, 12, 67, 0
17, 179400, Note_on_c, 12, 65, 68
17, 179420, Control_c, 12, 11, 94
17, 179455, Control_c, 12, 11, 95
17, 179490, Control_c, 12, 11, 97
17, 179519, Note_on_c, 12, 65, 0
17, 179520, Note_on_c, 12, 63, 68
17, 179525, Control_c, 12, 11, 99
17, 179560, Control_c, 12, 11, 100
17, 179595, Control_c, 12, 11, 102
17, 179624, Note_on_c, 12, 63, 0
17, 179630, Control_c, 12, 11, 104
17, 179640, Note_on_c, 12, 75, 68
17, 179665, Control_c, 12, 11, 105
17, 179700, Control_c, 12, 11, 107
17, 179735, Control_c, 12, 11, 109
17, 179759, Note_on_c, 12, 75, 0
17, 179760, Note_on_c, 12, 77, 68
17, 179770, Control_c, 12, 11, 110
17, 179805, Control_c, 12, 11, 112
17, 179840, Control_c, 12, 11, 114
17, 179875, Control_c, 12, 11, 115
17, 179879, Note_on_c, 12, 77, 0
17, 179880, Note_on_c, 12, 79, 68
17, 179910, Control_c, 12, 11, 117
17, 179945, Control_c, 12, 11, 119
17, 179980, Control_c, 12, 11, 120
17, 179984, Note_on_c, 12, 79, 0
17, 180000, Note_on_c, 12, 76, 68
17, 180015, Control_c, 12, 11, 122
17, 180050, Control_c, 12, 11, 124
17, 180085, Control_c, 12, 11, 125
17, 180119, Note_on_c, 12, 76, 0
17, 180120, Note_on_c, 12, 77, 68
17, 180239, Note_on_c, 12, 77, 0
17, 180240, Control_c, 12, 11, 127
17, 180240, Note_on_c, 12, 79, 68
17, 180267, Control_c, 12, 11, 125
17, 180293, Control_c, 12, 11, 123
17, 180320, Control_c, 12, 11, 120
17, 180344, Note_on_c, 12, 79, 0
17, 180347, Control_c, 12, 11, 118
17, 180360, Note_on_c, 12, 76, 68
17, 180373, Control_c, 12, 11, 116
17, 180400, Control_c, 12, 11, 114
17, 180427, Control_c, 12, 11, 111
17, 180453, Control_c, 12, 11, 109
17, 180479, Note_on_c, 12, 76, 0
17, 180480, Control_c, 12, 11, 107
17, 180480, Note_on_c, 12, 74, 68
17, 180507, Control_c, 12, 11, 105
17, 180533, Control_c, 12, 11, 103
17, 180560, Control_c, 12, 11, 100
17, 180587, Control_c, 12, 11, 98
17, 180599, Note_on_c, 12, 74, 0
17, 180600, Note_on_c, 12, 73, 68
17, 180613, Control_c, 12, 11, 96
17, 180640, Control_c, 12, 11, 94
17, 180667, Control_c, 12, 11, 91
17, 180693, Control_c, 12, 11, 89
17, 180719, Note_on_c, 12, 73, 0
17, 182520, Control_c, 12, 11, 127
17, 182880, Note_on_c, 12, 65, 80
17, 182969, Note_on_c, 12, 65, 0
17, 183000, Note_on_c, 12, 67, 80
17, 183089, Note_on_c, 12, 67, 0
17, 183120, Note_on_c, 12, 74, 80
17, 183209, Note_on_c, 12, 74, 0
17, 183240, Note_on_c, 12, 74, 80
17, 183240, Note_on_c, 12, 76, 80
17, 183329, Note_on_c, 12, 74, 0
17, 183329, Note_on_c, 12, 76, 0
17, 183360, Note_on_c, 12, 73, 80
17, 183360, Note_on_c, 12, 76, 80
17, 183449, Note_on_c, 12, 73, 0
17, 183449, Note_on_c, 12, 76, 0
17, 183480, Note_on_c, 12, 65, 80
17, 183480, Note_on_c, 12, 74, 80
17, 183569, Note_on_c, 12, 65, 0
17, 183569, Note_on_c, 12, 74, 0
17, 183600, Note_on_c, 12, 65, 80
17, 183600, Note_on_c, 12, 74, 80
17, 183689, Note_on_c, 12, 65, 0
17, 183689, Note_on_c, 12, 74, 0
17, 184320, Note_on_c, 12, 74, 80
17, 184409, Note_on_c, 12, 74, 0
17, 184440, Note_on_c, 12, 86, 80
17, 184529, Note_on_c, 12, 86, 0
17, 184560, Note_on_c, 12, 86, 80
17, 184649, Note_on_c, 12, 86, 0
17, 184680, Note_on_c, 12, 88, 80
17, 184769, Note_on_c, 12, 88, 0
17, 184800, Note_on_c, 12, 73, 80
17, 184889, Note_on_c, 12, 73, 0
17, 184920, Note_on_c, 12, 77, 80
17, 185009, Note_on_c, 12, 77, 0
17, 185040, Note_on_c, 12, 74, 80
17, 185204, Note_on_c, 12, 74, 0
17, 185220, Note_on_c, 12, 62, 80
17, 185264, Note_on_c, 12, 62, 0
17, 185280, Note_on_c, 12, 62, 80
17, 185384, Note_on_c, 12, 62, 0
17, 185400, Note_on_c, 12, 57, 80
17, 185519, Note_on_c, 12, 57, 0
17, 185760, Note_on_c, 12, 74, 80
17, 185924, Note_on_c, 12, 74, 0
17, 185940, Note_on_c, 12, 62, 80
17, 185984, Note_on_c, 12, 62, 0
17, 186000, Note_on_c, 12, 62, 80
17, 186104, Note_on_c, 12, 62, 0
17, 186120, Note_on_c, 12, 57, 80
17, 186239, Note_on_c, 12, 57, 0
17, 186840, Note_on_c, 12, 64, 32
17, 186959, Note_on_c, 12, 64, 0
17, 186960, Note_on_c, 12, 61, 32
17, 187079, Note_on_c, 12, 61, 0
17, 187080, Note_on_c, 12, 55, 32
17, 187199, Note_on_c, 12, 55, 0
17, 187200, Note_on_c, 12, 61, 32
17, 187319, Note_on_c, 12, 61, 0
17, 187320, Note_on_c, 12, 64, 32
17, 187439, Note_on_c, 12, 64, 0
17, 187440, Note_on_c, 12, 67, 32
17, 187559, Note_on_c, 12, 67, 0
17, 187560, Note_on_c, 12, 64, 32
17, 187679, Note_on_c, 12, 64, 0
17, 187680, Note_on_c, 12, 67, 32
17, 187799, Note_on_c, 12, 67, 0
17, 187800, Note_on_c, 12, 73, 32
17, 187904, Note_on_c, 12, 73, 0
17, 187920, Note_on_c, 12, 69, 32
17, 188084, Note_on_c, 12, 69, 0
17, 188100, Note_on_c, 12, 57, 32
17, 188144, Note_on_c, 12, 57, 0
17, 188160, Note_on_c, 12, 57, 32
17, 188264, Note_on_c, 12, 57, 0
17, 188280, Note_on_c, 12, 57, 32
17, 188399, Note_on_c, 12, 57, 0
17, 188640, Note_on_c, 12, 69, 32
17, 188804, Note_on_c, 12, 69, 0
17, 188820, Note_on_c, 12, 57, 32
17, 188864, Note_on_c, 12, 57, 0
17, 188880, Note_on_c, 12, 57, 32
17, 188984, Note_on_c, 12, 57, 0
17, 189000, Note_on_c, 12, 57, 32
17, 189119, Note_on_c, 12, 57, 0
17, 190800, Note_on_c, 12, 69, 32
17, 190964, Note_on_c, 12, 69, 0
17, 190980, Note_on_c, 12, 57, 32
17, 191024, Note_on_c, 12, 57, 0
17, 191040, Note_on_c, 12, 57, 32
17, 191144, Note_on_c, 12, 57, 0
17, 191160, Note_on_c, 12, 58, 32
17, 191279, Note_on_c, 12, 58, 0
17, 191520, Note_on_c, 12, 58, 32
17, 191684, Note_on_c, 12, 58, 0
17, 191700, Note_on_c, 12, 58, 32
17, 191744, Note_on_c, 12, 58, 0
17, 191760, Note_on_c, 12, 58, 32
17, 191864, Note_on_c, 12, 58, 0
17, 191880, Note_on_c, 12, 58, 32
17, 191999, Note_on_c, 12, 58, 0
17, 192240, Note_on_c, 12, 58, 32
17, 192404, Note_on_c, 12, 58, 0
17, 192420, Note_on_c, 12, 58, 32
17, 192464, Note_on_c, 12, 58, 0
17, 192480, Note_on_c, 12, 58, 32
17, 192584, Note_on_c, 12, 58, 0
17, 192600, Note_on_c, 12, 58, 32
17, 192719, Note_on_c, 12, 58, 0
17, 192960, Note_on_c, 12, 58, 32
17, 193124, Note_on_c, 12, 58, 0
17, 193140, Note_on_c, 12, 70, 32
17, 193184, Note_on_c, 12, 70, 0
17, 193200, Note_on_c, 12, 70, 32
17, 193304, Note_on_c, 12, 70, 0
17, 193320, Note_on_c, 12, 70, 32
17, 193439, Note_on_c, 12, 70, 0
17, 195120, Note_on_c, 12, 58, 32
17, 195284, Note_on_c, 12, 58, 0
17, 195300, Note_on_c, 12, 70, 34
17, 195344, Note_on_c, 12, 70, 0
17, 195360, Note_on_c, 12, 70, 34
17, 195464, Note_on_c, 12, 70, 0
17, 195480, Note_on_c, 12, 72, 36
17, 195599, Note_on_c, 12, 72, 0
17, 195840, Note_on_c, 12, 60, 40
17, 196004, Note_on_c, 12, 60, 0
17, 196020, Note_on_c, 12, 72, 42
17, 196064, Note_on_c, 12, 72, 0
17, 196080, Note_on_c, 12, 72, 42
17, 196184, Note_on_c, 12, 72, 0
17, 196200, Note_on_c, 12, 68, 44
17, 196319, Note_on_c, 12, 68, 0
17, 196560, Note_on_c, 12, 68, 48
17, 196724, Note_on_c, 12, 68, 0
17, 196740, Note_on_c, 12, 65, 50
17, 196784, Note_on_c, 12, 65, 0
17, 196800, Note_on_c, 12, 65, 50
17, 196904, Note_on_c, 12, 65, 0
17, 196920, Note_on_c, 12, 70, 52
17, 197039, Note_on_c, 12, 70, 0
17, 197280, Note_on_c, 12, 61, 56
17, 197444, Note_on_c, 12, 61, 0
17, 197460, Note_on_c, 12, 70, 58
17, 197504, Note_on_c, 12, 70, 0
17, 197520, Note_on_c, 12, 70, 58
17, 197624, Note_on_c, 12, 70, 0
17, 197640, Note_on_c, 12, 70, 60
17, 197759, Note_on_c, 12, 70, 0
17, 198000, Note_on_c, 12, 75, 64
17, 198164, Note_on_c, 12, 75, 0
17, 198180, Note_on_c, 12, 63, 66
17, 198224, Note_on_c, 12, 63, 0
17, 198240, Note_on_c, 12, 63, 66
17, 198344, Note_on_c, 12, 63, 0
17, 198360, Note_on_c, 12, 63, 68
17, 198479, Note_on_c, 12, 63, 0
17, 198720, Note_on_c, 12, 64, 72
17, 198884, Note_on_c, 12, 64, 0
17, 198900, Note_on_c, 12, 71, 74
17, 198944, Note_on_c, 12, 71, 0
17, 198960, Note_on_c, 12, 71, 74
17, 199064, Note_on_c, 12, 71, 0
17, 199080, Note_on_c, 12, 73, 76
17, 199199, Note_on_c, 12, 73, 0
17, 199440, Note_on_c, 12, 57, 80
17, 199604, Note_on_c, 12, 57, 0
17, 199620, Note_on_c, 12, 69, 80
17, 199664, Note_on_c, 12, 69, 0
17, 199680, Note_on_c, 12, 69, 80
17, 199784, Note_on_c, 12, 69, 0
17, 200160, Note_on_c, 12, 58, 92
17, 200324, Note_on_c, 12, 58, 0
17, 200340, Note_on_c, 12, 70, 92
17, 200384, Note_on_c, 12, 70, 0
17, 200400, Note_on_c, 12, 70, 92
17, 200504, Note_on_c, 12, 70, 0
17, 200880, Note_on_c, 12, 59, 92
17, 201044, Note_on_c, 12, 59, 0
17, 201060, Note_on_c, 12, 71, 92
17, 201104, Note_on_c, 12, 71, 0
17, 201120, Note_on_c, 12, 71, 92
17, 201224, Note_on_c, 12, 71, 0
17, 201960, Program_c, 12, 45
17, 202320, Note_on_c, 12, 64, 40
17, 202439, Note_on_c, 12, 64, 0
17, 202680, Note_on_c, 12, 59, 40
17, 202799, Note_on_c, 12, 59, 0
17, 203400, Note_on_c, 12, 64, 40
17, 203519, Note_on_c, 12, 64, 0
17, 203760, Note_on_c, 12, 59, 40
17, 203879, Note_on_c, 12, 59, 0
17, 204480, Note_on_c, 12, 64, 40
17, 204599, Note_on_c, 12, 64, 0
17, 204840, Note_on_c, 12, 59, 40
17, 204959, Note_on_c, 12, 59, 0
17, 205560, Note_on_c, 12, 76, 40
17, 205679, Note_on_c, 12, 76, 0
17, 205920, Note_on_c, 12, 64, 40
17, 206039, Note_on_c, 12, 64, 0
17, 206640, Note_on_c, 12, 64, 40
17, 206759, Note_on_c, 12, 64, 0
17, 207000, Note_on_c, 12, 64, 40
17, 207119, Note_on_c, 12, 64, 0
17, 207720, Note_on_c, 12, 64, 40
17, 207839, Note_on_c, 12, 64, 0
17, 208080, Note_on_c, 12, 64, 40
17, 208199, Note_on_c, 12, 64, 0
17, 208800, Note_on_c, 12, 65, 40
17, 208919, Note_on_c, 12, 65, 0
17, 209160, Note_on_c, 12, 65, 40
17, 209279, Note_on_c, 12, 65, 0
17, 209880, Note_on_c, 12, 65, 40
17, 209999, Note_on_c, 12, 65, 0
17, 210240, Note_on_c, 12, 65, 40
17, 210359, Note_on_c, 12, 65, 0
17, 210960, Note_on_c, 12, 65, 40
17, 211079, Note_on_c, 12, 65, 0
17, 211320, Note_on_c, 12, 65, 40
17, 211439, Note_on_c, 12, 65, 0
17, 212040, Note_on_c, 12, 65, 40
17, 212159, Note_on_c, 12, 65, 0
17, 212400, Note_on_c, 12, 65, 40
17, 212519, Note_on_c, 12, 65, 0
17, 212760, Note_on_c, 12, 65, 40
17, 212879, Note_on_c, 12, 65, 0
17, 213120, Note_on_c, 12, 65, 40
17, 213239, Note_on_c, 12, 65, 0
17, 213480, Note_on_c, 12, 65, 40
17, 213599, Note_on_c, 12, 65, 0
17, 213720, Program_c, 12, 48
17, 213840, Note_on_c, 12, 67, 44
17, 213944, Note_on_c, 12, 67, 0
17, 213960, Note_on_c, 12, 69, 44
17, 214064, Note_on_c, 12, 69, 0
17, 214080, Note_on_c, 12, 70, 44
17, 214184, Note_on_c, 12, 70, 0
17, 214200, Note_on_c, 12, 70, 43
17, 214304, Note_on_c, 12, 70, 0
17, 214320, Note_on_c, 12, 69, 43
17, 214424, Note_on_c, 12, 69, 0
17, 214440, Note_on_c, 12, 67, 43
17, 214544, Note_on_c, 12, 67, 0
17, 214560, Note_on_c, 12, 67, 42
17, 214664, Note_on_c, 12, 67, 0
17, 214680, Note_on_c, 12, 69, 42
17, 214784, Note_on_c, 12, 69, 0
17, 214800, Note_on_c, 12, 67, 42
17, 214904, Note_on_c, 12, 67, 0
17, 214918, Program_c, 12, 45
17, 214920, Note_on_c, 12, 62, 33
17, 215039, Note_on_c, 12, 62, 0
17, 215280, Note_on_c, 12, 62, 32
17, 215399, Note_on_c, 12, 62, 0
17, 215640, Note_on_c, 12, 62, 31
17, 215759, Note_on_c, 12, 62, 0
17, 215880, Program_c, 12, 48
17, 216000, Note_on_c, 12, 64, 38
17, 216104, Note_on_c, 12, 64, 0
17, 216120, Note_on_c, 12, 65, 38
17, 216224, Note_on_c, 12, 65, 0
17, 216240, Note_on_c, 12, 67, 38
17, 216344, Note_on_c, 12, 67, 0
17, 216360, Note_on_c, 12, 67, 37
17, 216464, Note_on_c, 12, 67, 0
17, 216480, Note_on_c, 12, 65, 37
17, 216584, Note_on_c, 12, 65, 0
17, 216600, Note_on_c, 12, 64, 37
17, 216704, Note_on_c, 12, 64, 0
17, 216720, Note_on_c, 12, 64, 36
17, 216824, Note_on_c, 12, 64, 0
17, 216840, Note_on_c, 12, 65, 36
17, 216944, Note_on_c, 12, 65, 0
17, 216960, Note_on_c, 12, 64, 36
17, 217064, Note_on_c, 12, 64, 0
17, 217078, Program_c, 12, 45
17, 217440, Note_on_c, 12, 57, 30
17, 217559, Note_on_c, 12, 57, 0
17, 217800, Note_on_c, 12, 69, 29
17, 217919, Note_on_c, 12, 69, 0
17, 218040, Program_c, 12, 48
17, 218160, Note_on_c, 12, 64, 32
17, 218264, Note_on_c, 12, 64, 0
17, 218280, Note_on_c, 12, 65, 32
17, 218384, Note_on_c, 12, 65, 0
17, 218400, Note_on_c, 12, 67, 32
17, 218504, Note_on_c, 12, 67, 0
17, 218520, Note_on_c, 12, 67, 32
17, 218624, Note_on_c, 12, 67, 0
17, 218640, Note_on_c, 12, 65, 32
17, 218744, Note_on_c, 12, 65, 0
17, 218760, Note_on_c, 12, 64, 32
17, 218864, Note_on_c, 12, 64, 0
17, 218880, Note_on_c, 12, 64, 32
17, 218984, Note_on_c, 12, 64, 0
17, 219000, Note_on_c, 12, 65, 32
17, 219104, Note_on_c, 12, 65, 0
17, 219120, Note_on_c, 12, 64, 32
17, 219224, Note_on_c, 12, 64, 0
17, 219240, Note_on_c, 12, 64, 32
17, 219344, Note_on_c, 12, 64, 0
17, 219360, Note_on_c, 12, 65, 32
17, 219464, Note_on_c, 12, 65, 0
17, 219480, Note_on_c, 12, 67, 32
17, 219584, Note_on_c, 12, 67, 0
17, 219600, Note_on_c, 12, 69, 32
17, 219719, Note_on_c, 12, 69, 0
17, 219840, Program_c, 12, 45
17, 219960, Note_on_c, 12, 57, 28
17, 220079, Note_on_c, 12, 57, 0
17, 220680, Note_on_c, 12, 62, 28
17, 220799, Note_on_c, 12, 62, 0
17, 221040, Note_on_c, 12, 57, 28
17, 221159, Note_on_c, 12, 57, 0
17, 221760, Note_on_c, 12, 62, 28
17, 221879, Note_on_c, 12, 62, 0
17, 222120, Note_on_c, 12, 57, 28
17, 222239, Note_on_c, 12, 57, 0
17, 223560, Program_c, 12, 48
17, 223920, Note_on_c, 12, 79, 32
17, 224084, Note_on_c, 12, 79, 0
17, 224100, Note_on_c, 12, 67, 32
17, 224144, Note_on_c, 12, 67, 0
17, 224160, Note_on_c, 12, 67, 32
17, 224264, Note_on_c, 12, 67, 0
17, 224280, Note_on_c, 12, 72, 32
17, 224384, Note_on_c, 12, 72, 0
17, 224400, Note_on_c, 12, 74, 32
17, 224504, Note_on_c, 12, 74, 0
17, 224520, Note_on_c, 12, 75, 32
17, 224624, Note_on_c, 12, 75, 0
17, 224640, Note_on_c, 12, 74, 32
17, 224744, Note_on_c, 12, 74, 0
17, 224760, Note_on_c, 12, 75, 32
17, 224864, Note_on_c, 12, 75, 0
17, 224880, Note_on_c, 12, 77, 32
17, 224984, Note_on_c, 12, 77, 0
17, 225000, Note_on_c, 12, 75, 32
17, 225104, Note_on_c, 12, 75, 0
17, 225120, Note_on_c, 12, 71, 32
17, 225224, Note_on_c, 12, 71, 0
17, 225240, Note_on_c, 12, 72, 32
17, 225344, Note_on_c, 12, 72, 0
17, 225360, Note_on_c, 12, 70, 32
17, 225464, Note_on_c, 12, 70, 0
17, 225480, Note_on_c, 12, 70, 32
17, 225584, Note_on_c, 12, 70, 0
17, 225600, Note_on_c, 12, 70, 32
17, 225704, Note_on_c, 12, 70, 0
17, 225720, Note_on_c, 12, 70, 32
17, 225824, Note_on_c, 12, 70, 0
17, 225840, Note_on_c, 12, 70, 32
17, 225944, Note_on_c, 12, 70, 0
17, 225960, Note_on_c, 12, 70, 32
17, 226064, Note_on_c, 12, 70, 0
17, 226080, Note_on_c, 12, 68, 32
17, 226184, Note_on_c, 12, 68, 0
17, 226200, Note_on_c, 12, 67, 32
17, 226304, Note_on_c, 12, 67, 0
17, 226320, Note_on_c, 12, 65, 32
17, 226424, Note_on_c, 12, 65, 0
17, 226440, Note_on_c, 12, 70, 32
17, 226544, Note_on_c, 12, 70, 0
17, 226560, Note_on_c, 12, 70, 32
17, 226664, Note_on_c, 12, 70, 0
17, 226680, Note_on_c, 12, 70, 32
17, 226784, Note_on_c, 12, 70, 0
17, 226800, Note_on_c, 12, 70, 32
17, 226904, Note_on_c, 12, 70, 0
17, 226920, Note_on_c, 12, 75, 32
17, 227024, Note_on_c, 12, 75, 0
17, 227040, Note_on_c, 12, 77, 32
17, 227144, Note_on_c, 12, 77, 0
17, 227160, Note_on_c, 12, 79, 32
17, 227264, Note_on_c, 12, 79, 0
17, 227280, Note_on_c, 12, 77, 32
17, 227384, Note_on_c, 12, 77, 0
17, 227400, Note_on_c, 12, 75, 32
17, 227504, Note_on_c, 12, 75, 0
17, 227520, Note_on_c, 12, 74, 32
17, 228944, Note_on_c, 12, 74, 0
17, 228960, Note_on_c, 12, 70, 32
17, 229049, Note_on_c, 12, 70, 0
17, 229080, Note_on_c, 12, 68, 32
17, 229169, Note_on_c, 12, 68, 0
17, 229200, Note_on_c, 12, 67, 32
17, 229289, Note_on_c, 12, 67, 0
17, 229320, Note_on_c, 12, 79, 32
17, 229409, Note_on_c, 12, 79, 0
17, 229440, Note_on_c, 12, 77, 32
17, 229529, Note_on_c, 12, 77, 0
17, 229560, Note_on_c, 12, 75, 32
17, 229649, Note_on_c, 12, 75, 0
17, 229680, Note_on_c, 12, 82, 32
17, 229769, Note_on_c, 12, 82, 0
17, 229800, Note_on_c, 12, 80, 32
17, 229889, Note_on_c, 12, 80, 0
17, 229920, Note_on_c, 12, 79, 32
17, 230009, Note_on_c, 12, 79, 0
17, 230040, Note_on_c, 12, 79, 32
17, 230129, Note_on_c, 12, 79, 0
17, 230160, Note_on_c, 12, 77, 32
17, 230249, Note_on_c, 12, 77, 0
17, 230280, Note_on_c, 12, 75, 32
17, 230369, Note_on_c, 12, 75, 0
17, 230398, Control_c, 12, 11, 47
17, 230400, Note_on_c, 12, 65, 80
17, 230400, Control_c, 12, 11, 47
17, 230472, Control_c, 12, 11, 48
17, 230544, Control_c, 12, 11, 49
17, 230616, Control_c, 12, 11, 50
17, 230688, Control_c, 12, 11, 51
17, 230760, Control_c, 12, 11, 52
17, 230832, Control_c, 12, 11, 53
17, 230904, Control_c, 12, 11, 54
17, 230976, Control_c, 12, 11, 55
17, 231048, Control_c, 12, 11, 56
17, 231120, Control_c, 12, 11, 57
17, 231192, Control_c, 12, 11, 58
17, 231264, Control_c, 12, 11, 59
17, 231336, Control_c, 12, 11, 60
17, 231408, Control_c, 12, 11, 61
17, 231480, Control_c, 12, 11, 62
17, 231552, Control_c, 12, 11, 63
17, 231624, Control_c, 12, 11, 64
17, 231696, Control_c, 12, 11, 65
17, 231768, Control_c, 12, 11, 66
17, 231824, Note_on_c, 12, 65, 0
17, 231840, Control_c, 12, 11, 67
17, 231840, Note_on_c, 12, 65, 80
17, 231870, Control_c, 12, 11, 68
17, 231900, Control_c, 12, 11, 70
17, 231930, Control_c, 12, 11, 71
17, 231960, Control_c, 12, 11, 72
17, 231990, Control_c, 12, 11, 73
17, 232020, Control_c, 12, 11, 75
17, 232050, Control_c, 12, 11, 76
17, 232080, Control_c, 12, 11, 77
17, 232110, Control_c, 12, 11, 78
17, 232140, Control_c, 12, 11, 80
17, 232170, Control_c, 12, 11, 81
17, 232200, Control_c, 12, 11, 82
17, 232230, Control_c, 12, 11, 83
17, 232260, Control_c, 12, 11, 85
17, 232290, Control_c, 12, 11, 86
17, 232320, Control_c, 12, 11, 87
17, 232350, Control_c, 12, 11, 88
17, 232380, Control_c, 12, 11, 90
17, 232410, Control_c, 12, 11, 91
17, 232440, Control_c, 12, 11, 92
17, 232470, Control_c, 12, 11, 93
17, 232500, Control_c, 12, 11, 95
17, 232530, Control_c, 12, 11, 96
17, 232560, Control_c, 12, 11, 97
17, 232590, Control_c, 12, 11, 98
17, 232620, Control_c, 12, 11, 100
17, 232650, Control_c, 12, 11, 101
17, 232680, Control_c, 12, 11, 102
17, 232710, Control_c, 12, 11, 103
17, 232740, Control_c, 12, 11, 105
17, 232770, Control_c, 12, 11, 106
17, 232800, Control_c, 12, 11, 107
17, 232830, Control_c, 12, 11, 108
17, 232860, Control_c, 12, 11, 110
17, 232890, Control_c, 12, 11, 111
17, 232920, Control_c, 12, 11, 112
17, 232950, Control_c, 12, 11, 113
17, 232980, Control_c, 12, 11, 115
17, 233010, Control_c, 12, 11, 116
17, 233040, Control_c, 12, 11, 117
17, 233070, Control_c, 12, 11, 118
17, 233100, Control_c, 12, 11, 120
17, 233130, Control_c, 12, 11, 121
17, 233160, Control_c, 12, 11, 122
17, 233190, Control_c, 12, 11, 123
17, 233220, Control_c, 12, 11, 125
17, 233250, Control_c, 12, 11, 127
17, 233264, Note_on_c, 12, 65, 0
17, 233280, Note_on_c, 12, 69, 80
17, 233280, Note_on_c, 12, 77, 80
17, 233399, Note_on_c, 12, 69, 0
17, 233399, Note_on_c, 12, 77, 0
17, 234000, Note_on_c, 12, 69, 86
17, 234000, Note_on_c, 12, 81, 86
17, 234119, Note_on_c, 12, 69, 0
17, 234119, Note_on_c, 12, 81, 0
17, 234720, Note_on_c, 12, 69, 92
17, 234720, Note_on_c, 12, 81, 92
17, 234884, Note_on_c, 12, 69, 0
17, 234884, Note_on_c, 12, 81, 0
17, 234900, Note_on_c, 12, 69, 92
17, 234944, Note_on_c, 12, 69, 0
17, 234960, Note_on_c, 12, 69, 92
17, 235064, Note_on_c, 12, 69, 0
17, 235080, Note_on_c, 12, 69, 92
17, 235080, Note_on_c, 12, 81, 92
17, 235244, Note_on_c, 12, 69, 0
17, 235244, Note_on_c, 12, 81, 0
17, 235260, Note_on_c, 12, 69, 92
17, 235304, Note_on_c, 12, 69, 0
17, 235320, Note_on_c, 12, 69, 92
17, 235424, Note_on_c, 12, 69, 0
17, 235440, Note_on_c, 12, 69, 92
17, 235440, Note_on_c, 12, 81, 92
17, 235604, Note_on_c, 12, 69, 0
17, 235604, Note_on_c, 12, 81, 0
17, 235620, Note_on_c, 12, 69, 92
17, 235664, Note_on_c, 12, 69, 0
17, 235680, Note_on_c, 12, 69, 92
17, 235784, Note_on_c, 12, 69, 0
17, 235800, Note_on_c, 12, 69, 92
17, 235800, Note_on_c, 12, 81, 92
17, 235964, Note_on_c, 12, 69, 0
17, 235964, Note_on_c, 12, 81, 0
17, 235980, Note_on_c, 12, 69, 92
17, 236024, Note_on_c, 12, 69, 0
17, 236040, Note_on_c, 12, 69, 92
17, 236144, Note_on_c, 12, 69, 0
17, 236160, Note_on_c, 12, 69, 92
17, 236160, Note_on_c, 12, 81, 92
17, 236324, Note_on_c, 12, 69, 0
17, 236324, Note_on_c, 12, 81, 0
17, 236340, Note_on_c, 12, 69, 92
17, 236384, Note_on_c, 12, 69, 0
17, 236400, Note_on_c, 12, 69, 92
17, 236504, Note_on_c, 12, 69, 0
17, 236520, Note_on_c, 12, 74, 92
17, 236609, Note_on_c, 12, 74, 0
17, 236640, Note_on_c, 12, 76, 92
17, 236729, Note_on_c, 12, 76, 0
17, 236760, Note_on_c, 12, 77, 92
17, 236849, Note_on_c, 12, 77, 0
17, 236880, Note_on_c, 12, 76, 92
17, 236969, Note_on_c, 12, 76, 0
17, 237000, Note_on_c, 12, 77, 92
17, 237089, Note_on_c, 12, 77, 0
17, 237120, Note_on_c, 12, 79, 92
17, 237209, Note_on_c, 12, 79, 0
17, 237240, Note_on_c, 12, 77, 92
17, 237329, Note_on_c, 12, 77, 0
17, 237360, Note_on_c, 12, 76, 92
17, 237449, Note_on_c, 12, 76, 0
17, 237480, Note_on_c, 12, 74, 92
17, 237569, Note_on_c, 12, 74, 0
17, 237600, Note_on_c, 12, 70, 92
17, 237689, Note_on_c, 12, 70, 0
17, 237720, Note_on_c, 12, 69, 92
17, 237809, Note_on_c, 12, 69, 0
17, 237840, Note_on_c, 12, 67, 92
17, 237929, Note_on_c, 12, 67, 0
17, 237960, Note_on_c, 12, 65, 92
17, 238049, Note_on_c, 12, 65, 0
17, 238080, Note_on_c, 12, 76, 92
17, 238169, Note_on_c, 12, 76, 0
17, 238200, Note_on_c, 12, 74, 92
17, 238289, Note_on_c, 12, 74, 0
17, 238320, Note_on_c, 12, 73, 92
17, 238409, Note_on_c, 12, 73, 0
17, 238440, Note_on_c, 12, 74, 92
17, 238529, Note_on_c, 12, 74, 0
17, 238560, Note_on_c, 12, 76, 92
17, 238649, Note_on_c, 12, 76, 0
17, 238680, Note_on_c, 12, 74, 92
17, 238769, Note_on_c, 12, 74, 0
17, 238800, Note_on_c, 12, 73, 92
17, 238889, Note_on_c, 12, 73, 0
17, 238920, Note_on_c, 12, 74, 92
17, 239009, Note_on_c, 12, 74, 0
17, 239040, Note_on_c, 12, 70, 92
17, 239129, Note_on_c, 12, 70, 0
17, 239160, Note_on_c, 12, 69, 92
17, 239249, Note_on_c, 12, 69, 0
17, 239280, Note_on_c, 12, 67, 92
17, 239369, Note_on_c, 12, 67, 0
17, 239400, Note_on_c, 12, 65, 92
17, 239489, Note_on_c, 12, 65, 0
17, 239520, Note_on_c, 12, 76, 92
17, 239609, Note_on_c, 12, 76, 0
17, 239640, Note_on_c, 12, 74, 92
17, 239729, Note_on_c, 12, 74, 0
17, 239760, Note_on_c, 12, 73, 92
17, 239849, Note_on_c, 12, 73, 0
17, 239880, Note_on_c, 12, 74, 92
17, 239969, Note_on_c, 12, 74, 0
17, 240000, Note_on_c, 12, 76, 92
17, 240089, Note_on_c, 12, 76, 0
17, 240120, Note_on_c, 12, 74, 92
17, 240209, Note_on_c, 12, 74, 0
17, 240240, Note_on_c, 12, 73, 92
17, 240329, Note_on_c, 12, 73, 0
17, 240360, Note_on_c, 12, 74, 92
17, 240449, Note_on_c, 12, 74, 0
17, 240480, Note_on_c, 12, 72, 92
17, 240569, Note_on_c, 12, 72, 0
17, 240600, Note_on_c, 12, 74, 92
17, 240689, Note_on_c, 12, 74, 0
17, 240720, Note_on_c, 12, 75, 92
17, 240809, Note_on_c, 12, 75, 0
17, 240840, Note_on_c, 12, 67, 92
17, 240929, Note_on_c, 12, 67, 0
17, 240960, Note_on_c, 12, 69, 92
17, 241049, Note_on_c, 12, 69, 0
17, 241080, Note_on_c, 12, 70, 92
17, 241169, Note_on_c, 12, 70, 0
17, 241200, Note_on_c, 12, 69, 92
17, 241289, Note_on_c, 12, 69, 0
17, 241320, Note_on_c, 12, 70, 92
17, 241409, Note_on_c, 12, 70, 0
17, 241440, Note_on_c, 12, 72, 92
17, 241529, Note_on_c, 12, 72, 0
17, 241560, Note_on_c, 12, 70, 92
17, 241649, Note_on_c, 12, 70, 0
17, 241680, Note_on_c, 12, 69, 92
17, 241769, Note_on_c, 12, 69, 0
17, 241800, Note_on_c, 12, 67, 92
17, 241889, Note_on_c, 12, 67, 0
17, 241920, Note_on_c, 12, 75, 80
17, 242009, Note_on_c, 12, 75, 0
17, 242040, Note_on_c, 12, 74, 80
17, 242129, Note_on_c, 12, 74, 0
17, 242160, Note_on_c, 12, 72, 80
17, 242249, Note_on_c, 12, 72, 0
17, 242280, Note_on_c, 12, 70, 80
17, 242369, Note_on_c, 12, 70, 0
17, 242400, Note_on_c, 12, 69, 80
17, 242489, Note_on_c, 12, 69, 0
17, 242520, Note_on_c, 12, 67, 80
17, 242609, Note_on_c, 12, 67, 0
17, 242640, Note_on_c, 12, 77, 80
17, 242729, Note_on_c, 12, 77, 0
17, 242760, Note_on_c, 12, 75, 80
17, 242849, Note_on_c, 12, 75, 0
17, 242880, Note_on_c, 12, 74, 80
17, 242969, Note_on_c, 12, 74, 0
17, 243000, Note_on_c, 12, 72, 80
17, 243089, Note_on_c, 12, 72, 0
17, 243120, Note_on_c, 12, 70, 80
17, 243209, Note_on_c, 12, 70, 0
17, 243240, Note_on_c, 12, 69, 80
17, 243329, Note_on_c, 12, 69, 0
17, 243360, Note_on_c, 12, 79, 80
17, 243449, Note_on_c, 12, 79, 0
17, 243480, Note_on_c, 12, 77, 80
17, 243569, Note_on_c, 12, 77, 0
17, 243600, Note_on_c, 12, 75, 80
17, 243689, Note_on_c, 12, 75, 0
17, 243720, Note_on_c, 12, 74, 80
17, 243809, Note_on_c, 12, 74, 0
17, 243840, Note_on_c, 12, 72, 80
17, 243929, Note_on_c, 12, 72, 0
17, 243960, Note_on_c, 12, 70, 80
17, 244049, Note_on_c, 12, 70, 0
17, 244080, Note_on_c, 12, 69, 80
17, 244169, Note_on_c, 12, 69, 0
17, 244200, Note_on_c, 12, 67, 80
17, 244289, Note_on_c, 12, 67, 0
17, 244320, Note_on_c, 12, 65, 80
17, 244409, Note_on_c, 12, 65, 0
17, 244440, Note_on_c, 12, 63, 80
17, 244529, Note_on_c, 12, 63, 0
17, 244560, Note_on_c, 12, 62, 80
17, 244649, Note_on_c, 12, 62, 0
17, 244680, Note_on_c, 12, 60, 80
17, 244769, Note_on_c, 12, 60, 0
17, 244800, Note_on_c, 12, 58, 80
17, 244889, Note_on_c, 12, 58, 0
17, 245160, Note_on_c, 12, 77, 44
17, 245324, Note_on_c, 12, 77, 0
17, 245340, Note_on_c, 12, 65, 44
17, 245384, Note_on_c, 12, 65, 0
17, 245400, Note_on_c, 12, 65, 44
17, 245504, Note_on_c, 12, 65, 0
17, 245520, Note_on_c, 12, 77, 44
17, 245684, Note_on_c, 12, 77, 0
17, 245700, Note_on_c, 12, 65, 48
17, 245744, Note_on_c, 12, 65, 0
17, 245760, Note_on_c, 12, 65, 49
17, 245864, Note_on_c, 12, 65, 0
17, 245880, Note_on_c, 12, 75, 52
17, 246044, Note_on_c, 12, 75, 0
17, 246060, Note_on_c, 12, 63, 56
17, 246104, Note_on_c, 12, 63, 0
17, 246120, Note_on_c, 12, 63, 57
17, 246224, Note_on_c, 12, 63, 0
17, 246240, Note_on_c, 12, 75, 60
17, 246404, Note_on_c, 12, 75, 0
17, 246420, Note_on_c, 12, 63, 64
17, 246464, Note_on_c, 12, 63, 0
17, 246480, Note_on_c, 12, 63, 65
17, 246584, Note_on_c, 12, 63, 0
17, 246600, Note_on_c, 12, 77, 68
17, 246764, Note_on_c, 12, 77, 0
17, 246780, Note_on_c, 12, 65, 64
17, 246824, Note_on_c, 12, 65, 0
17, 246840, Note_on_c, 12, 65, 63
17, 246944, Note_on_c, 12, 65, 0
17, 246960, Note_on_c, 12, 77, 60
17, 247124, Note_on_c, 12, 77, 0
17, 247140, Note_on_c, 12, 65, 56
17, 247184, Note_on_c, 12, 65, 0
17, 247200, Note_on_c, 12, 65, 55
17, 247304, Note_on_c, 12, 65, 0
17, 247320, Note_on_c, 12, 77, 52
17, 247484, Note_on_c, 12, 77, 0
17, 247500, Note_on_c, 12, 65, 48
17, 247544, Note_on_c, 12, 65, 0
17, 247560, Note_on_c, 12, 65, 47
17, 247664, Note_on_c, 12, 65, 0
17, 248760, Note_on_c, 12, 81, 44
17, 248924, Note_on_c, 12, 81, 0
17, 248940, Note_on_c, 12, 69, 47
17, 248984, Note_on_c, 12, 69, 0
17, 249000, Note_on_c, 12, 69, 48
17, 249104, Note_on_c, 12, 69, 0
17, 249120, Note_on_c, 12, 81, 50
17, 249284, Note_on_c, 12, 81, 0
17, 249300, Note_on_c, 12, 69, 53
17, 249344, Note_on_c, 12, 69, 0
17, 249360, Note_on_c, 12, 69, 54
17, 249464, Note_on_c, 12, 69, 0
17, 249480, Note_on_c, 12, 79, 56
17, 249644, Note_on_c, 12, 79, 0
17, 249660, Note_on_c, 12, 67, 59
17, 249704, Note_on_c, 12, 67, 0
17, 249720, Note_on_c, 12, 67, 60
17, 249824, Note_on_c, 12, 67, 0
17, 249840, Note_on_c, 12, 79, 62
17, 250004, Note_on_c, 12, 79, 0
17, 250020, Note_on_c, 12, 67, 65
17, 250064, Note_on_c, 12, 67, 0
17, 250080, Note_on_c, 12, 67, 66
17, 250184, Note_on_c, 12, 67, 0
17, 250200, Note_on_c, 12, 78, 68
17, 250364, Note_on_c, 12, 78, 0
17, 250380, Note_on_c, 12, 66, 64
17, 250424, Note_on_c, 12, 66, 0
17, 250440, Note_on_c, 12, 66, 63
17, 250544, Note_on_c, 12, 66, 0
17, 250560, Note_on_c, 12, 77, 60
17, 250724, Note_on_c, 12, 77, 0
17, 250740, Note_on_c, 12, 65, 56
17, 250784, Note_on_c, 12, 65, 0
17, 250800, Note_on_c, 12, 65, 55
17, 250904, Note_on_c, 12, 65, 0
17, 250920, Note_on_c, 12, 76, 52
17, 251084, Note_on_c, 12, 76, 0
17, 251100, Note_on_c, 12, 64, 48
17, 251144, Note_on_c, 12, 64, 0
17, 251160, Note_on_c, 12, 64, 47
17, 251264, Note_on_c, 12, 64, 0
17, 252000, Note_on_c, 12, 70, 50
17, 252164, Note_on_c, 12, 70, 0
17, 252180, Note_on_c, 12, 58, 53
17, 252224, Note_on_c, 12, 58, 0
17, 252240, Note_on_c, 12, 58, 54
17, 252344, Note_on_c, 12, 58, 0
17, 252360, Note_on_c, 12, 70, 56
17, 252524, Note_on_c, 12, 70, 0
17, 252540, Note_on_c, 12, 58, 59
17, 252584, Note_on_c, 12, 58, 0
17, 252600, Note_on_c, 12, 58, 60
17, 252704, Note_on_c, 12, 58, 0
17, 252720, Note_on_c, 12, 69, 62
17, 252884, Note_on_c, 12, 69, 0
17, 252900, Note_on_c, 12, 57, 65
17, 252944, Note_on_c, 12, 57, 0
17, 252960, Note_on_c, 12, 57, 66
17, 253064, Note_on_c, 12, 57, 0
17, 253080, Note_on_c, 12, 69, 68
17, 253244, Note_on_c, 12, 69, 0
17, 253260, Note_on_c, 12, 57, 64
17, 253304, Note_on_c, 12, 57, 0
17, 253320, Note_on_c, 12, 57, 63
17, 253424, Note_on_c, 12, 57, 0
17, 253440, Note_on_c, 12, 68, 60
17, 253604, Note_on_c, 12, 68, 0
17, 253620, Note_on_c, 12, 56, 56
17, 253664, Note_on_c, 12, 56, 0
17, 253680, Note_on_c, 12, 56, 55
17, 253784, Note_on_c, 12, 56, 0
17, 253800, Note_on_c, 12, 69, 52
17, 253964, Note_on_c, 12, 69, 0
17, 253980, Note_on_c, 12, 57, 48
17, 254024, Note_on_c, 12, 57, 0
17, 254040, Note_on_c, 12, 57, 47
17, 254144, Note_on_c, 12, 57, 0
17, 254160, Program_c, 12, 45
17, 254400, Note_on_c, 12, 57, 40
17, 254519, Note_on_c, 12, 57, 0
17, 254760, Note_on_c, 12, 69, 46
17, 254879, Note_on_c, 12, 69, 0
17, 255120, Note_on_c, 12, 75, 52
17, 255239, Note_on_c, 12, 75, 0
17, 255480, Note_on_c, 12, 76, 58
17, 255599, Note_on_c, 12, 76, 0
17, 255840, Note_on_c, 12, 69, 64
17, 255959, Note_on_c, 12, 69, 0
17, 256200, Note_on_c, 12, 69, 70
17, 256319, Note_on_c, 12, 69, 0
17, 256560, Note_on_c, 12, 74, 76
17, 256679, Note_on_c, 12, 74, 0
17, 256920, Note_on_c, 12, 69, 82
17, 257024, Note_on_c, 12, 69, 0
17, 257038, Program_c, 12, 48
17, 257040, Note_on_c, 12, 74, 92
17, 257204, Note_on_c, 12, 74, 0
17, 257220, Note_on_c, 12, 62, 92
17, 257264, Note_on_c, 12, 62, 0
17, 257280, Note_on_c, 12, 62, 92
17, 257384, Note_on_c, 12, 62, 0
17, 257400, Note_on_c, 12, 74, 92
17, 257564, Note_on_c, 12, 74, 0
17, 257580, Note_on_c, 12, 62, 92
17, 257624, Note_on_c, 12, 62, 0
17, 257640, Note_on_c, 12, 62, 92
17, 257744, Note_on_c, 12, 62, 0
17, 257760, Note_on_c, 12, 74, 92
17, 257924, Note_on_c, 12, 74, 0
17, 257940, Note_on_c, 12, 62, 92
17, 257984, Note_on_c, 12, 62, 0
17, 258000, Note_on_c, 12, 62, 92
17, 258104, Note_on_c, 12, 62, 0
17, 258120, Note_on_c, 12, 74, 92
17, 258284, Note_on_c, 12, 74, 0
17, 258300, Note_on_c, 12, 62, 92
17, 258344, Note_on_c, 12, 62, 0
17, 258360, Note_on_c, 12, 62, 92
17, 258464, Note_on_c, 12, 62, 0
17, 258480, Note_on_c, 12, 74, 92
17, 258644, Note_on_c, 12, 74, 0
17, 258660, Note_on_c, 12, 62, 92
17, 258704, Note_on_c, 12, 62, 0
17, 258720, Note_on_c, 12, 62, 92
17, 258824, Note_on_c, 12, 62, 0
17, 258840, Note_on_c, 12, 74, 92
17, 259004, Note_on_c, 12, 74, 0
17, 259020, Note_on_c, 12, 62, 92
17, 259064, Note_on_c, 12, 62, 0
17, 259080, Note_on_c, 12, 62, 92
17, 259184, Note_on_c, 12, 62, 0
17, 259200, Note_on_c, 12, 74, 92
17, 259364, Note_on_c, 12, 74, 0
17, 259380, Note_on_c, 12, 62, 92
17, 259424, Note_on_c, 12, 62, 0
17, 259440, Note_on_c, 12, 62, 92
17, 259544, Note_on_c, 12, 62, 0
17, 259560, Note_on_c, 12, 74, 92
17, 259724, Note_on_c, 12, 74, 0
17, 259740, Note_on_c, 12, 62, 92
17, 259784, Note_on_c, 12, 62, 0
17, 259800, Note_on_c, 12, 62, 92
17, 259904, Note_on_c, 12, 62, 0
17, 259920, Note_on_c, 12, 74, 92
17, 260084, Note_on_c, 12, 74, 0
17, 260100, Note_on_c, 12, 62, 92
17, 260144, Note_on_c, 12, 62, 0
17, 260160, Note_on_c, 12, 62, 92
17, 260264, Note_on_c, 12, 62, 0
17, 260280, Note_on_c, 12, 74, 92
17, 260444, Note_on_c, 12, 74, 0
17, 260460, Note_on_c, 12, 62, 92
17, 260504, Note_on_c, 12, 62, 0
17, 260520, Note_on_c, 12, 62, 92
17, 260624, Note_on_c, 12, 62, 0
17, 260640, Note_on_c, 12, 74, 92
17, 260804, Note_on_c, 12, 74, 0
17, 260820, Note_on_c, 12, 62, 92
17, 260864, Note_on_c, 12, 62, 0
17, 260880, Note_on_c, 12, 62, 92
17, 260984, Note_on_c, 12, 62, 0
17, 261000, Note_on_c, 12, 74, 92
17, 261164, Note_on_c, 12, 74, 0
17, 261180, Note_on_c, 12, 62, 92
17, 261224, Note_on_c, 12, 62, 0
17, 261240, Note_on_c, 12, 62, 92
17, 261344, Note_on_c, 12, 62, 0
17, 261360, Note_on_c, 12, 74, 92
17, 261524, Note_on_c, 12, 74, 0
17, 261540, Note_on_c, 12, 62, 92
17, 261584, Note_on_c, 12, 62, 0
17, 261600, Note_on_c, 12, 62, 92
17, 261704, Note_on_c, 12, 62, 0
17, 261720, Note_on_c, 12, 74, 92
17, 261884, Note_on_c, 12, 74, 0
17, 261900, Note_on_c, 12, 62, 92
17, 261944, Note_on_c, 12, 62, 0
17, 261960, Note_on_c, 12, 62, 92
17, 262064, Note_on_c, 12, 62, 0
17, 262080, Note_on_c, 12, 74, 92
17, 262244, Note_on_c, 12, 74, 0
17, 262260, Note_on_c, 12, 62, 92
17, 262304, Note_on_c, 12, 62, 0
17, 262320, Note_on_c, 12, 62, 92
17, 262424, Note_on_c, 12, 62, 0
17, 262440, Note_on_c, 12, 74, 92
17, 262604, Note_on_c, 12, 74, 0
17, 262620, Note_on_c, 12, 62, 92
17, 262664, Note_on_c, 12, 62, 0
17, 262680, Note_on_c, 12, 62, 92
17, 262784, Note_on_c, 12, 62, 0
17, 262800, Note_on_c, 12, 62, 92
17, 262800, Note_on_c, 12, 74, 92
17, 262919, Note_on_c, 12, 62, 0
17, 262919, Note_on_c, 12, 74, 0
17, 263520, Note_on_c, 12, 70, 92
17, 263684, Note_on_c, 12, 70, 0
17, 263700, Note_on_c, 12, 58, 92
17, 263744, Note_on_c, 12, 58, 0
17, 263760, Note_on_c, 12, 58, 92
17, 263864, Note_on_c, 12, 58, 0
17, 263880, Note_on_c, 12, 70, 92
17, 263984, Note_on_c, 12, 70, 0
17, 264000, Note_on_c, 12, 67, 92
17, 264104, Note_on_c, 12, 67, 0
17, 264120, Note_on_c, 12, 65, 92
17, 264224, Note_on_c, 12, 65, 0
17, 264240, Note_on_c, 12, 64, 92
17, 264359, Note_on_c, 12, 64, 0
17, 264960, Note_on_c, 12, 81, 92
17, 265124, Note_on_c, 12, 81, 0
17, 265140, Note_on_c, 12, 69, 92
17, 265184, Note_on_c, 12, 69, 0
17, 265200, Note_on_c, 12, 69, 92
17, 265304, Note_on_c, 12, 69, 0
17, 265320, Note_on_c, 12, 81, 92
17, 265424, Note_on_c, 12, 81, 0
17, 265440, Note_on_c, 12, 77, 92
17, 265544, Note_on_c, 12, 77, 0
17, 265560, Note_on_c, 12, 76, 92
17, 265664, Note_on_c, 12, 76, 0
17, 265678, Control_c, 12, 11, 87
17, 265680, Note_on_c, 12, 62, 68
17, 265799, Note_on_c, 12, 62, 0
17, 265800, Note_on_c, 12, 64, 68
17, 265919, Note_on_c, 12, 64, 0
17, 265920, Note_on_c, 12, 66, 68
17, 266039, Note_on_c, 12, 66, 0
17, 266040, Note_on_c, 12, 67, 68
17, 266400, Control_c, 12, 11, 87
17, 266435, Control_c, 12, 11, 89
17, 266470, Control_c, 12, 11, 90
17, 266505, Control_c, 12, 11, 92
17, 266519, Note_on_c, 12, 67, 0
17, 266520, Note_on_c, 12, 65, 68
17, 266540, Control_c, 12, 11, 94
17, 266575, Control_c, 12, 11, 95
17, 266610, Control_c, 12, 11, 97
17, 266639, Note_on_c, 12, 65, 0
17, 266640, Note_on_c, 12, 63, 68
17, 266645, Control_c, 12, 11, 99
17, 266680, Control_c, 12, 11, 100
17, 266715, Control_c, 12, 11, 102
17, 266744, Note_on_c, 12, 63, 0
17, 266750, Control_c, 12, 11, 104
17, 266760, Note_on_c, 12, 75, 68
17, 266785, Control_c, 12, 11, 105
17, 266820, Control_c, 12, 11, 107
17, 266855, Control_c, 12, 11, 109
17, 266879, Note_on_c, 12, 75, 0
17, 266880, Note_on_c, 12, 77, 68
17, 266890, Control_c, 12, 11, 110
17, 266925, Control_c, 12, 11, 112
17, 266960, Control_c, 12, 11, 114
17, 266995, Control_c, 12, 11, 115
17, 266999, Note_on_c, 12, 77, 0
17, 267000, Note_on_c, 12, 79, 68
17, 267030, Control_c, 12, 11, 117
17, 267065, Control_c, 12, 11, 119
17, 267100, Control_c, 12, 11, 120
17, 267104, Note_on_c, 12, 79, 0
17, 267120, Note_on_c, 12, 76, 68
17, 267135, Control_c, 12, 11, 122
17, 267170, Control_c, 12, 11, 124
17, 267205, Control_c, 12, 11, 125
17, 267239, Note_on_c, 12, 76, 0
17, 267240, Note_on_c, 12, 77, 68
17, 267359, Note_on_c, 12, 77, 0
17, 267360, Control_c, 12, 11, 127
17, 267360, Note_on_c, 12, 79, 68
17, 267387, Control_c, 12, 11, 125
17, 267413, Control_c, 12, 11, 123
17, 267440, Control_c, 12, 11, 120
17, 267464, Note_on_c, 12, 79, 0
17, 267467, Control_c, 12, 11, 118
17, 267480, Note_on_c, 12, 76, 68
17, 267493, Control_c, 12, 11, 116
17, 267520, Control_c, 12, 11, 114
17, 267547, Control_c, 12, 11, 111
17, 267573, Control_c, 12, 11, 109
17, 267599, Note_on_c, 12, 76, 0
17, 267600, Note_on_c, 12, 74, 68
17, 267600, Control_c, 12, 11, 107
17, 267627, Control_c, 12, 11, 105
17, 267653, Control_c, 12, 11, 103
17, 267680, Control_c, 12, 11, 100
17, 267707, Control_c, 12, 11, 98
17, 267719, Note_on_c, 12, 74, 0
17, 267720, Note_on_c, 12, 73, 68
17, 267733, Control_c, 12, 11, 96
17, 267760, Control_c, 12, 11, 94
17, 267787, Control_c, 12, 11, 91
17, 267813, Control_c, 12, 11, 89
17, 267839, Note_on_c, 12, 73, 0
17, 269640, Control_c, 12, 11, 127
17, 270000, Note_on_c, 12, 65, 80
17, 270089, Note_on_c, 12, 65, 0
17, 270120, Note_on_c, 12, 67, 80
17, 270209, Note_on_c, 12, 67, 0
17, 270240, Note_on_c, 12, 74, 80
17, 270329, Note_on_c, 12, 74, 0
17, 270360, Note_on_c, 12, 76, 80
17, 270360, Note_on_c, 12, 74, 80
17, 270449, Note_on_c, 12, 76, 0
17, 270449, Note_on_c, 12, 74, 0
17, 270480, Note_on_c, 12, 73, 80
17, 270480, Note_on_c, 12, 76, 80
17, 270569, Note_on_c, 12, 73, 0
17, 270569, Note_on_c, 12, 76, 0
17, 270600, Note_on_c, 12, 65, 80
17, 270600, Note_on_c, 12, 74, 80
17, 270689, Note_on_c, 12, 65, 0
17, 270689, Note_on_c, 12, 74, 0
17, 270720, Note_on_c, 12, 74, 80
17, 270720, Note_on_c, 12, 65, 80
17, 270809, Note_on_c, 12, 74, 0
17, 270809, Note_on_c, 12, 65, 0
17, 271440, Note_on_c, 12, 74, 80
17, 271529, Note_on_c, 12, 74, 0
17, 271560, Note_on_c, 12, 86, 80
17, 271649, Note_on_c, 12, 86, 0
17, 271680, Note_on_c, 12, 86, 80
17, 271769, Note_on_c, 12, 86, 0
17, 271800, Note_on_c, 12, 88, 80
17, 271889, Note_on_c, 12, 88, 0
17, 271920, Note_on_c, 12, 73, 80
17, 272009, Note_on_c, 12, 73, 0
17, 272040, Note_on_c, 12, 77, 80
17, 272129, Note_on_c, 12, 77, 0
17, 272160, Note_on_c, 12, 74, 80
17, 272324, Note_on_c, 12, 74, 0
17, 272340, Note_on_c, 12, 62, 80
17, 272384, Note_on_c, 12, 62, 0
17, 272400, Note_on_c, 12, 62, 80
17, 272504, Note_on_c, 12, 62, 0
17, 272520, Note_on_c, 12, 57, 80
17, 272639, Note_on_c, 12, 57, 0
17, 272880, Note_on_c, 12, 74, 80
17, 273044, Note_on_c, 12, 74, 0
17, 273060, Note_on_c, 12, 62, 80
17, 273104, Note_on_c, 12, 62, 0
17, 273120, Note_on_c, 12, 62, 80
17, 273224, Note_on_c, 12, 62, 0
17, 273240, Note_on_c, 12, 57, 80
17, 273359, Note_on_c, 12, 57, 0
17, 273960, Note_on_c, 12, 64, 32
17, 274079, Note_on_c, 12, 64, 0
17, 274080, Note_on_c, 12, 61, 32
17, 274199, Note_on_c, 12, 61, 0
17, 274200, Note_on_c, 12, 55, 32
17, 274319, Note_on_c, 12, 55, 0
17, 274320, Note_on_c, 12, 61, 32
17, 274439, Note_on_c, 12, 61, 0
17, 274440, Note_on_c, 12, 64, 32
17, 274559, Note_on_c, 12, 64, 0
17, 274560, Note_on_c, 12, 67, 32
17, 274679, Note_on_c, 12, 67, 0
17, 274680, Note_on_c, 12, 64, 32
17, 274799, Note_on_c, 12, 64, 0
17, 274800, Note_on_c, 12, 67, 32
17, 274919, Note_on_c, 12, 67, 0
17, 274920, Note_on_c, 12, 73, 32
17, 275024, Note_on_c, 12, 73, 0
17, 275040, Note_on_c, 12, 69, 32
17, 275204, Note_on_c, 12, 69, 0
17, 275220, Note_on_c, 12, 57, 32
17, 275264, Note_on_c, 12, 57, 0
17, 275280, Note_on_c, 12, 57, 32
17, 275384, Note_on_c, 12, 57, 0
17, 275400, Note_on_c, 12, 57, 32
17, 275519, Note_on_c, 12, 57, 0
17, 275760, Note_on_c, 12, 69, 32
17, 275924, Note_on_c, 12, 69, 0
17, 275940, Note_on_c, 12, 57, 32
17, 275984, Note_on_c, 12, 57, 0
17, 276000, Note_on_c, 12, 57, 32
17, 276104, Note_on_c, 12, 57, 0
17, 276120, Note_on_c, 12, 57, 32
17, 276239, Note_on_c, 12, 57, 0
17, 277920, Note_on_c, 12, 69, 32
17, 278084, Note_on_c, 12, 69, 0
17, 278100, Note_on_c, 12, 57, 36
17, 278144, Note_on_c, 12, 57, 0
17, 278160, Note_on_c, 12, 57, 37
17, 278264, Note_on_c, 12, 57, 0
17, 278280, Note_on_c, 12, 57, 40
17, 278399, Note_on_c, 12, 57, 0
17, 278640, Note_on_c, 12, 69, 48
17, 278804, Note_on_c, 12, 69, 0
17, 278820, Note_on_c, 12, 57, 52
17, 278864, Note_on_c, 12, 57, 0
17, 278880, Note_on_c, 12, 57, 53
17, 278984, Note_on_c, 12, 57, 0
17, 279000, Note_on_c, 12, 57, 56
17, 279119, Note_on_c, 12, 57, 0
17, 279360, Note_on_c, 12, 62, 64
17, 279524, Note_on_c, 12, 62, 0
17, 279540, Note_on_c, 12, 65, 68
17, 279584, Note_on_c, 12, 65, 0
17, 279600, Note_on_c, 12, 65, 69
17, 279704, Note_on_c, 12, 65, 0
17, 279720, Note_on_c, 12, 67, 72
17, 279839, Note_on_c, 12, 67, 0
17, 280080, Note_on_c, 12, 67, 80
17, 280244, Note_on_c, 12, 67, 0
17, 280260, Note_on_c, 12, 74, 80
17, 280304, Note_on_c, 12, 74, 0
17, 280320, Note_on_c, 12, 74, 80
17, 280424, Note_on_c, 12, 74, 0
17, 280440, Note_on_c, 12, 73, 92
17, 280440, Note_on_c, 12, 64, 92
17, 280559, Note_on_c, 12, 73, 0
17, 280559, Note_on_c, 12, 64, 0
17, 281160, Note_on_c, 12, 64, 32
17, 281249, Note_on_c, 12, 64, 0
17, 281280, Note_on_c, 12, 65, 32
17, 281369, Note_on_c, 12, 65, 0
17, 281400, Note_on_c, 12, 67, 32
17, 281504, Note_on_c, 12, 67, 0
17, 281520, Note_on_c, 12, 69, 32
17, 281609, Note_on_c, 12, 69, 0
17, 281640, Note_on_c, 12, 67, 32
17, 281729, Note_on_c, 12, 67, 0
17, 281760, Note_on_c, 12, 65, 32
17, 281849, Note_on_c, 12, 65, 0
17, 281880, Note_on_c, 12, 66, 32
17, 281969, Note_on_c, 12, 66, 0
17, 282000, Note_on_c, 12, 67, 32
17, 282089, Note_on_c, 12, 67, 0
17, 282120, Note_on_c, 12, 69, 32
17, 282209, Note_on_c, 12, 69, 0
17, 282240, Note_on_c, 12, 70, 32
17, 282329, Note_on_c, 12, 70, 0
17, 282360, Note_on_c, 12, 69, 32
17, 282449, Note_on_c, 12, 69, 0
17, 282480, Note_on_c, 12, 67, 32
17, 282569, Note_on_c, 12, 67, 0
17, 282600, Note_on_c, 12, 64, 32
17, 282689, Note_on_c, 12, 64, 0
17, 282720, Note_on_c, 12, 65, 32
17, 282809, Note_on_c, 12, 65, 0
17, 282840, Note_on_c, 12, 67, 32
17, 282944, Note_on_c, 12, 67, 0
17, 282960, Note_on_c, 12, 69, 32
17, 283049, Note_on_c, 12, 69, 0
17, 283080, Note_on_c, 12, 67, 32
17, 283169, Note_on_c, 12, 67, 0
17, 283200, Note_on_c, 12, 65, 32
17, 283289, Note_on_c, 12, 65, 0
17, 283320, Note_on_c, 12, 66, 32
17, 283409, Note_on_c, 12, 66, 0
17, 283440, Note_on_c, 12, 67, 32
17, 283529, Note_on_c, 12, 67, 0
17, 283560, Note_on_c, 12, 69, 32
17, 283649, Note_on_c, 12, 69, 0
17, 283680, Note_on_c, 12, 70, 32
17, 283769, Note_on_c, 12, 70, 0
17, 283800, Note_on_c, 12, 69, 32
17, 283889, Note_on_c, 12, 69, 0
17, 283920, Note_on_c, 12, 67, 32
17, 284009, Note_on_c, 12, 67, 0
17, 284040, Note_on_c, 12, 81, 32
17, 284204, Note_on_c, 12, 81, 0
17, 284220, Note_on_c, 12, 69, 35
17, 284264, Note_on_c, 12, 69, 0
17, 284280, Note_on_c, 12, 69, 37
17, 284384, Note_on_c, 12, 69, 0
17, 284400, Note_on_c, 12, 74, 39
17, 284489, Note_on_c, 12, 74, 0
17, 284520, Note_on_c, 12, 76, 42
17, 284609, Note_on_c, 12, 76, 0
17, 284640, Note_on_c, 12, 77, 44
17, 284729, Note_on_c, 12, 77, 0
17, 284760, Note_on_c, 12, 81, 47
17, 284924, Note_on_c, 12, 81, 0
17, 284940, Note_on_c, 12, 69, 50
17, 284984, Note_on_c, 12, 69, 0
17, 285000, Note_on_c, 12, 69, 52
17, 285104, Note_on_c, 12, 69, 0
17, 285120, Note_on_c, 12, 74, 54
17, 285209, Note_on_c, 12, 74, 0
17, 285240, Note_on_c, 12, 76, 57
17, 285329, Note_on_c, 12, 76, 0
17, 285360, Note_on_c, 12, 77, 59
17, 285449, Note_on_c, 12, 77, 0
17, 285480, Note_on_c, 12, 81, 62
17, 285644, Note_on_c, 12, 81, 0
17, 285660, Note_on_c, 12, 69, 65
17, 285704, Note_on_c, 12, 69, 0
17, 285720, Note_on_c, 12, 69, 67
17, 285824, Note_on_c, 12, 69, 0
17, 285840, Note_on_c, 12, 74, 69
17, 285929, Note_on_c, 12, 74, 0
17, 285960, Note_on_c, 12, 76, 72
17, 286049, Note_on_c, 12, 76, 0
17, 286080, Note_on_c, 12, 77, 74
17, 286169, Note_on_c, 12, 77, 0
17, 286200, Note_on_c, 12, 81, 77
17, 286364, Note_on_c, 12, 81, 0
17, 286380, Note_on_c, 12, 69, 80
17, 286424, Note_on_c, 12, 69, 0
17, 286440, Note_on_c, 12, 69, 82
17, 286544, Note_on_c, 12, 69, 0
17, 286560, Note_on_c, 12, 74, 84
17, 286649, Note_on_c, 12, 74, 0
17, 286680, Note_on_c, 12, 76, 87
17, 286769, Note_on_c, 12, 76, 0
17, 286800, Note_on_c, 12, 77, 89
17, 286889, Note_on_c, 12, 77, 0
17, 286920, Note_on_c, 12, 81, 92
17, 287009, Note_on_c, 12, 81, 0
17, 287040, Note_on_c, 12, 69, 92
17, 287129, Note_on_c, 12, 69, 0
17, 287160, Note_on_c, 12, 74, 80
17, 287249, Note_on_c, 12, 74, 0
17, 287280, Note_on_c, 12, 62, 80
17, 287369, Note_on_c, 12, 62, 0
17, 287400, Note_on_c, 12, 69, 80
17, 287489, Note_on_c, 12, 69, 0
17, 287520, Note_on_c, 12, 57, 80
17, 287609, Note_on_c, 12, 57, 0
17, 287640, Note_on_c, 12, 81, 80
17, 287729, Note_on_c, 12, 81, 0
17, 287760, Note_on_c, 12, 69, 80
17, 287849, Note_on_c, 12, 69, 0
17, 287880, Note_on_c, 12, 62, 80
17, 287969, Note_on_c, 12, 62, 0
17, 296520, Control_c, 12, 11, 87
17, 296736, Control_c, 12, 11, 91
17, 296760, Note_on_c, 12, 57, 68
17, 296790, Control_c, 12, 11, 92
17, 296844, Control_c, 12, 11, 93
17, 296898, Control_c, 12, 11, 94
17, 296952, Control_c, 12, 11, 95
17, 297006, Control_c, 12, 11, 96
17, 297060, Control_c, 12, 11, 97
17, 297114, Control_c, 12, 11, 98
17, 297168, Control_c, 12, 11, 99
17, 297222, Control_c, 12, 11, 100
17, 297239, Note_on_c, 12, 57, 0
17, 297240, Note_on_c, 12, 56, 68
17, 297276, Control_c, 12, 11, 101
17, 297330, Control_c, 12, 11, 102
17, 297384, Control_c, 12, 11, 103
17, 297438, Control_c, 12, 11, 104
17, 297459, Note_on_c, 12, 56, 0
17, 297480, Note_on_c, 12, 57, 68
17, 297492, Control_c, 12, 11, 105
17, 297546, Control_c, 12, 11, 106
17, 297600, Control_c, 12, 11, 107
17, 297654, Control_c, 12, 11, 108
17, 297708, Control_c, 12, 11, 109
17, 297719, Note_on_c, 12, 57, 0
17, 297720, Note_on_c, 12, 59, 68
17, 297762, Control_c, 12, 11, 110
17, 297816, Control_c, 12, 11, 111
17, 297839, Note_on_c, 12, 59, 0
17, 297840, Note_on_c, 12, 61, 68
17, 297870, Control_c, 12, 11, 112
17, 297924, Control_c, 12, 11, 113
17, 297959, Note_on_c, 12, 61, 0
17, 297960, Note_on_c, 12, 62, 68
17, 297978, Control_c, 12, 11, 114
17, 298032, Control_c, 12, 11, 115
17, 298079, Note_on_c, 12, 62, 0
17, 298080, Note_on_c, 12, 61, 68
17, 298086, Control_c, 12, 11, 116
17, 298140, Control_c, 12, 11, 117
17, 298194, Control_c, 12, 11, 118
17, 298199, Note_on_c, 12, 61, 0
17, 298200, Note_on_c, 12, 62, 68
17, 298248, Control_c, 12, 11, 119
17, 298302, Control_c, 12, 11, 120
17, 298319, Note_on_c, 12, 62, 0
17, 298320, Note_on_c, 12, 64, 68
17, 298356, Control_c, 12, 11, 121
17, 298410, Control_c, 12, 11, 122
17, 298419, Note_on_c, 12, 64, 0
17, 298440, Note_on_c, 12, 57, 68
17, 298464, Control_c, 12, 11, 123
17, 298518, Control_c, 12, 11, 124
17, 298559, Note_on_c, 12, 57, 0
17, 298560, Note_on_c, 12, 69, 68
17, 298572, Control_c, 12, 11, 125
17, 298626, Control_c, 12, 11, 127
17, 298679, Note_on_c, 12, 69, 0
17, 298680, Note_on_c, 12, 55, 68
17, 298680, Note_on_c, 12, 67, 68
17, 298799, Note_on_c, 12, 55, 0
17, 298799, Note_on_c, 12, 67, 0
17, 298800, Note_on_c, 12, 71, 56
17, 298899, Note_on_c, 12, 71, 0
17, 298920, Note_on_c, 12, 62, 44
17, 298920, Note_on_c, 12, 74, 44
17, 299039, Note_on_c, 12, 62, 0
17, 299039, Note_on_c, 12, 74, 0
17, 299160, Note_on_c, 12, 73, 44
17, 299160, Note_on_c, 12, 64, 44
17, 299279, Note_on_c, 12, 73, 0
17, 299279, Note_on_c, 12, 64, 0
17, 299400, Note_on_c, 12, 74, 44
17, 299400, Note_on_c, 12, 66, 44
17, 299499, Note_on_c, 12, 74, 0
17, 299499, Note_on_c, 12, 66, 0
17, 300480, Note_on_c, 12, 69, 44
17, 300599, Note_on_c, 12, 69, 0
17, 300600, Note_on_c, 12, 68, 44
17, 300719, Note_on_c, 12, 68, 0
17, 300720, Note_on_c, 12, 69, 45
17, 300839, Note_on_c, 12, 69, 0
17, 300840, Note_on_c, 12, 71, 47
17, 300959, Note_on_c, 12, 71, 0
17, 300960, Note_on_c, 12, 64, 48
17, 301079, Note_on_c, 12, 64, 0
17, 301080, Note_on_c, 12, 66, 50
17, 301199, Note_on_c, 12, 66, 0
17, 301200, Note_on_c, 12, 68, 51
17, 301319, Note_on_c, 12, 68, 0
17, 301320, Note_on_c, 12, 69, 53
17, 301439, Note_on_c, 12, 69, 0
17, 301560, Note_on_c, 12, 66, 56
17, 301679, Note_on_c, 12, 66, 0
17, 301680, Note_on_c, 12, 67, 57
17, 301799, Note_on_c, 12, 67, 0
17, 301800, Note_on_c, 12, 69, 59
17, 301919, Note_on_c, 12, 69, 0
17, 301920, Note_on_c, 12, 67, 60
17, 302039, Note_on_c, 12, 67, 0
17, 302040, Note_on_c, 12, 62, 62
17, 302159, Note_on_c, 12, 62, 0
17, 302160, Note_on_c, 12, 73, 63
17, 302259, Note_on_c, 12, 73, 0
17, 302280, Note_on_c, 12, 74, 65
17, 302399, Note_on_c, 12, 74, 0
17, 302400, Note_on_c, 12, 62, 66
17, 302519, Note_on_c, 12, 62, 0
17, 302520, Note_on_c, 12, 67, 68
17, 302639, Note_on_c, 12, 67, 0
17, 302640, Note_on_c, 12, 71, 56
17, 302739, Note_on_c, 12, 71, 0
17, 302760, Note_on_c, 12, 74, 44
17, 302879, Note_on_c, 12, 74, 0
17, 303000, Note_on_c, 12, 69, 44
17, 303119, Note_on_c, 12, 69, 0
17, 303240, Note_on_c, 12, 69, 44
17, 303359, Note_on_c, 12, 69, 0
17, 305400, Note_on_c, 12, 74, 44
17, 305489, Note_on_c, 12, 74, 0
17, 305520, Note_on_c, 12, 73, 44
17, 305609, Note_on_c, 12, 73, 0
17, 305640, Note_on_c, 12, 74, 44
17, 305729, Note_on_c, 12, 74, 0
17, 305760, Note_on_c, 12, 71, 44
17, 305849, Note_on_c, 12, 71, 0
17, 305880, Note_on_c, 12, 69, 44
17, 305969, Note_on_c, 12, 69, 0
17, 306000, Note_on_c, 12, 67, 44
17, 306089, Note_on_c, 12, 67, 0
17, 306120, Note_on_c, 12, 66, 44
17, 306209, Note_on_c, 12, 66, 0
17, 306240, Note_on_c, 12, 64, 44
17, 306329, Note_on_c, 12, 64, 0
17, 306360, Note_on_c, 12, 62, 44
17, 306449, Note_on_c, 12, 62, 0
17, 306480, Note_on_c, 12, 60, 44
17, 306569, Note_on_c, 12, 60, 0
17, 306600, Note_on_c, 12, 59, 44
17, 306689, Note_on_c, 12, 59, 0
17, 306720, Note_on_c, 12, 61, 44
17, 306809, Note_on_c, 12, 61, 0
17, 306840, Note_on_c, 12, 62, 44
17, 306929, Note_on_c, 12, 62, 0
17, 306960, Note_on_c, 12, 66, 44
17, 307049, Note_on_c, 12, 66, 0
17, 307080, Note_on_c, 12, 69, 44
17, 307169, Note_on_c, 12, 69, 0
17, 309240, Note_on_c, 12, 74, 44
17, 309329, Note_on_c, 12, 74, 0
17, 309360, Note_on_c, 12, 73, 44
17, 309449, Note_on_c, 12, 73, 0
17, 309480, Note_on_c, 12, 74, 44
17, 309569, Note_on_c, 12, 74, 0
17, 309600, Note_on_c, 12, 71, 44
17, 309689, Note_on_c, 12, 71, 0
17, 309720, Note_on_c, 12, 69, 44
17, 309809, Note_on_c, 12, 69, 0
17, 309840, Note_on_c, 12, 67, 44
17, 309929, Note_on_c, 12, 67, 0
17, 309960, Note_on_c, 12, 66, 44
17, 310049, Note_on_c, 12, 66, 0
17, 310080, Note_on_c, 12, 64, 44
17, 310169, Note_on_c, 12, 64, 0
17, 310200, Note_on_c, 12, 62, 44
17, 310289, Note_on_c, 12, 62, 0
17, 310320, Note_on_c, 12, 60, 44
17, 310409, Note_on_c, 12, 60, 0
17, 310440, Note_on_c, 12, 59, 44
17, 310529, Note_on_c, 12, 59, 0
17, 310560, Note_on_c, 12, 61, 44
17, 310649, Note_on_c, 12, 61, 0
17, 310680, Note_on_c, 12, 62, 44
17, 310769, Note_on_c, 12, 62, 0
17, 310800, Note_on_c, 12, 66, 44
17, 310889, Note_on_c, 12, 66, 0
17, 310920, Note_on_c, 12, 69, 44
17, 311009, Note_on_c, 12, 69, 0
17, 321000, Note_on_c, 12, 62, 80
17, 321060, Control_c, 12, 11, 67
17, 321480, Control_c, 12, 11, 67
17, 321540, Control_c, 12, 11, 68
17, 321600, Control_c, 12, 11, 69
17, 321660, Control_c, 12, 11, 70
17, 321699, Note_on_c, 12, 62, 0
17, 321720, Control_c, 12, 11, 71
17, 321720, Note_on_c, 12, 64, 80
17, 321780, Control_c, 12, 11, 72
17, 321840, Control_c, 12, 11, 73
17, 321900, Control_c, 12, 11, 74
17, 321939, Note_on_c, 12, 64, 0
17, 321960, Control_c, 12, 11, 75
17, 321960, Note_on_c, 12, 66, 80
17, 322020, Control_c, 12, 11, 76
17, 322080, Control_c, 12, 11, 77
17, 322140, Control_c, 12, 11, 78
17, 322200, Control_c, 12, 11, 79
17, 322260, Control_c, 12, 11, 80
17, 322319, Note_on_c, 12, 66, 0
17, 322320, Note_on_c, 12, 67, 80
17, 322320, Control_c, 12, 11, 81
17, 322379, Note_on_c, 12, 67, 0
17, 322380, Control_c, 12, 11, 82
17, 322380, Note_on_c, 12, 69, 80
17, 322419, Note_on_c, 12, 69, 0
17, 322440, Note_on_c, 12, 67, 80
17, 322440, Control_c, 12, 11, 83
17, 322500, Control_c, 12, 11, 84
17, 322529, Note_on_c, 12, 67, 0
17, 322560, Control_c, 12, 11, 85
17, 322560, Note_on_c, 12, 67, 80
17, 322620, Control_c, 12, 11, 86
17, 322649, Note_on_c, 12, 67, 0
17, 322680, Note_on_c, 12, 66, 80
17, 322680, Control_c, 12, 11, 87
17, 322740, Control_c, 12, 11, 88
17, 322769, Note_on_c, 12, 66, 0
17, 322800, Note_on_c, 12, 66, 80
17, 322800, Control_c, 12, 11, 89
17, 322860, Control_c, 12, 11, 90
17, 322889, Note_on_c, 12, 66, 0
17, 322920, Note_on_c, 12, 64, 80
17, 322920, Control_c, 12, 11, 91
17, 322980, Control_c, 12, 11, 92
17, 323040, Control_c, 12, 11, 93
17, 323100, Control_c, 12, 11, 94
17, 323139, Note_on_c, 12, 64, 0
17, 323160, Control_c, 12, 11, 95
17, 323160, Note_on_c, 12, 62, 80
17, 323220, Control_c, 12, 11, 96
17, 323280, Control_c, 12, 11, 97
17, 323340, Control_c, 12, 11, 98
17, 323400, Control_c, 12, 11, 99
17, 323460, Control_c, 12, 11, 100
17, 323520, Control_c, 12, 11, 101
17, 323580, Control_c, 12, 11, 102
17, 323619, Note_on_c, 12, 62, 0
17, 323640, Control_c, 12, 11, 103
17, 323640, Note_on_c, 12, 64, 80
17, 323700, Control_c, 12, 11, 104
17, 323760, Control_c, 12, 11, 105
17, 323820, Control_c, 12, 11, 106
17, 323859, Note_on_c, 12, 64, 0
17, 323880, Control_c, 12, 11, 107
17, 323880, Note_on_c, 12, 66, 80
17, 323940, Control_c, 12, 11, 108
17, 324000, Control_c, 12, 11, 109
17, 324060, Control_c, 12, 11, 110
17, 324120, Control_c, 12, 11, 111
17, 324180, Control_c, 12, 11, 112
17, 324239, Note_on_c, 12, 66, 0
17, 324240, Control_c, 12, 11, 113
17, 324240, Note_on_c, 12, 67, 80
17, 324299, Note_on_c, 12, 67, 0
17, 324300, Note_on_c, 12, 69, 80
17, 324300, Control_c, 12, 11, 114
17, 324339, Note_on_c, 12, 69, 0
17, 324360, Note_on_c, 12, 67, 80
17, 324360, Control_c, 12, 11, 115
17, 324420, Control_c, 12, 11, 116
17, 324449, Note_on_c, 12, 67, 0
17, 324480, Note_on_c, 12, 67, 80
17, 324480, Control_c, 12, 11, 117
17, 324540, Control_c, 12, 11, 118
17, 324569, Note_on_c, 12, 67, 0
17, 324600, Control_c, 12, 11, 119
17, 324600, Note_on_c, 12, 66, 80
17, 324660, Control_c, 12, 11, 120
17, 324689, Note_on_c, 12, 66, 0
17, 324720, Control_c, 12, 11, 121
17, 324720, Note_on_c, 12, 66, 80
17, 324780, Control_c, 12, 11, 122
17, 324809, Note_on_c, 12, 66, 0
17, 324840, Note_on_c, 12, 64, 80
17, 324840, Control_c, 12, 11, 123
17, 324900, Control_c, 12, 11, 124
17, 324959, Note_on_c, 12, 64, 0
17, 324960, Control_c, 12, 11, 125
17, 325020, Control_c, 12, 11, 127
17, 325080, Note_on_c, 12, 62, 80
17, 325539, Note_on_c, 12, 62, 0
17, 325560, Note_on_c, 12, 64, 80
17, 325779, Note_on_c, 12, 64, 0
17, 325800, Note_on_c, 12, 66, 80
17, 326159, Note_on_c, 12, 66, 0
17, 326160, Note_on_c, 12, 67, 80
17, 326219, Note_on_c, 12, 67, 0
17, 326220, Note_on_c, 12, 69, 80
17, 326259, Note_on_c, 12, 69, 0
17, 326280, Note_on_c, 12, 67, 80
17, 326369, Note_on_c, 12, 67, 0
17, 326400, Note_on_c, 12, 67, 80
17, 326489, Note_on_c, 12, 67, 0
17, 326520, Note_on_c, 12, 66, 80
17, 326609, Note_on_c, 12, 66, 0
17, 326640, Note_on_c, 12, 66, 80
17, 326729, Note_on_c, 12, 66, 0
17, 326760, Note_on_c, 12, 64, 80
17, 326979, Note_on_c, 12, 64, 0
17, 327000, Note_on_c, 12, 62, 80
17, 327459, Note_on_c, 12, 62, 0
17, 327480, Note_on_c, 12, 64, 80
17, 327699, Note_on_c, 12, 64, 0
17, 327720, Note_on_c, 12, 66, 80
17, 328079, Note_on_c, 12, 66, 0
17, 328080, Note_on_c, 12, 67, 80
17, 328139, Note_on_c, 12, 67, 0
17, 328140, Note_on_c, 12, 69, 80
17, 328179, Note_on_c, 12, 69, 0
17, 328200, Note_on_c, 12, 71, 80
17, 328289, Note_on_c, 12, 71, 0
17, 328320, Note_on_c, 12, 71, 80
17, 328409, Note_on_c, 12, 71, 0
17, 328440, Note_on_c, 12, 73, 80
17, 328529, Note_on_c, 12, 73, 0
17, 328560, Note_on_c, 12, 73, 80
17, 328649, Note_on_c, 12, 73, 0
17, 328680, Note_on_c, 12, 74, 80
17, 328799, Note_on_c, 12, 74, 0
17, 329640, Control_c, 12, 11, 87
17, 329856, Control_c, 12, 11, 91
17, 329880, Note_on_c, 12, 57, 68
17, 329910, Control_c, 12, 11, 92
17, 329964, Control_c, 12, 11, 93
17, 330018, Control_c, 12, 11, 94
17, 330072, Control_c, 12, 11, 95
17, 330126, Control_c, 12, 11, 96
17, 330180, Control_c, 12, 11, 97
17, 330234, Control_c, 12, 11, 98
17, 330288, Control_c, 12, 11, 99
17, 330342, Control_c, 12, 11, 100
17, 330359, Note_on_c, 12, 57, 0
17, 330360, Note_on_c, 12, 56, 68
17, 330396, Control_c, 12, 11, 101
17, 330450, Control_c, 12, 11, 102
17, 330504, Control_c, 12, 11, 103
17, 330558, Control_c, 12, 11, 104
17, 330579, Note_on_c, 12, 56, 0
17, 330600, Note_on_c, 12, 57, 68
17, 330612, Control_c, 12, 11, 105
17, 330666, Control_c, 12, 11, 106
17, 330720, Control_c, 12, 11, 107
17, 330774, Control_c, 12, 11, 108
17, 330828, Control_c, 12, 11, 109
17, 330839, Note_on_c, 12, 57, 0
17, 330840, Note_on_c, 12, 59, 68
17, 330882, Control_c, 12, 11, 110
17, 330936, Control_c, 12, 11, 111
17, 330959, Note_on_c, 12, 59, 0
17, 330960, Note_on_c, 12, 61, 68
17, 330990, Control_c, 12, 11, 112
17, 331044, Control_c, 12, 11, 113
17, 331079, Note_on_c, 12, 61, 0
17, 331080, Note_on_c, 12, 62, 68
17, 331098, Control_c, 12, 11, 114
17, 331152, Control_c, 12, 11, 115
17, 331199, Note_on_c, 12, 62, 0
17, 331200, Note_on_c, 12, 61, 68
17, 331206, Control_c, 12, 11, 116
17, 331260, Control_c, 12, 11, 117
17, 331314, Control_c, 12, 11, 118
17, 331319, Note_on_c, 12, 61, 0
17, 331320, Note_on_c, 12, 62, 68
17, 331368, Control_c, 12, 11, 119
17, 331422, Control_c, 12, 11, 120
17, 331439, Note_on_c, 12, 62, 0
17, 331440, Note_on_c, 12, 64, 68
17, 331476, Control_c, 12, 11, 121
17, 331530, Control_c, 12, 11, 122
17, 331539, Note_on_c, 12, 64, 0
17, 331560, Note_on_c, 12, 57, 68
17, 331584, Control_c, 12, 11, 123
17, 331638, Control_c, 12, 11, 124
17, 331679, Note_on_c, 12, 57, 0
17, 331680, Note_on_c, 12, 69, 68
17, 331692, Control_c, 12, 11, 125
17, 331746, Control_c, 12, 11, 127
17, 331799, Note_on_c, 12, 69, 0
17, 331800, Note_on_c, 12, 67, 68
17, 331800, Note_on_c, 12, 55, 68
17, 331919, Note_on_c, 12, 67, 0
17, 331919, Note_on_c, 12, 55, 0
17, 331920, Note_on_c, 12, 71, 56
17, 332019, Note_on_c, 12, 71, 0
17, 332040, Note_on_c, 12, 74, 44
17, 332040, Note_on_c, 12, 62, 44
17, 332159, Note_on_c, 12, 74, 0
17, 332159, Note_on_c, 12, 62, 0
17, 332280, Note_on_c, 12, 73, 44
17, 332280, Note_on_c, 12, 64, 44
17, 332399, Note_on_c, 12, 73, 0
17, 332399, Note_on_c, 12, 64, 0
17, 332520, Note_on_c, 12, 66, 44
17, 332520, Note_on_c, 12, 74, 44
17, 332619, Note_on_c, 12, 66, 0
17, 332619, Note_on_c, 12, 74, 0
17, 333600, Note_on_c, 12, 69, 44
17, 333719, Note_on_c, 12, 69, 0
17, 333720, Note_on_c, 12, 68, 44
17, 333839, Note_on_c, 12, 68, 0
17, 333840, Note_on_c, 12, 69, 45
17, 333959, Note_on_c, 12, 69, 0
17, 333960, Note_on_c, 12, 71, 47
17, 334079, Note_on_c, 12, 71, 0
17, 334080, Note_on_c, 12, 64, 48
17, 334199, Note_on_c, 12, 64, 0
17, 334200, Note_on_c, 12, 66, 50
17, 334319, Note_on_c, 12, 66, 0
17, 334320, Note_on_c, 12, 68, 51
17, 334439, Note_on_c, 12, 68, 0
17, 334440, Note_on_c, 12, 69, 53
17, 334559, Note_on_c, 12, 69, 0
17, 334680, Note_on_c, 12, 66, 56
17, 334799, Note_on_c, 12, 66, 0
17, 334800, Note_on_c, 12, 67, 57
17, 334919, Note_on_c, 12, 67, 0
17, 334920, Note_on_c, 12, 69, 59
17, 335039, Note_on_c, 12, 69, 0
17, 335040, Note_on_c, 12, 67, 60
17, 335159, Note_on_c, 12, 67, 0
17, 335160, Note_on_c, 12, 62, 62
17, 335279, Note_on_c, 12, 62, 0
17, 335280, Note_on_c, 12, 73, 63
17, 335379, Note_on_c, 12, 73, 0
17, 335400, Note_on_c, 12, 74, 65
17, 335519, Note_on_c, 12, 74, 0
17, 335520, Note_on_c, 12, 62, 66
17, 335639, Note_on_c, 12, 62, 0
17, 335640, Note_on_c, 12, 67, 68
17, 335759, Note_on_c, 12, 67, 0
17, 335760, Note_on_c, 12, 71, 56
17, 335859, Note_on_c, 12, 71, 0
17, 335880, Note_on_c, 12, 74, 44
17, 335999, Note_on_c, 12, 74, 0
17, 336120, Note_on_c, 12, 69, 44
17, 336239, Note_on_c, 12, 69, 0
17, 336360, Note_on_c, 12, 69, 44
17, 336479, Note_on_c, 12, 69, 0
17, 338520, Note_on_c, 12, 74, 44
17, 338609, Note_on_c, 12, 74, 0
17, 338640, Note_on_c, 12, 73, 44
17, 338729, Note_on_c, 12, 73, 0
17, 338760, Note_on_c, 12, 74, 44
17, 338849, Note_on_c, 12, 74, 0
17, 338880, Note_on_c, 12, 71, 44
17, 338969, Note_on_c, 12, 71, 0
17, 339000, Note_on_c, 12, 69, 44
17, 339089, Note_on_c, 12, 69, 0
17, 339120, Note_on_c, 12, 67, 44
17, 339209, Note_on_c, 12, 67, 0
17, 339240, Note_on_c, 12, 66, 44
17, 339329, Note_on_c, 12, 66, 0
17, 339360, Note_on_c, 12, 64, 44
17, 339449, Note_on_c, 12, 64, 0
17, 339480, Note_on_c, 12, 62, 44
17, 339569, Note_on_c, 12, 62, 0
17, 339600, Note_on_c, 12, 60, 44
17, 339689, Note_on_c, 12, 60, 0
17, 339720, Note_on_c, 12, 59, 44
17, 339809, Note_on_c, 12, 59, 0
17, 339840, Note_on_c, 12, 61, 44
17, 339929, Note_on_c, 12, 61, 0
17, 339960, Note_on_c, 12, 62, 44
17, 340049, Note_on_c, 12, 62, 0
17, 340080, Note_on_c, 12, 66, 44
17, 340169, Note_on_c, 12, 66, 0
17, 340200, Note_on_c, 12, 69, 44
17, 340289, Note_on_c, 12, 69, 0
17, 342360, Note_on_c, 12, 74, 44
17, 342449, Note_on_c, 12, 74, 0
17, 342480, Note_on_c, 12, 73, 44
17, 342569, Note_on_c, 12, 73, 0
17, 342600, Note_on_c, 12, 74, 44
17, 342689, Note_on_c, 12, 74, 0
17, 342720, Note_on_c, 12, 71, 44
17, 342809, Note_on_c, 12, 71, 0
17, 342840, Note_on_c, 12, 69, 44
17, 342929, Note_on_c, 12, 69, 0
17, 342960, Note_on_c, 12, 67, 44
17, 343049, Note_on_c, 12, 67, 0
17, 343080, Note_on_c, 12, 66, 44
17, 343169, Note_on_c, 12, 66, 0
17, 343200, Note_on_c, 12, 64, 44
17, 343289, Note_on_c, 12, 64, 0
17, 343320, Note_on_c, 12, 62, 44
17, 343409, Note_on_c, 12, 62, 0
17, 343440, Note_on_c, 12, 60, 44
17, 343529, Note_on_c, 12, 60, 0
17, 343560, Note_on_c, 12, 59, 44
17, 343649, Note_on_c, 12, 59, 0
17, 343680, Note_on_c, 12, 61, 44
17, 343769, Note_on_c, 12, 61, 0
17, 343800, Note_on_c, 12, 62, 44
17, 343889, Note_on_c, 12, 62, 0
17, 343920, Note_on_c, 12, 66, 44
17, 344009, Note_on_c, 12, 66, 0
17, 344040, Note_on_c, 12, 69, 44
17, 344129, Note_on_c, 12, 69, 0
17, 354120, Note_on_c, 12, 62, 80
17, 354180, Control_c, 12, 11, 67
17, 354600, Control_c, 12, 11, 67
17, 354660, Control_c, 12, 11, 68
17, 354720, Control_c, 12, 11, 69
17, 354780, Control_c, 12, 11, 70
17, 354819, Note_on_c, 12, 62, 0
17, 354840, Control_c, 12, 11, 71
17, 354840, Note_on_c, 12, 64, 80
17, 354900, Control_c, 12, 11, 72
17, 354960, Control_c, 12, 11, 73
17, 355020, Control_c, 12, 11, 74
17, 355059, Note_on_c, 12, 64, 0
17, 355080, Note_on_c, 12, 66, 80
17, 355080, Control_c, 12, 11, 75
17, 355140, Control_c, 12, 11, 76
17, 355200, Control_c, 12, 11, 77
17, 355260, Control_c, 12, 11, 78
17, 355320, Control_c, 12, 11, 79
17, 355380, Control_c, 12, 11, 80
17, 355439, Note_on_c, 12, 66, 0
17, 355440, Note_on_c, 12, 67, 80
17, 355440, Control_c, 12, 11, 81
17, 355499, Note_on_c, 12, 67, 0
17, 355500, Control_c, 12, 11, 82
17, 355500, Note_on_c, 12, 69, 80
17, 355539, Note_on_c, 12, 69, 0
17, 355560, Note_on_c, 12, 67, 80
17, 355560, Control_c, 12, 11, 83
17, 355620, Control_c, 12, 11, 84
17, 355649, Note_on_c, 12, 67, 0
17, 355680, Control_c, 12, 11, 85
17, 355680, Note_on_c, 12, 67, 80
17, 355740, Control_c, 12, 11, 86
17, 355769, Note_on_c, 12, 67, 0
17, 355800, Note_on_c, 12, 66, 80
17, 355800, Control_c, 12, 11, 87
17, 355860, Control_c, 12, 11, 88
17, 355889, Note_on_c, 12, 66, 0
17, 355920, Note_on_c, 12, 66, 80
17, 355920, Control_c, 12, 11, 89
17, 355980, Control_c, 12, 11, 90
17, 356009, Note_on_c, 12, 66, 0
17, 356040, Note_on_c, 12, 64, 80
17, 356040, Control_c, 12, 11, 91
17, 356100, Control_c, 12, 11, 92
17, 356160, Control_c, 12, 11, 93
17, 356220, Control_c, 12, 11, 94
17, 356259, Note_on_c, 12, 64, 0
17, 356280, Note_on_c, 12, 62, 80
17, 356280, Control_c, 12, 11, 95
17, 356340, Control_c, 12, 11, 96
17, 356400, Control_c, 12, 11, 97
17, 356460, Control_c, 12, 11, 98
17, 356520, Control_c, 12, 11, 99
17, 356580, Control_c, 12, 11, 100
17, 356640, Control_c, 12, 11, 101
17, 356700, Control_c, 12, 11, 102
17, 356739, Note_on_c, 12, 62, 0
17, 356760, Note_on_c, 12, 64, 80
17, 356760, Control_c, 12, 11, 103
17, 356820, Control_c, 12, 11, 104
17, 356880, Control_c, 12, 11, 105
17, 356940, Control_c, 12, 11, 106
17, 356979, Note_on_c, 12, 64, 0
17, 357000, Control_c, 12, 11, 107
17, 357000, Note_on_c, 12, 66, 80
17, 357060, Control_c, 12, 11, 108
17, 357120, Control_c, 12, 11, 109
17, 357180, Control_c, 12, 11, 110
17, 357240, Control_c, 12, 11, 111
17, 357300, Control_c, 12, 11, 112
17, 357359, Note_on_c, 12, 66, 0
17, 357360, Control_c, 12, 11, 113
17, 357360, Note_on_c, 12, 67, 80
17, 357419, Note_on_c, 12, 67, 0
17, 357420, Control_c, 12, 11, 114
17, 357420, Note_on_c, 12, 69, 80
17, 357459, Note_on_c, 12, 69, 0
17, 357480, Control_c, 12, 11, 115
17, 357480, Note_on_c, 12, 67, 80
17, 357540, Control_c, 12, 11, 116
17, 357569, Note_on_c, 12, 67, 0
17, 357600, Note_on_c, 12, 67, 80
17, 357600, Control_c, 12, 11, 117
17, 357660, Control_c, 12, 11, 118
17, 357689, Note_on_c, 12, 67, 0
17, 357720, Control_c, 12, 11, 119
17, 357720, Note_on_c, 12, 66, 80
17, 357780, Control_c, 12, 11, 120
17, 357809, Note_on_c, 12, 66, 0
17, 357840, Note_on_c, 12, 66, 80
17, 357840, Control_c, 12, 11, 121
17, 357900, Control_c, 12, 11, 122
17, 357929, Note_on_c, 12, 66, 0
17, 357960, Control_c, 12, 11, 123
17, 357960, Note_on_c, 12, 64, 80
17, 358020, Control_c, 12, 11, 124
17, 358079, Note_on_c, 12, 64, 0
17, 358080, Control_c, 12, 11, 125
17, 358140, Control_c, 12, 11, 127
17, 358200, Note_on_c, 12, 62, 80
17, 358659, Note_on_c, 12, 62, 0
17, 358680, Note_on_c, 12, 64, 80
17, 358899, Note_on_c, 12, 64, 0
17, 358920, Note_on_c, 12, 66, 80
17, 359279, Note_on_c, 12, 66, 0
17, 359280, Note_on_c, 12, 67, 80
17, 359339, Note_on_c, 12, 67, 0
17, 359340, Note_on_c, 12, 69, 80
17, 359379, Note_on_c, 12, 69, 0
17, 359400, Note_on_c, 12, 67, 80
17, 359489, Note_on_c, 12, 67, 0
17, 359520, Note_on_c, 12, 67, 80
17, 359609, Note_on_c, 12, 67, 0
17, 359640, Note_on_c, 12, 66, 80
17, 359729, Note_on_c, 12, 66, 0
17, 359760, Note_on_c, 12, 66, 80
17, 359849, Note_on_c, 12, 66, 0
17, 359880, Note_on_c, 12, 64, 80
17, 360099, Note_on_c, 12, 64, 0
17, 360120, Note_on_c, 12, 62, 80
17, 360579, Note_on_c, 12, 62, 0
17, 360600, Note_on_c, 12, 64, 80
17, 360819, Note_on_c, 12, 64, 0
17, 360840, Note_on_c, 12, 66, 80
17, 361199, Note_on_c, 12, 66, 0
17, 361200, Note_on_c, 12, 67, 80
17, 361259, Note_on_c, 12, 67, 0
17, 361260, Note_on_c, 12, 69, 80
17, 361299, Note_on_c, 12, 69, 0
17, 361320, Note_on_c, 12, 71, 80
17, 361409, Note_on_c, 12, 71, 0
17, 361440, Note_on_c, 12, 71, 80
17, 361529, Note_on_c, 12, 71, 0
17, 361560, Note_on_c, 12, 73, 80
17, 361649, Note_on_c, 12, 73, 0
17, 361680, Note_on_c, 12, 73, 80
17, 361769, Note_on_c, 12, 73, 0
17, 361800, Note_on_c, 12, 74, 80
17, 361800, Note_on_c, 12, 62, 80
17, 361860, Control_c, 12, 11, 67
17, 362759, Note_on_c, 12, 74, 0
17, 362759, Note_on_c, 12, 62, 0
17, 362760, Note_on_c, 12, 62, 80
17, 362760, Note_on_c, 12, 74, 80
17, 363719, Note_on_c, 12, 62, 0
17, 363719, Note_on_c, 12, 74, 0
17, 363720, Note_on_c, 12, 62, 80
17, 363720, Control_c, 12, 11, 67
17, 363720, Note_on_c, 12, 74, 80
17, 363784, Control_c, 12, 11, 68
17, 363848, Control_c, 12, 11, 69
17, 363912, Control_c, 12, 11, 70
17, 363976, Control_c, 12, 11, 71
17, 364040, Control_c, 12, 11, 72
17, 364104, Control_c, 12, 11, 73
17, 364168, Control_c, 12, 11, 74
17, 364232, Control_c, 12, 11, 75
17, 364296, Control_c, 12, 11, 76
17, 364360, Control_c, 12, 11, 77
17, 364424, Control_c, 12, 11, 78
17, 364488, Control_c, 12, 11, 79
17, 364552, Control_c, 12, 11, 80
17, 364616, Control_c, 12, 11, 81
17, 364679, Note_on_c, 12, 62, 0
17, 364679, Note_on_c, 12, 74, 0
17, 364680, Note_on_c, 12, 74, 80
17, 364680, Note_on_c, 12, 62, 80
17, 364680, Control_c, 12, 11, 82
17, 364744, Control_c, 12, 11, 83
17, 364808, Control_c, 12, 11, 84
17, 364872, Control_c, 12, 11, 85
17, 364936, Control_c, 12, 11, 86
17, 365000, Control_c, 12, 11, 87
17, 365064, Control_c, 12, 11, 88
17, 365128, Control_c, 12, 11, 89
17, 365192, Control_c, 12, 11, 90
17, 365256, Control_c, 12, 11, 91
17, 365320, Control_c, 12, 11, 92
17, 365384, Control_c, 12, 11, 93
17, 365448, Control_c, 12, 11, 94
17, 365512, Control_c, 12, 11, 95
17, 365576, Control_c, 12, 11, 96
17, 365639, Note_on_c, 12, 74, 0
17, 365639, Note_on_c, 12, 62, 0
17, 365640, Note_on_c, 12, 62, 80
17, 365640, Control_c, 12, 11, 97
17, 365640, Note_on_c, 12, 74, 80
17, 365704, Control_c, 12, 11, 98
17, 365768, Control_c, 12, 11, 99
17, 365832, Control_c, 12, 11, 100
17, 365896, Control_c, 12, 11, 101
17, 365960, Control_c, 12, 11, 102
17, 366024, Control_c, 12, 11, 103
17, 366088, Control_c, 12, 11, 104
17, 366152, Control_c, 12, 11, 105
17, 366216, Control_c, 12, 11, 106
17, 366280, Control_c, 12, 11, 107
17, 366344, Control_c, 12, 11, 108
17, 366408, Control_c, 12, 11, 109
17, 366472, Control_c, 12, 11, 110
17, 366536, Control_c, 12, 11, 111
17, 366599, Note_on_c, 12, 62, 0
17, 366599, Note_on_c, 12, 74, 0
17, 366600, Control_c, 12, 11, 112
17, 366600, Note_on_c, 12, 62, 80
17, 366600, Note_on_c, 12, 74, 80
17, 366664, Control_c, 12, 11, 113
17, 366728, Control_c, 12, 11, 114
17, 366792, Control_c, 12, 11, 115
17, 366856, Control_c, 12, 11, 116
17, 366920, Control_c, 12, 11, 117
17, 366984, Control_c, 12, 11, 118
17, 367048, Control_c, 12, 11, 119
17, 367112, Control_c, 12, 11, 120
17, 367176, Control_c, 12, 11, 121
17, 367240, Control_c, 12, 11, 122
17, 367304, Control_c, 12, 11, 123
17, 367368, Control_c, 12, 11, 124
17, 367432, Control_c, 12, 11, 125
17, 367496, Control_c, 12, 11, 127
17, 367539, Note_on_c, 12, 62, 0
17, 367539, Note_on_c, 12, 74, 0
17, 367560, Note_on_c, 12, 62, 80
17, 367560, Note_on_c, 12, 74, 80
17, 367739, Note_on_c, 12, 62, 0
17, 367739, Note_on_c, 12, 74, 0
17, 367800, Note_on_c, 12, 74, 80
17, 367800, Note_on_c, 12, 62, 80
17, 367979, Note_on_c, 12, 74, 0
17, 367979, Note_on_c, 12, 62, 0
17, 368040, Note_on_c, 12, 64, 80
17, 368040, Note_on_c, 12, 73, 80
17, 368219, Note_on_c, 12, 64, 0
17, 368219, Note_on_c, 12, 73, 0
17, 368280, Note_on_c, 12, 64, 80
17, 368280, Note_on_c, 12, 73, 80
17, 368459, Note_on_c, 12, 64, 0
17, 368459, Note_on_c, 12, 73, 0
17, 368520, Note_on_c, 12, 74, 80
17, 368520, Note_on_c, 12, 62, 80
17, 368520, Control_c, 12, 11, 127
17, 368560, Control_c, 12, 11, 125
17, 368600, Control_c, 12, 11, 122
17, 368640, Control_c, 12, 11, 120
17, 368680, Control_c, 12, 11, 117
17, 368699, Note_on_c, 12, 74, 0
17, 368699, Note_on_c, 12, 62, 0
17, 368720, Control_c, 12, 11, 115
17, 368760, Note_on_c, 12, 74, 80
17, 368760, Control_c, 12, 11, 112
17, 368760, Note_on_c, 12, 62, 80
17, 368800, Control_c, 12, 11, 110
17, 368840, Control_c, 12, 11, 107
17, 368880, Control_c, 12, 11, 105
17, 368920, Control_c, 12, 11, 102
17, 368939, Note_on_c, 12, 74, 0
17, 368939, Note_on_c, 12, 62, 0
17, 368960, Control_c, 12, 11, 100
17, 369000, Note_on_c, 12, 64, 80
17, 369000, Control_c, 12, 11, 97
17, 369000, Note_on_c, 12, 73, 80
17, 369040, Control_c, 12, 11, 95
17, 369080, Control_c, 12, 11, 92
17, 369120, Control_c, 12, 11, 90
17, 369160, Control_c, 12, 11, 87
17, 369179, Note_on_c, 12, 64, 0
17, 369179, Note_on_c, 12, 73, 0
17, 369200, Control_c, 12, 11, 85
17, 369240, Control_c, 12, 11, 82
17, 369240, Note_on_c, 12, 64, 80
17, 369240, Note_on_c, 12, 73, 80
17, 369280, Control_c, 12, 11, 80
17, 369320, Control_c, 12, 11, 77
17, 369360, Control_c, 12, 11, 75
17, 369400, Control_c, 12, 11, 72
17, 369419, Note_on_c, 12, 64, 0
17, 369419, Note_on_c, 12, 73, 0
17, 369440, Control_c, 12, 11, 70
17, 369478, Control_c, 12, 11, 67
17, 369480, Note_on_c, 12, 62, 80
17, 369480, Note_on_c, 12, 74, 80
17, 369720, Control_c, 12, 11, 67
17, 369780, Control_c, 12, 11, 68
17, 369840, Control_c, 12, 11, 69
17, 369900, Control_c, 12, 11, 70
17, 369960, Control_c, 12, 11, 71
17, 370020, Control_c, 12, 11, 72
17, 370080, Control_c, 12, 11, 73
17, 370140, Control_c, 12, 11, 74
17, 370200, Control_c, 12, 11, 75
17, 370260, Control_c, 12, 11, 76
17, 370320, Control_c, 12, 11, 77
17, 370380, Control_c, 12, 11, 78
17, 370439, Note_on_c, 12, 62, 0
17, 370439, Note_on_c, 12, 74, 0
17, 370440, Note_on_c, 12, 74, 80
17, 370440, Note_on_c, 12, 62, 80
17, 370440, Control_c, 12, 11, 79
17, 370500, Control_c, 12, 11, 80
17, 370560, Control_c, 12, 11, 81
17, 370620, Control_c, 12, 11, 82
17, 370680, Control_c, 12, 11, 83
17, 370740, Control_c, 12, 11, 84
17, 370800, Control_c, 12, 11, 85
17, 370860, Control_c, 12, 11, 86
17, 370920, Control_c, 12, 11, 87
17, 370980, Control_c, 12, 11, 88
17, 371040, Control_c, 12, 11, 89
17, 371100, Control_c, 12, 11, 90
17, 371160, Control_c, 12, 11, 91
17, 371220, Control_c, 12, 11, 92
17, 371280, Control_c, 12, 11, 93
17, 371340, Control_c, 12, 11, 94
17, 371399, Note_on_c, 12, 74, 0
17, 371399, Note_on_c, 12, 62, 0
17, 371400, Control_c, 12, 11, 95
17, 371400, Note_on_c, 12, 74, 80
17, 371400, Note_on_c, 12, 62, 80
17, 371460, Control_c, 12, 11, 96
17, 371520, Control_c, 12, 11, 97
17, 371580, Control_c, 12, 11, 98
17, 371640, Control_c, 12, 11, 99
17, 371700, Control_c, 12, 11, 100
17, 371760, Control_c, 12, 11, 101
17, 371820, Control_c, 12, 11, 102
17, 371880, Control_c, 12, 11, 103
17, 371940, Control_c, 12, 11, 104
17, 372000, Control_c, 12, 11, 105
17, 372060, Control_c, 12, 11, 106
17, 372120, Control_c, 12, 11, 107
17, 372180, Control_c, 12, 11, 108
17, 372240, Control_c, 12, 11, 109
17, 372300, Control_c, 12, 11, 110
17, 372359, Note_on_c, 12, 74, 0
17, 372359, Note_on_c, 12, 62, 0
17, 372360, Note_on_c, 12, 74, 80
17, 372360, Control_c, 12, 11, 111
17, 372360, Note_on_c, 12, 62, 80
17, 372420, Control_c, 12, 11, 112
17, 372480, Control_c, 12, 11, 113
17, 372540, Control_c, 12, 11, 114
17, 372600, Control_c, 12, 11, 115
17, 372660, Control_c, 12, 11, 116
17, 372720, Control_c, 12, 11, 117
17, 372780, Control_c, 12, 11, 118
17, 372840, Control_c, 12, 11, 119
17, 372900, Control_c, 12, 11, 120
17, 372960, Control_c, 12, 11, 121
17, 373020, Control_c, 12, 11, 122
17, 373080, Control_c, 12, 11, 123
17, 373140, Control_c, 12, 11, 124
17, 373200, Control_c, 12, 11, 125
17, 373260, Control_c, 12, 11, 126
17, 373299, Note_on_c, 12, 74, 0
17, 373299, Note_on_c, 12, 62, 0
17, 373320, Note_on_c, 12, 74, 80
17, 373320, Note_on_c, 12, 62, 80
17, 373320, Control_c, 12, 11, 127
17, 373499, Note_on_c, 12, 74, 0
17, 373499, Note_on_c, 12, 62, 0
17, 373560, Note_on_c, 12, 74, 80
17, 373560, Note_on_c, 12, 62, 80
17, 373739, Note_on_c, 12, 74, 0
17, 373739, Note_on_c, 12, 62, 0
17, 373800, Note_on_c, 12, 64, 80
17, 373800, Note_on_c, 12, 73, 80
17, 373979, Note_on_c, 12, 64, 0
17, 373979, Note_on_c, 12, 73, 0
17, 374040, Note_on_c, 12, 64, 80
17, 374040, Note_on_c, 12, 73, 80
17, 374219, Note_on_c, 12, 64, 0
17, 374219, Note_on_c, 12, 73, 0
17, 374280, Note_on_c, 12, 62, 80
17, 374280, Note_on_c, 12, 74, 80
17, 374459, Note_on_c, 12, 62, 0
17, 374459, Note_on_c, 12, 74, 0
17, 374520, Note_on_c, 12, 74, 79
17, 374520, Note_on_c, 12, 62, 79
17, 374699, Note_on_c, 12, 74, 0
17, 374699, Note_on_c, 12, 62, 0
17, 374760, Note_on_c, 12, 73, 77
17, 374760, Note_on_c, 12, 64, 77
17, 374939, Note_on_c, 12, 73, 0
17, 374939, Note_on_c, 12, 64, 0
17, 375000, Note_on_c, 12, 64, 75
17, 375000, Note_on_c, 12, 73, 75
17, 375179, Note_on_c, 12, 64, 0
17, 375179, Note_on_c, 12, 73, 0
17, 375240, Note_on_c, 12, 74, 73
17, 375240, Note_on_c, 12, 62, 73
17, 375419, Note_on_c, 12, 74, 0
17, 375419, Note_on_c, 12, 62, 0
17, 375480, Note_on_c, 12, 62, 71
17, 375480, Note_on_c, 12, 74, 71
17, 375659, Note_on_c, 12, 62, 0
17, 375659, Note_on_c, 12, 74, 0
17, 375720, Note_on_c, 12, 73, 69
17, 375720, Note_on_c, 12, 64, 69
17, 375899, Note_on_c, 12, 73, 0
17, 375899, Note_on_c, 12, 64, 0
17, 375960, Note_on_c, 12, 73, 68
17, 375960, Note_on_c, 12, 64, 68
17, 376139, Note_on_c, 12, 73, 0
17, 376139, Note_on_c, 12, 64, 0
17, 376200, Note_on_c, 12, 74, 66
17, 376200, Note_on_c, 12, 62, 66
17, 376379, Note_on_c, 12, 74, 0
17, 376379, Note_on_c, 12, 62, 0
17, 376440, Note_on_c, 12, 74, 64
17, 376440, Note_on_c, 12, 62, 64
17, 376619, Note_on_c, 12, 74, 0
17, 376619, Note_on_c, 12, 62, 0
17, 376680, Note_on_c, 12, 64, 62
17, 376680, Note_on_c, 12, 73, 62
17, 376859, Note_on_c, 12, 64, 0
17, 376859, Note_on_c, 12, 73, 0
17, 376920, Note_on_c, 12, 73, 60
17, 376920, Note_on_c, 12, 64, 60
17, 377099, Note_on_c, 12, 73, 0
17, 377099, Note_on_c, 12, 64, 0
17, 377160, Note_on_c, 12, 62, 58
17, 377160, Note_on_c, 12, 74, 58
17, 378119, Note_on_c, 12, 62, 0
17, 378119, Note_on_c, 12, 74, 0
17, 378120, Note_on_c, 12, 62, 51
17, 378120, Note_on_c, 12, 74, 51
17, 379079, Note_on_c, 12, 62, 0
17, 379079, Note_on_c, 12, 74, 0
17, 379080, Note_on_c, 12, 74, 44
17, 379080, Note_on_c, 12, 62, 44
17, 380019, Note_on_c, 12, 74, 0
17, 380019, Note_on_c, 12, 62, 0
17, 380040, Note_on_c, 12, 74, 36
17, 380159, Note_on_c, 12, 74, 0
17, 380160, Note_on_c, 12, 71, 35
17, 380279, Note_on_c, 12, 71, 0
17, 380280, Note_on_c, 12, 69, 34
17, 380399, Note_on_c, 12, 69, 0
17, 380400, Note_on_c, 12, 67, 33
17, 380499, Note_on_c, 12, 67, 0
17, 380520, Note_on_c, 12, 62, 32
17, 380520, Note_on_c, 12, 74, 32
17, 381209, Note_on_c, 12, 62, 0
17, 381209, Note_on_c, 12, 74, 0
17, 381240, Note_on_c, 12, 86, 92
17, 381404, Note_on_c, 12, 86, 0
17, 381420, Note_on_c, 12, 74, 92
17, 381464, Note_on_c, 12, 74, 0
17, 381480, Note_on_c, 12, 74, 92
17, 381599, Note_on_c, 12, 74, 0
17, 381960, Note_on_c, 12, 81, 104
17, 381989, Note_on_c, 12, 81, 0
17, 381990, Note_on_c, 12, 81, 92
17, 382109, Note_on_c, 12, 81, 0
17, 382140, Note_on_c, 12, 69, 92
17, 382184, Note_on_c, 12, 69, 0
17, 382200, Note_on_c, 12, 69, 92
17, 382319, Note_on_c, 12, 69, 0
17, 383040, Note_on_c, 12, 74, 92
17, 383204, Note_on_c, 12, 74, 0
17, 383220, Note_on_c, 12, 62, 92
17, 383264, Note_on_c, 12, 62, 0
17, 383280, Note_on_c, 12, 62, 92
17, 383399, Note_on_c, 12, 62, 0
17, 384120, Note_on_c, 12, 81, 32
17, 384284, Note_on_c, 12, 81, 0
17, 384300, Note_on_c, 12, 69, 32
17, 384344, Note_on_c, 12, 69, 0
17, 384360, Note_on_c, 12, 69, 32
17, 384464, Note_on_c, 12, 69, 0
17, 384480, Note_on_c, 12, 74, 32
17, 384569, Note_on_c, 12, 74, 0
17, 384600, Note_on_c, 12, 76, 32
17, 384689, Note_on_c, 12, 76, 0
17, 384720, Note_on_c, 12, 77, 32
17, 384809, Note_on_c, 12, 77, 0
17, 384840, Note_on_c, 12, 76, 32
17, 384929, Note_on_c, 12, 76, 0
17, 384960, Note_on_c, 12, 77, 32
17, 385049, Note_on_c, 12, 77, 0
17, 385080, Note_on_c, 12, 79, 32
17, 385169, Note_on_c, 12, 79, 0
17, 385200, Note_on_c, 12, 77, 32
17, 385289, Note_on_c, 12, 77, 0
17, 385320, Note_on_c, 12, 76, 32
17, 385409, Note_on_c, 12, 76, 0
17, 385440, Note_on_c, 12, 74, 32
17, 385529, Note_on_c, 12, 74, 0
17, 385560, Note_on_c, 12, 77, 32
17, 385649, Note_on_c, 12, 77, 0
17, 385680, Note_on_c, 12, 76, 32
17, 385769, Note_on_c, 12, 76, 0
17, 385800, Note_on_c, 12, 74, 32
17, 385889, Note_on_c, 12, 74, 0
17, 385920, Note_on_c, 12, 72, 32
17, 386009, Note_on_c, 12, 72, 0
17, 386040, Note_on_c, 12, 71, 32
17, 386129, Note_on_c, 12, 71, 0
17, 386160, Note_on_c, 12, 69, 32
17, 386249, Note_on_c, 12, 69, 0
17, 386280, Note_on_c, 12, 68, 32
17, 386369, Note_on_c, 12, 68, 0
17, 386400, Note_on_c, 12, 69, 32
17, 386489, Note_on_c, 12, 69, 0
17, 386520, Note_on_c, 12, 71, 32
17, 386609, Note_on_c, 12, 71, 0
17, 386640, Note_on_c, 12, 69, 32
17, 386729, Note_on_c, 12, 69, 0
17, 386760, Note_on_c, 12, 68, 32
17, 386849, Note_on_c, 12, 68, 0
17, 386880, Note_on_c, 12, 69, 32
17, 386969, Note_on_c, 12, 69, 0
17, 387000, Note_on_c, 12, 67, 32
17, 387089, Note_on_c, 12, 67, 0
17, 387120, Note_on_c, 12, 65, 32
17, 387209, Note_on_c, 12, 65, 0
17, 387240, Note_on_c, 12, 64, 32
17, 387329, Note_on_c, 12, 64, 0
17, 387360, Note_on_c, 12, 62, 32
17, 387449, Note_on_c, 12, 62, 0
17, 387480, Note_on_c, 12, 67, 32
17, 387569, Note_on_c, 12, 67, 0
17, 387600, Note_on_c, 12, 69, 32
17, 387689, Note_on_c, 12, 69, 0
17, 387720, Note_on_c, 12, 69, 32
17, 387809, Note_on_c, 12, 69, 0
17, 387840, Note_on_c, 12, 69, 32
17, 387929, Note_on_c, 12, 69, 0
17, 387960, Note_on_c, 12, 69, 32
17, 388049, Note_on_c, 12, 69, 0
17, 388080, Note_on_c, 12, 69, 32
17, 388169, Note_on_c, 12, 69, 0
17, 388200, Note_on_c, 12, 69, 32
17, 388289, Note_on_c, 12, 69, 0
17, 388320, Note_on_c, 12, 81, 32
17, 388409, Note_on_c, 12, 81, 0
17, 388440, Note_on_c, 12, 74, 32
17, 388529, Note_on_c, 12, 74, 0
17, 388560, Note_on_c, 12, 76, 32
17, 388649, Note_on_c, 12, 76, 0
17, 388680, Note_on_c, 12, 77, 32
17, 388769, Note_on_c, 12, 77, 0
17, 388800, Note_on_c, 12, 76, 32
17, 388889, Note_on_c, 12, 76, 0
17, 388920, Note_on_c, 12, 74, 32
17, 389009, Note_on_c, 12, 74, 0
17, 389040, Note_on_c, 12, 72, 32
17, 389129, Note_on_c, 12, 72, 0
17, 389160, Note_on_c, 12, 71, 32
17, 389249, Note_on_c, 12, 71, 0
17, 389280, Note_on_c, 12, 69, 32
17, 389369, Note_on_c, 12, 69, 0
17, 389400, Note_on_c, 12, 68, 32
17, 389489, Note_on_c, 12, 68, 0
17, 389520, Note_on_c, 12, 69, 32
17, 389609, Note_on_c, 12, 69, 0
17, 389640, Note_on_c, 12, 74, 32
17, 389729, Note_on_c, 12, 74, 0
17, 389760, Note_on_c, 12, 72, 32
17, 389849, Note_on_c, 12, 72, 0
17, 389880, Note_on_c, 12, 73, 32
17, 389969, Note_on_c, 12, 73, 0
17, 390000, Note_on_c, 12, 74, 32
17, 390089, Note_on_c, 12, 74, 0
17, 390120, Note_on_c, 12, 76, 32
17, 390209, Note_on_c, 12, 76, 0
17, 390240, Note_on_c, 12, 74, 32
17, 390329, Note_on_c, 12, 74, 0
17, 390360, Note_on_c, 12, 73, 32
17, 390449, Note_on_c, 12, 73, 0
17, 390480, Note_on_c, 12, 74, 32
17, 390569, Note_on_c, 12, 74, 0
17, 390600, Note_on_c, 12, 69, 32
17, 390689, Note_on_c, 12, 69, 0
17, 390720, Note_on_c, 12, 69, 32
17, 390809, Note_on_c, 12, 69, 0
17, 390840, Note_on_c, 12, 69, 32
17, 390929, Note_on_c, 12, 69, 0
17, 390960, Note_on_c, 12, 69, 32
17, 391049, Note_on_c, 12, 69, 0
17, 391080, Note_on_c, 12, 69, 32
17, 391169, Note_on_c, 12, 69, 0
17, 391200, Note_on_c, 12, 69, 32
17, 391289, Note_on_c, 12, 69, 0
17, 391320, Note_on_c, 12, 81, 32
17, 391409, Note_on_c, 12, 81, 0
17, 391440, Note_on_c, 12, 79, 32
17, 391529, Note_on_c, 12, 79, 0
17, 391560, Note_on_c, 12, 77, 32
17, 391649, Note_on_c, 12, 77, 0
17, 391680, Note_on_c, 12, 76, 32
17, 391769, Note_on_c, 12, 76, 0
17, 391800, Note_on_c, 12, 74, 32
17, 391889, Note_on_c, 12, 74, 0
17, 391920, Note_on_c, 12, 72, 32
17, 392009, Note_on_c, 12, 72, 0
17, 392040, Note_on_c, 12, 71, 32
17, 392129, Note_on_c, 12, 71, 0
17, 392160, Note_on_c, 12, 72, 32
17, 392249, Note_on_c, 12, 72, 0
17, 392280, Note_on_c, 12, 74, 32
17, 392369, Note_on_c, 12, 74, 0
17, 392400, Note_on_c, 12, 72, 32
17, 392489, Note_on_c, 12, 72, 0
17, 392520, Note_on_c, 12, 59, 32
17, 392609, Note_on_c, 12, 59, 0
17, 392640, Note_on_c, 12, 60, 32
17, 392729, Note_on_c, 12, 60, 0
17, 392760, Note_on_c, 12, 61, 32
17, 392849, Note_on_c, 12, 61, 0
17, 392880, Note_on_c, 12, 62, 32
17, 392969, Note_on_c, 12, 62, 0
17, 393000, Note_on_c, 12, 64, 32
17, 393089, Note_on_c, 12, 64, 0
17, 393120, Note_on_c, 12, 65, 32
17, 393209, Note_on_c, 12, 65, 0
17, 393240, Note_on_c, 12, 67, 32
17, 393329, Note_on_c, 12, 67, 0
17, 393360, Note_on_c, 12, 69, 32
17, 393449, Note_on_c, 12, 69, 0
17, 393480, Note_on_c, 12, 69, 32
17, 393569, Note_on_c, 12, 69, 0
17, 393600, Note_on_c, 12, 69, 32
17, 393689, Note_on_c, 12, 69, 0
17, 393720, Note_on_c, 12, 69, 32
17, 393809, Note_on_c, 12, 69, 0
17, 393840, Note_on_c, 12, 69, 32
17, 393929, Note_on_c, 12, 69, 0
17, 393960, Note_on_c, 12, 69, 32
17, 394049, Note_on_c, 12, 69, 0
17, 394080, Note_on_c, 12, 69, 32
17, 394169, Note_on_c, 12, 69, 0
17, 394200, Note_on_c, 12, 74, 32
17, 394289, Note_on_c, 12, 74, 0
17, 394320, Note_on_c, 12, 72, 32
17, 394409, Note_on_c, 12, 72, 0
17, 394440, Note_on_c, 12, 68, 32
17, 394529, Note_on_c, 12, 68, 0
17, 394560, Note_on_c, 12, 69, 32
17, 394649, Note_on_c, 12, 69, 0
17, 394680, Note_on_c, 12, 68, 32
17, 394769, Note_on_c, 12, 68, 0
17, 394800, Note_on_c, 12, 69, 32
17, 394889, Note_on_c, 12, 69, 0
17, 394920, Note_on_c, 12, 59, 32
17, 395009, Note_on_c, 12, 59, 0
17, 395040, Note_on_c, 12, 60, 32
17, 395129, Note_on_c, 12, 60, 0
17, 395160, Note_on_c, 12, 56, 32
17, 395249, Note_on_c, 12, 56, 0
17, 395280, Note_on_c, 12, 64, 32
17, 395369, Note_on_c, 12, 64, 0
17, 395400, Note_on_c, 12, 62, 32
17, 395489, Note_on_c, 12, 62, 0
17, 395520, Note_on_c, 12, 60, 32
17, 395609, Note_on_c, 12, 60, 0
17, 395640, Note_on_c, 12, 70, 32
17, 395729, Note_on_c, 12, 70, 0
17, 395760, Note_on_c, 12, 69, 32
17, 395849, Note_on_c, 12, 69, 0
17, 395880, Note_on_c, 12, 67, 32
17, 395969, Note_on_c, 12, 67, 0
17, 396000, Note_on_c, 12, 65, 32
17, 396089, Note_on_c, 12, 65, 0
17, 396120, Note_on_c, 12, 64, 32
17, 396209, Note_on_c, 12, 64, 0
17, 396240, Note_on_c, 12, 62, 32
17, 396329, Note_on_c, 12, 62, 0
17, 396360, Note_on_c, 12, 61, 32
17, 396449, Note_on_c, 12, 61, 0
17, 396480, Note_on_c, 12, 62, 32
17, 396569, Note_on_c, 12, 62, 0
17, 396600, Note_on_c, 12, 64, 32
17, 396689, Note_on_c, 12, 64, 0
17, 396720, Note_on_c, 12, 62, 32
17, 396809, Note_on_c, 12, 62, 0
17, 396840, Note_on_c, 12, 61, 32
17, 396929, Note_on_c, 12, 61, 0
17, 396960, Note_on_c, 12, 62, 32
17, 397049, Note_on_c, 12, 62, 0
17, 397080, Note_on_c, 12, 64, 32
17, 397169, Note_on_c, 12, 64, 0
17, 397200, Note_on_c, 12, 65, 33
17, 397289, Note_on_c, 12, 65, 0
17, 397320, Note_on_c, 12, 67, 35
17, 397409, Note_on_c, 12, 67, 0
17, 397440, Note_on_c, 12, 65, 37
17, 397529, Note_on_c, 12, 65, 0
17, 397560, Note_on_c, 12, 64, 38
17, 397649, Note_on_c, 12, 64, 0
17, 397680, Note_on_c, 12, 65, 40
17, 397769, Note_on_c, 12, 65, 0
17, 397800, Note_on_c, 12, 64, 42
17, 397889, Note_on_c, 12, 64, 0
17, 397920, Note_on_c, 12, 65, 43
17, 398009, Note_on_c, 12, 65, 0
17, 398040, Note_on_c, 12, 67, 45
17, 398129, Note_on_c, 12, 67, 0
17, 398160, Note_on_c, 12, 65, 47
17, 398249, Note_on_c, 12, 65, 0
17, 398280, Note_on_c, 12, 64, 48
17, 398369, Note_on_c, 12, 64, 0
17, 398400, Note_on_c, 12, 65, 50
17, 398489, Note_on_c, 12, 65, 0
17, 398520, Note_on_c, 12, 64, 52
17, 398609, Note_on_c, 12, 64, 0
17, 398640, Note_on_c, 12, 65, 53
17, 398729, Note_on_c, 12, 65, 0
17, 398760, Note_on_c, 12, 67, 55
17, 398849, Note_on_c, 12, 67, 0
17, 398880, Note_on_c, 12, 65, 57
17, 398969, Note_on_c, 12, 65, 0
17, 399000, Note_on_c, 12, 64, 58
17, 399089, Note_on_c, 12, 64, 0
17, 399120, Note_on_c, 12, 65, 60
17, 399209, Note_on_c, 12, 65, 0
17, 399240, Note_on_c, 12, 73, 62
17, 399329, Note_on_c, 12, 73, 0
17, 399360, Note_on_c, 12, 74, 63
17, 399449, Note_on_c, 12, 74, 0
17, 399480, Note_on_c, 12, 76, 65
17, 399569, Note_on_c, 12, 76, 0
17, 399600, Note_on_c, 12, 74, 67
17, 399689, Note_on_c, 12, 74, 0
17, 399720, Note_on_c, 12, 73, 68
17, 399809, Note_on_c, 12, 73, 0
17, 399840, Note_on_c, 12, 74, 70
17, 399929, Note_on_c, 12, 74, 0
17, 399960, Note_on_c, 12, 73, 72
17, 400049, Note_on_c, 12, 73, 0
17, 400080, Note_on_c, 12, 74, 73
17, 400169, Note_on_c, 12, 74, 0
17, 400200, Note_on_c, 12, 76, 75
17, 400289, Note_on_c, 12, 76, 0
17, 400320, Note_on_c, 12, 74, 77
17, 400409, Note_on_c, 12, 74, 0
17, 400440, Note_on_c, 12, 73, 78
17, 400529, Note_on_c, 12, 73, 0
17, 400560, Note_on_c, 12, 74, 80
17, 400649, Note_on_c, 12, 74, 0
17, 400680, Note_on_c, 12, 64, 82
17, 400680, Note_on_c, 12, 73, 82
17, 400769, Note_on_c, 12, 64, 0
17, 400769, Note_on_c, 12, 73, 0
17, 400800, Note_on_c, 12, 74, 83
17, 400889, Note_on_c, 12, 74, 0
17, 400920, Note_on_c, 12, 76, 85
17, 401009, Note_on_c, 12, 76, 0
17, 401040, Note_on_c, 12, 76, 87
17, 401040, Note_on_c, 12, 64, 87
17, 401144, Note_on_c, 12, 76, 0
17, 401144, Note_on_c, 12, 64, 0
17, 401160, Note_on_c, 12, 77, 89
17, 401264, Note_on_c, 12, 77, 0
17, 401280, Note_on_c, 12, 79, 90
17, 401384, Note_on_c, 12, 79, 0
17, 401400, Note_on_c, 12, 81, 92
17, 401400, Note_on_c, 12, 62, 92
17, 401400, Note_on_c, 12, 69, 92
17, 401519, Note_on_c, 12, 62, 0
17, 401519, Note_on_c, 12, 69, 0
17, 401564, Note_on_c, 12, 81, 0
17, 401580, Note_on_c, 12, 69, 92
17, 401624, Note_on_c, 12, 69, 0
17, 401640, Note_on_c, 12, 69, 92
17, 401744, Note_on_c, 12, 69, 0
17, 401760, Note_on_c, 12, 74, 92
17, 401864, Note_on_c, 12, 74, 0
17, 401880, Note_on_c, 12, 76, 92
17, 401984, Note_on_c, 12, 76, 0
17, 402000, Note_on_c, 12, 77, 92
17, 402104, Note_on_c, 12, 77, 0
17, 402120, Note_on_c, 12, 76, 92
17, 402224, Note_on_c, 12, 76, 0
17, 402240, Note_on_c, 12, 77, 92
17, 402344, Note_on_c, 12, 77, 0
17, 402360, Note_on_c, 12, 79, 92
17, 402464, Note_on_c, 12, 79, 0
17, 402480, Note_on_c, 12, 77, 92
17, 402584, Note_on_c, 12, 77, 0
17, 402600, Note_on_c, 12, 76, 92
17, 402704, Note_on_c, 12, 76, 0
17, 402720, Note_on_c, 12, 74, 92
17, 402824, Note_on_c, 12, 74, 0
17, 402840, Note_on_c, 12, 82, 80
17, 402944, Note_on_c, 12, 82, 0
17, 402960, Note_on_c, 12, 81, 80
17, 403064, Note_on_c, 12, 81, 0
17, 403080, Note_on_c, 12, 79, 80
17, 403184, Note_on_c, 12, 79, 0
17, 403200, Note_on_c, 12, 77, 80
17, 403304, Note_on_c, 12, 77, 0
17, 403320, Note_on_c, 12, 76, 80
17, 403424, Note_on_c, 12, 76, 0
17, 403440, Note_on_c, 12, 74, 80
17, 403544, Note_on_c, 12, 74, 0
17, 403560, Note_on_c, 12, 73, 80
17, 403664, Note_on_c, 12, 73, 0
17, 403680, Note_on_c, 12, 74, 80
17, 403784, Note_on_c, 12, 74, 0
17, 403800, Note_on_c, 12, 76, 80
17, 403904, Note_on_c, 12, 76, 0
17, 403920, Note_on_c, 12, 74, 80
17, 404024, Note_on_c, 12, 74, 0
17, 404040, Note_on_c, 12, 73, 80
17, 404144, Note_on_c, 12, 73, 0
17, 404160, Note_on_c, 12, 74, 80
17, 404264, Note_on_c, 12, 74, 0
17, 404280, Note_on_c, 12, 82, 80
17, 404384, Note_on_c, 12, 82, 0
17, 404400, Note_on_c, 12, 81, 80
17, 404504, Note_on_c, 12, 81, 0
17, 404520, Note_on_c, 12, 79, 80
17, 404624, Note_on_c, 12, 79, 0
17, 404640, Note_on_c, 12, 77, 80
17, 404744, Note_on_c, 12, 77, 0
17, 404760, Note_on_c, 12, 76, 80
17, 404864, Note_on_c, 12, 76, 0
17, 404880, Note_on_c, 12, 74, 80
17, 404984, Note_on_c, 12, 74, 0
17, 405000, Note_on_c, 12, 73, 80
17, 405104, Note_on_c, 12, 73, 0
17, 405120, Note_on_c, 12, 74, 80
17, 405224, Note_on_c, 12, 74, 0
17, 405240, Note_on_c, 12, 76, 80
17, 405344, Note_on_c, 12, 76, 0
17, 405360, Note_on_c, 12, 74, 80
17, 405464, Note_on_c, 12, 74, 0
17, 405480, Note_on_c, 12, 73, 80
17, 405584, Note_on_c, 12, 73, 0
17, 405600, Note_on_c, 12, 74, 80
17, 405704, Note_on_c, 12, 74, 0
17, 405720, Note_on_c, 12, 81, 80
17, 405824, Note_on_c, 12, 81, 0
17, 405840, Note_on_c, 12, 79, 80
17, 405944, Note_on_c, 12, 79, 0
17, 405960, Note_on_c, 12, 77, 80
17, 406064, Note_on_c, 12, 77, 0
17, 406080, Note_on_c, 12, 76, 80
17, 406184, Note_on_c, 12, 76, 0
17, 406200, Note_on_c, 12, 74, 80
17, 406304, Note_on_c, 12, 74, 0
17, 406320, Note_on_c, 12, 72, 80
17, 406424, Note_on_c, 12, 72, 0
17, 406440, Note_on_c, 12, 71, 80
17, 406544, Note_on_c, 12, 71, 0
17, 406560, Note_on_c, 12, 72, 80
17, 406664, Note_on_c, 12, 72, 0
17, 406680, Note_on_c, 12, 74, 80
17, 406784, Note_on_c, 12, 74, 0
17, 406800, Note_on_c, 12, 72, 80
17, 406904, Note_on_c, 12, 72, 0
17, 406920, Note_on_c, 12, 81, 80
17, 407024, Note_on_c, 12, 81, 0
17, 407040, Note_on_c, 12, 81, 80
17, 407144, Note_on_c, 12, 81, 0
17, 407160, Note_on_c, 12, 81, 80
17, 407264, Note_on_c, 12, 81, 0
17, 407280, Note_on_c, 12, 79, 80
17, 407384, Note_on_c, 12, 79, 0
17, 407400, Note_on_c, 12, 77, 80
17, 407504, Note_on_c, 12, 77, 0
17, 407520, Note_on_c, 12, 76, 80
17, 407624, Note_on_c, 12, 76, 0
17, 407640, Note_on_c, 12, 74, 80
17, 407744, Note_on_c, 12, 74, 0
17, 407760, Note_on_c, 12, 72, 80
17, 407864, Note_on_c, 12, 72, 0
17, 407880, Note_on_c, 12, 79, 80
17, 407984, Note_on_c, 12, 79, 0
17, 408000, Note_on_c, 12, 77, 80
17, 408104, Note_on_c, 12, 77, 0
17, 408120, Note_on_c, 12, 76, 80
17, 408224, Note_on_c, 12, 76, 0
17, 408240, Note_on_c, 12, 88, 80
17, 408344, Note_on_c, 12, 88, 0
17, 408360, Note_on_c, 12, 86, 80
17, 408464, Note_on_c, 12, 86, 0
17, 408480, Note_on_c, 12, 84, 80
17, 408584, Note_on_c, 12, 84, 0
17, 408600, Note_on_c, 12, 79, 80
17, 408659, Note_on_c, 12, 79, 0
17, 408660, Note_on_c, 12, 79, 44
17, 408764, Note_on_c, 12, 79, 0
17, 408780, Note_on_c, 12, 67, 44
17, 408824, Note_on_c, 12, 67, 0
17, 408840, Note_on_c, 12, 67, 44
17, 408944, Note_on_c, 12, 67, 0
17, 408958, Control_c, 12, 11, 87
17, 408960, Note_on_c, 12, 79, 68
17, 409124, Note_on_c, 12, 79, 0
17, 409140, Note_on_c, 12, 67, 68
17, 409184, Note_on_c, 12, 67, 0
17, 409200, Note_on_c, 12, 67, 68
17, 409304, Note_on_c, 12, 67, 0
17, 409320, Note_on_c, 12, 79, 68
17, 409320, Control_c, 12, 11, 87
17, 409350, Control_c, 12, 11, 88
17, 409380, Control_c, 12, 11, 89
17, 409410, Control_c, 12, 11, 90
17, 409440, Control_c, 12, 11, 91
17, 409470, Control_c, 12, 11, 93
17, 409484, Note_on_c, 12, 79, 0
17, 409500, Note_on_c, 12, 67, 68
17, 409500, Control_c, 12, 11, 94
17, 409530, Control_c, 12, 11, 95
17, 409544, Note_on_c, 12, 67, 0
17, 409560, Control_c, 12, 11, 96
17, 409560, Note_on_c, 12, 67, 68
17, 409590, Control_c, 12, 11, 97
17, 409620, Control_c, 12, 11, 98
17, 409650, Control_c, 12, 11, 99
17, 409664, Note_on_c, 12, 67, 0
17, 409680, Control_c, 12, 11, 100
17, 409680, Note_on_c, 12, 77, 68
17, 409710, Control_c, 12, 11, 101
17, 409740, Control_c, 12, 11, 103
17, 409770, Control_c, 12, 11, 104
17, 409800, Control_c, 12, 11, 105
17, 409830, Control_c, 12, 11, 106
17, 409844, Note_on_c, 12, 77, 0
17, 409860, Control_c, 12, 11, 107
17, 409860, Note_on_c, 12, 65, 68
17, 409890, Control_c, 12, 11, 108
17, 409904, Note_on_c, 12, 65, 0
17, 409920, Control_c, 12, 11, 109
17, 409920, Note_on_c, 12, 65, 68
17, 409950, Control_c, 12, 11, 110
17, 409980, Control_c, 12, 11, 111
17, 410010, Control_c, 12, 11, 113
17, 410024, Note_on_c, 12, 65, 0
17, 410040, Control_c, 12, 11, 114
17, 410040, Note_on_c, 12, 77, 68
17, 410070, Control_c, 12, 11, 115
17, 410100, Control_c, 12, 11, 116
17, 410130, Control_c, 12, 11, 117
17, 410160, Control_c, 12, 11, 118
17, 410190, Control_c, 12, 11, 119
17, 410204, Note_on_c, 12, 77, 0
17, 410220, Note_on_c, 12, 65, 68
17, 410220, Control_c, 12, 11, 120
17, 410250, Control_c, 12, 11, 121
17, 410264, Note_on_c, 12, 65, 0
17, 410280, Control_c, 12, 11, 123
17, 410280, Note_on_c, 12, 65, 68
17, 410310, Control_c, 12, 11, 124
17, 410340, Control_c, 12, 11, 125
17, 410370, Control_c, 12, 11, 127
17, 410384, Note_on_c, 12, 65, 0
17, 410400, Note_on_c, 12, 76, 68
17, 410564, Note_on_c, 12, 76, 0
17, 410580, Control_c, 12, 11, 127
17, 410580, Note_on_c, 12, 64, 68
17, 410605, Control_c, 12, 11, 126
17, 410624, Note_on_c, 12, 64, 0
17, 410630, Control_c, 12, 11, 125
17, 410640, Note_on_c, 12, 64, 68
17, 410655, Control_c, 12, 11, 124
17, 410680, Control_c, 12, 11, 123
17, 410705, Control_c, 12, 11, 121
17, 410730, Control_c, 12, 11, 120
17, 410744, Note_on_c, 12, 64, 0
17, 410755, Control_c, 12, 11, 119
17, 410760, Note_on_c, 12, 75, 68
17, 410780, Control_c, 12, 11, 118
17, 410805, Control_c, 12, 11, 117
17, 410830, Control_c, 12, 11, 116
17, 410855, Control_c, 12, 11, 115
17, 410880, Control_c, 12, 11, 114
17, 410905, Control_c, 12, 11, 113
17, 410924, Note_on_c, 12, 75, 0
17, 410930, Control_c, 12, 11, 111
17, 410940, Note_on_c, 12, 63, 68
17, 410955, Control_c, 12, 11, 110
17, 410980, Control_c, 12, 11, 109
17, 410984, Note_on_c, 12, 63, 0
17, 411000, Note_on_c, 12, 63, 68
17, 411005, Control_c, 12, 11, 108
17, 411030, Control_c, 12, 11, 107
17, 411055, Control_c, 12, 11, 106
17, 411080, Control_c, 12, 11, 105
17, 411104, Note_on_c, 12, 63, 0
17, 411105, Control_c, 12, 11, 104
17, 411120, Note_on_c, 12, 74, 68
17, 411130, Control_c, 12, 11, 103
17, 411155, Control_c, 12, 11, 101
17, 411180, Control_c, 12, 11, 100
17, 411205, Control_c, 12, 11, 99
17, 411230, Control_c, 12, 11, 98
17, 411255, Control_c, 12, 11, 97
17, 411280, Control_c, 12, 11, 96
17, 411284, Note_on_c, 12, 74, 0
17, 411300, Note_on_c, 12, 62, 68
17, 411305, Control_c, 12, 11, 95
17, 411330, Control_c, 12, 11, 94
17, 411344, Note_on_c, 12, 62, 0
17, 411355, Control_c, 12, 11, 93
17, 411360, Note_on_c, 12, 62, 68
17, 411380, Control_c, 12, 11, 91
17, 411405, Control_c, 12, 11, 90
17, 411430, Control_c, 12, 11, 89
17, 411455, Control_c, 12, 11, 87
17, 411479, Note_on_c, 12, 62, 0
17, 412080, Control_c, 12, 11, 47
17, 412200, Control_c, 12, 11, 47
17, 412200, Note_on_c, 12, 69, 92
17, 412245, Control_c, 12, 11, 49
17, 412290, Control_c, 12, 11, 50
17, 412335, Control_c, 12, 11, 52
17, 412364, Note_on_c, 12, 69, 0
17, 412380, Note_on_c, 12, 57, 92
17, 412380, Control_c, 12, 11, 54
17, 412424, Note_on_c, 12, 57, 0
17, 412425, Control_c, 12, 11, 55
17, 412440, Note_on_c, 12, 57, 92
17, 412470, Control_c, 12, 11, 57
17, 412515, Control_c, 12, 11, 59
17, 412544, Note_on_c, 12, 57, 0
17, 412560, Control_c, 12, 11, 60
17, 412560, Note_on_c, 12, 69, 92
17, 412605, Control_c, 12, 11, 62
17, 412650, Control_c, 12, 11, 64
17, 412695, Control_c, 12, 11, 65
17, 412724, Note_on_c, 12, 69, 0
17, 412740, Control_c, 12, 11, 67
17, 412740, Note_on_c, 12, 57, 92
17, 412784, Note_on_c, 12, 57, 0
17, 412785, Control_c, 12, 11, 69
17, 412800, Note_on_c, 12, 57, 92
17, 412830, Control_c, 12, 11, 70
17, 412875, Control_c, 12, 11, 72
17, 412904, Note_on_c, 12, 57, 0
17, 412920, Control_c, 12, 11, 74
17, 412920, Note_on_c, 12, 68, 92
17, 412965, Control_c, 12, 11, 75
17, 413010, Control_c, 12, 11, 77
17, 413055, Control_c, 12, 11, 79
17, 413084, Note_on_c, 12, 68, 0
17, 413100, Note_on_c, 12, 56, 92
17, 413100, Control_c, 12, 11, 80
17, 413144, Note_on_c, 12, 56, 0
17, 413145, Control_c, 12, 11, 82
17, 413160, Note_on_c, 12, 56, 92
17, 413190, Control_c, 12, 11, 84
17, 413235, Control_c, 12, 11, 85
17, 413264, Note_on_c, 12, 56, 0
17, 413280, Note_on_c, 12, 67, 92
17, 413280, Control_c, 12, 11, 87
17, 413325, Control_c, 12, 11, 89
17, 413370, Control_c, 12, 11, 90
17, 413415, Control_c, 12, 11, 92
17, 413444, Note_on_c, 12, 67, 0
17, 413460, Note_on_c, 12, 55, 92
17, 413460, Control_c, 12, 11, 94
17, 413504, Note_on_c, 12, 55, 0
17, 413505, Control_c, 12, 11, 95
17, 413520, Note_on_c, 12, 55, 92
17, 413550, Control_c, 12, 11, 97
17, 413595, Control_c, 12, 11, 99
17, 413624, Note_on_c, 12, 55, 0
17, 413640, Control_c, 12, 11, 100
17, 413640, Note_on_c, 12, 67, 92
17, 413685, Control_c, 12, 11, 102
17, 413730, Control_c, 12, 11, 104
17, 413775, Control_c, 12, 11, 105
17, 413804, Note_on_c, 12, 67, 0
17, 413820, Note_on_c, 12, 55, 92
17, 413820, Control_c, 12, 11, 107
17, 413864, Note_on_c, 12, 55, 0
17, 413865, Control_c, 12, 11, 109
17, 413880, Note_on_c, 12, 55, 92
17, 413910, Control_c, 12, 11, 110
17, 413955, Control_c, 12, 11, 112
17, 413984, Note_on_c, 12, 55, 0
17, 414000, Control_c, 12, 11, 114
17, 414000, Note_on_c, 12, 67, 92
17, 414045, Control_c, 12, 11, 115
17, 414090, Control_c, 12, 11, 117
17, 414135, Control_c, 12, 11, 119
17, 414164, Note_on_c, 12, 67, 0
17, 414180, Control_c, 12, 11, 120
17, 414180, Note_on_c, 12, 55, 92
17, 414224, Note_on_c, 12, 55, 0
17, 414225, Control_c, 12, 11, 122
17, 414240, Note_on_c, 12, 55, 92
17, 414270, Control_c, 12, 11, 124
17, 414315, Control_c, 12, 11, 127
17, 414344, Note_on_c, 12, 55, 0
17, 414360, Note_on_c, 12, 72, 92
17, 414524, Note_on_c, 12, 72, 0
17, 414540, Note_on_c, 12, 60, 92
17, 414584, Note_on_c, 12, 60, 0
17, 414600, Note_on_c, 12, 60, 92
17, 414704, Note_on_c, 12, 60, 0
17, 414720, Note_on_c, 12, 72, 92
17, 414884, Note_on_c, 12, 72, 0
17, 414900, Note_on_c, 12, 60, 92
17, 414944, Note_on_c, 12, 60, 0
17, 414960, Note_on_c, 12, 60, 92
17, 415064, Note_on_c, 12, 60, 0
17, 415080, Note_on_c, 12, 72, 92
17, 415244, Note_on_c, 12, 72, 0
17, 415260, Note_on_c, 12, 60, 92
17, 415304, Note_on_c, 12, 60, 0
17, 415320, Note_on_c, 12, 60, 92
17, 415424, Note_on_c, 12, 60, 0
17, 415440, Note_on_c, 12, 72, 92
17, 415604, Note_on_c, 12, 72, 0
17, 415620, Note_on_c, 12, 60, 92
17, 415664, Note_on_c, 12, 60, 0
17, 415680, Note_on_c, 12, 60, 92
17, 415784, Note_on_c, 12, 60, 0
17, 415800, Note_on_c, 12, 72, 92
17, 415964, Note_on_c, 12, 72, 0
17, 415980, Note_on_c, 12, 60, 92
17, 416024, Note_on_c, 12, 60, 0
17, 416040, Note_on_c, 12, 60, 92
17, 416144, Note_on_c, 12, 60, 0
17, 416160, Note_on_c, 12, 72, 92
17, 416324, Note_on_c, 12, 72, 0
17, 416340, Note_on_c, 12, 60, 92
17, 416384, Note_on_c, 12, 60, 0
17, 416400, Note_on_c, 12, 60, 92
17, 416504, Note_on_c, 12, 60, 0
17, 416520, Note_on_c, 12, 72, 92
17, 416684, Note_on_c, 12, 72, 0
17, 416700, Note_on_c, 12, 60, 92
17, 416744, Note_on_c, 12, 60, 0
17, 416760, Note_on_c, 12, 60, 92
17, 416864, Note_on_c, 12, 60, 0
17, 416880, Note_on_c, 12, 72, 92
17, 417044, Note_on_c, 12, 72, 0
17, 417060, Note_on_c, 12, 60, 92
17, 417104, Note_on_c, 12, 60, 0
17, 417120, Note_on_c, 12, 60, 92
17, 417224, Note_on_c, 12, 60, 0
17, 417240, Note_on_c, 12, 72, 92
17, 417404, Note_on_c, 12, 72, 0
17, 417420, Note_on_c, 12, 60, 92
17, 417464, Note_on_c, 12, 60, 0
17, 417480, Note_on_c, 12, 60, 92
17, 417584, Note_on_c, 12, 60, 0
17, 417600, Note_on_c, 12, 72, 92
17, 417764, Note_on_c, 12, 72, 0
17, 417780, Note_on_c, 12, 60, 92
17, 417824, Note_on_c, 12, 60, 0
17, 417840, Note_on_c, 12, 60, 92
17, 417944, Note_on_c, 12, 60, 0
17, 417960, Note_on_c, 12, 72, 92
17, 418124, Note_on_c, 12, 72, 0
17, 418140, Note_on_c, 12, 60, 92
17, 418184, Note_on_c, 12, 60, 0
17, 418200, Note_on_c, 12, 60, 92
17, 418304, Note_on_c, 12, 60, 0
17, 418320, Note_on_c, 12, 72, 92
17, 418484, Note_on_c, 12, 72, 0
17, 418500, Note_on_c, 12, 60, 92
17, 418544, Note_on_c, 12, 60, 0
17, 418560, Note_on_c, 12, 60, 92
17, 418664, Note_on_c, 12, 60, 0
17, 418680, Note_on_c, 12, 72, 92
17, 418844, Note_on_c, 12, 72, 0
17, 418860, Note_on_c, 12, 60, 92
17, 418904, Note_on_c, 12, 60, 0
17, 418920, Note_on_c, 12, 60, 92
17, 419024, Note_on_c, 12, 60, 0
17, 419040, Note_on_c, 12, 72, 92
17, 419204, Note_on_c, 12, 72, 0
17, 419220, Note_on_c, 12, 60, 92
17, 419264, Note_on_c, 12, 60, 0
17, 419280, Note_on_c, 12, 60, 92
17, 419384, Note_on_c, 12, 60, 0
17, 419400, Note_on_c, 12, 72, 92
17, 419564, Note_on_c, 12, 72, 0
17, 419580, Note_on_c, 12, 60, 92
17, 419624, Note_on_c, 12, 60, 0
17, 419640, Note_on_c, 12, 60, 92
17, 419744, Note_on_c, 12, 60, 0
17, 419760, Note_on_c, 12, 72, 92
17, 419924, Note_on_c, 12, 72, 0
17, 419940, Note_on_c, 12, 60, 92
17, 419984, Note_on_c, 12, 60, 0
17, 420000, Note_on_c, 12, 60, 92
17, 420104, Note_on_c, 12, 60, 0
17, 420120, Note_on_c, 12, 72, 92
17, 420239, Note_on_c, 12, 72, 0
17, 420840, Note_on_c, 12, 69, 92
17, 421004, Note_on_c, 12, 69, 0
17, 421020, Note_on_c, 12, 57, 92
17, 421064, Note_on_c, 12, 57, 0
17, 421080, Note_on_c, 12, 57, 92
17, 421184, Note_on_c, 12, 57, 0
17, 421200, Note_on_c, 12, 69, 92
17, 421289, Note_on_c, 12, 69, 0
17, 421320, Note_on_c, 12, 65, 92
17, 421409, Note_on_c, 12, 65, 0
17, 421440, Note_on_c, 12, 64, 92
17, 421529, Note_on_c, 12, 64, 0
17, 421560, Note_on_c, 12, 62, 92
17, 421679, Note_on_c, 12, 62, 0
17, 422280, Note_on_c, 12, 67, 92
17, 422444, Note_on_c, 12, 67, 0
17, 422460, Note_on_c, 12, 55, 92
17, 422504, Note_on_c, 12, 55, 0
17, 422520, Note_on_c, 12, 55, 92
17, 422624, Note_on_c, 12, 55, 0
17, 422640, Note_on_c, 12, 67, 92
17, 422729, Note_on_c, 12, 67, 0
17, 422760, Note_on_c, 12, 64, 92
17, 422849, Note_on_c, 12, 64, 0
17, 422880, Note_on_c, 12, 62, 92
17, 422969, Note_on_c, 12, 62, 0
17, 422998, Control_c, 12, 11, 87
17, 423000, Note_on_c, 12, 55, 68
17, 423120, Note_on_c, 12, 65, 68
17, 423239, Note_on_c, 12, 65, 0
17, 423240, Note_on_c, 12, 64, 68
17, 423479, Note_on_c, 12, 64, 0
17, 423480, Note_on_c, 12, 65, 68
17, 423599, Note_on_c, 12, 65, 0
17, 423600, Note_on_c, 12, 67, 68
17, 423719, Note_on_c, 12, 67, 0
17, 423720, Control_c, 12, 11, 87
17, 423720, Note_on_c, 12, 65, 68
17, 423750, Control_c, 12, 11, 89
17, 423780, Control_c, 12, 11, 90
17, 423810, Control_c, 12, 11, 92
17, 423839, Note_on_c, 12, 55, 0
17, 423839, Note_on_c, 12, 65, 0
17, 423840, Note_on_c, 12, 64, 68
17, 423840, Control_c, 12, 11, 94
17, 423870, Control_c, 12, 11, 95
17, 423900, Control_c, 12, 11, 97
17, 423930, Control_c, 12, 11, 99
17, 423959, Note_on_c, 12, 64, 0
17, 423960, Control_c, 12, 11, 100
17, 423960, Note_on_c, 12, 65, 68
17, 423990, Control_c, 12, 11, 102
17, 424020, Control_c, 12, 11, 104
17, 424050, Control_c, 12, 11, 105
17, 424079, Note_on_c, 12, 65, 0
17, 424080, Note_on_c, 12, 67, 68
17, 424080, Control_c, 12, 11, 107
17, 424110, Control_c, 12, 11, 109
17, 424140, Control_c, 12, 11, 110
17, 424170, Control_c, 12, 11, 112
17, 424199, Note_on_c, 12, 67, 0
17, 424200, Control_c, 12, 11, 114
17, 424200, Note_on_c, 12, 60, 68
17, 424230, Control_c, 12, 11, 115
17, 424260, Control_c, 12, 11, 117
17, 424290, Control_c, 12, 11, 119
17, 424319, Note_on_c, 12, 60, 0
17, 424320, Note_on_c, 12, 72, 68
17, 424320, Control_c, 12, 11, 120
17, 424350, Control_c, 12, 11, 122
17, 424380, Control_c, 12, 11, 124
17, 424410, Control_c, 12, 11, 125
17, 424440, Control_c, 12, 11, 127
17, 424470, Control_c, 12, 11, 125
17, 424500, Control_c, 12, 11, 124
17, 424530, Control_c, 12, 11, 122
17, 424560, Control_c, 12, 11, 120
17, 424590, Control_c, 12, 11, 119
17, 424620, Control_c, 12, 11, 117
17, 424650, Control_c, 12, 11, 115
17, 424679, Note_on_c, 12, 72, 0
17, 424680, Control_c, 12, 11, 114
17, 424680, Note_on_c, 12, 60, 68
17, 424710, Control_c, 12, 11, 112
17, 424740, Control_c, 12, 11, 110
17, 424770, Control_c, 12, 11, 109
17, 424800, Control_c, 12, 11, 107
17, 424830, Control_c, 12, 11, 105
17, 424860, Control_c, 12, 11, 104
17, 424890, Control_c, 12, 11, 102
17, 424919, Note_on_c, 12, 60, 0
17, 424920, Note_on_c, 12, 62, 68
17, 424920, Control_c, 12, 11, 100
17, 424950, Control_c, 12, 11, 99
17, 424980, Control_c, 12, 11, 97
17, 425010, Control_c, 12, 11, 95
17, 425039, Note_on_c, 12, 62, 0
17, 425040, Note_on_c, 12, 64, 68
17, 425040, Control_c, 12, 11, 94
17, 425070, Control_c, 12, 11, 92
17, 425100, Control_c, 12, 11, 90
17, 425130, Control_c, 12, 11, 87
17, 425159, Note_on_c, 12, 64, 0
17, 426960, Control_c, 12, 11, 127
17, 427320, Note_on_c, 12, 76, 80
17, 427409, Note_on_c, 12, 76, 0
17, 427440, Note_on_c, 12, 64, 80
17, 427529, Note_on_c, 12, 64, 0
17, 427560, Note_on_c, 12, 81, 80
17, 427649, Note_on_c, 12, 81, 0
17, 427680, Note_on_c, 12, 81, 80
17, 427769, Note_on_c, 12, 81, 0
17, 427800, Note_on_c, 12, 79, 80
17, 427889, Note_on_c, 12, 79, 0
17, 427920, Note_on_c, 12, 72, 80
17, 427920, Note_on_c, 12, 76, 80
17, 428009, Note_on_c, 12, 72, 0
17, 428009, Note_on_c, 12, 76, 0
17, 428040, Note_on_c, 12, 76, 80
17, 428040, Note_on_c, 12, 72, 80
17, 428159, Note_on_c, 12, 76, 0
17, 428159, Note_on_c, 12, 72, 0
17, 428760, Note_on_c, 12, 76, 80
17, 428849, Note_on_c, 12, 76, 0
17, 428880, Note_on_c, 12, 72, 80
17, 428969, Note_on_c, 12, 72, 0
17, 429000, Note_on_c, 12, 77, 80
17, 429089, Note_on_c, 12, 77, 0
17, 429120, Note_on_c, 12, 74, 80
17, 429209, Note_on_c, 12, 74, 0
17, 429240, Note_on_c, 12, 71, 80
17, 429329, Note_on_c, 12, 71, 0
17, 429360, Note_on_c, 12, 76, 80
17, 429449, Note_on_c, 12, 76, 0
17, 429480, Note_on_c, 12, 67, 80
17, 429480, Note_on_c, 12, 60, 80
17, 429480, Note_on_c, 12, 76, 80
17, 429599, Note_on_c, 12, 67, 0
17, 429599, Note_on_c, 12, 60, 0
17, 429644, Note_on_c, 12, 76, 0
17, 429660, Note_on_c, 12, 72, 80
17, 429704, Note_on_c, 12, 72, 0
17, 429720, Note_on_c, 12, 72, 80
17, 429824, Note_on_c, 12, 72, 0
17, 429840, Note_on_c, 12, 67, 80
17, 429959, Note_on_c, 12, 67, 0
17, 430200, Note_on_c, 12, 72, 80
17, 430364, Note_on_c, 12, 72, 0
17, 430380, Note_on_c, 12, 60, 80
17, 430424, Note_on_c, 12, 60, 0
17, 430440, Note_on_c, 12, 60, 80
17, 430544, Note_on_c, 12, 60, 0
17, 430560, Note_on_c, 12, 55, 80
17, 430679, Note_on_c, 12, 55, 0
17, 430920, Note_on_c, 12, 65, 32
17, 431039, Note_on_c, 12, 65, 0
17, 431040, Note_on_c, 12, 64, 32
17, 431159, Note_on_c, 12, 64, 0
17, 431160, Note_on_c, 12, 62, 32
17, 431279, Note_on_c, 12, 62, 0
17, 431280, Note_on_c, 12, 60, 32
17, 431399, Note_on_c, 12, 60, 0
17, 431400, Note_on_c, 12, 59, 32
17, 431519, Note_on_c, 12, 59, 0
17, 431520, Note_on_c, 12, 57, 32
17, 431639, Note_on_c, 12, 57, 0
17, 431640, Note_on_c, 12, 55, 32
17, 431759, Note_on_c, 12, 55, 0
17, 431760, Note_on_c, 12, 57, 32
17, 431879, Note_on_c, 12, 57, 0
17, 431880, Note_on_c, 12, 55, 32
17, 432344, Note_on_c, 12, 55, 0
17, 432360, Note_on_c, 12, 64, 32
17, 432360, Note_on_c, 12, 55, 32
17, 432524, Note_on_c, 12, 64, 0
17, 432524, Note_on_c, 12, 55, 0
17, 432540, Note_on_c, 12, 67, 32
17, 432584, Note_on_c, 12, 67, 0
17, 432600, Note_on_c, 12, 67, 32
17, 432704, Note_on_c, 12, 67, 0
17, 432720, Note_on_c, 12, 69, 32
17, 432839, Note_on_c, 12, 69, 0
17, 433080, Note_on_c, 12, 69, 32
17, 433244, Note_on_c, 12, 69, 0
17, 433260, Note_on_c, 12, 69, 32
17, 433304, Note_on_c, 12, 69, 0
17, 433320, Note_on_c, 12, 69, 32
17, 433424, Note_on_c, 12, 69, 0
17, 433440, Note_on_c, 12, 69, 32
17, 433559, Note_on_c, 12, 69, 0
17, 435240, Note_on_c, 12, 81, 32
17, 435404, Note_on_c, 12, 81, 0
17, 435420, Note_on_c, 12, 69, 32
17, 435464, Note_on_c, 12, 69, 0
17, 435480, Note_on_c, 12, 69, 32
17, 435584, Note_on_c, 12, 69, 0
17, 435600, Note_on_c, 12, 74, 32
17, 435689, Note_on_c, 12, 74, 0
17, 435720, Note_on_c, 12, 76, 32
17, 435809, Note_on_c, 12, 76, 0
17, 435840, Note_on_c, 12, 77, 32
17, 435929, Note_on_c, 12, 77, 0
17, 435960, Note_on_c, 12, 76, 32
17, 436049, Note_on_c, 12, 76, 0
17, 436080, Note_on_c, 12, 77, 32
17, 436169, Note_on_c, 12, 77, 0
17, 436200, Note_on_c, 12, 79, 32
17, 436289, Note_on_c, 12, 79, 0
17, 436320, Note_on_c, 12, 77, 32
17, 436409, Note_on_c, 12, 77, 0
17, 436440, Note_on_c, 12, 76, 32
17, 436529, Note_on_c, 12, 76, 0
17, 436560, Note_on_c, 12, 74, 32
17, 436649, Note_on_c, 12, 74, 0
17, 436680, Note_on_c, 12, 77, 32
17, 436769, Note_on_c, 12, 77, 0
17, 436800, Note_on_c, 12, 76, 32
17, 436889, Note_on_c, 12, 76, 0
17, 436920, Note_on_c, 12, 74, 32
17, 437009, Note_on_c, 12, 74, 0
17, 437040, Note_on_c, 12, 72, 32
17, 437129, Note_on_c, 12, 72, 0
17, 437160, Note_on_c, 12, 71, 32
17, 437249, Note_on_c, 12, 71, 0
17, 437280, Note_on_c, 12, 69, 32
17, 437369, Note_on_c, 12, 69, 0
17, 437400, Note_on_c, 12, 68, 32
17, 437489, Note_on_c, 12, 68, 0
17, 437520, Note_on_c, 12, 69, 32
17, 437609, Note_on_c, 12, 69, 0
17, 437640, Note_on_c, 12, 71, 32
17, 437729, Note_on_c, 12, 71, 0
17, 437760, Note_on_c, 12, 69, 32
17, 437849, Note_on_c, 12, 69, 0
17, 437880, Note_on_c, 12, 68, 32
17, 437969, Note_on_c, 12, 68, 0
17, 438000, Note_on_c, 12, 69, 32
17, 438089, Note_on_c, 12, 69, 0
17, 438120, Note_on_c, 12, 67, 32
17, 438209, Note_on_c, 12, 67, 0
17, 438240, Note_on_c, 12, 65, 32
17, 438329, Note_on_c, 12, 65, 0
17, 438360, Note_on_c, 12, 64, 32
17, 438449, Note_on_c, 12, 64, 0
17, 438480, Note_on_c, 12, 62, 32
17, 438569, Note_on_c, 12, 62, 0
17, 438600, Note_on_c, 12, 67, 32
17, 438689, Note_on_c, 12, 67, 0
17, 438720, Note_on_c, 12, 69, 32
17, 438809, Note_on_c, 12, 69, 0
17, 438840, Note_on_c, 12, 69, 32
17, 438929, Note_on_c, 12, 69, 0
17, 438960, Note_on_c, 12, 69, 32
17, 439049, Note_on_c, 12, 69, 0
17, 439080, Note_on_c, 12, 69, 32
17, 439169, Note_on_c, 12, 69, 0
17, 439200, Note_on_c, 12, 69, 32
17, 439289, Note_on_c, 12, 69, 0
17, 439320, Note_on_c, 12, 69, 32
17, 439409, Note_on_c, 12, 69, 0
17, 439440, Note_on_c, 12, 81, 32
17, 439529, Note_on_c, 12, 81, 0
17, 439560, Note_on_c, 12, 74, 32
17, 439649, Note_on_c, 12, 74, 0
17, 439680, Note_on_c, 12, 76, 32
17, 439769, Note_on_c, 12, 76, 0
17, 439800, Note_on_c, 12, 77, 32
17, 439889, Note_on_c, 12, 77, 0
17, 439920, Note_on_c, 12, 76, 32
17, 440009, Note_on_c, 12, 76, 0
17, 440040, Note_on_c, 12, 74, 32
17, 440129, Note_on_c, 12, 74, 0
17, 440160, Note_on_c, 12, 72, 32
17, 440249, Note_on_c, 12, 72, 0
17, 440280, Note_on_c, 12, 71, 32
17, 440369, Note_on_c, 12, 71, 0
17, 440400, Note_on_c, 12, 69, 32
17, 440489, Note_on_c, 12, 69, 0
17, 440520, Note_on_c, 12, 68, 32
17, 440609, Note_on_c, 12, 68, 0
17, 440640, Note_on_c, 12, 69, 32
17, 440729, Note_on_c, 12, 69, 0
17, 440760, Note_on_c, 12, 74, 32
17, 440849, Note_on_c, 12, 74, 0
17, 440880, Note_on_c, 12, 72, 32
17, 440969, Note_on_c, 12, 72, 0
17, 441000, Note_on_c, 12, 73, 32
17, 441089, Note_on_c, 12, 73, 0
17, 441120, Note_on_c, 12, 74, 32
17, 441209, Note_on_c, 12, 74, 0
17, 441240, Note_on_c, 12, 76, 32
17, 441329, Note_on_c, 12, 76, 0
17, 441360, Note_on_c, 12, 74, 32
17, 441449, Note_on_c, 12, 74, 0
17, 441480, Note_on_c, 12, 73, 32
17, 441569, Note_on_c, 12, 73, 0
17, 441600, Note_on_c, 12, 74, 32
17, 441689, Note_on_c, 12, 74, 0
17, 441720, Note_on_c, 12, 69, 32
17, 441809, Note_on_c, 12, 69, 0
17, 441840, Note_on_c, 12, 69, 32
17, 441929, Note_on_c, 12, 69, 0
17, 441960, Note_on_c, 12, 69, 32
17, 442049, Note_on_c, 12, 69, 0
17, 442080, Note_on_c, 12, 69, 32
17, 442169, Note_on_c, 12, 69, 0
17, 442200, Note_on_c, 12, 69, 32
17, 442289, Note_on_c, 12, 69, 0
17, 442320, Note_on_c, 12, 69, 32
17, 442409, Note_on_c, 12, 69, 0
17, 442440, Note_on_c, 12, 81, 32
17, 442529, Note_on_c, 12, 81, 0
17, 442560, Note_on_c, 12, 79, 32
17, 442649, Note_on_c, 12, 79, 0
17, 442680, Note_on_c, 12, 77, 32
17, 442769, Note_on_c, 12, 77, 0
17, 442800, Note_on_c, 12, 76, 32
17, 442889, Note_on_c, 12, 76, 0
17, 442920, Note_on_c, 12, 74, 32
17, 443009, Note_on_c, 12, 74, 0
17, 443040, Note_on_c, 12, 72, 32
17, 443129, Note_on_c, 12, 72, 0
17, 443160, Note_on_c, 12, 71, 32
17, 443249, Note_on_c, 12, 71, 0
17, 443280, Note_on_c, 12, 72, 32
17, 443369, Note_on_c, 12, 72, 0
17, 443400, Note_on_c, 12, 74, 32
17, 443489, Note_on_c, 12, 74, 0
17, 443520, Note_on_c, 12, 72, 32
17, 443609, Note_on_c, 12, 72, 0
17, 443640, Note_on_c, 12, 59, 32
17, 443729, Note_on_c, 12, 59, 0
17, 443760, Note_on_c, 12, 60, 32
17, 443849, Note_on_c, 12, 60, 0
17, 443880, Note_on_c, 12, 61, 32
17, 443969, Note_on_c, 12, 61, 0
17, 444000, Note_on_c, 12, 62, 32
17, 444089, Note_on_c, 12, 62, 0
17, 444120, Note_on_c, 12, 64, 32
17, 444209, Note_on_c, 12, 64, 0
17, 444240, Note_on_c, 12, 65, 32
17, 444329, Note_on_c, 12, 65, 0
17, 444360, Note_on_c, 12, 67, 32
17, 444449, Note_on_c, 12, 67, 0
17, 444480, Note_on_c, 12, 69, 32
17, 444569, Note_on_c, 12, 69, 0
17, 444600, Note_on_c, 12, 69, 32
17, 444689, Note_on_c, 12, 69, 0
17, 444720, Note_on_c, 12, 69, 32
17, 444809, Note_on_c, 12, 69, 0
17, 444840, Note_on_c, 12, 69, 32
17, 444929, Note_on_c, 12, 69, 0
17, 444960, Note_on_c, 12, 69, 32
17, 445049, Note_on_c, 12, 69, 0
17, 445080, Note_on_c, 12, 69, 32
17, 445169, Note_on_c, 12, 69, 0
17, 445200, Note_on_c, 12, 69, 32
17, 445289, Note_on_c, 12, 69, 0
17, 445320, Note_on_c, 12, 74, 32
17, 445409, Note_on_c, 12, 74, 0
17, 445440, Note_on_c, 12, 72, 32
17, 445529, Note_on_c, 12, 72, 0
17, 445560, Note_on_c, 12, 68, 32
17, 445649, Note_on_c, 12, 68, 0
17, 445680, Note_on_c, 12, 69, 32
17, 445769, Note_on_c, 12, 69, 0
17, 445800, Note_on_c, 12, 68, 32
17, 445889, Note_on_c, 12, 68, 0
17, 445920, Note_on_c, 12, 69, 32
17, 446009, Note_on_c, 12, 69, 0
17, 446040, Note_on_c, 12, 59, 32
17, 446129, Note_on_c, 12, 59, 0
17, 446160, Note_on_c, 12, 60, 32
17, 446249, Note_on_c, 12, 60, 0
17, 446280, Note_on_c, 12, 56, 32
17, 446369, Note_on_c, 12, 56, 0
17, 446400, Note_on_c, 12, 64, 32
17, 446489, Note_on_c, 12, 64, 0
17, 446520, Note_on_c, 12, 62, 32
17, 446609, Note_on_c, 12, 62, 0
17, 446640, Note_on_c, 12, 60, 32
17, 446729, Note_on_c, 12, 60, 0
17, 446760, Note_on_c, 12, 70, 32
17, 446849, Note_on_c, 12, 70, 0
17, 446880, Note_on_c, 12, 69, 32
17, 446969, Note_on_c, 12, 69, 0
17, 447000, Note_on_c, 12, 67, 32
17, 447089, Note_on_c, 12, 67, 0
17, 447120, Note_on_c, 12, 65, 32
17, 447209, Note_on_c, 12, 65, 0
17, 447240, Note_on_c, 12, 64, 32
17, 447329, Note_on_c, 12, 64, 0
17, 447360, Note_on_c, 12, 62, 32
17, 447449, Note_on_c, 12, 62, 0
17, 447480, Note_on_c, 12, 61, 32
17, 447569, Note_on_c, 12, 61, 0
17, 447600, Note_on_c, 12, 62, 32
17, 447689, Note_on_c, 12, 62, 0
17, 447720, Note_on_c, 12, 64, 32
17, 447809, Note_on_c, 12, 64, 0
17, 447840, Note_on_c, 12, 62, 32
17, 447929, Note_on_c, 12, 62, 0
17, 447960, Note_on_c, 12, 61, 32
17, 448049, Note_on_c, 12, 61, 0
17, 448080, Note_on_c, 12, 62, 32
17, 448169, Note_on_c, 12, 62, 0
17, 448200, Note_on_c, 12, 64, 32
17, 448289, Note_on_c, 12, 64, 0
17, 448320, Note_on_c, 12, 65, 33
17, 448409, Note_on_c, 12, 65, 0
17, 448440, Note_on_c, 12, 67, 35
17, 448529, Note_on_c, 12, 67, 0
17, 448560, Note_on_c, 12, 65, 37
17, 448649, Note_on_c, 12, 65, 0
17, 448680, Note_on_c, 12, 64, 38
17, 448769, Note_on_c, 12, 64, 0
17, 448800, Note_on_c, 12, 65, 40
17, 448889, Note_on_c, 12, 65, 0
17, 448920, Note_on_c, 12, 64, 42
17, 449009, Note_on_c, 12, 64, 0
17, 449040, Note_on_c, 12, 65, 43
17, 449129, Note_on_c, 12, 65, 0
17, 449160, Note_on_c, 12, 67, 45
17, 449249, Note_on_c, 12, 67, 0
17, 449280, Note_on_c, 12, 65, 47
17, 449369, Note_on_c, 12, 65, 0
17, 449400, Note_on_c, 12, 64, 48
17, 449489, Note_on_c, 12, 64, 0
17, 449520, Note_on_c, 12, 65, 50
17, 449609, Note_on_c, 12, 65, 0
17, 449640, Note_on_c, 12, 64, 52
17, 449729, Note_on_c, 12, 64, 0
17, 449760, Note_on_c, 12, 65, 53
17, 449849, Note_on_c, 12, 65, 0
17, 449880, Note_on_c, 12, 67, 55
17, 449969, Note_on_c, 12, 67, 0
17, 450000, Note_on_c, 12, 65, 57
17, 450089, Note_on_c, 12, 65, 0
17, 450120, Note_on_c, 12, 64, 58
17, 450209, Note_on_c, 12, 64, 0
17, 450240, Note_on_c, 12, 65, 60
17, 450329, Note_on_c, 12, 65, 0
17, 450360, Note_on_c, 12, 73, 62
17, 450449, Note_on_c, 12, 73, 0
17, 450480, Note_on_c, 12, 74, 63
17, 450569, Note_on_c, 12, 74, 0
17, 450600, Note_on_c, 12, 76, 65
17, 450689, Note_on_c, 12, 76, 0
17, 450720, Note_on_c, 12, 74, 67
17, 450809, Note_on_c, 12, 74, 0
17, 450840, Note_on_c, 12, 73, 68
17, 450929, Note_on_c, 12, 73, 0
17, 450960, Note_on_c, 12, 74, 70
17, 451049, Note_on_c, 12, 74, 0
17, 451080, Note_on_c, 12, 73, 72
17, 451169, Note_on_c, 12, 73, 0
17, 451200, Note_on_c, 12, 74, 73
17, 451289, Note_on_c, 12, 74, 0
17, 451320, Note_on_c, 12, 76, 75
17, 451409, Note_on_c, 12, 76, 0
17, 451440, Note_on_c, 12, 74, 77
17, 451529, Note_on_c, 12, 74, 0
17, 451560, Note_on_c, 12, 73, 78
17, 451649, Note_on_c, 12, 73, 0
17, 451680, Note_on_c, 12, 74, 80
17, 451769, Note_on_c, 12, 74, 0
17, 451800, Note_on_c, 12, 64, 82
17, 451800, Note_on_c, 12, 73, 82
17, 451889, Note_on_c, 12, 64, 0
17, 451889, Note_on_c, 12, 73, 0
17, 451920, Note_on_c, 12, 74, 83
17, 452009, Note_on_c, 12, 74, 0
17, 452040, Note_on_c, 12, 76, 85
17, 452129, Note_on_c, 12, 76, 0
17, 452160, Note_on_c, 12, 64, 87
17, 452160, Note_on_c, 12, 76, 87
17, 452264, Note_on_c, 12, 64, 0
17, 452264, Note_on_c, 12, 76, 0
17, 452280, Note_on_c, 12, 77, 89
17, 452384, Note_on_c, 12, 77, 0
17, 452400, Note_on_c, 12, 79, 90
17, 452504, Note_on_c, 12, 79, 0
17, 452520, Note_on_c, 12, 62, 92
17, 452520, Note_on_c, 12, 81, 92
17, 452520, Note_on_c, 12, 69, 92
17, 452639, Note_on_c, 12, 62, 0
17, 452639, Note_on_c, 12, 69, 0
17, 452684, Note_on_c, 12, 81, 0
17, 452700, Note_on_c, 12, 69, 92
17, 452744, Note_on_c, 12, 69, 0
17, 452760, Note_on_c, 12, 69, 92
17, 452864, Note_on_c, 12, 69, 0
17, 452880, Note_on_c, 12, 74, 92
17, 452984, Note_on_c, 12, 74, 0
17, 453000, Note_on_c, 12, 76, 92
17, 453104, Note_on_c, 12, 76, 0
17, 453120, Note_on_c, 12, 77, 92
17, 453224, Note_on_c, 12, 77, 0
17, 453240, Note_on_c, 12, 76, 92
17, 453344, Note_on_c, 12, 76, 0
17, 453360, Note_on_c, 12, 77, 92
17, 453464, Note_on_c, 12, 77, 0
17, 453480, Note_on_c, 12, 79, 92
17, 453584, Note_on_c, 12, 79, 0
17, 453600, Note_on_c, 12, 77, 92
17, 453704, Note_on_c, 12, 77, 0
17, 453720, Note_on_c, 12, 76, 92
17, 453824, Note_on_c, 12, 76, 0
17, 453840, Note_on_c, 12, 74, 92
17, 453944, Note_on_c, 12, 74, 0
17, 453960, Note_on_c, 12, 82, 80
17, 454064, Note_on_c, 12, 82, 0
17, 454080, Note_on_c, 12, 81, 80
17, 454184, Note_on_c, 12, 81, 0
17, 454200, Note_on_c, 12, 79, 80
17, 454304, Note_on_c, 12, 79, 0
17, 454320, Note_on_c, 12, 77, 80
17, 454424, Note_on_c, 12, 77, 0
17, 454440, Note_on_c, 12, 76, 80
17, 454544, Note_on_c, 12, 76, 0
17, 454560, Note_on_c, 12, 74, 80
17, 454664, Note_on_c, 12, 74, 0
17, 454680, Note_on_c, 12, 73, 80
17, 454784, Note_on_c, 12, 73, 0
17, 454800, Note_on_c, 12, 74, 80
17, 454904, Note_on_c, 12, 74, 0
17, 454920, Note_on_c, 12, 76, 80
17, 455024, Note_on_c, 12, 76, 0
17, 455040, Note_on_c, 12, 74, 80
17, 455144, Note_on_c, 12, 74, 0
17, 455160, Note_on_c, 12, 73, 80
17, 455264, Note_on_c, 12, 73, 0
17, 455280, Note_on_c, 12, 74, 80
17, 455384, Note_on_c, 12, 74, 0
17, 455400, Note_on_c, 12, 82, 80
17, 455504, Note_on_c, 12, 82, 0
17, 455520, Note_on_c, 12, 81, 80
17, 455624, Note_on_c, 12, 81, 0
17, 455640, Note_on_c, 12, 79, 80
17, 455744, Note_on_c, 12, 79, 0
17, 455760, Note_on_c, 12, 77, 80
17, 455864, Note_on_c, 12, 77, 0
17, 455880, Note_on_c, 12, 76, 80
17, 455984, Note_on_c, 12, 76, 0
17, 456000, Note_on_c, 12, 74, 80
17, 456104, Note_on_c, 12, 74, 0
17, 456120, Note_on_c, 12, 73, 80
17, 456224, Note_on_c, 12, 73, 0
17, 456240, Note_on_c, 12, 74, 80
17, 456344, Note_on_c, 12, 74, 0
17, 456360, Note_on_c, 12, 76, 80
17, 456464, Note_on_c, 12, 76, 0
17, 456480, Note_on_c, 12, 74, 80
17, 456584, Note_on_c, 12, 74, 0
17, 456600, Note_on_c, 12, 73, 80
17, 456704, Note_on_c, 12, 73, 0
17, 456720, Note_on_c, 12, 74, 80
17, 456824, Note_on_c, 12, 74, 0
17, 456840, Note_on_c, 12, 81, 80
17, 456944, Note_on_c, 12, 81, 0
17, 456960, Note_on_c, 12, 79, 80
17, 457064, Note_on_c, 12, 79, 0
17, 457080, Note_on_c, 12, 77, 80
17, 457184, Note_on_c, 12, 77, 0
17, 457200, Note_on_c, 12, 76, 80
17, 457304, Note_on_c, 12, 76, 0
17, 457320, Note_on_c, 12, 74, 80
17, 457424, Note_on_c, 12, 74, 0
17, 457440, Note_on_c, 12, 72, 80
17, 457544, Note_on_c, 12, 72, 0
17, 457560, Note_on_c, 12, 71, 80
17, 457664, Note_on_c, 12, 71, 0
17, 457680, Note_on_c, 12, 72, 80
17, 457784, Note_on_c, 12, 72, 0
17, 457800, Note_on_c, 12, 74, 80
17, 457904, Note_on_c, 12, 74, 0
17, 457920, Note_on_c, 12, 72, 80
17, 458024, Note_on_c, 12, 72, 0
17, 458040, Note_on_c, 12, 81, 80
17, 458144, Note_on_c, 12, 81, 0
17, 458160, Note_on_c, 12, 81, 80
17, 458264, Note_on_c, 12, 81, 0
17, 458280, Note_on_c, 12, 81, 80
17, 458384, Note_on_c, 12, 81, 0
17, 458400, Note_on_c, 12, 79, 80
17, 458504, Note_on_c, 12, 79, 0
17, 458520, Note_on_c, 12, 77, 80
17, 458624, Note_on_c, 12, 77, 0
17, 458640, Note_on_c, 12, 76, 80
17, 458744, Note_on_c, 12, 76, 0
17, 458760, Note_on_c, 12, 74, 80
17, 458864, Note_on_c, 12, 74, 0
17, 458880, Note_on_c, 12, 72, 80
17, 458984, Note_on_c, 12, 72, 0
17, 459000, Note_on_c, 12, 79, 80
17, 459104, Note_on_c, 12, 79, 0
17, 459120, Note_on_c, 12, 77, 80
17, 459224, Note_on_c, 12, 77, 0
17, 459240, Note_on_c, 12, 76, 80
17, 459344, Note_on_c, 12, 76, 0
17, 459360, Note_on_c, 12, 88, 80
17, 459464, Note_on_c, 12, 88, 0
17, 459480, Note_on_c, 12, 86, 80
17, 459584, Note_on_c, 12, 86, 0
17, 459600, Note_on_c, 12, 84, 80
17, 459704, Note_on_c, 12, 84, 0
17, 459720, Note_on_c, 12, 79, 80
17, 459779, Note_on_c, 12, 79, 0
17, 459780, Note_on_c, 12, 79, 44
17, 459884, Note_on_c, 12, 79, 0
17, 459900, Note_on_c, 12, 67, 44
17, 459944, Note_on_c, 12, 67, 0
17, 459960, Note_on_c, 12, 67, 44
17, 460064, Note_on_c, 12, 67, 0
17, 460078, Control_c, 12, 11, 87
17, 460080, Note_on_c, 12, 79, 68
17, 460244, Note_on_c, 12, 79, 0
17, 460260, Note_on_c, 12, 67, 68
17, 460304, Note_on_c, 12, 67, 0
17, 460320, Note_on_c, 12, 67, 68
17, 460424, Note_on_c, 12, 67, 0
17, 460440, Control_c, 12, 11, 87
17, 460440, Note_on_c, 12, 79, 68
17, 460470, Control_c, 12, 11, 88
17, 460500, Control_c, 12, 11, 89
17, 460530, Control_c, 12, 11, 90
17, 460560, Control_c, 12, 11, 91
17, 460590, Control_c, 12, 11, 93
17, 460604, Note_on_c, 12, 79, 0
17, 460620, Control_c, 12, 11, 94
17, 460620, Note_on_c, 12, 67, 68
17, 460650, Control_c, 12, 11, 95
17, 460664, Note_on_c, 12, 67, 0
17, 460680, Note_on_c, 12, 67, 68
17, 460680, Control_c, 12, 11, 96
17, 460710, Control_c, 12, 11, 97
17, 460740, Control_c, 12, 11, 98
17, 460770, Control_c, 12, 11, 99
17, 460784, Note_on_c, 12, 67, 0
17, 460800, Note_on_c, 12, 77, 68
17, 460800, Control_c, 12, 11, 100
17, 460830, Control_c, 12, 11, 101
17, 460860, Control_c, 12, 11, 103
17, 460890, Control_c, 12, 11, 104
17, 460920, Control_c, 12, 11, 105
17, 460950, Control_c, 12, 11, 106
17, 460964, Note_on_c, 12, 77, 0
17, 460980, Note_on_c, 12, 65, 68
17, 460980, Control_c, 12, 11, 107
17, 461010, Control_c, 12, 11, 108
17, 461024, Note_on_c, 12, 65, 0
17, 461040, Control_c, 12, 11, 109
17, 461040, Note_on_c, 12, 65, 68
17, 461070, Control_c, 12, 11, 110
17, 461100, Control_c, 12, 11, 111
17, 461130, Control_c, 12, 11, 113
17, 461144, Note_on_c, 12, 65, 0
17, 461160, Control_c, 12, 11, 114
17, 461160, Note_on_c, 12, 77, 68
17, 461190, Control_c, 12, 11, 115
17, 461220, Control_c, 12, 11, 116
17, 461250, Control_c, 12, 11, 117
17, 461280, Control_c, 12, 11, 118
17, 461310, Control_c, 12, 11, 119
17, 461324, Note_on_c, 12, 77, 0
17, 461340, Control_c, 12, 11, 120
17, 461340, Note_on_c, 12, 65, 68
17, 461370, Control_c, 12, 11, 121
17, 461384, Note_on_c, 12, 65, 0
17, 461400, Note_on_c, 12, 65, 68
17, 461400, Control_c, 12, 11, 123
17, 461430, Control_c, 12, 11, 124
17, 461460, Control_c, 12, 11, 125
17, 461490, Control_c, 12, 11, 127
17, 461504, Note_on_c, 12, 65, 0
17, 461520, Note_on_c, 12, 76, 68
17, 461684, Note_on_c, 12, 76, 0
17, 461700, Note_on_c, 12, 64, 68
17, 461700, Control_c, 12, 11, 127
17, 461725, Control_c, 12, 11, 126
17, 461744, Note_on_c, 12, 64, 0
17, 461750, Control_c, 12, 11, 125
17, 461760, Note_on_c, 12, 64, 68
17, 461775, Control_c, 12, 11, 124
17, 461800, Control_c, 12, 11, 123
17, 461825, Control_c, 12, 11, 121
17, 461850, Control_c, 12, 11, 120
17, 461864, Note_on_c, 12, 64, 0
17, 461875, Control_c, 12, 11, 119
17, 461880, Note_on_c, 12, 75, 68
17, 461900, Control_c, 12, 11, 118
17, 461925, Control_c, 12, 11, 117
17, 461950, Control_c, 12, 11, 116
17, 461975, Control_c, 12, 11, 115
17, 462000, Control_c, 12, 11, 114
17, 462025, Control_c, 12, 11, 113
17, 462044, Note_on_c, 12, 75, 0
17, 462050, Control_c, 12, 11, 111
17, 462060, Note_on_c, 12, 63, 68
17, 462075, Control_c, 12, 11, 110
17, 462100, Control_c, 12, 11, 109
17, 462104, Note_on_c, 12, 63, 0
17, 462120, Note_on_c, 12, 63, 68
17, 462125, Control_c, 12, 11, 108
17, 462150, Control_c, 12, 11, 107
17, 462175, Control_c, 12, 11, 106
17, 462200, Control_c, 12, 11, 105
17, 462224, Note_on_c, 12, 63, 0
17, 462225, Control_c, 12, 11, 104
17, 462240, Note_on_c, 12, 74, 68
17, 462250, Control_c, 12, 11, 103
17, 462275, Control_c, 12, 11, 101
17, 462300, Control_c, 12, 11, 100
17, 462325, Control_c, 12, 11, 99
17, 462350, Control_c, 12, 11, 98
17, 462375, Control_c, 12, 11, 97
17, 462400, Control_c, 12, 11, 96
17, 462404, Note_on_c, 12, 74, 0
17, 462420, Note_on_c, 12, 62, 68
17, 462425, Control_c, 12, 11, 95
17, 462450, Control_c, 12, 11, 94
17, 462464, Note_on_c, 12, 62, 0
17, 462475, Control_c, 12, 11, 93
17, 462480, Note_on_c, 12, 62, 68
17, 462500, Control_c, 12, 11, 91
17, 462525, Control_c, 12, 11, 90
17, 462550, Control_c, 12, 11, 89
17, 462575, Control_c, 12, 11, 87
17, 462599, Note_on_c, 12, 62, 0
17, 463200, Control_c, 12, 11, 47
17, 463320, Note_on_c, 12, 69, 92
17, 463320, Control_c, 12, 11, 47
17, 463365, Control_c, 12, 11, 49
17, 463410, Control_c, 12, 11, 50
17, 463455, Control_c, 12, 11, 52
17, 463484, Note_on_c, 12, 69, 0
17, 463500, Control_c, 12, 11, 54
17, 463500, Note_on_c, 12, 57, 92
17, 463544, Note_on_c, 12, 57, 0
17, 463545, Control_c, 12, 11, 55
17, 463560, Note_on_c, 12, 57, 92
17, 463590, Control_c, 12, 11, 57
17, 463635, Control_c, 12, 11, 59
17, 463664, Note_on_c, 12, 57, 0
17, 463680, Note_on_c, 12, 69, 92
17, 463680, Control_c, 12, 11, 60
17, 463725, Control_c, 12, 11, 62
17, 463770, Control_c, 12, 11, 64
17, 463815, Control_c, 12, 11, 65
17, 463844, Note_on_c, 12, 69, 0
17, 463860, Note_on_c, 12, 57, 92
17, 463860, Control_c, 12, 11, 67
17, 463904, Note_on_c, 12, 57, 0
17, 463905, Control_c, 12, 11, 69
17, 463920, Note_on_c, 12, 57, 92
17, 463950, Control_c, 12, 11, 70
17, 463995, Control_c, 12, 11, 72
17, 464024, Note_on_c, 12, 57, 0
17, 464040, Note_on_c, 12, 68, 92
17, 464040, Control_c, 12, 11, 74
17, 464085, Control_c, 12, 11, 75
17, 464130, Control_c, 12, 11, 77
17, 464175, Control_c, 12, 11, 79
17, 464204, Note_on_c, 12, 68, 0
17, 464220, Note_on_c, 12, 56, 92
17, 464220, Control_c, 12, 11, 80
17, 464264, Note_on_c, 12, 56, 0
17, 464265, Control_c, 12, 11, 82
17, 464280, Note_on_c, 12, 56, 92
17, 464310, Control_c, 12, 11, 84
17, 464355, Control_c, 12, 11, 85
17, 464384, Note_on_c, 12, 56, 0
17, 464400, Note_on_c, 12, 67, 92
17, 464400, Control_c, 12, 11, 87
17, 464445, Control_c, 12, 11, 89
17, 464490, Control_c, 12, 11, 90
17, 464535, Control_c, 12, 11, 92
17, 464564, Note_on_c, 12, 67, 0
17, 464580, Control_c, 12, 11, 94
17, 464580, Note_on_c, 12, 55, 92
17, 464624, Note_on_c, 12, 55, 0
17, 464625, Control_c, 12, 11, 95
17, 464640, Note_on_c, 12, 55, 92
17, 464670, Control_c, 12, 11, 97
17, 464715, Control_c, 12, 11, 99
17, 464744, Note_on_c, 12, 55, 0
17, 464760, Control_c, 12, 11, 100
17, 464760, Note_on_c, 12, 67, 92
17, 464805, Control_c, 12, 11, 102
17, 464850, Control_c, 12, 11, 104
17, 464895, Control_c, 12, 11, 105
17, 464924, Note_on_c, 12, 67, 0
17, 464940, Control_c, 12, 11, 107
17, 464940, Note_on_c, 12, 55, 92
17, 464984, Note_on_c, 12, 55, 0
17, 464985, Control_c, 12, 11, 109
17, 465000, Note_on_c, 12, 55, 92
17, 465030, Control_c, 12, 11, 110
17, 465075, Control_c, 12, 11, 112
17, 465104, Note_on_c, 12, 55, 0
17, 465120, Note_on_c, 12, 67, 92
17, 465120, Control_c, 12, 11, 114
17, 465165, Control_c, 12, 11, 115
17, 465210, Control_c, 12, 11, 117
17, 465255, Control_c, 12, 11, 119
17, 465284, Note_on_c, 12, 67, 0
17, 465300, Note_on_c, 12, 55, 92
17, 465300, Control_c, 12, 11, 120
17, 465344, Note_on_c, 12, 55, 0
17, 465345, Control_c, 12, 11, 122
17, 465360, Note_on_c, 12, 55, 92
17, 465390, Control_c, 12, 11, 124
17, 465435, Control_c, 12, 11, 127
17, 465464, Note_on_c, 12, 55, 0
17, 465480, Note_on_c, 12, 72, 92
17, 465644, Note_on_c, 12, 72, 0
17, 465660, Note_on_c, 12, 60, 92
17, 465704, Note_on_c, 12, 60, 0
17, 465720, Note_on_c, 12, 60, 92
17, 465824, Note_on_c, 12, 60, 0
17, 465840, Note_on_c, 12, 72, 92
17, 466004, Note_on_c, 12, 72, 0
17, 466020, Note_on_c, 12, 60, 92
17, 466064, Note_on_c, 12, 60, 0
17, 466080, Note_on_c, 12, 60, 92
17, 466184, Note_on_c, 12, 60, 0
17, 466200, Note_on_c, 12, 72, 92
17, 466364, Note_on_c, 12, 72, 0
17, 466380, Note_on_c, 12, 60, 92
17, 466424, Note_on_c, 12, 60, 0
17, 466440, Note_on_c, 12, 60, 92
17, 466544, Note_on_c, 12, 60, 0
17, 466560, Note_on_c, 12, 72, 92
17, 466724, Note_on_c, 12, 72, 0
17, 466740, Note_on_c, 12, 60, 92
17, 466784, Note_on_c, 12, 60, 0
17, 466800, Note_on_c, 12, 60, 92
17, 466904, Note_on_c, 12, 60, 0
17, 466920, Note_on_c, 12, 72, 92
17, 467084, Note_on_c, 12, 72, 0
17, 467100, Note_on_c, 12, 60, 92
17, 467144, Note_on_c, 12, 60, 0
17, 467160, Note_on_c, 12, 60, 92
17, 467264, Note_on_c, 12, 60, 0
17, 467280, Note_on_c, 12, 72, 92
17, 467444, Note_on_c, 12, 72, 0
17, 467460, Note_on_c, 12, 60, 92
17, 467504, Note_on_c, 12, 60, 0
17, 467520, Note_on_c, 12, 60, 92
17, 467624, Note_on_c, 12, 60, 0
17, 467640, Note_on_c, 12, 72, 92
17, 467804, Note_on_c, 12, 72, 0
17, 467820, Note_on_c, 12, 60, 92
17, 467864, Note_on_c, 12, 60, 0
17, 467880, Note_on_c, 12, 60, 92
17, 467984, Note_on_c, 12, 60, 0
17, 468000, Note_on_c, 12, 72, 92
17, 468164, Note_on_c, 12, 72, 0
17, 468180, Note_on_c, 12, 60, 92
17, 468224, Note_on_c, 12, 60, 0
17, 468240, Note_on_c, 12, 60, 92
17, 468344, Note_on_c, 12, 60, 0
17, 468360, Note_on_c, 12, 72, 92
17, 468524, Note_on_c, 12, 72, 0
17, 468540, Note_on_c, 12, 60, 92
17, 468584, Note_on_c, 12, 60, 0
17, 468600, Note_on_c, 12, 60, 92
17, 468704, Note_on_c, 12, 60, 0
17, 468720, Note_on_c, 12, 72, 92
17, 468884, Note_on_c, 12, 72, 0
17, 468900, Note_on_c, 12, 60, 92
17, 468944, Note_on_c, 12, 60, 0
17, 468960, Note_on_c, 12, 60, 92
17, 469064, Note_on_c, 12, 60, 0
17, 469080, Note_on_c, 12, 72, 92
17, 469244, Note_on_c, 12, 72, 0
17, 469260, Note_on_c, 12, 60, 92
17, 469304, Note_on_c, 12, 60, 0
17, 469320, Note_on_c, 12, 60, 92
17, 469424, Note_on_c, 12, 60, 0
17, 469440, Note_on_c, 12, 72, 92
17, 469604, Note_on_c, 12, 72, 0
17, 469620, Note_on_c, 12, 60, 92
17, 469664, Note_on_c, 12, 60, 0
17, 469680, Note_on_c, 12, 60, 92
17, 469784, Note_on_c, 12, 60, 0
17, 469800, Note_on_c, 12, 72, 92
17, 469964, Note_on_c, 12, 72, 0
17, 469980, Note_on_c, 12, 60, 92
17, 470024, Note_on_c, 12, 60, 0
17, 470040, Note_on_c, 12, 60, 92
17, 470144, Note_on_c, 12, 60, 0
17, 470160, Note_on_c, 12, 72, 92
17, 470324, Note_on_c, 12, 72, 0
17, 470340, Note_on_c, 12, 60, 92
17, 470384, Note_on_c, 12, 60, 0
17, 470400, Note_on_c, 12, 60, 92
17, 470504, Note_on_c, 12, 60, 0
17, 470520, Note_on_c, 12, 72, 92
17, 470684, Note_on_c, 12, 72, 0
17, 470700, Note_on_c, 12, 60, 92
17, 470744, Note_on_c, 12, 60, 0
17, 470760, Note_on_c, 12, 60, 92
17, 470864, Note_on_c, 12, 60, 0
17, 470880, Note_on_c, 12, 72, 92
17, 471044, Note_on_c, 12, 72, 0
17, 471060, Note_on_c, 12, 60, 92
17, 471104, Note_on_c, 12, 60, 0
17, 471120, Note_on_c, 12, 60, 92
17, 471224, Note_on_c, 12, 60, 0
17, 471240, Note_on_c, 12, 72, 92
17, 471359, Note_on_c, 12, 72, 0
17, 471960, Note_on_c, 12, 69, 92
17, 472124, Note_on_c, 12, 69, 0
17, 472140, Note_on_c, 12, 57, 92
17, 472184, Note_on_c, 12, 57, 0
17, 472200, Note_on_c, 12, 57, 92
17, 472304, Note_on_c, 12, 57, 0
17, 472320, Note_on_c, 12, 69, 92
17, 472409, Note_on_c, 12, 69, 0
17, 472440, Note_on_c, 12, 65, 92
17, 472529, Note_on_c, 12, 65, 0
17, 472560, Note_on_c, 12, 64, 92
17, 472649, Note_on_c, 12, 64, 0
17, 472680, Note_on_c, 12, 62, 92
17, 472799, Note_on_c, 12, 62, 0
17, 473400, Note_on_c, 12, 67, 92
17, 473564, Note_on_c, 12, 67, 0
17, 473580, Note_on_c, 12, 55, 92
17, 473624, Note_on_c, 12, 55, 0
17, 473640, Note_on_c, 12, 55, 92
17, 473744, Note_on_c, 12, 55, 0
17, 473760, Note_on_c, 12, 67, 92
17, 473849, Note_on_c, 12, 67, 0
17, 473880, Note_on_c, 12, 64, 92
17, 473969, Note_on_c, 12, 64, 0
17, 474000, Note_on_c, 12, 62, 92
17, 474089, Note_on_c, 12, 62, 0
17, 474118, Control_c, 12, 11, 87
17, 474120, Note_on_c, 12, 55, 68
17, 474240, Note_on_c, 12, 65, 68
17, 474359, Note_on_c, 12, 65, 0
17, 474360, Note_on_c, 12, 64, 68
17, 474599, Note_on_c, 12, 64, 0
17, 474600, Note_on_c, 12, 65, 68
17, 474719, Note_on_c, 12, 65, 0
17, 474720, Note_on_c, 12, 67, 68
17, 474839, Note_on_c, 12, 67, 0
17, 474840, Note_on_c, 12, 65, 68
17, 474840, Control_c, 12, 11, 87
17, 474870, Control_c, 12, 11, 89
17, 474900, Control_c, 12, 11, 90
17, 474930, Control_c, 12, 11, 92
17, 474959, Note_on_c, 12, 55, 0
17, 474959, Note_on_c, 12, 65, 0
17, 474960, Control_c, 12, 11, 94
17, 474960, Note_on_c, 12, 64, 68
17, 474990, Control_c, 12, 11, 95
17, 475020, Control_c, 12, 11, 97
17, 475050, Control_c, 12, 11, 99
17, 475079, Note_on_c, 12, 64, 0
17, 475080, Note_on_c, 12, 65, 68
17, 475080, Control_c, 12, 11, 100
17, 475110, Control_c, 12, 11, 102
17, 475140, Control_c, 12, 11, 104
17, 475170, Control_c, 12, 11, 105
17, 475199, Note_on_c, 12, 65, 0
17, 475200, Control_c, 12, 11, 107
17, 475200, Note_on_c, 12, 67, 68
17, 475230, Control_c, 12, 11, 109
17, 475260, Control_c, 12, 11, 110
17, 475290, Control_c, 12, 11, 112
17, 475319, Note_on_c, 12, 67, 0
17, 475320, Control_c, 12, 11, 114
17, 475320, Note_on_c, 12, 60, 68
17, 475350, Control_c, 12, 11, 115
17, 475380, Control_c, 12, 11, 117
17, 475410, Control_c, 12, 11, 119
17, 475439, Note_on_c, 12, 60, 0
17, 475440, Control_c, 12, 11, 120
17, 475440, Note_on_c, 12, 72, 68
17, 475470, Control_c, 12, 11, 122
17, 475500, Control_c, 12, 11, 124
17, 475530, Control_c, 12, 11, 125
17, 475560, Control_c, 12, 11, 127
17, 475590, Control_c, 12, 11, 125
17, 475620, Control_c, 12, 11, 124
17, 475650, Control_c, 12, 11, 122
17, 475680, Control_c, 12, 11, 120
17, 475710, Control_c, 12, 11, 119
17, 475740, Control_c, 12, 11, 117
17, 475770, Control_c, 12, 11, 115
17, 475799, Note_on_c, 12, 72, 0
17, 475800, Note_on_c, 12, 60, 68
17, 475800, Control_c, 12, 11, 114
17, 475830, Control_c, 12, 11, 112
17, 475860, Control_c, 12, 11, 110
17, 475890, Control_c, 12, 11, 109
17, 475920, Control_c, 12, 11, 107
17, 475950, Control_c, 12, 11, 105
17, 475980, Control_c, 12, 11, 104
17, 476010, Control_c, 12, 11, 102
17, 476039, Note_on_c, 12, 60, 0
17, 476040, Control_c, 12, 11, 100
17, 476040, Note_on_c, 12, 62, 68
17, 476070, Control_c, 12, 11, 99
17, 476100, Control_c, 12, 11, 97
17, 476130, Control_c, 12, 11, 95
17, 476159, Note_on_c, 12, 62, 0
17, 476160, Control_c, 12, 11, 94
17, 476160, Note_on_c, 12, 64, 68
17, 476190, Control_c, 12, 11, 92
17, 476220, Control_c, 12, 11, 90
17, 476250, Control_c, 12, 11, 87
17, 476279, Note_on_c, 12, 64, 0
17, 478080, Control_c, 12, 11, 127
17, 478440, Note_on_c, 12, 76, 80
17, 478529, Note_on_c, 12, 76, 0
17, 478560, Note_on_c, 12, 64, 80
17, 478649, Note_on_c, 12, 64, 0
17, 478680, Note_on_c, 12, 81, 80
17, 478769, Note_on_c, 12, 81, 0
17, 478800, Note_on_c, 12, 81, 80
17, 478889, Note_on_c, 12, 81, 0
17, 478920, Note_on_c, 12, 79, 80
17, 479009, Note_on_c, 12, 79, 0
17, 479040, Note_on_c, 12, 76, 80
17, 479040, Note_on_c, 12, 72, 80
17, 479129, Note_on_c, 12, 76, 0
17, 479129, Note_on_c, 12, 72, 0
17, 479160, Note_on_c, 12, 76, 80
17, 479160, Note_on_c, 12, 72, 80
17, 479279, Note_on_c, 12, 76, 0
17, 479279, Note_on_c, 12, 72, 0
17, 479880, Note_on_c, 12, 76, 80
17, 479969, Note_on_c, 12, 76, 0
17, 480000, Note_on_c, 12, 72, 80
17, 480089, Note_on_c, 12, 72, 0
17, 480120, Note_on_c, 12, 77, 80
17, 480209, Note_on_c, 12, 77, 0
17, 480240, Note_on_c, 12, 74, 80
17, 480329, Note_on_c, 12, 74, 0
17, 480360, Note_on_c, 12, 71, 80
17, 480449, Note_on_c, 12, 71, 0
17, 480480, Note_on_c, 12, 76, 80
17, 480569, Note_on_c, 12, 76, 0
17, 480600, Note_on_c, 12, 76, 80
17, 480600, Note_on_c, 12, 67, 80
17, 480600, Note_on_c, 12, 60, 80
17, 480719, Note_on_c, 12, 67, 0
17, 480719, Note_on_c, 12, 60, 0
17, 480764, Note_on_c, 12, 76, 0
17, 480780, Note_on_c, 12, 72, 80
17, 480824, Note_on_c, 12, 72, 0
17, 480840, Note_on_c, 12, 72, 80
17, 480944, Note_on_c, 12, 72, 0
17, 480960, Note_on_c, 12, 67, 80
17, 481079, Note_on_c, 12, 67, 0
17, 481320, Note_on_c, 12, 72, 80
17, 481484, Note_on_c, 12, 72, 0
17, 481500, Note_on_c, 12, 60, 80
17, 481544, Note_on_c, 12, 60, 0
17, 481560, Note_on_c, 12, 60, 80
17, 481664, Note_on_c, 12, 60, 0
17, 481680, Note_on_c, 12, 55, 80
17, 481799, Note_on_c, 12, 55, 0
17, 482040, Note_on_c, 12, 65, 32
17, 482159, Note_on_c, 12, 65, 0
17, 482160, Note_on_c, 12, 64, 32
17, 482279, Note_on_c, 12, 64, 0
17, 482280, Note_on_c, 12, 62, 32
17, 482399, Note_on_c, 12, 62, 0
17, 482400, Note_on_c, 12, 60, 32
17, 482519, Note_on_c, 12, 60, 0
17, 482520, Note_on_c, 12, 59, 32
17, 482639, Note_on_c, 12, 59, 0
17, 482640, Note_on_c, 12, 57, 32
17, 482759, Note_on_c, 12, 57, 0
17, 482760, Note_on_c, 12, 55, 32
17, 482879, Note_on_c, 12, 55, 0
17, 482880, Note_on_c, 12, 57, 32
17, 482999, Note_on_c, 12, 57, 0
17, 483000, Note_on_c, 12, 55, 32
17, 483464, Note_on_c, 12, 55, 0
17, 483480, Note_on_c, 12, 55, 32
17, 483480, Note_on_c, 12, 64, 32
17, 483644, Note_on_c, 12, 55, 0
17, 483644, Note_on_c, 12, 64, 0
17, 483660, Note_on_c, 12, 67, 32
17, 483704, Note_on_c, 12, 67, 0
17, 483720, Note_on_c, 12, 67, 32
17, 483824, Note_on_c, 12, 67, 0
17, 483840, Note_on_c, 12, 69, 32
17, 483959, Note_on_c, 12, 69, 0
17, 484200, Note_on_c, 12, 69, 32
17, 484364, Note_on_c, 12, 69, 0
17, 484380, Note_on_c, 12, 69, 32
17, 484424, Note_on_c, 12, 69, 0
17, 484440, Note_on_c, 12, 69, 32
17, 484544, Note_on_c, 12, 69, 0
17, 484560, Note_on_c, 12, 69, 32
17, 484679, Note_on_c, 12, 69, 0
17, 486360, Note_on_c, 12, 57, 32
17, 486524, Note_on_c, 12, 57, 0
17, 486540, Note_on_c, 12, 69, 32
17, 486584, Note_on_c, 12, 69, 0
17, 486600, Note_on_c, 12, 69, 32
17, 486704, Note_on_c, 12, 69, 0
17, 486720, Note_on_c, 12, 70, 32
17, 486839, Note_on_c, 12, 70, 0
17, 487080, Note_on_c, 12, 58, 32
17, 487244, Note_on_c, 12, 58, 0
17, 487260, Note_on_c, 12, 70, 32
17, 487304, Note_on_c, 12, 70, 0
17, 487320, Note_on_c, 12, 70, 32
17, 487424, Note_on_c, 12, 70, 0
17, 487440, Note_on_c, 12, 70, 32
17, 487559, Note_on_c, 12, 70, 0
17, 489240, Note_on_c, 12, 58, 32
17, 489404, Note_on_c, 12, 58, 0
17, 489420, Note_on_c, 12, 70, 34
17, 489464, Note_on_c, 12, 70, 0
17, 489480, Note_on_c, 12, 70, 34
17, 489584, Note_on_c, 12, 70, 0
17, 489600, Note_on_c, 12, 72, 36
17, 489719, Note_on_c, 12, 72, 0
17, 489960, Note_on_c, 12, 60, 40
17, 490124, Note_on_c, 12, 60, 0
17, 490140, Note_on_c, 12, 72, 42
17, 490184, Note_on_c, 12, 72, 0
17, 490200, Note_on_c, 12, 72, 42
17, 490304, Note_on_c, 12, 72, 0
17, 490320, Note_on_c, 12, 68, 44
17, 490439, Note_on_c, 12, 68, 0
17, 490680, Note_on_c, 12, 68, 48
17, 490844, Note_on_c, 12, 68, 0
17, 490860, Note_on_c, 12, 65, 50
17, 490904, Note_on_c, 12, 65, 0
17, 490920, Note_on_c, 12, 65, 50
17, 491024, Note_on_c, 12, 65, 0
17, 491040, Note_on_c, 12, 70, 52
17, 491159, Note_on_c, 12, 70, 0
17, 491400, Note_on_c, 12, 61, 56
17, 491564, Note_on_c, 12, 61, 0
17, 491580, Note_on_c, 12, 70, 58
17, 491624, Note_on_c, 12, 70, 0
17, 491640, Note_on_c, 12, 70, 58
17, 491744, Note_on_c, 12, 70, 0
17, 491760, Note_on_c, 12, 70, 60
17, 491879, Note_on_c, 12, 70, 0
17, 492120, Note_on_c, 12, 75, 64
17, 492284, Note_on_c, 12, 75, 0
17, 492300, Note_on_c, 12, 63, 66
17, 492344, Note_on_c, 12, 63, 0
17, 492360, Note_on_c, 12, 63, 66
17, 492464, Note_on_c, 12, 63, 0
17, 492480, Note_on_c, 12, 63, 68
17, 492599, Note_on_c, 12, 63, 0
17, 492840, Note_on_c, 12, 64, 72
17, 493004, Note_on_c, 12, 64, 0
17, 493020, Note_on_c, 12, 71, 74
17, 493064, Note_on_c, 12, 71, 0
17, 493080, Note_on_c, 12, 71, 74
17, 493184, Note_on_c, 12, 71, 0
17, 493200, Note_on_c, 12, 73, 76
17, 493319, Note_on_c, 12, 73, 0
17, 493560, Note_on_c, 12, 57, 80
17, 493724, Note_on_c, 12, 57, 0
17, 493740, Note_on_c, 12, 69, 80
17, 493784, Note_on_c, 12, 69, 0
17, 493800, Note_on_c, 12, 69, 80
17, 493904, Note_on_c, 12, 69, 0
17, 494280, Note_on_c, 12, 58, 92
17, 494444, Note_on_c, 12, 58, 0
17, 494460, Note_on_c, 12, 70, 92
17, 494504, Note_on_c, 12, 70, 0
17, 494520, Note_on_c, 12, 70, 92
17, 494624, Note_on_c, 12, 70, 0
17, 495000, Note_on_c, 12, 59, 92
17, 495164, Note_on_c, 12, 59, 0
17, 495180, Note_on_c, 12, 71, 92
17, 495224, Note_on_c, 12, 71, 0
17, 495240, Note_on_c, 12, 71, 92
17, 495344, Note_on_c, 12, 71, 0
17, 496080, Program_c, 12, 45
17, 496440, Note_on_c, 12, 64, 40
17, 496559, Note_on_c, 12, 64, 0
17, 496800, Note_on_c, 12, 59, 40
17, 496919, Note_on_c, 12, 59, 0
17, 497520, Note_on_c, 12, 64, 40
17, 497639, Note_on_c, 12, 64, 0
17, 497880, Note_on_c, 12, 59, 40
17, 497999, Note_on_c, 12, 59, 0
17, 498600, Note_on_c, 12, 64, 40
17, 498719, Note_on_c, 12, 64, 0
17, 498960, Note_on_c, 12, 59, 40
17, 499079, Note_on_c, 12, 59, 0
17, 499680, Note_on_c, 12, 76, 40
17, 499799, Note_on_c, 12, 76, 0
17, 500040, Note_on_c, 12, 64, 40
17, 500159, Note_on_c, 12, 64, 0
17, 500760, Note_on_c, 12, 64, 40
17, 500879, Note_on_c, 12, 64, 0
17, 501120, Note_on_c, 12, 64, 40
17, 501239, Note_on_c, 12, 64, 0
17, 501840, Note_on_c, 12, 64, 40
17, 501959, Note_on_c, 12, 64, 0
17, 502200, Note_on_c, 12, 64, 40
17, 502319, Note_on_c, 12, 64, 0
17, 502920, Note_on_c, 12, 65, 40
17, 503039, Note_on_c, 12, 65, 0
17, 503280, Note_on_c, 12, 65, 40
17, 503399, Note_on_c, 12, 65, 0
17, 504000, Note_on_c, 12, 65, 40
17, 504119, Note_on_c, 12, 65, 0
17, 504360, Note_on_c, 12, 65, 40
17, 504479, Note_on_c, 12, 65, 0
17, 505080, Note_on_c, 12, 65, 40
17, 505199, Note_on_c, 12, 65, 0
17, 505440, Note_on_c, 12, 65, 40
17, 505559, Note_on_c, 12, 65, 0
17, 506160, Note_on_c, 12, 65, 40
17, 506279, Note_on_c, 12, 65, 0
17, 506520, Note_on_c, 12, 65, 40
17, 506639, Note_on_c, 12, 65, 0
17, 506880, Note_on_c, 12, 65, 40
17, 506999, Note_on_c, 12, 65, 0
17, 507240, Note_on_c, 12, 65, 40
17, 507359, Note_on_c, 12, 65, 0
17, 507600, Note_on_c, 12, 65, 40
17, 507719, Note_on_c, 12, 65, 0
17, 507840, Program_c, 12, 48
17, 507960, Note_on_c, 12, 67, 44
17, 508064, Note_on_c, 12, 67, 0
17, 508080, Note_on_c, 12, 69, 44
17, 508184, Note_on_c, 12, 69, 0
17, 508200, Note_on_c, 12, 70, 44
17, 508304, Note_on_c, 12, 70, 0
17, 508320, Note_on_c, 12, 70, 43
17, 508424, Note_on_c, 12, 70, 0
17, 508440, Note_on_c, 12, 69, 43
17, 508544, Note_on_c, 12, 69, 0
17, 508560, Note_on_c, 12, 67, 43
17, 508664, Note_on_c, 12, 67, 0
17, 508680, Note_on_c, 12, 67, 42
17, 508784, Note_on_c, 12, 67, 0
17, 508800, Note_on_c, 12, 69, 42
17, 508904, Note_on_c, 12, 69, 0
17, 508920, Note_on_c, 12, 67, 42
17, 509024, Note_on_c, 12, 67, 0
17, 509038, Program_c, 12, 45
17, 509040, Note_on_c, 12, 62, 33
17, 509159, Note_on_c, 12, 62, 0
17, 509400, Note_on_c, 12, 62, 32
17, 509519, Note_on_c, 12, 62, 0
17, 509760, Note_on_c, 12, 62, 31
17, 509879, Note_on_c, 12, 62, 0
17, 510000, Program_c, 12, 48
17, 510120, Note_on_c, 12, 64, 38
17, 510224, Note_on_c, 12, 64, 0
17, 510240, Note_on_c, 12, 65, 38
17, 510344, Note_on_c, 12, 65, 0
17, 510360, Note_on_c, 12, 67, 38
17, 510464, Note_on_c, 12, 67, 0
17, 510480, Note_on_c, 12, 67, 37
17, 510584, Note_on_c, 12, 67, 0
17, 510600, Note_on_c, 12, 65, 37
17, 510704, Note_on_c, 12, 65, 0
17, 510720, Note_on_c, 12, 64, 37
17, 510824, Note_on_c, 12, 64, 0
17, 510840, Note_on_c, 12, 64, 36
17, 510944, Note_on_c, 12, 64, 0
17, 510960, Note_on_c, 12, 65, 36
17, 511064, Note_on_c, 12, 65, 0
17, 511080, Note_on_c, 12, 64, 36
17, 511184, Note_on_c, 12, 64, 0
17, 511198, Program_c, 12, 45
17, 511560, Note_on_c, 12, 57, 30
17, 511679, Note_on_c, 12, 57, 0
17, 511920, Note_on_c, 12, 69, 29
17, 512039, Note_on_c, 12, 69, 0
17, 512160, Program_c, 12, 48
17, 512280, Note_on_c, 12, 64, 32
17, 512384, Note_on_c, 12, 64, 0
17, 512400, Note_on_c, 12, 65, 32
17, 512504, Note_on_c, 12, 65, 0
17, 512520, Note_on_c, 12, 67, 32
17, 512624, Note_on_c, 12, 67, 0
17, 512640, Note_on_c, 12, 67, 32
17, 512744, Note_on_c, 12, 67, 0
17, 512760, Note_on_c, 12, 65, 32
17, 512864, Note_on_c, 12, 65, 0
17, 512880, Note_on_c, 12, 64, 32
17, 512984, Note_on_c, 12, 64, 0
17, 513000, Note_on_c, 12, 64, 32
17, 513104, Note_on_c, 12, 64, 0
17, 513120, Note_on_c, 12, 65, 32
17, 513224, Note_on_c, 12, 65, 0
17, 513240, Note_on_c, 12, 64, 32
17, 513344, Note_on_c, 12, 64, 0
17, 513360, Note_on_c, 12, 64, 32
17, 513464, Note_on_c, 12, 64, 0
17, 513480, Note_on_c, 12, 65, 32
17, 513584, Note_on_c, 12, 65, 0
17, 513600, Note_on_c, 12, 67, 32
17, 513704, Note_on_c, 12, 67, 0
17, 513720, Note_on_c, 12, 69, 32
17, 513839, Note_on_c, 12, 69, 0
17, 513960, Program_c, 12, 45
17, 514080, Note_on_c, 12, 57, 28
17, 514199, Note_on_c, 12, 57, 0
17, 514800, Note_on_c, 12, 62, 28
17, 514919, Note_on_c, 12, 62, 0
17, 515160, Note_on_c, 12, 57, 28
17, 515279, Note_on_c, 12, 57, 0
17, 515880, Note_on_c, 12, 62, 28
17, 515999, Note_on_c, 12, 62, 0
17, 516240, Note_on_c, 12, 57, 28
17, 516359, Note_on_c, 12, 57, 0
17, 517680, Program_c, 12, 48
17, 518040, Note_on_c, 12, 79, 32
17, 518204, Note_on_c, 12, 79, 0
17, 518220, Note_on_c, 12, 67, 32
17, 518264, Note_on_c, 12, 67, 0
17, 518280, Note_on_c, 12, 67, 32
17, 518384, Note_on_c, 12, 67, 0
17, 518400, Note_on_c, 12, 72, 32
17, 518504, Note_on_c, 12, 72, 0
17, 518520, Note_on_c, 12, 74, 32
17, 518624, Note_on_c, 12, 74, 0
17, 518640, Note_on_c, 12, 75, 32
17, 518744, Note_on_c, 12, 75, 0
17, 518760, Note_on_c, 12, 74, 32
17, 518864, Note_on_c, 12, 74, 0
17, 518880, Note_on_c, 12, 75, 32
17, 518984, Note_on_c, 12, 75, 0
17, 519000, Note_on_c, 12, 77, 32
17, 519104, Note_on_c, 12, 77, 0
17, 519120, Note_on_c, 12, 75, 32
17, 519224, Note_on_c, 12, 75, 0
17, 519240, Note_on_c, 12, 71, 32
17, 519344, Note_on_c, 12, 71, 0
17, 519360, Note_on_c, 12, 72, 32
17, 519464, Note_on_c, 12, 72, 0
17, 519480, Note_on_c, 12, 70, 32
17, 519584, Note_on_c, 12, 70, 0
17, 519600, Note_on_c, 12, 70, 32
17, 519704, Note_on_c, 12, 70, 0
17, 519720, Note_on_c, 12, 70, 32
17, 519824, Note_on_c, 12, 70, 0
17, 519840, Note_on_c, 12, 70, 32
17, 519944, Note_on_c, 12, 70, 0
17, 519960, Note_on_c, 12, 70, 32
17, 520064, Note_on_c, 12, 70, 0
17, 520080, Note_on_c, 12, 70, 32
17, 520184, Note_on_c, 12, 70, 0
17, 520200, Note_on_c, 12, 68, 32
17, 520304, Note_on_c, 12, 68, 0
17, 520320, Note_on_c, 12, 67, 32
17, 520424, Note_on_c, 12, 67, 0
17, 520440, Note_on_c, 12, 65, 32
17, 520544, Note_on_c, 12, 65, 0
17, 520560, Note_on_c, 12, 70, 32
17, 520664, Note_on_c, 12, 70, 0
17, 520680, Note_on_c, 12, 70, 32
17, 520784, Note_on_c, 12, 70, 0
17, 520800, Note_on_c, 12, 70, 32
17, 520904, Note_on_c, 12, 70, 0
17, 520920, Note_on_c, 12, 70, 32
17, 521024, Note_on_c, 12, 70, 0
17, 521040, Note_on_c, 12, 75, 32
17, 521144, Note_on_c, 12, 75, 0
17, 521160, Note_on_c, 12, 77, 32
17, 521264, Note_on_c, 12, 77, 0
17, 521280, Note_on_c, 12, 79, 32
17, 521384, Note_on_c, 12, 79, 0
17, 521400, Note_on_c, 12, 77, 32
17, 521504, Note_on_c, 12, 77, 0
17, 521520, Note_on_c, 12, 75, 32
17, 521624, Note_on_c, 12, 75, 0
17, 521640, Note_on_c, 12, 74, 32
17, 523064, Note_on_c, 12, 74, 0
17, 523080, Note_on_c, 12, 70, 32
17, 523169, Note_on_c, 12, 70, 0
17, 523200, Note_on_c, 12, 68, 32
17, 523289, Note_on_c, 12, 68, 0
17, 523320, Note_on_c, 12, 67, 32
17, 523409, Note_on_c, 12, 67, 0
17, 523440, Note_on_c, 12, 79, 32
17, 523529, Note_on_c, 12, 79, 0
17, 523560, Note_on_c, 12, 77, 32
17, 523649, Note_on_c, 12, 77, 0
17, 523680, Note_on_c, 12, 75, 32
17, 523769, Note_on_c, 12, 75, 0
17, 523800, Note_on_c, 12, 82, 32
17, 523889, Note_on_c, 12, 82, 0
17, 523920, Note_on_c, 12, 80, 32
17, 524009, Note_on_c, 12, 80, 0
17, 524040, Note_on_c, 12, 79, 32
17, 524129, Note_on_c, 12, 79, 0
17, 524160, Note_on_c, 12, 79, 32
17, 524249, Note_on_c, 12, 79, 0
17, 524280, Note_on_c, 12, 77, 32
17, 524369, Note_on_c, 12, 77, 0
17, 524400, Note_on_c, 12, 75, 32
17, 524489, Note_on_c, 12, 75, 0
17, 524518, Control_c, 12, 11, 47
17, 524520, Control_c, 12, 11, 47
17, 524520, Note_on_c, 12, 65, 80
17, 524592, Control_c, 12, 11, 48
17, 524664, Control_c, 12, 11, 49
17, 524736, Control_c, 12, 11, 50
17, 524808, Control_c, 12, 11, 51
17, 524880, Control_c, 12, 11, 52
17, 524952, Control_c, 12, 11, 53
17, 525024, Control_c, 12, 11, 54
17, 525096, Control_c, 12, 11, 55
17, 525168, Control_c, 12, 11, 56
17, 525240, Control_c, 12, 11, 57
17, 525312, Control_c, 12, 11, 58
17, 525384, Control_c, 12, 11, 59
17, 525456, Control_c, 12, 11, 60
17, 525528, Control_c, 12, 11, 61
17, 525600, Control_c, 12, 11, 62
17, 525672, Control_c, 12, 11, 63
17, 525744, Control_c, 12, 11, 64
17, 525816, Control_c, 12, 11, 65
17, 525888, Control_c, 12, 11, 66
17, 525944, Note_on_c, 12, 65, 0
17, 525960, Control_c, 12, 11, 67
17, 525960, Note_on_c, 12, 65, 80
17, 525990, Control_c, 12, 11, 68
17, 526020, Control_c, 12, 11, 70
17, 526050, Control_c, 12, 11, 71
17, 526080, Control_c, 12, 11, 72
17, 526110, Control_c, 12, 11, 73
17, 526140, Control_c, 12, 11, 75
17, 526170, Control_c, 12, 11, 76
17, 526200, Control_c, 12, 11, 77
17, 526230, Control_c, 12, 11, 78
17, 526260, Control_c, 12, 11, 80
17, 526290, Control_c, 12, 11, 81
17, 526320, Control_c, 12, 11, 82
17, 526350, Control_c, 12, 11, 83
17, 526380, Control_c, 12, 11, 85
17, 526410, Control_c, 12, 11, 86
17, 526440, Control_c, 12, 11, 87
17, 526470, Control_c, 12, 11, 88
17, 526500, Control_c, 12, 11, 90
17, 526530, Control_c, 12, 11, 91
17, 526560, Control_c, 12, 11, 92
17, 526590, Control_c, 12, 11, 93
17, 526620, Control_c, 12, 11, 95
17, 526650, Control_c, 12, 11, 96
17, 526680, Control_c, 12, 11, 97
17, 526710, Control_c, 12, 11, 98
17, 526740, Control_c, 12, 11, 100
17, 526770, Control_c, 12, 11, 101
17, 526800, Control_c, 12, 11, 102
17, 526830, Control_c, 12, 11, 103
17, 526860, Control_c, 12, 11, 105
17, 526890, Control_c, 12, 11, 106
17, 526920, Control_c, 12, 11, 107
17, 526950, Control_c, 12, 11, 108
17, 526980, Control_c, 12, 11, 110
17, 527010, Control_c, 12, 11, 111
17, 527040, Control_c, 12, 11, 112
17, 527070, Control_c, 12, 11, 113
17, 527100, Control_c, 12, 11, 115
17, 527130, Control_c, 12, 11, 116
17, 527160, Control_c, 12, 11, 117
17, 527190, Control_c, 12, 11, 118
17, 527220, Control_c, 12, 11, 120
17, 527250, Control_c, 12, 11, 121
17, 527280, Control_c, 12, 11, 122
17, 527310, Control_c, 12, 11, 123
17, 527340, Control_c, 12, 11, 125
17, 527370, Control_c, 12, 11, 127
17, 527384, Note_on_c, 12, 65, 0
17, 527400, Note_on_c, 12, 69, 80
17, 527400, Note_on_c, 12, 77, 80
17, 527519, Note_on_c, 12, 69, 0
17, 527519, Note_on_c, 12, 77, 0
17, 528120, Note_on_c, 12, 69, 86
17, 528120, Note_on_c, 12, 81, 86
17, 528239, Note_on_c, 12, 69, 0
17, 528239, Note_on_c, 12, 81, 0
17, 528840, Note_on_c, 12, 69, 92
17, 528840, Note_on_c, 12, 81, 92
17, 529004, Note_on_c, 12, 69, 0
17, 529004, Note_on_c, 12, 81, 0
17, 529020, Note_on_c, 12, 69, 92
17, 529064, Note_on_c, 12, 69, 0
17, 529080, Note_on_c, 12, 69, 92
17, 529184, Note_on_c, 12, 69, 0
17, 529200, Note_on_c, 12, 69, 92
17, 529200, Note_on_c, 12, 81, 92
17, 529364, Note_on_c, 12, 69, 0
17, 529364, Note_on_c, 12, 81, 0
17, 529380, Note_on_c, 12, 69, 92
17, 529424, Note_on_c, 12, 69, 0
17, 529440, Note_on_c, 12, 69, 92
17, 529544, Note_on_c, 12, 69, 0
17, 529560, Note_on_c, 12, 81, 92
17, 529560, Note_on_c, 12, 69, 92
17, 529724, Note_on_c, 12, 81, 0
17, 529724, Note_on_c, 12, 69, 0
17, 529740, Note_on_c, 12, 69, 92
17, 529784, Note_on_c, 12, 69, 0
17, 529800, Note_on_c, 12, 69, 92
17, 529904, Note_on_c, 12, 69, 0
17, 529920, Note_on_c, 12, 69, 92
17, 529920, Note_on_c, 12, 81, 92
17, 530084, Note_on_c, 12, 69, 0
17, 530084, Note_on_c, 12, 81, 0
17, 530100, Note_on_c, 12, 69, 92
17, 530144, Note_on_c, 12, 69, 0
17, 530160, Note_on_c, 12, 69, 92
17, 530264, Note_on_c, 12, 69, 0
17, 530280, Note_on_c, 12, 81, 92
17, 530280, Note_on_c, 12, 69, 92
17, 530444, Note_on_c, 12, 81, 0
17, 530444, Note_on_c, 12, 69, 0
17, 530460, Note_on_c, 12, 69, 92
17, 530504, Note_on_c, 12, 69, 0
17, 530520, Note_on_c, 12, 69, 92
17, 530624, Note_on_c, 12, 69, 0
17, 530640, Note_on_c, 12, 74, 92
17, 530729, Note_on_c, 12, 74, 0
17, 530760, Note_on_c, 12, 76, 92
17, 530849, Note_on_c, 12, 76, 0
17, 530880, Note_on_c, 12, 77, 92
17, 530969, Note_on_c, 12, 77, 0
17, 531000, Note_on_c, 12, 76, 92
17, 531089, Note_on_c, 12, 76, 0
17, 531120, Note_on_c, 12, 77, 92
17, 531209, Note_on_c, 12, 77, 0
17, 531240, Note_on_c, 12, 79, 92
17, 531329, Note_on_c, 12, 79, 0
17, 531360, Note_on_c, 12, 77, 92
17, 531449, Note_on_c, 12, 77, 0
17, 531480, Note_on_c, 12, 76, 92
17, 531569, Note_on_c, 12, 76, 0
17, 531600, Note_on_c, 12, 74, 92
17, 531689, Note_on_c, 12, 74, 0
17, 531720, Note_on_c, 12, 70, 92
17, 531809, Note_on_c, 12, 70, 0
17, 531840, Note_on_c, 12, 69, 92
17, 531929, Note_on_c, 12, 69, 0
17, 531960, Note_on_c, 12, 67, 92
17, 532049, Note_on_c, 12, 67, 0
17, 532080, Note_on_c, 12, 65, 92
17, 532169, Note_on_c, 12, 65, 0
17, 532200, Note_on_c, 12, 76, 92
17, 532289, Note_on_c, 12, 76, 0
17, 532320, Note_on_c, 12, 74, 92
17, 532409, Note_on_c, 12, 74, 0
17, 532440, Note_on_c, 12, 73, 92
17, 532529, Note_on_c, 12, 73, 0
17, 532560, Note_on_c, 12, 74, 92
17, 532649, Note_on_c, 12, 74, 0
17, 532680, Note_on_c, 12, 76, 92
17, 532769, Note_on_c, 12, 76, 0
17, 532800, Note_on_c, 12, 74, 92
17, 532889, Note_on_c, 12, 74, 0
17, 532920, Note_on_c, 12, 73, 92
17, 533009, Note_on_c, 12, 73, 0
17, 533040, Note_on_c, 12, 74, 92
17, 533129, Note_on_c, 12, 74, 0
17, 533160, Note_on_c, 12, 70, 92
17, 533249, Note_on_c, 12, 70, 0
17, 533280, Note_on_c, 12, 69, 92
17, 533369, Note_on_c, 12, 69, 0
17, 533400, Note_on_c, 12, 67, 92
17, 533489, Note_on_c, 12, 67, 0
17, 533520, Note_on_c, 12, 65, 92
17, 533609, Note_on_c, 12, 65, 0
17, 533640, Note_on_c, 12, 76, 92
17, 533729, Note_on_c, 12, 76, 0
17, 533760, Note_on_c, 12, 74, 92
17, 533849, Note_on_c, 12, 74, 0
17, 533880, Note_on_c, 12, 73, 92
17, 533969, Note_on_c, 12, 73, 0
17, 534000, Note_on_c, 12, 74, 92
17, 534089, Note_on_c, 12, 74, 0
17, 534120, Note_on_c, 12, 76, 92
17, 534209, Note_on_c, 12, 76, 0
17, 534240, Note_on_c, 12, 74, 92
17, 534329, Note_on_c, 12, 74, 0
17, 534360, Note_on_c, 12, 73, 92
17, 534449, Note_on_c, 12, 73, 0
17, 534480, Note_on_c, 12, 74, 92
17, 534569, Note_on_c, 12, 74, 0
17, 534600, Note_on_c, 12, 72, 92
17, 534689, Note_on_c, 12, 72, 0
17, 534720, Note_on_c, 12, 74, 92
17, 534809, Note_on_c, 12, 74, 0
17, 534840, Note_on_c, 12, 75, 92
17, 534929, Note_on_c, 12, 75, 0
17, 534960, Note_on_c, 12, 67, 92
17, 535049, Note_on_c, 12, 67, 0
17, 535080, Note_on_c, 12, 69, 92
17, 535169, Note_on_c, 12, 69, 0
17, 535200, Note_on_c, 12, 70, 92
17, 535289, Note_on_c, 12, 70, 0
17, 535320, Note_on_c, 12, 69, 92
17, 535409, Note_on_c, 12, 69, 0
17, 535440, Note_on_c, 12, 70, 92
17, 535529, Note_on_c, 12, 70, 0
17, 535560, Note_on_c, 12, 72, 92
17, 535649, Note_on_c, 12, 72, 0
17, 535680, Note_on_c, 12, 70, 92
17, 535769, Note_on_c, 12, 70, 0
17, 535800, Note_on_c, 12, 69, 92
17, 535889, Note_on_c, 12, 69, 0
17, 535920, Note_on_c, 12, 67, 92
17, 536009, Note_on_c, 12, 67, 0
17, 536040, Note_on_c, 12, 75, 80
17, 536129, Note_on_c, 12, 75, 0
17, 536160, Note_on_c, 12, 74, 80
17, 536249, Note_on_c, 12, 74, 0
17, 536280, Note_on_c, 12, 72, 80
17, 536369, Note_on_c, 12, 72, 0
17, 536400, Note_on_c, 12, 70, 80
17, 536489, Note_on_c, 12, 70, 0
17, 536520, Note_on_c, 12, 69, 80
17, 536609, Note_on_c, 12, 69, 0
17, 536640, Note_on_c, 12, 67, 80
17, 536729, Note_on_c, 12, 67, 0
17, 536760, Note_on_c, 12, 77, 80
17, 536849, Note_on_c, 12, 77, 0
17, 536880, Note_on_c, 12, 75, 80
17, 536969, Note_on_c, 12, 75, 0
17, 537000, Note_on_c, 12, 74, 80
17, 537089, Note_on_c, 12, 74, 0
17, 537120, Note_on_c, 12, 72, 80
17, 537209, Note_on_c, 12, 72, 0
17, 537240, Note_on_c, 12, 70, 80
17, 537329, Note_on_c, 12, 70, 0
17, 537360, Note_on_c, 12, 69, 80
17, 537449, Note_on_c, 12, 69, 0
17, 537480, Note_on_c, 12, 79, 80
17, 537569, Note_on_c, 12, 79, 0
17, 537600, Note_on_c, 12, 77, 80
17, 537689, Note_on_c, 12, 77, 0
17, 537720, Note_on_c, 12, 75, 80
17, 537809, Note_on_c, 12, 75, 0
17, 537840, Note_on_c, 12, 74, 80
17, 537929, Note_on_c, 12, 74, 0
17, 537960, Note_on_c, 12, 72, 80
17, 538049, Note_on_c, 12, 72, 0
17, 538080, Note_on_c, 12, 70, 80
17, 538169, Note_on_c, 12, 70, 0
17, 538200, Note_on_c, 12, 69, 80
17, 538289, Note_on_c, 12, 69, 0
17, 538320, Note_on_c, 12, 67, 80
17, 538409, Note_on_c, 12, 67, 0
17, 538440, Note_on_c, 12, 65, 80
17, 538529, Note_on_c, 12, 65, 0
17, 538560, Note_on_c, 12, 63, 80
17, 538649, Note_on_c, 12, 63, 0
17, 538680, Note_on_c, 12, 62, 80
17, 538769, Note_on_c, 12, 62, 0
17, 538800, Note_on_c, 12, 60, 80
17, 538889, Note_on_c, 12, 60, 0
17, 538920, Note_on_c, 12, 58, 80
17, 539009, Note_on_c, 12, 58, 0
17, 539280, Note_on_c, 12, 77, 44
17, 539444, Note_on_c, 12, 77, 0
17, 539460, Note_on_c, 12, 65, 44
17, 539504, Note_on_c, 12, 65, 0
17, 539520, Note_on_c, 12, 65, 44
17, 539624, Note_on_c, 12, 65, 0
17, 539640, Note_on_c, 12, 77, 44
17, 539804, Note_on_c, 12, 77, 0
17, 539820, Note_on_c, 12, 65, 48
17, 539864, Note_on_c, 12, 65, 0
17, 539880, Note_on_c, 12, 65, 49
17, 539984, Note_on_c, 12, 65, 0
17, 540000, Note_on_c, 12, 75, 52
17, 540164, Note_on_c, 12, 75, 0
17, 540180, Note_on_c, 12, 63, 56
17, 540224, Note_on_c, 12, 63, 0
17, 540240, Note_on_c, 12, 63, 57
17, 540344, Note_on_c, 12, 63, 0
17, 540360, Note_on_c, 12, 75, 60
17, 540524, Note_on_c, 12, 75, 0
17, 540540, Note_on_c, 12, 63, 64
17, 540584, Note_on_c, 12, 63, 0
17, 540600, Note_on_c, 12, 63, 65
17, 540704, Note_on_c, 12, 63, 0
17, 540720, Note_on_c, 12, 77, 68
17, 540884, Note_on_c, 12, 77, 0
17, 540900, Note_on_c, 12, 65, 64
17, 540944, Note_on_c, 12, 65, 0
17, 540960, Note_on_c, 12, 65, 63
17, 541064, Note_on_c, 12, 65, 0
17, 541080, Note_on_c, 12, 77, 60
17, 541244, Note_on_c, 12, 77, 0
17, 541260, Note_on_c, 12, 65, 56
17, 541304, Note_on_c, 12, 65, 0
17, 541320, Note_on_c, 12, 65, 55
17, 541424, Note_on_c, 12, 65, 0
17, 541440, Note_on_c, 12, 77, 52
17, 541604, Note_on_c, 12, 77, 0
17, 541620, Note_on_c, 12, 65, 48
17, 541664, Note_on_c, 12, 65, 0
17, 541680, Note_on_c, 12, 65, 47
17, 541784, Note_on_c, 12, 65, 0
17, 542880, Note_on_c, 12, 81, 44
17, 543044, Note_on_c, 12, 81, 0
17, 543060, Note_on_c, 12, 69, 47
17, 543104, Note_on_c, 12, 69, 0
17, 543120, Note_on_c, 12, 69, 48
17, 543224, Note_on_c, 12, 69, 0
17, 543240, Note_on_c, 12, 81, 50
17, 543404, Note_on_c, 12, 81, 0
17, 543420, Note_on_c, 12, 69, 53
17, 543464, Note_on_c, 12, 69, 0
17, 543480, Note_on_c, 12, 69, 54
17, 543584, Note_on_c, 12, 69, 0
17, 543600, Note_on_c, 12, 79, 56
17, 543764, Note_on_c, 12, 79, 0
17, 543780, Note_on_c, 12, 67, 59
17, 543824, Note_on_c, 12, 67, 0
17, 543840, Note_on_c, 12, 67, 60
17, 543944, Note_on_c, 12, 67, 0
17, 543960, Note_on_c, 12, 79, 62
17, 544124, Note_on_c, 12, 79, 0
17, 544140, Note_on_c, 12, 67, 65
17, 544184, Note_on_c, 12, 67, 0
17, 544200, Note_on_c, 12, 67, 66
17, 544304, Note_on_c, 12, 67, 0
17, 544320, Note_on_c, 12, 78, 68
17, 544484, Note_on_c, 12, 78, 0
17, 544500, Note_on_c, 12, 66, 64
17, 544544, Note_on_c, 12, 66, 0
17, 544560, Note_on_c, 12, 66, 63
17, 544664, Note_on_c, 12, 66, 0
17, 544680, Note_on_c, 12, 77, 60
17, 544844, Note_on_c, 12, 77, 0
17, 544860, Note_on_c, 12, 65, 56
17, 544904, Note_on_c, 12, 65, 0
17, 544920, Note_on_c, 12, 65, 55
17, 545024, Note_on_c, 12, 65, 0
17, 545040, Note_on_c, 12, 76, 52
17, 545204, Note_on_c, 12, 76, 0
17, 545220, Note_on_c, 12, 64, 48
17, 545264, Note_on_c, 12, 64, 0
17, 545280, Note_on_c, 12, 64, 47
17, 545384, Note_on_c, 12, 64, 0
17, 546120, Note_on_c, 12, 70, 50
17, 546284, Note_on_c, 12, 70, 0
17, 546300, Note_on_c, 12, 58, 53
17, 546344, Note_on_c, 12, 58, 0
17, 546360, Note_on_c, 12, 58, 54
17, 546464, Note_on_c, 12, 58, 0
17, 546480, Note_on_c, 12, 70, 56
17, 546644, Note_on_c, 12, 70, 0
17, 546660, Note_on_c, 12, 58, 59
17, 546704, Note_on_c, 12, 58, 0
17, 546720, Note_on_c, 12, 58, 60
17, 546824, Note_on_c, 12, 58, 0
17, 546840, Note_on_c, 12, 69, 62
17, 547004, Note_on_c, 12, 69, 0
17, 547020, Note_on_c, 12, 57, 65
17, 547064, Note_on_c, 12, 57, 0
17, 547080, Note_on_c, 12, 57, 66
17, 547184, Note_on_c, 12, 57, 0
17, 547200, Note_on_c, 12, 69, 68
17, 547364, Note_on_c, 12, 69, 0
17, 547380, Note_on_c, 12, 57, 64
17, 547424, Note_on_c, 12, 57, 0
17, 547440, Note_on_c, 12, 57, 63
17, 547544, Note_on_c, 12, 57, 0
17, 547560, Note_on_c, 12, 68, 60
17, 547724, Note_on_c, 12, 68, 0
17, 547740, Note_on_c, 12, 56, 56
17, 547784, Note_on_c, 12, 56, 0
17, 547800, Note_on_c, 12, 56, 55
17, 547904, Note_on_c, 12, 56, 0
17, 547920, Note_on_c, 12, 69, 52
17, 548084, Note_on_c, 12, 69, 0
17, 548100, Note_on_c, 12, 57, 48
17, 548144, Note_on_c, 12, 57, 0
17, 548160, Note_on_c, 12, 57, 47
17, 548264, Note_on_c, 12, 57, 0
17, 548280, Program_c, 12, 45
17, 548520, Note_on_c, 12, 57, 40
17, 548639, Note_on_c, 12, 57, 0
17, 548880, Note_on_c, 12, 69, 46
17, 548999, Note_on_c, 12, 69, 0
17, 549240, Note_on_c, 12, 75, 52
17, 549359, Note_on_c, 12, 75, 0
17, 549600, Note_on_c, 12, 76, 58
17, 549719, Note_on_c, 12, 76, 0
17, 549960, Note_on_c, 12, 69, 64
17, 550079, Note_on_c, 12, 69, 0
17, 550320, Note_on_c, 12, 69, 70
17, 550439, Note_on_c, 12, 69, 0
17, 550680, Note_on_c, 12, 74, 76
17, 550799, Note_on_c, 12, 74, 0
17, 551040, Note_on_c, 12, 69, 82
17, 551144, Note_on_c, 12, 69, 0
17, 551158, Program_c, 12, 48
17, 551160, Note_on_c, 12, 74, 92
17, 551324, Note_on_c, 12, 74, 0
17, 551340, Note_on_c, 12, 62, 92
17, 551384, Note_on_c, 12, 62, 0
17, 551400, Note_on_c, 12, 62, 92
17, 551504, Note_on_c, 12, 62, 0
17, 551520, Note_on_c, 12, 74, 92
17, 551684, Note_on_c, 12, 74, 0
17, 551700, Note_on_c, 12, 62, 92
17, 551744, Note_on_c, 12, 62, 0
17, 551760, Note_on_c, 12, 62, 92
17, 551864, Note_on_c, 12, 62, 0
17, 551880, Note_on_c, 12, 74, 92
17, 552044, Note_on_c, 12, 74, 0
17, 552060, Note_on_c, 12, 62, 92
17, 552104, Note_on_c, 12, 62, 0
17, 552120, Note_on_c, 12, 62, 92
17, 552224, Note_on_c, 12, 62, 0
17, 552240, Note_on_c, 12, 74, 92
17, 552404, Note_on_c, 12, 74, 0
17, 552420, Note_on_c, 12, 62, 92
17, 552464, Note_on_c, 12, 62, 0
17, 552480, Note_on_c, 12, 62, 92
17, 552584, Note_on_c, 12, 62, 0
17, 552600, Note_on_c, 12, 74, 92
17, 552764, Note_on_c, 12, 74, 0
17, 552780, Note_on_c, 12, 62, 92
17, 552824, Note_on_c, 12, 62, 0
17, 552840, Note_on_c, 12, 62, 92
17, 552944, Note_on_c, 12, 62, 0
17, 552960, Note_on_c, 12, 74, 92
17, 553124, Note_on_c, 12, 74, 0
17, 553140, Note_on_c, 12, 62, 92
17, 553184, Note_on_c, 12, 62, 0
17, 553200, Note_on_c, 12, 62, 92
17, 553304, Note_on_c, 12, 62, 0
17, 553320, Note_on_c, 12, 74, 92
17, 553484, Note_on_c, 12, 74, 0
17, 553500, Note_on_c, 12, 62, 92
17, 553544, Note_on_c, 12, 62, 0
17, 553560, Note_on_c, 12, 62, 92
17, 553664, Note_on_c, 12, 62, 0
17, 553680, Note_on_c, 12, 74, 92
17, 553844, Note_on_c, 12, 74, 0
17, 553860, Note_on_c, 12, 62, 92
17, 553904, Note_on_c, 12, 62, 0
17, 553920, Note_on_c, 12, 62, 92
17, 554024, Note_on_c, 12, 62, 0
17, 554040, Note_on_c, 12, 74, 92
17, 554204, Note_on_c, 12, 74, 0
17, 554220, Note_on_c, 12, 62, 92
17, 554264, Note_on_c, 12, 62, 0
17, 554280, Note_on_c, 12, 62, 92
17, 554384, Note_on_c, 12, 62, 0
17, 554400, Note_on_c, 12, 74, 92
17, 554564, Note_on_c, 12, 74, 0
17, 554580, Note_on_c, 12, 62, 92
17, 554624, Note_on_c, 12, 62, 0
17, 554640, Note_on_c, 12, 62, 92
17, 554744, Note_on_c, 12, 62, 0
17, 554760, Note_on_c, 12, 74, 92
17, 554924, Note_on_c, 12, 74, 0
17, 554940, Note_on_c, 12, 62, 92
17, 554984, Note_on_c, 12, 62, 0
17, 555000, Note_on_c, 12, 62, 92
17, 555104, Note_on_c, 12, 62, 0
17, 555120, Note_on_c, 12, 74, 92
17, 555284, Note_on_c, 12, 74, 0
17, 555300, Note_on_c, 12, 62, 92
17, 555344, Note_on_c, 12, 62, 0
17, 555360, Note_on_c, 12, 62, 92
17, 555464, Note_on_c, 12, 62, 0
17, 555480, Note_on_c, 12, 74, 92
17, 555644, Note_on_c, 12, 74, 0
17, 555660, Note_on_c, 12, 62, 92
17, 555704, Note_on_c, 12, 62, 0
17, 555720, Note_on_c, 12, 62, 92
17, 555824, Note_on_c, 12, 62, 0
17, 555840, Note_on_c, 12, 74, 92
17, 556004, Note_on_c, 12, 74, 0
17, 556020, Note_on_c, 12, 62, 92
17, 556064, Note_on_c, 12, 62, 0
17, 556080, Note_on_c, 12, 62, 92
17, 556184, Note_on_c, 12, 62, 0
17, 556200, Note_on_c, 12, 74, 92
17, 556364, Note_on_c, 12, 74, 0
17, 556380, Note_on_c, 12, 62, 92
17, 556424, Note_on_c, 12, 62, 0
17, 556440, Note_on_c, 12, 62, 92
17, 556544, Note_on_c, 12, 62, 0
17, 556560, Note_on_c, 12, 74, 92
17, 556724, Note_on_c, 12, 74, 0
17, 556740, Note_on_c, 12, 62, 92
17, 556784, Note_on_c, 12, 62, 0
17, 556800, Note_on_c, 12, 62, 92
17, 556904, Note_on_c, 12, 62, 0
17, 556920, Note_on_c, 12, 62, 92
17, 556920, Note_on_c, 12, 74, 92
17, 557039, Note_on_c, 12, 62, 0
17, 557039, Note_on_c, 12, 74, 0
17, 557640, Note_on_c, 12, 70, 92
17, 557804, Note_on_c, 12, 70, 0
17, 557820, Note_on_c, 12, 58, 92
17, 557864, Note_on_c, 12, 58, 0
17, 557880, Note_on_c, 12, 58, 92
17, 557984, Note_on_c, 12, 58, 0
17, 558000, Note_on_c, 12, 70, 92
17, 558089, Note_on_c, 12, 70, 0
17, 558120, Note_on_c, 12, 67, 92
17, 558209, Note_on_c, 12, 67, 0
17, 558240, Note_on_c, 12, 65, 92
17, 558329, Note_on_c, 12, 65, 0
17, 558360, Note_on_c, 12, 64, 92
17, 558479, Note_on_c, 12, 64, 0
17, 559080, Note_on_c, 12, 81, 92
17, 559244, Note_on_c, 12, 81, 0
17, 559260, Note_on_c, 12, 69, 92
17, 559304, Note_on_c, 12, 69, 0
17, 559320, Note_on_c, 12, 69, 92
17, 559424, Note_on_c, 12, 69, 0
17, 559440, Note_on_c, 12, 81, 92
17, 559544, Note_on_c, 12, 81, 0
17, 559560, Note_on_c, 12, 77, 92
17, 559664, Note_on_c, 12, 77, 0
17, 559680, Note_on_c, 12, 76, 92
17, 559784, Note_on_c, 12, 76, 0
17, 559798, Control_c, 12, 11, 87
17, 559800, Note_on_c, 12, 62, 68
17, 559919, Note_on_c, 12, 62, 0
17, 559920, Note_on_c, 12, 64, 68
17, 560039, Note_on_c, 12, 64, 0
17, 560040, Note_on_c, 12, 66, 68
17, 560159, Note_on_c, 12, 66, 0
17, 560160, Note_on_c, 12, 67, 68
17, 560520, Control_c, 12, 11, 87
17, 560555, Control_c, 12, 11, 89
17, 560590, Control_c, 12, 11, 90
17, 560625, Control_c, 12, 11, 92
17, 560639, Note_on_c, 12, 67, 0
17, 560640, Note_on_c, 12, 65, 68
17, 560660, Control_c, 12, 11, 94
17, 560695, Control_c, 12, 11, 95
17, 560730, Control_c, 12, 11, 97
17, 560759, Note_on_c, 12, 65, 0
17, 560760, Note_on_c, 12, 63, 68
17, 560765, Control_c, 12, 11, 99
17, 560800, Control_c, 12, 11, 100
17, 560835, Control_c, 12, 11, 102
17, 560864, Note_on_c, 12, 63, 0
17, 560870, Control_c, 12, 11, 104
17, 560880, Note_on_c, 12, 75, 68
17, 560905, Control_c, 12, 11, 105
17, 560940, Control_c, 12, 11, 107
17, 560975, Control_c, 12, 11, 109
17, 560999, Note_on_c, 12, 75, 0
17, 561000, Note_on_c, 12, 77, 68
17, 561010, Control_c, 12, 11, 110
17, 561045, Control_c, 12, 11, 112
17, 561080, Control_c, 12, 11, 114
17, 561115, Control_c, 12, 11, 115
17, 561119, Note_on_c, 12, 77, 0
17, 561120, Note_on_c, 12, 79, 68
17, 561150, Control_c, 12, 11, 117
17, 561185, Control_c, 12, 11, 119
17, 561220, Control_c, 12, 11, 120
17, 561224, Note_on_c, 12, 79, 0
17, 561240, Note_on_c, 12, 76, 68
17, 561255, Control_c, 12, 11, 122
17, 561290, Control_c, 12, 11, 124
17, 561325, Control_c, 12, 11, 125
17, 561359, Note_on_c, 12, 76, 0
17, 561360, Note_on_c, 12, 77, 68
17, 561479, Note_on_c, 12, 77, 0
17, 561480, Note_on_c, 12, 79, 68
17, 561480, Control_c, 12, 11, 127
17, 561507, Control_c, 12, 11, 125
17, 561533, Control_c, 12, 11, 123
17, 561560, Control_c, 12, 11, 120
17, 561584, Note_on_c, 12, 79, 0
17, 561587, Control_c, 12, 11, 118
17, 561600, Note_on_c, 12, 76, 68
17, 561613, Control_c, 12, 11, 116
17, 561640, Control_c, 12, 11, 114
17, 561667, Control_c, 12, 11, 111
17, 561693, Control_c, 12, 11, 109
17, 561719, Note_on_c, 12, 76, 0
17, 561720, Control_c, 12, 11, 107
17, 561720, Note_on_c, 12, 74, 68
17, 561747, Control_c, 12, 11, 105
17, 561773, Control_c, 12, 11, 103
17, 561800, Control_c, 12, 11, 100
17, 561827, Control_c, 12, 11, 98
17, 561839, Note_on_c, 12, 74, 0
17, 561840, Note_on_c, 12, 73, 68
17, 561853, Control_c, 12, 11, 96
17, 561880, Control_c, 12, 11, 94
17, 561907, Control_c, 12, 11, 91
17, 561933, Control_c, 12, 11, 89
17, 561959, Note_on_c, 12, 73, 0
17, 563760, Control_c, 12, 11, 127
17, 564120, Note_on_c, 12, 65, 80
17, 564209, Note_on_c, 12, 65, 0
17, 564240, Note_on_c, 12, 67, 80
17, 564329, Note_on_c, 12, 67, 0
17, 564360, Note_on_c, 12, 74, 80
17, 564449, Note_on_c, 12, 74, 0
17, 564480, Note_on_c, 12, 76, 80
17, 564480, Note_on_c, 12, 74, 80
17, 564569, Note_on_c, 12, 76, 0
17, 564569, Note_on_c, 12, 74, 0
17, 564600, Note_on_c, 12, 73, 80
17, 564600, Note_on_c, 12, 76, 80
17, 564689, Note_on_c, 12, 73, 0
17, 564689, Note_on_c, 12, 76, 0
17, 564720, Note_on_c, 12, 65, 80
17, 564720, Note_on_c, 12, 74, 80
17, 564809, Note_on_c, 12, 65, 0
17, 564809, Note_on_c, 12, 74, 0
17, 564840, Note_on_c, 12, 74, 80
17, 564840, Note_on_c, 12, 65, 80
17, 564929, Note_on_c, 12, 74, 0
17, 564929, Note_on_c, 12, 65, 0
17, 565560, Note_on_c, 12, 74, 80
17, 565649, Note_on_c, 12, 74, 0
17, 565680, Note_on_c, 12, 86, 80
17, 565769, Note_on_c, 12, 86, 0
17, 565800, Note_on_c, 12, 86, 80
17, 565889, Note_on_c, 12, 86, 0
17, 565920, Note_on_c, 12, 88, 80
17, 566009, Note_on_c, 12, 88, 0
17, 566040, Note_on_c, 12, 73, 80
17, 566129, Note_on_c, 12, 73, 0
17, 566160, Note_on_c, 12, 77, 80
17, 566249, Note_on_c, 12, 77, 0
17, 566280, Note_on_c, 12, 74, 80
17, 566444, Note_on_c, 12, 74, 0
17, 566460, Note_on_c, 12, 62, 80
17, 566504, Note_on_c, 12, 62, 0
17, 566520, Note_on_c, 12, 62, 80
17, 566624, Note_on_c, 12, 62, 0
17, 566640, Note_on_c, 12, 57, 80
17, 566759, Note_on_c, 12, 57, 0
17, 567000, Note_on_c, 12, 74, 80
17, 567164, Note_on_c, 12, 74, 0
17, 567180, Note_on_c, 12, 62, 80
17, 567224, Note_on_c, 12, 62, 0
17, 567240, Note_on_c, 12, 62, 80
17, 567344, Note_on_c, 12, 62, 0
17, 567360, Note_on_c, 12, 57, 80
17, 567479, Note_on_c, 12, 57, 0
17, 568080, Note_on_c, 12, 64, 32
17, 568199, Note_on_c, 12, 64, 0
17, 568200, Note_on_c, 12, 61, 32
17, 568319, Note_on_c, 12, 61, 0
17, 568320, Note_on_c, 12, 55, 32
17, 568439, Note_on_c, 12, 55, 0
17, 568440, Note_on_c, 12, 61, 32
17, 568559, Note_on_c, 12, 61, 0
17, 568560, Note_on_c, 12, 64, 32
17, 568679, Note_on_c, 12, 64, 0
17, 568680, Note_on_c, 12, 67, 32
17, 568799, Note_on_c, 12, 67, 0
17, 568800, Note_on_c, 12, 64, 32
17, 568919, Note_on_c, 12, 64, 0
17, 568920, Note_on_c, 12, 67, 32
17, 569039, Note_on_c, 12, 67, 0
17, 569040, Note_on_c, 12, 73, 32
17, 569144, Note_on_c, 12, 73, 0
17, 569160, Note_on_c, 12, 69, 32
17, 569324, Note_on_c, 12, 69, 0
17, 569340, Note_on_c, 12, 57, 32
17, 569384, Note_on_c, 12, 57, 0
17, 569400, Note_on_c, 12, 57, 32
17, 569504, Note_on_c, 12, 57, 0
17, 569520, Note_on_c, 12, 57, 32
17, 569639, Note_on_c, 12, 57, 0
17, 569880, Note_on_c, 12, 69, 32
17, 570044, Note_on_c, 12, 69, 0
17, 570060, Note_on_c, 12, 57, 32
17, 570104, Note_on_c, 12, 57, 0
17, 570120, Note_on_c, 12, 57, 32
17, 570224, Note_on_c, 12, 57, 0
17, 570240, Note_on_c, 12, 57, 32
17, 570359, Note_on_c, 12, 57, 0
17, 572040, Note_on_c, 12, 69, 32
17, 572204, Note_on_c, 12, 69, 0
17, 572220, Note_on_c, 12, 57, 36
17, 572264, Note_on_c, 12, 57, 0
17, 572280, Note_on_c, 12, 57, 37
17, 572384, Note_on_c, 12, 57, 0
17, 572400, Note_on_c, 12, 57, 40
17, 572519, Note_on_c, 12, 57, 0
17, 572760, Note_on_c, 12, 69, 48
17, 572924, Note_on_c, 12, 69, 0
17, 572940, Note_on_c, 12, 57, 52
17, 572984, Note_on_c, 12, 57, 0
17, 573000, Note_on_c, 12, 57, 53
17, 573104, Note_on_c, 12, 57, 0
17, 573120, Note_on_c, 12, 57, 56
17, 573239, Note_on_c, 12, 57, 0
17, 573480, Note_on_c, 12, 62, 64
17, 573644, Note_on_c, 12, 62, 0
17, 573660, Note_on_c, 12, 65, 68
17, 573704, Note_on_c, 12, 65, 0
17, 573720, Note_on_c, 12, 65, 69
17, 573824, Note_on_c, 12, 65, 0
17, 573840, Note_on_c, 12, 67, 72
17, 573959, Note_on_c, 12, 67, 0
17, 574200, Note_on_c, 12, 67, 80
17, 574364, Note_on_c, 12, 67, 0
17, 574380, Note_on_c, 12, 74, 80
17, 574424, Note_on_c, 12, 74, 0
17, 574440, Note_on_c, 12, 74, 80
17, 574544, Note_on_c, 12, 74, 0
17, 574560, Note_on_c, 12, 64, 92
17, 574560, Note_on_c, 12, 73, 92
17, 574679, Note_on_c, 12, 64, 0
17, 574679, Note_on_c, 12, 73, 0
17, 575280, Note_on_c, 12, 64, 32
17, 575384, Note_on_c, 12, 64, 0
17, 575400, Note_on_c, 12, 65, 32
17, 575504, Note_on_c, 12, 65, 0
17, 575520, Note_on_c, 12, 67, 32
17, 575624, Note_on_c, 12, 67, 0
17, 575640, Note_on_c, 12, 69, 32
17, 575744, Note_on_c, 12, 69, 0
17, 575760, Note_on_c, 12, 67, 32
17, 575864, Note_on_c, 12, 67, 0
17, 575880, Note_on_c, 12, 65, 32
17, 575984, Note_on_c, 12, 65, 0
17, 576000, Note_on_c, 12, 66, 32
17, 576104, Note_on_c, 12, 66, 0
17, 576120, Note_on_c, 12, 67, 32
17, 576224, Note_on_c, 12, 67, 0
17, 576240, Note_on_c, 12, 69, 32
17, 576344, Note_on_c, 12, 69, 0
17, 576360, Note_on_c, 12, 70, 32
17, 576464, Note_on_c, 12, 70, 0
17, 576480, Note_on_c, 12, 69, 32
17, 576584, Note_on_c, 12, 69, 0
17, 576600, Note_on_c, 12, 67, 32
17, 576704, Note_on_c, 12, 67, 0
17, 576720, Note_on_c, 12, 64, 32
17, 576824, Note_on_c, 12, 64, 0
17, 576840, Note_on_c, 12, 65, 32
17, 576944, Note_on_c, 12, 65, 0
17, 576960, Note_on_c, 12, 67, 32
17, 577064, Note_on_c, 12, 67, 0
17, 577080, Note_on_c, 12, 69, 32
17, 577184, Note_on_c, 12, 69, 0
17, 577200, Note_on_c, 12, 67, 32
17, 577304, Note_on_c, 12, 67, 0
17, 577320, Note_on_c, 12, 65, 32
17, 577424, Note_on_c, 12, 65, 0
17, 577440, Note_on_c, 12, 66, 32
17, 577544, Note_on_c, 12, 66, 0
17, 577560, Note_on_c, 12, 67, 32
17, 577664, Note_on_c, 12, 67, 0
17, 577680, Note_on_c, 12, 69, 32
17, 577784, Note_on_c, 12, 69, 0
17, 577800, Note_on_c, 12, 70, 32
17, 577904, Note_on_c, 12, 70, 0
17, 577920, Note_on_c, 12, 69, 32
17, 578024, Note_on_c, 12, 69, 0
17, 578040, Note_on_c, 12, 67, 32
17, 578144, Note_on_c, 12, 67, 0
17, 578160, Note_on_c, 12, 81, 32
17, 578324, Note_on_c, 12, 81, 0
17, 578340, Note_on_c, 12, 69, 35
17, 578384, Note_on_c, 12, 69, 0
17, 578400, Note_on_c, 12, 69, 37
17, 578504, Note_on_c, 12, 69, 0
17, 578520, Note_on_c, 12, 74, 39
17, 578619, Note_on_c, 12, 74, 0
17, 578640, Note_on_c, 12, 76, 42
17, 578739, Note_on_c, 12, 76, 0
17, 578760, Note_on_c, 12, 77, 44
17, 578859, Note_on_c, 12, 77, 0
17, 578880, Note_on_c, 12, 81, 47
17, 579039, Note_on_c, 12, 81, 0
17, 579060, Note_on_c, 12, 69, 50
17, 579099, Note_on_c, 12, 69, 0
17, 579120, Note_on_c, 12, 69, 52
17, 579219, Note_on_c, 12, 69, 0
17, 579240, Note_on_c, 12, 74, 54
17, 579339, Note_on_c, 12, 74, 0
17, 579360, Note_on_c, 12, 76, 57
17, 579459, Note_on_c, 12, 76, 0
17, 579480, Note_on_c, 12, 77, 59
17, 579579, Note_on_c, 12, 77, 0
17, 579600, Note_on_c, 12, 81, 62
17, 579759, Note_on_c, 12, 81, 0
17, 579780, Note_on_c, 12, 69, 65
17, 579819, Note_on_c, 12, 69, 0
17, 579840, Note_on_c, 12, 69, 67
17, 579939, Note_on_c, 12, 69, 0
17, 579960, Note_on_c, 12, 74, 69
17, 580059, Note_on_c, 12, 74, 0
17, 580080, Note_on_c, 12, 76, 72
17, 580179, Note_on_c, 12, 76, 0
17, 580200, Note_on_c, 12, 77, 74
17, 580299, Note_on_c, 12, 77, 0
17, 580320, Note_on_c, 12, 81, 77
17, 580479, Note_on_c, 12, 81, 0
17, 580500, Note_on_c, 12, 69, 80
17, 580539, Note_on_c, 12, 69, 0
17, 580560, Note_on_c, 12, 69, 82
17, 580659, Note_on_c, 12, 69, 0
17, 580680, Note_on_c, 12, 74, 84
17, 580779, Note_on_c, 12, 74, 0
17, 580800, Note_on_c, 12, 76, 87
17, 580899, Note_on_c, 12, 76, 0
17, 580920, Note_on_c, 12, 77, 89
17, 581019, Note_on_c, 12, 77, 0
17, 581040, Note_on_c, 12, 81, 92
17, 581139, Note_on_c, 12, 81, 0
17, 581160, Note_on_c, 12, 69, 92
17, 581259, Note_on_c, 12, 69, 0
17, 581280, Note_on_c, 12, 74, 80
17, 581379, Note_on_c, 12, 74, 0
17, 581400, Note_on_c, 12, 62, 80
17, 581499, Note_on_c, 12, 62, 0
17, 581520, Note_on_c, 12, 69, 80
17, 581619, Note_on_c, 12, 69, 0
17, 581640, Note_on_c, 12, 57, 80
17, 581739, Note_on_c, 12, 57, 0
17, 581760, Note_on_c, 12, 81, 80
17, 581859, Note_on_c, 12, 81, 0
17, 581880, Note_on_c, 12, 69, 80
17, 581979, Note_on_c, 12, 69, 0
17, 582000, Note_on_c, 12, 86, 80
17, 582000, Note_on_c, 12, 74, 80
17, 582059, Note_on_c, 12, 86, 0
17, 582059, Note_on_c, 12, 74, 0
17, 582060, Note_on_c, 12, 74, 44
17, 582060, Note_on_c, 12, 86, 44
17, 583439, Note_on_c, 12, 74, 0
17, 583439, Note_on_c, 12, 86, 0
17, 583440, Note_on_c, 12, 86, 44
17, 583440, Note_on_c, 12, 74, 44
17, 585359, Note_on_c, 12, 86, 0
17, 585359, Note_on_c, 12, 74, 0
17, 585840, Note_on_c, 12, 81, 92
17, 585939, Note_on_c, 12, 81, 0
17, 585960, Note_on_c, 12, 69, 92
17, 586059, Note_on_c, 12, 69, 0
17, 586080, Note_on_c, 12, 74, 80
17, 586179, Note_on_c, 12, 74, 0
17, 586200, Note_on_c, 12, 62, 80
17, 586299, Note_on_c, 12, 62, 0
17, 586320, Note_on_c, 12, 69, 80
17, 586419, Note_on_c, 12, 69, 0
17, 586440, Note_on_c, 12, 57, 80
17, 586539, Note_on_c, 12, 57, 0
17, 586560, Note_on_c, 12, 81, 80
17, 586659, Note_on_c, 12, 81, 0
17, 586680, Note_on_c, 12, 69, 80
17, 586779, Note_on_c, 12, 69, 0
17, 586800, Note_on_c, 12, 62, 80
17, 586919, Note_on_c, 12, 62, 0
17, 586919, End_track
18, 0, Start_track
18, 0, Title_t, "Viola "
18, 0, MIDI_port, 0
18, 0, Program_c, 13, 48
18, 0, Control_c, 13, 11, 127
18, 0, Control_c, 13, 10, 70
18, 0, Control_c, 13, 7, 96
18, 0, Note_on_c, 13, 74, 92
18, 164, Note_on_c, 13, 74, 0
18, 180, Note_on_c, 13, 62, 92
18, 224, Note_on_c, 13, 62, 0
18, 240, Note_on_c, 13, 62, 92
18, 359, Note_on_c, 13, 62, 0
18, 720, Note_on_c, 13, 69, 104
18, 749, Note_on_c, 13, 69, 0
18, 750, Note_on_c, 13, 69, 92
18, 869, Note_on_c, 13, 69, 0
18, 900, Note_on_c, 13, 57, 92
18, 944, Note_on_c, 13, 57, 0
18, 960, Note_on_c, 13, 57, 92
18, 1079, Note_on_c, 13, 57, 0
18, 1800, Note_on_c, 13, 62, 92
18, 1964, Note_on_c, 13, 62, 0
18, 1980, Note_on_c, 13, 50, 92
18, 2024, Note_on_c, 13, 50, 0
18, 2040, Note_on_c, 13, 50, 92
18, 2159, Note_on_c, 13, 50, 0
18, 4320, Note_on_c, 13, 74, 32
18, 4484, Note_on_c, 13, 74, 0
18, 4500, Note_on_c, 13, 62, 32
18, 4544, Note_on_c, 13, 62, 0
18, 4560, Note_on_c, 13, 62, 32
18, 4664, Note_on_c, 13, 62, 0
18, 4680, Note_on_c, 13, 69, 32
18, 4769, Note_on_c, 13, 69, 0
18, 4800, Note_on_c, 13, 71, 32
18, 4889, Note_on_c, 13, 71, 0
18, 4920, Note_on_c, 13, 72, 32
18, 5009, Note_on_c, 13, 72, 0
18, 5040, Note_on_c, 13, 71, 32
18, 5129, Note_on_c, 13, 71, 0
18, 5160, Note_on_c, 13, 72, 32
18, 5249, Note_on_c, 13, 72, 0
18, 5280, Note_on_c, 13, 74, 32
18, 5369, Note_on_c, 13, 74, 0
18, 5400, Note_on_c, 13, 72, 32
18, 5489, Note_on_c, 13, 72, 0
18, 5520, Note_on_c, 13, 71, 32
18, 5609, Note_on_c, 13, 71, 0
18, 5640, Note_on_c, 13, 69, 32
18, 5729, Note_on_c, 13, 69, 0
18, 5760, Note_on_c, 13, 70, 32
18, 5849, Note_on_c, 13, 70, 0
18, 5880, Note_on_c, 13, 69, 32
18, 5969, Note_on_c, 13, 69, 0
18, 6000, Note_on_c, 13, 67, 32
18, 6089, Note_on_c, 13, 67, 0
18, 6120, Note_on_c, 13, 65, 32
18, 6209, Note_on_c, 13, 65, 0
18, 6240, Note_on_c, 13, 64, 32
18, 6329, Note_on_c, 13, 64, 0
18, 6360, Note_on_c, 13, 62, 32
18, 6449, Note_on_c, 13, 62, 0
18, 6480, Note_on_c, 13, 61, 32
18, 6569, Note_on_c, 13, 61, 0
18, 6600, Note_on_c, 13, 62, 32
18, 6689, Note_on_c, 13, 62, 0
18, 6720, Note_on_c, 13, 64, 32
18, 6809, Note_on_c, 13, 64, 0
18, 6840, Note_on_c, 13, 62, 32
18, 6929, Note_on_c, 13, 62, 0
18, 6960, Note_on_c, 13, 61, 32
18, 7049, Note_on_c, 13, 61, 0
18, 7080, Note_on_c, 13, 62, 32
18, 7169, Note_on_c, 13, 62, 0
18, 7200, Note_on_c, 13, 69, 32
18, 7289, Note_on_c, 13, 69, 0
18, 7320, Note_on_c, 13, 67, 32
18, 7409, Note_on_c, 13, 67, 0
18, 7440, Note_on_c, 13, 65, 32
18, 7529, Note_on_c, 13, 65, 0
18, 7560, Note_on_c, 13, 64, 32
18, 7649, Note_on_c, 13, 64, 0
18, 7680, Note_on_c, 13, 76, 32
18, 7769, Note_on_c, 13, 76, 0
18, 7800, Note_on_c, 13, 76, 32
18, 7889, Note_on_c, 13, 76, 0
18, 7920, Note_on_c, 13, 76, 32
18, 8009, Note_on_c, 13, 76, 0
18, 8040, Note_on_c, 13, 76, 32
18, 8129, Note_on_c, 13, 76, 0
18, 8160, Note_on_c, 13, 76, 32
18, 8249, Note_on_c, 13, 76, 0
18, 8280, Note_on_c, 13, 76, 32
18, 8369, Note_on_c, 13, 76, 0
18, 8400, Note_on_c, 13, 76, 32
18, 8489, Note_on_c, 13, 76, 0
18, 8520, Note_on_c, 13, 76, 32
18, 8609, Note_on_c, 13, 76, 0
18, 8640, Note_on_c, 13, 64, 32
18, 8729, Note_on_c, 13, 64, 0
18, 8760, Note_on_c, 13, 65, 32
18, 8849, Note_on_c, 13, 65, 0
18, 8880, Note_on_c, 13, 67, 32
18, 8969, Note_on_c, 13, 67, 0
18, 9000, Note_on_c, 13, 65, 32
18, 9089, Note_on_c, 13, 65, 0
18, 9120, Note_on_c, 13, 67, 32
18, 9209, Note_on_c, 13, 67, 0
18, 9240, Note_on_c, 13, 69, 32
18, 9329, Note_on_c, 13, 69, 0
18, 9360, Note_on_c, 13, 67, 32
18, 9449, Note_on_c, 13, 67, 0
18, 9480, Note_on_c, 13, 65, 32
18, 9569, Note_on_c, 13, 65, 0
18, 9600, Note_on_c, 13, 64, 32
18, 9689, Note_on_c, 13, 64, 0
18, 9720, Note_on_c, 13, 62, 32
18, 9809, Note_on_c, 13, 62, 0
18, 9840, Note_on_c, 13, 67, 32
18, 9929, Note_on_c, 13, 67, 0
18, 9960, Note_on_c, 13, 65, 32
18, 10049, Note_on_c, 13, 65, 0
18, 10080, Note_on_c, 13, 65, 32
18, 10169, Note_on_c, 13, 65, 0
18, 10200, Note_on_c, 13, 67, 32
18, 10289, Note_on_c, 13, 67, 0
18, 10320, Note_on_c, 13, 69, 32
18, 10409, Note_on_c, 13, 69, 0
18, 10440, Note_on_c, 13, 57, 32
18, 10529, Note_on_c, 13, 57, 0
18, 10560, Note_on_c, 13, 68, 32
18, 10649, Note_on_c, 13, 68, 0
18, 10680, Note_on_c, 13, 69, 32
18, 10769, Note_on_c, 13, 69, 0
18, 10800, Note_on_c, 13, 64, 32
18, 10889, Note_on_c, 13, 64, 0
18, 10920, Note_on_c, 13, 64, 32
18, 11009, Note_on_c, 13, 64, 0
18, 11040, Note_on_c, 13, 64, 32
18, 11129, Note_on_c, 13, 64, 0
18, 11160, Note_on_c, 13, 64, 32
18, 11249, Note_on_c, 13, 64, 0
18, 11280, Note_on_c, 13, 64, 32
18, 11369, Note_on_c, 13, 64, 0
18, 11400, Note_on_c, 13, 64, 32
18, 11489, Note_on_c, 13, 64, 0
18, 11520, Note_on_c, 13, 55, 32
18, 11609, Note_on_c, 13, 55, 0
18, 11640, Note_on_c, 13, 53, 32
18, 11729, Note_on_c, 13, 53, 0
18, 11760, Note_on_c, 13, 52, 32
18, 11849, Note_on_c, 13, 52, 0
18, 11880, Note_on_c, 13, 57, 32
18, 11969, Note_on_c, 13, 57, 0
18, 12000, Note_on_c, 13, 55, 32
18, 12089, Note_on_c, 13, 55, 0
18, 12120, Note_on_c, 13, 53, 32
18, 12209, Note_on_c, 13, 53, 0
18, 12240, Note_on_c, 13, 52, 32
18, 12329, Note_on_c, 13, 52, 0
18, 12360, Note_on_c, 13, 53, 32
18, 12449, Note_on_c, 13, 53, 0
18, 12480, Note_on_c, 13, 55, 32
18, 12569, Note_on_c, 13, 55, 0
18, 12600, Note_on_c, 13, 57, 32
18, 12689, Note_on_c, 13, 57, 0
18, 12720, Note_on_c, 13, 57, 32
18, 12809, Note_on_c, 13, 57, 0
18, 12840, Note_on_c, 13, 57, 32
18, 12929, Note_on_c, 13, 57, 0
18, 12960, Note_on_c, 13, 56, 32
18, 13049, Note_on_c, 13, 56, 0
18, 13080, Note_on_c, 13, 57, 32
18, 13169, Note_on_c, 13, 57, 0
18, 13200, Note_on_c, 13, 59, 32
18, 13289, Note_on_c, 13, 59, 0
18, 13320, Note_on_c, 13, 60, 32
18, 13409, Note_on_c, 13, 60, 0
18, 13440, Note_on_c, 13, 62, 32
18, 13529, Note_on_c, 13, 62, 0
18, 13560, Note_on_c, 13, 64, 32
18, 13649, Note_on_c, 13, 64, 0
18, 13680, Note_on_c, 13, 65, 32
18, 13769, Note_on_c, 13, 65, 0
18, 13800, Note_on_c, 13, 64, 32
18, 13889, Note_on_c, 13, 64, 0
18, 13920, Note_on_c, 13, 62, 32
18, 14009, Note_on_c, 13, 62, 0
18, 14040, Note_on_c, 13, 60, 32
18, 14129, Note_on_c, 13, 60, 0
18, 14160, Note_on_c, 13, 59, 32
18, 14249, Note_on_c, 13, 59, 0
18, 14280, Note_on_c, 13, 57, 32
18, 14369, Note_on_c, 13, 57, 0
18, 14400, Note_on_c, 13, 57, 32
18, 14489, Note_on_c, 13, 57, 0
18, 14520, Note_on_c, 13, 57, 32
18, 14609, Note_on_c, 13, 57, 0
18, 14640, Note_on_c, 13, 57, 32
18, 14729, Note_on_c, 13, 57, 0
18, 14760, Note_on_c, 13, 57, 32
18, 14849, Note_on_c, 13, 57, 0
18, 14880, Note_on_c, 13, 55, 32
18, 14969, Note_on_c, 13, 55, 0
18, 15000, Note_on_c, 13, 53, 32
18, 15089, Note_on_c, 13, 53, 0
18, 15120, Note_on_c, 13, 55, 32
18, 15209, Note_on_c, 13, 55, 0
18, 15240, Note_on_c, 13, 57, 32
18, 15329, Note_on_c, 13, 57, 0
18, 15360, Note_on_c, 13, 58, 32
18, 15449, Note_on_c, 13, 58, 0
18, 15480, Note_on_c, 13, 57, 32
18, 15569, Note_on_c, 13, 57, 0
18, 15600, Note_on_c, 13, 58, 32
18, 15689, Note_on_c, 13, 58, 0
18, 15720, Note_on_c, 13, 57, 32
18, 15809, Note_on_c, 13, 57, 0
18, 15840, Note_on_c, 13, 58, 32
18, 15929, Note_on_c, 13, 58, 0
18, 15960, Note_on_c, 13, 57, 33
18, 16049, Note_on_c, 13, 57, 0
18, 16080, Note_on_c, 13, 55, 35
18, 16169, Note_on_c, 13, 55, 0
18, 16200, Note_on_c, 13, 57, 37
18, 16289, Note_on_c, 13, 57, 0
18, 16320, Note_on_c, 13, 58, 38
18, 16409, Note_on_c, 13, 58, 0
18, 16440, Note_on_c, 13, 57, 40
18, 16529, Note_on_c, 13, 57, 0
18, 16560, Note_on_c, 13, 58, 42
18, 16649, Note_on_c, 13, 58, 0
18, 16680, Note_on_c, 13, 57, 43
18, 16769, Note_on_c, 13, 57, 0
18, 16800, Note_on_c, 13, 55, 45
18, 16889, Note_on_c, 13, 55, 0
18, 16920, Note_on_c, 13, 57, 47
18, 17009, Note_on_c, 13, 57, 0
18, 17040, Note_on_c, 13, 58, 48
18, 17129, Note_on_c, 13, 58, 0
18, 17160, Note_on_c, 13, 57, 50
18, 17249, Note_on_c, 13, 57, 0
18, 17280, Note_on_c, 13, 58, 52
18, 17369, Note_on_c, 13, 58, 0
18, 17400, Note_on_c, 13, 57, 53
18, 17489, Note_on_c, 13, 57, 0
18, 17520, Note_on_c, 13, 55, 55
18, 17609, Note_on_c, 13, 55, 0
18, 17640, Note_on_c, 13, 57, 57
18, 17729, Note_on_c, 13, 57, 0
18, 17760, Note_on_c, 13, 58, 58
18, 17849, Note_on_c, 13, 58, 0
18, 17880, Note_on_c, 13, 57, 60
18, 17969, Note_on_c, 13, 57, 0
18, 18000, Note_on_c, 13, 55, 62
18, 18089, Note_on_c, 13, 55, 0
18, 18120, Note_on_c, 13, 53, 63
18, 18209, Note_on_c, 13, 53, 0
18, 18240, Note_on_c, 13, 52, 65
18, 18329, Note_on_c, 13, 52, 0
18, 18360, Note_on_c, 13, 53, 67
18, 18449, Note_on_c, 13, 53, 0
18, 18480, Note_on_c, 13, 55, 68
18, 18569, Note_on_c, 13, 55, 0
18, 18600, Note_on_c, 13, 53, 70
18, 18689, Note_on_c, 13, 53, 0
18, 18720, Note_on_c, 13, 55, 72
18, 18809, Note_on_c, 13, 55, 0
18, 18840, Note_on_c, 13, 53, 73
18, 18929, Note_on_c, 13, 53, 0
18, 18960, Note_on_c, 13, 52, 75
18, 19049, Note_on_c, 13, 52, 0
18, 19080, Note_on_c, 13, 53, 77
18, 19169, Note_on_c, 13, 53, 0
18, 19200, Note_on_c, 13, 55, 78
18, 19289, Note_on_c, 13, 55, 0
18, 19320, Note_on_c, 13, 53, 80
18, 19409, Note_on_c, 13, 53, 0
18, 19440, Note_on_c, 13, 55, 82
18, 19529, Note_on_c, 13, 55, 0
18, 19560, Note_on_c, 13, 53, 83
18, 19649, Note_on_c, 13, 53, 0
18, 19680, Note_on_c, 13, 52, 85
18, 19769, Note_on_c, 13, 52, 0
18, 19800, Note_on_c, 13, 64, 87
18, 19889, Note_on_c, 13, 64, 0
18, 19920, Note_on_c, 13, 62, 88
18, 20009, Note_on_c, 13, 62, 0
18, 20040, Note_on_c, 13, 61, 90
18, 20129, Note_on_c, 13, 61, 0
18, 20160, Note_on_c, 13, 74, 92
18, 20160, Note_on_c, 13, 65, 92
18, 20160, Note_on_c, 13, 57, 92
18, 20279, Note_on_c, 13, 74, 0
18, 20279, Note_on_c, 13, 65, 0
18, 20279, Note_on_c, 13, 57, 0
18, 20520, Note_on_c, 13, 74, 92
18, 20520, Note_on_c, 13, 57, 92
18, 20520, Note_on_c, 13, 65, 92
18, 20639, Note_on_c, 13, 74, 0
18, 20639, Note_on_c, 13, 57, 0
18, 20639, Note_on_c, 13, 65, 0
18, 20880, Note_on_c, 13, 73, 92
18, 20880, Note_on_c, 13, 69, 92
18, 20999, Note_on_c, 13, 73, 0
18, 20999, Note_on_c, 13, 69, 0
18, 21240, Note_on_c, 13, 74, 92
18, 21240, Note_on_c, 13, 62, 92
18, 21359, Note_on_c, 13, 74, 0
18, 21359, Note_on_c, 13, 62, 0
18, 21600, Note_on_c, 13, 62, 80
18, 21600, Note_on_c, 13, 55, 80
18, 21600, Note_on_c, 13, 74, 80
18, 21719, Note_on_c, 13, 62, 0
18, 21719, Note_on_c, 13, 55, 0
18, 21719, Note_on_c, 13, 74, 0
18, 21960, Note_on_c, 13, 57, 80
18, 21960, Note_on_c, 13, 65, 80
18, 21960, Note_on_c, 13, 74, 80
18, 22079, Note_on_c, 13, 57, 0
18, 22079, Note_on_c, 13, 65, 0
18, 22079, Note_on_c, 13, 74, 0
18, 22320, Note_on_c, 13, 57, 80
18, 22320, Note_on_c, 13, 67, 80
18, 22320, Note_on_c, 13, 76, 80
18, 22439, Note_on_c, 13, 57, 0
18, 22439, Note_on_c, 13, 67, 0
18, 22439, Note_on_c, 13, 76, 0
18, 22680, Note_on_c, 13, 69, 80
18, 22680, Note_on_c, 13, 65, 80
18, 22799, Note_on_c, 13, 69, 0
18, 22799, Note_on_c, 13, 65, 0
18, 23040, Note_on_c, 13, 55, 80
18, 23040, Note_on_c, 13, 67, 80
18, 23159, Note_on_c, 13, 55, 0
18, 23159, Note_on_c, 13, 67, 0
18, 23400, Note_on_c, 13, 65, 80
18, 23400, Note_on_c, 13, 74, 80
18, 23400, Note_on_c, 13, 57, 80
18, 23519, Note_on_c, 13, 65, 0
18, 23519, Note_on_c, 13, 74, 0
18, 23519, Note_on_c, 13, 57, 0
18, 23760, Note_on_c, 13, 76, 80
18, 23760, Note_on_c, 13, 67, 80
18, 23760, Note_on_c, 13, 57, 80
18, 23879, Note_on_c, 13, 76, 0
18, 23879, Note_on_c, 13, 67, 0
18, 23879, Note_on_c, 13, 57, 0
18, 24120, Note_on_c, 13, 65, 80
18, 24120, Note_on_c, 13, 69, 80
18, 24239, Note_on_c, 13, 65, 0
18, 24239, Note_on_c, 13, 69, 0
18, 24360, Note_on_c, 13, 71, 80
18, 24360, Note_on_c, 13, 65, 80
18, 24464, Note_on_c, 13, 71, 0
18, 24464, Note_on_c, 13, 65, 0
18, 24480, Note_on_c, 13, 55, 80
18, 24480, Note_on_c, 13, 71, 80
18, 24480, Note_on_c, 13, 62, 80
18, 24599, Note_on_c, 13, 55, 0
18, 24599, Note_on_c, 13, 71, 0
18, 24599, Note_on_c, 13, 62, 0
18, 24840, Note_on_c, 13, 64, 80
18, 24840, Note_on_c, 13, 55, 80
18, 24840, Note_on_c, 13, 76, 80
18, 24959, Note_on_c, 13, 64, 0
18, 24959, Note_on_c, 13, 55, 0
18, 24959, Note_on_c, 13, 76, 0
18, 25200, Note_on_c, 13, 74, 80
18, 25200, Note_on_c, 13, 65, 80
18, 25200, Note_on_c, 13, 55, 80
18, 25319, Note_on_c, 13, 74, 0
18, 25319, Note_on_c, 13, 65, 0
18, 25319, Note_on_c, 13, 55, 0
18, 25560, Note_on_c, 13, 55, 80
18, 25560, Note_on_c, 13, 64, 80
18, 25664, Note_on_c, 13, 55, 0
18, 25664, Note_on_c, 13, 64, 0
18, 25680, Note_on_c, 13, 55, 80
18, 25680, Note_on_c, 13, 65, 80
18, 25784, Note_on_c, 13, 55, 0
18, 25784, Note_on_c, 13, 65, 0
18, 25800, Note_on_c, 13, 55, 80
18, 25800, Note_on_c, 13, 65, 80
18, 25904, Note_on_c, 13, 55, 0
18, 25904, Note_on_c, 13, 65, 0
18, 25920, Note_on_c, 13, 55, 80
18, 25920, Note_on_c, 13, 65, 80
18, 25920, Note_on_c, 13, 74, 80
18, 26039, Note_on_c, 13, 55, 0
18, 26039, Note_on_c, 13, 65, 0
18, 26039, Note_on_c, 13, 74, 0
18, 26280, Note_on_c, 13, 55, 80
18, 26280, Note_on_c, 13, 76, 80
18, 26280, Note_on_c, 13, 64, 80
18, 26399, Note_on_c, 13, 55, 0
18, 26399, Note_on_c, 13, 76, 0
18, 26399, Note_on_c, 13, 64, 0
18, 26640, Note_on_c, 13, 55, 80
18, 26640, Note_on_c, 13, 64, 80
18, 26640, Note_on_c, 13, 72, 80
18, 26759, Note_on_c, 13, 55, 0
18, 26759, Note_on_c, 13, 64, 0
18, 26759, Note_on_c, 13, 72, 0
18, 27000, Note_on_c, 13, 55, 80
18, 27000, Note_on_c, 13, 72, 80
18, 27000, Note_on_c, 13, 64, 80
18, 27119, Note_on_c, 13, 55, 0
18, 27119, Note_on_c, 13, 72, 0
18, 27119, Note_on_c, 13, 64, 0
18, 27360, Note_on_c, 13, 67, 80
18, 27360, Note_on_c, 13, 55, 80
18, 27479, Note_on_c, 13, 67, 0
18, 27479, Note_on_c, 13, 55, 0
18, 27720, Control_c, 13, 11, 87
18, 28440, Control_c, 13, 11, 87
18, 28440, Note_on_c, 13, 65, 68
18, 28470, Control_c, 13, 11, 89
18, 28500, Control_c, 13, 11, 90
18, 28530, Control_c, 13, 11, 92
18, 28560, Control_c, 13, 11, 94
18, 28590, Control_c, 13, 11, 95
18, 28604, Note_on_c, 13, 65, 0
18, 28620, Control_c, 13, 11, 97
18, 28620, Note_on_c, 13, 69, 68
18, 28650, Control_c, 13, 11, 99
18, 28664, Note_on_c, 13, 69, 0
18, 28680, Control_c, 13, 11, 100
18, 28680, Note_on_c, 13, 69, 68
18, 28710, Control_c, 13, 11, 102
18, 28740, Control_c, 13, 11, 104
18, 28770, Control_c, 13, 11, 105
18, 28784, Note_on_c, 13, 69, 0
18, 28800, Control_c, 13, 11, 107
18, 28800, Note_on_c, 13, 65, 68
18, 28830, Control_c, 13, 11, 109
18, 28860, Control_c, 13, 11, 110
18, 28890, Control_c, 13, 11, 112
18, 28920, Control_c, 13, 11, 114
18, 28950, Control_c, 13, 11, 115
18, 28964, Note_on_c, 13, 65, 0
18, 28980, Note_on_c, 13, 68, 68
18, 28980, Control_c, 13, 11, 117
18, 29010, Control_c, 13, 11, 119
18, 29024, Note_on_c, 13, 68, 0
18, 29040, Note_on_c, 13, 68, 68
18, 29040, Control_c, 13, 11, 120
18, 29070, Control_c, 13, 11, 122
18, 29100, Control_c, 13, 11, 124
18, 29130, Control_c, 13, 11, 125
18, 29144, Note_on_c, 13, 68, 0
18, 29160, Note_on_c, 13, 64, 68
18, 29280, Control_c, 13, 11, 127
18, 29320, Control_c, 13, 11, 125
18, 29324, Note_on_c, 13, 64, 0
18, 29340, Note_on_c, 13, 67, 68
18, 29360, Control_c, 13, 11, 124
18, 29384, Note_on_c, 13, 67, 0
18, 29400, Control_c, 13, 11, 122
18, 29400, Note_on_c, 13, 67, 68
18, 29440, Control_c, 13, 11, 120
18, 29480, Control_c, 13, 11, 119
18, 29504, Note_on_c, 13, 67, 0
18, 29520, Note_on_c, 13, 63, 68
18, 29520, Control_c, 13, 11, 117
18, 29560, Control_c, 13, 11, 115
18, 29600, Control_c, 13, 11, 114
18, 29640, Control_c, 13, 11, 112
18, 29680, Control_c, 13, 11, 110
18, 29684, Note_on_c, 13, 63, 0
18, 29700, Note_on_c, 13, 67, 68
18, 29720, Control_c, 13, 11, 109
18, 29744, Note_on_c, 13, 67, 0
18, 29760, Note_on_c, 13, 67, 68
18, 29760, Control_c, 13, 11, 107
18, 29800, Control_c, 13, 11, 105
18, 29840, Control_c, 13, 11, 104
18, 29864, Note_on_c, 13, 67, 0
18, 29880, Control_c, 13, 11, 102
18, 29880, Note_on_c, 13, 62, 68
18, 29920, Control_c, 13, 11, 100
18, 29960, Control_c, 13, 11, 99
18, 30000, Control_c, 13, 11, 97
18, 30040, Control_c, 13, 11, 95
18, 30044, Note_on_c, 13, 62, 0
18, 30060, Note_on_c, 13, 67, 68
18, 30080, Control_c, 13, 11, 94
18, 30104, Note_on_c, 13, 67, 0
18, 30120, Note_on_c, 13, 67, 68
18, 30120, Control_c, 13, 11, 92
18, 30160, Control_c, 13, 11, 90
18, 30200, Control_c, 13, 11, 89
18, 30224, Note_on_c, 13, 67, 0
18, 30238, Control_c, 13, 11, 47
18, 30240, Note_on_c, 13, 67, 92
18, 30240, Control_c, 13, 11, 47
18, 30288, Control_c, 13, 11, 48
18, 30336, Control_c, 13, 11, 50
18, 30384, Control_c, 13, 11, 51
18, 30404, Note_on_c, 13, 67, 0
18, 30420, Note_on_c, 13, 55, 92
18, 30432, Control_c, 13, 11, 52
18, 30464, Note_on_c, 13, 55, 0
18, 30480, Control_c, 13, 11, 54
18, 30480, Note_on_c, 13, 55, 92
18, 30528, Control_c, 13, 11, 55
18, 30576, Control_c, 13, 11, 56
18, 30584, Note_on_c, 13, 55, 0
18, 30600, Note_on_c, 13, 67, 92
18, 30624, Control_c, 13, 11, 58
18, 30672, Control_c, 13, 11, 59
18, 30720, Control_c, 13, 11, 60
18, 30764, Note_on_c, 13, 67, 0
18, 30768, Control_c, 13, 11, 62
18, 30780, Note_on_c, 13, 55, 92
18, 30816, Control_c, 13, 11, 63
18, 30824, Note_on_c, 13, 55, 0
18, 30840, Note_on_c, 13, 55, 92
18, 30864, Control_c, 13, 11, 64
18, 30912, Control_c, 13, 11, 66
18, 30944, Note_on_c, 13, 55, 0
18, 30960, Note_on_c, 13, 67, 92
18, 30960, Control_c, 13, 11, 67
18, 31008, Control_c, 13, 11, 68
18, 31056, Control_c, 13, 11, 70
18, 31104, Control_c, 13, 11, 71
18, 31124, Note_on_c, 13, 67, 0
18, 31140, Note_on_c, 13, 55, 92
18, 31152, Control_c, 13, 11, 72
18, 31184, Note_on_c, 13, 55, 0
18, 31200, Note_on_c, 13, 55, 92
18, 31200, Control_c, 13, 11, 74
18, 31248, Control_c, 13, 11, 75
18, 31296, Control_c, 13, 11, 76
18, 31304, Note_on_c, 13, 55, 0
18, 31320, Note_on_c, 13, 65, 92
18, 31344, Control_c, 13, 11, 78
18, 31392, Control_c, 13, 11, 79
18, 31440, Control_c, 13, 11, 80
18, 31484, Note_on_c, 13, 65, 0
18, 31488, Control_c, 13, 11, 82
18, 31500, Note_on_c, 13, 53, 92
18, 31536, Control_c, 13, 11, 83
18, 31544, Note_on_c, 13, 53, 0
18, 31560, Note_on_c, 13, 53, 92
18, 31584, Control_c, 13, 11, 84
18, 31632, Control_c, 13, 11, 86
18, 31664, Note_on_c, 13, 53, 0
18, 31680, Control_c, 13, 11, 87
18, 31680, Note_on_c, 13, 65, 92
18, 31728, Control_c, 13, 11, 88
18, 31776, Control_c, 13, 11, 90
18, 31824, Control_c, 13, 11, 91
18, 31844, Note_on_c, 13, 65, 0
18, 31860, Note_on_c, 13, 53, 92
18, 31872, Control_c, 13, 11, 92
18, 31904, Note_on_c, 13, 53, 0
18, 31920, Note_on_c, 13, 53, 92
18, 31920, Control_c, 13, 11, 94
18, 31968, Control_c, 13, 11, 95
18, 32016, Control_c, 13, 11, 96
18, 32024, Note_on_c, 13, 53, 0
18, 32040, Note_on_c, 13, 64, 92
18, 32064, Control_c, 13, 11, 98
18, 32112, Control_c, 13, 11, 99
18, 32160, Control_c, 13, 11, 100
18, 32204, Note_on_c, 13, 64, 0
18, 32208, Control_c, 13, 11, 102
18, 32220, Note_on_c, 13, 52, 92
18, 32256, Control_c, 13, 11, 103
18, 32264, Note_on_c, 13, 52, 0
18, 32280, Note_on_c, 13, 52, 92
18, 32304, Control_c, 13, 11, 104
18, 32352, Control_c, 13, 11, 106
18, 32384, Note_on_c, 13, 52, 0
18, 32400, Control_c, 13, 11, 107
18, 32400, Note_on_c, 13, 63, 92
18, 32448, Control_c, 13, 11, 108
18, 32496, Control_c, 13, 11, 110
18, 32544, Control_c, 13, 11, 111
18, 32564, Note_on_c, 13, 63, 0
18, 32580, Note_on_c, 13, 51, 92
18, 32592, Control_c, 13, 11, 112
18, 32624, Note_on_c, 13, 51, 0
18, 32640, Control_c, 13, 11, 114
18, 32640, Note_on_c, 13, 51, 92
18, 32688, Control_c, 13, 11, 115
18, 32736, Control_c, 13, 11, 116
18, 32744, Note_on_c, 13, 51, 0
18, 32760, Note_on_c, 13, 62, 92
18, 32784, Control_c, 13, 11, 118
18, 32832, Control_c, 13, 11, 119
18, 32880, Control_c, 13, 11, 120
18, 32924, Note_on_c, 13, 62, 0
18, 32928, Control_c, 13, 11, 122
18, 32940, Note_on_c, 13, 50, 92
18, 32976, Control_c, 13, 11, 123
18, 32984, Note_on_c, 13, 50, 0
18, 33000, Note_on_c, 13, 50, 92
18, 33024, Control_c, 13, 11, 124
18, 33072, Control_c, 13, 11, 127
18, 33104, Note_on_c, 13, 50, 0
18, 33120, Note_on_c, 13, 60, 92
18, 33284, Note_on_c, 13, 60, 0
18, 33300, Note_on_c, 13, 48, 92
18, 33344, Note_on_c, 13, 48, 0
18, 33360, Note_on_c, 13, 48, 92
18, 33464, Note_on_c, 13, 48, 0
18, 33480, Note_on_c, 13, 60, 92
18, 33644, Note_on_c, 13, 60, 0
18, 33660, Note_on_c, 13, 48, 92
18, 33704, Note_on_c, 13, 48, 0
18, 33720, Note_on_c, 13, 48, 92
18, 33824, Note_on_c, 13, 48, 0
18, 33840, Note_on_c, 13, 60, 92
18, 34004, Note_on_c, 13, 60, 0
18, 34020, Note_on_c, 13, 48, 92
18, 34064, Note_on_c, 13, 48, 0
18, 34080, Note_on_c, 13, 48, 92
18, 34184, Note_on_c, 13, 48, 0
18, 34200, Note_on_c, 13, 60, 92
18, 34364, Note_on_c, 13, 60, 0
18, 34380, Note_on_c, 13, 48, 92
18, 34424, Note_on_c, 13, 48, 0
18, 34440, Note_on_c, 13, 48, 92
18, 34544, Note_on_c, 13, 48, 0
18, 34560, Note_on_c, 13, 60, 92
18, 34724, Note_on_c, 13, 60, 0
18, 34740, Note_on_c, 13, 48, 92
18, 34784, Note_on_c, 13, 48, 0
18, 34800, Note_on_c, 13, 48, 92
18, 34904, Note_on_c, 13, 48, 0
18, 34920, Note_on_c, 13, 60, 92
18, 35084, Note_on_c, 13, 60, 0
18, 35100, Note_on_c, 13, 48, 92
18, 35144, Note_on_c, 13, 48, 0
18, 35160, Note_on_c, 13, 48, 92
18, 35264, Note_on_c, 13, 48, 0
18, 35280, Note_on_c, 13, 60, 92
18, 35444, Note_on_c, 13, 60, 0
18, 35460, Note_on_c, 13, 48, 92
18, 35504, Note_on_c, 13, 48, 0
18, 35520, Note_on_c, 13, 48, 92
18, 35624, Note_on_c, 13, 48, 0
18, 35640, Note_on_c, 13, 60, 92
18, 35804, Note_on_c, 13, 60, 0
18, 35820, Note_on_c, 13, 48, 92
18, 35864, Note_on_c, 13, 48, 0
18, 35880, Note_on_c, 13, 48, 92
18, 35984, Note_on_c, 13, 48, 0
18, 36000, Note_on_c, 13, 60, 92
18, 36164, Note_on_c, 13, 60, 0
18, 36180, Note_on_c, 13, 48, 92
18, 36224, Note_on_c, 13, 48, 0
18, 36240, Note_on_c, 13, 48, 92
18, 36344, Note_on_c, 13, 48, 0
18, 36360, Note_on_c, 13, 60, 92
18, 36524, Note_on_c, 13, 60, 0
18, 36540, Note_on_c, 13, 48, 92
18, 36584, Note_on_c, 13, 48, 0
18, 36600, Note_on_c, 13, 48, 92
18, 36704, Note_on_c, 13, 48, 0
18, 36720, Note_on_c, 13, 60, 92
18, 36884, Note_on_c, 13, 60, 0
18, 36900, Note_on_c, 13, 48, 92
18, 36944, Note_on_c, 13, 48, 0
18, 36960, Note_on_c, 13, 48, 92
18, 37064, Note_on_c, 13, 48, 0
18, 37080, Note_on_c, 13, 60, 92
18, 37244, Note_on_c, 13, 60, 0
18, 37260, Note_on_c, 13, 48, 92
18, 37304, Note_on_c, 13, 48, 0
18, 37320, Note_on_c, 13, 48, 92
18, 37424, Note_on_c, 13, 48, 0
18, 37440, Note_on_c, 13, 60, 92
18, 37604, Note_on_c, 13, 60, 0
18, 37620, Note_on_c, 13, 48, 92
18, 37664, Note_on_c, 13, 48, 0
18, 37680, Note_on_c, 13, 48, 92
18, 37784, Note_on_c, 13, 48, 0
18, 37800, Note_on_c, 13, 60, 92
18, 37964, Note_on_c, 13, 60, 0
18, 37980, Note_on_c, 13, 48, 92
18, 38024, Note_on_c, 13, 48, 0
18, 38040, Note_on_c, 13, 48, 92
18, 38144, Note_on_c, 13, 48, 0
18, 38160, Note_on_c, 13, 60, 92
18, 38324, Note_on_c, 13, 60, 0
18, 38340, Note_on_c, 13, 48, 92
18, 38384, Note_on_c, 13, 48, 0
18, 38400, Note_on_c, 13, 48, 92
18, 38504, Note_on_c, 13, 48, 0
18, 38520, Note_on_c, 13, 60, 92
18, 38684, Note_on_c, 13, 60, 0
18, 38700, Note_on_c, 13, 48, 92
18, 38744, Note_on_c, 13, 48, 0
18, 38760, Note_on_c, 13, 48, 92
18, 38864, Note_on_c, 13, 48, 0
18, 38880, Note_on_c, 13, 60, 92
18, 38999, Note_on_c, 13, 60, 0
18, 39600, Note_on_c, 13, 65, 92
18, 39764, Note_on_c, 13, 65, 0
18, 39780, Note_on_c, 13, 53, 92
18, 39824, Note_on_c, 13, 53, 0
18, 39840, Note_on_c, 13, 53, 92
18, 39944, Note_on_c, 13, 53, 0
18, 39960, Note_on_c, 13, 65, 92
18, 40049, Note_on_c, 13, 65, 0
18, 40080, Note_on_c, 13, 62, 92
18, 40169, Note_on_c, 13, 62, 0
18, 40200, Note_on_c, 13, 60, 92
18, 40289, Note_on_c, 13, 60, 0
18, 40320, Note_on_c, 13, 59, 92
18, 40439, Note_on_c, 13, 59, 0
18, 41040, Note_on_c, 13, 64, 92
18, 41204, Note_on_c, 13, 64, 0
18, 41220, Note_on_c, 13, 52, 92
18, 41264, Note_on_c, 13, 52, 0
18, 41280, Note_on_c, 13, 52, 92
18, 41384, Note_on_c, 13, 52, 0
18, 41400, Note_on_c, 13, 64, 92
18, 41489, Note_on_c, 13, 64, 0
18, 41520, Note_on_c, 13, 60, 92
18, 41609, Note_on_c, 13, 60, 0
18, 41640, Note_on_c, 13, 59, 92
18, 41729, Note_on_c, 13, 59, 0
18, 41758, Control_c, 13, 11, 87
18, 41760, Note_on_c, 13, 52, 68
18, 41879, Note_on_c, 13, 52, 0
18, 41880, Note_on_c, 13, 50, 68
18, 41999, Note_on_c, 13, 50, 0
18, 42000, Note_on_c, 13, 48, 68
18, 42119, Note_on_c, 13, 48, 0
18, 42120, Note_on_c, 13, 55, 68
18, 42239, Note_on_c, 13, 55, 0
18, 42240, Note_on_c, 13, 53, 68
18, 42359, Note_on_c, 13, 53, 0
18, 42360, Note_on_c, 13, 52, 68
18, 42479, Note_on_c, 13, 52, 0
18, 42480, Note_on_c, 13, 50, 68
18, 42480, Control_c, 13, 11, 87
18, 42510, Control_c, 13, 11, 89
18, 42540, Control_c, 13, 11, 90
18, 42570, Control_c, 13, 11, 92
18, 42599, Note_on_c, 13, 50, 0
18, 42600, Note_on_c, 13, 48, 68
18, 42600, Control_c, 13, 11, 94
18, 42630, Control_c, 13, 11, 95
18, 42660, Control_c, 13, 11, 97
18, 42690, Control_c, 13, 11, 99
18, 42719, Note_on_c, 13, 48, 0
18, 42720, Control_c, 13, 11, 100
18, 42720, Note_on_c, 13, 50, 68
18, 42750, Control_c, 13, 11, 102
18, 42780, Control_c, 13, 11, 104
18, 42810, Control_c, 13, 11, 105
18, 42839, Note_on_c, 13, 50, 0
18, 42840, Note_on_c, 13, 52, 68
18, 42840, Control_c, 13, 11, 107
18, 42870, Control_c, 13, 11, 109
18, 42900, Control_c, 13, 11, 110
18, 42930, Control_c, 13, 11, 112
18, 42959, Note_on_c, 13, 52, 0
18, 42960, Control_c, 13, 11, 114
18, 42960, Note_on_c, 13, 53, 68
18, 42990, Control_c, 13, 11, 115
18, 43020, Control_c, 13, 11, 117
18, 43050, Control_c, 13, 11, 119
18, 43079, Note_on_c, 13, 53, 0
18, 43080, Note_on_c, 13, 55, 68
18, 43080, Control_c, 13, 11, 120
18, 43110, Control_c, 13, 11, 122
18, 43140, Control_c, 13, 11, 124
18, 43170, Control_c, 13, 11, 125
18, 43199, Note_on_c, 13, 55, 0
18, 43200, Control_c, 13, 11, 127
18, 43200, Note_on_c, 13, 54, 68
18, 43230, Control_c, 13, 11, 125
18, 43260, Control_c, 13, 11, 124
18, 43290, Control_c, 13, 11, 122
18, 43319, Note_on_c, 13, 54, 0
18, 43320, Note_on_c, 13, 55, 68
18, 43320, Control_c, 13, 11, 120
18, 43350, Control_c, 13, 11, 119
18, 43380, Control_c, 13, 11, 117
18, 43410, Control_c, 13, 11, 115
18, 43439, Note_on_c, 13, 55, 0
18, 43440, Control_c, 13, 11, 114
18, 43440, Note_on_c, 13, 57, 68
18, 43470, Control_c, 13, 11, 112
18, 43500, Control_c, 13, 11, 110
18, 43530, Control_c, 13, 11, 109
18, 43559, Note_on_c, 13, 57, 0
18, 43560, Note_on_c, 13, 55, 68
18, 43560, Control_c, 13, 11, 107
18, 43590, Control_c, 13, 11, 105
18, 43620, Control_c, 13, 11, 104
18, 43650, Control_c, 13, 11, 102
18, 43679, Note_on_c, 13, 55, 0
18, 43680, Note_on_c, 13, 53, 68
18, 43680, Control_c, 13, 11, 100
18, 43710, Control_c, 13, 11, 99
18, 43740, Control_c, 13, 11, 97
18, 43770, Control_c, 13, 11, 95
18, 43799, Note_on_c, 13, 53, 0
18, 43800, Control_c, 13, 11, 94
18, 43800, Note_on_c, 13, 52, 68
18, 43830, Control_c, 13, 11, 92
18, 43860, Control_c, 13, 11, 90
18, 43890, Control_c, 13, 11, 87
18, 43904, Note_on_c, 13, 52, 0
18, 43918, Control_c, 13, 11, 67
18, 43920, Control_c, 13, 11, 67
18, 43920, Note_on_c, 13, 48, 80
18, 43950, Control_c, 13, 11, 68
18, 43980, Control_c, 13, 11, 70
18, 44010, Control_c, 13, 11, 71
18, 44040, Control_c, 13, 11, 72
18, 44070, Control_c, 13, 11, 73
18, 44100, Control_c, 13, 11, 75
18, 44130, Control_c, 13, 11, 76
18, 44160, Control_c, 13, 11, 77
18, 44190, Control_c, 13, 11, 78
18, 44220, Control_c, 13, 11, 80
18, 44250, Control_c, 13, 11, 81
18, 44280, Control_c, 13, 11, 82
18, 44310, Control_c, 13, 11, 83
18, 44340, Control_c, 13, 11, 85
18, 44370, Control_c, 13, 11, 86
18, 44400, Control_c, 13, 11, 87
18, 44430, Control_c, 13, 11, 88
18, 44460, Control_c, 13, 11, 90
18, 44490, Control_c, 13, 11, 91
18, 44520, Control_c, 13, 11, 92
18, 44550, Control_c, 13, 11, 93
18, 44580, Control_c, 13, 11, 95
18, 44610, Control_c, 13, 11, 96
18, 44640, Control_c, 13, 11, 97
18, 44670, Control_c, 13, 11, 98
18, 44700, Control_c, 13, 11, 100
18, 44730, Control_c, 13, 11, 101
18, 44760, Control_c, 13, 11, 102
18, 44790, Control_c, 13, 11, 103
18, 44820, Control_c, 13, 11, 105
18, 44850, Control_c, 13, 11, 106
18, 44880, Control_c, 13, 11, 107
18, 44910, Control_c, 13, 11, 108
18, 44940, Control_c, 13, 11, 110
18, 44970, Control_c, 13, 11, 111
18, 45000, Control_c, 13, 11, 112
18, 45030, Control_c, 13, 11, 113
18, 45060, Control_c, 13, 11, 115
18, 45090, Control_c, 13, 11, 116
18, 45120, Control_c, 13, 11, 117
18, 45150, Control_c, 13, 11, 118
18, 45180, Control_c, 13, 11, 120
18, 45210, Control_c, 13, 11, 121
18, 45240, Control_c, 13, 11, 122
18, 45270, Control_c, 13, 11, 123
18, 45300, Control_c, 13, 11, 125
18, 45330, Control_c, 13, 11, 127
18, 45479, Note_on_c, 13, 48, 0
18, 46080, Note_on_c, 13, 64, 80
18, 46169, Note_on_c, 13, 64, 0
18, 46200, Note_on_c, 13, 76, 80
18, 46289, Note_on_c, 13, 76, 0
18, 46320, Note_on_c, 13, 72, 80
18, 46409, Note_on_c, 13, 72, 0
18, 46440, Note_on_c, 13, 69, 80
18, 46529, Note_on_c, 13, 69, 0
18, 46560, Note_on_c, 13, 71, 80
18, 46649, Note_on_c, 13, 71, 0
18, 46680, Note_on_c, 13, 72, 80
18, 46769, Note_on_c, 13, 72, 0
18, 46800, Note_on_c, 13, 72, 80
18, 46919, Note_on_c, 13, 72, 0
18, 47520, Note_on_c, 13, 64, 80
18, 47609, Note_on_c, 13, 64, 0
18, 47640, Note_on_c, 13, 60, 80
18, 47729, Note_on_c, 13, 60, 0
18, 47760, Note_on_c, 13, 65, 80
18, 47849, Note_on_c, 13, 65, 0
18, 47880, Note_on_c, 13, 62, 80
18, 47969, Note_on_c, 13, 62, 0
18, 48000, Note_on_c, 13, 59, 80
18, 48089, Note_on_c, 13, 59, 0
18, 48120, Note_on_c, 13, 64, 80
18, 48209, Note_on_c, 13, 64, 0
18, 48240, Note_on_c, 13, 48, 80
18, 48240, Note_on_c, 13, 55, 80
18, 48240, Note_on_c, 13, 64, 80
18, 48359, Note_on_c, 13, 48, 0
18, 48359, Note_on_c, 13, 55, 0
18, 48359, Note_on_c, 13, 64, 0
18, 48600, Note_on_c, 13, 67, 80
18, 48764, Note_on_c, 13, 67, 0
18, 48780, Note_on_c, 13, 55, 80
18, 48824, Note_on_c, 13, 55, 0
18, 48840, Note_on_c, 13, 55, 80
18, 48944, Note_on_c, 13, 55, 0
18, 48960, Note_on_c, 13, 48, 80
18, 49079, Note_on_c, 13, 48, 0
18, 49320, Note_on_c, 13, 67, 80
18, 49484, Note_on_c, 13, 67, 0
18, 49500, Note_on_c, 13, 55, 80
18, 49544, Note_on_c, 13, 55, 0
18, 49560, Note_on_c, 13, 55, 80
18, 49664, Note_on_c, 13, 55, 0
18, 49680, Note_on_c, 13, 60, 32
18, 49799, Note_on_c, 13, 60, 0
18, 49800, Note_on_c, 13, 59, 32
18, 49919, Note_on_c, 13, 59, 0
18, 49920, Note_on_c, 13, 57, 32
18, 50039, Note_on_c, 13, 57, 0
18, 50040, Note_on_c, 13, 55, 32
18, 50159, Note_on_c, 13, 55, 0
18, 50160, Note_on_c, 13, 53, 32
18, 50279, Note_on_c, 13, 53, 0
18, 50280, Note_on_c, 13, 52, 32
18, 50399, Note_on_c, 13, 52, 0
18, 50400, Note_on_c, 13, 50, 32
18, 50519, Note_on_c, 13, 50, 0
18, 50520, Note_on_c, 13, 52, 32
18, 50639, Note_on_c, 13, 52, 0
18, 50640, Note_on_c, 13, 50, 32
18, 50699, Note_on_c, 13, 50, 0
18, 50700, Note_on_c, 13, 62, 32
18, 50759, Note_on_c, 13, 62, 0
18, 50760, Note_on_c, 13, 60, 32
18, 50879, Note_on_c, 13, 60, 0
18, 50880, Note_on_c, 13, 59, 32
18, 50999, Note_on_c, 13, 59, 0
18, 51000, Note_on_c, 13, 57, 32
18, 51059, Note_on_c, 13, 57, 0
18, 51060, Note_on_c, 13, 55, 32
18, 51104, Note_on_c, 13, 55, 0
18, 51120, Note_on_c, 13, 55, 32
18, 51120, Note_on_c, 13, 52, 32
18, 51284, Note_on_c, 13, 55, 0
18, 51284, Note_on_c, 13, 52, 0
18, 51300, Note_on_c, 13, 64, 32
18, 51344, Note_on_c, 13, 64, 0
18, 51360, Note_on_c, 13, 64, 32
18, 51464, Note_on_c, 13, 64, 0
18, 51480, Note_on_c, 13, 64, 32
18, 51599, Note_on_c, 13, 64, 0
18, 51840, Note_on_c, 13, 57, 32
18, 52004, Note_on_c, 13, 57, 0
18, 52020, Note_on_c, 13, 65, 32
18, 52064, Note_on_c, 13, 65, 0
18, 52080, Note_on_c, 13, 65, 32
18, 52184, Note_on_c, 13, 65, 0
18, 52200, Note_on_c, 13, 65, 32
18, 52319, Note_on_c, 13, 65, 0
18, 55440, Note_on_c, 13, 74, 32
18, 55604, Note_on_c, 13, 74, 0
18, 55620, Note_on_c, 13, 62, 32
18, 55664, Note_on_c, 13, 62, 0
18, 55680, Note_on_c, 13, 62, 32
18, 55784, Note_on_c, 13, 62, 0
18, 55800, Note_on_c, 13, 69, 32
18, 55889, Note_on_c, 13, 69, 0
18, 55920, Note_on_c, 13, 71, 32
18, 56009, Note_on_c, 13, 71, 0
18, 56040, Note_on_c, 13, 72, 32
18, 56129, Note_on_c, 13, 72, 0
18, 56160, Note_on_c, 13, 71, 32
18, 56249, Note_on_c, 13, 71, 0
18, 56280, Note_on_c, 13, 72, 32
18, 56369, Note_on_c, 13, 72, 0
18, 56400, Note_on_c, 13, 74, 32
18, 56489, Note_on_c, 13, 74, 0
18, 56520, Note_on_c, 13, 72, 32
18, 56609, Note_on_c, 13, 72, 0
18, 56640, Note_on_c, 13, 71, 32
18, 56729, Note_on_c, 13, 71, 0
18, 56760, Note_on_c, 13, 69, 32
18, 56849, Note_on_c, 13, 69, 0
18, 56880, Note_on_c, 13, 70, 32
18, 56969, Note_on_c, 13, 70, 0
18, 57000, Note_on_c, 13, 69, 32
18, 57089, Note_on_c, 13, 69, 0
18, 57120, Note_on_c, 13, 67, 32
18, 57209, Note_on_c, 13, 67, 0
18, 57240, Note_on_c, 13, 65, 32
18, 57329, Note_on_c, 13, 65, 0
18, 57360, Note_on_c, 13, 64, 32
18, 57449, Note_on_c, 13, 64, 0
18, 57480, Note_on_c, 13, 62, 32
18, 57569, Note_on_c, 13, 62, 0
18, 57600, Note_on_c, 13, 61, 32
18, 57689, Note_on_c, 13, 61, 0
18, 57720, Note_on_c, 13, 62, 32
18, 57809, Note_on_c, 13, 62, 0
18, 57840, Note_on_c, 13, 64, 32
18, 57929, Note_on_c, 13, 64, 0
18, 57960, Note_on_c, 13, 62, 32
18, 58049, Note_on_c, 13, 62, 0
18, 58080, Note_on_c, 13, 61, 32
18, 58169, Note_on_c, 13, 61, 0
18, 58200, Note_on_c, 13, 62, 32
18, 58289, Note_on_c, 13, 62, 0
18, 58320, Note_on_c, 13, 69, 32
18, 58409, Note_on_c, 13, 69, 0
18, 58440, Note_on_c, 13, 67, 32
18, 58529, Note_on_c, 13, 67, 0
18, 58560, Note_on_c, 13, 65, 32
18, 58649, Note_on_c, 13, 65, 0
18, 58680, Note_on_c, 13, 64, 32
18, 58769, Note_on_c, 13, 64, 0
18, 58800, Note_on_c, 13, 76, 32
18, 58889, Note_on_c, 13, 76, 0
18, 58920, Note_on_c, 13, 76, 32
18, 59009, Note_on_c, 13, 76, 0
18, 59040, Note_on_c, 13, 76, 32
18, 59129, Note_on_c, 13, 76, 0
18, 59160, Note_on_c, 13, 76, 32
18, 59249, Note_on_c, 13, 76, 0
18, 59280, Note_on_c, 13, 76, 32
18, 59369, Note_on_c, 13, 76, 0
18, 59400, Note_on_c, 13, 76, 32
18, 59489, Note_on_c, 13, 76, 0
18, 59520, Note_on_c, 13, 76, 32
18, 59609, Note_on_c, 13, 76, 0
18, 59640, Note_on_c, 13, 76, 32
18, 59729, Note_on_c, 13, 76, 0
18, 59760, Note_on_c, 13, 64, 32
18, 59849, Note_on_c, 13, 64, 0
18, 59880, Note_on_c, 13, 65, 32
18, 59969, Note_on_c, 13, 65, 0
18, 60000, Note_on_c, 13, 67, 32
18, 60089, Note_on_c, 13, 67, 0
18, 60120, Note_on_c, 13, 65, 32
18, 60209, Note_on_c, 13, 65, 0
18, 60240, Note_on_c, 13, 67, 32
18, 60329, Note_on_c, 13, 67, 0
18, 60360, Note_on_c, 13, 69, 32
18, 60449, Note_on_c, 13, 69, 0
18, 60480, Note_on_c, 13, 67, 32
18, 60569, Note_on_c, 13, 67, 0
18, 60600, Note_on_c, 13, 65, 32
18, 60689, Note_on_c, 13, 65, 0
18, 60720, Note_on_c, 13, 64, 32
18, 60809, Note_on_c, 13, 64, 0
18, 60840, Note_on_c, 13, 62, 32
18, 60929, Note_on_c, 13, 62, 0
18, 60960, Note_on_c, 13, 67, 32
18, 61049, Note_on_c, 13, 67, 0
18, 61080, Note_on_c, 13, 65, 32
18, 61169, Note_on_c, 13, 65, 0
18, 61200, Note_on_c, 13, 65, 32
18, 61289, Note_on_c, 13, 65, 0
18, 61320, Note_on_c, 13, 67, 32
18, 61409, Note_on_c, 13, 67, 0
18, 61440, Note_on_c, 13, 69, 32
18, 61529, Note_on_c, 13, 69, 0
18, 61560, Note_on_c, 13, 57, 32
18, 61649, Note_on_c, 13, 57, 0
18, 61680, Note_on_c, 13, 68, 32
18, 61769, Note_on_c, 13, 68, 0
18, 61800, Note_on_c, 13, 69, 32
18, 61889, Note_on_c, 13, 69, 0
18, 61920, Note_on_c, 13, 64, 32
18, 62009, Note_on_c, 13, 64, 0
18, 62040, Note_on_c, 13, 64, 32
18, 62129, Note_on_c, 13, 64, 0
18, 62160, Note_on_c, 13, 64, 32
18, 62249, Note_on_c, 13, 64, 0
18, 62280, Note_on_c, 13, 64, 32
18, 62369, Note_on_c, 13, 64, 0
18, 62400, Note_on_c, 13, 64, 32
18, 62489, Note_on_c, 13, 64, 0
18, 62520, Note_on_c, 13, 64, 32
18, 62609, Note_on_c, 13, 64, 0
18, 62640, Note_on_c, 13, 55, 32
18, 62729, Note_on_c, 13, 55, 0
18, 62760, Note_on_c, 13, 53, 32
18, 62849, Note_on_c, 13, 53, 0
18, 62880, Note_on_c, 13, 52, 32
18, 62969, Note_on_c, 13, 52, 0
18, 63000, Note_on_c, 13, 57, 32
18, 63089, Note_on_c, 13, 57, 0
18, 63120, Note_on_c, 13, 55, 32
18, 63209, Note_on_c, 13, 55, 0
18, 63240, Note_on_c, 13, 53, 32
18, 63329, Note_on_c, 13, 53, 0
18, 63360, Note_on_c, 13, 52, 32
18, 63449, Note_on_c, 13, 52, 0
18, 63480, Note_on_c, 13, 53, 32
18, 63569, Note_on_c, 13, 53, 0
18, 63600, Note_on_c, 13, 55, 32
18, 63689, Note_on_c, 13, 55, 0
18, 63720, Note_on_c, 13, 57, 32
18, 63809, Note_on_c, 13, 57, 0
18, 63840, Note_on_c, 13, 57, 32
18, 63929, Note_on_c, 13, 57, 0
18, 63960, Note_on_c, 13, 57, 32
18, 64049, Note_on_c, 13, 57, 0
18, 64080, Note_on_c, 13, 56, 32
18, 64169, Note_on_c, 13, 56, 0
18, 64200, Note_on_c, 13, 57, 32
18, 64289, Note_on_c, 13, 57, 0
18, 64320, Note_on_c, 13, 59, 32
18, 64409, Note_on_c, 13, 59, 0
18, 64440, Note_on_c, 13, 60, 32
18, 64529, Note_on_c, 13, 60, 0
18, 64560, Note_on_c, 13, 62, 32
18, 64649, Note_on_c, 13, 62, 0
18, 64680, Note_on_c, 13, 64, 32
18, 64769, Note_on_c, 13, 64, 0
18, 64800, Note_on_c, 13, 65, 32
18, 64889, Note_on_c, 13, 65, 0
18, 64920, Note_on_c, 13, 64, 32
18, 65009, Note_on_c, 13, 64, 0
18, 65040, Note_on_c, 13, 62, 32
18, 65129, Note_on_c, 13, 62, 0
18, 65160, Note_on_c, 13, 60, 32
18, 65249, Note_on_c, 13, 60, 0
18, 65280, Note_on_c, 13, 59, 32
18, 65369, Note_on_c, 13, 59, 0
18, 65400, Note_on_c, 13, 57, 32
18, 65489, Note_on_c, 13, 57, 0
18, 65520, Note_on_c, 13, 57, 32
18, 65609, Note_on_c, 13, 57, 0
18, 65640, Note_on_c, 13, 57, 32
18, 65729, Note_on_c, 13, 57, 0
18, 65760, Note_on_c, 13, 57, 32
18, 65849, Note_on_c, 13, 57, 0
18, 65880, Note_on_c, 13, 57, 32
18, 65969, Note_on_c, 13, 57, 0
18, 66000, Note_on_c, 13, 55, 32
18, 66089, Note_on_c, 13, 55, 0
18, 66120, Note_on_c, 13, 53, 32
18, 66209, Note_on_c, 13, 53, 0
18, 66240, Note_on_c, 13, 55, 32
18, 66329, Note_on_c, 13, 55, 0
18, 66360, Note_on_c, 13, 57, 32
18, 66449, Note_on_c, 13, 57, 0
18, 66480, Note_on_c, 13, 58, 32
18, 66569, Note_on_c, 13, 58, 0
18, 66600, Note_on_c, 13, 57, 32
18, 66689, Note_on_c, 13, 57, 0
18, 66720, Note_on_c, 13, 58, 32
18, 66809, Note_on_c, 13, 58, 0
18, 66840, Note_on_c, 13, 57, 32
18, 66929, Note_on_c, 13, 57, 0
18, 66960, Note_on_c, 13, 58, 32
18, 67049, Note_on_c, 13, 58, 0
18, 67080, Note_on_c, 13, 57, 33
18, 67169, Note_on_c, 13, 57, 0
18, 67200, Note_on_c, 13, 55, 35
18, 67289, Note_on_c, 13, 55, 0
18, 67320, Note_on_c, 13, 57, 37
18, 67409, Note_on_c, 13, 57, 0
18, 67440, Note_on_c, 13, 58, 38
18, 67529, Note_on_c, 13, 58, 0
18, 67560, Note_on_c, 13, 57, 40
18, 67649, Note_on_c, 13, 57, 0
18, 67680, Note_on_c, 13, 58, 42
18, 67769, Note_on_c, 13, 58, 0
18, 67800, Note_on_c, 13, 57, 43
18, 67889, Note_on_c, 13, 57, 0
18, 67920, Note_on_c, 13, 55, 45
18, 68009, Note_on_c, 13, 55, 0
18, 68040, Note_on_c, 13, 57, 47
18, 68129, Note_on_c, 13, 57, 0
18, 68160, Note_on_c, 13, 58, 48
18, 68249, Note_on_c, 13, 58, 0
18, 68280, Note_on_c, 13, 57, 50
18, 68369, Note_on_c, 13, 57, 0
18, 68400, Note_on_c, 13, 58, 52
18, 68489, Note_on_c, 13, 58, 0
18, 68520, Note_on_c, 13, 57, 53
18, 68609, Note_on_c, 13, 57, 0
18, 68640, Note_on_c, 13, 55, 55
18, 68729, Note_on_c, 13, 55, 0
18, 68760, Note_on_c, 13, 57, 57
18, 68849, Note_on_c, 13, 57, 0
18, 68880, Note_on_c, 13, 58, 58
18, 68969, Note_on_c, 13, 58, 0
18, 69000, Note_on_c, 13, 57, 60
18, 69089, Note_on_c, 13, 57, 0
18, 69120, Note_on_c, 13, 55, 62
18, 69209, Note_on_c, 13, 55, 0
18, 69240, Note_on_c, 13, 53, 63
18, 69329, Note_on_c, 13, 53, 0
18, 69360, Note_on_c, 13, 52, 65
18, 69449, Note_on_c, 13, 52, 0
18, 69480, Note_on_c, 13, 53, 67
18, 69569, Note_on_c, 13, 53, 0
18, 69600, Note_on_c, 13, 55, 68
18, 69689, Note_on_c, 13, 55, 0
18, 69720, Note_on_c, 13, 53, 70
18, 69809, Note_on_c, 13, 53, 0
18, 69840, Note_on_c, 13, 55, 72
18, 69929, Note_on_c, 13, 55, 0
18, 69960, Note_on_c, 13, 53, 73
18, 70049, Note_on_c, 13, 53, 0
18, 70080, Note_on_c, 13, 52, 75
18, 70169, Note_on_c, 13, 52, 0
18, 70200, Note_on_c, 13, 53, 77
18, 70289, Note_on_c, 13, 53, 0
18, 70320, Note_on_c, 13, 55, 78
18, 70409, Note_on_c, 13, 55, 0
18, 70440, Note_on_c, 13, 53, 80
18, 70529, Note_on_c, 13, 53, 0
18, 70560, Note_on_c, 13, 55, 82
18, 70649, Note_on_c, 13, 55, 0
18, 70680, Note_on_c, 13, 53, 83
18, 70769, Note_on_c, 13, 53, 0
18, 70800, Note_on_c, 13, 52, 85
18, 70889, Note_on_c, 13, 52, 0
18, 70920, Note_on_c, 13, 64, 87
18, 71009, Note_on_c, 13, 64, 0
18, 71040, Note_on_c, 13, 62, 88
18, 71129, Note_on_c, 13, 62, 0
18, 71160, Note_on_c, 13, 61, 90
18, 71249, Note_on_c, 13, 61, 0
18, 71280, Note_on_c, 13, 74, 92
18, 71280, Note_on_c, 13, 57, 92
18, 71280, Note_on_c, 13, 65, 92
18, 71399, Note_on_c, 13, 74, 0
18, 71399, Note_on_c, 13, 57, 0
18, 71399, Note_on_c, 13, 65, 0
18, 71640, Note_on_c, 13, 74, 92
18, 71640, Note_on_c, 13, 57, 92
18, 71640, Note_on_c, 13, 65, 92
18, 71759, Note_on_c, 13, 74, 0
18, 71759, Note_on_c, 13, 57, 0
18, 71759, Note_on_c, 13, 65, 0
18, 72000, Note_on_c, 13, 73, 92
18, 72000, Note_on_c, 13, 69, 92
18, 72119, Note_on_c, 13, 73, 0
18, 72119, Note_on_c, 13, 69, 0
18, 72360, Note_on_c, 13, 74, 92
18, 72360, Note_on_c, 13, 62, 92
18, 72479, Note_on_c, 13, 74, 0
18, 72479, Note_on_c, 13, 62, 0
18, 72720, Note_on_c, 13, 74, 80
18, 72720, Note_on_c, 13, 55, 80
18, 72720, Note_on_c, 13, 62, 80
18, 72839, Note_on_c, 13, 74, 0
18, 72839, Note_on_c, 13, 55, 0
18, 72839, Note_on_c, 13, 62, 0
18, 73080, Note_on_c, 13, 57, 80
18, 73080, Note_on_c, 13, 74, 80
18, 73080, Note_on_c, 13, 65, 80
18, 73199, Note_on_c, 13, 57, 0
18, 73199, Note_on_c, 13, 74, 0
18, 73199, Note_on_c, 13, 65, 0
18, 73440, Note_on_c, 13, 76, 80
18, 73440, Note_on_c, 13, 57, 80
18, 73440, Note_on_c, 13, 67, 80
18, 73559, Note_on_c, 13, 76, 0
18, 73559, Note_on_c, 13, 57, 0
18, 73559, Note_on_c, 13, 67, 0
18, 73800, Note_on_c, 13, 65, 80
18, 73800, Note_on_c, 13, 69, 80
18, 73919, Note_on_c, 13, 65, 0
18, 73919, Note_on_c, 13, 69, 0
18, 74160, Note_on_c, 13, 55, 80
18, 74160, Note_on_c, 13, 67, 80
18, 74279, Note_on_c, 13, 55, 0
18, 74279, Note_on_c, 13, 67, 0
18, 74520, Note_on_c, 13, 65, 80
18, 74520, Note_on_c, 13, 57, 80
18, 74520, Note_on_c, 13, 74, 80
18, 74639, Note_on_c, 13, 65, 0
18, 74639, Note_on_c, 13, 57, 0
18, 74639, Note_on_c, 13, 74, 0
18, 74880, Note_on_c, 13, 67, 80
18, 74880, Note_on_c, 13, 76, 80
18, 74880, Note_on_c, 13, 57, 80
18, 74999, Note_on_c, 13, 67, 0
18, 74999, Note_on_c, 13, 76, 0
18, 74999, Note_on_c, 13, 57, 0
18, 75240, Note_on_c, 13, 65, 80
18, 75240, Note_on_c, 13, 69, 80
18, 75359, Note_on_c, 13, 65, 0
18, 75359, Note_on_c, 13, 69, 0
18, 75480, Note_on_c, 13, 65, 80
18, 75480, Note_on_c, 13, 71, 80
18, 75584, Note_on_c, 13, 65, 0
18, 75584, Note_on_c, 13, 71, 0
18, 75600, Note_on_c, 13, 55, 80
18, 75600, Note_on_c, 13, 71, 80
18, 75600, Note_on_c, 13, 62, 80
18, 75719, Note_on_c, 13, 55, 0
18, 75719, Note_on_c, 13, 71, 0
18, 75719, Note_on_c, 13, 62, 0
18, 75960, Note_on_c, 13, 55, 80
18, 75960, Note_on_c, 13, 64, 80
18, 75960, Note_on_c, 13, 76, 80
18, 76079, Note_on_c, 13, 55, 0
18, 76079, Note_on_c, 13, 64, 0
18, 76079, Note_on_c, 13, 76, 0
18, 76320, Note_on_c, 13, 74, 80
18, 76320, Note_on_c, 13, 55, 80
18, 76320, Note_on_c, 13, 65, 80
18, 76439, Note_on_c, 13, 74, 0
18, 76439, Note_on_c, 13, 55, 0
18, 76439, Note_on_c, 13, 65, 0
18, 76680, Note_on_c, 13, 64, 80
18, 76680, Note_on_c, 13, 55, 80
18, 76784, Note_on_c, 13, 64, 0
18, 76784, Note_on_c, 13, 55, 0
18, 76800, Note_on_c, 13, 65, 80
18, 76800, Note_on_c, 13, 55, 80
18, 76904, Note_on_c, 13, 65, 0
18, 76904, Note_on_c, 13, 55, 0
18, 76920, Note_on_c, 13, 55, 80
18, 76920, Note_on_c, 13, 65, 80
18, 77024, Note_on_c, 13, 55, 0
18, 77024, Note_on_c, 13, 65, 0
18, 77040, Note_on_c, 13, 65, 80
18, 77040, Note_on_c, 13, 74, 80
18, 77040, Note_on_c, 13, 55, 80
18, 77159, Note_on_c, 13, 65, 0
18, 77159, Note_on_c, 13, 74, 0
18, 77159, Note_on_c, 13, 55, 0
18, 77400, Note_on_c, 13, 76, 80
18, 77400, Note_on_c, 13, 64, 80
18, 77400, Note_on_c, 13, 55, 80
18, 77519, Note_on_c, 13, 76, 0
18, 77519, Note_on_c, 13, 64, 0
18, 77519, Note_on_c, 13, 55, 0
18, 77760, Note_on_c, 13, 55, 80
18, 77760, Note_on_c, 13, 72, 80
18, 77760, Note_on_c, 13, 64, 80
18, 77879, Note_on_c, 13, 55, 0
18, 77879, Note_on_c, 13, 72, 0
18, 77879, Note_on_c, 13, 64, 0
18, 78120, Note_on_c, 13, 64, 80
18, 78120, Note_on_c, 13, 55, 80
18, 78120, Note_on_c, 13, 72, 80
18, 78239, Note_on_c, 13, 64, 0
18, 78239, Note_on_c, 13, 55, 0
18, 78239, Note_on_c, 13, 72, 0
18, 78480, Note_on_c, 13, 67, 80
18, 78480, Note_on_c, 13, 55, 80
18, 78599, Note_on_c, 13, 67, 0
18, 78599, Note_on_c, 13, 55, 0
18, 78840, Control_c, 13, 11, 87
18, 79560, Note_on_c, 13, 65, 68
18, 79560, Control_c, 13, 11, 87
18, 79590, Control_c, 13, 11, 89
18, 79620, Control_c, 13, 11, 90
18, 79650, Control_c, 13, 11, 92
18, 79680, Control_c, 13, 11, 94
18, 79710, Control_c, 13, 11, 95
18, 79724, Note_on_c, 13, 65, 0
18, 79740, Control_c, 13, 11, 97
18, 79740, Note_on_c, 13, 69, 68
18, 79770, Control_c, 13, 11, 99
18, 79784, Note_on_c, 13, 69, 0
18, 79800, Control_c, 13, 11, 100
18, 79800, Note_on_c, 13, 69, 68
18, 79830, Control_c, 13, 11, 102
18, 79860, Control_c, 13, 11, 104
18, 79890, Control_c, 13, 11, 105
18, 79904, Note_on_c, 13, 69, 0
18, 79920, Control_c, 13, 11, 107
18, 79920, Note_on_c, 13, 65, 68
18, 79950, Control_c, 13, 11, 109
18, 79980, Control_c, 13, 11, 110
18, 80010, Control_c, 13, 11, 112
18, 80040, Control_c, 13, 11, 114
18, 80070, Control_c, 13, 11, 115
18, 80084, Note_on_c, 13, 65, 0
18, 80100, Control_c, 13, 11, 117
18, 80100, Note_on_c, 13, 68, 68
18, 80130, Control_c, 13, 11, 119
18, 80144, Note_on_c, 13, 68, 0
18, 80160, Control_c, 13, 11, 120
18, 80160, Note_on_c, 13, 68, 68
18, 80190, Control_c, 13, 11, 122
18, 80220, Control_c, 13, 11, 124
18, 80250, Control_c, 13, 11, 125
18, 80264, Note_on_c, 13, 68, 0
18, 80280, Note_on_c, 13, 64, 68
18, 80400, Control_c, 13, 11, 127
18, 80440, Control_c, 13, 11, 125
18, 80444, Note_on_c, 13, 64, 0
18, 80460, Note_on_c, 13, 67, 68
18, 80480, Control_c, 13, 11, 124
18, 80504, Note_on_c, 13, 67, 0
18, 80520, Note_on_c, 13, 67, 68
18, 80520, Control_c, 13, 11, 122
18, 80560, Control_c, 13, 11, 120
18, 80600, Control_c, 13, 11, 119
18, 80624, Note_on_c, 13, 67, 0
18, 80640, Control_c, 13, 11, 117
18, 80640, Note_on_c, 13, 63, 68
18, 80680, Control_c, 13, 11, 115
18, 80720, Control_c, 13, 11, 114
18, 80760, Control_c, 13, 11, 112
18, 80800, Control_c, 13, 11, 110
18, 80804, Note_on_c, 13, 63, 0
18, 80820, Note_on_c, 13, 67, 68
18, 80840, Control_c, 13, 11, 109
18, 80864, Note_on_c, 13, 67, 0
18, 80880, Control_c, 13, 11, 107
18, 80880, Note_on_c, 13, 67, 68
18, 80920, Control_c, 13, 11, 105
18, 80960, Control_c, 13, 11, 104
18, 80984, Note_on_c, 13, 67, 0
18, 81000, Note_on_c, 13, 62, 68
18, 81000, Control_c, 13, 11, 102
18, 81040, Control_c, 13, 11, 100
18, 81080, Control_c, 13, 11, 99
18, 81120, Control_c, 13, 11, 97
18, 81160, Control_c, 13, 11, 95
18, 81164, Note_on_c, 13, 62, 0
18, 81180, Note_on_c, 13, 67, 68
18, 81200, Control_c, 13, 11, 94
18, 81224, Note_on_c, 13, 67, 0
18, 81240, Control_c, 13, 11, 92
18, 81240, Note_on_c, 13, 67, 68
18, 81280, Control_c, 13, 11, 90
18, 81320, Control_c, 13, 11, 89
18, 81344, Note_on_c, 13, 67, 0
18, 81358, Control_c, 13, 11, 47
18, 81360, Control_c, 13, 11, 47
18, 81360, Note_on_c, 13, 67, 92
18, 81408, Control_c, 13, 11, 48
18, 81456, Control_c, 13, 11, 50
18, 81504, Control_c, 13, 11, 51
18, 81524, Note_on_c, 13, 67, 0
18, 81540, Note_on_c, 13, 55, 92
18, 81552, Control_c, 13, 11, 52
18, 81584, Note_on_c, 13, 55, 0
18, 81600, Control_c, 13, 11, 54
18, 81600, Note_on_c, 13, 55, 92
18, 81648, Control_c, 13, 11, 55
18, 81696, Control_c, 13, 11, 56
18, 81704, Note_on_c, 13, 55, 0
18, 81720, Note_on_c, 13, 67, 92
18, 81744, Control_c, 13, 11, 58
18, 81792, Control_c, 13, 11, 59
18, 81840, Control_c, 13, 11, 60
18, 81884, Note_on_c, 13, 67, 0
18, 81888, Control_c, 13, 11, 62
18, 81900, Note_on_c, 13, 55, 92
18, 81936, Control_c, 13, 11, 63
18, 81944, Note_on_c, 13, 55, 0
18, 81960, Note_on_c, 13, 55, 92
18, 81984, Control_c, 13, 11, 64
18, 82032, Control_c, 13, 11, 66
18, 82064, Note_on_c, 13, 55, 0
18, 82080, Note_on_c, 13, 67, 92
18, 82080, Control_c, 13, 11, 67
18, 82128, Control_c, 13, 11, 68
18, 82176, Control_c, 13, 11, 70
18, 82224, Control_c, 13, 11, 71
18, 82244, Note_on_c, 13, 67, 0
18, 82260, Note_on_c, 13, 55, 92
18, 82272, Control_c, 13, 11, 72
18, 82304, Note_on_c, 13, 55, 0
18, 82320, Control_c, 13, 11, 74
18, 82320, Note_on_c, 13, 55, 92
18, 82368, Control_c, 13, 11, 75
18, 82416, Control_c, 13, 11, 76
18, 82424, Note_on_c, 13, 55, 0
18, 82440, Note_on_c, 13, 65, 92
18, 82464, Control_c, 13, 11, 78
18, 82512, Control_c, 13, 11, 79
18, 82560, Control_c, 13, 11, 80
18, 82604, Note_on_c, 13, 65, 0
18, 82608, Control_c, 13, 11, 82
18, 82620, Note_on_c, 13, 53, 92
18, 82656, Control_c, 13, 11, 83
18, 82664, Note_on_c, 13, 53, 0
18, 82680, Note_on_c, 13, 53, 92
18, 82704, Control_c, 13, 11, 84
18, 82752, Control_c, 13, 11, 86
18, 82784, Note_on_c, 13, 53, 0
18, 82800, Control_c, 13, 11, 87
18, 82800, Note_on_c, 13, 65, 92
18, 82848, Control_c, 13, 11, 88
18, 82896, Control_c, 13, 11, 90
18, 82944, Control_c, 13, 11, 91
18, 82964, Note_on_c, 13, 65, 0
18, 82980, Note_on_c, 13, 53, 92
18, 82992, Control_c, 13, 11, 92
18, 83024, Note_on_c, 13, 53, 0
18, 83040, Note_on_c, 13, 53, 92
18, 83040, Control_c, 13, 11, 94
18, 83088, Control_c, 13, 11, 95
18, 83136, Control_c, 13, 11, 96
18, 83144, Note_on_c, 13, 53, 0
18, 83160, Note_on_c, 13, 64, 92
18, 83184, Control_c, 13, 11, 98
18, 83232, Control_c, 13, 11, 99
18, 83280, Control_c, 13, 11, 100
18, 83324, Note_on_c, 13, 64, 0
18, 83328, Control_c, 13, 11, 102
18, 83340, Note_on_c, 13, 52, 92
18, 83376, Control_c, 13, 11, 103
18, 83384, Note_on_c, 13, 52, 0
18, 83400, Note_on_c, 13, 52, 92
18, 83424, Control_c, 13, 11, 104
18, 83472, Control_c, 13, 11, 106
18, 83504, Note_on_c, 13, 52, 0
18, 83520, Note_on_c, 13, 63, 92
18, 83520, Control_c, 13, 11, 107
18, 83568, Control_c, 13, 11, 108
18, 83616, Control_c, 13, 11, 110
18, 83664, Control_c, 13, 11, 111
18, 83684, Note_on_c, 13, 63, 0
18, 83700, Note_on_c, 13, 51, 92
18, 83712, Control_c, 13, 11, 112
18, 83744, Note_on_c, 13, 51, 0
18, 83760, Note_on_c, 13, 51, 92
18, 83760, Control_c, 13, 11, 114
18, 83808, Control_c, 13, 11, 115
18, 83856, Control_c, 13, 11, 116
18, 83864, Note_on_c, 13, 51, 0
18, 83880, Note_on_c, 13, 62, 92
18, 83904, Control_c, 13, 11, 118
18, 83952, Control_c, 13, 11, 119
18, 84000, Control_c, 13, 11, 120
18, 84044, Note_on_c, 13, 62, 0
18, 84048, Control_c, 13, 11, 122
18, 84060, Note_on_c, 13, 50, 92
18, 84096, Control_c, 13, 11, 123
18, 84104, Note_on_c, 13, 50, 0
18, 84120, Note_on_c, 13, 50, 92
18, 84144, Control_c, 13, 11, 124
18, 84192, Control_c, 13, 11, 127
18, 84224, Note_on_c, 13, 50, 0
18, 84240, Note_on_c, 13, 60, 92
18, 84404, Note_on_c, 13, 60, 0
18, 84420, Note_on_c, 13, 48, 92
18, 84464, Note_on_c, 13, 48, 0
18, 84480, Note_on_c, 13, 48, 92
18, 84584, Note_on_c, 13, 48, 0
18, 84600, Note_on_c, 13, 60, 92
18, 84764, Note_on_c, 13, 60, 0
18, 84780, Note_on_c, 13, 48, 92
18, 84824, Note_on_c, 13, 48, 0
18, 84840, Note_on_c, 13, 48, 92
18, 84944, Note_on_c, 13, 48, 0
18, 84960, Note_on_c, 13, 60, 92
18, 85124, Note_on_c, 13, 60, 0
18, 85140, Note_on_c, 13, 48, 92
18, 85184, Note_on_c, 13, 48, 0
18, 85200, Note_on_c, 13, 48, 92
18, 85304, Note_on_c, 13, 48, 0
18, 85320, Note_on_c, 13, 60, 92
18, 85484, Note_on_c, 13, 60, 0
18, 85500, Note_on_c, 13, 48, 92
18, 85544, Note_on_c, 13, 48, 0
18, 85560, Note_on_c, 13, 48, 92
18, 85664, Note_on_c, 13, 48, 0
18, 85680, Note_on_c, 13, 60, 92
18, 85844, Note_on_c, 13, 60, 0
18, 85860, Note_on_c, 13, 48, 92
18, 85904, Note_on_c, 13, 48, 0
18, 85920, Note_on_c, 13, 48, 92
18, 86024, Note_on_c, 13, 48, 0
18, 86040, Note_on_c, 13, 60, 92
18, 86204, Note_on_c, 13, 60, 0
18, 86220, Note_on_c, 13, 48, 92
18, 86264, Note_on_c, 13, 48, 0
18, 86280, Note_on_c, 13, 48, 92
18, 86384, Note_on_c, 13, 48, 0
18, 86400, Note_on_c, 13, 60, 92
18, 86564, Note_on_c, 13, 60, 0
18, 86580, Note_on_c, 13, 48, 92
18, 86624, Note_on_c, 13, 48, 0
18, 86640, Note_on_c, 13, 48, 92
18, 86744, Note_on_c, 13, 48, 0
18, 86760, Note_on_c, 13, 60, 92
18, 86924, Note_on_c, 13, 60, 0
18, 86940, Note_on_c, 13, 48, 92
18, 86984, Note_on_c, 13, 48, 0
18, 87000, Note_on_c, 13, 48, 92
18, 87104, Note_on_c, 13, 48, 0
18, 87120, Note_on_c, 13, 60, 92
18, 87284, Note_on_c, 13, 60, 0
18, 87300, Note_on_c, 13, 48, 92
18, 87344, Note_on_c, 13, 48, 0
18, 87360, Note_on_c, 13, 48, 92
18, 87464, Note_on_c, 13, 48, 0
18, 87480, Note_on_c, 13, 60, 92
18, 87644, Note_on_c, 13, 60, 0
18, 87660, Note_on_c, 13, 48, 92
18, 87704, Note_on_c, 13, 48, 0
18, 87720, Note_on_c, 13, 48, 92
18, 87824, Note_on_c, 13, 48, 0
18, 87840, Note_on_c, 13, 60, 92
18, 88004, Note_on_c, 13, 60, 0
18, 88020, Note_on_c, 13, 48, 92
18, 88064, Note_on_c, 13, 48, 0
18, 88080, Note_on_c, 13, 48, 92
18, 88184, Note_on_c, 13, 48, 0
18, 88200, Note_on_c, 13, 60, 92
18, 88364, Note_on_c, 13, 60, 0
18, 88380, Note_on_c, 13, 48, 92
18, 88424, Note_on_c, 13, 48, 0
18, 88440, Note_on_c, 13, 48, 92
18, 88544, Note_on_c, 13, 48, 0
18, 88560, Note_on_c, 13, 60, 92
18, 88724, Note_on_c, 13, 60, 0
18, 88740, Note_on_c, 13, 48, 92
18, 88784, Note_on_c, 13, 48, 0
18, 88800, Note_on_c, 13, 48, 92
18, 88904, Note_on_c, 13, 48, 0
18, 88920, Note_on_c, 13, 60, 92
18, 89084, Note_on_c, 13, 60, 0
18, 89100, Note_on_c, 13, 48, 92
18, 89144, Note_on_c, 13, 48, 0
18, 89160, Note_on_c, 13, 48, 92
18, 89264, Note_on_c, 13, 48, 0
18, 89280, Note_on_c, 13, 60, 92
18, 89444, Note_on_c, 13, 60, 0
18, 89460, Note_on_c, 13, 48, 92
18, 89504, Note_on_c, 13, 48, 0
18, 89520, Note_on_c, 13, 48, 92
18, 89624, Note_on_c, 13, 48, 0
18, 89640, Note_on_c, 13, 60, 92
18, 89804, Note_on_c, 13, 60, 0
18, 89820, Note_on_c, 13, 48, 92
18, 89864, Note_on_c, 13, 48, 0
18, 89880, Note_on_c, 13, 48, 92
18, 89984, Note_on_c, 13, 48, 0
18, 90000, Note_on_c, 13, 60, 92
18, 90119, Note_on_c, 13, 60, 0
18, 90720, Note_on_c, 13, 65, 92
18, 90884, Note_on_c, 13, 65, 0
18, 90900, Note_on_c, 13, 53, 92
18, 90944, Note_on_c, 13, 53, 0
18, 90960, Note_on_c, 13, 53, 92
18, 91064, Note_on_c, 13, 53, 0
18, 91080, Note_on_c, 13, 65, 92
18, 91169, Note_on_c, 13, 65, 0
18, 91200, Note_on_c, 13, 62, 92
18, 91289, Note_on_c, 13, 62, 0
18, 91320, Note_on_c, 13, 60, 92
18, 91409, Note_on_c, 13, 60, 0
18, 91440, Note_on_c, 13, 59, 92
18, 91559, Note_on_c, 13, 59, 0
18, 92160, Note_on_c, 13, 64, 92
18, 92324, Note_on_c, 13, 64, 0
18, 92340, Note_on_c, 13, 52, 92
18, 92384, Note_on_c, 13, 52, 0
18, 92400, Note_on_c, 13, 52, 92
18, 92504, Note_on_c, 13, 52, 0
18, 92520, Note_on_c, 13, 64, 92
18, 92609, Note_on_c, 13, 64, 0
18, 92640, Note_on_c, 13, 60, 92
18, 92729, Note_on_c, 13, 60, 0
18, 92760, Note_on_c, 13, 59, 92
18, 92849, Note_on_c, 13, 59, 0
18, 92878, Control_c, 13, 11, 87
18, 92880, Note_on_c, 13, 52, 68
18, 92999, Note_on_c, 13, 52, 0
18, 93000, Note_on_c, 13, 50, 68
18, 93119, Note_on_c, 13, 50, 0
18, 93120, Note_on_c, 13, 48, 68
18, 93239, Note_on_c, 13, 48, 0
18, 93240, Note_on_c, 13, 55, 68
18, 93359, Note_on_c, 13, 55, 0
18, 93360, Note_on_c, 13, 53, 68
18, 93479, Note_on_c, 13, 53, 0
18, 93480, Note_on_c, 13, 52, 68
18, 93599, Note_on_c, 13, 52, 0
18, 93600, Note_on_c, 13, 50, 68
18, 93600, Control_c, 13, 11, 87
18, 93630, Control_c, 13, 11, 89
18, 93660, Control_c, 13, 11, 90
18, 93690, Control_c, 13, 11, 92
18, 93719, Note_on_c, 13, 50, 0
18, 93720, Note_on_c, 13, 48, 68
18, 93720, Control_c, 13, 11, 94
18, 93750, Control_c, 13, 11, 95
18, 93780, Control_c, 13, 11, 97
18, 93810, Control_c, 13, 11, 99
18, 93839, Note_on_c, 13, 48, 0
18, 93840, Control_c, 13, 11, 100
18, 93840, Note_on_c, 13, 50, 68
18, 93870, Control_c, 13, 11, 102
18, 93900, Control_c, 13, 11, 104
18, 93930, Control_c, 13, 11, 105
18, 93959, Note_on_c, 13, 50, 0
18, 93960, Control_c, 13, 11, 107
18, 93960, Note_on_c, 13, 52, 68
18, 93990, Control_c, 13, 11, 109
18, 94020, Control_c, 13, 11, 110
18, 94050, Control_c, 13, 11, 112
18, 94079, Note_on_c, 13, 52, 0
18, 94080, Control_c, 13, 11, 114
18, 94080, Note_on_c, 13, 53, 68
18, 94110, Control_c, 13, 11, 115
18, 94140, Control_c, 13, 11, 117
18, 94170, Control_c, 13, 11, 119
18, 94199, Note_on_c, 13, 53, 0
18, 94200, Control_c, 13, 11, 120
18, 94200, Note_on_c, 13, 55, 68
18, 94230, Control_c, 13, 11, 122
18, 94260, Control_c, 13, 11, 124
18, 94290, Control_c, 13, 11, 125
18, 94319, Note_on_c, 13, 55, 0
18, 94320, Control_c, 13, 11, 127
18, 94320, Note_on_c, 13, 54, 68
18, 94350, Control_c, 13, 11, 125
18, 94380, Control_c, 13, 11, 124
18, 94410, Control_c, 13, 11, 122
18, 94439, Note_on_c, 13, 54, 0
18, 94440, Note_on_c, 13, 55, 68
18, 94440, Control_c, 13, 11, 120
18, 94470, Control_c, 13, 11, 119
18, 94500, Control_c, 13, 11, 117
18, 94530, Control_c, 13, 11, 115
18, 94559, Note_on_c, 13, 55, 0
18, 94560, Note_on_c, 13, 57, 68
18, 94560, Control_c, 13, 11, 114
18, 94590, Control_c, 13, 11, 112
18, 94620, Control_c, 13, 11, 110
18, 94650, Control_c, 13, 11, 109
18, 94679, Note_on_c, 13, 57, 0
18, 94680, Control_c, 13, 11, 107
18, 94680, Note_on_c, 13, 55, 68
18, 94710, Control_c, 13, 11, 105
18, 94740, Control_c, 13, 11, 104
18, 94770, Control_c, 13, 11, 102
18, 94799, Note_on_c, 13, 55, 0
18, 94800, Note_on_c, 13, 53, 68
18, 94800, Control_c, 13, 11, 100
18, 94830, Control_c, 13, 11, 99
18, 94860, Control_c, 13, 11, 97
18, 94890, Control_c, 13, 11, 95
18, 94919, Note_on_c, 13, 53, 0
18, 94920, Control_c, 13, 11, 94
18, 94920, Note_on_c, 13, 52, 68
18, 94950, Control_c, 13, 11, 92
18, 94980, Control_c, 13, 11, 90
18, 95010, Control_c, 13, 11, 87
18, 95024, Note_on_c, 13, 52, 0
18, 95038, Control_c, 13, 11, 67
18, 95040, Note_on_c, 13, 48, 80
18, 95040, Control_c, 13, 11, 67
18, 95070, Control_c, 13, 11, 68
18, 95100, Control_c, 13, 11, 70
18, 95130, Control_c, 13, 11, 71
18, 95160, Control_c, 13, 11, 72
18, 95190, Control_c, 13, 11, 73
18, 95220, Control_c, 13, 11, 75
18, 95250, Control_c, 13, 11, 76
18, 95280, Control_c, 13, 11, 77
18, 95310, Control_c, 13, 11, 78
18, 95340, Control_c, 13, 11, 80
18, 95370, Control_c, 13, 11, 81
18, 95400, Control_c, 13, 11, 82
18, 95430, Control_c, 13, 11, 83
18, 95460, Control_c, 13, 11, 85
18, 95490, Control_c, 13, 11, 86
18, 95520, Control_c, 13, 11, 87
18, 95550, Control_c, 13, 11, 88
18, 95580, Control_c, 13, 11, 90
18, 95610, Control_c, 13, 11, 91
18, 95640, Control_c, 13, 11, 92
18, 95670, Control_c, 13, 11, 93
18, 95700, Control_c, 13, 11, 95
18, 95730, Control_c, 13, 11, 96
18, 95760, Control_c, 13, 11, 97
18, 95790, Control_c, 13, 11, 98
18, 95820, Control_c, 13, 11, 100
18, 95850, Control_c, 13, 11, 101
18, 95880, Control_c, 13, 11, 102
18, 95910, Control_c, 13, 11, 103
18, 95940, Control_c, 13, 11, 105
18, 95970, Control_c, 13, 11, 106
18, 96000, Control_c, 13, 11, 107
18, 96030, Control_c, 13, 11, 108
18, 96060, Control_c, 13, 11, 110
18, 96090, Control_c, 13, 11, 111
18, 96120, Control_c, 13, 11, 112
18, 96150, Control_c, 13, 11, 113
18, 96180, Control_c, 13, 11, 115
18, 96210, Control_c, 13, 11, 116
18, 96240, Control_c, 13, 11, 117
18, 96270, Control_c, 13, 11, 118
18, 96300, Control_c, 13, 11, 120
18, 96330, Control_c, 13, 11, 121
18, 96360, Control_c, 13, 11, 122
18, 96390, Control_c, 13, 11, 123
18, 96420, Control_c, 13, 11, 125
18, 96450, Control_c, 13, 11, 127
18, 96599, Note_on_c, 13, 48, 0
18, 97200, Note_on_c, 13, 64, 80
18, 97289, Note_on_c, 13, 64, 0
18, 97320, Note_on_c, 13, 76, 80
18, 97409, Note_on_c, 13, 76, 0
18, 97440, Note_on_c, 13, 72, 80
18, 97529, Note_on_c, 13, 72, 0
18, 97560, Note_on_c, 13, 69, 80
18, 97649, Note_on_c, 13, 69, 0
18, 97680, Note_on_c, 13, 71, 80
18, 97769, Note_on_c, 13, 71, 0
18, 97800, Note_on_c, 13, 72, 80
18, 97889, Note_on_c, 13, 72, 0
18, 97920, Note_on_c, 13, 72, 80
18, 98039, Note_on_c, 13, 72, 0
18, 98640, Note_on_c, 13, 64, 80
18, 98729, Note_on_c, 13, 64, 0
18, 98760, Note_on_c, 13, 60, 80
18, 98849, Note_on_c, 13, 60, 0
18, 98880, Note_on_c, 13, 65, 80
18, 98969, Note_on_c, 13, 65, 0
18, 99000, Note_on_c, 13, 62, 80
18, 99089, Note_on_c, 13, 62, 0
18, 99120, Note_on_c, 13, 59, 80
18, 99209, Note_on_c, 13, 59, 0
18, 99240, Note_on_c, 13, 64, 80
18, 99329, Note_on_c, 13, 64, 0
18, 99360, Note_on_c, 13, 55, 80
18, 99360, Note_on_c, 13, 48, 80
18, 99360, Note_on_c, 13, 64, 80
18, 99479, Note_on_c, 13, 55, 0
18, 99479, Note_on_c, 13, 48, 0
18, 99479, Note_on_c, 13, 64, 0
18, 99720, Note_on_c, 13, 67, 80
18, 99884, Note_on_c, 13, 67, 0
18, 99900, Note_on_c, 13, 55, 80
18, 99944, Note_on_c, 13, 55, 0
18, 99960, Note_on_c, 13, 55, 80
18, 100064, Note_on_c, 13, 55, 0
18, 100080, Note_on_c, 13, 48, 80
18, 100199, Note_on_c, 13, 48, 0
18, 100440, Note_on_c, 13, 67, 80
18, 100604, Note_on_c, 13, 67, 0
18, 100620, Note_on_c, 13, 55, 80
18, 100664, Note_on_c, 13, 55, 0
18, 100680, Note_on_c, 13, 55, 80
18, 100784, Note_on_c, 13, 55, 0
18, 100800, Note_on_c, 13, 60, 32
18, 100919, Note_on_c, 13, 60, 0
18, 100920, Note_on_c, 13, 59, 32
18, 101039, Note_on_c, 13, 59, 0
18, 101040, Note_on_c, 13, 57, 32
18, 101159, Note_on_c, 13, 57, 0
18, 101160, Note_on_c, 13, 55, 32
18, 101279, Note_on_c, 13, 55, 0
18, 101280, Note_on_c, 13, 53, 32
18, 101399, Note_on_c, 13, 53, 0
18, 101400, Note_on_c, 13, 52, 32
18, 101519, Note_on_c, 13, 52, 0
18, 101520, Note_on_c, 13, 50, 32
18, 101639, Note_on_c, 13, 50, 0
18, 101640, Note_on_c, 13, 52, 32
18, 101759, Note_on_c, 13, 52, 0
18, 101760, Note_on_c, 13, 50, 32
18, 101819, Note_on_c, 13, 50, 0
18, 101820, Note_on_c, 13, 62, 32
18, 101879, Note_on_c, 13, 62, 0
18, 101880, Note_on_c, 13, 60, 32
18, 101999, Note_on_c, 13, 60, 0
18, 102000, Note_on_c, 13, 59, 32
18, 102119, Note_on_c, 13, 59, 0
18, 102120, Note_on_c, 13, 57, 32
18, 102179, Note_on_c, 13, 57, 0
18, 102180, Note_on_c, 13, 55, 32
18, 102224, Note_on_c, 13, 55, 0
18, 102240, Note_on_c, 13, 52, 32
18, 102240, Note_on_c, 13, 55, 32
18, 102404, Note_on_c, 13, 52, 0
18, 102404, Note_on_c, 13, 55, 0
18, 102420, Note_on_c, 13, 64, 32
18, 102464, Note_on_c, 13, 64, 0
18, 102480, Note_on_c, 13, 64, 32
18, 102584, Note_on_c, 13, 64, 0
18, 102600, Note_on_c, 13, 64, 32
18, 102719, Note_on_c, 13, 64, 0
18, 102960, Note_on_c, 13, 57, 32
18, 103124, Note_on_c, 13, 57, 0
18, 103140, Note_on_c, 13, 65, 32
18, 103184, Note_on_c, 13, 65, 0
18, 103200, Note_on_c, 13, 65, 32
18, 103304, Note_on_c, 13, 65, 0
18, 103320, Note_on_c, 13, 65, 32
18, 103439, Note_on_c, 13, 65, 0
18, 105120, Note_on_c, 13, 53, 32
18, 105284, Note_on_c, 13, 53, 0
18, 105300, Note_on_c, 13, 65, 32
18, 105344, Note_on_c, 13, 65, 0
18, 105360, Note_on_c, 13, 65, 32
18, 105464, Note_on_c, 13, 65, 0
18, 105480, Note_on_c, 13, 65, 32
18, 105599, Note_on_c, 13, 65, 0
18, 105840, Note_on_c, 13, 55, 32
18, 106004, Note_on_c, 13, 55, 0
18, 106020, Note_on_c, 13, 67, 32
18, 106064, Note_on_c, 13, 67, 0
18, 106080, Note_on_c, 13, 67, 32
18, 106184, Note_on_c, 13, 67, 0
18, 106200, Note_on_c, 13, 67, 32
18, 106319, Note_on_c, 13, 67, 0
18, 108000, Note_on_c, 13, 55, 32
18, 108164, Note_on_c, 13, 55, 0
18, 108180, Note_on_c, 13, 67, 34
18, 108224, Note_on_c, 13, 67, 0
18, 108240, Note_on_c, 13, 67, 34
18, 108344, Note_on_c, 13, 67, 0
18, 108360, Note_on_c, 13, 67, 36
18, 108479, Note_on_c, 13, 67, 0
18, 108720, Note_on_c, 13, 60, 40
18, 108884, Note_on_c, 13, 60, 0
18, 108900, Note_on_c, 13, 48, 42
18, 108944, Note_on_c, 13, 48, 0
18, 108960, Note_on_c, 13, 48, 42
18, 109064, Note_on_c, 13, 48, 0
18, 109080, Note_on_c, 13, 56, 44
18, 109199, Note_on_c, 13, 56, 0
18, 109440, Note_on_c, 13, 53, 48
18, 109604, Note_on_c, 13, 53, 0
18, 109620, Note_on_c, 13, 65, 50
18, 109664, Note_on_c, 13, 65, 0
18, 109680, Note_on_c, 13, 65, 50
18, 109784, Note_on_c, 13, 65, 0
18, 109800, Note_on_c, 13, 61, 52
18, 109919, Note_on_c, 13, 61, 0
18, 110160, Note_on_c, 13, 58, 56
18, 110324, Note_on_c, 13, 58, 0
18, 110340, Note_on_c, 13, 61, 58
18, 110384, Note_on_c, 13, 61, 0
18, 110400, Note_on_c, 13, 61, 58
18, 110504, Note_on_c, 13, 61, 0
18, 110520, Note_on_c, 13, 63, 60
18, 110639, Note_on_c, 13, 63, 0
18, 110880, Note_on_c, 13, 51, 64
18, 111044, Note_on_c, 13, 51, 0
18, 111060, Note_on_c, 13, 63, 66
18, 111104, Note_on_c, 13, 63, 0
18, 111120, Note_on_c, 13, 63, 66
18, 111224, Note_on_c, 13, 63, 0
18, 111240, Note_on_c, 13, 59, 68
18, 111359, Note_on_c, 13, 59, 0
18, 111600, Note_on_c, 13, 59, 72
18, 111764, Note_on_c, 13, 59, 0
18, 111780, Note_on_c, 13, 64, 74
18, 111824, Note_on_c, 13, 64, 0
18, 111840, Note_on_c, 13, 64, 74
18, 111944, Note_on_c, 13, 64, 0
18, 111960, Note_on_c, 13, 64, 76
18, 112079, Note_on_c, 13, 64, 0
18, 112320, Note_on_c, 13, 57, 80
18, 112484, Note_on_c, 13, 57, 0
18, 112500, Note_on_c, 13, 69, 80
18, 112544, Note_on_c, 13, 69, 0
18, 112560, Note_on_c, 13, 69, 80
18, 112664, Note_on_c, 13, 69, 0
18, 113040, Note_on_c, 13, 58, 92
18, 113204, Note_on_c, 13, 58, 0
18, 113220, Note_on_c, 13, 70, 92
18, 113264, Note_on_c, 13, 70, 0
18, 113280, Note_on_c, 13, 70, 92
18, 113384, Note_on_c, 13, 70, 0
18, 113760, Note_on_c, 13, 59, 92
18, 113924, Note_on_c, 13, 59, 0
18, 113940, Note_on_c, 13, 71, 92
18, 113984, Note_on_c, 13, 71, 0
18, 114000, Note_on_c, 13, 71, 92
18, 114104, Note_on_c, 13, 71, 0
18, 114840, Program_c, 13, 45
18, 115200, Note_on_c, 13, 59, 40
18, 115319, Note_on_c, 13, 59, 0
18, 115560, Note_on_c, 13, 59, 40
18, 115679, Note_on_c, 13, 59, 0
18, 116280, Note_on_c, 13, 59, 40
18, 116399, Note_on_c, 13, 59, 0
18, 116640, Note_on_c, 13, 59, 40
18, 116759, Note_on_c, 13, 59, 0
18, 117360, Note_on_c, 13, 59, 40
18, 117479, Note_on_c, 13, 59, 0
18, 117720, Note_on_c, 13, 59, 40
18, 117839, Note_on_c, 13, 59, 0
18, 118440, Note_on_c, 13, 64, 40
18, 118559, Note_on_c, 13, 64, 0
18, 118800, Note_on_c, 13, 52, 40
18, 118919, Note_on_c, 13, 52, 0
18, 119520, Note_on_c, 13, 57, 40
18, 119639, Note_on_c, 13, 57, 0
18, 119880, Note_on_c, 13, 52, 40
18, 119999, Note_on_c, 13, 52, 0
18, 120600, Note_on_c, 13, 57, 40
18, 120719, Note_on_c, 13, 57, 0
18, 120960, Note_on_c, 13, 52, 40
18, 121079, Note_on_c, 13, 52, 0
18, 121680, Note_on_c, 13, 65, 40
18, 121799, Note_on_c, 13, 65, 0
18, 122040, Note_on_c, 13, 53, 40
18, 122159, Note_on_c, 13, 53, 0
18, 122760, Note_on_c, 13, 65, 40
18, 122879, Note_on_c, 13, 65, 0
18, 123120, Note_on_c, 13, 53, 40
18, 123239, Note_on_c, 13, 53, 0
18, 123840, Note_on_c, 13, 65, 40
18, 123959, Note_on_c, 13, 65, 0
18, 124200, Note_on_c, 13, 53, 40
18, 124319, Note_on_c, 13, 53, 0
18, 124920, Note_on_c, 13, 65, 40
18, 125039, Note_on_c, 13, 65, 0
18, 125280, Note_on_c, 13, 53, 40
18, 125399, Note_on_c, 13, 53, 0
18, 125640, Note_on_c, 13, 65, 40
18, 125759, Note_on_c, 13, 65, 0
18, 126000, Note_on_c, 13, 53, 40
18, 126119, Note_on_c, 13, 53, 0
18, 126360, Note_on_c, 13, 65, 40
18, 126479, Note_on_c, 13, 65, 0
18, 126600, Program_c, 13, 48
18, 126720, Note_on_c, 13, 67, 44
18, 126720, Note_on_c, 13, 58, 44
18, 126824, Note_on_c, 13, 67, 0
18, 126824, Note_on_c, 13, 58, 0
18, 126840, Note_on_c, 13, 65, 44
18, 126840, Note_on_c, 13, 57, 44
18, 126944, Note_on_c, 13, 65, 0
18, 126944, Note_on_c, 13, 57, 0
18, 126960, Note_on_c, 13, 55, 44
18, 126960, Note_on_c, 13, 64, 44
18, 127064, Note_on_c, 13, 55, 0
18, 127064, Note_on_c, 13, 64, 0
18, 127080, Note_on_c, 13, 55, 43
18, 127080, Note_on_c, 13, 64, 43
18, 127184, Note_on_c, 13, 55, 0
18, 127184, Note_on_c, 13, 64, 0
18, 127200, Note_on_c, 13, 65, 43
18, 127200, Note_on_c, 13, 57, 43
18, 127304, Note_on_c, 13, 65, 0
18, 127304, Note_on_c, 13, 57, 0
18, 127320, Note_on_c, 13, 58, 43
18, 127320, Note_on_c, 13, 67, 43
18, 127424, Note_on_c, 13, 58, 0
18, 127424, Note_on_c, 13, 67, 0
18, 127440, Note_on_c, 13, 67, 42
18, 127440, Note_on_c, 13, 58, 42
18, 127544, Note_on_c, 13, 67, 0
18, 127544, Note_on_c, 13, 58, 0
18, 127560, Note_on_c, 13, 65, 42
18, 127560, Note_on_c, 13, 57, 42
18, 127664, Note_on_c, 13, 65, 0
18, 127664, Note_on_c, 13, 57, 0
18, 127680, Note_on_c, 13, 58, 42
18, 127680, Note_on_c, 13, 67, 42
18, 127784, Note_on_c, 13, 58, 0
18, 127784, Note_on_c, 13, 67, 0
18, 127798, Program_c, 13, 45
18, 127800, Note_on_c, 13, 62, 33
18, 127919, Note_on_c, 13, 62, 0
18, 128160, Note_on_c, 13, 50, 32
18, 128279, Note_on_c, 13, 50, 0
18, 128520, Note_on_c, 13, 62, 31
18, 128639, Note_on_c, 13, 62, 0
18, 128760, Program_c, 13, 48
18, 128880, Note_on_c, 13, 55, 38
18, 128880, Note_on_c, 13, 64, 38
18, 128984, Note_on_c, 13, 55, 0
18, 128984, Note_on_c, 13, 64, 0
18, 129000, Note_on_c, 13, 62, 38
18, 129000, Note_on_c, 13, 53, 38
18, 129104, Note_on_c, 13, 62, 0
18, 129104, Note_on_c, 13, 53, 0
18, 129120, Note_on_c, 13, 52, 38
18, 129120, Note_on_c, 13, 61, 38
18, 129224, Note_on_c, 13, 52, 0
18, 129224, Note_on_c, 13, 61, 0
18, 129240, Note_on_c, 13, 52, 37
18, 129240, Note_on_c, 13, 61, 37
18, 129344, Note_on_c, 13, 52, 0
18, 129344, Note_on_c, 13, 61, 0
18, 129360, Note_on_c, 13, 62, 37
18, 129360, Note_on_c, 13, 53, 37
18, 129464, Note_on_c, 13, 62, 0
18, 129464, Note_on_c, 13, 53, 0
18, 129480, Note_on_c, 13, 55, 37
18, 129480, Note_on_c, 13, 64, 37
18, 129584, Note_on_c, 13, 55, 0
18, 129584, Note_on_c, 13, 64, 0
18, 129600, Note_on_c, 13, 64, 36
18, 129600, Note_on_c, 13, 55, 36
18, 129704, Note_on_c, 13, 64, 0
18, 129704, Note_on_c, 13, 55, 0
18, 129720, Note_on_c, 13, 53, 36
18, 129720, Note_on_c, 13, 62, 36
18, 129824, Note_on_c, 13, 53, 0
18, 129824, Note_on_c, 13, 62, 0
18, 129840, Note_on_c, 13, 55, 36
18, 129840, Note_on_c, 13, 64, 36
18, 129944, Note_on_c, 13, 55, 0
18, 129944, Note_on_c, 13, 64, 0
18, 129958, Program_c, 13, 45
18, 129960, Note_on_c, 13, 69, 30
18, 130079, Note_on_c, 13, 69, 0
18, 130320, Note_on_c, 13, 57, 30
18, 130439, Note_on_c, 13, 57, 0
18, 130680, Note_on_c, 13, 69, 29
18, 130799, Note_on_c, 13, 69, 0
18, 130920, Program_c, 13, 48
18, 131040, Note_on_c, 13, 64, 32
18, 131040, Note_on_c, 13, 55, 32
18, 131144, Note_on_c, 13, 64, 0
18, 131144, Note_on_c, 13, 55, 0
18, 131160, Note_on_c, 13, 53, 32
18, 131160, Note_on_c, 13, 62, 32
18, 131264, Note_on_c, 13, 53, 0
18, 131264, Note_on_c, 13, 62, 0
18, 131280, Note_on_c, 13, 61, 32
18, 131280, Note_on_c, 13, 52, 32
18, 131384, Note_on_c, 13, 61, 0
18, 131384, Note_on_c, 13, 52, 0
18, 131400, Note_on_c, 13, 61, 32
18, 131400, Note_on_c, 13, 52, 32
18, 131504, Note_on_c, 13, 61, 0
18, 131504, Note_on_c, 13, 52, 0
18, 131520, Note_on_c, 13, 53, 32
18, 131520, Note_on_c, 13, 62, 32
18, 131624, Note_on_c, 13, 53, 0
18, 131624, Note_on_c, 13, 62, 0
18, 131640, Note_on_c, 13, 64, 32
18, 131640, Note_on_c, 13, 55, 32
18, 131744, Note_on_c, 13, 64, 0
18, 131744, Note_on_c, 13, 55, 0
18, 131760, Note_on_c, 13, 55, 32
18, 131760, Note_on_c, 13, 64, 32
18, 131864, Note_on_c, 13, 55, 0
18, 131864, Note_on_c, 13, 64, 0
18, 131880, Note_on_c, 13, 53, 32
18, 131880, Note_on_c, 13, 62, 32
18, 131984, Note_on_c, 13, 53, 0
18, 131984, Note_on_c, 13, 62, 0
18, 132000, Note_on_c, 13, 55, 32
18, 132000, Note_on_c, 13, 64, 32
18, 132104, Note_on_c, 13, 55, 0
18, 132104, Note_on_c, 13, 64, 0
18, 132120, Note_on_c, 13, 58, 32
18, 132224, Note_on_c, 13, 58, 0
18, 132240, Note_on_c, 13, 57, 32
18, 132344, Note_on_c, 13, 57, 0
18, 132360, Note_on_c, 13, 55, 32
18, 132464, Note_on_c, 13, 55, 0
18, 132480, Note_on_c, 13, 53, 32
18, 132599, Note_on_c, 13, 53, 0
18, 132720, Program_c, 13, 45
18, 132840, Note_on_c, 13, 57, 28
18, 132959, Note_on_c, 13, 57, 0
18, 133560, Note_on_c, 13, 57, 28
18, 133679, Note_on_c, 13, 57, 0
18, 133920, Note_on_c, 13, 57, 28
18, 134039, Note_on_c, 13, 57, 0
18, 134640, Note_on_c, 13, 57, 28
18, 134759, Note_on_c, 13, 57, 0
18, 135000, Note_on_c, 13, 57, 28
18, 135119, Note_on_c, 13, 57, 0
18, 135720, Program_c, 13, 48
18, 136080, Note_on_c, 13, 69, 32
18, 136244, Note_on_c, 13, 69, 0
18, 136260, Note_on_c, 13, 57, 32
18, 136304, Note_on_c, 13, 57, 0
18, 136320, Note_on_c, 13, 57, 32
18, 136424, Note_on_c, 13, 57, 0
18, 136440, Note_on_c, 13, 62, 32
18, 136544, Note_on_c, 13, 62, 0
18, 136560, Note_on_c, 13, 64, 32
18, 136664, Note_on_c, 13, 64, 0
18, 136680, Note_on_c, 13, 65, 32
18, 136784, Note_on_c, 13, 65, 0
18, 136800, Note_on_c, 13, 62, 32
18, 136904, Note_on_c, 13, 62, 0
18, 136920, Note_on_c, 13, 63, 32
18, 137024, Note_on_c, 13, 63, 0
18, 137040, Note_on_c, 13, 65, 32
18, 137144, Note_on_c, 13, 65, 0
18, 137160, Note_on_c, 13, 63, 32
18, 137264, Note_on_c, 13, 63, 0
18, 137280, Note_on_c, 13, 62, 32
18, 137384, Note_on_c, 13, 62, 0
18, 137400, Note_on_c, 13, 60, 32
18, 137504, Note_on_c, 13, 60, 0
18, 137520, Note_on_c, 13, 62, 32
18, 137624, Note_on_c, 13, 62, 0
18, 137640, Note_on_c, 13, 60, 32
18, 137744, Note_on_c, 13, 60, 0
18, 137760, Note_on_c, 13, 59, 32
18, 137864, Note_on_c, 13, 59, 0
18, 137880, Note_on_c, 13, 60, 32
18, 137984, Note_on_c, 13, 60, 0
18, 138000, Note_on_c, 13, 65, 32
18, 138104, Note_on_c, 13, 65, 0
18, 138120, Note_on_c, 13, 67, 32
18, 138224, Note_on_c, 13, 67, 0
18, 138240, Note_on_c, 13, 65, 32
18, 138344, Note_on_c, 13, 65, 0
18, 138360, Note_on_c, 13, 67, 32
18, 138464, Note_on_c, 13, 67, 0
18, 138480, Note_on_c, 13, 68, 32
18, 138584, Note_on_c, 13, 68, 0
18, 138600, Note_on_c, 13, 67, 32
18, 138704, Note_on_c, 13, 67, 0
18, 138720, Note_on_c, 13, 65, 32
18, 138824, Note_on_c, 13, 65, 0
18, 138840, Note_on_c, 13, 63, 32
18, 138944, Note_on_c, 13, 63, 0
18, 138960, Note_on_c, 13, 70, 32
18, 139124, Note_on_c, 13, 70, 0
18, 139140, Note_on_c, 13, 58, 32
18, 139184, Note_on_c, 13, 58, 0
18, 139200, Note_on_c, 13, 58, 32
18, 139304, Note_on_c, 13, 58, 0
18, 139320, Note_on_c, 13, 63, 32
18, 139424, Note_on_c, 13, 63, 0
18, 139440, Note_on_c, 13, 65, 32
18, 139544, Note_on_c, 13, 65, 0
18, 139560, Note_on_c, 13, 67, 32
18, 139664, Note_on_c, 13, 67, 0
18, 139680, Note_on_c, 13, 65, 32
18, 139784, Note_on_c, 13, 65, 0
18, 139800, Note_on_c, 13, 63, 32
18, 139904, Note_on_c, 13, 63, 0
18, 139920, Note_on_c, 13, 62, 32
18, 140024, Note_on_c, 13, 62, 0
18, 140040, Note_on_c, 13, 58, 32
18, 140144, Note_on_c, 13, 58, 0
18, 140160, Note_on_c, 13, 62, 32
18, 140264, Note_on_c, 13, 62, 0
18, 140280, Note_on_c, 13, 63, 32
18, 140384, Note_on_c, 13, 63, 0
18, 140400, Note_on_c, 13, 65, 32
18, 141824, Note_on_c, 13, 65, 0
18, 141840, Note_on_c, 13, 51, 32
18, 141929, Note_on_c, 13, 51, 0
18, 141960, Note_on_c, 13, 53, 32
18, 142049, Note_on_c, 13, 53, 0
18, 142080, Note_on_c, 13, 55, 32
18, 142169, Note_on_c, 13, 55, 0
18, 142200, Note_on_c, 13, 55, 32
18, 142289, Note_on_c, 13, 55, 0
18, 142320, Note_on_c, 13, 56, 32
18, 142409, Note_on_c, 13, 56, 0
18, 142440, Note_on_c, 13, 58, 32
18, 142529, Note_on_c, 13, 58, 0
18, 142560, Note_on_c, 13, 63, 32
18, 142649, Note_on_c, 13, 63, 0
18, 142680, Note_on_c, 13, 65, 32
18, 142769, Note_on_c, 13, 65, 0
18, 142800, Note_on_c, 13, 67, 32
18, 142889, Note_on_c, 13, 67, 0
18, 142920, Note_on_c, 13, 67, 32
18, 143009, Note_on_c, 13, 67, 0
18, 143040, Note_on_c, 13, 68, 32
18, 143129, Note_on_c, 13, 68, 0
18, 143160, Note_on_c, 13, 70, 32
18, 143249, Note_on_c, 13, 70, 0
18, 143278, Control_c, 13, 11, 47
18, 143280, Control_c, 13, 11, 47
18, 143280, Note_on_c, 13, 74, 80
18, 143352, Control_c, 13, 11, 48
18, 143424, Control_c, 13, 11, 49
18, 143496, Control_c, 13, 11, 50
18, 143568, Control_c, 13, 11, 51
18, 143640, Control_c, 13, 11, 52
18, 143712, Control_c, 13, 11, 53
18, 143784, Control_c, 13, 11, 54
18, 143856, Control_c, 13, 11, 55
18, 143928, Control_c, 13, 11, 56
18, 144000, Control_c, 13, 11, 57
18, 144072, Control_c, 13, 11, 58
18, 144144, Control_c, 13, 11, 59
18, 144216, Control_c, 13, 11, 60
18, 144288, Control_c, 13, 11, 61
18, 144360, Control_c, 13, 11, 62
18, 144432, Control_c, 13, 11, 63
18, 144504, Control_c, 13, 11, 64
18, 144576, Control_c, 13, 11, 65
18, 144648, Control_c, 13, 11, 66
18, 144704, Note_on_c, 13, 74, 0
18, 144720, Control_c, 13, 11, 67
18, 144720, Note_on_c, 13, 74, 80
18, 144750, Control_c, 13, 11, 68
18, 144780, Control_c, 13, 11, 70
18, 144810, Control_c, 13, 11, 71
18, 144840, Control_c, 13, 11, 72
18, 144870, Control_c, 13, 11, 73
18, 144900, Control_c, 13, 11, 75
18, 144930, Control_c, 13, 11, 76
18, 144960, Control_c, 13, 11, 77
18, 144990, Control_c, 13, 11, 78
18, 145020, Control_c, 13, 11, 80
18, 145050, Control_c, 13, 11, 81
18, 145080, Control_c, 13, 11, 82
18, 145110, Control_c, 13, 11, 83
18, 145140, Control_c, 13, 11, 85
18, 145170, Control_c, 13, 11, 86
18, 145200, Control_c, 13, 11, 87
18, 145230, Control_c, 13, 11, 88
18, 145260, Control_c, 13, 11, 90
18, 145290, Control_c, 13, 11, 91
18, 145320, Control_c, 13, 11, 92
18, 145350, Control_c, 13, 11, 93
18, 145380, Control_c, 13, 11, 95
18, 145410, Control_c, 13, 11, 96
18, 145440, Control_c, 13, 11, 97
18, 145470, Control_c, 13, 11, 98
18, 145500, Control_c, 13, 11, 100
18, 145530, Control_c, 13, 11, 101
18, 145560, Control_c, 13, 11, 102
18, 145590, Control_c, 13, 11, 103
18, 145620, Control_c, 13, 11, 105
18, 145650, Control_c, 13, 11, 106
18, 145680, Control_c, 13, 11, 107
18, 145710, Control_c, 13, 11, 108
18, 145740, Control_c, 13, 11, 110
18, 145770, Control_c, 13, 11, 111
18, 145800, Control_c, 13, 11, 112
18, 145830, Control_c, 13, 11, 113
18, 145860, Control_c, 13, 11, 115
18, 145890, Control_c, 13, 11, 116
18, 145920, Control_c, 13, 11, 117
18, 145950, Control_c, 13, 11, 118
18, 145980, Control_c, 13, 11, 120
18, 146010, Control_c, 13, 11, 121
18, 146040, Control_c, 13, 11, 122
18, 146070, Control_c, 13, 11, 123
18, 146100, Control_c, 13, 11, 125
18, 146130, Control_c, 13, 11, 127
18, 146144, Note_on_c, 13, 74, 0
18, 146160, Note_on_c, 13, 57, 80
18, 146160, Note_on_c, 13, 65, 80
18, 146160, Note_on_c, 13, 74, 80
18, 146279, Note_on_c, 13, 57, 0
18, 146279, Note_on_c, 13, 65, 0
18, 146279, Note_on_c, 13, 74, 0
18, 146880, Note_on_c, 13, 62, 86
18, 146880, Note_on_c, 13, 65, 86
18, 146999, Note_on_c, 13, 62, 0
18, 146999, Note_on_c, 13, 65, 0
18, 147600, Note_on_c, 13, 57, 92
18, 147600, Note_on_c, 13, 74, 92
18, 147600, Note_on_c, 13, 65, 92
18, 147764, Note_on_c, 13, 57, 0
18, 147764, Note_on_c, 13, 74, 0
18, 147764, Note_on_c, 13, 65, 0
18, 147780, Note_on_c, 13, 69, 92
18, 147780, Note_on_c, 13, 65, 92
18, 147824, Note_on_c, 13, 69, 0
18, 147824, Note_on_c, 13, 65, 0
18, 147840, Note_on_c, 13, 69, 92
18, 147840, Note_on_c, 13, 65, 92
18, 147944, Note_on_c, 13, 69, 0
18, 147944, Note_on_c, 13, 65, 0
18, 147960, Note_on_c, 13, 57, 92
18, 147960, Note_on_c, 13, 65, 92
18, 147960, Note_on_c, 13, 74, 92
18, 148124, Note_on_c, 13, 57, 0
18, 148124, Note_on_c, 13, 65, 0
18, 148124, Note_on_c, 13, 74, 0
18, 148140, Note_on_c, 13, 65, 92
18, 148140, Note_on_c, 13, 69, 92
18, 148184, Note_on_c, 13, 65, 0
18, 148184, Note_on_c, 13, 69, 0
18, 148200, Note_on_c, 13, 65, 92
18, 148200, Note_on_c, 13, 69, 92
18, 148304, Note_on_c, 13, 65, 0
18, 148304, Note_on_c, 13, 69, 0
18, 148320, Note_on_c, 13, 74, 92
18, 148320, Note_on_c, 13, 65, 92
18, 148320, Note_on_c, 13, 57, 92
18, 148484, Note_on_c, 13, 74, 0
18, 148484, Note_on_c, 13, 65, 0
18, 148484, Note_on_c, 13, 57, 0
18, 148500, Note_on_c, 13, 65, 92
18, 148500, Note_on_c, 13, 69, 92
18, 148544, Note_on_c, 13, 65, 0
18, 148544, Note_on_c, 13, 69, 0
18, 148560, Note_on_c, 13, 69, 92
18, 148560, Note_on_c, 13, 65, 92
18, 148664, Note_on_c, 13, 69, 0
18, 148664, Note_on_c, 13, 65, 0
18, 148680, Note_on_c, 13, 74, 92
18, 148680, Note_on_c, 13, 57, 92
18, 148680, Note_on_c, 13, 65, 92
18, 148844, Note_on_c, 13, 74, 0
18, 148844, Note_on_c, 13, 57, 0
18, 148844, Note_on_c, 13, 65, 0
18, 148860, Note_on_c, 13, 65, 92
18, 148860, Note_on_c, 13, 69, 92
18, 148904, Note_on_c, 13, 65, 0
18, 148904, Note_on_c, 13, 69, 0
18, 148920, Note_on_c, 13, 65, 92
18, 148920, Note_on_c, 13, 69, 92
18, 149024, Note_on_c, 13, 65, 0
18, 149024, Note_on_c, 13, 69, 0
18, 149040, Note_on_c, 13, 69, 92
18, 149040, Note_on_c, 13, 57, 92
18, 149204, Note_on_c, 13, 69, 0
18, 149204, Note_on_c, 13, 57, 0
18, 149220, Note_on_c, 13, 57, 92
18, 149264, Note_on_c, 13, 57, 0
18, 149280, Note_on_c, 13, 57, 92
18, 149384, Note_on_c, 13, 57, 0
18, 149400, Note_on_c, 13, 62, 92
18, 149489, Note_on_c, 13, 62, 0
18, 149520, Note_on_c, 13, 64, 92
18, 149609, Note_on_c, 13, 64, 0
18, 149640, Note_on_c, 13, 65, 92
18, 149729, Note_on_c, 13, 65, 0
18, 149760, Note_on_c, 13, 64, 92
18, 149849, Note_on_c, 13, 64, 0
18, 149880, Note_on_c, 13, 65, 92
18, 149969, Note_on_c, 13, 65, 0
18, 150000, Note_on_c, 13, 67, 92
18, 150089, Note_on_c, 13, 67, 0
18, 150120, Note_on_c, 13, 65, 92
18, 150209, Note_on_c, 13, 65, 0
18, 150240, Note_on_c, 13, 64, 92
18, 150329, Note_on_c, 13, 64, 0
18, 150360, Note_on_c, 13, 62, 92
18, 150449, Note_on_c, 13, 62, 0
18, 150480, Note_on_c, 13, 58, 92
18, 150569, Note_on_c, 13, 58, 0
18, 150600, Note_on_c, 13, 57, 92
18, 150689, Note_on_c, 13, 57, 0
18, 150720, Note_on_c, 13, 55, 92
18, 150809, Note_on_c, 13, 55, 0
18, 150840, Note_on_c, 13, 53, 92
18, 150929, Note_on_c, 13, 53, 0
18, 150960, Note_on_c, 13, 64, 92
18, 151049, Note_on_c, 13, 64, 0
18, 151080, Note_on_c, 13, 62, 92
18, 151169, Note_on_c, 13, 62, 0
18, 151200, Note_on_c, 13, 61, 92
18, 151289, Note_on_c, 13, 61, 0
18, 151320, Note_on_c, 13, 62, 92
18, 151409, Note_on_c, 13, 62, 0
18, 151440, Note_on_c, 13, 64, 92
18, 151529, Note_on_c, 13, 64, 0
18, 151560, Note_on_c, 13, 62, 92
18, 151649, Note_on_c, 13, 62, 0
18, 151680, Note_on_c, 13, 61, 92
18, 151769, Note_on_c, 13, 61, 0
18, 151800, Note_on_c, 13, 62, 92
18, 151889, Note_on_c, 13, 62, 0
18, 151920, Note_on_c, 13, 58, 92
18, 152009, Note_on_c, 13, 58, 0
18, 152040, Note_on_c, 13, 57, 92
18, 152129, Note_on_c, 13, 57, 0
18, 152160, Note_on_c, 13, 55, 92
18, 152249, Note_on_c, 13, 55, 0
18, 152280, Note_on_c, 13, 53, 92
18, 152369, Note_on_c, 13, 53, 0
18, 152400, Note_on_c, 13, 64, 92
18, 152489, Note_on_c, 13, 64, 0
18, 152520, Note_on_c, 13, 62, 92
18, 152609, Note_on_c, 13, 62, 0
18, 152640, Note_on_c, 13, 61, 92
18, 152729, Note_on_c, 13, 61, 0
18, 152760, Note_on_c, 13, 62, 92
18, 152849, Note_on_c, 13, 62, 0
18, 152880, Note_on_c, 13, 64, 92
18, 152969, Note_on_c, 13, 64, 0
18, 153000, Note_on_c, 13, 62, 92
18, 153089, Note_on_c, 13, 62, 0
18, 153120, Note_on_c, 13, 61, 92
18, 153209, Note_on_c, 13, 61, 0
18, 153240, Note_on_c, 13, 62, 92
18, 153329, Note_on_c, 13, 62, 0
18, 153360, Note_on_c, 13, 60, 92
18, 153449, Note_on_c, 13, 60, 0
18, 153480, Note_on_c, 13, 62, 92
18, 153569, Note_on_c, 13, 62, 0
18, 153600, Note_on_c, 13, 63, 92
18, 153689, Note_on_c, 13, 63, 0
18, 153720, Note_on_c, 13, 55, 92
18, 153809, Note_on_c, 13, 55, 0
18, 153840, Note_on_c, 13, 57, 92
18, 153929, Note_on_c, 13, 57, 0
18, 153960, Note_on_c, 13, 58, 92
18, 154049, Note_on_c, 13, 58, 0
18, 154080, Note_on_c, 13, 57, 92
18, 154169, Note_on_c, 13, 57, 0
18, 154200, Note_on_c, 13, 58, 92
18, 154289, Note_on_c, 13, 58, 0
18, 154320, Note_on_c, 13, 60, 92
18, 154409, Note_on_c, 13, 60, 0
18, 154440, Note_on_c, 13, 58, 92
18, 154529, Note_on_c, 13, 58, 0
18, 154560, Note_on_c, 13, 57, 92
18, 154649, Note_on_c, 13, 57, 0
18, 154680, Note_on_c, 13, 55, 92
18, 154769, Note_on_c, 13, 55, 0
18, 154800, Note_on_c, 13, 63, 80
18, 154889, Note_on_c, 13, 63, 0
18, 154920, Note_on_c, 13, 62, 80
18, 155009, Note_on_c, 13, 62, 0
18, 155040, Note_on_c, 13, 60, 80
18, 155129, Note_on_c, 13, 60, 0
18, 155160, Note_on_c, 13, 58, 80
18, 155249, Note_on_c, 13, 58, 0
18, 155280, Note_on_c, 13, 57, 80
18, 155369, Note_on_c, 13, 57, 0
18, 155400, Note_on_c, 13, 55, 80
18, 155489, Note_on_c, 13, 55, 0
18, 155520, Note_on_c, 13, 65, 80
18, 155609, Note_on_c, 13, 65, 0
18, 155640, Note_on_c, 13, 63, 80
18, 155729, Note_on_c, 13, 63, 0
18, 155760, Note_on_c, 13, 62, 80
18, 155849, Note_on_c, 13, 62, 0
18, 155880, Note_on_c, 13, 60, 80
18, 155969, Note_on_c, 13, 60, 0
18, 156000, Note_on_c, 13, 58, 80
18, 156089, Note_on_c, 13, 58, 0
18, 156120, Note_on_c, 13, 57, 80
18, 156209, Note_on_c, 13, 57, 0
18, 156240, Note_on_c, 13, 67, 80
18, 156329, Note_on_c, 13, 67, 0
18, 156360, Note_on_c, 13, 65, 80
18, 156449, Note_on_c, 13, 65, 0
18, 156480, Note_on_c, 13, 63, 80
18, 156569, Note_on_c, 13, 63, 0
18, 156600, Note_on_c, 13, 62, 80
18, 156689, Note_on_c, 13, 62, 0
18, 156720, Note_on_c, 13, 60, 80
18, 156809, Note_on_c, 13, 60, 0
18, 156840, Note_on_c, 13, 58, 80
18, 156929, Note_on_c, 13, 58, 0
18, 156960, Note_on_c, 13, 57, 80
18, 157049, Note_on_c, 13, 57, 0
18, 157080, Note_on_c, 13, 55, 80
18, 157169, Note_on_c, 13, 55, 0
18, 157200, Note_on_c, 13, 53, 80
18, 157289, Note_on_c, 13, 53, 0
18, 157320, Note_on_c, 13, 63, 80
18, 157409, Note_on_c, 13, 63, 0
18, 157440, Note_on_c, 13, 62, 80
18, 157529, Note_on_c, 13, 62, 0
18, 157560, Note_on_c, 13, 60, 80
18, 157649, Note_on_c, 13, 60, 0
18, 157680, Note_on_c, 13, 58, 80
18, 157769, Note_on_c, 13, 58, 0
18, 158760, Note_on_c, 13, 72, 52
18, 158924, Note_on_c, 13, 72, 0
18, 158940, Note_on_c, 13, 60, 56
18, 158984, Note_on_c, 13, 60, 0
18, 159000, Note_on_c, 13, 60, 57
18, 159104, Note_on_c, 13, 60, 0
18, 159120, Note_on_c, 13, 72, 60
18, 159284, Note_on_c, 13, 72, 0
18, 159300, Note_on_c, 13, 60, 64
18, 159344, Note_on_c, 13, 60, 0
18, 159360, Note_on_c, 13, 60, 65
18, 159464, Note_on_c, 13, 60, 0
18, 159480, Note_on_c, 13, 74, 68
18, 159644, Note_on_c, 13, 74, 0
18, 159660, Note_on_c, 13, 62, 64
18, 159704, Note_on_c, 13, 62, 0
18, 159720, Note_on_c, 13, 62, 63
18, 159824, Note_on_c, 13, 62, 0
18, 159840, Note_on_c, 13, 73, 60
18, 160004, Note_on_c, 13, 73, 0
18, 160020, Note_on_c, 13, 61, 56
18, 160064, Note_on_c, 13, 61, 0
18, 160080, Note_on_c, 13, 61, 55
18, 160184, Note_on_c, 13, 61, 0
18, 160200, Note_on_c, 13, 72, 52
18, 160364, Note_on_c, 13, 72, 0
18, 160380, Note_on_c, 13, 60, 48
18, 160424, Note_on_c, 13, 60, 0
18, 160440, Note_on_c, 13, 60, 47
18, 160544, Note_on_c, 13, 60, 0
18, 162360, Note_on_c, 13, 71, 56
18, 162524, Note_on_c, 13, 71, 0
18, 162540, Note_on_c, 13, 59, 59
18, 162584, Note_on_c, 13, 59, 0
18, 162600, Note_on_c, 13, 59, 60
18, 162704, Note_on_c, 13, 59, 0
18, 162720, Note_on_c, 13, 70, 62
18, 162884, Note_on_c, 13, 70, 0
18, 162900, Note_on_c, 13, 58, 65
18, 162944, Note_on_c, 13, 58, 0
18, 162960, Note_on_c, 13, 58, 66
18, 163064, Note_on_c, 13, 58, 0
18, 163080, Note_on_c, 13, 69, 68
18, 163244, Note_on_c, 13, 69, 0
18, 163260, Note_on_c, 13, 57, 64
18, 163304, Note_on_c, 13, 57, 0
18, 163320, Note_on_c, 13, 57, 63
18, 163424, Note_on_c, 13, 57, 0
18, 163440, Note_on_c, 13, 69, 60
18, 163604, Note_on_c, 13, 69, 0
18, 163620, Note_on_c, 13, 57, 56
18, 163664, Note_on_c, 13, 57, 0
18, 163680, Note_on_c, 13, 57, 55
18, 163784, Note_on_c, 13, 57, 0
18, 163800, Note_on_c, 13, 69, 52
18, 163964, Note_on_c, 13, 69, 0
18, 163980, Note_on_c, 13, 57, 48
18, 164024, Note_on_c, 13, 57, 0
18, 164040, Note_on_c, 13, 57, 47
18, 164144, Note_on_c, 13, 57, 0
18, 164520, Note_on_c, 13, 69, 44
18, 164684, Note_on_c, 13, 69, 0
18, 164700, Note_on_c, 13, 57, 47
18, 164744, Note_on_c, 13, 57, 0
18, 164760, Note_on_c, 13, 57, 48
18, 164864, Note_on_c, 13, 57, 0
18, 164880, Note_on_c, 13, 69, 50
18, 165044, Note_on_c, 13, 69, 0
18, 165060, Note_on_c, 13, 57, 53
18, 165104, Note_on_c, 13, 57, 0
18, 165120, Note_on_c, 13, 57, 54
18, 165224, Note_on_c, 13, 57, 0
18, 165240, Note_on_c, 13, 67, 56
18, 165404, Note_on_c, 13, 67, 0
18, 165420, Note_on_c, 13, 55, 59
18, 165464, Note_on_c, 13, 55, 0
18, 165480, Note_on_c, 13, 55, 60
18, 165584, Note_on_c, 13, 55, 0
18, 165600, Note_on_c, 13, 67, 62
18, 165764, Note_on_c, 13, 67, 0
18, 165780, Note_on_c, 13, 55, 65
18, 165824, Note_on_c, 13, 55, 0
18, 165840, Note_on_c, 13, 55, 66
18, 165944, Note_on_c, 13, 55, 0
18, 165960, Note_on_c, 13, 66, 68
18, 166124, Note_on_c, 13, 66, 0
18, 166140, Note_on_c, 13, 54, 64
18, 166184, Note_on_c, 13, 54, 0
18, 166200, Note_on_c, 13, 54, 63
18, 166304, Note_on_c, 13, 54, 0
18, 166320, Note_on_c, 13, 65, 60
18, 166484, Note_on_c, 13, 65, 0
18, 166500, Note_on_c, 13, 53, 56
18, 166544, Note_on_c, 13, 53, 0
18, 166560, Note_on_c, 13, 53, 55
18, 166664, Note_on_c, 13, 53, 0
18, 166680, Note_on_c, 13, 64, 52
18, 166844, Note_on_c, 13, 64, 0
18, 166860, Note_on_c, 13, 52, 48
18, 166904, Note_on_c, 13, 52, 0
18, 166920, Note_on_c, 13, 52, 47
18, 167024, Note_on_c, 13, 52, 0
18, 167040, Program_c, 13, 45
18, 167280, Note_on_c, 13, 69, 40
18, 167399, Note_on_c, 13, 69, 0
18, 167640, Note_on_c, 13, 69, 46
18, 167759, Note_on_c, 13, 69, 0
18, 168000, Note_on_c, 13, 71, 52
18, 168119, Note_on_c, 13, 71, 0
18, 168360, Note_on_c, 13, 64, 58
18, 168479, Note_on_c, 13, 64, 0
18, 168720, Note_on_c, 13, 64, 64
18, 168839, Note_on_c, 13, 64, 0
18, 169080, Note_on_c, 13, 62, 70
18, 169199, Note_on_c, 13, 62, 0
18, 169440, Note_on_c, 13, 62, 76
18, 169559, Note_on_c, 13, 62, 0
18, 169800, Note_on_c, 13, 67, 82
18, 169904, Note_on_c, 13, 67, 0
18, 169918, Program_c, 13, 48
18, 169920, Note_on_c, 13, 62, 92
18, 170084, Note_on_c, 13, 62, 0
18, 170100, Note_on_c, 13, 50, 92
18, 170144, Note_on_c, 13, 50, 0
18, 170160, Note_on_c, 13, 50, 92
18, 170264, Note_on_c, 13, 50, 0
18, 170280, Note_on_c, 13, 62, 92
18, 170444, Note_on_c, 13, 62, 0
18, 170460, Note_on_c, 13, 50, 92
18, 170504, Note_on_c, 13, 50, 0
18, 170520, Note_on_c, 13, 50, 92
18, 170624, Note_on_c, 13, 50, 0
18, 170640, Note_on_c, 13, 62, 92
18, 170804, Note_on_c, 13, 62, 0
18, 170820, Note_on_c, 13, 50, 92
18, 170864, Note_on_c, 13, 50, 0
18, 170880, Note_on_c, 13, 50, 92
18, 170984, Note_on_c, 13, 50, 0
18, 171000, Note_on_c, 13, 62, 92
18, 171164, Note_on_c, 13, 62, 0
18, 171180, Note_on_c, 13, 50, 92
18, 171224, Note_on_c, 13, 50, 0
18, 171240, Note_on_c, 13, 50, 92
18, 171344, Note_on_c, 13, 50, 0
18, 171360, Note_on_c, 13, 62, 92
18, 171524, Note_on_c, 13, 62, 0
18, 171540, Note_on_c, 13, 50, 92
18, 171584, Note_on_c, 13, 50, 0
18, 171600, Note_on_c, 13, 50, 92
18, 171704, Note_on_c, 13, 50, 0
18, 171720, Note_on_c, 13, 62, 92
18, 171884, Note_on_c, 13, 62, 0
18, 171900, Note_on_c, 13, 50, 92
18, 171944, Note_on_c, 13, 50, 0
18, 171960, Note_on_c, 13, 50, 92
18, 172064, Note_on_c, 13, 50, 0
18, 172080, Note_on_c, 13, 62, 92
18, 172244, Note_on_c, 13, 62, 0
18, 172260, Note_on_c, 13, 50, 92
18, 172304, Note_on_c, 13, 50, 0
18, 172320, Note_on_c, 13, 50, 92
18, 172424, Note_on_c, 13, 50, 0
18, 172440, Note_on_c, 13, 62, 92
18, 172604, Note_on_c, 13, 62, 0
18, 172620, Note_on_c, 13, 50, 92
18, 172664, Note_on_c, 13, 50, 0
18, 172680, Note_on_c, 13, 50, 92
18, 172784, Note_on_c, 13, 50, 0
18, 172800, Note_on_c, 13, 62, 92
18, 172964, Note_on_c, 13, 62, 0
18, 172980, Note_on_c, 13, 50, 92
18, 173024, Note_on_c, 13, 50, 0
18, 173040, Note_on_c, 13, 50, 92
18, 173144, Note_on_c, 13, 50, 0
18, 173160, Note_on_c, 13, 62, 92
18, 173324, Note_on_c, 13, 62, 0
18, 173340, Note_on_c, 13, 50, 92
18, 173384, Note_on_c, 13, 50, 0
18, 173400, Note_on_c, 13, 50, 92
18, 173504, Note_on_c, 13, 50, 0
18, 173520, Note_on_c, 13, 62, 92
18, 173684, Note_on_c, 13, 62, 0
18, 173700, Note_on_c, 13, 50, 92
18, 173744, Note_on_c, 13, 50, 0
18, 173760, Note_on_c, 13, 50, 92
18, 173864, Note_on_c, 13, 50, 0
18, 173880, Note_on_c, 13, 62, 92
18, 174044, Note_on_c, 13, 62, 0
18, 174060, Note_on_c, 13, 50, 92
18, 174104, Note_on_c, 13, 50, 0
18, 174120, Note_on_c, 13, 50, 92
18, 174224, Note_on_c, 13, 50, 0
18, 174240, Note_on_c, 13, 62, 92
18, 174404, Note_on_c, 13, 62, 0
18, 174420, Note_on_c, 13, 50, 92
18, 174464, Note_on_c, 13, 50, 0
18, 174480, Note_on_c, 13, 50, 92
18, 174584, Note_on_c, 13, 50, 0
18, 174600, Note_on_c, 13, 62, 92
18, 174764, Note_on_c, 13, 62, 0
18, 174780, Note_on_c, 13, 50, 92
18, 174824, Note_on_c, 13, 50, 0
18, 174840, Note_on_c, 13, 50, 92
18, 174944, Note_on_c, 13, 50, 0
18, 174960, Note_on_c, 13, 62, 92
18, 175124, Note_on_c, 13, 62, 0
18, 175140, Note_on_c, 13, 50, 92
18, 175184, Note_on_c, 13, 50, 0
18, 175200, Note_on_c, 13, 50, 92
18, 175304, Note_on_c, 13, 50, 0
18, 175320, Note_on_c, 13, 62, 92
18, 175484, Note_on_c, 13, 62, 0
18, 175500, Note_on_c, 13, 50, 92
18, 175544, Note_on_c, 13, 50, 0
18, 175560, Note_on_c, 13, 50, 92
18, 175664, Note_on_c, 13, 50, 0
18, 175680, Note_on_c, 13, 62, 92
18, 175799, Note_on_c, 13, 62, 0
18, 176400, Note_on_c, 13, 67, 92
18, 176564, Note_on_c, 13, 67, 0
18, 176580, Note_on_c, 13, 55, 92
18, 176624, Note_on_c, 13, 55, 0
18, 176640, Note_on_c, 13, 55, 92
18, 176744, Note_on_c, 13, 55, 0
18, 176760, Note_on_c, 13, 55, 92
18, 176864, Note_on_c, 13, 55, 0
18, 176880, Note_on_c, 13, 52, 92
18, 176984, Note_on_c, 13, 52, 0
18, 177000, Note_on_c, 13, 50, 92
18, 177104, Note_on_c, 13, 50, 0
18, 177120, Note_on_c, 13, 48, 92
18, 177120, Note_on_c, 13, 60, 92
18, 177239, Note_on_c, 13, 48, 0
18, 177239, Note_on_c, 13, 60, 0
18, 177840, Note_on_c, 13, 65, 92
18, 178004, Note_on_c, 13, 65, 0
18, 178020, Note_on_c, 13, 53, 92
18, 178064, Note_on_c, 13, 53, 0
18, 178080, Note_on_c, 13, 53, 92
18, 178184, Note_on_c, 13, 53, 0
18, 178200, Note_on_c, 13, 53, 92
18, 178304, Note_on_c, 13, 53, 0
18, 178320, Note_on_c, 13, 50, 92
18, 178424, Note_on_c, 13, 50, 0
18, 178440, Note_on_c, 13, 48, 92
18, 178544, Note_on_c, 13, 48, 0
18, 178558, Control_c, 13, 11, 87
18, 178560, Note_on_c, 13, 50, 68
18, 178679, Note_on_c, 13, 50, 0
18, 178680, Note_on_c, 13, 52, 68
18, 178799, Note_on_c, 13, 52, 0
18, 178800, Note_on_c, 13, 54, 68
18, 178919, Note_on_c, 13, 54, 0
18, 178920, Note_on_c, 13, 55, 68
18, 179280, Control_c, 13, 11, 87
18, 179315, Control_c, 13, 11, 89
18, 179350, Control_c, 13, 11, 90
18, 179385, Control_c, 13, 11, 92
18, 179399, Note_on_c, 13, 55, 0
18, 179400, Note_on_c, 13, 53, 68
18, 179420, Control_c, 13, 11, 94
18, 179455, Control_c, 13, 11, 95
18, 179490, Control_c, 13, 11, 97
18, 179519, Note_on_c, 13, 53, 0
18, 179520, Note_on_c, 13, 51, 68
18, 179525, Control_c, 13, 11, 99
18, 179560, Control_c, 13, 11, 100
18, 179595, Control_c, 13, 11, 102
18, 179624, Note_on_c, 13, 51, 0
18, 179630, Control_c, 13, 11, 104
18, 179640, Note_on_c, 13, 67, 68
18, 179665, Control_c, 13, 11, 105
18, 179700, Control_c, 13, 11, 107
18, 179735, Control_c, 13, 11, 109
18, 179759, Note_on_c, 13, 67, 0
18, 179760, Note_on_c, 13, 65, 68
18, 179770, Control_c, 13, 11, 110
18, 179805, Control_c, 13, 11, 112
18, 179840, Control_c, 13, 11, 114
18, 179875, Control_c, 13, 11, 115
18, 179879, Note_on_c, 13, 65, 0
18, 179880, Note_on_c, 13, 63, 68
18, 179910, Control_c, 13, 11, 117
18, 179945, Control_c, 13, 11, 119
18, 179980, Control_c, 13, 11, 120
18, 179984, Note_on_c, 13, 63, 0
18, 180000, Note_on_c, 13, 70, 68
18, 180015, Control_c, 13, 11, 122
18, 180050, Control_c, 13, 11, 124
18, 180085, Control_c, 13, 11, 125
18, 180119, Note_on_c, 13, 70, 0
18, 180120, Note_on_c, 13, 69, 68
18, 180239, Note_on_c, 13, 69, 0
18, 180240, Control_c, 13, 11, 127
18, 180240, Note_on_c, 13, 70, 68
18, 180267, Control_c, 13, 11, 125
18, 180293, Control_c, 13, 11, 123
18, 180320, Control_c, 13, 11, 120
18, 180347, Control_c, 13, 11, 118
18, 180373, Control_c, 13, 11, 116
18, 180400, Control_c, 13, 11, 114
18, 180427, Control_c, 13, 11, 111
18, 180453, Control_c, 13, 11, 109
18, 180479, Note_on_c, 13, 70, 0
18, 180480, Note_on_c, 13, 69, 68
18, 180480, Control_c, 13, 11, 107
18, 180507, Control_c, 13, 11, 105
18, 180533, Control_c, 13, 11, 103
18, 180560, Control_c, 13, 11, 100
18, 180587, Control_c, 13, 11, 98
18, 180599, Note_on_c, 13, 69, 0
18, 180600, Note_on_c, 13, 67, 68
18, 180613, Control_c, 13, 11, 96
18, 180640, Control_c, 13, 11, 94
18, 180667, Control_c, 13, 11, 91
18, 180693, Control_c, 13, 11, 89
18, 180719, Note_on_c, 13, 67, 0
18, 182520, Control_c, 13, 11, 127
18, 182880, Note_on_c, 13, 69, 80
18, 182969, Note_on_c, 13, 69, 0
18, 183000, Note_on_c, 13, 70, 80
18, 183089, Note_on_c, 13, 70, 0
18, 183120, Note_on_c, 13, 70, 80
18, 183209, Note_on_c, 13, 70, 0
18, 183240, Note_on_c, 13, 71, 80
18, 183329, Note_on_c, 13, 71, 0
18, 183360, Note_on_c, 13, 69, 80
18, 183449, Note_on_c, 13, 69, 0
18, 183480, Note_on_c, 13, 74, 80
18, 183480, Note_on_c, 13, 62, 80
18, 183569, Note_on_c, 13, 74, 0
18, 183569, Note_on_c, 13, 62, 0
18, 183600, Note_on_c, 13, 74, 80
18, 183600, Note_on_c, 13, 62, 80
18, 183689, Note_on_c, 13, 74, 0
18, 183689, Note_on_c, 13, 62, 0
18, 184320, Note_on_c, 13, 65, 80
18, 184409, Note_on_c, 13, 65, 0
18, 184440, Note_on_c, 13, 62, 80
18, 184529, Note_on_c, 13, 62, 0
18, 184560, Note_on_c, 13, 67, 80
18, 184649, Note_on_c, 13, 67, 0
18, 184680, Note_on_c, 13, 64, 80
18, 184769, Note_on_c, 13, 64, 0
18, 184800, Note_on_c, 13, 61, 80
18, 184889, Note_on_c, 13, 61, 0
18, 184920, Note_on_c, 13, 65, 80
18, 185009, Note_on_c, 13, 65, 0
18, 185040, Note_on_c, 13, 74, 80
18, 185040, Note_on_c, 13, 62, 80
18, 185159, Note_on_c, 13, 74, 0
18, 185159, Note_on_c, 13, 62, 0
18, 185400, Note_on_c, 13, 69, 80
18, 185564, Note_on_c, 13, 69, 0
18, 185580, Note_on_c, 13, 57, 80
18, 185624, Note_on_c, 13, 57, 0
18, 185640, Note_on_c, 13, 57, 80
18, 185744, Note_on_c, 13, 57, 0
18, 185760, Note_on_c, 13, 50, 80
18, 185879, Note_on_c, 13, 50, 0
18, 186120, Note_on_c, 13, 69, 80
18, 186284, Note_on_c, 13, 69, 0
18, 186300, Note_on_c, 13, 57, 80
18, 186344, Note_on_c, 13, 57, 0
18, 186360, Note_on_c, 13, 57, 80
18, 186464, Note_on_c, 13, 57, 0
18, 186480, Note_on_c, 13, 67, 32
18, 186599, Note_on_c, 13, 67, 0
18, 186600, Note_on_c, 13, 64, 32
18, 186719, Note_on_c, 13, 64, 0
18, 186720, Note_on_c, 13, 61, 32
18, 186839, Note_on_c, 13, 61, 0
18, 186840, Note_on_c, 13, 55, 32
18, 186959, Note_on_c, 13, 55, 0
18, 186960, Note_on_c, 13, 52, 32
18, 187079, Note_on_c, 13, 52, 0
18, 187080, Note_on_c, 13, 49, 32
18, 187199, Note_on_c, 13, 49, 0
18, 187200, Note_on_c, 13, 52, 32
18, 187319, Note_on_c, 13, 52, 0
18, 187320, Note_on_c, 13, 55, 32
18, 187439, Note_on_c, 13, 55, 0
18, 187440, Note_on_c, 13, 61, 32
18, 187679, Note_on_c, 13, 61, 0
18, 187680, Note_on_c, 13, 64, 32
18, 187799, Note_on_c, 13, 64, 0
18, 187800, Note_on_c, 13, 67, 32
18, 187904, Note_on_c, 13, 67, 0
18, 187920, Note_on_c, 13, 65, 32
18, 188084, Note_on_c, 13, 65, 0
18, 188100, Note_on_c, 13, 53, 32
18, 188144, Note_on_c, 13, 53, 0
18, 188160, Note_on_c, 13, 53, 32
18, 188264, Note_on_c, 13, 53, 0
18, 188280, Note_on_c, 13, 53, 32
18, 188399, Note_on_c, 13, 53, 0
18, 188640, Note_on_c, 13, 65, 32
18, 188804, Note_on_c, 13, 65, 0
18, 188820, Note_on_c, 13, 53, 32
18, 188864, Note_on_c, 13, 53, 0
18, 188880, Note_on_c, 13, 53, 32
18, 188984, Note_on_c, 13, 53, 0
18, 189000, Note_on_c, 13, 53, 32
18, 189119, Note_on_c, 13, 53, 0
18, 190800, Note_on_c, 13, 65, 32
18, 190964, Note_on_c, 13, 65, 0
18, 190980, Note_on_c, 13, 53, 32
18, 191024, Note_on_c, 13, 53, 0
18, 191040, Note_on_c, 13, 53, 32
18, 191144, Note_on_c, 13, 53, 0
18, 191160, Note_on_c, 13, 53, 32
18, 191279, Note_on_c, 13, 53, 0
18, 191520, Note_on_c, 13, 53, 32
18, 191684, Note_on_c, 13, 53, 0
18, 191700, Note_on_c, 13, 53, 32
18, 191744, Note_on_c, 13, 53, 0
18, 191760, Note_on_c, 13, 53, 32
18, 191864, Note_on_c, 13, 53, 0
18, 191880, Note_on_c, 13, 53, 32
18, 191999, Note_on_c, 13, 53, 0
18, 192240, Note_on_c, 13, 53, 32
18, 192404, Note_on_c, 13, 53, 0
18, 192420, Note_on_c, 13, 53, 32
18, 192464, Note_on_c, 13, 53, 0
18, 192480, Note_on_c, 13, 53, 32
18, 192584, Note_on_c, 13, 53, 0
18, 192600, Note_on_c, 13, 53, 32
18, 192719, Note_on_c, 13, 53, 0
18, 192960, Note_on_c, 13, 65, 32
18, 193124, Note_on_c, 13, 65, 0
18, 193140, Note_on_c, 13, 53, 32
18, 193184, Note_on_c, 13, 53, 0
18, 193200, Note_on_c, 13, 53, 32
18, 193304, Note_on_c, 13, 53, 0
18, 193320, Note_on_c, 13, 55, 32
18, 193439, Note_on_c, 13, 55, 0
18, 195120, Note_on_c, 13, 55, 32
18, 195284, Note_on_c, 13, 55, 0
18, 195300, Note_on_c, 13, 67, 34
18, 195344, Note_on_c, 13, 67, 0
18, 195360, Note_on_c, 13, 67, 34
18, 195464, Note_on_c, 13, 67, 0
18, 195480, Note_on_c, 13, 67, 36
18, 195599, Note_on_c, 13, 67, 0
18, 195840, Note_on_c, 13, 60, 40
18, 196004, Note_on_c, 13, 60, 0
18, 196020, Note_on_c, 13, 48, 42
18, 196064, Note_on_c, 13, 48, 0
18, 196080, Note_on_c, 13, 48, 42
18, 196184, Note_on_c, 13, 48, 0
18, 196200, Note_on_c, 13, 56, 44
18, 196319, Note_on_c, 13, 56, 0
18, 196560, Note_on_c, 13, 53, 48
18, 196724, Note_on_c, 13, 53, 0
18, 196740, Note_on_c, 13, 65, 50
18, 196784, Note_on_c, 13, 65, 0
18, 196800, Note_on_c, 13, 65, 50
18, 196904, Note_on_c, 13, 65, 0
18, 196920, Note_on_c, 13, 61, 52
18, 197039, Note_on_c, 13, 61, 0
18, 197280, Note_on_c, 13, 58, 56
18, 197444, Note_on_c, 13, 58, 0
18, 197460, Note_on_c, 13, 61, 58
18, 197504, Note_on_c, 13, 61, 0
18, 197520, Note_on_c, 13, 61, 58
18, 197624, Note_on_c, 13, 61, 0
18, 197640, Note_on_c, 13, 63, 60
18, 197759, Note_on_c, 13, 63, 0
18, 198000, Note_on_c, 13, 51, 64
18, 198164, Note_on_c, 13, 51, 0
18, 198180, Note_on_c, 13, 63, 66
18, 198224, Note_on_c, 13, 63, 0
18, 198240, Note_on_c, 13, 63, 66
18, 198344, Note_on_c, 13, 63, 0
18, 198360, Note_on_c, 13, 59, 68
18, 198479, Note_on_c, 13, 59, 0
18, 198720, Note_on_c, 13, 59, 72
18, 198884, Note_on_c, 13, 59, 0
18, 198900, Note_on_c, 13, 64, 74
18, 198944, Note_on_c, 13, 64, 0
18, 198960, Note_on_c, 13, 64, 74
18, 199064, Note_on_c, 13, 64, 0
18, 199080, Note_on_c, 13, 64, 76
18, 199199, Note_on_c, 13, 64, 0
18, 199440, Note_on_c, 13, 57, 80
18, 199604, Note_on_c, 13, 57, 0
18, 199620, Note_on_c, 13, 69, 80
18, 199664, Note_on_c, 13, 69, 0
18, 199680, Note_on_c, 13, 69, 80
18, 199784, Note_on_c, 13, 69, 0
18, 200160, Note_on_c, 13, 58, 92
18, 200324, Note_on_c, 13, 58, 0
18, 200340, Note_on_c, 13, 70, 92
18, 200384, Note_on_c, 13, 70, 0
18, 200400, Note_on_c, 13, 70, 92
18, 200504, Note_on_c, 13, 70, 0
18, 200880, Note_on_c, 13, 59, 92
18, 201044, Note_on_c, 13, 59, 0
18, 201060, Note_on_c, 13, 71, 92
18, 201104, Note_on_c, 13, 71, 0
18, 201120, Note_on_c, 13, 71, 92
18, 201224, Note_on_c, 13, 71, 0
18, 201960, Program_c, 13, 45
18, 202320, Note_on_c, 13, 59, 40
18, 202439, Note_on_c, 13, 59, 0
18, 202680, Note_on_c, 13, 59, 40
18, 202799, Note_on_c, 13, 59, 0
18, 203400, Note_on_c, 13, 59, 40
18, 203519, Note_on_c, 13, 59, 0
18, 203760, Note_on_c, 13, 59, 40
18, 203879, Note_on_c, 13, 59, 0
18, 204480, Note_on_c, 13, 59, 40
18, 204599, Note_on_c, 13, 59, 0
18, 204840, Note_on_c, 13, 59, 40
18, 204959, Note_on_c, 13, 59, 0
18, 205560, Note_on_c, 13, 64, 40
18, 205679, Note_on_c, 13, 64, 0
18, 205920, Note_on_c, 13, 52, 40
18, 206039, Note_on_c, 13, 52, 0
18, 206640, Note_on_c, 13, 57, 40
18, 206759, Note_on_c, 13, 57, 0
18, 207000, Note_on_c, 13, 52, 40
18, 207119, Note_on_c, 13, 52, 0
18, 207720, Note_on_c, 13, 57, 40
18, 207839, Note_on_c, 13, 57, 0
18, 208080, Note_on_c, 13, 52, 40
18, 208199, Note_on_c, 13, 52, 0
18, 208800, Note_on_c, 13, 65, 40
18, 208919, Note_on_c, 13, 65, 0
18, 209160, Note_on_c, 13, 53, 40
18, 209279, Note_on_c, 13, 53, 0
18, 209880, Note_on_c, 13, 65, 40
18, 209999, Note_on_c, 13, 65, 0
18, 210240, Note_on_c, 13, 53, 40
18, 210359, Note_on_c, 13, 53, 0
18, 210960, Note_on_c, 13, 65, 40
18, 211079, Note_on_c, 13, 65, 0
18, 211320, Note_on_c, 13, 53, 40
18, 211439, Note_on_c, 13, 53, 0
18, 212040, Note_on_c, 13, 65, 40
18, 212159, Note_on_c, 13, 65, 0
18, 212400, Note_on_c, 13, 53, 40
18, 212519, Note_on_c, 13, 53, 0
18, 212760, Note_on_c, 13, 65, 40
18, 212879, Note_on_c, 13, 65, 0
18, 213120, Note_on_c, 13, 53, 40
18, 213239, Note_on_c, 13, 53, 0
18, 213480, Note_on_c, 13, 65, 40
18, 213599, Note_on_c, 13, 65, 0
18, 213720, Program_c, 13, 48
18, 213840, Note_on_c, 13, 58, 44
18, 213840, Note_on_c, 13, 67, 44
18, 213944, Note_on_c, 13, 58, 0
18, 213944, Note_on_c, 13, 67, 0
18, 213960, Note_on_c, 13, 65, 44
18, 213960, Note_on_c, 13, 57, 44
18, 214064, Note_on_c, 13, 65, 0
18, 214064, Note_on_c, 13, 57, 0
18, 214080, Note_on_c, 13, 55, 44
18, 214080, Note_on_c, 13, 64, 44
18, 214184, Note_on_c, 13, 55, 0
18, 214184, Note_on_c, 13, 64, 0
18, 214200, Note_on_c, 13, 64, 43
18, 214200, Note_on_c, 13, 55, 43
18, 214304, Note_on_c, 13, 64, 0
18, 214304, Note_on_c, 13, 55, 0
18, 214320, Note_on_c, 13, 65, 43
18, 214320, Note_on_c, 13, 57, 43
18, 214424, Note_on_c, 13, 65, 0
18, 214424, Note_on_c, 13, 57, 0
18, 214440, Note_on_c, 13, 58, 43
18, 214440, Note_on_c, 13, 67, 43
18, 214544, Note_on_c, 13, 58, 0
18, 214544, Note_on_c, 13, 67, 0
18, 214560, Note_on_c, 13, 67, 42
18, 214560, Note_on_c, 13, 58, 42
18, 214664, Note_on_c, 13, 67, 0
18, 214664, Note_on_c, 13, 58, 0
18, 214680, Note_on_c, 13, 65, 42
18, 214680, Note_on_c, 13, 57, 42
18, 214784, Note_on_c, 13, 65, 0
18, 214784, Note_on_c, 13, 57, 0
18, 214800, Note_on_c, 13, 58, 42
18, 214800, Note_on_c, 13, 67, 42
18, 214904, Note_on_c, 13, 58, 0
18, 214904, Note_on_c, 13, 67, 0
18, 214918, Program_c, 13, 45
18, 214920, Note_on_c, 13, 62, 33
18, 215039, Note_on_c, 13, 62, 0
18, 215280, Note_on_c, 13, 50, 32
18, 215399, Note_on_c, 13, 50, 0
18, 215640, Note_on_c, 13, 62, 31
18, 215759, Note_on_c, 13, 62, 0
18, 215880, Program_c, 13, 48
18, 216000, Note_on_c, 13, 55, 38
18, 216000, Note_on_c, 13, 64, 38
18, 216104, Note_on_c, 13, 55, 0
18, 216104, Note_on_c, 13, 64, 0
18, 216120, Note_on_c, 13, 62, 38
18, 216120, Note_on_c, 13, 53, 38
18, 216224, Note_on_c, 13, 62, 0
18, 216224, Note_on_c, 13, 53, 0
18, 216240, Note_on_c, 13, 61, 38
18, 216240, Note_on_c, 13, 52, 38
18, 216344, Note_on_c, 13, 61, 0
18, 216344, Note_on_c, 13, 52, 0
18, 216360, Note_on_c, 13, 61, 37
18, 216360, Note_on_c, 13, 52, 37
18, 216464, Note_on_c, 13, 61, 0
18, 216464, Note_on_c, 13, 52, 0
18, 216480, Note_on_c, 13, 53, 37
18, 216480, Note_on_c, 13, 62, 37
18, 216584, Note_on_c, 13, 53, 0
18, 216584, Note_on_c, 13, 62, 0
18, 216600, Note_on_c, 13, 55, 37
18, 216600, Note_on_c, 13, 64, 37
18, 216704, Note_on_c, 13, 55, 0
18, 216704, Note_on_c, 13, 64, 0
18, 216720, Note_on_c, 13, 55, 36
18, 216720, Note_on_c, 13, 64, 36
18, 216824, Note_on_c, 13, 55, 0
18, 216824, Note_on_c, 13, 64, 0
18, 216840, Note_on_c, 13, 53, 36
18, 216840, Note_on_c, 13, 62, 36
18, 216944, Note_on_c, 13, 53, 0
18, 216944, Note_on_c, 13, 62, 0
18, 216960, Note_on_c, 13, 64, 36
18, 216960, Note_on_c, 13, 55, 36
18, 217064, Note_on_c, 13, 64, 0
18, 217064, Note_on_c, 13, 55, 0
18, 217078, Program_c, 13, 45
18, 217080, Note_on_c, 13, 69, 30
18, 217199, Note_on_c, 13, 69, 0
18, 217440, Note_on_c, 13, 57, 30
18, 217559, Note_on_c, 13, 57, 0
18, 217800, Note_on_c, 13, 69, 29
18, 217919, Note_on_c, 13, 69, 0
18, 218040, Program_c, 13, 48
18, 218160, Note_on_c, 13, 64, 32
18, 218160, Note_on_c, 13, 55, 32
18, 218264, Note_on_c, 13, 64, 0
18, 218264, Note_on_c, 13, 55, 0
18, 218280, Note_on_c, 13, 62, 32
18, 218280, Note_on_c, 13, 53, 32
18, 218384, Note_on_c, 13, 62, 0
18, 218384, Note_on_c, 13, 53, 0
18, 218400, Note_on_c, 13, 61, 32
18, 218400, Note_on_c, 13, 52, 32
18, 218504, Note_on_c, 13, 61, 0
18, 218504, Note_on_c, 13, 52, 0
18, 218520, Note_on_c, 13, 52, 32
18, 218520, Note_on_c, 13, 61, 32
18, 218624, Note_on_c, 13, 52, 0
18, 218624, Note_on_c, 13, 61, 0
18, 218640, Note_on_c, 13, 53, 32
18, 218640, Note_on_c, 13, 62, 32
18, 218744, Note_on_c, 13, 53, 0
18, 218744, Note_on_c, 13, 62, 0
18, 218760, Note_on_c, 13, 64, 32
18, 218760, Note_on_c, 13, 55, 32
18, 218864, Note_on_c, 13, 64, 0
18, 218864, Note_on_c, 13, 55, 0
18, 218880, Note_on_c, 13, 64, 32
18, 218880, Note_on_c, 13, 55, 32
18, 218984, Note_on_c, 13, 64, 0
18, 218984, Note_on_c, 13, 55, 0
18, 219000, Note_on_c, 13, 53, 32
18, 219000, Note_on_c, 13, 62, 32
18, 219104, Note_on_c, 13, 53, 0
18, 219104, Note_on_c, 13, 62, 0
18, 219120, Note_on_c, 13, 55, 32
18, 219120, Note_on_c, 13, 64, 32
18, 219224, Note_on_c, 13, 55, 0
18, 219224, Note_on_c, 13, 64, 0
18, 219240, Note_on_c, 13, 58, 32
18, 219344, Note_on_c, 13, 58, 0
18, 219360, Note_on_c, 13, 57, 32
18, 219464, Note_on_c, 13, 57, 0
18, 219480, Note_on_c, 13, 55, 32
18, 219584, Note_on_c, 13, 55, 0
18, 219600, Note_on_c, 13, 53, 32
18, 219719, Note_on_c, 13, 53, 0
18, 219840, Program_c, 13, 45
18, 219960, Note_on_c, 13, 57, 28
18, 220079, Note_on_c, 13, 57, 0
18, 220680, Note_on_c, 13, 57, 28
18, 220799, Note_on_c, 13, 57, 0
18, 221040, Note_on_c, 13, 57, 28
18, 221159, Note_on_c, 13, 57, 0
18, 221760, Note_on_c, 13, 57, 28
18, 221879, Note_on_c, 13, 57, 0
18, 222120, Note_on_c, 13, 57, 28
18, 222239, Note_on_c, 13, 57, 0
18, 222840, Program_c, 13, 48
18, 223200, Note_on_c, 13, 69, 32
18, 223364, Note_on_c, 13, 69, 0
18, 223380, Note_on_c, 13, 57, 32
18, 223424, Note_on_c, 13, 57, 0
18, 223440, Note_on_c, 13, 57, 32
18, 223544, Note_on_c, 13, 57, 0
18, 223560, Note_on_c, 13, 62, 32
18, 223664, Note_on_c, 13, 62, 0
18, 223680, Note_on_c, 13, 64, 32
18, 223784, Note_on_c, 13, 64, 0
18, 223800, Note_on_c, 13, 65, 32
18, 223904, Note_on_c, 13, 65, 0
18, 223920, Note_on_c, 13, 62, 32
18, 224024, Note_on_c, 13, 62, 0
18, 224040, Note_on_c, 13, 63, 32
18, 224144, Note_on_c, 13, 63, 0
18, 224160, Note_on_c, 13, 65, 32
18, 224264, Note_on_c, 13, 65, 0
18, 224280, Note_on_c, 13, 63, 32
18, 224384, Note_on_c, 13, 63, 0
18, 224400, Note_on_c, 13, 62, 32
18, 224504, Note_on_c, 13, 62, 0
18, 224520, Note_on_c, 13, 60, 32
18, 224624, Note_on_c, 13, 60, 0
18, 224640, Note_on_c, 13, 62, 32
18, 224744, Note_on_c, 13, 62, 0
18, 224760, Note_on_c, 13, 60, 32
18, 224864, Note_on_c, 13, 60, 0
18, 224880, Note_on_c, 13, 59, 32
18, 224984, Note_on_c, 13, 59, 0
18, 225000, Note_on_c, 13, 60, 32
18, 225104, Note_on_c, 13, 60, 0
18, 225120, Note_on_c, 13, 65, 32
18, 225224, Note_on_c, 13, 65, 0
18, 225240, Note_on_c, 13, 67, 32
18, 225344, Note_on_c, 13, 67, 0
18, 225360, Note_on_c, 13, 65, 32
18, 225464, Note_on_c, 13, 65, 0
18, 225480, Note_on_c, 13, 67, 32
18, 225584, Note_on_c, 13, 67, 0
18, 225600, Note_on_c, 13, 68, 32
18, 225704, Note_on_c, 13, 68, 0
18, 225720, Note_on_c, 13, 67, 32
18, 225824, Note_on_c, 13, 67, 0
18, 225840, Note_on_c, 13, 65, 32
18, 225944, Note_on_c, 13, 65, 0
18, 225960, Note_on_c, 13, 63, 32
18, 226064, Note_on_c, 13, 63, 0
18, 226080, Note_on_c, 13, 70, 32
18, 226244, Note_on_c, 13, 70, 0
18, 226260, Note_on_c, 13, 58, 32
18, 226304, Note_on_c, 13, 58, 0
18, 226320, Note_on_c, 13, 58, 32
18, 226424, Note_on_c, 13, 58, 0
18, 226440, Note_on_c, 13, 63, 32
18, 226544, Note_on_c, 13, 63, 0
18, 226560, Note_on_c, 13, 65, 32
18, 226664, Note_on_c, 13, 65, 0
18, 226680, Note_on_c, 13, 67, 32
18, 226784, Note_on_c, 13, 67, 0
18, 226800, Note_on_c, 13, 65, 32
18, 226904, Note_on_c, 13, 65, 0
18, 226920, Note_on_c, 13, 63, 32
18, 227024, Note_on_c, 13, 63, 0
18, 227040, Note_on_c, 13, 62, 32
18, 227144, Note_on_c, 13, 62, 0
18, 227160, Note_on_c, 13, 58, 32
18, 227264, Note_on_c, 13, 58, 0
18, 227280, Note_on_c, 13, 62, 32
18, 227384, Note_on_c, 13, 62, 0
18, 227400, Note_on_c, 13, 63, 32
18, 227504, Note_on_c, 13, 63, 0
18, 227520, Note_on_c, 13, 65, 32
18, 228944, Note_on_c, 13, 65, 0
18, 228960, Note_on_c, 13, 51, 32
18, 229049, Note_on_c, 13, 51, 0
18, 229080, Note_on_c, 13, 53, 32
18, 229169, Note_on_c, 13, 53, 0
18, 229200, Note_on_c, 13, 55, 32
18, 229289, Note_on_c, 13, 55, 0
18, 229320, Note_on_c, 13, 55, 32
18, 229409, Note_on_c, 13, 55, 0
18, 229440, Note_on_c, 13, 56, 32
18, 229529, Note_on_c, 13, 56, 0
18, 229560, Note_on_c, 13, 58, 32
18, 229649, Note_on_c, 13, 58, 0
18, 229680, Note_on_c, 13, 63, 32
18, 229769, Note_on_c, 13, 63, 0
18, 229800, Note_on_c, 13, 65, 32
18, 229889, Note_on_c, 13, 65, 0
18, 229920, Note_on_c, 13, 67, 32
18, 230009, Note_on_c, 13, 67, 0
18, 230040, Note_on_c, 13, 67, 32
18, 230129, Note_on_c, 13, 67, 0
18, 230160, Note_on_c, 13, 68, 32
18, 230249, Note_on_c, 13, 68, 0
18, 230280, Note_on_c, 13, 70, 32
18, 230369, Note_on_c, 13, 70, 0
18, 230398, Control_c, 13, 11, 47
18, 230400, Note_on_c, 13, 74, 80
18, 230400, Control_c, 13, 11, 47
18, 230472, Control_c, 13, 11, 48
18, 230544, Control_c, 13, 11, 49
18, 230616, Control_c, 13, 11, 50
18, 230688, Control_c, 13, 11, 51
18, 230760, Control_c, 13, 11, 52
18, 230832, Control_c, 13, 11, 53
18, 230904, Control_c, 13, 11, 54
18, 230976, Control_c, 13, 11, 55
18, 231048, Control_c, 13, 11, 56
18, 231120, Control_c, 13, 11, 57
18, 231192, Control_c, 13, 11, 58
18, 231264, Control_c, 13, 11, 59
18, 231336, Control_c, 13, 11, 60
18, 231408, Control_c, 13, 11, 61
18, 231480, Control_c, 13, 11, 62
18, 231552, Control_c, 13, 11, 63
18, 231624, Control_c, 13, 11, 64
18, 231696, Control_c, 13, 11, 65
18, 231768, Control_c, 13, 11, 66
18, 231824, Note_on_c, 13, 74, 0
18, 231840, Note_on_c, 13, 74, 80
18, 231840, Control_c, 13, 11, 67
18, 231870, Control_c, 13, 11, 68
18, 231900, Control_c, 13, 11, 70
18, 231930, Control_c, 13, 11, 71
18, 231960, Control_c, 13, 11, 72
18, 231990, Control_c, 13, 11, 73
18, 232020, Control_c, 13, 11, 75
18, 232050, Control_c, 13, 11, 76
18, 232080, Control_c, 13, 11, 77
18, 232110, Control_c, 13, 11, 78
18, 232140, Control_c, 13, 11, 80
18, 232170, Control_c, 13, 11, 81
18, 232200, Control_c, 13, 11, 82
18, 232230, Control_c, 13, 11, 83
18, 232260, Control_c, 13, 11, 85
18, 232290, Control_c, 13, 11, 86
18, 232320, Control_c, 13, 11, 87
18, 232350, Control_c, 13, 11, 88
18, 232380, Control_c, 13, 11, 90
18, 232410, Control_c, 13, 11, 91
18, 232440, Control_c, 13, 11, 92
18, 232470, Control_c, 13, 11, 93
18, 232500, Control_c, 13, 11, 95
18, 232530, Control_c, 13, 11, 96
18, 232560, Control_c, 13, 11, 97
18, 232590, Control_c, 13, 11, 98
18, 232620, Control_c, 13, 11, 100
18, 232650, Control_c, 13, 11, 101
18, 232680, Control_c, 13, 11, 102
18, 232710, Control_c, 13, 11, 103
18, 232740, Control_c, 13, 11, 105
18, 232770, Control_c, 13, 11, 106
18, 232800, Control_c, 13, 11, 107
18, 232830, Control_c, 13, 11, 108
18, 232860, Control_c, 13, 11, 110
18, 232890, Control_c, 13, 11, 111
18, 232920, Control_c, 13, 11, 112
18, 232950, Control_c, 13, 11, 113
18, 232980, Control_c, 13, 11, 115
18, 233010, Control_c, 13, 11, 116
18, 233040, Control_c, 13, 11, 117
18, 233070, Control_c, 13, 11, 118
18, 233100, Control_c, 13, 11, 120
18, 233130, Control_c, 13, 11, 121
18, 233160, Control_c, 13, 11, 122
18, 233190, Control_c, 13, 11, 123
18, 233220, Control_c, 13, 11, 125
18, 233250, Control_c, 13, 11, 127
18, 233264, Note_on_c, 13, 74, 0
18, 233280, Note_on_c, 13, 74, 80
18, 233280, Note_on_c, 13, 57, 80
18, 233280, Note_on_c, 13, 65, 80
18, 233399, Note_on_c, 13, 74, 0
18, 233399, Note_on_c, 13, 57, 0
18, 233399, Note_on_c, 13, 65, 0
18, 234000, Note_on_c, 13, 65, 86
18, 234000, Note_on_c, 13, 62, 86
18, 234119, Note_on_c, 13, 65, 0
18, 234119, Note_on_c, 13, 62, 0
18, 234720, Note_on_c, 13, 65, 92
18, 234720, Note_on_c, 13, 57, 92
18, 234720, Note_on_c, 13, 74, 92
18, 234884, Note_on_c, 13, 65, 0
18, 234884, Note_on_c, 13, 57, 0
18, 234884, Note_on_c, 13, 74, 0
18, 234900, Note_on_c, 13, 65, 92
18, 234900, Note_on_c, 13, 69, 92
18, 234944, Note_on_c, 13, 65, 0
18, 234944, Note_on_c, 13, 69, 0
18, 234960, Note_on_c, 13, 69, 92
18, 234960, Note_on_c, 13, 65, 92
18, 235064, Note_on_c, 13, 69, 0
18, 235064, Note_on_c, 13, 65, 0
18, 235080, Note_on_c, 13, 74, 92
18, 235080, Note_on_c, 13, 57, 92
18, 235080, Note_on_c, 13, 65, 92
18, 235244, Note_on_c, 13, 74, 0
18, 235244, Note_on_c, 13, 57, 0
18, 235244, Note_on_c, 13, 65, 0
18, 235260, Note_on_c, 13, 65, 92
18, 235260, Note_on_c, 13, 69, 92
18, 235304, Note_on_c, 13, 65, 0
18, 235304, Note_on_c, 13, 69, 0
18, 235320, Note_on_c, 13, 65, 92
18, 235320, Note_on_c, 13, 69, 92
18, 235424, Note_on_c, 13, 65, 0
18, 235424, Note_on_c, 13, 69, 0
18, 235440, Note_on_c, 13, 74, 92
18, 235440, Note_on_c, 13, 65, 92
18, 235440, Note_on_c, 13, 57, 92
18, 235604, Note_on_c, 13, 74, 0
18, 235604, Note_on_c, 13, 65, 0
18, 235604, Note_on_c, 13, 57, 0
18, 235620, Note_on_c, 13, 65, 92
18, 235620, Note_on_c, 13, 69, 92
18, 235664, Note_on_c, 13, 65, 0
18, 235664, Note_on_c, 13, 69, 0
18, 235680, Note_on_c, 13, 65, 92
18, 235680, Note_on_c, 13, 69, 92
18, 235784, Note_on_c, 13, 65, 0
18, 235784, Note_on_c, 13, 69, 0
18, 235800, Note_on_c, 13, 65, 92
18, 235800, Note_on_c, 13, 74, 92
18, 235800, Note_on_c, 13, 57, 92
18, 235964, Note_on_c, 13, 65, 0
18, 235964, Note_on_c, 13, 74, 0
18, 235964, Note_on_c, 13, 57, 0
18, 235980, Note_on_c, 13, 69, 92
18, 235980, Note_on_c, 13, 65, 92
18, 236024, Note_on_c, 13, 69, 0
18, 236024, Note_on_c, 13, 65, 0
18, 236040, Note_on_c, 13, 65, 92
18, 236040, Note_on_c, 13, 69, 92
18, 236144, Note_on_c, 13, 65, 0
18, 236144, Note_on_c, 13, 69, 0
18, 236160, Note_on_c, 13, 57, 92
18, 236160, Note_on_c, 13, 69, 92
18, 236324, Note_on_c, 13, 57, 0
18, 236324, Note_on_c, 13, 69, 0
18, 236340, Note_on_c, 13, 57, 92
18, 236384, Note_on_c, 13, 57, 0
18, 236400, Note_on_c, 13, 57, 92
18, 236504, Note_on_c, 13, 57, 0
18, 236520, Note_on_c, 13, 62, 92
18, 236609, Note_on_c, 13, 62, 0
18, 236640, Note_on_c, 13, 64, 92
18, 236729, Note_on_c, 13, 64, 0
18, 236760, Note_on_c, 13, 65, 92
18, 236849, Note_on_c, 13, 65, 0
18, 236880, Note_on_c, 13, 64, 92
18, 236969, Note_on_c, 13, 64, 0
18, 237000, Note_on_c, 13, 65, 92
18, 237089, Note_on_c, 13, 65, 0
18, 237120, Note_on_c, 13, 67, 92
18, 237209, Note_on_c, 13, 67, 0
18, 237240, Note_on_c, 13, 65, 92
18, 237329, Note_on_c, 13, 65, 0
18, 237360, Note_on_c, 13, 64, 92
18, 237449, Note_on_c, 13, 64, 0
18, 237480, Note_on_c, 13, 62, 92
18, 237569, Note_on_c, 13, 62, 0
18, 237600, Note_on_c, 13, 58, 92
18, 237689, Note_on_c, 13, 58, 0
18, 237720, Note_on_c, 13, 57, 92
18, 237809, Note_on_c, 13, 57, 0
18, 237840, Note_on_c, 13, 55, 92
18, 237929, Note_on_c, 13, 55, 0
18, 237960, Note_on_c, 13, 53, 92
18, 238049, Note_on_c, 13, 53, 0
18, 238080, Note_on_c, 13, 64, 92
18, 238169, Note_on_c, 13, 64, 0
18, 238200, Note_on_c, 13, 62, 92
18, 238289, Note_on_c, 13, 62, 0
18, 238320, Note_on_c, 13, 61, 92
18, 238409, Note_on_c, 13, 61, 0
18, 238440, Note_on_c, 13, 62, 92
18, 238529, Note_on_c, 13, 62, 0
18, 238560, Note_on_c, 13, 64, 92
18, 238649, Note_on_c, 13, 64, 0
18, 238680, Note_on_c, 13, 62, 92
18, 238769, Note_on_c, 13, 62, 0
18, 238800, Note_on_c, 13, 61, 92
18, 238889, Note_on_c, 13, 61, 0
18, 238920, Note_on_c, 13, 62, 92
18, 239009, Note_on_c, 13, 62, 0
18, 239040, Note_on_c, 13, 58, 92
18, 239129, Note_on_c, 13, 58, 0
18, 239160, Note_on_c, 13, 57, 92
18, 239249, Note_on_c, 13, 57, 0
18, 239280, Note_on_c, 13, 55, 92
18, 239369, Note_on_c, 13, 55, 0
18, 239400, Note_on_c, 13, 53, 92
18, 239489, Note_on_c, 13, 53, 0
18, 239520, Note_on_c, 13, 64, 92
18, 239609, Note_on_c, 13, 64, 0
18, 239640, Note_on_c, 13, 62, 92
18, 239729, Note_on_c, 13, 62, 0
18, 239760, Note_on_c, 13, 61, 92
18, 239849, Note_on_c, 13, 61, 0
18, 239880, Note_on_c, 13, 62, 92
18, 239969, Note_on_c, 13, 62, 0
18, 240000, Note_on_c, 13, 64, 92
18, 240089, Note_on_c, 13, 64, 0
18, 240120, Note_on_c, 13, 62, 92
18, 240209, Note_on_c, 13, 62, 0
18, 240240, Note_on_c, 13, 61, 92
18, 240329, Note_on_c, 13, 61, 0
18, 240360, Note_on_c, 13, 62, 92
18, 240449, Note_on_c, 13, 62, 0
18, 240480, Note_on_c, 13, 60, 92
18, 240569, Note_on_c, 13, 60, 0
18, 240600, Note_on_c, 13, 62, 92
18, 240689, Note_on_c, 13, 62, 0
18, 240720, Note_on_c, 13, 63, 92
18, 240809, Note_on_c, 13, 63, 0
18, 240840, Note_on_c, 13, 55, 92
18, 240929, Note_on_c, 13, 55, 0
18, 240960, Note_on_c, 13, 57, 92
18, 241049, Note_on_c, 13, 57, 0
18, 241080, Note_on_c, 13, 58, 92
18, 241169, Note_on_c, 13, 58, 0
18, 241200, Note_on_c, 13, 57, 92
18, 241289, Note_on_c, 13, 57, 0
18, 241320, Note_on_c, 13, 58, 92
18, 241409, Note_on_c, 13, 58, 0
18, 241440, Note_on_c, 13, 60, 92
18, 241529, Note_on_c, 13, 60, 0
18, 241560, Note_on_c, 13, 58, 92
18, 241649, Note_on_c, 13, 58, 0
18, 241680, Note_on_c, 13, 57, 92
18, 241769, Note_on_c, 13, 57, 0
18, 241800, Note_on_c, 13, 55, 92
18, 241889, Note_on_c, 13, 55, 0
18, 241920, Note_on_c, 13, 63, 80
18, 242009, Note_on_c, 13, 63, 0
18, 242040, Note_on_c, 13, 62, 80
18, 242129, Note_on_c, 13, 62, 0
18, 242160, Note_on_c, 13, 60, 80
18, 242249, Note_on_c, 13, 60, 0
18, 242280, Note_on_c, 13, 58, 80
18, 242369, Note_on_c, 13, 58, 0
18, 242400, Note_on_c, 13, 57, 80
18, 242489, Note_on_c, 13, 57, 0
18, 242520, Note_on_c, 13, 55, 80
18, 242609, Note_on_c, 13, 55, 0
18, 242640, Note_on_c, 13, 65, 80
18, 242729, Note_on_c, 13, 65, 0
18, 242760, Note_on_c, 13, 63, 80
18, 242849, Note_on_c, 13, 63, 0
18, 242880, Note_on_c, 13, 62, 80
18, 242969, Note_on_c, 13, 62, 0
18, 243000, Note_on_c, 13, 60, 80
18, 243089, Note_on_c, 13, 60, 0
18, 243120, Note_on_c, 13, 58, 80
18, 243209, Note_on_c, 13, 58, 0
18, 243240, Note_on_c, 13, 57, 80
18, 243329, Note_on_c, 13, 57, 0
18, 243360, Note_on_c, 13, 67, 80
18, 243449, Note_on_c, 13, 67, 0
18, 243480, Note_on_c, 13, 65, 80
18, 243569, Note_on_c, 13, 65, 0
18, 243600, Note_on_c, 13, 63, 80
18, 243689, Note_on_c, 13, 63, 0
18, 243720, Note_on_c, 13, 62, 80
18, 243809, Note_on_c, 13, 62, 0
18, 243840, Note_on_c, 13, 60, 80
18, 243929, Note_on_c, 13, 60, 0
18, 243960, Note_on_c, 13, 58, 80
18, 244049, Note_on_c, 13, 58, 0
18, 244080, Note_on_c, 13, 57, 80
18, 244169, Note_on_c, 13, 57, 0
18, 244200, Note_on_c, 13, 55, 80
18, 244289, Note_on_c, 13, 55, 0
18, 244320, Note_on_c, 13, 53, 80
18, 244409, Note_on_c, 13, 53, 0
18, 244440, Note_on_c, 13, 63, 80
18, 244529, Note_on_c, 13, 63, 0
18, 244560, Note_on_c, 13, 62, 80
18, 244649, Note_on_c, 13, 62, 0
18, 244680, Note_on_c, 13, 60, 80
18, 244769, Note_on_c, 13, 60, 0
18, 244800, Note_on_c, 13, 58, 80
18, 244889, Note_on_c, 13, 58, 0
18, 245880, Note_on_c, 13, 72, 52
18, 246044, Note_on_c, 13, 72, 0
18, 246060, Note_on_c, 13, 60, 56
18, 246104, Note_on_c, 13, 60, 0
18, 246120, Note_on_c, 13, 60, 57
18, 246224, Note_on_c, 13, 60, 0
18, 246240, Note_on_c, 13, 72, 60
18, 246404, Note_on_c, 13, 72, 0
18, 246420, Note_on_c, 13, 60, 64
18, 246464, Note_on_c, 13, 60, 0
18, 246480, Note_on_c, 13, 60, 65
18, 246584, Note_on_c, 13, 60, 0
18, 246600, Note_on_c, 13, 74, 68
18, 246764, Note_on_c, 13, 74, 0
18, 246780, Note_on_c, 13, 62, 64
18, 246824, Note_on_c, 13, 62, 0
18, 246840, Note_on_c, 13, 62, 63
18, 246944, Note_on_c, 13, 62, 0
18, 246960, Note_on_c, 13, 73, 60
18, 247124, Note_on_c, 13, 73, 0
18, 247140, Note_on_c, 13, 61, 56
18, 247184, Note_on_c, 13, 61, 0
18, 247200, Note_on_c, 13, 61, 55
18, 247304, Note_on_c, 13, 61, 0
18, 247320, Note_on_c, 13, 72, 52
18, 247484, Note_on_c, 13, 72, 0
18, 247500, Note_on_c, 13, 60, 48
18, 247544, Note_on_c, 13, 60, 0
18, 247560, Note_on_c, 13, 60, 47
18, 247664, Note_on_c, 13, 60, 0
18, 249480, Note_on_c, 13, 71, 56
18, 249644, Note_on_c, 13, 71, 0
18, 249660, Note_on_c, 13, 59, 59
18, 249704, Note_on_c, 13, 59, 0
18, 249720, Note_on_c, 13, 59, 60
18, 249824, Note_on_c, 13, 59, 0
18, 249840, Note_on_c, 13, 70, 62
18, 250004, Note_on_c, 13, 70, 0
18, 250020, Note_on_c, 13, 58, 65
18, 250064, Note_on_c, 13, 58, 0
18, 250080, Note_on_c, 13, 58, 66
18, 250184, Note_on_c, 13, 58, 0
18, 250200, Note_on_c, 13, 69, 68
18, 250364, Note_on_c, 13, 69, 0
18, 250380, Note_on_c, 13, 57, 64
18, 250424, Note_on_c, 13, 57, 0
18, 250440, Note_on_c, 13, 57, 63
18, 250544, Note_on_c, 13, 57, 0
18, 250560, Note_on_c, 13, 69, 60
18, 250724, Note_on_c, 13, 69, 0
18, 250740, Note_on_c, 13, 57, 56
18, 250784, Note_on_c, 13, 57, 0
18, 250800, Note_on_c, 13, 57, 55
18, 250904, Note_on_c, 13, 57, 0
18, 250920, Note_on_c, 13, 69, 52
18, 251084, Note_on_c, 13, 69, 0
18, 251100, Note_on_c, 13, 57, 48
18, 251144, Note_on_c, 13, 57, 0
18, 251160, Note_on_c, 13, 57, 47
18, 251264, Note_on_c, 13, 57, 0
18, 251640, Note_on_c, 13, 69, 44
18, 251804, Note_on_c, 13, 69, 0
18, 251820, Note_on_c, 13, 57, 47
18, 251864, Note_on_c, 13, 57, 0
18, 251880, Note_on_c, 13, 57, 48
18, 251984, Note_on_c, 13, 57, 0
18, 252000, Note_on_c, 13, 69, 50
18, 252164, Note_on_c, 13, 69, 0
18, 252180, Note_on_c, 13, 57, 53
18, 252224, Note_on_c, 13, 57, 0
18, 252240, Note_on_c, 13, 57, 54
18, 252344, Note_on_c, 13, 57, 0
18, 252360, Note_on_c, 13, 67, 56
18, 252524, Note_on_c, 13, 67, 0
18, 252540, Note_on_c, 13, 55, 59
18, 252584, Note_on_c, 13, 55, 0
18, 252600, Note_on_c, 13, 55, 60
18, 252704, Note_on_c, 13, 55, 0
18, 252720, Note_on_c, 13, 67, 62
18, 252884, Note_on_c, 13, 67, 0
18, 252900, Note_on_c, 13, 55, 65
18, 252944, Note_on_c, 13, 55, 0
18, 252960, Note_on_c, 13, 55, 66
18, 253064, Note_on_c, 13, 55, 0
18, 253080, Note_on_c, 13, 66, 68
18, 253244, Note_on_c, 13, 66, 0
18, 253260, Note_on_c, 13, 54, 64
18, 253304, Note_on_c, 13, 54, 0
18, 253320, Note_on_c, 13, 54, 63
18, 253424, Note_on_c, 13, 54, 0
18, 253440, Note_on_c, 13, 65, 60
18, 253604, Note_on_c, 13, 65, 0
18, 253620, Note_on_c, 13, 53, 56
18, 253664, Note_on_c, 13, 53, 0
18, 253680, Note_on_c, 13, 53, 55
18, 253784, Note_on_c, 13, 53, 0
18, 253800, Note_on_c, 13, 64, 52
18, 253964, Note_on_c, 13, 64, 0
18, 253980, Note_on_c, 13, 52, 48
18, 254024, Note_on_c, 13, 52, 0
18, 254040, Note_on_c, 13, 52, 47
18, 254144, Note_on_c, 13, 52, 0
18, 254160, Program_c, 13, 45
18, 254400, Note_on_c, 13, 69, 40
18, 254519, Note_on_c, 13, 69, 0
18, 254760, Note_on_c, 13, 69, 46
18, 254879, Note_on_c, 13, 69, 0
18, 255120, Note_on_c, 13, 71, 52
18, 255239, Note_on_c, 13, 71, 0
18, 255480, Note_on_c, 13, 64, 58
18, 255599, Note_on_c, 13, 64, 0
18, 255840, Note_on_c, 13, 64, 64
18, 255959, Note_on_c, 13, 64, 0
18, 256200, Note_on_c, 13, 62, 70
18, 256319, Note_on_c, 13, 62, 0
18, 256560, Note_on_c, 13, 62, 76
18, 256679, Note_on_c, 13, 62, 0
18, 256920, Note_on_c, 13, 67, 82
18, 257024, Note_on_c, 13, 67, 0
18, 257038, Program_c, 13, 48
18, 257040, Note_on_c, 13, 62, 92
18, 257204, Note_on_c, 13, 62, 0
18, 257220, Note_on_c, 13, 50, 92
18, 257264, Note_on_c, 13, 50, 0
18, 257280, Note_on_c, 13, 50, 92
18, 257384, Note_on_c, 13, 50, 0
18, 257400, Note_on_c, 13, 62, 92
18, 257564, Note_on_c, 13, 62, 0
18, 257580, Note_on_c, 13, 50, 92
18, 257624, Note_on_c, 13, 50, 0
18, 257640, Note_on_c, 13, 50, 92
18, 257744, Note_on_c, 13, 50, 0
18, 257760, Note_on_c, 13, 62, 92
18, 257924, Note_on_c, 13, 62, 0
18, 257940, Note_on_c, 13, 50, 92
18, 257984, Note_on_c, 13, 50, 0
18, 258000, Note_on_c, 13, 50, 92
18, 258104, Note_on_c, 13, 50, 0
18, 258120, Note_on_c, 13, 62, 92
18, 258284, Note_on_c, 13, 62, 0
18, 258300, Note_on_c, 13, 50, 92
18, 258344, Note_on_c, 13, 50, 0
18, 258360, Note_on_c, 13, 50, 92
18, 258464, Note_on_c, 13, 50, 0
18, 258480, Note_on_c, 13, 62, 92
18, 258644, Note_on_c, 13, 62, 0
18, 258660, Note_on_c, 13, 50, 92
18, 258704, Note_on_c, 13, 50, 0
18, 258720, Note_on_c, 13, 50, 92
18, 258824, Note_on_c, 13, 50, 0
18, 258840, Note_on_c, 13, 62, 92
18, 259004, Note_on_c, 13, 62, 0
18, 259020, Note_on_c, 13, 50, 92
18, 259064, Note_on_c, 13, 50, 0
18, 259080, Note_on_c, 13, 50, 92
18, 259184, Note_on_c, 13, 50, 0
18, 259200, Note_on_c, 13, 62, 92
18, 259364, Note_on_c, 13, 62, 0
18, 259380, Note_on_c, 13, 50, 92
18, 259424, Note_on_c, 13, 50, 0
18, 259440, Note_on_c, 13, 50, 92
18, 259544, Note_on_c, 13, 50, 0
18, 259560, Note_on_c, 13, 62, 92
18, 259724, Note_on_c, 13, 62, 0
18, 259740, Note_on_c, 13, 50, 92
18, 259784, Note_on_c, 13, 50, 0
18, 259800, Note_on_c, 13, 50, 92
18, 259904, Note_on_c, 13, 50, 0
18, 259920, Note_on_c, 13, 62, 92
18, 260084, Note_on_c, 13, 62, 0
18, 260100, Note_on_c, 13, 50, 92
18, 260144, Note_on_c, 13, 50, 0
18, 260160, Note_on_c, 13, 50, 92
18, 260264, Note_on_c, 13, 50, 0
18, 260280, Note_on_c, 13, 62, 92
18, 260444, Note_on_c, 13, 62, 0
18, 260460, Note_on_c, 13, 50, 92
18, 260504, Note_on_c, 13, 50, 0
18, 260520, Note_on_c, 13, 50, 92
18, 260624, Note_on_c, 13, 50, 0
18, 260640, Note_on_c, 13, 62, 92
18, 260804, Note_on_c, 13, 62, 0
18, 260820, Note_on_c, 13, 50, 92
18, 260864, Note_on_c, 13, 50, 0
18, 260880, Note_on_c, 13, 50, 92
18, 260984, Note_on_c, 13, 50, 0
18, 261000, Note_on_c, 13, 62, 92
18, 261164, Note_on_c, 13, 62, 0
18, 261180, Note_on_c, 13, 50, 92
18, 261224, Note_on_c, 13, 50, 0
18, 261240, Note_on_c, 13, 50, 92
18, 261344, Note_on_c, 13, 50, 0
18, 261360, Note_on_c, 13, 62, 92
18, 261524, Note_on_c, 13, 62, 0
18, 261540, Note_on_c, 13, 50, 92
18, 261584, Note_on_c, 13, 50, 0
18, 261600, Note_on_c, 13, 50, 92
18, 261704, Note_on_c, 13, 50, 0
18, 261720, Note_on_c, 13, 62, 92
18, 261884, Note_on_c, 13, 62, 0
18, 261900, Note_on_c, 13, 50, 92
18, 261944, Note_on_c, 13, 50, 0
18, 261960, Note_on_c, 13, 50, 92
18, 262064, Note_on_c, 13, 50, 0
18, 262080, Note_on_c, 13, 62, 92
18, 262244, Note_on_c, 13, 62, 0
18, 262260, Note_on_c, 13, 50, 92
18, 262304, Note_on_c, 13, 50, 0
18, 262320, Note_on_c, 13, 50, 92
18, 262424, Note_on_c, 13, 50, 0
18, 262440, Note_on_c, 13, 62, 92
18, 262604, Note_on_c, 13, 62, 0
18, 262620, Note_on_c, 13, 50, 92
18, 262664, Note_on_c, 13, 50, 0
18, 262680, Note_on_c, 13, 50, 92
18, 262784, Note_on_c, 13, 50, 0
18, 262800, Note_on_c, 13, 62, 92
18, 262919, Note_on_c, 13, 62, 0
18, 263520, Note_on_c, 13, 67, 92
18, 263684, Note_on_c, 13, 67, 0
18, 263700, Note_on_c, 13, 55, 92
18, 263744, Note_on_c, 13, 55, 0
18, 263760, Note_on_c, 13, 55, 92
18, 263864, Note_on_c, 13, 55, 0
18, 263880, Note_on_c, 13, 55, 92
18, 263984, Note_on_c, 13, 55, 0
18, 264000, Note_on_c, 13, 52, 92
18, 264104, Note_on_c, 13, 52, 0
18, 264120, Note_on_c, 13, 50, 92
18, 264224, Note_on_c, 13, 50, 0
18, 264240, Note_on_c, 13, 48, 92
18, 264240, Note_on_c, 13, 60, 92
18, 264359, Note_on_c, 13, 48, 0
18, 264359, Note_on_c, 13, 60, 0
18, 264960, Note_on_c, 13, 65, 92
18, 265124, Note_on_c, 13, 65, 0
18, 265140, Note_on_c, 13, 53, 92
18, 265184, Note_on_c, 13, 53, 0
18, 265200, Note_on_c, 13, 53, 92
18, 265304, Note_on_c, 13, 53, 0
18, 265320, Note_on_c, 13, 53, 92
18, 265424, Note_on_c, 13, 53, 0
18, 265440, Note_on_c, 13, 50, 92
18, 265544, Note_on_c, 13, 50, 0
18, 265560, Note_on_c, 13, 48, 92
18, 265664, Note_on_c, 13, 48, 0
18, 265678, Control_c, 13, 11, 87
18, 265680, Note_on_c, 13, 50, 68
18, 265799, Note_on_c, 13, 50, 0
18, 265800, Note_on_c, 13, 52, 68
18, 265919, Note_on_c, 13, 52, 0
18, 265920, Note_on_c, 13, 54, 68
18, 266039, Note_on_c, 13, 54, 0
18, 266040, Note_on_c, 13, 55, 68
18, 266400, Control_c, 13, 11, 87
18, 266435, Control_c, 13, 11, 89
18, 266470, Control_c, 13, 11, 90
18, 266505, Control_c, 13, 11, 92
18, 266519, Note_on_c, 13, 55, 0
18, 266520, Note_on_c, 13, 53, 68
18, 266540, Control_c, 13, 11, 94
18, 266575, Control_c, 13, 11, 95
18, 266610, Control_c, 13, 11, 97
18, 266639, Note_on_c, 13, 53, 0
18, 266640, Note_on_c, 13, 51, 68
18, 266645, Control_c, 13, 11, 99
18, 266680, Control_c, 13, 11, 100
18, 266715, Control_c, 13, 11, 102
18, 266744, Note_on_c, 13, 51, 0
18, 266750, Control_c, 13, 11, 104
18, 266760, Note_on_c, 13, 67, 68
18, 266785, Control_c, 13, 11, 105
18, 266820, Control_c, 13, 11, 107
18, 266855, Control_c, 13, 11, 109
18, 266879, Note_on_c, 13, 67, 0
18, 266880, Note_on_c, 13, 65, 68
18, 266890, Control_c, 13, 11, 110
18, 266925, Control_c, 13, 11, 112
18, 266960, Control_c, 13, 11, 114
18, 266995, Control_c, 13, 11, 115
18, 266999, Note_on_c, 13, 65, 0
18, 267000, Note_on_c, 13, 63, 68
18, 267030, Control_c, 13, 11, 117
18, 267065, Control_c, 13, 11, 119
18, 267100, Control_c, 13, 11, 120
18, 267104, Note_on_c, 13, 63, 0
18, 267120, Note_on_c, 13, 70, 68
18, 267135, Control_c, 13, 11, 122
18, 267170, Control_c, 13, 11, 124
18, 267205, Control_c, 13, 11, 125
18, 267239, Note_on_c, 13, 70, 0
18, 267240, Note_on_c, 13, 69, 68
18, 267359, Note_on_c, 13, 69, 0
18, 267360, Note_on_c, 13, 70, 68
18, 267360, Control_c, 13, 11, 127
18, 267387, Control_c, 13, 11, 125
18, 267413, Control_c, 13, 11, 123
18, 267440, Control_c, 13, 11, 120
18, 267467, Control_c, 13, 11, 118
18, 267493, Control_c, 13, 11, 116
18, 267520, Control_c, 13, 11, 114
18, 267547, Control_c, 13, 11, 111
18, 267573, Control_c, 13, 11, 109
18, 267599, Note_on_c, 13, 70, 0
18, 267600, Note_on_c, 13, 69, 68
18, 267600, Control_c, 13, 11, 107
18, 267627, Control_c, 13, 11, 105
18, 267653, Control_c, 13, 11, 103
18, 267680, Control_c, 13, 11, 100
18, 267707, Control_c, 13, 11, 98
18, 267719, Note_on_c, 13, 69, 0
18, 267720, Note_on_c, 13, 67, 68
18, 267733, Control_c, 13, 11, 96
18, 267760, Control_c, 13, 11, 94
18, 267787, Control_c, 13, 11, 91
18, 267813, Control_c, 13, 11, 89
18, 267839, Note_on_c, 13, 67, 0
18, 269640, Control_c, 13, 11, 127
18, 270000, Note_on_c, 13, 69, 80
18, 270089, Note_on_c, 13, 69, 0
18, 270120, Note_on_c, 13, 70, 80
18, 270209, Note_on_c, 13, 70, 0
18, 270240, Note_on_c, 13, 70, 80
18, 270329, Note_on_c, 13, 70, 0
18, 270360, Note_on_c, 13, 71, 80
18, 270449, Note_on_c, 13, 71, 0
18, 270480, Note_on_c, 13, 69, 80
18, 270569, Note_on_c, 13, 69, 0
18, 270600, Note_on_c, 13, 74, 80
18, 270600, Note_on_c, 13, 62, 80
18, 270689, Note_on_c, 13, 74, 0
18, 270689, Note_on_c, 13, 62, 0
18, 270720, Note_on_c, 13, 74, 80
18, 270720, Note_on_c, 13, 62, 80
18, 270809, Note_on_c, 13, 74, 0
18, 270809, Note_on_c, 13, 62, 0
18, 271440, Note_on_c, 13, 65, 80
18, 271529, Note_on_c, 13, 65, 0
18, 271560, Note_on_c, 13, 62, 80
18, 271649, Note_on_c, 13, 62, 0
18, 271680, Note_on_c, 13, 67, 80
18, 271769, Note_on_c, 13, 67, 0
18, 271800, Note_on_c, 13, 64, 80
18, 271889, Note_on_c, 13, 64, 0
18, 271920, Note_on_c, 13, 61, 80
18, 272009, Note_on_c, 13, 61, 0
18, 272040, Note_on_c, 13, 65, 80
18, 272129, Note_on_c, 13, 65, 0
18, 272160, Note_on_c, 13, 74, 80
18, 272160, Note_on_c, 13, 62, 80
18, 272279, Note_on_c, 13, 74, 0
18, 272279, Note_on_c, 13, 62, 0
18, 272520, Note_on_c, 13, 69, 80
18, 272684, Note_on_c, 13, 69, 0
18, 272700, Note_on_c, 13, 57, 80
18, 272744, Note_on_c, 13, 57, 0
18, 272760, Note_on_c, 13, 57, 80
18, 272864, Note_on_c, 13, 57, 0
18, 272880, Note_on_c, 13, 50, 80
18, 272999, Note_on_c, 13, 50, 0
18, 273240, Note_on_c, 13, 69, 80
18, 273404, Note_on_c, 13, 69, 0
18, 273420, Note_on_c, 13, 57, 80
18, 273464, Note_on_c, 13, 57, 0
18, 273480, Note_on_c, 13, 57, 80
18, 273584, Note_on_c, 13, 57, 0
18, 273600, Note_on_c, 13, 67, 32
18, 273719, Note_on_c, 13, 67, 0
18, 273720, Note_on_c, 13, 64, 32
18, 273839, Note_on_c, 13, 64, 0
18, 273840, Note_on_c, 13, 61, 32
18, 273959, Note_on_c, 13, 61, 0
18, 273960, Note_on_c, 13, 55, 32
18, 274079, Note_on_c, 13, 55, 0
18, 274080, Note_on_c, 13, 52, 32
18, 274199, Note_on_c, 13, 52, 0
18, 274200, Note_on_c, 13, 49, 32
18, 274319, Note_on_c, 13, 49, 0
18, 274320, Note_on_c, 13, 52, 32
18, 274439, Note_on_c, 13, 52, 0
18, 274440, Note_on_c, 13, 55, 32
18, 274559, Note_on_c, 13, 55, 0
18, 274560, Note_on_c, 13, 61, 32
18, 274799, Note_on_c, 13, 61, 0
18, 274800, Note_on_c, 13, 64, 32
18, 274919, Note_on_c, 13, 64, 0
18, 274920, Note_on_c, 13, 67, 32
18, 275024, Note_on_c, 13, 67, 0
18, 275040, Note_on_c, 13, 65, 32
18, 275204, Note_on_c, 13, 65, 0
18, 275220, Note_on_c, 13, 53, 32
18, 275264, Note_on_c, 13, 53, 0
18, 275280, Note_on_c, 13, 53, 32
18, 275384, Note_on_c, 13, 53, 0
18, 275400, Note_on_c, 13, 53, 32
18, 275519, Note_on_c, 13, 53, 0
18, 275760, Note_on_c, 13, 65, 32
18, 275924, Note_on_c, 13, 65, 0
18, 275940, Note_on_c, 13, 53, 32
18, 275984, Note_on_c, 13, 53, 0
18, 276000, Note_on_c, 13, 53, 32
18, 276104, Note_on_c, 13, 53, 0
18, 276120, Note_on_c, 13, 53, 32
18, 276239, Note_on_c, 13, 53, 0
18, 277920, Note_on_c, 13, 65, 32
18, 278084, Note_on_c, 13, 65, 0
18, 278100, Note_on_c, 13, 53, 36
18, 278144, Note_on_c, 13, 53, 0
18, 278160, Note_on_c, 13, 53, 37
18, 278264, Note_on_c, 13, 53, 0
18, 278280, Note_on_c, 13, 53, 40
18, 278399, Note_on_c, 13, 53, 0
18, 278640, Note_on_c, 13, 53, 48
18, 278804, Note_on_c, 13, 53, 0
18, 278820, Note_on_c, 13, 53, 52
18, 278864, Note_on_c, 13, 53, 0
18, 278880, Note_on_c, 13, 53, 53
18, 278984, Note_on_c, 13, 53, 0
18, 279000, Note_on_c, 13, 53, 56
18, 279119, Note_on_c, 13, 53, 0
18, 279360, Note_on_c, 13, 53, 64
18, 279524, Note_on_c, 13, 53, 0
18, 279540, Note_on_c, 13, 62, 68
18, 279584, Note_on_c, 13, 62, 0
18, 279600, Note_on_c, 13, 62, 69
18, 279704, Note_on_c, 13, 62, 0
18, 279720, Note_on_c, 13, 58, 72
18, 279720, Note_on_c, 13, 62, 72
18, 279839, Note_on_c, 13, 58, 0
18, 279839, Note_on_c, 13, 62, 0
18, 280080, Note_on_c, 13, 62, 80
18, 280080, Note_on_c, 13, 58, 80
18, 280244, Note_on_c, 13, 62, 0
18, 280244, Note_on_c, 13, 58, 0
18, 280260, Note_on_c, 13, 67, 80
18, 280304, Note_on_c, 13, 67, 0
18, 280320, Note_on_c, 13, 67, 80
18, 280424, Note_on_c, 13, 67, 0
18, 280440, Note_on_c, 13, 64, 92
18, 280440, Note_on_c, 13, 61, 92
18, 280559, Note_on_c, 13, 64, 0
18, 280559, Note_on_c, 13, 61, 0
18, 281160, Note_on_c, 13, 52, 32
18, 281249, Note_on_c, 13, 52, 0
18, 281280, Note_on_c, 13, 53, 32
18, 281369, Note_on_c, 13, 53, 0
18, 281400, Note_on_c, 13, 55, 32
18, 281504, Note_on_c, 13, 55, 0
18, 281520, Note_on_c, 13, 57, 32
18, 281609, Note_on_c, 13, 57, 0
18, 281640, Note_on_c, 13, 55, 32
18, 281729, Note_on_c, 13, 55, 0
18, 281760, Note_on_c, 13, 53, 32
18, 281849, Note_on_c, 13, 53, 0
18, 281880, Note_on_c, 13, 54, 32
18, 281969, Note_on_c, 13, 54, 0
18, 282000, Note_on_c, 13, 55, 32
18, 282089, Note_on_c, 13, 55, 0
18, 282120, Note_on_c, 13, 57, 32
18, 282209, Note_on_c, 13, 57, 0
18, 282240, Note_on_c, 13, 58, 32
18, 282329, Note_on_c, 13, 58, 0
18, 282360, Note_on_c, 13, 57, 32
18, 282449, Note_on_c, 13, 57, 0
18, 282480, Note_on_c, 13, 55, 32
18, 282569, Note_on_c, 13, 55, 0
18, 282600, Note_on_c, 13, 52, 32
18, 282689, Note_on_c, 13, 52, 0
18, 282720, Note_on_c, 13, 53, 32
18, 282809, Note_on_c, 13, 53, 0
18, 282840, Note_on_c, 13, 55, 32
18, 282944, Note_on_c, 13, 55, 0
18, 282960, Note_on_c, 13, 57, 32
18, 283049, Note_on_c, 13, 57, 0
18, 283080, Note_on_c, 13, 55, 32
18, 283169, Note_on_c, 13, 55, 0
18, 283200, Note_on_c, 13, 53, 32
18, 283289, Note_on_c, 13, 53, 0
18, 283320, Note_on_c, 13, 54, 32
18, 283409, Note_on_c, 13, 54, 0
18, 283440, Note_on_c, 13, 55, 32
18, 283529, Note_on_c, 13, 55, 0
18, 283560, Note_on_c, 13, 57, 32
18, 283649, Note_on_c, 13, 57, 0
18, 283680, Note_on_c, 13, 58, 32
18, 283769, Note_on_c, 13, 58, 0
18, 283800, Note_on_c, 13, 57, 32
18, 283889, Note_on_c, 13, 57, 0
18, 283920, Note_on_c, 13, 55, 32
18, 284009, Note_on_c, 13, 55, 0
18, 284040, Note_on_c, 13, 69, 32
18, 284204, Note_on_c, 13, 69, 0
18, 284220, Note_on_c, 13, 57, 35
18, 284264, Note_on_c, 13, 57, 0
18, 284280, Note_on_c, 13, 57, 37
18, 284384, Note_on_c, 13, 57, 0
18, 284400, Note_on_c, 13, 62, 39
18, 284489, Note_on_c, 13, 62, 0
18, 284520, Note_on_c, 13, 64, 42
18, 284609, Note_on_c, 13, 64, 0
18, 284640, Note_on_c, 13, 65, 44
18, 284729, Note_on_c, 13, 65, 0
18, 284760, Note_on_c, 13, 69, 47
18, 284924, Note_on_c, 13, 69, 0
18, 284940, Note_on_c, 13, 57, 50
18, 284984, Note_on_c, 13, 57, 0
18, 285000, Note_on_c, 13, 57, 52
18, 285104, Note_on_c, 13, 57, 0
18, 285120, Note_on_c, 13, 62, 54
18, 285209, Note_on_c, 13, 62, 0
18, 285240, Note_on_c, 13, 64, 57
18, 285329, Note_on_c, 13, 64, 0
18, 285360, Note_on_c, 13, 65, 59
18, 285449, Note_on_c, 13, 65, 0
18, 285480, Note_on_c, 13, 69, 62
18, 285644, Note_on_c, 13, 69, 0
18, 285660, Note_on_c, 13, 57, 65
18, 285704, Note_on_c, 13, 57, 0
18, 285720, Note_on_c, 13, 57, 67
18, 285824, Note_on_c, 13, 57, 0
18, 285840, Note_on_c, 13, 62, 69
18, 285929, Note_on_c, 13, 62, 0
18, 285960, Note_on_c, 13, 64, 72
18, 286049, Note_on_c, 13, 64, 0
18, 286080, Note_on_c, 13, 65, 74
18, 286169, Note_on_c, 13, 65, 0
18, 286200, Note_on_c, 13, 69, 77
18, 286364, Note_on_c, 13, 69, 0
18, 286380, Note_on_c, 13, 57, 80
18, 286424, Note_on_c, 13, 57, 0
18, 286440, Note_on_c, 13, 57, 82
18, 286544, Note_on_c, 13, 57, 0
18, 286560, Note_on_c, 13, 62, 84
18, 286649, Note_on_c, 13, 62, 0
18, 286680, Note_on_c, 13, 64, 87
18, 286769, Note_on_c, 13, 64, 0
18, 286800, Note_on_c, 13, 65, 89
18, 286889, Note_on_c, 13, 65, 0
18, 286920, Note_on_c, 13, 69, 92
18, 287009, Note_on_c, 13, 69, 0
18, 287040, Note_on_c, 13, 57, 92
18, 287129, Note_on_c, 13, 57, 0
18, 287160, Note_on_c, 13, 62, 80
18, 287249, Note_on_c, 13, 62, 0
18, 287280, Note_on_c, 13, 50, 80
18, 287369, Note_on_c, 13, 50, 0
18, 287400, Note_on_c, 13, 57, 80
18, 287489, Note_on_c, 13, 57, 0
18, 287520, Note_on_c, 13, 57, 80
18, 287609, Note_on_c, 13, 57, 0
18, 287640, Note_on_c, 13, 69, 80
18, 287729, Note_on_c, 13, 69, 0
18, 287760, Note_on_c, 13, 57, 80
18, 287849, Note_on_c, 13, 57, 0
18, 287880, Note_on_c, 13, 50, 80
18, 287969, Note_on_c, 13, 50, 0
18, 295800, Note_on_c, 13, 50, 44
18, 295919, Note_on_c, 13, 50, 0
18, 295920, Note_on_c, 13, 52, 44
18, 296039, Note_on_c, 13, 52, 0
18, 296040, Note_on_c, 13, 54, 44
18, 296159, Note_on_c, 13, 54, 0
18, 296160, Note_on_c, 13, 55, 44
18, 296279, Note_on_c, 13, 55, 0
18, 296280, Note_on_c, 13, 57, 44
18, 296399, Note_on_c, 13, 57, 0
18, 296400, Note_on_c, 13, 59, 44
18, 296499, Note_on_c, 13, 59, 0
18, 296520, Note_on_c, 13, 59, 44
18, 296639, Note_on_c, 13, 59, 0
18, 296640, Note_on_c, 13, 57, 44
18, 296759, Note_on_c, 13, 57, 0
18, 296760, Note_on_c, 13, 59, 44
18, 296879, Note_on_c, 13, 59, 0
18, 296880, Note_on_c, 13, 61, 45
18, 296999, Note_on_c, 13, 61, 0
18, 297000, Note_on_c, 13, 62, 47
18, 297119, Note_on_c, 13, 62, 0
18, 297120, Note_on_c, 13, 61, 49
18, 297239, Note_on_c, 13, 61, 0
18, 297240, Note_on_c, 13, 62, 50
18, 297359, Note_on_c, 13, 62, 0
18, 297360, Note_on_c, 13, 64, 52
18, 297459, Note_on_c, 13, 64, 0
18, 297480, Note_on_c, 13, 62, 54
18, 297599, Note_on_c, 13, 62, 0
18, 297600, Note_on_c, 13, 61, 56
18, 297719, Note_on_c, 13, 61, 0
18, 297720, Note_on_c, 13, 62, 57
18, 297839, Note_on_c, 13, 62, 0
18, 297840, Note_on_c, 13, 64, 59
18, 297959, Note_on_c, 13, 64, 0
18, 297960, Note_on_c, 13, 66, 61
18, 298079, Note_on_c, 13, 66, 0
18, 298080, Note_on_c, 13, 64, 62
18, 298199, Note_on_c, 13, 64, 0
18, 298200, Note_on_c, 13, 66, 64
18, 298319, Note_on_c, 13, 66, 0
18, 298320, Note_on_c, 13, 67, 66
18, 298419, Note_on_c, 13, 67, 0
18, 298440, Note_on_c, 13, 69, 68
18, 298679, Note_on_c, 13, 69, 0
18, 298680, Note_on_c, 13, 71, 68
18, 298799, Note_on_c, 13, 71, 0
18, 298800, Note_on_c, 13, 67, 56
18, 298899, Note_on_c, 13, 67, 0
18, 298920, Note_on_c, 13, 66, 44
18, 299039, Note_on_c, 13, 66, 0
18, 299160, Note_on_c, 13, 64, 44
18, 299279, Note_on_c, 13, 64, 0
18, 299400, Note_on_c, 13, 62, 44
18, 299519, Note_on_c, 13, 62, 0
18, 299640, Note_on_c, 13, 50, 44
18, 299759, Note_on_c, 13, 50, 0
18, 299760, Note_on_c, 13, 52, 44
18, 299879, Note_on_c, 13, 52, 0
18, 299880, Note_on_c, 13, 54, 44
18, 299999, Note_on_c, 13, 54, 0
18, 300000, Note_on_c, 13, 55, 44
18, 300119, Note_on_c, 13, 55, 0
18, 300120, Note_on_c, 13, 57, 44
18, 300239, Note_on_c, 13, 57, 0
18, 300240, Note_on_c, 13, 59, 44
18, 300339, Note_on_c, 13, 59, 0
18, 300360, Note_on_c, 13, 59, 44
18, 300479, Note_on_c, 13, 59, 0
18, 300480, Note_on_c, 13, 57, 44
18, 300599, Note_on_c, 13, 57, 0
18, 300600, Note_on_c, 13, 59, 44
18, 300719, Note_on_c, 13, 59, 0
18, 300720, Note_on_c, 13, 61, 45
18, 300839, Note_on_c, 13, 61, 0
18, 300840, Note_on_c, 13, 62, 47
18, 300959, Note_on_c, 13, 62, 0
18, 300960, Note_on_c, 13, 61, 49
18, 301079, Note_on_c, 13, 61, 0
18, 301080, Note_on_c, 13, 62, 50
18, 301199, Note_on_c, 13, 62, 0
18, 301200, Note_on_c, 13, 64, 52
18, 301299, Note_on_c, 13, 64, 0
18, 301320, Note_on_c, 13, 62, 54
18, 301439, Note_on_c, 13, 62, 0
18, 301440, Note_on_c, 13, 61, 56
18, 301559, Note_on_c, 13, 61, 0
18, 301560, Note_on_c, 13, 62, 57
18, 301679, Note_on_c, 13, 62, 0
18, 301680, Note_on_c, 13, 64, 59
18, 301799, Note_on_c, 13, 64, 0
18, 301800, Note_on_c, 13, 66, 61
18, 301919, Note_on_c, 13, 66, 0
18, 301920, Note_on_c, 13, 64, 62
18, 302039, Note_on_c, 13, 64, 0
18, 302040, Note_on_c, 13, 66, 64
18, 302159, Note_on_c, 13, 66, 0
18, 302160, Note_on_c, 13, 67, 66
18, 302259, Note_on_c, 13, 67, 0
18, 302280, Note_on_c, 13, 69, 68
18, 302519, Note_on_c, 13, 69, 0
18, 302520, Note_on_c, 13, 71, 68
18, 302639, Note_on_c, 13, 71, 0
18, 302640, Note_on_c, 13, 67, 56
18, 302739, Note_on_c, 13, 67, 0
18, 302760, Note_on_c, 13, 66, 44
18, 302879, Note_on_c, 13, 66, 0
18, 303000, Note_on_c, 13, 64, 44
18, 303119, Note_on_c, 13, 64, 0
18, 303240, Note_on_c, 13, 62, 44
18, 303359, Note_on_c, 13, 62, 0
18, 307320, Note_on_c, 13, 74, 44
18, 307409, Note_on_c, 13, 74, 0
18, 307440, Note_on_c, 13, 73, 44
18, 307529, Note_on_c, 13, 73, 0
18, 307560, Note_on_c, 13, 74, 44
18, 307649, Note_on_c, 13, 74, 0
18, 307680, Note_on_c, 13, 71, 44
18, 307769, Note_on_c, 13, 71, 0
18, 307800, Note_on_c, 13, 69, 44
18, 307889, Note_on_c, 13, 69, 0
18, 307920, Note_on_c, 13, 67, 44
18, 308009, Note_on_c, 13, 67, 0
18, 308040, Note_on_c, 13, 66, 44
18, 308129, Note_on_c, 13, 66, 0
18, 308160, Note_on_c, 13, 64, 44
18, 308249, Note_on_c, 13, 64, 0
18, 308280, Note_on_c, 13, 62, 44
18, 308369, Note_on_c, 13, 62, 0
18, 308400, Note_on_c, 13, 60, 44
18, 308489, Note_on_c, 13, 60, 0
18, 308520, Note_on_c, 13, 59, 44
18, 308609, Note_on_c, 13, 59, 0
18, 308640, Note_on_c, 13, 61, 44
18, 308729, Note_on_c, 13, 61, 0
18, 308760, Note_on_c, 13, 62, 44
18, 308849, Note_on_c, 13, 62, 0
18, 308880, Note_on_c, 13, 66, 44
18, 308969, Note_on_c, 13, 66, 0
18, 309000, Note_on_c, 13, 69, 44
18, 309089, Note_on_c, 13, 69, 0
18, 309120, Note_on_c, 13, 67, 44
18, 309209, Note_on_c, 13, 67, 0
18, 309240, Note_on_c, 13, 66, 44
18, 309329, Note_on_c, 13, 66, 0
18, 321000, Note_on_c, 13, 54, 80
18, 321059, Note_on_c, 13, 54, 0
18, 321060, Note_on_c, 13, 54, 44
18, 321119, Note_on_c, 13, 54, 0
18, 321240, Note_on_c, 13, 66, 44
18, 321329, Note_on_c, 13, 66, 0
18, 321360, Note_on_c, 13, 64, 44
18, 321449, Note_on_c, 13, 64, 0
18, 321480, Note_on_c, 13, 66, 44
18, 321569, Note_on_c, 13, 66, 0
18, 321600, Note_on_c, 13, 62, 45
18, 321689, Note_on_c, 13, 62, 0
18, 321720, Note_on_c, 13, 61, 46
18, 321809, Note_on_c, 13, 61, 0
18, 321840, Note_on_c, 13, 59, 47
18, 321929, Note_on_c, 13, 59, 0
18, 321960, Note_on_c, 13, 57, 48
18, 322049, Note_on_c, 13, 57, 0
18, 322080, Note_on_c, 13, 55, 50
18, 322169, Note_on_c, 13, 55, 0
18, 322200, Note_on_c, 13, 54, 51
18, 322289, Note_on_c, 13, 54, 0
18, 322320, Note_on_c, 13, 50, 52
18, 322409, Note_on_c, 13, 50, 0
18, 322440, Note_on_c, 13, 50, 53
18, 322529, Note_on_c, 13, 50, 0
18, 322560, Note_on_c, 13, 52, 54
18, 322649, Note_on_c, 13, 52, 0
18, 322680, Note_on_c, 13, 54, 56
18, 322769, Note_on_c, 13, 54, 0
18, 322800, Note_on_c, 13, 57, 57
18, 322889, Note_on_c, 13, 57, 0
18, 322920, Note_on_c, 13, 61, 58
18, 323009, Note_on_c, 13, 61, 0
18, 323040, Note_on_c, 13, 64, 59
18, 323129, Note_on_c, 13, 64, 0
18, 323160, Note_on_c, 13, 66, 60
18, 323249, Note_on_c, 13, 66, 0
18, 323280, Note_on_c, 13, 64, 62
18, 323369, Note_on_c, 13, 64, 0
18, 323400, Note_on_c, 13, 66, 63
18, 323489, Note_on_c, 13, 66, 0
18, 323520, Note_on_c, 13, 62, 64
18, 323609, Note_on_c, 13, 62, 0
18, 323640, Note_on_c, 13, 61, 65
18, 323729, Note_on_c, 13, 61, 0
18, 323760, Note_on_c, 13, 59, 66
18, 323849, Note_on_c, 13, 59, 0
18, 323880, Note_on_c, 13, 57, 68
18, 323969, Note_on_c, 13, 57, 0
18, 324000, Note_on_c, 13, 55, 69
18, 324089, Note_on_c, 13, 55, 0
18, 324120, Note_on_c, 13, 54, 70
18, 324209, Note_on_c, 13, 54, 0
18, 324240, Note_on_c, 13, 50, 71
18, 324329, Note_on_c, 13, 50, 0
18, 324360, Note_on_c, 13, 50, 72
18, 324449, Note_on_c, 13, 50, 0
18, 324480, Note_on_c, 13, 52, 74
18, 324569, Note_on_c, 13, 52, 0
18, 324600, Note_on_c, 13, 54, 75
18, 324689, Note_on_c, 13, 54, 0
18, 324720, Note_on_c, 13, 57, 76
18, 324809, Note_on_c, 13, 57, 0
18, 324840, Note_on_c, 13, 61, 77
18, 324929, Note_on_c, 13, 61, 0
18, 324960, Note_on_c, 13, 64, 78
18, 325049, Note_on_c, 13, 64, 0
18, 325080, Note_on_c, 13, 66, 80
18, 325169, Note_on_c, 13, 66, 0
18, 325200, Note_on_c, 13, 64, 80
18, 325289, Note_on_c, 13, 64, 0
18, 325320, Note_on_c, 13, 66, 80
18, 325409, Note_on_c, 13, 66, 0
18, 325440, Note_on_c, 13, 62, 80
18, 325529, Note_on_c, 13, 62, 0
18, 325560, Note_on_c, 13, 61, 80
18, 325649, Note_on_c, 13, 61, 0
18, 325680, Note_on_c, 13, 59, 80
18, 325769, Note_on_c, 13, 59, 0
18, 325800, Note_on_c, 13, 57, 80
18, 325889, Note_on_c, 13, 57, 0
18, 325920, Note_on_c, 13, 55, 80
18, 326009, Note_on_c, 13, 55, 0
18, 326040, Note_on_c, 13, 54, 80
18, 326129, Note_on_c, 13, 54, 0
18, 326160, Note_on_c, 13, 50, 80
18, 326249, Note_on_c, 13, 50, 0
18, 326280, Note_on_c, 13, 50, 80
18, 326369, Note_on_c, 13, 50, 0
18, 326400, Note_on_c, 13, 52, 80
18, 326489, Note_on_c, 13, 52, 0
18, 326520, Note_on_c, 13, 54, 80
18, 326609, Note_on_c, 13, 54, 0
18, 326640, Note_on_c, 13, 57, 80
18, 326729, Note_on_c, 13, 57, 0
18, 326760, Note_on_c, 13, 61, 80
18, 326849, Note_on_c, 13, 61, 0
18, 326880, Note_on_c, 13, 64, 80
18, 326969, Note_on_c, 13, 64, 0
18, 327000, Note_on_c, 13, 66, 80
18, 327089, Note_on_c, 13, 66, 0
18, 327120, Note_on_c, 13, 64, 80
18, 327209, Note_on_c, 13, 64, 0
18, 327240, Note_on_c, 13, 66, 80
18, 327329, Note_on_c, 13, 66, 0
18, 327360, Note_on_c, 13, 62, 80
18, 327449, Note_on_c, 13, 62, 0
18, 327480, Note_on_c, 13, 61, 80
18, 327569, Note_on_c, 13, 61, 0
18, 327600, Note_on_c, 13, 59, 80
18, 327689, Note_on_c, 13, 59, 0
18, 327720, Note_on_c, 13, 57, 80
18, 327809, Note_on_c, 13, 57, 0
18, 327840, Note_on_c, 13, 55, 80
18, 327929, Note_on_c, 13, 55, 0
18, 327960, Note_on_c, 13, 54, 80
18, 328049, Note_on_c, 13, 54, 0
18, 328080, Note_on_c, 13, 50, 80
18, 328169, Note_on_c, 13, 50, 0
18, 328200, Note_on_c, 13, 50, 80
18, 328289, Note_on_c, 13, 50, 0
18, 328320, Note_on_c, 13, 62, 80
18, 328409, Note_on_c, 13, 62, 0
18, 328440, Note_on_c, 13, 57, 80
18, 328529, Note_on_c, 13, 57, 0
18, 328560, Note_on_c, 13, 69, 80
18, 328649, Note_on_c, 13, 69, 0
18, 328680, Note_on_c, 13, 62, 80
18, 328680, Note_on_c, 13, 66, 80
18, 328799, Note_on_c, 13, 62, 0
18, 328799, Note_on_c, 13, 66, 0
18, 328920, Note_on_c, 13, 50, 44
18, 329039, Note_on_c, 13, 50, 0
18, 329040, Note_on_c, 13, 52, 44
18, 329159, Note_on_c, 13, 52, 0
18, 329160, Note_on_c, 13, 54, 44
18, 329279, Note_on_c, 13, 54, 0
18, 329280, Note_on_c, 13, 55, 44
18, 329399, Note_on_c, 13, 55, 0
18, 329400, Note_on_c, 13, 57, 44
18, 329519, Note_on_c, 13, 57, 0
18, 329520, Note_on_c, 13, 59, 44
18, 329619, Note_on_c, 13, 59, 0
18, 329640, Note_on_c, 13, 59, 44
18, 329759, Note_on_c, 13, 59, 0
18, 329760, Note_on_c, 13, 57, 44
18, 329879, Note_on_c, 13, 57, 0
18, 329880, Note_on_c, 13, 59, 44
18, 329999, Note_on_c, 13, 59, 0
18, 330000, Note_on_c, 13, 61, 45
18, 330119, Note_on_c, 13, 61, 0
18, 330120, Note_on_c, 13, 62, 47
18, 330239, Note_on_c, 13, 62, 0
18, 330240, Note_on_c, 13, 61, 49
18, 330359, Note_on_c, 13, 61, 0
18, 330360, Note_on_c, 13, 62, 50
18, 330479, Note_on_c, 13, 62, 0
18, 330480, Note_on_c, 13, 64, 52
18, 330579, Note_on_c, 13, 64, 0
18, 330600, Note_on_c, 13, 62, 54
18, 330719, Note_on_c, 13, 62, 0
18, 330720, Note_on_c, 13, 61, 56
18, 330839, Note_on_c, 13, 61, 0
18, 330840, Note_on_c, 13, 62, 57
18, 330959, Note_on_c, 13, 62, 0
18, 330960, Note_on_c, 13, 64, 59
18, 331079, Note_on_c, 13, 64, 0
18, 331080, Note_on_c, 13, 66, 61
18, 331199, Note_on_c, 13, 66, 0
18, 331200, Note_on_c, 13, 64, 62
18, 331319, Note_on_c, 13, 64, 0
18, 331320, Note_on_c, 13, 66, 64
18, 331439, Note_on_c, 13, 66, 0
18, 331440, Note_on_c, 13, 67, 66
18, 331539, Note_on_c, 13, 67, 0
18, 331560, Note_on_c, 13, 69, 68
18, 331799, Note_on_c, 13, 69, 0
18, 331800, Note_on_c, 13, 71, 68
18, 331919, Note_on_c, 13, 71, 0
18, 331920, Note_on_c, 13, 67, 56
18, 332019, Note_on_c, 13, 67, 0
18, 332040, Note_on_c, 13, 66, 44
18, 332159, Note_on_c, 13, 66, 0
18, 332280, Note_on_c, 13, 64, 44
18, 332399, Note_on_c, 13, 64, 0
18, 332520, Note_on_c, 13, 62, 44
18, 332639, Note_on_c, 13, 62, 0
18, 332760, Note_on_c, 13, 50, 44
18, 332879, Note_on_c, 13, 50, 0
18, 332880, Note_on_c, 13, 52, 44
18, 332999, Note_on_c, 13, 52, 0
18, 333000, Note_on_c, 13, 54, 44
18, 333119, Note_on_c, 13, 54, 0
18, 333120, Note_on_c, 13, 55, 44
18, 333239, Note_on_c, 13, 55, 0
18, 333240, Note_on_c, 13, 57, 44
18, 333359, Note_on_c, 13, 57, 0
18, 333360, Note_on_c, 13, 59, 44
18, 333459, Note_on_c, 13, 59, 0
18, 333480, Note_on_c, 13, 59, 44
18, 333599, Note_on_c, 13, 59, 0
18, 333600, Note_on_c, 13, 57, 44
18, 333719, Note_on_c, 13, 57, 0
18, 333720, Note_on_c, 13, 59, 44
18, 333839, Note_on_c, 13, 59, 0
18, 333840, Note_on_c, 13, 61, 45
18, 333959, Note_on_c, 13, 61, 0
18, 333960, Note_on_c, 13, 62, 47
18, 334079, Note_on_c, 13, 62, 0
18, 334080, Note_on_c, 13, 61, 49
18, 334199, Note_on_c, 13, 61, 0
18, 334200, Note_on_c, 13, 62, 50
18, 334319, Note_on_c, 13, 62, 0
18, 334320, Note_on_c, 13, 64, 52
18, 334419, Note_on_c, 13, 64, 0
18, 334440, Note_on_c, 13, 62, 54
18, 334559, Note_on_c, 13, 62, 0
18, 334560, Note_on_c, 13, 61, 56
18, 334679, Note_on_c, 13, 61, 0
18, 334680, Note_on_c, 13, 62, 57
18, 334799, Note_on_c, 13, 62, 0
18, 334800, Note_on_c, 13, 64, 59
18, 334919, Note_on_c, 13, 64, 0
18, 334920, Note_on_c, 13, 66, 61
18, 335039, Note_on_c, 13, 66, 0
18, 335040, Note_on_c, 13, 64, 62
18, 335159, Note_on_c, 13, 64, 0
18, 335160, Note_on_c, 13, 66, 64
18, 335279, Note_on_c, 13, 66, 0
18, 335280, Note_on_c, 13, 67, 66
18, 335379, Note_on_c, 13, 67, 0
18, 335400, Note_on_c, 13, 69, 68
18, 335639, Note_on_c, 13, 69, 0
18, 335640, Note_on_c, 13, 71, 68
18, 335759, Note_on_c, 13, 71, 0
18, 335760, Note_on_c, 13, 67, 56
18, 335859, Note_on_c, 13, 67, 0
18, 335880, Note_on_c, 13, 66, 44
18, 335999, Note_on_c, 13, 66, 0
18, 336120, Note_on_c, 13, 64, 44
18, 336239, Note_on_c, 13, 64, 0
18, 336360, Note_on_c, 13, 62, 44
18, 336479, Note_on_c, 13, 62, 0
18, 340440, Note_on_c, 13, 74, 44
18, 340529, Note_on_c, 13, 74, 0
18, 340560, Note_on_c, 13, 73, 44
18, 340649, Note_on_c, 13, 73, 0
18, 340680, Note_on_c, 13, 74, 44
18, 340769, Note_on_c, 13, 74, 0
18, 340800, Note_on_c, 13, 71, 44
18, 340889, Note_on_c, 13, 71, 0
18, 340920, Note_on_c, 13, 69, 44
18, 341009, Note_on_c, 13, 69, 0
18, 341040, Note_on_c, 13, 67, 44
18, 341129, Note_on_c, 13, 67, 0
18, 341160, Note_on_c, 13, 66, 44
18, 341249, Note_on_c, 13, 66, 0
18, 341280, Note_on_c, 13, 64, 44
18, 341369, Note_on_c, 13, 64, 0
18, 341400, Note_on_c, 13, 62, 44
18, 341489, Note_on_c, 13, 62, 0
18, 341520, Note_on_c, 13, 60, 44
18, 341609, Note_on_c, 13, 60, 0
18, 341640, Note_on_c, 13, 59, 44
18, 341729, Note_on_c, 13, 59, 0
18, 341760, Note_on_c, 13, 61, 44
18, 341849, Note_on_c, 13, 61, 0
18, 341880, Note_on_c, 13, 62, 44
18, 341969, Note_on_c, 13, 62, 0
18, 342000, Note_on_c, 13, 66, 44
18, 342089, Note_on_c, 13, 66, 0
18, 342120, Note_on_c, 13, 69, 44
18, 342209, Note_on_c, 13, 69, 0
18, 342240, Note_on_c, 13, 67, 44
18, 342329, Note_on_c, 13, 67, 0
18, 342360, Note_on_c, 13, 66, 44
18, 342449, Note_on_c, 13, 66, 0
18, 354120, Note_on_c, 13, 54, 80
18, 354179, Note_on_c, 13, 54, 0
18, 354180, Note_on_c, 13, 54, 44
18, 354239, Note_on_c, 13, 54, 0
18, 354360, Note_on_c, 13, 66, 44
18, 354449, Note_on_c, 13, 66, 0
18, 354480, Note_on_c, 13, 64, 44
18, 354569, Note_on_c, 13, 64, 0
18, 354600, Note_on_c, 13, 66, 44
18, 354689, Note_on_c, 13, 66, 0
18, 354720, Note_on_c, 13, 62, 45
18, 354809, Note_on_c, 13, 62, 0
18, 354840, Note_on_c, 13, 61, 46
18, 354929, Note_on_c, 13, 61, 0
18, 354960, Note_on_c, 13, 59, 47
18, 355049, Note_on_c, 13, 59, 0
18, 355080, Note_on_c, 13, 57, 48
18, 355169, Note_on_c, 13, 57, 0
18, 355200, Note_on_c, 13, 55, 50
18, 355289, Note_on_c, 13, 55, 0
18, 355320, Note_on_c, 13, 54, 51
18, 355409, Note_on_c, 13, 54, 0
18, 355440, Note_on_c, 13, 50, 52
18, 355529, Note_on_c, 13, 50, 0
18, 355560, Note_on_c, 13, 50, 53
18, 355649, Note_on_c, 13, 50, 0
18, 355680, Note_on_c, 13, 52, 54
18, 355769, Note_on_c, 13, 52, 0
18, 355800, Note_on_c, 13, 54, 56
18, 355889, Note_on_c, 13, 54, 0
18, 355920, Note_on_c, 13, 57, 57
18, 356009, Note_on_c, 13, 57, 0
18, 356040, Note_on_c, 13, 61, 58
18, 356129, Note_on_c, 13, 61, 0
18, 356160, Note_on_c, 13, 64, 59
18, 356249, Note_on_c, 13, 64, 0
18, 356280, Note_on_c, 13, 66, 60
18, 356369, Note_on_c, 13, 66, 0
18, 356400, Note_on_c, 13, 64, 62
18, 356489, Note_on_c, 13, 64, 0
18, 356520, Note_on_c, 13, 66, 63
18, 356609, Note_on_c, 13, 66, 0
18, 356640, Note_on_c, 13, 62, 64
18, 356729, Note_on_c, 13, 62, 0
18, 356760, Note_on_c, 13, 61, 65
18, 356849, Note_on_c, 13, 61, 0
18, 356880, Note_on_c, 13, 59, 66
18, 356969, Note_on_c, 13, 59, 0
18, 357000, Note_on_c, 13, 57, 68
18, 357089, Note_on_c, 13, 57, 0
18, 357120, Note_on_c, 13, 55, 69
18, 357209, Note_on_c, 13, 55, 0
18, 357240, Note_on_c, 13, 54, 70
18, 357329, Note_on_c, 13, 54, 0
18, 357360, Note_on_c, 13, 50, 71
18, 357449, Note_on_c, 13, 50, 0
18, 357480, Note_on_c, 13, 50, 72
18, 357569, Note_on_c, 13, 50, 0
18, 357600, Note_on_c, 13, 52, 74
18, 357689, Note_on_c, 13, 52, 0
18, 357720, Note_on_c, 13, 54, 75
18, 357809, Note_on_c, 13, 54, 0
18, 357840, Note_on_c, 13, 57, 76
18, 357929, Note_on_c, 13, 57, 0
18, 357960, Note_on_c, 13, 61, 77
18, 358049, Note_on_c, 13, 61, 0
18, 358080, Note_on_c, 13, 64, 78
18, 358169, Note_on_c, 13, 64, 0
18, 358200, Note_on_c, 13, 66, 80
18, 358289, Note_on_c, 13, 66, 0
18, 358320, Note_on_c, 13, 64, 80
18, 358409, Note_on_c, 13, 64, 0
18, 358440, Note_on_c, 13, 66, 80
18, 358529, Note_on_c, 13, 66, 0
18, 358560, Note_on_c, 13, 62, 80
18, 358649, Note_on_c, 13, 62, 0
18, 358680, Note_on_c, 13, 61, 80
18, 358769, Note_on_c, 13, 61, 0
18, 358800, Note_on_c, 13, 59, 80
18, 358889, Note_on_c, 13, 59, 0
18, 358920, Note_on_c, 13, 57, 80
18, 359009, Note_on_c, 13, 57, 0
18, 359040, Note_on_c, 13, 55, 80
18, 359129, Note_on_c, 13, 55, 0
18, 359160, Note_on_c, 13, 54, 80
18, 359249, Note_on_c, 13, 54, 0
18, 359280, Note_on_c, 13, 50, 80
18, 359369, Note_on_c, 13, 50, 0
18, 359400, Note_on_c, 13, 50, 80
18, 359489, Note_on_c, 13, 50, 0
18, 359520, Note_on_c, 13, 52, 80
18, 359609, Note_on_c, 13, 52, 0
18, 359640, Note_on_c, 13, 54, 80
18, 359729, Note_on_c, 13, 54, 0
18, 359760, Note_on_c, 13, 57, 80
18, 359849, Note_on_c, 13, 57, 0
18, 359880, Note_on_c, 13, 61, 80
18, 359969, Note_on_c, 13, 61, 0
18, 360000, Note_on_c, 13, 64, 80
18, 360089, Note_on_c, 13, 64, 0
18, 360120, Note_on_c, 13, 66, 80
18, 360209, Note_on_c, 13, 66, 0
18, 360240, Note_on_c, 13, 64, 80
18, 360329, Note_on_c, 13, 64, 0
18, 360360, Note_on_c, 13, 66, 80
18, 360449, Note_on_c, 13, 66, 0
18, 360480, Note_on_c, 13, 62, 80
18, 360569, Note_on_c, 13, 62, 0
18, 360600, Note_on_c, 13, 61, 80
18, 360689, Note_on_c, 13, 61, 0
18, 360720, Note_on_c, 13, 59, 80
18, 360809, Note_on_c, 13, 59, 0
18, 360840, Note_on_c, 13, 57, 80
18, 360929, Note_on_c, 13, 57, 0
18, 360960, Note_on_c, 13, 55, 80
18, 361049, Note_on_c, 13, 55, 0
18, 361080, Note_on_c, 13, 54, 80
18, 361169, Note_on_c, 13, 54, 0
18, 361200, Note_on_c, 13, 50, 80
18, 361289, Note_on_c, 13, 50, 0
18, 361320, Note_on_c, 13, 50, 80
18, 361409, Note_on_c, 13, 50, 0
18, 361440, Note_on_c, 13, 62, 80
18, 361529, Note_on_c, 13, 62, 0
18, 361560, Note_on_c, 13, 57, 80
18, 361649, Note_on_c, 13, 57, 0
18, 361680, Note_on_c, 13, 69, 80
18, 361769, Note_on_c, 13, 69, 0
18, 361800, Note_on_c, 13, 50, 80
18, 361860, Control_c, 13, 11, 67
18, 362499, Note_on_c, 13, 50, 0
18, 362520, Note_on_c, 13, 52, 80
18, 362739, Note_on_c, 13, 52, 0
18, 362760, Note_on_c, 13, 54, 80
18, 363119, Note_on_c, 13, 54, 0
18, 363120, Note_on_c, 13, 55, 80
18, 363179, Note_on_c, 13, 55, 0
18, 363180, Note_on_c, 13, 57, 80
18, 363219, Note_on_c, 13, 57, 0
18, 363240, Note_on_c, 13, 55, 80
18, 363329, Note_on_c, 13, 55, 0
18, 363360, Note_on_c, 13, 55, 80
18, 363449, Note_on_c, 13, 55, 0
18, 363480, Note_on_c, 13, 54, 80
18, 363569, Note_on_c, 13, 54, 0
18, 363600, Note_on_c, 13, 54, 80
18, 363689, Note_on_c, 13, 54, 0
18, 363720, Control_c, 13, 11, 67
18, 363720, Note_on_c, 13, 52, 80
18, 363784, Control_c, 13, 11, 68
18, 363848, Control_c, 13, 11, 69
18, 363912, Control_c, 13, 11, 70
18, 363939, Note_on_c, 13, 52, 0
18, 363960, Note_on_c, 13, 50, 80
18, 363976, Control_c, 13, 11, 71
18, 364040, Control_c, 13, 11, 72
18, 364104, Control_c, 13, 11, 73
18, 364168, Control_c, 13, 11, 74
18, 364232, Control_c, 13, 11, 75
18, 364296, Control_c, 13, 11, 76
18, 364360, Control_c, 13, 11, 77
18, 364419, Note_on_c, 13, 50, 0
18, 364424, Control_c, 13, 11, 78
18, 364440, Note_on_c, 13, 52, 80
18, 364488, Control_c, 13, 11, 79
18, 364552, Control_c, 13, 11, 80
18, 364616, Control_c, 13, 11, 81
18, 364659, Note_on_c, 13, 52, 0
18, 364680, Control_c, 13, 11, 82
18, 364680, Note_on_c, 13, 54, 80
18, 364744, Control_c, 13, 11, 83
18, 364808, Control_c, 13, 11, 84
18, 364872, Control_c, 13, 11, 85
18, 364899, Note_on_c, 13, 54, 0
18, 364920, Note_on_c, 13, 54, 80
18, 364936, Control_c, 13, 11, 86
18, 365000, Control_c, 13, 11, 87
18, 365064, Control_c, 13, 11, 88
18, 365128, Control_c, 13, 11, 89
18, 365192, Control_c, 13, 11, 90
18, 365256, Control_c, 13, 11, 91
18, 365320, Control_c, 13, 11, 92
18, 365379, Note_on_c, 13, 54, 0
18, 365384, Control_c, 13, 11, 93
18, 365400, Note_on_c, 13, 55, 80
18, 365448, Control_c, 13, 11, 94
18, 365512, Control_c, 13, 11, 95
18, 365576, Control_c, 13, 11, 96
18, 365619, Note_on_c, 13, 55, 0
18, 365640, Note_on_c, 13, 57, 80
18, 365640, Control_c, 13, 11, 97
18, 365704, Control_c, 13, 11, 98
18, 365768, Control_c, 13, 11, 99
18, 365832, Control_c, 13, 11, 100
18, 365859, Note_on_c, 13, 57, 0
18, 365880, Note_on_c, 13, 57, 80
18, 365896, Control_c, 13, 11, 101
18, 365960, Control_c, 13, 11, 102
18, 366024, Control_c, 13, 11, 103
18, 366088, Control_c, 13, 11, 104
18, 366152, Control_c, 13, 11, 105
18, 366216, Control_c, 13, 11, 106
18, 366280, Control_c, 13, 11, 107
18, 366339, Note_on_c, 13, 57, 0
18, 366344, Control_c, 13, 11, 108
18, 366360, Note_on_c, 13, 55, 80
18, 366408, Control_c, 13, 11, 109
18, 366472, Control_c, 13, 11, 110
18, 366536, Control_c, 13, 11, 111
18, 366579, Note_on_c, 13, 55, 0
18, 366600, Control_c, 13, 11, 112
18, 366600, Note_on_c, 13, 54, 80
18, 366664, Control_c, 13, 11, 113
18, 366728, Control_c, 13, 11, 114
18, 366792, Control_c, 13, 11, 115
18, 366819, Note_on_c, 13, 54, 0
18, 366840, Note_on_c, 13, 54, 80
18, 366840, Note_on_c, 13, 57, 80
18, 366856, Control_c, 13, 11, 116
18, 366920, Control_c, 13, 11, 117
18, 366984, Control_c, 13, 11, 118
18, 367048, Control_c, 13, 11, 119
18, 367112, Control_c, 13, 11, 120
18, 367176, Control_c, 13, 11, 121
18, 367240, Control_c, 13, 11, 122
18, 367299, Note_on_c, 13, 54, 0
18, 367299, Note_on_c, 13, 57, 0
18, 367304, Control_c, 13, 11, 123
18, 367320, Note_on_c, 13, 52, 80
18, 367320, Note_on_c, 13, 55, 80
18, 367368, Control_c, 13, 11, 124
18, 367432, Control_c, 13, 11, 125
18, 367496, Control_c, 13, 11, 127
18, 367539, Note_on_c, 13, 52, 0
18, 367539, Note_on_c, 13, 55, 0
18, 367560, Note_on_c, 13, 57, 80
18, 367560, Note_on_c, 13, 54, 80
18, 367739, Note_on_c, 13, 57, 0
18, 367739, Note_on_c, 13, 54, 0
18, 367800, Note_on_c, 13, 54, 80
18, 367979, Note_on_c, 13, 54, 0
18, 368040, Note_on_c, 13, 55, 80
18, 368040, Note_on_c, 13, 52, 80
18, 368219, Note_on_c, 13, 55, 0
18, 368219, Note_on_c, 13, 52, 0
18, 368280, Note_on_c, 13, 55, 80
18, 368280, Note_on_c, 13, 52, 80
18, 368459, Note_on_c, 13, 55, 0
18, 368459, Note_on_c, 13, 52, 0
18, 368520, Control_c, 13, 11, 127
18, 368520, Note_on_c, 13, 54, 80
18, 368560, Control_c, 13, 11, 125
18, 368600, Control_c, 13, 11, 122
18, 368640, Control_c, 13, 11, 120
18, 368680, Control_c, 13, 11, 117
18, 368699, Note_on_c, 13, 54, 0
18, 368720, Control_c, 13, 11, 115
18, 368760, Control_c, 13, 11, 112
18, 368760, Note_on_c, 13, 54, 80
18, 368800, Control_c, 13, 11, 110
18, 368840, Control_c, 13, 11, 107
18, 368880, Control_c, 13, 11, 105
18, 368920, Control_c, 13, 11, 102
18, 368939, Note_on_c, 13, 54, 0
18, 368960, Control_c, 13, 11, 100
18, 369000, Note_on_c, 13, 52, 80
18, 369000, Note_on_c, 13, 55, 80
18, 369000, Control_c, 13, 11, 97
18, 369040, Control_c, 13, 11, 95
18, 369080, Control_c, 13, 11, 92
18, 369120, Control_c, 13, 11, 90
18, 369160, Control_c, 13, 11, 87
18, 369179, Note_on_c, 13, 52, 0
18, 369179, Note_on_c, 13, 55, 0
18, 369200, Control_c, 13, 11, 85
18, 369240, Note_on_c, 13, 52, 80
18, 369240, Control_c, 13, 11, 82
18, 369240, Note_on_c, 13, 55, 80
18, 369280, Control_c, 13, 11, 80
18, 369320, Control_c, 13, 11, 77
18, 369360, Control_c, 13, 11, 75
18, 369400, Control_c, 13, 11, 72
18, 369419, Note_on_c, 13, 52, 0
18, 369419, Note_on_c, 13, 55, 0
18, 369440, Control_c, 13, 11, 70
18, 369472, Control_c, 13, 11, 67
18, 369480, Note_on_c, 13, 54, 80
18, 369699, Note_on_c, 13, 54, 0
18, 369720, Note_on_c, 13, 62, 80
18, 369720, Control_c, 13, 11, 67
18, 369780, Control_c, 13, 11, 68
18, 369809, Note_on_c, 13, 62, 0
18, 369840, Control_c, 13, 11, 69
18, 369840, Note_on_c, 13, 61, 80
18, 369900, Control_c, 13, 11, 70
18, 369929, Note_on_c, 13, 61, 0
18, 369960, Control_c, 13, 11, 71
18, 369960, Note_on_c, 13, 62, 80
18, 370020, Control_c, 13, 11, 72
18, 370049, Note_on_c, 13, 62, 0
18, 370080, Control_c, 13, 11, 73
18, 370080, Note_on_c, 13, 59, 80
18, 370140, Control_c, 13, 11, 74
18, 370169, Note_on_c, 13, 59, 0
18, 370200, Note_on_c, 13, 57, 80
18, 370200, Control_c, 13, 11, 75
18, 370260, Control_c, 13, 11, 76
18, 370289, Note_on_c, 13, 57, 0
18, 370320, Note_on_c, 13, 55, 80
18, 370320, Control_c, 13, 11, 77
18, 370380, Control_c, 13, 11, 78
18, 370409, Note_on_c, 13, 55, 0
18, 370440, Note_on_c, 13, 54, 80
18, 370440, Control_c, 13, 11, 79
18, 370500, Control_c, 13, 11, 80
18, 370529, Note_on_c, 13, 54, 0
18, 370560, Control_c, 13, 11, 81
18, 370560, Note_on_c, 13, 50, 80
18, 370620, Control_c, 13, 11, 82
18, 370649, Note_on_c, 13, 50, 0
18, 370680, Note_on_c, 13, 66, 80
18, 370680, Control_c, 13, 11, 83
18, 370740, Control_c, 13, 11, 84
18, 370769, Note_on_c, 13, 66, 0
18, 370800, Note_on_c, 13, 64, 80
18, 370800, Control_c, 13, 11, 85
18, 370860, Control_c, 13, 11, 86
18, 370889, Note_on_c, 13, 64, 0
18, 370920, Control_c, 13, 11, 87
18, 370920, Note_on_c, 13, 66, 80
18, 370980, Control_c, 13, 11, 88
18, 371009, Note_on_c, 13, 66, 0
18, 371040, Control_c, 13, 11, 89
18, 371040, Note_on_c, 13, 62, 80
18, 371100, Control_c, 13, 11, 90
18, 371129, Note_on_c, 13, 62, 0
18, 371160, Control_c, 13, 11, 91
18, 371160, Note_on_c, 13, 61, 80
18, 371220, Control_c, 13, 11, 92
18, 371249, Note_on_c, 13, 61, 0
18, 371280, Note_on_c, 13, 59, 80
18, 371280, Control_c, 13, 11, 93
18, 371340, Control_c, 13, 11, 94
18, 371369, Note_on_c, 13, 59, 0
18, 371400, Control_c, 13, 11, 95
18, 371400, Note_on_c, 13, 57, 80
18, 371460, Control_c, 13, 11, 96
18, 371489, Note_on_c, 13, 57, 0
18, 371520, Control_c, 13, 11, 97
18, 371520, Note_on_c, 13, 54, 80
18, 371580, Control_c, 13, 11, 98
18, 371609, Note_on_c, 13, 54, 0
18, 371640, Note_on_c, 13, 69, 80
18, 371640, Control_c, 13, 11, 99
18, 371700, Control_c, 13, 11, 100
18, 371729, Note_on_c, 13, 69, 0
18, 371760, Control_c, 13, 11, 101
18, 371760, Note_on_c, 13, 68, 80
18, 371820, Control_c, 13, 11, 102
18, 371849, Note_on_c, 13, 68, 0
18, 371880, Control_c, 13, 11, 103
18, 371880, Note_on_c, 13, 69, 80
18, 371940, Control_c, 13, 11, 104
18, 371969, Note_on_c, 13, 69, 0
18, 372000, Control_c, 13, 11, 105
18, 372000, Note_on_c, 13, 66, 80
18, 372060, Control_c, 13, 11, 106
18, 372089, Note_on_c, 13, 66, 0
18, 372120, Note_on_c, 13, 64, 80
18, 372120, Control_c, 13, 11, 107
18, 372180, Control_c, 13, 11, 108
18, 372209, Note_on_c, 13, 64, 0
18, 372240, Note_on_c, 13, 62, 80
18, 372240, Control_c, 13, 11, 109
18, 372300, Control_c, 13, 11, 110
18, 372329, Note_on_c, 13, 62, 0
18, 372360, Control_c, 13, 11, 111
18, 372360, Note_on_c, 13, 57, 80
18, 372420, Control_c, 13, 11, 112
18, 372449, Note_on_c, 13, 57, 0
18, 372480, Control_c, 13, 11, 113
18, 372480, Note_on_c, 13, 62, 80
18, 372540, Control_c, 13, 11, 114
18, 372569, Note_on_c, 13, 62, 0
18, 372600, Control_c, 13, 11, 115
18, 372600, Note_on_c, 13, 69, 80
18, 372660, Control_c, 13, 11, 116
18, 372689, Note_on_c, 13, 69, 0
18, 372720, Note_on_c, 13, 68, 80
18, 372720, Control_c, 13, 11, 117
18, 372780, Control_c, 13, 11, 118
18, 372809, Note_on_c, 13, 68, 0
18, 372840, Control_c, 13, 11, 119
18, 372840, Note_on_c, 13, 69, 80
18, 372900, Control_c, 13, 11, 120
18, 372929, Note_on_c, 13, 69, 0
18, 372960, Note_on_c, 13, 66, 80
18, 372960, Control_c, 13, 11, 121
18, 373020, Control_c, 13, 11, 122
18, 373049, Note_on_c, 13, 66, 0
18, 373080, Note_on_c, 13, 64, 80
18, 373080, Control_c, 13, 11, 123
18, 373140, Control_c, 13, 11, 124
18, 373169, Note_on_c, 13, 64, 0
18, 373200, Control_c, 13, 11, 125
18, 373200, Note_on_c, 13, 62, 80
18, 373260, Control_c, 13, 11, 127
18, 373289, Note_on_c, 13, 62, 0
18, 373320, Note_on_c, 13, 57, 80
18, 373409, Note_on_c, 13, 57, 0
18, 373440, Note_on_c, 13, 62, 80
18, 373529, Note_on_c, 13, 62, 0
18, 373560, Note_on_c, 13, 64, 80
18, 373649, Note_on_c, 13, 64, 0
18, 373680, Note_on_c, 13, 62, 80
18, 373769, Note_on_c, 13, 62, 0
18, 373800, Note_on_c, 13, 57, 80
18, 373889, Note_on_c, 13, 57, 0
18, 373920, Note_on_c, 13, 64, 80
18, 374009, Note_on_c, 13, 64, 0
18, 374040, Note_on_c, 13, 66, 80
18, 374129, Note_on_c, 13, 66, 0
18, 374160, Note_on_c, 13, 64, 80
18, 374249, Note_on_c, 13, 64, 0
18, 374280, Note_on_c, 13, 57, 80
18, 374369, Note_on_c, 13, 57, 0
18, 374400, Note_on_c, 13, 62, 80
18, 374489, Note_on_c, 13, 62, 0
18, 374520, Note_on_c, 13, 64, 79
18, 374609, Note_on_c, 13, 64, 0
18, 374640, Note_on_c, 13, 62, 78
18, 374729, Note_on_c, 13, 62, 0
18, 374760, Note_on_c, 13, 57, 77
18, 374849, Note_on_c, 13, 57, 0
18, 374880, Note_on_c, 13, 64, 76
18, 374969, Note_on_c, 13, 64, 0
18, 375000, Note_on_c, 13, 66, 75
18, 375089, Note_on_c, 13, 66, 0
18, 375120, Note_on_c, 13, 64, 74
18, 375209, Note_on_c, 13, 64, 0
18, 375240, Note_on_c, 13, 57, 73
18, 375329, Note_on_c, 13, 57, 0
18, 375360, Note_on_c, 13, 62, 72
18, 375449, Note_on_c, 13, 62, 0
18, 375480, Note_on_c, 13, 64, 71
18, 375569, Note_on_c, 13, 64, 0
18, 375600, Note_on_c, 13, 62, 70
18, 375689, Note_on_c, 13, 62, 0
18, 375720, Note_on_c, 13, 57, 69
18, 375809, Note_on_c, 13, 57, 0
18, 375840, Note_on_c, 13, 64, 68
18, 375929, Note_on_c, 13, 64, 0
18, 375960, Note_on_c, 13, 66, 68
18, 376049, Note_on_c, 13, 66, 0
18, 376080, Note_on_c, 13, 64, 67
18, 376169, Note_on_c, 13, 64, 0
18, 376200, Note_on_c, 13, 57, 66
18, 376289, Note_on_c, 13, 57, 0
18, 376320, Note_on_c, 13, 62, 65
18, 376409, Note_on_c, 13, 62, 0
18, 376440, Note_on_c, 13, 64, 64
18, 376529, Note_on_c, 13, 64, 0
18, 376560, Note_on_c, 13, 62, 63
18, 376649, Note_on_c, 13, 62, 0
18, 376680, Note_on_c, 13, 57, 62
18, 376769, Note_on_c, 13, 57, 0
18, 376800, Note_on_c, 13, 64, 61
18, 376889, Note_on_c, 13, 64, 0
18, 376920, Note_on_c, 13, 66, 60
18, 377009, Note_on_c, 13, 66, 0
18, 377040, Note_on_c, 13, 64, 59
18, 377129, Note_on_c, 13, 64, 0
18, 377160, Note_on_c, 13, 57, 58
18, 377249, Note_on_c, 13, 57, 0
18, 377280, Note_on_c, 13, 62, 57
18, 377369, Note_on_c, 13, 62, 0
18, 377400, Note_on_c, 13, 62, 56
18, 377519, Note_on_c, 13, 62, 0
18, 377520, Note_on_c, 13, 61, 56
18, 377639, Note_on_c, 13, 61, 0
18, 377640, Note_on_c, 13, 62, 55
18, 377759, Note_on_c, 13, 62, 0
18, 377760, Note_on_c, 13, 59, 54
18, 377879, Note_on_c, 13, 59, 0
18, 377880, Note_on_c, 13, 57, 53
18, 377999, Note_on_c, 13, 57, 0
18, 378000, Note_on_c, 13, 55, 52
18, 378119, Note_on_c, 13, 55, 0
18, 378120, Note_on_c, 13, 62, 51
18, 378239, Note_on_c, 13, 62, 0
18, 381240, Note_on_c, 13, 74, 92
18, 381404, Note_on_c, 13, 74, 0
18, 381420, Note_on_c, 13, 62, 92
18, 381464, Note_on_c, 13, 62, 0
18, 381480, Note_on_c, 13, 62, 92
18, 381599, Note_on_c, 13, 62, 0
18, 381960, Note_on_c, 13, 69, 104
18, 381989, Note_on_c, 13, 69, 0
18, 381990, Note_on_c, 13, 69, 92
18, 382109, Note_on_c, 13, 69, 0
18, 382140, Note_on_c, 13, 57, 92
18, 382184, Note_on_c, 13, 57, 0
18, 382200, Note_on_c, 13, 57, 92
18, 382319, Note_on_c, 13, 57, 0
18, 383040, Note_on_c, 13, 62, 92
18, 383204, Note_on_c, 13, 62, 0
18, 383220, Note_on_c, 13, 50, 92
18, 383264, Note_on_c, 13, 50, 0
18, 383280, Note_on_c, 13, 50, 92
18, 383399, Note_on_c, 13, 50, 0
18, 385560, Note_on_c, 13, 74, 32
18, 385724, Note_on_c, 13, 74, 0
18, 385740, Note_on_c, 13, 62, 32
18, 385784, Note_on_c, 13, 62, 0
18, 385800, Note_on_c, 13, 62, 32
18, 385904, Note_on_c, 13, 62, 0
18, 385920, Note_on_c, 13, 69, 32
18, 386009, Note_on_c, 13, 69, 0
18, 386040, Note_on_c, 13, 71, 32
18, 386129, Note_on_c, 13, 71, 0
18, 386160, Note_on_c, 13, 72, 32
18, 386249, Note_on_c, 13, 72, 0
18, 386280, Note_on_c, 13, 71, 32
18, 386369, Note_on_c, 13, 71, 0
18, 386400, Note_on_c, 13, 72, 32
18, 386489, Note_on_c, 13, 72, 0
18, 386520, Note_on_c, 13, 74, 32
18, 386609, Note_on_c, 13, 74, 0
18, 386640, Note_on_c, 13, 72, 32
18, 386729, Note_on_c, 13, 72, 0
18, 386760, Note_on_c, 13, 71, 32
18, 386849, Note_on_c, 13, 71, 0
18, 386880, Note_on_c, 13, 69, 32
18, 386969, Note_on_c, 13, 69, 0
18, 387000, Note_on_c, 13, 70, 32
18, 387089, Note_on_c, 13, 70, 0
18, 387120, Note_on_c, 13, 69, 32
18, 387209, Note_on_c, 13, 69, 0
18, 387240, Note_on_c, 13, 67, 32
18, 387329, Note_on_c, 13, 67, 0
18, 387360, Note_on_c, 13, 65, 32
18, 387449, Note_on_c, 13, 65, 0
18, 387480, Note_on_c, 13, 64, 32
18, 387569, Note_on_c, 13, 64, 0
18, 387600, Note_on_c, 13, 62, 32
18, 387689, Note_on_c, 13, 62, 0
18, 387720, Note_on_c, 13, 61, 32
18, 387809, Note_on_c, 13, 61, 0
18, 387840, Note_on_c, 13, 62, 32
18, 387929, Note_on_c, 13, 62, 0
18, 387960, Note_on_c, 13, 64, 32
18, 388049, Note_on_c, 13, 64, 0
18, 388080, Note_on_c, 13, 62, 32
18, 388169, Note_on_c, 13, 62, 0
18, 388200, Note_on_c, 13, 61, 32
18, 388289, Note_on_c, 13, 61, 0
18, 388320, Note_on_c, 13, 62, 32
18, 388409, Note_on_c, 13, 62, 0
18, 388440, Note_on_c, 13, 69, 32
18, 388529, Note_on_c, 13, 69, 0
18, 388560, Note_on_c, 13, 67, 32
18, 388649, Note_on_c, 13, 67, 0
18, 388680, Note_on_c, 13, 65, 32
18, 388769, Note_on_c, 13, 65, 0
18, 388800, Note_on_c, 13, 64, 32
18, 388889, Note_on_c, 13, 64, 0
18, 388920, Note_on_c, 13, 76, 32
18, 389009, Note_on_c, 13, 76, 0
18, 389040, Note_on_c, 13, 76, 32
18, 389129, Note_on_c, 13, 76, 0
18, 389160, Note_on_c, 13, 76, 32
18, 389249, Note_on_c, 13, 76, 0
18, 389280, Note_on_c, 13, 76, 32
18, 389369, Note_on_c, 13, 76, 0
18, 389400, Note_on_c, 13, 76, 32
18, 389489, Note_on_c, 13, 76, 0
18, 389520, Note_on_c, 13, 76, 32
18, 389609, Note_on_c, 13, 76, 0
18, 389640, Note_on_c, 13, 76, 32
18, 389729, Note_on_c, 13, 76, 0
18, 389760, Note_on_c, 13, 76, 32
18, 389849, Note_on_c, 13, 76, 0
18, 389880, Note_on_c, 13, 64, 32
18, 389969, Note_on_c, 13, 64, 0
18, 390000, Note_on_c, 13, 65, 32
18, 390089, Note_on_c, 13, 65, 0
18, 390120, Note_on_c, 13, 67, 32
18, 390209, Note_on_c, 13, 67, 0
18, 390240, Note_on_c, 13, 65, 32
18, 390329, Note_on_c, 13, 65, 0
18, 390360, Note_on_c, 13, 67, 32
18, 390449, Note_on_c, 13, 67, 0
18, 390480, Note_on_c, 13, 69, 32
18, 390569, Note_on_c, 13, 69, 0
18, 390600, Note_on_c, 13, 67, 32
18, 390689, Note_on_c, 13, 67, 0
18, 390720, Note_on_c, 13, 65, 32
18, 390809, Note_on_c, 13, 65, 0
18, 390840, Note_on_c, 13, 64, 32
18, 390929, Note_on_c, 13, 64, 0
18, 390960, Note_on_c, 13, 62, 32
18, 391049, Note_on_c, 13, 62, 0
18, 391080, Note_on_c, 13, 67, 32
18, 391169, Note_on_c, 13, 67, 0
18, 391200, Note_on_c, 13, 65, 32
18, 391289, Note_on_c, 13, 65, 0
18, 391320, Note_on_c, 13, 65, 32
18, 391409, Note_on_c, 13, 65, 0
18, 391440, Note_on_c, 13, 67, 32
18, 391529, Note_on_c, 13, 67, 0
18, 391560, Note_on_c, 13, 69, 32
18, 391649, Note_on_c, 13, 69, 0
18, 391680, Note_on_c, 13, 57, 32
18, 391769, Note_on_c, 13, 57, 0
18, 391800, Note_on_c, 13, 68, 32
18, 391889, Note_on_c, 13, 68, 0
18, 391920, Note_on_c, 13, 69, 32
18, 392009, Note_on_c, 13, 69, 0
18, 392040, Note_on_c, 13, 64, 32
18, 392129, Note_on_c, 13, 64, 0
18, 392160, Note_on_c, 13, 64, 32
18, 392249, Note_on_c, 13, 64, 0
18, 392280, Note_on_c, 13, 64, 32
18, 392369, Note_on_c, 13, 64, 0
18, 392400, Note_on_c, 13, 64, 32
18, 392489, Note_on_c, 13, 64, 0
18, 392520, Note_on_c, 13, 64, 32
18, 392609, Note_on_c, 13, 64, 0
18, 392640, Note_on_c, 13, 64, 32
18, 392729, Note_on_c, 13, 64, 0
18, 392760, Note_on_c, 13, 55, 32
18, 392849, Note_on_c, 13, 55, 0
18, 392880, Note_on_c, 13, 53, 32
18, 392969, Note_on_c, 13, 53, 0
18, 393000, Note_on_c, 13, 52, 32
18, 393089, Note_on_c, 13, 52, 0
18, 393120, Note_on_c, 13, 57, 32
18, 393209, Note_on_c, 13, 57, 0
18, 393240, Note_on_c, 13, 55, 32
18, 393329, Note_on_c, 13, 55, 0
18, 393360, Note_on_c, 13, 53, 32
18, 393449, Note_on_c, 13, 53, 0
18, 393480, Note_on_c, 13, 52, 32
18, 393569, Note_on_c, 13, 52, 0
18, 393600, Note_on_c, 13, 53, 32
18, 393689, Note_on_c, 13, 53, 0
18, 393720, Note_on_c, 13, 55, 32
18, 393809, Note_on_c, 13, 55, 0
18, 393840, Note_on_c, 13, 57, 32
18, 393929, Note_on_c, 13, 57, 0
18, 393960, Note_on_c, 13, 57, 32
18, 394049, Note_on_c, 13, 57, 0
18, 394080, Note_on_c, 13, 57, 32
18, 394169, Note_on_c, 13, 57, 0
18, 394200, Note_on_c, 13, 56, 32
18, 394289, Note_on_c, 13, 56, 0
18, 394320, Note_on_c, 13, 57, 32
18, 394409, Note_on_c, 13, 57, 0
18, 394440, Note_on_c, 13, 59, 32
18, 394529, Note_on_c, 13, 59, 0
18, 394560, Note_on_c, 13, 60, 32
18, 394649, Note_on_c, 13, 60, 0
18, 394680, Note_on_c, 13, 62, 32
18, 394769, Note_on_c, 13, 62, 0
18, 394800, Note_on_c, 13, 64, 32
18, 394889, Note_on_c, 13, 64, 0
18, 394920, Note_on_c, 13, 65, 32
18, 395009, Note_on_c, 13, 65, 0
18, 395040, Note_on_c, 13, 64, 32
18, 395129, Note_on_c, 13, 64, 0
18, 395160, Note_on_c, 13, 62, 32
18, 395249, Note_on_c, 13, 62, 0
18, 395280, Note_on_c, 13, 60, 32
18, 395369, Note_on_c, 13, 60, 0
18, 395400, Note_on_c, 13, 59, 32
18, 395489, Note_on_c, 13, 59, 0
18, 395520, Note_on_c, 13, 57, 32
18, 395609, Note_on_c, 13, 57, 0
18, 395640, Note_on_c, 13, 57, 32
18, 395729, Note_on_c, 13, 57, 0
18, 395760, Note_on_c, 13, 57, 32
18, 395849, Note_on_c, 13, 57, 0
18, 395880, Note_on_c, 13, 57, 32
18, 395969, Note_on_c, 13, 57, 0
18, 396000, Note_on_c, 13, 57, 32
18, 396089, Note_on_c, 13, 57, 0
18, 396120, Note_on_c, 13, 55, 32
18, 396209, Note_on_c, 13, 55, 0
18, 396240, Note_on_c, 13, 53, 32
18, 396329, Note_on_c, 13, 53, 0
18, 396360, Note_on_c, 13, 55, 32
18, 396449, Note_on_c, 13, 55, 0
18, 396480, Note_on_c, 13, 57, 32
18, 396569, Note_on_c, 13, 57, 0
18, 396600, Note_on_c, 13, 58, 32
18, 396689, Note_on_c, 13, 58, 0
18, 396720, Note_on_c, 13, 57, 32
18, 396809, Note_on_c, 13, 57, 0
18, 396840, Note_on_c, 13, 58, 32
18, 396929, Note_on_c, 13, 58, 0
18, 396960, Note_on_c, 13, 57, 32
18, 397049, Note_on_c, 13, 57, 0
18, 397080, Note_on_c, 13, 58, 32
18, 397169, Note_on_c, 13, 58, 0
18, 397200, Note_on_c, 13, 57, 33
18, 397289, Note_on_c, 13, 57, 0
18, 397320, Note_on_c, 13, 55, 35
18, 397409, Note_on_c, 13, 55, 0
18, 397440, Note_on_c, 13, 57, 37
18, 397529, Note_on_c, 13, 57, 0
18, 397560, Note_on_c, 13, 58, 38
18, 397649, Note_on_c, 13, 58, 0
18, 397680, Note_on_c, 13, 57, 40
18, 397769, Note_on_c, 13, 57, 0
18, 397800, Note_on_c, 13, 58, 42
18, 397889, Note_on_c, 13, 58, 0
18, 397920, Note_on_c, 13, 57, 43
18, 398009, Note_on_c, 13, 57, 0
18, 398040, Note_on_c, 13, 55, 45
18, 398129, Note_on_c, 13, 55, 0
18, 398160, Note_on_c, 13, 57, 47
18, 398249, Note_on_c, 13, 57, 0
18, 398280, Note_on_c, 13, 58, 48
18, 398369, Note_on_c, 13, 58, 0
18, 398400, Note_on_c, 13, 57, 50
18, 398489, Note_on_c, 13, 57, 0
18, 398520, Note_on_c, 13, 58, 52
18, 398609, Note_on_c, 13, 58, 0
18, 398640, Note_on_c, 13, 57, 53
18, 398729, Note_on_c, 13, 57, 0
18, 398760, Note_on_c, 13, 55, 55
18, 398849, Note_on_c, 13, 55, 0
18, 398880, Note_on_c, 13, 57, 57
18, 398969, Note_on_c, 13, 57, 0
18, 399000, Note_on_c, 13, 58, 58
18, 399089, Note_on_c, 13, 58, 0
18, 399120, Note_on_c, 13, 57, 60
18, 399209, Note_on_c, 13, 57, 0
18, 399240, Note_on_c, 13, 55, 62
18, 399329, Note_on_c, 13, 55, 0
18, 399360, Note_on_c, 13, 53, 63
18, 399449, Note_on_c, 13, 53, 0
18, 399480, Note_on_c, 13, 52, 65
18, 399569, Note_on_c, 13, 52, 0
18, 399600, Note_on_c, 13, 53, 67
18, 399689, Note_on_c, 13, 53, 0
18, 399720, Note_on_c, 13, 55, 68
18, 399809, Note_on_c, 13, 55, 0
18, 399840, Note_on_c, 13, 53, 70
18, 399929, Note_on_c, 13, 53, 0
18, 399960, Note_on_c, 13, 55, 72
18, 400049, Note_on_c, 13, 55, 0
18, 400080, Note_on_c, 13, 53, 73
18, 400169, Note_on_c, 13, 53, 0
18, 400200, Note_on_c, 13, 52, 75
18, 400289, Note_on_c, 13, 52, 0
18, 400320, Note_on_c, 13, 53, 77
18, 400409, Note_on_c, 13, 53, 0
18, 400440, Note_on_c, 13, 55, 78
18, 400529, Note_on_c, 13, 55, 0
18, 400560, Note_on_c, 13, 53, 80
18, 400649, Note_on_c, 13, 53, 0
18, 400680, Note_on_c, 13, 55, 82
18, 400769, Note_on_c, 13, 55, 0
18, 400800, Note_on_c, 13, 53, 83
18, 400889, Note_on_c, 13, 53, 0
18, 400920, Note_on_c, 13, 52, 85
18, 401009, Note_on_c, 13, 52, 0
18, 401040, Note_on_c, 13, 64, 87
18, 401129, Note_on_c, 13, 64, 0
18, 401160, Note_on_c, 13, 62, 88
18, 401249, Note_on_c, 13, 62, 0
18, 401280, Note_on_c, 13, 61, 90
18, 401369, Note_on_c, 13, 61, 0
18, 401400, Note_on_c, 13, 65, 92
18, 401400, Note_on_c, 13, 57, 92
18, 401400, Note_on_c, 13, 74, 92
18, 401519, Note_on_c, 13, 65, 0
18, 401519, Note_on_c, 13, 57, 0
18, 401519, Note_on_c, 13, 74, 0
18, 401760, Note_on_c, 13, 74, 92
18, 401760, Note_on_c, 13, 65, 92
18, 401760, Note_on_c, 13, 57, 92
18, 401879, Note_on_c, 13, 74, 0
18, 401879, Note_on_c, 13, 65, 0
18, 401879, Note_on_c, 13, 57, 0
18, 402120, Note_on_c, 13, 73, 92
18, 402120, Note_on_c, 13, 69, 92
18, 402239, Note_on_c, 13, 73, 0
18, 402239, Note_on_c, 13, 69, 0
18, 402480, Note_on_c, 13, 62, 92
18, 402480, Note_on_c, 13, 74, 92
18, 402599, Note_on_c, 13, 62, 0
18, 402599, Note_on_c, 13, 74, 0
18, 402840, Note_on_c, 13, 55, 80
18, 402840, Note_on_c, 13, 74, 80
18, 402840, Note_on_c, 13, 62, 80
18, 402959, Note_on_c, 13, 55, 0
18, 402959, Note_on_c, 13, 74, 0
18, 402959, Note_on_c, 13, 62, 0
18, 403200, Note_on_c, 13, 57, 80
18, 403200, Note_on_c, 13, 65, 80
18, 403200, Note_on_c, 13, 74, 80
18, 403319, Note_on_c, 13, 57, 0
18, 403319, Note_on_c, 13, 65, 0
18, 403319, Note_on_c, 13, 74, 0
18, 403560, Note_on_c, 13, 76, 80
18, 403560, Note_on_c, 13, 57, 80
18, 403560, Note_on_c, 13, 67, 80
18, 403679, Note_on_c, 13, 76, 0
18, 403679, Note_on_c, 13, 57, 0
18, 403679, Note_on_c, 13, 67, 0
18, 403920, Note_on_c, 13, 65, 80
18, 403920, Note_on_c, 13, 69, 80
18, 404039, Note_on_c, 13, 65, 0
18, 404039, Note_on_c, 13, 69, 0
18, 404280, Note_on_c, 13, 67, 80
18, 404280, Note_on_c, 13, 55, 80
18, 404399, Note_on_c, 13, 67, 0
18, 404399, Note_on_c, 13, 55, 0
18, 404640, Note_on_c, 13, 74, 80
18, 404640, Note_on_c, 13, 57, 80
18, 404640, Note_on_c, 13, 65, 80
18, 404759, Note_on_c, 13, 74, 0
18, 404759, Note_on_c, 13, 57, 0
18, 404759, Note_on_c, 13, 65, 0
18, 405000, Note_on_c, 13, 57, 80
18, 405000, Note_on_c, 13, 76, 80
18, 405000, Note_on_c, 13, 67, 80
18, 405119, Note_on_c, 13, 57, 0
18, 405119, Note_on_c, 13, 76, 0
18, 405119, Note_on_c, 13, 67, 0
18, 405360, Note_on_c, 13, 65, 80
18, 405360, Note_on_c, 13, 69, 80
18, 405479, Note_on_c, 13, 65, 0
18, 405479, Note_on_c, 13, 69, 0
18, 405600, Note_on_c, 13, 71, 80
18, 405600, Note_on_c, 13, 65, 80
18, 405704, Note_on_c, 13, 71, 0
18, 405704, Note_on_c, 13, 65, 0
18, 405720, Note_on_c, 13, 62, 80
18, 405720, Note_on_c, 13, 71, 80
18, 405720, Note_on_c, 13, 55, 80
18, 405839, Note_on_c, 13, 62, 0
18, 405839, Note_on_c, 13, 71, 0
18, 405839, Note_on_c, 13, 55, 0
18, 406080, Note_on_c, 13, 76, 80
18, 406080, Note_on_c, 13, 55, 80
18, 406080, Note_on_c, 13, 64, 80
18, 406199, Note_on_c, 13, 76, 0
18, 406199, Note_on_c, 13, 55, 0
18, 406199, Note_on_c, 13, 64, 0
18, 406440, Note_on_c, 13, 65, 80
18, 406440, Note_on_c, 13, 55, 80
18, 406440, Note_on_c, 13, 74, 80
18, 406559, Note_on_c, 13, 65, 0
18, 406559, Note_on_c, 13, 55, 0
18, 406559, Note_on_c, 13, 74, 0
18, 406800, Note_on_c, 13, 64, 80
18, 406800, Note_on_c, 13, 55, 80
18, 406904, Note_on_c, 13, 64, 0
18, 406904, Note_on_c, 13, 55, 0
18, 406920, Note_on_c, 13, 65, 80
18, 406920, Note_on_c, 13, 55, 80
18, 407024, Note_on_c, 13, 65, 0
18, 407024, Note_on_c, 13, 55, 0
18, 407040, Note_on_c, 13, 55, 80
18, 407040, Note_on_c, 13, 65, 80
18, 407144, Note_on_c, 13, 55, 0
18, 407144, Note_on_c, 13, 65, 0
18, 407160, Note_on_c, 13, 65, 80
18, 407160, Note_on_c, 13, 74, 80
18, 407160, Note_on_c, 13, 55, 80
18, 407279, Note_on_c, 13, 65, 0
18, 407279, Note_on_c, 13, 74, 0
18, 407279, Note_on_c, 13, 55, 0
18, 407520, Note_on_c, 13, 64, 80
18, 407520, Note_on_c, 13, 76, 80
18, 407520, Note_on_c, 13, 55, 80
18, 407639, Note_on_c, 13, 64, 0
18, 407639, Note_on_c, 13, 76, 0
18, 407639, Note_on_c, 13, 55, 0
18, 407880, Note_on_c, 13, 72, 80
18, 407880, Note_on_c, 13, 55, 80
18, 407880, Note_on_c, 13, 64, 80
18, 407999, Note_on_c, 13, 72, 0
18, 407999, Note_on_c, 13, 55, 0
18, 407999, Note_on_c, 13, 64, 0
18, 408240, Note_on_c, 13, 72, 80
18, 408240, Note_on_c, 13, 64, 80
18, 408240, Note_on_c, 13, 55, 80
18, 408359, Note_on_c, 13, 72, 0
18, 408359, Note_on_c, 13, 64, 0
18, 408359, Note_on_c, 13, 55, 0
18, 408600, Note_on_c, 13, 55, 80
18, 408600, Note_on_c, 13, 67, 80
18, 408719, Note_on_c, 13, 55, 0
18, 408719, Note_on_c, 13, 67, 0
18, 408960, Control_c, 13, 11, 87
18, 409680, Note_on_c, 13, 65, 68
18, 409680, Control_c, 13, 11, 87
18, 409710, Control_c, 13, 11, 89
18, 409740, Control_c, 13, 11, 90
18, 409770, Control_c, 13, 11, 92
18, 409800, Control_c, 13, 11, 94
18, 409830, Control_c, 13, 11, 95
18, 409844, Note_on_c, 13, 65, 0
18, 409860, Control_c, 13, 11, 97
18, 409860, Note_on_c, 13, 69, 68
18, 409890, Control_c, 13, 11, 99
18, 409904, Note_on_c, 13, 69, 0
18, 409920, Control_c, 13, 11, 100
18, 409920, Note_on_c, 13, 69, 68
18, 409950, Control_c, 13, 11, 102
18, 409980, Control_c, 13, 11, 104
18, 410010, Control_c, 13, 11, 105
18, 410024, Note_on_c, 13, 69, 0
18, 410040, Note_on_c, 13, 65, 68
18, 410040, Control_c, 13, 11, 107
18, 410070, Control_c, 13, 11, 109
18, 410100, Control_c, 13, 11, 110
18, 410130, Control_c, 13, 11, 112
18, 410160, Control_c, 13, 11, 114
18, 410190, Control_c, 13, 11, 115
18, 410204, Note_on_c, 13, 65, 0
18, 410220, Control_c, 13, 11, 117
18, 410220, Note_on_c, 13, 68, 68
18, 410250, Control_c, 13, 11, 119
18, 410264, Note_on_c, 13, 68, 0
18, 410280, Note_on_c, 13, 68, 68
18, 410280, Control_c, 13, 11, 120
18, 410310, Control_c, 13, 11, 122
18, 410340, Control_c, 13, 11, 124
18, 410370, Control_c, 13, 11, 125
18, 410384, Note_on_c, 13, 68, 0
18, 410400, Note_on_c, 13, 64, 68
18, 410520, Control_c, 13, 11, 127
18, 410560, Control_c, 13, 11, 125
18, 410564, Note_on_c, 13, 64, 0
18, 410580, Note_on_c, 13, 67, 68
18, 410600, Control_c, 13, 11, 124
18, 410624, Note_on_c, 13, 67, 0
18, 410640, Note_on_c, 13, 67, 68
18, 410640, Control_c, 13, 11, 122
18, 410680, Control_c, 13, 11, 120
18, 410720, Control_c, 13, 11, 119
18, 410744, Note_on_c, 13, 67, 0
18, 410760, Control_c, 13, 11, 117
18, 410760, Note_on_c, 13, 63, 68
18, 410800, Control_c, 13, 11, 115
18, 410840, Control_c, 13, 11, 114
18, 410880, Control_c, 13, 11, 112
18, 410920, Control_c, 13, 11, 110
18, 410924, Note_on_c, 13, 63, 0
18, 410940, Note_on_c, 13, 67, 68
18, 410960, Control_c, 13, 11, 109
18, 410984, Note_on_c, 13, 67, 0
18, 411000, Control_c, 13, 11, 107
18, 411000, Note_on_c, 13, 67, 68
18, 411040, Control_c, 13, 11, 105
18, 411080, Control_c, 13, 11, 104
18, 411104, Note_on_c, 13, 67, 0
18, 411120, Control_c, 13, 11, 102
18, 411120, Note_on_c, 13, 62, 68
18, 411160, Control_c, 13, 11, 100
18, 411200, Control_c, 13, 11, 99
18, 411240, Control_c, 13, 11, 97
18, 411280, Control_c, 13, 11, 95
18, 411284, Note_on_c, 13, 62, 0
18, 411300, Note_on_c, 13, 67, 68
18, 411320, Control_c, 13, 11, 94
18, 411344, Note_on_c, 13, 67, 0
18, 411360, Note_on_c, 13, 67, 68
18, 411360, Control_c, 13, 11, 92
18, 411400, Control_c, 13, 11, 90
18, 411440, Control_c, 13, 11, 89
18, 411464, Note_on_c, 13, 67, 0
18, 411478, Control_c, 13, 11, 47
18, 411480, Control_c, 13, 11, 47
18, 411480, Note_on_c, 13, 67, 92
18, 411528, Control_c, 13, 11, 48
18, 411576, Control_c, 13, 11, 50
18, 411624, Control_c, 13, 11, 51
18, 411644, Note_on_c, 13, 67, 0
18, 411660, Note_on_c, 13, 55, 92
18, 411672, Control_c, 13, 11, 52
18, 411704, Note_on_c, 13, 55, 0
18, 411720, Note_on_c, 13, 55, 92
18, 411720, Control_c, 13, 11, 54
18, 411768, Control_c, 13, 11, 55
18, 411816, Control_c, 13, 11, 56
18, 411824, Note_on_c, 13, 55, 0
18, 411840, Note_on_c, 13, 67, 92
18, 411864, Control_c, 13, 11, 58
18, 411912, Control_c, 13, 11, 59
18, 411960, Control_c, 13, 11, 60
18, 412004, Note_on_c, 13, 67, 0
18, 412008, Control_c, 13, 11, 62
18, 412020, Note_on_c, 13, 55, 92
18, 412056, Control_c, 13, 11, 63
18, 412064, Note_on_c, 13, 55, 0
18, 412080, Note_on_c, 13, 55, 92
18, 412104, Control_c, 13, 11, 64
18, 412152, Control_c, 13, 11, 66
18, 412184, Note_on_c, 13, 55, 0
18, 412200, Control_c, 13, 11, 67
18, 412200, Note_on_c, 13, 67, 92
18, 412248, Control_c, 13, 11, 68
18, 412296, Control_c, 13, 11, 70
18, 412344, Control_c, 13, 11, 71
18, 412364, Note_on_c, 13, 67, 0
18, 412380, Note_on_c, 13, 55, 92
18, 412392, Control_c, 13, 11, 72
18, 412424, Note_on_c, 13, 55, 0
18, 412440, Control_c, 13, 11, 74
18, 412440, Note_on_c, 13, 55, 92
18, 412488, Control_c, 13, 11, 75
18, 412536, Control_c, 13, 11, 76
18, 412544, Note_on_c, 13, 55, 0
18, 412560, Note_on_c, 13, 65, 92
18, 412584, Control_c, 13, 11, 78
18, 412632, Control_c, 13, 11, 79
18, 412680, Control_c, 13, 11, 80
18, 412724, Note_on_c, 13, 65, 0
18, 412728, Control_c, 13, 11, 82
18, 412740, Note_on_c, 13, 53, 92
18, 412776, Control_c, 13, 11, 83
18, 412784, Note_on_c, 13, 53, 0
18, 412800, Note_on_c, 13, 53, 92
18, 412824, Control_c, 13, 11, 84
18, 412872, Control_c, 13, 11, 86
18, 412904, Note_on_c, 13, 53, 0
18, 412920, Note_on_c, 13, 65, 92
18, 412920, Control_c, 13, 11, 87
18, 412968, Control_c, 13, 11, 88
18, 413016, Control_c, 13, 11, 90
18, 413064, Control_c, 13, 11, 91
18, 413084, Note_on_c, 13, 65, 0
18, 413100, Note_on_c, 13, 53, 92
18, 413112, Control_c, 13, 11, 92
18, 413144, Note_on_c, 13, 53, 0
18, 413160, Control_c, 13, 11, 94
18, 413160, Note_on_c, 13, 53, 92
18, 413208, Control_c, 13, 11, 95
18, 413256, Control_c, 13, 11, 96
18, 413264, Note_on_c, 13, 53, 0
18, 413280, Note_on_c, 13, 64, 92
18, 413304, Control_c, 13, 11, 98
18, 413352, Control_c, 13, 11, 99
18, 413400, Control_c, 13, 11, 100
18, 413444, Note_on_c, 13, 64, 0
18, 413448, Control_c, 13, 11, 102
18, 413460, Note_on_c, 13, 52, 92
18, 413496, Control_c, 13, 11, 103
18, 413504, Note_on_c, 13, 52, 0
18, 413520, Note_on_c, 13, 52, 92
18, 413544, Control_c, 13, 11, 104
18, 413592, Control_c, 13, 11, 106
18, 413624, Note_on_c, 13, 52, 0
18, 413640, Note_on_c, 13, 63, 92
18, 413640, Control_c, 13, 11, 107
18, 413688, Control_c, 13, 11, 108
18, 413736, Control_c, 13, 11, 110
18, 413784, Control_c, 13, 11, 111
18, 413804, Note_on_c, 13, 63, 0
18, 413820, Note_on_c, 13, 51, 92
18, 413832, Control_c, 13, 11, 112
18, 413864, Note_on_c, 13, 51, 0
18, 413880, Control_c, 13, 11, 114
18, 413880, Note_on_c, 13, 51, 92
18, 413928, Control_c, 13, 11, 115
18, 413976, Control_c, 13, 11, 116
18, 413984, Note_on_c, 13, 51, 0
18, 414000, Note_on_c, 13, 62, 92
18, 414024, Control_c, 13, 11, 118
18, 414072, Control_c, 13, 11, 119
18, 414120, Control_c, 13, 11, 120
18, 414164, Note_on_c, 13, 62, 0
18, 414168, Control_c, 13, 11, 122
18, 414180, Note_on_c, 13, 50, 92
18, 414216, Control_c, 13, 11, 123
18, 414224, Note_on_c, 13, 50, 0
18, 414240, Note_on_c, 13, 50, 92
18, 414264, Control_c, 13, 11, 124
18, 414312, Control_c, 13, 11, 127
18, 414344, Note_on_c, 13, 50, 0
18, 414360, Note_on_c, 13, 60, 92
18, 414524, Note_on_c, 13, 60, 0
18, 414540, Note_on_c, 13, 48, 92
18, 414584, Note_on_c, 13, 48, 0
18, 414600, Note_on_c, 13, 48, 92
18, 414704, Note_on_c, 13, 48, 0
18, 414720, Note_on_c, 13, 60, 92
18, 414884, Note_on_c, 13, 60, 0
18, 414900, Note_on_c, 13, 48, 92
18, 414944, Note_on_c, 13, 48, 0
18, 414960, Note_on_c, 13, 48, 92
18, 415064, Note_on_c, 13, 48, 0
18, 415080, Note_on_c, 13, 60, 92
18, 415244, Note_on_c, 13, 60, 0
18, 415260, Note_on_c, 13, 48, 92
18, 415304, Note_on_c, 13, 48, 0
18, 415320, Note_on_c, 13, 48, 92
18, 415424, Note_on_c, 13, 48, 0
18, 415440, Note_on_c, 13, 60, 92
18, 415604, Note_on_c, 13, 60, 0
18, 415620, Note_on_c, 13, 48, 92
18, 415664, Note_on_c, 13, 48, 0
18, 415680, Note_on_c, 13, 48, 92
18, 415784, Note_on_c, 13, 48, 0
18, 415800, Note_on_c, 13, 60, 92
18, 415964, Note_on_c, 13, 60, 0
18, 415980, Note_on_c, 13, 48, 92
18, 416024, Note_on_c, 13, 48, 0
18, 416040, Note_on_c, 13, 48, 92
18, 416144, Note_on_c, 13, 48, 0
18, 416160, Note_on_c, 13, 60, 92
18, 416324, Note_on_c, 13, 60, 0
18, 416340, Note_on_c, 13, 48, 92
18, 416384, Note_on_c, 13, 48, 0
18, 416400, Note_on_c, 13, 48, 92
18, 416504, Note_on_c, 13, 48, 0
18, 416520, Note_on_c, 13, 60, 92
18, 416684, Note_on_c, 13, 60, 0
18, 416700, Note_on_c, 13, 48, 92
18, 416744, Note_on_c, 13, 48, 0
18, 416760, Note_on_c, 13, 48, 92
18, 416864, Note_on_c, 13, 48, 0
18, 416880, Note_on_c, 13, 60, 92
18, 417044, Note_on_c, 13, 60, 0
18, 417060, Note_on_c, 13, 48, 92
18, 417104, Note_on_c, 13, 48, 0
18, 417120, Note_on_c, 13, 48, 92
18, 417224, Note_on_c, 13, 48, 0
18, 417240, Note_on_c, 13, 60, 92
18, 417404, Note_on_c, 13, 60, 0
18, 417420, Note_on_c, 13, 48, 92
18, 417464, Note_on_c, 13, 48, 0
18, 417480, Note_on_c, 13, 48, 92
18, 417584, Note_on_c, 13, 48, 0
18, 417600, Note_on_c, 13, 60, 92
18, 417764, Note_on_c, 13, 60, 0
18, 417780, Note_on_c, 13, 48, 92
18, 417824, Note_on_c, 13, 48, 0
18, 417840, Note_on_c, 13, 48, 92
18, 417944, Note_on_c, 13, 48, 0
18, 417960, Note_on_c, 13, 60, 92
18, 418124, Note_on_c, 13, 60, 0
18, 418140, Note_on_c, 13, 48, 92
18, 418184, Note_on_c, 13, 48, 0
18, 418200, Note_on_c, 13, 48, 92
18, 418304, Note_on_c, 13, 48, 0
18, 418320, Note_on_c, 13, 60, 92
18, 418484, Note_on_c, 13, 60, 0
18, 418500, Note_on_c, 13, 48, 92
18, 418544, Note_on_c, 13, 48, 0
18, 418560, Note_on_c, 13, 48, 92
18, 418664, Note_on_c, 13, 48, 0
18, 418680, Note_on_c, 13, 60, 92
18, 418844, Note_on_c, 13, 60, 0
18, 418860, Note_on_c, 13, 48, 92
18, 418904, Note_on_c, 13, 48, 0
18, 418920, Note_on_c, 13, 48, 92
18, 419024, Note_on_c, 13, 48, 0
18, 419040, Note_on_c, 13, 60, 92
18, 419204, Note_on_c, 13, 60, 0
18, 419220, Note_on_c, 13, 48, 92
18, 419264, Note_on_c, 13, 48, 0
18, 419280, Note_on_c, 13, 48, 92
18, 419384, Note_on_c, 13, 48, 0
18, 419400, Note_on_c, 13, 60, 92
18, 419564, Note_on_c, 13, 60, 0
18, 419580, Note_on_c, 13, 48, 92
18, 419624, Note_on_c, 13, 48, 0
18, 419640, Note_on_c, 13, 48, 92
18, 419744, Note_on_c, 13, 48, 0
18, 419760, Note_on_c, 13, 60, 92
18, 419924, Note_on_c, 13, 60, 0
18, 419940, Note_on_c, 13, 48, 92
18, 419984, Note_on_c, 13, 48, 0
18, 420000, Note_on_c, 13, 48, 92
18, 420104, Note_on_c, 13, 48, 0
18, 420120, Note_on_c, 13, 60, 92
18, 420239, Note_on_c, 13, 60, 0
18, 420840, Note_on_c, 13, 65, 92
18, 421004, Note_on_c, 13, 65, 0
18, 421020, Note_on_c, 13, 53, 92
18, 421064, Note_on_c, 13, 53, 0
18, 421080, Note_on_c, 13, 53, 92
18, 421184, Note_on_c, 13, 53, 0
18, 421200, Note_on_c, 13, 65, 92
18, 421289, Note_on_c, 13, 65, 0
18, 421320, Note_on_c, 13, 62, 92
18, 421409, Note_on_c, 13, 62, 0
18, 421440, Note_on_c, 13, 60, 92
18, 421529, Note_on_c, 13, 60, 0
18, 421560, Note_on_c, 13, 59, 92
18, 421679, Note_on_c, 13, 59, 0
18, 422280, Note_on_c, 13, 64, 92
18, 422444, Note_on_c, 13, 64, 0
18, 422460, Note_on_c, 13, 52, 92
18, 422504, Note_on_c, 13, 52, 0
18, 422520, Note_on_c, 13, 52, 92
18, 422624, Note_on_c, 13, 52, 0
18, 422640, Note_on_c, 13, 64, 92
18, 422729, Note_on_c, 13, 64, 0
18, 422760, Note_on_c, 13, 60, 92
18, 422849, Note_on_c, 13, 60, 0
18, 422880, Note_on_c, 13, 59, 92
18, 422969, Note_on_c, 13, 59, 0
18, 422998, Control_c, 13, 11, 87
18, 423000, Note_on_c, 13, 52, 68
18, 423119, Note_on_c, 13, 52, 0
18, 423120, Note_on_c, 13, 50, 68
18, 423239, Note_on_c, 13, 50, 0
18, 423240, Note_on_c, 13, 48, 68
18, 423359, Note_on_c, 13, 48, 0
18, 423360, Note_on_c, 13, 55, 68
18, 423479, Note_on_c, 13, 55, 0
18, 423480, Note_on_c, 13, 53, 68
18, 423599, Note_on_c, 13, 53, 0
18, 423600, Note_on_c, 13, 52, 68
18, 423719, Note_on_c, 13, 52, 0
18, 423720, Note_on_c, 13, 50, 68
18, 423720, Control_c, 13, 11, 87
18, 423750, Control_c, 13, 11, 89
18, 423780, Control_c, 13, 11, 90
18, 423810, Control_c, 13, 11, 92
18, 423839, Note_on_c, 13, 50, 0
18, 423840, Control_c, 13, 11, 94
18, 423840, Note_on_c, 13, 48, 68
18, 423870, Control_c, 13, 11, 95
18, 423900, Control_c, 13, 11, 97
18, 423930, Control_c, 13, 11, 99
18, 423959, Note_on_c, 13, 48, 0
18, 423960, Control_c, 13, 11, 100
18, 423960, Note_on_c, 13, 50, 68
18, 423990, Control_c, 13, 11, 102
18, 424020, Control_c, 13, 11, 104
18, 424050, Control_c, 13, 11, 105
18, 424079, Note_on_c, 13, 50, 0
18, 424080, Control_c, 13, 11, 107
18, 424080, Note_on_c, 13, 52, 68
18, 424110, Control_c, 13, 11, 109
18, 424140, Control_c, 13, 11, 110
18, 424170, Control_c, 13, 11, 112
18, 424199, Note_on_c, 13, 52, 0
18, 424200, Note_on_c, 13, 53, 68
18, 424200, Control_c, 13, 11, 114
18, 424230, Control_c, 13, 11, 115
18, 424260, Control_c, 13, 11, 117
18, 424290, Control_c, 13, 11, 119
18, 424319, Note_on_c, 13, 53, 0
18, 424320, Note_on_c, 13, 55, 68
18, 424320, Control_c, 13, 11, 120
18, 424350, Control_c, 13, 11, 122
18, 424380, Control_c, 13, 11, 124
18, 424410, Control_c, 13, 11, 125
18, 424439, Note_on_c, 13, 55, 0
18, 424440, Control_c, 13, 11, 127
18, 424440, Note_on_c, 13, 54, 68
18, 424470, Control_c, 13, 11, 125
18, 424500, Control_c, 13, 11, 124
18, 424530, Control_c, 13, 11, 122
18, 424559, Note_on_c, 13, 54, 0
18, 424560, Control_c, 13, 11, 120
18, 424560, Note_on_c, 13, 55, 68
18, 424590, Control_c, 13, 11, 119
18, 424620, Control_c, 13, 11, 117
18, 424650, Control_c, 13, 11, 115
18, 424679, Note_on_c, 13, 55, 0
18, 424680, Note_on_c, 13, 57, 68
18, 424680, Control_c, 13, 11, 114
18, 424710, Control_c, 13, 11, 112
18, 424740, Control_c, 13, 11, 110
18, 424770, Control_c, 13, 11, 109
18, 424799, Note_on_c, 13, 57, 0
18, 424800, Note_on_c, 13, 55, 68
18, 424800, Control_c, 13, 11, 107
18, 424830, Control_c, 13, 11, 105
18, 424860, Control_c, 13, 11, 104
18, 424890, Control_c, 13, 11, 102
18, 424919, Note_on_c, 13, 55, 0
18, 424920, Note_on_c, 13, 53, 68
18, 424920, Control_c, 13, 11, 100
18, 424950, Control_c, 13, 11, 99
18, 424980, Control_c, 13, 11, 97
18, 425010, Control_c, 13, 11, 95
18, 425039, Note_on_c, 13, 53, 0
18, 425040, Note_on_c, 13, 52, 68
18, 425040, Control_c, 13, 11, 94
18, 425070, Control_c, 13, 11, 92
18, 425100, Control_c, 13, 11, 90
18, 425130, Control_c, 13, 11, 87
18, 425144, Note_on_c, 13, 52, 0
18, 425158, Control_c, 13, 11, 67
18, 425160, Note_on_c, 13, 48, 80
18, 425160, Control_c, 13, 11, 67
18, 425190, Control_c, 13, 11, 68
18, 425220, Control_c, 13, 11, 70
18, 425250, Control_c, 13, 11, 71
18, 425280, Control_c, 13, 11, 72
18, 425310, Control_c, 13, 11, 73
18, 425340, Control_c, 13, 11, 75
18, 425370, Control_c, 13, 11, 76
18, 425400, Control_c, 13, 11, 77
18, 425430, Control_c, 13, 11, 78
18, 425460, Control_c, 13, 11, 80
18, 425490, Control_c, 13, 11, 81
18, 425520, Control_c, 13, 11, 82
18, 425550, Control_c, 13, 11, 83
18, 425580, Control_c, 13, 11, 85
18, 425610, Control_c, 13, 11, 86
18, 425640, Control_c, 13, 11, 87
18, 425670, Control_c, 13, 11, 88
18, 425700, Control_c, 13, 11, 90
18, 425730, Control_c, 13, 11, 91
18, 425760, Control_c, 13, 11, 92
18, 425790, Control_c, 13, 11, 93
18, 425820, Control_c, 13, 11, 95
18, 425850, Control_c, 13, 11, 96
18, 425880, Control_c, 13, 11, 97
18, 425910, Control_c, 13, 11, 98
18, 425940, Control_c, 13, 11, 100
18, 425970, Control_c, 13, 11, 101
18, 426000, Control_c, 13, 11, 102
18, 426030, Control_c, 13, 11, 103
18, 426060, Control_c, 13, 11, 105
18, 426090, Control_c, 13, 11, 106
18, 426120, Control_c, 13, 11, 107
18, 426150, Control_c, 13, 11, 108
18, 426180, Control_c, 13, 11, 110
18, 426210, Control_c, 13, 11, 111
18, 426240, Control_c, 13, 11, 112
18, 426270, Control_c, 13, 11, 113
18, 426300, Control_c, 13, 11, 115
18, 426330, Control_c, 13, 11, 116
18, 426360, Control_c, 13, 11, 117
18, 426390, Control_c, 13, 11, 118
18, 426420, Control_c, 13, 11, 120
18, 426450, Control_c, 13, 11, 121
18, 426480, Control_c, 13, 11, 122
18, 426510, Control_c, 13, 11, 123
18, 426540, Control_c, 13, 11, 125
18, 426570, Control_c, 13, 11, 127
18, 426719, Note_on_c, 13, 48, 0
18, 427320, Note_on_c, 13, 64, 80
18, 427409, Note_on_c, 13, 64, 0
18, 427440, Note_on_c, 13, 76, 80
18, 427529, Note_on_c, 13, 76, 0
18, 427560, Note_on_c, 13, 72, 80
18, 427649, Note_on_c, 13, 72, 0
18, 427680, Note_on_c, 13, 69, 80
18, 427769, Note_on_c, 13, 69, 0
18, 427800, Note_on_c, 13, 71, 80
18, 427889, Note_on_c, 13, 71, 0
18, 427920, Note_on_c, 13, 72, 80
18, 428009, Note_on_c, 13, 72, 0
18, 428040, Note_on_c, 13, 72, 80
18, 428159, Note_on_c, 13, 72, 0
18, 428760, Note_on_c, 13, 64, 80
18, 428849, Note_on_c, 13, 64, 0
18, 428880, Note_on_c, 13, 60, 80
18, 428969, Note_on_c, 13, 60, 0
18, 429000, Note_on_c, 13, 65, 80
18, 429089, Note_on_c, 13, 65, 0
18, 429120, Note_on_c, 13, 62, 80
18, 429209, Note_on_c, 13, 62, 0
18, 429240, Note_on_c, 13, 59, 80
18, 429329, Note_on_c, 13, 59, 0
18, 429360, Note_on_c, 13, 64, 80
18, 429449, Note_on_c, 13, 64, 0
18, 429480, Note_on_c, 13, 64, 80
18, 429480, Note_on_c, 13, 48, 80
18, 429480, Note_on_c, 13, 55, 80
18, 429599, Note_on_c, 13, 64, 0
18, 429599, Note_on_c, 13, 48, 0
18, 429599, Note_on_c, 13, 55, 0
18, 429840, Note_on_c, 13, 67, 80
18, 430004, Note_on_c, 13, 67, 0
18, 430020, Note_on_c, 13, 55, 80
18, 430064, Note_on_c, 13, 55, 0
18, 430080, Note_on_c, 13, 55, 80
18, 430184, Note_on_c, 13, 55, 0
18, 430200, Note_on_c, 13, 48, 80
18, 430319, Note_on_c, 13, 48, 0
18, 430560, Note_on_c, 13, 67, 80
18, 430724, Note_on_c, 13, 67, 0
18, 430740, Note_on_c, 13, 55, 80
18, 430784, Note_on_c, 13, 55, 0
18, 430800, Note_on_c, 13, 55, 80
18, 430904, Note_on_c, 13, 55, 0
18, 430920, Note_on_c, 13, 60, 32
18, 431039, Note_on_c, 13, 60, 0
18, 431040, Note_on_c, 13, 59, 32
18, 431159, Note_on_c, 13, 59, 0
18, 431160, Note_on_c, 13, 57, 32
18, 431279, Note_on_c, 13, 57, 0
18, 431280, Note_on_c, 13, 55, 32
18, 431399, Note_on_c, 13, 55, 0
18, 431400, Note_on_c, 13, 53, 32
18, 431519, Note_on_c, 13, 53, 0
18, 431520, Note_on_c, 13, 52, 32
18, 431639, Note_on_c, 13, 52, 0
18, 431640, Note_on_c, 13, 50, 32
18, 431759, Note_on_c, 13, 50, 0
18, 431760, Note_on_c, 13, 52, 32
18, 431879, Note_on_c, 13, 52, 0
18, 431880, Note_on_c, 13, 50, 32
18, 431939, Note_on_c, 13, 50, 0
18, 431940, Note_on_c, 13, 62, 32
18, 431999, Note_on_c, 13, 62, 0
18, 432000, Note_on_c, 13, 60, 32
18, 432119, Note_on_c, 13, 60, 0
18, 432120, Note_on_c, 13, 59, 32
18, 432239, Note_on_c, 13, 59, 0
18, 432240, Note_on_c, 13, 57, 32
18, 432299, Note_on_c, 13, 57, 0
18, 432300, Note_on_c, 13, 55, 32
18, 432344, Note_on_c, 13, 55, 0
18, 432360, Note_on_c, 13, 52, 32
18, 432360, Note_on_c, 13, 55, 32
18, 432524, Note_on_c, 13, 52, 0
18, 432524, Note_on_c, 13, 55, 0
18, 432540, Note_on_c, 13, 64, 32
18, 432584, Note_on_c, 13, 64, 0
18, 432600, Note_on_c, 13, 64, 32
18, 432704, Note_on_c, 13, 64, 0
18, 432720, Note_on_c, 13, 64, 32
18, 432839, Note_on_c, 13, 64, 0
18, 433080, Note_on_c, 13, 57, 32
18, 433244, Note_on_c, 13, 57, 0
18, 433260, Note_on_c, 13, 65, 32
18, 433304, Note_on_c, 13, 65, 0
18, 433320, Note_on_c, 13, 65, 32
18, 433424, Note_on_c, 13, 65, 0
18, 433440, Note_on_c, 13, 65, 32
18, 433559, Note_on_c, 13, 65, 0
18, 436680, Note_on_c, 13, 74, 32
18, 436844, Note_on_c, 13, 74, 0
18, 436860, Note_on_c, 13, 62, 32
18, 436904, Note_on_c, 13, 62, 0
18, 436920, Note_on_c, 13, 62, 32
18, 437024, Note_on_c, 13, 62, 0
18, 437040, Note_on_c, 13, 69, 32
18, 437129, Note_on_c, 13, 69, 0
18, 437160, Note_on_c, 13, 71, 32
18, 437249, Note_on_c, 13, 71, 0
18, 437280, Note_on_c, 13, 72, 32
18, 437369, Note_on_c, 13, 72, 0
18, 437400, Note_on_c, 13, 71, 32
18, 437489, Note_on_c, 13, 71, 0
18, 437520, Note_on_c, 13, 72, 32
18, 437609, Note_on_c, 13, 72, 0
18, 437640, Note_on_c, 13, 74, 32
18, 437729, Note_on_c, 13, 74, 0
18, 437760, Note_on_c, 13, 72, 32
18, 437849, Note_on_c, 13, 72, 0
18, 437880, Note_on_c, 13, 71, 32
18, 437969, Note_on_c, 13, 71, 0
18, 438000, Note_on_c, 13, 69, 32
18, 438089, Note_on_c, 13, 69, 0
18, 438120, Note_on_c, 13, 70, 32
18, 438209, Note_on_c, 13, 70, 0
18, 438240, Note_on_c, 13, 69, 32
18, 438329, Note_on_c, 13, 69, 0
18, 438360, Note_on_c, 13, 67, 32
18, 438449, Note_on_c, 13, 67, 0
18, 438480, Note_on_c, 13, 65, 32
18, 438569, Note_on_c, 13, 65, 0
18, 438600, Note_on_c, 13, 64, 32
18, 438689, Note_on_c, 13, 64, 0
18, 438720, Note_on_c, 13, 62, 32
18, 438809, Note_on_c, 13, 62, 0
18, 438840, Note_on_c, 13, 61, 32
18, 438929, Note_on_c, 13, 61, 0
18, 438960, Note_on_c, 13, 62, 32
18, 439049, Note_on_c, 13, 62, 0
18, 439080, Note_on_c, 13, 64, 32
18, 439169, Note_on_c, 13, 64, 0
18, 439200, Note_on_c, 13, 62, 32
18, 439289, Note_on_c, 13, 62, 0
18, 439320, Note_on_c, 13, 61, 32
18, 439409, Note_on_c, 13, 61, 0
18, 439440, Note_on_c, 13, 62, 32
18, 439529, Note_on_c, 13, 62, 0
18, 439560, Note_on_c, 13, 69, 32
18, 439649, Note_on_c, 13, 69, 0
18, 439680, Note_on_c, 13, 67, 32
18, 439769, Note_on_c, 13, 67, 0
18, 439800, Note_on_c, 13, 65, 32
18, 439889, Note_on_c, 13, 65, 0
18, 439920, Note_on_c, 13, 64, 32
18, 440009, Note_on_c, 13, 64, 0
18, 440040, Note_on_c, 13, 76, 32
18, 440129, Note_on_c, 13, 76, 0
18, 440160, Note_on_c, 13, 76, 32
18, 440249, Note_on_c, 13, 76, 0
18, 440280, Note_on_c, 13, 76, 32
18, 440369, Note_on_c, 13, 76, 0
18, 440400, Note_on_c, 13, 76, 32
18, 440489, Note_on_c, 13, 76, 0
18, 440520, Note_on_c, 13, 76, 32
18, 440609, Note_on_c, 13, 76, 0
18, 440640, Note_on_c, 13, 76, 32
18, 440729, Note_on_c, 13, 76, 0
18, 440760, Note_on_c, 13, 76, 32
18, 440849, Note_on_c, 13, 76, 0
18, 440880, Note_on_c, 13, 76, 32
18, 440969, Note_on_c, 13, 76, 0
18, 441000, Note_on_c, 13, 64, 32
18, 441089, Note_on_c, 13, 64, 0
18, 441120, Note_on_c, 13, 65, 32
18, 441209, Note_on_c, 13, 65, 0
18, 441240, Note_on_c, 13, 67, 32
18, 441329, Note_on_c, 13, 67, 0
18, 441360, Note_on_c, 13, 65, 32
18, 441449, Note_on_c, 13, 65, 0
18, 441480, Note_on_c, 13, 67, 32
18, 441569, Note_on_c, 13, 67, 0
18, 441600, Note_on_c, 13, 69, 32
18, 441689, Note_on_c, 13, 69, 0
18, 441720, Note_on_c, 13, 67, 32
18, 441809, Note_on_c, 13, 67, 0
18, 441840, Note_on_c, 13, 65, 32
18, 441929, Note_on_c, 13, 65, 0
18, 441960, Note_on_c, 13, 64, 32
18, 442049, Note_on_c, 13, 64, 0
18, 442080, Note_on_c, 13, 62, 32
18, 442169, Note_on_c, 13, 62, 0
18, 442200, Note_on_c, 13, 67, 32
18, 442289, Note_on_c, 13, 67, 0
18, 442320, Note_on_c, 13, 65, 32
18, 442409, Note_on_c, 13, 65, 0
18, 442440, Note_on_c, 13, 65, 32
18, 442529, Note_on_c, 13, 65, 0
18, 442560, Note_on_c, 13, 67, 32
18, 442649, Note_on_c, 13, 67, 0
18, 442680, Note_on_c, 13, 69, 32
18, 442769, Note_on_c, 13, 69, 0
18, 442800, Note_on_c, 13, 57, 32
18, 442889, Note_on_c, 13, 57, 0
18, 442920, Note_on_c, 13, 68, 32
18, 443009, Note_on_c, 13, 68, 0
18, 443040, Note_on_c, 13, 69, 32
18, 443129, Note_on_c, 13, 69, 0
18, 443160, Note_on_c, 13, 64, 32
18, 443249, Note_on_c, 13, 64, 0
18, 443280, Note_on_c, 13, 64, 32
18, 443369, Note_on_c, 13, 64, 0
18, 443400, Note_on_c, 13, 64, 32
18, 443489, Note_on_c, 13, 64, 0
18, 443520, Note_on_c, 13, 64, 32
18, 443609, Note_on_c, 13, 64, 0
18, 443640, Note_on_c, 13, 64, 32
18, 443729, Note_on_c, 13, 64, 0
18, 443760, Note_on_c, 13, 64, 32
18, 443849, Note_on_c, 13, 64, 0
18, 443880, Note_on_c, 13, 55, 32
18, 443969, Note_on_c, 13, 55, 0
18, 444000, Note_on_c, 13, 53, 32
18, 444089, Note_on_c, 13, 53, 0
18, 444120, Note_on_c, 13, 52, 32
18, 444209, Note_on_c, 13, 52, 0
18, 444240, Note_on_c, 13, 57, 32
18, 444329, Note_on_c, 13, 57, 0
18, 444360, Note_on_c, 13, 55, 32
18, 444449, Note_on_c, 13, 55, 0
18, 444480, Note_on_c, 13, 53, 32
18, 444569, Note_on_c, 13, 53, 0
18, 444600, Note_on_c, 13, 52, 32
18, 444689, Note_on_c, 13, 52, 0
18, 444720, Note_on_c, 13, 53, 32
18, 444809, Note_on_c, 13, 53, 0
18, 444840, Note_on_c, 13, 55, 32
18, 444929, Note_on_c, 13, 55, 0
18, 444960, Note_on_c, 13, 57, 32
18, 445049, Note_on_c, 13, 57, 0
18, 445080, Note_on_c, 13, 57, 32
18, 445169, Note_on_c, 13, 57, 0
18, 445200, Note_on_c, 13, 57, 32
18, 445289, Note_on_c, 13, 57, 0
18, 445320, Note_on_c, 13, 56, 32
18, 445409, Note_on_c, 13, 56, 0
18, 445440, Note_on_c, 13, 57, 32
18, 445529, Note_on_c, 13, 57, 0
18, 445560, Note_on_c, 13, 59, 32
18, 445649, Note_on_c, 13, 59, 0
18, 445680, Note_on_c, 13, 60, 32
18, 445769, Note_on_c, 13, 60, 0
18, 445800, Note_on_c, 13, 62, 32
18, 445889, Note_on_c, 13, 62, 0
18, 445920, Note_on_c, 13, 64, 32
18, 446009, Note_on_c, 13, 64, 0
18, 446040, Note_on_c, 13, 65, 32
18, 446129, Note_on_c, 13, 65, 0
18, 446160, Note_on_c, 13, 64, 32
18, 446249, Note_on_c, 13, 64, 0
18, 446280, Note_on_c, 13, 62, 32
18, 446369, Note_on_c, 13, 62, 0
18, 446400, Note_on_c, 13, 60, 32
18, 446489, Note_on_c, 13, 60, 0
18, 446520, Note_on_c, 13, 59, 32
18, 446609, Note_on_c, 13, 59, 0
18, 446640, Note_on_c, 13, 57, 32
18, 446729, Note_on_c, 13, 57, 0
18, 446760, Note_on_c, 13, 57, 32
18, 446849, Note_on_c, 13, 57, 0
18, 446880, Note_on_c, 13, 57, 32
18, 446969, Note_on_c, 13, 57, 0
18, 447000, Note_on_c, 13, 57, 32
18, 447089, Note_on_c, 13, 57, 0
18, 447120, Note_on_c, 13, 57, 32
18, 447209, Note_on_c, 13, 57, 0
18, 447240, Note_on_c, 13, 55, 32
18, 447329, Note_on_c, 13, 55, 0
18, 447360, Note_on_c, 13, 53, 32
18, 447449, Note_on_c, 13, 53, 0
18, 447480, Note_on_c, 13, 55, 32
18, 447569, Note_on_c, 13, 55, 0
18, 447600, Note_on_c, 13, 57, 32
18, 447689, Note_on_c, 13, 57, 0
18, 447720, Note_on_c, 13, 58, 32
18, 447809, Note_on_c, 13, 58, 0
18, 447840, Note_on_c, 13, 57, 32
18, 447929, Note_on_c, 13, 57, 0
18, 447960, Note_on_c, 13, 58, 32
18, 448049, Note_on_c, 13, 58, 0
18, 448080, Note_on_c, 13, 57, 32
18, 448169, Note_on_c, 13, 57, 0
18, 448200, Note_on_c, 13, 58, 32
18, 448289, Note_on_c, 13, 58, 0
18, 448320, Note_on_c, 13, 57, 33
18, 448409, Note_on_c, 13, 57, 0
18, 448440, Note_on_c, 13, 55, 35
18, 448529, Note_on_c, 13, 55, 0
18, 448560, Note_on_c, 13, 57, 37
18, 448649, Note_on_c, 13, 57, 0
18, 448680, Note_on_c, 13, 58, 38
18, 448769, Note_on_c, 13, 58, 0
18, 448800, Note_on_c, 13, 57, 40
18, 448889, Note_on_c, 13, 57, 0
18, 448920, Note_on_c, 13, 58, 42
18, 449009, Note_on_c, 13, 58, 0
18, 449040, Note_on_c, 13, 57, 43
18, 449129, Note_on_c, 13, 57, 0
18, 449160, Note_on_c, 13, 55, 45
18, 449249, Note_on_c, 13, 55, 0
18, 449280, Note_on_c, 13, 57, 47
18, 449369, Note_on_c, 13, 57, 0
18, 449400, Note_on_c, 13, 58, 48
18, 449489, Note_on_c, 13, 58, 0
18, 449520, Note_on_c, 13, 57, 50
18, 449609, Note_on_c, 13, 57, 0
18, 449640, Note_on_c, 13, 58, 52
18, 449729, Note_on_c, 13, 58, 0
18, 449760, Note_on_c, 13, 57, 53
18, 449849, Note_on_c, 13, 57, 0
18, 449880, Note_on_c, 13, 55, 55
18, 449969, Note_on_c, 13, 55, 0
18, 450000, Note_on_c, 13, 57, 57
18, 450089, Note_on_c, 13, 57, 0
18, 450120, Note_on_c, 13, 58, 58
18, 450209, Note_on_c, 13, 58, 0
18, 450240, Note_on_c, 13, 57, 60
18, 450329, Note_on_c, 13, 57, 0
18, 450360, Note_on_c, 13, 55, 62
18, 450449, Note_on_c, 13, 55, 0
18, 450480, Note_on_c, 13, 53, 63
18, 450569, Note_on_c, 13, 53, 0
18, 450600, Note_on_c, 13, 52, 65
18, 450689, Note_on_c, 13, 52, 0
18, 450720, Note_on_c, 13, 53, 67
18, 450809, Note_on_c, 13, 53, 0
18, 450840, Note_on_c, 13, 55, 68
18, 450929, Note_on_c, 13, 55, 0
18, 450960, Note_on_c, 13, 53, 70
18, 451049, Note_on_c, 13, 53, 0
18, 451080, Note_on_c, 13, 55, 72
18, 451169, Note_on_c, 13, 55, 0
18, 451200, Note_on_c, 13, 53, 73
18, 451289, Note_on_c, 13, 53, 0
18, 451320, Note_on_c, 13, 52, 75
18, 451409, Note_on_c, 13, 52, 0
18, 451440, Note_on_c, 13, 53, 77
18, 451529, Note_on_c, 13, 53, 0
18, 451560, Note_on_c, 13, 55, 78
18, 451649, Note_on_c, 13, 55, 0
18, 451680, Note_on_c, 13, 53, 80
18, 451769, Note_on_c, 13, 53, 0
18, 451800, Note_on_c, 13, 55, 82
18, 451889, Note_on_c, 13, 55, 0
18, 451920, Note_on_c, 13, 53, 83
18, 452009, Note_on_c, 13, 53, 0
18, 452040, Note_on_c, 13, 52, 85
18, 452129, Note_on_c, 13, 52, 0
18, 452160, Note_on_c, 13, 64, 87
18, 452249, Note_on_c, 13, 64, 0
18, 452280, Note_on_c, 13, 62, 88
18, 452369, Note_on_c, 13, 62, 0
18, 452400, Note_on_c, 13, 61, 90
18, 452489, Note_on_c, 13, 61, 0
18, 452520, Note_on_c, 13, 74, 92
18, 452520, Note_on_c, 13, 57, 92
18, 452520, Note_on_c, 13, 65, 92
18, 452639, Note_on_c, 13, 74, 0
18, 452639, Note_on_c, 13, 57, 0
18, 452639, Note_on_c, 13, 65, 0
18, 452880, Note_on_c, 13, 57, 92
18, 452880, Note_on_c, 13, 74, 92
18, 452880, Note_on_c, 13, 65, 92
18, 452999, Note_on_c, 13, 57, 0
18, 452999, Note_on_c, 13, 74, 0
18, 452999, Note_on_c, 13, 65, 0
18, 453240, Note_on_c, 13, 69, 92
18, 453240, Note_on_c, 13, 73, 92
18, 453359, Note_on_c, 13, 69, 0
18, 453359, Note_on_c, 13, 73, 0
18, 453600, Note_on_c, 13, 74, 92
18, 453600, Note_on_c, 13, 62, 92
18, 453719, Note_on_c, 13, 74, 0
18, 453719, Note_on_c, 13, 62, 0
18, 453960, Note_on_c, 13, 55, 80
18, 453960, Note_on_c, 13, 62, 80
18, 453960, Note_on_c, 13, 74, 80
18, 454079, Note_on_c, 13, 55, 0
18, 454079, Note_on_c, 13, 62, 0
18, 454079, Note_on_c, 13, 74, 0
18, 454320, Note_on_c, 13, 74, 80
18, 454320, Note_on_c, 13, 65, 80
18, 454320, Note_on_c, 13, 57, 80
18, 454439, Note_on_c, 13, 74, 0
18, 454439, Note_on_c, 13, 65, 0
18, 454439, Note_on_c, 13, 57, 0
18, 454680, Note_on_c, 13, 67, 80
18, 454680, Note_on_c, 13, 57, 80
18, 454680, Note_on_c, 13, 76, 80
18, 454799, Note_on_c, 13, 67, 0
18, 454799, Note_on_c, 13, 57, 0
18, 454799, Note_on_c, 13, 76, 0
18, 455040, Note_on_c, 13, 69, 80
18, 455040, Note_on_c, 13, 65, 80
18, 455159, Note_on_c, 13, 69, 0
18, 455159, Note_on_c, 13, 65, 0
18, 455400, Note_on_c, 13, 67, 80
18, 455400, Note_on_c, 13, 55, 80
18, 455519, Note_on_c, 13, 67, 0
18, 455519, Note_on_c, 13, 55, 0
18, 455760, Note_on_c, 13, 74, 80
18, 455760, Note_on_c, 13, 65, 80
18, 455760, Note_on_c, 13, 57, 80
18, 455879, Note_on_c, 13, 74, 0
18, 455879, Note_on_c, 13, 65, 0
18, 455879, Note_on_c, 13, 57, 0
18, 456120, Note_on_c, 13, 76, 80
18, 456120, Note_on_c, 13, 57, 80
18, 456120, Note_on_c, 13, 67, 80
18, 456239, Note_on_c, 13, 76, 0
18, 456239, Note_on_c, 13, 57, 0
18, 456239, Note_on_c, 13, 67, 0
18, 456480, Note_on_c, 13, 65, 80
18, 456480, Note_on_c, 13, 69, 80
18, 456599, Note_on_c, 13, 65, 0
18, 456599, Note_on_c, 13, 69, 0
18, 456720, Note_on_c, 13, 71, 80
18, 456720, Note_on_c, 13, 65, 80
18, 456824, Note_on_c, 13, 71, 0
18, 456824, Note_on_c, 13, 65, 0
18, 456840, Note_on_c, 13, 71, 80
18, 456840, Note_on_c, 13, 62, 80
18, 456840, Note_on_c, 13, 55, 80
18, 456959, Note_on_c, 13, 71, 0
18, 456959, Note_on_c, 13, 62, 0
18, 456959, Note_on_c, 13, 55, 0
18, 457200, Note_on_c, 13, 64, 80
18, 457200, Note_on_c, 13, 76, 80
18, 457200, Note_on_c, 13, 55, 80
18, 457319, Note_on_c, 13, 64, 0
18, 457319, Note_on_c, 13, 76, 0
18, 457319, Note_on_c, 13, 55, 0
18, 457560, Note_on_c, 13, 55, 80
18, 457560, Note_on_c, 13, 74, 80
18, 457560, Note_on_c, 13, 65, 80
18, 457679, Note_on_c, 13, 55, 0
18, 457679, Note_on_c, 13, 74, 0
18, 457679, Note_on_c, 13, 65, 0
18, 457920, Note_on_c, 13, 64, 80
18, 457920, Note_on_c, 13, 55, 80
18, 458024, Note_on_c, 13, 64, 0
18, 458024, Note_on_c, 13, 55, 0
18, 458040, Note_on_c, 13, 65, 80
18, 458040, Note_on_c, 13, 55, 80
18, 458144, Note_on_c, 13, 65, 0
18, 458144, Note_on_c, 13, 55, 0
18, 458160, Note_on_c, 13, 55, 80
18, 458160, Note_on_c, 13, 65, 80
18, 458264, Note_on_c, 13, 55, 0
18, 458264, Note_on_c, 13, 65, 0
18, 458280, Note_on_c, 13, 55, 80
18, 458280, Note_on_c, 13, 74, 80
18, 458280, Note_on_c, 13, 65, 80
18, 458399, Note_on_c, 13, 55, 0
18, 458399, Note_on_c, 13, 74, 0
18, 458399, Note_on_c, 13, 65, 0
18, 458640, Note_on_c, 13, 64, 80
18, 458640, Note_on_c, 13, 55, 80
18, 458640, Note_on_c, 13, 76, 80
18, 458759, Note_on_c, 13, 64, 0
18, 458759, Note_on_c, 13, 55, 0
18, 458759, Note_on_c, 13, 76, 0
18, 459000, Note_on_c, 13, 72, 80
18, 459000, Note_on_c, 13, 55, 80
18, 459000, Note_on_c, 13, 64, 80
18, 459119, Note_on_c, 13, 72, 0
18, 459119, Note_on_c, 13, 55, 0
18, 459119, Note_on_c, 13, 64, 0
18, 459360, Note_on_c, 13, 55, 80
18, 459360, Note_on_c, 13, 64, 80
18, 459360, Note_on_c, 13, 72, 80
18, 459479, Note_on_c, 13, 55, 0
18, 459479, Note_on_c, 13, 64, 0
18, 459479, Note_on_c, 13, 72, 0
18, 459720, Note_on_c, 13, 67, 80
18, 459720, Note_on_c, 13, 55, 80
18, 459839, Note_on_c, 13, 67, 0
18, 459839, Note_on_c, 13, 55, 0
18, 460080, Control_c, 13, 11, 87
18, 460800, Control_c, 13, 11, 87
18, 460800, Note_on_c, 13, 65, 68
18, 460830, Control_c, 13, 11, 89
18, 460860, Control_c, 13, 11, 90
18, 460890, Control_c, 13, 11, 92
18, 460920, Control_c, 13, 11, 94
18, 460950, Control_c, 13, 11, 95
18, 460964, Note_on_c, 13, 65, 0
18, 460980, Control_c, 13, 11, 97
18, 460980, Note_on_c, 13, 69, 68
18, 461010, Control_c, 13, 11, 99
18, 461024, Note_on_c, 13, 69, 0
18, 461040, Note_on_c, 13, 69, 68
18, 461040, Control_c, 13, 11, 100
18, 461070, Control_c, 13, 11, 102
18, 461100, Control_c, 13, 11, 104
18, 461130, Control_c, 13, 11, 105
18, 461144, Note_on_c, 13, 69, 0
18, 461160, Control_c, 13, 11, 107
18, 461160, Note_on_c, 13, 65, 68
18, 461190, Control_c, 13, 11, 109
18, 461220, Control_c, 13, 11, 110
18, 461250, Control_c, 13, 11, 112
18, 461280, Control_c, 13, 11, 114
18, 461310, Control_c, 13, 11, 115
18, 461324, Note_on_c, 13, 65, 0
18, 461340, Control_c, 13, 11, 117
18, 461340, Note_on_c, 13, 68, 68
18, 461370, Control_c, 13, 11, 119
18, 461384, Note_on_c, 13, 68, 0
18, 461400, Control_c, 13, 11, 120
18, 461400, Note_on_c, 13, 68, 68
18, 461430, Control_c, 13, 11, 122
18, 461460, Control_c, 13, 11, 124
18, 461490, Control_c, 13, 11, 125
18, 461504, Note_on_c, 13, 68, 0
18, 461520, Note_on_c, 13, 64, 68
18, 461640, Control_c, 13, 11, 127
18, 461680, Control_c, 13, 11, 125
18, 461684, Note_on_c, 13, 64, 0
18, 461700, Note_on_c, 13, 67, 68
18, 461720, Control_c, 13, 11, 124
18, 461744, Note_on_c, 13, 67, 0
18, 461760, Note_on_c, 13, 67, 68
18, 461760, Control_c, 13, 11, 122
18, 461800, Control_c, 13, 11, 120
18, 461840, Control_c, 13, 11, 119
18, 461864, Note_on_c, 13, 67, 0
18, 461880, Note_on_c, 13, 63, 68
18, 461880, Control_c, 13, 11, 117
18, 461920, Control_c, 13, 11, 115
18, 461960, Control_c, 13, 11, 114
18, 462000, Control_c, 13, 11, 112
18, 462040, Control_c, 13, 11, 110
18, 462044, Note_on_c, 13, 63, 0
18, 462060, Note_on_c, 13, 67, 68
18, 462080, Control_c, 13, 11, 109
18, 462104, Note_on_c, 13, 67, 0
18, 462120, Note_on_c, 13, 67, 68
18, 462120, Control_c, 13, 11, 107
18, 462160, Control_c, 13, 11, 105
18, 462200, Control_c, 13, 11, 104
18, 462224, Note_on_c, 13, 67, 0
18, 462240, Control_c, 13, 11, 102
18, 462240, Note_on_c, 13, 62, 68
18, 462280, Control_c, 13, 11, 100
18, 462320, Control_c, 13, 11, 99
18, 462360, Control_c, 13, 11, 97
18, 462400, Control_c, 13, 11, 95
18, 462404, Note_on_c, 13, 62, 0
18, 462420, Note_on_c, 13, 67, 68
18, 462440, Control_c, 13, 11, 94
18, 462464, Note_on_c, 13, 67, 0
18, 462480, Note_on_c, 13, 67, 68
18, 462480, Control_c, 13, 11, 92
18, 462520, Control_c, 13, 11, 90
18, 462560, Control_c, 13, 11, 89
18, 462584, Note_on_c, 13, 67, 0
18, 462598, Control_c, 13, 11, 47
18, 462600, Note_on_c, 13, 67, 92
18, 462600, Control_c, 13, 11, 47
18, 462648, Control_c, 13, 11, 48
18, 462696, Control_c, 13, 11, 50
18, 462744, Control_c, 13, 11, 51
18, 462764, Note_on_c, 13, 67, 0
18, 462780, Note_on_c, 13, 55, 92
18, 462792, Control_c, 13, 11, 52
18, 462824, Note_on_c, 13, 55, 0
18, 462840, Note_on_c, 13, 55, 92
18, 462840, Control_c, 13, 11, 54
18, 462888, Control_c, 13, 11, 55
18, 462936, Control_c, 13, 11, 56
18, 462944, Note_on_c, 13, 55, 0
18, 462960, Note_on_c, 13, 67, 92
18, 462984, Control_c, 13, 11, 58
18, 463032, Control_c, 13, 11, 59
18, 463080, Control_c, 13, 11, 60
18, 463124, Note_on_c, 13, 67, 0
18, 463128, Control_c, 13, 11, 62
18, 463140, Note_on_c, 13, 55, 92
18, 463176, Control_c, 13, 11, 63
18, 463184, Note_on_c, 13, 55, 0
18, 463200, Note_on_c, 13, 55, 92
18, 463224, Control_c, 13, 11, 64
18, 463272, Control_c, 13, 11, 66
18, 463304, Note_on_c, 13, 55, 0
18, 463320, Note_on_c, 13, 67, 92
18, 463320, Control_c, 13, 11, 67
18, 463368, Control_c, 13, 11, 68
18, 463416, Control_c, 13, 11, 70
18, 463464, Control_c, 13, 11, 71
18, 463484, Note_on_c, 13, 67, 0
18, 463500, Note_on_c, 13, 55, 92
18, 463512, Control_c, 13, 11, 72
18, 463544, Note_on_c, 13, 55, 0
18, 463560, Note_on_c, 13, 55, 92
18, 463560, Control_c, 13, 11, 74
18, 463608, Control_c, 13, 11, 75
18, 463656, Control_c, 13, 11, 76
18, 463664, Note_on_c, 13, 55, 0
18, 463680, Note_on_c, 13, 65, 92
18, 463704, Control_c, 13, 11, 78
18, 463752, Control_c, 13, 11, 79
18, 463800, Control_c, 13, 11, 80
18, 463844, Note_on_c, 13, 65, 0
18, 463848, Control_c, 13, 11, 82
18, 463860, Note_on_c, 13, 53, 92
18, 463896, Control_c, 13, 11, 83
18, 463904, Note_on_c, 13, 53, 0
18, 463920, Note_on_c, 13, 53, 92
18, 463944, Control_c, 13, 11, 84
18, 463992, Control_c, 13, 11, 86
18, 464024, Note_on_c, 13, 53, 0
18, 464040, Control_c, 13, 11, 87
18, 464040, Note_on_c, 13, 65, 92
18, 464088, Control_c, 13, 11, 88
18, 464136, Control_c, 13, 11, 90
18, 464184, Control_c, 13, 11, 91
18, 464204, Note_on_c, 13, 65, 0
18, 464220, Note_on_c, 13, 53, 92
18, 464232, Control_c, 13, 11, 92
18, 464264, Note_on_c, 13, 53, 0
18, 464280, Note_on_c, 13, 53, 92
18, 464280, Control_c, 13, 11, 94
18, 464328, Control_c, 13, 11, 95
18, 464376, Control_c, 13, 11, 96
18, 464384, Note_on_c, 13, 53, 0
18, 464400, Note_on_c, 13, 64, 92
18, 464424, Control_c, 13, 11, 98
18, 464472, Control_c, 13, 11, 99
18, 464520, Control_c, 13, 11, 100
18, 464564, Note_on_c, 13, 64, 0
18, 464568, Control_c, 13, 11, 102
18, 464580, Note_on_c, 13, 52, 92
18, 464616, Control_c, 13, 11, 103
18, 464624, Note_on_c, 13, 52, 0
18, 464640, Note_on_c, 13, 52, 92
18, 464664, Control_c, 13, 11, 104
18, 464712, Control_c, 13, 11, 106
18, 464744, Note_on_c, 13, 52, 0
18, 464760, Control_c, 13, 11, 107
18, 464760, Note_on_c, 13, 63, 92
18, 464808, Control_c, 13, 11, 108
18, 464856, Control_c, 13, 11, 110
18, 464904, Control_c, 13, 11, 111
18, 464924, Note_on_c, 13, 63, 0
18, 464940, Note_on_c, 13, 51, 92
18, 464952, Control_c, 13, 11, 112
18, 464984, Note_on_c, 13, 51, 0
18, 465000, Note_on_c, 13, 51, 92
18, 465000, Control_c, 13, 11, 114
18, 465048, Control_c, 13, 11, 115
18, 465096, Control_c, 13, 11, 116
18, 465104, Note_on_c, 13, 51, 0
18, 465120, Note_on_c, 13, 62, 92
18, 465144, Control_c, 13, 11, 118
18, 465192, Control_c, 13, 11, 119
18, 465240, Control_c, 13, 11, 120
18, 465284, Note_on_c, 13, 62, 0
18, 465288, Control_c, 13, 11, 122
18, 465300, Note_on_c, 13, 50, 92
18, 465336, Control_c, 13, 11, 123
18, 465344, Note_on_c, 13, 50, 0
18, 465360, Note_on_c, 13, 50, 92
18, 465384, Control_c, 13, 11, 124
18, 465432, Control_c, 13, 11, 127
18, 465464, Note_on_c, 13, 50, 0
18, 465480, Note_on_c, 13, 60, 92
18, 465644, Note_on_c, 13, 60, 0
18, 465660, Note_on_c, 13, 48, 92
18, 465704, Note_on_c, 13, 48, 0
18, 465720, Note_on_c, 13, 48, 92
18, 465824, Note_on_c, 13, 48, 0
18, 465840, Note_on_c, 13, 60, 92
18, 466004, Note_on_c, 13, 60, 0
18, 466020, Note_on_c, 13, 48, 92
18, 466064, Note_on_c, 13, 48, 0
18, 466080, Note_on_c, 13, 48, 92
18, 466184, Note_on_c, 13, 48, 0
18, 466200, Note_on_c, 13, 60, 92
18, 466364, Note_on_c, 13, 60, 0
18, 466380, Note_on_c, 13, 48, 92
18, 466424, Note_on_c, 13, 48, 0
18, 466440, Note_on_c, 13, 48, 92
18, 466544, Note_on_c, 13, 48, 0
18, 466560, Note_on_c, 13, 60, 92
18, 466724, Note_on_c, 13, 60, 0
18, 466740, Note_on_c, 13, 48, 92
18, 466784, Note_on_c, 13, 48, 0
18, 466800, Note_on_c, 13, 48, 92
18, 466904, Note_on_c, 13, 48, 0
18, 466920, Note_on_c, 13, 60, 92
18, 467084, Note_on_c, 13, 60, 0
18, 467100, Note_on_c, 13, 48, 92
18, 467144, Note_on_c, 13, 48, 0
18, 467160, Note_on_c, 13, 48, 92
18, 467264, Note_on_c, 13, 48, 0
18, 467280, Note_on_c, 13, 60, 92
18, 467444, Note_on_c, 13, 60, 0
18, 467460, Note_on_c, 13, 48, 92
18, 467504, Note_on_c, 13, 48, 0
18, 467520, Note_on_c, 13, 48, 92
18, 467624, Note_on_c, 13, 48, 0
18, 467640, Note_on_c, 13, 60, 92
18, 467804, Note_on_c, 13, 60, 0
18, 467820, Note_on_c, 13, 48, 92
18, 467864, Note_on_c, 13, 48, 0
18, 467880, Note_on_c, 13, 48, 92
18, 467984, Note_on_c, 13, 48, 0
18, 468000, Note_on_c, 13, 60, 92
18, 468164, Note_on_c, 13, 60, 0
18, 468180, Note_on_c, 13, 48, 92
18, 468224, Note_on_c, 13, 48, 0
18, 468240, Note_on_c, 13, 48, 92
18, 468344, Note_on_c, 13, 48, 0
18, 468360, Note_on_c, 13, 60, 92
18, 468524, Note_on_c, 13, 60, 0
18, 468540, Note_on_c, 13, 48, 92
18, 468584, Note_on_c, 13, 48, 0
18, 468600, Note_on_c, 13, 48, 92
18, 468704, Note_on_c, 13, 48, 0
18, 468720, Note_on_c, 13, 60, 92
18, 468884, Note_on_c, 13, 60, 0
18, 468900, Note_on_c, 13, 48, 92
18, 468944, Note_on_c, 13, 48, 0
18, 468960, Note_on_c, 13, 48, 92
18, 469064, Note_on_c, 13, 48, 0
18, 469080, Note_on_c, 13, 60, 92
18, 469244, Note_on_c, 13, 60, 0
18, 469260, Note_on_c, 13, 48, 92
18, 469304, Note_on_c, 13, 48, 0
18, 469320, Note_on_c, 13, 48, 92
18, 469424, Note_on_c, 13, 48, 0
18, 469440, Note_on_c, 13, 60, 92
18, 469604, Note_on_c, 13, 60, 0
18, 469620, Note_on_c, 13, 48, 92
18, 469664, Note_on_c, 13, 48, 0
18, 469680, Note_on_c, 13, 48, 92
18, 469784, Note_on_c, 13, 48, 0
18, 469800, Note_on_c, 13, 60, 92
18, 469964, Note_on_c, 13, 60, 0
18, 469980, Note_on_c, 13, 48, 92
18, 470024, Note_on_c, 13, 48, 0
18, 470040, Note_on_c, 13, 48, 92
18, 470144, Note_on_c, 13, 48, 0
18, 470160, Note_on_c, 13, 60, 92
18, 470324, Note_on_c, 13, 60, 0
18, 470340, Note_on_c, 13, 48, 92
18, 470384, Note_on_c, 13, 48, 0
18, 470400, Note_on_c, 13, 48, 92
18, 470504, Note_on_c, 13, 48, 0
18, 470520, Note_on_c, 13, 60, 92
18, 470684, Note_on_c, 13, 60, 0
18, 470700, Note_on_c, 13, 48, 92
18, 470744, Note_on_c, 13, 48, 0
18, 470760, Note_on_c, 13, 48, 92
18, 470864, Note_on_c, 13, 48, 0
18, 470880, Note_on_c, 13, 60, 92
18, 471044, Note_on_c, 13, 60, 0
18, 471060, Note_on_c, 13, 48, 92
18, 471104, Note_on_c, 13, 48, 0
18, 471120, Note_on_c, 13, 48, 92
18, 471224, Note_on_c, 13, 48, 0
18, 471240, Note_on_c, 13, 60, 92
18, 471359, Note_on_c, 13, 60, 0
18, 471960, Note_on_c, 13, 65, 92
18, 472124, Note_on_c, 13, 65, 0
18, 472140, Note_on_c, 13, 53, 92
18, 472184, Note_on_c, 13, 53, 0
18, 472200, Note_on_c, 13, 53, 92
18, 472304, Note_on_c, 13, 53, 0
18, 472320, Note_on_c, 13, 65, 92
18, 472409, Note_on_c, 13, 65, 0
18, 472440, Note_on_c, 13, 62, 92
18, 472529, Note_on_c, 13, 62, 0
18, 472560, Note_on_c, 13, 60, 92
18, 472649, Note_on_c, 13, 60, 0
18, 472680, Note_on_c, 13, 59, 92
18, 472799, Note_on_c, 13, 59, 0
18, 473400, Note_on_c, 13, 64, 92
18, 473564, Note_on_c, 13, 64, 0
18, 473580, Note_on_c, 13, 52, 92
18, 473624, Note_on_c, 13, 52, 0
18, 473640, Note_on_c, 13, 52, 92
18, 473744, Note_on_c, 13, 52, 0
18, 473760, Note_on_c, 13, 64, 92
18, 473849, Note_on_c, 13, 64, 0
18, 473880, Note_on_c, 13, 60, 92
18, 473969, Note_on_c, 13, 60, 0
18, 474000, Note_on_c, 13, 59, 92
18, 474089, Note_on_c, 13, 59, 0
18, 474118, Control_c, 13, 11, 87
18, 474120, Note_on_c, 13, 52, 68
18, 474239, Note_on_c, 13, 52, 0
18, 474240, Note_on_c, 13, 50, 68
18, 474359, Note_on_c, 13, 50, 0
18, 474360, Note_on_c, 13, 48, 68
18, 474479, Note_on_c, 13, 48, 0
18, 474480, Note_on_c, 13, 55, 68
18, 474599, Note_on_c, 13, 55, 0
18, 474600, Note_on_c, 13, 53, 68
18, 474719, Note_on_c, 13, 53, 0
18, 474720, Note_on_c, 13, 52, 68
18, 474839, Note_on_c, 13, 52, 0
18, 474840, Note_on_c, 13, 50, 68
18, 474840, Control_c, 13, 11, 87
18, 474870, Control_c, 13, 11, 89
18, 474900, Control_c, 13, 11, 90
18, 474930, Control_c, 13, 11, 92
18, 474959, Note_on_c, 13, 50, 0
18, 474960, Control_c, 13, 11, 94
18, 474960, Note_on_c, 13, 48, 68
18, 474990, Control_c, 13, 11, 95
18, 475020, Control_c, 13, 11, 97
18, 475050, Control_c, 13, 11, 99
18, 475079, Note_on_c, 13, 48, 0
18, 475080, Control_c, 13, 11, 100
18, 475080, Note_on_c, 13, 50, 68
18, 475110, Control_c, 13, 11, 102
18, 475140, Control_c, 13, 11, 104
18, 475170, Control_c, 13, 11, 105
18, 475199, Note_on_c, 13, 50, 0
18, 475200, Control_c, 13, 11, 107
18, 475200, Note_on_c, 13, 52, 68
18, 475230, Control_c, 13, 11, 109
18, 475260, Control_c, 13, 11, 110
18, 475290, Control_c, 13, 11, 112
18, 475319, Note_on_c, 13, 52, 0
18, 475320, Control_c, 13, 11, 114
18, 475320, Note_on_c, 13, 53, 68
18, 475350, Control_c, 13, 11, 115
18, 475380, Control_c, 13, 11, 117
18, 475410, Control_c, 13, 11, 119
18, 475439, Note_on_c, 13, 53, 0
18, 475440, Control_c, 13, 11, 120
18, 475440, Note_on_c, 13, 55, 68
18, 475470, Control_c, 13, 11, 122
18, 475500, Control_c, 13, 11, 124
18, 475530, Control_c, 13, 11, 125
18, 475559, Note_on_c, 13, 55, 0
18, 475560, Control_c, 13, 11, 127
18, 475560, Note_on_c, 13, 54, 68
18, 475590, Control_c, 13, 11, 125
18, 475620, Control_c, 13, 11, 124
18, 475650, Control_c, 13, 11, 122
18, 475679, Note_on_c, 13, 54, 0
18, 475680, Note_on_c, 13, 55, 68
18, 475680, Control_c, 13, 11, 120
18, 475710, Control_c, 13, 11, 119
18, 475740, Control_c, 13, 11, 117
18, 475770, Control_c, 13, 11, 115
18, 475799, Note_on_c, 13, 55, 0
18, 475800, Control_c, 13, 11, 114
18, 475800, Note_on_c, 13, 57, 68
18, 475830, Control_c, 13, 11, 112
18, 475860, Control_c, 13, 11, 110
18, 475890, Control_c, 13, 11, 109
18, 475919, Note_on_c, 13, 57, 0
18, 475920, Note_on_c, 13, 55, 68
18, 475920, Control_c, 13, 11, 107
18, 475950, Control_c, 13, 11, 105
18, 475980, Control_c, 13, 11, 104
18, 476010, Control_c, 13, 11, 102
18, 476039, Note_on_c, 13, 55, 0
18, 476040, Control_c, 13, 11, 100
18, 476040, Note_on_c, 13, 53, 68
18, 476070, Control_c, 13, 11, 99
18, 476100, Control_c, 13, 11, 97
18, 476130, Control_c, 13, 11, 95
18, 476159, Note_on_c, 13, 53, 0
18, 476160, Note_on_c, 13, 52, 68
18, 476160, Control_c, 13, 11, 94
18, 476190, Control_c, 13, 11, 92
18, 476220, Control_c, 13, 11, 90
18, 476250, Control_c, 13, 11, 87
18, 476264, Note_on_c, 13, 52, 0
18, 476278, Control_c, 13, 11, 67
18, 476280, Control_c, 13, 11, 67
18, 476280, Note_on_c, 13, 48, 80
18, 476310, Control_c, 13, 11, 68
18, 476340, Control_c, 13, 11, 70
18, 476370, Control_c, 13, 11, 71
18, 476400, Control_c, 13, 11, 72
18, 476430, Control_c, 13, 11, 73
18, 476460, Control_c, 13, 11, 75
18, 476490, Control_c, 13, 11, 76
18, 476520, Control_c, 13, 11, 77
18, 476550, Control_c, 13, 11, 78
18, 476580, Control_c, 13, 11, 80
18, 476610, Control_c, 13, 11, 81
18, 476640, Control_c, 13, 11, 82
18, 476670, Control_c, 13, 11, 83
18, 476700, Control_c, 13, 11, 85
18, 476730, Control_c, 13, 11, 86
18, 476760, Control_c, 13, 11, 87
18, 476790, Control_c, 13, 11, 88
18, 476820, Control_c, 13, 11, 90
18, 476850, Control_c, 13, 11, 91
18, 476880, Control_c, 13, 11, 92
18, 476910, Control_c, 13, 11, 93
18, 476940, Control_c, 13, 11, 95
18, 476970, Control_c, 13, 11, 96
18, 477000, Control_c, 13, 11, 97
18, 477030, Control_c, 13, 11, 98
18, 477060, Control_c, 13, 11, 100
18, 477090, Control_c, 13, 11, 101
18, 477120, Control_c, 13, 11, 102
18, 477150, Control_c, 13, 11, 103
18, 477180, Control_c, 13, 11, 105
18, 477210, Control_c, 13, 11, 106
18, 477240, Control_c, 13, 11, 107
18, 477270, Control_c, 13, 11, 108
18, 477300, Control_c, 13, 11, 110
18, 477330, Control_c, 13, 11, 111
18, 477360, Control_c, 13, 11, 112
18, 477390, Control_c, 13, 11, 113
18, 477420, Control_c, 13, 11, 115
18, 477450, Control_c, 13, 11, 116
18, 477480, Control_c, 13, 11, 117
18, 477510, Control_c, 13, 11, 118
18, 477540, Control_c, 13, 11, 120
18, 477570, Control_c, 13, 11, 121
18, 477600, Control_c, 13, 11, 122
18, 477630, Control_c, 13, 11, 123
18, 477660, Control_c, 13, 11, 125
18, 477690, Control_c, 13, 11, 127
18, 477839, Note_on_c, 13, 48, 0
18, 478440, Note_on_c, 13, 64, 80
18, 478529, Note_on_c, 13, 64, 0
18, 478560, Note_on_c, 13, 76, 80
18, 478649, Note_on_c, 13, 76, 0
18, 478680, Note_on_c, 13, 72, 80
18, 478769, Note_on_c, 13, 72, 0
18, 478800, Note_on_c, 13, 69, 80
18, 478889, Note_on_c, 13, 69, 0
18, 478920, Note_on_c, 13, 71, 80
18, 479009, Note_on_c, 13, 71, 0
18, 479040, Note_on_c, 13, 72, 80
18, 479129, Note_on_c, 13, 72, 0
18, 479160, Note_on_c, 13, 72, 80
18, 479279, Note_on_c, 13, 72, 0
18, 479880, Note_on_c, 13, 64, 80
18, 479969, Note_on_c, 13, 64, 0
18, 480000, Note_on_c, 13, 60, 80
18, 480089, Note_on_c, 13, 60, 0
18, 480120, Note_on_c, 13, 65, 80
18, 480209, Note_on_c, 13, 65, 0
18, 480240, Note_on_c, 13, 62, 80
18, 480329, Note_on_c, 13, 62, 0
18, 480360, Note_on_c, 13, 59, 80
18, 480449, Note_on_c, 13, 59, 0
18, 480480, Note_on_c, 13, 64, 80
18, 480569, Note_on_c, 13, 64, 0
18, 480600, Note_on_c, 13, 64, 80
18, 480600, Note_on_c, 13, 55, 80
18, 480600, Note_on_c, 13, 48, 80
18, 480719, Note_on_c, 13, 64, 0
18, 480719, Note_on_c, 13, 55, 0
18, 480719, Note_on_c, 13, 48, 0
18, 480960, Note_on_c, 13, 67, 80
18, 481124, Note_on_c, 13, 67, 0
18, 481140, Note_on_c, 13, 55, 80
18, 481184, Note_on_c, 13, 55, 0
18, 481200, Note_on_c, 13, 55, 80
18, 481304, Note_on_c, 13, 55, 0
18, 481320, Note_on_c, 13, 48, 80
18, 481439, Note_on_c, 13, 48, 0
18, 481680, Note_on_c, 13, 67, 80
18, 481844, Note_on_c, 13, 67, 0
18, 481860, Note_on_c, 13, 55, 80
18, 481904, Note_on_c, 13, 55, 0
18, 481920, Note_on_c, 13, 55, 80
18, 482024, Note_on_c, 13, 55, 0
18, 482040, Note_on_c, 13, 60, 32
18, 482159, Note_on_c, 13, 60, 0
18, 482160, Note_on_c, 13, 59, 32
18, 482279, Note_on_c, 13, 59, 0
18, 482280, Note_on_c, 13, 57, 32
18, 482399, Note_on_c, 13, 57, 0
18, 482400, Note_on_c, 13, 55, 32
18, 482519, Note_on_c, 13, 55, 0
18, 482520, Note_on_c, 13, 53, 32
18, 482639, Note_on_c, 13, 53, 0
18, 482640, Note_on_c, 13, 52, 32
18, 482759, Note_on_c, 13, 52, 0
18, 482760, Note_on_c, 13, 50, 32
18, 482879, Note_on_c, 13, 50, 0
18, 482880, Note_on_c, 13, 52, 32
18, 482999, Note_on_c, 13, 52, 0
18, 483000, Note_on_c, 13, 50, 32
18, 483059, Note_on_c, 13, 50, 0
18, 483060, Note_on_c, 13, 62, 32
18, 483119, Note_on_c, 13, 62, 0
18, 483120, Note_on_c, 13, 60, 32
18, 483239, Note_on_c, 13, 60, 0
18, 483240, Note_on_c, 13, 59, 32
18, 483359, Note_on_c, 13, 59, 0
18, 483360, Note_on_c, 13, 57, 32
18, 483419, Note_on_c, 13, 57, 0
18, 483420, Note_on_c, 13, 55, 32
18, 483464, Note_on_c, 13, 55, 0
18, 483480, Note_on_c, 13, 55, 32
18, 483480, Note_on_c, 13, 52, 32
18, 483644, Note_on_c, 13, 55, 0
18, 483644, Note_on_c, 13, 52, 0
18, 483660, Note_on_c, 13, 64, 32
18, 483704, Note_on_c, 13, 64, 0
18, 483720, Note_on_c, 13, 64, 32
18, 483824, Note_on_c, 13, 64, 0
18, 483840, Note_on_c, 13, 64, 32
18, 483959, Note_on_c, 13, 64, 0
18, 484200, Note_on_c, 13, 57, 32
18, 484364, Note_on_c, 13, 57, 0
18, 484380, Note_on_c, 13, 65, 32
18, 484424, Note_on_c, 13, 65, 0
18, 484440, Note_on_c, 13, 65, 32
18, 484544, Note_on_c, 13, 65, 0
18, 484560, Note_on_c, 13, 65, 32
18, 484679, Note_on_c, 13, 65, 0
18, 486360, Note_on_c, 13, 53, 32
18, 486524, Note_on_c, 13, 53, 0
18, 486540, Note_on_c, 13, 65, 32
18, 486584, Note_on_c, 13, 65, 0
18, 486600, Note_on_c, 13, 65, 32
18, 486704, Note_on_c, 13, 65, 0
18, 486720, Note_on_c, 13, 65, 32
18, 486839, Note_on_c, 13, 65, 0
18, 487080, Note_on_c, 13, 55, 32
18, 487244, Note_on_c, 13, 55, 0
18, 487260, Note_on_c, 13, 67, 32
18, 487304, Note_on_c, 13, 67, 0
18, 487320, Note_on_c, 13, 67, 32
18, 487424, Note_on_c, 13, 67, 0
18, 487440, Note_on_c, 13, 67, 32
18, 487559, Note_on_c, 13, 67, 0
18, 489240, Note_on_c, 13, 55, 32
18, 489404, Note_on_c, 13, 55, 0
18, 489420, Note_on_c, 13, 67, 34
18, 489464, Note_on_c, 13, 67, 0
18, 489480, Note_on_c, 13, 67, 34
18, 489584, Note_on_c, 13, 67, 0
18, 489600, Note_on_c, 13, 67, 36
18, 489719, Note_on_c, 13, 67, 0
18, 489960, Note_on_c, 13, 60, 40
18, 490124, Note_on_c, 13, 60, 0
18, 490140, Note_on_c, 13, 48, 42
18, 490184, Note_on_c, 13, 48, 0
18, 490200, Note_on_c, 13, 48, 42
18, 490304, Note_on_c, 13, 48, 0
18, 490320, Note_on_c, 13, 56, 44
18, 490439, Note_on_c, 13, 56, 0
18, 490680, Note_on_c, 13, 53, 48
18, 490844, Note_on_c, 13, 53, 0
18, 490860, Note_on_c, 13, 65, 50
18, 490904, Note_on_c, 13, 65, 0
18, 490920, Note_on_c, 13, 65, 50
18, 491024, Note_on_c, 13, 65, 0
18, 491040, Note_on_c, 13, 61, 52
18, 491159, Note_on_c, 13, 61, 0
18, 491400, Note_on_c, 13, 58, 56
18, 491564, Note_on_c, 13, 58, 0
18, 491580, Note_on_c, 13, 61, 58
18, 491624, Note_on_c, 13, 61, 0
18, 491640, Note_on_c, 13, 61, 58
18, 491744, Note_on_c, 13, 61, 0
18, 491760, Note_on_c, 13, 63, 60
18, 491879, Note_on_c, 13, 63, 0
18, 492120, Note_on_c, 13, 51, 64
18, 492284, Note_on_c, 13, 51, 0
18, 492300, Note_on_c, 13, 63, 66
18, 492344, Note_on_c, 13, 63, 0
18, 492360, Note_on_c, 13, 63, 66
18, 492464, Note_on_c, 13, 63, 0
18, 492480, Note_on_c, 13, 59, 68
18, 492599, Note_on_c, 13, 59, 0
18, 492840, Note_on_c, 13, 59, 72
18, 493004, Note_on_c, 13, 59, 0
18, 493020, Note_on_c, 13, 64, 74
18, 493064, Note_on_c, 13, 64, 0
18, 493080, Note_on_c, 13, 64, 74
18, 493184, Note_on_c, 13, 64, 0
18, 493200, Note_on_c, 13, 64, 76
18, 493319, Note_on_c, 13, 64, 0
18, 493560, Note_on_c, 13, 57, 80
18, 493724, Note_on_c, 13, 57, 0
18, 493740, Note_on_c, 13, 69, 80
18, 493784, Note_on_c, 13, 69, 0
18, 493800, Note_on_c, 13, 69, 80
18, 493904, Note_on_c, 13, 69, 0
18, 494280, Note_on_c, 13, 58, 92
18, 494444, Note_on_c, 13, 58, 0
18, 494460, Note_on_c, 13, 70, 92
18, 494504, Note_on_c, 13, 70, 0
18, 494520, Note_on_c, 13, 70, 92
18, 494624, Note_on_c, 13, 70, 0
18, 495000, Note_on_c, 13, 59, 92
18, 495164, Note_on_c, 13, 59, 0
18, 495180, Note_on_c, 13, 71, 92
18, 495224, Note_on_c, 13, 71, 0
18, 495240, Note_on_c, 13, 71, 92
18, 495344, Note_on_c, 13, 71, 0
18, 496080, Program_c, 13, 45
18, 496440, Note_on_c, 13, 59, 40
18, 496559, Note_on_c, 13, 59, 0
18, 496800, Note_on_c, 13, 59, 40
18, 496919, Note_on_c, 13, 59, 0
18, 497520, Note_on_c, 13, 59, 40
18, 497639, Note_on_c, 13, 59, 0
18, 497880, Note_on_c, 13, 59, 40
18, 497999, Note_on_c, 13, 59, 0
18, 498600, Note_on_c, 13, 59, 40
18, 498719, Note_on_c, 13, 59, 0
18, 498960, Note_on_c, 13, 59, 40
18, 499079, Note_on_c, 13, 59, 0
18, 499680, Note_on_c, 13, 64, 40
18, 499799, Note_on_c, 13, 64, 0
18, 500040, Note_on_c, 13, 52, 40
18, 500159, Note_on_c, 13, 52, 0
18, 500760, Note_on_c, 13, 57, 40
18, 500879, Note_on_c, 13, 57, 0
18, 501120, Note_on_c, 13, 52, 40
18, 501239, Note_on_c, 13, 52, 0
18, 501840, Note_on_c, 13, 57, 40
18, 501959, Note_on_c, 13, 57, 0
18, 502200, Note_on_c, 13, 52, 40
18, 502319, Note_on_c, 13, 52, 0
18, 502920, Note_on_c, 13, 65, 40
18, 503039, Note_on_c, 13, 65, 0
18, 503280, Note_on_c, 13, 53, 40
18, 503399, Note_on_c, 13, 53, 0
18, 504000, Note_on_c, 13, 65, 40
18, 504119, Note_on_c, 13, 65, 0
18, 504360, Note_on_c, 13, 53, 40
18, 504479, Note_on_c, 13, 53, 0
18, 505080, Note_on_c, 13, 65, 40
18, 505199, Note_on_c, 13, 65, 0
18, 505440, Note_on_c, 13, 53, 40
18, 505559, Note_on_c, 13, 53, 0
18, 506160, Note_on_c, 13, 65, 40
18, 506279, Note_on_c, 13, 65, 0
18, 506520, Note_on_c, 13, 53, 40
18, 506639, Note_on_c, 13, 53, 0
18, 506880, Note_on_c, 13, 65, 40
18, 506999, Note_on_c, 13, 65, 0
18, 507240, Note_on_c, 13, 53, 40
18, 507359, Note_on_c, 13, 53, 0
18, 507600, Note_on_c, 13, 65, 40
18, 507719, Note_on_c, 13, 65, 0
18, 507840, Program_c, 13, 48
18, 507960, Note_on_c, 13, 58, 44
18, 507960, Note_on_c, 13, 67, 44
18, 508064, Note_on_c, 13, 58, 0
18, 508064, Note_on_c, 13, 67, 0
18, 508080, Note_on_c, 13, 57, 44
18, 508080, Note_on_c, 13, 65, 44
18, 508184, Note_on_c, 13, 57, 0
18, 508184, Note_on_c, 13, 65, 0
18, 508200, Note_on_c, 13, 64, 44
18, 508200, Note_on_c, 13, 55, 44
18, 508304, Note_on_c, 13, 64, 0
18, 508304, Note_on_c, 13, 55, 0
18, 508320, Note_on_c, 13, 55, 43
18, 508320, Note_on_c, 13, 64, 43
18, 508424, Note_on_c, 13, 55, 0
18, 508424, Note_on_c, 13, 64, 0
18, 508440, Note_on_c, 13, 65, 43
18, 508440, Note_on_c, 13, 57, 43
18, 508544, Note_on_c, 13, 65, 0
18, 508544, Note_on_c, 13, 57, 0
18, 508560, Note_on_c, 13, 67, 43
18, 508560, Note_on_c, 13, 58, 43
18, 508664, Note_on_c, 13, 67, 0
18, 508664, Note_on_c, 13, 58, 0
18, 508680, Note_on_c, 13, 58, 42
18, 508680, Note_on_c, 13, 67, 42
18, 508784, Note_on_c, 13, 58, 0
18, 508784, Note_on_c, 13, 67, 0
18, 508800, Note_on_c, 13, 65, 42
18, 508800, Note_on_c, 13, 57, 42
18, 508904, Note_on_c, 13, 65, 0
18, 508904, Note_on_c, 13, 57, 0
18, 508920, Note_on_c, 13, 67, 42
18, 508920, Note_on_c, 13, 58, 42
18, 509024, Note_on_c, 13, 67, 0
18, 509024, Note_on_c, 13, 58, 0
18, 509038, Program_c, 13, 45
18, 509040, Note_on_c, 13, 62, 33
18, 509159, Note_on_c, 13, 62, 0
18, 509400, Note_on_c, 13, 50, 32
18, 509519, Note_on_c, 13, 50, 0
18, 509760, Note_on_c, 13, 62, 31
18, 509879, Note_on_c, 13, 62, 0
18, 510000, Program_c, 13, 48
18, 510120, Note_on_c, 13, 64, 38
18, 510120, Note_on_c, 13, 55, 38
18, 510224, Note_on_c, 13, 64, 0
18, 510224, Note_on_c, 13, 55, 0
18, 510240, Note_on_c, 13, 53, 38
18, 510240, Note_on_c, 13, 62, 38
18, 510344, Note_on_c, 13, 53, 0
18, 510344, Note_on_c, 13, 62, 0
18, 510360, Note_on_c, 13, 52, 38
18, 510360, Note_on_c, 13, 61, 38
18, 510464, Note_on_c, 13, 52, 0
18, 510464, Note_on_c, 13, 61, 0
18, 510480, Note_on_c, 13, 52, 37
18, 510480, Note_on_c, 13, 61, 37
18, 510584, Note_on_c, 13, 52, 0
18, 510584, Note_on_c, 13, 61, 0
18, 510600, Note_on_c, 13, 62, 37
18, 510600, Note_on_c, 13, 53, 37
18, 510704, Note_on_c, 13, 62, 0
18, 510704, Note_on_c, 13, 53, 0
18, 510720, Note_on_c, 13, 55, 37
18, 510720, Note_on_c, 13, 64, 37
18, 510824, Note_on_c, 13, 55, 0
18, 510824, Note_on_c, 13, 64, 0
18, 510840, Note_on_c, 13, 55, 36
18, 510840, Note_on_c, 13, 64, 36
18, 510944, Note_on_c, 13, 55, 0
18, 510944, Note_on_c, 13, 64, 0
18, 510960, Note_on_c, 13, 62, 36
18, 510960, Note_on_c, 13, 53, 36
18, 511064, Note_on_c, 13, 62, 0
18, 511064, Note_on_c, 13, 53, 0
18, 511080, Note_on_c, 13, 64, 36
18, 511080, Note_on_c, 13, 55, 36
18, 511184, Note_on_c, 13, 64, 0
18, 511184, Note_on_c, 13, 55, 0
18, 511198, Program_c, 13, 45
18, 511200, Note_on_c, 13, 69, 30
18, 511319, Note_on_c, 13, 69, 0
18, 511560, Note_on_c, 13, 57, 30
18, 511679, Note_on_c, 13, 57, 0
18, 511920, Note_on_c, 13, 69, 29
18, 512039, Note_on_c, 13, 69, 0
18, 512160, Program_c, 13, 48
18, 512280, Note_on_c, 13, 64, 32
18, 512280, Note_on_c, 13, 55, 32
18, 512384, Note_on_c, 13, 64, 0
18, 512384, Note_on_c, 13, 55, 0
18, 512400, Note_on_c, 13, 53, 32
18, 512400, Note_on_c, 13, 62, 32
18, 512504, Note_on_c, 13, 53, 0
18, 512504, Note_on_c, 13, 62, 0
18, 512520, Note_on_c, 13, 52, 32
18, 512520, Note_on_c, 13, 61, 32
18, 512624, Note_on_c, 13, 52, 0
18, 512624, Note_on_c, 13, 61, 0
18, 512640, Note_on_c, 13, 61, 32
18, 512640, Note_on_c, 13, 52, 32
18, 512744, Note_on_c, 13, 61, 0
18, 512744, Note_on_c, 13, 52, 0
18, 512760, Note_on_c, 13, 53, 32
18, 512760, Note_on_c, 13, 62, 32
18, 512864, Note_on_c, 13, 53, 0
18, 512864, Note_on_c, 13, 62, 0
18, 512880, Note_on_c, 13, 55, 32
18, 512880, Note_on_c, 13, 64, 32
18, 512984, Note_on_c, 13, 55, 0
18, 512984, Note_on_c, 13, 64, 0
18, 513000, Note_on_c, 13, 55, 32
18, 513000, Note_on_c, 13, 64, 32
18, 513104, Note_on_c, 13, 55, 0
18, 513104, Note_on_c, 13, 64, 0
18, 513120, Note_on_c, 13, 53, 32
18, 513120, Note_on_c, 13, 62, 32
18, 513224, Note_on_c, 13, 53, 0
18, 513224, Note_on_c, 13, 62, 0
18, 513240, Note_on_c, 13, 64, 32
18, 513240, Note_on_c, 13, 55, 32
18, 513344, Note_on_c, 13, 64, 0
18, 513344, Note_on_c, 13, 55, 0
18, 513360, Note_on_c, 13, 58, 32
18, 513464, Note_on_c, 13, 58, 0
18, 513480, Note_on_c, 13, 57, 32
18, 513584, Note_on_c, 13, 57, 0
18, 513600, Note_on_c, 13, 55, 32
18, 513704, Note_on_c, 13, 55, 0
18, 513720, Note_on_c, 13, 53, 32
18, 513839, Note_on_c, 13, 53, 0
18, 513960, Program_c, 13, 45
18, 514080, Note_on_c, 13, 57, 28
18, 514199, Note_on_c, 13, 57, 0
18, 514800, Note_on_c, 13, 57, 28
18, 514919, Note_on_c, 13, 57, 0
18, 515160, Note_on_c, 13, 57, 28
18, 515279, Note_on_c, 13, 57, 0
18, 515880, Note_on_c, 13, 57, 28
18, 515999, Note_on_c, 13, 57, 0
18, 516240, Note_on_c, 13, 57, 28
18, 516359, Note_on_c, 13, 57, 0
18, 516960, Program_c, 13, 48
18, 517320, Note_on_c, 13, 69, 32
18, 517484, Note_on_c, 13, 69, 0
18, 517500, Note_on_c, 13, 57, 32
18, 517544, Note_on_c, 13, 57, 0
18, 517560, Note_on_c, 13, 57, 32
18, 517664, Note_on_c, 13, 57, 0
18, 517680, Note_on_c, 13, 62, 32
18, 517784, Note_on_c, 13, 62, 0
18, 517800, Note_on_c, 13, 64, 32
18, 517904, Note_on_c, 13, 64, 0
18, 517920, Note_on_c, 13, 65, 32
18, 518024, Note_on_c, 13, 65, 0
18, 518040, Note_on_c, 13, 62, 32
18, 518144, Note_on_c, 13, 62, 0
18, 518160, Note_on_c, 13, 63, 32
18, 518264, Note_on_c, 13, 63, 0
18, 518280, Note_on_c, 13, 65, 32
18, 518384, Note_on_c, 13, 65, 0
18, 518400, Note_on_c, 13, 63, 32
18, 518504, Note_on_c, 13, 63, 0
18, 518520, Note_on_c, 13, 62, 32
18, 518624, Note_on_c, 13, 62, 0
18, 518640, Note_on_c, 13, 60, 32
18, 518744, Note_on_c, 13, 60, 0
18, 518760, Note_on_c, 13, 62, 32
18, 518864, Note_on_c, 13, 62, 0
18, 518880, Note_on_c, 13, 60, 32
18, 518984, Note_on_c, 13, 60, 0
18, 519000, Note_on_c, 13, 59, 32
18, 519104, Note_on_c, 13, 59, 0
18, 519120, Note_on_c, 13, 60, 32
18, 519224, Note_on_c, 13, 60, 0
18, 519240, Note_on_c, 13, 65, 32
18, 519344, Note_on_c, 13, 65, 0
18, 519360, Note_on_c, 13, 67, 32
18, 519464, Note_on_c, 13, 67, 0
18, 519480, Note_on_c, 13, 65, 32
18, 519584, Note_on_c, 13, 65, 0
18, 519600, Note_on_c, 13, 67, 32
18, 519704, Note_on_c, 13, 67, 0
18, 519720, Note_on_c, 13, 68, 32
18, 519824, Note_on_c, 13, 68, 0
18, 519840, Note_on_c, 13, 67, 32
18, 519944, Note_on_c, 13, 67, 0
18, 519960, Note_on_c, 13, 65, 32
18, 520064, Note_on_c, 13, 65, 0
18, 520080, Note_on_c, 13, 63, 32
18, 520184, Note_on_c, 13, 63, 0
18, 520200, Note_on_c, 13, 70, 32
18, 520364, Note_on_c, 13, 70, 0
18, 520380, Note_on_c, 13, 58, 32
18, 520424, Note_on_c, 13, 58, 0
18, 520440, Note_on_c, 13, 58, 32
18, 520544, Note_on_c, 13, 58, 0
18, 520560, Note_on_c, 13, 63, 32
18, 520664, Note_on_c, 13, 63, 0
18, 520680, Note_on_c, 13, 65, 32
18, 520784, Note_on_c, 13, 65, 0
18, 520800, Note_on_c, 13, 67, 32
18, 520904, Note_on_c, 13, 67, 0
18, 520920, Note_on_c, 13, 65, 32
18, 521024, Note_on_c, 13, 65, 0
18, 521040, Note_on_c, 13, 63, 32
18, 521144, Note_on_c, 13, 63, 0
18, 521160, Note_on_c, 13, 62, 32
18, 521264, Note_on_c, 13, 62, 0
18, 521280, Note_on_c, 13, 58, 32
18, 521384, Note_on_c, 13, 58, 0
18, 521400, Note_on_c, 13, 62, 32
18, 521504, Note_on_c, 13, 62, 0
18, 521520, Note_on_c, 13, 63, 32
18, 521624, Note_on_c, 13, 63, 0
18, 521640, Note_on_c, 13, 65, 32
18, 523064, Note_on_c, 13, 65, 0
18, 523080, Note_on_c, 13, 51, 32
18, 523169, Note_on_c, 13, 51, 0
18, 523200, Note_on_c, 13, 53, 32
18, 523289, Note_on_c, 13, 53, 0
18, 523320, Note_on_c, 13, 55, 32
18, 523409, Note_on_c, 13, 55, 0
18, 523440, Note_on_c, 13, 55, 32
18, 523529, Note_on_c, 13, 55, 0
18, 523560, Note_on_c, 13, 56, 32
18, 523649, Note_on_c, 13, 56, 0
18, 523680, Note_on_c, 13, 58, 32
18, 523769, Note_on_c, 13, 58, 0
18, 523800, Note_on_c, 13, 63, 32
18, 523889, Note_on_c, 13, 63, 0
18, 523920, Note_on_c, 13, 65, 32
18, 524009, Note_on_c, 13, 65, 0
18, 524040, Note_on_c, 13, 67, 32
18, 524129, Note_on_c, 13, 67, 0
18, 524160, Note_on_c, 13, 67, 32
18, 524249, Note_on_c, 13, 67, 0
18, 524280, Note_on_c, 13, 68, 32
18, 524369, Note_on_c, 13, 68, 0
18, 524400, Note_on_c, 13, 70, 32
18, 524489, Note_on_c, 13, 70, 0
18, 524518, Control_c, 13, 11, 47
18, 524520, Control_c, 13, 11, 47
18, 524520, Note_on_c, 13, 74, 80
18, 524592, Control_c, 13, 11, 48
18, 524664, Control_c, 13, 11, 49
18, 524736, Control_c, 13, 11, 50
18, 524808, Control_c, 13, 11, 51
18, 524880, Control_c, 13, 11, 52
18, 524952, Control_c, 13, 11, 53
18, 525024, Control_c, 13, 11, 54
18, 525096, Control_c, 13, 11, 55
18, 525168, Control_c, 13, 11, 56
18, 525240, Control_c, 13, 11, 57
18, 525312, Control_c, 13, 11, 58
18, 525384, Control_c, 13, 11, 59
18, 525456, Control_c, 13, 11, 60
18, 525528, Control_c, 13, 11, 61
18, 525600, Control_c, 13, 11, 62
18, 525672, Control_c, 13, 11, 63
18, 525744, Control_c, 13, 11, 64
18, 525816, Control_c, 13, 11, 65
18, 525888, Control_c, 13, 11, 66
18, 525944, Note_on_c, 13, 74, 0
18, 525960, Control_c, 13, 11, 67
18, 525960, Note_on_c, 13, 74, 80
18, 525990, Control_c, 13, 11, 68
18, 526020, Control_c, 13, 11, 70
18, 526050, Control_c, 13, 11, 71
18, 526080, Control_c, 13, 11, 72
18, 526110, Control_c, 13, 11, 73
18, 526140, Control_c, 13, 11, 75
18, 526170, Control_c, 13, 11, 76
18, 526200, Control_c, 13, 11, 77
18, 526230, Control_c, 13, 11, 78
18, 526260, Control_c, 13, 11, 80
18, 526290, Control_c, 13, 11, 81
18, 526320, Control_c, 13, 11, 82
18, 526350, Control_c, 13, 11, 83
18, 526380, Control_c, 13, 11, 85
18, 526410, Control_c, 13, 11, 86
18, 526440, Control_c, 13, 11, 87
18, 526470, Control_c, 13, 11, 88
18, 526500, Control_c, 13, 11, 90
18, 526530, Control_c, 13, 11, 91
18, 526560, Control_c, 13, 11, 92
18, 526590, Control_c, 13, 11, 93
18, 526620, Control_c, 13, 11, 95
18, 526650, Control_c, 13, 11, 96
18, 526680, Control_c, 13, 11, 97
18, 526710, Control_c, 13, 11, 98
18, 526740, Control_c, 13, 11, 100
18, 526770, Control_c, 13, 11, 101
18, 526800, Control_c, 13, 11, 102
18, 526830, Control_c, 13, 11, 103
18, 526860, Control_c, 13, 11, 105
18, 526890, Control_c, 13, 11, 106
18, 526920, Control_c, 13, 11, 107
18, 526950, Control_c, 13, 11, 108
18, 526980, Control_c, 13, 11, 110
18, 527010, Control_c, 13, 11, 111
18, 527040, Control_c, 13, 11, 112
18, 527070, Control_c, 13, 11, 113
18, 527100, Control_c, 13, 11, 115
18, 527130, Control_c, 13, 11, 116
18, 527160, Control_c, 13, 11, 117
18, 527190, Control_c, 13, 11, 118
18, 527220, Control_c, 13, 11, 120
18, 527250, Control_c, 13, 11, 121
18, 527280, Control_c, 13, 11, 122
18, 527310, Control_c, 13, 11, 123
18, 527340, Control_c, 13, 11, 125
18, 527370, Control_c, 13, 11, 127
18, 527384, Note_on_c, 13, 74, 0
18, 527400, Note_on_c, 13, 74, 80
18, 527400, Note_on_c, 13, 57, 80
18, 527400, Note_on_c, 13, 65, 80
18, 527519, Note_on_c, 13, 74, 0
18, 527519, Note_on_c, 13, 57, 0
18, 527519, Note_on_c, 13, 65, 0
18, 528120, Note_on_c, 13, 62, 86
18, 528120, Note_on_c, 13, 65, 86
18, 528239, Note_on_c, 13, 62, 0
18, 528239, Note_on_c, 13, 65, 0
18, 528840, Note_on_c, 13, 57, 92
18, 528840, Note_on_c, 13, 65, 92
18, 528840, Note_on_c, 13, 74, 92
18, 529004, Note_on_c, 13, 57, 0
18, 529004, Note_on_c, 13, 65, 0
18, 529004, Note_on_c, 13, 74, 0
18, 529020, Note_on_c, 13, 69, 92
18, 529020, Note_on_c, 13, 65, 92
18, 529064, Note_on_c, 13, 69, 0
18, 529064, Note_on_c, 13, 65, 0
18, 529080, Note_on_c, 13, 65, 92
18, 529080, Note_on_c, 13, 69, 92
18, 529184, Note_on_c, 13, 65, 0
18, 529184, Note_on_c, 13, 69, 0
18, 529200, Note_on_c, 13, 65, 92
18, 529200, Note_on_c, 13, 74, 92
18, 529200, Note_on_c, 13, 57, 92
18, 529364, Note_on_c, 13, 65, 0
18, 529364, Note_on_c, 13, 74, 0
18, 529364, Note_on_c, 13, 57, 0
18, 529380, Note_on_c, 13, 69, 92
18, 529380, Note_on_c, 13, 65, 92
18, 529424, Note_on_c, 13, 69, 0
18, 529424, Note_on_c, 13, 65, 0
18, 529440, Note_on_c, 13, 65, 92
18, 529440, Note_on_c, 13, 69, 92
18, 529544, Note_on_c, 13, 65, 0
18, 529544, Note_on_c, 13, 69, 0
18, 529560, Note_on_c, 13, 57, 92
18, 529560, Note_on_c, 13, 65, 92
18, 529560, Note_on_c, 13, 74, 92
18, 529724, Note_on_c, 13, 57, 0
18, 529724, Note_on_c, 13, 65, 0
18, 529724, Note_on_c, 13, 74, 0
18, 529740, Note_on_c, 13, 65, 92
18, 529740, Note_on_c, 13, 69, 92
18, 529784, Note_on_c, 13, 65, 0
18, 529784, Note_on_c, 13, 69, 0
18, 529800, Note_on_c, 13, 69, 92
18, 529800, Note_on_c, 13, 65, 92
18, 529904, Note_on_c, 13, 69, 0
18, 529904, Note_on_c, 13, 65, 0
18, 529920, Note_on_c, 13, 74, 92
18, 529920, Note_on_c, 13, 65, 92
18, 529920, Note_on_c, 13, 57, 92
18, 530084, Note_on_c, 13, 74, 0
18, 530084, Note_on_c, 13, 65, 0
18, 530084, Note_on_c, 13, 57, 0
18, 530100, Note_on_c, 13, 69, 92
18, 530100, Note_on_c, 13, 65, 92
18, 530144, Note_on_c, 13, 69, 0
18, 530144, Note_on_c, 13, 65, 0
18, 530160, Note_on_c, 13, 69, 92
18, 530160, Note_on_c, 13, 65, 92
18, 530264, Note_on_c, 13, 69, 0
18, 530264, Note_on_c, 13, 65, 0
18, 530280, Note_on_c, 13, 69, 92
18, 530280, Note_on_c, 13, 57, 92
18, 530444, Note_on_c, 13, 69, 0
18, 530444, Note_on_c, 13, 57, 0
18, 530460, Note_on_c, 13, 57, 92
18, 530504, Note_on_c, 13, 57, 0
18, 530520, Note_on_c, 13, 57, 92
18, 530624, Note_on_c, 13, 57, 0
18, 530640, Note_on_c, 13, 62, 92
18, 530729, Note_on_c, 13, 62, 0
18, 530760, Note_on_c, 13, 64, 92
18, 530849, Note_on_c, 13, 64, 0
18, 530880, Note_on_c, 13, 65, 92
18, 530969, Note_on_c, 13, 65, 0
18, 531000, Note_on_c, 13, 64, 92
18, 531089, Note_on_c, 13, 64, 0
18, 531120, Note_on_c, 13, 65, 92
18, 531209, Note_on_c, 13, 65, 0
18, 531240, Note_on_c, 13, 67, 92
18, 531329, Note_on_c, 13, 67, 0
18, 531360, Note_on_c, 13, 65, 92
18, 531449, Note_on_c, 13, 65, 0
18, 531480, Note_on_c, 13, 64, 92
18, 531569, Note_on_c, 13, 64, 0
18, 531600, Note_on_c, 13, 62, 92
18, 531689, Note_on_c, 13, 62, 0
18, 531720, Note_on_c, 13, 58, 92
18, 531809, Note_on_c, 13, 58, 0
18, 531840, Note_on_c, 13, 57, 92
18, 531929, Note_on_c, 13, 57, 0
18, 531960, Note_on_c, 13, 55, 92
18, 532049, Note_on_c, 13, 55, 0
18, 532080, Note_on_c, 13, 53, 92
18, 532169, Note_on_c, 13, 53, 0
18, 532200, Note_on_c, 13, 64, 92
18, 532289, Note_on_c, 13, 64, 0
18, 532320, Note_on_c, 13, 62, 92
18, 532409, Note_on_c, 13, 62, 0
18, 532440, Note_on_c, 13, 61, 92
18, 532529, Note_on_c, 13, 61, 0
18, 532560, Note_on_c, 13, 62, 92
18, 532649, Note_on_c, 13, 62, 0
18, 532680, Note_on_c, 13, 64, 92
18, 532769, Note_on_c, 13, 64, 0
18, 532800, Note_on_c, 13, 62, 92
18, 532889, Note_on_c, 13, 62, 0
18, 532920, Note_on_c, 13, 61, 92
18, 533009, Note_on_c, 13, 61, 0
18, 533040, Note_on_c, 13, 62, 92
18, 533129, Note_on_c, 13, 62, 0
18, 533160, Note_on_c, 13, 58, 92
18, 533249, Note_on_c, 13, 58, 0
18, 533280, Note_on_c, 13, 57, 92
18, 533369, Note_on_c, 13, 57, 0
18, 533400, Note_on_c, 13, 55, 92
18, 533489, Note_on_c, 13, 55, 0
18, 533520, Note_on_c, 13, 53, 92
18, 533609, Note_on_c, 13, 53, 0
18, 533640, Note_on_c, 13, 64, 92
18, 533729, Note_on_c, 13, 64, 0
18, 533760, Note_on_c, 13, 62, 92
18, 533849, Note_on_c, 13, 62, 0
18, 533880, Note_on_c, 13, 61, 92
18, 533969, Note_on_c, 13, 61, 0
18, 534000, Note_on_c, 13, 62, 92
18, 534089, Note_on_c, 13, 62, 0
18, 534120, Note_on_c, 13, 64, 92
18, 534209, Note_on_c, 13, 64, 0
18, 534240, Note_on_c, 13, 62, 92
18, 534329, Note_on_c, 13, 62, 0
18, 534360, Note_on_c, 13, 61, 92
18, 534449, Note_on_c, 13, 61, 0
18, 534480, Note_on_c, 13, 62, 92
18, 534569, Note_on_c, 13, 62, 0
18, 534600, Note_on_c, 13, 60, 92
18, 534689, Note_on_c, 13, 60, 0
18, 534720, Note_on_c, 13, 62, 92
18, 534809, Note_on_c, 13, 62, 0
18, 534840, Note_on_c, 13, 63, 92
18, 534929, Note_on_c, 13, 63, 0
18, 534960, Note_on_c, 13, 55, 92
18, 535049, Note_on_c, 13, 55, 0
18, 535080, Note_on_c, 13, 57, 92
18, 535169, Note_on_c, 13, 57, 0
18, 535200, Note_on_c, 13, 58, 92
18, 535289, Note_on_c, 13, 58, 0
18, 535320, Note_on_c, 13, 57, 92
18, 535409, Note_on_c, 13, 57, 0
18, 535440, Note_on_c, 13, 58, 92
18, 535529, Note_on_c, 13, 58, 0
18, 535560, Note_on_c, 13, 60, 92
18, 535649, Note_on_c, 13, 60, 0
18, 535680, Note_on_c, 13, 58, 92
18, 535769, Note_on_c, 13, 58, 0
18, 535800, Note_on_c, 13, 57, 92
18, 535889, Note_on_c, 13, 57, 0
18, 535920, Note_on_c, 13, 55, 92
18, 536009, Note_on_c, 13, 55, 0
18, 536040, Note_on_c, 13, 63, 80
18, 536129, Note_on_c, 13, 63, 0
18, 536160, Note_on_c, 13, 62, 80
18, 536249, Note_on_c, 13, 62, 0
18, 536280, Note_on_c, 13, 60, 80
18, 536369, Note_on_c, 13, 60, 0
18, 536400, Note_on_c, 13, 58, 80
18, 536489, Note_on_c, 13, 58, 0
18, 536520, Note_on_c, 13, 57, 80
18, 536609, Note_on_c, 13, 57, 0
18, 536640, Note_on_c, 13, 55, 80
18, 536729, Note_on_c, 13, 55, 0
18, 536760, Note_on_c, 13, 65, 80
18, 536849, Note_on_c, 13, 65, 0
18, 536880, Note_on_c, 13, 63, 80
18, 536969, Note_on_c, 13, 63, 0
18, 537000, Note_on_c, 13, 62, 80
18, 537089, Note_on_c, 13, 62, 0
18, 537120, Note_on_c, 13, 60, 80
18, 537209, Note_on_c, 13, 60, 0
18, 537240, Note_on_c, 13, 58, 80
18, 537329, Note_on_c, 13, 58, 0
18, 537360, Note_on_c, 13, 57, 80
18, 537449, Note_on_c, 13, 57, 0
18, 537480, Note_on_c, 13, 67, 80
18, 537569, Note_on_c, 13, 67, 0
18, 537600, Note_on_c, 13, 65, 80
18, 537689, Note_on_c, 13, 65, 0
18, 537720, Note_on_c, 13, 63, 80
18, 537809, Note_on_c, 13, 63, 0
18, 537840, Note_on_c, 13, 62, 80
18, 537929, Note_on_c, 13, 62, 0
18, 537960, Note_on_c, 13, 60, 80
18, 538049, Note_on_c, 13, 60, 0
18, 538080, Note_on_c, 13, 58, 80
18, 538169, Note_on_c, 13, 58, 0
18, 538200, Note_on_c, 13, 57, 80
18, 538289, Note_on_c, 13, 57, 0
18, 538320, Note_on_c, 13, 55, 80
18, 538409, Note_on_c, 13, 55, 0
18, 538440, Note_on_c, 13, 53, 80
18, 538529, Note_on_c, 13, 53, 0
18, 538560, Note_on_c, 13, 63, 80
18, 538649, Note_on_c, 13, 63, 0
18, 538680, Note_on_c, 13, 62, 80
18, 538769, Note_on_c, 13, 62, 0
18, 538800, Note_on_c, 13, 60, 80
18, 538889, Note_on_c, 13, 60, 0
18, 538920, Note_on_c, 13, 58, 80
18, 539009, Note_on_c, 13, 58, 0
18, 540000, Note_on_c, 13, 72, 52
18, 540164, Note_on_c, 13, 72, 0
18, 540180, Note_on_c, 13, 60, 56
18, 540224, Note_on_c, 13, 60, 0
18, 540240, Note_on_c, 13, 60, 57
18, 540344, Note_on_c, 13, 60, 0
18, 540360, Note_on_c, 13, 72, 60
18, 540524, Note_on_c, 13, 72, 0
18, 540540, Note_on_c, 13, 60, 64
18, 540584, Note_on_c, 13, 60, 0
18, 540600, Note_on_c, 13, 60, 65
18, 540704, Note_on_c, 13, 60, 0
18, 540720, Note_on_c, 13, 74, 68
18, 540884, Note_on_c, 13, 74, 0
18, 540900, Note_on_c, 13, 62, 64
18, 540944, Note_on_c, 13, 62, 0
18, 540960, Note_on_c, 13, 62, 63
18, 541064, Note_on_c, 13, 62, 0
18, 541080, Note_on_c, 13, 73, 60
18, 541244, Note_on_c, 13, 73, 0
18, 541260, Note_on_c, 13, 61, 56
18, 541304, Note_on_c, 13, 61, 0
18, 541320, Note_on_c, 13, 61, 55
18, 541424, Note_on_c, 13, 61, 0
18, 541440, Note_on_c, 13, 72, 52
18, 541604, Note_on_c, 13, 72, 0
18, 541620, Note_on_c, 13, 60, 48
18, 541664, Note_on_c, 13, 60, 0
18, 541680, Note_on_c, 13, 60, 47
18, 541784, Note_on_c, 13, 60, 0
18, 543600, Note_on_c, 13, 71, 56
18, 543764, Note_on_c, 13, 71, 0
18, 543780, Note_on_c, 13, 59, 59
18, 543824, Note_on_c, 13, 59, 0
18, 543840, Note_on_c, 13, 59, 60
18, 543944, Note_on_c, 13, 59, 0
18, 543960, Note_on_c, 13, 70, 62
18, 544124, Note_on_c, 13, 70, 0
18, 544140, Note_on_c, 13, 58, 65
18, 544184, Note_on_c, 13, 58, 0
18, 544200, Note_on_c, 13, 58, 66
18, 544304, Note_on_c, 13, 58, 0
18, 544320, Note_on_c, 13, 69, 68
18, 544484, Note_on_c, 13, 69, 0
18, 544500, Note_on_c, 13, 57, 64
18, 544544, Note_on_c, 13, 57, 0
18, 544560, Note_on_c, 13, 57, 63
18, 544664, Note_on_c, 13, 57, 0
18, 544680, Note_on_c, 13, 69, 60
18, 544844, Note_on_c, 13, 69, 0
18, 544860, Note_on_c, 13, 57, 56
18, 544904, Note_on_c, 13, 57, 0
18, 544920, Note_on_c, 13, 57, 55
18, 545024, Note_on_c, 13, 57, 0
18, 545040, Note_on_c, 13, 69, 52
18, 545204, Note_on_c, 13, 69, 0
18, 545220, Note_on_c, 13, 57, 48
18, 545264, Note_on_c, 13, 57, 0
18, 545280, Note_on_c, 13, 57, 47
18, 545384, Note_on_c, 13, 57, 0
18, 545760, Note_on_c, 13, 69, 44
18, 545924, Note_on_c, 13, 69, 0
18, 545940, Note_on_c, 13, 57, 47
18, 545984, Note_on_c, 13, 57, 0
18, 546000, Note_on_c, 13, 57, 48
18, 546104, Note_on_c, 13, 57, 0
18, 546120, Note_on_c, 13, 69, 50
18, 546284, Note_on_c, 13, 69, 0
18, 546300, Note_on_c, 13, 57, 53
18, 546344, Note_on_c, 13, 57, 0
18, 546360, Note_on_c, 13, 57, 54
18, 546464, Note_on_c, 13, 57, 0
18, 546480, Note_on_c, 13, 67, 56
18, 546644, Note_on_c, 13, 67, 0
18, 546660, Note_on_c, 13, 55, 59
18, 546704, Note_on_c, 13, 55, 0
18, 546720, Note_on_c, 13, 55, 60
18, 546824, Note_on_c, 13, 55, 0
18, 546840, Note_on_c, 13, 67, 62
18, 547004, Note_on_c, 13, 67, 0
18, 547020, Note_on_c, 13, 55, 65
18, 547064, Note_on_c, 13, 55, 0
18, 547080, Note_on_c, 13, 55, 66
18, 547184, Note_on_c, 13, 55, 0
18, 547200, Note_on_c, 13, 66, 68
18, 547364, Note_on_c, 13, 66, 0
18, 547380, Note_on_c, 13, 54, 64
18, 547424, Note_on_c, 13, 54, 0
18, 547440, Note_on_c, 13, 54, 63
18, 547544, Note_on_c, 13, 54, 0
18, 547560, Note_on_c, 13, 65, 60
18, 547724, Note_on_c, 13, 65, 0
18, 547740, Note_on_c, 13, 53, 56
18, 547784, Note_on_c, 13, 53, 0
18, 547800, Note_on_c, 13, 53, 55
18, 547904, Note_on_c, 13, 53, 0
18, 547920, Note_on_c, 13, 64, 52
18, 548084, Note_on_c, 13, 64, 0
18, 548100, Note_on_c, 13, 52, 48
18, 548144, Note_on_c, 13, 52, 0
18, 548160, Note_on_c, 13, 52, 47
18, 548264, Note_on_c, 13, 52, 0
18, 548280, Program_c, 13, 45
18, 548520, Note_on_c, 13, 69, 40
18, 548639, Note_on_c, 13, 69, 0
18, 548880, Note_on_c, 13, 69, 46
18, 548999, Note_on_c, 13, 69, 0
18, 549240, Note_on_c, 13, 71, 52
18, 549359, Note_on_c, 13, 71, 0
18, 549600, Note_on_c, 13, 64, 58
18, 549719, Note_on_c, 13, 64, 0
18, 549960, Note_on_c, 13, 64, 64
18, 550079, Note_on_c, 13, 64, 0
18, 550320, Note_on_c, 13, 62, 70
18, 550439, Note_on_c, 13, 62, 0
18, 550680, Note_on_c, 13, 62, 76
18, 550799, Note_on_c, 13, 62, 0
18, 551040, Note_on_c, 13, 67, 82
18, 551144, Note_on_c, 13, 67, 0
18, 551158, Program_c, 13, 48
18, 551160, Note_on_c, 13, 62, 92
18, 551324, Note_on_c, 13, 62, 0
18, 551340, Note_on_c, 13, 50, 92
18, 551384, Note_on_c, 13, 50, 0
18, 551400, Note_on_c, 13, 50, 92
18, 551504, Note_on_c, 13, 50, 0
18, 551520, Note_on_c, 13, 62, 92
18, 551684, Note_on_c, 13, 62, 0
18, 551700, Note_on_c, 13, 50, 92
18, 551744, Note_on_c, 13, 50, 0
18, 551760, Note_on_c, 13, 50, 92
18, 551864, Note_on_c, 13, 50, 0
18, 551880, Note_on_c, 13, 62, 92
18, 552044, Note_on_c, 13, 62, 0
18, 552060, Note_on_c, 13, 50, 92
18, 552104, Note_on_c, 13, 50, 0
18, 552120, Note_on_c, 13, 50, 92
18, 552224, Note_on_c, 13, 50, 0
18, 552240, Note_on_c, 13, 62, 92
18, 552404, Note_on_c, 13, 62, 0
18, 552420, Note_on_c, 13, 50, 92
18, 552464, Note_on_c, 13, 50, 0
18, 552480, Note_on_c, 13, 50, 92
18, 552584, Note_on_c, 13, 50, 0
18, 552600, Note_on_c, 13, 62, 92
18, 552764, Note_on_c, 13, 62, 0
18, 552780, Note_on_c, 13, 50, 92
18, 552824, Note_on_c, 13, 50, 0
18, 552840, Note_on_c, 13, 50, 92
18, 552944, Note_on_c, 13, 50, 0
18, 552960, Note_on_c, 13, 62, 92
18, 553124, Note_on_c, 13, 62, 0
18, 553140, Note_on_c, 13, 50, 92
18, 553184, Note_on_c, 13, 50, 0
18, 553200, Note_on_c, 13, 50, 92
18, 553304, Note_on_c, 13, 50, 0
18, 553320, Note_on_c, 13, 62, 92
18, 553484, Note_on_c, 13, 62, 0
18, 553500, Note_on_c, 13, 50, 92
18, 553544, Note_on_c, 13, 50, 0
18, 553560, Note_on_c, 13, 50, 92
18, 553664, Note_on_c, 13, 50, 0
18, 553680, Note_on_c, 13, 62, 92
18, 553844, Note_on_c, 13, 62, 0
18, 553860, Note_on_c, 13, 50, 92
18, 553904, Note_on_c, 13, 50, 0
18, 553920, Note_on_c, 13, 50, 92
18, 554024, Note_on_c, 13, 50, 0
18, 554040, Note_on_c, 13, 62, 92
18, 554204, Note_on_c, 13, 62, 0
18, 554220, Note_on_c, 13, 50, 92
18, 554264, Note_on_c, 13, 50, 0
18, 554280, Note_on_c, 13, 50, 92
18, 554384, Note_on_c, 13, 50, 0
18, 554400, Note_on_c, 13, 62, 92
18, 554564, Note_on_c, 13, 62, 0
18, 554580, Note_on_c, 13, 50, 92
18, 554624, Note_on_c, 13, 50, 0
18, 554640, Note_on_c, 13, 50, 92
18, 554744, Note_on_c, 13, 50, 0
18, 554760, Note_on_c, 13, 62, 92
18, 554924, Note_on_c, 13, 62, 0
18, 554940, Note_on_c, 13, 50, 92
18, 554984, Note_on_c, 13, 50, 0
18, 555000, Note_on_c, 13, 50, 92
18, 555104, Note_on_c, 13, 50, 0
18, 555120, Note_on_c, 13, 62, 92
18, 555284, Note_on_c, 13, 62, 0
18, 555300, Note_on_c, 13, 50, 92
18, 555344, Note_on_c, 13, 50, 0
18, 555360, Note_on_c, 13, 50, 92
18, 555464, Note_on_c, 13, 50, 0
18, 555480, Note_on_c, 13, 62, 92
18, 555644, Note_on_c, 13, 62, 0
18, 555660, Note_on_c, 13, 50, 92
18, 555704, Note_on_c, 13, 50, 0
18, 555720, Note_on_c, 13, 50, 92
18, 555824, Note_on_c, 13, 50, 0
18, 555840, Note_on_c, 13, 62, 92
18, 556004, Note_on_c, 13, 62, 0
18, 556020, Note_on_c, 13, 50, 92
18, 556064, Note_on_c, 13, 50, 0
18, 556080, Note_on_c, 13, 50, 92
18, 556184, Note_on_c, 13, 50, 0
18, 556200, Note_on_c, 13, 62, 92
18, 556364, Note_on_c, 13, 62, 0
18, 556380, Note_on_c, 13, 50, 92
18, 556424, Note_on_c, 13, 50, 0
18, 556440, Note_on_c, 13, 50, 92
18, 556544, Note_on_c, 13, 50, 0
18, 556560, Note_on_c, 13, 62, 92
18, 556724, Note_on_c, 13, 62, 0
18, 556740, Note_on_c, 13, 50, 92
18, 556784, Note_on_c, 13, 50, 0
18, 556800, Note_on_c, 13, 50, 92
18, 556904, Note_on_c, 13, 50, 0
18, 556920, Note_on_c, 13, 62, 92
18, 557039, Note_on_c, 13, 62, 0
18, 557640, Note_on_c, 13, 67, 92
18, 557804, Note_on_c, 13, 67, 0
18, 557820, Note_on_c, 13, 55, 92
18, 557864, Note_on_c, 13, 55, 0
18, 557880, Note_on_c, 13, 55, 92
18, 557984, Note_on_c, 13, 55, 0
18, 558000, Note_on_c, 13, 55, 92
18, 558089, Note_on_c, 13, 55, 0
18, 558120, Note_on_c, 13, 52, 92
18, 558209, Note_on_c, 13, 52, 0
18, 558240, Note_on_c, 13, 50, 92
18, 558329, Note_on_c, 13, 50, 0
18, 558360, Note_on_c, 13, 60, 92
18, 558360, Note_on_c, 13, 48, 92
18, 558479, Note_on_c, 13, 60, 0
18, 558479, Note_on_c, 13, 48, 0
18, 559080, Note_on_c, 13, 65, 92
18, 559244, Note_on_c, 13, 65, 0
18, 559260, Note_on_c, 13, 53, 92
18, 559304, Note_on_c, 13, 53, 0
18, 559320, Note_on_c, 13, 53, 92
18, 559424, Note_on_c, 13, 53, 0
18, 559440, Note_on_c, 13, 53, 92
18, 559544, Note_on_c, 13, 53, 0
18, 559560, Note_on_c, 13, 50, 92
18, 559664, Note_on_c, 13, 50, 0
18, 559680, Note_on_c, 13, 48, 92
18, 559784, Note_on_c, 13, 48, 0
18, 559798, Control_c, 13, 11, 87
18, 559800, Note_on_c, 13, 50, 68
18, 559919, Note_on_c, 13, 50, 0
18, 559920, Note_on_c, 13, 52, 68
18, 560039, Note_on_c, 13, 52, 0
18, 560040, Note_on_c, 13, 54, 68
18, 560159, Note_on_c, 13, 54, 0
18, 560160, Note_on_c, 13, 55, 68
18, 560520, Control_c, 13, 11, 87
18, 560555, Control_c, 13, 11, 89
18, 560590, Control_c, 13, 11, 90
18, 560625, Control_c, 13, 11, 92
18, 560639, Note_on_c, 13, 55, 0
18, 560640, Note_on_c, 13, 53, 68
18, 560660, Control_c, 13, 11, 94
18, 560695, Control_c, 13, 11, 95
18, 560730, Control_c, 13, 11, 97
18, 560759, Note_on_c, 13, 53, 0
18, 560760, Note_on_c, 13, 51, 68
18, 560765, Control_c, 13, 11, 99
18, 560800, Control_c, 13, 11, 100
18, 560835, Control_c, 13, 11, 102
18, 560864, Note_on_c, 13, 51, 0
18, 560870, Control_c, 13, 11, 104
18, 560880, Note_on_c, 13, 67, 68
18, 560905, Control_c, 13, 11, 105
18, 560940, Control_c, 13, 11, 107
18, 560975, Control_c, 13, 11, 109
18, 560999, Note_on_c, 13, 67, 0
18, 561000, Note_on_c, 13, 65, 68
18, 561010, Control_c, 13, 11, 110
18, 561045, Control_c, 13, 11, 112
18, 561080, Control_c, 13, 11, 114
18, 561115, Control_c, 13, 11, 115
18, 561119, Note_on_c, 13, 65, 0
18, 561120, Note_on_c, 13, 63, 68
18, 561150, Control_c, 13, 11, 117
18, 561185, Control_c, 13, 11, 119
18, 561220, Control_c, 13, 11, 120
18, 561224, Note_on_c, 13, 63, 0
18, 561240, Note_on_c, 13, 70, 68
18, 561255, Control_c, 13, 11, 122
18, 561290, Control_c, 13, 11, 124
18, 561325, Control_c, 13, 11, 125
18, 561359, Note_on_c, 13, 70, 0
18, 561360, Note_on_c, 13, 69, 68
18, 561479, Note_on_c, 13, 69, 0
18, 561480, Note_on_c, 13, 70, 68
18, 561480, Control_c, 13, 11, 127
18, 561507, Control_c, 13, 11, 125
18, 561533, Control_c, 13, 11, 123
18, 561560, Control_c, 13, 11, 120
18, 561587, Control_c, 13, 11, 118
18, 561613, Control_c, 13, 11, 116
18, 561640, Control_c, 13, 11, 114
18, 561667, Control_c, 13, 11, 111
18, 561693, Control_c, 13, 11, 109
18, 561719, Note_on_c, 13, 70, 0
18, 561720, Note_on_c, 13, 69, 68
18, 561720, Control_c, 13, 11, 107
18, 561747, Control_c, 13, 11, 105
18, 561773, Control_c, 13, 11, 103
18, 561800, Control_c, 13, 11, 100
18, 561827, Control_c, 13, 11, 98
18, 561839, Note_on_c, 13, 69, 0
18, 561840, Note_on_c, 13, 67, 68
18, 561853, Control_c, 13, 11, 96
18, 561880, Control_c, 13, 11, 94
18, 561907, Control_c, 13, 11, 91
18, 561933, Control_c, 13, 11, 89
18, 561959, Note_on_c, 13, 67, 0
18, 563760, Control_c, 13, 11, 127
18, 564120, Note_on_c, 13, 69, 80
18, 564209, Note_on_c, 13, 69, 0
18, 564240, Note_on_c, 13, 70, 80
18, 564329, Note_on_c, 13, 70, 0
18, 564360, Note_on_c, 13, 70, 80
18, 564449, Note_on_c, 13, 70, 0
18, 564480, Note_on_c, 13, 71, 80
18, 564569, Note_on_c, 13, 71, 0
18, 564600, Note_on_c, 13, 69, 80
18, 564689, Note_on_c, 13, 69, 0
18, 564720, Note_on_c, 13, 62, 80
18, 564720, Note_on_c, 13, 74, 80
18, 564809, Note_on_c, 13, 62, 0
18, 564809, Note_on_c, 13, 74, 0
18, 564840, Note_on_c, 13, 74, 80
18, 564840, Note_on_c, 13, 62, 80
18, 564929, Note_on_c, 13, 74, 0
18, 564929, Note_on_c, 13, 62, 0
18, 565560, Note_on_c, 13, 65, 80
18, 565649, Note_on_c, 13, 65, 0
18, 565680, Note_on_c, 13, 62, 80
18, 565769, Note_on_c, 13, 62, 0
18, 565800, Note_on_c, 13, 67, 80
18, 565889, Note_on_c, 13, 67, 0
18, 565920, Note_on_c, 13, 64, 80
18, 566009, Note_on_c, 13, 64, 0
18, 566040, Note_on_c, 13, 61, 80
18, 566129, Note_on_c, 13, 61, 0
18, 566160, Note_on_c, 13, 65, 80
18, 566249, Note_on_c, 13, 65, 0
18, 566280, Note_on_c, 13, 74, 80
18, 566280, Note_on_c, 13, 62, 80
18, 566399, Note_on_c, 13, 74, 0
18, 566399, Note_on_c, 13, 62, 0
18, 566640, Note_on_c, 13, 69, 80
18, 566804, Note_on_c, 13, 69, 0
18, 566820, Note_on_c, 13, 57, 80
18, 566864, Note_on_c, 13, 57, 0
18, 566880, Note_on_c, 13, 57, 80
18, 566984, Note_on_c, 13, 57, 0
18, 567000, Note_on_c, 13, 50, 80
18, 567119, Note_on_c, 13, 50, 0
18, 567360, Note_on_c, 13, 69, 80
18, 567524, Note_on_c, 13, 69, 0
18, 567540, Note_on_c, 13, 57, 80
18, 567584, Note_on_c, 13, 57, 0
18, 567600, Note_on_c, 13, 57, 80
18, 567704, Note_on_c, 13, 57, 0
18, 567720, Note_on_c, 13, 67, 32
18, 567839, Note_on_c, 13, 67, 0
18, 567840, Note_on_c, 13, 64, 32
18, 567959, Note_on_c, 13, 64, 0
18, 567960, Note_on_c, 13, 61, 32
18, 568079, Note_on_c, 13, 61, 0
18, 568080, Note_on_c, 13, 55, 32
18, 568199, Note_on_c, 13, 55, 0
18, 568200, Note_on_c, 13, 52, 32
18, 568319, Note_on_c, 13, 52, 0
18, 568320, Note_on_c, 13, 49, 32
18, 568439, Note_on_c, 13, 49, 0
18, 568440, Note_on_c, 13, 52, 32
18, 568559, Note_on_c, 13, 52, 0
18, 568560, Note_on_c, 13, 55, 32
18, 568679, Note_on_c, 13, 55, 0
18, 568680, Note_on_c, 13, 61, 32
18, 568919, Note_on_c, 13, 61, 0
18, 568920, Note_on_c, 13, 64, 32
18, 569039, Note_on_c, 13, 64, 0
18, 569040, Note_on_c, 13, 67, 32
18, 569144, Note_on_c, 13, 67, 0
18, 569160, Note_on_c, 13, 65, 32
18, 569324, Note_on_c, 13, 65, 0
18, 569340, Note_on_c, 13, 53, 32
18, 569384, Note_on_c, 13, 53, 0
18, 569400, Note_on_c, 13, 53, 32
18, 569504, Note_on_c, 13, 53, 0
18, 569520, Note_on_c, 13, 53, 32
18, 569639, Note_on_c, 13, 53, 0
18, 569880, Note_on_c, 13, 65, 32
18, 570044, Note_on_c, 13, 65, 0
18, 570060, Note_on_c, 13, 53, 32
18, 570104, Note_on_c, 13, 53, 0
18, 570120, Note_on_c, 13, 53, 32
18, 570224, Note_on_c, 13, 53, 0
18, 570240, Note_on_c, 13, 53, 32
18, 570359, Note_on_c, 13, 53, 0
18, 572040, Note_on_c, 13, 65, 32
18, 572204, Note_on_c, 13, 65, 0
18, 572220, Note_on_c, 13, 53, 36
18, 572264, Note_on_c, 13, 53, 0
18, 572280, Note_on_c, 13, 53, 37
18, 572384, Note_on_c, 13, 53, 0
18, 572400, Note_on_c, 13, 53, 40
18, 572519, Note_on_c, 13, 53, 0
18, 572760, Note_on_c, 13, 53, 48
18, 572924, Note_on_c, 13, 53, 0
18, 572940, Note_on_c, 13, 53, 52
18, 572984, Note_on_c, 13, 53, 0
18, 573000, Note_on_c, 13, 53, 53
18, 573104, Note_on_c, 13, 53, 0
18, 573120, Note_on_c, 13, 53, 56
18, 573239, Note_on_c, 13, 53, 0
18, 573480, Note_on_c, 13, 53, 64
18, 573644, Note_on_c, 13, 53, 0
18, 573660, Note_on_c, 13, 62, 68
18, 573704, Note_on_c, 13, 62, 0
18, 573720, Note_on_c, 13, 62, 69
18, 573824, Note_on_c, 13, 62, 0
18, 573840, Note_on_c, 13, 58, 72
18, 573840, Note_on_c, 13, 62, 72
18, 573959, Note_on_c, 13, 58, 0
18, 573959, Note_on_c, 13, 62, 0
18, 574200, Note_on_c, 13, 58, 80
18, 574200, Note_on_c, 13, 62, 80
18, 574364, Note_on_c, 13, 58, 0
18, 574364, Note_on_c, 13, 62, 0
18, 574380, Note_on_c, 13, 67, 80
18, 574424, Note_on_c, 13, 67, 0
18, 574440, Note_on_c, 13, 67, 80
18, 574544, Note_on_c, 13, 67, 0
18, 574560, Note_on_c, 13, 64, 92
18, 574560, Note_on_c, 13, 61, 92
18, 574679, Note_on_c, 13, 64, 0
18, 574679, Note_on_c, 13, 61, 0
18, 575280, Note_on_c, 13, 52, 32
18, 575384, Note_on_c, 13, 52, 0
18, 575400, Note_on_c, 13, 53, 32
18, 575504, Note_on_c, 13, 53, 0
18, 575520, Note_on_c, 13, 55, 32
18, 575624, Note_on_c, 13, 55, 0
18, 575640, Note_on_c, 13, 57, 32
18, 575744, Note_on_c, 13, 57, 0
18, 575760, Note_on_c, 13, 55, 32
18, 575864, Note_on_c, 13, 55, 0
18, 575880, Note_on_c, 13, 53, 32
18, 575984, Note_on_c, 13, 53, 0
18, 576000, Note_on_c, 13, 54, 32
18, 576104, Note_on_c, 13, 54, 0
18, 576120, Note_on_c, 13, 55, 32
18, 576224, Note_on_c, 13, 55, 0
18, 576240, Note_on_c, 13, 57, 32
18, 576344, Note_on_c, 13, 57, 0
18, 576360, Note_on_c, 13, 58, 32
18, 576464, Note_on_c, 13, 58, 0
18, 576480, Note_on_c, 13, 57, 32
18, 576584, Note_on_c, 13, 57, 0
18, 576600, Note_on_c, 13, 55, 32
18, 576704, Note_on_c, 13, 55, 0
18, 576720, Note_on_c, 13, 52, 32
18, 576824, Note_on_c, 13, 52, 0
18, 576840, Note_on_c, 13, 53, 32
18, 576944, Note_on_c, 13, 53, 0
18, 576960, Note_on_c, 13, 55, 32
18, 577064, Note_on_c, 13, 55, 0
18, 577080, Note_on_c, 13, 57, 32
18, 577184, Note_on_c, 13, 57, 0
18, 577200, Note_on_c, 13, 55, 32
18, 577304, Note_on_c, 13, 55, 0
18, 577320, Note_on_c, 13, 53, 32
18, 577424, Note_on_c, 13, 53, 0
18, 577440, Note_on_c, 13, 54, 32
18, 577544, Note_on_c, 13, 54, 0
18, 577560, Note_on_c, 13, 55, 32
18, 577664, Note_on_c, 13, 55, 0
18, 577680, Note_on_c, 13, 57, 32
18, 577784, Note_on_c, 13, 57, 0
18, 577800, Note_on_c, 13, 58, 32
18, 577904, Note_on_c, 13, 58, 0
18, 577920, Note_on_c, 13, 57, 32
18, 578024, Note_on_c, 13, 57, 0
18, 578040, Note_on_c, 13, 55, 32
18, 578144, Note_on_c, 13, 55, 0
18, 578160, Note_on_c, 13, 69, 32
18, 578324, Note_on_c, 13, 69, 0
18, 578340, Note_on_c, 13, 57, 35
18, 578384, Note_on_c, 13, 57, 0
18, 578400, Note_on_c, 13, 57, 37
18, 578504, Note_on_c, 13, 57, 0
18, 578520, Note_on_c, 13, 62, 39
18, 578619, Note_on_c, 13, 62, 0
18, 578640, Note_on_c, 13, 64, 42
18, 578739, Note_on_c, 13, 64, 0
18, 578760, Note_on_c, 13, 65, 44
18, 578859, Note_on_c, 13, 65, 0
18, 578880, Note_on_c, 13, 69, 47
18, 579039, Note_on_c, 13, 69, 0
18, 579060, Note_on_c, 13, 57, 50
18, 579099, Note_on_c, 13, 57, 0
18, 579120, Note_on_c, 13, 57, 52
18, 579219, Note_on_c, 13, 57, 0
18, 579240, Note_on_c, 13, 62, 54
18, 579339, Note_on_c, 13, 62, 0
18, 579360, Note_on_c, 13, 64, 57
18, 579459, Note_on_c, 13, 64, 0
18, 579480, Note_on_c, 13, 65, 59
18, 579579, Note_on_c, 13, 65, 0
18, 579600, Note_on_c, 13, 69, 62
18, 579759, Note_on_c, 13, 69, 0
18, 579780, Note_on_c, 13, 57, 65
18, 579819, Note_on_c, 13, 57, 0
18, 579840, Note_on_c, 13, 57, 67
18, 579939, Note_on_c, 13, 57, 0
18, 579960, Note_on_c, 13, 62, 69
18, 580059, Note_on_c, 13, 62, 0
18, 580080, Note_on_c, 13, 64, 72
18, 580179, Note_on_c, 13, 64, 0
18, 580200, Note_on_c, 13, 65, 74
18, 580299, Note_on_c, 13, 65, 0
18, 580320, Note_on_c, 13, 69, 77
18, 580479, Note_on_c, 13, 69, 0
18, 580500, Note_on_c, 13, 57, 80
18, 580539, Note_on_c, 13, 57, 0
18, 580560, Note_on_c, 13, 57, 82
18, 580659, Note_on_c, 13, 57, 0
18, 580680, Note_on_c, 13, 62, 84
18, 580779, Note_on_c, 13, 62, 0
18, 580800, Note_on_c, 13, 64, 87
18, 580899, Note_on_c, 13, 64, 0
18, 580920, Note_on_c, 13, 65, 89
18, 581019, Note_on_c, 13, 65, 0
18, 581040, Note_on_c, 13, 69, 92
18, 581139, Note_on_c, 13, 69, 0
18, 581160, Note_on_c, 13, 57, 92
18, 581259, Note_on_c, 13, 57, 0
18, 581280, Note_on_c, 13, 62, 80
18, 581379, Note_on_c, 13, 62, 0
18, 581400, Note_on_c, 13, 50, 80
18, 581499, Note_on_c, 13, 50, 0
18, 581520, Note_on_c, 13, 57, 80
18, 581619, Note_on_c, 13, 57, 0
18, 581640, Note_on_c, 13, 57, 80
18, 581739, Note_on_c, 13, 57, 0
18, 581760, Note_on_c, 13, 69, 80
18, 581859, Note_on_c, 13, 69, 0
18, 581880, Note_on_c, 13, 57, 80
18, 581979, Note_on_c, 13, 57, 0
18, 582000, Note_on_c, 13, 74, 80
18, 582000, Note_on_c, 13, 62, 80
18, 582059, Note_on_c, 13, 74, 0
18, 582059, Note_on_c, 13, 62, 0
18, 582060, Note_on_c, 13, 74, 44
18, 582060, Note_on_c, 13, 62, 44
18, 583439, Note_on_c, 13, 74, 0
18, 583439, Note_on_c, 13, 62, 0
18, 583440, Note_on_c, 13, 62, 44
18, 583440, Note_on_c, 13, 74, 44
18, 585359, Note_on_c, 13, 62, 0
18, 585359, Note_on_c, 13, 74, 0
18, 585840, Note_on_c, 13, 69, 92
18, 585939, Note_on_c, 13, 69, 0
18, 585960, Note_on_c, 13, 57, 92
18, 586059, Note_on_c, 13, 57, 0
18, 586080, Note_on_c, 13, 62, 80
18, 586179, Note_on_c, 13, 62, 0
18, 586200, Note_on_c, 13, 50, 80
18, 586299, Note_on_c, 13, 50, 0
18, 586320, Note_on_c, 13, 57, 80
18, 586419, Note_on_c, 13, 57, 0
18, 586440, Note_on_c, 13, 57, 80
18, 586539, Note_on_c, 13, 57, 0
18, 586560, Note_on_c, 13, 69, 80
18, 586659, Note_on_c, 13, 69, 0
18, 586680, Note_on_c, 13, 57, 80
18, 586779, Note_on_c, 13, 57, 0
18, 586800, Note_on_c, 13, 50, 80
18, 586919, Note_on_c, 13, 50, 0
18, 586919, End_track
19, 0, Start_track
19, 0, Title_t, "Cello"
19, 0, MIDI_port, 0
19, 0, Program_c, 14, 48
19, 0, Control_c, 14, 7, 96
19, 0, Control_c, 14, 10, 90
19, 0, Control_c, 14, 11, 127
19, 0, Note_on_c, 14, 62, 92
19, 164, Note_on_c, 14, 62, 0
19, 180, Note_on_c, 14, 50, 92
19, 224, Note_on_c, 14, 50, 0
19, 240, Note_on_c, 14, 50, 92
19, 359, Note_on_c, 14, 50, 0
19, 720, Note_on_c, 14, 57, 104
19, 749, Note_on_c, 14, 57, 0
19, 750, Note_on_c, 14, 57, 92
19, 869, Note_on_c, 14, 57, 0
19, 900, Note_on_c, 14, 45, 92
19, 944, Note_on_c, 14, 45, 0
19, 960, Note_on_c, 14, 45, 92
19, 1079, Note_on_c, 14, 45, 0
19, 1800, Note_on_c, 14, 50, 92
19, 1964, Note_on_c, 14, 50, 0
19, 1980, Note_on_c, 14, 38, 92
19, 2024, Note_on_c, 14, 38, 0
19, 2040, Note_on_c, 14, 38, 92
19, 2159, Note_on_c, 14, 38, 0
19, 5760, Note_on_c, 14, 69, 32
19, 5924, Note_on_c, 14, 69, 0
19, 5940, Note_on_c, 14, 57, 32
19, 5984, Note_on_c, 14, 57, 0
19, 6000, Note_on_c, 14, 57, 32
19, 6104, Note_on_c, 14, 57, 0
19, 6120, Note_on_c, 14, 62, 32
19, 6209, Note_on_c, 14, 62, 0
19, 6240, Note_on_c, 14, 64, 32
19, 6329, Note_on_c, 14, 64, 0
19, 6360, Note_on_c, 14, 65, 32
19, 6449, Note_on_c, 14, 65, 0
19, 6480, Note_on_c, 14, 64, 32
19, 6569, Note_on_c, 14, 64, 0
19, 6600, Note_on_c, 14, 65, 32
19, 6689, Note_on_c, 14, 65, 0
19, 6720, Note_on_c, 14, 67, 32
19, 6809, Note_on_c, 14, 67, 0
19, 6840, Note_on_c, 14, 65, 32
19, 6929, Note_on_c, 14, 65, 0
19, 6960, Note_on_c, 14, 64, 32
19, 7049, Note_on_c, 14, 64, 0
19, 7080, Note_on_c, 14, 62, 32
19, 7169, Note_on_c, 14, 62, 0
19, 7200, Note_on_c, 14, 65, 32
19, 7289, Note_on_c, 14, 65, 0
19, 7320, Note_on_c, 14, 64, 32
19, 7409, Note_on_c, 14, 64, 0
19, 7440, Note_on_c, 14, 62, 32
19, 7529, Note_on_c, 14, 62, 0
19, 7560, Note_on_c, 14, 60, 32
19, 7649, Note_on_c, 14, 60, 0
19, 7680, Note_on_c, 14, 59, 32
19, 7769, Note_on_c, 14, 59, 0
19, 7800, Note_on_c, 14, 57, 32
19, 7889, Note_on_c, 14, 57, 0
19, 7920, Note_on_c, 14, 56, 32
19, 8009, Note_on_c, 14, 56, 0
19, 8040, Note_on_c, 14, 57, 32
19, 8129, Note_on_c, 14, 57, 0
19, 8160, Note_on_c, 14, 59, 32
19, 8249, Note_on_c, 14, 59, 0
19, 8280, Note_on_c, 14, 57, 32
19, 8369, Note_on_c, 14, 57, 0
19, 8400, Note_on_c, 14, 56, 32
19, 8489, Note_on_c, 14, 56, 0
19, 8520, Note_on_c, 14, 57, 32
19, 8609, Note_on_c, 14, 57, 0
19, 8640, Note_on_c, 14, 55, 32
19, 8729, Note_on_c, 14, 55, 0
19, 8760, Note_on_c, 14, 53, 32
19, 8849, Note_on_c, 14, 53, 0
19, 8880, Note_on_c, 14, 52, 32
19, 8969, Note_on_c, 14, 52, 0
19, 9000, Note_on_c, 14, 50, 32
19, 9089, Note_on_c, 14, 50, 0
19, 9120, Note_on_c, 14, 57, 32
19, 9209, Note_on_c, 14, 57, 0
19, 9240, Note_on_c, 14, 57, 32
19, 9329, Note_on_c, 14, 57, 0
19, 9360, Note_on_c, 14, 57, 32
19, 9449, Note_on_c, 14, 57, 0
19, 9480, Note_on_c, 14, 57, 32
19, 9569, Note_on_c, 14, 57, 0
19, 9600, Note_on_c, 14, 57, 32
19, 9689, Note_on_c, 14, 57, 0
19, 9720, Note_on_c, 14, 57, 32
19, 9809, Note_on_c, 14, 57, 0
19, 9840, Note_on_c, 14, 69, 32
19, 9929, Note_on_c, 14, 69, 0
19, 9960, Note_on_c, 14, 69, 32
19, 10049, Note_on_c, 14, 69, 0
19, 10080, Note_on_c, 14, 69, 32
19, 10169, Note_on_c, 14, 69, 0
19, 10200, Note_on_c, 14, 69, 32
19, 10289, Note_on_c, 14, 69, 0
19, 10320, Note_on_c, 14, 69, 32
19, 10409, Note_on_c, 14, 69, 0
19, 10440, Note_on_c, 14, 69, 32
19, 10529, Note_on_c, 14, 69, 0
19, 10560, Note_on_c, 14, 64, 32
19, 10649, Note_on_c, 14, 64, 0
19, 10680, Note_on_c, 14, 64, 32
19, 10769, Note_on_c, 14, 64, 0
19, 10800, Note_on_c, 14, 62, 32
19, 10889, Note_on_c, 14, 62, 0
19, 10920, Note_on_c, 14, 60, 32
19, 11009, Note_on_c, 14, 60, 0
19, 11040, Note_on_c, 14, 59, 32
19, 11129, Note_on_c, 14, 59, 0
19, 11160, Note_on_c, 14, 60, 32
19, 11249, Note_on_c, 14, 60, 0
19, 11280, Note_on_c, 14, 62, 32
19, 11369, Note_on_c, 14, 62, 0
19, 11400, Note_on_c, 14, 60, 32
19, 11489, Note_on_c, 14, 60, 0
19, 11520, Note_on_c, 14, 58, 32
19, 11609, Note_on_c, 14, 58, 0
19, 11640, Note_on_c, 14, 57, 32
19, 11729, Note_on_c, 14, 57, 0
19, 11760, Note_on_c, 14, 55, 32
19, 11849, Note_on_c, 14, 55, 0
19, 11880, Note_on_c, 14, 53, 32
19, 11969, Note_on_c, 14, 53, 0
19, 12000, Note_on_c, 14, 52, 32
19, 12089, Note_on_c, 14, 52, 0
19, 12120, Note_on_c, 14, 50, 32
19, 12209, Note_on_c, 14, 50, 0
19, 12240, Note_on_c, 14, 49, 32
19, 12329, Note_on_c, 14, 49, 0
19, 12360, Note_on_c, 14, 50, 32
19, 12449, Note_on_c, 14, 50, 0
19, 12480, Note_on_c, 14, 52, 32
19, 12569, Note_on_c, 14, 52, 0
19, 12600, Note_on_c, 14, 50, 32
19, 12689, Note_on_c, 14, 50, 0
19, 12720, Note_on_c, 14, 49, 32
19, 12809, Note_on_c, 14, 49, 0
19, 12840, Note_on_c, 14, 50, 32
19, 12929, Note_on_c, 14, 50, 0
19, 12960, Note_on_c, 14, 47, 32
19, 13049, Note_on_c, 14, 47, 0
19, 13080, Note_on_c, 14, 48, 32
19, 13169, Note_on_c, 14, 48, 0
19, 13200, Note_on_c, 14, 53, 32
19, 13289, Note_on_c, 14, 53, 0
19, 13320, Note_on_c, 14, 52, 32
19, 13409, Note_on_c, 14, 52, 0
19, 13440, Note_on_c, 14, 53, 32
19, 13529, Note_on_c, 14, 53, 0
19, 13560, Note_on_c, 14, 52, 32
19, 13649, Note_on_c, 14, 52, 0
19, 13680, Note_on_c, 14, 50, 32
19, 13769, Note_on_c, 14, 50, 0
19, 13800, Note_on_c, 14, 52, 32
19, 13889, Note_on_c, 14, 52, 0
19, 13920, Note_on_c, 14, 53, 32
19, 14009, Note_on_c, 14, 53, 0
19, 14040, Note_on_c, 14, 52, 32
19, 14129, Note_on_c, 14, 52, 0
19, 14160, Note_on_c, 14, 53, 32
19, 14249, Note_on_c, 14, 53, 0
19, 14280, Note_on_c, 14, 52, 32
19, 14369, Note_on_c, 14, 52, 0
19, 14400, Note_on_c, 14, 55, 32
19, 14489, Note_on_c, 14, 55, 0
19, 14520, Note_on_c, 14, 53, 32
19, 14609, Note_on_c, 14, 53, 0
19, 14640, Note_on_c, 14, 52, 32
19, 14729, Note_on_c, 14, 52, 0
19, 14760, Note_on_c, 14, 50, 32
19, 14849, Note_on_c, 14, 50, 0
19, 14880, Note_on_c, 14, 52, 32
19, 14969, Note_on_c, 14, 52, 0
19, 15000, Note_on_c, 14, 53, 32
19, 15089, Note_on_c, 14, 53, 0
19, 15120, Note_on_c, 14, 52, 32
19, 15209, Note_on_c, 14, 52, 0
19, 15240, Note_on_c, 14, 53, 32
19, 15329, Note_on_c, 14, 53, 0
19, 15360, Note_on_c, 14, 55, 32
19, 15449, Note_on_c, 14, 55, 0
19, 15480, Note_on_c, 14, 57, 32
19, 15569, Note_on_c, 14, 57, 0
19, 15600, Note_on_c, 14, 55, 32
19, 15689, Note_on_c, 14, 55, 0
19, 15720, Note_on_c, 14, 53, 32
19, 15809, Note_on_c, 14, 53, 0
19, 15840, Note_on_c, 14, 55, 32
19, 15929, Note_on_c, 14, 55, 0
19, 15960, Note_on_c, 14, 53, 33
19, 16049, Note_on_c, 14, 53, 0
19, 16080, Note_on_c, 14, 52, 35
19, 16169, Note_on_c, 14, 52, 0
19, 16200, Note_on_c, 14, 53, 37
19, 16289, Note_on_c, 14, 53, 0
19, 16320, Note_on_c, 14, 55, 38
19, 16409, Note_on_c, 14, 55, 0
19, 16440, Note_on_c, 14, 53, 40
19, 16529, Note_on_c, 14, 53, 0
19, 16560, Note_on_c, 14, 55, 42
19, 16649, Note_on_c, 14, 55, 0
19, 16680, Note_on_c, 14, 53, 43
19, 16769, Note_on_c, 14, 53, 0
19, 16800, Note_on_c, 14, 52, 45
19, 16889, Note_on_c, 14, 52, 0
19, 16920, Note_on_c, 14, 53, 47
19, 17009, Note_on_c, 14, 53, 0
19, 17040, Note_on_c, 14, 55, 48
19, 17129, Note_on_c, 14, 55, 0
19, 17160, Note_on_c, 14, 53, 50
19, 17249, Note_on_c, 14, 53, 0
19, 17280, Note_on_c, 14, 55, 52
19, 17369, Note_on_c, 14, 55, 0
19, 17400, Note_on_c, 14, 53, 53
19, 17489, Note_on_c, 14, 53, 0
19, 17520, Note_on_c, 14, 52, 55
19, 17609, Note_on_c, 14, 52, 0
19, 17640, Note_on_c, 14, 53, 57
19, 17729, Note_on_c, 14, 53, 0
19, 17760, Note_on_c, 14, 55, 58
19, 17849, Note_on_c, 14, 55, 0
19, 17880, Note_on_c, 14, 53, 60
19, 17969, Note_on_c, 14, 53, 0
19, 18000, Note_on_c, 14, 52, 62
19, 18089, Note_on_c, 14, 52, 0
19, 18120, Note_on_c, 14, 50, 63
19, 18209, Note_on_c, 14, 50, 0
19, 18240, Note_on_c, 14, 49, 65
19, 18329, Note_on_c, 14, 49, 0
19, 18360, Note_on_c, 14, 50, 67
19, 18449, Note_on_c, 14, 50, 0
19, 18480, Note_on_c, 14, 52, 68
19, 18569, Note_on_c, 14, 52, 0
19, 18600, Note_on_c, 14, 50, 70
19, 18689, Note_on_c, 14, 50, 0
19, 18720, Note_on_c, 14, 52, 72
19, 18809, Note_on_c, 14, 52, 0
19, 18840, Note_on_c, 14, 50, 73
19, 18929, Note_on_c, 14, 50, 0
19, 18960, Note_on_c, 14, 49, 75
19, 19049, Note_on_c, 14, 49, 0
19, 19080, Note_on_c, 14, 50, 77
19, 19169, Note_on_c, 14, 50, 0
19, 19200, Note_on_c, 14, 52, 78
19, 19289, Note_on_c, 14, 52, 0
19, 19320, Note_on_c, 14, 50, 80
19, 19409, Note_on_c, 14, 50, 0
19, 19440, Note_on_c, 14, 52, 82
19, 19529, Note_on_c, 14, 52, 0
19, 19560, Note_on_c, 14, 50, 83
19, 19649, Note_on_c, 14, 50, 0
19, 19680, Note_on_c, 14, 49, 85
19, 19769, Note_on_c, 14, 49, 0
19, 19800, Note_on_c, 14, 61, 87
19, 19889, Note_on_c, 14, 61, 0
19, 19920, Note_on_c, 14, 62, 88
19, 20009, Note_on_c, 14, 62, 0
19, 20040, Note_on_c, 14, 64, 90
19, 20129, Note_on_c, 14, 64, 0
19, 20160, Note_on_c, 14, 50, 92
19, 20279, Note_on_c, 14, 50, 0
19, 20520, Note_on_c, 14, 62, 92
19, 20639, Note_on_c, 14, 62, 0
19, 20880, Note_on_c, 14, 57, 92
19, 20999, Note_on_c, 14, 57, 0
19, 21240, Note_on_c, 14, 50, 92
19, 21359, Note_on_c, 14, 50, 0
19, 21600, Note_on_c, 14, 55, 80
19, 21719, Note_on_c, 14, 55, 0
19, 21960, Note_on_c, 14, 57, 80
19, 22079, Note_on_c, 14, 57, 0
19, 22320, Note_on_c, 14, 45, 80
19, 22439, Note_on_c, 14, 45, 0
19, 22680, Note_on_c, 14, 50, 80
19, 22799, Note_on_c, 14, 50, 0
19, 23040, Note_on_c, 14, 55, 80
19, 23159, Note_on_c, 14, 55, 0
19, 23400, Note_on_c, 14, 57, 80
19, 23519, Note_on_c, 14, 57, 0
19, 23760, Note_on_c, 14, 45, 80
19, 23879, Note_on_c, 14, 45, 0
19, 24120, Note_on_c, 14, 50, 80
19, 24239, Note_on_c, 14, 50, 0
19, 24360, Note_on_c, 14, 43, 80
19, 24464, Note_on_c, 14, 43, 0
19, 24480, Note_on_c, 14, 43, 80
19, 24599, Note_on_c, 14, 43, 0
19, 24840, Note_on_c, 14, 48, 80
19, 24959, Note_on_c, 14, 48, 0
19, 25200, Note_on_c, 14, 55, 80
19, 25319, Note_on_c, 14, 55, 0
19, 25560, Note_on_c, 14, 60, 80
19, 25664, Note_on_c, 14, 60, 0
19, 25680, Note_on_c, 14, 55, 80
19, 25784, Note_on_c, 14, 55, 0
19, 25800, Note_on_c, 14, 55, 80
19, 25904, Note_on_c, 14, 55, 0
19, 25920, Note_on_c, 14, 43, 80
19, 26039, Note_on_c, 14, 43, 0
19, 26280, Note_on_c, 14, 48, 80
19, 26399, Note_on_c, 14, 48, 0
19, 26640, Note_on_c, 14, 60, 80
19, 26759, Note_on_c, 14, 60, 0
19, 27000, Note_on_c, 14, 60, 80
19, 27119, Note_on_c, 14, 60, 0
19, 27360, Note_on_c, 14, 55, 80
19, 27360, Note_on_c, 14, 43, 80
19, 27479, Note_on_c, 14, 55, 0
19, 27479, Note_on_c, 14, 43, 0
19, 30240, Program_c, 14, 45
19, 30600, Note_on_c, 14, 60, 38
19, 30719, Note_on_c, 14, 60, 0
19, 30960, Note_on_c, 14, 53, 44
19, 31079, Note_on_c, 14, 53, 0
19, 31320, Note_on_c, 14, 50, 51
19, 31439, Note_on_c, 14, 50, 0
19, 31680, Note_on_c, 14, 55, 57
19, 31799, Note_on_c, 14, 55, 0
19, 32040, Note_on_c, 14, 60, 64
19, 32159, Note_on_c, 14, 60, 0
19, 32400, Note_on_c, 14, 55, 70
19, 32519, Note_on_c, 14, 55, 0
19, 32760, Note_on_c, 14, 43, 77
19, 32879, Note_on_c, 14, 43, 0
19, 33000, Program_c, 14, 48
19, 33120, Note_on_c, 14, 48, 92
19, 33284, Note_on_c, 14, 48, 0
19, 33300, Note_on_c, 14, 36, 92
19, 33344, Note_on_c, 14, 36, 0
19, 33360, Note_on_c, 14, 36, 92
19, 33464, Note_on_c, 14, 36, 0
19, 33480, Note_on_c, 14, 48, 92
19, 33644, Note_on_c, 14, 48, 0
19, 33660, Note_on_c, 14, 36, 92
19, 33704, Note_on_c, 14, 36, 0
19, 33720, Note_on_c, 14, 36, 92
19, 33824, Note_on_c, 14, 36, 0
19, 33840, Note_on_c, 14, 48, 92
19, 34004, Note_on_c, 14, 48, 0
19, 34020, Note_on_c, 14, 36, 92
19, 34064, Note_on_c, 14, 36, 0
19, 34080, Note_on_c, 14, 36, 92
19, 34184, Note_on_c, 14, 36, 0
19, 34200, Note_on_c, 14, 48, 92
19, 34364, Note_on_c, 14, 48, 0
19, 34380, Note_on_c, 14, 36, 92
19, 34424, Note_on_c, 14, 36, 0
19, 34440, Note_on_c, 14, 36, 92
19, 34544, Note_on_c, 14, 36, 0
19, 34560, Note_on_c, 14, 48, 92
19, 34724, Note_on_c, 14, 48, 0
19, 34740, Note_on_c, 14, 36, 92
19, 34784, Note_on_c, 14, 36, 0
19, 34800, Note_on_c, 14, 36, 92
19, 34904, Note_on_c, 14, 36, 0
19, 34920, Note_on_c, 14, 48, 92
19, 35084, Note_on_c, 14, 48, 0
19, 35100, Note_on_c, 14, 36, 92
19, 35144, Note_on_c, 14, 36, 0
19, 35160, Note_on_c, 14, 36, 92
19, 35264, Note_on_c, 14, 36, 0
19, 35280, Note_on_c, 14, 48, 92
19, 35444, Note_on_c, 14, 48, 0
19, 35460, Note_on_c, 14, 36, 92
19, 35504, Note_on_c, 14, 36, 0
19, 35520, Note_on_c, 14, 36, 92
19, 35624, Note_on_c, 14, 36, 0
19, 35640, Note_on_c, 14, 48, 92
19, 35804, Note_on_c, 14, 48, 0
19, 35820, Note_on_c, 14, 36, 92
19, 35864, Note_on_c, 14, 36, 0
19, 35880, Note_on_c, 14, 36, 92
19, 35984, Note_on_c, 14, 36, 0
19, 36000, Note_on_c, 14, 48, 92
19, 36164, Note_on_c, 14, 48, 0
19, 36180, Note_on_c, 14, 36, 92
19, 36224, Note_on_c, 14, 36, 0
19, 36240, Note_on_c, 14, 36, 92
19, 36344, Note_on_c, 14, 36, 0
19, 36360, Note_on_c, 14, 48, 92
19, 36524, Note_on_c, 14, 48, 0
19, 36540, Note_on_c, 14, 36, 92
19, 36584, Note_on_c, 14, 36, 0
19, 36600, Note_on_c, 14, 36, 92
19, 36704, Note_on_c, 14, 36, 0
19, 36720, Note_on_c, 14, 48, 92
19, 36884, Note_on_c, 14, 48, 0
19, 36900, Note_on_c, 14, 36, 92
19, 36944, Note_on_c, 14, 36, 0
19, 36960, Note_on_c, 14, 36, 92
19, 37064, Note_on_c, 14, 36, 0
19, 37080, Note_on_c, 14, 48, 92
19, 37244, Note_on_c, 14, 48, 0
19, 37260, Note_on_c, 14, 36, 92
19, 37304, Note_on_c, 14, 36, 0
19, 37320, Note_on_c, 14, 36, 92
19, 37424, Note_on_c, 14, 36, 0
19, 37440, Note_on_c, 14, 48, 92
19, 37604, Note_on_c, 14, 48, 0
19, 37620, Note_on_c, 14, 36, 92
19, 37664, Note_on_c, 14, 36, 0
19, 37680, Note_on_c, 14, 36, 92
19, 37784, Note_on_c, 14, 36, 0
19, 37800, Note_on_c, 14, 48, 92
19, 37964, Note_on_c, 14, 48, 0
19, 37980, Note_on_c, 14, 36, 92
19, 38024, Note_on_c, 14, 36, 0
19, 38040, Note_on_c, 14, 36, 92
19, 38144, Note_on_c, 14, 36, 0
19, 38160, Note_on_c, 14, 48, 92
19, 38324, Note_on_c, 14, 48, 0
19, 38340, Note_on_c, 14, 36, 92
19, 38384, Note_on_c, 14, 36, 0
19, 38400, Note_on_c, 14, 36, 92
19, 38504, Note_on_c, 14, 36, 0
19, 38520, Note_on_c, 14, 48, 92
19, 38684, Note_on_c, 14, 48, 0
19, 38700, Note_on_c, 14, 36, 92
19, 38744, Note_on_c, 14, 36, 0
19, 38760, Note_on_c, 14, 36, 92
19, 38864, Note_on_c, 14, 36, 0
19, 38880, Note_on_c, 14, 48, 92
19, 38999, Note_on_c, 14, 48, 0
19, 39600, Note_on_c, 14, 53, 92
19, 39764, Note_on_c, 14, 53, 0
19, 39780, Note_on_c, 14, 41, 92
19, 39824, Note_on_c, 14, 41, 0
19, 39840, Note_on_c, 14, 41, 92
19, 39944, Note_on_c, 14, 41, 0
19, 39960, Note_on_c, 14, 53, 92
19, 40049, Note_on_c, 14, 53, 0
19, 40080, Note_on_c, 14, 50, 92
19, 40169, Note_on_c, 14, 50, 0
19, 40200, Note_on_c, 14, 48, 92
19, 40289, Note_on_c, 14, 48, 0
19, 40320, Note_on_c, 14, 47, 92
19, 40439, Note_on_c, 14, 47, 0
19, 41040, Note_on_c, 14, 64, 92
19, 41204, Note_on_c, 14, 64, 0
19, 41220, Note_on_c, 14, 52, 92
19, 41264, Note_on_c, 14, 52, 0
19, 41280, Note_on_c, 14, 52, 92
19, 41384, Note_on_c, 14, 52, 0
19, 41400, Note_on_c, 14, 64, 92
19, 41489, Note_on_c, 14, 64, 0
19, 41520, Note_on_c, 14, 60, 92
19, 41609, Note_on_c, 14, 60, 0
19, 41640, Note_on_c, 14, 59, 92
19, 41729, Note_on_c, 14, 59, 0
19, 41758, Control_c, 14, 11, 87
19, 41760, Note_on_c, 14, 58, 68
19, 42480, Control_c, 14, 11, 87
19, 42510, Control_c, 14, 11, 89
19, 42540, Control_c, 14, 11, 90
19, 42570, Control_c, 14, 11, 92
19, 42600, Control_c, 14, 11, 94
19, 42630, Control_c, 14, 11, 95
19, 42660, Control_c, 14, 11, 97
19, 42690, Control_c, 14, 11, 99
19, 42720, Control_c, 14, 11, 100
19, 42750, Control_c, 14, 11, 102
19, 42780, Control_c, 14, 11, 104
19, 42810, Control_c, 14, 11, 105
19, 42840, Control_c, 14, 11, 107
19, 42870, Control_c, 14, 11, 109
19, 42900, Control_c, 14, 11, 110
19, 42930, Control_c, 14, 11, 112
19, 42959, Note_on_c, 14, 58, 0
19, 42960, Control_c, 14, 11, 114
19, 42960, Note_on_c, 14, 57, 68
19, 42990, Control_c, 14, 11, 115
19, 43020, Control_c, 14, 11, 117
19, 43050, Control_c, 14, 11, 119
19, 43079, Note_on_c, 14, 57, 0
19, 43080, Note_on_c, 14, 55, 68
19, 43080, Control_c, 14, 11, 120
19, 43110, Control_c, 14, 11, 122
19, 43140, Control_c, 14, 11, 124
19, 43170, Control_c, 14, 11, 125
19, 43199, Note_on_c, 14, 55, 0
19, 43200, Control_c, 14, 11, 127
19, 43200, Note_on_c, 14, 57, 68
19, 43230, Control_c, 14, 11, 125
19, 43260, Control_c, 14, 11, 124
19, 43290, Control_c, 14, 11, 122
19, 43319, Note_on_c, 14, 57, 0
19, 43320, Note_on_c, 14, 55, 68
19, 43320, Control_c, 14, 11, 120
19, 43350, Control_c, 14, 11, 119
19, 43380, Control_c, 14, 11, 117
19, 43410, Control_c, 14, 11, 115
19, 43439, Note_on_c, 14, 55, 0
19, 43440, Note_on_c, 14, 54, 68
19, 43440, Control_c, 14, 11, 114
19, 43470, Control_c, 14, 11, 112
19, 43500, Control_c, 14, 11, 110
19, 43530, Control_c, 14, 11, 109
19, 43559, Note_on_c, 14, 54, 0
19, 43560, Note_on_c, 14, 55, 68
19, 43560, Control_c, 14, 11, 107
19, 43590, Control_c, 14, 11, 105
19, 43620, Control_c, 14, 11, 104
19, 43650, Control_c, 14, 11, 102
19, 43680, Control_c, 14, 11, 100
19, 43710, Control_c, 14, 11, 99
19, 43740, Control_c, 14, 11, 97
19, 43770, Control_c, 14, 11, 95
19, 43830, Control_c, 14, 11, 92
19, 43860, Control_c, 14, 11, 90
19, 43890, Control_c, 14, 11, 87
19, 43919, Note_on_c, 14, 55, 0
19, 45720, Control_c, 14, 11, 127
19, 46080, Note_on_c, 14, 55, 80
19, 46169, Note_on_c, 14, 55, 0
19, 46200, Note_on_c, 14, 60, 80
19, 46289, Note_on_c, 14, 60, 0
19, 46320, Note_on_c, 14, 57, 80
19, 46409, Note_on_c, 14, 57, 0
19, 46440, Note_on_c, 14, 53, 80
19, 46529, Note_on_c, 14, 53, 0
19, 46560, Note_on_c, 14, 55, 80
19, 46649, Note_on_c, 14, 55, 0
19, 46680, Note_on_c, 14, 43, 80
19, 46769, Note_on_c, 14, 43, 0
19, 46800, Note_on_c, 14, 48, 80
19, 46919, Note_on_c, 14, 48, 0
19, 47520, Note_on_c, 14, 55, 80
19, 47609, Note_on_c, 14, 55, 0
19, 47640, Note_on_c, 14, 52, 80
19, 47729, Note_on_c, 14, 52, 0
19, 47760, Note_on_c, 14, 57, 80
19, 47849, Note_on_c, 14, 57, 0
19, 47880, Note_on_c, 14, 53, 80
19, 47969, Note_on_c, 14, 53, 0
19, 48000, Note_on_c, 14, 50, 80
19, 48089, Note_on_c, 14, 50, 0
19, 48120, Note_on_c, 14, 55, 80
19, 48209, Note_on_c, 14, 55, 0
19, 48240, Note_on_c, 14, 48, 80
19, 48359, Note_on_c, 14, 48, 0
19, 48600, Note_on_c, 14, 67, 80
19, 48764, Note_on_c, 14, 67, 0
19, 48780, Note_on_c, 14, 55, 80
19, 48824, Note_on_c, 14, 55, 0
19, 48840, Note_on_c, 14, 55, 80
19, 48944, Note_on_c, 14, 55, 0
19, 48960, Note_on_c, 14, 48, 80
19, 49079, Note_on_c, 14, 48, 0
19, 49320, Note_on_c, 14, 67, 80
19, 49484, Note_on_c, 14, 67, 0
19, 49500, Note_on_c, 14, 55, 80
19, 49544, Note_on_c, 14, 55, 0
19, 49560, Note_on_c, 14, 55, 80
19, 49664, Note_on_c, 14, 55, 0
19, 49680, Note_on_c, 14, 57, 32
19, 49799, Note_on_c, 14, 57, 0
19, 49800, Note_on_c, 14, 55, 32
19, 49919, Note_on_c, 14, 55, 0
19, 49920, Note_on_c, 14, 53, 32
19, 50039, Note_on_c, 14, 53, 0
19, 50040, Note_on_c, 14, 52, 32
19, 50159, Note_on_c, 14, 52, 0
19, 50160, Note_on_c, 14, 50, 32
19, 50279, Note_on_c, 14, 50, 0
19, 50280, Note_on_c, 14, 48, 32
19, 50399, Note_on_c, 14, 48, 0
19, 50400, Note_on_c, 14, 47, 32
19, 50519, Note_on_c, 14, 47, 0
19, 50520, Note_on_c, 14, 48, 32
19, 50639, Note_on_c, 14, 48, 0
19, 50640, Note_on_c, 14, 47, 32
19, 50699, Note_on_c, 14, 47, 0
19, 50700, Note_on_c, 14, 59, 32
19, 50759, Note_on_c, 14, 59, 0
19, 50760, Note_on_c, 14, 57, 32
19, 50879, Note_on_c, 14, 57, 0
19, 50880, Note_on_c, 14, 55, 32
19, 50999, Note_on_c, 14, 55, 0
19, 51000, Note_on_c, 14, 53, 32
19, 51104, Note_on_c, 14, 53, 0
19, 51120, Note_on_c, 14, 36, 32
19, 51284, Note_on_c, 14, 36, 0
19, 51300, Note_on_c, 14, 48, 32
19, 51344, Note_on_c, 14, 48, 0
19, 51360, Note_on_c, 14, 48, 32
19, 51464, Note_on_c, 14, 48, 0
19, 51480, Note_on_c, 14, 45, 32
19, 51599, Note_on_c, 14, 45, 0
19, 51840, Note_on_c, 14, 41, 32
19, 52004, Note_on_c, 14, 41, 0
19, 52020, Note_on_c, 14, 53, 32
19, 52064, Note_on_c, 14, 53, 0
19, 52080, Note_on_c, 14, 53, 32
19, 52184, Note_on_c, 14, 53, 0
19, 52200, Note_on_c, 14, 50, 32
19, 52319, Note_on_c, 14, 50, 0
19, 56880, Note_on_c, 14, 69, 32
19, 57044, Note_on_c, 14, 69, 0
19, 57060, Note_on_c, 14, 57, 32
19, 57104, Note_on_c, 14, 57, 0
19, 57120, Note_on_c, 14, 57, 32
19, 57224, Note_on_c, 14, 57, 0
19, 57240, Note_on_c, 14, 62, 32
19, 57329, Note_on_c, 14, 62, 0
19, 57360, Note_on_c, 14, 64, 32
19, 57449, Note_on_c, 14, 64, 0
19, 57480, Note_on_c, 14, 65, 32
19, 57569, Note_on_c, 14, 65, 0
19, 57600, Note_on_c, 14, 64, 32
19, 57689, Note_on_c, 14, 64, 0
19, 57720, Note_on_c, 14, 65, 32
19, 57809, Note_on_c, 14, 65, 0
19, 57840, Note_on_c, 14, 67, 32
19, 57929, Note_on_c, 14, 67, 0
19, 57960, Note_on_c, 14, 65, 32
19, 58049, Note_on_c, 14, 65, 0
19, 58080, Note_on_c, 14, 64, 32
19, 58169, Note_on_c, 14, 64, 0
19, 58200, Note_on_c, 14, 62, 32
19, 58289, Note_on_c, 14, 62, 0
19, 58320, Note_on_c, 14, 65, 32
19, 58409, Note_on_c, 14, 65, 0
19, 58440, Note_on_c, 14, 64, 32
19, 58529, Note_on_c, 14, 64, 0
19, 58560, Note_on_c, 14, 62, 32
19, 58649, Note_on_c, 14, 62, 0
19, 58680, Note_on_c, 14, 60, 32
19, 58769, Note_on_c, 14, 60, 0
19, 58800, Note_on_c, 14, 59, 32
19, 58889, Note_on_c, 14, 59, 0
19, 58920, Note_on_c, 14, 57, 32
19, 59009, Note_on_c, 14, 57, 0
19, 59040, Note_on_c, 14, 56, 32
19, 59129, Note_on_c, 14, 56, 0
19, 59160, Note_on_c, 14, 57, 32
19, 59249, Note_on_c, 14, 57, 0
19, 59280, Note_on_c, 14, 59, 32
19, 59369, Note_on_c, 14, 59, 0
19, 59400, Note_on_c, 14, 57, 32
19, 59489, Note_on_c, 14, 57, 0
19, 59520, Note_on_c, 14, 56, 32
19, 59609, Note_on_c, 14, 56, 0
19, 59640, Note_on_c, 14, 57, 32
19, 59729, Note_on_c, 14, 57, 0
19, 59760, Note_on_c, 14, 55, 32
19, 59849, Note_on_c, 14, 55, 0
19, 59880, Note_on_c, 14, 53, 32
19, 59969, Note_on_c, 14, 53, 0
19, 60000, Note_on_c, 14, 52, 32
19, 60089, Note_on_c, 14, 52, 0
19, 60120, Note_on_c, 14, 50, 32
19, 60209, Note_on_c, 14, 50, 0
19, 60240, Note_on_c, 14, 57, 32
19, 60329, Note_on_c, 14, 57, 0
19, 60360, Note_on_c, 14, 57, 32
19, 60449, Note_on_c, 14, 57, 0
19, 60480, Note_on_c, 14, 57, 32
19, 60569, Note_on_c, 14, 57, 0
19, 60600, Note_on_c, 14, 57, 32
19, 60689, Note_on_c, 14, 57, 0
19, 60720, Note_on_c, 14, 57, 32
19, 60809, Note_on_c, 14, 57, 0
19, 60840, Note_on_c, 14, 57, 32
19, 60929, Note_on_c, 14, 57, 0
19, 60960, Note_on_c, 14, 69, 32
19, 61049, Note_on_c, 14, 69, 0
19, 61080, Note_on_c, 14, 69, 32
19, 61169, Note_on_c, 14, 69, 0
19, 61200, Note_on_c, 14, 69, 32
19, 61289, Note_on_c, 14, 69, 0
19, 61320, Note_on_c, 14, 69, 32
19, 61409, Note_on_c, 14, 69, 0
19, 61440, Note_on_c, 14, 69, 32
19, 61529, Note_on_c, 14, 69, 0
19, 61560, Note_on_c, 14, 69, 32
19, 61649, Note_on_c, 14, 69, 0
19, 61680, Note_on_c, 14, 64, 32
19, 61769, Note_on_c, 14, 64, 0
19, 61800, Note_on_c, 14, 64, 32
19, 61889, Note_on_c, 14, 64, 0
19, 61920, Note_on_c, 14, 62, 32
19, 62009, Note_on_c, 14, 62, 0
19, 62040, Note_on_c, 14, 60, 32
19, 62129, Note_on_c, 14, 60, 0
19, 62160, Note_on_c, 14, 59, 32
19, 62249, Note_on_c, 14, 59, 0
19, 62280, Note_on_c, 14, 60, 32
19, 62369, Note_on_c, 14, 60, 0
19, 62400, Note_on_c, 14, 62, 32
19, 62489, Note_on_c, 14, 62, 0
19, 62520, Note_on_c, 14, 60, 32
19, 62609, Note_on_c, 14, 60, 0
19, 62640, Note_on_c, 14, 58, 32
19, 62729, Note_on_c, 14, 58, 0
19, 62760, Note_on_c, 14, 57, 32
19, 62849, Note_on_c, 14, 57, 0
19, 62880, Note_on_c, 14, 55, 32
19, 62969, Note_on_c, 14, 55, 0
19, 63000, Note_on_c, 14, 53, 32
19, 63089, Note_on_c, 14, 53, 0
19, 63120, Note_on_c, 14, 52, 32
19, 63209, Note_on_c, 14, 52, 0
19, 63240, Note_on_c, 14, 50, 32
19, 63329, Note_on_c, 14, 50, 0
19, 63360, Note_on_c, 14, 49, 32
19, 63449, Note_on_c, 14, 49, 0
19, 63480, Note_on_c, 14, 50, 32
19, 63569, Note_on_c, 14, 50, 0
19, 63600, Note_on_c, 14, 52, 32
19, 63689, Note_on_c, 14, 52, 0
19, 63720, Note_on_c, 14, 50, 32
19, 63809, Note_on_c, 14, 50, 0
19, 63840, Note_on_c, 14, 49, 32
19, 63929, Note_on_c, 14, 49, 0
19, 63960, Note_on_c, 14, 50, 32
19, 64049, Note_on_c, 14, 50, 0
19, 64080, Note_on_c, 14, 47, 32
19, 64169, Note_on_c, 14, 47, 0
19, 64200, Note_on_c, 14, 48, 32
19, 64289, Note_on_c, 14, 48, 0
19, 64320, Note_on_c, 14, 53, 32
19, 64409, Note_on_c, 14, 53, 0
19, 64440, Note_on_c, 14, 52, 32
19, 64529, Note_on_c, 14, 52, 0
19, 64560, Note_on_c, 14, 53, 32
19, 64649, Note_on_c, 14, 53, 0
19, 64680, Note_on_c, 14, 52, 32
19, 64769, Note_on_c, 14, 52, 0
19, 64800, Note_on_c, 14, 50, 32
19, 64889, Note_on_c, 14, 50, 0
19, 64920, Note_on_c, 14, 52, 32
19, 65009, Note_on_c, 14, 52, 0
19, 65040, Note_on_c, 14, 53, 32
19, 65129, Note_on_c, 14, 53, 0
19, 65160, Note_on_c, 14, 52, 32
19, 65249, Note_on_c, 14, 52, 0
19, 65280, Note_on_c, 14, 53, 32
19, 65369, Note_on_c, 14, 53, 0
19, 65400, Note_on_c, 14, 52, 32
19, 65489, Note_on_c, 14, 52, 0
19, 65520, Note_on_c, 14, 55, 32
19, 65609, Note_on_c, 14, 55, 0
19, 65640, Note_on_c, 14, 53, 32
19, 65729, Note_on_c, 14, 53, 0
19, 65760, Note_on_c, 14, 52, 32
19, 65849, Note_on_c, 14, 52, 0
19, 65880, Note_on_c, 14, 50, 32
19, 65969, Note_on_c, 14, 50, 0
19, 66000, Note_on_c, 14, 52, 32
19, 66089, Note_on_c, 14, 52, 0
19, 66120, Note_on_c, 14, 53, 32
19, 66209, Note_on_c, 14, 53, 0
19, 66240, Note_on_c, 14, 52, 32
19, 66329, Note_on_c, 14, 52, 0
19, 66360, Note_on_c, 14, 53, 32
19, 66449, Note_on_c, 14, 53, 0
19, 66480, Note_on_c, 14, 55, 32
19, 66569, Note_on_c, 14, 55, 0
19, 66600, Note_on_c, 14, 57, 32
19, 66689, Note_on_c, 14, 57, 0
19, 66720, Note_on_c, 14, 55, 32
19, 66809, Note_on_c, 14, 55, 0
19, 66840, Note_on_c, 14, 53, 32
19, 66929, Note_on_c, 14, 53, 0
19, 66960, Note_on_c, 14, 55, 32
19, 67049, Note_on_c, 14, 55, 0
19, 67080, Note_on_c, 14, 53, 33
19, 67169, Note_on_c, 14, 53, 0
19, 67200, Note_on_c, 14, 52, 35
19, 67289, Note_on_c, 14, 52, 0
19, 67320, Note_on_c, 14, 53, 37
19, 67409, Note_on_c, 14, 53, 0
19, 67440, Note_on_c, 14, 55, 38
19, 67529, Note_on_c, 14, 55, 0
19, 67560, Note_on_c, 14, 53, 40
19, 67649, Note_on_c, 14, 53, 0
19, 67680, Note_on_c, 14, 55, 42
19, 67769, Note_on_c, 14, 55, 0
19, 67800, Note_on_c, 14, 53, 43
19, 67889, Note_on_c, 14, 53, 0
19, 67920, Note_on_c, 14, 52, 45
19, 68009, Note_on_c, 14, 52, 0
19, 68040, Note_on_c, 14, 53, 47
19, 68129, Note_on_c, 14, 53, 0
19, 68160, Note_on_c, 14, 55, 48
19, 68249, Note_on_c, 14, 55, 0
19, 68280, Note_on_c, 14, 53, 50
19, 68369, Note_on_c, 14, 53, 0
19, 68400, Note_on_c, 14, 55, 52
19, 68489, Note_on_c, 14, 55, 0
19, 68520, Note_on_c, 14, 53, 53
19, 68609, Note_on_c, 14, 53, 0
19, 68640, Note_on_c, 14, 52, 55
19, 68729, Note_on_c, 14, 52, 0
19, 68760, Note_on_c, 14, 53, 57
19, 68849, Note_on_c, 14, 53, 0
19, 68880, Note_on_c, 14, 55, 58
19, 68969, Note_on_c, 14, 55, 0
19, 69000, Note_on_c, 14, 53, 60
19, 69089, Note_on_c, 14, 53, 0
19, 69120, Note_on_c, 14, 52, 62
19, 69209, Note_on_c, 14, 52, 0
19, 69240, Note_on_c, 14, 50, 63
19, 69329, Note_on_c, 14, 50, 0
19, 69360, Note_on_c, 14, 49, 65
19, 69449, Note_on_c, 14, 49, 0
19, 69480, Note_on_c, 14, 50, 67
19, 69569, Note_on_c, 14, 50, 0
19, 69600, Note_on_c, 14, 52, 68
19, 69689, Note_on_c, 14, 52, 0
19, 69720, Note_on_c, 14, 50, 70
19, 69809, Note_on_c, 14, 50, 0
19, 69840, Note_on_c, 14, 52, 72
19, 69929, Note_on_c, 14, 52, 0
19, 69960, Note_on_c, 14, 50, 73
19, 70049, Note_on_c, 14, 50, 0
19, 70080, Note_on_c, 14, 49, 75
19, 70169, Note_on_c, 14, 49, 0
19, 70200, Note_on_c, 14, 50, 77
19, 70289, Note_on_c, 14, 50, 0
19, 70320, Note_on_c, 14, 52, 78
19, 70409, Note_on_c, 14, 52, 0
19, 70440, Note_on_c, 14, 50, 80
19, 70529, Note_on_c, 14, 50, 0
19, 70560, Note_on_c, 14, 52, 82
19, 70649, Note_on_c, 14, 52, 0
19, 70680, Note_on_c, 14, 50, 83
19, 70769, Note_on_c, 14, 50, 0
19, 70800, Note_on_c, 14, 49, 85
19, 70889, Note_on_c, 14, 49, 0
19, 70920, Note_on_c, 14, 61, 87
19, 71009, Note_on_c, 14, 61, 0
19, 71040, Note_on_c, 14, 62, 88
19, 71129, Note_on_c, 14, 62, 0
19, 71160, Note_on_c, 14, 64, 90
19, 71249, Note_on_c, 14, 64, 0
19, 71280, Note_on_c, 14, 50, 92
19, 71399, Note_on_c, 14, 50, 0
19, 71640, Note_on_c, 14, 62, 92
19, 71759, Note_on_c, 14, 62, 0
19, 72000, Note_on_c, 14, 57, 92
19, 72119, Note_on_c, 14, 57, 0
19, 72360, Note_on_c, 14, 50, 92
19, 72479, Note_on_c, 14, 50, 0
19, 72720, Note_on_c, 14, 55, 80
19, 72839, Note_on_c, 14, 55, 0
19, 73080, Note_on_c, 14, 57, 80
19, 73199, Note_on_c, 14, 57, 0
19, 73440, Note_on_c, 14, 45, 80
19, 73559, Note_on_c, 14, 45, 0
19, 73800, Note_on_c, 14, 50, 80
19, 73919, Note_on_c, 14, 50, 0
19, 74160, Note_on_c, 14, 55, 80
19, 74279, Note_on_c, 14, 55, 0
19, 74520, Note_on_c, 14, 57, 80
19, 74639, Note_on_c, 14, 57, 0
19, 74880, Note_on_c, 14, 45, 80
19, 74999, Note_on_c, 14, 45, 0
19, 75240, Note_on_c, 14, 50, 80
19, 75359, Note_on_c, 14, 50, 0
19, 75480, Note_on_c, 14, 43, 80
19, 75584, Note_on_c, 14, 43, 0
19, 75600, Note_on_c, 14, 43, 80
19, 75719, Note_on_c, 14, 43, 0
19, 75960, Note_on_c, 14, 48, 80
19, 76079, Note_on_c, 14, 48, 0
19, 76320, Note_on_c, 14, 55, 80
19, 76439, Note_on_c, 14, 55, 0
19, 76680, Note_on_c, 14, 60, 80
19, 76784, Note_on_c, 14, 60, 0
19, 76800, Note_on_c, 14, 55, 80
19, 76904, Note_on_c, 14, 55, 0
19, 76920, Note_on_c, 14, 55, 80
19, 77024, Note_on_c, 14, 55, 0
19, 77040, Note_on_c, 14, 43, 80
19, 77159, Note_on_c, 14, 43, 0
19, 77400, Note_on_c, 14, 48, 80
19, 77519, Note_on_c, 14, 48, 0
19, 77760, Note_on_c, 14, 60, 80
19, 77879, Note_on_c, 14, 60, 0
19, 78120, Note_on_c, 14, 60, 80
19, 78239, Note_on_c, 14, 60, 0
19, 78480, Note_on_c, 14, 55, 80
19, 78480, Note_on_c, 14, 43, 80
19, 78599, Note_on_c, 14, 55, 0
19, 78599, Note_on_c, 14, 43, 0
19, 81360, Program_c, 14, 45
19, 81720, Note_on_c, 14, 60, 38
19, 81839, Note_on_c, 14, 60, 0
19, 82080, Note_on_c, 14, 53, 44
19, 82199, Note_on_c, 14, 53, 0
19, 82440, Note_on_c, 14, 50, 51
19, 82559, Note_on_c, 14, 50, 0
19, 82800, Note_on_c, 14, 55, 57
19, 82919, Note_on_c, 14, 55, 0
19, 83160, Note_on_c, 14, 60, 64
19, 83279, Note_on_c, 14, 60, 0
19, 83520, Note_on_c, 14, 55, 70
19, 83639, Note_on_c, 14, 55, 0
19, 83880, Note_on_c, 14, 43, 77
19, 83999, Note_on_c, 14, 43, 0
19, 84120, Program_c, 14, 48
19, 84240, Note_on_c, 14, 48, 92
19, 84404, Note_on_c, 14, 48, 0
19, 84420, Note_on_c, 14, 36, 92
19, 84464, Note_on_c, 14, 36, 0
19, 84480, Note_on_c, 14, 36, 92
19, 84584, Note_on_c, 14, 36, 0
19, 84600, Note_on_c, 14, 48, 92
19, 84764, Note_on_c, 14, 48, 0
19, 84780, Note_on_c, 14, 36, 92
19, 84824, Note_on_c, 14, 36, 0
19, 84840, Note_on_c, 14, 36, 92
19, 84944, Note_on_c, 14, 36, 0
19, 84960, Note_on_c, 14, 48, 92
19, 85124, Note_on_c, 14, 48, 0
19, 85140, Note_on_c, 14, 36, 92
19, 85184, Note_on_c, 14, 36, 0
19, 85200, Note_on_c, 14, 36, 92
19, 85304, Note_on_c, 14, 36, 0
19, 85320, Note_on_c, 14, 48, 92
19, 85484, Note_on_c, 14, 48, 0
19, 85500, Note_on_c, 14, 36, 92
19, 85544, Note_on_c, 14, 36, 0
19, 85560, Note_on_c, 14, 36, 92
19, 85664, Note_on_c, 14, 36, 0
19, 85680, Note_on_c, 14, 48, 92
19, 85844, Note_on_c, 14, 48, 0
19, 85860, Note_on_c, 14, 36, 92
19, 85904, Note_on_c, 14, 36, 0
19, 85920, Note_on_c, 14, 36, 92
19, 86024, Note_on_c, 14, 36, 0
19, 86040, Note_on_c, 14, 48, 92
19, 86204, Note_on_c, 14, 48, 0
19, 86220, Note_on_c, 14, 36, 92
19, 86264, Note_on_c, 14, 36, 0
19, 86280, Note_on_c, 14, 36, 92
19, 86384, Note_on_c, 14, 36, 0
19, 86400, Note_on_c, 14, 48, 92
19, 86564, Note_on_c, 14, 48, 0
19, 86580, Note_on_c, 14, 36, 92
19, 86624, Note_on_c, 14, 36, 0
19, 86640, Note_on_c, 14, 36, 92
19, 86744, Note_on_c, 14, 36, 0
19, 86760, Note_on_c, 14, 48, 92
19, 86924, Note_on_c, 14, 48, 0
19, 86940, Note_on_c, 14, 36, 92
19, 86984, Note_on_c, 14, 36, 0
19, 87000, Note_on_c, 14, 36, 92
19, 87104, Note_on_c, 14, 36, 0
19, 87120, Note_on_c, 14, 48, 92
19, 87284, Note_on_c, 14, 48, 0
19, 87300, Note_on_c, 14, 36, 92
19, 87344, Note_on_c, 14, 36, 0
19, 87360, Note_on_c, 14, 36, 92
19, 87464, Note_on_c, 14, 36, 0
19, 87480, Note_on_c, 14, 48, 92
19, 87644, Note_on_c, 14, 48, 0
19, 87660, Note_on_c, 14, 36, 92
19, 87704, Note_on_c, 14, 36, 0
19, 87720, Note_on_c, 14, 36, 92
19, 87824, Note_on_c, 14, 36, 0
19, 87840, Note_on_c, 14, 48, 92
19, 88004, Note_on_c, 14, 48, 0
19, 88020, Note_on_c, 14, 36, 92
19, 88064, Note_on_c, 14, 36, 0
19, 88080, Note_on_c, 14, 36, 92
19, 88184, Note_on_c, 14, 36, 0
19, 88200, Note_on_c, 14, 48, 92
19, 88364, Note_on_c, 14, 48, 0
19, 88380, Note_on_c, 14, 36, 92
19, 88424, Note_on_c, 14, 36, 0
19, 88440, Note_on_c, 14, 36, 92
19, 88544, Note_on_c, 14, 36, 0
19, 88560, Note_on_c, 14, 48, 92
19, 88724, Note_on_c, 14, 48, 0
19, 88740, Note_on_c, 14, 36, 92
19, 88784, Note_on_c, 14, 36, 0
19, 88800, Note_on_c, 14, 36, 92
19, 88904, Note_on_c, 14, 36, 0
19, 88920, Note_on_c, 14, 48, 92
19, 89084, Note_on_c, 14, 48, 0
19, 89100, Note_on_c, 14, 36, 92
19, 89144, Note_on_c, 14, 36, 0
19, 89160, Note_on_c, 14, 36, 92
19, 89264, Note_on_c, 14, 36, 0
19, 89280, Note_on_c, 14, 48, 92
19, 89444, Note_on_c, 14, 48, 0
19, 89460, Note_on_c, 14, 36, 92
19, 89504, Note_on_c, 14, 36, 0
19, 89520, Note_on_c, 14, 36, 92
19, 89624, Note_on_c, 14, 36, 0
19, 89640, Note_on_c, 14, 48, 92
19, 89804, Note_on_c, 14, 48, 0
19, 89820, Note_on_c, 14, 36, 92
19, 89864, Note_on_c, 14, 36, 0
19, 89880, Note_on_c, 14, 36, 92
19, 89984, Note_on_c, 14, 36, 0
19, 90000, Note_on_c, 14, 48, 92
19, 90119, Note_on_c, 14, 48, 0
19, 90720, Note_on_c, 14, 53, 92
19, 90884, Note_on_c, 14, 53, 0
19, 90900, Note_on_c, 14, 41, 92
19, 90944, Note_on_c, 14, 41, 0
19, 90960, Note_on_c, 14, 41, 92
19, 91064, Note_on_c, 14, 41, 0
19, 91080, Note_on_c, 14, 53, 92
19, 91169, Note_on_c, 14, 53, 0
19, 91200, Note_on_c, 14, 50, 92
19, 91289, Note_on_c, 14, 50, 0
19, 91320, Note_on_c, 14, 48, 92
19, 91409, Note_on_c, 14, 48, 0
19, 91440, Note_on_c, 14, 47, 92
19, 91559, Note_on_c, 14, 47, 0
19, 92160, Note_on_c, 14, 64, 92
19, 92324, Note_on_c, 14, 64, 0
19, 92340, Note_on_c, 14, 52, 92
19, 92384, Note_on_c, 14, 52, 0
19, 92400, Note_on_c, 14, 52, 92
19, 92504, Note_on_c, 14, 52, 0
19, 92520, Note_on_c, 14, 64, 92
19, 92609, Note_on_c, 14, 64, 0
19, 92640, Note_on_c, 14, 60, 92
19, 92729, Note_on_c, 14, 60, 0
19, 92760, Note_on_c, 14, 59, 92
19, 92849, Note_on_c, 14, 59, 0
19, 92878, Control_c, 14, 11, 87
19, 92880, Note_on_c, 14, 58, 68
19, 93600, Control_c, 14, 11, 87
19, 93630, Control_c, 14, 11, 89
19, 93660, Control_c, 14, 11, 90
19, 93690, Control_c, 14, 11, 92
19, 93720, Control_c, 14, 11, 94
19, 93750, Control_c, 14, 11, 95
19, 93780, Control_c, 14, 11, 97
19, 93810, Control_c, 14, 11, 99
19, 93840, Control_c, 14, 11, 100
19, 93870, Control_c, 14, 11, 102
19, 93900, Control_c, 14, 11, 104
19, 93930, Control_c, 14, 11, 105
19, 93960, Control_c, 14, 11, 107
19, 93990, Control_c, 14, 11, 109
19, 94020, Control_c, 14, 11, 110
19, 94050, Control_c, 14, 11, 112
19, 94079, Note_on_c, 14, 58, 0
19, 94080, Note_on_c, 14, 57, 68
19, 94080, Control_c, 14, 11, 114
19, 94110, Control_c, 14, 11, 115
19, 94140, Control_c, 14, 11, 117
19, 94170, Control_c, 14, 11, 119
19, 94199, Note_on_c, 14, 57, 0
19, 94200, Note_on_c, 14, 55, 68
19, 94200, Control_c, 14, 11, 120
19, 94230, Control_c, 14, 11, 122
19, 94260, Control_c, 14, 11, 124
19, 94290, Control_c, 14, 11, 125
19, 94319, Note_on_c, 14, 55, 0
19, 94320, Note_on_c, 14, 57, 68
19, 94320, Control_c, 14, 11, 127
19, 94350, Control_c, 14, 11, 125
19, 94380, Control_c, 14, 11, 124
19, 94410, Control_c, 14, 11, 122
19, 94439, Note_on_c, 14, 57, 0
19, 94440, Note_on_c, 14, 55, 68
19, 94440, Control_c, 14, 11, 120
19, 94470, Control_c, 14, 11, 119
19, 94500, Control_c, 14, 11, 117
19, 94530, Control_c, 14, 11, 115
19, 94559, Note_on_c, 14, 55, 0
19, 94560, Control_c, 14, 11, 114
19, 94560, Note_on_c, 14, 54, 68
19, 94590, Control_c, 14, 11, 112
19, 94620, Control_c, 14, 11, 110
19, 94650, Control_c, 14, 11, 109
19, 94679, Note_on_c, 14, 54, 0
19, 94680, Control_c, 14, 11, 107
19, 94680, Note_on_c, 14, 55, 68
19, 94710, Control_c, 14, 11, 105
19, 94740, Control_c, 14, 11, 104
19, 94770, Control_c, 14, 11, 102
19, 94800, Control_c, 14, 11, 100
19, 94830, Control_c, 14, 11, 99
19, 94860, Control_c, 14, 11, 97
19, 94890, Control_c, 14, 11, 95
19, 94950, Control_c, 14, 11, 92
19, 94980, Control_c, 14, 11, 90
19, 95010, Control_c, 14, 11, 87
19, 95039, Note_on_c, 14, 55, 0
19, 96840, Control_c, 14, 11, 127
19, 97200, Note_on_c, 14, 55, 80
19, 97289, Note_on_c, 14, 55, 0
19, 97320, Note_on_c, 14, 60, 80
19, 97409, Note_on_c, 14, 60, 0
19, 97440, Note_on_c, 14, 57, 80
19, 97529, Note_on_c, 14, 57, 0
19, 97560, Note_on_c, 14, 53, 80
19, 97649, Note_on_c, 14, 53, 0
19, 97680, Note_on_c, 14, 55, 80
19, 97769, Note_on_c, 14, 55, 0
19, 97800, Note_on_c, 14, 43, 80
19, 97889, Note_on_c, 14, 43, 0
19, 97920, Note_on_c, 14, 48, 80
19, 98039, Note_on_c, 14, 48, 0
19, 98640, Note_on_c, 14, 55, 80
19, 98729, Note_on_c, 14, 55, 0
19, 98760, Note_on_c, 14, 52, 80
19, 98849, Note_on_c, 14, 52, 0
19, 98880, Note_on_c, 14, 57, 80
19, 98969, Note_on_c, 14, 57, 0
19, 99000, Note_on_c, 14, 53, 80
19, 99089, Note_on_c, 14, 53, 0
19, 99120, Note_on_c, 14, 50, 80
19, 99209, Note_on_c, 14, 50, 0
19, 99240, Note_on_c, 14, 55, 80
19, 99329, Note_on_c, 14, 55, 0
19, 99360, Note_on_c, 14, 48, 80
19, 99479, Note_on_c, 14, 48, 0
19, 99720, Note_on_c, 14, 67, 80
19, 99884, Note_on_c, 14, 67, 0
19, 99900, Note_on_c, 14, 55, 80
19, 99944, Note_on_c, 14, 55, 0
19, 99960, Note_on_c, 14, 55, 80
19, 100064, Note_on_c, 14, 55, 0
19, 100080, Note_on_c, 14, 48, 80
19, 100199, Note_on_c, 14, 48, 0
19, 100440, Note_on_c, 14, 67, 80
19, 100604, Note_on_c, 14, 67, 0
19, 100620, Note_on_c, 14, 55, 80
19, 100664, Note_on_c, 14, 55, 0
19, 100680, Note_on_c, 14, 55, 80
19, 100784, Note_on_c, 14, 55, 0
19, 100800, Note_on_c, 14, 57, 32
19, 100919, Note_on_c, 14, 57, 0
19, 100920, Note_on_c, 14, 55, 32
19, 101039, Note_on_c, 14, 55, 0
19, 101040, Note_on_c, 14, 53, 32
19, 101159, Note_on_c, 14, 53, 0
19, 101160, Note_on_c, 14, 52, 32
19, 101279, Note_on_c, 14, 52, 0
19, 101280, Note_on_c, 14, 50, 32
19, 101399, Note_on_c, 14, 50, 0
19, 101400, Note_on_c, 14, 48, 32
19, 101519, Note_on_c, 14, 48, 0
19, 101520, Note_on_c, 14, 47, 32
19, 101639, Note_on_c, 14, 47, 0
19, 101640, Note_on_c, 14, 48, 32
19, 101759, Note_on_c, 14, 48, 0
19, 101760, Note_on_c, 14, 47, 32
19, 101819, Note_on_c, 14, 47, 0
19, 101820, Note_on_c, 14, 59, 32
19, 101879, Note_on_c, 14, 59, 0
19, 101880, Note_on_c, 14, 57, 32
19, 101999, Note_on_c, 14, 57, 0
19, 102000, Note_on_c, 14, 55, 32
19, 102119, Note_on_c, 14, 55, 0
19, 102120, Note_on_c, 14, 53, 32
19, 102224, Note_on_c, 14, 53, 0
19, 102240, Note_on_c, 14, 36, 32
19, 102404, Note_on_c, 14, 36, 0
19, 102420, Note_on_c, 14, 48, 32
19, 102464, Note_on_c, 14, 48, 0
19, 102480, Note_on_c, 14, 48, 32
19, 102584, Note_on_c, 14, 48, 0
19, 102600, Note_on_c, 14, 45, 32
19, 102719, Note_on_c, 14, 45, 0
19, 102960, Note_on_c, 14, 41, 32
19, 103124, Note_on_c, 14, 41, 0
19, 103140, Note_on_c, 14, 53, 32
19, 103184, Note_on_c, 14, 53, 0
19, 103200, Note_on_c, 14, 53, 32
19, 103304, Note_on_c, 14, 53, 0
19, 103320, Note_on_c, 14, 50, 32
19, 103439, Note_on_c, 14, 50, 0
19, 105120, Note_on_c, 14, 38, 32
19, 105284, Note_on_c, 14, 38, 0
19, 105300, Note_on_c, 14, 50, 32
19, 105344, Note_on_c, 14, 50, 0
19, 105360, Note_on_c, 14, 50, 32
19, 105464, Note_on_c, 14, 50, 0
19, 105480, Note_on_c, 14, 46, 32
19, 105599, Note_on_c, 14, 46, 0
19, 105840, Note_on_c, 14, 43, 32
19, 106004, Note_on_c, 14, 43, 0
19, 106020, Note_on_c, 14, 55, 32
19, 106064, Note_on_c, 14, 55, 0
19, 106080, Note_on_c, 14, 55, 32
19, 106184, Note_on_c, 14, 55, 0
19, 106200, Note_on_c, 14, 51, 32
19, 106319, Note_on_c, 14, 51, 0
19, 108000, Note_on_c, 14, 51, 32
19, 108164, Note_on_c, 14, 51, 0
19, 108180, Note_on_c, 14, 63, 34
19, 108224, Note_on_c, 14, 63, 0
19, 108240, Note_on_c, 14, 63, 34
19, 108344, Note_on_c, 14, 63, 0
19, 108360, Note_on_c, 14, 60, 36
19, 108479, Note_on_c, 14, 60, 0
19, 108720, Note_on_c, 14, 44, 40
19, 108884, Note_on_c, 14, 44, 0
19, 108900, Note_on_c, 14, 56, 42
19, 108944, Note_on_c, 14, 56, 0
19, 108960, Note_on_c, 14, 56, 42
19, 109064, Note_on_c, 14, 56, 0
19, 109080, Note_on_c, 14, 53, 44
19, 109199, Note_on_c, 14, 53, 0
19, 109440, Note_on_c, 14, 49, 48
19, 109604, Note_on_c, 14, 49, 0
19, 109620, Note_on_c, 14, 61, 50
19, 109664, Note_on_c, 14, 61, 0
19, 109680, Note_on_c, 14, 61, 50
19, 109784, Note_on_c, 14, 61, 0
19, 109800, Note_on_c, 14, 58, 52
19, 109919, Note_on_c, 14, 58, 0
19, 110160, Note_on_c, 14, 42, 56
19, 110324, Note_on_c, 14, 42, 0
19, 110340, Note_on_c, 14, 54, 58
19, 110384, Note_on_c, 14, 54, 0
19, 110400, Note_on_c, 14, 54, 58
19, 110504, Note_on_c, 14, 54, 0
19, 110520, Note_on_c, 14, 51, 60
19, 110639, Note_on_c, 14, 51, 0
19, 110880, Note_on_c, 14, 47, 64
19, 111044, Note_on_c, 14, 47, 0
19, 111060, Note_on_c, 14, 59, 66
19, 111104, Note_on_c, 14, 59, 0
19, 111120, Note_on_c, 14, 59, 66
19, 111224, Note_on_c, 14, 59, 0
19, 111240, Note_on_c, 14, 56, 68
19, 111359, Note_on_c, 14, 56, 0
19, 111600, Note_on_c, 14, 52, 72
19, 111764, Note_on_c, 14, 52, 0
19, 111780, Note_on_c, 14, 64, 74
19, 111824, Note_on_c, 14, 64, 0
19, 111840, Note_on_c, 14, 64, 74
19, 111944, Note_on_c, 14, 64, 0
19, 111960, Note_on_c, 14, 61, 76
19, 112079, Note_on_c, 14, 61, 0
19, 112320, Note_on_c, 14, 45, 80
19, 112484, Note_on_c, 14, 45, 0
19, 112500, Note_on_c, 14, 57, 80
19, 112544, Note_on_c, 14, 57, 0
19, 112560, Note_on_c, 14, 57, 80
19, 112664, Note_on_c, 14, 57, 0
19, 113040, Note_on_c, 14, 46, 92
19, 113204, Note_on_c, 14, 46, 0
19, 113220, Note_on_c, 14, 58, 92
19, 113264, Note_on_c, 14, 58, 0
19, 113280, Note_on_c, 14, 58, 92
19, 113384, Note_on_c, 14, 58, 0
19, 113760, Note_on_c, 14, 47, 92
19, 113924, Note_on_c, 14, 47, 0
19, 113940, Note_on_c, 14, 59, 92
19, 113984, Note_on_c, 14, 59, 0
19, 114000, Note_on_c, 14, 59, 92
19, 114104, Note_on_c, 14, 59, 0
19, 114840, Program_c, 14, 45
19, 115200, Note_on_c, 14, 52, 40
19, 115319, Note_on_c, 14, 52, 0
19, 115560, Note_on_c, 14, 47, 40
19, 115679, Note_on_c, 14, 47, 0
19, 116280, Note_on_c, 14, 52, 40
19, 116399, Note_on_c, 14, 52, 0
19, 116640, Note_on_c, 14, 47, 40
19, 116759, Note_on_c, 14, 47, 0
19, 117360, Note_on_c, 14, 52, 40
19, 117479, Note_on_c, 14, 52, 0
19, 117720, Note_on_c, 14, 47, 40
19, 117839, Note_on_c, 14, 47, 0
19, 118440, Note_on_c, 14, 64, 40
19, 118559, Note_on_c, 14, 64, 0
19, 118800, Note_on_c, 14, 52, 40
19, 118919, Note_on_c, 14, 52, 0
19, 119520, Note_on_c, 14, 57, 40
19, 119639, Note_on_c, 14, 57, 0
19, 119880, Note_on_c, 14, 52, 40
19, 119999, Note_on_c, 14, 52, 0
19, 120600, Note_on_c, 14, 57, 40
19, 120719, Note_on_c, 14, 57, 0
19, 120960, Note_on_c, 14, 52, 40
19, 121079, Note_on_c, 14, 52, 0
19, 121680, Note_on_c, 14, 65, 40
19, 121799, Note_on_c, 14, 65, 0
19, 122040, Note_on_c, 14, 53, 40
19, 122159, Note_on_c, 14, 53, 0
19, 122760, Note_on_c, 14, 65, 40
19, 122879, Note_on_c, 14, 65, 0
19, 123120, Note_on_c, 14, 53, 40
19, 123239, Note_on_c, 14, 53, 0
19, 123840, Note_on_c, 14, 65, 40
19, 123959, Note_on_c, 14, 65, 0
19, 124200, Note_on_c, 14, 53, 40
19, 124319, Note_on_c, 14, 53, 0
19, 124920, Note_on_c, 14, 65, 40
19, 125039, Note_on_c, 14, 65, 0
19, 125280, Note_on_c, 14, 53, 40
19, 125399, Note_on_c, 14, 53, 0
19, 125640, Note_on_c, 14, 53, 40
19, 125759, Note_on_c, 14, 53, 0
19, 126000, Note_on_c, 14, 41, 40
19, 126119, Note_on_c, 14, 41, 0
19, 126360, Note_on_c, 14, 53, 40
19, 126479, Note_on_c, 14, 53, 0
19, 126600, Program_c, 14, 48
19, 126720, Note_on_c, 14, 60, 44
19, 126824, Note_on_c, 14, 60, 0
19, 126840, Note_on_c, 14, 60, 44
19, 126944, Note_on_c, 14, 60, 0
19, 126960, Note_on_c, 14, 60, 44
19, 127064, Note_on_c, 14, 60, 0
19, 127080, Note_on_c, 14, 60, 43
19, 127184, Note_on_c, 14, 60, 0
19, 127200, Note_on_c, 14, 60, 43
19, 127304, Note_on_c, 14, 60, 0
19, 127320, Note_on_c, 14, 60, 43
19, 127424, Note_on_c, 14, 60, 0
19, 127440, Note_on_c, 14, 60, 42
19, 127544, Note_on_c, 14, 60, 0
19, 127560, Note_on_c, 14, 60, 42
19, 127664, Note_on_c, 14, 60, 0
19, 127680, Note_on_c, 14, 60, 42
19, 127784, Note_on_c, 14, 60, 0
19, 127798, Program_c, 14, 45
19, 127800, Note_on_c, 14, 62, 37
19, 127919, Note_on_c, 14, 62, 0
19, 128160, Note_on_c, 14, 50, 36
19, 128279, Note_on_c, 14, 50, 0
19, 128520, Note_on_c, 14, 62, 35
19, 128639, Note_on_c, 14, 62, 0
19, 128880, Note_on_c, 14, 57, 34
19, 128999, Note_on_c, 14, 57, 0
19, 129240, Note_on_c, 14, 45, 33
19, 129359, Note_on_c, 14, 45, 0
19, 129600, Note_on_c, 14, 57, 32
19, 129719, Note_on_c, 14, 57, 0
19, 129960, Note_on_c, 14, 57, 31
19, 130079, Note_on_c, 14, 57, 0
19, 130320, Note_on_c, 14, 45, 30
19, 130439, Note_on_c, 14, 45, 0
19, 130680, Note_on_c, 14, 57, 29
19, 130799, Note_on_c, 14, 57, 0
19, 131040, Note_on_c, 14, 57, 28
19, 131159, Note_on_c, 14, 57, 0
19, 131400, Note_on_c, 14, 45, 28
19, 131519, Note_on_c, 14, 45, 0
19, 131760, Note_on_c, 14, 57, 28
19, 131879, Note_on_c, 14, 57, 0
19, 132120, Note_on_c, 14, 55, 28
19, 132239, Note_on_c, 14, 55, 0
19, 132240, Note_on_c, 14, 53, 28
19, 132359, Note_on_c, 14, 53, 0
19, 132360, Note_on_c, 14, 52, 28
19, 132479, Note_on_c, 14, 52, 0
19, 132480, Note_on_c, 14, 50, 28
19, 132599, Note_on_c, 14, 50, 0
19, 132840, Note_on_c, 14, 45, 28
19, 132959, Note_on_c, 14, 45, 0
19, 133560, Note_on_c, 14, 50, 28
19, 133679, Note_on_c, 14, 50, 0
19, 133920, Note_on_c, 14, 45, 28
19, 134039, Note_on_c, 14, 45, 0
19, 134640, Note_on_c, 14, 50, 28
19, 134759, Note_on_c, 14, 50, 0
19, 135000, Note_on_c, 14, 45, 28
19, 135119, Note_on_c, 14, 45, 0
19, 135240, Program_c, 14, 48
19, 135360, Note_on_c, 14, 57, 32
19, 135524, Note_on_c, 14, 57, 0
19, 135540, Note_on_c, 14, 45, 32
19, 135584, Note_on_c, 14, 45, 0
19, 135600, Note_on_c, 14, 45, 32
19, 135704, Note_on_c, 14, 45, 0
19, 135720, Note_on_c, 14, 69, 32
19, 135884, Note_on_c, 14, 69, 0
19, 135900, Note_on_c, 14, 57, 32
19, 135944, Note_on_c, 14, 57, 0
19, 135960, Note_on_c, 14, 57, 32
19, 136064, Note_on_c, 14, 57, 0
19, 136080, Note_on_c, 14, 61, 32
19, 136184, Note_on_c, 14, 61, 0
19, 136200, Note_on_c, 14, 62, 32
19, 136304, Note_on_c, 14, 62, 0
19, 136320, Note_on_c, 14, 64, 32
19, 136424, Note_on_c, 14, 64, 0
19, 136440, Note_on_c, 14, 69, 32
19, 136544, Note_on_c, 14, 69, 0
19, 136560, Note_on_c, 14, 67, 32
19, 136664, Note_on_c, 14, 67, 0
19, 136680, Note_on_c, 14, 65, 32
19, 136784, Note_on_c, 14, 65, 0
19, 136800, Note_on_c, 14, 65, 32
19, 136904, Note_on_c, 14, 65, 0
19, 136920, Note_on_c, 14, 63, 32
19, 137024, Note_on_c, 14, 63, 0
19, 137040, Note_on_c, 14, 59, 32
19, 137144, Note_on_c, 14, 59, 0
19, 137160, Note_on_c, 14, 60, 32
19, 137264, Note_on_c, 14, 60, 0
19, 137280, Note_on_c, 14, 65, 32
19, 137384, Note_on_c, 14, 65, 0
19, 137400, Note_on_c, 14, 63, 32
19, 137504, Note_on_c, 14, 63, 0
19, 137520, Note_on_c, 14, 65, 32
19, 137624, Note_on_c, 14, 65, 0
19, 137640, Note_on_c, 14, 63, 32
19, 137744, Note_on_c, 14, 63, 0
19, 137760, Note_on_c, 14, 67, 32
19, 137864, Note_on_c, 14, 67, 0
19, 137880, Note_on_c, 14, 67, 32
19, 137984, Note_on_c, 14, 67, 0
19, 138000, Note_on_c, 14, 65, 32
19, 138104, Note_on_c, 14, 65, 0
19, 138120, Note_on_c, 14, 63, 32
19, 138224, Note_on_c, 14, 63, 0
19, 138240, Note_on_c, 14, 68, 32
19, 138344, Note_on_c, 14, 68, 0
19, 138360, Note_on_c, 14, 67, 32
19, 138464, Note_on_c, 14, 67, 0
19, 138480, Note_on_c, 14, 65, 32
19, 138584, Note_on_c, 14, 65, 0
19, 138600, Note_on_c, 14, 67, 32
19, 138704, Note_on_c, 14, 67, 0
19, 138720, Note_on_c, 14, 58, 32
19, 138824, Note_on_c, 14, 58, 0
19, 138840, Note_on_c, 14, 58, 32
19, 138944, Note_on_c, 14, 58, 0
19, 138960, Note_on_c, 14, 65, 32
19, 139064, Note_on_c, 14, 65, 0
19, 139080, Note_on_c, 14, 63, 32
19, 139184, Note_on_c, 14, 63, 0
19, 139200, Note_on_c, 14, 62, 32
19, 139304, Note_on_c, 14, 62, 0
19, 139320, Note_on_c, 14, 58, 32
19, 139424, Note_on_c, 14, 58, 0
19, 139440, Note_on_c, 14, 56, 32
19, 139544, Note_on_c, 14, 56, 0
19, 139560, Note_on_c, 14, 55, 32
19, 139664, Note_on_c, 14, 55, 0
19, 139680, Note_on_c, 14, 62, 32
19, 139784, Note_on_c, 14, 62, 0
19, 139800, Note_on_c, 14, 63, 32
19, 139904, Note_on_c, 14, 63, 0
19, 139920, Note_on_c, 14, 58, 32
19, 140024, Note_on_c, 14, 58, 0
19, 140040, Note_on_c, 14, 58, 32
19, 140144, Note_on_c, 14, 58, 0
19, 140160, Note_on_c, 14, 56, 32
19, 140264, Note_on_c, 14, 56, 0
19, 140280, Note_on_c, 14, 55, 32
19, 140384, Note_on_c, 14, 55, 0
19, 140398, Control_c, 14, 11, 47
19, 140400, Note_on_c, 14, 46, 80
19, 141839, Note_on_c, 14, 46, 0
19, 141840, Note_on_c, 14, 46, 80
19, 143279, Note_on_c, 14, 46, 0
19, 143280, Control_c, 14, 11, 47
19, 143280, Note_on_c, 14, 46, 80
19, 143352, Control_c, 14, 11, 48
19, 143424, Control_c, 14, 11, 49
19, 143496, Control_c, 14, 11, 50
19, 143568, Control_c, 14, 11, 51
19, 143640, Control_c, 14, 11, 52
19, 143712, Control_c, 14, 11, 53
19, 143784, Control_c, 14, 11, 54
19, 143856, Control_c, 14, 11, 55
19, 143928, Control_c, 14, 11, 56
19, 144000, Control_c, 14, 11, 57
19, 144072, Control_c, 14, 11, 58
19, 144144, Control_c, 14, 11, 59
19, 144216, Control_c, 14, 11, 60
19, 144288, Control_c, 14, 11, 61
19, 144360, Control_c, 14, 11, 62
19, 144432, Control_c, 14, 11, 63
19, 144504, Control_c, 14, 11, 64
19, 144576, Control_c, 14, 11, 65
19, 144648, Control_c, 14, 11, 66
19, 144704, Note_on_c, 14, 46, 0
19, 144720, Control_c, 14, 11, 67
19, 144720, Note_on_c, 14, 45, 80
19, 144750, Control_c, 14, 11, 68
19, 144780, Control_c, 14, 11, 70
19, 144810, Control_c, 14, 11, 71
19, 144840, Control_c, 14, 11, 72
19, 144870, Control_c, 14, 11, 73
19, 144900, Control_c, 14, 11, 75
19, 144930, Control_c, 14, 11, 76
19, 144960, Control_c, 14, 11, 77
19, 144990, Control_c, 14, 11, 78
19, 145020, Control_c, 14, 11, 80
19, 145050, Control_c, 14, 11, 81
19, 145080, Control_c, 14, 11, 82
19, 145110, Control_c, 14, 11, 83
19, 145140, Control_c, 14, 11, 85
19, 145170, Control_c, 14, 11, 86
19, 145200, Control_c, 14, 11, 87
19, 145230, Control_c, 14, 11, 88
19, 145260, Control_c, 14, 11, 90
19, 145290, Control_c, 14, 11, 91
19, 145320, Control_c, 14, 11, 92
19, 145350, Control_c, 14, 11, 93
19, 145380, Control_c, 14, 11, 95
19, 145410, Control_c, 14, 11, 96
19, 145440, Control_c, 14, 11, 97
19, 145470, Control_c, 14, 11, 98
19, 145500, Control_c, 14, 11, 100
19, 145530, Control_c, 14, 11, 101
19, 145560, Control_c, 14, 11, 102
19, 145590, Control_c, 14, 11, 103
19, 145620, Control_c, 14, 11, 105
19, 145650, Control_c, 14, 11, 106
19, 145680, Control_c, 14, 11, 107
19, 145710, Control_c, 14, 11, 108
19, 145740, Control_c, 14, 11, 110
19, 145770, Control_c, 14, 11, 111
19, 145800, Control_c, 14, 11, 112
19, 145830, Control_c, 14, 11, 113
19, 145860, Control_c, 14, 11, 115
19, 145890, Control_c, 14, 11, 116
19, 145920, Control_c, 14, 11, 117
19, 145950, Control_c, 14, 11, 118
19, 145980, Control_c, 14, 11, 120
19, 146010, Control_c, 14, 11, 121
19, 146040, Control_c, 14, 11, 122
19, 146070, Control_c, 14, 11, 123
19, 146100, Control_c, 14, 11, 125
19, 146130, Control_c, 14, 11, 127
19, 146144, Note_on_c, 14, 45, 0
19, 146160, Note_on_c, 14, 45, 80
19, 146279, Note_on_c, 14, 45, 0
19, 146880, Note_on_c, 14, 45, 86
19, 146999, Note_on_c, 14, 45, 0
19, 147600, Note_on_c, 14, 38, 92
19, 147764, Note_on_c, 14, 38, 0
19, 147780, Note_on_c, 14, 50, 92
19, 147824, Note_on_c, 14, 50, 0
19, 147840, Note_on_c, 14, 50, 92
19, 147944, Note_on_c, 14, 50, 0
19, 147960, Note_on_c, 14, 38, 92
19, 148124, Note_on_c, 14, 38, 0
19, 148140, Note_on_c, 14, 50, 92
19, 148184, Note_on_c, 14, 50, 0
19, 148200, Note_on_c, 14, 50, 92
19, 148304, Note_on_c, 14, 50, 0
19, 148320, Note_on_c, 14, 38, 92
19, 148484, Note_on_c, 14, 38, 0
19, 148500, Note_on_c, 14, 50, 92
19, 148544, Note_on_c, 14, 50, 0
19, 148560, Note_on_c, 14, 50, 92
19, 148664, Note_on_c, 14, 50, 0
19, 148680, Note_on_c, 14, 38, 92
19, 148844, Note_on_c, 14, 38, 0
19, 148860, Note_on_c, 14, 50, 92
19, 148904, Note_on_c, 14, 50, 0
19, 148920, Note_on_c, 14, 50, 92
19, 149024, Note_on_c, 14, 50, 0
19, 149040, Note_on_c, 14, 38, 92
19, 149204, Note_on_c, 14, 38, 0
19, 149220, Note_on_c, 14, 50, 92
19, 149264, Note_on_c, 14, 50, 0
19, 149280, Note_on_c, 14, 50, 92
19, 149384, Note_on_c, 14, 50, 0
19, 149400, Note_on_c, 14, 38, 92
19, 149564, Note_on_c, 14, 38, 0
19, 149580, Note_on_c, 14, 50, 92
19, 149624, Note_on_c, 14, 50, 0
19, 149640, Note_on_c, 14, 50, 92
19, 149744, Note_on_c, 14, 50, 0
19, 149760, Note_on_c, 14, 38, 92
19, 149924, Note_on_c, 14, 38, 0
19, 149940, Note_on_c, 14, 50, 92
19, 149984, Note_on_c, 14, 50, 0
19, 150000, Note_on_c, 14, 50, 92
19, 150104, Note_on_c, 14, 50, 0
19, 150120, Note_on_c, 14, 38, 92
19, 150284, Note_on_c, 14, 38, 0
19, 150300, Note_on_c, 14, 50, 92
19, 150344, Note_on_c, 14, 50, 0
19, 150360, Note_on_c, 14, 50, 92
19, 150464, Note_on_c, 14, 50, 0
19, 150480, Note_on_c, 14, 38, 92
19, 150644, Note_on_c, 14, 38, 0
19, 150660, Note_on_c, 14, 50, 92
19, 150704, Note_on_c, 14, 50, 0
19, 150720, Note_on_c, 14, 50, 92
19, 150824, Note_on_c, 14, 50, 0
19, 150840, Note_on_c, 14, 38, 92
19, 151004, Note_on_c, 14, 38, 0
19, 151020, Note_on_c, 14, 50, 92
19, 151064, Note_on_c, 14, 50, 0
19, 151080, Note_on_c, 14, 50, 92
19, 151184, Note_on_c, 14, 50, 0
19, 151200, Note_on_c, 14, 38, 92
19, 151364, Note_on_c, 14, 38, 0
19, 151380, Note_on_c, 14, 50, 92
19, 151424, Note_on_c, 14, 50, 0
19, 151440, Note_on_c, 14, 50, 92
19, 151544, Note_on_c, 14, 50, 0
19, 151560, Note_on_c, 14, 38, 92
19, 151724, Note_on_c, 14, 38, 0
19, 151740, Note_on_c, 14, 50, 92
19, 151784, Note_on_c, 14, 50, 0
19, 151800, Note_on_c, 14, 50, 92
19, 151904, Note_on_c, 14, 50, 0
19, 151920, Note_on_c, 14, 38, 92
19, 152084, Note_on_c, 14, 38, 0
19, 152100, Note_on_c, 14, 50, 92
19, 152144, Note_on_c, 14, 50, 0
19, 152160, Note_on_c, 14, 50, 92
19, 152264, Note_on_c, 14, 50, 0
19, 152280, Note_on_c, 14, 38, 92
19, 152444, Note_on_c, 14, 38, 0
19, 152460, Note_on_c, 14, 50, 92
19, 152504, Note_on_c, 14, 50, 0
19, 152520, Note_on_c, 14, 50, 92
19, 152624, Note_on_c, 14, 50, 0
19, 152640, Note_on_c, 14, 38, 92
19, 152804, Note_on_c, 14, 38, 0
19, 152820, Note_on_c, 14, 50, 92
19, 152864, Note_on_c, 14, 50, 0
19, 152880, Note_on_c, 14, 50, 92
19, 152984, Note_on_c, 14, 50, 0
19, 153000, Note_on_c, 14, 38, 92
19, 153164, Note_on_c, 14, 38, 0
19, 153180, Note_on_c, 14, 50, 92
19, 153224, Note_on_c, 14, 50, 0
19, 153240, Note_on_c, 14, 50, 92
19, 153344, Note_on_c, 14, 50, 0
19, 153360, Note_on_c, 14, 63, 92
19, 153449, Note_on_c, 14, 63, 0
19, 153480, Note_on_c, 14, 62, 92
19, 153569, Note_on_c, 14, 62, 0
19, 153600, Note_on_c, 14, 60, 92
19, 153689, Note_on_c, 14, 60, 0
19, 153720, Note_on_c, 14, 58, 92
19, 153809, Note_on_c, 14, 58, 0
19, 153840, Note_on_c, 14, 57, 92
19, 153929, Note_on_c, 14, 57, 0
19, 153960, Note_on_c, 14, 55, 92
19, 154049, Note_on_c, 14, 55, 0
19, 154080, Note_on_c, 14, 54, 92
19, 154169, Note_on_c, 14, 54, 0
19, 154200, Note_on_c, 14, 55, 92
19, 154289, Note_on_c, 14, 55, 0
19, 154320, Note_on_c, 14, 57, 92
19, 154409, Note_on_c, 14, 57, 0
19, 154440, Note_on_c, 14, 55, 92
19, 154529, Note_on_c, 14, 55, 0
19, 154560, Note_on_c, 14, 57, 92
19, 154649, Note_on_c, 14, 57, 0
19, 154680, Note_on_c, 14, 58, 92
19, 154769, Note_on_c, 14, 58, 0
19, 154800, Note_on_c, 14, 63, 80
19, 154889, Note_on_c, 14, 63, 0
19, 154920, Note_on_c, 14, 62, 80
19, 155009, Note_on_c, 14, 62, 0
19, 155040, Note_on_c, 14, 60, 80
19, 155129, Note_on_c, 14, 60, 0
19, 155160, Note_on_c, 14, 58, 80
19, 155249, Note_on_c, 14, 58, 0
19, 155280, Note_on_c, 14, 57, 80
19, 155369, Note_on_c, 14, 57, 0
19, 155400, Note_on_c, 14, 55, 80
19, 155489, Note_on_c, 14, 55, 0
19, 155520, Note_on_c, 14, 65, 80
19, 155609, Note_on_c, 14, 65, 0
19, 155640, Note_on_c, 14, 63, 80
19, 155729, Note_on_c, 14, 63, 0
19, 155760, Note_on_c, 14, 62, 80
19, 155849, Note_on_c, 14, 62, 0
19, 155880, Note_on_c, 14, 60, 80
19, 155969, Note_on_c, 14, 60, 0
19, 156000, Note_on_c, 14, 58, 80
19, 156089, Note_on_c, 14, 58, 0
19, 156120, Note_on_c, 14, 57, 80
19, 156209, Note_on_c, 14, 57, 0
19, 156240, Note_on_c, 14, 67, 80
19, 156329, Note_on_c, 14, 67, 0
19, 156360, Note_on_c, 14, 65, 80
19, 156449, Note_on_c, 14, 65, 0
19, 156480, Note_on_c, 14, 63, 80
19, 156569, Note_on_c, 14, 63, 0
19, 156600, Note_on_c, 14, 62, 80
19, 156689, Note_on_c, 14, 62, 0
19, 156720, Note_on_c, 14, 60, 80
19, 156809, Note_on_c, 14, 60, 0
19, 156840, Note_on_c, 14, 58, 80
19, 156929, Note_on_c, 14, 58, 0
19, 156960, Note_on_c, 14, 57, 80
19, 157049, Note_on_c, 14, 57, 0
19, 157080, Note_on_c, 14, 55, 80
19, 157169, Note_on_c, 14, 55, 0
19, 157200, Note_on_c, 14, 53, 80
19, 157289, Note_on_c, 14, 53, 0
19, 157320, Note_on_c, 14, 51, 80
19, 157409, Note_on_c, 14, 51, 0
19, 157440, Note_on_c, 14, 50, 80
19, 157529, Note_on_c, 14, 50, 0
19, 157560, Note_on_c, 14, 48, 80
19, 157649, Note_on_c, 14, 48, 0
19, 157680, Note_on_c, 14, 46, 80
19, 157769, Note_on_c, 14, 46, 0
19, 157920, Program_c, 14, 45
19, 158040, Note_on_c, 14, 58, 40
19, 158159, Note_on_c, 14, 58, 0
19, 158400, Note_on_c, 14, 51, 40
19, 158519, Note_on_c, 14, 51, 0
19, 158760, Note_on_c, 14, 48, 40
19, 158879, Note_on_c, 14, 48, 0
19, 159120, Note_on_c, 14, 53, 40
19, 159239, Note_on_c, 14, 53, 0
19, 159480, Note_on_c, 14, 46, 40
19, 159599, Note_on_c, 14, 46, 0
19, 159840, Note_on_c, 14, 53, 40
19, 159959, Note_on_c, 14, 53, 0
19, 160200, Note_on_c, 14, 41, 40
19, 160319, Note_on_c, 14, 41, 0
19, 163800, Control_c, 14, 11, 87
19, 163800, Program_c, 14, 48
19, 164160, Note_on_c, 14, 57, 68
19, 164520, Control_c, 14, 11, 87
19, 164556, Control_c, 14, 11, 88
19, 164592, Control_c, 14, 11, 89
19, 164628, Control_c, 14, 11, 90
19, 164664, Control_c, 14, 11, 91
19, 164700, Control_c, 14, 11, 92
19, 164736, Control_c, 14, 11, 93
19, 164772, Control_c, 14, 11, 94
19, 164808, Control_c, 14, 11, 95
19, 164844, Control_c, 14, 11, 96
19, 164880, Control_c, 14, 11, 97
19, 164916, Control_c, 14, 11, 98
19, 164952, Control_c, 14, 11, 99
19, 164988, Control_c, 14, 11, 100
19, 165024, Control_c, 14, 11, 101
19, 165060, Control_c, 14, 11, 102
19, 165096, Control_c, 14, 11, 103
19, 165132, Control_c, 14, 11, 104
19, 165168, Control_c, 14, 11, 105
19, 165204, Control_c, 14, 11, 106
19, 165239, Note_on_c, 14, 57, 0
19, 165240, Control_c, 14, 11, 107
19, 165240, Note_on_c, 14, 55, 68
19, 165276, Control_c, 14, 11, 108
19, 165312, Control_c, 14, 11, 109
19, 165348, Control_c, 14, 11, 110
19, 165384, Control_c, 14, 11, 111
19, 165420, Control_c, 14, 11, 112
19, 165456, Control_c, 14, 11, 113
19, 165492, Control_c, 14, 11, 114
19, 165528, Control_c, 14, 11, 115
19, 165564, Control_c, 14, 11, 116
19, 165600, Control_c, 14, 11, 117
19, 165636, Control_c, 14, 11, 118
19, 165672, Control_c, 14, 11, 119
19, 165708, Control_c, 14, 11, 120
19, 165744, Control_c, 14, 11, 121
19, 165780, Control_c, 14, 11, 122
19, 165816, Control_c, 14, 11, 123
19, 165852, Control_c, 14, 11, 124
19, 165888, Control_c, 14, 11, 125
19, 165924, Control_c, 14, 11, 126
19, 165959, Note_on_c, 14, 55, 0
19, 165960, Control_c, 14, 11, 127
19, 165960, Note_on_c, 14, 54, 68
19, 165990, Control_c, 14, 11, 126
19, 166020, Control_c, 14, 11, 125
19, 166050, Control_c, 14, 11, 124
19, 166080, Control_c, 14, 11, 123
19, 166110, Control_c, 14, 11, 121
19, 166140, Control_c, 14, 11, 120
19, 166170, Control_c, 14, 11, 119
19, 166200, Control_c, 14, 11, 118
19, 166230, Control_c, 14, 11, 117
19, 166260, Control_c, 14, 11, 116
19, 166290, Control_c, 14, 11, 115
19, 166319, Note_on_c, 14, 54, 0
19, 166320, Note_on_c, 14, 53, 68
19, 166320, Control_c, 14, 11, 114
19, 166350, Control_c, 14, 11, 113
19, 166380, Control_c, 14, 11, 111
19, 166410, Control_c, 14, 11, 110
19, 166440, Control_c, 14, 11, 109
19, 166470, Control_c, 14, 11, 108
19, 166500, Control_c, 14, 11, 107
19, 166530, Control_c, 14, 11, 106
19, 166560, Control_c, 14, 11, 105
19, 166590, Control_c, 14, 11, 104
19, 166620, Control_c, 14, 11, 103
19, 166650, Control_c, 14, 11, 101
19, 166679, Note_on_c, 14, 53, 0
19, 166680, Note_on_c, 14, 52, 68
19, 166680, Control_c, 14, 11, 100
19, 166710, Control_c, 14, 11, 99
19, 166740, Control_c, 14, 11, 98
19, 166770, Control_c, 14, 11, 97
19, 166800, Control_c, 14, 11, 96
19, 166830, Control_c, 14, 11, 95
19, 166860, Control_c, 14, 11, 94
19, 166890, Control_c, 14, 11, 93
19, 166920, Control_c, 14, 11, 91
19, 166950, Control_c, 14, 11, 90
19, 166980, Control_c, 14, 11, 89
19, 167010, Control_c, 14, 11, 88
19, 167024, Note_on_c, 14, 52, 0
19, 167038, Control_c, 14, 11, 47
19, 167040, Control_c, 14, 11, 47
19, 167040, Note_on_c, 14, 57, 92
19, 167076, Control_c, 14, 11, 48
19, 167112, Control_c, 14, 11, 49
19, 167148, Control_c, 14, 11, 50
19, 167184, Control_c, 14, 11, 51
19, 167204, Note_on_c, 14, 57, 0
19, 167220, Control_c, 14, 11, 52
19, 167220, Note_on_c, 14, 45, 92
19, 167256, Control_c, 14, 11, 53
19, 167264, Note_on_c, 14, 45, 0
19, 167280, Note_on_c, 14, 45, 92
19, 167292, Control_c, 14, 11, 54
19, 167328, Control_c, 14, 11, 55
19, 167364, Control_c, 14, 11, 56
19, 167384, Note_on_c, 14, 45, 0
19, 167400, Note_on_c, 14, 57, 92
19, 167400, Control_c, 14, 11, 57
19, 167436, Control_c, 14, 11, 58
19, 167472, Control_c, 14, 11, 59
19, 167508, Control_c, 14, 11, 60
19, 167544, Control_c, 14, 11, 61
19, 167564, Note_on_c, 14, 57, 0
19, 167580, Note_on_c, 14, 45, 92
19, 167580, Control_c, 14, 11, 62
19, 167616, Control_c, 14, 11, 63
19, 167624, Note_on_c, 14, 45, 0
19, 167640, Note_on_c, 14, 45, 92
19, 167652, Control_c, 14, 11, 64
19, 167688, Control_c, 14, 11, 65
19, 167724, Control_c, 14, 11, 66
19, 167744, Note_on_c, 14, 45, 0
19, 167760, Note_on_c, 14, 59, 92
19, 167760, Control_c, 14, 11, 67
19, 167796, Control_c, 14, 11, 68
19, 167832, Control_c, 14, 11, 69
19, 167868, Control_c, 14, 11, 70
19, 167904, Control_c, 14, 11, 71
19, 167924, Note_on_c, 14, 59, 0
19, 167940, Control_c, 14, 11, 72
19, 167940, Note_on_c, 14, 47, 92
19, 167976, Control_c, 14, 11, 73
19, 167984, Note_on_c, 14, 47, 0
19, 168000, Note_on_c, 14, 47, 92
19, 168012, Control_c, 14, 11, 74
19, 168048, Control_c, 14, 11, 75
19, 168084, Control_c, 14, 11, 76
19, 168104, Note_on_c, 14, 47, 0
19, 168120, Note_on_c, 14, 64, 92
19, 168120, Control_c, 14, 11, 77
19, 168156, Control_c, 14, 11, 78
19, 168192, Control_c, 14, 11, 79
19, 168228, Control_c, 14, 11, 80
19, 168264, Control_c, 14, 11, 81
19, 168284, Note_on_c, 14, 64, 0
19, 168300, Note_on_c, 14, 52, 92
19, 168300, Control_c, 14, 11, 82
19, 168336, Control_c, 14, 11, 83
19, 168344, Note_on_c, 14, 52, 0
19, 168360, Note_on_c, 14, 52, 92
19, 168372, Control_c, 14, 11, 84
19, 168408, Control_c, 14, 11, 85
19, 168444, Control_c, 14, 11, 86
19, 168464, Note_on_c, 14, 52, 0
19, 168480, Note_on_c, 14, 61, 92
19, 168480, Control_c, 14, 11, 87
19, 168516, Control_c, 14, 11, 88
19, 168552, Control_c, 14, 11, 89
19, 168588, Control_c, 14, 11, 90
19, 168624, Control_c, 14, 11, 91
19, 168644, Note_on_c, 14, 61, 0
19, 168660, Note_on_c, 14, 49, 92
19, 168660, Control_c, 14, 11, 92
19, 168696, Control_c, 14, 11, 93
19, 168704, Note_on_c, 14, 49, 0
19, 168720, Note_on_c, 14, 49, 92
19, 168732, Control_c, 14, 11, 94
19, 168768, Control_c, 14, 11, 95
19, 168804, Control_c, 14, 11, 96
19, 168824, Note_on_c, 14, 49, 0
19, 168840, Note_on_c, 14, 62, 92
19, 168840, Control_c, 14, 11, 97
19, 168876, Control_c, 14, 11, 98
19, 168912, Control_c, 14, 11, 99
19, 168948, Control_c, 14, 11, 100
19, 168984, Control_c, 14, 11, 101
19, 169004, Note_on_c, 14, 62, 0
19, 169020, Note_on_c, 14, 50, 92
19, 169020, Control_c, 14, 11, 102
19, 169056, Control_c, 14, 11, 103
19, 169064, Note_on_c, 14, 50, 0
19, 169080, Note_on_c, 14, 50, 92
19, 169092, Control_c, 14, 11, 104
19, 169128, Control_c, 14, 11, 105
19, 169164, Control_c, 14, 11, 106
19, 169184, Note_on_c, 14, 50, 0
19, 169200, Control_c, 14, 11, 107
19, 169200, Note_on_c, 14, 62, 92
19, 169236, Control_c, 14, 11, 108
19, 169272, Control_c, 14, 11, 109
19, 169308, Control_c, 14, 11, 110
19, 169344, Control_c, 14, 11, 111
19, 169364, Note_on_c, 14, 62, 0
19, 169380, Note_on_c, 14, 50, 92
19, 169380, Control_c, 14, 11, 112
19, 169416, Control_c, 14, 11, 113
19, 169424, Note_on_c, 14, 50, 0
19, 169440, Note_on_c, 14, 50, 92
19, 169452, Control_c, 14, 11, 114
19, 169488, Control_c, 14, 11, 115
19, 169524, Control_c, 14, 11, 116
19, 169544, Note_on_c, 14, 50, 0
19, 169560, Note_on_c, 14, 69, 92
19, 169560, Control_c, 14, 11, 117
19, 169596, Control_c, 14, 11, 118
19, 169632, Control_c, 14, 11, 119
19, 169668, Control_c, 14, 11, 120
19, 169704, Control_c, 14, 11, 121
19, 169724, Note_on_c, 14, 69, 0
19, 169740, Control_c, 14, 11, 122
19, 169740, Note_on_c, 14, 57, 92
19, 169776, Control_c, 14, 11, 123
19, 169784, Note_on_c, 14, 57, 0
19, 169800, Note_on_c, 14, 57, 92
19, 169812, Control_c, 14, 11, 124
19, 169848, Control_c, 14, 11, 125
19, 169884, Control_c, 14, 11, 127
19, 169904, Note_on_c, 14, 57, 0
19, 169920, Note_on_c, 14, 62, 92
19, 170084, Note_on_c, 14, 62, 0
19, 170100, Note_on_c, 14, 50, 92
19, 170144, Note_on_c, 14, 50, 0
19, 170160, Note_on_c, 14, 50, 92
19, 170264, Note_on_c, 14, 50, 0
19, 170280, Note_on_c, 14, 62, 92
19, 170444, Note_on_c, 14, 62, 0
19, 170460, Note_on_c, 14, 50, 92
19, 170504, Note_on_c, 14, 50, 0
19, 170520, Note_on_c, 14, 50, 92
19, 170624, Note_on_c, 14, 50, 0
19, 170640, Note_on_c, 14, 62, 92
19, 170804, Note_on_c, 14, 62, 0
19, 170820, Note_on_c, 14, 50, 92
19, 170864, Note_on_c, 14, 50, 0
19, 170880, Note_on_c, 14, 50, 92
19, 170984, Note_on_c, 14, 50, 0
19, 171000, Note_on_c, 14, 62, 92
19, 171164, Note_on_c, 14, 62, 0
19, 171180, Note_on_c, 14, 50, 92
19, 171224, Note_on_c, 14, 50, 0
19, 171240, Note_on_c, 14, 50, 92
19, 171344, Note_on_c, 14, 50, 0
19, 171360, Note_on_c, 14, 62, 92
19, 171524, Note_on_c, 14, 62, 0
19, 171540, Note_on_c, 14, 50, 92
19, 171584, Note_on_c, 14, 50, 0
19, 171600, Note_on_c, 14, 50, 92
19, 171704, Note_on_c, 14, 50, 0
19, 171720, Note_on_c, 14, 62, 92
19, 171884, Note_on_c, 14, 62, 0
19, 171900, Note_on_c, 14, 50, 92
19, 171944, Note_on_c, 14, 50, 0
19, 171960, Note_on_c, 14, 50, 92
19, 172064, Note_on_c, 14, 50, 0
19, 172080, Note_on_c, 14, 62, 92
19, 172244, Note_on_c, 14, 62, 0
19, 172260, Note_on_c, 14, 50, 92
19, 172304, Note_on_c, 14, 50, 0
19, 172320, Note_on_c, 14, 50, 92
19, 172424, Note_on_c, 14, 50, 0
19, 172440, Note_on_c, 14, 62, 92
19, 172604, Note_on_c, 14, 62, 0
19, 172620, Note_on_c, 14, 50, 92
19, 172664, Note_on_c, 14, 50, 0
19, 172680, Note_on_c, 14, 50, 92
19, 172784, Note_on_c, 14, 50, 0
19, 172800, Note_on_c, 14, 62, 92
19, 172964, Note_on_c, 14, 62, 0
19, 172980, Note_on_c, 14, 50, 92
19, 173024, Note_on_c, 14, 50, 0
19, 173040, Note_on_c, 14, 50, 92
19, 173144, Note_on_c, 14, 50, 0
19, 173160, Note_on_c, 14, 62, 92
19, 173324, Note_on_c, 14, 62, 0
19, 173340, Note_on_c, 14, 50, 92
19, 173384, Note_on_c, 14, 50, 0
19, 173400, Note_on_c, 14, 50, 92
19, 173504, Note_on_c, 14, 50, 0
19, 173520, Note_on_c, 14, 62, 92
19, 173684, Note_on_c, 14, 62, 0
19, 173700, Note_on_c, 14, 50, 92
19, 173744, Note_on_c, 14, 50, 0
19, 173760, Note_on_c, 14, 50, 92
19, 173864, Note_on_c, 14, 50, 0
19, 173880, Note_on_c, 14, 62, 92
19, 174044, Note_on_c, 14, 62, 0
19, 174060, Note_on_c, 14, 50, 92
19, 174104, Note_on_c, 14, 50, 0
19, 174120, Note_on_c, 14, 50, 92
19, 174224, Note_on_c, 14, 50, 0
19, 174240, Note_on_c, 14, 62, 92
19, 174404, Note_on_c, 14, 62, 0
19, 174420, Note_on_c, 14, 50, 92
19, 174464, Note_on_c, 14, 50, 0
19, 174480, Note_on_c, 14, 50, 92
19, 174584, Note_on_c, 14, 50, 0
19, 174600, Note_on_c, 14, 62, 92
19, 174764, Note_on_c, 14, 62, 0
19, 174780, Note_on_c, 14, 50, 92
19, 174824, Note_on_c, 14, 50, 0
19, 174840, Note_on_c, 14, 50, 92
19, 174944, Note_on_c, 14, 50, 0
19, 174960, Note_on_c, 14, 62, 92
19, 175124, Note_on_c, 14, 62, 0
19, 175140, Note_on_c, 14, 50, 92
19, 175184, Note_on_c, 14, 50, 0
19, 175200, Note_on_c, 14, 50, 92
19, 175304, Note_on_c, 14, 50, 0
19, 175320, Note_on_c, 14, 62, 92
19, 175484, Note_on_c, 14, 62, 0
19, 175500, Note_on_c, 14, 50, 92
19, 175544, Note_on_c, 14, 50, 0
19, 175560, Note_on_c, 14, 50, 92
19, 175664, Note_on_c, 14, 50, 0
19, 175680, Note_on_c, 14, 62, 92
19, 175799, Note_on_c, 14, 62, 0
19, 176400, Note_on_c, 14, 55, 92
19, 176564, Note_on_c, 14, 55, 0
19, 176580, Note_on_c, 14, 43, 92
19, 176624, Note_on_c, 14, 43, 0
19, 176640, Note_on_c, 14, 43, 92
19, 176744, Note_on_c, 14, 43, 0
19, 176760, Note_on_c, 14, 43, 92
19, 176864, Note_on_c, 14, 43, 0
19, 176880, Note_on_c, 14, 40, 92
19, 176984, Note_on_c, 14, 40, 0
19, 177000, Note_on_c, 14, 38, 92
19, 177104, Note_on_c, 14, 38, 0
19, 177120, Note_on_c, 14, 36, 92
19, 177120, Note_on_c, 14, 48, 92
19, 177239, Note_on_c, 14, 36, 0
19, 177239, Note_on_c, 14, 48, 0
19, 177840, Note_on_c, 14, 65, 92
19, 178004, Note_on_c, 14, 65, 0
19, 178020, Note_on_c, 14, 53, 92
19, 178064, Note_on_c, 14, 53, 0
19, 178080, Note_on_c, 14, 53, 92
19, 178184, Note_on_c, 14, 53, 0
19, 178200, Note_on_c, 14, 53, 92
19, 178304, Note_on_c, 14, 53, 0
19, 178320, Note_on_c, 14, 50, 92
19, 178424, Note_on_c, 14, 50, 0
19, 178440, Note_on_c, 14, 48, 92
19, 178544, Note_on_c, 14, 48, 0
19, 178558, Control_c, 14, 11, 87
19, 178560, Note_on_c, 14, 48, 68
19, 178784, Note_on_c, 14, 48, 0
19, 178800, Note_on_c, 14, 60, 68
19, 178904, Note_on_c, 14, 60, 0
19, 178920, Note_on_c, 14, 58, 68
19, 179280, Control_c, 14, 11, 87
19, 179310, Control_c, 14, 11, 88
19, 179340, Control_c, 14, 11, 89
19, 179370, Control_c, 14, 11, 90
19, 179400, Control_c, 14, 11, 91
19, 179430, Control_c, 14, 11, 93
19, 179460, Control_c, 14, 11, 94
19, 179490, Control_c, 14, 11, 95
19, 179520, Control_c, 14, 11, 96
19, 179550, Control_c, 14, 11, 97
19, 179580, Control_c, 14, 11, 98
19, 179610, Control_c, 14, 11, 99
19, 179640, Control_c, 14, 11, 100
19, 179670, Control_c, 14, 11, 101
19, 179700, Control_c, 14, 11, 103
19, 179730, Control_c, 14, 11, 104
19, 179759, Note_on_c, 14, 58, 0
19, 179760, Control_c, 14, 11, 105
19, 179760, Note_on_c, 14, 56, 68
19, 179790, Control_c, 14, 11, 106
19, 179820, Control_c, 14, 11, 107
19, 179850, Control_c, 14, 11, 108
19, 179879, Note_on_c, 14, 56, 0
19, 179880, Note_on_c, 14, 55, 68
19, 179880, Control_c, 14, 11, 109
19, 179910, Control_c, 14, 11, 110
19, 179940, Control_c, 14, 11, 111
19, 179970, Control_c, 14, 11, 113
19, 179984, Note_on_c, 14, 55, 0
19, 180000, Note_on_c, 14, 55, 68
19, 180000, Control_c, 14, 11, 114
19, 180030, Control_c, 14, 11, 115
19, 180060, Control_c, 14, 11, 116
19, 180090, Control_c, 14, 11, 117
19, 180120, Control_c, 14, 11, 118
19, 180150, Control_c, 14, 11, 119
19, 180180, Control_c, 14, 11, 120
19, 180210, Control_c, 14, 11, 121
19, 180240, Control_c, 14, 11, 123
19, 180270, Control_c, 14, 11, 124
19, 180300, Control_c, 14, 11, 125
19, 180330, Control_c, 14, 11, 126
19, 180344, Note_on_c, 14, 55, 0
19, 180360, Control_c, 14, 11, 127
19, 180360, Note_on_c, 14, 57, 68
19, 180390, Control_c, 14, 11, 124
19, 180420, Control_c, 14, 11, 120
19, 180450, Control_c, 14, 11, 117
19, 180480, Control_c, 14, 11, 114
19, 180510, Control_c, 14, 11, 110
19, 180540, Control_c, 14, 11, 107
19, 180570, Control_c, 14, 11, 104
19, 180600, Control_c, 14, 11, 100
19, 180630, Control_c, 14, 11, 97
19, 180660, Control_c, 14, 11, 94
19, 180690, Control_c, 14, 11, 90
19, 180719, Note_on_c, 14, 57, 0
19, 180720, Control_c, 14, 11, 87
19, 182520, Control_c, 14, 11, 127
19, 182880, Note_on_c, 14, 62, 80
19, 182969, Note_on_c, 14, 62, 0
19, 183000, Note_on_c, 14, 58, 80
19, 183089, Note_on_c, 14, 58, 0
19, 183120, Note_on_c, 14, 55, 80
19, 183209, Note_on_c, 14, 55, 0
19, 183240, Note_on_c, 14, 56, 80
19, 183329, Note_on_c, 14, 56, 0
19, 183360, Note_on_c, 14, 57, 80
19, 183449, Note_on_c, 14, 57, 0
19, 183480, Note_on_c, 14, 45, 80
19, 183569, Note_on_c, 14, 45, 0
19, 183600, Note_on_c, 14, 50, 80
19, 183689, Note_on_c, 14, 50, 0
19, 184320, Note_on_c, 14, 57, 80
19, 184409, Note_on_c, 14, 57, 0
19, 184440, Note_on_c, 14, 53, 80
19, 184529, Note_on_c, 14, 53, 0
19, 184560, Note_on_c, 14, 58, 80
19, 184649, Note_on_c, 14, 58, 0
19, 184680, Note_on_c, 14, 55, 80
19, 184769, Note_on_c, 14, 55, 0
19, 184800, Note_on_c, 14, 52, 80
19, 184889, Note_on_c, 14, 52, 0
19, 184920, Note_on_c, 14, 57, 80
19, 185009, Note_on_c, 14, 57, 0
19, 185040, Note_on_c, 14, 50, 80
19, 185159, Note_on_c, 14, 50, 0
19, 185400, Note_on_c, 14, 57, 80
19, 185564, Note_on_c, 14, 57, 0
19, 185580, Note_on_c, 14, 45, 80
19, 185624, Note_on_c, 14, 45, 0
19, 185640, Note_on_c, 14, 45, 80
19, 185744, Note_on_c, 14, 45, 0
19, 185760, Note_on_c, 14, 38, 80
19, 185879, Note_on_c, 14, 38, 0
19, 186120, Note_on_c, 14, 57, 80
19, 186284, Note_on_c, 14, 57, 0
19, 186300, Note_on_c, 14, 45, 80
19, 186344, Note_on_c, 14, 45, 0
19, 186360, Note_on_c, 14, 45, 80
19, 186464, Note_on_c, 14, 45, 0
19, 186480, Note_on_c, 14, 45, 32
19, 186584, Note_on_c, 14, 45, 0
19, 186600, Note_on_c, 14, 45, 32
19, 186704, Note_on_c, 14, 45, 0
19, 186720, Note_on_c, 14, 45, 32
19, 186824, Note_on_c, 14, 45, 0
19, 186840, Note_on_c, 14, 45, 32
19, 186944, Note_on_c, 14, 45, 0
19, 186960, Note_on_c, 14, 45, 32
19, 187064, Note_on_c, 14, 45, 0
19, 187080, Note_on_c, 14, 45, 32
19, 187184, Note_on_c, 14, 45, 0
19, 187200, Note_on_c, 14, 45, 32
19, 187304, Note_on_c, 14, 45, 0
19, 187320, Note_on_c, 14, 45, 32
19, 187424, Note_on_c, 14, 45, 0
19, 187440, Note_on_c, 14, 45, 32
19, 187544, Note_on_c, 14, 45, 0
19, 187560, Note_on_c, 14, 45, 32
19, 187664, Note_on_c, 14, 45, 0
19, 187680, Note_on_c, 14, 45, 32
19, 187784, Note_on_c, 14, 45, 0
19, 187800, Note_on_c, 14, 45, 32
19, 187904, Note_on_c, 14, 45, 0
19, 187920, Note_on_c, 14, 50, 32
19, 188084, Note_on_c, 14, 50, 0
19, 188100, Note_on_c, 14, 62, 32
19, 188144, Note_on_c, 14, 62, 0
19, 188160, Note_on_c, 14, 62, 32
19, 188264, Note_on_c, 14, 62, 0
19, 188280, Note_on_c, 14, 57, 32
19, 188399, Note_on_c, 14, 57, 0
19, 188640, Note_on_c, 14, 41, 32
19, 188804, Note_on_c, 14, 41, 0
19, 188820, Note_on_c, 14, 53, 32
19, 188864, Note_on_c, 14, 53, 0
19, 188880, Note_on_c, 14, 53, 32
19, 188984, Note_on_c, 14, 53, 0
19, 189000, Note_on_c, 14, 50, 32
19, 189119, Note_on_c, 14, 50, 0
19, 190800, Note_on_c, 14, 50, 32
19, 190964, Note_on_c, 14, 50, 0
19, 190980, Note_on_c, 14, 62, 32
19, 191024, Note_on_c, 14, 62, 0
19, 191040, Note_on_c, 14, 62, 32
19, 191144, Note_on_c, 14, 62, 0
19, 191160, Note_on_c, 14, 58, 32
19, 191279, Note_on_c, 14, 58, 0
19, 191520, Note_on_c, 14, 41, 32
19, 191684, Note_on_c, 14, 41, 0
19, 191700, Note_on_c, 14, 53, 32
19, 191744, Note_on_c, 14, 53, 0
19, 191760, Note_on_c, 14, 53, 32
19, 191864, Note_on_c, 14, 53, 0
19, 191880, Note_on_c, 14, 50, 32
19, 191999, Note_on_c, 14, 50, 0
19, 192240, Note_on_c, 14, 46, 32
19, 192404, Note_on_c, 14, 46, 0
19, 192420, Note_on_c, 14, 58, 32
19, 192464, Note_on_c, 14, 58, 0
19, 192480, Note_on_c, 14, 58, 32
19, 192584, Note_on_c, 14, 58, 0
19, 192600, Note_on_c, 14, 53, 32
19, 192719, Note_on_c, 14, 53, 0
19, 192960, Note_on_c, 14, 50, 32
19, 193124, Note_on_c, 14, 50, 0
19, 193140, Note_on_c, 14, 62, 32
19, 193184, Note_on_c, 14, 62, 0
19, 193200, Note_on_c, 14, 62, 32
19, 193304, Note_on_c, 14, 62, 0
19, 193320, Note_on_c, 14, 63, 32
19, 193439, Note_on_c, 14, 63, 0
19, 195120, Note_on_c, 14, 51, 32
19, 195284, Note_on_c, 14, 51, 0
19, 195300, Note_on_c, 14, 63, 34
19, 195344, Note_on_c, 14, 63, 0
19, 195360, Note_on_c, 14, 63, 34
19, 195464, Note_on_c, 14, 63, 0
19, 195480, Note_on_c, 14, 60, 36
19, 195599, Note_on_c, 14, 60, 0
19, 195840, Note_on_c, 14, 44, 40
19, 196004, Note_on_c, 14, 44, 0
19, 196020, Note_on_c, 14, 56, 42
19, 196064, Note_on_c, 14, 56, 0
19, 196080, Note_on_c, 14, 56, 42
19, 196184, Note_on_c, 14, 56, 0
19, 196200, Note_on_c, 14, 53, 44
19, 196319, Note_on_c, 14, 53, 0
19, 196560, Note_on_c, 14, 49, 48
19, 196724, Note_on_c, 14, 49, 0
19, 196740, Note_on_c, 14, 61, 50
19, 196784, Note_on_c, 14, 61, 0
19, 196800, Note_on_c, 14, 61, 50
19, 196904, Note_on_c, 14, 61, 0
19, 196920, Note_on_c, 14, 58, 52
19, 197039, Note_on_c, 14, 58, 0
19, 197280, Note_on_c, 14, 42, 56
19, 197444, Note_on_c, 14, 42, 0
19, 197460, Note_on_c, 14, 54, 58
19, 197504, Note_on_c, 14, 54, 0
19, 197520, Note_on_c, 14, 54, 58
19, 197624, Note_on_c, 14, 54, 0
19, 197640, Note_on_c, 14, 51, 60
19, 197759, Note_on_c, 14, 51, 0
19, 198000, Note_on_c, 14, 47, 64
19, 198164, Note_on_c, 14, 47, 0
19, 198180, Note_on_c, 14, 59, 66
19, 198224, Note_on_c, 14, 59, 0
19, 198240, Note_on_c, 14, 59, 66
19, 198344, Note_on_c, 14, 59, 0
19, 198360, Note_on_c, 14, 56, 68
19, 198479, Note_on_c, 14, 56, 0
19, 198720, Note_on_c, 14, 52, 72
19, 198884, Note_on_c, 14, 52, 0
19, 198900, Note_on_c, 14, 64, 74
19, 198944, Note_on_c, 14, 64, 0
19, 198960, Note_on_c, 14, 64, 74
19, 199064, Note_on_c, 14, 64, 0
19, 199080, Note_on_c, 14, 61, 76
19, 199199, Note_on_c, 14, 61, 0
19, 199440, Note_on_c, 14, 45, 80
19, 199604, Note_on_c, 14, 45, 0
19, 199620, Note_on_c, 14, 57, 80
19, 199664, Note_on_c, 14, 57, 0
19, 199680, Note_on_c, 14, 57, 80
19, 199784, Note_on_c, 14, 57, 0
19, 200160, Note_on_c, 14, 46, 92
19, 200324, Note_on_c, 14, 46, 0
19, 200340, Note_on_c, 14, 58, 92
19, 200384, Note_on_c, 14, 58, 0
19, 200400, Note_on_c, 14, 58, 92
19, 200504, Note_on_c, 14, 58, 0
19, 200880, Note_on_c, 14, 47, 92
19, 201044, Note_on_c, 14, 47, 0
19, 201060, Note_on_c, 14, 59, 92
19, 201104, Note_on_c, 14, 59, 0
19, 201120, Note_on_c, 14, 59, 92
19, 201224, Note_on_c, 14, 59, 0
19, 201960, Program_c, 14, 45
19, 202320, Note_on_c, 14, 52, 40
19, 202439, Note_on_c, 14, 52, 0
19, 202680, Note_on_c, 14, 47, 40
19, 202799, Note_on_c, 14, 47, 0
19, 203400, Note_on_c, 14, 52, 40
19, 203519, Note_on_c, 14, 52, 0
19, 203760, Note_on_c, 14, 47, 40
19, 203879, Note_on_c, 14, 47, 0
19, 204480, Note_on_c, 14, 52, 40
19, 204599, Note_on_c, 14, 52, 0
19, 204840, Note_on_c, 14, 47, 40
19, 204959, Note_on_c, 14, 47, 0
19, 205560, Note_on_c, 14, 64, 40
19, 205679, Note_on_c, 14, 64, 0
19, 205920, Note_on_c, 14, 52, 40
19, 206039, Note_on_c, 14, 52, 0
19, 206640, Note_on_c, 14, 57, 40
19, 206759, Note_on_c, 14, 57, 0
19, 207000, Note_on_c, 14, 52, 40
19, 207119, Note_on_c, 14, 52, 0
19, 207720, Note_on_c, 14, 57, 40
19, 207839, Note_on_c, 14, 57, 0
19, 208080, Note_on_c, 14, 52, 40
19, 208199, Note_on_c, 14, 52, 0
19, 208800, Note_on_c, 14, 65, 40
19, 208919, Note_on_c, 14, 65, 0
19, 209160, Note_on_c, 14, 53, 40
19, 209279, Note_on_c, 14, 53, 0
19, 209880, Note_on_c, 14, 65, 40
19, 209999, Note_on_c, 14, 65, 0
19, 210240, Note_on_c, 14, 53, 40
19, 210359, Note_on_c, 14, 53, 0
19, 210960, Note_on_c, 14, 65, 40
19, 211079, Note_on_c, 14, 65, 0
19, 211320, Note_on_c, 14, 53, 40
19, 211439, Note_on_c, 14, 53, 0
19, 212040, Note_on_c, 14, 65, 40
19, 212159, Note_on_c, 14, 65, 0
19, 212400, Note_on_c, 14, 53, 40
19, 212519, Note_on_c, 14, 53, 0
19, 212760, Note_on_c, 14, 53, 40
19, 212879, Note_on_c, 14, 53, 0
19, 213120, Note_on_c, 14, 41, 40
19, 213239, Note_on_c, 14, 41, 0
19, 213480, Note_on_c, 14, 53, 40
19, 213599, Note_on_c, 14, 53, 0
19, 213720, Program_c, 14, 48
19, 213840, Note_on_c, 14, 60, 44
19, 213944, Note_on_c, 14, 60, 0
19, 213960, Note_on_c, 14, 60, 44
19, 214064, Note_on_c, 14, 60, 0
19, 214080, Note_on_c, 14, 60, 44
19, 214184, Note_on_c, 14, 60, 0
19, 214200, Note_on_c, 14, 60, 43
19, 214304, Note_on_c, 14, 60, 0
19, 214320, Note_on_c, 14, 60, 43
19, 214424, Note_on_c, 14, 60, 0
19, 214440, Note_on_c, 14, 60, 43
19, 214544, Note_on_c, 14, 60, 0
19, 214560, Note_on_c, 14, 60, 42
19, 214664, Note_on_c, 14, 60, 0
19, 214680, Note_on_c, 14, 60, 42
19, 214784, Note_on_c, 14, 60, 0
19, 214800, Note_on_c, 14, 60, 42
19, 214904, Note_on_c, 14, 60, 0
19, 214918, Program_c, 14, 45
19, 214920, Note_on_c, 14, 62, 37
19, 215039, Note_on_c, 14, 62, 0
19, 215280, Note_on_c, 14, 50, 36
19, 215399, Note_on_c, 14, 50, 0
19, 215640, Note_on_c, 14, 62, 35
19, 215759, Note_on_c, 14, 62, 0
19, 216000, Note_on_c, 14, 57, 34
19, 216119, Note_on_c, 14, 57, 0
19, 216360, Note_on_c, 14, 45, 33
19, 216479, Note_on_c, 14, 45, 0
19, 216720, Note_on_c, 14, 57, 32
19, 216839, Note_on_c, 14, 57, 0
19, 217080, Note_on_c, 14, 57, 31
19, 217199, Note_on_c, 14, 57, 0
19, 217440, Note_on_c, 14, 45, 30
19, 217559, Note_on_c, 14, 45, 0
19, 217800, Note_on_c, 14, 57, 29
19, 217919, Note_on_c, 14, 57, 0
19, 218160, Note_on_c, 14, 57, 28
19, 218279, Note_on_c, 14, 57, 0
19, 218520, Note_on_c, 14, 45, 28
19, 218639, Note_on_c, 14, 45, 0
19, 218880, Note_on_c, 14, 57, 28
19, 218999, Note_on_c, 14, 57, 0
19, 219240, Note_on_c, 14, 55, 28
19, 219359, Note_on_c, 14, 55, 0
19, 219360, Note_on_c, 14, 53, 28
19, 219479, Note_on_c, 14, 53, 0
19, 219480, Note_on_c, 14, 52, 28
19, 219599, Note_on_c, 14, 52, 0
19, 219600, Note_on_c, 14, 50, 28
19, 219719, Note_on_c, 14, 50, 0
19, 219960, Note_on_c, 14, 45, 28
19, 220079, Note_on_c, 14, 45, 0
19, 220680, Note_on_c, 14, 50, 28
19, 220799, Note_on_c, 14, 50, 0
19, 221040, Note_on_c, 14, 45, 28
19, 221159, Note_on_c, 14, 45, 0
19, 221760, Note_on_c, 14, 50, 28
19, 221879, Note_on_c, 14, 50, 0
19, 222120, Note_on_c, 14, 45, 28
19, 222239, Note_on_c, 14, 45, 0
19, 222360, Program_c, 14, 48
19, 222480, Note_on_c, 14, 57, 32
19, 222644, Note_on_c, 14, 57, 0
19, 222660, Note_on_c, 14, 45, 32
19, 222704, Note_on_c, 14, 45, 0
19, 222720, Note_on_c, 14, 45, 32
19, 222824, Note_on_c, 14, 45, 0
19, 222840, Note_on_c, 14, 69, 32
19, 223004, Note_on_c, 14, 69, 0
19, 223020, Note_on_c, 14, 57, 32
19, 223064, Note_on_c, 14, 57, 0
19, 223080, Note_on_c, 14, 57, 32
19, 223184, Note_on_c, 14, 57, 0
19, 223200, Note_on_c, 14, 61, 32
19, 223304, Note_on_c, 14, 61, 0
19, 223320, Note_on_c, 14, 62, 32
19, 223424, Note_on_c, 14, 62, 0
19, 223440, Note_on_c, 14, 64, 32
19, 223544, Note_on_c, 14, 64, 0
19, 223560, Note_on_c, 14, 69, 32
19, 223664, Note_on_c, 14, 69, 0
19, 223680, Note_on_c, 14, 67, 32
19, 223784, Note_on_c, 14, 67, 0
19, 223800, Note_on_c, 14, 65, 32
19, 223904, Note_on_c, 14, 65, 0
19, 223920, Note_on_c, 14, 65, 32
19, 224024, Note_on_c, 14, 65, 0
19, 224040, Note_on_c, 14, 63, 32
19, 224144, Note_on_c, 14, 63, 0
19, 224160, Note_on_c, 14, 59, 32
19, 224264, Note_on_c, 14, 59, 0
19, 224280, Note_on_c, 14, 60, 32
19, 224384, Note_on_c, 14, 60, 0
19, 224400, Note_on_c, 14, 65, 32
19, 224504, Note_on_c, 14, 65, 0
19, 224520, Note_on_c, 14, 63, 32
19, 224624, Note_on_c, 14, 63, 0
19, 224640, Note_on_c, 14, 65, 32
19, 224744, Note_on_c, 14, 65, 0
19, 224760, Note_on_c, 14, 63, 32
19, 224864, Note_on_c, 14, 63, 0
19, 224880, Note_on_c, 14, 67, 32
19, 224984, Note_on_c, 14, 67, 0
19, 225000, Note_on_c, 14, 67, 32
19, 225104, Note_on_c, 14, 67, 0
19, 225120, Note_on_c, 14, 65, 32
19, 225224, Note_on_c, 14, 65, 0
19, 225240, Note_on_c, 14, 63, 32
19, 225344, Note_on_c, 14, 63, 0
19, 225360, Note_on_c, 14, 68, 32
19, 225464, Note_on_c, 14, 68, 0
19, 225480, Note_on_c, 14, 67, 32
19, 225584, Note_on_c, 14, 67, 0
19, 225600, Note_on_c, 14, 65, 32
19, 225704, Note_on_c, 14, 65, 0
19, 225720, Note_on_c, 14, 67, 32
19, 225824, Note_on_c, 14, 67, 0
19, 225840, Note_on_c, 14, 58, 32
19, 225944, Note_on_c, 14, 58, 0
19, 225960, Note_on_c, 14, 58, 32
19, 226064, Note_on_c, 14, 58, 0
19, 226080, Note_on_c, 14, 65, 32
19, 226184, Note_on_c, 14, 65, 0
19, 226200, Note_on_c, 14, 63, 32
19, 226304, Note_on_c, 14, 63, 0
19, 226320, Note_on_c, 14, 62, 32
19, 226424, Note_on_c, 14, 62, 0
19, 226440, Note_on_c, 14, 58, 32
19, 226544, Note_on_c, 14, 58, 0
19, 226560, Note_on_c, 14, 56, 32
19, 226664, Note_on_c, 14, 56, 0
19, 226680, Note_on_c, 14, 55, 32
19, 226784, Note_on_c, 14, 55, 0
19, 226800, Note_on_c, 14, 62, 32
19, 226904, Note_on_c, 14, 62, 0
19, 226920, Note_on_c, 14, 63, 32
19, 227024, Note_on_c, 14, 63, 0
19, 227040, Note_on_c, 14, 58, 32
19, 227144, Note_on_c, 14, 58, 0
19, 227160, Note_on_c, 14, 58, 32
19, 227264, Note_on_c, 14, 58, 0
19, 227280, Note_on_c, 14, 56, 32
19, 227384, Note_on_c, 14, 56, 0
19, 227400, Note_on_c, 14, 55, 32
19, 227504, Note_on_c, 14, 55, 0
19, 227518, Control_c, 14, 11, 47
19, 227520, Note_on_c, 14, 46, 80
19, 228959, Note_on_c, 14, 46, 0
19, 228960, Note_on_c, 14, 46, 80
19, 230399, Note_on_c, 14, 46, 0
19, 230400, Control_c, 14, 11, 47
19, 230400, Note_on_c, 14, 46, 80
19, 230472, Control_c, 14, 11, 48
19, 230544, Control_c, 14, 11, 49
19, 230616, Control_c, 14, 11, 50
19, 230688, Control_c, 14, 11, 51
19, 230760, Control_c, 14, 11, 52
19, 230832, Control_c, 14, 11, 53
19, 230904, Control_c, 14, 11, 54
19, 230976, Control_c, 14, 11, 55
19, 231048, Control_c, 14, 11, 56
19, 231120, Control_c, 14, 11, 57
19, 231192, Control_c, 14, 11, 58
19, 231264, Control_c, 14, 11, 59
19, 231336, Control_c, 14, 11, 60
19, 231408, Control_c, 14, 11, 61
19, 231480, Control_c, 14, 11, 62
19, 231552, Control_c, 14, 11, 63
19, 231624, Control_c, 14, 11, 64
19, 231696, Control_c, 14, 11, 65
19, 231768, Control_c, 14, 11, 66
19, 231824, Note_on_c, 14, 46, 0
19, 231840, Note_on_c, 14, 45, 80
19, 231840, Control_c, 14, 11, 67
19, 231870, Control_c, 14, 11, 68
19, 231900, Control_c, 14, 11, 70
19, 231930, Control_c, 14, 11, 71
19, 231960, Control_c, 14, 11, 72
19, 231990, Control_c, 14, 11, 73
19, 232020, Control_c, 14, 11, 75
19, 232050, Control_c, 14, 11, 76
19, 232080, Control_c, 14, 11, 77
19, 232110, Control_c, 14, 11, 78
19, 232140, Control_c, 14, 11, 80
19, 232170, Control_c, 14, 11, 81
19, 232200, Control_c, 14, 11, 82
19, 232230, Control_c, 14, 11, 83
19, 232260, Control_c, 14, 11, 85
19, 232290, Control_c, 14, 11, 86
19, 232320, Control_c, 14, 11, 87
19, 232350, Control_c, 14, 11, 88
19, 232380, Control_c, 14, 11, 90
19, 232410, Control_c, 14, 11, 91
19, 232440, Control_c, 14, 11, 92
19, 232470, Control_c, 14, 11, 93
19, 232500, Control_c, 14, 11, 95
19, 232530, Control_c, 14, 11, 96
19, 232560, Control_c, 14, 11, 97
19, 232590, Control_c, 14, 11, 98
19, 232620, Control_c, 14, 11, 100
19, 232650, Control_c, 14, 11, 101
19, 232680, Control_c, 14, 11, 102
19, 232710, Control_c, 14, 11, 103
19, 232740, Control_c, 14, 11, 105
19, 232770, Control_c, 14, 11, 106
19, 232800, Control_c, 14, 11, 107
19, 232830, Control_c, 14, 11, 108
19, 232860, Control_c, 14, 11, 110
19, 232890, Control_c, 14, 11, 111
19, 232920, Control_c, 14, 11, 112
19, 232950, Control_c, 14, 11, 113
19, 232980, Control_c, 14, 11, 115
19, 233010, Control_c, 14, 11, 116
19, 233040, Control_c, 14, 11, 117
19, 233070, Control_c, 14, 11, 118
19, 233100, Control_c, 14, 11, 120
19, 233130, Control_c, 14, 11, 121
19, 233160, Control_c, 14, 11, 122
19, 233190, Control_c, 14, 11, 123
19, 233220, Control_c, 14, 11, 125
19, 233250, Control_c, 14, 11, 127
19, 233264, Note_on_c, 14, 45, 0
19, 233280, Note_on_c, 14, 45, 80
19, 233399, Note_on_c, 14, 45, 0
19, 234000, Note_on_c, 14, 45, 86
19, 234119, Note_on_c, 14, 45, 0
19, 234720, Note_on_c, 14, 38, 92
19, 234884, Note_on_c, 14, 38, 0
19, 234900, Note_on_c, 14, 50, 92
19, 234944, Note_on_c, 14, 50, 0
19, 234960, Note_on_c, 14, 50, 92
19, 235064, Note_on_c, 14, 50, 0
19, 235080, Note_on_c, 14, 38, 92
19, 235244, Note_on_c, 14, 38, 0
19, 235260, Note_on_c, 14, 50, 92
19, 235304, Note_on_c, 14, 50, 0
19, 235320, Note_on_c, 14, 50, 92
19, 235424, Note_on_c, 14, 50, 0
19, 235440, Note_on_c, 14, 38, 92
19, 235604, Note_on_c, 14, 38, 0
19, 235620, Note_on_c, 14, 50, 92
19, 235664, Note_on_c, 14, 50, 0
19, 235680, Note_on_c, 14, 50, 92
19, 235784, Note_on_c, 14, 50, 0
19, 235800, Note_on_c, 14, 38, 92
19, 235964, Note_on_c, 14, 38, 0
19, 235980, Note_on_c, 14, 50, 92
19, 236024, Note_on_c, 14, 50, 0
19, 236040, Note_on_c, 14, 50, 92
19, 236144, Note_on_c, 14, 50, 0
19, 236160, Note_on_c, 14, 38, 92
19, 236324, Note_on_c, 14, 38, 0
19, 236340, Note_on_c, 14, 50, 92
19, 236384, Note_on_c, 14, 50, 0
19, 236400, Note_on_c, 14, 50, 92
19, 236504, Note_on_c, 14, 50, 0
19, 236520, Note_on_c, 14, 38, 92
19, 236684, Note_on_c, 14, 38, 0
19, 236700, Note_on_c, 14, 50, 92
19, 236744, Note_on_c, 14, 50, 0
19, 236760, Note_on_c, 14, 50, 92
19, 236864, Note_on_c, 14, 50, 0
19, 236880, Note_on_c, 14, 38, 92
19, 237044, Note_on_c, 14, 38, 0
19, 237060, Note_on_c, 14, 50, 92
19, 237104, Note_on_c, 14, 50, 0
19, 237120, Note_on_c, 14, 50, 92
19, 237224, Note_on_c, 14, 50, 0
19, 237240, Note_on_c, 14, 38, 92
19, 237404, Note_on_c, 14, 38, 0
19, 237420, Note_on_c, 14, 50, 92
19, 237464, Note_on_c, 14, 50, 0
19, 237480, Note_on_c, 14, 50, 92
19, 237584, Note_on_c, 14, 50, 0
19, 237600, Note_on_c, 14, 38, 92
19, 237764, Note_on_c, 14, 38, 0
19, 237780, Note_on_c, 14, 50, 92
19, 237824, Note_on_c, 14, 50, 0
19, 237840, Note_on_c, 14, 50, 92
19, 237944, Note_on_c, 14, 50, 0
19, 237960, Note_on_c, 14, 38, 92
19, 238124, Note_on_c, 14, 38, 0
19, 238140, Note_on_c, 14, 50, 92
19, 238184, Note_on_c, 14, 50, 0
19, 238200, Note_on_c, 14, 50, 92
19, 238304, Note_on_c, 14, 50, 0
19, 238320, Note_on_c, 14, 38, 92
19, 238484, Note_on_c, 14, 38, 0
19, 238500, Note_on_c, 14, 50, 92
19, 238544, Note_on_c, 14, 50, 0
19, 238560, Note_on_c, 14, 50, 92
19, 238664, Note_on_c, 14, 50, 0
19, 238680, Note_on_c, 14, 38, 92
19, 238844, Note_on_c, 14, 38, 0
19, 238860, Note_on_c, 14, 50, 92
19, 238904, Note_on_c, 14, 50, 0
19, 238920, Note_on_c, 14, 50, 92
19, 239024, Note_on_c, 14, 50, 0
19, 239040, Note_on_c, 14, 38, 92
19, 239204, Note_on_c, 14, 38, 0
19, 239220, Note_on_c, 14, 50, 92
19, 239264, Note_on_c, 14, 50, 0
19, 239280, Note_on_c, 14, 50, 92
19, 239384, Note_on_c, 14, 50, 0
19, 239400, Note_on_c, 14, 38, 92
19, 239564, Note_on_c, 14, 38, 0
19, 239580, Note_on_c, 14, 50, 92
19, 239624, Note_on_c, 14, 50, 0
19, 239640, Note_on_c, 14, 50, 92
19, 239744, Note_on_c, 14, 50, 0
19, 239760, Note_on_c, 14, 38, 92
19, 239924, Note_on_c, 14, 38, 0
19, 239940, Note_on_c, 14, 50, 92
19, 239984, Note_on_c, 14, 50, 0
19, 240000, Note_on_c, 14, 50, 92
19, 240104, Note_on_c, 14, 50, 0
19, 240120, Note_on_c, 14, 38, 92
19, 240284, Note_on_c, 14, 38, 0
19, 240300, Note_on_c, 14, 50, 92
19, 240344, Note_on_c, 14, 50, 0
19, 240360, Note_on_c, 14, 50, 92
19, 240464, Note_on_c, 14, 50, 0
19, 240480, Note_on_c, 14, 63, 92
19, 240569, Note_on_c, 14, 63, 0
19, 240600, Note_on_c, 14, 62, 92
19, 240689, Note_on_c, 14, 62, 0
19, 240720, Note_on_c, 14, 60, 92
19, 240809, Note_on_c, 14, 60, 0
19, 240840, Note_on_c, 14, 58, 92
19, 240929, Note_on_c, 14, 58, 0
19, 240960, Note_on_c, 14, 57, 92
19, 241049, Note_on_c, 14, 57, 0
19, 241080, Note_on_c, 14, 55, 92
19, 241169, Note_on_c, 14, 55, 0
19, 241200, Note_on_c, 14, 54, 92
19, 241289, Note_on_c, 14, 54, 0
19, 241320, Note_on_c, 14, 55, 92
19, 241409, Note_on_c, 14, 55, 0
19, 241440, Note_on_c, 14, 57, 92
19, 241529, Note_on_c, 14, 57, 0
19, 241560, Note_on_c, 14, 55, 92
19, 241649, Note_on_c, 14, 55, 0
19, 241680, Note_on_c, 14, 57, 92
19, 241769, Note_on_c, 14, 57, 0
19, 241800, Note_on_c, 14, 58, 92
19, 241889, Note_on_c, 14, 58, 0
19, 241920, Note_on_c, 14, 63, 80
19, 242009, Note_on_c, 14, 63, 0
19, 242040, Note_on_c, 14, 62, 80
19, 242129, Note_on_c, 14, 62, 0
19, 242160, Note_on_c, 14, 60, 80
19, 242249, Note_on_c, 14, 60, 0
19, 242280, Note_on_c, 14, 58, 80
19, 242369, Note_on_c, 14, 58, 0
19, 242400, Note_on_c, 14, 57, 80
19, 242489, Note_on_c, 14, 57, 0
19, 242520, Note_on_c, 14, 55, 80
19, 242609, Note_on_c, 14, 55, 0
19, 242640, Note_on_c, 14, 65, 80
19, 242729, Note_on_c, 14, 65, 0
19, 242760, Note_on_c, 14, 63, 80
19, 242849, Note_on_c, 14, 63, 0
19, 242880, Note_on_c, 14, 62, 80
19, 242969, Note_on_c, 14, 62, 0
19, 243000, Note_on_c, 14, 60, 80
19, 243089, Note_on_c, 14, 60, 0
19, 243120, Note_on_c, 14, 58, 80
19, 243209, Note_on_c, 14, 58, 0
19, 243240, Note_on_c, 14, 57, 80
19, 243329, Note_on_c, 14, 57, 0
19, 243360, Note_on_c, 14, 67, 80
19, 243449, Note_on_c, 14, 67, 0
19, 243480, Note_on_c, 14, 65, 80
19, 243569, Note_on_c, 14, 65, 0
19, 243600, Note_on_c, 14, 63, 80
19, 243689, Note_on_c, 14, 63, 0
19, 243720, Note_on_c, 14, 62, 80
19, 243809, Note_on_c, 14, 62, 0
19, 243840, Note_on_c, 14, 60, 80
19, 243929, Note_on_c, 14, 60, 0
19, 243960, Note_on_c, 14, 58, 80
19, 244049, Note_on_c, 14, 58, 0
19, 244080, Note_on_c, 14, 57, 80
19, 244169, Note_on_c, 14, 57, 0
19, 244200, Note_on_c, 14, 55, 80
19, 244289, Note_on_c, 14, 55, 0
19, 244320, Note_on_c, 14, 53, 80
19, 244409, Note_on_c, 14, 53, 0
19, 244440, Note_on_c, 14, 51, 80
19, 244529, Note_on_c, 14, 51, 0
19, 244560, Note_on_c, 14, 50, 80
19, 244649, Note_on_c, 14, 50, 0
19, 244680, Note_on_c, 14, 48, 80
19, 244769, Note_on_c, 14, 48, 0
19, 244800, Note_on_c, 14, 46, 80
19, 244889, Note_on_c, 14, 46, 0
19, 245040, Program_c, 14, 45
19, 245160, Note_on_c, 14, 58, 40
19, 245279, Note_on_c, 14, 58, 0
19, 245520, Note_on_c, 14, 51, 40
19, 245639, Note_on_c, 14, 51, 0
19, 245880, Note_on_c, 14, 48, 40
19, 245999, Note_on_c, 14, 48, 0
19, 246240, Note_on_c, 14, 53, 40
19, 246359, Note_on_c, 14, 53, 0
19, 246600, Note_on_c, 14, 46, 40
19, 246719, Note_on_c, 14, 46, 0
19, 246960, Note_on_c, 14, 53, 40
19, 247079, Note_on_c, 14, 53, 0
19, 247320, Note_on_c, 14, 41, 40
19, 247439, Note_on_c, 14, 41, 0
19, 250920, Program_c, 14, 48
19, 250920, Control_c, 14, 11, 87
19, 251280, Note_on_c, 14, 57, 68
19, 251640, Control_c, 14, 11, 87
19, 251676, Control_c, 14, 11, 88
19, 251712, Control_c, 14, 11, 89
19, 251748, Control_c, 14, 11, 90
19, 251784, Control_c, 14, 11, 91
19, 251820, Control_c, 14, 11, 92
19, 251856, Control_c, 14, 11, 93
19, 251892, Control_c, 14, 11, 94
19, 251928, Control_c, 14, 11, 95
19, 251964, Control_c, 14, 11, 96
19, 252000, Control_c, 14, 11, 97
19, 252036, Control_c, 14, 11, 98
19, 252072, Control_c, 14, 11, 99
19, 252108, Control_c, 14, 11, 100
19, 252144, Control_c, 14, 11, 101
19, 252180, Control_c, 14, 11, 102
19, 252216, Control_c, 14, 11, 103
19, 252252, Control_c, 14, 11, 104
19, 252288, Control_c, 14, 11, 105
19, 252324, Control_c, 14, 11, 106
19, 252359, Note_on_c, 14, 57, 0
19, 252360, Note_on_c, 14, 55, 68
19, 252360, Control_c, 14, 11, 107
19, 252396, Control_c, 14, 11, 108
19, 252432, Control_c, 14, 11, 109
19, 252468, Control_c, 14, 11, 110
19, 252504, Control_c, 14, 11, 111
19, 252540, Control_c, 14, 11, 112
19, 252576, Control_c, 14, 11, 113
19, 252612, Control_c, 14, 11, 114
19, 252648, Control_c, 14, 11, 115
19, 252684, Control_c, 14, 11, 116
19, 252720, Control_c, 14, 11, 117
19, 252756, Control_c, 14, 11, 118
19, 252792, Control_c, 14, 11, 119
19, 252828, Control_c, 14, 11, 120
19, 252864, Control_c, 14, 11, 121
19, 252900, Control_c, 14, 11, 122
19, 252936, Control_c, 14, 11, 123
19, 252972, Control_c, 14, 11, 124
19, 253008, Control_c, 14, 11, 125
19, 253044, Control_c, 14, 11, 126
19, 253079, Note_on_c, 14, 55, 0
19, 253080, Note_on_c, 14, 54, 68
19, 253080, Control_c, 14, 11, 127
19, 253110, Control_c, 14, 11, 126
19, 253140, Control_c, 14, 11, 125
19, 253170, Control_c, 14, 11, 124
19, 253200, Control_c, 14, 11, 123
19, 253230, Control_c, 14, 11, 121
19, 253260, Control_c, 14, 11, 120
19, 253290, Control_c, 14, 11, 119
19, 253320, Control_c, 14, 11, 118
19, 253350, Control_c, 14, 11, 117
19, 253380, Control_c, 14, 11, 116
19, 253410, Control_c, 14, 11, 115
19, 253439, Note_on_c, 14, 54, 0
19, 253440, Control_c, 14, 11, 114
19, 253440, Note_on_c, 14, 53, 68
19, 253470, Control_c, 14, 11, 113
19, 253500, Control_c, 14, 11, 111
19, 253530, Control_c, 14, 11, 110
19, 253560, Control_c, 14, 11, 109
19, 253590, Control_c, 14, 11, 108
19, 253620, Control_c, 14, 11, 107
19, 253650, Control_c, 14, 11, 106
19, 253680, Control_c, 14, 11, 105
19, 253710, Control_c, 14, 11, 104
19, 253740, Control_c, 14, 11, 103
19, 253770, Control_c, 14, 11, 101
19, 253799, Note_on_c, 14, 53, 0
19, 253800, Control_c, 14, 11, 100
19, 253800, Note_on_c, 14, 52, 68
19, 253830, Control_c, 14, 11, 99
19, 253860, Control_c, 14, 11, 98
19, 253890, Control_c, 14, 11, 97
19, 253920, Control_c, 14, 11, 96
19, 253950, Control_c, 14, 11, 95
19, 253980, Control_c, 14, 11, 94
19, 254010, Control_c, 14, 11, 93
19, 254040, Control_c, 14, 11, 91
19, 254070, Control_c, 14, 11, 90
19, 254100, Control_c, 14, 11, 89
19, 254130, Control_c, 14, 11, 88
19, 254144, Note_on_c, 14, 52, 0
19, 254158, Control_c, 14, 11, 47
19, 254160, Note_on_c, 14, 57, 92
19, 254160, Control_c, 14, 11, 47
19, 254196, Control_c, 14, 11, 48
19, 254232, Control_c, 14, 11, 49
19, 254268, Control_c, 14, 11, 50
19, 254304, Control_c, 14, 11, 51
19, 254324, Note_on_c, 14, 57, 0
19, 254340, Control_c, 14, 11, 52
19, 254340, Note_on_c, 14, 45, 92
19, 254376, Control_c, 14, 11, 53
19, 254384, Note_on_c, 14, 45, 0
19, 254400, Note_on_c, 14, 45, 92
19, 254412, Control_c, 14, 11, 54
19, 254448, Control_c, 14, 11, 55
19, 254484, Control_c, 14, 11, 56
19, 254504, Note_on_c, 14, 45, 0
19, 254520, Note_on_c, 14, 57, 92
19, 254520, Control_c, 14, 11, 57
19, 254556, Control_c, 14, 11, 58
19, 254592, Control_c, 14, 11, 59
19, 254628, Control_c, 14, 11, 60
19, 254664, Control_c, 14, 11, 61
19, 254684, Note_on_c, 14, 57, 0
19, 254700, Control_c, 14, 11, 62
19, 254700, Note_on_c, 14, 45, 92
19, 254736, Control_c, 14, 11, 63
19, 254744, Note_on_c, 14, 45, 0
19, 254760, Note_on_c, 14, 45, 92
19, 254772, Control_c, 14, 11, 64
19, 254808, Control_c, 14, 11, 65
19, 254844, Control_c, 14, 11, 66
19, 254864, Note_on_c, 14, 45, 0
19, 254880, Control_c, 14, 11, 67
19, 254880, Note_on_c, 14, 59, 92
19, 254916, Control_c, 14, 11, 68
19, 254952, Control_c, 14, 11, 69
19, 254988, Control_c, 14, 11, 70
19, 255024, Control_c, 14, 11, 71
19, 255044, Note_on_c, 14, 59, 0
19, 255060, Control_c, 14, 11, 72
19, 255060, Note_on_c, 14, 47, 92
19, 255096, Control_c, 14, 11, 73
19, 255104, Note_on_c, 14, 47, 0
19, 255120, Note_on_c, 14, 47, 92
19, 255132, Control_c, 14, 11, 74
19, 255168, Control_c, 14, 11, 75
19, 255204, Control_c, 14, 11, 76
19, 255224, Note_on_c, 14, 47, 0
19, 255240, Control_c, 14, 11, 77
19, 255240, Note_on_c, 14, 64, 92
19, 255276, Control_c, 14, 11, 78
19, 255312, Control_c, 14, 11, 79
19, 255348, Control_c, 14, 11, 80
19, 255384, Control_c, 14, 11, 81
19, 255404, Note_on_c, 14, 64, 0
19, 255420, Control_c, 14, 11, 82
19, 255420, Note_on_c, 14, 52, 92
19, 255456, Control_c, 14, 11, 83
19, 255464, Note_on_c, 14, 52, 0
19, 255480, Note_on_c, 14, 52, 92
19, 255492, Control_c, 14, 11, 84
19, 255528, Control_c, 14, 11, 85
19, 255564, Control_c, 14, 11, 86
19, 255584, Note_on_c, 14, 52, 0
19, 255600, Note_on_c, 14, 61, 92
19, 255600, Control_c, 14, 11, 87
19, 255636, Control_c, 14, 11, 88
19, 255672, Control_c, 14, 11, 89
19, 255708, Control_c, 14, 11, 90
19, 255744, Control_c, 14, 11, 91
19, 255764, Note_on_c, 14, 61, 0
19, 255780, Note_on_c, 14, 49, 92
19, 255780, Control_c, 14, 11, 92
19, 255816, Control_c, 14, 11, 93
19, 255824, Note_on_c, 14, 49, 0
19, 255840, Note_on_c, 14, 49, 92
19, 255852, Control_c, 14, 11, 94
19, 255888, Control_c, 14, 11, 95
19, 255924, Control_c, 14, 11, 96
19, 255944, Note_on_c, 14, 49, 0
19, 255960, Control_c, 14, 11, 97
19, 255960, Note_on_c, 14, 62, 92
19, 255996, Control_c, 14, 11, 98
19, 256032, Control_c, 14, 11, 99
19, 256068, Control_c, 14, 11, 100
19, 256104, Control_c, 14, 11, 101
19, 256124, Note_on_c, 14, 62, 0
19, 256140, Control_c, 14, 11, 102
19, 256140, Note_on_c, 14, 50, 92
19, 256176, Control_c, 14, 11, 103
19, 256184, Note_on_c, 14, 50, 0
19, 256200, Note_on_c, 14, 50, 92
19, 256212, Control_c, 14, 11, 104
19, 256248, Control_c, 14, 11, 105
19, 256284, Control_c, 14, 11, 106
19, 256304, Note_on_c, 14, 50, 0
19, 256320, Note_on_c, 14, 62, 92
19, 256320, Control_c, 14, 11, 107
19, 256356, Control_c, 14, 11, 108
19, 256392, Control_c, 14, 11, 109
19, 256428, Control_c, 14, 11, 110
19, 256464, Control_c, 14, 11, 111
19, 256484, Note_on_c, 14, 62, 0
19, 256500, Note_on_c, 14, 50, 92
19, 256500, Control_c, 14, 11, 112
19, 256536, Control_c, 14, 11, 113
19, 256544, Note_on_c, 14, 50, 0
19, 256560, Note_on_c, 14, 50, 92
19, 256572, Control_c, 14, 11, 114
19, 256608, Control_c, 14, 11, 115
19, 256644, Control_c, 14, 11, 116
19, 256664, Note_on_c, 14, 50, 0
19, 256680, Note_on_c, 14, 69, 92
19, 256680, Control_c, 14, 11, 117
19, 256716, Control_c, 14, 11, 118
19, 256752, Control_c, 14, 11, 119
19, 256788, Control_c, 14, 11, 120
19, 256824, Control_c, 14, 11, 121
19, 256844, Note_on_c, 14, 69, 0
19, 256860, Note_on_c, 14, 57, 92
19, 256860, Control_c, 14, 11, 122
19, 256896, Control_c, 14, 11, 123
19, 256904, Note_on_c, 14, 57, 0
19, 256920, Note_on_c, 14, 57, 92
19, 256932, Control_c, 14, 11, 124
19, 256968, Control_c, 14, 11, 125
19, 257004, Control_c, 14, 11, 127
19, 257024, Note_on_c, 14, 57, 0
19, 257040, Note_on_c, 14, 62, 92
19, 257204, Note_on_c, 14, 62, 0
19, 257220, Note_on_c, 14, 50, 92
19, 257264, Note_on_c, 14, 50, 0
19, 257280, Note_on_c, 14, 50, 92
19, 257384, Note_on_c, 14, 50, 0
19, 257400, Note_on_c, 14, 62, 92
19, 257564, Note_on_c, 14, 62, 0
19, 257580, Note_on_c, 14, 50, 92
19, 257624, Note_on_c, 14, 50, 0
19, 257640, Note_on_c, 14, 50, 92
19, 257744, Note_on_c, 14, 50, 0
19, 257760, Note_on_c, 14, 62, 92
19, 257924, Note_on_c, 14, 62, 0
19, 257940, Note_on_c, 14, 50, 92
19, 257984, Note_on_c, 14, 50, 0
19, 258000, Note_on_c, 14, 50, 92
19, 258104, Note_on_c, 14, 50, 0
19, 258120, Note_on_c, 14, 62, 92
19, 258284, Note_on_c, 14, 62, 0
19, 258300, Note_on_c, 14, 50, 92
19, 258344, Note_on_c, 14, 50, 0
19, 258360, Note_on_c, 14, 50, 92
19, 258464, Note_on_c, 14, 50, 0
19, 258480, Note_on_c, 14, 62, 92
19, 258644, Note_on_c, 14, 62, 0
19, 258660, Note_on_c, 14, 50, 92
19, 258704, Note_on_c, 14, 50, 0
19, 258720, Note_on_c, 14, 50, 92
19, 258824, Note_on_c, 14, 50, 0
19, 258840, Note_on_c, 14, 62, 92
19, 259004, Note_on_c, 14, 62, 0
19, 259020, Note_on_c, 14, 50, 92
19, 259064, Note_on_c, 14, 50, 0
19, 259080, Note_on_c, 14, 50, 92
19, 259184, Note_on_c, 14, 50, 0
19, 259200, Note_on_c, 14, 62, 92
19, 259364, Note_on_c, 14, 62, 0
19, 259380, Note_on_c, 14, 50, 92
19, 259424, Note_on_c, 14, 50, 0
19, 259440, Note_on_c, 14, 50, 92
19, 259544, Note_on_c, 14, 50, 0
19, 259560, Note_on_c, 14, 62, 92
19, 259724, Note_on_c, 14, 62, 0
19, 259740, Note_on_c, 14, 50, 92
19, 259784, Note_on_c, 14, 50, 0
19, 259800, Note_on_c, 14, 50, 92
19, 259904, Note_on_c, 14, 50, 0
19, 259920, Note_on_c, 14, 62, 92
19, 260084, Note_on_c, 14, 62, 0
19, 260100, Note_on_c, 14, 50, 92
19, 260144, Note_on_c, 14, 50, 0
19, 260160, Note_on_c, 14, 50, 92
19, 260264, Note_on_c, 14, 50, 0
19, 260280, Note_on_c, 14, 62, 92
19, 260444, Note_on_c, 14, 62, 0
19, 260460, Note_on_c, 14, 50, 92
19, 260504, Note_on_c, 14, 50, 0
19, 260520, Note_on_c, 14, 50, 92
19, 260624, Note_on_c, 14, 50, 0
19, 260640, Note_on_c, 14, 62, 92
19, 260804, Note_on_c, 14, 62, 0
19, 260820, Note_on_c, 14, 50, 92
19, 260864, Note_on_c, 14, 50, 0
19, 260880, Note_on_c, 14, 50, 92
19, 260984, Note_on_c, 14, 50, 0
19, 261000, Note_on_c, 14, 62, 92
19, 261164, Note_on_c, 14, 62, 0
19, 261180, Note_on_c, 14, 50, 92
19, 261224, Note_on_c, 14, 50, 0
19, 261240, Note_on_c, 14, 50, 92
19, 261344, Note_on_c, 14, 50, 0
19, 261360, Note_on_c, 14, 62, 92
19, 261524, Note_on_c, 14, 62, 0
19, 261540, Note_on_c, 14, 50, 92
19, 261584, Note_on_c, 14, 50, 0
19, 261600, Note_on_c, 14, 50, 92
19, 261704, Note_on_c, 14, 50, 0
19, 261720, Note_on_c, 14, 62, 92
19, 261884, Note_on_c, 14, 62, 0
19, 261900, Note_on_c, 14, 50, 92
19, 261944, Note_on_c, 14, 50, 0
19, 261960, Note_on_c, 14, 50, 92
19, 262064, Note_on_c, 14, 50, 0
19, 262080, Note_on_c, 14, 62, 92
19, 262244, Note_on_c, 14, 62, 0
19, 262260, Note_on_c, 14, 50, 92
19, 262304, Note_on_c, 14, 50, 0
19, 262320, Note_on_c, 14, 50, 92
19, 262424, Note_on_c, 14, 50, 0
19, 262440, Note_on_c, 14, 62, 92
19, 262604, Note_on_c, 14, 62, 0
19, 262620, Note_on_c, 14, 50, 92
19, 262664, Note_on_c, 14, 50, 0
19, 262680, Note_on_c, 14, 50, 92
19, 262784, Note_on_c, 14, 50, 0
19, 262800, Note_on_c, 14, 62, 92
19, 262919, Note_on_c, 14, 62, 0
19, 263520, Note_on_c, 14, 55, 92
19, 263684, Note_on_c, 14, 55, 0
19, 263700, Note_on_c, 14, 43, 92
19, 263744, Note_on_c, 14, 43, 0
19, 263760, Note_on_c, 14, 43, 92
19, 263864, Note_on_c, 14, 43, 0
19, 263880, Note_on_c, 14, 43, 92
19, 263984, Note_on_c, 14, 43, 0
19, 264000, Note_on_c, 14, 40, 92
19, 264104, Note_on_c, 14, 40, 0
19, 264120, Note_on_c, 14, 38, 92
19, 264224, Note_on_c, 14, 38, 0
19, 264240, Note_on_c, 14, 48, 92
19, 264240, Note_on_c, 14, 36, 92
19, 264359, Note_on_c, 14, 48, 0
19, 264359, Note_on_c, 14, 36, 0
19, 264960, Note_on_c, 14, 65, 92
19, 265124, Note_on_c, 14, 65, 0
19, 265140, Note_on_c, 14, 53, 92
19, 265184, Note_on_c, 14, 53, 0
19, 265200, Note_on_c, 14, 53, 92
19, 265304, Note_on_c, 14, 53, 0
19, 265320, Note_on_c, 14, 53, 92
19, 265424, Note_on_c, 14, 53, 0
19, 265440, Note_on_c, 14, 50, 92
19, 265544, Note_on_c, 14, 50, 0
19, 265560, Note_on_c, 14, 48, 92
19, 265664, Note_on_c, 14, 48, 0
19, 265678, Control_c, 14, 11, 87
19, 265680, Note_on_c, 14, 48, 68
19, 265904, Note_on_c, 14, 48, 0
19, 265920, Note_on_c, 14, 60, 68
19, 266024, Note_on_c, 14, 60, 0
19, 266040, Note_on_c, 14, 58, 68
19, 266400, Control_c, 14, 11, 87
19, 266430, Control_c, 14, 11, 88
19, 266460, Control_c, 14, 11, 89
19, 266490, Control_c, 14, 11, 90
19, 266520, Control_c, 14, 11, 91
19, 266550, Control_c, 14, 11, 93
19, 266580, Control_c, 14, 11, 94
19, 266610, Control_c, 14, 11, 95
19, 266640, Control_c, 14, 11, 96
19, 266670, Control_c, 14, 11, 97
19, 266700, Control_c, 14, 11, 98
19, 266730, Control_c, 14, 11, 99
19, 266760, Control_c, 14, 11, 100
19, 266790, Control_c, 14, 11, 101
19, 266820, Control_c, 14, 11, 103
19, 266850, Control_c, 14, 11, 104
19, 266879, Note_on_c, 14, 58, 0
19, 266880, Note_on_c, 14, 56, 68
19, 266880, Control_c, 14, 11, 105
19, 266910, Control_c, 14, 11, 106
19, 266940, Control_c, 14, 11, 107
19, 266970, Control_c, 14, 11, 108
19, 266999, Note_on_c, 14, 56, 0
19, 267000, Control_c, 14, 11, 109
19, 267000, Note_on_c, 14, 55, 68
19, 267030, Control_c, 14, 11, 110
19, 267060, Control_c, 14, 11, 111
19, 267090, Control_c, 14, 11, 113
19, 267104, Note_on_c, 14, 55, 0
19, 267120, Note_on_c, 14, 55, 68
19, 267120, Control_c, 14, 11, 114
19, 267150, Control_c, 14, 11, 115
19, 267180, Control_c, 14, 11, 116
19, 267210, Control_c, 14, 11, 117
19, 267240, Control_c, 14, 11, 118
19, 267270, Control_c, 14, 11, 119
19, 267300, Control_c, 14, 11, 120
19, 267330, Control_c, 14, 11, 121
19, 267360, Control_c, 14, 11, 123
19, 267390, Control_c, 14, 11, 124
19, 267420, Control_c, 14, 11, 125
19, 267450, Control_c, 14, 11, 126
19, 267464, Note_on_c, 14, 55, 0
19, 267480, Control_c, 14, 11, 127
19, 267480, Note_on_c, 14, 57, 68
19, 267510, Control_c, 14, 11, 124
19, 267540, Control_c, 14, 11, 120
19, 267570, Control_c, 14, 11, 117
19, 267600, Control_c, 14, 11, 114
19, 267630, Control_c, 14, 11, 110
19, 267660, Control_c, 14, 11, 107
19, 267690, Control_c, 14, 11, 104
19, 267720, Control_c, 14, 11, 100
19, 267750, Control_c, 14, 11, 97
19, 267780, Control_c, 14, 11, 94
19, 267810, Control_c, 14, 11, 90
19, 267839, Note_on_c, 14, 57, 0
19, 267840, Control_c, 14, 11, 87
19, 269640, Control_c, 14, 11, 127
19, 270000, Note_on_c, 14, 62, 80
19, 270089, Note_on_c, 14, 62, 0
19, 270120, Note_on_c, 14, 58, 80
19, 270209, Note_on_c, 14, 58, 0
19, 270240, Note_on_c, 14, 55, 80
19, 270329, Note_on_c, 14, 55, 0
19, 270360, Note_on_c, 14, 56, 80
19, 270449, Note_on_c, 14, 56, 0
19, 270480, Note_on_c, 14, 57, 80
19, 270569, Note_on_c, 14, 57, 0
19, 270600, Note_on_c, 14, 45, 80
19, 270689, Note_on_c, 14, 45, 0
19, 270720, Note_on_c, 14, 50, 80
19, 270809, Note_on_c, 14, 50, 0
19, 271440, Note_on_c, 14, 57, 80
19, 271529, Note_on_c, 14, 57, 0
19, 271560, Note_on_c, 14, 53, 80
19, 271649, Note_on_c, 14, 53, 0
19, 271680, Note_on_c, 14, 58, 80
19, 271769, Note_on_c, 14, 58, 0
19, 271800, Note_on_c, 14, 55, 80
19, 271889, Note_on_c, 14, 55, 0
19, 271920, Note_on_c, 14, 52, 80
19, 272009, Note_on_c, 14, 52, 0
19, 272040, Note_on_c, 14, 57, 80
19, 272129, Note_on_c, 14, 57, 0
19, 272160, Note_on_c, 14, 50, 80
19, 272279, Note_on_c, 14, 50, 0
19, 272520, Note_on_c, 14, 57, 80
19, 272684, Note_on_c, 14, 57, 0
19, 272700, Note_on_c, 14, 45, 80
19, 272744, Note_on_c, 14, 45, 0
19, 272760, Note_on_c, 14, 45, 80
19, 272864, Note_on_c, 14, 45, 0
19, 272880, Note_on_c, 14, 38, 80
19, 272999, Note_on_c, 14, 38, 0
19, 273240, Note_on_c, 14, 57, 80
19, 273404, Note_on_c, 14, 57, 0
19, 273420, Note_on_c, 14, 45, 80
19, 273464, Note_on_c, 14, 45, 0
19, 273480, Note_on_c, 14, 45, 80
19, 273584, Note_on_c, 14, 45, 0
19, 273600, Note_on_c, 14, 45, 32
19, 273704, Note_on_c, 14, 45, 0
19, 273720, Note_on_c, 14, 45, 32
19, 273824, Note_on_c, 14, 45, 0
19, 273840, Note_on_c, 14, 45, 32
19, 273944, Note_on_c, 14, 45, 0
19, 273960, Note_on_c, 14, 45, 32
19, 274064, Note_on_c, 14, 45, 0
19, 274080, Note_on_c, 14, 45, 32
19, 274184, Note_on_c, 14, 45, 0
19, 274200, Note_on_c, 14, 45, 32
19, 274304, Note_on_c, 14, 45, 0
19, 274320, Note_on_c, 14, 45, 32
19, 274424, Note_on_c, 14, 45, 0
19, 274440, Note_on_c, 14, 45, 32
19, 274544, Note_on_c, 14, 45, 0
19, 274560, Note_on_c, 14, 45, 32
19, 274664, Note_on_c, 14, 45, 0
19, 274680, Note_on_c, 14, 45, 32
19, 274784, Note_on_c, 14, 45, 0
19, 274800, Note_on_c, 14, 45, 32
19, 274904, Note_on_c, 14, 45, 0
19, 274920, Note_on_c, 14, 45, 32
19, 275024, Note_on_c, 14, 45, 0
19, 275040, Note_on_c, 14, 50, 32
19, 275204, Note_on_c, 14, 50, 0
19, 275220, Note_on_c, 14, 62, 32
19, 275264, Note_on_c, 14, 62, 0
19, 275280, Note_on_c, 14, 62, 32
19, 275384, Note_on_c, 14, 62, 0
19, 275400, Note_on_c, 14, 57, 32
19, 275519, Note_on_c, 14, 57, 0
19, 275760, Note_on_c, 14, 41, 32
19, 275924, Note_on_c, 14, 41, 0
19, 275940, Note_on_c, 14, 53, 32
19, 275984, Note_on_c, 14, 53, 0
19, 276000, Note_on_c, 14, 53, 32
19, 276104, Note_on_c, 14, 53, 0
19, 276120, Note_on_c, 14, 50, 32
19, 276239, Note_on_c, 14, 50, 0
19, 277920, Note_on_c, 14, 50, 32
19, 278084, Note_on_c, 14, 50, 0
19, 278100, Note_on_c, 14, 62, 36
19, 278144, Note_on_c, 14, 62, 0
19, 278160, Note_on_c, 14, 62, 37
19, 278264, Note_on_c, 14, 62, 0
19, 278280, Note_on_c, 14, 57, 40
19, 278399, Note_on_c, 14, 57, 0
19, 278640, Note_on_c, 14, 53, 48
19, 278804, Note_on_c, 14, 53, 0
19, 278820, Note_on_c, 14, 65, 52
19, 278864, Note_on_c, 14, 65, 0
19, 278880, Note_on_c, 14, 65, 53
19, 278984, Note_on_c, 14, 65, 0
19, 279000, Note_on_c, 14, 62, 56
19, 279119, Note_on_c, 14, 62, 0
19, 279360, Note_on_c, 14, 46, 64
19, 279524, Note_on_c, 14, 46, 0
19, 279540, Note_on_c, 14, 58, 68
19, 279584, Note_on_c, 14, 58, 0
19, 279600, Note_on_c, 14, 58, 69
19, 279704, Note_on_c, 14, 58, 0
19, 279720, Note_on_c, 14, 55, 72
19, 279839, Note_on_c, 14, 55, 0
19, 280080, Note_on_c, 14, 46, 80
19, 280244, Note_on_c, 14, 46, 0
19, 280260, Note_on_c, 14, 58, 80
19, 280304, Note_on_c, 14, 58, 0
19, 280320, Note_on_c, 14, 58, 80
19, 280424, Note_on_c, 14, 58, 0
19, 280440, Note_on_c, 14, 57, 92
19, 280559, Note_on_c, 14, 57, 0
19, 281160, Note_on_c, 14, 49, 32
19, 281249, Note_on_c, 14, 49, 0
19, 281280, Note_on_c, 14, 50, 32
19, 281369, Note_on_c, 14, 50, 0
19, 281400, Note_on_c, 14, 52, 32
19, 281504, Note_on_c, 14, 52, 0
19, 281520, Note_on_c, 14, 53, 32
19, 281609, Note_on_c, 14, 53, 0
19, 281640, Note_on_c, 14, 52, 32
19, 281729, Note_on_c, 14, 52, 0
19, 281760, Note_on_c, 14, 50, 32
19, 281849, Note_on_c, 14, 50, 0
19, 281880, Note_on_c, 14, 48, 32
19, 281969, Note_on_c, 14, 48, 0
19, 282000, Note_on_c, 14, 46, 32
19, 282089, Note_on_c, 14, 46, 0
19, 282120, Note_on_c, 14, 45, 32
19, 282209, Note_on_c, 14, 45, 0
19, 282240, Note_on_c, 14, 43, 32
19, 282329, Note_on_c, 14, 43, 0
19, 282360, Note_on_c, 14, 45, 32
19, 282449, Note_on_c, 14, 45, 0
19, 282480, Note_on_c, 14, 46, 32
19, 282569, Note_on_c, 14, 46, 0
19, 282600, Note_on_c, 14, 49, 32
19, 282689, Note_on_c, 14, 49, 0
19, 282720, Note_on_c, 14, 50, 32
19, 282809, Note_on_c, 14, 50, 0
19, 282840, Note_on_c, 14, 52, 32
19, 282944, Note_on_c, 14, 52, 0
19, 282960, Note_on_c, 14, 53, 32
19, 283049, Note_on_c, 14, 53, 0
19, 283080, Note_on_c, 14, 52, 32
19, 283169, Note_on_c, 14, 52, 0
19, 283200, Note_on_c, 14, 50, 32
19, 283289, Note_on_c, 14, 50, 0
19, 283320, Note_on_c, 14, 48, 32
19, 283409, Note_on_c, 14, 48, 0
19, 283440, Note_on_c, 14, 46, 32
19, 283529, Note_on_c, 14, 46, 0
19, 283560, Note_on_c, 14, 45, 32
19, 283649, Note_on_c, 14, 45, 0
19, 283680, Note_on_c, 14, 43, 32
19, 283769, Note_on_c, 14, 43, 0
19, 283800, Note_on_c, 14, 45, 32
19, 283889, Note_on_c, 14, 45, 0
19, 283920, Note_on_c, 14, 46, 32
19, 284009, Note_on_c, 14, 46, 0
19, 284040, Note_on_c, 14, 57, 32
19, 284204, Note_on_c, 14, 57, 0
19, 284220, Note_on_c, 14, 45, 35
19, 284264, Note_on_c, 14, 45, 0
19, 284280, Note_on_c, 14, 45, 37
19, 284384, Note_on_c, 14, 45, 0
19, 284400, Note_on_c, 14, 50, 39
19, 284489, Note_on_c, 14, 50, 0
19, 284520, Note_on_c, 14, 52, 42
19, 284609, Note_on_c, 14, 52, 0
19, 284640, Note_on_c, 14, 53, 44
19, 284729, Note_on_c, 14, 53, 0
19, 284760, Note_on_c, 14, 57, 47
19, 284924, Note_on_c, 14, 57, 0
19, 284940, Note_on_c, 14, 45, 50
19, 284984, Note_on_c, 14, 45, 0
19, 285000, Note_on_c, 14, 45, 52
19, 285104, Note_on_c, 14, 45, 0
19, 285120, Note_on_c, 14, 50, 54
19, 285209, Note_on_c, 14, 50, 0
19, 285240, Note_on_c, 14, 52, 57
19, 285329, Note_on_c, 14, 52, 0
19, 285360, Note_on_c, 14, 53, 59
19, 285449, Note_on_c, 14, 53, 0
19, 285480, Note_on_c, 14, 57, 62
19, 285644, Note_on_c, 14, 57, 0
19, 285660, Note_on_c, 14, 45, 65
19, 285704, Note_on_c, 14, 45, 0
19, 285720, Note_on_c, 14, 45, 67
19, 285824, Note_on_c, 14, 45, 0
19, 285840, Note_on_c, 14, 50, 69
19, 285929, Note_on_c, 14, 50, 0
19, 285960, Note_on_c, 14, 52, 72
19, 286049, Note_on_c, 14, 52, 0
19, 286080, Note_on_c, 14, 53, 74
19, 286169, Note_on_c, 14, 53, 0
19, 286200, Note_on_c, 14, 57, 77
19, 286364, Note_on_c, 14, 57, 0
19, 286380, Note_on_c, 14, 45, 80
19, 286424, Note_on_c, 14, 45, 0
19, 286440, Note_on_c, 14, 45, 82
19, 286544, Note_on_c, 14, 45, 0
19, 286560, Note_on_c, 14, 50, 84
19, 286649, Note_on_c, 14, 50, 0
19, 286680, Note_on_c, 14, 52, 87
19, 286769, Note_on_c, 14, 52, 0
19, 286800, Note_on_c, 14, 53, 89
19, 286889, Note_on_c, 14, 53, 0
19, 286920, Note_on_c, 14, 69, 92
19, 287009, Note_on_c, 14, 69, 0
19, 287040, Note_on_c, 14, 57, 92
19, 287129, Note_on_c, 14, 57, 0
19, 287160, Note_on_c, 14, 62, 80
19, 287249, Note_on_c, 14, 62, 0
19, 287280, Note_on_c, 14, 50, 80
19, 287369, Note_on_c, 14, 50, 0
19, 287400, Note_on_c, 14, 57, 80
19, 287489, Note_on_c, 14, 57, 0
19, 287520, Note_on_c, 14, 45, 80
19, 287609, Note_on_c, 14, 45, 0
19, 287640, Note_on_c, 14, 57, 80
19, 287729, Note_on_c, 14, 57, 0
19, 287760, Note_on_c, 14, 45, 80
19, 287849, Note_on_c, 14, 45, 0
19, 287880, Note_on_c, 14, 50, 80
19, 287969, Note_on_c, 14, 50, 0
19, 295800, Note_on_c, 14, 50, 44
19, 295919, Note_on_c, 14, 50, 0
19, 295920, Note_on_c, 14, 52, 44
19, 296039, Note_on_c, 14, 52, 0
19, 296040, Note_on_c, 14, 54, 44
19, 296159, Note_on_c, 14, 54, 0
19, 296160, Note_on_c, 14, 55, 44
19, 296279, Note_on_c, 14, 55, 0
19, 296280, Note_on_c, 14, 57, 44
19, 296399, Note_on_c, 14, 57, 0
19, 296400, Note_on_c, 14, 59, 44
19, 296499, Note_on_c, 14, 59, 0
19, 296520, Note_on_c, 14, 59, 44
19, 296639, Note_on_c, 14, 59, 0
19, 296640, Note_on_c, 14, 57, 44
19, 296759, Note_on_c, 14, 57, 0
19, 296760, Note_on_c, 14, 59, 44
19, 296879, Note_on_c, 14, 59, 0
19, 296880, Note_on_c, 14, 61, 45
19, 296999, Note_on_c, 14, 61, 0
19, 297000, Note_on_c, 14, 62, 47
19, 297119, Note_on_c, 14, 62, 0
19, 297120, Note_on_c, 14, 61, 49
19, 297239, Note_on_c, 14, 61, 0
19, 297240, Note_on_c, 14, 62, 50
19, 297359, Note_on_c, 14, 62, 0
19, 297360, Note_on_c, 14, 64, 52
19, 297459, Note_on_c, 14, 64, 0
19, 297480, Note_on_c, 14, 62, 54
19, 297599, Note_on_c, 14, 62, 0
19, 297600, Note_on_c, 14, 61, 56
19, 297719, Note_on_c, 14, 61, 0
19, 297720, Note_on_c, 14, 62, 57
19, 297839, Note_on_c, 14, 62, 0
19, 297840, Note_on_c, 14, 64, 59
19, 297959, Note_on_c, 14, 64, 0
19, 297960, Note_on_c, 14, 66, 61
19, 298079, Note_on_c, 14, 66, 0
19, 298080, Note_on_c, 14, 64, 62
19, 298199, Note_on_c, 14, 64, 0
19, 298200, Note_on_c, 14, 66, 64
19, 298319, Note_on_c, 14, 66, 0
19, 298320, Note_on_c, 14, 67, 66
19, 298419, Note_on_c, 14, 67, 0
19, 298440, Note_on_c, 14, 69, 68
19, 298679, Note_on_c, 14, 69, 0
19, 298680, Note_on_c, 14, 71, 68
19, 298799, Note_on_c, 14, 71, 0
19, 298800, Note_on_c, 14, 67, 56
19, 298899, Note_on_c, 14, 67, 0
19, 298920, Note_on_c, 14, 66, 44
19, 299039, Note_on_c, 14, 66, 0
19, 299160, Note_on_c, 14, 64, 44
19, 299279, Note_on_c, 14, 64, 0
19, 299400, Note_on_c, 14, 62, 44
19, 299519, Note_on_c, 14, 62, 0
19, 299640, Note_on_c, 14, 50, 44
19, 299759, Note_on_c, 14, 50, 0
19, 299760, Note_on_c, 14, 52, 44
19, 299879, Note_on_c, 14, 52, 0
19, 299880, Note_on_c, 14, 54, 44
19, 299999, Note_on_c, 14, 54, 0
19, 300000, Note_on_c, 14, 55, 44
19, 300119, Note_on_c, 14, 55, 0
19, 300120, Note_on_c, 14, 57, 44
19, 300239, Note_on_c, 14, 57, 0
19, 300240, Note_on_c, 14, 59, 44
19, 300339, Note_on_c, 14, 59, 0
19, 300360, Note_on_c, 14, 59, 44
19, 300479, Note_on_c, 14, 59, 0
19, 300480, Note_on_c, 14, 57, 44
19, 300599, Note_on_c, 14, 57, 0
19, 300600, Note_on_c, 14, 59, 44
19, 300719, Note_on_c, 14, 59, 0
19, 300720, Note_on_c, 14, 61, 45
19, 300839, Note_on_c, 14, 61, 0
19, 300840, Note_on_c, 14, 62, 47
19, 300959, Note_on_c, 14, 62, 0
19, 300960, Note_on_c, 14, 61, 49
19, 301079, Note_on_c, 14, 61, 0
19, 301080, Note_on_c, 14, 62, 50
19, 301199, Note_on_c, 14, 62, 0
19, 301200, Note_on_c, 14, 64, 52
19, 301299, Note_on_c, 14, 64, 0
19, 301320, Note_on_c, 14, 62, 54
19, 301439, Note_on_c, 14, 62, 0
19, 301440, Note_on_c, 14, 61, 56
19, 301559, Note_on_c, 14, 61, 0
19, 301560, Note_on_c, 14, 62, 57
19, 301679, Note_on_c, 14, 62, 0
19, 301680, Note_on_c, 14, 64, 59
19, 301799, Note_on_c, 14, 64, 0
19, 301800, Note_on_c, 14, 66, 61
19, 301919, Note_on_c, 14, 66, 0
19, 301920, Note_on_c, 14, 64, 62
19, 302039, Note_on_c, 14, 64, 0
19, 302040, Note_on_c, 14, 66, 64
19, 302159, Note_on_c, 14, 66, 0
19, 302160, Note_on_c, 14, 67, 66
19, 302259, Note_on_c, 14, 67, 0
19, 302280, Note_on_c, 14, 69, 68
19, 302519, Note_on_c, 14, 69, 0
19, 302520, Note_on_c, 14, 71, 68
19, 302639, Note_on_c, 14, 71, 0
19, 302640, Note_on_c, 14, 67, 56
19, 302739, Note_on_c, 14, 67, 0
19, 302760, Note_on_c, 14, 66, 44
19, 302879, Note_on_c, 14, 66, 0
19, 303000, Note_on_c, 14, 64, 44
19, 303119, Note_on_c, 14, 64, 0
19, 303240, Note_on_c, 14, 62, 44
19, 303359, Note_on_c, 14, 62, 0
19, 307320, Note_on_c, 14, 62, 44
19, 307409, Note_on_c, 14, 62, 0
19, 307440, Note_on_c, 14, 61, 44
19, 307529, Note_on_c, 14, 61, 0
19, 307560, Note_on_c, 14, 62, 44
19, 307649, Note_on_c, 14, 62, 0
19, 307680, Note_on_c, 14, 59, 44
19, 307769, Note_on_c, 14, 59, 0
19, 307800, Note_on_c, 14, 57, 44
19, 307889, Note_on_c, 14, 57, 0
19, 307920, Note_on_c, 14, 55, 44
19, 308009, Note_on_c, 14, 55, 0
19, 308040, Note_on_c, 14, 54, 44
19, 308129, Note_on_c, 14, 54, 0
19, 308160, Note_on_c, 14, 52, 44
19, 308249, Note_on_c, 14, 52, 0
19, 308280, Note_on_c, 14, 50, 44
19, 308369, Note_on_c, 14, 50, 0
19, 308400, Note_on_c, 14, 48, 44
19, 308489, Note_on_c, 14, 48, 0
19, 308520, Note_on_c, 14, 47, 44
19, 308609, Note_on_c, 14, 47, 0
19, 308640, Note_on_c, 14, 49, 44
19, 308729, Note_on_c, 14, 49, 0
19, 308760, Note_on_c, 14, 50, 44
19, 308849, Note_on_c, 14, 50, 0
19, 308880, Note_on_c, 14, 54, 44
19, 308969, Note_on_c, 14, 54, 0
19, 309000, Note_on_c, 14, 57, 44
19, 309089, Note_on_c, 14, 57, 0
19, 309120, Note_on_c, 14, 55, 44
19, 309209, Note_on_c, 14, 55, 0
19, 309240, Note_on_c, 14, 54, 44
19, 309329, Note_on_c, 14, 54, 0
19, 321000, Note_on_c, 14, 50, 80
19, 321059, Note_on_c, 14, 50, 0
19, 321060, Note_on_c, 14, 50, 44
19, 321119, Note_on_c, 14, 50, 0
19, 321240, Note_on_c, 14, 62, 44
19, 321329, Note_on_c, 14, 62, 0
19, 321360, Note_on_c, 14, 61, 44
19, 321449, Note_on_c, 14, 61, 0
19, 321480, Note_on_c, 14, 62, 44
19, 321569, Note_on_c, 14, 62, 0
19, 321600, Note_on_c, 14, 59, 45
19, 321689, Note_on_c, 14, 59, 0
19, 321720, Note_on_c, 14, 57, 46
19, 321809, Note_on_c, 14, 57, 0
19, 321840, Note_on_c, 14, 55, 47
19, 321929, Note_on_c, 14, 55, 0
19, 321960, Note_on_c, 14, 54, 48
19, 322049, Note_on_c, 14, 54, 0
19, 322080, Note_on_c, 14, 52, 50
19, 322169, Note_on_c, 14, 52, 0
19, 322200, Note_on_c, 14, 50, 51
19, 322289, Note_on_c, 14, 50, 0
19, 322320, Note_on_c, 14, 48, 52
19, 322409, Note_on_c, 14, 48, 0
19, 322440, Note_on_c, 14, 47, 53
19, 322529, Note_on_c, 14, 47, 0
19, 322560, Note_on_c, 14, 49, 54
19, 322649, Note_on_c, 14, 49, 0
19, 322680, Note_on_c, 14, 50, 56
19, 322769, Note_on_c, 14, 50, 0
19, 322800, Note_on_c, 14, 54, 57
19, 322889, Note_on_c, 14, 54, 0
19, 322920, Note_on_c, 14, 57, 58
19, 323009, Note_on_c, 14, 57, 0
19, 323040, Note_on_c, 14, 61, 59
19, 323129, Note_on_c, 14, 61, 0
19, 323160, Note_on_c, 14, 62, 60
19, 323249, Note_on_c, 14, 62, 0
19, 323280, Note_on_c, 14, 61, 62
19, 323369, Note_on_c, 14, 61, 0
19, 323400, Note_on_c, 14, 62, 63
19, 323489, Note_on_c, 14, 62, 0
19, 323520, Note_on_c, 14, 59, 64
19, 323609, Note_on_c, 14, 59, 0
19, 323640, Note_on_c, 14, 57, 65
19, 323729, Note_on_c, 14, 57, 0
19, 323760, Note_on_c, 14, 55, 66
19, 323849, Note_on_c, 14, 55, 0
19, 323880, Note_on_c, 14, 54, 68
19, 323969, Note_on_c, 14, 54, 0
19, 324000, Note_on_c, 14, 52, 69
19, 324089, Note_on_c, 14, 52, 0
19, 324120, Note_on_c, 14, 50, 70
19, 324209, Note_on_c, 14, 50, 0
19, 324240, Note_on_c, 14, 48, 71
19, 324329, Note_on_c, 14, 48, 0
19, 324360, Note_on_c, 14, 47, 72
19, 324449, Note_on_c, 14, 47, 0
19, 324480, Note_on_c, 14, 49, 74
19, 324569, Note_on_c, 14, 49, 0
19, 324600, Note_on_c, 14, 50, 75
19, 324689, Note_on_c, 14, 50, 0
19, 324720, Note_on_c, 14, 54, 76
19, 324809, Note_on_c, 14, 54, 0
19, 324840, Note_on_c, 14, 57, 77
19, 324929, Note_on_c, 14, 57, 0
19, 324960, Note_on_c, 14, 61, 78
19, 325049, Note_on_c, 14, 61, 0
19, 325080, Note_on_c, 14, 62, 80
19, 325169, Note_on_c, 14, 62, 0
19, 325200, Note_on_c, 14, 61, 80
19, 325289, Note_on_c, 14, 61, 0
19, 325320, Note_on_c, 14, 62, 80
19, 325409, Note_on_c, 14, 62, 0
19, 325440, Note_on_c, 14, 59, 80
19, 325529, Note_on_c, 14, 59, 0
19, 325560, Note_on_c, 14, 57, 80
19, 325649, Note_on_c, 14, 57, 0
19, 325680, Note_on_c, 14, 55, 80
19, 325769, Note_on_c, 14, 55, 0
19, 325800, Note_on_c, 14, 54, 80
19, 325889, Note_on_c, 14, 54, 0
19, 325920, Note_on_c, 14, 52, 80
19, 326009, Note_on_c, 14, 52, 0
19, 326040, Note_on_c, 14, 50, 80
19, 326129, Note_on_c, 14, 50, 0
19, 326160, Note_on_c, 14, 48, 80
19, 326249, Note_on_c, 14, 48, 0
19, 326280, Note_on_c, 14, 47, 80
19, 326369, Note_on_c, 14, 47, 0
19, 326400, Note_on_c, 14, 49, 80
19, 326489, Note_on_c, 14, 49, 0
19, 326520, Note_on_c, 14, 50, 80
19, 326609, Note_on_c, 14, 50, 0
19, 326640, Note_on_c, 14, 54, 80
19, 326729, Note_on_c, 14, 54, 0
19, 326760, Note_on_c, 14, 57, 80
19, 326849, Note_on_c, 14, 57, 0
19, 326880, Note_on_c, 14, 61, 80
19, 326969, Note_on_c, 14, 61, 0
19, 327000, Note_on_c, 14, 62, 80
19, 327089, Note_on_c, 14, 62, 0
19, 327120, Note_on_c, 14, 61, 80
19, 327209, Note_on_c, 14, 61, 0
19, 327240, Note_on_c, 14, 62, 80
19, 327329, Note_on_c, 14, 62, 0
19, 327360, Note_on_c, 14, 59, 80
19, 327449, Note_on_c, 14, 59, 0
19, 327480, Note_on_c, 14, 57, 80
19, 327569, Note_on_c, 14, 57, 0
19, 327600, Note_on_c, 14, 55, 80
19, 327689, Note_on_c, 14, 55, 0
19, 327720, Note_on_c, 14, 54, 80
19, 327809, Note_on_c, 14, 54, 0
19, 327840, Note_on_c, 14, 52, 80
19, 327929, Note_on_c, 14, 52, 0
19, 327960, Note_on_c, 14, 50, 80
19, 328049, Note_on_c, 14, 50, 0
19, 328080, Note_on_c, 14, 48, 80
19, 328169, Note_on_c, 14, 48, 0
19, 328200, Note_on_c, 14, 47, 80
19, 328289, Note_on_c, 14, 47, 0
19, 328320, Note_on_c, 14, 43, 80
19, 328409, Note_on_c, 14, 43, 0
19, 328440, Note_on_c, 14, 45, 80
19, 328529, Note_on_c, 14, 45, 0
19, 328560, Note_on_c, 14, 57, 80
19, 328649, Note_on_c, 14, 57, 0
19, 328680, Note_on_c, 14, 50, 80
19, 328799, Note_on_c, 14, 50, 0
19, 328920, Note_on_c, 14, 50, 44
19, 329039, Note_on_c, 14, 50, 0
19, 329040, Note_on_c, 14, 52, 44
19, 329159, Note_on_c, 14, 52, 0
19, 329160, Note_on_c, 14, 54, 44
19, 329279, Note_on_c, 14, 54, 0
19, 329280, Note_on_c, 14, 55, 44
19, 329399, Note_on_c, 14, 55, 0
19, 329400, Note_on_c, 14, 57, 44
19, 329519, Note_on_c, 14, 57, 0
19, 329520, Note_on_c, 14, 59, 44
19, 329619, Note_on_c, 14, 59, 0
19, 329640, Note_on_c, 14, 59, 44
19, 329759, Note_on_c, 14, 59, 0
19, 329760, Note_on_c, 14, 57, 44
19, 329879, Note_on_c, 14, 57, 0
19, 329880, Note_on_c, 14, 59, 44
19, 329999, Note_on_c, 14, 59, 0
19, 330000, Note_on_c, 14, 61, 45
19, 330119, Note_on_c, 14, 61, 0
19, 330120, Note_on_c, 14, 62, 47
19, 330239, Note_on_c, 14, 62, 0
19, 330240, Note_on_c, 14, 61, 49
19, 330359, Note_on_c, 14, 61, 0
19, 330360, Note_on_c, 14, 62, 50
19, 330479, Note_on_c, 14, 62, 0
19, 330480, Note_on_c, 14, 64, 52
19, 330579, Note_on_c, 14, 64, 0
19, 330600, Note_on_c, 14, 62, 54
19, 330719, Note_on_c, 14, 62, 0
19, 330720, Note_on_c, 14, 61, 56
19, 330839, Note_on_c, 14, 61, 0
19, 330840, Note_on_c, 14, 62, 57
19, 330959, Note_on_c, 14, 62, 0
19, 330960, Note_on_c, 14, 64, 59
19, 331079, Note_on_c, 14, 64, 0
19, 331080, Note_on_c, 14, 66, 61
19, 331199, Note_on_c, 14, 66, 0
19, 331200, Note_on_c, 14, 64, 62
19, 331319, Note_on_c, 14, 64, 0
19, 331320, Note_on_c, 14, 66, 64
19, 331439, Note_on_c, 14, 66, 0
19, 331440, Note_on_c, 14, 67, 66
19, 331539, Note_on_c, 14, 67, 0
19, 331560, Note_on_c, 14, 69, 68
19, 331799, Note_on_c, 14, 69, 0
19, 331800, Note_on_c, 14, 71, 68
19, 331919, Note_on_c, 14, 71, 0
19, 331920, Note_on_c, 14, 67, 56
19, 332019, Note_on_c, 14, 67, 0
19, 332040, Note_on_c, 14, 66, 44
19, 332159, Note_on_c, 14, 66, 0
19, 332280, Note_on_c, 14, 64, 44
19, 332399, Note_on_c, 14, 64, 0
19, 332520, Note_on_c, 14, 62, 44
19, 332639, Note_on_c, 14, 62, 0
19, 332760, Note_on_c, 14, 50, 44
19, 332879, Note_on_c, 14, 50, 0
19, 332880, Note_on_c, 14, 52, 44
19, 332999, Note_on_c, 14, 52, 0
19, 333000, Note_on_c, 14, 54, 44
19, 333119, Note_on_c, 14, 54, 0
19, 333120, Note_on_c, 14, 55, 44
19, 333239, Note_on_c, 14, 55, 0
19, 333240, Note_on_c, 14, 57, 44
19, 333359, Note_on_c, 14, 57, 0
19, 333360, Note_on_c, 14, 59, 44
19, 333459, Note_on_c, 14, 59, 0
19, 333480, Note_on_c, 14, 59, 44
19, 333599, Note_on_c, 14, 59, 0
19, 333600, Note_on_c, 14, 57, 44
19, 333719, Note_on_c, 14, 57, 0
19, 333720, Note_on_c, 14, 59, 44
19, 333839, Note_on_c, 14, 59, 0
19, 333840, Note_on_c, 14, 61, 45
19, 333959, Note_on_c, 14, 61, 0
19, 333960, Note_on_c, 14, 62, 47
19, 334079, Note_on_c, 14, 62, 0
19, 334080, Note_on_c, 14, 61, 49
19, 334199, Note_on_c, 14, 61, 0
19, 334200, Note_on_c, 14, 62, 50
19, 334319, Note_on_c, 14, 62, 0
19, 334320, Note_on_c, 14, 64, 52
19, 334419, Note_on_c, 14, 64, 0
19, 334440, Note_on_c, 14, 62, 54
19, 334559, Note_on_c, 14, 62, 0
19, 334560, Note_on_c, 14, 61, 56
19, 334679, Note_on_c, 14, 61, 0
19, 334680, Note_on_c, 14, 62, 57
19, 334799, Note_on_c, 14, 62, 0
19, 334800, Note_on_c, 14, 64, 59
19, 334919, Note_on_c, 14, 64, 0
19, 334920, Note_on_c, 14, 66, 61
19, 335039, Note_on_c, 14, 66, 0
19, 335040, Note_on_c, 14, 64, 62
19, 335159, Note_on_c, 14, 64, 0
19, 335160, Note_on_c, 14, 66, 64
19, 335279, Note_on_c, 14, 66, 0
19, 335280, Note_on_c, 14, 67, 66
19, 335379, Note_on_c, 14, 67, 0
19, 335400, Note_on_c, 14, 69, 68
19, 335639, Note_on_c, 14, 69, 0
19, 335640, Note_on_c, 14, 71, 68
19, 335759, Note_on_c, 14, 71, 0
19, 335760, Note_on_c, 14, 67, 56
19, 335859, Note_on_c, 14, 67, 0
19, 335880, Note_on_c, 14, 66, 44
19, 335999, Note_on_c, 14, 66, 0
19, 336120, Note_on_c, 14, 64, 44
19, 336239, Note_on_c, 14, 64, 0
19, 336360, Note_on_c, 14, 62, 44
19, 336479, Note_on_c, 14, 62, 0
19, 340440, Note_on_c, 14, 62, 44
19, 340529, Note_on_c, 14, 62, 0
19, 340560, Note_on_c, 14, 61, 44
19, 340649, Note_on_c, 14, 61, 0
19, 340680, Note_on_c, 14, 62, 44
19, 340769, Note_on_c, 14, 62, 0
19, 340800, Note_on_c, 14, 59, 44
19, 340889, Note_on_c, 14, 59, 0
19, 340920, Note_on_c, 14, 57, 44
19, 341009, Note_on_c, 14, 57, 0
19, 341040, Note_on_c, 14, 55, 44
19, 341129, Note_on_c, 14, 55, 0
19, 341160, Note_on_c, 14, 54, 44
19, 341249, Note_on_c, 14, 54, 0
19, 341280, Note_on_c, 14, 52, 44
19, 341369, Note_on_c, 14, 52, 0
19, 341400, Note_on_c, 14, 50, 44
19, 341489, Note_on_c, 14, 50, 0
19, 341520, Note_on_c, 14, 48, 44
19, 341609, Note_on_c, 14, 48, 0
19, 341640, Note_on_c, 14, 47, 44
19, 341729, Note_on_c, 14, 47, 0
19, 341760, Note_on_c, 14, 49, 44
19, 341849, Note_on_c, 14, 49, 0
19, 341880, Note_on_c, 14, 50, 44
19, 341969, Note_on_c, 14, 50, 0
19, 342000, Note_on_c, 14, 54, 44
19, 342089, Note_on_c, 14, 54, 0
19, 342120, Note_on_c, 14, 57, 44
19, 342209, Note_on_c, 14, 57, 0
19, 342240, Note_on_c, 14, 55, 44
19, 342329, Note_on_c, 14, 55, 0
19, 342360, Note_on_c, 14, 54, 44
19, 342449, Note_on_c, 14, 54, 0
19, 354120, Note_on_c, 14, 50, 80
19, 354179, Note_on_c, 14, 50, 0
19, 354180, Note_on_c, 14, 50, 44
19, 354239, Note_on_c, 14, 50, 0
19, 354360, Note_on_c, 14, 62, 44
19, 354449, Note_on_c, 14, 62, 0
19, 354480, Note_on_c, 14, 61, 44
19, 354569, Note_on_c, 14, 61, 0
19, 354600, Note_on_c, 14, 62, 44
19, 354689, Note_on_c, 14, 62, 0
19, 354720, Note_on_c, 14, 59, 45
19, 354809, Note_on_c, 14, 59, 0
19, 354840, Note_on_c, 14, 57, 46
19, 354929, Note_on_c, 14, 57, 0
19, 354960, Note_on_c, 14, 55, 47
19, 355049, Note_on_c, 14, 55, 0
19, 355080, Note_on_c, 14, 54, 48
19, 355169, Note_on_c, 14, 54, 0
19, 355200, Note_on_c, 14, 52, 50
19, 355289, Note_on_c, 14, 52, 0
19, 355320, Note_on_c, 14, 50, 51
19, 355409, Note_on_c, 14, 50, 0
19, 355440, Note_on_c, 14, 48, 52
19, 355529, Note_on_c, 14, 48, 0
19, 355560, Note_on_c, 14, 47, 53
19, 355649, Note_on_c, 14, 47, 0
19, 355680, Note_on_c, 14, 49, 54
19, 355769, Note_on_c, 14, 49, 0
19, 355800, Note_on_c, 14, 50, 56
19, 355889, Note_on_c, 14, 50, 0
19, 355920, Note_on_c, 14, 54, 57
19, 356009, Note_on_c, 14, 54, 0
19, 356040, Note_on_c, 14, 57, 58
19, 356129, Note_on_c, 14, 57, 0
19, 356160, Note_on_c, 14, 61, 59
19, 356249, Note_on_c, 14, 61, 0
19, 356280, Note_on_c, 14, 62, 60
19, 356369, Note_on_c, 14, 62, 0
19, 356400, Note_on_c, 14, 61, 62
19, 356489, Note_on_c, 14, 61, 0
19, 356520, Note_on_c, 14, 62, 63
19, 356609, Note_on_c, 14, 62, 0
19, 356640, Note_on_c, 14, 59, 64
19, 356729, Note_on_c, 14, 59, 0
19, 356760, Note_on_c, 14, 57, 65
19, 356849, Note_on_c, 14, 57, 0
19, 356880, Note_on_c, 14, 55, 66
19, 356969, Note_on_c, 14, 55, 0
19, 357000, Note_on_c, 14, 54, 68
19, 357089, Note_on_c, 14, 54, 0
19, 357120, Note_on_c, 14, 52, 69
19, 357209, Note_on_c, 14, 52, 0
19, 357240, Note_on_c, 14, 50, 70
19, 357329, Note_on_c, 14, 50, 0
19, 357360, Note_on_c, 14, 48, 71
19, 357449, Note_on_c, 14, 48, 0
19, 357480, Note_on_c, 14, 47, 72
19, 357569, Note_on_c, 14, 47, 0
19, 357600, Note_on_c, 14, 49, 74
19, 357689, Note_on_c, 14, 49, 0
19, 357720, Note_on_c, 14, 50, 75
19, 357809, Note_on_c, 14, 50, 0
19, 357840, Note_on_c, 14, 54, 76
19, 357929, Note_on_c, 14, 54, 0
19, 357960, Note_on_c, 14, 57, 77
19, 358049, Note_on_c, 14, 57, 0
19, 358080, Note_on_c, 14, 61, 78
19, 358169, Note_on_c, 14, 61, 0
19, 358200, Note_on_c, 14, 62, 80
19, 358289, Note_on_c, 14, 62, 0
19, 358320, Note_on_c, 14, 61, 80
19, 358409, Note_on_c, 14, 61, 0
19, 358440, Note_on_c, 14, 62, 80
19, 358529, Note_on_c, 14, 62, 0
19, 358560, Note_on_c, 14, 59, 80
19, 358649, Note_on_c, 14, 59, 0
19, 358680, Note_on_c, 14, 57, 80
19, 358769, Note_on_c, 14, 57, 0
19, 358800, Note_on_c, 14, 55, 80
19, 358889, Note_on_c, 14, 55, 0
19, 358920, Note_on_c, 14, 54, 80
19, 359009, Note_on_c, 14, 54, 0
19, 359040, Note_on_c, 14, 52, 80
19, 359129, Note_on_c, 14, 52, 0
19, 359160, Note_on_c, 14, 50, 80
19, 359249, Note_on_c, 14, 50, 0
19, 359280, Note_on_c, 14, 48, 80
19, 359369, Note_on_c, 14, 48, 0
19, 359400, Note_on_c, 14, 47, 80
19, 359489, Note_on_c, 14, 47, 0
19, 359520, Note_on_c, 14, 49, 80
19, 359609, Note_on_c, 14, 49, 0
19, 359640, Note_on_c, 14, 50, 80
19, 359729, Note_on_c, 14, 50, 0
19, 359760, Note_on_c, 14, 54, 80
19, 359849, Note_on_c, 14, 54, 0
19, 359880, Note_on_c, 14, 57, 80
19, 359969, Note_on_c, 14, 57, 0
19, 360000, Note_on_c, 14, 61, 80
19, 360089, Note_on_c, 14, 61, 0
19, 360120, Note_on_c, 14, 62, 80
19, 360209, Note_on_c, 14, 62, 0
19, 360240, Note_on_c, 14, 61, 80
19, 360329, Note_on_c, 14, 61, 0
19, 360360, Note_on_c, 14, 62, 80
19, 360449, Note_on_c, 14, 62, 0
19, 360480, Note_on_c, 14, 59, 80
19, 360569, Note_on_c, 14, 59, 0
19, 360600, Note_on_c, 14, 57, 80
19, 360689, Note_on_c, 14, 57, 0
19, 360720, Note_on_c, 14, 55, 80
19, 360809, Note_on_c, 14, 55, 0
19, 360840, Note_on_c, 14, 54, 80
19, 360929, Note_on_c, 14, 54, 0
19, 360960, Note_on_c, 14, 52, 80
19, 361049, Note_on_c, 14, 52, 0
19, 361080, Note_on_c, 14, 50, 80
19, 361169, Note_on_c, 14, 50, 0
19, 361200, Note_on_c, 14, 48, 80
19, 361289, Note_on_c, 14, 48, 0
19, 361320, Note_on_c, 14, 47, 80
19, 361409, Note_on_c, 14, 47, 0
19, 361440, Note_on_c, 14, 43, 80
19, 361529, Note_on_c, 14, 43, 0
19, 361560, Note_on_c, 14, 45, 80
19, 361649, Note_on_c, 14, 45, 0
19, 361680, Note_on_c, 14, 57, 80
19, 361769, Note_on_c, 14, 57, 0
19, 361800, Note_on_c, 14, 50, 80
19, 361860, Control_c, 14, 11, 67
19, 362499, Note_on_c, 14, 50, 0
19, 362520, Note_on_c, 14, 52, 80
19, 362739, Note_on_c, 14, 52, 0
19, 362760, Note_on_c, 14, 54, 80
19, 363119, Note_on_c, 14, 54, 0
19, 363120, Note_on_c, 14, 55, 80
19, 363179, Note_on_c, 14, 55, 0
19, 363180, Note_on_c, 14, 57, 80
19, 363219, Note_on_c, 14, 57, 0
19, 363240, Note_on_c, 14, 55, 80
19, 363329, Note_on_c, 14, 55, 0
19, 363360, Note_on_c, 14, 55, 80
19, 363449, Note_on_c, 14, 55, 0
19, 363480, Note_on_c, 14, 54, 80
19, 363569, Note_on_c, 14, 54, 0
19, 363600, Note_on_c, 14, 54, 80
19, 363689, Note_on_c, 14, 54, 0
19, 363720, Control_c, 14, 11, 67
19, 363720, Note_on_c, 14, 52, 80
19, 363784, Control_c, 14, 11, 68
19, 363848, Control_c, 14, 11, 69
19, 363912, Control_c, 14, 11, 70
19, 363939, Note_on_c, 14, 52, 0
19, 363960, Note_on_c, 14, 50, 80
19, 363976, Control_c, 14, 11, 71
19, 364040, Control_c, 14, 11, 72
19, 364104, Control_c, 14, 11, 73
19, 364168, Control_c, 14, 11, 74
19, 364232, Control_c, 14, 11, 75
19, 364296, Control_c, 14, 11, 76
19, 364360, Control_c, 14, 11, 77
19, 364419, Note_on_c, 14, 50, 0
19, 364424, Control_c, 14, 11, 78
19, 364440, Note_on_c, 14, 52, 80
19, 364488, Control_c, 14, 11, 79
19, 364552, Control_c, 14, 11, 80
19, 364616, Control_c, 14, 11, 81
19, 364659, Note_on_c, 14, 52, 0
19, 364680, Note_on_c, 14, 54, 80
19, 364680, Control_c, 14, 11, 82
19, 364744, Control_c, 14, 11, 83
19, 364808, Control_c, 14, 11, 84
19, 364872, Control_c, 14, 11, 85
19, 364899, Note_on_c, 14, 54, 0
19, 364920, Note_on_c, 14, 54, 80
19, 364936, Control_c, 14, 11, 86
19, 365000, Control_c, 14, 11, 87
19, 365064, Control_c, 14, 11, 88
19, 365128, Control_c, 14, 11, 89
19, 365192, Control_c, 14, 11, 90
19, 365256, Control_c, 14, 11, 91
19, 365320, Control_c, 14, 11, 92
19, 365379, Note_on_c, 14, 54, 0
19, 365384, Control_c, 14, 11, 93
19, 365400, Note_on_c, 14, 55, 80
19, 365448, Control_c, 14, 11, 94
19, 365512, Control_c, 14, 11, 95
19, 365576, Control_c, 14, 11, 96
19, 365619, Note_on_c, 14, 55, 0
19, 365640, Note_on_c, 14, 57, 80
19, 365640, Control_c, 14, 11, 97
19, 365704, Control_c, 14, 11, 98
19, 365768, Control_c, 14, 11, 99
19, 365832, Control_c, 14, 11, 100
19, 365859, Note_on_c, 14, 57, 0
19, 365880, Note_on_c, 14, 57, 80
19, 365896, Control_c, 14, 11, 101
19, 365960, Control_c, 14, 11, 102
19, 366024, Control_c, 14, 11, 103
19, 366088, Control_c, 14, 11, 104
19, 366152, Control_c, 14, 11, 105
19, 366216, Control_c, 14, 11, 106
19, 366280, Control_c, 14, 11, 107
19, 366339, Note_on_c, 14, 57, 0
19, 366344, Control_c, 14, 11, 108
19, 366360, Note_on_c, 14, 55, 80
19, 366408, Control_c, 14, 11, 109
19, 366472, Control_c, 14, 11, 110
19, 366536, Control_c, 14, 11, 111
19, 366579, Note_on_c, 14, 55, 0
19, 366600, Note_on_c, 14, 54, 80
19, 366600, Control_c, 14, 11, 112
19, 366664, Control_c, 14, 11, 113
19, 366728, Control_c, 14, 11, 114
19, 366792, Control_c, 14, 11, 115
19, 366819, Note_on_c, 14, 54, 0
19, 366840, Note_on_c, 14, 54, 80
19, 366856, Control_c, 14, 11, 116
19, 366920, Control_c, 14, 11, 117
19, 366984, Control_c, 14, 11, 118
19, 367048, Control_c, 14, 11, 119
19, 367112, Control_c, 14, 11, 120
19, 367176, Control_c, 14, 11, 121
19, 367240, Control_c, 14, 11, 122
19, 367299, Note_on_c, 14, 54, 0
19, 367304, Control_c, 14, 11, 123
19, 367320, Note_on_c, 14, 55, 80
19, 367368, Control_c, 14, 11, 124
19, 367432, Control_c, 14, 11, 125
19, 367496, Control_c, 14, 11, 127
19, 367539, Note_on_c, 14, 55, 0
19, 367560, Note_on_c, 14, 54, 80
19, 367739, Note_on_c, 14, 54, 0
19, 367800, Note_on_c, 14, 54, 80
19, 367979, Note_on_c, 14, 54, 0
19, 368040, Note_on_c, 14, 52, 80
19, 368219, Note_on_c, 14, 52, 0
19, 368280, Note_on_c, 14, 52, 80
19, 368459, Note_on_c, 14, 52, 0
19, 368520, Note_on_c, 14, 54, 80
19, 368520, Control_c, 14, 11, 127
19, 368560, Control_c, 14, 11, 125
19, 368600, Control_c, 14, 11, 122
19, 368640, Control_c, 14, 11, 120
19, 368680, Control_c, 14, 11, 117
19, 368699, Note_on_c, 14, 54, 0
19, 368720, Control_c, 14, 11, 115
19, 368760, Note_on_c, 14, 54, 80
19, 368760, Control_c, 14, 11, 112
19, 368800, Control_c, 14, 11, 110
19, 368840, Control_c, 14, 11, 107
19, 368880, Control_c, 14, 11, 105
19, 368920, Control_c, 14, 11, 102
19, 368939, Note_on_c, 14, 54, 0
19, 368960, Control_c, 14, 11, 100
19, 369000, Note_on_c, 14, 52, 80
19, 369000, Control_c, 14, 11, 97
19, 369040, Control_c, 14, 11, 95
19, 369080, Control_c, 14, 11, 92
19, 369120, Control_c, 14, 11, 90
19, 369160, Control_c, 14, 11, 87
19, 369179, Note_on_c, 14, 52, 0
19, 369200, Control_c, 14, 11, 85
19, 369240, Control_c, 14, 11, 82
19, 369240, Note_on_c, 14, 52, 80
19, 369280, Control_c, 14, 11, 80
19, 369320, Control_c, 14, 11, 77
19, 369360, Control_c, 14, 11, 75
19, 369400, Control_c, 14, 11, 72
19, 369419, Note_on_c, 14, 52, 0
19, 369440, Control_c, 14, 11, 70
19, 369472, Control_c, 14, 11, 67
19, 369480, Note_on_c, 14, 54, 80
19, 369699, Note_on_c, 14, 54, 0
19, 369720, Note_on_c, 14, 62, 80
19, 369720, Control_c, 14, 11, 67
19, 369780, Control_c, 14, 11, 68
19, 369809, Note_on_c, 14, 62, 0
19, 369840, Control_c, 14, 11, 69
19, 369840, Note_on_c, 14, 61, 80
19, 369900, Control_c, 14, 11, 70
19, 369929, Note_on_c, 14, 61, 0
19, 369960, Control_c, 14, 11, 71
19, 369960, Note_on_c, 14, 62, 80
19, 370020, Control_c, 14, 11, 72
19, 370049, Note_on_c, 14, 62, 0
19, 370080, Control_c, 14, 11, 73
19, 370080, Note_on_c, 14, 59, 80
19, 370140, Control_c, 14, 11, 74
19, 370169, Note_on_c, 14, 59, 0
19, 370200, Note_on_c, 14, 57, 80
19, 370200, Control_c, 14, 11, 75
19, 370260, Control_c, 14, 11, 76
19, 370289, Note_on_c, 14, 57, 0
19, 370320, Note_on_c, 14, 55, 80
19, 370320, Control_c, 14, 11, 77
19, 370380, Control_c, 14, 11, 78
19, 370409, Note_on_c, 14, 55, 0
19, 370440, Note_on_c, 14, 54, 80
19, 370440, Control_c, 14, 11, 79
19, 370500, Control_c, 14, 11, 80
19, 370529, Note_on_c, 14, 54, 0
19, 370560, Note_on_c, 14, 50, 80
19, 370560, Control_c, 14, 11, 81
19, 370620, Control_c, 14, 11, 82
19, 370649, Note_on_c, 14, 50, 0
19, 370680, Note_on_c, 14, 66, 80
19, 370680, Control_c, 14, 11, 83
19, 370740, Control_c, 14, 11, 84
19, 370769, Note_on_c, 14, 66, 0
19, 370800, Control_c, 14, 11, 85
19, 370800, Note_on_c, 14, 64, 80
19, 370860, Control_c, 14, 11, 86
19, 370889, Note_on_c, 14, 64, 0
19, 370920, Note_on_c, 14, 66, 80
19, 370920, Control_c, 14, 11, 87
19, 370980, Control_c, 14, 11, 88
19, 371009, Note_on_c, 14, 66, 0
19, 371040, Note_on_c, 14, 62, 80
19, 371040, Control_c, 14, 11, 89
19, 371100, Control_c, 14, 11, 90
19, 371129, Note_on_c, 14, 62, 0
19, 371160, Note_on_c, 14, 61, 80
19, 371160, Control_c, 14, 11, 91
19, 371220, Control_c, 14, 11, 92
19, 371249, Note_on_c, 14, 61, 0
19, 371280, Control_c, 14, 11, 93
19, 371280, Note_on_c, 14, 59, 80
19, 371340, Control_c, 14, 11, 94
19, 371369, Note_on_c, 14, 59, 0
19, 371400, Note_on_c, 14, 57, 80
19, 371400, Control_c, 14, 11, 95
19, 371460, Control_c, 14, 11, 96
19, 371489, Note_on_c, 14, 57, 0
19, 371520, Note_on_c, 14, 54, 80
19, 371520, Control_c, 14, 11, 97
19, 371580, Control_c, 14, 11, 98
19, 371609, Note_on_c, 14, 54, 0
19, 371640, Control_c, 14, 11, 99
19, 371640, Note_on_c, 14, 69, 80
19, 371700, Control_c, 14, 11, 100
19, 371729, Note_on_c, 14, 69, 0
19, 371760, Control_c, 14, 11, 101
19, 371760, Note_on_c, 14, 68, 80
19, 371820, Control_c, 14, 11, 102
19, 371849, Note_on_c, 14, 68, 0
19, 371880, Control_c, 14, 11, 103
19, 371880, Note_on_c, 14, 69, 80
19, 371940, Control_c, 14, 11, 104
19, 371969, Note_on_c, 14, 69, 0
19, 372000, Control_c, 14, 11, 105
19, 372000, Note_on_c, 14, 66, 80
19, 372060, Control_c, 14, 11, 106
19, 372089, Note_on_c, 14, 66, 0
19, 372120, Note_on_c, 14, 64, 80
19, 372120, Control_c, 14, 11, 107
19, 372180, Control_c, 14, 11, 108
19, 372209, Note_on_c, 14, 64, 0
19, 372240, Control_c, 14, 11, 109
19, 372240, Note_on_c, 14, 62, 80
19, 372300, Control_c, 14, 11, 110
19, 372329, Note_on_c, 14, 62, 0
19, 372360, Control_c, 14, 11, 111
19, 372360, Note_on_c, 14, 57, 80
19, 372420, Control_c, 14, 11, 112
19, 372449, Note_on_c, 14, 57, 0
19, 372480, Control_c, 14, 11, 113
19, 372480, Note_on_c, 14, 62, 80
19, 372540, Control_c, 14, 11, 114
19, 372569, Note_on_c, 14, 62, 0
19, 372600, Note_on_c, 14, 69, 80
19, 372600, Control_c, 14, 11, 115
19, 372660, Control_c, 14, 11, 116
19, 372689, Note_on_c, 14, 69, 0
19, 372720, Note_on_c, 14, 68, 80
19, 372720, Control_c, 14, 11, 117
19, 372780, Control_c, 14, 11, 118
19, 372809, Note_on_c, 14, 68, 0
19, 372840, Note_on_c, 14, 69, 80
19, 372840, Control_c, 14, 11, 119
19, 372900, Control_c, 14, 11, 120
19, 372929, Note_on_c, 14, 69, 0
19, 372960, Control_c, 14, 11, 121
19, 372960, Note_on_c, 14, 66, 80
19, 373020, Control_c, 14, 11, 122
19, 373049, Note_on_c, 14, 66, 0
19, 373080, Control_c, 14, 11, 123
19, 373080, Note_on_c, 14, 64, 80
19, 373140, Control_c, 14, 11, 124
19, 373169, Note_on_c, 14, 64, 0
19, 373200, Note_on_c, 14, 62, 80
19, 373200, Control_c, 14, 11, 125
19, 373260, Control_c, 14, 11, 127
19, 373289, Note_on_c, 14, 62, 0
19, 373320, Note_on_c, 14, 57, 80
19, 373409, Note_on_c, 14, 57, 0
19, 373440, Note_on_c, 14, 62, 80
19, 373529, Note_on_c, 14, 62, 0
19, 373560, Note_on_c, 14, 64, 80
19, 373649, Note_on_c, 14, 64, 0
19, 373680, Note_on_c, 14, 62, 80
19, 373769, Note_on_c, 14, 62, 0
19, 373800, Note_on_c, 14, 57, 80
19, 373889, Note_on_c, 14, 57, 0
19, 373920, Note_on_c, 14, 64, 80
19, 374009, Note_on_c, 14, 64, 0
19, 374040, Note_on_c, 14, 66, 80
19, 374129, Note_on_c, 14, 66, 0
19, 374160, Note_on_c, 14, 64, 80
19, 374249, Note_on_c, 14, 64, 0
19, 374280, Note_on_c, 14, 57, 80
19, 374369, Note_on_c, 14, 57, 0
19, 374400, Note_on_c, 14, 62, 80
19, 374489, Note_on_c, 14, 62, 0
19, 374520, Note_on_c, 14, 64, 79
19, 374609, Note_on_c, 14, 64, 0
19, 374640, Note_on_c, 14, 62, 78
19, 374729, Note_on_c, 14, 62, 0
19, 374760, Note_on_c, 14, 57, 77
19, 374849, Note_on_c, 14, 57, 0
19, 374880, Note_on_c, 14, 64, 76
19, 374969, Note_on_c, 14, 64, 0
19, 375000, Note_on_c, 14, 66, 75
19, 375089, Note_on_c, 14, 66, 0
19, 375120, Note_on_c, 14, 64, 74
19, 375209, Note_on_c, 14, 64, 0
19, 375240, Note_on_c, 14, 57, 73
19, 375329, Note_on_c, 14, 57, 0
19, 375360, Note_on_c, 14, 62, 72
19, 375449, Note_on_c, 14, 62, 0
19, 375480, Note_on_c, 14, 64, 71
19, 375569, Note_on_c, 14, 64, 0
19, 375600, Note_on_c, 14, 62, 70
19, 375689, Note_on_c, 14, 62, 0
19, 375720, Note_on_c, 14, 57, 69
19, 375809, Note_on_c, 14, 57, 0
19, 375840, Note_on_c, 14, 64, 68
19, 375929, Note_on_c, 14, 64, 0
19, 375960, Note_on_c, 14, 66, 68
19, 376049, Note_on_c, 14, 66, 0
19, 376080, Note_on_c, 14, 64, 67
19, 376169, Note_on_c, 14, 64, 0
19, 376200, Note_on_c, 14, 57, 66
19, 376289, Note_on_c, 14, 57, 0
19, 376320, Note_on_c, 14, 62, 65
19, 376409, Note_on_c, 14, 62, 0
19, 376440, Note_on_c, 14, 64, 64
19, 376529, Note_on_c, 14, 64, 0
19, 376560, Note_on_c, 14, 62, 63
19, 376649, Note_on_c, 14, 62, 0
19, 376680, Note_on_c, 14, 57, 62
19, 376769, Note_on_c, 14, 57, 0
19, 376800, Note_on_c, 14, 64, 61
19, 376889, Note_on_c, 14, 64, 0
19, 376920, Note_on_c, 14, 66, 60
19, 377009, Note_on_c, 14, 66, 0
19, 377040, Note_on_c, 14, 64, 59
19, 377129, Note_on_c, 14, 64, 0
19, 377160, Note_on_c, 14, 57, 58
19, 377249, Note_on_c, 14, 57, 0
19, 377280, Note_on_c, 14, 62, 57
19, 377369, Note_on_c, 14, 62, 0
19, 377400, Note_on_c, 14, 62, 56
19, 377519, Note_on_c, 14, 62, 0
19, 377520, Note_on_c, 14, 61, 56
19, 377639, Note_on_c, 14, 61, 0
19, 377640, Note_on_c, 14, 62, 55
19, 377759, Note_on_c, 14, 62, 0
19, 377760, Note_on_c, 14, 59, 54
19, 377879, Note_on_c, 14, 59, 0
19, 377880, Note_on_c, 14, 57, 53
19, 377999, Note_on_c, 14, 57, 0
19, 378000, Note_on_c, 14, 55, 52
19, 378119, Note_on_c, 14, 55, 0
19, 378120, Note_on_c, 14, 62, 51
19, 378239, Note_on_c, 14, 62, 0
19, 379080, Note_on_c, 14, 50, 42
19, 379169, Note_on_c, 14, 50, 0
19, 379200, Note_on_c, 14, 62, 41
19, 379289, Note_on_c, 14, 62, 0
19, 379320, Note_on_c, 14, 62, 40
19, 379439, Note_on_c, 14, 62, 0
19, 379440, Note_on_c, 14, 61, 38
19, 379559, Note_on_c, 14, 61, 0
19, 379560, Note_on_c, 14, 62, 37
19, 379679, Note_on_c, 14, 62, 0
19, 379680, Note_on_c, 14, 59, 36
19, 379799, Note_on_c, 14, 59, 0
19, 379800, Note_on_c, 14, 57, 35
19, 379919, Note_on_c, 14, 57, 0
19, 379920, Note_on_c, 14, 55, 34
19, 380039, Note_on_c, 14, 55, 0
19, 380040, Note_on_c, 14, 62, 32
19, 380139, Note_on_c, 14, 62, 0
19, 380160, Note_on_c, 14, 50, 32
19, 381209, Note_on_c, 14, 50, 0
19, 381240, Note_on_c, 14, 62, 92
19, 381404, Note_on_c, 14, 62, 0
19, 381420, Note_on_c, 14, 50, 92
19, 381464, Note_on_c, 14, 50, 0
19, 381480, Note_on_c, 14, 50, 92
19, 381599, Note_on_c, 14, 50, 0
19, 381960, Note_on_c, 14, 57, 104
19, 381989, Note_on_c, 14, 57, 0
19, 381990, Note_on_c, 14, 57, 92
19, 382109, Note_on_c, 14, 57, 0
19, 382140, Note_on_c, 14, 45, 92
19, 382184, Note_on_c, 14, 45, 0
19, 382200, Note_on_c, 14, 45, 92
19, 382319, Note_on_c, 14, 45, 0
19, 383040, Note_on_c, 14, 50, 92
19, 383204, Note_on_c, 14, 50, 0
19, 383220, Note_on_c, 14, 38, 92
19, 383264, Note_on_c, 14, 38, 0
19, 383280, Note_on_c, 14, 38, 92
19, 383399, Note_on_c, 14, 38, 0
19, 387000, Note_on_c, 14, 69, 32
19, 387164, Note_on_c, 14, 69, 0
19, 387180, Note_on_c, 14, 57, 32
19, 387224, Note_on_c, 14, 57, 0
19, 387240, Note_on_c, 14, 57, 32
19, 387344, Note_on_c, 14, 57, 0
19, 387360, Note_on_c, 14, 62, 32
19, 387449, Note_on_c, 14, 62, 0
19, 387480, Note_on_c, 14, 64, 32
19, 387569, Note_on_c, 14, 64, 0
19, 387600, Note_on_c, 14, 65, 32
19, 387689, Note_on_c, 14, 65, 0
19, 387720, Note_on_c, 14, 64, 32
19, 387809, Note_on_c, 14, 64, 0
19, 387840, Note_on_c, 14, 65, 32
19, 387929, Note_on_c, 14, 65, 0
19, 387960, Note_on_c, 14, 67, 32
19, 388049, Note_on_c, 14, 67, 0
19, 388080, Note_on_c, 14, 65, 32
19, 388169, Note_on_c, 14, 65, 0
19, 388200, Note_on_c, 14, 64, 32
19, 388289, Note_on_c, 14, 64, 0
19, 388320, Note_on_c, 14, 62, 32
19, 388409, Note_on_c, 14, 62, 0
19, 388440, Note_on_c, 14, 65, 32
19, 388529, Note_on_c, 14, 65, 0
19, 388560, Note_on_c, 14, 64, 32
19, 388649, Note_on_c, 14, 64, 0
19, 388680, Note_on_c, 14, 62, 32
19, 388769, Note_on_c, 14, 62, 0
19, 388800, Note_on_c, 14, 60, 32
19, 388889, Note_on_c, 14, 60, 0
19, 388920, Note_on_c, 14, 59, 32
19, 389009, Note_on_c, 14, 59, 0
19, 389040, Note_on_c, 14, 57, 32
19, 389129, Note_on_c, 14, 57, 0
19, 389160, Note_on_c, 14, 56, 32
19, 389249, Note_on_c, 14, 56, 0
19, 389280, Note_on_c, 14, 57, 32
19, 389369, Note_on_c, 14, 57, 0
19, 389400, Note_on_c, 14, 59, 32
19, 389489, Note_on_c, 14, 59, 0
19, 389520, Note_on_c, 14, 57, 32
19, 389609, Note_on_c, 14, 57, 0
19, 389640, Note_on_c, 14, 56, 32
19, 389729, Note_on_c, 14, 56, 0
19, 389760, Note_on_c, 14, 57, 32
19, 389849, Note_on_c, 14, 57, 0
19, 389880, Note_on_c, 14, 55, 32
19, 389969, Note_on_c, 14, 55, 0
19, 390000, Note_on_c, 14, 53, 32
19, 390089, Note_on_c, 14, 53, 0
19, 390120, Note_on_c, 14, 52, 32
19, 390209, Note_on_c, 14, 52, 0
19, 390240, Note_on_c, 14, 50, 32
19, 390329, Note_on_c, 14, 50, 0
19, 390360, Note_on_c, 14, 57, 32
19, 390449, Note_on_c, 14, 57, 0
19, 390480, Note_on_c, 14, 57, 32
19, 390569, Note_on_c, 14, 57, 0
19, 390600, Note_on_c, 14, 57, 32
19, 390689, Note_on_c, 14, 57, 0
19, 390720, Note_on_c, 14, 57, 32
19, 390809, Note_on_c, 14, 57, 0
19, 390840, Note_on_c, 14, 57, 32
19, 390929, Note_on_c, 14, 57, 0
19, 390960, Note_on_c, 14, 57, 32
19, 391049, Note_on_c, 14, 57, 0
19, 391080, Note_on_c, 14, 69, 32
19, 391169, Note_on_c, 14, 69, 0
19, 391200, Note_on_c, 14, 69, 32
19, 391289, Note_on_c, 14, 69, 0
19, 391320, Note_on_c, 14, 69, 32
19, 391409, Note_on_c, 14, 69, 0
19, 391440, Note_on_c, 14, 69, 32
19, 391529, Note_on_c, 14, 69, 0
19, 391560, Note_on_c, 14, 69, 32
19, 391649, Note_on_c, 14, 69, 0
19, 391680, Note_on_c, 14, 69, 32
19, 391769, Note_on_c, 14, 69, 0
19, 391800, Note_on_c, 14, 64, 32
19, 391889, Note_on_c, 14, 64, 0
19, 391920, Note_on_c, 14, 64, 32
19, 392009, Note_on_c, 14, 64, 0
19, 392040, Note_on_c, 14, 62, 32
19, 392129, Note_on_c, 14, 62, 0
19, 392160, Note_on_c, 14, 60, 32
19, 392249, Note_on_c, 14, 60, 0
19, 392280, Note_on_c, 14, 59, 32
19, 392369, Note_on_c, 14, 59, 0
19, 392400, Note_on_c, 14, 60, 32
19, 392489, Note_on_c, 14, 60, 0
19, 392520, Note_on_c, 14, 62, 32
19, 392609, Note_on_c, 14, 62, 0
19, 392640, Note_on_c, 14, 60, 32
19, 392729, Note_on_c, 14, 60, 0
19, 392760, Note_on_c, 14, 58, 32
19, 392849, Note_on_c, 14, 58, 0
19, 392880, Note_on_c, 14, 57, 32
19, 392969, Note_on_c, 14, 57, 0
19, 393000, Note_on_c, 14, 55, 32
19, 393089, Note_on_c, 14, 55, 0
19, 393120, Note_on_c, 14, 53, 32
19, 393209, Note_on_c, 14, 53, 0
19, 393240, Note_on_c, 14, 52, 32
19, 393329, Note_on_c, 14, 52, 0
19, 393360, Note_on_c, 14, 50, 32
19, 393449, Note_on_c, 14, 50, 0
19, 393480, Note_on_c, 14, 49, 32
19, 393569, Note_on_c, 14, 49, 0
19, 393600, Note_on_c, 14, 50, 32
19, 393689, Note_on_c, 14, 50, 0
19, 393720, Note_on_c, 14, 52, 32
19, 393809, Note_on_c, 14, 52, 0
19, 393840, Note_on_c, 14, 50, 32
19, 393929, Note_on_c, 14, 50, 0
19, 393960, Note_on_c, 14, 49, 32
19, 394049, Note_on_c, 14, 49, 0
19, 394080, Note_on_c, 14, 50, 32
19, 394169, Note_on_c, 14, 50, 0
19, 394200, Note_on_c, 14, 47, 32
19, 394289, Note_on_c, 14, 47, 0
19, 394320, Note_on_c, 14, 48, 32
19, 394409, Note_on_c, 14, 48, 0
19, 394440, Note_on_c, 14, 53, 32
19, 394529, Note_on_c, 14, 53, 0
19, 394560, Note_on_c, 14, 52, 32
19, 394649, Note_on_c, 14, 52, 0
19, 394680, Note_on_c, 14, 53, 32
19, 394769, Note_on_c, 14, 53, 0
19, 394800, Note_on_c, 14, 52, 32
19, 394889, Note_on_c, 14, 52, 0
19, 394920, Note_on_c, 14, 50, 32
19, 395009, Note_on_c, 14, 50, 0
19, 395040, Note_on_c, 14, 52, 32
19, 395129, Note_on_c, 14, 52, 0
19, 395160, Note_on_c, 14, 53, 32
19, 395249, Note_on_c, 14, 53, 0
19, 395280, Note_on_c, 14, 52, 32
19, 395369, Note_on_c, 14, 52, 0
19, 395400, Note_on_c, 14, 53, 32
19, 395489, Note_on_c, 14, 53, 0
19, 395520, Note_on_c, 14, 52, 32
19, 395609, Note_on_c, 14, 52, 0
19, 395640, Note_on_c, 14, 55, 32
19, 395729, Note_on_c, 14, 55, 0
19, 395760, Note_on_c, 14, 53, 32
19, 395849, Note_on_c, 14, 53, 0
19, 395880, Note_on_c, 14, 52, 32
19, 395969, Note_on_c, 14, 52, 0
19, 396000, Note_on_c, 14, 50, 32
19, 396089, Note_on_c, 14, 50, 0
19, 396120, Note_on_c, 14, 52, 32
19, 396209, Note_on_c, 14, 52, 0
19, 396240, Note_on_c, 14, 53, 32
19, 396329, Note_on_c, 14, 53, 0
19, 396360, Note_on_c, 14, 52, 32
19, 396449, Note_on_c, 14, 52, 0
19, 396480, Note_on_c, 14, 53, 32
19, 396569, Note_on_c, 14, 53, 0
19, 396600, Note_on_c, 14, 55, 32
19, 396689, Note_on_c, 14, 55, 0
19, 396720, Note_on_c, 14, 57, 32
19, 396809, Note_on_c, 14, 57, 0
19, 396840, Note_on_c, 14, 55, 32
19, 396929, Note_on_c, 14, 55, 0
19, 396960, Note_on_c, 14, 53, 32
19, 397049, Note_on_c, 14, 53, 0
19, 397080, Note_on_c, 14, 55, 32
19, 397169, Note_on_c, 14, 55, 0
19, 397200, Note_on_c, 14, 53, 33
19, 397289, Note_on_c, 14, 53, 0
19, 397320, Note_on_c, 14, 52, 35
19, 397409, Note_on_c, 14, 52, 0
19, 397440, Note_on_c, 14, 53, 37
19, 397529, Note_on_c, 14, 53, 0
19, 397560, Note_on_c, 14, 55, 38
19, 397649, Note_on_c, 14, 55, 0
19, 397680, Note_on_c, 14, 53, 40
19, 397769, Note_on_c, 14, 53, 0
19, 397800, Note_on_c, 14, 55, 42
19, 397889, Note_on_c, 14, 55, 0
19, 397920, Note_on_c, 14, 53, 43
19, 398009, Note_on_c, 14, 53, 0
19, 398040, Note_on_c, 14, 52, 45
19, 398129, Note_on_c, 14, 52, 0
19, 398160, Note_on_c, 14, 53, 47
19, 398249, Note_on_c, 14, 53, 0
19, 398280, Note_on_c, 14, 55, 48
19, 398369, Note_on_c, 14, 55, 0
19, 398400, Note_on_c, 14, 53, 50
19, 398489, Note_on_c, 14, 53, 0
19, 398520, Note_on_c, 14, 55, 52
19, 398609, Note_on_c, 14, 55, 0
19, 398640, Note_on_c, 14, 53, 53
19, 398729, Note_on_c, 14, 53, 0
19, 398760, Note_on_c, 14, 52, 55
19, 398849, Note_on_c, 14, 52, 0
19, 398880, Note_on_c, 14, 53, 57
19, 398969, Note_on_c, 14, 53, 0
19, 399000, Note_on_c, 14, 55, 58
19, 399089, Note_on_c, 14, 55, 0
19, 399120, Note_on_c, 14, 53, 60
19, 399209, Note_on_c, 14, 53, 0
19, 399240, Note_on_c, 14, 52, 62
19, 399329, Note_on_c, 14, 52, 0
19, 399360, Note_on_c, 14, 50, 63
19, 399449, Note_on_c, 14, 50, 0
19, 399480, Note_on_c, 14, 49, 65
19, 399569, Note_on_c, 14, 49, 0
19, 399600, Note_on_c, 14, 50, 67
19, 399689, Note_on_c, 14, 50, 0
19, 399720, Note_on_c, 14, 52, 68
19, 399809, Note_on_c, 14, 52, 0
19, 399840, Note_on_c, 14, 50, 70
19, 399929, Note_on_c, 14, 50, 0
19, 399960, Note_on_c, 14, 52, 72
19, 400049, Note_on_c, 14, 52, 0
19, 400080, Note_on_c, 14, 50, 73
19, 400169, Note_on_c, 14, 50, 0
19, 400200, Note_on_c, 14, 49, 75
19, 400289, Note_on_c, 14, 49, 0
19, 400320, Note_on_c, 14, 50, 77
19, 400409, Note_on_c, 14, 50, 0
19, 400440, Note_on_c, 14, 52, 78
19, 400529, Note_on_c, 14, 52, 0
19, 400560, Note_on_c, 14, 50, 80
19, 400649, Note_on_c, 14, 50, 0
19, 400680, Note_on_c, 14, 52, 82
19, 400769, Note_on_c, 14, 52, 0
19, 400800, Note_on_c, 14, 50, 83
19, 400889, Note_on_c, 14, 50, 0
19, 400920, Note_on_c, 14, 49, 85
19, 401009, Note_on_c, 14, 49, 0
19, 401040, Note_on_c, 14, 61, 87
19, 401129, Note_on_c, 14, 61, 0
19, 401160, Note_on_c, 14, 62, 88
19, 401249, Note_on_c, 14, 62, 0
19, 401280, Note_on_c, 14, 64, 90
19, 401369, Note_on_c, 14, 64, 0
19, 401400, Note_on_c, 14, 50, 92
19, 401519, Note_on_c, 14, 50, 0
19, 401760, Note_on_c, 14, 62, 92
19, 401879, Note_on_c, 14, 62, 0
19, 402120, Note_on_c, 14, 57, 92
19, 402239, Note_on_c, 14, 57, 0
19, 402480, Note_on_c, 14, 50, 92
19, 402599, Note_on_c, 14, 50, 0
19, 402840, Note_on_c, 14, 55, 80
19, 402959, Note_on_c, 14, 55, 0
19, 403200, Note_on_c, 14, 57, 80
19, 403319, Note_on_c, 14, 57, 0
19, 403560, Note_on_c, 14, 45, 80
19, 403679, Note_on_c, 14, 45, 0
19, 403920, Note_on_c, 14, 50, 80
19, 404039, Note_on_c, 14, 50, 0
19, 404280, Note_on_c, 14, 55, 80
19, 404399, Note_on_c, 14, 55, 0
19, 404640, Note_on_c, 14, 57, 80
19, 404759, Note_on_c, 14, 57, 0
19, 405000, Note_on_c, 14, 45, 80
19, 405119, Note_on_c, 14, 45, 0
19, 405360, Note_on_c, 14, 50, 80
19, 405479, Note_on_c, 14, 50, 0
19, 405600, Note_on_c, 14, 43, 80
19, 405704, Note_on_c, 14, 43, 0
19, 405720, Note_on_c, 14, 43, 80
19, 405839, Note_on_c, 14, 43, 0
19, 406080, Note_on_c, 14, 48, 80
19, 406199, Note_on_c, 14, 48, 0
19, 406440, Note_on_c, 14, 55, 80
19, 406559, Note_on_c, 14, 55, 0
19, 406800, Note_on_c, 14, 60, 80
19, 406904, Note_on_c, 14, 60, 0
19, 406920, Note_on_c, 14, 55, 80
19, 407024, Note_on_c, 14, 55, 0
19, 407040, Note_on_c, 14, 55, 80
19, 407144, Note_on_c, 14, 55, 0
19, 407160, Note_on_c, 14, 43, 80
19, 407279, Note_on_c, 14, 43, 0
19, 407520, Note_on_c, 14, 48, 80
19, 407639, Note_on_c, 14, 48, 0
19, 407880, Note_on_c, 14, 60, 80
19, 407999, Note_on_c, 14, 60, 0
19, 408240, Note_on_c, 14, 60, 80
19, 408359, Note_on_c, 14, 60, 0
19, 408600, Note_on_c, 14, 55, 80
19, 408600, Note_on_c, 14, 43, 80
19, 408719, Note_on_c, 14, 55, 0
19, 408719, Note_on_c, 14, 43, 0
19, 411480, Program_c, 14, 45
19, 411840, Note_on_c, 14, 60, 38
19, 411959, Note_on_c, 14, 60, 0
19, 412200, Note_on_c, 14, 53, 44
19, 412319, Note_on_c, 14, 53, 0
19, 412560, Note_on_c, 14, 50, 51
19, 412679, Note_on_c, 14, 50, 0
19, 412920, Note_on_c, 14, 55, 57
19, 413039, Note_on_c, 14, 55, 0
19, 413280, Note_on_c, 14, 60, 64
19, 413399, Note_on_c, 14, 60, 0
19, 413640, Note_on_c, 14, 55, 70
19, 413759, Note_on_c, 14, 55, 0
19, 414000, Note_on_c, 14, 43, 77
19, 414119, Note_on_c, 14, 43, 0
19, 414240, Program_c, 14, 48
19, 414360, Note_on_c, 14, 48, 92
19, 414524, Note_on_c, 14, 48, 0
19, 414540, Note_on_c, 14, 36, 92
19, 414584, Note_on_c, 14, 36, 0
19, 414600, Note_on_c, 14, 36, 92
19, 414704, Note_on_c, 14, 36, 0
19, 414720, Note_on_c, 14, 48, 92
19, 414884, Note_on_c, 14, 48, 0
19, 414900, Note_on_c, 14, 36, 92
19, 414944, Note_on_c, 14, 36, 0
19, 414960, Note_on_c, 14, 36, 92
19, 415064, Note_on_c, 14, 36, 0
19, 415080, Note_on_c, 14, 48, 92
19, 415244, Note_on_c, 14, 48, 0
19, 415260, Note_on_c, 14, 36, 92
19, 415304, Note_on_c, 14, 36, 0
19, 415320, Note_on_c, 14, 36, 92
19, 415424, Note_on_c, 14, 36, 0
19, 415440, Note_on_c, 14, 48, 92
19, 415604, Note_on_c, 14, 48, 0
19, 415620, Note_on_c, 14, 36, 92
19, 415664, Note_on_c, 14, 36, 0
19, 415680, Note_on_c, 14, 36, 92
19, 415784, Note_on_c, 14, 36, 0
19, 415800, Note_on_c, 14, 48, 92
19, 415964, Note_on_c, 14, 48, 0
19, 415980, Note_on_c, 14, 36, 92
19, 416024, Note_on_c, 14, 36, 0
19, 416040, Note_on_c, 14, 36, 92
19, 416144, Note_on_c, 14, 36, 0
19, 416160, Note_on_c, 14, 48, 92
19, 416324, Note_on_c, 14, 48, 0
19, 416340, Note_on_c, 14, 36, 92
19, 416384, Note_on_c, 14, 36, 0
19, 416400, Note_on_c, 14, 36, 92
19, 416504, Note_on_c, 14, 36, 0
19, 416520, Note_on_c, 14, 48, 92
19, 416684, Note_on_c, 14, 48, 0
19, 416700, Note_on_c, 14, 36, 92
19, 416744, Note_on_c, 14, 36, 0
19, 416760, Note_on_c, 14, 36, 92
19, 416864, Note_on_c, 14, 36, 0
19, 416880, Note_on_c, 14, 48, 92
19, 417044, Note_on_c, 14, 48, 0
19, 417060, Note_on_c, 14, 36, 92
19, 417104, Note_on_c, 14, 36, 0
19, 417120, Note_on_c, 14, 36, 92
19, 417224, Note_on_c, 14, 36, 0
19, 417240, Note_on_c, 14, 48, 92
19, 417404, Note_on_c, 14, 48, 0
19, 417420, Note_on_c, 14, 36, 92
19, 417464, Note_on_c, 14, 36, 0
19, 417480, Note_on_c, 14, 36, 92
19, 417584, Note_on_c, 14, 36, 0
19, 417600, Note_on_c, 14, 48, 92
19, 417764, Note_on_c, 14, 48, 0
19, 417780, Note_on_c, 14, 36, 92
19, 417824, Note_on_c, 14, 36, 0
19, 417840, Note_on_c, 14, 36, 92
19, 417944, Note_on_c, 14, 36, 0
19, 417960, Note_on_c, 14, 48, 92
19, 418124, Note_on_c, 14, 48, 0
19, 418140, Note_on_c, 14, 36, 92
19, 418184, Note_on_c, 14, 36, 0
19, 418200, Note_on_c, 14, 36, 92
19, 418304, Note_on_c, 14, 36, 0
19, 418320, Note_on_c, 14, 48, 92
19, 418484, Note_on_c, 14, 48, 0
19, 418500, Note_on_c, 14, 36, 92
19, 418544, Note_on_c, 14, 36, 0
19, 418560, Note_on_c, 14, 36, 92
19, 418664, Note_on_c, 14, 36, 0
19, 418680, Note_on_c, 14, 48, 92
19, 418844, Note_on_c, 14, 48, 0
19, 418860, Note_on_c, 14, 36, 92
19, 418904, Note_on_c, 14, 36, 0
19, 418920, Note_on_c, 14, 36, 92
19, 419024, Note_on_c, 14, 36, 0
19, 419040, Note_on_c, 14, 48, 92
19, 419204, Note_on_c, 14, 48, 0
19, 419220, Note_on_c, 14, 36, 92
19, 419264, Note_on_c, 14, 36, 0
19, 419280, Note_on_c, 14, 36, 92
19, 419384, Note_on_c, 14, 36, 0
19, 419400, Note_on_c, 14, 48, 92
19, 419564, Note_on_c, 14, 48, 0
19, 419580, Note_on_c, 14, 36, 92
19, 419624, Note_on_c, 14, 36, 0
19, 419640, Note_on_c, 14, 36, 92
19, 419744, Note_on_c, 14, 36, 0
19, 419760, Note_on_c, 14, 48, 92
19, 419924, Note_on_c, 14, 48, 0
19, 419940, Note_on_c, 14, 36, 92
19, 419984, Note_on_c, 14, 36, 0
19, 420000, Note_on_c, 14, 36, 92
19, 420104, Note_on_c, 14, 36, 0
19, 420120, Note_on_c, 14, 48, 92
19, 420239, Note_on_c, 14, 48, 0
19, 420840, Note_on_c, 14, 53, 92
19, 421004, Note_on_c, 14, 53, 0
19, 421020, Note_on_c, 14, 41, 92
19, 421064, Note_on_c, 14, 41, 0
19, 421080, Note_on_c, 14, 41, 92
19, 421184, Note_on_c, 14, 41, 0
19, 421200, Note_on_c, 14, 53, 92
19, 421289, Note_on_c, 14, 53, 0
19, 421320, Note_on_c, 14, 50, 92
19, 421409, Note_on_c, 14, 50, 0
19, 421440, Note_on_c, 14, 48, 92
19, 421529, Note_on_c, 14, 48, 0
19, 421560, Note_on_c, 14, 47, 92
19, 421679, Note_on_c, 14, 47, 0
19, 422280, Note_on_c, 14, 64, 92
19, 422444, Note_on_c, 14, 64, 0
19, 422460, Note_on_c, 14, 52, 92
19, 422504, Note_on_c, 14, 52, 0
19, 422520, Note_on_c, 14, 52, 92
19, 422624, Note_on_c, 14, 52, 0
19, 422640, Note_on_c, 14, 64, 92
19, 422729, Note_on_c, 14, 64, 0
19, 422760, Note_on_c, 14, 60, 92
19, 422849, Note_on_c, 14, 60, 0
19, 422880, Note_on_c, 14, 59, 92
19, 422969, Note_on_c, 14, 59, 0
19, 422998, Control_c, 14, 11, 87
19, 423000, Note_on_c, 14, 58, 68
19, 423720, Control_c, 14, 11, 87
19, 423750, Control_c, 14, 11, 89
19, 423780, Control_c, 14, 11, 90
19, 423810, Control_c, 14, 11, 92
19, 423840, Control_c, 14, 11, 94
19, 423870, Control_c, 14, 11, 95
19, 423900, Control_c, 14, 11, 97
19, 423930, Control_c, 14, 11, 99
19, 423960, Control_c, 14, 11, 100
19, 423990, Control_c, 14, 11, 102
19, 424020, Control_c, 14, 11, 104
19, 424050, Control_c, 14, 11, 105
19, 424080, Control_c, 14, 11, 107
19, 424110, Control_c, 14, 11, 109
19, 424140, Control_c, 14, 11, 110
19, 424170, Control_c, 14, 11, 112
19, 424199, Note_on_c, 14, 58, 0
19, 424200, Note_on_c, 14, 57, 68
19, 424200, Control_c, 14, 11, 114
19, 424230, Control_c, 14, 11, 115
19, 424260, Control_c, 14, 11, 117
19, 424290, Control_c, 14, 11, 119
19, 424319, Note_on_c, 14, 57, 0
19, 424320, Control_c, 14, 11, 120
19, 424320, Note_on_c, 14, 55, 68
19, 424350, Control_c, 14, 11, 122
19, 424380, Control_c, 14, 11, 124
19, 424410, Control_c, 14, 11, 125
19, 424439, Note_on_c, 14, 55, 0
19, 424440, Control_c, 14, 11, 127
19, 424440, Note_on_c, 14, 57, 68
19, 424470, Control_c, 14, 11, 125
19, 424500, Control_c, 14, 11, 124
19, 424530, Control_c, 14, 11, 122
19, 424559, Note_on_c, 14, 57, 0
19, 424560, Control_c, 14, 11, 120
19, 424560, Note_on_c, 14, 55, 68
19, 424590, Control_c, 14, 11, 119
19, 424620, Control_c, 14, 11, 117
19, 424650, Control_c, 14, 11, 115
19, 424679, Note_on_c, 14, 55, 0
19, 424680, Note_on_c, 14, 54, 68
19, 424680, Control_c, 14, 11, 114
19, 424710, Control_c, 14, 11, 112
19, 424740, Control_c, 14, 11, 110
19, 424770, Control_c, 14, 11, 109
19, 424799, Note_on_c, 14, 54, 0
19, 424800, Control_c, 14, 11, 107
19, 424800, Note_on_c, 14, 55, 68
19, 424830, Control_c, 14, 11, 105
19, 424860, Control_c, 14, 11, 104
19, 424890, Control_c, 14, 11, 102
19, 424920, Control_c, 14, 11, 100
19, 424950, Control_c, 14, 11, 99
19, 424980, Control_c, 14, 11, 97
19, 425010, Control_c, 14, 11, 95
19, 425070, Control_c, 14, 11, 92
19, 425100, Control_c, 14, 11, 90
19, 425130, Control_c, 14, 11, 87
19, 425159, Note_on_c, 14, 55, 0
19, 426960, Control_c, 14, 11, 127
19, 427320, Note_on_c, 14, 55, 80
19, 427409, Note_on_c, 14, 55, 0
19, 427440, Note_on_c, 14, 60, 80
19, 427529, Note_on_c, 14, 60, 0
19, 427560, Note_on_c, 14, 57, 80
19, 427649, Note_on_c, 14, 57, 0
19, 427680, Note_on_c, 14, 53, 80
19, 427769, Note_on_c, 14, 53, 0
19, 427800, Note_on_c, 14, 55, 80
19, 427889, Note_on_c, 14, 55, 0
19, 427920, Note_on_c, 14, 43, 80
19, 428009, Note_on_c, 14, 43, 0
19, 428040, Note_on_c, 14, 48, 80
19, 428159, Note_on_c, 14, 48, 0
19, 428760, Note_on_c, 14, 55, 80
19, 428849, Note_on_c, 14, 55, 0
19, 428880, Note_on_c, 14, 52, 80
19, 428969, Note_on_c, 14, 52, 0
19, 429000, Note_on_c, 14, 57, 80
19, 429089, Note_on_c, 14, 57, 0
19, 429120, Note_on_c, 14, 53, 80
19, 429209, Note_on_c, 14, 53, 0
19, 429240, Note_on_c, 14, 50, 80
19, 429329, Note_on_c, 14, 50, 0
19, 429360, Note_on_c, 14, 55, 80
19, 429449, Note_on_c, 14, 55, 0
19, 429480, Note_on_c, 14, 48, 80
19, 429599, Note_on_c, 14, 48, 0
19, 429840, Note_on_c, 14, 67, 80
19, 430004, Note_on_c, 14, 67, 0
19, 430020, Note_on_c, 14, 55, 80
19, 430064, Note_on_c, 14, 55, 0
19, 430080, Note_on_c, 14, 55, 80
19, 430184, Note_on_c, 14, 55, 0
19, 430200, Note_on_c, 14, 48, 80
19, 430319, Note_on_c, 14, 48, 0
19, 430560, Note_on_c, 14, 67, 80
19, 430724, Note_on_c, 14, 67, 0
19, 430740, Note_on_c, 14, 55, 80
19, 430784, Note_on_c, 14, 55, 0
19, 430800, Note_on_c, 14, 55, 80
19, 430904, Note_on_c, 14, 55, 0
19, 430920, Note_on_c, 14, 57, 32
19, 431039, Note_on_c, 14, 57, 0
19, 431040, Note_on_c, 14, 55, 32
19, 431159, Note_on_c, 14, 55, 0
19, 431160, Note_on_c, 14, 53, 32
19, 431279, Note_on_c, 14, 53, 0
19, 431280, Note_on_c, 14, 52, 32
19, 431399, Note_on_c, 14, 52, 0
19, 431400, Note_on_c, 14, 50, 32
19, 431519, Note_on_c, 14, 50, 0
19, 431520, Note_on_c, 14, 48, 32
19, 431639, Note_on_c, 14, 48, 0
19, 431640, Note_on_c, 14, 47, 32
19, 431759, Note_on_c, 14, 47, 0
19, 431760, Note_on_c, 14, 48, 32
19, 431879, Note_on_c, 14, 48, 0
19, 431880, Note_on_c, 14, 47, 32
19, 431939, Note_on_c, 14, 47, 0
19, 431940, Note_on_c, 14, 59, 32
19, 431999, Note_on_c, 14, 59, 0
19, 432000, Note_on_c, 14, 57, 32
19, 432119, Note_on_c, 14, 57, 0
19, 432120, Note_on_c, 14, 55, 32
19, 432239, Note_on_c, 14, 55, 0
19, 432240, Note_on_c, 14, 53, 32
19, 432344, Note_on_c, 14, 53, 0
19, 432360, Note_on_c, 14, 36, 32
19, 432524, Note_on_c, 14, 36, 0
19, 432540, Note_on_c, 14, 48, 32
19, 432584, Note_on_c, 14, 48, 0
19, 432600, Note_on_c, 14, 48, 32
19, 432704, Note_on_c, 14, 48, 0
19, 432720, Note_on_c, 14, 45, 32
19, 432839, Note_on_c, 14, 45, 0
19, 433080, Note_on_c, 14, 41, 32
19, 433244, Note_on_c, 14, 41, 0
19, 433260, Note_on_c, 14, 53, 32
19, 433304, Note_on_c, 14, 53, 0
19, 433320, Note_on_c, 14, 53, 32
19, 433424, Note_on_c, 14, 53, 0
19, 433440, Note_on_c, 14, 50, 32
19, 433559, Note_on_c, 14, 50, 0
19, 438120, Note_on_c, 14, 69, 32
19, 438284, Note_on_c, 14, 69, 0
19, 438300, Note_on_c, 14, 57, 32
19, 438344, Note_on_c, 14, 57, 0
19, 438360, Note_on_c, 14, 57, 32
19, 438464, Note_on_c, 14, 57, 0
19, 438480, Note_on_c, 14, 62, 32
19, 438569, Note_on_c, 14, 62, 0
19, 438600, Note_on_c, 14, 64, 32
19, 438689, Note_on_c, 14, 64, 0
19, 438720, Note_on_c, 14, 65, 32
19, 438809, Note_on_c, 14, 65, 0
19, 438840, Note_on_c, 14, 64, 32
19, 438929, Note_on_c, 14, 64, 0
19, 438960, Note_on_c, 14, 65, 32
19, 439049, Note_on_c, 14, 65, 0
19, 439080, Note_on_c, 14, 67, 32
19, 439169, Note_on_c, 14, 67, 0
19, 439200, Note_on_c, 14, 65, 32
19, 439289, Note_on_c, 14, 65, 0
19, 439320, Note_on_c, 14, 64, 32
19, 439409, Note_on_c, 14, 64, 0
19, 439440, Note_on_c, 14, 62, 32
19, 439529, Note_on_c, 14, 62, 0
19, 439560, Note_on_c, 14, 65, 32
19, 439649, Note_on_c, 14, 65, 0
19, 439680, Note_on_c, 14, 64, 32
19, 439769, Note_on_c, 14, 64, 0
19, 439800, Note_on_c, 14, 62, 32
19, 439889, Note_on_c, 14, 62, 0
19, 439920, Note_on_c, 14, 60, 32
19, 440009, Note_on_c, 14, 60, 0
19, 440040, Note_on_c, 14, 59, 32
19, 440129, Note_on_c, 14, 59, 0
19, 440160, Note_on_c, 14, 57, 32
19, 440249, Note_on_c, 14, 57, 0
19, 440280, Note_on_c, 14, 56, 32
19, 440369, Note_on_c, 14, 56, 0
19, 440400, Note_on_c, 14, 57, 32
19, 440489, Note_on_c, 14, 57, 0
19, 440520, Note_on_c, 14, 59, 32
19, 440609, Note_on_c, 14, 59, 0
19, 440640, Note_on_c, 14, 57, 32
19, 440729, Note_on_c, 14, 57, 0
19, 440760, Note_on_c, 14, 56, 32
19, 440849, Note_on_c, 14, 56, 0
19, 440880, Note_on_c, 14, 57, 32
19, 440969, Note_on_c, 14, 57, 0
19, 441000, Note_on_c, 14, 55, 32
19, 441089, Note_on_c, 14, 55, 0
19, 441120, Note_on_c, 14, 53, 32
19, 441209, Note_on_c, 14, 53, 0
19, 441240, Note_on_c, 14, 52, 32
19, 441329, Note_on_c, 14, 52, 0
19, 441360, Note_on_c, 14, 50, 32
19, 441449, Note_on_c, 14, 50, 0
19, 441480, Note_on_c, 14, 57, 32
19, 441569, Note_on_c, 14, 57, 0
19, 441600, Note_on_c, 14, 57, 32
19, 441689, Note_on_c, 14, 57, 0
19, 441720, Note_on_c, 14, 57, 32
19, 441809, Note_on_c, 14, 57, 0
19, 441840, Note_on_c, 14, 57, 32
19, 441929, Note_on_c, 14, 57, 0
19, 441960, Note_on_c, 14, 57, 32
19, 442049, Note_on_c, 14, 57, 0
19, 442080, Note_on_c, 14, 57, 32
19, 442169, Note_on_c, 14, 57, 0
19, 442200, Note_on_c, 14, 69, 32
19, 442289, Note_on_c, 14, 69, 0
19, 442320, Note_on_c, 14, 69, 32
19, 442409, Note_on_c, 14, 69, 0
19, 442440, Note_on_c, 14, 69, 32
19, 442529, Note_on_c, 14, 69, 0
19, 442560, Note_on_c, 14, 69, 32
19, 442649, Note_on_c, 14, 69, 0
19, 442680, Note_on_c, 14, 69, 32
19, 442769, Note_on_c, 14, 69, 0
19, 442800, Note_on_c, 14, 69, 32
19, 442889, Note_on_c, 14, 69, 0
19, 442920, Note_on_c, 14, 64, 32
19, 443009, Note_on_c, 14, 64, 0
19, 443040, Note_on_c, 14, 64, 32
19, 443129, Note_on_c, 14, 64, 0
19, 443160, Note_on_c, 14, 62, 32
19, 443249, Note_on_c, 14, 62, 0
19, 443280, Note_on_c, 14, 60, 32
19, 443369, Note_on_c, 14, 60, 0
19, 443400, Note_on_c, 14, 59, 32
19, 443489, Note_on_c, 14, 59, 0
19, 443520, Note_on_c, 14, 60, 32
19, 443609, Note_on_c, 14, 60, 0
19, 443640, Note_on_c, 14, 62, 32
19, 443729, Note_on_c, 14, 62, 0
19, 443760, Note_on_c, 14, 60, 32
19, 443849, Note_on_c, 14, 60, 0
19, 443880, Note_on_c, 14, 58, 32
19, 443969, Note_on_c, 14, 58, 0
19, 444000, Note_on_c, 14, 57, 32
19, 444089, Note_on_c, 14, 57, 0
19, 444120, Note_on_c, 14, 55, 32
19, 444209, Note_on_c, 14, 55, 0
19, 444240, Note_on_c, 14, 53, 32
19, 444329, Note_on_c, 14, 53, 0
19, 444360, Note_on_c, 14, 52, 32
19, 444449, Note_on_c, 14, 52, 0
19, 444480, Note_on_c, 14, 50, 32
19, 444569, Note_on_c, 14, 50, 0
19, 444600, Note_on_c, 14, 49, 32
19, 444689, Note_on_c, 14, 49, 0
19, 444720, Note_on_c, 14, 50, 32
19, 444809, Note_on_c, 14, 50, 0
19, 444840, Note_on_c, 14, 52, 32
19, 444929, Note_on_c, 14, 52, 0
19, 444960, Note_on_c, 14, 50, 32
19, 445049, Note_on_c, 14, 50, 0
19, 445080, Note_on_c, 14, 49, 32
19, 445169, Note_on_c, 14, 49, 0
19, 445200, Note_on_c, 14, 50, 32
19, 445289, Note_on_c, 14, 50, 0
19, 445320, Note_on_c, 14, 47, 32
19, 445409, Note_on_c, 14, 47, 0
19, 445440, Note_on_c, 14, 48, 32
19, 445529, Note_on_c, 14, 48, 0
19, 445560, Note_on_c, 14, 53, 32
19, 445649, Note_on_c, 14, 53, 0
19, 445680, Note_on_c, 14, 52, 32
19, 445769, Note_on_c, 14, 52, 0
19, 445800, Note_on_c, 14, 53, 32
19, 445889, Note_on_c, 14, 53, 0
19, 445920, Note_on_c, 14, 52, 32
19, 446009, Note_on_c, 14, 52, 0
19, 446040, Note_on_c, 14, 50, 32
19, 446129, Note_on_c, 14, 50, 0
19, 446160, Note_on_c, 14, 52, 32
19, 446249, Note_on_c, 14, 52, 0
19, 446280, Note_on_c, 14, 53, 32
19, 446369, Note_on_c, 14, 53, 0
19, 446400, Note_on_c, 14, 52, 32
19, 446489, Note_on_c, 14, 52, 0
19, 446520, Note_on_c, 14, 53, 32
19, 446609, Note_on_c, 14, 53, 0
19, 446640, Note_on_c, 14, 52, 32
19, 446729, Note_on_c, 14, 52, 0
19, 446760, Note_on_c, 14, 55, 32
19, 446849, Note_on_c, 14, 55, 0
19, 446880, Note_on_c, 14, 53, 32
19, 446969, Note_on_c, 14, 53, 0
19, 447000, Note_on_c, 14, 52, 32
19, 447089, Note_on_c, 14, 52, 0
19, 447120, Note_on_c, 14, 50, 32
19, 447209, Note_on_c, 14, 50, 0
19, 447240, Note_on_c, 14, 52, 32
19, 447329, Note_on_c, 14, 52, 0
19, 447360, Note_on_c, 14, 53, 32
19, 447449, Note_on_c, 14, 53, 0
19, 447480, Note_on_c, 14, 52, 32
19, 447569, Note_on_c, 14, 52, 0
19, 447600, Note_on_c, 14, 53, 32
19, 447689, Note_on_c, 14, 53, 0
19, 447720, Note_on_c, 14, 55, 32
19, 447809, Note_on_c, 14, 55, 0
19, 447840, Note_on_c, 14, 57, 32
19, 447929, Note_on_c, 14, 57, 0
19, 447960, Note_on_c, 14, 55, 32
19, 448049, Note_on_c, 14, 55, 0
19, 448080, Note_on_c, 14, 53, 32
19, 448169, Note_on_c, 14, 53, 0
19, 448200, Note_on_c, 14, 55, 32
19, 448289, Note_on_c, 14, 55, 0
19, 448320, Note_on_c, 14, 53, 33
19, 448409, Note_on_c, 14, 53, 0
19, 448440, Note_on_c, 14, 52, 35
19, 448529, Note_on_c, 14, 52, 0
19, 448560, Note_on_c, 14, 53, 37
19, 448649, Note_on_c, 14, 53, 0
19, 448680, Note_on_c, 14, 55, 38
19, 448769, Note_on_c, 14, 55, 0
19, 448800, Note_on_c, 14, 53, 40
19, 448889, Note_on_c, 14, 53, 0
19, 448920, Note_on_c, 14, 55, 42
19, 449009, Note_on_c, 14, 55, 0
19, 449040, Note_on_c, 14, 53, 43
19, 449129, Note_on_c, 14, 53, 0
19, 449160, Note_on_c, 14, 52, 45
19, 449249, Note_on_c, 14, 52, 0
19, 449280, Note_on_c, 14, 53, 47
19, 449369, Note_on_c, 14, 53, 0
19, 449400, Note_on_c, 14, 55, 48
19, 449489, Note_on_c, 14, 55, 0
19, 449520, Note_on_c, 14, 53, 50
19, 449609, Note_on_c, 14, 53, 0
19, 449640, Note_on_c, 14, 55, 52
19, 449729, Note_on_c, 14, 55, 0
19, 449760, Note_on_c, 14, 53, 53
19, 449849, Note_on_c, 14, 53, 0
19, 449880, Note_on_c, 14, 52, 55
19, 449969, Note_on_c, 14, 52, 0
19, 450000, Note_on_c, 14, 53, 57
19, 450089, Note_on_c, 14, 53, 0
19, 450120, Note_on_c, 14, 55, 58
19, 450209, Note_on_c, 14, 55, 0
19, 450240, Note_on_c, 14, 53, 60
19, 450329, Note_on_c, 14, 53, 0
19, 450360, Note_on_c, 14, 52, 62
19, 450449, Note_on_c, 14, 52, 0
19, 450480, Note_on_c, 14, 50, 63
19, 450569, Note_on_c, 14, 50, 0
19, 450600, Note_on_c, 14, 49, 65
19, 450689, Note_on_c, 14, 49, 0
19, 450720, Note_on_c, 14, 50, 67
19, 450809, Note_on_c, 14, 50, 0
19, 450840, Note_on_c, 14, 52, 68
19, 450929, Note_on_c, 14, 52, 0
19, 450960, Note_on_c, 14, 50, 70
19, 451049, Note_on_c, 14, 50, 0
19, 451080, Note_on_c, 14, 52, 72
19, 451169, Note_on_c, 14, 52, 0
19, 451200, Note_on_c, 14, 50, 73
19, 451289, Note_on_c, 14, 50, 0
19, 451320, Note_on_c, 14, 49, 75
19, 451409, Note_on_c, 14, 49, 0
19, 451440, Note_on_c, 14, 50, 77
19, 451529, Note_on_c, 14, 50, 0
19, 451560, Note_on_c, 14, 52, 78
19, 451649, Note_on_c, 14, 52, 0
19, 451680, Note_on_c, 14, 50, 80
19, 451769, Note_on_c, 14, 50, 0
19, 451800, Note_on_c, 14, 52, 82
19, 451889, Note_on_c, 14, 52, 0
19, 451920, Note_on_c, 14, 50, 83
19, 452009, Note_on_c, 14, 50, 0
19, 452040, Note_on_c, 14, 49, 85
19, 452129, Note_on_c, 14, 49, 0
19, 452160, Note_on_c, 14, 61, 87
19, 452249, Note_on_c, 14, 61, 0
19, 452280, Note_on_c, 14, 62, 88
19, 452369, Note_on_c, 14, 62, 0
19, 452400, Note_on_c, 14, 64, 90
19, 452489, Note_on_c, 14, 64, 0
19, 452520, Note_on_c, 14, 50, 92
19, 452639, Note_on_c, 14, 50, 0
19, 452880, Note_on_c, 14, 62, 92
19, 452999, Note_on_c, 14, 62, 0
19, 453240, Note_on_c, 14, 57, 92
19, 453359, Note_on_c, 14, 57, 0
19, 453600, Note_on_c, 14, 50, 92
19, 453719, Note_on_c, 14, 50, 0
19, 453960, Note_on_c, 14, 55, 80
19, 454079, Note_on_c, 14, 55, 0
19, 454320, Note_on_c, 14, 57, 80
19, 454439, Note_on_c, 14, 57, 0
19, 454680, Note_on_c, 14, 45, 80
19, 454799, Note_on_c, 14, 45, 0
19, 455040, Note_on_c, 14, 50, 80
19, 455159, Note_on_c, 14, 50, 0
19, 455400, Note_on_c, 14, 55, 80
19, 455519, Note_on_c, 14, 55, 0
19, 455760, Note_on_c, 14, 57, 80
19, 455879, Note_on_c, 14, 57, 0
19, 456120, Note_on_c, 14, 45, 80
19, 456239, Note_on_c, 14, 45, 0
19, 456480, Note_on_c, 14, 50, 80
19, 456599, Note_on_c, 14, 50, 0
19, 456720, Note_on_c, 14, 43, 80
19, 456824, Note_on_c, 14, 43, 0
19, 456840, Note_on_c, 14, 43, 80
19, 456959, Note_on_c, 14, 43, 0
19, 457200, Note_on_c, 14, 48, 80
19, 457319, Note_on_c, 14, 48, 0
19, 457560, Note_on_c, 14, 55, 80
19, 457679, Note_on_c, 14, 55, 0
19, 457920, Note_on_c, 14, 60, 80
19, 458024, Note_on_c, 14, 60, 0
19, 458040, Note_on_c, 14, 55, 80
19, 458144, Note_on_c, 14, 55, 0
19, 458160, Note_on_c, 14, 55, 80
19, 458264, Note_on_c, 14, 55, 0
19, 458280, Note_on_c, 14, 43, 80
19, 458399, Note_on_c, 14, 43, 0
19, 458640, Note_on_c, 14, 48, 80
19, 458759, Note_on_c, 14, 48, 0
19, 459000, Note_on_c, 14, 60, 80
19, 459119, Note_on_c, 14, 60, 0
19, 459360, Note_on_c, 14, 60, 80
19, 459479, Note_on_c, 14, 60, 0
19, 459720, Note_on_c, 14, 55, 80
19, 459720, Note_on_c, 14, 43, 80
19, 459839, Note_on_c, 14, 55, 0
19, 459839, Note_on_c, 14, 43, 0
19, 462600, Program_c, 14, 45
19, 462960, Note_on_c, 14, 60, 38
19, 463079, Note_on_c, 14, 60, 0
19, 463320, Note_on_c, 14, 53, 44
19, 463439, Note_on_c, 14, 53, 0
19, 463680, Note_on_c, 14, 50, 51
19, 463799, Note_on_c, 14, 50, 0
19, 464040, Note_on_c, 14, 55, 57
19, 464159, Note_on_c, 14, 55, 0
19, 464400, Note_on_c, 14, 60, 64
19, 464519, Note_on_c, 14, 60, 0
19, 464760, Note_on_c, 14, 55, 70
19, 464879, Note_on_c, 14, 55, 0
19, 465120, Note_on_c, 14, 43, 77
19, 465239, Note_on_c, 14, 43, 0
19, 465360, Program_c, 14, 48
19, 465480, Note_on_c, 14, 48, 92
19, 465644, Note_on_c, 14, 48, 0
19, 465660, Note_on_c, 14, 36, 92
19, 465704, Note_on_c, 14, 36, 0
19, 465720, Note_on_c, 14, 36, 92
19, 465824, Note_on_c, 14, 36, 0
19, 465840, Note_on_c, 14, 48, 92
19, 466004, Note_on_c, 14, 48, 0
19, 466020, Note_on_c, 14, 36, 92
19, 466064, Note_on_c, 14, 36, 0
19, 466080, Note_on_c, 14, 36, 92
19, 466184, Note_on_c, 14, 36, 0
19, 466200, Note_on_c, 14, 48, 92
19, 466364, Note_on_c, 14, 48, 0
19, 466380, Note_on_c, 14, 36, 92
19, 466424, Note_on_c, 14, 36, 0
19, 466440, Note_on_c, 14, 36, 92
19, 466544, Note_on_c, 14, 36, 0
19, 466560, Note_on_c, 14, 48, 92
19, 466724, Note_on_c, 14, 48, 0
19, 466740, Note_on_c, 14, 36, 92
19, 466784, Note_on_c, 14, 36, 0
19, 466800, Note_on_c, 14, 36, 92
19, 466904, Note_on_c, 14, 36, 0
19, 466920, Note_on_c, 14, 48, 92
19, 467084, Note_on_c, 14, 48, 0
19, 467100, Note_on_c, 14, 36, 92
19, 467144, Note_on_c, 14, 36, 0
19, 467160, Note_on_c, 14, 36, 92
19, 467264, Note_on_c, 14, 36, 0
19, 467280, Note_on_c, 14, 48, 92
19, 467444, Note_on_c, 14, 48, 0
19, 467460, Note_on_c, 14, 36, 92
19, 467504, Note_on_c, 14, 36, 0
19, 467520, Note_on_c, 14, 36, 92
19, 467624, Note_on_c, 14, 36, 0
19, 467640, Note_on_c, 14, 48, 92
19, 467804, Note_on_c, 14, 48, 0
19, 467820, Note_on_c, 14, 36, 92
19, 467864, Note_on_c, 14, 36, 0
19, 467880, Note_on_c, 14, 36, 92
19, 467984, Note_on_c, 14, 36, 0
19, 468000, Note_on_c, 14, 48, 92
19, 468164, Note_on_c, 14, 48, 0
19, 468180, Note_on_c, 14, 36, 92
19, 468224, Note_on_c, 14, 36, 0
19, 468240, Note_on_c, 14, 36, 92
19, 468344, Note_on_c, 14, 36, 0
19, 468360, Note_on_c, 14, 48, 92
19, 468524, Note_on_c, 14, 48, 0
19, 468540, Note_on_c, 14, 36, 92
19, 468584, Note_on_c, 14, 36, 0
19, 468600, Note_on_c, 14, 36, 92
19, 468704, Note_on_c, 14, 36, 0
19, 468720, Note_on_c, 14, 48, 92
19, 468884, Note_on_c, 14, 48, 0
19, 468900, Note_on_c, 14, 36, 92
19, 468944, Note_on_c, 14, 36, 0
19, 468960, Note_on_c, 14, 36, 92
19, 469064, Note_on_c, 14, 36, 0
19, 469080, Note_on_c, 14, 48, 92
19, 469244, Note_on_c, 14, 48, 0
19, 469260, Note_on_c, 14, 36, 92
19, 469304, Note_on_c, 14, 36, 0
19, 469320, Note_on_c, 14, 36, 92
19, 469424, Note_on_c, 14, 36, 0
19, 469440, Note_on_c, 14, 48, 92
19, 469604, Note_on_c, 14, 48, 0
19, 469620, Note_on_c, 14, 36, 92
19, 469664, Note_on_c, 14, 36, 0
19, 469680, Note_on_c, 14, 36, 92
19, 469784, Note_on_c, 14, 36, 0
19, 469800, Note_on_c, 14, 48, 92
19, 469964, Note_on_c, 14, 48, 0
19, 469980, Note_on_c, 14, 36, 92
19, 470024, Note_on_c, 14, 36, 0
19, 470040, Note_on_c, 14, 36, 92
19, 470144, Note_on_c, 14, 36, 0
19, 470160, Note_on_c, 14, 48, 92
19, 470324, Note_on_c, 14, 48, 0
19, 470340, Note_on_c, 14, 36, 92
19, 470384, Note_on_c, 14, 36, 0
19, 470400, Note_on_c, 14, 36, 92
19, 470504, Note_on_c, 14, 36, 0
19, 470520, Note_on_c, 14, 48, 92
19, 470684, Note_on_c, 14, 48, 0
19, 470700, Note_on_c, 14, 36, 92
19, 470744, Note_on_c, 14, 36, 0
19, 470760, Note_on_c, 14, 36, 92
19, 470864, Note_on_c, 14, 36, 0
19, 470880, Note_on_c, 14, 48, 92
19, 471044, Note_on_c, 14, 48, 0
19, 471060, Note_on_c, 14, 36, 92
19, 471104, Note_on_c, 14, 36, 0
19, 471120, Note_on_c, 14, 36, 92
19, 471224, Note_on_c, 14, 36, 0
19, 471240, Note_on_c, 14, 48, 92
19, 471359, Note_on_c, 14, 48, 0
19, 471960, Note_on_c, 14, 53, 92
19, 472124, Note_on_c, 14, 53, 0
19, 472140, Note_on_c, 14, 41, 92
19, 472184, Note_on_c, 14, 41, 0
19, 472200, Note_on_c, 14, 41, 92
19, 472304, Note_on_c, 14, 41, 0
19, 472320, Note_on_c, 14, 53, 92
19, 472409, Note_on_c, 14, 53, 0
19, 472440, Note_on_c, 14, 50, 92
19, 472529, Note_on_c, 14, 50, 0
19, 472560, Note_on_c, 14, 48, 92
19, 472649, Note_on_c, 14, 48, 0
19, 472680, Note_on_c, 14, 47, 92
19, 472799, Note_on_c, 14, 47, 0
19, 473400, Note_on_c, 14, 64, 92
19, 473564, Note_on_c, 14, 64, 0
19, 473580, Note_on_c, 14, 52, 92
19, 473624, Note_on_c, 14, 52, 0
19, 473640, Note_on_c, 14, 52, 92
19, 473744, Note_on_c, 14, 52, 0
19, 473760, Note_on_c, 14, 64, 92
19, 473849, Note_on_c, 14, 64, 0
19, 473880, Note_on_c, 14, 60, 92
19, 473969, Note_on_c, 14, 60, 0
19, 474000, Note_on_c, 14, 59, 92
19, 474089, Note_on_c, 14, 59, 0
19, 474118, Control_c, 14, 11, 87
19, 474120, Note_on_c, 14, 58, 68
19, 474840, Control_c, 14, 11, 87
19, 474870, Control_c, 14, 11, 89
19, 474900, Control_c, 14, 11, 90
19, 474930, Control_c, 14, 11, 92
19, 474960, Control_c, 14, 11, 94
19, 474990, Control_c, 14, 11, 95
19, 475020, Control_c, 14, 11, 97
19, 475050, Control_c, 14, 11, 99
19, 475080, Control_c, 14, 11, 100
19, 475110, Control_c, 14, 11, 102
19, 475140, Control_c, 14, 11, 104
19, 475170, Control_c, 14, 11, 105
19, 475200, Control_c, 14, 11, 107
19, 475230, Control_c, 14, 11, 109
19, 475260, Control_c, 14, 11, 110
19, 475290, Control_c, 14, 11, 112
19, 475319, Note_on_c, 14, 58, 0
19, 475320, Note_on_c, 14, 57, 68
19, 475320, Control_c, 14, 11, 114
19, 475350, Control_c, 14, 11, 115
19, 475380, Control_c, 14, 11, 117
19, 475410, Control_c, 14, 11, 119
19, 475439, Note_on_c, 14, 57, 0
19, 475440, Note_on_c, 14, 55, 68
19, 475440, Control_c, 14, 11, 120
19, 475470, Control_c, 14, 11, 122
19, 475500, Control_c, 14, 11, 124
19, 475530, Control_c, 14, 11, 125
19, 475559, Note_on_c, 14, 55, 0
19, 475560, Note_on_c, 14, 57, 68
19, 475560, Control_c, 14, 11, 127
19, 475590, Control_c, 14, 11, 125
19, 475620, Control_c, 14, 11, 124
19, 475650, Control_c, 14, 11, 122
19, 475679, Note_on_c, 14, 57, 0
19, 475680, Control_c, 14, 11, 120
19, 475680, Note_on_c, 14, 55, 68
19, 475710, Control_c, 14, 11, 119
19, 475740, Control_c, 14, 11, 117
19, 475770, Control_c, 14, 11, 115
19, 475799, Note_on_c, 14, 55, 0
19, 475800, Note_on_c, 14, 54, 68
19, 475800, Control_c, 14, 11, 114
19, 475830, Control_c, 14, 11, 112
19, 475860, Control_c, 14, 11, 110
19, 475890, Control_c, 14, 11, 109
19, 475919, Note_on_c, 14, 54, 0
19, 475920, Control_c, 14, 11, 107
19, 475920, Note_on_c, 14, 55, 68
19, 475950, Control_c, 14, 11, 105
19, 475980, Control_c, 14, 11, 104
19, 476010, Control_c, 14, 11, 102
19, 476040, Control_c, 14, 11, 100
19, 476070, Control_c, 14, 11, 99
19, 476100, Control_c, 14, 11, 97
19, 476130, Control_c, 14, 11, 95
19, 476190, Control_c, 14, 11, 92
19, 476220, Control_c, 14, 11, 90
19, 476250, Control_c, 14, 11, 87
19, 476279, Note_on_c, 14, 55, 0
19, 478080, Control_c, 14, 11, 127
19, 478440, Note_on_c, 14, 55, 80
19, 478529, Note_on_c, 14, 55, 0
19, 478560, Note_on_c, 14, 60, 80
19, 478649, Note_on_c, 14, 60, 0
19, 478680, Note_on_c, 14, 57, 80
19, 478769, Note_on_c, 14, 57, 0
19, 478800, Note_on_c, 14, 53, 80
19, 478889, Note_on_c, 14, 53, 0
19, 478920, Note_on_c, 14, 55, 80
19, 479009, Note_on_c, 14, 55, 0
19, 479040, Note_on_c, 14, 43, 80
19, 479129, Note_on_c, 14, 43, 0
19, 479160, Note_on_c, 14, 48, 80
19, 479279, Note_on_c, 14, 48, 0
19, 479880, Note_on_c, 14, 55, 80
19, 479969, Note_on_c, 14, 55, 0
19, 480000, Note_on_c, 14, 52, 80
19, 480089, Note_on_c, 14, 52, 0
19, 480120, Note_on_c, 14, 57, 80
19, 480209, Note_on_c, 14, 57, 0
19, 480240, Note_on_c, 14, 53, 80
19, 480329, Note_on_c, 14, 53, 0
19, 480360, Note_on_c, 14, 50, 80
19, 480449, Note_on_c, 14, 50, 0
19, 480480, Note_on_c, 14, 55, 80
19, 480569, Note_on_c, 14, 55, 0
19, 480600, Note_on_c, 14, 48, 80
19, 480719, Note_on_c, 14, 48, 0
19, 480960, Note_on_c, 14, 67, 80
19, 481124, Note_on_c, 14, 67, 0
19, 481140, Note_on_c, 14, 55, 80
19, 481184, Note_on_c, 14, 55, 0
19, 481200, Note_on_c, 14, 55, 80
19, 481304, Note_on_c, 14, 55, 0
19, 481320, Note_on_c, 14, 48, 80
19, 481439, Note_on_c, 14, 48, 0
19, 481680, Note_on_c, 14, 67, 80
19, 481844, Note_on_c, 14, 67, 0
19, 481860, Note_on_c, 14, 55, 80
19, 481904, Note_on_c, 14, 55, 0
19, 481920, Note_on_c, 14, 55, 80
19, 482024, Note_on_c, 14, 55, 0
19, 482040, Note_on_c, 14, 57, 32
19, 482159, Note_on_c, 14, 57, 0
19, 482160, Note_on_c, 14, 55, 32
19, 482279, Note_on_c, 14, 55, 0
19, 482280, Note_on_c, 14, 53, 32
19, 482399, Note_on_c, 14, 53, 0
19, 482400, Note_on_c, 14, 52, 32
19, 482519, Note_on_c, 14, 52, 0
19, 482520, Note_on_c, 14, 50, 32
19, 482639, Note_on_c, 14, 50, 0
19, 482640, Note_on_c, 14, 48, 32
19, 482759, Note_on_c, 14, 48, 0
19, 482760, Note_on_c, 14, 47, 32
19, 482879, Note_on_c, 14, 47, 0
19, 482880, Note_on_c, 14, 48, 32
19, 482999, Note_on_c, 14, 48, 0
19, 483000, Note_on_c, 14, 47, 32
19, 483059, Note_on_c, 14, 47, 0
19, 483060, Note_on_c, 14, 59, 32
19, 483119, Note_on_c, 14, 59, 0
19, 483120, Note_on_c, 14, 57, 32
19, 483239, Note_on_c, 14, 57, 0
19, 483240, Note_on_c, 14, 55, 32
19, 483359, Note_on_c, 14, 55, 0
19, 483360, Note_on_c, 14, 53, 32
19, 483464, Note_on_c, 14, 53, 0
19, 483480, Note_on_c, 14, 36, 32
19, 483644, Note_on_c, 14, 36, 0
19, 483660, Note_on_c, 14, 48, 32
19, 483704, Note_on_c, 14, 48, 0
19, 483720, Note_on_c, 14, 48, 32
19, 483824, Note_on_c, 14, 48, 0
19, 483840, Note_on_c, 14, 45, 32
19, 483959, Note_on_c, 14, 45, 0
19, 484200, Note_on_c, 14, 41, 32
19, 484364, Note_on_c, 14, 41, 0
19, 484380, Note_on_c, 14, 53, 32
19, 484424, Note_on_c, 14, 53, 0
19, 484440, Note_on_c, 14, 53, 32
19, 484544, Note_on_c, 14, 53, 0
19, 484560, Note_on_c, 14, 50, 32
19, 484679, Note_on_c, 14, 50, 0
19, 486360, Note_on_c, 14, 38, 32
19, 486524, Note_on_c, 14, 38, 0
19, 486540, Note_on_c, 14, 50, 32
19, 486584, Note_on_c, 14, 50, 0
19, 486600, Note_on_c, 14, 50, 32
19, 486704, Note_on_c, 14, 50, 0
19, 486720, Note_on_c, 14, 46, 32
19, 486839, Note_on_c, 14, 46, 0
19, 487080, Note_on_c, 14, 43, 32
19, 487244, Note_on_c, 14, 43, 0
19, 487260, Note_on_c, 14, 55, 32
19, 487304, Note_on_c, 14, 55, 0
19, 487320, Note_on_c, 14, 55, 32
19, 487424, Note_on_c, 14, 55, 0
19, 487440, Note_on_c, 14, 51, 32
19, 487559, Note_on_c, 14, 51, 0
19, 489240, Note_on_c, 14, 51, 32
19, 489404, Note_on_c, 14, 51, 0
19, 489420, Note_on_c, 14, 63, 34
19, 489464, Note_on_c, 14, 63, 0
19, 489480, Note_on_c, 14, 63, 34
19, 489584, Note_on_c, 14, 63, 0
19, 489600, Note_on_c, 14, 60, 36
19, 489719, Note_on_c, 14, 60, 0
19, 489960, Note_on_c, 14, 44, 40
19, 490124, Note_on_c, 14, 44, 0
19, 490140, Note_on_c, 14, 56, 42
19, 490184, Note_on_c, 14, 56, 0
19, 490200, Note_on_c, 14, 56, 42
19, 490304, Note_on_c, 14, 56, 0
19, 490320, Note_on_c, 14, 53, 44
19, 490439, Note_on_c, 14, 53, 0
19, 490680, Note_on_c, 14, 49, 48
19, 490844, Note_on_c, 14, 49, 0
19, 490860, Note_on_c, 14, 61, 50
19, 490904, Note_on_c, 14, 61, 0
19, 490920, Note_on_c, 14, 61, 50
19, 491024, Note_on_c, 14, 61, 0
19, 491040, Note_on_c, 14, 58, 52
19, 491159, Note_on_c, 14, 58, 0
19, 491400, Note_on_c, 14, 42, 56
19, 491564, Note_on_c, 14, 42, 0
19, 491580, Note_on_c, 14, 54, 58
19, 491624, Note_on_c, 14, 54, 0
19, 491640, Note_on_c, 14, 54, 58
19, 491744, Note_on_c, 14, 54, 0
19, 491760, Note_on_c, 14, 51, 60
19, 491879, Note_on_c, 14, 51, 0
19, 492120, Note_on_c, 14, 47, 64
19, 492284, Note_on_c, 14, 47, 0
19, 492300, Note_on_c, 14, 59, 66
19, 492344, Note_on_c, 14, 59, 0
19, 492360, Note_on_c, 14, 59, 66
19, 492464, Note_on_c, 14, 59, 0
19, 492480, Note_on_c, 14, 56, 68
19, 492599, Note_on_c, 14, 56, 0
19, 492840, Note_on_c, 14, 52, 72
19, 493004, Note_on_c, 14, 52, 0
19, 493020, Note_on_c, 14, 64, 74
19, 493064, Note_on_c, 14, 64, 0
19, 493080, Note_on_c, 14, 64, 74
19, 493184, Note_on_c, 14, 64, 0
19, 493200, Note_on_c, 14, 61, 76
19, 493319, Note_on_c, 14, 61, 0
19, 493560, Note_on_c, 14, 45, 80
19, 493724, Note_on_c, 14, 45, 0
19, 493740, Note_on_c, 14, 57, 80
19, 493784, Note_on_c, 14, 57, 0
19, 493800, Note_on_c, 14, 57, 80
19, 493904, Note_on_c, 14, 57, 0
19, 494280, Note_on_c, 14, 46, 92
19, 494444, Note_on_c, 14, 46, 0
19, 494460, Note_on_c, 14, 58, 92
19, 494504, Note_on_c, 14, 58, 0
19, 494520, Note_on_c, 14, 58, 92
19, 494624, Note_on_c, 14, 58, 0
19, 495000, Note_on_c, 14, 47, 92
19, 495164, Note_on_c, 14, 47, 0
19, 495180, Note_on_c, 14, 59, 92
19, 495224, Note_on_c, 14, 59, 0
19, 495240, Note_on_c, 14, 59, 92
19, 495344, Note_on_c, 14, 59, 0
19, 496080, Program_c, 14, 45
19, 496440, Note_on_c, 14, 52, 40
19, 496559, Note_on_c, 14, 52, 0
19, 496800, Note_on_c, 14, 47, 40
19, 496919, Note_on_c, 14, 47, 0
19, 497520, Note_on_c, 14, 52, 40
19, 497639, Note_on_c, 14, 52, 0
19, 497880, Note_on_c, 14, 47, 40
19, 497999, Note_on_c, 14, 47, 0
19, 498600, Note_on_c, 14, 52, 40
19, 498719, Note_on_c, 14, 52, 0
19, 498960, Note_on_c, 14, 47, 40
19, 499079, Note_on_c, 14, 47, 0
19, 499680, Note_on_c, 14, 64, 40
19, 499799, Note_on_c, 14, 64, 0
19, 500040, Note_on_c, 14, 52, 40
19, 500159, Note_on_c, 14, 52, 0
19, 500760, Note_on_c, 14, 57, 40
19, 500879, Note_on_c, 14, 57, 0
19, 501120, Note_on_c, 14, 52, 40
19, 501239, Note_on_c, 14, 52, 0
19, 501840, Note_on_c, 14, 57, 40
19, 501959, Note_on_c, 14, 57, 0
19, 502200, Note_on_c, 14, 52, 40
19, 502319, Note_on_c, 14, 52, 0
19, 502920, Note_on_c, 14, 65, 40
19, 503039, Note_on_c, 14, 65, 0
19, 503280, Note_on_c, 14, 53, 40
19, 503399, Note_on_c, 14, 53, 0
19, 504000, Note_on_c, 14, 65, 40
19, 504119, Note_on_c, 14, 65, 0
19, 504360, Note_on_c, 14, 53, 40
19, 504479, Note_on_c, 14, 53, 0
19, 505080, Note_on_c, 14, 65, 40
19, 505199, Note_on_c, 14, 65, 0
19, 505440, Note_on_c, 14, 53, 40
19, 505559, Note_on_c, 14, 53, 0
19, 506160, Note_on_c, 14, 65, 40
19, 506279, Note_on_c, 14, 65, 0
19, 506520, Note_on_c, 14, 53, 40
19, 506639, Note_on_c, 14, 53, 0
19, 506880, Note_on_c, 14, 53, 40
19, 506999, Note_on_c, 14, 53, 0
19, 507240, Note_on_c, 14, 41, 40
19, 507359, Note_on_c, 14, 41, 0
19, 507600, Note_on_c, 14, 53, 40
19, 507719, Note_on_c, 14, 53, 0
19, 507840, Program_c, 14, 48
19, 507960, Note_on_c, 14, 60, 44
19, 508064, Note_on_c, 14, 60, 0
19, 508080, Note_on_c, 14, 60, 44
19, 508184, Note_on_c, 14, 60, 0
19, 508200, Note_on_c, 14, 60, 44
19, 508304, Note_on_c, 14, 60, 0
19, 508320, Note_on_c, 14, 60, 43
19, 508424, Note_on_c, 14, 60, 0
19, 508440, Note_on_c, 14, 60, 43
19, 508544, Note_on_c, 14, 60, 0
19, 508560, Note_on_c, 14, 60, 43
19, 508664, Note_on_c, 14, 60, 0
19, 508680, Note_on_c, 14, 60, 42
19, 508784, Note_on_c, 14, 60, 0
19, 508800, Note_on_c, 14, 60, 42
19, 508904, Note_on_c, 14, 60, 0
19, 508920, Note_on_c, 14, 60, 42
19, 509024, Note_on_c, 14, 60, 0
19, 509038, Program_c, 14, 45
19, 509040, Note_on_c, 14, 62, 37
19, 509159, Note_on_c, 14, 62, 0
19, 509400, Note_on_c, 14, 50, 36
19, 509519, Note_on_c, 14, 50, 0
19, 509760, Note_on_c, 14, 62, 35
19, 509879, Note_on_c, 14, 62, 0
19, 510120, Note_on_c, 14, 57, 34
19, 510239, Note_on_c, 14, 57, 0
19, 510480, Note_on_c, 14, 45, 33
19, 510599, Note_on_c, 14, 45, 0
19, 510840, Note_on_c, 14, 57, 32
19, 510959, Note_on_c, 14, 57, 0
19, 511200, Note_on_c, 14, 57, 31
19, 511319, Note_on_c, 14, 57, 0
19, 511560, Note_on_c, 14, 45, 30
19, 511679, Note_on_c, 14, 45, 0
19, 511920, Note_on_c, 14, 57, 29
19, 512039, Note_on_c, 14, 57, 0
19, 512280, Note_on_c, 14, 57, 28
19, 512399, Note_on_c, 14, 57, 0
19, 512640, Note_on_c, 14, 45, 28
19, 512759, Note_on_c, 14, 45, 0
19, 513000, Note_on_c, 14, 57, 28
19, 513119, Note_on_c, 14, 57, 0
19, 513360, Note_on_c, 14, 55, 28
19, 513479, Note_on_c, 14, 55, 0
19, 513480, Note_on_c, 14, 53, 28
19, 513599, Note_on_c, 14, 53, 0
19, 513600, Note_on_c, 14, 52, 28
19, 513719, Note_on_c, 14, 52, 0
19, 513720, Note_on_c, 14, 50, 28
19, 513839, Note_on_c, 14, 50, 0
19, 514080, Note_on_c, 14, 45, 28
19, 514199, Note_on_c, 14, 45, 0
19, 514800, Note_on_c, 14, 50, 28
19, 514919, Note_on_c, 14, 50, 0
19, 515160, Note_on_c, 14, 45, 28
19, 515279, Note_on_c, 14, 45, 0
19, 515880, Note_on_c, 14, 50, 28
19, 515999, Note_on_c, 14, 50, 0
19, 516240, Note_on_c, 14, 45, 28
19, 516359, Note_on_c, 14, 45, 0
19, 516480, Program_c, 14, 48
19, 516600, Note_on_c, 14, 57, 32
19, 516764, Note_on_c, 14, 57, 0
19, 516780, Note_on_c, 14, 45, 32
19, 516824, Note_on_c, 14, 45, 0
19, 516840, Note_on_c, 14, 45, 32
19, 516944, Note_on_c, 14, 45, 0
19, 516960, Note_on_c, 14, 69, 32
19, 517124, Note_on_c, 14, 69, 0
19, 517140, Note_on_c, 14, 57, 32
19, 517184, Note_on_c, 14, 57, 0
19, 517200, Note_on_c, 14, 57, 32
19, 517304, Note_on_c, 14, 57, 0
19, 517320, Note_on_c, 14, 61, 32
19, 517424, Note_on_c, 14, 61, 0
19, 517440, Note_on_c, 14, 62, 32
19, 517544, Note_on_c, 14, 62, 0
19, 517560, Note_on_c, 14, 64, 32
19, 517664, Note_on_c, 14, 64, 0
19, 517680, Note_on_c, 14, 69, 32
19, 517784, Note_on_c, 14, 69, 0
19, 517800, Note_on_c, 14, 67, 32
19, 517904, Note_on_c, 14, 67, 0
19, 517920, Note_on_c, 14, 65, 32
19, 518024, Note_on_c, 14, 65, 0
19, 518040, Note_on_c, 14, 65, 32
19, 518144, Note_on_c, 14, 65, 0
19, 518160, Note_on_c, 14, 63, 32
19, 518264, Note_on_c, 14, 63, 0
19, 518280, Note_on_c, 14, 59, 32
19, 518384, Note_on_c, 14, 59, 0
19, 518400, Note_on_c, 14, 60, 32
19, 518504, Note_on_c, 14, 60, 0
19, 518520, Note_on_c, 14, 65, 32
19, 518624, Note_on_c, 14, 65, 0
19, 518640, Note_on_c, 14, 63, 32
19, 518744, Note_on_c, 14, 63, 0
19, 518760, Note_on_c, 14, 65, 32
19, 518864, Note_on_c, 14, 65, 0
19, 518880, Note_on_c, 14, 63, 32
19, 518984, Note_on_c, 14, 63, 0
19, 519000, Note_on_c, 14, 67, 32
19, 519104, Note_on_c, 14, 67, 0
19, 519120, Note_on_c, 14, 67, 32
19, 519224, Note_on_c, 14, 67, 0
19, 519240, Note_on_c, 14, 65, 32
19, 519344, Note_on_c, 14, 65, 0
19, 519360, Note_on_c, 14, 63, 32
19, 519464, Note_on_c, 14, 63, 0
19, 519480, Note_on_c, 14, 68, 32
19, 519584, Note_on_c, 14, 68, 0
19, 519600, Note_on_c, 14, 67, 32
19, 519704, Note_on_c, 14, 67, 0
19, 519720, Note_on_c, 14, 65, 32
19, 519824, Note_on_c, 14, 65, 0
19, 519840, Note_on_c, 14, 67, 32
19, 519944, Note_on_c, 14, 67, 0
19, 519960, Note_on_c, 14, 58, 32
19, 520064, Note_on_c, 14, 58, 0
19, 520080, Note_on_c, 14, 58, 32
19, 520184, Note_on_c, 14, 58, 0
19, 520200, Note_on_c, 14, 65, 32
19, 520304, Note_on_c, 14, 65, 0
19, 520320, Note_on_c, 14, 63, 32
19, 520424, Note_on_c, 14, 63, 0
19, 520440, Note_on_c, 14, 62, 32
19, 520544, Note_on_c, 14, 62, 0
19, 520560, Note_on_c, 14, 58, 32
19, 520664, Note_on_c, 14, 58, 0
19, 520680, Note_on_c, 14, 56, 32
19, 520784, Note_on_c, 14, 56, 0
19, 520800, Note_on_c, 14, 55, 32
19, 520904, Note_on_c, 14, 55, 0
19, 520920, Note_on_c, 14, 62, 32
19, 521024, Note_on_c, 14, 62, 0
19, 521040, Note_on_c, 14, 63, 32
19, 521144, Note_on_c, 14, 63, 0
19, 521160, Note_on_c, 14, 58, 32
19, 521264, Note_on_c, 14, 58, 0
19, 521280, Note_on_c, 14, 58, 32
19, 521384, Note_on_c, 14, 58, 0
19, 521400, Note_on_c, 14, 56, 32
19, 521504, Note_on_c, 14, 56, 0
19, 521520, Note_on_c, 14, 55, 32
19, 521624, Note_on_c, 14, 55, 0
19, 521638, Control_c, 14, 11, 47
19, 521640, Note_on_c, 14, 46, 80
19, 523079, Note_on_c, 14, 46, 0
19, 523080, Note_on_c, 14, 46, 80
19, 524519, Note_on_c, 14, 46, 0
19, 524520, Control_c, 14, 11, 47
19, 524520, Note_on_c, 14, 46, 80
19, 524592, Control_c, 14, 11, 48
19, 524664, Control_c, 14, 11, 49
19, 524736, Control_c, 14, 11, 50
19, 524808, Control_c, 14, 11, 51
19, 524880, Control_c, 14, 11, 52
19, 524952, Control_c, 14, 11, 53
19, 525024, Control_c, 14, 11, 54
19, 525096, Control_c, 14, 11, 55
19, 525168, Control_c, 14, 11, 56
19, 525240, Control_c, 14, 11, 57
19, 525312, Control_c, 14, 11, 58
19, 525384, Control_c, 14, 11, 59
19, 525456, Control_c, 14, 11, 60
19, 525528, Control_c, 14, 11, 61
19, 525600, Control_c, 14, 11, 62
19, 525672, Control_c, 14, 11, 63
19, 525744, Control_c, 14, 11, 64
19, 525816, Control_c, 14, 11, 65
19, 525888, Control_c, 14, 11, 66
19, 525944, Note_on_c, 14, 46, 0
19, 525960, Control_c, 14, 11, 67
19, 525960, Note_on_c, 14, 45, 80
19, 525990, Control_c, 14, 11, 68
19, 526020, Control_c, 14, 11, 70
19, 526050, Control_c, 14, 11, 71
19, 526080, Control_c, 14, 11, 72
19, 526110, Control_c, 14, 11, 73
19, 526140, Control_c, 14, 11, 75
19, 526170, Control_c, 14, 11, 76
19, 526200, Control_c, 14, 11, 77
19, 526230, Control_c, 14, 11, 78
19, 526260, Control_c, 14, 11, 80
19, 526290, Control_c, 14, 11, 81
19, 526320, Control_c, 14, 11, 82
19, 526350, Control_c, 14, 11, 83
19, 526380, Control_c, 14, 11, 85
19, 526410, Control_c, 14, 11, 86
19, 526440, Control_c, 14, 11, 87
19, 526470, Control_c, 14, 11, 88
19, 526500, Control_c, 14, 11, 90
19, 526530, Control_c, 14, 11, 91
19, 526560, Control_c, 14, 11, 92
19, 526590, Control_c, 14, 11, 93
19, 526620, Control_c, 14, 11, 95
19, 526650, Control_c, 14, 11, 96
19, 526680, Control_c, 14, 11, 97
19, 526710, Control_c, 14, 11, 98
19, 526740, Control_c, 14, 11, 100
19, 526770, Control_c, 14, 11, 101
19, 526800, Control_c, 14, 11, 102
19, 526830, Control_c, 14, 11, 103
19, 526860, Control_c, 14, 11, 105
19, 526890, Control_c, 14, 11, 106
19, 526920, Control_c, 14, 11, 107
19, 526950, Control_c, 14, 11, 108
19, 526980, Control_c, 14, 11, 110
19, 527010, Control_c, 14, 11, 111
19, 527040, Control_c, 14, 11, 112
19, 527070, Control_c, 14, 11, 113
19, 527100, Control_c, 14, 11, 115
19, 527130, Control_c, 14, 11, 116
19, 527160, Control_c, 14, 11, 117
19, 527190, Control_c, 14, 11, 118
19, 527220, Control_c, 14, 11, 120
19, 527250, Control_c, 14, 11, 121
19, 527280, Control_c, 14, 11, 122
19, 527310, Control_c, 14, 11, 123
19, 527340, Control_c, 14, 11, 125
19, 527370, Control_c, 14, 11, 127
19, 527384, Note_on_c, 14, 45, 0
19, 527400, Note_on_c, 14, 45, 80
19, 527519, Note_on_c, 14, 45, 0
19, 528120, Note_on_c, 14, 45, 86
19, 528239, Note_on_c, 14, 45, 0
19, 528840, Note_on_c, 14, 38, 92
19, 529004, Note_on_c, 14, 38, 0
19, 529020, Note_on_c, 14, 50, 92
19, 529064, Note_on_c, 14, 50, 0
19, 529080, Note_on_c, 14, 50, 92
19, 529184, Note_on_c, 14, 50, 0
19, 529200, Note_on_c, 14, 38, 92
19, 529364, Note_on_c, 14, 38, 0
19, 529380, Note_on_c, 14, 50, 92
19, 529424, Note_on_c, 14, 50, 0
19, 529440, Note_on_c, 14, 50, 92
19, 529544, Note_on_c, 14, 50, 0
19, 529560, Note_on_c, 14, 38, 92
19, 529724, Note_on_c, 14, 38, 0
19, 529740, Note_on_c, 14, 50, 92
19, 529784, Note_on_c, 14, 50, 0
19, 529800, Note_on_c, 14, 50, 92
19, 529904, Note_on_c, 14, 50, 0
19, 529920, Note_on_c, 14, 38, 92
19, 530084, Note_on_c, 14, 38, 0
19, 530100, Note_on_c, 14, 50, 92
19, 530144, Note_on_c, 14, 50, 0
19, 530160, Note_on_c, 14, 50, 92
19, 530264, Note_on_c, 14, 50, 0
19, 530280, Note_on_c, 14, 38, 92
19, 530444, Note_on_c, 14, 38, 0
19, 530460, Note_on_c, 14, 50, 92
19, 530504, Note_on_c, 14, 50, 0
19, 530520, Note_on_c, 14, 50, 92
19, 530624, Note_on_c, 14, 50, 0
19, 530640, Note_on_c, 14, 38, 92
19, 530804, Note_on_c, 14, 38, 0
19, 530820, Note_on_c, 14, 50, 92
19, 530864, Note_on_c, 14, 50, 0
19, 530880, Note_on_c, 14, 50, 92
19, 530984, Note_on_c, 14, 50, 0
19, 531000, Note_on_c, 14, 38, 92
19, 531164, Note_on_c, 14, 38, 0
19, 531180, Note_on_c, 14, 50, 92
19, 531224, Note_on_c, 14, 50, 0
19, 531240, Note_on_c, 14, 50, 92
19, 531344, Note_on_c, 14, 50, 0
19, 531360, Note_on_c, 14, 38, 92
19, 531524, Note_on_c, 14, 38, 0
19, 531540, Note_on_c, 14, 50, 92
19, 531584, Note_on_c, 14, 50, 0
19, 531600, Note_on_c, 14, 50, 92
19, 531704, Note_on_c, 14, 50, 0
19, 531720, Note_on_c, 14, 38, 92
19, 531884, Note_on_c, 14, 38, 0
19, 531900, Note_on_c, 14, 50, 92
19, 531944, Note_on_c, 14, 50, 0
19, 531960, Note_on_c, 14, 50, 92
19, 532064, Note_on_c, 14, 50, 0
19, 532080, Note_on_c, 14, 38, 92
19, 532244, Note_on_c, 14, 38, 0
19, 532260, Note_on_c, 14, 50, 92
19, 532304, Note_on_c, 14, 50, 0
19, 532320, Note_on_c, 14, 50, 92
19, 532424, Note_on_c, 14, 50, 0
19, 532440, Note_on_c, 14, 38, 92
19, 532604, Note_on_c, 14, 38, 0
19, 532620, Note_on_c, 14, 50, 92
19, 532664, Note_on_c, 14, 50, 0
19, 532680, Note_on_c, 14, 50, 92
19, 532784, Note_on_c, 14, 50, 0
19, 532800, Note_on_c, 14, 38, 92
19, 532964, Note_on_c, 14, 38, 0
19, 532980, Note_on_c, 14, 50, 92
19, 533024, Note_on_c, 14, 50, 0
19, 533040, Note_on_c, 14, 50, 92
19, 533144, Note_on_c, 14, 50, 0
19, 533160, Note_on_c, 14, 38, 92
19, 533324, Note_on_c, 14, 38, 0
19, 533340, Note_on_c, 14, 50, 92
19, 533384, Note_on_c, 14, 50, 0
19, 533400, Note_on_c, 14, 50, 92
19, 533504, Note_on_c, 14, 50, 0
19, 533520, Note_on_c, 14, 38, 92
19, 533684, Note_on_c, 14, 38, 0
19, 533700, Note_on_c, 14, 50, 92
19, 533744, Note_on_c, 14, 50, 0
19, 533760, Note_on_c, 14, 50, 92
19, 533864, Note_on_c, 14, 50, 0
19, 533880, Note_on_c, 14, 38, 92
19, 534044, Note_on_c, 14, 38, 0
19, 534060, Note_on_c, 14, 50, 92
19, 534104, Note_on_c, 14, 50, 0
19, 534120, Note_on_c, 14, 50, 92
19, 534224, Note_on_c, 14, 50, 0
19, 534240, Note_on_c, 14, 38, 92
19, 534404, Note_on_c, 14, 38, 0
19, 534420, Note_on_c, 14, 50, 92
19, 534464, Note_on_c, 14, 50, 0
19, 534480, Note_on_c, 14, 50, 92
19, 534584, Note_on_c, 14, 50, 0
19, 534600, Note_on_c, 14, 63, 92
19, 534689, Note_on_c, 14, 63, 0
19, 534720, Note_on_c, 14, 62, 92
19, 534809, Note_on_c, 14, 62, 0
19, 534840, Note_on_c, 14, 60, 92
19, 534929, Note_on_c, 14, 60, 0
19, 534960, Note_on_c, 14, 58, 92
19, 535049, Note_on_c, 14, 58, 0
19, 535080, Note_on_c, 14, 57, 92
19, 535169, Note_on_c, 14, 57, 0
19, 535200, Note_on_c, 14, 55, 92
19, 535289, Note_on_c, 14, 55, 0
19, 535320, Note_on_c, 14, 54, 92
19, 535409, Note_on_c, 14, 54, 0
19, 535440, Note_on_c, 14, 55, 92
19, 535529, Note_on_c, 14, 55, 0
19, 535560, Note_on_c, 14, 57, 92
19, 535649, Note_on_c, 14, 57, 0
19, 535680, Note_on_c, 14, 55, 92
19, 535769, Note_on_c, 14, 55, 0
19, 535800, Note_on_c, 14, 57, 92
19, 535889, Note_on_c, 14, 57, 0
19, 535920, Note_on_c, 14, 58, 92
19, 536009, Note_on_c, 14, 58, 0
19, 536040, Note_on_c, 14, 63, 80
19, 536129, Note_on_c, 14, 63, 0
19, 536160, Note_on_c, 14, 62, 80
19, 536249, Note_on_c, 14, 62, 0
19, 536280, Note_on_c, 14, 60, 80
19, 536369, Note_on_c, 14, 60, 0
19, 536400, Note_on_c, 14, 58, 80
19, 536489, Note_on_c, 14, 58, 0
19, 536520, Note_on_c, 14, 57, 80
19, 536609, Note_on_c, 14, 57, 0
19, 536640, Note_on_c, 14, 55, 80
19, 536729, Note_on_c, 14, 55, 0
19, 536760, Note_on_c, 14, 65, 80
19, 536849, Note_on_c, 14, 65, 0
19, 536880, Note_on_c, 14, 63, 80
19, 536969, Note_on_c, 14, 63, 0
19, 537000, Note_on_c, 14, 62, 80
19, 537089, Note_on_c, 14, 62, 0
19, 537120, Note_on_c, 14, 60, 80
19, 537209, Note_on_c, 14, 60, 0
19, 537240, Note_on_c, 14, 58, 80
19, 537329, Note_on_c, 14, 58, 0
19, 537360, Note_on_c, 14, 57, 80
19, 537449, Note_on_c, 14, 57, 0
19, 537480, Note_on_c, 14, 67, 80
19, 537569, Note_on_c, 14, 67, 0
19, 537600, Note_on_c, 14, 65, 80
19, 537689, Note_on_c, 14, 65, 0
19, 537720, Note_on_c, 14, 63, 80
19, 537809, Note_on_c, 14, 63, 0
19, 537840, Note_on_c, 14, 62, 80
19, 537929, Note_on_c, 14, 62, 0
19, 537960, Note_on_c, 14, 60, 80
19, 538049, Note_on_c, 14, 60, 0
19, 538080, Note_on_c, 14, 58, 80
19, 538169, Note_on_c, 14, 58, 0
19, 538200, Note_on_c, 14, 57, 80
19, 538289, Note_on_c, 14, 57, 0
19, 538320, Note_on_c, 14, 55, 80
19, 538409, Note_on_c, 14, 55, 0
19, 538440, Note_on_c, 14, 53, 80
19, 538529, Note_on_c, 14, 53, 0
19, 538560, Note_on_c, 14, 51, 80
19, 538649, Note_on_c, 14, 51, 0
19, 538680, Note_on_c, 14, 50, 80
19, 538769, Note_on_c, 14, 50, 0
19, 538800, Note_on_c, 14, 48, 80
19, 538889, Note_on_c, 14, 48, 0
19, 538920, Note_on_c, 14, 46, 80
19, 539009, Note_on_c, 14, 46, 0
19, 539160, Program_c, 14, 45
19, 539280, Note_on_c, 14, 58, 40
19, 539399, Note_on_c, 14, 58, 0
19, 539640, Note_on_c, 14, 51, 40
19, 539759, Note_on_c, 14, 51, 0
19, 540000, Note_on_c, 14, 48, 40
19, 540119, Note_on_c, 14, 48, 0
19, 540360, Note_on_c, 14, 53, 40
19, 540479, Note_on_c, 14, 53, 0
19, 540720, Note_on_c, 14, 46, 40
19, 540839, Note_on_c, 14, 46, 0
19, 541080, Note_on_c, 14, 53, 40
19, 541199, Note_on_c, 14, 53, 0
19, 541440, Note_on_c, 14, 41, 40
19, 541559, Note_on_c, 14, 41, 0
19, 545040, Program_c, 14, 48
19, 545040, Control_c, 14, 11, 87
19, 545400, Note_on_c, 14, 57, 68
19, 545760, Control_c, 14, 11, 87
19, 545796, Control_c, 14, 11, 88
19, 545832, Control_c, 14, 11, 89
19, 545868, Control_c, 14, 11, 90
19, 545904, Control_c, 14, 11, 91
19, 545940, Control_c, 14, 11, 92
19, 545976, Control_c, 14, 11, 93
19, 546012, Control_c, 14, 11, 94
19, 546048, Control_c, 14, 11, 95
19, 546084, Control_c, 14, 11, 96
19, 546120, Control_c, 14, 11, 97
19, 546156, Control_c, 14, 11, 98
19, 546192, Control_c, 14, 11, 99
19, 546228, Control_c, 14, 11, 100
19, 546264, Control_c, 14, 11, 101
19, 546300, Control_c, 14, 11, 102
19, 546336, Control_c, 14, 11, 103
19, 546372, Control_c, 14, 11, 104
19, 546408, Control_c, 14, 11, 105
19, 546444, Control_c, 14, 11, 106
19, 546479, Note_on_c, 14, 57, 0
19, 546480, Control_c, 14, 11, 107
19, 546480, Note_on_c, 14, 55, 68
19, 546516, Control_c, 14, 11, 108
19, 546552, Control_c, 14, 11, 109
19, 546588, Control_c, 14, 11, 110
19, 546624, Control_c, 14, 11, 111
19, 546660, Control_c, 14, 11, 112
19, 546696, Control_c, 14, 11, 113
19, 546732, Control_c, 14, 11, 114
19, 546768, Control_c, 14, 11, 115
19, 546804, Control_c, 14, 11, 116
19, 546840, Control_c, 14, 11, 117
19, 546876, Control_c, 14, 11, 118
19, 546912, Control_c, 14, 11, 119
19, 546948, Control_c, 14, 11, 120
19, 546984, Control_c, 14, 11, 121
19, 547020, Control_c, 14, 11, 122
19, 547056, Control_c, 14, 11, 123
19, 547092, Control_c, 14, 11, 124
19, 547128, Control_c, 14, 11, 125
19, 547164, Control_c, 14, 11, 126
19, 547199, Note_on_c, 14, 55, 0
19, 547200, Note_on_c, 14, 54, 68
19, 547200, Control_c, 14, 11, 127
19, 547230, Control_c, 14, 11, 126
19, 547260, Control_c, 14, 11, 125
19, 547290, Control_c, 14, 11, 124
19, 547320, Control_c, 14, 11, 123
19, 547350, Control_c, 14, 11, 121
19, 547380, Control_c, 14, 11, 120
19, 547410, Control_c, 14, 11, 119
19, 547440, Control_c, 14, 11, 118
19, 547470, Control_c, 14, 11, 117
19, 547500, Control_c, 14, 11, 116
19, 547530, Control_c, 14, 11, 115
19, 547559, Note_on_c, 14, 54, 0
19, 547560, Control_c, 14, 11, 114
19, 547560, Note_on_c, 14, 53, 68
19, 547590, Control_c, 14, 11, 113
19, 547620, Control_c, 14, 11, 111
19, 547650, Control_c, 14, 11, 110
19, 547680, Control_c, 14, 11, 109
19, 547710, Control_c, 14, 11, 108
19, 547740, Control_c, 14, 11, 107
19, 547770, Control_c, 14, 11, 106
19, 547800, Control_c, 14, 11, 105
19, 547830, Control_c, 14, 11, 104
19, 547860, Control_c, 14, 11, 103
19, 547890, Control_c, 14, 11, 101
19, 547919, Note_on_c, 14, 53, 0
19, 547920, Note_on_c, 14, 52, 68
19, 547920, Control_c, 14, 11, 100
19, 547950, Control_c, 14, 11, 99
19, 547980, Control_c, 14, 11, 98
19, 548010, Control_c, 14, 11, 97
19, 548040, Control_c, 14, 11, 96
19, 548070, Control_c, 14, 11, 95
19, 548100, Control_c, 14, 11, 94
19, 548130, Control_c, 14, 11, 93
19, 548160, Control_c, 14, 11, 91
19, 548190, Control_c, 14, 11, 90
19, 548220, Control_c, 14, 11, 89
19, 548250, Control_c, 14, 11, 88
19, 548264, Note_on_c, 14, 52, 0
19, 548278, Control_c, 14, 11, 47
19, 548280, Note_on_c, 14, 57, 92
19, 548280, Control_c, 14, 11, 47
19, 548316, Control_c, 14, 11, 48
19, 548352, Control_c, 14, 11, 49
19, 548388, Control_c, 14, 11, 50
19, 548424, Control_c, 14, 11, 51
19, 548444, Note_on_c, 14, 57, 0
19, 548460, Note_on_c, 14, 45, 92
19, 548460, Control_c, 14, 11, 52
19, 548496, Control_c, 14, 11, 53
19, 548504, Note_on_c, 14, 45, 0
19, 548520, Note_on_c, 14, 45, 92
19, 548532, Control_c, 14, 11, 54
19, 548568, Control_c, 14, 11, 55
19, 548604, Control_c, 14, 11, 56
19, 548624, Note_on_c, 14, 45, 0
19, 548640, Note_on_c, 14, 57, 92
19, 548640, Control_c, 14, 11, 57
19, 548676, Control_c, 14, 11, 58
19, 548712, Control_c, 14, 11, 59
19, 548748, Control_c, 14, 11, 60
19, 548784, Control_c, 14, 11, 61
19, 548804, Note_on_c, 14, 57, 0
19, 548820, Control_c, 14, 11, 62
19, 548820, Note_on_c, 14, 45, 92
19, 548856, Control_c, 14, 11, 63
19, 548864, Note_on_c, 14, 45, 0
19, 548880, Note_on_c, 14, 45, 92
19, 548892, Control_c, 14, 11, 64
19, 548928, Control_c, 14, 11, 65
19, 548964, Control_c, 14, 11, 66
19, 548984, Note_on_c, 14, 45, 0
19, 549000, Control_c, 14, 11, 67
19, 549000, Note_on_c, 14, 59, 92
19, 549036, Control_c, 14, 11, 68
19, 549072, Control_c, 14, 11, 69
19, 549108, Control_c, 14, 11, 70
19, 549144, Control_c, 14, 11, 71
19, 549164, Note_on_c, 14, 59, 0
19, 549180, Note_on_c, 14, 47, 92
19, 549180, Control_c, 14, 11, 72
19, 549216, Control_c, 14, 11, 73
19, 549224, Note_on_c, 14, 47, 0
19, 549240, Note_on_c, 14, 47, 92
19, 549252, Control_c, 14, 11, 74
19, 549288, Control_c, 14, 11, 75
19, 549324, Control_c, 14, 11, 76
19, 549344, Note_on_c, 14, 47, 0
19, 549360, Control_c, 14, 11, 77
19, 549360, Note_on_c, 14, 64, 92
19, 549396, Control_c, 14, 11, 78
19, 549432, Control_c, 14, 11, 79
19, 549468, Control_c, 14, 11, 80
19, 549504, Control_c, 14, 11, 81
19, 549524, Note_on_c, 14, 64, 0
19, 549540, Note_on_c, 14, 52, 92
19, 549540, Control_c, 14, 11, 82
19, 549576, Control_c, 14, 11, 83
19, 549584, Note_on_c, 14, 52, 0
19, 549600, Note_on_c, 14, 52, 92
19, 549612, Control_c, 14, 11, 84
19, 549648, Control_c, 14, 11, 85
19, 549684, Control_c, 14, 11, 86
19, 549704, Note_on_c, 14, 52, 0
19, 549720, Control_c, 14, 11, 87
19, 549720, Note_on_c, 14, 61, 92
19, 549756, Control_c, 14, 11, 88
19, 549792, Control_c, 14, 11, 89
19, 549828, Control_c, 14, 11, 90
19, 549864, Control_c, 14, 11, 91
19, 549884, Note_on_c, 14, 61, 0
19, 549900, Control_c, 14, 11, 92
19, 549900, Note_on_c, 14, 49, 92
19, 549936, Control_c, 14, 11, 93
19, 549944, Note_on_c, 14, 49, 0
19, 549960, Note_on_c, 14, 49, 92
19, 549972, Control_c, 14, 11, 94
19, 550008, Control_c, 14, 11, 95
19, 550044, Control_c, 14, 11, 96
19, 550064, Note_on_c, 14, 49, 0
19, 550080, Note_on_c, 14, 62, 92
19, 550080, Control_c, 14, 11, 97
19, 550116, Control_c, 14, 11, 98
19, 550152, Control_c, 14, 11, 99
19, 550188, Control_c, 14, 11, 100
19, 550224, Control_c, 14, 11, 101
19, 550244, Note_on_c, 14, 62, 0
19, 550260, Control_c, 14, 11, 102
19, 550260, Note_on_c, 14, 50, 92
19, 550296, Control_c, 14, 11, 103
19, 550304, Note_on_c, 14, 50, 0
19, 550320, Note_on_c, 14, 50, 92
19, 550332, Control_c, 14, 11, 104
19, 550368, Control_c, 14, 11, 105
19, 550404, Control_c, 14, 11, 106
19, 550424, Note_on_c, 14, 50, 0
19, 550440, Note_on_c, 14, 62, 92
19, 550440, Control_c, 14, 11, 107
19, 550476, Control_c, 14, 11, 108
19, 550512, Control_c, 14, 11, 109
19, 550548, Control_c, 14, 11, 110
19, 550584, Control_c, 14, 11, 111
19, 550604, Note_on_c, 14, 62, 0
19, 550620, Note_on_c, 14, 50, 92
19, 550620, Control_c, 14, 11, 112
19, 550656, Control_c, 14, 11, 113
19, 550664, Note_on_c, 14, 50, 0
19, 550680, Note_on_c, 14, 50, 92
19, 550692, Control_c, 14, 11, 114
19, 550728, Control_c, 14, 11, 115
19, 550764, Control_c, 14, 11, 116
19, 550784, Note_on_c, 14, 50, 0
19, 550800, Note_on_c, 14, 69, 92
19, 550800, Control_c, 14, 11, 117
19, 550836, Control_c, 14, 11, 118
19, 550872, Control_c, 14, 11, 119
19, 550908, Control_c, 14, 11, 120
19, 550944, Control_c, 14, 11, 121
19, 550964, Note_on_c, 14, 69, 0
19, 550980, Control_c, 14, 11, 122
19, 550980, Note_on_c, 14, 57, 92
19, 551016, Control_c, 14, 11, 123
19, 551024, Note_on_c, 14, 57, 0
19, 551040, Note_on_c, 14, 57, 92
19, 551052, Control_c, 14, 11, 124
19, 551088, Control_c, 14, 11, 125
19, 551124, Control_c, 14, 11, 127
19, 551144, Note_on_c, 14, 57, 0
19, 551160, Note_on_c, 14, 62, 92
19, 551324, Note_on_c, 14, 62, 0
19, 551340, Note_on_c, 14, 50, 92
19, 551384, Note_on_c, 14, 50, 0
19, 551400, Note_on_c, 14, 50, 92
19, 551504, Note_on_c, 14, 50, 0
19, 551520, Note_on_c, 14, 62, 92
19, 551684, Note_on_c, 14, 62, 0
19, 551700, Note_on_c, 14, 50, 92
19, 551744, Note_on_c, 14, 50, 0
19, 551760, Note_on_c, 14, 50, 92
19, 551864, Note_on_c, 14, 50, 0
19, 551880, Note_on_c, 14, 62, 92
19, 552044, Note_on_c, 14, 62, 0
19, 552060, Note_on_c, 14, 50, 92
19, 552104, Note_on_c, 14, 50, 0
19, 552120, Note_on_c, 14, 50, 92
19, 552224, Note_on_c, 14, 50, 0
19, 552240, Note_on_c, 14, 62, 92
19, 552404, Note_on_c, 14, 62, 0
19, 552420, Note_on_c, 14, 50, 92
19, 552464, Note_on_c, 14, 50, 0
19, 552480, Note_on_c, 14, 50, 92
19, 552584, Note_on_c, 14, 50, 0
19, 552600, Note_on_c, 14, 62, 92
19, 552764, Note_on_c, 14, 62, 0
19, 552780, Note_on_c, 14, 50, 92
19, 552824, Note_on_c, 14, 50, 0
19, 552840, Note_on_c, 14, 50, 92
19, 552944, Note_on_c, 14, 50, 0
19, 552960, Note_on_c, 14, 62, 92
19, 553124, Note_on_c, 14, 62, 0
19, 553140, Note_on_c, 14, 50, 92
19, 553184, Note_on_c, 14, 50, 0
19, 553200, Note_on_c, 14, 50, 92
19, 553304, Note_on_c, 14, 50, 0
19, 553320, Note_on_c, 14, 62, 92
19, 553484, Note_on_c, 14, 62, 0
19, 553500, Note_on_c, 14, 50, 92
19, 553544, Note_on_c, 14, 50, 0
19, 553560, Note_on_c, 14, 50, 92
19, 553664, Note_on_c, 14, 50, 0
19, 553680, Note_on_c, 14, 62, 92
19, 553844, Note_on_c, 14, 62, 0
19, 553860, Note_on_c, 14, 50, 92
19, 553904, Note_on_c, 14, 50, 0
19, 553920, Note_on_c, 14, 50, 92
19, 554024, Note_on_c, 14, 50, 0
19, 554040, Note_on_c, 14, 62, 92
19, 554204, Note_on_c, 14, 62, 0
19, 554220, Note_on_c, 14, 50, 92
19, 554264, Note_on_c, 14, 50, 0
19, 554280, Note_on_c, 14, 50, 92
19, 554384, Note_on_c, 14, 50, 0
19, 554400, Note_on_c, 14, 62, 92
19, 554564, Note_on_c, 14, 62, 0
19, 554580, Note_on_c, 14, 50, 92
19, 554624, Note_on_c, 14, 50, 0
19, 554640, Note_on_c, 14, 50, 92
19, 554744, Note_on_c, 14, 50, 0
19, 554760, Note_on_c, 14, 62, 92
19, 554924, Note_on_c, 14, 62, 0
19, 554940, Note_on_c, 14, 50, 92
19, 554984, Note_on_c, 14, 50, 0
19, 555000, Note_on_c, 14, 50, 92
19, 555104, Note_on_c, 14, 50, 0
19, 555120, Note_on_c, 14, 62, 92
19, 555284, Note_on_c, 14, 62, 0
19, 555300, Note_on_c, 14, 50, 92
19, 555344, Note_on_c, 14, 50, 0
19, 555360, Note_on_c, 14, 50, 92
19, 555464, Note_on_c, 14, 50, 0
19, 555480, Note_on_c, 14, 62, 92
19, 555644, Note_on_c, 14, 62, 0
19, 555660, Note_on_c, 14, 50, 92
19, 555704, Note_on_c, 14, 50, 0
19, 555720, Note_on_c, 14, 50, 92
19, 555824, Note_on_c, 14, 50, 0
19, 555840, Note_on_c, 14, 62, 92
19, 556004, Note_on_c, 14, 62, 0
19, 556020, Note_on_c, 14, 50, 92
19, 556064, Note_on_c, 14, 50, 0
19, 556080, Note_on_c, 14, 50, 92
19, 556184, Note_on_c, 14, 50, 0
19, 556200, Note_on_c, 14, 62, 92
19, 556364, Note_on_c, 14, 62, 0
19, 556380, Note_on_c, 14, 50, 92
19, 556424, Note_on_c, 14, 50, 0
19, 556440, Note_on_c, 14, 50, 92
19, 556544, Note_on_c, 14, 50, 0
19, 556560, Note_on_c, 14, 62, 92
19, 556724, Note_on_c, 14, 62, 0
19, 556740, Note_on_c, 14, 50, 92
19, 556784, Note_on_c, 14, 50, 0
19, 556800, Note_on_c, 14, 50, 92
19, 556904, Note_on_c, 14, 50, 0
19, 556920, Note_on_c, 14, 62, 92
19, 557039, Note_on_c, 14, 62, 0
19, 557640, Note_on_c, 14, 55, 92
19, 557804, Note_on_c, 14, 55, 0
19, 557820, Note_on_c, 14, 43, 92
19, 557864, Note_on_c, 14, 43, 0
19, 557880, Note_on_c, 14, 43, 92
19, 557984, Note_on_c, 14, 43, 0
19, 558000, Note_on_c, 14, 43, 92
19, 558089, Note_on_c, 14, 43, 0
19, 558120, Note_on_c, 14, 40, 92
19, 558209, Note_on_c, 14, 40, 0
19, 558240, Note_on_c, 14, 38, 92
19, 558329, Note_on_c, 14, 38, 0
19, 558360, Note_on_c, 14, 48, 92
19, 558360, Note_on_c, 14, 36, 92
19, 558479, Note_on_c, 14, 48, 0
19, 558479, Note_on_c, 14, 36, 0
19, 559080, Note_on_c, 14, 65, 92
19, 559244, Note_on_c, 14, 65, 0
19, 559260, Note_on_c, 14, 53, 92
19, 559304, Note_on_c, 14, 53, 0
19, 559320, Note_on_c, 14, 53, 92
19, 559424, Note_on_c, 14, 53, 0
19, 559440, Note_on_c, 14, 53, 92
19, 559544, Note_on_c, 14, 53, 0
19, 559560, Note_on_c, 14, 50, 92
19, 559664, Note_on_c, 14, 50, 0
19, 559680, Note_on_c, 14, 48, 92
19, 559784, Note_on_c, 14, 48, 0
19, 559798, Control_c, 14, 11, 87
19, 559800, Note_on_c, 14, 48, 68
19, 560024, Note_on_c, 14, 48, 0
19, 560040, Note_on_c, 14, 60, 68
19, 560144, Note_on_c, 14, 60, 0
19, 560160, Note_on_c, 14, 58, 68
19, 560520, Control_c, 14, 11, 87
19, 560550, Control_c, 14, 11, 88
19, 560580, Control_c, 14, 11, 89
19, 560610, Control_c, 14, 11, 90
19, 560640, Control_c, 14, 11, 91
19, 560670, Control_c, 14, 11, 93
19, 560700, Control_c, 14, 11, 94
19, 560730, Control_c, 14, 11, 95
19, 560760, Control_c, 14, 11, 96
19, 560790, Control_c, 14, 11, 97
19, 560820, Control_c, 14, 11, 98
19, 560850, Control_c, 14, 11, 99
19, 560880, Control_c, 14, 11, 100
19, 560910, Control_c, 14, 11, 101
19, 560940, Control_c, 14, 11, 103
19, 560970, Control_c, 14, 11, 104
19, 560999, Note_on_c, 14, 58, 0
19, 561000, Control_c, 14, 11, 105
19, 561000, Note_on_c, 14, 56, 68
19, 561030, Control_c, 14, 11, 106
19, 561060, Control_c, 14, 11, 107
19, 561090, Control_c, 14, 11, 108
19, 561119, Note_on_c, 14, 56, 0
19, 561120, Control_c, 14, 11, 109
19, 561120, Note_on_c, 14, 55, 68
19, 561150, Control_c, 14, 11, 110
19, 561180, Control_c, 14, 11, 111
19, 561210, Control_c, 14, 11, 113
19, 561224, Note_on_c, 14, 55, 0
19, 561240, Note_on_c, 14, 55, 68
19, 561240, Control_c, 14, 11, 114
19, 561270, Control_c, 14, 11, 115
19, 561300, Control_c, 14, 11, 116
19, 561330, Control_c, 14, 11, 117
19, 561360, Control_c, 14, 11, 118
19, 561390, Control_c, 14, 11, 119
19, 561420, Control_c, 14, 11, 120
19, 561450, Control_c, 14, 11, 121
19, 561480, Control_c, 14, 11, 123
19, 561510, Control_c, 14, 11, 124
19, 561540, Control_c, 14, 11, 125
19, 561570, Control_c, 14, 11, 126
19, 561584, Note_on_c, 14, 55, 0
19, 561600, Note_on_c, 14, 57, 68
19, 561600, Control_c, 14, 11, 127
19, 561630, Control_c, 14, 11, 124
19, 561660, Control_c, 14, 11, 120
19, 561690, Control_c, 14, 11, 117
19, 561720, Control_c, 14, 11, 114
19, 561750, Control_c, 14, 11, 110
19, 561780, Control_c, 14, 11, 107
19, 561810, Control_c, 14, 11, 104
19, 561840, Control_c, 14, 11, 100
19, 561870, Control_c, 14, 11, 97
19, 561900, Control_c, 14, 11, 94
19, 561930, Control_c, 14, 11, 90
19, 561959, Note_on_c, 14, 57, 0
19, 561960, Control_c, 14, 11, 87
19, 563760, Control_c, 14, 11, 127
19, 564120, Note_on_c, 14, 62, 80
19, 564209, Note_on_c, 14, 62, 0
19, 564240, Note_on_c, 14, 58, 80
19, 564329, Note_on_c, 14, 58, 0
19, 564360, Note_on_c, 14, 55, 80
19, 564449, Note_on_c, 14, 55, 0
19, 564480, Note_on_c, 14, 56, 80
19, 564569, Note_on_c, 14, 56, 0
19, 564600, Note_on_c, 14, 57, 80
19, 564689, Note_on_c, 14, 57, 0
19, 564720, Note_on_c, 14, 45, 80
19, 564809, Note_on_c, 14, 45, 0
19, 564840, Note_on_c, 14, 50, 80
19, 564929, Note_on_c, 14, 50, 0
19, 565560, Note_on_c, 14, 57, 80
19, 565649, Note_on_c, 14, 57, 0
19, 565680, Note_on_c, 14, 53, 80
19, 565769, Note_on_c, 14, 53, 0
19, 565800, Note_on_c, 14, 58, 80
19, 565889, Note_on_c, 14, 58, 0
19, 565920, Note_on_c, 14, 55, 80
19, 566009, Note_on_c, 14, 55, 0
19, 566040, Note_on_c, 14, 52, 80
19, 566129, Note_on_c, 14, 52, 0
19, 566160, Note_on_c, 14, 57, 80
19, 566249, Note_on_c, 14, 57, 0
19, 566280, Note_on_c, 14, 50, 80
19, 566399, Note_on_c, 14, 50, 0
19, 566640, Note_on_c, 14, 57, 80
19, 566804, Note_on_c, 14, 57, 0
19, 566820, Note_on_c, 14, 45, 80
19, 566864, Note_on_c, 14, 45, 0
19, 566880, Note_on_c, 14, 45, 80
19, 566984, Note_on_c, 14, 45, 0
19, 567000, Note_on_c, 14, 38, 80
19, 567119, Note_on_c, 14, 38, 0
19, 567360, Note_on_c, 14, 57, 80
19, 567524, Note_on_c, 14, 57, 0
19, 567540, Note_on_c, 14, 45, 80
19, 567584, Note_on_c, 14, 45, 0
19, 567600, Note_on_c, 14, 45, 80
19, 567704, Note_on_c, 14, 45, 0
19, 567720, Note_on_c, 14, 45, 32
19, 567824, Note_on_c, 14, 45, 0
19, 567840, Note_on_c, 14, 45, 32
19, 567944, Note_on_c, 14, 45, 0
19, 567960, Note_on_c, 14, 45, 32
19, 568064, Note_on_c, 14, 45, 0
19, 568080, Note_on_c, 14, 45, 32
19, 568184, Note_on_c, 14, 45, 0
19, 568200, Note_on_c, 14, 45, 32
19, 568304, Note_on_c, 14, 45, 0
19, 568320, Note_on_c, 14, 45, 32
19, 568424, Note_on_c, 14, 45, 0
19, 568440, Note_on_c, 14, 45, 32
19, 568544, Note_on_c, 14, 45, 0
19, 568560, Note_on_c, 14, 45, 32
19, 568664, Note_on_c, 14, 45, 0
19, 568680, Note_on_c, 14, 45, 32
19, 568784, Note_on_c, 14, 45, 0
19, 568800, Note_on_c, 14, 45, 32
19, 568904, Note_on_c, 14, 45, 0
19, 568920, Note_on_c, 14, 45, 32
19, 569024, Note_on_c, 14, 45, 0
19, 569040, Note_on_c, 14, 45, 32
19, 569144, Note_on_c, 14, 45, 0
19, 569160, Note_on_c, 14, 50, 32
19, 569324, Note_on_c, 14, 50, 0
19, 569340, Note_on_c, 14, 62, 32
19, 569384, Note_on_c, 14, 62, 0
19, 569400, Note_on_c, 14, 62, 32
19, 569504, Note_on_c, 14, 62, 0
19, 569520, Note_on_c, 14, 57, 32
19, 569639, Note_on_c, 14, 57, 0
19, 569880, Note_on_c, 14, 41, 32
19, 570044, Note_on_c, 14, 41, 0
19, 570060, Note_on_c, 14, 53, 32
19, 570104, Note_on_c, 14, 53, 0
19, 570120, Note_on_c, 14, 53, 32
19, 570224, Note_on_c, 14, 53, 0
19, 570240, Note_on_c, 14, 50, 32
19, 570359, Note_on_c, 14, 50, 0
19, 572040, Note_on_c, 14, 50, 32
19, 572204, Note_on_c, 14, 50, 0
19, 572220, Note_on_c, 14, 62, 36
19, 572264, Note_on_c, 14, 62, 0
19, 572280, Note_on_c, 14, 62, 37
19, 572384, Note_on_c, 14, 62, 0
19, 572400, Note_on_c, 14, 57, 40
19, 572519, Note_on_c, 14, 57, 0
19, 572760, Note_on_c, 14, 53, 48
19, 572924, Note_on_c, 14, 53, 0
19, 572940, Note_on_c, 14, 65, 52
19, 572984, Note_on_c, 14, 65, 0
19, 573000, Note_on_c, 14, 65, 53
19, 573104, Note_on_c, 14, 65, 0
19, 573120, Note_on_c, 14, 62, 56
19, 573239, Note_on_c, 14, 62, 0
19, 573480, Note_on_c, 14, 46, 64
19, 573644, Note_on_c, 14, 46, 0
19, 573660, Note_on_c, 14, 58, 68
19, 573704, Note_on_c, 14, 58, 0
19, 573720, Note_on_c, 14, 58, 69
19, 573824, Note_on_c, 14, 58, 0
19, 573840, Note_on_c, 14, 55, 72
19, 573959, Note_on_c, 14, 55, 0
19, 574200, Note_on_c, 14, 46, 80
19, 574364, Note_on_c, 14, 46, 0
19, 574380, Note_on_c, 14, 58, 80
19, 574424, Note_on_c, 14, 58, 0
19, 574440, Note_on_c, 14, 58, 80
19, 574544, Note_on_c, 14, 58, 0
19, 574560, Note_on_c, 14, 57, 92
19, 574679, Note_on_c, 14, 57, 0
19, 575280, Note_on_c, 14, 49, 32
19, 575384, Note_on_c, 14, 49, 0
19, 575400, Note_on_c, 14, 50, 32
19, 575504, Note_on_c, 14, 50, 0
19, 575520, Note_on_c, 14, 52, 32
19, 575624, Note_on_c, 14, 52, 0
19, 575640, Note_on_c, 14, 53, 32
19, 575744, Note_on_c, 14, 53, 0
19, 575760, Note_on_c, 14, 52, 32
19, 575864, Note_on_c, 14, 52, 0
19, 575880, Note_on_c, 14, 50, 32
19, 575984, Note_on_c, 14, 50, 0
19, 576000, Note_on_c, 14, 48, 32
19, 576104, Note_on_c, 14, 48, 0
19, 576120, Note_on_c, 14, 46, 32
19, 576224, Note_on_c, 14, 46, 0
19, 576240, Note_on_c, 14, 45, 32
19, 576344, Note_on_c, 14, 45, 0
19, 576360, Note_on_c, 14, 43, 32
19, 576464, Note_on_c, 14, 43, 0
19, 576480, Note_on_c, 14, 45, 32
19, 576584, Note_on_c, 14, 45, 0
19, 576600, Note_on_c, 14, 46, 32
19, 576704, Note_on_c, 14, 46, 0
19, 576720, Note_on_c, 14, 49, 32
19, 576824, Note_on_c, 14, 49, 0
19, 576840, Note_on_c, 14, 50, 32
19, 576944, Note_on_c, 14, 50, 0
19, 576960, Note_on_c, 14, 52, 32
19, 577064, Note_on_c, 14, 52, 0
19, 577080, Note_on_c, 14, 53, 32
19, 577184, Note_on_c, 14, 53, 0
19, 577200, Note_on_c, 14, 52, 32
19, 577304, Note_on_c, 14, 52, 0
19, 577320, Note_on_c, 14, 50, 32
19, 577424, Note_on_c, 14, 50, 0
19, 577440, Note_on_c, 14, 48, 32
19, 577544, Note_on_c, 14, 48, 0
19, 577560, Note_on_c, 14, 46, 32
19, 577664, Note_on_c, 14, 46, 0
19, 577680, Note_on_c, 14, 45, 32
19, 577784, Note_on_c, 14, 45, 0
19, 577800, Note_on_c, 14, 43, 32
19, 577904, Note_on_c, 14, 43, 0
19, 577920, Note_on_c, 14, 45, 32
19, 578024, Note_on_c, 14, 45, 0
19, 578040, Note_on_c, 14, 46, 32
19, 578144, Note_on_c, 14, 46, 0
19, 578160, Note_on_c, 14, 57, 32
19, 578324, Note_on_c, 14, 57, 0
19, 578340, Note_on_c, 14, 45, 35
19, 578384, Note_on_c, 14, 45, 0
19, 578400, Note_on_c, 14, 45, 37
19, 578504, Note_on_c, 14, 45, 0
19, 578520, Note_on_c, 14, 50, 39
19, 578619, Note_on_c, 14, 50, 0
19, 578640, Note_on_c, 14, 52, 42
19, 578739, Note_on_c, 14, 52, 0
19, 578760, Note_on_c, 14, 53, 44
19, 578859, Note_on_c, 14, 53, 0
19, 578880, Note_on_c, 14, 57, 47
19, 579039, Note_on_c, 14, 57, 0
19, 579060, Note_on_c, 14, 45, 50
19, 579099, Note_on_c, 14, 45, 0
19, 579120, Note_on_c, 14, 45, 52
19, 579219, Note_on_c, 14, 45, 0
19, 579240, Note_on_c, 14, 50, 54
19, 579339, Note_on_c, 14, 50, 0
19, 579360, Note_on_c, 14, 52, 57
19, 579459, Note_on_c, 14, 52, 0
19, 579480, Note_on_c, 14, 53, 59
19, 579579, Note_on_c, 14, 53, 0
19, 579600, Note_on_c, 14, 57, 62
19, 579759, Note_on_c, 14, 57, 0
19, 579780, Note_on_c, 14, 45, 65
19, 579819, Note_on_c, 14, 45, 0
19, 579840, Note_on_c, 14, 45, 67
19, 579939, Note_on_c, 14, 45, 0
19, 579960, Note_on_c, 14, 50, 69
19, 580059, Note_on_c, 14, 50, 0
19, 580080, Note_on_c, 14, 52, 72
19, 580179, Note_on_c, 14, 52, 0
19, 580200, Note_on_c, 14, 53, 74
19, 580299, Note_on_c, 14, 53, 0
19, 580320, Note_on_c, 14, 57, 77
19, 580479, Note_on_c, 14, 57, 0
19, 580500, Note_on_c, 14, 45, 80
19, 580539, Note_on_c, 14, 45, 0
19, 580560, Note_on_c, 14, 45, 82
19, 580659, Note_on_c, 14, 45, 0
19, 580680, Note_on_c, 14, 50, 84
19, 580779, Note_on_c, 14, 50, 0
19, 580800, Note_on_c, 14, 52, 87
19, 580899, Note_on_c, 14, 52, 0
19, 580920, Note_on_c, 14, 53, 89
19, 581019, Note_on_c, 14, 53, 0
19, 581040, Note_on_c, 14, 69, 92
19, 581139, Note_on_c, 14, 69, 0
19, 581160, Note_on_c, 14, 57, 92
19, 581259, Note_on_c, 14, 57, 0
19, 581280, Note_on_c, 14, 62, 80
19, 581379, Note_on_c, 14, 62, 0
19, 581400, Note_on_c, 14, 50, 80
19, 581499, Note_on_c, 14, 50, 0
19, 581520, Note_on_c, 14, 57, 80
19, 581619, Note_on_c, 14, 57, 0
19, 581640, Note_on_c, 14, 45, 80
19, 581739, Note_on_c, 14, 45, 0
19, 581760, Note_on_c, 14, 57, 80
19, 581859, Note_on_c, 14, 57, 0
19, 581880, Note_on_c, 14, 45, 80
19, 581979, Note_on_c, 14, 45, 0
19, 582000, Note_on_c, 14, 50, 80
19, 582000, Note_on_c, 14, 38, 80
19, 582059, Note_on_c, 14, 50, 0
19, 582059, Note_on_c, 14, 38, 0
19, 582060, Note_on_c, 14, 50, 44
19, 582060, Note_on_c, 14, 38, 44
19, 583439, Note_on_c, 14, 50, 0
19, 583439, Note_on_c, 14, 38, 0
19, 583440, Note_on_c, 14, 38, 44
19, 583440, Note_on_c, 14, 50, 44
19, 585359, Note_on_c, 14, 38, 0
19, 585359, Note_on_c, 14, 50, 0
19, 585840, Note_on_c, 14, 69, 92
19, 585939, Note_on_c, 14, 69, 0
19, 585960, Note_on_c, 14, 57, 92
19, 586059, Note_on_c, 14, 57, 0
19, 586080, Note_on_c, 14, 62, 80
19, 586179, Note_on_c, 14, 62, 0
19, 586200, Note_on_c, 14, 50, 80
19, 586299, Note_on_c, 14, 50, 0
19, 586320, Note_on_c, 14, 57, 80
19, 586419, Note_on_c, 14, 57, 0
19, 586440, Note_on_c, 14, 45, 80
19, 586539, Note_on_c, 14, 45, 0
19, 586560, Note_on_c, 14, 57, 80
19, 586659, Note_on_c, 14, 57, 0
19, 586680, Note_on_c, 14, 45, 80
19, 586779, Note_on_c, 14, 45, 0
19, 586800, Note_on_c, 14, 50, 80
19, 586919, Note_on_c, 14, 50, 0
19, 586919, End_track
20, 0, Start_track
20, 0, Title_t, "Contrabass"
20, 0, MIDI_port, 0
20, 0, Program_c, 15, 48
20, 0, Control_c, 15, 7, 88
20, 0, Control_c, 15, 10, 100
20, 0, Control_c, 15, 11, 127
20, 0, Note_on_c, 15, 50, 92
20, 164, Note_on_c, 15, 50, 0
20, 180, Note_on_c, 15, 38, 92
20, 224, Note_on_c, 15, 38, 0
20, 240, Note_on_c, 15, 38, 92
20, 359, Note_on_c, 15, 38, 0
20, 720, Note_on_c, 15, 45, 104
20, 749, Note_on_c, 15, 45, 0
20, 750, Note_on_c, 15, 45, 92
20, 869, Note_on_c, 15, 45, 0
20, 900, Note_on_c, 15, 33, 92
20, 944, Note_on_c, 15, 33, 0
20, 960, Note_on_c, 15, 33, 92
20, 1079, Note_on_c, 15, 33, 0
20, 1800, Note_on_c, 15, 38, 92
20, 1964, Note_on_c, 15, 38, 0
20, 1980, Note_on_c, 15, 26, 92
20, 2024, Note_on_c, 15, 26, 0
20, 2040, Note_on_c, 15, 26, 92
20, 2159, Note_on_c, 15, 26, 0
20, 8640, Note_on_c, 15, 45, 32
20, 8804, Note_on_c, 15, 45, 0
20, 8820, Note_on_c, 15, 33, 32
20, 8864, Note_on_c, 15, 33, 0
20, 8880, Note_on_c, 15, 33, 32
20, 8984, Note_on_c, 15, 33, 0
20, 9000, Note_on_c, 15, 38, 32
20, 9089, Note_on_c, 15, 38, 0
20, 9120, Note_on_c, 15, 40, 32
20, 9209, Note_on_c, 15, 40, 0
20, 9240, Note_on_c, 15, 41, 32
20, 9329, Note_on_c, 15, 41, 0
20, 9360, Note_on_c, 15, 40, 32
20, 9449, Note_on_c, 15, 40, 0
20, 9480, Note_on_c, 15, 41, 32
20, 9569, Note_on_c, 15, 41, 0
20, 9600, Note_on_c, 15, 43, 32
20, 9689, Note_on_c, 15, 43, 0
20, 9720, Note_on_c, 15, 41, 32
20, 9809, Note_on_c, 15, 41, 0
20, 9840, Note_on_c, 15, 40, 32
20, 9929, Note_on_c, 15, 40, 0
20, 9960, Note_on_c, 15, 38, 32
20, 10049, Note_on_c, 15, 38, 0
20, 10080, Note_on_c, 15, 41, 32
20, 10169, Note_on_c, 15, 41, 0
20, 10200, Note_on_c, 15, 40, 32
20, 10289, Note_on_c, 15, 40, 0
20, 10320, Note_on_c, 15, 38, 32
20, 10409, Note_on_c, 15, 38, 0
20, 10440, Note_on_c, 15, 36, 32
20, 10529, Note_on_c, 15, 36, 0
20, 10560, Note_on_c, 15, 35, 32
20, 10649, Note_on_c, 15, 35, 0
20, 10680, Note_on_c, 15, 33, 32
20, 10769, Note_on_c, 15, 33, 0
20, 10800, Note_on_c, 15, 32, 32
20, 10889, Note_on_c, 15, 32, 0
20, 10920, Note_on_c, 15, 33, 32
20, 11009, Note_on_c, 15, 33, 0
20, 11040, Note_on_c, 15, 35, 32
20, 11129, Note_on_c, 15, 35, 0
20, 11160, Note_on_c, 15, 33, 32
20, 11249, Note_on_c, 15, 33, 0
20, 11280, Note_on_c, 15, 32, 32
20, 11369, Note_on_c, 15, 32, 0
20, 11400, Note_on_c, 15, 33, 32
20, 11489, Note_on_c, 15, 33, 0
20, 11520, Note_on_c, 15, 33, 32
20, 11609, Note_on_c, 15, 33, 0
20, 11640, Note_on_c, 15, 33, 32
20, 11729, Note_on_c, 15, 33, 0
20, 11760, Note_on_c, 15, 33, 32
20, 11849, Note_on_c, 15, 33, 0
20, 11880, Note_on_c, 15, 33, 32
20, 11969, Note_on_c, 15, 33, 0
20, 12000, Note_on_c, 15, 33, 32
20, 12089, Note_on_c, 15, 33, 0
20, 12120, Note_on_c, 15, 33, 32
20, 12209, Note_on_c, 15, 33, 0
20, 12240, Note_on_c, 15, 33, 32
20, 12329, Note_on_c, 15, 33, 0
20, 12360, Note_on_c, 15, 33, 32
20, 12449, Note_on_c, 15, 33, 0
20, 12480, Note_on_c, 15, 33, 32
20, 12569, Note_on_c, 15, 33, 0
20, 12600, Note_on_c, 15, 33, 32
20, 12689, Note_on_c, 15, 33, 0
20, 12720, Note_on_c, 15, 33, 32
20, 12809, Note_on_c, 15, 33, 0
20, 12840, Note_on_c, 15, 33, 32
20, 12929, Note_on_c, 15, 33, 0
20, 12960, Note_on_c, 15, 33, 32
20, 13049, Note_on_c, 15, 33, 0
20, 13080, Note_on_c, 15, 33, 32
20, 13169, Note_on_c, 15, 33, 0
20, 13200, Note_on_c, 15, 33, 32
20, 13289, Note_on_c, 15, 33, 0
20, 13320, Note_on_c, 15, 33, 32
20, 13409, Note_on_c, 15, 33, 0
20, 13440, Note_on_c, 15, 33, 32
20, 13529, Note_on_c, 15, 33, 0
20, 13560, Note_on_c, 15, 33, 32
20, 13649, Note_on_c, 15, 33, 0
20, 13680, Note_on_c, 15, 33, 32
20, 13769, Note_on_c, 15, 33, 0
20, 13800, Note_on_c, 15, 33, 32
20, 13889, Note_on_c, 15, 33, 0
20, 13920, Note_on_c, 15, 33, 32
20, 14009, Note_on_c, 15, 33, 0
20, 14040, Note_on_c, 15, 33, 32
20, 14129, Note_on_c, 15, 33, 0
20, 14160, Note_on_c, 15, 33, 32
20, 14249, Note_on_c, 15, 33, 0
20, 14280, Note_on_c, 15, 33, 32
20, 14369, Note_on_c, 15, 33, 0
20, 14400, Note_on_c, 15, 33, 32
20, 14489, Note_on_c, 15, 33, 0
20, 14520, Note_on_c, 15, 33, 32
20, 14609, Note_on_c, 15, 33, 0
20, 14640, Note_on_c, 15, 33, 32
20, 14729, Note_on_c, 15, 33, 0
20, 14760, Note_on_c, 15, 33, 32
20, 14849, Note_on_c, 15, 33, 0
20, 14880, Note_on_c, 15, 33, 32
20, 14969, Note_on_c, 15, 33, 0
20, 15000, Note_on_c, 15, 33, 32
20, 15089, Note_on_c, 15, 33, 0
20, 15120, Note_on_c, 15, 33, 32
20, 15209, Note_on_c, 15, 33, 0
20, 15240, Note_on_c, 15, 33, 32
20, 15329, Note_on_c, 15, 33, 0
20, 15360, Note_on_c, 15, 33, 32
20, 15449, Note_on_c, 15, 33, 0
20, 15480, Note_on_c, 15, 33, 32
20, 15569, Note_on_c, 15, 33, 0
20, 15600, Note_on_c, 15, 33, 32
20, 15689, Note_on_c, 15, 33, 0
20, 15720, Note_on_c, 15, 33, 32
20, 15809, Note_on_c, 15, 33, 0
20, 15840, Note_on_c, 15, 33, 32
20, 15929, Note_on_c, 15, 33, 0
20, 15960, Note_on_c, 15, 33, 33
20, 16049, Note_on_c, 15, 33, 0
20, 16080, Note_on_c, 15, 33, 35
20, 16169, Note_on_c, 15, 33, 0
20, 16200, Note_on_c, 15, 33, 37
20, 16289, Note_on_c, 15, 33, 0
20, 16320, Note_on_c, 15, 33, 38
20, 16409, Note_on_c, 15, 33, 0
20, 16440, Note_on_c, 15, 33, 40
20, 16529, Note_on_c, 15, 33, 0
20, 16560, Note_on_c, 15, 33, 42
20, 16649, Note_on_c, 15, 33, 0
20, 16680, Note_on_c, 15, 33, 43
20, 16769, Note_on_c, 15, 33, 0
20, 16800, Note_on_c, 15, 33, 45
20, 16889, Note_on_c, 15, 33, 0
20, 16920, Note_on_c, 15, 33, 47
20, 17009, Note_on_c, 15, 33, 0
20, 17040, Note_on_c, 15, 33, 48
20, 17129, Note_on_c, 15, 33, 0
20, 17160, Note_on_c, 15, 33, 50
20, 17249, Note_on_c, 15, 33, 0
20, 17280, Note_on_c, 15, 33, 52
20, 17369, Note_on_c, 15, 33, 0
20, 17400, Note_on_c, 15, 33, 53
20, 17489, Note_on_c, 15, 33, 0
20, 17520, Note_on_c, 15, 33, 55
20, 17609, Note_on_c, 15, 33, 0
20, 17640, Note_on_c, 15, 33, 57
20, 17729, Note_on_c, 15, 33, 0
20, 17760, Note_on_c, 15, 33, 58
20, 17849, Note_on_c, 15, 33, 0
20, 17880, Note_on_c, 15, 33, 60
20, 17969, Note_on_c, 15, 33, 0
20, 18000, Note_on_c, 15, 33, 62
20, 18089, Note_on_c, 15, 33, 0
20, 18120, Note_on_c, 15, 33, 63
20, 18209, Note_on_c, 15, 33, 0
20, 18240, Note_on_c, 15, 33, 65
20, 18329, Note_on_c, 15, 33, 0
20, 18360, Note_on_c, 15, 33, 67
20, 18449, Note_on_c, 15, 33, 0
20, 18480, Note_on_c, 15, 33, 68
20, 18569, Note_on_c, 15, 33, 0
20, 18600, Note_on_c, 15, 33, 70
20, 18689, Note_on_c, 15, 33, 0
20, 18720, Note_on_c, 15, 33, 72
20, 18809, Note_on_c, 15, 33, 0
20, 18840, Note_on_c, 15, 33, 73
20, 18929, Note_on_c, 15, 33, 0
20, 18960, Note_on_c, 15, 33, 75
20, 19049, Note_on_c, 15, 33, 0
20, 19080, Note_on_c, 15, 33, 77
20, 19169, Note_on_c, 15, 33, 0
20, 19200, Note_on_c, 15, 33, 78
20, 19289, Note_on_c, 15, 33, 0
20, 19320, Note_on_c, 15, 33, 80
20, 19409, Note_on_c, 15, 33, 0
20, 19440, Note_on_c, 15, 33, 82
20, 19529, Note_on_c, 15, 33, 0
20, 19560, Note_on_c, 15, 33, 83
20, 19649, Note_on_c, 15, 33, 0
20, 19680, Note_on_c, 15, 33, 85
20, 19769, Note_on_c, 15, 33, 0
20, 19800, Note_on_c, 15, 43, 87
20, 19889, Note_on_c, 15, 43, 0
20, 19920, Note_on_c, 15, 41, 88
20, 20009, Note_on_c, 15, 41, 0
20, 20040, Note_on_c, 15, 40, 90
20, 20129, Note_on_c, 15, 40, 0
20, 20160, Note_on_c, 15, 38, 92
20, 20279, Note_on_c, 15, 38, 0
20, 20520, Note_on_c, 15, 50, 92
20, 20639, Note_on_c, 15, 50, 0
20, 20880, Note_on_c, 15, 45, 92
20, 20999, Note_on_c, 15, 45, 0
20, 21240, Note_on_c, 15, 38, 92
20, 21359, Note_on_c, 15, 38, 0
20, 21600, Note_on_c, 15, 43, 80
20, 21719, Note_on_c, 15, 43, 0
20, 21960, Note_on_c, 15, 45, 80
20, 22079, Note_on_c, 15, 45, 0
20, 22320, Note_on_c, 15, 33, 80
20, 22439, Note_on_c, 15, 33, 0
20, 22680, Note_on_c, 15, 38, 80
20, 22799, Note_on_c, 15, 38, 0
20, 23040, Note_on_c, 15, 43, 80
20, 23159, Note_on_c, 15, 43, 0
20, 23400, Note_on_c, 15, 45, 80
20, 23519, Note_on_c, 15, 45, 0
20, 23760, Note_on_c, 15, 33, 80
20, 23879, Note_on_c, 15, 33, 0
20, 24120, Note_on_c, 15, 38, 80
20, 24239, Note_on_c, 15, 38, 0
20, 24360, Note_on_c, 15, 31, 80
20, 24464, Note_on_c, 15, 31, 0
20, 24480, Note_on_c, 15, 31, 80
20, 24599, Note_on_c, 15, 31, 0
20, 24840, Note_on_c, 15, 36, 80
20, 24959, Note_on_c, 15, 36, 0
20, 25200, Note_on_c, 15, 43, 80
20, 25319, Note_on_c, 15, 43, 0
20, 25560, Note_on_c, 15, 48, 80
20, 25664, Note_on_c, 15, 48, 0
20, 25680, Note_on_c, 15, 43, 80
20, 25784, Note_on_c, 15, 43, 0
20, 25800, Note_on_c, 15, 43, 80
20, 25904, Note_on_c, 15, 43, 0
20, 25920, Note_on_c, 15, 31, 80
20, 26039, Note_on_c, 15, 31, 0
20, 26280, Note_on_c, 15, 36, 80
20, 26399, Note_on_c, 15, 36, 0
20, 26640, Note_on_c, 15, 48, 80
20, 26759, Note_on_c, 15, 48, 0
20, 27000, Note_on_c, 15, 48, 80
20, 27119, Note_on_c, 15, 48, 0
20, 27360, Note_on_c, 15, 43, 80
20, 27360, Note_on_c, 15, 31, 80
20, 27479, Note_on_c, 15, 43, 0
20, 27479, Note_on_c, 15, 31, 0
20, 30240, Program_c, 15, 45
20, 30600, Note_on_c, 15, 48, 38
20, 30719, Note_on_c, 15, 48, 0
20, 30960, Note_on_c, 15, 41, 44
20, 31079, Note_on_c, 15, 41, 0
20, 31320, Note_on_c, 15, 38, 51
20, 31439, Note_on_c, 15, 38, 0
20, 31680, Note_on_c, 15, 43, 57
20, 31799, Note_on_c, 15, 43, 0
20, 32040, Note_on_c, 15, 48, 64
20, 32159, Note_on_c, 15, 48, 0
20, 32400, Note_on_c, 15, 43, 70
20, 32519, Note_on_c, 15, 43, 0
20, 32760, Note_on_c, 15, 31, 77
20, 32879, Note_on_c, 15, 31, 0
20, 33000, Program_c, 15, 48
20, 33120, Note_on_c, 15, 36, 92
20, 33284, Note_on_c, 15, 36, 0
20, 33300, Note_on_c, 15, 24, 92
20, 33344, Note_on_c, 15, 24, 0
20, 33360, Note_on_c, 15, 24, 92
20, 33464, Note_on_c, 15, 24, 0
20, 33480, Note_on_c, 15, 36, 92
20, 33644, Note_on_c, 15, 36, 0
20, 33660, Note_on_c, 15, 24, 92
20, 33704, Note_on_c, 15, 24, 0
20, 33720, Note_on_c, 15, 24, 92
20, 33824, Note_on_c, 15, 24, 0
20, 33840, Note_on_c, 15, 36, 92
20, 34004, Note_on_c, 15, 36, 0
20, 34020, Note_on_c, 15, 24, 92
20, 34064, Note_on_c, 15, 24, 0
20, 34080, Note_on_c, 15, 24, 92
20, 34184, Note_on_c, 15, 24, 0
20, 34200, Note_on_c, 15, 36, 92
20, 34364, Note_on_c, 15, 36, 0
20, 34380, Note_on_c, 15, 24, 92
20, 34424, Note_on_c, 15, 24, 0
20, 34440, Note_on_c, 15, 24, 92
20, 34544, Note_on_c, 15, 24, 0
20, 34560, Note_on_c, 15, 36, 92
20, 34724, Note_on_c, 15, 36, 0
20, 34740, Note_on_c, 15, 24, 92
20, 34784, Note_on_c, 15, 24, 0
20, 34800, Note_on_c, 15, 24, 92
20, 34904, Note_on_c, 15, 24, 0
20, 34920, Note_on_c, 15, 36, 92
20, 35084, Note_on_c, 15, 36, 0
20, 35100, Note_on_c, 15, 24, 92
20, 35144, Note_on_c, 15, 24, 0
20, 35160, Note_on_c, 15, 24, 92
20, 35264, Note_on_c, 15, 24, 0
20, 35280, Note_on_c, 15, 36, 92
20, 35444, Note_on_c, 15, 36, 0
20, 35460, Note_on_c, 15, 24, 92
20, 35504, Note_on_c, 15, 24, 0
20, 35520, Note_on_c, 15, 24, 92
20, 35624, Note_on_c, 15, 24, 0
20, 35640, Note_on_c, 15, 36, 92
20, 35804, Note_on_c, 15, 36, 0
20, 35820, Note_on_c, 15, 24, 92
20, 35864, Note_on_c, 15, 24, 0
20, 35880, Note_on_c, 15, 24, 92
20, 35984, Note_on_c, 15, 24, 0
20, 36000, Note_on_c, 15, 36, 92
20, 36164, Note_on_c, 15, 36, 0
20, 36180, Note_on_c, 15, 24, 92
20, 36224, Note_on_c, 15, 24, 0
20, 36240, Note_on_c, 15, 24, 92
20, 36344, Note_on_c, 15, 24, 0
20, 36360, Note_on_c, 15, 36, 92
20, 36524, Note_on_c, 15, 36, 0
20, 36540, Note_on_c, 15, 24, 92
20, 36584, Note_on_c, 15, 24, 0
20, 36600, Note_on_c, 15, 24, 92
20, 36704, Note_on_c, 15, 24, 0
20, 36720, Note_on_c, 15, 36, 92
20, 36884, Note_on_c, 15, 36, 0
20, 36900, Note_on_c, 15, 24, 92
20, 36944, Note_on_c, 15, 24, 0
20, 36960, Note_on_c, 15, 24, 92
20, 37064, Note_on_c, 15, 24, 0
20, 37080, Note_on_c, 15, 36, 92
20, 37244, Note_on_c, 15, 36, 0
20, 37260, Note_on_c, 15, 24, 92
20, 37304, Note_on_c, 15, 24, 0
20, 37320, Note_on_c, 15, 24, 92
20, 37424, Note_on_c, 15, 24, 0
20, 37440, Note_on_c, 15, 36, 92
20, 37604, Note_on_c, 15, 36, 0
20, 37620, Note_on_c, 15, 24, 92
20, 37664, Note_on_c, 15, 24, 0
20, 37680, Note_on_c, 15, 24, 92
20, 37784, Note_on_c, 15, 24, 0
20, 37800, Note_on_c, 15, 36, 92
20, 37964, Note_on_c, 15, 36, 0
20, 37980, Note_on_c, 15, 24, 92
20, 38024, Note_on_c, 15, 24, 0
20, 38040, Note_on_c, 15, 24, 92
20, 38144, Note_on_c, 15, 24, 0
20, 38160, Note_on_c, 15, 36, 92
20, 38324, Note_on_c, 15, 36, 0
20, 38340, Note_on_c, 15, 24, 92
20, 38384, Note_on_c, 15, 24, 0
20, 38400, Note_on_c, 15, 24, 92
20, 38504, Note_on_c, 15, 24, 0
20, 38520, Note_on_c, 15, 36, 92
20, 38684, Note_on_c, 15, 36, 0
20, 38700, Note_on_c, 15, 24, 92
20, 38744, Note_on_c, 15, 24, 0
20, 38760, Note_on_c, 15, 24, 92
20, 38864, Note_on_c, 15, 24, 0
20, 38880, Note_on_c, 15, 36, 92
20, 38999, Note_on_c, 15, 36, 0
20, 39600, Note_on_c, 15, 41, 92
20, 39764, Note_on_c, 15, 41, 0
20, 39780, Note_on_c, 15, 29, 92
20, 39824, Note_on_c, 15, 29, 0
20, 39840, Note_on_c, 15, 29, 92
20, 39944, Note_on_c, 15, 29, 0
20, 39960, Note_on_c, 15, 41, 92
20, 40049, Note_on_c, 15, 41, 0
20, 40080, Note_on_c, 15, 38, 92
20, 40169, Note_on_c, 15, 38, 0
20, 40200, Note_on_c, 15, 36, 92
20, 40289, Note_on_c, 15, 36, 0
20, 40320, Note_on_c, 15, 35, 92
20, 40439, Note_on_c, 15, 35, 0
20, 41040, Note_on_c, 15, 52, 92
20, 41204, Note_on_c, 15, 52, 0
20, 41220, Note_on_c, 15, 40, 92
20, 41264, Note_on_c, 15, 40, 0
20, 41280, Note_on_c, 15, 40, 92
20, 41384, Note_on_c, 15, 40, 0
20, 41400, Note_on_c, 15, 52, 92
20, 41489, Note_on_c, 15, 52, 0
20, 41520, Note_on_c, 15, 48, 92
20, 41609, Note_on_c, 15, 48, 0
20, 41640, Note_on_c, 15, 47, 92
20, 41729, Note_on_c, 15, 47, 0
20, 41758, Control_c, 15, 11, 87
20, 41760, Note_on_c, 15, 46, 68
20, 42480, Control_c, 15, 11, 87
20, 42510, Control_c, 15, 11, 89
20, 42540, Control_c, 15, 11, 90
20, 42570, Control_c, 15, 11, 92
20, 42600, Control_c, 15, 11, 94
20, 42630, Control_c, 15, 11, 95
20, 42660, Control_c, 15, 11, 97
20, 42690, Control_c, 15, 11, 99
20, 42720, Control_c, 15, 11, 100
20, 42750, Control_c, 15, 11, 102
20, 42780, Control_c, 15, 11, 104
20, 42810, Control_c, 15, 11, 105
20, 42840, Control_c, 15, 11, 107
20, 42870, Control_c, 15, 11, 109
20, 42900, Control_c, 15, 11, 110
20, 42930, Control_c, 15, 11, 112
20, 42959, Note_on_c, 15, 46, 0
20, 42960, Note_on_c, 15, 45, 68
20, 42960, Control_c, 15, 11, 114
20, 42990, Control_c, 15, 11, 115
20, 43020, Control_c, 15, 11, 117
20, 43050, Control_c, 15, 11, 119
20, 43079, Note_on_c, 15, 45, 0
20, 43080, Control_c, 15, 11, 120
20, 43080, Note_on_c, 15, 43, 68
20, 43110, Control_c, 15, 11, 122
20, 43140, Control_c, 15, 11, 124
20, 43170, Control_c, 15, 11, 125
20, 43199, Note_on_c, 15, 43, 0
20, 43200, Note_on_c, 15, 45, 68
20, 43200, Control_c, 15, 11, 127
20, 43230, Control_c, 15, 11, 125
20, 43260, Control_c, 15, 11, 124
20, 43290, Control_c, 15, 11, 122
20, 43319, Note_on_c, 15, 45, 0
20, 43320, Note_on_c, 15, 43, 68
20, 43320, Control_c, 15, 11, 120
20, 43350, Control_c, 15, 11, 119
20, 43380, Control_c, 15, 11, 117
20, 43410, Control_c, 15, 11, 115
20, 43439, Note_on_c, 15, 43, 0
20, 43440, Note_on_c, 15, 42, 68
20, 43440, Control_c, 15, 11, 114
20, 43470, Control_c, 15, 11, 112
20, 43500, Control_c, 15, 11, 110
20, 43530, Control_c, 15, 11, 109
20, 43559, Note_on_c, 15, 42, 0
20, 43560, Note_on_c, 15, 43, 68
20, 43560, Control_c, 15, 11, 107
20, 43590, Control_c, 15, 11, 105
20, 43620, Control_c, 15, 11, 104
20, 43650, Control_c, 15, 11, 102
20, 43680, Control_c, 15, 11, 100
20, 43710, Control_c, 15, 11, 99
20, 43740, Control_c, 15, 11, 97
20, 43770, Control_c, 15, 11, 95
20, 43830, Control_c, 15, 11, 92
20, 43860, Control_c, 15, 11, 90
20, 43890, Control_c, 15, 11, 87
20, 43919, Note_on_c, 15, 43, 0
20, 45720, Control_c, 15, 11, 127
20, 46080, Note_on_c, 15, 43, 80
20, 46169, Note_on_c, 15, 43, 0
20, 46200, Note_on_c, 15, 48, 80
20, 46289, Note_on_c, 15, 48, 0
20, 46320, Note_on_c, 15, 45, 80
20, 46409, Note_on_c, 15, 45, 0
20, 46440, Note_on_c, 15, 41, 80
20, 46529, Note_on_c, 15, 41, 0
20, 46560, Note_on_c, 15, 43, 80
20, 46649, Note_on_c, 15, 43, 0
20, 46680, Note_on_c, 15, 31, 80
20, 46769, Note_on_c, 15, 31, 0
20, 46800, Note_on_c, 15, 36, 80
20, 46919, Note_on_c, 15, 36, 0
20, 47520, Note_on_c, 15, 43, 80
20, 47609, Note_on_c, 15, 43, 0
20, 47640, Note_on_c, 15, 40, 80
20, 47729, Note_on_c, 15, 40, 0
20, 47760, Note_on_c, 15, 45, 80
20, 47849, Note_on_c, 15, 45, 0
20, 47880, Note_on_c, 15, 41, 80
20, 47969, Note_on_c, 15, 41, 0
20, 48000, Note_on_c, 15, 38, 80
20, 48089, Note_on_c, 15, 38, 0
20, 48120, Note_on_c, 15, 43, 80
20, 48209, Note_on_c, 15, 43, 0
20, 48240, Note_on_c, 15, 36, 80
20, 48359, Note_on_c, 15, 36, 0
20, 48600, Note_on_c, 15, 55, 80
20, 48764, Note_on_c, 15, 55, 0
20, 48780, Note_on_c, 15, 43, 80
20, 48824, Note_on_c, 15, 43, 0
20, 48840, Note_on_c, 15, 43, 80
20, 48944, Note_on_c, 15, 43, 0
20, 48960, Note_on_c, 15, 36, 80
20, 49079, Note_on_c, 15, 36, 0
20, 49320, Note_on_c, 15, 55, 80
20, 49484, Note_on_c, 15, 55, 0
20, 49500, Note_on_c, 15, 43, 80
20, 49544, Note_on_c, 15, 43, 0
20, 49560, Note_on_c, 15, 43, 80
20, 49664, Note_on_c, 15, 43, 0
20, 49680, Note_on_c, 15, 31, 32
20, 49769, Note_on_c, 15, 31, 0
20, 49800, Note_on_c, 15, 31, 32
20, 49889, Note_on_c, 15, 31, 0
20, 49920, Note_on_c, 15, 31, 32
20, 50009, Note_on_c, 15, 31, 0
20, 50040, Note_on_c, 15, 31, 32
20, 50129, Note_on_c, 15, 31, 0
20, 50160, Note_on_c, 15, 31, 32
20, 50249, Note_on_c, 15, 31, 0
20, 50280, Note_on_c, 15, 31, 32
20, 50369, Note_on_c, 15, 31, 0
20, 50400, Note_on_c, 15, 31, 32
20, 50489, Note_on_c, 15, 31, 0
20, 50520, Note_on_c, 15, 31, 32
20, 50609, Note_on_c, 15, 31, 0
20, 50640, Note_on_c, 15, 31, 32
20, 50729, Note_on_c, 15, 31, 0
20, 50760, Note_on_c, 15, 31, 32
20, 50849, Note_on_c, 15, 31, 0
20, 50880, Note_on_c, 15, 31, 32
20, 50969, Note_on_c, 15, 31, 0
20, 51000, Note_on_c, 15, 31, 32
20, 51089, Note_on_c, 15, 31, 0
20, 51120, Note_on_c, 15, 24, 32
20, 51284, Note_on_c, 15, 24, 0
20, 51300, Note_on_c, 15, 36, 32
20, 51344, Note_on_c, 15, 36, 0
20, 51360, Note_on_c, 15, 36, 32
20, 51464, Note_on_c, 15, 36, 0
20, 51480, Note_on_c, 15, 33, 32
20, 51599, Note_on_c, 15, 33, 0
20, 51840, Note_on_c, 15, 29, 32
20, 52004, Note_on_c, 15, 29, 0
20, 52020, Note_on_c, 15, 41, 32
20, 52064, Note_on_c, 15, 41, 0
20, 52080, Note_on_c, 15, 41, 32
20, 52184, Note_on_c, 15, 41, 0
20, 52200, Note_on_c, 15, 38, 32
20, 52319, Note_on_c, 15, 38, 0
20, 59760, Note_on_c, 15, 45, 32
20, 59924, Note_on_c, 15, 45, 0
20, 59940, Note_on_c, 15, 33, 32
20, 59984, Note_on_c, 15, 33, 0
20, 60000, Note_on_c, 15, 33, 32
20, 60104, Note_on_c, 15, 33, 0
20, 60120, Note_on_c, 15, 38, 32
20, 60209, Note_on_c, 15, 38, 0
20, 60240, Note_on_c, 15, 40, 32
20, 60329, Note_on_c, 15, 40, 0
20, 60360, Note_on_c, 15, 41, 32
20, 60449, Note_on_c, 15, 41, 0
20, 60480, Note_on_c, 15, 40, 32
20, 60569, Note_on_c, 15, 40, 0
20, 60600, Note_on_c, 15, 41, 32
20, 60689, Note_on_c, 15, 41, 0
20, 60720, Note_on_c, 15, 43, 32
20, 60809, Note_on_c, 15, 43, 0
20, 60840, Note_on_c, 15, 41, 32
20, 60929, Note_on_c, 15, 41, 0
20, 60960, Note_on_c, 15, 40, 32
20, 61049, Note_on_c, 15, 40, 0
20, 61080, Note_on_c, 15, 38, 32
20, 61169, Note_on_c, 15, 38, 0
20, 61200, Note_on_c, 15, 41, 32
20, 61289, Note_on_c, 15, 41, 0
20, 61320, Note_on_c, 15, 40, 32
20, 61409, Note_on_c, 15, 40, 0
20, 61440, Note_on_c, 15, 38, 32
20, 61529, Note_on_c, 15, 38, 0
20, 61560, Note_on_c, 15, 36, 32
20, 61649, Note_on_c, 15, 36, 0
20, 61680, Note_on_c, 15, 35, 32
20, 61769, Note_on_c, 15, 35, 0
20, 61800, Note_on_c, 15, 33, 32
20, 61889, Note_on_c, 15, 33, 0
20, 61920, Note_on_c, 15, 32, 32
20, 62009, Note_on_c, 15, 32, 0
20, 62040, Note_on_c, 15, 33, 32
20, 62129, Note_on_c, 15, 33, 0
20, 62160, Note_on_c, 15, 35, 32
20, 62249, Note_on_c, 15, 35, 0
20, 62280, Note_on_c, 15, 33, 32
20, 62369, Note_on_c, 15, 33, 0
20, 62400, Note_on_c, 15, 32, 32
20, 62489, Note_on_c, 15, 32, 0
20, 62520, Note_on_c, 15, 33, 32
20, 62609, Note_on_c, 15, 33, 0
20, 62640, Note_on_c, 15, 33, 32
20, 62729, Note_on_c, 15, 33, 0
20, 62760, Note_on_c, 15, 33, 32
20, 62849, Note_on_c, 15, 33, 0
20, 62880, Note_on_c, 15, 33, 32
20, 62969, Note_on_c, 15, 33, 0
20, 63000, Note_on_c, 15, 33, 32
20, 63089, Note_on_c, 15, 33, 0
20, 63120, Note_on_c, 15, 33, 32
20, 63209, Note_on_c, 15, 33, 0
20, 63240, Note_on_c, 15, 33, 32
20, 63329, Note_on_c, 15, 33, 0
20, 63360, Note_on_c, 15, 33, 32
20, 63449, Note_on_c, 15, 33, 0
20, 63480, Note_on_c, 15, 33, 32
20, 63569, Note_on_c, 15, 33, 0
20, 63600, Note_on_c, 15, 33, 32
20, 63689, Note_on_c, 15, 33, 0
20, 63720, Note_on_c, 15, 33, 32
20, 63809, Note_on_c, 15, 33, 0
20, 63840, Note_on_c, 15, 33, 32
20, 63929, Note_on_c, 15, 33, 0
20, 63960, Note_on_c, 15, 33, 32
20, 64049, Note_on_c, 15, 33, 0
20, 64080, Note_on_c, 15, 33, 32
20, 64169, Note_on_c, 15, 33, 0
20, 64200, Note_on_c, 15, 33, 32
20, 64289, Note_on_c, 15, 33, 0
20, 64320, Note_on_c, 15, 33, 32
20, 64409, Note_on_c, 15, 33, 0
20, 64440, Note_on_c, 15, 33, 32
20, 64529, Note_on_c, 15, 33, 0
20, 64560, Note_on_c, 15, 33, 32
20, 64649, Note_on_c, 15, 33, 0
20, 64680, Note_on_c, 15, 33, 32
20, 64769, Note_on_c, 15, 33, 0
20, 64800, Note_on_c, 15, 33, 32
20, 64889, Note_on_c, 15, 33, 0
20, 64920, Note_on_c, 15, 33, 32
20, 65009, Note_on_c, 15, 33, 0
20, 65040, Note_on_c, 15, 33, 32
20, 65129, Note_on_c, 15, 33, 0
20, 65160, Note_on_c, 15, 33, 32
20, 65249, Note_on_c, 15, 33, 0
20, 65280, Note_on_c, 15, 33, 32
20, 65369, Note_on_c, 15, 33, 0
20, 65400, Note_on_c, 15, 33, 32
20, 65489, Note_on_c, 15, 33, 0
20, 65520, Note_on_c, 15, 33, 32
20, 65609, Note_on_c, 15, 33, 0
20, 65640, Note_on_c, 15, 33, 32
20, 65729, Note_on_c, 15, 33, 0
20, 65760, Note_on_c, 15, 33, 32
20, 65849, Note_on_c, 15, 33, 0
20, 65880, Note_on_c, 15, 33, 32
20, 65969, Note_on_c, 15, 33, 0
20, 66000, Note_on_c, 15, 33, 32
20, 66089, Note_on_c, 15, 33, 0
20, 66120, Note_on_c, 15, 33, 32
20, 66209, Note_on_c, 15, 33, 0
20, 66240, Note_on_c, 15, 33, 32
20, 66329, Note_on_c, 15, 33, 0
20, 66360, Note_on_c, 15, 33, 32
20, 66449, Note_on_c, 15, 33, 0
20, 66480, Note_on_c, 15, 33, 32
20, 66569, Note_on_c, 15, 33, 0
20, 66600, Note_on_c, 15, 33, 32
20, 66689, Note_on_c, 15, 33, 0
20, 66720, Note_on_c, 15, 33, 32
20, 66809, Note_on_c, 15, 33, 0
20, 66840, Note_on_c, 15, 33, 32
20, 66929, Note_on_c, 15, 33, 0
20, 66960, Note_on_c, 15, 33, 32
20, 67049, Note_on_c, 15, 33, 0
20, 67080, Note_on_c, 15, 33, 33
20, 67169, Note_on_c, 15, 33, 0
20, 67200, Note_on_c, 15, 33, 35
20, 67289, Note_on_c, 15, 33, 0
20, 67320, Note_on_c, 15, 33, 37
20, 67409, Note_on_c, 15, 33, 0
20, 67440, Note_on_c, 15, 33, 38
20, 67529, Note_on_c, 15, 33, 0
20, 67560, Note_on_c, 15, 33, 40
20, 67649, Note_on_c, 15, 33, 0
20, 67680, Note_on_c, 15, 33, 42
20, 67769, Note_on_c, 15, 33, 0
20, 67800, Note_on_c, 15, 33, 43
20, 67889, Note_on_c, 15, 33, 0
20, 67920, Note_on_c, 15, 33, 45
20, 68009, Note_on_c, 15, 33, 0
20, 68040, Note_on_c, 15, 33, 47
20, 68129, Note_on_c, 15, 33, 0
20, 68160, Note_on_c, 15, 33, 48
20, 68249, Note_on_c, 15, 33, 0
20, 68280, Note_on_c, 15, 33, 50
20, 68369, Note_on_c, 15, 33, 0
20, 68400, Note_on_c, 15, 33, 52
20, 68489, Note_on_c, 15, 33, 0
20, 68520, Note_on_c, 15, 33, 53
20, 68609, Note_on_c, 15, 33, 0
20, 68640, Note_on_c, 15, 33, 55
20, 68729, Note_on_c, 15, 33, 0
20, 68760, Note_on_c, 15, 33, 57
20, 68849, Note_on_c, 15, 33, 0
20, 68880, Note_on_c, 15, 33, 58
20, 68969, Note_on_c, 15, 33, 0
20, 69000, Note_on_c, 15, 33, 60
20, 69089, Note_on_c, 15, 33, 0
20, 69120, Note_on_c, 15, 33, 62
20, 69209, Note_on_c, 15, 33, 0
20, 69240, Note_on_c, 15, 33, 63
20, 69329, Note_on_c, 15, 33, 0
20, 69360, Note_on_c, 15, 33, 65
20, 69449, Note_on_c, 15, 33, 0
20, 69480, Note_on_c, 15, 33, 67
20, 69569, Note_on_c, 15, 33, 0
20, 69600, Note_on_c, 15, 33, 68
20, 69689, Note_on_c, 15, 33, 0
20, 69720, Note_on_c, 15, 33, 70
20, 69809, Note_on_c, 15, 33, 0
20, 69840, Note_on_c, 15, 33, 72
20, 69929, Note_on_c, 15, 33, 0
20, 69960, Note_on_c, 15, 33, 73
20, 70049, Note_on_c, 15, 33, 0
20, 70080, Note_on_c, 15, 33, 75
20, 70169, Note_on_c, 15, 33, 0
20, 70200, Note_on_c, 15, 33, 77
20, 70289, Note_on_c, 15, 33, 0
20, 70320, Note_on_c, 15, 33, 78
20, 70409, Note_on_c, 15, 33, 0
20, 70440, Note_on_c, 15, 33, 80
20, 70529, Note_on_c, 15, 33, 0
20, 70560, Note_on_c, 15, 33, 82
20, 70649, Note_on_c, 15, 33, 0
20, 70680, Note_on_c, 15, 33, 83
20, 70769, Note_on_c, 15, 33, 0
20, 70800, Note_on_c, 15, 33, 85
20, 70889, Note_on_c, 15, 33, 0
20, 70920, Note_on_c, 15, 43, 87
20, 71009, Note_on_c, 15, 43, 0
20, 71040, Note_on_c, 15, 41, 88
20, 71129, Note_on_c, 15, 41, 0
20, 71160, Note_on_c, 15, 40, 90
20, 71249, Note_on_c, 15, 40, 0
20, 71280, Note_on_c, 15, 38, 92
20, 71399, Note_on_c, 15, 38, 0
20, 71640, Note_on_c, 15, 50, 92
20, 71759, Note_on_c, 15, 50, 0
20, 72000, Note_on_c, 15, 45, 92
20, 72119, Note_on_c, 15, 45, 0
20, 72360, Note_on_c, 15, 38, 92
20, 72479, Note_on_c, 15, 38, 0
20, 72720, Note_on_c, 15, 43, 80
20, 72839, Note_on_c, 15, 43, 0
20, 73080, Note_on_c, 15, 45, 80
20, 73199, Note_on_c, 15, 45, 0
20, 73440, Note_on_c, 15, 33, 80
20, 73559, Note_on_c, 15, 33, 0
20, 73800, Note_on_c, 15, 38, 80
20, 73919, Note_on_c, 15, 38, 0
20, 74160, Note_on_c, 15, 43, 80
20, 74279, Note_on_c, 15, 43, 0
20, 74520, Note_on_c, 15, 45, 80
20, 74639, Note_on_c, 15, 45, 0
20, 74880, Note_on_c, 15, 33, 80
20, 74999, Note_on_c, 15, 33, 0
20, 75240, Note_on_c, 15, 38, 80
20, 75359, Note_on_c, 15, 38, 0
20, 75480, Note_on_c, 15, 31, 80
20, 75584, Note_on_c, 15, 31, 0
20, 75600, Note_on_c, 15, 31, 80
20, 75719, Note_on_c, 15, 31, 0
20, 75960, Note_on_c, 15, 36, 80
20, 76079, Note_on_c, 15, 36, 0
20, 76320, Note_on_c, 15, 43, 80
20, 76439, Note_on_c, 15, 43, 0
20, 76680, Note_on_c, 15, 48, 80
20, 76784, Note_on_c, 15, 48, 0
20, 76800, Note_on_c, 15, 43, 80
20, 76904, Note_on_c, 15, 43, 0
20, 76920, Note_on_c, 15, 43, 80
20, 77024, Note_on_c, 15, 43, 0
20, 77040, Note_on_c, 15, 31, 80
20, 77159, Note_on_c, 15, 31, 0
20, 77400, Note_on_c, 15, 36, 80
20, 77519, Note_on_c, 15, 36, 0
20, 77760, Note_on_c, 15, 48, 80
20, 77879, Note_on_c, 15, 48, 0
20, 78120, Note_on_c, 15, 48, 80
20, 78239, Note_on_c, 15, 48, 0
20, 78480, Note_on_c, 15, 31, 80
20, 78480, Note_on_c, 15, 43, 80
20, 78599, Note_on_c, 15, 31, 0
20, 78599, Note_on_c, 15, 43, 0
20, 81360, Program_c, 15, 45
20, 81720, Note_on_c, 15, 48, 38
20, 81839, Note_on_c, 15, 48, 0
20, 82080, Note_on_c, 15, 41, 44
20, 82199, Note_on_c, 15, 41, 0
20, 82440, Note_on_c, 15, 38, 51
20, 82559, Note_on_c, 15, 38, 0
20, 82800, Note_on_c, 15, 43, 57
20, 82919, Note_on_c, 15, 43, 0
20, 83160, Note_on_c, 15, 48, 64
20, 83279, Note_on_c, 15, 48, 0
20, 83520, Note_on_c, 15, 43, 70
20, 83639, Note_on_c, 15, 43, 0
20, 83880, Note_on_c, 15, 31, 77
20, 83999, Note_on_c, 15, 31, 0
20, 84120, Program_c, 15, 48
20, 84240, Note_on_c, 15, 36, 92
20, 84404, Note_on_c, 15, 36, 0
20, 84420, Note_on_c, 15, 24, 92
20, 84464, Note_on_c, 15, 24, 0
20, 84480, Note_on_c, 15, 24, 92
20, 84584, Note_on_c, 15, 24, 0
20, 84600, Note_on_c, 15, 36, 92
20, 84764, Note_on_c, 15, 36, 0
20, 84780, Note_on_c, 15, 24, 92
20, 84824, Note_on_c, 15, 24, 0
20, 84840, Note_on_c, 15, 24, 92
20, 84944, Note_on_c, 15, 24, 0
20, 84960, Note_on_c, 15, 36, 92
20, 85124, Note_on_c, 15, 36, 0
20, 85140, Note_on_c, 15, 24, 92
20, 85184, Note_on_c, 15, 24, 0
20, 85200, Note_on_c, 15, 24, 92
20, 85304, Note_on_c, 15, 24, 0
20, 85320, Note_on_c, 15, 36, 92
20, 85484, Note_on_c, 15, 36, 0
20, 85500, Note_on_c, 15, 24, 92
20, 85544, Note_on_c, 15, 24, 0
20, 85560, Note_on_c, 15, 24, 92
20, 85664, Note_on_c, 15, 24, 0
20, 85680, Note_on_c, 15, 36, 92
20, 85844, Note_on_c, 15, 36, 0
20, 85860, Note_on_c, 15, 24, 92
20, 85904, Note_on_c, 15, 24, 0
20, 85920, Note_on_c, 15, 24, 92
20, 86024, Note_on_c, 15, 24, 0
20, 86040, Note_on_c, 15, 36, 92
20, 86204, Note_on_c, 15, 36, 0
20, 86220, Note_on_c, 15, 24, 92
20, 86264, Note_on_c, 15, 24, 0
20, 86280, Note_on_c, 15, 24, 92
20, 86384, Note_on_c, 15, 24, 0
20, 86400, Note_on_c, 15, 36, 92
20, 86564, Note_on_c, 15, 36, 0
20, 86580, Note_on_c, 15, 24, 92
20, 86624, Note_on_c, 15, 24, 0
20, 86640, Note_on_c, 15, 24, 92
20, 86744, Note_on_c, 15, 24, 0
20, 86760, Note_on_c, 15, 36, 92
20, 86924, Note_on_c, 15, 36, 0
20, 86940, Note_on_c, 15, 24, 92
20, 86984, Note_on_c, 15, 24, 0
20, 87000, Note_on_c, 15, 24, 92
20, 87104, Note_on_c, 15, 24, 0
20, 87120, Note_on_c, 15, 36, 92
20, 87284, Note_on_c, 15, 36, 0
20, 87300, Note_on_c, 15, 24, 92
20, 87344, Note_on_c, 15, 24, 0
20, 87360, Note_on_c, 15, 24, 92
20, 87464, Note_on_c, 15, 24, 0
20, 87480, Note_on_c, 15, 36, 92
20, 87644, Note_on_c, 15, 36, 0
20, 87660, Note_on_c, 15, 24, 92
20, 87704, Note_on_c, 15, 24, 0
20, 87720, Note_on_c, 15, 24, 92
20, 87824, Note_on_c, 15, 24, 0
20, 87840, Note_on_c, 15, 36, 92
20, 88004, Note_on_c, 15, 36, 0
20, 88020, Note_on_c, 15, 24, 92
20, 88064, Note_on_c, 15, 24, 0
20, 88080, Note_on_c, 15, 24, 92
20, 88184, Note_on_c, 15, 24, 0
20, 88200, Note_on_c, 15, 36, 92
20, 88364, Note_on_c, 15, 36, 0
20, 88380, Note_on_c, 15, 24, 92
20, 88424, Note_on_c, 15, 24, 0
20, 88440, Note_on_c, 15, 24, 92
20, 88544, Note_on_c, 15, 24, 0
20, 88560, Note_on_c, 15, 36, 92
20, 88724, Note_on_c, 15, 36, 0
20, 88740, Note_on_c, 15, 24, 92
20, 88784, Note_on_c, 15, 24, 0
20, 88800, Note_on_c, 15, 24, 92
20, 88904, Note_on_c, 15, 24, 0
20, 88920, Note_on_c, 15, 36, 92
20, 89084, Note_on_c, 15, 36, 0
20, 89100, Note_on_c, 15, 24, 92
20, 89144, Note_on_c, 15, 24, 0
20, 89160, Note_on_c, 15, 24, 92
20, 89264, Note_on_c, 15, 24, 0
20, 89280, Note_on_c, 15, 36, 92
20, 89444, Note_on_c, 15, 36, 0
20, 89460, Note_on_c, 15, 24, 92
20, 89504, Note_on_c, 15, 24, 0
20, 89520, Note_on_c, 15, 24, 92
20, 89624, Note_on_c, 15, 24, 0
20, 89640, Note_on_c, 15, 36, 92
20, 89804, Note_on_c, 15, 36, 0
20, 89820, Note_on_c, 15, 24, 92
20, 89864, Note_on_c, 15, 24, 0
20, 89880, Note_on_c, 15, 24, 92
20, 89984, Note_on_c, 15, 24, 0
20, 90000, Note_on_c, 15, 36, 92
20, 90119, Note_on_c, 15, 36, 0
20, 90720, Note_on_c, 15, 41, 92
20, 90884, Note_on_c, 15, 41, 0
20, 90900, Note_on_c, 15, 29, 92
20, 90944, Note_on_c, 15, 29, 0
20, 90960, Note_on_c, 15, 29, 92
20, 91064, Note_on_c, 15, 29, 0
20, 91080, Note_on_c, 15, 41, 92
20, 91169, Note_on_c, 15, 41, 0
20, 91200, Note_on_c, 15, 38, 92
20, 91289, Note_on_c, 15, 38, 0
20, 91320, Note_on_c, 15, 36, 92
20, 91409, Note_on_c, 15, 36, 0
20, 91440, Note_on_c, 15, 35, 92
20, 91559, Note_on_c, 15, 35, 0
20, 92160, Note_on_c, 15, 52, 92
20, 92324, Note_on_c, 15, 52, 0
20, 92340, Note_on_c, 15, 40, 92
20, 92384, Note_on_c, 15, 40, 0
20, 92400, Note_on_c, 15, 40, 92
20, 92504, Note_on_c, 15, 40, 0
20, 92520, Note_on_c, 15, 52, 92
20, 92609, Note_on_c, 15, 52, 0
20, 92640, Note_on_c, 15, 48, 92
20, 92729, Note_on_c, 15, 48, 0
20, 92760, Note_on_c, 15, 47, 92
20, 92849, Note_on_c, 15, 47, 0
20, 92878, Control_c, 15, 11, 87
20, 92880, Note_on_c, 15, 46, 68
20, 93600, Control_c, 15, 11, 87
20, 93630, Control_c, 15, 11, 89
20, 93660, Control_c, 15, 11, 90
20, 93690, Control_c, 15, 11, 92
20, 93720, Control_c, 15, 11, 94
20, 93750, Control_c, 15, 11, 95
20, 93780, Control_c, 15, 11, 97
20, 93810, Control_c, 15, 11, 99
20, 93840, Control_c, 15, 11, 100
20, 93870, Control_c, 15, 11, 102
20, 93900, Control_c, 15, 11, 104
20, 93930, Control_c, 15, 11, 105
20, 93960, Control_c, 15, 11, 107
20, 93990, Control_c, 15, 11, 109
20, 94020, Control_c, 15, 11, 110
20, 94050, Control_c, 15, 11, 112
20, 94079, Note_on_c, 15, 46, 0
20, 94080, Note_on_c, 15, 45, 68
20, 94080, Control_c, 15, 11, 114
20, 94110, Control_c, 15, 11, 115
20, 94140, Control_c, 15, 11, 117
20, 94170, Control_c, 15, 11, 119
20, 94199, Note_on_c, 15, 45, 0
20, 94200, Note_on_c, 15, 43, 68
20, 94200, Control_c, 15, 11, 120
20, 94230, Control_c, 15, 11, 122
20, 94260, Control_c, 15, 11, 124
20, 94290, Control_c, 15, 11, 125
20, 94319, Note_on_c, 15, 43, 0
20, 94320, Control_c, 15, 11, 127
20, 94320, Note_on_c, 15, 45, 68
20, 94350, Control_c, 15, 11, 125
20, 94380, Control_c, 15, 11, 124
20, 94410, Control_c, 15, 11, 122
20, 94439, Note_on_c, 15, 45, 0
20, 94440, Control_c, 15, 11, 120
20, 94440, Note_on_c, 15, 43, 68
20, 94470, Control_c, 15, 11, 119
20, 94500, Control_c, 15, 11, 117
20, 94530, Control_c, 15, 11, 115
20, 94559, Note_on_c, 15, 43, 0
20, 94560, Note_on_c, 15, 42, 68
20, 94560, Control_c, 15, 11, 114
20, 94590, Control_c, 15, 11, 112
20, 94620, Control_c, 15, 11, 110
20, 94650, Control_c, 15, 11, 109
20, 94679, Note_on_c, 15, 42, 0
20, 94680, Control_c, 15, 11, 107
20, 94680, Note_on_c, 15, 43, 68
20, 94710, Control_c, 15, 11, 105
20, 94740, Control_c, 15, 11, 104
20, 94770, Control_c, 15, 11, 102
20, 94800, Control_c, 15, 11, 100
20, 94830, Control_c, 15, 11, 99
20, 94860, Control_c, 15, 11, 97
20, 94890, Control_c, 15, 11, 95
20, 94950, Control_c, 15, 11, 92
20, 94980, Control_c, 15, 11, 90
20, 95010, Control_c, 15, 11, 87
20, 95039, Note_on_c, 15, 43, 0
20, 96840, Control_c, 15, 11, 127
20, 97200, Note_on_c, 15, 43, 80
20, 97289, Note_on_c, 15, 43, 0
20, 97320, Note_on_c, 15, 48, 80
20, 97409, Note_on_c, 15, 48, 0
20, 97440, Note_on_c, 15, 45, 80
20, 97529, Note_on_c, 15, 45, 0
20, 97560, Note_on_c, 15, 41, 80
20, 97649, Note_on_c, 15, 41, 0
20, 97680, Note_on_c, 15, 43, 80
20, 97769, Note_on_c, 15, 43, 0
20, 97800, Note_on_c, 15, 31, 80
20, 97889, Note_on_c, 15, 31, 0
20, 97920, Note_on_c, 15, 36, 80
20, 98039, Note_on_c, 15, 36, 0
20, 98640, Note_on_c, 15, 43, 80
20, 98729, Note_on_c, 15, 43, 0
20, 98760, Note_on_c, 15, 40, 80
20, 98849, Note_on_c, 15, 40, 0
20, 98880, Note_on_c, 15, 45, 80
20, 98969, Note_on_c, 15, 45, 0
20, 99000, Note_on_c, 15, 41, 80
20, 99089, Note_on_c, 15, 41, 0
20, 99120, Note_on_c, 15, 38, 80
20, 99209, Note_on_c, 15, 38, 0
20, 99240, Note_on_c, 15, 43, 80
20, 99329, Note_on_c, 15, 43, 0
20, 99360, Note_on_c, 15, 36, 80
20, 99479, Note_on_c, 15, 36, 0
20, 99720, Note_on_c, 15, 55, 80
20, 99884, Note_on_c, 15, 55, 0
20, 99900, Note_on_c, 15, 43, 80
20, 99944, Note_on_c, 15, 43, 0
20, 99960, Note_on_c, 15, 43, 80
20, 100064, Note_on_c, 15, 43, 0
20, 100080, Note_on_c, 15, 36, 80
20, 100199, Note_on_c, 15, 36, 0
20, 100440, Note_on_c, 15, 55, 80
20, 100604, Note_on_c, 15, 55, 0
20, 100620, Note_on_c, 15, 43, 80
20, 100664, Note_on_c, 15, 43, 0
20, 100680, Note_on_c, 15, 43, 80
20, 100784, Note_on_c, 15, 43, 0
20, 100800, Note_on_c, 15, 31, 32
20, 100889, Note_on_c, 15, 31, 0
20, 100920, Note_on_c, 15, 31, 32
20, 101009, Note_on_c, 15, 31, 0
20, 101040, Note_on_c, 15, 31, 32
20, 101129, Note_on_c, 15, 31, 0
20, 101160, Note_on_c, 15, 31, 32
20, 101249, Note_on_c, 15, 31, 0
20, 101280, Note_on_c, 15, 31, 32
20, 101369, Note_on_c, 15, 31, 0
20, 101400, Note_on_c, 15, 31, 32
20, 101489, Note_on_c, 15, 31, 0
20, 101520, Note_on_c, 15, 31, 32
20, 101609, Note_on_c, 15, 31, 0
20, 101640, Note_on_c, 15, 31, 32
20, 101729, Note_on_c, 15, 31, 0
20, 101760, Note_on_c, 15, 31, 32
20, 101849, Note_on_c, 15, 31, 0
20, 101880, Note_on_c, 15, 31, 32
20, 101969, Note_on_c, 15, 31, 0
20, 102000, Note_on_c, 15, 31, 32
20, 102089, Note_on_c, 15, 31, 0
20, 102120, Note_on_c, 15, 31, 32
20, 102209, Note_on_c, 15, 31, 0
20, 102240, Note_on_c, 15, 24, 32
20, 102404, Note_on_c, 15, 24, 0
20, 102420, Note_on_c, 15, 36, 32
20, 102464, Note_on_c, 15, 36, 0
20, 102480, Note_on_c, 15, 36, 32
20, 102584, Note_on_c, 15, 36, 0
20, 102600, Note_on_c, 15, 33, 32
20, 102719, Note_on_c, 15, 33, 0
20, 102960, Note_on_c, 15, 29, 32
20, 103124, Note_on_c, 15, 29, 0
20, 103140, Note_on_c, 15, 41, 32
20, 103184, Note_on_c, 15, 41, 0
20, 103200, Note_on_c, 15, 41, 32
20, 103304, Note_on_c, 15, 41, 0
20, 103320, Note_on_c, 15, 38, 32
20, 103439, Note_on_c, 15, 38, 0
20, 105120, Note_on_c, 15, 26, 32
20, 105284, Note_on_c, 15, 26, 0
20, 105300, Note_on_c, 15, 38, 32
20, 105344, Note_on_c, 15, 38, 0
20, 105360, Note_on_c, 15, 38, 32
20, 105464, Note_on_c, 15, 38, 0
20, 105480, Note_on_c, 15, 34, 32
20, 105599, Note_on_c, 15, 34, 0
20, 105840, Note_on_c, 15, 31, 32
20, 106004, Note_on_c, 15, 31, 0
20, 106020, Note_on_c, 15, 43, 32
20, 106064, Note_on_c, 15, 43, 0
20, 106080, Note_on_c, 15, 43, 32
20, 106184, Note_on_c, 15, 43, 0
20, 106200, Note_on_c, 15, 39, 32
20, 106319, Note_on_c, 15, 39, 0
20, 108000, Note_on_c, 15, 39, 32
20, 108164, Note_on_c, 15, 39, 0
20, 108180, Note_on_c, 15, 51, 34
20, 108224, Note_on_c, 15, 51, 0
20, 108240, Note_on_c, 15, 51, 34
20, 108344, Note_on_c, 15, 51, 0
20, 108360, Note_on_c, 15, 48, 36
20, 108479, Note_on_c, 15, 48, 0
20, 108720, Note_on_c, 15, 32, 40
20, 108884, Note_on_c, 15, 32, 0
20, 108900, Note_on_c, 15, 44, 42
20, 108944, Note_on_c, 15, 44, 0
20, 108960, Note_on_c, 15, 44, 42
20, 109064, Note_on_c, 15, 44, 0
20, 109080, Note_on_c, 15, 41, 44
20, 109199, Note_on_c, 15, 41, 0
20, 109440, Note_on_c, 15, 37, 48
20, 109604, Note_on_c, 15, 37, 0
20, 109620, Note_on_c, 15, 49, 50
20, 109664, Note_on_c, 15, 49, 0
20, 109680, Note_on_c, 15, 49, 50
20, 109784, Note_on_c, 15, 49, 0
20, 109800, Note_on_c, 15, 46, 52
20, 109919, Note_on_c, 15, 46, 0
20, 110160, Note_on_c, 15, 30, 56
20, 110324, Note_on_c, 15, 30, 0
20, 110340, Note_on_c, 15, 42, 58
20, 110384, Note_on_c, 15, 42, 0
20, 110400, Note_on_c, 15, 42, 58
20, 110504, Note_on_c, 15, 42, 0
20, 110520, Note_on_c, 15, 39, 60
20, 110639, Note_on_c, 15, 39, 0
20, 110880, Note_on_c, 15, 35, 64
20, 111044, Note_on_c, 15, 35, 0
20, 111060, Note_on_c, 15, 47, 66
20, 111104, Note_on_c, 15, 47, 0
20, 111120, Note_on_c, 15, 47, 66
20, 111224, Note_on_c, 15, 47, 0
20, 111240, Note_on_c, 15, 44, 68
20, 111359, Note_on_c, 15, 44, 0
20, 111600, Note_on_c, 15, 40, 72
20, 111764, Note_on_c, 15, 40, 0
20, 111780, Note_on_c, 15, 52, 74
20, 111824, Note_on_c, 15, 52, 0
20, 111840, Note_on_c, 15, 52, 74
20, 111944, Note_on_c, 15, 52, 0
20, 111960, Note_on_c, 15, 49, 76
20, 112079, Note_on_c, 15, 49, 0
20, 112320, Note_on_c, 15, 33, 80
20, 112484, Note_on_c, 15, 33, 0
20, 112500, Note_on_c, 15, 45, 80
20, 112544, Note_on_c, 15, 45, 0
20, 112560, Note_on_c, 15, 45, 80
20, 112664, Note_on_c, 15, 45, 0
20, 113040, Note_on_c, 15, 34, 92
20, 113204, Note_on_c, 15, 34, 0
20, 113220, Note_on_c, 15, 46, 92
20, 113264, Note_on_c, 15, 46, 0
20, 113280, Note_on_c, 15, 46, 92
20, 113384, Note_on_c, 15, 46, 0
20, 113760, Note_on_c, 15, 35, 92
20, 113924, Note_on_c, 15, 35, 0
20, 113940, Note_on_c, 15, 47, 92
20, 113984, Note_on_c, 15, 47, 0
20, 114000, Note_on_c, 15, 47, 92
20, 114104, Note_on_c, 15, 47, 0
20, 114840, Program_c, 15, 45
20, 115200, Note_on_c, 15, 40, 40
20, 115319, Note_on_c, 15, 40, 0
20, 115560, Note_on_c, 15, 35, 40
20, 115679, Note_on_c, 15, 35, 0
20, 116280, Note_on_c, 15, 40, 40
20, 116399, Note_on_c, 15, 40, 0
20, 116640, Note_on_c, 15, 35, 40
20, 116759, Note_on_c, 15, 35, 0
20, 117360, Note_on_c, 15, 40, 40
20, 117479, Note_on_c, 15, 40, 0
20, 117720, Note_on_c, 15, 35, 40
20, 117839, Note_on_c, 15, 35, 0
20, 118440, Note_on_c, 15, 52, 40
20, 118559, Note_on_c, 15, 52, 0
20, 118800, Note_on_c, 15, 40, 40
20, 118919, Note_on_c, 15, 40, 0
20, 119520, Note_on_c, 15, 45, 40
20, 119639, Note_on_c, 15, 45, 0
20, 119880, Note_on_c, 15, 40, 40
20, 119999, Note_on_c, 15, 40, 0
20, 120600, Note_on_c, 15, 45, 40
20, 120719, Note_on_c, 15, 45, 0
20, 120960, Note_on_c, 15, 40, 40
20, 121079, Note_on_c, 15, 40, 0
20, 121680, Note_on_c, 15, 53, 40
20, 121799, Note_on_c, 15, 53, 0
20, 122040, Note_on_c, 15, 41, 40
20, 122159, Note_on_c, 15, 41, 0
20, 122760, Note_on_c, 15, 53, 40
20, 122879, Note_on_c, 15, 53, 0
20, 123120, Note_on_c, 15, 41, 40
20, 123239, Note_on_c, 15, 41, 0
20, 123840, Note_on_c, 15, 53, 40
20, 123959, Note_on_c, 15, 53, 0
20, 124200, Note_on_c, 15, 41, 40
20, 124319, Note_on_c, 15, 41, 0
20, 124920, Note_on_c, 15, 53, 40
20, 125039, Note_on_c, 15, 53, 0
20, 125280, Note_on_c, 15, 41, 40
20, 125399, Note_on_c, 15, 41, 0
20, 125640, Note_on_c, 15, 41, 40
20, 125759, Note_on_c, 15, 41, 0
20, 126000, Note_on_c, 15, 29, 40
20, 126119, Note_on_c, 15, 29, 0
20, 126360, Note_on_c, 15, 41, 40
20, 126479, Note_on_c, 15, 41, 0
20, 126720, Note_on_c, 15, 48, 40
20, 126839, Note_on_c, 15, 48, 0
20, 127080, Note_on_c, 15, 36, 39
20, 127199, Note_on_c, 15, 36, 0
20, 127440, Note_on_c, 15, 48, 38
20, 127559, Note_on_c, 15, 48, 0
20, 127800, Note_on_c, 15, 50, 37
20, 127919, Note_on_c, 15, 50, 0
20, 128160, Note_on_c, 15, 38, 36
20, 128279, Note_on_c, 15, 38, 0
20, 128520, Note_on_c, 15, 50, 35
20, 128639, Note_on_c, 15, 50, 0
20, 128880, Note_on_c, 15, 45, 34
20, 128999, Note_on_c, 15, 45, 0
20, 129240, Note_on_c, 15, 33, 33
20, 129359, Note_on_c, 15, 33, 0
20, 129600, Note_on_c, 15, 45, 32
20, 129719, Note_on_c, 15, 45, 0
20, 129960, Note_on_c, 15, 45, 31
20, 130079, Note_on_c, 15, 45, 0
20, 130320, Note_on_c, 15, 33, 30
20, 130439, Note_on_c, 15, 33, 0
20, 130680, Note_on_c, 15, 45, 29
20, 130799, Note_on_c, 15, 45, 0
20, 131040, Note_on_c, 15, 45, 28
20, 131159, Note_on_c, 15, 45, 0
20, 131400, Note_on_c, 15, 33, 28
20, 131519, Note_on_c, 15, 33, 0
20, 131760, Note_on_c, 15, 45, 28
20, 131879, Note_on_c, 15, 45, 0
20, 132120, Note_on_c, 15, 43, 28
20, 132239, Note_on_c, 15, 43, 0
20, 132240, Note_on_c, 15, 41, 28
20, 132359, Note_on_c, 15, 41, 0
20, 132360, Note_on_c, 15, 40, 28
20, 132479, Note_on_c, 15, 40, 0
20, 132480, Note_on_c, 15, 38, 28
20, 132599, Note_on_c, 15, 38, 0
20, 132840, Note_on_c, 15, 33, 28
20, 132959, Note_on_c, 15, 33, 0
20, 133560, Note_on_c, 15, 38, 28
20, 133679, Note_on_c, 15, 38, 0
20, 133920, Note_on_c, 15, 33, 28
20, 134039, Note_on_c, 15, 33, 0
20, 134640, Note_on_c, 15, 38, 28
20, 134759, Note_on_c, 15, 38, 0
20, 135000, Note_on_c, 15, 33, 28
20, 135119, Note_on_c, 15, 33, 0
20, 135240, Program_c, 15, 48
20, 135360, Note_on_c, 15, 45, 32
20, 135524, Note_on_c, 15, 45, 0
20, 135540, Note_on_c, 15, 33, 32
20, 135584, Note_on_c, 15, 33, 0
20, 135600, Note_on_c, 15, 33, 32
20, 135704, Note_on_c, 15, 33, 0
20, 135720, Note_on_c, 15, 38, 32
20, 135824, Note_on_c, 15, 38, 0
20, 135840, Note_on_c, 15, 40, 32
20, 135944, Note_on_c, 15, 40, 0
20, 135960, Note_on_c, 15, 41, 32
20, 136064, Note_on_c, 15, 41, 0
20, 136080, Note_on_c, 15, 40, 32
20, 136184, Note_on_c, 15, 40, 0
20, 136200, Note_on_c, 15, 41, 32
20, 136304, Note_on_c, 15, 41, 0
20, 136320, Note_on_c, 15, 43, 32
20, 136424, Note_on_c, 15, 43, 0
20, 136440, Note_on_c, 15, 41, 32
20, 136544, Note_on_c, 15, 41, 0
20, 136560, Note_on_c, 15, 40, 32
20, 136664, Note_on_c, 15, 40, 0
20, 136680, Note_on_c, 15, 38, 32
20, 136784, Note_on_c, 15, 38, 0
20, 136800, Note_on_c, 15, 35, 32
20, 136904, Note_on_c, 15, 35, 0
20, 136920, Note_on_c, 15, 36, 32
20, 137024, Note_on_c, 15, 36, 0
20, 137040, Note_on_c, 15, 38, 32
20, 137144, Note_on_c, 15, 38, 0
20, 137160, Note_on_c, 15, 36, 32
20, 137264, Note_on_c, 15, 36, 0
20, 137280, Note_on_c, 15, 35, 32
20, 137384, Note_on_c, 15, 35, 0
20, 137400, Note_on_c, 15, 36, 32
20, 137504, Note_on_c, 15, 36, 0
20, 137520, Note_on_c, 15, 35, 32
20, 137624, Note_on_c, 15, 35, 0
20, 137640, Note_on_c, 15, 36, 32
20, 137744, Note_on_c, 15, 36, 0
20, 137760, Note_on_c, 15, 38, 32
20, 137864, Note_on_c, 15, 38, 0
20, 137880, Note_on_c, 15, 36, 32
20, 137984, Note_on_c, 15, 36, 0
20, 138000, Note_on_c, 15, 36, 32
20, 138104, Note_on_c, 15, 36, 0
20, 138120, Note_on_c, 15, 36, 32
20, 138224, Note_on_c, 15, 36, 0
20, 138240, Note_on_c, 15, 46, 32
20, 138404, Note_on_c, 15, 46, 0
20, 138420, Note_on_c, 15, 34, 32
20, 138464, Note_on_c, 15, 34, 0
20, 138480, Note_on_c, 15, 34, 32
20, 138584, Note_on_c, 15, 34, 0
20, 138600, Note_on_c, 15, 39, 32
20, 138704, Note_on_c, 15, 39, 0
20, 138720, Note_on_c, 15, 41, 32
20, 138824, Note_on_c, 15, 41, 0
20, 138840, Note_on_c, 15, 43, 32
20, 138944, Note_on_c, 15, 43, 0
20, 138960, Note_on_c, 15, 41, 32
20, 139064, Note_on_c, 15, 41, 0
20, 139080, Note_on_c, 15, 43, 32
20, 139184, Note_on_c, 15, 43, 0
20, 139200, Note_on_c, 15, 44, 32
20, 139304, Note_on_c, 15, 44, 0
20, 139320, Note_on_c, 15, 43, 32
20, 139424, Note_on_c, 15, 43, 0
20, 139440, Note_on_c, 15, 41, 32
20, 139544, Note_on_c, 15, 41, 0
20, 139560, Note_on_c, 15, 39, 32
20, 139664, Note_on_c, 15, 39, 0
20, 139680, Note_on_c, 15, 38, 32
20, 139784, Note_on_c, 15, 38, 0
20, 139800, Note_on_c, 15, 36, 32
20, 139904, Note_on_c, 15, 36, 0
20, 139920, Note_on_c, 15, 34, 32
20, 140024, Note_on_c, 15, 34, 0
20, 140040, Note_on_c, 15, 34, 32
20, 140144, Note_on_c, 15, 34, 0
20, 140160, Note_on_c, 15, 34, 32
20, 140264, Note_on_c, 15, 34, 0
20, 140280, Note_on_c, 15, 34, 32
20, 140384, Note_on_c, 15, 34, 0
20, 140398, Control_c, 15, 11, 47
20, 140400, Note_on_c, 15, 34, 80
20, 141839, Note_on_c, 15, 34, 0
20, 141840, Note_on_c, 15, 34, 80
20, 143279, Note_on_c, 15, 34, 0
20, 143280, Control_c, 15, 11, 47
20, 143280, Note_on_c, 15, 34, 80
20, 143352, Control_c, 15, 11, 48
20, 143424, Control_c, 15, 11, 49
20, 143496, Control_c, 15, 11, 50
20, 143568, Control_c, 15, 11, 51
20, 143640, Control_c, 15, 11, 52
20, 143712, Control_c, 15, 11, 53
20, 143784, Control_c, 15, 11, 54
20, 143856, Control_c, 15, 11, 55
20, 143928, Control_c, 15, 11, 56
20, 144000, Control_c, 15, 11, 57
20, 144072, Control_c, 15, 11, 58
20, 144144, Control_c, 15, 11, 59
20, 144216, Control_c, 15, 11, 60
20, 144288, Control_c, 15, 11, 61
20, 144360, Control_c, 15, 11, 62
20, 144432, Control_c, 15, 11, 63
20, 144504, Control_c, 15, 11, 64
20, 144576, Control_c, 15, 11, 65
20, 144648, Control_c, 15, 11, 66
20, 144704, Note_on_c, 15, 34, 0
20, 144720, Control_c, 15, 11, 67
20, 144720, Note_on_c, 15, 33, 80
20, 144750, Control_c, 15, 11, 68
20, 144780, Control_c, 15, 11, 70
20, 144810, Control_c, 15, 11, 71
20, 144840, Control_c, 15, 11, 72
20, 144870, Control_c, 15, 11, 73
20, 144900, Control_c, 15, 11, 75
20, 144930, Control_c, 15, 11, 76
20, 144960, Control_c, 15, 11, 77
20, 144990, Control_c, 15, 11, 78
20, 145020, Control_c, 15, 11, 80
20, 145050, Control_c, 15, 11, 81
20, 145080, Control_c, 15, 11, 82
20, 145110, Control_c, 15, 11, 83
20, 145140, Control_c, 15, 11, 85
20, 145170, Control_c, 15, 11, 86
20, 145200, Control_c, 15, 11, 87
20, 145230, Control_c, 15, 11, 88
20, 145260, Control_c, 15, 11, 90
20, 145290, Control_c, 15, 11, 91
20, 145320, Control_c, 15, 11, 92
20, 145350, Control_c, 15, 11, 93
20, 145380, Control_c, 15, 11, 95
20, 145410, Control_c, 15, 11, 96
20, 145440, Control_c, 15, 11, 97
20, 145470, Control_c, 15, 11, 98
20, 145500, Control_c, 15, 11, 100
20, 145530, Control_c, 15, 11, 101
20, 145560, Control_c, 15, 11, 102
20, 145590, Control_c, 15, 11, 103
20, 145620, Control_c, 15, 11, 105
20, 145650, Control_c, 15, 11, 106
20, 145680, Control_c, 15, 11, 107
20, 145710, Control_c, 15, 11, 108
20, 145740, Control_c, 15, 11, 110
20, 145770, Control_c, 15, 11, 111
20, 145800, Control_c, 15, 11, 112
20, 145830, Control_c, 15, 11, 113
20, 145860, Control_c, 15, 11, 115
20, 145890, Control_c, 15, 11, 116
20, 145920, Control_c, 15, 11, 117
20, 145950, Control_c, 15, 11, 118
20, 145980, Control_c, 15, 11, 120
20, 146010, Control_c, 15, 11, 121
20, 146040, Control_c, 15, 11, 122
20, 146070, Control_c, 15, 11, 123
20, 146100, Control_c, 15, 11, 125
20, 146130, Control_c, 15, 11, 127
20, 146144, Note_on_c, 15, 33, 0
20, 146160, Note_on_c, 15, 33, 80
20, 146279, Note_on_c, 15, 33, 0
20, 146880, Note_on_c, 15, 33, 86
20, 146999, Note_on_c, 15, 33, 0
20, 147600, Note_on_c, 15, 26, 92
20, 147764, Note_on_c, 15, 26, 0
20, 147780, Note_on_c, 15, 38, 92
20, 147824, Note_on_c, 15, 38, 0
20, 147840, Note_on_c, 15, 38, 92
20, 147944, Note_on_c, 15, 38, 0
20, 147960, Note_on_c, 15, 26, 92
20, 148124, Note_on_c, 15, 26, 0
20, 148140, Note_on_c, 15, 38, 92
20, 148184, Note_on_c, 15, 38, 0
20, 148200, Note_on_c, 15, 38, 92
20, 148304, Note_on_c, 15, 38, 0
20, 148320, Note_on_c, 15, 26, 92
20, 148484, Note_on_c, 15, 26, 0
20, 148500, Note_on_c, 15, 38, 92
20, 148544, Note_on_c, 15, 38, 0
20, 148560, Note_on_c, 15, 38, 92
20, 148664, Note_on_c, 15, 38, 0
20, 148680, Note_on_c, 15, 26, 92
20, 148844, Note_on_c, 15, 26, 0
20, 148860, Note_on_c, 15, 38, 92
20, 148904, Note_on_c, 15, 38, 0
20, 148920, Note_on_c, 15, 38, 92
20, 149024, Note_on_c, 15, 38, 0
20, 149040, Note_on_c, 15, 26, 92
20, 149204, Note_on_c, 15, 26, 0
20, 149220, Note_on_c, 15, 38, 92
20, 149264, Note_on_c, 15, 38, 0
20, 149280, Note_on_c, 15, 38, 92
20, 149384, Note_on_c, 15, 38, 0
20, 149400, Note_on_c, 15, 26, 92
20, 149564, Note_on_c, 15, 26, 0
20, 149580, Note_on_c, 15, 38, 92
20, 149624, Note_on_c, 15, 38, 0
20, 149640, Note_on_c, 15, 38, 92
20, 149744, Note_on_c, 15, 38, 0
20, 149760, Note_on_c, 15, 26, 92
20, 149924, Note_on_c, 15, 26, 0
20, 149940, Note_on_c, 15, 38, 92
20, 149984, Note_on_c, 15, 38, 0
20, 150000, Note_on_c, 15, 38, 92
20, 150104, Note_on_c, 15, 38, 0
20, 150120, Note_on_c, 15, 26, 92
20, 150284, Note_on_c, 15, 26, 0
20, 150300, Note_on_c, 15, 38, 92
20, 150344, Note_on_c, 15, 38, 0
20, 150360, Note_on_c, 15, 38, 92
20, 150464, Note_on_c, 15, 38, 0
20, 150480, Note_on_c, 15, 26, 92
20, 150644, Note_on_c, 15, 26, 0
20, 150660, Note_on_c, 15, 38, 92
20, 150704, Note_on_c, 15, 38, 0
20, 150720, Note_on_c, 15, 38, 92
20, 150824, Note_on_c, 15, 38, 0
20, 150840, Note_on_c, 15, 26, 92
20, 151004, Note_on_c, 15, 26, 0
20, 151020, Note_on_c, 15, 38, 92
20, 151064, Note_on_c, 15, 38, 0
20, 151080, Note_on_c, 15, 38, 92
20, 151184, Note_on_c, 15, 38, 0
20, 151200, Note_on_c, 15, 26, 92
20, 151364, Note_on_c, 15, 26, 0
20, 151380, Note_on_c, 15, 38, 92
20, 151424, Note_on_c, 15, 38, 0
20, 151440, Note_on_c, 15, 38, 92
20, 151544, Note_on_c, 15, 38, 0
20, 151560, Note_on_c, 15, 26, 92
20, 151724, Note_on_c, 15, 26, 0
20, 151740, Note_on_c, 15, 38, 92
20, 151784, Note_on_c, 15, 38, 0
20, 151800, Note_on_c, 15, 38, 92
20, 151904, Note_on_c, 15, 38, 0
20, 151920, Note_on_c, 15, 26, 92
20, 152084, Note_on_c, 15, 26, 0
20, 152100, Note_on_c, 15, 38, 92
20, 152144, Note_on_c, 15, 38, 0
20, 152160, Note_on_c, 15, 38, 92
20, 152264, Note_on_c, 15, 38, 0
20, 152280, Note_on_c, 15, 26, 92
20, 152444, Note_on_c, 15, 26, 0
20, 152460, Note_on_c, 15, 38, 92
20, 152504, Note_on_c, 15, 38, 0
20, 152520, Note_on_c, 15, 38, 92
20, 152624, Note_on_c, 15, 38, 0
20, 152640, Note_on_c, 15, 26, 92
20, 152804, Note_on_c, 15, 26, 0
20, 152820, Note_on_c, 15, 38, 92
20, 152864, Note_on_c, 15, 38, 0
20, 152880, Note_on_c, 15, 38, 92
20, 152984, Note_on_c, 15, 38, 0
20, 153000, Note_on_c, 15, 26, 92
20, 153164, Note_on_c, 15, 26, 0
20, 153180, Note_on_c, 15, 38, 92
20, 153224, Note_on_c, 15, 38, 0
20, 153240, Note_on_c, 15, 38, 92
20, 153344, Note_on_c, 15, 38, 0
20, 153360, Note_on_c, 15, 51, 92
20, 153449, Note_on_c, 15, 51, 0
20, 153480, Note_on_c, 15, 50, 92
20, 153569, Note_on_c, 15, 50, 0
20, 153600, Note_on_c, 15, 48, 92
20, 153689, Note_on_c, 15, 48, 0
20, 153720, Note_on_c, 15, 46, 92
20, 153809, Note_on_c, 15, 46, 0
20, 153840, Note_on_c, 15, 45, 92
20, 153929, Note_on_c, 15, 45, 0
20, 153960, Note_on_c, 15, 43, 92
20, 154049, Note_on_c, 15, 43, 0
20, 154080, Note_on_c, 15, 42, 92
20, 154169, Note_on_c, 15, 42, 0
20, 154200, Note_on_c, 15, 43, 92
20, 154289, Note_on_c, 15, 43, 0
20, 154320, Note_on_c, 15, 45, 92
20, 154409, Note_on_c, 15, 45, 0
20, 154440, Note_on_c, 15, 43, 92
20, 154529, Note_on_c, 15, 43, 0
20, 154560, Note_on_c, 15, 45, 92
20, 154649, Note_on_c, 15, 45, 0
20, 154680, Note_on_c, 15, 46, 92
20, 154769, Note_on_c, 15, 46, 0
20, 154800, Note_on_c, 15, 51, 80
20, 154889, Note_on_c, 15, 51, 0
20, 154920, Note_on_c, 15, 50, 80
20, 155009, Note_on_c, 15, 50, 0
20, 155040, Note_on_c, 15, 48, 80
20, 155129, Note_on_c, 15, 48, 0
20, 155160, Note_on_c, 15, 46, 80
20, 155249, Note_on_c, 15, 46, 0
20, 155280, Note_on_c, 15, 45, 80
20, 155369, Note_on_c, 15, 45, 0
20, 155400, Note_on_c, 15, 43, 80
20, 155489, Note_on_c, 15, 43, 0
20, 155520, Note_on_c, 15, 53, 80
20, 155609, Note_on_c, 15, 53, 0
20, 155640, Note_on_c, 15, 51, 80
20, 155729, Note_on_c, 15, 51, 0
20, 155760, Note_on_c, 15, 50, 80
20, 155849, Note_on_c, 15, 50, 0
20, 155880, Note_on_c, 15, 48, 80
20, 155969, Note_on_c, 15, 48, 0
20, 156000, Note_on_c, 15, 46, 80
20, 156089, Note_on_c, 15, 46, 0
20, 156120, Note_on_c, 15, 45, 80
20, 156209, Note_on_c, 15, 45, 0
20, 156240, Note_on_c, 15, 55, 80
20, 156329, Note_on_c, 15, 55, 0
20, 156360, Note_on_c, 15, 53, 80
20, 156449, Note_on_c, 15, 53, 0
20, 156480, Note_on_c, 15, 51, 80
20, 156569, Note_on_c, 15, 51, 0
20, 156600, Note_on_c, 15, 50, 80
20, 156689, Note_on_c, 15, 50, 0
20, 156720, Note_on_c, 15, 48, 80
20, 156809, Note_on_c, 15, 48, 0
20, 156840, Note_on_c, 15, 46, 80
20, 156929, Note_on_c, 15, 46, 0
20, 156960, Note_on_c, 15, 45, 80
20, 157049, Note_on_c, 15, 45, 0
20, 157080, Note_on_c, 15, 43, 80
20, 157169, Note_on_c, 15, 43, 0
20, 157200, Note_on_c, 15, 41, 80
20, 157289, Note_on_c, 15, 41, 0
20, 157320, Note_on_c, 15, 39, 80
20, 157409, Note_on_c, 15, 39, 0
20, 157440, Note_on_c, 15, 38, 80
20, 157529, Note_on_c, 15, 38, 0
20, 157560, Note_on_c, 15, 36, 80
20, 157649, Note_on_c, 15, 36, 0
20, 157680, Note_on_c, 15, 34, 80
20, 157769, Note_on_c, 15, 34, 0
20, 157920, Program_c, 15, 45
20, 158040, Note_on_c, 15, 46, 40
20, 158159, Note_on_c, 15, 46, 0
20, 158400, Note_on_c, 15, 39, 40
20, 158519, Note_on_c, 15, 39, 0
20, 158760, Note_on_c, 15, 36, 40
20, 158879, Note_on_c, 15, 36, 0
20, 159120, Note_on_c, 15, 41, 40
20, 159239, Note_on_c, 15, 41, 0
20, 159480, Note_on_c, 15, 34, 40
20, 159599, Note_on_c, 15, 34, 0
20, 159840, Note_on_c, 15, 41, 40
20, 159959, Note_on_c, 15, 41, 0
20, 160200, Note_on_c, 15, 29, 40
20, 160319, Note_on_c, 15, 29, 0
20, 164160, Note_on_c, 15, 45, 40
20, 164279, Note_on_c, 15, 45, 0
20, 164520, Note_on_c, 15, 33, 40
20, 164639, Note_on_c, 15, 33, 0
20, 164880, Note_on_c, 15, 45, 45
20, 164999, Note_on_c, 15, 45, 0
20, 165240, Note_on_c, 15, 33, 51
20, 165359, Note_on_c, 15, 33, 0
20, 165600, Note_on_c, 15, 45, 56
20, 165719, Note_on_c, 15, 45, 0
20, 165960, Note_on_c, 15, 33, 62
20, 166079, Note_on_c, 15, 33, 0
20, 166320, Note_on_c, 15, 45, 55
20, 166439, Note_on_c, 15, 45, 0
20, 166680, Note_on_c, 15, 33, 48
20, 166799, Note_on_c, 15, 33, 0
20, 167280, Note_on_c, 15, 45, 43
20, 167399, Note_on_c, 15, 45, 0
20, 167640, Note_on_c, 15, 45, 49
20, 167759, Note_on_c, 15, 45, 0
20, 168000, Note_on_c, 15, 45, 55
20, 168119, Note_on_c, 15, 45, 0
20, 168360, Note_on_c, 15, 43, 61
20, 168479, Note_on_c, 15, 43, 0
20, 168720, Note_on_c, 15, 43, 66
20, 168839, Note_on_c, 15, 43, 0
20, 169080, Note_on_c, 15, 42, 72
20, 169199, Note_on_c, 15, 42, 0
20, 169440, Note_on_c, 15, 41, 78
20, 169559, Note_on_c, 15, 41, 0
20, 169800, Note_on_c, 15, 40, 84
20, 169904, Note_on_c, 15, 40, 0
20, 169918, Program_c, 15, 48
20, 169920, Note_on_c, 15, 50, 92
20, 170084, Note_on_c, 15, 50, 0
20, 170100, Note_on_c, 15, 38, 92
20, 170144, Note_on_c, 15, 38, 0
20, 170160, Note_on_c, 15, 38, 92
20, 170264, Note_on_c, 15, 38, 0
20, 170280, Note_on_c, 15, 50, 92
20, 170444, Note_on_c, 15, 50, 0
20, 170460, Note_on_c, 15, 38, 92
20, 170504, Note_on_c, 15, 38, 0
20, 170520, Note_on_c, 15, 38, 92
20, 170624, Note_on_c, 15, 38, 0
20, 170640, Note_on_c, 15, 50, 92
20, 170804, Note_on_c, 15, 50, 0
20, 170820, Note_on_c, 15, 38, 92
20, 170864, Note_on_c, 15, 38, 0
20, 170880, Note_on_c, 15, 38, 92
20, 170984, Note_on_c, 15, 38, 0
20, 171000, Note_on_c, 15, 50, 92
20, 171164, Note_on_c, 15, 50, 0
20, 171180, Note_on_c, 15, 38, 92
20, 171224, Note_on_c, 15, 38, 0
20, 171240, Note_on_c, 15, 38, 92
20, 171344, Note_on_c, 15, 38, 0
20, 171360, Note_on_c, 15, 50, 92
20, 171524, Note_on_c, 15, 50, 0
20, 171540, Note_on_c, 15, 38, 92
20, 171584, Note_on_c, 15, 38, 0
20, 171600, Note_on_c, 15, 38, 92
20, 171704, Note_on_c, 15, 38, 0
20, 171720, Note_on_c, 15, 50, 92
20, 171884, Note_on_c, 15, 50, 0
20, 171900, Note_on_c, 15, 38, 92
20, 171944, Note_on_c, 15, 38, 0
20, 171960, Note_on_c, 15, 38, 92
20, 172064, Note_on_c, 15, 38, 0
20, 172080, Note_on_c, 15, 50, 92
20, 172244, Note_on_c, 15, 50, 0
20, 172260, Note_on_c, 15, 38, 92
20, 172304, Note_on_c, 15, 38, 0
20, 172320, Note_on_c, 15, 38, 92
20, 172424, Note_on_c, 15, 38, 0
20, 172440, Note_on_c, 15, 50, 92
20, 172604, Note_on_c, 15, 50, 0
20, 172620, Note_on_c, 15, 38, 92
20, 172664, Note_on_c, 15, 38, 0
20, 172680, Note_on_c, 15, 38, 92
20, 172784, Note_on_c, 15, 38, 0
20, 172800, Note_on_c, 15, 50, 92
20, 172964, Note_on_c, 15, 50, 0
20, 172980, Note_on_c, 15, 38, 92
20, 173024, Note_on_c, 15, 38, 0
20, 173040, Note_on_c, 15, 38, 92
20, 173144, Note_on_c, 15, 38, 0
20, 173160, Note_on_c, 15, 50, 92
20, 173324, Note_on_c, 15, 50, 0
20, 173340, Note_on_c, 15, 38, 92
20, 173384, Note_on_c, 15, 38, 0
20, 173400, Note_on_c, 15, 38, 92
20, 173504, Note_on_c, 15, 38, 0
20, 173520, Note_on_c, 15, 50, 92
20, 173684, Note_on_c, 15, 50, 0
20, 173700, Note_on_c, 15, 38, 92
20, 173744, Note_on_c, 15, 38, 0
20, 173760, Note_on_c, 15, 38, 92
20, 173864, Note_on_c, 15, 38, 0
20, 173880, Note_on_c, 15, 50, 92
20, 174044, Note_on_c, 15, 50, 0
20, 174060, Note_on_c, 15, 38, 92
20, 174104, Note_on_c, 15, 38, 0
20, 174120, Note_on_c, 15, 38, 92
20, 174224, Note_on_c, 15, 38, 0
20, 174240, Note_on_c, 15, 50, 92
20, 174404, Note_on_c, 15, 50, 0
20, 174420, Note_on_c, 15, 38, 92
20, 174464, Note_on_c, 15, 38, 0
20, 174480, Note_on_c, 15, 38, 92
20, 174584, Note_on_c, 15, 38, 0
20, 174600, Note_on_c, 15, 50, 92
20, 174764, Note_on_c, 15, 50, 0
20, 174780, Note_on_c, 15, 38, 92
20, 174824, Note_on_c, 15, 38, 0
20, 174840, Note_on_c, 15, 38, 92
20, 174944, Note_on_c, 15, 38, 0
20, 174960, Note_on_c, 15, 50, 92
20, 175124, Note_on_c, 15, 50, 0
20, 175140, Note_on_c, 15, 38, 92
20, 175184, Note_on_c, 15, 38, 0
20, 175200, Note_on_c, 15, 38, 92
20, 175304, Note_on_c, 15, 38, 0
20, 175320, Note_on_c, 15, 50, 92
20, 175484, Note_on_c, 15, 50, 0
20, 175500, Note_on_c, 15, 38, 92
20, 175544, Note_on_c, 15, 38, 0
20, 175560, Note_on_c, 15, 38, 92
20, 175664, Note_on_c, 15, 38, 0
20, 175680, Note_on_c, 15, 50, 92
20, 175799, Note_on_c, 15, 50, 0
20, 176400, Note_on_c, 15, 43, 92
20, 176564, Note_on_c, 15, 43, 0
20, 176580, Note_on_c, 15, 31, 92
20, 176624, Note_on_c, 15, 31, 0
20, 176640, Note_on_c, 15, 31, 92
20, 176744, Note_on_c, 15, 31, 0
20, 176760, Note_on_c, 15, 31, 92
20, 176864, Note_on_c, 15, 31, 0
20, 176880, Note_on_c, 15, 28, 92
20, 176984, Note_on_c, 15, 28, 0
20, 177000, Note_on_c, 15, 26, 92
20, 177104, Note_on_c, 15, 26, 0
20, 177120, Note_on_c, 15, 24, 92
20, 177239, Note_on_c, 15, 24, 0
20, 177840, Note_on_c, 15, 53, 92
20, 178004, Note_on_c, 15, 53, 0
20, 178020, Note_on_c, 15, 41, 92
20, 178064, Note_on_c, 15, 41, 0
20, 178080, Note_on_c, 15, 41, 92
20, 178184, Note_on_c, 15, 41, 0
20, 178200, Note_on_c, 15, 41, 92
20, 178304, Note_on_c, 15, 41, 0
20, 178320, Note_on_c, 15, 38, 92
20, 178424, Note_on_c, 15, 38, 0
20, 178440, Note_on_c, 15, 36, 92
20, 178544, Note_on_c, 15, 36, 0
20, 178558, Control_c, 15, 11, 87
20, 178560, Note_on_c, 15, 36, 68
20, 178784, Note_on_c, 15, 36, 0
20, 178800, Note_on_c, 15, 48, 68
20, 178904, Note_on_c, 15, 48, 0
20, 178920, Note_on_c, 15, 46, 68
20, 179280, Control_c, 15, 11, 87
20, 179310, Control_c, 15, 11, 88
20, 179340, Control_c, 15, 11, 89
20, 179370, Control_c, 15, 11, 90
20, 179400, Control_c, 15, 11, 91
20, 179430, Control_c, 15, 11, 93
20, 179460, Control_c, 15, 11, 94
20, 179490, Control_c, 15, 11, 95
20, 179520, Control_c, 15, 11, 96
20, 179550, Control_c, 15, 11, 97
20, 179580, Control_c, 15, 11, 98
20, 179610, Control_c, 15, 11, 99
20, 179640, Control_c, 15, 11, 100
20, 179670, Control_c, 15, 11, 101
20, 179700, Control_c, 15, 11, 103
20, 179730, Control_c, 15, 11, 104
20, 179759, Note_on_c, 15, 46, 0
20, 179760, Control_c, 15, 11, 105
20, 179760, Note_on_c, 15, 44, 68
20, 179790, Control_c, 15, 11, 106
20, 179820, Control_c, 15, 11, 107
20, 179850, Control_c, 15, 11, 108
20, 179879, Note_on_c, 15, 44, 0
20, 179880, Control_c, 15, 11, 109
20, 179880, Note_on_c, 15, 43, 68
20, 179910, Control_c, 15, 11, 110
20, 179940, Control_c, 15, 11, 111
20, 179970, Control_c, 15, 11, 113
20, 179984, Note_on_c, 15, 43, 0
20, 180000, Note_on_c, 15, 43, 68
20, 180000, Control_c, 15, 11, 114
20, 180030, Control_c, 15, 11, 115
20, 180060, Control_c, 15, 11, 116
20, 180090, Control_c, 15, 11, 117
20, 180120, Control_c, 15, 11, 118
20, 180150, Control_c, 15, 11, 119
20, 180180, Control_c, 15, 11, 120
20, 180210, Control_c, 15, 11, 121
20, 180240, Control_c, 15, 11, 123
20, 180270, Control_c, 15, 11, 124
20, 180300, Control_c, 15, 11, 125
20, 180330, Control_c, 15, 11, 126
20, 180344, Note_on_c, 15, 43, 0
20, 180360, Note_on_c, 15, 45, 68
20, 180360, Control_c, 15, 11, 127
20, 180390, Control_c, 15, 11, 124
20, 180420, Control_c, 15, 11, 120
20, 180450, Control_c, 15, 11, 117
20, 180480, Control_c, 15, 11, 114
20, 180510, Control_c, 15, 11, 110
20, 180540, Control_c, 15, 11, 107
20, 180570, Control_c, 15, 11, 104
20, 180600, Control_c, 15, 11, 100
20, 180630, Control_c, 15, 11, 97
20, 180660, Control_c, 15, 11, 94
20, 180690, Control_c, 15, 11, 90
20, 180719, Note_on_c, 15, 45, 0
20, 180720, Control_c, 15, 11, 87
20, 182520, Control_c, 15, 11, 127
20, 182880, Note_on_c, 15, 50, 80
20, 182969, Note_on_c, 15, 50, 0
20, 183000, Note_on_c, 15, 46, 80
20, 183089, Note_on_c, 15, 46, 0
20, 183120, Note_on_c, 15, 43, 80
20, 183209, Note_on_c, 15, 43, 0
20, 183240, Note_on_c, 15, 44, 80
20, 183329, Note_on_c, 15, 44, 0
20, 183360, Note_on_c, 15, 45, 80
20, 183449, Note_on_c, 15, 45, 0
20, 183480, Note_on_c, 15, 33, 80
20, 183569, Note_on_c, 15, 33, 0
20, 183600, Note_on_c, 15, 38, 80
20, 183689, Note_on_c, 15, 38, 0
20, 184320, Note_on_c, 15, 45, 80
20, 184409, Note_on_c, 15, 45, 0
20, 184440, Note_on_c, 15, 41, 80
20, 184529, Note_on_c, 15, 41, 0
20, 184560, Note_on_c, 15, 46, 80
20, 184649, Note_on_c, 15, 46, 0
20, 184680, Note_on_c, 15, 43, 80
20, 184769, Note_on_c, 15, 43, 0
20, 184800, Note_on_c, 15, 40, 80
20, 184889, Note_on_c, 15, 40, 0
20, 184920, Note_on_c, 15, 45, 80
20, 185009, Note_on_c, 15, 45, 0
20, 185040, Note_on_c, 15, 38, 80
20, 185159, Note_on_c, 15, 38, 0
20, 185400, Note_on_c, 15, 45, 80
20, 185564, Note_on_c, 15, 45, 0
20, 185580, Note_on_c, 15, 33, 80
20, 185624, Note_on_c, 15, 33, 0
20, 185640, Note_on_c, 15, 33, 80
20, 185744, Note_on_c, 15, 33, 0
20, 185760, Note_on_c, 15, 26, 80
20, 185879, Note_on_c, 15, 26, 0
20, 186120, Note_on_c, 15, 45, 80
20, 186284, Note_on_c, 15, 45, 0
20, 186300, Note_on_c, 15, 33, 80
20, 186344, Note_on_c, 15, 33, 0
20, 186360, Note_on_c, 15, 33, 80
20, 186464, Note_on_c, 15, 33, 0
20, 186480, Note_on_c, 15, 33, 32
20, 186584, Note_on_c, 15, 33, 0
20, 186600, Note_on_c, 15, 33, 32
20, 186704, Note_on_c, 15, 33, 0
20, 186720, Note_on_c, 15, 33, 32
20, 186824, Note_on_c, 15, 33, 0
20, 186840, Note_on_c, 15, 33, 32
20, 186944, Note_on_c, 15, 33, 0
20, 186960, Note_on_c, 15, 33, 32
20, 187064, Note_on_c, 15, 33, 0
20, 187080, Note_on_c, 15, 33, 32
20, 187184, Note_on_c, 15, 33, 0
20, 187200, Note_on_c, 15, 33, 32
20, 187304, Note_on_c, 15, 33, 0
20, 187320, Note_on_c, 15, 33, 32
20, 187424, Note_on_c, 15, 33, 0
20, 187440, Note_on_c, 15, 33, 32
20, 187544, Note_on_c, 15, 33, 0
20, 187560, Note_on_c, 15, 33, 32
20, 187664, Note_on_c, 15, 33, 0
20, 187680, Note_on_c, 15, 33, 32
20, 187784, Note_on_c, 15, 33, 0
20, 187800, Note_on_c, 15, 33, 32
20, 187904, Note_on_c, 15, 33, 0
20, 187920, Note_on_c, 15, 38, 32
20, 188084, Note_on_c, 15, 38, 0
20, 188100, Note_on_c, 15, 50, 32
20, 188144, Note_on_c, 15, 50, 0
20, 188160, Note_on_c, 15, 50, 32
20, 188264, Note_on_c, 15, 50, 0
20, 188280, Note_on_c, 15, 45, 32
20, 188399, Note_on_c, 15, 45, 0
20, 188640, Note_on_c, 15, 29, 32
20, 188804, Note_on_c, 15, 29, 0
20, 188820, Note_on_c, 15, 41, 32
20, 188864, Note_on_c, 15, 41, 0
20, 188880, Note_on_c, 15, 41, 32
20, 188984, Note_on_c, 15, 41, 0
20, 189000, Note_on_c, 15, 38, 32
20, 189119, Note_on_c, 15, 38, 0
20, 190800, Note_on_c, 15, 38, 32
20, 190964, Note_on_c, 15, 38, 0
20, 190980, Note_on_c, 15, 50, 32
20, 191024, Note_on_c, 15, 50, 0
20, 191040, Note_on_c, 15, 50, 32
20, 191144, Note_on_c, 15, 50, 0
20, 191160, Note_on_c, 15, 46, 32
20, 191279, Note_on_c, 15, 46, 0
20, 191520, Note_on_c, 15, 29, 32
20, 191684, Note_on_c, 15, 29, 0
20, 191700, Note_on_c, 15, 41, 32
20, 191744, Note_on_c, 15, 41, 0
20, 191760, Note_on_c, 15, 41, 32
20, 191864, Note_on_c, 15, 41, 0
20, 191880, Note_on_c, 15, 38, 32
20, 191999, Note_on_c, 15, 38, 0
20, 192240, Note_on_c, 15, 34, 32
20, 192404, Note_on_c, 15, 34, 0
20, 192420, Note_on_c, 15, 46, 32
20, 192464, Note_on_c, 15, 46, 0
20, 192480, Note_on_c, 15, 46, 32
20, 192584, Note_on_c, 15, 46, 0
20, 192600, Note_on_c, 15, 41, 32
20, 192719, Note_on_c, 15, 41, 0
20, 192960, Note_on_c, 15, 38, 32
20, 193124, Note_on_c, 15, 38, 0
20, 193140, Note_on_c, 15, 50, 32
20, 193184, Note_on_c, 15, 50, 0
20, 193200, Note_on_c, 15, 50, 32
20, 193304, Note_on_c, 15, 50, 0
20, 193320, Note_on_c, 15, 51, 32
20, 193439, Note_on_c, 15, 51, 0
20, 195120, Note_on_c, 15, 39, 32
20, 195284, Note_on_c, 15, 39, 0
20, 195300, Note_on_c, 15, 51, 34
20, 195344, Note_on_c, 15, 51, 0
20, 195360, Note_on_c, 15, 51, 34
20, 195464, Note_on_c, 15, 51, 0
20, 195480, Note_on_c, 15, 48, 36
20, 195599, Note_on_c, 15, 48, 0
20, 195840, Note_on_c, 15, 32, 40
20, 196004, Note_on_c, 15, 32, 0
20, 196020, Note_on_c, 15, 44, 42
20, 196064, Note_on_c, 15, 44, 0
20, 196080, Note_on_c, 15, 44, 42
20, 196184, Note_on_c, 15, 44, 0
20, 196200, Note_on_c, 15, 41, 44
20, 196319, Note_on_c, 15, 41, 0
20, 196560, Note_on_c, 15, 37, 48
20, 196724, Note_on_c, 15, 37, 0
20, 196740, Note_on_c, 15, 49, 50
20, 196784, Note_on_c, 15, 49, 0
20, 196800, Note_on_c, 15, 49, 50
20, 196904, Note_on_c, 15, 49, 0
20, 196920, Note_on_c, 15, 46, 52
20, 197039, Note_on_c, 15, 46, 0
20, 197280, Note_on_c, 15, 30, 56
20, 197444, Note_on_c, 15, 30, 0
20, 197460, Note_on_c, 15, 42, 58
20, 197504, Note_on_c, 15, 42, 0
20, 197520, Note_on_c, 15, 42, 58
20, 197624, Note_on_c, 15, 42, 0
20, 197640, Note_on_c, 15, 39, 60
20, 197759, Note_on_c, 15, 39, 0
20, 198000, Note_on_c, 15, 35, 64
20, 198164, Note_on_c, 15, 35, 0
20, 198180, Note_on_c, 15, 47, 66
20, 198224, Note_on_c, 15, 47, 0
20, 198240, Note_on_c, 15, 47, 66
20, 198344, Note_on_c, 15, 47, 0
20, 198360, Note_on_c, 15, 44, 68
20, 198479, Note_on_c, 15, 44, 0
20, 198720, Note_on_c, 15, 40, 72
20, 198884, Note_on_c, 15, 40, 0
20, 198900, Note_on_c, 15, 52, 74
20, 198944, Note_on_c, 15, 52, 0
20, 198960, Note_on_c, 15, 52, 74
20, 199064, Note_on_c, 15, 52, 0
20, 199080, Note_on_c, 15, 49, 76
20, 199199, Note_on_c, 15, 49, 0
20, 199440, Note_on_c, 15, 33, 80
20, 199604, Note_on_c, 15, 33, 0
20, 199620, Note_on_c, 15, 45, 80
20, 199664, Note_on_c, 15, 45, 0
20, 199680, Note_on_c, 15, 45, 80
20, 199784, Note_on_c, 15, 45, 0
20, 200160, Note_on_c, 15, 34, 92
20, 200324, Note_on_c, 15, 34, 0
20, 200340, Note_on_c, 15, 46, 92
20, 200384, Note_on_c, 15, 46, 0
20, 200400, Note_on_c, 15, 46, 92
20, 200504, Note_on_c, 15, 46, 0
20, 200880, Note_on_c, 15, 35, 92
20, 201044, Note_on_c, 15, 35, 0
20, 201060, Note_on_c, 15, 47, 92
20, 201104, Note_on_c, 15, 47, 0
20, 201120, Note_on_c, 15, 47, 92
20, 201224, Note_on_c, 15, 47, 0
20, 201960, Program_c, 15, 45
20, 202320, Note_on_c, 15, 40, 40
20, 202439, Note_on_c, 15, 40, 0
20, 202680, Note_on_c, 15, 35, 40
20, 202799, Note_on_c, 15, 35, 0
20, 203400, Note_on_c, 15, 40, 40
20, 203519, Note_on_c, 15, 40, 0
20, 203760, Note_on_c, 15, 35, 40
20, 203879, Note_on_c, 15, 35, 0
20, 204480, Note_on_c, 15, 40, 40
20, 204599, Note_on_c, 15, 40, 0
20, 204840, Note_on_c, 15, 35, 40
20, 204959, Note_on_c, 15, 35, 0
20, 205560, Note_on_c, 15, 52, 40
20, 205679, Note_on_c, 15, 52, 0
20, 205920, Note_on_c, 15, 40, 40
20, 206039, Note_on_c, 15, 40, 0
20, 206640, Note_on_c, 15, 45, 40
20, 206759, Note_on_c, 15, 45, 0
20, 207000, Note_on_c, 15, 40, 40
20, 207119, Note_on_c, 15, 40, 0
20, 207720, Note_on_c, 15, 45, 40
20, 207839, Note_on_c, 15, 45, 0
20, 208080, Note_on_c, 15, 40, 40
20, 208199, Note_on_c, 15, 40, 0
20, 208800, Note_on_c, 15, 53, 40
20, 208919, Note_on_c, 15, 53, 0
20, 209160, Note_on_c, 15, 41, 40
20, 209279, Note_on_c, 15, 41, 0
20, 209880, Note_on_c, 15, 53, 40
20, 209999, Note_on_c, 15, 53, 0
20, 210240, Note_on_c, 15, 41, 40
20, 210359, Note_on_c, 15, 41, 0
20, 210960, Note_on_c, 15, 53, 40
20, 211079, Note_on_c, 15, 53, 0
20, 211320, Note_on_c, 15, 41, 40
20, 211439, Note_on_c, 15, 41, 0
20, 212040, Note_on_c, 15, 53, 40
20, 212159, Note_on_c, 15, 53, 0
20, 212400, Note_on_c, 15, 41, 40
20, 212519, Note_on_c, 15, 41, 0
20, 212760, Note_on_c, 15, 41, 40
20, 212879, Note_on_c, 15, 41, 0
20, 213120, Note_on_c, 15, 29, 40
20, 213239, Note_on_c, 15, 29, 0
20, 213480, Note_on_c, 15, 41, 40
20, 213599, Note_on_c, 15, 41, 0
20, 213840, Note_on_c, 15, 48, 40
20, 213959, Note_on_c, 15, 48, 0
20, 214200, Note_on_c, 15, 36, 39
20, 214319, Note_on_c, 15, 36, 0
20, 214560, Note_on_c, 15, 48, 38
20, 214679, Note_on_c, 15, 48, 0
20, 214920, Note_on_c, 15, 50, 37
20, 215039, Note_on_c, 15, 50, 0
20, 215280, Note_on_c, 15, 38, 36
20, 215399, Note_on_c, 15, 38, 0
20, 215640, Note_on_c, 15, 50, 35
20, 215759, Note_on_c, 15, 50, 0
20, 216000, Note_on_c, 15, 45, 34
20, 216119, Note_on_c, 15, 45, 0
20, 216360, Note_on_c, 15, 33, 33
20, 216479, Note_on_c, 15, 33, 0
20, 216720, Note_on_c, 15, 45, 32
20, 216839, Note_on_c, 15, 45, 0
20, 217080, Note_on_c, 15, 45, 31
20, 217199, Note_on_c, 15, 45, 0
20, 217440, Note_on_c, 15, 33, 30
20, 217559, Note_on_c, 15, 33, 0
20, 217800, Note_on_c, 15, 45, 29
20, 217919, Note_on_c, 15, 45, 0
20, 218160, Note_on_c, 15, 45, 28
20, 218279, Note_on_c, 15, 45, 0
20, 218520, Note_on_c, 15, 33, 28
20, 218639, Note_on_c, 15, 33, 0
20, 218880, Note_on_c, 15, 45, 28
20, 218999, Note_on_c, 15, 45, 0
20, 219240, Note_on_c, 15, 43, 28
20, 219359, Note_on_c, 15, 43, 0
20, 219360, Note_on_c, 15, 41, 28
20, 219479, Note_on_c, 15, 41, 0
20, 219480, Note_on_c, 15, 40, 28
20, 219599, Note_on_c, 15, 40, 0
20, 219600, Note_on_c, 15, 38, 28
20, 219719, Note_on_c, 15, 38, 0
20, 219960, Note_on_c, 15, 33, 28
20, 220079, Note_on_c, 15, 33, 0
20, 220680, Note_on_c, 15, 38, 28
20, 220799, Note_on_c, 15, 38, 0
20, 221040, Note_on_c, 15, 33, 28
20, 221159, Note_on_c, 15, 33, 0
20, 221760, Note_on_c, 15, 38, 28
20, 221879, Note_on_c, 15, 38, 0
20, 222120, Note_on_c, 15, 33, 28
20, 222239, Note_on_c, 15, 33, 0
20, 222360, Program_c, 15, 48
20, 222480, Note_on_c, 15, 45, 32
20, 222644, Note_on_c, 15, 45, 0
20, 222660, Note_on_c, 15, 33, 32
20, 222704, Note_on_c, 15, 33, 0
20, 222720, Note_on_c, 15, 33, 32
20, 222824, Note_on_c, 15, 33, 0
20, 222840, Note_on_c, 15, 38, 32
20, 222944, Note_on_c, 15, 38, 0
20, 222960, Note_on_c, 15, 40, 32
20, 223064, Note_on_c, 15, 40, 0
20, 223080, Note_on_c, 15, 41, 32
20, 223184, Note_on_c, 15, 41, 0
20, 223200, Note_on_c, 15, 40, 32
20, 223304, Note_on_c, 15, 40, 0
20, 223320, Note_on_c, 15, 41, 32
20, 223424, Note_on_c, 15, 41, 0
20, 223440, Note_on_c, 15, 43, 32
20, 223544, Note_on_c, 15, 43, 0
20, 223560, Note_on_c, 15, 41, 32
20, 223664, Note_on_c, 15, 41, 0
20, 223680, Note_on_c, 15, 40, 32
20, 223784, Note_on_c, 15, 40, 0
20, 223800, Note_on_c, 15, 38, 32
20, 223904, Note_on_c, 15, 38, 0
20, 223920, Note_on_c, 15, 35, 32
20, 224024, Note_on_c, 15, 35, 0
20, 224040, Note_on_c, 15, 36, 32
20, 224144, Note_on_c, 15, 36, 0
20, 224160, Note_on_c, 15, 38, 32
20, 224264, Note_on_c, 15, 38, 0
20, 224280, Note_on_c, 15, 36, 32
20, 224384, Note_on_c, 15, 36, 0
20, 224400, Note_on_c, 15, 35, 32
20, 224504, Note_on_c, 15, 35, 0
20, 224520, Note_on_c, 15, 36, 32
20, 224624, Note_on_c, 15, 36, 0
20, 224640, Note_on_c, 15, 35, 32
20, 224744, Note_on_c, 15, 35, 0
20, 224760, Note_on_c, 15, 36, 32
20, 224864, Note_on_c, 15, 36, 0
20, 224880, Note_on_c, 15, 38, 32
20, 224984, Note_on_c, 15, 38, 0
20, 225000, Note_on_c, 15, 36, 32
20, 225104, Note_on_c, 15, 36, 0
20, 225120, Note_on_c, 15, 36, 32
20, 225224, Note_on_c, 15, 36, 0
20, 225240, Note_on_c, 15, 36, 32
20, 225344, Note_on_c, 15, 36, 0
20, 225360, Note_on_c, 15, 46, 32
20, 225524, Note_on_c, 15, 46, 0
20, 225540, Note_on_c, 15, 34, 32
20, 225584, Note_on_c, 15, 34, 0
20, 225600, Note_on_c, 15, 34, 32
20, 225704, Note_on_c, 15, 34, 0
20, 225720, Note_on_c, 15, 39, 32
20, 225824, Note_on_c, 15, 39, 0
20, 225840, Note_on_c, 15, 41, 32
20, 225944, Note_on_c, 15, 41, 0
20, 225960, Note_on_c, 15, 43, 32
20, 226064, Note_on_c, 15, 43, 0
20, 226080, Note_on_c, 15, 41, 32
20, 226184, Note_on_c, 15, 41, 0
20, 226200, Note_on_c, 15, 43, 32
20, 226304, Note_on_c, 15, 43, 0
20, 226320, Note_on_c, 15, 44, 32
20, 226424, Note_on_c, 15, 44, 0
20, 226440, Note_on_c, 15, 43, 32
20, 226544, Note_on_c, 15, 43, 0
20, 226560, Note_on_c, 15, 41, 32
20, 226664, Note_on_c, 15, 41, 0
20, 226680, Note_on_c, 15, 39, 32
20, 226784, Note_on_c, 15, 39, 0
20, 226800, Note_on_c, 15, 38, 32
20, 226904, Note_on_c, 15, 38, 0
20, 226920, Note_on_c, 15, 36, 32
20, 227024, Note_on_c, 15, 36, 0
20, 227040, Note_on_c, 15, 34, 32
20, 227144, Note_on_c, 15, 34, 0
20, 227160, Note_on_c, 15, 34, 32
20, 227264, Note_on_c, 15, 34, 0
20, 227280, Note_on_c, 15, 34, 32
20, 227384, Note_on_c, 15, 34, 0
20, 227400, Note_on_c, 15, 34, 32
20, 227504, Note_on_c, 15, 34, 0
20, 227518, Control_c, 15, 11, 47
20, 227520, Note_on_c, 15, 34, 80
20, 228959, Note_on_c, 15, 34, 0
20, 228960, Note_on_c, 15, 34, 80
20, 230399, Note_on_c, 15, 34, 0
20, 230400, Note_on_c, 15, 34, 80
20, 230400, Control_c, 15, 11, 47
20, 230472, Control_c, 15, 11, 48
20, 230544, Control_c, 15, 11, 49
20, 230616, Control_c, 15, 11, 50
20, 230688, Control_c, 15, 11, 51
20, 230760, Control_c, 15, 11, 52
20, 230832, Control_c, 15, 11, 53
20, 230904, Control_c, 15, 11, 54
20, 230976, Control_c, 15, 11, 55
20, 231048, Control_c, 15, 11, 56
20, 231120, Control_c, 15, 11, 57
20, 231192, Control_c, 15, 11, 58
20, 231264, Control_c, 15, 11, 59
20, 231336, Control_c, 15, 11, 60
20, 231408, Control_c, 15, 11, 61
20, 231480, Control_c, 15, 11, 62
20, 231552, Control_c, 15, 11, 63
20, 231624, Control_c, 15, 11, 64
20, 231696, Control_c, 15, 11, 65
20, 231768, Control_c, 15, 11, 66
20, 231824, Note_on_c, 15, 34, 0
20, 231840, Control_c, 15, 11, 67
20, 231840, Note_on_c, 15, 33, 80
20, 231870, Control_c, 15, 11, 68
20, 231900, Control_c, 15, 11, 70
20, 231930, Control_c, 15, 11, 71
20, 231960, Control_c, 15, 11, 72
20, 231990, Control_c, 15, 11, 73
20, 232020, Control_c, 15, 11, 75
20, 232050, Control_c, 15, 11, 76
20, 232080, Control_c, 15, 11, 77
20, 232110, Control_c, 15, 11, 78
20, 232140, Control_c, 15, 11, 80
20, 232170, Control_c, 15, 11, 81
20, 232200, Control_c, 15, 11, 82
20, 232230, Control_c, 15, 11, 83
20, 232260, Control_c, 15, 11, 85
20, 232290, Control_c, 15, 11, 86
20, 232320, Control_c, 15, 11, 87
20, 232350, Control_c, 15, 11, 88
20, 232380, Control_c, 15, 11, 90
20, 232410, Control_c, 15, 11, 91
20, 232440, Control_c, 15, 11, 92
20, 232470, Control_c, 15, 11, 93
20, 232500, Control_c, 15, 11, 95
20, 232530, Control_c, 15, 11, 96
20, 232560, Control_c, 15, 11, 97
20, 232590, Control_c, 15, 11, 98
20, 232620, Control_c, 15, 11, 100
20, 232650, Control_c, 15, 11, 101
20, 232680, Control_c, 15, 11, 102
20, 232710, Control_c, 15, 11, 103
20, 232740, Control_c, 15, 11, 105
20, 232770, Control_c, 15, 11, 106
20, 232800, Control_c, 15, 11, 107
20, 232830, Control_c, 15, 11, 108
20, 232860, Control_c, 15, 11, 110
20, 232890, Control_c, 15, 11, 111
20, 232920, Control_c, 15, 11, 112
20, 232950, Control_c, 15, 11, 113
20, 232980, Control_c, 15, 11, 115
20, 233010, Control_c, 15, 11, 116
20, 233040, Control_c, 15, 11, 117
20, 233070, Control_c, 15, 11, 118
20, 233100, Control_c, 15, 11, 120
20, 233130, Control_c, 15, 11, 121
20, 233160, Control_c, 15, 11, 122
20, 233190, Control_c, 15, 11, 123
20, 233220, Control_c, 15, 11, 125
20, 233250, Control_c, 15, 11, 127
20, 233264, Note_on_c, 15, 33, 0
20, 233280, Note_on_c, 15, 33, 80
20, 233399, Note_on_c, 15, 33, 0
20, 234000, Note_on_c, 15, 33, 86
20, 234119, Note_on_c, 15, 33, 0
20, 234720, Note_on_c, 15, 26, 92
20, 234884, Note_on_c, 15, 26, 0
20, 234900, Note_on_c, 15, 38, 92
20, 234944, Note_on_c, 15, 38, 0
20, 234960, Note_on_c, 15, 38, 92
20, 235064, Note_on_c, 15, 38, 0
20, 235080, Note_on_c, 15, 26, 92
20, 235244, Note_on_c, 15, 26, 0
20, 235260, Note_on_c, 15, 38, 92
20, 235304, Note_on_c, 15, 38, 0
20, 235320, Note_on_c, 15, 38, 92
20, 235424, Note_on_c, 15, 38, 0
20, 235440, Note_on_c, 15, 26, 92
20, 235604, Note_on_c, 15, 26, 0
20, 235620, Note_on_c, 15, 38, 92
20, 235664, Note_on_c, 15, 38, 0
20, 235680, Note_on_c, 15, 38, 92
20, 235784, Note_on_c, 15, 38, 0
20, 235800, Note_on_c, 15, 26, 92
20, 235964, Note_on_c, 15, 26, 0
20, 235980, Note_on_c, 15, 38, 92
20, 236024, Note_on_c, 15, 38, 0
20, 236040, Note_on_c, 15, 38, 92
20, 236144, Note_on_c, 15, 38, 0
20, 236160, Note_on_c, 15, 26, 92
20, 236324, Note_on_c, 15, 26, 0
20, 236340, Note_on_c, 15, 38, 92
20, 236384, Note_on_c, 15, 38, 0
20, 236400, Note_on_c, 15, 38, 92
20, 236504, Note_on_c, 15, 38, 0
20, 236520, Note_on_c, 15, 26, 92
20, 236684, Note_on_c, 15, 26, 0
20, 236700, Note_on_c, 15, 38, 92
20, 236744, Note_on_c, 15, 38, 0
20, 236760, Note_on_c, 15, 38, 92
20, 236864, Note_on_c, 15, 38, 0
20, 236880, Note_on_c, 15, 26, 92
20, 237044, Note_on_c, 15, 26, 0
20, 237060, Note_on_c, 15, 38, 92
20, 237104, Note_on_c, 15, 38, 0
20, 237120, Note_on_c, 15, 38, 92
20, 237224, Note_on_c, 15, 38, 0
20, 237240, Note_on_c, 15, 26, 92
20, 237404, Note_on_c, 15, 26, 0
20, 237420, Note_on_c, 15, 38, 92
20, 237464, Note_on_c, 15, 38, 0
20, 237480, Note_on_c, 15, 38, 92
20, 237584, Note_on_c, 15, 38, 0
20, 237600, Note_on_c, 15, 26, 92
20, 237764, Note_on_c, 15, 26, 0
20, 237780, Note_on_c, 15, 38, 92
20, 237824, Note_on_c, 15, 38, 0
20, 237840, Note_on_c, 15, 38, 92
20, 237944, Note_on_c, 15, 38, 0
20, 237960, Note_on_c, 15, 26, 92
20, 238124, Note_on_c, 15, 26, 0
20, 238140, Note_on_c, 15, 38, 92
20, 238184, Note_on_c, 15, 38, 0
20, 238200, Note_on_c, 15, 38, 92
20, 238304, Note_on_c, 15, 38, 0
20, 238320, Note_on_c, 15, 26, 92
20, 238484, Note_on_c, 15, 26, 0
20, 238500, Note_on_c, 15, 38, 92
20, 238544, Note_on_c, 15, 38, 0
20, 238560, Note_on_c, 15, 38, 92
20, 238664, Note_on_c, 15, 38, 0
20, 238680, Note_on_c, 15, 26, 92
20, 238844, Note_on_c, 15, 26, 0
20, 238860, Note_on_c, 15, 38, 92
20, 238904, Note_on_c, 15, 38, 0
20, 238920, Note_on_c, 15, 38, 92
20, 239024, Note_on_c, 15, 38, 0
20, 239040, Note_on_c, 15, 26, 92
20, 239204, Note_on_c, 15, 26, 0
20, 239220, Note_on_c, 15, 38, 92
20, 239264, Note_on_c, 15, 38, 0
20, 239280, Note_on_c, 15, 38, 92
20, 239384, Note_on_c, 15, 38, 0
20, 239400, Note_on_c, 15, 26, 92
20, 239564, Note_on_c, 15, 26, 0
20, 239580, Note_on_c, 15, 38, 92
20, 239624, Note_on_c, 15, 38, 0
20, 239640, Note_on_c, 15, 38, 92
20, 239744, Note_on_c, 15, 38, 0
20, 239760, Note_on_c, 15, 26, 92
20, 239924, Note_on_c, 15, 26, 0
20, 239940, Note_on_c, 15, 38, 92
20, 239984, Note_on_c, 15, 38, 0
20, 240000, Note_on_c, 15, 38, 92
20, 240104, Note_on_c, 15, 38, 0
20, 240120, Note_on_c, 15, 26, 92
20, 240284, Note_on_c, 15, 26, 0
20, 240300, Note_on_c, 15, 38, 92
20, 240344, Note_on_c, 15, 38, 0
20, 240360, Note_on_c, 15, 38, 92
20, 240464, Note_on_c, 15, 38, 0
20, 240480, Note_on_c, 15, 51, 92
20, 240569, Note_on_c, 15, 51, 0
20, 240600, Note_on_c, 15, 50, 92
20, 240689, Note_on_c, 15, 50, 0
20, 240720, Note_on_c, 15, 48, 92
20, 240809, Note_on_c, 15, 48, 0
20, 240840, Note_on_c, 15, 46, 92
20, 240929, Note_on_c, 15, 46, 0
20, 240960, Note_on_c, 15, 45, 92
20, 241049, Note_on_c, 15, 45, 0
20, 241080, Note_on_c, 15, 43, 92
20, 241169, Note_on_c, 15, 43, 0
20, 241200, Note_on_c, 15, 42, 92
20, 241289, Note_on_c, 15, 42, 0
20, 241320, Note_on_c, 15, 43, 92
20, 241409, Note_on_c, 15, 43, 0
20, 241440, Note_on_c, 15, 45, 92
20, 241529, Note_on_c, 15, 45, 0
20, 241560, Note_on_c, 15, 43, 92
20, 241649, Note_on_c, 15, 43, 0
20, 241680, Note_on_c, 15, 45, 92
20, 241769, Note_on_c, 15, 45, 0
20, 241800, Note_on_c, 15, 46, 92
20, 241889, Note_on_c, 15, 46, 0
20, 241920, Note_on_c, 15, 51, 80
20, 242009, Note_on_c, 15, 51, 0
20, 242040, Note_on_c, 15, 50, 80
20, 242129, Note_on_c, 15, 50, 0
20, 242160, Note_on_c, 15, 48, 80
20, 242249, Note_on_c, 15, 48, 0
20, 242280, Note_on_c, 15, 46, 80
20, 242369, Note_on_c, 15, 46, 0
20, 242400, Note_on_c, 15, 45, 80
20, 242489, Note_on_c, 15, 45, 0
20, 242520, Note_on_c, 15, 43, 80
20, 242609, Note_on_c, 15, 43, 0
20, 242640, Note_on_c, 15, 53, 80
20, 242729, Note_on_c, 15, 53, 0
20, 242760, Note_on_c, 15, 51, 80
20, 242849, Note_on_c, 15, 51, 0
20, 242880, Note_on_c, 15, 50, 80
20, 242969, Note_on_c, 15, 50, 0
20, 243000, Note_on_c, 15, 48, 80
20, 243089, Note_on_c, 15, 48, 0
20, 243120, Note_on_c, 15, 46, 80
20, 243209, Note_on_c, 15, 46, 0
20, 243240, Note_on_c, 15, 45, 80
20, 243329, Note_on_c, 15, 45, 0
20, 243360, Note_on_c, 15, 55, 80
20, 243449, Note_on_c, 15, 55, 0
20, 243480, Note_on_c, 15, 53, 80
20, 243569, Note_on_c, 15, 53, 0
20, 243600, Note_on_c, 15, 51, 80
20, 243689, Note_on_c, 15, 51, 0
20, 243720, Note_on_c, 15, 50, 80
20, 243809, Note_on_c, 15, 50, 0
20, 243840, Note_on_c, 15, 48, 80
20, 243929, Note_on_c, 15, 48, 0
20, 243960, Note_on_c, 15, 46, 80
20, 244049, Note_on_c, 15, 46, 0
20, 244080, Note_on_c, 15, 45, 80
20, 244169, Note_on_c, 15, 45, 0
20, 244200, Note_on_c, 15, 43, 80
20, 244289, Note_on_c, 15, 43, 0
20, 244320, Note_on_c, 15, 41, 80
20, 244409, Note_on_c, 15, 41, 0
20, 244440, Note_on_c, 15, 39, 80
20, 244529, Note_on_c, 15, 39, 0
20, 244560, Note_on_c, 15, 38, 80
20, 244649, Note_on_c, 15, 38, 0
20, 244680, Note_on_c, 15, 36, 80
20, 244769, Note_on_c, 15, 36, 0
20, 244800, Note_on_c, 15, 34, 80
20, 244889, Note_on_c, 15, 34, 0
20, 245040, Program_c, 15, 45
20, 245160, Note_on_c, 15, 46, 40
20, 245279, Note_on_c, 15, 46, 0
20, 245520, Note_on_c, 15, 39, 40
20, 245639, Note_on_c, 15, 39, 0
20, 245880, Note_on_c, 15, 36, 40
20, 245999, Note_on_c, 15, 36, 0
20, 246240, Note_on_c, 15, 41, 40
20, 246359, Note_on_c, 15, 41, 0
20, 246600, Note_on_c, 15, 34, 40
20, 246719, Note_on_c, 15, 34, 0
20, 246960, Note_on_c, 15, 41, 40
20, 247079, Note_on_c, 15, 41, 0
20, 247320, Note_on_c, 15, 29, 40
20, 247439, Note_on_c, 15, 29, 0
20, 251280, Note_on_c, 15, 45, 40
20, 251399, Note_on_c, 15, 45, 0
20, 251640, Note_on_c, 15, 33, 40
20, 251759, Note_on_c, 15, 33, 0
20, 252000, Note_on_c, 15, 45, 45
20, 252119, Note_on_c, 15, 45, 0
20, 252360, Note_on_c, 15, 33, 51
20, 252479, Note_on_c, 15, 33, 0
20, 252720, Note_on_c, 15, 45, 56
20, 252839, Note_on_c, 15, 45, 0
20, 253080, Note_on_c, 15, 33, 62
20, 253199, Note_on_c, 15, 33, 0
20, 253440, Note_on_c, 15, 45, 55
20, 253559, Note_on_c, 15, 45, 0
20, 253800, Note_on_c, 15, 33, 48
20, 253919, Note_on_c, 15, 33, 0
20, 254400, Note_on_c, 15, 45, 43
20, 254519, Note_on_c, 15, 45, 0
20, 254760, Note_on_c, 15, 45, 49
20, 254879, Note_on_c, 15, 45, 0
20, 255120, Note_on_c, 15, 45, 55
20, 255239, Note_on_c, 15, 45, 0
20, 255480, Note_on_c, 15, 43, 61
20, 255599, Note_on_c, 15, 43, 0
20, 255840, Note_on_c, 15, 43, 66
20, 255959, Note_on_c, 15, 43, 0
20, 256200, Note_on_c, 15, 42, 72
20, 256319, Note_on_c, 15, 42, 0
20, 256560, Note_on_c, 15, 41, 78
20, 256679, Note_on_c, 15, 41, 0
20, 256920, Note_on_c, 15, 40, 84
20, 257024, Note_on_c, 15, 40, 0
20, 257038, Program_c, 15, 48
20, 257040, Note_on_c, 15, 50, 92
20, 257204, Note_on_c, 15, 50, 0
20, 257220, Note_on_c, 15, 38, 92
20, 257264, Note_on_c, 15, 38, 0
20, 257280, Note_on_c, 15, 38, 92
20, 257384, Note_on_c, 15, 38, 0
20, 257400, Note_on_c, 15, 50, 92
20, 257564, Note_on_c, 15, 50, 0
20, 257580, Note_on_c, 15, 38, 92
20, 257624, Note_on_c, 15, 38, 0
20, 257640, Note_on_c, 15, 38, 92
20, 257744, Note_on_c, 15, 38, 0
20, 257760, Note_on_c, 15, 50, 92
20, 257924, Note_on_c, 15, 50, 0
20, 257940, Note_on_c, 15, 38, 92
20, 257984, Note_on_c, 15, 38, 0
20, 258000, Note_on_c, 15, 38, 92
20, 258104, Note_on_c, 15, 38, 0
20, 258120, Note_on_c, 15, 50, 92
20, 258284, Note_on_c, 15, 50, 0
20, 258300, Note_on_c, 15, 38, 92
20, 258344, Note_on_c, 15, 38, 0
20, 258360, Note_on_c, 15, 38, 92
20, 258464, Note_on_c, 15, 38, 0
20, 258480, Note_on_c, 15, 50, 92
20, 258644, Note_on_c, 15, 50, 0
20, 258660, Note_on_c, 15, 38, 92
20, 258704, Note_on_c, 15, 38, 0
20, 258720, Note_on_c, 15, 38, 92
20, 258824, Note_on_c, 15, 38, 0
20, 258840, Note_on_c, 15, 50, 92
20, 259004, Note_on_c, 15, 50, 0
20, 259020, Note_on_c, 15, 38, 92
20, 259064, Note_on_c, 15, 38, 0
20, 259080, Note_on_c, 15, 38, 92
20, 259184, Note_on_c, 15, 38, 0
20, 259200, Note_on_c, 15, 50, 92
20, 259364, Note_on_c, 15, 50, 0
20, 259380, Note_on_c, 15, 38, 92
20, 259424, Note_on_c, 15, 38, 0
20, 259440, Note_on_c, 15, 38, 92
20, 259544, Note_on_c, 15, 38, 0
20, 259560, Note_on_c, 15, 50, 92
20, 259724, Note_on_c, 15, 50, 0
20, 259740, Note_on_c, 15, 38, 92
20, 259784, Note_on_c, 15, 38, 0
20, 259800, Note_on_c, 15, 38, 92
20, 259904, Note_on_c, 15, 38, 0
20, 259920, Note_on_c, 15, 50, 92
20, 260084, Note_on_c, 15, 50, 0
20, 260100, Note_on_c, 15, 38, 92
20, 260144, Note_on_c, 15, 38, 0
20, 260160, Note_on_c, 15, 38, 92
20, 260264, Note_on_c, 15, 38, 0
20, 260280, Note_on_c, 15, 50, 92
20, 260444, Note_on_c, 15, 50, 0
20, 260460, Note_on_c, 15, 38, 92
20, 260504, Note_on_c, 15, 38, 0
20, 260520, Note_on_c, 15, 38, 92
20, 260624, Note_on_c, 15, 38, 0
20, 260640, Note_on_c, 15, 50, 92
20, 260804, Note_on_c, 15, 50, 0
20, 260820, Note_on_c, 15, 38, 92
20, 260864, Note_on_c, 15, 38, 0
20, 260880, Note_on_c, 15, 38, 92
20, 260984, Note_on_c, 15, 38, 0
20, 261000, Note_on_c, 15, 50, 92
20, 261164, Note_on_c, 15, 50, 0
20, 261180, Note_on_c, 15, 38, 92
20, 261224, Note_on_c, 15, 38, 0
20, 261240, Note_on_c, 15, 38, 92
20, 261344, Note_on_c, 15, 38, 0
20, 261360, Note_on_c, 15, 50, 92
20, 261524, Note_on_c, 15, 50, 0
20, 261540, Note_on_c, 15, 38, 92
20, 261584, Note_on_c, 15, 38, 0
20, 261600, Note_on_c, 15, 38, 92
20, 261704, Note_on_c, 15, 38, 0
20, 261720, Note_on_c, 15, 50, 92
20, 261884, Note_on_c, 15, 50, 0
20, 261900, Note_on_c, 15, 38, 92
20, 261944, Note_on_c, 15, 38, 0
20, 261960, Note_on_c, 15, 38, 92
20, 262064, Note_on_c, 15, 38, 0
20, 262080, Note_on_c, 15, 50, 92
20, 262244, Note_on_c, 15, 50, 0
20, 262260, Note_on_c, 15, 38, 92
20, 262304, Note_on_c, 15, 38, 0
20, 262320, Note_on_c, 15, 38, 92
20, 262424, Note_on_c, 15, 38, 0
20, 262440, Note_on_c, 15, 50, 92
20, 262604, Note_on_c, 15, 50, 0
20, 262620, Note_on_c, 15, 38, 92
20, 262664, Note_on_c, 15, 38, 0
20, 262680, Note_on_c, 15, 38, 92
20, 262784, Note_on_c, 15, 38, 0
20, 262800, Note_on_c, 15, 50, 92
20, 262919, Note_on_c, 15, 50, 0
20, 263520, Note_on_c, 15, 43, 92
20, 263684, Note_on_c, 15, 43, 0
20, 263700, Note_on_c, 15, 31, 92
20, 263744, Note_on_c, 15, 31, 0
20, 263760, Note_on_c, 15, 31, 92
20, 263864, Note_on_c, 15, 31, 0
20, 263880, Note_on_c, 15, 31, 92
20, 263984, Note_on_c, 15, 31, 0
20, 264000, Note_on_c, 15, 28, 92
20, 264104, Note_on_c, 15, 28, 0
20, 264120, Note_on_c, 15, 26, 92
20, 264224, Note_on_c, 15, 26, 0
20, 264240, Note_on_c, 15, 24, 92
20, 264359, Note_on_c, 15, 24, 0
20, 264960, Note_on_c, 15, 53, 92
20, 265124, Note_on_c, 15, 53, 0
20, 265140, Note_on_c, 15, 41, 92
20, 265184, Note_on_c, 15, 41, 0
20, 265200, Note_on_c, 15, 41, 92
20, 265304, Note_on_c, 15, 41, 0
20, 265320, Note_on_c, 15, 41, 92
20, 265424, Note_on_c, 15, 41, 0
20, 265440, Note_on_c, 15, 38, 92
20, 265544, Note_on_c, 15, 38, 0
20, 265560, Note_on_c, 15, 36, 92
20, 265664, Note_on_c, 15, 36, 0
20, 265678, Control_c, 15, 11, 87
20, 265680, Note_on_c, 15, 36, 68
20, 265904, Note_on_c, 15, 36, 0
20, 265920, Note_on_c, 15, 48, 68
20, 266024, Note_on_c, 15, 48, 0
20, 266040, Note_on_c, 15, 46, 68
20, 266400, Control_c, 15, 11, 87
20, 266430, Control_c, 15, 11, 88
20, 266460, Control_c, 15, 11, 89
20, 266490, Control_c, 15, 11, 90
20, 266520, Control_c, 15, 11, 91
20, 266550, Control_c, 15, 11, 93
20, 266580, Control_c, 15, 11, 94
20, 266610, Control_c, 15, 11, 95
20, 266640, Control_c, 15, 11, 96
20, 266670, Control_c, 15, 11, 97
20, 266700, Control_c, 15, 11, 98
20, 266730, Control_c, 15, 11, 99
20, 266760, Control_c, 15, 11, 100
20, 266790, Control_c, 15, 11, 101
20, 266820, Control_c, 15, 11, 103
20, 266850, Control_c, 15, 11, 104
20, 266879, Note_on_c, 15, 46, 0
20, 266880, Control_c, 15, 11, 105
20, 266880, Note_on_c, 15, 44, 68
20, 266910, Control_c, 15, 11, 106
20, 266940, Control_c, 15, 11, 107
20, 266970, Control_c, 15, 11, 108
20, 266999, Note_on_c, 15, 44, 0
20, 267000, Control_c, 15, 11, 109
20, 267000, Note_on_c, 15, 43, 68
20, 267030, Control_c, 15, 11, 110
20, 267060, Control_c, 15, 11, 111
20, 267090, Control_c, 15, 11, 113
20, 267104, Note_on_c, 15, 43, 0
20, 267120, Note_on_c, 15, 43, 68
20, 267120, Control_c, 15, 11, 114
20, 267150, Control_c, 15, 11, 115
20, 267180, Control_c, 15, 11, 116
20, 267210, Control_c, 15, 11, 117
20, 267240, Control_c, 15, 11, 118
20, 267270, Control_c, 15, 11, 119
20, 267300, Control_c, 15, 11, 120
20, 267330, Control_c, 15, 11, 121
20, 267360, Control_c, 15, 11, 123
20, 267390, Control_c, 15, 11, 124
20, 267420, Control_c, 15, 11, 125
20, 267450, Control_c, 15, 11, 126
20, 267464, Note_on_c, 15, 43, 0
20, 267480, Note_on_c, 15, 45, 68
20, 267480, Control_c, 15, 11, 127
20, 267510, Control_c, 15, 11, 124
20, 267540, Control_c, 15, 11, 120
20, 267570, Control_c, 15, 11, 117
20, 267600, Control_c, 15, 11, 114
20, 267630, Control_c, 15, 11, 110
20, 267660, Control_c, 15, 11, 107
20, 267690, Control_c, 15, 11, 104
20, 267720, Control_c, 15, 11, 100
20, 267750, Control_c, 15, 11, 97
20, 267780, Control_c, 15, 11, 94
20, 267810, Control_c, 15, 11, 90
20, 267839, Note_on_c, 15, 45, 0
20, 267840, Control_c, 15, 11, 87
20, 269640, Control_c, 15, 11, 127
20, 270000, Note_on_c, 15, 50, 80
20, 270089, Note_on_c, 15, 50, 0
20, 270120, Note_on_c, 15, 46, 80
20, 270209, Note_on_c, 15, 46, 0
20, 270240, Note_on_c, 15, 43, 80
20, 270329, Note_on_c, 15, 43, 0
20, 270360, Note_on_c, 15, 44, 80
20, 270449, Note_on_c, 15, 44, 0
20, 270480, Note_on_c, 15, 45, 80
20, 270569, Note_on_c, 15, 45, 0
20, 270600, Note_on_c, 15, 33, 80
20, 270689, Note_on_c, 15, 33, 0
20, 270720, Note_on_c, 15, 38, 80
20, 270809, Note_on_c, 15, 38, 0
20, 271440, Note_on_c, 15, 45, 80
20, 271529, Note_on_c, 15, 45, 0
20, 271560, Note_on_c, 15, 41, 80
20, 271649, Note_on_c, 15, 41, 0
20, 271680, Note_on_c, 15, 46, 80
20, 271769, Note_on_c, 15, 46, 0
20, 271800, Note_on_c, 15, 43, 80
20, 271889, Note_on_c, 15, 43, 0
20, 271920, Note_on_c, 15, 40, 80
20, 272009, Note_on_c, 15, 40, 0
20, 272040, Note_on_c, 15, 45, 80
20, 272129, Note_on_c, 15, 45, 0
20, 272160, Note_on_c, 15, 38, 80
20, 272279, Note_on_c, 15, 38, 0
20, 272520, Note_on_c, 15, 45, 80
20, 272684, Note_on_c, 15, 45, 0
20, 272700, Note_on_c, 15, 33, 80
20, 272744, Note_on_c, 15, 33, 0
20, 272760, Note_on_c, 15, 33, 80
20, 272864, Note_on_c, 15, 33, 0
20, 272880, Note_on_c, 15, 26, 80
20, 272999, Note_on_c, 15, 26, 0
20, 273240, Note_on_c, 15, 45, 80
20, 273404, Note_on_c, 15, 45, 0
20, 273420, Note_on_c, 15, 33, 80
20, 273464, Note_on_c, 15, 33, 0
20, 273480, Note_on_c, 15, 33, 80
20, 273584, Note_on_c, 15, 33, 0
20, 273600, Note_on_c, 15, 33, 32
20, 273704, Note_on_c, 15, 33, 0
20, 273720, Note_on_c, 15, 33, 32
20, 273824, Note_on_c, 15, 33, 0
20, 273840, Note_on_c, 15, 33, 32
20, 273944, Note_on_c, 15, 33, 0
20, 273960, Note_on_c, 15, 33, 32
20, 274064, Note_on_c, 15, 33, 0
20, 274080, Note_on_c, 15, 33, 32
20, 274184, Note_on_c, 15, 33, 0
20, 274200, Note_on_c, 15, 33, 32
20, 274304, Note_on_c, 15, 33, 0
20, 274320, Note_on_c, 15, 33, 32
20, 274424, Note_on_c, 15, 33, 0
20, 274440, Note_on_c, 15, 33, 32
20, 274544, Note_on_c, 15, 33, 0
20, 274560, Note_on_c, 15, 33, 32
20, 274664, Note_on_c, 15, 33, 0
20, 274680, Note_on_c, 15, 33, 32
20, 274784, Note_on_c, 15, 33, 0
20, 274800, Note_on_c, 15, 33, 32
20, 274904, Note_on_c, 15, 33, 0
20, 274920, Note_on_c, 15, 33, 32
20, 275024, Note_on_c, 15, 33, 0
20, 275040, Note_on_c, 15, 38, 32
20, 275204, Note_on_c, 15, 38, 0
20, 275220, Note_on_c, 15, 50, 32
20, 275264, Note_on_c, 15, 50, 0
20, 275280, Note_on_c, 15, 50, 32
20, 275384, Note_on_c, 15, 50, 0
20, 275400, Note_on_c, 15, 45, 32
20, 275519, Note_on_c, 15, 45, 0
20, 275760, Note_on_c, 15, 29, 32
20, 275924, Note_on_c, 15, 29, 0
20, 275940, Note_on_c, 15, 41, 32
20, 275984, Note_on_c, 15, 41, 0
20, 276000, Note_on_c, 15, 41, 32
20, 276104, Note_on_c, 15, 41, 0
20, 276120, Note_on_c, 15, 38, 32
20, 276239, Note_on_c, 15, 38, 0
20, 277920, Note_on_c, 15, 38, 32
20, 278084, Note_on_c, 15, 38, 0
20, 278100, Note_on_c, 15, 50, 36
20, 278144, Note_on_c, 15, 50, 0
20, 278160, Note_on_c, 15, 50, 37
20, 278264, Note_on_c, 15, 50, 0
20, 278280, Note_on_c, 15, 45, 40
20, 278399, Note_on_c, 15, 45, 0
20, 278640, Note_on_c, 15, 41, 48
20, 278804, Note_on_c, 15, 41, 0
20, 278820, Note_on_c, 15, 53, 52
20, 278864, Note_on_c, 15, 53, 0
20, 278880, Note_on_c, 15, 53, 53
20, 278984, Note_on_c, 15, 53, 0
20, 279000, Note_on_c, 15, 50, 56
20, 279119, Note_on_c, 15, 50, 0
20, 279360, Note_on_c, 15, 34, 64
20, 279524, Note_on_c, 15, 34, 0
20, 279540, Note_on_c, 15, 46, 68
20, 279584, Note_on_c, 15, 46, 0
20, 279600, Note_on_c, 15, 46, 69
20, 279704, Note_on_c, 15, 46, 0
20, 279720, Note_on_c, 15, 43, 72
20, 279839, Note_on_c, 15, 43, 0
20, 280080, Note_on_c, 15, 34, 80
20, 280244, Note_on_c, 15, 34, 0
20, 280260, Note_on_c, 15, 46, 80
20, 280304, Note_on_c, 15, 46, 0
20, 280320, Note_on_c, 15, 46, 80
20, 280424, Note_on_c, 15, 46, 0
20, 280440, Note_on_c, 15, 45, 92
20, 280559, Note_on_c, 15, 45, 0
20, 281160, Note_on_c, 15, 37, 32
20, 281249, Note_on_c, 15, 37, 0
20, 281280, Note_on_c, 15, 38, 32
20, 281369, Note_on_c, 15, 38, 0
20, 281400, Note_on_c, 15, 40, 32
20, 281504, Note_on_c, 15, 40, 0
20, 281520, Note_on_c, 15, 41, 32
20, 281609, Note_on_c, 15, 41, 0
20, 281640, Note_on_c, 15, 40, 32
20, 281729, Note_on_c, 15, 40, 0
20, 281760, Note_on_c, 15, 38, 32
20, 281849, Note_on_c, 15, 38, 0
20, 281880, Note_on_c, 15, 36, 32
20, 281969, Note_on_c, 15, 36, 0
20, 282000, Note_on_c, 15, 34, 32
20, 282089, Note_on_c, 15, 34, 0
20, 282120, Note_on_c, 15, 33, 32
20, 282209, Note_on_c, 15, 33, 0
20, 282240, Note_on_c, 15, 31, 32
20, 282329, Note_on_c, 15, 31, 0
20, 282360, Note_on_c, 15, 33, 32
20, 282449, Note_on_c, 15, 33, 0
20, 282480, Note_on_c, 15, 34, 32
20, 282569, Note_on_c, 15, 34, 0
20, 282600, Note_on_c, 15, 37, 32
20, 282689, Note_on_c, 15, 37, 0
20, 282720, Note_on_c, 15, 38, 32
20, 282809, Note_on_c, 15, 38, 0
20, 282840, Note_on_c, 15, 40, 32
20, 282944, Note_on_c, 15, 40, 0
20, 282960, Note_on_c, 15, 41, 32
20, 283049, Note_on_c, 15, 41, 0
20, 283080, Note_on_c, 15, 40, 32
20, 283169, Note_on_c, 15, 40, 0
20, 283200, Note_on_c, 15, 38, 32
20, 283289, Note_on_c, 15, 38, 0
20, 283320, Note_on_c, 15, 36, 32
20, 283409, Note_on_c, 15, 36, 0
20, 283440, Note_on_c, 15, 34, 32
20, 283529, Note_on_c, 15, 34, 0
20, 283560, Note_on_c, 15, 33, 32
20, 283649, Note_on_c, 15, 33, 0
20, 283680, Note_on_c, 15, 31, 32
20, 283769, Note_on_c, 15, 31, 0
20, 283800, Note_on_c, 15, 33, 32
20, 283889, Note_on_c, 15, 33, 0
20, 283920, Note_on_c, 15, 34, 32
20, 284009, Note_on_c, 15, 34, 0
20, 284040, Note_on_c, 15, 45, 32
20, 284204, Note_on_c, 15, 45, 0
20, 284220, Note_on_c, 15, 33, 35
20, 284264, Note_on_c, 15, 33, 0
20, 284280, Note_on_c, 15, 33, 37
20, 284384, Note_on_c, 15, 33, 0
20, 284400, Note_on_c, 15, 38, 39
20, 284489, Note_on_c, 15, 38, 0
20, 284520, Note_on_c, 15, 40, 42
20, 284609, Note_on_c, 15, 40, 0
20, 284640, Note_on_c, 15, 41, 44
20, 284729, Note_on_c, 15, 41, 0
20, 284760, Note_on_c, 15, 45, 47
20, 284924, Note_on_c, 15, 45, 0
20, 284940, Note_on_c, 15, 33, 50
20, 284984, Note_on_c, 15, 33, 0
20, 285000, Note_on_c, 15, 33, 52
20, 285104, Note_on_c, 15, 33, 0
20, 285120, Note_on_c, 15, 38, 54
20, 285209, Note_on_c, 15, 38, 0
20, 285240, Note_on_c, 15, 40, 57
20, 285329, Note_on_c, 15, 40, 0
20, 285360, Note_on_c, 15, 41, 59
20, 285449, Note_on_c, 15, 41, 0
20, 285480, Note_on_c, 15, 45, 62
20, 285644, Note_on_c, 15, 45, 0
20, 285660, Note_on_c, 15, 33, 65
20, 285704, Note_on_c, 15, 33, 0
20, 285720, Note_on_c, 15, 33, 67
20, 285824, Note_on_c, 15, 33, 0
20, 285840, Note_on_c, 15, 38, 69
20, 285929, Note_on_c, 15, 38, 0
20, 285960, Note_on_c, 15, 40, 72
20, 286049, Note_on_c, 15, 40, 0
20, 286080, Note_on_c, 15, 41, 74
20, 286169, Note_on_c, 15, 41, 0
20, 286200, Note_on_c, 15, 45, 77
20, 286364, Note_on_c, 15, 45, 0
20, 286380, Note_on_c, 15, 33, 80
20, 286424, Note_on_c, 15, 33, 0
20, 286440, Note_on_c, 15, 33, 82
20, 286544, Note_on_c, 15, 33, 0
20, 286560, Note_on_c, 15, 38, 84
20, 286649, Note_on_c, 15, 38, 0
20, 286680, Note_on_c, 15, 40, 87
20, 286769, Note_on_c, 15, 40, 0
20, 286800, Note_on_c, 15, 41, 89
20, 286889, Note_on_c, 15, 41, 0
20, 286920, Note_on_c, 15, 57, 92
20, 287009, Note_on_c, 15, 57, 0
20, 287040, Note_on_c, 15, 45, 92
20, 287129, Note_on_c, 15, 45, 0
20, 287160, Note_on_c, 15, 50, 80
20, 287249, Note_on_c, 15, 50, 0
20, 287280, Note_on_c, 15, 38, 80
20, 287369, Note_on_c, 15, 38, 0
20, 287400, Note_on_c, 15, 45, 80
20, 287489, Note_on_c, 15, 45, 0
20, 287520, Note_on_c, 15, 33, 80
20, 287609, Note_on_c, 15, 33, 0
20, 287640, Note_on_c, 15, 45, 80
20, 287729, Note_on_c, 15, 45, 0
20, 287760, Note_on_c, 15, 33, 80
20, 287849, Note_on_c, 15, 33, 0
20, 287880, Note_on_c, 15, 38, 80
20, 287969, Note_on_c, 15, 38, 0
20, 295560, Control_c, 15, 11, 87
20, 295800, Note_on_c, 15, 38, 68
20, 296499, Note_on_c, 15, 38, 0
20, 296520, Note_on_c, 15, 37, 68
20, 296759, Note_on_c, 15, 37, 0
20, 296760, Note_on_c, 15, 37, 68
20, 296760, Control_c, 15, 11, 87
20, 296808, Control_c, 15, 11, 88
20, 296856, Control_c, 15, 11, 89
20, 296904, Control_c, 15, 11, 90
20, 296952, Control_c, 15, 11, 91
20, 296979, Note_on_c, 15, 37, 0
20, 297000, Control_c, 15, 11, 92
20, 297000, Note_on_c, 15, 35, 68
20, 297048, Control_c, 15, 11, 93
20, 297096, Control_c, 15, 11, 94
20, 297144, Control_c, 15, 11, 95
20, 297192, Control_c, 15, 11, 96
20, 297240, Control_c, 15, 11, 97
20, 297288, Control_c, 15, 11, 98
20, 297336, Control_c, 15, 11, 99
20, 297384, Control_c, 15, 11, 100
20, 297432, Control_c, 15, 11, 101
20, 297459, Note_on_c, 15, 35, 0
20, 297480, Control_c, 15, 11, 102
20, 297480, Note_on_c, 15, 33, 68
20, 297528, Control_c, 15, 11, 103
20, 297576, Control_c, 15, 11, 104
20, 297624, Control_c, 15, 11, 105
20, 297672, Control_c, 15, 11, 106
20, 297720, Control_c, 15, 11, 107
20, 297768, Control_c, 15, 11, 108
20, 297816, Control_c, 15, 11, 109
20, 297864, Control_c, 15, 11, 110
20, 297912, Control_c, 15, 11, 111
20, 297960, Control_c, 15, 11, 112
20, 298008, Control_c, 15, 11, 113
20, 298056, Control_c, 15, 11, 114
20, 298104, Control_c, 15, 11, 115
20, 298152, Control_c, 15, 11, 116
20, 298199, Note_on_c, 15, 33, 0
20, 298200, Note_on_c, 15, 31, 68
20, 298200, Control_c, 15, 11, 117
20, 298248, Control_c, 15, 11, 118
20, 298296, Control_c, 15, 11, 119
20, 298344, Control_c, 15, 11, 120
20, 298392, Control_c, 15, 11, 121
20, 298439, Note_on_c, 15, 31, 0
20, 298440, Control_c, 15, 11, 122
20, 298440, Note_on_c, 15, 30, 68
20, 298488, Control_c, 15, 11, 123
20, 298536, Control_c, 15, 11, 124
20, 298559, Note_on_c, 15, 30, 0
20, 298560, Note_on_c, 15, 42, 68
20, 298584, Control_c, 15, 11, 125
20, 298632, Control_c, 15, 11, 127
20, 298679, Note_on_c, 15, 42, 0
20, 298680, Note_on_c, 15, 40, 68
20, 298799, Note_on_c, 15, 40, 0
20, 298800, Note_on_c, 15, 43, 56
20, 298899, Note_on_c, 15, 43, 0
20, 298920, Note_on_c, 15, 45, 44
20, 299039, Note_on_c, 15, 45, 0
20, 299160, Note_on_c, 15, 33, 44
20, 299279, Note_on_c, 15, 33, 0
20, 299398, Control_c, 15, 11, 87
20, 299400, Note_on_c, 15, 38, 68
20, 300339, Note_on_c, 15, 38, 0
20, 300360, Note_on_c, 15, 37, 68
20, 300599, Note_on_c, 15, 37, 0
20, 300600, Control_c, 15, 11, 87
20, 300600, Note_on_c, 15, 37, 68
20, 300648, Control_c, 15, 11, 88
20, 300696, Control_c, 15, 11, 89
20, 300744, Control_c, 15, 11, 90
20, 300792, Control_c, 15, 11, 91
20, 300819, Note_on_c, 15, 37, 0
20, 300840, Note_on_c, 15, 35, 68
20, 300840, Control_c, 15, 11, 92
20, 300888, Control_c, 15, 11, 93
20, 300936, Control_c, 15, 11, 94
20, 300984, Control_c, 15, 11, 95
20, 301032, Control_c, 15, 11, 96
20, 301080, Control_c, 15, 11, 97
20, 301128, Control_c, 15, 11, 98
20, 301176, Control_c, 15, 11, 99
20, 301224, Control_c, 15, 11, 100
20, 301272, Control_c, 15, 11, 101
20, 301299, Note_on_c, 15, 35, 0
20, 301320, Note_on_c, 15, 33, 68
20, 301320, Control_c, 15, 11, 102
20, 301368, Control_c, 15, 11, 103
20, 301416, Control_c, 15, 11, 104
20, 301464, Control_c, 15, 11, 105
20, 301512, Control_c, 15, 11, 106
20, 301560, Control_c, 15, 11, 107
20, 301608, Control_c, 15, 11, 108
20, 301656, Control_c, 15, 11, 109
20, 301704, Control_c, 15, 11, 110
20, 301752, Control_c, 15, 11, 111
20, 301800, Control_c, 15, 11, 112
20, 301848, Control_c, 15, 11, 113
20, 301896, Control_c, 15, 11, 114
20, 301944, Control_c, 15, 11, 115
20, 301992, Control_c, 15, 11, 116
20, 302039, Note_on_c, 15, 33, 0
20, 302040, Note_on_c, 15, 31, 68
20, 302040, Control_c, 15, 11, 117
20, 302088, Control_c, 15, 11, 118
20, 302136, Control_c, 15, 11, 119
20, 302184, Control_c, 15, 11, 120
20, 302232, Control_c, 15, 11, 121
20, 302279, Note_on_c, 15, 31, 0
20, 302280, Control_c, 15, 11, 122
20, 302280, Note_on_c, 15, 30, 68
20, 302328, Control_c, 15, 11, 123
20, 302376, Control_c, 15, 11, 124
20, 302399, Note_on_c, 15, 30, 0
20, 302400, Note_on_c, 15, 42, 68
20, 302424, Control_c, 15, 11, 125
20, 302472, Control_c, 15, 11, 127
20, 302519, Note_on_c, 15, 42, 0
20, 302520, Note_on_c, 15, 40, 68
20, 302639, Note_on_c, 15, 40, 0
20, 302640, Note_on_c, 15, 43, 56
20, 302739, Note_on_c, 15, 43, 0
20, 302760, Note_on_c, 15, 45, 44
20, 302879, Note_on_c, 15, 45, 0
20, 303000, Note_on_c, 15, 33, 44
20, 303119, Note_on_c, 15, 33, 0
20, 303240, Note_on_c, 15, 38, 44
20, 303359, Note_on_c, 15, 38, 0
20, 321000, Note_on_c, 15, 38, 80
20, 321059, Note_on_c, 15, 38, 0
20, 321060, Note_on_c, 15, 38, 44
20, 321119, Note_on_c, 15, 38, 0
20, 321240, Note_on_c, 15, 50, 44
20, 321329, Note_on_c, 15, 50, 0
20, 321360, Note_on_c, 15, 49, 44
20, 321449, Note_on_c, 15, 49, 0
20, 321480, Note_on_c, 15, 50, 44
20, 321569, Note_on_c, 15, 50, 0
20, 321600, Note_on_c, 15, 47, 45
20, 321689, Note_on_c, 15, 47, 0
20, 321720, Note_on_c, 15, 45, 46
20, 321809, Note_on_c, 15, 45, 0
20, 321840, Note_on_c, 15, 43, 47
20, 321929, Note_on_c, 15, 43, 0
20, 321960, Note_on_c, 15, 42, 48
20, 322049, Note_on_c, 15, 42, 0
20, 322080, Note_on_c, 15, 40, 50
20, 322169, Note_on_c, 15, 40, 0
20, 322200, Note_on_c, 15, 38, 51
20, 322289, Note_on_c, 15, 38, 0
20, 322320, Note_on_c, 15, 36, 52
20, 322409, Note_on_c, 15, 36, 0
20, 322440, Note_on_c, 15, 35, 53
20, 322529, Note_on_c, 15, 35, 0
20, 322560, Note_on_c, 15, 37, 54
20, 322649, Note_on_c, 15, 37, 0
20, 322680, Note_on_c, 15, 38, 56
20, 322769, Note_on_c, 15, 38, 0
20, 322800, Note_on_c, 15, 42, 57
20, 322889, Note_on_c, 15, 42, 0
20, 322920, Note_on_c, 15, 45, 58
20, 323009, Note_on_c, 15, 45, 0
20, 323040, Note_on_c, 15, 49, 59
20, 323129, Note_on_c, 15, 49, 0
20, 323160, Note_on_c, 15, 50, 60
20, 323249, Note_on_c, 15, 50, 0
20, 323280, Note_on_c, 15, 49, 62
20, 323369, Note_on_c, 15, 49, 0
20, 323400, Note_on_c, 15, 50, 63
20, 323489, Note_on_c, 15, 50, 0
20, 323520, Note_on_c, 15, 47, 64
20, 323609, Note_on_c, 15, 47, 0
20, 323640, Note_on_c, 15, 45, 65
20, 323729, Note_on_c, 15, 45, 0
20, 323760, Note_on_c, 15, 43, 66
20, 323849, Note_on_c, 15, 43, 0
20, 323880, Note_on_c, 15, 42, 68
20, 323969, Note_on_c, 15, 42, 0
20, 324000, Note_on_c, 15, 40, 69
20, 324089, Note_on_c, 15, 40, 0
20, 324120, Note_on_c, 15, 38, 70
20, 324209, Note_on_c, 15, 38, 0
20, 324240, Note_on_c, 15, 36, 71
20, 324329, Note_on_c, 15, 36, 0
20, 324360, Note_on_c, 15, 35, 72
20, 324449, Note_on_c, 15, 35, 0
20, 324480, Note_on_c, 15, 37, 74
20, 324569, Note_on_c, 15, 37, 0
20, 324600, Note_on_c, 15, 38, 75
20, 324689, Note_on_c, 15, 38, 0
20, 324720, Note_on_c, 15, 42, 76
20, 324809, Note_on_c, 15, 42, 0
20, 324840, Note_on_c, 15, 45, 77
20, 324929, Note_on_c, 15, 45, 0
20, 324960, Note_on_c, 15, 49, 78
20, 325049, Note_on_c, 15, 49, 0
20, 325080, Note_on_c, 15, 50, 80
20, 325169, Note_on_c, 15, 50, 0
20, 325200, Note_on_c, 15, 49, 80
20, 325289, Note_on_c, 15, 49, 0
20, 325320, Note_on_c, 15, 50, 80
20, 325409, Note_on_c, 15, 50, 0
20, 325440, Note_on_c, 15, 47, 80
20, 325529, Note_on_c, 15, 47, 0
20, 325560, Note_on_c, 15, 45, 80
20, 325649, Note_on_c, 15, 45, 0
20, 325680, Note_on_c, 15, 43, 80
20, 325769, Note_on_c, 15, 43, 0
20, 325800, Note_on_c, 15, 42, 80
20, 325889, Note_on_c, 15, 42, 0
20, 325920, Note_on_c, 15, 40, 80
20, 326009, Note_on_c, 15, 40, 0
20, 326040, Note_on_c, 15, 38, 80
20, 326129, Note_on_c, 15, 38, 0
20, 326160, Note_on_c, 15, 36, 80
20, 326249, Note_on_c, 15, 36, 0
20, 326280, Note_on_c, 15, 35, 80
20, 326369, Note_on_c, 15, 35, 0
20, 326400, Note_on_c, 15, 37, 80
20, 326489, Note_on_c, 15, 37, 0
20, 326520, Note_on_c, 15, 38, 80
20, 326609, Note_on_c, 15, 38, 0
20, 326640, Note_on_c, 15, 42, 80
20, 326729, Note_on_c, 15, 42, 0
20, 326760, Note_on_c, 15, 45, 80
20, 326849, Note_on_c, 15, 45, 0
20, 326880, Note_on_c, 15, 49, 80
20, 326969, Note_on_c, 15, 49, 0
20, 327000, Note_on_c, 15, 50, 80
20, 327089, Note_on_c, 15, 50, 0
20, 327120, Note_on_c, 15, 49, 80
20, 327209, Note_on_c, 15, 49, 0
20, 327240, Note_on_c, 15, 50, 80
20, 327329, Note_on_c, 15, 50, 0
20, 327360, Note_on_c, 15, 47, 80
20, 327449, Note_on_c, 15, 47, 0
20, 327480, Note_on_c, 15, 45, 80
20, 327569, Note_on_c, 15, 45, 0
20, 327600, Note_on_c, 15, 43, 80
20, 327689, Note_on_c, 15, 43, 0
20, 327720, Note_on_c, 15, 42, 80
20, 327809, Note_on_c, 15, 42, 0
20, 327840, Note_on_c, 15, 40, 80
20, 327929, Note_on_c, 15, 40, 0
20, 327960, Note_on_c, 15, 38, 80
20, 328049, Note_on_c, 15, 38, 0
20, 328080, Note_on_c, 15, 36, 80
20, 328169, Note_on_c, 15, 36, 0
20, 328200, Note_on_c, 15, 35, 80
20, 328289, Note_on_c, 15, 35, 0
20, 328320, Note_on_c, 15, 31, 80
20, 328409, Note_on_c, 15, 31, 0
20, 328440, Note_on_c, 15, 33, 80
20, 328529, Note_on_c, 15, 33, 0
20, 328560, Note_on_c, 15, 45, 80
20, 328649, Note_on_c, 15, 45, 0
20, 328680, Note_on_c, 15, 38, 80
20, 328680, Control_c, 15, 11, 87
20, 328799, Note_on_c, 15, 38, 0
20, 328920, Note_on_c, 15, 38, 68
20, 329619, Note_on_c, 15, 38, 0
20, 329640, Note_on_c, 15, 37, 68
20, 329879, Note_on_c, 15, 37, 0
20, 329880, Control_c, 15, 11, 87
20, 329880, Note_on_c, 15, 37, 68
20, 329928, Control_c, 15, 11, 88
20, 329976, Control_c, 15, 11, 89
20, 330024, Control_c, 15, 11, 90
20, 330072, Control_c, 15, 11, 91
20, 330099, Note_on_c, 15, 37, 0
20, 330120, Note_on_c, 15, 35, 68
20, 330120, Control_c, 15, 11, 92
20, 330168, Control_c, 15, 11, 93
20, 330216, Control_c, 15, 11, 94
20, 330264, Control_c, 15, 11, 95
20, 330312, Control_c, 15, 11, 96
20, 330360, Control_c, 15, 11, 97
20, 330408, Control_c, 15, 11, 98
20, 330456, Control_c, 15, 11, 99
20, 330504, Control_c, 15, 11, 100
20, 330552, Control_c, 15, 11, 101
20, 330579, Note_on_c, 15, 35, 0
20, 330600, Note_on_c, 15, 33, 68
20, 330600, Control_c, 15, 11, 102
20, 330648, Control_c, 15, 11, 103
20, 330696, Control_c, 15, 11, 104
20, 330744, Control_c, 15, 11, 105
20, 330792, Control_c, 15, 11, 106
20, 330840, Control_c, 15, 11, 107
20, 330888, Control_c, 15, 11, 108
20, 330936, Control_c, 15, 11, 109
20, 330984, Control_c, 15, 11, 110
20, 331032, Control_c, 15, 11, 111
20, 331080, Control_c, 15, 11, 112
20, 331128, Control_c, 15, 11, 113
20, 331176, Control_c, 15, 11, 114
20, 331224, Control_c, 15, 11, 115
20, 331272, Control_c, 15, 11, 116
20, 331319, Note_on_c, 15, 33, 0
20, 331320, Control_c, 15, 11, 117
20, 331320, Note_on_c, 15, 31, 68
20, 331368, Control_c, 15, 11, 118
20, 331416, Control_c, 15, 11, 119
20, 331464, Control_c, 15, 11, 120
20, 331512, Control_c, 15, 11, 121
20, 331559, Note_on_c, 15, 31, 0
20, 331560, Control_c, 15, 11, 122
20, 331560, Note_on_c, 15, 30, 68
20, 331608, Control_c, 15, 11, 123
20, 331656, Control_c, 15, 11, 124
20, 331679, Note_on_c, 15, 30, 0
20, 331680, Note_on_c, 15, 42, 68
20, 331704, Control_c, 15, 11, 125
20, 331752, Control_c, 15, 11, 127
20, 331799, Note_on_c, 15, 42, 0
20, 331800, Note_on_c, 15, 40, 68
20, 331919, Note_on_c, 15, 40, 0
20, 331920, Note_on_c, 15, 43, 56
20, 332019, Note_on_c, 15, 43, 0
20, 332040, Note_on_c, 15, 45, 44
20, 332159, Note_on_c, 15, 45, 0
20, 332280, Note_on_c, 15, 33, 44
20, 332399, Note_on_c, 15, 33, 0
20, 332518, Control_c, 15, 11, 87
20, 332520, Note_on_c, 15, 38, 68
20, 333459, Note_on_c, 15, 38, 0
20, 333480, Note_on_c, 15, 37, 68
20, 333719, Note_on_c, 15, 37, 0
20, 333720, Note_on_c, 15, 37, 68
20, 333720, Control_c, 15, 11, 87
20, 333768, Control_c, 15, 11, 88
20, 333816, Control_c, 15, 11, 89
20, 333864, Control_c, 15, 11, 90
20, 333912, Control_c, 15, 11, 91
20, 333939, Note_on_c, 15, 37, 0
20, 333960, Control_c, 15, 11, 92
20, 333960, Note_on_c, 15, 35, 68
20, 334008, Control_c, 15, 11, 93
20, 334056, Control_c, 15, 11, 94
20, 334104, Control_c, 15, 11, 95
20, 334152, Control_c, 15, 11, 96
20, 334200, Control_c, 15, 11, 97
20, 334248, Control_c, 15, 11, 98
20, 334296, Control_c, 15, 11, 99
20, 334344, Control_c, 15, 11, 100
20, 334392, Control_c, 15, 11, 101
20, 334419, Note_on_c, 15, 35, 0
20, 334440, Control_c, 15, 11, 102
20, 334440, Note_on_c, 15, 33, 68
20, 334488, Control_c, 15, 11, 103
20, 334536, Control_c, 15, 11, 104
20, 334584, Control_c, 15, 11, 105
20, 334632, Control_c, 15, 11, 106
20, 334680, Control_c, 15, 11, 107
20, 334728, Control_c, 15, 11, 108
20, 334776, Control_c, 15, 11, 109
20, 334824, Control_c, 15, 11, 110
20, 334872, Control_c, 15, 11, 111
20, 334920, Control_c, 15, 11, 112
20, 334968, Control_c, 15, 11, 113
20, 335016, Control_c, 15, 11, 114
20, 335064, Control_c, 15, 11, 115
20, 335112, Control_c, 15, 11, 116
20, 335159, Note_on_c, 15, 33, 0
20, 335160, Control_c, 15, 11, 117
20, 335160, Note_on_c, 15, 31, 68
20, 335208, Control_c, 15, 11, 118
20, 335256, Control_c, 15, 11, 119
20, 335304, Control_c, 15, 11, 120
20, 335352, Control_c, 15, 11, 121
20, 335399, Note_on_c, 15, 31, 0
20, 335400, Note_on_c, 15, 30, 68
20, 335400, Control_c, 15, 11, 122
20, 335448, Control_c, 15, 11, 123
20, 335496, Control_c, 15, 11, 124
20, 335519, Note_on_c, 15, 30, 0
20, 335520, Note_on_c, 15, 42, 68
20, 335544, Control_c, 15, 11, 125
20, 335592, Control_c, 15, 11, 127
20, 335639, Note_on_c, 15, 42, 0
20, 335640, Note_on_c, 15, 40, 68
20, 335759, Note_on_c, 15, 40, 0
20, 335760, Note_on_c, 15, 43, 56
20, 335859, Note_on_c, 15, 43, 0
20, 335880, Note_on_c, 15, 45, 44
20, 335999, Note_on_c, 15, 45, 0
20, 336120, Note_on_c, 15, 33, 44
20, 336239, Note_on_c, 15, 33, 0
20, 336360, Note_on_c, 15, 38, 44
20, 336479, Note_on_c, 15, 38, 0
20, 354120, Note_on_c, 15, 38, 80
20, 354179, Note_on_c, 15, 38, 0
20, 354180, Note_on_c, 15, 38, 44
20, 354239, Note_on_c, 15, 38, 0
20, 354360, Note_on_c, 15, 50, 44
20, 354449, Note_on_c, 15, 50, 0
20, 354480, Note_on_c, 15, 49, 44
20, 354569, Note_on_c, 15, 49, 0
20, 354600, Note_on_c, 15, 50, 44
20, 354689, Note_on_c, 15, 50, 0
20, 354720, Note_on_c, 15, 47, 45
20, 354809, Note_on_c, 15, 47, 0
20, 354840, Note_on_c, 15, 45, 46
20, 354929, Note_on_c, 15, 45, 0
20, 354960, Note_on_c, 15, 43, 47
20, 355049, Note_on_c, 15, 43, 0
20, 355080, Note_on_c, 15, 42, 48
20, 355169, Note_on_c, 15, 42, 0
20, 355200, Note_on_c, 15, 40, 50
20, 355289, Note_on_c, 15, 40, 0
20, 355320, Note_on_c, 15, 38, 51
20, 355409, Note_on_c, 15, 38, 0
20, 355440, Note_on_c, 15, 36, 52
20, 355529, Note_on_c, 15, 36, 0
20, 355560, Note_on_c, 15, 35, 53
20, 355649, Note_on_c, 15, 35, 0
20, 355680, Note_on_c, 15, 37, 54
20, 355769, Note_on_c, 15, 37, 0
20, 355800, Note_on_c, 15, 38, 56
20, 355889, Note_on_c, 15, 38, 0
20, 355920, Note_on_c, 15, 42, 57
20, 356009, Note_on_c, 15, 42, 0
20, 356040, Note_on_c, 15, 45, 58
20, 356129, Note_on_c, 15, 45, 0
20, 356160, Note_on_c, 15, 49, 59
20, 356249, Note_on_c, 15, 49, 0
20, 356280, Note_on_c, 15, 50, 60
20, 356369, Note_on_c, 15, 50, 0
20, 356400, Note_on_c, 15, 49, 62
20, 356489, Note_on_c, 15, 49, 0
20, 356520, Note_on_c, 15, 50, 63
20, 356609, Note_on_c, 15, 50, 0
20, 356640, Note_on_c, 15, 47, 64
20, 356729, Note_on_c, 15, 47, 0
20, 356760, Note_on_c, 15, 45, 65
20, 356849, Note_on_c, 15, 45, 0
20, 356880, Note_on_c, 15, 43, 66
20, 356969, Note_on_c, 15, 43, 0
20, 357000, Note_on_c, 15, 42, 68
20, 357089, Note_on_c, 15, 42, 0
20, 357120, Note_on_c, 15, 40, 69
20, 357209, Note_on_c, 15, 40, 0
20, 357240, Note_on_c, 15, 38, 70
20, 357329, Note_on_c, 15, 38, 0
20, 357360, Note_on_c, 15, 36, 71
20, 357449, Note_on_c, 15, 36, 0
20, 357480, Note_on_c, 15, 35, 72
20, 357569, Note_on_c, 15, 35, 0
20, 357600, Note_on_c, 15, 37, 74
20, 357689, Note_on_c, 15, 37, 0
20, 357720, Note_on_c, 15, 38, 75
20, 357809, Note_on_c, 15, 38, 0
20, 357840, Note_on_c, 15, 42, 76
20, 357929, Note_on_c, 15, 42, 0
20, 357960, Note_on_c, 15, 45, 77
20, 358049, Note_on_c, 15, 45, 0
20, 358080, Note_on_c, 15, 49, 78
20, 358169, Note_on_c, 15, 49, 0
20, 358200, Note_on_c, 15, 50, 80
20, 358289, Note_on_c, 15, 50, 0
20, 358320, Note_on_c, 15, 49, 80
20, 358409, Note_on_c, 15, 49, 0
20, 358440, Note_on_c, 15, 50, 80
20, 358529, Note_on_c, 15, 50, 0
20, 358560, Note_on_c, 15, 47, 80
20, 358649, Note_on_c, 15, 47, 0
20, 358680, Note_on_c, 15, 45, 80
20, 358769, Note_on_c, 15, 45, 0
20, 358800, Note_on_c, 15, 43, 80
20, 358889, Note_on_c, 15, 43, 0
20, 358920, Note_on_c, 15, 42, 80
20, 359009, Note_on_c, 15, 42, 0
20, 359040, Note_on_c, 15, 40, 80
20, 359129, Note_on_c, 15, 40, 0
20, 359160, Note_on_c, 15, 38, 80
20, 359249, Note_on_c, 15, 38, 0
20, 359280, Note_on_c, 15, 36, 80
20, 359369, Note_on_c, 15, 36, 0
20, 359400, Note_on_c, 15, 35, 80
20, 359489, Note_on_c, 15, 35, 0
20, 359520, Note_on_c, 15, 37, 80
20, 359609, Note_on_c, 15, 37, 0
20, 359640, Note_on_c, 15, 38, 80
20, 359729, Note_on_c, 15, 38, 0
20, 359760, Note_on_c, 15, 42, 80
20, 359849, Note_on_c, 15, 42, 0
20, 359880, Note_on_c, 15, 45, 80
20, 359969, Note_on_c, 15, 45, 0
20, 360000, Note_on_c, 15, 49, 80
20, 360089, Note_on_c, 15, 49, 0
20, 360120, Note_on_c, 15, 50, 80
20, 360209, Note_on_c, 15, 50, 0
20, 360240, Note_on_c, 15, 49, 80
20, 360329, Note_on_c, 15, 49, 0
20, 360360, Note_on_c, 15, 50, 80
20, 360449, Note_on_c, 15, 50, 0
20, 360480, Note_on_c, 15, 47, 80
20, 360569, Note_on_c, 15, 47, 0
20, 360600, Note_on_c, 15, 45, 80
20, 360689, Note_on_c, 15, 45, 0
20, 360720, Note_on_c, 15, 43, 80
20, 360809, Note_on_c, 15, 43, 0
20, 360840, Note_on_c, 15, 42, 80
20, 360929, Note_on_c, 15, 42, 0
20, 360960, Note_on_c, 15, 40, 80
20, 361049, Note_on_c, 15, 40, 0
20, 361080, Note_on_c, 15, 38, 80
20, 361169, Note_on_c, 15, 38, 0
20, 361200, Note_on_c, 15, 36, 80
20, 361289, Note_on_c, 15, 36, 0
20, 361320, Note_on_c, 15, 35, 80
20, 361409, Note_on_c, 15, 35, 0
20, 361440, Note_on_c, 15, 31, 80
20, 361529, Note_on_c, 15, 31, 0
20, 361560, Note_on_c, 15, 33, 80
20, 361649, Note_on_c, 15, 33, 0
20, 361680, Note_on_c, 15, 45, 80
20, 361769, Note_on_c, 15, 45, 0
20, 361800, Note_on_c, 15, 38, 80
20, 361860, Control_c, 15, 11, 67
20, 362759, Note_on_c, 15, 38, 0
20, 362760, Note_on_c, 15, 38, 80
20, 363719, Note_on_c, 15, 38, 0
20, 363720, Note_on_c, 15, 38, 80
20, 363720, Control_c, 15, 11, 67
20, 363784, Control_c, 15, 11, 68
20, 363848, Control_c, 15, 11, 69
20, 363912, Control_c, 15, 11, 70
20, 363939, Note_on_c, 15, 38, 0
20, 363960, Note_on_c, 15, 38, 80
20, 363976, Control_c, 15, 11, 71
20, 364040, Control_c, 15, 11, 72
20, 364104, Control_c, 15, 11, 73
20, 364168, Control_c, 15, 11, 74
20, 364232, Control_c, 15, 11, 75
20, 364296, Control_c, 15, 11, 76
20, 364360, Control_c, 15, 11, 77
20, 364424, Control_c, 15, 11, 78
20, 364488, Control_c, 15, 11, 79
20, 364552, Control_c, 15, 11, 80
20, 364616, Control_c, 15, 11, 81
20, 364679, Note_on_c, 15, 38, 0
20, 364680, Note_on_c, 15, 38, 80
20, 364680, Control_c, 15, 11, 82
20, 364744, Control_c, 15, 11, 83
20, 364808, Control_c, 15, 11, 84
20, 364872, Control_c, 15, 11, 85
20, 364936, Control_c, 15, 11, 86
20, 365000, Control_c, 15, 11, 87
20, 365064, Control_c, 15, 11, 88
20, 365128, Control_c, 15, 11, 89
20, 365192, Control_c, 15, 11, 90
20, 365256, Control_c, 15, 11, 91
20, 365320, Control_c, 15, 11, 92
20, 365384, Control_c, 15, 11, 93
20, 365448, Control_c, 15, 11, 94
20, 365512, Control_c, 15, 11, 95
20, 365576, Control_c, 15, 11, 96
20, 365639, Note_on_c, 15, 38, 0
20, 365640, Control_c, 15, 11, 97
20, 365640, Note_on_c, 15, 38, 80
20, 365704, Control_c, 15, 11, 98
20, 365768, Control_c, 15, 11, 99
20, 365832, Control_c, 15, 11, 100
20, 365896, Control_c, 15, 11, 101
20, 365960, Control_c, 15, 11, 102
20, 366024, Control_c, 15, 11, 103
20, 366088, Control_c, 15, 11, 104
20, 366152, Control_c, 15, 11, 105
20, 366216, Control_c, 15, 11, 106
20, 366280, Control_c, 15, 11, 107
20, 366344, Control_c, 15, 11, 108
20, 366408, Control_c, 15, 11, 109
20, 366472, Control_c, 15, 11, 110
20, 366536, Control_c, 15, 11, 111
20, 366599, Note_on_c, 15, 38, 0
20, 366600, Note_on_c, 15, 38, 80
20, 366600, Control_c, 15, 11, 112
20, 366664, Control_c, 15, 11, 113
20, 366728, Control_c, 15, 11, 114
20, 366792, Control_c, 15, 11, 115
20, 366856, Control_c, 15, 11, 116
20, 366920, Control_c, 15, 11, 117
20, 366984, Control_c, 15, 11, 118
20, 367048, Control_c, 15, 11, 119
20, 367112, Control_c, 15, 11, 120
20, 367176, Control_c, 15, 11, 121
20, 367240, Control_c, 15, 11, 122
20, 367304, Control_c, 15, 11, 123
20, 367368, Control_c, 15, 11, 124
20, 367432, Control_c, 15, 11, 125
20, 367496, Control_c, 15, 11, 127
20, 367559, Note_on_c, 15, 38, 0
20, 367560, Note_on_c, 15, 38, 80
20, 368519, Note_on_c, 15, 38, 0
20, 368520, Note_on_c, 15, 38, 80
20, 368520, Control_c, 15, 11, 127
20, 368560, Control_c, 15, 11, 125
20, 368600, Control_c, 15, 11, 122
20, 368640, Control_c, 15, 11, 120
20, 368680, Control_c, 15, 11, 117
20, 368720, Control_c, 15, 11, 115
20, 368760, Control_c, 15, 11, 112
20, 368800, Control_c, 15, 11, 110
20, 368840, Control_c, 15, 11, 107
20, 368880, Control_c, 15, 11, 105
20, 368920, Control_c, 15, 11, 102
20, 368960, Control_c, 15, 11, 100
20, 369000, Control_c, 15, 11, 97
20, 369040, Control_c, 15, 11, 95
20, 369080, Control_c, 15, 11, 92
20, 369120, Control_c, 15, 11, 90
20, 369160, Control_c, 15, 11, 87
20, 369200, Control_c, 15, 11, 85
20, 369240, Control_c, 15, 11, 82
20, 369280, Control_c, 15, 11, 80
20, 369320, Control_c, 15, 11, 77
20, 369360, Control_c, 15, 11, 75
20, 369400, Control_c, 15, 11, 72
20, 369440, Control_c, 15, 11, 70
20, 369478, Control_c, 15, 11, 67
20, 369479, Note_on_c, 15, 38, 0
20, 369480, Note_on_c, 15, 38, 80
20, 369720, Control_c, 15, 11, 67
20, 369780, Control_c, 15, 11, 68
20, 369840, Control_c, 15, 11, 69
20, 369900, Control_c, 15, 11, 70
20, 369960, Control_c, 15, 11, 71
20, 370020, Control_c, 15, 11, 72
20, 370080, Control_c, 15, 11, 73
20, 370140, Control_c, 15, 11, 74
20, 370200, Control_c, 15, 11, 75
20, 370260, Control_c, 15, 11, 76
20, 370320, Control_c, 15, 11, 77
20, 370380, Control_c, 15, 11, 78
20, 370439, Note_on_c, 15, 38, 0
20, 370440, Control_c, 15, 11, 79
20, 370440, Note_on_c, 15, 38, 80
20, 370500, Control_c, 15, 11, 80
20, 370560, Control_c, 15, 11, 81
20, 370620, Control_c, 15, 11, 82
20, 370680, Control_c, 15, 11, 83
20, 370740, Control_c, 15, 11, 84
20, 370800, Control_c, 15, 11, 85
20, 370860, Control_c, 15, 11, 86
20, 370920, Control_c, 15, 11, 87
20, 370980, Control_c, 15, 11, 88
20, 371040, Control_c, 15, 11, 89
20, 371100, Control_c, 15, 11, 90
20, 371160, Control_c, 15, 11, 91
20, 371220, Control_c, 15, 11, 92
20, 371280, Control_c, 15, 11, 93
20, 371340, Control_c, 15, 11, 94
20, 371399, Note_on_c, 15, 38, 0
20, 371400, Control_c, 15, 11, 95
20, 371400, Note_on_c, 15, 38, 80
20, 371460, Control_c, 15, 11, 96
20, 371520, Control_c, 15, 11, 97
20, 371580, Control_c, 15, 11, 98
20, 371640, Control_c, 15, 11, 99
20, 371700, Control_c, 15, 11, 100
20, 371760, Control_c, 15, 11, 101
20, 371820, Control_c, 15, 11, 102
20, 371880, Control_c, 15, 11, 103
20, 371940, Control_c, 15, 11, 104
20, 372000, Control_c, 15, 11, 105
20, 372060, Control_c, 15, 11, 106
20, 372120, Control_c, 15, 11, 107
20, 372180, Control_c, 15, 11, 108
20, 372240, Control_c, 15, 11, 109
20, 372300, Control_c, 15, 11, 110
20, 372359, Note_on_c, 15, 38, 0
20, 372360, Control_c, 15, 11, 111
20, 372360, Note_on_c, 15, 38, 80
20, 372420, Control_c, 15, 11, 112
20, 372480, Control_c, 15, 11, 113
20, 372540, Control_c, 15, 11, 114
20, 372600, Control_c, 15, 11, 115
20, 372660, Control_c, 15, 11, 116
20, 372720, Control_c, 15, 11, 117
20, 372780, Control_c, 15, 11, 118
20, 372840, Control_c, 15, 11, 119
20, 372900, Control_c, 15, 11, 120
20, 372960, Control_c, 15, 11, 121
20, 373020, Control_c, 15, 11, 122
20, 373080, Control_c, 15, 11, 123
20, 373140, Control_c, 15, 11, 124
20, 373200, Control_c, 15, 11, 125
20, 373260, Control_c, 15, 11, 127
20, 373299, Note_on_c, 15, 38, 0
20, 373320, Note_on_c, 15, 38, 80
20, 374279, Note_on_c, 15, 38, 0
20, 374280, Note_on_c, 15, 38, 76
20, 375239, Note_on_c, 15, 38, 0
20, 375240, Note_on_c, 15, 38, 70
20, 376199, Note_on_c, 15, 38, 0
20, 376200, Note_on_c, 15, 38, 62
20, 377159, Note_on_c, 15, 38, 0
20, 377160, Note_on_c, 15, 38, 54
20, 378119, Note_on_c, 15, 38, 0
20, 378120, Note_on_c, 15, 38, 47
20, 379079, Note_on_c, 15, 38, 0
20, 379080, Note_on_c, 15, 38, 44
20, 380039, Note_on_c, 15, 38, 0
20, 380040, Note_on_c, 15, 38, 36
20, 380519, Note_on_c, 15, 38, 0
20, 380520, Note_on_c, 15, 38, 32
20, 381219, Note_on_c, 15, 38, 0
20, 381240, Note_on_c, 15, 50, 92
20, 381404, Note_on_c, 15, 50, 0
20, 381420, Note_on_c, 15, 38, 92
20, 381464, Note_on_c, 15, 38, 0
20, 381480, Note_on_c, 15, 38, 92
20, 381599, Note_on_c, 15, 38, 0
20, 381960, Note_on_c, 15, 45, 104
20, 381989, Note_on_c, 15, 45, 0
20, 381990, Note_on_c, 15, 45, 92
20, 382109, Note_on_c, 15, 45, 0
20, 382140, Note_on_c, 15, 33, 92
20, 382184, Note_on_c, 15, 33, 0
20, 382200, Note_on_c, 15, 33, 92
20, 382319, Note_on_c, 15, 33, 0
20, 383040, Note_on_c, 15, 38, 92
20, 383204, Note_on_c, 15, 38, 0
20, 383220, Note_on_c, 15, 26, 92
20, 383264, Note_on_c, 15, 26, 0
20, 383280, Note_on_c, 15, 26, 92
20, 383399, Note_on_c, 15, 26, 0
20, 389880, Note_on_c, 15, 45, 32
20, 390044, Note_on_c, 15, 45, 0
20, 390060, Note_on_c, 15, 33, 32
20, 390104, Note_on_c, 15, 33, 0
20, 390120, Note_on_c, 15, 33, 32
20, 390224, Note_on_c, 15, 33, 0
20, 390240, Note_on_c, 15, 38, 32
20, 390329, Note_on_c, 15, 38, 0
20, 390360, Note_on_c, 15, 40, 32
20, 390449, Note_on_c, 15, 40, 0
20, 390480, Note_on_c, 15, 41, 32
20, 390569, Note_on_c, 15, 41, 0
20, 390600, Note_on_c, 15, 40, 32
20, 390689, Note_on_c, 15, 40, 0
20, 390720, Note_on_c, 15, 41, 32
20, 390809, Note_on_c, 15, 41, 0
20, 390840, Note_on_c, 15, 43, 32
20, 390929, Note_on_c, 15, 43, 0
20, 390960, Note_on_c, 15, 41, 32
20, 391049, Note_on_c, 15, 41, 0
20, 391080, Note_on_c, 15, 40, 32
20, 391169, Note_on_c, 15, 40, 0
20, 391200, Note_on_c, 15, 38, 32
20, 391289, Note_on_c, 15, 38, 0
20, 391320, Note_on_c, 15, 41, 32
20, 391409, Note_on_c, 15, 41, 0
20, 391440, Note_on_c, 15, 40, 32
20, 391529, Note_on_c, 15, 40, 0
20, 391560, Note_on_c, 15, 38, 32
20, 391649, Note_on_c, 15, 38, 0
20, 391680, Note_on_c, 15, 36, 32
20, 391769, Note_on_c, 15, 36, 0
20, 391800, Note_on_c, 15, 35, 32
20, 391889, Note_on_c, 15, 35, 0
20, 391920, Note_on_c, 15, 33, 32
20, 392009, Note_on_c, 15, 33, 0
20, 392040, Note_on_c, 15, 32, 32
20, 392129, Note_on_c, 15, 32, 0
20, 392160, Note_on_c, 15, 33, 32
20, 392249, Note_on_c, 15, 33, 0
20, 392280, Note_on_c, 15, 35, 32
20, 392369, Note_on_c, 15, 35, 0
20, 392400, Note_on_c, 15, 33, 32
20, 392489, Note_on_c, 15, 33, 0
20, 392520, Note_on_c, 15, 32, 32
20, 392609, Note_on_c, 15, 32, 0
20, 392640, Note_on_c, 15, 33, 32
20, 392729, Note_on_c, 15, 33, 0
20, 392760, Note_on_c, 15, 33, 32
20, 392849, Note_on_c, 15, 33, 0
20, 392880, Note_on_c, 15, 33, 32
20, 392969, Note_on_c, 15, 33, 0
20, 393000, Note_on_c, 15, 33, 32
20, 393089, Note_on_c, 15, 33, 0
20, 393120, Note_on_c, 15, 33, 32
20, 393209, Note_on_c, 15, 33, 0
20, 393240, Note_on_c, 15, 33, 32
20, 393329, Note_on_c, 15, 33, 0
20, 393360, Note_on_c, 15, 33, 32
20, 393449, Note_on_c, 15, 33, 0
20, 393480, Note_on_c, 15, 33, 32
20, 393569, Note_on_c, 15, 33, 0
20, 393600, Note_on_c, 15, 33, 32
20, 393689, Note_on_c, 15, 33, 0
20, 393720, Note_on_c, 15, 33, 32
20, 393809, Note_on_c, 15, 33, 0
20, 393840, Note_on_c, 15, 33, 32
20, 393929, Note_on_c, 15, 33, 0
20, 393960, Note_on_c, 15, 33, 32
20, 394049, Note_on_c, 15, 33, 0
20, 394080, Note_on_c, 15, 33, 32
20, 394169, Note_on_c, 15, 33, 0
20, 394200, Note_on_c, 15, 33, 32
20, 394289, Note_on_c, 15, 33, 0
20, 394320, Note_on_c, 15, 33, 32
20, 394409, Note_on_c, 15, 33, 0
20, 394440, Note_on_c, 15, 33, 32
20, 394529, Note_on_c, 15, 33, 0
20, 394560, Note_on_c, 15, 33, 32
20, 394649, Note_on_c, 15, 33, 0
20, 394680, Note_on_c, 15, 33, 32
20, 394769, Note_on_c, 15, 33, 0
20, 394800, Note_on_c, 15, 33, 32
20, 394889, Note_on_c, 15, 33, 0
20, 394920, Note_on_c, 15, 33, 32
20, 395009, Note_on_c, 15, 33, 0
20, 395040, Note_on_c, 15, 33, 32
20, 395129, Note_on_c, 15, 33, 0
20, 395160, Note_on_c, 15, 33, 32
20, 395249, Note_on_c, 15, 33, 0
20, 395280, Note_on_c, 15, 33, 32
20, 395369, Note_on_c, 15, 33, 0
20, 395400, Note_on_c, 15, 33, 32
20, 395489, Note_on_c, 15, 33, 0
20, 395520, Note_on_c, 15, 33, 32
20, 395609, Note_on_c, 15, 33, 0
20, 395640, Note_on_c, 15, 33, 32
20, 395729, Note_on_c, 15, 33, 0
20, 395760, Note_on_c, 15, 33, 32
20, 395849, Note_on_c, 15, 33, 0
20, 395880, Note_on_c, 15, 33, 32
20, 395969, Note_on_c, 15, 33, 0
20, 396000, Note_on_c, 15, 33, 32
20, 396089, Note_on_c, 15, 33, 0
20, 396120, Note_on_c, 15, 33, 32
20, 396209, Note_on_c, 15, 33, 0
20, 396240, Note_on_c, 15, 33, 32
20, 396329, Note_on_c, 15, 33, 0
20, 396360, Note_on_c, 15, 33, 32
20, 396449, Note_on_c, 15, 33, 0
20, 396480, Note_on_c, 15, 33, 32
20, 396569, Note_on_c, 15, 33, 0
20, 396600, Note_on_c, 15, 33, 32
20, 396689, Note_on_c, 15, 33, 0
20, 396720, Note_on_c, 15, 33, 32
20, 396809, Note_on_c, 15, 33, 0
20, 396840, Note_on_c, 15, 33, 32
20, 396929, Note_on_c, 15, 33, 0
20, 396960, Note_on_c, 15, 33, 32
20, 397049, Note_on_c, 15, 33, 0
20, 397080, Note_on_c, 15, 33, 32
20, 397169, Note_on_c, 15, 33, 0
20, 397200, Note_on_c, 15, 33, 33
20, 397289, Note_on_c, 15, 33, 0
20, 397320, Note_on_c, 15, 33, 35
20, 397409, Note_on_c, 15, 33, 0
20, 397440, Note_on_c, 15, 33, 37
20, 397529, Note_on_c, 15, 33, 0
20, 397560, Note_on_c, 15, 33, 38
20, 397649, Note_on_c, 15, 33, 0
20, 397680, Note_on_c, 15, 33, 40
20, 397769, Note_on_c, 15, 33, 0
20, 397800, Note_on_c, 15, 33, 42
20, 397889, Note_on_c, 15, 33, 0
20, 397920, Note_on_c, 15, 33, 43
20, 398009, Note_on_c, 15, 33, 0
20, 398040, Note_on_c, 15, 33, 45
20, 398129, Note_on_c, 15, 33, 0
20, 398160, Note_on_c, 15, 33, 47
20, 398249, Note_on_c, 15, 33, 0
20, 398280, Note_on_c, 15, 33, 48
20, 398369, Note_on_c, 15, 33, 0
20, 398400, Note_on_c, 15, 33, 50
20, 398489, Note_on_c, 15, 33, 0
20, 398520, Note_on_c, 15, 33, 52
20, 398609, Note_on_c, 15, 33, 0
20, 398640, Note_on_c, 15, 33, 53
20, 398729, Note_on_c, 15, 33, 0
20, 398760, Note_on_c, 15, 33, 55
20, 398849, Note_on_c, 15, 33, 0
20, 398880, Note_on_c, 15, 33, 57
20, 398969, Note_on_c, 15, 33, 0
20, 399000, Note_on_c, 15, 33, 58
20, 399089, Note_on_c, 15, 33, 0
20, 399120, Note_on_c, 15, 33, 60
20, 399209, Note_on_c, 15, 33, 0
20, 399240, Note_on_c, 15, 33, 62
20, 399329, Note_on_c, 15, 33, 0
20, 399360, Note_on_c, 15, 33, 63
20, 399449, Note_on_c, 15, 33, 0
20, 399480, Note_on_c, 15, 33, 65
20, 399569, Note_on_c, 15, 33, 0
20, 399600, Note_on_c, 15, 33, 67
20, 399689, Note_on_c, 15, 33, 0
20, 399720, Note_on_c, 15, 33, 68
20, 399809, Note_on_c, 15, 33, 0
20, 399840, Note_on_c, 15, 33, 70
20, 399929, Note_on_c, 15, 33, 0
20, 399960, Note_on_c, 15, 33, 72
20, 400049, Note_on_c, 15, 33, 0
20, 400080, Note_on_c, 15, 33, 73
20, 400169, Note_on_c, 15, 33, 0
20, 400200, Note_on_c, 15, 33, 75
20, 400289, Note_on_c, 15, 33, 0
20, 400320, Note_on_c, 15, 33, 77
20, 400409, Note_on_c, 15, 33, 0
20, 400440, Note_on_c, 15, 33, 78
20, 400529, Note_on_c, 15, 33, 0
20, 400560, Note_on_c, 15, 33, 80
20, 400649, Note_on_c, 15, 33, 0
20, 400680, Note_on_c, 15, 33, 82
20, 400769, Note_on_c, 15, 33, 0
20, 400800, Note_on_c, 15, 33, 83
20, 400889, Note_on_c, 15, 33, 0
20, 400920, Note_on_c, 15, 33, 85
20, 401009, Note_on_c, 15, 33, 0
20, 401040, Note_on_c, 15, 43, 87
20, 401129, Note_on_c, 15, 43, 0
20, 401160, Note_on_c, 15, 41, 88
20, 401249, Note_on_c, 15, 41, 0
20, 401280, Note_on_c, 15, 40, 90
20, 401369, Note_on_c, 15, 40, 0
20, 401400, Note_on_c, 15, 38, 92
20, 401519, Note_on_c, 15, 38, 0
20, 401760, Note_on_c, 15, 50, 92
20, 401879, Note_on_c, 15, 50, 0
20, 402120, Note_on_c, 15, 45, 92
20, 402239, Note_on_c, 15, 45, 0
20, 402480, Note_on_c, 15, 38, 92
20, 402599, Note_on_c, 15, 38, 0
20, 402840, Note_on_c, 15, 43, 80
20, 402959, Note_on_c, 15, 43, 0
20, 403200, Note_on_c, 15, 45, 80
20, 403319, Note_on_c, 15, 45, 0
20, 403560, Note_on_c, 15, 33, 80
20, 403679, Note_on_c, 15, 33, 0
20, 403920, Note_on_c, 15, 38, 80
20, 404039, Note_on_c, 15, 38, 0
20, 404280, Note_on_c, 15, 43, 80
20, 404399, Note_on_c, 15, 43, 0
20, 404640, Note_on_c, 15, 45, 80
20, 404759, Note_on_c, 15, 45, 0
20, 405000, Note_on_c, 15, 33, 80
20, 405119, Note_on_c, 15, 33, 0
20, 405360, Note_on_c, 15, 38, 80
20, 405479, Note_on_c, 15, 38, 0
20, 405600, Note_on_c, 15, 31, 80
20, 405704, Note_on_c, 15, 31, 0
20, 405720, Note_on_c, 15, 31, 80
20, 405839, Note_on_c, 15, 31, 0
20, 406080, Note_on_c, 15, 36, 80
20, 406199, Note_on_c, 15, 36, 0
20, 406440, Note_on_c, 15, 43, 80
20, 406559, Note_on_c, 15, 43, 0
20, 406800, Note_on_c, 15, 48, 80
20, 406904, Note_on_c, 15, 48, 0
20, 406920, Note_on_c, 15, 43, 80
20, 407024, Note_on_c, 15, 43, 0
20, 407040, Note_on_c, 15, 43, 80
20, 407144, Note_on_c, 15, 43, 0
20, 407160, Note_on_c, 15, 31, 80
20, 407279, Note_on_c, 15, 31, 0
20, 407520, Note_on_c, 15, 36, 80
20, 407639, Note_on_c, 15, 36, 0
20, 407880, Note_on_c, 15, 48, 80
20, 407999, Note_on_c, 15, 48, 0
20, 408240, Note_on_c, 15, 48, 80
20, 408359, Note_on_c, 15, 48, 0
20, 408600, Note_on_c, 15, 43, 80
20, 408600, Note_on_c, 15, 31, 80
20, 408719, Note_on_c, 15, 43, 0
20, 408719, Note_on_c, 15, 31, 0
20, 411480, Program_c, 15, 45
20, 411840, Note_on_c, 15, 48, 38
20, 411959, Note_on_c, 15, 48, 0
20, 412200, Note_on_c, 15, 41, 44
20, 412319, Note_on_c, 15, 41, 0
20, 412560, Note_on_c, 15, 38, 51
20, 412679, Note_on_c, 15, 38, 0
20, 412920, Note_on_c, 15, 43, 57
20, 413039, Note_on_c, 15, 43, 0
20, 413280, Note_on_c, 15, 48, 64
20, 413399, Note_on_c, 15, 48, 0
20, 413640, Note_on_c, 15, 43, 70
20, 413759, Note_on_c, 15, 43, 0
20, 414000, Note_on_c, 15, 31, 77
20, 414119, Note_on_c, 15, 31, 0
20, 414240, Program_c, 15, 48
20, 414360, Note_on_c, 15, 36, 92
20, 414524, Note_on_c, 15, 36, 0
20, 414540, Note_on_c, 15, 24, 92
20, 414584, Note_on_c, 15, 24, 0
20, 414600, Note_on_c, 15, 24, 92
20, 414704, Note_on_c, 15, 24, 0
20, 414720, Note_on_c, 15, 36, 92
20, 414884, Note_on_c, 15, 36, 0
20, 414900, Note_on_c, 15, 24, 92
20, 414944, Note_on_c, 15, 24, 0
20, 414960, Note_on_c, 15, 24, 92
20, 415064, Note_on_c, 15, 24, 0
20, 415080, Note_on_c, 15, 36, 92
20, 415244, Note_on_c, 15, 36, 0
20, 415260, Note_on_c, 15, 24, 92
20, 415304, Note_on_c, 15, 24, 0
20, 415320, Note_on_c, 15, 24, 92
20, 415424, Note_on_c, 15, 24, 0
20, 415440, Note_on_c, 15, 36, 92
20, 415604, Note_on_c, 15, 36, 0
20, 415620, Note_on_c, 15, 24, 92
20, 415664, Note_on_c, 15, 24, 0
20, 415680, Note_on_c, 15, 24, 92
20, 415784, Note_on_c, 15, 24, 0
20, 415800, Note_on_c, 15, 36, 92
20, 415964, Note_on_c, 15, 36, 0
20, 415980, Note_on_c, 15, 24, 92
20, 416024, Note_on_c, 15, 24, 0
20, 416040, Note_on_c, 15, 24, 92
20, 416144, Note_on_c, 15, 24, 0
20, 416160, Note_on_c, 15, 36, 92
20, 416324, Note_on_c, 15, 36, 0
20, 416340, Note_on_c, 15, 24, 92
20, 416384, Note_on_c, 15, 24, 0
20, 416400, Note_on_c, 15, 24, 92
20, 416504, Note_on_c, 15, 24, 0
20, 416520, Note_on_c, 15, 36, 92
20, 416684, Note_on_c, 15, 36, 0
20, 416700, Note_on_c, 15, 24, 92
20, 416744, Note_on_c, 15, 24, 0
20, 416760, Note_on_c, 15, 24, 92
20, 416864, Note_on_c, 15, 24, 0
20, 416880, Note_on_c, 15, 36, 92
20, 417044, Note_on_c, 15, 36, 0
20, 417060, Note_on_c, 15, 24, 92
20, 417104, Note_on_c, 15, 24, 0
20, 417120, Note_on_c, 15, 24, 92
20, 417224, Note_on_c, 15, 24, 0
20, 417240, Note_on_c, 15, 36, 92
20, 417404, Note_on_c, 15, 36, 0
20, 417420, Note_on_c, 15, 24, 92
20, 417464, Note_on_c, 15, 24, 0
20, 417480, Note_on_c, 15, 24, 92
20, 417584, Note_on_c, 15, 24, 0
20, 417600, Note_on_c, 15, 36, 92
20, 417764, Note_on_c, 15, 36, 0
20, 417780, Note_on_c, 15, 24, 92
20, 417824, Note_on_c, 15, 24, 0
20, 417840, Note_on_c, 15, 24, 92
20, 417944, Note_on_c, 15, 24, 0
20, 417960, Note_on_c, 15, 36, 92
20, 418124, Note_on_c, 15, 36, 0
20, 418140, Note_on_c, 15, 24, 92
20, 418184, Note_on_c, 15, 24, 0
20, 418200, Note_on_c, 15, 24, 92
20, 418304, Note_on_c, 15, 24, 0
20, 418320, Note_on_c, 15, 36, 92
20, 418484, Note_on_c, 15, 36, 0
20, 418500, Note_on_c, 15, 24, 92
20, 418544, Note_on_c, 15, 24, 0
20, 418560, Note_on_c, 15, 24, 92
20, 418664, Note_on_c, 15, 24, 0
20, 418680, Note_on_c, 15, 36, 92
20, 418844, Note_on_c, 15, 36, 0
20, 418860, Note_on_c, 15, 24, 92
20, 418904, Note_on_c, 15, 24, 0
20, 418920, Note_on_c, 15, 24, 92
20, 419024, Note_on_c, 15, 24, 0
20, 419040, Note_on_c, 15, 36, 92
20, 419204, Note_on_c, 15, 36, 0
20, 419220, Note_on_c, 15, 24, 92
20, 419264, Note_on_c, 15, 24, 0
20, 419280, Note_on_c, 15, 24, 92
20, 419384, Note_on_c, 15, 24, 0
20, 419400, Note_on_c, 15, 36, 92
20, 419564, Note_on_c, 15, 36, 0
20, 419580, Note_on_c, 15, 24, 92
20, 419624, Note_on_c, 15, 24, 0
20, 419640, Note_on_c, 15, 24, 92
20, 419744, Note_on_c, 15, 24, 0
20, 419760, Note_on_c, 15, 36, 92
20, 419924, Note_on_c, 15, 36, 0
20, 419940, Note_on_c, 15, 24, 92
20, 419984, Note_on_c, 15, 24, 0
20, 420000, Note_on_c, 15, 24, 92
20, 420104, Note_on_c, 15, 24, 0
20, 420120, Note_on_c, 15, 36, 92
20, 420239, Note_on_c, 15, 36, 0
20, 420840, Note_on_c, 15, 41, 92
20, 421004, Note_on_c, 15, 41, 0
20, 421020, Note_on_c, 15, 29, 92
20, 421064, Note_on_c, 15, 29, 0
20, 421080, Note_on_c, 15, 29, 92
20, 421184, Note_on_c, 15, 29, 0
20, 421200, Note_on_c, 15, 41, 92
20, 421289, Note_on_c, 15, 41, 0
20, 421320, Note_on_c, 15, 38, 92
20, 421409, Note_on_c, 15, 38, 0
20, 421440, Note_on_c, 15, 36, 92
20, 421529, Note_on_c, 15, 36, 0
20, 421560, Note_on_c, 15, 35, 92
20, 421679, Note_on_c, 15, 35, 0
20, 422280, Note_on_c, 15, 52, 92
20, 422444, Note_on_c, 15, 52, 0
20, 422460, Note_on_c, 15, 40, 92
20, 422504, Note_on_c, 15, 40, 0
20, 422520, Note_on_c, 15, 40, 92
20, 422624, Note_on_c, 15, 40, 0
20, 422640, Note_on_c, 15, 52, 92
20, 422729, Note_on_c, 15, 52, 0
20, 422760, Note_on_c, 15, 48, 92
20, 422849, Note_on_c, 15, 48, 0
20, 422880, Note_on_c, 15, 47, 92
20, 422969, Note_on_c, 15, 47, 0
20, 422998, Control_c, 15, 11, 87
20, 423000, Note_on_c, 15, 46, 68
20, 423720, Control_c, 15, 11, 87
20, 423750, Control_c, 15, 11, 89
20, 423780, Control_c, 15, 11, 90
20, 423810, Control_c, 15, 11, 92
20, 423840, Control_c, 15, 11, 94
20, 423870, Control_c, 15, 11, 95
20, 423900, Control_c, 15, 11, 97
20, 423930, Control_c, 15, 11, 99
20, 423960, Control_c, 15, 11, 100
20, 423990, Control_c, 15, 11, 102
20, 424020, Control_c, 15, 11, 104
20, 424050, Control_c, 15, 11, 105
20, 424080, Control_c, 15, 11, 107
20, 424110, Control_c, 15, 11, 109
20, 424140, Control_c, 15, 11, 110
20, 424170, Control_c, 15, 11, 112
20, 424199, Note_on_c, 15, 46, 0
20, 424200, Control_c, 15, 11, 114
20, 424200, Note_on_c, 15, 45, 68
20, 424230, Control_c, 15, 11, 115
20, 424260, Control_c, 15, 11, 117
20, 424290, Control_c, 15, 11, 119
20, 424319, Note_on_c, 15, 45, 0
20, 424320, Control_c, 15, 11, 120
20, 424320, Note_on_c, 15, 43, 68
20, 424350, Control_c, 15, 11, 122
20, 424380, Control_c, 15, 11, 124
20, 424410, Control_c, 15, 11, 125
20, 424439, Note_on_c, 15, 43, 0
20, 424440, Control_c, 15, 11, 127
20, 424440, Note_on_c, 15, 45, 68
20, 424470, Control_c, 15, 11, 125
20, 424500, Control_c, 15, 11, 124
20, 424530, Control_c, 15, 11, 122
20, 424559, Note_on_c, 15, 45, 0
20, 424560, Control_c, 15, 11, 120
20, 424560, Note_on_c, 15, 43, 68
20, 424590, Control_c, 15, 11, 119
20, 424620, Control_c, 15, 11, 117
20, 424650, Control_c, 15, 11, 115
20, 424679, Note_on_c, 15, 43, 0
20, 424680, Note_on_c, 15, 42, 68
20, 424680, Control_c, 15, 11, 114
20, 424710, Control_c, 15, 11, 112
20, 424740, Control_c, 15, 11, 110
20, 424770, Control_c, 15, 11, 109
20, 424799, Note_on_c, 15, 42, 0
20, 424800, Note_on_c, 15, 43, 68
20, 424800, Control_c, 15, 11, 107
20, 424830, Control_c, 15, 11, 105
20, 424860, Control_c, 15, 11, 104
20, 424890, Control_c, 15, 11, 102
20, 424920, Control_c, 15, 11, 100
20, 424950, Control_c, 15, 11, 99
20, 424980, Control_c, 15, 11, 97
20, 425010, Control_c, 15, 11, 95
20, 425070, Control_c, 15, 11, 92
20, 425100, Control_c, 15, 11, 90
20, 425130, Control_c, 15, 11, 87
20, 425159, Note_on_c, 15, 43, 0
20, 426960, Control_c, 15, 11, 127
20, 427320, Note_on_c, 15, 43, 80
20, 427409, Note_on_c, 15, 43, 0
20, 427440, Note_on_c, 15, 48, 80
20, 427529, Note_on_c, 15, 48, 0
20, 427560, Note_on_c, 15, 45, 80
20, 427649, Note_on_c, 15, 45, 0
20, 427680, Note_on_c, 15, 41, 80
20, 427769, Note_on_c, 15, 41, 0
20, 427800, Note_on_c, 15, 43, 80
20, 427889, Note_on_c, 15, 43, 0
20, 427920, Note_on_c, 15, 31, 80
20, 428009, Note_on_c, 15, 31, 0
20, 428040, Note_on_c, 15, 36, 80
20, 428159, Note_on_c, 15, 36, 0
20, 428760, Note_on_c, 15, 43, 80
20, 428849, Note_on_c, 15, 43, 0
20, 428880, Note_on_c, 15, 40, 80
20, 428969, Note_on_c, 15, 40, 0
20, 429000, Note_on_c, 15, 45, 80
20, 429089, Note_on_c, 15, 45, 0
20, 429120, Note_on_c, 15, 41, 80
20, 429209, Note_on_c, 15, 41, 0
20, 429240, Note_on_c, 15, 38, 80
20, 429329, Note_on_c, 15, 38, 0
20, 429360, Note_on_c, 15, 43, 80
20, 429449, Note_on_c, 15, 43, 0
20, 429480, Note_on_c, 15, 36, 80
20, 429599, Note_on_c, 15, 36, 0
20, 429840, Note_on_c, 15, 55, 80
20, 430004, Note_on_c, 15, 55, 0
20, 430020, Note_on_c, 15, 43, 80
20, 430064, Note_on_c, 15, 43, 0
20, 430080, Note_on_c, 15, 43, 80
20, 430184, Note_on_c, 15, 43, 0
20, 430200, Note_on_c, 15, 36, 80
20, 430319, Note_on_c, 15, 36, 0
20, 430560, Note_on_c, 15, 55, 80
20, 430724, Note_on_c, 15, 55, 0
20, 430740, Note_on_c, 15, 43, 80
20, 430784, Note_on_c, 15, 43, 0
20, 430800, Note_on_c, 15, 43, 80
20, 430904, Note_on_c, 15, 43, 0
20, 430920, Note_on_c, 15, 31, 32
20, 431009, Note_on_c, 15, 31, 0
20, 431040, Note_on_c, 15, 31, 32
20, 431129, Note_on_c, 15, 31, 0
20, 431160, Note_on_c, 15, 31, 32
20, 431249, Note_on_c, 15, 31, 0
20, 431280, Note_on_c, 15, 31, 32
20, 431369, Note_on_c, 15, 31, 0
20, 431400, Note_on_c, 15, 31, 32
20, 431489, Note_on_c, 15, 31, 0
20, 431520, Note_on_c, 15, 31, 32
20, 431609, Note_on_c, 15, 31, 0
20, 431640, Note_on_c, 15, 31, 32
20, 431729, Note_on_c, 15, 31, 0
20, 431760, Note_on_c, 15, 31, 32
20, 431849, Note_on_c, 15, 31, 0
20, 431880, Note_on_c, 15, 31, 32
20, 431969, Note_on_c, 15, 31, 0
20, 432000, Note_on_c, 15, 31, 32
20, 432089, Note_on_c, 15, 31, 0
20, 432120, Note_on_c, 15, 31, 32
20, 432209, Note_on_c, 15, 31, 0
20, 432240, Note_on_c, 15, 31, 32
20, 432329, Note_on_c, 15, 31, 0
20, 432360, Note_on_c, 15, 24, 32
20, 432524, Note_on_c, 15, 24, 0
20, 432540, Note_on_c, 15, 36, 32
20, 432584, Note_on_c, 15, 36, 0
20, 432600, Note_on_c, 15, 36, 32
20, 432704, Note_on_c, 15, 36, 0
20, 432720, Note_on_c, 15, 33, 32
20, 432839, Note_on_c, 15, 33, 0
20, 433080, Note_on_c, 15, 29, 32
20, 433244, Note_on_c, 15, 29, 0
20, 433260, Note_on_c, 15, 41, 32
20, 433304, Note_on_c, 15, 41, 0
20, 433320, Note_on_c, 15, 41, 32
20, 433424, Note_on_c, 15, 41, 0
20, 433440, Note_on_c, 15, 38, 32
20, 433559, Note_on_c, 15, 38, 0
20, 441000, Note_on_c, 15, 45, 32
20, 441164, Note_on_c, 15, 45, 0
20, 441180, Note_on_c, 15, 33, 32
20, 441224, Note_on_c, 15, 33, 0
20, 441240, Note_on_c, 15, 33, 32
20, 441344, Note_on_c, 15, 33, 0
20, 441360, Note_on_c, 15, 38, 32
20, 441449, Note_on_c, 15, 38, 0
20, 441480, Note_on_c, 15, 40, 32
20, 441569, Note_on_c, 15, 40, 0
20, 441600, Note_on_c, 15, 41, 32
20, 441689, Note_on_c, 15, 41, 0
20, 441720, Note_on_c, 15, 40, 32
20, 441809, Note_on_c, 15, 40, 0
20, 441840, Note_on_c, 15, 41, 32
20, 441929, Note_on_c, 15, 41, 0
20, 441960, Note_on_c, 15, 43, 32
20, 442049, Note_on_c, 15, 43, 0
20, 442080, Note_on_c, 15, 41, 32
20, 442169, Note_on_c, 15, 41, 0
20, 442200, Note_on_c, 15, 40, 32
20, 442289, Note_on_c, 15, 40, 0
20, 442320, Note_on_c, 15, 38, 32
20, 442409, Note_on_c, 15, 38, 0
20, 442440, Note_on_c, 15, 41, 32
20, 442529, Note_on_c, 15, 41, 0
20, 442560, Note_on_c, 15, 40, 32
20, 442649, Note_on_c, 15, 40, 0
20, 442680, Note_on_c, 15, 38, 32
20, 442769, Note_on_c, 15, 38, 0
20, 442800, Note_on_c, 15, 36, 32
20, 442889, Note_on_c, 15, 36, 0
20, 442920, Note_on_c, 15, 35, 32
20, 443009, Note_on_c, 15, 35, 0
20, 443040, Note_on_c, 15, 33, 32
20, 443129, Note_on_c, 15, 33, 0
20, 443160, Note_on_c, 15, 32, 32
20, 443249, Note_on_c, 15, 32, 0
20, 443280, Note_on_c, 15, 33, 32
20, 443369, Note_on_c, 15, 33, 0
20, 443400, Note_on_c, 15, 35, 32
20, 443489, Note_on_c, 15, 35, 0
20, 443520, Note_on_c, 15, 33, 32
20, 443609, Note_on_c, 15, 33, 0
20, 443640, Note_on_c, 15, 32, 32
20, 443729, Note_on_c, 15, 32, 0
20, 443760, Note_on_c, 15, 33, 32
20, 443849, Note_on_c, 15, 33, 0
20, 443880, Note_on_c, 15, 33, 32
20, 443969, Note_on_c, 15, 33, 0
20, 444000, Note_on_c, 15, 33, 32
20, 444089, Note_on_c, 15, 33, 0
20, 444120, Note_on_c, 15, 33, 32
20, 444209, Note_on_c, 15, 33, 0
20, 444240, Note_on_c, 15, 33, 32
20, 444329, Note_on_c, 15, 33, 0
20, 444360, Note_on_c, 15, 33, 32
20, 444449, Note_on_c, 15, 33, 0
20, 444480, Note_on_c, 15, 33, 32
20, 444569, Note_on_c, 15, 33, 0
20, 444600, Note_on_c, 15, 33, 32
20, 444689, Note_on_c, 15, 33, 0
20, 444720, Note_on_c, 15, 33, 32
20, 444809, Note_on_c, 15, 33, 0
20, 444840, Note_on_c, 15, 33, 32
20, 444929, Note_on_c, 15, 33, 0
20, 444960, Note_on_c, 15, 33, 32
20, 445049, Note_on_c, 15, 33, 0
20, 445080, Note_on_c, 15, 33, 32
20, 445169, Note_on_c, 15, 33, 0
20, 445200, Note_on_c, 15, 33, 32
20, 445289, Note_on_c, 15, 33, 0
20, 445320, Note_on_c, 15, 33, 32
20, 445409, Note_on_c, 15, 33, 0
20, 445440, Note_on_c, 15, 33, 32
20, 445529, Note_on_c, 15, 33, 0
20, 445560, Note_on_c, 15, 33, 32
20, 445649, Note_on_c, 15, 33, 0
20, 445680, Note_on_c, 15, 33, 32
20, 445769, Note_on_c, 15, 33, 0
20, 445800, Note_on_c, 15, 33, 32
20, 445889, Note_on_c, 15, 33, 0
20, 445920, Note_on_c, 15, 33, 32
20, 446009, Note_on_c, 15, 33, 0
20, 446040, Note_on_c, 15, 33, 32
20, 446129, Note_on_c, 15, 33, 0
20, 446160, Note_on_c, 15, 33, 32
20, 446249, Note_on_c, 15, 33, 0
20, 446280, Note_on_c, 15, 33, 32
20, 446369, Note_on_c, 15, 33, 0
20, 446400, Note_on_c, 15, 33, 32
20, 446489, Note_on_c, 15, 33, 0
20, 446520, Note_on_c, 15, 33, 32
20, 446609, Note_on_c, 15, 33, 0
20, 446640, Note_on_c, 15, 33, 32
20, 446729, Note_on_c, 15, 33, 0
20, 446760, Note_on_c, 15, 33, 32
20, 446849, Note_on_c, 15, 33, 0
20, 446880, Note_on_c, 15, 33, 32
20, 446969, Note_on_c, 15, 33, 0
20, 447000, Note_on_c, 15, 33, 32
20, 447089, Note_on_c, 15, 33, 0
20, 447120, Note_on_c, 15, 33, 32
20, 447209, Note_on_c, 15, 33, 0
20, 447240, Note_on_c, 15, 33, 32
20, 447329, Note_on_c, 15, 33, 0
20, 447360, Note_on_c, 15, 33, 32
20, 447449, Note_on_c, 15, 33, 0
20, 447480, Note_on_c, 15, 33, 32
20, 447569, Note_on_c, 15, 33, 0
20, 447600, Note_on_c, 15, 33, 32
20, 447689, Note_on_c, 15, 33, 0
20, 447720, Note_on_c, 15, 33, 32
20, 447809, Note_on_c, 15, 33, 0
20, 447840, Note_on_c, 15, 33, 32
20, 447929, Note_on_c, 15, 33, 0
20, 447960, Note_on_c, 15, 33, 32
20, 448049, Note_on_c, 15, 33, 0
20, 448080, Note_on_c, 15, 33, 32
20, 448169, Note_on_c, 15, 33, 0
20, 448200, Note_on_c, 15, 33, 32
20, 448289, Note_on_c, 15, 33, 0
20, 448320, Note_on_c, 15, 33, 33
20, 448409, Note_on_c, 15, 33, 0
20, 448440, Note_on_c, 15, 33, 35
20, 448529, Note_on_c, 15, 33, 0
20, 448560, Note_on_c, 15, 33, 37
20, 448649, Note_on_c, 15, 33, 0
20, 448680, Note_on_c, 15, 33, 38
20, 448769, Note_on_c, 15, 33, 0
20, 448800, Note_on_c, 15, 33, 40
20, 448889, Note_on_c, 15, 33, 0
20, 448920, Note_on_c, 15, 33, 42
20, 449009, Note_on_c, 15, 33, 0
20, 449040, Note_on_c, 15, 33, 43
20, 449129, Note_on_c, 15, 33, 0
20, 449160, Note_on_c, 15, 33, 45
20, 449249, Note_on_c, 15, 33, 0
20, 449280, Note_on_c, 15, 33, 47
20, 449369, Note_on_c, 15, 33, 0
20, 449400, Note_on_c, 15, 33, 48
20, 449489, Note_on_c, 15, 33, 0
20, 449520, Note_on_c, 15, 33, 50
20, 449609, Note_on_c, 15, 33, 0
20, 449640, Note_on_c, 15, 33, 52
20, 449729, Note_on_c, 15, 33, 0
20, 449760, Note_on_c, 15, 33, 53
20, 449849, Note_on_c, 15, 33, 0
20, 449880, Note_on_c, 15, 33, 55
20, 449969, Note_on_c, 15, 33, 0
20, 450000, Note_on_c, 15, 33, 57
20, 450089, Note_on_c, 15, 33, 0
20, 450120, Note_on_c, 15, 33, 58
20, 450209, Note_on_c, 15, 33, 0
20, 450240, Note_on_c, 15, 33, 60
20, 450329, Note_on_c, 15, 33, 0
20, 450360, Note_on_c, 15, 33, 62
20, 450449, Note_on_c, 15, 33, 0
20, 450480, Note_on_c, 15, 33, 63
20, 450569, Note_on_c, 15, 33, 0
20, 450600, Note_on_c, 15, 33, 65
20, 450689, Note_on_c, 15, 33, 0
20, 450720, Note_on_c, 15, 33, 67
20, 450809, Note_on_c, 15, 33, 0
20, 450840, Note_on_c, 15, 33, 68
20, 450929, Note_on_c, 15, 33, 0
20, 450960, Note_on_c, 15, 33, 70
20, 451049, Note_on_c, 15, 33, 0
20, 451080, Note_on_c, 15, 33, 72
20, 451169, Note_on_c, 15, 33, 0
20, 451200, Note_on_c, 15, 33, 73
20, 451289, Note_on_c, 15, 33, 0
20, 451320, Note_on_c, 15, 33, 75
20, 451409, Note_on_c, 15, 33, 0
20, 451440, Note_on_c, 15, 33, 77
20, 451529, Note_on_c, 15, 33, 0
20, 451560, Note_on_c, 15, 33, 78
20, 451649, Note_on_c, 15, 33, 0
20, 451680, Note_on_c, 15, 33, 80
20, 451769, Note_on_c, 15, 33, 0
20, 451800, Note_on_c, 15, 33, 82
20, 451889, Note_on_c, 15, 33, 0
20, 451920, Note_on_c, 15, 33, 83
20, 452009, Note_on_c, 15, 33, 0
20, 452040, Note_on_c, 15, 33, 85
20, 452129, Note_on_c, 15, 33, 0
20, 452160, Note_on_c, 15, 43, 87
20, 452249, Note_on_c, 15, 43, 0
20, 452280, Note_on_c, 15, 41, 88
20, 452369, Note_on_c, 15, 41, 0
20, 452400, Note_on_c, 15, 40, 90
20, 452489, Note_on_c, 15, 40, 0
20, 452520, Note_on_c, 15, 38, 92
20, 452639, Note_on_c, 15, 38, 0
20, 452880, Note_on_c, 15, 50, 92
20, 452999, Note_on_c, 15, 50, 0
20, 453240, Note_on_c, 15, 45, 92
20, 453359, Note_on_c, 15, 45, 0
20, 453600, Note_on_c, 15, 38, 92
20, 453719, Note_on_c, 15, 38, 0
20, 453960, Note_on_c, 15, 43, 80
20, 454079, Note_on_c, 15, 43, 0
20, 454320, Note_on_c, 15, 45, 80
20, 454439, Note_on_c, 15, 45, 0
20, 454680, Note_on_c, 15, 33, 80
20, 454799, Note_on_c, 15, 33, 0
20, 455040, Note_on_c, 15, 38, 80
20, 455159, Note_on_c, 15, 38, 0
20, 455400, Note_on_c, 15, 43, 80
20, 455519, Note_on_c, 15, 43, 0
20, 455760, Note_on_c, 15, 45, 80
20, 455879, Note_on_c, 15, 45, 0
20, 456120, Note_on_c, 15, 33, 80
20, 456239, Note_on_c, 15, 33, 0
20, 456480, Note_on_c, 15, 38, 80
20, 456599, Note_on_c, 15, 38, 0
20, 456720, Note_on_c, 15, 31, 80
20, 456824, Note_on_c, 15, 31, 0
20, 456840, Note_on_c, 15, 31, 80
20, 456959, Note_on_c, 15, 31, 0
20, 457200, Note_on_c, 15, 36, 80
20, 457319, Note_on_c, 15, 36, 0
20, 457560, Note_on_c, 15, 43, 80
20, 457679, Note_on_c, 15, 43, 0
20, 457920, Note_on_c, 15, 48, 80
20, 458024, Note_on_c, 15, 48, 0
20, 458040, Note_on_c, 15, 43, 80
20, 458144, Note_on_c, 15, 43, 0
20, 458160, Note_on_c, 15, 43, 80
20, 458264, Note_on_c, 15, 43, 0
20, 458280, Note_on_c, 15, 31, 80
20, 458399, Note_on_c, 15, 31, 0
20, 458640, Note_on_c, 15, 36, 80
20, 458759, Note_on_c, 15, 36, 0
20, 459000, Note_on_c, 15, 48, 80
20, 459119, Note_on_c, 15, 48, 0
20, 459360, Note_on_c, 15, 48, 80
20, 459479, Note_on_c, 15, 48, 0
20, 459720, Note_on_c, 15, 31, 80
20, 459720, Note_on_c, 15, 43, 80
20, 459839, Note_on_c, 15, 31, 0
20, 459839, Note_on_c, 15, 43, 0
20, 462600, Program_c, 15, 45
20, 462960, Note_on_c, 15, 48, 38
20, 463079, Note_on_c, 15, 48, 0
20, 463320, Note_on_c, 15, 41, 44
20, 463439, Note_on_c, 15, 41, 0
20, 463680, Note_on_c, 15, 38, 51
20, 463799, Note_on_c, 15, 38, 0
20, 464040, Note_on_c, 15, 43, 57
20, 464159, Note_on_c, 15, 43, 0
20, 464400, Note_on_c, 15, 48, 64
20, 464519, Note_on_c, 15, 48, 0
20, 464760, Note_on_c, 15, 43, 70
20, 464879, Note_on_c, 15, 43, 0
20, 465120, Note_on_c, 15, 31, 77
20, 465239, Note_on_c, 15, 31, 0
20, 465360, Program_c, 15, 48
20, 465480, Note_on_c, 15, 36, 92
20, 465644, Note_on_c, 15, 36, 0
20, 465660, Note_on_c, 15, 24, 92
20, 465704, Note_on_c, 15, 24, 0
20, 465720, Note_on_c, 15, 24, 92
20, 465824, Note_on_c, 15, 24, 0
20, 465840, Note_on_c, 15, 36, 92
20, 466004, Note_on_c, 15, 36, 0
20, 466020, Note_on_c, 15, 24, 92
20, 466064, Note_on_c, 15, 24, 0
20, 466080, Note_on_c, 15, 24, 92
20, 466184, Note_on_c, 15, 24, 0
20, 466200, Note_on_c, 15, 36, 92
20, 466364, Note_on_c, 15, 36, 0
20, 466380, Note_on_c, 15, 24, 92
20, 466424, Note_on_c, 15, 24, 0
20, 466440, Note_on_c, 15, 24, 92
20, 466544, Note_on_c, 15, 24, 0
20, 466560, Note_on_c, 15, 36, 92
20, 466724, Note_on_c, 15, 36, 0
20, 466740, Note_on_c, 15, 24, 92
20, 466784, Note_on_c, 15, 24, 0
20, 466800, Note_on_c, 15, 24, 92
20, 466904, Note_on_c, 15, 24, 0
20, 466920, Note_on_c, 15, 36, 92
20, 467084, Note_on_c, 15, 36, 0
20, 467100, Note_on_c, 15, 24, 92
20, 467144, Note_on_c, 15, 24, 0
20, 467160, Note_on_c, 15, 24, 92
20, 467264, Note_on_c, 15, 24, 0
20, 467280, Note_on_c, 15, 36, 92
20, 467444, Note_on_c, 15, 36, 0
20, 467460, Note_on_c, 15, 24, 92
20, 467504, Note_on_c, 15, 24, 0
20, 467520, Note_on_c, 15, 24, 92
20, 467624, Note_on_c, 15, 24, 0
20, 467640, Note_on_c, 15, 36, 92
20, 467804, Note_on_c, 15, 36, 0
20, 467820, Note_on_c, 15, 24, 92
20, 467864, Note_on_c, 15, 24, 0
20, 467880, Note_on_c, 15, 24, 92
20, 467984, Note_on_c, 15, 24, 0
20, 468000, Note_on_c, 15, 36, 92
20, 468164, Note_on_c, 15, 36, 0
20, 468180, Note_on_c, 15, 24, 92
20, 468224, Note_on_c, 15, 24, 0
20, 468240, Note_on_c, 15, 24, 92
20, 468344, Note_on_c, 15, 24, 0
20, 468360, Note_on_c, 15, 36, 92
20, 468524, Note_on_c, 15, 36, 0
20, 468540, Note_on_c, 15, 24, 92
20, 468584, Note_on_c, 15, 24, 0
20, 468600, Note_on_c, 15, 24, 92
20, 468704, Note_on_c, 15, 24, 0
20, 468720, Note_on_c, 15, 36, 92
20, 468884, Note_on_c, 15, 36, 0
20, 468900, Note_on_c, 15, 24, 92
20, 468944, Note_on_c, 15, 24, 0
20, 468960, Note_on_c, 15, 24, 92
20, 469064, Note_on_c, 15, 24, 0
20, 469080, Note_on_c, 15, 36, 92
20, 469244, Note_on_c, 15, 36, 0
20, 469260, Note_on_c, 15, 24, 92
20, 469304, Note_on_c, 15, 24, 0
20, 469320, Note_on_c, 15, 24, 92
20, 469424, Note_on_c, 15, 24, 0
20, 469440, Note_on_c, 15, 36, 92
20, 469604, Note_on_c, 15, 36, 0
20, 469620, Note_on_c, 15, 24, 92
20, 469664, Note_on_c, 15, 24, 0
20, 469680, Note_on_c, 15, 24, 92
20, 469784, Note_on_c, 15, 24, 0
20, 469800, Note_on_c, 15, 36, 92
20, 469964, Note_on_c, 15, 36, 0
20, 469980, Note_on_c, 15, 24, 92
20, 470024, Note_on_c, 15, 24, 0
20, 470040, Note_on_c, 15, 24, 92
20, 470144, Note_on_c, 15, 24, 0
20, 470160, Note_on_c, 15, 36, 92
20, 470324, Note_on_c, 15, 36, 0
20, 470340, Note_on_c, 15, 24, 92
20, 470384, Note_on_c, 15, 24, 0
20, 470400, Note_on_c, 15, 24, 92
20, 470504, Note_on_c, 15, 24, 0
20, 470520, Note_on_c, 15, 36, 92
20, 470684, Note_on_c, 15, 36, 0
20, 470700, Note_on_c, 15, 24, 92
20, 470744, Note_on_c, 15, 24, 0
20, 470760, Note_on_c, 15, 24, 92
20, 470864, Note_on_c, 15, 24, 0
20, 470880, Note_on_c, 15, 36, 92
20, 471044, Note_on_c, 15, 36, 0
20, 471060, Note_on_c, 15, 24, 92
20, 471104, Note_on_c, 15, 24, 0
20, 471120, Note_on_c, 15, 24, 92
20, 471224, Note_on_c, 15, 24, 0
20, 471240, Note_on_c, 15, 36, 92
20, 471359, Note_on_c, 15, 36, 0
20, 471960, Note_on_c, 15, 41, 92
20, 472124, Note_on_c, 15, 41, 0
20, 472140, Note_on_c, 15, 29, 92
20, 472184, Note_on_c, 15, 29, 0
20, 472200, Note_on_c, 15, 29, 92
20, 472304, Note_on_c, 15, 29, 0
20, 472320, Note_on_c, 15, 41, 92
20, 472409, Note_on_c, 15, 41, 0
20, 472440, Note_on_c, 15, 38, 92
20, 472529, Note_on_c, 15, 38, 0
20, 472560, Note_on_c, 15, 36, 92
20, 472649, Note_on_c, 15, 36, 0
20, 472680, Note_on_c, 15, 35, 92
20, 472799, Note_on_c, 15, 35, 0
20, 473400, Note_on_c, 15, 52, 92
20, 473564, Note_on_c, 15, 52, 0
20, 473580, Note_on_c, 15, 40, 92
20, 473624, Note_on_c, 15, 40, 0
20, 473640, Note_on_c, 15, 40, 92
20, 473744, Note_on_c, 15, 40, 0
20, 473760, Note_on_c, 15, 52, 92
20, 473849, Note_on_c, 15, 52, 0
20, 473880, Note_on_c, 15, 48, 92
20, 473969, Note_on_c, 15, 48, 0
20, 474000, Note_on_c, 15, 47, 92
20, 474089, Note_on_c, 15, 47, 0
20, 474118, Control_c, 15, 11, 87
20, 474120, Note_on_c, 15, 46, 68
20, 474840, Control_c, 15, 11, 87
20, 474870, Control_c, 15, 11, 89
20, 474900, Control_c, 15, 11, 90
20, 474930, Control_c, 15, 11, 92
20, 474960, Control_c, 15, 11, 94
20, 474990, Control_c, 15, 11, 95
20, 475020, Control_c, 15, 11, 97
20, 475050, Control_c, 15, 11, 99
20, 475080, Control_c, 15, 11, 100
20, 475110, Control_c, 15, 11, 102
20, 475140, Control_c, 15, 11, 104
20, 475170, Control_c, 15, 11, 105
20, 475200, Control_c, 15, 11, 107
20, 475230, Control_c, 15, 11, 109
20, 475260, Control_c, 15, 11, 110
20, 475290, Control_c, 15, 11, 112
20, 475319, Note_on_c, 15, 46, 0
20, 475320, Note_on_c, 15, 45, 68
20, 475320, Control_c, 15, 11, 114
20, 475350, Control_c, 15, 11, 115
20, 475380, Control_c, 15, 11, 117
20, 475410, Control_c, 15, 11, 119
20, 475439, Note_on_c, 15, 45, 0
20, 475440, Control_c, 15, 11, 120
20, 475440, Note_on_c, 15, 43, 68
20, 475470, Control_c, 15, 11, 122
20, 475500, Control_c, 15, 11, 124
20, 475530, Control_c, 15, 11, 125
20, 475559, Note_on_c, 15, 43, 0
20, 475560, Note_on_c, 15, 45, 68
20, 475560, Control_c, 15, 11, 127
20, 475590, Control_c, 15, 11, 125
20, 475620, Control_c, 15, 11, 124
20, 475650, Control_c, 15, 11, 122
20, 475679, Note_on_c, 15, 45, 0
20, 475680, Control_c, 15, 11, 120
20, 475680, Note_on_c, 15, 43, 68
20, 475710, Control_c, 15, 11, 119
20, 475740, Control_c, 15, 11, 117
20, 475770, Control_c, 15, 11, 115
20, 475799, Note_on_c, 15, 43, 0
20, 475800, Control_c, 15, 11, 114
20, 475800, Note_on_c, 15, 42, 68
20, 475830, Control_c, 15, 11, 112
20, 475860, Control_c, 15, 11, 110
20, 475890, Control_c, 15, 11, 109
20, 475919, Note_on_c, 15, 42, 0
20, 475920, Control_c, 15, 11, 107
20, 475920, Note_on_c, 15, 43, 68
20, 475950, Control_c, 15, 11, 105
20, 475980, Control_c, 15, 11, 104
20, 476010, Control_c, 15, 11, 102
20, 476040, Control_c, 15, 11, 100
20, 476070, Control_c, 15, 11, 99
20, 476100, Control_c, 15, 11, 97
20, 476130, Control_c, 15, 11, 95
20, 476190, Control_c, 15, 11, 92
20, 476220, Control_c, 15, 11, 90
20, 476250, Control_c, 15, 11, 87
20, 476279, Note_on_c, 15, 43, 0
20, 478080, Control_c, 15, 11, 127
20, 478440, Note_on_c, 15, 43, 80
20, 478529, Note_on_c, 15, 43, 0
20, 478560, Note_on_c, 15, 48, 80
20, 478649, Note_on_c, 15, 48, 0
20, 478680, Note_on_c, 15, 45, 80
20, 478769, Note_on_c, 15, 45, 0
20, 478800, Note_on_c, 15, 41, 80
20, 478889, Note_on_c, 15, 41, 0
20, 478920, Note_on_c, 15, 43, 80
20, 479009, Note_on_c, 15, 43, 0
20, 479040, Note_on_c, 15, 31, 80
20, 479129, Note_on_c, 15, 31, 0
20, 479160, Note_on_c, 15, 36, 80
20, 479279, Note_on_c, 15, 36, 0
20, 479880, Note_on_c, 15, 43, 80
20, 479969, Note_on_c, 15, 43, 0
20, 480000, Note_on_c, 15, 40, 80
20, 480089, Note_on_c, 15, 40, 0
20, 480120, Note_on_c, 15, 45, 80
20, 480209, Note_on_c, 15, 45, 0
20, 480240, Note_on_c, 15, 41, 80
20, 480329, Note_on_c, 15, 41, 0
20, 480360, Note_on_c, 15, 38, 80
20, 480449, Note_on_c, 15, 38, 0
20, 480480, Note_on_c, 15, 43, 80
20, 480569, Note_on_c, 15, 43, 0
20, 480600, Note_on_c, 15, 36, 80
20, 480719, Note_on_c, 15, 36, 0
20, 480960, Note_on_c, 15, 55, 80
20, 481124, Note_on_c, 15, 55, 0
20, 481140, Note_on_c, 15, 43, 80
20, 481184, Note_on_c, 15, 43, 0
20, 481200, Note_on_c, 15, 43, 80
20, 481304, Note_on_c, 15, 43, 0
20, 481320, Note_on_c, 15, 36, 80
20, 481439, Note_on_c, 15, 36, 0
20, 481680, Note_on_c, 15, 55, 80
20, 481844, Note_on_c, 15, 55, 0
20, 481860, Note_on_c, 15, 43, 80
20, 481904, Note_on_c, 15, 43, 0
20, 481920, Note_on_c, 15, 43, 80
20, 482024, Note_on_c, 15, 43, 0
20, 482040, Note_on_c, 15, 31, 32
20, 482129, Note_on_c, 15, 31, 0
20, 482160, Note_on_c, 15, 31, 32
20, 482249, Note_on_c, 15, 31, 0
20, 482280, Note_on_c, 15, 31, 32
20, 482369, Note_on_c, 15, 31, 0
20, 482400, Note_on_c, 15, 31, 32
20, 482489, Note_on_c, 15, 31, 0
20, 482520, Note_on_c, 15, 31, 32
20, 482609, Note_on_c, 15, 31, 0
20, 482640, Note_on_c, 15, 31, 32
20, 482729, Note_on_c, 15, 31, 0
20, 482760, Note_on_c, 15, 31, 32
20, 482849, Note_on_c, 15, 31, 0
20, 482880, Note_on_c, 15, 31, 32
20, 482969, Note_on_c, 15, 31, 0
20, 483000, Note_on_c, 15, 31, 32
20, 483089, Note_on_c, 15, 31, 0
20, 483120, Note_on_c, 15, 31, 32
20, 483209, Note_on_c, 15, 31, 0
20, 483240, Note_on_c, 15, 31, 32
20, 483329, Note_on_c, 15, 31, 0
20, 483360, Note_on_c, 15, 31, 32
20, 483449, Note_on_c, 15, 31, 0
20, 483480, Note_on_c, 15, 24, 32
20, 483644, Note_on_c, 15, 24, 0
20, 483660, Note_on_c, 15, 36, 32
20, 483704, Note_on_c, 15, 36, 0
20, 483720, Note_on_c, 15, 36, 32
20, 483824, Note_on_c, 15, 36, 0
20, 483840, Note_on_c, 15, 33, 32
20, 483959, Note_on_c, 15, 33, 0
20, 484200, Note_on_c, 15, 29, 32
20, 484364, Note_on_c, 15, 29, 0
20, 484380, Note_on_c, 15, 41, 32
20, 484424, Note_on_c, 15, 41, 0
20, 484440, Note_on_c, 15, 41, 32
20, 484544, Note_on_c, 15, 41, 0
20, 484560, Note_on_c, 15, 38, 32
20, 484679, Note_on_c, 15, 38, 0
20, 486360, Note_on_c, 15, 26, 32
20, 486524, Note_on_c, 15, 26, 0
20, 486540, Note_on_c, 15, 38, 32
20, 486584, Note_on_c, 15, 38, 0
20, 486600, Note_on_c, 15, 38, 32
20, 486704, Note_on_c, 15, 38, 0
20, 486720, Note_on_c, 15, 34, 32
20, 486839, Note_on_c, 15, 34, 0
20, 487080, Note_on_c, 15, 31, 32
20, 487244, Note_on_c, 15, 31, 0
20, 487260, Note_on_c, 15, 43, 32
20, 487304, Note_on_c, 15, 43, 0
20, 487320, Note_on_c, 15, 43, 32
20, 487424, Note_on_c, 15, 43, 0
20, 487440, Note_on_c, 15, 39, 32
20, 487559, Note_on_c, 15, 39, 0
20, 489240, Note_on_c, 15, 39, 32
20, 489404, Note_on_c, 15, 39, 0
20, 489420, Note_on_c, 15, 51, 34
20, 489464, Note_on_c, 15, 51, 0
20, 489480, Note_on_c, 15, 51, 34
20, 489584, Note_on_c, 15, 51, 0
20, 489600, Note_on_c, 15, 48, 36
20, 489719, Note_on_c, 15, 48, 0
20, 489960, Note_on_c, 15, 32, 40
20, 490124, Note_on_c, 15, 32, 0
20, 490140, Note_on_c, 15, 44, 42
20, 490184, Note_on_c, 15, 44, 0
20, 490200, Note_on_c, 15, 44, 42
20, 490304, Note_on_c, 15, 44, 0
20, 490320, Note_on_c, 15, 41, 44
20, 490439, Note_on_c, 15, 41, 0
20, 490680, Note_on_c, 15, 37, 48
20, 490844, Note_on_c, 15, 37, 0
20, 490860, Note_on_c, 15, 49, 50
20, 490904, Note_on_c, 15, 49, 0
20, 490920, Note_on_c, 15, 49, 50
20, 491024, Note_on_c, 15, 49, 0
20, 491040, Note_on_c, 15, 46, 52
20, 491159, Note_on_c, 15, 46, 0
20, 491400, Note_on_c, 15, 30, 56
20, 491564, Note_on_c, 15, 30, 0
20, 491580, Note_on_c, 15, 42, 58
20, 491624, Note_on_c, 15, 42, 0
20, 491640, Note_on_c, 15, 42, 58
20, 491744, Note_on_c, 15, 42, 0
20, 491760, Note_on_c, 15, 39, 60
20, 491879, Note_on_c, 15, 39, 0
20, 492120, Note_on_c, 15, 35, 64
20, 492284, Note_on_c, 15, 35, 0
20, 492300, Note_on_c, 15, 47, 66
20, 492344, Note_on_c, 15, 47, 0
20, 492360, Note_on_c, 15, 47, 66
20, 492464, Note_on_c, 15, 47, 0
20, 492480, Note_on_c, 15, 44, 68
20, 492599, Note_on_c, 15, 44, 0
20, 492840, Note_on_c, 15, 40, 72
20, 493004, Note_on_c, 15, 40, 0
20, 493020, Note_on_c, 15, 52, 74
20, 493064, Note_on_c, 15, 52, 0
20, 493080, Note_on_c, 15, 52, 74
20, 493184, Note_on_c, 15, 52, 0
20, 493200, Note_on_c, 15, 49, 76
20, 493319, Note_on_c, 15, 49, 0
20, 493560, Note_on_c, 15, 33, 80
20, 493724, Note_on_c, 15, 33, 0
20, 493740, Note_on_c, 15, 45, 80
20, 493784, Note_on_c, 15, 45, 0
20, 493800, Note_on_c, 15, 45, 80
20, 493904, Note_on_c, 15, 45, 0
20, 494280, Note_on_c, 15, 34, 92
20, 494444, Note_on_c, 15, 34, 0
20, 494460, Note_on_c, 15, 46, 92
20, 494504, Note_on_c, 15, 46, 0
20, 494520, Note_on_c, 15, 46, 92
20, 494624, Note_on_c, 15, 46, 0
20, 495000, Note_on_c, 15, 35, 92
20, 495164, Note_on_c, 15, 35, 0
20, 495180, Note_on_c, 15, 47, 92
20, 495224, Note_on_c, 15, 47, 0
20, 495240, Note_on_c, 15, 47, 92
20, 495344, Note_on_c, 15, 47, 0
20, 496080, Program_c, 15, 45
20, 496440, Note_on_c, 15, 40, 40
20, 496559, Note_on_c, 15, 40, 0
20, 496800, Note_on_c, 15, 35, 40
20, 496919, Note_on_c, 15, 35, 0
20, 497520, Note_on_c, 15, 40, 40
20, 497639, Note_on_c, 15, 40, 0
20, 497880, Note_on_c, 15, 35, 40
20, 497999, Note_on_c, 15, 35, 0
20, 498600, Note_on_c, 15, 40, 40
20, 498719, Note_on_c, 15, 40, 0
20, 498960, Note_on_c, 15, 35, 40
20, 499079, Note_on_c, 15, 35, 0
20, 499680, Note_on_c, 15, 52, 40
20, 499799, Note_on_c, 15, 52, 0
20, 500040, Note_on_c, 15, 40, 40
20, 500159, Note_on_c, 15, 40, 0
20, 500760, Note_on_c, 15, 45, 40
20, 500879, Note_on_c, 15, 45, 0
20, 501120, Note_on_c, 15, 40, 40
20, 501239, Note_on_c, 15, 40, 0
20, 501840, Note_on_c, 15, 45, 40
20, 501959, Note_on_c, 15, 45, 0
20, 502200, Note_on_c, 15, 40, 40
20, 502319, Note_on_c, 15, 40, 0
20, 502920, Note_on_c, 15, 53, 40
20, 503039, Note_on_c, 15, 53, 0
20, 503280, Note_on_c, 15, 41, 40
20, 503399, Note_on_c, 15, 41, 0
20, 504000, Note_on_c, 15, 53, 40
20, 504119, Note_on_c, 15, 53, 0
20, 504360, Note_on_c, 15, 41, 40
20, 504479, Note_on_c, 15, 41, 0
20, 505080, Note_on_c, 15, 53, 40
20, 505199, Note_on_c, 15, 53, 0
20, 505440, Note_on_c, 15, 41, 40
20, 505559, Note_on_c, 15, 41, 0
20, 506160, Note_on_c, 15, 53, 40
20, 506279, Note_on_c, 15, 53, 0
20, 506520, Note_on_c, 15, 41, 40
20, 506639, Note_on_c, 15, 41, 0
20, 506880, Note_on_c, 15, 41, 40
20, 506999, Note_on_c, 15, 41, 0
20, 507240, Note_on_c, 15, 29, 40
20, 507359, Note_on_c, 15, 29, 0
20, 507600, Note_on_c, 15, 41, 40
20, 507719, Note_on_c, 15, 41, 0
20, 507960, Note_on_c, 15, 48, 40
20, 508079, Note_on_c, 15, 48, 0
20, 508320, Note_on_c, 15, 36, 39
20, 508439, Note_on_c, 15, 36, 0
20, 508680, Note_on_c, 15, 48, 38
20, 508799, Note_on_c, 15, 48, 0
20, 509040, Note_on_c, 15, 50, 37
20, 509159, Note_on_c, 15, 50, 0
20, 509400, Note_on_c, 15, 38, 36
20, 509519, Note_on_c, 15, 38, 0
20, 509760, Note_on_c, 15, 50, 35
20, 509879, Note_on_c, 15, 50, 0
20, 510120, Note_on_c, 15, 45, 34
20, 510239, Note_on_c, 15, 45, 0
20, 510480, Note_on_c, 15, 33, 33
20, 510599, Note_on_c, 15, 33, 0
20, 510840, Note_on_c, 15, 45, 32
20, 510959, Note_on_c, 15, 45, 0
20, 511200, Note_on_c, 15, 45, 31
20, 511319, Note_on_c, 15, 45, 0
20, 511560, Note_on_c, 15, 33, 30
20, 511679, Note_on_c, 15, 33, 0
20, 511920, Note_on_c, 15, 45, 29
20, 512039, Note_on_c, 15, 45, 0
20, 512280, Note_on_c, 15, 45, 28
20, 512399, Note_on_c, 15, 45, 0
20, 512640, Note_on_c, 15, 33, 28
20, 512759, Note_on_c, 15, 33, 0
20, 513000, Note_on_c, 15, 45, 28
20, 513119, Note_on_c, 15, 45, 0
20, 513360, Note_on_c, 15, 43, 28
20, 513479, Note_on_c, 15, 43, 0
20, 513480, Note_on_c, 15, 41, 28
20, 513599, Note_on_c, 15, 41, 0
20, 513600, Note_on_c, 15, 40, 28
20, 513719, Note_on_c, 15, 40, 0
20, 513720, Note_on_c, 15, 38, 28
20, 513839, Note_on_c, 15, 38, 0
20, 514080, Note_on_c, 15, 33, 28
20, 514199, Note_on_c, 15, 33, 0
20, 514800, Note_on_c, 15, 38, 28
20, 514919, Note_on_c, 15, 38, 0
20, 515160, Note_on_c, 15, 33, 28
20, 515279, Note_on_c, 15, 33, 0
20, 515880, Note_on_c, 15, 38, 28
20, 515999, Note_on_c, 15, 38, 0
20, 516240, Note_on_c, 15, 33, 28
20, 516359, Note_on_c, 15, 33, 0
20, 516480, Program_c, 15, 48
20, 516600, Note_on_c, 15, 45, 32
20, 516764, Note_on_c, 15, 45, 0
20, 516780, Note_on_c, 15, 33, 32
20, 516824, Note_on_c, 15, 33, 0
20, 516840, Note_on_c, 15, 33, 32
20, 516944, Note_on_c, 15, 33, 0
20, 516960, Note_on_c, 15, 38, 32
20, 517064, Note_on_c, 15, 38, 0
20, 517080, Note_on_c, 15, 40, 32
20, 517184, Note_on_c, 15, 40, 0
20, 517200, Note_on_c, 15, 41, 32
20, 517304, Note_on_c, 15, 41, 0
20, 517320, Note_on_c, 15, 40, 32
20, 517424, Note_on_c, 15, 40, 0
20, 517440, Note_on_c, 15, 41, 32
20, 517544, Note_on_c, 15, 41, 0
20, 517560, Note_on_c, 15, 43, 32
20, 517664, Note_on_c, 15, 43, 0
20, 517680, Note_on_c, 15, 41, 32
20, 517784, Note_on_c, 15, 41, 0
20, 517800, Note_on_c, 15, 40, 32
20, 517904, Note_on_c, 15, 40, 0
20, 517920, Note_on_c, 15, 38, 32
20, 518024, Note_on_c, 15, 38, 0
20, 518040, Note_on_c, 15, 35, 32
20, 518144, Note_on_c, 15, 35, 0
20, 518160, Note_on_c, 15, 36, 32
20, 518264, Note_on_c, 15, 36, 0
20, 518280, Note_on_c, 15, 38, 32
20, 518384, Note_on_c, 15, 38, 0
20, 518400, Note_on_c, 15, 36, 32
20, 518504, Note_on_c, 15, 36, 0
20, 518520, Note_on_c, 15, 35, 32
20, 518624, Note_on_c, 15, 35, 0
20, 518640, Note_on_c, 15, 36, 32
20, 518744, Note_on_c, 15, 36, 0
20, 518760, Note_on_c, 15, 35, 32
20, 518864, Note_on_c, 15, 35, 0
20, 518880, Note_on_c, 15, 36, 32
20, 518984, Note_on_c, 15, 36, 0
20, 519000, Note_on_c, 15, 38, 32
20, 519104, Note_on_c, 15, 38, 0
20, 519120, Note_on_c, 15, 36, 32
20, 519224, Note_on_c, 15, 36, 0
20, 519240, Note_on_c, 15, 36, 32
20, 519344, Note_on_c, 15, 36, 0
20, 519360, Note_on_c, 15, 36, 32
20, 519464, Note_on_c, 15, 36, 0
20, 519480, Note_on_c, 15, 46, 32
20, 519644, Note_on_c, 15, 46, 0
20, 519660, Note_on_c, 15, 34, 32
20, 519704, Note_on_c, 15, 34, 0
20, 519720, Note_on_c, 15, 34, 32
20, 519824, Note_on_c, 15, 34, 0
20, 519840, Note_on_c, 15, 39, 32
20, 519944, Note_on_c, 15, 39, 0
20, 519960, Note_on_c, 15, 41, 32
20, 520064, Note_on_c, 15, 41, 0
20, 520080, Note_on_c, 15, 43, 32
20, 520184, Note_on_c, 15, 43, 0
20, 520200, Note_on_c, 15, 41, 32
20, 520304, Note_on_c, 15, 41, 0
20, 520320, Note_on_c, 15, 43, 32
20, 520424, Note_on_c, 15, 43, 0
20, 520440, Note_on_c, 15, 44, 32
20, 520544, Note_on_c, 15, 44, 0
20, 520560, Note_on_c, 15, 43, 32
20, 520664, Note_on_c, 15, 43, 0
20, 520680, Note_on_c, 15, 41, 32
20, 520784, Note_on_c, 15, 41, 0
20, 520800, Note_on_c, 15, 39, 32
20, 520904, Note_on_c, 15, 39, 0
20, 520920, Note_on_c, 15, 38, 32
20, 521024, Note_on_c, 15, 38, 0
20, 521040, Note_on_c, 15, 36, 32
20, 521144, Note_on_c, 15, 36, 0
20, 521160, Note_on_c, 15, 34, 32
20, 521264, Note_on_c, 15, 34, 0
20, 521280, Note_on_c, 15, 34, 32
20, 521384, Note_on_c, 15, 34, 0
20, 521400, Note_on_c, 15, 34, 32
20, 521504, Note_on_c, 15, 34, 0
20, 521520, Note_on_c, 15, 34, 32
20, 521624, Note_on_c, 15, 34, 0
20, 521638, Control_c, 15, 11, 47
20, 521640, Note_on_c, 15, 34, 80
20, 523079, Note_on_c, 15, 34, 0
20, 523080, Note_on_c, 15, 34, 80
20, 524519, Note_on_c, 15, 34, 0
20, 524520, Control_c, 15, 11, 47
20, 524520, Note_on_c, 15, 34, 80
20, 524592, Control_c, 15, 11, 48
20, 524664, Control_c, 15, 11, 49
20, 524736, Control_c, 15, 11, 50
20, 524808, Control_c, 15, 11, 51
20, 524880, Control_c, 15, 11, 52
20, 524952, Control_c, 15, 11, 53
20, 525024, Control_c, 15, 11, 54
20, 525096, Control_c, 15, 11, 55
20, 525168, Control_c, 15, 11, 56
20, 525240, Control_c, 15, 11, 57
20, 525312, Control_c, 15, 11, 58
20, 525384, Control_c, 15, 11, 59
20, 525456, Control_c, 15, 11, 60
20, 525528, Control_c, 15, 11, 61
20, 525600, Control_c, 15, 11, 62
20, 525672, Control_c, 15, 11, 63
20, 525744, Control_c, 15, 11, 64
20, 525816, Control_c, 15, 11, 65
20, 525888, Control_c, 15, 11, 66
20, 525944, Note_on_c, 15, 34, 0
20, 525960, Control_c, 15, 11, 67
20, 525960, Note_on_c, 15, 33, 80
20, 525990, Control_c, 15, 11, 68
20, 526020, Control_c, 15, 11, 70
20, 526050, Control_c, 15, 11, 71
20, 526080, Control_c, 15, 11, 72
20, 526110, Control_c, 15, 11, 73
20, 526140, Control_c, 15, 11, 75
20, 526170, Control_c, 15, 11, 76
20, 526200, Control_c, 15, 11, 77
20, 526230, Control_c, 15, 11, 78
20, 526260, Control_c, 15, 11, 80
20, 526290, Control_c, 15, 11, 81
20, 526320, Control_c, 15, 11, 82
20, 526350, Control_c, 15, 11, 83
20, 526380, Control_c, 15, 11, 85
20, 526410, Control_c, 15, 11, 86
20, 526440, Control_c, 15, 11, 87
20, 526470, Control_c, 15, 11, 88
20, 526500, Control_c, 15, 11, 90
20, 526530, Control_c, 15, 11, 91
20, 526560, Control_c, 15, 11, 92
20, 526590, Control_c, 15, 11, 93
20, 526620, Control_c, 15, 11, 95
20, 526650, Control_c, 15, 11, 96
20, 526680, Control_c, 15, 11, 97
20, 526710, Control_c, 15, 11, 98
20, 526740, Control_c, 15, 11, 100
20, 526770, Control_c, 15, 11, 101
20, 526800, Control_c, 15, 11, 102
20, 526830, Control_c, 15, 11, 103
20, 526860, Control_c, 15, 11, 105
20, 526890, Control_c, 15, 11, 106
20, 526920, Control_c, 15, 11, 107
20, 526950, Control_c, 15, 11, 108
20, 526980, Control_c, 15, 11, 110
20, 527010, Control_c, 15, 11, 111
20, 527040, Control_c, 15, 11, 112
20, 527070, Control_c, 15, 11, 113
20, 527100, Control_c, 15, 11, 115
20, 527130, Control_c, 15, 11, 116
20, 527160, Control_c, 15, 11, 117
20, 527190, Control_c, 15, 11, 118
20, 527220, Control_c, 15, 11, 120
20, 527250, Control_c, 15, 11, 121
20, 527280, Control_c, 15, 11, 122
20, 527310, Control_c, 15, 11, 123
20, 527340, Control_c, 15, 11, 125
20, 527370, Control_c, 15, 11, 127
20, 527384, Note_on_c, 15, 33, 0
20, 527400, Note_on_c, 15, 33, 80
20, 527519, Note_on_c, 15, 33, 0
20, 528120, Note_on_c, 15, 33, 86
20, 528239, Note_on_c, 15, 33, 0
20, 528840, Note_on_c, 15, 26, 92
20, 529004, Note_on_c, 15, 26, 0
20, 529020, Note_on_c, 15, 38, 92
20, 529064, Note_on_c, 15, 38, 0
20, 529080, Note_on_c, 15, 38, 92
20, 529184, Note_on_c, 15, 38, 0
20, 529200, Note_on_c, 15, 26, 92
20, 529364, Note_on_c, 15, 26, 0
20, 529380, Note_on_c, 15, 38, 92
20, 529424, Note_on_c, 15, 38, 0
20, 529440, Note_on_c, 15, 38, 92
20, 529544, Note_on_c, 15, 38, 0
20, 529560, Note_on_c, 15, 26, 92
20, 529724, Note_on_c, 15, 26, 0
20, 529740, Note_on_c, 15, 38, 92
20, 529784, Note_on_c, 15, 38, 0
20, 529800, Note_on_c, 15, 38, 92
20, 529904, Note_on_c, 15, 38, 0
20, 529920, Note_on_c, 15, 26, 92
20, 530084, Note_on_c, 15, 26, 0
20, 530100, Note_on_c, 15, 38, 92
20, 530144, Note_on_c, 15, 38, 0
20, 530160, Note_on_c, 15, 38, 92
20, 530264, Note_on_c, 15, 38, 0
20, 530280, Note_on_c, 15, 26, 92
20, 530444, Note_on_c, 15, 26, 0
20, 530460, Note_on_c, 15, 38, 92
20, 530504, Note_on_c, 15, 38, 0
20, 530520, Note_on_c, 15, 38, 92
20, 530624, Note_on_c, 15, 38, 0
20, 530640, Note_on_c, 15, 26, 92
20, 530804, Note_on_c, 15, 26, 0
20, 530820, Note_on_c, 15, 38, 92
20, 530864, Note_on_c, 15, 38, 0
20, 530880, Note_on_c, 15, 38, 92
20, 530984, Note_on_c, 15, 38, 0
20, 531000, Note_on_c, 15, 26, 92
20, 531164, Note_on_c, 15, 26, 0
20, 531180, Note_on_c, 15, 38, 92
20, 531224, Note_on_c, 15, 38, 0
20, 531240, Note_on_c, 15, 38, 92
20, 531344, Note_on_c, 15, 38, 0
20, 531360, Note_on_c, 15, 26, 92
20, 531524, Note_on_c, 15, 26, 0
20, 531540, Note_on_c, 15, 38, 92
20, 531584, Note_on_c, 15, 38, 0
20, 531600, Note_on_c, 15, 38, 92
20, 531704, Note_on_c, 15, 38, 0
20, 531720, Note_on_c, 15, 26, 92
20, 531884, Note_on_c, 15, 26, 0
20, 531900, Note_on_c, 15, 38, 92
20, 531944, Note_on_c, 15, 38, 0
20, 531960, Note_on_c, 15, 38, 92
20, 532064, Note_on_c, 15, 38, 0
20, 532080, Note_on_c, 15, 26, 92
20, 532244, Note_on_c, 15, 26, 0
20, 532260, Note_on_c, 15, 38, 92
20, 532304, Note_on_c, 15, 38, 0
20, 532320, Note_on_c, 15, 38, 92
20, 532424, Note_on_c, 15, 38, 0
20, 532440, Note_on_c, 15, 26, 92
20, 532604, Note_on_c, 15, 26, 0
20, 532620, Note_on_c, 15, 38, 92
20, 532664, Note_on_c, 15, 38, 0
20, 532680, Note_on_c, 15, 38, 92
20, 532784, Note_on_c, 15, 38, 0
20, 532800, Note_on_c, 15, 26, 92
20, 532964, Note_on_c, 15, 26, 0
20, 532980, Note_on_c, 15, 38, 92
20, 533024, Note_on_c, 15, 38, 0
20, 533040, Note_on_c, 15, 38, 92
20, 533144, Note_on_c, 15, 38, 0
20, 533160, Note_on_c, 15, 26, 92
20, 533324, Note_on_c, 15, 26, 0
20, 533340, Note_on_c, 15, 38, 92
20, 533384, Note_on_c, 15, 38, 0
20, 533400, Note_on_c, 15, 38, 92
20, 533504, Note_on_c, 15, 38, 0
20, 533520, Note_on_c, 15, 26, 92
20, 533684, Note_on_c, 15, 26, 0
20, 533700, Note_on_c, 15, 38, 92
20, 533744, Note_on_c, 15, 38, 0
20, 533760, Note_on_c, 15, 38, 92
20, 533864, Note_on_c, 15, 38, 0
20, 533880, Note_on_c, 15, 26, 92
20, 534044, Note_on_c, 15, 26, 0
20, 534060, Note_on_c, 15, 38, 92
20, 534104, Note_on_c, 15, 38, 0
20, 534120, Note_on_c, 15, 38, 92
20, 534224, Note_on_c, 15, 38, 0
20, 534240, Note_on_c, 15, 26, 92
20, 534404, Note_on_c, 15, 26, 0
20, 534420, Note_on_c, 15, 38, 92
20, 534464, Note_on_c, 15, 38, 0
20, 534480, Note_on_c, 15, 38, 92
20, 534584, Note_on_c, 15, 38, 0
20, 534600, Note_on_c, 15, 51, 92
20, 534689, Note_on_c, 15, 51, 0
20, 534720, Note_on_c, 15, 50, 92
20, 534809, Note_on_c, 15, 50, 0
20, 534840, Note_on_c, 15, 48, 92
20, 534929, Note_on_c, 15, 48, 0
20, 534960, Note_on_c, 15, 46, 92
20, 535049, Note_on_c, 15, 46, 0
20, 535080, Note_on_c, 15, 45, 92
20, 535169, Note_on_c, 15, 45, 0
20, 535200, Note_on_c, 15, 43, 92
20, 535289, Note_on_c, 15, 43, 0
20, 535320, Note_on_c, 15, 42, 92
20, 535409, Note_on_c, 15, 42, 0
20, 535440, Note_on_c, 15, 43, 92
20, 535529, Note_on_c, 15, 43, 0
20, 535560, Note_on_c, 15, 45, 92
20, 535649, Note_on_c, 15, 45, 0
20, 535680, Note_on_c, 15, 43, 92
20, 535769, Note_on_c, 15, 43, 0
20, 535800, Note_on_c, 15, 45, 92
20, 535889, Note_on_c, 15, 45, 0
20, 535920, Note_on_c, 15, 46, 92
20, 536009, Note_on_c, 15, 46, 0
20, 536040, Note_on_c, 15, 51, 80
20, 536129, Note_on_c, 15, 51, 0
20, 536160, Note_on_c, 15, 50, 80
20, 536249, Note_on_c, 15, 50, 0
20, 536280, Note_on_c, 15, 48, 80
20, 536369, Note_on_c, 15, 48, 0
20, 536400, Note_on_c, 15, 46, 80
20, 536489, Note_on_c, 15, 46, 0
20, 536520, Note_on_c, 15, 45, 80
20, 536609, Note_on_c, 15, 45, 0
20, 536640, Note_on_c, 15, 43, 80
20, 536729, Note_on_c, 15, 43, 0
20, 536760, Note_on_c, 15, 53, 80
20, 536849, Note_on_c, 15, 53, 0
20, 536880, Note_on_c, 15, 51, 80
20, 536969, Note_on_c, 15, 51, 0
20, 537000, Note_on_c, 15, 50, 80
20, 537089, Note_on_c, 15, 50, 0
20, 537120, Note_on_c, 15, 48, 80
20, 537209, Note_on_c, 15, 48, 0
20, 537240, Note_on_c, 15, 46, 80
20, 537329, Note_on_c, 15, 46, 0
20, 537360, Note_on_c, 15, 45, 80
20, 537449, Note_on_c, 15, 45, 0
20, 537480, Note_on_c, 15, 55, 80
20, 537569, Note_on_c, 15, 55, 0
20, 537600, Note_on_c, 15, 53, 80
20, 537689, Note_on_c, 15, 53, 0
20, 537720, Note_on_c, 15, 51, 80
20, 537809, Note_on_c, 15, 51, 0
20, 537840, Note_on_c, 15, 50, 80
20, 537929, Note_on_c, 15, 50, 0
20, 537960, Note_on_c, 15, 48, 80
20, 538049, Note_on_c, 15, 48, 0
20, 538080, Note_on_c, 15, 46, 80
20, 538169, Note_on_c, 15, 46, 0
20, 538200, Note_on_c, 15, 45, 80
20, 538289, Note_on_c, 15, 45, 0
20, 538320, Note_on_c, 15, 43, 80
20, 538409, Note_on_c, 15, 43, 0
20, 538440, Note_on_c, 15, 41, 80
20, 538529, Note_on_c, 15, 41, 0
20, 538560, Note_on_c, 15, 39, 80
20, 538649, Note_on_c, 15, 39, 0
20, 538680, Note_on_c, 15, 38, 80
20, 538769, Note_on_c, 15, 38, 0
20, 538800, Note_on_c, 15, 36, 80
20, 538889, Note_on_c, 15, 36, 0
20, 538920, Note_on_c, 15, 34, 80
20, 539009, Note_on_c, 15, 34, 0
20, 539160, Program_c, 15, 45
20, 539280, Note_on_c, 15, 46, 40
20, 539399, Note_on_c, 15, 46, 0
20, 539640, Note_on_c, 15, 39, 40
20, 539759, Note_on_c, 15, 39, 0
20, 540000, Note_on_c, 15, 36, 40
20, 540119, Note_on_c, 15, 36, 0
20, 540360, Note_on_c, 15, 41, 40
20, 540479, Note_on_c, 15, 41, 0
20, 540720, Note_on_c, 15, 34, 40
20, 540839, Note_on_c, 15, 34, 0
20, 541080, Note_on_c, 15, 41, 40
20, 541199, Note_on_c, 15, 41, 0
20, 541440, Note_on_c, 15, 29, 40
20, 541559, Note_on_c, 15, 29, 0
20, 545400, Note_on_c, 15, 45, 40
20, 545519, Note_on_c, 15, 45, 0
20, 545760, Note_on_c, 15, 33, 40
20, 545879, Note_on_c, 15, 33, 0
20, 546120, Note_on_c, 15, 45, 45
20, 546239, Note_on_c, 15, 45, 0
20, 546480, Note_on_c, 15, 33, 51
20, 546599, Note_on_c, 15, 33, 0
20, 546840, Note_on_c, 15, 45, 56
20, 546959, Note_on_c, 15, 45, 0
20, 547200, Note_on_c, 15, 33, 62
20, 547319, Note_on_c, 15, 33, 0
20, 547560, Note_on_c, 15, 45, 55
20, 547679, Note_on_c, 15, 45, 0
20, 547920, Note_on_c, 15, 33, 48
20, 548039, Note_on_c, 15, 33, 0
20, 548520, Note_on_c, 15, 45, 43
20, 548639, Note_on_c, 15, 45, 0
20, 548880, Note_on_c, 15, 45, 49
20, 548999, Note_on_c, 15, 45, 0
20, 549240, Note_on_c, 15, 45, 55
20, 549359, Note_on_c, 15, 45, 0
20, 549600, Note_on_c, 15, 43, 61
20, 549719, Note_on_c, 15, 43, 0
20, 549960, Note_on_c, 15, 43, 66
20, 550079, Note_on_c, 15, 43, 0
20, 550320, Note_on_c, 15, 42, 72
20, 550439, Note_on_c, 15, 42, 0
20, 550680, Note_on_c, 15, 41, 78
20, 550799, Note_on_c, 15, 41, 0
20, 551040, Note_on_c, 15, 40, 84
20, 551144, Note_on_c, 15, 40, 0
20, 551158, Program_c, 15, 48
20, 551160, Note_on_c, 15, 50, 92
20, 551324, Note_on_c, 15, 50, 0
20, 551340, Note_on_c, 15, 38, 92
20, 551384, Note_on_c, 15, 38, 0
20, 551400, Note_on_c, 15, 38, 92
20, 551504, Note_on_c, 15, 38, 0
20, 551520, Note_on_c, 15, 50, 92
20, 551684, Note_on_c, 15, 50, 0
20, 551700, Note_on_c, 15, 38, 92
20, 551744, Note_on_c, 15, 38, 0
20, 551760, Note_on_c, 15, 38, 92
20, 551864, Note_on_c, 15, 38, 0
20, 551880, Note_on_c, 15, 50, 92
20, 552044, Note_on_c, 15, 50, 0
20, 552060, Note_on_c, 15, 38, 92
20, 552104, Note_on_c, 15, 38, 0
20, 552120, Note_on_c, 15, 38, 92
20, 552224, Note_on_c, 15, 38, 0
20, 552240, Note_on_c, 15, 50, 92
20, 552404, Note_on_c, 15, 50, 0
20, 552420, Note_on_c, 15, 38, 92
20, 552464, Note_on_c, 15, 38, 0
20, 552480, Note_on_c, 15, 38, 92
20, 552584, Note_on_c, 15, 38, 0
20, 552600, Note_on_c, 15, 50, 92
20, 552764, Note_on_c, 15, 50, 0
20, 552780, Note_on_c, 15, 38, 92
20, 552824, Note_on_c, 15, 38, 0
20, 552840, Note_on_c, 15, 38, 92
20, 552944, Note_on_c, 15, 38, 0
20, 552960, Note_on_c, 15, 50, 92
20, 553124, Note_on_c, 15, 50, 0
20, 553140, Note_on_c, 15, 38, 92
20, 553184, Note_on_c, 15, 38, 0
20, 553200, Note_on_c, 15, 38, 92
20, 553304, Note_on_c, 15, 38, 0
20, 553320, Note_on_c, 15, 50, 92
20, 553484, Note_on_c, 15, 50, 0
20, 553500, Note_on_c, 15, 38, 92
20, 553544, Note_on_c, 15, 38, 0
20, 553560, Note_on_c, 15, 38, 92
20, 553664, Note_on_c, 15, 38, 0
20, 553680, Note_on_c, 15, 50, 92
20, 553844, Note_on_c, 15, 50, 0
20, 553860, Note_on_c, 15, 38, 92
20, 553904, Note_on_c, 15, 38, 0
20, 553920, Note_on_c, 15, 38, 92
20, 554024, Note_on_c, 15, 38, 0
20, 554040, Note_on_c, 15, 50, 92
20, 554204, Note_on_c, 15, 50, 0
20, 554220, Note_on_c, 15, 38, 92
20, 554264, Note_on_c, 15, 38, 0
20, 554280, Note_on_c, 15, 38, 92
20, 554384, Note_on_c, 15, 38, 0
20, 554400, Note_on_c, 15, 50, 92
20, 554564, Note_on_c, 15, 50, 0
20, 554580, Note_on_c, 15, 38, 92
20, 554624, Note_on_c, 15, 38, 0
20, 554640, Note_on_c, 15, 38, 92
20, 554744, Note_on_c, 15, 38, 0
20, 554760, Note_on_c, 15, 50, 92
20, 554924, Note_on_c, 15, 50, 0
20, 554940, Note_on_c, 15, 38, 92
20, 554984, Note_on_c, 15, 38, 0
20, 555000, Note_on_c, 15, 38, 92
20, 555104, Note_on_c, 15, 38, 0
20, 555120, Note_on_c, 15, 50, 92
20, 555284, Note_on_c, 15, 50, 0
20, 555300, Note_on_c, 15, 38, 92
20, 555344, Note_on_c, 15, 38, 0
20, 555360, Note_on_c, 15, 38, 92
20, 555464, Note_on_c, 15, 38, 0
20, 555480, Note_on_c, 15, 50, 92
20, 555644, Note_on_c, 15, 50, 0
20, 555660, Note_on_c, 15, 38, 92
20, 555704, Note_on_c, 15, 38, 0
20, 555720, Note_on_c, 15, 38, 92
20, 555824, Note_on_c, 15, 38, 0
20, 555840, Note_on_c, 15, 50, 92
20, 556004, Note_on_c, 15, 50, 0
20, 556020, Note_on_c, 15, 38, 92
20, 556064, Note_on_c, 15, 38, 0
20, 556080, Note_on_c, 15, 38, 92
20, 556184, Note_on_c, 15, 38, 0
20, 556200, Note_on_c, 15, 50, 92
20, 556364, Note_on_c, 15, 50, 0
20, 556380, Note_on_c, 15, 38, 92
20, 556424, Note_on_c, 15, 38, 0
20, 556440, Note_on_c, 15, 38, 92
20, 556544, Note_on_c, 15, 38, 0
20, 556560, Note_on_c, 15, 50, 92
20, 556724, Note_on_c, 15, 50, 0
20, 556740, Note_on_c, 15, 38, 92
20, 556784, Note_on_c, 15, 38, 0
20, 556800, Note_on_c, 15, 38, 92
20, 556904, Note_on_c, 15, 38, 0
20, 556920, Note_on_c, 15, 50, 92
20, 557039, Note_on_c, 15, 50, 0
20, 557640, Note_on_c, 15, 43, 92
20, 557804, Note_on_c, 15, 43, 0
20, 557820, Note_on_c, 15, 31, 92
20, 557864, Note_on_c, 15, 31, 0
20, 557880, Note_on_c, 15, 31, 92
20, 557984, Note_on_c, 15, 31, 0
20, 558000, Note_on_c, 15, 31, 92
20, 558089, Note_on_c, 15, 31, 0
20, 558120, Note_on_c, 15, 28, 92
20, 558209, Note_on_c, 15, 28, 0
20, 558240, Note_on_c, 15, 26, 92
20, 558329, Note_on_c, 15, 26, 0
20, 558360, Note_on_c, 15, 24, 92
20, 558479, Note_on_c, 15, 24, 0
20, 559080, Note_on_c, 15, 53, 92
20, 559244, Note_on_c, 15, 53, 0
20, 559260, Note_on_c, 15, 41, 92
20, 559304, Note_on_c, 15, 41, 0
20, 559320, Note_on_c, 15, 41, 92
20, 559424, Note_on_c, 15, 41, 0
20, 559440, Note_on_c, 15, 41, 92
20, 559544, Note_on_c, 15, 41, 0
20, 559560, Note_on_c, 15, 38, 92
20, 559664, Note_on_c, 15, 38, 0
20, 559680, Note_on_c, 15, 36, 92
20, 559784, Note_on_c, 15, 36, 0
20, 559798, Control_c, 15, 11, 87
20, 559800, Note_on_c, 15, 36, 68
20, 560024, Note_on_c, 15, 36, 0
20, 560040, Note_on_c, 15, 48, 68
20, 560144, Note_on_c, 15, 48, 0
20, 560160, Note_on_c, 15, 46, 68
20, 560520, Control_c, 15, 11, 87
20, 560550, Control_c, 15, 11, 88
20, 560580, Control_c, 15, 11, 89
20, 560610, Control_c, 15, 11, 90
20, 560640, Control_c, 15, 11, 91
20, 560670, Control_c, 15, 11, 93
20, 560700, Control_c, 15, 11, 94
20, 560730, Control_c, 15, 11, 95
20, 560760, Control_c, 15, 11, 96
20, 560790, Control_c, 15, 11, 97
20, 560820, Control_c, 15, 11, 98
20, 560850, Control_c, 15, 11, 99
20, 560880, Control_c, 15, 11, 100
20, 560910, Control_c, 15, 11, 101
20, 560940, Control_c, 15, 11, 103
20, 560970, Control_c, 15, 11, 104
20, 560999, Note_on_c, 15, 46, 0
20, 561000, Control_c, 15, 11, 105
20, 561000, Note_on_c, 15, 44, 68
20, 561030, Control_c, 15, 11, 106
20, 561060, Control_c, 15, 11, 107
20, 561090, Control_c, 15, 11, 108
20, 561119, Note_on_c, 15, 44, 0
20, 561120, Control_c, 15, 11, 109
20, 561120, Note_on_c, 15, 43, 68
20, 561150, Control_c, 15, 11, 110
20, 561180, Control_c, 15, 11, 111
20, 561210, Control_c, 15, 11, 113
20, 561224, Note_on_c, 15, 43, 0
20, 561240, Note_on_c, 15, 43, 68
20, 561240, Control_c, 15, 11, 114
20, 561270, Control_c, 15, 11, 115
20, 561300, Control_c, 15, 11, 116
20, 561330, Control_c, 15, 11, 117
20, 561360, Control_c, 15, 11, 118
20, 561390, Control_c, 15, 11, 119
20, 561420, Control_c, 15, 11, 120
20, 561450, Control_c, 15, 11, 121
20, 561480, Control_c, 15, 11, 123
20, 561510, Control_c, 15, 11, 124
20, 561540, Control_c, 15, 11, 125
20, 561570, Control_c, 15, 11, 126
20, 561584, Note_on_c, 15, 43, 0
20, 561600, Note_on_c, 15, 45, 68
20, 561600, Control_c, 15, 11, 127
20, 561630, Control_c, 15, 11, 124
20, 561660, Control_c, 15, 11, 120
20, 561690, Control_c, 15, 11, 117
20, 561720, Control_c, 15, 11, 114
20, 561750, Control_c, 15, 11, 110
20, 561780, Control_c, 15, 11, 107
20, 561810, Control_c, 15, 11, 104
20, 561840, Control_c, 15, 11, 100
20, 561870, Control_c, 15, 11, 97
20, 561900, Control_c, 15, 11, 94
20, 561930, Control_c, 15, 11, 90
20, 561959, Note_on_c, 15, 45, 0
20, 561960, Control_c, 15, 11, 87
20, 563760, Control_c, 15, 11, 127
20, 564120, Note_on_c, 15, 50, 80
20, 564209, Note_on_c, 15, 50, 0
20, 564240, Note_on_c, 15, 46, 80
20, 564329, Note_on_c, 15, 46, 0
20, 564360, Note_on_c, 15, 43, 80
20, 564449, Note_on_c, 15, 43, 0
20, 564480, Note_on_c, 15, 44, 80
20, 564569, Note_on_c, 15, 44, 0
20, 564600, Note_on_c, 15, 45, 80
20, 564689, Note_on_c, 15, 45, 0
20, 564720, Note_on_c, 15, 33, 80
20, 564809, Note_on_c, 15, 33, 0
20, 564840, Note_on_c, 15, 38, 80
20, 564929, Note_on_c, 15, 38, 0
20, 565560, Note_on_c, 15, 45, 80
20, 565649, Note_on_c, 15, 45, 0
20, 565680, Note_on_c, 15, 41, 80
20, 565769, Note_on_c, 15, 41, 0
20, 565800, Note_on_c, 15, 46, 80
20, 565889, Note_on_c, 15, 46, 0
20, 565920, Note_on_c, 15, 43, 80
20, 566009, Note_on_c, 15, 43, 0
20, 566040, Note_on_c, 15, 40, 80
20, 566129, Note_on_c, 15, 40, 0
20, 566160, Note_on_c, 15, 45, 80
20, 566249, Note_on_c, 15, 45, 0
20, 566280, Note_on_c, 15, 38, 80
20, 566399, Note_on_c, 15, 38, 0
20, 566640, Note_on_c, 15, 45, 80
20, 566804, Note_on_c, 15, 45, 0
20, 566820, Note_on_c, 15, 33, 80
20, 566864, Note_on_c, 15, 33, 0
20, 566880, Note_on_c, 15, 33, 80
20, 566984, Note_on_c, 15, 33, 0
20, 567000, Note_on_c, 15, 26, 80
20, 567119, Note_on_c, 15, 26, 0
20, 567360, Note_on_c, 15, 45, 80
20, 567524, Note_on_c, 15, 45, 0
20, 567540, Note_on_c, 15, 33, 80
20, 567584, Note_on_c, 15, 33, 0
20, 567600, Note_on_c, 15, 33, 80
20, 567704, Note_on_c, 15, 33, 0
20, 567720, Note_on_c, 15, 33, 32
20, 567824, Note_on_c, 15, 33, 0
20, 567840, Note_on_c, 15, 33, 32
20, 567944, Note_on_c, 15, 33, 0
20, 567960, Note_on_c, 15, 33, 32
20, 568064, Note_on_c, 15, 33, 0
20, 568080, Note_on_c, 15, 33, 32
20, 568184, Note_on_c, 15, 33, 0
20, 568200, Note_on_c, 15, 33, 32
20, 568304, Note_on_c, 15, 33, 0
20, 568320, Note_on_c, 15, 33, 32
20, 568424, Note_on_c, 15, 33, 0
20, 568440, Note_on_c, 15, 33, 32
20, 568544, Note_on_c, 15, 33, 0
20, 568560, Note_on_c, 15, 33, 32
20, 568664, Note_on_c, 15, 33, 0
20, 568680, Note_on_c, 15, 33, 32
20, 568784, Note_on_c, 15, 33, 0
20, 568800, Note_on_c, 15, 33, 32
20, 568904, Note_on_c, 15, 33, 0
20, 568920, Note_on_c, 15, 33, 32
20, 569024, Note_on_c, 15, 33, 0
20, 569040, Note_on_c, 15, 33, 32
20, 569144, Note_on_c, 15, 33, 0
20, 569160, Note_on_c, 15, 38, 32
20, 569324, Note_on_c, 15, 38, 0
20, 569340, Note_on_c, 15, 50, 32
20, 569384, Note_on_c, 15, 50, 0
20, 569400, Note_on_c, 15, 50, 32
20, 569504, Note_on_c, 15, 50, 0
20, 569520, Note_on_c, 15, 45, 32
20, 569639, Note_on_c, 15, 45, 0
20, 569880, Note_on_c, 15, 29, 32
20, 570044, Note_on_c, 15, 29, 0
20, 570060, Note_on_c, 15, 41, 32
20, 570104, Note_on_c, 15, 41, 0
20, 570120, Note_on_c, 15, 41, 32
20, 570224, Note_on_c, 15, 41, 0
20, 570240, Note_on_c, 15, 38, 32
20, 570359, Note_on_c, 15, 38, 0
20, 572040, Note_on_c, 15, 38, 32
20, 572204, Note_on_c, 15, 38, 0
20, 572220, Note_on_c, 15, 50, 36
20, 572264, Note_on_c, 15, 50, 0
20, 572280, Note_on_c, 15, 50, 37
20, 572384, Note_on_c, 15, 50, 0
20, 572400, Note_on_c, 15, 45, 40
20, 572519, Note_on_c, 15, 45, 0
20, 572760, Note_on_c, 15, 41, 48
20, 572924, Note_on_c, 15, 41, 0
20, 572940, Note_on_c, 15, 53, 52
20, 572984, Note_on_c, 15, 53, 0
20, 573000, Note_on_c, 15, 53, 53
20, 573104, Note_on_c, 15, 53, 0
20, 573120, Note_on_c, 15, 50, 56
20, 573239, Note_on_c, 15, 50, 0
20, 573480, Note_on_c, 15, 34, 64
20, 573644, Note_on_c, 15, 34, 0
20, 573660, Note_on_c, 15, 46, 68
20, 573704, Note_on_c, 15, 46, 0
20, 573720, Note_on_c, 15, 46, 69
20, 573824, Note_on_c, 15, 46, 0
20, 573840, Note_on_c, 15, 43, 72
20, 573959, Note_on_c, 15, 43, 0
20, 574200, Note_on_c, 15, 34, 80
20, 574364, Note_on_c, 15, 34, 0
20, 574380, Note_on_c, 15, 46, 80
20, 574424, Note_on_c, 15, 46, 0
20, 574440, Note_on_c, 15, 46, 80
20, 574544, Note_on_c, 15, 46, 0
20, 574560, Note_on_c, 15, 45, 92
20, 574679, Note_on_c, 15, 45, 0
20, 575280, Note_on_c, 15, 37, 32
20, 575384, Note_on_c, 15, 37, 0
20, 575400, Note_on_c, 15, 38, 32
20, 575504, Note_on_c, 15, 38, 0
20, 575520, Note_on_c, 15, 40, 32
20, 575624, Note_on_c, 15, 40, 0
20, 575640, Note_on_c, 15, 41, 32
20, 575744, Note_on_c, 15, 41, 0
20, 575760, Note_on_c, 15, 40, 32
20, 575864, Note_on_c, 15, 40, 0
20, 575880, Note_on_c, 15, 38, 32
20, 575984, Note_on_c, 15, 38, 0
20, 576000, Note_on_c, 15, 36, 32
20, 576104, Note_on_c, 15, 36, 0
20, 576120, Note_on_c, 15, 34, 32
20, 576224, Note_on_c, 15, 34, 0
20, 576240, Note_on_c, 15, 33, 32
20, 576344, Note_on_c, 15, 33, 0
20, 576360, Note_on_c, 15, 31, 32
20, 576464, Note_on_c, 15, 31, 0
20, 576480, Note_on_c, 15, 33, 32
20, 576584, Note_on_c, 15, 33, 0
20, 576600, Note_on_c, 15, 34, 32
20, 576704, Note_on_c, 15, 34, 0
20, 576720, Note_on_c, 15, 37, 32
20, 576824, Note_on_c, 15, 37, 0
20, 576840, Note_on_c, 15, 38, 32
20, 576944, Note_on_c, 15, 38, 0
20, 576960, Note_on_c, 15, 40, 32
20, 577064, Note_on_c, 15, 40, 0
20, 577080, Note_on_c, 15, 41, 32
20, 577184, Note_on_c, 15, 41, 0
20, 577200, Note_on_c, 15, 40, 32
20, 577304, Note_on_c, 15, 40, 0
20, 577320, Note_on_c, 15, 38, 32
20, 577424, Note_on_c, 15, 38, 0
20, 577440, Note_on_c, 15, 36, 32
20, 577544, Note_on_c, 15, 36, 0
20, 577560, Note_on_c, 15, 34, 32
20, 577664, Note_on_c, 15, 34, 0
20, 577680, Note_on_c, 15, 33, 32
20, 577784, Note_on_c, 15, 33, 0
20, 577800, Note_on_c, 15, 31, 32
20, 577904, Note_on_c, 15, 31, 0
20, 577920, Note_on_c, 15, 33, 32
20, 578024, Note_on_c, 15, 33, 0
20, 578040, Note_on_c, 15, 34, 32
20, 578144, Note_on_c, 15, 34, 0
20, 578160, Note_on_c, 15, 45, 32
20, 578324, Note_on_c, 15, 45, 0
20, 578340, Note_on_c, 15, 33, 35
20, 578384, Note_on_c, 15, 33, 0
20, 578400, Note_on_c, 15, 33, 37
20, 578504, Note_on_c, 15, 33, 0
20, 578520, Note_on_c, 15, 38, 39
20, 578619, Note_on_c, 15, 38, 0
20, 578640, Note_on_c, 15, 40, 42
20, 578739, Note_on_c, 15, 40, 0
20, 578760, Note_on_c, 15, 41, 44
20, 578859, Note_on_c, 15, 41, 0
20, 578880, Note_on_c, 15, 45, 47
20, 579039, Note_on_c, 15, 45, 0
20, 579060, Note_on_c, 15, 33, 50
20, 579099, Note_on_c, 15, 33, 0
20, 579120, Note_on_c, 15, 33, 52
20, 579219, Note_on_c, 15, 33, 0
20, 579240, Note_on_c, 15, 38, 54
20, 579339, Note_on_c, 15, 38, 0
20, 579360, Note_on_c, 15, 40, 57
20, 579459, Note_on_c, 15, 40, 0
20, 579480, Note_on_c, 15, 41, 59
20, 579579, Note_on_c, 15, 41, 0
20, 579600, Note_on_c, 15, 45, 62
20, 579759, Note_on_c, 15, 45, 0
20, 579780, Note_on_c, 15, 33, 65
20, 579819, Note_on_c, 15, 33, 0
20, 579840, Note_on_c, 15, 33, 67
20, 579939, Note_on_c, 15, 33, 0
20, 579960, Note_on_c, 15, 38, 69
20, 580059, Note_on_c, 15, 38, 0
20, 580080, Note_on_c, 15, 40, 72
20, 580179, Note_on_c, 15, 40, 0
20, 580200, Note_on_c, 15, 41, 74
20, 580299, Note_on_c, 15, 41, 0
20, 580320, Note_on_c, 15, 45, 77
20, 580479, Note_on_c, 15, 45, 0
20, 580500, Note_on_c, 15, 33, 80
20, 580539, Note_on_c, 15, 33, 0
20, 580560, Note_on_c, 15, 33, 82
20, 580659, Note_on_c, 15, 33, 0
20, 580680, Note_on_c, 15, 38, 84
20, 580779, Note_on_c, 15, 38, 0
20, 580800, Note_on_c, 15, 40, 87
20, 580899, Note_on_c, 15, 40, 0
20, 580920, Note_on_c, 15, 41, 89
20, 581019, Note_on_c, 15, 41, 0
20, 581040, Note_on_c, 15, 57, 92
20, 581139, Note_on_c, 15, 57, 0
20, 581160, Note_on_c, 15, 45, 92
20, 581259, Note_on_c, 15, 45, 0
20, 581280, Note_on_c, 15, 50, 80
20, 581379, Note_on_c, 15, 50, 0
20, 581400, Note_on_c, 15, 38, 80
20, 581499, Note_on_c, 15, 38, 0
20, 581520, Note_on_c, 15, 45, 80
20, 581619, Note_on_c, 15, 45, 0
20, 581640, Note_on_c, 15, 33, 80
20, 581739, Note_on_c, 15, 33, 0
20, 581760, Note_on_c, 15, 45, 80
20, 581859, Note_on_c, 15, 45, 0
20, 581880, Note_on_c, 15, 33, 80
20, 581979, Note_on_c, 15, 33, 0
20, 582000, Note_on_c, 15, 38, 80
20, 582059, Note_on_c, 15, 38, 0
20, 582060, Note_on_c, 15, 38, 44
20, 583439, Note_on_c, 15, 38, 0
20, 583440, Note_on_c, 15, 38, 44
20, 585359, Note_on_c, 15, 38, 0
20, 585840, Note_on_c, 15, 57, 92
20, 585939, Note_on_c, 15, 57, 0
20, 585960, Note_on_c, 15, 45, 92
20, 586059, Note_on_c, 15, 45, 0
20, 586080, Note_on_c, 15, 50, 80
20, 586179, Note_on_c, 15, 50, 0
20, 586200, Note_on_c, 15, 38, 80
20, 586299, Note_on_c, 15, 38, 0
20, 586320, Note_on_c, 15, 45, 80
20, 586419, Note_on_c, 15, 45, 0
20, 586440, Note_on_c, 15, 33, 80
20, 586539, Note_on_c, 15, 33, 0
20, 586560, Note_on_c, 15, 45, 80
20, 586659, Note_on_c, 15, 45, 0
20, 586680, Note_on_c, 15, 33, 80
20, 586779, Note_on_c, 15, 33, 0
20, 586800, Note_on_c, 15, 38, 80
20, 586919, Note_on_c, 15, 38, 0
20, 586919, End_track
21, 0, Start_track
21, 0, Title_t, "Ludwig van Beethoven - Symphony No. 9 in D minor, Op.125 - 2. Molto vivace"
21, 0, MIDI_port, 0
21, 0, End_track
0, 0, End_of_file
