0, 0, Header, 1, 18, 240
1, 0, Start_track
1, 0, Sequencer_specific, 10, 0, 0, 91, 35, 1, 0, 5, 6, 42, 0
1, 0, Title_t, "Ludwig van Beethoven - Symphony No. 2 in D Major, Op.36"
1, 0, Instrument_name_t, "Conductor Track"
1, 0, SMPTE_offset, 96, 0, 3, 0, 0
1, 0, MIDI_port, 0
1, 0, Marker_t, "Originally Sequenced 15 Aug 1998"
1, 0, Key_signature, 2, "major"
1, 0, Tempo, 200000
1, 0, Time_signature, 3, 2, 24, 8
1, 675, Tempo, 1428571
1, 720, Tempo, 2857142
1, 1080, Tempo, 1428571
1, 24480, Tempo, 300000
1, 24480, Time_signature, 4, 2, 24, 8
1, 433440, Tempo, 750000
1, 434400, Tempo, 1000000
1, 435600, Tempo, 1304347
1, 435600, End_track
2, 0, Start_track
2, 0, Title_t, "1st Movement - Adagio molto, Allegro con brio"
2, 0, MIDI_port, 0
2, 0, End_track
3, 0, Start_track
3, 0, Title_t, "Sequenced by D. L. Viens 19 Feb 2000"
3, 0, MIDI_port, 0
3, 0, End_track
4, 0, Start_track
4, 0, Title_t, "dlviens@empire.net"
4, 0, MIDI_port, 0
4, 0, End_track
5, 0, Start_track
5, 0, MIDI_port, 0
5, 0, End_track
6, 0, Start_track
6, 0, Title_t, "Flute"
6, 0, MIDI_port, 0
6, 0, Program_c, 0, 73
6, 0, Control_c, 0, 7, 88
6, 0, Control_c, 0, 10, 60
6, 0, Control_c, 0, 11, 127
6, 690, Note_on_c, 0, 86, 84
6, 715, Note_on_c, 0, 86, 0
6, 720, Note_on_c, 0, 86, 84
6, 1064, Note_on_c, 0, 86, 0
6, 3240, Note_on_c, 0, 85, 52
6, 3240, Note_on_c, 0, 88, 52
6, 3306, Note_on_c, 0, 85, 0
6, 3306, Note_on_c, 0, 88, 0
6, 3330, Note_on_c, 0, 86, 52
6, 3330, Note_on_c, 0, 83, 52
6, 3351, Note_on_c, 0, 86, 0
6, 3351, Note_on_c, 0, 83, 0
6, 3360, Note_on_c, 0, 85, 52
6, 3360, Note_on_c, 0, 81, 52
6, 3426, Note_on_c, 0, 85, 0
6, 3426, Note_on_c, 0, 81, 0
6, 3450, Note_on_c, 0, 83, 52
6, 3450, Note_on_c, 0, 79, 52
6, 3471, Note_on_c, 0, 83, 0
6, 3471, Note_on_c, 0, 79, 0
6, 3480, Note_on_c, 0, 78, 52
6, 3480, Note_on_c, 0, 81, 52
6, 3546, Note_on_c, 0, 78, 0
6, 3546, Note_on_c, 0, 81, 0
6, 3570, Note_on_c, 0, 76, 52
6, 3570, Note_on_c, 0, 79, 52
6, 3591, Note_on_c, 0, 76, 0
6, 3591, Note_on_c, 0, 79, 0
6, 3600, Note_on_c, 0, 78, 84
6, 3600, Note_on_c, 0, 74, 84
6, 3959, Note_on_c, 0, 78, 0
6, 3959, Note_on_c, 0, 74, 0
6, 4800, Note_on_c, 0, 75, 92
6, 4800, Note_on_c, 0, 84, 92
6, 5039, Note_on_c, 0, 75, 0
6, 5039, Note_on_c, 0, 84, 0
6, 5040, Note_on_c, 0, 76, 84
6, 5040, Note_on_c, 0, 83, 84
6, 5129, Note_on_c, 0, 76, 0
6, 5129, Note_on_c, 0, 83, 0
6, 7080, Note_on_c, 0, 78, 52
6, 7199, Note_on_c, 0, 78, 0
6, 7200, Note_on_c, 0, 79, 76
6, 7439, Note_on_c, 0, 79, 0
6, 7800, Note_on_c, 0, 80, 52
6, 7919, Note_on_c, 0, 80, 0
6, 7920, Note_on_c, 0, 81, 76
6, 8159, Note_on_c, 0, 81, 0
6, 8520, Note_on_c, 0, 87, 84
6, 8520, Note_on_c, 0, 81, 84
6, 8609, Note_on_c, 0, 87, 0
6, 8609, Note_on_c, 0, 81, 0
6, 8640, Note_on_c, 0, 86, 84
6, 8640, Note_on_c, 0, 82, 84
6, 8729, Note_on_c, 0, 86, 0
6, 8729, Note_on_c, 0, 82, 0
6, 9360, Note_on_c, 0, 87, 68
6, 9420, Control_c, 0, 11, 96
6, 9655, Note_on_c, 0, 87, 0
6, 9660, Note_on_c, 0, 86, 68
6, 9689, Note_on_c, 0, 86, 0
6, 9690, Note_on_c, 0, 84, 68
6, 9719, Note_on_c, 0, 84, 0
6, 9720, Note_on_c, 0, 82, 68
6, 9749, Note_on_c, 0, 82, 0
6, 9750, Note_on_c, 0, 81, 68
6, 9779, Note_on_c, 0, 81, 0
6, 9780, Note_on_c, 0, 79, 68
6, 9809, Note_on_c, 0, 79, 0
6, 9810, Note_on_c, 0, 77, 68
6, 9835, Note_on_c, 0, 77, 0
6, 9840, Note_on_c, 0, 75, 68
6, 9869, Note_on_c, 0, 75, 0
6, 9870, Note_on_c, 0, 86, 68
6, 9899, Note_on_c, 0, 86, 0
6, 9900, Note_on_c, 0, 84, 68
6, 9929, Note_on_c, 0, 84, 0
6, 9930, Note_on_c, 0, 82, 68
6, 9959, Note_on_c, 0, 82, 0
6, 9960, Note_on_c, 0, 81, 68
6, 9989, Note_on_c, 0, 81, 0
6, 9990, Note_on_c, 0, 91, 68
6, 10019, Note_on_c, 0, 91, 0
6, 10020, Note_on_c, 0, 89, 68
6, 10049, Note_on_c, 0, 89, 0
6, 10050, Note_on_c, 0, 87, 68
6, 10075, Note_on_c, 0, 87, 0
6, 10080, Note_on_c, 0, 86, 68
6, 10199, Note_on_c, 0, 86, 0
6, 10560, Control_c, 0, 11, 127
6, 10800, Note_on_c, 0, 87, 68
6, 10860, Control_c, 0, 11, 96
6, 11065, Note_on_c, 0, 87, 0
6, 11070, Note_on_c, 0, 86, 68
6, 11099, Note_on_c, 0, 86, 0
6, 11100, Note_on_c, 0, 84, 68
6, 11129, Note_on_c, 0, 84, 0
6, 11130, Note_on_c, 0, 86, 68
6, 11159, Note_on_c, 0, 86, 0
6, 11160, Note_on_c, 0, 87, 68
6, 11189, Note_on_c, 0, 87, 0
6, 11190, Note_on_c, 0, 89, 68
6, 11219, Note_on_c, 0, 89, 0
6, 11220, Note_on_c, 0, 91, 68
6, 11249, Note_on_c, 0, 91, 0
6, 11250, Note_on_c, 0, 89, 68
6, 11275, Note_on_c, 0, 89, 0
6, 11280, Note_on_c, 0, 87, 68
6, 11309, Note_on_c, 0, 87, 0
6, 11310, Note_on_c, 0, 86, 68
6, 11339, Note_on_c, 0, 86, 0
6, 11340, Note_on_c, 0, 84, 68
6, 11369, Note_on_c, 0, 84, 0
6, 11370, Note_on_c, 0, 82, 68
6, 11399, Note_on_c, 0, 82, 0
6, 11400, Note_on_c, 0, 81, 68
6, 11429, Note_on_c, 0, 81, 0
6, 11430, Note_on_c, 0, 79, 68
6, 11459, Note_on_c, 0, 79, 0
6, 11460, Note_on_c, 0, 77, 68
6, 11489, Note_on_c, 0, 77, 0
6, 11490, Note_on_c, 0, 75, 68
6, 11515, Note_on_c, 0, 75, 0
6, 11520, Note_on_c, 0, 74, 68
6, 11639, Note_on_c, 0, 74, 0
6, 11760, Control_c, 0, 11, 80
6, 11800, Control_c, 0, 11, 84
6, 11840, Control_c, 0, 11, 88
6, 11880, Control_c, 0, 11, 92
6, 11920, Control_c, 0, 11, 96
6, 11960, Control_c, 0, 11, 100
6, 12000, Note_on_c, 0, 86, 76
6, 12000, Control_c, 0, 11, 104
6, 12040, Control_c, 0, 11, 107
6, 12080, Control_c, 0, 11, 111
6, 12119, Note_on_c, 0, 86, 0
6, 12120, Note_on_c, 0, 84, 76
6, 12120, Control_c, 0, 11, 115
6, 12160, Control_c, 0, 11, 119
6, 12200, Control_c, 0, 11, 127
6, 12231, Note_on_c, 0, 84, 0
6, 12240, Note_on_c, 0, 83, 84
6, 12479, Note_on_c, 0, 83, 0
6, 12600, Note_on_c, 0, 86, 52
6, 12719, Note_on_c, 0, 86, 0
6, 12720, Note_on_c, 0, 83, 52
6, 12839, Note_on_c, 0, 83, 0
6, 12840, Note_on_c, 0, 77, 52
6, 12951, Note_on_c, 0, 77, 0
6, 12960, Note_on_c, 0, 76, 52
6, 13079, Note_on_c, 0, 76, 0
6, 15840, Control_c, 0, 11, 64
6, 16200, Note_on_c, 0, 88, 84
6, 16220, Control_c, 0, 11, 69
6, 16240, Control_c, 0, 11, 75
6, 16260, Control_c, 0, 11, 80
6, 16280, Control_c, 0, 11, 85
6, 16300, Control_c, 0, 11, 90
6, 16319, Note_on_c, 0, 88, 0
6, 16320, Control_c, 0, 11, 96
6, 16320, Note_on_c, 0, 89, 84
6, 16340, Control_c, 0, 11, 101
6, 16360, Control_c, 0, 11, 106
6, 16380, Control_c, 0, 11, 111
6, 16400, Control_c, 0, 11, 117
6, 16420, Control_c, 0, 11, 122
6, 16439, Note_on_c, 0, 89, 0
6, 16440, Note_on_c, 0, 88, 84
6, 16551, Note_on_c, 0, 88, 0
6, 16560, Control_c, 0, 11, 127
6, 16560, Note_on_c, 0, 86, 84
6, 16765, Note_on_c, 0, 86, 0
6, 16770, Note_on_c, 0, 86, 84
6, 16795, Note_on_c, 0, 86, 0
6, 16800, Note_on_c, 0, 81, 84
6, 17005, Note_on_c, 0, 81, 0
6, 17010, Note_on_c, 0, 81, 84
6, 17035, Note_on_c, 0, 81, 0
6, 17040, Note_on_c, 0, 77, 84
6, 17129, Note_on_c, 0, 77, 0
6, 17160, Note_on_c, 0, 74, 84
6, 17249, Note_on_c, 0, 74, 0
6, 17280, Note_on_c, 0, 69, 92
6, 17399, Note_on_c, 0, 69, 0
6, 21090, Note_on_c, 0, 86, 52
6, 21115, Note_on_c, 0, 86, 0
6, 21120, Note_on_c, 0, 86, 52
6, 21134, Note_on_c, 0, 86, 0
6, 21135, Note_on_c, 0, 88, 52
6, 21149, Note_on_c, 0, 88, 0
6, 21150, Note_on_c, 0, 86, 52
6, 21164, Note_on_c, 0, 86, 0
6, 21165, Note_on_c, 0, 88, 52
6, 21179, Note_on_c, 0, 88, 0
6, 21180, Note_on_c, 0, 86, 52
6, 21194, Note_on_c, 0, 86, 0
6, 21195, Note_on_c, 0, 88, 52
6, 21209, Note_on_c, 0, 88, 0
6, 21210, Note_on_c, 0, 86, 52
6, 21224, Note_on_c, 0, 86, 0
6, 21225, Note_on_c, 0, 88, 52
6, 21239, Note_on_c, 0, 88, 0
6, 21240, Note_on_c, 0, 86, 52
6, 21254, Note_on_c, 0, 86, 0
6, 21255, Note_on_c, 0, 88, 52
6, 21269, Note_on_c, 0, 88, 0
6, 21270, Note_on_c, 0, 86, 52
6, 21284, Note_on_c, 0, 86, 0
6, 21285, Note_on_c, 0, 88, 52
6, 21299, Note_on_c, 0, 88, 0
6, 21300, Note_on_c, 0, 85, 52
6, 21329, Note_on_c, 0, 85, 0
6, 21330, Note_on_c, 0, 86, 52
6, 21355, Note_on_c, 0, 86, 0
6, 21360, Note_on_c, 0, 89, 52
6, 21479, Note_on_c, 0, 89, 0
6, 21810, Note_on_c, 0, 85, 52
6, 21835, Note_on_c, 0, 85, 0
6, 21840, Note_on_c, 0, 85, 52
6, 21854, Note_on_c, 0, 85, 0
6, 21855, Note_on_c, 0, 86, 52
6, 21869, Note_on_c, 0, 86, 0
6, 21870, Note_on_c, 0, 85, 52
6, 21884, Note_on_c, 0, 85, 0
6, 21885, Note_on_c, 0, 86, 52
6, 21899, Note_on_c, 0, 86, 0
6, 21900, Note_on_c, 0, 85, 52
6, 21914, Note_on_c, 0, 85, 0
6, 21915, Note_on_c, 0, 86, 52
6, 21929, Note_on_c, 0, 86, 0
6, 21930, Note_on_c, 0, 85, 52
6, 21944, Note_on_c, 0, 85, 0
6, 21945, Note_on_c, 0, 86, 52
6, 21959, Note_on_c, 0, 86, 0
6, 21960, Note_on_c, 0, 85, 52
6, 21974, Note_on_c, 0, 85, 0
6, 21975, Note_on_c, 0, 86, 52
6, 21989, Note_on_c, 0, 86, 0
6, 21990, Note_on_c, 0, 85, 52
6, 22004, Note_on_c, 0, 85, 0
6, 22005, Note_on_c, 0, 86, 52
6, 22019, Note_on_c, 0, 86, 0
6, 22020, Note_on_c, 0, 83, 52
6, 22049, Note_on_c, 0, 83, 0
6, 22050, Note_on_c, 0, 85, 52
6, 22075, Note_on_c, 0, 85, 0
6, 22080, Note_on_c, 0, 88, 52
6, 22199, Note_on_c, 0, 88, 0
6, 22530, Note_on_c, 0, 81, 52
6, 22555, Note_on_c, 0, 81, 0
6, 22560, Note_on_c, 0, 81, 52
6, 22574, Note_on_c, 0, 81, 0
6, 22575, Note_on_c, 0, 83, 52
6, 22589, Note_on_c, 0, 83, 0
6, 22590, Note_on_c, 0, 81, 52
6, 22604, Note_on_c, 0, 81, 0
6, 22605, Note_on_c, 0, 83, 52
6, 22619, Note_on_c, 0, 83, 0
6, 22620, Note_on_c, 0, 81, 52
6, 22634, Note_on_c, 0, 81, 0
6, 22635, Note_on_c, 0, 83, 52
6, 22649, Note_on_c, 0, 83, 0
6, 22650, Note_on_c, 0, 81, 52
6, 22664, Note_on_c, 0, 81, 0
6, 22665, Note_on_c, 0, 83, 52
6, 22679, Note_on_c, 0, 83, 0
6, 22680, Note_on_c, 0, 81, 52
6, 22694, Note_on_c, 0, 81, 0
6, 22695, Note_on_c, 0, 83, 52
6, 22709, Note_on_c, 0, 83, 0
6, 22710, Note_on_c, 0, 81, 52
6, 22724, Note_on_c, 0, 81, 0
6, 22725, Note_on_c, 0, 83, 52
6, 22739, Note_on_c, 0, 83, 0
6, 22740, Note_on_c, 0, 80, 52
6, 22769, Note_on_c, 0, 80, 0
6, 22770, Note_on_c, 0, 81, 52
6, 22795, Note_on_c, 0, 81, 0
6, 22800, Note_on_c, 0, 86, 52
6, 22919, Note_on_c, 0, 86, 0
6, 23250, Note_on_c, 0, 81, 52
6, 23275, Note_on_c, 0, 81, 0
6, 23280, Note_on_c, 0, 81, 52
6, 23294, Note_on_c, 0, 81, 0
6, 23295, Note_on_c, 0, 83, 52
6, 23309, Note_on_c, 0, 83, 0
6, 23310, Note_on_c, 0, 81, 52
6, 23324, Note_on_c, 0, 81, 0
6, 23325, Note_on_c, 0, 83, 52
6, 23339, Note_on_c, 0, 83, 0
6, 23340, Note_on_c, 0, 81, 52
6, 23354, Note_on_c, 0, 81, 0
6, 23355, Note_on_c, 0, 83, 52
6, 23369, Note_on_c, 0, 83, 0
6, 23370, Note_on_c, 0, 81, 52
6, 23384, Note_on_c, 0, 81, 0
6, 23385, Note_on_c, 0, 83, 52
6, 23399, Note_on_c, 0, 83, 0
6, 23400, Note_on_c, 0, 81, 52
6, 23414, Note_on_c, 0, 81, 0
6, 23415, Note_on_c, 0, 83, 52
6, 23429, Note_on_c, 0, 83, 0
6, 23430, Note_on_c, 0, 81, 52
6, 23444, Note_on_c, 0, 81, 0
6, 23445, Note_on_c, 0, 83, 52
6, 23459, Note_on_c, 0, 83, 0
6, 23460, Note_on_c, 0, 80, 52
6, 23489, Note_on_c, 0, 80, 0
6, 23490, Note_on_c, 0, 81, 52
6, 23519, Note_on_c, 0, 81, 0
6, 36960, Note_on_c, 0, 86, 76
6, 37904, Note_on_c, 0, 86, 0
6, 37920, Note_on_c, 0, 86, 84
6, 38864, Note_on_c, 0, 86, 0
6, 38880, Note_on_c, 0, 86, 76
6, 39119, Note_on_c, 0, 86, 0
6, 39360, Note_on_c, 0, 86, 84
6, 40064, Note_on_c, 0, 86, 0
6, 40080, Note_on_c, 0, 86, 76
6, 40304, Note_on_c, 0, 86, 0
6, 40320, Note_on_c, 0, 86, 76
6, 40544, Note_on_c, 0, 86, 0
6, 40560, Note_on_c, 0, 86, 76
6, 40784, Note_on_c, 0, 86, 0
6, 40800, Note_on_c, 0, 86, 76
6, 41039, Note_on_c, 0, 86, 0
6, 41280, Note_on_c, 0, 86, 84
6, 41280, Note_on_c, 0, 91, 84
6, 41759, Note_on_c, 0, 86, 0
6, 41760, Note_on_c, 0, 88, 76
6, 41984, Note_on_c, 0, 91, 0
6, 41984, Note_on_c, 0, 88, 0
6, 42000, Note_on_c, 0, 85, 76
6, 42000, Note_on_c, 0, 88, 76
6, 42179, Note_on_c, 0, 85, 0
6, 42179, Note_on_c, 0, 88, 0
6, 42240, Note_on_c, 0, 79, 76
6, 42240, Note_on_c, 0, 85, 76
6, 42419, Note_on_c, 0, 79, 0
6, 42419, Note_on_c, 0, 85, 0
6, 42480, Note_on_c, 0, 76, 76
6, 42480, Note_on_c, 0, 79, 76
6, 42659, Note_on_c, 0, 76, 0
6, 42659, Note_on_c, 0, 79, 0
6, 42720, Note_on_c, 0, 74, 76
6, 42720, Note_on_c, 0, 78, 76
6, 42959, Note_on_c, 0, 74, 0
6, 42959, Note_on_c, 0, 78, 0
6, 43200, Note_on_c, 0, 86, 84
6, 43904, Note_on_c, 0, 86, 0
6, 43920, Note_on_c, 0, 86, 76
6, 44144, Note_on_c, 0, 86, 0
6, 44160, Note_on_c, 0, 86, 76
6, 44384, Note_on_c, 0, 86, 0
6, 44400, Note_on_c, 0, 86, 76
6, 44624, Note_on_c, 0, 86, 0
6, 44640, Note_on_c, 0, 86, 76
6, 44879, Note_on_c, 0, 86, 0
6, 45120, Note_on_c, 0, 91, 84
6, 45120, Note_on_c, 0, 86, 84
6, 45599, Note_on_c, 0, 86, 0
6, 45600, Note_on_c, 0, 88, 76
6, 45824, Note_on_c, 0, 91, 0
6, 45824, Note_on_c, 0, 88, 0
6, 45840, Note_on_c, 0, 88, 76
6, 45840, Note_on_c, 0, 85, 76
6, 46019, Note_on_c, 0, 88, 0
6, 46019, Note_on_c, 0, 85, 0
6, 46080, Note_on_c, 0, 79, 76
6, 46080, Note_on_c, 0, 85, 76
6, 46259, Note_on_c, 0, 79, 0
6, 46259, Note_on_c, 0, 85, 0
6, 46320, Note_on_c, 0, 79, 76
6, 46320, Note_on_c, 0, 76, 76
6, 46499, Note_on_c, 0, 79, 0
6, 46499, Note_on_c, 0, 76, 0
6, 46560, Note_on_c, 0, 77, 76
6, 46560, Note_on_c, 0, 74, 76
6, 46799, Note_on_c, 0, 77, 0
6, 46799, Note_on_c, 0, 74, 0
6, 47460, Note_on_c, 0, 86, 76
6, 47460, Note_on_c, 0, 89, 76
6, 47511, Note_on_c, 0, 86, 0
6, 47511, Note_on_c, 0, 89, 0
6, 47520, Note_on_c, 0, 89, 84
6, 47520, Note_on_c, 0, 86, 84
6, 48719, Note_on_c, 0, 89, 0
6, 48719, Note_on_c, 0, 86, 0
6, 49380, Note_on_c, 0, 86, 76
6, 49380, Note_on_c, 0, 89, 76
6, 49431, Note_on_c, 0, 86, 0
6, 49431, Note_on_c, 0, 89, 0
6, 49440, Note_on_c, 0, 89, 84
6, 49440, Note_on_c, 0, 86, 84
6, 50399, Note_on_c, 0, 89, 0
6, 50400, Note_on_c, 0, 88, 76
6, 50639, Note_on_c, 0, 86, 0
6, 50639, Note_on_c, 0, 88, 0
6, 52440, Note_on_c, 0, 75, 84
6, 52529, Note_on_c, 0, 75, 0
6, 52560, Note_on_c, 0, 76, 84
6, 52649, Note_on_c, 0, 76, 0
6, 52680, Note_on_c, 0, 75, 84
6, 52769, Note_on_c, 0, 75, 0
6, 52800, Note_on_c, 0, 76, 84
6, 52889, Note_on_c, 0, 76, 0
6, 52920, Note_on_c, 0, 78, 84
6, 53009, Note_on_c, 0, 78, 0
6, 53040, Note_on_c, 0, 79, 84
6, 53129, Note_on_c, 0, 79, 0
6, 53160, Note_on_c, 0, 80, 84
6, 53249, Note_on_c, 0, 80, 0
6, 53280, Note_on_c, 0, 81, 84
6, 53369, Note_on_c, 0, 81, 0
6, 53400, Note_on_c, 0, 80, 84
6, 53489, Note_on_c, 0, 80, 0
6, 53520, Note_on_c, 0, 81, 84
6, 53609, Note_on_c, 0, 81, 0
6, 53640, Note_on_c, 0, 83, 84
6, 53729, Note_on_c, 0, 83, 0
6, 53760, Note_on_c, 0, 84, 84
6, 53849, Note_on_c, 0, 84, 0
6, 53880, Note_on_c, 0, 85, 84
6, 53969, Note_on_c, 0, 85, 0
6, 54000, Note_on_c, 0, 86, 84
6, 54089, Note_on_c, 0, 86, 0
6, 54120, Note_on_c, 0, 87, 84
6, 54209, Note_on_c, 0, 87, 0
6, 54240, Note_on_c, 0, 88, 84
6, 54479, Note_on_c, 0, 88, 0
6, 56160, Note_on_c, 0, 88, 92
6, 57704, Note_on_c, 0, 88, 0
6, 57720, Note_on_c, 0, 85, 84
6, 57824, Note_on_c, 0, 85, 0
6, 57840, Note_on_c, 0, 86, 84
6, 57944, Note_on_c, 0, 86, 0
6, 57960, Note_on_c, 0, 87, 84
6, 58064, Note_on_c, 0, 87, 0
6, 58080, Note_on_c, 0, 88, 92
6, 58439, Note_on_c, 0, 88, 0
6, 58440, Note_on_c, 0, 87, 84
6, 58544, Note_on_c, 0, 87, 0
6, 58560, Note_on_c, 0, 88, 92
6, 58919, Note_on_c, 0, 88, 0
6, 58920, Note_on_c, 0, 87, 84
6, 59024, Note_on_c, 0, 87, 0
6, 59040, Note_on_c, 0, 88, 84
6, 59129, Note_on_c, 0, 88, 0
6, 59160, Note_on_c, 0, 87, 84
6, 59249, Note_on_c, 0, 87, 0
6, 59280, Note_on_c, 0, 88, 84
6, 59369, Note_on_c, 0, 88, 0
6, 59400, Note_on_c, 0, 87, 84
6, 59489, Note_on_c, 0, 87, 0
6, 59520, Note_on_c, 0, 88, 84
6, 59609, Note_on_c, 0, 88, 0
6, 59640, Note_on_c, 0, 87, 84
6, 59729, Note_on_c, 0, 87, 0
6, 59760, Note_on_c, 0, 88, 84
6, 59849, Note_on_c, 0, 88, 0
6, 59880, Note_on_c, 0, 87, 84
6, 59969, Note_on_c, 0, 87, 0
6, 60000, Note_on_c, 0, 88, 92
6, 60704, Note_on_c, 0, 88, 0
6, 60720, Note_on_c, 0, 87, 84
6, 60899, Note_on_c, 0, 87, 0
6, 60960, Note_on_c, 0, 86, 84
6, 61139, Note_on_c, 0, 86, 0
6, 61200, Note_on_c, 0, 85, 84
6, 61379, Note_on_c, 0, 85, 0
6, 61440, Note_on_c, 0, 83, 84
6, 61619, Note_on_c, 0, 83, 0
6, 61680, Note_on_c, 0, 88, 84
6, 61859, Note_on_c, 0, 88, 0
6, 61920, Note_on_c, 0, 81, 52
6, 62099, Note_on_c, 0, 81, 0
6, 65760, Note_on_c, 0, 85, 84
6, 65760, Note_on_c, 0, 81, 84
6, 66224, Note_on_c, 0, 85, 0
6, 66224, Note_on_c, 0, 81, 0
6, 66240, Note_on_c, 0, 81, 84
6, 66240, Note_on_c, 0, 85, 84
6, 66651, Note_on_c, 0, 81, 0
6, 66651, Note_on_c, 0, 85, 0
6, 66660, Note_on_c, 0, 85, 84
6, 66660, Note_on_c, 0, 81, 84
6, 66711, Note_on_c, 0, 85, 0
6, 66711, Note_on_c, 0, 81, 0
6, 66720, Note_on_c, 0, 85, 92
6, 66720, Note_on_c, 0, 81, 92
6, 67424, Note_on_c, 0, 85, 0
6, 67424, Note_on_c, 0, 81, 0
6, 67440, Note_on_c, 0, 81, 84
6, 67440, Note_on_c, 0, 90, 84
6, 67664, Note_on_c, 0, 81, 0
6, 67664, Note_on_c, 0, 90, 0
6, 67920, Note_on_c, 0, 88, 92
6, 67920, Note_on_c, 0, 80, 92
6, 68159, Note_on_c, 0, 88, 0
6, 68159, Note_on_c, 0, 80, 0
6, 68400, Note_on_c, 0, 87, 92
6, 68400, Note_on_c, 0, 78, 92
6, 68639, Note_on_c, 0, 87, 0
6, 68639, Note_on_c, 0, 78, 0
6, 68640, Note_on_c, 0, 80, 84
6, 68640, Note_on_c, 0, 88, 84
6, 68879, Note_on_c, 0, 80, 0
6, 68879, Note_on_c, 0, 88, 0
6, 69600, Note_on_c, 0, 69, 52
6, 69600, Note_on_c, 0, 73, 52
6, 70064, Note_on_c, 0, 69, 0
6, 70064, Note_on_c, 0, 73, 0
6, 70080, Note_on_c, 0, 73, 52
6, 70080, Note_on_c, 0, 76, 52
6, 70491, Note_on_c, 0, 73, 0
6, 70491, Note_on_c, 0, 76, 0
6, 70500, Note_on_c, 0, 81, 52
6, 70500, Note_on_c, 0, 76, 52
6, 70551, Note_on_c, 0, 81, 0
6, 70551, Note_on_c, 0, 76, 0
6, 70560, Note_on_c, 0, 81, 52
6, 70560, Note_on_c, 0, 85, 52
6, 71264, Note_on_c, 0, 81, 0
6, 71264, Note_on_c, 0, 85, 0
6, 71280, Note_on_c, 0, 85, 52
6, 71280, Note_on_c, 0, 81, 52
6, 71459, Note_on_c, 0, 85, 0
6, 71459, Note_on_c, 0, 81, 0
6, 71460, Note_on_c, 0, 86, 52
6, 71460, Note_on_c, 0, 83, 52
6, 71511, Note_on_c, 0, 86, 0
6, 71511, Note_on_c, 0, 83, 0
6, 71520, Note_on_c, 0, 85, 52
6, 71520, Note_on_c, 0, 88, 52
6, 71699, Note_on_c, 0, 85, 0
6, 71699, Note_on_c, 0, 88, 0
6, 71760, Note_on_c, 0, 88, 52
6, 71760, Note_on_c, 0, 85, 52
6, 71939, Note_on_c, 0, 88, 0
6, 71939, Note_on_c, 0, 85, 0
6, 72000, Note_on_c, 0, 88, 52
6, 72000, Note_on_c, 0, 85, 52
6, 72179, Note_on_c, 0, 88, 0
6, 72179, Note_on_c, 0, 85, 0
6, 72240, Note_on_c, 0, 90, 52
6, 72240, Note_on_c, 0, 86, 52
6, 72419, Note_on_c, 0, 90, 0
6, 72419, Note_on_c, 0, 86, 0
6, 72480, Note_on_c, 0, 85, 52
6, 72480, Note_on_c, 0, 88, 52
6, 72959, Note_on_c, 0, 85, 0
6, 72959, Note_on_c, 0, 88, 0
6, 72960, Note_on_c, 0, 85, 52
6, 72960, Note_on_c, 0, 81, 52
6, 73049, Note_on_c, 0, 85, 0
6, 73049, Note_on_c, 0, 81, 0
6, 73440, Note_on_c, 0, 85, 84
6, 73440, Note_on_c, 0, 81, 84
6, 73904, Note_on_c, 0, 85, 0
6, 73904, Note_on_c, 0, 81, 0
6, 73920, Note_on_c, 0, 85, 84
6, 73920, Note_on_c, 0, 81, 84
6, 74331, Note_on_c, 0, 85, 0
6, 74331, Note_on_c, 0, 81, 0
6, 74340, Note_on_c, 0, 81, 84
6, 74340, Note_on_c, 0, 85, 84
6, 74391, Note_on_c, 0, 81, 0
6, 74391, Note_on_c, 0, 85, 0
6, 74400, Note_on_c, 0, 85, 92
6, 74400, Note_on_c, 0, 81, 92
6, 75104, Note_on_c, 0, 85, 0
6, 75104, Note_on_c, 0, 81, 0
6, 75120, Note_on_c, 0, 81, 84
6, 75120, Note_on_c, 0, 90, 84
6, 75359, Note_on_c, 0, 81, 0
6, 75359, Note_on_c, 0, 90, 0
6, 75600, Note_on_c, 0, 80, 92
6, 75600, Note_on_c, 0, 88, 92
6, 75839, Note_on_c, 0, 80, 0
6, 75839, Note_on_c, 0, 88, 0
6, 76080, Note_on_c, 0, 87, 92
6, 76080, Note_on_c, 0, 78, 92
6, 76319, Note_on_c, 0, 87, 0
6, 76319, Note_on_c, 0, 78, 0
6, 76320, Note_on_c, 0, 80, 84
6, 76320, Note_on_c, 0, 88, 84
6, 76559, Note_on_c, 0, 80, 0
6, 76559, Note_on_c, 0, 88, 0
6, 78240, Note_on_c, 0, 88, 92
6, 78824, Note_on_c, 0, 88, 0
6, 78840, Note_on_c, 0, 88, 84
6, 78959, Note_on_c, 0, 88, 0
6, 78960, Note_on_c, 0, 86, 84
6, 79079, Note_on_c, 0, 86, 0
6, 79080, Note_on_c, 0, 85, 84
6, 79184, Note_on_c, 0, 85, 0
6, 79200, Note_on_c, 0, 86, 92
6, 79784, Note_on_c, 0, 86, 0
6, 79800, Note_on_c, 0, 86, 84
6, 79919, Note_on_c, 0, 86, 0
6, 79920, Note_on_c, 0, 85, 84
6, 80039, Note_on_c, 0, 85, 0
6, 80040, Note_on_c, 0, 84, 84
6, 80144, Note_on_c, 0, 84, 0
6, 80160, Note_on_c, 0, 85, 92
6, 80249, Note_on_c, 0, 85, 0
6, 80280, Note_on_c, 0, 85, 84
6, 80399, Note_on_c, 0, 85, 0
6, 80400, Note_on_c, 0, 83, 84
6, 80519, Note_on_c, 0, 83, 0
6, 80520, Note_on_c, 0, 82, 84
6, 80624, Note_on_c, 0, 82, 0
6, 80640, Note_on_c, 0, 83, 92
6, 80729, Note_on_c, 0, 83, 0
6, 80760, Note_on_c, 0, 83, 84
6, 80879, Note_on_c, 0, 83, 0
6, 80880, Note_on_c, 0, 81, 84
6, 80999, Note_on_c, 0, 81, 0
6, 81000, Note_on_c, 0, 80, 84
6, 81104, Note_on_c, 0, 80, 0
6, 81120, Note_on_c, 0, 81, 92
6, 81209, Note_on_c, 0, 81, 0
6, 81240, Note_on_c, 0, 88, 84
6, 81359, Note_on_c, 0, 88, 0
6, 81360, Note_on_c, 0, 86, 84
6, 81479, Note_on_c, 0, 86, 0
6, 81480, Note_on_c, 0, 85, 84
6, 81584, Note_on_c, 0, 85, 0
6, 81600, Note_on_c, 0, 86, 92
6, 81689, Note_on_c, 0, 86, 0
6, 81720, Note_on_c, 0, 86, 84
6, 81839, Note_on_c, 0, 86, 0
6, 81840, Note_on_c, 0, 85, 84
6, 81959, Note_on_c, 0, 85, 0
6, 81960, Note_on_c, 0, 84, 84
6, 82064, Note_on_c, 0, 84, 0
6, 82080, Note_on_c, 0, 85, 92
6, 82169, Note_on_c, 0, 85, 0
6, 82200, Note_on_c, 0, 85, 84
6, 82319, Note_on_c, 0, 85, 0
6, 82320, Note_on_c, 0, 83, 84
6, 82439, Note_on_c, 0, 83, 0
6, 82440, Note_on_c, 0, 81, 84
6, 82544, Note_on_c, 0, 81, 0
6, 82560, Note_on_c, 0, 83, 92
6, 82649, Note_on_c, 0, 83, 0
6, 82680, Note_on_c, 0, 83, 84
6, 82799, Note_on_c, 0, 83, 0
6, 82800, Note_on_c, 0, 81, 84
6, 82919, Note_on_c, 0, 81, 0
6, 82920, Note_on_c, 0, 80, 84
6, 83024, Note_on_c, 0, 80, 0
6, 83040, Note_on_c, 0, 81, 92
6, 83129, Note_on_c, 0, 81, 0
6, 83160, Note_on_c, 0, 93, 84
6, 83160, Note_on_c, 0, 81, 84
6, 83279, Note_on_c, 0, 93, 0
6, 83279, Note_on_c, 0, 81, 0
6, 83280, Note_on_c, 0, 91, 84
6, 83280, Note_on_c, 0, 79, 84
6, 83399, Note_on_c, 0, 91, 0
6, 83399, Note_on_c, 0, 79, 0
6, 83400, Note_on_c, 0, 78, 84
6, 83400, Note_on_c, 0, 90, 84
6, 83504, Note_on_c, 0, 78, 0
6, 83504, Note_on_c, 0, 90, 0
6, 83520, Note_on_c, 0, 79, 92
6, 83520, Note_on_c, 0, 91, 92
6, 83609, Note_on_c, 0, 79, 0
6, 83609, Note_on_c, 0, 91, 0
6, 83640, Note_on_c, 0, 91, 84
6, 83640, Note_on_c, 0, 79, 84
6, 83759, Note_on_c, 0, 91, 0
6, 83759, Note_on_c, 0, 79, 0
6, 83760, Note_on_c, 0, 90, 84
6, 83760, Note_on_c, 0, 78, 84
6, 83879, Note_on_c, 0, 90, 0
6, 83879, Note_on_c, 0, 78, 0
6, 83880, Note_on_c, 0, 89, 84
6, 83880, Note_on_c, 0, 77, 84
6, 83984, Note_on_c, 0, 89, 0
6, 83984, Note_on_c, 0, 77, 0
6, 84000, Note_on_c, 0, 90, 84
6, 84000, Note_on_c, 0, 78, 84
6, 84179, Note_on_c, 0, 90, 0
6, 84179, Note_on_c, 0, 78, 0
6, 84420, Note_on_c, 0, 90, 84
6, 84420, Note_on_c, 0, 86, 84
6, 84471, Note_on_c, 0, 90, 0
6, 84471, Note_on_c, 0, 86, 0
6, 84480, Note_on_c, 0, 86, 84
6, 84480, Note_on_c, 0, 90, 84
6, 84959, Note_on_c, 0, 86, 0
6, 84959, Note_on_c, 0, 90, 0
6, 85380, Note_on_c, 0, 86, 84
6, 85380, Note_on_c, 0, 90, 84
6, 85431, Note_on_c, 0, 86, 0
6, 85431, Note_on_c, 0, 90, 0
6, 85440, Note_on_c, 0, 90, 84
6, 85440, Note_on_c, 0, 86, 84
6, 85919, Note_on_c, 0, 90, 0
6, 85919, Note_on_c, 0, 86, 0
6, 86160, Note_on_c, 0, 86, 84
6, 86160, Note_on_c, 0, 88, 84
6, 86399, Note_on_c, 0, 86, 0
6, 86399, Note_on_c, 0, 88, 0
6, 86640, Note_on_c, 0, 85, 84
6, 86640, Note_on_c, 0, 88, 84
6, 86879, Note_on_c, 0, 85, 0
6, 86879, Note_on_c, 0, 88, 0
6, 87120, Note_on_c, 0, 83, 84
6, 87120, Note_on_c, 0, 86, 84
6, 87359, Note_on_c, 0, 83, 0
6, 87359, Note_on_c, 0, 86, 0
6, 87600, Note_on_c, 0, 83, 84
6, 87600, Note_on_c, 0, 80, 84
6, 87839, Note_on_c, 0, 83, 0
6, 87839, Note_on_c, 0, 80, 0
6, 88260, Note_on_c, 0, 86, 84
6, 88311, Note_on_c, 0, 86, 0
6, 88320, Note_on_c, 0, 86, 84
6, 88799, Note_on_c, 0, 86, 0
6, 89220, Note_on_c, 0, 89, 84
6, 89220, Note_on_c, 0, 86, 84
6, 89271, Note_on_c, 0, 89, 0
6, 89271, Note_on_c, 0, 86, 0
6, 89280, Note_on_c, 0, 86, 84
6, 89280, Note_on_c, 0, 89, 84
6, 89759, Note_on_c, 0, 86, 0
6, 89759, Note_on_c, 0, 89, 0
6, 95280, Note_on_c, 0, 81, 68
6, 95339, Note_on_c, 0, 81, 0
6, 95340, Note_on_c, 0, 80, 68
6, 95399, Note_on_c, 0, 80, 0
6, 95400, Note_on_c, 0, 81, 68
6, 95459, Note_on_c, 0, 81, 0
6, 95460, Note_on_c, 0, 83, 68
6, 95511, Note_on_c, 0, 83, 0
6, 95520, Note_on_c, 0, 84, 76
6, 96464, Note_on_c, 0, 84, 0
6, 96480, Note_on_c, 0, 75, 76
6, 97424, Note_on_c, 0, 75, 0
6, 97440, Note_on_c, 0, 81, 84
6, 97440, Note_on_c, 0, 76, 84
6, 97664, Note_on_c, 0, 76, 0
6, 97680, Note_on_c, 0, 85, 84
6, 98144, Note_on_c, 0, 85, 0
6, 98160, Note_on_c, 0, 85, 84
6, 98384, Note_on_c, 0, 81, 0
6, 98384, Note_on_c, 0, 85, 0
6, 98400, Note_on_c, 0, 86, 84
6, 98400, Note_on_c, 0, 83, 84
6, 99104, Note_on_c, 0, 86, 0
6, 99104, Note_on_c, 0, 83, 0
6, 99120, Note_on_c, 0, 86, 84
6, 99120, Note_on_c, 0, 83, 84
6, 99344, Note_on_c, 0, 86, 0
6, 99344, Note_on_c, 0, 83, 0
6, 99360, Note_on_c, 0, 81, 84
6, 99360, Note_on_c, 0, 85, 84
6, 99599, Note_on_c, 0, 81, 0
6, 99599, Note_on_c, 0, 85, 0
6, 101280, Note_on_c, 0, 86, 84
6, 101984, Note_on_c, 0, 86, 0
6, 102000, Note_on_c, 0, 86, 84
6, 102179, Note_on_c, 0, 86, 0
6, 102240, Note_on_c, 0, 81, 84
6, 102419, Note_on_c, 0, 81, 0
6, 102480, Note_on_c, 0, 89, 84
6, 102480, Note_on_c, 0, 77, 84
6, 102659, Note_on_c, 0, 89, 0
6, 102659, Note_on_c, 0, 77, 0
6, 102720, Note_on_c, 0, 88, 84
6, 102720, Note_on_c, 0, 76, 84
6, 102899, Note_on_c, 0, 88, 0
6, 102899, Note_on_c, 0, 76, 0
6, 102960, Note_on_c, 0, 74, 84
6, 102960, Note_on_c, 0, 86, 84
6, 103139, Note_on_c, 0, 74, 0
6, 103139, Note_on_c, 0, 86, 0
6, 103200, Note_on_c, 0, 69, 84
6, 103200, Note_on_c, 0, 81, 84
6, 103439, Note_on_c, 0, 69, 0
6, 103439, Note_on_c, 0, 81, 0
6, 105120, Note_on_c, 0, 86, 84
6, 105824, Note_on_c, 0, 86, 0
6, 105840, Note_on_c, 0, 86, 84
6, 106019, Note_on_c, 0, 86, 0
6, 106080, Note_on_c, 0, 81, 84
6, 106259, Note_on_c, 0, 81, 0
6, 106320, Note_on_c, 0, 89, 84
6, 106320, Note_on_c, 0, 77, 84
6, 106499, Note_on_c, 0, 89, 0
6, 106499, Note_on_c, 0, 77, 0
6, 106560, Note_on_c, 0, 76, 84
6, 106560, Note_on_c, 0, 88, 84
6, 106739, Note_on_c, 0, 76, 0
6, 106739, Note_on_c, 0, 88, 0
6, 106800, Note_on_c, 0, 86, 84
6, 106800, Note_on_c, 0, 74, 84
6, 106979, Note_on_c, 0, 86, 0
6, 106979, Note_on_c, 0, 74, 0
6, 107040, Note_on_c, 0, 81, 52
6, 107759, Note_on_c, 0, 81, 0
6, 107760, Note_on_c, 0, 80, 76
6, 107984, Note_on_c, 0, 80, 0
6, 108000, Note_on_c, 0, 81, 52
6, 108719, Note_on_c, 0, 81, 0
6, 108720, Note_on_c, 0, 80, 76
6, 108720, Note_on_c, 0, 83, 76
6, 108944, Note_on_c, 0, 80, 0
6, 108944, Note_on_c, 0, 83, 0
6, 108960, Note_on_c, 0, 81, 52
6, 109679, Note_on_c, 0, 81, 0
6, 109680, Note_on_c, 0, 80, 76
6, 109904, Note_on_c, 0, 80, 0
6, 109920, Note_on_c, 0, 81, 52
6, 110639, Note_on_c, 0, 81, 0
6, 110640, Note_on_c, 0, 80, 76
6, 110640, Note_on_c, 0, 83, 76
6, 110864, Note_on_c, 0, 80, 0
6, 110864, Note_on_c, 0, 83, 0
6, 110880, Note_on_c, 0, 81, 52
6, 111104, Note_on_c, 0, 81, 0
6, 111120, Note_on_c, 0, 83, 76
6, 111120, Note_on_c, 0, 80, 76
6, 111344, Note_on_c, 0, 83, 0
6, 111344, Note_on_c, 0, 80, 0
6, 111360, Note_on_c, 0, 81, 52
6, 111360, Note_on_c, 0, 85, 52
6, 111584, Note_on_c, 0, 81, 0
6, 111584, Note_on_c, 0, 85, 0
6, 111600, Note_on_c, 0, 83, 76
6, 111600, Note_on_c, 0, 80, 76
6, 111824, Note_on_c, 0, 83, 0
6, 111824, Note_on_c, 0, 80, 0
6, 111840, Note_on_c, 0, 81, 52
6, 112064, Note_on_c, 0, 81, 0
6, 112080, Note_on_c, 0, 83, 76
6, 112080, Note_on_c, 0, 80, 76
6, 112304, Note_on_c, 0, 83, 0
6, 112304, Note_on_c, 0, 80, 0
6, 112320, Note_on_c, 0, 81, 52
6, 112320, Note_on_c, 0, 85, 52
6, 112544, Note_on_c, 0, 81, 0
6, 112544, Note_on_c, 0, 85, 0
6, 112560, Note_on_c, 0, 83, 76
6, 112560, Note_on_c, 0, 80, 76
6, 112784, Note_on_c, 0, 83, 0
6, 112784, Note_on_c, 0, 80, 0
6, 112800, Note_on_c, 0, 81, 84
6, 112800, Note_on_c, 0, 93, 84
6, 113039, Note_on_c, 0, 81, 0
6, 113744, Note_on_c, 0, 93, 0
6, 113760, Note_on_c, 0, 88, 84
6, 114224, Note_on_c, 0, 88, 0
6, 114240, Note_on_c, 0, 85, 84
6, 114704, Note_on_c, 0, 85, 0
6, 114720, Note_on_c, 0, 81, 84
6, 115664, Note_on_c, 0, 81, 0
6, 115680, Note_on_c, 0, 85, 84
6, 116144, Note_on_c, 0, 85, 0
6, 116160, Note_on_c, 0, 88, 84
6, 116624, Note_on_c, 0, 88, 0
6, 116640, Note_on_c, 0, 93, 84
6, 116879, Note_on_c, 0, 93, 0
6, 117120, Note_on_c, 0, 85, 76
6, 117359, Note_on_c, 0, 85, 0
6, 118080, Note_on_c, 0, 88, 76
6, 118080, Note_on_c, 0, 85, 76
6, 118319, Note_on_c, 0, 88, 0
6, 118319, Note_on_c, 0, 85, 0
6, 118560, Note_on_c, 0, 88, 52
6, 119279, Note_on_c, 0, 88, 0
6, 119280, Note_on_c, 0, 86, 52
6, 119519, Note_on_c, 0, 86, 0
6, 119520, Note_on_c, 0, 85, 52
6, 119759, Note_on_c, 0, 85, 0
6, 119760, Note_on_c, 0, 83, 52
6, 119999, Note_on_c, 0, 83, 0
6, 120000, Note_on_c, 0, 81, 52
6, 120239, Note_on_c, 0, 81, 0
6, 120240, Note_on_c, 0, 79, 52
6, 120464, Note_on_c, 0, 79, 0
6, 120480, Note_on_c, 0, 78, 52
6, 120719, Note_on_c, 0, 78, 0
6, 132960, Note_on_c, 0, 86, 76
6, 133904, Note_on_c, 0, 86, 0
6, 133920, Note_on_c, 0, 86, 84
6, 134864, Note_on_c, 0, 86, 0
6, 134880, Note_on_c, 0, 86, 76
6, 135119, Note_on_c, 0, 86, 0
6, 135360, Note_on_c, 0, 86, 84
6, 136064, Note_on_c, 0, 86, 0
6, 136080, Note_on_c, 0, 86, 76
6, 136304, Note_on_c, 0, 86, 0
6, 136320, Note_on_c, 0, 86, 76
6, 136544, Note_on_c, 0, 86, 0
6, 136560, Note_on_c, 0, 86, 76
6, 136784, Note_on_c, 0, 86, 0
6, 136800, Note_on_c, 0, 86, 76
6, 137039, Note_on_c, 0, 86, 0
6, 137280, Note_on_c, 0, 86, 84
6, 137280, Note_on_c, 0, 91, 84
6, 137759, Note_on_c, 0, 86, 0
6, 137760, Note_on_c, 0, 88, 76
6, 137984, Note_on_c, 0, 91, 0
6, 137984, Note_on_c, 0, 88, 0
6, 138000, Note_on_c, 0, 88, 76
6, 138000, Note_on_c, 0, 85, 76
6, 138179, Note_on_c, 0, 88, 0
6, 138179, Note_on_c, 0, 85, 0
6, 138240, Note_on_c, 0, 85, 76
6, 138240, Note_on_c, 0, 79, 76
6, 138419, Note_on_c, 0, 85, 0
6, 138419, Note_on_c, 0, 79, 0
6, 138480, Note_on_c, 0, 79, 76
6, 138480, Note_on_c, 0, 76, 76
6, 138659, Note_on_c, 0, 79, 0
6, 138659, Note_on_c, 0, 76, 0
6, 138720, Note_on_c, 0, 74, 76
6, 138720, Note_on_c, 0, 78, 76
6, 138959, Note_on_c, 0, 74, 0
6, 138959, Note_on_c, 0, 78, 0
6, 139200, Note_on_c, 0, 86, 84
6, 139904, Note_on_c, 0, 86, 0
6, 139920, Note_on_c, 0, 86, 76
6, 140144, Note_on_c, 0, 86, 0
6, 140160, Note_on_c, 0, 86, 76
6, 140384, Note_on_c, 0, 86, 0
6, 140400, Note_on_c, 0, 86, 76
6, 140624, Note_on_c, 0, 86, 0
6, 140640, Note_on_c, 0, 86, 76
6, 140879, Note_on_c, 0, 86, 0
6, 141120, Note_on_c, 0, 91, 84
6, 141120, Note_on_c, 0, 86, 84
6, 141599, Note_on_c, 0, 86, 0
6, 141600, Note_on_c, 0, 88, 76
6, 141824, Note_on_c, 0, 91, 0
6, 141824, Note_on_c, 0, 88, 0
6, 141840, Note_on_c, 0, 88, 76
6, 141840, Note_on_c, 0, 85, 76
6, 142019, Note_on_c, 0, 88, 0
6, 142019, Note_on_c, 0, 85, 0
6, 142080, Note_on_c, 0, 79, 76
6, 142080, Note_on_c, 0, 85, 76
6, 142259, Note_on_c, 0, 79, 0
6, 142259, Note_on_c, 0, 85, 0
6, 142320, Note_on_c, 0, 79, 76
6, 142320, Note_on_c, 0, 76, 76
6, 142499, Note_on_c, 0, 79, 0
6, 142499, Note_on_c, 0, 76, 0
6, 142560, Note_on_c, 0, 74, 76
6, 142560, Note_on_c, 0, 77, 76
6, 142799, Note_on_c, 0, 74, 0
6, 142799, Note_on_c, 0, 77, 0
6, 143460, Note_on_c, 0, 86, 76
6, 143460, Note_on_c, 0, 89, 76
6, 143511, Note_on_c, 0, 86, 0
6, 143511, Note_on_c, 0, 89, 0
6, 143520, Note_on_c, 0, 89, 84
6, 143520, Note_on_c, 0, 86, 84
6, 144719, Note_on_c, 0, 89, 0
6, 144719, Note_on_c, 0, 86, 0
6, 145380, Note_on_c, 0, 89, 76
6, 145380, Note_on_c, 0, 86, 76
6, 145431, Note_on_c, 0, 89, 0
6, 145431, Note_on_c, 0, 86, 0
6, 145440, Note_on_c, 0, 89, 84
6, 145440, Note_on_c, 0, 86, 84
6, 146399, Note_on_c, 0, 89, 0
6, 146400, Note_on_c, 0, 88, 76
6, 146639, Note_on_c, 0, 86, 0
6, 146639, Note_on_c, 0, 88, 0
6, 148440, Note_on_c, 0, 75, 84
6, 148529, Note_on_c, 0, 75, 0
6, 148560, Note_on_c, 0, 76, 84
6, 148649, Note_on_c, 0, 76, 0
6, 148680, Note_on_c, 0, 75, 84
6, 148769, Note_on_c, 0, 75, 0
6, 148800, Note_on_c, 0, 76, 84
6, 148889, Note_on_c, 0, 76, 0
6, 148920, Note_on_c, 0, 78, 84
6, 149009, Note_on_c, 0, 78, 0
6, 149040, Note_on_c, 0, 79, 84
6, 149129, Note_on_c, 0, 79, 0
6, 149160, Note_on_c, 0, 80, 84
6, 149249, Note_on_c, 0, 80, 0
6, 149280, Note_on_c, 0, 81, 84
6, 149369, Note_on_c, 0, 81, 0
6, 149400, Note_on_c, 0, 80, 84
6, 149489, Note_on_c, 0, 80, 0
6, 149520, Note_on_c, 0, 81, 84
6, 149609, Note_on_c, 0, 81, 0
6, 149640, Note_on_c, 0, 83, 84
6, 149729, Note_on_c, 0, 83, 0
6, 149760, Note_on_c, 0, 84, 84
6, 149849, Note_on_c, 0, 84, 0
6, 149880, Note_on_c, 0, 85, 84
6, 149969, Note_on_c, 0, 85, 0
6, 150000, Note_on_c, 0, 86, 84
6, 150089, Note_on_c, 0, 86, 0
6, 150120, Note_on_c, 0, 87, 84
6, 150209, Note_on_c, 0, 87, 0
6, 150240, Note_on_c, 0, 88, 84
6, 150479, Note_on_c, 0, 88, 0
6, 152160, Note_on_c, 0, 88, 92
6, 153704, Note_on_c, 0, 88, 0
6, 153720, Note_on_c, 0, 85, 84
6, 153824, Note_on_c, 0, 85, 0
6, 153840, Note_on_c, 0, 86, 84
6, 153944, Note_on_c, 0, 86, 0
6, 153960, Note_on_c, 0, 87, 84
6, 154064, Note_on_c, 0, 87, 0
6, 154080, Note_on_c, 0, 88, 92
6, 154439, Note_on_c, 0, 88, 0
6, 154440, Note_on_c, 0, 87, 84
6, 154544, Note_on_c, 0, 87, 0
6, 154560, Note_on_c, 0, 88, 92
6, 154919, Note_on_c, 0, 88, 0
6, 154920, Note_on_c, 0, 87, 84
6, 155024, Note_on_c, 0, 87, 0
6, 155040, Note_on_c, 0, 88, 84
6, 155129, Note_on_c, 0, 88, 0
6, 155160, Note_on_c, 0, 87, 84
6, 155249, Note_on_c, 0, 87, 0
6, 155280, Note_on_c, 0, 88, 84
6, 155369, Note_on_c, 0, 88, 0
6, 155400, Note_on_c, 0, 87, 84
6, 155489, Note_on_c, 0, 87, 0
6, 155520, Note_on_c, 0, 88, 84
6, 155609, Note_on_c, 0, 88, 0
6, 155640, Note_on_c, 0, 87, 84
6, 155729, Note_on_c, 0, 87, 0
6, 155760, Note_on_c, 0, 88, 84
6, 155849, Note_on_c, 0, 88, 0
6, 155880, Note_on_c, 0, 87, 84
6, 155969, Note_on_c, 0, 87, 0
6, 156000, Note_on_c, 0, 88, 92
6, 156704, Note_on_c, 0, 88, 0
6, 156720, Note_on_c, 0, 87, 84
6, 156899, Note_on_c, 0, 87, 0
6, 156960, Note_on_c, 0, 86, 84
6, 157139, Note_on_c, 0, 86, 0
6, 157200, Note_on_c, 0, 85, 84
6, 157379, Note_on_c, 0, 85, 0
6, 157440, Note_on_c, 0, 83, 84
6, 157619, Note_on_c, 0, 83, 0
6, 157680, Note_on_c, 0, 88, 84
6, 157859, Note_on_c, 0, 88, 0
6, 157920, Note_on_c, 0, 81, 52
6, 158099, Note_on_c, 0, 81, 0
6, 161760, Note_on_c, 0, 81, 84
6, 161760, Note_on_c, 0, 85, 84
6, 162224, Note_on_c, 0, 81, 0
6, 162224, Note_on_c, 0, 85, 0
6, 162240, Note_on_c, 0, 81, 84
6, 162240, Note_on_c, 0, 85, 84
6, 162651, Note_on_c, 0, 81, 0
6, 162651, Note_on_c, 0, 85, 0
6, 162660, Note_on_c, 0, 81, 84
6, 162660, Note_on_c, 0, 85, 84
6, 162711, Note_on_c, 0, 81, 0
6, 162711, Note_on_c, 0, 85, 0
6, 162720, Note_on_c, 0, 85, 92
6, 162720, Note_on_c, 0, 81, 92
6, 163424, Note_on_c, 0, 85, 0
6, 163424, Note_on_c, 0, 81, 0
6, 163440, Note_on_c, 0, 81, 84
6, 163440, Note_on_c, 0, 90, 84
6, 163664, Note_on_c, 0, 81, 0
6, 163664, Note_on_c, 0, 90, 0
6, 163920, Note_on_c, 0, 80, 92
6, 163920, Note_on_c, 0, 88, 92
6, 164159, Note_on_c, 0, 80, 0
6, 164159, Note_on_c, 0, 88, 0
6, 164400, Note_on_c, 0, 78, 92
6, 164400, Note_on_c, 0, 87, 92
6, 164639, Note_on_c, 0, 78, 0
6, 164639, Note_on_c, 0, 87, 0
6, 164640, Note_on_c, 0, 88, 84
6, 164640, Note_on_c, 0, 80, 84
6, 164879, Note_on_c, 0, 88, 0
6, 164879, Note_on_c, 0, 80, 0
6, 165600, Note_on_c, 0, 69, 52
6, 165600, Note_on_c, 0, 73, 52
6, 166064, Note_on_c, 0, 69, 0
6, 166064, Note_on_c, 0, 73, 0
6, 166080, Note_on_c, 0, 76, 52
6, 166080, Note_on_c, 0, 73, 52
6, 166491, Note_on_c, 0, 76, 0
6, 166491, Note_on_c, 0, 73, 0
6, 166500, Note_on_c, 0, 76, 52
6, 166500, Note_on_c, 0, 81, 52
6, 166551, Note_on_c, 0, 76, 0
6, 166551, Note_on_c, 0, 81, 0
6, 166560, Note_on_c, 0, 85, 52
6, 166560, Note_on_c, 0, 81, 52
6, 167264, Note_on_c, 0, 85, 0
6, 167264, Note_on_c, 0, 81, 0
6, 167280, Note_on_c, 0, 85, 52
6, 167280, Note_on_c, 0, 81, 52
6, 167459, Note_on_c, 0, 85, 0
6, 167459, Note_on_c, 0, 81, 0
6, 167460, Note_on_c, 0, 83, 52
6, 167460, Note_on_c, 0, 86, 52
6, 167511, Note_on_c, 0, 83, 0
6, 167511, Note_on_c, 0, 86, 0
6, 167520, Note_on_c, 0, 85, 52
6, 167520, Note_on_c, 0, 88, 52
6, 167699, Note_on_c, 0, 85, 0
6, 167699, Note_on_c, 0, 88, 0
6, 167760, Note_on_c, 0, 88, 52
6, 167760, Note_on_c, 0, 85, 52
6, 167939, Note_on_c, 0, 88, 0
6, 167939, Note_on_c, 0, 85, 0
6, 168000, Note_on_c, 0, 88, 52
6, 168000, Note_on_c, 0, 85, 52
6, 168179, Note_on_c, 0, 88, 0
6, 168179, Note_on_c, 0, 85, 0
6, 168240, Note_on_c, 0, 86, 52
6, 168240, Note_on_c, 0, 90, 52
6, 168419, Note_on_c, 0, 86, 0
6, 168419, Note_on_c, 0, 90, 0
6, 168480, Note_on_c, 0, 85, 52
6, 168480, Note_on_c, 0, 88, 52
6, 168959, Note_on_c, 0, 85, 0
6, 168959, Note_on_c, 0, 88, 0
6, 168960, Note_on_c, 0, 81, 52
6, 168960, Note_on_c, 0, 85, 52
6, 169049, Note_on_c, 0, 81, 0
6, 169049, Note_on_c, 0, 85, 0
6, 169440, Note_on_c, 0, 85, 84
6, 169440, Note_on_c, 0, 81, 84
6, 169904, Note_on_c, 0, 85, 0
6, 169904, Note_on_c, 0, 81, 0
6, 169920, Note_on_c, 0, 85, 84
6, 169920, Note_on_c, 0, 81, 84
6, 170331, Note_on_c, 0, 85, 0
6, 170331, Note_on_c, 0, 81, 0
6, 170340, Note_on_c, 0, 81, 84
6, 170340, Note_on_c, 0, 85, 84
6, 170391, Note_on_c, 0, 81, 0
6, 170391, Note_on_c, 0, 85, 0
6, 170400, Note_on_c, 0, 85, 92
6, 170400, Note_on_c, 0, 81, 92
6, 171104, Note_on_c, 0, 85, 0
6, 171104, Note_on_c, 0, 81, 0
6, 171120, Note_on_c, 0, 90, 84
6, 171120, Note_on_c, 0, 81, 84
6, 171359, Note_on_c, 0, 90, 0
6, 171359, Note_on_c, 0, 81, 0
6, 171600, Note_on_c, 0, 80, 92
6, 171600, Note_on_c, 0, 88, 92
6, 171839, Note_on_c, 0, 80, 0
6, 171839, Note_on_c, 0, 88, 0
6, 172080, Note_on_c, 0, 78, 92
6, 172080, Note_on_c, 0, 87, 92
6, 172319, Note_on_c, 0, 78, 0
6, 172319, Note_on_c, 0, 87, 0
6, 172320, Note_on_c, 0, 88, 84
6, 172320, Note_on_c, 0, 80, 84
6, 172559, Note_on_c, 0, 88, 0
6, 172559, Note_on_c, 0, 80, 0
6, 174240, Note_on_c, 0, 88, 92
6, 174824, Note_on_c, 0, 88, 0
6, 174840, Note_on_c, 0, 88, 84
6, 174959, Note_on_c, 0, 88, 0
6, 174960, Note_on_c, 0, 86, 84
6, 175079, Note_on_c, 0, 86, 0
6, 175080, Note_on_c, 0, 85, 84
6, 175184, Note_on_c, 0, 85, 0
6, 175200, Note_on_c, 0, 86, 92
6, 175784, Note_on_c, 0, 86, 0
6, 175800, Note_on_c, 0, 86, 84
6, 175919, Note_on_c, 0, 86, 0
6, 175920, Note_on_c, 0, 85, 84
6, 176039, Note_on_c, 0, 85, 0
6, 176040, Note_on_c, 0, 84, 84
6, 176144, Note_on_c, 0, 84, 0
6, 176160, Note_on_c, 0, 85, 92
6, 176249, Note_on_c, 0, 85, 0
6, 176280, Note_on_c, 0, 85, 84
6, 176399, Note_on_c, 0, 85, 0
6, 176400, Note_on_c, 0, 83, 84
6, 176519, Note_on_c, 0, 83, 0
6, 176520, Note_on_c, 0, 82, 84
6, 176624, Note_on_c, 0, 82, 0
6, 176640, Note_on_c, 0, 83, 92
6, 176729, Note_on_c, 0, 83, 0
6, 176760, Note_on_c, 0, 83, 84
6, 176879, Note_on_c, 0, 83, 0
6, 176880, Note_on_c, 0, 81, 84
6, 176999, Note_on_c, 0, 81, 0
6, 177000, Note_on_c, 0, 80, 84
6, 177104, Note_on_c, 0, 80, 0
6, 177120, Note_on_c, 0, 81, 92
6, 177209, Note_on_c, 0, 81, 0
6, 177240, Note_on_c, 0, 88, 84
6, 177359, Note_on_c, 0, 88, 0
6, 177360, Note_on_c, 0, 86, 84
6, 177479, Note_on_c, 0, 86, 0
6, 177480, Note_on_c, 0, 85, 84
6, 177584, Note_on_c, 0, 85, 0
6, 177600, Note_on_c, 0, 86, 92
6, 177689, Note_on_c, 0, 86, 0
6, 177720, Note_on_c, 0, 86, 84
6, 177839, Note_on_c, 0, 86, 0
6, 177840, Note_on_c, 0, 85, 84
6, 177959, Note_on_c, 0, 85, 0
6, 177960, Note_on_c, 0, 84, 84
6, 178064, Note_on_c, 0, 84, 0
6, 178080, Note_on_c, 0, 85, 92
6, 178169, Note_on_c, 0, 85, 0
6, 178200, Note_on_c, 0, 85, 84
6, 178319, Note_on_c, 0, 85, 0
6, 178320, Note_on_c, 0, 83, 84
6, 178439, Note_on_c, 0, 83, 0
6, 178440, Note_on_c, 0, 81, 84
6, 178544, Note_on_c, 0, 81, 0
6, 178560, Note_on_c, 0, 83, 92
6, 178649, Note_on_c, 0, 83, 0
6, 178680, Note_on_c, 0, 83, 84
6, 178799, Note_on_c, 0, 83, 0
6, 178800, Note_on_c, 0, 81, 84
6, 178919, Note_on_c, 0, 81, 0
6, 178920, Note_on_c, 0, 80, 84
6, 179024, Note_on_c, 0, 80, 0
6, 179040, Note_on_c, 0, 81, 92
6, 179129, Note_on_c, 0, 81, 0
6, 179160, Note_on_c, 0, 81, 84
6, 179160, Note_on_c, 0, 93, 84
6, 179279, Note_on_c, 0, 81, 0
6, 179279, Note_on_c, 0, 93, 0
6, 179280, Note_on_c, 0, 79, 84
6, 179280, Note_on_c, 0, 91, 84
6, 179399, Note_on_c, 0, 79, 0
6, 179399, Note_on_c, 0, 91, 0
6, 179400, Note_on_c, 0, 90, 84
6, 179400, Note_on_c, 0, 78, 84
6, 179504, Note_on_c, 0, 90, 0
6, 179504, Note_on_c, 0, 78, 0
6, 179520, Note_on_c, 0, 79, 92
6, 179520, Note_on_c, 0, 91, 92
6, 179609, Note_on_c, 0, 79, 0
6, 179609, Note_on_c, 0, 91, 0
6, 179640, Note_on_c, 0, 79, 84
6, 179640, Note_on_c, 0, 91, 84
6, 179759, Note_on_c, 0, 79, 0
6, 179759, Note_on_c, 0, 91, 0
6, 179760, Note_on_c, 0, 78, 84
6, 179760, Note_on_c, 0, 90, 84
6, 179879, Note_on_c, 0, 78, 0
6, 179879, Note_on_c, 0, 90, 0
6, 179880, Note_on_c, 0, 89, 84
6, 179880, Note_on_c, 0, 77, 84
6, 179984, Note_on_c, 0, 89, 0
6, 179984, Note_on_c, 0, 77, 0
6, 180000, Note_on_c, 0, 78, 84
6, 180000, Note_on_c, 0, 90, 84
6, 180179, Note_on_c, 0, 78, 0
6, 180179, Note_on_c, 0, 90, 0
6, 180420, Note_on_c, 0, 90, 84
6, 180420, Note_on_c, 0, 86, 84
6, 180471, Note_on_c, 0, 90, 0
6, 180471, Note_on_c, 0, 86, 0
6, 180480, Note_on_c, 0, 90, 84
6, 180480, Note_on_c, 0, 86, 84
6, 180959, Note_on_c, 0, 90, 0
6, 180959, Note_on_c, 0, 86, 0
6, 181380, Note_on_c, 0, 86, 84
6, 181380, Note_on_c, 0, 90, 84
6, 181431, Note_on_c, 0, 86, 0
6, 181431, Note_on_c, 0, 90, 0
6, 181440, Note_on_c, 0, 90, 84
6, 181440, Note_on_c, 0, 86, 84
6, 181919, Note_on_c, 0, 90, 0
6, 181919, Note_on_c, 0, 86, 0
6, 182160, Note_on_c, 0, 88, 84
6, 182160, Note_on_c, 0, 86, 84
6, 182399, Note_on_c, 0, 88, 0
6, 182399, Note_on_c, 0, 86, 0
6, 182640, Note_on_c, 0, 85, 84
6, 182640, Note_on_c, 0, 88, 84
6, 182879, Note_on_c, 0, 85, 0
6, 182879, Note_on_c, 0, 88, 0
6, 183120, Note_on_c, 0, 83, 84
6, 183120, Note_on_c, 0, 86, 84
6, 183359, Note_on_c, 0, 83, 0
6, 183359, Note_on_c, 0, 86, 0
6, 183600, Note_on_c, 0, 80, 84
6, 183600, Note_on_c, 0, 83, 84
6, 183839, Note_on_c, 0, 80, 0
6, 183839, Note_on_c, 0, 83, 0
6, 184260, Note_on_c, 0, 86, 84
6, 184311, Note_on_c, 0, 86, 0
6, 184320, Note_on_c, 0, 86, 84
6, 184799, Note_on_c, 0, 86, 0
6, 185220, Note_on_c, 0, 89, 84
6, 185220, Note_on_c, 0, 86, 84
6, 185271, Note_on_c, 0, 89, 0
6, 185271, Note_on_c, 0, 86, 0
6, 185280, Note_on_c, 0, 86, 84
6, 185280, Note_on_c, 0, 89, 84
6, 185759, Note_on_c, 0, 86, 0
6, 185759, Note_on_c, 0, 89, 0
6, 191280, Note_on_c, 0, 81, 68
6, 191339, Note_on_c, 0, 81, 0
6, 191340, Note_on_c, 0, 80, 68
6, 191399, Note_on_c, 0, 80, 0
6, 191400, Note_on_c, 0, 81, 68
6, 191459, Note_on_c, 0, 81, 0
6, 191460, Note_on_c, 0, 83, 68
6, 191511, Note_on_c, 0, 83, 0
6, 191520, Note_on_c, 0, 84, 76
6, 192464, Note_on_c, 0, 84, 0
6, 192480, Note_on_c, 0, 75, 76
6, 193424, Note_on_c, 0, 75, 0
6, 193440, Note_on_c, 0, 76, 84
6, 193440, Note_on_c, 0, 81, 84
6, 193664, Note_on_c, 0, 76, 0
6, 193680, Note_on_c, 0, 85, 84
6, 194144, Note_on_c, 0, 85, 0
6, 194160, Note_on_c, 0, 85, 84
6, 194384, Note_on_c, 0, 81, 0
6, 194384, Note_on_c, 0, 85, 0
6, 194400, Note_on_c, 0, 86, 84
6, 194400, Note_on_c, 0, 83, 84
6, 195104, Note_on_c, 0, 86, 0
6, 195104, Note_on_c, 0, 83, 0
6, 195120, Note_on_c, 0, 83, 84
6, 195120, Note_on_c, 0, 86, 84
6, 195344, Note_on_c, 0, 83, 0
6, 195344, Note_on_c, 0, 86, 0
6, 195360, Note_on_c, 0, 85, 84
6, 195360, Note_on_c, 0, 81, 84
6, 195599, Note_on_c, 0, 85, 0
6, 195599, Note_on_c, 0, 81, 0
6, 197280, Note_on_c, 0, 86, 84
6, 197984, Note_on_c, 0, 86, 0
6, 198000, Note_on_c, 0, 86, 84
6, 198179, Note_on_c, 0, 86, 0
6, 198240, Note_on_c, 0, 81, 84
6, 198419, Note_on_c, 0, 81, 0
6, 198480, Note_on_c, 0, 77, 84
6, 198480, Note_on_c, 0, 89, 84
6, 198659, Note_on_c, 0, 77, 0
6, 198659, Note_on_c, 0, 89, 0
6, 198720, Note_on_c, 0, 76, 84
6, 198720, Note_on_c, 0, 88, 84
6, 198899, Note_on_c, 0, 76, 0
6, 198899, Note_on_c, 0, 88, 0
6, 198960, Note_on_c, 0, 86, 84
6, 198960, Note_on_c, 0, 74, 84
6, 199139, Note_on_c, 0, 86, 0
6, 199139, Note_on_c, 0, 74, 0
6, 199200, Note_on_c, 0, 69, 84
6, 199200, Note_on_c, 0, 81, 84
6, 199439, Note_on_c, 0, 69, 0
6, 199439, Note_on_c, 0, 81, 0
6, 201120, Note_on_c, 0, 86, 84
6, 201824, Note_on_c, 0, 86, 0
6, 201840, Note_on_c, 0, 86, 84
6, 202019, Note_on_c, 0, 86, 0
6, 202080, Note_on_c, 0, 81, 84
6, 202259, Note_on_c, 0, 81, 0
6, 202320, Note_on_c, 0, 77, 84
6, 202320, Note_on_c, 0, 89, 84
6, 202499, Note_on_c, 0, 77, 0
6, 202499, Note_on_c, 0, 89, 0
6, 202560, Note_on_c, 0, 88, 84
6, 202560, Note_on_c, 0, 76, 84
6, 202739, Note_on_c, 0, 88, 0
6, 202739, Note_on_c, 0, 76, 0
6, 202800, Note_on_c, 0, 74, 84
6, 202800, Note_on_c, 0, 86, 84
6, 202979, Note_on_c, 0, 74, 0
6, 202979, Note_on_c, 0, 86, 0
6, 203040, Note_on_c, 0, 81, 52
6, 203759, Note_on_c, 0, 81, 0
6, 203760, Note_on_c, 0, 80, 76
6, 203984, Note_on_c, 0, 80, 0
6, 204000, Note_on_c, 0, 81, 52
6, 204719, Note_on_c, 0, 81, 0
6, 204720, Note_on_c, 0, 80, 76
6, 204720, Note_on_c, 0, 83, 76
6, 204944, Note_on_c, 0, 80, 0
6, 204944, Note_on_c, 0, 83, 0
6, 204960, Note_on_c, 0, 81, 52
6, 205679, Note_on_c, 0, 81, 0
6, 205680, Note_on_c, 0, 80, 76
6, 205904, Note_on_c, 0, 80, 0
6, 205920, Note_on_c, 0, 81, 52
6, 206639, Note_on_c, 0, 81, 0
6, 206640, Note_on_c, 0, 83, 76
6, 206640, Note_on_c, 0, 80, 76
6, 206864, Note_on_c, 0, 83, 0
6, 206864, Note_on_c, 0, 80, 0
6, 206880, Note_on_c, 0, 81, 52
6, 207104, Note_on_c, 0, 81, 0
6, 207120, Note_on_c, 0, 80, 76
6, 207120, Note_on_c, 0, 83, 76
6, 207344, Note_on_c, 0, 80, 0
6, 207344, Note_on_c, 0, 83, 0
6, 207360, Note_on_c, 0, 81, 52
6, 207360, Note_on_c, 0, 85, 52
6, 207584, Note_on_c, 0, 81, 0
6, 207584, Note_on_c, 0, 85, 0
6, 207600, Note_on_c, 0, 80, 76
6, 207600, Note_on_c, 0, 83, 76
6, 207824, Note_on_c, 0, 80, 0
6, 207824, Note_on_c, 0, 83, 0
6, 207840, Note_on_c, 0, 81, 52
6, 208064, Note_on_c, 0, 81, 0
6, 208080, Note_on_c, 0, 83, 76
6, 208080, Note_on_c, 0, 80, 76
6, 208304, Note_on_c, 0, 83, 0
6, 208304, Note_on_c, 0, 80, 0
6, 208320, Note_on_c, 0, 85, 52
6, 208320, Note_on_c, 0, 81, 52
6, 208544, Note_on_c, 0, 85, 0
6, 208544, Note_on_c, 0, 81, 0
6, 208560, Note_on_c, 0, 80, 76
6, 208560, Note_on_c, 0, 83, 76
6, 208784, Note_on_c, 0, 80, 0
6, 208784, Note_on_c, 0, 83, 0
6, 208800, Note_on_c, 0, 93, 84
6, 208800, Note_on_c, 0, 81, 84
6, 209039, Note_on_c, 0, 81, 0
6, 209744, Note_on_c, 0, 93, 0
6, 209760, Note_on_c, 0, 88, 84
6, 210224, Note_on_c, 0, 88, 0
6, 210240, Note_on_c, 0, 85, 84
6, 210704, Note_on_c, 0, 85, 0
6, 210720, Note_on_c, 0, 81, 84
6, 211664, Note_on_c, 0, 81, 0
6, 211680, Note_on_c, 0, 85, 84
6, 212144, Note_on_c, 0, 85, 0
6, 212160, Note_on_c, 0, 88, 84
6, 212624, Note_on_c, 0, 88, 0
6, 212640, Note_on_c, 0, 93, 84
6, 212879, Note_on_c, 0, 93, 0
6, 213120, Note_on_c, 0, 85, 76
6, 213359, Note_on_c, 0, 85, 0
6, 214080, Note_on_c, 0, 88, 76
6, 214080, Note_on_c, 0, 85, 76
6, 214319, Note_on_c, 0, 88, 0
6, 214319, Note_on_c, 0, 85, 0
6, 214560, Note_on_c, 0, 88, 52
6, 215279, Note_on_c, 0, 88, 0
6, 215280, Note_on_c, 0, 86, 52
6, 215519, Note_on_c, 0, 86, 0
6, 215520, Note_on_c, 0, 85, 52
6, 215759, Note_on_c, 0, 85, 0
6, 215760, Note_on_c, 0, 83, 52
6, 215999, Note_on_c, 0, 83, 0
6, 216000, Note_on_c, 0, 81, 52
6, 216239, Note_on_c, 0, 81, 0
6, 216240, Note_on_c, 0, 79, 52
6, 216479, Note_on_c, 0, 79, 0
6, 216960, Note_on_c, 0, 85, 76
6, 216960, Note_on_c, 0, 81, 76
6, 217199, Note_on_c, 0, 85, 0
6, 217199, Note_on_c, 0, 81, 0
6, 217920, Note_on_c, 0, 85, 76
6, 217920, Note_on_c, 0, 88, 76
6, 218159, Note_on_c, 0, 85, 0
6, 218159, Note_on_c, 0, 88, 0
6, 218400, Note_on_c, 0, 88, 52
6, 219119, Note_on_c, 0, 88, 0
6, 219120, Note_on_c, 0, 86, 52
6, 219359, Note_on_c, 0, 86, 0
6, 219360, Note_on_c, 0, 85, 52
6, 219599, Note_on_c, 0, 85, 0
6, 219600, Note_on_c, 0, 82, 52
6, 219839, Note_on_c, 0, 82, 0
6, 219840, Note_on_c, 0, 81, 52
6, 220079, Note_on_c, 0, 81, 0
6, 220080, Note_on_c, 0, 79, 52
6, 220304, Note_on_c, 0, 79, 0
6, 220320, Note_on_c, 0, 77, 52
6, 220559, Note_on_c, 0, 77, 0
6, 229440, Note_on_c, 0, 91, 84
6, 229440, Note_on_c, 0, 79, 84
6, 229904, Note_on_c, 0, 91, 0
6, 229904, Note_on_c, 0, 79, 0
6, 229920, Note_on_c, 0, 72, 76
6, 229920, Note_on_c, 0, 84, 76
6, 230159, Note_on_c, 0, 72, 0
6, 230159, Note_on_c, 0, 84, 0
6, 231360, Note_on_c, 0, 84, 84
6, 231824, Note_on_c, 0, 84, 0
6, 231840, Note_on_c, 0, 89, 76
6, 231840, Note_on_c, 0, 77, 76
6, 232079, Note_on_c, 0, 89, 0
6, 232079, Note_on_c, 0, 77, 0
6, 233280, Note_on_c, 0, 89, 84
6, 233280, Note_on_c, 0, 77, 84
6, 233744, Note_on_c, 0, 89, 0
6, 233744, Note_on_c, 0, 77, 0
6, 233760, Note_on_c, 0, 82, 76
6, 233760, Note_on_c, 0, 70, 76
6, 233999, Note_on_c, 0, 82, 0
6, 233999, Note_on_c, 0, 70, 0
6, 235200, Note_on_c, 0, 82, 84
6, 235289, Note_on_c, 0, 82, 0
6, 235320, Note_on_c, 0, 84, 76
6, 235409, Note_on_c, 0, 84, 0
6, 235440, Note_on_c, 0, 81, 76
6, 235529, Note_on_c, 0, 81, 0
6, 235560, Note_on_c, 0, 82, 76
6, 235649, Note_on_c, 0, 82, 0
6, 235680, Note_on_c, 0, 79, 76
6, 235919, Note_on_c, 0, 79, 0
6, 236160, Note_on_c, 0, 79, 76
6, 236249, Note_on_c, 0, 79, 0
6, 236280, Note_on_c, 0, 81, 76
6, 236369, Note_on_c, 0, 81, 0
6, 236400, Note_on_c, 0, 77, 76
6, 236489, Note_on_c, 0, 77, 0
6, 236520, Note_on_c, 0, 79, 76
6, 236609, Note_on_c, 0, 79, 0
6, 236640, Note_on_c, 0, 76, 76
6, 236879, Note_on_c, 0, 76, 0
6, 237120, Note_on_c, 0, 69, 76
6, 237120, Note_on_c, 0, 81, 76
6, 237209, Note_on_c, 0, 69, 0
6, 237209, Note_on_c, 0, 81, 0
6, 237240, Note_on_c, 0, 82, 76
6, 237240, Note_on_c, 0, 70, 76
6, 237329, Note_on_c, 0, 82, 0
6, 237329, Note_on_c, 0, 70, 0
6, 237360, Note_on_c, 0, 67, 76
6, 237360, Note_on_c, 0, 79, 76
6, 237449, Note_on_c, 0, 67, 0
6, 237449, Note_on_c, 0, 79, 0
6, 237480, Note_on_c, 0, 81, 76
6, 237480, Note_on_c, 0, 69, 76
6, 237569, Note_on_c, 0, 81, 0
6, 237569, Note_on_c, 0, 69, 0
6, 237600, Note_on_c, 0, 77, 76
6, 237600, Note_on_c, 0, 65, 76
6, 237839, Note_on_c, 0, 77, 0
6, 237839, Note_on_c, 0, 65, 0
6, 238080, Note_on_c, 0, 77, 76
6, 238169, Note_on_c, 0, 77, 0
6, 238200, Note_on_c, 0, 79, 76
6, 238289, Note_on_c, 0, 79, 0
6, 238320, Note_on_c, 0, 76, 76
6, 238409, Note_on_c, 0, 76, 0
6, 238440, Note_on_c, 0, 77, 76
6, 238529, Note_on_c, 0, 77, 0
6, 238560, Note_on_c, 0, 74, 76
6, 238799, Note_on_c, 0, 74, 0
6, 239040, Note_on_c, 0, 67, 76
6, 239040, Note_on_c, 0, 79, 76
6, 239129, Note_on_c, 0, 67, 0
6, 239129, Note_on_c, 0, 79, 0
6, 239160, Note_on_c, 0, 81, 76
6, 239160, Note_on_c, 0, 69, 76
6, 239249, Note_on_c, 0, 81, 0
6, 239249, Note_on_c, 0, 69, 0
6, 239280, Note_on_c, 0, 77, 76
6, 239280, Note_on_c, 0, 65, 76
6, 239369, Note_on_c, 0, 77, 0
6, 239369, Note_on_c, 0, 65, 0
6, 239400, Note_on_c, 0, 79, 76
6, 239400, Note_on_c, 0, 67, 76
6, 239489, Note_on_c, 0, 79, 0
6, 239489, Note_on_c, 0, 67, 0
6, 239520, Note_on_c, 0, 76, 84
6, 239520, Note_on_c, 0, 64, 84
6, 239744, Note_on_c, 0, 76, 0
6, 239744, Note_on_c, 0, 64, 0
6, 239760, Note_on_c, 0, 88, 84
6, 239819, Note_on_c, 0, 88, 0
6, 239820, Note_on_c, 0, 87, 84
6, 239879, Note_on_c, 0, 87, 0
6, 239880, Note_on_c, 0, 88, 84
6, 239939, Note_on_c, 0, 88, 0
6, 239940, Note_on_c, 0, 90, 84
6, 239991, Note_on_c, 0, 90, 0
6, 240000, Note_on_c, 0, 91, 84
6, 240179, Note_on_c, 0, 91, 0
6, 241680, Note_on_c, 0, 88, 84
6, 241739, Note_on_c, 0, 88, 0
6, 241740, Note_on_c, 0, 87, 84
6, 241799, Note_on_c, 0, 87, 0
6, 241800, Note_on_c, 0, 88, 84
6, 241859, Note_on_c, 0, 88, 0
6, 241860, Note_on_c, 0, 90, 84
6, 241911, Note_on_c, 0, 90, 0
6, 241920, Note_on_c, 0, 91, 84
6, 242099, Note_on_c, 0, 91, 0
6, 243600, Note_on_c, 0, 88, 84
6, 243659, Note_on_c, 0, 88, 0
6, 243660, Note_on_c, 0, 87, 84
6, 243719, Note_on_c, 0, 87, 0
6, 243720, Note_on_c, 0, 88, 84
6, 243779, Note_on_c, 0, 88, 0
6, 243780, Note_on_c, 0, 90, 84
6, 243831, Note_on_c, 0, 90, 0
6, 243840, Note_on_c, 0, 91, 84
6, 244019, Note_on_c, 0, 91, 0
6, 244560, Note_on_c, 0, 88, 84
6, 244619, Note_on_c, 0, 88, 0
6, 244620, Note_on_c, 0, 87, 84
6, 244679, Note_on_c, 0, 87, 0
6, 244680, Note_on_c, 0, 88, 84
6, 244739, Note_on_c, 0, 88, 0
6, 244740, Note_on_c, 0, 90, 84
6, 244791, Note_on_c, 0, 90, 0
6, 244800, Note_on_c, 0, 91, 84
6, 244979, Note_on_c, 0, 91, 0
6, 245520, Note_on_c, 0, 86, 84
6, 245579, Note_on_c, 0, 86, 0
6, 245580, Note_on_c, 0, 85, 84
6, 245639, Note_on_c, 0, 85, 0
6, 245640, Note_on_c, 0, 86, 84
6, 245699, Note_on_c, 0, 86, 0
6, 245700, Note_on_c, 0, 88, 84
6, 245751, Note_on_c, 0, 88, 0
6, 245760, Note_on_c, 0, 89, 84
6, 245939, Note_on_c, 0, 89, 0
6, 246480, Note_on_c, 0, 86, 84
6, 246539, Note_on_c, 0, 86, 0
6, 246540, Note_on_c, 0, 85, 84
6, 246599, Note_on_c, 0, 85, 0
6, 246600, Note_on_c, 0, 86, 84
6, 246659, Note_on_c, 0, 86, 0
6, 246660, Note_on_c, 0, 88, 84
6, 246711, Note_on_c, 0, 88, 0
6, 246720, Note_on_c, 0, 89, 84
6, 246899, Note_on_c, 0, 89, 0
6, 247200, Note_on_c, 0, 86, 84
6, 247200, Note_on_c, 0, 89, 84
6, 248144, Note_on_c, 0, 89, 0
6, 248160, Note_on_c, 0, 88, 84
6, 248624, Note_on_c, 0, 86, 0
6, 248640, Note_on_c, 0, 84, 84
6, 249104, Note_on_c, 0, 88, 0
6, 249120, Note_on_c, 0, 86, 84
6, 249584, Note_on_c, 0, 84, 0
6, 249600, Note_on_c, 0, 83, 84
6, 250064, Note_on_c, 0, 86, 0
6, 250080, Note_on_c, 0, 84, 84
6, 250544, Note_on_c, 0, 83, 0
6, 250560, Note_on_c, 0, 81, 84
6, 251039, Note_on_c, 0, 84, 0
6, 251039, Note_on_c, 0, 81, 0
6, 251520, Note_on_c, 0, 86, 92
6, 251520, Note_on_c, 0, 84, 92
6, 252224, Note_on_c, 0, 86, 0
6, 252224, Note_on_c, 0, 84, 0
6, 252240, Note_on_c, 0, 86, 84
6, 252240, Note_on_c, 0, 84, 84
6, 252464, Note_on_c, 0, 86, 0
6, 252464, Note_on_c, 0, 84, 0
6, 252480, Note_on_c, 0, 86, 84
6, 252480, Note_on_c, 0, 84, 84
6, 252704, Note_on_c, 0, 86, 0
6, 252704, Note_on_c, 0, 84, 0
6, 252720, Note_on_c, 0, 86, 84
6, 252720, Note_on_c, 0, 84, 84
6, 252944, Note_on_c, 0, 86, 0
6, 252944, Note_on_c, 0, 84, 0
6, 252960, Note_on_c, 0, 84, 84
6, 252960, Note_on_c, 0, 86, 84
6, 253199, Note_on_c, 0, 84, 0
6, 253199, Note_on_c, 0, 86, 0
6, 253440, Note_on_c, 0, 84, 92
6, 253440, Note_on_c, 0, 86, 92
6, 254144, Note_on_c, 0, 84, 0
6, 254144, Note_on_c, 0, 86, 0
6, 254160, Note_on_c, 0, 86, 84
6, 254160, Note_on_c, 0, 84, 84
6, 254384, Note_on_c, 0, 86, 0
6, 254384, Note_on_c, 0, 84, 0
6, 254400, Note_on_c, 0, 86, 84
6, 254400, Note_on_c, 0, 84, 84
6, 254624, Note_on_c, 0, 86, 0
6, 254624, Note_on_c, 0, 84, 0
6, 254640, Note_on_c, 0, 86, 84
6, 254640, Note_on_c, 0, 84, 84
6, 254864, Note_on_c, 0, 86, 0
6, 254864, Note_on_c, 0, 84, 0
6, 254880, Note_on_c, 0, 84, 84
6, 254880, Note_on_c, 0, 86, 84
6, 255119, Note_on_c, 0, 84, 0
6, 255119, Note_on_c, 0, 86, 0
6, 255360, Note_on_c, 0, 86, 92
6, 255360, Note_on_c, 0, 84, 92
6, 256064, Note_on_c, 0, 86, 0
6, 256064, Note_on_c, 0, 84, 0
6, 256080, Note_on_c, 0, 84, 84
6, 256080, Note_on_c, 0, 86, 84
6, 256304, Note_on_c, 0, 84, 0
6, 256304, Note_on_c, 0, 86, 0
6, 256320, Note_on_c, 0, 86, 84
6, 256320, Note_on_c, 0, 84, 84
6, 256544, Note_on_c, 0, 86, 0
6, 256544, Note_on_c, 0, 84, 0
6, 256560, Note_on_c, 0, 86, 84
6, 256560, Note_on_c, 0, 84, 84
6, 256784, Note_on_c, 0, 86, 0
6, 256784, Note_on_c, 0, 84, 0
6, 256800, Note_on_c, 0, 84, 84
6, 256800, Note_on_c, 0, 86, 84
6, 257039, Note_on_c, 0, 84, 0
6, 257039, Note_on_c, 0, 86, 0
6, 257280, Note_on_c, 0, 84, 92
6, 257280, Note_on_c, 0, 86, 92
6, 257984, Note_on_c, 0, 84, 0
6, 257984, Note_on_c, 0, 86, 0
6, 258000, Note_on_c, 0, 84, 84
6, 258000, Note_on_c, 0, 86, 84
6, 258224, Note_on_c, 0, 84, 0
6, 258224, Note_on_c, 0, 86, 0
6, 258240, Note_on_c, 0, 84, 84
6, 258240, Note_on_c, 0, 86, 84
6, 258464, Note_on_c, 0, 84, 0
6, 258464, Note_on_c, 0, 86, 0
6, 258480, Note_on_c, 0, 84, 84
6, 258480, Note_on_c, 0, 86, 84
6, 258704, Note_on_c, 0, 84, 0
6, 258704, Note_on_c, 0, 86, 0
6, 258720, Note_on_c, 0, 84, 84
6, 258720, Note_on_c, 0, 86, 84
6, 258959, Note_on_c, 0, 84, 0
6, 258959, Note_on_c, 0, 86, 0
6, 266160, Note_on_c, 0, 83, 52
6, 266160, Note_on_c, 0, 79, 52
6, 266339, Note_on_c, 0, 83, 0
6, 266339, Note_on_c, 0, 79, 0
6, 266340, Note_on_c, 0, 84, 52
6, 266340, Note_on_c, 0, 81, 52
6, 266391, Note_on_c, 0, 84, 0
6, 266391, Note_on_c, 0, 81, 0
6, 266400, Note_on_c, 0, 83, 52
6, 266400, Note_on_c, 0, 86, 52
6, 266579, Note_on_c, 0, 83, 0
6, 266579, Note_on_c, 0, 86, 0
6, 266640, Note_on_c, 0, 83, 52
6, 266640, Note_on_c, 0, 86, 52
6, 266819, Note_on_c, 0, 83, 0
6, 266819, Note_on_c, 0, 86, 0
6, 266880, Note_on_c, 0, 86, 52
6, 266880, Note_on_c, 0, 83, 52
6, 267059, Note_on_c, 0, 86, 0
6, 267059, Note_on_c, 0, 83, 0
6, 267120, Note_on_c, 0, 84, 52
6, 267120, Note_on_c, 0, 87, 52
6, 267299, Note_on_c, 0, 84, 0
6, 267299, Note_on_c, 0, 87, 0
6, 267360, Note_on_c, 0, 83, 52
6, 267360, Note_on_c, 0, 86, 52
6, 267599, Note_on_c, 0, 83, 0
6, 267599, Note_on_c, 0, 86, 0
6, 268320, Note_on_c, 0, 83, 52
6, 268320, Note_on_c, 0, 86, 52
6, 268499, Note_on_c, 0, 83, 0
6, 268499, Note_on_c, 0, 86, 0
6, 268560, Note_on_c, 0, 86, 52
6, 268560, Note_on_c, 0, 83, 52
6, 268739, Note_on_c, 0, 86, 0
6, 268739, Note_on_c, 0, 83, 0
6, 268800, Note_on_c, 0, 83, 52
6, 268800, Note_on_c, 0, 86, 52
6, 268979, Note_on_c, 0, 83, 0
6, 268979, Note_on_c, 0, 86, 0
6, 269040, Note_on_c, 0, 85, 52
6, 269040, Note_on_c, 0, 88, 52
6, 269219, Note_on_c, 0, 85, 0
6, 269219, Note_on_c, 0, 88, 0
6, 269280, Note_on_c, 0, 86, 52
6, 269280, Note_on_c, 0, 89, 52
6, 269519, Note_on_c, 0, 86, 0
6, 269519, Note_on_c, 0, 89, 0
6, 270240, Note_on_c, 0, 85, 52
6, 270240, Note_on_c, 0, 88, 52
6, 270419, Note_on_c, 0, 85, 0
6, 270419, Note_on_c, 0, 88, 0
6, 270480, Note_on_c, 0, 85, 52
6, 270480, Note_on_c, 0, 88, 52
6, 270659, Note_on_c, 0, 85, 0
6, 270659, Note_on_c, 0, 88, 0
6, 270720, Note_on_c, 0, 88, 52
6, 270720, Note_on_c, 0, 85, 52
6, 270899, Note_on_c, 0, 88, 0
6, 270899, Note_on_c, 0, 85, 0
6, 270960, Note_on_c, 0, 86, 52
6, 270960, Note_on_c, 0, 89, 52
6, 271139, Note_on_c, 0, 86, 0
6, 271139, Note_on_c, 0, 89, 0
6, 271200, Note_on_c, 0, 85, 52
6, 271200, Note_on_c, 0, 88, 52
6, 271439, Note_on_c, 0, 85, 0
6, 271439, Note_on_c, 0, 88, 0
6, 272160, Note_on_c, 0, 85, 52
6, 272160, Note_on_c, 0, 88, 52
6, 272339, Note_on_c, 0, 85, 0
6, 272339, Note_on_c, 0, 88, 0
6, 272400, Note_on_c, 0, 85, 52
6, 272400, Note_on_c, 0, 88, 52
6, 272579, Note_on_c, 0, 85, 0
6, 272579, Note_on_c, 0, 88, 0
6, 272640, Note_on_c, 0, 88, 52
6, 272640, Note_on_c, 0, 85, 52
6, 272819, Note_on_c, 0, 88, 0
6, 272819, Note_on_c, 0, 85, 0
6, 272880, Note_on_c, 0, 87, 52
6, 272880, Note_on_c, 0, 90, 52
6, 273059, Note_on_c, 0, 87, 0
6, 273059, Note_on_c, 0, 90, 0
6, 273120, Note_on_c, 0, 88, 52
6, 273120, Note_on_c, 0, 91, 52
6, 273359, Note_on_c, 0, 88, 0
6, 273359, Note_on_c, 0, 91, 0
6, 274080, Note_on_c, 0, 90, 52
6, 274080, Note_on_c, 0, 87, 52
6, 274259, Note_on_c, 0, 90, 0
6, 274259, Note_on_c, 0, 87, 0
6, 274320, Note_on_c, 0, 90, 52
6, 274320, Note_on_c, 0, 87, 52
6, 274499, Note_on_c, 0, 90, 0
6, 274499, Note_on_c, 0, 87, 0
6, 274560, Note_on_c, 0, 87, 52
6, 274560, Note_on_c, 0, 90, 52
6, 274739, Note_on_c, 0, 87, 0
6, 274739, Note_on_c, 0, 90, 0
6, 274800, Note_on_c, 0, 88, 52
6, 274800, Note_on_c, 0, 91, 52
6, 274979, Note_on_c, 0, 88, 0
6, 274979, Note_on_c, 0, 91, 0
6, 275040, Note_on_c, 0, 90, 52
6, 275040, Note_on_c, 0, 87, 52
6, 275279, Note_on_c, 0, 90, 0
6, 275279, Note_on_c, 0, 87, 0
6, 276000, Note_on_c, 0, 81, 76
6, 276000, Note_on_c, 0, 78, 76
6, 276944, Note_on_c, 0, 81, 0
6, 276944, Note_on_c, 0, 78, 0
6, 276960, Note_on_c, 0, 81, 84
6, 276960, Note_on_c, 0, 90, 84
6, 277904, Note_on_c, 0, 81, 0
6, 277904, Note_on_c, 0, 90, 0
6, 277920, Note_on_c, 0, 89, 84
6, 277920, Note_on_c, 0, 80, 84
6, 278099, Note_on_c, 0, 89, 0
6, 278099, Note_on_c, 0, 80, 0
6, 278160, Note_on_c, 0, 85, 92
6, 280064, Note_on_c, 0, 85, 0
6, 280080, Note_on_c, 0, 85, 92
6, 281984, Note_on_c, 0, 85, 0
6, 282000, Note_on_c, 0, 85, 92
6, 283904, Note_on_c, 0, 85, 0
6, 283920, Note_on_c, 0, 85, 92
6, 285839, Note_on_c, 0, 85, 0
6, 286500, Note_on_c, 0, 80, 84
6, 286500, Note_on_c, 0, 89, 84
6, 286544, Note_on_c, 0, 80, 0
6, 286544, Note_on_c, 0, 89, 0
6, 286560, Note_on_c, 0, 81, 84
6, 286560, Note_on_c, 0, 90, 84
6, 286739, Note_on_c, 0, 81, 0
6, 286739, Note_on_c, 0, 90, 0
6, 287460, Note_on_c, 0, 90, 84
6, 287460, Note_on_c, 0, 81, 84
6, 287504, Note_on_c, 0, 90, 0
6, 287504, Note_on_c, 0, 81, 0
6, 287520, Note_on_c, 0, 80, 84
6, 287520, Note_on_c, 0, 89, 84
6, 287699, Note_on_c, 0, 80, 0
6, 287699, Note_on_c, 0, 89, 0
6, 288420, Note_on_c, 0, 89, 84
6, 288420, Note_on_c, 0, 80, 84
6, 288464, Note_on_c, 0, 89, 0
6, 288464, Note_on_c, 0, 80, 0
6, 288480, Note_on_c, 0, 90, 84
6, 288480, Note_on_c, 0, 81, 84
6, 288659, Note_on_c, 0, 90, 0
6, 288659, Note_on_c, 0, 81, 0
6, 289380, Note_on_c, 0, 81, 84
6, 289380, Note_on_c, 0, 90, 84
6, 289424, Note_on_c, 0, 81, 0
6, 289424, Note_on_c, 0, 90, 0
6, 289440, Note_on_c, 0, 80, 84
6, 289440, Note_on_c, 0, 89, 84
6, 289619, Note_on_c, 0, 80, 0
6, 289619, Note_on_c, 0, 89, 0
6, 290340, Note_on_c, 0, 85, 84
6, 290391, Note_on_c, 0, 85, 0
6, 290400, Note_on_c, 0, 85, 84
6, 290639, Note_on_c, 0, 85, 0
6, 290820, Note_on_c, 0, 85, 84
6, 290871, Note_on_c, 0, 85, 0
6, 290880, Note_on_c, 0, 85, 84
6, 291119, Note_on_c, 0, 85, 0
6, 291300, Note_on_c, 0, 85, 84
6, 291351, Note_on_c, 0, 85, 0
6, 291360, Note_on_c, 0, 85, 52
6, 291599, Note_on_c, 0, 85, 0
6, 294960, Note_on_c, 0, 85, 68
6, 295199, Note_on_c, 0, 85, 0
6, 295200, Note_on_c, 0, 86, 52
6, 295439, Note_on_c, 0, 86, 0
6, 301920, Note_on_c, 0, 86, 52
6, 302039, Note_on_c, 0, 86, 0
6, 302040, Note_on_c, 0, 85, 52
6, 302159, Note_on_c, 0, 85, 0
6, 302160, Note_on_c, 0, 86, 52
6, 302279, Note_on_c, 0, 86, 0
6, 302280, Note_on_c, 0, 85, 52
6, 302399, Note_on_c, 0, 85, 0
6, 302400, Note_on_c, 0, 86, 52
6, 302519, Note_on_c, 0, 86, 0
6, 302520, Note_on_c, 0, 85, 52
6, 302639, Note_on_c, 0, 85, 0
6, 302640, Note_on_c, 0, 86, 52
6, 302759, Note_on_c, 0, 86, 0
6, 302760, Note_on_c, 0, 85, 52
6, 302864, Note_on_c, 0, 85, 0
6, 302880, Note_on_c, 0, 86, 52
6, 303059, Note_on_c, 0, 86, 0
6, 303840, Note_on_c, 0, 86, 52
6, 303959, Note_on_c, 0, 86, 0
6, 303960, Note_on_c, 0, 85, 52
6, 304079, Note_on_c, 0, 85, 0
6, 304080, Note_on_c, 0, 86, 52
6, 304199, Note_on_c, 0, 86, 0
6, 304200, Note_on_c, 0, 85, 52
6, 304319, Note_on_c, 0, 85, 0
6, 304320, Note_on_c, 0, 86, 52
6, 304439, Note_on_c, 0, 86, 0
6, 304440, Note_on_c, 0, 85, 52
6, 304559, Note_on_c, 0, 85, 0
6, 304560, Note_on_c, 0, 86, 52
6, 304679, Note_on_c, 0, 86, 0
6, 304680, Note_on_c, 0, 85, 52
6, 304784, Note_on_c, 0, 85, 0
6, 304800, Note_on_c, 0, 86, 52
6, 305039, Note_on_c, 0, 86, 0
6, 307680, Control_c, 0, 11, 80
6, 307920, Control_c, 0, 11, 80
6, 307920, Note_on_c, 0, 86, 76
6, 308159, Note_on_c, 0, 86, 0
6, 308160, Note_on_c, 0, 90, 76
6, 308220, Control_c, 0, 11, 84
6, 308399, Note_on_c, 0, 90, 0
6, 308400, Note_on_c, 0, 93, 76
6, 308520, Control_c, 0, 11, 88
6, 308820, Control_c, 0, 11, 92
6, 308864, Note_on_c, 0, 93, 0
6, 308880, Note_on_c, 0, 91, 76
6, 309120, Control_c, 0, 11, 96
6, 309359, Note_on_c, 0, 91, 0
6, 309360, Note_on_c, 0, 90, 76
6, 309420, Control_c, 0, 11, 100
6, 309720, Control_c, 0, 11, 104
6, 309824, Note_on_c, 0, 90, 0
6, 309840, Note_on_c, 0, 88, 76
6, 310020, Control_c, 0, 11, 107
6, 310319, Note_on_c, 0, 88, 0
6, 310320, Control_c, 0, 11, 111
6, 310320, Note_on_c, 0, 87, 76
6, 310620, Control_c, 0, 11, 115
6, 310799, Note_on_c, 0, 87, 0
6, 310800, Note_on_c, 0, 88, 76
6, 310920, Control_c, 0, 11, 119
6, 311220, Control_c, 0, 11, 123
6, 311279, Note_on_c, 0, 88, 0
6, 311280, Note_on_c, 0, 86, 76
6, 311504, Note_on_c, 0, 86, 0
6, 311520, Note_on_c, 0, 85, 76
6, 311520, Control_c, 0, 11, 127
6, 311759, Note_on_c, 0, 85, 0
6, 313680, Note_on_c, 0, 81, 76
6, 314144, Note_on_c, 0, 81, 0
6, 314160, Note_on_c, 0, 81, 76
6, 314624, Note_on_c, 0, 81, 0
6, 314640, Note_on_c, 0, 81, 76
6, 315104, Note_on_c, 0, 81, 0
6, 315120, Note_on_c, 0, 86, 76
6, 315344, Note_on_c, 0, 86, 0
6, 315360, Note_on_c, 0, 85, 76
6, 315599, Note_on_c, 0, 85, 0
6, 317400, Note_on_c, 0, 80, 76
6, 317504, Note_on_c, 0, 80, 0
6, 317520, Note_on_c, 0, 81, 76
6, 317624, Note_on_c, 0, 81, 0
6, 317640, Note_on_c, 0, 80, 76
6, 317744, Note_on_c, 0, 80, 0
6, 317760, Note_on_c, 0, 81, 76
6, 317864, Note_on_c, 0, 81, 0
6, 317880, Note_on_c, 0, 83, 76
6, 317984, Note_on_c, 0, 83, 0
6, 318000, Note_on_c, 0, 84, 76
6, 318104, Note_on_c, 0, 84, 0
6, 318120, Note_on_c, 0, 85, 76
6, 318224, Note_on_c, 0, 85, 0
6, 318240, Note_on_c, 0, 86, 76
6, 318344, Note_on_c, 0, 86, 0
6, 318360, Note_on_c, 0, 85, 76
6, 318464, Note_on_c, 0, 85, 0
6, 318480, Note_on_c, 0, 86, 76
6, 318584, Note_on_c, 0, 86, 0
6, 318600, Note_on_c, 0, 88, 76
6, 318704, Note_on_c, 0, 88, 0
6, 318720, Note_on_c, 0, 89, 76
6, 318824, Note_on_c, 0, 89, 0
6, 318840, Note_on_c, 0, 86, 76
6, 319064, Note_on_c, 0, 86, 0
6, 319080, Note_on_c, 0, 86, 76
6, 319184, Note_on_c, 0, 86, 0
6, 319200, Note_on_c, 0, 85, 84
6, 319559, Note_on_c, 0, 85, 0
6, 319560, Note_on_c, 0, 86, 76
6, 319664, Note_on_c, 0, 86, 0
6, 319680, Note_on_c, 0, 85, 84
6, 320039, Note_on_c, 0, 85, 0
6, 320040, Note_on_c, 0, 86, 76
6, 320144, Note_on_c, 0, 86, 0
6, 320160, Note_on_c, 0, 85, 84
6, 320249, Note_on_c, 0, 85, 0
6, 320280, Note_on_c, 0, 86, 76
6, 320369, Note_on_c, 0, 86, 0
6, 320400, Note_on_c, 0, 85, 76
6, 320489, Note_on_c, 0, 85, 0
6, 320520, Note_on_c, 0, 86, 76
6, 320609, Note_on_c, 0, 86, 0
6, 320640, Note_on_c, 0, 85, 76
6, 320729, Note_on_c, 0, 85, 0
6, 320760, Note_on_c, 0, 86, 76
6, 320849, Note_on_c, 0, 86, 0
6, 320880, Note_on_c, 0, 85, 76
6, 320969, Note_on_c, 0, 85, 0
6, 321000, Note_on_c, 0, 86, 76
6, 321089, Note_on_c, 0, 86, 0
6, 321120, Note_on_c, 0, 85, 76
6, 321344, Note_on_c, 0, 85, 0
6, 321360, Note_on_c, 0, 93, 84
6, 321824, Note_on_c, 0, 93, 0
6, 321840, Note_on_c, 0, 92, 76
6, 322019, Note_on_c, 0, 92, 0
6, 322080, Note_on_c, 0, 91, 76
6, 322259, Note_on_c, 0, 91, 0
6, 322320, Note_on_c, 0, 90, 76
6, 322499, Note_on_c, 0, 90, 0
6, 322560, Note_on_c, 0, 88, 76
6, 322739, Note_on_c, 0, 88, 0
6, 322800, Note_on_c, 0, 93, 76
6, 322979, Note_on_c, 0, 93, 0
6, 323040, Note_on_c, 0, 86, 52
6, 323279, Note_on_c, 0, 86, 0
6, 326880, Note_on_c, 0, 83, 84
6, 326880, Note_on_c, 0, 86, 84
6, 327344, Note_on_c, 0, 83, 0
6, 327344, Note_on_c, 0, 86, 0
6, 327360, Note_on_c, 0, 86, 84
6, 327360, Note_on_c, 0, 83, 84
6, 327771, Note_on_c, 0, 86, 0
6, 327771, Note_on_c, 0, 83, 0
6, 327780, Note_on_c, 0, 86, 84
6, 327780, Note_on_c, 0, 83, 84
6, 327831, Note_on_c, 0, 86, 0
6, 327831, Note_on_c, 0, 83, 0
6, 327840, Note_on_c, 0, 86, 92
6, 327840, Note_on_c, 0, 83, 92
6, 328559, Note_on_c, 0, 86, 0
6, 328559, Note_on_c, 0, 83, 0
6, 329040, Note_on_c, 0, 88, 92
6, 329279, Note_on_c, 0, 88, 0
6, 329520, Note_on_c, 0, 88, 92
6, 329744, Note_on_c, 0, 88, 0
6, 329760, Note_on_c, 0, 81, 84
6, 329999, Note_on_c, 0, 81, 0
6, 330720, Note_on_c, 0, 74, 52
6, 330720, Note_on_c, 0, 78, 52
6, 331184, Note_on_c, 0, 74, 0
6, 331184, Note_on_c, 0, 78, 0
6, 331200, Note_on_c, 0, 78, 52
6, 331200, Note_on_c, 0, 81, 52
6, 331611, Note_on_c, 0, 78, 0
6, 331611, Note_on_c, 0, 81, 0
6, 331620, Note_on_c, 0, 86, 52
6, 331620, Note_on_c, 0, 78, 52
6, 331671, Note_on_c, 0, 86, 0
6, 331671, Note_on_c, 0, 78, 0
6, 331680, Note_on_c, 0, 90, 52
6, 331680, Note_on_c, 0, 81, 52
6, 332384, Note_on_c, 0, 90, 0
6, 332384, Note_on_c, 0, 81, 0
6, 332400, Note_on_c, 0, 86, 52
6, 332400, Note_on_c, 0, 78, 52
6, 332579, Note_on_c, 0, 86, 0
6, 332579, Note_on_c, 0, 78, 0
6, 332580, Note_on_c, 0, 79, 52
6, 332580, Note_on_c, 0, 88, 52
6, 332631, Note_on_c, 0, 79, 0
6, 332631, Note_on_c, 0, 88, 0
6, 332640, Note_on_c, 0, 81, 52
6, 332640, Note_on_c, 0, 90, 52
6, 332819, Note_on_c, 0, 81, 0
6, 332819, Note_on_c, 0, 90, 0
6, 332880, Note_on_c, 0, 90, 52
6, 332880, Note_on_c, 0, 81, 52
6, 333059, Note_on_c, 0, 90, 0
6, 333059, Note_on_c, 0, 81, 0
6, 333120, Note_on_c, 0, 90, 52
6, 333120, Note_on_c, 0, 81, 52
6, 333299, Note_on_c, 0, 90, 0
6, 333299, Note_on_c, 0, 81, 0
6, 333360, Note_on_c, 0, 83, 52
6, 333360, Note_on_c, 0, 91, 52
6, 333539, Note_on_c, 0, 83, 0
6, 333539, Note_on_c, 0, 91, 0
6, 333600, Note_on_c, 0, 90, 52
6, 333600, Note_on_c, 0, 81, 52
6, 334079, Note_on_c, 0, 90, 0
6, 334079, Note_on_c, 0, 81, 0
6, 334080, Note_on_c, 0, 86, 52
6, 334080, Note_on_c, 0, 78, 52
6, 334169, Note_on_c, 0, 86, 0
6, 334169, Note_on_c, 0, 78, 0
6, 334560, Note_on_c, 0, 78, 84
6, 334560, Note_on_c, 0, 74, 84
6, 335024, Note_on_c, 0, 78, 0
6, 335024, Note_on_c, 0, 74, 0
6, 335040, Note_on_c, 0, 78, 84
6, 335040, Note_on_c, 0, 83, 84
6, 335451, Note_on_c, 0, 78, 0
6, 335451, Note_on_c, 0, 83, 0
6, 335460, Note_on_c, 0, 86, 84
6, 335460, Note_on_c, 0, 83, 84
6, 335511, Note_on_c, 0, 86, 0
6, 335511, Note_on_c, 0, 83, 0
6, 335520, Note_on_c, 0, 83, 92
6, 335520, Note_on_c, 0, 86, 92
6, 336239, Note_on_c, 0, 83, 0
6, 336239, Note_on_c, 0, 86, 0
6, 336720, Note_on_c, 0, 88, 92
6, 336959, Note_on_c, 0, 88, 0
6, 337200, Note_on_c, 0, 88, 92
6, 337439, Note_on_c, 0, 88, 0
6, 337440, Note_on_c, 0, 81, 84
6, 337679, Note_on_c, 0, 81, 0
6, 339360, Note_on_c, 0, 81, 92
6, 339944, Note_on_c, 0, 81, 0
6, 339960, Note_on_c, 0, 81, 84
6, 340079, Note_on_c, 0, 81, 0
6, 340080, Note_on_c, 0, 79, 84
6, 340199, Note_on_c, 0, 79, 0
6, 340200, Note_on_c, 0, 78, 84
6, 340304, Note_on_c, 0, 78, 0
6, 340320, Note_on_c, 0, 79, 92
6, 340904, Note_on_c, 0, 79, 0
6, 340920, Note_on_c, 0, 79, 84
6, 341039, Note_on_c, 0, 79, 0
6, 341040, Note_on_c, 0, 78, 84
6, 341159, Note_on_c, 0, 78, 0
6, 341160, Note_on_c, 0, 77, 84
6, 341264, Note_on_c, 0, 77, 0
6, 341280, Note_on_c, 0, 78, 92
6, 341369, Note_on_c, 0, 78, 0
6, 341400, Note_on_c, 0, 78, 84
6, 341519, Note_on_c, 0, 78, 0
6, 341520, Note_on_c, 0, 76, 84
6, 341639, Note_on_c, 0, 76, 0
6, 341640, Note_on_c, 0, 75, 84
6, 341744, Note_on_c, 0, 75, 0
6, 341760, Note_on_c, 0, 76, 92
6, 341849, Note_on_c, 0, 76, 0
6, 341880, Note_on_c, 0, 76, 84
6, 341999, Note_on_c, 0, 76, 0
6, 342000, Note_on_c, 0, 74, 84
6, 342119, Note_on_c, 0, 74, 0
6, 342120, Note_on_c, 0, 73, 84
6, 342224, Note_on_c, 0, 73, 0
6, 342240, Note_on_c, 0, 74, 92
6, 342329, Note_on_c, 0, 74, 0
6, 342360, Note_on_c, 0, 81, 84
6, 342479, Note_on_c, 0, 81, 0
6, 342480, Note_on_c, 0, 79, 84
6, 342599, Note_on_c, 0, 79, 0
6, 342600, Note_on_c, 0, 78, 84
6, 342704, Note_on_c, 0, 78, 0
6, 342720, Note_on_c, 0, 79, 92
6, 342809, Note_on_c, 0, 79, 0
6, 342840, Note_on_c, 0, 79, 84
6, 342959, Note_on_c, 0, 79, 0
6, 342960, Note_on_c, 0, 78, 84
6, 343079, Note_on_c, 0, 78, 0
6, 343080, Note_on_c, 0, 77, 84
6, 343184, Note_on_c, 0, 77, 0
6, 343200, Note_on_c, 0, 78, 92
6, 343289, Note_on_c, 0, 78, 0
6, 343320, Note_on_c, 0, 90, 84
6, 343439, Note_on_c, 0, 90, 0
6, 343440, Note_on_c, 0, 88, 84
6, 343559, Note_on_c, 0, 88, 0
6, 343560, Note_on_c, 0, 86, 84
6, 343664, Note_on_c, 0, 86, 0
6, 343680, Note_on_c, 0, 88, 92
6, 343769, Note_on_c, 0, 88, 0
6, 343800, Note_on_c, 0, 88, 84
6, 343919, Note_on_c, 0, 88, 0
6, 343920, Note_on_c, 0, 86, 84
6, 344039, Note_on_c, 0, 86, 0
6, 344040, Note_on_c, 0, 85, 84
6, 344144, Note_on_c, 0, 85, 0
6, 344160, Note_on_c, 0, 86, 92
6, 344249, Note_on_c, 0, 86, 0
6, 344280, Note_on_c, 0, 86, 84
6, 344399, Note_on_c, 0, 86, 0
6, 344400, Note_on_c, 0, 84, 84
6, 344519, Note_on_c, 0, 84, 0
6, 344520, Note_on_c, 0, 83, 84
6, 344624, Note_on_c, 0, 83, 0
6, 344640, Note_on_c, 0, 84, 92
6, 344729, Note_on_c, 0, 84, 0
6, 344760, Note_on_c, 0, 84, 84
6, 344879, Note_on_c, 0, 84, 0
6, 344880, Note_on_c, 0, 83, 84
6, 344999, Note_on_c, 0, 83, 0
6, 345000, Note_on_c, 0, 82, 84
6, 345104, Note_on_c, 0, 82, 0
6, 345120, Note_on_c, 0, 83, 84
6, 345299, Note_on_c, 0, 83, 0
6, 345540, Note_on_c, 0, 83, 84
6, 345540, Note_on_c, 0, 91, 84
6, 345591, Note_on_c, 0, 83, 0
6, 345591, Note_on_c, 0, 91, 0
6, 345600, Note_on_c, 0, 91, 84
6, 345600, Note_on_c, 0, 83, 84
6, 346079, Note_on_c, 0, 91, 0
6, 346079, Note_on_c, 0, 83, 0
6, 346500, Note_on_c, 0, 91, 84
6, 346500, Note_on_c, 0, 83, 84
6, 346551, Note_on_c, 0, 91, 0
6, 346551, Note_on_c, 0, 83, 0
6, 346560, Note_on_c, 0, 83, 84
6, 346560, Note_on_c, 0, 91, 84
6, 347039, Note_on_c, 0, 83, 0
6, 347039, Note_on_c, 0, 91, 0
6, 347280, Note_on_c, 0, 88, 84
6, 347280, Note_on_c, 0, 91, 84
6, 347459, Note_on_c, 0, 88, 0
6, 347459, Note_on_c, 0, 91, 0
6, 347760, Note_on_c, 0, 90, 84
6, 347760, Note_on_c, 0, 86, 84
6, 347939, Note_on_c, 0, 90, 0
6, 347939, Note_on_c, 0, 86, 0
6, 348240, Note_on_c, 0, 88, 84
6, 348240, Note_on_c, 0, 91, 84
6, 348419, Note_on_c, 0, 88, 0
6, 348419, Note_on_c, 0, 91, 0
6, 348720, Note_on_c, 0, 85, 84
6, 348720, Note_on_c, 0, 88, 84
6, 348899, Note_on_c, 0, 85, 0
6, 348899, Note_on_c, 0, 88, 0
6, 349380, Note_on_c, 0, 86, 84
6, 349380, Note_on_c, 0, 91, 84
6, 349431, Note_on_c, 0, 86, 0
6, 349431, Note_on_c, 0, 91, 0
6, 349440, Note_on_c, 0, 91, 84
6, 349440, Note_on_c, 0, 86, 84
6, 349919, Note_on_c, 0, 91, 0
6, 349919, Note_on_c, 0, 86, 0
6, 350340, Note_on_c, 0, 88, 84
6, 350340, Note_on_c, 0, 91, 84
6, 350391, Note_on_c, 0, 88, 0
6, 350391, Note_on_c, 0, 91, 0
6, 350400, Note_on_c, 0, 88, 84
6, 350400, Note_on_c, 0, 91, 84
6, 350879, Note_on_c, 0, 88, 0
6, 350879, Note_on_c, 0, 91, 0
6, 356400, Note_on_c, 0, 74, 68
6, 356459, Note_on_c, 0, 74, 0
6, 356460, Note_on_c, 0, 73, 68
6, 356519, Note_on_c, 0, 73, 0
6, 356520, Note_on_c, 0, 74, 68
6, 356579, Note_on_c, 0, 74, 0
6, 356580, Note_on_c, 0, 76, 68
6, 356631, Note_on_c, 0, 76, 0
6, 356640, Note_on_c, 0, 77, 76
6, 357584, Note_on_c, 0, 77, 0
6, 357600, Note_on_c, 0, 68, 76
6, 358544, Note_on_c, 0, 68, 0
6, 358560, Note_on_c, 0, 86, 84
6, 358560, Note_on_c, 0, 69, 84
6, 358664, Note_on_c, 0, 69, 0
6, 358680, Note_on_c, 0, 74, 84
6, 358784, Note_on_c, 0, 74, 0
6, 358800, Note_on_c, 0, 78, 84
6, 358904, Note_on_c, 0, 78, 0
6, 358920, Note_on_c, 0, 81, 84
6, 359024, Note_on_c, 0, 81, 0
6, 359160, Note_on_c, 0, 90, 84
6, 359264, Note_on_c, 0, 90, 0
6, 359280, Note_on_c, 0, 93, 84
6, 359384, Note_on_c, 0, 93, 0
6, 359400, Note_on_c, 0, 93, 84
6, 359504, Note_on_c, 0, 86, 0
6, 359504, Note_on_c, 0, 93, 0
6, 359520, Note_on_c, 0, 91, 84
6, 359520, Note_on_c, 0, 85, 84
6, 360224, Note_on_c, 0, 91, 0
6, 360224, Note_on_c, 0, 85, 0
6, 360240, Note_on_c, 0, 85, 84
6, 360240, Note_on_c, 0, 91, 84
6, 360464, Note_on_c, 0, 85, 0
6, 360464, Note_on_c, 0, 91, 0
6, 360480, Note_on_c, 0, 86, 84
6, 360480, Note_on_c, 0, 90, 84
6, 360719, Note_on_c, 0, 86, 0
6, 360719, Note_on_c, 0, 90, 0
6, 362400, Note_on_c, 0, 79, 84
6, 362400, Note_on_c, 0, 91, 84
6, 363104, Note_on_c, 0, 79, 0
6, 363104, Note_on_c, 0, 91, 0
6, 363120, Note_on_c, 0, 91, 84
6, 363120, Note_on_c, 0, 79, 84
6, 363299, Note_on_c, 0, 91, 0
6, 363299, Note_on_c, 0, 79, 0
6, 363360, Note_on_c, 0, 86, 84
6, 363539, Note_on_c, 0, 86, 0
6, 363600, Note_on_c, 0, 82, 84
6, 363779, Note_on_c, 0, 82, 0
6, 363840, Note_on_c, 0, 81, 84
6, 364019, Note_on_c, 0, 81, 0
6, 364080, Note_on_c, 0, 79, 84
6, 364259, Note_on_c, 0, 79, 0
6, 364320, Note_on_c, 0, 86, 84
6, 364559, Note_on_c, 0, 86, 0
6, 366240, Note_on_c, 0, 79, 84
6, 366240, Note_on_c, 0, 91, 84
6, 366944, Note_on_c, 0, 79, 0
6, 366944, Note_on_c, 0, 91, 0
6, 366960, Note_on_c, 0, 79, 84
6, 366960, Note_on_c, 0, 91, 84
6, 367139, Note_on_c, 0, 79, 0
6, 367139, Note_on_c, 0, 91, 0
6, 367200, Note_on_c, 0, 86, 84
6, 367379, Note_on_c, 0, 86, 0
6, 367440, Note_on_c, 0, 82, 84
6, 367619, Note_on_c, 0, 82, 0
6, 367680, Note_on_c, 0, 81, 84
6, 367859, Note_on_c, 0, 81, 0
6, 367920, Note_on_c, 0, 79, 84
6, 368099, Note_on_c, 0, 79, 0
6, 368160, Note_on_c, 0, 86, 52
6, 368879, Note_on_c, 0, 86, 0
6, 368880, Note_on_c, 0, 85, 76
6, 369104, Note_on_c, 0, 85, 0
6, 369120, Note_on_c, 0, 86, 52
6, 369839, Note_on_c, 0, 86, 0
6, 369840, Note_on_c, 0, 88, 76
6, 370064, Note_on_c, 0, 88, 0
6, 370080, Note_on_c, 0, 86, 52
6, 370799, Note_on_c, 0, 86, 0
6, 370800, Note_on_c, 0, 85, 76
6, 371024, Note_on_c, 0, 85, 0
6, 371040, Note_on_c, 0, 86, 52
6, 371759, Note_on_c, 0, 86, 0
6, 371760, Note_on_c, 0, 88, 76
6, 371760, Note_on_c, 0, 85, 76
6, 371939, Note_on_c, 0, 88, 0
6, 371939, Note_on_c, 0, 85, 0
6, 372000, Note_on_c, 0, 86, 52
6, 372179, Note_on_c, 0, 86, 0
6, 372240, Note_on_c, 0, 85, 76
6, 372240, Note_on_c, 0, 88, 76
6, 372419, Note_on_c, 0, 85, 0
6, 372419, Note_on_c, 0, 88, 0
6, 372480, Note_on_c, 0, 86, 52
6, 372659, Note_on_c, 0, 86, 0
6, 372720, Note_on_c, 0, 88, 76
6, 372720, Note_on_c, 0, 85, 76
6, 372899, Note_on_c, 0, 88, 0
6, 372899, Note_on_c, 0, 85, 0
6, 372960, Note_on_c, 0, 86, 52
6, 373139, Note_on_c, 0, 86, 0
6, 373200, Note_on_c, 0, 88, 76
6, 373200, Note_on_c, 0, 85, 76
6, 373379, Note_on_c, 0, 88, 0
6, 373379, Note_on_c, 0, 85, 0
6, 373440, Note_on_c, 0, 86, 52
6, 373619, Note_on_c, 0, 86, 0
6, 373680, Note_on_c, 0, 85, 76
6, 373680, Note_on_c, 0, 88, 76
6, 373859, Note_on_c, 0, 85, 0
6, 373859, Note_on_c, 0, 88, 0
6, 373920, Note_on_c, 0, 86, 84
6, 374864, Note_on_c, 0, 86, 0
6, 374880, Note_on_c, 0, 81, 84
6, 375344, Note_on_c, 0, 81, 0
6, 375360, Note_on_c, 0, 78, 84
6, 375824, Note_on_c, 0, 78, 0
6, 375840, Note_on_c, 0, 74, 84
6, 376784, Note_on_c, 0, 74, 0
6, 376800, Note_on_c, 0, 78, 84
6, 377264, Note_on_c, 0, 78, 0
6, 377280, Note_on_c, 0, 81, 84
6, 377744, Note_on_c, 0, 81, 0
6, 377760, Note_on_c, 0, 86, 84
6, 377999, Note_on_c, 0, 86, 0
6, 378240, Note_on_c, 0, 81, 76
6, 378240, Note_on_c, 0, 78, 76
6, 378479, Note_on_c, 0, 81, 0
6, 378479, Note_on_c, 0, 78, 0
6, 379200, Note_on_c, 0, 84, 76
6, 379200, Note_on_c, 0, 81, 76
6, 379439, Note_on_c, 0, 84, 0
6, 379439, Note_on_c, 0, 81, 0
6, 381600, Control_c, 0, 11, 80
6, 381840, Note_on_c, 0, 90, 76
6, 381840, Note_on_c, 0, 84, 76
6, 382319, Note_on_c, 0, 90, 0
6, 382319, Note_on_c, 0, 84, 0
6, 382320, Note_on_c, 0, 83, 76
6, 382320, Note_on_c, 0, 88, 76
6, 382559, Note_on_c, 0, 83, 0
6, 382559, Note_on_c, 0, 88, 0
6, 382560, Note_on_c, 0, 87, 76
6, 382560, Note_on_c, 0, 81, 76
6, 382799, Note_on_c, 0, 87, 0
6, 382799, Note_on_c, 0, 81, 0
6, 382800, Note_on_c, 0, 79, 76
6, 382800, Note_on_c, 0, 84, 76
6, 383039, Note_on_c, 0, 79, 0
6, 383039, Note_on_c, 0, 84, 0
6, 383040, Note_on_c, 0, 78, 76
6, 383040, Note_on_c, 0, 83, 76
6, 383279, Note_on_c, 0, 78, 0
6, 383279, Note_on_c, 0, 83, 0
6, 383280, Note_on_c, 0, 78, 76
6, 383280, Note_on_c, 0, 81, 76
6, 383504, Note_on_c, 0, 78, 0
6, 383504, Note_on_c, 0, 81, 0
6, 383520, Note_on_c, 0, 76, 76
6, 383520, Note_on_c, 0, 79, 76
6, 383699, Note_on_c, 0, 79, 0
6, 383759, Note_on_c, 0, 76, 0
6, 383760, Note_on_c, 0, 88, 76
6, 384239, Note_on_c, 0, 88, 0
6, 384240, Note_on_c, 0, 86, 76
6, 384479, Note_on_c, 0, 86, 0
6, 384480, Note_on_c, 0, 85, 76
6, 384480, Control_c, 0, 11, 80
6, 384560, Control_c, 0, 11, 84
6, 384640, Control_c, 0, 11, 88
6, 384719, Note_on_c, 0, 85, 0
6, 384720, Control_c, 0, 11, 92
6, 384720, Note_on_c, 0, 83, 76
6, 384800, Control_c, 0, 11, 96
6, 384880, Control_c, 0, 11, 100
6, 384959, Note_on_c, 0, 83, 0
6, 384960, Note_on_c, 0, 81, 76
6, 384960, Control_c, 0, 11, 104
6, 385040, Control_c, 0, 11, 107
6, 385120, Control_c, 0, 11, 111
6, 385199, Note_on_c, 0, 81, 0
6, 385200, Note_on_c, 0, 79, 76
6, 385200, Control_c, 0, 11, 115
6, 385280, Control_c, 0, 11, 119
6, 385360, Control_c, 0, 11, 123
6, 385424, Note_on_c, 0, 79, 0
6, 385440, Control_c, 0, 11, 127
6, 385440, Note_on_c, 0, 78, 76
6, 385679, Note_on_c, 0, 78, 0
6, 386400, Note_on_c, 0, 86, 84
6, 387119, Note_on_c, 0, 86, 0
6, 387120, Note_on_c, 0, 87, 76
6, 387344, Note_on_c, 0, 87, 0
6, 387360, Note_on_c, 0, 88, 76
6, 387599, Note_on_c, 0, 88, 0
6, 388320, Note_on_c, 0, 88, 84
6, 389039, Note_on_c, 0, 88, 0
6, 389040, Note_on_c, 0, 89, 76
6, 389264, Note_on_c, 0, 89, 0
6, 389280, Note_on_c, 0, 90, 76
6, 389519, Note_on_c, 0, 90, 0
6, 393120, Note_on_c, 0, 85, 84
6, 394079, Note_on_c, 0, 85, 0
6, 395040, Note_on_c, 0, 86, 84
6, 396000, Note_on_c, 0, 88, 84
6, 396464, Note_on_c, 0, 86, 0
6, 396480, Note_on_c, 0, 85, 84
6, 396944, Note_on_c, 0, 88, 0
6, 396944, Note_on_c, 0, 85, 0
6, 396960, Note_on_c, 0, 86, 84
6, 397199, Note_on_c, 0, 86, 0
6, 398880, Note_on_c, 0, 84, 84
6, 399839, Note_on_c, 0, 84, 0
6, 401280, Note_on_c, 0, 84, 84
6, 401759, Note_on_c, 0, 84, 0
6, 402240, Note_on_c, 0, 84, 84
6, 402704, Note_on_c, 0, 84, 0
6, 402720, Note_on_c, 0, 84, 84
6, 403184, Note_on_c, 0, 84, 0
6, 403200, Note_on_c, 0, 84, 84
6, 403664, Note_on_c, 0, 84, 0
6, 403680, Note_on_c, 0, 84, 84
6, 404624, Note_on_c, 0, 84, 0
6, 404640, Note_on_c, 0, 87, 84
6, 404640, Note_on_c, 0, 84, 84
6, 405104, Note_on_c, 0, 87, 0
6, 405104, Note_on_c, 0, 84, 0
6, 405120, Note_on_c, 0, 87, 84
6, 405120, Note_on_c, 0, 84, 84
6, 405584, Note_on_c, 0, 87, 0
6, 405584, Note_on_c, 0, 84, 0
6, 405600, Note_on_c, 0, 84, 84
6, 405600, Note_on_c, 0, 87, 84
6, 406544, Note_on_c, 0, 84, 0
6, 406544, Note_on_c, 0, 87, 0
6, 406560, Note_on_c, 0, 90, 84
6, 406560, Note_on_c, 0, 87, 84
6, 407024, Note_on_c, 0, 90, 0
6, 407024, Note_on_c, 0, 87, 0
6, 407040, Note_on_c, 0, 90, 84
6, 407040, Note_on_c, 0, 87, 84
6, 407504, Note_on_c, 0, 90, 0
6, 407504, Note_on_c, 0, 87, 0
6, 407520, Note_on_c, 0, 87, 84
6, 407520, Note_on_c, 0, 90, 84
6, 408464, Note_on_c, 0, 87, 0
6, 408464, Note_on_c, 0, 90, 0
6, 408480, Note_on_c, 0, 90, 84
6, 408480, Note_on_c, 0, 93, 84
6, 408944, Note_on_c, 0, 90, 0
6, 408944, Note_on_c, 0, 93, 0
6, 408960, Note_on_c, 0, 90, 84
6, 408960, Note_on_c, 0, 93, 84
6, 409424, Note_on_c, 0, 90, 0
6, 409424, Note_on_c, 0, 93, 0
6, 409440, Note_on_c, 0, 90, 84
6, 409440, Note_on_c, 0, 93, 84
6, 410399, Note_on_c, 0, 90, 0
6, 410399, Note_on_c, 0, 93, 0
6, 410400, Note_on_c, 0, 90, 84
6, 410400, Note_on_c, 0, 91, 84
6, 410864, Note_on_c, 0, 90, 0
6, 410864, Note_on_c, 0, 91, 0
6, 410880, Note_on_c, 0, 88, 84
6, 410880, Note_on_c, 0, 91, 84
6, 411344, Note_on_c, 0, 91, 0
6, 411360, Note_on_c, 0, 90, 84
6, 411824, Note_on_c, 0, 88, 0
6, 411824, Note_on_c, 0, 90, 0
6, 411840, Note_on_c, 0, 90, 84
6, 411840, Note_on_c, 0, 86, 84
6, 412304, Note_on_c, 0, 90, 0
6, 412304, Note_on_c, 0, 86, 0
6, 412320, Note_on_c, 0, 88, 92
6, 412320, Note_on_c, 0, 86, 92
6, 413264, Note_on_c, 0, 88, 0
6, 413264, Note_on_c, 0, 86, 0
6, 413280, Note_on_c, 0, 85, 92
6, 413280, Note_on_c, 0, 88, 92
6, 414224, Note_on_c, 0, 85, 0
6, 414224, Note_on_c, 0, 88, 0
6, 414240, Note_on_c, 0, 86, 84
6, 414479, Note_on_c, 0, 86, 0
6, 417600, Note_on_c, 0, 91, 84
6, 417689, Note_on_c, 0, 91, 0
6, 417720, Note_on_c, 0, 88, 84
6, 417809, Note_on_c, 0, 88, 0
6, 417840, Note_on_c, 0, 85, 84
6, 417929, Note_on_c, 0, 85, 0
6, 417960, Note_on_c, 0, 81, 84
6, 418049, Note_on_c, 0, 81, 0
6, 418080, Note_on_c, 0, 86, 84
6, 418784, Note_on_c, 0, 86, 0
6, 418800, Note_on_c, 0, 86, 92
6, 419039, Note_on_c, 0, 86, 0
6, 419280, Note_on_c, 0, 78, 92
6, 419519, Note_on_c, 0, 78, 0
6, 419760, Note_on_c, 0, 81, 92
6, 419999, Note_on_c, 0, 81, 0
6, 420240, Note_on_c, 0, 86, 92
6, 420479, Note_on_c, 0, 86, 0
6, 421440, Note_on_c, 0, 91, 84
6, 421529, Note_on_c, 0, 91, 0
6, 421560, Note_on_c, 0, 88, 84
6, 421649, Note_on_c, 0, 88, 0
6, 421680, Note_on_c, 0, 85, 84
6, 421769, Note_on_c, 0, 85, 0
6, 421800, Note_on_c, 0, 81, 84
6, 421889, Note_on_c, 0, 81, 0
6, 421920, Note_on_c, 0, 86, 84
6, 422144, Note_on_c, 0, 86, 0
6, 422160, Note_on_c, 0, 86, 84
6, 422160, Note_on_c, 0, 90, 84
6, 422399, Note_on_c, 0, 86, 0
6, 422399, Note_on_c, 0, 90, 0
6, 422640, Note_on_c, 0, 86, 84
6, 422640, Note_on_c, 0, 90, 84
6, 422879, Note_on_c, 0, 86, 0
6, 422879, Note_on_c, 0, 90, 0
6, 423120, Note_on_c, 0, 86, 84
6, 423120, Note_on_c, 0, 88, 84
6, 423344, Note_on_c, 0, 86, 0
6, 423344, Note_on_c, 0, 88, 0
6, 423360, Note_on_c, 0, 91, 84
6, 423449, Note_on_c, 0, 91, 0
6, 423480, Note_on_c, 0, 88, 84
6, 423569, Note_on_c, 0, 88, 0
6, 423600, Note_on_c, 0, 85, 84
6, 423689, Note_on_c, 0, 85, 0
6, 423720, Note_on_c, 0, 81, 84
6, 423809, Note_on_c, 0, 81, 0
6, 423840, Note_on_c, 0, 86, 76
6, 424544, Note_on_c, 0, 86, 0
6, 424560, Note_on_c, 0, 74, 76
6, 424619, Note_on_c, 0, 74, 0
6, 424620, Note_on_c, 0, 73, 76
6, 424679, Note_on_c, 0, 73, 0
6, 424680, Note_on_c, 0, 74, 76
6, 424739, Note_on_c, 0, 74, 0
6, 424740, Note_on_c, 0, 76, 76
6, 424791, Note_on_c, 0, 76, 0
6, 424800, Note_on_c, 0, 78, 76
6, 424979, Note_on_c, 0, 78, 0
6, 425040, Note_on_c, 0, 78, 76
6, 425099, Note_on_c, 0, 78, 0
6, 425100, Note_on_c, 0, 76, 76
6, 425159, Note_on_c, 0, 76, 0
6, 425160, Note_on_c, 0, 78, 76
6, 425219, Note_on_c, 0, 78, 0
6, 425220, Note_on_c, 0, 79, 76
6, 425271, Note_on_c, 0, 79, 0
6, 425280, Note_on_c, 0, 81, 76
6, 425459, Note_on_c, 0, 81, 0
6, 425520, Note_on_c, 0, 81, 76
6, 425639, Note_on_c, 0, 81, 0
6, 425640, Note_on_c, 0, 83, 76
6, 425699, Note_on_c, 0, 83, 0
6, 425700, Note_on_c, 0, 85, 76
6, 425751, Note_on_c, 0, 85, 0
6, 425760, Note_on_c, 0, 86, 84
6, 426464, Note_on_c, 0, 86, 0
6, 426480, Note_on_c, 0, 86, 76
6, 426599, Note_on_c, 0, 86, 0
6, 426600, Note_on_c, 0, 85, 76
6, 426659, Note_on_c, 0, 85, 0
6, 426660, Note_on_c, 0, 83, 76
6, 426711, Note_on_c, 0, 83, 0
6, 426720, Note_on_c, 0, 81, 76
6, 426899, Note_on_c, 0, 81, 0
6, 426960, Note_on_c, 0, 81, 76
6, 427019, Note_on_c, 0, 81, 0
6, 427020, Note_on_c, 0, 83, 76
6, 427079, Note_on_c, 0, 83, 0
6, 427080, Note_on_c, 0, 81, 76
6, 427139, Note_on_c, 0, 81, 0
6, 427140, Note_on_c, 0, 79, 76
6, 427199, Note_on_c, 0, 79, 0
6, 427200, Note_on_c, 0, 78, 76
6, 427379, Note_on_c, 0, 78, 0
6, 427440, Note_on_c, 0, 78, 76
6, 427499, Note_on_c, 0, 78, 0
6, 427500, Note_on_c, 0, 79, 76
6, 427559, Note_on_c, 0, 79, 0
6, 427560, Note_on_c, 0, 78, 76
6, 427619, Note_on_c, 0, 78, 0
6, 427620, Note_on_c, 0, 76, 76
6, 427671, Note_on_c, 0, 76, 0
6, 427680, Note_on_c, 0, 74, 76
6, 427859, Note_on_c, 0, 74, 0
6, 428100, Note_on_c, 0, 86, 76
6, 428100, Note_on_c, 0, 90, 76
6, 428144, Note_on_c, 0, 86, 0
6, 428144, Note_on_c, 0, 90, 0
6, 428160, Note_on_c, 0, 86, 76
6, 428160, Note_on_c, 0, 90, 76
6, 428339, Note_on_c, 0, 86, 0
6, 428339, Note_on_c, 0, 90, 0
6, 429060, Note_on_c, 0, 88, 76
6, 429060, Note_on_c, 0, 85, 76
6, 429104, Note_on_c, 0, 88, 0
6, 429104, Note_on_c, 0, 85, 0
6, 429120, Note_on_c, 0, 88, 76
6, 429120, Note_on_c, 0, 85, 76
6, 429299, Note_on_c, 0, 88, 0
6, 429299, Note_on_c, 0, 85, 0
6, 430020, Note_on_c, 0, 90, 76
6, 430020, Note_on_c, 0, 86, 76
6, 430064, Note_on_c, 0, 90, 0
6, 430064, Note_on_c, 0, 86, 0
6, 430080, Note_on_c, 0, 86, 76
6, 430080, Note_on_c, 0, 90, 76
6, 430259, Note_on_c, 0, 86, 0
6, 430259, Note_on_c, 0, 90, 0
6, 430980, Note_on_c, 0, 88, 76
6, 430980, Note_on_c, 0, 85, 76
6, 431024, Note_on_c, 0, 88, 0
6, 431024, Note_on_c, 0, 85, 0
6, 431040, Note_on_c, 0, 88, 76
6, 431040, Note_on_c, 0, 85, 76
6, 431219, Note_on_c, 0, 88, 0
6, 431219, Note_on_c, 0, 85, 0
6, 431520, Note_on_c, 0, 90, 76
6, 431520, Note_on_c, 0, 86, 76
6, 431759, Note_on_c, 0, 90, 0
6, 431759, Note_on_c, 0, 86, 0
6, 432420, Note_on_c, 0, 74, 84
6, 432471, Note_on_c, 0, 74, 0
6, 432480, Note_on_c, 0, 74, 84
6, 432719, Note_on_c, 0, 74, 0
6, 432960, Note_on_c, 0, 86, 84
6, 433199, Note_on_c, 0, 86, 0
6, 433440, Note_on_c, 0, 86, 84
6, 434399, Note_on_c, 0, 86, 0
6, 434399, End_track
7, 0, Start_track
7, 0, Title_t, "Oboe"
7, 0, MIDI_port, 0
7, 0, Program_c, 1, 68
7, 0, Control_c, 1, 7, 80
7, 0, Control_c, 1, 10, 70
7, 0, Control_c, 1, 11, 127
7, 690, Note_on_c, 1, 74, 84
7, 715, Note_on_c, 1, 74, 0
7, 720, Note_on_c, 1, 74, 84
7, 1064, Note_on_c, 1, 74, 0
7, 1072, Control_c, 1, 11, 64
7, 1080, Note_on_c, 1, 78, 84
7, 1080, Note_on_c, 1, 69, 84
7, 1199, Note_on_c, 1, 78, 0
7, 1199, Note_on_c, 1, 69, 0
7, 1200, Note_on_c, 1, 76, 84
7, 1200, Note_on_c, 1, 67, 84
7, 1319, Note_on_c, 1, 76, 0
7, 1319, Note_on_c, 1, 67, 0
7, 1320, Note_on_c, 1, 66, 84
7, 1320, Note_on_c, 1, 74, 84
7, 1431, Note_on_c, 1, 66, 0
7, 1431, Note_on_c, 1, 74, 0
7, 1440, Note_on_c, 1, 64, 84
7, 1440, Note_on_c, 1, 74, 84
7, 1679, Note_on_c, 1, 74, 0
7, 1680, Note_on_c, 1, 73, 84
7, 1919, Note_on_c, 1, 64, 0
7, 1919, Note_on_c, 1, 73, 0
7, 1920, Note_on_c, 1, 75, 84
7, 1920, Note_on_c, 1, 71, 84
7, 2151, Note_on_c, 1, 75, 0
7, 2151, Note_on_c, 1, 71, 0
7, 2160, Note_on_c, 1, 76, 84
7, 2160, Note_on_c, 1, 71, 84
7, 2160, Control_c, 1, 11, 64
7, 2190, Control_c, 1, 11, 67
7, 2220, Control_c, 1, 11, 69
7, 2250, Control_c, 1, 11, 72
7, 2280, Control_c, 1, 11, 75
7, 2310, Control_c, 1, 11, 77
7, 2340, Control_c, 1, 11, 80
7, 2370, Control_c, 1, 11, 83
7, 2400, Control_c, 1, 11, 85
7, 2430, Control_c, 1, 11, 88
7, 2460, Control_c, 1, 11, 91
7, 2490, Control_c, 1, 11, 93
7, 2511, Note_on_c, 1, 76, 0
7, 2511, Note_on_c, 1, 71, 0
7, 2520, Note_on_c, 1, 78, 84
7, 2520, Note_on_c, 1, 71, 84
7, 2520, Control_c, 1, 11, 96
7, 2550, Control_c, 1, 11, 93
7, 2580, Control_c, 1, 11, 91
7, 2610, Control_c, 1, 11, 88
7, 2639, Note_on_c, 1, 78, 0
7, 2639, Note_on_c, 1, 71, 0
7, 2640, Control_c, 1, 11, 85
7, 2640, Note_on_c, 1, 71, 84
7, 2640, Note_on_c, 1, 79, 84
7, 2670, Control_c, 1, 11, 83
7, 2700, Control_c, 1, 11, 80
7, 2730, Control_c, 1, 11, 77
7, 2759, Note_on_c, 1, 71, 0
7, 2759, Note_on_c, 1, 79, 0
7, 2760, Control_c, 1, 11, 75
7, 2760, Note_on_c, 1, 71, 84
7, 2760, Note_on_c, 1, 83, 84
7, 2790, Control_c, 1, 11, 72
7, 2820, Control_c, 1, 11, 69
7, 2850, Control_c, 1, 11, 67
7, 2871, Note_on_c, 1, 71, 0
7, 2871, Note_on_c, 1, 83, 0
7, 2880, Control_c, 1, 11, 64
7, 2880, Note_on_c, 1, 74, 84
7, 2880, Note_on_c, 1, 69, 84
7, 3119, Note_on_c, 1, 74, 0
7, 3120, Note_on_c, 1, 73, 84
7, 3239, Note_on_c, 1, 69, 0
7, 3239, Note_on_c, 1, 73, 0
7, 3360, Control_c, 1, 11, 127
7, 3570, Note_on_c, 1, 62, 84
7, 3570, Note_on_c, 1, 74, 84
7, 3595, Note_on_c, 1, 62, 0
7, 3595, Note_on_c, 1, 74, 0
7, 3600, Note_on_c, 1, 62, 84
7, 3600, Note_on_c, 1, 74, 84
7, 3959, Note_on_c, 1, 62, 0
7, 3959, Note_on_c, 1, 74, 0
7, 4800, Note_on_c, 1, 75, 92
7, 4800, Note_on_c, 1, 72, 92
7, 5039, Note_on_c, 1, 75, 0
7, 5039, Note_on_c, 1, 72, 0
7, 5040, Note_on_c, 1, 71, 84
7, 5040, Note_on_c, 1, 76, 84
7, 5129, Note_on_c, 1, 71, 0
7, 5129, Note_on_c, 1, 76, 0
7, 6690, Note_on_c, 1, 76, 52
7, 6690, Note_on_c, 1, 78, 52
7, 6715, Note_on_c, 1, 76, 0
7, 6715, Note_on_c, 1, 78, 0
7, 6720, Note_on_c, 1, 78, 52
7, 6720, Note_on_c, 1, 76, 52
7, 6959, Note_on_c, 1, 78, 0
7, 6959, Note_on_c, 1, 76, 0
7, 6960, Note_on_c, 1, 78, 52
7, 6960, Note_on_c, 1, 74, 52
7, 7049, Note_on_c, 1, 78, 0
7, 7049, Note_on_c, 1, 74, 0
7, 7410, Note_on_c, 1, 77, 52
7, 7410, Note_on_c, 1, 79, 52
7, 7435, Note_on_c, 1, 77, 0
7, 7435, Note_on_c, 1, 79, 0
7, 7440, Note_on_c, 1, 79, 52
7, 7440, Note_on_c, 1, 77, 52
7, 7679, Note_on_c, 1, 79, 0
7, 7679, Note_on_c, 1, 77, 0
7, 7680, Note_on_c, 1, 79, 52
7, 7680, Note_on_c, 1, 76, 52
7, 7769, Note_on_c, 1, 79, 0
7, 7769, Note_on_c, 1, 76, 0
7, 7920, Control_c, 1, 11, 64
7, 8130, Note_on_c, 1, 79, 84
7, 8130, Note_on_c, 1, 81, 84
7, 8155, Note_on_c, 1, 79, 0
7, 8155, Note_on_c, 1, 81, 0
7, 8160, Note_on_c, 1, 81, 84
7, 8160, Control_c, 1, 11, 64
7, 8160, Note_on_c, 1, 79, 84
7, 8190, Control_c, 1, 11, 69
7, 8220, Control_c, 1, 11, 75
7, 8250, Control_c, 1, 11, 80
7, 8280, Control_c, 1, 11, 85
7, 8310, Control_c, 1, 11, 90
7, 8340, Control_c, 1, 11, 96
7, 8370, Control_c, 1, 11, 101
7, 8399, Note_on_c, 1, 79, 0
7, 8400, Note_on_c, 1, 77, 84
7, 8400, Control_c, 1, 11, 106
7, 8430, Control_c, 1, 11, 111
7, 8460, Control_c, 1, 11, 117
7, 8490, Control_c, 1, 11, 122
7, 8511, Note_on_c, 1, 81, 0
7, 8511, Note_on_c, 1, 77, 0
7, 8520, Note_on_c, 1, 81, 84
7, 8520, Note_on_c, 1, 75, 84
7, 8520, Control_c, 1, 11, 127
7, 8609, Note_on_c, 1, 81, 0
7, 8609, Note_on_c, 1, 75, 0
7, 8640, Note_on_c, 1, 74, 84
7, 8640, Note_on_c, 1, 82, 84
7, 8729, Note_on_c, 1, 74, 0
7, 8729, Note_on_c, 1, 82, 0
7, 11520, Control_c, 1, 11, 80
7, 11760, Note_on_c, 1, 77, 76
7, 11800, Control_c, 1, 11, 84
7, 11840, Control_c, 1, 11, 88
7, 11880, Control_c, 1, 11, 92
7, 11920, Control_c, 1, 11, 96
7, 11960, Control_c, 1, 11, 100
7, 12000, Control_c, 1, 11, 104
7, 12040, Control_c, 1, 11, 107
7, 12080, Control_c, 1, 11, 111
7, 12119, Note_on_c, 1, 77, 0
7, 12120, Control_c, 1, 11, 115
7, 12120, Note_on_c, 1, 78, 76
7, 12160, Control_c, 1, 11, 119
7, 12200, Control_c, 1, 11, 123
7, 12239, Note_on_c, 1, 78, 0
7, 12240, Note_on_c, 1, 79, 84
7, 12240, Control_c, 1, 11, 127
7, 12479, Note_on_c, 1, 79, 0
7, 13080, Note_on_c, 1, 84, 68
7, 13080, Note_on_c, 1, 72, 68
7, 13319, Note_on_c, 1, 84, 0
7, 13319, Note_on_c, 1, 72, 0
7, 14040, Note_on_c, 1, 84, 52
7, 14159, Note_on_c, 1, 84, 0
7, 14160, Note_on_c, 1, 81, 52
7, 14279, Note_on_c, 1, 81, 0
7, 14280, Note_on_c, 1, 75, 52
7, 14391, Note_on_c, 1, 75, 0
7, 14400, Note_on_c, 1, 74, 52
7, 14639, Note_on_c, 1, 74, 0
7, 14760, Note_on_c, 1, 81, 52
7, 14879, Note_on_c, 1, 81, 0
7, 14880, Note_on_c, 1, 78, 52
7, 14999, Note_on_c, 1, 78, 0
7, 15000, Note_on_c, 1, 72, 52
7, 15111, Note_on_c, 1, 72, 0
7, 15120, Note_on_c, 1, 70, 52
7, 15359, Note_on_c, 1, 70, 0
7, 15480, Note_on_c, 1, 74, 52
7, 15599, Note_on_c, 1, 74, 0
7, 15600, Note_on_c, 1, 75, 52
7, 15719, Note_on_c, 1, 75, 0
7, 15720, Note_on_c, 1, 74, 52
7, 15831, Note_on_c, 1, 74, 0
7, 15840, Note_on_c, 1, 73, 52
7, 16079, Note_on_c, 1, 73, 0
7, 16080, Control_c, 1, 11, 64
7, 16200, Note_on_c, 1, 76, 84
7, 16200, Control_c, 1, 11, 64
7, 16220, Control_c, 1, 11, 69
7, 16240, Control_c, 1, 11, 75
7, 16260, Control_c, 1, 11, 80
7, 16280, Control_c, 1, 11, 85
7, 16300, Control_c, 1, 11, 90
7, 16319, Note_on_c, 1, 76, 0
7, 16320, Control_c, 1, 11, 96
7, 16320, Note_on_c, 1, 77, 84
7, 16340, Control_c, 1, 11, 101
7, 16360, Control_c, 1, 11, 106
7, 16380, Control_c, 1, 11, 111
7, 16400, Control_c, 1, 11, 117
7, 16420, Control_c, 1, 11, 122
7, 16439, Note_on_c, 1, 77, 0
7, 16440, Control_c, 1, 11, 127
7, 16440, Note_on_c, 1, 76, 84
7, 16551, Note_on_c, 1, 76, 0
7, 16560, Note_on_c, 1, 74, 84
7, 16765, Note_on_c, 1, 74, 0
7, 16770, Note_on_c, 1, 74, 84
7, 16795, Note_on_c, 1, 74, 0
7, 16800, Note_on_c, 1, 69, 84
7, 16800, Note_on_c, 1, 81, 84
7, 17005, Note_on_c, 1, 69, 0
7, 17005, Note_on_c, 1, 81, 0
7, 17010, Note_on_c, 1, 81, 84
7, 17010, Note_on_c, 1, 69, 84
7, 17035, Note_on_c, 1, 81, 0
7, 17035, Note_on_c, 1, 69, 0
7, 17040, Note_on_c, 1, 65, 84
7, 17040, Note_on_c, 1, 77, 84
7, 17129, Note_on_c, 1, 65, 0
7, 17129, Note_on_c, 1, 77, 0
7, 17160, Note_on_c, 1, 74, 84
7, 17160, Note_on_c, 1, 62, 84
7, 17249, Note_on_c, 1, 74, 0
7, 17249, Note_on_c, 1, 62, 0
7, 17280, Note_on_c, 1, 69, 92
7, 17399, Note_on_c, 1, 69, 0
7, 19560, Note_on_c, 1, 78, 52
7, 19679, Note_on_c, 1, 78, 0
7, 19680, Note_on_c, 1, 79, 52
7, 19799, Note_on_c, 1, 79, 0
7, 20160, Control_c, 1, 11, 96
7, 20280, Note_on_c, 1, 76, 68
7, 20280, Control_c, 1, 11, 96
7, 20330, Control_c, 1, 11, 99
7, 20380, Control_c, 1, 11, 101
7, 20399, Note_on_c, 1, 76, 0
7, 20400, Note_on_c, 1, 78, 68
7, 20430, Control_c, 1, 11, 104
7, 20480, Control_c, 1, 11, 106
7, 20519, Note_on_c, 1, 78, 0
7, 20530, Control_c, 1, 11, 109
7, 20880, Control_c, 1, 11, 127
7, 20920, Note_on_c, 1, 80, 68
7, 20920, Note_on_c, 1, 71, 68
7, 20955, Note_on_c, 1, 80, 0
7, 20955, Note_on_c, 1, 71, 0
7, 20960, Note_on_c, 1, 71, 52
7, 20960, Note_on_c, 1, 80, 52
7, 20995, Note_on_c, 1, 71, 0
7, 20995, Note_on_c, 1, 80, 0
7, 21000, Note_on_c, 1, 80, 52
7, 21000, Note_on_c, 1, 71, 52
7, 21035, Note_on_c, 1, 80, 0
7, 21035, Note_on_c, 1, 71, 0
7, 21040, Note_on_c, 1, 80, 52
7, 21040, Note_on_c, 1, 71, 52
7, 21075, Note_on_c, 1, 80, 0
7, 21075, Note_on_c, 1, 71, 0
7, 21080, Note_on_c, 1, 80, 52
7, 21080, Note_on_c, 1, 71, 52
7, 21115, Note_on_c, 1, 80, 0
7, 21115, Note_on_c, 1, 71, 0
7, 21120, Note_on_c, 1, 80, 52
7, 21120, Note_on_c, 1, 71, 52
7, 21155, Note_on_c, 1, 80, 0
7, 21155, Note_on_c, 1, 71, 0
7, 21160, Note_on_c, 1, 71, 52
7, 21160, Note_on_c, 1, 80, 52
7, 21195, Note_on_c, 1, 71, 0
7, 21195, Note_on_c, 1, 80, 0
7, 21200, Note_on_c, 1, 71, 52
7, 21200, Note_on_c, 1, 80, 52
7, 21235, Note_on_c, 1, 71, 0
7, 21235, Note_on_c, 1, 80, 0
7, 21240, Note_on_c, 1, 71, 52
7, 21240, Note_on_c, 1, 80, 52
7, 21275, Note_on_c, 1, 71, 0
7, 21275, Note_on_c, 1, 80, 0
7, 21280, Note_on_c, 1, 71, 52
7, 21280, Note_on_c, 1, 80, 52
7, 21315, Note_on_c, 1, 71, 0
7, 21315, Note_on_c, 1, 80, 0
7, 21320, Note_on_c, 1, 71, 52
7, 21320, Note_on_c, 1, 80, 52
7, 21355, Note_on_c, 1, 71, 0
7, 21355, Note_on_c, 1, 80, 0
7, 21360, Note_on_c, 1, 80, 52
7, 21360, Note_on_c, 1, 71, 52
7, 21395, Note_on_c, 1, 80, 0
7, 21395, Note_on_c, 1, 71, 0
7, 21400, Note_on_c, 1, 80, 52
7, 21400, Note_on_c, 1, 71, 52
7, 21435, Note_on_c, 1, 80, 0
7, 21435, Note_on_c, 1, 71, 0
7, 21440, Note_on_c, 1, 71, 52
7, 21440, Note_on_c, 1, 80, 52
7, 21475, Note_on_c, 1, 71, 0
7, 21475, Note_on_c, 1, 80, 0
7, 21480, Note_on_c, 1, 71, 52
7, 21480, Note_on_c, 1, 80, 52
7, 21515, Note_on_c, 1, 71, 0
7, 21515, Note_on_c, 1, 80, 0
7, 21520, Note_on_c, 1, 80, 52
7, 21520, Note_on_c, 1, 71, 52
7, 21555, Note_on_c, 1, 80, 0
7, 21555, Note_on_c, 1, 71, 0
7, 21560, Note_on_c, 1, 71, 52
7, 21560, Note_on_c, 1, 80, 52
7, 21595, Note_on_c, 1, 71, 0
7, 21595, Note_on_c, 1, 80, 0
7, 21640, Note_on_c, 1, 70, 68
7, 21640, Note_on_c, 1, 79, 68
7, 21675, Note_on_c, 1, 70, 0
7, 21675, Note_on_c, 1, 79, 0
7, 21680, Note_on_c, 1, 70, 52
7, 21680, Note_on_c, 1, 79, 52
7, 21715, Note_on_c, 1, 70, 0
7, 21715, Note_on_c, 1, 79, 0
7, 21720, Note_on_c, 1, 79, 52
7, 21720, Note_on_c, 1, 70, 52
7, 21755, Note_on_c, 1, 79, 0
7, 21755, Note_on_c, 1, 70, 0
7, 21760, Note_on_c, 1, 70, 52
7, 21760, Note_on_c, 1, 79, 52
7, 21795, Note_on_c, 1, 70, 0
7, 21795, Note_on_c, 1, 79, 0
7, 21800, Note_on_c, 1, 70, 52
7, 21800, Note_on_c, 1, 79, 52
7, 21835, Note_on_c, 1, 70, 0
7, 21835, Note_on_c, 1, 79, 0
7, 21840, Note_on_c, 1, 79, 52
7, 21840, Note_on_c, 1, 70, 52
7, 21875, Note_on_c, 1, 79, 0
7, 21875, Note_on_c, 1, 70, 0
7, 21880, Note_on_c, 1, 70, 52
7, 21880, Note_on_c, 1, 79, 52
7, 21915, Note_on_c, 1, 70, 0
7, 21915, Note_on_c, 1, 79, 0
7, 21920, Note_on_c, 1, 70, 52
7, 21920, Note_on_c, 1, 79, 52
7, 21955, Note_on_c, 1, 70, 0
7, 21955, Note_on_c, 1, 79, 0
7, 21960, Note_on_c, 1, 70, 52
7, 21960, Note_on_c, 1, 79, 52
7, 21995, Note_on_c, 1, 70, 0
7, 21995, Note_on_c, 1, 79, 0
7, 22000, Note_on_c, 1, 70, 52
7, 22000, Note_on_c, 1, 79, 52
7, 22035, Note_on_c, 1, 70, 0
7, 22035, Note_on_c, 1, 79, 0
7, 22040, Note_on_c, 1, 70, 52
7, 22040, Note_on_c, 1, 79, 52
7, 22075, Note_on_c, 1, 70, 0
7, 22075, Note_on_c, 1, 79, 0
7, 22080, Note_on_c, 1, 79, 52
7, 22080, Note_on_c, 1, 69, 52
7, 22115, Note_on_c, 1, 79, 0
7, 22115, Note_on_c, 1, 69, 0
7, 22120, Note_on_c, 1, 79, 52
7, 22120, Note_on_c, 1, 69, 52
7, 22155, Note_on_c, 1, 79, 0
7, 22155, Note_on_c, 1, 69, 0
7, 22160, Note_on_c, 1, 79, 52
7, 22160, Note_on_c, 1, 69, 52
7, 22195, Note_on_c, 1, 79, 0
7, 22195, Note_on_c, 1, 69, 0
7, 22200, Note_on_c, 1, 79, 52
7, 22200, Note_on_c, 1, 69, 52
7, 22235, Note_on_c, 1, 79, 0
7, 22235, Note_on_c, 1, 69, 0
7, 22240, Note_on_c, 1, 79, 52
7, 22240, Note_on_c, 1, 69, 52
7, 22275, Note_on_c, 1, 79, 0
7, 22275, Note_on_c, 1, 69, 0
7, 22280, Note_on_c, 1, 69, 52
7, 22280, Note_on_c, 1, 79, 52
7, 22315, Note_on_c, 1, 69, 0
7, 22315, Note_on_c, 1, 79, 0
7, 22360, Note_on_c, 1, 78, 68
7, 22360, Note_on_c, 1, 69, 68
7, 22395, Note_on_c, 1, 78, 0
7, 22395, Note_on_c, 1, 69, 0
7, 22400, Note_on_c, 1, 78, 52
7, 22400, Note_on_c, 1, 69, 52
7, 22435, Note_on_c, 1, 78, 0
7, 22435, Note_on_c, 1, 69, 0
7, 22440, Note_on_c, 1, 78, 52
7, 22440, Note_on_c, 1, 69, 52
7, 22475, Note_on_c, 1, 78, 0
7, 22475, Note_on_c, 1, 69, 0
7, 22480, Note_on_c, 1, 78, 52
7, 22480, Note_on_c, 1, 69, 52
7, 22515, Note_on_c, 1, 78, 0
7, 22515, Note_on_c, 1, 69, 0
7, 22520, Note_on_c, 1, 69, 52
7, 22520, Note_on_c, 1, 78, 52
7, 22555, Note_on_c, 1, 69, 0
7, 22555, Note_on_c, 1, 78, 0
7, 22560, Note_on_c, 1, 77, 52
7, 22560, Note_on_c, 1, 69, 52
7, 22595, Note_on_c, 1, 77, 0
7, 22595, Note_on_c, 1, 69, 0
7, 22600, Note_on_c, 1, 77, 52
7, 22600, Note_on_c, 1, 69, 52
7, 22635, Note_on_c, 1, 77, 0
7, 22635, Note_on_c, 1, 69, 0
7, 22640, Note_on_c, 1, 77, 52
7, 22640, Note_on_c, 1, 69, 52
7, 22675, Note_on_c, 1, 77, 0
7, 22675, Note_on_c, 1, 69, 0
7, 22680, Note_on_c, 1, 69, 52
7, 22680, Note_on_c, 1, 77, 52
7, 22715, Note_on_c, 1, 69, 0
7, 22715, Note_on_c, 1, 77, 0
7, 22720, Note_on_c, 1, 69, 52
7, 22720, Note_on_c, 1, 77, 52
7, 22755, Note_on_c, 1, 69, 0
7, 22755, Note_on_c, 1, 77, 0
7, 22760, Note_on_c, 1, 77, 52
7, 22760, Note_on_c, 1, 69, 52
7, 22795, Note_on_c, 1, 77, 0
7, 22795, Note_on_c, 1, 69, 0
7, 22800, Note_on_c, 1, 77, 52
7, 22800, Note_on_c, 1, 69, 52
7, 22835, Note_on_c, 1, 77, 0
7, 22835, Note_on_c, 1, 69, 0
7, 22840, Note_on_c, 1, 69, 52
7, 22840, Note_on_c, 1, 77, 52
7, 22875, Note_on_c, 1, 69, 0
7, 22875, Note_on_c, 1, 77, 0
7, 22880, Note_on_c, 1, 69, 52
7, 22880, Note_on_c, 1, 77, 52
7, 22915, Note_on_c, 1, 69, 0
7, 22915, Note_on_c, 1, 77, 0
7, 22920, Note_on_c, 1, 69, 52
7, 22920, Note_on_c, 1, 77, 52
7, 22955, Note_on_c, 1, 69, 0
7, 22955, Note_on_c, 1, 77, 0
7, 22960, Note_on_c, 1, 69, 52
7, 22960, Note_on_c, 1, 77, 52
7, 22995, Note_on_c, 1, 69, 0
7, 22995, Note_on_c, 1, 77, 0
7, 23000, Note_on_c, 1, 77, 52
7, 23000, Note_on_c, 1, 69, 52
7, 23035, Note_on_c, 1, 77, 0
7, 23035, Note_on_c, 1, 69, 0
7, 23040, Control_c, 1, 11, 112
7, 23080, Note_on_c, 1, 69, 76
7, 23080, Note_on_c, 1, 76, 76
7, 23115, Note_on_c, 1, 69, 0
7, 23115, Note_on_c, 1, 76, 0
7, 23116, Control_c, 1, 11, 80
7, 23120, Note_on_c, 1, 76, 76
7, 23120, Note_on_c, 1, 69, 76
7, 23155, Note_on_c, 1, 76, 0
7, 23155, Note_on_c, 1, 69, 0
7, 23160, Note_on_c, 1, 69, 76
7, 23160, Note_on_c, 1, 76, 76
7, 23195, Note_on_c, 1, 69, 0
7, 23195, Note_on_c, 1, 76, 0
7, 23200, Note_on_c, 1, 76, 76
7, 23200, Note_on_c, 1, 69, 76
7, 23235, Note_on_c, 1, 76, 0
7, 23235, Note_on_c, 1, 69, 0
7, 23240, Note_on_c, 1, 76, 76
7, 23240, Note_on_c, 1, 69, 76
7, 23275, Note_on_c, 1, 76, 0
7, 23275, Note_on_c, 1, 69, 0
7, 23280, Note_on_c, 1, 69, 76
7, 23280, Note_on_c, 1, 76, 76
7, 23315, Note_on_c, 1, 69, 0
7, 23315, Note_on_c, 1, 76, 0
7, 23320, Note_on_c, 1, 69, 76
7, 23320, Note_on_c, 1, 76, 76
7, 23355, Note_on_c, 1, 69, 0
7, 23355, Note_on_c, 1, 76, 0
7, 23360, Note_on_c, 1, 69, 76
7, 23360, Note_on_c, 1, 76, 76
7, 23395, Note_on_c, 1, 69, 0
7, 23395, Note_on_c, 1, 76, 0
7, 23400, Note_on_c, 1, 76, 76
7, 23400, Note_on_c, 1, 69, 76
7, 23435, Note_on_c, 1, 76, 0
7, 23435, Note_on_c, 1, 69, 0
7, 23440, Note_on_c, 1, 76, 76
7, 23440, Note_on_c, 1, 69, 76
7, 23475, Note_on_c, 1, 76, 0
7, 23475, Note_on_c, 1, 69, 0
7, 23480, Note_on_c, 1, 69, 76
7, 23480, Note_on_c, 1, 76, 76
7, 23515, Note_on_c, 1, 69, 0
7, 23515, Note_on_c, 1, 76, 0
7, 23520, Note_on_c, 1, 76, 76
7, 23520, Note_on_c, 1, 69, 76
7, 23555, Note_on_c, 1, 76, 0
7, 23555, Note_on_c, 1, 69, 0
7, 23560, Note_on_c, 1, 69, 76
7, 23560, Note_on_c, 1, 76, 76
7, 23595, Note_on_c, 1, 69, 0
7, 23595, Note_on_c, 1, 76, 0
7, 23600, Note_on_c, 1, 69, 76
7, 23600, Note_on_c, 1, 76, 76
7, 23635, Note_on_c, 1, 69, 0
7, 23635, Note_on_c, 1, 76, 0
7, 23640, Note_on_c, 1, 76, 76
7, 23640, Note_on_c, 1, 69, 76
7, 23675, Note_on_c, 1, 76, 0
7, 23675, Note_on_c, 1, 69, 0
7, 23680, Note_on_c, 1, 76, 76
7, 23680, Note_on_c, 1, 69, 76
7, 23715, Note_on_c, 1, 76, 0
7, 23715, Note_on_c, 1, 69, 0
7, 23720, Note_on_c, 1, 69, 76
7, 23720, Note_on_c, 1, 76, 76
7, 23755, Note_on_c, 1, 69, 0
7, 23755, Note_on_c, 1, 76, 0
7, 23760, Note_on_c, 1, 73, 76
7, 23760, Note_on_c, 1, 76, 76
7, 23760, Control_c, 1, 11, 80
7, 23820, Control_c, 1, 11, 84
7, 23880, Control_c, 1, 11, 88
7, 23940, Control_c, 1, 11, 92
7, 24000, Control_c, 1, 11, 96
7, 24060, Control_c, 1, 11, 100
7, 24120, Control_c, 1, 11, 104
7, 24180, Control_c, 1, 11, 107
7, 24231, Note_on_c, 1, 76, 0
7, 24239, Note_on_c, 1, 73, 0
7, 24240, Control_c, 1, 11, 111
7, 24240, Note_on_c, 1, 67, 76
7, 24240, Note_on_c, 1, 73, 76
7, 24300, Control_c, 1, 11, 115
7, 24360, Control_c, 1, 11, 119
7, 24420, Control_c, 1, 11, 127
7, 24479, Note_on_c, 1, 67, 0
7, 24479, Note_on_c, 1, 73, 0
7, 24480, Note_on_c, 1, 74, 76
7, 24480, Note_on_c, 1, 66, 76
7, 24719, Note_on_c, 1, 74, 0
7, 24719, Note_on_c, 1, 66, 0
7, 27120, Control_c, 1, 11, 96
7, 27360, Note_on_c, 1, 74, 68
7, 27360, Control_c, 1, 11, 96
7, 27360, Note_on_c, 1, 78, 68
7, 27440, Control_c, 1, 11, 99
7, 27520, Control_c, 1, 11, 101
7, 27600, Control_c, 1, 11, 104
7, 27680, Control_c, 1, 11, 106
7, 27760, Control_c, 1, 11, 109
7, 27840, Control_c, 1, 11, 112
7, 27920, Control_c, 1, 11, 114
7, 28000, Control_c, 1, 11, 117
7, 28080, Control_c, 1, 11, 119
7, 28160, Control_c, 1, 11, 122
7, 28240, Control_c, 1, 11, 124
7, 28319, Note_on_c, 1, 78, 0
7, 28320, Control_c, 1, 11, 96
7, 28320, Note_on_c, 1, 76, 68
7, 28559, Note_on_c, 1, 74, 0
7, 28559, Note_on_c, 1, 76, 0
7, 30960, Control_c, 1, 11, 80
7, 31200, Note_on_c, 1, 76, 76
7, 31919, Note_on_c, 1, 76, 0
7, 31920, Note_on_c, 1, 77, 76
7, 32159, Note_on_c, 1, 77, 0
7, 32160, Note_on_c, 1, 78, 76
7, 32399, Note_on_c, 1, 78, 0
7, 33120, Note_on_c, 1, 78, 76
7, 33824, Note_on_c, 1, 78, 0
7, 33840, Note_on_c, 1, 78, 76
7, 34079, Note_on_c, 1, 78, 0
7, 34080, Control_c, 1, 11, 80
7, 34080, Note_on_c, 1, 81, 76
7, 34319, Note_on_c, 1, 81, 0
7, 34320, Control_c, 1, 11, 84
7, 34320, Note_on_c, 1, 79, 76
7, 34560, Control_c, 1, 11, 88
7, 34784, Note_on_c, 1, 79, 0
7, 34800, Control_c, 1, 11, 92
7, 34800, Note_on_c, 1, 78, 76
7, 35040, Control_c, 1, 11, 96
7, 35264, Note_on_c, 1, 78, 0
7, 35280, Control_c, 1, 11, 100
7, 35280, Note_on_c, 1, 76, 76
7, 35520, Control_c, 1, 11, 104
7, 35759, Note_on_c, 1, 76, 0
7, 35760, Control_c, 1, 11, 107
7, 35760, Note_on_c, 1, 75, 76
7, 36000, Control_c, 1, 11, 111
7, 36224, Note_on_c, 1, 75, 0
7, 36240, Note_on_c, 1, 76, 76
7, 36240, Control_c, 1, 11, 115
7, 36479, Note_on_c, 1, 76, 0
7, 36480, Note_on_c, 1, 79, 76
7, 36480, Control_c, 1, 11, 119
7, 36719, Note_on_c, 1, 79, 0
7, 36720, Note_on_c, 1, 73, 76
7, 36720, Control_c, 1, 11, 123
7, 36944, Note_on_c, 1, 73, 0
7, 36960, Note_on_c, 1, 74, 76
7, 36960, Control_c, 1, 11, 127
7, 37904, Note_on_c, 1, 74, 0
7, 37920, Note_on_c, 1, 74, 84
7, 38864, Note_on_c, 1, 74, 0
7, 38880, Note_on_c, 1, 74, 76
7, 39119, Note_on_c, 1, 74, 0
7, 39360, Note_on_c, 1, 74, 84
7, 40064, Note_on_c, 1, 74, 0
7, 40080, Note_on_c, 1, 74, 76
7, 40304, Note_on_c, 1, 74, 0
7, 40320, Note_on_c, 1, 74, 76
7, 40544, Note_on_c, 1, 74, 0
7, 40560, Note_on_c, 1, 74, 76
7, 40784, Note_on_c, 1, 74, 0
7, 40800, Note_on_c, 1, 74, 76
7, 41039, Note_on_c, 1, 74, 0
7, 42000, Note_on_c, 1, 81, 76
7, 42000, Note_on_c, 1, 79, 76
7, 42179, Note_on_c, 1, 81, 0
7, 42179, Note_on_c, 1, 79, 0
7, 42240, Note_on_c, 1, 79, 76
7, 42240, Note_on_c, 1, 81, 76
7, 42419, Note_on_c, 1, 79, 0
7, 42419, Note_on_c, 1, 81, 0
7, 42480, Note_on_c, 1, 81, 76
7, 42480, Note_on_c, 1, 79, 76
7, 42659, Note_on_c, 1, 81, 0
7, 42659, Note_on_c, 1, 79, 0
7, 42720, Note_on_c, 1, 81, 76
7, 42720, Note_on_c, 1, 78, 76
7, 42959, Note_on_c, 1, 81, 0
7, 42959, Note_on_c, 1, 78, 0
7, 43200, Note_on_c, 1, 74, 84
7, 43904, Note_on_c, 1, 74, 0
7, 43920, Note_on_c, 1, 74, 76
7, 44144, Note_on_c, 1, 74, 0
7, 44160, Note_on_c, 1, 74, 76
7, 44384, Note_on_c, 1, 74, 0
7, 44400, Note_on_c, 1, 74, 76
7, 44624, Note_on_c, 1, 74, 0
7, 44640, Note_on_c, 1, 74, 76
7, 44879, Note_on_c, 1, 74, 0
7, 45840, Note_on_c, 1, 81, 76
7, 45840, Note_on_c, 1, 79, 76
7, 46019, Note_on_c, 1, 81, 0
7, 46019, Note_on_c, 1, 79, 0
7, 46080, Note_on_c, 1, 81, 76
7, 46080, Note_on_c, 1, 79, 76
7, 46259, Note_on_c, 1, 81, 0
7, 46259, Note_on_c, 1, 79, 0
7, 46320, Note_on_c, 1, 79, 76
7, 46320, Note_on_c, 1, 81, 76
7, 46499, Note_on_c, 1, 79, 0
7, 46499, Note_on_c, 1, 81, 0
7, 46560, Note_on_c, 1, 77, 76
7, 46560, Note_on_c, 1, 81, 76
7, 46799, Note_on_c, 1, 77, 0
7, 46799, Note_on_c, 1, 81, 0
7, 47460, Note_on_c, 1, 74, 76
7, 47460, Note_on_c, 1, 77, 76
7, 47511, Note_on_c, 1, 74, 0
7, 47511, Note_on_c, 1, 77, 0
7, 47520, Note_on_c, 1, 74, 84
7, 47520, Note_on_c, 1, 77, 84
7, 48719, Note_on_c, 1, 74, 0
7, 48719, Note_on_c, 1, 77, 0
7, 49380, Note_on_c, 1, 77, 76
7, 49380, Note_on_c, 1, 74, 76
7, 49431, Note_on_c, 1, 77, 0
7, 49431, Note_on_c, 1, 74, 0
7, 49440, Note_on_c, 1, 74, 84
7, 49440, Note_on_c, 1, 77, 84
7, 50399, Note_on_c, 1, 77, 0
7, 50400, Note_on_c, 1, 76, 76
7, 50639, Note_on_c, 1, 74, 0
7, 50639, Note_on_c, 1, 76, 0
7, 56160, Note_on_c, 1, 76, 92
7, 57704, Note_on_c, 1, 76, 0
7, 57720, Note_on_c, 1, 73, 84
7, 57720, Note_on_c, 1, 81, 84
7, 57824, Note_on_c, 1, 73, 0
7, 57840, Note_on_c, 1, 74, 84
7, 57944, Note_on_c, 1, 81, 0
7, 57944, Note_on_c, 1, 74, 0
7, 57960, Note_on_c, 1, 81, 84
7, 57960, Note_on_c, 1, 75, 84
7, 58064, Note_on_c, 1, 81, 0
7, 58064, Note_on_c, 1, 75, 0
7, 58080, Note_on_c, 1, 80, 92
7, 58080, Note_on_c, 1, 76, 92
7, 58439, Note_on_c, 1, 80, 0
7, 58439, Note_on_c, 1, 76, 0
7, 58440, Note_on_c, 1, 75, 84
7, 58440, Note_on_c, 1, 81, 84
7, 58544, Note_on_c, 1, 75, 0
7, 58544, Note_on_c, 1, 81, 0
7, 58560, Note_on_c, 1, 80, 92
7, 58560, Note_on_c, 1, 76, 92
7, 58919, Note_on_c, 1, 80, 0
7, 58919, Note_on_c, 1, 76, 0
7, 58920, Note_on_c, 1, 75, 84
7, 58920, Note_on_c, 1, 81, 84
7, 59024, Note_on_c, 1, 75, 0
7, 59024, Note_on_c, 1, 81, 0
7, 59040, Note_on_c, 1, 80, 84
7, 59040, Note_on_c, 1, 76, 84
7, 59129, Note_on_c, 1, 80, 0
7, 59129, Note_on_c, 1, 76, 0
7, 59160, Note_on_c, 1, 75, 84
7, 59160, Note_on_c, 1, 81, 84
7, 59249, Note_on_c, 1, 75, 0
7, 59249, Note_on_c, 1, 81, 0
7, 59280, Note_on_c, 1, 80, 84
7, 59280, Note_on_c, 1, 76, 84
7, 59369, Note_on_c, 1, 80, 0
7, 59369, Note_on_c, 1, 76, 0
7, 59400, Note_on_c, 1, 81, 84
7, 59400, Note_on_c, 1, 75, 84
7, 59489, Note_on_c, 1, 81, 0
7, 59489, Note_on_c, 1, 75, 0
7, 59520, Note_on_c, 1, 80, 84
7, 59520, Note_on_c, 1, 76, 84
7, 59609, Note_on_c, 1, 80, 0
7, 59609, Note_on_c, 1, 76, 0
7, 59640, Note_on_c, 1, 75, 84
7, 59640, Note_on_c, 1, 81, 84
7, 59729, Note_on_c, 1, 75, 0
7, 59729, Note_on_c, 1, 81, 0
7, 59760, Note_on_c, 1, 76, 84
7, 59760, Note_on_c, 1, 80, 84
7, 59849, Note_on_c, 1, 76, 0
7, 59849, Note_on_c, 1, 80, 0
7, 59880, Note_on_c, 1, 81, 84
7, 59880, Note_on_c, 1, 75, 84
7, 59969, Note_on_c, 1, 81, 0
7, 59969, Note_on_c, 1, 75, 0
7, 60000, Note_on_c, 1, 76, 84
7, 60000, Note_on_c, 1, 80, 84
7, 60224, Note_on_c, 1, 76, 0
7, 60224, Note_on_c, 1, 80, 0
7, 60240, Note_on_c, 1, 76, 92
7, 60704, Note_on_c, 1, 76, 0
7, 60720, Note_on_c, 1, 75, 84
7, 60899, Note_on_c, 1, 75, 0
7, 60960, Note_on_c, 1, 74, 84
7, 61139, Note_on_c, 1, 74, 0
7, 61200, Note_on_c, 1, 73, 84
7, 61379, Note_on_c, 1, 73, 0
7, 61440, Note_on_c, 1, 71, 84
7, 61619, Note_on_c, 1, 71, 0
7, 61680, Note_on_c, 1, 76, 84
7, 61859, Note_on_c, 1, 76, 0
7, 61920, Note_on_c, 1, 69, 52
7, 62099, Note_on_c, 1, 69, 0
7, 65760, Note_on_c, 1, 78, 84
7, 65760, Note_on_c, 1, 73, 84
7, 66224, Note_on_c, 1, 78, 0
7, 66224, Note_on_c, 1, 73, 0
7, 66240, Note_on_c, 1, 78, 84
7, 66240, Note_on_c, 1, 73, 84
7, 66651, Note_on_c, 1, 78, 0
7, 66651, Note_on_c, 1, 73, 0
7, 66660, Note_on_c, 1, 73, 84
7, 66660, Note_on_c, 1, 78, 84
7, 66711, Note_on_c, 1, 73, 0
7, 66711, Note_on_c, 1, 78, 0
7, 66720, Note_on_c, 1, 78, 92
7, 66720, Note_on_c, 1, 73, 92
7, 67424, Note_on_c, 1, 78, 0
7, 67424, Note_on_c, 1, 73, 0
7, 67440, Note_on_c, 1, 78, 84
7, 67440, Note_on_c, 1, 69, 84
7, 67679, Note_on_c, 1, 78, 0
7, 67679, Note_on_c, 1, 69, 0
7, 67920, Note_on_c, 1, 76, 92
7, 67920, Note_on_c, 1, 68, 92
7, 68159, Note_on_c, 1, 76, 0
7, 68159, Note_on_c, 1, 68, 0
7, 68400, Note_on_c, 1, 78, 92
7, 68400, Note_on_c, 1, 69, 92
7, 68639, Note_on_c, 1, 78, 0
7, 68639, Note_on_c, 1, 69, 0
7, 68640, Note_on_c, 1, 68, 84
7, 68640, Note_on_c, 1, 76, 84
7, 68864, Note_on_c, 1, 68, 0
7, 68864, Note_on_c, 1, 76, 0
7, 68872, Control_c, 1, 11, 64
7, 68880, Note_on_c, 1, 68, 84
7, 68880, Note_on_c, 1, 64, 84
7, 68940, Control_c, 1, 11, 67
7, 69000, Control_c, 1, 11, 69
7, 69060, Control_c, 1, 11, 72
7, 69119, Note_on_c, 1, 68, 0
7, 69119, Note_on_c, 1, 64, 0
7, 69120, Note_on_c, 1, 68, 84
7, 69120, Control_c, 1, 11, 75
7, 69120, Note_on_c, 1, 71, 84
7, 69180, Control_c, 1, 11, 77
7, 69240, Control_c, 1, 11, 80
7, 69300, Control_c, 1, 11, 83
7, 69359, Note_on_c, 1, 68, 0
7, 69359, Note_on_c, 1, 71, 0
7, 69360, Note_on_c, 1, 71, 84
7, 69360, Note_on_c, 1, 74, 84
7, 69360, Control_c, 1, 11, 85
7, 69420, Control_c, 1, 11, 88
7, 69480, Control_c, 1, 11, 91
7, 69540, Control_c, 1, 11, 93
7, 69584, Note_on_c, 1, 71, 0
7, 69584, Note_on_c, 1, 74, 0
7, 69592, Control_c, 1, 11, 96
7, 69600, Note_on_c, 1, 73, 68
7, 69600, Note_on_c, 1, 69, 68
7, 69839, Note_on_c, 1, 73, 0
7, 69839, Note_on_c, 1, 69, 0
7, 73200, Control_c, 1, 11, 127
7, 73440, Note_on_c, 1, 73, 84
7, 73440, Note_on_c, 1, 78, 84
7, 73904, Note_on_c, 1, 73, 0
7, 73904, Note_on_c, 1, 78, 0
7, 73920, Note_on_c, 1, 78, 84
7, 73920, Note_on_c, 1, 73, 84
7, 74331, Note_on_c, 1, 78, 0
7, 74331, Note_on_c, 1, 73, 0
7, 74340, Note_on_c, 1, 73, 84
7, 74340, Note_on_c, 1, 78, 84
7, 74391, Note_on_c, 1, 73, 0
7, 74391, Note_on_c, 1, 78, 0
7, 74400, Note_on_c, 1, 73, 92
7, 74400, Note_on_c, 1, 78, 92
7, 75104, Note_on_c, 1, 73, 0
7, 75104, Note_on_c, 1, 78, 0
7, 75120, Note_on_c, 1, 69, 84
7, 75120, Note_on_c, 1, 78, 84
7, 75359, Note_on_c, 1, 69, 0
7, 75359, Note_on_c, 1, 78, 0
7, 75600, Note_on_c, 1, 68, 92
7, 75600, Note_on_c, 1, 76, 92
7, 75839, Note_on_c, 1, 68, 0
7, 75839, Note_on_c, 1, 76, 0
7, 76080, Note_on_c, 1, 78, 92
7, 76080, Note_on_c, 1, 69, 92
7, 76319, Note_on_c, 1, 78, 0
7, 76319, Note_on_c, 1, 69, 0
7, 76320, Note_on_c, 1, 68, 84
7, 76320, Note_on_c, 1, 76, 84
7, 76559, Note_on_c, 1, 68, 0
7, 76559, Note_on_c, 1, 76, 0
7, 78240, Note_on_c, 1, 76, 92
7, 78824, Note_on_c, 1, 76, 0
7, 78840, Note_on_c, 1, 76, 84
7, 78959, Note_on_c, 1, 76, 0
7, 78960, Note_on_c, 1, 74, 84
7, 79079, Note_on_c, 1, 74, 0
7, 79080, Note_on_c, 1, 73, 84
7, 79184, Note_on_c, 1, 73, 0
7, 79200, Note_on_c, 1, 74, 92
7, 79784, Note_on_c, 1, 74, 0
7, 79800, Note_on_c, 1, 74, 84
7, 79919, Note_on_c, 1, 74, 0
7, 79920, Note_on_c, 1, 73, 84
7, 80039, Note_on_c, 1, 73, 0
7, 80040, Note_on_c, 1, 72, 84
7, 80144, Note_on_c, 1, 72, 0
7, 80160, Note_on_c, 1, 73, 92
7, 80249, Note_on_c, 1, 73, 0
7, 80280, Note_on_c, 1, 73, 84
7, 80399, Note_on_c, 1, 73, 0
7, 80400, Note_on_c, 1, 71, 84
7, 80519, Note_on_c, 1, 71, 0
7, 80520, Note_on_c, 1, 70, 84
7, 80624, Note_on_c, 1, 70, 0
7, 80640, Note_on_c, 1, 71, 92
7, 80729, Note_on_c, 1, 71, 0
7, 80760, Note_on_c, 1, 71, 84
7, 80879, Note_on_c, 1, 71, 0
7, 80880, Note_on_c, 1, 69, 84
7, 80999, Note_on_c, 1, 69, 0
7, 81000, Note_on_c, 1, 68, 84
7, 81104, Note_on_c, 1, 68, 0
7, 81120, Note_on_c, 1, 69, 92
7, 81209, Note_on_c, 1, 69, 0
7, 81240, Note_on_c, 1, 76, 84
7, 81359, Note_on_c, 1, 76, 0
7, 81360, Note_on_c, 1, 74, 84
7, 81479, Note_on_c, 1, 74, 0
7, 81480, Note_on_c, 1, 73, 84
7, 81584, Note_on_c, 1, 73, 0
7, 81600, Note_on_c, 1, 74, 92
7, 81689, Note_on_c, 1, 74, 0
7, 81720, Note_on_c, 1, 74, 84
7, 81839, Note_on_c, 1, 74, 0
7, 81840, Note_on_c, 1, 73, 84
7, 81959, Note_on_c, 1, 73, 0
7, 81960, Note_on_c, 1, 72, 84
7, 82064, Note_on_c, 1, 72, 0
7, 82080, Note_on_c, 1, 73, 92
7, 83024, Note_on_c, 1, 73, 0
7, 83040, Note_on_c, 1, 73, 92
7, 83129, Note_on_c, 1, 73, 0
7, 83160, Note_on_c, 1, 69, 84
7, 83160, Note_on_c, 1, 81, 84
7, 83279, Note_on_c, 1, 69, 0
7, 83279, Note_on_c, 1, 81, 0
7, 83280, Note_on_c, 1, 79, 84
7, 83280, Note_on_c, 1, 67, 84
7, 83399, Note_on_c, 1, 79, 0
7, 83399, Note_on_c, 1, 67, 0
7, 83400, Note_on_c, 1, 78, 84
7, 83400, Note_on_c, 1, 66, 84
7, 83504, Note_on_c, 1, 78, 0
7, 83504, Note_on_c, 1, 66, 0
7, 83520, Note_on_c, 1, 79, 92
7, 83520, Note_on_c, 1, 67, 92
7, 83609, Note_on_c, 1, 79, 0
7, 83609, Note_on_c, 1, 67, 0
7, 83640, Note_on_c, 1, 67, 84
7, 83640, Note_on_c, 1, 79, 84
7, 83759, Note_on_c, 1, 67, 0
7, 83759, Note_on_c, 1, 79, 0
7, 83760, Note_on_c, 1, 66, 84
7, 83760, Note_on_c, 1, 78, 84
7, 83879, Note_on_c, 1, 66, 0
7, 83879, Note_on_c, 1, 78, 0
7, 83880, Note_on_c, 1, 77, 84
7, 83880, Note_on_c, 1, 65, 84
7, 83984, Note_on_c, 1, 77, 0
7, 83984, Note_on_c, 1, 65, 0
7, 84000, Note_on_c, 1, 66, 84
7, 84000, Note_on_c, 1, 78, 84
7, 84179, Note_on_c, 1, 66, 0
7, 84179, Note_on_c, 1, 78, 0
7, 84420, Note_on_c, 1, 78, 84
7, 84420, Note_on_c, 1, 86, 84
7, 84471, Note_on_c, 1, 78, 0
7, 84471, Note_on_c, 1, 86, 0
7, 84480, Note_on_c, 1, 78, 84
7, 84480, Note_on_c, 1, 86, 84
7, 84959, Note_on_c, 1, 78, 0
7, 84959, Note_on_c, 1, 86, 0
7, 85380, Note_on_c, 1, 86, 84
7, 85380, Note_on_c, 1, 78, 84
7, 85431, Note_on_c, 1, 86, 0
7, 85431, Note_on_c, 1, 78, 0
7, 85440, Note_on_c, 1, 78, 84
7, 85440, Note_on_c, 1, 86, 84
7, 85919, Note_on_c, 1, 78, 0
7, 85919, Note_on_c, 1, 86, 0
7, 86160, Note_on_c, 1, 76, 84
7, 86160, Note_on_c, 1, 86, 84
7, 86399, Note_on_c, 1, 76, 0
7, 86399, Note_on_c, 1, 86, 0
7, 86640, Note_on_c, 1, 85, 84
7, 86640, Note_on_c, 1, 76, 84
7, 86879, Note_on_c, 1, 85, 0
7, 86879, Note_on_c, 1, 76, 0
7, 87120, Note_on_c, 1, 74, 84
7, 87120, Note_on_c, 1, 83, 84
7, 87359, Note_on_c, 1, 74, 0
7, 87359, Note_on_c, 1, 83, 0
7, 87600, Note_on_c, 1, 71, 84
7, 87600, Note_on_c, 1, 80, 84
7, 87839, Note_on_c, 1, 71, 0
7, 87839, Note_on_c, 1, 80, 0
7, 88260, Note_on_c, 1, 81, 84
7, 88260, Note_on_c, 1, 74, 84
7, 88311, Note_on_c, 1, 81, 0
7, 88311, Note_on_c, 1, 74, 0
7, 88320, Note_on_c, 1, 81, 84
7, 88320, Note_on_c, 1, 74, 84
7, 88799, Note_on_c, 1, 81, 0
7, 88799, Note_on_c, 1, 74, 0
7, 89220, Note_on_c, 1, 77, 84
7, 89220, Note_on_c, 1, 74, 84
7, 89271, Note_on_c, 1, 77, 0
7, 89271, Note_on_c, 1, 74, 0
7, 89280, Note_on_c, 1, 74, 84
7, 89280, Note_on_c, 1, 77, 84
7, 89759, Note_on_c, 1, 74, 0
7, 89759, Note_on_c, 1, 77, 0
7, 97440, Note_on_c, 1, 81, 84
7, 97440, Note_on_c, 1, 73, 84
7, 98384, Note_on_c, 1, 81, 0
7, 98384, Note_on_c, 1, 73, 0
7, 98400, Note_on_c, 1, 71, 84
7, 98400, Note_on_c, 1, 80, 84
7, 99104, Note_on_c, 1, 71, 0
7, 99104, Note_on_c, 1, 80, 0
7, 99120, Note_on_c, 1, 80, 84
7, 99120, Note_on_c, 1, 71, 84
7, 99344, Note_on_c, 1, 80, 0
7, 99344, Note_on_c, 1, 71, 0
7, 99360, Note_on_c, 1, 73, 84
7, 99360, Note_on_c, 1, 81, 84
7, 99599, Note_on_c, 1, 73, 0
7, 99599, Note_on_c, 1, 81, 0
7, 101280, Note_on_c, 1, 74, 84
7, 101984, Note_on_c, 1, 74, 0
7, 102000, Note_on_c, 1, 74, 84
7, 102179, Note_on_c, 1, 74, 0
7, 102240, Note_on_c, 1, 69, 84
7, 102419, Note_on_c, 1, 69, 0
7, 102480, Note_on_c, 1, 77, 84
7, 102659, Note_on_c, 1, 77, 0
7, 102720, Note_on_c, 1, 76, 84
7, 102899, Note_on_c, 1, 76, 0
7, 102960, Note_on_c, 1, 74, 84
7, 103139, Note_on_c, 1, 74, 0
7, 103200, Note_on_c, 1, 69, 84
7, 103439, Note_on_c, 1, 69, 0
7, 105120, Note_on_c, 1, 74, 84
7, 105824, Note_on_c, 1, 74, 0
7, 105840, Note_on_c, 1, 74, 84
7, 106019, Note_on_c, 1, 74, 0
7, 106080, Note_on_c, 1, 69, 84
7, 106259, Note_on_c, 1, 69, 0
7, 106320, Note_on_c, 1, 77, 84
7, 106499, Note_on_c, 1, 77, 0
7, 106560, Note_on_c, 1, 76, 84
7, 106739, Note_on_c, 1, 76, 0
7, 106800, Note_on_c, 1, 74, 84
7, 106979, Note_on_c, 1, 74, 0
7, 108240, Note_on_c, 1, 74, 52
7, 108240, Note_on_c, 1, 69, 52
7, 108479, Note_on_c, 1, 74, 0
7, 108479, Note_on_c, 1, 69, 0
7, 108480, Note_on_c, 1, 73, 52
7, 108480, Note_on_c, 1, 76, 52
7, 108719, Note_on_c, 1, 73, 0
7, 108719, Note_on_c, 1, 76, 0
7, 108720, Note_on_c, 1, 74, 76
7, 108720, Note_on_c, 1, 77, 76
7, 108944, Note_on_c, 1, 74, 0
7, 108944, Note_on_c, 1, 77, 0
7, 108960, Note_on_c, 1, 73, 52
7, 108960, Note_on_c, 1, 76, 52
7, 109199, Note_on_c, 1, 73, 0
7, 109199, Note_on_c, 1, 76, 0
7, 110160, Note_on_c, 1, 74, 52
7, 110160, Note_on_c, 1, 69, 52
7, 110399, Note_on_c, 1, 74, 0
7, 110399, Note_on_c, 1, 69, 0
7, 110400, Note_on_c, 1, 76, 52
7, 110400, Note_on_c, 1, 73, 52
7, 110639, Note_on_c, 1, 76, 0
7, 110639, Note_on_c, 1, 73, 0
7, 110640, Note_on_c, 1, 77, 76
7, 110640, Note_on_c, 1, 74, 76
7, 110864, Note_on_c, 1, 77, 0
7, 110864, Note_on_c, 1, 74, 0
7, 110880, Note_on_c, 1, 73, 52
7, 110880, Note_on_c, 1, 76, 52
7, 111104, Note_on_c, 1, 73, 0
7, 111104, Note_on_c, 1, 76, 0
7, 111120, Note_on_c, 1, 74, 76
7, 111120, Note_on_c, 1, 77, 76
7, 111344, Note_on_c, 1, 74, 0
7, 111344, Note_on_c, 1, 77, 0
7, 111360, Note_on_c, 1, 73, 52
7, 111360, Note_on_c, 1, 76, 52
7, 111584, Note_on_c, 1, 73, 0
7, 111584, Note_on_c, 1, 76, 0
7, 111600, Note_on_c, 1, 74, 76
7, 111600, Note_on_c, 1, 77, 76
7, 111824, Note_on_c, 1, 74, 0
7, 111824, Note_on_c, 1, 77, 0
7, 111840, Note_on_c, 1, 76, 52
7, 111840, Note_on_c, 1, 73, 52
7, 112064, Note_on_c, 1, 76, 0
7, 112064, Note_on_c, 1, 73, 0
7, 112080, Note_on_c, 1, 74, 76
7, 112080, Note_on_c, 1, 77, 76
7, 112304, Note_on_c, 1, 74, 0
7, 112304, Note_on_c, 1, 77, 0
7, 112320, Note_on_c, 1, 76, 52
7, 112320, Note_on_c, 1, 73, 52
7, 112544, Note_on_c, 1, 76, 0
7, 112544, Note_on_c, 1, 73, 0
7, 112560, Note_on_c, 1, 74, 76
7, 112560, Note_on_c, 1, 77, 76
7, 112784, Note_on_c, 1, 74, 0
7, 112784, Note_on_c, 1, 77, 0
7, 112800, Note_on_c, 1, 73, 84
7, 112800, Note_on_c, 1, 76, 84
7, 113039, Note_on_c, 1, 73, 0
7, 113039, Note_on_c, 1, 76, 0
7, 113760, Note_on_c, 1, 76, 84
7, 114224, Note_on_c, 1, 76, 0
7, 114240, Note_on_c, 1, 73, 84
7, 114704, Note_on_c, 1, 73, 0
7, 114720, Note_on_c, 1, 69, 84
7, 115664, Note_on_c, 1, 69, 0
7, 115680, Note_on_c, 1, 73, 84
7, 116144, Note_on_c, 1, 73, 0
7, 116160, Note_on_c, 1, 76, 84
7, 116624, Note_on_c, 1, 76, 0
7, 116640, Note_on_c, 1, 69, 84
7, 116640, Note_on_c, 1, 81, 84
7, 116879, Note_on_c, 1, 69, 0
7, 116879, Note_on_c, 1, 81, 0
7, 117120, Note_on_c, 1, 73, 76
7, 117120, Note_on_c, 1, 76, 76
7, 117359, Note_on_c, 1, 73, 0
7, 117359, Note_on_c, 1, 76, 0
7, 118080, Note_on_c, 1, 73, 76
7, 118080, Note_on_c, 1, 76, 76
7, 118319, Note_on_c, 1, 73, 0
7, 118319, Note_on_c, 1, 76, 0
7, 118560, Note_on_c, 1, 71, 52
7, 118560, Note_on_c, 1, 76, 52
7, 119279, Note_on_c, 1, 71, 0
7, 119279, Note_on_c, 1, 76, 0
7, 119280, Note_on_c, 1, 69, 52
7, 119280, Note_on_c, 1, 74, 52
7, 119519, Note_on_c, 1, 69, 0
7, 119519, Note_on_c, 1, 74, 0
7, 119520, Note_on_c, 1, 73, 52
7, 119520, Note_on_c, 1, 67, 52
7, 119759, Note_on_c, 1, 73, 0
7, 119759, Note_on_c, 1, 67, 0
7, 119760, Note_on_c, 1, 71, 52
7, 119760, Note_on_c, 1, 66, 52
7, 119999, Note_on_c, 1, 71, 0
7, 119999, Note_on_c, 1, 66, 0
7, 120000, Note_on_c, 1, 69, 52
7, 120000, Note_on_c, 1, 64, 52
7, 120239, Note_on_c, 1, 69, 0
7, 120239, Note_on_c, 1, 64, 0
7, 120240, Note_on_c, 1, 76, 52
7, 120240, Note_on_c, 1, 79, 52
7, 120464, Note_on_c, 1, 76, 0
7, 120464, Note_on_c, 1, 79, 0
7, 120480, Note_on_c, 1, 78, 52
7, 120480, Note_on_c, 1, 74, 52
7, 120719, Note_on_c, 1, 78, 0
7, 120719, Note_on_c, 1, 74, 0
7, 123120, Control_c, 1, 11, 96
7, 123360, Note_on_c, 1, 78, 68
7, 123360, Note_on_c, 1, 74, 68
7, 123360, Control_c, 1, 11, 96
7, 123440, Control_c, 1, 11, 99
7, 123520, Control_c, 1, 11, 101
7, 123600, Control_c, 1, 11, 104
7, 123680, Control_c, 1, 11, 106
7, 123760, Control_c, 1, 11, 109
7, 123840, Control_c, 1, 11, 112
7, 123920, Control_c, 1, 11, 114
7, 124000, Control_c, 1, 11, 117
7, 124080, Control_c, 1, 11, 119
7, 124160, Control_c, 1, 11, 122
7, 124240, Control_c, 1, 11, 124
7, 124319, Note_on_c, 1, 78, 0
7, 124320, Control_c, 1, 11, 96
7, 124320, Note_on_c, 1, 76, 68
7, 124559, Note_on_c, 1, 74, 0
7, 124559, Note_on_c, 1, 76, 0
7, 126960, Control_c, 1, 11, 80
7, 127200, Note_on_c, 1, 76, 76
7, 127919, Note_on_c, 1, 76, 0
7, 127920, Note_on_c, 1, 77, 76
7, 128159, Note_on_c, 1, 77, 0
7, 128160, Note_on_c, 1, 78, 76
7, 128399, Note_on_c, 1, 78, 0
7, 129120, Note_on_c, 1, 78, 76
7, 129824, Note_on_c, 1, 78, 0
7, 129840, Note_on_c, 1, 78, 76
7, 130079, Note_on_c, 1, 78, 0
7, 130080, Note_on_c, 1, 81, 76
7, 130080, Control_c, 1, 11, 80
7, 130319, Note_on_c, 1, 81, 0
7, 130320, Note_on_c, 1, 79, 76
7, 130320, Control_c, 1, 11, 84
7, 130560, Control_c, 1, 11, 88
7, 130784, Note_on_c, 1, 79, 0
7, 130800, Control_c, 1, 11, 92
7, 130800, Note_on_c, 1, 78, 76
7, 131040, Control_c, 1, 11, 96
7, 131264, Note_on_c, 1, 78, 0
7, 131280, Note_on_c, 1, 76, 76
7, 131280, Control_c, 1, 11, 100
7, 131520, Control_c, 1, 11, 104
7, 131759, Note_on_c, 1, 76, 0
7, 131760, Note_on_c, 1, 75, 76
7, 131760, Control_c, 1, 11, 107
7, 132000, Control_c, 1, 11, 111
7, 132224, Note_on_c, 1, 75, 0
7, 132240, Control_c, 1, 11, 115
7, 132240, Note_on_c, 1, 76, 76
7, 132479, Note_on_c, 1, 76, 0
7, 132480, Control_c, 1, 11, 119
7, 132480, Note_on_c, 1, 79, 76
7, 132719, Note_on_c, 1, 79, 0
7, 132720, Control_c, 1, 11, 123
7, 132720, Note_on_c, 1, 73, 76
7, 132944, Note_on_c, 1, 73, 0
7, 132960, Control_c, 1, 11, 127
7, 132960, Note_on_c, 1, 74, 76
7, 133904, Note_on_c, 1, 74, 0
7, 133920, Note_on_c, 1, 74, 84
7, 134864, Note_on_c, 1, 74, 0
7, 134880, Note_on_c, 1, 74, 76
7, 135119, Note_on_c, 1, 74, 0
7, 135360, Note_on_c, 1, 74, 84
7, 136064, Note_on_c, 1, 74, 0
7, 136080, Note_on_c, 1, 74, 76
7, 136304, Note_on_c, 1, 74, 0
7, 136320, Note_on_c, 1, 74, 76
7, 136544, Note_on_c, 1, 74, 0
7, 136560, Note_on_c, 1, 74, 76
7, 136784, Note_on_c, 1, 74, 0
7, 136800, Note_on_c, 1, 74, 76
7, 137039, Note_on_c, 1, 74, 0
7, 138000, Note_on_c, 1, 81, 76
7, 138000, Note_on_c, 1, 79, 76
7, 138179, Note_on_c, 1, 81, 0
7, 138179, Note_on_c, 1, 79, 0
7, 138240, Note_on_c, 1, 79, 76
7, 138240, Note_on_c, 1, 81, 76
7, 138419, Note_on_c, 1, 79, 0
7, 138419, Note_on_c, 1, 81, 0
7, 138480, Note_on_c, 1, 81, 76
7, 138480, Note_on_c, 1, 79, 76
7, 138659, Note_on_c, 1, 81, 0
7, 138659, Note_on_c, 1, 79, 0
7, 138720, Note_on_c, 1, 78, 76
7, 138720, Note_on_c, 1, 81, 76
7, 138959, Note_on_c, 1, 78, 0
7, 138959, Note_on_c, 1, 81, 0
7, 139200, Note_on_c, 1, 74, 84
7, 139904, Note_on_c, 1, 74, 0
7, 139920, Note_on_c, 1, 74, 76
7, 140144, Note_on_c, 1, 74, 0
7, 140160, Note_on_c, 1, 74, 76
7, 140384, Note_on_c, 1, 74, 0
7, 140400, Note_on_c, 1, 74, 76
7, 140624, Note_on_c, 1, 74, 0
7, 140640, Note_on_c, 1, 74, 76
7, 140879, Note_on_c, 1, 74, 0
7, 141840, Note_on_c, 1, 79, 76
7, 141840, Note_on_c, 1, 81, 76
7, 142019, Note_on_c, 1, 79, 0
7, 142019, Note_on_c, 1, 81, 0
7, 142080, Note_on_c, 1, 79, 76
7, 142080, Note_on_c, 1, 81, 76
7, 142259, Note_on_c, 1, 79, 0
7, 142259, Note_on_c, 1, 81, 0
7, 142320, Note_on_c, 1, 79, 76
7, 142320, Note_on_c, 1, 81, 76
7, 142499, Note_on_c, 1, 79, 0
7, 142499, Note_on_c, 1, 81, 0
7, 142560, Note_on_c, 1, 77, 76
7, 142560, Note_on_c, 1, 81, 76
7, 142799, Note_on_c, 1, 77, 0
7, 142799, Note_on_c, 1, 81, 0
7, 143460, Note_on_c, 1, 74, 76
7, 143460, Note_on_c, 1, 77, 76
7, 143511, Note_on_c, 1, 74, 0
7, 143511, Note_on_c, 1, 77, 0
7, 143520, Note_on_c, 1, 74, 84
7, 143520, Note_on_c, 1, 77, 84
7, 144719, Note_on_c, 1, 74, 0
7, 144719, Note_on_c, 1, 77, 0
7, 145380, Note_on_c, 1, 74, 76
7, 145380, Note_on_c, 1, 77, 76
7, 145431, Note_on_c, 1, 74, 0
7, 145431, Note_on_c, 1, 77, 0
7, 145440, Note_on_c, 1, 77, 84
7, 145440, Note_on_c, 1, 74, 84
7, 146399, Note_on_c, 1, 77, 0
7, 146400, Note_on_c, 1, 76, 76
7, 146639, Note_on_c, 1, 74, 0
7, 146639, Note_on_c, 1, 76, 0
7, 152160, Note_on_c, 1, 76, 92
7, 153704, Note_on_c, 1, 76, 0
7, 153720, Note_on_c, 1, 81, 84
7, 153720, Note_on_c, 1, 73, 84
7, 153824, Note_on_c, 1, 73, 0
7, 153840, Note_on_c, 1, 74, 84
7, 153944, Note_on_c, 1, 81, 0
7, 153944, Note_on_c, 1, 74, 0
7, 153960, Note_on_c, 1, 75, 84
7, 153960, Note_on_c, 1, 81, 84
7, 154064, Note_on_c, 1, 75, 0
7, 154064, Note_on_c, 1, 81, 0
7, 154080, Note_on_c, 1, 80, 92
7, 154080, Note_on_c, 1, 76, 92
7, 154439, Note_on_c, 1, 80, 0
7, 154439, Note_on_c, 1, 76, 0
7, 154440, Note_on_c, 1, 81, 84
7, 154440, Note_on_c, 1, 75, 84
7, 154544, Note_on_c, 1, 81, 0
7, 154544, Note_on_c, 1, 75, 0
7, 154560, Note_on_c, 1, 80, 92
7, 154560, Note_on_c, 1, 76, 92
7, 154919, Note_on_c, 1, 80, 0
7, 154919, Note_on_c, 1, 76, 0
7, 154920, Note_on_c, 1, 81, 84
7, 154920, Note_on_c, 1, 75, 84
7, 155024, Note_on_c, 1, 81, 0
7, 155024, Note_on_c, 1, 75, 0
7, 155040, Note_on_c, 1, 76, 84
7, 155040, Note_on_c, 1, 80, 84
7, 155129, Note_on_c, 1, 76, 0
7, 155129, Note_on_c, 1, 80, 0
7, 155160, Note_on_c, 1, 75, 84
7, 155160, Note_on_c, 1, 81, 84
7, 155249, Note_on_c, 1, 75, 0
7, 155249, Note_on_c, 1, 81, 0
7, 155280, Note_on_c, 1, 80, 84
7, 155280, Note_on_c, 1, 76, 84
7, 155369, Note_on_c, 1, 80, 0
7, 155369, Note_on_c, 1, 76, 0
7, 155400, Note_on_c, 1, 75, 84
7, 155400, Note_on_c, 1, 81, 84
7, 155489, Note_on_c, 1, 75, 0
7, 155489, Note_on_c, 1, 81, 0
7, 155520, Note_on_c, 1, 80, 84
7, 155520, Note_on_c, 1, 76, 84
7, 155609, Note_on_c, 1, 80, 0
7, 155609, Note_on_c, 1, 76, 0
7, 155640, Note_on_c, 1, 81, 84
7, 155640, Note_on_c, 1, 75, 84
7, 155729, Note_on_c, 1, 81, 0
7, 155729, Note_on_c, 1, 75, 0
7, 155760, Note_on_c, 1, 76, 84
7, 155760, Note_on_c, 1, 80, 84
7, 155849, Note_on_c, 1, 76, 0
7, 155849, Note_on_c, 1, 80, 0
7, 155880, Note_on_c, 1, 81, 84
7, 155880, Note_on_c, 1, 75, 84
7, 155969, Note_on_c, 1, 81, 0
7, 155969, Note_on_c, 1, 75, 0
7, 156000, Note_on_c, 1, 80, 84
7, 156000, Note_on_c, 1, 76, 84
7, 156224, Note_on_c, 1, 80, 0
7, 156224, Note_on_c, 1, 76, 0
7, 156240, Note_on_c, 1, 76, 92
7, 156704, Note_on_c, 1, 76, 0
7, 156720, Note_on_c, 1, 75, 84
7, 156899, Note_on_c, 1, 75, 0
7, 156960, Note_on_c, 1, 74, 84
7, 157139, Note_on_c, 1, 74, 0
7, 157200, Note_on_c, 1, 73, 84
7, 157379, Note_on_c, 1, 73, 0
7, 157440, Note_on_c, 1, 71, 84
7, 157619, Note_on_c, 1, 71, 0
7, 157680, Note_on_c, 1, 76, 84
7, 157859, Note_on_c, 1, 76, 0
7, 157920, Note_on_c, 1, 69, 52
7, 158099, Note_on_c, 1, 69, 0
7, 161760, Note_on_c, 1, 78, 84
7, 161760, Note_on_c, 1, 73, 84
7, 162224, Note_on_c, 1, 78, 0
7, 162224, Note_on_c, 1, 73, 0
7, 162240, Note_on_c, 1, 73, 84
7, 162240, Note_on_c, 1, 78, 84
7, 162651, Note_on_c, 1, 73, 0
7, 162651, Note_on_c, 1, 78, 0
7, 162660, Note_on_c, 1, 78, 84
7, 162660, Note_on_c, 1, 73, 84
7, 162711, Note_on_c, 1, 78, 0
7, 162711, Note_on_c, 1, 73, 0
7, 162720, Note_on_c, 1, 78, 92
7, 162720, Note_on_c, 1, 73, 92
7, 163424, Note_on_c, 1, 78, 0
7, 163424, Note_on_c, 1, 73, 0
7, 163440, Note_on_c, 1, 78, 84
7, 163440, Note_on_c, 1, 69, 84
7, 163679, Note_on_c, 1, 78, 0
7, 163679, Note_on_c, 1, 69, 0
7, 163920, Note_on_c, 1, 76, 92
7, 163920, Note_on_c, 1, 68, 92
7, 164159, Note_on_c, 1, 76, 0
7, 164159, Note_on_c, 1, 68, 0
7, 164400, Note_on_c, 1, 69, 92
7, 164400, Note_on_c, 1, 78, 92
7, 164639, Note_on_c, 1, 69, 0
7, 164639, Note_on_c, 1, 78, 0
7, 164640, Note_on_c, 1, 76, 84
7, 164640, Note_on_c, 1, 68, 84
7, 164864, Note_on_c, 1, 76, 0
7, 164864, Note_on_c, 1, 68, 0
7, 164872, Control_c, 1, 11, 64
7, 164880, Note_on_c, 1, 64, 84
7, 164880, Note_on_c, 1, 68, 84
7, 164940, Control_c, 1, 11, 67
7, 165000, Control_c, 1, 11, 69
7, 165060, Control_c, 1, 11, 72
7, 165119, Note_on_c, 1, 64, 0
7, 165119, Note_on_c, 1, 68, 0
7, 165120, Note_on_c, 1, 68, 84
7, 165120, Control_c, 1, 11, 75
7, 165120, Note_on_c, 1, 71, 84
7, 165180, Control_c, 1, 11, 77
7, 165240, Control_c, 1, 11, 80
7, 165300, Control_c, 1, 11, 83
7, 165359, Note_on_c, 1, 68, 0
7, 165359, Note_on_c, 1, 71, 0
7, 165360, Note_on_c, 1, 74, 84
7, 165360, Control_c, 1, 11, 85
7, 165360, Note_on_c, 1, 71, 84
7, 165420, Control_c, 1, 11, 88
7, 165480, Control_c, 1, 11, 91
7, 165540, Control_c, 1, 11, 93
7, 165584, Note_on_c, 1, 74, 0
7, 165584, Note_on_c, 1, 71, 0
7, 165592, Control_c, 1, 11, 96
7, 165600, Note_on_c, 1, 73, 68
7, 165600, Note_on_c, 1, 69, 68
7, 165839, Note_on_c, 1, 73, 0
7, 165839, Note_on_c, 1, 69, 0
7, 169200, Control_c, 1, 11, 127
7, 169440, Note_on_c, 1, 78, 84
7, 169440, Note_on_c, 1, 73, 84
7, 169904, Note_on_c, 1, 78, 0
7, 169904, Note_on_c, 1, 73, 0
7, 169920, Note_on_c, 1, 73, 84
7, 169920, Note_on_c, 1, 78, 84
7, 170331, Note_on_c, 1, 73, 0
7, 170331, Note_on_c, 1, 78, 0
7, 170340, Note_on_c, 1, 78, 84
7, 170340, Note_on_c, 1, 73, 84
7, 170391, Note_on_c, 1, 78, 0
7, 170391, Note_on_c, 1, 73, 0
7, 170400, Note_on_c, 1, 73, 92
7, 170400, Note_on_c, 1, 78, 92
7, 171104, Note_on_c, 1, 73, 0
7, 171104, Note_on_c, 1, 78, 0
7, 171120, Note_on_c, 1, 69, 84
7, 171120, Note_on_c, 1, 78, 84
7, 171359, Note_on_c, 1, 69, 0
7, 171359, Note_on_c, 1, 78, 0
7, 171600, Note_on_c, 1, 76, 92
7, 171600, Note_on_c, 1, 68, 92
7, 171839, Note_on_c, 1, 76, 0
7, 171839, Note_on_c, 1, 68, 0
7, 172080, Note_on_c, 1, 78, 92
7, 172080, Note_on_c, 1, 69, 92
7, 172319, Note_on_c, 1, 78, 0
7, 172319, Note_on_c, 1, 69, 0
7, 172320, Note_on_c, 1, 68, 84
7, 172320, Note_on_c, 1, 76, 84
7, 172559, Note_on_c, 1, 68, 0
7, 172559, Note_on_c, 1, 76, 0
7, 174240, Note_on_c, 1, 76, 92
7, 174824, Note_on_c, 1, 76, 0
7, 174840, Note_on_c, 1, 76, 84
7, 174959, Note_on_c, 1, 76, 0
7, 174960, Note_on_c, 1, 74, 84
7, 175079, Note_on_c, 1, 74, 0
7, 175080, Note_on_c, 1, 73, 84
7, 175184, Note_on_c, 1, 73, 0
7, 175200, Note_on_c, 1, 74, 92
7, 175784, Note_on_c, 1, 74, 0
7, 175800, Note_on_c, 1, 74, 84
7, 175919, Note_on_c, 1, 74, 0
7, 175920, Note_on_c, 1, 73, 84
7, 176039, Note_on_c, 1, 73, 0
7, 176040, Note_on_c, 1, 72, 84
7, 176144, Note_on_c, 1, 72, 0
7, 176160, Note_on_c, 1, 73, 92
7, 176249, Note_on_c, 1, 73, 0
7, 176280, Note_on_c, 1, 73, 84
7, 176399, Note_on_c, 1, 73, 0
7, 176400, Note_on_c, 1, 71, 84
7, 176519, Note_on_c, 1, 71, 0
7, 176520, Note_on_c, 1, 70, 84
7, 176624, Note_on_c, 1, 70, 0
7, 176640, Note_on_c, 1, 71, 92
7, 176729, Note_on_c, 1, 71, 0
7, 176760, Note_on_c, 1, 71, 84
7, 176879, Note_on_c, 1, 71, 0
7, 176880, Note_on_c, 1, 69, 84
7, 176999, Note_on_c, 1, 69, 0
7, 177000, Note_on_c, 1, 68, 84
7, 177104, Note_on_c, 1, 68, 0
7, 177120, Note_on_c, 1, 69, 92
7, 177209, Note_on_c, 1, 69, 0
7, 177240, Note_on_c, 1, 76, 84
7, 177359, Note_on_c, 1, 76, 0
7, 177360, Note_on_c, 1, 74, 84
7, 177479, Note_on_c, 1, 74, 0
7, 177480, Note_on_c, 1, 73, 84
7, 177584, Note_on_c, 1, 73, 0
7, 177600, Note_on_c, 1, 74, 92
7, 177689, Note_on_c, 1, 74, 0
7, 177720, Note_on_c, 1, 74, 84
7, 177839, Note_on_c, 1, 74, 0
7, 177840, Note_on_c, 1, 73, 84
7, 177959, Note_on_c, 1, 73, 0
7, 177960, Note_on_c, 1, 72, 84
7, 178064, Note_on_c, 1, 72, 0
7, 178080, Note_on_c, 1, 73, 92
7, 179024, Note_on_c, 1, 73, 0
7, 179040, Note_on_c, 1, 73, 92
7, 179129, Note_on_c, 1, 73, 0
7, 179160, Note_on_c, 1, 69, 84
7, 179160, Note_on_c, 1, 81, 84
7, 179279, Note_on_c, 1, 69, 0
7, 179279, Note_on_c, 1, 81, 0
7, 179280, Note_on_c, 1, 79, 84
7, 179280, Note_on_c, 1, 67, 84
7, 179399, Note_on_c, 1, 79, 0
7, 179399, Note_on_c, 1, 67, 0
7, 179400, Note_on_c, 1, 66, 84
7, 179400, Note_on_c, 1, 78, 84
7, 179504, Note_on_c, 1, 66, 0
7, 179504, Note_on_c, 1, 78, 0
7, 179520, Note_on_c, 1, 67, 92
7, 179520, Note_on_c, 1, 79, 92
7, 179609, Note_on_c, 1, 67, 0
7, 179609, Note_on_c, 1, 79, 0
7, 179640, Note_on_c, 1, 67, 84
7, 179640, Note_on_c, 1, 79, 84
7, 179759, Note_on_c, 1, 67, 0
7, 179759, Note_on_c, 1, 79, 0
7, 179760, Note_on_c, 1, 66, 84
7, 179760, Note_on_c, 1, 78, 84
7, 179879, Note_on_c, 1, 66, 0
7, 179879, Note_on_c, 1, 78, 0
7, 179880, Note_on_c, 1, 65, 84
7, 179880, Note_on_c, 1, 77, 84
7, 179984, Note_on_c, 1, 65, 0
7, 179984, Note_on_c, 1, 77, 0
7, 180000, Note_on_c, 1, 66, 84
7, 180000, Note_on_c, 1, 78, 84
7, 180179, Note_on_c, 1, 66, 0
7, 180179, Note_on_c, 1, 78, 0
7, 180420, Note_on_c, 1, 86, 84
7, 180420, Note_on_c, 1, 78, 84
7, 180471, Note_on_c, 1, 86, 0
7, 180471, Note_on_c, 1, 78, 0
7, 180480, Note_on_c, 1, 78, 84
7, 180480, Note_on_c, 1, 86, 84
7, 180959, Note_on_c, 1, 78, 0
7, 180959, Note_on_c, 1, 86, 0
7, 181380, Note_on_c, 1, 86, 84
7, 181380, Note_on_c, 1, 78, 84
7, 181431, Note_on_c, 1, 86, 0
7, 181431, Note_on_c, 1, 78, 0
7, 181440, Note_on_c, 1, 86, 84
7, 181440, Note_on_c, 1, 78, 84
7, 181919, Note_on_c, 1, 86, 0
7, 181919, Note_on_c, 1, 78, 0
7, 182160, Note_on_c, 1, 76, 84
7, 182160, Note_on_c, 1, 86, 84
7, 182399, Note_on_c, 1, 76, 0
7, 182399, Note_on_c, 1, 86, 0
7, 182640, Note_on_c, 1, 85, 84
7, 182640, Note_on_c, 1, 76, 84
7, 182879, Note_on_c, 1, 85, 0
7, 182879, Note_on_c, 1, 76, 0
7, 183120, Note_on_c, 1, 74, 84
7, 183120, Note_on_c, 1, 83, 84
7, 183359, Note_on_c, 1, 74, 0
7, 183359, Note_on_c, 1, 83, 0
7, 183600, Note_on_c, 1, 71, 84
7, 183600, Note_on_c, 1, 80, 84
7, 183839, Note_on_c, 1, 71, 0
7, 183839, Note_on_c, 1, 80, 0
7, 184260, Note_on_c, 1, 81, 84
7, 184260, Note_on_c, 1, 74, 84
7, 184311, Note_on_c, 1, 81, 0
7, 184311, Note_on_c, 1, 74, 0
7, 184320, Note_on_c, 1, 74, 84
7, 184320, Note_on_c, 1, 81, 84
7, 184799, Note_on_c, 1, 74, 0
7, 184799, Note_on_c, 1, 81, 0
7, 185220, Note_on_c, 1, 77, 84
7, 185220, Note_on_c, 1, 74, 84
7, 185271, Note_on_c, 1, 77, 0
7, 185271, Note_on_c, 1, 74, 0
7, 185280, Note_on_c, 1, 77, 84
7, 185280, Note_on_c, 1, 74, 84
7, 185759, Note_on_c, 1, 77, 0
7, 185759, Note_on_c, 1, 74, 0
7, 193440, Note_on_c, 1, 81, 84
7, 193440, Note_on_c, 1, 73, 84
7, 194384, Note_on_c, 1, 81, 0
7, 194384, Note_on_c, 1, 73, 0
7, 194400, Note_on_c, 1, 71, 84
7, 194400, Note_on_c, 1, 80, 84
7, 195104, Note_on_c, 1, 71, 0
7, 195104, Note_on_c, 1, 80, 0
7, 195120, Note_on_c, 1, 80, 84
7, 195120, Note_on_c, 1, 71, 84
7, 195344, Note_on_c, 1, 80, 0
7, 195344, Note_on_c, 1, 71, 0
7, 195360, Note_on_c, 1, 81, 84
7, 195360, Note_on_c, 1, 73, 84
7, 195599, Note_on_c, 1, 81, 0
7, 195599, Note_on_c, 1, 73, 0
7, 197280, Note_on_c, 1, 74, 84
7, 197984, Note_on_c, 1, 74, 0
7, 198000, Note_on_c, 1, 74, 84
7, 198179, Note_on_c, 1, 74, 0
7, 198240, Note_on_c, 1, 69, 84
7, 198419, Note_on_c, 1, 69, 0
7, 198480, Note_on_c, 1, 77, 84
7, 198659, Note_on_c, 1, 77, 0
7, 198720, Note_on_c, 1, 76, 84
7, 198899, Note_on_c, 1, 76, 0
7, 198960, Note_on_c, 1, 74, 84
7, 199139, Note_on_c, 1, 74, 0
7, 199200, Note_on_c, 1, 69, 84
7, 199439, Note_on_c, 1, 69, 0
7, 201120, Note_on_c, 1, 74, 84
7, 201824, Note_on_c, 1, 74, 0
7, 201840, Note_on_c, 1, 74, 84
7, 202019, Note_on_c, 1, 74, 0
7, 202080, Note_on_c, 1, 69, 84
7, 202259, Note_on_c, 1, 69, 0
7, 202320, Note_on_c, 1, 77, 84
7, 202499, Note_on_c, 1, 77, 0
7, 202560, Note_on_c, 1, 76, 84
7, 202739, Note_on_c, 1, 76, 0
7, 202800, Note_on_c, 1, 74, 84
7, 202979, Note_on_c, 1, 74, 0
7, 204240, Note_on_c, 1, 69, 52
7, 204240, Note_on_c, 1, 74, 52
7, 204479, Note_on_c, 1, 69, 0
7, 204479, Note_on_c, 1, 74, 0
7, 204480, Note_on_c, 1, 73, 52
7, 204480, Note_on_c, 1, 76, 52
7, 204719, Note_on_c, 1, 73, 0
7, 204719, Note_on_c, 1, 76, 0
7, 204720, Note_on_c, 1, 74, 76
7, 204720, Note_on_c, 1, 77, 76
7, 204944, Note_on_c, 1, 74, 0
7, 204944, Note_on_c, 1, 77, 0
7, 204960, Note_on_c, 1, 73, 52
7, 204960, Note_on_c, 1, 76, 52
7, 205199, Note_on_c, 1, 73, 0
7, 205199, Note_on_c, 1, 76, 0
7, 206160, Note_on_c, 1, 69, 52
7, 206160, Note_on_c, 1, 74, 52
7, 206399, Note_on_c, 1, 69, 0
7, 206399, Note_on_c, 1, 74, 0
7, 206400, Note_on_c, 1, 73, 52
7, 206400, Note_on_c, 1, 76, 52
7, 206639, Note_on_c, 1, 73, 0
7, 206639, Note_on_c, 1, 76, 0
7, 206640, Note_on_c, 1, 77, 76
7, 206640, Note_on_c, 1, 74, 76
7, 206864, Note_on_c, 1, 77, 0
7, 206864, Note_on_c, 1, 74, 0
7, 206880, Note_on_c, 1, 76, 52
7, 206880, Note_on_c, 1, 73, 52
7, 207104, Note_on_c, 1, 76, 0
7, 207104, Note_on_c, 1, 73, 0
7, 207120, Note_on_c, 1, 77, 76
7, 207120, Note_on_c, 1, 74, 76
7, 207344, Note_on_c, 1, 77, 0
7, 207344, Note_on_c, 1, 74, 0
7, 207360, Note_on_c, 1, 73, 52
7, 207360, Note_on_c, 1, 76, 52
7, 207584, Note_on_c, 1, 73, 0
7, 207584, Note_on_c, 1, 76, 0
7, 207600, Note_on_c, 1, 77, 76
7, 207600, Note_on_c, 1, 74, 76
7, 207824, Note_on_c, 1, 77, 0
7, 207824, Note_on_c, 1, 74, 0
7, 207840, Note_on_c, 1, 73, 52
7, 207840, Note_on_c, 1, 76, 52
7, 208064, Note_on_c, 1, 73, 0
7, 208064, Note_on_c, 1, 76, 0
7, 208080, Note_on_c, 1, 74, 76
7, 208080, Note_on_c, 1, 77, 76
7, 208304, Note_on_c, 1, 74, 0
7, 208304, Note_on_c, 1, 77, 0
7, 208320, Note_on_c, 1, 73, 52
7, 208320, Note_on_c, 1, 76, 52
7, 208544, Note_on_c, 1, 73, 0
7, 208544, Note_on_c, 1, 76, 0
7, 208560, Note_on_c, 1, 74, 76
7, 208560, Note_on_c, 1, 77, 76
7, 208784, Note_on_c, 1, 74, 0
7, 208784, Note_on_c, 1, 77, 0
7, 208800, Note_on_c, 1, 76, 84
7, 208800, Note_on_c, 1, 73, 84
7, 209039, Note_on_c, 1, 76, 0
7, 209039, Note_on_c, 1, 73, 0
7, 209760, Note_on_c, 1, 76, 84
7, 210224, Note_on_c, 1, 76, 0
7, 210240, Note_on_c, 1, 73, 84
7, 210704, Note_on_c, 1, 73, 0
7, 210720, Note_on_c, 1, 69, 84
7, 211664, Note_on_c, 1, 69, 0
7, 211680, Note_on_c, 1, 73, 84
7, 212144, Note_on_c, 1, 73, 0
7, 212160, Note_on_c, 1, 76, 84
7, 212624, Note_on_c, 1, 76, 0
7, 212640, Note_on_c, 1, 69, 84
7, 212640, Note_on_c, 1, 81, 84
7, 212879, Note_on_c, 1, 69, 0
7, 212879, Note_on_c, 1, 81, 0
7, 213120, Note_on_c, 1, 73, 76
7, 213120, Note_on_c, 1, 76, 76
7, 213359, Note_on_c, 1, 73, 0
7, 213359, Note_on_c, 1, 76, 0
7, 214080, Note_on_c, 1, 73, 76
7, 214080, Note_on_c, 1, 76, 76
7, 214319, Note_on_c, 1, 73, 0
7, 214319, Note_on_c, 1, 76, 0
7, 214560, Note_on_c, 1, 71, 52
7, 214560, Note_on_c, 1, 76, 52
7, 215279, Note_on_c, 1, 71, 0
7, 215279, Note_on_c, 1, 76, 0
7, 215280, Note_on_c, 1, 69, 52
7, 215280, Note_on_c, 1, 74, 52
7, 215519, Note_on_c, 1, 69, 0
7, 215519, Note_on_c, 1, 74, 0
7, 215520, Note_on_c, 1, 67, 52
7, 215520, Note_on_c, 1, 73, 52
7, 215759, Note_on_c, 1, 67, 0
7, 215759, Note_on_c, 1, 73, 0
7, 215760, Note_on_c, 1, 71, 52
7, 215760, Note_on_c, 1, 66, 52
7, 215999, Note_on_c, 1, 71, 0
7, 215999, Note_on_c, 1, 66, 0
7, 216000, Note_on_c, 1, 69, 52
7, 216000, Note_on_c, 1, 64, 52
7, 216239, Note_on_c, 1, 69, 0
7, 216239, Note_on_c, 1, 64, 0
7, 216240, Note_on_c, 1, 76, 52
7, 216240, Note_on_c, 1, 79, 52
7, 216479, Note_on_c, 1, 76, 0
7, 216479, Note_on_c, 1, 79, 0
7, 216960, Note_on_c, 1, 76, 76
7, 216960, Note_on_c, 1, 73, 76
7, 217199, Note_on_c, 1, 76, 0
7, 217199, Note_on_c, 1, 73, 0
7, 217920, Note_on_c, 1, 73, 76
7, 217920, Note_on_c, 1, 76, 76
7, 218159, Note_on_c, 1, 73, 0
7, 218159, Note_on_c, 1, 76, 0
7, 218400, Note_on_c, 1, 70, 52
7, 218400, Note_on_c, 1, 76, 52
7, 219119, Note_on_c, 1, 70, 0
7, 219119, Note_on_c, 1, 76, 0
7, 219120, Note_on_c, 1, 69, 52
7, 219120, Note_on_c, 1, 74, 52
7, 219359, Note_on_c, 1, 69, 0
7, 219359, Note_on_c, 1, 74, 0
7, 219360, Note_on_c, 1, 73, 52
7, 219360, Note_on_c, 1, 67, 52
7, 219599, Note_on_c, 1, 73, 0
7, 219599, Note_on_c, 1, 67, 0
7, 219600, Note_on_c, 1, 70, 52
7, 219600, Note_on_c, 1, 65, 52
7, 219839, Note_on_c, 1, 70, 0
7, 219839, Note_on_c, 1, 65, 0
7, 219840, Note_on_c, 1, 69, 52
7, 219840, Note_on_c, 1, 64, 52
7, 220079, Note_on_c, 1, 69, 0
7, 220079, Note_on_c, 1, 64, 0
7, 220080, Note_on_c, 1, 76, 52
7, 220080, Note_on_c, 1, 79, 52
7, 220304, Note_on_c, 1, 76, 0
7, 220304, Note_on_c, 1, 79, 0
7, 220320, Note_on_c, 1, 77, 52
7, 220320, Note_on_c, 1, 74, 52
7, 220559, Note_on_c, 1, 77, 0
7, 220559, Note_on_c, 1, 74, 0
7, 222960, Control_c, 1, 11, 80
7, 223200, Note_on_c, 1, 74, 76
7, 224144, Note_on_c, 1, 74, 0
7, 224160, Note_on_c, 1, 75, 76
7, 224160, Control_c, 1, 11, 80
7, 224320, Control_c, 1, 11, 82
7, 224480, Control_c, 1, 11, 84
7, 224640, Control_c, 1, 11, 86
7, 224800, Control_c, 1, 11, 88
7, 224960, Control_c, 1, 11, 90
7, 225120, Control_c, 1, 11, 92
7, 225280, Control_c, 1, 11, 94
7, 225440, Control_c, 1, 11, 96
7, 225600, Control_c, 1, 11, 98
7, 225760, Control_c, 1, 11, 100
7, 225920, Control_c, 1, 11, 102
7, 226064, Note_on_c, 1, 75, 0
7, 226080, Control_c, 1, 11, 104
7, 226080, Note_on_c, 1, 78, 76
7, 226240, Control_c, 1, 11, 105
7, 226400, Control_c, 1, 11, 107
7, 226560, Control_c, 1, 11, 109
7, 226720, Control_c, 1, 11, 111
7, 226880, Control_c, 1, 11, 113
7, 227040, Control_c, 1, 11, 115
7, 227200, Control_c, 1, 11, 117
7, 227360, Control_c, 1, 11, 119
7, 227520, Control_c, 1, 11, 121
7, 227680, Control_c, 1, 11, 123
7, 227840, Control_c, 1, 11, 125
7, 227984, Note_on_c, 1, 78, 0
7, 228000, Note_on_c, 1, 79, 76
7, 228000, Control_c, 1, 11, 127
7, 228239, Note_on_c, 1, 79, 0
7, 228960, Note_on_c, 1, 79, 84
7, 228960, Note_on_c, 1, 67, 84
7, 229904, Note_on_c, 1, 79, 0
7, 229904, Note_on_c, 1, 67, 0
7, 229920, Note_on_c, 1, 72, 76
7, 230159, Note_on_c, 1, 72, 0
7, 230880, Note_on_c, 1, 72, 84
7, 231824, Note_on_c, 1, 72, 0
7, 231840, Note_on_c, 1, 77, 76
7, 232079, Note_on_c, 1, 77, 0
7, 232800, Note_on_c, 1, 77, 84
7, 233744, Note_on_c, 1, 77, 0
7, 233760, Note_on_c, 1, 70, 76
7, 233999, Note_on_c, 1, 70, 0
7, 234720, Note_on_c, 1, 70, 84
7, 235304, Note_on_c, 1, 70, 0
7, 235320, Note_on_c, 1, 72, 76
7, 235409, Note_on_c, 1, 72, 0
7, 235440, Note_on_c, 1, 69, 76
7, 235529, Note_on_c, 1, 69, 0
7, 235560, Note_on_c, 1, 70, 76
7, 235649, Note_on_c, 1, 70, 0
7, 235680, Note_on_c, 1, 67, 76
7, 235919, Note_on_c, 1, 67, 0
7, 236640, Note_on_c, 1, 69, 76
7, 236640, Note_on_c, 1, 81, 76
7, 236759, Note_on_c, 1, 69, 0
7, 236759, Note_on_c, 1, 81, 0
7, 236760, Note_on_c, 1, 70, 76
7, 236760, Note_on_c, 1, 82, 76
7, 236864, Note_on_c, 1, 70, 0
7, 236864, Note_on_c, 1, 82, 0
7, 236880, Note_on_c, 1, 79, 76
7, 236880, Note_on_c, 1, 67, 76
7, 236969, Note_on_c, 1, 79, 0
7, 236969, Note_on_c, 1, 67, 0
7, 237000, Note_on_c, 1, 69, 76
7, 237000, Note_on_c, 1, 81, 76
7, 237089, Note_on_c, 1, 69, 0
7, 237089, Note_on_c, 1, 81, 0
7, 237120, Note_on_c, 1, 65, 76
7, 237120, Note_on_c, 1, 77, 76
7, 237209, Note_on_c, 1, 65, 0
7, 237209, Note_on_c, 1, 77, 0
7, 237240, Note_on_c, 1, 79, 76
7, 237240, Note_on_c, 1, 67, 76
7, 237329, Note_on_c, 1, 79, 0
7, 237329, Note_on_c, 1, 67, 0
7, 237360, Note_on_c, 1, 76, 76
7, 237360, Note_on_c, 1, 64, 76
7, 237449, Note_on_c, 1, 76, 0
7, 237449, Note_on_c, 1, 64, 0
7, 237480, Note_on_c, 1, 77, 76
7, 237480, Note_on_c, 1, 65, 76
7, 237569, Note_on_c, 1, 77, 0
7, 237569, Note_on_c, 1, 65, 0
7, 237600, Note_on_c, 1, 74, 76
7, 237600, Note_on_c, 1, 62, 76
7, 237839, Note_on_c, 1, 74, 0
7, 237839, Note_on_c, 1, 62, 0
7, 238560, Note_on_c, 1, 67, 76
7, 238560, Note_on_c, 1, 79, 76
7, 238679, Note_on_c, 1, 67, 0
7, 238679, Note_on_c, 1, 79, 0
7, 238680, Note_on_c, 1, 69, 76
7, 238680, Note_on_c, 1, 81, 76
7, 238784, Note_on_c, 1, 69, 0
7, 238784, Note_on_c, 1, 81, 0
7, 238800, Note_on_c, 1, 65, 76
7, 238800, Note_on_c, 1, 77, 76
7, 238889, Note_on_c, 1, 65, 0
7, 238889, Note_on_c, 1, 77, 0
7, 238920, Note_on_c, 1, 79, 76
7, 238920, Note_on_c, 1, 67, 76
7, 239009, Note_on_c, 1, 79, 0
7, 239009, Note_on_c, 1, 67, 0
7, 239040, Note_on_c, 1, 76, 76
7, 239040, Note_on_c, 1, 64, 76
7, 239129, Note_on_c, 1, 76, 0
7, 239129, Note_on_c, 1, 64, 0
7, 239160, Note_on_c, 1, 77, 76
7, 239160, Note_on_c, 1, 65, 76
7, 239249, Note_on_c, 1, 77, 0
7, 239249, Note_on_c, 1, 65, 0
7, 239280, Note_on_c, 1, 74, 76
7, 239280, Note_on_c, 1, 62, 76
7, 239369, Note_on_c, 1, 74, 0
7, 239369, Note_on_c, 1, 62, 0
7, 239400, Note_on_c, 1, 64, 76
7, 239400, Note_on_c, 1, 76, 76
7, 239489, Note_on_c, 1, 64, 0
7, 239489, Note_on_c, 1, 76, 0
7, 239520, Note_on_c, 1, 60, 84
7, 239520, Note_on_c, 1, 72, 84
7, 239744, Note_on_c, 1, 60, 0
7, 239744, Note_on_c, 1, 72, 0
7, 239760, Note_on_c, 1, 64, 84
7, 239760, Note_on_c, 1, 76, 84
7, 239819, Note_on_c, 1, 76, 0
7, 239820, Note_on_c, 1, 75, 84
7, 239879, Note_on_c, 1, 75, 0
7, 239880, Note_on_c, 1, 76, 84
7, 239939, Note_on_c, 1, 76, 0
7, 239940, Note_on_c, 1, 78, 84
7, 239991, Note_on_c, 1, 78, 0
7, 240000, Note_on_c, 1, 79, 84
7, 240179, Note_on_c, 1, 79, 0
7, 240239, Note_on_c, 1, 64, 0
7, 241680, Note_on_c, 1, 76, 84
7, 241739, Note_on_c, 1, 76, 0
7, 241740, Note_on_c, 1, 75, 84
7, 241799, Note_on_c, 1, 75, 0
7, 241800, Note_on_c, 1, 76, 84
7, 241859, Note_on_c, 1, 76, 0
7, 241860, Note_on_c, 1, 78, 84
7, 241911, Note_on_c, 1, 78, 0
7, 241920, Note_on_c, 1, 79, 84
7, 242099, Note_on_c, 1, 79, 0
7, 243600, Note_on_c, 1, 76, 84
7, 243659, Note_on_c, 1, 76, 0
7, 243660, Note_on_c, 1, 75, 84
7, 243719, Note_on_c, 1, 75, 0
7, 243720, Note_on_c, 1, 76, 84
7, 243779, Note_on_c, 1, 76, 0
7, 243780, Note_on_c, 1, 78, 84
7, 243831, Note_on_c, 1, 78, 0
7, 243840, Note_on_c, 1, 79, 84
7, 244019, Note_on_c, 1, 79, 0
7, 244560, Note_on_c, 1, 76, 84
7, 244619, Note_on_c, 1, 76, 0
7, 244620, Note_on_c, 1, 75, 84
7, 244679, Note_on_c, 1, 75, 0
7, 244680, Note_on_c, 1, 76, 84
7, 244739, Note_on_c, 1, 76, 0
7, 244740, Note_on_c, 1, 78, 84
7, 244791, Note_on_c, 1, 78, 0
7, 244800, Note_on_c, 1, 79, 84
7, 244979, Note_on_c, 1, 79, 0
7, 245520, Note_on_c, 1, 74, 84
7, 245579, Note_on_c, 1, 74, 0
7, 245580, Note_on_c, 1, 73, 84
7, 245639, Note_on_c, 1, 73, 0
7, 245640, Note_on_c, 1, 74, 84
7, 245699, Note_on_c, 1, 74, 0
7, 245700, Note_on_c, 1, 76, 84
7, 245751, Note_on_c, 1, 76, 0
7, 245760, Note_on_c, 1, 77, 84
7, 245939, Note_on_c, 1, 77, 0
7, 246480, Note_on_c, 1, 74, 84
7, 246539, Note_on_c, 1, 74, 0
7, 246540, Note_on_c, 1, 73, 84
7, 246599, Note_on_c, 1, 73, 0
7, 246600, Note_on_c, 1, 74, 84
7, 246659, Note_on_c, 1, 74, 0
7, 246660, Note_on_c, 1, 76, 84
7, 246711, Note_on_c, 1, 76, 0
7, 246720, Note_on_c, 1, 77, 84
7, 246899, Note_on_c, 1, 77, 0
7, 247200, Note_on_c, 1, 77, 84
7, 247200, Note_on_c, 1, 74, 84
7, 248144, Note_on_c, 1, 77, 0
7, 248160, Note_on_c, 1, 76, 84
7, 248624, Note_on_c, 1, 74, 0
7, 248640, Note_on_c, 1, 72, 84
7, 249104, Note_on_c, 1, 76, 0
7, 249120, Note_on_c, 1, 74, 84
7, 249584, Note_on_c, 1, 72, 0
7, 249600, Note_on_c, 1, 71, 84
7, 250064, Note_on_c, 1, 74, 0
7, 250080, Note_on_c, 1, 72, 84
7, 250544, Note_on_c, 1, 71, 0
7, 250560, Note_on_c, 1, 69, 84
7, 251039, Note_on_c, 1, 72, 0
7, 251039, Note_on_c, 1, 69, 0
7, 251520, Note_on_c, 1, 72, 92
7, 251520, Note_on_c, 1, 74, 92
7, 252224, Note_on_c, 1, 72, 0
7, 252224, Note_on_c, 1, 74, 0
7, 252240, Note_on_c, 1, 72, 84
7, 252240, Note_on_c, 1, 74, 84
7, 252464, Note_on_c, 1, 72, 0
7, 252464, Note_on_c, 1, 74, 0
7, 252480, Note_on_c, 1, 72, 84
7, 252480, Note_on_c, 1, 74, 84
7, 252704, Note_on_c, 1, 72, 0
7, 252704, Note_on_c, 1, 74, 0
7, 252720, Note_on_c, 1, 72, 84
7, 252720, Note_on_c, 1, 74, 84
7, 252944, Note_on_c, 1, 72, 0
7, 252944, Note_on_c, 1, 74, 0
7, 252960, Note_on_c, 1, 72, 84
7, 252960, Note_on_c, 1, 74, 84
7, 253199, Note_on_c, 1, 72, 0
7, 253199, Note_on_c, 1, 74, 0
7, 253440, Note_on_c, 1, 74, 92
7, 253440, Note_on_c, 1, 72, 92
7, 254144, Note_on_c, 1, 72, 0
7, 254159, Note_on_c, 1, 74, 0
7, 254160, Note_on_c, 1, 72, 84
7, 254160, Note_on_c, 1, 74, 84
7, 254384, Note_on_c, 1, 72, 0
7, 254384, Note_on_c, 1, 74, 0
7, 254400, Note_on_c, 1, 72, 84
7, 254400, Note_on_c, 1, 74, 84
7, 254624, Note_on_c, 1, 72, 0
7, 254624, Note_on_c, 1, 74, 0
7, 254640, Note_on_c, 1, 72, 84
7, 254640, Note_on_c, 1, 74, 84
7, 254864, Note_on_c, 1, 72, 0
7, 254864, Note_on_c, 1, 74, 0
7, 254880, Note_on_c, 1, 72, 84
7, 254880, Note_on_c, 1, 74, 84
7, 255119, Note_on_c, 1, 72, 0
7, 255119, Note_on_c, 1, 74, 0
7, 255360, Note_on_c, 1, 72, 92
7, 255360, Note_on_c, 1, 74, 92
7, 256064, Note_on_c, 1, 72, 0
7, 256064, Note_on_c, 1, 74, 0
7, 256080, Note_on_c, 1, 72, 84
7, 256080, Note_on_c, 1, 74, 84
7, 256304, Note_on_c, 1, 72, 0
7, 256304, Note_on_c, 1, 74, 0
7, 256320, Note_on_c, 1, 72, 84
7, 256320, Note_on_c, 1, 74, 84
7, 256544, Note_on_c, 1, 72, 0
7, 256544, Note_on_c, 1, 74, 0
7, 256560, Note_on_c, 1, 74, 84
7, 256560, Note_on_c, 1, 72, 84
7, 256784, Note_on_c, 1, 74, 0
7, 256784, Note_on_c, 1, 72, 0
7, 256800, Note_on_c, 1, 74, 84
7, 256800, Note_on_c, 1, 72, 84
7, 257039, Note_on_c, 1, 74, 0
7, 257039, Note_on_c, 1, 72, 0
7, 257280, Note_on_c, 1, 74, 92
7, 257280, Note_on_c, 1, 72, 92
7, 257984, Note_on_c, 1, 74, 0
7, 257984, Note_on_c, 1, 72, 0
7, 258000, Note_on_c, 1, 72, 84
7, 258000, Note_on_c, 1, 74, 84
7, 258224, Note_on_c, 1, 72, 0
7, 258224, Note_on_c, 1, 74, 0
7, 258240, Note_on_c, 1, 72, 84
7, 258240, Note_on_c, 1, 74, 84
7, 258464, Note_on_c, 1, 72, 0
7, 258464, Note_on_c, 1, 74, 0
7, 258480, Note_on_c, 1, 72, 84
7, 258480, Note_on_c, 1, 74, 84
7, 258704, Note_on_c, 1, 72, 0
7, 258704, Note_on_c, 1, 74, 0
7, 258720, Note_on_c, 1, 74, 84
7, 258720, Control_c, 1, 11, 64
7, 258720, Control_c, 1, 11, 64
7, 258720, Note_on_c, 1, 72, 84
7, 258880, Control_c, 1, 11, 67
7, 258959, Note_on_c, 1, 72, 0
7, 259040, Control_c, 1, 11, 69
7, 259200, Control_c, 1, 11, 72
7, 259360, Control_c, 1, 11, 75
7, 259439, Note_on_c, 1, 74, 0
7, 259440, Note_on_c, 1, 75, 84
7, 259520, Control_c, 1, 11, 77
7, 259664, Note_on_c, 1, 75, 0
7, 259680, Note_on_c, 1, 74, 84
7, 259680, Control_c, 1, 11, 80
7, 259840, Control_c, 1, 11, 83
7, 260000, Control_c, 1, 11, 85
7, 260160, Control_c, 1, 11, 88
7, 260320, Control_c, 1, 11, 91
7, 260399, Note_on_c, 1, 74, 0
7, 260400, Note_on_c, 1, 75, 84
7, 260480, Control_c, 1, 11, 93
7, 260624, Note_on_c, 1, 75, 0
7, 260640, Control_c, 1, 11, 96
7, 260640, Note_on_c, 1, 74, 84
7, 260879, Note_on_c, 1, 74, 0
7, 266160, Control_c, 1, 11, 127
7, 266400, Note_on_c, 1, 79, 52
7, 266579, Note_on_c, 1, 79, 0
7, 266640, Note_on_c, 1, 79, 52
7, 266819, Note_on_c, 1, 79, 0
7, 266880, Note_on_c, 1, 79, 52
7, 267059, Note_on_c, 1, 79, 0
7, 267120, Note_on_c, 1, 78, 52
7, 267299, Note_on_c, 1, 78, 0
7, 267360, Note_on_c, 1, 79, 52
7, 267599, Note_on_c, 1, 79, 0
7, 268320, Note_on_c, 1, 79, 52
7, 268499, Note_on_c, 1, 79, 0
7, 268560, Note_on_c, 1, 79, 52
7, 268739, Note_on_c, 1, 79, 0
7, 268800, Note_on_c, 1, 79, 52
7, 268979, Note_on_c, 1, 79, 0
7, 269040, Note_on_c, 1, 79, 52
7, 269219, Note_on_c, 1, 79, 0
7, 269280, Note_on_c, 1, 79, 52
7, 269519, Note_on_c, 1, 79, 0
7, 270240, Note_on_c, 1, 81, 52
7, 270419, Note_on_c, 1, 81, 0
7, 270480, Note_on_c, 1, 81, 52
7, 270659, Note_on_c, 1, 81, 0
7, 270720, Note_on_c, 1, 81, 52
7, 270899, Note_on_c, 1, 81, 0
7, 270960, Note_on_c, 1, 80, 52
7, 271139, Note_on_c, 1, 80, 0
7, 271200, Note_on_c, 1, 81, 52
7, 271439, Note_on_c, 1, 81, 0
7, 272160, Note_on_c, 1, 81, 52
7, 272339, Note_on_c, 1, 81, 0
7, 272400, Note_on_c, 1, 81, 52
7, 272579, Note_on_c, 1, 81, 0
7, 272640, Note_on_c, 1, 81, 52
7, 272819, Note_on_c, 1, 81, 0
7, 272880, Note_on_c, 1, 81, 52
7, 273059, Note_on_c, 1, 81, 0
7, 273120, Note_on_c, 1, 81, 52
7, 273359, Note_on_c, 1, 81, 0
7, 274080, Note_on_c, 1, 83, 52
7, 274259, Note_on_c, 1, 83, 0
7, 274320, Note_on_c, 1, 83, 52
7, 274499, Note_on_c, 1, 83, 0
7, 274560, Note_on_c, 1, 83, 52
7, 274739, Note_on_c, 1, 83, 0
7, 274800, Note_on_c, 1, 82, 52
7, 274979, Note_on_c, 1, 82, 0
7, 275040, Note_on_c, 1, 83, 52
7, 275279, Note_on_c, 1, 83, 0
7, 276960, Note_on_c, 1, 78, 84
7, 276960, Note_on_c, 1, 69, 84
7, 277904, Note_on_c, 1, 78, 0
7, 277904, Note_on_c, 1, 69, 0
7, 277920, Note_on_c, 1, 68, 84
7, 277920, Note_on_c, 1, 77, 84
7, 278099, Note_on_c, 1, 68, 0
7, 278099, Note_on_c, 1, 77, 0
7, 278160, Note_on_c, 1, 73, 92
7, 280064, Note_on_c, 1, 73, 0
7, 280080, Note_on_c, 1, 73, 92
7, 281984, Note_on_c, 1, 73, 0
7, 282000, Note_on_c, 1, 73, 92
7, 283904, Note_on_c, 1, 73, 0
7, 283920, Note_on_c, 1, 73, 92
7, 285839, Note_on_c, 1, 73, 0
7, 286500, Note_on_c, 1, 68, 84
7, 286500, Note_on_c, 1, 77, 84
7, 286544, Note_on_c, 1, 68, 0
7, 286544, Note_on_c, 1, 77, 0
7, 286560, Note_on_c, 1, 69, 84
7, 286560, Note_on_c, 1, 78, 84
7, 286739, Note_on_c, 1, 69, 0
7, 286739, Note_on_c, 1, 78, 0
7, 287460, Note_on_c, 1, 69, 84
7, 287460, Note_on_c, 1, 78, 84
7, 287504, Note_on_c, 1, 69, 0
7, 287504, Note_on_c, 1, 78, 0
7, 287520, Note_on_c, 1, 68, 84
7, 287520, Note_on_c, 1, 77, 84
7, 287699, Note_on_c, 1, 68, 0
7, 287699, Note_on_c, 1, 77, 0
7, 288420, Note_on_c, 1, 77, 84
7, 288420, Note_on_c, 1, 68, 84
7, 288464, Note_on_c, 1, 77, 0
7, 288464, Note_on_c, 1, 68, 0
7, 288480, Note_on_c, 1, 69, 84
7, 288480, Note_on_c, 1, 78, 84
7, 288659, Note_on_c, 1, 69, 0
7, 288659, Note_on_c, 1, 78, 0
7, 289380, Note_on_c, 1, 69, 84
7, 289380, Note_on_c, 1, 78, 84
7, 289424, Note_on_c, 1, 69, 0
7, 289424, Note_on_c, 1, 78, 0
7, 289440, Note_on_c, 1, 77, 84
7, 289440, Note_on_c, 1, 68, 84
7, 289619, Note_on_c, 1, 77, 0
7, 289619, Note_on_c, 1, 68, 0
7, 290340, Note_on_c, 1, 73, 84
7, 290391, Note_on_c, 1, 73, 0
7, 290400, Note_on_c, 1, 73, 84
7, 290639, Note_on_c, 1, 73, 0
7, 290820, Note_on_c, 1, 73, 84
7, 290871, Note_on_c, 1, 73, 0
7, 290880, Note_on_c, 1, 73, 84
7, 291119, Note_on_c, 1, 73, 0
7, 291300, Note_on_c, 1, 73, 84
7, 291351, Note_on_c, 1, 73, 0
7, 291360, Note_on_c, 1, 73, 52
7, 291599, Note_on_c, 1, 73, 0
7, 294240, Note_on_c, 1, 67, 84
7, 294240, Note_on_c, 1, 73, 84
7, 294240, Control_c, 1, 11, 127
7, 294320, Control_c, 1, 11, 123
7, 294400, Control_c, 1, 11, 119
7, 294480, Control_c, 1, 11, 115
7, 294560, Control_c, 1, 11, 111
7, 294640, Control_c, 1, 11, 107
7, 294720, Control_c, 1, 11, 104
7, 294800, Control_c, 1, 11, 100
7, 294880, Control_c, 1, 11, 96
7, 294960, Control_c, 1, 11, 92
7, 295040, Control_c, 1, 11, 88
7, 295120, Control_c, 1, 11, 84
7, 295199, Note_on_c, 1, 67, 0
7, 295199, Note_on_c, 1, 73, 0
7, 295200, Note_on_c, 1, 66, 76
7, 295200, Note_on_c, 1, 74, 76
7, 295200, Control_c, 1, 11, 80
7, 295439, Note_on_c, 1, 66, 0
7, 295439, Note_on_c, 1, 74, 0
7, 297840, Control_c, 1, 11, 96
7, 298080, Control_c, 1, 11, 96
7, 298080, Note_on_c, 1, 78, 68
7, 298080, Note_on_c, 1, 74, 68
7, 298160, Control_c, 1, 11, 99
7, 298240, Control_c, 1, 11, 101
7, 298320, Control_c, 1, 11, 104
7, 298400, Control_c, 1, 11, 106
7, 298480, Control_c, 1, 11, 109
7, 298560, Control_c, 1, 11, 112
7, 298640, Control_c, 1, 11, 114
7, 298720, Control_c, 1, 11, 117
7, 298800, Control_c, 1, 11, 119
7, 298880, Control_c, 1, 11, 122
7, 298960, Control_c, 1, 11, 124
7, 299038, Control_c, 1, 11, 96
7, 299039, Note_on_c, 1, 78, 0
7, 299040, Note_on_c, 1, 76, 68
7, 299279, Note_on_c, 1, 74, 0
7, 299279, Note_on_c, 1, 76, 0
7, 301920, Note_on_c, 1, 76, 68
7, 302639, Note_on_c, 1, 76, 0
7, 302640, Note_on_c, 1, 77, 68
7, 302864, Note_on_c, 1, 77, 0
7, 302880, Note_on_c, 1, 78, 68
7, 303059, Note_on_c, 1, 78, 0
7, 303840, Note_on_c, 1, 78, 68
7, 304544, Note_on_c, 1, 78, 0
7, 304560, Note_on_c, 1, 78, 68
7, 304799, Note_on_c, 1, 78, 0
7, 304800, Control_c, 1, 11, 96
7, 304800, Note_on_c, 1, 81, 68
7, 305039, Note_on_c, 1, 81, 0
7, 305040, Control_c, 1, 11, 99
7, 305040, Note_on_c, 1, 79, 68
7, 305280, Control_c, 1, 11, 101
7, 305504, Note_on_c, 1, 79, 0
7, 305520, Control_c, 1, 11, 104
7, 305520, Note_on_c, 1, 78, 68
7, 305760, Control_c, 1, 11, 106
7, 305984, Note_on_c, 1, 78, 0
7, 306000, Control_c, 1, 11, 109
7, 306000, Note_on_c, 1, 76, 68
7, 306240, Control_c, 1, 11, 112
7, 306479, Note_on_c, 1, 76, 0
7, 306480, Control_c, 1, 11, 114
7, 306480, Note_on_c, 1, 75, 68
7, 306720, Control_c, 1, 11, 117
7, 306944, Note_on_c, 1, 75, 0
7, 306960, Note_on_c, 1, 76, 68
7, 306960, Control_c, 1, 11, 119
7, 307199, Note_on_c, 1, 76, 0
7, 307200, Note_on_c, 1, 79, 68
7, 307200, Control_c, 1, 11, 122
7, 307439, Note_on_c, 1, 79, 0
7, 307440, Note_on_c, 1, 73, 68
7, 307440, Control_c, 1, 11, 124
7, 307664, Note_on_c, 1, 73, 0
7, 307680, Control_c, 1, 11, 80
7, 307680, Note_on_c, 1, 74, 76
7, 307859, Note_on_c, 1, 74, 0
7, 307920, Note_on_c, 1, 74, 76
7, 308159, Note_on_c, 1, 74, 0
7, 308160, Control_c, 1, 11, 80
7, 308160, Note_on_c, 1, 78, 76
7, 308300, Control_c, 1, 11, 82
7, 308399, Note_on_c, 1, 78, 0
7, 308400, Note_on_c, 1, 81, 76
7, 308440, Control_c, 1, 11, 84
7, 308580, Control_c, 1, 11, 86
7, 308720, Control_c, 1, 11, 88
7, 308860, Control_c, 1, 11, 90
7, 308864, Note_on_c, 1, 81, 0
7, 308880, Note_on_c, 1, 79, 76
7, 309000, Control_c, 1, 11, 92
7, 309140, Control_c, 1, 11, 94
7, 309280, Control_c, 1, 11, 96
7, 309359, Note_on_c, 1, 79, 0
7, 309360, Note_on_c, 1, 78, 76
7, 309420, Control_c, 1, 11, 98
7, 309560, Control_c, 1, 11, 100
7, 309700, Control_c, 1, 11, 102
7, 309824, Note_on_c, 1, 78, 0
7, 309840, Note_on_c, 1, 76, 76
7, 309840, Control_c, 1, 11, 104
7, 309980, Control_c, 1, 11, 105
7, 310120, Control_c, 1, 11, 107
7, 310260, Control_c, 1, 11, 109
7, 310319, Note_on_c, 1, 76, 0
7, 310320, Note_on_c, 1, 75, 76
7, 310400, Control_c, 1, 11, 111
7, 310540, Control_c, 1, 11, 113
7, 310680, Control_c, 1, 11, 115
7, 310799, Note_on_c, 1, 75, 0
7, 310800, Note_on_c, 1, 76, 76
7, 310820, Control_c, 1, 11, 117
7, 310960, Control_c, 1, 11, 119
7, 311100, Control_c, 1, 11, 121
7, 311240, Control_c, 1, 11, 123
7, 311279, Note_on_c, 1, 76, 0
7, 311280, Note_on_c, 1, 74, 76
7, 311380, Control_c, 1, 11, 125
7, 311504, Note_on_c, 1, 74, 0
7, 311520, Note_on_c, 1, 73, 76
7, 311520, Control_c, 1, 11, 127
7, 311759, Note_on_c, 1, 73, 0
7, 313680, Note_on_c, 1, 69, 76
7, 314144, Note_on_c, 1, 69, 0
7, 314160, Note_on_c, 1, 69, 76
7, 314624, Note_on_c, 1, 69, 0
7, 314640, Note_on_c, 1, 69, 76
7, 315104, Note_on_c, 1, 69, 0
7, 315120, Note_on_c, 1, 74, 76
7, 315344, Note_on_c, 1, 74, 0
7, 315360, Note_on_c, 1, 73, 76
7, 315599, Note_on_c, 1, 73, 0
7, 317520, Note_on_c, 1, 81, 84
7, 317520, Note_on_c, 1, 69, 84
7, 317984, Note_on_c, 1, 81, 0
7, 317984, Note_on_c, 1, 69, 0
7, 318000, Note_on_c, 1, 81, 76
7, 318000, Note_on_c, 1, 69, 76
7, 318464, Note_on_c, 1, 81, 0
7, 318464, Note_on_c, 1, 69, 0
7, 318480, Note_on_c, 1, 81, 76
7, 318480, Note_on_c, 1, 69, 76
7, 318944, Note_on_c, 1, 81, 0
7, 318944, Note_on_c, 1, 69, 0
7, 318960, Note_on_c, 1, 74, 76
7, 319184, Note_on_c, 1, 74, 0
7, 319200, Note_on_c, 1, 73, 84
7, 319200, Note_on_c, 1, 81, 84
7, 319559, Note_on_c, 1, 73, 0
7, 319559, Note_on_c, 1, 81, 0
7, 319560, Note_on_c, 1, 80, 76
7, 319560, Note_on_c, 1, 74, 76
7, 319664, Note_on_c, 1, 80, 0
7, 319664, Note_on_c, 1, 74, 0
7, 319680, Note_on_c, 1, 73, 84
7, 319680, Note_on_c, 1, 81, 84
7, 320039, Note_on_c, 1, 73, 0
7, 320039, Note_on_c, 1, 81, 0
7, 320040, Note_on_c, 1, 80, 76
7, 320040, Note_on_c, 1, 74, 76
7, 320144, Note_on_c, 1, 80, 0
7, 320144, Note_on_c, 1, 74, 0
7, 320160, Note_on_c, 1, 73, 84
7, 320160, Note_on_c, 1, 81, 84
7, 320249, Note_on_c, 1, 73, 0
7, 320249, Note_on_c, 1, 81, 0
7, 320280, Note_on_c, 1, 74, 76
7, 320280, Note_on_c, 1, 80, 76
7, 320369, Note_on_c, 1, 74, 0
7, 320369, Note_on_c, 1, 80, 0
7, 320400, Note_on_c, 1, 81, 76
7, 320400, Note_on_c, 1, 73, 76
7, 320489, Note_on_c, 1, 81, 0
7, 320489, Note_on_c, 1, 73, 0
7, 320520, Note_on_c, 1, 74, 76
7, 320520, Note_on_c, 1, 80, 76
7, 320609, Note_on_c, 1, 74, 0
7, 320609, Note_on_c, 1, 80, 0
7, 320640, Note_on_c, 1, 81, 76
7, 320640, Note_on_c, 1, 73, 76
7, 320729, Note_on_c, 1, 81, 0
7, 320729, Note_on_c, 1, 73, 0
7, 320760, Note_on_c, 1, 80, 76
7, 320760, Note_on_c, 1, 74, 76
7, 320849, Note_on_c, 1, 80, 0
7, 320849, Note_on_c, 1, 74, 0
7, 320880, Note_on_c, 1, 73, 76
7, 320880, Note_on_c, 1, 81, 76
7, 320969, Note_on_c, 1, 73, 0
7, 320969, Note_on_c, 1, 81, 0
7, 321000, Note_on_c, 1, 80, 76
7, 321000, Note_on_c, 1, 74, 76
7, 321089, Note_on_c, 1, 80, 0
7, 321089, Note_on_c, 1, 74, 0
7, 321120, Note_on_c, 1, 81, 76
7, 321120, Note_on_c, 1, 73, 76
7, 321344, Note_on_c, 1, 81, 0
7, 321359, Note_on_c, 1, 73, 0
7, 321360, Note_on_c, 1, 81, 84
7, 321824, Note_on_c, 1, 81, 0
7, 321840, Note_on_c, 1, 80, 76
7, 322019, Note_on_c, 1, 80, 0
7, 322080, Note_on_c, 1, 79, 76
7, 322259, Note_on_c, 1, 79, 0
7, 322320, Note_on_c, 1, 78, 76
7, 322499, Note_on_c, 1, 78, 0
7, 322560, Note_on_c, 1, 76, 76
7, 322739, Note_on_c, 1, 76, 0
7, 322800, Note_on_c, 1, 81, 76
7, 322979, Note_on_c, 1, 81, 0
7, 323040, Note_on_c, 1, 62, 52
7, 323040, Note_on_c, 1, 66, 52
7, 323504, Note_on_c, 1, 62, 0
7, 323504, Note_on_c, 1, 66, 0
7, 323520, Note_on_c, 1, 69, 52
7, 323520, Note_on_c, 1, 66, 52
7, 323931, Note_on_c, 1, 69, 0
7, 323931, Note_on_c, 1, 66, 0
7, 323940, Note_on_c, 1, 69, 52
7, 323940, Note_on_c, 1, 74, 52
7, 323991, Note_on_c, 1, 69, 0
7, 323991, Note_on_c, 1, 74, 0
7, 324000, Note_on_c, 1, 74, 52
7, 324000, Note_on_c, 1, 78, 52
7, 324704, Note_on_c, 1, 74, 0
7, 324704, Note_on_c, 1, 78, 0
7, 324720, Note_on_c, 1, 78, 52
7, 324720, Note_on_c, 1, 74, 52
7, 324899, Note_on_c, 1, 78, 0
7, 324899, Note_on_c, 1, 74, 0
7, 324900, Note_on_c, 1, 76, 52
7, 324900, Note_on_c, 1, 79, 52
7, 324951, Note_on_c, 1, 76, 0
7, 324951, Note_on_c, 1, 79, 0
7, 324960, Note_on_c, 1, 78, 52
7, 324960, Note_on_c, 1, 81, 52
7, 325139, Note_on_c, 1, 78, 0
7, 325139, Note_on_c, 1, 81, 0
7, 325200, Note_on_c, 1, 81, 52
7, 325200, Note_on_c, 1, 78, 52
7, 325379, Note_on_c, 1, 81, 0
7, 325379, Note_on_c, 1, 78, 0
7, 325440, Note_on_c, 1, 81, 52
7, 325440, Note_on_c, 1, 78, 52
7, 325619, Note_on_c, 1, 81, 0
7, 325619, Note_on_c, 1, 78, 0
7, 325680, Note_on_c, 1, 79, 52
7, 325680, Note_on_c, 1, 83, 52
7, 325859, Note_on_c, 1, 79, 0
7, 325859, Note_on_c, 1, 83, 0
7, 325920, Note_on_c, 1, 78, 52
7, 325920, Note_on_c, 1, 81, 52
7, 326399, Note_on_c, 1, 78, 0
7, 326399, Note_on_c, 1, 81, 0
7, 326400, Note_on_c, 1, 78, 52
7, 326400, Note_on_c, 1, 74, 52
7, 326639, Note_on_c, 1, 78, 0
7, 326639, Note_on_c, 1, 74, 0
7, 326880, Note_on_c, 1, 74, 84
7, 326880, Note_on_c, 1, 78, 84
7, 327344, Note_on_c, 1, 74, 0
7, 327344, Note_on_c, 1, 78, 0
7, 327360, Note_on_c, 1, 78, 84
7, 327360, Note_on_c, 1, 74, 84
7, 327771, Note_on_c, 1, 78, 0
7, 327771, Note_on_c, 1, 74, 0
7, 327780, Note_on_c, 1, 78, 84
7, 327780, Note_on_c, 1, 74, 84
7, 327831, Note_on_c, 1, 78, 0
7, 327831, Note_on_c, 1, 74, 0
7, 327840, Note_on_c, 1, 74, 92
7, 327840, Note_on_c, 1, 78, 92
7, 328559, Note_on_c, 1, 74, 0
7, 328559, Note_on_c, 1, 78, 0
7, 329040, Note_on_c, 1, 73, 92
7, 329040, Note_on_c, 1, 81, 92
7, 329279, Note_on_c, 1, 73, 0
7, 329279, Note_on_c, 1, 81, 0
7, 329520, Note_on_c, 1, 71, 92
7, 329520, Note_on_c, 1, 80, 92
7, 329759, Note_on_c, 1, 71, 0
7, 329759, Note_on_c, 1, 80, 0
7, 329760, Note_on_c, 1, 81, 84
7, 329760, Note_on_c, 1, 73, 84
7, 329984, Note_on_c, 1, 81, 0
7, 329984, Note_on_c, 1, 73, 0
7, 330000, Control_c, 1, 11, 64
7, 330000, Note_on_c, 1, 73, 84
7, 330000, Note_on_c, 1, 69, 84
7, 330060, Control_c, 1, 11, 67
7, 330120, Control_c, 1, 11, 69
7, 330180, Control_c, 1, 11, 72
7, 330239, Note_on_c, 1, 73, 0
7, 330239, Note_on_c, 1, 69, 0
7, 330240, Note_on_c, 1, 76, 84
7, 330240, Note_on_c, 1, 73, 84
7, 330240, Control_c, 1, 11, 75
7, 330300, Control_c, 1, 11, 77
7, 330360, Control_c, 1, 11, 80
7, 330420, Control_c, 1, 11, 83
7, 330479, Note_on_c, 1, 76, 0
7, 330479, Note_on_c, 1, 73, 0
7, 330480, Note_on_c, 1, 76, 84
7, 330480, Note_on_c, 1, 79, 84
7, 330480, Control_c, 1, 11, 85
7, 330540, Control_c, 1, 11, 88
7, 330600, Control_c, 1, 11, 91
7, 330660, Control_c, 1, 11, 93
7, 330704, Note_on_c, 1, 76, 0
7, 330704, Note_on_c, 1, 79, 0
7, 330720, Control_c, 1, 11, 96
7, 330720, Note_on_c, 1, 78, 68
7, 330720, Note_on_c, 1, 74, 68
7, 330959, Note_on_c, 1, 78, 0
7, 330959, Note_on_c, 1, 74, 0
7, 330960, Control_c, 1, 11, 127
7, 331200, Note_on_c, 1, 66, 52
7, 331200, Note_on_c, 1, 69, 52
7, 331611, Note_on_c, 1, 66, 0
7, 331611, Note_on_c, 1, 69, 0
7, 331620, Note_on_c, 1, 66, 52
7, 331620, Note_on_c, 1, 74, 52
7, 331671, Note_on_c, 1, 66, 0
7, 331671, Note_on_c, 1, 74, 0
7, 331680, Note_on_c, 1, 78, 52
7, 331680, Note_on_c, 1, 69, 52
7, 332384, Note_on_c, 1, 78, 0
7, 332384, Note_on_c, 1, 69, 0
7, 332400, Note_on_c, 1, 74, 52
7, 332400, Note_on_c, 1, 66, 52
7, 332579, Note_on_c, 1, 74, 0
7, 332579, Note_on_c, 1, 66, 0
7, 332580, Note_on_c, 1, 67, 52
7, 332580, Note_on_c, 1, 76, 52
7, 332631, Note_on_c, 1, 67, 0
7, 332631, Note_on_c, 1, 76, 0
7, 332640, Note_on_c, 1, 78, 52
7, 332640, Note_on_c, 1, 69, 52
7, 332819, Note_on_c, 1, 78, 0
7, 332819, Note_on_c, 1, 69, 0
7, 332880, Note_on_c, 1, 69, 52
7, 332880, Note_on_c, 1, 78, 52
7, 333059, Note_on_c, 1, 69, 0
7, 333059, Note_on_c, 1, 78, 0
7, 333120, Note_on_c, 1, 69, 52
7, 333120, Note_on_c, 1, 78, 52
7, 333299, Note_on_c, 1, 69, 0
7, 333299, Note_on_c, 1, 78, 0
7, 333360, Note_on_c, 1, 79, 52
7, 333360, Note_on_c, 1, 71, 52
7, 333539, Note_on_c, 1, 79, 0
7, 333539, Note_on_c, 1, 71, 0
7, 333600, Note_on_c, 1, 69, 52
7, 333600, Note_on_c, 1, 78, 52
7, 334079, Note_on_c, 1, 69, 0
7, 334079, Note_on_c, 1, 78, 0
7, 334080, Note_on_c, 1, 74, 52
7, 334080, Note_on_c, 1, 66, 52
7, 334169, Note_on_c, 1, 74, 0
7, 334169, Note_on_c, 1, 66, 0
7, 334560, Note_on_c, 1, 78, 84
7, 334560, Note_on_c, 1, 74, 84
7, 335024, Note_on_c, 1, 78, 0
7, 335024, Note_on_c, 1, 74, 0
7, 335040, Note_on_c, 1, 78, 84
7, 335040, Note_on_c, 1, 74, 84
7, 335451, Note_on_c, 1, 78, 0
7, 335451, Note_on_c, 1, 74, 0
7, 335460, Note_on_c, 1, 78, 84
7, 335460, Note_on_c, 1, 74, 84
7, 335511, Note_on_c, 1, 78, 0
7, 335511, Note_on_c, 1, 74, 0
7, 335520, Note_on_c, 1, 74, 92
7, 335520, Note_on_c, 1, 78, 92
7, 336239, Note_on_c, 1, 74, 0
7, 336239, Note_on_c, 1, 78, 0
7, 336720, Note_on_c, 1, 73, 92
7, 336720, Note_on_c, 1, 81, 92
7, 336959, Note_on_c, 1, 73, 0
7, 336959, Note_on_c, 1, 81, 0
7, 337200, Note_on_c, 1, 71, 92
7, 337200, Note_on_c, 1, 80, 92
7, 337424, Note_on_c, 1, 71, 0
7, 337424, Note_on_c, 1, 80, 0
7, 337440, Note_on_c, 1, 81, 84
7, 337440, Note_on_c, 1, 73, 84
7, 337679, Note_on_c, 1, 81, 0
7, 337679, Note_on_c, 1, 73, 0
7, 339360, Note_on_c, 1, 81, 92
7, 339944, Note_on_c, 1, 81, 0
7, 339960, Note_on_c, 1, 81, 84
7, 340079, Note_on_c, 1, 81, 0
7, 340080, Note_on_c, 1, 79, 84
7, 340199, Note_on_c, 1, 79, 0
7, 340200, Note_on_c, 1, 78, 84
7, 340304, Note_on_c, 1, 78, 0
7, 340320, Note_on_c, 1, 79, 92
7, 340904, Note_on_c, 1, 79, 0
7, 340920, Note_on_c, 1, 79, 84
7, 341039, Note_on_c, 1, 79, 0
7, 341040, Note_on_c, 1, 78, 84
7, 341159, Note_on_c, 1, 78, 0
7, 341160, Note_on_c, 1, 77, 84
7, 341264, Note_on_c, 1, 77, 0
7, 341280, Note_on_c, 1, 78, 92
7, 341369, Note_on_c, 1, 78, 0
7, 341400, Note_on_c, 1, 78, 84
7, 341519, Note_on_c, 1, 78, 0
7, 341520, Note_on_c, 1, 76, 84
7, 341639, Note_on_c, 1, 76, 0
7, 341640, Note_on_c, 1, 75, 84
7, 341744, Note_on_c, 1, 75, 0
7, 341760, Note_on_c, 1, 76, 92
7, 341849, Note_on_c, 1, 76, 0
7, 341880, Note_on_c, 1, 76, 84
7, 341999, Note_on_c, 1, 76, 0
7, 342000, Note_on_c, 1, 74, 84
7, 342119, Note_on_c, 1, 74, 0
7, 342120, Note_on_c, 1, 73, 84
7, 342224, Note_on_c, 1, 73, 0
7, 342240, Note_on_c, 1, 74, 92
7, 342329, Note_on_c, 1, 74, 0
7, 342360, Note_on_c, 1, 81, 84
7, 342479, Note_on_c, 1, 81, 0
7, 342480, Note_on_c, 1, 79, 84
7, 342599, Note_on_c, 1, 79, 0
7, 342600, Note_on_c, 1, 78, 84
7, 342704, Note_on_c, 1, 78, 0
7, 342720, Note_on_c, 1, 79, 92
7, 342809, Note_on_c, 1, 79, 0
7, 342840, Note_on_c, 1, 79, 84
7, 342959, Note_on_c, 1, 79, 0
7, 342960, Note_on_c, 1, 78, 84
7, 343079, Note_on_c, 1, 78, 0
7, 343080, Note_on_c, 1, 77, 84
7, 343184, Note_on_c, 1, 77, 0
7, 343200, Note_on_c, 1, 78, 92
7, 343289, Note_on_c, 1, 78, 0
7, 343320, Note_on_c, 1, 78, 84
7, 343439, Note_on_c, 1, 78, 0
7, 343440, Note_on_c, 1, 76, 84
7, 343559, Note_on_c, 1, 76, 0
7, 343560, Note_on_c, 1, 74, 84
7, 343664, Note_on_c, 1, 74, 0
7, 343680, Note_on_c, 1, 76, 92
7, 343769, Note_on_c, 1, 76, 0
7, 343800, Note_on_c, 1, 76, 84
7, 343919, Note_on_c, 1, 76, 0
7, 343920, Note_on_c, 1, 74, 84
7, 344039, Note_on_c, 1, 74, 0
7, 344040, Note_on_c, 1, 73, 84
7, 344144, Note_on_c, 1, 73, 0
7, 344160, Note_on_c, 1, 74, 92
7, 344249, Note_on_c, 1, 74, 0
7, 344280, Note_on_c, 1, 74, 84
7, 344399, Note_on_c, 1, 74, 0
7, 344400, Note_on_c, 1, 72, 84
7, 344519, Note_on_c, 1, 72, 0
7, 344520, Note_on_c, 1, 71, 84
7, 344624, Note_on_c, 1, 71, 0
7, 344640, Note_on_c, 1, 72, 92
7, 344729, Note_on_c, 1, 72, 0
7, 344760, Note_on_c, 1, 72, 84
7, 344879, Note_on_c, 1, 72, 0
7, 344880, Note_on_c, 1, 71, 84
7, 344999, Note_on_c, 1, 71, 0
7, 345000, Note_on_c, 1, 70, 84
7, 345104, Note_on_c, 1, 70, 0
7, 345120, Note_on_c, 1, 71, 84
7, 345299, Note_on_c, 1, 71, 0
7, 345540, Note_on_c, 1, 83, 84
7, 345540, Note_on_c, 1, 74, 84
7, 345591, Note_on_c, 1, 83, 0
7, 345591, Note_on_c, 1, 74, 0
7, 345600, Note_on_c, 1, 74, 84
7, 345600, Note_on_c, 1, 83, 84
7, 346079, Note_on_c, 1, 74, 0
7, 346079, Note_on_c, 1, 83, 0
7, 346500, Note_on_c, 1, 76, 84
7, 346500, Note_on_c, 1, 83, 84
7, 346551, Note_on_c, 1, 76, 0
7, 346551, Note_on_c, 1, 83, 0
7, 346560, Note_on_c, 1, 76, 84
7, 346560, Note_on_c, 1, 83, 84
7, 347039, Note_on_c, 1, 76, 0
7, 347039, Note_on_c, 1, 83, 0
7, 347280, Note_on_c, 1, 79, 84
7, 347280, Note_on_c, 1, 81, 84
7, 347459, Note_on_c, 1, 79, 0
7, 347459, Note_on_c, 1, 81, 0
7, 347760, Note_on_c, 1, 78, 84
7, 347760, Note_on_c, 1, 81, 84
7, 347939, Note_on_c, 1, 78, 0
7, 347939, Note_on_c, 1, 81, 0
7, 348240, Note_on_c, 1, 83, 84
7, 348240, Note_on_c, 1, 79, 84
7, 348419, Note_on_c, 1, 83, 0
7, 348419, Note_on_c, 1, 79, 0
7, 348720, Note_on_c, 1, 79, 84
7, 348720, Note_on_c, 1, 76, 84
7, 348899, Note_on_c, 1, 79, 0
7, 348899, Note_on_c, 1, 76, 0
7, 349380, Note_on_c, 1, 79, 84
7, 349380, Note_on_c, 1, 74, 84
7, 349431, Note_on_c, 1, 79, 0
7, 349431, Note_on_c, 1, 74, 0
7, 349440, Note_on_c, 1, 79, 84
7, 349440, Note_on_c, 1, 74, 84
7, 349919, Note_on_c, 1, 79, 0
7, 349919, Note_on_c, 1, 74, 0
7, 350340, Note_on_c, 1, 79, 84
7, 350340, Note_on_c, 1, 76, 84
7, 350391, Note_on_c, 1, 79, 0
7, 350391, Note_on_c, 1, 76, 0
7, 350400, Note_on_c, 1, 76, 84
7, 350400, Note_on_c, 1, 79, 84
7, 350879, Note_on_c, 1, 76, 0
7, 350879, Note_on_c, 1, 79, 0
7, 358560, Note_on_c, 1, 78, 84
7, 358560, Note_on_c, 1, 74, 84
7, 359504, Note_on_c, 1, 78, 0
7, 359504, Note_on_c, 1, 74, 0
7, 359520, Note_on_c, 1, 73, 84
7, 359520, Note_on_c, 1, 79, 84
7, 360224, Note_on_c, 1, 73, 0
7, 360224, Note_on_c, 1, 79, 0
7, 360240, Note_on_c, 1, 79, 84
7, 360240, Note_on_c, 1, 73, 84
7, 360464, Note_on_c, 1, 79, 0
7, 360464, Note_on_c, 1, 73, 0
7, 360480, Note_on_c, 1, 74, 84
7, 360480, Note_on_c, 1, 78, 84
7, 360719, Note_on_c, 1, 74, 0
7, 360719, Note_on_c, 1, 78, 0
7, 362400, Note_on_c, 1, 79, 84
7, 362400, Note_on_c, 1, 67, 84
7, 363104, Note_on_c, 1, 79, 0
7, 363104, Note_on_c, 1, 67, 0
7, 363120, Note_on_c, 1, 79, 84
7, 363120, Note_on_c, 1, 67, 84
7, 363299, Note_on_c, 1, 79, 0
7, 363299, Note_on_c, 1, 67, 0
7, 363360, Note_on_c, 1, 74, 84
7, 363539, Note_on_c, 1, 74, 0
7, 363600, Note_on_c, 1, 82, 84
7, 363600, Note_on_c, 1, 70, 84
7, 363779, Note_on_c, 1, 82, 0
7, 363779, Note_on_c, 1, 70, 0
7, 363840, Note_on_c, 1, 69, 84
7, 363840, Note_on_c, 1, 81, 84
7, 364019, Note_on_c, 1, 69, 0
7, 364019, Note_on_c, 1, 81, 0
7, 364080, Note_on_c, 1, 67, 84
7, 364080, Note_on_c, 1, 79, 84
7, 364259, Note_on_c, 1, 67, 0
7, 364259, Note_on_c, 1, 79, 0
7, 364320, Note_on_c, 1, 62, 84
7, 364320, Note_on_c, 1, 74, 84
7, 364559, Note_on_c, 1, 62, 0
7, 364559, Note_on_c, 1, 74, 0
7, 366240, Note_on_c, 1, 79, 84
7, 366240, Note_on_c, 1, 67, 84
7, 366944, Note_on_c, 1, 79, 0
7, 366944, Note_on_c, 1, 67, 0
7, 366960, Note_on_c, 1, 79, 84
7, 366960, Note_on_c, 1, 67, 84
7, 367139, Note_on_c, 1, 79, 0
7, 367139, Note_on_c, 1, 67, 0
7, 367200, Note_on_c, 1, 74, 84
7, 367379, Note_on_c, 1, 74, 0
7, 367440, Note_on_c, 1, 82, 84
7, 367440, Note_on_c, 1, 70, 84
7, 367619, Note_on_c, 1, 82, 0
7, 367619, Note_on_c, 1, 70, 0
7, 367680, Note_on_c, 1, 81, 84
7, 367680, Note_on_c, 1, 69, 84
7, 367859, Note_on_c, 1, 81, 0
7, 367859, Note_on_c, 1, 69, 0
7, 367920, Note_on_c, 1, 67, 84
7, 367920, Note_on_c, 1, 79, 84
7, 368099, Note_on_c, 1, 67, 0
7, 368099, Note_on_c, 1, 79, 0
7, 368160, Note_on_c, 1, 74, 52
7, 368160, Note_on_c, 1, 62, 52
7, 368399, Note_on_c, 1, 74, 0
7, 368399, Note_on_c, 1, 62, 0
7, 369360, Note_on_c, 1, 74, 52
7, 369360, Note_on_c, 1, 79, 52
7, 369599, Note_on_c, 1, 74, 0
7, 369599, Note_on_c, 1, 79, 0
7, 369600, Note_on_c, 1, 81, 52
7, 369600, Note_on_c, 1, 78, 52
7, 369839, Note_on_c, 1, 81, 0
7, 369839, Note_on_c, 1, 78, 0
7, 369840, Note_on_c, 1, 82, 76
7, 369840, Note_on_c, 1, 79, 76
7, 370064, Note_on_c, 1, 82, 0
7, 370064, Note_on_c, 1, 79, 0
7, 370080, Note_on_c, 1, 78, 52
7, 370080, Note_on_c, 1, 81, 52
7, 370319, Note_on_c, 1, 78, 0
7, 370319, Note_on_c, 1, 81, 0
7, 371280, Note_on_c, 1, 79, 52
7, 371280, Note_on_c, 1, 74, 52
7, 371519, Note_on_c, 1, 79, 0
7, 371519, Note_on_c, 1, 74, 0
7, 371520, Note_on_c, 1, 81, 52
7, 371520, Note_on_c, 1, 78, 52
7, 371759, Note_on_c, 1, 81, 0
7, 371759, Note_on_c, 1, 78, 0
7, 371760, Note_on_c, 1, 79, 76
7, 371760, Note_on_c, 1, 82, 76
7, 371984, Note_on_c, 1, 79, 0
7, 371984, Note_on_c, 1, 82, 0
7, 372000, Note_on_c, 1, 78, 52
7, 372000, Note_on_c, 1, 81, 52
7, 372164, Note_on_c, 1, 78, 0
7, 372164, Note_on_c, 1, 81, 0
7, 372240, Note_on_c, 1, 79, 76
7, 372240, Note_on_c, 1, 82, 76
7, 372404, Note_on_c, 1, 79, 0
7, 372404, Note_on_c, 1, 82, 0
7, 372480, Note_on_c, 1, 78, 52
7, 372480, Note_on_c, 1, 81, 52
7, 372644, Note_on_c, 1, 78, 0
7, 372644, Note_on_c, 1, 81, 0
7, 372720, Note_on_c, 1, 79, 76
7, 372720, Note_on_c, 1, 82, 76
7, 372884, Note_on_c, 1, 79, 0
7, 372884, Note_on_c, 1, 82, 0
7, 372960, Note_on_c, 1, 78, 52
7, 372960, Note_on_c, 1, 81, 52
7, 373124, Note_on_c, 1, 78, 0
7, 373124, Note_on_c, 1, 81, 0
7, 373200, Note_on_c, 1, 82, 76
7, 373200, Note_on_c, 1, 79, 76
7, 373364, Note_on_c, 1, 82, 0
7, 373364, Note_on_c, 1, 79, 0
7, 373440, Note_on_c, 1, 81, 52
7, 373440, Note_on_c, 1, 78, 52
7, 373604, Note_on_c, 1, 81, 0
7, 373604, Note_on_c, 1, 78, 0
7, 373680, Note_on_c, 1, 82, 76
7, 373680, Note_on_c, 1, 79, 76
7, 373844, Note_on_c, 1, 82, 0
7, 373844, Note_on_c, 1, 79, 0
7, 373920, Note_on_c, 1, 78, 84
7, 373920, Note_on_c, 1, 81, 84
7, 374159, Note_on_c, 1, 78, 0
7, 374159, Note_on_c, 1, 81, 0
7, 374400, Note_on_c, 1, 74, 84
7, 374864, Note_on_c, 1, 74, 0
7, 374880, Note_on_c, 1, 69, 84
7, 374880, Note_on_c, 1, 81, 84
7, 375344, Note_on_c, 1, 69, 0
7, 375344, Note_on_c, 1, 81, 0
7, 375360, Note_on_c, 1, 78, 84
7, 375360, Note_on_c, 1, 66, 84
7, 375824, Note_on_c, 1, 78, 0
7, 375824, Note_on_c, 1, 66, 0
7, 375840, Note_on_c, 1, 62, 84
7, 375840, Note_on_c, 1, 74, 84
7, 376784, Note_on_c, 1, 62, 0
7, 376784, Note_on_c, 1, 74, 0
7, 376800, Note_on_c, 1, 78, 84
7, 376800, Note_on_c, 1, 66, 84
7, 377264, Note_on_c, 1, 78, 0
7, 377264, Note_on_c, 1, 66, 0
7, 377280, Note_on_c, 1, 69, 84
7, 377280, Note_on_c, 1, 81, 84
7, 377744, Note_on_c, 1, 69, 0
7, 377744, Note_on_c, 1, 81, 0
7, 377760, Note_on_c, 1, 86, 84
7, 377760, Note_on_c, 1, 74, 84
7, 377999, Note_on_c, 1, 86, 0
7, 377999, Note_on_c, 1, 74, 0
7, 378240, Note_on_c, 1, 78, 76
7, 378240, Note_on_c, 1, 81, 76
7, 378479, Note_on_c, 1, 78, 0
7, 378479, Note_on_c, 1, 81, 0
7, 379200, Note_on_c, 1, 81, 76
7, 379200, Note_on_c, 1, 84, 76
7, 379439, Note_on_c, 1, 81, 0
7, 379439, Note_on_c, 1, 84, 0
7, 379440, Control_c, 1, 11, 80
7, 379680, Note_on_c, 1, 81, 76
7, 380399, Note_on_c, 1, 81, 0
7, 380400, Note_on_c, 1, 79, 76
7, 380639, Note_on_c, 1, 79, 0
7, 380640, Note_on_c, 1, 78, 76
7, 380879, Note_on_c, 1, 78, 0
7, 380880, Note_on_c, 1, 76, 76
7, 381119, Note_on_c, 1, 76, 0
7, 381120, Note_on_c, 1, 74, 76
7, 381359, Note_on_c, 1, 74, 0
7, 381360, Note_on_c, 1, 72, 76
7, 381584, Note_on_c, 1, 72, 0
7, 381600, Note_on_c, 1, 71, 76
7, 381824, Note_on_c, 1, 71, 0
7, 381840, Note_on_c, 1, 81, 76
7, 382319, Note_on_c, 1, 81, 0
7, 382320, Note_on_c, 1, 79, 76
7, 382559, Note_on_c, 1, 79, 0
7, 382560, Note_on_c, 1, 78, 76
7, 382799, Note_on_c, 1, 78, 0
7, 382800, Note_on_c, 1, 76, 76
7, 383039, Note_on_c, 1, 76, 0
7, 383040, Note_on_c, 1, 75, 76
7, 383279, Note_on_c, 1, 75, 0
7, 383280, Note_on_c, 1, 71, 76
7, 383504, Note_on_c, 1, 71, 0
7, 383520, Note_on_c, 1, 71, 76
7, 383699, Note_on_c, 1, 71, 0
7, 383760, Note_on_c, 1, 76, 76
7, 383760, Note_on_c, 1, 71, 76
7, 384239, Note_on_c, 1, 76, 0
7, 384239, Note_on_c, 1, 71, 0
7, 384240, Note_on_c, 1, 74, 76
7, 384240, Note_on_c, 1, 69, 76
7, 384479, Note_on_c, 1, 74, 0
7, 384479, Note_on_c, 1, 69, 0
7, 384480, Note_on_c, 1, 67, 76
7, 384480, Note_on_c, 1, 73, 76
7, 384480, Control_c, 1, 11, 80
7, 384560, Control_c, 1, 11, 84
7, 384640, Control_c, 1, 11, 88
7, 384719, Note_on_c, 1, 67, 0
7, 384719, Note_on_c, 1, 73, 0
7, 384720, Note_on_c, 1, 71, 76
7, 384720, Note_on_c, 1, 66, 76
7, 384720, Control_c, 1, 11, 92
7, 384800, Control_c, 1, 11, 96
7, 384880, Control_c, 1, 11, 100
7, 384959, Note_on_c, 1, 71, 0
7, 384959, Note_on_c, 1, 66, 0
7, 384960, Note_on_c, 1, 69, 76
7, 384960, Control_c, 1, 11, 104
7, 384960, Note_on_c, 1, 64, 76
7, 385040, Control_c, 1, 11, 107
7, 385120, Control_c, 1, 11, 111
7, 385199, Note_on_c, 1, 69, 0
7, 385199, Note_on_c, 1, 64, 0
7, 385200, Note_on_c, 1, 76, 76
7, 385200, Control_c, 1, 11, 115
7, 385200, Note_on_c, 1, 79, 76
7, 385280, Control_c, 1, 11, 119
7, 385360, Control_c, 1, 11, 123
7, 385424, Note_on_c, 1, 76, 0
7, 385424, Note_on_c, 1, 79, 0
7, 385440, Control_c, 1, 11, 127
7, 385440, Note_on_c, 1, 74, 76
7, 385440, Note_on_c, 1, 78, 76
7, 385679, Note_on_c, 1, 74, 0
7, 385679, Note_on_c, 1, 78, 0
7, 386400, Note_on_c, 1, 74, 84
7, 387119, Note_on_c, 1, 74, 0
7, 387120, Note_on_c, 1, 75, 76
7, 387344, Note_on_c, 1, 75, 0
7, 387360, Note_on_c, 1, 76, 76
7, 387599, Note_on_c, 1, 76, 0
7, 388320, Note_on_c, 1, 76, 84
7, 389039, Note_on_c, 1, 76, 0
7, 389040, Note_on_c, 1, 77, 76
7, 389264, Note_on_c, 1, 77, 0
7, 389280, Note_on_c, 1, 78, 76
7, 389504, Note_on_c, 1, 78, 0
7, 389520, Note_on_c, 1, 81, 84
7, 389639, Note_on_c, 1, 81, 0
7, 389640, Note_on_c, 1, 79, 76
7, 389759, Note_on_c, 1, 79, 0
7, 389760, Note_on_c, 1, 78, 76
7, 389879, Note_on_c, 1, 78, 0
7, 389880, Note_on_c, 1, 76, 76
7, 389999, Note_on_c, 1, 76, 0
7, 390000, Note_on_c, 1, 74, 76
7, 390119, Note_on_c, 1, 74, 0
7, 390120, Note_on_c, 1, 72, 76
7, 390224, Note_on_c, 1, 72, 0
7, 390240, Note_on_c, 1, 71, 76
7, 390464, Note_on_c, 1, 71, 0
7, 390480, Note_on_c, 1, 83, 84
7, 390599, Note_on_c, 1, 83, 0
7, 390600, Note_on_c, 1, 81, 76
7, 390719, Note_on_c, 1, 81, 0
7, 390720, Note_on_c, 1, 79, 76
7, 390839, Note_on_c, 1, 79, 0
7, 390840, Note_on_c, 1, 78, 76
7, 390959, Note_on_c, 1, 78, 0
7, 390960, Note_on_c, 1, 76, 76
7, 391079, Note_on_c, 1, 76, 0
7, 391080, Note_on_c, 1, 74, 76
7, 391184, Note_on_c, 1, 74, 0
7, 391200, Note_on_c, 1, 73, 76
7, 391439, Note_on_c, 1, 73, 0
7, 393120, Note_on_c, 1, 76, 84
7, 393120, Note_on_c, 1, 73, 84
7, 394079, Note_on_c, 1, 76, 0
7, 394079, Note_on_c, 1, 73, 0
7, 395040, Note_on_c, 1, 77, 84
7, 395040, Note_on_c, 1, 74, 84
7, 395984, Note_on_c, 1, 77, 0
7, 396000, Note_on_c, 1, 76, 84
7, 396464, Note_on_c, 1, 74, 0
7, 396480, Note_on_c, 1, 73, 84
7, 396944, Note_on_c, 1, 76, 0
7, 396944, Note_on_c, 1, 73, 0
7, 396960, Note_on_c, 1, 74, 84
7, 397199, Note_on_c, 1, 74, 0
7, 397680, Note_on_c, 1, 72, 52
7, 397739, Note_on_c, 1, 72, 0
7, 397740, Note_on_c, 1, 71, 52
7, 397799, Note_on_c, 1, 71, 0
7, 397800, Note_on_c, 1, 72, 52
7, 397859, Note_on_c, 1, 72, 0
7, 397860, Note_on_c, 1, 74, 52
7, 397911, Note_on_c, 1, 74, 0
7, 397920, Note_on_c, 1, 75, 52
7, 398099, Note_on_c, 1, 75, 0
7, 398160, Note_on_c, 1, 75, 52
7, 398339, Note_on_c, 1, 75, 0
7, 398400, Note_on_c, 1, 72, 52
7, 398579, Note_on_c, 1, 72, 0
7, 398640, Note_on_c, 1, 72, 52
7, 398819, Note_on_c, 1, 72, 0
7, 398880, Note_on_c, 1, 74, 84
7, 399584, Note_on_c, 1, 74, 0
7, 399600, Note_on_c, 1, 72, 84
7, 399659, Note_on_c, 1, 72, 0
7, 399660, Note_on_c, 1, 71, 84
7, 399719, Note_on_c, 1, 71, 0
7, 399720, Note_on_c, 1, 72, 84
7, 399779, Note_on_c, 1, 72, 0
7, 399780, Note_on_c, 1, 74, 84
7, 399831, Note_on_c, 1, 74, 0
7, 399840, Note_on_c, 1, 75, 52
7, 400019, Note_on_c, 1, 75, 0
7, 400080, Note_on_c, 1, 75, 52
7, 400259, Note_on_c, 1, 75, 0
7, 400320, Note_on_c, 1, 72, 52
7, 400499, Note_on_c, 1, 72, 0
7, 400560, Note_on_c, 1, 72, 52
7, 400739, Note_on_c, 1, 72, 0
7, 400800, Note_on_c, 1, 74, 52
7, 401039, Note_on_c, 1, 74, 0
7, 401280, Note_on_c, 1, 81, 84
7, 401280, Note_on_c, 1, 72, 84
7, 401759, Note_on_c, 1, 81, 0
7, 401759, Note_on_c, 1, 72, 0
7, 402240, Note_on_c, 1, 81, 84
7, 402240, Note_on_c, 1, 72, 84
7, 402704, Note_on_c, 1, 81, 0
7, 402704, Note_on_c, 1, 72, 0
7, 402720, Note_on_c, 1, 72, 84
7, 402720, Note_on_c, 1, 81, 84
7, 403184, Note_on_c, 1, 72, 0
7, 403184, Note_on_c, 1, 81, 0
7, 403200, Note_on_c, 1, 75, 84
7, 403200, Note_on_c, 1, 81, 84
7, 403664, Note_on_c, 1, 75, 0
7, 403664, Note_on_c, 1, 81, 0
7, 403680, Note_on_c, 1, 81, 84
7, 403680, Note_on_c, 1, 75, 84
7, 404624, Note_on_c, 1, 81, 0
7, 404624, Note_on_c, 1, 75, 0
7, 404640, Note_on_c, 1, 79, 84
7, 404640, Note_on_c, 1, 75, 84
7, 405104, Note_on_c, 1, 79, 0
7, 405104, Note_on_c, 1, 75, 0
7, 405120, Note_on_c, 1, 75, 84
7, 405120, Note_on_c, 1, 78, 84
7, 405584, Note_on_c, 1, 75, 0
7, 405584, Note_on_c, 1, 78, 0
7, 405600, Note_on_c, 1, 75, 84
7, 405600, Note_on_c, 1, 78, 84
7, 406544, Note_on_c, 1, 75, 0
7, 406544, Note_on_c, 1, 78, 0
7, 406560, Note_on_c, 1, 70, 84
7, 406560, Note_on_c, 1, 82, 84
7, 407024, Note_on_c, 1, 70, 0
7, 407024, Note_on_c, 1, 82, 0
7, 407040, Note_on_c, 1, 69, 84
7, 407040, Note_on_c, 1, 81, 84
7, 407504, Note_on_c, 1, 69, 0
7, 407504, Note_on_c, 1, 81, 0
7, 407520, Note_on_c, 1, 69, 84
7, 407520, Note_on_c, 1, 81, 84
7, 408464, Note_on_c, 1, 69, 0
7, 408464, Note_on_c, 1, 81, 0
7, 408480, Note_on_c, 1, 81, 84
7, 408480, Note_on_c, 1, 73, 84
7, 408944, Note_on_c, 1, 81, 0
7, 408944, Note_on_c, 1, 73, 0
7, 408960, Note_on_c, 1, 81, 84
7, 408960, Note_on_c, 1, 72, 84
7, 409424, Note_on_c, 1, 81, 0
7, 409424, Note_on_c, 1, 72, 0
7, 409440, Note_on_c, 1, 71, 84
7, 409440, Note_on_c, 1, 81, 84
7, 410384, Note_on_c, 1, 71, 0
7, 410384, Note_on_c, 1, 81, 0
7, 410400, Note_on_c, 1, 71, 84
7, 410400, Note_on_c, 1, 79, 84
7, 410864, Note_on_c, 1, 71, 0
7, 410864, Note_on_c, 1, 79, 0
7, 410880, Note_on_c, 1, 79, 84
7, 410880, Note_on_c, 1, 81, 84
7, 411359, Note_on_c, 1, 79, 0
7, 411360, Note_on_c, 1, 78, 84
7, 411824, Note_on_c, 1, 81, 0
7, 411824, Note_on_c, 1, 78, 0
7, 411840, Note_on_c, 1, 78, 84
7, 411840, Note_on_c, 1, 83, 84
7, 412304, Note_on_c, 1, 78, 0
7, 412304, Note_on_c, 1, 83, 0
7, 412320, Note_on_c, 1, 76, 92
7, 412320, Note_on_c, 1, 83, 92
7, 413264, Note_on_c, 1, 76, 0
7, 413264, Note_on_c, 1, 83, 0
7, 413280, Note_on_c, 1, 79, 92
7, 413280, Note_on_c, 1, 76, 92
7, 414224, Note_on_c, 1, 79, 0
7, 414224, Note_on_c, 1, 76, 0
7, 414240, Note_on_c, 1, 78, 84
7, 414240, Note_on_c, 1, 74, 84
7, 414479, Note_on_c, 1, 78, 0
7, 414479, Note_on_c, 1, 74, 0
7, 416160, Note_on_c, 1, 74, 84
7, 416160, Note_on_c, 1, 78, 84
7, 417104, Note_on_c, 1, 78, 0
7, 417120, Note_on_c, 1, 76, 84
7, 417584, Note_on_c, 1, 74, 0
7, 417600, Note_on_c, 1, 73, 84
7, 418064, Note_on_c, 1, 76, 0
7, 418064, Note_on_c, 1, 73, 0
7, 418080, Note_on_c, 1, 74, 84
7, 418784, Note_on_c, 1, 74, 0
7, 418800, Note_on_c, 1, 74, 92
7, 419039, Note_on_c, 1, 74, 0
7, 419280, Note_on_c, 1, 78, 92
7, 419519, Note_on_c, 1, 78, 0
7, 419760, Note_on_c, 1, 81, 92
7, 419999, Note_on_c, 1, 81, 0
7, 420240, Note_on_c, 1, 86, 92
7, 420479, Note_on_c, 1, 86, 0
7, 420720, Note_on_c, 1, 78, 92
7, 420720, Note_on_c, 1, 74, 92
7, 420959, Note_on_c, 1, 78, 0
7, 420959, Note_on_c, 1, 74, 0
7, 421200, Note_on_c, 1, 76, 84
7, 421200, Note_on_c, 1, 74, 84
7, 421439, Note_on_c, 1, 76, 0
7, 421439, Note_on_c, 1, 74, 0
7, 421680, Note_on_c, 1, 73, 84
7, 421680, Note_on_c, 1, 76, 84
7, 421904, Note_on_c, 1, 76, 0
7, 421919, Note_on_c, 1, 73, 0
7, 421920, Note_on_c, 1, 78, 84
7, 421920, Note_on_c, 1, 74, 84
7, 422144, Note_on_c, 1, 78, 0
7, 422144, Note_on_c, 1, 74, 0
7, 422160, Note_on_c, 1, 74, 84
7, 422160, Note_on_c, 1, 78, 84
7, 422399, Note_on_c, 1, 74, 0
7, 422399, Note_on_c, 1, 78, 0
7, 422640, Note_on_c, 1, 74, 84
7, 422640, Note_on_c, 1, 78, 84
7, 422879, Note_on_c, 1, 74, 0
7, 422879, Note_on_c, 1, 78, 0
7, 423120, Note_on_c, 1, 74, 84
7, 423120, Note_on_c, 1, 76, 84
7, 423344, Note_on_c, 1, 74, 0
7, 423344, Note_on_c, 1, 76, 0
7, 423360, Note_on_c, 1, 79, 84
7, 423434, Note_on_c, 1, 79, 0
7, 423480, Note_on_c, 1, 76, 84
7, 423554, Note_on_c, 1, 76, 0
7, 423600, Note_on_c, 1, 73, 84
7, 423674, Note_on_c, 1, 73, 0
7, 423720, Note_on_c, 1, 69, 84
7, 423794, Note_on_c, 1, 69, 0
7, 423840, Note_on_c, 1, 74, 76
7, 424544, Note_on_c, 1, 74, 0
7, 424560, Note_on_c, 1, 74, 76
7, 424619, Note_on_c, 1, 74, 0
7, 424620, Note_on_c, 1, 73, 76
7, 424679, Note_on_c, 1, 73, 0
7, 424680, Note_on_c, 1, 74, 76
7, 424739, Note_on_c, 1, 74, 0
7, 424740, Note_on_c, 1, 76, 76
7, 424791, Note_on_c, 1, 76, 0
7, 424800, Note_on_c, 1, 78, 76
7, 424979, Note_on_c, 1, 78, 0
7, 425040, Note_on_c, 1, 66, 76
7, 425040, Note_on_c, 1, 78, 76
7, 425099, Note_on_c, 1, 66, 0
7, 425099, Note_on_c, 1, 78, 0
7, 425100, Note_on_c, 1, 64, 76
7, 425100, Note_on_c, 1, 76, 76
7, 425159, Note_on_c, 1, 64, 0
7, 425159, Note_on_c, 1, 76, 0
7, 425160, Note_on_c, 1, 78, 76
7, 425160, Note_on_c, 1, 66, 76
7, 425219, Note_on_c, 1, 78, 0
7, 425219, Note_on_c, 1, 66, 0
7, 425220, Note_on_c, 1, 79, 76
7, 425220, Note_on_c, 1, 67, 76
7, 425271, Note_on_c, 1, 79, 0
7, 425271, Note_on_c, 1, 67, 0
7, 425280, Note_on_c, 1, 69, 76
7, 425280, Note_on_c, 1, 81, 76
7, 425459, Note_on_c, 1, 69, 0
7, 425459, Note_on_c, 1, 81, 0
7, 425520, Note_on_c, 1, 81, 76
7, 425520, Note_on_c, 1, 69, 76
7, 425639, Note_on_c, 1, 81, 0
7, 425639, Note_on_c, 1, 69, 0
7, 425640, Note_on_c, 1, 71, 76
7, 425640, Note_on_c, 1, 83, 76
7, 425699, Note_on_c, 1, 71, 0
7, 425699, Note_on_c, 1, 83, 0
7, 425700, Note_on_c, 1, 73, 76
7, 425700, Note_on_c, 1, 85, 76
7, 425751, Note_on_c, 1, 73, 0
7, 425751, Note_on_c, 1, 85, 0
7, 425760, Note_on_c, 1, 74, 84
7, 425760, Note_on_c, 1, 86, 84
7, 426464, Note_on_c, 1, 74, 0
7, 426464, Note_on_c, 1, 86, 0
7, 426480, Note_on_c, 1, 86, 76
7, 426480, Note_on_c, 1, 74, 76
7, 426599, Note_on_c, 1, 86, 0
7, 426599, Note_on_c, 1, 74, 0
7, 426600, Note_on_c, 1, 85, 76
7, 426600, Note_on_c, 1, 73, 76
7, 426659, Note_on_c, 1, 85, 0
7, 426659, Note_on_c, 1, 73, 0
7, 426660, Note_on_c, 1, 71, 76
7, 426660, Note_on_c, 1, 83, 76
7, 426711, Note_on_c, 1, 71, 0
7, 426711, Note_on_c, 1, 83, 0
7, 426720, Note_on_c, 1, 81, 76
7, 426720, Note_on_c, 1, 69, 76
7, 426899, Note_on_c, 1, 81, 0
7, 426899, Note_on_c, 1, 69, 0
7, 426960, Note_on_c, 1, 69, 76
7, 426960, Note_on_c, 1, 81, 76
7, 427019, Note_on_c, 1, 69, 0
7, 427019, Note_on_c, 1, 81, 0
7, 427020, Note_on_c, 1, 71, 76
7, 427020, Note_on_c, 1, 83, 76
7, 427079, Note_on_c, 1, 71, 0
7, 427079, Note_on_c, 1, 83, 0
7, 427080, Note_on_c, 1, 69, 76
7, 427080, Note_on_c, 1, 81, 76
7, 427139, Note_on_c, 1, 69, 0
7, 427139, Note_on_c, 1, 81, 0
7, 427140, Note_on_c, 1, 79, 76
7, 427140, Note_on_c, 1, 67, 76
7, 427191, Note_on_c, 1, 79, 0
7, 427191, Note_on_c, 1, 67, 0
7, 427200, Note_on_c, 1, 78, 76
7, 427200, Note_on_c, 1, 66, 76
7, 427379, Note_on_c, 1, 78, 0
7, 427379, Note_on_c, 1, 66, 0
7, 427440, Note_on_c, 1, 66, 76
7, 427440, Note_on_c, 1, 78, 76
7, 427499, Note_on_c, 1, 66, 0
7, 427499, Note_on_c, 1, 78, 0
7, 427500, Note_on_c, 1, 79, 76
7, 427500, Note_on_c, 1, 67, 76
7, 427559, Note_on_c, 1, 79, 0
7, 427559, Note_on_c, 1, 67, 0
7, 427560, Note_on_c, 1, 66, 76
7, 427560, Note_on_c, 1, 78, 76
7, 427619, Note_on_c, 1, 66, 0
7, 427619, Note_on_c, 1, 78, 0
7, 427620, Note_on_c, 1, 64, 76
7, 427620, Note_on_c, 1, 76, 76
7, 427671, Note_on_c, 1, 64, 0
7, 427671, Note_on_c, 1, 76, 0
7, 427680, Note_on_c, 1, 74, 76
7, 427680, Note_on_c, 1, 62, 76
7, 427859, Note_on_c, 1, 74, 0
7, 427859, Note_on_c, 1, 62, 0
7, 428100, Note_on_c, 1, 78, 76
7, 428100, Note_on_c, 1, 81, 76
7, 428144, Note_on_c, 1, 78, 0
7, 428144, Note_on_c, 1, 81, 0
7, 428160, Note_on_c, 1, 78, 76
7, 428160, Note_on_c, 1, 81, 76
7, 428339, Note_on_c, 1, 78, 0
7, 428339, Note_on_c, 1, 81, 0
7, 429060, Note_on_c, 1, 81, 76
7, 429060, Note_on_c, 1, 76, 76
7, 429104, Note_on_c, 1, 81, 0
7, 429104, Note_on_c, 1, 76, 0
7, 429120, Note_on_c, 1, 76, 76
7, 429120, Note_on_c, 1, 81, 76
7, 429299, Note_on_c, 1, 76, 0
7, 429299, Note_on_c, 1, 81, 0
7, 430020, Note_on_c, 1, 78, 76
7, 430020, Note_on_c, 1, 81, 76
7, 430064, Note_on_c, 1, 78, 0
7, 430064, Note_on_c, 1, 81, 0
7, 430080, Note_on_c, 1, 81, 76
7, 430080, Note_on_c, 1, 78, 76
7, 430259, Note_on_c, 1, 81, 0
7, 430259, Note_on_c, 1, 78, 0
7, 430980, Note_on_c, 1, 76, 76
7, 430980, Note_on_c, 1, 81, 76
7, 431024, Note_on_c, 1, 76, 0
7, 431024, Note_on_c, 1, 81, 0
7, 431040, Note_on_c, 1, 81, 76
7, 431040, Note_on_c, 1, 76, 76
7, 431219, Note_on_c, 1, 81, 0
7, 431219, Note_on_c, 1, 76, 0
7, 431520, Note_on_c, 1, 78, 76
7, 431520, Note_on_c, 1, 81, 76
7, 431759, Note_on_c, 1, 78, 0
7, 431759, Note_on_c, 1, 81, 0
7, 432420, Note_on_c, 1, 74, 84
7, 432471, Note_on_c, 1, 74, 0
7, 432480, Note_on_c, 1, 74, 84
7, 432719, Note_on_c, 1, 74, 0
7, 432960, Note_on_c, 1, 74, 84
7, 433199, Note_on_c, 1, 74, 0
7, 433440, Note_on_c, 1, 74, 84
7, 434399, Note_on_c, 1, 74, 0
7, 434399, End_track
8, 0, Start_track
8, 0, Title_t, "Clarinet in A"
8, 0, MIDI_port, 0
8, 0, Program_c, 2, 71
8, 0, Control_c, 2, 7, 96
8, 0, Control_c, 2, 10, 75
8, 0, Control_c, 2, 11, 127
8, 690, Note_on_c, 2, 74, 84
8, 690, Note_on_c, 2, 62, 84
8, 715, Note_on_c, 2, 74, 0
8, 715, Note_on_c, 2, 62, 0
8, 720, Note_on_c, 2, 62, 84
8, 720, Note_on_c, 2, 74, 84
8, 1064, Note_on_c, 2, 62, 0
8, 1064, Note_on_c, 2, 74, 0
8, 3240, Note_on_c, 2, 73, 52
8, 3240, Note_on_c, 2, 76, 52
8, 3306, Note_on_c, 2, 73, 0
8, 3306, Note_on_c, 2, 76, 0
8, 3330, Note_on_c, 2, 74, 52
8, 3330, Note_on_c, 2, 71, 52
8, 3351, Note_on_c, 2, 74, 0
8, 3351, Note_on_c, 2, 71, 0
8, 3360, Note_on_c, 2, 73, 52
8, 3360, Note_on_c, 2, 69, 52
8, 3426, Note_on_c, 2, 73, 0
8, 3426, Note_on_c, 2, 69, 0
8, 3450, Note_on_c, 2, 71, 52
8, 3450, Note_on_c, 2, 67, 52
8, 3471, Note_on_c, 2, 71, 0
8, 3471, Note_on_c, 2, 67, 0
8, 3480, Note_on_c, 2, 66, 52
8, 3480, Note_on_c, 2, 69, 52
8, 3546, Note_on_c, 2, 66, 0
8, 3546, Note_on_c, 2, 69, 0
8, 3570, Note_on_c, 2, 67, 52
8, 3570, Note_on_c, 2, 64, 52
8, 3591, Note_on_c, 2, 67, 0
8, 3591, Note_on_c, 2, 64, 0
8, 3600, Note_on_c, 2, 66, 84
8, 3600, Note_on_c, 2, 62, 84
8, 3959, Note_on_c, 2, 66, 0
8, 3959, Note_on_c, 2, 62, 0
8, 4800, Note_on_c, 2, 69, 92
8, 5039, Note_on_c, 2, 69, 0
8, 5040, Note_on_c, 2, 67, 84
8, 5129, Note_on_c, 2, 67, 0
8, 8520, Note_on_c, 2, 69, 84
8, 8609, Note_on_c, 2, 69, 0
8, 8640, Note_on_c, 2, 62, 84
8, 8640, Note_on_c, 2, 74, 84
8, 8729, Note_on_c, 2, 62, 0
8, 8729, Note_on_c, 2, 74, 0
8, 16530, Note_on_c, 2, 69, 84
8, 16555, Note_on_c, 2, 69, 0
8, 16560, Note_on_c, 2, 74, 84
8, 16765, Note_on_c, 2, 74, 0
8, 16770, Note_on_c, 2, 74, 84
8, 16795, Note_on_c, 2, 74, 0
8, 16800, Note_on_c, 2, 81, 84
8, 16800, Note_on_c, 2, 69, 84
8, 17005, Note_on_c, 2, 81, 0
8, 17005, Note_on_c, 2, 69, 0
8, 17010, Note_on_c, 2, 69, 84
8, 17010, Note_on_c, 2, 81, 84
8, 17035, Note_on_c, 2, 69, 0
8, 17035, Note_on_c, 2, 81, 0
8, 17040, Note_on_c, 2, 65, 84
8, 17040, Note_on_c, 2, 77, 84
8, 17129, Note_on_c, 2, 65, 0
8, 17129, Note_on_c, 2, 77, 0
8, 17160, Note_on_c, 2, 62, 84
8, 17160, Note_on_c, 2, 74, 84
8, 17249, Note_on_c, 2, 62, 0
8, 17249, Note_on_c, 2, 74, 0
8, 17280, Note_on_c, 2, 69, 92
8, 17280, Note_on_c, 2, 57, 92
8, 17399, Note_on_c, 2, 69, 0
8, 17399, Note_on_c, 2, 57, 0
8, 20920, Note_on_c, 2, 74, 68
8, 20920, Note_on_c, 2, 77, 68
8, 20955, Note_on_c, 2, 74, 0
8, 20955, Note_on_c, 2, 77, 0
8, 20960, Note_on_c, 2, 77, 52
8, 20960, Note_on_c, 2, 74, 52
8, 20995, Note_on_c, 2, 77, 0
8, 20995, Note_on_c, 2, 74, 0
8, 21000, Note_on_c, 2, 77, 52
8, 21000, Note_on_c, 2, 74, 52
8, 21035, Note_on_c, 2, 77, 0
8, 21035, Note_on_c, 2, 74, 0
8, 21040, Note_on_c, 2, 74, 52
8, 21040, Note_on_c, 2, 77, 52
8, 21075, Note_on_c, 2, 74, 0
8, 21075, Note_on_c, 2, 77, 0
8, 21080, Note_on_c, 2, 74, 52
8, 21080, Note_on_c, 2, 77, 52
8, 21115, Note_on_c, 2, 74, 0
8, 21115, Note_on_c, 2, 77, 0
8, 21120, Note_on_c, 2, 74, 52
8, 21120, Note_on_c, 2, 77, 52
8, 21155, Note_on_c, 2, 74, 0
8, 21155, Note_on_c, 2, 77, 0
8, 21160, Note_on_c, 2, 77, 52
8, 21160, Note_on_c, 2, 74, 52
8, 21195, Note_on_c, 2, 77, 0
8, 21195, Note_on_c, 2, 74, 0
8, 21200, Note_on_c, 2, 77, 52
8, 21200, Note_on_c, 2, 74, 52
8, 21235, Note_on_c, 2, 77, 0
8, 21235, Note_on_c, 2, 74, 0
8, 21240, Note_on_c, 2, 77, 52
8, 21240, Note_on_c, 2, 74, 52
8, 21275, Note_on_c, 2, 77, 0
8, 21275, Note_on_c, 2, 74, 0
8, 21280, Note_on_c, 2, 74, 52
8, 21280, Note_on_c, 2, 77, 52
8, 21315, Note_on_c, 2, 74, 0
8, 21315, Note_on_c, 2, 77, 0
8, 21320, Note_on_c, 2, 74, 52
8, 21320, Note_on_c, 2, 77, 52
8, 21355, Note_on_c, 2, 74, 0
8, 21355, Note_on_c, 2, 77, 0
8, 21360, Note_on_c, 2, 74, 52
8, 21360, Note_on_c, 2, 77, 52
8, 21395, Note_on_c, 2, 74, 0
8, 21395, Note_on_c, 2, 77, 0
8, 21400, Note_on_c, 2, 77, 52
8, 21400, Note_on_c, 2, 74, 52
8, 21435, Note_on_c, 2, 77, 0
8, 21435, Note_on_c, 2, 74, 0
8, 21440, Note_on_c, 2, 74, 52
8, 21440, Note_on_c, 2, 77, 52
8, 21475, Note_on_c, 2, 74, 0
8, 21475, Note_on_c, 2, 77, 0
8, 21480, Note_on_c, 2, 74, 52
8, 21480, Note_on_c, 2, 77, 52
8, 21515, Note_on_c, 2, 74, 0
8, 21515, Note_on_c, 2, 77, 0
8, 21520, Note_on_c, 2, 77, 52
8, 21520, Note_on_c, 2, 74, 52
8, 21555, Note_on_c, 2, 77, 0
8, 21555, Note_on_c, 2, 74, 0
8, 21560, Note_on_c, 2, 74, 52
8, 21560, Note_on_c, 2, 77, 52
8, 21595, Note_on_c, 2, 74, 0
8, 21595, Note_on_c, 2, 77, 0
8, 21640, Note_on_c, 2, 76, 68
8, 21640, Note_on_c, 2, 73, 68
8, 21675, Note_on_c, 2, 76, 0
8, 21675, Note_on_c, 2, 73, 0
8, 21680, Note_on_c, 2, 76, 52
8, 21680, Note_on_c, 2, 73, 52
8, 21715, Note_on_c, 2, 76, 0
8, 21715, Note_on_c, 2, 73, 0
8, 21720, Note_on_c, 2, 76, 52
8, 21720, Note_on_c, 2, 73, 52
8, 21755, Note_on_c, 2, 76, 0
8, 21755, Note_on_c, 2, 73, 0
8, 21760, Note_on_c, 2, 76, 52
8, 21760, Note_on_c, 2, 73, 52
8, 21795, Note_on_c, 2, 76, 0
8, 21795, Note_on_c, 2, 73, 0
8, 21800, Note_on_c, 2, 76, 52
8, 21800, Note_on_c, 2, 73, 52
8, 21835, Note_on_c, 2, 76, 0
8, 21835, Note_on_c, 2, 73, 0
8, 21840, Note_on_c, 2, 76, 52
8, 21840, Note_on_c, 2, 73, 52
8, 21875, Note_on_c, 2, 76, 0
8, 21875, Note_on_c, 2, 73, 0
8, 21880, Note_on_c, 2, 73, 52
8, 21880, Note_on_c, 2, 76, 52
8, 21915, Note_on_c, 2, 73, 0
8, 21915, Note_on_c, 2, 76, 0
8, 21920, Note_on_c, 2, 73, 52
8, 21920, Note_on_c, 2, 76, 52
8, 21955, Note_on_c, 2, 73, 0
8, 21955, Note_on_c, 2, 76, 0
8, 21960, Note_on_c, 2, 76, 52
8, 21960, Note_on_c, 2, 73, 52
8, 21995, Note_on_c, 2, 76, 0
8, 21995, Note_on_c, 2, 73, 0
8, 22000, Note_on_c, 2, 73, 52
8, 22000, Note_on_c, 2, 76, 52
8, 22035, Note_on_c, 2, 73, 0
8, 22035, Note_on_c, 2, 76, 0
8, 22040, Note_on_c, 2, 76, 52
8, 22040, Note_on_c, 2, 73, 52
8, 22075, Note_on_c, 2, 76, 0
8, 22075, Note_on_c, 2, 73, 0
8, 22080, Note_on_c, 2, 73, 52
8, 22080, Note_on_c, 2, 76, 52
8, 22115, Note_on_c, 2, 73, 0
8, 22115, Note_on_c, 2, 76, 0
8, 22120, Note_on_c, 2, 73, 52
8, 22120, Note_on_c, 2, 76, 52
8, 22155, Note_on_c, 2, 73, 0
8, 22155, Note_on_c, 2, 76, 0
8, 22160, Note_on_c, 2, 73, 52
8, 22160, Note_on_c, 2, 76, 52
8, 22195, Note_on_c, 2, 73, 0
8, 22195, Note_on_c, 2, 76, 0
8, 22200, Note_on_c, 2, 73, 52
8, 22200, Note_on_c, 2, 76, 52
8, 22235, Note_on_c, 2, 73, 0
8, 22235, Note_on_c, 2, 76, 0
8, 22240, Note_on_c, 2, 73, 52
8, 22240, Note_on_c, 2, 76, 52
8, 22275, Note_on_c, 2, 73, 0
8, 22275, Note_on_c, 2, 76, 0
8, 22280, Note_on_c, 2, 73, 52
8, 22280, Note_on_c, 2, 76, 52
8, 22315, Note_on_c, 2, 73, 0
8, 22315, Note_on_c, 2, 76, 0
8, 22360, Note_on_c, 2, 66, 68
8, 22360, Note_on_c, 2, 74, 68
8, 22395, Note_on_c, 2, 66, 0
8, 22395, Note_on_c, 2, 74, 0
8, 22400, Note_on_c, 2, 66, 52
8, 22400, Note_on_c, 2, 74, 52
8, 22435, Note_on_c, 2, 66, 0
8, 22435, Note_on_c, 2, 74, 0
8, 22440, Note_on_c, 2, 74, 52
8, 22440, Note_on_c, 2, 66, 52
8, 22475, Note_on_c, 2, 74, 0
8, 22475, Note_on_c, 2, 66, 0
8, 22480, Note_on_c, 2, 74, 52
8, 22480, Note_on_c, 2, 66, 52
8, 22515, Note_on_c, 2, 74, 0
8, 22515, Note_on_c, 2, 66, 0
8, 22520, Note_on_c, 2, 66, 52
8, 22520, Note_on_c, 2, 74, 52
8, 22555, Note_on_c, 2, 66, 0
8, 22555, Note_on_c, 2, 74, 0
8, 22560, Note_on_c, 2, 65, 52
8, 22560, Note_on_c, 2, 74, 52
8, 22595, Note_on_c, 2, 65, 0
8, 22595, Note_on_c, 2, 74, 0
8, 22600, Note_on_c, 2, 74, 52
8, 22600, Note_on_c, 2, 65, 52
8, 22635, Note_on_c, 2, 74, 0
8, 22635, Note_on_c, 2, 65, 0
8, 22640, Note_on_c, 2, 74, 52
8, 22640, Note_on_c, 2, 65, 52
8, 22675, Note_on_c, 2, 74, 0
8, 22675, Note_on_c, 2, 65, 0
8, 22680, Note_on_c, 2, 65, 52
8, 22680, Note_on_c, 2, 74, 52
8, 22715, Note_on_c, 2, 65, 0
8, 22715, Note_on_c, 2, 74, 0
8, 22720, Note_on_c, 2, 74, 52
8, 22720, Note_on_c, 2, 65, 52
8, 22755, Note_on_c, 2, 74, 0
8, 22755, Note_on_c, 2, 65, 0
8, 22760, Note_on_c, 2, 74, 52
8, 22760, Note_on_c, 2, 65, 52
8, 22795, Note_on_c, 2, 74, 0
8, 22795, Note_on_c, 2, 65, 0
8, 22800, Note_on_c, 2, 65, 52
8, 22800, Note_on_c, 2, 74, 52
8, 22835, Note_on_c, 2, 65, 0
8, 22835, Note_on_c, 2, 74, 0
8, 22840, Note_on_c, 2, 74, 52
8, 22840, Note_on_c, 2, 65, 52
8, 22875, Note_on_c, 2, 74, 0
8, 22875, Note_on_c, 2, 65, 0
8, 22880, Note_on_c, 2, 65, 52
8, 22880, Note_on_c, 2, 74, 52
8, 22915, Note_on_c, 2, 65, 0
8, 22915, Note_on_c, 2, 74, 0
8, 22920, Note_on_c, 2, 74, 52
8, 22920, Note_on_c, 2, 65, 52
8, 22955, Note_on_c, 2, 74, 0
8, 22955, Note_on_c, 2, 65, 0
8, 22960, Note_on_c, 2, 65, 52
8, 22960, Note_on_c, 2, 74, 52
8, 22995, Note_on_c, 2, 65, 0
8, 22995, Note_on_c, 2, 74, 0
8, 23000, Note_on_c, 2, 74, 52
8, 23000, Note_on_c, 2, 65, 52
8, 23035, Note_on_c, 2, 74, 0
8, 23035, Note_on_c, 2, 65, 0
8, 23080, Note_on_c, 2, 74, 68
8, 23080, Note_on_c, 2, 64, 68
8, 23115, Note_on_c, 2, 74, 0
8, 23115, Note_on_c, 2, 64, 0
8, 23120, Note_on_c, 2, 64, 52
8, 23120, Note_on_c, 2, 74, 52
8, 23155, Note_on_c, 2, 64, 0
8, 23155, Note_on_c, 2, 74, 0
8, 23160, Note_on_c, 2, 74, 52
8, 23160, Note_on_c, 2, 64, 52
8, 23195, Note_on_c, 2, 74, 0
8, 23195, Note_on_c, 2, 64, 0
8, 23200, Note_on_c, 2, 74, 52
8, 23200, Note_on_c, 2, 64, 52
8, 23235, Note_on_c, 2, 74, 0
8, 23235, Note_on_c, 2, 64, 0
8, 23240, Note_on_c, 2, 74, 52
8, 23240, Note_on_c, 2, 64, 52
8, 23275, Note_on_c, 2, 74, 0
8, 23275, Note_on_c, 2, 64, 0
8, 23280, Note_on_c, 2, 74, 52
8, 23280, Note_on_c, 2, 64, 52
8, 23315, Note_on_c, 2, 74, 0
8, 23315, Note_on_c, 2, 64, 0
8, 23320, Note_on_c, 2, 64, 52
8, 23320, Note_on_c, 2, 74, 52
8, 23355, Note_on_c, 2, 64, 0
8, 23355, Note_on_c, 2, 74, 0
8, 23360, Note_on_c, 2, 74, 52
8, 23360, Note_on_c, 2, 64, 52
8, 23395, Note_on_c, 2, 74, 0
8, 23395, Note_on_c, 2, 64, 0
8, 23400, Note_on_c, 2, 64, 52
8, 23400, Note_on_c, 2, 74, 52
8, 23435, Note_on_c, 2, 64, 0
8, 23435, Note_on_c, 2, 74, 0
8, 23440, Note_on_c, 2, 74, 52
8, 23440, Note_on_c, 2, 64, 52
8, 23475, Note_on_c, 2, 74, 0
8, 23475, Note_on_c, 2, 64, 0
8, 23480, Note_on_c, 2, 64, 52
8, 23480, Note_on_c, 2, 74, 52
8, 23515, Note_on_c, 2, 64, 0
8, 23515, Note_on_c, 2, 74, 0
8, 23520, Note_on_c, 2, 64, 52
8, 23520, Note_on_c, 2, 74, 52
8, 23555, Note_on_c, 2, 64, 0
8, 23555, Note_on_c, 2, 74, 0
8, 23560, Note_on_c, 2, 64, 52
8, 23560, Note_on_c, 2, 74, 52
8, 23595, Note_on_c, 2, 64, 0
8, 23595, Note_on_c, 2, 74, 0
8, 23600, Note_on_c, 2, 74, 52
8, 23600, Note_on_c, 2, 64, 52
8, 23635, Note_on_c, 2, 74, 0
8, 23635, Note_on_c, 2, 64, 0
8, 23640, Note_on_c, 2, 74, 52
8, 23640, Note_on_c, 2, 64, 52
8, 23675, Note_on_c, 2, 74, 0
8, 23675, Note_on_c, 2, 64, 0
8, 23680, Note_on_c, 2, 74, 52
8, 23680, Note_on_c, 2, 64, 52
8, 23715, Note_on_c, 2, 74, 0
8, 23715, Note_on_c, 2, 64, 0
8, 23720, Note_on_c, 2, 74, 52
8, 23720, Note_on_c, 2, 64, 52
8, 23755, Note_on_c, 2, 74, 0
8, 23755, Note_on_c, 2, 64, 0
8, 36960, Note_on_c, 2, 62, 76
8, 36960, Note_on_c, 2, 74, 76
8, 37904, Note_on_c, 2, 62, 0
8, 37904, Note_on_c, 2, 74, 0
8, 37920, Note_on_c, 2, 62, 84
8, 37920, Note_on_c, 2, 74, 84
8, 38864, Note_on_c, 2, 62, 0
8, 38864, Note_on_c, 2, 74, 0
8, 38880, Note_on_c, 2, 74, 76
8, 38880, Note_on_c, 2, 62, 76
8, 39119, Note_on_c, 2, 74, 0
8, 39119, Note_on_c, 2, 62, 0
8, 41280, Note_on_c, 2, 79, 84
8, 41280, Note_on_c, 2, 74, 84
8, 41759, Note_on_c, 2, 74, 0
8, 41760, Note_on_c, 2, 76, 76
8, 41984, Note_on_c, 2, 79, 0
8, 41984, Note_on_c, 2, 76, 0
8, 42000, Note_on_c, 2, 76, 76
8, 42000, Note_on_c, 2, 73, 76
8, 42179, Note_on_c, 2, 76, 0
8, 42179, Note_on_c, 2, 73, 0
8, 42240, Note_on_c, 2, 73, 76
8, 42240, Note_on_c, 2, 67, 76
8, 42419, Note_on_c, 2, 73, 0
8, 42419, Note_on_c, 2, 67, 0
8, 42480, Note_on_c, 2, 64, 76
8, 42480, Note_on_c, 2, 67, 76
8, 42659, Note_on_c, 2, 64, 0
8, 42659, Note_on_c, 2, 67, 0
8, 42720, Note_on_c, 2, 66, 76
8, 42720, Note_on_c, 2, 62, 76
8, 42959, Note_on_c, 2, 66, 0
8, 42959, Note_on_c, 2, 62, 0
8, 43200, Note_on_c, 2, 74, 84
8, 43200, Note_on_c, 2, 62, 84
8, 43904, Note_on_c, 2, 74, 0
8, 43904, Note_on_c, 2, 62, 0
8, 43920, Note_on_c, 2, 62, 76
8, 43920, Note_on_c, 2, 74, 76
8, 44144, Note_on_c, 2, 62, 0
8, 44144, Note_on_c, 2, 74, 0
8, 44160, Note_on_c, 2, 62, 76
8, 44160, Note_on_c, 2, 74, 76
8, 44384, Note_on_c, 2, 62, 0
8, 44384, Note_on_c, 2, 74, 0
8, 44400, Note_on_c, 2, 74, 76
8, 44400, Note_on_c, 2, 62, 76
8, 44624, Note_on_c, 2, 74, 0
8, 44624, Note_on_c, 2, 62, 0
8, 44640, Note_on_c, 2, 74, 76
8, 44640, Note_on_c, 2, 62, 76
8, 44879, Note_on_c, 2, 74, 0
8, 44879, Note_on_c, 2, 62, 0
8, 45120, Note_on_c, 2, 79, 84
8, 45120, Note_on_c, 2, 74, 84
8, 45599, Note_on_c, 2, 74, 0
8, 45600, Note_on_c, 2, 76, 76
8, 45824, Note_on_c, 2, 79, 0
8, 45824, Note_on_c, 2, 76, 0
8, 45840, Note_on_c, 2, 76, 76
8, 45840, Note_on_c, 2, 73, 76
8, 46019, Note_on_c, 2, 76, 0
8, 46019, Note_on_c, 2, 73, 0
8, 46080, Note_on_c, 2, 67, 76
8, 46080, Note_on_c, 2, 73, 76
8, 46259, Note_on_c, 2, 67, 0
8, 46259, Note_on_c, 2, 73, 0
8, 46320, Note_on_c, 2, 67, 76
8, 46320, Note_on_c, 2, 64, 76
8, 46499, Note_on_c, 2, 67, 0
8, 46499, Note_on_c, 2, 64, 0
8, 46560, Note_on_c, 2, 65, 76
8, 46560, Note_on_c, 2, 62, 76
8, 46799, Note_on_c, 2, 65, 0
8, 46799, Note_on_c, 2, 62, 0
8, 47460, Note_on_c, 2, 65, 76
8, 47460, Note_on_c, 2, 62, 76
8, 47511, Note_on_c, 2, 65, 0
8, 47511, Note_on_c, 2, 62, 0
8, 47520, Note_on_c, 2, 65, 84
8, 47520, Note_on_c, 2, 62, 84
8, 48719, Note_on_c, 2, 65, 0
8, 48719, Note_on_c, 2, 62, 0
8, 49380, Note_on_c, 2, 62, 76
8, 49380, Note_on_c, 2, 65, 76
8, 49431, Note_on_c, 2, 62, 0
8, 49431, Note_on_c, 2, 65, 0
8, 49440, Note_on_c, 2, 65, 84
8, 49440, Note_on_c, 2, 62, 84
8, 50399, Note_on_c, 2, 65, 0
8, 50400, Note_on_c, 2, 64, 76
8, 50639, Note_on_c, 2, 62, 0
8, 50639, Note_on_c, 2, 64, 0
8, 61920, Note_on_c, 2, 61, 52
8, 61920, Note_on_c, 2, 57, 52
8, 62384, Note_on_c, 2, 61, 0
8, 62384, Note_on_c, 2, 57, 0
8, 62400, Note_on_c, 2, 61, 52
8, 62400, Note_on_c, 2, 64, 52
8, 62811, Note_on_c, 2, 61, 0
8, 62811, Note_on_c, 2, 64, 0
8, 62820, Note_on_c, 2, 64, 52
8, 62820, Note_on_c, 2, 69, 52
8, 62871, Note_on_c, 2, 64, 0
8, 62871, Note_on_c, 2, 69, 0
8, 62880, Note_on_c, 2, 73, 52
8, 62880, Note_on_c, 2, 69, 52
8, 63584, Note_on_c, 2, 73, 0
8, 63584, Note_on_c, 2, 69, 0
8, 63600, Note_on_c, 2, 69, 52
8, 63600, Note_on_c, 2, 73, 52
8, 63779, Note_on_c, 2, 69, 0
8, 63779, Note_on_c, 2, 73, 0
8, 63780, Note_on_c, 2, 71, 52
8, 63780, Note_on_c, 2, 74, 52
8, 63831, Note_on_c, 2, 71, 0
8, 63831, Note_on_c, 2, 74, 0
8, 63840, Note_on_c, 2, 73, 52
8, 63840, Note_on_c, 2, 76, 52
8, 64019, Note_on_c, 2, 73, 0
8, 64019, Note_on_c, 2, 76, 0
8, 64080, Note_on_c, 2, 76, 52
8, 64080, Note_on_c, 2, 73, 52
8, 64259, Note_on_c, 2, 76, 0
8, 64259, Note_on_c, 2, 73, 0
8, 64320, Note_on_c, 2, 73, 52
8, 64320, Note_on_c, 2, 76, 52
8, 64499, Note_on_c, 2, 73, 0
8, 64499, Note_on_c, 2, 76, 0
8, 64560, Note_on_c, 2, 74, 52
8, 64560, Note_on_c, 2, 78, 52
8, 64739, Note_on_c, 2, 74, 0
8, 64739, Note_on_c, 2, 78, 0
8, 64800, Note_on_c, 2, 76, 52
8, 64800, Note_on_c, 2, 73, 52
8, 65279, Note_on_c, 2, 76, 0
8, 65279, Note_on_c, 2, 73, 0
8, 65280, Note_on_c, 2, 73, 52
8, 65280, Note_on_c, 2, 69, 52
8, 65519, Note_on_c, 2, 73, 0
8, 65519, Note_on_c, 2, 69, 0
8, 69600, Note_on_c, 2, 57, 52
8, 69600, Note_on_c, 2, 61, 52
8, 70064, Note_on_c, 2, 57, 0
8, 70064, Note_on_c, 2, 61, 0
8, 70080, Note_on_c, 2, 64, 52
8, 70080, Note_on_c, 2, 61, 52
8, 70491, Note_on_c, 2, 64, 0
8, 70491, Note_on_c, 2, 61, 0
8, 70500, Note_on_c, 2, 69, 52
8, 70500, Note_on_c, 2, 64, 52
8, 70551, Note_on_c, 2, 69, 0
8, 70551, Note_on_c, 2, 64, 0
8, 70560, Note_on_c, 2, 73, 52
8, 70560, Note_on_c, 2, 69, 52
8, 71264, Note_on_c, 2, 73, 0
8, 71264, Note_on_c, 2, 69, 0
8, 71280, Note_on_c, 2, 73, 52
8, 71280, Note_on_c, 2, 69, 52
8, 71459, Note_on_c, 2, 73, 0
8, 71459, Note_on_c, 2, 69, 0
8, 71460, Note_on_c, 2, 74, 52
8, 71460, Note_on_c, 2, 71, 52
8, 71511, Note_on_c, 2, 74, 0
8, 71511, Note_on_c, 2, 71, 0
8, 71520, Note_on_c, 2, 76, 52
8, 71520, Note_on_c, 2, 73, 52
8, 71699, Note_on_c, 2, 76, 0
8, 71699, Note_on_c, 2, 73, 0
8, 71760, Note_on_c, 2, 76, 52
8, 71760, Note_on_c, 2, 73, 52
8, 71939, Note_on_c, 2, 76, 0
8, 71939, Note_on_c, 2, 73, 0
8, 72000, Note_on_c, 2, 73, 52
8, 72000, Note_on_c, 2, 76, 52
8, 72179, Note_on_c, 2, 73, 0
8, 72179, Note_on_c, 2, 76, 0
8, 72240, Note_on_c, 2, 74, 52
8, 72240, Note_on_c, 2, 78, 52
8, 72419, Note_on_c, 2, 74, 0
8, 72419, Note_on_c, 2, 78, 0
8, 72480, Note_on_c, 2, 73, 52
8, 72480, Note_on_c, 2, 76, 52
8, 72959, Note_on_c, 2, 73, 0
8, 72959, Note_on_c, 2, 76, 0
8, 72960, Note_on_c, 2, 69, 52
8, 72960, Note_on_c, 2, 73, 52
8, 73049, Note_on_c, 2, 69, 0
8, 73049, Note_on_c, 2, 73, 0
8, 78240, Note_on_c, 2, 76, 92
8, 79184, Note_on_c, 2, 76, 0
8, 79200, Note_on_c, 2, 76, 92
8, 80144, Note_on_c, 2, 76, 0
8, 80160, Note_on_c, 2, 76, 92
8, 82064, Note_on_c, 2, 76, 0
8, 82080, Note_on_c, 2, 73, 92
8, 83024, Note_on_c, 2, 73, 0
8, 83040, Note_on_c, 2, 81, 92
8, 83040, Note_on_c, 2, 69, 92
8, 84239, Note_on_c, 2, 81, 0
8, 84239, Note_on_c, 2, 69, 0
8, 84420, Note_on_c, 2, 74, 84
8, 84420, Note_on_c, 2, 66, 84
8, 84471, Note_on_c, 2, 74, 0
8, 84471, Note_on_c, 2, 66, 0
8, 84480, Note_on_c, 2, 74, 84
8, 84480, Note_on_c, 2, 66, 84
8, 84959, Note_on_c, 2, 74, 0
8, 84959, Note_on_c, 2, 66, 0
8, 85380, Note_on_c, 2, 66, 84
8, 85380, Note_on_c, 2, 74, 84
8, 85431, Note_on_c, 2, 66, 0
8, 85431, Note_on_c, 2, 74, 0
8, 85440, Note_on_c, 2, 74, 84
8, 85440, Note_on_c, 2, 66, 84
8, 85919, Note_on_c, 2, 74, 0
8, 85919, Note_on_c, 2, 66, 0
8, 86160, Note_on_c, 2, 71, 84
8, 86160, Note_on_c, 2, 74, 84
8, 86399, Note_on_c, 2, 71, 0
8, 86399, Note_on_c, 2, 74, 0
8, 86640, Note_on_c, 2, 73, 84
8, 86640, Note_on_c, 2, 69, 84
8, 86879, Note_on_c, 2, 73, 0
8, 86879, Note_on_c, 2, 69, 0
8, 87120, Note_on_c, 2, 74, 84
8, 87120, Note_on_c, 2, 78, 84
8, 87359, Note_on_c, 2, 74, 0
8, 87359, Note_on_c, 2, 78, 0
8, 87600, Note_on_c, 2, 71, 84
8, 87600, Note_on_c, 2, 74, 84
8, 87839, Note_on_c, 2, 71, 0
8, 87839, Note_on_c, 2, 74, 0
8, 88260, Note_on_c, 2, 69, 84
8, 88260, Note_on_c, 2, 74, 84
8, 88311, Note_on_c, 2, 69, 0
8, 88311, Note_on_c, 2, 74, 0
8, 88320, Note_on_c, 2, 74, 84
8, 88320, Note_on_c, 2, 69, 84
8, 88799, Note_on_c, 2, 74, 0
8, 88799, Note_on_c, 2, 69, 0
8, 89220, Note_on_c, 2, 71, 84
8, 89220, Note_on_c, 2, 74, 84
8, 89271, Note_on_c, 2, 71, 0
8, 89271, Note_on_c, 2, 74, 0
8, 89280, Note_on_c, 2, 71, 84
8, 89280, Note_on_c, 2, 74, 84
8, 89759, Note_on_c, 2, 71, 0
8, 89759, Note_on_c, 2, 74, 0
8, 97440, Note_on_c, 2, 73, 84
8, 97440, Note_on_c, 2, 69, 84
8, 98384, Note_on_c, 2, 73, 0
8, 98384, Note_on_c, 2, 69, 0
8, 98400, Note_on_c, 2, 74, 84
8, 98400, Note_on_c, 2, 68, 84
8, 99104, Note_on_c, 2, 74, 0
8, 99104, Note_on_c, 2, 68, 0
8, 99120, Note_on_c, 2, 74, 84
8, 99120, Note_on_c, 2, 68, 84
8, 99344, Note_on_c, 2, 74, 0
8, 99344, Note_on_c, 2, 68, 0
8, 99360, Note_on_c, 2, 69, 84
8, 99360, Note_on_c, 2, 73, 84
8, 99599, Note_on_c, 2, 69, 0
8, 99599, Note_on_c, 2, 73, 0
8, 101280, Note_on_c, 2, 74, 84
8, 101984, Note_on_c, 2, 74, 0
8, 102000, Note_on_c, 2, 74, 84
8, 102179, Note_on_c, 2, 74, 0
8, 102240, Note_on_c, 2, 69, 84
8, 102419, Note_on_c, 2, 69, 0
8, 102480, Note_on_c, 2, 65, 84
8, 102659, Note_on_c, 2, 65, 0
8, 102720, Note_on_c, 2, 64, 84
8, 102899, Note_on_c, 2, 64, 0
8, 102960, Note_on_c, 2, 62, 84
8, 103139, Note_on_c, 2, 62, 0
8, 103200, Note_on_c, 2, 57, 84
8, 103439, Note_on_c, 2, 57, 0
8, 105120, Note_on_c, 2, 74, 84
8, 105824, Note_on_c, 2, 74, 0
8, 105840, Note_on_c, 2, 74, 84
8, 106019, Note_on_c, 2, 74, 0
8, 106080, Note_on_c, 2, 69, 84
8, 106259, Note_on_c, 2, 69, 0
8, 106320, Note_on_c, 2, 65, 84
8, 106499, Note_on_c, 2, 65, 0
8, 106560, Note_on_c, 2, 64, 84
8, 106739, Note_on_c, 2, 64, 0
8, 106800, Note_on_c, 2, 62, 84
8, 106979, Note_on_c, 2, 62, 0
8, 107760, Note_on_c, 2, 71, 76
8, 107760, Note_on_c, 2, 68, 76
8, 107999, Note_on_c, 2, 71, 0
8, 107999, Note_on_c, 2, 68, 0
8, 108000, Note_on_c, 2, 73, 52
8, 108000, Note_on_c, 2, 69, 52
8, 108239, Note_on_c, 2, 73, 0
8, 108239, Note_on_c, 2, 69, 0
8, 109680, Note_on_c, 2, 68, 76
8, 109680, Note_on_c, 2, 71, 76
8, 109919, Note_on_c, 2, 68, 0
8, 109919, Note_on_c, 2, 71, 0
8, 109920, Note_on_c, 2, 69, 52
8, 109920, Note_on_c, 2, 73, 52
8, 110159, Note_on_c, 2, 69, 0
8, 110159, Note_on_c, 2, 73, 0
8, 112800, Note_on_c, 2, 81, 84
8, 112800, Note_on_c, 2, 69, 84
8, 113744, Note_on_c, 2, 81, 0
8, 113744, Note_on_c, 2, 69, 0
8, 113760, Note_on_c, 2, 76, 84
8, 113760, Note_on_c, 2, 64, 84
8, 114224, Note_on_c, 2, 76, 0
8, 114224, Note_on_c, 2, 64, 0
8, 114240, Note_on_c, 2, 73, 84
8, 114240, Note_on_c, 2, 61, 84
8, 114704, Note_on_c, 2, 73, 0
8, 114704, Note_on_c, 2, 61, 0
8, 114720, Note_on_c, 2, 57, 84
8, 114720, Note_on_c, 2, 69, 84
8, 115664, Note_on_c, 2, 57, 0
8, 115664, Note_on_c, 2, 69, 0
8, 115680, Note_on_c, 2, 61, 84
8, 115680, Note_on_c, 2, 73, 84
8, 116144, Note_on_c, 2, 61, 0
8, 116144, Note_on_c, 2, 73, 0
8, 116160, Note_on_c, 2, 64, 84
8, 116160, Note_on_c, 2, 76, 84
8, 116624, Note_on_c, 2, 64, 0
8, 116624, Note_on_c, 2, 76, 0
8, 116640, Note_on_c, 2, 69, 84
8, 116640, Note_on_c, 2, 81, 84
8, 116879, Note_on_c, 2, 69, 0
8, 116879, Note_on_c, 2, 81, 0
8, 117120, Note_on_c, 2, 73, 76
8, 117120, Note_on_c, 2, 69, 76
8, 117359, Note_on_c, 2, 73, 0
8, 117359, Note_on_c, 2, 69, 0
8, 118080, Note_on_c, 2, 76, 76
8, 118080, Note_on_c, 2, 73, 76
8, 118319, Note_on_c, 2, 76, 0
8, 118319, Note_on_c, 2, 73, 0
8, 132960, Note_on_c, 2, 74, 76
8, 132960, Note_on_c, 2, 62, 76
8, 133904, Note_on_c, 2, 74, 0
8, 133904, Note_on_c, 2, 62, 0
8, 133920, Note_on_c, 2, 74, 84
8, 133920, Note_on_c, 2, 62, 84
8, 134864, Note_on_c, 2, 74, 0
8, 134864, Note_on_c, 2, 62, 0
8, 134880, Note_on_c, 2, 62, 76
8, 134880, Note_on_c, 2, 74, 76
8, 135119, Note_on_c, 2, 62, 0
8, 135119, Note_on_c, 2, 74, 0
8, 137280, Note_on_c, 2, 74, 84
8, 137280, Note_on_c, 2, 79, 84
8, 137759, Note_on_c, 2, 74, 0
8, 137760, Note_on_c, 2, 76, 76
8, 137984, Note_on_c, 2, 79, 0
8, 137984, Note_on_c, 2, 76, 0
8, 138000, Note_on_c, 2, 73, 76
8, 138000, Note_on_c, 2, 76, 76
8, 138179, Note_on_c, 2, 73, 0
8, 138179, Note_on_c, 2, 76, 0
8, 138240, Note_on_c, 2, 67, 76
8, 138240, Note_on_c, 2, 73, 76
8, 138419, Note_on_c, 2, 67, 0
8, 138419, Note_on_c, 2, 73, 0
8, 138480, Note_on_c, 2, 64, 76
8, 138480, Note_on_c, 2, 67, 76
8, 138659, Note_on_c, 2, 64, 0
8, 138659, Note_on_c, 2, 67, 0
8, 138720, Note_on_c, 2, 62, 76
8, 138720, Note_on_c, 2, 66, 76
8, 138959, Note_on_c, 2, 62, 0
8, 138959, Note_on_c, 2, 66, 0
8, 139200, Note_on_c, 2, 62, 84
8, 139200, Note_on_c, 2, 74, 84
8, 139904, Note_on_c, 2, 62, 0
8, 139904, Note_on_c, 2, 74, 0
8, 139920, Note_on_c, 2, 62, 76
8, 139920, Note_on_c, 2, 74, 76
8, 140144, Note_on_c, 2, 62, 0
8, 140144, Note_on_c, 2, 74, 0
8, 140160, Note_on_c, 2, 62, 76
8, 140160, Note_on_c, 2, 74, 76
8, 140384, Note_on_c, 2, 62, 0
8, 140384, Note_on_c, 2, 74, 0
8, 140400, Note_on_c, 2, 74, 76
8, 140400, Note_on_c, 2, 62, 76
8, 140624, Note_on_c, 2, 74, 0
8, 140624, Note_on_c, 2, 62, 0
8, 140640, Note_on_c, 2, 74, 76
8, 140640, Note_on_c, 2, 62, 76
8, 140879, Note_on_c, 2, 74, 0
8, 140879, Note_on_c, 2, 62, 0
8, 141120, Note_on_c, 2, 74, 84
8, 141120, Note_on_c, 2, 79, 84
8, 141599, Note_on_c, 2, 74, 0
8, 141600, Note_on_c, 2, 76, 76
8, 141824, Note_on_c, 2, 79, 0
8, 141824, Note_on_c, 2, 76, 0
8, 141840, Note_on_c, 2, 76, 76
8, 141840, Note_on_c, 2, 73, 76
8, 142019, Note_on_c, 2, 76, 0
8, 142019, Note_on_c, 2, 73, 0
8, 142080, Note_on_c, 2, 73, 76
8, 142080, Note_on_c, 2, 67, 76
8, 142259, Note_on_c, 2, 73, 0
8, 142259, Note_on_c, 2, 67, 0
8, 142320, Note_on_c, 2, 67, 76
8, 142320, Note_on_c, 2, 64, 76
8, 142499, Note_on_c, 2, 67, 0
8, 142499, Note_on_c, 2, 64, 0
8, 142560, Note_on_c, 2, 65, 76
8, 142560, Note_on_c, 2, 62, 76
8, 142799, Note_on_c, 2, 65, 0
8, 142799, Note_on_c, 2, 62, 0
8, 143460, Note_on_c, 2, 62, 76
8, 143460, Note_on_c, 2, 65, 76
8, 143511, Note_on_c, 2, 62, 0
8, 143511, Note_on_c, 2, 65, 0
8, 143520, Note_on_c, 2, 65, 84
8, 143520, Note_on_c, 2, 62, 84
8, 144719, Note_on_c, 2, 65, 0
8, 144719, Note_on_c, 2, 62, 0
8, 145380, Note_on_c, 2, 65, 76
8, 145380, Note_on_c, 2, 62, 76
8, 145431, Note_on_c, 2, 65, 0
8, 145431, Note_on_c, 2, 62, 0
8, 145440, Note_on_c, 2, 62, 84
8, 145440, Note_on_c, 2, 65, 84
8, 146399, Note_on_c, 2, 65, 0
8, 146400, Note_on_c, 2, 64, 76
8, 146639, Note_on_c, 2, 62, 0
8, 146639, Note_on_c, 2, 64, 0
8, 157920, Note_on_c, 2, 57, 52
8, 157920, Note_on_c, 2, 61, 52
8, 158384, Note_on_c, 2, 57, 0
8, 158384, Note_on_c, 2, 61, 0
8, 158400, Note_on_c, 2, 61, 52
8, 158400, Note_on_c, 2, 64, 52
8, 158811, Note_on_c, 2, 61, 0
8, 158811, Note_on_c, 2, 64, 0
8, 158820, Note_on_c, 2, 64, 52
8, 158820, Note_on_c, 2, 69, 52
8, 158871, Note_on_c, 2, 64, 0
8, 158871, Note_on_c, 2, 69, 0
8, 158880, Note_on_c, 2, 69, 52
8, 158880, Note_on_c, 2, 73, 52
8, 159584, Note_on_c, 2, 69, 0
8, 159584, Note_on_c, 2, 73, 0
8, 159600, Note_on_c, 2, 69, 52
8, 159600, Note_on_c, 2, 73, 52
8, 159779, Note_on_c, 2, 69, 0
8, 159779, Note_on_c, 2, 73, 0
8, 159780, Note_on_c, 2, 71, 52
8, 159780, Note_on_c, 2, 74, 52
8, 159831, Note_on_c, 2, 71, 0
8, 159831, Note_on_c, 2, 74, 0
8, 159840, Note_on_c, 2, 76, 52
8, 159840, Note_on_c, 2, 73, 52
8, 160019, Note_on_c, 2, 76, 0
8, 160019, Note_on_c, 2, 73, 0
8, 160080, Note_on_c, 2, 76, 52
8, 160080, Note_on_c, 2, 73, 52
8, 160259, Note_on_c, 2, 76, 0
8, 160259, Note_on_c, 2, 73, 0
8, 160320, Note_on_c, 2, 76, 52
8, 160320, Note_on_c, 2, 73, 52
8, 160499, Note_on_c, 2, 76, 0
8, 160499, Note_on_c, 2, 73, 0
8, 160560, Note_on_c, 2, 74, 52
8, 160560, Note_on_c, 2, 78, 52
8, 160739, Note_on_c, 2, 74, 0
8, 160739, Note_on_c, 2, 78, 0
8, 160800, Note_on_c, 2, 73, 52
8, 160800, Note_on_c, 2, 76, 52
8, 161279, Note_on_c, 2, 73, 0
8, 161279, Note_on_c, 2, 76, 0
8, 161280, Note_on_c, 2, 73, 52
8, 161280, Note_on_c, 2, 69, 52
8, 161519, Note_on_c, 2, 73, 0
8, 161519, Note_on_c, 2, 69, 0
8, 165600, Note_on_c, 2, 61, 52
8, 165600, Note_on_c, 2, 57, 52
8, 166064, Note_on_c, 2, 61, 0
8, 166064, Note_on_c, 2, 57, 0
8, 166080, Note_on_c, 2, 64, 52
8, 166080, Note_on_c, 2, 61, 52
8, 166491, Note_on_c, 2, 64, 0
8, 166491, Note_on_c, 2, 61, 0
8, 166500, Note_on_c, 2, 69, 52
8, 166500, Note_on_c, 2, 64, 52
8, 166551, Note_on_c, 2, 69, 0
8, 166551, Note_on_c, 2, 64, 0
8, 166560, Note_on_c, 2, 69, 52
8, 166560, Note_on_c, 2, 73, 52
8, 167264, Note_on_c, 2, 69, 0
8, 167264, Note_on_c, 2, 73, 0
8, 167280, Note_on_c, 2, 69, 52
8, 167280, Note_on_c, 2, 73, 52
8, 167459, Note_on_c, 2, 69, 0
8, 167459, Note_on_c, 2, 73, 0
8, 167460, Note_on_c, 2, 71, 52
8, 167460, Note_on_c, 2, 74, 52
8, 167511, Note_on_c, 2, 71, 0
8, 167511, Note_on_c, 2, 74, 0
8, 167520, Note_on_c, 2, 73, 52
8, 167520, Note_on_c, 2, 76, 52
8, 167699, Note_on_c, 2, 73, 0
8, 167699, Note_on_c, 2, 76, 0
8, 167760, Note_on_c, 2, 76, 52
8, 167760, Note_on_c, 2, 73, 52
8, 167939, Note_on_c, 2, 76, 0
8, 167939, Note_on_c, 2, 73, 0
8, 168000, Note_on_c, 2, 73, 52
8, 168000, Note_on_c, 2, 76, 52
8, 168179, Note_on_c, 2, 73, 0
8, 168179, Note_on_c, 2, 76, 0
8, 168240, Note_on_c, 2, 74, 52
8, 168240, Note_on_c, 2, 78, 52
8, 168419, Note_on_c, 2, 74, 0
8, 168419, Note_on_c, 2, 78, 0
8, 168480, Note_on_c, 2, 73, 52
8, 168480, Note_on_c, 2, 76, 52
8, 168959, Note_on_c, 2, 73, 0
8, 168959, Note_on_c, 2, 76, 0
8, 168960, Note_on_c, 2, 73, 52
8, 168960, Note_on_c, 2, 69, 52
8, 169049, Note_on_c, 2, 73, 0
8, 169049, Note_on_c, 2, 69, 0
8, 174240, Note_on_c, 2, 76, 92
8, 175184, Note_on_c, 2, 76, 0
8, 175200, Note_on_c, 2, 76, 92
8, 176144, Note_on_c, 2, 76, 0
8, 176160, Note_on_c, 2, 76, 92
8, 178064, Note_on_c, 2, 76, 0
8, 178080, Note_on_c, 2, 73, 92
8, 179024, Note_on_c, 2, 73, 0
8, 179040, Note_on_c, 2, 69, 92
8, 179040, Note_on_c, 2, 81, 92
8, 180239, Note_on_c, 2, 69, 0
8, 180239, Note_on_c, 2, 81, 0
8, 180420, Note_on_c, 2, 66, 84
8, 180420, Note_on_c, 2, 74, 84
8, 180471, Note_on_c, 2, 66, 0
8, 180471, Note_on_c, 2, 74, 0
8, 180480, Note_on_c, 2, 74, 84
8, 180480, Note_on_c, 2, 66, 84
8, 180959, Note_on_c, 2, 74, 0
8, 180959, Note_on_c, 2, 66, 0
8, 181380, Note_on_c, 2, 66, 84
8, 181380, Note_on_c, 2, 74, 84
8, 181431, Note_on_c, 2, 66, 0
8, 181431, Note_on_c, 2, 74, 0
8, 181440, Note_on_c, 2, 74, 84
8, 181440, Note_on_c, 2, 66, 84
8, 181919, Note_on_c, 2, 74, 0
8, 181919, Note_on_c, 2, 66, 0
8, 182160, Note_on_c, 2, 74, 84
8, 182160, Note_on_c, 2, 71, 84
8, 182399, Note_on_c, 2, 74, 0
8, 182399, Note_on_c, 2, 71, 0
8, 182640, Note_on_c, 2, 73, 84
8, 182640, Note_on_c, 2, 69, 84
8, 182879, Note_on_c, 2, 73, 0
8, 182879, Note_on_c, 2, 69, 0
8, 183120, Note_on_c, 2, 74, 84
8, 183120, Note_on_c, 2, 78, 84
8, 183359, Note_on_c, 2, 74, 0
8, 183359, Note_on_c, 2, 78, 0
8, 183600, Note_on_c, 2, 71, 84
8, 183600, Note_on_c, 2, 74, 84
8, 183839, Note_on_c, 2, 71, 0
8, 183839, Note_on_c, 2, 74, 0
8, 184260, Note_on_c, 2, 74, 84
8, 184260, Note_on_c, 2, 69, 84
8, 184311, Note_on_c, 2, 74, 0
8, 184311, Note_on_c, 2, 69, 0
8, 184320, Note_on_c, 2, 69, 84
8, 184320, Note_on_c, 2, 74, 84
8, 184799, Note_on_c, 2, 69, 0
8, 184799, Note_on_c, 2, 74, 0
8, 185220, Note_on_c, 2, 74, 84
8, 185220, Note_on_c, 2, 71, 84
8, 185271, Note_on_c, 2, 74, 0
8, 185271, Note_on_c, 2, 71, 0
8, 185280, Note_on_c, 2, 71, 84
8, 185280, Note_on_c, 2, 74, 84
8, 185759, Note_on_c, 2, 71, 0
8, 185759, Note_on_c, 2, 74, 0
8, 193440, Note_on_c, 2, 73, 84
8, 193440, Note_on_c, 2, 69, 84
8, 194384, Note_on_c, 2, 73, 0
8, 194384, Note_on_c, 2, 69, 0
8, 194400, Note_on_c, 2, 68, 84
8, 194400, Note_on_c, 2, 74, 84
8, 195104, Note_on_c, 2, 68, 0
8, 195104, Note_on_c, 2, 74, 0
8, 195120, Note_on_c, 2, 74, 84
8, 195120, Note_on_c, 2, 68, 84
8, 195344, Note_on_c, 2, 74, 0
8, 195344, Note_on_c, 2, 68, 0
8, 195360, Note_on_c, 2, 69, 84
8, 195360, Note_on_c, 2, 73, 84
8, 195599, Note_on_c, 2, 69, 0
8, 195599, Note_on_c, 2, 73, 0
8, 197280, Note_on_c, 2, 74, 84
8, 197984, Note_on_c, 2, 74, 0
8, 198000, Note_on_c, 2, 74, 84
8, 198179, Note_on_c, 2, 74, 0
8, 198240, Note_on_c, 2, 69, 84
8, 198419, Note_on_c, 2, 69, 0
8, 198480, Note_on_c, 2, 65, 84
8, 198659, Note_on_c, 2, 65, 0
8, 198720, Note_on_c, 2, 64, 84
8, 198899, Note_on_c, 2, 64, 0
8, 198960, Note_on_c, 2, 62, 84
8, 199139, Note_on_c, 2, 62, 0
8, 199200, Note_on_c, 2, 57, 84
8, 199439, Note_on_c, 2, 57, 0
8, 201120, Note_on_c, 2, 74, 84
8, 201824, Note_on_c, 2, 74, 0
8, 201840, Note_on_c, 2, 74, 84
8, 202019, Note_on_c, 2, 74, 0
8, 202080, Note_on_c, 2, 69, 84
8, 202259, Note_on_c, 2, 69, 0
8, 202320, Note_on_c, 2, 65, 84
8, 202499, Note_on_c, 2, 65, 0
8, 202560, Note_on_c, 2, 64, 84
8, 202739, Note_on_c, 2, 64, 0
8, 202800, Note_on_c, 2, 62, 84
8, 202979, Note_on_c, 2, 62, 0
8, 203760, Note_on_c, 2, 71, 76
8, 203760, Note_on_c, 2, 68, 76
8, 203999, Note_on_c, 2, 71, 0
8, 203999, Note_on_c, 2, 68, 0
8, 204000, Note_on_c, 2, 69, 52
8, 204000, Note_on_c, 2, 73, 52
8, 204239, Note_on_c, 2, 69, 0
8, 204239, Note_on_c, 2, 73, 0
8, 205680, Note_on_c, 2, 71, 76
8, 205680, Note_on_c, 2, 68, 76
8, 205919, Note_on_c, 2, 71, 0
8, 205919, Note_on_c, 2, 68, 0
8, 205920, Note_on_c, 2, 69, 52
8, 205920, Note_on_c, 2, 73, 52
8, 206159, Note_on_c, 2, 69, 0
8, 206159, Note_on_c, 2, 73, 0
8, 208800, Note_on_c, 2, 81, 84
8, 208800, Note_on_c, 2, 69, 84
8, 209744, Note_on_c, 2, 81, 0
8, 209744, Note_on_c, 2, 69, 0
8, 209760, Note_on_c, 2, 76, 84
8, 209760, Note_on_c, 2, 64, 84
8, 210224, Note_on_c, 2, 76, 0
8, 210224, Note_on_c, 2, 64, 0
8, 210240, Note_on_c, 2, 61, 84
8, 210240, Note_on_c, 2, 73, 84
8, 210704, Note_on_c, 2, 61, 0
8, 210704, Note_on_c, 2, 73, 0
8, 210720, Note_on_c, 2, 57, 84
8, 210720, Note_on_c, 2, 69, 84
8, 211664, Note_on_c, 2, 57, 0
8, 211664, Note_on_c, 2, 69, 0
8, 211680, Note_on_c, 2, 73, 84
8, 211680, Note_on_c, 2, 61, 84
8, 212144, Note_on_c, 2, 73, 0
8, 212144, Note_on_c, 2, 61, 0
8, 212160, Note_on_c, 2, 76, 84
8, 212160, Note_on_c, 2, 64, 84
8, 212624, Note_on_c, 2, 76, 0
8, 212624, Note_on_c, 2, 64, 0
8, 212640, Note_on_c, 2, 69, 84
8, 212640, Note_on_c, 2, 81, 84
8, 212879, Note_on_c, 2, 69, 0
8, 212879, Note_on_c, 2, 81, 0
8, 213120, Note_on_c, 2, 69, 76
8, 213120, Note_on_c, 2, 73, 76
8, 213359, Note_on_c, 2, 69, 0
8, 213359, Note_on_c, 2, 73, 0
8, 214080, Note_on_c, 2, 76, 76
8, 214080, Note_on_c, 2, 73, 76
8, 214319, Note_on_c, 2, 76, 0
8, 214319, Note_on_c, 2, 73, 0
8, 216960, Note_on_c, 2, 69, 76
8, 216960, Note_on_c, 2, 73, 76
8, 217199, Note_on_c, 2, 69, 0
8, 217199, Note_on_c, 2, 73, 0
8, 217920, Note_on_c, 2, 76, 76
8, 217920, Note_on_c, 2, 73, 76
8, 218159, Note_on_c, 2, 76, 0
8, 218159, Note_on_c, 2, 73, 0
8, 251520, Note_on_c, 2, 69, 92
8, 251520, Note_on_c, 2, 66, 92
8, 252224, Note_on_c, 2, 69, 0
8, 252224, Note_on_c, 2, 66, 0
8, 252240, Note_on_c, 2, 69, 84
8, 252240, Note_on_c, 2, 66, 84
8, 252464, Note_on_c, 2, 69, 0
8, 252464, Note_on_c, 2, 66, 0
8, 252480, Note_on_c, 2, 69, 84
8, 252480, Note_on_c, 2, 66, 84
8, 252704, Note_on_c, 2, 69, 0
8, 252704, Note_on_c, 2, 66, 0
8, 252720, Note_on_c, 2, 66, 84
8, 252720, Note_on_c, 2, 69, 84
8, 252944, Note_on_c, 2, 66, 0
8, 252944, Note_on_c, 2, 69, 0
8, 252960, Note_on_c, 2, 69, 84
8, 252960, Note_on_c, 2, 66, 84
8, 253199, Note_on_c, 2, 69, 0
8, 253199, Note_on_c, 2, 66, 0
8, 253440, Note_on_c, 2, 69, 92
8, 253440, Note_on_c, 2, 66, 92
8, 254144, Note_on_c, 2, 69, 0
8, 254144, Note_on_c, 2, 66, 0
8, 254160, Note_on_c, 2, 69, 84
8, 254160, Note_on_c, 2, 66, 84
8, 254384, Note_on_c, 2, 69, 0
8, 254384, Note_on_c, 2, 66, 0
8, 254400, Note_on_c, 2, 66, 84
8, 254400, Note_on_c, 2, 69, 84
8, 254624, Note_on_c, 2, 66, 0
8, 254624, Note_on_c, 2, 69, 0
8, 254640, Note_on_c, 2, 69, 84
8, 254640, Note_on_c, 2, 66, 84
8, 254864, Note_on_c, 2, 69, 0
8, 254864, Note_on_c, 2, 66, 0
8, 254880, Note_on_c, 2, 66, 84
8, 254880, Note_on_c, 2, 69, 84
8, 255119, Note_on_c, 2, 66, 0
8, 255119, Note_on_c, 2, 69, 0
8, 255360, Note_on_c, 2, 66, 92
8, 255360, Note_on_c, 2, 69, 92
8, 256064, Note_on_c, 2, 66, 0
8, 256064, Note_on_c, 2, 69, 0
8, 256080, Note_on_c, 2, 69, 84
8, 256080, Note_on_c, 2, 66, 84
8, 256304, Note_on_c, 2, 69, 0
8, 256304, Note_on_c, 2, 66, 0
8, 256320, Note_on_c, 2, 66, 84
8, 256320, Note_on_c, 2, 69, 84
8, 256544, Note_on_c, 2, 66, 0
8, 256544, Note_on_c, 2, 69, 0
8, 256560, Note_on_c, 2, 69, 84
8, 256560, Note_on_c, 2, 66, 84
8, 256784, Note_on_c, 2, 69, 0
8, 256784, Note_on_c, 2, 66, 0
8, 256800, Note_on_c, 2, 66, 84
8, 256800, Note_on_c, 2, 69, 84
8, 257039, Note_on_c, 2, 66, 0
8, 257039, Note_on_c, 2, 69, 0
8, 257280, Note_on_c, 2, 66, 92
8, 257280, Note_on_c, 2, 69, 92
8, 257984, Note_on_c, 2, 66, 0
8, 257984, Note_on_c, 2, 69, 0
8, 258000, Note_on_c, 2, 69, 84
8, 258000, Note_on_c, 2, 66, 84
8, 258224, Note_on_c, 2, 69, 0
8, 258224, Note_on_c, 2, 66, 0
8, 258240, Note_on_c, 2, 66, 84
8, 258240, Note_on_c, 2, 69, 84
8, 258464, Note_on_c, 2, 66, 0
8, 258464, Note_on_c, 2, 69, 0
8, 258480, Note_on_c, 2, 66, 84
8, 258480, Note_on_c, 2, 69, 84
8, 258704, Note_on_c, 2, 66, 0
8, 258704, Note_on_c, 2, 69, 0
8, 258720, Note_on_c, 2, 66, 84
8, 258720, Note_on_c, 2, 69, 84
8, 258959, Note_on_c, 2, 66, 0
8, 258959, Note_on_c, 2, 69, 0
8, 324720, Note_on_c, 2, 62, 52
8, 324720, Note_on_c, 2, 66, 52
8, 324899, Note_on_c, 2, 62, 0
8, 324899, Note_on_c, 2, 66, 0
8, 324900, Note_on_c, 2, 67, 52
8, 324900, Note_on_c, 2, 64, 52
8, 324951, Note_on_c, 2, 67, 0
8, 324951, Note_on_c, 2, 64, 0
8, 324960, Note_on_c, 2, 69, 52
8, 324960, Note_on_c, 2, 66, 52
8, 325139, Note_on_c, 2, 69, 0
8, 325139, Note_on_c, 2, 66, 0
8, 325200, Note_on_c, 2, 66, 52
8, 325200, Note_on_c, 2, 69, 52
8, 325379, Note_on_c, 2, 66, 0
8, 325379, Note_on_c, 2, 69, 0
8, 325440, Note_on_c, 2, 69, 52
8, 325440, Note_on_c, 2, 66, 52
8, 325619, Note_on_c, 2, 69, 0
8, 325619, Note_on_c, 2, 66, 0
8, 325680, Note_on_c, 2, 67, 52
8, 325680, Note_on_c, 2, 71, 52
8, 325859, Note_on_c, 2, 67, 0
8, 325859, Note_on_c, 2, 71, 0
8, 325920, Note_on_c, 2, 69, 52
8, 325920, Note_on_c, 2, 66, 52
8, 326399, Note_on_c, 2, 69, 0
8, 326399, Note_on_c, 2, 66, 0
8, 326400, Note_on_c, 2, 62, 52
8, 326400, Note_on_c, 2, 66, 52
8, 326639, Note_on_c, 2, 62, 0
8, 326639, Note_on_c, 2, 66, 0
8, 326880, Note_on_c, 2, 62, 84
8, 326880, Note_on_c, 2, 66, 84
8, 327344, Note_on_c, 2, 62, 0
8, 327344, Note_on_c, 2, 66, 0
8, 327360, Note_on_c, 2, 71, 84
8, 327360, Note_on_c, 2, 66, 84
8, 327771, Note_on_c, 2, 71, 0
8, 327771, Note_on_c, 2, 66, 0
8, 327780, Note_on_c, 2, 74, 84
8, 327780, Note_on_c, 2, 71, 84
8, 327831, Note_on_c, 2, 74, 0
8, 327831, Note_on_c, 2, 71, 0
8, 327840, Note_on_c, 2, 74, 92
8, 327840, Note_on_c, 2, 78, 92
8, 328559, Note_on_c, 2, 74, 0
8, 328559, Note_on_c, 2, 78, 0
8, 329760, Control_c, 2, 11, 96
8, 330000, Note_on_c, 2, 61, 68
8, 330000, Note_on_c, 2, 57, 68
8, 330000, Control_c, 2, 11, 96
8, 330060, Control_c, 2, 11, 99
8, 330120, Control_c, 2, 11, 101
8, 330180, Control_c, 2, 11, 104
8, 330239, Note_on_c, 2, 61, 0
8, 330239, Note_on_c, 2, 57, 0
8, 330240, Control_c, 2, 11, 106
8, 330240, Note_on_c, 2, 64, 68
8, 330240, Note_on_c, 2, 61, 68
8, 330300, Control_c, 2, 11, 109
8, 330360, Control_c, 2, 11, 112
8, 330420, Control_c, 2, 11, 114
8, 330479, Note_on_c, 2, 64, 0
8, 330479, Note_on_c, 2, 61, 0
8, 330480, Note_on_c, 2, 64, 68
8, 330480, Control_c, 2, 11, 117
8, 330480, Note_on_c, 2, 67, 68
8, 330540, Control_c, 2, 11, 119
8, 330600, Control_c, 2, 11, 122
8, 330660, Control_c, 2, 11, 124
8, 330704, Note_on_c, 2, 64, 0
8, 330704, Note_on_c, 2, 67, 0
8, 330720, Note_on_c, 2, 66, 52
8, 330720, Note_on_c, 2, 62, 52
8, 330720, Control_c, 2, 11, 127
8, 330959, Note_on_c, 2, 66, 0
8, 330959, Note_on_c, 2, 62, 0
8, 334560, Note_on_c, 2, 62, 84
8, 334560, Note_on_c, 2, 66, 84
8, 335024, Note_on_c, 2, 62, 0
8, 335024, Note_on_c, 2, 66, 0
8, 335040, Note_on_c, 2, 66, 84
8, 335040, Note_on_c, 2, 71, 84
8, 335451, Note_on_c, 2, 66, 0
8, 335451, Note_on_c, 2, 71, 0
8, 335460, Note_on_c, 2, 71, 84
8, 335460, Note_on_c, 2, 74, 84
8, 335511, Note_on_c, 2, 71, 0
8, 335511, Note_on_c, 2, 74, 0
8, 335520, Note_on_c, 2, 74, 92
8, 335520, Note_on_c, 2, 78, 92
8, 336224, Note_on_c, 2, 74, 0
8, 336224, Note_on_c, 2, 78, 0
8, 336240, Note_on_c, 2, 66, 84
8, 336240, Note_on_c, 2, 74, 84
8, 336419, Note_on_c, 2, 66, 0
8, 336419, Note_on_c, 2, 74, 0
8, 336420, Note_on_c, 2, 62, 84
8, 336420, Note_on_c, 2, 71, 84
8, 336471, Note_on_c, 2, 62, 0
8, 336471, Note_on_c, 2, 71, 0
8, 336480, Note_on_c, 2, 69, 84
8, 336480, Note_on_c, 2, 61, 84
8, 336704, Note_on_c, 2, 69, 0
8, 336704, Note_on_c, 2, 61, 0
8, 336720, Note_on_c, 2, 73, 92
8, 336720, Note_on_c, 2, 69, 92
8, 336959, Note_on_c, 2, 73, 0
8, 336959, Note_on_c, 2, 69, 0
8, 337200, Note_on_c, 2, 74, 92
8, 337200, Note_on_c, 2, 68, 92
8, 337424, Note_on_c, 2, 74, 0
8, 337424, Note_on_c, 2, 68, 0
8, 337440, Note_on_c, 2, 73, 84
8, 337440, Note_on_c, 2, 69, 84
8, 337679, Note_on_c, 2, 73, 0
8, 337679, Note_on_c, 2, 69, 0
8, 339360, Note_on_c, 2, 69, 92
8, 339360, Note_on_c, 2, 81, 92
8, 340304, Note_on_c, 2, 69, 0
8, 340304, Note_on_c, 2, 81, 0
8, 340320, Note_on_c, 2, 69, 92
8, 340320, Note_on_c, 2, 81, 92
8, 341264, Note_on_c, 2, 69, 0
8, 341264, Note_on_c, 2, 81, 0
8, 341280, Note_on_c, 2, 81, 92
8, 341280, Note_on_c, 2, 69, 92
8, 343184, Note_on_c, 2, 81, 0
8, 343184, Note_on_c, 2, 69, 0
8, 343200, Note_on_c, 2, 78, 92
8, 343200, Note_on_c, 2, 66, 92
8, 344144, Note_on_c, 2, 78, 0
8, 344144, Note_on_c, 2, 66, 0
8, 344160, Note_on_c, 2, 62, 92
8, 344160, Note_on_c, 2, 74, 92
8, 345359, Note_on_c, 2, 62, 0
8, 345359, Note_on_c, 2, 74, 0
8, 345540, Note_on_c, 2, 79, 84
8, 345540, Note_on_c, 2, 71, 84
8, 345591, Note_on_c, 2, 79, 0
8, 345591, Note_on_c, 2, 71, 0
8, 345600, Note_on_c, 2, 71, 84
8, 345600, Note_on_c, 2, 79, 84
8, 346079, Note_on_c, 2, 71, 0
8, 346079, Note_on_c, 2, 79, 0
8, 346500, Note_on_c, 2, 71, 84
8, 346500, Note_on_c, 2, 79, 84
8, 346551, Note_on_c, 2, 71, 0
8, 346551, Note_on_c, 2, 79, 0
8, 346560, Note_on_c, 2, 71, 84
8, 346560, Note_on_c, 2, 79, 84
8, 347039, Note_on_c, 2, 71, 0
8, 347039, Note_on_c, 2, 79, 0
8, 347280, Note_on_c, 2, 76, 84
8, 347280, Note_on_c, 2, 69, 84
8, 347459, Note_on_c, 2, 76, 0
8, 347459, Note_on_c, 2, 69, 0
8, 347760, Note_on_c, 2, 69, 84
8, 347760, Note_on_c, 2, 74, 84
8, 347939, Note_on_c, 2, 69, 0
8, 347939, Note_on_c, 2, 74, 0
8, 348240, Note_on_c, 2, 71, 84
8, 348240, Note_on_c, 2, 76, 84
8, 348419, Note_on_c, 2, 71, 0
8, 348419, Note_on_c, 2, 76, 0
8, 348720, Note_on_c, 2, 67, 84
8, 348720, Note_on_c, 2, 73, 84
8, 348899, Note_on_c, 2, 67, 0
8, 348899, Note_on_c, 2, 73, 0
8, 349380, Note_on_c, 2, 67, 84
8, 349380, Note_on_c, 2, 70, 84
8, 349431, Note_on_c, 2, 67, 0
8, 349431, Note_on_c, 2, 70, 0
8, 349440, Note_on_c, 2, 70, 84
8, 349440, Note_on_c, 2, 67, 84
8, 349919, Note_on_c, 2, 70, 0
8, 349919, Note_on_c, 2, 67, 0
8, 350340, Note_on_c, 2, 70, 84
8, 350340, Note_on_c, 2, 67, 84
8, 350391, Note_on_c, 2, 70, 0
8, 350391, Note_on_c, 2, 67, 0
8, 350400, Note_on_c, 2, 67, 84
8, 350400, Note_on_c, 2, 70, 84
8, 350879, Note_on_c, 2, 67, 0
8, 350879, Note_on_c, 2, 70, 0
8, 358560, Note_on_c, 2, 66, 84
8, 358560, Note_on_c, 2, 74, 84
8, 359504, Note_on_c, 2, 66, 0
8, 359504, Note_on_c, 2, 74, 0
8, 359520, Note_on_c, 2, 67, 84
8, 359520, Note_on_c, 2, 76, 84
8, 360224, Note_on_c, 2, 67, 0
8, 360224, Note_on_c, 2, 76, 0
8, 360240, Note_on_c, 2, 67, 84
8, 360240, Note_on_c, 2, 64, 84
8, 360464, Note_on_c, 2, 67, 0
8, 360464, Note_on_c, 2, 64, 0
8, 360480, Note_on_c, 2, 66, 84
8, 360480, Note_on_c, 2, 62, 84
8, 360719, Note_on_c, 2, 66, 0
8, 360719, Note_on_c, 2, 62, 0
8, 368400, Note_on_c, 2, 62, 52
8, 368400, Note_on_c, 2, 67, 52
8, 368639, Note_on_c, 2, 62, 0
8, 368639, Note_on_c, 2, 67, 0
8, 368640, Note_on_c, 2, 66, 52
8, 368640, Note_on_c, 2, 69, 52
8, 368879, Note_on_c, 2, 66, 0
8, 368879, Note_on_c, 2, 69, 0
8, 368880, Note_on_c, 2, 67, 76
8, 368880, Note_on_c, 2, 70, 76
8, 369104, Note_on_c, 2, 67, 0
8, 369104, Note_on_c, 2, 70, 0
8, 369120, Note_on_c, 2, 66, 52
8, 369120, Note_on_c, 2, 69, 52
8, 369359, Note_on_c, 2, 66, 0
8, 369359, Note_on_c, 2, 69, 0
8, 370320, Note_on_c, 2, 62, 52
8, 370320, Note_on_c, 2, 67, 52
8, 370559, Note_on_c, 2, 62, 0
8, 370559, Note_on_c, 2, 67, 0
8, 370560, Note_on_c, 2, 69, 52
8, 370560, Note_on_c, 2, 66, 52
8, 370799, Note_on_c, 2, 69, 0
8, 370799, Note_on_c, 2, 66, 0
8, 370800, Note_on_c, 2, 70, 76
8, 370800, Note_on_c, 2, 67, 76
8, 371024, Note_on_c, 2, 70, 0
8, 371024, Note_on_c, 2, 67, 0
8, 371040, Note_on_c, 2, 66, 52
8, 371040, Note_on_c, 2, 69, 52
8, 371279, Note_on_c, 2, 66, 0
8, 371279, Note_on_c, 2, 69, 0
8, 372240, Note_on_c, 2, 70, 76
8, 372240, Note_on_c, 2, 67, 76
8, 372419, Note_on_c, 2, 70, 0
8, 372419, Note_on_c, 2, 67, 0
8, 372480, Note_on_c, 2, 69, 52
8, 372480, Note_on_c, 2, 66, 52
8, 372659, Note_on_c, 2, 69, 0
8, 372659, Note_on_c, 2, 66, 0
8, 372720, Note_on_c, 2, 70, 76
8, 372720, Note_on_c, 2, 67, 76
8, 372899, Note_on_c, 2, 70, 0
8, 372899, Note_on_c, 2, 67, 0
8, 372960, Note_on_c, 2, 69, 52
8, 372960, Note_on_c, 2, 66, 52
8, 373139, Note_on_c, 2, 69, 0
8, 373139, Note_on_c, 2, 66, 0
8, 373200, Note_on_c, 2, 70, 76
8, 373200, Note_on_c, 2, 67, 76
8, 373379, Note_on_c, 2, 70, 0
8, 373379, Note_on_c, 2, 67, 0
8, 373440, Note_on_c, 2, 69, 52
8, 373440, Note_on_c, 2, 66, 52
8, 373619, Note_on_c, 2, 69, 0
8, 373619, Note_on_c, 2, 66, 0
8, 373680, Note_on_c, 2, 67, 76
8, 373680, Note_on_c, 2, 70, 76
8, 373859, Note_on_c, 2, 67, 0
8, 373859, Note_on_c, 2, 70, 0
8, 373920, Note_on_c, 2, 69, 84
8, 373920, Note_on_c, 2, 66, 84
8, 374159, Note_on_c, 2, 69, 0
8, 374159, Note_on_c, 2, 66, 0
8, 374400, Note_on_c, 2, 62, 84
8, 374400, Note_on_c, 2, 74, 84
8, 374864, Note_on_c, 2, 62, 0
8, 374864, Note_on_c, 2, 74, 0
8, 374880, Note_on_c, 2, 69, 84
8, 374880, Note_on_c, 2, 57, 84
8, 375344, Note_on_c, 2, 69, 0
8, 375344, Note_on_c, 2, 57, 0
8, 375360, Note_on_c, 2, 54, 84
8, 375360, Note_on_c, 2, 66, 84
8, 375824, Note_on_c, 2, 54, 0
8, 375824, Note_on_c, 2, 66, 0
8, 375840, Note_on_c, 2, 62, 84
8, 376784, Note_on_c, 2, 62, 0
8, 376800, Note_on_c, 2, 66, 84
8, 377264, Note_on_c, 2, 66, 0
8, 377280, Note_on_c, 2, 69, 84
8, 377744, Note_on_c, 2, 69, 0
8, 377760, Note_on_c, 2, 74, 84
8, 377999, Note_on_c, 2, 74, 0
8, 378240, Note_on_c, 2, 66, 76
8, 378240, Note_on_c, 2, 69, 76
8, 378479, Note_on_c, 2, 66, 0
8, 378479, Note_on_c, 2, 69, 0
8, 379200, Note_on_c, 2, 69, 76
8, 379200, Note_on_c, 2, 72, 76
8, 379439, Note_on_c, 2, 69, 0
8, 379439, Note_on_c, 2, 72, 0
8, 379680, Note_on_c, 2, 72, 52
8, 379680, Note_on_c, 2, 76, 52
8, 380399, Note_on_c, 2, 72, 0
8, 380399, Note_on_c, 2, 76, 0
8, 380400, Note_on_c, 2, 74, 52
8, 380400, Note_on_c, 2, 71, 52
8, 380639, Note_on_c, 2, 74, 0
8, 380639, Note_on_c, 2, 71, 0
8, 380640, Note_on_c, 2, 72, 52
8, 380640, Note_on_c, 2, 69, 52
8, 380879, Note_on_c, 2, 72, 0
8, 380879, Note_on_c, 2, 69, 0
8, 380880, Note_on_c, 2, 67, 52
8, 380880, Note_on_c, 2, 71, 52
8, 381119, Note_on_c, 2, 67, 0
8, 381119, Note_on_c, 2, 71, 0
8, 381120, Note_on_c, 2, 66, 52
8, 381120, Note_on_c, 2, 69, 52
8, 381359, Note_on_c, 2, 66, 0
8, 381359, Note_on_c, 2, 69, 0
8, 381360, Note_on_c, 2, 62, 52
8, 381360, Note_on_c, 2, 69, 52
8, 381584, Note_on_c, 2, 62, 0
8, 381584, Note_on_c, 2, 69, 0
8, 381600, Note_on_c, 2, 62, 52
8, 381600, Note_on_c, 2, 67, 52
8, 381839, Note_on_c, 2, 62, 0
8, 381839, Note_on_c, 2, 67, 0
8, 389520, Note_on_c, 2, 69, 84
8, 389639, Note_on_c, 2, 69, 0
8, 389640, Note_on_c, 2, 67, 76
8, 389759, Note_on_c, 2, 67, 0
8, 389760, Note_on_c, 2, 66, 76
8, 389879, Note_on_c, 2, 66, 0
8, 389880, Note_on_c, 2, 64, 76
8, 389999, Note_on_c, 2, 64, 0
8, 390000, Note_on_c, 2, 62, 76
8, 390119, Note_on_c, 2, 62, 0
8, 390120, Note_on_c, 2, 60, 76
8, 390224, Note_on_c, 2, 60, 0
8, 390240, Note_on_c, 2, 59, 76
8, 390464, Note_on_c, 2, 59, 0
8, 390480, Note_on_c, 2, 71, 84
8, 390599, Note_on_c, 2, 71, 0
8, 390600, Note_on_c, 2, 69, 76
8, 390719, Note_on_c, 2, 69, 0
8, 390720, Note_on_c, 2, 67, 76
8, 390839, Note_on_c, 2, 67, 0
8, 390840, Note_on_c, 2, 66, 76
8, 390959, Note_on_c, 2, 66, 0
8, 390960, Note_on_c, 2, 64, 76
8, 391079, Note_on_c, 2, 64, 0
8, 391080, Note_on_c, 2, 62, 76
8, 391184, Note_on_c, 2, 62, 0
8, 391200, Note_on_c, 2, 61, 76
8, 391439, Note_on_c, 2, 61, 0
8, 393120, Note_on_c, 2, 67, 84
8, 393120, Note_on_c, 2, 64, 84
8, 394079, Note_on_c, 2, 67, 0
8, 394079, Note_on_c, 2, 64, 0
8, 395040, Note_on_c, 2, 74, 84
8, 395040, Note_on_c, 2, 65, 84
8, 395984, Note_on_c, 2, 65, 0
8, 396000, Note_on_c, 2, 64, 84
8, 396464, Note_on_c, 2, 74, 0
8, 396480, Note_on_c, 2, 73, 84
8, 396944, Note_on_c, 2, 64, 0
8, 396944, Note_on_c, 2, 73, 0
8, 396960, Note_on_c, 2, 62, 84
8, 396960, Note_on_c, 2, 74, 84
8, 397199, Note_on_c, 2, 62, 0
8, 397199, Note_on_c, 2, 74, 0
8, 398880, Note_on_c, 2, 72, 84
8, 398880, Note_on_c, 2, 69, 84
8, 399839, Note_on_c, 2, 72, 0
8, 399839, Note_on_c, 2, 69, 0
8, 401280, Note_on_c, 2, 72, 84
8, 401280, Note_on_c, 2, 69, 84
8, 401759, Note_on_c, 2, 72, 0
8, 401759, Note_on_c, 2, 69, 0
8, 402240, Note_on_c, 2, 69, 84
8, 402240, Note_on_c, 2, 72, 84
8, 402704, Note_on_c, 2, 69, 0
8, 402704, Note_on_c, 2, 72, 0
8, 402720, Note_on_c, 2, 72, 84
8, 402720, Note_on_c, 2, 69, 84
8, 403184, Note_on_c, 2, 72, 0
8, 403184, Note_on_c, 2, 69, 0
8, 403200, Note_on_c, 2, 72, 84
8, 403200, Note_on_c, 2, 69, 84
8, 403664, Note_on_c, 2, 72, 0
8, 403664, Note_on_c, 2, 69, 0
8, 403680, Note_on_c, 2, 69, 84
8, 403680, Note_on_c, 2, 72, 84
8, 404624, Note_on_c, 2, 69, 0
8, 404624, Note_on_c, 2, 72, 0
8, 404640, Note_on_c, 2, 60, 84
8, 404640, Note_on_c, 2, 72, 84
8, 405104, Note_on_c, 2, 60, 0
8, 405104, Note_on_c, 2, 72, 0
8, 405120, Note_on_c, 2, 60, 84
8, 405120, Note_on_c, 2, 72, 84
8, 405584, Note_on_c, 2, 60, 0
8, 405584, Note_on_c, 2, 72, 0
8, 405600, Note_on_c, 2, 60, 84
8, 405600, Note_on_c, 2, 72, 84
8, 406544, Note_on_c, 2, 60, 0
8, 406544, Note_on_c, 2, 72, 0
8, 406560, Note_on_c, 2, 78, 84
8, 406560, Note_on_c, 2, 66, 84
8, 407024, Note_on_c, 2, 78, 0
8, 407024, Note_on_c, 2, 66, 0
8, 407040, Note_on_c, 2, 66, 84
8, 407040, Note_on_c, 2, 78, 84
8, 407504, Note_on_c, 2, 66, 0
8, 407504, Note_on_c, 2, 78, 0
8, 407520, Note_on_c, 2, 78, 84
8, 407520, Note_on_c, 2, 66, 84
8, 408464, Note_on_c, 2, 78, 0
8, 408464, Note_on_c, 2, 66, 0
8, 408480, Note_on_c, 2, 66, 84
8, 408480, Note_on_c, 2, 78, 84
8, 408944, Note_on_c, 2, 66, 0
8, 408944, Note_on_c, 2, 78, 0
8, 408960, Note_on_c, 2, 66, 84
8, 408960, Note_on_c, 2, 78, 84
8, 409424, Note_on_c, 2, 66, 0
8, 409424, Note_on_c, 2, 78, 0
8, 409440, Note_on_c, 2, 66, 84
8, 409440, Note_on_c, 2, 78, 84
8, 410384, Note_on_c, 2, 66, 0
8, 410384, Note_on_c, 2, 78, 0
8, 410400, Note_on_c, 2, 71, 84
8, 410400, Note_on_c, 2, 78, 84
8, 410864, Note_on_c, 2, 71, 0
8, 410864, Note_on_c, 2, 78, 0
8, 410880, Note_on_c, 2, 76, 84
8, 411360, Note_on_c, 2, 78, 84
8, 411824, Note_on_c, 2, 76, 0
8, 411840, Note_on_c, 2, 74, 84
8, 412304, Note_on_c, 2, 78, 0
8, 412304, Note_on_c, 2, 74, 0
8, 412320, Note_on_c, 2, 76, 92
8, 412320, Note_on_c, 2, 74, 92
8, 413264, Note_on_c, 2, 76, 0
8, 413264, Note_on_c, 2, 74, 0
8, 413280, Note_on_c, 2, 73, 92
8, 413280, Note_on_c, 2, 76, 92
8, 413744, Note_on_c, 2, 73, 0
8, 413744, Note_on_c, 2, 76, 0
8, 413760, Note_on_c, 2, 67, 84
8, 413760, Note_on_c, 2, 73, 84
8, 414224, Note_on_c, 2, 67, 0
8, 414224, Note_on_c, 2, 73, 0
8, 414240, Note_on_c, 2, 66, 84
8, 414240, Note_on_c, 2, 74, 84
8, 414479, Note_on_c, 2, 66, 0
8, 414479, Note_on_c, 2, 74, 0
8, 417600, Note_on_c, 2, 79, 84
8, 417689, Note_on_c, 2, 79, 0
8, 417720, Note_on_c, 2, 76, 84
8, 417809, Note_on_c, 2, 76, 0
8, 417840, Note_on_c, 2, 73, 84
8, 417929, Note_on_c, 2, 73, 0
8, 417960, Note_on_c, 2, 69, 84
8, 418049, Note_on_c, 2, 69, 0
8, 418080, Note_on_c, 2, 62, 84
8, 418080, Note_on_c, 2, 74, 84
8, 418784, Note_on_c, 2, 62, 0
8, 418784, Note_on_c, 2, 74, 0
8, 418800, Note_on_c, 2, 62, 92
8, 419039, Note_on_c, 2, 62, 0
8, 419280, Note_on_c, 2, 66, 92
8, 419519, Note_on_c, 2, 66, 0
8, 419760, Note_on_c, 2, 69, 92
8, 419999, Note_on_c, 2, 69, 0
8, 420240, Note_on_c, 2, 74, 92
8, 420479, Note_on_c, 2, 74, 0
8, 421440, Note_on_c, 2, 79, 84
8, 421529, Note_on_c, 2, 79, 0
8, 421560, Note_on_c, 2, 76, 84
8, 421649, Note_on_c, 2, 76, 0
8, 421680, Note_on_c, 2, 73, 84
8, 421769, Note_on_c, 2, 73, 0
8, 421800, Note_on_c, 2, 69, 84
8, 421889, Note_on_c, 2, 69, 0
8, 421920, Note_on_c, 2, 74, 84
8, 422144, Note_on_c, 2, 74, 0
8, 422160, Note_on_c, 2, 74, 84
8, 422160, Note_on_c, 2, 66, 84
8, 422399, Note_on_c, 2, 74, 0
8, 422399, Note_on_c, 2, 66, 0
8, 422640, Note_on_c, 2, 74, 84
8, 422640, Note_on_c, 2, 66, 84
8, 422879, Note_on_c, 2, 74, 0
8, 422879, Note_on_c, 2, 66, 0
8, 423120, Note_on_c, 2, 64, 84
8, 423120, Note_on_c, 2, 74, 84
8, 423344, Note_on_c, 2, 64, 0
8, 423344, Note_on_c, 2, 74, 0
8, 423360, Note_on_c, 2, 79, 84
8, 423449, Note_on_c, 2, 79, 0
8, 423480, Note_on_c, 2, 76, 84
8, 423569, Note_on_c, 2, 76, 0
8, 423600, Note_on_c, 2, 73, 84
8, 423689, Note_on_c, 2, 73, 0
8, 423720, Note_on_c, 2, 69, 84
8, 423809, Note_on_c, 2, 69, 0
8, 423840, Note_on_c, 2, 62, 76
8, 423840, Note_on_c, 2, 74, 76
8, 424559, Note_on_c, 2, 62, 0
8, 424559, Note_on_c, 2, 74, 0
8, 428100, Note_on_c, 2, 74, 76
8, 428100, Note_on_c, 2, 66, 76
8, 428144, Note_on_c, 2, 74, 0
8, 428144, Note_on_c, 2, 66, 0
8, 428160, Note_on_c, 2, 66, 76
8, 428160, Note_on_c, 2, 74, 76
8, 428339, Note_on_c, 2, 66, 0
8, 428339, Note_on_c, 2, 74, 0
8, 429060, Note_on_c, 2, 73, 76
8, 429060, Note_on_c, 2, 64, 76
8, 429104, Note_on_c, 2, 73, 0
8, 429104, Note_on_c, 2, 64, 0
8, 429120, Note_on_c, 2, 64, 76
8, 429120, Note_on_c, 2, 73, 76
8, 429299, Note_on_c, 2, 64, 0
8, 429299, Note_on_c, 2, 73, 0
8, 430020, Note_on_c, 2, 66, 76
8, 430020, Note_on_c, 2, 74, 76
8, 430064, Note_on_c, 2, 66, 0
8, 430064, Note_on_c, 2, 74, 0
8, 430080, Note_on_c, 2, 66, 76
8, 430080, Note_on_c, 2, 74, 76
8, 430259, Note_on_c, 2, 66, 0
8, 430259, Note_on_c, 2, 74, 0
8, 430980, Note_on_c, 2, 64, 76
8, 430980, Note_on_c, 2, 73, 76
8, 431024, Note_on_c, 2, 64, 0
8, 431024, Note_on_c, 2, 73, 0
8, 431040, Note_on_c, 2, 64, 76
8, 431040, Note_on_c, 2, 73, 76
8, 431219, Note_on_c, 2, 64, 0
8, 431219, Note_on_c, 2, 73, 0
8, 431520, Note_on_c, 2, 74, 76
8, 431520, Note_on_c, 2, 66, 76
8, 431759, Note_on_c, 2, 74, 0
8, 431759, Note_on_c, 2, 66, 0
8, 432420, Note_on_c, 2, 74, 84
8, 432420, Note_on_c, 2, 62, 84
8, 432471, Note_on_c, 2, 74, 0
8, 432471, Note_on_c, 2, 62, 0
8, 432480, Note_on_c, 2, 74, 84
8, 432480, Note_on_c, 2, 62, 84
8, 432719, Note_on_c, 2, 74, 0
8, 432719, Note_on_c, 2, 62, 0
8, 432960, Note_on_c, 2, 74, 84
8, 432960, Note_on_c, 2, 62, 84
8, 433199, Note_on_c, 2, 74, 0
8, 433199, Note_on_c, 2, 62, 0
8, 433440, Note_on_c, 2, 74, 84
8, 433440, Note_on_c, 2, 62, 84
8, 434399, Note_on_c, 2, 74, 0
8, 434399, Note_on_c, 2, 62, 0
8, 434399, End_track
9, 0, Start_track
9, 0, Title_t, "Bassoon"
9, 0, MIDI_port, 0
9, 0, Program_c, 3, 70
9, 0, Control_c, 3, 7, 96
9, 0, Control_c, 3, 10, 65
9, 0, Control_c, 3, 11, 127
9, 690, Note_on_c, 3, 62, 84
9, 690, Note_on_c, 3, 50, 84
9, 715, Note_on_c, 3, 62, 0
9, 715, Note_on_c, 3, 50, 0
9, 720, Note_on_c, 3, 50, 84
9, 720, Note_on_c, 3, 62, 84
9, 1064, Note_on_c, 3, 50, 0
9, 1064, Note_on_c, 3, 62, 0
9, 1076, Control_c, 3, 11, 64
9, 1080, Note_on_c, 3, 57, 84
9, 1080, Note_on_c, 3, 50, 84
9, 1199, Note_on_c, 3, 57, 0
9, 1199, Note_on_c, 3, 50, 0
9, 1200, Note_on_c, 3, 57, 84
9, 1200, Note_on_c, 3, 52, 84
9, 1319, Note_on_c, 3, 57, 0
9, 1319, Note_on_c, 3, 52, 0
9, 1320, Note_on_c, 3, 54, 84
9, 1320, Note_on_c, 3, 57, 84
9, 1431, Note_on_c, 3, 54, 0
9, 1431, Note_on_c, 3, 57, 0
9, 1440, Note_on_c, 3, 57, 84
9, 1440, Note_on_c, 3, 55, 84
9, 1919, Note_on_c, 3, 55, 0
9, 1920, Note_on_c, 3, 54, 84
9, 2151, Note_on_c, 3, 57, 0
9, 2151, Note_on_c, 3, 54, 0
9, 2160, Control_c, 3, 11, 64
9, 2160, Note_on_c, 3, 59, 84
9, 2160, Note_on_c, 3, 55, 84
9, 2190, Control_c, 3, 11, 67
9, 2220, Control_c, 3, 11, 69
9, 2250, Control_c, 3, 11, 72
9, 2280, Control_c, 3, 11, 74
9, 2310, Control_c, 3, 11, 77
9, 2340, Control_c, 3, 11, 80
9, 2370, Control_c, 3, 11, 82
9, 2400, Control_c, 3, 11, 85
9, 2430, Control_c, 3, 11, 87
9, 2460, Control_c, 3, 11, 90
9, 2490, Control_c, 3, 11, 92
9, 2511, Note_on_c, 3, 59, 0
9, 2511, Note_on_c, 3, 55, 0
9, 2520, Note_on_c, 3, 63, 84
9, 2520, Note_on_c, 3, 57, 84
9, 2520, Control_c, 3, 11, 95
9, 2550, Control_c, 3, 11, 92
9, 2580, Control_c, 3, 11, 90
9, 2610, Control_c, 3, 11, 87
9, 2639, Note_on_c, 3, 63, 0
9, 2639, Note_on_c, 3, 57, 0
9, 2640, Control_c, 3, 11, 85
9, 2640, Note_on_c, 3, 64, 84
9, 2640, Note_on_c, 3, 55, 84
9, 2670, Control_c, 3, 11, 82
9, 2700, Control_c, 3, 11, 80
9, 2730, Control_c, 3, 11, 77
9, 2759, Note_on_c, 3, 64, 0
9, 2759, Note_on_c, 3, 55, 0
9, 2760, Note_on_c, 3, 67, 84
9, 2760, Control_c, 3, 11, 74
9, 2760, Note_on_c, 3, 52, 84
9, 2790, Control_c, 3, 11, 72
9, 2820, Control_c, 3, 11, 69
9, 2850, Control_c, 3, 11, 67
9, 2871, Note_on_c, 3, 67, 0
9, 2871, Note_on_c, 3, 52, 0
9, 2880, Note_on_c, 3, 57, 84
9, 2880, Control_c, 3, 11, 64
9, 2880, Note_on_c, 3, 66, 84
9, 3119, Note_on_c, 3, 57, 0
9, 3119, Note_on_c, 3, 66, 0
9, 3120, Note_on_c, 3, 64, 84
9, 3120, Note_on_c, 3, 45, 84
9, 3231, Note_on_c, 3, 64, 0
9, 3231, Note_on_c, 3, 45, 0
9, 3240, Note_on_c, 3, 61, 84
9, 3240, Note_on_c, 3, 64, 84
9, 3306, Note_on_c, 3, 61, 0
9, 3306, Note_on_c, 3, 64, 0
9, 3330, Note_on_c, 3, 62, 84
9, 3330, Note_on_c, 3, 59, 84
9, 3351, Note_on_c, 3, 62, 0
9, 3351, Note_on_c, 3, 59, 0
9, 3360, Note_on_c, 3, 57, 84
9, 3360, Note_on_c, 3, 61, 84
9, 3426, Note_on_c, 3, 57, 0
9, 3426, Note_on_c, 3, 61, 0
9, 3450, Note_on_c, 3, 59, 84
9, 3450, Note_on_c, 3, 55, 84
9, 3471, Note_on_c, 3, 59, 0
9, 3471, Note_on_c, 3, 55, 0
9, 3480, Note_on_c, 3, 57, 84
9, 3480, Note_on_c, 3, 54, 84
9, 3546, Note_on_c, 3, 57, 0
9, 3546, Note_on_c, 3, 54, 0
9, 3570, Note_on_c, 3, 55, 84
9, 3570, Note_on_c, 3, 52, 84
9, 3591, Note_on_c, 3, 55, 0
9, 3591, Note_on_c, 3, 52, 0
9, 3596, Control_c, 3, 11, 127
9, 3600, Note_on_c, 3, 50, 84
9, 3600, Note_on_c, 3, 54, 84
9, 3959, Note_on_c, 3, 50, 0
9, 3959, Note_on_c, 3, 54, 0
9, 4800, Note_on_c, 3, 54, 92
9, 4800, Note_on_c, 3, 60, 92
9, 5039, Note_on_c, 3, 54, 0
9, 5039, Note_on_c, 3, 60, 0
9, 5040, Note_on_c, 3, 59, 84
9, 5040, Note_on_c, 3, 55, 84
9, 5129, Note_on_c, 3, 59, 0
9, 5129, Note_on_c, 3, 55, 0
9, 6690, Note_on_c, 3, 61, 52
9, 6690, Note_on_c, 3, 58, 52
9, 6715, Note_on_c, 3, 61, 0
9, 6715, Note_on_c, 3, 58, 0
9, 6720, Note_on_c, 3, 61, 52
9, 6720, Note_on_c, 3, 58, 52
9, 6959, Note_on_c, 3, 61, 0
9, 6959, Note_on_c, 3, 58, 0
9, 6960, Note_on_c, 3, 62, 52
9, 6960, Note_on_c, 3, 59, 52
9, 7049, Note_on_c, 3, 62, 0
9, 7049, Note_on_c, 3, 59, 0
9, 7410, Note_on_c, 3, 62, 52
9, 7410, Note_on_c, 3, 59, 52
9, 7435, Note_on_c, 3, 62, 0
9, 7435, Note_on_c, 3, 59, 0
9, 7440, Note_on_c, 3, 62, 52
9, 7440, Note_on_c, 3, 59, 52
9, 7679, Note_on_c, 3, 62, 0
9, 7679, Note_on_c, 3, 59, 0
9, 7680, Note_on_c, 3, 64, 52
9, 7680, Note_on_c, 3, 60, 52
9, 7769, Note_on_c, 3, 64, 0
9, 7769, Note_on_c, 3, 60, 0
9, 7920, Control_c, 3, 11, 64
9, 8130, Note_on_c, 3, 64, 84
9, 8130, Note_on_c, 3, 61, 84
9, 8155, Note_on_c, 3, 64, 0
9, 8155, Note_on_c, 3, 61, 0
9, 8160, Note_on_c, 3, 64, 84
9, 8160, Control_c, 3, 11, 64
9, 8160, Note_on_c, 3, 61, 84
9, 8190, Control_c, 3, 11, 69
9, 8220, Control_c, 3, 11, 75
9, 8250, Control_c, 3, 11, 80
9, 8280, Control_c, 3, 11, 85
9, 8310, Control_c, 3, 11, 90
9, 8340, Control_c, 3, 11, 96
9, 8370, Control_c, 3, 11, 101
9, 8399, Note_on_c, 3, 64, 0
9, 8399, Note_on_c, 3, 61, 0
9, 8400, Control_c, 3, 11, 106
9, 8400, Note_on_c, 3, 62, 84
9, 8400, Note_on_c, 3, 65, 84
9, 8430, Control_c, 3, 11, 111
9, 8460, Control_c, 3, 11, 117
9, 8490, Control_c, 3, 11, 122
9, 8511, Note_on_c, 3, 62, 0
9, 8511, Note_on_c, 3, 65, 0
9, 8520, Note_on_c, 3, 63, 84
9, 8520, Control_c, 3, 11, 127
9, 8520, Note_on_c, 3, 60, 84
9, 8609, Note_on_c, 3, 63, 0
9, 8609, Note_on_c, 3, 60, 0
9, 8640, Note_on_c, 3, 62, 84
9, 8640, Note_on_c, 3, 58, 84
9, 8729, Note_on_c, 3, 62, 0
9, 8729, Note_on_c, 3, 58, 0
9, 9360, Note_on_c, 3, 63, 68
9, 9420, Control_c, 3, 11, 96
9, 9655, Note_on_c, 3, 63, 0
9, 9660, Note_on_c, 3, 62, 68
9, 9689, Note_on_c, 3, 62, 0
9, 9690, Note_on_c, 3, 60, 68
9, 9719, Note_on_c, 3, 60, 0
9, 9720, Note_on_c, 3, 58, 68
9, 9749, Note_on_c, 3, 58, 0
9, 9750, Note_on_c, 3, 57, 68
9, 9779, Note_on_c, 3, 57, 0
9, 9780, Note_on_c, 3, 55, 68
9, 9809, Note_on_c, 3, 55, 0
9, 9810, Note_on_c, 3, 53, 68
9, 9835, Note_on_c, 3, 53, 0
9, 9840, Note_on_c, 3, 51, 68
9, 9869, Note_on_c, 3, 51, 0
9, 9870, Note_on_c, 3, 62, 68
9, 9899, Note_on_c, 3, 62, 0
9, 9900, Note_on_c, 3, 60, 68
9, 9929, Note_on_c, 3, 60, 0
9, 9930, Note_on_c, 3, 58, 68
9, 9959, Note_on_c, 3, 58, 0
9, 9960, Note_on_c, 3, 57, 68
9, 9989, Note_on_c, 3, 57, 0
9, 9990, Note_on_c, 3, 67, 68
9, 10019, Note_on_c, 3, 67, 0
9, 10020, Note_on_c, 3, 65, 68
9, 10049, Note_on_c, 3, 65, 0
9, 10050, Note_on_c, 3, 63, 68
9, 10075, Note_on_c, 3, 63, 0
9, 10080, Note_on_c, 3, 62, 68
9, 10199, Note_on_c, 3, 62, 0
9, 10560, Control_c, 3, 11, 127
9, 10800, Note_on_c, 3, 63, 68
9, 10860, Control_c, 3, 11, 96
9, 11065, Note_on_c, 3, 63, 0
9, 11070, Note_on_c, 3, 62, 68
9, 11099, Note_on_c, 3, 62, 0
9, 11100, Note_on_c, 3, 60, 68
9, 11129, Note_on_c, 3, 60, 0
9, 11130, Note_on_c, 3, 62, 68
9, 11159, Note_on_c, 3, 62, 0
9, 11160, Note_on_c, 3, 63, 68
9, 11189, Note_on_c, 3, 63, 0
9, 11190, Note_on_c, 3, 65, 68
9, 11219, Note_on_c, 3, 65, 0
9, 11220, Note_on_c, 3, 67, 68
9, 11249, Note_on_c, 3, 67, 0
9, 11250, Note_on_c, 3, 65, 68
9, 11275, Note_on_c, 3, 65, 0
9, 11280, Note_on_c, 3, 63, 68
9, 11309, Note_on_c, 3, 63, 0
9, 11310, Note_on_c, 3, 62, 68
9, 11339, Note_on_c, 3, 62, 0
9, 11340, Note_on_c, 3, 60, 68
9, 11369, Note_on_c, 3, 60, 0
9, 11370, Note_on_c, 3, 58, 68
9, 11399, Note_on_c, 3, 58, 0
9, 11400, Note_on_c, 3, 57, 68
9, 11429, Note_on_c, 3, 57, 0
9, 11430, Note_on_c, 3, 55, 68
9, 11459, Note_on_c, 3, 55, 0
9, 11460, Note_on_c, 3, 53, 68
9, 11489, Note_on_c, 3, 53, 0
9, 11490, Note_on_c, 3, 51, 68
9, 11515, Note_on_c, 3, 51, 0
9, 11520, Note_on_c, 3, 50, 68
9, 11639, Note_on_c, 3, 50, 0
9, 11640, Control_c, 3, 11, 72
9, 11760, Note_on_c, 3, 65, 76
9, 11760, Note_on_c, 3, 46, 76
9, 11789, Note_on_c, 3, 46, 0
9, 11790, Note_on_c, 3, 45, 76
9, 11819, Note_on_c, 3, 45, 0
9, 11820, Note_on_c, 3, 46, 76
9, 11820, Control_c, 3, 11, 80
9, 11849, Note_on_c, 3, 46, 0
9, 11850, Note_on_c, 3, 48, 76
9, 11855, Control_c, 3, 11, 84
9, 11879, Note_on_c, 3, 48, 0
9, 11880, Note_on_c, 3, 50, 76
9, 11890, Control_c, 3, 11, 88
9, 11909, Note_on_c, 3, 50, 0
9, 11910, Note_on_c, 3, 51, 76
9, 11925, Control_c, 3, 11, 92
9, 11939, Note_on_c, 3, 51, 0
9, 11940, Note_on_c, 3, 53, 76
9, 11960, Control_c, 3, 11, 96
9, 11969, Note_on_c, 3, 53, 0
9, 11970, Note_on_c, 3, 55, 76
9, 11995, Note_on_c, 3, 55, 0
9, 11995, Control_c, 3, 11, 100
9, 12000, Note_on_c, 3, 56, 76
9, 12029, Note_on_c, 3, 56, 0
9, 12030, Control_c, 3, 11, 104
9, 12030, Note_on_c, 3, 55, 76
9, 12059, Note_on_c, 3, 55, 0
9, 12060, Note_on_c, 3, 53, 76
9, 12065, Control_c, 3, 11, 107
9, 12089, Note_on_c, 3, 53, 0
9, 12090, Note_on_c, 3, 51, 76
9, 12100, Control_c, 3, 11, 111
9, 12119, Note_on_c, 3, 65, 0
9, 12119, Note_on_c, 3, 51, 0
9, 12120, Note_on_c, 3, 50, 76
9, 12120, Note_on_c, 3, 66, 76
9, 12135, Control_c, 3, 11, 115
9, 12149, Note_on_c, 3, 50, 0
9, 12150, Note_on_c, 3, 48, 76
9, 12170, Control_c, 3, 11, 119
9, 12179, Note_on_c, 3, 48, 0
9, 12180, Note_on_c, 3, 46, 76
9, 12205, Control_c, 3, 11, 123
9, 12209, Note_on_c, 3, 46, 0
9, 12210, Note_on_c, 3, 44, 76
9, 12235, Note_on_c, 3, 44, 0
9, 12239, Note_on_c, 3, 66, 0
9, 12240, Note_on_c, 3, 43, 76
9, 12240, Note_on_c, 3, 67, 76
9, 12240, Control_c, 3, 11, 127
9, 12359, Note_on_c, 3, 43, 0
9, 12359, Note_on_c, 3, 67, 0
9, 13320, Note_on_c, 3, 67, 52
9, 13439, Note_on_c, 3, 67, 0
9, 13440, Note_on_c, 3, 64, 52
9, 13559, Note_on_c, 3, 64, 0
9, 13560, Note_on_c, 3, 58, 52
9, 13671, Note_on_c, 3, 58, 0
9, 13680, Note_on_c, 3, 57, 52
9, 13799, Note_on_c, 3, 57, 0
9, 15000, Note_on_c, 3, 60, 52
9, 15119, Note_on_c, 3, 60, 0
9, 15120, Note_on_c, 3, 58, 52
9, 15359, Note_on_c, 3, 58, 0
9, 15480, Note_on_c, 3, 62, 52
9, 15599, Note_on_c, 3, 62, 0
9, 15600, Note_on_c, 3, 63, 52
9, 15719, Note_on_c, 3, 63, 0
9, 15720, Note_on_c, 3, 62, 52
9, 15831, Note_on_c, 3, 62, 0
9, 15840, Note_on_c, 3, 61, 52
9, 16079, Note_on_c, 3, 61, 0
9, 16080, Control_c, 3, 11, 64
9, 16200, Control_c, 3, 11, 64
9, 16200, Note_on_c, 3, 64, 84
9, 16220, Control_c, 3, 11, 69
9, 16240, Control_c, 3, 11, 75
9, 16260, Control_c, 3, 11, 80
9, 16280, Control_c, 3, 11, 85
9, 16300, Control_c, 3, 11, 90
9, 16319, Note_on_c, 3, 64, 0
9, 16320, Control_c, 3, 11, 96
9, 16320, Note_on_c, 3, 65, 84
9, 16340, Control_c, 3, 11, 101
9, 16360, Control_c, 3, 11, 106
9, 16380, Control_c, 3, 11, 111
9, 16400, Control_c, 3, 11, 117
9, 16420, Control_c, 3, 11, 122
9, 16439, Note_on_c, 3, 65, 0
9, 16440, Note_on_c, 3, 64, 84
9, 16440, Control_c, 3, 11, 127
9, 16530, Note_on_c, 3, 57, 84
9, 16551, Note_on_c, 3, 64, 0
9, 16555, Note_on_c, 3, 57, 0
9, 16560, Note_on_c, 3, 62, 84
9, 16765, Note_on_c, 3, 62, 0
9, 16770, Note_on_c, 3, 62, 84
9, 16795, Note_on_c, 3, 62, 0
9, 16800, Note_on_c, 3, 57, 84
9, 17005, Note_on_c, 3, 57, 0
9, 17010, Note_on_c, 3, 57, 84
9, 17035, Note_on_c, 3, 57, 0
9, 17040, Note_on_c, 3, 53, 84
9, 17129, Note_on_c, 3, 53, 0
9, 17160, Note_on_c, 3, 50, 84
9, 17249, Note_on_c, 3, 50, 0
9, 17280, Note_on_c, 3, 45, 92
9, 17399, Note_on_c, 3, 45, 0
9, 19560, Note_on_c, 3, 63, 52
9, 19679, Note_on_c, 3, 63, 0
9, 19680, Note_on_c, 3, 64, 52
9, 19799, Note_on_c, 3, 64, 0
9, 20160, Control_c, 3, 11, 96
9, 20280, Control_c, 3, 11, 96
9, 20280, Note_on_c, 3, 61, 68
9, 20330, Control_c, 3, 11, 99
9, 20380, Control_c, 3, 11, 101
9, 20399, Note_on_c, 3, 61, 0
9, 20400, Note_on_c, 3, 62, 68
9, 20430, Control_c, 3, 11, 104
9, 20480, Control_c, 3, 11, 106
9, 20519, Note_on_c, 3, 62, 0
9, 20530, Control_c, 3, 11, 109
9, 20830, Control_c, 3, 11, 127
9, 20920, Note_on_c, 3, 65, 68
9, 20920, Note_on_c, 3, 62, 68
9, 20955, Note_on_c, 3, 65, 0
9, 20955, Note_on_c, 3, 62, 0
9, 20960, Note_on_c, 3, 65, 52
9, 20960, Note_on_c, 3, 62, 52
9, 20995, Note_on_c, 3, 65, 0
9, 20995, Note_on_c, 3, 62, 0
9, 21000, Note_on_c, 3, 65, 52
9, 21000, Note_on_c, 3, 62, 52
9, 21035, Note_on_c, 3, 65, 0
9, 21035, Note_on_c, 3, 62, 0
9, 21040, Note_on_c, 3, 62, 52
9, 21040, Note_on_c, 3, 65, 52
9, 21075, Note_on_c, 3, 62, 0
9, 21075, Note_on_c, 3, 65, 0
9, 21080, Note_on_c, 3, 62, 52
9, 21080, Note_on_c, 3, 65, 52
9, 21115, Note_on_c, 3, 62, 0
9, 21115, Note_on_c, 3, 65, 0
9, 21120, Note_on_c, 3, 62, 52
9, 21120, Note_on_c, 3, 65, 52
9, 21155, Note_on_c, 3, 62, 0
9, 21155, Note_on_c, 3, 65, 0
9, 21160, Note_on_c, 3, 65, 52
9, 21160, Note_on_c, 3, 62, 52
9, 21195, Note_on_c, 3, 65, 0
9, 21195, Note_on_c, 3, 62, 0
9, 21200, Note_on_c, 3, 62, 52
9, 21200, Note_on_c, 3, 65, 52
9, 21235, Note_on_c, 3, 62, 0
9, 21235, Note_on_c, 3, 65, 0
9, 21240, Note_on_c, 3, 65, 52
9, 21240, Note_on_c, 3, 62, 52
9, 21275, Note_on_c, 3, 65, 0
9, 21275, Note_on_c, 3, 62, 0
9, 21280, Note_on_c, 3, 65, 52
9, 21280, Note_on_c, 3, 62, 52
9, 21315, Note_on_c, 3, 65, 0
9, 21315, Note_on_c, 3, 62, 0
9, 21320, Note_on_c, 3, 65, 52
9, 21320, Note_on_c, 3, 62, 52
9, 21355, Note_on_c, 3, 65, 0
9, 21355, Note_on_c, 3, 62, 0
9, 21360, Note_on_c, 3, 65, 52
9, 21360, Note_on_c, 3, 62, 52
9, 21395, Note_on_c, 3, 65, 0
9, 21395, Note_on_c, 3, 62, 0
9, 21400, Note_on_c, 3, 65, 52
9, 21400, Note_on_c, 3, 62, 52
9, 21435, Note_on_c, 3, 65, 0
9, 21435, Note_on_c, 3, 62, 0
9, 21440, Note_on_c, 3, 62, 52
9, 21440, Note_on_c, 3, 65, 52
9, 21475, Note_on_c, 3, 62, 0
9, 21475, Note_on_c, 3, 65, 0
9, 21480, Note_on_c, 3, 65, 52
9, 21480, Note_on_c, 3, 62, 52
9, 21515, Note_on_c, 3, 65, 0
9, 21515, Note_on_c, 3, 62, 0
9, 21520, Note_on_c, 3, 62, 52
9, 21520, Note_on_c, 3, 65, 52
9, 21555, Note_on_c, 3, 62, 0
9, 21555, Note_on_c, 3, 65, 0
9, 21560, Note_on_c, 3, 65, 52
9, 21560, Note_on_c, 3, 62, 52
9, 21595, Note_on_c, 3, 65, 0
9, 21595, Note_on_c, 3, 62, 0
9, 21640, Note_on_c, 3, 64, 68
9, 21640, Note_on_c, 3, 61, 68
9, 21675, Note_on_c, 3, 64, 0
9, 21675, Note_on_c, 3, 61, 0
9, 21680, Note_on_c, 3, 64, 52
9, 21680, Note_on_c, 3, 61, 52
9, 21715, Note_on_c, 3, 64, 0
9, 21715, Note_on_c, 3, 61, 0
9, 21720, Note_on_c, 3, 64, 52
9, 21720, Note_on_c, 3, 61, 52
9, 21755, Note_on_c, 3, 64, 0
9, 21755, Note_on_c, 3, 61, 0
9, 21760, Note_on_c, 3, 64, 52
9, 21760, Note_on_c, 3, 61, 52
9, 21795, Note_on_c, 3, 64, 0
9, 21795, Note_on_c, 3, 61, 0
9, 21800, Note_on_c, 3, 64, 52
9, 21800, Note_on_c, 3, 61, 52
9, 21835, Note_on_c, 3, 64, 0
9, 21835, Note_on_c, 3, 61, 0
9, 21840, Note_on_c, 3, 64, 52
9, 21840, Note_on_c, 3, 61, 52
9, 21875, Note_on_c, 3, 64, 0
9, 21875, Note_on_c, 3, 61, 0
9, 21880, Note_on_c, 3, 61, 52
9, 21880, Note_on_c, 3, 64, 52
9, 21915, Note_on_c, 3, 61, 0
9, 21915, Note_on_c, 3, 64, 0
9, 21920, Note_on_c, 3, 61, 52
9, 21920, Note_on_c, 3, 64, 52
9, 21955, Note_on_c, 3, 61, 0
9, 21955, Note_on_c, 3, 64, 0
9, 21960, Note_on_c, 3, 64, 52
9, 21960, Note_on_c, 3, 61, 52
9, 21995, Note_on_c, 3, 64, 0
9, 21995, Note_on_c, 3, 61, 0
9, 22000, Note_on_c, 3, 64, 52
9, 22000, Note_on_c, 3, 61, 52
9, 22035, Note_on_c, 3, 64, 0
9, 22035, Note_on_c, 3, 61, 0
9, 22040, Note_on_c, 3, 64, 52
9, 22040, Note_on_c, 3, 61, 52
9, 22075, Note_on_c, 3, 64, 0
9, 22075, Note_on_c, 3, 61, 0
9, 22080, Note_on_c, 3, 64, 52
9, 22080, Note_on_c, 3, 61, 52
9, 22115, Note_on_c, 3, 64, 0
9, 22115, Note_on_c, 3, 61, 0
9, 22120, Note_on_c, 3, 61, 52
9, 22120, Note_on_c, 3, 64, 52
9, 22155, Note_on_c, 3, 61, 0
9, 22155, Note_on_c, 3, 64, 0
9, 22160, Note_on_c, 3, 61, 52
9, 22160, Note_on_c, 3, 64, 52
9, 22195, Note_on_c, 3, 61, 0
9, 22195, Note_on_c, 3, 64, 0
9, 22200, Note_on_c, 3, 64, 52
9, 22200, Note_on_c, 3, 61, 52
9, 22235, Note_on_c, 3, 64, 0
9, 22235, Note_on_c, 3, 61, 0
9, 22240, Note_on_c, 3, 64, 52
9, 22240, Note_on_c, 3, 61, 52
9, 22275, Note_on_c, 3, 64, 0
9, 22275, Note_on_c, 3, 61, 0
9, 22280, Note_on_c, 3, 64, 52
9, 22280, Note_on_c, 3, 61, 52
9, 22315, Note_on_c, 3, 64, 0
9, 22315, Note_on_c, 3, 61, 0
9, 22360, Note_on_c, 3, 62, 68
9, 22360, Note_on_c, 3, 66, 68
9, 22395, Note_on_c, 3, 62, 0
9, 22395, Note_on_c, 3, 66, 0
9, 22400, Note_on_c, 3, 66, 52
9, 22400, Note_on_c, 3, 62, 52
9, 22435, Note_on_c, 3, 66, 0
9, 22435, Note_on_c, 3, 62, 0
9, 22440, Note_on_c, 3, 66, 52
9, 22440, Note_on_c, 3, 62, 52
9, 22475, Note_on_c, 3, 66, 0
9, 22475, Note_on_c, 3, 62, 0
9, 22480, Note_on_c, 3, 62, 52
9, 22480, Note_on_c, 3, 66, 52
9, 22515, Note_on_c, 3, 62, 0
9, 22515, Note_on_c, 3, 66, 0
9, 22520, Note_on_c, 3, 66, 52
9, 22520, Note_on_c, 3, 62, 52
9, 22555, Note_on_c, 3, 66, 0
9, 22555, Note_on_c, 3, 62, 0
9, 22560, Note_on_c, 3, 65, 52
9, 22560, Note_on_c, 3, 62, 52
9, 22595, Note_on_c, 3, 65, 0
9, 22595, Note_on_c, 3, 62, 0
9, 22600, Note_on_c, 3, 65, 52
9, 22600, Note_on_c, 3, 62, 52
9, 22635, Note_on_c, 3, 65, 0
9, 22635, Note_on_c, 3, 62, 0
9, 22640, Note_on_c, 3, 65, 52
9, 22640, Note_on_c, 3, 62, 52
9, 22675, Note_on_c, 3, 65, 0
9, 22675, Note_on_c, 3, 62, 0
9, 22680, Note_on_c, 3, 62, 52
9, 22680, Note_on_c, 3, 65, 52
9, 22715, Note_on_c, 3, 62, 0
9, 22715, Note_on_c, 3, 65, 0
9, 22720, Note_on_c, 3, 62, 52
9, 22720, Note_on_c, 3, 65, 52
9, 22755, Note_on_c, 3, 62, 0
9, 22755, Note_on_c, 3, 65, 0
9, 22760, Note_on_c, 3, 65, 52
9, 22760, Note_on_c, 3, 62, 52
9, 22795, Note_on_c, 3, 65, 0
9, 22795, Note_on_c, 3, 62, 0
9, 22800, Note_on_c, 3, 65, 52
9, 22800, Note_on_c, 3, 62, 52
9, 22835, Note_on_c, 3, 65, 0
9, 22835, Note_on_c, 3, 62, 0
9, 22840, Note_on_c, 3, 65, 52
9, 22840, Note_on_c, 3, 62, 52
9, 22875, Note_on_c, 3, 65, 0
9, 22875, Note_on_c, 3, 62, 0
9, 22880, Note_on_c, 3, 62, 52
9, 22880, Note_on_c, 3, 65, 52
9, 22915, Note_on_c, 3, 62, 0
9, 22915, Note_on_c, 3, 65, 0
9, 22920, Note_on_c, 3, 62, 52
9, 22920, Note_on_c, 3, 65, 52
9, 22955, Note_on_c, 3, 62, 0
9, 22955, Note_on_c, 3, 65, 0
9, 22960, Note_on_c, 3, 62, 52
9, 22960, Note_on_c, 3, 65, 52
9, 22995, Note_on_c, 3, 62, 0
9, 22995, Note_on_c, 3, 65, 0
9, 23000, Note_on_c, 3, 62, 52
9, 23000, Note_on_c, 3, 65, 52
9, 23035, Note_on_c, 3, 62, 0
9, 23035, Note_on_c, 3, 65, 0
9, 23080, Note_on_c, 3, 64, 68
9, 23080, Note_on_c, 3, 62, 68
9, 23115, Note_on_c, 3, 64, 0
9, 23115, Note_on_c, 3, 62, 0
9, 23120, Note_on_c, 3, 62, 52
9, 23120, Note_on_c, 3, 64, 52
9, 23155, Note_on_c, 3, 62, 0
9, 23155, Note_on_c, 3, 64, 0
9, 23160, Note_on_c, 3, 64, 52
9, 23160, Note_on_c, 3, 62, 52
9, 23195, Note_on_c, 3, 64, 0
9, 23195, Note_on_c, 3, 62, 0
9, 23200, Note_on_c, 3, 62, 52
9, 23200, Note_on_c, 3, 64, 52
9, 23235, Note_on_c, 3, 62, 0
9, 23235, Note_on_c, 3, 64, 0
9, 23240, Note_on_c, 3, 62, 52
9, 23240, Note_on_c, 3, 64, 52
9, 23275, Note_on_c, 3, 62, 0
9, 23275, Note_on_c, 3, 64, 0
9, 23280, Note_on_c, 3, 64, 52
9, 23280, Note_on_c, 3, 62, 52
9, 23315, Note_on_c, 3, 64, 0
9, 23315, Note_on_c, 3, 62, 0
9, 23320, Note_on_c, 3, 62, 52
9, 23320, Note_on_c, 3, 64, 52
9, 23355, Note_on_c, 3, 62, 0
9, 23355, Note_on_c, 3, 64, 0
9, 23360, Note_on_c, 3, 62, 52
9, 23360, Note_on_c, 3, 64, 52
9, 23395, Note_on_c, 3, 62, 0
9, 23395, Note_on_c, 3, 64, 0
9, 23400, Note_on_c, 3, 62, 52
9, 23400, Note_on_c, 3, 64, 52
9, 23435, Note_on_c, 3, 62, 0
9, 23435, Note_on_c, 3, 64, 0
9, 23440, Note_on_c, 3, 64, 52
9, 23440, Note_on_c, 3, 62, 52
9, 23475, Note_on_c, 3, 64, 0
9, 23475, Note_on_c, 3, 62, 0
9, 23480, Note_on_c, 3, 62, 52
9, 23480, Note_on_c, 3, 64, 52
9, 23515, Note_on_c, 3, 62, 0
9, 23515, Note_on_c, 3, 64, 0
9, 23520, Note_on_c, 3, 64, 52
9, 23520, Note_on_c, 3, 62, 52
9, 23555, Note_on_c, 3, 64, 0
9, 23555, Note_on_c, 3, 62, 0
9, 23560, Note_on_c, 3, 64, 52
9, 23560, Note_on_c, 3, 62, 52
9, 23595, Note_on_c, 3, 64, 0
9, 23595, Note_on_c, 3, 62, 0
9, 23600, Note_on_c, 3, 62, 52
9, 23600, Note_on_c, 3, 64, 52
9, 23635, Note_on_c, 3, 62, 0
9, 23635, Note_on_c, 3, 64, 0
9, 23640, Note_on_c, 3, 64, 52
9, 23640, Note_on_c, 3, 62, 52
9, 23675, Note_on_c, 3, 64, 0
9, 23675, Note_on_c, 3, 62, 0
9, 23680, Note_on_c, 3, 62, 52
9, 23680, Note_on_c, 3, 64, 52
9, 23715, Note_on_c, 3, 62, 0
9, 23715, Note_on_c, 3, 64, 0
9, 23720, Note_on_c, 3, 62, 52
9, 23720, Note_on_c, 3, 64, 52
9, 23755, Note_on_c, 3, 62, 0
9, 23755, Note_on_c, 3, 64, 0
9, 27120, Control_c, 3, 11, 96
9, 27360, Note_on_c, 3, 66, 68
9, 27360, Note_on_c, 3, 62, 68
9, 27360, Control_c, 3, 11, 96
9, 27440, Control_c, 3, 11, 99
9, 27520, Control_c, 3, 11, 101
9, 27600, Control_c, 3, 11, 104
9, 27680, Control_c, 3, 11, 106
9, 27760, Control_c, 3, 11, 109
9, 27840, Control_c, 3, 11, 112
9, 27920, Control_c, 3, 11, 114
9, 28000, Control_c, 3, 11, 117
9, 28080, Control_c, 3, 11, 119
9, 28160, Control_c, 3, 11, 122
9, 28240, Control_c, 3, 11, 124
9, 28319, Note_on_c, 3, 66, 0
9, 28320, Note_on_c, 3, 64, 68
9, 28320, Control_c, 3, 11, 96
9, 28559, Note_on_c, 3, 62, 0
9, 28559, Note_on_c, 3, 64, 0
9, 30960, Control_c, 3, 11, 80
9, 31200, Note_on_c, 3, 64, 76
9, 31919, Note_on_c, 3, 64, 0
9, 31920, Note_on_c, 3, 65, 76
9, 32159, Note_on_c, 3, 65, 0
9, 32160, Note_on_c, 3, 66, 76
9, 32399, Note_on_c, 3, 66, 0
9, 33120, Note_on_c, 3, 66, 76
9, 33824, Note_on_c, 3, 66, 0
9, 33840, Note_on_c, 3, 66, 76
9, 34064, Note_on_c, 3, 66, 0
9, 34080, Control_c, 3, 11, 80
9, 34080, Note_on_c, 3, 69, 76
9, 34319, Note_on_c, 3, 69, 0
9, 34320, Note_on_c, 3, 67, 76
9, 34320, Control_c, 3, 11, 84
9, 34560, Control_c, 3, 11, 88
9, 34784, Note_on_c, 3, 67, 0
9, 34800, Note_on_c, 3, 66, 76
9, 34800, Control_c, 3, 11, 92
9, 35040, Control_c, 3, 11, 96
9, 35264, Note_on_c, 3, 66, 0
9, 35280, Control_c, 3, 11, 100
9, 35280, Note_on_c, 3, 64, 76
9, 35520, Control_c, 3, 11, 104
9, 35759, Note_on_c, 3, 64, 0
9, 35760, Note_on_c, 3, 63, 76
9, 35760, Control_c, 3, 11, 107
9, 36000, Control_c, 3, 11, 111
9, 36224, Note_on_c, 3, 63, 0
9, 36240, Control_c, 3, 11, 115
9, 36240, Note_on_c, 3, 64, 76
9, 36479, Note_on_c, 3, 64, 0
9, 36480, Note_on_c, 3, 67, 76
9, 36480, Control_c, 3, 11, 119
9, 36719, Note_on_c, 3, 67, 0
9, 36720, Note_on_c, 3, 61, 76
9, 36720, Control_c, 3, 11, 123
9, 36944, Note_on_c, 3, 61, 0
9, 36960, Note_on_c, 3, 62, 76
9, 36960, Note_on_c, 3, 50, 76
9, 36960, Control_c, 3, 11, 127
9, 37664, Note_on_c, 3, 62, 0
9, 37664, Note_on_c, 3, 50, 0
9, 37680, Note_on_c, 3, 50, 76
9, 37739, Note_on_c, 3, 50, 0
9, 37740, Note_on_c, 3, 49, 76
9, 37799, Note_on_c, 3, 49, 0
9, 37800, Note_on_c, 3, 50, 76
9, 37859, Note_on_c, 3, 50, 0
9, 37860, Note_on_c, 3, 52, 76
9, 37911, Note_on_c, 3, 52, 0
9, 37920, Note_on_c, 3, 54, 84
9, 38624, Note_on_c, 3, 54, 0
9, 38640, Note_on_c, 3, 54, 76
9, 38699, Note_on_c, 3, 54, 0
9, 38700, Note_on_c, 3, 52, 76
9, 38759, Note_on_c, 3, 52, 0
9, 38760, Note_on_c, 3, 54, 76
9, 38819, Note_on_c, 3, 54, 0
9, 38820, Note_on_c, 3, 55, 76
9, 38871, Note_on_c, 3, 55, 0
9, 38880, Note_on_c, 3, 57, 76
9, 39059, Note_on_c, 3, 57, 0
9, 39120, Note_on_c, 3, 57, 76
9, 39179, Note_on_c, 3, 57, 0
9, 39180, Note_on_c, 3, 56, 76
9, 39239, Note_on_c, 3, 56, 0
9, 39240, Note_on_c, 3, 57, 76
9, 39299, Note_on_c, 3, 57, 0
9, 39300, Note_on_c, 3, 59, 76
9, 39351, Note_on_c, 3, 59, 0
9, 39360, Note_on_c, 3, 60, 84
9, 40064, Note_on_c, 3, 60, 0
9, 40080, Note_on_c, 3, 57, 76
9, 40259, Note_on_c, 3, 57, 0
9, 40320, Note_on_c, 3, 54, 76
9, 40499, Note_on_c, 3, 54, 0
9, 40560, Note_on_c, 3, 48, 76
9, 40739, Note_on_c, 3, 48, 0
9, 40800, Note_on_c, 3, 47, 76
9, 41039, Note_on_c, 3, 47, 0
9, 41280, Note_on_c, 3, 67, 84
9, 41280, Note_on_c, 3, 62, 84
9, 41759, Note_on_c, 3, 62, 0
9, 41760, Note_on_c, 3, 64, 76
9, 41984, Note_on_c, 3, 67, 0
9, 41984, Note_on_c, 3, 64, 0
9, 42000, Note_on_c, 3, 64, 76
9, 42000, Note_on_c, 3, 61, 76
9, 42179, Note_on_c, 3, 64, 0
9, 42179, Note_on_c, 3, 61, 0
9, 42240, Note_on_c, 3, 55, 76
9, 42240, Note_on_c, 3, 61, 76
9, 42419, Note_on_c, 3, 55, 0
9, 42419, Note_on_c, 3, 61, 0
9, 42480, Note_on_c, 3, 52, 76
9, 42480, Note_on_c, 3, 55, 76
9, 42659, Note_on_c, 3, 52, 0
9, 42659, Note_on_c, 3, 55, 0
9, 42720, Note_on_c, 3, 50, 76
9, 42720, Note_on_c, 3, 54, 76
9, 42899, Note_on_c, 3, 50, 0
9, 42899, Note_on_c, 3, 54, 0
9, 42960, Note_on_c, 3, 57, 76
9, 43019, Note_on_c, 3, 57, 0
9, 43020, Note_on_c, 3, 56, 76
9, 43079, Note_on_c, 3, 56, 0
9, 43080, Note_on_c, 3, 57, 76
9, 43139, Note_on_c, 3, 57, 0
9, 43140, Note_on_c, 3, 59, 76
9, 43191, Note_on_c, 3, 59, 0
9, 43200, Note_on_c, 3, 60, 84
9, 43904, Note_on_c, 3, 60, 0
9, 43920, Note_on_c, 3, 57, 76
9, 44099, Note_on_c, 3, 57, 0
9, 44160, Note_on_c, 3, 54, 76
9, 44339, Note_on_c, 3, 54, 0
9, 44400, Note_on_c, 3, 48, 76
9, 44579, Note_on_c, 3, 48, 0
9, 44640, Note_on_c, 3, 46, 76
9, 44879, Note_on_c, 3, 46, 0
9, 45120, Note_on_c, 3, 62, 84
9, 45120, Note_on_c, 3, 67, 84
9, 45599, Note_on_c, 3, 62, 0
9, 45600, Note_on_c, 3, 64, 76
9, 45824, Note_on_c, 3, 67, 0
9, 45824, Note_on_c, 3, 64, 0
9, 45840, Note_on_c, 3, 61, 76
9, 45840, Note_on_c, 3, 64, 76
9, 46019, Note_on_c, 3, 61, 0
9, 46019, Note_on_c, 3, 64, 0
9, 46080, Note_on_c, 3, 61, 76
9, 46080, Note_on_c, 3, 55, 76
9, 46259, Note_on_c, 3, 61, 0
9, 46259, Note_on_c, 3, 55, 0
9, 46320, Note_on_c, 3, 55, 76
9, 46320, Note_on_c, 3, 52, 76
9, 46499, Note_on_c, 3, 55, 0
9, 46499, Note_on_c, 3, 52, 0
9, 46560, Note_on_c, 3, 50, 76
9, 46560, Note_on_c, 3, 53, 76
9, 46799, Note_on_c, 3, 50, 0
9, 46799, Note_on_c, 3, 53, 0
9, 47280, Note_on_c, 3, 50, 76
9, 47280, Note_on_c, 3, 62, 76
9, 47339, Note_on_c, 3, 50, 0
9, 47339, Note_on_c, 3, 62, 0
9, 47340, Note_on_c, 3, 61, 76
9, 47340, Note_on_c, 3, 49, 76
9, 47399, Note_on_c, 3, 61, 0
9, 47399, Note_on_c, 3, 49, 0
9, 47400, Note_on_c, 3, 62, 76
9, 47400, Note_on_c, 3, 50, 76
9, 47459, Note_on_c, 3, 62, 0
9, 47459, Note_on_c, 3, 50, 0
9, 47460, Note_on_c, 3, 52, 76
9, 47460, Note_on_c, 3, 64, 76
9, 47511, Note_on_c, 3, 52, 0
9, 47511, Note_on_c, 3, 64, 0
9, 47520, Note_on_c, 3, 65, 76
9, 47520, Note_on_c, 3, 53, 76
9, 47699, Note_on_c, 3, 65, 0
9, 47699, Note_on_c, 3, 53, 0
9, 47760, Note_on_c, 3, 53, 76
9, 47760, Note_on_c, 3, 65, 76
9, 47939, Note_on_c, 3, 53, 0
9, 47939, Note_on_c, 3, 65, 0
9, 48000, Note_on_c, 3, 62, 76
9, 48000, Note_on_c, 3, 50, 76
9, 48179, Note_on_c, 3, 62, 0
9, 48179, Note_on_c, 3, 50, 0
9, 48240, Note_on_c, 3, 62, 76
9, 48240, Note_on_c, 3, 50, 76
9, 48419, Note_on_c, 3, 62, 0
9, 48419, Note_on_c, 3, 50, 0
9, 48480, Note_on_c, 3, 58, 84
9, 48480, Note_on_c, 3, 46, 84
9, 49184, Note_on_c, 3, 58, 0
9, 49184, Note_on_c, 3, 46, 0
9, 49200, Note_on_c, 3, 58, 76
9, 49200, Note_on_c, 3, 46, 76
9, 49259, Note_on_c, 3, 58, 0
9, 49259, Note_on_c, 3, 46, 0
9, 49260, Note_on_c, 3, 45, 76
9, 49260, Note_on_c, 3, 57, 76
9, 49319, Note_on_c, 3, 45, 0
9, 49319, Note_on_c, 3, 57, 0
9, 49320, Note_on_c, 3, 46, 76
9, 49320, Note_on_c, 3, 58, 76
9, 49379, Note_on_c, 3, 46, 0
9, 49379, Note_on_c, 3, 58, 0
9, 49380, Note_on_c, 3, 48, 76
9, 49380, Note_on_c, 3, 60, 76
9, 49431, Note_on_c, 3, 48, 0
9, 49431, Note_on_c, 3, 60, 0
9, 49440, Note_on_c, 3, 62, 76
9, 49440, Note_on_c, 3, 50, 76
9, 49619, Note_on_c, 3, 62, 0
9, 49619, Note_on_c, 3, 50, 0
9, 49680, Note_on_c, 3, 50, 76
9, 49680, Note_on_c, 3, 62, 76
9, 49859, Note_on_c, 3, 50, 0
9, 49859, Note_on_c, 3, 62, 0
9, 49920, Note_on_c, 3, 58, 76
9, 49920, Note_on_c, 3, 46, 76
9, 50099, Note_on_c, 3, 58, 0
9, 50099, Note_on_c, 3, 46, 0
9, 50160, Note_on_c, 3, 58, 76
9, 50160, Note_on_c, 3, 46, 76
9, 50339, Note_on_c, 3, 58, 0
9, 50339, Note_on_c, 3, 46, 0
9, 50400, Note_on_c, 3, 44, 76
9, 50400, Note_on_c, 3, 56, 76
9, 50639, Note_on_c, 3, 44, 0
9, 50639, Note_on_c, 3, 56, 0
9, 56400, Note_on_c, 3, 64, 92
9, 56984, Note_on_c, 3, 64, 0
9, 57000, Note_on_c, 3, 62, 84
9, 57104, Note_on_c, 3, 62, 0
9, 57120, Note_on_c, 3, 60, 84
9, 57224, Note_on_c, 3, 60, 0
9, 57240, Note_on_c, 3, 62, 84
9, 57344, Note_on_c, 3, 62, 0
9, 57360, Note_on_c, 3, 60, 84
9, 57464, Note_on_c, 3, 60, 0
9, 57480, Note_on_c, 3, 59, 84
9, 57584, Note_on_c, 3, 59, 0
9, 57600, Note_on_c, 3, 57, 84
9, 57704, Note_on_c, 3, 57, 0
9, 57720, Note_on_c, 3, 55, 84
9, 57720, Note_on_c, 3, 64, 84
9, 57824, Note_on_c, 3, 55, 0
9, 57824, Note_on_c, 3, 64, 0
9, 57840, Note_on_c, 3, 62, 84
9, 57840, Note_on_c, 3, 54, 84
9, 57944, Note_on_c, 3, 62, 0
9, 57944, Note_on_c, 3, 54, 0
9, 57960, Note_on_c, 3, 53, 84
9, 57960, Note_on_c, 3, 63, 84
9, 58064, Note_on_c, 3, 53, 0
9, 58064, Note_on_c, 3, 63, 0
9, 58080, Note_on_c, 3, 52, 92
9, 58080, Note_on_c, 3, 64, 92
9, 58439, Note_on_c, 3, 52, 0
9, 58439, Note_on_c, 3, 64, 0
9, 58440, Note_on_c, 3, 53, 84
9, 58440, Note_on_c, 3, 65, 84
9, 58544, Note_on_c, 3, 53, 0
9, 58544, Note_on_c, 3, 65, 0
9, 58560, Note_on_c, 3, 52, 92
9, 58560, Note_on_c, 3, 64, 92
9, 58919, Note_on_c, 3, 52, 0
9, 58919, Note_on_c, 3, 64, 0
9, 58920, Note_on_c, 3, 65, 84
9, 58920, Note_on_c, 3, 53, 84
9, 59024, Note_on_c, 3, 65, 0
9, 59024, Note_on_c, 3, 53, 0
9, 59040, Note_on_c, 3, 52, 84
9, 59040, Note_on_c, 3, 64, 84
9, 59129, Note_on_c, 3, 52, 0
9, 59129, Note_on_c, 3, 64, 0
9, 59160, Note_on_c, 3, 65, 84
9, 59160, Note_on_c, 3, 53, 84
9, 59249, Note_on_c, 3, 65, 0
9, 59249, Note_on_c, 3, 53, 0
9, 59280, Note_on_c, 3, 52, 84
9, 59280, Note_on_c, 3, 64, 84
9, 59369, Note_on_c, 3, 52, 0
9, 59369, Note_on_c, 3, 64, 0
9, 59400, Note_on_c, 3, 65, 84
9, 59400, Note_on_c, 3, 53, 84
9, 59489, Note_on_c, 3, 65, 0
9, 59489, Note_on_c, 3, 53, 0
9, 59520, Note_on_c, 3, 52, 84
9, 59520, Note_on_c, 3, 64, 84
9, 59609, Note_on_c, 3, 52, 0
9, 59609, Note_on_c, 3, 64, 0
9, 59640, Note_on_c, 3, 65, 84
9, 59640, Note_on_c, 3, 53, 84
9, 59729, Note_on_c, 3, 65, 0
9, 59729, Note_on_c, 3, 53, 0
9, 59760, Note_on_c, 3, 64, 84
9, 59760, Note_on_c, 3, 52, 84
9, 59849, Note_on_c, 3, 64, 0
9, 59849, Note_on_c, 3, 52, 0
9, 59880, Note_on_c, 3, 53, 84
9, 59880, Note_on_c, 3, 65, 84
9, 59969, Note_on_c, 3, 53, 0
9, 59969, Note_on_c, 3, 65, 0
9, 60000, Note_on_c, 3, 64, 92
9, 60000, Note_on_c, 3, 52, 92
9, 60704, Note_on_c, 3, 64, 0
9, 60704, Note_on_c, 3, 52, 0
9, 60720, Note_on_c, 3, 63, 84
9, 60720, Note_on_c, 3, 51, 84
9, 60899, Note_on_c, 3, 63, 0
9, 60899, Note_on_c, 3, 51, 0
9, 60960, Note_on_c, 3, 50, 84
9, 60960, Note_on_c, 3, 62, 84
9, 61139, Note_on_c, 3, 50, 0
9, 61139, Note_on_c, 3, 62, 0
9, 61200, Note_on_c, 3, 61, 84
9, 61200, Note_on_c, 3, 49, 84
9, 61379, Note_on_c, 3, 61, 0
9, 61379, Note_on_c, 3, 49, 0
9, 61440, Note_on_c, 3, 59, 84
9, 61440, Note_on_c, 3, 47, 84
9, 61619, Note_on_c, 3, 59, 0
9, 61619, Note_on_c, 3, 47, 0
9, 61680, Note_on_c, 3, 64, 84
9, 61680, Note_on_c, 3, 52, 84
9, 61859, Note_on_c, 3, 64, 0
9, 61859, Note_on_c, 3, 52, 0
9, 61920, Note_on_c, 3, 45, 52
9, 61920, Note_on_c, 3, 49, 52
9, 62384, Note_on_c, 3, 45, 0
9, 62384, Note_on_c, 3, 49, 0
9, 62400, Note_on_c, 3, 49, 52
9, 62400, Note_on_c, 3, 52, 52
9, 62811, Note_on_c, 3, 49, 0
9, 62811, Note_on_c, 3, 52, 0
9, 62820, Note_on_c, 3, 52, 52
9, 62820, Note_on_c, 3, 57, 52
9, 62871, Note_on_c, 3, 52, 0
9, 62871, Note_on_c, 3, 57, 0
9, 62880, Note_on_c, 3, 61, 52
9, 62880, Note_on_c, 3, 57, 52
9, 63584, Note_on_c, 3, 61, 0
9, 63584, Note_on_c, 3, 57, 0
9, 63600, Note_on_c, 3, 57, 52
9, 63600, Note_on_c, 3, 61, 52
9, 63779, Note_on_c, 3, 57, 0
9, 63779, Note_on_c, 3, 61, 0
9, 63780, Note_on_c, 3, 59, 52
9, 63780, Note_on_c, 3, 62, 52
9, 63831, Note_on_c, 3, 59, 0
9, 63831, Note_on_c, 3, 62, 0
9, 63840, Note_on_c, 3, 61, 52
9, 63840, Note_on_c, 3, 64, 52
9, 64019, Note_on_c, 3, 61, 0
9, 64019, Note_on_c, 3, 64, 0
9, 64080, Note_on_c, 3, 64, 52
9, 64080, Note_on_c, 3, 61, 52
9, 64259, Note_on_c, 3, 64, 0
9, 64259, Note_on_c, 3, 61, 0
9, 64320, Note_on_c, 3, 64, 52
9, 64320, Note_on_c, 3, 61, 52
9, 64499, Note_on_c, 3, 64, 0
9, 64499, Note_on_c, 3, 61, 0
9, 64560, Note_on_c, 3, 62, 52
9, 64560, Note_on_c, 3, 66, 52
9, 64739, Note_on_c, 3, 62, 0
9, 64739, Note_on_c, 3, 66, 0
9, 64800, Note_on_c, 3, 61, 52
9, 64800, Note_on_c, 3, 64, 52
9, 65279, Note_on_c, 3, 61, 0
9, 65279, Note_on_c, 3, 64, 0
9, 65280, Note_on_c, 3, 57, 52
9, 65280, Note_on_c, 3, 61, 52
9, 65519, Note_on_c, 3, 57, 0
9, 65519, Note_on_c, 3, 61, 0
9, 67440, Note_on_c, 3, 61, 84
9, 67679, Note_on_c, 3, 61, 0
9, 67920, Note_on_c, 3, 59, 92
9, 67920, Note_on_c, 3, 47, 92
9, 68159, Note_on_c, 3, 59, 0
9, 68159, Note_on_c, 3, 47, 0
9, 68400, Note_on_c, 3, 59, 92
9, 68400, Note_on_c, 3, 47, 92
9, 68639, Note_on_c, 3, 59, 0
9, 68639, Note_on_c, 3, 47, 0
9, 68640, Note_on_c, 3, 52, 84
9, 68640, Note_on_c, 3, 59, 84
9, 68864, Note_on_c, 3, 52, 0
9, 68864, Note_on_c, 3, 59, 0
9, 68880, Control_c, 3, 11, 64
9, 68880, Note_on_c, 3, 52, 84
9, 68880, Note_on_c, 3, 56, 84
9, 68940, Control_c, 3, 11, 67
9, 69000, Control_c, 3, 11, 69
9, 69060, Control_c, 3, 11, 72
9, 69119, Note_on_c, 3, 52, 0
9, 69119, Note_on_c, 3, 56, 0
9, 69120, Note_on_c, 3, 59, 84
9, 69120, Control_c, 3, 11, 75
9, 69120, Note_on_c, 3, 56, 84
9, 69180, Control_c, 3, 11, 77
9, 69240, Control_c, 3, 11, 80
9, 69300, Control_c, 3, 11, 83
9, 69359, Note_on_c, 3, 59, 0
9, 69359, Note_on_c, 3, 56, 0
9, 69360, Note_on_c, 3, 59, 84
9, 69360, Note_on_c, 3, 62, 84
9, 69360, Control_c, 3, 11, 85
9, 69420, Control_c, 3, 11, 88
9, 69480, Control_c, 3, 11, 91
9, 69540, Control_c, 3, 11, 93
9, 69584, Note_on_c, 3, 59, 0
9, 69584, Note_on_c, 3, 62, 0
9, 69590, Control_c, 3, 11, 64
9, 69600, Note_on_c, 3, 57, 84
9, 69600, Note_on_c, 3, 61, 84
9, 69839, Note_on_c, 3, 57, 0
9, 69839, Note_on_c, 3, 61, 0
9, 70020, Control_c, 3, 11, 127
9, 70080, Note_on_c, 3, 52, 52
9, 70080, Note_on_c, 3, 49, 52
9, 70491, Note_on_c, 3, 52, 0
9, 70491, Note_on_c, 3, 49, 0
9, 70500, Note_on_c, 3, 52, 52
9, 70500, Note_on_c, 3, 57, 52
9, 70551, Note_on_c, 3, 52, 0
9, 70551, Note_on_c, 3, 57, 0
9, 70560, Note_on_c, 3, 61, 52
9, 70560, Note_on_c, 3, 57, 52
9, 71264, Note_on_c, 3, 61, 0
9, 71264, Note_on_c, 3, 57, 0
9, 71280, Note_on_c, 3, 57, 52
9, 71280, Note_on_c, 3, 61, 52
9, 71459, Note_on_c, 3, 57, 0
9, 71459, Note_on_c, 3, 61, 0
9, 71460, Note_on_c, 3, 59, 52
9, 71460, Note_on_c, 3, 62, 52
9, 71511, Note_on_c, 3, 59, 0
9, 71511, Note_on_c, 3, 62, 0
9, 71520, Note_on_c, 3, 64, 52
9, 71520, Note_on_c, 3, 61, 52
9, 71699, Note_on_c, 3, 64, 0
9, 71699, Note_on_c, 3, 61, 0
9, 71760, Note_on_c, 3, 61, 52
9, 71760, Note_on_c, 3, 64, 52
9, 71939, Note_on_c, 3, 61, 0
9, 71939, Note_on_c, 3, 64, 0
9, 72000, Note_on_c, 3, 64, 52
9, 72000, Note_on_c, 3, 61, 52
9, 72179, Note_on_c, 3, 64, 0
9, 72179, Note_on_c, 3, 61, 0
9, 72240, Note_on_c, 3, 66, 52
9, 72240, Note_on_c, 3, 62, 52
9, 72419, Note_on_c, 3, 66, 0
9, 72419, Note_on_c, 3, 62, 0
9, 72480, Note_on_c, 3, 61, 52
9, 72480, Note_on_c, 3, 64, 52
9, 72959, Note_on_c, 3, 61, 0
9, 72959, Note_on_c, 3, 64, 0
9, 72960, Note_on_c, 3, 57, 52
9, 72960, Note_on_c, 3, 61, 52
9, 73049, Note_on_c, 3, 57, 0
9, 73049, Note_on_c, 3, 61, 0
9, 75120, Note_on_c, 3, 61, 84
9, 75359, Note_on_c, 3, 61, 0
9, 75600, Note_on_c, 3, 47, 92
9, 75600, Note_on_c, 3, 59, 92
9, 75839, Note_on_c, 3, 47, 0
9, 75839, Note_on_c, 3, 59, 0
9, 76080, Note_on_c, 3, 59, 92
9, 76080, Note_on_c, 3, 47, 92
9, 76319, Note_on_c, 3, 59, 0
9, 76319, Note_on_c, 3, 47, 0
9, 76320, Note_on_c, 3, 52, 84
9, 76320, Note_on_c, 3, 59, 84
9, 76559, Note_on_c, 3, 52, 0
9, 76559, Note_on_c, 3, 59, 0
9, 84420, Note_on_c, 3, 50, 84
9, 84420, Note_on_c, 3, 62, 84
9, 84471, Note_on_c, 3, 50, 0
9, 84471, Note_on_c, 3, 62, 0
9, 84480, Note_on_c, 3, 50, 84
9, 84480, Note_on_c, 3, 62, 84
9, 84959, Note_on_c, 3, 50, 0
9, 84959, Note_on_c, 3, 62, 0
9, 85380, Note_on_c, 3, 59, 84
9, 85380, Note_on_c, 3, 47, 84
9, 85431, Note_on_c, 3, 59, 0
9, 85431, Note_on_c, 3, 47, 0
9, 85440, Note_on_c, 3, 59, 84
9, 85440, Note_on_c, 3, 47, 84
9, 85919, Note_on_c, 3, 59, 0
9, 85919, Note_on_c, 3, 47, 0
9, 86160, Note_on_c, 3, 56, 84
9, 86160, Note_on_c, 3, 44, 84
9, 86339, Note_on_c, 3, 56, 0
9, 86339, Note_on_c, 3, 44, 0
9, 86640, Note_on_c, 3, 57, 84
9, 86640, Note_on_c, 3, 45, 84
9, 86819, Note_on_c, 3, 57, 0
9, 86819, Note_on_c, 3, 45, 0
9, 87120, Note_on_c, 3, 50, 84
9, 87120, Note_on_c, 3, 62, 84
9, 87299, Note_on_c, 3, 50, 0
9, 87299, Note_on_c, 3, 62, 0
9, 87600, Note_on_c, 3, 64, 84
9, 87600, Note_on_c, 3, 52, 84
9, 87779, Note_on_c, 3, 64, 0
9, 87779, Note_on_c, 3, 52, 0
9, 88260, Note_on_c, 3, 57, 84
9, 88260, Note_on_c, 3, 54, 84
9, 88311, Note_on_c, 3, 57, 0
9, 88311, Note_on_c, 3, 54, 0
9, 88320, Note_on_c, 3, 54, 84
9, 88320, Note_on_c, 3, 57, 84
9, 88799, Note_on_c, 3, 54, 0
9, 88799, Note_on_c, 3, 57, 0
9, 89220, Note_on_c, 3, 59, 84
9, 89220, Note_on_c, 3, 56, 84
9, 89271, Note_on_c, 3, 59, 0
9, 89271, Note_on_c, 3, 56, 0
9, 89280, Note_on_c, 3, 56, 84
9, 89280, Note_on_c, 3, 59, 84
9, 89759, Note_on_c, 3, 56, 0
9, 89759, Note_on_c, 3, 59, 0
9, 97440, Note_on_c, 3, 52, 84
9, 97544, Note_on_c, 3, 52, 0
9, 97560, Note_on_c, 3, 57, 84
9, 97664, Note_on_c, 3, 57, 0
9, 97680, Note_on_c, 3, 61, 84
9, 97784, Note_on_c, 3, 61, 0
9, 97800, Note_on_c, 3, 64, 84
9, 97904, Note_on_c, 3, 64, 0
9, 97920, Note_on_c, 3, 52, 84
9, 98024, Note_on_c, 3, 52, 0
9, 98040, Note_on_c, 3, 57, 84
9, 98144, Note_on_c, 3, 57, 0
9, 98160, Note_on_c, 3, 61, 84
9, 98264, Note_on_c, 3, 61, 0
9, 98280, Note_on_c, 3, 64, 84
9, 98384, Note_on_c, 3, 64, 0
9, 98400, Note_on_c, 3, 62, 84
9, 98400, Note_on_c, 3, 52, 84
9, 98504, Note_on_c, 3, 52, 0
9, 98520, Note_on_c, 3, 52, 84
9, 98624, Note_on_c, 3, 52, 0
9, 98640, Note_on_c, 3, 52, 84
9, 98744, Note_on_c, 3, 52, 0
9, 98760, Note_on_c, 3, 52, 84
9, 98864, Note_on_c, 3, 52, 0
9, 98880, Note_on_c, 3, 52, 84
9, 98984, Note_on_c, 3, 52, 0
9, 99000, Note_on_c, 3, 52, 84
9, 99104, Note_on_c, 3, 52, 0
9, 99120, Note_on_c, 3, 52, 84
9, 99224, Note_on_c, 3, 52, 0
9, 99240, Note_on_c, 3, 52, 84
9, 99344, Note_on_c, 3, 62, 0
9, 99344, Note_on_c, 3, 52, 0
9, 99360, Note_on_c, 3, 61, 84
9, 99360, Note_on_c, 3, 45, 84
9, 99599, Note_on_c, 3, 61, 0
9, 99599, Note_on_c, 3, 45, 0
9, 101280, Note_on_c, 3, 62, 84
9, 101984, Note_on_c, 3, 62, 0
9, 102000, Note_on_c, 3, 62, 84
9, 102179, Note_on_c, 3, 62, 0
9, 102240, Note_on_c, 3, 57, 84
9, 102419, Note_on_c, 3, 57, 0
9, 102480, Note_on_c, 3, 53, 84
9, 102659, Note_on_c, 3, 53, 0
9, 102720, Note_on_c, 3, 52, 84
9, 102899, Note_on_c, 3, 52, 0
9, 102960, Note_on_c, 3, 50, 84
9, 103139, Note_on_c, 3, 50, 0
9, 103200, Note_on_c, 3, 45, 84
9, 103439, Note_on_c, 3, 45, 0
9, 105120, Note_on_c, 3, 62, 84
9, 105824, Note_on_c, 3, 62, 0
9, 105840, Note_on_c, 3, 62, 84
9, 106019, Note_on_c, 3, 62, 0
9, 106080, Note_on_c, 3, 57, 84
9, 106259, Note_on_c, 3, 57, 0
9, 106320, Note_on_c, 3, 53, 84
9, 106499, Note_on_c, 3, 53, 0
9, 106560, Note_on_c, 3, 52, 84
9, 106739, Note_on_c, 3, 52, 0
9, 106800, Note_on_c, 3, 50, 84
9, 106979, Note_on_c, 3, 50, 0
9, 107280, Note_on_c, 3, 57, 52
9, 107280, Note_on_c, 3, 62, 52
9, 107519, Note_on_c, 3, 57, 0
9, 107519, Note_on_c, 3, 62, 0
9, 107520, Note_on_c, 3, 64, 52
9, 107520, Note_on_c, 3, 61, 52
9, 107759, Note_on_c, 3, 64, 0
9, 107759, Note_on_c, 3, 61, 0
9, 107760, Note_on_c, 3, 65, 76
9, 107760, Note_on_c, 3, 62, 76
9, 107984, Note_on_c, 3, 65, 0
9, 107984, Note_on_c, 3, 62, 0
9, 108000, Note_on_c, 3, 64, 52
9, 108000, Note_on_c, 3, 61, 52
9, 108239, Note_on_c, 3, 64, 0
9, 108239, Note_on_c, 3, 61, 0
9, 109200, Note_on_c, 3, 57, 52
9, 109200, Note_on_c, 3, 62, 52
9, 109439, Note_on_c, 3, 57, 0
9, 109439, Note_on_c, 3, 62, 0
9, 109440, Note_on_c, 3, 61, 52
9, 109440, Note_on_c, 3, 64, 52
9, 109679, Note_on_c, 3, 61, 0
9, 109679, Note_on_c, 3, 64, 0
9, 109680, Note_on_c, 3, 62, 76
9, 109680, Note_on_c, 3, 65, 76
9, 109904, Note_on_c, 3, 62, 0
9, 109904, Note_on_c, 3, 65, 0
9, 109920, Note_on_c, 3, 61, 52
9, 109920, Note_on_c, 3, 64, 52
9, 110159, Note_on_c, 3, 61, 0
9, 110159, Note_on_c, 3, 64, 0
9, 110640, Note_on_c, 3, 62, 76
9, 110640, Note_on_c, 3, 65, 76
9, 110864, Note_on_c, 3, 62, 0
9, 110864, Note_on_c, 3, 65, 0
9, 110880, Note_on_c, 3, 64, 52
9, 110880, Note_on_c, 3, 61, 52
9, 111104, Note_on_c, 3, 64, 0
9, 111104, Note_on_c, 3, 61, 0
9, 111120, Note_on_c, 3, 62, 76
9, 111120, Note_on_c, 3, 65, 76
9, 111344, Note_on_c, 3, 62, 0
9, 111344, Note_on_c, 3, 65, 0
9, 111360, Note_on_c, 3, 61, 52
9, 111360, Note_on_c, 3, 64, 52
9, 111584, Note_on_c, 3, 61, 0
9, 111584, Note_on_c, 3, 64, 0
9, 111600, Note_on_c, 3, 62, 76
9, 111600, Note_on_c, 3, 65, 76
9, 111824, Note_on_c, 3, 62, 0
9, 111824, Note_on_c, 3, 65, 0
9, 111840, Note_on_c, 3, 64, 52
9, 111840, Note_on_c, 3, 61, 52
9, 112064, Note_on_c, 3, 64, 0
9, 112064, Note_on_c, 3, 61, 0
9, 112080, Note_on_c, 3, 65, 76
9, 112080, Note_on_c, 3, 62, 76
9, 112304, Note_on_c, 3, 65, 0
9, 112304, Note_on_c, 3, 62, 0
9, 112320, Note_on_c, 3, 64, 52
9, 112320, Note_on_c, 3, 61, 52
9, 112544, Note_on_c, 3, 64, 0
9, 112544, Note_on_c, 3, 61, 0
9, 112560, Note_on_c, 3, 62, 76
9, 112784, Note_on_c, 3, 62, 0
9, 112800, Note_on_c, 3, 57, 84
9, 113744, Note_on_c, 3, 57, 0
9, 113760, Note_on_c, 3, 52, 84
9, 113760, Note_on_c, 3, 64, 84
9, 114224, Note_on_c, 3, 52, 0
9, 114224, Note_on_c, 3, 64, 0
9, 114240, Note_on_c, 3, 49, 84
9, 114240, Note_on_c, 3, 61, 84
9, 114704, Note_on_c, 3, 49, 0
9, 114704, Note_on_c, 3, 61, 0
9, 114720, Note_on_c, 3, 45, 84
9, 114720, Note_on_c, 3, 57, 84
9, 115664, Note_on_c, 3, 45, 0
9, 115664, Note_on_c, 3, 57, 0
9, 115680, Note_on_c, 3, 49, 84
9, 115680, Note_on_c, 3, 61, 84
9, 116144, Note_on_c, 3, 49, 0
9, 116144, Note_on_c, 3, 61, 0
9, 116160, Note_on_c, 3, 64, 84
9, 116160, Note_on_c, 3, 52, 84
9, 116624, Note_on_c, 3, 64, 0
9, 116624, Note_on_c, 3, 52, 0
9, 116640, Note_on_c, 3, 57, 84
9, 116879, Note_on_c, 3, 57, 0
9, 117120, Note_on_c, 3, 57, 76
9, 117120, Note_on_c, 3, 61, 76
9, 117359, Note_on_c, 3, 57, 0
9, 117359, Note_on_c, 3, 61, 0
9, 118080, Note_on_c, 3, 61, 76
9, 118080, Note_on_c, 3, 64, 76
9, 118319, Note_on_c, 3, 61, 0
9, 118319, Note_on_c, 3, 64, 0
9, 118560, Note_on_c, 3, 67, 52
9, 119279, Note_on_c, 3, 67, 0
9, 119280, Note_on_c, 3, 66, 52
9, 119519, Note_on_c, 3, 66, 0
9, 119520, Note_on_c, 3, 64, 52
9, 119759, Note_on_c, 3, 64, 0
9, 119760, Note_on_c, 3, 62, 52
9, 119999, Note_on_c, 3, 62, 0
9, 120000, Note_on_c, 3, 61, 52
9, 120239, Note_on_c, 3, 61, 0
9, 120240, Note_on_c, 3, 57, 52
9, 120464, Note_on_c, 3, 57, 0
9, 120480, Note_on_c, 3, 62, 52
9, 120719, Note_on_c, 3, 62, 0
9, 123120, Control_c, 3, 11, 96
9, 123360, Note_on_c, 3, 62, 68
9, 123360, Note_on_c, 3, 66, 68
9, 123360, Control_c, 3, 11, 96
9, 123440, Control_c, 3, 11, 99
9, 123520, Control_c, 3, 11, 101
9, 123600, Control_c, 3, 11, 104
9, 123680, Control_c, 3, 11, 106
9, 123760, Control_c, 3, 11, 109
9, 123840, Control_c, 3, 11, 112
9, 123920, Control_c, 3, 11, 114
9, 124000, Control_c, 3, 11, 117
9, 124080, Control_c, 3, 11, 119
9, 124160, Control_c, 3, 11, 122
9, 124240, Control_c, 3, 11, 124
9, 124319, Note_on_c, 3, 66, 0
9, 124320, Control_c, 3, 11, 96
9, 124320, Note_on_c, 3, 64, 68
9, 124559, Note_on_c, 3, 62, 0
9, 124559, Note_on_c, 3, 64, 0
9, 126960, Control_c, 3, 11, 80
9, 127200, Note_on_c, 3, 64, 76
9, 127919, Note_on_c, 3, 64, 0
9, 127920, Note_on_c, 3, 65, 76
9, 128159, Note_on_c, 3, 65, 0
9, 128160, Note_on_c, 3, 66, 76
9, 128399, Note_on_c, 3, 66, 0
9, 129120, Note_on_c, 3, 66, 76
9, 129824, Note_on_c, 3, 66, 0
9, 129840, Note_on_c, 3, 66, 76
9, 130064, Note_on_c, 3, 66, 0
9, 130080, Control_c, 3, 11, 80
9, 130080, Note_on_c, 3, 69, 76
9, 130319, Note_on_c, 3, 69, 0
9, 130320, Note_on_c, 3, 67, 76
9, 130320, Control_c, 3, 11, 84
9, 130560, Control_c, 3, 11, 88
9, 130784, Note_on_c, 3, 67, 0
9, 130800, Note_on_c, 3, 66, 76
9, 130800, Control_c, 3, 11, 92
9, 131040, Control_c, 3, 11, 96
9, 131264, Note_on_c, 3, 66, 0
9, 131280, Note_on_c, 3, 64, 76
9, 131280, Control_c, 3, 11, 100
9, 131520, Control_c, 3, 11, 104
9, 131759, Note_on_c, 3, 64, 0
9, 131760, Note_on_c, 3, 63, 76
9, 131760, Control_c, 3, 11, 107
9, 132000, Control_c, 3, 11, 111
9, 132224, Note_on_c, 3, 63, 0
9, 132240, Note_on_c, 3, 64, 76
9, 132240, Control_c, 3, 11, 115
9, 132479, Note_on_c, 3, 64, 0
9, 132480, Note_on_c, 3, 67, 76
9, 132480, Control_c, 3, 11, 119
9, 132719, Note_on_c, 3, 67, 0
9, 132720, Note_on_c, 3, 61, 76
9, 132720, Control_c, 3, 11, 123
9, 132944, Note_on_c, 3, 61, 0
9, 132960, Note_on_c, 3, 62, 76
9, 132960, Control_c, 3, 11, 127
9, 132960, Note_on_c, 3, 50, 76
9, 133664, Note_on_c, 3, 62, 0
9, 133664, Note_on_c, 3, 50, 0
9, 133680, Note_on_c, 3, 50, 76
9, 133739, Note_on_c, 3, 50, 0
9, 133740, Note_on_c, 3, 49, 76
9, 133799, Note_on_c, 3, 49, 0
9, 133800, Note_on_c, 3, 50, 76
9, 133859, Note_on_c, 3, 50, 0
9, 133860, Note_on_c, 3, 52, 76
9, 133911, Note_on_c, 3, 52, 0
9, 133920, Note_on_c, 3, 54, 84
9, 134624, Note_on_c, 3, 54, 0
9, 134640, Note_on_c, 3, 54, 76
9, 134699, Note_on_c, 3, 54, 0
9, 134700, Note_on_c, 3, 52, 76
9, 134759, Note_on_c, 3, 52, 0
9, 134760, Note_on_c, 3, 54, 76
9, 134819, Note_on_c, 3, 54, 0
9, 134820, Note_on_c, 3, 55, 76
9, 134871, Note_on_c, 3, 55, 0
9, 134880, Note_on_c, 3, 57, 76
9, 135059, Note_on_c, 3, 57, 0
9, 135120, Note_on_c, 3, 57, 76
9, 135179, Note_on_c, 3, 57, 0
9, 135180, Note_on_c, 3, 56, 76
9, 135239, Note_on_c, 3, 56, 0
9, 135240, Note_on_c, 3, 57, 76
9, 135299, Note_on_c, 3, 57, 0
9, 135300, Note_on_c, 3, 59, 76
9, 135351, Note_on_c, 3, 59, 0
9, 135360, Note_on_c, 3, 60, 84
9, 136064, Note_on_c, 3, 60, 0
9, 136080, Note_on_c, 3, 57, 76
9, 136259, Note_on_c, 3, 57, 0
9, 136320, Note_on_c, 3, 54, 76
9, 136499, Note_on_c, 3, 54, 0
9, 136560, Note_on_c, 3, 48, 76
9, 136739, Note_on_c, 3, 48, 0
9, 136800, Note_on_c, 3, 47, 76
9, 137039, Note_on_c, 3, 47, 0
9, 137280, Note_on_c, 3, 62, 84
9, 137280, Note_on_c, 3, 67, 84
9, 137759, Note_on_c, 3, 62, 0
9, 137760, Note_on_c, 3, 64, 76
9, 137984, Note_on_c, 3, 67, 0
9, 137984, Note_on_c, 3, 64, 0
9, 138000, Note_on_c, 3, 61, 76
9, 138000, Note_on_c, 3, 64, 76
9, 138179, Note_on_c, 3, 61, 0
9, 138179, Note_on_c, 3, 64, 0
9, 138240, Note_on_c, 3, 55, 76
9, 138240, Note_on_c, 3, 61, 76
9, 138419, Note_on_c, 3, 55, 0
9, 138419, Note_on_c, 3, 61, 0
9, 138480, Note_on_c, 3, 52, 76
9, 138480, Note_on_c, 3, 55, 76
9, 138659, Note_on_c, 3, 52, 0
9, 138659, Note_on_c, 3, 55, 0
9, 138720, Note_on_c, 3, 50, 76
9, 138720, Note_on_c, 3, 54, 76
9, 138899, Note_on_c, 3, 50, 0
9, 138899, Note_on_c, 3, 54, 0
9, 138960, Note_on_c, 3, 57, 76
9, 139019, Note_on_c, 3, 57, 0
9, 139020, Note_on_c, 3, 56, 76
9, 139079, Note_on_c, 3, 56, 0
9, 139080, Note_on_c, 3, 57, 76
9, 139139, Note_on_c, 3, 57, 0
9, 139140, Note_on_c, 3, 59, 76
9, 139191, Note_on_c, 3, 59, 0
9, 139200, Note_on_c, 3, 60, 84
9, 139904, Note_on_c, 3, 60, 0
9, 139920, Note_on_c, 3, 57, 76
9, 140099, Note_on_c, 3, 57, 0
9, 140160, Note_on_c, 3, 54, 76
9, 140339, Note_on_c, 3, 54, 0
9, 140400, Note_on_c, 3, 48, 76
9, 140579, Note_on_c, 3, 48, 0
9, 140640, Note_on_c, 3, 46, 76
9, 140879, Note_on_c, 3, 46, 0
9, 141120, Note_on_c, 3, 62, 84
9, 141120, Note_on_c, 3, 67, 84
9, 141599, Note_on_c, 3, 62, 0
9, 141600, Note_on_c, 3, 64, 76
9, 141824, Note_on_c, 3, 67, 0
9, 141824, Note_on_c, 3, 64, 0
9, 141840, Note_on_c, 3, 64, 76
9, 141840, Note_on_c, 3, 61, 76
9, 142019, Note_on_c, 3, 64, 0
9, 142019, Note_on_c, 3, 61, 0
9, 142080, Note_on_c, 3, 61, 76
9, 142080, Note_on_c, 3, 55, 76
9, 142259, Note_on_c, 3, 61, 0
9, 142259, Note_on_c, 3, 55, 0
9, 142320, Note_on_c, 3, 55, 76
9, 142320, Note_on_c, 3, 52, 76
9, 142499, Note_on_c, 3, 55, 0
9, 142499, Note_on_c, 3, 52, 0
9, 142560, Note_on_c, 3, 50, 76
9, 142560, Note_on_c, 3, 53, 76
9, 142799, Note_on_c, 3, 50, 0
9, 142799, Note_on_c, 3, 53, 0
9, 143280, Note_on_c, 3, 50, 76
9, 143280, Note_on_c, 3, 62, 76
9, 143339, Note_on_c, 3, 50, 0
9, 143339, Note_on_c, 3, 62, 0
9, 143340, Note_on_c, 3, 49, 76
9, 143340, Note_on_c, 3, 61, 76
9, 143399, Note_on_c, 3, 49, 0
9, 143399, Note_on_c, 3, 61, 0
9, 143400, Note_on_c, 3, 62, 76
9, 143400, Note_on_c, 3, 50, 76
9, 143459, Note_on_c, 3, 62, 0
9, 143459, Note_on_c, 3, 50, 0
9, 143460, Note_on_c, 3, 64, 76
9, 143460, Note_on_c, 3, 52, 76
9, 143511, Note_on_c, 3, 64, 0
9, 143511, Note_on_c, 3, 52, 0
9, 143520, Note_on_c, 3, 53, 76
9, 143520, Note_on_c, 3, 65, 76
9, 143699, Note_on_c, 3, 53, 0
9, 143699, Note_on_c, 3, 65, 0
9, 143760, Note_on_c, 3, 65, 76
9, 143760, Note_on_c, 3, 53, 76
9, 143939, Note_on_c, 3, 65, 0
9, 143939, Note_on_c, 3, 53, 0
9, 144000, Note_on_c, 3, 62, 76
9, 144000, Note_on_c, 3, 50, 76
9, 144179, Note_on_c, 3, 62, 0
9, 144179, Note_on_c, 3, 50, 0
9, 144240, Note_on_c, 3, 62, 76
9, 144240, Note_on_c, 3, 50, 76
9, 144419, Note_on_c, 3, 62, 0
9, 144419, Note_on_c, 3, 50, 0
9, 144480, Note_on_c, 3, 58, 84
9, 144480, Note_on_c, 3, 46, 84
9, 145184, Note_on_c, 3, 58, 0
9, 145184, Note_on_c, 3, 46, 0
9, 145200, Note_on_c, 3, 58, 76
9, 145200, Note_on_c, 3, 46, 76
9, 145259, Note_on_c, 3, 58, 0
9, 145259, Note_on_c, 3, 46, 0
9, 145260, Note_on_c, 3, 57, 76
9, 145260, Note_on_c, 3, 45, 76
9, 145319, Note_on_c, 3, 57, 0
9, 145319, Note_on_c, 3, 45, 0
9, 145320, Note_on_c, 3, 46, 76
9, 145320, Note_on_c, 3, 58, 76
9, 145379, Note_on_c, 3, 46, 0
9, 145379, Note_on_c, 3, 58, 0
9, 145380, Note_on_c, 3, 60, 76
9, 145380, Note_on_c, 3, 48, 76
9, 145431, Note_on_c, 3, 60, 0
9, 145431, Note_on_c, 3, 48, 0
9, 145440, Note_on_c, 3, 62, 76
9, 145440, Note_on_c, 3, 50, 76
9, 145619, Note_on_c, 3, 62, 0
9, 145619, Note_on_c, 3, 50, 0
9, 145680, Note_on_c, 3, 50, 76
9, 145680, Note_on_c, 3, 62, 76
9, 145859, Note_on_c, 3, 50, 0
9, 145859, Note_on_c, 3, 62, 0
9, 145920, Note_on_c, 3, 46, 76
9, 145920, Note_on_c, 3, 58, 76
9, 146099, Note_on_c, 3, 46, 0
9, 146099, Note_on_c, 3, 58, 0
9, 146160, Note_on_c, 3, 46, 76
9, 146160, Note_on_c, 3, 58, 76
9, 146339, Note_on_c, 3, 46, 0
9, 146339, Note_on_c, 3, 58, 0
9, 146400, Note_on_c, 3, 44, 76
9, 146400, Note_on_c, 3, 56, 76
9, 146639, Note_on_c, 3, 44, 0
9, 146639, Note_on_c, 3, 56, 0
9, 152400, Note_on_c, 3, 64, 92
9, 152984, Note_on_c, 3, 64, 0
9, 153000, Note_on_c, 3, 62, 84
9, 153104, Note_on_c, 3, 62, 0
9, 153120, Note_on_c, 3, 60, 84
9, 153224, Note_on_c, 3, 60, 0
9, 153240, Note_on_c, 3, 62, 84
9, 153344, Note_on_c, 3, 62, 0
9, 153360, Note_on_c, 3, 60, 84
9, 153464, Note_on_c, 3, 60, 0
9, 153480, Note_on_c, 3, 59, 84
9, 153584, Note_on_c, 3, 59, 0
9, 153600, Note_on_c, 3, 57, 84
9, 153704, Note_on_c, 3, 57, 0
9, 153720, Note_on_c, 3, 55, 84
9, 153720, Note_on_c, 3, 64, 84
9, 153824, Note_on_c, 3, 55, 0
9, 153824, Note_on_c, 3, 64, 0
9, 153840, Note_on_c, 3, 62, 84
9, 153840, Note_on_c, 3, 54, 84
9, 153944, Note_on_c, 3, 62, 0
9, 153944, Note_on_c, 3, 54, 0
9, 153960, Note_on_c, 3, 63, 84
9, 153960, Note_on_c, 3, 53, 84
9, 154064, Note_on_c, 3, 63, 0
9, 154064, Note_on_c, 3, 53, 0
9, 154080, Note_on_c, 3, 52, 92
9, 154080, Note_on_c, 3, 64, 92
9, 154439, Note_on_c, 3, 52, 0
9, 154439, Note_on_c, 3, 64, 0
9, 154440, Note_on_c, 3, 53, 84
9, 154440, Note_on_c, 3, 65, 84
9, 154544, Note_on_c, 3, 53, 0
9, 154544, Note_on_c, 3, 65, 0
9, 154560, Note_on_c, 3, 64, 92
9, 154560, Note_on_c, 3, 52, 92
9, 154919, Note_on_c, 3, 64, 0
9, 154919, Note_on_c, 3, 52, 0
9, 154920, Note_on_c, 3, 53, 84
9, 154920, Note_on_c, 3, 65, 84
9, 155024, Note_on_c, 3, 53, 0
9, 155024, Note_on_c, 3, 65, 0
9, 155040, Note_on_c, 3, 52, 84
9, 155040, Note_on_c, 3, 64, 84
9, 155129, Note_on_c, 3, 52, 0
9, 155129, Note_on_c, 3, 64, 0
9, 155160, Note_on_c, 3, 53, 84
9, 155160, Note_on_c, 3, 65, 84
9, 155249, Note_on_c, 3, 53, 0
9, 155249, Note_on_c, 3, 65, 0
9, 155280, Note_on_c, 3, 52, 84
9, 155280, Note_on_c, 3, 64, 84
9, 155369, Note_on_c, 3, 52, 0
9, 155369, Note_on_c, 3, 64, 0
9, 155400, Note_on_c, 3, 53, 84
9, 155400, Note_on_c, 3, 65, 84
9, 155489, Note_on_c, 3, 53, 0
9, 155489, Note_on_c, 3, 65, 0
9, 155520, Note_on_c, 3, 64, 84
9, 155520, Note_on_c, 3, 52, 84
9, 155609, Note_on_c, 3, 64, 0
9, 155609, Note_on_c, 3, 52, 0
9, 155640, Note_on_c, 3, 53, 84
9, 155640, Note_on_c, 3, 65, 84
9, 155729, Note_on_c, 3, 53, 0
9, 155729, Note_on_c, 3, 65, 0
9, 155760, Note_on_c, 3, 52, 84
9, 155760, Note_on_c, 3, 64, 84
9, 155849, Note_on_c, 3, 52, 0
9, 155849, Note_on_c, 3, 64, 0
9, 155880, Note_on_c, 3, 65, 84
9, 155880, Note_on_c, 3, 53, 84
9, 155969, Note_on_c, 3, 65, 0
9, 155969, Note_on_c, 3, 53, 0
9, 156000, Note_on_c, 3, 64, 92
9, 156000, Note_on_c, 3, 52, 92
9, 156704, Note_on_c, 3, 64, 0
9, 156704, Note_on_c, 3, 52, 0
9, 156720, Note_on_c, 3, 51, 84
9, 156720, Note_on_c, 3, 63, 84
9, 156899, Note_on_c, 3, 51, 0
9, 156899, Note_on_c, 3, 63, 0
9, 156960, Note_on_c, 3, 50, 84
9, 156960, Note_on_c, 3, 62, 84
9, 157139, Note_on_c, 3, 50, 0
9, 157139, Note_on_c, 3, 62, 0
9, 157200, Note_on_c, 3, 49, 84
9, 157200, Note_on_c, 3, 61, 84
9, 157379, Note_on_c, 3, 49, 0
9, 157379, Note_on_c, 3, 61, 0
9, 157440, Note_on_c, 3, 59, 84
9, 157440, Note_on_c, 3, 47, 84
9, 157619, Note_on_c, 3, 59, 0
9, 157619, Note_on_c, 3, 47, 0
9, 157680, Note_on_c, 3, 64, 84
9, 157680, Note_on_c, 3, 52, 84
9, 157859, Note_on_c, 3, 64, 0
9, 157859, Note_on_c, 3, 52, 0
9, 157920, Note_on_c, 3, 45, 52
9, 157920, Note_on_c, 3, 49, 52
9, 158384, Note_on_c, 3, 45, 0
9, 158384, Note_on_c, 3, 49, 0
9, 158400, Note_on_c, 3, 49, 52
9, 158400, Note_on_c, 3, 52, 52
9, 158811, Note_on_c, 3, 49, 0
9, 158811, Note_on_c, 3, 52, 0
9, 158820, Note_on_c, 3, 52, 52
9, 158820, Note_on_c, 3, 57, 52
9, 158871, Note_on_c, 3, 52, 0
9, 158871, Note_on_c, 3, 57, 0
9, 158880, Note_on_c, 3, 57, 52
9, 158880, Note_on_c, 3, 61, 52
9, 159584, Note_on_c, 3, 57, 0
9, 159584, Note_on_c, 3, 61, 0
9, 159600, Note_on_c, 3, 61, 52
9, 159600, Note_on_c, 3, 57, 52
9, 159779, Note_on_c, 3, 61, 0
9, 159779, Note_on_c, 3, 57, 0
9, 159780, Note_on_c, 3, 59, 52
9, 159780, Note_on_c, 3, 62, 52
9, 159831, Note_on_c, 3, 59, 0
9, 159831, Note_on_c, 3, 62, 0
9, 159840, Note_on_c, 3, 61, 52
9, 159840, Note_on_c, 3, 64, 52
9, 160019, Note_on_c, 3, 61, 0
9, 160019, Note_on_c, 3, 64, 0
9, 160080, Note_on_c, 3, 64, 52
9, 160080, Note_on_c, 3, 61, 52
9, 160259, Note_on_c, 3, 64, 0
9, 160259, Note_on_c, 3, 61, 0
9, 160320, Note_on_c, 3, 64, 52
9, 160320, Note_on_c, 3, 61, 52
9, 160499, Note_on_c, 3, 64, 0
9, 160499, Note_on_c, 3, 61, 0
9, 160560, Note_on_c, 3, 62, 52
9, 160560, Note_on_c, 3, 66, 52
9, 160739, Note_on_c, 3, 62, 0
9, 160739, Note_on_c, 3, 66, 0
9, 160800, Note_on_c, 3, 64, 52
9, 160800, Note_on_c, 3, 61, 52
9, 161279, Note_on_c, 3, 64, 0
9, 161279, Note_on_c, 3, 61, 0
9, 161280, Note_on_c, 3, 57, 52
9, 161280, Note_on_c, 3, 61, 52
9, 161519, Note_on_c, 3, 57, 0
9, 161519, Note_on_c, 3, 61, 0
9, 163440, Note_on_c, 3, 61, 84
9, 163679, Note_on_c, 3, 61, 0
9, 163920, Note_on_c, 3, 59, 92
9, 163920, Note_on_c, 3, 47, 92
9, 164159, Note_on_c, 3, 59, 0
9, 164159, Note_on_c, 3, 47, 0
9, 164400, Note_on_c, 3, 47, 92
9, 164400, Note_on_c, 3, 59, 92
9, 164639, Note_on_c, 3, 47, 0
9, 164639, Note_on_c, 3, 59, 0
9, 164640, Note_on_c, 3, 59, 84
9, 164640, Note_on_c, 3, 52, 84
9, 164864, Note_on_c, 3, 59, 0
9, 164864, Note_on_c, 3, 52, 0
9, 164880, Note_on_c, 3, 56, 84
9, 164880, Control_c, 3, 11, 64
9, 164880, Note_on_c, 3, 52, 84
9, 164940, Control_c, 3, 11, 67
9, 165000, Control_c, 3, 11, 69
9, 165060, Control_c, 3, 11, 72
9, 165119, Note_on_c, 3, 56, 0
9, 165119, Note_on_c, 3, 52, 0
9, 165120, Note_on_c, 3, 59, 84
9, 165120, Control_c, 3, 11, 75
9, 165120, Note_on_c, 3, 56, 84
9, 165180, Control_c, 3, 11, 77
9, 165240, Control_c, 3, 11, 80
9, 165300, Control_c, 3, 11, 83
9, 165359, Note_on_c, 3, 59, 0
9, 165359, Note_on_c, 3, 56, 0
9, 165360, Control_c, 3, 11, 85
9, 165360, Note_on_c, 3, 62, 84
9, 165360, Note_on_c, 3, 59, 84
9, 165420, Control_c, 3, 11, 88
9, 165480, Control_c, 3, 11, 91
9, 165540, Control_c, 3, 11, 93
9, 165584, Note_on_c, 3, 62, 0
9, 165584, Note_on_c, 3, 59, 0
9, 165590, Control_c, 3, 11, 64
9, 165600, Note_on_c, 3, 61, 84
9, 165600, Note_on_c, 3, 57, 84
9, 165839, Note_on_c, 3, 61, 0
9, 165839, Note_on_c, 3, 57, 0
9, 166020, Control_c, 3, 11, 127
9, 166080, Note_on_c, 3, 49, 52
9, 166080, Note_on_c, 3, 52, 52
9, 166491, Note_on_c, 3, 49, 0
9, 166491, Note_on_c, 3, 52, 0
9, 166500, Note_on_c, 3, 57, 52
9, 166500, Note_on_c, 3, 52, 52
9, 166551, Note_on_c, 3, 57, 0
9, 166551, Note_on_c, 3, 52, 0
9, 166560, Note_on_c, 3, 57, 52
9, 166560, Note_on_c, 3, 61, 52
9, 167264, Note_on_c, 3, 57, 0
9, 167264, Note_on_c, 3, 61, 0
9, 167280, Note_on_c, 3, 61, 52
9, 167280, Note_on_c, 3, 57, 52
9, 167459, Note_on_c, 3, 61, 0
9, 167459, Note_on_c, 3, 57, 0
9, 167460, Note_on_c, 3, 59, 52
9, 167460, Note_on_c, 3, 62, 52
9, 167511, Note_on_c, 3, 59, 0
9, 167511, Note_on_c, 3, 62, 0
9, 167520, Note_on_c, 3, 64, 52
9, 167520, Note_on_c, 3, 61, 52
9, 167699, Note_on_c, 3, 64, 0
9, 167699, Note_on_c, 3, 61, 0
9, 167760, Note_on_c, 3, 64, 52
9, 167760, Note_on_c, 3, 61, 52
9, 167939, Note_on_c, 3, 64, 0
9, 167939, Note_on_c, 3, 61, 0
9, 168000, Note_on_c, 3, 61, 52
9, 168000, Note_on_c, 3, 64, 52
9, 168179, Note_on_c, 3, 61, 0
9, 168179, Note_on_c, 3, 64, 0
9, 168240, Note_on_c, 3, 62, 52
9, 168240, Note_on_c, 3, 66, 52
9, 168419, Note_on_c, 3, 62, 0
9, 168419, Note_on_c, 3, 66, 0
9, 168480, Note_on_c, 3, 61, 52
9, 168480, Note_on_c, 3, 64, 52
9, 168959, Note_on_c, 3, 61, 0
9, 168959, Note_on_c, 3, 64, 0
9, 168960, Note_on_c, 3, 61, 52
9, 168960, Note_on_c, 3, 57, 52
9, 169049, Note_on_c, 3, 61, 0
9, 169049, Note_on_c, 3, 57, 0
9, 171120, Note_on_c, 3, 61, 84
9, 171359, Note_on_c, 3, 61, 0
9, 171600, Note_on_c, 3, 59, 92
9, 171600, Note_on_c, 3, 47, 92
9, 171839, Note_on_c, 3, 59, 0
9, 171839, Note_on_c, 3, 47, 0
9, 172080, Note_on_c, 3, 47, 92
9, 172080, Note_on_c, 3, 59, 92
9, 172319, Note_on_c, 3, 47, 0
9, 172319, Note_on_c, 3, 59, 0
9, 172320, Note_on_c, 3, 52, 84
9, 172320, Note_on_c, 3, 59, 84
9, 172559, Note_on_c, 3, 52, 0
9, 172559, Note_on_c, 3, 59, 0
9, 180420, Note_on_c, 3, 62, 84
9, 180420, Note_on_c, 3, 50, 84
9, 180471, Note_on_c, 3, 62, 0
9, 180471, Note_on_c, 3, 50, 0
9, 180480, Note_on_c, 3, 50, 84
9, 180480, Note_on_c, 3, 62, 84
9, 180959, Note_on_c, 3, 50, 0
9, 180959, Note_on_c, 3, 62, 0
9, 181380, Note_on_c, 3, 59, 84
9, 181380, Note_on_c, 3, 47, 84
9, 181431, Note_on_c, 3, 59, 0
9, 181431, Note_on_c, 3, 47, 0
9, 181440, Note_on_c, 3, 59, 84
9, 181440, Note_on_c, 3, 47, 84
9, 181919, Note_on_c, 3, 59, 0
9, 181919, Note_on_c, 3, 47, 0
9, 182160, Note_on_c, 3, 44, 84
9, 182160, Note_on_c, 3, 56, 84
9, 182339, Note_on_c, 3, 44, 0
9, 182339, Note_on_c, 3, 56, 0
9, 182640, Note_on_c, 3, 57, 84
9, 182640, Note_on_c, 3, 45, 84
9, 182819, Note_on_c, 3, 57, 0
9, 182819, Note_on_c, 3, 45, 0
9, 183120, Note_on_c, 3, 62, 84
9, 183120, Note_on_c, 3, 50, 84
9, 183299, Note_on_c, 3, 62, 0
9, 183299, Note_on_c, 3, 50, 0
9, 183600, Note_on_c, 3, 52, 84
9, 183600, Note_on_c, 3, 64, 84
9, 183779, Note_on_c, 3, 52, 0
9, 183779, Note_on_c, 3, 64, 0
9, 184260, Note_on_c, 3, 57, 84
9, 184260, Note_on_c, 3, 54, 84
9, 184311, Note_on_c, 3, 57, 0
9, 184311, Note_on_c, 3, 54, 0
9, 184320, Note_on_c, 3, 57, 84
9, 184320, Note_on_c, 3, 54, 84
9, 184799, Note_on_c, 3, 57, 0
9, 184799, Note_on_c, 3, 54, 0
9, 185220, Note_on_c, 3, 56, 84
9, 185220, Note_on_c, 3, 59, 84
9, 185271, Note_on_c, 3, 56, 0
9, 185271, Note_on_c, 3, 59, 0
9, 185280, Note_on_c, 3, 59, 84
9, 185280, Note_on_c, 3, 56, 84
9, 185759, Note_on_c, 3, 59, 0
9, 185759, Note_on_c, 3, 56, 0
9, 193440, Note_on_c, 3, 52, 84
9, 193544, Note_on_c, 3, 52, 0
9, 193560, Note_on_c, 3, 57, 84
9, 193664, Note_on_c, 3, 57, 0
9, 193680, Note_on_c, 3, 61, 84
9, 193784, Note_on_c, 3, 61, 0
9, 193800, Note_on_c, 3, 64, 84
9, 193904, Note_on_c, 3, 64, 0
9, 193920, Note_on_c, 3, 52, 84
9, 194024, Note_on_c, 3, 52, 0
9, 194040, Note_on_c, 3, 57, 84
9, 194144, Note_on_c, 3, 57, 0
9, 194160, Note_on_c, 3, 61, 84
9, 194264, Note_on_c, 3, 61, 0
9, 194280, Note_on_c, 3, 64, 84
9, 194384, Note_on_c, 3, 64, 0
9, 194400, Note_on_c, 3, 62, 84
9, 194400, Note_on_c, 3, 52, 84
9, 194504, Note_on_c, 3, 52, 0
9, 194520, Note_on_c, 3, 52, 84
9, 194624, Note_on_c, 3, 52, 0
9, 194640, Note_on_c, 3, 52, 84
9, 194744, Note_on_c, 3, 52, 0
9, 194760, Note_on_c, 3, 52, 84
9, 194864, Note_on_c, 3, 52, 0
9, 194880, Note_on_c, 3, 52, 84
9, 194984, Note_on_c, 3, 52, 0
9, 195000, Note_on_c, 3, 52, 84
9, 195104, Note_on_c, 3, 52, 0
9, 195120, Note_on_c, 3, 52, 84
9, 195224, Note_on_c, 3, 52, 0
9, 195240, Note_on_c, 3, 52, 84
9, 195344, Note_on_c, 3, 62, 0
9, 195344, Note_on_c, 3, 52, 0
9, 195360, Note_on_c, 3, 61, 84
9, 195360, Note_on_c, 3, 45, 84
9, 195599, Note_on_c, 3, 61, 0
9, 195599, Note_on_c, 3, 45, 0
9, 197280, Note_on_c, 3, 62, 84
9, 197984, Note_on_c, 3, 62, 0
9, 198000, Note_on_c, 3, 62, 84
9, 198179, Note_on_c, 3, 62, 0
9, 198240, Note_on_c, 3, 57, 84
9, 198419, Note_on_c, 3, 57, 0
9, 198480, Note_on_c, 3, 53, 84
9, 198659, Note_on_c, 3, 53, 0
9, 198720, Note_on_c, 3, 52, 84
9, 198899, Note_on_c, 3, 52, 0
9, 198960, Note_on_c, 3, 50, 84
9, 199139, Note_on_c, 3, 50, 0
9, 199200, Note_on_c, 3, 45, 84
9, 199439, Note_on_c, 3, 45, 0
9, 201120, Note_on_c, 3, 62, 84
9, 201824, Note_on_c, 3, 62, 0
9, 201840, Note_on_c, 3, 62, 84
9, 202019, Note_on_c, 3, 62, 0
9, 202080, Note_on_c, 3, 57, 84
9, 202259, Note_on_c, 3, 57, 0
9, 202320, Note_on_c, 3, 53, 84
9, 202499, Note_on_c, 3, 53, 0
9, 202560, Note_on_c, 3, 52, 84
9, 202739, Note_on_c, 3, 52, 0
9, 202800, Note_on_c, 3, 50, 84
9, 202979, Note_on_c, 3, 50, 0
9, 203280, Note_on_c, 3, 62, 52
9, 203280, Note_on_c, 3, 57, 52
9, 203519, Note_on_c, 3, 62, 0
9, 203519, Note_on_c, 3, 57, 0
9, 203520, Note_on_c, 3, 64, 52
9, 203520, Note_on_c, 3, 61, 52
9, 203759, Note_on_c, 3, 64, 0
9, 203759, Note_on_c, 3, 61, 0
9, 203760, Note_on_c, 3, 62, 76
9, 203760, Note_on_c, 3, 65, 76
9, 203984, Note_on_c, 3, 62, 0
9, 203984, Note_on_c, 3, 65, 0
9, 204000, Note_on_c, 3, 64, 52
9, 204000, Note_on_c, 3, 61, 52
9, 204239, Note_on_c, 3, 64, 0
9, 204239, Note_on_c, 3, 61, 0
9, 205200, Note_on_c, 3, 62, 52
9, 205200, Note_on_c, 3, 57, 52
9, 205439, Note_on_c, 3, 62, 0
9, 205439, Note_on_c, 3, 57, 0
9, 205440, Note_on_c, 3, 64, 52
9, 205440, Note_on_c, 3, 61, 52
9, 205679, Note_on_c, 3, 64, 0
9, 205679, Note_on_c, 3, 61, 0
9, 205680, Note_on_c, 3, 65, 76
9, 205680, Note_on_c, 3, 62, 76
9, 205904, Note_on_c, 3, 65, 0
9, 205904, Note_on_c, 3, 62, 0
9, 205920, Note_on_c, 3, 64, 52
9, 205920, Note_on_c, 3, 61, 52
9, 206159, Note_on_c, 3, 64, 0
9, 206159, Note_on_c, 3, 61, 0
9, 206640, Note_on_c, 3, 65, 76
9, 206640, Note_on_c, 3, 62, 76
9, 206864, Note_on_c, 3, 65, 0
9, 206864, Note_on_c, 3, 62, 0
9, 206880, Note_on_c, 3, 64, 52
9, 206880, Note_on_c, 3, 61, 52
9, 207104, Note_on_c, 3, 64, 0
9, 207104, Note_on_c, 3, 61, 0
9, 207120, Note_on_c, 3, 65, 76
9, 207120, Note_on_c, 3, 62, 76
9, 207344, Note_on_c, 3, 65, 0
9, 207344, Note_on_c, 3, 62, 0
9, 207360, Note_on_c, 3, 64, 52
9, 207360, Note_on_c, 3, 61, 52
9, 207584, Note_on_c, 3, 64, 0
9, 207584, Note_on_c, 3, 61, 0
9, 207600, Note_on_c, 3, 65, 76
9, 207600, Note_on_c, 3, 62, 76
9, 207824, Note_on_c, 3, 65, 0
9, 207824, Note_on_c, 3, 62, 0
9, 207840, Note_on_c, 3, 64, 52
9, 207840, Note_on_c, 3, 61, 52
9, 208064, Note_on_c, 3, 64, 0
9, 208064, Note_on_c, 3, 61, 0
9, 208080, Note_on_c, 3, 62, 76
9, 208080, Note_on_c, 3, 65, 76
9, 208304, Note_on_c, 3, 62, 0
9, 208304, Note_on_c, 3, 65, 0
9, 208320, Note_on_c, 3, 64, 52
9, 208320, Note_on_c, 3, 61, 52
9, 208544, Note_on_c, 3, 64, 0
9, 208544, Note_on_c, 3, 61, 0
9, 208560, Note_on_c, 3, 62, 76
9, 208784, Note_on_c, 3, 62, 0
9, 208800, Note_on_c, 3, 57, 84
9, 209744, Note_on_c, 3, 57, 0
9, 209760, Note_on_c, 3, 64, 84
9, 209760, Note_on_c, 3, 52, 84
9, 210224, Note_on_c, 3, 64, 0
9, 210224, Note_on_c, 3, 52, 0
9, 210240, Note_on_c, 3, 49, 84
9, 210240, Note_on_c, 3, 61, 84
9, 210704, Note_on_c, 3, 49, 0
9, 210704, Note_on_c, 3, 61, 0
9, 210720, Note_on_c, 3, 45, 84
9, 210720, Note_on_c, 3, 57, 84
9, 211664, Note_on_c, 3, 45, 0
9, 211664, Note_on_c, 3, 57, 0
9, 211680, Note_on_c, 3, 49, 84
9, 211680, Note_on_c, 3, 61, 84
9, 212144, Note_on_c, 3, 49, 0
9, 212144, Note_on_c, 3, 61, 0
9, 212160, Note_on_c, 3, 52, 84
9, 212160, Note_on_c, 3, 64, 84
9, 212624, Note_on_c, 3, 52, 0
9, 212624, Note_on_c, 3, 64, 0
9, 212640, Note_on_c, 3, 57, 84
9, 212879, Note_on_c, 3, 57, 0
9, 213120, Note_on_c, 3, 61, 76
9, 213120, Note_on_c, 3, 57, 76
9, 213359, Note_on_c, 3, 61, 0
9, 213359, Note_on_c, 3, 57, 0
9, 214080, Note_on_c, 3, 64, 76
9, 214080, Note_on_c, 3, 61, 76
9, 214319, Note_on_c, 3, 64, 0
9, 214319, Note_on_c, 3, 61, 0
9, 214560, Note_on_c, 3, 67, 52
9, 215279, Note_on_c, 3, 67, 0
9, 215280, Note_on_c, 3, 66, 52
9, 215519, Note_on_c, 3, 66, 0
9, 215520, Note_on_c, 3, 64, 52
9, 215759, Note_on_c, 3, 64, 0
9, 215760, Note_on_c, 3, 62, 52
9, 215999, Note_on_c, 3, 62, 0
9, 216000, Note_on_c, 3, 61, 52
9, 216239, Note_on_c, 3, 61, 0
9, 216240, Note_on_c, 3, 57, 52
9, 216479, Note_on_c, 3, 57, 0
9, 216960, Note_on_c, 3, 57, 76
9, 216960, Note_on_c, 3, 61, 76
9, 217199, Note_on_c, 3, 57, 0
9, 217199, Note_on_c, 3, 61, 0
9, 217920, Note_on_c, 3, 61, 76
9, 217920, Note_on_c, 3, 64, 76
9, 218159, Note_on_c, 3, 61, 0
9, 218159, Note_on_c, 3, 64, 0
9, 218400, Note_on_c, 3, 67, 52
9, 219119, Note_on_c, 3, 67, 0
9, 219120, Note_on_c, 3, 65, 52
9, 219359, Note_on_c, 3, 65, 0
9, 219360, Note_on_c, 3, 64, 52
9, 219599, Note_on_c, 3, 64, 0
9, 219600, Note_on_c, 3, 62, 52
9, 219839, Note_on_c, 3, 62, 0
9, 219840, Note_on_c, 3, 61, 52
9, 220079, Note_on_c, 3, 61, 0
9, 220080, Note_on_c, 3, 57, 52
9, 220304, Note_on_c, 3, 57, 0
9, 220320, Note_on_c, 3, 62, 52
9, 220559, Note_on_c, 3, 62, 0
9, 222960, Control_c, 3, 11, 80
9, 223200, Note_on_c, 3, 62, 76
9, 224144, Note_on_c, 3, 62, 0
9, 224160, Note_on_c, 3, 63, 76
9, 224160, Control_c, 3, 11, 80
9, 224320, Control_c, 3, 11, 82
9, 224480, Control_c, 3, 11, 84
9, 224640, Control_c, 3, 11, 86
9, 224800, Control_c, 3, 11, 88
9, 224960, Control_c, 3, 11, 90
9, 225120, Control_c, 3, 11, 92
9, 225280, Control_c, 3, 11, 94
9, 225440, Control_c, 3, 11, 96
9, 225600, Control_c, 3, 11, 98
9, 225760, Control_c, 3, 11, 100
9, 225920, Control_c, 3, 11, 102
9, 226064, Note_on_c, 3, 63, 0
9, 226080, Control_c, 3, 11, 104
9, 226080, Note_on_c, 3, 66, 76
9, 226240, Control_c, 3, 11, 105
9, 226400, Control_c, 3, 11, 107
9, 226560, Control_c, 3, 11, 109
9, 226720, Control_c, 3, 11, 111
9, 226880, Control_c, 3, 11, 113
9, 227040, Control_c, 3, 11, 115
9, 227200, Control_c, 3, 11, 117
9, 227360, Control_c, 3, 11, 119
9, 227520, Control_c, 3, 11, 121
9, 227680, Control_c, 3, 11, 123
9, 227840, Control_c, 3, 11, 125
9, 227984, Note_on_c, 3, 66, 0
9, 228000, Control_c, 3, 11, 127
9, 228000, Note_on_c, 3, 67, 76
9, 228239, Note_on_c, 3, 67, 0
9, 228480, Note_on_c, 3, 55, 84
9, 229904, Note_on_c, 3, 55, 0
9, 229920, Note_on_c, 3, 60, 76
9, 229920, Note_on_c, 3, 48, 76
9, 230159, Note_on_c, 3, 60, 0
9, 230159, Note_on_c, 3, 48, 0
9, 230400, Note_on_c, 3, 60, 84
9, 230400, Note_on_c, 3, 48, 84
9, 231824, Note_on_c, 3, 60, 0
9, 231824, Note_on_c, 3, 48, 0
9, 231840, Note_on_c, 3, 53, 76
9, 232079, Note_on_c, 3, 53, 0
9, 232320, Note_on_c, 3, 65, 84
9, 232320, Note_on_c, 3, 53, 84
9, 233744, Note_on_c, 3, 65, 0
9, 233744, Note_on_c, 3, 53, 0
9, 233760, Note_on_c, 3, 58, 76
9, 233999, Note_on_c, 3, 58, 0
9, 234240, Note_on_c, 3, 58, 84
9, 235304, Note_on_c, 3, 58, 0
9, 235320, Note_on_c, 3, 60, 76
9, 235409, Note_on_c, 3, 60, 0
9, 235440, Note_on_c, 3, 57, 76
9, 235529, Note_on_c, 3, 57, 0
9, 235560, Note_on_c, 3, 58, 76
9, 235649, Note_on_c, 3, 58, 0
9, 235680, Note_on_c, 3, 55, 76
9, 235919, Note_on_c, 3, 55, 0
9, 236640, Note_on_c, 3, 57, 84
9, 236640, Note_on_c, 3, 57, 84
9, 236759, Note_on_c, 3, 57, 0
9, 236760, Note_on_c, 3, 58, 76
9, 236864, Note_on_c, 3, 58, 0
9, 236880, Note_on_c, 3, 55, 76
9, 236969, Note_on_c, 3, 55, 0
9, 237120, Note_on_c, 3, 53, 76
9, 237209, Note_on_c, 3, 53, 0
9, 237240, Note_on_c, 3, 55, 76
9, 237329, Note_on_c, 3, 55, 0
9, 237360, Note_on_c, 3, 52, 76
9, 237449, Note_on_c, 3, 52, 0
9, 237480, Note_on_c, 3, 53, 76
9, 237569, Note_on_c, 3, 53, 0
9, 237584, Note_on_c, 3, 57, 0
9, 237600, Note_on_c, 3, 50, 76
9, 237779, Note_on_c, 3, 50, 0
9, 237840, Note_on_c, 3, 52, 76
9, 238019, Note_on_c, 3, 52, 0
9, 238080, Note_on_c, 3, 53, 76
9, 238259, Note_on_c, 3, 53, 0
9, 238320, Note_on_c, 3, 54, 76
9, 238499, Note_on_c, 3, 54, 0
9, 238560, Note_on_c, 3, 55, 84
9, 238680, Note_on_c, 3, 57, 76
9, 238769, Note_on_c, 3, 57, 0
9, 238800, Note_on_c, 3, 53, 76
9, 238889, Note_on_c, 3, 53, 0
9, 239040, Note_on_c, 3, 52, 76
9, 239129, Note_on_c, 3, 52, 0
9, 239160, Note_on_c, 3, 53, 76
9, 239249, Note_on_c, 3, 53, 0
9, 239280, Note_on_c, 3, 50, 76
9, 239369, Note_on_c, 3, 50, 0
9, 239400, Note_on_c, 3, 52, 76
9, 239489, Note_on_c, 3, 52, 0
9, 239504, Note_on_c, 3, 55, 0
9, 239520, Note_on_c, 3, 48, 84
9, 239760, Note_on_c, 3, 64, 84
9, 239819, Note_on_c, 3, 64, 0
9, 239820, Note_on_c, 3, 63, 84
9, 239879, Note_on_c, 3, 63, 0
9, 239880, Note_on_c, 3, 64, 84
9, 239939, Note_on_c, 3, 64, 0
9, 239940, Note_on_c, 3, 66, 84
9, 239991, Note_on_c, 3, 66, 0
9, 240000, Note_on_c, 3, 67, 84
9, 240179, Note_on_c, 3, 67, 0
9, 240239, Note_on_c, 3, 48, 0
9, 241680, Note_on_c, 3, 64, 84
9, 241739, Note_on_c, 3, 64, 0
9, 241740, Note_on_c, 3, 63, 84
9, 241799, Note_on_c, 3, 63, 0
9, 241800, Note_on_c, 3, 64, 84
9, 241859, Note_on_c, 3, 64, 0
9, 241860, Note_on_c, 3, 66, 84
9, 241911, Note_on_c, 3, 66, 0
9, 241920, Note_on_c, 3, 67, 84
9, 242099, Note_on_c, 3, 67, 0
9, 243600, Note_on_c, 3, 64, 84
9, 243659, Note_on_c, 3, 64, 0
9, 243660, Note_on_c, 3, 63, 84
9, 243719, Note_on_c, 3, 63, 0
9, 243720, Note_on_c, 3, 64, 84
9, 243779, Note_on_c, 3, 64, 0
9, 243780, Note_on_c, 3, 66, 84
9, 243831, Note_on_c, 3, 66, 0
9, 243840, Note_on_c, 3, 67, 84
9, 244019, Note_on_c, 3, 67, 0
9, 244560, Note_on_c, 3, 64, 84
9, 244619, Note_on_c, 3, 64, 0
9, 244620, Note_on_c, 3, 63, 84
9, 244679, Note_on_c, 3, 63, 0
9, 244680, Note_on_c, 3, 64, 84
9, 244739, Note_on_c, 3, 64, 0
9, 244740, Note_on_c, 3, 66, 84
9, 244791, Note_on_c, 3, 66, 0
9, 244800, Note_on_c, 3, 67, 84
9, 244979, Note_on_c, 3, 67, 0
9, 245520, Note_on_c, 3, 62, 84
9, 245579, Note_on_c, 3, 62, 0
9, 245580, Note_on_c, 3, 61, 84
9, 245639, Note_on_c, 3, 61, 0
9, 245640, Note_on_c, 3, 62, 84
9, 245699, Note_on_c, 3, 62, 0
9, 245700, Note_on_c, 3, 64, 84
9, 245751, Note_on_c, 3, 64, 0
9, 245760, Note_on_c, 3, 65, 84
9, 245939, Note_on_c, 3, 65, 0
9, 246480, Note_on_c, 3, 62, 84
9, 246539, Note_on_c, 3, 62, 0
9, 246540, Note_on_c, 3, 61, 84
9, 246599, Note_on_c, 3, 61, 0
9, 246600, Note_on_c, 3, 62, 84
9, 246659, Note_on_c, 3, 62, 0
9, 246660, Note_on_c, 3, 64, 84
9, 246711, Note_on_c, 3, 64, 0
9, 246720, Note_on_c, 3, 65, 84
9, 246899, Note_on_c, 3, 65, 0
9, 247200, Note_on_c, 3, 43, 84
9, 247424, Note_on_c, 3, 43, 0
9, 247440, Note_on_c, 3, 55, 84
9, 247499, Note_on_c, 3, 55, 0
9, 247500, Note_on_c, 3, 54, 84
9, 247559, Note_on_c, 3, 54, 0
9, 247560, Note_on_c, 3, 55, 84
9, 247619, Note_on_c, 3, 55, 0
9, 247620, Note_on_c, 3, 57, 84
9, 247671, Note_on_c, 3, 57, 0
9, 247680, Note_on_c, 3, 59, 84
9, 247859, Note_on_c, 3, 59, 0
9, 248400, Note_on_c, 3, 60, 84
9, 248459, Note_on_c, 3, 60, 0
9, 248460, Note_on_c, 3, 59, 84
9, 248519, Note_on_c, 3, 59, 0
9, 248520, Note_on_c, 3, 60, 84
9, 248579, Note_on_c, 3, 60, 0
9, 248580, Note_on_c, 3, 62, 84
9, 248631, Note_on_c, 3, 62, 0
9, 248640, Note_on_c, 3, 64, 84
9, 248819, Note_on_c, 3, 64, 0
9, 249360, Note_on_c, 3, 52, 84
9, 249419, Note_on_c, 3, 52, 0
9, 249420, Note_on_c, 3, 51, 84
9, 249479, Note_on_c, 3, 51, 0
9, 249480, Note_on_c, 3, 52, 84
9, 249539, Note_on_c, 3, 52, 0
9, 249540, Note_on_c, 3, 54, 84
9, 249591, Note_on_c, 3, 54, 0
9, 249600, Note_on_c, 3, 56, 84
9, 249779, Note_on_c, 3, 56, 0
9, 250320, Note_on_c, 3, 57, 84
9, 250379, Note_on_c, 3, 57, 0
9, 250380, Note_on_c, 3, 56, 84
9, 250439, Note_on_c, 3, 56, 0
9, 250440, Note_on_c, 3, 57, 84
9, 250499, Note_on_c, 3, 57, 0
9, 250500, Note_on_c, 3, 59, 84
9, 250551, Note_on_c, 3, 59, 0
9, 250560, Note_on_c, 3, 60, 84
9, 250739, Note_on_c, 3, 60, 0
9, 251040, Note_on_c, 3, 50, 84
9, 251219, Note_on_c, 3, 50, 0
9, 251280, Note_on_c, 3, 50, 84
9, 251339, Note_on_c, 3, 50, 0
9, 251340, Note_on_c, 3, 49, 84
9, 251399, Note_on_c, 3, 49, 0
9, 251400, Note_on_c, 3, 50, 84
9, 251459, Note_on_c, 3, 50, 0
9, 251460, Note_on_c, 3, 52, 84
9, 251511, Note_on_c, 3, 52, 0
9, 251520, Note_on_c, 3, 54, 84
9, 251699, Note_on_c, 3, 54, 0
9, 251760, Note_on_c, 3, 54, 84
9, 251819, Note_on_c, 3, 54, 0
9, 251820, Note_on_c, 3, 52, 84
9, 251879, Note_on_c, 3, 52, 0
9, 251880, Note_on_c, 3, 54, 84
9, 251939, Note_on_c, 3, 54, 0
9, 251940, Note_on_c, 3, 55, 84
9, 251991, Note_on_c, 3, 55, 0
9, 252000, Note_on_c, 3, 57, 84
9, 252179, Note_on_c, 3, 57, 0
9, 252240, Note_on_c, 3, 57, 84
9, 252299, Note_on_c, 3, 57, 0
9, 252300, Note_on_c, 3, 56, 84
9, 252359, Note_on_c, 3, 56, 0
9, 252360, Note_on_c, 3, 57, 84
9, 252419, Note_on_c, 3, 57, 0
9, 252420, Note_on_c, 3, 59, 84
9, 252471, Note_on_c, 3, 59, 0
9, 252480, Note_on_c, 3, 60, 92
9, 253184, Note_on_c, 3, 60, 0
9, 253200, Note_on_c, 3, 60, 84
9, 253259, Note_on_c, 3, 60, 0
9, 253260, Note_on_c, 3, 62, 84
9, 253319, Note_on_c, 3, 62, 0
9, 253320, Note_on_c, 3, 60, 84
9, 253379, Note_on_c, 3, 60, 0
9, 253380, Note_on_c, 3, 59, 84
9, 253431, Note_on_c, 3, 59, 0
9, 253440, Note_on_c, 3, 57, 84
9, 253619, Note_on_c, 3, 57, 0
9, 253680, Note_on_c, 3, 57, 84
9, 253739, Note_on_c, 3, 57, 0
9, 253740, Note_on_c, 3, 59, 84
9, 253799, Note_on_c, 3, 59, 0
9, 253800, Note_on_c, 3, 57, 84
9, 253859, Note_on_c, 3, 57, 0
9, 253860, Note_on_c, 3, 55, 84
9, 253911, Note_on_c, 3, 55, 0
9, 253920, Note_on_c, 3, 54, 84
9, 254099, Note_on_c, 3, 54, 0
9, 254160, Note_on_c, 3, 54, 84
9, 254219, Note_on_c, 3, 54, 0
9, 254220, Note_on_c, 3, 55, 84
9, 254279, Note_on_c, 3, 55, 0
9, 254280, Note_on_c, 3, 54, 84
9, 254339, Note_on_c, 3, 54, 0
9, 254340, Note_on_c, 3, 52, 84
9, 254391, Note_on_c, 3, 52, 0
9, 254400, Note_on_c, 3, 50, 92
9, 255104, Note_on_c, 3, 50, 0
9, 255120, Note_on_c, 3, 50, 84
9, 255179, Note_on_c, 3, 50, 0
9, 255180, Note_on_c, 3, 49, 84
9, 255239, Note_on_c, 3, 49, 0
9, 255240, Note_on_c, 3, 50, 84
9, 255299, Note_on_c, 3, 50, 0
9, 255300, Note_on_c, 3, 52, 84
9, 255351, Note_on_c, 3, 52, 0
9, 255360, Note_on_c, 3, 54, 84
9, 255539, Note_on_c, 3, 54, 0
9, 255600, Note_on_c, 3, 54, 84
9, 255659, Note_on_c, 3, 54, 0
9, 255660, Note_on_c, 3, 52, 84
9, 255719, Note_on_c, 3, 52, 0
9, 255720, Note_on_c, 3, 54, 84
9, 255779, Note_on_c, 3, 54, 0
9, 255780, Note_on_c, 3, 55, 84
9, 255831, Note_on_c, 3, 55, 0
9, 255840, Note_on_c, 3, 57, 84
9, 256019, Note_on_c, 3, 57, 0
9, 256080, Note_on_c, 3, 57, 84
9, 256139, Note_on_c, 3, 57, 0
9, 256140, Note_on_c, 3, 56, 84
9, 256199, Note_on_c, 3, 56, 0
9, 256200, Note_on_c, 3, 57, 84
9, 256259, Note_on_c, 3, 57, 0
9, 256260, Note_on_c, 3, 59, 84
9, 256311, Note_on_c, 3, 59, 0
9, 256320, Note_on_c, 3, 60, 92
9, 257024, Note_on_c, 3, 60, 0
9, 257040, Note_on_c, 3, 60, 84
9, 257099, Note_on_c, 3, 60, 0
9, 257100, Note_on_c, 3, 62, 84
9, 257159, Note_on_c, 3, 62, 0
9, 257160, Note_on_c, 3, 60, 84
9, 257219, Note_on_c, 3, 60, 0
9, 257220, Note_on_c, 3, 59, 84
9, 257271, Note_on_c, 3, 59, 0
9, 257280, Note_on_c, 3, 57, 84
9, 257459, Note_on_c, 3, 57, 0
9, 257520, Note_on_c, 3, 57, 84
9, 257579, Note_on_c, 3, 57, 0
9, 257580, Note_on_c, 3, 59, 84
9, 257639, Note_on_c, 3, 59, 0
9, 257640, Note_on_c, 3, 57, 84
9, 257699, Note_on_c, 3, 57, 0
9, 257700, Note_on_c, 3, 55, 84
9, 257751, Note_on_c, 3, 55, 0
9, 257760, Note_on_c, 3, 54, 84
9, 257939, Note_on_c, 3, 54, 0
9, 258000, Note_on_c, 3, 54, 84
9, 258059, Note_on_c, 3, 54, 0
9, 258060, Note_on_c, 3, 55, 84
9, 258119, Note_on_c, 3, 55, 0
9, 258120, Note_on_c, 3, 54, 84
9, 258179, Note_on_c, 3, 54, 0
9, 258180, Note_on_c, 3, 52, 84
9, 258239, Note_on_c, 3, 52, 0
9, 258240, Note_on_c, 3, 50, 92
9, 258944, Note_on_c, 3, 50, 0
9, 258960, Note_on_c, 3, 62, 52
9, 260879, Note_on_c, 3, 62, 0
9, 261120, Note_on_c, 3, 50, 44
9, 261359, Note_on_c, 3, 50, 0
9, 261600, Note_on_c, 3, 50, 44
9, 261839, Note_on_c, 3, 50, 0
9, 264240, Note_on_c, 3, 55, 52
9, 264240, Note_on_c, 3, 59, 52
9, 264419, Note_on_c, 3, 55, 0
9, 264419, Note_on_c, 3, 59, 0
9, 264420, Note_on_c, 3, 60, 52
9, 264420, Note_on_c, 3, 57, 52
9, 264471, Note_on_c, 3, 60, 0
9, 264471, Note_on_c, 3, 57, 0
9, 264480, Note_on_c, 3, 59, 52
9, 264480, Note_on_c, 3, 62, 52
9, 264659, Note_on_c, 3, 59, 0
9, 264659, Note_on_c, 3, 62, 0
9, 264720, Note_on_c, 3, 62, 52
9, 264720, Note_on_c, 3, 59, 52
9, 264899, Note_on_c, 3, 62, 0
9, 264899, Note_on_c, 3, 59, 0
9, 264960, Note_on_c, 3, 62, 52
9, 264960, Note_on_c, 3, 59, 52
9, 265139, Note_on_c, 3, 62, 0
9, 265139, Note_on_c, 3, 59, 0
9, 265200, Note_on_c, 3, 60, 52
9, 265200, Note_on_c, 3, 64, 52
9, 265379, Note_on_c, 3, 60, 0
9, 265379, Note_on_c, 3, 64, 0
9, 265440, Note_on_c, 3, 62, 52
9, 265440, Note_on_c, 3, 59, 52
9, 265919, Note_on_c, 3, 62, 0
9, 265919, Note_on_c, 3, 59, 0
9, 265920, Note_on_c, 3, 59, 52
9, 265920, Note_on_c, 3, 55, 52
9, 266039, Note_on_c, 3, 59, 0
9, 266039, Note_on_c, 3, 55, 0
9, 267360, Note_on_c, 3, 59, 52
9, 267360, Note_on_c, 3, 62, 52
9, 267539, Note_on_c, 3, 59, 0
9, 267539, Note_on_c, 3, 62, 0
9, 267600, Note_on_c, 3, 59, 52
9, 267600, Note_on_c, 3, 62, 52
9, 267779, Note_on_c, 3, 59, 0
9, 267779, Note_on_c, 3, 62, 0
9, 267840, Note_on_c, 3, 59, 52
9, 267840, Note_on_c, 3, 62, 52
9, 268019, Note_on_c, 3, 59, 0
9, 268019, Note_on_c, 3, 62, 0
9, 268080, Note_on_c, 3, 63, 52
9, 268080, Note_on_c, 3, 60, 52
9, 268259, Note_on_c, 3, 63, 0
9, 268259, Note_on_c, 3, 60, 0
9, 268320, Note_on_c, 3, 62, 52
9, 268320, Note_on_c, 3, 59, 52
9, 268559, Note_on_c, 3, 62, 0
9, 268559, Note_on_c, 3, 59, 0
9, 269280, Note_on_c, 3, 59, 52
9, 269280, Note_on_c, 3, 62, 52
9, 269459, Note_on_c, 3, 59, 0
9, 269459, Note_on_c, 3, 62, 0
9, 269520, Note_on_c, 3, 62, 52
9, 269520, Note_on_c, 3, 59, 52
9, 269699, Note_on_c, 3, 62, 0
9, 269699, Note_on_c, 3, 59, 0
9, 269760, Note_on_c, 3, 59, 52
9, 269760, Note_on_c, 3, 62, 52
9, 269939, Note_on_c, 3, 59, 0
9, 269939, Note_on_c, 3, 62, 0
9, 270000, Note_on_c, 3, 65, 52
9, 270000, Note_on_c, 3, 62, 52
9, 270179, Note_on_c, 3, 65, 0
9, 270179, Note_on_c, 3, 62, 0
9, 270240, Note_on_c, 3, 64, 52
9, 270240, Note_on_c, 3, 61, 52
9, 270479, Note_on_c, 3, 64, 0
9, 270479, Note_on_c, 3, 61, 0
9, 271200, Note_on_c, 3, 61, 52
9, 271200, Note_on_c, 3, 64, 52
9, 271379, Note_on_c, 3, 61, 0
9, 271379, Note_on_c, 3, 64, 0
9, 271440, Note_on_c, 3, 64, 52
9, 271440, Note_on_c, 3, 61, 52
9, 271619, Note_on_c, 3, 64, 0
9, 271619, Note_on_c, 3, 61, 0
9, 271680, Note_on_c, 3, 61, 52
9, 271680, Note_on_c, 3, 64, 52
9, 271859, Note_on_c, 3, 61, 0
9, 271859, Note_on_c, 3, 64, 0
9, 271920, Note_on_c, 3, 62, 52
9, 271920, Note_on_c, 3, 65, 52
9, 272099, Note_on_c, 3, 62, 0
9, 272099, Note_on_c, 3, 65, 0
9, 272160, Note_on_c, 3, 61, 52
9, 272160, Note_on_c, 3, 64, 52
9, 272399, Note_on_c, 3, 61, 0
9, 272399, Note_on_c, 3, 64, 0
9, 273120, Note_on_c, 3, 67, 52
9, 273120, Note_on_c, 3, 64, 52
9, 273299, Note_on_c, 3, 67, 0
9, 273299, Note_on_c, 3, 64, 0
9, 273360, Note_on_c, 3, 67, 52
9, 273360, Note_on_c, 3, 64, 52
9, 273539, Note_on_c, 3, 67, 0
9, 273539, Note_on_c, 3, 64, 0
9, 273600, Note_on_c, 3, 64, 52
9, 273600, Note_on_c, 3, 67, 52
9, 273779, Note_on_c, 3, 64, 0
9, 273779, Note_on_c, 3, 67, 0
9, 273840, Note_on_c, 3, 67, 52
9, 273840, Note_on_c, 3, 64, 52
9, 274019, Note_on_c, 3, 67, 0
9, 274019, Note_on_c, 3, 64, 0
9, 274080, Note_on_c, 3, 66, 52
9, 274080, Note_on_c, 3, 63, 52
9, 274319, Note_on_c, 3, 66, 0
9, 274319, Note_on_c, 3, 63, 0
9, 274800, Control_c, 3, 11, 80
9, 275040, Note_on_c, 3, 59, 76
9, 275040, Note_on_c, 3, 47, 76
9, 275160, Control_c, 3, 11, 80
9, 275230, Control_c, 3, 11, 84
9, 275264, Note_on_c, 3, 59, 0
9, 275264, Note_on_c, 3, 47, 0
9, 275280, Note_on_c, 3, 47, 76
9, 275280, Note_on_c, 3, 59, 76
9, 275300, Control_c, 3, 11, 88
9, 275370, Control_c, 3, 11, 92
9, 275440, Control_c, 3, 11, 96
9, 275504, Note_on_c, 3, 47, 0
9, 275504, Note_on_c, 3, 59, 0
9, 275510, Control_c, 3, 11, 100
9, 275520, Note_on_c, 3, 59, 76
9, 275520, Note_on_c, 3, 47, 76
9, 275580, Control_c, 3, 11, 104
9, 275650, Control_c, 3, 11, 107
9, 275720, Control_c, 3, 11, 111
9, 275744, Note_on_c, 3, 59, 0
9, 275744, Note_on_c, 3, 47, 0
9, 275760, Note_on_c, 3, 59, 76
9, 275760, Note_on_c, 3, 47, 76
9, 275790, Control_c, 3, 11, 115
9, 275860, Control_c, 3, 11, 119
9, 275930, Control_c, 3, 11, 123
9, 275984, Note_on_c, 3, 59, 0
9, 275984, Note_on_c, 3, 47, 0
9, 276000, Note_on_c, 3, 59, 76
9, 276000, Note_on_c, 3, 47, 76
9, 276000, Control_c, 3, 11, 127
9, 276944, Note_on_c, 3, 59, 0
9, 276944, Note_on_c, 3, 47, 0
9, 276960, Note_on_c, 3, 60, 84
9, 276960, Note_on_c, 3, 48, 84
9, 277904, Note_on_c, 3, 60, 0
9, 277904, Note_on_c, 3, 48, 0
9, 277920, Note_on_c, 3, 61, 84
9, 277920, Note_on_c, 3, 49, 84
9, 278099, Note_on_c, 3, 61, 0
9, 278099, Note_on_c, 3, 49, 0
9, 278160, Note_on_c, 3, 61, 92
9, 278160, Note_on_c, 3, 49, 92
9, 280064, Note_on_c, 3, 61, 0
9, 280064, Note_on_c, 3, 49, 0
9, 280080, Note_on_c, 3, 49, 92
9, 280080, Note_on_c, 3, 61, 92
9, 281984, Note_on_c, 3, 49, 0
9, 281984, Note_on_c, 3, 61, 0
9, 282000, Note_on_c, 3, 49, 92
9, 282000, Note_on_c, 3, 61, 92
9, 283904, Note_on_c, 3, 49, 0
9, 283904, Note_on_c, 3, 61, 0
9, 283920, Note_on_c, 3, 61, 92
9, 283920, Note_on_c, 3, 49, 92
9, 285839, Note_on_c, 3, 61, 0
9, 285839, Note_on_c, 3, 49, 0
9, 286500, Note_on_c, 3, 65, 84
9, 286500, Note_on_c, 3, 56, 84
9, 286544, Note_on_c, 3, 65, 0
9, 286544, Note_on_c, 3, 56, 0
9, 286560, Note_on_c, 3, 66, 84
9, 286560, Note_on_c, 3, 57, 84
9, 286739, Note_on_c, 3, 66, 0
9, 286739, Note_on_c, 3, 57, 0
9, 287460, Note_on_c, 3, 57, 84
9, 287460, Note_on_c, 3, 66, 84
9, 287504, Note_on_c, 3, 57, 0
9, 287504, Note_on_c, 3, 66, 0
9, 287520, Note_on_c, 3, 56, 84
9, 287520, Note_on_c, 3, 65, 84
9, 287699, Note_on_c, 3, 56, 0
9, 287699, Note_on_c, 3, 65, 0
9, 288420, Note_on_c, 3, 65, 84
9, 288420, Note_on_c, 3, 56, 84
9, 288464, Note_on_c, 3, 65, 0
9, 288464, Note_on_c, 3, 56, 0
9, 288480, Note_on_c, 3, 66, 84
9, 288480, Note_on_c, 3, 57, 84
9, 288659, Note_on_c, 3, 66, 0
9, 288659, Note_on_c, 3, 57, 0
9, 289380, Note_on_c, 3, 57, 84
9, 289380, Note_on_c, 3, 66, 84
9, 289424, Note_on_c, 3, 57, 0
9, 289424, Note_on_c, 3, 66, 0
9, 289440, Note_on_c, 3, 65, 84
9, 289440, Note_on_c, 3, 56, 84
9, 289619, Note_on_c, 3, 65, 0
9, 289619, Note_on_c, 3, 56, 0
9, 290340, Note_on_c, 3, 49, 84
9, 290340, Note_on_c, 3, 61, 84
9, 290391, Note_on_c, 3, 49, 0
9, 290391, Note_on_c, 3, 61, 0
9, 290400, Note_on_c, 3, 49, 84
9, 290400, Note_on_c, 3, 61, 84
9, 290639, Note_on_c, 3, 49, 0
9, 290639, Note_on_c, 3, 61, 0
9, 290820, Note_on_c, 3, 49, 84
9, 290820, Note_on_c, 3, 61, 84
9, 290871, Note_on_c, 3, 49, 0
9, 290871, Note_on_c, 3, 61, 0
9, 290880, Note_on_c, 3, 61, 84
9, 290880, Note_on_c, 3, 49, 84
9, 291119, Note_on_c, 3, 61, 0
9, 291119, Note_on_c, 3, 49, 0
9, 291300, Note_on_c, 3, 49, 84
9, 291300, Note_on_c, 3, 61, 84
9, 291351, Note_on_c, 3, 49, 0
9, 291351, Note_on_c, 3, 61, 0
9, 291360, Note_on_c, 3, 61, 52
9, 291360, Note_on_c, 3, 49, 52
9, 291599, Note_on_c, 3, 61, 0
9, 291599, Note_on_c, 3, 49, 0
9, 297840, Control_c, 3, 11, 96
9, 298080, Control_c, 3, 11, 96
9, 298080, Note_on_c, 3, 62, 68
9, 298080, Note_on_c, 3, 66, 68
9, 298160, Control_c, 3, 11, 99
9, 298240, Control_c, 3, 11, 101
9, 298320, Control_c, 3, 11, 104
9, 298400, Control_c, 3, 11, 106
9, 298480, Control_c, 3, 11, 109
9, 298560, Control_c, 3, 11, 112
9, 298640, Control_c, 3, 11, 114
9, 298720, Control_c, 3, 11, 117
9, 298800, Control_c, 3, 11, 119
9, 298880, Control_c, 3, 11, 122
9, 298960, Control_c, 3, 11, 124
9, 299039, Note_on_c, 3, 66, 0
9, 299040, Note_on_c, 3, 64, 68
9, 299040, Control_c, 3, 11, 96
9, 299279, Note_on_c, 3, 62, 0
9, 299279, Note_on_c, 3, 64, 0
9, 301920, Note_on_c, 3, 64, 68
9, 302639, Note_on_c, 3, 64, 0
9, 302640, Note_on_c, 3, 65, 68
9, 302864, Note_on_c, 3, 65, 0
9, 302880, Note_on_c, 3, 66, 68
9, 303059, Note_on_c, 3, 66, 0
9, 303840, Note_on_c, 3, 66, 68
9, 304544, Note_on_c, 3, 66, 0
9, 304560, Note_on_c, 3, 66, 68
9, 304799, Note_on_c, 3, 66, 0
9, 304800, Control_c, 3, 11, 96
9, 304800, Note_on_c, 3, 69, 68
9, 305039, Note_on_c, 3, 69, 0
9, 305040, Control_c, 3, 11, 99
9, 305040, Note_on_c, 3, 67, 68
9, 305280, Control_c, 3, 11, 101
9, 305504, Note_on_c, 3, 67, 0
9, 305520, Control_c, 3, 11, 104
9, 305520, Note_on_c, 3, 66, 68
9, 305760, Control_c, 3, 11, 106
9, 305984, Note_on_c, 3, 66, 0
9, 306000, Note_on_c, 3, 64, 68
9, 306000, Control_c, 3, 11, 109
9, 306240, Control_c, 3, 11, 112
9, 306479, Note_on_c, 3, 64, 0
9, 306480, Note_on_c, 3, 63, 68
9, 306480, Control_c, 3, 11, 114
9, 306720, Control_c, 3, 11, 117
9, 306944, Note_on_c, 3, 63, 0
9, 306960, Control_c, 3, 11, 119
9, 306960, Note_on_c, 3, 64, 68
9, 307199, Note_on_c, 3, 64, 0
9, 307200, Control_c, 3, 11, 122
9, 307200, Note_on_c, 3, 67, 68
9, 307439, Note_on_c, 3, 67, 0
9, 307440, Control_c, 3, 11, 124
9, 307440, Note_on_c, 3, 61, 68
9, 307664, Note_on_c, 3, 61, 0
9, 307680, Control_c, 3, 11, 80
9, 307680, Note_on_c, 3, 62, 76
9, 307859, Note_on_c, 3, 62, 0
9, 308160, Control_c, 3, 11, 80
9, 308300, Control_c, 3, 11, 82
9, 308440, Control_c, 3, 11, 84
9, 308580, Control_c, 3, 11, 86
9, 308640, Note_on_c, 3, 62, 76
9, 308720, Control_c, 3, 11, 88
9, 308860, Control_c, 3, 11, 90
9, 308880, Note_on_c, 3, 67, 76
9, 309000, Control_c, 3, 11, 92
9, 309119, Note_on_c, 3, 62, 0
9, 309120, Note_on_c, 3, 60, 76
9, 309140, Control_c, 3, 11, 94
9, 309280, Control_c, 3, 11, 96
9, 309359, Note_on_c, 3, 67, 0
9, 309360, Note_on_c, 3, 66, 76
9, 309420, Control_c, 3, 11, 98
9, 309560, Control_c, 3, 11, 100
9, 309599, Note_on_c, 3, 60, 0
9, 309600, Note_on_c, 3, 59, 76
9, 309700, Control_c, 3, 11, 102
9, 309824, Note_on_c, 3, 66, 0
9, 309840, Note_on_c, 3, 64, 76
9, 309840, Control_c, 3, 11, 104
9, 309980, Control_c, 3, 11, 105
9, 310079, Note_on_c, 3, 59, 0
9, 310080, Note_on_c, 3, 57, 76
9, 310120, Control_c, 3, 11, 107
9, 310260, Control_c, 3, 11, 109
9, 310319, Note_on_c, 3, 64, 0
9, 310320, Note_on_c, 3, 63, 76
9, 310400, Control_c, 3, 11, 111
9, 310540, Control_c, 3, 11, 113
9, 310559, Note_on_c, 3, 57, 0
9, 310560, Note_on_c, 3, 59, 76
9, 310680, Control_c, 3, 11, 115
9, 310799, Note_on_c, 3, 63, 0
9, 310800, Note_on_c, 3, 64, 76
9, 310820, Control_c, 3, 11, 117
9, 310960, Control_c, 3, 11, 119
9, 311024, Note_on_c, 3, 59, 0
9, 311040, Note_on_c, 3, 59, 76
9, 311100, Control_c, 3, 11, 121
9, 311240, Control_c, 3, 11, 123
9, 311279, Note_on_c, 3, 64, 0
9, 311280, Note_on_c, 3, 62, 76
9, 311380, Control_c, 3, 11, 125
9, 311504, Note_on_c, 3, 59, 0
9, 311504, Note_on_c, 3, 62, 0
9, 311520, Control_c, 3, 11, 127
9, 311520, Note_on_c, 3, 61, 76
9, 311520, Note_on_c, 3, 57, 76
9, 311759, Note_on_c, 3, 61, 0
9, 311759, Note_on_c, 3, 57, 0
9, 317520, Note_on_c, 3, 57, 84
9, 318104, Note_on_c, 3, 57, 0
9, 318120, Note_on_c, 3, 67, 76
9, 318120, Note_on_c, 3, 55, 76
9, 318224, Note_on_c, 3, 67, 0
9, 318224, Note_on_c, 3, 55, 0
9, 318240, Note_on_c, 3, 53, 76
9, 318240, Note_on_c, 3, 65, 76
9, 318344, Note_on_c, 3, 53, 0
9, 318344, Note_on_c, 3, 65, 0
9, 318360, Note_on_c, 3, 67, 76
9, 318360, Note_on_c, 3, 55, 76
9, 318464, Note_on_c, 3, 67, 0
9, 318464, Note_on_c, 3, 55, 0
9, 318480, Note_on_c, 3, 65, 76
9, 318480, Note_on_c, 3, 53, 76
9, 318584, Note_on_c, 3, 65, 0
9, 318584, Note_on_c, 3, 53, 0
9, 318600, Note_on_c, 3, 64, 76
9, 318600, Note_on_c, 3, 52, 76
9, 318704, Note_on_c, 3, 64, 0
9, 318704, Note_on_c, 3, 52, 0
9, 318720, Note_on_c, 3, 62, 76
9, 318720, Note_on_c, 3, 50, 76
9, 318824, Note_on_c, 3, 62, 0
9, 318824, Note_on_c, 3, 50, 0
9, 318840, Note_on_c, 3, 60, 76
9, 318840, Note_on_c, 3, 48, 76
9, 318944, Note_on_c, 3, 60, 0
9, 318944, Note_on_c, 3, 48, 0
9, 318960, Note_on_c, 3, 47, 76
9, 318960, Note_on_c, 3, 59, 76
9, 319064, Note_on_c, 3, 47, 0
9, 319064, Note_on_c, 3, 59, 0
9, 319080, Note_on_c, 3, 58, 76
9, 319080, Note_on_c, 3, 46, 76
9, 319184, Note_on_c, 3, 58, 0
9, 319184, Note_on_c, 3, 46, 0
9, 319200, Note_on_c, 3, 57, 84
9, 319200, Note_on_c, 3, 45, 84
9, 319559, Note_on_c, 3, 57, 0
9, 319559, Note_on_c, 3, 45, 0
9, 319560, Note_on_c, 3, 58, 76
9, 319560, Note_on_c, 3, 46, 76
9, 319664, Note_on_c, 3, 58, 0
9, 319664, Note_on_c, 3, 46, 0
9, 319680, Note_on_c, 3, 45, 84
9, 319680, Note_on_c, 3, 57, 84
9, 320039, Note_on_c, 3, 45, 0
9, 320039, Note_on_c, 3, 57, 0
9, 320040, Note_on_c, 3, 58, 76
9, 320040, Note_on_c, 3, 46, 76
9, 320144, Note_on_c, 3, 58, 0
9, 320144, Note_on_c, 3, 46, 0
9, 320160, Note_on_c, 3, 57, 84
9, 320160, Note_on_c, 3, 45, 84
9, 320249, Note_on_c, 3, 57, 0
9, 320249, Note_on_c, 3, 45, 0
9, 320280, Note_on_c, 3, 58, 76
9, 320280, Note_on_c, 3, 46, 76
9, 320369, Note_on_c, 3, 58, 0
9, 320369, Note_on_c, 3, 46, 0
9, 320400, Note_on_c, 3, 57, 76
9, 320400, Note_on_c, 3, 45, 76
9, 320489, Note_on_c, 3, 57, 0
9, 320489, Note_on_c, 3, 45, 0
9, 320520, Note_on_c, 3, 46, 76
9, 320520, Note_on_c, 3, 58, 76
9, 320609, Note_on_c, 3, 46, 0
9, 320609, Note_on_c, 3, 58, 0
9, 320640, Note_on_c, 3, 45, 76
9, 320640, Note_on_c, 3, 57, 76
9, 320729, Note_on_c, 3, 45, 0
9, 320729, Note_on_c, 3, 57, 0
9, 320760, Note_on_c, 3, 46, 76
9, 320760, Note_on_c, 3, 58, 76
9, 320849, Note_on_c, 3, 46, 0
9, 320849, Note_on_c, 3, 58, 0
9, 320880, Note_on_c, 3, 57, 76
9, 320880, Note_on_c, 3, 45, 76
9, 320969, Note_on_c, 3, 57, 0
9, 320969, Note_on_c, 3, 45, 0
9, 321000, Note_on_c, 3, 46, 76
9, 321000, Note_on_c, 3, 58, 76
9, 321089, Note_on_c, 3, 46, 0
9, 321089, Note_on_c, 3, 58, 0
9, 321120, Note_on_c, 3, 57, 84
9, 321120, Note_on_c, 3, 45, 84
9, 321824, Note_on_c, 3, 57, 0
9, 321824, Note_on_c, 3, 45, 0
9, 321840, Note_on_c, 3, 56, 76
9, 322019, Note_on_c, 3, 56, 0
9, 322080, Note_on_c, 3, 55, 76
9, 322259, Note_on_c, 3, 55, 0
9, 322320, Note_on_c, 3, 54, 76
9, 322499, Note_on_c, 3, 54, 0
9, 322560, Note_on_c, 3, 52, 76
9, 322739, Note_on_c, 3, 52, 0
9, 322800, Note_on_c, 3, 57, 76
9, 322979, Note_on_c, 3, 57, 0
9, 323040, Note_on_c, 3, 50, 52
9, 323279, Note_on_c, 3, 50, 0
9, 329040, Note_on_c, 3, 52, 92
9, 329040, Note_on_c, 3, 64, 92
9, 329279, Note_on_c, 3, 52, 0
9, 329279, Note_on_c, 3, 64, 0
9, 329520, Note_on_c, 3, 52, 92
9, 329520, Note_on_c, 3, 62, 92
9, 329744, Note_on_c, 3, 52, 0
9, 329744, Note_on_c, 3, 62, 0
9, 329760, Note_on_c, 3, 57, 84
9, 329760, Note_on_c, 3, 61, 84
9, 329999, Note_on_c, 3, 57, 0
9, 329999, Note_on_c, 3, 61, 0
9, 330720, Note_on_c, 3, 54, 52
9, 330720, Note_on_c, 3, 50, 52
9, 331184, Note_on_c, 3, 54, 0
9, 331184, Note_on_c, 3, 50, 0
9, 331200, Note_on_c, 3, 57, 52
9, 331200, Note_on_c, 3, 54, 52
9, 331611, Note_on_c, 3, 57, 0
9, 331611, Note_on_c, 3, 54, 0
9, 331620, Note_on_c, 3, 62, 52
9, 331620, Note_on_c, 3, 54, 52
9, 331671, Note_on_c, 3, 62, 0
9, 331671, Note_on_c, 3, 54, 0
9, 331680, Note_on_c, 3, 57, 52
9, 331680, Note_on_c, 3, 66, 52
9, 332384, Note_on_c, 3, 57, 0
9, 332384, Note_on_c, 3, 66, 0
9, 332400, Note_on_c, 3, 62, 52
9, 332400, Note_on_c, 3, 54, 52
9, 332579, Note_on_c, 3, 62, 0
9, 332579, Note_on_c, 3, 54, 0
9, 332580, Note_on_c, 3, 55, 52
9, 332580, Note_on_c, 3, 64, 52
9, 332631, Note_on_c, 3, 55, 0
9, 332631, Note_on_c, 3, 64, 0
9, 332640, Note_on_c, 3, 57, 52
9, 332640, Note_on_c, 3, 66, 52
9, 332819, Note_on_c, 3, 57, 0
9, 332819, Note_on_c, 3, 66, 0
9, 332880, Note_on_c, 3, 57, 52
9, 332880, Note_on_c, 3, 66, 52
9, 333059, Note_on_c, 3, 57, 0
9, 333059, Note_on_c, 3, 66, 0
9, 333120, Note_on_c, 3, 66, 52
9, 333120, Note_on_c, 3, 57, 52
9, 333299, Note_on_c, 3, 66, 0
9, 333299, Note_on_c, 3, 57, 0
9, 333360, Note_on_c, 3, 59, 52
9, 333360, Note_on_c, 3, 67, 52
9, 333539, Note_on_c, 3, 59, 0
9, 333539, Note_on_c, 3, 67, 0
9, 333600, Note_on_c, 3, 66, 52
9, 333600, Note_on_c, 3, 57, 52
9, 334079, Note_on_c, 3, 66, 0
9, 334079, Note_on_c, 3, 57, 0
9, 334080, Note_on_c, 3, 62, 52
9, 334080, Note_on_c, 3, 54, 52
9, 334169, Note_on_c, 3, 62, 0
9, 334169, Note_on_c, 3, 54, 0
9, 334560, Note_on_c, 3, 54, 84
9, 334560, Note_on_c, 3, 50, 84
9, 335024, Note_on_c, 3, 54, 0
9, 335024, Note_on_c, 3, 50, 0
9, 335040, Note_on_c, 3, 59, 84
9, 335040, Note_on_c, 3, 54, 84
9, 335451, Note_on_c, 3, 59, 0
9, 335451, Note_on_c, 3, 54, 0
9, 335460, Note_on_c, 3, 62, 84
9, 335460, Note_on_c, 3, 59, 84
9, 335511, Note_on_c, 3, 62, 0
9, 335511, Note_on_c, 3, 59, 0
9, 335520, Note_on_c, 3, 62, 92
9, 335520, Note_on_c, 3, 66, 92
9, 336239, Note_on_c, 3, 62, 0
9, 336239, Note_on_c, 3, 66, 0
9, 336720, Note_on_c, 3, 52, 92
9, 336720, Note_on_c, 3, 61, 92
9, 336959, Note_on_c, 3, 52, 0
9, 336959, Note_on_c, 3, 61, 0
9, 337200, Note_on_c, 3, 52, 92
9, 337200, Note_on_c, 3, 62, 92
9, 337424, Note_on_c, 3, 52, 0
9, 337424, Note_on_c, 3, 62, 0
9, 337440, Note_on_c, 3, 57, 84
9, 337440, Note_on_c, 3, 61, 84
9, 337679, Note_on_c, 3, 57, 0
9, 337679, Note_on_c, 3, 61, 0
9, 339360, Note_on_c, 3, 54, 92
9, 339944, Note_on_c, 3, 54, 0
9, 339960, Note_on_c, 3, 54, 84
9, 340079, Note_on_c, 3, 54, 0
9, 340080, Note_on_c, 3, 52, 84
9, 340199, Note_on_c, 3, 52, 0
9, 340200, Note_on_c, 3, 51, 84
9, 340304, Note_on_c, 3, 51, 0
9, 340320, Note_on_c, 3, 52, 92
9, 340904, Note_on_c, 3, 52, 0
9, 340920, Note_on_c, 3, 52, 84
9, 341039, Note_on_c, 3, 52, 0
9, 341040, Note_on_c, 3, 50, 84
9, 341159, Note_on_c, 3, 50, 0
9, 341160, Note_on_c, 3, 49, 84
9, 341264, Note_on_c, 3, 49, 0
9, 341280, Note_on_c, 3, 50, 92
9, 341369, Note_on_c, 3, 50, 0
9, 341400, Note_on_c, 3, 57, 84
9, 341519, Note_on_c, 3, 57, 0
9, 341520, Note_on_c, 3, 55, 84
9, 341639, Note_on_c, 3, 55, 0
9, 341640, Note_on_c, 3, 54, 84
9, 341744, Note_on_c, 3, 54, 0
9, 341760, Note_on_c, 3, 55, 92
9, 341849, Note_on_c, 3, 55, 0
9, 341880, Note_on_c, 3, 55, 84
9, 341999, Note_on_c, 3, 55, 0
9, 342000, Note_on_c, 3, 54, 84
9, 342119, Note_on_c, 3, 54, 0
9, 342120, Note_on_c, 3, 53, 84
9, 342224, Note_on_c, 3, 53, 0
9, 342240, Note_on_c, 3, 54, 92
9, 342329, Note_on_c, 3, 54, 0
9, 342360, Note_on_c, 3, 54, 84
9, 342479, Note_on_c, 3, 54, 0
9, 342480, Note_on_c, 3, 52, 84
9, 342599, Note_on_c, 3, 52, 0
9, 342600, Note_on_c, 3, 51, 84
9, 342704, Note_on_c, 3, 51, 0
9, 342720, Note_on_c, 3, 52, 92
9, 342809, Note_on_c, 3, 52, 0
9, 342840, Note_on_c, 3, 52, 84
9, 342959, Note_on_c, 3, 52, 0
9, 342960, Note_on_c, 3, 50, 84
9, 343079, Note_on_c, 3, 50, 0
9, 343080, Note_on_c, 3, 49, 84
9, 343184, Note_on_c, 3, 49, 0
9, 343200, Note_on_c, 3, 50, 92
9, 343289, Note_on_c, 3, 50, 0
9, 343320, Note_on_c, 3, 62, 84
9, 343439, Note_on_c, 3, 62, 0
9, 343440, Note_on_c, 3, 61, 84
9, 343559, Note_on_c, 3, 61, 0
9, 343560, Note_on_c, 3, 59, 84
9, 343664, Note_on_c, 3, 59, 0
9, 343680, Note_on_c, 3, 61, 92
9, 343769, Note_on_c, 3, 61, 0
9, 343800, Note_on_c, 3, 61, 84
9, 343919, Note_on_c, 3, 61, 0
9, 343920, Note_on_c, 3, 59, 84
9, 344039, Note_on_c, 3, 59, 0
9, 344040, Note_on_c, 3, 58, 84
9, 344144, Note_on_c, 3, 58, 0
9, 344160, Note_on_c, 3, 59, 92
9, 344249, Note_on_c, 3, 59, 0
9, 344280, Note_on_c, 3, 59, 84
9, 344399, Note_on_c, 3, 59, 0
9, 344400, Note_on_c, 3, 57, 84
9, 344519, Note_on_c, 3, 57, 0
9, 344520, Note_on_c, 3, 55, 84
9, 344624, Note_on_c, 3, 55, 0
9, 344640, Note_on_c, 3, 57, 92
9, 344729, Note_on_c, 3, 57, 0
9, 344760, Note_on_c, 3, 57, 84
9, 344879, Note_on_c, 3, 57, 0
9, 344880, Note_on_c, 3, 55, 84
9, 344999, Note_on_c, 3, 55, 0
9, 345000, Note_on_c, 3, 54, 84
9, 345104, Note_on_c, 3, 54, 0
9, 345120, Note_on_c, 3, 55, 84
9, 345299, Note_on_c, 3, 55, 0
9, 345540, Note_on_c, 3, 67, 84
9, 345540, Note_on_c, 3, 55, 84
9, 345591, Note_on_c, 3, 67, 0
9, 345591, Note_on_c, 3, 55, 0
9, 345600, Note_on_c, 3, 55, 84
9, 345600, Note_on_c, 3, 67, 84
9, 346079, Note_on_c, 3, 55, 0
9, 346079, Note_on_c, 3, 67, 0
9, 346500, Note_on_c, 3, 52, 84
9, 346500, Note_on_c, 3, 64, 84
9, 346551, Note_on_c, 3, 52, 0
9, 346551, Note_on_c, 3, 64, 0
9, 346560, Note_on_c, 3, 52, 84
9, 346560, Note_on_c, 3, 64, 84
9, 347039, Note_on_c, 3, 52, 0
9, 347039, Note_on_c, 3, 64, 0
9, 347280, Note_on_c, 3, 49, 84
9, 347280, Note_on_c, 3, 61, 84
9, 347459, Note_on_c, 3, 49, 0
9, 347459, Note_on_c, 3, 61, 0
9, 347760, Note_on_c, 3, 50, 84
9, 347760, Note_on_c, 3, 62, 84
9, 347939, Note_on_c, 3, 50, 0
9, 347939, Note_on_c, 3, 62, 0
9, 348240, Note_on_c, 3, 43, 84
9, 348240, Note_on_c, 3, 55, 84
9, 348419, Note_on_c, 3, 43, 0
9, 348419, Note_on_c, 3, 55, 0
9, 348720, Note_on_c, 3, 57, 84
9, 348720, Note_on_c, 3, 45, 84
9, 348899, Note_on_c, 3, 57, 0
9, 348899, Note_on_c, 3, 45, 0
9, 349380, Note_on_c, 3, 58, 84
9, 349380, Note_on_c, 3, 62, 84
9, 349439, Note_on_c, 3, 58, 0
9, 349439, Note_on_c, 3, 62, 0
9, 349440, Note_on_c, 3, 58, 84
9, 349440, Note_on_c, 3, 62, 84
9, 349919, Note_on_c, 3, 58, 0
9, 349919, Note_on_c, 3, 62, 0
9, 350340, Note_on_c, 3, 64, 84
9, 350340, Note_on_c, 3, 61, 84
9, 350399, Note_on_c, 3, 64, 0
9, 350399, Note_on_c, 3, 61, 0
9, 350400, Note_on_c, 3, 61, 84
9, 350400, Note_on_c, 3, 64, 84
9, 350879, Note_on_c, 3, 61, 0
9, 350879, Note_on_c, 3, 64, 0
9, 358560, Note_on_c, 3, 45, 84
9, 358664, Note_on_c, 3, 45, 0
9, 358680, Note_on_c, 3, 50, 84
9, 358784, Note_on_c, 3, 50, 0
9, 358800, Note_on_c, 3, 54, 84
9, 358904, Note_on_c, 3, 54, 0
9, 358920, Note_on_c, 3, 57, 84
9, 359024, Note_on_c, 3, 57, 0
9, 359040, Note_on_c, 3, 62, 84
9, 359279, Note_on_c, 3, 62, 0
9, 362400, Note_on_c, 3, 67, 84
9, 362400, Note_on_c, 3, 55, 84
9, 363104, Note_on_c, 3, 67, 0
9, 363104, Note_on_c, 3, 55, 0
9, 363120, Note_on_c, 3, 67, 84
9, 363120, Note_on_c, 3, 55, 84
9, 363299, Note_on_c, 3, 67, 0
9, 363299, Note_on_c, 3, 55, 0
9, 363360, Note_on_c, 3, 62, 84
9, 363360, Note_on_c, 3, 50, 84
9, 363539, Note_on_c, 3, 62, 0
9, 363539, Note_on_c, 3, 50, 0
9, 363600, Note_on_c, 3, 46, 84
9, 363600, Note_on_c, 3, 58, 84
9, 363779, Note_on_c, 3, 46, 0
9, 363779, Note_on_c, 3, 58, 0
9, 363840, Note_on_c, 3, 45, 84
9, 363840, Note_on_c, 3, 57, 84
9, 364019, Note_on_c, 3, 45, 0
9, 364019, Note_on_c, 3, 57, 0
9, 364080, Note_on_c, 3, 55, 84
9, 364080, Note_on_c, 3, 43, 84
9, 364259, Note_on_c, 3, 55, 0
9, 364259, Note_on_c, 3, 43, 0
9, 364320, Note_on_c, 3, 50, 84
9, 364559, Note_on_c, 3, 50, 0
9, 366240, Note_on_c, 3, 55, 84
9, 366240, Note_on_c, 3, 67, 84
9, 366944, Note_on_c, 3, 55, 0
9, 366944, Note_on_c, 3, 67, 0
9, 366960, Note_on_c, 3, 55, 84
9, 366960, Note_on_c, 3, 67, 84
9, 367139, Note_on_c, 3, 55, 0
9, 367139, Note_on_c, 3, 67, 0
9, 367200, Note_on_c, 3, 50, 84
9, 367200, Note_on_c, 3, 62, 84
9, 367379, Note_on_c, 3, 50, 0
9, 367379, Note_on_c, 3, 62, 0
9, 367440, Note_on_c, 3, 46, 84
9, 367440, Note_on_c, 3, 58, 84
9, 367619, Note_on_c, 3, 46, 0
9, 367619, Note_on_c, 3, 58, 0
9, 367680, Note_on_c, 3, 57, 84
9, 367680, Note_on_c, 3, 45, 84
9, 367859, Note_on_c, 3, 57, 0
9, 367859, Note_on_c, 3, 45, 0
9, 367920, Note_on_c, 3, 55, 84
9, 367920, Note_on_c, 3, 43, 84
9, 368099, Note_on_c, 3, 55, 0
9, 368099, Note_on_c, 3, 43, 0
9, 368160, Note_on_c, 3, 50, 52
9, 368339, Note_on_c, 3, 50, 0
9, 368400, Note_on_c, 3, 50, 52
9, 368400, Note_on_c, 3, 55, 52
9, 368639, Note_on_c, 3, 50, 0
9, 368639, Note_on_c, 3, 55, 0
9, 368640, Note_on_c, 3, 57, 52
9, 368640, Note_on_c, 3, 54, 52
9, 368879, Note_on_c, 3, 57, 0
9, 368879, Note_on_c, 3, 54, 0
9, 368880, Note_on_c, 3, 58, 76
9, 368880, Note_on_c, 3, 55, 76
9, 369119, Note_on_c, 3, 58, 0
9, 369119, Note_on_c, 3, 55, 0
9, 369360, Note_on_c, 3, 57, 52
9, 369360, Note_on_c, 3, 54, 52
9, 369599, Note_on_c, 3, 57, 0
9, 369599, Note_on_c, 3, 54, 0
9, 370320, Note_on_c, 3, 50, 52
9, 370320, Note_on_c, 3, 55, 52
9, 370559, Note_on_c, 3, 50, 0
9, 370559, Note_on_c, 3, 55, 0
9, 370560, Note_on_c, 3, 57, 52
9, 370560, Note_on_c, 3, 54, 52
9, 370799, Note_on_c, 3, 57, 0
9, 370799, Note_on_c, 3, 54, 0
9, 370800, Note_on_c, 3, 58, 76
9, 370800, Note_on_c, 3, 55, 76
9, 371024, Note_on_c, 3, 58, 0
9, 371024, Note_on_c, 3, 55, 0
9, 371040, Note_on_c, 3, 54, 52
9, 371040, Note_on_c, 3, 57, 52
9, 371279, Note_on_c, 3, 54, 0
9, 371279, Note_on_c, 3, 57, 0
9, 372240, Note_on_c, 3, 55, 76
9, 372240, Note_on_c, 3, 58, 76
9, 372419, Note_on_c, 3, 55, 0
9, 372419, Note_on_c, 3, 58, 0
9, 372480, Note_on_c, 3, 54, 52
9, 372480, Note_on_c, 3, 57, 52
9, 372659, Note_on_c, 3, 54, 0
9, 372659, Note_on_c, 3, 57, 0
9, 372720, Note_on_c, 3, 55, 76
9, 372720, Note_on_c, 3, 58, 76
9, 372899, Note_on_c, 3, 55, 0
9, 372899, Note_on_c, 3, 58, 0
9, 372960, Note_on_c, 3, 54, 52
9, 372960, Note_on_c, 3, 57, 52
9, 373139, Note_on_c, 3, 54, 0
9, 373139, Note_on_c, 3, 57, 0
9, 373200, Note_on_c, 3, 58, 76
9, 373200, Note_on_c, 3, 55, 76
9, 373379, Note_on_c, 3, 58, 0
9, 373379, Note_on_c, 3, 55, 0
9, 373440, Note_on_c, 3, 57, 52
9, 373440, Note_on_c, 3, 54, 52
9, 373619, Note_on_c, 3, 57, 0
9, 373619, Note_on_c, 3, 54, 0
9, 373680, Note_on_c, 3, 58, 76
9, 373680, Note_on_c, 3, 55, 76
9, 373859, Note_on_c, 3, 58, 0
9, 373859, Note_on_c, 3, 55, 0
9, 373920, Note_on_c, 3, 54, 84
9, 373920, Note_on_c, 3, 57, 84
9, 374159, Note_on_c, 3, 54, 0
9, 374159, Note_on_c, 3, 57, 0
9, 374400, Note_on_c, 3, 62, 84
9, 374864, Note_on_c, 3, 62, 0
9, 374880, Note_on_c, 3, 57, 84
9, 375344, Note_on_c, 3, 57, 0
9, 375360, Note_on_c, 3, 54, 84
9, 375824, Note_on_c, 3, 54, 0
9, 375840, Note_on_c, 3, 50, 84
9, 376784, Note_on_c, 3, 50, 0
9, 376800, Note_on_c, 3, 54, 84
9, 377264, Note_on_c, 3, 54, 0
9, 377280, Note_on_c, 3, 57, 84
9, 377744, Note_on_c, 3, 57, 0
9, 377760, Note_on_c, 3, 62, 84
9, 377999, Note_on_c, 3, 62, 0
9, 378240, Note_on_c, 3, 57, 76
9, 378240, Note_on_c, 3, 54, 76
9, 378479, Note_on_c, 3, 57, 0
9, 378479, Note_on_c, 3, 54, 0
9, 379200, Note_on_c, 3, 60, 76
9, 379200, Note_on_c, 3, 57, 76
9, 379439, Note_on_c, 3, 60, 0
9, 379439, Note_on_c, 3, 57, 0
9, 381360, Note_on_c, 3, 57, 52
9, 381360, Note_on_c, 3, 60, 52
9, 381599, Note_on_c, 3, 57, 0
9, 381599, Note_on_c, 3, 60, 0
9, 381600, Note_on_c, 3, 59, 52
9, 381600, Note_on_c, 3, 55, 52
9, 381839, Note_on_c, 3, 59, 0
9, 381839, Note_on_c, 3, 55, 0
9, 383040, Control_c, 3, 11, 80
9, 383280, Note_on_c, 3, 66, 76
9, 383280, Note_on_c, 3, 59, 76
9, 383519, Note_on_c, 3, 66, 0
9, 383519, Note_on_c, 3, 59, 0
9, 383520, Note_on_c, 3, 64, 76
9, 383744, Note_on_c, 3, 64, 0
9, 383760, Note_on_c, 3, 67, 76
9, 384239, Note_on_c, 3, 67, 0
9, 384240, Note_on_c, 3, 66, 76
9, 384479, Note_on_c, 3, 66, 0
9, 384480, Control_c, 3, 11, 80
9, 384480, Note_on_c, 3, 64, 76
9, 384560, Control_c, 3, 11, 84
9, 384640, Control_c, 3, 11, 88
9, 384719, Note_on_c, 3, 64, 0
9, 384720, Note_on_c, 3, 62, 76
9, 384720, Control_c, 3, 11, 92
9, 384800, Control_c, 3, 11, 96
9, 384880, Control_c, 3, 11, 100
9, 384959, Note_on_c, 3, 62, 0
9, 384960, Control_c, 3, 11, 104
9, 384960, Note_on_c, 3, 61, 76
9, 385040, Control_c, 3, 11, 107
9, 385120, Control_c, 3, 11, 111
9, 385199, Note_on_c, 3, 61, 0
9, 385200, Control_c, 3, 11, 115
9, 385200, Note_on_c, 3, 57, 76
9, 385280, Control_c, 3, 11, 119
9, 385360, Control_c, 3, 11, 123
9, 385424, Note_on_c, 3, 57, 0
9, 385440, Control_c, 3, 11, 127
9, 385440, Note_on_c, 3, 62, 76
9, 385679, Note_on_c, 3, 62, 0
9, 386400, Note_on_c, 3, 62, 84
9, 387119, Note_on_c, 3, 62, 0
9, 387120, Note_on_c, 3, 63, 76
9, 387344, Note_on_c, 3, 63, 0
9, 387360, Note_on_c, 3, 64, 76
9, 387599, Note_on_c, 3, 64, 0
9, 388320, Note_on_c, 3, 64, 84
9, 389039, Note_on_c, 3, 64, 0
9, 389040, Note_on_c, 3, 65, 76
9, 389264, Note_on_c, 3, 65, 0
9, 389280, Note_on_c, 3, 66, 76
9, 389519, Note_on_c, 3, 66, 0
9, 393120, Note_on_c, 3, 61, 84
9, 393120, Note_on_c, 3, 67, 84
9, 394079, Note_on_c, 3, 61, 0
9, 394079, Note_on_c, 3, 67, 0
9, 395040, Note_on_c, 3, 62, 84
9, 395040, Note_on_c, 3, 65, 84
9, 395984, Note_on_c, 3, 65, 0
9, 396000, Note_on_c, 3, 64, 84
9, 396464, Note_on_c, 3, 62, 0
9, 396480, Note_on_c, 3, 61, 84
9, 396944, Note_on_c, 3, 64, 0
9, 396944, Note_on_c, 3, 61, 0
9, 396960, Note_on_c, 3, 62, 84
9, 397199, Note_on_c, 3, 62, 0
9, 397680, Note_on_c, 3, 60, 52
9, 397739, Note_on_c, 3, 60, 0
9, 397740, Note_on_c, 3, 59, 52
9, 397799, Note_on_c, 3, 59, 0
9, 397800, Note_on_c, 3, 60, 52
9, 397859, Note_on_c, 3, 60, 0
9, 397860, Note_on_c, 3, 62, 52
9, 397911, Note_on_c, 3, 62, 0
9, 397920, Note_on_c, 3, 63, 52
9, 398099, Note_on_c, 3, 63, 0
9, 398160, Note_on_c, 3, 63, 52
9, 398339, Note_on_c, 3, 63, 0
9, 398400, Note_on_c, 3, 60, 52
9, 398579, Note_on_c, 3, 60, 0
9, 398640, Note_on_c, 3, 60, 52
9, 398819, Note_on_c, 3, 60, 0
9, 398880, Note_on_c, 3, 62, 84
9, 399584, Note_on_c, 3, 62, 0
9, 399600, Note_on_c, 3, 60, 84
9, 399659, Note_on_c, 3, 60, 0
9, 399660, Note_on_c, 3, 59, 84
9, 399719, Note_on_c, 3, 59, 0
9, 399720, Note_on_c, 3, 60, 84
9, 399779, Note_on_c, 3, 60, 0
9, 399780, Note_on_c, 3, 62, 84
9, 399831, Note_on_c, 3, 62, 0
9, 399840, Note_on_c, 3, 63, 52
9, 400019, Note_on_c, 3, 63, 0
9, 400080, Note_on_c, 3, 63, 52
9, 400259, Note_on_c, 3, 63, 0
9, 400320, Note_on_c, 3, 60, 52
9, 400499, Note_on_c, 3, 60, 0
9, 400560, Note_on_c, 3, 60, 52
9, 400739, Note_on_c, 3, 60, 0
9, 400800, Note_on_c, 3, 62, 52
9, 401039, Note_on_c, 3, 62, 0
9, 401280, Note_on_c, 3, 62, 84
9, 401280, Note_on_c, 3, 50, 84
9, 401759, Note_on_c, 3, 62, 0
9, 401759, Note_on_c, 3, 50, 0
9, 402240, Note_on_c, 3, 63, 84
9, 402240, Note_on_c, 3, 51, 84
9, 402704, Note_on_c, 3, 63, 0
9, 402704, Note_on_c, 3, 51, 0
9, 402720, Note_on_c, 3, 64, 84
9, 402720, Note_on_c, 3, 52, 84
9, 403184, Note_on_c, 3, 64, 0
9, 403184, Note_on_c, 3, 52, 0
9, 403200, Note_on_c, 3, 65, 84
9, 403200, Note_on_c, 3, 53, 84
9, 403664, Note_on_c, 3, 65, 0
9, 403664, Note_on_c, 3, 53, 0
9, 403680, Note_on_c, 3, 54, 84
9, 403680, Note_on_c, 3, 66, 84
9, 404624, Note_on_c, 3, 54, 0
9, 404624, Note_on_c, 3, 66, 0
9, 404640, Note_on_c, 3, 43, 84
9, 404640, Note_on_c, 3, 55, 84
9, 405104, Note_on_c, 3, 43, 0
9, 405104, Note_on_c, 3, 55, 0
9, 405120, Note_on_c, 3, 44, 84
9, 405120, Note_on_c, 3, 56, 84
9, 405584, Note_on_c, 3, 44, 0
9, 405584, Note_on_c, 3, 56, 0
9, 405600, Note_on_c, 3, 45, 84
9, 405600, Note_on_c, 3, 57, 84
9, 406544, Note_on_c, 3, 45, 0
9, 406544, Note_on_c, 3, 57, 0
9, 406560, Note_on_c, 3, 46, 84
9, 406560, Note_on_c, 3, 58, 84
9, 407024, Note_on_c, 3, 46, 0
9, 407024, Note_on_c, 3, 58, 0
9, 407040, Note_on_c, 3, 59, 84
9, 407040, Note_on_c, 3, 47, 84
9, 407504, Note_on_c, 3, 59, 0
9, 407504, Note_on_c, 3, 47, 0
9, 407520, Note_on_c, 3, 60, 84
9, 407520, Note_on_c, 3, 48, 84
9, 408464, Note_on_c, 3, 60, 0
9, 408464, Note_on_c, 3, 48, 0
9, 408480, Note_on_c, 3, 61, 84
9, 408480, Note_on_c, 3, 49, 84
9, 408944, Note_on_c, 3, 61, 0
9, 408944, Note_on_c, 3, 49, 0
9, 408960, Note_on_c, 3, 50, 84
9, 408960, Note_on_c, 3, 62, 84
9, 409424, Note_on_c, 3, 50, 0
9, 409424, Note_on_c, 3, 62, 0
9, 409440, Note_on_c, 3, 63, 84
9, 409440, Note_on_c, 3, 51, 84
9, 410384, Note_on_c, 3, 63, 0
9, 410384, Note_on_c, 3, 51, 0
9, 410400, Note_on_c, 3, 52, 84
9, 410400, Note_on_c, 3, 64, 84
9, 410864, Note_on_c, 3, 52, 0
9, 410864, Note_on_c, 3, 64, 0
9, 410880, Note_on_c, 3, 49, 84
9, 410880, Note_on_c, 3, 61, 84
9, 411344, Note_on_c, 3, 49, 0
9, 411344, Note_on_c, 3, 61, 0
9, 411360, Note_on_c, 3, 62, 84
9, 411360, Note_on_c, 3, 50, 84
9, 411824, Note_on_c, 3, 62, 0
9, 411824, Note_on_c, 3, 50, 0
9, 411840, Note_on_c, 3, 59, 84
9, 411840, Note_on_c, 3, 47, 84
9, 412304, Note_on_c, 3, 59, 0
9, 412304, Note_on_c, 3, 47, 0
9, 412320, Note_on_c, 3, 55, 92
9, 412320, Note_on_c, 3, 43, 92
9, 413264, Note_on_c, 3, 55, 0
9, 413264, Note_on_c, 3, 43, 0
9, 413280, Note_on_c, 3, 57, 92
9, 413280, Note_on_c, 3, 45, 92
9, 414224, Note_on_c, 3, 57, 0
9, 414224, Note_on_c, 3, 45, 0
9, 414240, Note_on_c, 3, 50, 84
9, 414479, Note_on_c, 3, 50, 0
9, 417600, Note_on_c, 3, 67, 84
9, 417689, Note_on_c, 3, 67, 0
9, 417720, Note_on_c, 3, 64, 84
9, 417809, Note_on_c, 3, 64, 0
9, 417840, Note_on_c, 3, 61, 84
9, 417929, Note_on_c, 3, 61, 0
9, 417960, Note_on_c, 3, 57, 84
9, 418049, Note_on_c, 3, 57, 0
9, 418080, Note_on_c, 3, 62, 84
9, 418799, Note_on_c, 3, 62, 0
9, 421440, Note_on_c, 3, 67, 84
9, 421529, Note_on_c, 3, 67, 0
9, 421560, Note_on_c, 3, 64, 84
9, 421649, Note_on_c, 3, 64, 0
9, 421680, Note_on_c, 3, 61, 84
9, 421769, Note_on_c, 3, 61, 0
9, 421800, Note_on_c, 3, 57, 84
9, 421889, Note_on_c, 3, 57, 0
9, 421920, Note_on_c, 3, 62, 84
9, 422159, Note_on_c, 3, 62, 0
9, 422400, Note_on_c, 3, 62, 84
9, 422400, Note_on_c, 3, 66, 84
9, 422879, Note_on_c, 3, 66, 0
9, 422880, Note_on_c, 3, 64, 84
9, 423344, Note_on_c, 3, 62, 0
9, 423344, Note_on_c, 3, 64, 0
9, 423360, Note_on_c, 3, 67, 84
9, 423449, Note_on_c, 3, 67, 0
9, 423480, Note_on_c, 3, 64, 84
9, 423569, Note_on_c, 3, 64, 0
9, 423600, Note_on_c, 3, 61, 84
9, 423689, Note_on_c, 3, 61, 0
9, 423720, Note_on_c, 3, 57, 84
9, 423809, Note_on_c, 3, 57, 0
9, 423840, Note_on_c, 3, 50, 76
9, 424544, Note_on_c, 3, 50, 0
9, 424560, Note_on_c, 3, 50, 76
9, 424619, Note_on_c, 3, 50, 0
9, 424620, Note_on_c, 3, 49, 76
9, 424679, Note_on_c, 3, 49, 0
9, 424680, Note_on_c, 3, 50, 76
9, 424739, Note_on_c, 3, 50, 0
9, 424740, Note_on_c, 3, 52, 76
9, 424791, Note_on_c, 3, 52, 0
9, 424800, Note_on_c, 3, 54, 76
9, 424979, Note_on_c, 3, 54, 0
9, 425040, Note_on_c, 3, 54, 76
9, 425099, Note_on_c, 3, 54, 0
9, 425100, Note_on_c, 3, 52, 76
9, 425159, Note_on_c, 3, 52, 0
9, 425160, Note_on_c, 3, 54, 76
9, 425219, Note_on_c, 3, 54, 0
9, 425220, Note_on_c, 3, 55, 76
9, 425271, Note_on_c, 3, 55, 0
9, 425280, Note_on_c, 3, 57, 76
9, 425459, Note_on_c, 3, 57, 0
9, 425520, Note_on_c, 3, 57, 76
9, 425639, Note_on_c, 3, 57, 0
9, 425640, Note_on_c, 3, 59, 76
9, 425699, Note_on_c, 3, 59, 0
9, 425700, Note_on_c, 3, 61, 76
9, 425751, Note_on_c, 3, 61, 0
9, 425760, Note_on_c, 3, 62, 84
9, 426464, Note_on_c, 3, 62, 0
9, 426480, Note_on_c, 3, 62, 76
9, 426599, Note_on_c, 3, 62, 0
9, 426600, Note_on_c, 3, 61, 76
9, 426659, Note_on_c, 3, 61, 0
9, 426660, Note_on_c, 3, 59, 76
9, 426711, Note_on_c, 3, 59, 0
9, 426720, Note_on_c, 3, 57, 76
9, 426899, Note_on_c, 3, 57, 0
9, 426960, Note_on_c, 3, 57, 76
9, 427019, Note_on_c, 3, 57, 0
9, 427020, Note_on_c, 3, 59, 76
9, 427079, Note_on_c, 3, 59, 0
9, 427080, Note_on_c, 3, 57, 76
9, 427139, Note_on_c, 3, 57, 0
9, 427140, Note_on_c, 3, 55, 76
9, 427191, Note_on_c, 3, 55, 0
9, 427200, Note_on_c, 3, 54, 76
9, 427379, Note_on_c, 3, 54, 0
9, 427440, Note_on_c, 3, 54, 76
9, 427499, Note_on_c, 3, 54, 0
9, 427500, Note_on_c, 3, 55, 76
9, 427559, Note_on_c, 3, 55, 0
9, 427560, Note_on_c, 3, 54, 76
9, 427619, Note_on_c, 3, 54, 0
9, 427620, Note_on_c, 3, 52, 76
9, 427671, Note_on_c, 3, 52, 0
9, 427680, Note_on_c, 3, 50, 76
9, 427919, Note_on_c, 3, 50, 0
9, 428100, Note_on_c, 3, 50, 76
9, 428100, Note_on_c, 3, 62, 76
9, 428144, Note_on_c, 3, 50, 0
9, 428144, Note_on_c, 3, 62, 0
9, 428160, Note_on_c, 3, 62, 76
9, 428160, Note_on_c, 3, 50, 76
9, 428339, Note_on_c, 3, 62, 0
9, 428339, Note_on_c, 3, 50, 0
9, 429060, Note_on_c, 3, 45, 76
9, 429060, Note_on_c, 3, 57, 76
9, 429104, Note_on_c, 3, 45, 0
9, 429104, Note_on_c, 3, 57, 0
9, 429120, Note_on_c, 3, 45, 76
9, 429120, Note_on_c, 3, 57, 76
9, 429299, Note_on_c, 3, 45, 0
9, 429299, Note_on_c, 3, 57, 0
9, 430020, Note_on_c, 3, 62, 76
9, 430020, Note_on_c, 3, 50, 76
9, 430064, Note_on_c, 3, 62, 0
9, 430064, Note_on_c, 3, 50, 0
9, 430080, Note_on_c, 3, 50, 76
9, 430080, Note_on_c, 3, 62, 76
9, 430259, Note_on_c, 3, 50, 0
9, 430259, Note_on_c, 3, 62, 0
9, 430980, Note_on_c, 3, 45, 76
9, 430980, Note_on_c, 3, 57, 76
9, 431024, Note_on_c, 3, 45, 0
9, 431024, Note_on_c, 3, 57, 0
9, 431040, Note_on_c, 3, 57, 76
9, 431040, Note_on_c, 3, 45, 76
9, 431219, Note_on_c, 3, 57, 0
9, 431219, Note_on_c, 3, 45, 0
9, 431520, Note_on_c, 3, 62, 76
9, 431520, Note_on_c, 3, 50, 76
9, 431759, Note_on_c, 3, 62, 0
9, 431759, Note_on_c, 3, 50, 0
9, 432420, Note_on_c, 3, 50, 84
9, 432471, Note_on_c, 3, 50, 0
9, 432480, Note_on_c, 3, 50, 84
9, 432719, Note_on_c, 3, 50, 0
9, 432960, Note_on_c, 3, 50, 84
9, 433199, Note_on_c, 3, 50, 0
9, 433440, Note_on_c, 3, 50, 84
9, 434399, Note_on_c, 3, 50, 0
9, 434399, End_track
10, 0, Start_track
10, 0, Title_t, "French Horn in D"
10, 0, MIDI_port, 0
10, 0, Program_c, 4, 60
10, 0, Control_c, 4, 7, 96
10, 0, Control_c, 4, 10, 45
10, 0, Control_c, 4, 11, 127
10, 690, Note_on_c, 4, 62, 84
10, 690, Note_on_c, 4, 50, 84
10, 715, Note_on_c, 4, 62, 0
10, 715, Note_on_c, 4, 50, 0
10, 720, Note_on_c, 4, 50, 84
10, 720, Note_on_c, 4, 62, 84
10, 1064, Note_on_c, 4, 50, 0
10, 1064, Note_on_c, 4, 62, 0
10, 3570, Note_on_c, 4, 50, 84
10, 3570, Note_on_c, 4, 62, 84
10, 3595, Note_on_c, 4, 50, 0
10, 3595, Note_on_c, 4, 62, 0
10, 3600, Note_on_c, 4, 62, 84
10, 3600, Note_on_c, 4, 50, 84
10, 3959, Note_on_c, 4, 62, 0
10, 3959, Note_on_c, 4, 50, 0
10, 4800, Note_on_c, 4, 57, 92
10, 4800, Note_on_c, 4, 69, 92
10, 5039, Note_on_c, 4, 57, 0
10, 5039, Note_on_c, 4, 69, 0
10, 5040, Note_on_c, 4, 64, 84
10, 5159, Note_on_c, 4, 64, 0
10, 5760, Control_c, 4, 11, 96
10, 5880, Control_c, 4, 11, 96
10, 5880, Note_on_c, 4, 54, 68
10, 5880, Note_on_c, 4, 66, 68
10, 5930, Control_c, 4, 11, 99
10, 5980, Control_c, 4, 11, 101
10, 5984, Note_on_c, 4, 54, 0
10, 5984, Note_on_c, 4, 66, 0
10, 6000, Note_on_c, 4, 54, 68
10, 6000, Note_on_c, 4, 66, 68
10, 6030, Control_c, 4, 11, 104
10, 6080, Control_c, 4, 11, 106
10, 6104, Note_on_c, 4, 54, 0
10, 6104, Note_on_c, 4, 66, 0
10, 6120, Note_on_c, 4, 66, 68
10, 6120, Note_on_c, 4, 54, 68
10, 6130, Control_c, 4, 11, 109
10, 6180, Control_c, 4, 11, 112
10, 6224, Note_on_c, 4, 66, 0
10, 6224, Note_on_c, 4, 54, 0
10, 6230, Control_c, 4, 11, 114
10, 6240, Note_on_c, 4, 54, 68
10, 6240, Note_on_c, 4, 66, 68
10, 6280, Control_c, 4, 11, 117
10, 6330, Control_c, 4, 11, 119
10, 6344, Note_on_c, 4, 54, 0
10, 6344, Note_on_c, 4, 66, 0
10, 6360, Note_on_c, 4, 54, 68
10, 6360, Note_on_c, 4, 66, 68
10, 6380, Control_c, 4, 11, 122
10, 6430, Control_c, 4, 11, 124
10, 6464, Note_on_c, 4, 54, 0
10, 6464, Note_on_c, 4, 66, 0
10, 6480, Note_on_c, 4, 54, 76
10, 6480, Control_c, 4, 11, 127
10, 6480, Note_on_c, 4, 66, 76
10, 6719, Note_on_c, 4, 54, 0
10, 6719, Note_on_c, 4, 66, 0
10, 7200, Note_on_c, 4, 67, 76
10, 7439, Note_on_c, 4, 67, 0
10, 7920, Note_on_c, 4, 69, 76
10, 8159, Note_on_c, 4, 69, 0
10, 8520, Note_on_c, 4, 69, 84
10, 8520, Note_on_c, 4, 57, 84
10, 8631, Note_on_c, 4, 69, 0
10, 8631, Note_on_c, 4, 57, 0
10, 8640, Note_on_c, 4, 50, 84
10, 8640, Note_on_c, 4, 62, 84
10, 8729, Note_on_c, 4, 50, 0
10, 8729, Note_on_c, 4, 62, 0
10, 12360, Note_on_c, 4, 67, 76
10, 12599, Note_on_c, 4, 67, 0
10, 13800, Note_on_c, 4, 57, 76
10, 13800, Note_on_c, 4, 69, 76
10, 14039, Note_on_c, 4, 57, 0
10, 14039, Note_on_c, 4, 69, 0
10, 14520, Note_on_c, 4, 62, 76
10, 14520, Note_on_c, 4, 50, 76
10, 14759, Note_on_c, 4, 62, 0
10, 14759, Note_on_c, 4, 50, 0
10, 15240, Note_on_c, 4, 67, 76
10, 15479, Note_on_c, 4, 67, 0
10, 15960, Note_on_c, 4, 69, 76
10, 15960, Note_on_c, 4, 67, 76
10, 16199, Note_on_c, 4, 69, 0
10, 16199, Note_on_c, 4, 67, 0
10, 16530, Note_on_c, 4, 57, 84
10, 16530, Note_on_c, 4, 69, 84
10, 16555, Note_on_c, 4, 57, 0
10, 16555, Note_on_c, 4, 69, 0
10, 16560, Note_on_c, 4, 62, 84
10, 16765, Note_on_c, 4, 62, 0
10, 16770, Note_on_c, 4, 62, 84
10, 16795, Note_on_c, 4, 62, 0
10, 16800, Note_on_c, 4, 57, 84
10, 16800, Note_on_c, 4, 69, 84
10, 17005, Note_on_c, 4, 57, 0
10, 17005, Note_on_c, 4, 69, 0
10, 17010, Note_on_c, 4, 57, 84
10, 17010, Note_on_c, 4, 69, 84
10, 17035, Note_on_c, 4, 57, 0
10, 17035, Note_on_c, 4, 69, 0
10, 17040, Note_on_c, 4, 57, 84
10, 17040, Note_on_c, 4, 69, 84
10, 17129, Note_on_c, 4, 57, 0
10, 17129, Note_on_c, 4, 69, 0
10, 17160, Note_on_c, 4, 57, 84
10, 17160, Note_on_c, 4, 69, 84
10, 17249, Note_on_c, 4, 57, 0
10, 17249, Note_on_c, 4, 69, 0
10, 17280, Note_on_c, 4, 57, 92
10, 17280, Note_on_c, 4, 45, 92
10, 17340, Control_c, 4, 11, 48
10, 19071, Note_on_c, 4, 57, 0
10, 19071, Note_on_c, 4, 45, 0
10, 19080, Note_on_c, 4, 45, 84
10, 19080, Note_on_c, 4, 57, 84
10, 19191, Note_on_c, 4, 45, 0
10, 19191, Note_on_c, 4, 57, 0
10, 19200, Note_on_c, 4, 57, 84
10, 19200, Note_on_c, 4, 45, 84
10, 19311, Note_on_c, 4, 57, 0
10, 19311, Note_on_c, 4, 45, 0
10, 19320, Note_on_c, 4, 57, 84
10, 19320, Note_on_c, 4, 45, 84
10, 19431, Note_on_c, 4, 57, 0
10, 19431, Note_on_c, 4, 45, 0
10, 19436, Control_c, 4, 11, 64
10, 19440, Note_on_c, 4, 45, 84
10, 19440, Note_on_c, 4, 57, 84
10, 20160, Control_c, 4, 11, 64
10, 20220, Control_c, 4, 11, 67
10, 20280, Control_c, 4, 11, 69
10, 20340, Control_c, 4, 11, 72
10, 20400, Control_c, 4, 11, 75
10, 20460, Control_c, 4, 11, 77
10, 20520, Control_c, 4, 11, 80
10, 20580, Control_c, 4, 11, 83
10, 20640, Control_c, 4, 11, 85
10, 20700, Control_c, 4, 11, 88
10, 20760, Control_c, 4, 11, 91
10, 20871, Note_on_c, 4, 45, 0
10, 20871, Note_on_c, 4, 57, 0
10, 20876, Control_c, 4, 11, 127
10, 20880, Note_on_c, 4, 57, 76
10, 20880, Note_on_c, 4, 45, 76
10, 20999, Note_on_c, 4, 57, 0
10, 20999, Note_on_c, 4, 45, 0
10, 21360, Note_on_c, 4, 57, 52
10, 21360, Note_on_c, 4, 45, 52
10, 21395, Note_on_c, 4, 57, 0
10, 21395, Note_on_c, 4, 45, 0
10, 21400, Note_on_c, 4, 57, 52
10, 21400, Note_on_c, 4, 45, 52
10, 21435, Note_on_c, 4, 57, 0
10, 21435, Note_on_c, 4, 45, 0
10, 21440, Note_on_c, 4, 57, 52
10, 21440, Note_on_c, 4, 45, 52
10, 21475, Note_on_c, 4, 57, 0
10, 21475, Note_on_c, 4, 45, 0
10, 21480, Note_on_c, 4, 57, 52
10, 21480, Note_on_c, 4, 45, 52
10, 21515, Note_on_c, 4, 57, 0
10, 21515, Note_on_c, 4, 45, 0
10, 21520, Note_on_c, 4, 45, 52
10, 21520, Note_on_c, 4, 57, 52
10, 21555, Note_on_c, 4, 45, 0
10, 21555, Note_on_c, 4, 57, 0
10, 21560, Note_on_c, 4, 57, 52
10, 21560, Note_on_c, 4, 45, 52
10, 21595, Note_on_c, 4, 57, 0
10, 21595, Note_on_c, 4, 45, 0
10, 21600, Note_on_c, 4, 57, 76
10, 21600, Note_on_c, 4, 45, 76
10, 21719, Note_on_c, 4, 57, 0
10, 21719, Note_on_c, 4, 45, 0
10, 22080, Note_on_c, 4, 45, 52
10, 22080, Note_on_c, 4, 57, 52
10, 22115, Note_on_c, 4, 45, 0
10, 22115, Note_on_c, 4, 57, 0
10, 22120, Note_on_c, 4, 45, 52
10, 22120, Note_on_c, 4, 57, 52
10, 22155, Note_on_c, 4, 45, 0
10, 22155, Note_on_c, 4, 57, 0
10, 22160, Note_on_c, 4, 57, 52
10, 22160, Note_on_c, 4, 45, 52
10, 22195, Note_on_c, 4, 57, 0
10, 22195, Note_on_c, 4, 45, 0
10, 22200, Note_on_c, 4, 57, 52
10, 22200, Note_on_c, 4, 45, 52
10, 22235, Note_on_c, 4, 57, 0
10, 22235, Note_on_c, 4, 45, 0
10, 22240, Note_on_c, 4, 57, 52
10, 22240, Note_on_c, 4, 45, 52
10, 22275, Note_on_c, 4, 57, 0
10, 22275, Note_on_c, 4, 45, 0
10, 22280, Note_on_c, 4, 45, 52
10, 22280, Note_on_c, 4, 57, 52
10, 22315, Note_on_c, 4, 45, 0
10, 22315, Note_on_c, 4, 57, 0
10, 22320, Note_on_c, 4, 45, 76
10, 22320, Note_on_c, 4, 57, 76
10, 22439, Note_on_c, 4, 45, 0
10, 22439, Note_on_c, 4, 57, 0
10, 22800, Note_on_c, 4, 57, 52
10, 22800, Note_on_c, 4, 45, 52
10, 22835, Note_on_c, 4, 57, 0
10, 22835, Note_on_c, 4, 45, 0
10, 22840, Note_on_c, 4, 45, 52
10, 22840, Note_on_c, 4, 57, 52
10, 22875, Note_on_c, 4, 45, 0
10, 22875, Note_on_c, 4, 57, 0
10, 22880, Note_on_c, 4, 57, 52
10, 22880, Note_on_c, 4, 45, 52
10, 22915, Note_on_c, 4, 57, 0
10, 22915, Note_on_c, 4, 45, 0
10, 22920, Note_on_c, 4, 57, 52
10, 22920, Note_on_c, 4, 45, 52
10, 22955, Note_on_c, 4, 57, 0
10, 22955, Note_on_c, 4, 45, 0
10, 22960, Note_on_c, 4, 45, 52
10, 22960, Note_on_c, 4, 57, 52
10, 22995, Note_on_c, 4, 45, 0
10, 22995, Note_on_c, 4, 57, 0
10, 23000, Note_on_c, 4, 45, 52
10, 23000, Note_on_c, 4, 57, 52
10, 23035, Note_on_c, 4, 45, 0
10, 23035, Note_on_c, 4, 57, 0
10, 23040, Note_on_c, 4, 57, 76
10, 23040, Note_on_c, 4, 45, 76
10, 23159, Note_on_c, 4, 57, 0
10, 23159, Note_on_c, 4, 45, 0
10, 23520, Note_on_c, 4, 45, 52
10, 23520, Note_on_c, 4, 57, 52
10, 23555, Note_on_c, 4, 45, 0
10, 23555, Note_on_c, 4, 57, 0
10, 23560, Note_on_c, 4, 57, 52
10, 23560, Note_on_c, 4, 45, 52
10, 23595, Note_on_c, 4, 57, 0
10, 23595, Note_on_c, 4, 45, 0
10, 23600, Note_on_c, 4, 45, 52
10, 23600, Note_on_c, 4, 57, 52
10, 23635, Note_on_c, 4, 45, 0
10, 23635, Note_on_c, 4, 57, 0
10, 23640, Note_on_c, 4, 45, 52
10, 23640, Note_on_c, 4, 57, 52
10, 23675, Note_on_c, 4, 45, 0
10, 23675, Note_on_c, 4, 57, 0
10, 23680, Note_on_c, 4, 57, 52
10, 23680, Note_on_c, 4, 45, 52
10, 23715, Note_on_c, 4, 57, 0
10, 23715, Note_on_c, 4, 45, 0
10, 23720, Note_on_c, 4, 57, 52
10, 23720, Note_on_c, 4, 45, 52
10, 23751, Note_on_c, 4, 57, 0
10, 23755, Note_on_c, 4, 45, 0
10, 23756, Control_c, 4, 11, 80
10, 23760, Note_on_c, 4, 64, 76
10, 23760, Note_on_c, 4, 57, 76
10, 23820, Control_c, 4, 11, 84
10, 23880, Control_c, 4, 11, 88
10, 23940, Control_c, 4, 11, 92
10, 24000, Control_c, 4, 11, 96
10, 24060, Control_c, 4, 11, 100
10, 24120, Control_c, 4, 11, 104
10, 24180, Control_c, 4, 11, 107
10, 24240, Control_c, 4, 11, 111
10, 24300, Control_c, 4, 11, 115
10, 24360, Control_c, 4, 11, 119
10, 24420, Control_c, 4, 11, 123
10, 24471, Note_on_c, 4, 64, 0
10, 24471, Note_on_c, 4, 57, 0
10, 24480, Note_on_c, 4, 54, 76
10, 24480, Control_c, 4, 11, 127
10, 24480, Note_on_c, 4, 62, 76
10, 24719, Note_on_c, 4, 54, 0
10, 24719, Note_on_c, 4, 62, 0
10, 27120, Control_c, 4, 11, 96
10, 27360, Note_on_c, 4, 50, 68
10, 27360, Control_c, 4, 11, 96
10, 27360, Note_on_c, 4, 62, 68
10, 27440, Control_c, 4, 11, 99
10, 27520, Control_c, 4, 11, 101
10, 27600, Control_c, 4, 11, 104
10, 27680, Control_c, 4, 11, 106
10, 27760, Control_c, 4, 11, 109
10, 27840, Control_c, 4, 11, 112
10, 27920, Control_c, 4, 11, 114
10, 28000, Control_c, 4, 11, 117
10, 28080, Control_c, 4, 11, 119
10, 28160, Control_c, 4, 11, 122
10, 28240, Control_c, 4, 11, 124
10, 28320, Control_c, 4, 11, 96
10, 28559, Note_on_c, 4, 50, 0
10, 28559, Note_on_c, 4, 62, 0
10, 30960, Control_c, 4, 11, 127
10, 31200, Note_on_c, 4, 50, 52
10, 31200, Note_on_c, 4, 62, 52
10, 34319, Note_on_c, 4, 50, 0
10, 34319, Note_on_c, 4, 62, 0
10, 36960, Note_on_c, 4, 50, 76
10, 36960, Note_on_c, 4, 62, 76
10, 37904, Note_on_c, 4, 50, 0
10, 37904, Note_on_c, 4, 62, 0
10, 37920, Note_on_c, 4, 62, 84
10, 37920, Note_on_c, 4, 50, 84
10, 38864, Note_on_c, 4, 62, 0
10, 38864, Note_on_c, 4, 50, 0
10, 38880, Note_on_c, 4, 50, 76
10, 38880, Note_on_c, 4, 62, 76
10, 39119, Note_on_c, 4, 50, 0
10, 39119, Note_on_c, 4, 62, 0
10, 39360, Note_on_c, 4, 50, 84
10, 39360, Note_on_c, 4, 62, 84
10, 40064, Note_on_c, 4, 50, 0
10, 40064, Note_on_c, 4, 62, 0
10, 40080, Note_on_c, 4, 62, 76
10, 40080, Note_on_c, 4, 50, 76
10, 40304, Note_on_c, 4, 62, 0
10, 40304, Note_on_c, 4, 50, 0
10, 40320, Note_on_c, 4, 62, 76
10, 40320, Note_on_c, 4, 50, 76
10, 40544, Note_on_c, 4, 62, 0
10, 40544, Note_on_c, 4, 50, 0
10, 40560, Note_on_c, 4, 62, 76
10, 40560, Note_on_c, 4, 50, 76
10, 40784, Note_on_c, 4, 62, 0
10, 40784, Note_on_c, 4, 50, 0
10, 40800, Note_on_c, 4, 62, 76
10, 40800, Note_on_c, 4, 50, 76
10, 41039, Note_on_c, 4, 62, 0
10, 41039, Note_on_c, 4, 50, 0
10, 41760, Note_on_c, 4, 57, 84
10, 41760, Note_on_c, 4, 64, 84
10, 42704, Note_on_c, 4, 57, 0
10, 42704, Note_on_c, 4, 64, 0
10, 42720, Note_on_c, 4, 62, 76
10, 42720, Note_on_c, 4, 54, 76
10, 42959, Note_on_c, 4, 62, 0
10, 42959, Note_on_c, 4, 54, 0
10, 43200, Note_on_c, 4, 50, 84
10, 43200, Note_on_c, 4, 62, 84
10, 43904, Note_on_c, 4, 50, 0
10, 43904, Note_on_c, 4, 62, 0
10, 43920, Note_on_c, 4, 62, 76
10, 43920, Note_on_c, 4, 50, 76
10, 44144, Note_on_c, 4, 62, 0
10, 44144, Note_on_c, 4, 50, 0
10, 44160, Note_on_c, 4, 62, 76
10, 44160, Note_on_c, 4, 50, 76
10, 44384, Note_on_c, 4, 62, 0
10, 44384, Note_on_c, 4, 50, 0
10, 44400, Note_on_c, 4, 50, 76
10, 44400, Note_on_c, 4, 62, 76
10, 44624, Note_on_c, 4, 50, 0
10, 44624, Note_on_c, 4, 62, 0
10, 44640, Note_on_c, 4, 62, 76
10, 44640, Note_on_c, 4, 50, 76
10, 44879, Note_on_c, 4, 62, 0
10, 44879, Note_on_c, 4, 50, 0
10, 45600, Note_on_c, 4, 64, 84
10, 45600, Note_on_c, 4, 57, 84
10, 46544, Note_on_c, 4, 64, 0
10, 46544, Note_on_c, 4, 57, 0
10, 46560, Note_on_c, 4, 62, 76
10, 46560, Note_on_c, 4, 50, 76
10, 46799, Note_on_c, 4, 62, 0
10, 46799, Note_on_c, 4, 50, 0
10, 47460, Note_on_c, 4, 50, 76
10, 47460, Note_on_c, 4, 62, 76
10, 47511, Note_on_c, 4, 50, 0
10, 47511, Note_on_c, 4, 62, 0
10, 47520, Note_on_c, 4, 50, 84
10, 47520, Note_on_c, 4, 62, 84
10, 48719, Note_on_c, 4, 50, 0
10, 48719, Note_on_c, 4, 62, 0
10, 49380, Note_on_c, 4, 62, 76
10, 49380, Note_on_c, 4, 50, 76
10, 49431, Note_on_c, 4, 62, 0
10, 49431, Note_on_c, 4, 50, 0
10, 49440, Note_on_c, 4, 62, 84
10, 49440, Note_on_c, 4, 50, 84
10, 50639, Note_on_c, 4, 62, 0
10, 50639, Note_on_c, 4, 50, 0
10, 54240, Note_on_c, 4, 64, 84
10, 54464, Note_on_c, 4, 64, 0
10, 54480, Note_on_c, 4, 64, 92
10, 56144, Note_on_c, 4, 64, 0
10, 56160, Note_on_c, 4, 64, 92
10, 57344, Note_on_c, 4, 64, 0
10, 57360, Note_on_c, 4, 57, 84
10, 57360, Note_on_c, 4, 69, 84
10, 57824, Note_on_c, 4, 57, 0
10, 57824, Note_on_c, 4, 69, 0
10, 57840, Note_on_c, 4, 57, 84
10, 57840, Note_on_c, 4, 69, 84
10, 58064, Note_on_c, 4, 57, 0
10, 58064, Note_on_c, 4, 69, 0
10, 58080, Note_on_c, 4, 64, 92
10, 58424, Note_on_c, 4, 64, 0
10, 58440, Note_on_c, 4, 69, 84
10, 58440, Note_on_c, 4, 57, 84
10, 58544, Note_on_c, 4, 69, 0
10, 58544, Note_on_c, 4, 57, 0
10, 58560, Note_on_c, 4, 64, 92
10, 58904, Note_on_c, 4, 64, 0
10, 58920, Note_on_c, 4, 57, 84
10, 58920, Note_on_c, 4, 69, 84
10, 59024, Note_on_c, 4, 57, 0
10, 59024, Note_on_c, 4, 69, 0
10, 59040, Note_on_c, 4, 64, 84
10, 59144, Note_on_c, 4, 64, 0
10, 59160, Note_on_c, 4, 69, 84
10, 59160, Note_on_c, 4, 57, 84
10, 59264, Note_on_c, 4, 69, 0
10, 59264, Note_on_c, 4, 57, 0
10, 59280, Note_on_c, 4, 64, 84
10, 59384, Note_on_c, 4, 64, 0
10, 59400, Note_on_c, 4, 69, 84
10, 59400, Note_on_c, 4, 57, 84
10, 59504, Note_on_c, 4, 69, 0
10, 59504, Note_on_c, 4, 57, 0
10, 59520, Note_on_c, 4, 64, 84
10, 59624, Note_on_c, 4, 64, 0
10, 59640, Note_on_c, 4, 57, 84
10, 59640, Note_on_c, 4, 69, 84
10, 59744, Note_on_c, 4, 57, 0
10, 59744, Note_on_c, 4, 69, 0
10, 59760, Note_on_c, 4, 64, 84
10, 59864, Note_on_c, 4, 64, 0
10, 59880, Note_on_c, 4, 57, 84
10, 59880, Note_on_c, 4, 69, 84
10, 59984, Note_on_c, 4, 57, 0
10, 59984, Note_on_c, 4, 69, 0
10, 60000, Note_on_c, 4, 64, 92
10, 60704, Note_on_c, 4, 64, 0
10, 60720, Note_on_c, 4, 64, 84
10, 60944, Note_on_c, 4, 64, 0
10, 60960, Note_on_c, 4, 64, 84
10, 61184, Note_on_c, 4, 64, 0
10, 61200, Note_on_c, 4, 64, 84
10, 61424, Note_on_c, 4, 64, 0
10, 61440, Note_on_c, 4, 64, 84
10, 61664, Note_on_c, 4, 64, 0
10, 61680, Note_on_c, 4, 64, 84
10, 61904, Note_on_c, 4, 64, 0
10, 61920, Note_on_c, 4, 45, 52
10, 61920, Note_on_c, 4, 57, 52
10, 62384, Note_on_c, 4, 45, 0
10, 62384, Note_on_c, 4, 57, 0
10, 62400, Note_on_c, 4, 57, 52
10, 62400, Note_on_c, 4, 45, 52
10, 62811, Note_on_c, 4, 57, 0
10, 62811, Note_on_c, 4, 45, 0
10, 62820, Note_on_c, 4, 57, 52
10, 62820, Note_on_c, 4, 45, 52
10, 62871, Note_on_c, 4, 57, 0
10, 62871, Note_on_c, 4, 45, 0
10, 62880, Note_on_c, 4, 57, 52
10, 62880, Note_on_c, 4, 45, 52
10, 63584, Note_on_c, 4, 57, 0
10, 63584, Note_on_c, 4, 45, 0
10, 63600, Note_on_c, 4, 57, 52
10, 63600, Note_on_c, 4, 45, 52
10, 63771, Note_on_c, 4, 57, 0
10, 63771, Note_on_c, 4, 45, 0
10, 63780, Note_on_c, 4, 45, 52
10, 63780, Note_on_c, 4, 57, 52
10, 63831, Note_on_c, 4, 45, 0
10, 63831, Note_on_c, 4, 57, 0
10, 63840, Note_on_c, 4, 57, 52
10, 63840, Note_on_c, 4, 45, 52
10, 64064, Note_on_c, 4, 57, 0
10, 64064, Note_on_c, 4, 45, 0
10, 64080, Note_on_c, 4, 57, 52
10, 64080, Note_on_c, 4, 45, 52
10, 64304, Note_on_c, 4, 57, 0
10, 64304, Note_on_c, 4, 45, 0
10, 64320, Note_on_c, 4, 45, 52
10, 64320, Note_on_c, 4, 57, 52
10, 64544, Note_on_c, 4, 45, 0
10, 64544, Note_on_c, 4, 57, 0
10, 64560, Note_on_c, 4, 45, 52
10, 64560, Note_on_c, 4, 57, 52
10, 64784, Note_on_c, 4, 45, 0
10, 64784, Note_on_c, 4, 57, 0
10, 64800, Note_on_c, 4, 45, 52
10, 64800, Note_on_c, 4, 57, 52
10, 65519, Note_on_c, 4, 45, 0
10, 65519, Note_on_c, 4, 57, 0
10, 69600, Note_on_c, 4, 45, 52
10, 69600, Note_on_c, 4, 57, 52
10, 70064, Note_on_c, 4, 45, 0
10, 70064, Note_on_c, 4, 57, 0
10, 70080, Note_on_c, 4, 45, 52
10, 70080, Note_on_c, 4, 57, 52
10, 70491, Note_on_c, 4, 45, 0
10, 70491, Note_on_c, 4, 57, 0
10, 70500, Note_on_c, 4, 45, 52
10, 70500, Note_on_c, 4, 57, 52
10, 70551, Note_on_c, 4, 45, 0
10, 70551, Note_on_c, 4, 57, 0
10, 70560, Note_on_c, 4, 57, 52
10, 70560, Note_on_c, 4, 45, 52
10, 71264, Note_on_c, 4, 57, 0
10, 71264, Note_on_c, 4, 45, 0
10, 71280, Note_on_c, 4, 45, 52
10, 71280, Note_on_c, 4, 57, 52
10, 71451, Note_on_c, 4, 45, 0
10, 71451, Note_on_c, 4, 57, 0
10, 71460, Note_on_c, 4, 57, 52
10, 71460, Note_on_c, 4, 45, 52
10, 71511, Note_on_c, 4, 57, 0
10, 71511, Note_on_c, 4, 45, 0
10, 71520, Note_on_c, 4, 57, 52
10, 71520, Note_on_c, 4, 45, 52
10, 71744, Note_on_c, 4, 57, 0
10, 71744, Note_on_c, 4, 45, 0
10, 71760, Note_on_c, 4, 45, 52
10, 71760, Note_on_c, 4, 57, 52
10, 71984, Note_on_c, 4, 45, 0
10, 71984, Note_on_c, 4, 57, 0
10, 72000, Note_on_c, 4, 45, 52
10, 72000, Note_on_c, 4, 57, 52
10, 72224, Note_on_c, 4, 45, 0
10, 72224, Note_on_c, 4, 57, 0
10, 72240, Note_on_c, 4, 57, 52
10, 72240, Note_on_c, 4, 45, 52
10, 72464, Note_on_c, 4, 57, 0
10, 72464, Note_on_c, 4, 45, 0
10, 72480, Note_on_c, 4, 45, 52
10, 72480, Note_on_c, 4, 57, 52
10, 73079, Note_on_c, 4, 45, 0
10, 73079, Note_on_c, 4, 57, 0
10, 76320, Note_on_c, 4, 64, 92
10, 77264, Note_on_c, 4, 64, 0
10, 77280, Note_on_c, 4, 64, 92
10, 78224, Note_on_c, 4, 64, 0
10, 78240, Note_on_c, 4, 64, 92
10, 79184, Note_on_c, 4, 64, 0
10, 79200, Note_on_c, 4, 64, 92
10, 80144, Note_on_c, 4, 64, 0
10, 80160, Note_on_c, 4, 64, 92
10, 82079, Note_on_c, 4, 64, 0
10, 83040, Note_on_c, 4, 69, 92
10, 83040, Note_on_c, 4, 57, 92
10, 84239, Note_on_c, 4, 69, 0
10, 84239, Note_on_c, 4, 57, 0
10, 84420, Note_on_c, 4, 62, 84
10, 84420, Note_on_c, 4, 66, 84
10, 84471, Note_on_c, 4, 62, 0
10, 84471, Note_on_c, 4, 66, 0
10, 84480, Note_on_c, 4, 62, 84
10, 84480, Note_on_c, 4, 66, 84
10, 84959, Note_on_c, 4, 62, 0
10, 84959, Note_on_c, 4, 66, 0
10, 85380, Note_on_c, 4, 62, 84
10, 85380, Note_on_c, 4, 66, 84
10, 85431, Note_on_c, 4, 62, 0
10, 85431, Note_on_c, 4, 66, 0
10, 85440, Note_on_c, 4, 62, 84
10, 85440, Note_on_c, 4, 66, 84
10, 85919, Note_on_c, 4, 62, 0
10, 85919, Note_on_c, 4, 66, 0
10, 86160, Note_on_c, 4, 64, 84
10, 86399, Note_on_c, 4, 64, 0
10, 86640, Note_on_c, 4, 64, 84
10, 86879, Note_on_c, 4, 64, 0
10, 87120, Note_on_c, 4, 62, 84
10, 87359, Note_on_c, 4, 62, 0
10, 87600, Note_on_c, 4, 64, 84
10, 87839, Note_on_c, 4, 64, 0
10, 88260, Note_on_c, 4, 50, 84
10, 88260, Note_on_c, 4, 62, 84
10, 88311, Note_on_c, 4, 50, 0
10, 88311, Note_on_c, 4, 62, 0
10, 88320, Note_on_c, 4, 62, 84
10, 88320, Note_on_c, 4, 50, 84
10, 88799, Note_on_c, 4, 62, 0
10, 88799, Note_on_c, 4, 50, 0
10, 89220, Note_on_c, 4, 50, 84
10, 89220, Note_on_c, 4, 62, 84
10, 89271, Note_on_c, 4, 50, 0
10, 89271, Note_on_c, 4, 62, 0
10, 89280, Note_on_c, 4, 50, 84
10, 89280, Note_on_c, 4, 62, 84
10, 89759, Note_on_c, 4, 50, 0
10, 89759, Note_on_c, 4, 62, 0
10, 97440, Note_on_c, 4, 64, 84
10, 98384, Note_on_c, 4, 64, 0
10, 98400, Note_on_c, 4, 64, 84
10, 99104, Note_on_c, 4, 64, 0
10, 99120, Note_on_c, 4, 64, 84
10, 99344, Note_on_c, 4, 64, 0
10, 99360, Note_on_c, 4, 69, 76
10, 99360, Note_on_c, 4, 57, 76
10, 99420, Control_c, 4, 11, 80
10, 101249, Note_on_c, 4, 69, 0
10, 101249, Note_on_c, 4, 57, 0
10, 101265, Control_c, 4, 11, 127
10, 101280, Note_on_c, 4, 62, 84
10, 101984, Note_on_c, 4, 62, 0
10, 102000, Note_on_c, 4, 62, 84
10, 102179, Note_on_c, 4, 62, 0
10, 102240, Note_on_c, 4, 57, 84
10, 102240, Note_on_c, 4, 69, 84
10, 102419, Note_on_c, 4, 57, 0
10, 102419, Note_on_c, 4, 69, 0
10, 102480, Note_on_c, 4, 57, 84
10, 102480, Note_on_c, 4, 69, 84
10, 102659, Note_on_c, 4, 57, 0
10, 102659, Note_on_c, 4, 69, 0
10, 102720, Note_on_c, 4, 69, 84
10, 102720, Note_on_c, 4, 57, 84
10, 102899, Note_on_c, 4, 69, 0
10, 102899, Note_on_c, 4, 57, 0
10, 102960, Note_on_c, 4, 57, 84
10, 102960, Note_on_c, 4, 69, 84
10, 103139, Note_on_c, 4, 57, 0
10, 103139, Note_on_c, 4, 69, 0
10, 103200, Note_on_c, 4, 57, 76
10, 103200, Note_on_c, 4, 69, 76
10, 103260, Control_c, 4, 11, 80
10, 105089, Note_on_c, 4, 57, 0
10, 105089, Note_on_c, 4, 69, 0
10, 105105, Control_c, 4, 11, 127
10, 105120, Note_on_c, 4, 62, 84
10, 105824, Note_on_c, 4, 62, 0
10, 105840, Note_on_c, 4, 62, 84
10, 106019, Note_on_c, 4, 62, 0
10, 106080, Note_on_c, 4, 57, 84
10, 106080, Note_on_c, 4, 69, 84
10, 106259, Note_on_c, 4, 57, 0
10, 106259, Note_on_c, 4, 69, 0
10, 106320, Note_on_c, 4, 69, 84
10, 106320, Note_on_c, 4, 57, 84
10, 106499, Note_on_c, 4, 69, 0
10, 106499, Note_on_c, 4, 57, 0
10, 106560, Note_on_c, 4, 69, 84
10, 106560, Note_on_c, 4, 57, 84
10, 106739, Note_on_c, 4, 69, 0
10, 106739, Note_on_c, 4, 57, 0
10, 106800, Note_on_c, 4, 69, 84
10, 106800, Note_on_c, 4, 57, 84
10, 106979, Note_on_c, 4, 69, 0
10, 106979, Note_on_c, 4, 57, 0
10, 107040, Note_on_c, 4, 57, 52
10, 107040, Note_on_c, 4, 69, 52
10, 107744, Note_on_c, 4, 57, 0
10, 107744, Note_on_c, 4, 69, 0
10, 107760, Note_on_c, 4, 57, 76
10, 107760, Note_on_c, 4, 69, 76
10, 107984, Note_on_c, 4, 57, 0
10, 107984, Note_on_c, 4, 69, 0
10, 108000, Note_on_c, 4, 57, 52
10, 108000, Note_on_c, 4, 69, 52
10, 108704, Note_on_c, 4, 57, 0
10, 108704, Note_on_c, 4, 69, 0
10, 108720, Note_on_c, 4, 50, 76
10, 108720, Note_on_c, 4, 62, 76
10, 108944, Note_on_c, 4, 50, 0
10, 108944, Note_on_c, 4, 62, 0
10, 108960, Note_on_c, 4, 69, 52
10, 108960, Note_on_c, 4, 57, 52
10, 109664, Note_on_c, 4, 69, 0
10, 109664, Note_on_c, 4, 57, 0
10, 109680, Note_on_c, 4, 69, 76
10, 109680, Note_on_c, 4, 57, 76
10, 109904, Note_on_c, 4, 69, 0
10, 109904, Note_on_c, 4, 57, 0
10, 109920, Note_on_c, 4, 57, 52
10, 109920, Note_on_c, 4, 69, 52
10, 110624, Note_on_c, 4, 57, 0
10, 110624, Note_on_c, 4, 69, 0
10, 110640, Note_on_c, 4, 62, 76
10, 110864, Note_on_c, 4, 62, 0
10, 110880, Note_on_c, 4, 57, 52
10, 110880, Note_on_c, 4, 69, 52
10, 111104, Note_on_c, 4, 57, 0
10, 111104, Note_on_c, 4, 69, 0
10, 111120, Note_on_c, 4, 62, 76
10, 111344, Note_on_c, 4, 62, 0
10, 111360, Note_on_c, 4, 69, 52
10, 111360, Note_on_c, 4, 57, 52
10, 111584, Note_on_c, 4, 69, 0
10, 111584, Note_on_c, 4, 57, 0
10, 111600, Note_on_c, 4, 62, 76
10, 111824, Note_on_c, 4, 62, 0
10, 111840, Note_on_c, 4, 69, 52
10, 111840, Note_on_c, 4, 57, 52
10, 112064, Note_on_c, 4, 69, 0
10, 112064, Note_on_c, 4, 57, 0
10, 112080, Note_on_c, 4, 62, 76
10, 112304, Note_on_c, 4, 62, 0
10, 112320, Note_on_c, 4, 57, 52
10, 112320, Note_on_c, 4, 69, 52
10, 112544, Note_on_c, 4, 57, 0
10, 112544, Note_on_c, 4, 69, 0
10, 112560, Note_on_c, 4, 62, 76
10, 112784, Note_on_c, 4, 62, 0
10, 112800, Note_on_c, 4, 69, 52
10, 112800, Note_on_c, 4, 57, 52
10, 113039, Note_on_c, 4, 69, 0
10, 113039, Note_on_c, 4, 57, 0
10, 114720, Note_on_c, 4, 69, 84
10, 114720, Note_on_c, 4, 57, 84
10, 115664, Note_on_c, 4, 69, 0
10, 115664, Note_on_c, 4, 57, 0
10, 115680, Note_on_c, 4, 64, 84
10, 115680, Note_on_c, 4, 57, 84
10, 116144, Note_on_c, 4, 64, 0
10, 116144, Note_on_c, 4, 57, 0
10, 116160, Note_on_c, 4, 57, 84
10, 116160, Note_on_c, 4, 64, 84
10, 116624, Note_on_c, 4, 57, 0
10, 116624, Note_on_c, 4, 64, 0
10, 116640, Note_on_c, 4, 57, 84
10, 116640, Note_on_c, 4, 64, 84
10, 116879, Note_on_c, 4, 57, 0
10, 116879, Note_on_c, 4, 64, 0
10, 117120, Note_on_c, 4, 57, 76
10, 117120, Note_on_c, 4, 45, 76
10, 117359, Note_on_c, 4, 57, 0
10, 117359, Note_on_c, 4, 45, 0
10, 118080, Note_on_c, 4, 57, 76
10, 118080, Note_on_c, 4, 45, 76
10, 118319, Note_on_c, 4, 57, 0
10, 118319, Note_on_c, 4, 45, 0
10, 120240, Note_on_c, 4, 57, 52
10, 120240, Note_on_c, 4, 64, 52
10, 120479, Note_on_c, 4, 57, 0
10, 120479, Note_on_c, 4, 64, 0
10, 120480, Note_on_c, 4, 54, 52
10, 120480, Note_on_c, 4, 62, 52
10, 120719, Note_on_c, 4, 54, 0
10, 120719, Note_on_c, 4, 62, 0
10, 123120, Control_c, 4, 11, 96
10, 123360, Control_c, 4, 11, 96
10, 123360, Note_on_c, 4, 62, 68
10, 123360, Note_on_c, 4, 50, 68
10, 123440, Control_c, 4, 11, 99
10, 123520, Control_c, 4, 11, 101
10, 123600, Control_c, 4, 11, 104
10, 123680, Control_c, 4, 11, 106
10, 123760, Control_c, 4, 11, 109
10, 123840, Control_c, 4, 11, 112
10, 123920, Control_c, 4, 11, 114
10, 124000, Control_c, 4, 11, 117
10, 124080, Control_c, 4, 11, 119
10, 124160, Control_c, 4, 11, 122
10, 124240, Control_c, 4, 11, 124
10, 124320, Control_c, 4, 11, 96
10, 124559, Note_on_c, 4, 62, 0
10, 124559, Note_on_c, 4, 50, 0
10, 126960, Control_c, 4, 11, 127
10, 127200, Note_on_c, 4, 50, 52
10, 127200, Note_on_c, 4, 62, 52
10, 130319, Note_on_c, 4, 50, 0
10, 130319, Note_on_c, 4, 62, 0
10, 132960, Note_on_c, 4, 50, 76
10, 132960, Note_on_c, 4, 62, 76
10, 133904, Note_on_c, 4, 50, 0
10, 133904, Note_on_c, 4, 62, 0
10, 133920, Note_on_c, 4, 62, 84
10, 133920, Note_on_c, 4, 50, 84
10, 134864, Note_on_c, 4, 62, 0
10, 134864, Note_on_c, 4, 50, 0
10, 134880, Note_on_c, 4, 62, 76
10, 134880, Note_on_c, 4, 50, 76
10, 135119, Note_on_c, 4, 62, 0
10, 135119, Note_on_c, 4, 50, 0
10, 135360, Note_on_c, 4, 62, 84
10, 135360, Note_on_c, 4, 50, 84
10, 136064, Note_on_c, 4, 62, 0
10, 136064, Note_on_c, 4, 50, 0
10, 136080, Note_on_c, 4, 62, 76
10, 136080, Note_on_c, 4, 50, 76
10, 136304, Note_on_c, 4, 62, 0
10, 136304, Note_on_c, 4, 50, 0
10, 136320, Note_on_c, 4, 50, 76
10, 136320, Note_on_c, 4, 62, 76
10, 136544, Note_on_c, 4, 50, 0
10, 136544, Note_on_c, 4, 62, 0
10, 136560, Note_on_c, 4, 50, 76
10, 136560, Note_on_c, 4, 62, 76
10, 136784, Note_on_c, 4, 50, 0
10, 136784, Note_on_c, 4, 62, 0
10, 136800, Note_on_c, 4, 50, 76
10, 136800, Note_on_c, 4, 62, 76
10, 137039, Note_on_c, 4, 50, 0
10, 137039, Note_on_c, 4, 62, 0
10, 137760, Note_on_c, 4, 57, 84
10, 137760, Note_on_c, 4, 64, 84
10, 138704, Note_on_c, 4, 57, 0
10, 138704, Note_on_c, 4, 64, 0
10, 138720, Note_on_c, 4, 62, 76
10, 138720, Note_on_c, 4, 54, 76
10, 138959, Note_on_c, 4, 62, 0
10, 138959, Note_on_c, 4, 54, 0
10, 139200, Note_on_c, 4, 50, 84
10, 139200, Note_on_c, 4, 62, 84
10, 139904, Note_on_c, 4, 50, 0
10, 139904, Note_on_c, 4, 62, 0
10, 139920, Note_on_c, 4, 62, 76
10, 139920, Note_on_c, 4, 50, 76
10, 140144, Note_on_c, 4, 62, 0
10, 140144, Note_on_c, 4, 50, 0
10, 140160, Note_on_c, 4, 62, 76
10, 140160, Note_on_c, 4, 50, 76
10, 140384, Note_on_c, 4, 62, 0
10, 140384, Note_on_c, 4, 50, 0
10, 140400, Note_on_c, 4, 50, 76
10, 140400, Note_on_c, 4, 62, 76
10, 140624, Note_on_c, 4, 50, 0
10, 140624, Note_on_c, 4, 62, 0
10, 140640, Note_on_c, 4, 62, 76
10, 140640, Note_on_c, 4, 50, 76
10, 140879, Note_on_c, 4, 62, 0
10, 140879, Note_on_c, 4, 50, 0
10, 141600, Note_on_c, 4, 57, 84
10, 141600, Note_on_c, 4, 64, 84
10, 142544, Note_on_c, 4, 57, 0
10, 142544, Note_on_c, 4, 64, 0
10, 142560, Note_on_c, 4, 62, 76
10, 142560, Note_on_c, 4, 50, 76
10, 142799, Note_on_c, 4, 62, 0
10, 142799, Note_on_c, 4, 50, 0
10, 143460, Note_on_c, 4, 50, 76
10, 143460, Note_on_c, 4, 62, 76
10, 143511, Note_on_c, 4, 50, 0
10, 143511, Note_on_c, 4, 62, 0
10, 143520, Note_on_c, 4, 50, 84
10, 143520, Note_on_c, 4, 62, 84
10, 144719, Note_on_c, 4, 50, 0
10, 144719, Note_on_c, 4, 62, 0
10, 145380, Note_on_c, 4, 62, 76
10, 145380, Note_on_c, 4, 50, 76
10, 145431, Note_on_c, 4, 62, 0
10, 145431, Note_on_c, 4, 50, 0
10, 145440, Note_on_c, 4, 62, 84
10, 145440, Note_on_c, 4, 50, 84
10, 146639, Note_on_c, 4, 62, 0
10, 146639, Note_on_c, 4, 50, 0
10, 150240, Note_on_c, 4, 64, 84
10, 150464, Note_on_c, 4, 64, 0
10, 150480, Note_on_c, 4, 64, 92
10, 152144, Note_on_c, 4, 64, 0
10, 152160, Note_on_c, 4, 64, 92
10, 153344, Note_on_c, 4, 64, 0
10, 153360, Note_on_c, 4, 69, 84
10, 153360, Note_on_c, 4, 57, 84
10, 153824, Note_on_c, 4, 69, 0
10, 153824, Note_on_c, 4, 57, 0
10, 153840, Note_on_c, 4, 57, 84
10, 153840, Note_on_c, 4, 69, 84
10, 154064, Note_on_c, 4, 57, 0
10, 154064, Note_on_c, 4, 69, 0
10, 154080, Note_on_c, 4, 64, 92
10, 154424, Note_on_c, 4, 64, 0
10, 154440, Note_on_c, 4, 69, 84
10, 154440, Note_on_c, 4, 57, 84
10, 154544, Note_on_c, 4, 69, 0
10, 154544, Note_on_c, 4, 57, 0
10, 154560, Note_on_c, 4, 64, 92
10, 154904, Note_on_c, 4, 64, 0
10, 154920, Note_on_c, 4, 69, 84
10, 154920, Note_on_c, 4, 57, 84
10, 155024, Note_on_c, 4, 69, 0
10, 155024, Note_on_c, 4, 57, 0
10, 155040, Note_on_c, 4, 64, 84
10, 155144, Note_on_c, 4, 64, 0
10, 155160, Note_on_c, 4, 57, 84
10, 155160, Note_on_c, 4, 69, 84
10, 155264, Note_on_c, 4, 57, 0
10, 155264, Note_on_c, 4, 69, 0
10, 155280, Note_on_c, 4, 64, 84
10, 155384, Note_on_c, 4, 64, 0
10, 155400, Note_on_c, 4, 69, 84
10, 155400, Note_on_c, 4, 57, 84
10, 155504, Note_on_c, 4, 69, 0
10, 155504, Note_on_c, 4, 57, 0
10, 155520, Note_on_c, 4, 64, 84
10, 155624, Note_on_c, 4, 64, 0
10, 155640, Note_on_c, 4, 69, 84
10, 155640, Note_on_c, 4, 57, 84
10, 155744, Note_on_c, 4, 69, 0
10, 155744, Note_on_c, 4, 57, 0
10, 155760, Note_on_c, 4, 64, 84
10, 155864, Note_on_c, 4, 64, 0
10, 155880, Note_on_c, 4, 57, 84
10, 155880, Note_on_c, 4, 69, 84
10, 155984, Note_on_c, 4, 57, 0
10, 155984, Note_on_c, 4, 69, 0
10, 156000, Note_on_c, 4, 64, 92
10, 156704, Note_on_c, 4, 64, 0
10, 156720, Note_on_c, 4, 64, 84
10, 156944, Note_on_c, 4, 64, 0
10, 156960, Note_on_c, 4, 64, 84
10, 157184, Note_on_c, 4, 64, 0
10, 157200, Note_on_c, 4, 64, 84
10, 157424, Note_on_c, 4, 64, 0
10, 157440, Note_on_c, 4, 64, 84
10, 157664, Note_on_c, 4, 64, 0
10, 157680, Note_on_c, 4, 64, 84
10, 157904, Note_on_c, 4, 64, 0
10, 157920, Note_on_c, 4, 57, 52
10, 157920, Note_on_c, 4, 45, 52
10, 158384, Note_on_c, 4, 57, 0
10, 158384, Note_on_c, 4, 45, 0
10, 158400, Note_on_c, 4, 57, 52
10, 158400, Note_on_c, 4, 45, 52
10, 158811, Note_on_c, 4, 57, 0
10, 158811, Note_on_c, 4, 45, 0
10, 158820, Note_on_c, 4, 45, 52
10, 158820, Note_on_c, 4, 57, 52
10, 158871, Note_on_c, 4, 45, 0
10, 158871, Note_on_c, 4, 57, 0
10, 158880, Note_on_c, 4, 45, 52
10, 158880, Note_on_c, 4, 57, 52
10, 159584, Note_on_c, 4, 45, 0
10, 159584, Note_on_c, 4, 57, 0
10, 159600, Note_on_c, 4, 45, 52
10, 159600, Note_on_c, 4, 57, 52
10, 159771, Note_on_c, 4, 45, 0
10, 159771, Note_on_c, 4, 57, 0
10, 159780, Note_on_c, 4, 45, 52
10, 159780, Note_on_c, 4, 57, 52
10, 159831, Note_on_c, 4, 45, 0
10, 159831, Note_on_c, 4, 57, 0
10, 159840, Note_on_c, 4, 45, 52
10, 159840, Note_on_c, 4, 57, 52
10, 160064, Note_on_c, 4, 45, 0
10, 160064, Note_on_c, 4, 57, 0
10, 160080, Note_on_c, 4, 45, 52
10, 160080, Note_on_c, 4, 57, 52
10, 160304, Note_on_c, 4, 45, 0
10, 160304, Note_on_c, 4, 57, 0
10, 160320, Note_on_c, 4, 57, 52
10, 160320, Note_on_c, 4, 45, 52
10, 160544, Note_on_c, 4, 57, 0
10, 160544, Note_on_c, 4, 45, 0
10, 160560, Note_on_c, 4, 45, 52
10, 160560, Note_on_c, 4, 57, 52
10, 160784, Note_on_c, 4, 45, 0
10, 160784, Note_on_c, 4, 57, 0
10, 160800, Note_on_c, 4, 57, 52
10, 160800, Note_on_c, 4, 45, 52
10, 161519, Note_on_c, 4, 57, 0
10, 161519, Note_on_c, 4, 45, 0
10, 165600, Note_on_c, 4, 45, 52
10, 165600, Note_on_c, 4, 57, 52
10, 166064, Note_on_c, 4, 45, 0
10, 166064, Note_on_c, 4, 57, 0
10, 166080, Note_on_c, 4, 57, 52
10, 166080, Note_on_c, 4, 45, 52
10, 166491, Note_on_c, 4, 57, 0
10, 166491, Note_on_c, 4, 45, 0
10, 166500, Note_on_c, 4, 45, 52
10, 166500, Note_on_c, 4, 57, 52
10, 166551, Note_on_c, 4, 45, 0
10, 166551, Note_on_c, 4, 57, 0
10, 166560, Note_on_c, 4, 45, 52
10, 166560, Note_on_c, 4, 57, 52
10, 167264, Note_on_c, 4, 45, 0
10, 167264, Note_on_c, 4, 57, 0
10, 167280, Note_on_c, 4, 45, 52
10, 167280, Note_on_c, 4, 57, 52
10, 167451, Note_on_c, 4, 45, 0
10, 167451, Note_on_c, 4, 57, 0
10, 167460, Note_on_c, 4, 45, 52
10, 167460, Note_on_c, 4, 57, 52
10, 167511, Note_on_c, 4, 45, 0
10, 167511, Note_on_c, 4, 57, 0
10, 167520, Note_on_c, 4, 45, 52
10, 167520, Note_on_c, 4, 57, 52
10, 167744, Note_on_c, 4, 45, 0
10, 167744, Note_on_c, 4, 57, 0
10, 167760, Note_on_c, 4, 45, 52
10, 167760, Note_on_c, 4, 57, 52
10, 167984, Note_on_c, 4, 45, 0
10, 167984, Note_on_c, 4, 57, 0
10, 168000, Note_on_c, 4, 45, 52
10, 168000, Note_on_c, 4, 57, 52
10, 168224, Note_on_c, 4, 45, 0
10, 168224, Note_on_c, 4, 57, 0
10, 168240, Note_on_c, 4, 57, 52
10, 168240, Note_on_c, 4, 45, 52
10, 168464, Note_on_c, 4, 57, 0
10, 168464, Note_on_c, 4, 45, 0
10, 168480, Note_on_c, 4, 57, 52
10, 168480, Note_on_c, 4, 45, 52
10, 169079, Note_on_c, 4, 57, 0
10, 169079, Note_on_c, 4, 45, 0
10, 172320, Note_on_c, 4, 64, 92
10, 173264, Note_on_c, 4, 64, 0
10, 173280, Note_on_c, 4, 64, 92
10, 174224, Note_on_c, 4, 64, 0
10, 174240, Note_on_c, 4, 64, 92
10, 175184, Note_on_c, 4, 64, 0
10, 175200, Note_on_c, 4, 64, 92
10, 176144, Note_on_c, 4, 64, 0
10, 176160, Note_on_c, 4, 64, 92
10, 178079, Note_on_c, 4, 64, 0
10, 179040, Note_on_c, 4, 57, 92
10, 179040, Note_on_c, 4, 69, 92
10, 180239, Note_on_c, 4, 57, 0
10, 180239, Note_on_c, 4, 69, 0
10, 180420, Note_on_c, 4, 66, 84
10, 180420, Note_on_c, 4, 62, 84
10, 180471, Note_on_c, 4, 66, 0
10, 180471, Note_on_c, 4, 62, 0
10, 180480, Note_on_c, 4, 66, 84
10, 180480, Note_on_c, 4, 62, 84
10, 180959, Note_on_c, 4, 66, 0
10, 180959, Note_on_c, 4, 62, 0
10, 181380, Note_on_c, 4, 62, 84
10, 181380, Note_on_c, 4, 66, 84
10, 181431, Note_on_c, 4, 62, 0
10, 181431, Note_on_c, 4, 66, 0
10, 181440, Note_on_c, 4, 66, 84
10, 181440, Note_on_c, 4, 62, 84
10, 181919, Note_on_c, 4, 66, 0
10, 181919, Note_on_c, 4, 62, 0
10, 182160, Note_on_c, 4, 64, 84
10, 182399, Note_on_c, 4, 64, 0
10, 182640, Note_on_c, 4, 64, 84
10, 182879, Note_on_c, 4, 64, 0
10, 183120, Note_on_c, 4, 62, 84
10, 183359, Note_on_c, 4, 62, 0
10, 183600, Note_on_c, 4, 64, 84
10, 183839, Note_on_c, 4, 64, 0
10, 184260, Note_on_c, 4, 50, 84
10, 184260, Note_on_c, 4, 62, 84
10, 184311, Note_on_c, 4, 50, 0
10, 184311, Note_on_c, 4, 62, 0
10, 184320, Note_on_c, 4, 50, 84
10, 184320, Note_on_c, 4, 62, 84
10, 184799, Note_on_c, 4, 50, 0
10, 184799, Note_on_c, 4, 62, 0
10, 185220, Note_on_c, 4, 62, 84
10, 185220, Note_on_c, 4, 50, 84
10, 185271, Note_on_c, 4, 62, 0
10, 185271, Note_on_c, 4, 50, 0
10, 185280, Note_on_c, 4, 50, 84
10, 185280, Note_on_c, 4, 62, 84
10, 185759, Note_on_c, 4, 50, 0
10, 185759, Note_on_c, 4, 62, 0
10, 193440, Note_on_c, 4, 64, 84
10, 194384, Note_on_c, 4, 64, 0
10, 194400, Note_on_c, 4, 64, 84
10, 195104, Note_on_c, 4, 64, 0
10, 195120, Note_on_c, 4, 64, 84
10, 195344, Note_on_c, 4, 64, 0
10, 195360, Note_on_c, 4, 57, 76
10, 195360, Note_on_c, 4, 69, 76
10, 195420, Control_c, 4, 11, 80
10, 197249, Note_on_c, 4, 57, 0
10, 197249, Note_on_c, 4, 69, 0
10, 197265, Control_c, 4, 11, 127
10, 197280, Note_on_c, 4, 62, 84
10, 197984, Note_on_c, 4, 62, 0
10, 198000, Note_on_c, 4, 62, 84
10, 198179, Note_on_c, 4, 62, 0
10, 198240, Note_on_c, 4, 69, 84
10, 198240, Note_on_c, 4, 57, 84
10, 198419, Note_on_c, 4, 69, 0
10, 198419, Note_on_c, 4, 57, 0
10, 198480, Note_on_c, 4, 57, 84
10, 198480, Note_on_c, 4, 69, 84
10, 198659, Note_on_c, 4, 57, 0
10, 198659, Note_on_c, 4, 69, 0
10, 198720, Note_on_c, 4, 69, 84
10, 198720, Note_on_c, 4, 57, 84
10, 198899, Note_on_c, 4, 69, 0
10, 198899, Note_on_c, 4, 57, 0
10, 198960, Note_on_c, 4, 57, 84
10, 198960, Note_on_c, 4, 69, 84
10, 199139, Note_on_c, 4, 57, 0
10, 199139, Note_on_c, 4, 69, 0
10, 199200, Note_on_c, 4, 69, 76
10, 199200, Note_on_c, 4, 57, 76
10, 199260, Control_c, 4, 11, 80
10, 201089, Note_on_c, 4, 69, 0
10, 201089, Note_on_c, 4, 57, 0
10, 201105, Control_c, 4, 11, 127
10, 201120, Note_on_c, 4, 62, 84
10, 201824, Note_on_c, 4, 62, 0
10, 201840, Note_on_c, 4, 62, 84
10, 202019, Note_on_c, 4, 62, 0
10, 202080, Note_on_c, 4, 69, 84
10, 202080, Note_on_c, 4, 57, 84
10, 202259, Note_on_c, 4, 69, 0
10, 202259, Note_on_c, 4, 57, 0
10, 202320, Note_on_c, 4, 57, 84
10, 202320, Note_on_c, 4, 69, 84
10, 202499, Note_on_c, 4, 57, 0
10, 202499, Note_on_c, 4, 69, 0
10, 202560, Note_on_c, 4, 57, 84
10, 202560, Note_on_c, 4, 69, 84
10, 202739, Note_on_c, 4, 57, 0
10, 202739, Note_on_c, 4, 69, 0
10, 202800, Note_on_c, 4, 69, 84
10, 202800, Note_on_c, 4, 57, 84
10, 202979, Note_on_c, 4, 69, 0
10, 202979, Note_on_c, 4, 57, 0
10, 203040, Note_on_c, 4, 57, 52
10, 203040, Note_on_c, 4, 69, 52
10, 203744, Note_on_c, 4, 57, 0
10, 203744, Note_on_c, 4, 69, 0
10, 203760, Note_on_c, 4, 57, 76
10, 203760, Note_on_c, 4, 69, 76
10, 203984, Note_on_c, 4, 57, 0
10, 203984, Note_on_c, 4, 69, 0
10, 204000, Note_on_c, 4, 57, 52
10, 204000, Note_on_c, 4, 69, 52
10, 204704, Note_on_c, 4, 57, 0
10, 204704, Note_on_c, 4, 69, 0
10, 204720, Note_on_c, 4, 62, 76
10, 204720, Note_on_c, 4, 50, 76
10, 204944, Note_on_c, 4, 62, 0
10, 204944, Note_on_c, 4, 50, 0
10, 204960, Note_on_c, 4, 57, 52
10, 204960, Note_on_c, 4, 69, 52
10, 205664, Note_on_c, 4, 57, 0
10, 205664, Note_on_c, 4, 69, 0
10, 205680, Note_on_c, 4, 69, 76
10, 205680, Note_on_c, 4, 57, 76
10, 205904, Note_on_c, 4, 69, 0
10, 205904, Note_on_c, 4, 57, 0
10, 205920, Note_on_c, 4, 57, 52
10, 205920, Note_on_c, 4, 69, 52
10, 206624, Note_on_c, 4, 57, 0
10, 206624, Note_on_c, 4, 69, 0
10, 206640, Note_on_c, 4, 62, 76
10, 206864, Note_on_c, 4, 62, 0
10, 206880, Note_on_c, 4, 69, 52
10, 206880, Note_on_c, 4, 57, 52
10, 207104, Note_on_c, 4, 69, 0
10, 207104, Note_on_c, 4, 57, 0
10, 207120, Note_on_c, 4, 62, 76
10, 207344, Note_on_c, 4, 62, 0
10, 207360, Note_on_c, 4, 69, 52
10, 207360, Note_on_c, 4, 57, 52
10, 207584, Note_on_c, 4, 69, 0
10, 207584, Note_on_c, 4, 57, 0
10, 207600, Note_on_c, 4, 62, 76
10, 207824, Note_on_c, 4, 62, 0
10, 207840, Note_on_c, 4, 69, 52
10, 207840, Note_on_c, 4, 57, 52
10, 208064, Note_on_c, 4, 69, 0
10, 208064, Note_on_c, 4, 57, 0
10, 208080, Note_on_c, 4, 62, 76
10, 208304, Note_on_c, 4, 62, 0
10, 208320, Note_on_c, 4, 57, 52
10, 208320, Note_on_c, 4, 69, 52
10, 208544, Note_on_c, 4, 57, 0
10, 208544, Note_on_c, 4, 69, 0
10, 208560, Note_on_c, 4, 62, 76
10, 208784, Note_on_c, 4, 62, 0
10, 208800, Note_on_c, 4, 57, 52
10, 208800, Note_on_c, 4, 69, 52
10, 209039, Note_on_c, 4, 57, 0
10, 209039, Note_on_c, 4, 69, 0
10, 210720, Note_on_c, 4, 57, 84
10, 210720, Note_on_c, 4, 69, 84
10, 211664, Note_on_c, 4, 57, 0
10, 211664, Note_on_c, 4, 69, 0
10, 211680, Note_on_c, 4, 64, 84
10, 211680, Note_on_c, 4, 57, 84
10, 212144, Note_on_c, 4, 64, 0
10, 212144, Note_on_c, 4, 57, 0
10, 212160, Note_on_c, 4, 64, 84
10, 212160, Note_on_c, 4, 57, 84
10, 212624, Note_on_c, 4, 64, 0
10, 212624, Note_on_c, 4, 57, 0
10, 212640, Note_on_c, 4, 64, 84
10, 212640, Note_on_c, 4, 57, 84
10, 212879, Note_on_c, 4, 64, 0
10, 212879, Note_on_c, 4, 57, 0
10, 213120, Note_on_c, 4, 57, 76
10, 213120, Note_on_c, 4, 45, 76
10, 213359, Note_on_c, 4, 57, 0
10, 213359, Note_on_c, 4, 45, 0
10, 214080, Note_on_c, 4, 45, 76
10, 214080, Note_on_c, 4, 57, 76
10, 214319, Note_on_c, 4, 45, 0
10, 214319, Note_on_c, 4, 57, 0
10, 216960, Note_on_c, 4, 45, 76
10, 216960, Note_on_c, 4, 57, 76
10, 217199, Note_on_c, 4, 45, 0
10, 217199, Note_on_c, 4, 57, 0
10, 217920, Note_on_c, 4, 57, 76
10, 217920, Note_on_c, 4, 45, 76
10, 218159, Note_on_c, 4, 57, 0
10, 218159, Note_on_c, 4, 45, 0
10, 219840, Control_c, 4, 11, 80
10, 220080, Note_on_c, 4, 64, 76
10, 220080, Note_on_c, 4, 57, 76
10, 220319, Note_on_c, 4, 64, 0
10, 220319, Note_on_c, 4, 57, 0
10, 220320, Note_on_c, 4, 62, 76
10, 220320, Note_on_c, 4, 50, 76
10, 224160, Control_c, 4, 11, 80
10, 224320, Control_c, 4, 11, 82
10, 224480, Control_c, 4, 11, 84
10, 224640, Control_c, 4, 11, 86
10, 224800, Control_c, 4, 11, 88
10, 224960, Control_c, 4, 11, 90
10, 225120, Control_c, 4, 11, 92
10, 225280, Control_c, 4, 11, 94
10, 225440, Control_c, 4, 11, 96
10, 225600, Control_c, 4, 11, 98
10, 225760, Control_c, 4, 11, 100
10, 225920, Control_c, 4, 11, 102
10, 226080, Control_c, 4, 11, 104
10, 226240, Control_c, 4, 11, 105
10, 226400, Control_c, 4, 11, 107
10, 226560, Control_c, 4, 11, 109
10, 226720, Control_c, 4, 11, 111
10, 226880, Control_c, 4, 11, 113
10, 227040, Control_c, 4, 11, 115
10, 227200, Control_c, 4, 11, 117
10, 227264, Note_on_c, 4, 62, 0
10, 227264, Note_on_c, 4, 50, 0
10, 227280, Note_on_c, 4, 62, 76
10, 227280, Note_on_c, 4, 50, 76
10, 227360, Control_c, 4, 11, 119
10, 227504, Note_on_c, 4, 62, 0
10, 227504, Note_on_c, 4, 50, 0
10, 227520, Control_c, 4, 11, 121
10, 227520, Note_on_c, 4, 62, 76
10, 227520, Note_on_c, 4, 50, 76
10, 227680, Control_c, 4, 11, 123
10, 227744, Note_on_c, 4, 62, 0
10, 227744, Note_on_c, 4, 50, 0
10, 227760, Note_on_c, 4, 62, 76
10, 227760, Note_on_c, 4, 50, 76
10, 227840, Control_c, 4, 11, 125
10, 227984, Note_on_c, 4, 62, 0
10, 227984, Note_on_c, 4, 50, 0
10, 228000, Control_c, 4, 11, 127
10, 228000, Note_on_c, 4, 50, 76
10, 228000, Note_on_c, 4, 62, 76
10, 228239, Note_on_c, 4, 50, 0
10, 228239, Note_on_c, 4, 62, 0
10, 236640, Note_on_c, 4, 69, 84
10, 236640, Note_on_c, 4, 57, 84
10, 237584, Note_on_c, 4, 69, 0
10, 237584, Note_on_c, 4, 57, 0
10, 237600, Note_on_c, 4, 62, 76
10, 237600, Note_on_c, 4, 50, 76
10, 237839, Note_on_c, 4, 62, 0
10, 237839, Note_on_c, 4, 50, 0
10, 238560, Note_on_c, 4, 67, 84
10, 239504, Note_on_c, 4, 67, 0
10, 239520, Note_on_c, 4, 67, 84
10, 240239, Note_on_c, 4, 67, 0
10, 241440, Note_on_c, 4, 64, 84
10, 242159, Note_on_c, 4, 64, 0
10, 243360, Note_on_c, 4, 64, 92
10, 244304, Note_on_c, 4, 64, 0
10, 244320, Note_on_c, 4, 57, 92
10, 244320, Note_on_c, 4, 64, 92
10, 245264, Note_on_c, 4, 57, 0
10, 245264, Note_on_c, 4, 64, 0
10, 245280, Note_on_c, 4, 62, 92
10, 245280, Note_on_c, 4, 50, 92
10, 246224, Note_on_c, 4, 62, 0
10, 246224, Note_on_c, 4, 50, 0
10, 246240, Note_on_c, 4, 50, 92
10, 246240, Note_on_c, 4, 62, 92
10, 247199, Note_on_c, 4, 50, 0
10, 247199, Note_on_c, 4, 62, 0
10, 247440, Note_on_c, 4, 67, 84
10, 247611, Note_on_c, 4, 67, 0
10, 247620, Note_on_c, 4, 67, 84
10, 247671, Note_on_c, 4, 67, 0
10, 247680, Note_on_c, 4, 67, 84
10, 247904, Note_on_c, 4, 67, 0
10, 247920, Note_on_c, 4, 67, 84
10, 248144, Note_on_c, 4, 67, 0
10, 248160, Note_on_c, 4, 67, 84
10, 249119, Note_on_c, 4, 67, 0
10, 249360, Note_on_c, 4, 64, 84
10, 249531, Note_on_c, 4, 64, 0
10, 249540, Note_on_c, 4, 64, 84
10, 249591, Note_on_c, 4, 64, 0
10, 249600, Note_on_c, 4, 64, 84
10, 249824, Note_on_c, 4, 64, 0
10, 249840, Note_on_c, 4, 64, 84
10, 250064, Note_on_c, 4, 64, 0
10, 250080, Note_on_c, 4, 64, 84
10, 251039, Note_on_c, 4, 64, 0
10, 251520, Note_on_c, 4, 50, 92
10, 251520, Note_on_c, 4, 62, 92
10, 252224, Note_on_c, 4, 50, 0
10, 252224, Note_on_c, 4, 62, 0
10, 252240, Note_on_c, 4, 62, 84
10, 252240, Note_on_c, 4, 50, 84
10, 252464, Note_on_c, 4, 62, 0
10, 252464, Note_on_c, 4, 50, 0
10, 252480, Note_on_c, 4, 62, 84
10, 252480, Note_on_c, 4, 50, 84
10, 252704, Note_on_c, 4, 62, 0
10, 252704, Note_on_c, 4, 50, 0
10, 252720, Note_on_c, 4, 62, 84
10, 252720, Note_on_c, 4, 50, 84
10, 252944, Note_on_c, 4, 62, 0
10, 252944, Note_on_c, 4, 50, 0
10, 252960, Note_on_c, 4, 50, 84
10, 252960, Note_on_c, 4, 62, 84
10, 253199, Note_on_c, 4, 50, 0
10, 253199, Note_on_c, 4, 62, 0
10, 253440, Note_on_c, 4, 50, 92
10, 253440, Note_on_c, 4, 62, 92
10, 254144, Note_on_c, 4, 50, 0
10, 254144, Note_on_c, 4, 62, 0
10, 254160, Note_on_c, 4, 50, 84
10, 254160, Note_on_c, 4, 62, 84
10, 254384, Note_on_c, 4, 50, 0
10, 254384, Note_on_c, 4, 62, 0
10, 254400, Note_on_c, 4, 62, 84
10, 254400, Note_on_c, 4, 50, 84
10, 254624, Note_on_c, 4, 62, 0
10, 254624, Note_on_c, 4, 50, 0
10, 254640, Note_on_c, 4, 50, 84
10, 254640, Note_on_c, 4, 62, 84
10, 254864, Note_on_c, 4, 50, 0
10, 254864, Note_on_c, 4, 62, 0
10, 254880, Note_on_c, 4, 62, 84
10, 254880, Note_on_c, 4, 50, 84
10, 255119, Note_on_c, 4, 62, 0
10, 255119, Note_on_c, 4, 50, 0
10, 255360, Note_on_c, 4, 62, 92
10, 255360, Note_on_c, 4, 50, 92
10, 256064, Note_on_c, 4, 62, 0
10, 256064, Note_on_c, 4, 50, 0
10, 256080, Note_on_c, 4, 50, 84
10, 256080, Note_on_c, 4, 62, 84
10, 256304, Note_on_c, 4, 50, 0
10, 256304, Note_on_c, 4, 62, 0
10, 256320, Note_on_c, 4, 62, 84
10, 256320, Note_on_c, 4, 50, 84
10, 256544, Note_on_c, 4, 62, 0
10, 256544, Note_on_c, 4, 50, 0
10, 256560, Note_on_c, 4, 62, 84
10, 256560, Note_on_c, 4, 50, 84
10, 256784, Note_on_c, 4, 62, 0
10, 256784, Note_on_c, 4, 50, 0
10, 256800, Note_on_c, 4, 62, 84
10, 256800, Note_on_c, 4, 50, 84
10, 257039, Note_on_c, 4, 62, 0
10, 257039, Note_on_c, 4, 50, 0
10, 257280, Note_on_c, 4, 62, 92
10, 257280, Note_on_c, 4, 50, 92
10, 257984, Note_on_c, 4, 62, 0
10, 257984, Note_on_c, 4, 50, 0
10, 258000, Note_on_c, 4, 62, 84
10, 258000, Note_on_c, 4, 50, 84
10, 258224, Note_on_c, 4, 62, 0
10, 258224, Note_on_c, 4, 50, 0
10, 258240, Note_on_c, 4, 62, 84
10, 258240, Note_on_c, 4, 50, 84
10, 258464, Note_on_c, 4, 62, 0
10, 258464, Note_on_c, 4, 50, 0
10, 258480, Note_on_c, 4, 50, 84
10, 258480, Note_on_c, 4, 62, 84
10, 258704, Note_on_c, 4, 50, 0
10, 258704, Note_on_c, 4, 62, 0
10, 258720, Note_on_c, 4, 62, 84
10, 258720, Note_on_c, 4, 50, 84
10, 258959, Note_on_c, 4, 62, 0
10, 258959, Note_on_c, 4, 50, 0
10, 293040, Control_c, 4, 11, 96
10, 293280, Note_on_c, 4, 57, 68
10, 293280, Note_on_c, 4, 45, 68
10, 293280, Control_c, 4, 11, 96
10, 293360, Control_c, 4, 11, 99
10, 293440, Control_c, 4, 11, 101
10, 293520, Control_c, 4, 11, 104
10, 293600, Control_c, 4, 11, 106
10, 293680, Control_c, 4, 11, 109
10, 293760, Control_c, 4, 11, 112
10, 293840, Control_c, 4, 11, 114
10, 293920, Control_c, 4, 11, 117
10, 294000, Control_c, 4, 11, 119
10, 294080, Control_c, 4, 11, 122
10, 294160, Control_c, 4, 11, 124
10, 294224, Note_on_c, 4, 57, 0
10, 294224, Note_on_c, 4, 45, 0
10, 294240, Note_on_c, 4, 64, 76
10, 294240, Note_on_c, 4, 57, 76
10, 294240, Control_c, 4, 11, 127
10, 294320, Control_c, 4, 11, 123
10, 294400, Control_c, 4, 11, 119
10, 294480, Control_c, 4, 11, 115
10, 294560, Control_c, 4, 11, 111
10, 294640, Control_c, 4, 11, 107
10, 294720, Control_c, 4, 11, 104
10, 294800, Control_c, 4, 11, 100
10, 294880, Control_c, 4, 11, 96
10, 294960, Control_c, 4, 11, 92
10, 295040, Control_c, 4, 11, 88
10, 295120, Control_c, 4, 11, 84
10, 295199, Note_on_c, 4, 64, 0
10, 295199, Note_on_c, 4, 57, 0
10, 295200, Note_on_c, 4, 54, 76
10, 295200, Note_on_c, 4, 62, 76
10, 295200, Control_c, 4, 11, 80
10, 295439, Note_on_c, 4, 54, 0
10, 295439, Note_on_c, 4, 62, 0
10, 297840, Control_c, 4, 11, 96
10, 298080, Note_on_c, 4, 62, 68
10, 298080, Note_on_c, 4, 50, 68
10, 298080, Control_c, 4, 11, 96
10, 298160, Control_c, 4, 11, 99
10, 298240, Control_c, 4, 11, 101
10, 298320, Control_c, 4, 11, 104
10, 298400, Control_c, 4, 11, 106
10, 298480, Control_c, 4, 11, 109
10, 298560, Control_c, 4, 11, 112
10, 298640, Control_c, 4, 11, 114
10, 298720, Control_c, 4, 11, 117
10, 298800, Control_c, 4, 11, 119
10, 298880, Control_c, 4, 11, 122
10, 298960, Control_c, 4, 11, 124
10, 299040, Control_c, 4, 11, 96
10, 299279, Note_on_c, 4, 62, 0
10, 299279, Note_on_c, 4, 50, 0
10, 301680, Control_c, 4, 11, 127
10, 301920, Note_on_c, 4, 62, 52
10, 301920, Note_on_c, 4, 50, 52
10, 305039, Note_on_c, 4, 62, 0
10, 305039, Note_on_c, 4, 50, 0
10, 307680, Control_c, 4, 11, 80
10, 307920, Control_c, 4, 11, 80
10, 307920, Note_on_c, 4, 62, 76
10, 307920, Note_on_c, 4, 50, 76
10, 308070, Control_c, 4, 11, 82
10, 308159, Note_on_c, 4, 62, 0
10, 308159, Note_on_c, 4, 50, 0
10, 308160, Note_on_c, 4, 66, 76
10, 308160, Note_on_c, 4, 54, 76
10, 308220, Control_c, 4, 11, 84
10, 308370, Control_c, 4, 11, 86
10, 308399, Note_on_c, 4, 66, 0
10, 308399, Note_on_c, 4, 54, 0
10, 308400, Note_on_c, 4, 69, 76
10, 308400, Note_on_c, 4, 57, 76
10, 308520, Control_c, 4, 11, 88
10, 308624, Note_on_c, 4, 69, 0
10, 308624, Note_on_c, 4, 57, 0
10, 308640, Note_on_c, 4, 62, 76
10, 308640, Note_on_c, 4, 50, 76
10, 308670, Control_c, 4, 11, 90
10, 308820, Control_c, 4, 11, 92
10, 308970, Control_c, 4, 11, 94
10, 309120, Control_c, 4, 11, 96
10, 309270, Control_c, 4, 11, 98
10, 309420, Control_c, 4, 11, 100
10, 309570, Control_c, 4, 11, 102
10, 309599, Note_on_c, 4, 62, 0
10, 309599, Note_on_c, 4, 50, 0
10, 311370, Control_c, 4, 11, 127
10, 311760, Note_on_c, 4, 69, 76
10, 311760, Note_on_c, 4, 57, 76
10, 313664, Note_on_c, 4, 69, 0
10, 313664, Note_on_c, 4, 57, 0
10, 313680, Note_on_c, 4, 57, 76
10, 313680, Note_on_c, 4, 69, 76
10, 314144, Note_on_c, 4, 57, 0
10, 314144, Note_on_c, 4, 69, 0
10, 314160, Note_on_c, 4, 57, 76
10, 314160, Note_on_c, 4, 69, 76
10, 314624, Note_on_c, 4, 57, 0
10, 314624, Note_on_c, 4, 69, 0
10, 314640, Note_on_c, 4, 69, 76
10, 314640, Note_on_c, 4, 57, 76
10, 315104, Note_on_c, 4, 69, 0
10, 315104, Note_on_c, 4, 57, 0
10, 315120, Note_on_c, 4, 66, 76
10, 315120, Note_on_c, 4, 62, 76
10, 315344, Note_on_c, 4, 66, 0
10, 315344, Note_on_c, 4, 62, 0
10, 315360, Note_on_c, 4, 64, 76
10, 315360, Note_on_c, 4, 57, 76
10, 315584, Note_on_c, 4, 64, 0
10, 315584, Note_on_c, 4, 57, 0
10, 315600, Note_on_c, 4, 57, 84
10, 315600, Note_on_c, 4, 69, 84
10, 317504, Note_on_c, 4, 57, 0
10, 317504, Note_on_c, 4, 69, 0
10, 317520, Note_on_c, 4, 57, 84
10, 317520, Note_on_c, 4, 69, 84
10, 317984, Note_on_c, 4, 57, 0
10, 317984, Note_on_c, 4, 69, 0
10, 318000, Note_on_c, 4, 57, 76
10, 318000, Note_on_c, 4, 69, 76
10, 318464, Note_on_c, 4, 57, 0
10, 318464, Note_on_c, 4, 69, 0
10, 318480, Note_on_c, 4, 69, 76
10, 318480, Note_on_c, 4, 57, 76
10, 318944, Note_on_c, 4, 69, 0
10, 318944, Note_on_c, 4, 57, 0
10, 318960, Note_on_c, 4, 62, 76
10, 318960, Note_on_c, 4, 50, 76
10, 319184, Note_on_c, 4, 62, 0
10, 319184, Note_on_c, 4, 50, 0
10, 319200, Note_on_c, 4, 57, 84
10, 319200, Note_on_c, 4, 69, 84
10, 319439, Note_on_c, 4, 57, 0
10, 319439, Note_on_c, 4, 69, 0
10, 319680, Note_on_c, 4, 57, 84
10, 319680, Note_on_c, 4, 69, 84
10, 319919, Note_on_c, 4, 57, 0
10, 319919, Note_on_c, 4, 69, 0
10, 320160, Note_on_c, 4, 57, 84
10, 320160, Note_on_c, 4, 69, 84
10, 320264, Note_on_c, 4, 57, 0
10, 320264, Note_on_c, 4, 69, 0
10, 320280, Note_on_c, 4, 62, 76
10, 320384, Note_on_c, 4, 62, 0
10, 320400, Note_on_c, 4, 69, 76
10, 320400, Note_on_c, 4, 57, 76
10, 320504, Note_on_c, 4, 69, 0
10, 320504, Note_on_c, 4, 57, 0
10, 320520, Note_on_c, 4, 62, 76
10, 320624, Note_on_c, 4, 62, 0
10, 320640, Note_on_c, 4, 57, 76
10, 320640, Note_on_c, 4, 69, 76
10, 320744, Note_on_c, 4, 57, 0
10, 320744, Note_on_c, 4, 69, 0
10, 320760, Note_on_c, 4, 62, 76
10, 320864, Note_on_c, 4, 62, 0
10, 320880, Note_on_c, 4, 57, 76
10, 320880, Note_on_c, 4, 69, 76
10, 320984, Note_on_c, 4, 57, 0
10, 320984, Note_on_c, 4, 69, 0
10, 321000, Note_on_c, 4, 62, 76
10, 321104, Note_on_c, 4, 62, 0
10, 321120, Note_on_c, 4, 57, 84
10, 321120, Note_on_c, 4, 69, 84
10, 321824, Note_on_c, 4, 57, 0
10, 321824, Note_on_c, 4, 69, 0
10, 321840, Note_on_c, 4, 57, 76
10, 321840, Note_on_c, 4, 69, 76
10, 322064, Note_on_c, 4, 57, 0
10, 322064, Note_on_c, 4, 69, 0
10, 322080, Note_on_c, 4, 57, 76
10, 322080, Note_on_c, 4, 69, 76
10, 322259, Note_on_c, 4, 57, 0
10, 322259, Note_on_c, 4, 69, 0
10, 322320, Note_on_c, 4, 57, 76
10, 322320, Note_on_c, 4, 69, 76
10, 322499, Note_on_c, 4, 57, 0
10, 322499, Note_on_c, 4, 69, 0
10, 322560, Note_on_c, 4, 69, 76
10, 322560, Note_on_c, 4, 57, 76
10, 322739, Note_on_c, 4, 69, 0
10, 322739, Note_on_c, 4, 57, 0
10, 322800, Note_on_c, 4, 69, 76
10, 322800, Note_on_c, 4, 57, 76
10, 322979, Note_on_c, 4, 69, 0
10, 322979, Note_on_c, 4, 57, 0
10, 323040, Note_on_c, 4, 50, 52
10, 323040, Note_on_c, 4, 54, 52
10, 323504, Note_on_c, 4, 50, 0
10, 323504, Note_on_c, 4, 54, 0
10, 323520, Note_on_c, 4, 54, 52
10, 323520, Note_on_c, 4, 57, 52
10, 323931, Note_on_c, 4, 54, 0
10, 323931, Note_on_c, 4, 57, 0
10, 323940, Note_on_c, 4, 62, 52
10, 323940, Note_on_c, 4, 57, 52
10, 323991, Note_on_c, 4, 62, 0
10, 323991, Note_on_c, 4, 57, 0
10, 324000, Note_on_c, 4, 66, 52
10, 324000, Note_on_c, 4, 62, 52
10, 324704, Note_on_c, 4, 66, 0
10, 324704, Note_on_c, 4, 62, 0
10, 324720, Note_on_c, 4, 62, 52
10, 324720, Note_on_c, 4, 50, 52
10, 324944, Note_on_c, 4, 62, 0
10, 324944, Note_on_c, 4, 50, 0
10, 324960, Note_on_c, 4, 50, 52
10, 324960, Note_on_c, 4, 62, 52
10, 325184, Note_on_c, 4, 50, 0
10, 325184, Note_on_c, 4, 62, 0
10, 325200, Note_on_c, 4, 62, 52
10, 325200, Note_on_c, 4, 50, 52
10, 325424, Note_on_c, 4, 62, 0
10, 325424, Note_on_c, 4, 50, 0
10, 325440, Note_on_c, 4, 50, 52
10, 325440, Note_on_c, 4, 62, 52
10, 325664, Note_on_c, 4, 50, 0
10, 325664, Note_on_c, 4, 62, 0
10, 325680, Note_on_c, 4, 62, 52
10, 325680, Note_on_c, 4, 50, 52
10, 325904, Note_on_c, 4, 62, 0
10, 325904, Note_on_c, 4, 50, 0
10, 325920, Note_on_c, 4, 50, 52
10, 325920, Note_on_c, 4, 62, 52
10, 326639, Note_on_c, 4, 50, 0
10, 326639, Note_on_c, 4, 62, 0
10, 330720, Note_on_c, 4, 50, 52
10, 330720, Note_on_c, 4, 62, 52
10, 331184, Note_on_c, 4, 50, 0
10, 331184, Note_on_c, 4, 62, 0
10, 331200, Note_on_c, 4, 62, 52
10, 331200, Note_on_c, 4, 50, 52
10, 331611, Note_on_c, 4, 62, 0
10, 331611, Note_on_c, 4, 50, 0
10, 331620, Note_on_c, 4, 50, 52
10, 331620, Note_on_c, 4, 62, 52
10, 331671, Note_on_c, 4, 50, 0
10, 331671, Note_on_c, 4, 62, 0
10, 331680, Note_on_c, 4, 50, 52
10, 331680, Note_on_c, 4, 62, 52
10, 332384, Note_on_c, 4, 50, 0
10, 332384, Note_on_c, 4, 62, 0
10, 332400, Note_on_c, 4, 62, 52
10, 332400, Note_on_c, 4, 50, 52
10, 332571, Note_on_c, 4, 62, 0
10, 332571, Note_on_c, 4, 50, 0
10, 332580, Note_on_c, 4, 62, 52
10, 332580, Note_on_c, 4, 50, 52
10, 332631, Note_on_c, 4, 62, 0
10, 332631, Note_on_c, 4, 50, 0
10, 332640, Note_on_c, 4, 50, 52
10, 332640, Note_on_c, 4, 62, 52
10, 332819, Note_on_c, 4, 50, 0
10, 332819, Note_on_c, 4, 62, 0
10, 332880, Note_on_c, 4, 50, 52
10, 332880, Note_on_c, 4, 62, 52
10, 333059, Note_on_c, 4, 50, 0
10, 333059, Note_on_c, 4, 62, 0
10, 333120, Note_on_c, 4, 50, 52
10, 333120, Note_on_c, 4, 62, 52
10, 333299, Note_on_c, 4, 50, 0
10, 333299, Note_on_c, 4, 62, 0
10, 333360, Note_on_c, 4, 62, 52
10, 333360, Note_on_c, 4, 50, 52
10, 333539, Note_on_c, 4, 62, 0
10, 333539, Note_on_c, 4, 50, 0
10, 333600, Note_on_c, 4, 62, 52
10, 333600, Note_on_c, 4, 50, 52
10, 334169, Note_on_c, 4, 62, 0
10, 334169, Note_on_c, 4, 50, 0
10, 336720, Note_on_c, 4, 64, 92
10, 336959, Note_on_c, 4, 64, 0
10, 337200, Note_on_c, 4, 64, 92
10, 337439, Note_on_c, 4, 64, 0
10, 337440, Note_on_c, 4, 57, 92
10, 337440, Note_on_c, 4, 69, 92
10, 338384, Note_on_c, 4, 57, 0
10, 338384, Note_on_c, 4, 69, 0
10, 338400, Note_on_c, 4, 69, 92
10, 338400, Note_on_c, 4, 57, 92
10, 339344, Note_on_c, 4, 69, 0
10, 339344, Note_on_c, 4, 57, 0
10, 339360, Note_on_c, 4, 57, 92
10, 339360, Note_on_c, 4, 69, 92
10, 340304, Note_on_c, 4, 57, 0
10, 340304, Note_on_c, 4, 69, 0
10, 340320, Note_on_c, 4, 57, 92
10, 340320, Note_on_c, 4, 69, 92
10, 341264, Note_on_c, 4, 57, 0
10, 341264, Note_on_c, 4, 69, 0
10, 341280, Note_on_c, 4, 57, 92
10, 341280, Note_on_c, 4, 69, 92
10, 343184, Note_on_c, 4, 57, 0
10, 343184, Note_on_c, 4, 69, 0
10, 343200, Note_on_c, 4, 54, 92
10, 343200, Note_on_c, 4, 66, 92
10, 344144, Note_on_c, 4, 54, 0
10, 344144, Note_on_c, 4, 66, 0
10, 344160, Note_on_c, 4, 50, 92
10, 344160, Note_on_c, 4, 62, 92
10, 345359, Note_on_c, 4, 50, 0
10, 345359, Note_on_c, 4, 62, 0
10, 346500, Note_on_c, 4, 67, 84
10, 346551, Note_on_c, 4, 67, 0
10, 346560, Note_on_c, 4, 67, 84
10, 347039, Note_on_c, 4, 67, 0
10, 347280, Note_on_c, 4, 64, 84
10, 347280, Note_on_c, 4, 57, 84
10, 347459, Note_on_c, 4, 64, 0
10, 347459, Note_on_c, 4, 57, 0
10, 347760, Note_on_c, 4, 66, 84
10, 347760, Note_on_c, 4, 62, 84
10, 347939, Note_on_c, 4, 66, 0
10, 347939, Note_on_c, 4, 62, 0
10, 348240, Note_on_c, 4, 67, 84
10, 348240, Note_on_c, 4, 64, 84
10, 348419, Note_on_c, 4, 67, 0
10, 348419, Note_on_c, 4, 64, 0
10, 348720, Note_on_c, 4, 57, 84
10, 348720, Note_on_c, 4, 64, 84
10, 348899, Note_on_c, 4, 57, 0
10, 348899, Note_on_c, 4, 64, 0
10, 349380, Note_on_c, 4, 67, 84
10, 349431, Note_on_c, 4, 67, 0
10, 349440, Note_on_c, 4, 67, 84
10, 349919, Note_on_c, 4, 67, 0
10, 350340, Note_on_c, 4, 67, 84
10, 350391, Note_on_c, 4, 67, 0
10, 350400, Note_on_c, 4, 67, 84
10, 350879, Note_on_c, 4, 67, 0
10, 359040, Note_on_c, 4, 62, 84
10, 359040, Note_on_c, 4, 50, 84
10, 359144, Note_on_c, 4, 62, 0
10, 359144, Note_on_c, 4, 50, 0
10, 359160, Note_on_c, 4, 54, 84
10, 359160, Note_on_c, 4, 66, 84
10, 359264, Note_on_c, 4, 54, 0
10, 359264, Note_on_c, 4, 66, 0
10, 359280, Note_on_c, 4, 69, 84
10, 359280, Note_on_c, 4, 57, 84
10, 359384, Note_on_c, 4, 69, 0
10, 359384, Note_on_c, 4, 57, 0
10, 359400, Note_on_c, 4, 69, 84
10, 359400, Note_on_c, 4, 57, 84
10, 359504, Note_on_c, 4, 69, 0
10, 359504, Note_on_c, 4, 57, 0
10, 359520, Note_on_c, 4, 57, 84
10, 359520, Note_on_c, 4, 69, 84
10, 360224, Note_on_c, 4, 57, 0
10, 360224, Note_on_c, 4, 69, 0
10, 360240, Note_on_c, 4, 57, 84
10, 360240, Note_on_c, 4, 64, 84
10, 360464, Note_on_c, 4, 57, 0
10, 360464, Note_on_c, 4, 64, 0
10, 360480, Note_on_c, 4, 50, 76
10, 360480, Note_on_c, 4, 62, 76
10, 360540, Control_c, 4, 11, 80
10, 362369, Note_on_c, 4, 50, 0
10, 362369, Note_on_c, 4, 62, 0
10, 362385, Control_c, 4, 11, 127
10, 362400, Note_on_c, 4, 62, 84
10, 362400, Note_on_c, 4, 50, 84
10, 363104, Note_on_c, 4, 62, 0
10, 363104, Note_on_c, 4, 50, 0
10, 363120, Note_on_c, 4, 62, 84
10, 363120, Note_on_c, 4, 50, 84
10, 363299, Note_on_c, 4, 62, 0
10, 363299, Note_on_c, 4, 50, 0
10, 363360, Note_on_c, 4, 50, 84
10, 363360, Note_on_c, 4, 62, 84
10, 363539, Note_on_c, 4, 50, 0
10, 363539, Note_on_c, 4, 62, 0
10, 363600, Note_on_c, 4, 50, 84
10, 363600, Note_on_c, 4, 62, 84
10, 363779, Note_on_c, 4, 50, 0
10, 363779, Note_on_c, 4, 62, 0
10, 363840, Note_on_c, 4, 62, 84
10, 363840, Note_on_c, 4, 50, 84
10, 364019, Note_on_c, 4, 62, 0
10, 364019, Note_on_c, 4, 50, 0
10, 364080, Note_on_c, 4, 50, 84
10, 364080, Note_on_c, 4, 62, 84
10, 364259, Note_on_c, 4, 50, 0
10, 364259, Note_on_c, 4, 62, 0
10, 364320, Note_on_c, 4, 50, 76
10, 364320, Note_on_c, 4, 62, 76
10, 364380, Control_c, 4, 11, 80
10, 366209, Note_on_c, 4, 50, 0
10, 366209, Note_on_c, 4, 62, 0
10, 366225, Control_c, 4, 11, 127
10, 366240, Note_on_c, 4, 50, 84
10, 366240, Note_on_c, 4, 62, 84
10, 366944, Note_on_c, 4, 50, 0
10, 366944, Note_on_c, 4, 62, 0
10, 366960, Note_on_c, 4, 62, 84
10, 366960, Note_on_c, 4, 50, 84
10, 367139, Note_on_c, 4, 62, 0
10, 367139, Note_on_c, 4, 50, 0
10, 367200, Note_on_c, 4, 50, 84
10, 367200, Note_on_c, 4, 62, 84
10, 367379, Note_on_c, 4, 50, 0
10, 367379, Note_on_c, 4, 62, 0
10, 367440, Note_on_c, 4, 50, 84
10, 367440, Note_on_c, 4, 62, 84
10, 367619, Note_on_c, 4, 50, 0
10, 367619, Note_on_c, 4, 62, 0
10, 367680, Note_on_c, 4, 62, 84
10, 367680, Note_on_c, 4, 50, 84
10, 367859, Note_on_c, 4, 62, 0
10, 367859, Note_on_c, 4, 50, 0
10, 367920, Note_on_c, 4, 62, 84
10, 367920, Note_on_c, 4, 50, 84
10, 368099, Note_on_c, 4, 62, 0
10, 368099, Note_on_c, 4, 50, 0
10, 368160, Note_on_c, 4, 62, 52
10, 368160, Note_on_c, 4, 50, 52
10, 368399, Note_on_c, 4, 62, 0
10, 368399, Note_on_c, 4, 50, 0
10, 368880, Note_on_c, 4, 50, 76
10, 368880, Note_on_c, 4, 62, 76
10, 369104, Note_on_c, 4, 50, 0
10, 369104, Note_on_c, 4, 62, 0
10, 369120, Note_on_c, 4, 50, 52
10, 369120, Note_on_c, 4, 62, 52
10, 369359, Note_on_c, 4, 50, 0
10, 369359, Note_on_c, 4, 62, 0
10, 369840, Note_on_c, 4, 62, 76
10, 369840, Note_on_c, 4, 50, 76
10, 370064, Note_on_c, 4, 62, 0
10, 370064, Note_on_c, 4, 50, 0
10, 370080, Note_on_c, 4, 62, 52
10, 370080, Note_on_c, 4, 50, 52
10, 370319, Note_on_c, 4, 62, 0
10, 370319, Note_on_c, 4, 50, 0
10, 370800, Note_on_c, 4, 50, 76
10, 370800, Note_on_c, 4, 62, 76
10, 371024, Note_on_c, 4, 50, 0
10, 371024, Note_on_c, 4, 62, 0
10, 371040, Note_on_c, 4, 50, 52
10, 371040, Note_on_c, 4, 62, 52
10, 371279, Note_on_c, 4, 50, 0
10, 371279, Note_on_c, 4, 62, 0
10, 371760, Note_on_c, 4, 62, 76
10, 371760, Note_on_c, 4, 50, 76
10, 371984, Note_on_c, 4, 62, 0
10, 371984, Note_on_c, 4, 50, 0
10, 372000, Note_on_c, 4, 62, 52
10, 372000, Note_on_c, 4, 50, 52
10, 372179, Note_on_c, 4, 62, 0
10, 372179, Note_on_c, 4, 50, 0
10, 372240, Note_on_c, 4, 62, 76
10, 372240, Note_on_c, 4, 50, 76
10, 372419, Note_on_c, 4, 62, 0
10, 372419, Note_on_c, 4, 50, 0
10, 372480, Note_on_c, 4, 50, 52
10, 372480, Note_on_c, 4, 62, 52
10, 372659, Note_on_c, 4, 50, 0
10, 372659, Note_on_c, 4, 62, 0
10, 372720, Note_on_c, 4, 50, 76
10, 372720, Note_on_c, 4, 62, 76
10, 372899, Note_on_c, 4, 50, 0
10, 372899, Note_on_c, 4, 62, 0
10, 372960, Note_on_c, 4, 62, 52
10, 372960, Note_on_c, 4, 50, 52
10, 373139, Note_on_c, 4, 62, 0
10, 373139, Note_on_c, 4, 50, 0
10, 373200, Note_on_c, 4, 62, 76
10, 373200, Note_on_c, 4, 50, 76
10, 373379, Note_on_c, 4, 62, 0
10, 373379, Note_on_c, 4, 50, 0
10, 373440, Note_on_c, 4, 62, 52
10, 373440, Note_on_c, 4, 50, 52
10, 373619, Note_on_c, 4, 62, 0
10, 373619, Note_on_c, 4, 50, 0
10, 373680, Note_on_c, 4, 50, 76
10, 373680, Note_on_c, 4, 62, 76
10, 373859, Note_on_c, 4, 50, 0
10, 373859, Note_on_c, 4, 62, 0
10, 373920, Note_on_c, 4, 62, 84
10, 374864, Note_on_c, 4, 62, 0
10, 374880, Note_on_c, 4, 69, 84
10, 374880, Note_on_c, 4, 57, 84
10, 375344, Note_on_c, 4, 69, 0
10, 375344, Note_on_c, 4, 57, 0
10, 375360, Note_on_c, 4, 66, 84
10, 375360, Note_on_c, 4, 54, 84
10, 375824, Note_on_c, 4, 66, 0
10, 375824, Note_on_c, 4, 54, 0
10, 375840, Note_on_c, 4, 50, 84
10, 375840, Note_on_c, 4, 62, 84
10, 376784, Note_on_c, 4, 50, 0
10, 376784, Note_on_c, 4, 62, 0
10, 376800, Note_on_c, 4, 54, 84
10, 376800, Note_on_c, 4, 66, 84
10, 377264, Note_on_c, 4, 54, 0
10, 377264, Note_on_c, 4, 66, 0
10, 377280, Note_on_c, 4, 69, 84
10, 377280, Note_on_c, 4, 57, 84
10, 377744, Note_on_c, 4, 69, 0
10, 377744, Note_on_c, 4, 57, 0
10, 377760, Note_on_c, 4, 62, 84
10, 377760, Note_on_c, 4, 50, 84
10, 377999, Note_on_c, 4, 62, 0
10, 377999, Note_on_c, 4, 50, 0
10, 378240, Note_on_c, 4, 62, 76
10, 378240, Note_on_c, 4, 50, 76
10, 378479, Note_on_c, 4, 62, 0
10, 378479, Note_on_c, 4, 50, 0
10, 379200, Note_on_c, 4, 50, 76
10, 379200, Note_on_c, 4, 62, 76
10, 379439, Note_on_c, 4, 50, 0
10, 379439, Note_on_c, 4, 62, 0
10, 385200, Note_on_c, 4, 57, 76
10, 385200, Note_on_c, 4, 64, 76
10, 385439, Note_on_c, 4, 57, 0
10, 385439, Note_on_c, 4, 64, 0
10, 385440, Note_on_c, 4, 50, 76
10, 385440, Note_on_c, 4, 62, 76
10, 385679, Note_on_c, 4, 50, 0
10, 385679, Note_on_c, 4, 62, 0
10, 385920, Note_on_c, 4, 50, 76
10, 385920, Note_on_c, 4, 62, 76
10, 387104, Note_on_c, 4, 50, 0
10, 387104, Note_on_c, 4, 62, 0
10, 387120, Note_on_c, 4, 66, 76
10, 387344, Note_on_c, 4, 66, 0
10, 387360, Note_on_c, 4, 64, 76
10, 387360, Note_on_c, 4, 67, 76
10, 387599, Note_on_c, 4, 64, 0
10, 387599, Note_on_c, 4, 67, 0
10, 387840, Note_on_c, 4, 64, 76
10, 389024, Note_on_c, 4, 64, 0
10, 389040, Note_on_c, 4, 67, 76
10, 389264, Note_on_c, 4, 67, 0
10, 389280, Note_on_c, 4, 66, 76
10, 389280, Note_on_c, 4, 62, 76
10, 389504, Note_on_c, 4, 66, 0
10, 389504, Note_on_c, 4, 62, 0
10, 389520, Note_on_c, 4, 50, 84
10, 389520, Note_on_c, 4, 62, 84
10, 389984, Note_on_c, 4, 50, 0
10, 389984, Note_on_c, 4, 62, 0
10, 390000, Note_on_c, 4, 62, 76
10, 390000, Note_on_c, 4, 50, 76
10, 390224, Note_on_c, 4, 62, 0
10, 390224, Note_on_c, 4, 50, 0
10, 390240, Note_on_c, 4, 62, 76
10, 390240, Note_on_c, 4, 50, 76
10, 390464, Note_on_c, 4, 62, 0
10, 390464, Note_on_c, 4, 50, 0
10, 390480, Note_on_c, 4, 67, 84
10, 390944, Note_on_c, 4, 67, 0
10, 390960, Note_on_c, 4, 67, 76
10, 391184, Note_on_c, 4, 67, 0
10, 391200, Note_on_c, 4, 67, 76
10, 391439, Note_on_c, 4, 67, 0
10, 393120, Note_on_c, 4, 64, 84
10, 393120, Note_on_c, 4, 57, 84
10, 394079, Note_on_c, 4, 64, 0
10, 394079, Note_on_c, 4, 57, 0
10, 396960, Note_on_c, 4, 50, 76
10, 396960, Note_on_c, 4, 38, 76
10, 397020, Control_c, 4, 11, 80
10, 398849, Note_on_c, 4, 50, 0
10, 398849, Note_on_c, 4, 38, 0
10, 398865, Control_c, 4, 11, 127
10, 398880, Note_on_c, 4, 38, 84
10, 398880, Note_on_c, 4, 50, 84
10, 399840, Control_c, 4, 11, 64
10, 401039, Note_on_c, 4, 38, 0
10, 401039, Note_on_c, 4, 50, 0
10, 401040, Control_c, 4, 11, 127
10, 401280, Note_on_c, 4, 57, 84
10, 401280, Note_on_c, 4, 69, 84
10, 401759, Note_on_c, 4, 57, 0
10, 401759, Note_on_c, 4, 69, 0
10, 402240, Note_on_c, 4, 57, 84
10, 402240, Note_on_c, 4, 69, 84
10, 402704, Note_on_c, 4, 57, 0
10, 402704, Note_on_c, 4, 69, 0
10, 402720, Note_on_c, 4, 57, 84
10, 402720, Note_on_c, 4, 69, 84
10, 403184, Note_on_c, 4, 57, 0
10, 403184, Note_on_c, 4, 69, 0
10, 403200, Note_on_c, 4, 57, 84
10, 403200, Note_on_c, 4, 69, 84
10, 403664, Note_on_c, 4, 57, 0
10, 403664, Note_on_c, 4, 69, 0
10, 403680, Note_on_c, 4, 69, 84
10, 403680, Note_on_c, 4, 57, 84
10, 404624, Note_on_c, 4, 69, 0
10, 404624, Note_on_c, 4, 57, 0
10, 404640, Note_on_c, 4, 67, 84
10, 405104, Note_on_c, 4, 67, 0
10, 405120, Note_on_c, 4, 66, 84
10, 405584, Note_on_c, 4, 66, 0
10, 405600, Note_on_c, 4, 66, 84
10, 406544, Note_on_c, 4, 66, 0
10, 406560, Note_on_c, 4, 66, 84
10, 407024, Note_on_c, 4, 66, 0
10, 407040, Note_on_c, 4, 66, 84
10, 407504, Note_on_c, 4, 66, 0
10, 407520, Note_on_c, 4, 66, 84
10, 408464, Note_on_c, 4, 66, 0
10, 408480, Note_on_c, 4, 66, 84
10, 408480, Note_on_c, 4, 69, 84
10, 408944, Note_on_c, 4, 66, 0
10, 408944, Note_on_c, 4, 69, 0
10, 408960, Note_on_c, 4, 69, 84
10, 408960, Note_on_c, 4, 66, 84
10, 409424, Note_on_c, 4, 69, 0
10, 409424, Note_on_c, 4, 66, 0
10, 409440, Note_on_c, 4, 69, 84
10, 409440, Note_on_c, 4, 66, 84
10, 410384, Note_on_c, 4, 69, 0
10, 410384, Note_on_c, 4, 66, 0
10, 410400, Note_on_c, 4, 66, 84
10, 410400, Note_on_c, 4, 67, 84
10, 410864, Note_on_c, 4, 66, 0
10, 410880, Note_on_c, 4, 64, 84
10, 411344, Note_on_c, 4, 67, 0
10, 411360, Note_on_c, 4, 66, 84
10, 411824, Note_on_c, 4, 64, 0
10, 411840, Note_on_c, 4, 62, 84
10, 412304, Note_on_c, 4, 66, 0
10, 412304, Note_on_c, 4, 62, 0
10, 412320, Note_on_c, 4, 62, 92
10, 412320, Note_on_c, 4, 64, 92
10, 413264, Note_on_c, 4, 62, 0
10, 413264, Note_on_c, 4, 64, 0
10, 413280, Note_on_c, 4, 57, 92
10, 413280, Note_on_c, 4, 64, 92
10, 414224, Note_on_c, 4, 57, 0
10, 414224, Note_on_c, 4, 64, 0
10, 414240, Note_on_c, 4, 50, 84
10, 414240, Note_on_c, 4, 62, 84
10, 414479, Note_on_c, 4, 50, 0
10, 414479, Note_on_c, 4, 62, 0
10, 416640, Note_on_c, 4, 62, 84
10, 416640, Note_on_c, 4, 66, 84
10, 417104, Note_on_c, 4, 66, 0
10, 417120, Note_on_c, 4, 64, 84
10, 417584, Note_on_c, 4, 62, 0
10, 417600, Note_on_c, 4, 57, 84
10, 418064, Note_on_c, 4, 64, 0
10, 418064, Note_on_c, 4, 57, 0
10, 418080, Note_on_c, 4, 62, 84
10, 418080, Note_on_c, 4, 50, 84
10, 418784, Note_on_c, 4, 62, 0
10, 418784, Note_on_c, 4, 50, 0
10, 418800, Note_on_c, 4, 50, 92
10, 418800, Note_on_c, 4, 62, 92
10, 419039, Note_on_c, 4, 50, 0
10, 419039, Note_on_c, 4, 62, 0
10, 419280, Note_on_c, 4, 54, 92
10, 419280, Note_on_c, 4, 66, 92
10, 419519, Note_on_c, 4, 54, 0
10, 419519, Note_on_c, 4, 66, 0
10, 419760, Note_on_c, 4, 57, 92
10, 419760, Note_on_c, 4, 69, 92
10, 419999, Note_on_c, 4, 57, 0
10, 419999, Note_on_c, 4, 69, 0
10, 420240, Note_on_c, 4, 62, 92
10, 420479, Note_on_c, 4, 62, 0
10, 420720, Note_on_c, 4, 66, 92
10, 420720, Note_on_c, 4, 62, 92
10, 420959, Note_on_c, 4, 66, 0
10, 420959, Note_on_c, 4, 62, 0
10, 421200, Note_on_c, 4, 62, 84
10, 421200, Note_on_c, 4, 64, 84
10, 421439, Note_on_c, 4, 62, 0
10, 421439, Note_on_c, 4, 64, 0
10, 421680, Note_on_c, 4, 64, 84
10, 421680, Note_on_c, 4, 57, 84
10, 421919, Note_on_c, 4, 64, 0
10, 421919, Note_on_c, 4, 57, 0
10, 422160, Note_on_c, 4, 62, 84
10, 422160, Note_on_c, 4, 66, 84
10, 422399, Note_on_c, 4, 62, 0
10, 422399, Note_on_c, 4, 66, 0
10, 422640, Note_on_c, 4, 62, 84
10, 422640, Note_on_c, 4, 66, 84
10, 422879, Note_on_c, 4, 62, 0
10, 422879, Note_on_c, 4, 66, 0
10, 423120, Note_on_c, 4, 64, 84
10, 423120, Note_on_c, 4, 62, 84
10, 423359, Note_on_c, 4, 64, 0
10, 423359, Note_on_c, 4, 62, 0
10, 423600, Note_on_c, 4, 64, 84
10, 423600, Note_on_c, 4, 57, 84
10, 423824, Note_on_c, 4, 64, 0
10, 423824, Note_on_c, 4, 57, 0
10, 423840, Note_on_c, 4, 50, 76
10, 423840, Note_on_c, 4, 62, 76
10, 424731, Note_on_c, 4, 50, 0
10, 424731, Note_on_c, 4, 62, 0
10, 424740, Note_on_c, 4, 50, 76
10, 424740, Note_on_c, 4, 62, 76
10, 424791, Note_on_c, 4, 50, 0
10, 424791, Note_on_c, 4, 62, 0
10, 424800, Note_on_c, 4, 66, 76
10, 424800, Note_on_c, 4, 54, 76
10, 425211, Note_on_c, 4, 66, 0
10, 425211, Note_on_c, 4, 54, 0
10, 425220, Note_on_c, 4, 54, 76
10, 425220, Note_on_c, 4, 66, 76
10, 425271, Note_on_c, 4, 54, 0
10, 425271, Note_on_c, 4, 66, 0
10, 425280, Note_on_c, 4, 69, 76
10, 425280, Note_on_c, 4, 57, 76
10, 425691, Note_on_c, 4, 69, 0
10, 425691, Note_on_c, 4, 57, 0
10, 425700, Note_on_c, 4, 69, 76
10, 425700, Note_on_c, 4, 57, 76
10, 425751, Note_on_c, 4, 69, 0
10, 425751, Note_on_c, 4, 57, 0
10, 425760, Note_on_c, 4, 62, 84
10, 425760, Note_on_c, 4, 74, 84
10, 426651, Note_on_c, 4, 62, 0
10, 426651, Note_on_c, 4, 74, 0
10, 426660, Note_on_c, 4, 74, 76
10, 426660, Note_on_c, 4, 62, 76
10, 426711, Note_on_c, 4, 74, 0
10, 426711, Note_on_c, 4, 62, 0
10, 426720, Note_on_c, 4, 69, 76
10, 426720, Note_on_c, 4, 57, 76
10, 427131, Note_on_c, 4, 69, 0
10, 427131, Note_on_c, 4, 57, 0
10, 427140, Note_on_c, 4, 57, 76
10, 427140, Note_on_c, 4, 69, 76
10, 427191, Note_on_c, 4, 57, 0
10, 427191, Note_on_c, 4, 69, 0
10, 427200, Note_on_c, 4, 54, 76
10, 427200, Note_on_c, 4, 66, 76
10, 427611, Note_on_c, 4, 54, 0
10, 427611, Note_on_c, 4, 66, 0
10, 427620, Note_on_c, 4, 66, 76
10, 427620, Note_on_c, 4, 54, 76
10, 427679, Note_on_c, 4, 66, 0
10, 427679, Note_on_c, 4, 54, 0
10, 428100, Note_on_c, 4, 62, 76
10, 428100, Note_on_c, 4, 66, 76
10, 428144, Note_on_c, 4, 62, 0
10, 428144, Note_on_c, 4, 66, 0
10, 428160, Note_on_c, 4, 66, 76
10, 428160, Note_on_c, 4, 62, 76
10, 428339, Note_on_c, 4, 66, 0
10, 428339, Note_on_c, 4, 62, 0
10, 429060, Note_on_c, 4, 64, 76
10, 429060, Note_on_c, 4, 57, 76
10, 429104, Note_on_c, 4, 64, 0
10, 429104, Note_on_c, 4, 57, 0
10, 429120, Note_on_c, 4, 57, 76
10, 429120, Note_on_c, 4, 64, 76
10, 429299, Note_on_c, 4, 57, 0
10, 429299, Note_on_c, 4, 64, 0
10, 430020, Note_on_c, 4, 62, 76
10, 430020, Note_on_c, 4, 66, 76
10, 430064, Note_on_c, 4, 62, 0
10, 430064, Note_on_c, 4, 66, 0
10, 430080, Note_on_c, 4, 62, 76
10, 430080, Note_on_c, 4, 66, 76
10, 430259, Note_on_c, 4, 62, 0
10, 430259, Note_on_c, 4, 66, 0
10, 430980, Note_on_c, 4, 64, 76
10, 430980, Note_on_c, 4, 57, 76
10, 431024, Note_on_c, 4, 64, 0
10, 431024, Note_on_c, 4, 57, 0
10, 431040, Note_on_c, 4, 64, 76
10, 431040, Note_on_c, 4, 57, 76
10, 431219, Note_on_c, 4, 64, 0
10, 431219, Note_on_c, 4, 57, 0
10, 431520, Note_on_c, 4, 62, 76
10, 431520, Note_on_c, 4, 54, 76
10, 431759, Note_on_c, 4, 62, 0
10, 431759, Note_on_c, 4, 54, 0
10, 432420, Note_on_c, 4, 62, 84
10, 432420, Note_on_c, 4, 50, 84
10, 432471, Note_on_c, 4, 62, 0
10, 432471, Note_on_c, 4, 50, 0
10, 432480, Note_on_c, 4, 62, 84
10, 432480, Note_on_c, 4, 50, 84
10, 432719, Note_on_c, 4, 62, 0
10, 432719, Note_on_c, 4, 50, 0
10, 432960, Note_on_c, 4, 62, 84
10, 432960, Note_on_c, 4, 50, 84
10, 433199, Note_on_c, 4, 62, 0
10, 433199, Note_on_c, 4, 50, 0
10, 433440, Note_on_c, 4, 50, 84
10, 433440, Note_on_c, 4, 62, 84
10, 434399, Note_on_c, 4, 50, 0
10, 434399, Note_on_c, 4, 62, 0
10, 434399, End_track
11, 0, Start_track
11, 0, Title_t, "Trumpet in D"
11, 0, MIDI_port, 0
11, 0, Program_c, 5, 56
11, 0, Control_c, 5, 7, 96
11, 0, Control_c, 5, 10, 60
11, 0, Control_c, 5, 11, 127
11, 690, Note_on_c, 5, 74, 84
11, 690, Note_on_c, 5, 62, 84
11, 715, Note_on_c, 5, 74, 0
11, 715, Note_on_c, 5, 62, 0
11, 720, Note_on_c, 5, 62, 84
11, 720, Note_on_c, 5, 74, 84
11, 1064, Note_on_c, 5, 62, 0
11, 1064, Note_on_c, 5, 74, 0
11, 3570, Note_on_c, 5, 62, 84
11, 3570, Note_on_c, 5, 74, 84
11, 3595, Note_on_c, 5, 62, 0
11, 3595, Note_on_c, 5, 74, 0
11, 3600, Note_on_c, 5, 74, 84
11, 3600, Note_on_c, 5, 62, 84
11, 3959, Note_on_c, 5, 74, 0
11, 3959, Note_on_c, 5, 62, 0
11, 8520, Note_on_c, 5, 57, 84
11, 8520, Note_on_c, 5, 69, 84
11, 8631, Note_on_c, 5, 57, 0
11, 8631, Note_on_c, 5, 69, 0
11, 8640, Note_on_c, 5, 62, 84
11, 8640, Note_on_c, 5, 74, 84
11, 8729, Note_on_c, 5, 62, 0
11, 8729, Note_on_c, 5, 74, 0
11, 16530, Note_on_c, 5, 69, 84
11, 16530, Note_on_c, 5, 57, 84
11, 16555, Note_on_c, 5, 69, 0
11, 16555, Note_on_c, 5, 57, 0
11, 16560, Note_on_c, 5, 74, 84
11, 16560, Note_on_c, 5, 62, 84
11, 16765, Note_on_c, 5, 74, 0
11, 16765, Note_on_c, 5, 62, 0
11, 16770, Note_on_c, 5, 74, 84
11, 16770, Note_on_c, 5, 62, 84
11, 16795, Note_on_c, 5, 74, 0
11, 16795, Note_on_c, 5, 62, 0
11, 16800, Note_on_c, 5, 57, 84
11, 16800, Note_on_c, 5, 69, 84
11, 17005, Note_on_c, 5, 57, 0
11, 17005, Note_on_c, 5, 69, 0
11, 17010, Note_on_c, 5, 69, 84
11, 17010, Note_on_c, 5, 57, 84
11, 17035, Note_on_c, 5, 69, 0
11, 17035, Note_on_c, 5, 57, 0
11, 17040, Note_on_c, 5, 57, 84
11, 17040, Note_on_c, 5, 69, 84
11, 17129, Note_on_c, 5, 57, 0
11, 17129, Note_on_c, 5, 69, 0
11, 17160, Note_on_c, 5, 69, 84
11, 17160, Note_on_c, 5, 57, 84
11, 17249, Note_on_c, 5, 69, 0
11, 17249, Note_on_c, 5, 57, 0
11, 17280, Note_on_c, 5, 57, 92
11, 17280, Note_on_c, 5, 69, 92
11, 17399, Note_on_c, 5, 57, 0
11, 17399, Note_on_c, 5, 69, 0
11, 20880, Note_on_c, 5, 57, 76
11, 20880, Note_on_c, 5, 69, 76
11, 20999, Note_on_c, 5, 57, 0
11, 20999, Note_on_c, 5, 69, 0
11, 21600, Note_on_c, 5, 57, 76
11, 21600, Note_on_c, 5, 69, 76
11, 21719, Note_on_c, 5, 57, 0
11, 21719, Note_on_c, 5, 69, 0
11, 22320, Note_on_c, 5, 57, 76
11, 22320, Note_on_c, 5, 69, 76
11, 22439, Note_on_c, 5, 57, 0
11, 22439, Note_on_c, 5, 69, 0
11, 23040, Note_on_c, 5, 69, 76
11, 23040, Note_on_c, 5, 57, 76
11, 23159, Note_on_c, 5, 69, 0
11, 23159, Note_on_c, 5, 57, 0
11, 36960, Note_on_c, 5, 74, 76
11, 36960, Note_on_c, 5, 62, 76
11, 37904, Note_on_c, 5, 74, 0
11, 37904, Note_on_c, 5, 62, 0
11, 37920, Note_on_c, 5, 62, 84
11, 37920, Note_on_c, 5, 74, 84
11, 38864, Note_on_c, 5, 62, 0
11, 38864, Note_on_c, 5, 74, 0
11, 38880, Note_on_c, 5, 74, 76
11, 38880, Note_on_c, 5, 62, 76
11, 39119, Note_on_c, 5, 74, 0
11, 39119, Note_on_c, 5, 62, 0
11, 39360, Note_on_c, 5, 62, 84
11, 39360, Note_on_c, 5, 74, 84
11, 40064, Note_on_c, 5, 62, 0
11, 40064, Note_on_c, 5, 74, 0
11, 40080, Note_on_c, 5, 62, 76
11, 40080, Note_on_c, 5, 74, 76
11, 40304, Note_on_c, 5, 62, 0
11, 40304, Note_on_c, 5, 74, 0
11, 40320, Note_on_c, 5, 62, 76
11, 40320, Note_on_c, 5, 74, 76
11, 40544, Note_on_c, 5, 62, 0
11, 40544, Note_on_c, 5, 74, 0
11, 40560, Note_on_c, 5, 74, 76
11, 40560, Note_on_c, 5, 62, 76
11, 40784, Note_on_c, 5, 74, 0
11, 40784, Note_on_c, 5, 62, 0
11, 40800, Note_on_c, 5, 62, 76
11, 40800, Note_on_c, 5, 74, 76
11, 41039, Note_on_c, 5, 62, 0
11, 41039, Note_on_c, 5, 74, 0
11, 41760, Note_on_c, 5, 76, 84
11, 41760, Note_on_c, 5, 69, 84
11, 42704, Note_on_c, 5, 76, 0
11, 42704, Note_on_c, 5, 69, 0
11, 42720, Note_on_c, 5, 74, 76
11, 42720, Note_on_c, 5, 66, 76
11, 42959, Note_on_c, 5, 74, 0
11, 42959, Note_on_c, 5, 66, 0
11, 43200, Note_on_c, 5, 74, 84
11, 43200, Note_on_c, 5, 62, 84
11, 43904, Note_on_c, 5, 74, 0
11, 43904, Note_on_c, 5, 62, 0
11, 43920, Note_on_c, 5, 62, 76
11, 43920, Note_on_c, 5, 74, 76
11, 44144, Note_on_c, 5, 62, 0
11, 44144, Note_on_c, 5, 74, 0
11, 44160, Note_on_c, 5, 62, 76
11, 44160, Note_on_c, 5, 74, 76
11, 44384, Note_on_c, 5, 62, 0
11, 44384, Note_on_c, 5, 74, 0
11, 44400, Note_on_c, 5, 74, 76
11, 44400, Note_on_c, 5, 62, 76
11, 44624, Note_on_c, 5, 74, 0
11, 44624, Note_on_c, 5, 62, 0
11, 44640, Note_on_c, 5, 74, 76
11, 44640, Note_on_c, 5, 62, 76
11, 44879, Note_on_c, 5, 74, 0
11, 44879, Note_on_c, 5, 62, 0
11, 47460, Note_on_c, 5, 62, 76
11, 47460, Note_on_c, 5, 74, 76
11, 47511, Note_on_c, 5, 62, 0
11, 47511, Note_on_c, 5, 74, 0
11, 47520, Note_on_c, 5, 74, 84
11, 47520, Note_on_c, 5, 62, 84
11, 48719, Note_on_c, 5, 74, 0
11, 48719, Note_on_c, 5, 62, 0
11, 49380, Note_on_c, 5, 62, 76
11, 49380, Note_on_c, 5, 74, 76
11, 49431, Note_on_c, 5, 62, 0
11, 49431, Note_on_c, 5, 74, 0
11, 49440, Note_on_c, 5, 62, 84
11, 49440, Note_on_c, 5, 74, 84
11, 50639, Note_on_c, 5, 62, 0
11, 50639, Note_on_c, 5, 74, 0
11, 54240, Note_on_c, 5, 76, 84
11, 54464, Note_on_c, 5, 76, 0
11, 54480, Note_on_c, 5, 76, 92
11, 56144, Note_on_c, 5, 76, 0
11, 56160, Note_on_c, 5, 76, 92
11, 57344, Note_on_c, 5, 76, 0
11, 57360, Note_on_c, 5, 69, 84
11, 57824, Note_on_c, 5, 69, 0
11, 57840, Note_on_c, 5, 69, 84
11, 58064, Note_on_c, 5, 69, 0
11, 58080, Note_on_c, 5, 76, 92
11, 58424, Note_on_c, 5, 76, 0
11, 58440, Note_on_c, 5, 69, 84
11, 58544, Note_on_c, 5, 69, 0
11, 58560, Note_on_c, 5, 76, 92
11, 58904, Note_on_c, 5, 76, 0
11, 58920, Note_on_c, 5, 69, 84
11, 59024, Note_on_c, 5, 69, 0
11, 59040, Note_on_c, 5, 76, 84
11, 59144, Note_on_c, 5, 76, 0
11, 59160, Note_on_c, 5, 69, 84
11, 59264, Note_on_c, 5, 69, 0
11, 59280, Note_on_c, 5, 76, 84
11, 59384, Note_on_c, 5, 76, 0
11, 59400, Note_on_c, 5, 69, 84
11, 59504, Note_on_c, 5, 69, 0
11, 59520, Note_on_c, 5, 76, 84
11, 59624, Note_on_c, 5, 76, 0
11, 59640, Note_on_c, 5, 69, 84
11, 59744, Note_on_c, 5, 69, 0
11, 59760, Note_on_c, 5, 76, 84
11, 59864, Note_on_c, 5, 76, 0
11, 59880, Note_on_c, 5, 69, 84
11, 59984, Note_on_c, 5, 69, 0
11, 60000, Note_on_c, 5, 76, 92
11, 60704, Note_on_c, 5, 76, 0
11, 60720, Note_on_c, 5, 76, 84
11, 60944, Note_on_c, 5, 76, 0
11, 60960, Note_on_c, 5, 76, 84
11, 61184, Note_on_c, 5, 76, 0
11, 61200, Note_on_c, 5, 76, 84
11, 61424, Note_on_c, 5, 76, 0
11, 61440, Note_on_c, 5, 76, 84
11, 61664, Note_on_c, 5, 76, 0
11, 61680, Note_on_c, 5, 76, 84
11, 61904, Note_on_c, 5, 76, 0
11, 61920, Note_on_c, 5, 69, 52
11, 62159, Note_on_c, 5, 69, 0
11, 65760, Note_on_c, 5, 69, 84
11, 65760, Note_on_c, 5, 66, 84
11, 66224, Note_on_c, 5, 69, 0
11, 66224, Note_on_c, 5, 66, 0
11, 66240, Note_on_c, 5, 69, 84
11, 66240, Note_on_c, 5, 66, 84
11, 66651, Note_on_c, 5, 69, 0
11, 66651, Note_on_c, 5, 66, 0
11, 66660, Note_on_c, 5, 66, 84
11, 66660, Note_on_c, 5, 69, 84
11, 66711, Note_on_c, 5, 66, 0
11, 66711, Note_on_c, 5, 69, 0
11, 66720, Note_on_c, 5, 66, 92
11, 66720, Note_on_c, 5, 69, 92
11, 67439, Note_on_c, 5, 66, 0
11, 67439, Note_on_c, 5, 69, 0
11, 73440, Note_on_c, 5, 66, 84
11, 73440, Note_on_c, 5, 69, 84
11, 73904, Note_on_c, 5, 66, 0
11, 73904, Note_on_c, 5, 69, 0
11, 73920, Note_on_c, 5, 69, 84
11, 73920, Note_on_c, 5, 66, 84
11, 74331, Note_on_c, 5, 69, 0
11, 74331, Note_on_c, 5, 66, 0
11, 74340, Note_on_c, 5, 69, 84
11, 74340, Note_on_c, 5, 66, 84
11, 74391, Note_on_c, 5, 69, 0
11, 74391, Note_on_c, 5, 66, 0
11, 74400, Note_on_c, 5, 66, 92
11, 74400, Note_on_c, 5, 69, 92
11, 75119, Note_on_c, 5, 66, 0
11, 75119, Note_on_c, 5, 69, 0
11, 76320, Note_on_c, 5, 76, 92
11, 77264, Note_on_c, 5, 76, 0
11, 77280, Note_on_c, 5, 76, 92
11, 78224, Note_on_c, 5, 76, 0
11, 78240, Note_on_c, 5, 76, 92
11, 79184, Note_on_c, 5, 76, 0
11, 79200, Note_on_c, 5, 76, 92
11, 80144, Note_on_c, 5, 76, 0
11, 80160, Note_on_c, 5, 76, 92
11, 82079, Note_on_c, 5, 76, 0
11, 83040, Note_on_c, 5, 57, 92
11, 83040, Note_on_c, 5, 69, 92
11, 84239, Note_on_c, 5, 57, 0
11, 84239, Note_on_c, 5, 69, 0
11, 84420, Note_on_c, 5, 62, 84
11, 84420, Note_on_c, 5, 74, 84
11, 84471, Note_on_c, 5, 62, 0
11, 84471, Note_on_c, 5, 74, 0
11, 84480, Note_on_c, 5, 74, 84
11, 84480, Note_on_c, 5, 62, 84
11, 84959, Note_on_c, 5, 74, 0
11, 84959, Note_on_c, 5, 62, 0
11, 85380, Note_on_c, 5, 62, 84
11, 85380, Note_on_c, 5, 74, 84
11, 85431, Note_on_c, 5, 62, 0
11, 85431, Note_on_c, 5, 74, 0
11, 85440, Note_on_c, 5, 74, 84
11, 85440, Note_on_c, 5, 62, 84
11, 85919, Note_on_c, 5, 74, 0
11, 85919, Note_on_c, 5, 62, 0
11, 88260, Note_on_c, 5, 62, 84
11, 88260, Note_on_c, 5, 74, 84
11, 88311, Note_on_c, 5, 62, 0
11, 88311, Note_on_c, 5, 74, 0
11, 88320, Note_on_c, 5, 62, 84
11, 88320, Note_on_c, 5, 74, 84
11, 88799, Note_on_c, 5, 62, 0
11, 88799, Note_on_c, 5, 74, 0
11, 89220, Note_on_c, 5, 62, 84
11, 89220, Note_on_c, 5, 74, 84
11, 89271, Note_on_c, 5, 62, 0
11, 89271, Note_on_c, 5, 74, 0
11, 89280, Note_on_c, 5, 74, 84
11, 89280, Note_on_c, 5, 62, 84
11, 89759, Note_on_c, 5, 74, 0
11, 89759, Note_on_c, 5, 62, 0
11, 97440, Note_on_c, 5, 76, 84
11, 97664, Note_on_c, 5, 76, 0
11, 97680, Note_on_c, 5, 76, 84
11, 97851, Note_on_c, 5, 76, 0
11, 97860, Note_on_c, 5, 76, 84
11, 97911, Note_on_c, 5, 76, 0
11, 97920, Note_on_c, 5, 76, 84
11, 98144, Note_on_c, 5, 76, 0
11, 98160, Note_on_c, 5, 76, 84
11, 98384, Note_on_c, 5, 76, 0
11, 98400, Note_on_c, 5, 76, 84
11, 99104, Note_on_c, 5, 76, 0
11, 99120, Note_on_c, 5, 76, 84
11, 99344, Note_on_c, 5, 76, 0
11, 99360, Note_on_c, 5, 69, 84
11, 99599, Note_on_c, 5, 69, 0
11, 101280, Note_on_c, 5, 62, 84
11, 101280, Note_on_c, 5, 74, 84
11, 101984, Note_on_c, 5, 62, 0
11, 101984, Note_on_c, 5, 74, 0
11, 102000, Note_on_c, 5, 74, 84
11, 102000, Note_on_c, 5, 62, 84
11, 102179, Note_on_c, 5, 74, 0
11, 102179, Note_on_c, 5, 62, 0
11, 102240, Note_on_c, 5, 57, 84
11, 102240, Note_on_c, 5, 69, 84
11, 102419, Note_on_c, 5, 57, 0
11, 102419, Note_on_c, 5, 69, 0
11, 102480, Note_on_c, 5, 69, 84
11, 102480, Note_on_c, 5, 57, 84
11, 102659, Note_on_c, 5, 69, 0
11, 102659, Note_on_c, 5, 57, 0
11, 102720, Note_on_c, 5, 69, 84
11, 102720, Note_on_c, 5, 57, 84
11, 102899, Note_on_c, 5, 69, 0
11, 102899, Note_on_c, 5, 57, 0
11, 102960, Note_on_c, 5, 69, 84
11, 102960, Note_on_c, 5, 57, 84
11, 103139, Note_on_c, 5, 69, 0
11, 103139, Note_on_c, 5, 57, 0
11, 103200, Note_on_c, 5, 69, 84
11, 103200, Note_on_c, 5, 57, 84
11, 103439, Note_on_c, 5, 69, 0
11, 103439, Note_on_c, 5, 57, 0
11, 105120, Note_on_c, 5, 62, 84
11, 105120, Note_on_c, 5, 74, 84
11, 105824, Note_on_c, 5, 62, 0
11, 105824, Note_on_c, 5, 74, 0
11, 105840, Note_on_c, 5, 74, 84
11, 105840, Note_on_c, 5, 62, 84
11, 106019, Note_on_c, 5, 74, 0
11, 106019, Note_on_c, 5, 62, 0
11, 106080, Note_on_c, 5, 57, 84
11, 106080, Note_on_c, 5, 69, 84
11, 106259, Note_on_c, 5, 57, 0
11, 106259, Note_on_c, 5, 69, 0
11, 106320, Note_on_c, 5, 57, 84
11, 106320, Note_on_c, 5, 69, 84
11, 106499, Note_on_c, 5, 57, 0
11, 106499, Note_on_c, 5, 69, 0
11, 106560, Note_on_c, 5, 69, 84
11, 106560, Note_on_c, 5, 57, 84
11, 106739, Note_on_c, 5, 69, 0
11, 106739, Note_on_c, 5, 57, 0
11, 106800, Note_on_c, 5, 57, 84
11, 106800, Note_on_c, 5, 69, 84
11, 106979, Note_on_c, 5, 57, 0
11, 106979, Note_on_c, 5, 69, 0
11, 107040, Note_on_c, 5, 57, 52
11, 107040, Note_on_c, 5, 69, 52
11, 107744, Note_on_c, 5, 57, 0
11, 107744, Note_on_c, 5, 69, 0
11, 107760, Note_on_c, 5, 57, 76
11, 107760, Note_on_c, 5, 69, 76
11, 107984, Note_on_c, 5, 57, 0
11, 107984, Note_on_c, 5, 69, 0
11, 108000, Note_on_c, 5, 69, 52
11, 108000, Note_on_c, 5, 57, 52
11, 108704, Note_on_c, 5, 69, 0
11, 108704, Note_on_c, 5, 57, 0
11, 108720, Note_on_c, 5, 74, 76
11, 108720, Note_on_c, 5, 62, 76
11, 108944, Note_on_c, 5, 74, 0
11, 108944, Note_on_c, 5, 62, 0
11, 108960, Note_on_c, 5, 57, 52
11, 108960, Note_on_c, 5, 69, 52
11, 109664, Note_on_c, 5, 57, 0
11, 109664, Note_on_c, 5, 69, 0
11, 109680, Note_on_c, 5, 57, 76
11, 109680, Note_on_c, 5, 69, 76
11, 109904, Note_on_c, 5, 57, 0
11, 109904, Note_on_c, 5, 69, 0
11, 109920, Note_on_c, 5, 57, 52
11, 109920, Note_on_c, 5, 69, 52
11, 110624, Note_on_c, 5, 57, 0
11, 110624, Note_on_c, 5, 69, 0
11, 110640, Note_on_c, 5, 74, 76
11, 110640, Note_on_c, 5, 62, 76
11, 110864, Note_on_c, 5, 74, 0
11, 110864, Note_on_c, 5, 62, 0
11, 110880, Note_on_c, 5, 69, 52
11, 110880, Note_on_c, 5, 57, 52
11, 111104, Note_on_c, 5, 69, 0
11, 111104, Note_on_c, 5, 57, 0
11, 111120, Note_on_c, 5, 62, 76
11, 111120, Note_on_c, 5, 74, 76
11, 111344, Note_on_c, 5, 62, 0
11, 111344, Note_on_c, 5, 74, 0
11, 111360, Note_on_c, 5, 57, 52
11, 111360, Note_on_c, 5, 69, 52
11, 111584, Note_on_c, 5, 57, 0
11, 111584, Note_on_c, 5, 69, 0
11, 111600, Note_on_c, 5, 74, 76
11, 111600, Note_on_c, 5, 62, 76
11, 111824, Note_on_c, 5, 74, 0
11, 111824, Note_on_c, 5, 62, 0
11, 111840, Note_on_c, 5, 57, 52
11, 111840, Note_on_c, 5, 69, 52
11, 112064, Note_on_c, 5, 57, 0
11, 112064, Note_on_c, 5, 69, 0
11, 112080, Note_on_c, 5, 74, 76
11, 112080, Note_on_c, 5, 62, 76
11, 112304, Note_on_c, 5, 74, 0
11, 112304, Note_on_c, 5, 62, 0
11, 112320, Note_on_c, 5, 57, 52
11, 112320, Note_on_c, 5, 69, 52
11, 112544, Note_on_c, 5, 57, 0
11, 112544, Note_on_c, 5, 69, 0
11, 112560, Note_on_c, 5, 62, 76
11, 112560, Note_on_c, 5, 74, 76
11, 112784, Note_on_c, 5, 62, 0
11, 112784, Note_on_c, 5, 74, 0
11, 112800, Note_on_c, 5, 69, 52
11, 112800, Note_on_c, 5, 57, 52
11, 113039, Note_on_c, 5, 69, 0
11, 113039, Note_on_c, 5, 57, 0
11, 114720, Note_on_c, 5, 69, 84
11, 114720, Note_on_c, 5, 57, 84
11, 115664, Note_on_c, 5, 69, 0
11, 115664, Note_on_c, 5, 57, 0
11, 115680, Note_on_c, 5, 69, 84
11, 115680, Note_on_c, 5, 57, 84
11, 116144, Note_on_c, 5, 69, 0
11, 116144, Note_on_c, 5, 57, 0
11, 116160, Note_on_c, 5, 69, 84
11, 116160, Note_on_c, 5, 57, 84
11, 116624, Note_on_c, 5, 69, 0
11, 116624, Note_on_c, 5, 57, 0
11, 116640, Note_on_c, 5, 69, 84
11, 116640, Note_on_c, 5, 57, 84
11, 116879, Note_on_c, 5, 69, 0
11, 116879, Note_on_c, 5, 57, 0
11, 117120, Note_on_c, 5, 57, 76
11, 117120, Note_on_c, 5, 69, 76
11, 117359, Note_on_c, 5, 57, 0
11, 117359, Note_on_c, 5, 69, 0
11, 118080, Note_on_c, 5, 69, 76
11, 118080, Note_on_c, 5, 57, 76
11, 118319, Note_on_c, 5, 69, 0
11, 118319, Note_on_c, 5, 57, 0
11, 132960, Note_on_c, 5, 62, 76
11, 132960, Note_on_c, 5, 74, 76
11, 133904, Note_on_c, 5, 62, 0
11, 133904, Note_on_c, 5, 74, 0
11, 133920, Note_on_c, 5, 62, 84
11, 133920, Note_on_c, 5, 74, 84
11, 134864, Note_on_c, 5, 62, 0
11, 134864, Note_on_c, 5, 74, 0
11, 134880, Note_on_c, 5, 74, 76
11, 134880, Note_on_c, 5, 62, 76
11, 135119, Note_on_c, 5, 74, 0
11, 135119, Note_on_c, 5, 62, 0
11, 135360, Note_on_c, 5, 62, 84
11, 135360, Note_on_c, 5, 74, 84
11, 136064, Note_on_c, 5, 62, 0
11, 136064, Note_on_c, 5, 74, 0
11, 136080, Note_on_c, 5, 74, 76
11, 136080, Note_on_c, 5, 62, 76
11, 136304, Note_on_c, 5, 74, 0
11, 136304, Note_on_c, 5, 62, 0
11, 136320, Note_on_c, 5, 62, 76
11, 136320, Note_on_c, 5, 74, 76
11, 136544, Note_on_c, 5, 62, 0
11, 136544, Note_on_c, 5, 74, 0
11, 136560, Note_on_c, 5, 74, 76
11, 136560, Note_on_c, 5, 62, 76
11, 136784, Note_on_c, 5, 74, 0
11, 136784, Note_on_c, 5, 62, 0
11, 136800, Note_on_c, 5, 62, 76
11, 136800, Note_on_c, 5, 74, 76
11, 137039, Note_on_c, 5, 62, 0
11, 137039, Note_on_c, 5, 74, 0
11, 137760, Note_on_c, 5, 69, 84
11, 137760, Note_on_c, 5, 76, 84
11, 138704, Note_on_c, 5, 69, 0
11, 138704, Note_on_c, 5, 76, 0
11, 138720, Note_on_c, 5, 66, 76
11, 138720, Note_on_c, 5, 74, 76
11, 138959, Note_on_c, 5, 66, 0
11, 138959, Note_on_c, 5, 74, 0
11, 139200, Note_on_c, 5, 74, 84
11, 139200, Note_on_c, 5, 62, 84
11, 139904, Note_on_c, 5, 74, 0
11, 139904, Note_on_c, 5, 62, 0
11, 139920, Note_on_c, 5, 74, 76
11, 139920, Note_on_c, 5, 62, 76
11, 140144, Note_on_c, 5, 74, 0
11, 140144, Note_on_c, 5, 62, 0
11, 140160, Note_on_c, 5, 62, 76
11, 140160, Note_on_c, 5, 74, 76
11, 140384, Note_on_c, 5, 62, 0
11, 140384, Note_on_c, 5, 74, 0
11, 140400, Note_on_c, 5, 74, 76
11, 140400, Note_on_c, 5, 62, 76
11, 140624, Note_on_c, 5, 74, 0
11, 140624, Note_on_c, 5, 62, 0
11, 140640, Note_on_c, 5, 74, 76
11, 140640, Note_on_c, 5, 62, 76
11, 140879, Note_on_c, 5, 74, 0
11, 140879, Note_on_c, 5, 62, 0
11, 143460, Note_on_c, 5, 74, 76
11, 143460, Note_on_c, 5, 62, 76
11, 143511, Note_on_c, 5, 74, 0
11, 143511, Note_on_c, 5, 62, 0
11, 143520, Note_on_c, 5, 74, 84
11, 143520, Note_on_c, 5, 62, 84
11, 144719, Note_on_c, 5, 74, 0
11, 144719, Note_on_c, 5, 62, 0
11, 145380, Note_on_c, 5, 62, 76
11, 145380, Note_on_c, 5, 74, 76
11, 145431, Note_on_c, 5, 62, 0
11, 145431, Note_on_c, 5, 74, 0
11, 145440, Note_on_c, 5, 74, 84
11, 145440, Note_on_c, 5, 62, 84
11, 146639, Note_on_c, 5, 74, 0
11, 146639, Note_on_c, 5, 62, 0
11, 150240, Note_on_c, 5, 76, 84
11, 150464, Note_on_c, 5, 76, 0
11, 150480, Note_on_c, 5, 76, 92
11, 152144, Note_on_c, 5, 76, 0
11, 152160, Note_on_c, 5, 76, 92
11, 153344, Note_on_c, 5, 76, 0
11, 153360, Note_on_c, 5, 69, 84
11, 153824, Note_on_c, 5, 69, 0
11, 153840, Note_on_c, 5, 69, 84
11, 154064, Note_on_c, 5, 69, 0
11, 154080, Note_on_c, 5, 76, 92
11, 154424, Note_on_c, 5, 76, 0
11, 154440, Note_on_c, 5, 69, 84
11, 154544, Note_on_c, 5, 69, 0
11, 154560, Note_on_c, 5, 76, 92
11, 154904, Note_on_c, 5, 76, 0
11, 154920, Note_on_c, 5, 69, 84
11, 155024, Note_on_c, 5, 69, 0
11, 155040, Note_on_c, 5, 76, 84
11, 155144, Note_on_c, 5, 76, 0
11, 155160, Note_on_c, 5, 69, 84
11, 155264, Note_on_c, 5, 69, 0
11, 155280, Note_on_c, 5, 76, 84
11, 155384, Note_on_c, 5, 76, 0
11, 155400, Note_on_c, 5, 69, 84
11, 155504, Note_on_c, 5, 69, 0
11, 155520, Note_on_c, 5, 76, 84
11, 155624, Note_on_c, 5, 76, 0
11, 155640, Note_on_c, 5, 69, 84
11, 155744, Note_on_c, 5, 69, 0
11, 155760, Note_on_c, 5, 76, 84
11, 155864, Note_on_c, 5, 76, 0
11, 155880, Note_on_c, 5, 69, 84
11, 155984, Note_on_c, 5, 69, 0
11, 156000, Note_on_c, 5, 76, 92
11, 156704, Note_on_c, 5, 76, 0
11, 156720, Note_on_c, 5, 76, 84
11, 156944, Note_on_c, 5, 76, 0
11, 156960, Note_on_c, 5, 76, 84
11, 157184, Note_on_c, 5, 76, 0
11, 157200, Note_on_c, 5, 76, 84
11, 157424, Note_on_c, 5, 76, 0
11, 157440, Note_on_c, 5, 76, 84
11, 157664, Note_on_c, 5, 76, 0
11, 157680, Note_on_c, 5, 76, 84
11, 157904, Note_on_c, 5, 76, 0
11, 157920, Note_on_c, 5, 69, 52
11, 158159, Note_on_c, 5, 69, 0
11, 161760, Note_on_c, 5, 66, 84
11, 161760, Note_on_c, 5, 69, 84
11, 162224, Note_on_c, 5, 66, 0
11, 162224, Note_on_c, 5, 69, 0
11, 162240, Note_on_c, 5, 66, 84
11, 162240, Note_on_c, 5, 69, 84
11, 162651, Note_on_c, 5, 66, 0
11, 162651, Note_on_c, 5, 69, 0
11, 162660, Note_on_c, 5, 66, 84
11, 162660, Note_on_c, 5, 69, 84
11, 162711, Note_on_c, 5, 66, 0
11, 162711, Note_on_c, 5, 69, 0
11, 162720, Note_on_c, 5, 69, 92
11, 162720, Note_on_c, 5, 66, 92
11, 163439, Note_on_c, 5, 69, 0
11, 163439, Note_on_c, 5, 66, 0
11, 169440, Note_on_c, 5, 66, 84
11, 169440, Note_on_c, 5, 69, 84
11, 169904, Note_on_c, 5, 66, 0
11, 169904, Note_on_c, 5, 69, 0
11, 169920, Note_on_c, 5, 69, 84
11, 169920, Note_on_c, 5, 66, 84
11, 170331, Note_on_c, 5, 69, 0
11, 170331, Note_on_c, 5, 66, 0
11, 170340, Note_on_c, 5, 66, 84
11, 170340, Note_on_c, 5, 69, 84
11, 170391, Note_on_c, 5, 66, 0
11, 170391, Note_on_c, 5, 69, 0
11, 170400, Note_on_c, 5, 69, 92
11, 170400, Note_on_c, 5, 66, 92
11, 171119, Note_on_c, 5, 69, 0
11, 171119, Note_on_c, 5, 66, 0
11, 172320, Note_on_c, 5, 76, 92
11, 173264, Note_on_c, 5, 76, 0
11, 173280, Note_on_c, 5, 76, 92
11, 174224, Note_on_c, 5, 76, 0
11, 174240, Note_on_c, 5, 76, 92
11, 175184, Note_on_c, 5, 76, 0
11, 175200, Note_on_c, 5, 76, 92
11, 176144, Note_on_c, 5, 76, 0
11, 176160, Note_on_c, 5, 76, 92
11, 178079, Note_on_c, 5, 76, 0
11, 179040, Note_on_c, 5, 69, 92
11, 179040, Note_on_c, 5, 57, 92
11, 180239, Note_on_c, 5, 69, 0
11, 180239, Note_on_c, 5, 57, 0
11, 180420, Note_on_c, 5, 74, 84
11, 180420, Note_on_c, 5, 62, 84
11, 180471, Note_on_c, 5, 74, 0
11, 180471, Note_on_c, 5, 62, 0
11, 180480, Note_on_c, 5, 62, 84
11, 180480, Note_on_c, 5, 74, 84
11, 180959, Note_on_c, 5, 62, 0
11, 180959, Note_on_c, 5, 74, 0
11, 181380, Note_on_c, 5, 74, 84
11, 181380, Note_on_c, 5, 62, 84
11, 181431, Note_on_c, 5, 74, 0
11, 181431, Note_on_c, 5, 62, 0
11, 181440, Note_on_c, 5, 62, 84
11, 181440, Note_on_c, 5, 74, 84
11, 181919, Note_on_c, 5, 62, 0
11, 181919, Note_on_c, 5, 74, 0
11, 184260, Note_on_c, 5, 62, 84
11, 184260, Note_on_c, 5, 74, 84
11, 184311, Note_on_c, 5, 62, 0
11, 184311, Note_on_c, 5, 74, 0
11, 184320, Note_on_c, 5, 62, 84
11, 184320, Note_on_c, 5, 74, 84
11, 184799, Note_on_c, 5, 62, 0
11, 184799, Note_on_c, 5, 74, 0
11, 185220, Note_on_c, 5, 74, 84
11, 185220, Note_on_c, 5, 62, 84
11, 185271, Note_on_c, 5, 74, 0
11, 185271, Note_on_c, 5, 62, 0
11, 185280, Note_on_c, 5, 74, 84
11, 185280, Note_on_c, 5, 62, 84
11, 185759, Note_on_c, 5, 74, 0
11, 185759, Note_on_c, 5, 62, 0
11, 193440, Note_on_c, 5, 76, 84
11, 193664, Note_on_c, 5, 76, 0
11, 193680, Note_on_c, 5, 76, 84
11, 193851, Note_on_c, 5, 76, 0
11, 193860, Note_on_c, 5, 76, 84
11, 193911, Note_on_c, 5, 76, 0
11, 193920, Note_on_c, 5, 76, 84
11, 194144, Note_on_c, 5, 76, 0
11, 194160, Note_on_c, 5, 76, 84
11, 194384, Note_on_c, 5, 76, 0
11, 194400, Note_on_c, 5, 76, 84
11, 195104, Note_on_c, 5, 76, 0
11, 195120, Note_on_c, 5, 76, 84
11, 195344, Note_on_c, 5, 76, 0
11, 195360, Note_on_c, 5, 69, 84
11, 195599, Note_on_c, 5, 69, 0
11, 197280, Note_on_c, 5, 62, 84
11, 197280, Note_on_c, 5, 74, 84
11, 197984, Note_on_c, 5, 62, 0
11, 197984, Note_on_c, 5, 74, 0
11, 198000, Note_on_c, 5, 62, 84
11, 198000, Note_on_c, 5, 74, 84
11, 198179, Note_on_c, 5, 62, 0
11, 198179, Note_on_c, 5, 74, 0
11, 198240, Note_on_c, 5, 69, 84
11, 198240, Note_on_c, 5, 57, 84
11, 198419, Note_on_c, 5, 69, 0
11, 198419, Note_on_c, 5, 57, 0
11, 198480, Note_on_c, 5, 69, 84
11, 198480, Note_on_c, 5, 57, 84
11, 198659, Note_on_c, 5, 69, 0
11, 198659, Note_on_c, 5, 57, 0
11, 198720, Note_on_c, 5, 57, 84
11, 198720, Note_on_c, 5, 69, 84
11, 198899, Note_on_c, 5, 57, 0
11, 198899, Note_on_c, 5, 69, 0
11, 198960, Note_on_c, 5, 69, 84
11, 198960, Note_on_c, 5, 57, 84
11, 199139, Note_on_c, 5, 69, 0
11, 199139, Note_on_c, 5, 57, 0
11, 199200, Note_on_c, 5, 57, 84
11, 199200, Note_on_c, 5, 69, 84
11, 199439, Note_on_c, 5, 57, 0
11, 199439, Note_on_c, 5, 69, 0
11, 201120, Note_on_c, 5, 74, 84
11, 201120, Note_on_c, 5, 62, 84
11, 201824, Note_on_c, 5, 74, 0
11, 201824, Note_on_c, 5, 62, 0
11, 201840, Note_on_c, 5, 62, 84
11, 201840, Note_on_c, 5, 74, 84
11, 202019, Note_on_c, 5, 62, 0
11, 202019, Note_on_c, 5, 74, 0
11, 202080, Note_on_c, 5, 69, 84
11, 202080, Note_on_c, 5, 57, 84
11, 202259, Note_on_c, 5, 69, 0
11, 202259, Note_on_c, 5, 57, 0
11, 202320, Note_on_c, 5, 69, 84
11, 202320, Note_on_c, 5, 57, 84
11, 202499, Note_on_c, 5, 69, 0
11, 202499, Note_on_c, 5, 57, 0
11, 202560, Note_on_c, 5, 69, 84
11, 202560, Note_on_c, 5, 57, 84
11, 202739, Note_on_c, 5, 69, 0
11, 202739, Note_on_c, 5, 57, 0
11, 202800, Note_on_c, 5, 57, 84
11, 202800, Note_on_c, 5, 69, 84
11, 202979, Note_on_c, 5, 57, 0
11, 202979, Note_on_c, 5, 69, 0
11, 203040, Note_on_c, 5, 69, 52
11, 203040, Note_on_c, 5, 57, 52
11, 203744, Note_on_c, 5, 69, 0
11, 203744, Note_on_c, 5, 57, 0
11, 203760, Note_on_c, 5, 69, 76
11, 203760, Note_on_c, 5, 57, 76
11, 203984, Note_on_c, 5, 69, 0
11, 203984, Note_on_c, 5, 57, 0
11, 204000, Note_on_c, 5, 69, 52
11, 204000, Note_on_c, 5, 57, 52
11, 204704, Note_on_c, 5, 69, 0
11, 204704, Note_on_c, 5, 57, 0
11, 204720, Note_on_c, 5, 74, 76
11, 204720, Note_on_c, 5, 62, 76
11, 204944, Note_on_c, 5, 74, 0
11, 204944, Note_on_c, 5, 62, 0
11, 204960, Note_on_c, 5, 57, 52
11, 204960, Note_on_c, 5, 69, 52
11, 205664, Note_on_c, 5, 57, 0
11, 205664, Note_on_c, 5, 69, 0
11, 205680, Note_on_c, 5, 57, 76
11, 205680, Note_on_c, 5, 69, 76
11, 205904, Note_on_c, 5, 57, 0
11, 205904, Note_on_c, 5, 69, 0
11, 205920, Note_on_c, 5, 57, 52
11, 205920, Note_on_c, 5, 69, 52
11, 206624, Note_on_c, 5, 57, 0
11, 206624, Note_on_c, 5, 69, 0
11, 206640, Note_on_c, 5, 74, 76
11, 206640, Note_on_c, 5, 62, 76
11, 206864, Note_on_c, 5, 74, 0
11, 206864, Note_on_c, 5, 62, 0
11, 206880, Note_on_c, 5, 57, 52
11, 206880, Note_on_c, 5, 69, 52
11, 207104, Note_on_c, 5, 57, 0
11, 207104, Note_on_c, 5, 69, 0
11, 207120, Note_on_c, 5, 62, 76
11, 207120, Note_on_c, 5, 74, 76
11, 207344, Note_on_c, 5, 62, 0
11, 207344, Note_on_c, 5, 74, 0
11, 207360, Note_on_c, 5, 57, 52
11, 207360, Note_on_c, 5, 69, 52
11, 207584, Note_on_c, 5, 57, 0
11, 207584, Note_on_c, 5, 69, 0
11, 207600, Note_on_c, 5, 62, 76
11, 207600, Note_on_c, 5, 74, 76
11, 207824, Note_on_c, 5, 62, 0
11, 207824, Note_on_c, 5, 74, 0
11, 207840, Note_on_c, 5, 69, 52
11, 207840, Note_on_c, 5, 57, 52
11, 208064, Note_on_c, 5, 69, 0
11, 208064, Note_on_c, 5, 57, 0
11, 208080, Note_on_c, 5, 74, 76
11, 208080, Note_on_c, 5, 62, 76
11, 208304, Note_on_c, 5, 74, 0
11, 208304, Note_on_c, 5, 62, 0
11, 208320, Note_on_c, 5, 57, 52
11, 208320, Note_on_c, 5, 69, 52
11, 208544, Note_on_c, 5, 57, 0
11, 208544, Note_on_c, 5, 69, 0
11, 208560, Note_on_c, 5, 62, 76
11, 208560, Note_on_c, 5, 74, 76
11, 208784, Note_on_c, 5, 62, 0
11, 208784, Note_on_c, 5, 74, 0
11, 208800, Note_on_c, 5, 57, 52
11, 208800, Note_on_c, 5, 69, 52
11, 209039, Note_on_c, 5, 57, 0
11, 209039, Note_on_c, 5, 69, 0
11, 210720, Note_on_c, 5, 57, 84
11, 210720, Note_on_c, 5, 69, 84
11, 211664, Note_on_c, 5, 57, 0
11, 211664, Note_on_c, 5, 69, 0
11, 211680, Note_on_c, 5, 69, 84
11, 211680, Note_on_c, 5, 57, 84
11, 212144, Note_on_c, 5, 69, 0
11, 212144, Note_on_c, 5, 57, 0
11, 212160, Note_on_c, 5, 57, 84
11, 212160, Note_on_c, 5, 69, 84
11, 212624, Note_on_c, 5, 57, 0
11, 212624, Note_on_c, 5, 69, 0
11, 212640, Note_on_c, 5, 69, 84
11, 212640, Note_on_c, 5, 57, 84
11, 212879, Note_on_c, 5, 69, 0
11, 212879, Note_on_c, 5, 57, 0
11, 213120, Note_on_c, 5, 69, 76
11, 213120, Note_on_c, 5, 57, 76
11, 213359, Note_on_c, 5, 69, 0
11, 213359, Note_on_c, 5, 57, 0
11, 214080, Note_on_c, 5, 69, 76
11, 214080, Note_on_c, 5, 57, 76
11, 214319, Note_on_c, 5, 69, 0
11, 214319, Note_on_c, 5, 57, 0
11, 216960, Note_on_c, 5, 69, 76
11, 216960, Note_on_c, 5, 57, 76
11, 217199, Note_on_c, 5, 69, 0
11, 217199, Note_on_c, 5, 57, 0
11, 217920, Note_on_c, 5, 69, 76
11, 217920, Note_on_c, 5, 57, 76
11, 218159, Note_on_c, 5, 69, 0
11, 218159, Note_on_c, 5, 57, 0
11, 235680, Note_on_c, 5, 76, 84
11, 236624, Note_on_c, 5, 76, 0
11, 236640, Note_on_c, 5, 69, 76
11, 236879, Note_on_c, 5, 69, 0
11, 237600, Note_on_c, 5, 74, 84
11, 238544, Note_on_c, 5, 74, 0
11, 238560, Note_on_c, 5, 74, 76
11, 238799, Note_on_c, 5, 74, 0
11, 239520, Note_on_c, 5, 76, 84
11, 240239, Note_on_c, 5, 76, 0
11, 241440, Note_on_c, 5, 76, 84
11, 242159, Note_on_c, 5, 76, 0
11, 243360, Note_on_c, 5, 76, 92
11, 244304, Note_on_c, 5, 76, 0
11, 244320, Note_on_c, 5, 76, 92
11, 244320, Note_on_c, 5, 69, 92
11, 245264, Note_on_c, 5, 76, 0
11, 245264, Note_on_c, 5, 69, 0
11, 245280, Note_on_c, 5, 62, 92
11, 245280, Note_on_c, 5, 74, 92
11, 246224, Note_on_c, 5, 62, 0
11, 246224, Note_on_c, 5, 74, 0
11, 246240, Note_on_c, 5, 74, 92
11, 246240, Note_on_c, 5, 62, 92
11, 247199, Note_on_c, 5, 74, 0
11, 247199, Note_on_c, 5, 62, 0
11, 251520, Note_on_c, 5, 74, 92
11, 251520, Note_on_c, 5, 62, 92
11, 252224, Note_on_c, 5, 74, 0
11, 252224, Note_on_c, 5, 62, 0
11, 252240, Note_on_c, 5, 62, 84
11, 252240, Note_on_c, 5, 74, 84
11, 252464, Note_on_c, 5, 62, 0
11, 252464, Note_on_c, 5, 74, 0
11, 252480, Note_on_c, 5, 74, 84
11, 252480, Note_on_c, 5, 62, 84
11, 252704, Note_on_c, 5, 74, 0
11, 252704, Note_on_c, 5, 62, 0
11, 252720, Note_on_c, 5, 62, 84
11, 252720, Note_on_c, 5, 74, 84
11, 252944, Note_on_c, 5, 62, 0
11, 252944, Note_on_c, 5, 74, 0
11, 252960, Note_on_c, 5, 62, 84
11, 252960, Note_on_c, 5, 74, 84
11, 253199, Note_on_c, 5, 62, 0
11, 253199, Note_on_c, 5, 74, 0
11, 253440, Note_on_c, 5, 62, 92
11, 253440, Note_on_c, 5, 74, 92
11, 254144, Note_on_c, 5, 62, 0
11, 254144, Note_on_c, 5, 74, 0
11, 254160, Note_on_c, 5, 74, 84
11, 254160, Note_on_c, 5, 62, 84
11, 254384, Note_on_c, 5, 74, 0
11, 254384, Note_on_c, 5, 62, 0
11, 254400, Note_on_c, 5, 74, 84
11, 254400, Note_on_c, 5, 62, 84
11, 254624, Note_on_c, 5, 74, 0
11, 254624, Note_on_c, 5, 62, 0
11, 254640, Note_on_c, 5, 62, 84
11, 254640, Note_on_c, 5, 74, 84
11, 254864, Note_on_c, 5, 62, 0
11, 254864, Note_on_c, 5, 74, 0
11, 254880, Note_on_c, 5, 62, 84
11, 254880, Note_on_c, 5, 74, 84
11, 255119, Note_on_c, 5, 62, 0
11, 255119, Note_on_c, 5, 74, 0
11, 255360, Note_on_c, 5, 62, 92
11, 255360, Note_on_c, 5, 74, 92
11, 256064, Note_on_c, 5, 62, 0
11, 256064, Note_on_c, 5, 74, 0
11, 256080, Note_on_c, 5, 62, 84
11, 256080, Note_on_c, 5, 74, 84
11, 256304, Note_on_c, 5, 62, 0
11, 256304, Note_on_c, 5, 74, 0
11, 256320, Note_on_c, 5, 62, 84
11, 256320, Note_on_c, 5, 74, 84
11, 256544, Note_on_c, 5, 62, 0
11, 256544, Note_on_c, 5, 74, 0
11, 256560, Note_on_c, 5, 74, 84
11, 256560, Note_on_c, 5, 62, 84
11, 256784, Note_on_c, 5, 74, 0
11, 256784, Note_on_c, 5, 62, 0
11, 256800, Note_on_c, 5, 74, 84
11, 256800, Note_on_c, 5, 62, 84
11, 257039, Note_on_c, 5, 74, 0
11, 257039, Note_on_c, 5, 62, 0
11, 257280, Note_on_c, 5, 62, 92
11, 257280, Note_on_c, 5, 74, 92
11, 257984, Note_on_c, 5, 62, 0
11, 257984, Note_on_c, 5, 74, 0
11, 258000, Note_on_c, 5, 74, 84
11, 258000, Note_on_c, 5, 62, 84
11, 258224, Note_on_c, 5, 74, 0
11, 258224, Note_on_c, 5, 62, 0
11, 258240, Note_on_c, 5, 62, 84
11, 258240, Note_on_c, 5, 74, 84
11, 258464, Note_on_c, 5, 62, 0
11, 258464, Note_on_c, 5, 74, 0
11, 258480, Note_on_c, 5, 74, 84
11, 258480, Note_on_c, 5, 62, 84
11, 258704, Note_on_c, 5, 74, 0
11, 258704, Note_on_c, 5, 62, 0
11, 258720, Note_on_c, 5, 74, 84
11, 258720, Note_on_c, 5, 62, 84
11, 258959, Note_on_c, 5, 74, 0
11, 258959, Note_on_c, 5, 62, 0
11, 313440, Note_on_c, 5, 69, 76
11, 315104, Note_on_c, 5, 69, 0
11, 315120, Note_on_c, 5, 62, 76
11, 315120, Note_on_c, 5, 74, 76
11, 315344, Note_on_c, 5, 62, 0
11, 315344, Note_on_c, 5, 74, 0
11, 315360, Note_on_c, 5, 69, 76
11, 315360, Note_on_c, 5, 57, 76
11, 315599, Note_on_c, 5, 69, 0
11, 315599, Note_on_c, 5, 57, 0
11, 317280, Note_on_c, 5, 69, 76
11, 318944, Note_on_c, 5, 69, 0
11, 318960, Note_on_c, 5, 62, 76
11, 318960, Note_on_c, 5, 74, 76
11, 319184, Note_on_c, 5, 62, 0
11, 319184, Note_on_c, 5, 74, 0
11, 319200, Note_on_c, 5, 69, 84
11, 319200, Note_on_c, 5, 57, 84
11, 319439, Note_on_c, 5, 69, 0
11, 319439, Note_on_c, 5, 57, 0
11, 319680, Note_on_c, 5, 69, 84
11, 319680, Note_on_c, 5, 57, 84
11, 319919, Note_on_c, 5, 69, 0
11, 319919, Note_on_c, 5, 57, 0
11, 320160, Note_on_c, 5, 57, 84
11, 320160, Note_on_c, 5, 69, 84
11, 320384, Note_on_c, 5, 57, 0
11, 320384, Note_on_c, 5, 69, 0
11, 320400, Note_on_c, 5, 57, 76
11, 320400, Note_on_c, 5, 69, 76
11, 320624, Note_on_c, 5, 57, 0
11, 320624, Note_on_c, 5, 69, 0
11, 320640, Note_on_c, 5, 69, 76
11, 320640, Note_on_c, 5, 57, 76
11, 320864, Note_on_c, 5, 69, 0
11, 320864, Note_on_c, 5, 57, 0
11, 320880, Note_on_c, 5, 57, 76
11, 320880, Note_on_c, 5, 69, 76
11, 321104, Note_on_c, 5, 57, 0
11, 321104, Note_on_c, 5, 69, 0
11, 321120, Note_on_c, 5, 57, 76
11, 321120, Note_on_c, 5, 69, 76
11, 321344, Note_on_c, 5, 57, 0
11, 321344, Note_on_c, 5, 69, 0
11, 321360, Note_on_c, 5, 69, 84
11, 321360, Note_on_c, 5, 57, 84
11, 321824, Note_on_c, 5, 69, 0
11, 321824, Note_on_c, 5, 57, 0
11, 321840, Note_on_c, 5, 69, 76
11, 321840, Note_on_c, 5, 57, 76
11, 322019, Note_on_c, 5, 69, 0
11, 322019, Note_on_c, 5, 57, 0
11, 322080, Note_on_c, 5, 57, 76
11, 322080, Note_on_c, 5, 69, 76
11, 322259, Note_on_c, 5, 57, 0
11, 322259, Note_on_c, 5, 69, 0
11, 322320, Note_on_c, 5, 57, 76
11, 322320, Note_on_c, 5, 69, 76
11, 322499, Note_on_c, 5, 57, 0
11, 322499, Note_on_c, 5, 69, 0
11, 322560, Note_on_c, 5, 57, 76
11, 322560, Note_on_c, 5, 69, 76
11, 322739, Note_on_c, 5, 57, 0
11, 322739, Note_on_c, 5, 69, 0
11, 322800, Note_on_c, 5, 57, 76
11, 322800, Note_on_c, 5, 69, 76
11, 322979, Note_on_c, 5, 57, 0
11, 322979, Note_on_c, 5, 69, 0
11, 323040, Note_on_c, 5, 62, 52
11, 323279, Note_on_c, 5, 62, 0
11, 326880, Note_on_c, 5, 66, 84
11, 326880, Note_on_c, 5, 74, 84
11, 327344, Note_on_c, 5, 66, 0
11, 327344, Note_on_c, 5, 74, 0
11, 327360, Note_on_c, 5, 66, 84
11, 327360, Note_on_c, 5, 74, 84
11, 327771, Note_on_c, 5, 66, 0
11, 327771, Note_on_c, 5, 74, 0
11, 327780, Note_on_c, 5, 74, 84
11, 327780, Note_on_c, 5, 66, 84
11, 327831, Note_on_c, 5, 74, 0
11, 327831, Note_on_c, 5, 66, 0
11, 327840, Note_on_c, 5, 66, 92
11, 327840, Note_on_c, 5, 74, 92
11, 328559, Note_on_c, 5, 66, 0
11, 328559, Note_on_c, 5, 74, 0
11, 334560, Note_on_c, 5, 62, 84
11, 334560, Note_on_c, 5, 74, 84
11, 335024, Note_on_c, 5, 62, 0
11, 335024, Note_on_c, 5, 74, 0
11, 335040, Note_on_c, 5, 62, 84
11, 335040, Note_on_c, 5, 74, 84
11, 335451, Note_on_c, 5, 62, 0
11, 335451, Note_on_c, 5, 74, 0
11, 335460, Note_on_c, 5, 74, 84
11, 335460, Note_on_c, 5, 62, 84
11, 335511, Note_on_c, 5, 74, 0
11, 335511, Note_on_c, 5, 62, 0
11, 335520, Note_on_c, 5, 74, 92
11, 335520, Note_on_c, 5, 62, 92
11, 336239, Note_on_c, 5, 74, 0
11, 336239, Note_on_c, 5, 62, 0
11, 337440, Note_on_c, 5, 69, 92
11, 338384, Note_on_c, 5, 69, 0
11, 338400, Note_on_c, 5, 69, 92
11, 339344, Note_on_c, 5, 69, 0
11, 339360, Note_on_c, 5, 81, 92
11, 339360, Note_on_c, 5, 69, 92
11, 340304, Note_on_c, 5, 81, 0
11, 340304, Note_on_c, 5, 69, 0
11, 340320, Note_on_c, 5, 81, 92
11, 340320, Note_on_c, 5, 69, 92
11, 341264, Note_on_c, 5, 81, 0
11, 341264, Note_on_c, 5, 69, 0
11, 341280, Note_on_c, 5, 81, 92
11, 341280, Note_on_c, 5, 69, 92
11, 343184, Note_on_c, 5, 81, 0
11, 343184, Note_on_c, 5, 69, 0
11, 343200, Note_on_c, 5, 66, 92
11, 343200, Note_on_c, 5, 78, 92
11, 344144, Note_on_c, 5, 66, 0
11, 344144, Note_on_c, 5, 78, 0
11, 344160, Note_on_c, 5, 74, 92
11, 344160, Note_on_c, 5, 62, 92
11, 345359, Note_on_c, 5, 74, 0
11, 345359, Note_on_c, 5, 62, 0
11, 345540, Note_on_c, 5, 62, 84
11, 345540, Note_on_c, 5, 74, 84
11, 345591, Note_on_c, 5, 62, 0
11, 345591, Note_on_c, 5, 74, 0
11, 345600, Note_on_c, 5, 74, 84
11, 345600, Note_on_c, 5, 62, 84
11, 346079, Note_on_c, 5, 74, 0
11, 346079, Note_on_c, 5, 62, 0
11, 349380, Note_on_c, 5, 74, 84
11, 349380, Note_on_c, 5, 62, 84
11, 349431, Note_on_c, 5, 74, 0
11, 349431, Note_on_c, 5, 62, 0
11, 349440, Note_on_c, 5, 62, 84
11, 349440, Note_on_c, 5, 74, 84
11, 349919, Note_on_c, 5, 62, 0
11, 349919, Note_on_c, 5, 74, 0
11, 359520, Note_on_c, 5, 69, 84
11, 359520, Note_on_c, 5, 76, 84
11, 359744, Note_on_c, 5, 69, 0
11, 359744, Note_on_c, 5, 76, 0
11, 359760, Note_on_c, 5, 76, 84
11, 359760, Note_on_c, 5, 69, 84
11, 359931, Note_on_c, 5, 76, 0
11, 359931, Note_on_c, 5, 69, 0
11, 359940, Note_on_c, 5, 69, 84
11, 359940, Note_on_c, 5, 76, 84
11, 359991, Note_on_c, 5, 69, 0
11, 359991, Note_on_c, 5, 76, 0
11, 360000, Note_on_c, 5, 76, 84
11, 360000, Note_on_c, 5, 69, 84
11, 360224, Note_on_c, 5, 76, 0
11, 360224, Note_on_c, 5, 69, 0
11, 360240, Note_on_c, 5, 76, 84
11, 360240, Note_on_c, 5, 69, 84
11, 360464, Note_on_c, 5, 76, 0
11, 360464, Note_on_c, 5, 69, 0
11, 360480, Note_on_c, 5, 66, 84
11, 360480, Note_on_c, 5, 74, 84
11, 360719, Note_on_c, 5, 66, 0
11, 360719, Note_on_c, 5, 74, 0
11, 362400, Note_on_c, 5, 62, 84
11, 362400, Note_on_c, 5, 74, 84
11, 363104, Note_on_c, 5, 62, 0
11, 363104, Note_on_c, 5, 74, 0
11, 363120, Note_on_c, 5, 62, 84
11, 363120, Note_on_c, 5, 74, 84
11, 363299, Note_on_c, 5, 62, 0
11, 363299, Note_on_c, 5, 74, 0
11, 363360, Note_on_c, 5, 62, 84
11, 363360, Note_on_c, 5, 74, 84
11, 363539, Note_on_c, 5, 62, 0
11, 363539, Note_on_c, 5, 74, 0
11, 363600, Note_on_c, 5, 62, 84
11, 363600, Note_on_c, 5, 74, 84
11, 363779, Note_on_c, 5, 62, 0
11, 363779, Note_on_c, 5, 74, 0
11, 363840, Note_on_c, 5, 74, 84
11, 363840, Note_on_c, 5, 62, 84
11, 364019, Note_on_c, 5, 74, 0
11, 364019, Note_on_c, 5, 62, 0
11, 364080, Note_on_c, 5, 62, 84
11, 364080, Note_on_c, 5, 74, 84
11, 364259, Note_on_c, 5, 62, 0
11, 364259, Note_on_c, 5, 74, 0
11, 364320, Note_on_c, 5, 62, 84
11, 364320, Note_on_c, 5, 74, 84
11, 364559, Note_on_c, 5, 62, 0
11, 364559, Note_on_c, 5, 74, 0
11, 366240, Note_on_c, 5, 62, 84
11, 366240, Note_on_c, 5, 74, 84
11, 366944, Note_on_c, 5, 62, 0
11, 366944, Note_on_c, 5, 74, 0
11, 366960, Note_on_c, 5, 62, 84
11, 366960, Note_on_c, 5, 74, 84
11, 367139, Note_on_c, 5, 62, 0
11, 367139, Note_on_c, 5, 74, 0
11, 367200, Note_on_c, 5, 74, 84
11, 367200, Note_on_c, 5, 62, 84
11, 367379, Note_on_c, 5, 74, 0
11, 367379, Note_on_c, 5, 62, 0
11, 367440, Note_on_c, 5, 74, 84
11, 367440, Note_on_c, 5, 62, 84
11, 367619, Note_on_c, 5, 74, 0
11, 367619, Note_on_c, 5, 62, 0
11, 367680, Note_on_c, 5, 74, 84
11, 367680, Note_on_c, 5, 62, 84
11, 367859, Note_on_c, 5, 74, 0
11, 367859, Note_on_c, 5, 62, 0
11, 367920, Note_on_c, 5, 74, 84
11, 367920, Note_on_c, 5, 62, 84
11, 368099, Note_on_c, 5, 74, 0
11, 368099, Note_on_c, 5, 62, 0
11, 368160, Note_on_c, 5, 74, 52
11, 368160, Note_on_c, 5, 62, 52
11, 368399, Note_on_c, 5, 74, 0
11, 368399, Note_on_c, 5, 62, 0
11, 368880, Note_on_c, 5, 74, 76
11, 368880, Note_on_c, 5, 62, 76
11, 369104, Note_on_c, 5, 74, 0
11, 369104, Note_on_c, 5, 62, 0
11, 369120, Note_on_c, 5, 62, 52
11, 369120, Note_on_c, 5, 74, 52
11, 369359, Note_on_c, 5, 62, 0
11, 369359, Note_on_c, 5, 74, 0
11, 369840, Note_on_c, 5, 62, 76
11, 369840, Note_on_c, 5, 74, 76
11, 370064, Note_on_c, 5, 62, 0
11, 370064, Note_on_c, 5, 74, 0
11, 370080, Note_on_c, 5, 74, 52
11, 370080, Note_on_c, 5, 62, 52
11, 370319, Note_on_c, 5, 74, 0
11, 370319, Note_on_c, 5, 62, 0
11, 370800, Note_on_c, 5, 74, 76
11, 370800, Note_on_c, 5, 62, 76
11, 371024, Note_on_c, 5, 74, 0
11, 371024, Note_on_c, 5, 62, 0
11, 371040, Note_on_c, 5, 62, 52
11, 371040, Note_on_c, 5, 74, 52
11, 371279, Note_on_c, 5, 62, 0
11, 371279, Note_on_c, 5, 74, 0
11, 371760, Note_on_c, 5, 62, 76
11, 371760, Note_on_c, 5, 74, 76
11, 371984, Note_on_c, 5, 62, 0
11, 371984, Note_on_c, 5, 74, 0
11, 372000, Note_on_c, 5, 74, 52
11, 372000, Note_on_c, 5, 62, 52
11, 372179, Note_on_c, 5, 74, 0
11, 372179, Note_on_c, 5, 62, 0
11, 372240, Note_on_c, 5, 62, 76
11, 372240, Note_on_c, 5, 74, 76
11, 372419, Note_on_c, 5, 62, 0
11, 372419, Note_on_c, 5, 74, 0
11, 372480, Note_on_c, 5, 74, 52
11, 372480, Note_on_c, 5, 62, 52
11, 372659, Note_on_c, 5, 74, 0
11, 372659, Note_on_c, 5, 62, 0
11, 372720, Note_on_c, 5, 62, 76
11, 372720, Note_on_c, 5, 74, 76
11, 372899, Note_on_c, 5, 62, 0
11, 372899, Note_on_c, 5, 74, 0
11, 372960, Note_on_c, 5, 74, 52
11, 372960, Note_on_c, 5, 62, 52
11, 373139, Note_on_c, 5, 74, 0
11, 373139, Note_on_c, 5, 62, 0
11, 373200, Note_on_c, 5, 74, 76
11, 373200, Note_on_c, 5, 62, 76
11, 373379, Note_on_c, 5, 74, 0
11, 373379, Note_on_c, 5, 62, 0
11, 373440, Note_on_c, 5, 62, 52
11, 373440, Note_on_c, 5, 74, 52
11, 373619, Note_on_c, 5, 62, 0
11, 373619, Note_on_c, 5, 74, 0
11, 373680, Note_on_c, 5, 74, 76
11, 373680, Note_on_c, 5, 62, 76
11, 373859, Note_on_c, 5, 74, 0
11, 373859, Note_on_c, 5, 62, 0
11, 373920, Note_on_c, 5, 74, 84
11, 374864, Note_on_c, 5, 74, 0
11, 374880, Note_on_c, 5, 69, 84
11, 375344, Note_on_c, 5, 69, 0
11, 375360, Note_on_c, 5, 66, 84
11, 375824, Note_on_c, 5, 66, 0
11, 375840, Note_on_c, 5, 62, 84
11, 376784, Note_on_c, 5, 62, 0
11, 376800, Note_on_c, 5, 66, 84
11, 377264, Note_on_c, 5, 66, 0
11, 377280, Note_on_c, 5, 69, 84
11, 377744, Note_on_c, 5, 69, 0
11, 377760, Note_on_c, 5, 74, 84
11, 377760, Note_on_c, 5, 62, 84
11, 377999, Note_on_c, 5, 74, 0
11, 377999, Note_on_c, 5, 62, 0
11, 378240, Note_on_c, 5, 62, 76
11, 378240, Note_on_c, 5, 74, 76
11, 378479, Note_on_c, 5, 62, 0
11, 378479, Note_on_c, 5, 74, 0
11, 379200, Note_on_c, 5, 74, 76
11, 379200, Note_on_c, 5, 62, 76
11, 379439, Note_on_c, 5, 74, 0
11, 379439, Note_on_c, 5, 62, 0
11, 385920, Note_on_c, 5, 62, 76
11, 385920, Note_on_c, 5, 74, 76
11, 387104, Note_on_c, 5, 62, 0
11, 387104, Note_on_c, 5, 74, 0
11, 387120, Note_on_c, 5, 69, 76
11, 387344, Note_on_c, 5, 69, 0
11, 387360, Note_on_c, 5, 76, 76
11, 387599, Note_on_c, 5, 76, 0
11, 387840, Note_on_c, 5, 76, 76
11, 389024, Note_on_c, 5, 76, 0
11, 389040, Note_on_c, 5, 69, 76
11, 389040, Note_on_c, 5, 57, 76
11, 389264, Note_on_c, 5, 69, 0
11, 389264, Note_on_c, 5, 57, 0
11, 389280, Note_on_c, 5, 62, 76
11, 389280, Note_on_c, 5, 74, 76
11, 389504, Note_on_c, 5, 62, 0
11, 389504, Note_on_c, 5, 74, 0
11, 389520, Note_on_c, 5, 62, 84
11, 389520, Note_on_c, 5, 74, 84
11, 389984, Note_on_c, 5, 62, 0
11, 389984, Note_on_c, 5, 74, 0
11, 390000, Note_on_c, 5, 74, 76
11, 390000, Note_on_c, 5, 62, 76
11, 390224, Note_on_c, 5, 74, 0
11, 390224, Note_on_c, 5, 62, 0
11, 390240, Note_on_c, 5, 62, 76
11, 390240, Note_on_c, 5, 74, 76
11, 390479, Note_on_c, 5, 62, 0
11, 390479, Note_on_c, 5, 74, 0
11, 391200, Note_on_c, 5, 57, 76
11, 391200, Note_on_c, 5, 69, 76
11, 391439, Note_on_c, 5, 57, 0
11, 391439, Note_on_c, 5, 69, 0
11, 393120, Note_on_c, 5, 76, 84
11, 393120, Note_on_c, 5, 69, 84
11, 394079, Note_on_c, 5, 76, 0
11, 394079, Note_on_c, 5, 69, 0
11, 395040, Note_on_c, 5, 74, 84
11, 395040, Note_on_c, 5, 62, 84
11, 395984, Note_on_c, 5, 74, 0
11, 395984, Note_on_c, 5, 62, 0
11, 396000, Note_on_c, 5, 57, 84
11, 396000, Note_on_c, 5, 69, 84
11, 396464, Note_on_c, 5, 57, 0
11, 396464, Note_on_c, 5, 69, 0
11, 396480, Note_on_c, 5, 69, 84
11, 396480, Note_on_c, 5, 57, 84
11, 396944, Note_on_c, 5, 69, 0
11, 396944, Note_on_c, 5, 57, 0
11, 396960, Note_on_c, 5, 74, 84
11, 396960, Note_on_c, 5, 62, 84
11, 397199, Note_on_c, 5, 74, 0
11, 397199, Note_on_c, 5, 62, 0
11, 398880, Note_on_c, 5, 74, 84
11, 398880, Note_on_c, 5, 62, 84
11, 399839, Note_on_c, 5, 74, 0
11, 399839, Note_on_c, 5, 62, 0
11, 401280, Note_on_c, 5, 62, 84
11, 401280, Note_on_c, 5, 74, 84
11, 401759, Note_on_c, 5, 62, 0
11, 401759, Note_on_c, 5, 74, 0
11, 402240, Note_on_c, 5, 69, 84
11, 402240, Note_on_c, 5, 57, 84
11, 402704, Note_on_c, 5, 69, 0
11, 402704, Note_on_c, 5, 57, 0
11, 402720, Note_on_c, 5, 69, 84
11, 402720, Note_on_c, 5, 57, 84
11, 403184, Note_on_c, 5, 69, 0
11, 403184, Note_on_c, 5, 57, 0
11, 403200, Note_on_c, 5, 69, 84
11, 403200, Note_on_c, 5, 57, 84
11, 403664, Note_on_c, 5, 69, 0
11, 403664, Note_on_c, 5, 57, 0
11, 403680, Note_on_c, 5, 69, 84
11, 403680, Note_on_c, 5, 57, 84
11, 404639, Note_on_c, 5, 69, 0
11, 404639, Note_on_c, 5, 57, 0
11, 409440, Note_on_c, 5, 78, 84
11, 409440, Note_on_c, 5, 66, 84
11, 409904, Note_on_c, 5, 66, 0
11, 410384, Note_on_c, 5, 78, 0
11, 410400, Note_on_c, 5, 78, 84
11, 410400, Note_on_c, 5, 79, 84
11, 410864, Note_on_c, 5, 78, 0
11, 410880, Note_on_c, 5, 76, 84
11, 411344, Note_on_c, 5, 79, 0
11, 411360, Note_on_c, 5, 78, 84
11, 411824, Note_on_c, 5, 76, 0
11, 411840, Note_on_c, 5, 74, 84
11, 412304, Note_on_c, 5, 78, 0
11, 412304, Note_on_c, 5, 74, 0
11, 412320, Note_on_c, 5, 76, 92
11, 412320, Note_on_c, 5, 74, 92
11, 413264, Note_on_c, 5, 76, 0
11, 413264, Note_on_c, 5, 74, 0
11, 413280, Note_on_c, 5, 69, 92
11, 413280, Note_on_c, 5, 76, 92
11, 414224, Note_on_c, 5, 69, 0
11, 414224, Note_on_c, 5, 76, 0
11, 414240, Note_on_c, 5, 74, 84
11, 414240, Note_on_c, 5, 62, 84
11, 414479, Note_on_c, 5, 74, 0
11, 414479, Note_on_c, 5, 62, 0
11, 416640, Note_on_c, 5, 62, 84
11, 416640, Note_on_c, 5, 74, 84
11, 416879, Note_on_c, 5, 62, 0
11, 416879, Note_on_c, 5, 74, 0
11, 417120, Note_on_c, 5, 62, 84
11, 417120, Note_on_c, 5, 74, 84
11, 417359, Note_on_c, 5, 62, 0
11, 417359, Note_on_c, 5, 74, 0
11, 417600, Note_on_c, 5, 69, 84
11, 417600, Note_on_c, 5, 57, 84
11, 417839, Note_on_c, 5, 69, 0
11, 417839, Note_on_c, 5, 57, 0
11, 418080, Note_on_c, 5, 74, 84
11, 418080, Note_on_c, 5, 62, 84
11, 418799, Note_on_c, 5, 74, 0
11, 418799, Note_on_c, 5, 62, 0
11, 420480, Note_on_c, 5, 74, 92
11, 420480, Note_on_c, 5, 62, 92
11, 420719, Note_on_c, 5, 74, 0
11, 420719, Note_on_c, 5, 62, 0
11, 420960, Note_on_c, 5, 62, 84
11, 420960, Note_on_c, 5, 74, 84
11, 421199, Note_on_c, 5, 62, 0
11, 421199, Note_on_c, 5, 74, 0
11, 421440, Note_on_c, 5, 69, 84
11, 421440, Note_on_c, 5, 57, 84
11, 421679, Note_on_c, 5, 69, 0
11, 421679, Note_on_c, 5, 57, 0
11, 421920, Note_on_c, 5, 74, 84
11, 421920, Note_on_c, 5, 62, 84
11, 422159, Note_on_c, 5, 74, 0
11, 422159, Note_on_c, 5, 62, 0
11, 422400, Note_on_c, 5, 74, 84
11, 422400, Note_on_c, 5, 62, 84
11, 422639, Note_on_c, 5, 74, 0
11, 422639, Note_on_c, 5, 62, 0
11, 422880, Note_on_c, 5, 74, 84
11, 422880, Note_on_c, 5, 62, 84
11, 423119, Note_on_c, 5, 74, 0
11, 423119, Note_on_c, 5, 62, 0
11, 423360, Note_on_c, 5, 69, 84
11, 423360, Note_on_c, 5, 57, 84
11, 423599, Note_on_c, 5, 69, 0
11, 423599, Note_on_c, 5, 57, 0
11, 423840, Note_on_c, 5, 62, 76
11, 423840, Note_on_c, 5, 74, 76
11, 424731, Note_on_c, 5, 62, 0
11, 424731, Note_on_c, 5, 74, 0
11, 424740, Note_on_c, 5, 62, 76
11, 424791, Note_on_c, 5, 62, 0
11, 424800, Note_on_c, 5, 66, 76
11, 425211, Note_on_c, 5, 66, 0
11, 425220, Note_on_c, 5, 66, 76
11, 425271, Note_on_c, 5, 66, 0
11, 425280, Note_on_c, 5, 69, 76
11, 425691, Note_on_c, 5, 69, 0
11, 425700, Note_on_c, 5, 69, 76
11, 425751, Note_on_c, 5, 69, 0
11, 425760, Note_on_c, 5, 74, 84
11, 426651, Note_on_c, 5, 74, 0
11, 426660, Note_on_c, 5, 74, 76
11, 426711, Note_on_c, 5, 74, 0
11, 426720, Note_on_c, 5, 69, 76
11, 427131, Note_on_c, 5, 69, 0
11, 427140, Note_on_c, 5, 69, 76
11, 427191, Note_on_c, 5, 69, 0
11, 427200, Note_on_c, 5, 66, 76
11, 427611, Note_on_c, 5, 66, 0
11, 427620, Note_on_c, 5, 66, 76
11, 427671, Note_on_c, 5, 66, 0
11, 427680, Note_on_c, 5, 62, 76
11, 427919, Note_on_c, 5, 62, 0
11, 428100, Note_on_c, 5, 74, 76
11, 428100, Note_on_c, 5, 62, 76
11, 428144, Note_on_c, 5, 74, 0
11, 428144, Note_on_c, 5, 62, 0
11, 428160, Note_on_c, 5, 74, 76
11, 428160, Note_on_c, 5, 62, 76
11, 428339, Note_on_c, 5, 74, 0
11, 428339, Note_on_c, 5, 62, 0
11, 429060, Note_on_c, 5, 69, 76
11, 429060, Note_on_c, 5, 57, 76
11, 429104, Note_on_c, 5, 69, 0
11, 429104, Note_on_c, 5, 57, 0
11, 429120, Note_on_c, 5, 69, 76
11, 429120, Note_on_c, 5, 57, 76
11, 429299, Note_on_c, 5, 69, 0
11, 429299, Note_on_c, 5, 57, 0
11, 430020, Note_on_c, 5, 62, 76
11, 430020, Note_on_c, 5, 74, 76
11, 430064, Note_on_c, 5, 62, 0
11, 430064, Note_on_c, 5, 74, 0
11, 430080, Note_on_c, 5, 62, 76
11, 430080, Note_on_c, 5, 74, 76
11, 430259, Note_on_c, 5, 62, 0
11, 430259, Note_on_c, 5, 74, 0
11, 430980, Note_on_c, 5, 69, 76
11, 430980, Note_on_c, 5, 57, 76
11, 431024, Note_on_c, 5, 69, 0
11, 431024, Note_on_c, 5, 57, 0
11, 431040, Note_on_c, 5, 69, 76
11, 431040, Note_on_c, 5, 57, 76
11, 431219, Note_on_c, 5, 69, 0
11, 431219, Note_on_c, 5, 57, 0
11, 431520, Note_on_c, 5, 74, 76
11, 431520, Note_on_c, 5, 62, 76
11, 431759, Note_on_c, 5, 74, 0
11, 431759, Note_on_c, 5, 62, 0
11, 432420, Note_on_c, 5, 62, 84
11, 432471, Note_on_c, 5, 62, 0
11, 432480, Note_on_c, 5, 62, 84
11, 432719, Note_on_c, 5, 62, 0
11, 432960, Note_on_c, 5, 62, 84
11, 433199, Note_on_c, 5, 62, 0
11, 433440, Note_on_c, 5, 62, 84
11, 434399, Note_on_c, 5, 62, 0
11, 434399, End_track
12, 0, Start_track
12, 0, Title_t, "Timpani"
12, 0, MIDI_port, 0
12, 0, Program_c, 6, 47
12, 0, Control_c, 6, 7, 96
12, 0, Control_c, 6, 10, 25
12, 0, Control_c, 6, 11, 127
12, 690, Note_on_c, 6, 50, 84
12, 719, Note_on_c, 6, 50, 0
12, 720, Note_on_c, 6, 50, 84
12, 1079, Note_on_c, 6, 50, 0
12, 3570, Note_on_c, 6, 50, 84
12, 3599, Note_on_c, 6, 50, 0
12, 3600, Note_on_c, 6, 50, 84
12, 3959, Note_on_c, 6, 50, 0
12, 8520, Note_on_c, 6, 45, 84
12, 8639, Note_on_c, 6, 45, 0
12, 8640, Note_on_c, 6, 50, 84
12, 8729, Note_on_c, 6, 50, 0
12, 16530, Note_on_c, 6, 45, 84
12, 16559, Note_on_c, 6, 45, 0
12, 16560, Note_on_c, 6, 50, 84
12, 16769, Note_on_c, 6, 50, 0
12, 16770, Note_on_c, 6, 50, 84
12, 16799, Note_on_c, 6, 50, 0
12, 16800, Note_on_c, 6, 45, 84
12, 17009, Note_on_c, 6, 45, 0
12, 17010, Note_on_c, 6, 45, 84
12, 17039, Note_on_c, 6, 45, 0
12, 17040, Note_on_c, 6, 45, 84
12, 17129, Note_on_c, 6, 45, 0
12, 17160, Note_on_c, 6, 45, 84
12, 17249, Note_on_c, 6, 45, 0
12, 17280, Note_on_c, 6, 45, 92
12, 17399, Note_on_c, 6, 45, 0
12, 20880, Note_on_c, 6, 45, 76
12, 20999, Note_on_c, 6, 45, 0
12, 21600, Note_on_c, 6, 45, 76
12, 21719, Note_on_c, 6, 45, 0
12, 22320, Note_on_c, 6, 45, 76
12, 22439, Note_on_c, 6, 45, 0
12, 23040, Note_on_c, 6, 45, 76
12, 23159, Note_on_c, 6, 45, 0
12, 36960, Note_on_c, 6, 50, 76
12, 37679, Note_on_c, 6, 50, 0
12, 37680, Note_on_c, 6, 50, 76
12, 37739, Note_on_c, 6, 50, 0
12, 37740, Note_on_c, 6, 50, 76
12, 37799, Note_on_c, 6, 50, 0
12, 37800, Note_on_c, 6, 50, 76
12, 37859, Note_on_c, 6, 50, 0
12, 37860, Note_on_c, 6, 50, 76
12, 37919, Note_on_c, 6, 50, 0
12, 37920, Note_on_c, 6, 50, 84
12, 38639, Note_on_c, 6, 50, 0
12, 38640, Note_on_c, 6, 50, 76
12, 38699, Note_on_c, 6, 50, 0
12, 38700, Note_on_c, 6, 50, 76
12, 38759, Note_on_c, 6, 50, 0
12, 38760, Note_on_c, 6, 50, 76
12, 38819, Note_on_c, 6, 50, 0
12, 38820, Note_on_c, 6, 50, 76
12, 38879, Note_on_c, 6, 50, 0
12, 38880, Note_on_c, 6, 50, 76
12, 39119, Note_on_c, 6, 50, 0
12, 39360, Note_on_c, 6, 50, 84
12, 39419, Note_on_c, 6, 50, 0
12, 39420, Note_on_c, 6, 50, 76
12, 39479, Note_on_c, 6, 50, 0
12, 39480, Note_on_c, 6, 50, 76
12, 39539, Note_on_c, 6, 50, 0
12, 39540, Note_on_c, 6, 50, 76
12, 39599, Note_on_c, 6, 50, 0
12, 39600, Note_on_c, 6, 50, 76
12, 39659, Note_on_c, 6, 50, 0
12, 39660, Note_on_c, 6, 50, 76
12, 39719, Note_on_c, 6, 50, 0
12, 39720, Note_on_c, 6, 50, 76
12, 39779, Note_on_c, 6, 50, 0
12, 39780, Note_on_c, 6, 50, 76
12, 39839, Note_on_c, 6, 50, 0
12, 39840, Note_on_c, 6, 50, 76
12, 40079, Note_on_c, 6, 50, 0
12, 40080, Note_on_c, 6, 50, 76
12, 40319, Note_on_c, 6, 50, 0
12, 40320, Note_on_c, 6, 50, 76
12, 40559, Note_on_c, 6, 50, 0
12, 40560, Note_on_c, 6, 50, 76
12, 40799, Note_on_c, 6, 50, 0
12, 40800, Note_on_c, 6, 50, 76
12, 41039, Note_on_c, 6, 50, 0
12, 41760, Note_on_c, 6, 45, 76
12, 41999, Note_on_c, 6, 45, 0
12, 42000, Note_on_c, 6, 45, 76
12, 42239, Note_on_c, 6, 45, 0
12, 42240, Note_on_c, 6, 45, 76
12, 42479, Note_on_c, 6, 45, 0
12, 42480, Note_on_c, 6, 45, 76
12, 42719, Note_on_c, 6, 45, 0
12, 42720, Note_on_c, 6, 50, 76
12, 42959, Note_on_c, 6, 50, 0
12, 43200, Note_on_c, 6, 50, 84
12, 43259, Note_on_c, 6, 50, 0
12, 43260, Note_on_c, 6, 50, 76
12, 43319, Note_on_c, 6, 50, 0
12, 43320, Note_on_c, 6, 50, 76
12, 43379, Note_on_c, 6, 50, 0
12, 43380, Note_on_c, 6, 50, 76
12, 43439, Note_on_c, 6, 50, 0
12, 43440, Note_on_c, 6, 50, 76
12, 43499, Note_on_c, 6, 50, 0
12, 43500, Note_on_c, 6, 50, 76
12, 43559, Note_on_c, 6, 50, 0
12, 43560, Note_on_c, 6, 50, 76
12, 43619, Note_on_c, 6, 50, 0
12, 43620, Note_on_c, 6, 50, 76
12, 43679, Note_on_c, 6, 50, 0
12, 43680, Note_on_c, 6, 50, 76
12, 43919, Note_on_c, 6, 50, 0
12, 43920, Note_on_c, 6, 50, 76
12, 44159, Note_on_c, 6, 50, 0
12, 44160, Note_on_c, 6, 50, 76
12, 44399, Note_on_c, 6, 50, 0
12, 44400, Note_on_c, 6, 50, 76
12, 44639, Note_on_c, 6, 50, 0
12, 44640, Note_on_c, 6, 50, 76
12, 44879, Note_on_c, 6, 50, 0
12, 45600, Note_on_c, 6, 45, 76
12, 45839, Note_on_c, 6, 45, 0
12, 45840, Note_on_c, 6, 45, 76
12, 46079, Note_on_c, 6, 45, 0
12, 46080, Note_on_c, 6, 45, 76
12, 46319, Note_on_c, 6, 45, 0
12, 46320, Note_on_c, 6, 45, 76
12, 46559, Note_on_c, 6, 45, 0
12, 46560, Note_on_c, 6, 50, 76
12, 46799, Note_on_c, 6, 50, 0
12, 47460, Note_on_c, 6, 50, 76
12, 47519, Note_on_c, 6, 50, 0
12, 47520, Note_on_c, 6, 50, 76
12, 47759, Note_on_c, 6, 50, 0
12, 49380, Note_on_c, 6, 50, 76
12, 49439, Note_on_c, 6, 50, 0
12, 49440, Note_on_c, 6, 50, 76
12, 49679, Note_on_c, 6, 50, 0
12, 50400, Note_on_c, 6, 50, 76
12, 50639, Note_on_c, 6, 50, 0
12, 65760, Note_on_c, 6, 45, 84
12, 66239, Note_on_c, 6, 45, 0
12, 66240, Note_on_c, 6, 45, 84
12, 66659, Note_on_c, 6, 45, 0
12, 66660, Note_on_c, 6, 45, 84
12, 66719, Note_on_c, 6, 45, 0
12, 66720, Note_on_c, 6, 45, 84
12, 66959, Note_on_c, 6, 45, 0
12, 73440, Note_on_c, 6, 45, 84
12, 73919, Note_on_c, 6, 45, 0
12, 73920, Note_on_c, 6, 45, 84
12, 74339, Note_on_c, 6, 45, 0
12, 74340, Note_on_c, 6, 45, 84
12, 74399, Note_on_c, 6, 45, 0
12, 74400, Note_on_c, 6, 45, 84
12, 74639, Note_on_c, 6, 45, 0
12, 83040, Note_on_c, 6, 45, 92
12, 83099, Note_on_c, 6, 45, 0
12, 83100, Note_on_c, 6, 45, 84
12, 83159, Note_on_c, 6, 45, 0
12, 83160, Note_on_c, 6, 45, 84
12, 83219, Note_on_c, 6, 45, 0
12, 83220, Note_on_c, 6, 45, 84
12, 83279, Note_on_c, 6, 45, 0
12, 83280, Note_on_c, 6, 45, 84
12, 83339, Note_on_c, 6, 45, 0
12, 83340, Note_on_c, 6, 45, 84
12, 83399, Note_on_c, 6, 45, 0
12, 83400, Note_on_c, 6, 45, 84
12, 83459, Note_on_c, 6, 45, 0
12, 83460, Note_on_c, 6, 45, 84
12, 83519, Note_on_c, 6, 45, 0
12, 83520, Note_on_c, 6, 45, 84
12, 83579, Note_on_c, 6, 45, 0
12, 83580, Note_on_c, 6, 45, 84
12, 83639, Note_on_c, 6, 45, 0
12, 83640, Note_on_c, 6, 45, 84
12, 83699, Note_on_c, 6, 45, 0
12, 83700, Note_on_c, 6, 45, 84
12, 83759, Note_on_c, 6, 45, 0
12, 83760, Note_on_c, 6, 45, 84
12, 83819, Note_on_c, 6, 45, 0
12, 83820, Note_on_c, 6, 45, 84
12, 83879, Note_on_c, 6, 45, 0
12, 83880, Note_on_c, 6, 45, 84
12, 83939, Note_on_c, 6, 45, 0
12, 83940, Note_on_c, 6, 45, 84
12, 83999, Note_on_c, 6, 45, 0
12, 84000, Note_on_c, 6, 50, 84
12, 84239, Note_on_c, 6, 50, 0
12, 84420, Note_on_c, 6, 50, 84
12, 84479, Note_on_c, 6, 50, 0
12, 84480, Note_on_c, 6, 50, 84
12, 84719, Note_on_c, 6, 50, 0
12, 85380, Note_on_c, 6, 50, 84
12, 85439, Note_on_c, 6, 50, 0
12, 85440, Note_on_c, 6, 50, 84
12, 85679, Note_on_c, 6, 50, 0
12, 88260, Note_on_c, 6, 50, 84
12, 88319, Note_on_c, 6, 50, 0
12, 88320, Note_on_c, 6, 50, 84
12, 88559, Note_on_c, 6, 50, 0
12, 89220, Note_on_c, 6, 50, 84
12, 89279, Note_on_c, 6, 50, 0
12, 89280, Note_on_c, 6, 50, 84
12, 89519, Note_on_c, 6, 50, 0
12, 99360, Note_on_c, 6, 45, 84
12, 99599, Note_on_c, 6, 45, 0
12, 101280, Note_on_c, 6, 50, 84
12, 101519, Note_on_c, 6, 50, 0
12, 102000, Note_on_c, 6, 50, 84
12, 102179, Note_on_c, 6, 50, 0
12, 102240, Note_on_c, 6, 45, 84
12, 102419, Note_on_c, 6, 45, 0
12, 102480, Note_on_c, 6, 45, 84
12, 102659, Note_on_c, 6, 45, 0
12, 102720, Note_on_c, 6, 45, 84
12, 102899, Note_on_c, 6, 45, 0
12, 102960, Note_on_c, 6, 45, 84
12, 103139, Note_on_c, 6, 45, 0
12, 103200, Note_on_c, 6, 45, 84
12, 103439, Note_on_c, 6, 45, 0
12, 105120, Note_on_c, 6, 50, 84
12, 105359, Note_on_c, 6, 50, 0
12, 105840, Note_on_c, 6, 50, 84
12, 106019, Note_on_c, 6, 50, 0
12, 106080, Note_on_c, 6, 45, 84
12, 106259, Note_on_c, 6, 45, 0
12, 106320, Note_on_c, 6, 45, 84
12, 106499, Note_on_c, 6, 45, 0
12, 106560, Note_on_c, 6, 45, 84
12, 106739, Note_on_c, 6, 45, 0
12, 106800, Note_on_c, 6, 45, 84
12, 106979, Note_on_c, 6, 45, 0
12, 107040, Note_on_c, 6, 45, 52
12, 107279, Note_on_c, 6, 45, 0
12, 107760, Note_on_c, 6, 45, 76
12, 107999, Note_on_c, 6, 45, 0
12, 108000, Note_on_c, 6, 45, 52
12, 108239, Note_on_c, 6, 45, 0
12, 108720, Note_on_c, 6, 50, 76
12, 108959, Note_on_c, 6, 50, 0
12, 108960, Note_on_c, 6, 45, 52
12, 109199, Note_on_c, 6, 45, 0
12, 109680, Note_on_c, 6, 45, 76
12, 109919, Note_on_c, 6, 45, 0
12, 109920, Note_on_c, 6, 45, 52
12, 110159, Note_on_c, 6, 45, 0
12, 110640, Note_on_c, 6, 50, 76
12, 110879, Note_on_c, 6, 50, 0
12, 110880, Note_on_c, 6, 45, 52
12, 111119, Note_on_c, 6, 45, 0
12, 111120, Note_on_c, 6, 50, 76
12, 111359, Note_on_c, 6, 50, 0
12, 111360, Note_on_c, 6, 45, 52
12, 111599, Note_on_c, 6, 45, 0
12, 111600, Note_on_c, 6, 50, 76
12, 111839, Note_on_c, 6, 50, 0
12, 111840, Note_on_c, 6, 45, 52
12, 112079, Note_on_c, 6, 45, 0
12, 112080, Note_on_c, 6, 50, 76
12, 112319, Note_on_c, 6, 50, 0
12, 112320, Note_on_c, 6, 45, 52
12, 112559, Note_on_c, 6, 45, 0
12, 112560, Note_on_c, 6, 50, 76
12, 112799, Note_on_c, 6, 50, 0
12, 112800, Note_on_c, 6, 45, 52
12, 113039, Note_on_c, 6, 45, 0
12, 114720, Note_on_c, 6, 45, 84
12, 114779, Note_on_c, 6, 45, 0
12, 114780, Note_on_c, 6, 45, 84
12, 114839, Note_on_c, 6, 45, 0
12, 114840, Note_on_c, 6, 45, 84
12, 114899, Note_on_c, 6, 45, 0
12, 114900, Note_on_c, 6, 45, 84
12, 114959, Note_on_c, 6, 45, 0
12, 114960, Note_on_c, 6, 45, 84
12, 115019, Note_on_c, 6, 45, 0
12, 115020, Note_on_c, 6, 45, 84
12, 115079, Note_on_c, 6, 45, 0
12, 115080, Note_on_c, 6, 45, 84
12, 115139, Note_on_c, 6, 45, 0
12, 115140, Note_on_c, 6, 45, 84
12, 115199, Note_on_c, 6, 45, 0
12, 115200, Note_on_c, 6, 45, 84
12, 115259, Note_on_c, 6, 45, 0
12, 115260, Note_on_c, 6, 45, 84
12, 115319, Note_on_c, 6, 45, 0
12, 115320, Note_on_c, 6, 45, 84
12, 115379, Note_on_c, 6, 45, 0
12, 115380, Note_on_c, 6, 45, 84
12, 115439, Note_on_c, 6, 45, 0
12, 115440, Note_on_c, 6, 45, 84
12, 115499, Note_on_c, 6, 45, 0
12, 115500, Note_on_c, 6, 45, 84
12, 115559, Note_on_c, 6, 45, 0
12, 115560, Note_on_c, 6, 45, 84
12, 115619, Note_on_c, 6, 45, 0
12, 115620, Note_on_c, 6, 45, 84
12, 115679, Note_on_c, 6, 45, 0
12, 115680, Note_on_c, 6, 45, 84
12, 115739, Note_on_c, 6, 45, 0
12, 115740, Note_on_c, 6, 45, 84
12, 115799, Note_on_c, 6, 45, 0
12, 115800, Note_on_c, 6, 45, 84
12, 115859, Note_on_c, 6, 45, 0
12, 115860, Note_on_c, 6, 45, 84
12, 115919, Note_on_c, 6, 45, 0
12, 115920, Note_on_c, 6, 45, 84
12, 115979, Note_on_c, 6, 45, 0
12, 115980, Note_on_c, 6, 45, 84
12, 116039, Note_on_c, 6, 45, 0
12, 116040, Note_on_c, 6, 45, 84
12, 116099, Note_on_c, 6, 45, 0
12, 116100, Note_on_c, 6, 45, 84
12, 116159, Note_on_c, 6, 45, 0
12, 116160, Note_on_c, 6, 45, 84
12, 116219, Note_on_c, 6, 45, 0
12, 116220, Note_on_c, 6, 45, 84
12, 116279, Note_on_c, 6, 45, 0
12, 116280, Note_on_c, 6, 45, 84
12, 116339, Note_on_c, 6, 45, 0
12, 116340, Note_on_c, 6, 45, 84
12, 116399, Note_on_c, 6, 45, 0
12, 116400, Note_on_c, 6, 45, 84
12, 116459, Note_on_c, 6, 45, 0
12, 116460, Note_on_c, 6, 45, 84
12, 116519, Note_on_c, 6, 45, 0
12, 116520, Note_on_c, 6, 45, 84
12, 116579, Note_on_c, 6, 45, 0
12, 116580, Note_on_c, 6, 45, 84
12, 116639, Note_on_c, 6, 45, 0
12, 116640, Note_on_c, 6, 45, 84
12, 116879, Note_on_c, 6, 45, 0
12, 117120, Note_on_c, 6, 45, 76
12, 117359, Note_on_c, 6, 45, 0
12, 118080, Note_on_c, 6, 45, 76
12, 118319, Note_on_c, 6, 45, 0
12, 132960, Note_on_c, 6, 50, 76
12, 133679, Note_on_c, 6, 50, 0
12, 133680, Note_on_c, 6, 50, 76
12, 133739, Note_on_c, 6, 50, 0
12, 133740, Note_on_c, 6, 50, 76
12, 133799, Note_on_c, 6, 50, 0
12, 133800, Note_on_c, 6, 50, 76
12, 133859, Note_on_c, 6, 50, 0
12, 133860, Note_on_c, 6, 50, 76
12, 133919, Note_on_c, 6, 50, 0
12, 133920, Note_on_c, 6, 50, 84
12, 134639, Note_on_c, 6, 50, 0
12, 134640, Note_on_c, 6, 50, 76
12, 134699, Note_on_c, 6, 50, 0
12, 134700, Note_on_c, 6, 50, 76
12, 134759, Note_on_c, 6, 50, 0
12, 134760, Note_on_c, 6, 50, 76
12, 134819, Note_on_c, 6, 50, 0
12, 134820, Note_on_c, 6, 50, 76
12, 134879, Note_on_c, 6, 50, 0
12, 134880, Note_on_c, 6, 50, 76
12, 135119, Note_on_c, 6, 50, 0
12, 135360, Note_on_c, 6, 50, 84
12, 135419, Note_on_c, 6, 50, 0
12, 135420, Note_on_c, 6, 50, 76
12, 135479, Note_on_c, 6, 50, 0
12, 135480, Note_on_c, 6, 50, 76
12, 135539, Note_on_c, 6, 50, 0
12, 135540, Note_on_c, 6, 50, 76
12, 135599, Note_on_c, 6, 50, 0
12, 135600, Note_on_c, 6, 50, 76
12, 135659, Note_on_c, 6, 50, 0
12, 135660, Note_on_c, 6, 50, 76
12, 135719, Note_on_c, 6, 50, 0
12, 135720, Note_on_c, 6, 50, 76
12, 135779, Note_on_c, 6, 50, 0
12, 135780, Note_on_c, 6, 50, 76
12, 135839, Note_on_c, 6, 50, 0
12, 135840, Note_on_c, 6, 50, 76
12, 136079, Note_on_c, 6, 50, 0
12, 136080, Note_on_c, 6, 50, 76
12, 136319, Note_on_c, 6, 50, 0
12, 136320, Note_on_c, 6, 50, 76
12, 136559, Note_on_c, 6, 50, 0
12, 136560, Note_on_c, 6, 50, 76
12, 136799, Note_on_c, 6, 50, 0
12, 136800, Note_on_c, 6, 50, 76
12, 137039, Note_on_c, 6, 50, 0
12, 137760, Note_on_c, 6, 45, 76
12, 137999, Note_on_c, 6, 45, 0
12, 138000, Note_on_c, 6, 45, 76
12, 138239, Note_on_c, 6, 45, 0
12, 138240, Note_on_c, 6, 45, 76
12, 138479, Note_on_c, 6, 45, 0
12, 138480, Note_on_c, 6, 45, 76
12, 138719, Note_on_c, 6, 45, 0
12, 138720, Note_on_c, 6, 50, 76
12, 138959, Note_on_c, 6, 50, 0
12, 139200, Note_on_c, 6, 50, 84
12, 139259, Note_on_c, 6, 50, 0
12, 139260, Note_on_c, 6, 50, 76
12, 139319, Note_on_c, 6, 50, 0
12, 139320, Note_on_c, 6, 50, 76
12, 139379, Note_on_c, 6, 50, 0
12, 139380, Note_on_c, 6, 50, 76
12, 139439, Note_on_c, 6, 50, 0
12, 139440, Note_on_c, 6, 50, 76
12, 139499, Note_on_c, 6, 50, 0
12, 139500, Note_on_c, 6, 50, 76
12, 139559, Note_on_c, 6, 50, 0
12, 139560, Note_on_c, 6, 50, 76
12, 139619, Note_on_c, 6, 50, 0
12, 139620, Note_on_c, 6, 50, 76
12, 139679, Note_on_c, 6, 50, 0
12, 139680, Note_on_c, 6, 50, 76
12, 139919, Note_on_c, 6, 50, 0
12, 139920, Note_on_c, 6, 50, 76
12, 140159, Note_on_c, 6, 50, 0
12, 140160, Note_on_c, 6, 50, 76
12, 140399, Note_on_c, 6, 50, 0
12, 140400, Note_on_c, 6, 50, 76
12, 140639, Note_on_c, 6, 50, 0
12, 140640, Note_on_c, 6, 50, 76
12, 140879, Note_on_c, 6, 50, 0
12, 141600, Note_on_c, 6, 45, 76
12, 141839, Note_on_c, 6, 45, 0
12, 141840, Note_on_c, 6, 45, 76
12, 142079, Note_on_c, 6, 45, 0
12, 142080, Note_on_c, 6, 45, 76
12, 142319, Note_on_c, 6, 45, 0
12, 142320, Note_on_c, 6, 45, 76
12, 142559, Note_on_c, 6, 45, 0
12, 142560, Note_on_c, 6, 50, 76
12, 142799, Note_on_c, 6, 50, 0
12, 143460, Note_on_c, 6, 50, 76
12, 143519, Note_on_c, 6, 50, 0
12, 143520, Note_on_c, 6, 50, 76
12, 143759, Note_on_c, 6, 50, 0
12, 145380, Note_on_c, 6, 50, 76
12, 145439, Note_on_c, 6, 50, 0
12, 145440, Note_on_c, 6, 50, 76
12, 145679, Note_on_c, 6, 50, 0
12, 146400, Note_on_c, 6, 50, 76
12, 146639, Note_on_c, 6, 50, 0
12, 161760, Note_on_c, 6, 45, 84
12, 162239, Note_on_c, 6, 45, 0
12, 162240, Note_on_c, 6, 45, 84
12, 162659, Note_on_c, 6, 45, 0
12, 162660, Note_on_c, 6, 45, 84
12, 162719, Note_on_c, 6, 45, 0
12, 162720, Note_on_c, 6, 45, 84
12, 162959, Note_on_c, 6, 45, 0
12, 169440, Note_on_c, 6, 45, 84
12, 169919, Note_on_c, 6, 45, 0
12, 169920, Note_on_c, 6, 45, 84
12, 170339, Note_on_c, 6, 45, 0
12, 170340, Note_on_c, 6, 45, 84
12, 170399, Note_on_c, 6, 45, 0
12, 170400, Note_on_c, 6, 45, 84
12, 170639, Note_on_c, 6, 45, 0
12, 179040, Note_on_c, 6, 45, 92
12, 179099, Note_on_c, 6, 45, 0
12, 179100, Note_on_c, 6, 45, 84
12, 179159, Note_on_c, 6, 45, 0
12, 179160, Note_on_c, 6, 45, 84
12, 179219, Note_on_c, 6, 45, 0
12, 179220, Note_on_c, 6, 45, 84
12, 179279, Note_on_c, 6, 45, 0
12, 179280, Note_on_c, 6, 45, 84
12, 179339, Note_on_c, 6, 45, 0
12, 179340, Note_on_c, 6, 45, 84
12, 179399, Note_on_c, 6, 45, 0
12, 179400, Note_on_c, 6, 45, 84
12, 179459, Note_on_c, 6, 45, 0
12, 179460, Note_on_c, 6, 45, 84
12, 179519, Note_on_c, 6, 45, 0
12, 179520, Note_on_c, 6, 45, 84
12, 179579, Note_on_c, 6, 45, 0
12, 179580, Note_on_c, 6, 45, 84
12, 179639, Note_on_c, 6, 45, 0
12, 179640, Note_on_c, 6, 45, 84
12, 179699, Note_on_c, 6, 45, 0
12, 179700, Note_on_c, 6, 45, 84
12, 179759, Note_on_c, 6, 45, 0
12, 179760, Note_on_c, 6, 45, 84
12, 179819, Note_on_c, 6, 45, 0
12, 179820, Note_on_c, 6, 45, 84
12, 179879, Note_on_c, 6, 45, 0
12, 179880, Note_on_c, 6, 45, 84
12, 179939, Note_on_c, 6, 45, 0
12, 179940, Note_on_c, 6, 45, 84
12, 179999, Note_on_c, 6, 45, 0
12, 180000, Note_on_c, 6, 50, 84
12, 180239, Note_on_c, 6, 50, 0
12, 180420, Note_on_c, 6, 50, 84
12, 180479, Note_on_c, 6, 50, 0
12, 180480, Note_on_c, 6, 50, 84
12, 180719, Note_on_c, 6, 50, 0
12, 181380, Note_on_c, 6, 50, 84
12, 181439, Note_on_c, 6, 50, 0
12, 181440, Note_on_c, 6, 50, 84
12, 181679, Note_on_c, 6, 50, 0
12, 184260, Note_on_c, 6, 50, 84
12, 184319, Note_on_c, 6, 50, 0
12, 184320, Note_on_c, 6, 50, 84
12, 184559, Note_on_c, 6, 50, 0
12, 185220, Note_on_c, 6, 50, 84
12, 185279, Note_on_c, 6, 50, 0
12, 185280, Note_on_c, 6, 50, 84
12, 185519, Note_on_c, 6, 50, 0
12, 195360, Note_on_c, 6, 45, 84
12, 195599, Note_on_c, 6, 45, 0
12, 197280, Note_on_c, 6, 50, 84
12, 197519, Note_on_c, 6, 50, 0
12, 198000, Note_on_c, 6, 50, 84
12, 198179, Note_on_c, 6, 50, 0
12, 198240, Note_on_c, 6, 45, 84
12, 198419, Note_on_c, 6, 45, 0
12, 198480, Note_on_c, 6, 45, 84
12, 198659, Note_on_c, 6, 45, 0
12, 198720, Note_on_c, 6, 45, 84
12, 198899, Note_on_c, 6, 45, 0
12, 198960, Note_on_c, 6, 45, 84
12, 199139, Note_on_c, 6, 45, 0
12, 199200, Note_on_c, 6, 45, 84
12, 199439, Note_on_c, 6, 45, 0
12, 201120, Note_on_c, 6, 50, 84
12, 201359, Note_on_c, 6, 50, 0
12, 201840, Note_on_c, 6, 50, 84
12, 202019, Note_on_c, 6, 50, 0
12, 202080, Note_on_c, 6, 45, 84
12, 202259, Note_on_c, 6, 45, 0
12, 202320, Note_on_c, 6, 45, 84
12, 202499, Note_on_c, 6, 45, 0
12, 202560, Note_on_c, 6, 45, 84
12, 202739, Note_on_c, 6, 45, 0
12, 202800, Note_on_c, 6, 45, 84
12, 202979, Note_on_c, 6, 45, 0
12, 203040, Note_on_c, 6, 45, 52
12, 203279, Note_on_c, 6, 45, 0
12, 203760, Note_on_c, 6, 45, 76
12, 203999, Note_on_c, 6, 45, 0
12, 204000, Note_on_c, 6, 45, 52
12, 204239, Note_on_c, 6, 45, 0
12, 204720, Note_on_c, 6, 50, 76
12, 204959, Note_on_c, 6, 50, 0
12, 204960, Note_on_c, 6, 45, 52
12, 205199, Note_on_c, 6, 45, 0
12, 205680, Note_on_c, 6, 45, 76
12, 205919, Note_on_c, 6, 45, 0
12, 205920, Note_on_c, 6, 45, 52
12, 206159, Note_on_c, 6, 45, 0
12, 206640, Note_on_c, 6, 50, 76
12, 206879, Note_on_c, 6, 50, 0
12, 206880, Note_on_c, 6, 45, 52
12, 207119, Note_on_c, 6, 45, 0
12, 207120, Note_on_c, 6, 50, 76
12, 207359, Note_on_c, 6, 50, 0
12, 207360, Note_on_c, 6, 45, 52
12, 207599, Note_on_c, 6, 45, 0
12, 207600, Note_on_c, 6, 50, 76
12, 207839, Note_on_c, 6, 50, 0
12, 207840, Note_on_c, 6, 45, 52
12, 208079, Note_on_c, 6, 45, 0
12, 208080, Note_on_c, 6, 50, 76
12, 208319, Note_on_c, 6, 50, 0
12, 208320, Note_on_c, 6, 45, 52
12, 208559, Note_on_c, 6, 45, 0
12, 208560, Note_on_c, 6, 50, 76
12, 208799, Note_on_c, 6, 50, 0
12, 208800, Note_on_c, 6, 45, 52
12, 209039, Note_on_c, 6, 45, 0
12, 210720, Note_on_c, 6, 45, 84
12, 210779, Note_on_c, 6, 45, 0
12, 210780, Note_on_c, 6, 45, 84
12, 210839, Note_on_c, 6, 45, 0
12, 210840, Note_on_c, 6, 45, 84
12, 210899, Note_on_c, 6, 45, 0
12, 210900, Note_on_c, 6, 45, 84
12, 210959, Note_on_c, 6, 45, 0
12, 210960, Note_on_c, 6, 45, 84
12, 211019, Note_on_c, 6, 45, 0
12, 211020, Note_on_c, 6, 45, 84
12, 211079, Note_on_c, 6, 45, 0
12, 211080, Note_on_c, 6, 45, 84
12, 211139, Note_on_c, 6, 45, 0
12, 211140, Note_on_c, 6, 45, 84
12, 211199, Note_on_c, 6, 45, 0
12, 211200, Note_on_c, 6, 45, 84
12, 211259, Note_on_c, 6, 45, 0
12, 211260, Note_on_c, 6, 45, 84
12, 211319, Note_on_c, 6, 45, 0
12, 211320, Note_on_c, 6, 45, 84
12, 211379, Note_on_c, 6, 45, 0
12, 211380, Note_on_c, 6, 45, 84
12, 211439, Note_on_c, 6, 45, 0
12, 211440, Note_on_c, 6, 45, 84
12, 211499, Note_on_c, 6, 45, 0
12, 211500, Note_on_c, 6, 45, 84
12, 211559, Note_on_c, 6, 45, 0
12, 211560, Note_on_c, 6, 45, 84
12, 211619, Note_on_c, 6, 45, 0
12, 211620, Note_on_c, 6, 45, 84
12, 211679, Note_on_c, 6, 45, 0
12, 211680, Note_on_c, 6, 45, 84
12, 211739, Note_on_c, 6, 45, 0
12, 211740, Note_on_c, 6, 45, 84
12, 211799, Note_on_c, 6, 45, 0
12, 211800, Note_on_c, 6, 45, 84
12, 211859, Note_on_c, 6, 45, 0
12, 211860, Note_on_c, 6, 45, 84
12, 211919, Note_on_c, 6, 45, 0
12, 211920, Note_on_c, 6, 45, 84
12, 211979, Note_on_c, 6, 45, 0
12, 211980, Note_on_c, 6, 45, 84
12, 212039, Note_on_c, 6, 45, 0
12, 212040, Note_on_c, 6, 45, 84
12, 212099, Note_on_c, 6, 45, 0
12, 212100, Note_on_c, 6, 45, 84
12, 212159, Note_on_c, 6, 45, 0
12, 212160, Note_on_c, 6, 45, 84
12, 212219, Note_on_c, 6, 45, 0
12, 212220, Note_on_c, 6, 45, 84
12, 212279, Note_on_c, 6, 45, 0
12, 212280, Note_on_c, 6, 45, 84
12, 212339, Note_on_c, 6, 45, 0
12, 212340, Note_on_c, 6, 45, 84
12, 212399, Note_on_c, 6, 45, 0
12, 212400, Note_on_c, 6, 45, 84
12, 212459, Note_on_c, 6, 45, 0
12, 212460, Note_on_c, 6, 45, 84
12, 212519, Note_on_c, 6, 45, 0
12, 212520, Note_on_c, 6, 45, 84
12, 212579, Note_on_c, 6, 45, 0
12, 212580, Note_on_c, 6, 45, 84
12, 212639, Note_on_c, 6, 45, 0
12, 212640, Note_on_c, 6, 45, 84
12, 212879, Note_on_c, 6, 45, 0
12, 213120, Note_on_c, 6, 45, 76
12, 213359, Note_on_c, 6, 45, 0
12, 214080, Note_on_c, 6, 45, 76
12, 214319, Note_on_c, 6, 45, 0
12, 216960, Note_on_c, 6, 45, 76
12, 217199, Note_on_c, 6, 45, 0
12, 217920, Note_on_c, 6, 45, 76
12, 218159, Note_on_c, 6, 45, 0
12, 244320, Note_on_c, 6, 45, 92
12, 244559, Note_on_c, 6, 45, 0
12, 245280, Note_on_c, 6, 45, 92
12, 245519, Note_on_c, 6, 45, 0
12, 246240, Note_on_c, 6, 50, 92
12, 246479, Note_on_c, 6, 50, 0
12, 247200, Note_on_c, 6, 50, 84
12, 247439, Note_on_c, 6, 50, 0
12, 251520, Note_on_c, 6, 50, 92
12, 251579, Note_on_c, 6, 50, 0
12, 251580, Note_on_c, 6, 50, 84
12, 251639, Note_on_c, 6, 50, 0
12, 251640, Note_on_c, 6, 50, 84
12, 251699, Note_on_c, 6, 50, 0
12, 251700, Note_on_c, 6, 50, 84
12, 251759, Note_on_c, 6, 50, 0
12, 251760, Note_on_c, 6, 50, 84
12, 251819, Note_on_c, 6, 50, 0
12, 251820, Note_on_c, 6, 50, 84
12, 251879, Note_on_c, 6, 50, 0
12, 251880, Note_on_c, 6, 50, 84
12, 251939, Note_on_c, 6, 50, 0
12, 251940, Note_on_c, 6, 50, 84
12, 251999, Note_on_c, 6, 50, 0
12, 252000, Note_on_c, 6, 50, 84
12, 252239, Note_on_c, 6, 50, 0
12, 252240, Note_on_c, 6, 50, 84
12, 252479, Note_on_c, 6, 50, 0
12, 252480, Note_on_c, 6, 50, 84
12, 252719, Note_on_c, 6, 50, 0
12, 252720, Note_on_c, 6, 50, 84
12, 252959, Note_on_c, 6, 50, 0
12, 252960, Note_on_c, 6, 50, 84
12, 253199, Note_on_c, 6, 50, 0
12, 253440, Note_on_c, 6, 50, 92
12, 253499, Note_on_c, 6, 50, 0
12, 253500, Note_on_c, 6, 50, 84
12, 253559, Note_on_c, 6, 50, 0
12, 253560, Note_on_c, 6, 50, 84
12, 253619, Note_on_c, 6, 50, 0
12, 253620, Note_on_c, 6, 50, 84
12, 253679, Note_on_c, 6, 50, 0
12, 253680, Note_on_c, 6, 50, 84
12, 253739, Note_on_c, 6, 50, 0
12, 253740, Note_on_c, 6, 50, 84
12, 253799, Note_on_c, 6, 50, 0
12, 253800, Note_on_c, 6, 50, 84
12, 253859, Note_on_c, 6, 50, 0
12, 253860, Note_on_c, 6, 50, 84
12, 253919, Note_on_c, 6, 50, 0
12, 253920, Note_on_c, 6, 50, 84
12, 254159, Note_on_c, 6, 50, 0
12, 254160, Note_on_c, 6, 50, 84
12, 254399, Note_on_c, 6, 50, 0
12, 254400, Note_on_c, 6, 50, 84
12, 254639, Note_on_c, 6, 50, 0
12, 254640, Note_on_c, 6, 50, 84
12, 254879, Note_on_c, 6, 50, 0
12, 254880, Note_on_c, 6, 50, 84
12, 255119, Note_on_c, 6, 50, 0
12, 255360, Note_on_c, 6, 50, 92
12, 255419, Note_on_c, 6, 50, 0
12, 255420, Note_on_c, 6, 50, 84
12, 255479, Note_on_c, 6, 50, 0
12, 255480, Note_on_c, 6, 50, 84
12, 255539, Note_on_c, 6, 50, 0
12, 255540, Note_on_c, 6, 50, 84
12, 255599, Note_on_c, 6, 50, 0
12, 255600, Note_on_c, 6, 50, 84
12, 255659, Note_on_c, 6, 50, 0
12, 255660, Note_on_c, 6, 50, 84
12, 255719, Note_on_c, 6, 50, 0
12, 255720, Note_on_c, 6, 50, 84
12, 255779, Note_on_c, 6, 50, 0
12, 255780, Note_on_c, 6, 50, 84
12, 255839, Note_on_c, 6, 50, 0
12, 255840, Note_on_c, 6, 50, 84
12, 256079, Note_on_c, 6, 50, 0
12, 256080, Note_on_c, 6, 50, 84
12, 256319, Note_on_c, 6, 50, 0
12, 256320, Note_on_c, 6, 50, 84
12, 256559, Note_on_c, 6, 50, 0
12, 256560, Note_on_c, 6, 50, 84
12, 256799, Note_on_c, 6, 50, 0
12, 256800, Note_on_c, 6, 50, 84
12, 257039, Note_on_c, 6, 50, 0
12, 257280, Note_on_c, 6, 50, 92
12, 257339, Note_on_c, 6, 50, 0
12, 257340, Note_on_c, 6, 50, 84
12, 257399, Note_on_c, 6, 50, 0
12, 257400, Note_on_c, 6, 50, 84
12, 257459, Note_on_c, 6, 50, 0
12, 257460, Note_on_c, 6, 50, 84
12, 257519, Note_on_c, 6, 50, 0
12, 257520, Note_on_c, 6, 50, 84
12, 257579, Note_on_c, 6, 50, 0
12, 257580, Note_on_c, 6, 50, 84
12, 257639, Note_on_c, 6, 50, 0
12, 257640, Note_on_c, 6, 50, 84
12, 257699, Note_on_c, 6, 50, 0
12, 257700, Note_on_c, 6, 50, 84
12, 257759, Note_on_c, 6, 50, 0
12, 257760, Note_on_c, 6, 50, 84
12, 257999, Note_on_c, 6, 50, 0
12, 258000, Note_on_c, 6, 50, 84
12, 258239, Note_on_c, 6, 50, 0
12, 258240, Note_on_c, 6, 50, 84
12, 258479, Note_on_c, 6, 50, 0
12, 258480, Note_on_c, 6, 50, 84
12, 258719, Note_on_c, 6, 50, 0
12, 258720, Note_on_c, 6, 50, 84
12, 258959, Note_on_c, 6, 50, 0
12, 311520, Note_on_c, 6, 45, 76
12, 311759, Note_on_c, 6, 45, 0
12, 312480, Note_on_c, 6, 45, 76
12, 312719, Note_on_c, 6, 45, 0
12, 313440, Note_on_c, 6, 45, 76
12, 313679, Note_on_c, 6, 45, 0
12, 315360, Note_on_c, 6, 45, 76
12, 315599, Note_on_c, 6, 45, 0
12, 316320, Note_on_c, 6, 45, 76
12, 316559, Note_on_c, 6, 45, 0
12, 317280, Note_on_c, 6, 45, 76
12, 317519, Note_on_c, 6, 45, 0
12, 318240, Note_on_c, 6, 45, 76
12, 318479, Note_on_c, 6, 45, 0
12, 318720, Note_on_c, 6, 50, 76
12, 318959, Note_on_c, 6, 50, 0
12, 318960, Note_on_c, 6, 50, 76
12, 319199, Note_on_c, 6, 50, 0
12, 319200, Note_on_c, 6, 45, 84
12, 319439, Note_on_c, 6, 45, 0
12, 319680, Note_on_c, 6, 45, 84
12, 319919, Note_on_c, 6, 45, 0
12, 320160, Note_on_c, 6, 45, 84
12, 320399, Note_on_c, 6, 45, 0
12, 320400, Note_on_c, 6, 45, 76
12, 320639, Note_on_c, 6, 45, 0
12, 320640, Note_on_c, 6, 45, 76
12, 320879, Note_on_c, 6, 45, 0
12, 320880, Note_on_c, 6, 45, 76
12, 321119, Note_on_c, 6, 45, 0
12, 321120, Note_on_c, 6, 45, 84
12, 321179, Note_on_c, 6, 45, 0
12, 321180, Note_on_c, 6, 45, 76
12, 321239, Note_on_c, 6, 45, 0
12, 321240, Note_on_c, 6, 45, 76
12, 321299, Note_on_c, 6, 45, 0
12, 321300, Note_on_c, 6, 45, 76
12, 321359, Note_on_c, 6, 45, 0
12, 321360, Note_on_c, 6, 45, 76
12, 321419, Note_on_c, 6, 45, 0
12, 321420, Note_on_c, 6, 45, 76
12, 321479, Note_on_c, 6, 45, 0
12, 321480, Note_on_c, 6, 45, 76
12, 321539, Note_on_c, 6, 45, 0
12, 321540, Note_on_c, 6, 45, 76
12, 321599, Note_on_c, 6, 45, 0
12, 321600, Note_on_c, 6, 45, 76
12, 321659, Note_on_c, 6, 45, 0
12, 321660, Note_on_c, 6, 45, 76
12, 321719, Note_on_c, 6, 45, 0
12, 321720, Note_on_c, 6, 45, 76
12, 321779, Note_on_c, 6, 45, 0
12, 321780, Note_on_c, 6, 45, 76
12, 321839, Note_on_c, 6, 45, 0
12, 321840, Note_on_c, 6, 45, 76
12, 321899, Note_on_c, 6, 45, 0
12, 321900, Note_on_c, 6, 45, 76
12, 321959, Note_on_c, 6, 45, 0
12, 321960, Note_on_c, 6, 45, 76
12, 322019, Note_on_c, 6, 45, 0
12, 322020, Note_on_c, 6, 45, 76
12, 322079, Note_on_c, 6, 45, 0
12, 322080, Note_on_c, 6, 45, 76
12, 322259, Note_on_c, 6, 45, 0
12, 322320, Note_on_c, 6, 45, 76
12, 322499, Note_on_c, 6, 45, 0
12, 322560, Note_on_c, 6, 45, 76
12, 322739, Note_on_c, 6, 45, 0
12, 322800, Note_on_c, 6, 45, 76
12, 322979, Note_on_c, 6, 45, 0
12, 323040, Note_on_c, 6, 50, 52
12, 323279, Note_on_c, 6, 50, 0
12, 326880, Note_on_c, 6, 50, 84
12, 327359, Note_on_c, 6, 50, 0
12, 327360, Note_on_c, 6, 50, 84
12, 327779, Note_on_c, 6, 50, 0
12, 327780, Note_on_c, 6, 50, 84
12, 327839, Note_on_c, 6, 50, 0
12, 327840, Note_on_c, 6, 50, 84
12, 328079, Note_on_c, 6, 50, 0
12, 334560, Note_on_c, 6, 50, 84
12, 334799, Note_on_c, 6, 50, 0
12, 335040, Note_on_c, 6, 50, 84
12, 335459, Note_on_c, 6, 50, 0
12, 335460, Note_on_c, 6, 50, 84
12, 335519, Note_on_c, 6, 50, 0
12, 335520, Note_on_c, 6, 50, 84
12, 335759, Note_on_c, 6, 50, 0
12, 337440, Note_on_c, 6, 45, 84
12, 337679, Note_on_c, 6, 45, 0
12, 338400, Note_on_c, 6, 45, 84
12, 338639, Note_on_c, 6, 45, 0
12, 339360, Note_on_c, 6, 45, 84
12, 339599, Note_on_c, 6, 45, 0
12, 340320, Note_on_c, 6, 45, 84
12, 340559, Note_on_c, 6, 45, 0
12, 341280, Note_on_c, 6, 45, 84
12, 341519, Note_on_c, 6, 45, 0
12, 341760, Note_on_c, 6, 45, 84
12, 341999, Note_on_c, 6, 45, 0
12, 342240, Note_on_c, 6, 45, 84
12, 342479, Note_on_c, 6, 45, 0
12, 342720, Note_on_c, 6, 45, 84
12, 342959, Note_on_c, 6, 45, 0
12, 343200, Note_on_c, 6, 50, 84
12, 343439, Note_on_c, 6, 50, 0
12, 344160, Note_on_c, 6, 50, 84
12, 344399, Note_on_c, 6, 50, 0
12, 344640, Note_on_c, 6, 50, 84
12, 344879, Note_on_c, 6, 50, 0
12, 345120, Note_on_c, 6, 50, 84
12, 345359, Note_on_c, 6, 50, 0
12, 348960, Note_on_c, 6, 50, 84
12, 349199, Note_on_c, 6, 50, 0
12, 358560, Note_on_c, 6, 45, 84
12, 358799, Note_on_c, 6, 45, 0
12, 359520, Note_on_c, 6, 45, 84
12, 359579, Note_on_c, 6, 45, 0
12, 359580, Note_on_c, 6, 45, 84
12, 359639, Note_on_c, 6, 45, 0
12, 359640, Note_on_c, 6, 45, 84
12, 359699, Note_on_c, 6, 45, 0
12, 359700, Note_on_c, 6, 45, 84
12, 359759, Note_on_c, 6, 45, 0
12, 359760, Note_on_c, 6, 45, 84
12, 359819, Note_on_c, 6, 45, 0
12, 359820, Note_on_c, 6, 45, 84
12, 359879, Note_on_c, 6, 45, 0
12, 359880, Note_on_c, 6, 45, 84
12, 359939, Note_on_c, 6, 45, 0
12, 359940, Note_on_c, 6, 45, 84
12, 359999, Note_on_c, 6, 45, 0
12, 360000, Note_on_c, 6, 45, 84
12, 360059, Note_on_c, 6, 45, 0
12, 360060, Note_on_c, 6, 45, 84
12, 360119, Note_on_c, 6, 45, 0
12, 360120, Note_on_c, 6, 45, 84
12, 360179, Note_on_c, 6, 45, 0
12, 360180, Note_on_c, 6, 45, 84
12, 360239, Note_on_c, 6, 45, 0
12, 360240, Note_on_c, 6, 45, 84
12, 360299, Note_on_c, 6, 45, 0
12, 360300, Note_on_c, 6, 45, 84
12, 360359, Note_on_c, 6, 45, 0
12, 360360, Note_on_c, 6, 45, 84
12, 360419, Note_on_c, 6, 45, 0
12, 360420, Note_on_c, 6, 45, 84
12, 360479, Note_on_c, 6, 45, 0
12, 360480, Note_on_c, 6, 50, 84
12, 360719, Note_on_c, 6, 50, 0
12, 362400, Note_on_c, 6, 50, 84
12, 362639, Note_on_c, 6, 50, 0
12, 363120, Note_on_c, 6, 50, 84
12, 363299, Note_on_c, 6, 50, 0
12, 363360, Note_on_c, 6, 50, 84
12, 363539, Note_on_c, 6, 50, 0
12, 363600, Note_on_c, 6, 50, 84
12, 363779, Note_on_c, 6, 50, 0
12, 363840, Note_on_c, 6, 50, 84
12, 364019, Note_on_c, 6, 50, 0
12, 364080, Note_on_c, 6, 50, 84
12, 364259, Note_on_c, 6, 50, 0
12, 364320, Note_on_c, 6, 50, 84
12, 364559, Note_on_c, 6, 50, 0
12, 366240, Note_on_c, 6, 50, 84
12, 366479, Note_on_c, 6, 50, 0
12, 366960, Note_on_c, 6, 50, 84
12, 367139, Note_on_c, 6, 50, 0
12, 367200, Note_on_c, 6, 50, 84
12, 367379, Note_on_c, 6, 50, 0
12, 367440, Note_on_c, 6, 50, 84
12, 367619, Note_on_c, 6, 50, 0
12, 367680, Note_on_c, 6, 50, 84
12, 367859, Note_on_c, 6, 50, 0
12, 367920, Note_on_c, 6, 50, 84
12, 368099, Note_on_c, 6, 50, 0
12, 368160, Note_on_c, 6, 50, 52
12, 368399, Note_on_c, 6, 50, 0
12, 368880, Note_on_c, 6, 50, 76
12, 369119, Note_on_c, 6, 50, 0
12, 369120, Note_on_c, 6, 50, 52
12, 369359, Note_on_c, 6, 50, 0
12, 369840, Note_on_c, 6, 50, 76
12, 370079, Note_on_c, 6, 50, 0
12, 370080, Note_on_c, 6, 50, 52
12, 370319, Note_on_c, 6, 50, 0
12, 370800, Note_on_c, 6, 50, 76
12, 371039, Note_on_c, 6, 50, 0
12, 371040, Note_on_c, 6, 50, 52
12, 371279, Note_on_c, 6, 50, 0
12, 371760, Note_on_c, 6, 50, 76
12, 371999, Note_on_c, 6, 50, 0
12, 372000, Note_on_c, 6, 50, 52
12, 372239, Note_on_c, 6, 50, 0
12, 372240, Note_on_c, 6, 50, 76
12, 372479, Note_on_c, 6, 50, 0
12, 372480, Note_on_c, 6, 50, 52
12, 372719, Note_on_c, 6, 50, 0
12, 372720, Note_on_c, 6, 50, 76
12, 372959, Note_on_c, 6, 50, 0
12, 372960, Note_on_c, 6, 50, 52
12, 373199, Note_on_c, 6, 50, 0
12, 373200, Note_on_c, 6, 50, 76
12, 373439, Note_on_c, 6, 50, 0
12, 373440, Note_on_c, 6, 50, 52
12, 373619, Note_on_c, 6, 50, 0
12, 373680, Note_on_c, 6, 50, 76
12, 373859, Note_on_c, 6, 50, 0
12, 373920, Note_on_c, 6, 50, 84
12, 374159, Note_on_c, 6, 50, 0
12, 375840, Note_on_c, 6, 50, 84
12, 375899, Note_on_c, 6, 50, 0
12, 375900, Note_on_c, 6, 50, 84
12, 375959, Note_on_c, 6, 50, 0
12, 375960, Note_on_c, 6, 50, 84
12, 376019, Note_on_c, 6, 50, 0
12, 376020, Note_on_c, 6, 50, 84
12, 376079, Note_on_c, 6, 50, 0
12, 376080, Note_on_c, 6, 50, 84
12, 376139, Note_on_c, 6, 50, 0
12, 376140, Note_on_c, 6, 50, 84
12, 376199, Note_on_c, 6, 50, 0
12, 376200, Note_on_c, 6, 50, 84
12, 376259, Note_on_c, 6, 50, 0
12, 376260, Note_on_c, 6, 50, 84
12, 376319, Note_on_c, 6, 50, 0
12, 376320, Note_on_c, 6, 50, 84
12, 376379, Note_on_c, 6, 50, 0
12, 376380, Note_on_c, 6, 50, 84
12, 376439, Note_on_c, 6, 50, 0
12, 376440, Note_on_c, 6, 50, 84
12, 376499, Note_on_c, 6, 50, 0
12, 376500, Note_on_c, 6, 50, 84
12, 376559, Note_on_c, 6, 50, 0
12, 376560, Note_on_c, 6, 50, 84
12, 376619, Note_on_c, 6, 50, 0
12, 376620, Note_on_c, 6, 50, 84
12, 376679, Note_on_c, 6, 50, 0
12, 376680, Note_on_c, 6, 50, 84
12, 376739, Note_on_c, 6, 50, 0
12, 376740, Note_on_c, 6, 50, 84
12, 376799, Note_on_c, 6, 50, 0
12, 376800, Note_on_c, 6, 50, 84
12, 376859, Note_on_c, 6, 50, 0
12, 376860, Note_on_c, 6, 50, 84
12, 376919, Note_on_c, 6, 50, 0
12, 376920, Note_on_c, 6, 50, 84
12, 376979, Note_on_c, 6, 50, 0
12, 376980, Note_on_c, 6, 50, 84
12, 377039, Note_on_c, 6, 50, 0
12, 377040, Note_on_c, 6, 50, 84
12, 377099, Note_on_c, 6, 50, 0
12, 377100, Note_on_c, 6, 50, 84
12, 377159, Note_on_c, 6, 50, 0
12, 377160, Note_on_c, 6, 50, 84
12, 377219, Note_on_c, 6, 50, 0
12, 377220, Note_on_c, 6, 50, 84
12, 377279, Note_on_c, 6, 50, 0
12, 377280, Note_on_c, 6, 50, 84
12, 377339, Note_on_c, 6, 50, 0
12, 377340, Note_on_c, 6, 50, 84
12, 377399, Note_on_c, 6, 50, 0
12, 377400, Note_on_c, 6, 50, 84
12, 377459, Note_on_c, 6, 50, 0
12, 377460, Note_on_c, 6, 50, 84
12, 377519, Note_on_c, 6, 50, 0
12, 377520, Note_on_c, 6, 50, 84
12, 377579, Note_on_c, 6, 50, 0
12, 377580, Note_on_c, 6, 50, 84
12, 377639, Note_on_c, 6, 50, 0
12, 377640, Note_on_c, 6, 50, 84
12, 377699, Note_on_c, 6, 50, 0
12, 377700, Note_on_c, 6, 50, 84
12, 377759, Note_on_c, 6, 50, 0
12, 377760, Note_on_c, 6, 50, 84
12, 377999, Note_on_c, 6, 50, 0
12, 378240, Note_on_c, 6, 50, 76
12, 378479, Note_on_c, 6, 50, 0
12, 379200, Note_on_c, 6, 50, 76
12, 379439, Note_on_c, 6, 50, 0
12, 386400, Note_on_c, 6, 50, 76
12, 386639, Note_on_c, 6, 50, 0
12, 386880, Note_on_c, 6, 50, 76
12, 387119, Note_on_c, 6, 50, 0
12, 388320, Note_on_c, 6, 45, 76
12, 388559, Note_on_c, 6, 45, 0
12, 388800, Note_on_c, 6, 45, 76
12, 389039, Note_on_c, 6, 45, 0
12, 389280, Note_on_c, 6, 50, 76
12, 389519, Note_on_c, 6, 50, 0
12, 391200, Note_on_c, 6, 45, 76
12, 391439, Note_on_c, 6, 45, 0
12, 393120, Note_on_c, 6, 45, 84
12, 393179, Note_on_c, 6, 45, 0
12, 393180, Note_on_c, 6, 45, 84
12, 393239, Note_on_c, 6, 45, 0
12, 393240, Note_on_c, 6, 45, 84
12, 393299, Note_on_c, 6, 45, 0
12, 393300, Note_on_c, 6, 45, 84
12, 393359, Note_on_c, 6, 45, 0
12, 393360, Note_on_c, 6, 45, 84
12, 393419, Note_on_c, 6, 45, 0
12, 393420, Note_on_c, 6, 45, 84
12, 393479, Note_on_c, 6, 45, 0
12, 393480, Note_on_c, 6, 45, 84
12, 393539, Note_on_c, 6, 45, 0
12, 393540, Note_on_c, 6, 45, 84
12, 393599, Note_on_c, 6, 45, 0
12, 393600, Note_on_c, 6, 45, 84
12, 393659, Note_on_c, 6, 45, 0
12, 393660, Note_on_c, 6, 45, 84
12, 393719, Note_on_c, 6, 45, 0
12, 393720, Note_on_c, 6, 45, 84
12, 393779, Note_on_c, 6, 45, 0
12, 393780, Note_on_c, 6, 45, 84
12, 393839, Note_on_c, 6, 45, 0
12, 393840, Note_on_c, 6, 45, 84
12, 393899, Note_on_c, 6, 45, 0
12, 393900, Note_on_c, 6, 45, 84
12, 393959, Note_on_c, 6, 45, 0
12, 393960, Note_on_c, 6, 45, 84
12, 394019, Note_on_c, 6, 45, 0
12, 394020, Note_on_c, 6, 45, 84
12, 394079, Note_on_c, 6, 45, 0
12, 395040, Note_on_c, 6, 50, 84
12, 395099, Note_on_c, 6, 50, 0
12, 395100, Note_on_c, 6, 50, 84
12, 395159, Note_on_c, 6, 50, 0
12, 395160, Note_on_c, 6, 50, 84
12, 395219, Note_on_c, 6, 50, 0
12, 395220, Note_on_c, 6, 50, 84
12, 395279, Note_on_c, 6, 50, 0
12, 395280, Note_on_c, 6, 50, 84
12, 395339, Note_on_c, 6, 50, 0
12, 395340, Note_on_c, 6, 50, 84
12, 395399, Note_on_c, 6, 50, 0
12, 395400, Note_on_c, 6, 50, 84
12, 395459, Note_on_c, 6, 50, 0
12, 395460, Note_on_c, 6, 50, 84
12, 395519, Note_on_c, 6, 50, 0
12, 395520, Note_on_c, 6, 50, 84
12, 395579, Note_on_c, 6, 50, 0
12, 395580, Note_on_c, 6, 50, 84
12, 395639, Note_on_c, 6, 50, 0
12, 395640, Note_on_c, 6, 50, 84
12, 395699, Note_on_c, 6, 50, 0
12, 395700, Note_on_c, 6, 50, 84
12, 395759, Note_on_c, 6, 50, 0
12, 395760, Note_on_c, 6, 50, 84
12, 395819, Note_on_c, 6, 50, 0
12, 395820, Note_on_c, 6, 50, 84
12, 395879, Note_on_c, 6, 50, 0
12, 395880, Note_on_c, 6, 50, 84
12, 395939, Note_on_c, 6, 50, 0
12, 395940, Note_on_c, 6, 50, 84
12, 395999, Note_on_c, 6, 50, 0
12, 396000, Note_on_c, 6, 50, 84
12, 396059, Note_on_c, 6, 50, 0
12, 396060, Note_on_c, 6, 50, 84
12, 396119, Note_on_c, 6, 50, 0
12, 396120, Note_on_c, 6, 50, 84
12, 396179, Note_on_c, 6, 50, 0
12, 396180, Note_on_c, 6, 50, 84
12, 396239, Note_on_c, 6, 50, 0
12, 396240, Note_on_c, 6, 50, 84
12, 396299, Note_on_c, 6, 50, 0
12, 396300, Note_on_c, 6, 50, 84
12, 396359, Note_on_c, 6, 50, 0
12, 396360, Note_on_c, 6, 50, 84
12, 396419, Note_on_c, 6, 50, 0
12, 396420, Note_on_c, 6, 50, 84
12, 396479, Note_on_c, 6, 50, 0
12, 396480, Note_on_c, 6, 45, 84
12, 396539, Note_on_c, 6, 45, 0
12, 396540, Note_on_c, 6, 45, 84
12, 396599, Note_on_c, 6, 45, 0
12, 396600, Note_on_c, 6, 45, 84
12, 396659, Note_on_c, 6, 45, 0
12, 396660, Note_on_c, 6, 45, 84
12, 396719, Note_on_c, 6, 45, 0
12, 396720, Note_on_c, 6, 45, 84
12, 396779, Note_on_c, 6, 45, 0
12, 396780, Note_on_c, 6, 45, 84
12, 396839, Note_on_c, 6, 45, 0
12, 396840, Note_on_c, 6, 45, 84
12, 396899, Note_on_c, 6, 45, 0
12, 396900, Note_on_c, 6, 45, 84
12, 396959, Note_on_c, 6, 45, 0
12, 396960, Note_on_c, 6, 50, 84
12, 397199, Note_on_c, 6, 50, 0
12, 398880, Note_on_c, 6, 50, 84
12, 398939, Note_on_c, 6, 50, 0
12, 398940, Note_on_c, 6, 50, 84
12, 398999, Note_on_c, 6, 50, 0
12, 399000, Note_on_c, 6, 50, 84
12, 399059, Note_on_c, 6, 50, 0
12, 399060, Note_on_c, 6, 50, 84
12, 399119, Note_on_c, 6, 50, 0
12, 399120, Note_on_c, 6, 50, 84
12, 399179, Note_on_c, 6, 50, 0
12, 399180, Note_on_c, 6, 50, 84
12, 399239, Note_on_c, 6, 50, 0
12, 399240, Note_on_c, 6, 50, 84
12, 399299, Note_on_c, 6, 50, 0
12, 399300, Note_on_c, 6, 50, 84
12, 399359, Note_on_c, 6, 50, 0
12, 399360, Note_on_c, 6, 50, 84
12, 399419, Note_on_c, 6, 50, 0
12, 399420, Note_on_c, 6, 50, 84
12, 399479, Note_on_c, 6, 50, 0
12, 399480, Note_on_c, 6, 50, 84
12, 399539, Note_on_c, 6, 50, 0
12, 399540, Note_on_c, 6, 50, 84
12, 399599, Note_on_c, 6, 50, 0
12, 399600, Note_on_c, 6, 50, 84
12, 399659, Note_on_c, 6, 50, 0
12, 399660, Note_on_c, 6, 50, 84
12, 399719, Note_on_c, 6, 50, 0
12, 399720, Note_on_c, 6, 50, 84
12, 399779, Note_on_c, 6, 50, 0
12, 399780, Note_on_c, 6, 50, 84
12, 399839, Note_on_c, 6, 50, 0
12, 400800, Note_on_c, 6, 50, 84
12, 401039, Note_on_c, 6, 50, 0
12, 401760, Note_on_c, 6, 45, 84
12, 401999, Note_on_c, 6, 45, 0
12, 402720, Note_on_c, 6, 45, 84
12, 402959, Note_on_c, 6, 45, 0
12, 403200, Note_on_c, 6, 45, 84
12, 403439, Note_on_c, 6, 45, 0
12, 403680, Note_on_c, 6, 45, 84
12, 403919, Note_on_c, 6, 45, 0
12, 405600, Note_on_c, 6, 45, 84
12, 405839, Note_on_c, 6, 45, 0
12, 407520, Note_on_c, 6, 45, 84
12, 407759, Note_on_c, 6, 45, 0
12, 408480, Note_on_c, 6, 45, 84
12, 408719, Note_on_c, 6, 45, 0
12, 408960, Note_on_c, 6, 45, 84
12, 409199, Note_on_c, 6, 45, 0
12, 410880, Note_on_c, 6, 45, 84
12, 411119, Note_on_c, 6, 45, 0
12, 411360, Note_on_c, 6, 50, 84
12, 411599, Note_on_c, 6, 50, 0
12, 411840, Note_on_c, 6, 50, 84
12, 412079, Note_on_c, 6, 50, 0
12, 412320, Note_on_c, 6, 50, 92
12, 412379, Note_on_c, 6, 50, 0
12, 412380, Note_on_c, 6, 50, 84
12, 412439, Note_on_c, 6, 50, 0
12, 412440, Note_on_c, 6, 50, 84
12, 412499, Note_on_c, 6, 50, 0
12, 412500, Note_on_c, 6, 50, 84
12, 412559, Note_on_c, 6, 50, 0
12, 412560, Note_on_c, 6, 50, 84
12, 412619, Note_on_c, 6, 50, 0
12, 412620, Note_on_c, 6, 50, 84
12, 412679, Note_on_c, 6, 50, 0
12, 412680, Note_on_c, 6, 50, 84
12, 412739, Note_on_c, 6, 50, 0
12, 412740, Note_on_c, 6, 50, 84
12, 412799, Note_on_c, 6, 50, 0
12, 412800, Note_on_c, 6, 50, 84
12, 412859, Note_on_c, 6, 50, 0
12, 412860, Note_on_c, 6, 50, 84
12, 412919, Note_on_c, 6, 50, 0
12, 412920, Note_on_c, 6, 50, 84
12, 412979, Note_on_c, 6, 50, 0
12, 412980, Note_on_c, 6, 50, 84
12, 413039, Note_on_c, 6, 50, 0
12, 413040, Note_on_c, 6, 50, 84
12, 413099, Note_on_c, 6, 50, 0
12, 413100, Note_on_c, 6, 50, 84
12, 413159, Note_on_c, 6, 50, 0
12, 413160, Note_on_c, 6, 50, 84
12, 413219, Note_on_c, 6, 50, 0
12, 413220, Note_on_c, 6, 50, 84
12, 413279, Note_on_c, 6, 50, 0
12, 413280, Note_on_c, 6, 45, 92
12, 413339, Note_on_c, 6, 45, 0
12, 413340, Note_on_c, 6, 45, 84
12, 413399, Note_on_c, 6, 45, 0
12, 413400, Note_on_c, 6, 45, 84
12, 413459, Note_on_c, 6, 45, 0
12, 413460, Note_on_c, 6, 45, 84
12, 413519, Note_on_c, 6, 45, 0
12, 413520, Note_on_c, 6, 45, 84
12, 413579, Note_on_c, 6, 45, 0
12, 413580, Note_on_c, 6, 45, 84
12, 413639, Note_on_c, 6, 45, 0
12, 413640, Note_on_c, 6, 45, 84
12, 413699, Note_on_c, 6, 45, 0
12, 413700, Note_on_c, 6, 45, 84
12, 413759, Note_on_c, 6, 45, 0
12, 413760, Note_on_c, 6, 45, 84
12, 413819, Note_on_c, 6, 45, 0
12, 413820, Note_on_c, 6, 45, 84
12, 413879, Note_on_c, 6, 45, 0
12, 413880, Note_on_c, 6, 45, 84
12, 413939, Note_on_c, 6, 45, 0
12, 413940, Note_on_c, 6, 45, 84
12, 413999, Note_on_c, 6, 45, 0
12, 414000, Note_on_c, 6, 45, 84
12, 414059, Note_on_c, 6, 45, 0
12, 414060, Note_on_c, 6, 45, 84
12, 414119, Note_on_c, 6, 45, 0
12, 414120, Note_on_c, 6, 45, 84
12, 414179, Note_on_c, 6, 45, 0
12, 414180, Note_on_c, 6, 45, 84
12, 414239, Note_on_c, 6, 45, 0
12, 414240, Note_on_c, 6, 50, 84
12, 414479, Note_on_c, 6, 50, 0
12, 416640, Note_on_c, 6, 50, 84
12, 416879, Note_on_c, 6, 50, 0
12, 417120, Note_on_c, 6, 50, 84
12, 417359, Note_on_c, 6, 50, 0
12, 417600, Note_on_c, 6, 45, 84
12, 417839, Note_on_c, 6, 45, 0
12, 418080, Note_on_c, 6, 50, 84
12, 418319, Note_on_c, 6, 50, 0
12, 420480, Note_on_c, 6, 50, 92
12, 420719, Note_on_c, 6, 50, 0
12, 420960, Note_on_c, 6, 50, 84
12, 421199, Note_on_c, 6, 50, 0
12, 421440, Note_on_c, 6, 45, 84
12, 421679, Note_on_c, 6, 45, 0
12, 421920, Note_on_c, 6, 50, 84
12, 422159, Note_on_c, 6, 50, 0
12, 422400, Note_on_c, 6, 50, 84
12, 422639, Note_on_c, 6, 50, 0
12, 422880, Note_on_c, 6, 50, 84
12, 423119, Note_on_c, 6, 50, 0
12, 423360, Note_on_c, 6, 45, 84
12, 423599, Note_on_c, 6, 45, 0
12, 423840, Note_on_c, 6, 50, 76
12, 424079, Note_on_c, 6, 50, 0
12, 424740, Note_on_c, 6, 50, 76
12, 424799, Note_on_c, 6, 50, 0
12, 424800, Note_on_c, 6, 50, 76
12, 425219, Note_on_c, 6, 50, 0
12, 425220, Note_on_c, 6, 50, 76
12, 425279, Note_on_c, 6, 50, 0
12, 425280, Note_on_c, 6, 50, 76
12, 425699, Note_on_c, 6, 50, 0
12, 425700, Note_on_c, 6, 50, 76
12, 425759, Note_on_c, 6, 50, 0
12, 425760, Note_on_c, 6, 50, 76
12, 425999, Note_on_c, 6, 50, 0
12, 426660, Note_on_c, 6, 50, 76
12, 426719, Note_on_c, 6, 50, 0
12, 426720, Note_on_c, 6, 50, 76
12, 426959, Note_on_c, 6, 50, 0
12, 427140, Note_on_c, 6, 50, 76
12, 427199, Note_on_c, 6, 50, 0
12, 427200, Note_on_c, 6, 50, 76
12, 427439, Note_on_c, 6, 50, 0
12, 427620, Note_on_c, 6, 50, 76
12, 427679, Note_on_c, 6, 50, 0
12, 427680, Note_on_c, 6, 50, 76
12, 427919, Note_on_c, 6, 50, 0
12, 428100, Note_on_c, 6, 50, 76
12, 428144, Note_on_c, 6, 50, 0
12, 428160, Note_on_c, 6, 50, 76
12, 428339, Note_on_c, 6, 50, 0
12, 429060, Note_on_c, 6, 45, 76
12, 429104, Note_on_c, 6, 45, 0
12, 429120, Note_on_c, 6, 45, 76
12, 429299, Note_on_c, 6, 45, 0
12, 430020, Note_on_c, 6, 50, 76
12, 430064, Note_on_c, 6, 50, 0
12, 430080, Note_on_c, 6, 50, 76
12, 430259, Note_on_c, 6, 50, 0
12, 430980, Note_on_c, 6, 45, 76
12, 431024, Note_on_c, 6, 45, 0
12, 431040, Note_on_c, 6, 45, 76
12, 431219, Note_on_c, 6, 45, 0
12, 431520, Note_on_c, 6, 50, 76
12, 431759, Note_on_c, 6, 50, 0
12, 432420, Note_on_c, 6, 50, 84
12, 432479, Note_on_c, 6, 50, 0
12, 432480, Note_on_c, 6, 50, 84
12, 432719, Note_on_c, 6, 50, 0
12, 432960, Note_on_c, 6, 50, 84
12, 433199, Note_on_c, 6, 50, 0
12, 433440, Note_on_c, 6, 50, 84
12, 434399, Note_on_c, 6, 50, 0
12, 434399, End_track
13, 0, Start_track
13, 0, Title_t, "Violin I"
13, 0, MIDI_port, 0
13, 0, Program_c, 11, 48
13, 0, Control_c, 11, 7, 96
13, 0, Control_c, 11, 10, 48
13, 0, Control_c, 11, 11, 127
13, 690, Note_on_c, 11, 62, 84
13, 715, Note_on_c, 11, 62, 0
13, 720, Note_on_c, 11, 62, 84
13, 1064, Note_on_c, 11, 62, 0
13, 3570, Note_on_c, 11, 62, 84
13, 3570, Note_on_c, 11, 74, 84
13, 3595, Note_on_c, 11, 62, 0
13, 3595, Note_on_c, 11, 74, 0
13, 3600, Note_on_c, 11, 74, 84
13, 3600, Note_on_c, 11, 62, 84
13, 3951, Note_on_c, 11, 74, 0
13, 3951, Note_on_c, 11, 62, 0
13, 3960, Control_c, 11, 11, 80
13, 3960, Note_on_c, 11, 78, 76
13, 4079, Note_on_c, 11, 78, 0
13, 4080, Note_on_c, 11, 76, 76
13, 4199, Note_on_c, 11, 76, 0
13, 4200, Note_on_c, 11, 74, 76
13, 4311, Note_on_c, 11, 74, 0
13, 4320, Note_on_c, 11, 74, 76
13, 4320, Control_c, 11, 11, 80
13, 4360, Control_c, 11, 11, 84
13, 4400, Control_c, 11, 11, 88
13, 4440, Control_c, 11, 11, 92
13, 4480, Control_c, 11, 11, 96
13, 4520, Control_c, 11, 11, 100
13, 4559, Note_on_c, 11, 74, 0
13, 4560, Note_on_c, 11, 73, 76
13, 4560, Control_c, 11, 11, 104
13, 4600, Control_c, 11, 11, 107
13, 4640, Control_c, 11, 11, 111
13, 4680, Control_c, 11, 11, 115
13, 4720, Control_c, 11, 11, 119
13, 4760, Control_c, 11, 11, 123
13, 4791, Note_on_c, 11, 73, 0
13, 4800, Control_c, 11, 11, 127
13, 4800, Note_on_c, 11, 75, 84
13, 4814, Note_on_c, 11, 75, 0
13, 4815, Note_on_c, 11, 76, 76
13, 4829, Note_on_c, 11, 76, 0
13, 4830, Note_on_c, 11, 75, 76
13, 4844, Note_on_c, 11, 75, 0
13, 4845, Note_on_c, 11, 76, 76
13, 4859, Note_on_c, 11, 76, 0
13, 4860, Note_on_c, 11, 75, 76
13, 4874, Note_on_c, 11, 75, 0
13, 4875, Note_on_c, 11, 76, 76
13, 4889, Note_on_c, 11, 76, 0
13, 4890, Note_on_c, 11, 75, 76
13, 4904, Note_on_c, 11, 75, 0
13, 4905, Note_on_c, 11, 76, 76
13, 4919, Note_on_c, 11, 76, 0
13, 4920, Note_on_c, 11, 75, 76
13, 4934, Note_on_c, 11, 75, 0
13, 4935, Note_on_c, 11, 76, 76
13, 4949, Note_on_c, 11, 76, 0
13, 4950, Note_on_c, 11, 75, 76
13, 4964, Note_on_c, 11, 75, 0
13, 4965, Note_on_c, 11, 76, 76
13, 4979, Note_on_c, 11, 76, 0
13, 4980, Note_on_c, 11, 75, 76
13, 4994, Note_on_c, 11, 75, 0
13, 4995, Note_on_c, 11, 76, 76
13, 5009, Note_on_c, 11, 76, 0
13, 5010, Note_on_c, 11, 73, 76
13, 5024, Note_on_c, 11, 73, 0
13, 5025, Note_on_c, 11, 75, 76
13, 5036, Note_on_c, 11, 75, 0
13, 5040, Note_on_c, 11, 76, 76
13, 5054, Note_on_c, 11, 76, 0
13, 5055, Note_on_c, 11, 78, 76
13, 5069, Note_on_c, 11, 78, 0
13, 5070, Note_on_c, 11, 76, 76
13, 5084, Note_on_c, 11, 76, 0
13, 5085, Note_on_c, 11, 78, 76
13, 5099, Note_on_c, 11, 78, 0
13, 5100, Note_on_c, 11, 76, 76
13, 5114, Note_on_c, 11, 76, 0
13, 5115, Note_on_c, 11, 78, 76
13, 5129, Note_on_c, 11, 78, 0
13, 5130, Note_on_c, 11, 76, 76
13, 5144, Note_on_c, 11, 76, 0
13, 5145, Note_on_c, 11, 78, 76
13, 5159, Note_on_c, 11, 78, 0
13, 5160, Note_on_c, 11, 76, 76
13, 5174, Note_on_c, 11, 76, 0
13, 5175, Note_on_c, 11, 78, 76
13, 5189, Note_on_c, 11, 78, 0
13, 5190, Note_on_c, 11, 76, 76
13, 5204, Note_on_c, 11, 76, 0
13, 5205, Note_on_c, 11, 78, 76
13, 5219, Note_on_c, 11, 78, 0
13, 5220, Note_on_c, 11, 75, 76
13, 5234, Note_on_c, 11, 75, 0
13, 5235, Note_on_c, 11, 76, 76
13, 5249, Note_on_c, 11, 76, 0
13, 5250, Note_on_c, 11, 78, 76
13, 5275, Note_on_c, 11, 78, 0
13, 5280, Note_on_c, 11, 79, 76
13, 5294, Note_on_c, 11, 79, 0
13, 5295, Note_on_c, 11, 81, 76
13, 5309, Note_on_c, 11, 81, 0
13, 5310, Note_on_c, 11, 79, 76
13, 5324, Note_on_c, 11, 79, 0
13, 5325, Note_on_c, 11, 81, 76
13, 5339, Note_on_c, 11, 81, 0
13, 5340, Note_on_c, 11, 78, 76
13, 5354, Note_on_c, 11, 78, 0
13, 5355, Note_on_c, 11, 79, 76
13, 5369, Note_on_c, 11, 79, 0
13, 5370, Note_on_c, 11, 81, 76
13, 5395, Note_on_c, 11, 81, 0
13, 5400, Note_on_c, 11, 83, 84
13, 5559, Note_on_c, 11, 83, 0
13, 5560, Note_on_c, 11, 79, 76
13, 5595, Note_on_c, 11, 79, 0
13, 5600, Note_on_c, 11, 76, 76
13, 5629, Note_on_c, 11, 76, 0
13, 5640, Note_on_c, 11, 79, 76
13, 5679, Note_on_c, 11, 79, 0
13, 5680, Note_on_c, 11, 76, 76
13, 5715, Note_on_c, 11, 76, 0
13, 5720, Note_on_c, 11, 73, 76
13, 5749, Note_on_c, 11, 73, 0
13, 5760, Note_on_c, 11, 74, 76
13, 5939, Note_on_c, 11, 74, 0
13, 6000, Control_c, 11, 11, 96
13, 6120, Note_on_c, 11, 59, 68
13, 6150, Control_c, 11, 11, 99
13, 6180, Control_c, 11, 11, 101
13, 6210, Control_c, 11, 11, 104
13, 6239, Note_on_c, 11, 59, 0
13, 6240, Note_on_c, 11, 61, 68
13, 6240, Control_c, 11, 11, 106
13, 6270, Control_c, 11, 11, 109
13, 6300, Control_c, 11, 11, 112
13, 6330, Control_c, 11, 11, 114
13, 6359, Note_on_c, 11, 61, 0
13, 6360, Note_on_c, 11, 62, 68
13, 6360, Control_c, 11, 11, 117
13, 6390, Control_c, 11, 11, 119
13, 6420, Control_c, 11, 11, 122
13, 6450, Control_c, 11, 11, 124
13, 6471, Note_on_c, 11, 62, 0
13, 6480, Note_on_c, 11, 64, 76
13, 6480, Note_on_c, 11, 61, 76
13, 6480, Control_c, 11, 11, 127
13, 6719, Note_on_c, 11, 64, 0
13, 6719, Note_on_c, 11, 61, 0
13, 7080, Note_on_c, 11, 66, 52
13, 7199, Note_on_c, 11, 66, 0
13, 7200, Note_on_c, 11, 67, 76
13, 7200, Note_on_c, 11, 55, 76
13, 7439, Note_on_c, 11, 67, 0
13, 7439, Note_on_c, 11, 55, 0
13, 7800, Note_on_c, 11, 68, 52
13, 7919, Note_on_c, 11, 68, 0
13, 7920, Note_on_c, 11, 57, 76
13, 7920, Note_on_c, 11, 69, 76
13, 8159, Note_on_c, 11, 57, 0
13, 8159, Note_on_c, 11, 69, 0
13, 8520, Note_on_c, 11, 81, 84
13, 8520, Note_on_c, 11, 69, 84
13, 8609, Note_on_c, 11, 81, 0
13, 8609, Note_on_c, 11, 69, 0
13, 8640, Note_on_c, 11, 70, 76
13, 8640, Note_on_c, 11, 82, 76
13, 8700, Control_c, 11, 11, 80
13, 8879, Note_on_c, 11, 70, 0
13, 8935, Note_on_c, 11, 82, 0
13, 8940, Note_on_c, 11, 81, 76
13, 8969, Note_on_c, 11, 81, 0
13, 8970, Note_on_c, 11, 79, 76
13, 8999, Note_on_c, 11, 79, 0
13, 9000, Note_on_c, 11, 77, 76
13, 9029, Note_on_c, 11, 77, 0
13, 9030, Note_on_c, 11, 75, 76
13, 9059, Note_on_c, 11, 75, 0
13, 9060, Note_on_c, 11, 74, 76
13, 9089, Note_on_c, 11, 74, 0
13, 9090, Note_on_c, 11, 72, 76
13, 9115, Note_on_c, 11, 72, 0
13, 9120, Note_on_c, 11, 70, 76
13, 9149, Note_on_c, 11, 70, 0
13, 9150, Note_on_c, 11, 69, 76
13, 9179, Note_on_c, 11, 69, 0
13, 9180, Note_on_c, 11, 67, 76
13, 9209, Note_on_c, 11, 67, 0
13, 9210, Note_on_c, 11, 65, 76
13, 9239, Note_on_c, 11, 65, 0
13, 9240, Note_on_c, 11, 63, 76
13, 9269, Note_on_c, 11, 63, 0
13, 9270, Note_on_c, 11, 62, 76
13, 9299, Note_on_c, 11, 62, 0
13, 9300, Note_on_c, 11, 60, 76
13, 9329, Note_on_c, 11, 60, 0
13, 9330, Note_on_c, 11, 58, 76
13, 9355, Note_on_c, 11, 58, 0
13, 9358, Control_c, 11, 11, 127
13, 9360, Note_on_c, 11, 57, 68
13, 9420, Control_c, 11, 11, 96
13, 9471, Note_on_c, 11, 57, 0
13, 9480, Note_on_c, 11, 60, 68
13, 9546, Note_on_c, 11, 60, 0
13, 9570, Note_on_c, 11, 63, 68
13, 9591, Note_on_c, 11, 63, 0
13, 9600, Note_on_c, 11, 69, 68
13, 9689, Note_on_c, 11, 69, 0
13, 9720, Note_on_c, 11, 72, 68
13, 9809, Note_on_c, 11, 72, 0
13, 9840, Note_on_c, 11, 75, 68
13, 9929, Note_on_c, 11, 75, 0
13, 9960, Note_on_c, 11, 81, 68
13, 10049, Note_on_c, 11, 81, 0
13, 10065, Control_c, 11, 11, 127
13, 10080, Note_on_c, 11, 82, 68
13, 10080, Note_on_c, 11, 70, 68
13, 10140, Control_c, 11, 11, 96
13, 10319, Note_on_c, 11, 70, 0
13, 10345, Note_on_c, 11, 82, 0
13, 10350, Note_on_c, 11, 77, 68
13, 10379, Note_on_c, 11, 77, 0
13, 10380, Note_on_c, 11, 79, 68
13, 10409, Note_on_c, 11, 79, 0
13, 10410, Note_on_c, 11, 81, 68
13, 10439, Note_on_c, 11, 81, 0
13, 10440, Note_on_c, 11, 82, 68
13, 10469, Note_on_c, 11, 82, 0
13, 10470, Note_on_c, 11, 84, 68
13, 10499, Note_on_c, 11, 84, 0
13, 10500, Note_on_c, 11, 86, 68
13, 10529, Note_on_c, 11, 86, 0
13, 10530, Note_on_c, 11, 84, 68
13, 10555, Note_on_c, 11, 84, 0
13, 10560, Note_on_c, 11, 82, 68
13, 10589, Note_on_c, 11, 82, 0
13, 10590, Note_on_c, 11, 81, 68
13, 10619, Note_on_c, 11, 81, 0
13, 10620, Note_on_c, 11, 79, 68
13, 10649, Note_on_c, 11, 79, 0
13, 10650, Note_on_c, 11, 77, 68
13, 10679, Note_on_c, 11, 77, 0
13, 10680, Note_on_c, 11, 75, 68
13, 10709, Note_on_c, 11, 75, 0
13, 10710, Note_on_c, 11, 74, 68
13, 10739, Note_on_c, 11, 74, 0
13, 10740, Note_on_c, 11, 72, 68
13, 10769, Note_on_c, 11, 72, 0
13, 10770, Note_on_c, 11, 70, 68
13, 10795, Note_on_c, 11, 70, 0
13, 10798, Control_c, 11, 11, 127
13, 10800, Note_on_c, 11, 69, 68
13, 10860, Control_c, 11, 11, 80
13, 10866, Note_on_c, 11, 69, 0
13, 10890, Note_on_c, 11, 57, 76
13, 10911, Note_on_c, 11, 57, 0
13, 10920, Note_on_c, 11, 60, 76
13, 10986, Note_on_c, 11, 60, 0
13, 11010, Note_on_c, 11, 63, 76
13, 11031, Note_on_c, 11, 63, 0
13, 11040, Note_on_c, 11, 69, 76
13, 11129, Note_on_c, 11, 69, 0
13, 11160, Note_on_c, 11, 72, 76
13, 11249, Note_on_c, 11, 72, 0
13, 11280, Note_on_c, 11, 75, 76
13, 11369, Note_on_c, 11, 75, 0
13, 11400, Note_on_c, 11, 81, 76
13, 11489, Note_on_c, 11, 81, 0
13, 11520, Note_on_c, 11, 82, 76
13, 11639, Note_on_c, 11, 82, 0
13, 11760, Control_c, 11, 11, 80
13, 11760, Note_on_c, 11, 77, 76
13, 11800, Control_c, 11, 11, 84
13, 11840, Control_c, 11, 11, 88
13, 11880, Control_c, 11, 11, 92
13, 11920, Control_c, 11, 11, 96
13, 11960, Control_c, 11, 11, 100
13, 12000, Control_c, 11, 11, 104
13, 12040, Control_c, 11, 11, 107
13, 12080, Control_c, 11, 11, 111
13, 12119, Note_on_c, 11, 77, 0
13, 12120, Control_c, 11, 11, 115
13, 12120, Note_on_c, 11, 78, 76
13, 12160, Control_c, 11, 11, 119
13, 12200, Control_c, 11, 11, 123
13, 12239, Note_on_c, 11, 78, 0
13, 12240, Control_c, 11, 11, 127
13, 12240, Note_on_c, 11, 79, 84
13, 12359, Note_on_c, 11, 79, 0
13, 12480, Note_on_c, 11, 67, 68
13, 12540, Control_c, 11, 11, 96
13, 12621, Note_on_c, 11, 67, 0
13, 12630, Note_on_c, 11, 69, 68
13, 12644, Note_on_c, 11, 69, 0
13, 12645, Note_on_c, 11, 71, 68
13, 12659, Note_on_c, 11, 71, 0
13, 12660, Note_on_c, 11, 72, 68
13, 12674, Note_on_c, 11, 72, 0
13, 12675, Note_on_c, 11, 74, 68
13, 12689, Note_on_c, 11, 74, 0
13, 12690, Note_on_c, 11, 76, 68
13, 12704, Note_on_c, 11, 76, 0
13, 12705, Note_on_c, 11, 78, 68
13, 12716, Note_on_c, 11, 78, 0
13, 12720, Note_on_c, 11, 79, 68
13, 12809, Note_on_c, 11, 79, 0
13, 12960, Control_c, 11, 11, 127
13, 13200, Note_on_c, 11, 72, 68
13, 13260, Control_c, 11, 11, 96
13, 13341, Note_on_c, 11, 72, 0
13, 13350, Note_on_c, 11, 74, 68
13, 13364, Note_on_c, 11, 74, 0
13, 13365, Note_on_c, 11, 76, 68
13, 13379, Note_on_c, 11, 76, 0
13, 13380, Note_on_c, 11, 77, 68
13, 13394, Note_on_c, 11, 77, 0
13, 13395, Note_on_c, 11, 79, 68
13, 13409, Note_on_c, 11, 79, 0
13, 13410, Note_on_c, 11, 81, 68
13, 13424, Note_on_c, 11, 81, 0
13, 13425, Note_on_c, 11, 83, 68
13, 13436, Note_on_c, 11, 83, 0
13, 13440, Note_on_c, 11, 84, 68
13, 13529, Note_on_c, 11, 84, 0
13, 13680, Control_c, 11, 11, 127
13, 13920, Note_on_c, 11, 65, 68
13, 13980, Control_c, 11, 11, 96
13, 14061, Note_on_c, 11, 65, 0
13, 14070, Note_on_c, 11, 67, 68
13, 14084, Note_on_c, 11, 67, 0
13, 14085, Note_on_c, 11, 69, 68
13, 14099, Note_on_c, 11, 69, 0
13, 14100, Note_on_c, 11, 70, 68
13, 14114, Note_on_c, 11, 70, 0
13, 14115, Note_on_c, 11, 72, 68
13, 14129, Note_on_c, 11, 72, 0
13, 14130, Note_on_c, 11, 74, 68
13, 14144, Note_on_c, 11, 74, 0
13, 14145, Note_on_c, 11, 76, 68
13, 14156, Note_on_c, 11, 76, 0
13, 14160, Note_on_c, 11, 77, 68
13, 14249, Note_on_c, 11, 77, 0
13, 14400, Control_c, 11, 11, 127
13, 14640, Note_on_c, 11, 74, 68
13, 14700, Control_c, 11, 11, 96
13, 14781, Note_on_c, 11, 74, 0
13, 14790, Note_on_c, 11, 76, 68
13, 14804, Note_on_c, 11, 76, 0
13, 14805, Note_on_c, 11, 78, 68
13, 14819, Note_on_c, 11, 78, 0
13, 14820, Note_on_c, 11, 79, 68
13, 14834, Note_on_c, 11, 79, 0
13, 14835, Note_on_c, 11, 81, 68
13, 14849, Note_on_c, 11, 81, 0
13, 14850, Note_on_c, 11, 83, 68
13, 14864, Note_on_c, 11, 83, 0
13, 14865, Note_on_c, 11, 85, 68
13, 14876, Note_on_c, 11, 85, 0
13, 14880, Note_on_c, 11, 86, 68
13, 14969, Note_on_c, 11, 86, 0
13, 15120, Control_c, 11, 11, 127
13, 15360, Note_on_c, 11, 67, 68
13, 15420, Control_c, 11, 11, 96
13, 15501, Note_on_c, 11, 67, 0
13, 15510, Note_on_c, 11, 69, 68
13, 15524, Note_on_c, 11, 69, 0
13, 15525, Note_on_c, 11, 70, 68
13, 15539, Note_on_c, 11, 70, 0
13, 15540, Note_on_c, 11, 72, 68
13, 15554, Note_on_c, 11, 72, 0
13, 15555, Note_on_c, 11, 74, 68
13, 15569, Note_on_c, 11, 74, 0
13, 15570, Note_on_c, 11, 76, 68
13, 15584, Note_on_c, 11, 76, 0
13, 15585, Note_on_c, 11, 78, 68
13, 15596, Note_on_c, 11, 78, 0
13, 15600, Note_on_c, 11, 79, 68
13, 15689, Note_on_c, 11, 79, 0
13, 16050, Control_c, 11, 11, 82
13, 16080, Control_c, 11, 11, 85
13, 16080, Note_on_c, 11, 61, 84
13, 16110, Control_c, 11, 11, 88
13, 16140, Control_c, 11, 11, 90
13, 16170, Control_c, 11, 11, 93
13, 16200, Control_c, 11, 11, 96
13, 16221, Note_on_c, 11, 61, 0
13, 16230, Note_on_c, 11, 62, 84
13, 16230, Control_c, 11, 11, 98
13, 16244, Note_on_c, 11, 62, 0
13, 16245, Note_on_c, 11, 64, 84
13, 16259, Note_on_c, 11, 64, 0
13, 16260, Note_on_c, 11, 65, 84
13, 16260, Control_c, 11, 11, 101
13, 16274, Note_on_c, 11, 65, 0
13, 16275, Note_on_c, 11, 67, 84
13, 16289, Note_on_c, 11, 67, 0
13, 16290, Control_c, 11, 11, 103
13, 16290, Note_on_c, 11, 69, 84
13, 16304, Note_on_c, 11, 69, 0
13, 16305, Note_on_c, 11, 71, 84
13, 16316, Note_on_c, 11, 71, 0
13, 16320, Note_on_c, 11, 73, 84
13, 16320, Control_c, 11, 11, 106
13, 16350, Control_c, 11, 11, 109
13, 16380, Control_c, 11, 11, 111
13, 16410, Control_c, 11, 11, 114
13, 16440, Control_c, 11, 11, 117
13, 16446, Note_on_c, 11, 73, 0
13, 16455, Note_on_c, 11, 74, 84
13, 16469, Note_on_c, 11, 74, 0
13, 16470, Control_c, 11, 11, 119
13, 16470, Note_on_c, 11, 76, 84
13, 16484, Note_on_c, 11, 76, 0
13, 16485, Note_on_c, 11, 77, 84
13, 16499, Note_on_c, 11, 77, 0
13, 16500, Note_on_c, 11, 79, 84
13, 16500, Control_c, 11, 11, 122
13, 16514, Note_on_c, 11, 79, 0
13, 16515, Note_on_c, 11, 81, 84
13, 16529, Note_on_c, 11, 81, 0
13, 16530, Control_c, 11, 11, 124
13, 16530, Note_on_c, 11, 83, 84
13, 16544, Note_on_c, 11, 83, 0
13, 16545, Note_on_c, 11, 85, 84
13, 16556, Note_on_c, 11, 85, 0
13, 16560, Control_c, 11, 11, 127
13, 16560, Note_on_c, 11, 86, 84
13, 16765, Note_on_c, 11, 86, 0
13, 16770, Note_on_c, 11, 86, 84
13, 16795, Note_on_c, 11, 86, 0
13, 16800, Note_on_c, 11, 81, 84
13, 17005, Note_on_c, 11, 81, 0
13, 17010, Note_on_c, 11, 81, 84
13, 17035, Note_on_c, 11, 81, 0
13, 17040, Note_on_c, 11, 77, 84
13, 17129, Note_on_c, 11, 77, 0
13, 17160, Note_on_c, 11, 74, 84
13, 17249, Note_on_c, 11, 74, 0
13, 17280, Note_on_c, 11, 69, 92
13, 17399, Note_on_c, 11, 69, 0
13, 18000, Control_c, 11, 11, 96
13, 18040, Note_on_c, 11, 81, 68
13, 18069, Note_on_c, 11, 81, 0
13, 18080, Note_on_c, 11, 83, 68
13, 18109, Note_on_c, 11, 83, 0
13, 18120, Note_on_c, 11, 84, 68
13, 18149, Note_on_c, 11, 84, 0
13, 18160, Note_on_c, 11, 83, 68
13, 18189, Note_on_c, 11, 83, 0
13, 18200, Note_on_c, 11, 81, 68
13, 18229, Note_on_c, 11, 81, 0
13, 18240, Note_on_c, 11, 79, 68
13, 18269, Note_on_c, 11, 79, 0
13, 18280, Note_on_c, 11, 83, 68
13, 18309, Note_on_c, 11, 83, 0
13, 18320, Note_on_c, 11, 81, 68
13, 18349, Note_on_c, 11, 81, 0
13, 18360, Note_on_c, 11, 79, 68
13, 18389, Note_on_c, 11, 79, 0
13, 18400, Note_on_c, 11, 81, 68
13, 18429, Note_on_c, 11, 81, 0
13, 18440, Note_on_c, 11, 78, 68
13, 18469, Note_on_c, 11, 78, 0
13, 18480, Note_on_c, 11, 76, 68
13, 18509, Note_on_c, 11, 76, 0
13, 18520, Note_on_c, 11, 78, 68
13, 18549, Note_on_c, 11, 78, 0
13, 18560, Note_on_c, 11, 75, 68
13, 18589, Note_on_c, 11, 75, 0
13, 18600, Note_on_c, 11, 76, 68
13, 18629, Note_on_c, 11, 76, 0
13, 18640, Note_on_c, 11, 78, 68
13, 18669, Note_on_c, 11, 78, 0
13, 18680, Note_on_c, 11, 79, 68
13, 18709, Note_on_c, 11, 79, 0
13, 18760, Note_on_c, 11, 79, 68
13, 18789, Note_on_c, 11, 79, 0
13, 18800, Note_on_c, 11, 81, 68
13, 18829, Note_on_c, 11, 81, 0
13, 18840, Note_on_c, 11, 82, 68
13, 18869, Note_on_c, 11, 82, 0
13, 18880, Note_on_c, 11, 81, 68
13, 18909, Note_on_c, 11, 81, 0
13, 18920, Note_on_c, 11, 79, 68
13, 18949, Note_on_c, 11, 79, 0
13, 18960, Note_on_c, 11, 78, 68
13, 19079, Note_on_c, 11, 78, 0
13, 19080, Note_on_c, 11, 81, 68
13, 19319, Note_on_c, 11, 81, 0
13, 19320, Note_on_c, 11, 84, 68
13, 19431, Note_on_c, 11, 84, 0
13, 19440, Note_on_c, 11, 75, 68
13, 19679, Note_on_c, 11, 75, 0
13, 19680, Note_on_c, 11, 76, 68
13, 19855, Note_on_c, 11, 76, 0
13, 19860, Note_on_c, 11, 78, 68
13, 19904, Note_on_c, 11, 78, 0
13, 19920, Note_on_c, 11, 79, 68
13, 19964, Note_on_c, 11, 79, 0
13, 19980, Note_on_c, 11, 79, 68
13, 20024, Note_on_c, 11, 79, 0
13, 20040, Note_on_c, 11, 81, 68
13, 20084, Note_on_c, 11, 81, 0
13, 20100, Note_on_c, 11, 83, 68
13, 20144, Note_on_c, 11, 83, 0
13, 20160, Note_on_c, 11, 73, 68
13, 20160, Control_c, 11, 11, 96
13, 20220, Control_c, 11, 11, 99
13, 20280, Control_c, 11, 11, 101
13, 20340, Control_c, 11, 11, 104
13, 20399, Note_on_c, 11, 73, 0
13, 20400, Control_c, 11, 11, 106
13, 20400, Note_on_c, 11, 74, 68
13, 20460, Control_c, 11, 11, 109
13, 20520, Control_c, 11, 11, 112
13, 20575, Note_on_c, 11, 74, 0
13, 20580, Control_c, 11, 11, 114
13, 20580, Note_on_c, 11, 76, 68
13, 20624, Note_on_c, 11, 76, 0
13, 20640, Control_c, 11, 11, 117
13, 20640, Note_on_c, 11, 78, 68
13, 20684, Note_on_c, 11, 78, 0
13, 20700, Note_on_c, 11, 78, 68
13, 20700, Control_c, 11, 11, 119
13, 20744, Note_on_c, 11, 78, 0
13, 20760, Note_on_c, 11, 79, 68
13, 20760, Control_c, 11, 11, 122
13, 20804, Note_on_c, 11, 79, 0
13, 20820, Control_c, 11, 11, 124
13, 20820, Note_on_c, 11, 81, 68
13, 20864, Note_on_c, 11, 81, 0
13, 20880, Note_on_c, 11, 71, 76
13, 20880, Control_c, 11, 11, 127
13, 20880, Note_on_c, 11, 80, 76
13, 20880, Note_on_c, 11, 62, 76
13, 20999, Note_on_c, 11, 71, 0
13, 20999, Note_on_c, 11, 80, 0
13, 20999, Note_on_c, 11, 62, 0
13, 21360, Note_on_c, 11, 74, 52
13, 21374, Note_on_c, 11, 74, 0
13, 21375, Note_on_c, 11, 76, 52
13, 21389, Note_on_c, 11, 76, 0
13, 21390, Note_on_c, 11, 74, 52
13, 21404, Note_on_c, 11, 74, 0
13, 21405, Note_on_c, 11, 76, 52
13, 21419, Note_on_c, 11, 76, 0
13, 21420, Note_on_c, 11, 74, 52
13, 21434, Note_on_c, 11, 74, 0
13, 21435, Note_on_c, 11, 76, 52
13, 21449, Note_on_c, 11, 76, 0
13, 21450, Note_on_c, 11, 74, 52
13, 21464, Note_on_c, 11, 74, 0
13, 21465, Note_on_c, 11, 76, 52
13, 21479, Note_on_c, 11, 76, 0
13, 21480, Note_on_c, 11, 74, 52
13, 21494, Note_on_c, 11, 74, 0
13, 21495, Note_on_c, 11, 76, 52
13, 21509, Note_on_c, 11, 76, 0
13, 21510, Note_on_c, 11, 74, 52
13, 21524, Note_on_c, 11, 74, 0
13, 21525, Note_on_c, 11, 76, 52
13, 21539, Note_on_c, 11, 76, 0
13, 21540, Note_on_c, 11, 73, 52
13, 21569, Note_on_c, 11, 73, 0
13, 21570, Note_on_c, 11, 74, 52
13, 21595, Note_on_c, 11, 74, 0
13, 21600, Note_on_c, 11, 79, 68
13, 21600, Note_on_c, 11, 64, 68
13, 21600, Note_on_c, 11, 73, 68
13, 21719, Note_on_c, 11, 79, 0
13, 21719, Note_on_c, 11, 64, 0
13, 21719, Note_on_c, 11, 73, 0
13, 22080, Note_on_c, 11, 73, 52
13, 22094, Note_on_c, 11, 73, 0
13, 22095, Note_on_c, 11, 74, 52
13, 22109, Note_on_c, 11, 74, 0
13, 22110, Note_on_c, 11, 73, 52
13, 22124, Note_on_c, 11, 73, 0
13, 22125, Note_on_c, 11, 74, 52
13, 22139, Note_on_c, 11, 74, 0
13, 22140, Note_on_c, 11, 73, 52
13, 22154, Note_on_c, 11, 73, 0
13, 22155, Note_on_c, 11, 74, 52
13, 22169, Note_on_c, 11, 74, 0
13, 22170, Note_on_c, 11, 73, 52
13, 22184, Note_on_c, 11, 73, 0
13, 22185, Note_on_c, 11, 74, 52
13, 22199, Note_on_c, 11, 74, 0
13, 22200, Note_on_c, 11, 73, 52
13, 22214, Note_on_c, 11, 73, 0
13, 22215, Note_on_c, 11, 74, 52
13, 22229, Note_on_c, 11, 74, 0
13, 22230, Note_on_c, 11, 73, 52
13, 22244, Note_on_c, 11, 73, 0
13, 22245, Note_on_c, 11, 74, 52
13, 22259, Note_on_c, 11, 74, 0
13, 22260, Note_on_c, 11, 71, 52
13, 22289, Note_on_c, 11, 71, 0
13, 22290, Note_on_c, 11, 73, 52
13, 22315, Note_on_c, 11, 73, 0
13, 22320, Note_on_c, 11, 74, 68
13, 22320, Note_on_c, 11, 78, 68
13, 22320, Note_on_c, 11, 62, 68
13, 22439, Note_on_c, 11, 74, 0
13, 22439, Note_on_c, 11, 78, 0
13, 22439, Note_on_c, 11, 62, 0
13, 22800, Note_on_c, 11, 81, 52
13, 22814, Note_on_c, 11, 81, 0
13, 22815, Note_on_c, 11, 83, 52
13, 22829, Note_on_c, 11, 83, 0
13, 22830, Note_on_c, 11, 81, 52
13, 22844, Note_on_c, 11, 81, 0
13, 22845, Note_on_c, 11, 83, 52
13, 22859, Note_on_c, 11, 83, 0
13, 22860, Note_on_c, 11, 81, 52
13, 22874, Note_on_c, 11, 81, 0
13, 22875, Note_on_c, 11, 83, 52
13, 22889, Note_on_c, 11, 83, 0
13, 22890, Note_on_c, 11, 81, 52
13, 22904, Note_on_c, 11, 81, 0
13, 22905, Note_on_c, 11, 83, 52
13, 22919, Note_on_c, 11, 83, 0
13, 22920, Note_on_c, 11, 81, 52
13, 22934, Note_on_c, 11, 81, 0
13, 22935, Note_on_c, 11, 83, 52
13, 22949, Note_on_c, 11, 83, 0
13, 22950, Note_on_c, 11, 81, 52
13, 22964, Note_on_c, 11, 81, 0
13, 22965, Note_on_c, 11, 83, 52
13, 22979, Note_on_c, 11, 83, 0
13, 22980, Note_on_c, 11, 80, 52
13, 23009, Note_on_c, 11, 80, 0
13, 23010, Note_on_c, 11, 81, 52
13, 23035, Note_on_c, 11, 81, 0
13, 23040, Note_on_c, 11, 76, 68
13, 23040, Note_on_c, 11, 69, 68
13, 23040, Note_on_c, 11, 74, 68
13, 23159, Note_on_c, 11, 76, 0
13, 23159, Note_on_c, 11, 69, 0
13, 23159, Note_on_c, 11, 74, 0
13, 23280, Control_c, 11, 11, 80
13, 23520, Note_on_c, 11, 81, 76
13, 23534, Note_on_c, 11, 81, 0
13, 23535, Note_on_c, 11, 83, 76
13, 23549, Note_on_c, 11, 83, 0
13, 23550, Note_on_c, 11, 81, 76
13, 23564, Note_on_c, 11, 81, 0
13, 23565, Note_on_c, 11, 83, 76
13, 23579, Note_on_c, 11, 83, 0
13, 23580, Note_on_c, 11, 81, 76
13, 23594, Note_on_c, 11, 81, 0
13, 23595, Note_on_c, 11, 83, 76
13, 23609, Note_on_c, 11, 83, 0
13, 23610, Note_on_c, 11, 81, 76
13, 23624, Note_on_c, 11, 81, 0
13, 23625, Note_on_c, 11, 83, 76
13, 23639, Note_on_c, 11, 83, 0
13, 23640, Note_on_c, 11, 81, 76
13, 23654, Note_on_c, 11, 81, 0
13, 23655, Note_on_c, 11, 83, 76
13, 23669, Note_on_c, 11, 83, 0
13, 23670, Note_on_c, 11, 81, 76
13, 23684, Note_on_c, 11, 81, 0
13, 23685, Note_on_c, 11, 83, 76
13, 23699, Note_on_c, 11, 83, 0
13, 23700, Note_on_c, 11, 80, 76
13, 23729, Note_on_c, 11, 80, 0
13, 23730, Note_on_c, 11, 81, 76
13, 23755, Note_on_c, 11, 81, 0
13, 23760, Note_on_c, 11, 81, 76
13, 23760, Control_c, 11, 11, 80
13, 23820, Control_c, 11, 11, 84
13, 23880, Control_c, 11, 11, 88
13, 23940, Control_c, 11, 11, 92
13, 24000, Control_c, 11, 11, 96
13, 24060, Control_c, 11, 11, 100
13, 24120, Control_c, 11, 11, 104
13, 24180, Control_c, 11, 11, 107
13, 24240, Control_c, 11, 11, 111
13, 24300, Control_c, 11, 11, 115
13, 24325, Note_on_c, 11, 81, 0
13, 24330, Note_on_c, 11, 79, 76
13, 24344, Note_on_c, 11, 79, 0
13, 24345, Note_on_c, 11, 78, 76
13, 24359, Note_on_c, 11, 78, 0
13, 24360, Note_on_c, 11, 76, 76
13, 24360, Control_c, 11, 11, 119
13, 24374, Note_on_c, 11, 76, 0
13, 24375, Note_on_c, 11, 74, 76
13, 24389, Note_on_c, 11, 74, 0
13, 24390, Note_on_c, 11, 73, 76
13, 24404, Note_on_c, 11, 73, 0
13, 24405, Note_on_c, 11, 71, 76
13, 24419, Note_on_c, 11, 71, 0
13, 24420, Control_c, 11, 11, 123
13, 24420, Note_on_c, 11, 69, 76
13, 24434, Note_on_c, 11, 69, 0
13, 24435, Note_on_c, 11, 67, 76
13, 24449, Note_on_c, 11, 67, 0
13, 24450, Note_on_c, 11, 66, 76
13, 24464, Note_on_c, 11, 66, 0
13, 24465, Note_on_c, 11, 64, 76
13, 24476, Note_on_c, 11, 64, 0
13, 24480, Note_on_c, 11, 62, 76
13, 24480, Control_c, 11, 11, 127
13, 24584, Note_on_c, 11, 62, 0
13, 24600, Note_on_c, 11, 62, 52
13, 24704, Note_on_c, 11, 62, 0
13, 24720, Note_on_c, 11, 62, 52
13, 24824, Note_on_c, 11, 62, 0
13, 24840, Note_on_c, 11, 62, 52
13, 24944, Note_on_c, 11, 62, 0
13, 24960, Note_on_c, 11, 62, 52
13, 25064, Note_on_c, 11, 62, 0
13, 25080, Note_on_c, 11, 62, 52
13, 25184, Note_on_c, 11, 62, 0
13, 25200, Note_on_c, 11, 62, 52
13, 25304, Note_on_c, 11, 62, 0
13, 25320, Note_on_c, 11, 62, 52
13, 25424, Note_on_c, 11, 62, 0
13, 25440, Note_on_c, 11, 62, 52
13, 25544, Note_on_c, 11, 62, 0
13, 25560, Note_on_c, 11, 62, 52
13, 25664, Note_on_c, 11, 62, 0
13, 25680, Note_on_c, 11, 62, 52
13, 25784, Note_on_c, 11, 62, 0
13, 25800, Note_on_c, 11, 62, 52
13, 25904, Note_on_c, 11, 62, 0
13, 25920, Note_on_c, 11, 62, 52
13, 26024, Note_on_c, 11, 62, 0
13, 26040, Note_on_c, 11, 62, 52
13, 26144, Note_on_c, 11, 62, 0
13, 26160, Note_on_c, 11, 62, 52
13, 26264, Note_on_c, 11, 62, 0
13, 26280, Note_on_c, 11, 62, 52
13, 26384, Note_on_c, 11, 62, 0
13, 26400, Note_on_c, 11, 62, 52
13, 26504, Note_on_c, 11, 62, 0
13, 26520, Note_on_c, 11, 62, 52
13, 26624, Note_on_c, 11, 62, 0
13, 26640, Note_on_c, 11, 62, 52
13, 26744, Note_on_c, 11, 62, 0
13, 26760, Note_on_c, 11, 62, 52
13, 26864, Note_on_c, 11, 62, 0
13, 26880, Note_on_c, 11, 62, 52
13, 26984, Note_on_c, 11, 62, 0
13, 27000, Note_on_c, 11, 62, 52
13, 27104, Note_on_c, 11, 62, 0
13, 27120, Note_on_c, 11, 62, 52
13, 27224, Note_on_c, 11, 62, 0
13, 27240, Note_on_c, 11, 62, 52
13, 27344, Note_on_c, 11, 62, 0
13, 27360, Note_on_c, 11, 78, 52
13, 27419, Note_on_c, 11, 78, 0
13, 27420, Note_on_c, 11, 76, 53
13, 27479, Note_on_c, 11, 76, 0
13, 27480, Note_on_c, 11, 74, 54
13, 27539, Note_on_c, 11, 74, 0
13, 27540, Note_on_c, 11, 76, 55
13, 27599, Note_on_c, 11, 76, 0
13, 27600, Note_on_c, 11, 78, 56
13, 27659, Note_on_c, 11, 78, 0
13, 27660, Note_on_c, 11, 79, 57
13, 27719, Note_on_c, 11, 79, 0
13, 27720, Note_on_c, 11, 81, 58
13, 27779, Note_on_c, 11, 81, 0
13, 27780, Note_on_c, 11, 79, 59
13, 27839, Note_on_c, 11, 79, 0
13, 27840, Note_on_c, 11, 78, 60
13, 27899, Note_on_c, 11, 78, 0
13, 27900, Note_on_c, 11, 76, 61
13, 27959, Note_on_c, 11, 76, 0
13, 27960, Note_on_c, 11, 74, 62
13, 28019, Note_on_c, 11, 74, 0
13, 28020, Note_on_c, 11, 73, 63
13, 28079, Note_on_c, 11, 73, 0
13, 28080, Note_on_c, 11, 71, 64
13, 28139, Note_on_c, 11, 71, 0
13, 28140, Note_on_c, 11, 69, 65
13, 28199, Note_on_c, 11, 69, 0
13, 28200, Note_on_c, 11, 67, 66
13, 28259, Note_on_c, 11, 67, 0
13, 28260, Note_on_c, 11, 66, 67
13, 28311, Note_on_c, 11, 66, 0
13, 28320, Note_on_c, 11, 64, 52
13, 28424, Note_on_c, 11, 64, 0
13, 28440, Note_on_c, 11, 64, 52
13, 28544, Note_on_c, 11, 64, 0
13, 28560, Note_on_c, 11, 64, 52
13, 28664, Note_on_c, 11, 64, 0
13, 28680, Note_on_c, 11, 64, 52
13, 28784, Note_on_c, 11, 64, 0
13, 28800, Note_on_c, 11, 64, 52
13, 28904, Note_on_c, 11, 64, 0
13, 28920, Note_on_c, 11, 64, 52
13, 29024, Note_on_c, 11, 64, 0
13, 29040, Note_on_c, 11, 64, 52
13, 29144, Note_on_c, 11, 64, 0
13, 29160, Note_on_c, 11, 64, 52
13, 29264, Note_on_c, 11, 64, 0
13, 29280, Note_on_c, 11, 64, 52
13, 29384, Note_on_c, 11, 64, 0
13, 29400, Note_on_c, 11, 64, 52
13, 29504, Note_on_c, 11, 64, 0
13, 29520, Note_on_c, 11, 64, 52
13, 29624, Note_on_c, 11, 64, 0
13, 29640, Note_on_c, 11, 64, 52
13, 29744, Note_on_c, 11, 64, 0
13, 29760, Note_on_c, 11, 64, 52
13, 29864, Note_on_c, 11, 64, 0
13, 29880, Note_on_c, 11, 64, 52
13, 29984, Note_on_c, 11, 64, 0
13, 30000, Note_on_c, 11, 64, 52
13, 30104, Note_on_c, 11, 64, 0
13, 30120, Note_on_c, 11, 64, 52
13, 30224, Note_on_c, 11, 64, 0
13, 30240, Note_on_c, 11, 64, 52
13, 30344, Note_on_c, 11, 64, 0
13, 30360, Note_on_c, 11, 64, 52
13, 30464, Note_on_c, 11, 64, 0
13, 30480, Note_on_c, 11, 64, 52
13, 30584, Note_on_c, 11, 64, 0
13, 30600, Note_on_c, 11, 64, 52
13, 30704, Note_on_c, 11, 64, 0
13, 30720, Note_on_c, 11, 64, 52
13, 30824, Note_on_c, 11, 64, 0
13, 30840, Note_on_c, 11, 64, 52
13, 30944, Note_on_c, 11, 64, 0
13, 30960, Note_on_c, 11, 64, 52
13, 31064, Note_on_c, 11, 64, 0
13, 31080, Note_on_c, 11, 64, 52
13, 31184, Note_on_c, 11, 64, 0
13, 31200, Note_on_c, 11, 64, 52
13, 31304, Note_on_c, 11, 64, 0
13, 31320, Note_on_c, 11, 64, 52
13, 31424, Note_on_c, 11, 64, 0
13, 31440, Note_on_c, 11, 64, 52
13, 31544, Note_on_c, 11, 64, 0
13, 31560, Note_on_c, 11, 64, 52
13, 31664, Note_on_c, 11, 64, 0
13, 31680, Note_on_c, 11, 64, 52
13, 31784, Note_on_c, 11, 64, 0
13, 31800, Note_on_c, 11, 64, 52
13, 31904, Note_on_c, 11, 64, 0
13, 31920, Note_on_c, 11, 65, 52
13, 32024, Note_on_c, 11, 65, 0
13, 32040, Note_on_c, 11, 65, 52
13, 32144, Note_on_c, 11, 65, 0
13, 32160, Note_on_c, 11, 66, 52
13, 32264, Note_on_c, 11, 66, 0
13, 32280, Note_on_c, 11, 66, 52
13, 32384, Note_on_c, 11, 66, 0
13, 32400, Note_on_c, 11, 66, 52
13, 32504, Note_on_c, 11, 66, 0
13, 32520, Note_on_c, 11, 66, 52
13, 32624, Note_on_c, 11, 66, 0
13, 32640, Note_on_c, 11, 66, 52
13, 32744, Note_on_c, 11, 66, 0
13, 32760, Note_on_c, 11, 66, 52
13, 32864, Note_on_c, 11, 66, 0
13, 32880, Note_on_c, 11, 66, 52
13, 32984, Note_on_c, 11, 66, 0
13, 33000, Note_on_c, 11, 66, 52
13, 33104, Note_on_c, 11, 66, 0
13, 33120, Note_on_c, 11, 66, 52
13, 33224, Note_on_c, 11, 66, 0
13, 33240, Note_on_c, 11, 66, 52
13, 33344, Note_on_c, 11, 66, 0
13, 33360, Note_on_c, 11, 66, 52
13, 33464, Note_on_c, 11, 66, 0
13, 33480, Note_on_c, 11, 66, 52
13, 33584, Note_on_c, 11, 66, 0
13, 33600, Note_on_c, 11, 66, 52
13, 33704, Note_on_c, 11, 66, 0
13, 33720, Note_on_c, 11, 66, 52
13, 33824, Note_on_c, 11, 66, 0
13, 33840, Note_on_c, 11, 66, 52
13, 33944, Note_on_c, 11, 66, 0
13, 33960, Note_on_c, 11, 66, 52
13, 34049, Note_on_c, 11, 66, 0
13, 34065, Control_c, 11, 11, 80
13, 34080, Note_on_c, 11, 69, 76
13, 34199, Note_on_c, 11, 69, 0
13, 34200, Note_on_c, 11, 67, 76
13, 34304, Note_on_c, 11, 67, 0
13, 34320, Control_c, 11, 11, 84
13, 34320, Note_on_c, 11, 67, 76
13, 34409, Note_on_c, 11, 67, 0
13, 34440, Note_on_c, 11, 67, 76
13, 34529, Note_on_c, 11, 67, 0
13, 34560, Control_c, 11, 11, 88
13, 34680, Note_on_c, 11, 66, 76
13, 34769, Note_on_c, 11, 66, 0
13, 34800, Note_on_c, 11, 66, 76
13, 34800, Control_c, 11, 11, 92
13, 34889, Note_on_c, 11, 66, 0
13, 34920, Note_on_c, 11, 66, 76
13, 35009, Note_on_c, 11, 66, 0
13, 35040, Control_c, 11, 11, 96
13, 35160, Note_on_c, 11, 64, 76
13, 35249, Note_on_c, 11, 64, 0
13, 35280, Note_on_c, 11, 64, 76
13, 35280, Control_c, 11, 11, 100
13, 35369, Note_on_c, 11, 64, 0
13, 35400, Note_on_c, 11, 64, 76
13, 35489, Note_on_c, 11, 64, 0
13, 35520, Control_c, 11, 11, 104
13, 35640, Note_on_c, 11, 63, 76
13, 35729, Note_on_c, 11, 63, 0
13, 35760, Note_on_c, 11, 63, 76
13, 35760, Control_c, 11, 11, 107
13, 35849, Note_on_c, 11, 63, 0
13, 35880, Note_on_c, 11, 63, 76
13, 35969, Note_on_c, 11, 63, 0
13, 36000, Control_c, 11, 11, 111
13, 36000, Note_on_c, 11, 64, 76
13, 36179, Note_on_c, 11, 64, 0
13, 36240, Control_c, 11, 11, 115
13, 36240, Note_on_c, 11, 76, 76
13, 36479, Note_on_c, 11, 76, 0
13, 36480, Control_c, 11, 11, 119
13, 36480, Note_on_c, 11, 79, 76
13, 36719, Note_on_c, 11, 79, 0
13, 36720, Note_on_c, 11, 73, 76
13, 36720, Control_c, 11, 11, 127
13, 36944, Note_on_c, 11, 73, 0
13, 36960, Note_on_c, 11, 62, 76
13, 36960, Note_on_c, 11, 74, 76
13, 37664, Note_on_c, 11, 62, 0
13, 37664, Note_on_c, 11, 74, 0
13, 37680, Note_on_c, 11, 74, 76
13, 37739, Note_on_c, 11, 74, 0
13, 37740, Note_on_c, 11, 73, 76
13, 37799, Note_on_c, 11, 73, 0
13, 37800, Note_on_c, 11, 74, 76
13, 37859, Note_on_c, 11, 74, 0
13, 37860, Note_on_c, 11, 76, 76
13, 37911, Note_on_c, 11, 76, 0
13, 37920, Note_on_c, 11, 78, 84
13, 38624, Note_on_c, 11, 78, 0
13, 38640, Note_on_c, 11, 78, 76
13, 38699, Note_on_c, 11, 78, 0
13, 38700, Note_on_c, 11, 76, 76
13, 38759, Note_on_c, 11, 76, 0
13, 38760, Note_on_c, 11, 78, 76
13, 38819, Note_on_c, 11, 78, 0
13, 38820, Note_on_c, 11, 79, 76
13, 38871, Note_on_c, 11, 79, 0
13, 38880, Note_on_c, 11, 81, 76
13, 39059, Note_on_c, 11, 81, 0
13, 39120, Note_on_c, 11, 81, 76
13, 39179, Note_on_c, 11, 81, 0
13, 39180, Note_on_c, 11, 80, 76
13, 39239, Note_on_c, 11, 80, 0
13, 39240, Note_on_c, 11, 81, 76
13, 39299, Note_on_c, 11, 81, 0
13, 39300, Note_on_c, 11, 83, 76
13, 39351, Note_on_c, 11, 83, 0
13, 39360, Note_on_c, 11, 84, 84
13, 40064, Note_on_c, 11, 84, 0
13, 40080, Note_on_c, 11, 81, 76
13, 40259, Note_on_c, 11, 81, 0
13, 40320, Note_on_c, 11, 78, 76
13, 40499, Note_on_c, 11, 78, 0
13, 40560, Note_on_c, 11, 72, 76
13, 40739, Note_on_c, 11, 72, 0
13, 40800, Note_on_c, 11, 71, 76
13, 40979, Note_on_c, 11, 71, 0
13, 41040, Note_on_c, 11, 79, 76
13, 41099, Note_on_c, 11, 79, 0
13, 41100, Note_on_c, 11, 78, 76
13, 41159, Note_on_c, 11, 78, 0
13, 41160, Note_on_c, 11, 79, 76
13, 41219, Note_on_c, 11, 79, 0
13, 41220, Note_on_c, 11, 78, 76
13, 41279, Note_on_c, 11, 78, 0
13, 41280, Note_on_c, 11, 79, 76
13, 41339, Note_on_c, 11, 79, 0
13, 41340, Note_on_c, 11, 78, 76
13, 41399, Note_on_c, 11, 78, 0
13, 41400, Note_on_c, 11, 79, 76
13, 41459, Note_on_c, 11, 79, 0
13, 41460, Note_on_c, 11, 78, 76
13, 41519, Note_on_c, 11, 78, 0
13, 41520, Note_on_c, 11, 79, 76
13, 41579, Note_on_c, 11, 79, 0
13, 41580, Note_on_c, 11, 78, 76
13, 41639, Note_on_c, 11, 78, 0
13, 41640, Note_on_c, 11, 79, 76
13, 41699, Note_on_c, 11, 79, 0
13, 41700, Note_on_c, 11, 78, 76
13, 41751, Note_on_c, 11, 78, 0
13, 41760, Note_on_c, 11, 79, 76
13, 41819, Note_on_c, 11, 79, 0
13, 41820, Note_on_c, 11, 81, 76
13, 41879, Note_on_c, 11, 81, 0
13, 41880, Note_on_c, 11, 83, 76
13, 41939, Note_on_c, 11, 83, 0
13, 41940, Note_on_c, 11, 81, 76
13, 41999, Note_on_c, 11, 81, 0
13, 42000, Note_on_c, 11, 79, 76
13, 42059, Note_on_c, 11, 79, 0
13, 42060, Note_on_c, 11, 78, 76
13, 42119, Note_on_c, 11, 78, 0
13, 42120, Note_on_c, 11, 76, 76
13, 42179, Note_on_c, 11, 76, 0
13, 42180, Note_on_c, 11, 74, 76
13, 42239, Note_on_c, 11, 74, 0
13, 42240, Note_on_c, 11, 73, 76
13, 42299, Note_on_c, 11, 73, 0
13, 42300, Note_on_c, 11, 74, 76
13, 42359, Note_on_c, 11, 74, 0
13, 42360, Note_on_c, 11, 76, 76
13, 42419, Note_on_c, 11, 76, 0
13, 42420, Note_on_c, 11, 74, 76
13, 42479, Note_on_c, 11, 74, 0
13, 42480, Note_on_c, 11, 73, 76
13, 42539, Note_on_c, 11, 73, 0
13, 42540, Note_on_c, 11, 71, 76
13, 42599, Note_on_c, 11, 71, 0
13, 42600, Note_on_c, 11, 69, 76
13, 42659, Note_on_c, 11, 69, 0
13, 42660, Note_on_c, 11, 67, 76
13, 42711, Note_on_c, 11, 67, 0
13, 42720, Note_on_c, 11, 66, 76
13, 42899, Note_on_c, 11, 66, 0
13, 42960, Note_on_c, 11, 81, 76
13, 43019, Note_on_c, 11, 81, 0
13, 43020, Note_on_c, 11, 80, 76
13, 43079, Note_on_c, 11, 80, 0
13, 43080, Note_on_c, 11, 81, 76
13, 43139, Note_on_c, 11, 81, 0
13, 43140, Note_on_c, 11, 83, 76
13, 43191, Note_on_c, 11, 83, 0
13, 43200, Note_on_c, 11, 84, 84
13, 43904, Note_on_c, 11, 84, 0
13, 43920, Note_on_c, 11, 81, 76
13, 44099, Note_on_c, 11, 81, 0
13, 44160, Note_on_c, 11, 78, 76
13, 44339, Note_on_c, 11, 78, 0
13, 44400, Note_on_c, 11, 72, 76
13, 44579, Note_on_c, 11, 72, 0
13, 44640, Note_on_c, 11, 70, 76
13, 44819, Note_on_c, 11, 70, 0
13, 44880, Note_on_c, 11, 79, 76
13, 44939, Note_on_c, 11, 79, 0
13, 44940, Note_on_c, 11, 78, 76
13, 44999, Note_on_c, 11, 78, 0
13, 45000, Note_on_c, 11, 79, 76
13, 45059, Note_on_c, 11, 79, 0
13, 45060, Note_on_c, 11, 78, 76
13, 45119, Note_on_c, 11, 78, 0
13, 45120, Note_on_c, 11, 79, 76
13, 45179, Note_on_c, 11, 79, 0
13, 45180, Note_on_c, 11, 78, 76
13, 45239, Note_on_c, 11, 78, 0
13, 45240, Note_on_c, 11, 79, 76
13, 45299, Note_on_c, 11, 79, 0
13, 45300, Note_on_c, 11, 78, 76
13, 45359, Note_on_c, 11, 78, 0
13, 45360, Note_on_c, 11, 79, 76
13, 45419, Note_on_c, 11, 79, 0
13, 45420, Note_on_c, 11, 78, 76
13, 45479, Note_on_c, 11, 78, 0
13, 45480, Note_on_c, 11, 79, 76
13, 45539, Note_on_c, 11, 79, 0
13, 45540, Note_on_c, 11, 78, 76
13, 45591, Note_on_c, 11, 78, 0
13, 45600, Note_on_c, 11, 79, 76
13, 45659, Note_on_c, 11, 79, 0
13, 45660, Note_on_c, 11, 81, 76
13, 45719, Note_on_c, 11, 81, 0
13, 45720, Note_on_c, 11, 82, 76
13, 45779, Note_on_c, 11, 82, 0
13, 45780, Note_on_c, 11, 81, 76
13, 45839, Note_on_c, 11, 81, 0
13, 45840, Note_on_c, 11, 79, 76
13, 45899, Note_on_c, 11, 79, 0
13, 45900, Note_on_c, 11, 77, 76
13, 45959, Note_on_c, 11, 77, 0
13, 45960, Note_on_c, 11, 76, 76
13, 46019, Note_on_c, 11, 76, 0
13, 46020, Note_on_c, 11, 74, 76
13, 46071, Note_on_c, 11, 74, 0
13, 46080, Note_on_c, 11, 73, 76
13, 46139, Note_on_c, 11, 73, 0
13, 46140, Note_on_c, 11, 74, 76
13, 46199, Note_on_c, 11, 74, 0
13, 46200, Note_on_c, 11, 76, 76
13, 46259, Note_on_c, 11, 76, 0
13, 46260, Note_on_c, 11, 74, 76
13, 46319, Note_on_c, 11, 74, 0
13, 46320, Note_on_c, 11, 73, 76
13, 46379, Note_on_c, 11, 73, 0
13, 46380, Note_on_c, 11, 70, 76
13, 46439, Note_on_c, 11, 70, 0
13, 46440, Note_on_c, 11, 69, 76
13, 46499, Note_on_c, 11, 69, 0
13, 46500, Note_on_c, 11, 67, 76
13, 46551, Note_on_c, 11, 67, 0
13, 46560, Note_on_c, 11, 65, 76
13, 46799, Note_on_c, 11, 65, 0
13, 46980, Note_on_c, 11, 86, 76
13, 46980, Note_on_c, 11, 74, 76
13, 47031, Note_on_c, 11, 86, 0
13, 47031, Note_on_c, 11, 74, 0
13, 47040, Note_on_c, 11, 86, 84
13, 47040, Note_on_c, 11, 74, 84
13, 48719, Note_on_c, 11, 86, 0
13, 48719, Note_on_c, 11, 74, 0
13, 48900, Note_on_c, 11, 86, 76
13, 48900, Note_on_c, 11, 74, 76
13, 48951, Note_on_c, 11, 86, 0
13, 48951, Note_on_c, 11, 74, 0
13, 48960, Note_on_c, 11, 74, 84
13, 48960, Note_on_c, 11, 86, 84
13, 50384, Note_on_c, 11, 74, 0
13, 50384, Note_on_c, 11, 86, 0
13, 50400, Note_on_c, 11, 88, 84
13, 50984, Note_on_c, 11, 88, 0
13, 51000, Note_on_c, 11, 89, 84
13, 51089, Note_on_c, 11, 89, 0
13, 51120, Note_on_c, 11, 88, 84
13, 51209, Note_on_c, 11, 88, 0
13, 51240, Note_on_c, 11, 86, 84
13, 51329, Note_on_c, 11, 86, 0
13, 51360, Note_on_c, 11, 84, 84
13, 51449, Note_on_c, 11, 84, 0
13, 51480, Note_on_c, 11, 83, 84
13, 51569, Note_on_c, 11, 83, 0
13, 51600, Note_on_c, 11, 81, 84
13, 51689, Note_on_c, 11, 81, 0
13, 51720, Note_on_c, 11, 80, 84
13, 51809, Note_on_c, 11, 80, 0
13, 51840, Note_on_c, 11, 81, 84
13, 51929, Note_on_c, 11, 81, 0
13, 51960, Note_on_c, 11, 84, 84
13, 52049, Note_on_c, 11, 84, 0
13, 52080, Note_on_c, 11, 83, 84
13, 52169, Note_on_c, 11, 83, 0
13, 52200, Note_on_c, 11, 81, 84
13, 52289, Note_on_c, 11, 81, 0
13, 52320, Note_on_c, 11, 80, 84
13, 52409, Note_on_c, 11, 80, 0
13, 52440, Note_on_c, 11, 63, 84
13, 52529, Note_on_c, 11, 63, 0
13, 52560, Note_on_c, 11, 64, 84
13, 52649, Note_on_c, 11, 64, 0
13, 52680, Note_on_c, 11, 63, 84
13, 52769, Note_on_c, 11, 63, 0
13, 52800, Note_on_c, 11, 64, 84
13, 52889, Note_on_c, 11, 64, 0
13, 52920, Note_on_c, 11, 66, 84
13, 53009, Note_on_c, 11, 66, 0
13, 53040, Note_on_c, 11, 67, 84
13, 53129, Note_on_c, 11, 67, 0
13, 53160, Note_on_c, 11, 68, 84
13, 53249, Note_on_c, 11, 68, 0
13, 53280, Note_on_c, 11, 69, 84
13, 53369, Note_on_c, 11, 69, 0
13, 53400, Note_on_c, 11, 68, 84
13, 53489, Note_on_c, 11, 68, 0
13, 53520, Note_on_c, 11, 69, 84
13, 53609, Note_on_c, 11, 69, 0
13, 53640, Note_on_c, 11, 71, 84
13, 53729, Note_on_c, 11, 71, 0
13, 53760, Note_on_c, 11, 72, 84
13, 53849, Note_on_c, 11, 72, 0
13, 53880, Note_on_c, 11, 73, 84
13, 53969, Note_on_c, 11, 73, 0
13, 54000, Note_on_c, 11, 74, 84
13, 54089, Note_on_c, 11, 74, 0
13, 54120, Note_on_c, 11, 75, 84
13, 54209, Note_on_c, 11, 75, 0
13, 54240, Note_on_c, 11, 76, 84
13, 54419, Note_on_c, 11, 76, 0
13, 54480, Note_on_c, 11, 88, 92
13, 54824, Note_on_c, 11, 88, 0
13, 54840, Note_on_c, 11, 89, 84
13, 54929, Note_on_c, 11, 89, 0
13, 54960, Note_on_c, 11, 88, 84
13, 55049, Note_on_c, 11, 88, 0
13, 55080, Note_on_c, 11, 86, 84
13, 55169, Note_on_c, 11, 86, 0
13, 55200, Note_on_c, 11, 84, 84
13, 55289, Note_on_c, 11, 84, 0
13, 55320, Note_on_c, 11, 83, 84
13, 55409, Note_on_c, 11, 83, 0
13, 55440, Note_on_c, 11, 81, 84
13, 55529, Note_on_c, 11, 81, 0
13, 55560, Note_on_c, 11, 80, 84
13, 55649, Note_on_c, 11, 80, 0
13, 55680, Note_on_c, 11, 81, 84
13, 55769, Note_on_c, 11, 81, 0
13, 55800, Note_on_c, 11, 84, 84
13, 55889, Note_on_c, 11, 84, 0
13, 55920, Note_on_c, 11, 83, 84
13, 56009, Note_on_c, 11, 83, 0
13, 56040, Note_on_c, 11, 81, 84
13, 56129, Note_on_c, 11, 81, 0
13, 56160, Note_on_c, 11, 80, 84
13, 56211, Note_on_c, 11, 80, 0
13, 56220, Note_on_c, 11, 80, 84
13, 56271, Note_on_c, 11, 80, 0
13, 56280, Note_on_c, 11, 75, 84
13, 56331, Note_on_c, 11, 75, 0
13, 56340, Note_on_c, 11, 75, 84
13, 56391, Note_on_c, 11, 75, 0
13, 56400, Note_on_c, 11, 76, 84
13, 56451, Note_on_c, 11, 76, 0
13, 56460, Note_on_c, 11, 76, 84
13, 56511, Note_on_c, 11, 76, 0
13, 56520, Note_on_c, 11, 75, 84
13, 56571, Note_on_c, 11, 75, 0
13, 56580, Note_on_c, 11, 75, 84
13, 56631, Note_on_c, 11, 75, 0
13, 56640, Note_on_c, 11, 76, 84
13, 56691, Note_on_c, 11, 76, 0
13, 56700, Note_on_c, 11, 76, 84
13, 56751, Note_on_c, 11, 76, 0
13, 56760, Note_on_c, 11, 78, 84
13, 56811, Note_on_c, 11, 78, 0
13, 56820, Note_on_c, 11, 78, 84
13, 56871, Note_on_c, 11, 78, 0
13, 56880, Note_on_c, 11, 79, 84
13, 56931, Note_on_c, 11, 79, 0
13, 56940, Note_on_c, 11, 79, 84
13, 56991, Note_on_c, 11, 79, 0
13, 57000, Note_on_c, 11, 80, 84
13, 57051, Note_on_c, 11, 80, 0
13, 57060, Note_on_c, 11, 80, 84
13, 57111, Note_on_c, 11, 80, 0
13, 57120, Note_on_c, 11, 81, 84
13, 57171, Note_on_c, 11, 81, 0
13, 57180, Note_on_c, 11, 81, 84
13, 57231, Note_on_c, 11, 81, 0
13, 57240, Note_on_c, 11, 80, 84
13, 57291, Note_on_c, 11, 80, 0
13, 57300, Note_on_c, 11, 80, 84
13, 57351, Note_on_c, 11, 80, 0
13, 57360, Note_on_c, 11, 81, 84
13, 57411, Note_on_c, 11, 81, 0
13, 57420, Note_on_c, 11, 81, 84
13, 57471, Note_on_c, 11, 81, 0
13, 57480, Note_on_c, 11, 83, 84
13, 57531, Note_on_c, 11, 83, 0
13, 57540, Note_on_c, 11, 83, 84
13, 57591, Note_on_c, 11, 83, 0
13, 57600, Note_on_c, 11, 84, 84
13, 57651, Note_on_c, 11, 84, 0
13, 57660, Note_on_c, 11, 84, 84
13, 57711, Note_on_c, 11, 84, 0
13, 57720, Note_on_c, 11, 85, 84
13, 57771, Note_on_c, 11, 85, 0
13, 57780, Note_on_c, 11, 85, 84
13, 57831, Note_on_c, 11, 85, 0
13, 57840, Note_on_c, 11, 86, 84
13, 57891, Note_on_c, 11, 86, 0
13, 57900, Note_on_c, 11, 86, 84
13, 57951, Note_on_c, 11, 86, 0
13, 57960, Note_on_c, 11, 87, 84
13, 58011, Note_on_c, 11, 87, 0
13, 58020, Note_on_c, 11, 87, 84
13, 58071, Note_on_c, 11, 87, 0
13, 58080, Note_on_c, 11, 88, 92
13, 58131, Note_on_c, 11, 88, 0
13, 58140, Note_on_c, 11, 88, 84
13, 58191, Note_on_c, 11, 88, 0
13, 58200, Note_on_c, 11, 88, 84
13, 58251, Note_on_c, 11, 88, 0
13, 58260, Note_on_c, 11, 88, 84
13, 58311, Note_on_c, 11, 88, 0
13, 58320, Note_on_c, 11, 88, 84
13, 58371, Note_on_c, 11, 88, 0
13, 58380, Note_on_c, 11, 88, 84
13, 58431, Note_on_c, 11, 88, 0
13, 58440, Note_on_c, 11, 87, 84
13, 58491, Note_on_c, 11, 87, 0
13, 58500, Note_on_c, 11, 87, 84
13, 58551, Note_on_c, 11, 87, 0
13, 58560, Note_on_c, 11, 88, 92
13, 58611, Note_on_c, 11, 88, 0
13, 58620, Note_on_c, 11, 88, 84
13, 58671, Note_on_c, 11, 88, 0
13, 58680, Note_on_c, 11, 88, 84
13, 58731, Note_on_c, 11, 88, 0
13, 58740, Note_on_c, 11, 88, 84
13, 58791, Note_on_c, 11, 88, 0
13, 58800, Note_on_c, 11, 88, 84
13, 58851, Note_on_c, 11, 88, 0
13, 58860, Note_on_c, 11, 88, 84
13, 58911, Note_on_c, 11, 88, 0
13, 58920, Note_on_c, 11, 87, 84
13, 58971, Note_on_c, 11, 87, 0
13, 58980, Note_on_c, 11, 87, 84
13, 59031, Note_on_c, 11, 87, 0
13, 59040, Note_on_c, 11, 88, 84
13, 59091, Note_on_c, 11, 88, 0
13, 59100, Note_on_c, 11, 88, 84
13, 59151, Note_on_c, 11, 88, 0
13, 59160, Note_on_c, 11, 87, 84
13, 59211, Note_on_c, 11, 87, 0
13, 59220, Note_on_c, 11, 87, 84
13, 59271, Note_on_c, 11, 87, 0
13, 59280, Note_on_c, 11, 88, 84
13, 59331, Note_on_c, 11, 88, 0
13, 59340, Note_on_c, 11, 88, 84
13, 59391, Note_on_c, 11, 88, 0
13, 59400, Note_on_c, 11, 87, 84
13, 59451, Note_on_c, 11, 87, 0
13, 59460, Note_on_c, 11, 87, 84
13, 59511, Note_on_c, 11, 87, 0
13, 59520, Note_on_c, 11, 88, 84
13, 59571, Note_on_c, 11, 88, 0
13, 59580, Note_on_c, 11, 88, 84
13, 59631, Note_on_c, 11, 88, 0
13, 59640, Note_on_c, 11, 87, 84
13, 59691, Note_on_c, 11, 87, 0
13, 59700, Note_on_c, 11, 87, 84
13, 59751, Note_on_c, 11, 87, 0
13, 59760, Note_on_c, 11, 88, 84
13, 59811, Note_on_c, 11, 88, 0
13, 59820, Note_on_c, 11, 88, 84
13, 59871, Note_on_c, 11, 88, 0
13, 59880, Note_on_c, 11, 87, 84
13, 59931, Note_on_c, 11, 87, 0
13, 59940, Note_on_c, 11, 87, 84
13, 59991, Note_on_c, 11, 87, 0
13, 60000, Note_on_c, 11, 88, 92
13, 60704, Note_on_c, 11, 88, 0
13, 60720, Note_on_c, 11, 87, 84
13, 60899, Note_on_c, 11, 87, 0
13, 60960, Note_on_c, 11, 86, 84
13, 61139, Note_on_c, 11, 86, 0
13, 61200, Note_on_c, 11, 85, 84
13, 61379, Note_on_c, 11, 85, 0
13, 61440, Note_on_c, 11, 83, 84
13, 61619, Note_on_c, 11, 83, 0
13, 61680, Note_on_c, 11, 88, 84
13, 61859, Note_on_c, 11, 88, 0
13, 61920, Note_on_c, 11, 81, 52
13, 62099, Note_on_c, 11, 81, 0
13, 65760, Note_on_c, 11, 73, 84
13, 66224, Note_on_c, 11, 73, 0
13, 66240, Note_on_c, 11, 78, 84
13, 66651, Note_on_c, 11, 78, 0
13, 66660, Note_on_c, 11, 81, 84
13, 66711, Note_on_c, 11, 81, 0
13, 66720, Note_on_c, 11, 85, 92
13, 67424, Note_on_c, 11, 85, 0
13, 67440, Note_on_c, 11, 81, 84
13, 67619, Note_on_c, 11, 81, 0
13, 67620, Note_on_c, 11, 78, 84
13, 67671, Note_on_c, 11, 78, 0
13, 67680, Note_on_c, 11, 83, 92
13, 67859, Note_on_c, 11, 83, 0
13, 67920, Note_on_c, 11, 80, 84
13, 68099, Note_on_c, 11, 80, 0
13, 68100, Note_on_c, 11, 76, 84
13, 68151, Note_on_c, 11, 76, 0
13, 68160, Note_on_c, 11, 81, 92
13, 68339, Note_on_c, 11, 81, 0
13, 68400, Note_on_c, 11, 78, 84
13, 68579, Note_on_c, 11, 78, 0
13, 68580, Note_on_c, 11, 75, 84
13, 68631, Note_on_c, 11, 75, 0
13, 68640, Note_on_c, 11, 76, 52
13, 68819, Note_on_c, 11, 76, 0
13, 68880, Note_on_c, 11, 64, 52
13, 68939, Note_on_c, 11, 64, 0
13, 68940, Note_on_c, 11, 66, 53
13, 68999, Note_on_c, 11, 66, 0
13, 69000, Note_on_c, 11, 68, 54
13, 69059, Note_on_c, 11, 68, 0
13, 69060, Note_on_c, 11, 69, 56
13, 69111, Note_on_c, 11, 69, 0
13, 69120, Note_on_c, 11, 71, 57
13, 69179, Note_on_c, 11, 71, 0
13, 69180, Note_on_c, 11, 73, 58
13, 69239, Note_on_c, 11, 73, 0
13, 69240, Note_on_c, 11, 74, 60
13, 69299, Note_on_c, 11, 74, 0
13, 69300, Note_on_c, 11, 73, 61
13, 69359, Note_on_c, 11, 73, 0
13, 69360, Note_on_c, 11, 76, 62
13, 69419, Note_on_c, 11, 76, 0
13, 69420, Note_on_c, 11, 74, 64
13, 69479, Note_on_c, 11, 74, 0
13, 69480, Note_on_c, 11, 73, 65
13, 69539, Note_on_c, 11, 73, 0
13, 69540, Note_on_c, 11, 71, 66
13, 69591, Note_on_c, 11, 71, 0
13, 69600, Note_on_c, 11, 69, 52
13, 69824, Note_on_c, 11, 69, 0
13, 69840, Note_on_c, 11, 81, 52
13, 69899, Note_on_c, 11, 81, 0
13, 69900, Note_on_c, 11, 80, 52
13, 69959, Note_on_c, 11, 80, 0
13, 69960, Note_on_c, 11, 81, 52
13, 70019, Note_on_c, 11, 81, 0
13, 70020, Note_on_c, 11, 80, 52
13, 70079, Note_on_c, 11, 80, 0
13, 70080, Note_on_c, 11, 81, 52
13, 70139, Note_on_c, 11, 81, 0
13, 70140, Note_on_c, 11, 80, 52
13, 70199, Note_on_c, 11, 80, 0
13, 70200, Note_on_c, 11, 81, 52
13, 70259, Note_on_c, 11, 81, 0
13, 70260, Note_on_c, 11, 80, 52
13, 70319, Note_on_c, 11, 80, 0
13, 70320, Note_on_c, 11, 81, 52
13, 70379, Note_on_c, 11, 81, 0
13, 70380, Note_on_c, 11, 80, 52
13, 70439, Note_on_c, 11, 80, 0
13, 70440, Note_on_c, 11, 81, 52
13, 70499, Note_on_c, 11, 81, 0
13, 70500, Note_on_c, 11, 80, 52
13, 70551, Note_on_c, 11, 80, 0
13, 70560, Note_on_c, 11, 81, 52
13, 70619, Note_on_c, 11, 81, 0
13, 70620, Note_on_c, 11, 80, 52
13, 70679, Note_on_c, 11, 80, 0
13, 70680, Note_on_c, 11, 81, 52
13, 70739, Note_on_c, 11, 81, 0
13, 70740, Note_on_c, 11, 80, 52
13, 70799, Note_on_c, 11, 80, 0
13, 70800, Note_on_c, 11, 81, 52
13, 70859, Note_on_c, 11, 81, 0
13, 70860, Note_on_c, 11, 80, 52
13, 70919, Note_on_c, 11, 80, 0
13, 70920, Note_on_c, 11, 81, 52
13, 70979, Note_on_c, 11, 81, 0
13, 70980, Note_on_c, 11, 80, 52
13, 71039, Note_on_c, 11, 80, 0
13, 71040, Note_on_c, 11, 81, 52
13, 71099, Note_on_c, 11, 81, 0
13, 71100, Note_on_c, 11, 80, 52
13, 71159, Note_on_c, 11, 80, 0
13, 71160, Note_on_c, 11, 81, 52
13, 71219, Note_on_c, 11, 81, 0
13, 71220, Note_on_c, 11, 80, 52
13, 71279, Note_on_c, 11, 80, 0
13, 71280, Note_on_c, 11, 81, 52
13, 71339, Note_on_c, 11, 81, 0
13, 71340, Note_on_c, 11, 80, 52
13, 71399, Note_on_c, 11, 80, 0
13, 71400, Note_on_c, 11, 81, 52
13, 71459, Note_on_c, 11, 81, 0
13, 71460, Note_on_c, 11, 80, 52
13, 71511, Note_on_c, 11, 80, 0
13, 71520, Note_on_c, 11, 81, 52
13, 71579, Note_on_c, 11, 81, 0
13, 71580, Note_on_c, 11, 80, 52
13, 71639, Note_on_c, 11, 80, 0
13, 71640, Note_on_c, 11, 81, 52
13, 71699, Note_on_c, 11, 81, 0
13, 71700, Note_on_c, 11, 80, 52
13, 71759, Note_on_c, 11, 80, 0
13, 71760, Note_on_c, 11, 81, 52
13, 71819, Note_on_c, 11, 81, 0
13, 71820, Note_on_c, 11, 80, 52
13, 71879, Note_on_c, 11, 80, 0
13, 71880, Note_on_c, 11, 81, 52
13, 71939, Note_on_c, 11, 81, 0
13, 71940, Note_on_c, 11, 80, 52
13, 71999, Note_on_c, 11, 80, 0
13, 72000, Note_on_c, 11, 81, 52
13, 72059, Note_on_c, 11, 81, 0
13, 72060, Note_on_c, 11, 80, 52
13, 72119, Note_on_c, 11, 80, 0
13, 72120, Note_on_c, 11, 81, 52
13, 72179, Note_on_c, 11, 81, 0
13, 72180, Note_on_c, 11, 80, 52
13, 72239, Note_on_c, 11, 80, 0
13, 72240, Note_on_c, 11, 81, 52
13, 72299, Note_on_c, 11, 81, 0
13, 72300, Note_on_c, 11, 80, 52
13, 72359, Note_on_c, 11, 80, 0
13, 72360, Note_on_c, 11, 81, 52
13, 72419, Note_on_c, 11, 81, 0
13, 72420, Note_on_c, 11, 80, 52
13, 72471, Note_on_c, 11, 80, 0
13, 72480, Note_on_c, 11, 81, 52
13, 72539, Note_on_c, 11, 81, 0
13, 72540, Note_on_c, 11, 80, 52
13, 72599, Note_on_c, 11, 80, 0
13, 72600, Note_on_c, 11, 81, 52
13, 72659, Note_on_c, 11, 81, 0
13, 72660, Note_on_c, 11, 80, 52
13, 72719, Note_on_c, 11, 80, 0
13, 72720, Note_on_c, 11, 81, 52
13, 72779, Note_on_c, 11, 81, 0
13, 72780, Note_on_c, 11, 80, 52
13, 72839, Note_on_c, 11, 80, 0
13, 72840, Note_on_c, 11, 81, 52
13, 72899, Note_on_c, 11, 81, 0
13, 72900, Note_on_c, 11, 80, 52
13, 72959, Note_on_c, 11, 80, 0
13, 72960, Note_on_c, 11, 81, 76
13, 73049, Note_on_c, 11, 81, 0
13, 73080, Note_on_c, 11, 61, 76
13, 73169, Note_on_c, 11, 61, 0
13, 73200, Note_on_c, 11, 66, 76
13, 73289, Note_on_c, 11, 66, 0
13, 73320, Note_on_c, 11, 69, 76
13, 73409, Note_on_c, 11, 69, 0
13, 73440, Note_on_c, 11, 73, 84
13, 73529, Note_on_c, 11, 73, 0
13, 73560, Note_on_c, 11, 61, 84
13, 73649, Note_on_c, 11, 61, 0
13, 73680, Note_on_c, 11, 66, 84
13, 73769, Note_on_c, 11, 66, 0
13, 73800, Note_on_c, 11, 69, 84
13, 73889, Note_on_c, 11, 69, 0
13, 73920, Note_on_c, 11, 73, 84
13, 74009, Note_on_c, 11, 73, 0
13, 74040, Note_on_c, 11, 73, 84
13, 74129, Note_on_c, 11, 73, 0
13, 74160, Note_on_c, 11, 78, 84
13, 74249, Note_on_c, 11, 78, 0
13, 74280, Note_on_c, 11, 81, 84
13, 74369, Note_on_c, 11, 81, 0
13, 74400, Note_on_c, 11, 85, 92
13, 75104, Note_on_c, 11, 85, 0
13, 75120, Note_on_c, 11, 81, 84
13, 75299, Note_on_c, 11, 81, 0
13, 75300, Note_on_c, 11, 78, 84
13, 75351, Note_on_c, 11, 78, 0
13, 75360, Note_on_c, 11, 83, 92
13, 75449, Note_on_c, 11, 83, 0
13, 75480, Note_on_c, 11, 83, 84
13, 75599, Note_on_c, 11, 83, 0
13, 75600, Note_on_c, 11, 80, 84
13, 75719, Note_on_c, 11, 80, 0
13, 75720, Note_on_c, 11, 76, 84
13, 75824, Note_on_c, 11, 76, 0
13, 75840, Note_on_c, 11, 81, 92
13, 75929, Note_on_c, 11, 81, 0
13, 75960, Note_on_c, 11, 81, 84
13, 76079, Note_on_c, 11, 81, 0
13, 76080, Note_on_c, 11, 78, 84
13, 76199, Note_on_c, 11, 78, 0
13, 76200, Note_on_c, 11, 75, 84
13, 76304, Note_on_c, 11, 75, 0
13, 76320, Note_on_c, 11, 76, 84
13, 76559, Note_on_c, 11, 76, 0
13, 78240, Note_on_c, 11, 88, 92
13, 78824, Note_on_c, 11, 88, 0
13, 78840, Note_on_c, 11, 88, 84
13, 78959, Note_on_c, 11, 88, 0
13, 78960, Note_on_c, 11, 86, 84
13, 79079, Note_on_c, 11, 86, 0
13, 79080, Note_on_c, 11, 85, 84
13, 79184, Note_on_c, 11, 85, 0
13, 79200, Note_on_c, 11, 86, 92
13, 79784, Note_on_c, 11, 86, 0
13, 79800, Note_on_c, 11, 86, 84
13, 79919, Note_on_c, 11, 86, 0
13, 79920, Note_on_c, 11, 85, 84
13, 80039, Note_on_c, 11, 85, 0
13, 80040, Note_on_c, 11, 84, 84
13, 80144, Note_on_c, 11, 84, 0
13, 80160, Note_on_c, 11, 85, 92
13, 80249, Note_on_c, 11, 85, 0
13, 80280, Note_on_c, 11, 85, 84
13, 80399, Note_on_c, 11, 85, 0
13, 80400, Note_on_c, 11, 83, 84
13, 80519, Note_on_c, 11, 83, 0
13, 80520, Note_on_c, 11, 82, 84
13, 80624, Note_on_c, 11, 82, 0
13, 80640, Note_on_c, 11, 83, 92
13, 80729, Note_on_c, 11, 83, 0
13, 80760, Note_on_c, 11, 83, 84
13, 80879, Note_on_c, 11, 83, 0
13, 80880, Note_on_c, 11, 81, 84
13, 80999, Note_on_c, 11, 81, 0
13, 81000, Note_on_c, 11, 80, 84
13, 81104, Note_on_c, 11, 80, 0
13, 81120, Note_on_c, 11, 81, 92
13, 81209, Note_on_c, 11, 81, 0
13, 81240, Note_on_c, 11, 88, 84
13, 81359, Note_on_c, 11, 88, 0
13, 81360, Note_on_c, 11, 86, 84
13, 81479, Note_on_c, 11, 86, 0
13, 81480, Note_on_c, 11, 85, 84
13, 81584, Note_on_c, 11, 85, 0
13, 81600, Note_on_c, 11, 86, 92
13, 81689, Note_on_c, 11, 86, 0
13, 81720, Note_on_c, 11, 86, 84
13, 81839, Note_on_c, 11, 86, 0
13, 81840, Note_on_c, 11, 85, 84
13, 81959, Note_on_c, 11, 85, 0
13, 81960, Note_on_c, 11, 84, 84
13, 82064, Note_on_c, 11, 84, 0
13, 82080, Note_on_c, 11, 85, 92
13, 82169, Note_on_c, 11, 85, 0
13, 82200, Note_on_c, 11, 85, 84
13, 82319, Note_on_c, 11, 85, 0
13, 82320, Note_on_c, 11, 83, 84
13, 82439, Note_on_c, 11, 83, 0
13, 82440, Note_on_c, 11, 81, 84
13, 82544, Note_on_c, 11, 81, 0
13, 82560, Note_on_c, 11, 83, 88
13, 82649, Note_on_c, 11, 83, 0
13, 82680, Note_on_c, 11, 83, 84
13, 82799, Note_on_c, 11, 83, 0
13, 82800, Note_on_c, 11, 81, 84
13, 82919, Note_on_c, 11, 81, 0
13, 82920, Note_on_c, 11, 80, 84
13, 83024, Note_on_c, 11, 80, 0
13, 83040, Note_on_c, 11, 81, 92
13, 83129, Note_on_c, 11, 81, 0
13, 83160, Note_on_c, 11, 81, 84
13, 83279, Note_on_c, 11, 81, 0
13, 83280, Note_on_c, 11, 79, 84
13, 83399, Note_on_c, 11, 79, 0
13, 83400, Note_on_c, 11, 78, 84
13, 83504, Note_on_c, 11, 78, 0
13, 83520, Note_on_c, 11, 79, 92
13, 83609, Note_on_c, 11, 79, 0
13, 83640, Note_on_c, 11, 79, 84
13, 83759, Note_on_c, 11, 79, 0
13, 83760, Note_on_c, 11, 78, 84
13, 83879, Note_on_c, 11, 78, 0
13, 83880, Note_on_c, 11, 77, 84
13, 83984, Note_on_c, 11, 77, 0
13, 84000, Note_on_c, 11, 62, 84
13, 84000, Note_on_c, 11, 78, 84
13, 84000, Note_on_c, 11, 69, 84
13, 84179, Note_on_c, 11, 62, 0
13, 84179, Note_on_c, 11, 78, 0
13, 84179, Note_on_c, 11, 69, 0
13, 84960, Note_on_c, 11, 86, 84
13, 84960, Note_on_c, 11, 62, 84
13, 84960, Note_on_c, 11, 74, 84
13, 85139, Note_on_c, 11, 86, 0
13, 85139, Note_on_c, 11, 62, 0
13, 85139, Note_on_c, 11, 74, 0
13, 85920, Note_on_c, 11, 86, 84
13, 85920, Note_on_c, 11, 76, 84
13, 86159, Note_on_c, 11, 86, 0
13, 86159, Note_on_c, 11, 76, 0
13, 86400, Note_on_c, 11, 85, 84
13, 86400, Note_on_c, 11, 76, 84
13, 86639, Note_on_c, 11, 85, 0
13, 86639, Note_on_c, 11, 76, 0
13, 86880, Note_on_c, 11, 86, 84
13, 86880, Note_on_c, 11, 62, 84
13, 86880, Note_on_c, 11, 78, 84
13, 87119, Note_on_c, 11, 86, 0
13, 87119, Note_on_c, 11, 62, 0
13, 87119, Note_on_c, 11, 78, 0
13, 87360, Note_on_c, 11, 74, 84
13, 87360, Note_on_c, 11, 83, 84
13, 87360, Note_on_c, 11, 64, 84
13, 87599, Note_on_c, 11, 74, 0
13, 87599, Note_on_c, 11, 83, 0
13, 87599, Note_on_c, 11, 64, 0
13, 87840, Note_on_c, 11, 81, 84
13, 87840, Note_on_c, 11, 66, 84
13, 87840, Note_on_c, 11, 74, 84
13, 88079, Note_on_c, 11, 81, 0
13, 88079, Note_on_c, 11, 66, 0
13, 88079, Note_on_c, 11, 74, 0
13, 88800, Note_on_c, 11, 74, 84
13, 88800, Note_on_c, 11, 62, 84
13, 88800, Note_on_c, 11, 86, 84
13, 89039, Note_on_c, 11, 74, 0
13, 89039, Note_on_c, 11, 62, 0
13, 89039, Note_on_c, 11, 86, 0
13, 90240, Control_c, 11, 11, 80
13, 90480, Note_on_c, 11, 59, 68
13, 90539, Note_on_c, 11, 59, 0
13, 90540, Note_on_c, 11, 58, 68
13, 90599, Note_on_c, 11, 58, 0
13, 90600, Note_on_c, 11, 59, 68
13, 90659, Note_on_c, 11, 59, 0
13, 90660, Note_on_c, 11, 60, 68
13, 90711, Note_on_c, 11, 60, 0
13, 90720, Note_on_c, 11, 62, 68
13, 90899, Note_on_c, 11, 62, 0
13, 91440, Note_on_c, 11, 60, 68
13, 91499, Note_on_c, 11, 60, 0
13, 91500, Note_on_c, 11, 59, 68
13, 91559, Note_on_c, 11, 59, 0
13, 91560, Note_on_c, 11, 60, 68
13, 91619, Note_on_c, 11, 60, 0
13, 91620, Note_on_c, 11, 62, 68
13, 91671, Note_on_c, 11, 62, 0
13, 91680, Note_on_c, 11, 64, 68
13, 91859, Note_on_c, 11, 64, 0
13, 92400, Note_on_c, 11, 62, 68
13, 92459, Note_on_c, 11, 62, 0
13, 92460, Note_on_c, 11, 61, 68
13, 92519, Note_on_c, 11, 61, 0
13, 92520, Note_on_c, 11, 62, 68
13, 92579, Note_on_c, 11, 62, 0
13, 92580, Note_on_c, 11, 64, 68
13, 92631, Note_on_c, 11, 64, 0
13, 92640, Note_on_c, 11, 65, 68
13, 92640, Control_c, 11, 11, 80
13, 92760, Control_c, 11, 11, 82
13, 92819, Note_on_c, 11, 65, 0
13, 92880, Note_on_c, 11, 64, 68
13, 92880, Control_c, 11, 11, 84
13, 92939, Note_on_c, 11, 64, 0
13, 92940, Note_on_c, 11, 62, 68
13, 92999, Note_on_c, 11, 62, 0
13, 93000, Control_c, 11, 11, 86
13, 93000, Note_on_c, 11, 64, 68
13, 93059, Note_on_c, 11, 64, 0
13, 93060, Note_on_c, 11, 65, 68
13, 93111, Note_on_c, 11, 65, 0
13, 93120, Note_on_c, 11, 67, 68
13, 93120, Control_c, 11, 11, 88
13, 93240, Control_c, 11, 11, 90
13, 93299, Note_on_c, 11, 67, 0
13, 93360, Note_on_c, 11, 65, 68
13, 93360, Control_c, 11, 11, 92
13, 93419, Note_on_c, 11, 65, 0
13, 93420, Note_on_c, 11, 64, 68
13, 93479, Note_on_c, 11, 64, 0
13, 93480, Control_c, 11, 11, 94
13, 93480, Note_on_c, 11, 65, 68
13, 93539, Note_on_c, 11, 65, 0
13, 93540, Note_on_c, 11, 67, 68
13, 93591, Note_on_c, 11, 67, 0
13, 93600, Note_on_c, 11, 69, 68
13, 93600, Control_c, 11, 11, 96
13, 93720, Control_c, 11, 11, 98
13, 93779, Note_on_c, 11, 69, 0
13, 93840, Note_on_c, 11, 68, 68
13, 93840, Control_c, 11, 11, 100
13, 93899, Note_on_c, 11, 68, 0
13, 93900, Note_on_c, 11, 66, 68
13, 93959, Note_on_c, 11, 66, 0
13, 93960, Control_c, 11, 11, 102
13, 93960, Note_on_c, 11, 68, 68
13, 94019, Note_on_c, 11, 68, 0
13, 94020, Note_on_c, 11, 69, 68
13, 94071, Note_on_c, 11, 69, 0
13, 94080, Control_c, 11, 11, 104
13, 94080, Note_on_c, 11, 71, 68
13, 94200, Control_c, 11, 11, 105
13, 94259, Note_on_c, 11, 71, 0
13, 94320, Control_c, 11, 11, 107
13, 94320, Note_on_c, 11, 69, 68
13, 94379, Note_on_c, 11, 69, 0
13, 94380, Note_on_c, 11, 68, 68
13, 94439, Note_on_c, 11, 68, 0
13, 94440, Note_on_c, 11, 69, 68
13, 94440, Control_c, 11, 11, 109
13, 94499, Note_on_c, 11, 69, 0
13, 94500, Note_on_c, 11, 71, 68
13, 94551, Note_on_c, 11, 71, 0
13, 94560, Control_c, 11, 11, 111
13, 94560, Note_on_c, 11, 72, 68
13, 94680, Control_c, 11, 11, 113
13, 94739, Note_on_c, 11, 72, 0
13, 94800, Note_on_c, 11, 69, 68
13, 94800, Control_c, 11, 11, 115
13, 94859, Note_on_c, 11, 69, 0
13, 94860, Note_on_c, 11, 68, 68
13, 94919, Note_on_c, 11, 68, 0
13, 94920, Note_on_c, 11, 69, 68
13, 94920, Control_c, 11, 11, 117
13, 94979, Note_on_c, 11, 69, 0
13, 94980, Note_on_c, 11, 71, 68
13, 95031, Note_on_c, 11, 71, 0
13, 95040, Control_c, 11, 11, 119
13, 95040, Note_on_c, 11, 72, 68
13, 95160, Control_c, 11, 11, 121
13, 95219, Note_on_c, 11, 72, 0
13, 95280, Note_on_c, 11, 69, 68
13, 95280, Control_c, 11, 11, 123
13, 95339, Note_on_c, 11, 69, 0
13, 95340, Note_on_c, 11, 68, 68
13, 95399, Note_on_c, 11, 68, 0
13, 95400, Control_c, 11, 11, 127
13, 95400, Note_on_c, 11, 69, 68
13, 95459, Note_on_c, 11, 69, 0
13, 95460, Note_on_c, 11, 71, 68
13, 95511, Note_on_c, 11, 71, 0
13, 95520, Note_on_c, 11, 72, 76
13, 96464, Note_on_c, 11, 72, 0
13, 96480, Note_on_c, 11, 63, 76
13, 97424, Note_on_c, 11, 63, 0
13, 97440, Note_on_c, 11, 64, 84
13, 97491, Note_on_c, 11, 64, 0
13, 97500, Note_on_c, 11, 64, 84
13, 97551, Note_on_c, 11, 64, 0
13, 97560, Note_on_c, 11, 69, 84
13, 97611, Note_on_c, 11, 69, 0
13, 97620, Note_on_c, 11, 69, 84
13, 97671, Note_on_c, 11, 69, 0
13, 97680, Note_on_c, 11, 73, 84
13, 97731, Note_on_c, 11, 73, 0
13, 97740, Note_on_c, 11, 73, 84
13, 97791, Note_on_c, 11, 73, 0
13, 97800, Note_on_c, 11, 76, 84
13, 97851, Note_on_c, 11, 76, 0
13, 97860, Note_on_c, 11, 76, 84
13, 97911, Note_on_c, 11, 76, 0
13, 97920, Note_on_c, 11, 81, 84
13, 97971, Note_on_c, 11, 81, 0
13, 97980, Note_on_c, 11, 81, 84
13, 98031, Note_on_c, 11, 81, 0
13, 98040, Note_on_c, 11, 85, 84
13, 98091, Note_on_c, 11, 85, 0
13, 98100, Note_on_c, 11, 85, 84
13, 98151, Note_on_c, 11, 85, 0
13, 98160, Note_on_c, 11, 88, 84
13, 98264, Note_on_c, 11, 88, 0
13, 98280, Note_on_c, 11, 88, 84
13, 98384, Note_on_c, 11, 88, 0
13, 98400, Note_on_c, 11, 88, 84
13, 98864, Note_on_c, 11, 88, 0
13, 98880, Note_on_c, 11, 80, 84
13, 98939, Note_on_c, 11, 80, 0
13, 98940, Note_on_c, 11, 81, 84
13, 98999, Note_on_c, 11, 81, 0
13, 99000, Note_on_c, 11, 80, 84
13, 99059, Note_on_c, 11, 80, 0
13, 99060, Note_on_c, 11, 81, 84
13, 99119, Note_on_c, 11, 81, 0
13, 99120, Note_on_c, 11, 80, 84
13, 99179, Note_on_c, 11, 80, 0
13, 99180, Note_on_c, 11, 81, 84
13, 99239, Note_on_c, 11, 81, 0
13, 99240, Note_on_c, 11, 78, 84
13, 99299, Note_on_c, 11, 78, 0
13, 99300, Note_on_c, 11, 80, 84
13, 99351, Note_on_c, 11, 80, 0
13, 99360, Note_on_c, 11, 69, 84
13, 99360, Note_on_c, 11, 81, 84
13, 99599, Note_on_c, 11, 69, 0
13, 99599, Note_on_c, 11, 81, 0
13, 101200, Note_on_c, 11, 62, 84
13, 101239, Note_on_c, 11, 62, 0
13, 101240, Note_on_c, 11, 74, 84
13, 101279, Note_on_c, 11, 74, 0
13, 101280, Note_on_c, 11, 86, 84
13, 101984, Note_on_c, 11, 86, 0
13, 102000, Note_on_c, 11, 86, 84
13, 102179, Note_on_c, 11, 86, 0
13, 102240, Note_on_c, 11, 81, 84
13, 102419, Note_on_c, 11, 81, 0
13, 102480, Note_on_c, 11, 77, 84
13, 102659, Note_on_c, 11, 77, 0
13, 102720, Note_on_c, 11, 76, 84
13, 102899, Note_on_c, 11, 76, 0
13, 102960, Note_on_c, 11, 74, 84
13, 103139, Note_on_c, 11, 74, 0
13, 103200, Note_on_c, 11, 57, 84
13, 103200, Note_on_c, 11, 69, 84
13, 103439, Note_on_c, 11, 57, 0
13, 103439, Note_on_c, 11, 69, 0
13, 105040, Note_on_c, 11, 62, 84
13, 105079, Note_on_c, 11, 62, 0
13, 105080, Note_on_c, 11, 74, 84
13, 105119, Note_on_c, 11, 74, 0
13, 105120, Note_on_c, 11, 86, 84
13, 105824, Note_on_c, 11, 86, 0
13, 105840, Note_on_c, 11, 86, 84
13, 106019, Note_on_c, 11, 86, 0
13, 106080, Note_on_c, 11, 81, 84
13, 106259, Note_on_c, 11, 81, 0
13, 106320, Note_on_c, 11, 77, 84
13, 106499, Note_on_c, 11, 77, 0
13, 106560, Note_on_c, 11, 76, 84
13, 106739, Note_on_c, 11, 76, 0
13, 106800, Note_on_c, 11, 74, 84
13, 106979, Note_on_c, 11, 74, 0
13, 107040, Note_on_c, 11, 81, 52
13, 107040, Note_on_c, 11, 69, 52
13, 107091, Note_on_c, 11, 81, 0
13, 107091, Note_on_c, 11, 69, 0
13, 107100, Note_on_c, 11, 81, 52
13, 107100, Note_on_c, 11, 69, 52
13, 107151, Note_on_c, 11, 81, 0
13, 107151, Note_on_c, 11, 69, 0
13, 107160, Note_on_c, 11, 69, 52
13, 107160, Note_on_c, 11, 81, 52
13, 107211, Note_on_c, 11, 69, 0
13, 107211, Note_on_c, 11, 81, 0
13, 107220, Note_on_c, 11, 81, 52
13, 107220, Note_on_c, 11, 69, 52
13, 107271, Note_on_c, 11, 81, 0
13, 107271, Note_on_c, 11, 69, 0
13, 107280, Note_on_c, 11, 69, 52
13, 107280, Note_on_c, 11, 81, 52
13, 107331, Note_on_c, 11, 69, 0
13, 107331, Note_on_c, 11, 81, 0
13, 107340, Note_on_c, 11, 81, 52
13, 107340, Note_on_c, 11, 69, 52
13, 107391, Note_on_c, 11, 81, 0
13, 107391, Note_on_c, 11, 69, 0
13, 107400, Note_on_c, 11, 81, 52
13, 107400, Note_on_c, 11, 69, 52
13, 107451, Note_on_c, 11, 81, 0
13, 107451, Note_on_c, 11, 69, 0
13, 107460, Note_on_c, 11, 69, 52
13, 107460, Note_on_c, 11, 81, 52
13, 107511, Note_on_c, 11, 69, 0
13, 107511, Note_on_c, 11, 81, 0
13, 107520, Note_on_c, 11, 69, 52
13, 107520, Note_on_c, 11, 81, 52
13, 107571, Note_on_c, 11, 69, 0
13, 107571, Note_on_c, 11, 81, 0
13, 107580, Note_on_c, 11, 81, 52
13, 107580, Note_on_c, 11, 69, 52
13, 107631, Note_on_c, 11, 81, 0
13, 107631, Note_on_c, 11, 69, 0
13, 107640, Note_on_c, 11, 69, 52
13, 107640, Note_on_c, 11, 81, 52
13, 107691, Note_on_c, 11, 69, 0
13, 107691, Note_on_c, 11, 81, 0
13, 107700, Note_on_c, 11, 69, 52
13, 107700, Note_on_c, 11, 81, 52
13, 107751, Note_on_c, 11, 69, 0
13, 107751, Note_on_c, 11, 81, 0
13, 107760, Note_on_c, 11, 69, 76
13, 107760, Note_on_c, 11, 80, 76
13, 107811, Note_on_c, 11, 69, 0
13, 107811, Note_on_c, 11, 80, 0
13, 107820, Note_on_c, 11, 80, 52
13, 107820, Note_on_c, 11, 69, 52
13, 107871, Note_on_c, 11, 80, 0
13, 107871, Note_on_c, 11, 69, 0
13, 107880, Note_on_c, 11, 80, 52
13, 107880, Note_on_c, 11, 69, 52
13, 107931, Note_on_c, 11, 80, 0
13, 107931, Note_on_c, 11, 69, 0
13, 107940, Note_on_c, 11, 69, 52
13, 107940, Note_on_c, 11, 80, 52
13, 107991, Note_on_c, 11, 69, 0
13, 107991, Note_on_c, 11, 80, 0
13, 108000, Note_on_c, 11, 81, 52
13, 108000, Note_on_c, 11, 69, 52
13, 108051, Note_on_c, 11, 81, 0
13, 108051, Note_on_c, 11, 69, 0
13, 108060, Note_on_c, 11, 81, 52
13, 108060, Note_on_c, 11, 69, 52
13, 108111, Note_on_c, 11, 81, 0
13, 108111, Note_on_c, 11, 69, 0
13, 108120, Note_on_c, 11, 81, 52
13, 108120, Note_on_c, 11, 69, 52
13, 108171, Note_on_c, 11, 81, 0
13, 108171, Note_on_c, 11, 69, 0
13, 108180, Note_on_c, 11, 81, 52
13, 108180, Note_on_c, 11, 69, 52
13, 108231, Note_on_c, 11, 81, 0
13, 108231, Note_on_c, 11, 69, 0
13, 108240, Note_on_c, 11, 69, 52
13, 108240, Note_on_c, 11, 81, 52
13, 108291, Note_on_c, 11, 69, 0
13, 108291, Note_on_c, 11, 81, 0
13, 108300, Note_on_c, 11, 69, 52
13, 108300, Note_on_c, 11, 81, 52
13, 108351, Note_on_c, 11, 69, 0
13, 108351, Note_on_c, 11, 81, 0
13, 108360, Note_on_c, 11, 81, 52
13, 108360, Note_on_c, 11, 69, 52
13, 108411, Note_on_c, 11, 81, 0
13, 108411, Note_on_c, 11, 69, 0
13, 108420, Note_on_c, 11, 69, 52
13, 108420, Note_on_c, 11, 81, 52
13, 108471, Note_on_c, 11, 69, 0
13, 108471, Note_on_c, 11, 81, 0
13, 108480, Note_on_c, 11, 69, 52
13, 108480, Note_on_c, 11, 81, 52
13, 108531, Note_on_c, 11, 69, 0
13, 108531, Note_on_c, 11, 81, 0
13, 108540, Note_on_c, 11, 69, 52
13, 108540, Note_on_c, 11, 81, 52
13, 108591, Note_on_c, 11, 69, 0
13, 108591, Note_on_c, 11, 81, 0
13, 108600, Note_on_c, 11, 69, 52
13, 108600, Note_on_c, 11, 81, 52
13, 108651, Note_on_c, 11, 69, 0
13, 108651, Note_on_c, 11, 81, 0
13, 108660, Note_on_c, 11, 69, 52
13, 108660, Note_on_c, 11, 81, 52
13, 108711, Note_on_c, 11, 69, 0
13, 108711, Note_on_c, 11, 81, 0
13, 108720, Note_on_c, 11, 69, 76
13, 108720, Note_on_c, 11, 83, 76
13, 108771, Note_on_c, 11, 69, 0
13, 108771, Note_on_c, 11, 83, 0
13, 108780, Note_on_c, 11, 69, 52
13, 108780, Note_on_c, 11, 83, 52
13, 108831, Note_on_c, 11, 69, 0
13, 108831, Note_on_c, 11, 83, 0
13, 108840, Note_on_c, 11, 69, 52
13, 108840, Note_on_c, 11, 83, 52
13, 108891, Note_on_c, 11, 69, 0
13, 108891, Note_on_c, 11, 83, 0
13, 108900, Note_on_c, 11, 69, 52
13, 108900, Note_on_c, 11, 83, 52
13, 108951, Note_on_c, 11, 69, 0
13, 108951, Note_on_c, 11, 83, 0
13, 108960, Note_on_c, 11, 69, 52
13, 108960, Note_on_c, 11, 81, 52
13, 109011, Note_on_c, 11, 69, 0
13, 109011, Note_on_c, 11, 81, 0
13, 109020, Note_on_c, 11, 81, 52
13, 109020, Note_on_c, 11, 69, 52
13, 109071, Note_on_c, 11, 81, 0
13, 109071, Note_on_c, 11, 69, 0
13, 109080, Note_on_c, 11, 81, 52
13, 109080, Note_on_c, 11, 69, 52
13, 109131, Note_on_c, 11, 81, 0
13, 109131, Note_on_c, 11, 69, 0
13, 109140, Note_on_c, 11, 69, 52
13, 109140, Note_on_c, 11, 81, 52
13, 109191, Note_on_c, 11, 69, 0
13, 109191, Note_on_c, 11, 81, 0
13, 109200, Note_on_c, 11, 81, 52
13, 109200, Note_on_c, 11, 69, 52
13, 109251, Note_on_c, 11, 81, 0
13, 109251, Note_on_c, 11, 69, 0
13, 109260, Note_on_c, 11, 69, 52
13, 109260, Note_on_c, 11, 81, 52
13, 109311, Note_on_c, 11, 69, 0
13, 109311, Note_on_c, 11, 81, 0
13, 109320, Note_on_c, 11, 81, 52
13, 109320, Note_on_c, 11, 69, 52
13, 109371, Note_on_c, 11, 81, 0
13, 109371, Note_on_c, 11, 69, 0
13, 109380, Note_on_c, 11, 81, 52
13, 109380, Note_on_c, 11, 69, 52
13, 109431, Note_on_c, 11, 81, 0
13, 109431, Note_on_c, 11, 69, 0
13, 109440, Note_on_c, 11, 69, 52
13, 109440, Note_on_c, 11, 81, 52
13, 109491, Note_on_c, 11, 69, 0
13, 109491, Note_on_c, 11, 81, 0
13, 109500, Note_on_c, 11, 81, 52
13, 109500, Note_on_c, 11, 69, 52
13, 109551, Note_on_c, 11, 81, 0
13, 109551, Note_on_c, 11, 69, 0
13, 109560, Note_on_c, 11, 69, 52
13, 109560, Note_on_c, 11, 81, 52
13, 109611, Note_on_c, 11, 69, 0
13, 109611, Note_on_c, 11, 81, 0
13, 109620, Note_on_c, 11, 69, 52
13, 109620, Note_on_c, 11, 81, 52
13, 109671, Note_on_c, 11, 69, 0
13, 109671, Note_on_c, 11, 81, 0
13, 109680, Note_on_c, 11, 80, 76
13, 109680, Note_on_c, 11, 69, 76
13, 109731, Note_on_c, 11, 80, 0
13, 109731, Note_on_c, 11, 69, 0
13, 109740, Note_on_c, 11, 80, 52
13, 109740, Note_on_c, 11, 69, 52
13, 109791, Note_on_c, 11, 80, 0
13, 109791, Note_on_c, 11, 69, 0
13, 109800, Note_on_c, 11, 69, 52
13, 109800, Note_on_c, 11, 80, 52
13, 109851, Note_on_c, 11, 69, 0
13, 109851, Note_on_c, 11, 80, 0
13, 109860, Note_on_c, 11, 80, 52
13, 109860, Note_on_c, 11, 69, 52
13, 109911, Note_on_c, 11, 80, 0
13, 109911, Note_on_c, 11, 69, 0
13, 109920, Note_on_c, 11, 69, 52
13, 109920, Note_on_c, 11, 81, 52
13, 109971, Note_on_c, 11, 69, 0
13, 109971, Note_on_c, 11, 81, 0
13, 109980, Note_on_c, 11, 81, 52
13, 109980, Note_on_c, 11, 69, 52
13, 110031, Note_on_c, 11, 81, 0
13, 110031, Note_on_c, 11, 69, 0
13, 110040, Note_on_c, 11, 69, 52
13, 110040, Note_on_c, 11, 81, 52
13, 110091, Note_on_c, 11, 69, 0
13, 110091, Note_on_c, 11, 81, 0
13, 110100, Note_on_c, 11, 69, 52
13, 110100, Note_on_c, 11, 81, 52
13, 110151, Note_on_c, 11, 69, 0
13, 110151, Note_on_c, 11, 81, 0
13, 110160, Note_on_c, 11, 69, 52
13, 110160, Note_on_c, 11, 81, 52
13, 110211, Note_on_c, 11, 69, 0
13, 110211, Note_on_c, 11, 81, 0
13, 110220, Note_on_c, 11, 81, 52
13, 110220, Note_on_c, 11, 69, 52
13, 110271, Note_on_c, 11, 81, 0
13, 110271, Note_on_c, 11, 69, 0
13, 110280, Note_on_c, 11, 81, 52
13, 110280, Note_on_c, 11, 69, 52
13, 110331, Note_on_c, 11, 81, 0
13, 110331, Note_on_c, 11, 69, 0
13, 110340, Note_on_c, 11, 69, 52
13, 110340, Note_on_c, 11, 81, 52
13, 110391, Note_on_c, 11, 69, 0
13, 110391, Note_on_c, 11, 81, 0
13, 110400, Note_on_c, 11, 69, 52
13, 110400, Note_on_c, 11, 81, 52
13, 110451, Note_on_c, 11, 69, 0
13, 110451, Note_on_c, 11, 81, 0
13, 110460, Note_on_c, 11, 69, 52
13, 110460, Note_on_c, 11, 81, 52
13, 110511, Note_on_c, 11, 69, 0
13, 110511, Note_on_c, 11, 81, 0
13, 110520, Note_on_c, 11, 69, 52
13, 110520, Note_on_c, 11, 81, 52
13, 110571, Note_on_c, 11, 69, 0
13, 110571, Note_on_c, 11, 81, 0
13, 110580, Note_on_c, 11, 69, 52
13, 110580, Note_on_c, 11, 81, 52
13, 110631, Note_on_c, 11, 69, 0
13, 110631, Note_on_c, 11, 81, 0
13, 110640, Note_on_c, 11, 69, 76
13, 110640, Note_on_c, 11, 83, 76
13, 110691, Note_on_c, 11, 69, 0
13, 110691, Note_on_c, 11, 83, 0
13, 110700, Note_on_c, 11, 69, 52
13, 110700, Note_on_c, 11, 83, 52
13, 110751, Note_on_c, 11, 69, 0
13, 110751, Note_on_c, 11, 83, 0
13, 110760, Note_on_c, 11, 69, 52
13, 110760, Note_on_c, 11, 83, 52
13, 110811, Note_on_c, 11, 69, 0
13, 110811, Note_on_c, 11, 83, 0
13, 110820, Note_on_c, 11, 69, 52
13, 110820, Note_on_c, 11, 83, 52
13, 110871, Note_on_c, 11, 69, 0
13, 110871, Note_on_c, 11, 83, 0
13, 110880, Note_on_c, 11, 69, 52
13, 110880, Note_on_c, 11, 81, 52
13, 110931, Note_on_c, 11, 69, 0
13, 110931, Note_on_c, 11, 81, 0
13, 110940, Note_on_c, 11, 81, 52
13, 110940, Note_on_c, 11, 69, 52
13, 110991, Note_on_c, 11, 81, 0
13, 110991, Note_on_c, 11, 69, 0
13, 111000, Note_on_c, 11, 69, 52
13, 111000, Note_on_c, 11, 81, 52
13, 111051, Note_on_c, 11, 69, 0
13, 111051, Note_on_c, 11, 81, 0
13, 111060, Note_on_c, 11, 81, 52
13, 111060, Note_on_c, 11, 69, 52
13, 111111, Note_on_c, 11, 81, 0
13, 111111, Note_on_c, 11, 69, 0
13, 111120, Note_on_c, 11, 83, 76
13, 111120, Note_on_c, 11, 69, 76
13, 111171, Note_on_c, 11, 83, 0
13, 111171, Note_on_c, 11, 69, 0
13, 111180, Note_on_c, 11, 69, 52
13, 111180, Note_on_c, 11, 83, 52
13, 111231, Note_on_c, 11, 69, 0
13, 111231, Note_on_c, 11, 83, 0
13, 111240, Note_on_c, 11, 69, 52
13, 111240, Note_on_c, 11, 83, 52
13, 111291, Note_on_c, 11, 69, 0
13, 111291, Note_on_c, 11, 83, 0
13, 111300, Note_on_c, 11, 83, 52
13, 111300, Note_on_c, 11, 69, 52
13, 111351, Note_on_c, 11, 83, 0
13, 111351, Note_on_c, 11, 69, 0
13, 111360, Note_on_c, 11, 69, 52
13, 111360, Note_on_c, 11, 81, 52
13, 111411, Note_on_c, 11, 69, 0
13, 111411, Note_on_c, 11, 81, 0
13, 111420, Note_on_c, 11, 81, 52
13, 111420, Note_on_c, 11, 69, 52
13, 111471, Note_on_c, 11, 81, 0
13, 111471, Note_on_c, 11, 69, 0
13, 111480, Note_on_c, 11, 81, 52
13, 111480, Note_on_c, 11, 69, 52
13, 111531, Note_on_c, 11, 81, 0
13, 111531, Note_on_c, 11, 69, 0
13, 111540, Note_on_c, 11, 81, 52
13, 111540, Note_on_c, 11, 69, 52
13, 111591, Note_on_c, 11, 81, 0
13, 111591, Note_on_c, 11, 69, 0
13, 111600, Note_on_c, 11, 83, 76
13, 111600, Note_on_c, 11, 69, 76
13, 111651, Note_on_c, 11, 83, 0
13, 111651, Note_on_c, 11, 69, 0
13, 111660, Note_on_c, 11, 69, 52
13, 111660, Note_on_c, 11, 83, 52
13, 111711, Note_on_c, 11, 69, 0
13, 111711, Note_on_c, 11, 83, 0
13, 111720, Note_on_c, 11, 83, 52
13, 111720, Note_on_c, 11, 69, 52
13, 111771, Note_on_c, 11, 83, 0
13, 111771, Note_on_c, 11, 69, 0
13, 111780, Note_on_c, 11, 83, 52
13, 111780, Note_on_c, 11, 69, 52
13, 111831, Note_on_c, 11, 83, 0
13, 111831, Note_on_c, 11, 69, 0
13, 111840, Note_on_c, 11, 69, 52
13, 111840, Note_on_c, 11, 81, 52
13, 111891, Note_on_c, 11, 69, 0
13, 111891, Note_on_c, 11, 81, 0
13, 111900, Note_on_c, 11, 69, 52
13, 111900, Note_on_c, 11, 81, 52
13, 111951, Note_on_c, 11, 69, 0
13, 111951, Note_on_c, 11, 81, 0
13, 111960, Note_on_c, 11, 69, 52
13, 111960, Note_on_c, 11, 81, 52
13, 112011, Note_on_c, 11, 69, 0
13, 112011, Note_on_c, 11, 81, 0
13, 112020, Note_on_c, 11, 81, 52
13, 112020, Note_on_c, 11, 69, 52
13, 112071, Note_on_c, 11, 81, 0
13, 112071, Note_on_c, 11, 69, 0
13, 112080, Note_on_c, 11, 83, 76
13, 112080, Note_on_c, 11, 69, 76
13, 112131, Note_on_c, 11, 83, 0
13, 112131, Note_on_c, 11, 69, 0
13, 112140, Note_on_c, 11, 69, 52
13, 112140, Note_on_c, 11, 83, 52
13, 112191, Note_on_c, 11, 69, 0
13, 112191, Note_on_c, 11, 83, 0
13, 112200, Note_on_c, 11, 69, 52
13, 112200, Note_on_c, 11, 83, 52
13, 112251, Note_on_c, 11, 69, 0
13, 112251, Note_on_c, 11, 83, 0
13, 112260, Note_on_c, 11, 69, 52
13, 112260, Note_on_c, 11, 83, 52
13, 112311, Note_on_c, 11, 69, 0
13, 112311, Note_on_c, 11, 83, 0
13, 112320, Note_on_c, 11, 69, 52
13, 112320, Note_on_c, 11, 81, 52
13, 112371, Note_on_c, 11, 69, 0
13, 112371, Note_on_c, 11, 81, 0
13, 112380, Note_on_c, 11, 69, 52
13, 112380, Note_on_c, 11, 81, 52
13, 112431, Note_on_c, 11, 69, 0
13, 112431, Note_on_c, 11, 81, 0
13, 112440, Note_on_c, 11, 81, 52
13, 112440, Note_on_c, 11, 69, 52
13, 112491, Note_on_c, 11, 81, 0
13, 112491, Note_on_c, 11, 69, 0
13, 112500, Note_on_c, 11, 81, 52
13, 112500, Note_on_c, 11, 69, 52
13, 112551, Note_on_c, 11, 81, 0
13, 112551, Note_on_c, 11, 69, 0
13, 112560, Note_on_c, 11, 83, 76
13, 112560, Note_on_c, 11, 69, 76
13, 112611, Note_on_c, 11, 83, 0
13, 112611, Note_on_c, 11, 69, 0
13, 112620, Note_on_c, 11, 69, 52
13, 112620, Note_on_c, 11, 83, 52
13, 112671, Note_on_c, 11, 69, 0
13, 112671, Note_on_c, 11, 83, 0
13, 112680, Note_on_c, 11, 69, 52
13, 112680, Note_on_c, 11, 83, 52
13, 112731, Note_on_c, 11, 69, 0
13, 112731, Note_on_c, 11, 83, 0
13, 112740, Note_on_c, 11, 83, 52
13, 112740, Note_on_c, 11, 69, 52
13, 112791, Note_on_c, 11, 83, 0
13, 112791, Note_on_c, 11, 69, 0
13, 112800, Note_on_c, 11, 69, 84
13, 112800, Note_on_c, 11, 81, 84
13, 112851, Note_on_c, 11, 69, 0
13, 112851, Note_on_c, 11, 81, 0
13, 112860, Note_on_c, 11, 81, 84
13, 112911, Note_on_c, 11, 81, 0
13, 112920, Note_on_c, 11, 88, 84
13, 112971, Note_on_c, 11, 88, 0
13, 112980, Note_on_c, 11, 88, 84
13, 113031, Note_on_c, 11, 88, 0
13, 113040, Note_on_c, 11, 85, 84
13, 113091, Note_on_c, 11, 85, 0
13, 113100, Note_on_c, 11, 85, 84
13, 113151, Note_on_c, 11, 85, 0
13, 113160, Note_on_c, 11, 81, 84
13, 113211, Note_on_c, 11, 81, 0
13, 113220, Note_on_c, 11, 81, 84
13, 113271, Note_on_c, 11, 81, 0
13, 113280, Note_on_c, 11, 76, 84
13, 113331, Note_on_c, 11, 76, 0
13, 113340, Note_on_c, 11, 76, 84
13, 113391, Note_on_c, 11, 76, 0
13, 113400, Note_on_c, 11, 85, 84
13, 113451, Note_on_c, 11, 85, 0
13, 113460, Note_on_c, 11, 85, 84
13, 113511, Note_on_c, 11, 85, 0
13, 113520, Note_on_c, 11, 81, 84
13, 113571, Note_on_c, 11, 81, 0
13, 113580, Note_on_c, 11, 81, 84
13, 113631, Note_on_c, 11, 81, 0
13, 113640, Note_on_c, 11, 76, 84
13, 113691, Note_on_c, 11, 76, 0
13, 113700, Note_on_c, 11, 76, 84
13, 113751, Note_on_c, 11, 76, 0
13, 113760, Note_on_c, 11, 73, 84
13, 113811, Note_on_c, 11, 73, 0
13, 113820, Note_on_c, 11, 73, 84
13, 113871, Note_on_c, 11, 73, 0
13, 113880, Note_on_c, 11, 81, 84
13, 113931, Note_on_c, 11, 81, 0
13, 113940, Note_on_c, 11, 81, 84
13, 113991, Note_on_c, 11, 81, 0
13, 114000, Note_on_c, 11, 76, 84
13, 114051, Note_on_c, 11, 76, 0
13, 114060, Note_on_c, 11, 76, 84
13, 114111, Note_on_c, 11, 76, 0
13, 114120, Note_on_c, 11, 73, 84
13, 114171, Note_on_c, 11, 73, 0
13, 114180, Note_on_c, 11, 73, 84
13, 114231, Note_on_c, 11, 73, 0
13, 114240, Note_on_c, 11, 69, 84
13, 114291, Note_on_c, 11, 69, 0
13, 114300, Note_on_c, 11, 69, 84
13, 114351, Note_on_c, 11, 69, 0
13, 114360, Note_on_c, 11, 76, 84
13, 114411, Note_on_c, 11, 76, 0
13, 114420, Note_on_c, 11, 76, 84
13, 114471, Note_on_c, 11, 76, 0
13, 114480, Note_on_c, 11, 73, 84
13, 114531, Note_on_c, 11, 73, 0
13, 114540, Note_on_c, 11, 73, 84
13, 114591, Note_on_c, 11, 73, 0
13, 114600, Note_on_c, 11, 69, 84
13, 114651, Note_on_c, 11, 69, 0
13, 114660, Note_on_c, 11, 69, 84
13, 114711, Note_on_c, 11, 69, 0
13, 114720, Note_on_c, 11, 64, 84
13, 114771, Note_on_c, 11, 64, 0
13, 114780, Note_on_c, 11, 64, 84
13, 114831, Note_on_c, 11, 64, 0
13, 114840, Note_on_c, 11, 73, 84
13, 114891, Note_on_c, 11, 73, 0
13, 114900, Note_on_c, 11, 73, 84
13, 114951, Note_on_c, 11, 73, 0
13, 114960, Note_on_c, 11, 69, 84
13, 115011, Note_on_c, 11, 69, 0
13, 115020, Note_on_c, 11, 69, 84
13, 115071, Note_on_c, 11, 69, 0
13, 115080, Note_on_c, 11, 64, 84
13, 115131, Note_on_c, 11, 64, 0
13, 115140, Note_on_c, 11, 64, 84
13, 115191, Note_on_c, 11, 64, 0
13, 115200, Note_on_c, 11, 61, 84
13, 115251, Note_on_c, 11, 61, 0
13, 115260, Note_on_c, 11, 61, 84
13, 115311, Note_on_c, 11, 61, 0
13, 115320, Note_on_c, 11, 69, 84
13, 115371, Note_on_c, 11, 69, 0
13, 115380, Note_on_c, 11, 69, 84
13, 115431, Note_on_c, 11, 69, 0
13, 115440, Note_on_c, 11, 64, 84
13, 115491, Note_on_c, 11, 64, 0
13, 115500, Note_on_c, 11, 64, 84
13, 115551, Note_on_c, 11, 64, 0
13, 115560, Note_on_c, 11, 61, 84
13, 115611, Note_on_c, 11, 61, 0
13, 115620, Note_on_c, 11, 61, 84
13, 115671, Note_on_c, 11, 61, 0
13, 115680, Note_on_c, 11, 57, 84
13, 115731, Note_on_c, 11, 57, 0
13, 115740, Note_on_c, 11, 57, 84
13, 115791, Note_on_c, 11, 57, 0
13, 115800, Note_on_c, 11, 69, 84
13, 115851, Note_on_c, 11, 69, 0
13, 115860, Note_on_c, 11, 69, 84
13, 115911, Note_on_c, 11, 69, 0
13, 115920, Note_on_c, 11, 64, 84
13, 115971, Note_on_c, 11, 64, 0
13, 115980, Note_on_c, 11, 64, 84
13, 116031, Note_on_c, 11, 64, 0
13, 116040, Note_on_c, 11, 61, 84
13, 116091, Note_on_c, 11, 61, 0
13, 116100, Note_on_c, 11, 61, 84
13, 116151, Note_on_c, 11, 61, 0
13, 116160, Note_on_c, 11, 57, 84
13, 116211, Note_on_c, 11, 57, 0
13, 116220, Note_on_c, 11, 57, 84
13, 116271, Note_on_c, 11, 57, 0
13, 116280, Note_on_c, 11, 69, 84
13, 116331, Note_on_c, 11, 69, 0
13, 116340, Note_on_c, 11, 69, 84
13, 116391, Note_on_c, 11, 69, 0
13, 116400, Note_on_c, 11, 64, 84
13, 116451, Note_on_c, 11, 64, 0
13, 116460, Note_on_c, 11, 64, 84
13, 116511, Note_on_c, 11, 64, 0
13, 116520, Note_on_c, 11, 61, 84
13, 116571, Note_on_c, 11, 61, 0
13, 116580, Note_on_c, 11, 61, 84
13, 116631, Note_on_c, 11, 61, 0
13, 116640, Note_on_c, 11, 57, 84
13, 116879, Note_on_c, 11, 57, 0
13, 117600, Note_on_c, 11, 64, 76
13, 117600, Note_on_c, 11, 73, 76
13, 117600, Note_on_c, 11, 57, 76
13, 117839, Note_on_c, 11, 64, 0
13, 117839, Note_on_c, 11, 73, 0
13, 117839, Note_on_c, 11, 57, 0
13, 120360, Note_on_c, 11, 57, 52
13, 120399, Note_on_c, 11, 57, 0
13, 120400, Note_on_c, 11, 59, 52
13, 120439, Note_on_c, 11, 59, 0
13, 120440, Note_on_c, 11, 61, 52
13, 120471, Note_on_c, 11, 61, 0
13, 120480, Note_on_c, 11, 62, 52
13, 120584, Note_on_c, 11, 62, 0
13, 120600, Note_on_c, 11, 62, 52
13, 120704, Note_on_c, 11, 62, 0
13, 120720, Note_on_c, 11, 62, 52
13, 120824, Note_on_c, 11, 62, 0
13, 120840, Note_on_c, 11, 62, 52
13, 120944, Note_on_c, 11, 62, 0
13, 120960, Note_on_c, 11, 62, 52
13, 121064, Note_on_c, 11, 62, 0
13, 121080, Note_on_c, 11, 62, 52
13, 121184, Note_on_c, 11, 62, 0
13, 121200, Note_on_c, 11, 62, 52
13, 121304, Note_on_c, 11, 62, 0
13, 121320, Note_on_c, 11, 62, 52
13, 121424, Note_on_c, 11, 62, 0
13, 121440, Note_on_c, 11, 62, 52
13, 121544, Note_on_c, 11, 62, 0
13, 121560, Note_on_c, 11, 62, 52
13, 121664, Note_on_c, 11, 62, 0
13, 121680, Note_on_c, 11, 62, 52
13, 121784, Note_on_c, 11, 62, 0
13, 121800, Note_on_c, 11, 62, 52
13, 121904, Note_on_c, 11, 62, 0
13, 121920, Note_on_c, 11, 62, 52
13, 122024, Note_on_c, 11, 62, 0
13, 122040, Note_on_c, 11, 62, 52
13, 122144, Note_on_c, 11, 62, 0
13, 122160, Note_on_c, 11, 62, 52
13, 122264, Note_on_c, 11, 62, 0
13, 122280, Note_on_c, 11, 62, 52
13, 122384, Note_on_c, 11, 62, 0
13, 122400, Note_on_c, 11, 62, 52
13, 122504, Note_on_c, 11, 62, 0
13, 122520, Note_on_c, 11, 62, 52
13, 122624, Note_on_c, 11, 62, 0
13, 122640, Note_on_c, 11, 62, 52
13, 122744, Note_on_c, 11, 62, 0
13, 122760, Note_on_c, 11, 62, 52
13, 122864, Note_on_c, 11, 62, 0
13, 122880, Note_on_c, 11, 62, 52
13, 122984, Note_on_c, 11, 62, 0
13, 123000, Note_on_c, 11, 62, 52
13, 123104, Note_on_c, 11, 62, 0
13, 123120, Note_on_c, 11, 62, 52
13, 123224, Note_on_c, 11, 62, 0
13, 123240, Note_on_c, 11, 62, 52
13, 123344, Note_on_c, 11, 62, 0
13, 123360, Note_on_c, 11, 78, 52
13, 123419, Note_on_c, 11, 78, 0
13, 123420, Note_on_c, 11, 76, 53
13, 123479, Note_on_c, 11, 76, 0
13, 123480, Note_on_c, 11, 74, 54
13, 123539, Note_on_c, 11, 74, 0
13, 123540, Note_on_c, 11, 76, 55
13, 123599, Note_on_c, 11, 76, 0
13, 123600, Note_on_c, 11, 78, 56
13, 123659, Note_on_c, 11, 78, 0
13, 123660, Note_on_c, 11, 79, 57
13, 123719, Note_on_c, 11, 79, 0
13, 123720, Note_on_c, 11, 81, 58
13, 123779, Note_on_c, 11, 81, 0
13, 123780, Note_on_c, 11, 79, 59
13, 123839, Note_on_c, 11, 79, 0
13, 123840, Note_on_c, 11, 78, 60
13, 123899, Note_on_c, 11, 78, 0
13, 123900, Note_on_c, 11, 76, 61
13, 123959, Note_on_c, 11, 76, 0
13, 123960, Note_on_c, 11, 74, 62
13, 124019, Note_on_c, 11, 74, 0
13, 124020, Note_on_c, 11, 73, 63
13, 124079, Note_on_c, 11, 73, 0
13, 124080, Note_on_c, 11, 71, 64
13, 124139, Note_on_c, 11, 71, 0
13, 124140, Note_on_c, 11, 69, 65
13, 124199, Note_on_c, 11, 69, 0
13, 124200, Note_on_c, 11, 67, 66
13, 124259, Note_on_c, 11, 67, 0
13, 124260, Note_on_c, 11, 66, 67
13, 124311, Note_on_c, 11, 66, 0
13, 124320, Note_on_c, 11, 64, 52
13, 124424, Note_on_c, 11, 64, 0
13, 124440, Note_on_c, 11, 64, 52
13, 124544, Note_on_c, 11, 64, 0
13, 124560, Note_on_c, 11, 64, 52
13, 124664, Note_on_c, 11, 64, 0
13, 124680, Note_on_c, 11, 64, 52
13, 124784, Note_on_c, 11, 64, 0
13, 124800, Note_on_c, 11, 64, 52
13, 124904, Note_on_c, 11, 64, 0
13, 124920, Note_on_c, 11, 64, 52
13, 125024, Note_on_c, 11, 64, 0
13, 125040, Note_on_c, 11, 64, 52
13, 125144, Note_on_c, 11, 64, 0
13, 125160, Note_on_c, 11, 64, 52
13, 125264, Note_on_c, 11, 64, 0
13, 125280, Note_on_c, 11, 64, 52
13, 125384, Note_on_c, 11, 64, 0
13, 125400, Note_on_c, 11, 64, 52
13, 125504, Note_on_c, 11, 64, 0
13, 125520, Note_on_c, 11, 64, 52
13, 125624, Note_on_c, 11, 64, 0
13, 125640, Note_on_c, 11, 64, 52
13, 125744, Note_on_c, 11, 64, 0
13, 125760, Note_on_c, 11, 64, 52
13, 125864, Note_on_c, 11, 64, 0
13, 125880, Note_on_c, 11, 64, 52
13, 125984, Note_on_c, 11, 64, 0
13, 126000, Note_on_c, 11, 64, 52
13, 126104, Note_on_c, 11, 64, 0
13, 126120, Note_on_c, 11, 64, 52
13, 126224, Note_on_c, 11, 64, 0
13, 126240, Note_on_c, 11, 64, 52
13, 126344, Note_on_c, 11, 64, 0
13, 126360, Note_on_c, 11, 64, 52
13, 126464, Note_on_c, 11, 64, 0
13, 126480, Note_on_c, 11, 64, 52
13, 126584, Note_on_c, 11, 64, 0
13, 126600, Note_on_c, 11, 64, 52
13, 126704, Note_on_c, 11, 64, 0
13, 126720, Note_on_c, 11, 64, 52
13, 126824, Note_on_c, 11, 64, 0
13, 126840, Note_on_c, 11, 64, 52
13, 126944, Note_on_c, 11, 64, 0
13, 126960, Note_on_c, 11, 64, 52
13, 127064, Note_on_c, 11, 64, 0
13, 127080, Note_on_c, 11, 64, 52
13, 127184, Note_on_c, 11, 64, 0
13, 127200, Note_on_c, 11, 64, 52
13, 127304, Note_on_c, 11, 64, 0
13, 127320, Note_on_c, 11, 64, 52
13, 127424, Note_on_c, 11, 64, 0
13, 127440, Note_on_c, 11, 64, 52
13, 127544, Note_on_c, 11, 64, 0
13, 127560, Note_on_c, 11, 64, 52
13, 127664, Note_on_c, 11, 64, 0
13, 127680, Note_on_c, 11, 64, 52
13, 127784, Note_on_c, 11, 64, 0
13, 127800, Note_on_c, 11, 64, 52
13, 127904, Note_on_c, 11, 64, 0
13, 127920, Note_on_c, 11, 65, 52
13, 128024, Note_on_c, 11, 65, 0
13, 128040, Note_on_c, 11, 65, 52
13, 128144, Note_on_c, 11, 65, 0
13, 128160, Note_on_c, 11, 66, 52
13, 128264, Note_on_c, 11, 66, 0
13, 128280, Note_on_c, 11, 66, 52
13, 128384, Note_on_c, 11, 66, 0
13, 128400, Note_on_c, 11, 66, 52
13, 128504, Note_on_c, 11, 66, 0
13, 128520, Note_on_c, 11, 66, 52
13, 128624, Note_on_c, 11, 66, 0
13, 128640, Note_on_c, 11, 66, 52
13, 128744, Note_on_c, 11, 66, 0
13, 128760, Note_on_c, 11, 66, 52
13, 128864, Note_on_c, 11, 66, 0
13, 128880, Note_on_c, 11, 66, 52
13, 128984, Note_on_c, 11, 66, 0
13, 129000, Note_on_c, 11, 66, 52
13, 129104, Note_on_c, 11, 66, 0
13, 129120, Note_on_c, 11, 66, 52
13, 129224, Note_on_c, 11, 66, 0
13, 129240, Note_on_c, 11, 66, 52
13, 129344, Note_on_c, 11, 66, 0
13, 129360, Note_on_c, 11, 66, 52
13, 129464, Note_on_c, 11, 66, 0
13, 129480, Note_on_c, 11, 66, 52
13, 129584, Note_on_c, 11, 66, 0
13, 129600, Note_on_c, 11, 66, 52
13, 129704, Note_on_c, 11, 66, 0
13, 129720, Note_on_c, 11, 66, 52
13, 129824, Note_on_c, 11, 66, 0
13, 129840, Note_on_c, 11, 66, 52
13, 129944, Note_on_c, 11, 66, 0
13, 129960, Note_on_c, 11, 66, 52
13, 130049, Note_on_c, 11, 66, 0
13, 130065, Control_c, 11, 11, 80
13, 130080, Note_on_c, 11, 69, 76
13, 130199, Note_on_c, 11, 69, 0
13, 130200, Note_on_c, 11, 67, 76
13, 130304, Note_on_c, 11, 67, 0
13, 130320, Control_c, 11, 11, 84
13, 130320, Note_on_c, 11, 67, 76
13, 130409, Note_on_c, 11, 67, 0
13, 130440, Note_on_c, 11, 67, 76
13, 130529, Note_on_c, 11, 67, 0
13, 130560, Control_c, 11, 11, 88
13, 130680, Note_on_c, 11, 66, 76
13, 130769, Note_on_c, 11, 66, 0
13, 130800, Note_on_c, 11, 66, 76
13, 130800, Control_c, 11, 11, 92
13, 130889, Note_on_c, 11, 66, 0
13, 130920, Note_on_c, 11, 66, 76
13, 131009, Note_on_c, 11, 66, 0
13, 131040, Control_c, 11, 11, 96
13, 131160, Note_on_c, 11, 64, 76
13, 131249, Note_on_c, 11, 64, 0
13, 131280, Note_on_c, 11, 64, 76
13, 131280, Control_c, 11, 11, 100
13, 131369, Note_on_c, 11, 64, 0
13, 131400, Note_on_c, 11, 64, 76
13, 131489, Note_on_c, 11, 64, 0
13, 131520, Control_c, 11, 11, 104
13, 131640, Note_on_c, 11, 63, 76
13, 131729, Note_on_c, 11, 63, 0
13, 131760, Control_c, 11, 11, 107
13, 131760, Note_on_c, 11, 63, 76
13, 131849, Note_on_c, 11, 63, 0
13, 131880, Note_on_c, 11, 63, 76
13, 131969, Note_on_c, 11, 63, 0
13, 132000, Note_on_c, 11, 64, 76
13, 132000, Control_c, 11, 11, 111
13, 132179, Note_on_c, 11, 64, 0
13, 132240, Control_c, 11, 11, 115
13, 132240, Note_on_c, 11, 76, 76
13, 132479, Note_on_c, 11, 76, 0
13, 132480, Note_on_c, 11, 79, 76
13, 132480, Control_c, 11, 11, 119
13, 132719, Note_on_c, 11, 79, 0
13, 132720, Control_c, 11, 11, 127
13, 132720, Note_on_c, 11, 73, 76
13, 132944, Note_on_c, 11, 73, 0
13, 132960, Note_on_c, 11, 62, 76
13, 132960, Note_on_c, 11, 74, 76
13, 133664, Note_on_c, 11, 62, 0
13, 133664, Note_on_c, 11, 74, 0
13, 133680, Note_on_c, 11, 74, 76
13, 133739, Note_on_c, 11, 74, 0
13, 133740, Note_on_c, 11, 73, 76
13, 133799, Note_on_c, 11, 73, 0
13, 133800, Note_on_c, 11, 74, 76
13, 133859, Note_on_c, 11, 74, 0
13, 133860, Note_on_c, 11, 76, 76
13, 133911, Note_on_c, 11, 76, 0
13, 133920, Note_on_c, 11, 78, 84
13, 134624, Note_on_c, 11, 78, 0
13, 134640, Note_on_c, 11, 78, 76
13, 134699, Note_on_c, 11, 78, 0
13, 134700, Note_on_c, 11, 76, 76
13, 134759, Note_on_c, 11, 76, 0
13, 134760, Note_on_c, 11, 78, 76
13, 134819, Note_on_c, 11, 78, 0
13, 134820, Note_on_c, 11, 79, 76
13, 134871, Note_on_c, 11, 79, 0
13, 134880, Note_on_c, 11, 81, 76
13, 135059, Note_on_c, 11, 81, 0
13, 135120, Note_on_c, 11, 81, 76
13, 135179, Note_on_c, 11, 81, 0
13, 135180, Note_on_c, 11, 80, 76
13, 135239, Note_on_c, 11, 80, 0
13, 135240, Note_on_c, 11, 81, 76
13, 135299, Note_on_c, 11, 81, 0
13, 135300, Note_on_c, 11, 83, 76
13, 135351, Note_on_c, 11, 83, 0
13, 135360, Note_on_c, 11, 84, 84
13, 136064, Note_on_c, 11, 84, 0
13, 136080, Note_on_c, 11, 81, 76
13, 136259, Note_on_c, 11, 81, 0
13, 136320, Note_on_c, 11, 78, 76
13, 136499, Note_on_c, 11, 78, 0
13, 136560, Note_on_c, 11, 72, 76
13, 136739, Note_on_c, 11, 72, 0
13, 136800, Note_on_c, 11, 71, 76
13, 136979, Note_on_c, 11, 71, 0
13, 137040, Note_on_c, 11, 79, 76
13, 137099, Note_on_c, 11, 79, 0
13, 137100, Note_on_c, 11, 78, 76
13, 137159, Note_on_c, 11, 78, 0
13, 137160, Note_on_c, 11, 79, 76
13, 137219, Note_on_c, 11, 79, 0
13, 137220, Note_on_c, 11, 78, 76
13, 137279, Note_on_c, 11, 78, 0
13, 137280, Note_on_c, 11, 79, 76
13, 137339, Note_on_c, 11, 79, 0
13, 137340, Note_on_c, 11, 78, 76
13, 137399, Note_on_c, 11, 78, 0
13, 137400, Note_on_c, 11, 79, 76
13, 137459, Note_on_c, 11, 79, 0
13, 137460, Note_on_c, 11, 78, 76
13, 137519, Note_on_c, 11, 78, 0
13, 137520, Note_on_c, 11, 79, 76
13, 137579, Note_on_c, 11, 79, 0
13, 137580, Note_on_c, 11, 78, 76
13, 137639, Note_on_c, 11, 78, 0
13, 137640, Note_on_c, 11, 79, 76
13, 137699, Note_on_c, 11, 79, 0
13, 137700, Note_on_c, 11, 78, 76
13, 137751, Note_on_c, 11, 78, 0
13, 137760, Note_on_c, 11, 79, 76
13, 137819, Note_on_c, 11, 79, 0
13, 137820, Note_on_c, 11, 81, 76
13, 137879, Note_on_c, 11, 81, 0
13, 137880, Note_on_c, 11, 83, 76
13, 137939, Note_on_c, 11, 83, 0
13, 137940, Note_on_c, 11, 81, 76
13, 137999, Note_on_c, 11, 81, 0
13, 138000, Note_on_c, 11, 79, 76
13, 138059, Note_on_c, 11, 79, 0
13, 138060, Note_on_c, 11, 78, 76
13, 138119, Note_on_c, 11, 78, 0
13, 138120, Note_on_c, 11, 76, 76
13, 138179, Note_on_c, 11, 76, 0
13, 138180, Note_on_c, 11, 74, 76
13, 138239, Note_on_c, 11, 74, 0
13, 138240, Note_on_c, 11, 73, 76
13, 138299, Note_on_c, 11, 73, 0
13, 138300, Note_on_c, 11, 74, 76
13, 138359, Note_on_c, 11, 74, 0
13, 138360, Note_on_c, 11, 76, 76
13, 138419, Note_on_c, 11, 76, 0
13, 138420, Note_on_c, 11, 74, 76
13, 138479, Note_on_c, 11, 74, 0
13, 138480, Note_on_c, 11, 73, 76
13, 138539, Note_on_c, 11, 73, 0
13, 138540, Note_on_c, 11, 71, 76
13, 138599, Note_on_c, 11, 71, 0
13, 138600, Note_on_c, 11, 69, 76
13, 138659, Note_on_c, 11, 69, 0
13, 138660, Note_on_c, 11, 67, 76
13, 138711, Note_on_c, 11, 67, 0
13, 138720, Note_on_c, 11, 66, 76
13, 138899, Note_on_c, 11, 66, 0
13, 138960, Note_on_c, 11, 81, 76
13, 139019, Note_on_c, 11, 81, 0
13, 139020, Note_on_c, 11, 80, 76
13, 139079, Note_on_c, 11, 80, 0
13, 139080, Note_on_c, 11, 81, 76
13, 139139, Note_on_c, 11, 81, 0
13, 139140, Note_on_c, 11, 83, 76
13, 139191, Note_on_c, 11, 83, 0
13, 139200, Note_on_c, 11, 84, 84
13, 139904, Note_on_c, 11, 84, 0
13, 139920, Note_on_c, 11, 81, 76
13, 140099, Note_on_c, 11, 81, 0
13, 140160, Note_on_c, 11, 78, 76
13, 140339, Note_on_c, 11, 78, 0
13, 140400, Note_on_c, 11, 72, 76
13, 140579, Note_on_c, 11, 72, 0
13, 140640, Note_on_c, 11, 70, 76
13, 140819, Note_on_c, 11, 70, 0
13, 140880, Note_on_c, 11, 79, 76
13, 140939, Note_on_c, 11, 79, 0
13, 140940, Note_on_c, 11, 78, 76
13, 140999, Note_on_c, 11, 78, 0
13, 141000, Note_on_c, 11, 79, 76
13, 141059, Note_on_c, 11, 79, 0
13, 141060, Note_on_c, 11, 78, 76
13, 141119, Note_on_c, 11, 78, 0
13, 141120, Note_on_c, 11, 79, 76
13, 141179, Note_on_c, 11, 79, 0
13, 141180, Note_on_c, 11, 78, 76
13, 141239, Note_on_c, 11, 78, 0
13, 141240, Note_on_c, 11, 79, 76
13, 141299, Note_on_c, 11, 79, 0
13, 141300, Note_on_c, 11, 78, 76
13, 141359, Note_on_c, 11, 78, 0
13, 141360, Note_on_c, 11, 79, 76
13, 141419, Note_on_c, 11, 79, 0
13, 141420, Note_on_c, 11, 78, 76
13, 141479, Note_on_c, 11, 78, 0
13, 141480, Note_on_c, 11, 79, 76
13, 141539, Note_on_c, 11, 79, 0
13, 141540, Note_on_c, 11, 78, 76
13, 141591, Note_on_c, 11, 78, 0
13, 141600, Note_on_c, 11, 79, 76
13, 141659, Note_on_c, 11, 79, 0
13, 141660, Note_on_c, 11, 81, 76
13, 141719, Note_on_c, 11, 81, 0
13, 141720, Note_on_c, 11, 82, 76
13, 141779, Note_on_c, 11, 82, 0
13, 141780, Note_on_c, 11, 81, 76
13, 141839, Note_on_c, 11, 81, 0
13, 141840, Note_on_c, 11, 79, 76
13, 141899, Note_on_c, 11, 79, 0
13, 141900, Note_on_c, 11, 77, 76
13, 141959, Note_on_c, 11, 77, 0
13, 141960, Note_on_c, 11, 76, 76
13, 142019, Note_on_c, 11, 76, 0
13, 142020, Note_on_c, 11, 74, 76
13, 142071, Note_on_c, 11, 74, 0
13, 142080, Note_on_c, 11, 73, 76
13, 142139, Note_on_c, 11, 73, 0
13, 142140, Note_on_c, 11, 74, 76
13, 142199, Note_on_c, 11, 74, 0
13, 142200, Note_on_c, 11, 76, 76
13, 142259, Note_on_c, 11, 76, 0
13, 142260, Note_on_c, 11, 74, 76
13, 142319, Note_on_c, 11, 74, 0
13, 142320, Note_on_c, 11, 73, 76
13, 142379, Note_on_c, 11, 73, 0
13, 142380, Note_on_c, 11, 70, 76
13, 142439, Note_on_c, 11, 70, 0
13, 142440, Note_on_c, 11, 69, 76
13, 142499, Note_on_c, 11, 69, 0
13, 142500, Note_on_c, 11, 67, 76
13, 142551, Note_on_c, 11, 67, 0
13, 142560, Note_on_c, 11, 65, 76
13, 142799, Note_on_c, 11, 65, 0
13, 142980, Note_on_c, 11, 86, 76
13, 142980, Note_on_c, 11, 74, 76
13, 143031, Note_on_c, 11, 86, 0
13, 143031, Note_on_c, 11, 74, 0
13, 143040, Note_on_c, 11, 86, 84
13, 143040, Note_on_c, 11, 74, 84
13, 144719, Note_on_c, 11, 86, 0
13, 144719, Note_on_c, 11, 74, 0
13, 144900, Note_on_c, 11, 74, 76
13, 144900, Note_on_c, 11, 86, 76
13, 144951, Note_on_c, 11, 74, 0
13, 144951, Note_on_c, 11, 86, 0
13, 144960, Note_on_c, 11, 74, 84
13, 144960, Note_on_c, 11, 86, 84
13, 146384, Note_on_c, 11, 74, 0
13, 146384, Note_on_c, 11, 86, 0
13, 146400, Note_on_c, 11, 88, 84
13, 146984, Note_on_c, 11, 88, 0
13, 147000, Note_on_c, 11, 89, 84
13, 147089, Note_on_c, 11, 89, 0
13, 147120, Note_on_c, 11, 88, 84
13, 147209, Note_on_c, 11, 88, 0
13, 147240, Note_on_c, 11, 86, 84
13, 147329, Note_on_c, 11, 86, 0
13, 147360, Note_on_c, 11, 84, 84
13, 147449, Note_on_c, 11, 84, 0
13, 147480, Note_on_c, 11, 83, 84
13, 147569, Note_on_c, 11, 83, 0
13, 147600, Note_on_c, 11, 81, 84
13, 147689, Note_on_c, 11, 81, 0
13, 147720, Note_on_c, 11, 80, 84
13, 147809, Note_on_c, 11, 80, 0
13, 147840, Note_on_c, 11, 81, 84
13, 147929, Note_on_c, 11, 81, 0
13, 147960, Note_on_c, 11, 84, 84
13, 148049, Note_on_c, 11, 84, 0
13, 148080, Note_on_c, 11, 83, 84
13, 148169, Note_on_c, 11, 83, 0
13, 148200, Note_on_c, 11, 81, 84
13, 148289, Note_on_c, 11, 81, 0
13, 148320, Note_on_c, 11, 80, 84
13, 148409, Note_on_c, 11, 80, 0
13, 148440, Note_on_c, 11, 63, 84
13, 148529, Note_on_c, 11, 63, 0
13, 148560, Note_on_c, 11, 64, 84
13, 148649, Note_on_c, 11, 64, 0
13, 148680, Note_on_c, 11, 63, 84
13, 148769, Note_on_c, 11, 63, 0
13, 148800, Note_on_c, 11, 64, 84
13, 148889, Note_on_c, 11, 64, 0
13, 148920, Note_on_c, 11, 66, 84
13, 149009, Note_on_c, 11, 66, 0
13, 149040, Note_on_c, 11, 67, 84
13, 149129, Note_on_c, 11, 67, 0
13, 149160, Note_on_c, 11, 68, 84
13, 149249, Note_on_c, 11, 68, 0
13, 149280, Note_on_c, 11, 69, 84
13, 149369, Note_on_c, 11, 69, 0
13, 149400, Note_on_c, 11, 68, 84
13, 149489, Note_on_c, 11, 68, 0
13, 149520, Note_on_c, 11, 69, 84
13, 149609, Note_on_c, 11, 69, 0
13, 149640, Note_on_c, 11, 71, 84
13, 149729, Note_on_c, 11, 71, 0
13, 149760, Note_on_c, 11, 72, 84
13, 149849, Note_on_c, 11, 72, 0
13, 149880, Note_on_c, 11, 73, 84
13, 149969, Note_on_c, 11, 73, 0
13, 150000, Note_on_c, 11, 74, 84
13, 150089, Note_on_c, 11, 74, 0
13, 150120, Note_on_c, 11, 75, 84
13, 150209, Note_on_c, 11, 75, 0
13, 150240, Note_on_c, 11, 76, 84
13, 150419, Note_on_c, 11, 76, 0
13, 150480, Note_on_c, 11, 88, 92
13, 150824, Note_on_c, 11, 88, 0
13, 150840, Note_on_c, 11, 89, 84
13, 150929, Note_on_c, 11, 89, 0
13, 150960, Note_on_c, 11, 88, 84
13, 151049, Note_on_c, 11, 88, 0
13, 151080, Note_on_c, 11, 86, 84
13, 151169, Note_on_c, 11, 86, 0
13, 151200, Note_on_c, 11, 84, 84
13, 151289, Note_on_c, 11, 84, 0
13, 151320, Note_on_c, 11, 83, 84
13, 151409, Note_on_c, 11, 83, 0
13, 151440, Note_on_c, 11, 81, 84
13, 151529, Note_on_c, 11, 81, 0
13, 151560, Note_on_c, 11, 80, 84
13, 151649, Note_on_c, 11, 80, 0
13, 151680, Note_on_c, 11, 81, 84
13, 151769, Note_on_c, 11, 81, 0
13, 151800, Note_on_c, 11, 84, 84
13, 151889, Note_on_c, 11, 84, 0
13, 151920, Note_on_c, 11, 83, 84
13, 152009, Note_on_c, 11, 83, 0
13, 152040, Note_on_c, 11, 81, 84
13, 152129, Note_on_c, 11, 81, 0
13, 152160, Note_on_c, 11, 80, 84
13, 152211, Note_on_c, 11, 80, 0
13, 152220, Note_on_c, 11, 80, 84
13, 152271, Note_on_c, 11, 80, 0
13, 152280, Note_on_c, 11, 75, 84
13, 152331, Note_on_c, 11, 75, 0
13, 152340, Note_on_c, 11, 75, 84
13, 152391, Note_on_c, 11, 75, 0
13, 152400, Note_on_c, 11, 76, 84
13, 152451, Note_on_c, 11, 76, 0
13, 152460, Note_on_c, 11, 76, 84
13, 152511, Note_on_c, 11, 76, 0
13, 152520, Note_on_c, 11, 75, 84
13, 152571, Note_on_c, 11, 75, 0
13, 152580, Note_on_c, 11, 75, 84
13, 152631, Note_on_c, 11, 75, 0
13, 152640, Note_on_c, 11, 76, 84
13, 152691, Note_on_c, 11, 76, 0
13, 152700, Note_on_c, 11, 76, 84
13, 152751, Note_on_c, 11, 76, 0
13, 152760, Note_on_c, 11, 78, 84
13, 152811, Note_on_c, 11, 78, 0
13, 152820, Note_on_c, 11, 78, 84
13, 152871, Note_on_c, 11, 78, 0
13, 152880, Note_on_c, 11, 79, 84
13, 152931, Note_on_c, 11, 79, 0
13, 152940, Note_on_c, 11, 79, 84
13, 152991, Note_on_c, 11, 79, 0
13, 153000, Note_on_c, 11, 80, 84
13, 153051, Note_on_c, 11, 80, 0
13, 153060, Note_on_c, 11, 80, 84
13, 153111, Note_on_c, 11, 80, 0
13, 153120, Note_on_c, 11, 81, 84
13, 153171, Note_on_c, 11, 81, 0
13, 153180, Note_on_c, 11, 81, 84
13, 153231, Note_on_c, 11, 81, 0
13, 153240, Note_on_c, 11, 80, 84
13, 153291, Note_on_c, 11, 80, 0
13, 153300, Note_on_c, 11, 80, 84
13, 153351, Note_on_c, 11, 80, 0
13, 153360, Note_on_c, 11, 81, 84
13, 153411, Note_on_c, 11, 81, 0
13, 153420, Note_on_c, 11, 81, 84
13, 153471, Note_on_c, 11, 81, 0
13, 153480, Note_on_c, 11, 83, 84
13, 153531, Note_on_c, 11, 83, 0
13, 153540, Note_on_c, 11, 83, 84
13, 153591, Note_on_c, 11, 83, 0
13, 153600, Note_on_c, 11, 84, 84
13, 153651, Note_on_c, 11, 84, 0
13, 153660, Note_on_c, 11, 84, 84
13, 153711, Note_on_c, 11, 84, 0
13, 153720, Note_on_c, 11, 85, 84
13, 153771, Note_on_c, 11, 85, 0
13, 153780, Note_on_c, 11, 85, 84
13, 153831, Note_on_c, 11, 85, 0
13, 153840, Note_on_c, 11, 86, 84
13, 153891, Note_on_c, 11, 86, 0
13, 153900, Note_on_c, 11, 86, 84
13, 153951, Note_on_c, 11, 86, 0
13, 153960, Note_on_c, 11, 87, 84
13, 154011, Note_on_c, 11, 87, 0
13, 154020, Note_on_c, 11, 87, 84
13, 154071, Note_on_c, 11, 87, 0
13, 154080, Note_on_c, 11, 88, 92
13, 154131, Note_on_c, 11, 88, 0
13, 154140, Note_on_c, 11, 88, 84
13, 154191, Note_on_c, 11, 88, 0
13, 154200, Note_on_c, 11, 88, 84
13, 154251, Note_on_c, 11, 88, 0
13, 154260, Note_on_c, 11, 88, 84
13, 154311, Note_on_c, 11, 88, 0
13, 154320, Note_on_c, 11, 88, 84
13, 154371, Note_on_c, 11, 88, 0
13, 154380, Note_on_c, 11, 88, 84
13, 154431, Note_on_c, 11, 88, 0
13, 154440, Note_on_c, 11, 87, 84
13, 154491, Note_on_c, 11, 87, 0
13, 154500, Note_on_c, 11, 87, 84
13, 154551, Note_on_c, 11, 87, 0
13, 154560, Note_on_c, 11, 88, 92
13, 154611, Note_on_c, 11, 88, 0
13, 154620, Note_on_c, 11, 88, 84
13, 154671, Note_on_c, 11, 88, 0
13, 154680, Note_on_c, 11, 88, 84
13, 154731, Note_on_c, 11, 88, 0
13, 154740, Note_on_c, 11, 88, 84
13, 154791, Note_on_c, 11, 88, 0
13, 154800, Note_on_c, 11, 88, 84
13, 154851, Note_on_c, 11, 88, 0
13, 154860, Note_on_c, 11, 88, 84
13, 154911, Note_on_c, 11, 88, 0
13, 154920, Note_on_c, 11, 87, 84
13, 154971, Note_on_c, 11, 87, 0
13, 154980, Note_on_c, 11, 87, 84
13, 155031, Note_on_c, 11, 87, 0
13, 155040, Note_on_c, 11, 88, 84
13, 155091, Note_on_c, 11, 88, 0
13, 155100, Note_on_c, 11, 88, 84
13, 155151, Note_on_c, 11, 88, 0
13, 155160, Note_on_c, 11, 87, 84
13, 155211, Note_on_c, 11, 87, 0
13, 155220, Note_on_c, 11, 87, 84
13, 155271, Note_on_c, 11, 87, 0
13, 155280, Note_on_c, 11, 88, 84
13, 155331, Note_on_c, 11, 88, 0
13, 155340, Note_on_c, 11, 88, 84
13, 155391, Note_on_c, 11, 88, 0
13, 155400, Note_on_c, 11, 87, 84
13, 155451, Note_on_c, 11, 87, 0
13, 155460, Note_on_c, 11, 87, 84
13, 155511, Note_on_c, 11, 87, 0
13, 155520, Note_on_c, 11, 88, 84
13, 155571, Note_on_c, 11, 88, 0
13, 155580, Note_on_c, 11, 88, 84
13, 155631, Note_on_c, 11, 88, 0
13, 155640, Note_on_c, 11, 87, 84
13, 155691, Note_on_c, 11, 87, 0
13, 155700, Note_on_c, 11, 87, 84
13, 155751, Note_on_c, 11, 87, 0
13, 155760, Note_on_c, 11, 88, 84
13, 155811, Note_on_c, 11, 88, 0
13, 155820, Note_on_c, 11, 88, 84
13, 155871, Note_on_c, 11, 88, 0
13, 155880, Note_on_c, 11, 87, 84
13, 155931, Note_on_c, 11, 87, 0
13, 155940, Note_on_c, 11, 87, 84
13, 155991, Note_on_c, 11, 87, 0
13, 156000, Note_on_c, 11, 88, 92
13, 156704, Note_on_c, 11, 88, 0
13, 156720, Note_on_c, 11, 87, 84
13, 156899, Note_on_c, 11, 87, 0
13, 156960, Note_on_c, 11, 86, 84
13, 157139, Note_on_c, 11, 86, 0
13, 157200, Note_on_c, 11, 85, 84
13, 157379, Note_on_c, 11, 85, 0
13, 157440, Note_on_c, 11, 83, 84
13, 157619, Note_on_c, 11, 83, 0
13, 157680, Note_on_c, 11, 88, 84
13, 157859, Note_on_c, 11, 88, 0
13, 157920, Note_on_c, 11, 81, 52
13, 158099, Note_on_c, 11, 81, 0
13, 161760, Note_on_c, 11, 73, 84
13, 162224, Note_on_c, 11, 73, 0
13, 162240, Note_on_c, 11, 78, 84
13, 162651, Note_on_c, 11, 78, 0
13, 162660, Note_on_c, 11, 81, 84
13, 162711, Note_on_c, 11, 81, 0
13, 162720, Note_on_c, 11, 85, 92
13, 163424, Note_on_c, 11, 85, 0
13, 163440, Note_on_c, 11, 81, 84
13, 163619, Note_on_c, 11, 81, 0
13, 163620, Note_on_c, 11, 78, 84
13, 163671, Note_on_c, 11, 78, 0
13, 163680, Note_on_c, 11, 83, 92
13, 163859, Note_on_c, 11, 83, 0
13, 163920, Note_on_c, 11, 80, 84
13, 164099, Note_on_c, 11, 80, 0
13, 164100, Note_on_c, 11, 76, 84
13, 164151, Note_on_c, 11, 76, 0
13, 164160, Note_on_c, 11, 81, 92
13, 164339, Note_on_c, 11, 81, 0
13, 164400, Note_on_c, 11, 78, 84
13, 164579, Note_on_c, 11, 78, 0
13, 164580, Note_on_c, 11, 75, 84
13, 164631, Note_on_c, 11, 75, 0
13, 164640, Note_on_c, 11, 76, 52
13, 164819, Note_on_c, 11, 76, 0
13, 164880, Note_on_c, 11, 64, 52
13, 164939, Note_on_c, 11, 64, 0
13, 164940, Note_on_c, 11, 66, 53
13, 164999, Note_on_c, 11, 66, 0
13, 165000, Note_on_c, 11, 68, 54
13, 165059, Note_on_c, 11, 68, 0
13, 165060, Note_on_c, 11, 69, 56
13, 165111, Note_on_c, 11, 69, 0
13, 165120, Note_on_c, 11, 71, 57
13, 165179, Note_on_c, 11, 71, 0
13, 165180, Note_on_c, 11, 73, 58
13, 165239, Note_on_c, 11, 73, 0
13, 165240, Note_on_c, 11, 74, 60
13, 165299, Note_on_c, 11, 74, 0
13, 165300, Note_on_c, 11, 73, 61
13, 165359, Note_on_c, 11, 73, 0
13, 165360, Note_on_c, 11, 76, 62
13, 165419, Note_on_c, 11, 76, 0
13, 165420, Note_on_c, 11, 74, 64
13, 165479, Note_on_c, 11, 74, 0
13, 165480, Note_on_c, 11, 73, 65
13, 165539, Note_on_c, 11, 73, 0
13, 165540, Note_on_c, 11, 71, 66
13, 165591, Note_on_c, 11, 71, 0
13, 165600, Note_on_c, 11, 69, 52
13, 165824, Note_on_c, 11, 69, 0
13, 165840, Note_on_c, 11, 81, 52
13, 165899, Note_on_c, 11, 81, 0
13, 165900, Note_on_c, 11, 80, 52
13, 165959, Note_on_c, 11, 80, 0
13, 165960, Note_on_c, 11, 81, 52
13, 166019, Note_on_c, 11, 81, 0
13, 166020, Note_on_c, 11, 80, 52
13, 166079, Note_on_c, 11, 80, 0
13, 166080, Note_on_c, 11, 81, 52
13, 166139, Note_on_c, 11, 81, 0
13, 166140, Note_on_c, 11, 80, 52
13, 166199, Note_on_c, 11, 80, 0
13, 166200, Note_on_c, 11, 81, 52
13, 166259, Note_on_c, 11, 81, 0
13, 166260, Note_on_c, 11, 80, 52
13, 166319, Note_on_c, 11, 80, 0
13, 166320, Note_on_c, 11, 81, 52
13, 166379, Note_on_c, 11, 81, 0
13, 166380, Note_on_c, 11, 80, 52
13, 166439, Note_on_c, 11, 80, 0
13, 166440, Note_on_c, 11, 81, 52
13, 166499, Note_on_c, 11, 81, 0
13, 166500, Note_on_c, 11, 80, 52
13, 166551, Note_on_c, 11, 80, 0
13, 166560, Note_on_c, 11, 81, 52
13, 166619, Note_on_c, 11, 81, 0
13, 166620, Note_on_c, 11, 80, 52
13, 166679, Note_on_c, 11, 80, 0
13, 166680, Note_on_c, 11, 81, 52
13, 166739, Note_on_c, 11, 81, 0
13, 166740, Note_on_c, 11, 80, 52
13, 166799, Note_on_c, 11, 80, 0
13, 166800, Note_on_c, 11, 81, 52
13, 166859, Note_on_c, 11, 81, 0
13, 166860, Note_on_c, 11, 80, 52
13, 166919, Note_on_c, 11, 80, 0
13, 166920, Note_on_c, 11, 81, 52
13, 166979, Note_on_c, 11, 81, 0
13, 166980, Note_on_c, 11, 80, 52
13, 167039, Note_on_c, 11, 80, 0
13, 167040, Note_on_c, 11, 81, 52
13, 167099, Note_on_c, 11, 81, 0
13, 167100, Note_on_c, 11, 80, 52
13, 167159, Note_on_c, 11, 80, 0
13, 167160, Note_on_c, 11, 81, 52
13, 167219, Note_on_c, 11, 81, 0
13, 167220, Note_on_c, 11, 80, 52
13, 167279, Note_on_c, 11, 80, 0
13, 167280, Note_on_c, 11, 81, 52
13, 167339, Note_on_c, 11, 81, 0
13, 167340, Note_on_c, 11, 80, 52
13, 167399, Note_on_c, 11, 80, 0
13, 167400, Note_on_c, 11, 81, 52
13, 167459, Note_on_c, 11, 81, 0
13, 167460, Note_on_c, 11, 80, 52
13, 167511, Note_on_c, 11, 80, 0
13, 167520, Note_on_c, 11, 81, 52
13, 167579, Note_on_c, 11, 81, 0
13, 167580, Note_on_c, 11, 80, 52
13, 167639, Note_on_c, 11, 80, 0
13, 167640, Note_on_c, 11, 81, 52
13, 167699, Note_on_c, 11, 81, 0
13, 167700, Note_on_c, 11, 80, 52
13, 167759, Note_on_c, 11, 80, 0
13, 167760, Note_on_c, 11, 81, 52
13, 167819, Note_on_c, 11, 81, 0
13, 167820, Note_on_c, 11, 80, 52
13, 167879, Note_on_c, 11, 80, 0
13, 167880, Note_on_c, 11, 81, 52
13, 167939, Note_on_c, 11, 81, 0
13, 167940, Note_on_c, 11, 80, 52
13, 167999, Note_on_c, 11, 80, 0
13, 168000, Note_on_c, 11, 81, 52
13, 168059, Note_on_c, 11, 81, 0
13, 168060, Note_on_c, 11, 80, 52
13, 168119, Note_on_c, 11, 80, 0
13, 168120, Note_on_c, 11, 81, 52
13, 168179, Note_on_c, 11, 81, 0
13, 168180, Note_on_c, 11, 80, 52
13, 168239, Note_on_c, 11, 80, 0
13, 168240, Note_on_c, 11, 81, 52
13, 168299, Note_on_c, 11, 81, 0
13, 168300, Note_on_c, 11, 80, 52
13, 168359, Note_on_c, 11, 80, 0
13, 168360, Note_on_c, 11, 81, 52
13, 168419, Note_on_c, 11, 81, 0
13, 168420, Note_on_c, 11, 80, 52
13, 168471, Note_on_c, 11, 80, 0
13, 168480, Note_on_c, 11, 81, 52
13, 168539, Note_on_c, 11, 81, 0
13, 168540, Note_on_c, 11, 80, 52
13, 168599, Note_on_c, 11, 80, 0
13, 168600, Note_on_c, 11, 81, 52
13, 168659, Note_on_c, 11, 81, 0
13, 168660, Note_on_c, 11, 80, 52
13, 168719, Note_on_c, 11, 80, 0
13, 168720, Note_on_c, 11, 81, 52
13, 168779, Note_on_c, 11, 81, 0
13, 168780, Note_on_c, 11, 80, 52
13, 168839, Note_on_c, 11, 80, 0
13, 168840, Note_on_c, 11, 81, 52
13, 168899, Note_on_c, 11, 81, 0
13, 168900, Note_on_c, 11, 80, 52
13, 168959, Note_on_c, 11, 80, 0
13, 168960, Note_on_c, 11, 81, 76
13, 169049, Note_on_c, 11, 81, 0
13, 169080, Note_on_c, 11, 61, 76
13, 169169, Note_on_c, 11, 61, 0
13, 169200, Note_on_c, 11, 66, 76
13, 169289, Note_on_c, 11, 66, 0
13, 169320, Note_on_c, 11, 69, 76
13, 169409, Note_on_c, 11, 69, 0
13, 169440, Note_on_c, 11, 73, 84
13, 169529, Note_on_c, 11, 73, 0
13, 169560, Note_on_c, 11, 61, 84
13, 169649, Note_on_c, 11, 61, 0
13, 169680, Note_on_c, 11, 66, 84
13, 169769, Note_on_c, 11, 66, 0
13, 169800, Note_on_c, 11, 69, 84
13, 169889, Note_on_c, 11, 69, 0
13, 169920, Note_on_c, 11, 73, 84
13, 170009, Note_on_c, 11, 73, 0
13, 170040, Note_on_c, 11, 73, 84
13, 170129, Note_on_c, 11, 73, 0
13, 170160, Note_on_c, 11, 78, 84
13, 170249, Note_on_c, 11, 78, 0
13, 170280, Note_on_c, 11, 81, 84
13, 170369, Note_on_c, 11, 81, 0
13, 170400, Note_on_c, 11, 85, 92
13, 171104, Note_on_c, 11, 85, 0
13, 171120, Note_on_c, 11, 81, 84
13, 171299, Note_on_c, 11, 81, 0
13, 171300, Note_on_c, 11, 78, 84
13, 171351, Note_on_c, 11, 78, 0
13, 171360, Note_on_c, 11, 83, 92
13, 171449, Note_on_c, 11, 83, 0
13, 171480, Note_on_c, 11, 83, 84
13, 171599, Note_on_c, 11, 83, 0
13, 171600, Note_on_c, 11, 80, 84
13, 171719, Note_on_c, 11, 80, 0
13, 171720, Note_on_c, 11, 76, 84
13, 171824, Note_on_c, 11, 76, 0
13, 171840, Note_on_c, 11, 81, 92
13, 171929, Note_on_c, 11, 81, 0
13, 171960, Note_on_c, 11, 81, 84
13, 172079, Note_on_c, 11, 81, 0
13, 172080, Note_on_c, 11, 78, 84
13, 172199, Note_on_c, 11, 78, 0
13, 172200, Note_on_c, 11, 75, 84
13, 172304, Note_on_c, 11, 75, 0
13, 172320, Note_on_c, 11, 76, 84
13, 172559, Note_on_c, 11, 76, 0
13, 174240, Note_on_c, 11, 88, 92
13, 174824, Note_on_c, 11, 88, 0
13, 174840, Note_on_c, 11, 88, 84
13, 174959, Note_on_c, 11, 88, 0
13, 174960, Note_on_c, 11, 86, 84
13, 175079, Note_on_c, 11, 86, 0
13, 175080, Note_on_c, 11, 85, 84
13, 175184, Note_on_c, 11, 85, 0
13, 175200, Note_on_c, 11, 86, 92
13, 175784, Note_on_c, 11, 86, 0
13, 175800, Note_on_c, 11, 86, 84
13, 175919, Note_on_c, 11, 86, 0
13, 175920, Note_on_c, 11, 85, 84
13, 176039, Note_on_c, 11, 85, 0
13, 176040, Note_on_c, 11, 84, 84
13, 176144, Note_on_c, 11, 84, 0
13, 176160, Note_on_c, 11, 85, 92
13, 176249, Note_on_c, 11, 85, 0
13, 176280, Note_on_c, 11, 85, 84
13, 176399, Note_on_c, 11, 85, 0
13, 176400, Note_on_c, 11, 83, 84
13, 176519, Note_on_c, 11, 83, 0
13, 176520, Note_on_c, 11, 82, 84
13, 176624, Note_on_c, 11, 82, 0
13, 176640, Note_on_c, 11, 83, 92
13, 176729, Note_on_c, 11, 83, 0
13, 176760, Note_on_c, 11, 83, 84
13, 176879, Note_on_c, 11, 83, 0
13, 176880, Note_on_c, 11, 81, 84
13, 176999, Note_on_c, 11, 81, 0
13, 177000, Note_on_c, 11, 80, 84
13, 177104, Note_on_c, 11, 80, 0
13, 177120, Note_on_c, 11, 81, 92
13, 177209, Note_on_c, 11, 81, 0
13, 177240, Note_on_c, 11, 88, 84
13, 177359, Note_on_c, 11, 88, 0
13, 177360, Note_on_c, 11, 86, 84
13, 177479, Note_on_c, 11, 86, 0
13, 177480, Note_on_c, 11, 85, 84
13, 177584, Note_on_c, 11, 85, 0
13, 177600, Note_on_c, 11, 86, 92
13, 177689, Note_on_c, 11, 86, 0
13, 177720, Note_on_c, 11, 86, 84
13, 177839, Note_on_c, 11, 86, 0
13, 177840, Note_on_c, 11, 85, 84
13, 177959, Note_on_c, 11, 85, 0
13, 177960, Note_on_c, 11, 84, 84
13, 178064, Note_on_c, 11, 84, 0
13, 178080, Note_on_c, 11, 85, 92
13, 178169, Note_on_c, 11, 85, 0
13, 178200, Note_on_c, 11, 85, 84
13, 178319, Note_on_c, 11, 85, 0
13, 178320, Note_on_c, 11, 83, 84
13, 178439, Note_on_c, 11, 83, 0
13, 178440, Note_on_c, 11, 81, 84
13, 178544, Note_on_c, 11, 81, 0
13, 178560, Note_on_c, 11, 83, 88
13, 178649, Note_on_c, 11, 83, 0
13, 178680, Note_on_c, 11, 83, 84
13, 178799, Note_on_c, 11, 83, 0
13, 178800, Note_on_c, 11, 81, 84
13, 178919, Note_on_c, 11, 81, 0
13, 178920, Note_on_c, 11, 80, 84
13, 179024, Note_on_c, 11, 80, 0
13, 179040, Note_on_c, 11, 81, 92
13, 179129, Note_on_c, 11, 81, 0
13, 179160, Note_on_c, 11, 81, 84
13, 179279, Note_on_c, 11, 81, 0
13, 179280, Note_on_c, 11, 79, 84
13, 179399, Note_on_c, 11, 79, 0
13, 179400, Note_on_c, 11, 78, 84
13, 179504, Note_on_c, 11, 78, 0
13, 179520, Note_on_c, 11, 79, 92
13, 179609, Note_on_c, 11, 79, 0
13, 179640, Note_on_c, 11, 79, 84
13, 179759, Note_on_c, 11, 79, 0
13, 179760, Note_on_c, 11, 78, 84
13, 179879, Note_on_c, 11, 78, 0
13, 179880, Note_on_c, 11, 77, 84
13, 179984, Note_on_c, 11, 77, 0
13, 180000, Note_on_c, 11, 69, 84
13, 180000, Note_on_c, 11, 78, 84
13, 180000, Note_on_c, 11, 62, 84
13, 180179, Note_on_c, 11, 69, 0
13, 180179, Note_on_c, 11, 78, 0
13, 180179, Note_on_c, 11, 62, 0
13, 180960, Note_on_c, 11, 62, 84
13, 180960, Note_on_c, 11, 74, 84
13, 180960, Note_on_c, 11, 86, 84
13, 181139, Note_on_c, 11, 62, 0
13, 181139, Note_on_c, 11, 74, 0
13, 181139, Note_on_c, 11, 86, 0
13, 181920, Note_on_c, 11, 76, 84
13, 181920, Note_on_c, 11, 86, 84
13, 182159, Note_on_c, 11, 76, 0
13, 182159, Note_on_c, 11, 86, 0
13, 182400, Note_on_c, 11, 76, 84
13, 182400, Note_on_c, 11, 85, 84
13, 182639, Note_on_c, 11, 76, 0
13, 182639, Note_on_c, 11, 85, 0
13, 182880, Note_on_c, 11, 86, 84
13, 182880, Note_on_c, 11, 62, 84
13, 182880, Note_on_c, 11, 78, 84
13, 183119, Note_on_c, 11, 86, 0
13, 183119, Note_on_c, 11, 62, 0
13, 183119, Note_on_c, 11, 78, 0
13, 183360, Note_on_c, 11, 64, 84
13, 183360, Note_on_c, 11, 74, 84
13, 183360, Note_on_c, 11, 83, 84
13, 183599, Note_on_c, 11, 64, 0
13, 183599, Note_on_c, 11, 74, 0
13, 183599, Note_on_c, 11, 83, 0
13, 183840, Note_on_c, 11, 66, 84
13, 183840, Note_on_c, 11, 74, 84
13, 183840, Note_on_c, 11, 81, 84
13, 184079, Note_on_c, 11, 66, 0
13, 184079, Note_on_c, 11, 74, 0
13, 184079, Note_on_c, 11, 81, 0
13, 184800, Note_on_c, 11, 74, 84
13, 184800, Note_on_c, 11, 86, 84
13, 184800, Note_on_c, 11, 62, 84
13, 185039, Note_on_c, 11, 74, 0
13, 185039, Note_on_c, 11, 86, 0
13, 185039, Note_on_c, 11, 62, 0
13, 186240, Control_c, 11, 11, 80
13, 186480, Note_on_c, 11, 59, 68
13, 186539, Note_on_c, 11, 59, 0
13, 186540, Note_on_c, 11, 58, 68
13, 186599, Note_on_c, 11, 58, 0
13, 186600, Note_on_c, 11, 59, 68
13, 186659, Note_on_c, 11, 59, 0
13, 186660, Note_on_c, 11, 60, 68
13, 186711, Note_on_c, 11, 60, 0
13, 186720, Note_on_c, 11, 62, 68
13, 186899, Note_on_c, 11, 62, 0
13, 187440, Note_on_c, 11, 60, 68
13, 187499, Note_on_c, 11, 60, 0
13, 187500, Note_on_c, 11, 59, 68
13, 187559, Note_on_c, 11, 59, 0
13, 187560, Note_on_c, 11, 60, 68
13, 187619, Note_on_c, 11, 60, 0
13, 187620, Note_on_c, 11, 62, 68
13, 187671, Note_on_c, 11, 62, 0
13, 187680, Note_on_c, 11, 64, 68
13, 187859, Note_on_c, 11, 64, 0
13, 188400, Note_on_c, 11, 62, 68
13, 188459, Note_on_c, 11, 62, 0
13, 188460, Note_on_c, 11, 61, 68
13, 188519, Note_on_c, 11, 61, 0
13, 188520, Note_on_c, 11, 62, 68
13, 188579, Note_on_c, 11, 62, 0
13, 188580, Note_on_c, 11, 64, 68
13, 188631, Note_on_c, 11, 64, 0
13, 188640, Control_c, 11, 11, 80
13, 188640, Note_on_c, 11, 65, 68
13, 188760, Control_c, 11, 11, 82
13, 188819, Note_on_c, 11, 65, 0
13, 188880, Note_on_c, 11, 64, 68
13, 188880, Control_c, 11, 11, 84
13, 188939, Note_on_c, 11, 64, 0
13, 188940, Note_on_c, 11, 62, 68
13, 188999, Note_on_c, 11, 62, 0
13, 189000, Note_on_c, 11, 64, 68
13, 189000, Control_c, 11, 11, 86
13, 189059, Note_on_c, 11, 64, 0
13, 189060, Note_on_c, 11, 65, 68
13, 189111, Note_on_c, 11, 65, 0
13, 189120, Control_c, 11, 11, 88
13, 189120, Note_on_c, 11, 67, 68
13, 189240, Control_c, 11, 11, 90
13, 189299, Note_on_c, 11, 67, 0
13, 189360, Control_c, 11, 11, 92
13, 189360, Note_on_c, 11, 65, 68
13, 189419, Note_on_c, 11, 65, 0
13, 189420, Note_on_c, 11, 64, 68
13, 189479, Note_on_c, 11, 64, 0
13, 189480, Note_on_c, 11, 65, 68
13, 189480, Control_c, 11, 11, 94
13, 189539, Note_on_c, 11, 65, 0
13, 189540, Note_on_c, 11, 67, 68
13, 189591, Note_on_c, 11, 67, 0
13, 189600, Note_on_c, 11, 69, 68
13, 189600, Control_c, 11, 11, 96
13, 189720, Control_c, 11, 11, 98
13, 189779, Note_on_c, 11, 69, 0
13, 189840, Note_on_c, 11, 68, 68
13, 189840, Control_c, 11, 11, 100
13, 189899, Note_on_c, 11, 68, 0
13, 189900, Note_on_c, 11, 66, 68
13, 189959, Note_on_c, 11, 66, 0
13, 189960, Note_on_c, 11, 68, 68
13, 189960, Control_c, 11, 11, 102
13, 190019, Note_on_c, 11, 68, 0
13, 190020, Note_on_c, 11, 69, 68
13, 190071, Note_on_c, 11, 69, 0
13, 190080, Control_c, 11, 11, 104
13, 190080, Note_on_c, 11, 71, 68
13, 190200, Control_c, 11, 11, 105
13, 190259, Note_on_c, 11, 71, 0
13, 190320, Control_c, 11, 11, 107
13, 190320, Note_on_c, 11, 69, 68
13, 190379, Note_on_c, 11, 69, 0
13, 190380, Note_on_c, 11, 68, 68
13, 190439, Note_on_c, 11, 68, 0
13, 190440, Control_c, 11, 11, 109
13, 190440, Note_on_c, 11, 69, 68
13, 190499, Note_on_c, 11, 69, 0
13, 190500, Note_on_c, 11, 71, 68
13, 190551, Note_on_c, 11, 71, 0
13, 190560, Note_on_c, 11, 72, 68
13, 190560, Control_c, 11, 11, 111
13, 190680, Control_c, 11, 11, 113
13, 190739, Note_on_c, 11, 72, 0
13, 190800, Note_on_c, 11, 69, 68
13, 190800, Control_c, 11, 11, 115
13, 190859, Note_on_c, 11, 69, 0
13, 190860, Note_on_c, 11, 68, 68
13, 190919, Note_on_c, 11, 68, 0
13, 190920, Note_on_c, 11, 69, 68
13, 190920, Control_c, 11, 11, 117
13, 190979, Note_on_c, 11, 69, 0
13, 190980, Note_on_c, 11, 71, 68
13, 191031, Note_on_c, 11, 71, 0
13, 191040, Control_c, 11, 11, 119
13, 191040, Note_on_c, 11, 72, 68
13, 191160, Control_c, 11, 11, 121
13, 191219, Note_on_c, 11, 72, 0
13, 191280, Note_on_c, 11, 69, 68
13, 191280, Control_c, 11, 11, 123
13, 191339, Note_on_c, 11, 69, 0
13, 191340, Note_on_c, 11, 68, 68
13, 191399, Note_on_c, 11, 68, 0
13, 191400, Note_on_c, 11, 69, 68
13, 191400, Control_c, 11, 11, 127
13, 191459, Note_on_c, 11, 69, 0
13, 191460, Note_on_c, 11, 71, 68
13, 191511, Note_on_c, 11, 71, 0
13, 191520, Note_on_c, 11, 72, 76
13, 192464, Note_on_c, 11, 72, 0
13, 192480, Note_on_c, 11, 63, 76
13, 193424, Note_on_c, 11, 63, 0
13, 193440, Note_on_c, 11, 64, 84
13, 193491, Note_on_c, 11, 64, 0
13, 193500, Note_on_c, 11, 64, 84
13, 193551, Note_on_c, 11, 64, 0
13, 193560, Note_on_c, 11, 69, 84
13, 193611, Note_on_c, 11, 69, 0
13, 193620, Note_on_c, 11, 69, 84
13, 193671, Note_on_c, 11, 69, 0
13, 193680, Note_on_c, 11, 73, 84
13, 193731, Note_on_c, 11, 73, 0
13, 193740, Note_on_c, 11, 73, 84
13, 193791, Note_on_c, 11, 73, 0
13, 193800, Note_on_c, 11, 76, 84
13, 193851, Note_on_c, 11, 76, 0
13, 193860, Note_on_c, 11, 76, 84
13, 193911, Note_on_c, 11, 76, 0
13, 193920, Note_on_c, 11, 81, 84
13, 193971, Note_on_c, 11, 81, 0
13, 193980, Note_on_c, 11, 81, 84
13, 194031, Note_on_c, 11, 81, 0
13, 194040, Note_on_c, 11, 85, 84
13, 194091, Note_on_c, 11, 85, 0
13, 194100, Note_on_c, 11, 85, 84
13, 194151, Note_on_c, 11, 85, 0
13, 194160, Note_on_c, 11, 88, 84
13, 194264, Note_on_c, 11, 88, 0
13, 194280, Note_on_c, 11, 88, 84
13, 194384, Note_on_c, 11, 88, 0
13, 194400, Note_on_c, 11, 88, 84
13, 194864, Note_on_c, 11, 88, 0
13, 194880, Note_on_c, 11, 80, 84
13, 194939, Note_on_c, 11, 80, 0
13, 194940, Note_on_c, 11, 81, 84
13, 194999, Note_on_c, 11, 81, 0
13, 195000, Note_on_c, 11, 80, 84
13, 195059, Note_on_c, 11, 80, 0
13, 195060, Note_on_c, 11, 81, 84
13, 195119, Note_on_c, 11, 81, 0
13, 195120, Note_on_c, 11, 80, 84
13, 195179, Note_on_c, 11, 80, 0
13, 195180, Note_on_c, 11, 81, 84
13, 195239, Note_on_c, 11, 81, 0
13, 195240, Note_on_c, 11, 78, 84
13, 195299, Note_on_c, 11, 78, 0
13, 195300, Note_on_c, 11, 80, 84
13, 195351, Note_on_c, 11, 80, 0
13, 195360, Note_on_c, 11, 81, 84
13, 195360, Note_on_c, 11, 69, 84
13, 195599, Note_on_c, 11, 81, 0
13, 195599, Note_on_c, 11, 69, 0
13, 197200, Note_on_c, 11, 62, 84
13, 197239, Note_on_c, 11, 62, 0
13, 197240, Note_on_c, 11, 74, 84
13, 197279, Note_on_c, 11, 74, 0
13, 197280, Note_on_c, 11, 86, 84
13, 197984, Note_on_c, 11, 86, 0
13, 198000, Note_on_c, 11, 86, 84
13, 198179, Note_on_c, 11, 86, 0
13, 198240, Note_on_c, 11, 81, 84
13, 198419, Note_on_c, 11, 81, 0
13, 198480, Note_on_c, 11, 77, 84
13, 198659, Note_on_c, 11, 77, 0
13, 198720, Note_on_c, 11, 76, 84
13, 198899, Note_on_c, 11, 76, 0
13, 198960, Note_on_c, 11, 74, 84
13, 199139, Note_on_c, 11, 74, 0
13, 199200, Note_on_c, 11, 69, 84
13, 199200, Note_on_c, 11, 57, 84
13, 199439, Note_on_c, 11, 69, 0
13, 199439, Note_on_c, 11, 57, 0
13, 201040, Note_on_c, 11, 62, 84
13, 201079, Note_on_c, 11, 62, 0
13, 201080, Note_on_c, 11, 74, 84
13, 201119, Note_on_c, 11, 74, 0
13, 201120, Note_on_c, 11, 86, 84
13, 201824, Note_on_c, 11, 86, 0
13, 201840, Note_on_c, 11, 86, 84
13, 202019, Note_on_c, 11, 86, 0
13, 202080, Note_on_c, 11, 81, 84
13, 202259, Note_on_c, 11, 81, 0
13, 202320, Note_on_c, 11, 77, 84
13, 202499, Note_on_c, 11, 77, 0
13, 202560, Note_on_c, 11, 76, 84
13, 202739, Note_on_c, 11, 76, 0
13, 202800, Note_on_c, 11, 74, 84
13, 202979, Note_on_c, 11, 74, 0
13, 203040, Note_on_c, 11, 81, 52
13, 203040, Note_on_c, 11, 69, 52
13, 203091, Note_on_c, 11, 81, 0
13, 203091, Note_on_c, 11, 69, 0
13, 203100, Note_on_c, 11, 69, 52
13, 203100, Note_on_c, 11, 81, 52
13, 203151, Note_on_c, 11, 69, 0
13, 203151, Note_on_c, 11, 81, 0
13, 203160, Note_on_c, 11, 69, 52
13, 203160, Note_on_c, 11, 81, 52
13, 203211, Note_on_c, 11, 69, 0
13, 203211, Note_on_c, 11, 81, 0
13, 203220, Note_on_c, 11, 69, 52
13, 203220, Note_on_c, 11, 81, 52
13, 203271, Note_on_c, 11, 69, 0
13, 203271, Note_on_c, 11, 81, 0
13, 203280, Note_on_c, 11, 69, 52
13, 203280, Note_on_c, 11, 81, 52
13, 203331, Note_on_c, 11, 69, 0
13, 203331, Note_on_c, 11, 81, 0
13, 203340, Note_on_c, 11, 81, 52
13, 203340, Note_on_c, 11, 69, 52
13, 203391, Note_on_c, 11, 81, 0
13, 203391, Note_on_c, 11, 69, 0
13, 203400, Note_on_c, 11, 69, 52
13, 203400, Note_on_c, 11, 81, 52
13, 203451, Note_on_c, 11, 69, 0
13, 203451, Note_on_c, 11, 81, 0
13, 203460, Note_on_c, 11, 69, 52
13, 203460, Note_on_c, 11, 81, 52
13, 203511, Note_on_c, 11, 69, 0
13, 203511, Note_on_c, 11, 81, 0
13, 203520, Note_on_c, 11, 69, 52
13, 203520, Note_on_c, 11, 81, 52
13, 203571, Note_on_c, 11, 69, 0
13, 203571, Note_on_c, 11, 81, 0
13, 203580, Note_on_c, 11, 69, 52
13, 203580, Note_on_c, 11, 81, 52
13, 203631, Note_on_c, 11, 69, 0
13, 203631, Note_on_c, 11, 81, 0
13, 203640, Note_on_c, 11, 81, 52
13, 203640, Note_on_c, 11, 69, 52
13, 203691, Note_on_c, 11, 81, 0
13, 203691, Note_on_c, 11, 69, 0
13, 203700, Note_on_c, 11, 69, 52
13, 203700, Note_on_c, 11, 81, 52
13, 203751, Note_on_c, 11, 69, 0
13, 203751, Note_on_c, 11, 81, 0
13, 203760, Note_on_c, 11, 80, 76
13, 203760, Note_on_c, 11, 69, 76
13, 203811, Note_on_c, 11, 80, 0
13, 203811, Note_on_c, 11, 69, 0
13, 203820, Note_on_c, 11, 69, 52
13, 203820, Note_on_c, 11, 80, 52
13, 203871, Note_on_c, 11, 69, 0
13, 203871, Note_on_c, 11, 80, 0
13, 203880, Note_on_c, 11, 80, 52
13, 203880, Note_on_c, 11, 69, 52
13, 203931, Note_on_c, 11, 80, 0
13, 203931, Note_on_c, 11, 69, 0
13, 203940, Note_on_c, 11, 69, 52
13, 203940, Note_on_c, 11, 80, 52
13, 203991, Note_on_c, 11, 69, 0
13, 203991, Note_on_c, 11, 80, 0
13, 204000, Note_on_c, 11, 81, 52
13, 204000, Note_on_c, 11, 69, 52
13, 204051, Note_on_c, 11, 81, 0
13, 204051, Note_on_c, 11, 69, 0
13, 204060, Note_on_c, 11, 81, 52
13, 204060, Note_on_c, 11, 69, 52
13, 204111, Note_on_c, 11, 81, 0
13, 204111, Note_on_c, 11, 69, 0
13, 204120, Note_on_c, 11, 81, 52
13, 204120, Note_on_c, 11, 69, 52
13, 204171, Note_on_c, 11, 81, 0
13, 204171, Note_on_c, 11, 69, 0
13, 204180, Note_on_c, 11, 69, 52
13, 204180, Note_on_c, 11, 81, 52
13, 204231, Note_on_c, 11, 69, 0
13, 204231, Note_on_c, 11, 81, 0
13, 204240, Note_on_c, 11, 81, 52
13, 204240, Note_on_c, 11, 69, 52
13, 204291, Note_on_c, 11, 81, 0
13, 204291, Note_on_c, 11, 69, 0
13, 204300, Note_on_c, 11, 69, 52
13, 204300, Note_on_c, 11, 81, 52
13, 204351, Note_on_c, 11, 69, 0
13, 204351, Note_on_c, 11, 81, 0
13, 204360, Note_on_c, 11, 69, 52
13, 204360, Note_on_c, 11, 81, 52
13, 204411, Note_on_c, 11, 69, 0
13, 204411, Note_on_c, 11, 81, 0
13, 204420, Note_on_c, 11, 81, 52
13, 204420, Note_on_c, 11, 69, 52
13, 204471, Note_on_c, 11, 81, 0
13, 204471, Note_on_c, 11, 69, 0
13, 204480, Note_on_c, 11, 69, 52
13, 204480, Note_on_c, 11, 81, 52
13, 204531, Note_on_c, 11, 69, 0
13, 204531, Note_on_c, 11, 81, 0
13, 204540, Note_on_c, 11, 81, 52
13, 204540, Note_on_c, 11, 69, 52
13, 204591, Note_on_c, 11, 81, 0
13, 204591, Note_on_c, 11, 69, 0
13, 204600, Note_on_c, 11, 69, 52
13, 204600, Note_on_c, 11, 81, 52
13, 204651, Note_on_c, 11, 69, 0
13, 204651, Note_on_c, 11, 81, 0
13, 204660, Note_on_c, 11, 81, 52
13, 204660, Note_on_c, 11, 69, 52
13, 204711, Note_on_c, 11, 81, 0
13, 204711, Note_on_c, 11, 69, 0
13, 204720, Note_on_c, 11, 83, 76
13, 204720, Note_on_c, 11, 69, 76
13, 204771, Note_on_c, 11, 83, 0
13, 204771, Note_on_c, 11, 69, 0
13, 204780, Note_on_c, 11, 83, 52
13, 204780, Note_on_c, 11, 69, 52
13, 204831, Note_on_c, 11, 83, 0
13, 204831, Note_on_c, 11, 69, 0
13, 204840, Note_on_c, 11, 69, 52
13, 204840, Note_on_c, 11, 83, 52
13, 204891, Note_on_c, 11, 69, 0
13, 204891, Note_on_c, 11, 83, 0
13, 204900, Note_on_c, 11, 83, 52
13, 204900, Note_on_c, 11, 69, 52
13, 204951, Note_on_c, 11, 83, 0
13, 204951, Note_on_c, 11, 69, 0
13, 204960, Note_on_c, 11, 81, 52
13, 204960, Note_on_c, 11, 69, 52
13, 205011, Note_on_c, 11, 81, 0
13, 205011, Note_on_c, 11, 69, 0
13, 205020, Note_on_c, 11, 81, 52
13, 205020, Note_on_c, 11, 69, 52
13, 205071, Note_on_c, 11, 81, 0
13, 205071, Note_on_c, 11, 69, 0
13, 205080, Note_on_c, 11, 69, 52
13, 205080, Note_on_c, 11, 81, 52
13, 205131, Note_on_c, 11, 69, 0
13, 205131, Note_on_c, 11, 81, 0
13, 205140, Note_on_c, 11, 81, 52
13, 205140, Note_on_c, 11, 69, 52
13, 205191, Note_on_c, 11, 81, 0
13, 205191, Note_on_c, 11, 69, 0
13, 205200, Note_on_c, 11, 69, 52
13, 205200, Note_on_c, 11, 81, 52
13, 205251, Note_on_c, 11, 69, 0
13, 205251, Note_on_c, 11, 81, 0
13, 205260, Note_on_c, 11, 81, 52
13, 205260, Note_on_c, 11, 69, 52
13, 205311, Note_on_c, 11, 81, 0
13, 205311, Note_on_c, 11, 69, 0
13, 205320, Note_on_c, 11, 81, 52
13, 205320, Note_on_c, 11, 69, 52
13, 205371, Note_on_c, 11, 81, 0
13, 205371, Note_on_c, 11, 69, 0
13, 205380, Note_on_c, 11, 69, 52
13, 205380, Note_on_c, 11, 81, 52
13, 205431, Note_on_c, 11, 69, 0
13, 205431, Note_on_c, 11, 81, 0
13, 205440, Note_on_c, 11, 69, 52
13, 205440, Note_on_c, 11, 81, 52
13, 205491, Note_on_c, 11, 69, 0
13, 205491, Note_on_c, 11, 81, 0
13, 205500, Note_on_c, 11, 69, 52
13, 205500, Note_on_c, 11, 81, 52
13, 205551, Note_on_c, 11, 69, 0
13, 205551, Note_on_c, 11, 81, 0
13, 205560, Note_on_c, 11, 69, 52
13, 205560, Note_on_c, 11, 81, 52
13, 205611, Note_on_c, 11, 69, 0
13, 205611, Note_on_c, 11, 81, 0
13, 205620, Note_on_c, 11, 69, 52
13, 205620, Note_on_c, 11, 81, 52
13, 205671, Note_on_c, 11, 69, 0
13, 205671, Note_on_c, 11, 81, 0
13, 205680, Note_on_c, 11, 69, 76
13, 205680, Note_on_c, 11, 80, 76
13, 205731, Note_on_c, 11, 69, 0
13, 205731, Note_on_c, 11, 80, 0
13, 205740, Note_on_c, 11, 69, 52
13, 205740, Note_on_c, 11, 80, 52
13, 205791, Note_on_c, 11, 69, 0
13, 205791, Note_on_c, 11, 80, 0
13, 205800, Note_on_c, 11, 80, 52
13, 205800, Note_on_c, 11, 69, 52
13, 205851, Note_on_c, 11, 80, 0
13, 205851, Note_on_c, 11, 69, 0
13, 205860, Note_on_c, 11, 69, 52
13, 205860, Note_on_c, 11, 80, 52
13, 205911, Note_on_c, 11, 69, 0
13, 205911, Note_on_c, 11, 80, 0
13, 205920, Note_on_c, 11, 81, 52
13, 205920, Note_on_c, 11, 69, 52
13, 205971, Note_on_c, 11, 81, 0
13, 205971, Note_on_c, 11, 69, 0
13, 205980, Note_on_c, 11, 81, 52
13, 205980, Note_on_c, 11, 69, 52
13, 206031, Note_on_c, 11, 81, 0
13, 206031, Note_on_c, 11, 69, 0
13, 206040, Note_on_c, 11, 81, 52
13, 206040, Note_on_c, 11, 69, 52
13, 206091, Note_on_c, 11, 81, 0
13, 206091, Note_on_c, 11, 69, 0
13, 206100, Note_on_c, 11, 81, 52
13, 206100, Note_on_c, 11, 69, 52
13, 206151, Note_on_c, 11, 81, 0
13, 206151, Note_on_c, 11, 69, 0
13, 206160, Note_on_c, 11, 81, 52
13, 206160, Note_on_c, 11, 69, 52
13, 206211, Note_on_c, 11, 81, 0
13, 206211, Note_on_c, 11, 69, 0
13, 206220, Note_on_c, 11, 69, 52
13, 206220, Note_on_c, 11, 81, 52
13, 206271, Note_on_c, 11, 69, 0
13, 206271, Note_on_c, 11, 81, 0
13, 206280, Note_on_c, 11, 69, 52
13, 206280, Note_on_c, 11, 81, 52
13, 206331, Note_on_c, 11, 69, 0
13, 206331, Note_on_c, 11, 81, 0
13, 206340, Note_on_c, 11, 81, 52
13, 206340, Note_on_c, 11, 69, 52
13, 206391, Note_on_c, 11, 81, 0
13, 206391, Note_on_c, 11, 69, 0
13, 206400, Note_on_c, 11, 81, 52
13, 206400, Note_on_c, 11, 69, 52
13, 206451, Note_on_c, 11, 81, 0
13, 206451, Note_on_c, 11, 69, 0
13, 206460, Note_on_c, 11, 81, 52
13, 206460, Note_on_c, 11, 69, 52
13, 206511, Note_on_c, 11, 81, 0
13, 206511, Note_on_c, 11, 69, 0
13, 206520, Note_on_c, 11, 69, 52
13, 206520, Note_on_c, 11, 81, 52
13, 206571, Note_on_c, 11, 69, 0
13, 206571, Note_on_c, 11, 81, 0
13, 206580, Note_on_c, 11, 69, 52
13, 206580, Note_on_c, 11, 81, 52
13, 206631, Note_on_c, 11, 69, 0
13, 206631, Note_on_c, 11, 81, 0
13, 206640, Note_on_c, 11, 83, 76
13, 206640, Note_on_c, 11, 69, 76
13, 206691, Note_on_c, 11, 83, 0
13, 206691, Note_on_c, 11, 69, 0
13, 206700, Note_on_c, 11, 83, 52
13, 206700, Note_on_c, 11, 69, 52
13, 206751, Note_on_c, 11, 83, 0
13, 206751, Note_on_c, 11, 69, 0
13, 206760, Note_on_c, 11, 83, 52
13, 206760, Note_on_c, 11, 69, 52
13, 206811, Note_on_c, 11, 83, 0
13, 206811, Note_on_c, 11, 69, 0
13, 206820, Note_on_c, 11, 83, 52
13, 206820, Note_on_c, 11, 69, 52
13, 206871, Note_on_c, 11, 83, 0
13, 206871, Note_on_c, 11, 69, 0
13, 206880, Note_on_c, 11, 81, 52
13, 206880, Note_on_c, 11, 69, 52
13, 206931, Note_on_c, 11, 81, 0
13, 206931, Note_on_c, 11, 69, 0
13, 206940, Note_on_c, 11, 69, 52
13, 206940, Note_on_c, 11, 81, 52
13, 206991, Note_on_c, 11, 69, 0
13, 206991, Note_on_c, 11, 81, 0
13, 207000, Note_on_c, 11, 81, 52
13, 207000, Note_on_c, 11, 69, 52
13, 207051, Note_on_c, 11, 81, 0
13, 207051, Note_on_c, 11, 69, 0
13, 207060, Note_on_c, 11, 69, 52
13, 207060, Note_on_c, 11, 81, 52
13, 207111, Note_on_c, 11, 69, 0
13, 207111, Note_on_c, 11, 81, 0
13, 207120, Note_on_c, 11, 69, 76
13, 207120, Note_on_c, 11, 83, 76
13, 207171, Note_on_c, 11, 69, 0
13, 207171, Note_on_c, 11, 83, 0
13, 207180, Note_on_c, 11, 83, 52
13, 207180, Note_on_c, 11, 69, 52
13, 207231, Note_on_c, 11, 83, 0
13, 207231, Note_on_c, 11, 69, 0
13, 207240, Note_on_c, 11, 83, 52
13, 207240, Note_on_c, 11, 69, 52
13, 207291, Note_on_c, 11, 83, 0
13, 207291, Note_on_c, 11, 69, 0
13, 207300, Note_on_c, 11, 69, 52
13, 207300, Note_on_c, 11, 83, 52
13, 207351, Note_on_c, 11, 69, 0
13, 207351, Note_on_c, 11, 83, 0
13, 207360, Note_on_c, 11, 69, 52
13, 207360, Note_on_c, 11, 81, 52
13, 207411, Note_on_c, 11, 69, 0
13, 207411, Note_on_c, 11, 81, 0
13, 207420, Note_on_c, 11, 69, 52
13, 207420, Note_on_c, 11, 81, 52
13, 207471, Note_on_c, 11, 69, 0
13, 207471, Note_on_c, 11, 81, 0
13, 207480, Note_on_c, 11, 69, 52
13, 207480, Note_on_c, 11, 81, 52
13, 207531, Note_on_c, 11, 69, 0
13, 207531, Note_on_c, 11, 81, 0
13, 207540, Note_on_c, 11, 69, 52
13, 207540, Note_on_c, 11, 81, 52
13, 207591, Note_on_c, 11, 69, 0
13, 207591, Note_on_c, 11, 81, 0
13, 207600, Note_on_c, 11, 69, 76
13, 207600, Note_on_c, 11, 83, 76
13, 207651, Note_on_c, 11, 69, 0
13, 207651, Note_on_c, 11, 83, 0
13, 207660, Note_on_c, 11, 69, 52
13, 207660, Note_on_c, 11, 83, 52
13, 207711, Note_on_c, 11, 69, 0
13, 207711, Note_on_c, 11, 83, 0
13, 207720, Note_on_c, 11, 83, 52
13, 207720, Note_on_c, 11, 69, 52
13, 207771, Note_on_c, 11, 83, 0
13, 207771, Note_on_c, 11, 69, 0
13, 207780, Note_on_c, 11, 83, 52
13, 207780, Note_on_c, 11, 69, 52
13, 207831, Note_on_c, 11, 83, 0
13, 207831, Note_on_c, 11, 69, 0
13, 207840, Note_on_c, 11, 69, 52
13, 207840, Note_on_c, 11, 81, 52
13, 207891, Note_on_c, 11, 69, 0
13, 207891, Note_on_c, 11, 81, 0
13, 207900, Note_on_c, 11, 81, 52
13, 207900, Note_on_c, 11, 69, 52
13, 207951, Note_on_c, 11, 81, 0
13, 207951, Note_on_c, 11, 69, 0
13, 207960, Note_on_c, 11, 81, 52
13, 207960, Note_on_c, 11, 69, 52
13, 208011, Note_on_c, 11, 81, 0
13, 208011, Note_on_c, 11, 69, 0
13, 208020, Note_on_c, 11, 81, 52
13, 208020, Note_on_c, 11, 69, 52
13, 208071, Note_on_c, 11, 81, 0
13, 208071, Note_on_c, 11, 69, 0
13, 208080, Note_on_c, 11, 83, 76
13, 208080, Note_on_c, 11, 69, 76
13, 208131, Note_on_c, 11, 83, 0
13, 208131, Note_on_c, 11, 69, 0
13, 208140, Note_on_c, 11, 69, 52
13, 208140, Note_on_c, 11, 83, 52
13, 208191, Note_on_c, 11, 69, 0
13, 208191, Note_on_c, 11, 83, 0
13, 208200, Note_on_c, 11, 69, 52
13, 208200, Note_on_c, 11, 83, 52
13, 208251, Note_on_c, 11, 69, 0
13, 208251, Note_on_c, 11, 83, 0
13, 208260, Note_on_c, 11, 83, 52
13, 208260, Note_on_c, 11, 69, 52
13, 208311, Note_on_c, 11, 83, 0
13, 208311, Note_on_c, 11, 69, 0
13, 208320, Note_on_c, 11, 69, 52
13, 208320, Note_on_c, 11, 81, 52
13, 208371, Note_on_c, 11, 69, 0
13, 208371, Note_on_c, 11, 81, 0
13, 208380, Note_on_c, 11, 69, 52
13, 208380, Note_on_c, 11, 81, 52
13, 208431, Note_on_c, 11, 69, 0
13, 208431, Note_on_c, 11, 81, 0
13, 208440, Note_on_c, 11, 81, 52
13, 208440, Note_on_c, 11, 69, 52
13, 208491, Note_on_c, 11, 81, 0
13, 208491, Note_on_c, 11, 69, 0
13, 208500, Note_on_c, 11, 81, 52
13, 208500, Note_on_c, 11, 69, 52
13, 208551, Note_on_c, 11, 81, 0
13, 208551, Note_on_c, 11, 69, 0
13, 208560, Note_on_c, 11, 69, 76
13, 208560, Note_on_c, 11, 83, 76
13, 208611, Note_on_c, 11, 69, 0
13, 208611, Note_on_c, 11, 83, 0
13, 208620, Note_on_c, 11, 69, 52
13, 208620, Note_on_c, 11, 83, 52
13, 208671, Note_on_c, 11, 69, 0
13, 208671, Note_on_c, 11, 83, 0
13, 208680, Note_on_c, 11, 83, 52
13, 208680, Note_on_c, 11, 69, 52
13, 208731, Note_on_c, 11, 83, 0
13, 208731, Note_on_c, 11, 69, 0
13, 208740, Note_on_c, 11, 69, 52
13, 208740, Note_on_c, 11, 83, 52
13, 208791, Note_on_c, 11, 69, 0
13, 208791, Note_on_c, 11, 83, 0
13, 208800, Note_on_c, 11, 81, 84
13, 208800, Note_on_c, 11, 69, 84
13, 208851, Note_on_c, 11, 81, 0
13, 208851, Note_on_c, 11, 69, 0
13, 208860, Note_on_c, 11, 81, 84
13, 208911, Note_on_c, 11, 81, 0
13, 208920, Note_on_c, 11, 88, 84
13, 208971, Note_on_c, 11, 88, 0
13, 208980, Note_on_c, 11, 88, 84
13, 209031, Note_on_c, 11, 88, 0
13, 209040, Note_on_c, 11, 85, 84
13, 209091, Note_on_c, 11, 85, 0
13, 209100, Note_on_c, 11, 85, 84
13, 209151, Note_on_c, 11, 85, 0
13, 209160, Note_on_c, 11, 81, 84
13, 209211, Note_on_c, 11, 81, 0
13, 209220, Note_on_c, 11, 81, 84
13, 209271, Note_on_c, 11, 81, 0
13, 209280, Note_on_c, 11, 76, 84
13, 209331, Note_on_c, 11, 76, 0
13, 209340, Note_on_c, 11, 76, 84
13, 209391, Note_on_c, 11, 76, 0
13, 209400, Note_on_c, 11, 85, 84
13, 209451, Note_on_c, 11, 85, 0
13, 209460, Note_on_c, 11, 85, 84
13, 209511, Note_on_c, 11, 85, 0
13, 209520, Note_on_c, 11, 81, 84
13, 209571, Note_on_c, 11, 81, 0
13, 209580, Note_on_c, 11, 81, 84
13, 209631, Note_on_c, 11, 81, 0
13, 209640, Note_on_c, 11, 76, 84
13, 209691, Note_on_c, 11, 76, 0
13, 209700, Note_on_c, 11, 76, 84
13, 209751, Note_on_c, 11, 76, 0
13, 209760, Note_on_c, 11, 73, 84
13, 209811, Note_on_c, 11, 73, 0
13, 209820, Note_on_c, 11, 73, 84
13, 209871, Note_on_c, 11, 73, 0
13, 209880, Note_on_c, 11, 81, 84
13, 209931, Note_on_c, 11, 81, 0
13, 209940, Note_on_c, 11, 81, 84
13, 209991, Note_on_c, 11, 81, 0
13, 210000, Note_on_c, 11, 76, 84
13, 210051, Note_on_c, 11, 76, 0
13, 210060, Note_on_c, 11, 76, 84
13, 210111, Note_on_c, 11, 76, 0
13, 210120, Note_on_c, 11, 73, 84
13, 210171, Note_on_c, 11, 73, 0
13, 210180, Note_on_c, 11, 73, 84
13, 210231, Note_on_c, 11, 73, 0
13, 210240, Note_on_c, 11, 69, 84
13, 210291, Note_on_c, 11, 69, 0
13, 210300, Note_on_c, 11, 69, 84
13, 210351, Note_on_c, 11, 69, 0
13, 210360, Note_on_c, 11, 76, 84
13, 210411, Note_on_c, 11, 76, 0
13, 210420, Note_on_c, 11, 76, 84
13, 210471, Note_on_c, 11, 76, 0
13, 210480, Note_on_c, 11, 73, 84
13, 210531, Note_on_c, 11, 73, 0
13, 210540, Note_on_c, 11, 73, 84
13, 210591, Note_on_c, 11, 73, 0
13, 210600, Note_on_c, 11, 69, 84
13, 210651, Note_on_c, 11, 69, 0
13, 210660, Note_on_c, 11, 69, 84
13, 210711, Note_on_c, 11, 69, 0
13, 210720, Note_on_c, 11, 64, 84
13, 210771, Note_on_c, 11, 64, 0
13, 210780, Note_on_c, 11, 64, 84
13, 210831, Note_on_c, 11, 64, 0
13, 210840, Note_on_c, 11, 73, 84
13, 210891, Note_on_c, 11, 73, 0
13, 210900, Note_on_c, 11, 73, 84
13, 210951, Note_on_c, 11, 73, 0
13, 210960, Note_on_c, 11, 69, 84
13, 211011, Note_on_c, 11, 69, 0
13, 211020, Note_on_c, 11, 69, 84
13, 211071, Note_on_c, 11, 69, 0
13, 211080, Note_on_c, 11, 64, 84
13, 211131, Note_on_c, 11, 64, 0
13, 211140, Note_on_c, 11, 64, 84
13, 211191, Note_on_c, 11, 64, 0
13, 211200, Note_on_c, 11, 61, 84
13, 211251, Note_on_c, 11, 61, 0
13, 211260, Note_on_c, 11, 61, 84
13, 211311, Note_on_c, 11, 61, 0
13, 211320, Note_on_c, 11, 69, 84
13, 211371, Note_on_c, 11, 69, 0
13, 211380, Note_on_c, 11, 69, 84
13, 211431, Note_on_c, 11, 69, 0
13, 211440, Note_on_c, 11, 64, 84
13, 211491, Note_on_c, 11, 64, 0
13, 211500, Note_on_c, 11, 64, 84
13, 211551, Note_on_c, 11, 64, 0
13, 211560, Note_on_c, 11, 61, 84
13, 211611, Note_on_c, 11, 61, 0
13, 211620, Note_on_c, 11, 61, 84
13, 211671, Note_on_c, 11, 61, 0
13, 211680, Note_on_c, 11, 57, 84
13, 211731, Note_on_c, 11, 57, 0
13, 211740, Note_on_c, 11, 57, 84
13, 211791, Note_on_c, 11, 57, 0
13, 211800, Note_on_c, 11, 69, 84
13, 211851, Note_on_c, 11, 69, 0
13, 211860, Note_on_c, 11, 69, 84
13, 211911, Note_on_c, 11, 69, 0
13, 211920, Note_on_c, 11, 64, 84
13, 211971, Note_on_c, 11, 64, 0
13, 211980, Note_on_c, 11, 64, 84
13, 212031, Note_on_c, 11, 64, 0
13, 212040, Note_on_c, 11, 61, 84
13, 212091, Note_on_c, 11, 61, 0
13, 212100, Note_on_c, 11, 61, 84
13, 212151, Note_on_c, 11, 61, 0
13, 212160, Note_on_c, 11, 57, 84
13, 212211, Note_on_c, 11, 57, 0
13, 212220, Note_on_c, 11, 57, 84
13, 212271, Note_on_c, 11, 57, 0
13, 212280, Note_on_c, 11, 69, 84
13, 212331, Note_on_c, 11, 69, 0
13, 212340, Note_on_c, 11, 69, 84
13, 212391, Note_on_c, 11, 69, 0
13, 212400, Note_on_c, 11, 64, 84
13, 212451, Note_on_c, 11, 64, 0
13, 212460, Note_on_c, 11, 64, 84
13, 212511, Note_on_c, 11, 64, 0
13, 212520, Note_on_c, 11, 61, 84
13, 212571, Note_on_c, 11, 61, 0
13, 212580, Note_on_c, 11, 61, 84
13, 212631, Note_on_c, 11, 61, 0
13, 212640, Note_on_c, 11, 57, 84
13, 212879, Note_on_c, 11, 57, 0
13, 213600, Note_on_c, 11, 64, 76
13, 213600, Note_on_c, 11, 73, 76
13, 213600, Note_on_c, 11, 57, 76
13, 213839, Note_on_c, 11, 64, 0
13, 213839, Note_on_c, 11, 73, 0
13, 213839, Note_on_c, 11, 57, 0
13, 216240, Note_on_c, 11, 57, 52
13, 216299, Note_on_c, 11, 57, 0
13, 216300, Note_on_c, 11, 56, 52
13, 216359, Note_on_c, 11, 56, 0
13, 216360, Note_on_c, 11, 57, 52
13, 216419, Note_on_c, 11, 57, 0
13, 216420, Note_on_c, 11, 56, 52
13, 216471, Note_on_c, 11, 56, 0
13, 216480, Note_on_c, 11, 57, 76
13, 216719, Note_on_c, 11, 57, 0
13, 217440, Note_on_c, 11, 64, 76
13, 217440, Note_on_c, 11, 57, 76
13, 217440, Note_on_c, 11, 73, 76
13, 217679, Note_on_c, 11, 64, 0
13, 217679, Note_on_c, 11, 57, 0
13, 217679, Note_on_c, 11, 73, 0
13, 220200, Note_on_c, 11, 57, 52
13, 220239, Note_on_c, 11, 57, 0
13, 220240, Note_on_c, 11, 59, 52
13, 220279, Note_on_c, 11, 59, 0
13, 220280, Note_on_c, 11, 61, 52
13, 220311, Note_on_c, 11, 61, 0
13, 220320, Note_on_c, 11, 62, 52
13, 220424, Note_on_c, 11, 62, 0
13, 220440, Note_on_c, 11, 62, 52
13, 220544, Note_on_c, 11, 62, 0
13, 220560, Note_on_c, 11, 62, 52
13, 220664, Note_on_c, 11, 62, 0
13, 220680, Note_on_c, 11, 62, 52
13, 220784, Note_on_c, 11, 62, 0
13, 220800, Note_on_c, 11, 62, 52
13, 220904, Note_on_c, 11, 62, 0
13, 220920, Note_on_c, 11, 62, 52
13, 221024, Note_on_c, 11, 62, 0
13, 221040, Note_on_c, 11, 62, 52
13, 221144, Note_on_c, 11, 62, 0
13, 221160, Note_on_c, 11, 62, 52
13, 221264, Note_on_c, 11, 62, 0
13, 221280, Note_on_c, 11, 62, 52
13, 221384, Note_on_c, 11, 62, 0
13, 221400, Note_on_c, 11, 62, 52
13, 221504, Note_on_c, 11, 62, 0
13, 221520, Note_on_c, 11, 62, 52
13, 221624, Note_on_c, 11, 62, 0
13, 221640, Note_on_c, 11, 62, 52
13, 221744, Note_on_c, 11, 62, 0
13, 221760, Note_on_c, 11, 62, 52
13, 221864, Note_on_c, 11, 62, 0
13, 221880, Note_on_c, 11, 62, 52
13, 221984, Note_on_c, 11, 62, 0
13, 222000, Note_on_c, 11, 62, 52
13, 222104, Note_on_c, 11, 62, 0
13, 222120, Note_on_c, 11, 62, 52
13, 222224, Note_on_c, 11, 62, 0
13, 222240, Note_on_c, 11, 62, 52
13, 222344, Note_on_c, 11, 62, 0
13, 222360, Note_on_c, 11, 74, 52
13, 222464, Note_on_c, 11, 74, 0
13, 222480, Note_on_c, 11, 74, 52
13, 222584, Note_on_c, 11, 74, 0
13, 222600, Note_on_c, 11, 74, 52
13, 222704, Note_on_c, 11, 74, 0
13, 222720, Note_on_c, 11, 74, 52
13, 222824, Note_on_c, 11, 74, 0
13, 222840, Note_on_c, 11, 74, 52
13, 222944, Note_on_c, 11, 74, 0
13, 222960, Note_on_c, 11, 74, 52
13, 223064, Note_on_c, 11, 74, 0
13, 223080, Note_on_c, 11, 74, 52
13, 223184, Note_on_c, 11, 74, 0
13, 223200, Note_on_c, 11, 86, 52
13, 223259, Note_on_c, 11, 86, 0
13, 223260, Note_on_c, 11, 85, 52
13, 223319, Note_on_c, 11, 85, 0
13, 223320, Note_on_c, 11, 86, 52
13, 223379, Note_on_c, 11, 86, 0
13, 223380, Note_on_c, 11, 85, 52
13, 223439, Note_on_c, 11, 85, 0
13, 223440, Note_on_c, 11, 86, 52
13, 223499, Note_on_c, 11, 86, 0
13, 223500, Note_on_c, 11, 85, 52
13, 223559, Note_on_c, 11, 85, 0
13, 223560, Note_on_c, 11, 86, 52
13, 223619, Note_on_c, 11, 86, 0
13, 223620, Note_on_c, 11, 85, 52
13, 223679, Note_on_c, 11, 85, 0
13, 223680, Note_on_c, 11, 86, 52
13, 223739, Note_on_c, 11, 86, 0
13, 223740, Note_on_c, 11, 85, 52
13, 223799, Note_on_c, 11, 85, 0
13, 223800, Note_on_c, 11, 86, 52
13, 223859, Note_on_c, 11, 86, 0
13, 223860, Note_on_c, 11, 85, 52
13, 223919, Note_on_c, 11, 85, 0
13, 223920, Note_on_c, 11, 86, 52
13, 223979, Note_on_c, 11, 86, 0
13, 223980, Note_on_c, 11, 85, 52
13, 224039, Note_on_c, 11, 85, 0
13, 224040, Note_on_c, 11, 86, 52
13, 224099, Note_on_c, 11, 86, 0
13, 224100, Note_on_c, 11, 85, 52
13, 224151, Note_on_c, 11, 85, 0
13, 224160, Note_on_c, 11, 86, 52
13, 224399, Note_on_c, 11, 86, 0
13, 224400, Control_c, 11, 11, 80
13, 224550, Control_c, 11, 11, 82
13, 224700, Control_c, 11, 11, 84
13, 224850, Control_c, 11, 11, 86
13, 225000, Control_c, 11, 11, 88
13, 225120, Note_on_c, 11, 86, 76
13, 225150, Control_c, 11, 11, 90
13, 225179, Note_on_c, 11, 86, 0
13, 225180, Note_on_c, 11, 85, 76
13, 225239, Note_on_c, 11, 85, 0
13, 225240, Note_on_c, 11, 86, 76
13, 225299, Note_on_c, 11, 86, 0
13, 225300, Note_on_c, 11, 85, 76
13, 225300, Control_c, 11, 11, 92
13, 225359, Note_on_c, 11, 85, 0
13, 225360, Note_on_c, 11, 86, 76
13, 225419, Note_on_c, 11, 86, 0
13, 225420, Note_on_c, 11, 85, 76
13, 225450, Control_c, 11, 11, 94
13, 225479, Note_on_c, 11, 85, 0
13, 225480, Note_on_c, 11, 86, 76
13, 225539, Note_on_c, 11, 86, 0
13, 225540, Note_on_c, 11, 85, 76
13, 225599, Note_on_c, 11, 85, 0
13, 225600, Control_c, 11, 11, 96
13, 225600, Note_on_c, 11, 86, 76
13, 225659, Note_on_c, 11, 86, 0
13, 225660, Note_on_c, 11, 85, 76
13, 225719, Note_on_c, 11, 85, 0
13, 225720, Note_on_c, 11, 86, 76
13, 225750, Control_c, 11, 11, 98
13, 225779, Note_on_c, 11, 86, 0
13, 225780, Note_on_c, 11, 85, 76
13, 225839, Note_on_c, 11, 85, 0
13, 225840, Note_on_c, 11, 86, 76
13, 225899, Note_on_c, 11, 86, 0
13, 225900, Control_c, 11, 11, 100
13, 225900, Note_on_c, 11, 85, 76
13, 225959, Note_on_c, 11, 85, 0
13, 225960, Note_on_c, 11, 86, 76
13, 226019, Note_on_c, 11, 86, 0
13, 226020, Note_on_c, 11, 85, 76
13, 226050, Control_c, 11, 11, 102
13, 226071, Note_on_c, 11, 85, 0
13, 226080, Note_on_c, 11, 86, 76
13, 226200, Control_c, 11, 11, 104
13, 226319, Note_on_c, 11, 86, 0
13, 226350, Control_c, 11, 11, 105
13, 226500, Control_c, 11, 11, 107
13, 226650, Control_c, 11, 11, 109
13, 226800, Control_c, 11, 11, 111
13, 226950, Control_c, 11, 11, 113
13, 227040, Note_on_c, 11, 86, 76
13, 227099, Note_on_c, 11, 86, 0
13, 227100, Note_on_c, 11, 85, 76
13, 227100, Control_c, 11, 11, 115
13, 227159, Note_on_c, 11, 85, 0
13, 227160, Note_on_c, 11, 86, 76
13, 227219, Note_on_c, 11, 86, 0
13, 227220, Note_on_c, 11, 85, 76
13, 227250, Control_c, 11, 11, 117
13, 227279, Note_on_c, 11, 85, 0
13, 227280, Note_on_c, 11, 86, 76
13, 227339, Note_on_c, 11, 86, 0
13, 227340, Note_on_c, 11, 85, 76
13, 227399, Note_on_c, 11, 85, 0
13, 227400, Control_c, 11, 11, 119
13, 227400, Note_on_c, 11, 86, 76
13, 227459, Note_on_c, 11, 86, 0
13, 227460, Note_on_c, 11, 85, 76
13, 227519, Note_on_c, 11, 85, 0
13, 227520, Note_on_c, 11, 86, 76
13, 227550, Control_c, 11, 11, 121
13, 227579, Note_on_c, 11, 86, 0
13, 227580, Note_on_c, 11, 85, 76
13, 227639, Note_on_c, 11, 85, 0
13, 227640, Note_on_c, 11, 86, 76
13, 227699, Note_on_c, 11, 86, 0
13, 227700, Control_c, 11, 11, 123
13, 227700, Note_on_c, 11, 85, 76
13, 227759, Note_on_c, 11, 85, 0
13, 227760, Note_on_c, 11, 86, 76
13, 227819, Note_on_c, 11, 86, 0
13, 227820, Note_on_c, 11, 85, 76
13, 227850, Control_c, 11, 11, 125
13, 227879, Note_on_c, 11, 85, 0
13, 227880, Note_on_c, 11, 86, 76
13, 227939, Note_on_c, 11, 86, 0
13, 227940, Note_on_c, 11, 84, 76
13, 227991, Note_on_c, 11, 84, 0
13, 228000, Control_c, 11, 11, 127
13, 228000, Note_on_c, 11, 82, 76
13, 228119, Note_on_c, 11, 82, 0
13, 228120, Note_on_c, 11, 84, 76
13, 228224, Note_on_c, 11, 84, 0
13, 228240, Note_on_c, 11, 86, 76
13, 228329, Note_on_c, 11, 86, 0
13, 228360, Note_on_c, 11, 84, 76
13, 228449, Note_on_c, 11, 84, 0
13, 228480, Note_on_c, 11, 82, 76
13, 228569, Note_on_c, 11, 82, 0
13, 228600, Note_on_c, 11, 84, 76
13, 228689, Note_on_c, 11, 84, 0
13, 228720, Note_on_c, 11, 81, 76
13, 228809, Note_on_c, 11, 81, 0
13, 228840, Note_on_c, 11, 82, 76
13, 228929, Note_on_c, 11, 82, 0
13, 228960, Note_on_c, 11, 79, 76
13, 229049, Note_on_c, 11, 79, 0
13, 229080, Note_on_c, 11, 81, 76
13, 229169, Note_on_c, 11, 81, 0
13, 229200, Note_on_c, 11, 77, 76
13, 229289, Note_on_c, 11, 77, 0
13, 229320, Note_on_c, 11, 79, 76
13, 229409, Note_on_c, 11, 79, 0
13, 229440, Note_on_c, 11, 75, 76
13, 229529, Note_on_c, 11, 75, 0
13, 229560, Note_on_c, 11, 77, 76
13, 229649, Note_on_c, 11, 77, 0
13, 229680, Note_on_c, 11, 74, 76
13, 229769, Note_on_c, 11, 74, 0
13, 229800, Note_on_c, 11, 75, 76
13, 229889, Note_on_c, 11, 75, 0
13, 229920, Note_on_c, 11, 72, 84
13, 230624, Note_on_c, 11, 72, 0
13, 230640, Note_on_c, 11, 72, 76
13, 230699, Note_on_c, 11, 72, 0
13, 230700, Note_on_c, 11, 71, 76
13, 230759, Note_on_c, 11, 71, 0
13, 230760, Note_on_c, 11, 72, 76
13, 230819, Note_on_c, 11, 72, 0
13, 230820, Note_on_c, 11, 74, 76
13, 230871, Note_on_c, 11, 74, 0
13, 230880, Note_on_c, 11, 75, 76
13, 231059, Note_on_c, 11, 75, 0
13, 231120, Note_on_c, 11, 76, 76
13, 231299, Note_on_c, 11, 76, 0
13, 231360, Note_on_c, 11, 77, 76
13, 231539, Note_on_c, 11, 77, 0
13, 231600, Note_on_c, 11, 79, 76
13, 231779, Note_on_c, 11, 79, 0
13, 231840, Note_on_c, 11, 81, 84
13, 231959, Note_on_c, 11, 81, 0
13, 231960, Note_on_c, 11, 82, 76
13, 232064, Note_on_c, 11, 82, 0
13, 232080, Note_on_c, 11, 84, 76
13, 232169, Note_on_c, 11, 84, 0
13, 232200, Note_on_c, 11, 82, 76
13, 232289, Note_on_c, 11, 82, 0
13, 232320, Note_on_c, 11, 81, 76
13, 232409, Note_on_c, 11, 81, 0
13, 232440, Note_on_c, 11, 82, 76
13, 232529, Note_on_c, 11, 82, 0
13, 232560, Note_on_c, 11, 79, 76
13, 232649, Note_on_c, 11, 79, 0
13, 232680, Note_on_c, 11, 81, 76
13, 232769, Note_on_c, 11, 81, 0
13, 232800, Note_on_c, 11, 77, 76
13, 232889, Note_on_c, 11, 77, 0
13, 232920, Note_on_c, 11, 79, 76
13, 233009, Note_on_c, 11, 79, 0
13, 233040, Note_on_c, 11, 75, 76
13, 233129, Note_on_c, 11, 75, 0
13, 233160, Note_on_c, 11, 77, 76
13, 233249, Note_on_c, 11, 77, 0
13, 233280, Note_on_c, 11, 74, 76
13, 233369, Note_on_c, 11, 74, 0
13, 233400, Note_on_c, 11, 75, 76
13, 233489, Note_on_c, 11, 75, 0
13, 233520, Note_on_c, 11, 72, 76
13, 233609, Note_on_c, 11, 72, 0
13, 233640, Note_on_c, 11, 74, 76
13, 233729, Note_on_c, 11, 74, 0
13, 233760, Note_on_c, 11, 70, 84
13, 234464, Note_on_c, 11, 70, 0
13, 234480, Note_on_c, 11, 70, 76
13, 234539, Note_on_c, 11, 70, 0
13, 234540, Note_on_c, 11, 69, 76
13, 234599, Note_on_c, 11, 69, 0
13, 234600, Note_on_c, 11, 70, 76
13, 234659, Note_on_c, 11, 70, 0
13, 234660, Note_on_c, 11, 72, 76
13, 234711, Note_on_c, 11, 72, 0
13, 234720, Note_on_c, 11, 74, 76
13, 234899, Note_on_c, 11, 74, 0
13, 234960, Note_on_c, 11, 74, 76
13, 235139, Note_on_c, 11, 74, 0
13, 235200, Note_on_c, 11, 76, 76
13, 235379, Note_on_c, 11, 76, 0
13, 235440, Note_on_c, 11, 77, 76
13, 235619, Note_on_c, 11, 77, 0
13, 235680, Note_on_c, 11, 79, 84
13, 235799, Note_on_c, 11, 79, 0
13, 235800, Note_on_c, 11, 81, 76
13, 235904, Note_on_c, 11, 81, 0
13, 235920, Note_on_c, 11, 77, 76
13, 236009, Note_on_c, 11, 77, 0
13, 236040, Note_on_c, 11, 79, 76
13, 236129, Note_on_c, 11, 79, 0
13, 236160, Note_on_c, 11, 76, 76
13, 236249, Note_on_c, 11, 76, 0
13, 236280, Note_on_c, 11, 77, 76
13, 236369, Note_on_c, 11, 77, 0
13, 236400, Note_on_c, 11, 74, 76
13, 236489, Note_on_c, 11, 74, 0
13, 236520, Note_on_c, 11, 76, 76
13, 236609, Note_on_c, 11, 76, 0
13, 236640, Note_on_c, 11, 73, 84
13, 237584, Note_on_c, 11, 73, 0
13, 237600, Note_on_c, 11, 77, 84
13, 237719, Note_on_c, 11, 77, 0
13, 237720, Note_on_c, 11, 79, 76
13, 237824, Note_on_c, 11, 79, 0
13, 237840, Note_on_c, 11, 76, 76
13, 237929, Note_on_c, 11, 76, 0
13, 237960, Note_on_c, 11, 77, 76
13, 238049, Note_on_c, 11, 77, 0
13, 238080, Note_on_c, 11, 74, 76
13, 238169, Note_on_c, 11, 74, 0
13, 238200, Note_on_c, 11, 76, 76
13, 238289, Note_on_c, 11, 76, 0
13, 238320, Note_on_c, 11, 72, 76
13, 238409, Note_on_c, 11, 72, 0
13, 238440, Note_on_c, 11, 74, 76
13, 238529, Note_on_c, 11, 74, 0
13, 238560, Note_on_c, 11, 71, 84
13, 239504, Note_on_c, 11, 71, 0
13, 239520, Note_on_c, 11, 76, 84
13, 239520, Note_on_c, 11, 64, 84
13, 240224, Note_on_c, 11, 76, 0
13, 240224, Note_on_c, 11, 64, 0
13, 240240, Note_on_c, 11, 76, 84
13, 240299, Note_on_c, 11, 76, 0
13, 240300, Note_on_c, 11, 75, 84
13, 240359, Note_on_c, 11, 75, 0
13, 240360, Note_on_c, 11, 76, 84
13, 240419, Note_on_c, 11, 76, 0
13, 240420, Note_on_c, 11, 78, 84
13, 240471, Note_on_c, 11, 78, 0
13, 240480, Note_on_c, 11, 79, 84
13, 240659, Note_on_c, 11, 79, 0
13, 240720, Note_on_c, 11, 76, 84
13, 240779, Note_on_c, 11, 76, 0
13, 240780, Note_on_c, 11, 75, 84
13, 240839, Note_on_c, 11, 75, 0
13, 240840, Note_on_c, 11, 76, 84
13, 240899, Note_on_c, 11, 76, 0
13, 240900, Note_on_c, 11, 78, 84
13, 240951, Note_on_c, 11, 78, 0
13, 240960, Note_on_c, 11, 79, 84
13, 241139, Note_on_c, 11, 79, 0
13, 241200, Note_on_c, 11, 76, 84
13, 241259, Note_on_c, 11, 76, 0
13, 241260, Note_on_c, 11, 75, 84
13, 241319, Note_on_c, 11, 75, 0
13, 241320, Note_on_c, 11, 76, 84
13, 241379, Note_on_c, 11, 76, 0
13, 241380, Note_on_c, 11, 78, 84
13, 241431, Note_on_c, 11, 78, 0
13, 241440, Note_on_c, 11, 79, 92
13, 242144, Note_on_c, 11, 79, 0
13, 242160, Note_on_c, 11, 76, 84
13, 242219, Note_on_c, 11, 76, 0
13, 242220, Note_on_c, 11, 75, 84
13, 242279, Note_on_c, 11, 75, 0
13, 242280, Note_on_c, 11, 76, 84
13, 242339, Note_on_c, 11, 76, 0
13, 242340, Note_on_c, 11, 78, 84
13, 242391, Note_on_c, 11, 78, 0
13, 242400, Note_on_c, 11, 79, 84
13, 242579, Note_on_c, 11, 79, 0
13, 242640, Note_on_c, 11, 76, 84
13, 242699, Note_on_c, 11, 76, 0
13, 242700, Note_on_c, 11, 75, 84
13, 242759, Note_on_c, 11, 75, 0
13, 242760, Note_on_c, 11, 76, 84
13, 242819, Note_on_c, 11, 76, 0
13, 242820, Note_on_c, 11, 78, 84
13, 242871, Note_on_c, 11, 78, 0
13, 242880, Note_on_c, 11, 79, 84
13, 243059, Note_on_c, 11, 79, 0
13, 243120, Note_on_c, 11, 76, 84
13, 243179, Note_on_c, 11, 76, 0
13, 243180, Note_on_c, 11, 75, 84
13, 243239, Note_on_c, 11, 75, 0
13, 243240, Note_on_c, 11, 76, 84
13, 243299, Note_on_c, 11, 76, 0
13, 243300, Note_on_c, 11, 78, 84
13, 243351, Note_on_c, 11, 78, 0
13, 243360, Note_on_c, 11, 79, 92
13, 244064, Note_on_c, 11, 79, 0
13, 244080, Note_on_c, 11, 76, 84
13, 244139, Note_on_c, 11, 76, 0
13, 244140, Note_on_c, 11, 75, 84
13, 244199, Note_on_c, 11, 75, 0
13, 244200, Note_on_c, 11, 76, 84
13, 244259, Note_on_c, 11, 76, 0
13, 244260, Note_on_c, 11, 78, 84
13, 244311, Note_on_c, 11, 78, 0
13, 244320, Note_on_c, 11, 79, 92
13, 245024, Note_on_c, 11, 79, 0
13, 245040, Note_on_c, 11, 74, 84
13, 245099, Note_on_c, 11, 74, 0
13, 245100, Note_on_c, 11, 73, 84
13, 245159, Note_on_c, 11, 73, 0
13, 245160, Note_on_c, 11, 74, 84
13, 245219, Note_on_c, 11, 74, 0
13, 245220, Note_on_c, 11, 76, 84
13, 245271, Note_on_c, 11, 76, 0
13, 245280, Note_on_c, 11, 77, 92
13, 245984, Note_on_c, 11, 77, 0
13, 246000, Note_on_c, 11, 74, 84
13, 246059, Note_on_c, 11, 74, 0
13, 246060, Note_on_c, 11, 73, 84
13, 246119, Note_on_c, 11, 73, 0
13, 246120, Note_on_c, 11, 74, 84
13, 246179, Note_on_c, 11, 74, 0
13, 246180, Note_on_c, 11, 76, 84
13, 246231, Note_on_c, 11, 76, 0
13, 246240, Note_on_c, 11, 77, 92
13, 246944, Note_on_c, 11, 77, 0
13, 246960, Note_on_c, 11, 74, 84
13, 247019, Note_on_c, 11, 74, 0
13, 247020, Note_on_c, 11, 73, 84
13, 247079, Note_on_c, 11, 73, 0
13, 247080, Note_on_c, 11, 74, 84
13, 247139, Note_on_c, 11, 74, 0
13, 247140, Note_on_c, 11, 76, 84
13, 247191, Note_on_c, 11, 76, 0
13, 247200, Note_on_c, 11, 77, 84
13, 247251, Note_on_c, 11, 77, 0
13, 247260, Note_on_c, 11, 89, 84
13, 247311, Note_on_c, 11, 89, 0
13, 247320, Note_on_c, 11, 89, 84
13, 247371, Note_on_c, 11, 89, 0
13, 247380, Note_on_c, 11, 89, 84
13, 247431, Note_on_c, 11, 89, 0
13, 247440, Note_on_c, 11, 89, 84
13, 247491, Note_on_c, 11, 89, 0
13, 247500, Note_on_c, 11, 89, 84
13, 247551, Note_on_c, 11, 89, 0
13, 247560, Note_on_c, 11, 89, 84
13, 247611, Note_on_c, 11, 89, 0
13, 247620, Note_on_c, 11, 89, 84
13, 247671, Note_on_c, 11, 89, 0
13, 247680, Note_on_c, 11, 89, 84
13, 247731, Note_on_c, 11, 89, 0
13, 247740, Note_on_c, 11, 89, 84
13, 247791, Note_on_c, 11, 89, 0
13, 247800, Note_on_c, 11, 89, 84
13, 247851, Note_on_c, 11, 89, 0
13, 247860, Note_on_c, 11, 89, 84
13, 247911, Note_on_c, 11, 89, 0
13, 247920, Note_on_c, 11, 89, 84
13, 247971, Note_on_c, 11, 89, 0
13, 247980, Note_on_c, 11, 89, 84
13, 248031, Note_on_c, 11, 89, 0
13, 248040, Note_on_c, 11, 89, 84
13, 248091, Note_on_c, 11, 89, 0
13, 248100, Note_on_c, 11, 89, 84
13, 248151, Note_on_c, 11, 89, 0
13, 248160, Note_on_c, 11, 88, 84
13, 248211, Note_on_c, 11, 88, 0
13, 248220, Note_on_c, 11, 88, 84
13, 248271, Note_on_c, 11, 88, 0
13, 248280, Note_on_c, 11, 88, 84
13, 248331, Note_on_c, 11, 88, 0
13, 248340, Note_on_c, 11, 88, 84
13, 248391, Note_on_c, 11, 88, 0
13, 248400, Note_on_c, 11, 88, 84
13, 248451, Note_on_c, 11, 88, 0
13, 248460, Note_on_c, 11, 88, 84
13, 248511, Note_on_c, 11, 88, 0
13, 248520, Note_on_c, 11, 88, 84
13, 248571, Note_on_c, 11, 88, 0
13, 248580, Note_on_c, 11, 88, 84
13, 248631, Note_on_c, 11, 88, 0
13, 248640, Note_on_c, 11, 88, 84
13, 248691, Note_on_c, 11, 88, 0
13, 248700, Note_on_c, 11, 88, 84
13, 248751, Note_on_c, 11, 88, 0
13, 248760, Note_on_c, 11, 88, 84
13, 248811, Note_on_c, 11, 88, 0
13, 248820, Note_on_c, 11, 88, 84
13, 248871, Note_on_c, 11, 88, 0
13, 248880, Note_on_c, 11, 88, 84
13, 248931, Note_on_c, 11, 88, 0
13, 248940, Note_on_c, 11, 88, 84
13, 248991, Note_on_c, 11, 88, 0
13, 249000, Note_on_c, 11, 88, 84
13, 249051, Note_on_c, 11, 88, 0
13, 249060, Note_on_c, 11, 88, 84
13, 249111, Note_on_c, 11, 88, 0
13, 249120, Note_on_c, 11, 86, 84
13, 249171, Note_on_c, 11, 86, 0
13, 249180, Note_on_c, 11, 86, 84
13, 249231, Note_on_c, 11, 86, 0
13, 249240, Note_on_c, 11, 86, 84
13, 249291, Note_on_c, 11, 86, 0
13, 249300, Note_on_c, 11, 86, 84
13, 249351, Note_on_c, 11, 86, 0
13, 249360, Note_on_c, 11, 86, 84
13, 249411, Note_on_c, 11, 86, 0
13, 249420, Note_on_c, 11, 86, 84
13, 249471, Note_on_c, 11, 86, 0
13, 249480, Note_on_c, 11, 86, 84
13, 249531, Note_on_c, 11, 86, 0
13, 249540, Note_on_c, 11, 86, 84
13, 249591, Note_on_c, 11, 86, 0
13, 249600, Note_on_c, 11, 86, 84
13, 249651, Note_on_c, 11, 86, 0
13, 249660, Note_on_c, 11, 86, 84
13, 249711, Note_on_c, 11, 86, 0
13, 249720, Note_on_c, 11, 86, 84
13, 249771, Note_on_c, 11, 86, 0
13, 249780, Note_on_c, 11, 86, 84
13, 249831, Note_on_c, 11, 86, 0
13, 249840, Note_on_c, 11, 86, 84
13, 249891, Note_on_c, 11, 86, 0
13, 249900, Note_on_c, 11, 86, 84
13, 249951, Note_on_c, 11, 86, 0
13, 249960, Note_on_c, 11, 86, 84
13, 250011, Note_on_c, 11, 86, 0
13, 250020, Note_on_c, 11, 86, 84
13, 250071, Note_on_c, 11, 86, 0
13, 250080, Note_on_c, 11, 84, 84
13, 250131, Note_on_c, 11, 84, 0
13, 250140, Note_on_c, 11, 84, 84
13, 250191, Note_on_c, 11, 84, 0
13, 250200, Note_on_c, 11, 84, 84
13, 250251, Note_on_c, 11, 84, 0
13, 250260, Note_on_c, 11, 84, 84
13, 250311, Note_on_c, 11, 84, 0
13, 250320, Note_on_c, 11, 84, 84
13, 250371, Note_on_c, 11, 84, 0
13, 250380, Note_on_c, 11, 84, 84
13, 250431, Note_on_c, 11, 84, 0
13, 250440, Note_on_c, 11, 84, 84
13, 250491, Note_on_c, 11, 84, 0
13, 250500, Note_on_c, 11, 84, 84
13, 250551, Note_on_c, 11, 84, 0
13, 250560, Note_on_c, 11, 84, 84
13, 250611, Note_on_c, 11, 84, 0
13, 250620, Note_on_c, 11, 84, 84
13, 250671, Note_on_c, 11, 84, 0
13, 250680, Note_on_c, 11, 84, 84
13, 250731, Note_on_c, 11, 84, 0
13, 250740, Note_on_c, 11, 84, 84
13, 250791, Note_on_c, 11, 84, 0
13, 250800, Note_on_c, 11, 84, 84
13, 250851, Note_on_c, 11, 84, 0
13, 250860, Note_on_c, 11, 84, 84
13, 250911, Note_on_c, 11, 84, 0
13, 250920, Note_on_c, 11, 84, 84
13, 250971, Note_on_c, 11, 84, 0
13, 250980, Note_on_c, 11, 84, 84
13, 251031, Note_on_c, 11, 84, 0
13, 251040, Note_on_c, 11, 84, 92
13, 251040, Note_on_c, 11, 74, 92
13, 251744, Note_on_c, 11, 84, 0
13, 251744, Note_on_c, 11, 74, 0
13, 251760, Note_on_c, 11, 74, 84
13, 251819, Note_on_c, 11, 74, 0
13, 251820, Note_on_c, 11, 73, 84
13, 251879, Note_on_c, 11, 73, 0
13, 251880, Note_on_c, 11, 74, 84
13, 251939, Note_on_c, 11, 74, 0
13, 251940, Note_on_c, 11, 76, 84
13, 251991, Note_on_c, 11, 76, 0
13, 252000, Note_on_c, 11, 78, 84
13, 252179, Note_on_c, 11, 78, 0
13, 252240, Note_on_c, 11, 78, 84
13, 252299, Note_on_c, 11, 78, 0
13, 252300, Note_on_c, 11, 76, 84
13, 252359, Note_on_c, 11, 76, 0
13, 252360, Note_on_c, 11, 78, 84
13, 252419, Note_on_c, 11, 78, 0
13, 252420, Note_on_c, 11, 79, 84
13, 252471, Note_on_c, 11, 79, 0
13, 252480, Note_on_c, 11, 81, 84
13, 252659, Note_on_c, 11, 81, 0
13, 252720, Note_on_c, 11, 81, 84
13, 252779, Note_on_c, 11, 81, 0
13, 252780, Note_on_c, 11, 80, 84
13, 252839, Note_on_c, 11, 80, 0
13, 252840, Note_on_c, 11, 81, 84
13, 252899, Note_on_c, 11, 81, 0
13, 252900, Note_on_c, 11, 83, 84
13, 252951, Note_on_c, 11, 83, 0
13, 252960, Note_on_c, 11, 84, 92
13, 253664, Note_on_c, 11, 84, 0
13, 253680, Note_on_c, 11, 84, 84
13, 253739, Note_on_c, 11, 84, 0
13, 253740, Note_on_c, 11, 86, 84
13, 253799, Note_on_c, 11, 86, 0
13, 253800, Note_on_c, 11, 84, 84
13, 253859, Note_on_c, 11, 84, 0
13, 253860, Note_on_c, 11, 83, 84
13, 253911, Note_on_c, 11, 83, 0
13, 253920, Note_on_c, 11, 81, 84
13, 254099, Note_on_c, 11, 81, 0
13, 254160, Note_on_c, 11, 81, 84
13, 254219, Note_on_c, 11, 81, 0
13, 254220, Note_on_c, 11, 83, 84
13, 254279, Note_on_c, 11, 83, 0
13, 254280, Note_on_c, 11, 81, 84
13, 254339, Note_on_c, 11, 81, 0
13, 254340, Note_on_c, 11, 79, 84
13, 254391, Note_on_c, 11, 79, 0
13, 254400, Note_on_c, 11, 78, 84
13, 254579, Note_on_c, 11, 78, 0
13, 254640, Note_on_c, 11, 78, 84
13, 254699, Note_on_c, 11, 78, 0
13, 254700, Note_on_c, 11, 79, 84
13, 254759, Note_on_c, 11, 79, 0
13, 254760, Note_on_c, 11, 78, 84
13, 254819, Note_on_c, 11, 78, 0
13, 254820, Note_on_c, 11, 76, 84
13, 254871, Note_on_c, 11, 76, 0
13, 254880, Note_on_c, 11, 74, 92
13, 255584, Note_on_c, 11, 74, 0
13, 255600, Note_on_c, 11, 74, 84
13, 255659, Note_on_c, 11, 74, 0
13, 255660, Note_on_c, 11, 73, 84
13, 255719, Note_on_c, 11, 73, 0
13, 255720, Note_on_c, 11, 74, 84
13, 255779, Note_on_c, 11, 74, 0
13, 255780, Note_on_c, 11, 76, 84
13, 255831, Note_on_c, 11, 76, 0
13, 255840, Note_on_c, 11, 78, 84
13, 256019, Note_on_c, 11, 78, 0
13, 256080, Note_on_c, 11, 78, 84
13, 256139, Note_on_c, 11, 78, 0
13, 256140, Note_on_c, 11, 76, 84
13, 256199, Note_on_c, 11, 76, 0
13, 256200, Note_on_c, 11, 78, 84
13, 256259, Note_on_c, 11, 78, 0
13, 256260, Note_on_c, 11, 79, 84
13, 256311, Note_on_c, 11, 79, 0
13, 256320, Note_on_c, 11, 81, 84
13, 256499, Note_on_c, 11, 81, 0
13, 256560, Note_on_c, 11, 81, 84
13, 256619, Note_on_c, 11, 81, 0
13, 256620, Note_on_c, 11, 80, 84
13, 256679, Note_on_c, 11, 80, 0
13, 256680, Note_on_c, 11, 81, 84
13, 256739, Note_on_c, 11, 81, 0
13, 256740, Note_on_c, 11, 83, 84
13, 256791, Note_on_c, 11, 83, 0
13, 256800, Note_on_c, 11, 84, 92
13, 257504, Note_on_c, 11, 84, 0
13, 257520, Note_on_c, 11, 84, 84
13, 257579, Note_on_c, 11, 84, 0
13, 257580, Note_on_c, 11, 86, 84
13, 257639, Note_on_c, 11, 86, 0
13, 257640, Note_on_c, 11, 84, 84
13, 257699, Note_on_c, 11, 84, 0
13, 257700, Note_on_c, 11, 83, 84
13, 257751, Note_on_c, 11, 83, 0
13, 257760, Note_on_c, 11, 81, 84
13, 257939, Note_on_c, 11, 81, 0
13, 258000, Note_on_c, 11, 81, 84
13, 258059, Note_on_c, 11, 81, 0
13, 258060, Note_on_c, 11, 83, 84
13, 258119, Note_on_c, 11, 83, 0
13, 258120, Note_on_c, 11, 81, 84
13, 258179, Note_on_c, 11, 81, 0
13, 258180, Note_on_c, 11, 79, 84
13, 258231, Note_on_c, 11, 79, 0
13, 258240, Note_on_c, 11, 78, 84
13, 258419, Note_on_c, 11, 78, 0
13, 258480, Note_on_c, 11, 78, 84
13, 258539, Note_on_c, 11, 78, 0
13, 258540, Note_on_c, 11, 79, 84
13, 258599, Note_on_c, 11, 79, 0
13, 258600, Note_on_c, 11, 78, 84
13, 258659, Note_on_c, 11, 78, 0
13, 258660, Note_on_c, 11, 76, 84
13, 258711, Note_on_c, 11, 76, 0
13, 258720, Note_on_c, 11, 74, 84
13, 258899, Note_on_c, 11, 74, 0
13, 258960, Note_on_c, 11, 81, 52
13, 259019, Note_on_c, 11, 81, 0
13, 259020, Note_on_c, 11, 80, 52
13, 259079, Note_on_c, 11, 80, 0
13, 259080, Note_on_c, 11, 81, 52
13, 259139, Note_on_c, 11, 81, 0
13, 259140, Note_on_c, 11, 83, 52
13, 259191, Note_on_c, 11, 83, 0
13, 259200, Note_on_c, 11, 84, 52
13, 259904, Note_on_c, 11, 84, 0
13, 259920, Note_on_c, 11, 81, 52
13, 259979, Note_on_c, 11, 81, 0
13, 259980, Note_on_c, 11, 80, 52
13, 260039, Note_on_c, 11, 80, 0
13, 260040, Note_on_c, 11, 81, 52
13, 260099, Note_on_c, 11, 81, 0
13, 260100, Note_on_c, 11, 83, 52
13, 260151, Note_on_c, 11, 83, 0
13, 260160, Note_on_c, 11, 84, 52
13, 260864, Note_on_c, 11, 84, 0
13, 260880, Note_on_c, 11, 72, 44
13, 260939, Note_on_c, 11, 72, 0
13, 260940, Note_on_c, 11, 71, 44
13, 260999, Note_on_c, 11, 71, 0
13, 261000, Note_on_c, 11, 72, 44
13, 261059, Note_on_c, 11, 72, 0
13, 261060, Note_on_c, 11, 74, 44
13, 261111, Note_on_c, 11, 74, 0
13, 261120, Note_on_c, 11, 76, 44
13, 261299, Note_on_c, 11, 76, 0
13, 261360, Note_on_c, 11, 69, 44
13, 261419, Note_on_c, 11, 69, 0
13, 261420, Note_on_c, 11, 68, 44
13, 261479, Note_on_c, 11, 68, 0
13, 261480, Note_on_c, 11, 69, 44
13, 261539, Note_on_c, 11, 69, 0
13, 261540, Note_on_c, 11, 71, 44
13, 261591, Note_on_c, 11, 71, 0
13, 261600, Note_on_c, 11, 72, 44
13, 261779, Note_on_c, 11, 72, 0
13, 262560, Note_on_c, 11, 59, 52
13, 263024, Note_on_c, 11, 59, 0
13, 263040, Note_on_c, 11, 62, 52
13, 263451, Note_on_c, 11, 62, 0
13, 263460, Note_on_c, 11, 67, 52
13, 263511, Note_on_c, 11, 67, 0
13, 263520, Note_on_c, 11, 71, 52
13, 264224, Note_on_c, 11, 71, 0
13, 264240, Note_on_c, 11, 71, 52
13, 264419, Note_on_c, 11, 71, 0
13, 264420, Note_on_c, 11, 72, 52
13, 264471, Note_on_c, 11, 72, 0
13, 264480, Note_on_c, 11, 74, 52
13, 264659, Note_on_c, 11, 74, 0
13, 264720, Note_on_c, 11, 74, 52
13, 264899, Note_on_c, 11, 74, 0
13, 264960, Note_on_c, 11, 74, 52
13, 265139, Note_on_c, 11, 74, 0
13, 265200, Note_on_c, 11, 76, 52
13, 265379, Note_on_c, 11, 76, 0
13, 265440, Note_on_c, 11, 74, 52
13, 265919, Note_on_c, 11, 74, 0
13, 265920, Note_on_c, 11, 71, 52
13, 266039, Note_on_c, 11, 71, 0
13, 267360, Note_on_c, 11, 71, 52
13, 267419, Note_on_c, 11, 71, 0
13, 267440, Note_on_c, 11, 74, 52
13, 267499, Note_on_c, 11, 74, 0
13, 267520, Note_on_c, 11, 72, 52
13, 267579, Note_on_c, 11, 72, 0
13, 267600, Note_on_c, 11, 71, 52
13, 267659, Note_on_c, 11, 71, 0
13, 267680, Note_on_c, 11, 74, 52
13, 267739, Note_on_c, 11, 74, 0
13, 267760, Note_on_c, 11, 72, 52
13, 267819, Note_on_c, 11, 72, 0
13, 267840, Note_on_c, 11, 71, 52
13, 267899, Note_on_c, 11, 71, 0
13, 267920, Note_on_c, 11, 74, 52
13, 267979, Note_on_c, 11, 74, 0
13, 268000, Note_on_c, 11, 71, 52
13, 268059, Note_on_c, 11, 71, 0
13, 268080, Note_on_c, 11, 72, 52
13, 268139, Note_on_c, 11, 72, 0
13, 268160, Note_on_c, 11, 75, 52
13, 268219, Note_on_c, 11, 75, 0
13, 268240, Note_on_c, 11, 72, 52
13, 268299, Note_on_c, 11, 72, 0
13, 268320, Note_on_c, 11, 71, 52
13, 268559, Note_on_c, 11, 71, 0
13, 269280, Note_on_c, 11, 77, 52
13, 269339, Note_on_c, 11, 77, 0
13, 269360, Note_on_c, 11, 74, 52
13, 269419, Note_on_c, 11, 74, 0
13, 269440, Note_on_c, 11, 76, 52
13, 269499, Note_on_c, 11, 76, 0
13, 269520, Note_on_c, 11, 77, 52
13, 269579, Note_on_c, 11, 77, 0
13, 269600, Note_on_c, 11, 74, 52
13, 269659, Note_on_c, 11, 74, 0
13, 269680, Note_on_c, 11, 76, 52
13, 269739, Note_on_c, 11, 76, 0
13, 269760, Note_on_c, 11, 77, 52
13, 269819, Note_on_c, 11, 77, 0
13, 269840, Note_on_c, 11, 74, 52
13, 269899, Note_on_c, 11, 74, 0
13, 269920, Note_on_c, 11, 76, 52
13, 269979, Note_on_c, 11, 76, 0
13, 270000, Note_on_c, 11, 77, 52
13, 270059, Note_on_c, 11, 77, 0
13, 270080, Note_on_c, 11, 76, 52
13, 270139, Note_on_c, 11, 76, 0
13, 270160, Note_on_c, 11, 74, 52
13, 270219, Note_on_c, 11, 74, 0
13, 270240, Note_on_c, 11, 73, 52
13, 270479, Note_on_c, 11, 73, 0
13, 271200, Note_on_c, 11, 73, 52
13, 271259, Note_on_c, 11, 73, 0
13, 271280, Note_on_c, 11, 76, 52
13, 271339, Note_on_c, 11, 76, 0
13, 271360, Note_on_c, 11, 74, 52
13, 271419, Note_on_c, 11, 74, 0
13, 271440, Note_on_c, 11, 73, 52
13, 271499, Note_on_c, 11, 73, 0
13, 271520, Note_on_c, 11, 76, 52
13, 271579, Note_on_c, 11, 76, 0
13, 271600, Note_on_c, 11, 74, 52
13, 271659, Note_on_c, 11, 74, 0
13, 271680, Note_on_c, 11, 73, 52
13, 271739, Note_on_c, 11, 73, 0
13, 271760, Note_on_c, 11, 76, 52
13, 271819, Note_on_c, 11, 76, 0
13, 271840, Note_on_c, 11, 73, 52
13, 271899, Note_on_c, 11, 73, 0
13, 271920, Note_on_c, 11, 74, 52
13, 271979, Note_on_c, 11, 74, 0
13, 272000, Note_on_c, 11, 77, 52
13, 272059, Note_on_c, 11, 77, 0
13, 272080, Note_on_c, 11, 74, 52
13, 272139, Note_on_c, 11, 74, 0
13, 272160, Note_on_c, 11, 73, 52
13, 272399, Note_on_c, 11, 73, 0
13, 273120, Note_on_c, 11, 79, 52
13, 273179, Note_on_c, 11, 79, 0
13, 273200, Note_on_c, 11, 76, 52
13, 273259, Note_on_c, 11, 76, 0
13, 273280, Note_on_c, 11, 78, 52
13, 273339, Note_on_c, 11, 78, 0
13, 273360, Note_on_c, 11, 79, 52
13, 273419, Note_on_c, 11, 79, 0
13, 273440, Note_on_c, 11, 76, 52
13, 273499, Note_on_c, 11, 76, 0
13, 273520, Note_on_c, 11, 78, 52
13, 273579, Note_on_c, 11, 78, 0
13, 273600, Note_on_c, 11, 79, 52
13, 273659, Note_on_c, 11, 79, 0
13, 273680, Note_on_c, 11, 76, 52
13, 273739, Note_on_c, 11, 76, 0
13, 273760, Note_on_c, 11, 78, 52
13, 273819, Note_on_c, 11, 78, 0
13, 273840, Note_on_c, 11, 79, 52
13, 273899, Note_on_c, 11, 79, 0
13, 273920, Note_on_c, 11, 78, 52
13, 273979, Note_on_c, 11, 78, 0
13, 274000, Note_on_c, 11, 76, 52
13, 274059, Note_on_c, 11, 76, 0
13, 274080, Note_on_c, 11, 75, 52
13, 274319, Note_on_c, 11, 75, 0
13, 274800, Control_c, 11, 11, 80
13, 275040, Note_on_c, 11, 75, 76
13, 275099, Note_on_c, 11, 75, 0
13, 275120, Note_on_c, 11, 78, 76
13, 275160, Control_c, 11, 11, 80
13, 275179, Note_on_c, 11, 78, 0
13, 275200, Note_on_c, 11, 76, 76
13, 275230, Control_c, 11, 11, 84
13, 275259, Note_on_c, 11, 76, 0
13, 275280, Note_on_c, 11, 75, 76
13, 275300, Control_c, 11, 11, 88
13, 275339, Note_on_c, 11, 75, 0
13, 275360, Note_on_c, 11, 78, 76
13, 275370, Control_c, 11, 11, 92
13, 275419, Note_on_c, 11, 78, 0
13, 275440, Note_on_c, 11, 76, 76
13, 275440, Control_c, 11, 11, 96
13, 275499, Note_on_c, 11, 76, 0
13, 275510, Control_c, 11, 11, 100
13, 275520, Note_on_c, 11, 75, 76
13, 275579, Note_on_c, 11, 75, 0
13, 275580, Control_c, 11, 11, 104
13, 275600, Note_on_c, 11, 78, 76
13, 275650, Control_c, 11, 11, 107
13, 275659, Note_on_c, 11, 78, 0
13, 275680, Note_on_c, 11, 78, 76
13, 275720, Control_c, 11, 11, 111
13, 275739, Note_on_c, 11, 78, 0
13, 275760, Note_on_c, 11, 77, 76
13, 275790, Control_c, 11, 11, 115
13, 275819, Note_on_c, 11, 77, 0
13, 275840, Note_on_c, 11, 80, 76
13, 275860, Control_c, 11, 11, 119
13, 275899, Note_on_c, 11, 80, 0
13, 275920, Note_on_c, 11, 80, 76
13, 275930, Control_c, 11, 11, 123
13, 275979, Note_on_c, 11, 80, 0
13, 276000, Control_c, 11, 11, 127
13, 276000, Note_on_c, 11, 78, 76
13, 276051, Note_on_c, 11, 78, 0
13, 276060, Note_on_c, 11, 81, 76
13, 276111, Note_on_c, 11, 81, 0
13, 276120, Note_on_c, 11, 81, 76
13, 276171, Note_on_c, 11, 81, 0
13, 276180, Note_on_c, 11, 81, 76
13, 276231, Note_on_c, 11, 81, 0
13, 276240, Note_on_c, 11, 81, 76
13, 276291, Note_on_c, 11, 81, 0
13, 276300, Note_on_c, 11, 81, 76
13, 276351, Note_on_c, 11, 81, 0
13, 276360, Note_on_c, 11, 81, 76
13, 276411, Note_on_c, 11, 81, 0
13, 276420, Note_on_c, 11, 81, 76
13, 276471, Note_on_c, 11, 81, 0
13, 276480, Note_on_c, 11, 81, 76
13, 276531, Note_on_c, 11, 81, 0
13, 276540, Note_on_c, 11, 81, 76
13, 276591, Note_on_c, 11, 81, 0
13, 276600, Note_on_c, 11, 81, 76
13, 276651, Note_on_c, 11, 81, 0
13, 276660, Note_on_c, 11, 81, 76
13, 276711, Note_on_c, 11, 81, 0
13, 276720, Note_on_c, 11, 81, 76
13, 276771, Note_on_c, 11, 81, 0
13, 276780, Note_on_c, 11, 81, 76
13, 276831, Note_on_c, 11, 81, 0
13, 276840, Note_on_c, 11, 81, 76
13, 276891, Note_on_c, 11, 81, 0
13, 276900, Note_on_c, 11, 81, 76
13, 276951, Note_on_c, 11, 81, 0
13, 276960, Note_on_c, 11, 81, 84
13, 277011, Note_on_c, 11, 81, 0
13, 277020, Note_on_c, 11, 90, 84
13, 277071, Note_on_c, 11, 90, 0
13, 277080, Note_on_c, 11, 90, 84
13, 277131, Note_on_c, 11, 90, 0
13, 277140, Note_on_c, 11, 90, 84
13, 277191, Note_on_c, 11, 90, 0
13, 277200, Note_on_c, 11, 90, 84
13, 277251, Note_on_c, 11, 90, 0
13, 277260, Note_on_c, 11, 90, 84
13, 277311, Note_on_c, 11, 90, 0
13, 277320, Note_on_c, 11, 90, 84
13, 277371, Note_on_c, 11, 90, 0
13, 277380, Note_on_c, 11, 90, 84
13, 277431, Note_on_c, 11, 90, 0
13, 277440, Note_on_c, 11, 90, 84
13, 277491, Note_on_c, 11, 90, 0
13, 277500, Note_on_c, 11, 90, 84
13, 277551, Note_on_c, 11, 90, 0
13, 277560, Note_on_c, 11, 90, 84
13, 277611, Note_on_c, 11, 90, 0
13, 277620, Note_on_c, 11, 90, 84
13, 277671, Note_on_c, 11, 90, 0
13, 277680, Note_on_c, 11, 90, 84
13, 277731, Note_on_c, 11, 90, 0
13, 277740, Note_on_c, 11, 90, 84
13, 277791, Note_on_c, 11, 90, 0
13, 277800, Note_on_c, 11, 90, 84
13, 277851, Note_on_c, 11, 90, 0
13, 277860, Note_on_c, 11, 90, 84
13, 277911, Note_on_c, 11, 90, 0
13, 277920, Note_on_c, 11, 89, 84
13, 278099, Note_on_c, 11, 89, 0
13, 278160, Note_on_c, 11, 73, 92
13, 278624, Note_on_c, 11, 73, 0
13, 278640, Note_on_c, 11, 73, 84
13, 278774, Note_on_c, 11, 73, 0
13, 278820, Note_on_c, 11, 73, 84
13, 278864, Note_on_c, 11, 73, 0
13, 278880, Note_on_c, 11, 78, 84
13, 279059, Note_on_c, 11, 78, 0
13, 279120, Note_on_c, 11, 78, 84
13, 279254, Note_on_c, 11, 78, 0
13, 279300, Note_on_c, 11, 78, 84
13, 279344, Note_on_c, 11, 78, 0
13, 279360, Note_on_c, 11, 81, 84
13, 279539, Note_on_c, 11, 81, 0
13, 279600, Note_on_c, 11, 81, 84
13, 279734, Note_on_c, 11, 81, 0
13, 279780, Note_on_c, 11, 81, 84
13, 279824, Note_on_c, 11, 81, 0
13, 279840, Note_on_c, 11, 85, 92
13, 280544, Note_on_c, 11, 85, 0
13, 280560, Note_on_c, 11, 85, 84
13, 280694, Note_on_c, 11, 85, 0
13, 280740, Note_on_c, 11, 85, 84
13, 280784, Note_on_c, 11, 85, 0
13, 280800, Note_on_c, 11, 81, 84
13, 280979, Note_on_c, 11, 81, 0
13, 281040, Note_on_c, 11, 81, 84
13, 281174, Note_on_c, 11, 81, 0
13, 281220, Note_on_c, 11, 81, 84
13, 281264, Note_on_c, 11, 81, 0
13, 281280, Note_on_c, 11, 78, 84
13, 281459, Note_on_c, 11, 78, 0
13, 281520, Note_on_c, 11, 78, 84
13, 281654, Note_on_c, 11, 78, 0
13, 281700, Note_on_c, 11, 78, 84
13, 281744, Note_on_c, 11, 78, 0
13, 281760, Note_on_c, 11, 73, 92
13, 282464, Note_on_c, 11, 73, 0
13, 282480, Note_on_c, 11, 73, 84
13, 282614, Note_on_c, 11, 73, 0
13, 282660, Note_on_c, 11, 73, 84
13, 282704, Note_on_c, 11, 73, 0
13, 282720, Note_on_c, 11, 78, 84
13, 282899, Note_on_c, 11, 78, 0
13, 282960, Note_on_c, 11, 78, 84
13, 283094, Note_on_c, 11, 78, 0
13, 283140, Note_on_c, 11, 78, 84
13, 283184, Note_on_c, 11, 78, 0
13, 283200, Note_on_c, 11, 81, 84
13, 283379, Note_on_c, 11, 81, 0
13, 283440, Note_on_c, 11, 81, 84
13, 283574, Note_on_c, 11, 81, 0
13, 283620, Note_on_c, 11, 81, 84
13, 283664, Note_on_c, 11, 81, 0
13, 283680, Note_on_c, 11, 85, 92
13, 284384, Note_on_c, 11, 85, 0
13, 284400, Note_on_c, 11, 85, 84
13, 284534, Note_on_c, 11, 85, 0
13, 284580, Note_on_c, 11, 85, 84
13, 284624, Note_on_c, 11, 85, 0
13, 284640, Note_on_c, 11, 81, 84
13, 284819, Note_on_c, 11, 81, 0
13, 284880, Note_on_c, 11, 81, 84
13, 285014, Note_on_c, 11, 81, 0
13, 285060, Note_on_c, 11, 81, 84
13, 285104, Note_on_c, 11, 81, 0
13, 285120, Note_on_c, 11, 78, 84
13, 285299, Note_on_c, 11, 78, 0
13, 285360, Note_on_c, 11, 78, 84
13, 285494, Note_on_c, 11, 78, 0
13, 285540, Note_on_c, 11, 78, 84
13, 285584, Note_on_c, 11, 78, 0
13, 285600, Note_on_c, 11, 73, 84
13, 285839, Note_on_c, 11, 73, 0
13, 286020, Note_on_c, 11, 73, 84
13, 286020, Note_on_c, 11, 85, 84
13, 286071, Note_on_c, 11, 73, 0
13, 286071, Note_on_c, 11, 85, 0
13, 286080, Note_on_c, 11, 85, 92
13, 286080, Note_on_c, 11, 73, 92
13, 286799, Note_on_c, 11, 85, 0
13, 286799, Note_on_c, 11, 73, 0
13, 286980, Note_on_c, 11, 73, 84
13, 286980, Note_on_c, 11, 85, 84
13, 287031, Note_on_c, 11, 73, 0
13, 287031, Note_on_c, 11, 85, 0
13, 287040, Note_on_c, 11, 73, 92
13, 287040, Note_on_c, 11, 85, 92
13, 287759, Note_on_c, 11, 73, 0
13, 287759, Note_on_c, 11, 85, 0
13, 287940, Note_on_c, 11, 73, 84
13, 287940, Note_on_c, 11, 85, 84
13, 287991, Note_on_c, 11, 73, 0
13, 287991, Note_on_c, 11, 85, 0
13, 288000, Note_on_c, 11, 73, 92
13, 288000, Note_on_c, 11, 85, 92
13, 288719, Note_on_c, 11, 73, 0
13, 288719, Note_on_c, 11, 85, 0
13, 288900, Note_on_c, 11, 85, 84
13, 288900, Note_on_c, 11, 73, 84
13, 288951, Note_on_c, 11, 85, 0
13, 288951, Note_on_c, 11, 73, 0
13, 288960, Note_on_c, 11, 73, 92
13, 288960, Note_on_c, 11, 85, 92
13, 289679, Note_on_c, 11, 73, 0
13, 289679, Note_on_c, 11, 85, 0
13, 290340, Note_on_c, 11, 61, 84
13, 290391, Note_on_c, 11, 61, 0
13, 290400, Note_on_c, 11, 61, 84
13, 290639, Note_on_c, 11, 61, 0
13, 290820, Note_on_c, 11, 61, 84
13, 290871, Note_on_c, 11, 61, 0
13, 290880, Note_on_c, 11, 61, 84
13, 291119, Note_on_c, 11, 61, 0
13, 291300, Note_on_c, 11, 61, 84
13, 291351, Note_on_c, 11, 61, 0
13, 291360, Note_on_c, 11, 61, 52
13, 291599, Note_on_c, 11, 61, 0
13, 294000, Control_c, 11, 11, 127
13, 294240, Note_on_c, 11, 81, 76
13, 294320, Control_c, 11, 11, 123
13, 294400, Control_c, 11, 11, 119
13, 294480, Control_c, 11, 11, 115
13, 294560, Control_c, 11, 11, 111
13, 294640, Control_c, 11, 11, 107
13, 294720, Control_c, 11, 11, 104
13, 294800, Control_c, 11, 11, 100
13, 294839, Note_on_c, 11, 81, 0
13, 294840, Note_on_c, 11, 79, 76
13, 294880, Control_c, 11, 11, 96
13, 294899, Note_on_c, 11, 79, 0
13, 294900, Note_on_c, 11, 78, 76
13, 294951, Note_on_c, 11, 78, 0
13, 294960, Control_c, 11, 11, 92
13, 294960, Note_on_c, 11, 76, 76
13, 294989, Note_on_c, 11, 76, 0
13, 294990, Note_on_c, 11, 74, 76
13, 295019, Note_on_c, 11, 74, 0
13, 295020, Note_on_c, 11, 73, 76
13, 295040, Control_c, 11, 11, 88
13, 295049, Note_on_c, 11, 73, 0
13, 295050, Note_on_c, 11, 71, 76
13, 295079, Note_on_c, 11, 71, 0
13, 295080, Note_on_c, 11, 69, 76
13, 295109, Note_on_c, 11, 69, 0
13, 295110, Note_on_c, 11, 67, 76
13, 295120, Control_c, 11, 11, 84
13, 295139, Note_on_c, 11, 67, 0
13, 295140, Note_on_c, 11, 66, 76
13, 295165, Note_on_c, 11, 66, 0
13, 295170, Note_on_c, 11, 64, 76
13, 295199, Note_on_c, 11, 64, 0
13, 295200, Note_on_c, 11, 62, 76
13, 295200, Control_c, 11, 11, 80
13, 295289, Note_on_c, 11, 62, 0
13, 295320, Note_on_c, 11, 62, 76
13, 295409, Note_on_c, 11, 62, 0
13, 295440, Note_on_c, 11, 62, 76
13, 295529, Note_on_c, 11, 62, 0
13, 295560, Note_on_c, 11, 62, 76
13, 295649, Note_on_c, 11, 62, 0
13, 295680, Note_on_c, 11, 62, 76
13, 295769, Note_on_c, 11, 62, 0
13, 295800, Note_on_c, 11, 62, 76
13, 295889, Note_on_c, 11, 62, 0
13, 295920, Note_on_c, 11, 62, 76
13, 296009, Note_on_c, 11, 62, 0
13, 296040, Note_on_c, 11, 62, 76
13, 296129, Note_on_c, 11, 62, 0
13, 296160, Note_on_c, 11, 62, 76
13, 296249, Note_on_c, 11, 62, 0
13, 296280, Note_on_c, 11, 62, 76
13, 296369, Note_on_c, 11, 62, 0
13, 296400, Note_on_c, 11, 62, 76
13, 296489, Note_on_c, 11, 62, 0
13, 296520, Note_on_c, 11, 62, 76
13, 296609, Note_on_c, 11, 62, 0
13, 296640, Note_on_c, 11, 62, 76
13, 296729, Note_on_c, 11, 62, 0
13, 296760, Note_on_c, 11, 62, 76
13, 296849, Note_on_c, 11, 62, 0
13, 296880, Note_on_c, 11, 62, 76
13, 296969, Note_on_c, 11, 62, 0
13, 297000, Note_on_c, 11, 62, 76
13, 297089, Note_on_c, 11, 62, 0
13, 297120, Note_on_c, 11, 62, 76
13, 297209, Note_on_c, 11, 62, 0
13, 297240, Note_on_c, 11, 62, 76
13, 297329, Note_on_c, 11, 62, 0
13, 297360, Note_on_c, 11, 62, 76
13, 297449, Note_on_c, 11, 62, 0
13, 297480, Note_on_c, 11, 62, 76
13, 297569, Note_on_c, 11, 62, 0
13, 297600, Note_on_c, 11, 62, 76
13, 297689, Note_on_c, 11, 62, 0
13, 297720, Note_on_c, 11, 62, 76
13, 297809, Note_on_c, 11, 62, 0
13, 297840, Note_on_c, 11, 62, 76
13, 297929, Note_on_c, 11, 62, 0
13, 297960, Note_on_c, 11, 62, 76
13, 298049, Note_on_c, 11, 62, 0
13, 298080, Control_c, 11, 11, 80
13, 298080, Note_on_c, 11, 78, 76
13, 298139, Note_on_c, 11, 78, 0
13, 298140, Note_on_c, 11, 76, 76
13, 298160, Control_c, 11, 11, 83
13, 298199, Note_on_c, 11, 76, 0
13, 298200, Note_on_c, 11, 74, 76
13, 298240, Control_c, 11, 11, 85
13, 298259, Note_on_c, 11, 74, 0
13, 298260, Note_on_c, 11, 76, 76
13, 298319, Note_on_c, 11, 76, 0
13, 298320, Note_on_c, 11, 78, 76
13, 298320, Control_c, 11, 11, 88
13, 298379, Note_on_c, 11, 78, 0
13, 298380, Note_on_c, 11, 79, 76
13, 298400, Control_c, 11, 11, 91
13, 298439, Note_on_c, 11, 79, 0
13, 298440, Note_on_c, 11, 81, 76
13, 298480, Control_c, 11, 11, 93
13, 298499, Note_on_c, 11, 81, 0
13, 298500, Note_on_c, 11, 79, 76
13, 298559, Note_on_c, 11, 79, 0
13, 298560, Note_on_c, 11, 78, 76
13, 298560, Control_c, 11, 11, 96
13, 298619, Note_on_c, 11, 78, 0
13, 298620, Note_on_c, 11, 76, 76
13, 298640, Control_c, 11, 11, 99
13, 298679, Note_on_c, 11, 76, 0
13, 298680, Note_on_c, 11, 74, 76
13, 298720, Control_c, 11, 11, 101
13, 298739, Note_on_c, 11, 74, 0
13, 298740, Note_on_c, 11, 73, 76
13, 298799, Note_on_c, 11, 73, 0
13, 298800, Note_on_c, 11, 71, 76
13, 298800, Control_c, 11, 11, 104
13, 298859, Note_on_c, 11, 71, 0
13, 298860, Note_on_c, 11, 69, 76
13, 298880, Control_c, 11, 11, 107
13, 298919, Note_on_c, 11, 69, 0
13, 298920, Note_on_c, 11, 67, 76
13, 298960, Control_c, 11, 11, 109
13, 298979, Note_on_c, 11, 67, 0
13, 298980, Note_on_c, 11, 66, 76
13, 299031, Note_on_c, 11, 66, 0
13, 299036, Control_c, 11, 11, 80
13, 299040, Note_on_c, 11, 64, 76
13, 299129, Note_on_c, 11, 64, 0
13, 299160, Note_on_c, 11, 64, 76
13, 299249, Note_on_c, 11, 64, 0
13, 299280, Note_on_c, 11, 64, 76
13, 299369, Note_on_c, 11, 64, 0
13, 299400, Note_on_c, 11, 64, 76
13, 299489, Note_on_c, 11, 64, 0
13, 299520, Note_on_c, 11, 64, 76
13, 299609, Note_on_c, 11, 64, 0
13, 299640, Note_on_c, 11, 64, 76
13, 299729, Note_on_c, 11, 64, 0
13, 299760, Note_on_c, 11, 64, 76
13, 299849, Note_on_c, 11, 64, 0
13, 299880, Note_on_c, 11, 64, 76
13, 299969, Note_on_c, 11, 64, 0
13, 300000, Note_on_c, 11, 64, 76
13, 300089, Note_on_c, 11, 64, 0
13, 300120, Note_on_c, 11, 64, 76
13, 300209, Note_on_c, 11, 64, 0
13, 300240, Note_on_c, 11, 64, 76
13, 300329, Note_on_c, 11, 64, 0
13, 300360, Note_on_c, 11, 64, 76
13, 300449, Note_on_c, 11, 64, 0
13, 300480, Note_on_c, 11, 64, 76
13, 300569, Note_on_c, 11, 64, 0
13, 300600, Note_on_c, 11, 64, 76
13, 300689, Note_on_c, 11, 64, 0
13, 300720, Note_on_c, 11, 64, 76
13, 300809, Note_on_c, 11, 64, 0
13, 300840, Note_on_c, 11, 64, 76
13, 300929, Note_on_c, 11, 64, 0
13, 300960, Note_on_c, 11, 64, 76
13, 301049, Note_on_c, 11, 64, 0
13, 301080, Note_on_c, 11, 64, 76
13, 301169, Note_on_c, 11, 64, 0
13, 301200, Note_on_c, 11, 64, 76
13, 301289, Note_on_c, 11, 64, 0
13, 301320, Note_on_c, 11, 64, 76
13, 301409, Note_on_c, 11, 64, 0
13, 301440, Note_on_c, 11, 64, 76
13, 301529, Note_on_c, 11, 64, 0
13, 301560, Note_on_c, 11, 64, 76
13, 301649, Note_on_c, 11, 64, 0
13, 301680, Note_on_c, 11, 64, 76
13, 301769, Note_on_c, 11, 64, 0
13, 301800, Note_on_c, 11, 64, 76
13, 301889, Note_on_c, 11, 64, 0
13, 301920, Note_on_c, 11, 64, 76
13, 302009, Note_on_c, 11, 64, 0
13, 302040, Note_on_c, 11, 64, 76
13, 302129, Note_on_c, 11, 64, 0
13, 302160, Note_on_c, 11, 64, 76
13, 302249, Note_on_c, 11, 64, 0
13, 302280, Note_on_c, 11, 64, 76
13, 302369, Note_on_c, 11, 64, 0
13, 302400, Note_on_c, 11, 64, 76
13, 302489, Note_on_c, 11, 64, 0
13, 302520, Note_on_c, 11, 64, 76
13, 302609, Note_on_c, 11, 64, 0
13, 302640, Note_on_c, 11, 65, 76
13, 302729, Note_on_c, 11, 65, 0
13, 302760, Note_on_c, 11, 65, 76
13, 302849, Note_on_c, 11, 65, 0
13, 302880, Note_on_c, 11, 66, 76
13, 302969, Note_on_c, 11, 66, 0
13, 303000, Note_on_c, 11, 66, 76
13, 303089, Note_on_c, 11, 66, 0
13, 303120, Note_on_c, 11, 66, 76
13, 303209, Note_on_c, 11, 66, 0
13, 303240, Note_on_c, 11, 66, 76
13, 303329, Note_on_c, 11, 66, 0
13, 303360, Note_on_c, 11, 66, 76
13, 303449, Note_on_c, 11, 66, 0
13, 303480, Note_on_c, 11, 66, 76
13, 303569, Note_on_c, 11, 66, 0
13, 303600, Note_on_c, 11, 66, 76
13, 303689, Note_on_c, 11, 66, 0
13, 303720, Note_on_c, 11, 66, 76
13, 303809, Note_on_c, 11, 66, 0
13, 303840, Note_on_c, 11, 66, 76
13, 303929, Note_on_c, 11, 66, 0
13, 303960, Note_on_c, 11, 66, 76
13, 304049, Note_on_c, 11, 66, 0
13, 304080, Note_on_c, 11, 66, 76
13, 304169, Note_on_c, 11, 66, 0
13, 304200, Note_on_c, 11, 66, 76
13, 304289, Note_on_c, 11, 66, 0
13, 304320, Note_on_c, 11, 66, 76
13, 304409, Note_on_c, 11, 66, 0
13, 304440, Note_on_c, 11, 66, 76
13, 304529, Note_on_c, 11, 66, 0
13, 304560, Note_on_c, 11, 66, 76
13, 304649, Note_on_c, 11, 66, 0
13, 304680, Note_on_c, 11, 66, 76
13, 304769, Note_on_c, 11, 66, 0
13, 304800, Note_on_c, 11, 69, 76
13, 304800, Control_c, 11, 11, 80
13, 304919, Note_on_c, 11, 69, 0
13, 304920, Note_on_c, 11, 67, 76
13, 305024, Note_on_c, 11, 67, 0
13, 305040, Control_c, 11, 11, 83
13, 305040, Note_on_c, 11, 67, 76
13, 305129, Note_on_c, 11, 67, 0
13, 305160, Note_on_c, 11, 67, 76
13, 305249, Note_on_c, 11, 67, 0
13, 305280, Control_c, 11, 11, 85
13, 305400, Note_on_c, 11, 66, 76
13, 305489, Note_on_c, 11, 66, 0
13, 305520, Control_c, 11, 11, 88
13, 305520, Note_on_c, 11, 66, 76
13, 305609, Note_on_c, 11, 66, 0
13, 305640, Note_on_c, 11, 66, 76
13, 305729, Note_on_c, 11, 66, 0
13, 305760, Control_c, 11, 11, 91
13, 305880, Note_on_c, 11, 64, 76
13, 305969, Note_on_c, 11, 64, 0
13, 306000, Note_on_c, 11, 64, 76
13, 306000, Control_c, 11, 11, 93
13, 306089, Note_on_c, 11, 64, 0
13, 306120, Note_on_c, 11, 64, 76
13, 306209, Note_on_c, 11, 64, 0
13, 306240, Control_c, 11, 11, 96
13, 306360, Note_on_c, 11, 63, 76
13, 306449, Note_on_c, 11, 63, 0
13, 306480, Control_c, 11, 11, 99
13, 306480, Note_on_c, 11, 63, 76
13, 306569, Note_on_c, 11, 63, 0
13, 306600, Note_on_c, 11, 63, 76
13, 306689, Note_on_c, 11, 63, 0
13, 306720, Control_c, 11, 11, 101
13, 306720, Note_on_c, 11, 64, 76
13, 306899, Note_on_c, 11, 64, 0
13, 306960, Note_on_c, 11, 76, 76
13, 306960, Control_c, 11, 11, 104
13, 307199, Note_on_c, 11, 76, 0
13, 307200, Control_c, 11, 11, 107
13, 307200, Note_on_c, 11, 79, 76
13, 307439, Note_on_c, 11, 79, 0
13, 307440, Note_on_c, 11, 73, 76
13, 307440, Control_c, 11, 11, 109
13, 307664, Note_on_c, 11, 73, 0
13, 307680, Control_c, 11, 11, 80
13, 307680, Note_on_c, 11, 76, 76
13, 307799, Note_on_c, 11, 76, 0
13, 307800, Note_on_c, 11, 74, 76
13, 307919, Note_on_c, 11, 74, 0
13, 307920, Control_c, 11, 11, 80
13, 307920, Note_on_c, 11, 73, 76
13, 308039, Note_on_c, 11, 73, 0
13, 308040, Note_on_c, 11, 74, 76
13, 308070, Control_c, 11, 11, 82
13, 308159, Note_on_c, 11, 74, 0
13, 308160, Note_on_c, 11, 73, 76
13, 308220, Control_c, 11, 11, 84
13, 308279, Note_on_c, 11, 73, 0
13, 308280, Note_on_c, 11, 74, 76
13, 308370, Control_c, 11, 11, 86
13, 308399, Note_on_c, 11, 74, 0
13, 308400, Note_on_c, 11, 78, 76
13, 308519, Note_on_c, 11, 78, 0
13, 308520, Control_c, 11, 11, 88
13, 308520, Note_on_c, 11, 81, 76
13, 308624, Note_on_c, 11, 81, 0
13, 308640, Note_on_c, 11, 81, 76
13, 308670, Control_c, 11, 11, 90
13, 308759, Note_on_c, 11, 81, 0
13, 308760, Note_on_c, 11, 79, 76
13, 308820, Control_c, 11, 11, 92
13, 308864, Note_on_c, 11, 79, 0
13, 308880, Note_on_c, 11, 79, 76
13, 308969, Note_on_c, 11, 79, 0
13, 308970, Control_c, 11, 11, 94
13, 309000, Note_on_c, 11, 79, 76
13, 309089, Note_on_c, 11, 79, 0
13, 309120, Note_on_c, 11, 79, 76
13, 309120, Control_c, 11, 11, 96
13, 309239, Note_on_c, 11, 79, 0
13, 309240, Note_on_c, 11, 78, 76
13, 309270, Control_c, 11, 11, 98
13, 309344, Note_on_c, 11, 78, 0
13, 309360, Note_on_c, 11, 78, 76
13, 309420, Control_c, 11, 11, 100
13, 309449, Note_on_c, 11, 78, 0
13, 309480, Note_on_c, 11, 78, 76
13, 309569, Note_on_c, 11, 78, 0
13, 309570, Control_c, 11, 11, 102
13, 309600, Note_on_c, 11, 78, 76
13, 309719, Note_on_c, 11, 78, 0
13, 309720, Control_c, 11, 11, 104
13, 309720, Note_on_c, 11, 76, 76
13, 309824, Note_on_c, 11, 76, 0
13, 309840, Note_on_c, 11, 76, 76
13, 309870, Control_c, 11, 11, 105
13, 309929, Note_on_c, 11, 76, 0
13, 309960, Note_on_c, 11, 76, 76
13, 310020, Control_c, 11, 11, 107
13, 310049, Note_on_c, 11, 76, 0
13, 310080, Note_on_c, 11, 76, 76
13, 310170, Control_c, 11, 11, 109
13, 310199, Note_on_c, 11, 76, 0
13, 310200, Note_on_c, 11, 75, 76
13, 310304, Note_on_c, 11, 75, 0
13, 310320, Note_on_c, 11, 75, 76
13, 310320, Control_c, 11, 11, 111
13, 310409, Note_on_c, 11, 75, 0
13, 310440, Note_on_c, 11, 75, 76
13, 310470, Control_c, 11, 11, 113
13, 310529, Note_on_c, 11, 75, 0
13, 310560, Note_on_c, 11, 75, 76
13, 310620, Control_c, 11, 11, 115
13, 310679, Note_on_c, 11, 75, 0
13, 310680, Note_on_c, 11, 76, 76
13, 310770, Control_c, 11, 11, 117
13, 310784, Note_on_c, 11, 76, 0
13, 310800, Note_on_c, 11, 76, 76
13, 310889, Note_on_c, 11, 76, 0
13, 310920, Control_c, 11, 11, 119
13, 310920, Note_on_c, 11, 76, 76
13, 311009, Note_on_c, 11, 76, 0
13, 311040, Note_on_c, 11, 76, 76
13, 311070, Control_c, 11, 11, 121
13, 311159, Note_on_c, 11, 76, 0
13, 311160, Note_on_c, 11, 74, 76
13, 311220, Control_c, 11, 11, 123
13, 311264, Note_on_c, 11, 74, 0
13, 311280, Note_on_c, 11, 74, 76
13, 311369, Note_on_c, 11, 74, 0
13, 311370, Control_c, 11, 11, 125
13, 311400, Note_on_c, 11, 74, 76
13, 311489, Note_on_c, 11, 74, 0
13, 311520, Control_c, 11, 11, 127
13, 311520, Note_on_c, 11, 73, 76
13, 311699, Note_on_c, 11, 73, 0
13, 311760, Note_on_c, 11, 69, 84
13, 311760, Note_on_c, 11, 81, 84
13, 312104, Note_on_c, 11, 69, 0
13, 312104, Note_on_c, 11, 81, 0
13, 312120, Note_on_c, 11, 83, 76
13, 312209, Note_on_c, 11, 83, 0
13, 312240, Note_on_c, 11, 81, 76
13, 312329, Note_on_c, 11, 81, 0
13, 312360, Note_on_c, 11, 79, 76
13, 312449, Note_on_c, 11, 79, 0
13, 312480, Note_on_c, 11, 78, 76
13, 312569, Note_on_c, 11, 78, 0
13, 312600, Note_on_c, 11, 76, 76
13, 312689, Note_on_c, 11, 76, 0
13, 312720, Note_on_c, 11, 74, 76
13, 312809, Note_on_c, 11, 74, 0
13, 312840, Note_on_c, 11, 73, 76
13, 312929, Note_on_c, 11, 73, 0
13, 312960, Note_on_c, 11, 74, 76
13, 313049, Note_on_c, 11, 74, 0
13, 313080, Note_on_c, 11, 78, 76
13, 313169, Note_on_c, 11, 78, 0
13, 313200, Note_on_c, 11, 76, 76
13, 313289, Note_on_c, 11, 76, 0
13, 313320, Note_on_c, 11, 74, 76
13, 313409, Note_on_c, 11, 74, 0
13, 313440, Note_on_c, 11, 73, 76
13, 313529, Note_on_c, 11, 73, 0
13, 313560, Note_on_c, 11, 69, 76
13, 313649, Note_on_c, 11, 69, 0
13, 313680, Note_on_c, 11, 68, 76
13, 313769, Note_on_c, 11, 68, 0
13, 313800, Note_on_c, 11, 69, 76
13, 313889, Note_on_c, 11, 69, 0
13, 313920, Note_on_c, 11, 70, 76
13, 314009, Note_on_c, 11, 70, 0
13, 314040, Note_on_c, 11, 71, 76
13, 314129, Note_on_c, 11, 71, 0
13, 314160, Note_on_c, 11, 72, 76
13, 314249, Note_on_c, 11, 72, 0
13, 314280, Note_on_c, 11, 73, 76
13, 314369, Note_on_c, 11, 73, 0
13, 314400, Note_on_c, 11, 74, 76
13, 314489, Note_on_c, 11, 74, 0
13, 314520, Note_on_c, 11, 73, 76
13, 314609, Note_on_c, 11, 73, 0
13, 314640, Note_on_c, 11, 74, 76
13, 314729, Note_on_c, 11, 74, 0
13, 314760, Note_on_c, 11, 76, 76
13, 314849, Note_on_c, 11, 76, 0
13, 314880, Note_on_c, 11, 77, 76
13, 314969, Note_on_c, 11, 77, 0
13, 315000, Note_on_c, 11, 78, 76
13, 315089, Note_on_c, 11, 78, 0
13, 315120, Note_on_c, 11, 79, 76
13, 315209, Note_on_c, 11, 79, 0
13, 315240, Note_on_c, 11, 80, 76
13, 315329, Note_on_c, 11, 80, 0
13, 315360, Note_on_c, 11, 81, 76
13, 315584, Note_on_c, 11, 81, 0
13, 315600, Note_on_c, 11, 81, 84
13, 315600, Note_on_c, 11, 69, 84
13, 315944, Note_on_c, 11, 81, 0
13, 315944, Note_on_c, 11, 69, 0
13, 315960, Note_on_c, 11, 82, 76
13, 316049, Note_on_c, 11, 82, 0
13, 316080, Note_on_c, 11, 81, 76
13, 316169, Note_on_c, 11, 81, 0
13, 316200, Note_on_c, 11, 79, 76
13, 316289, Note_on_c, 11, 79, 0
13, 316320, Note_on_c, 11, 77, 76
13, 316409, Note_on_c, 11, 77, 0
13, 316440, Note_on_c, 11, 76, 76
13, 316529, Note_on_c, 11, 76, 0
13, 316560, Note_on_c, 11, 74, 76
13, 316649, Note_on_c, 11, 74, 0
13, 316680, Note_on_c, 11, 73, 76
13, 316769, Note_on_c, 11, 73, 0
13, 316800, Note_on_c, 11, 74, 76
13, 316889, Note_on_c, 11, 74, 0
13, 316920, Note_on_c, 11, 77, 76
13, 317009, Note_on_c, 11, 77, 0
13, 317040, Note_on_c, 11, 76, 76
13, 317129, Note_on_c, 11, 76, 0
13, 317160, Note_on_c, 11, 74, 76
13, 317249, Note_on_c, 11, 74, 0
13, 317280, Note_on_c, 11, 73, 76
13, 317331, Note_on_c, 11, 73, 0
13, 317340, Note_on_c, 11, 73, 76
13, 317391, Note_on_c, 11, 73, 0
13, 317400, Note_on_c, 11, 68, 76
13, 317451, Note_on_c, 11, 68, 0
13, 317460, Note_on_c, 11, 68, 76
13, 317511, Note_on_c, 11, 68, 0
13, 317520, Note_on_c, 11, 69, 76
13, 317571, Note_on_c, 11, 69, 0
13, 317580, Note_on_c, 11, 69, 76
13, 317631, Note_on_c, 11, 69, 0
13, 317640, Note_on_c, 11, 68, 76
13, 317691, Note_on_c, 11, 68, 0
13, 317700, Note_on_c, 11, 68, 76
13, 317751, Note_on_c, 11, 68, 0
13, 317760, Note_on_c, 11, 69, 76
13, 317811, Note_on_c, 11, 69, 0
13, 317820, Note_on_c, 11, 69, 76
13, 317871, Note_on_c, 11, 69, 0
13, 317880, Note_on_c, 11, 71, 76
13, 317931, Note_on_c, 11, 71, 0
13, 317940, Note_on_c, 11, 71, 76
13, 317991, Note_on_c, 11, 71, 0
13, 318000, Note_on_c, 11, 72, 76
13, 318051, Note_on_c, 11, 72, 0
13, 318060, Note_on_c, 11, 72, 76
13, 318111, Note_on_c, 11, 72, 0
13, 318120, Note_on_c, 11, 73, 76
13, 318171, Note_on_c, 11, 73, 0
13, 318180, Note_on_c, 11, 73, 76
13, 318231, Note_on_c, 11, 73, 0
13, 318240, Note_on_c, 11, 74, 76
13, 318291, Note_on_c, 11, 74, 0
13, 318300, Note_on_c, 11, 74, 76
13, 318351, Note_on_c, 11, 74, 0
13, 318360, Note_on_c, 11, 73, 76
13, 318411, Note_on_c, 11, 73, 0
13, 318420, Note_on_c, 11, 73, 76
13, 318471, Note_on_c, 11, 73, 0
13, 318480, Note_on_c, 11, 74, 76
13, 318531, Note_on_c, 11, 74, 0
13, 318540, Note_on_c, 11, 74, 76
13, 318591, Note_on_c, 11, 74, 0
13, 318600, Note_on_c, 11, 76, 76
13, 318651, Note_on_c, 11, 76, 0
13, 318660, Note_on_c, 11, 76, 76
13, 318711, Note_on_c, 11, 76, 0
13, 318720, Note_on_c, 11, 77, 76
13, 318771, Note_on_c, 11, 77, 0
13, 318780, Note_on_c, 11, 77, 76
13, 318831, Note_on_c, 11, 77, 0
13, 318840, Note_on_c, 11, 78, 76
13, 318891, Note_on_c, 11, 78, 0
13, 318900, Note_on_c, 11, 78, 76
13, 318951, Note_on_c, 11, 78, 0
13, 318960, Note_on_c, 11, 79, 76
13, 319011, Note_on_c, 11, 79, 0
13, 319020, Note_on_c, 11, 79, 76
13, 319071, Note_on_c, 11, 79, 0
13, 319080, Note_on_c, 11, 80, 76
13, 319131, Note_on_c, 11, 80, 0
13, 319140, Note_on_c, 11, 80, 76
13, 319191, Note_on_c, 11, 80, 0
13, 319200, Note_on_c, 11, 81, 84
13, 319251, Note_on_c, 11, 81, 0
13, 319260, Note_on_c, 11, 81, 76
13, 319311, Note_on_c, 11, 81, 0
13, 319320, Note_on_c, 11, 81, 76
13, 319371, Note_on_c, 11, 81, 0
13, 319380, Note_on_c, 11, 81, 76
13, 319431, Note_on_c, 11, 81, 0
13, 319440, Note_on_c, 11, 81, 76
13, 319491, Note_on_c, 11, 81, 0
13, 319500, Note_on_c, 11, 81, 76
13, 319551, Note_on_c, 11, 81, 0
13, 319560, Note_on_c, 11, 80, 76
13, 319611, Note_on_c, 11, 80, 0
13, 319620, Note_on_c, 11, 80, 76
13, 319671, Note_on_c, 11, 80, 0
13, 319680, Note_on_c, 11, 81, 84
13, 319731, Note_on_c, 11, 81, 0
13, 319740, Note_on_c, 11, 81, 76
13, 319791, Note_on_c, 11, 81, 0
13, 319800, Note_on_c, 11, 81, 76
13, 319851, Note_on_c, 11, 81, 0
13, 319860, Note_on_c, 11, 81, 76
13, 319911, Note_on_c, 11, 81, 0
13, 319920, Note_on_c, 11, 81, 76
13, 319971, Note_on_c, 11, 81, 0
13, 319980, Note_on_c, 11, 81, 76
13, 320031, Note_on_c, 11, 81, 0
13, 320040, Note_on_c, 11, 80, 76
13, 320091, Note_on_c, 11, 80, 0
13, 320100, Note_on_c, 11, 80, 76
13, 320151, Note_on_c, 11, 80, 0
13, 320160, Note_on_c, 11, 81, 84
13, 320211, Note_on_c, 11, 81, 0
13, 320220, Note_on_c, 11, 81, 76
13, 320271, Note_on_c, 11, 81, 0
13, 320280, Note_on_c, 11, 80, 76
13, 320331, Note_on_c, 11, 80, 0
13, 320340, Note_on_c, 11, 80, 76
13, 320391, Note_on_c, 11, 80, 0
13, 320400, Note_on_c, 11, 81, 76
13, 320451, Note_on_c, 11, 81, 0
13, 320460, Note_on_c, 11, 81, 76
13, 320511, Note_on_c, 11, 81, 0
13, 320520, Note_on_c, 11, 80, 76
13, 320571, Note_on_c, 11, 80, 0
13, 320580, Note_on_c, 11, 80, 76
13, 320631, Note_on_c, 11, 80, 0
13, 320640, Note_on_c, 11, 81, 76
13, 320691, Note_on_c, 11, 81, 0
13, 320700, Note_on_c, 11, 81, 76
13, 320751, Note_on_c, 11, 81, 0
13, 320760, Note_on_c, 11, 80, 76
13, 320811, Note_on_c, 11, 80, 0
13, 320820, Note_on_c, 11, 80, 76
13, 320871, Note_on_c, 11, 80, 0
13, 320880, Note_on_c, 11, 81, 76
13, 320931, Note_on_c, 11, 81, 0
13, 320940, Note_on_c, 11, 81, 76
13, 320991, Note_on_c, 11, 81, 0
13, 321000, Note_on_c, 11, 80, 76
13, 321051, Note_on_c, 11, 80, 0
13, 321060, Note_on_c, 11, 80, 76
13, 321111, Note_on_c, 11, 80, 0
13, 321120, Note_on_c, 11, 81, 84
13, 321824, Note_on_c, 11, 81, 0
13, 321840, Note_on_c, 11, 80, 76
13, 322019, Note_on_c, 11, 80, 0
13, 322080, Note_on_c, 11, 79, 76
13, 322259, Note_on_c, 11, 79, 0
13, 322320, Note_on_c, 11, 78, 76
13, 322499, Note_on_c, 11, 78, 0
13, 322560, Note_on_c, 11, 76, 76
13, 322739, Note_on_c, 11, 76, 0
13, 322800, Note_on_c, 11, 81, 76
13, 322979, Note_on_c, 11, 81, 0
13, 323040, Note_on_c, 11, 62, 52
13, 323040, Note_on_c, 11, 74, 52
13, 323279, Note_on_c, 11, 62, 0
13, 323279, Note_on_c, 11, 74, 0
13, 326880, Note_on_c, 11, 78, 84
13, 327344, Note_on_c, 11, 78, 0
13, 327360, Note_on_c, 11, 83, 84
13, 327771, Note_on_c, 11, 83, 0
13, 327780, Note_on_c, 11, 86, 84
13, 327831, Note_on_c, 11, 86, 0
13, 327840, Note_on_c, 11, 90, 92
13, 328544, Note_on_c, 11, 90, 0
13, 328560, Note_on_c, 11, 86, 84
13, 328739, Note_on_c, 11, 86, 0
13, 328740, Note_on_c, 11, 83, 84
13, 328791, Note_on_c, 11, 83, 0
13, 328800, Note_on_c, 11, 88, 92
13, 328979, Note_on_c, 11, 88, 0
13, 329040, Note_on_c, 11, 85, 84
13, 329219, Note_on_c, 11, 85, 0
13, 329220, Note_on_c, 11, 81, 84
13, 329271, Note_on_c, 11, 81, 0
13, 329280, Note_on_c, 11, 86, 92
13, 329459, Note_on_c, 11, 86, 0
13, 329520, Note_on_c, 11, 83, 84
13, 329699, Note_on_c, 11, 83, 0
13, 329700, Note_on_c, 11, 80, 84
13, 329751, Note_on_c, 11, 80, 0
13, 329760, Note_on_c, 11, 81, 84
13, 329939, Note_on_c, 11, 81, 0
13, 329985, Control_c, 11, 11, 96
13, 330000, Note_on_c, 11, 69, 68
13, 330059, Note_on_c, 11, 69, 0
13, 330060, Note_on_c, 11, 71, 68
13, 330119, Note_on_c, 11, 71, 0
13, 330120, Control_c, 11, 11, 96
13, 330120, Note_on_c, 11, 73, 68
13, 330170, Control_c, 11, 11, 99
13, 330179, Note_on_c, 11, 73, 0
13, 330180, Note_on_c, 11, 74, 68
13, 330220, Control_c, 11, 11, 101
13, 330239, Note_on_c, 11, 74, 0
13, 330240, Note_on_c, 11, 76, 68
13, 330270, Control_c, 11, 11, 104
13, 330299, Note_on_c, 11, 76, 0
13, 330300, Note_on_c, 11, 78, 68
13, 330320, Control_c, 11, 11, 106
13, 330359, Note_on_c, 11, 78, 0
13, 330360, Note_on_c, 11, 79, 68
13, 330370, Control_c, 11, 11, 109
13, 330419, Note_on_c, 11, 79, 0
13, 330420, Control_c, 11, 11, 112
13, 330420, Note_on_c, 11, 78, 68
13, 330470, Control_c, 11, 11, 114
13, 330479, Note_on_c, 11, 78, 0
13, 330480, Note_on_c, 11, 81, 68
13, 330520, Control_c, 11, 11, 117
13, 330539, Note_on_c, 11, 81, 0
13, 330540, Note_on_c, 11, 79, 68
13, 330570, Control_c, 11, 11, 119
13, 330599, Note_on_c, 11, 79, 0
13, 330600, Note_on_c, 11, 78, 68
13, 330620, Control_c, 11, 11, 122
13, 330659, Note_on_c, 11, 78, 0
13, 330660, Note_on_c, 11, 76, 68
13, 330670, Control_c, 11, 11, 124
13, 330711, Note_on_c, 11, 76, 0
13, 330720, Control_c, 11, 11, 127
13, 330720, Note_on_c, 11, 74, 52
13, 330944, Note_on_c, 11, 74, 0
13, 330960, Note_on_c, 11, 86, 52
13, 331019, Note_on_c, 11, 86, 0
13, 331020, Note_on_c, 11, 85, 52
13, 331079, Note_on_c, 11, 85, 0
13, 331080, Note_on_c, 11, 86, 52
13, 331139, Note_on_c, 11, 86, 0
13, 331140, Note_on_c, 11, 85, 52
13, 331199, Note_on_c, 11, 85, 0
13, 331200, Note_on_c, 11, 86, 52
13, 331259, Note_on_c, 11, 86, 0
13, 331260, Note_on_c, 11, 85, 52
13, 331319, Note_on_c, 11, 85, 0
13, 331320, Note_on_c, 11, 86, 52
13, 331379, Note_on_c, 11, 86, 0
13, 331380, Note_on_c, 11, 85, 52
13, 331439, Note_on_c, 11, 85, 0
13, 331440, Note_on_c, 11, 86, 52
13, 331499, Note_on_c, 11, 86, 0
13, 331500, Note_on_c, 11, 85, 52
13, 331559, Note_on_c, 11, 85, 0
13, 331560, Note_on_c, 11, 86, 52
13, 331619, Note_on_c, 11, 86, 0
13, 331620, Note_on_c, 11, 85, 52
13, 331671, Note_on_c, 11, 85, 0
13, 331680, Note_on_c, 11, 86, 52
13, 331739, Note_on_c, 11, 86, 0
13, 331740, Note_on_c, 11, 85, 52
13, 331799, Note_on_c, 11, 85, 0
13, 331800, Note_on_c, 11, 86, 52
13, 331859, Note_on_c, 11, 86, 0
13, 331860, Note_on_c, 11, 85, 52
13, 331919, Note_on_c, 11, 85, 0
13, 331920, Note_on_c, 11, 86, 52
13, 331979, Note_on_c, 11, 86, 0
13, 331980, Note_on_c, 11, 85, 52
13, 332039, Note_on_c, 11, 85, 0
13, 332040, Note_on_c, 11, 86, 52
13, 332099, Note_on_c, 11, 86, 0
13, 332100, Note_on_c, 11, 85, 52
13, 332159, Note_on_c, 11, 85, 0
13, 332160, Note_on_c, 11, 86, 52
13, 332219, Note_on_c, 11, 86, 0
13, 332220, Note_on_c, 11, 85, 52
13, 332279, Note_on_c, 11, 85, 0
13, 332280, Note_on_c, 11, 86, 52
13, 332339, Note_on_c, 11, 86, 0
13, 332340, Note_on_c, 11, 85, 52
13, 332399, Note_on_c, 11, 85, 0
13, 332400, Note_on_c, 11, 86, 52
13, 332459, Note_on_c, 11, 86, 0
13, 332460, Note_on_c, 11, 85, 52
13, 332519, Note_on_c, 11, 85, 0
13, 332520, Note_on_c, 11, 86, 52
13, 332579, Note_on_c, 11, 86, 0
13, 332580, Note_on_c, 11, 85, 52
13, 332631, Note_on_c, 11, 85, 0
13, 332640, Note_on_c, 11, 86, 52
13, 332699, Note_on_c, 11, 86, 0
13, 332700, Note_on_c, 11, 85, 52
13, 332759, Note_on_c, 11, 85, 0
13, 332760, Note_on_c, 11, 86, 52
13, 332819, Note_on_c, 11, 86, 0
13, 332820, Note_on_c, 11, 85, 52
13, 332879, Note_on_c, 11, 85, 0
13, 332880, Note_on_c, 11, 86, 52
13, 332939, Note_on_c, 11, 86, 0
13, 332940, Note_on_c, 11, 85, 52
13, 332999, Note_on_c, 11, 85, 0
13, 333000, Note_on_c, 11, 86, 52
13, 333059, Note_on_c, 11, 86, 0
13, 333060, Note_on_c, 11, 85, 52
13, 333119, Note_on_c, 11, 85, 0
13, 333120, Note_on_c, 11, 86, 52
13, 333179, Note_on_c, 11, 86, 0
13, 333180, Note_on_c, 11, 85, 52
13, 333239, Note_on_c, 11, 85, 0
13, 333240, Note_on_c, 11, 86, 52
13, 333299, Note_on_c, 11, 86, 0
13, 333300, Note_on_c, 11, 85, 52
13, 333359, Note_on_c, 11, 85, 0
13, 333360, Note_on_c, 11, 86, 52
13, 333419, Note_on_c, 11, 86, 0
13, 333420, Note_on_c, 11, 85, 52
13, 333479, Note_on_c, 11, 85, 0
13, 333480, Note_on_c, 11, 86, 52
13, 333539, Note_on_c, 11, 86, 0
13, 333540, Note_on_c, 11, 85, 52
13, 333591, Note_on_c, 11, 85, 0
13, 333600, Note_on_c, 11, 86, 52
13, 333659, Note_on_c, 11, 86, 0
13, 333660, Note_on_c, 11, 85, 52
13, 333719, Note_on_c, 11, 85, 0
13, 333720, Note_on_c, 11, 86, 52
13, 333779, Note_on_c, 11, 86, 0
13, 333780, Note_on_c, 11, 85, 52
13, 333839, Note_on_c, 11, 85, 0
13, 333840, Note_on_c, 11, 86, 52
13, 333899, Note_on_c, 11, 86, 0
13, 333900, Note_on_c, 11, 85, 52
13, 333959, Note_on_c, 11, 85, 0
13, 333960, Note_on_c, 11, 86, 52
13, 334019, Note_on_c, 11, 86, 0
13, 334020, Note_on_c, 11, 85, 52
13, 334079, Note_on_c, 11, 85, 0
13, 334080, Note_on_c, 11, 86, 52
13, 334169, Note_on_c, 11, 86, 0
13, 334200, Note_on_c, 11, 66, 52
13, 334289, Note_on_c, 11, 66, 0
13, 334320, Note_on_c, 11, 71, 76
13, 334409, Note_on_c, 11, 71, 0
13, 334440, Note_on_c, 11, 74, 76
13, 334529, Note_on_c, 11, 74, 0
13, 334560, Note_on_c, 11, 78, 84
13, 334649, Note_on_c, 11, 78, 0
13, 334680, Note_on_c, 11, 66, 84
13, 334769, Note_on_c, 11, 66, 0
13, 334800, Note_on_c, 11, 71, 84
13, 334889, Note_on_c, 11, 71, 0
13, 334920, Note_on_c, 11, 74, 84
13, 335009, Note_on_c, 11, 74, 0
13, 335040, Note_on_c, 11, 78, 84
13, 335129, Note_on_c, 11, 78, 0
13, 335160, Note_on_c, 11, 78, 84
13, 335249, Note_on_c, 11, 78, 0
13, 335280, Note_on_c, 11, 83, 84
13, 335369, Note_on_c, 11, 83, 0
13, 335400, Note_on_c, 11, 86, 84
13, 335489, Note_on_c, 11, 86, 0
13, 335520, Note_on_c, 11, 90, 92
13, 336224, Note_on_c, 11, 90, 0
13, 336240, Note_on_c, 11, 86, 84
13, 336419, Note_on_c, 11, 86, 0
13, 336420, Note_on_c, 11, 83, 84
13, 336471, Note_on_c, 11, 83, 0
13, 336480, Note_on_c, 11, 88, 92
13, 336569, Note_on_c, 11, 88, 0
13, 336600, Note_on_c, 11, 88, 84
13, 336719, Note_on_c, 11, 88, 0
13, 336720, Note_on_c, 11, 85, 84
13, 336839, Note_on_c, 11, 85, 0
13, 336840, Note_on_c, 11, 81, 84
13, 336944, Note_on_c, 11, 81, 0
13, 336960, Note_on_c, 11, 86, 92
13, 337049, Note_on_c, 11, 86, 0
13, 337080, Note_on_c, 11, 86, 84
13, 337199, Note_on_c, 11, 86, 0
13, 337200, Note_on_c, 11, 83, 84
13, 337319, Note_on_c, 11, 83, 0
13, 337320, Note_on_c, 11, 80, 84
13, 337424, Note_on_c, 11, 80, 0
13, 337440, Note_on_c, 11, 81, 84
13, 337679, Note_on_c, 11, 81, 0
13, 339360, Note_on_c, 11, 81, 92
13, 339944, Note_on_c, 11, 81, 0
13, 339960, Note_on_c, 11, 81, 84
13, 340079, Note_on_c, 11, 81, 0
13, 340080, Note_on_c, 11, 79, 84
13, 340199, Note_on_c, 11, 79, 0
13, 340200, Note_on_c, 11, 78, 84
13, 340304, Note_on_c, 11, 78, 0
13, 340320, Note_on_c, 11, 79, 92
13, 340904, Note_on_c, 11, 79, 0
13, 340920, Note_on_c, 11, 79, 84
13, 341039, Note_on_c, 11, 79, 0
13, 341040, Note_on_c, 11, 78, 84
13, 341159, Note_on_c, 11, 78, 0
13, 341160, Note_on_c, 11, 77, 84
13, 341264, Note_on_c, 11, 77, 0
13, 341280, Note_on_c, 11, 78, 92
13, 341369, Note_on_c, 11, 78, 0
13, 341400, Note_on_c, 11, 78, 84
13, 341519, Note_on_c, 11, 78, 0
13, 341520, Note_on_c, 11, 76, 84
13, 341639, Note_on_c, 11, 76, 0
13, 341640, Note_on_c, 11, 75, 84
13, 341744, Note_on_c, 11, 75, 0
13, 341760, Note_on_c, 11, 76, 92
13, 341849, Note_on_c, 11, 76, 0
13, 341880, Note_on_c, 11, 76, 84
13, 341999, Note_on_c, 11, 76, 0
13, 342000, Note_on_c, 11, 74, 84
13, 342119, Note_on_c, 11, 74, 0
13, 342120, Note_on_c, 11, 73, 84
13, 342224, Note_on_c, 11, 73, 0
13, 342240, Note_on_c, 11, 74, 92
13, 342329, Note_on_c, 11, 74, 0
13, 342360, Note_on_c, 11, 81, 84
13, 342479, Note_on_c, 11, 81, 0
13, 342480, Note_on_c, 11, 79, 84
13, 342599, Note_on_c, 11, 79, 0
13, 342600, Note_on_c, 11, 78, 84
13, 342704, Note_on_c, 11, 78, 0
13, 342720, Note_on_c, 11, 79, 92
13, 342809, Note_on_c, 11, 79, 0
13, 342840, Note_on_c, 11, 79, 84
13, 342959, Note_on_c, 11, 79, 0
13, 342960, Note_on_c, 11, 78, 84
13, 343079, Note_on_c, 11, 78, 0
13, 343080, Note_on_c, 11, 77, 84
13, 343184, Note_on_c, 11, 77, 0
13, 343200, Note_on_c, 11, 78, 92
13, 343289, Note_on_c, 11, 78, 0
13, 343320, Note_on_c, 11, 90, 84
13, 343439, Note_on_c, 11, 90, 0
13, 343440, Note_on_c, 11, 88, 84
13, 343559, Note_on_c, 11, 88, 0
13, 343560, Note_on_c, 11, 86, 84
13, 343664, Note_on_c, 11, 86, 0
13, 343680, Note_on_c, 11, 88, 92
13, 343769, Note_on_c, 11, 88, 0
13, 343800, Note_on_c, 11, 88, 84
13, 343919, Note_on_c, 11, 88, 0
13, 343920, Note_on_c, 11, 86, 84
13, 344039, Note_on_c, 11, 86, 0
13, 344040, Note_on_c, 11, 85, 84
13, 344144, Note_on_c, 11, 85, 0
13, 344160, Note_on_c, 11, 86, 92
13, 344249, Note_on_c, 11, 86, 0
13, 344280, Note_on_c, 11, 86, 84
13, 344399, Note_on_c, 11, 86, 0
13, 344400, Note_on_c, 11, 84, 84
13, 344519, Note_on_c, 11, 84, 0
13, 344520, Note_on_c, 11, 83, 84
13, 344624, Note_on_c, 11, 83, 0
13, 344640, Note_on_c, 11, 84, 92
13, 344729, Note_on_c, 11, 84, 0
13, 344760, Note_on_c, 11, 84, 84
13, 344879, Note_on_c, 11, 84, 0
13, 344880, Note_on_c, 11, 83, 84
13, 344999, Note_on_c, 11, 83, 0
13, 345000, Note_on_c, 11, 82, 84
13, 345104, Note_on_c, 11, 82, 0
13, 345120, Note_on_c, 11, 71, 84
13, 345120, Note_on_c, 11, 83, 84
13, 345299, Note_on_c, 11, 71, 0
13, 345299, Note_on_c, 11, 83, 0
13, 346080, Note_on_c, 11, 83, 84
13, 346080, Note_on_c, 11, 71, 84
13, 346259, Note_on_c, 11, 83, 0
13, 346259, Note_on_c, 11, 71, 0
13, 347040, Note_on_c, 11, 69, 84
13, 347040, Note_on_c, 11, 81, 84
13, 347219, Note_on_c, 11, 69, 0
13, 347219, Note_on_c, 11, 81, 0
13, 347520, Note_on_c, 11, 69, 84
13, 347520, Note_on_c, 11, 81, 84
13, 347699, Note_on_c, 11, 69, 0
13, 347699, Note_on_c, 11, 81, 0
13, 348000, Note_on_c, 11, 71, 84
13, 348000, Note_on_c, 11, 79, 84
13, 348000, Note_on_c, 11, 55, 84
13, 348000, Note_on_c, 11, 64, 84
13, 348179, Note_on_c, 11, 71, 0
13, 348179, Note_on_c, 11, 79, 0
13, 348179, Note_on_c, 11, 55, 0
13, 348179, Note_on_c, 11, 64, 0
13, 348480, Note_on_c, 11, 69, 84
13, 348480, Note_on_c, 11, 76, 84
13, 348480, Note_on_c, 11, 57, 84
13, 348480, Note_on_c, 11, 64, 84
13, 348659, Note_on_c, 11, 69, 0
13, 348659, Note_on_c, 11, 76, 0
13, 348659, Note_on_c, 11, 57, 0
13, 348659, Note_on_c, 11, 64, 0
13, 348960, Note_on_c, 11, 62, 84
13, 348960, Note_on_c, 11, 79, 84
13, 348960, Note_on_c, 11, 74, 84
13, 349199, Note_on_c, 11, 62, 0
13, 349199, Note_on_c, 11, 79, 0
13, 349199, Note_on_c, 11, 74, 0
13, 349920, Note_on_c, 11, 76, 84
13, 349920, Note_on_c, 11, 79, 84
13, 349920, Note_on_c, 11, 64, 84
13, 350159, Note_on_c, 11, 76, 0
13, 350159, Note_on_c, 11, 79, 0
13, 350159, Note_on_c, 11, 64, 0
13, 351600, Note_on_c, 11, 64, 44
13, 351659, Note_on_c, 11, 64, 0
13, 351660, Note_on_c, 11, 63, 44
13, 351719, Note_on_c, 11, 63, 0
13, 351720, Note_on_c, 11, 64, 44
13, 351779, Note_on_c, 11, 64, 0
13, 351780, Note_on_c, 11, 65, 44
13, 351831, Note_on_c, 11, 65, 0
13, 351840, Note_on_c, 11, 67, 44
13, 352019, Note_on_c, 11, 67, 0
13, 352560, Note_on_c, 11, 65, 44
13, 352619, Note_on_c, 11, 65, 0
13, 352620, Note_on_c, 11, 64, 44
13, 352679, Note_on_c, 11, 64, 0
13, 352680, Note_on_c, 11, 65, 44
13, 352739, Note_on_c, 11, 65, 0
13, 352740, Note_on_c, 11, 67, 44
13, 352791, Note_on_c, 11, 67, 0
13, 352800, Note_on_c, 11, 69, 44
13, 352979, Note_on_c, 11, 69, 0
13, 353280, Control_c, 11, 11, 80
13, 353520, Note_on_c, 11, 67, 68
13, 353579, Note_on_c, 11, 67, 0
13, 353580, Note_on_c, 11, 66, 68
13, 353639, Note_on_c, 11, 66, 0
13, 353640, Note_on_c, 11, 67, 68
13, 353699, Note_on_c, 11, 67, 0
13, 353700, Note_on_c, 11, 69, 68
13, 353751, Note_on_c, 11, 69, 0
13, 353760, Control_c, 11, 11, 80
13, 353760, Note_on_c, 11, 70, 68
13, 353880, Control_c, 11, 11, 82
13, 353939, Note_on_c, 11, 70, 0
13, 354000, Control_c, 11, 11, 84
13, 354000, Note_on_c, 11, 69, 68
13, 354059, Note_on_c, 11, 69, 0
13, 354060, Note_on_c, 11, 68, 68
13, 354119, Note_on_c, 11, 68, 0
13, 354120, Control_c, 11, 11, 86
13, 354120, Note_on_c, 11, 69, 68
13, 354179, Note_on_c, 11, 69, 0
13, 354180, Note_on_c, 11, 71, 68
13, 354231, Note_on_c, 11, 71, 0
13, 354240, Note_on_c, 11, 72, 68
13, 354240, Control_c, 11, 11, 88
13, 354360, Control_c, 11, 11, 90
13, 354419, Note_on_c, 11, 72, 0
13, 354480, Control_c, 11, 11, 92
13, 354480, Note_on_c, 11, 71, 68
13, 354539, Note_on_c, 11, 71, 0
13, 354540, Note_on_c, 11, 70, 68
13, 354599, Note_on_c, 11, 70, 0
13, 354600, Control_c, 11, 11, 94
13, 354600, Note_on_c, 11, 71, 68
13, 354659, Note_on_c, 11, 71, 0
13, 354660, Note_on_c, 11, 73, 68
13, 354711, Note_on_c, 11, 73, 0
13, 354720, Control_c, 11, 11, 96
13, 354720, Note_on_c, 11, 74, 68
13, 354840, Control_c, 11, 11, 98
13, 354899, Note_on_c, 11, 74, 0
13, 354960, Note_on_c, 11, 73, 68
13, 354960, Control_c, 11, 11, 100
13, 355019, Note_on_c, 11, 73, 0
13, 355020, Note_on_c, 11, 72, 68
13, 355079, Note_on_c, 11, 72, 0
13, 355080, Note_on_c, 11, 73, 68
13, 355080, Control_c, 11, 11, 102
13, 355139, Note_on_c, 11, 73, 0
13, 355140, Note_on_c, 11, 74, 68
13, 355191, Note_on_c, 11, 74, 0
13, 355200, Control_c, 11, 11, 104
13, 355200, Note_on_c, 11, 76, 68
13, 355320, Control_c, 11, 11, 105
13, 355379, Note_on_c, 11, 76, 0
13, 355440, Control_c, 11, 11, 107
13, 355440, Note_on_c, 11, 74, 68
13, 355499, Note_on_c, 11, 74, 0
13, 355500, Note_on_c, 11, 73, 68
13, 355559, Note_on_c, 11, 73, 0
13, 355560, Note_on_c, 11, 74, 68
13, 355560, Control_c, 11, 11, 109
13, 355619, Note_on_c, 11, 74, 0
13, 355620, Note_on_c, 11, 76, 68
13, 355671, Note_on_c, 11, 76, 0
13, 355680, Note_on_c, 11, 77, 68
13, 355680, Control_c, 11, 11, 111
13, 355800, Control_c, 11, 11, 113
13, 355859, Note_on_c, 11, 77, 0
13, 355920, Control_c, 11, 11, 115
13, 355920, Note_on_c, 11, 74, 68
13, 355979, Note_on_c, 11, 74, 0
13, 355980, Note_on_c, 11, 73, 68
13, 356039, Note_on_c, 11, 73, 0
13, 356040, Control_c, 11, 11, 117
13, 356040, Note_on_c, 11, 74, 68
13, 356099, Note_on_c, 11, 74, 0
13, 356100, Note_on_c, 11, 76, 68
13, 356151, Note_on_c, 11, 76, 0
13, 356160, Note_on_c, 11, 77, 68
13, 356160, Control_c, 11, 11, 119
13, 356280, Control_c, 11, 11, 121
13, 356339, Note_on_c, 11, 77, 0
13, 356400, Control_c, 11, 11, 123
13, 356400, Note_on_c, 11, 74, 68
13, 356459, Note_on_c, 11, 74, 0
13, 356460, Note_on_c, 11, 73, 68
13, 356519, Note_on_c, 11, 73, 0
13, 356520, Note_on_c, 11, 74, 68
13, 356520, Control_c, 11, 11, 125
13, 356579, Note_on_c, 11, 74, 0
13, 356580, Note_on_c, 11, 76, 68
13, 356631, Note_on_c, 11, 76, 0
13, 356640, Note_on_c, 11, 77, 76
13, 356640, Control_c, 11, 11, 127
13, 357584, Note_on_c, 11, 77, 0
13, 357600, Note_on_c, 11, 56, 76
13, 358544, Note_on_c, 11, 56, 0
13, 358560, Note_on_c, 11, 57, 84
13, 358611, Note_on_c, 11, 57, 0
13, 358620, Note_on_c, 11, 57, 84
13, 358671, Note_on_c, 11, 57, 0
13, 358680, Note_on_c, 11, 62, 84
13, 358731, Note_on_c, 11, 62, 0
13, 358740, Note_on_c, 11, 62, 84
13, 358791, Note_on_c, 11, 62, 0
13, 358800, Note_on_c, 11, 66, 84
13, 358851, Note_on_c, 11, 66, 0
13, 358860, Note_on_c, 11, 66, 84
13, 358911, Note_on_c, 11, 66, 0
13, 358920, Note_on_c, 11, 69, 84
13, 358971, Note_on_c, 11, 69, 0
13, 358980, Note_on_c, 11, 69, 84
13, 359031, Note_on_c, 11, 69, 0
13, 359040, Note_on_c, 11, 74, 84
13, 359091, Note_on_c, 11, 74, 0
13, 359100, Note_on_c, 11, 74, 84
13, 359151, Note_on_c, 11, 74, 0
13, 359160, Note_on_c, 11, 78, 84
13, 359211, Note_on_c, 11, 78, 0
13, 359220, Note_on_c, 11, 78, 84
13, 359271, Note_on_c, 11, 78, 0
13, 359280, Note_on_c, 11, 81, 84
13, 359384, Note_on_c, 11, 81, 0
13, 359400, Note_on_c, 11, 81, 84
13, 359504, Note_on_c, 11, 81, 0
13, 359520, Note_on_c, 11, 81, 84
13, 359984, Note_on_c, 11, 81, 0
13, 360000, Note_on_c, 11, 73, 84
13, 360059, Note_on_c, 11, 73, 0
13, 360060, Note_on_c, 11, 74, 84
13, 360119, Note_on_c, 11, 74, 0
13, 360120, Note_on_c, 11, 73, 84
13, 360179, Note_on_c, 11, 73, 0
13, 360180, Note_on_c, 11, 74, 84
13, 360239, Note_on_c, 11, 74, 0
13, 360240, Note_on_c, 11, 73, 84
13, 360299, Note_on_c, 11, 73, 0
13, 360300, Note_on_c, 11, 74, 84
13, 360359, Note_on_c, 11, 74, 0
13, 360360, Note_on_c, 11, 71, 84
13, 360419, Note_on_c, 11, 71, 0
13, 360420, Note_on_c, 11, 73, 84
13, 360471, Note_on_c, 11, 73, 0
13, 360480, Note_on_c, 11, 62, 84
13, 360480, Note_on_c, 11, 74, 84
13, 360719, Note_on_c, 11, 62, 0
13, 360719, Note_on_c, 11, 74, 0
13, 362400, Note_on_c, 11, 70, 84
13, 362400, Note_on_c, 11, 79, 84
13, 362400, Note_on_c, 11, 62, 84
13, 362400, Note_on_c, 11, 55, 84
13, 362639, Note_on_c, 11, 70, 0
13, 362639, Note_on_c, 11, 62, 0
13, 362639, Note_on_c, 11, 55, 0
13, 363104, Note_on_c, 11, 79, 0
13, 363120, Note_on_c, 11, 79, 84
13, 363299, Note_on_c, 11, 79, 0
13, 363360, Note_on_c, 11, 74, 84
13, 363539, Note_on_c, 11, 74, 0
13, 363600, Note_on_c, 11, 70, 84
13, 363779, Note_on_c, 11, 70, 0
13, 363840, Note_on_c, 11, 69, 84
13, 364019, Note_on_c, 11, 69, 0
13, 364080, Note_on_c, 11, 67, 84
13, 364259, Note_on_c, 11, 67, 0
13, 364320, Note_on_c, 11, 62, 84
13, 364559, Note_on_c, 11, 62, 0
13, 366240, Note_on_c, 11, 79, 84
13, 366240, Note_on_c, 11, 62, 84
13, 366240, Note_on_c, 11, 70, 84
13, 366240, Note_on_c, 11, 55, 84
13, 366479, Note_on_c, 11, 62, 0
13, 366479, Note_on_c, 11, 70, 0
13, 366479, Note_on_c, 11, 55, 0
13, 366944, Note_on_c, 11, 79, 0
13, 366960, Note_on_c, 11, 79, 84
13, 367184, Note_on_c, 11, 79, 0
13, 367200, Note_on_c, 11, 74, 84
13, 367379, Note_on_c, 11, 74, 0
13, 367440, Note_on_c, 11, 70, 84
13, 367619, Note_on_c, 11, 70, 0
13, 367680, Note_on_c, 11, 69, 84
13, 367859, Note_on_c, 11, 69, 0
13, 367920, Note_on_c, 11, 67, 84
13, 368099, Note_on_c, 11, 67, 0
13, 368160, Note_on_c, 11, 86, 52
13, 368160, Note_on_c, 11, 74, 52
13, 368211, Note_on_c, 11, 86, 0
13, 368211, Note_on_c, 11, 74, 0
13, 368220, Note_on_c, 11, 74, 52
13, 368220, Note_on_c, 11, 86, 52
13, 368271, Note_on_c, 11, 74, 0
13, 368271, Note_on_c, 11, 86, 0
13, 368280, Note_on_c, 11, 86, 52
13, 368280, Note_on_c, 11, 74, 52
13, 368331, Note_on_c, 11, 86, 0
13, 368331, Note_on_c, 11, 74, 0
13, 368340, Note_on_c, 11, 86, 52
13, 368340, Note_on_c, 11, 74, 52
13, 368391, Note_on_c, 11, 86, 0
13, 368391, Note_on_c, 11, 74, 0
13, 368400, Note_on_c, 11, 86, 52
13, 368400, Note_on_c, 11, 74, 52
13, 368451, Note_on_c, 11, 86, 0
13, 368451, Note_on_c, 11, 74, 0
13, 368460, Note_on_c, 11, 74, 52
13, 368460, Note_on_c, 11, 86, 52
13, 368511, Note_on_c, 11, 74, 0
13, 368511, Note_on_c, 11, 86, 0
13, 368520, Note_on_c, 11, 74, 52
13, 368520, Note_on_c, 11, 86, 52
13, 368571, Note_on_c, 11, 74, 0
13, 368571, Note_on_c, 11, 86, 0
13, 368580, Note_on_c, 11, 74, 52
13, 368580, Note_on_c, 11, 86, 52
13, 368631, Note_on_c, 11, 74, 0
13, 368631, Note_on_c, 11, 86, 0
13, 368640, Note_on_c, 11, 74, 52
13, 368640, Note_on_c, 11, 86, 52
13, 368691, Note_on_c, 11, 74, 0
13, 368691, Note_on_c, 11, 86, 0
13, 368700, Note_on_c, 11, 86, 52
13, 368700, Note_on_c, 11, 74, 52
13, 368751, Note_on_c, 11, 86, 0
13, 368751, Note_on_c, 11, 74, 0
13, 368760, Note_on_c, 11, 86, 52
13, 368760, Note_on_c, 11, 74, 52
13, 368811, Note_on_c, 11, 86, 0
13, 368811, Note_on_c, 11, 74, 0
13, 368820, Note_on_c, 11, 86, 52
13, 368820, Note_on_c, 11, 74, 52
13, 368871, Note_on_c, 11, 86, 0
13, 368871, Note_on_c, 11, 74, 0
13, 368880, Note_on_c, 11, 74, 76
13, 368880, Note_on_c, 11, 85, 76
13, 368931, Note_on_c, 11, 74, 0
13, 368931, Note_on_c, 11, 85, 0
13, 368940, Note_on_c, 11, 74, 52
13, 368940, Note_on_c, 11, 85, 52
13, 368991, Note_on_c, 11, 74, 0
13, 368991, Note_on_c, 11, 85, 0
13, 369000, Note_on_c, 11, 74, 52
13, 369000, Note_on_c, 11, 85, 52
13, 369051, Note_on_c, 11, 74, 0
13, 369051, Note_on_c, 11, 85, 0
13, 369060, Note_on_c, 11, 85, 52
13, 369060, Note_on_c, 11, 74, 52
13, 369111, Note_on_c, 11, 85, 0
13, 369111, Note_on_c, 11, 74, 0
13, 369120, Note_on_c, 11, 86, 52
13, 369120, Note_on_c, 11, 74, 52
13, 369171, Note_on_c, 11, 86, 0
13, 369171, Note_on_c, 11, 74, 0
13, 369180, Note_on_c, 11, 86, 52
13, 369180, Note_on_c, 11, 74, 52
13, 369231, Note_on_c, 11, 86, 0
13, 369231, Note_on_c, 11, 74, 0
13, 369240, Note_on_c, 11, 86, 52
13, 369240, Note_on_c, 11, 74, 52
13, 369291, Note_on_c, 11, 86, 0
13, 369291, Note_on_c, 11, 74, 0
13, 369300, Note_on_c, 11, 86, 52
13, 369300, Note_on_c, 11, 74, 52
13, 369351, Note_on_c, 11, 86, 0
13, 369351, Note_on_c, 11, 74, 0
13, 369360, Note_on_c, 11, 74, 52
13, 369360, Note_on_c, 11, 86, 52
13, 369411, Note_on_c, 11, 74, 0
13, 369411, Note_on_c, 11, 86, 0
13, 369420, Note_on_c, 11, 86, 52
13, 369420, Note_on_c, 11, 74, 52
13, 369471, Note_on_c, 11, 86, 0
13, 369471, Note_on_c, 11, 74, 0
13, 369480, Note_on_c, 11, 74, 52
13, 369480, Note_on_c, 11, 86, 52
13, 369531, Note_on_c, 11, 74, 0
13, 369531, Note_on_c, 11, 86, 0
13, 369540, Note_on_c, 11, 86, 52
13, 369540, Note_on_c, 11, 74, 52
13, 369591, Note_on_c, 11, 86, 0
13, 369591, Note_on_c, 11, 74, 0
13, 369600, Note_on_c, 11, 86, 52
13, 369600, Note_on_c, 11, 74, 52
13, 369651, Note_on_c, 11, 86, 0
13, 369651, Note_on_c, 11, 74, 0
13, 369660, Note_on_c, 11, 74, 52
13, 369660, Note_on_c, 11, 86, 52
13, 369711, Note_on_c, 11, 74, 0
13, 369711, Note_on_c, 11, 86, 0
13, 369720, Note_on_c, 11, 86, 52
13, 369720, Note_on_c, 11, 74, 52
13, 369771, Note_on_c, 11, 86, 0
13, 369771, Note_on_c, 11, 74, 0
13, 369780, Note_on_c, 11, 74, 52
13, 369780, Note_on_c, 11, 86, 52
13, 369831, Note_on_c, 11, 74, 0
13, 369831, Note_on_c, 11, 86, 0
13, 369840, Note_on_c, 11, 74, 76
13, 369840, Note_on_c, 11, 88, 76
13, 369891, Note_on_c, 11, 74, 0
13, 369891, Note_on_c, 11, 88, 0
13, 369900, Note_on_c, 11, 88, 52
13, 369900, Note_on_c, 11, 74, 52
13, 369951, Note_on_c, 11, 88, 0
13, 369951, Note_on_c, 11, 74, 0
13, 369960, Note_on_c, 11, 74, 52
13, 369960, Note_on_c, 11, 88, 52
13, 370011, Note_on_c, 11, 74, 0
13, 370011, Note_on_c, 11, 88, 0
13, 370020, Note_on_c, 11, 88, 52
13, 370020, Note_on_c, 11, 74, 52
13, 370071, Note_on_c, 11, 88, 0
13, 370071, Note_on_c, 11, 74, 0
13, 370080, Note_on_c, 11, 74, 52
13, 370080, Note_on_c, 11, 86, 52
13, 370131, Note_on_c, 11, 74, 0
13, 370131, Note_on_c, 11, 86, 0
13, 370140, Note_on_c, 11, 86, 52
13, 370140, Note_on_c, 11, 74, 52
13, 370191, Note_on_c, 11, 86, 0
13, 370191, Note_on_c, 11, 74, 0
13, 370200, Note_on_c, 11, 74, 52
13, 370200, Note_on_c, 11, 86, 52
13, 370251, Note_on_c, 11, 74, 0
13, 370251, Note_on_c, 11, 86, 0
13, 370260, Note_on_c, 11, 74, 52
13, 370260, Note_on_c, 11, 86, 52
13, 370311, Note_on_c, 11, 74, 0
13, 370311, Note_on_c, 11, 86, 0
13, 370320, Note_on_c, 11, 86, 52
13, 370320, Note_on_c, 11, 74, 52
13, 370371, Note_on_c, 11, 86, 0
13, 370371, Note_on_c, 11, 74, 0
13, 370380, Note_on_c, 11, 86, 52
13, 370380, Note_on_c, 11, 74, 52
13, 370431, Note_on_c, 11, 86, 0
13, 370431, Note_on_c, 11, 74, 0
13, 370440, Note_on_c, 11, 86, 52
13, 370440, Note_on_c, 11, 74, 52
13, 370491, Note_on_c, 11, 86, 0
13, 370491, Note_on_c, 11, 74, 0
13, 370500, Note_on_c, 11, 86, 52
13, 370500, Note_on_c, 11, 74, 52
13, 370551, Note_on_c, 11, 86, 0
13, 370551, Note_on_c, 11, 74, 0
13, 370560, Note_on_c, 11, 86, 52
13, 370560, Note_on_c, 11, 74, 52
13, 370611, Note_on_c, 11, 86, 0
13, 370611, Note_on_c, 11, 74, 0
13, 370620, Note_on_c, 11, 86, 52
13, 370620, Note_on_c, 11, 74, 52
13, 370671, Note_on_c, 11, 86, 0
13, 370671, Note_on_c, 11, 74, 0
13, 370680, Note_on_c, 11, 74, 52
13, 370680, Note_on_c, 11, 86, 52
13, 370731, Note_on_c, 11, 74, 0
13, 370731, Note_on_c, 11, 86, 0
13, 370740, Note_on_c, 11, 86, 52
13, 370740, Note_on_c, 11, 74, 52
13, 370791, Note_on_c, 11, 86, 0
13, 370791, Note_on_c, 11, 74, 0
13, 370800, Note_on_c, 11, 74, 76
13, 370800, Note_on_c, 11, 85, 76
13, 370851, Note_on_c, 11, 74, 0
13, 370851, Note_on_c, 11, 85, 0
13, 370860, Note_on_c, 11, 85, 52
13, 370860, Note_on_c, 11, 74, 52
13, 370911, Note_on_c, 11, 85, 0
13, 370911, Note_on_c, 11, 74, 0
13, 370920, Note_on_c, 11, 85, 52
13, 370920, Note_on_c, 11, 74, 52
13, 370971, Note_on_c, 11, 85, 0
13, 370971, Note_on_c, 11, 74, 0
13, 370980, Note_on_c, 11, 74, 52
13, 370980, Note_on_c, 11, 85, 52
13, 371031, Note_on_c, 11, 74, 0
13, 371031, Note_on_c, 11, 85, 0
13, 371040, Note_on_c, 11, 86, 52
13, 371040, Note_on_c, 11, 74, 52
13, 371091, Note_on_c, 11, 86, 0
13, 371091, Note_on_c, 11, 74, 0
13, 371100, Note_on_c, 11, 74, 52
13, 371100, Note_on_c, 11, 86, 52
13, 371151, Note_on_c, 11, 74, 0
13, 371151, Note_on_c, 11, 86, 0
13, 371160, Note_on_c, 11, 86, 52
13, 371160, Note_on_c, 11, 74, 52
13, 371211, Note_on_c, 11, 86, 0
13, 371211, Note_on_c, 11, 74, 0
13, 371220, Note_on_c, 11, 74, 52
13, 371220, Note_on_c, 11, 86, 52
13, 371271, Note_on_c, 11, 74, 0
13, 371271, Note_on_c, 11, 86, 0
13, 371280, Note_on_c, 11, 86, 52
13, 371280, Note_on_c, 11, 74, 52
13, 371331, Note_on_c, 11, 86, 0
13, 371331, Note_on_c, 11, 74, 0
13, 371340, Note_on_c, 11, 74, 52
13, 371340, Note_on_c, 11, 86, 52
13, 371391, Note_on_c, 11, 74, 0
13, 371391, Note_on_c, 11, 86, 0
13, 371400, Note_on_c, 11, 74, 52
13, 371400, Note_on_c, 11, 86, 52
13, 371451, Note_on_c, 11, 74, 0
13, 371451, Note_on_c, 11, 86, 0
13, 371460, Note_on_c, 11, 86, 52
13, 371460, Note_on_c, 11, 74, 52
13, 371511, Note_on_c, 11, 86, 0
13, 371511, Note_on_c, 11, 74, 0
13, 371520, Note_on_c, 11, 86, 52
13, 371520, Note_on_c, 11, 74, 52
13, 371571, Note_on_c, 11, 86, 0
13, 371571, Note_on_c, 11, 74, 0
13, 371580, Note_on_c, 11, 86, 52
13, 371580, Note_on_c, 11, 74, 52
13, 371631, Note_on_c, 11, 86, 0
13, 371631, Note_on_c, 11, 74, 0
13, 371640, Note_on_c, 11, 74, 52
13, 371640, Note_on_c, 11, 86, 52
13, 371691, Note_on_c, 11, 74, 0
13, 371691, Note_on_c, 11, 86, 0
13, 371700, Note_on_c, 11, 86, 52
13, 371700, Note_on_c, 11, 74, 52
13, 371751, Note_on_c, 11, 86, 0
13, 371751, Note_on_c, 11, 74, 0
13, 371760, Note_on_c, 11, 88, 76
13, 371760, Note_on_c, 11, 74, 76
13, 371811, Note_on_c, 11, 88, 0
13, 371811, Note_on_c, 11, 74, 0
13, 371820, Note_on_c, 11, 88, 52
13, 371820, Note_on_c, 11, 74, 52
13, 371871, Note_on_c, 11, 88, 0
13, 371871, Note_on_c, 11, 74, 0
13, 371880, Note_on_c, 11, 74, 52
13, 371880, Note_on_c, 11, 88, 52
13, 371931, Note_on_c, 11, 74, 0
13, 371931, Note_on_c, 11, 88, 0
13, 371940, Note_on_c, 11, 74, 52
13, 371940, Note_on_c, 11, 88, 52
13, 371991, Note_on_c, 11, 74, 0
13, 371991, Note_on_c, 11, 88, 0
13, 372000, Note_on_c, 11, 74, 52
13, 372000, Note_on_c, 11, 86, 52
13, 372051, Note_on_c, 11, 74, 0
13, 372051, Note_on_c, 11, 86, 0
13, 372060, Note_on_c, 11, 74, 52
13, 372060, Note_on_c, 11, 86, 52
13, 372111, Note_on_c, 11, 74, 0
13, 372111, Note_on_c, 11, 86, 0
13, 372120, Note_on_c, 11, 74, 52
13, 372120, Note_on_c, 11, 86, 52
13, 372171, Note_on_c, 11, 74, 0
13, 372171, Note_on_c, 11, 86, 0
13, 372180, Note_on_c, 11, 86, 52
13, 372180, Note_on_c, 11, 74, 52
13, 372231, Note_on_c, 11, 86, 0
13, 372231, Note_on_c, 11, 74, 0
13, 372240, Note_on_c, 11, 88, 76
13, 372240, Note_on_c, 11, 74, 76
13, 372291, Note_on_c, 11, 88, 0
13, 372291, Note_on_c, 11, 74, 0
13, 372300, Note_on_c, 11, 74, 52
13, 372300, Note_on_c, 11, 88, 52
13, 372351, Note_on_c, 11, 74, 0
13, 372351, Note_on_c, 11, 88, 0
13, 372360, Note_on_c, 11, 74, 52
13, 372360, Note_on_c, 11, 88, 52
13, 372411, Note_on_c, 11, 74, 0
13, 372411, Note_on_c, 11, 88, 0
13, 372420, Note_on_c, 11, 88, 52
13, 372420, Note_on_c, 11, 74, 52
13, 372471, Note_on_c, 11, 88, 0
13, 372471, Note_on_c, 11, 74, 0
13, 372480, Note_on_c, 11, 86, 52
13, 372480, Note_on_c, 11, 74, 52
13, 372531, Note_on_c, 11, 86, 0
13, 372531, Note_on_c, 11, 74, 0
13, 372540, Note_on_c, 11, 74, 52
13, 372540, Note_on_c, 11, 86, 52
13, 372591, Note_on_c, 11, 74, 0
13, 372591, Note_on_c, 11, 86, 0
13, 372600, Note_on_c, 11, 74, 52
13, 372600, Note_on_c, 11, 86, 52
13, 372651, Note_on_c, 11, 74, 0
13, 372651, Note_on_c, 11, 86, 0
13, 372660, Note_on_c, 11, 74, 52
13, 372660, Note_on_c, 11, 86, 52
13, 372711, Note_on_c, 11, 74, 0
13, 372711, Note_on_c, 11, 86, 0
13, 372720, Note_on_c, 11, 74, 76
13, 372720, Note_on_c, 11, 88, 76
13, 372771, Note_on_c, 11, 74, 0
13, 372771, Note_on_c, 11, 88, 0
13, 372780, Note_on_c, 11, 74, 52
13, 372780, Note_on_c, 11, 88, 52
13, 372831, Note_on_c, 11, 74, 0
13, 372831, Note_on_c, 11, 88, 0
13, 372840, Note_on_c, 11, 88, 52
13, 372840, Note_on_c, 11, 74, 52
13, 372891, Note_on_c, 11, 88, 0
13, 372891, Note_on_c, 11, 74, 0
13, 372900, Note_on_c, 11, 88, 52
13, 372900, Note_on_c, 11, 74, 52
13, 372951, Note_on_c, 11, 88, 0
13, 372951, Note_on_c, 11, 74, 0
13, 372960, Note_on_c, 11, 86, 52
13, 372960, Note_on_c, 11, 74, 52
13, 373011, Note_on_c, 11, 86, 0
13, 373011, Note_on_c, 11, 74, 0
13, 373020, Note_on_c, 11, 74, 52
13, 373020, Note_on_c, 11, 86, 52
13, 373071, Note_on_c, 11, 74, 0
13, 373071, Note_on_c, 11, 86, 0
13, 373080, Note_on_c, 11, 86, 52
13, 373080, Note_on_c, 11, 74, 52
13, 373131, Note_on_c, 11, 86, 0
13, 373131, Note_on_c, 11, 74, 0
13, 373140, Note_on_c, 11, 86, 52
13, 373140, Note_on_c, 11, 74, 52
13, 373191, Note_on_c, 11, 86, 0
13, 373191, Note_on_c, 11, 74, 0
13, 373200, Note_on_c, 11, 74, 76
13, 373200, Note_on_c, 11, 88, 76
13, 373251, Note_on_c, 11, 74, 0
13, 373251, Note_on_c, 11, 88, 0
13, 373260, Note_on_c, 11, 88, 52
13, 373260, Note_on_c, 11, 74, 52
13, 373311, Note_on_c, 11, 88, 0
13, 373311, Note_on_c, 11, 74, 0
13, 373320, Note_on_c, 11, 74, 52
13, 373320, Note_on_c, 11, 88, 52
13, 373371, Note_on_c, 11, 74, 0
13, 373371, Note_on_c, 11, 88, 0
13, 373380, Note_on_c, 11, 88, 52
13, 373380, Note_on_c, 11, 74, 52
13, 373431, Note_on_c, 11, 88, 0
13, 373431, Note_on_c, 11, 74, 0
13, 373440, Note_on_c, 11, 86, 52
13, 373440, Note_on_c, 11, 74, 52
13, 373491, Note_on_c, 11, 86, 0
13, 373491, Note_on_c, 11, 74, 0
13, 373500, Note_on_c, 11, 74, 52
13, 373500, Note_on_c, 11, 86, 52
13, 373551, Note_on_c, 11, 74, 0
13, 373551, Note_on_c, 11, 86, 0
13, 373560, Note_on_c, 11, 86, 52
13, 373560, Note_on_c, 11, 74, 52
13, 373611, Note_on_c, 11, 86, 0
13, 373611, Note_on_c, 11, 74, 0
13, 373620, Note_on_c, 11, 86, 52
13, 373620, Note_on_c, 11, 74, 52
13, 373671, Note_on_c, 11, 86, 0
13, 373671, Note_on_c, 11, 74, 0
13, 373680, Note_on_c, 11, 88, 76
13, 373680, Note_on_c, 11, 74, 76
13, 373731, Note_on_c, 11, 88, 0
13, 373731, Note_on_c, 11, 74, 0
13, 373740, Note_on_c, 11, 74, 52
13, 373740, Note_on_c, 11, 88, 52
13, 373791, Note_on_c, 11, 74, 0
13, 373791, Note_on_c, 11, 88, 0
13, 373800, Note_on_c, 11, 74, 52
13, 373800, Note_on_c, 11, 88, 52
13, 373851, Note_on_c, 11, 74, 0
13, 373851, Note_on_c, 11, 88, 0
13, 373860, Note_on_c, 11, 74, 52
13, 373860, Note_on_c, 11, 88, 52
13, 373911, Note_on_c, 11, 74, 0
13, 373911, Note_on_c, 11, 88, 0
13, 373920, Note_on_c, 11, 86, 84
13, 373920, Note_on_c, 11, 74, 84
13, 373971, Note_on_c, 11, 86, 0
13, 373971, Note_on_c, 11, 74, 0
13, 373980, Note_on_c, 11, 86, 84
13, 374031, Note_on_c, 11, 86, 0
13, 374040, Note_on_c, 11, 86, 84
13, 374091, Note_on_c, 11, 86, 0
13, 374100, Note_on_c, 11, 86, 84
13, 374151, Note_on_c, 11, 86, 0
13, 374160, Note_on_c, 11, 81, 84
13, 374211, Note_on_c, 11, 81, 0
13, 374220, Note_on_c, 11, 81, 84
13, 374271, Note_on_c, 11, 81, 0
13, 374280, Note_on_c, 11, 78, 84
13, 374331, Note_on_c, 11, 78, 0
13, 374340, Note_on_c, 11, 78, 84
13, 374391, Note_on_c, 11, 78, 0
13, 374400, Note_on_c, 11, 74, 84
13, 374451, Note_on_c, 11, 74, 0
13, 374460, Note_on_c, 11, 74, 84
13, 374511, Note_on_c, 11, 74, 0
13, 374520, Note_on_c, 11, 81, 84
13, 374571, Note_on_c, 11, 81, 0
13, 374580, Note_on_c, 11, 81, 84
13, 374631, Note_on_c, 11, 81, 0
13, 374640, Note_on_c, 11, 78, 84
13, 374691, Note_on_c, 11, 78, 0
13, 374700, Note_on_c, 11, 78, 84
13, 374751, Note_on_c, 11, 78, 0
13, 374760, Note_on_c, 11, 74, 84
13, 374811, Note_on_c, 11, 74, 0
13, 374820, Note_on_c, 11, 74, 84
13, 374871, Note_on_c, 11, 74, 0
13, 374880, Note_on_c, 11, 69, 84
13, 374931, Note_on_c, 11, 69, 0
13, 374940, Note_on_c, 11, 69, 84
13, 374991, Note_on_c, 11, 69, 0
13, 375000, Note_on_c, 11, 78, 84
13, 375051, Note_on_c, 11, 78, 0
13, 375060, Note_on_c, 11, 78, 84
13, 375111, Note_on_c, 11, 78, 0
13, 375120, Note_on_c, 11, 74, 84
13, 375171, Note_on_c, 11, 74, 0
13, 375180, Note_on_c, 11, 74, 84
13, 375231, Note_on_c, 11, 74, 0
13, 375240, Note_on_c, 11, 69, 84
13, 375291, Note_on_c, 11, 69, 0
13, 375300, Note_on_c, 11, 69, 84
13, 375351, Note_on_c, 11, 69, 0
13, 375360, Note_on_c, 11, 66, 84
13, 375411, Note_on_c, 11, 66, 0
13, 375420, Note_on_c, 11, 66, 84
13, 375471, Note_on_c, 11, 66, 0
13, 375480, Note_on_c, 11, 74, 84
13, 375531, Note_on_c, 11, 74, 0
13, 375540, Note_on_c, 11, 74, 84
13, 375591, Note_on_c, 11, 74, 0
13, 375600, Note_on_c, 11, 69, 84
13, 375651, Note_on_c, 11, 69, 0
13, 375660, Note_on_c, 11, 69, 84
13, 375711, Note_on_c, 11, 69, 0
13, 375720, Note_on_c, 11, 66, 84
13, 375771, Note_on_c, 11, 66, 0
13, 375780, Note_on_c, 11, 66, 84
13, 375831, Note_on_c, 11, 66, 0
13, 375840, Note_on_c, 11, 62, 84
13, 375891, Note_on_c, 11, 62, 0
13, 375900, Note_on_c, 11, 62, 84
13, 375951, Note_on_c, 11, 62, 0
13, 375960, Note_on_c, 11, 81, 84
13, 376011, Note_on_c, 11, 81, 0
13, 376020, Note_on_c, 11, 81, 84
13, 376071, Note_on_c, 11, 81, 0
13, 376080, Note_on_c, 11, 78, 84
13, 376131, Note_on_c, 11, 78, 0
13, 376140, Note_on_c, 11, 78, 84
13, 376191, Note_on_c, 11, 78, 0
13, 376200, Note_on_c, 11, 74, 84
13, 376251, Note_on_c, 11, 74, 0
13, 376260, Note_on_c, 11, 74, 84
13, 376311, Note_on_c, 11, 74, 0
13, 376320, Note_on_c, 11, 69, 84
13, 376371, Note_on_c, 11, 69, 0
13, 376380, Note_on_c, 11, 69, 84
13, 376431, Note_on_c, 11, 69, 0
13, 376440, Note_on_c, 11, 78, 84
13, 376491, Note_on_c, 11, 78, 0
13, 376500, Note_on_c, 11, 78, 84
13, 376551, Note_on_c, 11, 78, 0
13, 376560, Note_on_c, 11, 74, 84
13, 376611, Note_on_c, 11, 74, 0
13, 376620, Note_on_c, 11, 74, 84
13, 376671, Note_on_c, 11, 74, 0
13, 376680, Note_on_c, 11, 69, 84
13, 376731, Note_on_c, 11, 69, 0
13, 376740, Note_on_c, 11, 69, 84
13, 376791, Note_on_c, 11, 69, 0
13, 376800, Note_on_c, 11, 66, 84
13, 376851, Note_on_c, 11, 66, 0
13, 376860, Note_on_c, 11, 66, 84
13, 376911, Note_on_c, 11, 66, 0
13, 376920, Note_on_c, 11, 74, 84
13, 376971, Note_on_c, 11, 74, 0
13, 376980, Note_on_c, 11, 74, 84
13, 377031, Note_on_c, 11, 74, 0
13, 377040, Note_on_c, 11, 69, 84
13, 377091, Note_on_c, 11, 69, 0
13, 377100, Note_on_c, 11, 69, 84
13, 377151, Note_on_c, 11, 69, 0
13, 377160, Note_on_c, 11, 66, 84
13, 377211, Note_on_c, 11, 66, 0
13, 377220, Note_on_c, 11, 66, 84
13, 377271, Note_on_c, 11, 66, 0
13, 377280, Note_on_c, 11, 62, 84
13, 377331, Note_on_c, 11, 62, 0
13, 377340, Note_on_c, 11, 62, 84
13, 377391, Note_on_c, 11, 62, 0
13, 377400, Note_on_c, 11, 74, 84
13, 377451, Note_on_c, 11, 74, 0
13, 377460, Note_on_c, 11, 74, 84
13, 377511, Note_on_c, 11, 74, 0
13, 377520, Note_on_c, 11, 69, 84
13, 377571, Note_on_c, 11, 69, 0
13, 377580, Note_on_c, 11, 69, 84
13, 377631, Note_on_c, 11, 69, 0
13, 377640, Note_on_c, 11, 66, 84
13, 377691, Note_on_c, 11, 66, 0
13, 377700, Note_on_c, 11, 66, 84
13, 377751, Note_on_c, 11, 66, 0
13, 377760, Note_on_c, 11, 62, 84
13, 377999, Note_on_c, 11, 62, 0
13, 378720, Note_on_c, 11, 62, 76
13, 378720, Note_on_c, 11, 78, 76
13, 378720, Note_on_c, 11, 69, 76
13, 378959, Note_on_c, 11, 62, 0
13, 378959, Note_on_c, 11, 78, 0
13, 378959, Note_on_c, 11, 69, 0
13, 381480, Note_on_c, 11, 62, 52
13, 381519, Note_on_c, 11, 62, 0
13, 381520, Note_on_c, 11, 64, 52
13, 381559, Note_on_c, 11, 64, 0
13, 381560, Note_on_c, 11, 66, 52
13, 381591, Note_on_c, 11, 66, 0
13, 381600, Note_on_c, 11, 67, 52
13, 381839, Note_on_c, 11, 67, 0
13, 383400, Note_on_c, 11, 59, 52
13, 383439, Note_on_c, 11, 59, 0
13, 383440, Note_on_c, 11, 61, 52
13, 383479, Note_on_c, 11, 61, 0
13, 383480, Note_on_c, 11, 63, 52
13, 383511, Note_on_c, 11, 63, 0
13, 383520, Note_on_c, 11, 64, 52
13, 383759, Note_on_c, 11, 64, 0
13, 385320, Note_on_c, 11, 69, 52
13, 385359, Note_on_c, 11, 69, 0
13, 385360, Note_on_c, 11, 71, 52
13, 385399, Note_on_c, 11, 71, 0
13, 385400, Note_on_c, 11, 73, 52
13, 385431, Note_on_c, 11, 73, 0
13, 385440, Note_on_c, 11, 74, 76
13, 385679, Note_on_c, 11, 74, 0
13, 386160, Note_on_c, 11, 71, 76
13, 386219, Note_on_c, 11, 71, 0
13, 386220, Note_on_c, 11, 70, 76
13, 386279, Note_on_c, 11, 70, 0
13, 386280, Note_on_c, 11, 71, 76
13, 386339, Note_on_c, 11, 71, 0
13, 386340, Note_on_c, 11, 73, 76
13, 386391, Note_on_c, 11, 73, 0
13, 386400, Note_on_c, 11, 74, 84
13, 387119, Note_on_c, 11, 74, 0
13, 387120, Note_on_c, 11, 75, 76
13, 387344, Note_on_c, 11, 75, 0
13, 387360, Note_on_c, 11, 76, 76
13, 387539, Note_on_c, 11, 76, 0
13, 388080, Note_on_c, 11, 73, 76
13, 388139, Note_on_c, 11, 73, 0
13, 388140, Note_on_c, 11, 71, 76
13, 388199, Note_on_c, 11, 71, 0
13, 388200, Note_on_c, 11, 73, 76
13, 388259, Note_on_c, 11, 73, 0
13, 388260, Note_on_c, 11, 74, 76
13, 388311, Note_on_c, 11, 74, 0
13, 388320, Note_on_c, 11, 76, 84
13, 389039, Note_on_c, 11, 76, 0
13, 389040, Note_on_c, 11, 77, 76
13, 389264, Note_on_c, 11, 77, 0
13, 389280, Note_on_c, 11, 78, 76
13, 389459, Note_on_c, 11, 78, 0
13, 389520, Note_on_c, 11, 74, 76
13, 389579, Note_on_c, 11, 74, 0
13, 389580, Note_on_c, 11, 73, 76
13, 389639, Note_on_c, 11, 73, 0
13, 389640, Note_on_c, 11, 74, 76
13, 389699, Note_on_c, 11, 74, 0
13, 389700, Note_on_c, 11, 76, 76
13, 389751, Note_on_c, 11, 76, 0
13, 389760, Note_on_c, 11, 78, 84
13, 389939, Note_on_c, 11, 78, 0
13, 390000, Note_on_c, 11, 79, 76
13, 390059, Note_on_c, 11, 79, 0
13, 390060, Note_on_c, 11, 78, 76
13, 390119, Note_on_c, 11, 78, 0
13, 390120, Note_on_c, 11, 79, 76
13, 390179, Note_on_c, 11, 79, 0
13, 390180, Note_on_c, 11, 81, 76
13, 390231, Note_on_c, 11, 81, 0
13, 390240, Note_on_c, 11, 83, 84
13, 390419, Note_on_c, 11, 83, 0
13, 390480, Note_on_c, 11, 79, 76
13, 390539, Note_on_c, 11, 79, 0
13, 390540, Note_on_c, 11, 78, 76
13, 390599, Note_on_c, 11, 78, 0
13, 390600, Note_on_c, 11, 79, 76
13, 390659, Note_on_c, 11, 79, 0
13, 390660, Note_on_c, 11, 81, 76
13, 390711, Note_on_c, 11, 81, 0
13, 390720, Note_on_c, 11, 83, 84
13, 390899, Note_on_c, 11, 83, 0
13, 390960, Note_on_c, 11, 85, 76
13, 391019, Note_on_c, 11, 85, 0
13, 391020, Note_on_c, 11, 83, 76
13, 391079, Note_on_c, 11, 83, 0
13, 391080, Note_on_c, 11, 85, 76
13, 391139, Note_on_c, 11, 85, 0
13, 391140, Note_on_c, 11, 86, 76
13, 391191, Note_on_c, 11, 86, 0
13, 391200, Note_on_c, 11, 88, 76
13, 391260, Control_c, 11, 11, 80
13, 391919, Note_on_c, 11, 88, 0
13, 392880, Control_c, 11, 11, 127
13, 393120, Note_on_c, 11, 76, 84
13, 393120, Note_on_c, 11, 85, 84
13, 393171, Note_on_c, 11, 76, 0
13, 393171, Note_on_c, 11, 85, 0
13, 393180, Note_on_c, 11, 85, 84
13, 393180, Note_on_c, 11, 76, 84
13, 393231, Note_on_c, 11, 85, 0
13, 393231, Note_on_c, 11, 76, 0
13, 393240, Note_on_c, 11, 85, 84
13, 393240, Note_on_c, 11, 76, 84
13, 393291, Note_on_c, 11, 85, 0
13, 393291, Note_on_c, 11, 76, 0
13, 393300, Note_on_c, 11, 76, 84
13, 393300, Note_on_c, 11, 85, 84
13, 393351, Note_on_c, 11, 76, 0
13, 393351, Note_on_c, 11, 85, 0
13, 393360, Note_on_c, 11, 76, 84
13, 393360, Note_on_c, 11, 85, 84
13, 393411, Note_on_c, 11, 76, 0
13, 393411, Note_on_c, 11, 85, 0
13, 393420, Note_on_c, 11, 76, 84
13, 393420, Note_on_c, 11, 85, 84
13, 393471, Note_on_c, 11, 76, 0
13, 393471, Note_on_c, 11, 85, 0
13, 393480, Note_on_c, 11, 85, 84
13, 393480, Note_on_c, 11, 76, 84
13, 393531, Note_on_c, 11, 85, 0
13, 393531, Note_on_c, 11, 76, 0
13, 393540, Note_on_c, 11, 85, 84
13, 393540, Note_on_c, 11, 76, 84
13, 393591, Note_on_c, 11, 85, 0
13, 393591, Note_on_c, 11, 76, 0
13, 393600, Note_on_c, 11, 85, 84
13, 393600, Note_on_c, 11, 76, 84
13, 393651, Note_on_c, 11, 85, 0
13, 393651, Note_on_c, 11, 76, 0
13, 393660, Note_on_c, 11, 76, 84
13, 393660, Note_on_c, 11, 85, 84
13, 393711, Note_on_c, 11, 76, 0
13, 393711, Note_on_c, 11, 85, 0
13, 393720, Note_on_c, 11, 85, 84
13, 393720, Note_on_c, 11, 76, 84
13, 393771, Note_on_c, 11, 85, 0
13, 393771, Note_on_c, 11, 76, 0
13, 393780, Note_on_c, 11, 85, 84
13, 393780, Note_on_c, 11, 76, 84
13, 393831, Note_on_c, 11, 85, 0
13, 393831, Note_on_c, 11, 76, 0
13, 393840, Note_on_c, 11, 76, 84
13, 393840, Note_on_c, 11, 85, 84
13, 393891, Note_on_c, 11, 76, 0
13, 393891, Note_on_c, 11, 85, 0
13, 393900, Note_on_c, 11, 85, 84
13, 393900, Note_on_c, 11, 76, 84
13, 393951, Note_on_c, 11, 85, 0
13, 393951, Note_on_c, 11, 76, 0
13, 393960, Note_on_c, 11, 76, 84
13, 393960, Note_on_c, 11, 85, 84
13, 394011, Note_on_c, 11, 76, 0
13, 394011, Note_on_c, 11, 85, 0
13, 394020, Note_on_c, 11, 76, 84
13, 394020, Note_on_c, 11, 85, 84
13, 394071, Note_on_c, 11, 76, 0
13, 394071, Note_on_c, 11, 85, 0
13, 395040, Note_on_c, 11, 86, 84
13, 395040, Note_on_c, 11, 77, 84
13, 395091, Note_on_c, 11, 86, 0
13, 395091, Note_on_c, 11, 77, 0
13, 395100, Note_on_c, 11, 77, 84
13, 395100, Note_on_c, 11, 86, 84
13, 395151, Note_on_c, 11, 77, 0
13, 395151, Note_on_c, 11, 86, 0
13, 395160, Note_on_c, 11, 77, 84
13, 395160, Note_on_c, 11, 86, 84
13, 395211, Note_on_c, 11, 77, 0
13, 395211, Note_on_c, 11, 86, 0
13, 395220, Note_on_c, 11, 86, 84
13, 395220, Note_on_c, 11, 77, 84
13, 395271, Note_on_c, 11, 86, 0
13, 395271, Note_on_c, 11, 77, 0
13, 395280, Note_on_c, 11, 86, 84
13, 395280, Note_on_c, 11, 77, 84
13, 395331, Note_on_c, 11, 86, 0
13, 395331, Note_on_c, 11, 77, 0
13, 395340, Note_on_c, 11, 86, 84
13, 395340, Note_on_c, 11, 77, 84
13, 395391, Note_on_c, 11, 86, 0
13, 395391, Note_on_c, 11, 77, 0
13, 395400, Note_on_c, 11, 86, 84
13, 395400, Note_on_c, 11, 77, 84
13, 395451, Note_on_c, 11, 86, 0
13, 395451, Note_on_c, 11, 77, 0
13, 395460, Note_on_c, 11, 77, 84
13, 395460, Note_on_c, 11, 86, 84
13, 395511, Note_on_c, 11, 77, 0
13, 395511, Note_on_c, 11, 86, 0
13, 395520, Note_on_c, 11, 77, 84
13, 395520, Note_on_c, 11, 86, 84
13, 395571, Note_on_c, 11, 77, 0
13, 395571, Note_on_c, 11, 86, 0
13, 395580, Note_on_c, 11, 86, 84
13, 395580, Note_on_c, 11, 77, 84
13, 395631, Note_on_c, 11, 86, 0
13, 395631, Note_on_c, 11, 77, 0
13, 395640, Note_on_c, 11, 77, 84
13, 395640, Note_on_c, 11, 86, 84
13, 395691, Note_on_c, 11, 77, 0
13, 395691, Note_on_c, 11, 86, 0
13, 395700, Note_on_c, 11, 86, 84
13, 395700, Note_on_c, 11, 77, 84
13, 395751, Note_on_c, 11, 86, 0
13, 395751, Note_on_c, 11, 77, 0
13, 395760, Note_on_c, 11, 86, 84
13, 395760, Note_on_c, 11, 77, 84
13, 395811, Note_on_c, 11, 86, 0
13, 395811, Note_on_c, 11, 77, 0
13, 395820, Note_on_c, 11, 77, 84
13, 395820, Note_on_c, 11, 86, 84
13, 395871, Note_on_c, 11, 77, 0
13, 395871, Note_on_c, 11, 86, 0
13, 395880, Note_on_c, 11, 77, 84
13, 395880, Note_on_c, 11, 86, 84
13, 395931, Note_on_c, 11, 77, 0
13, 395931, Note_on_c, 11, 86, 0
13, 395940, Note_on_c, 11, 77, 84
13, 395940, Note_on_c, 11, 86, 84
13, 395991, Note_on_c, 11, 77, 0
13, 395991, Note_on_c, 11, 86, 0
13, 396000, Note_on_c, 11, 76, 84
13, 396000, Note_on_c, 11, 86, 84
13, 396051, Note_on_c, 11, 76, 0
13, 396051, Note_on_c, 11, 86, 0
13, 396060, Note_on_c, 11, 86, 84
13, 396060, Note_on_c, 11, 76, 84
13, 396111, Note_on_c, 11, 86, 0
13, 396111, Note_on_c, 11, 76, 0
13, 396120, Note_on_c, 11, 76, 84
13, 396120, Note_on_c, 11, 86, 84
13, 396171, Note_on_c, 11, 76, 0
13, 396171, Note_on_c, 11, 86, 0
13, 396180, Note_on_c, 11, 86, 84
13, 396180, Note_on_c, 11, 76, 84
13, 396231, Note_on_c, 11, 86, 0
13, 396231, Note_on_c, 11, 76, 0
13, 396240, Note_on_c, 11, 86, 84
13, 396240, Note_on_c, 11, 76, 84
13, 396291, Note_on_c, 11, 86, 0
13, 396291, Note_on_c, 11, 76, 0
13, 396300, Note_on_c, 11, 86, 84
13, 396300, Note_on_c, 11, 76, 84
13, 396351, Note_on_c, 11, 86, 0
13, 396351, Note_on_c, 11, 76, 0
13, 396360, Note_on_c, 11, 76, 84
13, 396360, Note_on_c, 11, 86, 84
13, 396411, Note_on_c, 11, 76, 0
13, 396411, Note_on_c, 11, 86, 0
13, 396420, Note_on_c, 11, 86, 84
13, 396420, Note_on_c, 11, 76, 84
13, 396471, Note_on_c, 11, 86, 0
13, 396471, Note_on_c, 11, 76, 0
13, 396480, Note_on_c, 11, 85, 84
13, 396480, Note_on_c, 11, 76, 84
13, 396531, Note_on_c, 11, 85, 0
13, 396531, Note_on_c, 11, 76, 0
13, 396540, Note_on_c, 11, 85, 84
13, 396540, Note_on_c, 11, 76, 84
13, 396591, Note_on_c, 11, 85, 0
13, 396591, Note_on_c, 11, 76, 0
13, 396600, Note_on_c, 11, 85, 84
13, 396600, Note_on_c, 11, 76, 84
13, 396651, Note_on_c, 11, 85, 0
13, 396651, Note_on_c, 11, 76, 0
13, 396660, Note_on_c, 11, 76, 84
13, 396660, Note_on_c, 11, 85, 84
13, 396711, Note_on_c, 11, 76, 0
13, 396711, Note_on_c, 11, 85, 0
13, 396720, Note_on_c, 11, 85, 84
13, 396720, Note_on_c, 11, 76, 84
13, 396771, Note_on_c, 11, 85, 0
13, 396771, Note_on_c, 11, 76, 0
13, 396780, Note_on_c, 11, 76, 84
13, 396780, Note_on_c, 11, 85, 84
13, 396831, Note_on_c, 11, 76, 0
13, 396831, Note_on_c, 11, 85, 0
13, 396840, Note_on_c, 11, 76, 84
13, 396840, Note_on_c, 11, 85, 84
13, 396891, Note_on_c, 11, 76, 0
13, 396891, Note_on_c, 11, 85, 0
13, 396900, Note_on_c, 11, 76, 84
13, 396900, Note_on_c, 11, 85, 84
13, 396951, Note_on_c, 11, 76, 0
13, 396951, Note_on_c, 11, 85, 0
13, 396960, Note_on_c, 11, 74, 84
13, 396960, Note_on_c, 11, 86, 84
13, 397199, Note_on_c, 11, 74, 0
13, 397199, Note_on_c, 11, 86, 0
13, 398880, Note_on_c, 11, 72, 84
13, 398880, Note_on_c, 11, 84, 84
13, 398931, Note_on_c, 11, 72, 0
13, 398931, Note_on_c, 11, 84, 0
13, 398940, Note_on_c, 11, 72, 84
13, 398940, Note_on_c, 11, 84, 84
13, 398991, Note_on_c, 11, 72, 0
13, 398991, Note_on_c, 11, 84, 0
13, 399000, Note_on_c, 11, 72, 84
13, 399000, Note_on_c, 11, 84, 84
13, 399051, Note_on_c, 11, 72, 0
13, 399051, Note_on_c, 11, 84, 0
13, 399060, Note_on_c, 11, 72, 84
13, 399060, Note_on_c, 11, 84, 84
13, 399111, Note_on_c, 11, 72, 0
13, 399111, Note_on_c, 11, 84, 0
13, 399120, Note_on_c, 11, 72, 84
13, 399120, Note_on_c, 11, 84, 84
13, 399171, Note_on_c, 11, 72, 0
13, 399171, Note_on_c, 11, 84, 0
13, 399180, Note_on_c, 11, 72, 84
13, 399180, Note_on_c, 11, 84, 84
13, 399231, Note_on_c, 11, 72, 0
13, 399231, Note_on_c, 11, 84, 0
13, 399240, Note_on_c, 11, 72, 84
13, 399240, Note_on_c, 11, 84, 84
13, 399291, Note_on_c, 11, 72, 0
13, 399291, Note_on_c, 11, 84, 0
13, 399300, Note_on_c, 11, 72, 84
13, 399300, Note_on_c, 11, 84, 84
13, 399351, Note_on_c, 11, 72, 0
13, 399351, Note_on_c, 11, 84, 0
13, 399360, Note_on_c, 11, 84, 84
13, 399360, Note_on_c, 11, 72, 84
13, 399411, Note_on_c, 11, 84, 0
13, 399411, Note_on_c, 11, 72, 0
13, 399420, Note_on_c, 11, 84, 84
13, 399420, Note_on_c, 11, 72, 84
13, 399471, Note_on_c, 11, 84, 0
13, 399471, Note_on_c, 11, 72, 0
13, 399480, Note_on_c, 11, 72, 84
13, 399480, Note_on_c, 11, 84, 84
13, 399531, Note_on_c, 11, 72, 0
13, 399531, Note_on_c, 11, 84, 0
13, 399540, Note_on_c, 11, 72, 84
13, 399540, Note_on_c, 11, 84, 84
13, 399591, Note_on_c, 11, 72, 0
13, 399591, Note_on_c, 11, 84, 0
13, 399600, Note_on_c, 11, 84, 84
13, 399600, Note_on_c, 11, 72, 84
13, 399651, Note_on_c, 11, 84, 0
13, 399651, Note_on_c, 11, 72, 0
13, 399660, Note_on_c, 11, 72, 84
13, 399660, Note_on_c, 11, 84, 84
13, 399711, Note_on_c, 11, 72, 0
13, 399711, Note_on_c, 11, 84, 0
13, 399720, Note_on_c, 11, 72, 84
13, 399720, Note_on_c, 11, 84, 84
13, 399771, Note_on_c, 11, 72, 0
13, 399771, Note_on_c, 11, 84, 0
13, 399780, Note_on_c, 11, 84, 84
13, 399780, Note_on_c, 11, 72, 84
13, 399831, Note_on_c, 11, 84, 0
13, 399831, Note_on_c, 11, 72, 0
13, 400800, Note_on_c, 11, 84, 84
13, 400851, Note_on_c, 11, 84, 0
13, 400860, Note_on_c, 11, 84, 84
13, 400911, Note_on_c, 11, 84, 0
13, 400920, Note_on_c, 11, 84, 84
13, 400971, Note_on_c, 11, 84, 0
13, 400980, Note_on_c, 11, 84, 84
13, 401031, Note_on_c, 11, 84, 0
13, 401040, Note_on_c, 11, 84, 84
13, 401091, Note_on_c, 11, 84, 0
13, 401100, Note_on_c, 11, 84, 84
13, 401151, Note_on_c, 11, 84, 0
13, 401160, Note_on_c, 11, 84, 84
13, 401211, Note_on_c, 11, 84, 0
13, 401220, Note_on_c, 11, 84, 84
13, 401271, Note_on_c, 11, 84, 0
13, 401280, Note_on_c, 11, 84, 84
13, 401331, Note_on_c, 11, 84, 0
13, 401340, Note_on_c, 11, 84, 84
13, 401391, Note_on_c, 11, 84, 0
13, 401400, Note_on_c, 11, 84, 84
13, 401451, Note_on_c, 11, 84, 0
13, 401460, Note_on_c, 11, 84, 84
13, 401511, Note_on_c, 11, 84, 0
13, 401520, Note_on_c, 11, 84, 84
13, 401571, Note_on_c, 11, 84, 0
13, 401580, Note_on_c, 11, 84, 84
13, 401631, Note_on_c, 11, 84, 0
13, 401640, Note_on_c, 11, 84, 84
13, 401691, Note_on_c, 11, 84, 0
13, 401700, Note_on_c, 11, 84, 84
13, 401751, Note_on_c, 11, 84, 0
13, 401760, Note_on_c, 11, 84, 84
13, 401811, Note_on_c, 11, 84, 0
13, 401820, Note_on_c, 11, 84, 84
13, 401871, Note_on_c, 11, 84, 0
13, 401880, Note_on_c, 11, 84, 84
13, 401931, Note_on_c, 11, 84, 0
13, 401940, Note_on_c, 11, 84, 84
13, 401991, Note_on_c, 11, 84, 0
13, 402000, Note_on_c, 11, 84, 84
13, 402051, Note_on_c, 11, 84, 0
13, 402060, Note_on_c, 11, 84, 84
13, 402111, Note_on_c, 11, 84, 0
13, 402120, Note_on_c, 11, 84, 84
13, 402171, Note_on_c, 11, 84, 0
13, 402180, Note_on_c, 11, 84, 84
13, 402231, Note_on_c, 11, 84, 0
13, 402240, Note_on_c, 11, 84, 84
13, 402291, Note_on_c, 11, 84, 0
13, 402300, Note_on_c, 11, 84, 84
13, 402351, Note_on_c, 11, 84, 0
13, 402360, Note_on_c, 11, 84, 84
13, 402411, Note_on_c, 11, 84, 0
13, 402420, Note_on_c, 11, 84, 84
13, 402471, Note_on_c, 11, 84, 0
13, 402480, Note_on_c, 11, 84, 84
13, 402531, Note_on_c, 11, 84, 0
13, 402540, Note_on_c, 11, 84, 84
13, 402591, Note_on_c, 11, 84, 0
13, 402600, Note_on_c, 11, 84, 84
13, 402651, Note_on_c, 11, 84, 0
13, 402660, Note_on_c, 11, 84, 84
13, 402711, Note_on_c, 11, 84, 0
13, 402720, Note_on_c, 11, 84, 84
13, 402771, Note_on_c, 11, 84, 0
13, 402780, Note_on_c, 11, 84, 84
13, 402831, Note_on_c, 11, 84, 0
13, 402840, Note_on_c, 11, 84, 84
13, 402891, Note_on_c, 11, 84, 0
13, 402900, Note_on_c, 11, 84, 84
13, 402951, Note_on_c, 11, 84, 0
13, 402960, Note_on_c, 11, 84, 84
13, 403011, Note_on_c, 11, 84, 0
13, 403020, Note_on_c, 11, 84, 84
13, 403071, Note_on_c, 11, 84, 0
13, 403080, Note_on_c, 11, 84, 84
13, 403131, Note_on_c, 11, 84, 0
13, 403140, Note_on_c, 11, 84, 84
13, 403191, Note_on_c, 11, 84, 0
13, 403200, Note_on_c, 11, 84, 84
13, 403251, Note_on_c, 11, 84, 0
13, 403260, Note_on_c, 11, 84, 84
13, 403311, Note_on_c, 11, 84, 0
13, 403320, Note_on_c, 11, 84, 84
13, 403371, Note_on_c, 11, 84, 0
13, 403380, Note_on_c, 11, 84, 84
13, 403431, Note_on_c, 11, 84, 0
13, 403440, Note_on_c, 11, 84, 84
13, 403491, Note_on_c, 11, 84, 0
13, 403500, Note_on_c, 11, 84, 84
13, 403551, Note_on_c, 11, 84, 0
13, 403560, Note_on_c, 11, 84, 84
13, 403611, Note_on_c, 11, 84, 0
13, 403620, Note_on_c, 11, 84, 84
13, 403671, Note_on_c, 11, 84, 0
13, 403680, Note_on_c, 11, 84, 84
13, 403731, Note_on_c, 11, 84, 0
13, 403740, Note_on_c, 11, 84, 84
13, 403791, Note_on_c, 11, 84, 0
13, 403800, Note_on_c, 11, 84, 84
13, 403851, Note_on_c, 11, 84, 0
13, 403860, Note_on_c, 11, 84, 84
13, 403911, Note_on_c, 11, 84, 0
13, 403920, Note_on_c, 11, 84, 84
13, 403971, Note_on_c, 11, 84, 0
13, 403980, Note_on_c, 11, 84, 84
13, 404031, Note_on_c, 11, 84, 0
13, 404040, Note_on_c, 11, 84, 84
13, 404091, Note_on_c, 11, 84, 0
13, 404100, Note_on_c, 11, 84, 84
13, 404151, Note_on_c, 11, 84, 0
13, 404160, Note_on_c, 11, 84, 84
13, 404211, Note_on_c, 11, 84, 0
13, 404220, Note_on_c, 11, 84, 84
13, 404271, Note_on_c, 11, 84, 0
13, 404280, Note_on_c, 11, 84, 84
13, 404331, Note_on_c, 11, 84, 0
13, 404340, Note_on_c, 11, 84, 84
13, 404391, Note_on_c, 11, 84, 0
13, 404400, Note_on_c, 11, 84, 84
13, 404451, Note_on_c, 11, 84, 0
13, 404460, Note_on_c, 11, 84, 84
13, 404511, Note_on_c, 11, 84, 0
13, 404520, Note_on_c, 11, 84, 84
13, 404571, Note_on_c, 11, 84, 0
13, 404580, Note_on_c, 11, 84, 84
13, 404631, Note_on_c, 11, 84, 0
13, 404640, Note_on_c, 11, 87, 84
13, 404691, Note_on_c, 11, 87, 0
13, 404700, Note_on_c, 11, 87, 84
13, 404751, Note_on_c, 11, 87, 0
13, 404760, Note_on_c, 11, 87, 84
13, 404811, Note_on_c, 11, 87, 0
13, 404820, Note_on_c, 11, 87, 84
13, 404871, Note_on_c, 11, 87, 0
13, 404880, Note_on_c, 11, 87, 84
13, 404931, Note_on_c, 11, 87, 0
13, 404940, Note_on_c, 11, 87, 84
13, 404991, Note_on_c, 11, 87, 0
13, 405000, Note_on_c, 11, 87, 84
13, 405051, Note_on_c, 11, 87, 0
13, 405060, Note_on_c, 11, 87, 84
13, 405111, Note_on_c, 11, 87, 0
13, 405120, Note_on_c, 11, 87, 84
13, 405171, Note_on_c, 11, 87, 0
13, 405180, Note_on_c, 11, 87, 84
13, 405231, Note_on_c, 11, 87, 0
13, 405240, Note_on_c, 11, 87, 84
13, 405291, Note_on_c, 11, 87, 0
13, 405300, Note_on_c, 11, 87, 84
13, 405351, Note_on_c, 11, 87, 0
13, 405360, Note_on_c, 11, 87, 84
13, 405411, Note_on_c, 11, 87, 0
13, 405420, Note_on_c, 11, 87, 84
13, 405471, Note_on_c, 11, 87, 0
13, 405480, Note_on_c, 11, 87, 84
13, 405531, Note_on_c, 11, 87, 0
13, 405540, Note_on_c, 11, 87, 84
13, 405591, Note_on_c, 11, 87, 0
13, 405600, Note_on_c, 11, 87, 84
13, 405651, Note_on_c, 11, 87, 0
13, 405660, Note_on_c, 11, 87, 84
13, 405711, Note_on_c, 11, 87, 0
13, 405720, Note_on_c, 11, 87, 84
13, 405771, Note_on_c, 11, 87, 0
13, 405780, Note_on_c, 11, 87, 84
13, 405831, Note_on_c, 11, 87, 0
13, 405840, Note_on_c, 11, 87, 84
13, 405891, Note_on_c, 11, 87, 0
13, 405900, Note_on_c, 11, 87, 84
13, 405951, Note_on_c, 11, 87, 0
13, 405960, Note_on_c, 11, 87, 84
13, 406011, Note_on_c, 11, 87, 0
13, 406020, Note_on_c, 11, 87, 84
13, 406071, Note_on_c, 11, 87, 0
13, 406080, Note_on_c, 11, 87, 84
13, 406131, Note_on_c, 11, 87, 0
13, 406140, Note_on_c, 11, 87, 84
13, 406191, Note_on_c, 11, 87, 0
13, 406200, Note_on_c, 11, 87, 84
13, 406251, Note_on_c, 11, 87, 0
13, 406260, Note_on_c, 11, 87, 84
13, 406311, Note_on_c, 11, 87, 0
13, 406320, Note_on_c, 11, 87, 84
13, 406371, Note_on_c, 11, 87, 0
13, 406380, Note_on_c, 11, 87, 84
13, 406431, Note_on_c, 11, 87, 0
13, 406440, Note_on_c, 11, 87, 84
13, 406491, Note_on_c, 11, 87, 0
13, 406500, Note_on_c, 11, 87, 84
13, 406551, Note_on_c, 11, 87, 0
13, 406560, Note_on_c, 11, 90, 84
13, 406611, Note_on_c, 11, 90, 0
13, 406620, Note_on_c, 11, 90, 84
13, 406671, Note_on_c, 11, 90, 0
13, 406680, Note_on_c, 11, 90, 84
13, 406731, Note_on_c, 11, 90, 0
13, 406740, Note_on_c, 11, 90, 84
13, 406791, Note_on_c, 11, 90, 0
13, 406800, Note_on_c, 11, 90, 84
13, 406851, Note_on_c, 11, 90, 0
13, 406860, Note_on_c, 11, 90, 84
13, 406911, Note_on_c, 11, 90, 0
13, 406920, Note_on_c, 11, 90, 84
13, 406971, Note_on_c, 11, 90, 0
13, 406980, Note_on_c, 11, 90, 84
13, 407031, Note_on_c, 11, 90, 0
13, 407040, Note_on_c, 11, 90, 84
13, 407091, Note_on_c, 11, 90, 0
13, 407100, Note_on_c, 11, 90, 84
13, 407151, Note_on_c, 11, 90, 0
13, 407160, Note_on_c, 11, 90, 84
13, 407211, Note_on_c, 11, 90, 0
13, 407220, Note_on_c, 11, 90, 84
13, 407271, Note_on_c, 11, 90, 0
13, 407280, Note_on_c, 11, 90, 84
13, 407331, Note_on_c, 11, 90, 0
13, 407340, Note_on_c, 11, 90, 84
13, 407391, Note_on_c, 11, 90, 0
13, 407400, Note_on_c, 11, 90, 84
13, 407451, Note_on_c, 11, 90, 0
13, 407460, Note_on_c, 11, 90, 84
13, 407511, Note_on_c, 11, 90, 0
13, 407520, Note_on_c, 11, 90, 84
13, 407571, Note_on_c, 11, 90, 0
13, 407580, Note_on_c, 11, 90, 84
13, 407631, Note_on_c, 11, 90, 0
13, 407640, Note_on_c, 11, 90, 84
13, 407691, Note_on_c, 11, 90, 0
13, 407700, Note_on_c, 11, 90, 84
13, 407751, Note_on_c, 11, 90, 0
13, 407760, Note_on_c, 11, 90, 84
13, 407811, Note_on_c, 11, 90, 0
13, 407820, Note_on_c, 11, 90, 84
13, 407871, Note_on_c, 11, 90, 0
13, 407880, Note_on_c, 11, 90, 84
13, 407931, Note_on_c, 11, 90, 0
13, 407940, Note_on_c, 11, 90, 84
13, 407991, Note_on_c, 11, 90, 0
13, 408000, Note_on_c, 11, 90, 84
13, 408051, Note_on_c, 11, 90, 0
13, 408060, Note_on_c, 11, 90, 84
13, 408111, Note_on_c, 11, 90, 0
13, 408120, Note_on_c, 11, 90, 84
13, 408171, Note_on_c, 11, 90, 0
13, 408180, Note_on_c, 11, 90, 84
13, 408231, Note_on_c, 11, 90, 0
13, 408240, Note_on_c, 11, 90, 84
13, 408291, Note_on_c, 11, 90, 0
13, 408300, Note_on_c, 11, 90, 84
13, 408351, Note_on_c, 11, 90, 0
13, 408360, Note_on_c, 11, 90, 84
13, 408411, Note_on_c, 11, 90, 0
13, 408420, Note_on_c, 11, 90, 84
13, 408471, Note_on_c, 11, 90, 0
13, 408480, Note_on_c, 11, 90, 84
13, 408531, Note_on_c, 11, 90, 0
13, 408540, Note_on_c, 11, 90, 84
13, 408591, Note_on_c, 11, 90, 0
13, 408600, Note_on_c, 11, 90, 84
13, 408651, Note_on_c, 11, 90, 0
13, 408660, Note_on_c, 11, 90, 84
13, 408711, Note_on_c, 11, 90, 0
13, 408720, Note_on_c, 11, 90, 84
13, 408771, Note_on_c, 11, 90, 0
13, 408780, Note_on_c, 11, 90, 84
13, 408831, Note_on_c, 11, 90, 0
13, 408840, Note_on_c, 11, 90, 84
13, 408891, Note_on_c, 11, 90, 0
13, 408900, Note_on_c, 11, 90, 84
13, 408951, Note_on_c, 11, 90, 0
13, 408960, Note_on_c, 11, 90, 84
13, 409011, Note_on_c, 11, 90, 0
13, 409020, Note_on_c, 11, 90, 84
13, 409071, Note_on_c, 11, 90, 0
13, 409080, Note_on_c, 11, 90, 84
13, 409131, Note_on_c, 11, 90, 0
13, 409140, Note_on_c, 11, 90, 84
13, 409191, Note_on_c, 11, 90, 0
13, 409200, Note_on_c, 11, 90, 84
13, 409251, Note_on_c, 11, 90, 0
13, 409260, Note_on_c, 11, 90, 84
13, 409311, Note_on_c, 11, 90, 0
13, 409320, Note_on_c, 11, 90, 84
13, 409371, Note_on_c, 11, 90, 0
13, 409380, Note_on_c, 11, 90, 84
13, 409431, Note_on_c, 11, 90, 0
13, 409440, Note_on_c, 11, 90, 84
13, 409491, Note_on_c, 11, 90, 0
13, 409500, Note_on_c, 11, 90, 84
13, 409551, Note_on_c, 11, 90, 0
13, 409560, Note_on_c, 11, 90, 84
13, 409611, Note_on_c, 11, 90, 0
13, 409620, Note_on_c, 11, 90, 84
13, 409671, Note_on_c, 11, 90, 0
13, 409680, Note_on_c, 11, 90, 84
13, 409731, Note_on_c, 11, 90, 0
13, 409740, Note_on_c, 11, 90, 84
13, 409791, Note_on_c, 11, 90, 0
13, 409800, Note_on_c, 11, 90, 84
13, 409851, Note_on_c, 11, 90, 0
13, 409860, Note_on_c, 11, 90, 84
13, 409911, Note_on_c, 11, 90, 0
13, 409920, Note_on_c, 11, 90, 84
13, 409971, Note_on_c, 11, 90, 0
13, 409980, Note_on_c, 11, 90, 84
13, 410031, Note_on_c, 11, 90, 0
13, 410040, Note_on_c, 11, 90, 84
13, 410091, Note_on_c, 11, 90, 0
13, 410100, Note_on_c, 11, 90, 84
13, 410151, Note_on_c, 11, 90, 0
13, 410160, Note_on_c, 11, 90, 84
13, 410211, Note_on_c, 11, 90, 0
13, 410220, Note_on_c, 11, 90, 84
13, 410271, Note_on_c, 11, 90, 0
13, 410280, Note_on_c, 11, 90, 84
13, 410331, Note_on_c, 11, 90, 0
13, 410340, Note_on_c, 11, 90, 84
13, 410391, Note_on_c, 11, 90, 0
13, 410400, Note_on_c, 11, 90, 84
13, 410451, Note_on_c, 11, 90, 0
13, 410460, Note_on_c, 11, 90, 84
13, 410511, Note_on_c, 11, 90, 0
13, 410520, Note_on_c, 11, 90, 84
13, 410571, Note_on_c, 11, 90, 0
13, 410580, Note_on_c, 11, 90, 84
13, 410631, Note_on_c, 11, 90, 0
13, 410640, Note_on_c, 11, 90, 84
13, 410691, Note_on_c, 11, 90, 0
13, 410700, Note_on_c, 11, 90, 84
13, 410751, Note_on_c, 11, 90, 0
13, 410760, Note_on_c, 11, 90, 84
13, 410811, Note_on_c, 11, 90, 0
13, 410820, Note_on_c, 11, 90, 84
13, 410871, Note_on_c, 11, 90, 0
13, 410880, Note_on_c, 11, 88, 84
13, 410931, Note_on_c, 11, 88, 0
13, 410940, Note_on_c, 11, 88, 84
13, 410991, Note_on_c, 11, 88, 0
13, 411000, Note_on_c, 11, 88, 84
13, 411051, Note_on_c, 11, 88, 0
13, 411060, Note_on_c, 11, 88, 84
13, 411111, Note_on_c, 11, 88, 0
13, 411120, Note_on_c, 11, 88, 84
13, 411171, Note_on_c, 11, 88, 0
13, 411180, Note_on_c, 11, 88, 84
13, 411231, Note_on_c, 11, 88, 0
13, 411240, Note_on_c, 11, 88, 84
13, 411291, Note_on_c, 11, 88, 0
13, 411300, Note_on_c, 11, 88, 84
13, 411351, Note_on_c, 11, 88, 0
13, 411360, Note_on_c, 11, 88, 84
13, 411411, Note_on_c, 11, 88, 0
13, 411420, Note_on_c, 11, 88, 84
13, 411471, Note_on_c, 11, 88, 0
13, 411480, Note_on_c, 11, 88, 84
13, 411531, Note_on_c, 11, 88, 0
13, 411540, Note_on_c, 11, 88, 84
13, 411591, Note_on_c, 11, 88, 0
13, 411600, Note_on_c, 11, 88, 84
13, 411651, Note_on_c, 11, 88, 0
13, 411660, Note_on_c, 11, 88, 84
13, 411711, Note_on_c, 11, 88, 0
13, 411720, Note_on_c, 11, 88, 84
13, 411771, Note_on_c, 11, 88, 0
13, 411780, Note_on_c, 11, 88, 84
13, 411831, Note_on_c, 11, 88, 0
13, 411840, Note_on_c, 11, 86, 84
13, 411891, Note_on_c, 11, 86, 0
13, 411900, Note_on_c, 11, 86, 84
13, 411951, Note_on_c, 11, 86, 0
13, 411960, Note_on_c, 11, 86, 84
13, 412011, Note_on_c, 11, 86, 0
13, 412020, Note_on_c, 11, 86, 84
13, 412071, Note_on_c, 11, 86, 0
13, 412080, Note_on_c, 11, 86, 84
13, 412131, Note_on_c, 11, 86, 0
13, 412140, Note_on_c, 11, 86, 84
13, 412191, Note_on_c, 11, 86, 0
13, 412200, Note_on_c, 11, 86, 84
13, 412251, Note_on_c, 11, 86, 0
13, 412260, Note_on_c, 11, 86, 84
13, 412311, Note_on_c, 11, 86, 0
13, 412320, Note_on_c, 11, 86, 92
13, 412371, Note_on_c, 11, 86, 0
13, 412380, Note_on_c, 11, 86, 84
13, 412431, Note_on_c, 11, 86, 0
13, 412440, Note_on_c, 11, 86, 84
13, 412491, Note_on_c, 11, 86, 0
13, 412500, Note_on_c, 11, 86, 84
13, 412551, Note_on_c, 11, 86, 0
13, 412560, Note_on_c, 11, 86, 84
13, 412611, Note_on_c, 11, 86, 0
13, 412620, Note_on_c, 11, 86, 84
13, 412671, Note_on_c, 11, 86, 0
13, 412680, Note_on_c, 11, 86, 84
13, 412731, Note_on_c, 11, 86, 0
13, 412740, Note_on_c, 11, 86, 84
13, 412791, Note_on_c, 11, 86, 0
13, 412800, Note_on_c, 11, 86, 84
13, 412851, Note_on_c, 11, 86, 0
13, 412860, Note_on_c, 11, 86, 84
13, 412911, Note_on_c, 11, 86, 0
13, 412920, Note_on_c, 11, 86, 84
13, 412971, Note_on_c, 11, 86, 0
13, 412980, Note_on_c, 11, 86, 84
13, 413031, Note_on_c, 11, 86, 0
13, 413040, Note_on_c, 11, 86, 84
13, 413091, Note_on_c, 11, 86, 0
13, 413100, Note_on_c, 11, 86, 84
13, 413151, Note_on_c, 11, 86, 0
13, 413160, Note_on_c, 11, 86, 84
13, 413211, Note_on_c, 11, 86, 0
13, 413220, Note_on_c, 11, 86, 84
13, 413271, Note_on_c, 11, 86, 0
13, 413280, Note_on_c, 11, 85, 92
13, 413331, Note_on_c, 11, 85, 0
13, 413340, Note_on_c, 11, 85, 84
13, 413391, Note_on_c, 11, 85, 0
13, 413400, Note_on_c, 11, 85, 84
13, 413451, Note_on_c, 11, 85, 0
13, 413460, Note_on_c, 11, 85, 84
13, 413511, Note_on_c, 11, 85, 0
13, 413520, Note_on_c, 11, 85, 84
13, 413571, Note_on_c, 11, 85, 0
13, 413580, Note_on_c, 11, 85, 84
13, 413631, Note_on_c, 11, 85, 0
13, 413640, Note_on_c, 11, 85, 84
13, 413691, Note_on_c, 11, 85, 0
13, 413700, Note_on_c, 11, 85, 84
13, 413751, Note_on_c, 11, 85, 0
13, 413760, Note_on_c, 11, 85, 84
13, 413811, Note_on_c, 11, 85, 0
13, 413820, Note_on_c, 11, 85, 84
13, 413871, Note_on_c, 11, 85, 0
13, 413880, Note_on_c, 11, 85, 84
13, 413931, Note_on_c, 11, 85, 0
13, 413940, Note_on_c, 11, 85, 84
13, 413991, Note_on_c, 11, 85, 0
13, 414000, Note_on_c, 11, 85, 84
13, 414051, Note_on_c, 11, 85, 0
13, 414060, Note_on_c, 11, 85, 84
13, 414111, Note_on_c, 11, 85, 0
13, 414120, Note_on_c, 11, 85, 84
13, 414171, Note_on_c, 11, 85, 0
13, 414180, Note_on_c, 11, 85, 84
13, 414231, Note_on_c, 11, 85, 0
13, 414240, Note_on_c, 11, 62, 92
13, 414944, Note_on_c, 11, 62, 0
13, 414960, Note_on_c, 11, 74, 92
13, 415139, Note_on_c, 11, 74, 0
13, 415200, Note_on_c, 11, 62, 84
13, 415379, Note_on_c, 11, 62, 0
13, 415440, Note_on_c, 11, 78, 92
13, 415619, Note_on_c, 11, 78, 0
13, 415680, Note_on_c, 11, 62, 84
13, 415859, Note_on_c, 11, 62, 0
13, 415920, Note_on_c, 11, 81, 92
13, 416099, Note_on_c, 11, 81, 0
13, 416160, Note_on_c, 11, 62, 84
13, 416339, Note_on_c, 11, 62, 0
13, 416400, Note_on_c, 11, 86, 92
13, 416579, Note_on_c, 11, 86, 0
13, 416640, Note_on_c, 11, 90, 84
13, 416729, Note_on_c, 11, 90, 0
13, 416760, Note_on_c, 11, 86, 84
13, 416849, Note_on_c, 11, 86, 0
13, 416880, Note_on_c, 11, 81, 84
13, 416969, Note_on_c, 11, 81, 0
13, 417000, Note_on_c, 11, 78, 84
13, 417089, Note_on_c, 11, 78, 0
13, 417120, Note_on_c, 11, 83, 84
13, 417209, Note_on_c, 11, 83, 0
13, 417240, Note_on_c, 11, 79, 84
13, 417329, Note_on_c, 11, 79, 0
13, 417360, Note_on_c, 11, 76, 84
13, 417449, Note_on_c, 11, 76, 0
13, 417480, Note_on_c, 11, 71, 84
13, 417569, Note_on_c, 11, 71, 0
13, 417600, Note_on_c, 11, 79, 84
13, 417689, Note_on_c, 11, 79, 0
13, 417720, Note_on_c, 11, 76, 84
13, 417809, Note_on_c, 11, 76, 0
13, 417840, Note_on_c, 11, 73, 84
13, 417929, Note_on_c, 11, 73, 0
13, 417960, Note_on_c, 11, 69, 84
13, 418049, Note_on_c, 11, 69, 0
13, 418080, Note_on_c, 11, 62, 92
13, 418784, Note_on_c, 11, 62, 0
13, 418800, Note_on_c, 11, 74, 92
13, 418934, Note_on_c, 11, 74, 0
13, 418980, Note_on_c, 11, 74, 84
13, 419024, Note_on_c, 11, 74, 0
13, 419040, Note_on_c, 11, 62, 84
13, 419219, Note_on_c, 11, 62, 0
13, 419280, Note_on_c, 11, 78, 92
13, 419414, Note_on_c, 11, 78, 0
13, 419460, Note_on_c, 11, 78, 84
13, 419504, Note_on_c, 11, 78, 0
13, 419520, Note_on_c, 11, 62, 84
13, 419699, Note_on_c, 11, 62, 0
13, 419760, Note_on_c, 11, 81, 92
13, 419894, Note_on_c, 11, 81, 0
13, 419940, Note_on_c, 11, 81, 84
13, 419984, Note_on_c, 11, 81, 0
13, 420000, Note_on_c, 11, 62, 84
13, 420179, Note_on_c, 11, 62, 0
13, 420240, Note_on_c, 11, 86, 92
13, 420374, Note_on_c, 11, 86, 0
13, 420420, Note_on_c, 11, 86, 84
13, 420464, Note_on_c, 11, 86, 0
13, 420480, Note_on_c, 11, 90, 84
13, 420569, Note_on_c, 11, 90, 0
13, 420600, Note_on_c, 11, 86, 84
13, 420689, Note_on_c, 11, 86, 0
13, 420720, Note_on_c, 11, 81, 84
13, 420809, Note_on_c, 11, 81, 0
13, 420840, Note_on_c, 11, 78, 84
13, 420929, Note_on_c, 11, 78, 0
13, 420960, Note_on_c, 11, 83, 84
13, 421049, Note_on_c, 11, 83, 0
13, 421080, Note_on_c, 11, 79, 84
13, 421169, Note_on_c, 11, 79, 0
13, 421200, Note_on_c, 11, 76, 84
13, 421289, Note_on_c, 11, 76, 0
13, 421320, Note_on_c, 11, 71, 84
13, 421409, Note_on_c, 11, 71, 0
13, 421440, Note_on_c, 11, 79, 84
13, 421529, Note_on_c, 11, 79, 0
13, 421560, Note_on_c, 11, 76, 84
13, 421649, Note_on_c, 11, 76, 0
13, 421680, Note_on_c, 11, 73, 84
13, 421769, Note_on_c, 11, 73, 0
13, 421800, Note_on_c, 11, 69, 84
13, 421889, Note_on_c, 11, 69, 0
13, 421920, Note_on_c, 11, 74, 84
13, 421920, Note_on_c, 11, 62, 84
13, 421971, Note_on_c, 11, 74, 0
13, 421971, Note_on_c, 11, 62, 0
13, 421980, Note_on_c, 11, 86, 84
13, 422031, Note_on_c, 11, 86, 0
13, 422040, Note_on_c, 11, 86, 84
13, 422091, Note_on_c, 11, 86, 0
13, 422100, Note_on_c, 11, 86, 84
13, 422151, Note_on_c, 11, 86, 0
13, 422160, Note_on_c, 11, 86, 84
13, 422211, Note_on_c, 11, 86, 0
13, 422220, Note_on_c, 11, 86, 84
13, 422271, Note_on_c, 11, 86, 0
13, 422280, Note_on_c, 11, 86, 84
13, 422331, Note_on_c, 11, 86, 0
13, 422340, Note_on_c, 11, 86, 84
13, 422391, Note_on_c, 11, 86, 0
13, 422400, Note_on_c, 11, 90, 84
13, 422451, Note_on_c, 11, 90, 0
13, 422460, Note_on_c, 11, 90, 84
13, 422511, Note_on_c, 11, 90, 0
13, 422520, Note_on_c, 11, 86, 84
13, 422571, Note_on_c, 11, 86, 0
13, 422580, Note_on_c, 11, 86, 84
13, 422631, Note_on_c, 11, 86, 0
13, 422640, Note_on_c, 11, 81, 84
13, 422691, Note_on_c, 11, 81, 0
13, 422700, Note_on_c, 11, 81, 84
13, 422751, Note_on_c, 11, 81, 0
13, 422760, Note_on_c, 11, 78, 84
13, 422811, Note_on_c, 11, 78, 0
13, 422820, Note_on_c, 11, 78, 84
13, 422871, Note_on_c, 11, 78, 0
13, 422880, Note_on_c, 11, 83, 84
13, 422931, Note_on_c, 11, 83, 0
13, 422940, Note_on_c, 11, 83, 84
13, 422991, Note_on_c, 11, 83, 0
13, 423000, Note_on_c, 11, 79, 84
13, 423051, Note_on_c, 11, 79, 0
13, 423060, Note_on_c, 11, 79, 84
13, 423111, Note_on_c, 11, 79, 0
13, 423120, Note_on_c, 11, 76, 84
13, 423171, Note_on_c, 11, 76, 0
13, 423180, Note_on_c, 11, 76, 84
13, 423231, Note_on_c, 11, 76, 0
13, 423240, Note_on_c, 11, 71, 84
13, 423291, Note_on_c, 11, 71, 0
13, 423300, Note_on_c, 11, 71, 84
13, 423351, Note_on_c, 11, 71, 0
13, 423360, Note_on_c, 11, 79, 84
13, 423411, Note_on_c, 11, 79, 0
13, 423420, Note_on_c, 11, 79, 84
13, 423471, Note_on_c, 11, 79, 0
13, 423480, Note_on_c, 11, 76, 84
13, 423531, Note_on_c, 11, 76, 0
13, 423540, Note_on_c, 11, 76, 84
13, 423591, Note_on_c, 11, 76, 0
13, 423600, Note_on_c, 11, 73, 84
13, 423651, Note_on_c, 11, 73, 0
13, 423660, Note_on_c, 11, 73, 84
13, 423711, Note_on_c, 11, 73, 0
13, 423720, Note_on_c, 11, 69, 84
13, 423771, Note_on_c, 11, 69, 0
13, 423780, Note_on_c, 11, 69, 84
13, 423831, Note_on_c, 11, 69, 0
13, 423840, Note_on_c, 11, 62, 76
13, 423840, Note_on_c, 11, 74, 76
13, 424544, Note_on_c, 11, 62, 0
13, 424544, Note_on_c, 11, 74, 0
13, 424560, Note_on_c, 11, 74, 76
13, 424619, Note_on_c, 11, 74, 0
13, 424620, Note_on_c, 11, 73, 76
13, 424679, Note_on_c, 11, 73, 0
13, 424680, Note_on_c, 11, 74, 76
13, 424739, Note_on_c, 11, 74, 0
13, 424740, Note_on_c, 11, 76, 76
13, 424791, Note_on_c, 11, 76, 0
13, 424800, Note_on_c, 11, 78, 76
13, 424979, Note_on_c, 11, 78, 0
13, 425040, Note_on_c, 11, 78, 76
13, 425099, Note_on_c, 11, 78, 0
13, 425100, Note_on_c, 11, 76, 76
13, 425159, Note_on_c, 11, 76, 0
13, 425160, Note_on_c, 11, 78, 76
13, 425219, Note_on_c, 11, 78, 0
13, 425220, Note_on_c, 11, 79, 76
13, 425271, Note_on_c, 11, 79, 0
13, 425280, Note_on_c, 11, 81, 76
13, 425459, Note_on_c, 11, 81, 0
13, 425520, Note_on_c, 11, 81, 76
13, 425639, Note_on_c, 11, 81, 0
13, 425640, Note_on_c, 11, 83, 76
13, 425699, Note_on_c, 11, 83, 0
13, 425700, Note_on_c, 11, 85, 76
13, 425751, Note_on_c, 11, 85, 0
13, 425760, Note_on_c, 11, 86, 84
13, 426464, Note_on_c, 11, 86, 0
13, 426480, Note_on_c, 11, 86, 76
13, 426599, Note_on_c, 11, 86, 0
13, 426600, Note_on_c, 11, 85, 76
13, 426659, Note_on_c, 11, 85, 0
13, 426660, Note_on_c, 11, 83, 76
13, 426711, Note_on_c, 11, 83, 0
13, 426720, Note_on_c, 11, 81, 76
13, 426899, Note_on_c, 11, 81, 0
13, 426960, Note_on_c, 11, 81, 76
13, 427019, Note_on_c, 11, 81, 0
13, 427020, Note_on_c, 11, 83, 76
13, 427079, Note_on_c, 11, 83, 0
13, 427080, Note_on_c, 11, 81, 76
13, 427139, Note_on_c, 11, 81, 0
13, 427140, Note_on_c, 11, 79, 76
13, 427191, Note_on_c, 11, 79, 0
13, 427200, Note_on_c, 11, 78, 76
13, 427379, Note_on_c, 11, 78, 0
13, 427440, Note_on_c, 11, 78, 76
13, 427499, Note_on_c, 11, 78, 0
13, 427500, Note_on_c, 11, 79, 76
13, 427559, Note_on_c, 11, 79, 0
13, 427560, Note_on_c, 11, 78, 76
13, 427619, Note_on_c, 11, 78, 0
13, 427620, Note_on_c, 11, 76, 76
13, 427671, Note_on_c, 11, 76, 0
13, 427680, Note_on_c, 11, 74, 76
13, 427859, Note_on_c, 11, 74, 0
13, 428580, Note_on_c, 11, 78, 76
13, 428580, Note_on_c, 11, 86, 76
13, 428624, Note_on_c, 11, 78, 0
13, 428624, Note_on_c, 11, 86, 0
13, 428640, Note_on_c, 11, 76, 76
13, 428640, Note_on_c, 11, 85, 76
13, 428819, Note_on_c, 11, 76, 0
13, 428819, Note_on_c, 11, 85, 0
13, 429540, Note_on_c, 11, 76, 76
13, 429540, Note_on_c, 11, 85, 76
13, 429584, Note_on_c, 11, 76, 0
13, 429584, Note_on_c, 11, 85, 0
13, 429600, Note_on_c, 11, 78, 76
13, 429600, Note_on_c, 11, 86, 76
13, 429779, Note_on_c, 11, 78, 0
13, 429779, Note_on_c, 11, 86, 0
13, 430500, Note_on_c, 11, 78, 76
13, 430500, Note_on_c, 11, 86, 76
13, 430544, Note_on_c, 11, 78, 0
13, 430544, Note_on_c, 11, 86, 0
13, 430560, Note_on_c, 11, 76, 76
13, 430560, Note_on_c, 11, 85, 76
13, 430739, Note_on_c, 11, 76, 0
13, 430739, Note_on_c, 11, 85, 0
13, 431460, Note_on_c, 11, 76, 76
13, 431460, Note_on_c, 11, 85, 76
13, 431504, Note_on_c, 11, 76, 0
13, 431504, Note_on_c, 11, 85, 0
13, 431520, Note_on_c, 11, 78, 76
13, 431520, Note_on_c, 11, 86, 76
13, 431699, Note_on_c, 11, 78, 0
13, 431699, Note_on_c, 11, 86, 0
13, 432420, Note_on_c, 11, 62, 84
13, 432471, Note_on_c, 11, 62, 0
13, 432480, Note_on_c, 11, 62, 84
13, 432719, Note_on_c, 11, 62, 0
13, 432960, Note_on_c, 11, 62, 84
13, 433199, Note_on_c, 11, 62, 0
13, 433440, Note_on_c, 11, 62, 84
13, 434399, Note_on_c, 11, 62, 0
13, 434399, End_track
14, 0, Start_track
14, 0, Title_t, "Violin II"
14, 0, MIDI_port, 0
14, 0, Program_c, 12, 48
14, 0, Control_c, 12, 7, 96
14, 0, Control_c, 12, 10, 24
14, 0, Control_c, 12, 11, 127
14, 690, Note_on_c, 12, 62, 84
14, 715, Note_on_c, 12, 62, 0
14, 720, Note_on_c, 12, 62, 84
14, 1064, Note_on_c, 12, 62, 0
14, 3570, Note_on_c, 12, 62, 84
14, 3570, Note_on_c, 12, 74, 84
14, 3595, Note_on_c, 12, 62, 0
14, 3595, Note_on_c, 12, 74, 0
14, 3600, Note_on_c, 12, 62, 84
14, 3600, Note_on_c, 12, 74, 84
14, 3951, Note_on_c, 12, 62, 0
14, 3951, Note_on_c, 12, 74, 0
14, 3956, Control_c, 12, 11, 80
14, 3960, Note_on_c, 12, 69, 76
14, 4079, Note_on_c, 12, 69, 0
14, 4080, Note_on_c, 12, 67, 76
14, 4199, Note_on_c, 12, 67, 0
14, 4200, Note_on_c, 12, 66, 76
14, 4311, Note_on_c, 12, 66, 0
14, 4320, Note_on_c, 12, 65, 76
14, 4320, Control_c, 12, 11, 80
14, 4360, Control_c, 12, 11, 84
14, 4400, Control_c, 12, 11, 88
14, 4440, Control_c, 12, 11, 92
14, 4480, Control_c, 12, 11, 96
14, 4520, Control_c, 12, 11, 100
14, 4559, Note_on_c, 12, 65, 0
14, 4560, Note_on_c, 12, 64, 76
14, 4560, Control_c, 12, 11, 104
14, 4600, Control_c, 12, 11, 107
14, 4640, Control_c, 12, 11, 111
14, 4680, Control_c, 12, 11, 115
14, 4720, Control_c, 12, 11, 119
14, 4760, Control_c, 12, 11, 123
14, 4791, Note_on_c, 12, 64, 0
14, 4800, Control_c, 12, 11, 127
14, 4800, Note_on_c, 12, 63, 84
14, 4814, Note_on_c, 12, 63, 0
14, 4815, Note_on_c, 12, 64, 76
14, 4829, Note_on_c, 12, 64, 0
14, 4830, Note_on_c, 12, 63, 76
14, 4844, Note_on_c, 12, 63, 0
14, 4845, Note_on_c, 12, 64, 76
14, 4859, Note_on_c, 12, 64, 0
14, 4860, Note_on_c, 12, 63, 76
14, 4874, Note_on_c, 12, 63, 0
14, 4875, Note_on_c, 12, 64, 76
14, 4889, Note_on_c, 12, 64, 0
14, 4890, Note_on_c, 12, 63, 76
14, 4904, Note_on_c, 12, 63, 0
14, 4905, Note_on_c, 12, 64, 76
14, 4919, Note_on_c, 12, 64, 0
14, 4920, Note_on_c, 12, 63, 76
14, 4934, Note_on_c, 12, 63, 0
14, 4935, Note_on_c, 12, 64, 76
14, 4949, Note_on_c, 12, 64, 0
14, 4950, Note_on_c, 12, 63, 76
14, 4964, Note_on_c, 12, 63, 0
14, 4965, Note_on_c, 12, 64, 76
14, 4979, Note_on_c, 12, 64, 0
14, 4980, Note_on_c, 12, 63, 76
14, 4994, Note_on_c, 12, 63, 0
14, 4995, Note_on_c, 12, 64, 76
14, 5009, Note_on_c, 12, 64, 0
14, 5010, Note_on_c, 12, 61, 76
14, 5024, Note_on_c, 12, 61, 0
14, 5025, Note_on_c, 12, 63, 76
14, 5036, Note_on_c, 12, 63, 0
14, 5040, Note_on_c, 12, 64, 76
14, 5054, Note_on_c, 12, 64, 0
14, 5055, Note_on_c, 12, 66, 76
14, 5069, Note_on_c, 12, 66, 0
14, 5070, Note_on_c, 12, 64, 76
14, 5084, Note_on_c, 12, 64, 0
14, 5085, Note_on_c, 12, 66, 76
14, 5099, Note_on_c, 12, 66, 0
14, 5100, Note_on_c, 12, 64, 76
14, 5114, Note_on_c, 12, 64, 0
14, 5115, Note_on_c, 12, 66, 76
14, 5129, Note_on_c, 12, 66, 0
14, 5130, Note_on_c, 12, 64, 76
14, 5144, Note_on_c, 12, 64, 0
14, 5145, Note_on_c, 12, 66, 76
14, 5159, Note_on_c, 12, 66, 0
14, 5160, Note_on_c, 12, 64, 76
14, 5174, Note_on_c, 12, 64, 0
14, 5175, Note_on_c, 12, 66, 76
14, 5189, Note_on_c, 12, 66, 0
14, 5190, Note_on_c, 12, 64, 76
14, 5204, Note_on_c, 12, 64, 0
14, 5205, Note_on_c, 12, 66, 76
14, 5219, Note_on_c, 12, 66, 0
14, 5220, Note_on_c, 12, 63, 76
14, 5234, Note_on_c, 12, 63, 0
14, 5235, Note_on_c, 12, 64, 76
14, 5249, Note_on_c, 12, 64, 0
14, 5250, Note_on_c, 12, 66, 76
14, 5275, Note_on_c, 12, 66, 0
14, 5280, Note_on_c, 12, 67, 76
14, 5294, Note_on_c, 12, 67, 0
14, 5295, Note_on_c, 12, 69, 76
14, 5309, Note_on_c, 12, 69, 0
14, 5310, Note_on_c, 12, 67, 76
14, 5324, Note_on_c, 12, 67, 0
14, 5325, Note_on_c, 12, 69, 76
14, 5339, Note_on_c, 12, 69, 0
14, 5340, Note_on_c, 12, 66, 76
14, 5354, Note_on_c, 12, 66, 0
14, 5355, Note_on_c, 12, 67, 76
14, 5369, Note_on_c, 12, 67, 0
14, 5370, Note_on_c, 12, 69, 76
14, 5395, Note_on_c, 12, 69, 0
14, 5400, Note_on_c, 12, 71, 84
14, 5559, Note_on_c, 12, 71, 0
14, 5560, Note_on_c, 12, 67, 76
14, 5595, Note_on_c, 12, 67, 0
14, 5600, Note_on_c, 12, 64, 76
14, 5629, Note_on_c, 12, 64, 0
14, 5640, Note_on_c, 12, 67, 76
14, 5679, Note_on_c, 12, 67, 0
14, 5680, Note_on_c, 12, 64, 76
14, 5715, Note_on_c, 12, 64, 0
14, 5720, Note_on_c, 12, 61, 76
14, 5749, Note_on_c, 12, 61, 0
14, 5760, Note_on_c, 12, 62, 76
14, 5939, Note_on_c, 12, 62, 0
14, 6000, Control_c, 12, 11, 96
14, 6120, Control_c, 12, 11, 96
14, 6120, Note_on_c, 12, 59, 68
14, 6150, Control_c, 12, 11, 99
14, 6180, Control_c, 12, 11, 101
14, 6210, Control_c, 12, 11, 104
14, 6239, Note_on_c, 12, 59, 0
14, 6240, Control_c, 12, 11, 106
14, 6240, Note_on_c, 12, 61, 68
14, 6270, Control_c, 12, 11, 109
14, 6300, Control_c, 12, 11, 112
14, 6330, Control_c, 12, 11, 114
14, 6359, Note_on_c, 12, 61, 0
14, 6360, Control_c, 12, 11, 117
14, 6360, Note_on_c, 12, 62, 68
14, 6390, Control_c, 12, 11, 119
14, 6420, Control_c, 12, 11, 122
14, 6450, Control_c, 12, 11, 127
14, 6471, Note_on_c, 12, 62, 0
14, 6480, Note_on_c, 12, 61, 76
14, 6480, Note_on_c, 12, 64, 76
14, 6719, Note_on_c, 12, 61, 0
14, 6719, Note_on_c, 12, 64, 0
14, 7080, Note_on_c, 12, 62, 52
14, 7199, Note_on_c, 12, 62, 0
14, 7200, Note_on_c, 12, 65, 76
14, 7200, Note_on_c, 12, 55, 76
14, 7439, Note_on_c, 12, 65, 0
14, 7439, Note_on_c, 12, 55, 0
14, 7800, Note_on_c, 12, 64, 52
14, 7919, Note_on_c, 12, 64, 0
14, 7920, Note_on_c, 12, 67, 76
14, 7920, Note_on_c, 12, 57, 76
14, 8159, Note_on_c, 12, 67, 0
14, 8159, Note_on_c, 12, 57, 0
14, 8400, Note_on_c, 12, 65, 52
14, 8489, Note_on_c, 12, 65, 0
14, 8520, Note_on_c, 12, 65, 84
14, 8520, Note_on_c, 12, 75, 84
14, 8609, Note_on_c, 12, 65, 0
14, 8609, Note_on_c, 12, 75, 0
14, 8640, Note_on_c, 12, 58, 76
14, 8640, Note_on_c, 12, 74, 76
14, 8640, Note_on_c, 12, 65, 76
14, 8695, Note_on_c, 12, 58, 0
14, 8695, Note_on_c, 12, 74, 0
14, 8695, Note_on_c, 12, 65, 0
14, 8700, Note_on_c, 12, 58, 52
14, 8700, Note_on_c, 12, 62, 52
14, 8755, Note_on_c, 12, 58, 0
14, 8755, Note_on_c, 12, 62, 0
14, 8760, Note_on_c, 12, 58, 52
14, 8760, Note_on_c, 12, 62, 52
14, 8815, Note_on_c, 12, 58, 0
14, 8815, Note_on_c, 12, 62, 0
14, 8820, Note_on_c, 12, 62, 52
14, 8820, Note_on_c, 12, 58, 52
14, 8875, Note_on_c, 12, 62, 0
14, 8875, Note_on_c, 12, 58, 0
14, 8880, Note_on_c, 12, 62, 52
14, 8880, Note_on_c, 12, 58, 52
14, 8935, Note_on_c, 12, 62, 0
14, 8935, Note_on_c, 12, 58, 0
14, 8940, Note_on_c, 12, 62, 52
14, 8940, Note_on_c, 12, 58, 52
14, 8995, Note_on_c, 12, 62, 0
14, 8995, Note_on_c, 12, 58, 0
14, 9000, Note_on_c, 12, 62, 52
14, 9000, Note_on_c, 12, 58, 52
14, 9055, Note_on_c, 12, 62, 0
14, 9055, Note_on_c, 12, 58, 0
14, 9060, Note_on_c, 12, 58, 52
14, 9060, Note_on_c, 12, 62, 52
14, 9115, Note_on_c, 12, 58, 0
14, 9115, Note_on_c, 12, 62, 0
14, 9120, Note_on_c, 12, 58, 52
14, 9120, Note_on_c, 12, 62, 52
14, 9175, Note_on_c, 12, 58, 0
14, 9175, Note_on_c, 12, 62, 0
14, 9180, Note_on_c, 12, 62, 52
14, 9180, Note_on_c, 12, 58, 52
14, 9235, Note_on_c, 12, 62, 0
14, 9235, Note_on_c, 12, 58, 0
14, 9240, Note_on_c, 12, 58, 52
14, 9240, Note_on_c, 12, 62, 52
14, 9295, Note_on_c, 12, 58, 0
14, 9295, Note_on_c, 12, 62, 0
14, 9300, Note_on_c, 12, 62, 52
14, 9300, Note_on_c, 12, 58, 52
14, 9355, Note_on_c, 12, 62, 0
14, 9355, Note_on_c, 12, 58, 0
14, 9360, Note_on_c, 12, 63, 68
14, 9360, Note_on_c, 12, 60, 68
14, 9415, Note_on_c, 12, 63, 0
14, 9415, Note_on_c, 12, 60, 0
14, 9420, Note_on_c, 12, 63, 52
14, 9420, Note_on_c, 12, 60, 52
14, 9475, Note_on_c, 12, 63, 0
14, 9475, Note_on_c, 12, 60, 0
14, 9480, Note_on_c, 12, 60, 52
14, 9480, Note_on_c, 12, 63, 52
14, 9535, Note_on_c, 12, 60, 0
14, 9535, Note_on_c, 12, 63, 0
14, 9540, Note_on_c, 12, 63, 52
14, 9540, Note_on_c, 12, 60, 52
14, 9595, Note_on_c, 12, 63, 0
14, 9595, Note_on_c, 12, 60, 0
14, 9600, Note_on_c, 12, 60, 52
14, 9600, Note_on_c, 12, 63, 52
14, 9655, Note_on_c, 12, 60, 0
14, 9655, Note_on_c, 12, 63, 0
14, 9660, Note_on_c, 12, 63, 52
14, 9660, Note_on_c, 12, 60, 52
14, 9715, Note_on_c, 12, 63, 0
14, 9715, Note_on_c, 12, 60, 0
14, 9720, Note_on_c, 12, 60, 52
14, 9720, Note_on_c, 12, 63, 52
14, 9775, Note_on_c, 12, 60, 0
14, 9775, Note_on_c, 12, 63, 0
14, 9780, Note_on_c, 12, 60, 52
14, 9780, Note_on_c, 12, 63, 52
14, 9835, Note_on_c, 12, 60, 0
14, 9835, Note_on_c, 12, 63, 0
14, 9840, Note_on_c, 12, 60, 52
14, 9840, Note_on_c, 12, 63, 52
14, 9895, Note_on_c, 12, 60, 0
14, 9895, Note_on_c, 12, 63, 0
14, 9900, Note_on_c, 12, 60, 52
14, 9900, Note_on_c, 12, 63, 52
14, 9955, Note_on_c, 12, 60, 0
14, 9955, Note_on_c, 12, 63, 0
14, 9960, Note_on_c, 12, 60, 52
14, 9960, Note_on_c, 12, 63, 52
14, 10015, Note_on_c, 12, 60, 0
14, 10015, Note_on_c, 12, 63, 0
14, 10020, Note_on_c, 12, 63, 52
14, 10020, Note_on_c, 12, 60, 52
14, 10075, Note_on_c, 12, 63, 0
14, 10075, Note_on_c, 12, 60, 0
14, 10080, Note_on_c, 12, 62, 52
14, 10165, Note_on_c, 12, 62, 0
14, 10200, Note_on_c, 12, 70, 68
14, 10260, Control_c, 12, 11, 96
14, 10345, Note_on_c, 12, 70, 0
14, 10350, Note_on_c, 12, 65, 68
14, 10375, Note_on_c, 12, 65, 0
14, 10380, Note_on_c, 12, 67, 68
14, 10405, Note_on_c, 12, 67, 0
14, 10410, Note_on_c, 12, 69, 68
14, 10435, Note_on_c, 12, 69, 0
14, 10440, Note_on_c, 12, 70, 68
14, 10465, Note_on_c, 12, 70, 0
14, 10470, Note_on_c, 12, 72, 68
14, 10495, Note_on_c, 12, 72, 0
14, 10500, Note_on_c, 12, 74, 68
14, 10525, Note_on_c, 12, 74, 0
14, 10530, Note_on_c, 12, 72, 68
14, 10555, Note_on_c, 12, 72, 0
14, 10560, Note_on_c, 12, 70, 68
14, 10585, Note_on_c, 12, 70, 0
14, 10590, Note_on_c, 12, 69, 68
14, 10615, Note_on_c, 12, 69, 0
14, 10620, Note_on_c, 12, 67, 68
14, 10645, Note_on_c, 12, 67, 0
14, 10650, Note_on_c, 12, 65, 68
14, 10675, Note_on_c, 12, 65, 0
14, 10680, Note_on_c, 12, 63, 68
14, 10705, Note_on_c, 12, 63, 0
14, 10710, Note_on_c, 12, 62, 68
14, 10735, Note_on_c, 12, 62, 0
14, 10740, Note_on_c, 12, 60, 68
14, 10765, Note_on_c, 12, 60, 0
14, 10770, Note_on_c, 12, 58, 68
14, 10795, Note_on_c, 12, 58, 0
14, 10798, Control_c, 12, 11, 127
14, 10800, Note_on_c, 12, 57, 68
14, 10855, Note_on_c, 12, 57, 0
14, 10860, Note_on_c, 12, 63, 52
14, 10860, Note_on_c, 12, 60, 52
14, 10915, Note_on_c, 12, 63, 0
14, 10915, Note_on_c, 12, 60, 0
14, 10920, Note_on_c, 12, 63, 52
14, 10920, Note_on_c, 12, 60, 52
14, 10975, Note_on_c, 12, 63, 0
14, 10975, Note_on_c, 12, 60, 0
14, 10980, Note_on_c, 12, 60, 52
14, 10980, Note_on_c, 12, 63, 52
14, 11035, Note_on_c, 12, 60, 0
14, 11035, Note_on_c, 12, 63, 0
14, 11040, Note_on_c, 12, 63, 52
14, 11040, Note_on_c, 12, 60, 52
14, 11095, Note_on_c, 12, 63, 0
14, 11095, Note_on_c, 12, 60, 0
14, 11100, Note_on_c, 12, 63, 52
14, 11100, Note_on_c, 12, 60, 52
14, 11155, Note_on_c, 12, 63, 0
14, 11155, Note_on_c, 12, 60, 0
14, 11160, Note_on_c, 12, 63, 52
14, 11160, Note_on_c, 12, 60, 52
14, 11215, Note_on_c, 12, 63, 0
14, 11215, Note_on_c, 12, 60, 0
14, 11220, Note_on_c, 12, 63, 52
14, 11220, Note_on_c, 12, 60, 52
14, 11275, Note_on_c, 12, 63, 0
14, 11275, Note_on_c, 12, 60, 0
14, 11280, Note_on_c, 12, 63, 52
14, 11280, Note_on_c, 12, 60, 52
14, 11335, Note_on_c, 12, 63, 0
14, 11335, Note_on_c, 12, 60, 0
14, 11340, Note_on_c, 12, 60, 52
14, 11340, Note_on_c, 12, 63, 52
14, 11395, Note_on_c, 12, 60, 0
14, 11395, Note_on_c, 12, 63, 0
14, 11400, Note_on_c, 12, 63, 52
14, 11400, Note_on_c, 12, 60, 52
14, 11455, Note_on_c, 12, 63, 0
14, 11455, Note_on_c, 12, 60, 0
14, 11460, Note_on_c, 12, 63, 52
14, 11460, Note_on_c, 12, 60, 52
14, 11515, Note_on_c, 12, 63, 0
14, 11515, Note_on_c, 12, 60, 0
14, 11520, Note_on_c, 12, 58, 52
14, 11520, Note_on_c, 12, 62, 52
14, 11575, Note_on_c, 12, 58, 0
14, 11575, Note_on_c, 12, 62, 0
14, 11580, Note_on_c, 12, 58, 53
14, 11580, Note_on_c, 12, 62, 53
14, 11635, Note_on_c, 12, 58, 0
14, 11635, Note_on_c, 12, 62, 0
14, 11640, Note_on_c, 12, 62, 54
14, 11640, Note_on_c, 12, 58, 54
14, 11695, Note_on_c, 12, 62, 0
14, 11695, Note_on_c, 12, 58, 0
14, 11700, Note_on_c, 12, 62, 56
14, 11700, Note_on_c, 12, 58, 56
14, 11755, Note_on_c, 12, 62, 0
14, 11755, Note_on_c, 12, 58, 0
14, 11760, Note_on_c, 12, 58, 57
14, 11760, Note_on_c, 12, 62, 57
14, 11815, Note_on_c, 12, 58, 0
14, 11815, Note_on_c, 12, 62, 0
14, 11820, Note_on_c, 12, 58, 58
14, 11820, Note_on_c, 12, 62, 58
14, 11875, Note_on_c, 12, 58, 0
14, 11875, Note_on_c, 12, 62, 0
14, 11880, Note_on_c, 12, 58, 60
14, 11880, Note_on_c, 12, 62, 60
14, 11935, Note_on_c, 12, 58, 0
14, 11935, Note_on_c, 12, 62, 0
14, 11940, Note_on_c, 12, 62, 61
14, 11940, Note_on_c, 12, 58, 61
14, 11995, Note_on_c, 12, 62, 0
14, 11995, Note_on_c, 12, 58, 0
14, 12000, Note_on_c, 12, 62, 62
14, 12000, Note_on_c, 12, 60, 62
14, 12055, Note_on_c, 12, 62, 0
14, 12055, Note_on_c, 12, 60, 0
14, 12060, Note_on_c, 12, 62, 64
14, 12060, Note_on_c, 12, 60, 64
14, 12115, Note_on_c, 12, 62, 0
14, 12115, Note_on_c, 12, 60, 0
14, 12120, Note_on_c, 12, 60, 65
14, 12120, Note_on_c, 12, 62, 65
14, 12175, Note_on_c, 12, 60, 0
14, 12175, Note_on_c, 12, 62, 0
14, 12180, Note_on_c, 12, 62, 66
14, 12180, Note_on_c, 12, 60, 66
14, 12235, Note_on_c, 12, 62, 0
14, 12235, Note_on_c, 12, 60, 0
14, 12240, Note_on_c, 12, 62, 76
14, 12240, Note_on_c, 12, 59, 76
14, 12275, Note_on_c, 12, 62, 0
14, 12275, Note_on_c, 12, 59, 0
14, 12280, Note_on_c, 12, 59, 52
14, 12280, Note_on_c, 12, 67, 52
14, 12315, Note_on_c, 12, 59, 0
14, 12315, Note_on_c, 12, 67, 0
14, 12320, Note_on_c, 12, 67, 52
14, 12320, Note_on_c, 12, 59, 52
14, 12355, Note_on_c, 12, 67, 0
14, 12355, Note_on_c, 12, 59, 0
14, 12360, Note_on_c, 12, 67, 52
14, 12360, Note_on_c, 12, 59, 52
14, 12395, Note_on_c, 12, 67, 0
14, 12395, Note_on_c, 12, 59, 0
14, 12400, Note_on_c, 12, 59, 52
14, 12400, Note_on_c, 12, 67, 52
14, 12435, Note_on_c, 12, 59, 0
14, 12435, Note_on_c, 12, 67, 0
14, 12440, Note_on_c, 12, 59, 52
14, 12440, Note_on_c, 12, 67, 52
14, 12475, Note_on_c, 12, 59, 0
14, 12475, Note_on_c, 12, 67, 0
14, 12480, Note_on_c, 12, 67, 52
14, 12480, Note_on_c, 12, 59, 52
14, 12515, Note_on_c, 12, 67, 0
14, 12515, Note_on_c, 12, 59, 0
14, 12520, Note_on_c, 12, 59, 52
14, 12520, Note_on_c, 12, 67, 52
14, 12555, Note_on_c, 12, 59, 0
14, 12555, Note_on_c, 12, 67, 0
14, 12560, Note_on_c, 12, 67, 52
14, 12560, Note_on_c, 12, 59, 52
14, 12595, Note_on_c, 12, 67, 0
14, 12595, Note_on_c, 12, 59, 0
14, 12600, Note_on_c, 12, 67, 52
14, 12600, Note_on_c, 12, 59, 52
14, 12635, Note_on_c, 12, 67, 0
14, 12635, Note_on_c, 12, 59, 0
14, 12640, Note_on_c, 12, 59, 52
14, 12640, Note_on_c, 12, 67, 52
14, 12675, Note_on_c, 12, 59, 0
14, 12675, Note_on_c, 12, 67, 0
14, 12680, Note_on_c, 12, 67, 52
14, 12680, Note_on_c, 12, 59, 52
14, 12715, Note_on_c, 12, 67, 0
14, 12715, Note_on_c, 12, 59, 0
14, 12720, Note_on_c, 12, 59, 52
14, 12720, Note_on_c, 12, 67, 52
14, 12755, Note_on_c, 12, 59, 0
14, 12755, Note_on_c, 12, 67, 0
14, 12760, Note_on_c, 12, 59, 52
14, 12760, Note_on_c, 12, 67, 52
14, 12795, Note_on_c, 12, 59, 0
14, 12795, Note_on_c, 12, 67, 0
14, 12800, Note_on_c, 12, 59, 52
14, 12800, Note_on_c, 12, 67, 52
14, 12835, Note_on_c, 12, 59, 0
14, 12835, Note_on_c, 12, 67, 0
14, 12840, Note_on_c, 12, 59, 52
14, 12840, Note_on_c, 12, 67, 52
14, 12875, Note_on_c, 12, 59, 0
14, 12875, Note_on_c, 12, 67, 0
14, 12880, Note_on_c, 12, 67, 52
14, 12880, Note_on_c, 12, 59, 52
14, 12915, Note_on_c, 12, 67, 0
14, 12915, Note_on_c, 12, 59, 0
14, 12920, Note_on_c, 12, 59, 52
14, 12920, Note_on_c, 12, 67, 52
14, 12955, Note_on_c, 12, 59, 0
14, 12955, Note_on_c, 12, 67, 0
14, 12960, Note_on_c, 12, 67, 68
14, 12960, Note_on_c, 12, 58, 68
14, 12995, Note_on_c, 12, 67, 0
14, 12995, Note_on_c, 12, 58, 0
14, 13000, Note_on_c, 12, 67, 52
14, 13000, Note_on_c, 12, 58, 52
14, 13035, Note_on_c, 12, 67, 0
14, 13035, Note_on_c, 12, 58, 0
14, 13040, Note_on_c, 12, 67, 52
14, 13040, Note_on_c, 12, 58, 52
14, 13075, Note_on_c, 12, 67, 0
14, 13075, Note_on_c, 12, 58, 0
14, 13080, Note_on_c, 12, 58, 52
14, 13080, Note_on_c, 12, 67, 52
14, 13115, Note_on_c, 12, 58, 0
14, 13115, Note_on_c, 12, 67, 0
14, 13120, Note_on_c, 12, 67, 52
14, 13120, Note_on_c, 12, 58, 52
14, 13155, Note_on_c, 12, 67, 0
14, 13155, Note_on_c, 12, 58, 0
14, 13160, Note_on_c, 12, 58, 52
14, 13160, Note_on_c, 12, 67, 52
14, 13195, Note_on_c, 12, 58, 0
14, 13195, Note_on_c, 12, 67, 0
14, 13200, Note_on_c, 12, 58, 52
14, 13200, Note_on_c, 12, 67, 52
14, 13235, Note_on_c, 12, 58, 0
14, 13235, Note_on_c, 12, 67, 0
14, 13240, Note_on_c, 12, 67, 52
14, 13240, Note_on_c, 12, 58, 52
14, 13275, Note_on_c, 12, 67, 0
14, 13275, Note_on_c, 12, 58, 0
14, 13280, Note_on_c, 12, 67, 52
14, 13280, Note_on_c, 12, 58, 52
14, 13315, Note_on_c, 12, 67, 0
14, 13315, Note_on_c, 12, 58, 0
14, 13320, Note_on_c, 12, 67, 52
14, 13320, Note_on_c, 12, 58, 52
14, 13355, Note_on_c, 12, 67, 0
14, 13355, Note_on_c, 12, 58, 0
14, 13360, Note_on_c, 12, 58, 52
14, 13360, Note_on_c, 12, 67, 52
14, 13395, Note_on_c, 12, 58, 0
14, 13395, Note_on_c, 12, 67, 0
14, 13400, Note_on_c, 12, 58, 52
14, 13400, Note_on_c, 12, 67, 52
14, 13435, Note_on_c, 12, 58, 0
14, 13435, Note_on_c, 12, 67, 0
14, 13440, Note_on_c, 12, 58, 52
14, 13440, Note_on_c, 12, 67, 52
14, 13475, Note_on_c, 12, 58, 0
14, 13475, Note_on_c, 12, 67, 0
14, 13480, Note_on_c, 12, 67, 52
14, 13480, Note_on_c, 12, 58, 52
14, 13515, Note_on_c, 12, 67, 0
14, 13515, Note_on_c, 12, 58, 0
14, 13520, Note_on_c, 12, 58, 52
14, 13520, Note_on_c, 12, 67, 52
14, 13555, Note_on_c, 12, 58, 0
14, 13555, Note_on_c, 12, 67, 0
14, 13560, Note_on_c, 12, 58, 52
14, 13560, Note_on_c, 12, 67, 52
14, 13595, Note_on_c, 12, 58, 0
14, 13595, Note_on_c, 12, 67, 0
14, 13600, Note_on_c, 12, 58, 52
14, 13600, Note_on_c, 12, 67, 52
14, 13635, Note_on_c, 12, 58, 0
14, 13635, Note_on_c, 12, 67, 0
14, 13640, Note_on_c, 12, 58, 52
14, 13640, Note_on_c, 12, 67, 52
14, 13675, Note_on_c, 12, 58, 0
14, 13675, Note_on_c, 12, 67, 0
14, 13680, Note_on_c, 12, 57, 68
14, 13680, Note_on_c, 12, 65, 68
14, 13715, Note_on_c, 12, 57, 0
14, 13715, Note_on_c, 12, 65, 0
14, 13720, Note_on_c, 12, 69, 52
14, 13755, Note_on_c, 12, 69, 0
14, 13760, Note_on_c, 12, 69, 52
14, 13795, Note_on_c, 12, 69, 0
14, 13800, Note_on_c, 12, 69, 52
14, 13835, Note_on_c, 12, 69, 0
14, 13840, Note_on_c, 12, 69, 52
14, 13875, Note_on_c, 12, 69, 0
14, 13880, Note_on_c, 12, 69, 52
14, 13915, Note_on_c, 12, 69, 0
14, 13920, Note_on_c, 12, 69, 52
14, 13955, Note_on_c, 12, 69, 0
14, 13960, Note_on_c, 12, 69, 52
14, 13995, Note_on_c, 12, 69, 0
14, 14000, Note_on_c, 12, 69, 52
14, 14035, Note_on_c, 12, 69, 0
14, 14040, Note_on_c, 12, 69, 52
14, 14075, Note_on_c, 12, 69, 0
14, 14080, Note_on_c, 12, 69, 52
14, 14115, Note_on_c, 12, 69, 0
14, 14120, Note_on_c, 12, 69, 52
14, 14155, Note_on_c, 12, 69, 0
14, 14160, Note_on_c, 12, 69, 52
14, 14195, Note_on_c, 12, 69, 0
14, 14200, Note_on_c, 12, 69, 52
14, 14235, Note_on_c, 12, 69, 0
14, 14240, Note_on_c, 12, 69, 52
14, 14275, Note_on_c, 12, 69, 0
14, 14280, Note_on_c, 12, 69, 52
14, 14315, Note_on_c, 12, 69, 0
14, 14320, Note_on_c, 12, 69, 52
14, 14355, Note_on_c, 12, 69, 0
14, 14360, Note_on_c, 12, 69, 52
14, 14395, Note_on_c, 12, 69, 0
14, 14400, Note_on_c, 12, 69, 68
14, 14435, Note_on_c, 12, 69, 0
14, 14440, Note_on_c, 12, 72, 52
14, 14440, Note_on_c, 12, 62, 52
14, 14475, Note_on_c, 12, 72, 0
14, 14475, Note_on_c, 12, 62, 0
14, 14480, Note_on_c, 12, 72, 52
14, 14480, Note_on_c, 12, 62, 52
14, 14515, Note_on_c, 12, 72, 0
14, 14515, Note_on_c, 12, 62, 0
14, 14520, Note_on_c, 12, 72, 52
14, 14520, Note_on_c, 12, 62, 52
14, 14555, Note_on_c, 12, 72, 0
14, 14555, Note_on_c, 12, 62, 0
14, 14560, Note_on_c, 12, 62, 52
14, 14560, Note_on_c, 12, 72, 52
14, 14595, Note_on_c, 12, 62, 0
14, 14595, Note_on_c, 12, 72, 0
14, 14600, Note_on_c, 12, 72, 52
14, 14600, Note_on_c, 12, 62, 52
14, 14635, Note_on_c, 12, 72, 0
14, 14635, Note_on_c, 12, 62, 0
14, 14640, Note_on_c, 12, 72, 52
14, 14640, Note_on_c, 12, 62, 52
14, 14675, Note_on_c, 12, 72, 0
14, 14675, Note_on_c, 12, 62, 0
14, 14680, Note_on_c, 12, 72, 52
14, 14680, Note_on_c, 12, 62, 52
14, 14715, Note_on_c, 12, 72, 0
14, 14715, Note_on_c, 12, 62, 0
14, 14720, Note_on_c, 12, 72, 52
14, 14720, Note_on_c, 12, 62, 52
14, 14755, Note_on_c, 12, 72, 0
14, 14755, Note_on_c, 12, 62, 0
14, 14760, Note_on_c, 12, 62, 52
14, 14760, Note_on_c, 12, 72, 52
14, 14795, Note_on_c, 12, 62, 0
14, 14795, Note_on_c, 12, 72, 0
14, 14800, Note_on_c, 12, 72, 52
14, 14800, Note_on_c, 12, 62, 52
14, 14835, Note_on_c, 12, 72, 0
14, 14835, Note_on_c, 12, 62, 0
14, 14840, Note_on_c, 12, 62, 52
14, 14840, Note_on_c, 12, 72, 52
14, 14875, Note_on_c, 12, 62, 0
14, 14875, Note_on_c, 12, 72, 0
14, 14880, Note_on_c, 12, 72, 52
14, 14880, Note_on_c, 12, 62, 52
14, 14915, Note_on_c, 12, 72, 0
14, 14915, Note_on_c, 12, 62, 0
14, 14920, Note_on_c, 12, 72, 52
14, 14920, Note_on_c, 12, 62, 52
14, 14955, Note_on_c, 12, 72, 0
14, 14955, Note_on_c, 12, 62, 0
14, 14960, Note_on_c, 12, 72, 52
14, 14960, Note_on_c, 12, 62, 52
14, 14995, Note_on_c, 12, 72, 0
14, 14995, Note_on_c, 12, 62, 0
14, 15000, Note_on_c, 12, 62, 52
14, 15000, Note_on_c, 12, 72, 52
14, 15035, Note_on_c, 12, 62, 0
14, 15035, Note_on_c, 12, 72, 0
14, 15040, Note_on_c, 12, 62, 52
14, 15040, Note_on_c, 12, 72, 52
14, 15075, Note_on_c, 12, 62, 0
14, 15075, Note_on_c, 12, 72, 0
14, 15080, Note_on_c, 12, 62, 52
14, 15080, Note_on_c, 12, 72, 52
14, 15115, Note_on_c, 12, 62, 0
14, 15115, Note_on_c, 12, 72, 0
14, 15120, Note_on_c, 12, 70, 68
14, 15120, Note_on_c, 12, 62, 68
14, 15155, Note_on_c, 12, 70, 0
14, 15155, Note_on_c, 12, 62, 0
14, 15160, Note_on_c, 12, 58, 52
14, 15160, Note_on_c, 12, 67, 52
14, 15195, Note_on_c, 12, 58, 0
14, 15195, Note_on_c, 12, 67, 0
14, 15200, Note_on_c, 12, 67, 52
14, 15200, Note_on_c, 12, 58, 52
14, 15235, Note_on_c, 12, 67, 0
14, 15235, Note_on_c, 12, 58, 0
14, 15240, Note_on_c, 12, 58, 52
14, 15240, Note_on_c, 12, 67, 52
14, 15275, Note_on_c, 12, 58, 0
14, 15275, Note_on_c, 12, 67, 0
14, 15280, Note_on_c, 12, 58, 52
14, 15280, Note_on_c, 12, 67, 52
14, 15315, Note_on_c, 12, 58, 0
14, 15315, Note_on_c, 12, 67, 0
14, 15320, Note_on_c, 12, 58, 52
14, 15320, Note_on_c, 12, 67, 52
14, 15355, Note_on_c, 12, 58, 0
14, 15355, Note_on_c, 12, 67, 0
14, 15360, Note_on_c, 12, 67, 52
14, 15360, Note_on_c, 12, 58, 52
14, 15395, Note_on_c, 12, 67, 0
14, 15395, Note_on_c, 12, 58, 0
14, 15400, Note_on_c, 12, 67, 52
14, 15400, Note_on_c, 12, 58, 52
14, 15435, Note_on_c, 12, 67, 0
14, 15435, Note_on_c, 12, 58, 0
14, 15440, Note_on_c, 12, 67, 52
14, 15440, Note_on_c, 12, 58, 52
14, 15475, Note_on_c, 12, 67, 0
14, 15475, Note_on_c, 12, 58, 0
14, 15480, Note_on_c, 12, 67, 52
14, 15480, Note_on_c, 12, 58, 52
14, 15515, Note_on_c, 12, 67, 0
14, 15515, Note_on_c, 12, 58, 0
14, 15520, Note_on_c, 12, 58, 52
14, 15520, Note_on_c, 12, 67, 52
14, 15555, Note_on_c, 12, 58, 0
14, 15555, Note_on_c, 12, 67, 0
14, 15560, Note_on_c, 12, 67, 52
14, 15560, Note_on_c, 12, 58, 52
14, 15595, Note_on_c, 12, 67, 0
14, 15595, Note_on_c, 12, 58, 0
14, 15600, Note_on_c, 12, 58, 52
14, 15600, Note_on_c, 12, 67, 52
14, 15635, Note_on_c, 12, 58, 0
14, 15635, Note_on_c, 12, 67, 0
14, 15640, Note_on_c, 12, 58, 52
14, 15640, Note_on_c, 12, 67, 52
14, 15675, Note_on_c, 12, 58, 0
14, 15675, Note_on_c, 12, 67, 0
14, 15680, Note_on_c, 12, 58, 52
14, 15680, Note_on_c, 12, 67, 52
14, 15715, Note_on_c, 12, 58, 0
14, 15715, Note_on_c, 12, 67, 0
14, 15720, Note_on_c, 12, 67, 52
14, 15720, Note_on_c, 12, 58, 52
14, 15755, Note_on_c, 12, 67, 0
14, 15755, Note_on_c, 12, 58, 0
14, 15760, Note_on_c, 12, 58, 52
14, 15760, Note_on_c, 12, 67, 52
14, 15795, Note_on_c, 12, 58, 0
14, 15795, Note_on_c, 12, 67, 0
14, 15800, Note_on_c, 12, 58, 52
14, 15800, Note_on_c, 12, 67, 52
14, 15835, Note_on_c, 12, 58, 0
14, 15835, Note_on_c, 12, 67, 0
14, 15840, Note_on_c, 12, 58, 52
14, 15840, Note_on_c, 12, 67, 52
14, 15875, Note_on_c, 12, 58, 0
14, 15875, Note_on_c, 12, 67, 0
14, 15880, Note_on_c, 12, 67, 53
14, 15880, Note_on_c, 12, 57, 53
14, 15915, Note_on_c, 12, 67, 0
14, 15915, Note_on_c, 12, 57, 0
14, 15920, Note_on_c, 12, 67, 55
14, 15920, Note_on_c, 12, 57, 55
14, 15955, Note_on_c, 12, 67, 0
14, 15955, Note_on_c, 12, 57, 0
14, 15960, Note_on_c, 12, 57, 57
14, 15960, Note_on_c, 12, 67, 57
14, 15995, Note_on_c, 12, 57, 0
14, 15995, Note_on_c, 12, 67, 0
14, 16000, Note_on_c, 12, 67, 59
14, 16000, Note_on_c, 12, 57, 59
14, 16035, Note_on_c, 12, 67, 0
14, 16035, Note_on_c, 12, 57, 0
14, 16040, Note_on_c, 12, 67, 60
14, 16040, Note_on_c, 12, 57, 60
14, 16075, Note_on_c, 12, 67, 0
14, 16075, Note_on_c, 12, 57, 0
14, 16080, Note_on_c, 12, 67, 62
14, 16080, Note_on_c, 12, 57, 62
14, 16115, Note_on_c, 12, 67, 0
14, 16115, Note_on_c, 12, 57, 0
14, 16120, Note_on_c, 12, 67, 64
14, 16120, Note_on_c, 12, 57, 64
14, 16155, Note_on_c, 12, 67, 0
14, 16155, Note_on_c, 12, 57, 0
14, 16160, Note_on_c, 12, 57, 66
14, 16160, Note_on_c, 12, 67, 66
14, 16195, Note_on_c, 12, 57, 0
14, 16195, Note_on_c, 12, 67, 0
14, 16200, Note_on_c, 12, 67, 68
14, 16200, Note_on_c, 12, 57, 68
14, 16235, Note_on_c, 12, 67, 0
14, 16235, Note_on_c, 12, 57, 0
14, 16240, Note_on_c, 12, 67, 69
14, 16240, Note_on_c, 12, 57, 69
14, 16275, Note_on_c, 12, 67, 0
14, 16275, Note_on_c, 12, 57, 0
14, 16280, Note_on_c, 12, 67, 71
14, 16280, Note_on_c, 12, 57, 71
14, 16315, Note_on_c, 12, 67, 0
14, 16315, Note_on_c, 12, 57, 0
14, 16320, Note_on_c, 12, 57, 73
14, 16320, Note_on_c, 12, 67, 73
14, 16355, Note_on_c, 12, 57, 0
14, 16355, Note_on_c, 12, 67, 0
14, 16360, Note_on_c, 12, 67, 75
14, 16360, Note_on_c, 12, 57, 75
14, 16395, Note_on_c, 12, 67, 0
14, 16395, Note_on_c, 12, 57, 0
14, 16400, Note_on_c, 12, 57, 76
14, 16400, Note_on_c, 12, 67, 76
14, 16435, Note_on_c, 12, 57, 0
14, 16435, Note_on_c, 12, 67, 0
14, 16440, Note_on_c, 12, 67, 78
14, 16440, Note_on_c, 12, 57, 78
14, 16475, Note_on_c, 12, 67, 0
14, 16475, Note_on_c, 12, 57, 0
14, 16480, Note_on_c, 12, 67, 80
14, 16480, Note_on_c, 12, 57, 80
14, 16515, Note_on_c, 12, 67, 0
14, 16515, Note_on_c, 12, 57, 0
14, 16520, Note_on_c, 12, 57, 82
14, 16520, Note_on_c, 12, 67, 82
14, 16555, Note_on_c, 12, 57, 0
14, 16555, Note_on_c, 12, 67, 0
14, 16560, Note_on_c, 12, 65, 84
14, 16560, Note_on_c, 12, 57, 84
14, 16765, Note_on_c, 12, 65, 0
14, 16765, Note_on_c, 12, 57, 0
14, 16770, Note_on_c, 12, 74, 84
14, 16795, Note_on_c, 12, 74, 0
14, 16800, Note_on_c, 12, 69, 84
14, 17005, Note_on_c, 12, 69, 0
14, 17010, Note_on_c, 12, 69, 84
14, 17035, Note_on_c, 12, 69, 0
14, 17040, Note_on_c, 12, 65, 84
14, 17129, Note_on_c, 12, 65, 0
14, 17160, Note_on_c, 12, 62, 84
14, 17249, Note_on_c, 12, 62, 0
14, 17280, Note_on_c, 12, 57, 92
14, 17399, Note_on_c, 12, 57, 0
14, 18040, Note_on_c, 12, 69, 52
14, 18069, Note_on_c, 12, 69, 0
14, 18080, Note_on_c, 12, 71, 52
14, 18109, Note_on_c, 12, 71, 0
14, 18120, Note_on_c, 12, 72, 52
14, 18149, Note_on_c, 12, 72, 0
14, 18160, Note_on_c, 12, 71, 52
14, 18189, Note_on_c, 12, 71, 0
14, 18200, Note_on_c, 12, 69, 52
14, 18229, Note_on_c, 12, 69, 0
14, 18240, Note_on_c, 12, 67, 52
14, 18269, Note_on_c, 12, 67, 0
14, 18280, Note_on_c, 12, 71, 52
14, 18309, Note_on_c, 12, 71, 0
14, 18320, Note_on_c, 12, 69, 52
14, 18349, Note_on_c, 12, 69, 0
14, 18360, Note_on_c, 12, 67, 52
14, 18389, Note_on_c, 12, 67, 0
14, 18400, Note_on_c, 12, 69, 52
14, 18429, Note_on_c, 12, 69, 0
14, 18440, Note_on_c, 12, 66, 52
14, 18469, Note_on_c, 12, 66, 0
14, 18480, Note_on_c, 12, 64, 52
14, 18509, Note_on_c, 12, 64, 0
14, 18520, Note_on_c, 12, 66, 52
14, 18549, Note_on_c, 12, 66, 0
14, 18560, Note_on_c, 12, 63, 52
14, 18589, Note_on_c, 12, 63, 0
14, 18600, Note_on_c, 12, 64, 52
14, 18629, Note_on_c, 12, 64, 0
14, 18640, Note_on_c, 12, 66, 52
14, 18669, Note_on_c, 12, 66, 0
14, 18680, Note_on_c, 12, 67, 52
14, 18709, Note_on_c, 12, 67, 0
14, 18760, Note_on_c, 12, 67, 52
14, 18789, Note_on_c, 12, 67, 0
14, 18800, Note_on_c, 12, 69, 52
14, 18829, Note_on_c, 12, 69, 0
14, 18840, Note_on_c, 12, 70, 52
14, 18869, Note_on_c, 12, 70, 0
14, 18880, Note_on_c, 12, 69, 52
14, 18909, Note_on_c, 12, 69, 0
14, 18920, Note_on_c, 12, 67, 52
14, 18949, Note_on_c, 12, 67, 0
14, 18960, Note_on_c, 12, 66, 52
14, 19079, Note_on_c, 12, 66, 0
14, 19080, Note_on_c, 12, 69, 52
14, 19319, Note_on_c, 12, 69, 0
14, 19320, Note_on_c, 12, 72, 52
14, 19431, Note_on_c, 12, 72, 0
14, 19440, Note_on_c, 12, 63, 52
14, 19679, Note_on_c, 12, 63, 0
14, 19680, Note_on_c, 12, 64, 52
14, 19855, Note_on_c, 12, 64, 0
14, 19860, Note_on_c, 12, 66, 52
14, 19904, Note_on_c, 12, 66, 0
14, 19920, Note_on_c, 12, 67, 52
14, 19964, Note_on_c, 12, 67, 0
14, 19980, Note_on_c, 12, 67, 52
14, 20024, Note_on_c, 12, 67, 0
14, 20040, Note_on_c, 12, 69, 52
14, 20084, Note_on_c, 12, 69, 0
14, 20100, Note_on_c, 12, 71, 52
14, 20144, Note_on_c, 12, 71, 0
14, 20152, Control_c, 12, 11, 96
14, 20160, Note_on_c, 12, 61, 68
14, 20220, Control_c, 12, 11, 99
14, 20280, Control_c, 12, 11, 101
14, 20340, Control_c, 12, 11, 104
14, 20399, Note_on_c, 12, 61, 0
14, 20400, Note_on_c, 12, 62, 68
14, 20400, Control_c, 12, 11, 106
14, 20460, Control_c, 12, 11, 109
14, 20520, Control_c, 12, 11, 112
14, 20575, Note_on_c, 12, 62, 0
14, 20580, Note_on_c, 12, 64, 68
14, 20580, Control_c, 12, 11, 114
14, 20624, Note_on_c, 12, 64, 0
14, 20640, Note_on_c, 12, 66, 68
14, 20640, Control_c, 12, 11, 117
14, 20684, Note_on_c, 12, 66, 0
14, 20700, Control_c, 12, 11, 119
14, 20700, Note_on_c, 12, 66, 68
14, 20744, Note_on_c, 12, 66, 0
14, 20760, Control_c, 12, 11, 122
14, 20760, Note_on_c, 12, 67, 68
14, 20804, Note_on_c, 12, 67, 0
14, 20820, Control_c, 12, 11, 124
14, 20820, Note_on_c, 12, 69, 68
14, 20864, Note_on_c, 12, 69, 0
14, 20880, Note_on_c, 12, 74, 76
14, 20880, Note_on_c, 12, 62, 76
14, 20880, Note_on_c, 12, 77, 76
14, 20880, Control_c, 12, 11, 127
14, 20999, Note_on_c, 12, 74, 0
14, 20999, Note_on_c, 12, 62, 0
14, 20999, Note_on_c, 12, 77, 0
14, 21360, Note_on_c, 12, 68, 52
14, 21360, Note_on_c, 12, 59, 52
14, 21479, Note_on_c, 12, 68, 0
14, 21479, Note_on_c, 12, 59, 0
14, 21600, Note_on_c, 12, 64, 68
14, 21600, Note_on_c, 12, 73, 68
14, 21600, Note_on_c, 12, 76, 68
14, 21719, Note_on_c, 12, 64, 0
14, 21719, Note_on_c, 12, 73, 0
14, 21719, Note_on_c, 12, 76, 0
14, 22080, Note_on_c, 12, 57, 52
14, 22080, Note_on_c, 12, 67, 52
14, 22199, Note_on_c, 12, 57, 0
14, 22199, Note_on_c, 12, 67, 0
14, 22320, Note_on_c, 12, 74, 68
14, 22320, Note_on_c, 12, 66, 68
14, 22320, Note_on_c, 12, 57, 68
14, 22439, Note_on_c, 12, 74, 0
14, 22439, Note_on_c, 12, 66, 0
14, 22439, Note_on_c, 12, 57, 0
14, 22800, Note_on_c, 12, 74, 52
14, 22800, Note_on_c, 12, 65, 52
14, 22919, Note_on_c, 12, 74, 0
14, 22919, Note_on_c, 12, 65, 0
14, 23040, Note_on_c, 12, 64, 68
14, 23040, Note_on_c, 12, 74, 68
14, 23040, Note_on_c, 12, 57, 68
14, 23159, Note_on_c, 12, 64, 0
14, 23159, Note_on_c, 12, 74, 0
14, 23159, Note_on_c, 12, 57, 0
14, 23520, Note_on_c, 12, 64, 52
14, 23520, Note_on_c, 12, 74, 52
14, 23639, Note_on_c, 12, 64, 0
14, 23639, Note_on_c, 12, 74, 0
14, 23760, Note_on_c, 12, 73, 52
14, 23795, Note_on_c, 12, 73, 0
14, 23800, Note_on_c, 12, 61, 53
14, 23835, Note_on_c, 12, 61, 0
14, 23840, Note_on_c, 12, 61, 54
14, 23875, Note_on_c, 12, 61, 0
14, 23880, Note_on_c, 12, 61, 56
14, 23915, Note_on_c, 12, 61, 0
14, 23920, Note_on_c, 12, 61, 57
14, 23955, Note_on_c, 12, 61, 0
14, 23960, Note_on_c, 12, 61, 58
14, 23995, Note_on_c, 12, 61, 0
14, 24000, Note_on_c, 12, 61, 60
14, 24035, Note_on_c, 12, 61, 0
14, 24040, Note_on_c, 12, 61, 61
14, 24075, Note_on_c, 12, 61, 0
14, 24080, Note_on_c, 12, 61, 62
14, 24115, Note_on_c, 12, 61, 0
14, 24120, Note_on_c, 12, 61, 64
14, 24155, Note_on_c, 12, 61, 0
14, 24160, Note_on_c, 12, 61, 65
14, 24195, Note_on_c, 12, 61, 0
14, 24200, Note_on_c, 12, 61, 66
14, 24235, Note_on_c, 12, 61, 0
14, 24240, Note_on_c, 12, 61, 68
14, 24275, Note_on_c, 12, 61, 0
14, 24280, Note_on_c, 12, 61, 69
14, 24315, Note_on_c, 12, 61, 0
14, 24320, Note_on_c, 12, 61, 70
14, 24355, Note_on_c, 12, 61, 0
14, 24360, Note_on_c, 12, 61, 72
14, 24395, Note_on_c, 12, 61, 0
14, 24400, Note_on_c, 12, 61, 73
14, 24435, Note_on_c, 12, 61, 0
14, 24440, Note_on_c, 12, 61, 74
14, 24475, Note_on_c, 12, 61, 0
14, 24480, Note_on_c, 12, 62, 76
14, 24584, Note_on_c, 12, 62, 0
14, 24600, Note_on_c, 12, 62, 52
14, 24704, Note_on_c, 12, 62, 0
14, 24720, Note_on_c, 12, 62, 52
14, 24824, Note_on_c, 12, 62, 0
14, 24840, Note_on_c, 12, 62, 52
14, 24944, Note_on_c, 12, 62, 0
14, 24960, Note_on_c, 12, 62, 52
14, 25064, Note_on_c, 12, 62, 0
14, 25080, Note_on_c, 12, 62, 52
14, 25184, Note_on_c, 12, 62, 0
14, 25200, Note_on_c, 12, 62, 52
14, 25304, Note_on_c, 12, 62, 0
14, 25320, Note_on_c, 12, 62, 52
14, 25424, Note_on_c, 12, 62, 0
14, 25440, Note_on_c, 12, 62, 52
14, 25544, Note_on_c, 12, 62, 0
14, 25560, Note_on_c, 12, 62, 52
14, 25664, Note_on_c, 12, 62, 0
14, 25680, Note_on_c, 12, 62, 52
14, 25784, Note_on_c, 12, 62, 0
14, 25800, Note_on_c, 12, 62, 52
14, 25904, Note_on_c, 12, 62, 0
14, 25920, Note_on_c, 12, 62, 52
14, 26024, Note_on_c, 12, 62, 0
14, 26040, Note_on_c, 12, 62, 52
14, 26144, Note_on_c, 12, 62, 0
14, 26160, Note_on_c, 12, 62, 52
14, 26264, Note_on_c, 12, 62, 0
14, 26280, Note_on_c, 12, 62, 52
14, 26384, Note_on_c, 12, 62, 0
14, 26400, Note_on_c, 12, 62, 52
14, 26504, Note_on_c, 12, 62, 0
14, 26520, Note_on_c, 12, 62, 52
14, 26624, Note_on_c, 12, 62, 0
14, 26640, Note_on_c, 12, 62, 52
14, 26744, Note_on_c, 12, 62, 0
14, 26760, Note_on_c, 12, 62, 52
14, 26864, Note_on_c, 12, 62, 0
14, 26880, Note_on_c, 12, 62, 52
14, 26984, Note_on_c, 12, 62, 0
14, 27000, Note_on_c, 12, 62, 52
14, 27104, Note_on_c, 12, 62, 0
14, 27120, Note_on_c, 12, 62, 52
14, 27224, Note_on_c, 12, 62, 0
14, 27240, Note_on_c, 12, 62, 52
14, 27344, Note_on_c, 12, 62, 0
14, 27360, Note_on_c, 12, 62, 52
14, 27464, Note_on_c, 12, 62, 0
14, 27480, Note_on_c, 12, 62, 54
14, 27584, Note_on_c, 12, 62, 0
14, 27600, Note_on_c, 12, 62, 56
14, 27704, Note_on_c, 12, 62, 0
14, 27720, Note_on_c, 12, 62, 58
14, 27824, Note_on_c, 12, 62, 0
14, 27840, Note_on_c, 12, 62, 60
14, 27944, Note_on_c, 12, 62, 0
14, 27960, Note_on_c, 12, 62, 62
14, 28064, Note_on_c, 12, 62, 0
14, 28080, Note_on_c, 12, 62, 64
14, 28184, Note_on_c, 12, 62, 0
14, 28200, Note_on_c, 12, 62, 66
14, 28304, Note_on_c, 12, 62, 0
14, 28320, Note_on_c, 12, 62, 52
14, 28320, Note_on_c, 12, 59, 52
14, 28424, Note_on_c, 12, 62, 0
14, 28424, Note_on_c, 12, 59, 0
14, 28440, Note_on_c, 12, 59, 52
14, 28440, Note_on_c, 12, 62, 52
14, 28544, Note_on_c, 12, 59, 0
14, 28544, Note_on_c, 12, 62, 0
14, 28560, Note_on_c, 12, 59, 52
14, 28560, Note_on_c, 12, 62, 52
14, 28664, Note_on_c, 12, 59, 0
14, 28664, Note_on_c, 12, 62, 0
14, 28680, Note_on_c, 12, 59, 52
14, 28680, Note_on_c, 12, 62, 52
14, 28784, Note_on_c, 12, 59, 0
14, 28784, Note_on_c, 12, 62, 0
14, 28800, Note_on_c, 12, 62, 52
14, 28800, Note_on_c, 12, 59, 52
14, 28904, Note_on_c, 12, 62, 0
14, 28904, Note_on_c, 12, 59, 0
14, 28920, Note_on_c, 12, 59, 52
14, 28920, Note_on_c, 12, 62, 52
14, 29024, Note_on_c, 12, 59, 0
14, 29024, Note_on_c, 12, 62, 0
14, 29040, Note_on_c, 12, 59, 52
14, 29040, Note_on_c, 12, 62, 52
14, 29144, Note_on_c, 12, 59, 0
14, 29144, Note_on_c, 12, 62, 0
14, 29160, Note_on_c, 12, 62, 52
14, 29160, Note_on_c, 12, 59, 52
14, 29264, Note_on_c, 12, 62, 0
14, 29264, Note_on_c, 12, 59, 0
14, 29280, Note_on_c, 12, 62, 52
14, 29280, Note_on_c, 12, 59, 52
14, 29384, Note_on_c, 12, 62, 0
14, 29384, Note_on_c, 12, 59, 0
14, 29400, Note_on_c, 12, 59, 52
14, 29400, Note_on_c, 12, 62, 52
14, 29504, Note_on_c, 12, 59, 0
14, 29504, Note_on_c, 12, 62, 0
14, 29520, Note_on_c, 12, 59, 52
14, 29520, Note_on_c, 12, 62, 52
14, 29624, Note_on_c, 12, 59, 0
14, 29624, Note_on_c, 12, 62, 0
14, 29640, Note_on_c, 12, 59, 52
14, 29640, Note_on_c, 12, 62, 52
14, 29744, Note_on_c, 12, 59, 0
14, 29744, Note_on_c, 12, 62, 0
14, 29760, Note_on_c, 12, 62, 52
14, 29760, Note_on_c, 12, 59, 52
14, 29864, Note_on_c, 12, 62, 0
14, 29864, Note_on_c, 12, 59, 0
14, 29880, Note_on_c, 12, 62, 52
14, 29880, Note_on_c, 12, 59, 52
14, 29984, Note_on_c, 12, 62, 0
14, 29984, Note_on_c, 12, 59, 0
14, 30000, Note_on_c, 12, 62, 52
14, 30000, Note_on_c, 12, 59, 52
14, 30104, Note_on_c, 12, 62, 0
14, 30104, Note_on_c, 12, 59, 0
14, 30120, Note_on_c, 12, 62, 52
14, 30120, Note_on_c, 12, 59, 52
14, 30224, Note_on_c, 12, 62, 0
14, 30224, Note_on_c, 12, 59, 0
14, 30240, Note_on_c, 12, 59, 52
14, 30240, Note_on_c, 12, 62, 52
14, 30344, Note_on_c, 12, 59, 0
14, 30344, Note_on_c, 12, 62, 0
14, 30360, Note_on_c, 12, 59, 52
14, 30360, Note_on_c, 12, 62, 52
14, 30464, Note_on_c, 12, 59, 0
14, 30464, Note_on_c, 12, 62, 0
14, 30480, Note_on_c, 12, 59, 52
14, 30480, Note_on_c, 12, 62, 52
14, 30584, Note_on_c, 12, 59, 0
14, 30584, Note_on_c, 12, 62, 0
14, 30600, Note_on_c, 12, 59, 52
14, 30600, Note_on_c, 12, 62, 52
14, 30704, Note_on_c, 12, 59, 0
14, 30704, Note_on_c, 12, 62, 0
14, 30720, Note_on_c, 12, 59, 52
14, 30720, Note_on_c, 12, 62, 52
14, 30824, Note_on_c, 12, 59, 0
14, 30824, Note_on_c, 12, 62, 0
14, 30840, Note_on_c, 12, 59, 52
14, 30840, Note_on_c, 12, 62, 52
14, 30944, Note_on_c, 12, 59, 0
14, 30944, Note_on_c, 12, 62, 0
14, 30960, Note_on_c, 12, 59, 52
14, 30960, Note_on_c, 12, 62, 52
14, 31064, Note_on_c, 12, 59, 0
14, 31064, Note_on_c, 12, 62, 0
14, 31080, Note_on_c, 12, 62, 52
14, 31080, Note_on_c, 12, 59, 52
14, 31184, Note_on_c, 12, 62, 0
14, 31184, Note_on_c, 12, 59, 0
14, 31200, Note_on_c, 12, 62, 52
14, 31200, Note_on_c, 12, 59, 52
14, 31304, Note_on_c, 12, 62, 0
14, 31304, Note_on_c, 12, 59, 0
14, 31320, Note_on_c, 12, 59, 52
14, 31320, Note_on_c, 12, 62, 52
14, 31424, Note_on_c, 12, 59, 0
14, 31424, Note_on_c, 12, 62, 0
14, 31440, Note_on_c, 12, 62, 52
14, 31440, Note_on_c, 12, 59, 52
14, 31544, Note_on_c, 12, 62, 0
14, 31544, Note_on_c, 12, 59, 0
14, 31560, Note_on_c, 12, 62, 52
14, 31560, Note_on_c, 12, 59, 52
14, 31664, Note_on_c, 12, 62, 0
14, 31664, Note_on_c, 12, 59, 0
14, 31680, Note_on_c, 12, 59, 52
14, 31680, Note_on_c, 12, 62, 52
14, 31784, Note_on_c, 12, 59, 0
14, 31784, Note_on_c, 12, 62, 0
14, 31800, Note_on_c, 12, 59, 52
14, 31800, Note_on_c, 12, 62, 52
14, 31904, Note_on_c, 12, 59, 0
14, 31904, Note_on_c, 12, 62, 0
14, 31920, Note_on_c, 12, 59, 52
14, 31920, Note_on_c, 12, 62, 52
14, 32024, Note_on_c, 12, 59, 0
14, 32024, Note_on_c, 12, 62, 0
14, 32040, Note_on_c, 12, 62, 52
14, 32040, Note_on_c, 12, 59, 52
14, 32144, Note_on_c, 12, 62, 0
14, 32144, Note_on_c, 12, 59, 0
14, 32160, Note_on_c, 12, 62, 52
14, 32160, Note_on_c, 12, 60, 52
14, 32264, Note_on_c, 12, 62, 0
14, 32264, Note_on_c, 12, 60, 0
14, 32280, Note_on_c, 12, 60, 52
14, 32280, Note_on_c, 12, 62, 52
14, 32384, Note_on_c, 12, 60, 0
14, 32384, Note_on_c, 12, 62, 0
14, 32400, Note_on_c, 12, 62, 52
14, 32400, Note_on_c, 12, 60, 52
14, 32504, Note_on_c, 12, 62, 0
14, 32504, Note_on_c, 12, 60, 0
14, 32520, Note_on_c, 12, 60, 52
14, 32520, Note_on_c, 12, 62, 52
14, 32624, Note_on_c, 12, 60, 0
14, 32624, Note_on_c, 12, 62, 0
14, 32640, Note_on_c, 12, 60, 52
14, 32640, Note_on_c, 12, 62, 52
14, 32744, Note_on_c, 12, 60, 0
14, 32744, Note_on_c, 12, 62, 0
14, 32760, Note_on_c, 12, 60, 52
14, 32760, Note_on_c, 12, 62, 52
14, 32864, Note_on_c, 12, 60, 0
14, 32864, Note_on_c, 12, 62, 0
14, 32880, Note_on_c, 12, 60, 52
14, 32880, Note_on_c, 12, 62, 52
14, 32984, Note_on_c, 12, 60, 0
14, 32984, Note_on_c, 12, 62, 0
14, 33000, Note_on_c, 12, 62, 52
14, 33000, Note_on_c, 12, 60, 52
14, 33104, Note_on_c, 12, 62, 0
14, 33104, Note_on_c, 12, 60, 0
14, 33120, Note_on_c, 12, 62, 52
14, 33120, Note_on_c, 12, 60, 52
14, 33224, Note_on_c, 12, 62, 0
14, 33224, Note_on_c, 12, 60, 0
14, 33240, Note_on_c, 12, 60, 52
14, 33240, Note_on_c, 12, 62, 52
14, 33344, Note_on_c, 12, 60, 0
14, 33344, Note_on_c, 12, 62, 0
14, 33360, Note_on_c, 12, 60, 52
14, 33360, Note_on_c, 12, 62, 52
14, 33464, Note_on_c, 12, 60, 0
14, 33464, Note_on_c, 12, 62, 0
14, 33480, Note_on_c, 12, 60, 52
14, 33480, Note_on_c, 12, 62, 52
14, 33584, Note_on_c, 12, 60, 0
14, 33584, Note_on_c, 12, 62, 0
14, 33600, Note_on_c, 12, 62, 52
14, 33600, Note_on_c, 12, 60, 52
14, 33704, Note_on_c, 12, 62, 0
14, 33704, Note_on_c, 12, 60, 0
14, 33720, Note_on_c, 12, 60, 52
14, 33720, Note_on_c, 12, 62, 52
14, 33824, Note_on_c, 12, 60, 0
14, 33824, Note_on_c, 12, 62, 0
14, 33840, Note_on_c, 12, 60, 52
14, 33840, Note_on_c, 12, 62, 52
14, 33944, Note_on_c, 12, 60, 0
14, 33944, Note_on_c, 12, 62, 0
14, 33960, Note_on_c, 12, 60, 52
14, 33960, Note_on_c, 12, 62, 52
14, 34064, Note_on_c, 12, 60, 0
14, 34064, Note_on_c, 12, 62, 0
14, 34200, Note_on_c, 12, 62, 53
14, 34289, Note_on_c, 12, 62, 0
14, 34320, Note_on_c, 12, 62, 54
14, 34409, Note_on_c, 12, 62, 0
14, 34440, Note_on_c, 12, 62, 55
14, 34529, Note_on_c, 12, 62, 0
14, 34680, Note_on_c, 12, 63, 57
14, 34769, Note_on_c, 12, 63, 0
14, 34800, Note_on_c, 12, 63, 58
14, 34889, Note_on_c, 12, 63, 0
14, 34920, Note_on_c, 12, 63, 59
14, 35009, Note_on_c, 12, 63, 0
14, 35160, Note_on_c, 12, 59, 61
14, 35249, Note_on_c, 12, 59, 0
14, 35280, Note_on_c, 12, 59, 62
14, 35369, Note_on_c, 12, 59, 0
14, 35400, Note_on_c, 12, 59, 63
14, 35489, Note_on_c, 12, 59, 0
14, 35640, Note_on_c, 12, 60, 65
14, 35729, Note_on_c, 12, 60, 0
14, 35760, Note_on_c, 12, 60, 66
14, 35849, Note_on_c, 12, 60, 0
14, 35880, Note_on_c, 12, 60, 67
14, 35969, Note_on_c, 12, 60, 0
14, 36000, Note_on_c, 12, 59, 68
14, 36089, Note_on_c, 12, 59, 0
14, 36120, Note_on_c, 12, 71, 69
14, 36239, Note_on_c, 12, 71, 0
14, 36240, Note_on_c, 12, 67, 70
14, 36359, Note_on_c, 12, 67, 0
14, 36360, Note_on_c, 12, 71, 71
14, 36464, Note_on_c, 12, 71, 0
14, 36480, Note_on_c, 12, 64, 72
14, 36599, Note_on_c, 12, 64, 0
14, 36600, Note_on_c, 12, 67, 73
14, 36719, Note_on_c, 12, 67, 0
14, 36720, Note_on_c, 12, 64, 74
14, 36839, Note_on_c, 12, 64, 0
14, 36840, Note_on_c, 12, 67, 75
14, 36944, Note_on_c, 12, 67, 0
14, 36960, Note_on_c, 12, 66, 76
14, 37011, Note_on_c, 12, 66, 0
14, 37020, Note_on_c, 12, 74, 76
14, 37020, Note_on_c, 12, 62, 76
14, 37071, Note_on_c, 12, 74, 0
14, 37071, Note_on_c, 12, 62, 0
14, 37080, Note_on_c, 12, 62, 76
14, 37080, Note_on_c, 12, 74, 76
14, 37131, Note_on_c, 12, 62, 0
14, 37131, Note_on_c, 12, 74, 0
14, 37140, Note_on_c, 12, 62, 76
14, 37140, Note_on_c, 12, 74, 76
14, 37191, Note_on_c, 12, 62, 0
14, 37191, Note_on_c, 12, 74, 0
14, 37200, Note_on_c, 12, 62, 76
14, 37200, Note_on_c, 12, 74, 76
14, 37251, Note_on_c, 12, 62, 0
14, 37251, Note_on_c, 12, 74, 0
14, 37260, Note_on_c, 12, 74, 76
14, 37260, Note_on_c, 12, 62, 76
14, 37311, Note_on_c, 12, 74, 0
14, 37311, Note_on_c, 12, 62, 0
14, 37320, Note_on_c, 12, 74, 76
14, 37320, Note_on_c, 12, 62, 76
14, 37371, Note_on_c, 12, 74, 0
14, 37371, Note_on_c, 12, 62, 0
14, 37380, Note_on_c, 12, 74, 76
14, 37380, Note_on_c, 12, 62, 76
14, 37431, Note_on_c, 12, 74, 0
14, 37431, Note_on_c, 12, 62, 0
14, 37440, Note_on_c, 12, 74, 76
14, 37440, Note_on_c, 12, 62, 76
14, 37491, Note_on_c, 12, 74, 0
14, 37491, Note_on_c, 12, 62, 0
14, 37500, Note_on_c, 12, 74, 76
14, 37500, Note_on_c, 12, 62, 76
14, 37551, Note_on_c, 12, 74, 0
14, 37551, Note_on_c, 12, 62, 0
14, 37560, Note_on_c, 12, 74, 76
14, 37560, Note_on_c, 12, 62, 76
14, 37611, Note_on_c, 12, 74, 0
14, 37611, Note_on_c, 12, 62, 0
14, 37620, Note_on_c, 12, 74, 76
14, 37620, Note_on_c, 12, 62, 76
14, 37671, Note_on_c, 12, 74, 0
14, 37671, Note_on_c, 12, 62, 0
14, 37680, Note_on_c, 12, 74, 76
14, 37680, Note_on_c, 12, 62, 76
14, 37731, Note_on_c, 12, 74, 0
14, 37731, Note_on_c, 12, 62, 0
14, 37740, Note_on_c, 12, 74, 76
14, 37740, Note_on_c, 12, 62, 76
14, 37791, Note_on_c, 12, 74, 0
14, 37791, Note_on_c, 12, 62, 0
14, 37800, Note_on_c, 12, 74, 76
14, 37800, Note_on_c, 12, 62, 76
14, 37851, Note_on_c, 12, 74, 0
14, 37851, Note_on_c, 12, 62, 0
14, 37860, Note_on_c, 12, 62, 76
14, 37860, Note_on_c, 12, 74, 76
14, 37911, Note_on_c, 12, 62, 0
14, 37911, Note_on_c, 12, 74, 0
14, 37920, Note_on_c, 12, 62, 84
14, 37920, Note_on_c, 12, 74, 84
14, 37971, Note_on_c, 12, 62, 0
14, 37971, Note_on_c, 12, 74, 0
14, 37980, Note_on_c, 12, 74, 76
14, 37980, Note_on_c, 12, 62, 76
14, 38031, Note_on_c, 12, 74, 0
14, 38031, Note_on_c, 12, 62, 0
14, 38040, Note_on_c, 12, 62, 76
14, 38040, Note_on_c, 12, 74, 76
14, 38091, Note_on_c, 12, 62, 0
14, 38091, Note_on_c, 12, 74, 0
14, 38100, Note_on_c, 12, 74, 76
14, 38100, Note_on_c, 12, 62, 76
14, 38151, Note_on_c, 12, 74, 0
14, 38151, Note_on_c, 12, 62, 0
14, 38160, Note_on_c, 12, 74, 76
14, 38160, Note_on_c, 12, 62, 76
14, 38211, Note_on_c, 12, 74, 0
14, 38211, Note_on_c, 12, 62, 0
14, 38220, Note_on_c, 12, 62, 76
14, 38220, Note_on_c, 12, 74, 76
14, 38271, Note_on_c, 12, 62, 0
14, 38271, Note_on_c, 12, 74, 0
14, 38280, Note_on_c, 12, 74, 76
14, 38280, Note_on_c, 12, 62, 76
14, 38331, Note_on_c, 12, 74, 0
14, 38331, Note_on_c, 12, 62, 0
14, 38340, Note_on_c, 12, 74, 76
14, 38340, Note_on_c, 12, 62, 76
14, 38391, Note_on_c, 12, 74, 0
14, 38391, Note_on_c, 12, 62, 0
14, 38400, Note_on_c, 12, 62, 76
14, 38400, Note_on_c, 12, 74, 76
14, 38451, Note_on_c, 12, 62, 0
14, 38451, Note_on_c, 12, 74, 0
14, 38460, Note_on_c, 12, 74, 76
14, 38460, Note_on_c, 12, 62, 76
14, 38511, Note_on_c, 12, 74, 0
14, 38511, Note_on_c, 12, 62, 0
14, 38520, Note_on_c, 12, 74, 76
14, 38520, Note_on_c, 12, 62, 76
14, 38571, Note_on_c, 12, 74, 0
14, 38571, Note_on_c, 12, 62, 0
14, 38580, Note_on_c, 12, 62, 76
14, 38580, Note_on_c, 12, 74, 76
14, 38631, Note_on_c, 12, 62, 0
14, 38631, Note_on_c, 12, 74, 0
14, 38640, Note_on_c, 12, 74, 76
14, 38640, Note_on_c, 12, 62, 76
14, 38691, Note_on_c, 12, 74, 0
14, 38691, Note_on_c, 12, 62, 0
14, 38700, Note_on_c, 12, 62, 76
14, 38700, Note_on_c, 12, 74, 76
14, 38751, Note_on_c, 12, 62, 0
14, 38751, Note_on_c, 12, 74, 0
14, 38760, Note_on_c, 12, 62, 76
14, 38760, Note_on_c, 12, 74, 76
14, 38811, Note_on_c, 12, 62, 0
14, 38811, Note_on_c, 12, 74, 0
14, 38820, Note_on_c, 12, 62, 76
14, 38820, Note_on_c, 12, 74, 76
14, 38871, Note_on_c, 12, 62, 0
14, 38871, Note_on_c, 12, 74, 0
14, 38880, Note_on_c, 12, 74, 76
14, 38880, Note_on_c, 12, 62, 76
14, 38931, Note_on_c, 12, 74, 0
14, 38931, Note_on_c, 12, 62, 0
14, 38940, Note_on_c, 12, 74, 76
14, 38940, Note_on_c, 12, 62, 76
14, 38991, Note_on_c, 12, 74, 0
14, 38991, Note_on_c, 12, 62, 0
14, 39000, Note_on_c, 12, 74, 76
14, 39000, Note_on_c, 12, 62, 76
14, 39051, Note_on_c, 12, 74, 0
14, 39051, Note_on_c, 12, 62, 0
14, 39060, Note_on_c, 12, 74, 76
14, 39060, Note_on_c, 12, 62, 76
14, 39111, Note_on_c, 12, 74, 0
14, 39111, Note_on_c, 12, 62, 0
14, 39120, Note_on_c, 12, 74, 76
14, 39120, Note_on_c, 12, 62, 76
14, 39171, Note_on_c, 12, 74, 0
14, 39171, Note_on_c, 12, 62, 0
14, 39180, Note_on_c, 12, 62, 76
14, 39180, Note_on_c, 12, 74, 76
14, 39231, Note_on_c, 12, 62, 0
14, 39231, Note_on_c, 12, 74, 0
14, 39240, Note_on_c, 12, 74, 76
14, 39240, Note_on_c, 12, 62, 76
14, 39291, Note_on_c, 12, 74, 0
14, 39291, Note_on_c, 12, 62, 0
14, 39300, Note_on_c, 12, 74, 76
14, 39300, Note_on_c, 12, 62, 76
14, 39351, Note_on_c, 12, 74, 0
14, 39351, Note_on_c, 12, 62, 0
14, 39360, Note_on_c, 12, 62, 84
14, 39360, Note_on_c, 12, 74, 84
14, 39411, Note_on_c, 12, 62, 0
14, 39411, Note_on_c, 12, 74, 0
14, 39420, Note_on_c, 12, 74, 76
14, 39420, Note_on_c, 12, 62, 76
14, 39471, Note_on_c, 12, 74, 0
14, 39471, Note_on_c, 12, 62, 0
14, 39480, Note_on_c, 12, 74, 76
14, 39480, Note_on_c, 12, 62, 76
14, 39531, Note_on_c, 12, 74, 0
14, 39531, Note_on_c, 12, 62, 0
14, 39540, Note_on_c, 12, 74, 76
14, 39540, Note_on_c, 12, 62, 76
14, 39591, Note_on_c, 12, 74, 0
14, 39591, Note_on_c, 12, 62, 0
14, 39600, Note_on_c, 12, 74, 76
14, 39600, Note_on_c, 12, 62, 76
14, 39651, Note_on_c, 12, 74, 0
14, 39651, Note_on_c, 12, 62, 0
14, 39660, Note_on_c, 12, 62, 76
14, 39660, Note_on_c, 12, 74, 76
14, 39711, Note_on_c, 12, 62, 0
14, 39711, Note_on_c, 12, 74, 0
14, 39720, Note_on_c, 12, 62, 76
14, 39720, Note_on_c, 12, 74, 76
14, 39771, Note_on_c, 12, 62, 0
14, 39771, Note_on_c, 12, 74, 0
14, 39780, Note_on_c, 12, 62, 76
14, 39780, Note_on_c, 12, 74, 76
14, 39831, Note_on_c, 12, 62, 0
14, 39831, Note_on_c, 12, 74, 0
14, 39840, Note_on_c, 12, 62, 76
14, 39840, Note_on_c, 12, 74, 76
14, 39891, Note_on_c, 12, 62, 0
14, 39891, Note_on_c, 12, 74, 0
14, 39900, Note_on_c, 12, 62, 76
14, 39900, Note_on_c, 12, 74, 76
14, 39951, Note_on_c, 12, 62, 0
14, 39951, Note_on_c, 12, 74, 0
14, 39960, Note_on_c, 12, 62, 76
14, 39960, Note_on_c, 12, 74, 76
14, 40011, Note_on_c, 12, 62, 0
14, 40011, Note_on_c, 12, 74, 0
14, 40020, Note_on_c, 12, 74, 76
14, 40020, Note_on_c, 12, 62, 76
14, 40071, Note_on_c, 12, 74, 0
14, 40071, Note_on_c, 12, 62, 0
14, 40080, Note_on_c, 12, 62, 76
14, 40080, Note_on_c, 12, 74, 76
14, 40131, Note_on_c, 12, 62, 0
14, 40131, Note_on_c, 12, 74, 0
14, 40140, Note_on_c, 12, 74, 76
14, 40140, Note_on_c, 12, 62, 76
14, 40191, Note_on_c, 12, 74, 0
14, 40191, Note_on_c, 12, 62, 0
14, 40200, Note_on_c, 12, 74, 76
14, 40200, Note_on_c, 12, 62, 76
14, 40251, Note_on_c, 12, 74, 0
14, 40251, Note_on_c, 12, 62, 0
14, 40260, Note_on_c, 12, 74, 76
14, 40260, Note_on_c, 12, 62, 76
14, 40311, Note_on_c, 12, 74, 0
14, 40311, Note_on_c, 12, 62, 0
14, 40320, Note_on_c, 12, 62, 76
14, 40320, Note_on_c, 12, 74, 76
14, 40371, Note_on_c, 12, 62, 0
14, 40371, Note_on_c, 12, 74, 0
14, 40380, Note_on_c, 12, 74, 76
14, 40380, Note_on_c, 12, 62, 76
14, 40431, Note_on_c, 12, 74, 0
14, 40431, Note_on_c, 12, 62, 0
14, 40440, Note_on_c, 12, 62, 76
14, 40440, Note_on_c, 12, 74, 76
14, 40491, Note_on_c, 12, 62, 0
14, 40491, Note_on_c, 12, 74, 0
14, 40500, Note_on_c, 12, 74, 76
14, 40500, Note_on_c, 12, 62, 76
14, 40551, Note_on_c, 12, 74, 0
14, 40551, Note_on_c, 12, 62, 0
14, 40560, Note_on_c, 12, 62, 76
14, 40560, Note_on_c, 12, 74, 76
14, 40611, Note_on_c, 12, 62, 0
14, 40611, Note_on_c, 12, 74, 0
14, 40620, Note_on_c, 12, 74, 76
14, 40620, Note_on_c, 12, 62, 76
14, 40671, Note_on_c, 12, 74, 0
14, 40671, Note_on_c, 12, 62, 0
14, 40680, Note_on_c, 12, 62, 76
14, 40680, Note_on_c, 12, 74, 76
14, 40731, Note_on_c, 12, 62, 0
14, 40731, Note_on_c, 12, 74, 0
14, 40740, Note_on_c, 12, 74, 76
14, 40740, Note_on_c, 12, 62, 76
14, 40791, Note_on_c, 12, 74, 0
14, 40791, Note_on_c, 12, 62, 0
14, 40800, Note_on_c, 12, 62, 76
14, 40800, Note_on_c, 12, 74, 76
14, 40851, Note_on_c, 12, 62, 0
14, 40851, Note_on_c, 12, 74, 0
14, 40860, Note_on_c, 12, 67, 76
14, 40860, Note_on_c, 12, 59, 76
14, 40911, Note_on_c, 12, 67, 0
14, 40911, Note_on_c, 12, 59, 0
14, 40920, Note_on_c, 12, 67, 76
14, 40920, Note_on_c, 12, 59, 76
14, 40971, Note_on_c, 12, 67, 0
14, 40971, Note_on_c, 12, 59, 0
14, 40980, Note_on_c, 12, 67, 76
14, 40980, Note_on_c, 12, 59, 76
14, 41031, Note_on_c, 12, 67, 0
14, 41031, Note_on_c, 12, 59, 0
14, 41040, Note_on_c, 12, 67, 76
14, 41040, Note_on_c, 12, 59, 76
14, 41091, Note_on_c, 12, 67, 0
14, 41091, Note_on_c, 12, 59, 0
14, 41100, Note_on_c, 12, 59, 76
14, 41100, Note_on_c, 12, 67, 76
14, 41151, Note_on_c, 12, 59, 0
14, 41151, Note_on_c, 12, 67, 0
14, 41160, Note_on_c, 12, 67, 76
14, 41160, Note_on_c, 12, 59, 76
14, 41211, Note_on_c, 12, 67, 0
14, 41211, Note_on_c, 12, 59, 0
14, 41220, Note_on_c, 12, 59, 76
14, 41220, Note_on_c, 12, 67, 76
14, 41271, Note_on_c, 12, 59, 0
14, 41271, Note_on_c, 12, 67, 0
14, 41280, Note_on_c, 12, 59, 76
14, 41280, Note_on_c, 12, 67, 76
14, 41331, Note_on_c, 12, 59, 0
14, 41331, Note_on_c, 12, 67, 0
14, 41340, Note_on_c, 12, 67, 76
14, 41340, Note_on_c, 12, 59, 76
14, 41391, Note_on_c, 12, 67, 0
14, 41391, Note_on_c, 12, 59, 0
14, 41400, Note_on_c, 12, 59, 76
14, 41400, Note_on_c, 12, 67, 76
14, 41451, Note_on_c, 12, 59, 0
14, 41451, Note_on_c, 12, 67, 0
14, 41460, Note_on_c, 12, 59, 76
14, 41460, Note_on_c, 12, 67, 76
14, 41511, Note_on_c, 12, 59, 0
14, 41511, Note_on_c, 12, 67, 0
14, 41520, Note_on_c, 12, 67, 76
14, 41520, Note_on_c, 12, 59, 76
14, 41571, Note_on_c, 12, 67, 0
14, 41571, Note_on_c, 12, 59, 0
14, 41580, Note_on_c, 12, 67, 76
14, 41580, Note_on_c, 12, 59, 76
14, 41631, Note_on_c, 12, 67, 0
14, 41631, Note_on_c, 12, 59, 0
14, 41640, Note_on_c, 12, 67, 76
14, 41640, Note_on_c, 12, 59, 76
14, 41691, Note_on_c, 12, 67, 0
14, 41691, Note_on_c, 12, 59, 0
14, 41700, Note_on_c, 12, 67, 76
14, 41700, Note_on_c, 12, 59, 76
14, 41751, Note_on_c, 12, 67, 0
14, 41751, Note_on_c, 12, 59, 0
14, 41760, Note_on_c, 12, 57, 76
14, 41760, Note_on_c, 12, 67, 76
14, 41811, Note_on_c, 12, 57, 0
14, 41811, Note_on_c, 12, 67, 0
14, 41820, Note_on_c, 12, 67, 76
14, 41820, Note_on_c, 12, 57, 76
14, 41871, Note_on_c, 12, 67, 0
14, 41871, Note_on_c, 12, 57, 0
14, 41880, Note_on_c, 12, 67, 76
14, 41880, Note_on_c, 12, 57, 76
14, 41931, Note_on_c, 12, 67, 0
14, 41931, Note_on_c, 12, 57, 0
14, 41940, Note_on_c, 12, 57, 76
14, 41940, Note_on_c, 12, 67, 76
14, 41991, Note_on_c, 12, 57, 0
14, 41991, Note_on_c, 12, 67, 0
14, 42000, Note_on_c, 12, 57, 76
14, 42000, Note_on_c, 12, 67, 76
14, 42051, Note_on_c, 12, 57, 0
14, 42051, Note_on_c, 12, 67, 0
14, 42060, Note_on_c, 12, 67, 76
14, 42060, Note_on_c, 12, 57, 76
14, 42111, Note_on_c, 12, 67, 0
14, 42111, Note_on_c, 12, 57, 0
14, 42120, Note_on_c, 12, 67, 76
14, 42120, Note_on_c, 12, 57, 76
14, 42171, Note_on_c, 12, 67, 0
14, 42171, Note_on_c, 12, 57, 0
14, 42180, Note_on_c, 12, 57, 76
14, 42180, Note_on_c, 12, 67, 76
14, 42231, Note_on_c, 12, 57, 0
14, 42231, Note_on_c, 12, 67, 0
14, 42240, Note_on_c, 12, 67, 76
14, 42240, Note_on_c, 12, 57, 76
14, 42291, Note_on_c, 12, 67, 0
14, 42291, Note_on_c, 12, 57, 0
14, 42300, Note_on_c, 12, 67, 76
14, 42300, Note_on_c, 12, 57, 76
14, 42351, Note_on_c, 12, 67, 0
14, 42351, Note_on_c, 12, 57, 0
14, 42360, Note_on_c, 12, 57, 76
14, 42360, Note_on_c, 12, 67, 76
14, 42411, Note_on_c, 12, 57, 0
14, 42411, Note_on_c, 12, 67, 0
14, 42420, Note_on_c, 12, 57, 76
14, 42420, Note_on_c, 12, 67, 76
14, 42471, Note_on_c, 12, 57, 0
14, 42471, Note_on_c, 12, 67, 0
14, 42480, Note_on_c, 12, 67, 76
14, 42480, Note_on_c, 12, 57, 76
14, 42531, Note_on_c, 12, 67, 0
14, 42531, Note_on_c, 12, 57, 0
14, 42540, Note_on_c, 12, 57, 76
14, 42540, Note_on_c, 12, 67, 76
14, 42591, Note_on_c, 12, 57, 0
14, 42591, Note_on_c, 12, 67, 0
14, 42600, Note_on_c, 12, 67, 76
14, 42600, Note_on_c, 12, 57, 76
14, 42651, Note_on_c, 12, 67, 0
14, 42651, Note_on_c, 12, 57, 0
14, 42660, Note_on_c, 12, 67, 76
14, 42660, Note_on_c, 12, 57, 76
14, 42711, Note_on_c, 12, 67, 0
14, 42711, Note_on_c, 12, 57, 0
14, 42720, Note_on_c, 12, 66, 76
14, 42720, Note_on_c, 12, 57, 76
14, 42771, Note_on_c, 12, 66, 0
14, 42771, Note_on_c, 12, 57, 0
14, 42780, Note_on_c, 12, 62, 76
14, 42780, Note_on_c, 12, 74, 76
14, 42831, Note_on_c, 12, 62, 0
14, 42831, Note_on_c, 12, 74, 0
14, 42840, Note_on_c, 12, 62, 76
14, 42840, Note_on_c, 12, 74, 76
14, 42891, Note_on_c, 12, 62, 0
14, 42891, Note_on_c, 12, 74, 0
14, 42900, Note_on_c, 12, 74, 76
14, 42900, Note_on_c, 12, 62, 76
14, 42951, Note_on_c, 12, 74, 0
14, 42951, Note_on_c, 12, 62, 0
14, 42960, Note_on_c, 12, 74, 76
14, 42960, Note_on_c, 12, 62, 76
14, 43011, Note_on_c, 12, 74, 0
14, 43011, Note_on_c, 12, 62, 0
14, 43020, Note_on_c, 12, 62, 76
14, 43020, Note_on_c, 12, 74, 76
14, 43071, Note_on_c, 12, 62, 0
14, 43071, Note_on_c, 12, 74, 0
14, 43080, Note_on_c, 12, 74, 76
14, 43080, Note_on_c, 12, 62, 76
14, 43131, Note_on_c, 12, 74, 0
14, 43131, Note_on_c, 12, 62, 0
14, 43140, Note_on_c, 12, 62, 76
14, 43140, Note_on_c, 12, 74, 76
14, 43191, Note_on_c, 12, 62, 0
14, 43191, Note_on_c, 12, 74, 0
14, 43200, Note_on_c, 12, 62, 84
14, 43200, Note_on_c, 12, 74, 84
14, 43251, Note_on_c, 12, 62, 0
14, 43251, Note_on_c, 12, 74, 0
14, 43260, Note_on_c, 12, 62, 76
14, 43260, Note_on_c, 12, 74, 76
14, 43311, Note_on_c, 12, 62, 0
14, 43311, Note_on_c, 12, 74, 0
14, 43320, Note_on_c, 12, 62, 76
14, 43320, Note_on_c, 12, 74, 76
14, 43371, Note_on_c, 12, 62, 0
14, 43371, Note_on_c, 12, 74, 0
14, 43380, Note_on_c, 12, 74, 76
14, 43380, Note_on_c, 12, 62, 76
14, 43431, Note_on_c, 12, 74, 0
14, 43431, Note_on_c, 12, 62, 0
14, 43440, Note_on_c, 12, 62, 76
14, 43440, Note_on_c, 12, 74, 76
14, 43491, Note_on_c, 12, 62, 0
14, 43491, Note_on_c, 12, 74, 0
14, 43500, Note_on_c, 12, 62, 76
14, 43500, Note_on_c, 12, 74, 76
14, 43551, Note_on_c, 12, 62, 0
14, 43551, Note_on_c, 12, 74, 0
14, 43560, Note_on_c, 12, 74, 76
14, 43560, Note_on_c, 12, 62, 76
14, 43611, Note_on_c, 12, 74, 0
14, 43611, Note_on_c, 12, 62, 0
14, 43620, Note_on_c, 12, 74, 76
14, 43620, Note_on_c, 12, 62, 76
14, 43671, Note_on_c, 12, 74, 0
14, 43671, Note_on_c, 12, 62, 0
14, 43680, Note_on_c, 12, 62, 76
14, 43680, Note_on_c, 12, 74, 76
14, 43731, Note_on_c, 12, 62, 0
14, 43731, Note_on_c, 12, 74, 0
14, 43740, Note_on_c, 12, 62, 76
14, 43740, Note_on_c, 12, 74, 76
14, 43791, Note_on_c, 12, 62, 0
14, 43791, Note_on_c, 12, 74, 0
14, 43800, Note_on_c, 12, 74, 76
14, 43800, Note_on_c, 12, 62, 76
14, 43851, Note_on_c, 12, 74, 0
14, 43851, Note_on_c, 12, 62, 0
14, 43860, Note_on_c, 12, 74, 76
14, 43860, Note_on_c, 12, 62, 76
14, 43911, Note_on_c, 12, 74, 0
14, 43911, Note_on_c, 12, 62, 0
14, 43920, Note_on_c, 12, 62, 76
14, 43920, Note_on_c, 12, 74, 76
14, 43971, Note_on_c, 12, 62, 0
14, 43971, Note_on_c, 12, 74, 0
14, 43980, Note_on_c, 12, 62, 76
14, 43980, Note_on_c, 12, 74, 76
14, 44031, Note_on_c, 12, 62, 0
14, 44031, Note_on_c, 12, 74, 0
14, 44040, Note_on_c, 12, 62, 76
14, 44040, Note_on_c, 12, 74, 76
14, 44091, Note_on_c, 12, 62, 0
14, 44091, Note_on_c, 12, 74, 0
14, 44100, Note_on_c, 12, 74, 76
14, 44100, Note_on_c, 12, 62, 76
14, 44151, Note_on_c, 12, 74, 0
14, 44151, Note_on_c, 12, 62, 0
14, 44160, Note_on_c, 12, 62, 76
14, 44160, Note_on_c, 12, 74, 76
14, 44211, Note_on_c, 12, 62, 0
14, 44211, Note_on_c, 12, 74, 0
14, 44220, Note_on_c, 12, 74, 76
14, 44220, Note_on_c, 12, 62, 76
14, 44271, Note_on_c, 12, 74, 0
14, 44271, Note_on_c, 12, 62, 0
14, 44280, Note_on_c, 12, 62, 76
14, 44280, Note_on_c, 12, 74, 76
14, 44331, Note_on_c, 12, 62, 0
14, 44331, Note_on_c, 12, 74, 0
14, 44340, Note_on_c, 12, 62, 76
14, 44340, Note_on_c, 12, 74, 76
14, 44391, Note_on_c, 12, 62, 0
14, 44391, Note_on_c, 12, 74, 0
14, 44400, Note_on_c, 12, 62, 76
14, 44400, Note_on_c, 12, 74, 76
14, 44451, Note_on_c, 12, 62, 0
14, 44451, Note_on_c, 12, 74, 0
14, 44460, Note_on_c, 12, 62, 76
14, 44460, Note_on_c, 12, 74, 76
14, 44511, Note_on_c, 12, 62, 0
14, 44511, Note_on_c, 12, 74, 0
14, 44520, Note_on_c, 12, 62, 76
14, 44520, Note_on_c, 12, 74, 76
14, 44571, Note_on_c, 12, 62, 0
14, 44571, Note_on_c, 12, 74, 0
14, 44580, Note_on_c, 12, 62, 76
14, 44580, Note_on_c, 12, 74, 76
14, 44631, Note_on_c, 12, 62, 0
14, 44631, Note_on_c, 12, 74, 0
14, 44640, Note_on_c, 12, 62, 76
14, 44640, Note_on_c, 12, 74, 76
14, 44691, Note_on_c, 12, 62, 0
14, 44691, Note_on_c, 12, 74, 0
14, 44700, Note_on_c, 12, 67, 76
14, 44700, Note_on_c, 12, 58, 76
14, 44751, Note_on_c, 12, 67, 0
14, 44751, Note_on_c, 12, 58, 0
14, 44760, Note_on_c, 12, 58, 76
14, 44760, Note_on_c, 12, 67, 76
14, 44811, Note_on_c, 12, 58, 0
14, 44811, Note_on_c, 12, 67, 0
14, 44820, Note_on_c, 12, 67, 76
14, 44820, Note_on_c, 12, 58, 76
14, 44871, Note_on_c, 12, 67, 0
14, 44871, Note_on_c, 12, 58, 0
14, 44880, Note_on_c, 12, 58, 76
14, 44880, Note_on_c, 12, 67, 76
14, 44931, Note_on_c, 12, 58, 0
14, 44931, Note_on_c, 12, 67, 0
14, 44940, Note_on_c, 12, 67, 76
14, 44940, Note_on_c, 12, 58, 76
14, 44991, Note_on_c, 12, 67, 0
14, 44991, Note_on_c, 12, 58, 0
14, 45000, Note_on_c, 12, 58, 76
14, 45000, Note_on_c, 12, 67, 76
14, 45051, Note_on_c, 12, 58, 0
14, 45051, Note_on_c, 12, 67, 0
14, 45060, Note_on_c, 12, 67, 76
14, 45060, Note_on_c, 12, 58, 76
14, 45111, Note_on_c, 12, 67, 0
14, 45111, Note_on_c, 12, 58, 0
14, 45120, Note_on_c, 12, 67, 76
14, 45120, Note_on_c, 12, 58, 76
14, 45171, Note_on_c, 12, 67, 0
14, 45171, Note_on_c, 12, 58, 0
14, 45180, Note_on_c, 12, 67, 76
14, 45180, Note_on_c, 12, 58, 76
14, 45231, Note_on_c, 12, 67, 0
14, 45231, Note_on_c, 12, 58, 0
14, 45240, Note_on_c, 12, 67, 76
14, 45240, Note_on_c, 12, 58, 76
14, 45291, Note_on_c, 12, 67, 0
14, 45291, Note_on_c, 12, 58, 0
14, 45300, Note_on_c, 12, 58, 76
14, 45300, Note_on_c, 12, 67, 76
14, 45351, Note_on_c, 12, 58, 0
14, 45351, Note_on_c, 12, 67, 0
14, 45360, Note_on_c, 12, 58, 76
14, 45360, Note_on_c, 12, 67, 76
14, 45411, Note_on_c, 12, 58, 0
14, 45411, Note_on_c, 12, 67, 0
14, 45420, Note_on_c, 12, 58, 76
14, 45420, Note_on_c, 12, 67, 76
14, 45471, Note_on_c, 12, 58, 0
14, 45471, Note_on_c, 12, 67, 0
14, 45480, Note_on_c, 12, 67, 76
14, 45480, Note_on_c, 12, 58, 76
14, 45531, Note_on_c, 12, 67, 0
14, 45531, Note_on_c, 12, 58, 0
14, 45540, Note_on_c, 12, 67, 76
14, 45540, Note_on_c, 12, 58, 76
14, 45591, Note_on_c, 12, 67, 0
14, 45591, Note_on_c, 12, 58, 0
14, 45600, Note_on_c, 12, 57, 76
14, 45600, Note_on_c, 12, 67, 76
14, 45651, Note_on_c, 12, 57, 0
14, 45651, Note_on_c, 12, 67, 0
14, 45660, Note_on_c, 12, 67, 76
14, 45660, Note_on_c, 12, 57, 76
14, 45711, Note_on_c, 12, 67, 0
14, 45711, Note_on_c, 12, 57, 0
14, 45720, Note_on_c, 12, 67, 76
14, 45720, Note_on_c, 12, 57, 76
14, 45771, Note_on_c, 12, 67, 0
14, 45771, Note_on_c, 12, 57, 0
14, 45780, Note_on_c, 12, 67, 76
14, 45780, Note_on_c, 12, 57, 76
14, 45831, Note_on_c, 12, 67, 0
14, 45831, Note_on_c, 12, 57, 0
14, 45840, Note_on_c, 12, 57, 76
14, 45840, Note_on_c, 12, 67, 76
14, 45891, Note_on_c, 12, 57, 0
14, 45891, Note_on_c, 12, 67, 0
14, 45900, Note_on_c, 12, 67, 76
14, 45900, Note_on_c, 12, 57, 76
14, 45951, Note_on_c, 12, 67, 0
14, 45951, Note_on_c, 12, 57, 0
14, 45960, Note_on_c, 12, 67, 76
14, 45960, Note_on_c, 12, 57, 76
14, 46011, Note_on_c, 12, 67, 0
14, 46011, Note_on_c, 12, 57, 0
14, 46020, Note_on_c, 12, 67, 76
14, 46020, Note_on_c, 12, 57, 76
14, 46071, Note_on_c, 12, 67, 0
14, 46071, Note_on_c, 12, 57, 0
14, 46080, Note_on_c, 12, 67, 76
14, 46080, Note_on_c, 12, 57, 76
14, 46131, Note_on_c, 12, 67, 0
14, 46131, Note_on_c, 12, 57, 0
14, 46140, Note_on_c, 12, 67, 76
14, 46140, Note_on_c, 12, 57, 76
14, 46191, Note_on_c, 12, 67, 0
14, 46191, Note_on_c, 12, 57, 0
14, 46200, Note_on_c, 12, 57, 76
14, 46200, Note_on_c, 12, 67, 76
14, 46251, Note_on_c, 12, 57, 0
14, 46251, Note_on_c, 12, 67, 0
14, 46260, Note_on_c, 12, 57, 76
14, 46260, Note_on_c, 12, 67, 76
14, 46311, Note_on_c, 12, 57, 0
14, 46311, Note_on_c, 12, 67, 0
14, 46320, Note_on_c, 12, 67, 76
14, 46320, Note_on_c, 12, 57, 76
14, 46371, Note_on_c, 12, 67, 0
14, 46371, Note_on_c, 12, 57, 0
14, 46380, Note_on_c, 12, 57, 76
14, 46380, Note_on_c, 12, 67, 76
14, 46431, Note_on_c, 12, 57, 0
14, 46431, Note_on_c, 12, 67, 0
14, 46440, Note_on_c, 12, 57, 76
14, 46440, Note_on_c, 12, 67, 76
14, 46491, Note_on_c, 12, 57, 0
14, 46491, Note_on_c, 12, 67, 0
14, 46500, Note_on_c, 12, 67, 76
14, 46500, Note_on_c, 12, 57, 76
14, 46551, Note_on_c, 12, 67, 0
14, 46551, Note_on_c, 12, 57, 0
14, 46560, Note_on_c, 12, 57, 76
14, 46560, Note_on_c, 12, 65, 76
14, 46611, Note_on_c, 12, 57, 0
14, 46611, Note_on_c, 12, 65, 0
14, 46620, Note_on_c, 12, 74, 76
14, 46620, Note_on_c, 12, 65, 76
14, 46671, Note_on_c, 12, 74, 0
14, 46671, Note_on_c, 12, 65, 0
14, 46680, Note_on_c, 12, 74, 76
14, 46680, Note_on_c, 12, 65, 76
14, 46731, Note_on_c, 12, 74, 0
14, 46731, Note_on_c, 12, 65, 0
14, 46740, Note_on_c, 12, 65, 76
14, 46740, Note_on_c, 12, 74, 76
14, 46791, Note_on_c, 12, 65, 0
14, 46791, Note_on_c, 12, 74, 0
14, 46800, Note_on_c, 12, 65, 76
14, 46800, Note_on_c, 12, 74, 76
14, 46851, Note_on_c, 12, 65, 0
14, 46851, Note_on_c, 12, 74, 0
14, 46860, Note_on_c, 12, 74, 76
14, 46860, Note_on_c, 12, 65, 76
14, 46911, Note_on_c, 12, 74, 0
14, 46911, Note_on_c, 12, 65, 0
14, 46920, Note_on_c, 12, 74, 76
14, 46920, Note_on_c, 12, 65, 76
14, 46971, Note_on_c, 12, 74, 0
14, 46971, Note_on_c, 12, 65, 0
14, 46980, Note_on_c, 12, 74, 76
14, 46980, Note_on_c, 12, 65, 76
14, 47031, Note_on_c, 12, 74, 0
14, 47031, Note_on_c, 12, 65, 0
14, 47040, Note_on_c, 12, 65, 84
14, 47040, Note_on_c, 12, 74, 84
14, 47091, Note_on_c, 12, 65, 0
14, 47091, Note_on_c, 12, 74, 0
14, 47100, Note_on_c, 12, 74, 76
14, 47100, Note_on_c, 12, 65, 76
14, 47151, Note_on_c, 12, 74, 0
14, 47151, Note_on_c, 12, 65, 0
14, 47160, Note_on_c, 12, 65, 76
14, 47160, Note_on_c, 12, 74, 76
14, 47211, Note_on_c, 12, 65, 0
14, 47211, Note_on_c, 12, 74, 0
14, 47220, Note_on_c, 12, 74, 76
14, 47220, Note_on_c, 12, 65, 76
14, 47271, Note_on_c, 12, 74, 0
14, 47271, Note_on_c, 12, 65, 0
14, 47280, Note_on_c, 12, 74, 76
14, 47280, Note_on_c, 12, 65, 76
14, 47331, Note_on_c, 12, 74, 0
14, 47331, Note_on_c, 12, 65, 0
14, 47340, Note_on_c, 12, 65, 76
14, 47340, Note_on_c, 12, 74, 76
14, 47391, Note_on_c, 12, 65, 0
14, 47391, Note_on_c, 12, 74, 0
14, 47400, Note_on_c, 12, 74, 76
14, 47400, Note_on_c, 12, 65, 76
14, 47451, Note_on_c, 12, 74, 0
14, 47451, Note_on_c, 12, 65, 0
14, 47460, Note_on_c, 12, 74, 76
14, 47460, Note_on_c, 12, 65, 76
14, 47511, Note_on_c, 12, 74, 0
14, 47511, Note_on_c, 12, 65, 0
14, 47520, Note_on_c, 12, 74, 76
14, 47520, Note_on_c, 12, 65, 76
14, 47571, Note_on_c, 12, 74, 0
14, 47571, Note_on_c, 12, 65, 0
14, 47580, Note_on_c, 12, 65, 76
14, 47580, Note_on_c, 12, 74, 76
14, 47631, Note_on_c, 12, 65, 0
14, 47631, Note_on_c, 12, 74, 0
14, 47640, Note_on_c, 12, 65, 76
14, 47640, Note_on_c, 12, 74, 76
14, 47691, Note_on_c, 12, 65, 0
14, 47691, Note_on_c, 12, 74, 0
14, 47700, Note_on_c, 12, 65, 76
14, 47700, Note_on_c, 12, 74, 76
14, 47751, Note_on_c, 12, 65, 0
14, 47751, Note_on_c, 12, 74, 0
14, 47760, Note_on_c, 12, 74, 76
14, 47760, Note_on_c, 12, 65, 76
14, 47811, Note_on_c, 12, 74, 0
14, 47811, Note_on_c, 12, 65, 0
14, 47820, Note_on_c, 12, 74, 76
14, 47820, Note_on_c, 12, 65, 76
14, 47871, Note_on_c, 12, 74, 0
14, 47871, Note_on_c, 12, 65, 0
14, 47880, Note_on_c, 12, 65, 76
14, 47880, Note_on_c, 12, 74, 76
14, 47931, Note_on_c, 12, 65, 0
14, 47931, Note_on_c, 12, 74, 0
14, 47940, Note_on_c, 12, 74, 76
14, 47940, Note_on_c, 12, 65, 76
14, 47991, Note_on_c, 12, 74, 0
14, 47991, Note_on_c, 12, 65, 0
14, 48000, Note_on_c, 12, 65, 76
14, 48000, Note_on_c, 12, 74, 76
14, 48051, Note_on_c, 12, 65, 0
14, 48051, Note_on_c, 12, 74, 0
14, 48060, Note_on_c, 12, 74, 76
14, 48060, Note_on_c, 12, 65, 76
14, 48111, Note_on_c, 12, 74, 0
14, 48111, Note_on_c, 12, 65, 0
14, 48120, Note_on_c, 12, 65, 76
14, 48120, Note_on_c, 12, 74, 76
14, 48171, Note_on_c, 12, 65, 0
14, 48171, Note_on_c, 12, 74, 0
14, 48180, Note_on_c, 12, 74, 76
14, 48180, Note_on_c, 12, 65, 76
14, 48231, Note_on_c, 12, 74, 0
14, 48231, Note_on_c, 12, 65, 0
14, 48240, Note_on_c, 12, 65, 76
14, 48240, Note_on_c, 12, 74, 76
14, 48291, Note_on_c, 12, 65, 0
14, 48291, Note_on_c, 12, 74, 0
14, 48300, Note_on_c, 12, 65, 76
14, 48300, Note_on_c, 12, 74, 76
14, 48351, Note_on_c, 12, 65, 0
14, 48351, Note_on_c, 12, 74, 0
14, 48360, Note_on_c, 12, 65, 76
14, 48360, Note_on_c, 12, 74, 76
14, 48411, Note_on_c, 12, 65, 0
14, 48411, Note_on_c, 12, 74, 0
14, 48420, Note_on_c, 12, 65, 76
14, 48420, Note_on_c, 12, 74, 76
14, 48471, Note_on_c, 12, 65, 0
14, 48471, Note_on_c, 12, 74, 0
14, 48480, Note_on_c, 12, 74, 76
14, 48480, Note_on_c, 12, 65, 76
14, 48531, Note_on_c, 12, 74, 0
14, 48531, Note_on_c, 12, 65, 0
14, 48540, Note_on_c, 12, 74, 76
14, 48540, Note_on_c, 12, 65, 76
14, 48591, Note_on_c, 12, 74, 0
14, 48591, Note_on_c, 12, 65, 0
14, 48600, Note_on_c, 12, 74, 76
14, 48600, Note_on_c, 12, 65, 76
14, 48651, Note_on_c, 12, 74, 0
14, 48651, Note_on_c, 12, 65, 0
14, 48660, Note_on_c, 12, 74, 76
14, 48660, Note_on_c, 12, 65, 76
14, 48711, Note_on_c, 12, 74, 0
14, 48711, Note_on_c, 12, 65, 0
14, 48720, Note_on_c, 12, 74, 76
14, 48720, Note_on_c, 12, 65, 76
14, 48771, Note_on_c, 12, 74, 0
14, 48771, Note_on_c, 12, 65, 0
14, 48780, Note_on_c, 12, 65, 76
14, 48780, Note_on_c, 12, 74, 76
14, 48831, Note_on_c, 12, 65, 0
14, 48831, Note_on_c, 12, 74, 0
14, 48840, Note_on_c, 12, 65, 76
14, 48840, Note_on_c, 12, 74, 76
14, 48891, Note_on_c, 12, 65, 0
14, 48891, Note_on_c, 12, 74, 0
14, 48900, Note_on_c, 12, 65, 76
14, 48900, Note_on_c, 12, 74, 76
14, 48951, Note_on_c, 12, 65, 0
14, 48951, Note_on_c, 12, 74, 0
14, 48960, Note_on_c, 12, 74, 84
14, 48960, Note_on_c, 12, 65, 84
14, 49011, Note_on_c, 12, 74, 0
14, 49011, Note_on_c, 12, 65, 0
14, 49020, Note_on_c, 12, 65, 76
14, 49020, Note_on_c, 12, 74, 76
14, 49071, Note_on_c, 12, 65, 0
14, 49071, Note_on_c, 12, 74, 0
14, 49080, Note_on_c, 12, 74, 76
14, 49080, Note_on_c, 12, 65, 76
14, 49131, Note_on_c, 12, 74, 0
14, 49131, Note_on_c, 12, 65, 0
14, 49140, Note_on_c, 12, 74, 76
14, 49140, Note_on_c, 12, 65, 76
14, 49191, Note_on_c, 12, 74, 0
14, 49191, Note_on_c, 12, 65, 0
14, 49200, Note_on_c, 12, 74, 76
14, 49200, Note_on_c, 12, 65, 76
14, 49251, Note_on_c, 12, 74, 0
14, 49251, Note_on_c, 12, 65, 0
14, 49260, Note_on_c, 12, 65, 76
14, 49260, Note_on_c, 12, 74, 76
14, 49311, Note_on_c, 12, 65, 0
14, 49311, Note_on_c, 12, 74, 0
14, 49320, Note_on_c, 12, 65, 76
14, 49320, Note_on_c, 12, 74, 76
14, 49371, Note_on_c, 12, 65, 0
14, 49371, Note_on_c, 12, 74, 0
14, 49380, Note_on_c, 12, 65, 76
14, 49380, Note_on_c, 12, 74, 76
14, 49431, Note_on_c, 12, 65, 0
14, 49431, Note_on_c, 12, 74, 0
14, 49440, Note_on_c, 12, 65, 84
14, 49440, Note_on_c, 12, 74, 84
14, 49491, Note_on_c, 12, 65, 0
14, 49491, Note_on_c, 12, 74, 0
14, 49500, Note_on_c, 12, 65, 76
14, 49500, Note_on_c, 12, 74, 76
14, 49551, Note_on_c, 12, 65, 0
14, 49551, Note_on_c, 12, 74, 0
14, 49560, Note_on_c, 12, 74, 76
14, 49560, Note_on_c, 12, 65, 76
14, 49611, Note_on_c, 12, 74, 0
14, 49611, Note_on_c, 12, 65, 0
14, 49620, Note_on_c, 12, 74, 76
14, 49620, Note_on_c, 12, 65, 76
14, 49671, Note_on_c, 12, 74, 0
14, 49671, Note_on_c, 12, 65, 0
14, 49680, Note_on_c, 12, 74, 76
14, 49680, Note_on_c, 12, 65, 76
14, 49731, Note_on_c, 12, 74, 0
14, 49731, Note_on_c, 12, 65, 0
14, 49740, Note_on_c, 12, 74, 76
14, 49740, Note_on_c, 12, 65, 76
14, 49791, Note_on_c, 12, 74, 0
14, 49791, Note_on_c, 12, 65, 0
14, 49800, Note_on_c, 12, 65, 76
14, 49800, Note_on_c, 12, 74, 76
14, 49851, Note_on_c, 12, 65, 0
14, 49851, Note_on_c, 12, 74, 0
14, 49860, Note_on_c, 12, 65, 76
14, 49860, Note_on_c, 12, 74, 76
14, 49911, Note_on_c, 12, 65, 0
14, 49911, Note_on_c, 12, 74, 0
14, 49920, Note_on_c, 12, 74, 84
14, 49920, Note_on_c, 12, 65, 84
14, 49971, Note_on_c, 12, 74, 0
14, 49971, Note_on_c, 12, 65, 0
14, 49980, Note_on_c, 12, 65, 76
14, 49980, Note_on_c, 12, 74, 76
14, 50031, Note_on_c, 12, 65, 0
14, 50031, Note_on_c, 12, 74, 0
14, 50040, Note_on_c, 12, 74, 76
14, 50040, Note_on_c, 12, 65, 76
14, 50091, Note_on_c, 12, 74, 0
14, 50091, Note_on_c, 12, 65, 0
14, 50100, Note_on_c, 12, 74, 76
14, 50100, Note_on_c, 12, 65, 76
14, 50151, Note_on_c, 12, 74, 0
14, 50151, Note_on_c, 12, 65, 0
14, 50160, Note_on_c, 12, 74, 76
14, 50160, Note_on_c, 12, 65, 76
14, 50211, Note_on_c, 12, 74, 0
14, 50211, Note_on_c, 12, 65, 0
14, 50220, Note_on_c, 12, 65, 76
14, 50220, Note_on_c, 12, 74, 76
14, 50271, Note_on_c, 12, 65, 0
14, 50271, Note_on_c, 12, 74, 0
14, 50280, Note_on_c, 12, 65, 76
14, 50280, Note_on_c, 12, 74, 76
14, 50331, Note_on_c, 12, 65, 0
14, 50331, Note_on_c, 12, 74, 0
14, 50340, Note_on_c, 12, 65, 76
14, 50340, Note_on_c, 12, 74, 76
14, 50391, Note_on_c, 12, 65, 0
14, 50391, Note_on_c, 12, 74, 0
14, 50400, Note_on_c, 12, 76, 84
14, 50984, Note_on_c, 12, 76, 0
14, 51000, Note_on_c, 12, 77, 84
14, 51089, Note_on_c, 12, 77, 0
14, 51120, Note_on_c, 12, 76, 84
14, 51209, Note_on_c, 12, 76, 0
14, 51240, Note_on_c, 12, 74, 84
14, 51329, Note_on_c, 12, 74, 0
14, 51360, Note_on_c, 12, 72, 84
14, 51449, Note_on_c, 12, 72, 0
14, 51480, Note_on_c, 12, 71, 84
14, 51569, Note_on_c, 12, 71, 0
14, 51600, Note_on_c, 12, 69, 84
14, 51689, Note_on_c, 12, 69, 0
14, 51720, Note_on_c, 12, 68, 84
14, 51809, Note_on_c, 12, 68, 0
14, 51840, Note_on_c, 12, 69, 84
14, 51929, Note_on_c, 12, 69, 0
14, 51960, Note_on_c, 12, 72, 84
14, 52049, Note_on_c, 12, 72, 0
14, 52080, Note_on_c, 12, 71, 84
14, 52169, Note_on_c, 12, 71, 0
14, 52200, Note_on_c, 12, 69, 84
14, 52289, Note_on_c, 12, 69, 0
14, 52320, Note_on_c, 12, 68, 84
14, 52409, Note_on_c, 12, 68, 0
14, 52440, Note_on_c, 12, 63, 84
14, 52529, Note_on_c, 12, 63, 0
14, 52560, Note_on_c, 12, 64, 84
14, 52649, Note_on_c, 12, 64, 0
14, 52680, Note_on_c, 12, 63, 84
14, 52769, Note_on_c, 12, 63, 0
14, 52800, Note_on_c, 12, 64, 84
14, 52889, Note_on_c, 12, 64, 0
14, 52920, Note_on_c, 12, 66, 84
14, 53009, Note_on_c, 12, 66, 0
14, 53040, Note_on_c, 12, 67, 84
14, 53129, Note_on_c, 12, 67, 0
14, 53160, Note_on_c, 12, 68, 84
14, 53249, Note_on_c, 12, 68, 0
14, 53280, Note_on_c, 12, 69, 84
14, 53369, Note_on_c, 12, 69, 0
14, 53400, Note_on_c, 12, 68, 84
14, 53489, Note_on_c, 12, 68, 0
14, 53520, Note_on_c, 12, 69, 84
14, 53609, Note_on_c, 12, 69, 0
14, 53640, Note_on_c, 12, 71, 84
14, 53729, Note_on_c, 12, 71, 0
14, 53760, Note_on_c, 12, 72, 84
14, 53849, Note_on_c, 12, 72, 0
14, 53880, Note_on_c, 12, 73, 84
14, 53969, Note_on_c, 12, 73, 0
14, 54000, Note_on_c, 12, 74, 84
14, 54089, Note_on_c, 12, 74, 0
14, 54120, Note_on_c, 12, 75, 84
14, 54209, Note_on_c, 12, 75, 0
14, 54240, Note_on_c, 12, 76, 84
14, 54419, Note_on_c, 12, 76, 0
14, 54480, Note_on_c, 12, 76, 92
14, 54824, Note_on_c, 12, 76, 0
14, 54840, Note_on_c, 12, 77, 84
14, 54929, Note_on_c, 12, 77, 0
14, 54960, Note_on_c, 12, 76, 84
14, 55049, Note_on_c, 12, 76, 0
14, 55080, Note_on_c, 12, 74, 84
14, 55169, Note_on_c, 12, 74, 0
14, 55200, Note_on_c, 12, 72, 84
14, 55289, Note_on_c, 12, 72, 0
14, 55320, Note_on_c, 12, 71, 84
14, 55409, Note_on_c, 12, 71, 0
14, 55440, Note_on_c, 12, 69, 84
14, 55529, Note_on_c, 12, 69, 0
14, 55560, Note_on_c, 12, 68, 84
14, 55649, Note_on_c, 12, 68, 0
14, 55680, Note_on_c, 12, 69, 84
14, 55769, Note_on_c, 12, 69, 0
14, 55800, Note_on_c, 12, 72, 84
14, 55889, Note_on_c, 12, 72, 0
14, 55920, Note_on_c, 12, 71, 84
14, 56009, Note_on_c, 12, 71, 0
14, 56040, Note_on_c, 12, 69, 84
14, 56129, Note_on_c, 12, 69, 0
14, 56160, Note_on_c, 12, 68, 84
14, 56211, Note_on_c, 12, 68, 0
14, 56220, Note_on_c, 12, 68, 84
14, 56271, Note_on_c, 12, 68, 0
14, 56280, Note_on_c, 12, 63, 84
14, 56331, Note_on_c, 12, 63, 0
14, 56340, Note_on_c, 12, 63, 84
14, 56391, Note_on_c, 12, 63, 0
14, 56400, Note_on_c, 12, 64, 84
14, 56451, Note_on_c, 12, 64, 0
14, 56460, Note_on_c, 12, 64, 84
14, 56511, Note_on_c, 12, 64, 0
14, 56520, Note_on_c, 12, 63, 84
14, 56571, Note_on_c, 12, 63, 0
14, 56580, Note_on_c, 12, 63, 84
14, 56631, Note_on_c, 12, 63, 0
14, 56640, Note_on_c, 12, 64, 84
14, 56691, Note_on_c, 12, 64, 0
14, 56700, Note_on_c, 12, 64, 84
14, 56751, Note_on_c, 12, 64, 0
14, 56760, Note_on_c, 12, 66, 84
14, 56811, Note_on_c, 12, 66, 0
14, 56820, Note_on_c, 12, 66, 84
14, 56871, Note_on_c, 12, 66, 0
14, 56880, Note_on_c, 12, 67, 84
14, 56931, Note_on_c, 12, 67, 0
14, 56940, Note_on_c, 12, 67, 84
14, 56991, Note_on_c, 12, 67, 0
14, 57000, Note_on_c, 12, 68, 84
14, 57051, Note_on_c, 12, 68, 0
14, 57060, Note_on_c, 12, 68, 84
14, 57111, Note_on_c, 12, 68, 0
14, 57120, Note_on_c, 12, 69, 84
14, 57171, Note_on_c, 12, 69, 0
14, 57180, Note_on_c, 12, 69, 84
14, 57231, Note_on_c, 12, 69, 0
14, 57240, Note_on_c, 12, 68, 84
14, 57291, Note_on_c, 12, 68, 0
14, 57300, Note_on_c, 12, 68, 84
14, 57351, Note_on_c, 12, 68, 0
14, 57360, Note_on_c, 12, 69, 84
14, 57411, Note_on_c, 12, 69, 0
14, 57420, Note_on_c, 12, 69, 84
14, 57471, Note_on_c, 12, 69, 0
14, 57480, Note_on_c, 12, 71, 84
14, 57531, Note_on_c, 12, 71, 0
14, 57540, Note_on_c, 12, 71, 84
14, 57591, Note_on_c, 12, 71, 0
14, 57600, Note_on_c, 12, 72, 84
14, 57651, Note_on_c, 12, 72, 0
14, 57660, Note_on_c, 12, 72, 84
14, 57711, Note_on_c, 12, 72, 0
14, 57720, Note_on_c, 12, 73, 84
14, 57771, Note_on_c, 12, 73, 0
14, 57780, Note_on_c, 12, 73, 84
14, 57831, Note_on_c, 12, 73, 0
14, 57840, Note_on_c, 12, 74, 84
14, 57891, Note_on_c, 12, 74, 0
14, 57900, Note_on_c, 12, 74, 84
14, 57951, Note_on_c, 12, 74, 0
14, 57960, Note_on_c, 12, 75, 84
14, 58011, Note_on_c, 12, 75, 0
14, 58020, Note_on_c, 12, 75, 84
14, 58071, Note_on_c, 12, 75, 0
14, 58080, Note_on_c, 12, 76, 92
14, 58131, Note_on_c, 12, 76, 0
14, 58140, Note_on_c, 12, 68, 84
14, 58191, Note_on_c, 12, 68, 0
14, 58200, Note_on_c, 12, 68, 84
14, 58251, Note_on_c, 12, 68, 0
14, 58260, Note_on_c, 12, 68, 84
14, 58311, Note_on_c, 12, 68, 0
14, 58320, Note_on_c, 12, 68, 84
14, 58371, Note_on_c, 12, 68, 0
14, 58380, Note_on_c, 12, 68, 84
14, 58431, Note_on_c, 12, 68, 0
14, 58440, Note_on_c, 12, 69, 84
14, 58491, Note_on_c, 12, 69, 0
14, 58500, Note_on_c, 12, 69, 84
14, 58551, Note_on_c, 12, 69, 0
14, 58560, Note_on_c, 12, 68, 92
14, 58611, Note_on_c, 12, 68, 0
14, 58620, Note_on_c, 12, 68, 84
14, 58671, Note_on_c, 12, 68, 0
14, 58680, Note_on_c, 12, 68, 84
14, 58731, Note_on_c, 12, 68, 0
14, 58740, Note_on_c, 12, 68, 84
14, 58791, Note_on_c, 12, 68, 0
14, 58800, Note_on_c, 12, 68, 84
14, 58851, Note_on_c, 12, 68, 0
14, 58860, Note_on_c, 12, 68, 84
14, 58911, Note_on_c, 12, 68, 0
14, 58920, Note_on_c, 12, 69, 84
14, 58971, Note_on_c, 12, 69, 0
14, 58980, Note_on_c, 12, 69, 84
14, 59031, Note_on_c, 12, 69, 0
14, 59040, Note_on_c, 12, 68, 84
14, 59091, Note_on_c, 12, 68, 0
14, 59100, Note_on_c, 12, 68, 84
14, 59151, Note_on_c, 12, 68, 0
14, 59160, Note_on_c, 12, 69, 84
14, 59211, Note_on_c, 12, 69, 0
14, 59220, Note_on_c, 12, 69, 84
14, 59271, Note_on_c, 12, 69, 0
14, 59280, Note_on_c, 12, 68, 84
14, 59331, Note_on_c, 12, 68, 0
14, 59340, Note_on_c, 12, 68, 84
14, 59391, Note_on_c, 12, 68, 0
14, 59400, Note_on_c, 12, 69, 84
14, 59451, Note_on_c, 12, 69, 0
14, 59460, Note_on_c, 12, 69, 84
14, 59511, Note_on_c, 12, 69, 0
14, 59520, Note_on_c, 12, 68, 84
14, 59571, Note_on_c, 12, 68, 0
14, 59580, Note_on_c, 12, 68, 84
14, 59631, Note_on_c, 12, 68, 0
14, 59640, Note_on_c, 12, 69, 84
14, 59691, Note_on_c, 12, 69, 0
14, 59700, Note_on_c, 12, 69, 84
14, 59751, Note_on_c, 12, 69, 0
14, 59760, Note_on_c, 12, 68, 84
14, 59811, Note_on_c, 12, 68, 0
14, 59820, Note_on_c, 12, 68, 84
14, 59871, Note_on_c, 12, 68, 0
14, 59880, Note_on_c, 12, 69, 84
14, 59931, Note_on_c, 12, 69, 0
14, 59940, Note_on_c, 12, 69, 84
14, 59991, Note_on_c, 12, 69, 0
14, 60000, Note_on_c, 12, 68, 84
14, 60239, Note_on_c, 12, 68, 0
14, 60240, Note_on_c, 12, 76, 92
14, 60704, Note_on_c, 12, 76, 0
14, 60720, Note_on_c, 12, 75, 84
14, 60899, Note_on_c, 12, 75, 0
14, 60960, Note_on_c, 12, 74, 84
14, 61139, Note_on_c, 12, 74, 0
14, 61200, Note_on_c, 12, 73, 84
14, 61379, Note_on_c, 12, 73, 0
14, 61440, Note_on_c, 12, 71, 84
14, 61619, Note_on_c, 12, 71, 0
14, 61680, Note_on_c, 12, 76, 84
14, 61859, Note_on_c, 12, 76, 0
14, 61920, Note_on_c, 12, 69, 52
14, 62099, Note_on_c, 12, 69, 0
14, 65760, Note_on_c, 12, 69, 84
14, 66224, Note_on_c, 12, 69, 0
14, 66240, Note_on_c, 12, 73, 84
14, 66651, Note_on_c, 12, 73, 0
14, 66660, Note_on_c, 12, 78, 84
14, 66711, Note_on_c, 12, 78, 0
14, 66720, Note_on_c, 12, 81, 92
14, 67424, Note_on_c, 12, 81, 0
14, 67440, Note_on_c, 12, 73, 84
14, 67619, Note_on_c, 12, 73, 0
14, 67620, Note_on_c, 12, 69, 84
14, 67671, Note_on_c, 12, 69, 0
14, 67680, Note_on_c, 12, 80, 92
14, 67859, Note_on_c, 12, 80, 0
14, 67920, Note_on_c, 12, 71, 84
14, 68099, Note_on_c, 12, 71, 0
14, 68100, Note_on_c, 12, 68, 84
14, 68151, Note_on_c, 12, 68, 0
14, 68160, Note_on_c, 12, 78, 92
14, 68339, Note_on_c, 12, 78, 0
14, 68400, Note_on_c, 12, 69, 84
14, 68579, Note_on_c, 12, 69, 0
14, 68580, Note_on_c, 12, 66, 84
14, 68631, Note_on_c, 12, 66, 0
14, 68640, Note_on_c, 12, 68, 84
14, 68879, Note_on_c, 12, 68, 0
14, 69840, Note_on_c, 12, 69, 52
14, 69899, Note_on_c, 12, 69, 0
14, 69900, Note_on_c, 12, 68, 52
14, 69959, Note_on_c, 12, 68, 0
14, 69960, Note_on_c, 12, 69, 52
14, 70019, Note_on_c, 12, 69, 0
14, 70020, Note_on_c, 12, 68, 52
14, 70079, Note_on_c, 12, 68, 0
14, 70080, Note_on_c, 12, 69, 52
14, 70139, Note_on_c, 12, 69, 0
14, 70140, Note_on_c, 12, 68, 52
14, 70199, Note_on_c, 12, 68, 0
14, 70200, Note_on_c, 12, 69, 52
14, 70259, Note_on_c, 12, 69, 0
14, 70260, Note_on_c, 12, 68, 52
14, 70319, Note_on_c, 12, 68, 0
14, 70320, Note_on_c, 12, 69, 52
14, 70379, Note_on_c, 12, 69, 0
14, 70380, Note_on_c, 12, 68, 52
14, 70439, Note_on_c, 12, 68, 0
14, 70440, Note_on_c, 12, 69, 52
14, 70499, Note_on_c, 12, 69, 0
14, 70500, Note_on_c, 12, 68, 52
14, 70551, Note_on_c, 12, 68, 0
14, 70560, Note_on_c, 12, 69, 52
14, 70619, Note_on_c, 12, 69, 0
14, 70620, Note_on_c, 12, 68, 52
14, 70679, Note_on_c, 12, 68, 0
14, 70680, Note_on_c, 12, 69, 52
14, 70739, Note_on_c, 12, 69, 0
14, 70740, Note_on_c, 12, 68, 52
14, 70799, Note_on_c, 12, 68, 0
14, 70800, Note_on_c, 12, 69, 52
14, 70859, Note_on_c, 12, 69, 0
14, 70860, Note_on_c, 12, 68, 52
14, 70919, Note_on_c, 12, 68, 0
14, 70920, Note_on_c, 12, 69, 52
14, 70979, Note_on_c, 12, 69, 0
14, 70980, Note_on_c, 12, 68, 52
14, 71039, Note_on_c, 12, 68, 0
14, 71040, Note_on_c, 12, 69, 52
14, 71099, Note_on_c, 12, 69, 0
14, 71100, Note_on_c, 12, 68, 52
14, 71159, Note_on_c, 12, 68, 0
14, 71160, Note_on_c, 12, 69, 52
14, 71219, Note_on_c, 12, 69, 0
14, 71220, Note_on_c, 12, 68, 52
14, 71279, Note_on_c, 12, 68, 0
14, 71280, Note_on_c, 12, 69, 52
14, 71339, Note_on_c, 12, 69, 0
14, 71340, Note_on_c, 12, 68, 52
14, 71399, Note_on_c, 12, 68, 0
14, 71400, Note_on_c, 12, 69, 52
14, 71459, Note_on_c, 12, 69, 0
14, 71460, Note_on_c, 12, 68, 52
14, 71511, Note_on_c, 12, 68, 0
14, 71520, Note_on_c, 12, 69, 52
14, 71579, Note_on_c, 12, 69, 0
14, 71580, Note_on_c, 12, 68, 52
14, 71639, Note_on_c, 12, 68, 0
14, 71640, Note_on_c, 12, 69, 52
14, 71699, Note_on_c, 12, 69, 0
14, 71700, Note_on_c, 12, 68, 52
14, 71759, Note_on_c, 12, 68, 0
14, 71760, Note_on_c, 12, 69, 52
14, 71819, Note_on_c, 12, 69, 0
14, 71820, Note_on_c, 12, 68, 52
14, 71879, Note_on_c, 12, 68, 0
14, 71880, Note_on_c, 12, 69, 52
14, 71939, Note_on_c, 12, 69, 0
14, 71940, Note_on_c, 12, 68, 52
14, 71999, Note_on_c, 12, 68, 0
14, 72000, Note_on_c, 12, 69, 52
14, 72059, Note_on_c, 12, 69, 0
14, 72060, Note_on_c, 12, 68, 52
14, 72119, Note_on_c, 12, 68, 0
14, 72120, Note_on_c, 12, 69, 52
14, 72179, Note_on_c, 12, 69, 0
14, 72180, Note_on_c, 12, 68, 52
14, 72239, Note_on_c, 12, 68, 0
14, 72240, Note_on_c, 12, 69, 52
14, 72299, Note_on_c, 12, 69, 0
14, 72300, Note_on_c, 12, 68, 52
14, 72359, Note_on_c, 12, 68, 0
14, 72360, Note_on_c, 12, 69, 52
14, 72419, Note_on_c, 12, 69, 0
14, 72420, Note_on_c, 12, 68, 52
14, 72471, Note_on_c, 12, 68, 0
14, 72480, Note_on_c, 12, 69, 52
14, 72539, Note_on_c, 12, 69, 0
14, 72540, Note_on_c, 12, 68, 52
14, 72599, Note_on_c, 12, 68, 0
14, 72600, Note_on_c, 12, 69, 52
14, 72659, Note_on_c, 12, 69, 0
14, 72660, Note_on_c, 12, 68, 52
14, 72719, Note_on_c, 12, 68, 0
14, 72720, Note_on_c, 12, 69, 52
14, 72779, Note_on_c, 12, 69, 0
14, 72780, Note_on_c, 12, 68, 52
14, 72839, Note_on_c, 12, 68, 0
14, 72840, Note_on_c, 12, 69, 52
14, 72899, Note_on_c, 12, 69, 0
14, 72900, Note_on_c, 12, 68, 52
14, 72959, Note_on_c, 12, 68, 0
14, 72960, Note_on_c, 12, 69, 76
14, 73049, Note_on_c, 12, 69, 0
14, 73080, Note_on_c, 12, 61, 76
14, 73169, Note_on_c, 12, 61, 0
14, 73200, Note_on_c, 12, 66, 76
14, 73289, Note_on_c, 12, 66, 0
14, 73320, Note_on_c, 12, 69, 76
14, 73409, Note_on_c, 12, 69, 0
14, 73440, Note_on_c, 12, 73, 84
14, 73529, Note_on_c, 12, 73, 0
14, 73560, Note_on_c, 12, 57, 84
14, 73649, Note_on_c, 12, 57, 0
14, 73680, Note_on_c, 12, 61, 84
14, 73769, Note_on_c, 12, 61, 0
14, 73800, Note_on_c, 12, 66, 84
14, 73889, Note_on_c, 12, 66, 0
14, 73920, Note_on_c, 12, 69, 84
14, 74009, Note_on_c, 12, 69, 0
14, 74040, Note_on_c, 12, 69, 84
14, 74129, Note_on_c, 12, 69, 0
14, 74160, Note_on_c, 12, 73, 84
14, 74249, Note_on_c, 12, 73, 0
14, 74280, Note_on_c, 12, 78, 84
14, 74369, Note_on_c, 12, 78, 0
14, 74400, Note_on_c, 12, 81, 92
14, 75104, Note_on_c, 12, 81, 0
14, 75120, Note_on_c, 12, 73, 84
14, 75299, Note_on_c, 12, 73, 0
14, 75300, Note_on_c, 12, 69, 84
14, 75351, Note_on_c, 12, 69, 0
14, 75360, Note_on_c, 12, 80, 92
14, 75449, Note_on_c, 12, 80, 0
14, 75480, Note_on_c, 12, 80, 84
14, 75599, Note_on_c, 12, 80, 0
14, 75600, Note_on_c, 12, 71, 84
14, 75719, Note_on_c, 12, 71, 0
14, 75720, Note_on_c, 12, 68, 84
14, 75824, Note_on_c, 12, 68, 0
14, 75840, Note_on_c, 12, 78, 92
14, 75929, Note_on_c, 12, 78, 0
14, 75960, Note_on_c, 12, 78, 84
14, 76079, Note_on_c, 12, 78, 0
14, 76080, Note_on_c, 12, 69, 84
14, 76199, Note_on_c, 12, 69, 0
14, 76200, Note_on_c, 12, 66, 84
14, 76304, Note_on_c, 12, 66, 0
14, 76320, Note_on_c, 12, 68, 84
14, 76424, Note_on_c, 12, 68, 0
14, 76440, Note_on_c, 12, 76, 84
14, 76440, Note_on_c, 12, 64, 84
14, 76664, Note_on_c, 12, 76, 0
14, 76664, Note_on_c, 12, 64, 0
14, 76680, Note_on_c, 12, 76, 84
14, 76680, Note_on_c, 12, 64, 84
14, 76904, Note_on_c, 12, 76, 0
14, 76904, Note_on_c, 12, 64, 0
14, 76920, Note_on_c, 12, 76, 84
14, 76920, Note_on_c, 12, 64, 84
14, 77144, Note_on_c, 12, 76, 0
14, 77144, Note_on_c, 12, 64, 0
14, 77160, Note_on_c, 12, 64, 84
14, 77160, Note_on_c, 12, 76, 84
14, 77384, Note_on_c, 12, 64, 0
14, 77384, Note_on_c, 12, 76, 0
14, 77400, Note_on_c, 12, 64, 84
14, 77400, Note_on_c, 12, 76, 84
14, 77624, Note_on_c, 12, 64, 0
14, 77624, Note_on_c, 12, 76, 0
14, 77640, Note_on_c, 12, 64, 84
14, 77640, Note_on_c, 12, 76, 84
14, 77864, Note_on_c, 12, 64, 0
14, 77864, Note_on_c, 12, 76, 0
14, 77880, Note_on_c, 12, 76, 84
14, 77880, Note_on_c, 12, 64, 84
14, 78104, Note_on_c, 12, 76, 0
14, 78104, Note_on_c, 12, 64, 0
14, 78120, Note_on_c, 12, 64, 84
14, 78120, Note_on_c, 12, 76, 84
14, 78344, Note_on_c, 12, 64, 0
14, 78344, Note_on_c, 12, 76, 0
14, 78360, Note_on_c, 12, 76, 84
14, 78360, Note_on_c, 12, 64, 84
14, 78584, Note_on_c, 12, 76, 0
14, 78584, Note_on_c, 12, 64, 0
14, 78600, Note_on_c, 12, 76, 84
14, 78600, Note_on_c, 12, 64, 84
14, 78824, Note_on_c, 12, 76, 0
14, 78824, Note_on_c, 12, 64, 0
14, 78840, Note_on_c, 12, 64, 84
14, 78840, Note_on_c, 12, 76, 84
14, 79064, Note_on_c, 12, 64, 0
14, 79064, Note_on_c, 12, 76, 0
14, 79080, Note_on_c, 12, 64, 84
14, 79080, Note_on_c, 12, 76, 84
14, 79304, Note_on_c, 12, 64, 0
14, 79304, Note_on_c, 12, 76, 0
14, 79320, Note_on_c, 12, 76, 84
14, 79320, Note_on_c, 12, 64, 84
14, 79544, Note_on_c, 12, 76, 0
14, 79544, Note_on_c, 12, 64, 0
14, 79560, Note_on_c, 12, 76, 84
14, 79560, Note_on_c, 12, 64, 84
14, 79784, Note_on_c, 12, 76, 0
14, 79784, Note_on_c, 12, 64, 0
14, 79800, Note_on_c, 12, 64, 84
14, 79800, Note_on_c, 12, 76, 84
14, 80024, Note_on_c, 12, 64, 0
14, 80024, Note_on_c, 12, 76, 0
14, 80040, Note_on_c, 12, 64, 84
14, 80040, Note_on_c, 12, 76, 84
14, 80264, Note_on_c, 12, 64, 0
14, 80264, Note_on_c, 12, 76, 0
14, 80280, Note_on_c, 12, 64, 84
14, 80280, Note_on_c, 12, 76, 84
14, 80504, Note_on_c, 12, 64, 0
14, 80504, Note_on_c, 12, 76, 0
14, 80520, Note_on_c, 12, 76, 84
14, 80520, Note_on_c, 12, 64, 84
14, 80744, Note_on_c, 12, 76, 0
14, 80744, Note_on_c, 12, 64, 0
14, 80760, Note_on_c, 12, 76, 84
14, 80760, Note_on_c, 12, 64, 84
14, 80984, Note_on_c, 12, 76, 0
14, 80984, Note_on_c, 12, 64, 0
14, 81000, Note_on_c, 12, 76, 84
14, 81000, Note_on_c, 12, 64, 84
14, 81224, Note_on_c, 12, 76, 0
14, 81224, Note_on_c, 12, 64, 0
14, 81240, Note_on_c, 12, 64, 84
14, 81240, Note_on_c, 12, 76, 84
14, 81464, Note_on_c, 12, 64, 0
14, 81464, Note_on_c, 12, 76, 0
14, 81480, Note_on_c, 12, 76, 84
14, 81480, Note_on_c, 12, 64, 84
14, 81704, Note_on_c, 12, 76, 0
14, 81704, Note_on_c, 12, 64, 0
14, 81720, Note_on_c, 12, 76, 84
14, 81720, Note_on_c, 12, 64, 84
14, 81944, Note_on_c, 12, 76, 0
14, 81944, Note_on_c, 12, 64, 0
14, 81960, Note_on_c, 12, 76, 84
14, 81960, Note_on_c, 12, 64, 84
14, 82184, Note_on_c, 12, 76, 0
14, 82184, Note_on_c, 12, 64, 0
14, 82200, Note_on_c, 12, 73, 84
14, 82424, Note_on_c, 12, 73, 0
14, 82440, Note_on_c, 12, 73, 84
14, 82664, Note_on_c, 12, 73, 0
14, 82680, Note_on_c, 12, 73, 84
14, 82904, Note_on_c, 12, 73, 0
14, 82920, Note_on_c, 12, 73, 84
14, 83144, Note_on_c, 12, 73, 0
14, 83160, Note_on_c, 12, 69, 84
14, 83160, Note_on_c, 12, 81, 84
14, 83384, Note_on_c, 12, 69, 0
14, 83384, Note_on_c, 12, 81, 0
14, 83400, Note_on_c, 12, 69, 84
14, 83400, Note_on_c, 12, 81, 84
14, 83624, Note_on_c, 12, 69, 0
14, 83624, Note_on_c, 12, 81, 0
14, 83640, Note_on_c, 12, 69, 84
14, 83640, Note_on_c, 12, 81, 84
14, 83864, Note_on_c, 12, 69, 0
14, 83864, Note_on_c, 12, 81, 0
14, 83880, Note_on_c, 12, 81, 84
14, 83880, Note_on_c, 12, 69, 84
14, 84209, Note_on_c, 12, 81, 0
14, 84209, Note_on_c, 12, 69, 0
14, 84960, Note_on_c, 12, 83, 84
14, 84960, Note_on_c, 12, 66, 84
14, 84960, Note_on_c, 12, 74, 84
14, 85139, Note_on_c, 12, 83, 0
14, 85139, Note_on_c, 12, 66, 0
14, 85139, Note_on_c, 12, 74, 0
14, 85920, Note_on_c, 12, 83, 84
14, 85920, Note_on_c, 12, 74, 84
14, 85920, Note_on_c, 12, 64, 84
14, 86159, Note_on_c, 12, 83, 0
14, 86159, Note_on_c, 12, 74, 0
14, 86159, Note_on_c, 12, 64, 0
14, 86400, Note_on_c, 12, 64, 84
14, 86400, Note_on_c, 12, 81, 84
14, 86400, Note_on_c, 12, 73, 84
14, 86639, Note_on_c, 12, 64, 0
14, 86639, Note_on_c, 12, 81, 0
14, 86639, Note_on_c, 12, 73, 0
14, 86880, Note_on_c, 12, 74, 84
14, 86880, Note_on_c, 12, 83, 84
14, 86880, Note_on_c, 12, 66, 84
14, 87119, Note_on_c, 12, 74, 0
14, 87119, Note_on_c, 12, 83, 0
14, 87119, Note_on_c, 12, 66, 0
14, 87360, Note_on_c, 12, 64, 84
14, 87360, Note_on_c, 12, 71, 84
14, 87360, Note_on_c, 12, 80, 84
14, 87599, Note_on_c, 12, 64, 0
14, 87599, Note_on_c, 12, 71, 0
14, 87599, Note_on_c, 12, 80, 0
14, 87840, Note_on_c, 12, 81, 84
14, 87840, Note_on_c, 12, 66, 84
14, 87840, Note_on_c, 12, 74, 84
14, 88079, Note_on_c, 12, 81, 0
14, 88079, Note_on_c, 12, 66, 0
14, 88079, Note_on_c, 12, 74, 0
14, 88800, Note_on_c, 12, 74, 84
14, 88800, Note_on_c, 12, 83, 84
14, 88800, Note_on_c, 12, 65, 84
14, 89039, Note_on_c, 12, 74, 0
14, 89039, Note_on_c, 12, 83, 0
14, 89039, Note_on_c, 12, 65, 0
14, 90240, Control_c, 12, 11, 80
14, 90480, Note_on_c, 12, 59, 68
14, 90539, Note_on_c, 12, 59, 0
14, 90540, Note_on_c, 12, 58, 68
14, 90599, Note_on_c, 12, 58, 0
14, 90600, Note_on_c, 12, 59, 68
14, 90659, Note_on_c, 12, 59, 0
14, 90660, Note_on_c, 12, 60, 68
14, 90711, Note_on_c, 12, 60, 0
14, 90720, Note_on_c, 12, 62, 68
14, 90899, Note_on_c, 12, 62, 0
14, 91440, Note_on_c, 12, 60, 68
14, 91499, Note_on_c, 12, 60, 0
14, 91500, Note_on_c, 12, 59, 68
14, 91559, Note_on_c, 12, 59, 0
14, 91560, Note_on_c, 12, 60, 68
14, 91619, Note_on_c, 12, 60, 0
14, 91620, Note_on_c, 12, 62, 68
14, 91671, Note_on_c, 12, 62, 0
14, 91680, Note_on_c, 12, 64, 68
14, 91859, Note_on_c, 12, 64, 0
14, 92400, Note_on_c, 12, 62, 68
14, 92459, Note_on_c, 12, 62, 0
14, 92460, Note_on_c, 12, 61, 68
14, 92519, Note_on_c, 12, 61, 0
14, 92520, Note_on_c, 12, 62, 68
14, 92579, Note_on_c, 12, 62, 0
14, 92580, Note_on_c, 12, 64, 68
14, 92631, Note_on_c, 12, 64, 0
14, 92640, Control_c, 12, 11, 80
14, 92640, Note_on_c, 12, 65, 68
14, 92760, Control_c, 12, 11, 82
14, 92819, Note_on_c, 12, 65, 0
14, 92880, Note_on_c, 12, 64, 68
14, 92880, Control_c, 12, 11, 84
14, 92939, Note_on_c, 12, 64, 0
14, 92940, Note_on_c, 12, 62, 68
14, 92999, Note_on_c, 12, 62, 0
14, 93000, Control_c, 12, 11, 86
14, 93000, Note_on_c, 12, 64, 68
14, 93059, Note_on_c, 12, 64, 0
14, 93060, Note_on_c, 12, 65, 68
14, 93111, Note_on_c, 12, 65, 0
14, 93120, Control_c, 12, 11, 88
14, 93120, Note_on_c, 12, 67, 68
14, 93240, Control_c, 12, 11, 90
14, 93299, Note_on_c, 12, 67, 0
14, 93360, Control_c, 12, 11, 92
14, 93360, Note_on_c, 12, 65, 68
14, 93419, Note_on_c, 12, 65, 0
14, 93420, Note_on_c, 12, 64, 68
14, 93479, Note_on_c, 12, 64, 0
14, 93480, Control_c, 12, 11, 94
14, 93480, Note_on_c, 12, 65, 68
14, 93539, Note_on_c, 12, 65, 0
14, 93540, Note_on_c, 12, 67, 68
14, 93591, Note_on_c, 12, 67, 0
14, 93600, Control_c, 12, 11, 96
14, 93600, Note_on_c, 12, 69, 68
14, 93720, Control_c, 12, 11, 98
14, 93779, Note_on_c, 12, 69, 0
14, 93840, Control_c, 12, 11, 100
14, 93840, Note_on_c, 12, 68, 68
14, 93899, Note_on_c, 12, 68, 0
14, 93900, Note_on_c, 12, 66, 68
14, 93959, Note_on_c, 12, 66, 0
14, 93960, Control_c, 12, 11, 102
14, 93960, Note_on_c, 12, 68, 68
14, 94019, Note_on_c, 12, 68, 0
14, 94020, Note_on_c, 12, 69, 68
14, 94071, Note_on_c, 12, 69, 0
14, 94080, Control_c, 12, 11, 104
14, 94080, Note_on_c, 12, 71, 68
14, 94200, Control_c, 12, 11, 105
14, 94259, Note_on_c, 12, 71, 0
14, 94320, Control_c, 12, 11, 107
14, 94320, Note_on_c, 12, 69, 68
14, 94379, Note_on_c, 12, 69, 0
14, 94380, Note_on_c, 12, 68, 68
14, 94439, Note_on_c, 12, 68, 0
14, 94440, Control_c, 12, 11, 109
14, 94440, Note_on_c, 12, 69, 68
14, 94499, Note_on_c, 12, 69, 0
14, 94500, Note_on_c, 12, 71, 68
14, 94551, Note_on_c, 12, 71, 0
14, 94560, Note_on_c, 12, 72, 68
14, 94560, Control_c, 12, 11, 111
14, 94680, Control_c, 12, 11, 113
14, 94739, Note_on_c, 12, 72, 0
14, 94800, Control_c, 12, 11, 115
14, 94800, Note_on_c, 12, 69, 68
14, 94859, Note_on_c, 12, 69, 0
14, 94860, Note_on_c, 12, 68, 68
14, 94919, Note_on_c, 12, 68, 0
14, 94920, Control_c, 12, 11, 117
14, 94920, Note_on_c, 12, 69, 68
14, 94979, Note_on_c, 12, 69, 0
14, 94980, Note_on_c, 12, 71, 68
14, 95031, Note_on_c, 12, 71, 0
14, 95040, Control_c, 12, 11, 119
14, 95040, Note_on_c, 12, 72, 68
14, 95160, Control_c, 12, 11, 121
14, 95219, Note_on_c, 12, 72, 0
14, 95280, Control_c, 12, 11, 123
14, 95280, Note_on_c, 12, 69, 68
14, 95339, Note_on_c, 12, 69, 0
14, 95340, Note_on_c, 12, 68, 68
14, 95399, Note_on_c, 12, 68, 0
14, 95400, Control_c, 12, 11, 125
14, 95400, Note_on_c, 12, 69, 68
14, 95459, Note_on_c, 12, 69, 0
14, 95460, Note_on_c, 12, 71, 68
14, 95511, Note_on_c, 12, 71, 0
14, 95520, Note_on_c, 12, 72, 76
14, 95520, Control_c, 12, 11, 127
14, 96464, Note_on_c, 12, 72, 0
14, 96480, Note_on_c, 12, 63, 76
14, 97424, Note_on_c, 12, 63, 0
14, 97440, Note_on_c, 12, 73, 84
14, 97440, Note_on_c, 12, 64, 84
14, 97491, Note_on_c, 12, 73, 0
14, 97491, Note_on_c, 12, 64, 0
14, 97500, Note_on_c, 12, 73, 84
14, 97500, Note_on_c, 12, 64, 84
14, 97551, Note_on_c, 12, 73, 0
14, 97551, Note_on_c, 12, 64, 0
14, 97560, Note_on_c, 12, 73, 84
14, 97560, Note_on_c, 12, 64, 84
14, 97611, Note_on_c, 12, 73, 0
14, 97611, Note_on_c, 12, 64, 0
14, 97620, Note_on_c, 12, 64, 84
14, 97620, Note_on_c, 12, 73, 84
14, 97671, Note_on_c, 12, 64, 0
14, 97671, Note_on_c, 12, 73, 0
14, 97680, Note_on_c, 12, 73, 84
14, 97680, Note_on_c, 12, 64, 84
14, 97731, Note_on_c, 12, 73, 0
14, 97731, Note_on_c, 12, 64, 0
14, 97740, Note_on_c, 12, 73, 84
14, 97740, Note_on_c, 12, 64, 84
14, 97791, Note_on_c, 12, 73, 0
14, 97791, Note_on_c, 12, 64, 0
14, 97800, Note_on_c, 12, 73, 84
14, 97800, Note_on_c, 12, 64, 84
14, 97851, Note_on_c, 12, 73, 0
14, 97851, Note_on_c, 12, 64, 0
14, 97860, Note_on_c, 12, 64, 84
14, 97860, Note_on_c, 12, 73, 84
14, 97911, Note_on_c, 12, 64, 0
14, 97911, Note_on_c, 12, 73, 0
14, 97920, Note_on_c, 12, 73, 84
14, 97920, Note_on_c, 12, 64, 84
14, 97971, Note_on_c, 12, 73, 0
14, 97971, Note_on_c, 12, 64, 0
14, 97980, Note_on_c, 12, 73, 84
14, 97980, Note_on_c, 12, 64, 84
14, 98031, Note_on_c, 12, 73, 0
14, 98031, Note_on_c, 12, 64, 0
14, 98040, Note_on_c, 12, 64, 84
14, 98040, Note_on_c, 12, 73, 84
14, 98091, Note_on_c, 12, 64, 0
14, 98091, Note_on_c, 12, 73, 0
14, 98100, Note_on_c, 12, 64, 84
14, 98100, Note_on_c, 12, 73, 84
14, 98151, Note_on_c, 12, 64, 0
14, 98151, Note_on_c, 12, 73, 0
14, 98160, Note_on_c, 12, 73, 84
14, 98160, Note_on_c, 12, 64, 84
14, 98211, Note_on_c, 12, 73, 0
14, 98211, Note_on_c, 12, 64, 0
14, 98220, Note_on_c, 12, 64, 84
14, 98220, Note_on_c, 12, 73, 84
14, 98271, Note_on_c, 12, 64, 0
14, 98271, Note_on_c, 12, 73, 0
14, 98280, Note_on_c, 12, 64, 84
14, 98280, Note_on_c, 12, 73, 84
14, 98331, Note_on_c, 12, 64, 0
14, 98331, Note_on_c, 12, 73, 0
14, 98340, Note_on_c, 12, 64, 84
14, 98340, Note_on_c, 12, 73, 84
14, 98391, Note_on_c, 12, 64, 0
14, 98391, Note_on_c, 12, 73, 0
14, 98400, Note_on_c, 12, 64, 84
14, 98400, Note_on_c, 12, 74, 84
14, 98451, Note_on_c, 12, 64, 0
14, 98451, Note_on_c, 12, 74, 0
14, 98460, Note_on_c, 12, 64, 84
14, 98460, Note_on_c, 12, 74, 84
14, 98511, Note_on_c, 12, 64, 0
14, 98511, Note_on_c, 12, 74, 0
14, 98520, Note_on_c, 12, 64, 84
14, 98520, Note_on_c, 12, 74, 84
14, 98571, Note_on_c, 12, 64, 0
14, 98571, Note_on_c, 12, 74, 0
14, 98580, Note_on_c, 12, 74, 84
14, 98580, Note_on_c, 12, 64, 84
14, 98631, Note_on_c, 12, 74, 0
14, 98631, Note_on_c, 12, 64, 0
14, 98640, Note_on_c, 12, 64, 84
14, 98640, Note_on_c, 12, 74, 84
14, 98691, Note_on_c, 12, 64, 0
14, 98691, Note_on_c, 12, 74, 0
14, 98700, Note_on_c, 12, 74, 84
14, 98700, Note_on_c, 12, 64, 84
14, 98751, Note_on_c, 12, 74, 0
14, 98751, Note_on_c, 12, 64, 0
14, 98760, Note_on_c, 12, 64, 84
14, 98760, Note_on_c, 12, 74, 84
14, 98811, Note_on_c, 12, 64, 0
14, 98811, Note_on_c, 12, 74, 0
14, 98820, Note_on_c, 12, 64, 84
14, 98820, Note_on_c, 12, 74, 84
14, 98871, Note_on_c, 12, 64, 0
14, 98871, Note_on_c, 12, 74, 0
14, 98880, Note_on_c, 12, 62, 84
14, 98931, Note_on_c, 12, 62, 0
14, 98940, Note_on_c, 12, 62, 84
14, 98991, Note_on_c, 12, 62, 0
14, 99000, Note_on_c, 12, 62, 84
14, 99051, Note_on_c, 12, 62, 0
14, 99060, Note_on_c, 12, 62, 84
14, 99111, Note_on_c, 12, 62, 0
14, 99120, Note_on_c, 12, 62, 84
14, 99171, Note_on_c, 12, 62, 0
14, 99180, Note_on_c, 12, 62, 84
14, 99231, Note_on_c, 12, 62, 0
14, 99240, Note_on_c, 12, 62, 84
14, 99291, Note_on_c, 12, 62, 0
14, 99300, Note_on_c, 12, 62, 84
14, 99351, Note_on_c, 12, 62, 0
14, 99360, Note_on_c, 12, 61, 76
14, 99360, Note_on_c, 12, 69, 76
14, 99420, Control_c, 12, 11, 80
14, 99599, Note_on_c, 12, 61, 0
14, 100064, Note_on_c, 12, 69, 0
14, 100080, Note_on_c, 12, 69, 76
14, 100139, Note_on_c, 12, 69, 0
14, 100140, Note_on_c, 12, 68, 76
14, 100199, Note_on_c, 12, 68, 0
14, 100200, Note_on_c, 12, 69, 76
14, 100259, Note_on_c, 12, 69, 0
14, 100260, Note_on_c, 12, 71, 76
14, 100311, Note_on_c, 12, 71, 0
14, 100320, Note_on_c, 12, 73, 76
14, 100499, Note_on_c, 12, 73, 0
14, 100560, Note_on_c, 12, 73, 76
14, 100619, Note_on_c, 12, 73, 0
14, 100620, Note_on_c, 12, 71, 76
14, 100679, Note_on_c, 12, 71, 0
14, 100680, Note_on_c, 12, 73, 76
14, 100739, Note_on_c, 12, 73, 0
14, 100740, Note_on_c, 12, 74, 76
14, 100791, Note_on_c, 12, 74, 0
14, 100800, Note_on_c, 12, 76, 76
14, 100979, Note_on_c, 12, 76, 0
14, 101040, Note_on_c, 12, 76, 76
14, 101099, Note_on_c, 12, 76, 0
14, 101100, Note_on_c, 12, 77, 76
14, 101159, Note_on_c, 12, 77, 0
14, 101160, Note_on_c, 12, 79, 76
14, 101219, Note_on_c, 12, 79, 0
14, 101220, Note_on_c, 12, 76, 76
14, 101264, Note_on_c, 12, 76, 0
14, 101272, Control_c, 12, 11, 127
14, 101280, Note_on_c, 12, 77, 84
14, 101331, Note_on_c, 12, 77, 0
14, 101340, Note_on_c, 12, 62, 84
14, 101340, Note_on_c, 12, 65, 84
14, 101391, Note_on_c, 12, 62, 0
14, 101391, Note_on_c, 12, 65, 0
14, 101400, Note_on_c, 12, 62, 84
14, 101400, Note_on_c, 12, 65, 84
14, 101451, Note_on_c, 12, 62, 0
14, 101451, Note_on_c, 12, 65, 0
14, 101460, Note_on_c, 12, 65, 84
14, 101460, Note_on_c, 12, 62, 84
14, 101511, Note_on_c, 12, 65, 0
14, 101511, Note_on_c, 12, 62, 0
14, 101520, Note_on_c, 12, 62, 84
14, 101520, Note_on_c, 12, 65, 84
14, 101571, Note_on_c, 12, 62, 0
14, 101571, Note_on_c, 12, 65, 0
14, 101580, Note_on_c, 12, 62, 84
14, 101580, Note_on_c, 12, 65, 84
14, 101631, Note_on_c, 12, 62, 0
14, 101631, Note_on_c, 12, 65, 0
14, 101640, Note_on_c, 12, 62, 84
14, 101640, Note_on_c, 12, 65, 84
14, 101691, Note_on_c, 12, 62, 0
14, 101691, Note_on_c, 12, 65, 0
14, 101700, Note_on_c, 12, 65, 84
14, 101700, Note_on_c, 12, 62, 84
14, 101751, Note_on_c, 12, 65, 0
14, 101751, Note_on_c, 12, 62, 0
14, 101760, Note_on_c, 12, 62, 84
14, 101760, Note_on_c, 12, 65, 84
14, 101811, Note_on_c, 12, 62, 0
14, 101811, Note_on_c, 12, 65, 0
14, 101820, Note_on_c, 12, 65, 84
14, 101820, Note_on_c, 12, 62, 84
14, 101871, Note_on_c, 12, 65, 0
14, 101871, Note_on_c, 12, 62, 0
14, 101880, Note_on_c, 12, 62, 84
14, 101880, Note_on_c, 12, 65, 84
14, 101931, Note_on_c, 12, 62, 0
14, 101931, Note_on_c, 12, 65, 0
14, 101940, Note_on_c, 12, 65, 84
14, 101940, Note_on_c, 12, 62, 84
14, 101991, Note_on_c, 12, 65, 0
14, 101991, Note_on_c, 12, 62, 0
14, 102000, Note_on_c, 12, 62, 84
14, 102000, Note_on_c, 12, 65, 84
14, 102051, Note_on_c, 12, 62, 0
14, 102051, Note_on_c, 12, 65, 0
14, 102060, Note_on_c, 12, 62, 84
14, 102060, Note_on_c, 12, 65, 84
14, 102111, Note_on_c, 12, 62, 0
14, 102111, Note_on_c, 12, 65, 0
14, 102120, Note_on_c, 12, 62, 84
14, 102120, Note_on_c, 12, 65, 84
14, 102171, Note_on_c, 12, 62, 0
14, 102171, Note_on_c, 12, 65, 0
14, 102180, Note_on_c, 12, 65, 84
14, 102180, Note_on_c, 12, 62, 84
14, 102231, Note_on_c, 12, 65, 0
14, 102231, Note_on_c, 12, 62, 0
14, 102240, Note_on_c, 12, 62, 84
14, 102240, Note_on_c, 12, 65, 84
14, 102291, Note_on_c, 12, 62, 0
14, 102291, Note_on_c, 12, 65, 0
14, 102300, Note_on_c, 12, 65, 84
14, 102300, Note_on_c, 12, 62, 84
14, 102351, Note_on_c, 12, 65, 0
14, 102351, Note_on_c, 12, 62, 0
14, 102360, Note_on_c, 12, 62, 84
14, 102360, Note_on_c, 12, 65, 84
14, 102411, Note_on_c, 12, 62, 0
14, 102411, Note_on_c, 12, 65, 0
14, 102420, Note_on_c, 12, 65, 84
14, 102420, Note_on_c, 12, 62, 84
14, 102471, Note_on_c, 12, 65, 0
14, 102471, Note_on_c, 12, 62, 0
14, 102480, Note_on_c, 12, 65, 84
14, 102480, Note_on_c, 12, 62, 84
14, 102531, Note_on_c, 12, 65, 0
14, 102531, Note_on_c, 12, 62, 0
14, 102540, Note_on_c, 12, 62, 84
14, 102540, Note_on_c, 12, 65, 84
14, 102591, Note_on_c, 12, 62, 0
14, 102591, Note_on_c, 12, 65, 0
14, 102600, Note_on_c, 12, 62, 84
14, 102600, Note_on_c, 12, 65, 84
14, 102651, Note_on_c, 12, 62, 0
14, 102651, Note_on_c, 12, 65, 0
14, 102660, Note_on_c, 12, 62, 84
14, 102660, Note_on_c, 12, 65, 84
14, 102711, Note_on_c, 12, 62, 0
14, 102711, Note_on_c, 12, 65, 0
14, 102720, Note_on_c, 12, 65, 84
14, 102720, Note_on_c, 12, 62, 84
14, 102771, Note_on_c, 12, 65, 0
14, 102771, Note_on_c, 12, 62, 0
14, 102780, Note_on_c, 12, 65, 84
14, 102780, Note_on_c, 12, 62, 84
14, 102831, Note_on_c, 12, 65, 0
14, 102831, Note_on_c, 12, 62, 0
14, 102840, Note_on_c, 12, 65, 84
14, 102840, Note_on_c, 12, 62, 84
14, 102891, Note_on_c, 12, 65, 0
14, 102891, Note_on_c, 12, 62, 0
14, 102900, Note_on_c, 12, 65, 84
14, 102900, Note_on_c, 12, 62, 84
14, 102951, Note_on_c, 12, 65, 0
14, 102951, Note_on_c, 12, 62, 0
14, 102960, Note_on_c, 12, 62, 84
14, 102960, Note_on_c, 12, 65, 84
14, 103011, Note_on_c, 12, 62, 0
14, 103011, Note_on_c, 12, 65, 0
14, 103020, Note_on_c, 12, 65, 84
14, 103020, Note_on_c, 12, 62, 84
14, 103071, Note_on_c, 12, 65, 0
14, 103071, Note_on_c, 12, 62, 0
14, 103080, Note_on_c, 12, 62, 84
14, 103080, Note_on_c, 12, 65, 84
14, 103131, Note_on_c, 12, 62, 0
14, 103131, Note_on_c, 12, 65, 0
14, 103140, Note_on_c, 12, 65, 84
14, 103140, Note_on_c, 12, 62, 84
14, 103191, Note_on_c, 12, 65, 0
14, 103191, Note_on_c, 12, 62, 0
14, 103200, Note_on_c, 12, 64, 76
14, 103200, Note_on_c, 12, 61, 76
14, 103200, Note_on_c, 12, 69, 76
14, 103260, Control_c, 12, 11, 80
14, 103439, Note_on_c, 12, 64, 0
14, 103439, Note_on_c, 12, 61, 0
14, 103904, Note_on_c, 12, 69, 0
14, 103920, Note_on_c, 12, 69, 76
14, 103979, Note_on_c, 12, 69, 0
14, 103980, Note_on_c, 12, 68, 76
14, 104039, Note_on_c, 12, 68, 0
14, 104040, Note_on_c, 12, 69, 76
14, 104099, Note_on_c, 12, 69, 0
14, 104100, Note_on_c, 12, 71, 76
14, 104151, Note_on_c, 12, 71, 0
14, 104160, Note_on_c, 12, 73, 76
14, 104339, Note_on_c, 12, 73, 0
14, 104400, Note_on_c, 12, 73, 76
14, 104459, Note_on_c, 12, 73, 0
14, 104460, Note_on_c, 12, 71, 76
14, 104519, Note_on_c, 12, 71, 0
14, 104520, Note_on_c, 12, 73, 76
14, 104579, Note_on_c, 12, 73, 0
14, 104580, Note_on_c, 12, 74, 76
14, 104631, Note_on_c, 12, 74, 0
14, 104640, Note_on_c, 12, 76, 76
14, 104819, Note_on_c, 12, 76, 0
14, 104880, Note_on_c, 12, 76, 76
14, 104939, Note_on_c, 12, 76, 0
14, 104940, Note_on_c, 12, 77, 76
14, 104999, Note_on_c, 12, 77, 0
14, 105000, Note_on_c, 12, 79, 76
14, 105059, Note_on_c, 12, 79, 0
14, 105060, Note_on_c, 12, 76, 76
14, 105104, Note_on_c, 12, 76, 0
14, 105112, Control_c, 12, 11, 127
14, 105120, Note_on_c, 12, 77, 84
14, 105171, Note_on_c, 12, 77, 0
14, 105180, Note_on_c, 12, 62, 84
14, 105180, Note_on_c, 12, 65, 84
14, 105231, Note_on_c, 12, 62, 0
14, 105231, Note_on_c, 12, 65, 0
14, 105240, Note_on_c, 12, 65, 84
14, 105240, Note_on_c, 12, 62, 84
14, 105291, Note_on_c, 12, 65, 0
14, 105291, Note_on_c, 12, 62, 0
14, 105300, Note_on_c, 12, 65, 84
14, 105300, Note_on_c, 12, 62, 84
14, 105351, Note_on_c, 12, 65, 0
14, 105351, Note_on_c, 12, 62, 0
14, 105360, Note_on_c, 12, 62, 84
14, 105360, Note_on_c, 12, 65, 84
14, 105411, Note_on_c, 12, 62, 0
14, 105411, Note_on_c, 12, 65, 0
14, 105420, Note_on_c, 12, 62, 84
14, 105420, Note_on_c, 12, 65, 84
14, 105471, Note_on_c, 12, 62, 0
14, 105471, Note_on_c, 12, 65, 0
14, 105480, Note_on_c, 12, 65, 84
14, 105480, Note_on_c, 12, 62, 84
14, 105531, Note_on_c, 12, 65, 0
14, 105531, Note_on_c, 12, 62, 0
14, 105540, Note_on_c, 12, 62, 84
14, 105540, Note_on_c, 12, 65, 84
14, 105591, Note_on_c, 12, 62, 0
14, 105591, Note_on_c, 12, 65, 0
14, 105600, Note_on_c, 12, 65, 84
14, 105600, Note_on_c, 12, 62, 84
14, 105651, Note_on_c, 12, 65, 0
14, 105651, Note_on_c, 12, 62, 0
14, 105660, Note_on_c, 12, 62, 84
14, 105660, Note_on_c, 12, 65, 84
14, 105711, Note_on_c, 12, 62, 0
14, 105711, Note_on_c, 12, 65, 0
14, 105720, Note_on_c, 12, 65, 84
14, 105720, Note_on_c, 12, 62, 84
14, 105771, Note_on_c, 12, 65, 0
14, 105771, Note_on_c, 12, 62, 0
14, 105780, Note_on_c, 12, 62, 84
14, 105780, Note_on_c, 12, 65, 84
14, 105831, Note_on_c, 12, 62, 0
14, 105831, Note_on_c, 12, 65, 0
14, 105840, Note_on_c, 12, 65, 84
14, 105840, Note_on_c, 12, 62, 84
14, 105891, Note_on_c, 12, 65, 0
14, 105891, Note_on_c, 12, 62, 0
14, 105900, Note_on_c, 12, 65, 84
14, 105900, Note_on_c, 12, 62, 84
14, 105951, Note_on_c, 12, 65, 0
14, 105951, Note_on_c, 12, 62, 0
14, 105960, Note_on_c, 12, 65, 84
14, 105960, Note_on_c, 12, 62, 84
14, 106011, Note_on_c, 12, 65, 0
14, 106011, Note_on_c, 12, 62, 0
14, 106020, Note_on_c, 12, 65, 84
14, 106020, Note_on_c, 12, 62, 84
14, 106071, Note_on_c, 12, 65, 0
14, 106071, Note_on_c, 12, 62, 0
14, 106080, Note_on_c, 12, 62, 84
14, 106080, Note_on_c, 12, 65, 84
14, 106131, Note_on_c, 12, 62, 0
14, 106131, Note_on_c, 12, 65, 0
14, 106140, Note_on_c, 12, 65, 84
14, 106140, Note_on_c, 12, 62, 84
14, 106191, Note_on_c, 12, 65, 0
14, 106191, Note_on_c, 12, 62, 0
14, 106200, Note_on_c, 12, 65, 84
14, 106200, Note_on_c, 12, 62, 84
14, 106251, Note_on_c, 12, 65, 0
14, 106251, Note_on_c, 12, 62, 0
14, 106260, Note_on_c, 12, 65, 84
14, 106260, Note_on_c, 12, 62, 84
14, 106311, Note_on_c, 12, 65, 0
14, 106311, Note_on_c, 12, 62, 0
14, 106320, Note_on_c, 12, 62, 84
14, 106320, Note_on_c, 12, 65, 84
14, 106371, Note_on_c, 12, 62, 0
14, 106371, Note_on_c, 12, 65, 0
14, 106380, Note_on_c, 12, 62, 84
14, 106380, Note_on_c, 12, 65, 84
14, 106431, Note_on_c, 12, 62, 0
14, 106431, Note_on_c, 12, 65, 0
14, 106440, Note_on_c, 12, 65, 84
14, 106440, Note_on_c, 12, 62, 84
14, 106491, Note_on_c, 12, 65, 0
14, 106491, Note_on_c, 12, 62, 0
14, 106500, Note_on_c, 12, 62, 84
14, 106500, Note_on_c, 12, 65, 84
14, 106551, Note_on_c, 12, 62, 0
14, 106551, Note_on_c, 12, 65, 0
14, 106560, Note_on_c, 12, 62, 84
14, 106560, Note_on_c, 12, 65, 84
14, 106611, Note_on_c, 12, 62, 0
14, 106611, Note_on_c, 12, 65, 0
14, 106620, Note_on_c, 12, 65, 84
14, 106620, Note_on_c, 12, 62, 84
14, 106671, Note_on_c, 12, 65, 0
14, 106671, Note_on_c, 12, 62, 0
14, 106680, Note_on_c, 12, 62, 84
14, 106680, Note_on_c, 12, 65, 84
14, 106731, Note_on_c, 12, 62, 0
14, 106731, Note_on_c, 12, 65, 0
14, 106740, Note_on_c, 12, 65, 84
14, 106740, Note_on_c, 12, 62, 84
14, 106791, Note_on_c, 12, 65, 0
14, 106791, Note_on_c, 12, 62, 0
14, 106800, Note_on_c, 12, 62, 84
14, 106800, Note_on_c, 12, 65, 84
14, 106851, Note_on_c, 12, 62, 0
14, 106851, Note_on_c, 12, 65, 0
14, 106860, Note_on_c, 12, 62, 84
14, 106860, Note_on_c, 12, 65, 84
14, 106911, Note_on_c, 12, 62, 0
14, 106911, Note_on_c, 12, 65, 0
14, 106920, Note_on_c, 12, 62, 84
14, 106920, Note_on_c, 12, 65, 84
14, 106971, Note_on_c, 12, 62, 0
14, 106971, Note_on_c, 12, 65, 0
14, 106980, Note_on_c, 12, 65, 84
14, 106980, Note_on_c, 12, 62, 84
14, 107031, Note_on_c, 12, 65, 0
14, 107031, Note_on_c, 12, 62, 0
14, 107040, Note_on_c, 12, 64, 52
14, 107091, Note_on_c, 12, 64, 0
14, 107100, Note_on_c, 12, 64, 52
14, 107151, Note_on_c, 12, 64, 0
14, 107160, Note_on_c, 12, 64, 52
14, 107211, Note_on_c, 12, 64, 0
14, 107220, Note_on_c, 12, 64, 52
14, 107271, Note_on_c, 12, 64, 0
14, 107280, Note_on_c, 12, 62, 52
14, 107331, Note_on_c, 12, 62, 0
14, 107340, Note_on_c, 12, 62, 52
14, 107391, Note_on_c, 12, 62, 0
14, 107400, Note_on_c, 12, 62, 52
14, 107451, Note_on_c, 12, 62, 0
14, 107460, Note_on_c, 12, 62, 52
14, 107511, Note_on_c, 12, 62, 0
14, 107520, Note_on_c, 12, 64, 52
14, 107571, Note_on_c, 12, 64, 0
14, 107580, Note_on_c, 12, 64, 52
14, 107631, Note_on_c, 12, 64, 0
14, 107640, Note_on_c, 12, 64, 52
14, 107691, Note_on_c, 12, 64, 0
14, 107700, Note_on_c, 12, 64, 52
14, 107751, Note_on_c, 12, 64, 0
14, 107760, Note_on_c, 12, 65, 76
14, 107811, Note_on_c, 12, 65, 0
14, 107820, Note_on_c, 12, 65, 52
14, 107871, Note_on_c, 12, 65, 0
14, 107880, Note_on_c, 12, 65, 52
14, 107931, Note_on_c, 12, 65, 0
14, 107940, Note_on_c, 12, 65, 52
14, 107991, Note_on_c, 12, 65, 0
14, 108000, Note_on_c, 12, 64, 52
14, 108051, Note_on_c, 12, 64, 0
14, 108060, Note_on_c, 12, 64, 52
14, 108111, Note_on_c, 12, 64, 0
14, 108120, Note_on_c, 12, 64, 52
14, 108171, Note_on_c, 12, 64, 0
14, 108180, Note_on_c, 12, 64, 52
14, 108231, Note_on_c, 12, 64, 0
14, 108240, Note_on_c, 12, 62, 52
14, 108291, Note_on_c, 12, 62, 0
14, 108300, Note_on_c, 12, 62, 52
14, 108351, Note_on_c, 12, 62, 0
14, 108360, Note_on_c, 12, 62, 52
14, 108411, Note_on_c, 12, 62, 0
14, 108420, Note_on_c, 12, 62, 52
14, 108471, Note_on_c, 12, 62, 0
14, 108480, Note_on_c, 12, 64, 52
14, 108531, Note_on_c, 12, 64, 0
14, 108540, Note_on_c, 12, 64, 52
14, 108591, Note_on_c, 12, 64, 0
14, 108600, Note_on_c, 12, 64, 52
14, 108651, Note_on_c, 12, 64, 0
14, 108660, Note_on_c, 12, 64, 52
14, 108711, Note_on_c, 12, 64, 0
14, 108720, Note_on_c, 12, 65, 76
14, 108771, Note_on_c, 12, 65, 0
14, 108780, Note_on_c, 12, 65, 52
14, 108831, Note_on_c, 12, 65, 0
14, 108840, Note_on_c, 12, 65, 52
14, 108891, Note_on_c, 12, 65, 0
14, 108900, Note_on_c, 12, 65, 52
14, 108951, Note_on_c, 12, 65, 0
14, 108960, Note_on_c, 12, 64, 52
14, 109011, Note_on_c, 12, 64, 0
14, 109020, Note_on_c, 12, 64, 52
14, 109071, Note_on_c, 12, 64, 0
14, 109080, Note_on_c, 12, 64, 52
14, 109131, Note_on_c, 12, 64, 0
14, 109140, Note_on_c, 12, 64, 52
14, 109191, Note_on_c, 12, 64, 0
14, 109200, Note_on_c, 12, 62, 52
14, 109251, Note_on_c, 12, 62, 0
14, 109260, Note_on_c, 12, 62, 52
14, 109311, Note_on_c, 12, 62, 0
14, 109320, Note_on_c, 12, 62, 52
14, 109371, Note_on_c, 12, 62, 0
14, 109380, Note_on_c, 12, 62, 52
14, 109431, Note_on_c, 12, 62, 0
14, 109440, Note_on_c, 12, 64, 52
14, 109491, Note_on_c, 12, 64, 0
14, 109500, Note_on_c, 12, 64, 52
14, 109551, Note_on_c, 12, 64, 0
14, 109560, Note_on_c, 12, 64, 52
14, 109611, Note_on_c, 12, 64, 0
14, 109620, Note_on_c, 12, 64, 52
14, 109671, Note_on_c, 12, 64, 0
14, 109680, Note_on_c, 12, 65, 76
14, 109731, Note_on_c, 12, 65, 0
14, 109740, Note_on_c, 12, 65, 52
14, 109791, Note_on_c, 12, 65, 0
14, 109800, Note_on_c, 12, 65, 52
14, 109851, Note_on_c, 12, 65, 0
14, 109860, Note_on_c, 12, 65, 52
14, 109911, Note_on_c, 12, 65, 0
14, 109920, Note_on_c, 12, 64, 52
14, 109971, Note_on_c, 12, 64, 0
14, 109980, Note_on_c, 12, 64, 52
14, 110031, Note_on_c, 12, 64, 0
14, 110040, Note_on_c, 12, 64, 52
14, 110091, Note_on_c, 12, 64, 0
14, 110100, Note_on_c, 12, 64, 52
14, 110151, Note_on_c, 12, 64, 0
14, 110160, Note_on_c, 12, 62, 52
14, 110211, Note_on_c, 12, 62, 0
14, 110220, Note_on_c, 12, 62, 52
14, 110271, Note_on_c, 12, 62, 0
14, 110280, Note_on_c, 12, 62, 52
14, 110331, Note_on_c, 12, 62, 0
14, 110340, Note_on_c, 12, 62, 52
14, 110391, Note_on_c, 12, 62, 0
14, 110400, Note_on_c, 12, 64, 52
14, 110451, Note_on_c, 12, 64, 0
14, 110460, Note_on_c, 12, 64, 52
14, 110511, Note_on_c, 12, 64, 0
14, 110520, Note_on_c, 12, 64, 52
14, 110571, Note_on_c, 12, 64, 0
14, 110580, Note_on_c, 12, 64, 52
14, 110631, Note_on_c, 12, 64, 0
14, 110640, Note_on_c, 12, 65, 76
14, 110691, Note_on_c, 12, 65, 0
14, 110700, Note_on_c, 12, 65, 52
14, 110751, Note_on_c, 12, 65, 0
14, 110760, Note_on_c, 12, 65, 52
14, 110811, Note_on_c, 12, 65, 0
14, 110820, Note_on_c, 12, 65, 52
14, 110871, Note_on_c, 12, 65, 0
14, 110880, Note_on_c, 12, 64, 52
14, 110931, Note_on_c, 12, 64, 0
14, 110940, Note_on_c, 12, 64, 52
14, 110991, Note_on_c, 12, 64, 0
14, 111000, Note_on_c, 12, 64, 52
14, 111051, Note_on_c, 12, 64, 0
14, 111060, Note_on_c, 12, 64, 52
14, 111111, Note_on_c, 12, 64, 0
14, 111120, Note_on_c, 12, 65, 76
14, 111171, Note_on_c, 12, 65, 0
14, 111180, Note_on_c, 12, 65, 52
14, 111231, Note_on_c, 12, 65, 0
14, 111240, Note_on_c, 12, 65, 52
14, 111291, Note_on_c, 12, 65, 0
14, 111300, Note_on_c, 12, 65, 52
14, 111351, Note_on_c, 12, 65, 0
14, 111360, Note_on_c, 12, 64, 52
14, 111411, Note_on_c, 12, 64, 0
14, 111420, Note_on_c, 12, 64, 52
14, 111471, Note_on_c, 12, 64, 0
14, 111480, Note_on_c, 12, 64, 52
14, 111531, Note_on_c, 12, 64, 0
14, 111540, Note_on_c, 12, 64, 52
14, 111591, Note_on_c, 12, 64, 0
14, 111600, Note_on_c, 12, 65, 76
14, 111651, Note_on_c, 12, 65, 0
14, 111660, Note_on_c, 12, 65, 52
14, 111711, Note_on_c, 12, 65, 0
14, 111720, Note_on_c, 12, 65, 52
14, 111771, Note_on_c, 12, 65, 0
14, 111780, Note_on_c, 12, 65, 52
14, 111831, Note_on_c, 12, 65, 0
14, 111840, Note_on_c, 12, 64, 52
14, 111891, Note_on_c, 12, 64, 0
14, 111900, Note_on_c, 12, 64, 52
14, 111951, Note_on_c, 12, 64, 0
14, 111960, Note_on_c, 12, 64, 52
14, 112011, Note_on_c, 12, 64, 0
14, 112020, Note_on_c, 12, 64, 52
14, 112071, Note_on_c, 12, 64, 0
14, 112080, Note_on_c, 12, 65, 76
14, 112131, Note_on_c, 12, 65, 0
14, 112140, Note_on_c, 12, 65, 52
14, 112191, Note_on_c, 12, 65, 0
14, 112200, Note_on_c, 12, 65, 52
14, 112251, Note_on_c, 12, 65, 0
14, 112260, Note_on_c, 12, 65, 52
14, 112311, Note_on_c, 12, 65, 0
14, 112320, Note_on_c, 12, 64, 52
14, 112371, Note_on_c, 12, 64, 0
14, 112380, Note_on_c, 12, 64, 52
14, 112431, Note_on_c, 12, 64, 0
14, 112440, Note_on_c, 12, 64, 52
14, 112491, Note_on_c, 12, 64, 0
14, 112500, Note_on_c, 12, 64, 52
14, 112551, Note_on_c, 12, 64, 0
14, 112560, Note_on_c, 12, 65, 76
14, 112611, Note_on_c, 12, 65, 0
14, 112620, Note_on_c, 12, 65, 52
14, 112671, Note_on_c, 12, 65, 0
14, 112680, Note_on_c, 12, 65, 52
14, 112731, Note_on_c, 12, 65, 0
14, 112740, Note_on_c, 12, 65, 52
14, 112791, Note_on_c, 12, 65, 0
14, 112800, Note_on_c, 12, 64, 84
14, 112800, Note_on_c, 12, 61, 84
14, 113039, Note_on_c, 12, 64, 0
14, 113039, Note_on_c, 12, 61, 0
14, 113400, Note_on_c, 12, 57, 84
14, 113451, Note_on_c, 12, 57, 0
14, 113460, Note_on_c, 12, 57, 84
14, 113511, Note_on_c, 12, 57, 0
14, 113520, Note_on_c, 12, 61, 84
14, 113571, Note_on_c, 12, 61, 0
14, 113580, Note_on_c, 12, 61, 84
14, 113631, Note_on_c, 12, 61, 0
14, 113640, Note_on_c, 12, 64, 84
14, 113691, Note_on_c, 12, 64, 0
14, 113700, Note_on_c, 12, 64, 84
14, 113751, Note_on_c, 12, 64, 0
14, 113760, Note_on_c, 12, 69, 84
14, 113811, Note_on_c, 12, 69, 0
14, 113820, Note_on_c, 12, 69, 84
14, 113871, Note_on_c, 12, 69, 0
14, 113880, Note_on_c, 12, 61, 84
14, 113931, Note_on_c, 12, 61, 0
14, 113940, Note_on_c, 12, 61, 84
14, 113991, Note_on_c, 12, 61, 0
14, 114000, Note_on_c, 12, 64, 84
14, 114051, Note_on_c, 12, 64, 0
14, 114060, Note_on_c, 12, 64, 84
14, 114111, Note_on_c, 12, 64, 0
14, 114120, Note_on_c, 12, 69, 84
14, 114171, Note_on_c, 12, 69, 0
14, 114180, Note_on_c, 12, 69, 84
14, 114231, Note_on_c, 12, 69, 0
14, 114240, Note_on_c, 12, 73, 84
14, 114291, Note_on_c, 12, 73, 0
14, 114300, Note_on_c, 12, 73, 84
14, 114351, Note_on_c, 12, 73, 0
14, 114360, Note_on_c, 12, 64, 84
14, 114411, Note_on_c, 12, 64, 0
14, 114420, Note_on_c, 12, 64, 84
14, 114471, Note_on_c, 12, 64, 0
14, 114480, Note_on_c, 12, 69, 84
14, 114531, Note_on_c, 12, 69, 0
14, 114540, Note_on_c, 12, 69, 84
14, 114591, Note_on_c, 12, 69, 0
14, 114600, Note_on_c, 12, 73, 84
14, 114651, Note_on_c, 12, 73, 0
14, 114660, Note_on_c, 12, 73, 84
14, 114711, Note_on_c, 12, 73, 0
14, 114720, Note_on_c, 12, 76, 84
14, 114771, Note_on_c, 12, 76, 0
14, 114780, Note_on_c, 12, 76, 84
14, 114831, Note_on_c, 12, 76, 0
14, 114840, Note_on_c, 12, 85, 84
14, 114891, Note_on_c, 12, 85, 0
14, 114900, Note_on_c, 12, 85, 84
14, 114951, Note_on_c, 12, 85, 0
14, 114960, Note_on_c, 12, 81, 84
14, 115011, Note_on_c, 12, 81, 0
14, 115020, Note_on_c, 12, 81, 84
14, 115071, Note_on_c, 12, 81, 0
14, 115080, Note_on_c, 12, 76, 84
14, 115131, Note_on_c, 12, 76, 0
14, 115140, Note_on_c, 12, 76, 84
14, 115191, Note_on_c, 12, 76, 0
14, 115200, Note_on_c, 12, 73, 84
14, 115251, Note_on_c, 12, 73, 0
14, 115260, Note_on_c, 12, 73, 84
14, 115311, Note_on_c, 12, 73, 0
14, 115320, Note_on_c, 12, 81, 84
14, 115371, Note_on_c, 12, 81, 0
14, 115380, Note_on_c, 12, 81, 84
14, 115431, Note_on_c, 12, 81, 0
14, 115440, Note_on_c, 12, 76, 84
14, 115491, Note_on_c, 12, 76, 0
14, 115500, Note_on_c, 12, 76, 84
14, 115551, Note_on_c, 12, 76, 0
14, 115560, Note_on_c, 12, 73, 84
14, 115611, Note_on_c, 12, 73, 0
14, 115620, Note_on_c, 12, 73, 84
14, 115671, Note_on_c, 12, 73, 0
14, 115680, Note_on_c, 12, 69, 84
14, 115731, Note_on_c, 12, 69, 0
14, 115740, Note_on_c, 12, 69, 84
14, 115791, Note_on_c, 12, 69, 0
14, 115800, Note_on_c, 12, 69, 84
14, 115851, Note_on_c, 12, 69, 0
14, 115860, Note_on_c, 12, 69, 84
14, 115911, Note_on_c, 12, 69, 0
14, 115920, Note_on_c, 12, 64, 84
14, 115971, Note_on_c, 12, 64, 0
14, 115980, Note_on_c, 12, 64, 84
14, 116031, Note_on_c, 12, 64, 0
14, 116040, Note_on_c, 12, 61, 84
14, 116091, Note_on_c, 12, 61, 0
14, 116100, Note_on_c, 12, 61, 84
14, 116151, Note_on_c, 12, 61, 0
14, 116160, Note_on_c, 12, 57, 84
14, 116211, Note_on_c, 12, 57, 0
14, 116220, Note_on_c, 12, 57, 84
14, 116271, Note_on_c, 12, 57, 0
14, 116280, Note_on_c, 12, 69, 84
14, 116331, Note_on_c, 12, 69, 0
14, 116340, Note_on_c, 12, 69, 84
14, 116391, Note_on_c, 12, 69, 0
14, 116400, Note_on_c, 12, 64, 84
14, 116451, Note_on_c, 12, 64, 0
14, 116460, Note_on_c, 12, 64, 84
14, 116511, Note_on_c, 12, 64, 0
14, 116520, Note_on_c, 12, 61, 84
14, 116571, Note_on_c, 12, 61, 0
14, 116580, Note_on_c, 12, 61, 84
14, 116631, Note_on_c, 12, 61, 0
14, 116640, Note_on_c, 12, 57, 84
14, 116879, Note_on_c, 12, 57, 0
14, 117600, Note_on_c, 12, 57, 76
14, 117600, Note_on_c, 12, 73, 76
14, 117600, Note_on_c, 12, 64, 76
14, 117839, Note_on_c, 12, 57, 0
14, 117839, Note_on_c, 12, 73, 0
14, 117839, Note_on_c, 12, 64, 0
14, 120360, Note_on_c, 12, 57, 52
14, 120399, Note_on_c, 12, 57, 0
14, 120400, Note_on_c, 12, 59, 52
14, 120439, Note_on_c, 12, 59, 0
14, 120440, Note_on_c, 12, 61, 52
14, 120471, Note_on_c, 12, 61, 0
14, 120480, Note_on_c, 12, 62, 52
14, 120584, Note_on_c, 12, 62, 0
14, 120600, Note_on_c, 12, 62, 52
14, 120704, Note_on_c, 12, 62, 0
14, 120720, Note_on_c, 12, 62, 52
14, 120824, Note_on_c, 12, 62, 0
14, 120840, Note_on_c, 12, 62, 52
14, 120944, Note_on_c, 12, 62, 0
14, 120960, Note_on_c, 12, 62, 52
14, 121064, Note_on_c, 12, 62, 0
14, 121080, Note_on_c, 12, 62, 52
14, 121184, Note_on_c, 12, 62, 0
14, 121200, Note_on_c, 12, 62, 52
14, 121304, Note_on_c, 12, 62, 0
14, 121320, Note_on_c, 12, 62, 52
14, 121424, Note_on_c, 12, 62, 0
14, 121440, Note_on_c, 12, 62, 52
14, 121544, Note_on_c, 12, 62, 0
14, 121560, Note_on_c, 12, 62, 52
14, 121664, Note_on_c, 12, 62, 0
14, 121680, Note_on_c, 12, 62, 52
14, 121784, Note_on_c, 12, 62, 0
14, 121800, Note_on_c, 12, 62, 52
14, 121904, Note_on_c, 12, 62, 0
14, 121920, Note_on_c, 12, 62, 52
14, 122024, Note_on_c, 12, 62, 0
14, 122040, Note_on_c, 12, 62, 52
14, 122144, Note_on_c, 12, 62, 0
14, 122160, Note_on_c, 12, 62, 52
14, 122264, Note_on_c, 12, 62, 0
14, 122280, Note_on_c, 12, 62, 52
14, 122384, Note_on_c, 12, 62, 0
14, 122400, Note_on_c, 12, 62, 52
14, 122504, Note_on_c, 12, 62, 0
14, 122520, Note_on_c, 12, 62, 52
14, 122624, Note_on_c, 12, 62, 0
14, 122640, Note_on_c, 12, 62, 52
14, 122744, Note_on_c, 12, 62, 0
14, 122760, Note_on_c, 12, 62, 52
14, 122864, Note_on_c, 12, 62, 0
14, 122880, Note_on_c, 12, 62, 52
14, 122984, Note_on_c, 12, 62, 0
14, 123000, Note_on_c, 12, 62, 52
14, 123104, Note_on_c, 12, 62, 0
14, 123120, Note_on_c, 12, 62, 52
14, 123224, Note_on_c, 12, 62, 0
14, 123240, Note_on_c, 12, 62, 52
14, 123344, Note_on_c, 12, 62, 0
14, 123360, Note_on_c, 12, 62, 52
14, 123464, Note_on_c, 12, 62, 0
14, 123480, Note_on_c, 12, 62, 54
14, 123584, Note_on_c, 12, 62, 0
14, 123600, Note_on_c, 12, 62, 56
14, 123704, Note_on_c, 12, 62, 0
14, 123720, Note_on_c, 12, 62, 58
14, 123824, Note_on_c, 12, 62, 0
14, 123840, Note_on_c, 12, 62, 60
14, 123944, Note_on_c, 12, 62, 0
14, 123960, Note_on_c, 12, 62, 62
14, 124064, Note_on_c, 12, 62, 0
14, 124080, Note_on_c, 12, 62, 64
14, 124184, Note_on_c, 12, 62, 0
14, 124200, Note_on_c, 12, 62, 66
14, 124304, Note_on_c, 12, 62, 0
14, 124320, Note_on_c, 12, 62, 52
14, 124320, Note_on_c, 12, 59, 52
14, 124424, Note_on_c, 12, 62, 0
14, 124424, Note_on_c, 12, 59, 0
14, 124440, Note_on_c, 12, 62, 52
14, 124440, Note_on_c, 12, 59, 52
14, 124544, Note_on_c, 12, 62, 0
14, 124544, Note_on_c, 12, 59, 0
14, 124560, Note_on_c, 12, 59, 52
14, 124560, Note_on_c, 12, 62, 52
14, 124664, Note_on_c, 12, 59, 0
14, 124664, Note_on_c, 12, 62, 0
14, 124680, Note_on_c, 12, 62, 52
14, 124680, Note_on_c, 12, 59, 52
14, 124784, Note_on_c, 12, 62, 0
14, 124784, Note_on_c, 12, 59, 0
14, 124800, Note_on_c, 12, 59, 52
14, 124800, Note_on_c, 12, 62, 52
14, 124904, Note_on_c, 12, 59, 0
14, 124904, Note_on_c, 12, 62, 0
14, 124920, Note_on_c, 12, 59, 52
14, 124920, Note_on_c, 12, 62, 52
14, 125024, Note_on_c, 12, 59, 0
14, 125024, Note_on_c, 12, 62, 0
14, 125040, Note_on_c, 12, 62, 52
14, 125040, Note_on_c, 12, 59, 52
14, 125144, Note_on_c, 12, 62, 0
14, 125144, Note_on_c, 12, 59, 0
14, 125160, Note_on_c, 12, 62, 52
14, 125160, Note_on_c, 12, 59, 52
14, 125264, Note_on_c, 12, 62, 0
14, 125264, Note_on_c, 12, 59, 0
14, 125280, Note_on_c, 12, 59, 52
14, 125280, Note_on_c, 12, 62, 52
14, 125384, Note_on_c, 12, 59, 0
14, 125384, Note_on_c, 12, 62, 0
14, 125400, Note_on_c, 12, 59, 52
14, 125400, Note_on_c, 12, 62, 52
14, 125504, Note_on_c, 12, 59, 0
14, 125504, Note_on_c, 12, 62, 0
14, 125520, Note_on_c, 12, 62, 52
14, 125520, Note_on_c, 12, 59, 52
14, 125624, Note_on_c, 12, 62, 0
14, 125624, Note_on_c, 12, 59, 0
14, 125640, Note_on_c, 12, 59, 52
14, 125640, Note_on_c, 12, 62, 52
14, 125744, Note_on_c, 12, 59, 0
14, 125744, Note_on_c, 12, 62, 0
14, 125760, Note_on_c, 12, 62, 52
14, 125760, Note_on_c, 12, 59, 52
14, 125864, Note_on_c, 12, 62, 0
14, 125864, Note_on_c, 12, 59, 0
14, 125880, Note_on_c, 12, 59, 52
14, 125880, Note_on_c, 12, 62, 52
14, 125984, Note_on_c, 12, 59, 0
14, 125984, Note_on_c, 12, 62, 0
14, 126000, Note_on_c, 12, 59, 52
14, 126000, Note_on_c, 12, 62, 52
14, 126104, Note_on_c, 12, 59, 0
14, 126104, Note_on_c, 12, 62, 0
14, 126120, Note_on_c, 12, 59, 52
14, 126120, Note_on_c, 12, 62, 52
14, 126224, Note_on_c, 12, 59, 0
14, 126224, Note_on_c, 12, 62, 0
14, 126240, Note_on_c, 12, 59, 52
14, 126240, Note_on_c, 12, 62, 52
14, 126344, Note_on_c, 12, 59, 0
14, 126344, Note_on_c, 12, 62, 0
14, 126360, Note_on_c, 12, 62, 52
14, 126360, Note_on_c, 12, 59, 52
14, 126464, Note_on_c, 12, 62, 0
14, 126464, Note_on_c, 12, 59, 0
14, 126480, Note_on_c, 12, 59, 52
14, 126480, Note_on_c, 12, 62, 52
14, 126584, Note_on_c, 12, 59, 0
14, 126584, Note_on_c, 12, 62, 0
14, 126600, Note_on_c, 12, 62, 52
14, 126600, Note_on_c, 12, 59, 52
14, 126704, Note_on_c, 12, 62, 0
14, 126704, Note_on_c, 12, 59, 0
14, 126720, Note_on_c, 12, 59, 52
14, 126720, Note_on_c, 12, 62, 52
14, 126824, Note_on_c, 12, 59, 0
14, 126824, Note_on_c, 12, 62, 0
14, 126840, Note_on_c, 12, 62, 52
14, 126840, Note_on_c, 12, 59, 52
14, 126944, Note_on_c, 12, 62, 0
14, 126944, Note_on_c, 12, 59, 0
14, 126960, Note_on_c, 12, 62, 52
14, 126960, Note_on_c, 12, 59, 52
14, 127064, Note_on_c, 12, 62, 0
14, 127064, Note_on_c, 12, 59, 0
14, 127080, Note_on_c, 12, 62, 52
14, 127080, Note_on_c, 12, 59, 52
14, 127184, Note_on_c, 12, 62, 0
14, 127184, Note_on_c, 12, 59, 0
14, 127200, Note_on_c, 12, 59, 52
14, 127200, Note_on_c, 12, 62, 52
14, 127304, Note_on_c, 12, 59, 0
14, 127304, Note_on_c, 12, 62, 0
14, 127320, Note_on_c, 12, 62, 52
14, 127320, Note_on_c, 12, 59, 52
14, 127424, Note_on_c, 12, 62, 0
14, 127424, Note_on_c, 12, 59, 0
14, 127440, Note_on_c, 12, 59, 52
14, 127440, Note_on_c, 12, 62, 52
14, 127544, Note_on_c, 12, 59, 0
14, 127544, Note_on_c, 12, 62, 0
14, 127560, Note_on_c, 12, 62, 52
14, 127560, Note_on_c, 12, 59, 52
14, 127664, Note_on_c, 12, 62, 0
14, 127664, Note_on_c, 12, 59, 0
14, 127680, Note_on_c, 12, 59, 52
14, 127680, Note_on_c, 12, 62, 52
14, 127784, Note_on_c, 12, 59, 0
14, 127784, Note_on_c, 12, 62, 0
14, 127800, Note_on_c, 12, 62, 52
14, 127800, Note_on_c, 12, 59, 52
14, 127904, Note_on_c, 12, 62, 0
14, 127904, Note_on_c, 12, 59, 0
14, 127920, Note_on_c, 12, 62, 52
14, 127920, Note_on_c, 12, 59, 52
14, 128024, Note_on_c, 12, 62, 0
14, 128024, Note_on_c, 12, 59, 0
14, 128040, Note_on_c, 12, 62, 52
14, 128040, Note_on_c, 12, 59, 52
14, 128144, Note_on_c, 12, 62, 0
14, 128144, Note_on_c, 12, 59, 0
14, 128160, Note_on_c, 12, 62, 52
14, 128160, Note_on_c, 12, 60, 52
14, 128264, Note_on_c, 12, 62, 0
14, 128264, Note_on_c, 12, 60, 0
14, 128280, Note_on_c, 12, 62, 52
14, 128280, Note_on_c, 12, 60, 52
14, 128384, Note_on_c, 12, 62, 0
14, 128384, Note_on_c, 12, 60, 0
14, 128400, Note_on_c, 12, 62, 52
14, 128400, Note_on_c, 12, 60, 52
14, 128504, Note_on_c, 12, 62, 0
14, 128504, Note_on_c, 12, 60, 0
14, 128520, Note_on_c, 12, 62, 52
14, 128520, Note_on_c, 12, 60, 52
14, 128624, Note_on_c, 12, 62, 0
14, 128624, Note_on_c, 12, 60, 0
14, 128640, Note_on_c, 12, 60, 52
14, 128640, Note_on_c, 12, 62, 52
14, 128744, Note_on_c, 12, 60, 0
14, 128744, Note_on_c, 12, 62, 0
14, 128760, Note_on_c, 12, 60, 52
14, 128760, Note_on_c, 12, 62, 52
14, 128864, Note_on_c, 12, 60, 0
14, 128864, Note_on_c, 12, 62, 0
14, 128880, Note_on_c, 12, 62, 52
14, 128880, Note_on_c, 12, 60, 52
14, 128984, Note_on_c, 12, 62, 0
14, 128984, Note_on_c, 12, 60, 0
14, 129000, Note_on_c, 12, 60, 52
14, 129000, Note_on_c, 12, 62, 52
14, 129104, Note_on_c, 12, 60, 0
14, 129104, Note_on_c, 12, 62, 0
14, 129120, Note_on_c, 12, 60, 52
14, 129120, Note_on_c, 12, 62, 52
14, 129224, Note_on_c, 12, 60, 0
14, 129224, Note_on_c, 12, 62, 0
14, 129240, Note_on_c, 12, 60, 52
14, 129240, Note_on_c, 12, 62, 52
14, 129344, Note_on_c, 12, 60, 0
14, 129344, Note_on_c, 12, 62, 0
14, 129360, Note_on_c, 12, 62, 52
14, 129360, Note_on_c, 12, 60, 52
14, 129464, Note_on_c, 12, 62, 0
14, 129464, Note_on_c, 12, 60, 0
14, 129480, Note_on_c, 12, 62, 52
14, 129480, Note_on_c, 12, 60, 52
14, 129584, Note_on_c, 12, 62, 0
14, 129584, Note_on_c, 12, 60, 0
14, 129600, Note_on_c, 12, 60, 52
14, 129600, Note_on_c, 12, 62, 52
14, 129704, Note_on_c, 12, 60, 0
14, 129704, Note_on_c, 12, 62, 0
14, 129720, Note_on_c, 12, 60, 52
14, 129720, Note_on_c, 12, 62, 52
14, 129824, Note_on_c, 12, 60, 0
14, 129824, Note_on_c, 12, 62, 0
14, 129840, Note_on_c, 12, 60, 52
14, 129840, Note_on_c, 12, 62, 52
14, 129944, Note_on_c, 12, 60, 0
14, 129944, Note_on_c, 12, 62, 0
14, 129960, Note_on_c, 12, 62, 52
14, 129960, Note_on_c, 12, 60, 52
14, 130064, Note_on_c, 12, 62, 0
14, 130064, Note_on_c, 12, 60, 0
14, 130200, Note_on_c, 12, 62, 53
14, 130289, Note_on_c, 12, 62, 0
14, 130320, Note_on_c, 12, 62, 54
14, 130409, Note_on_c, 12, 62, 0
14, 130440, Note_on_c, 12, 62, 55
14, 130529, Note_on_c, 12, 62, 0
14, 130680, Note_on_c, 12, 63, 57
14, 130769, Note_on_c, 12, 63, 0
14, 130800, Note_on_c, 12, 63, 58
14, 130889, Note_on_c, 12, 63, 0
14, 130920, Note_on_c, 12, 63, 59
14, 131009, Note_on_c, 12, 63, 0
14, 131160, Note_on_c, 12, 59, 61
14, 131249, Note_on_c, 12, 59, 0
14, 131280, Note_on_c, 12, 59, 62
14, 131369, Note_on_c, 12, 59, 0
14, 131400, Note_on_c, 12, 59, 63
14, 131489, Note_on_c, 12, 59, 0
14, 131640, Note_on_c, 12, 60, 65
14, 131729, Note_on_c, 12, 60, 0
14, 131760, Note_on_c, 12, 60, 66
14, 131849, Note_on_c, 12, 60, 0
14, 131880, Note_on_c, 12, 60, 67
14, 131969, Note_on_c, 12, 60, 0
14, 132000, Note_on_c, 12, 59, 68
14, 132089, Note_on_c, 12, 59, 0
14, 132120, Note_on_c, 12, 71, 69
14, 132239, Note_on_c, 12, 71, 0
14, 132240, Note_on_c, 12, 67, 70
14, 132359, Note_on_c, 12, 67, 0
14, 132360, Note_on_c, 12, 71, 71
14, 132464, Note_on_c, 12, 71, 0
14, 132480, Note_on_c, 12, 64, 72
14, 132599, Note_on_c, 12, 64, 0
14, 132600, Note_on_c, 12, 67, 73
14, 132719, Note_on_c, 12, 67, 0
14, 132720, Note_on_c, 12, 64, 74
14, 132839, Note_on_c, 12, 64, 0
14, 132840, Note_on_c, 12, 67, 75
14, 132944, Note_on_c, 12, 67, 0
14, 132960, Note_on_c, 12, 66, 76
14, 133011, Note_on_c, 12, 66, 0
14, 133020, Note_on_c, 12, 62, 76
14, 133020, Note_on_c, 12, 74, 76
14, 133071, Note_on_c, 12, 62, 0
14, 133071, Note_on_c, 12, 74, 0
14, 133080, Note_on_c, 12, 74, 76
14, 133080, Note_on_c, 12, 62, 76
14, 133131, Note_on_c, 12, 74, 0
14, 133131, Note_on_c, 12, 62, 0
14, 133140, Note_on_c, 12, 74, 76
14, 133140, Note_on_c, 12, 62, 76
14, 133191, Note_on_c, 12, 74, 0
14, 133191, Note_on_c, 12, 62, 0
14, 133200, Note_on_c, 12, 62, 76
14, 133200, Note_on_c, 12, 74, 76
14, 133251, Note_on_c, 12, 62, 0
14, 133251, Note_on_c, 12, 74, 0
14, 133260, Note_on_c, 12, 62, 76
14, 133260, Note_on_c, 12, 74, 76
14, 133311, Note_on_c, 12, 62, 0
14, 133311, Note_on_c, 12, 74, 0
14, 133320, Note_on_c, 12, 74, 76
14, 133320, Note_on_c, 12, 62, 76
14, 133371, Note_on_c, 12, 74, 0
14, 133371, Note_on_c, 12, 62, 0
14, 133380, Note_on_c, 12, 62, 76
14, 133380, Note_on_c, 12, 74, 76
14, 133431, Note_on_c, 12, 62, 0
14, 133431, Note_on_c, 12, 74, 0
14, 133440, Note_on_c, 12, 74, 76
14, 133440, Note_on_c, 12, 62, 76
14, 133491, Note_on_c, 12, 74, 0
14, 133491, Note_on_c, 12, 62, 0
14, 133500, Note_on_c, 12, 74, 76
14, 133500, Note_on_c, 12, 62, 76
14, 133551, Note_on_c, 12, 74, 0
14, 133551, Note_on_c, 12, 62, 0
14, 133560, Note_on_c, 12, 62, 76
14, 133560, Note_on_c, 12, 74, 76
14, 133611, Note_on_c, 12, 62, 0
14, 133611, Note_on_c, 12, 74, 0
14, 133620, Note_on_c, 12, 74, 76
14, 133620, Note_on_c, 12, 62, 76
14, 133671, Note_on_c, 12, 74, 0
14, 133671, Note_on_c, 12, 62, 0
14, 133680, Note_on_c, 12, 62, 76
14, 133680, Note_on_c, 12, 74, 76
14, 133731, Note_on_c, 12, 62, 0
14, 133731, Note_on_c, 12, 74, 0
14, 133740, Note_on_c, 12, 74, 76
14, 133740, Note_on_c, 12, 62, 76
14, 133791, Note_on_c, 12, 74, 0
14, 133791, Note_on_c, 12, 62, 0
14, 133800, Note_on_c, 12, 74, 76
14, 133800, Note_on_c, 12, 62, 76
14, 133851, Note_on_c, 12, 74, 0
14, 133851, Note_on_c, 12, 62, 0
14, 133860, Note_on_c, 12, 74, 76
14, 133860, Note_on_c, 12, 62, 76
14, 133911, Note_on_c, 12, 74, 0
14, 133911, Note_on_c, 12, 62, 0
14, 133920, Note_on_c, 12, 74, 84
14, 133920, Note_on_c, 12, 62, 84
14, 133971, Note_on_c, 12, 74, 0
14, 133971, Note_on_c, 12, 62, 0
14, 133980, Note_on_c, 12, 74, 76
14, 133980, Note_on_c, 12, 62, 76
14, 134031, Note_on_c, 12, 74, 0
14, 134031, Note_on_c, 12, 62, 0
14, 134040, Note_on_c, 12, 74, 76
14, 134040, Note_on_c, 12, 62, 76
14, 134091, Note_on_c, 12, 74, 0
14, 134091, Note_on_c, 12, 62, 0
14, 134100, Note_on_c, 12, 74, 76
14, 134100, Note_on_c, 12, 62, 76
14, 134151, Note_on_c, 12, 74, 0
14, 134151, Note_on_c, 12, 62, 0
14, 134160, Note_on_c, 12, 62, 76
14, 134160, Note_on_c, 12, 74, 76
14, 134211, Note_on_c, 12, 62, 0
14, 134211, Note_on_c, 12, 74, 0
14, 134220, Note_on_c, 12, 74, 76
14, 134220, Note_on_c, 12, 62, 76
14, 134271, Note_on_c, 12, 74, 0
14, 134271, Note_on_c, 12, 62, 0
14, 134280, Note_on_c, 12, 74, 76
14, 134280, Note_on_c, 12, 62, 76
14, 134331, Note_on_c, 12, 74, 0
14, 134331, Note_on_c, 12, 62, 0
14, 134340, Note_on_c, 12, 62, 76
14, 134340, Note_on_c, 12, 74, 76
14, 134391, Note_on_c, 12, 62, 0
14, 134391, Note_on_c, 12, 74, 0
14, 134400, Note_on_c, 12, 62, 76
14, 134400, Note_on_c, 12, 74, 76
14, 134451, Note_on_c, 12, 62, 0
14, 134451, Note_on_c, 12, 74, 0
14, 134460, Note_on_c, 12, 74, 76
14, 134460, Note_on_c, 12, 62, 76
14, 134511, Note_on_c, 12, 74, 0
14, 134511, Note_on_c, 12, 62, 0
14, 134520, Note_on_c, 12, 74, 76
14, 134520, Note_on_c, 12, 62, 76
14, 134571, Note_on_c, 12, 74, 0
14, 134571, Note_on_c, 12, 62, 0
14, 134580, Note_on_c, 12, 62, 76
14, 134580, Note_on_c, 12, 74, 76
14, 134631, Note_on_c, 12, 62, 0
14, 134631, Note_on_c, 12, 74, 0
14, 134640, Note_on_c, 12, 62, 76
14, 134640, Note_on_c, 12, 74, 76
14, 134691, Note_on_c, 12, 62, 0
14, 134691, Note_on_c, 12, 74, 0
14, 134700, Note_on_c, 12, 62, 76
14, 134700, Note_on_c, 12, 74, 76
14, 134751, Note_on_c, 12, 62, 0
14, 134751, Note_on_c, 12, 74, 0
14, 134760, Note_on_c, 12, 62, 76
14, 134760, Note_on_c, 12, 74, 76
14, 134811, Note_on_c, 12, 62, 0
14, 134811, Note_on_c, 12, 74, 0
14, 134820, Note_on_c, 12, 74, 76
14, 134820, Note_on_c, 12, 62, 76
14, 134871, Note_on_c, 12, 74, 0
14, 134871, Note_on_c, 12, 62, 0
14, 134880, Note_on_c, 12, 62, 76
14, 134880, Note_on_c, 12, 74, 76
14, 134931, Note_on_c, 12, 62, 0
14, 134931, Note_on_c, 12, 74, 0
14, 134940, Note_on_c, 12, 74, 76
14, 134940, Note_on_c, 12, 62, 76
14, 134991, Note_on_c, 12, 74, 0
14, 134991, Note_on_c, 12, 62, 0
14, 135000, Note_on_c, 12, 62, 76
14, 135000, Note_on_c, 12, 74, 76
14, 135051, Note_on_c, 12, 62, 0
14, 135051, Note_on_c, 12, 74, 0
14, 135060, Note_on_c, 12, 62, 76
14, 135060, Note_on_c, 12, 74, 76
14, 135111, Note_on_c, 12, 62, 0
14, 135111, Note_on_c, 12, 74, 0
14, 135120, Note_on_c, 12, 62, 76
14, 135120, Note_on_c, 12, 74, 76
14, 135171, Note_on_c, 12, 62, 0
14, 135171, Note_on_c, 12, 74, 0
14, 135180, Note_on_c, 12, 62, 76
14, 135180, Note_on_c, 12, 74, 76
14, 135231, Note_on_c, 12, 62, 0
14, 135231, Note_on_c, 12, 74, 0
14, 135240, Note_on_c, 12, 62, 76
14, 135240, Note_on_c, 12, 74, 76
14, 135291, Note_on_c, 12, 62, 0
14, 135291, Note_on_c, 12, 74, 0
14, 135300, Note_on_c, 12, 74, 76
14, 135300, Note_on_c, 12, 62, 76
14, 135351, Note_on_c, 12, 74, 0
14, 135351, Note_on_c, 12, 62, 0
14, 135360, Note_on_c, 12, 62, 84
14, 135360, Note_on_c, 12, 74, 84
14, 135411, Note_on_c, 12, 62, 0
14, 135411, Note_on_c, 12, 74, 0
14, 135420, Note_on_c, 12, 62, 76
14, 135420, Note_on_c, 12, 74, 76
14, 135471, Note_on_c, 12, 62, 0
14, 135471, Note_on_c, 12, 74, 0
14, 135480, Note_on_c, 12, 74, 76
14, 135480, Note_on_c, 12, 62, 76
14, 135531, Note_on_c, 12, 74, 0
14, 135531, Note_on_c, 12, 62, 0
14, 135540, Note_on_c, 12, 74, 76
14, 135540, Note_on_c, 12, 62, 76
14, 135591, Note_on_c, 12, 74, 0
14, 135591, Note_on_c, 12, 62, 0
14, 135600, Note_on_c, 12, 74, 76
14, 135600, Note_on_c, 12, 62, 76
14, 135651, Note_on_c, 12, 74, 0
14, 135651, Note_on_c, 12, 62, 0
14, 135660, Note_on_c, 12, 74, 76
14, 135660, Note_on_c, 12, 62, 76
14, 135711, Note_on_c, 12, 74, 0
14, 135711, Note_on_c, 12, 62, 0
14, 135720, Note_on_c, 12, 62, 76
14, 135720, Note_on_c, 12, 74, 76
14, 135771, Note_on_c, 12, 62, 0
14, 135771, Note_on_c, 12, 74, 0
14, 135780, Note_on_c, 12, 74, 76
14, 135780, Note_on_c, 12, 62, 76
14, 135831, Note_on_c, 12, 74, 0
14, 135831, Note_on_c, 12, 62, 0
14, 135840, Note_on_c, 12, 74, 76
14, 135840, Note_on_c, 12, 62, 76
14, 135891, Note_on_c, 12, 74, 0
14, 135891, Note_on_c, 12, 62, 0
14, 135900, Note_on_c, 12, 74, 76
14, 135900, Note_on_c, 12, 62, 76
14, 135951, Note_on_c, 12, 74, 0
14, 135951, Note_on_c, 12, 62, 0
14, 135960, Note_on_c, 12, 74, 76
14, 135960, Note_on_c, 12, 62, 76
14, 136011, Note_on_c, 12, 74, 0
14, 136011, Note_on_c, 12, 62, 0
14, 136020, Note_on_c, 12, 74, 76
14, 136020, Note_on_c, 12, 62, 76
14, 136071, Note_on_c, 12, 74, 0
14, 136071, Note_on_c, 12, 62, 0
14, 136080, Note_on_c, 12, 62, 76
14, 136080, Note_on_c, 12, 74, 76
14, 136131, Note_on_c, 12, 62, 0
14, 136131, Note_on_c, 12, 74, 0
14, 136140, Note_on_c, 12, 62, 76
14, 136140, Note_on_c, 12, 74, 76
14, 136191, Note_on_c, 12, 62, 0
14, 136191, Note_on_c, 12, 74, 0
14, 136200, Note_on_c, 12, 62, 76
14, 136200, Note_on_c, 12, 74, 76
14, 136251, Note_on_c, 12, 62, 0
14, 136251, Note_on_c, 12, 74, 0
14, 136260, Note_on_c, 12, 74, 76
14, 136260, Note_on_c, 12, 62, 76
14, 136311, Note_on_c, 12, 74, 0
14, 136311, Note_on_c, 12, 62, 0
14, 136320, Note_on_c, 12, 74, 76
14, 136320, Note_on_c, 12, 62, 76
14, 136371, Note_on_c, 12, 74, 0
14, 136371, Note_on_c, 12, 62, 0
14, 136380, Note_on_c, 12, 62, 76
14, 136380, Note_on_c, 12, 74, 76
14, 136431, Note_on_c, 12, 62, 0
14, 136431, Note_on_c, 12, 74, 0
14, 136440, Note_on_c, 12, 74, 76
14, 136440, Note_on_c, 12, 62, 76
14, 136491, Note_on_c, 12, 74, 0
14, 136491, Note_on_c, 12, 62, 0
14, 136500, Note_on_c, 12, 62, 76
14, 136500, Note_on_c, 12, 74, 76
14, 136551, Note_on_c, 12, 62, 0
14, 136551, Note_on_c, 12, 74, 0
14, 136560, Note_on_c, 12, 62, 76
14, 136560, Note_on_c, 12, 74, 76
14, 136611, Note_on_c, 12, 62, 0
14, 136611, Note_on_c, 12, 74, 0
14, 136620, Note_on_c, 12, 74, 76
14, 136620, Note_on_c, 12, 62, 76
14, 136671, Note_on_c, 12, 74, 0
14, 136671, Note_on_c, 12, 62, 0
14, 136680, Note_on_c, 12, 74, 76
14, 136680, Note_on_c, 12, 62, 76
14, 136731, Note_on_c, 12, 74, 0
14, 136731, Note_on_c, 12, 62, 0
14, 136740, Note_on_c, 12, 74, 76
14, 136740, Note_on_c, 12, 62, 76
14, 136791, Note_on_c, 12, 74, 0
14, 136791, Note_on_c, 12, 62, 0
14, 136800, Note_on_c, 12, 62, 76
14, 136800, Note_on_c, 12, 74, 76
14, 136851, Note_on_c, 12, 62, 0
14, 136851, Note_on_c, 12, 74, 0
14, 136860, Note_on_c, 12, 67, 76
14, 136860, Note_on_c, 12, 59, 76
14, 136911, Note_on_c, 12, 67, 0
14, 136911, Note_on_c, 12, 59, 0
14, 136920, Note_on_c, 12, 67, 76
14, 136920, Note_on_c, 12, 59, 76
14, 136971, Note_on_c, 12, 67, 0
14, 136971, Note_on_c, 12, 59, 0
14, 136980, Note_on_c, 12, 67, 76
14, 136980, Note_on_c, 12, 59, 76
14, 137031, Note_on_c, 12, 67, 0
14, 137031, Note_on_c, 12, 59, 0
14, 137040, Note_on_c, 12, 67, 76
14, 137040, Note_on_c, 12, 59, 76
14, 137091, Note_on_c, 12, 67, 0
14, 137091, Note_on_c, 12, 59, 0
14, 137100, Note_on_c, 12, 67, 76
14, 137100, Note_on_c, 12, 59, 76
14, 137151, Note_on_c, 12, 67, 0
14, 137151, Note_on_c, 12, 59, 0
14, 137160, Note_on_c, 12, 67, 76
14, 137160, Note_on_c, 12, 59, 76
14, 137211, Note_on_c, 12, 67, 0
14, 137211, Note_on_c, 12, 59, 0
14, 137220, Note_on_c, 12, 59, 76
14, 137220, Note_on_c, 12, 67, 76
14, 137271, Note_on_c, 12, 59, 0
14, 137271, Note_on_c, 12, 67, 0
14, 137280, Note_on_c, 12, 59, 76
14, 137280, Note_on_c, 12, 67, 76
14, 137331, Note_on_c, 12, 59, 0
14, 137331, Note_on_c, 12, 67, 0
14, 137340, Note_on_c, 12, 59, 76
14, 137340, Note_on_c, 12, 67, 76
14, 137391, Note_on_c, 12, 59, 0
14, 137391, Note_on_c, 12, 67, 0
14, 137400, Note_on_c, 12, 59, 76
14, 137400, Note_on_c, 12, 67, 76
14, 137451, Note_on_c, 12, 59, 0
14, 137451, Note_on_c, 12, 67, 0
14, 137460, Note_on_c, 12, 59, 76
14, 137460, Note_on_c, 12, 67, 76
14, 137511, Note_on_c, 12, 59, 0
14, 137511, Note_on_c, 12, 67, 0
14, 137520, Note_on_c, 12, 67, 76
14, 137520, Note_on_c, 12, 59, 76
14, 137571, Note_on_c, 12, 67, 0
14, 137571, Note_on_c, 12, 59, 0
14, 137580, Note_on_c, 12, 67, 76
14, 137580, Note_on_c, 12, 59, 76
14, 137631, Note_on_c, 12, 67, 0
14, 137631, Note_on_c, 12, 59, 0
14, 137640, Note_on_c, 12, 59, 76
14, 137640, Note_on_c, 12, 67, 76
14, 137691, Note_on_c, 12, 59, 0
14, 137691, Note_on_c, 12, 67, 0
14, 137700, Note_on_c, 12, 67, 76
14, 137700, Note_on_c, 12, 59, 76
14, 137751, Note_on_c, 12, 67, 0
14, 137751, Note_on_c, 12, 59, 0
14, 137760, Note_on_c, 12, 57, 76
14, 137760, Note_on_c, 12, 67, 76
14, 137811, Note_on_c, 12, 57, 0
14, 137811, Note_on_c, 12, 67, 0
14, 137820, Note_on_c, 12, 57, 76
14, 137820, Note_on_c, 12, 67, 76
14, 137871, Note_on_c, 12, 57, 0
14, 137871, Note_on_c, 12, 67, 0
14, 137880, Note_on_c, 12, 67, 76
14, 137880, Note_on_c, 12, 57, 76
14, 137931, Note_on_c, 12, 67, 0
14, 137931, Note_on_c, 12, 57, 0
14, 137940, Note_on_c, 12, 67, 76
14, 137940, Note_on_c, 12, 57, 76
14, 137991, Note_on_c, 12, 67, 0
14, 137991, Note_on_c, 12, 57, 0
14, 138000, Note_on_c, 12, 57, 76
14, 138000, Note_on_c, 12, 67, 76
14, 138051, Note_on_c, 12, 57, 0
14, 138051, Note_on_c, 12, 67, 0
14, 138060, Note_on_c, 12, 57, 76
14, 138060, Note_on_c, 12, 67, 76
14, 138111, Note_on_c, 12, 57, 0
14, 138111, Note_on_c, 12, 67, 0
14, 138120, Note_on_c, 12, 67, 76
14, 138120, Note_on_c, 12, 57, 76
14, 138171, Note_on_c, 12, 67, 0
14, 138171, Note_on_c, 12, 57, 0
14, 138180, Note_on_c, 12, 67, 76
14, 138180, Note_on_c, 12, 57, 76
14, 138231, Note_on_c, 12, 67, 0
14, 138231, Note_on_c, 12, 57, 0
14, 138240, Note_on_c, 12, 67, 76
14, 138240, Note_on_c, 12, 57, 76
14, 138291, Note_on_c, 12, 67, 0
14, 138291, Note_on_c, 12, 57, 0
14, 138300, Note_on_c, 12, 57, 76
14, 138300, Note_on_c, 12, 67, 76
14, 138351, Note_on_c, 12, 57, 0
14, 138351, Note_on_c, 12, 67, 0
14, 138360, Note_on_c, 12, 67, 76
14, 138360, Note_on_c, 12, 57, 76
14, 138411, Note_on_c, 12, 67, 0
14, 138411, Note_on_c, 12, 57, 0
14, 138420, Note_on_c, 12, 67, 76
14, 138420, Note_on_c, 12, 57, 76
14, 138471, Note_on_c, 12, 67, 0
14, 138471, Note_on_c, 12, 57, 0
14, 138480, Note_on_c, 12, 67, 76
14, 138480, Note_on_c, 12, 57, 76
14, 138531, Note_on_c, 12, 67, 0
14, 138531, Note_on_c, 12, 57, 0
14, 138540, Note_on_c, 12, 57, 76
14, 138540, Note_on_c, 12, 67, 76
14, 138591, Note_on_c, 12, 57, 0
14, 138591, Note_on_c, 12, 67, 0
14, 138600, Note_on_c, 12, 67, 76
14, 138600, Note_on_c, 12, 57, 76
14, 138651, Note_on_c, 12, 67, 0
14, 138651, Note_on_c, 12, 57, 0
14, 138660, Note_on_c, 12, 57, 76
14, 138660, Note_on_c, 12, 67, 76
14, 138711, Note_on_c, 12, 57, 0
14, 138711, Note_on_c, 12, 67, 0
14, 138720, Note_on_c, 12, 66, 76
14, 138720, Note_on_c, 12, 57, 76
14, 138771, Note_on_c, 12, 66, 0
14, 138771, Note_on_c, 12, 57, 0
14, 138780, Note_on_c, 12, 74, 76
14, 138780, Note_on_c, 12, 62, 76
14, 138831, Note_on_c, 12, 74, 0
14, 138831, Note_on_c, 12, 62, 0
14, 138840, Note_on_c, 12, 62, 76
14, 138840, Note_on_c, 12, 74, 76
14, 138891, Note_on_c, 12, 62, 0
14, 138891, Note_on_c, 12, 74, 0
14, 138900, Note_on_c, 12, 74, 76
14, 138900, Note_on_c, 12, 62, 76
14, 138951, Note_on_c, 12, 74, 0
14, 138951, Note_on_c, 12, 62, 0
14, 138960, Note_on_c, 12, 62, 76
14, 138960, Note_on_c, 12, 74, 76
14, 139011, Note_on_c, 12, 62, 0
14, 139011, Note_on_c, 12, 74, 0
14, 139020, Note_on_c, 12, 62, 76
14, 139020, Note_on_c, 12, 74, 76
14, 139071, Note_on_c, 12, 62, 0
14, 139071, Note_on_c, 12, 74, 0
14, 139080, Note_on_c, 12, 62, 76
14, 139080, Note_on_c, 12, 74, 76
14, 139131, Note_on_c, 12, 62, 0
14, 139131, Note_on_c, 12, 74, 0
14, 139140, Note_on_c, 12, 62, 76
14, 139140, Note_on_c, 12, 74, 76
14, 139191, Note_on_c, 12, 62, 0
14, 139191, Note_on_c, 12, 74, 0
14, 139200, Note_on_c, 12, 62, 84
14, 139200, Note_on_c, 12, 74, 84
14, 139251, Note_on_c, 12, 62, 0
14, 139251, Note_on_c, 12, 74, 0
14, 139260, Note_on_c, 12, 74, 76
14, 139260, Note_on_c, 12, 62, 76
14, 139311, Note_on_c, 12, 74, 0
14, 139311, Note_on_c, 12, 62, 0
14, 139320, Note_on_c, 12, 74, 76
14, 139320, Note_on_c, 12, 62, 76
14, 139371, Note_on_c, 12, 74, 0
14, 139371, Note_on_c, 12, 62, 0
14, 139380, Note_on_c, 12, 62, 76
14, 139380, Note_on_c, 12, 74, 76
14, 139431, Note_on_c, 12, 62, 0
14, 139431, Note_on_c, 12, 74, 0
14, 139440, Note_on_c, 12, 62, 76
14, 139440, Note_on_c, 12, 74, 76
14, 139491, Note_on_c, 12, 62, 0
14, 139491, Note_on_c, 12, 74, 0
14, 139500, Note_on_c, 12, 74, 76
14, 139500, Note_on_c, 12, 62, 76
14, 139551, Note_on_c, 12, 74, 0
14, 139551, Note_on_c, 12, 62, 0
14, 139560, Note_on_c, 12, 74, 76
14, 139560, Note_on_c, 12, 62, 76
14, 139611, Note_on_c, 12, 74, 0
14, 139611, Note_on_c, 12, 62, 0
14, 139620, Note_on_c, 12, 74, 76
14, 139620, Note_on_c, 12, 62, 76
14, 139671, Note_on_c, 12, 74, 0
14, 139671, Note_on_c, 12, 62, 0
14, 139680, Note_on_c, 12, 74, 76
14, 139680, Note_on_c, 12, 62, 76
14, 139731, Note_on_c, 12, 74, 0
14, 139731, Note_on_c, 12, 62, 0
14, 139740, Note_on_c, 12, 74, 76
14, 139740, Note_on_c, 12, 62, 76
14, 139791, Note_on_c, 12, 74, 0
14, 139791, Note_on_c, 12, 62, 0
14, 139800, Note_on_c, 12, 62, 76
14, 139800, Note_on_c, 12, 74, 76
14, 139851, Note_on_c, 12, 62, 0
14, 139851, Note_on_c, 12, 74, 0
14, 139860, Note_on_c, 12, 62, 76
14, 139860, Note_on_c, 12, 74, 76
14, 139911, Note_on_c, 12, 62, 0
14, 139911, Note_on_c, 12, 74, 0
14, 139920, Note_on_c, 12, 62, 76
14, 139920, Note_on_c, 12, 74, 76
14, 139971, Note_on_c, 12, 62, 0
14, 139971, Note_on_c, 12, 74, 0
14, 139980, Note_on_c, 12, 62, 76
14, 139980, Note_on_c, 12, 74, 76
14, 140031, Note_on_c, 12, 62, 0
14, 140031, Note_on_c, 12, 74, 0
14, 140040, Note_on_c, 12, 62, 76
14, 140040, Note_on_c, 12, 74, 76
14, 140091, Note_on_c, 12, 62, 0
14, 140091, Note_on_c, 12, 74, 0
14, 140100, Note_on_c, 12, 62, 76
14, 140100, Note_on_c, 12, 74, 76
14, 140151, Note_on_c, 12, 62, 0
14, 140151, Note_on_c, 12, 74, 0
14, 140160, Note_on_c, 12, 62, 76
14, 140160, Note_on_c, 12, 74, 76
14, 140211, Note_on_c, 12, 62, 0
14, 140211, Note_on_c, 12, 74, 0
14, 140220, Note_on_c, 12, 62, 76
14, 140220, Note_on_c, 12, 74, 76
14, 140271, Note_on_c, 12, 62, 0
14, 140271, Note_on_c, 12, 74, 0
14, 140280, Note_on_c, 12, 74, 76
14, 140280, Note_on_c, 12, 62, 76
14, 140331, Note_on_c, 12, 74, 0
14, 140331, Note_on_c, 12, 62, 0
14, 140340, Note_on_c, 12, 74, 76
14, 140340, Note_on_c, 12, 62, 76
14, 140391, Note_on_c, 12, 74, 0
14, 140391, Note_on_c, 12, 62, 0
14, 140400, Note_on_c, 12, 74, 76
14, 140400, Note_on_c, 12, 62, 76
14, 140451, Note_on_c, 12, 74, 0
14, 140451, Note_on_c, 12, 62, 0
14, 140460, Note_on_c, 12, 62, 76
14, 140460, Note_on_c, 12, 74, 76
14, 140511, Note_on_c, 12, 62, 0
14, 140511, Note_on_c, 12, 74, 0
14, 140520, Note_on_c, 12, 74, 76
14, 140520, Note_on_c, 12, 62, 76
14, 140571, Note_on_c, 12, 74, 0
14, 140571, Note_on_c, 12, 62, 0
14, 140580, Note_on_c, 12, 74, 76
14, 140580, Note_on_c, 12, 62, 76
14, 140631, Note_on_c, 12, 74, 0
14, 140631, Note_on_c, 12, 62, 0
14, 140640, Note_on_c, 12, 62, 76
14, 140640, Note_on_c, 12, 74, 76
14, 140691, Note_on_c, 12, 62, 0
14, 140691, Note_on_c, 12, 74, 0
14, 140700, Note_on_c, 12, 58, 76
14, 140700, Note_on_c, 12, 67, 76
14, 140751, Note_on_c, 12, 58, 0
14, 140751, Note_on_c, 12, 67, 0
14, 140760, Note_on_c, 12, 58, 76
14, 140760, Note_on_c, 12, 67, 76
14, 140811, Note_on_c, 12, 58, 0
14, 140811, Note_on_c, 12, 67, 0
14, 140820, Note_on_c, 12, 58, 76
14, 140820, Note_on_c, 12, 67, 76
14, 140871, Note_on_c, 12, 58, 0
14, 140871, Note_on_c, 12, 67, 0
14, 140880, Note_on_c, 12, 67, 76
14, 140880, Note_on_c, 12, 58, 76
14, 140931, Note_on_c, 12, 67, 0
14, 140931, Note_on_c, 12, 58, 0
14, 140940, Note_on_c, 12, 58, 76
14, 140940, Note_on_c, 12, 67, 76
14, 140991, Note_on_c, 12, 58, 0
14, 140991, Note_on_c, 12, 67, 0
14, 141000, Note_on_c, 12, 58, 76
14, 141000, Note_on_c, 12, 67, 76
14, 141051, Note_on_c, 12, 58, 0
14, 141051, Note_on_c, 12, 67, 0
14, 141060, Note_on_c, 12, 58, 76
14, 141060, Note_on_c, 12, 67, 76
14, 141111, Note_on_c, 12, 58, 0
14, 141111, Note_on_c, 12, 67, 0
14, 141120, Note_on_c, 12, 58, 76
14, 141120, Note_on_c, 12, 67, 76
14, 141171, Note_on_c, 12, 58, 0
14, 141171, Note_on_c, 12, 67, 0
14, 141180, Note_on_c, 12, 58, 76
14, 141180, Note_on_c, 12, 67, 76
14, 141231, Note_on_c, 12, 58, 0
14, 141231, Note_on_c, 12, 67, 0
14, 141240, Note_on_c, 12, 58, 76
14, 141240, Note_on_c, 12, 67, 76
14, 141291, Note_on_c, 12, 58, 0
14, 141291, Note_on_c, 12, 67, 0
14, 141300, Note_on_c, 12, 58, 76
14, 141300, Note_on_c, 12, 67, 76
14, 141351, Note_on_c, 12, 58, 0
14, 141351, Note_on_c, 12, 67, 0
14, 141360, Note_on_c, 12, 58, 76
14, 141360, Note_on_c, 12, 67, 76
14, 141411, Note_on_c, 12, 58, 0
14, 141411, Note_on_c, 12, 67, 0
14, 141420, Note_on_c, 12, 58, 76
14, 141420, Note_on_c, 12, 67, 76
14, 141471, Note_on_c, 12, 58, 0
14, 141471, Note_on_c, 12, 67, 0
14, 141480, Note_on_c, 12, 58, 76
14, 141480, Note_on_c, 12, 67, 76
14, 141531, Note_on_c, 12, 58, 0
14, 141531, Note_on_c, 12, 67, 0
14, 141540, Note_on_c, 12, 67, 76
14, 141540, Note_on_c, 12, 58, 76
14, 141591, Note_on_c, 12, 67, 0
14, 141591, Note_on_c, 12, 58, 0
14, 141600, Note_on_c, 12, 67, 76
14, 141600, Note_on_c, 12, 57, 76
14, 141651, Note_on_c, 12, 67, 0
14, 141651, Note_on_c, 12, 57, 0
14, 141660, Note_on_c, 12, 57, 76
14, 141660, Note_on_c, 12, 67, 76
14, 141711, Note_on_c, 12, 57, 0
14, 141711, Note_on_c, 12, 67, 0
14, 141720, Note_on_c, 12, 67, 76
14, 141720, Note_on_c, 12, 57, 76
14, 141771, Note_on_c, 12, 67, 0
14, 141771, Note_on_c, 12, 57, 0
14, 141780, Note_on_c, 12, 57, 76
14, 141780, Note_on_c, 12, 67, 76
14, 141831, Note_on_c, 12, 57, 0
14, 141831, Note_on_c, 12, 67, 0
14, 141840, Note_on_c, 12, 57, 76
14, 141840, Note_on_c, 12, 67, 76
14, 141891, Note_on_c, 12, 57, 0
14, 141891, Note_on_c, 12, 67, 0
14, 141900, Note_on_c, 12, 57, 76
14, 141900, Note_on_c, 12, 67, 76
14, 141951, Note_on_c, 12, 57, 0
14, 141951, Note_on_c, 12, 67, 0
14, 141960, Note_on_c, 12, 67, 76
14, 141960, Note_on_c, 12, 57, 76
14, 142011, Note_on_c, 12, 67, 0
14, 142011, Note_on_c, 12, 57, 0
14, 142020, Note_on_c, 12, 67, 76
14, 142020, Note_on_c, 12, 57, 76
14, 142071, Note_on_c, 12, 67, 0
14, 142071, Note_on_c, 12, 57, 0
14, 142080, Note_on_c, 12, 67, 76
14, 142080, Note_on_c, 12, 57, 76
14, 142131, Note_on_c, 12, 67, 0
14, 142131, Note_on_c, 12, 57, 0
14, 142140, Note_on_c, 12, 57, 76
14, 142140, Note_on_c, 12, 67, 76
14, 142191, Note_on_c, 12, 57, 0
14, 142191, Note_on_c, 12, 67, 0
14, 142200, Note_on_c, 12, 67, 76
14, 142200, Note_on_c, 12, 57, 76
14, 142251, Note_on_c, 12, 67, 0
14, 142251, Note_on_c, 12, 57, 0
14, 142260, Note_on_c, 12, 57, 76
14, 142260, Note_on_c, 12, 67, 76
14, 142311, Note_on_c, 12, 57, 0
14, 142311, Note_on_c, 12, 67, 0
14, 142320, Note_on_c, 12, 57, 76
14, 142320, Note_on_c, 12, 67, 76
14, 142371, Note_on_c, 12, 57, 0
14, 142371, Note_on_c, 12, 67, 0
14, 142380, Note_on_c, 12, 67, 76
14, 142380, Note_on_c, 12, 57, 76
14, 142431, Note_on_c, 12, 67, 0
14, 142431, Note_on_c, 12, 57, 0
14, 142440, Note_on_c, 12, 57, 76
14, 142440, Note_on_c, 12, 67, 76
14, 142491, Note_on_c, 12, 57, 0
14, 142491, Note_on_c, 12, 67, 0
14, 142500, Note_on_c, 12, 67, 76
14, 142500, Note_on_c, 12, 57, 76
14, 142551, Note_on_c, 12, 67, 0
14, 142551, Note_on_c, 12, 57, 0
14, 142560, Note_on_c, 12, 57, 76
14, 142560, Note_on_c, 12, 65, 76
14, 142611, Note_on_c, 12, 57, 0
14, 142611, Note_on_c, 12, 65, 0
14, 142620, Note_on_c, 12, 74, 76
14, 142620, Note_on_c, 12, 65, 76
14, 142671, Note_on_c, 12, 74, 0
14, 142671, Note_on_c, 12, 65, 0
14, 142680, Note_on_c, 12, 74, 76
14, 142680, Note_on_c, 12, 65, 76
14, 142731, Note_on_c, 12, 74, 0
14, 142731, Note_on_c, 12, 65, 0
14, 142740, Note_on_c, 12, 74, 76
14, 142740, Note_on_c, 12, 65, 76
14, 142791, Note_on_c, 12, 74, 0
14, 142791, Note_on_c, 12, 65, 0
14, 142800, Note_on_c, 12, 74, 76
14, 142800, Note_on_c, 12, 65, 76
14, 142851, Note_on_c, 12, 74, 0
14, 142851, Note_on_c, 12, 65, 0
14, 142860, Note_on_c, 12, 74, 76
14, 142860, Note_on_c, 12, 65, 76
14, 142911, Note_on_c, 12, 74, 0
14, 142911, Note_on_c, 12, 65, 0
14, 142920, Note_on_c, 12, 65, 76
14, 142920, Note_on_c, 12, 74, 76
14, 142971, Note_on_c, 12, 65, 0
14, 142971, Note_on_c, 12, 74, 0
14, 142980, Note_on_c, 12, 65, 76
14, 142980, Note_on_c, 12, 74, 76
14, 143031, Note_on_c, 12, 65, 0
14, 143031, Note_on_c, 12, 74, 0
14, 143040, Note_on_c, 12, 74, 84
14, 143040, Note_on_c, 12, 65, 84
14, 143091, Note_on_c, 12, 74, 0
14, 143091, Note_on_c, 12, 65, 0
14, 143100, Note_on_c, 12, 74, 76
14, 143100, Note_on_c, 12, 65, 76
14, 143151, Note_on_c, 12, 74, 0
14, 143151, Note_on_c, 12, 65, 0
14, 143160, Note_on_c, 12, 65, 76
14, 143160, Note_on_c, 12, 74, 76
14, 143211, Note_on_c, 12, 65, 0
14, 143211, Note_on_c, 12, 74, 0
14, 143220, Note_on_c, 12, 65, 76
14, 143220, Note_on_c, 12, 74, 76
14, 143271, Note_on_c, 12, 65, 0
14, 143271, Note_on_c, 12, 74, 0
14, 143280, Note_on_c, 12, 65, 76
14, 143280, Note_on_c, 12, 74, 76
14, 143331, Note_on_c, 12, 65, 0
14, 143331, Note_on_c, 12, 74, 0
14, 143340, Note_on_c, 12, 65, 76
14, 143340, Note_on_c, 12, 74, 76
14, 143391, Note_on_c, 12, 65, 0
14, 143391, Note_on_c, 12, 74, 0
14, 143400, Note_on_c, 12, 74, 76
14, 143400, Note_on_c, 12, 65, 76
14, 143451, Note_on_c, 12, 74, 0
14, 143451, Note_on_c, 12, 65, 0
14, 143460, Note_on_c, 12, 65, 76
14, 143460, Note_on_c, 12, 74, 76
14, 143511, Note_on_c, 12, 65, 0
14, 143511, Note_on_c, 12, 74, 0
14, 143520, Note_on_c, 12, 65, 76
14, 143520, Note_on_c, 12, 74, 76
14, 143571, Note_on_c, 12, 65, 0
14, 143571, Note_on_c, 12, 74, 0
14, 143580, Note_on_c, 12, 65, 76
14, 143580, Note_on_c, 12, 74, 76
14, 143631, Note_on_c, 12, 65, 0
14, 143631, Note_on_c, 12, 74, 0
14, 143640, Note_on_c, 12, 74, 76
14, 143640, Note_on_c, 12, 65, 76
14, 143691, Note_on_c, 12, 74, 0
14, 143691, Note_on_c, 12, 65, 0
14, 143700, Note_on_c, 12, 65, 76
14, 143700, Note_on_c, 12, 74, 76
14, 143751, Note_on_c, 12, 65, 0
14, 143751, Note_on_c, 12, 74, 0
14, 143760, Note_on_c, 12, 65, 76
14, 143760, Note_on_c, 12, 74, 76
14, 143811, Note_on_c, 12, 65, 0
14, 143811, Note_on_c, 12, 74, 0
14, 143820, Note_on_c, 12, 65, 76
14, 143820, Note_on_c, 12, 74, 76
14, 143871, Note_on_c, 12, 65, 0
14, 143871, Note_on_c, 12, 74, 0
14, 143880, Note_on_c, 12, 74, 76
14, 143880, Note_on_c, 12, 65, 76
14, 143931, Note_on_c, 12, 74, 0
14, 143931, Note_on_c, 12, 65, 0
14, 143940, Note_on_c, 12, 65, 76
14, 143940, Note_on_c, 12, 74, 76
14, 143991, Note_on_c, 12, 65, 0
14, 143991, Note_on_c, 12, 74, 0
14, 144000, Note_on_c, 12, 65, 76
14, 144000, Note_on_c, 12, 74, 76
14, 144051, Note_on_c, 12, 65, 0
14, 144051, Note_on_c, 12, 74, 0
14, 144060, Note_on_c, 12, 65, 76
14, 144060, Note_on_c, 12, 74, 76
14, 144111, Note_on_c, 12, 65, 0
14, 144111, Note_on_c, 12, 74, 0
14, 144120, Note_on_c, 12, 74, 76
14, 144120, Note_on_c, 12, 65, 76
14, 144171, Note_on_c, 12, 74, 0
14, 144171, Note_on_c, 12, 65, 0
14, 144180, Note_on_c, 12, 65, 76
14, 144180, Note_on_c, 12, 74, 76
14, 144231, Note_on_c, 12, 65, 0
14, 144231, Note_on_c, 12, 74, 0
14, 144240, Note_on_c, 12, 74, 76
14, 144240, Note_on_c, 12, 65, 76
14, 144291, Note_on_c, 12, 74, 0
14, 144291, Note_on_c, 12, 65, 0
14, 144300, Note_on_c, 12, 65, 76
14, 144300, Note_on_c, 12, 74, 76
14, 144351, Note_on_c, 12, 65, 0
14, 144351, Note_on_c, 12, 74, 0
14, 144360, Note_on_c, 12, 65, 76
14, 144360, Note_on_c, 12, 74, 76
14, 144411, Note_on_c, 12, 65, 0
14, 144411, Note_on_c, 12, 74, 0
14, 144420, Note_on_c, 12, 74, 76
14, 144420, Note_on_c, 12, 65, 76
14, 144471, Note_on_c, 12, 74, 0
14, 144471, Note_on_c, 12, 65, 0
14, 144480, Note_on_c, 12, 65, 76
14, 144480, Note_on_c, 12, 74, 76
14, 144531, Note_on_c, 12, 65, 0
14, 144531, Note_on_c, 12, 74, 0
14, 144540, Note_on_c, 12, 65, 76
14, 144540, Note_on_c, 12, 74, 76
14, 144591, Note_on_c, 12, 65, 0
14, 144591, Note_on_c, 12, 74, 0
14, 144600, Note_on_c, 12, 74, 76
14, 144600, Note_on_c, 12, 65, 76
14, 144651, Note_on_c, 12, 74, 0
14, 144651, Note_on_c, 12, 65, 0
14, 144660, Note_on_c, 12, 65, 76
14, 144660, Note_on_c, 12, 74, 76
14, 144711, Note_on_c, 12, 65, 0
14, 144711, Note_on_c, 12, 74, 0
14, 144720, Note_on_c, 12, 65, 76
14, 144720, Note_on_c, 12, 74, 76
14, 144771, Note_on_c, 12, 65, 0
14, 144771, Note_on_c, 12, 74, 0
14, 144780, Note_on_c, 12, 74, 76
14, 144780, Note_on_c, 12, 65, 76
14, 144831, Note_on_c, 12, 74, 0
14, 144831, Note_on_c, 12, 65, 0
14, 144840, Note_on_c, 12, 65, 76
14, 144840, Note_on_c, 12, 74, 76
14, 144891, Note_on_c, 12, 65, 0
14, 144891, Note_on_c, 12, 74, 0
14, 144900, Note_on_c, 12, 65, 76
14, 144900, Note_on_c, 12, 74, 76
14, 144951, Note_on_c, 12, 65, 0
14, 144951, Note_on_c, 12, 74, 0
14, 144960, Note_on_c, 12, 65, 84
14, 144960, Note_on_c, 12, 74, 84
14, 145011, Note_on_c, 12, 65, 0
14, 145011, Note_on_c, 12, 74, 0
14, 145020, Note_on_c, 12, 74, 76
14, 145020, Note_on_c, 12, 65, 76
14, 145071, Note_on_c, 12, 74, 0
14, 145071, Note_on_c, 12, 65, 0
14, 145080, Note_on_c, 12, 65, 76
14, 145080, Note_on_c, 12, 74, 76
14, 145131, Note_on_c, 12, 65, 0
14, 145131, Note_on_c, 12, 74, 0
14, 145140, Note_on_c, 12, 65, 76
14, 145140, Note_on_c, 12, 74, 76
14, 145191, Note_on_c, 12, 65, 0
14, 145191, Note_on_c, 12, 74, 0
14, 145200, Note_on_c, 12, 74, 76
14, 145200, Note_on_c, 12, 65, 76
14, 145251, Note_on_c, 12, 74, 0
14, 145251, Note_on_c, 12, 65, 0
14, 145260, Note_on_c, 12, 74, 76
14, 145260, Note_on_c, 12, 65, 76
14, 145311, Note_on_c, 12, 74, 0
14, 145311, Note_on_c, 12, 65, 0
14, 145320, Note_on_c, 12, 65, 76
14, 145320, Note_on_c, 12, 74, 76
14, 145371, Note_on_c, 12, 65, 0
14, 145371, Note_on_c, 12, 74, 0
14, 145380, Note_on_c, 12, 65, 76
14, 145380, Note_on_c, 12, 74, 76
14, 145431, Note_on_c, 12, 65, 0
14, 145431, Note_on_c, 12, 74, 0
14, 145440, Note_on_c, 12, 65, 84
14, 145440, Note_on_c, 12, 74, 84
14, 145491, Note_on_c, 12, 65, 0
14, 145491, Note_on_c, 12, 74, 0
14, 145500, Note_on_c, 12, 74, 76
14, 145500, Note_on_c, 12, 65, 76
14, 145551, Note_on_c, 12, 74, 0
14, 145551, Note_on_c, 12, 65, 0
14, 145560, Note_on_c, 12, 74, 76
14, 145560, Note_on_c, 12, 65, 76
14, 145611, Note_on_c, 12, 74, 0
14, 145611, Note_on_c, 12, 65, 0
14, 145620, Note_on_c, 12, 65, 76
14, 145620, Note_on_c, 12, 74, 76
14, 145671, Note_on_c, 12, 65, 0
14, 145671, Note_on_c, 12, 74, 0
14, 145680, Note_on_c, 12, 65, 76
14, 145680, Note_on_c, 12, 74, 76
14, 145731, Note_on_c, 12, 65, 0
14, 145731, Note_on_c, 12, 74, 0
14, 145740, Note_on_c, 12, 65, 76
14, 145740, Note_on_c, 12, 74, 76
14, 145791, Note_on_c, 12, 65, 0
14, 145791, Note_on_c, 12, 74, 0
14, 145800, Note_on_c, 12, 65, 76
14, 145800, Note_on_c, 12, 74, 76
14, 145851, Note_on_c, 12, 65, 0
14, 145851, Note_on_c, 12, 74, 0
14, 145860, Note_on_c, 12, 65, 76
14, 145860, Note_on_c, 12, 74, 76
14, 145911, Note_on_c, 12, 65, 0
14, 145911, Note_on_c, 12, 74, 0
14, 145920, Note_on_c, 12, 65, 84
14, 145920, Note_on_c, 12, 74, 84
14, 145971, Note_on_c, 12, 65, 0
14, 145971, Note_on_c, 12, 74, 0
14, 145980, Note_on_c, 12, 65, 76
14, 145980, Note_on_c, 12, 74, 76
14, 146031, Note_on_c, 12, 65, 0
14, 146031, Note_on_c, 12, 74, 0
14, 146040, Note_on_c, 12, 65, 76
14, 146040, Note_on_c, 12, 74, 76
14, 146091, Note_on_c, 12, 65, 0
14, 146091, Note_on_c, 12, 74, 0
14, 146100, Note_on_c, 12, 74, 76
14, 146100, Note_on_c, 12, 65, 76
14, 146151, Note_on_c, 12, 74, 0
14, 146151, Note_on_c, 12, 65, 0
14, 146160, Note_on_c, 12, 65, 76
14, 146160, Note_on_c, 12, 74, 76
14, 146211, Note_on_c, 12, 65, 0
14, 146211, Note_on_c, 12, 74, 0
14, 146220, Note_on_c, 12, 65, 76
14, 146220, Note_on_c, 12, 74, 76
14, 146271, Note_on_c, 12, 65, 0
14, 146271, Note_on_c, 12, 74, 0
14, 146280, Note_on_c, 12, 74, 76
14, 146280, Note_on_c, 12, 65, 76
14, 146331, Note_on_c, 12, 74, 0
14, 146331, Note_on_c, 12, 65, 0
14, 146340, Note_on_c, 12, 65, 76
14, 146340, Note_on_c, 12, 74, 76
14, 146391, Note_on_c, 12, 65, 0
14, 146391, Note_on_c, 12, 74, 0
14, 146400, Note_on_c, 12, 76, 84
14, 146984, Note_on_c, 12, 76, 0
14, 147000, Note_on_c, 12, 77, 84
14, 147089, Note_on_c, 12, 77, 0
14, 147120, Note_on_c, 12, 76, 84
14, 147209, Note_on_c, 12, 76, 0
14, 147240, Note_on_c, 12, 74, 84
14, 147329, Note_on_c, 12, 74, 0
14, 147360, Note_on_c, 12, 72, 84
14, 147449, Note_on_c, 12, 72, 0
14, 147480, Note_on_c, 12, 71, 84
14, 147569, Note_on_c, 12, 71, 0
14, 147600, Note_on_c, 12, 69, 84
14, 147689, Note_on_c, 12, 69, 0
14, 147720, Note_on_c, 12, 68, 84
14, 147809, Note_on_c, 12, 68, 0
14, 147840, Note_on_c, 12, 69, 84
14, 147929, Note_on_c, 12, 69, 0
14, 147960, Note_on_c, 12, 72, 84
14, 148049, Note_on_c, 12, 72, 0
14, 148080, Note_on_c, 12, 71, 84
14, 148169, Note_on_c, 12, 71, 0
14, 148200, Note_on_c, 12, 69, 84
14, 148289, Note_on_c, 12, 69, 0
14, 148320, Note_on_c, 12, 68, 84
14, 148409, Note_on_c, 12, 68, 0
14, 148440, Note_on_c, 12, 63, 84
14, 148529, Note_on_c, 12, 63, 0
14, 148560, Note_on_c, 12, 64, 84
14, 148649, Note_on_c, 12, 64, 0
14, 148680, Note_on_c, 12, 63, 84
14, 148769, Note_on_c, 12, 63, 0
14, 148800, Note_on_c, 12, 64, 84
14, 148889, Note_on_c, 12, 64, 0
14, 148920, Note_on_c, 12, 66, 84
14, 149009, Note_on_c, 12, 66, 0
14, 149040, Note_on_c, 12, 67, 84
14, 149129, Note_on_c, 12, 67, 0
14, 149160, Note_on_c, 12, 68, 84
14, 149249, Note_on_c, 12, 68, 0
14, 149280, Note_on_c, 12, 69, 84
14, 149369, Note_on_c, 12, 69, 0
14, 149400, Note_on_c, 12, 68, 84
14, 149489, Note_on_c, 12, 68, 0
14, 149520, Note_on_c, 12, 69, 84
14, 149609, Note_on_c, 12, 69, 0
14, 149640, Note_on_c, 12, 71, 84
14, 149729, Note_on_c, 12, 71, 0
14, 149760, Note_on_c, 12, 72, 84
14, 149849, Note_on_c, 12, 72, 0
14, 149880, Note_on_c, 12, 73, 84
14, 149969, Note_on_c, 12, 73, 0
14, 150000, Note_on_c, 12, 74, 84
14, 150089, Note_on_c, 12, 74, 0
14, 150120, Note_on_c, 12, 75, 84
14, 150209, Note_on_c, 12, 75, 0
14, 150240, Note_on_c, 12, 76, 84
14, 150419, Note_on_c, 12, 76, 0
14, 150480, Note_on_c, 12, 76, 92
14, 150824, Note_on_c, 12, 76, 0
14, 150840, Note_on_c, 12, 77, 84
14, 150929, Note_on_c, 12, 77, 0
14, 150960, Note_on_c, 12, 76, 84
14, 151049, Note_on_c, 12, 76, 0
14, 151080, Note_on_c, 12, 74, 84
14, 151169, Note_on_c, 12, 74, 0
14, 151200, Note_on_c, 12, 72, 84
14, 151289, Note_on_c, 12, 72, 0
14, 151320, Note_on_c, 12, 71, 84
14, 151409, Note_on_c, 12, 71, 0
14, 151440, Note_on_c, 12, 69, 84
14, 151529, Note_on_c, 12, 69, 0
14, 151560, Note_on_c, 12, 68, 84
14, 151649, Note_on_c, 12, 68, 0
14, 151680, Note_on_c, 12, 69, 84
14, 151769, Note_on_c, 12, 69, 0
14, 151800, Note_on_c, 12, 72, 84
14, 151889, Note_on_c, 12, 72, 0
14, 151920, Note_on_c, 12, 71, 84
14, 152009, Note_on_c, 12, 71, 0
14, 152040, Note_on_c, 12, 69, 84
14, 152129, Note_on_c, 12, 69, 0
14, 152160, Note_on_c, 12, 68, 84
14, 152211, Note_on_c, 12, 68, 0
14, 152220, Note_on_c, 12, 68, 84
14, 152271, Note_on_c, 12, 68, 0
14, 152280, Note_on_c, 12, 63, 84
14, 152331, Note_on_c, 12, 63, 0
14, 152340, Note_on_c, 12, 63, 84
14, 152391, Note_on_c, 12, 63, 0
14, 152400, Note_on_c, 12, 64, 84
14, 152451, Note_on_c, 12, 64, 0
14, 152460, Note_on_c, 12, 64, 84
14, 152511, Note_on_c, 12, 64, 0
14, 152520, Note_on_c, 12, 63, 84
14, 152571, Note_on_c, 12, 63, 0
14, 152580, Note_on_c, 12, 63, 84
14, 152631, Note_on_c, 12, 63, 0
14, 152640, Note_on_c, 12, 64, 84
14, 152691, Note_on_c, 12, 64, 0
14, 152700, Note_on_c, 12, 64, 84
14, 152751, Note_on_c, 12, 64, 0
14, 152760, Note_on_c, 12, 66, 84
14, 152811, Note_on_c, 12, 66, 0
14, 152820, Note_on_c, 12, 66, 84
14, 152871, Note_on_c, 12, 66, 0
14, 152880, Note_on_c, 12, 67, 84
14, 152931, Note_on_c, 12, 67, 0
14, 152940, Note_on_c, 12, 67, 84
14, 152991, Note_on_c, 12, 67, 0
14, 153000, Note_on_c, 12, 68, 84
14, 153051, Note_on_c, 12, 68, 0
14, 153060, Note_on_c, 12, 68, 84
14, 153111, Note_on_c, 12, 68, 0
14, 153120, Note_on_c, 12, 69, 84
14, 153171, Note_on_c, 12, 69, 0
14, 153180, Note_on_c, 12, 69, 84
14, 153231, Note_on_c, 12, 69, 0
14, 153240, Note_on_c, 12, 68, 84
14, 153291, Note_on_c, 12, 68, 0
14, 153300, Note_on_c, 12, 68, 84
14, 153351, Note_on_c, 12, 68, 0
14, 153360, Note_on_c, 12, 69, 84
14, 153411, Note_on_c, 12, 69, 0
14, 153420, Note_on_c, 12, 69, 84
14, 153471, Note_on_c, 12, 69, 0
14, 153480, Note_on_c, 12, 71, 84
14, 153531, Note_on_c, 12, 71, 0
14, 153540, Note_on_c, 12, 71, 84
14, 153591, Note_on_c, 12, 71, 0
14, 153600, Note_on_c, 12, 72, 84
14, 153651, Note_on_c, 12, 72, 0
14, 153660, Note_on_c, 12, 72, 84
14, 153711, Note_on_c, 12, 72, 0
14, 153720, Note_on_c, 12, 73, 84
14, 153771, Note_on_c, 12, 73, 0
14, 153780, Note_on_c, 12, 73, 84
14, 153831, Note_on_c, 12, 73, 0
14, 153840, Note_on_c, 12, 74, 84
14, 153891, Note_on_c, 12, 74, 0
14, 153900, Note_on_c, 12, 74, 84
14, 153951, Note_on_c, 12, 74, 0
14, 153960, Note_on_c, 12, 75, 84
14, 154011, Note_on_c, 12, 75, 0
14, 154020, Note_on_c, 12, 75, 84
14, 154071, Note_on_c, 12, 75, 0
14, 154080, Note_on_c, 12, 76, 92
14, 154131, Note_on_c, 12, 76, 0
14, 154140, Note_on_c, 12, 68, 84
14, 154191, Note_on_c, 12, 68, 0
14, 154200, Note_on_c, 12, 68, 84
14, 154251, Note_on_c, 12, 68, 0
14, 154260, Note_on_c, 12, 68, 84
14, 154311, Note_on_c, 12, 68, 0
14, 154320, Note_on_c, 12, 68, 84
14, 154371, Note_on_c, 12, 68, 0
14, 154380, Note_on_c, 12, 68, 84
14, 154431, Note_on_c, 12, 68, 0
14, 154440, Note_on_c, 12, 69, 84
14, 154491, Note_on_c, 12, 69, 0
14, 154500, Note_on_c, 12, 69, 84
14, 154551, Note_on_c, 12, 69, 0
14, 154560, Note_on_c, 12, 68, 92
14, 154611, Note_on_c, 12, 68, 0
14, 154620, Note_on_c, 12, 68, 84
14, 154671, Note_on_c, 12, 68, 0
14, 154680, Note_on_c, 12, 68, 84
14, 154731, Note_on_c, 12, 68, 0
14, 154740, Note_on_c, 12, 68, 84
14, 154791, Note_on_c, 12, 68, 0
14, 154800, Note_on_c, 12, 68, 84
14, 154851, Note_on_c, 12, 68, 0
14, 154860, Note_on_c, 12, 68, 84
14, 154911, Note_on_c, 12, 68, 0
14, 154920, Note_on_c, 12, 69, 84
14, 154971, Note_on_c, 12, 69, 0
14, 154980, Note_on_c, 12, 69, 84
14, 155031, Note_on_c, 12, 69, 0
14, 155040, Note_on_c, 12, 68, 84
14, 155091, Note_on_c, 12, 68, 0
14, 155100, Note_on_c, 12, 68, 84
14, 155151, Note_on_c, 12, 68, 0
14, 155160, Note_on_c, 12, 69, 84
14, 155211, Note_on_c, 12, 69, 0
14, 155220, Note_on_c, 12, 69, 84
14, 155271, Note_on_c, 12, 69, 0
14, 155280, Note_on_c, 12, 68, 84
14, 155331, Note_on_c, 12, 68, 0
14, 155340, Note_on_c, 12, 68, 84
14, 155391, Note_on_c, 12, 68, 0
14, 155400, Note_on_c, 12, 69, 84
14, 155451, Note_on_c, 12, 69, 0
14, 155460, Note_on_c, 12, 69, 84
14, 155511, Note_on_c, 12, 69, 0
14, 155520, Note_on_c, 12, 68, 84
14, 155571, Note_on_c, 12, 68, 0
14, 155580, Note_on_c, 12, 68, 84
14, 155631, Note_on_c, 12, 68, 0
14, 155640, Note_on_c, 12, 69, 84
14, 155691, Note_on_c, 12, 69, 0
14, 155700, Note_on_c, 12, 69, 84
14, 155751, Note_on_c, 12, 69, 0
14, 155760, Note_on_c, 12, 68, 84
14, 155811, Note_on_c, 12, 68, 0
14, 155820, Note_on_c, 12, 68, 84
14, 155871, Note_on_c, 12, 68, 0
14, 155880, Note_on_c, 12, 69, 84
14, 155931, Note_on_c, 12, 69, 0
14, 155940, Note_on_c, 12, 69, 84
14, 155991, Note_on_c, 12, 69, 0
14, 156000, Note_on_c, 12, 68, 84
14, 156239, Note_on_c, 12, 68, 0
14, 156240, Note_on_c, 12, 76, 92
14, 156704, Note_on_c, 12, 76, 0
14, 156720, Note_on_c, 12, 75, 84
14, 156899, Note_on_c, 12, 75, 0
14, 156960, Note_on_c, 12, 74, 84
14, 157139, Note_on_c, 12, 74, 0
14, 157200, Note_on_c, 12, 73, 84
14, 157379, Note_on_c, 12, 73, 0
14, 157440, Note_on_c, 12, 71, 84
14, 157619, Note_on_c, 12, 71, 0
14, 157680, Note_on_c, 12, 76, 84
14, 157859, Note_on_c, 12, 76, 0
14, 157920, Note_on_c, 12, 69, 52
14, 158099, Note_on_c, 12, 69, 0
14, 161760, Note_on_c, 12, 69, 84
14, 162224, Note_on_c, 12, 69, 0
14, 162240, Note_on_c, 12, 73, 84
14, 162651, Note_on_c, 12, 73, 0
14, 162660, Note_on_c, 12, 78, 84
14, 162711, Note_on_c, 12, 78, 0
14, 162720, Note_on_c, 12, 81, 92
14, 163424, Note_on_c, 12, 81, 0
14, 163440, Note_on_c, 12, 73, 84
14, 163619, Note_on_c, 12, 73, 0
14, 163620, Note_on_c, 12, 69, 84
14, 163671, Note_on_c, 12, 69, 0
14, 163680, Note_on_c, 12, 80, 92
14, 163859, Note_on_c, 12, 80, 0
14, 163920, Note_on_c, 12, 71, 84
14, 164099, Note_on_c, 12, 71, 0
14, 164100, Note_on_c, 12, 68, 84
14, 164151, Note_on_c, 12, 68, 0
14, 164160, Note_on_c, 12, 78, 92
14, 164339, Note_on_c, 12, 78, 0
14, 164400, Note_on_c, 12, 69, 84
14, 164579, Note_on_c, 12, 69, 0
14, 164580, Note_on_c, 12, 66, 84
14, 164631, Note_on_c, 12, 66, 0
14, 164640, Note_on_c, 12, 68, 84
14, 164879, Note_on_c, 12, 68, 0
14, 165840, Note_on_c, 12, 69, 52
14, 165899, Note_on_c, 12, 69, 0
14, 165900, Note_on_c, 12, 68, 52
14, 165959, Note_on_c, 12, 68, 0
14, 165960, Note_on_c, 12, 69, 52
14, 166019, Note_on_c, 12, 69, 0
14, 166020, Note_on_c, 12, 68, 52
14, 166079, Note_on_c, 12, 68, 0
14, 166080, Note_on_c, 12, 69, 52
14, 166139, Note_on_c, 12, 69, 0
14, 166140, Note_on_c, 12, 68, 52
14, 166199, Note_on_c, 12, 68, 0
14, 166200, Note_on_c, 12, 69, 52
14, 166259, Note_on_c, 12, 69, 0
14, 166260, Note_on_c, 12, 68, 52
14, 166319, Note_on_c, 12, 68, 0
14, 166320, Note_on_c, 12, 69, 52
14, 166379, Note_on_c, 12, 69, 0
14, 166380, Note_on_c, 12, 68, 52
14, 166439, Note_on_c, 12, 68, 0
14, 166440, Note_on_c, 12, 69, 52
14, 166499, Note_on_c, 12, 69, 0
14, 166500, Note_on_c, 12, 68, 52
14, 166551, Note_on_c, 12, 68, 0
14, 166560, Note_on_c, 12, 69, 52
14, 166619, Note_on_c, 12, 69, 0
14, 166620, Note_on_c, 12, 68, 52
14, 166679, Note_on_c, 12, 68, 0
14, 166680, Note_on_c, 12, 69, 52
14, 166739, Note_on_c, 12, 69, 0
14, 166740, Note_on_c, 12, 68, 52
14, 166799, Note_on_c, 12, 68, 0
14, 166800, Note_on_c, 12, 69, 52
14, 166859, Note_on_c, 12, 69, 0
14, 166860, Note_on_c, 12, 68, 52
14, 166919, Note_on_c, 12, 68, 0
14, 166920, Note_on_c, 12, 69, 52
14, 166979, Note_on_c, 12, 69, 0
14, 166980, Note_on_c, 12, 68, 52
14, 167039, Note_on_c, 12, 68, 0
14, 167040, Note_on_c, 12, 69, 52
14, 167099, Note_on_c, 12, 69, 0
14, 167100, Note_on_c, 12, 68, 52
14, 167159, Note_on_c, 12, 68, 0
14, 167160, Note_on_c, 12, 69, 52
14, 167219, Note_on_c, 12, 69, 0
14, 167220, Note_on_c, 12, 68, 52
14, 167279, Note_on_c, 12, 68, 0
14, 167280, Note_on_c, 12, 69, 52
14, 167339, Note_on_c, 12, 69, 0
14, 167340, Note_on_c, 12, 68, 52
14, 167399, Note_on_c, 12, 68, 0
14, 167400, Note_on_c, 12, 69, 52
14, 167459, Note_on_c, 12, 69, 0
14, 167460, Note_on_c, 12, 68, 52
14, 167511, Note_on_c, 12, 68, 0
14, 167520, Note_on_c, 12, 69, 52
14, 167579, Note_on_c, 12, 69, 0
14, 167580, Note_on_c, 12, 68, 52
14, 167639, Note_on_c, 12, 68, 0
14, 167640, Note_on_c, 12, 69, 52
14, 167699, Note_on_c, 12, 69, 0
14, 167700, Note_on_c, 12, 68, 52
14, 167759, Note_on_c, 12, 68, 0
14, 167760, Note_on_c, 12, 69, 52
14, 167819, Note_on_c, 12, 69, 0
14, 167820, Note_on_c, 12, 68, 52
14, 167879, Note_on_c, 12, 68, 0
14, 167880, Note_on_c, 12, 69, 52
14, 167939, Note_on_c, 12, 69, 0
14, 167940, Note_on_c, 12, 68, 52
14, 167999, Note_on_c, 12, 68, 0
14, 168000, Note_on_c, 12, 69, 52
14, 168059, Note_on_c, 12, 69, 0
14, 168060, Note_on_c, 12, 68, 52
14, 168119, Note_on_c, 12, 68, 0
14, 168120, Note_on_c, 12, 69, 52
14, 168179, Note_on_c, 12, 69, 0
14, 168180, Note_on_c, 12, 68, 52
14, 168239, Note_on_c, 12, 68, 0
14, 168240, Note_on_c, 12, 69, 52
14, 168299, Note_on_c, 12, 69, 0
14, 168300, Note_on_c, 12, 68, 52
14, 168359, Note_on_c, 12, 68, 0
14, 168360, Note_on_c, 12, 69, 52
14, 168419, Note_on_c, 12, 69, 0
14, 168420, Note_on_c, 12, 68, 52
14, 168471, Note_on_c, 12, 68, 0
14, 168480, Note_on_c, 12, 69, 52
14, 168539, Note_on_c, 12, 69, 0
14, 168540, Note_on_c, 12, 68, 52
14, 168599, Note_on_c, 12, 68, 0
14, 168600, Note_on_c, 12, 69, 52
14, 168659, Note_on_c, 12, 69, 0
14, 168660, Note_on_c, 12, 68, 52
14, 168719, Note_on_c, 12, 68, 0
14, 168720, Note_on_c, 12, 69, 52
14, 168779, Note_on_c, 12, 69, 0
14, 168780, Note_on_c, 12, 68, 52
14, 168839, Note_on_c, 12, 68, 0
14, 168840, Note_on_c, 12, 69, 52
14, 168899, Note_on_c, 12, 69, 0
14, 168900, Note_on_c, 12, 68, 52
14, 168959, Note_on_c, 12, 68, 0
14, 168960, Note_on_c, 12, 69, 76
14, 169049, Note_on_c, 12, 69, 0
14, 169080, Note_on_c, 12, 61, 76
14, 169169, Note_on_c, 12, 61, 0
14, 169200, Note_on_c, 12, 66, 76
14, 169289, Note_on_c, 12, 66, 0
14, 169320, Note_on_c, 12, 69, 76
14, 169409, Note_on_c, 12, 69, 0
14, 169440, Note_on_c, 12, 73, 84
14, 169529, Note_on_c, 12, 73, 0
14, 169560, Note_on_c, 12, 57, 84
14, 169649, Note_on_c, 12, 57, 0
14, 169680, Note_on_c, 12, 61, 84
14, 169769, Note_on_c, 12, 61, 0
14, 169800, Note_on_c, 12, 66, 84
14, 169889, Note_on_c, 12, 66, 0
14, 169920, Note_on_c, 12, 69, 84
14, 170009, Note_on_c, 12, 69, 0
14, 170040, Note_on_c, 12, 69, 84
14, 170129, Note_on_c, 12, 69, 0
14, 170160, Note_on_c, 12, 73, 84
14, 170249, Note_on_c, 12, 73, 0
14, 170280, Note_on_c, 12, 78, 84
14, 170369, Note_on_c, 12, 78, 0
14, 170400, Note_on_c, 12, 81, 92
14, 171104, Note_on_c, 12, 81, 0
14, 171120, Note_on_c, 12, 73, 84
14, 171299, Note_on_c, 12, 73, 0
14, 171300, Note_on_c, 12, 69, 84
14, 171351, Note_on_c, 12, 69, 0
14, 171360, Note_on_c, 12, 80, 92
14, 171449, Note_on_c, 12, 80, 0
14, 171480, Note_on_c, 12, 80, 84
14, 171599, Note_on_c, 12, 80, 0
14, 171600, Note_on_c, 12, 71, 84
14, 171719, Note_on_c, 12, 71, 0
14, 171720, Note_on_c, 12, 68, 84
14, 171824, Note_on_c, 12, 68, 0
14, 171840, Note_on_c, 12, 78, 92
14, 171929, Note_on_c, 12, 78, 0
14, 171960, Note_on_c, 12, 78, 84
14, 172079, Note_on_c, 12, 78, 0
14, 172080, Note_on_c, 12, 69, 84
14, 172199, Note_on_c, 12, 69, 0
14, 172200, Note_on_c, 12, 66, 84
14, 172304, Note_on_c, 12, 66, 0
14, 172320, Note_on_c, 12, 68, 84
14, 172424, Note_on_c, 12, 68, 0
14, 172440, Note_on_c, 12, 76, 84
14, 172440, Note_on_c, 12, 64, 84
14, 172664, Note_on_c, 12, 76, 0
14, 172664, Note_on_c, 12, 64, 0
14, 172680, Note_on_c, 12, 76, 84
14, 172680, Note_on_c, 12, 64, 84
14, 172904, Note_on_c, 12, 76, 0
14, 172904, Note_on_c, 12, 64, 0
14, 172920, Note_on_c, 12, 76, 84
14, 172920, Note_on_c, 12, 64, 84
14, 173144, Note_on_c, 12, 76, 0
14, 173144, Note_on_c, 12, 64, 0
14, 173160, Note_on_c, 12, 76, 84
14, 173160, Note_on_c, 12, 64, 84
14, 173384, Note_on_c, 12, 76, 0
14, 173384, Note_on_c, 12, 64, 0
14, 173400, Note_on_c, 12, 76, 84
14, 173400, Note_on_c, 12, 64, 84
14, 173624, Note_on_c, 12, 76, 0
14, 173624, Note_on_c, 12, 64, 0
14, 173640, Note_on_c, 12, 64, 84
14, 173640, Note_on_c, 12, 76, 84
14, 173864, Note_on_c, 12, 64, 0
14, 173864, Note_on_c, 12, 76, 0
14, 173880, Note_on_c, 12, 76, 84
14, 173880, Note_on_c, 12, 64, 84
14, 174104, Note_on_c, 12, 76, 0
14, 174104, Note_on_c, 12, 64, 0
14, 174120, Note_on_c, 12, 76, 84
14, 174120, Note_on_c, 12, 64, 84
14, 174344, Note_on_c, 12, 76, 0
14, 174344, Note_on_c, 12, 64, 0
14, 174360, Note_on_c, 12, 76, 84
14, 174360, Note_on_c, 12, 64, 84
14, 174584, Note_on_c, 12, 76, 0
14, 174584, Note_on_c, 12, 64, 0
14, 174600, Note_on_c, 12, 64, 84
14, 174600, Note_on_c, 12, 76, 84
14, 174824, Note_on_c, 12, 64, 0
14, 174824, Note_on_c, 12, 76, 0
14, 174840, Note_on_c, 12, 76, 84
14, 174840, Note_on_c, 12, 64, 84
14, 175064, Note_on_c, 12, 76, 0
14, 175064, Note_on_c, 12, 64, 0
14, 175080, Note_on_c, 12, 64, 84
14, 175080, Note_on_c, 12, 76, 84
14, 175304, Note_on_c, 12, 64, 0
14, 175304, Note_on_c, 12, 76, 0
14, 175320, Note_on_c, 12, 76, 84
14, 175320, Note_on_c, 12, 64, 84
14, 175544, Note_on_c, 12, 76, 0
14, 175544, Note_on_c, 12, 64, 0
14, 175560, Note_on_c, 12, 64, 84
14, 175560, Note_on_c, 12, 76, 84
14, 175784, Note_on_c, 12, 64, 0
14, 175784, Note_on_c, 12, 76, 0
14, 175800, Note_on_c, 12, 64, 84
14, 175800, Note_on_c, 12, 76, 84
14, 176024, Note_on_c, 12, 64, 0
14, 176024, Note_on_c, 12, 76, 0
14, 176040, Note_on_c, 12, 64, 84
14, 176040, Note_on_c, 12, 76, 84
14, 176264, Note_on_c, 12, 64, 0
14, 176264, Note_on_c, 12, 76, 0
14, 176280, Note_on_c, 12, 76, 84
14, 176280, Note_on_c, 12, 64, 84
14, 176504, Note_on_c, 12, 76, 0
14, 176504, Note_on_c, 12, 64, 0
14, 176520, Note_on_c, 12, 76, 84
14, 176520, Note_on_c, 12, 64, 84
14, 176744, Note_on_c, 12, 76, 0
14, 176744, Note_on_c, 12, 64, 0
14, 176760, Note_on_c, 12, 64, 84
14, 176760, Note_on_c, 12, 76, 84
14, 176984, Note_on_c, 12, 64, 0
14, 176984, Note_on_c, 12, 76, 0
14, 177000, Note_on_c, 12, 76, 84
14, 177000, Note_on_c, 12, 64, 84
14, 177224, Note_on_c, 12, 76, 0
14, 177224, Note_on_c, 12, 64, 0
14, 177240, Note_on_c, 12, 76, 84
14, 177240, Note_on_c, 12, 64, 84
14, 177464, Note_on_c, 12, 76, 0
14, 177464, Note_on_c, 12, 64, 0
14, 177480, Note_on_c, 12, 64, 84
14, 177480, Note_on_c, 12, 76, 84
14, 177704, Note_on_c, 12, 64, 0
14, 177704, Note_on_c, 12, 76, 0
14, 177720, Note_on_c, 12, 76, 84
14, 177720, Note_on_c, 12, 64, 84
14, 177944, Note_on_c, 12, 76, 0
14, 177944, Note_on_c, 12, 64, 0
14, 177960, Note_on_c, 12, 76, 84
14, 177960, Note_on_c, 12, 64, 84
14, 178184, Note_on_c, 12, 76, 0
14, 178184, Note_on_c, 12, 64, 0
14, 178200, Note_on_c, 12, 73, 84
14, 178424, Note_on_c, 12, 73, 0
14, 178440, Note_on_c, 12, 73, 84
14, 178664, Note_on_c, 12, 73, 0
14, 178680, Note_on_c, 12, 73, 84
14, 178904, Note_on_c, 12, 73, 0
14, 178920, Note_on_c, 12, 73, 84
14, 179144, Note_on_c, 12, 73, 0
14, 179160, Note_on_c, 12, 81, 84
14, 179160, Note_on_c, 12, 69, 84
14, 179384, Note_on_c, 12, 81, 0
14, 179384, Note_on_c, 12, 69, 0
14, 179400, Note_on_c, 12, 81, 84
14, 179400, Note_on_c, 12, 69, 84
14, 179624, Note_on_c, 12, 81, 0
14, 179624, Note_on_c, 12, 69, 0
14, 179640, Note_on_c, 12, 69, 84
14, 179640, Note_on_c, 12, 81, 84
14, 179864, Note_on_c, 12, 69, 0
14, 179864, Note_on_c, 12, 81, 0
14, 179880, Note_on_c, 12, 69, 84
14, 179880, Note_on_c, 12, 81, 84
14, 180209, Note_on_c, 12, 69, 0
14, 180209, Note_on_c, 12, 81, 0
14, 180960, Note_on_c, 12, 74, 84
14, 180960, Note_on_c, 12, 66, 84
14, 180960, Note_on_c, 12, 83, 84
14, 181139, Note_on_c, 12, 74, 0
14, 181139, Note_on_c, 12, 66, 0
14, 181139, Note_on_c, 12, 83, 0
14, 181920, Note_on_c, 12, 83, 84
14, 181920, Note_on_c, 12, 74, 84
14, 181920, Note_on_c, 12, 64, 84
14, 182159, Note_on_c, 12, 83, 0
14, 182159, Note_on_c, 12, 74, 0
14, 182159, Note_on_c, 12, 64, 0
14, 182400, Note_on_c, 12, 81, 84
14, 182400, Note_on_c, 12, 64, 84
14, 182400, Note_on_c, 12, 73, 84
14, 182639, Note_on_c, 12, 81, 0
14, 182639, Note_on_c, 12, 64, 0
14, 182639, Note_on_c, 12, 73, 0
14, 182880, Note_on_c, 12, 66, 84
14, 182880, Note_on_c, 12, 83, 84
14, 182880, Note_on_c, 12, 74, 84
14, 183119, Note_on_c, 12, 66, 0
14, 183119, Note_on_c, 12, 83, 0
14, 183119, Note_on_c, 12, 74, 0
14, 183360, Note_on_c, 12, 71, 84
14, 183360, Note_on_c, 12, 80, 84
14, 183360, Note_on_c, 12, 64, 84
14, 183599, Note_on_c, 12, 71, 0
14, 183599, Note_on_c, 12, 80, 0
14, 183599, Note_on_c, 12, 64, 0
14, 183840, Note_on_c, 12, 74, 84
14, 183840, Note_on_c, 12, 66, 84
14, 183840, Note_on_c, 12, 81, 84
14, 184079, Note_on_c, 12, 74, 0
14, 184079, Note_on_c, 12, 66, 0
14, 184079, Note_on_c, 12, 81, 0
14, 184800, Note_on_c, 12, 83, 84
14, 184800, Note_on_c, 12, 74, 84
14, 184800, Note_on_c, 12, 65, 84
14, 185039, Note_on_c, 12, 83, 0
14, 185039, Note_on_c, 12, 74, 0
14, 185039, Note_on_c, 12, 65, 0
14, 186240, Control_c, 12, 11, 80
14, 186480, Note_on_c, 12, 59, 68
14, 186539, Note_on_c, 12, 59, 0
14, 186540, Note_on_c, 12, 58, 68
14, 186599, Note_on_c, 12, 58, 0
14, 186600, Note_on_c, 12, 59, 68
14, 186659, Note_on_c, 12, 59, 0
14, 186660, Note_on_c, 12, 60, 68
14, 186711, Note_on_c, 12, 60, 0
14, 186720, Note_on_c, 12, 62, 68
14, 186899, Note_on_c, 12, 62, 0
14, 187440, Note_on_c, 12, 60, 68
14, 187499, Note_on_c, 12, 60, 0
14, 187500, Note_on_c, 12, 59, 68
14, 187559, Note_on_c, 12, 59, 0
14, 187560, Note_on_c, 12, 60, 68
14, 187619, Note_on_c, 12, 60, 0
14, 187620, Note_on_c, 12, 62, 68
14, 187671, Note_on_c, 12, 62, 0
14, 187680, Note_on_c, 12, 64, 68
14, 187859, Note_on_c, 12, 64, 0
14, 188400, Note_on_c, 12, 62, 68
14, 188459, Note_on_c, 12, 62, 0
14, 188460, Note_on_c, 12, 61, 68
14, 188519, Note_on_c, 12, 61, 0
14, 188520, Note_on_c, 12, 62, 68
14, 188579, Note_on_c, 12, 62, 0
14, 188580, Note_on_c, 12, 64, 68
14, 188631, Note_on_c, 12, 64, 0
14, 188640, Control_c, 12, 11, 80
14, 188640, Note_on_c, 12, 65, 68
14, 188760, Control_c, 12, 11, 82
14, 188819, Note_on_c, 12, 65, 0
14, 188880, Note_on_c, 12, 64, 68
14, 188880, Control_c, 12, 11, 84
14, 188939, Note_on_c, 12, 64, 0
14, 188940, Note_on_c, 12, 62, 68
14, 188999, Note_on_c, 12, 62, 0
14, 189000, Note_on_c, 12, 64, 68
14, 189000, Control_c, 12, 11, 86
14, 189059, Note_on_c, 12, 64, 0
14, 189060, Note_on_c, 12, 65, 68
14, 189111, Note_on_c, 12, 65, 0
14, 189120, Note_on_c, 12, 67, 68
14, 189120, Control_c, 12, 11, 88
14, 189240, Control_c, 12, 11, 90
14, 189299, Note_on_c, 12, 67, 0
14, 189360, Control_c, 12, 11, 92
14, 189360, Note_on_c, 12, 65, 68
14, 189419, Note_on_c, 12, 65, 0
14, 189420, Note_on_c, 12, 64, 68
14, 189479, Note_on_c, 12, 64, 0
14, 189480, Note_on_c, 12, 65, 68
14, 189480, Control_c, 12, 11, 94
14, 189539, Note_on_c, 12, 65, 0
14, 189540, Note_on_c, 12, 67, 68
14, 189591, Note_on_c, 12, 67, 0
14, 189600, Note_on_c, 12, 69, 68
14, 189600, Control_c, 12, 11, 96
14, 189720, Control_c, 12, 11, 98
14, 189779, Note_on_c, 12, 69, 0
14, 189840, Control_c, 12, 11, 100
14, 189840, Note_on_c, 12, 68, 68
14, 189899, Note_on_c, 12, 68, 0
14, 189900, Note_on_c, 12, 66, 68
14, 189959, Note_on_c, 12, 66, 0
14, 189960, Note_on_c, 12, 68, 68
14, 189960, Control_c, 12, 11, 102
14, 190019, Note_on_c, 12, 68, 0
14, 190020, Note_on_c, 12, 69, 68
14, 190071, Note_on_c, 12, 69, 0
14, 190080, Note_on_c, 12, 71, 68
14, 190080, Control_c, 12, 11, 104
14, 190200, Control_c, 12, 11, 105
14, 190259, Note_on_c, 12, 71, 0
14, 190320, Control_c, 12, 11, 107
14, 190320, Note_on_c, 12, 69, 68
14, 190379, Note_on_c, 12, 69, 0
14, 190380, Note_on_c, 12, 68, 68
14, 190439, Note_on_c, 12, 68, 0
14, 190440, Note_on_c, 12, 69, 68
14, 190440, Control_c, 12, 11, 109
14, 190499, Note_on_c, 12, 69, 0
14, 190500, Note_on_c, 12, 71, 68
14, 190551, Note_on_c, 12, 71, 0
14, 190560, Note_on_c, 12, 72, 68
14, 190560, Control_c, 12, 11, 111
14, 190680, Control_c, 12, 11, 113
14, 190739, Note_on_c, 12, 72, 0
14, 190800, Control_c, 12, 11, 115
14, 190800, Note_on_c, 12, 69, 68
14, 190859, Note_on_c, 12, 69, 0
14, 190860, Note_on_c, 12, 68, 68
14, 190919, Note_on_c, 12, 68, 0
14, 190920, Note_on_c, 12, 69, 68
14, 190920, Control_c, 12, 11, 117
14, 190979, Note_on_c, 12, 69, 0
14, 190980, Note_on_c, 12, 71, 68
14, 191031, Note_on_c, 12, 71, 0
14, 191040, Control_c, 12, 11, 119
14, 191040, Note_on_c, 12, 72, 68
14, 191160, Control_c, 12, 11, 121
14, 191219, Note_on_c, 12, 72, 0
14, 191280, Control_c, 12, 11, 123
14, 191280, Note_on_c, 12, 69, 68
14, 191339, Note_on_c, 12, 69, 0
14, 191340, Note_on_c, 12, 68, 68
14, 191399, Note_on_c, 12, 68, 0
14, 191400, Control_c, 12, 11, 125
14, 191400, Note_on_c, 12, 69, 68
14, 191459, Note_on_c, 12, 69, 0
14, 191460, Note_on_c, 12, 71, 68
14, 191511, Note_on_c, 12, 71, 0
14, 191520, Control_c, 12, 11, 127
14, 191520, Note_on_c, 12, 72, 76
14, 192464, Note_on_c, 12, 72, 0
14, 192480, Note_on_c, 12, 63, 76
14, 193424, Note_on_c, 12, 63, 0
14, 193440, Note_on_c, 12, 73, 84
14, 193440, Note_on_c, 12, 64, 84
14, 193491, Note_on_c, 12, 73, 0
14, 193491, Note_on_c, 12, 64, 0
14, 193500, Note_on_c, 12, 73, 84
14, 193500, Note_on_c, 12, 64, 84
14, 193551, Note_on_c, 12, 73, 0
14, 193551, Note_on_c, 12, 64, 0
14, 193560, Note_on_c, 12, 73, 84
14, 193560, Note_on_c, 12, 64, 84
14, 193611, Note_on_c, 12, 73, 0
14, 193611, Note_on_c, 12, 64, 0
14, 193620, Note_on_c, 12, 64, 84
14, 193620, Note_on_c, 12, 73, 84
14, 193671, Note_on_c, 12, 64, 0
14, 193671, Note_on_c, 12, 73, 0
14, 193680, Note_on_c, 12, 64, 84
14, 193680, Note_on_c, 12, 73, 84
14, 193731, Note_on_c, 12, 64, 0
14, 193731, Note_on_c, 12, 73, 0
14, 193740, Note_on_c, 12, 64, 84
14, 193740, Note_on_c, 12, 73, 84
14, 193791, Note_on_c, 12, 64, 0
14, 193791, Note_on_c, 12, 73, 0
14, 193800, Note_on_c, 12, 64, 84
14, 193800, Note_on_c, 12, 73, 84
14, 193851, Note_on_c, 12, 64, 0
14, 193851, Note_on_c, 12, 73, 0
14, 193860, Note_on_c, 12, 73, 84
14, 193860, Note_on_c, 12, 64, 84
14, 193911, Note_on_c, 12, 73, 0
14, 193911, Note_on_c, 12, 64, 0
14, 193920, Note_on_c, 12, 73, 84
14, 193920, Note_on_c, 12, 64, 84
14, 193971, Note_on_c, 12, 73, 0
14, 193971, Note_on_c, 12, 64, 0
14, 193980, Note_on_c, 12, 73, 84
14, 193980, Note_on_c, 12, 64, 84
14, 194031, Note_on_c, 12, 73, 0
14, 194031, Note_on_c, 12, 64, 0
14, 194040, Note_on_c, 12, 64, 84
14, 194040, Note_on_c, 12, 73, 84
14, 194091, Note_on_c, 12, 64, 0
14, 194091, Note_on_c, 12, 73, 0
14, 194100, Note_on_c, 12, 73, 84
14, 194100, Note_on_c, 12, 64, 84
14, 194151, Note_on_c, 12, 73, 0
14, 194151, Note_on_c, 12, 64, 0
14, 194160, Note_on_c, 12, 73, 84
14, 194160, Note_on_c, 12, 64, 84
14, 194211, Note_on_c, 12, 73, 0
14, 194211, Note_on_c, 12, 64, 0
14, 194220, Note_on_c, 12, 73, 84
14, 194220, Note_on_c, 12, 64, 84
14, 194271, Note_on_c, 12, 73, 0
14, 194271, Note_on_c, 12, 64, 0
14, 194280, Note_on_c, 12, 73, 84
14, 194280, Note_on_c, 12, 64, 84
14, 194331, Note_on_c, 12, 73, 0
14, 194331, Note_on_c, 12, 64, 0
14, 194340, Note_on_c, 12, 73, 84
14, 194340, Note_on_c, 12, 64, 84
14, 194391, Note_on_c, 12, 73, 0
14, 194391, Note_on_c, 12, 64, 0
14, 194400, Note_on_c, 12, 74, 84
14, 194400, Note_on_c, 12, 64, 84
14, 194451, Note_on_c, 12, 74, 0
14, 194451, Note_on_c, 12, 64, 0
14, 194460, Note_on_c, 12, 74, 84
14, 194460, Note_on_c, 12, 64, 84
14, 194511, Note_on_c, 12, 74, 0
14, 194511, Note_on_c, 12, 64, 0
14, 194520, Note_on_c, 12, 64, 84
14, 194520, Note_on_c, 12, 74, 84
14, 194571, Note_on_c, 12, 64, 0
14, 194571, Note_on_c, 12, 74, 0
14, 194580, Note_on_c, 12, 64, 84
14, 194580, Note_on_c, 12, 74, 84
14, 194631, Note_on_c, 12, 64, 0
14, 194631, Note_on_c, 12, 74, 0
14, 194640, Note_on_c, 12, 64, 84
14, 194640, Note_on_c, 12, 74, 84
14, 194691, Note_on_c, 12, 64, 0
14, 194691, Note_on_c, 12, 74, 0
14, 194700, Note_on_c, 12, 74, 84
14, 194700, Note_on_c, 12, 64, 84
14, 194751, Note_on_c, 12, 74, 0
14, 194751, Note_on_c, 12, 64, 0
14, 194760, Note_on_c, 12, 74, 84
14, 194760, Note_on_c, 12, 64, 84
14, 194811, Note_on_c, 12, 74, 0
14, 194811, Note_on_c, 12, 64, 0
14, 194820, Note_on_c, 12, 64, 84
14, 194820, Note_on_c, 12, 74, 84
14, 194871, Note_on_c, 12, 64, 0
14, 194871, Note_on_c, 12, 74, 0
14, 194880, Note_on_c, 12, 62, 84
14, 194931, Note_on_c, 12, 62, 0
14, 194940, Note_on_c, 12, 62, 84
14, 194991, Note_on_c, 12, 62, 0
14, 195000, Note_on_c, 12, 62, 84
14, 195051, Note_on_c, 12, 62, 0
14, 195060, Note_on_c, 12, 62, 84
14, 195111, Note_on_c, 12, 62, 0
14, 195120, Note_on_c, 12, 62, 84
14, 195171, Note_on_c, 12, 62, 0
14, 195180, Note_on_c, 12, 62, 84
14, 195231, Note_on_c, 12, 62, 0
14, 195240, Note_on_c, 12, 62, 84
14, 195291, Note_on_c, 12, 62, 0
14, 195300, Note_on_c, 12, 62, 84
14, 195351, Note_on_c, 12, 62, 0
14, 195360, Note_on_c, 12, 61, 76
14, 195360, Note_on_c, 12, 69, 76
14, 195420, Control_c, 12, 11, 80
14, 195599, Note_on_c, 12, 61, 0
14, 196064, Note_on_c, 12, 69, 0
14, 196080, Note_on_c, 12, 69, 76
14, 196139, Note_on_c, 12, 69, 0
14, 196140, Note_on_c, 12, 68, 76
14, 196199, Note_on_c, 12, 68, 0
14, 196200, Note_on_c, 12, 69, 76
14, 196259, Note_on_c, 12, 69, 0
14, 196260, Note_on_c, 12, 71, 76
14, 196311, Note_on_c, 12, 71, 0
14, 196320, Note_on_c, 12, 73, 76
14, 196499, Note_on_c, 12, 73, 0
14, 196560, Note_on_c, 12, 73, 76
14, 196619, Note_on_c, 12, 73, 0
14, 196620, Note_on_c, 12, 71, 76
14, 196679, Note_on_c, 12, 71, 0
14, 196680, Note_on_c, 12, 73, 76
14, 196739, Note_on_c, 12, 73, 0
14, 196740, Note_on_c, 12, 74, 76
14, 196791, Note_on_c, 12, 74, 0
14, 196800, Note_on_c, 12, 76, 76
14, 196979, Note_on_c, 12, 76, 0
14, 197040, Note_on_c, 12, 76, 76
14, 197099, Note_on_c, 12, 76, 0
14, 197100, Note_on_c, 12, 77, 76
14, 197159, Note_on_c, 12, 77, 0
14, 197160, Note_on_c, 12, 79, 76
14, 197219, Note_on_c, 12, 79, 0
14, 197220, Note_on_c, 12, 76, 76
14, 197264, Note_on_c, 12, 76, 0
14, 197272, Control_c, 12, 11, 127
14, 197280, Note_on_c, 12, 77, 84
14, 197331, Note_on_c, 12, 77, 0
14, 197340, Note_on_c, 12, 65, 84
14, 197340, Note_on_c, 12, 62, 84
14, 197391, Note_on_c, 12, 65, 0
14, 197391, Note_on_c, 12, 62, 0
14, 197400, Note_on_c, 12, 62, 84
14, 197400, Note_on_c, 12, 65, 84
14, 197451, Note_on_c, 12, 62, 0
14, 197451, Note_on_c, 12, 65, 0
14, 197460, Note_on_c, 12, 62, 84
14, 197460, Note_on_c, 12, 65, 84
14, 197511, Note_on_c, 12, 62, 0
14, 197511, Note_on_c, 12, 65, 0
14, 197520, Note_on_c, 12, 62, 84
14, 197520, Note_on_c, 12, 65, 84
14, 197571, Note_on_c, 12, 62, 0
14, 197571, Note_on_c, 12, 65, 0
14, 197580, Note_on_c, 12, 62, 84
14, 197580, Note_on_c, 12, 65, 84
14, 197631, Note_on_c, 12, 62, 0
14, 197631, Note_on_c, 12, 65, 0
14, 197640, Note_on_c, 12, 62, 84
14, 197640, Note_on_c, 12, 65, 84
14, 197691, Note_on_c, 12, 62, 0
14, 197691, Note_on_c, 12, 65, 0
14, 197700, Note_on_c, 12, 65, 84
14, 197700, Note_on_c, 12, 62, 84
14, 197751, Note_on_c, 12, 65, 0
14, 197751, Note_on_c, 12, 62, 0
14, 197760, Note_on_c, 12, 65, 84
14, 197760, Note_on_c, 12, 62, 84
14, 197811, Note_on_c, 12, 65, 0
14, 197811, Note_on_c, 12, 62, 0
14, 197820, Note_on_c, 12, 62, 84
14, 197820, Note_on_c, 12, 65, 84
14, 197871, Note_on_c, 12, 62, 0
14, 197871, Note_on_c, 12, 65, 0
14, 197880, Note_on_c, 12, 65, 84
14, 197880, Note_on_c, 12, 62, 84
14, 197931, Note_on_c, 12, 65, 0
14, 197931, Note_on_c, 12, 62, 0
14, 197940, Note_on_c, 12, 62, 84
14, 197940, Note_on_c, 12, 65, 84
14, 197991, Note_on_c, 12, 62, 0
14, 197991, Note_on_c, 12, 65, 0
14, 198000, Note_on_c, 12, 65, 84
14, 198000, Note_on_c, 12, 62, 84
14, 198051, Note_on_c, 12, 65, 0
14, 198051, Note_on_c, 12, 62, 0
14, 198060, Note_on_c, 12, 62, 84
14, 198060, Note_on_c, 12, 65, 84
14, 198111, Note_on_c, 12, 62, 0
14, 198111, Note_on_c, 12, 65, 0
14, 198120, Note_on_c, 12, 62, 84
14, 198120, Note_on_c, 12, 65, 84
14, 198171, Note_on_c, 12, 62, 0
14, 198171, Note_on_c, 12, 65, 0
14, 198180, Note_on_c, 12, 62, 84
14, 198180, Note_on_c, 12, 65, 84
14, 198231, Note_on_c, 12, 62, 0
14, 198231, Note_on_c, 12, 65, 0
14, 198240, Note_on_c, 12, 62, 84
14, 198240, Note_on_c, 12, 65, 84
14, 198291, Note_on_c, 12, 62, 0
14, 198291, Note_on_c, 12, 65, 0
14, 198300, Note_on_c, 12, 65, 84
14, 198300, Note_on_c, 12, 62, 84
14, 198351, Note_on_c, 12, 65, 0
14, 198351, Note_on_c, 12, 62, 0
14, 198360, Note_on_c, 12, 65, 84
14, 198360, Note_on_c, 12, 62, 84
14, 198411, Note_on_c, 12, 65, 0
14, 198411, Note_on_c, 12, 62, 0
14, 198420, Note_on_c, 12, 62, 84
14, 198420, Note_on_c, 12, 65, 84
14, 198471, Note_on_c, 12, 62, 0
14, 198471, Note_on_c, 12, 65, 0
14, 198480, Note_on_c, 12, 65, 84
14, 198480, Note_on_c, 12, 62, 84
14, 198531, Note_on_c, 12, 65, 0
14, 198531, Note_on_c, 12, 62, 0
14, 198540, Note_on_c, 12, 65, 84
14, 198540, Note_on_c, 12, 62, 84
14, 198591, Note_on_c, 12, 65, 0
14, 198591, Note_on_c, 12, 62, 0
14, 198600, Note_on_c, 12, 62, 84
14, 198600, Note_on_c, 12, 65, 84
14, 198651, Note_on_c, 12, 62, 0
14, 198651, Note_on_c, 12, 65, 0
14, 198660, Note_on_c, 12, 65, 84
14, 198660, Note_on_c, 12, 62, 84
14, 198711, Note_on_c, 12, 65, 0
14, 198711, Note_on_c, 12, 62, 0
14, 198720, Note_on_c, 12, 62, 84
14, 198720, Note_on_c, 12, 65, 84
14, 198771, Note_on_c, 12, 62, 0
14, 198771, Note_on_c, 12, 65, 0
14, 198780, Note_on_c, 12, 62, 84
14, 198780, Note_on_c, 12, 65, 84
14, 198831, Note_on_c, 12, 62, 0
14, 198831, Note_on_c, 12, 65, 0
14, 198840, Note_on_c, 12, 62, 84
14, 198840, Note_on_c, 12, 65, 84
14, 198891, Note_on_c, 12, 62, 0
14, 198891, Note_on_c, 12, 65, 0
14, 198900, Note_on_c, 12, 65, 84
14, 198900, Note_on_c, 12, 62, 84
14, 198951, Note_on_c, 12, 65, 0
14, 198951, Note_on_c, 12, 62, 0
14, 198960, Note_on_c, 12, 62, 84
14, 198960, Note_on_c, 12, 65, 84
14, 199011, Note_on_c, 12, 62, 0
14, 199011, Note_on_c, 12, 65, 0
14, 199020, Note_on_c, 12, 65, 84
14, 199020, Note_on_c, 12, 62, 84
14, 199071, Note_on_c, 12, 65, 0
14, 199071, Note_on_c, 12, 62, 0
14, 199080, Note_on_c, 12, 65, 84
14, 199080, Note_on_c, 12, 62, 84
14, 199131, Note_on_c, 12, 65, 0
14, 199131, Note_on_c, 12, 62, 0
14, 199140, Note_on_c, 12, 62, 84
14, 199140, Note_on_c, 12, 65, 84
14, 199191, Note_on_c, 12, 62, 0
14, 199191, Note_on_c, 12, 65, 0
14, 199200, Note_on_c, 12, 64, 76
14, 199200, Note_on_c, 12, 69, 76
14, 199200, Note_on_c, 12, 61, 76
14, 199260, Control_c, 12, 11, 80
14, 199439, Note_on_c, 12, 64, 0
14, 199439, Note_on_c, 12, 61, 0
14, 199904, Note_on_c, 12, 69, 0
14, 199920, Note_on_c, 12, 69, 76
14, 199979, Note_on_c, 12, 69, 0
14, 199980, Note_on_c, 12, 68, 76
14, 200039, Note_on_c, 12, 68, 0
14, 200040, Note_on_c, 12, 69, 76
14, 200099, Note_on_c, 12, 69, 0
14, 200100, Note_on_c, 12, 71, 76
14, 200151, Note_on_c, 12, 71, 0
14, 200160, Note_on_c, 12, 73, 76
14, 200339, Note_on_c, 12, 73, 0
14, 200400, Note_on_c, 12, 73, 76
14, 200459, Note_on_c, 12, 73, 0
14, 200460, Note_on_c, 12, 71, 76
14, 200519, Note_on_c, 12, 71, 0
14, 200520, Note_on_c, 12, 73, 76
14, 200579, Note_on_c, 12, 73, 0
14, 200580, Note_on_c, 12, 74, 76
14, 200631, Note_on_c, 12, 74, 0
14, 200640, Note_on_c, 12, 76, 76
14, 200819, Note_on_c, 12, 76, 0
14, 200880, Note_on_c, 12, 76, 76
14, 200939, Note_on_c, 12, 76, 0
14, 200940, Note_on_c, 12, 77, 76
14, 200999, Note_on_c, 12, 77, 0
14, 201000, Note_on_c, 12, 79, 76
14, 201059, Note_on_c, 12, 79, 0
14, 201060, Note_on_c, 12, 76, 76
14, 201104, Note_on_c, 12, 76, 0
14, 201112, Control_c, 12, 11, 127
14, 201120, Note_on_c, 12, 77, 84
14, 201171, Note_on_c, 12, 77, 0
14, 201180, Note_on_c, 12, 62, 84
14, 201180, Note_on_c, 12, 65, 84
14, 201231, Note_on_c, 12, 62, 0
14, 201231, Note_on_c, 12, 65, 0
14, 201240, Note_on_c, 12, 62, 84
14, 201240, Note_on_c, 12, 65, 84
14, 201291, Note_on_c, 12, 62, 0
14, 201291, Note_on_c, 12, 65, 0
14, 201300, Note_on_c, 12, 62, 84
14, 201300, Note_on_c, 12, 65, 84
14, 201351, Note_on_c, 12, 62, 0
14, 201351, Note_on_c, 12, 65, 0
14, 201360, Note_on_c, 12, 62, 84
14, 201360, Note_on_c, 12, 65, 84
14, 201411, Note_on_c, 12, 62, 0
14, 201411, Note_on_c, 12, 65, 0
14, 201420, Note_on_c, 12, 62, 84
14, 201420, Note_on_c, 12, 65, 84
14, 201471, Note_on_c, 12, 62, 0
14, 201471, Note_on_c, 12, 65, 0
14, 201480, Note_on_c, 12, 65, 84
14, 201480, Note_on_c, 12, 62, 84
14, 201531, Note_on_c, 12, 65, 0
14, 201531, Note_on_c, 12, 62, 0
14, 201540, Note_on_c, 12, 62, 84
14, 201540, Note_on_c, 12, 65, 84
14, 201591, Note_on_c, 12, 62, 0
14, 201591, Note_on_c, 12, 65, 0
14, 201600, Note_on_c, 12, 62, 84
14, 201600, Note_on_c, 12, 65, 84
14, 201651, Note_on_c, 12, 62, 0
14, 201651, Note_on_c, 12, 65, 0
14, 201660, Note_on_c, 12, 62, 84
14, 201660, Note_on_c, 12, 65, 84
14, 201711, Note_on_c, 12, 62, 0
14, 201711, Note_on_c, 12, 65, 0
14, 201720, Note_on_c, 12, 65, 84
14, 201720, Note_on_c, 12, 62, 84
14, 201771, Note_on_c, 12, 65, 0
14, 201771, Note_on_c, 12, 62, 0
14, 201780, Note_on_c, 12, 62, 84
14, 201780, Note_on_c, 12, 65, 84
14, 201831, Note_on_c, 12, 62, 0
14, 201831, Note_on_c, 12, 65, 0
14, 201840, Note_on_c, 12, 62, 84
14, 201840, Note_on_c, 12, 65, 84
14, 201891, Note_on_c, 12, 62, 0
14, 201891, Note_on_c, 12, 65, 0
14, 201900, Note_on_c, 12, 65, 84
14, 201900, Note_on_c, 12, 62, 84
14, 201951, Note_on_c, 12, 65, 0
14, 201951, Note_on_c, 12, 62, 0
14, 201960, Note_on_c, 12, 65, 84
14, 201960, Note_on_c, 12, 62, 84
14, 202011, Note_on_c, 12, 65, 0
14, 202011, Note_on_c, 12, 62, 0
14, 202020, Note_on_c, 12, 65, 84
14, 202020, Note_on_c, 12, 62, 84
14, 202071, Note_on_c, 12, 65, 0
14, 202071, Note_on_c, 12, 62, 0
14, 202080, Note_on_c, 12, 65, 84
14, 202080, Note_on_c, 12, 62, 84
14, 202131, Note_on_c, 12, 65, 0
14, 202131, Note_on_c, 12, 62, 0
14, 202140, Note_on_c, 12, 65, 84
14, 202140, Note_on_c, 12, 62, 84
14, 202191, Note_on_c, 12, 65, 0
14, 202191, Note_on_c, 12, 62, 0
14, 202200, Note_on_c, 12, 65, 84
14, 202200, Note_on_c, 12, 62, 84
14, 202251, Note_on_c, 12, 65, 0
14, 202251, Note_on_c, 12, 62, 0
14, 202260, Note_on_c, 12, 62, 84
14, 202260, Note_on_c, 12, 65, 84
14, 202311, Note_on_c, 12, 62, 0
14, 202311, Note_on_c, 12, 65, 0
14, 202320, Note_on_c, 12, 65, 84
14, 202320, Note_on_c, 12, 62, 84
14, 202371, Note_on_c, 12, 65, 0
14, 202371, Note_on_c, 12, 62, 0
14, 202380, Note_on_c, 12, 62, 84
14, 202380, Note_on_c, 12, 65, 84
14, 202431, Note_on_c, 12, 62, 0
14, 202431, Note_on_c, 12, 65, 0
14, 202440, Note_on_c, 12, 62, 84
14, 202440, Note_on_c, 12, 65, 84
14, 202491, Note_on_c, 12, 62, 0
14, 202491, Note_on_c, 12, 65, 0
14, 202500, Note_on_c, 12, 65, 84
14, 202500, Note_on_c, 12, 62, 84
14, 202551, Note_on_c, 12, 65, 0
14, 202551, Note_on_c, 12, 62, 0
14, 202560, Note_on_c, 12, 65, 84
14, 202560, Note_on_c, 12, 62, 84
14, 202611, Note_on_c, 12, 65, 0
14, 202611, Note_on_c, 12, 62, 0
14, 202620, Note_on_c, 12, 62, 84
14, 202620, Note_on_c, 12, 65, 84
14, 202671, Note_on_c, 12, 62, 0
14, 202671, Note_on_c, 12, 65, 0
14, 202680, Note_on_c, 12, 65, 84
14, 202680, Note_on_c, 12, 62, 84
14, 202731, Note_on_c, 12, 65, 0
14, 202731, Note_on_c, 12, 62, 0
14, 202740, Note_on_c, 12, 65, 84
14, 202740, Note_on_c, 12, 62, 84
14, 202791, Note_on_c, 12, 65, 0
14, 202791, Note_on_c, 12, 62, 0
14, 202800, Note_on_c, 12, 65, 84
14, 202800, Note_on_c, 12, 62, 84
14, 202851, Note_on_c, 12, 65, 0
14, 202851, Note_on_c, 12, 62, 0
14, 202860, Note_on_c, 12, 65, 84
14, 202860, Note_on_c, 12, 62, 84
14, 202911, Note_on_c, 12, 65, 0
14, 202911, Note_on_c, 12, 62, 0
14, 202920, Note_on_c, 12, 62, 84
14, 202920, Note_on_c, 12, 65, 84
14, 202971, Note_on_c, 12, 62, 0
14, 202971, Note_on_c, 12, 65, 0
14, 202980, Note_on_c, 12, 62, 84
14, 202980, Note_on_c, 12, 65, 84
14, 203031, Note_on_c, 12, 62, 0
14, 203031, Note_on_c, 12, 65, 0
14, 203040, Note_on_c, 12, 64, 52
14, 203091, Note_on_c, 12, 64, 0
14, 203100, Note_on_c, 12, 64, 52
14, 203151, Note_on_c, 12, 64, 0
14, 203160, Note_on_c, 12, 64, 52
14, 203211, Note_on_c, 12, 64, 0
14, 203220, Note_on_c, 12, 64, 52
14, 203271, Note_on_c, 12, 64, 0
14, 203280, Note_on_c, 12, 62, 52
14, 203331, Note_on_c, 12, 62, 0
14, 203340, Note_on_c, 12, 62, 52
14, 203391, Note_on_c, 12, 62, 0
14, 203400, Note_on_c, 12, 62, 52
14, 203451, Note_on_c, 12, 62, 0
14, 203460, Note_on_c, 12, 62, 52
14, 203511, Note_on_c, 12, 62, 0
14, 203520, Note_on_c, 12, 64, 52
14, 203571, Note_on_c, 12, 64, 0
14, 203580, Note_on_c, 12, 64, 52
14, 203631, Note_on_c, 12, 64, 0
14, 203640, Note_on_c, 12, 64, 52
14, 203691, Note_on_c, 12, 64, 0
14, 203700, Note_on_c, 12, 64, 52
14, 203751, Note_on_c, 12, 64, 0
14, 203760, Note_on_c, 12, 65, 76
14, 203811, Note_on_c, 12, 65, 0
14, 203820, Note_on_c, 12, 65, 52
14, 203871, Note_on_c, 12, 65, 0
14, 203880, Note_on_c, 12, 65, 52
14, 203931, Note_on_c, 12, 65, 0
14, 203940, Note_on_c, 12, 65, 52
14, 203991, Note_on_c, 12, 65, 0
14, 204000, Note_on_c, 12, 64, 52
14, 204051, Note_on_c, 12, 64, 0
14, 204060, Note_on_c, 12, 64, 52
14, 204111, Note_on_c, 12, 64, 0
14, 204120, Note_on_c, 12, 64, 52
14, 204171, Note_on_c, 12, 64, 0
14, 204180, Note_on_c, 12, 64, 52
14, 204231, Note_on_c, 12, 64, 0
14, 204240, Note_on_c, 12, 62, 52
14, 204291, Note_on_c, 12, 62, 0
14, 204300, Note_on_c, 12, 62, 52
14, 204351, Note_on_c, 12, 62, 0
14, 204360, Note_on_c, 12, 62, 52
14, 204411, Note_on_c, 12, 62, 0
14, 204420, Note_on_c, 12, 62, 52
14, 204471, Note_on_c, 12, 62, 0
14, 204480, Note_on_c, 12, 64, 52
14, 204531, Note_on_c, 12, 64, 0
14, 204540, Note_on_c, 12, 64, 52
14, 204591, Note_on_c, 12, 64, 0
14, 204600, Note_on_c, 12, 64, 52
14, 204651, Note_on_c, 12, 64, 0
14, 204660, Note_on_c, 12, 64, 52
14, 204711, Note_on_c, 12, 64, 0
14, 204720, Note_on_c, 12, 65, 76
14, 204771, Note_on_c, 12, 65, 0
14, 204780, Note_on_c, 12, 65, 52
14, 204831, Note_on_c, 12, 65, 0
14, 204840, Note_on_c, 12, 65, 52
14, 204891, Note_on_c, 12, 65, 0
14, 204900, Note_on_c, 12, 65, 52
14, 204951, Note_on_c, 12, 65, 0
14, 204960, Note_on_c, 12, 64, 52
14, 205011, Note_on_c, 12, 64, 0
14, 205020, Note_on_c, 12, 64, 52
14, 205071, Note_on_c, 12, 64, 0
14, 205080, Note_on_c, 12, 64, 52
14, 205131, Note_on_c, 12, 64, 0
14, 205140, Note_on_c, 12, 64, 52
14, 205191, Note_on_c, 12, 64, 0
14, 205200, Note_on_c, 12, 62, 52
14, 205251, Note_on_c, 12, 62, 0
14, 205260, Note_on_c, 12, 62, 52
14, 205311, Note_on_c, 12, 62, 0
14, 205320, Note_on_c, 12, 62, 52
14, 205371, Note_on_c, 12, 62, 0
14, 205380, Note_on_c, 12, 62, 52
14, 205431, Note_on_c, 12, 62, 0
14, 205440, Note_on_c, 12, 64, 52
14, 205491, Note_on_c, 12, 64, 0
14, 205500, Note_on_c, 12, 64, 52
14, 205551, Note_on_c, 12, 64, 0
14, 205560, Note_on_c, 12, 64, 52
14, 205611, Note_on_c, 12, 64, 0
14, 205620, Note_on_c, 12, 64, 52
14, 205671, Note_on_c, 12, 64, 0
14, 205680, Note_on_c, 12, 65, 76
14, 205731, Note_on_c, 12, 65, 0
14, 205740, Note_on_c, 12, 65, 52
14, 205791, Note_on_c, 12, 65, 0
14, 205800, Note_on_c, 12, 65, 52
14, 205851, Note_on_c, 12, 65, 0
14, 205860, Note_on_c, 12, 65, 52
14, 205911, Note_on_c, 12, 65, 0
14, 205920, Note_on_c, 12, 64, 52
14, 205971, Note_on_c, 12, 64, 0
14, 205980, Note_on_c, 12, 64, 52
14, 206031, Note_on_c, 12, 64, 0
14, 206040, Note_on_c, 12, 64, 52
14, 206091, Note_on_c, 12, 64, 0
14, 206100, Note_on_c, 12, 64, 52
14, 206151, Note_on_c, 12, 64, 0
14, 206160, Note_on_c, 12, 62, 52
14, 206211, Note_on_c, 12, 62, 0
14, 206220, Note_on_c, 12, 62, 52
14, 206271, Note_on_c, 12, 62, 0
14, 206280, Note_on_c, 12, 62, 52
14, 206331, Note_on_c, 12, 62, 0
14, 206340, Note_on_c, 12, 62, 52
14, 206391, Note_on_c, 12, 62, 0
14, 206400, Note_on_c, 12, 64, 52
14, 206451, Note_on_c, 12, 64, 0
14, 206460, Note_on_c, 12, 64, 52
14, 206511, Note_on_c, 12, 64, 0
14, 206520, Note_on_c, 12, 64, 52
14, 206571, Note_on_c, 12, 64, 0
14, 206580, Note_on_c, 12, 64, 52
14, 206631, Note_on_c, 12, 64, 0
14, 206640, Note_on_c, 12, 65, 76
14, 206691, Note_on_c, 12, 65, 0
14, 206700, Note_on_c, 12, 65, 52
14, 206751, Note_on_c, 12, 65, 0
14, 206760, Note_on_c, 12, 65, 52
14, 206811, Note_on_c, 12, 65, 0
14, 206820, Note_on_c, 12, 65, 52
14, 206871, Note_on_c, 12, 65, 0
14, 206880, Note_on_c, 12, 64, 52
14, 206931, Note_on_c, 12, 64, 0
14, 206940, Note_on_c, 12, 64, 52
14, 206991, Note_on_c, 12, 64, 0
14, 207000, Note_on_c, 12, 64, 52
14, 207051, Note_on_c, 12, 64, 0
14, 207060, Note_on_c, 12, 64, 52
14, 207111, Note_on_c, 12, 64, 0
14, 207120, Note_on_c, 12, 65, 76
14, 207171, Note_on_c, 12, 65, 0
14, 207180, Note_on_c, 12, 65, 52
14, 207231, Note_on_c, 12, 65, 0
14, 207240, Note_on_c, 12, 65, 52
14, 207291, Note_on_c, 12, 65, 0
14, 207300, Note_on_c, 12, 65, 52
14, 207351, Note_on_c, 12, 65, 0
14, 207360, Note_on_c, 12, 64, 52
14, 207411, Note_on_c, 12, 64, 0
14, 207420, Note_on_c, 12, 64, 52
14, 207471, Note_on_c, 12, 64, 0
14, 207480, Note_on_c, 12, 64, 52
14, 207531, Note_on_c, 12, 64, 0
14, 207540, Note_on_c, 12, 64, 52
14, 207591, Note_on_c, 12, 64, 0
14, 207600, Note_on_c, 12, 65, 76
14, 207651, Note_on_c, 12, 65, 0
14, 207660, Note_on_c, 12, 65, 52
14, 207711, Note_on_c, 12, 65, 0
14, 207720, Note_on_c, 12, 65, 52
14, 207771, Note_on_c, 12, 65, 0
14, 207780, Note_on_c, 12, 65, 52
14, 207831, Note_on_c, 12, 65, 0
14, 207840, Note_on_c, 12, 64, 52
14, 207891, Note_on_c, 12, 64, 0
14, 207900, Note_on_c, 12, 64, 52
14, 207951, Note_on_c, 12, 64, 0
14, 207960, Note_on_c, 12, 64, 52
14, 208011, Note_on_c, 12, 64, 0
14, 208020, Note_on_c, 12, 64, 52
14, 208071, Note_on_c, 12, 64, 0
14, 208080, Note_on_c, 12, 65, 76
14, 208131, Note_on_c, 12, 65, 0
14, 208140, Note_on_c, 12, 65, 52
14, 208191, Note_on_c, 12, 65, 0
14, 208200, Note_on_c, 12, 65, 52
14, 208251, Note_on_c, 12, 65, 0
14, 208260, Note_on_c, 12, 65, 52
14, 208311, Note_on_c, 12, 65, 0
14, 208320, Note_on_c, 12, 64, 52
14, 208371, Note_on_c, 12, 64, 0
14, 208380, Note_on_c, 12, 64, 52
14, 208431, Note_on_c, 12, 64, 0
14, 208440, Note_on_c, 12, 64, 52
14, 208491, Note_on_c, 12, 64, 0
14, 208500, Note_on_c, 12, 64, 52
14, 208551, Note_on_c, 12, 64, 0
14, 208560, Note_on_c, 12, 65, 76
14, 208611, Note_on_c, 12, 65, 0
14, 208620, Note_on_c, 12, 65, 52
14, 208671, Note_on_c, 12, 65, 0
14, 208680, Note_on_c, 12, 65, 52
14, 208731, Note_on_c, 12, 65, 0
14, 208740, Note_on_c, 12, 65, 52
14, 208791, Note_on_c, 12, 65, 0
14, 208800, Note_on_c, 12, 61, 84
14, 208800, Note_on_c, 12, 64, 84
14, 209039, Note_on_c, 12, 61, 0
14, 209039, Note_on_c, 12, 64, 0
14, 209400, Note_on_c, 12, 57, 84
14, 209451, Note_on_c, 12, 57, 0
14, 209460, Note_on_c, 12, 57, 84
14, 209511, Note_on_c, 12, 57, 0
14, 209520, Note_on_c, 12, 61, 84
14, 209571, Note_on_c, 12, 61, 0
14, 209580, Note_on_c, 12, 61, 84
14, 209631, Note_on_c, 12, 61, 0
14, 209640, Note_on_c, 12, 64, 84
14, 209691, Note_on_c, 12, 64, 0
14, 209700, Note_on_c, 12, 64, 84
14, 209751, Note_on_c, 12, 64, 0
14, 209760, Note_on_c, 12, 69, 84
14, 209811, Note_on_c, 12, 69, 0
14, 209820, Note_on_c, 12, 69, 84
14, 209871, Note_on_c, 12, 69, 0
14, 209880, Note_on_c, 12, 61, 84
14, 209931, Note_on_c, 12, 61, 0
14, 209940, Note_on_c, 12, 61, 84
14, 209991, Note_on_c, 12, 61, 0
14, 210000, Note_on_c, 12, 64, 84
14, 210051, Note_on_c, 12, 64, 0
14, 210060, Note_on_c, 12, 64, 84
14, 210111, Note_on_c, 12, 64, 0
14, 210120, Note_on_c, 12, 69, 84
14, 210171, Note_on_c, 12, 69, 0
14, 210180, Note_on_c, 12, 69, 84
14, 210231, Note_on_c, 12, 69, 0
14, 210240, Note_on_c, 12, 73, 84
14, 210291, Note_on_c, 12, 73, 0
14, 210300, Note_on_c, 12, 73, 84
14, 210351, Note_on_c, 12, 73, 0
14, 210360, Note_on_c, 12, 64, 84
14, 210411, Note_on_c, 12, 64, 0
14, 210420, Note_on_c, 12, 64, 84
14, 210471, Note_on_c, 12, 64, 0
14, 210480, Note_on_c, 12, 69, 84
14, 210531, Note_on_c, 12, 69, 0
14, 210540, Note_on_c, 12, 69, 84
14, 210591, Note_on_c, 12, 69, 0
14, 210600, Note_on_c, 12, 73, 84
14, 210651, Note_on_c, 12, 73, 0
14, 210660, Note_on_c, 12, 73, 84
14, 210711, Note_on_c, 12, 73, 0
14, 210720, Note_on_c, 12, 76, 84
14, 210771, Note_on_c, 12, 76, 0
14, 210780, Note_on_c, 12, 76, 84
14, 210831, Note_on_c, 12, 76, 0
14, 210840, Note_on_c, 12, 85, 84
14, 210891, Note_on_c, 12, 85, 0
14, 210900, Note_on_c, 12, 85, 84
14, 210951, Note_on_c, 12, 85, 0
14, 210960, Note_on_c, 12, 81, 84
14, 211011, Note_on_c, 12, 81, 0
14, 211020, Note_on_c, 12, 81, 84
14, 211071, Note_on_c, 12, 81, 0
14, 211080, Note_on_c, 12, 76, 84
14, 211131, Note_on_c, 12, 76, 0
14, 211140, Note_on_c, 12, 76, 84
14, 211191, Note_on_c, 12, 76, 0
14, 211200, Note_on_c, 12, 73, 84
14, 211251, Note_on_c, 12, 73, 0
14, 211260, Note_on_c, 12, 73, 84
14, 211311, Note_on_c, 12, 73, 0
14, 211320, Note_on_c, 12, 81, 84
14, 211371, Note_on_c, 12, 81, 0
14, 211380, Note_on_c, 12, 81, 84
14, 211431, Note_on_c, 12, 81, 0
14, 211440, Note_on_c, 12, 76, 84
14, 211491, Note_on_c, 12, 76, 0
14, 211500, Note_on_c, 12, 76, 84
14, 211551, Note_on_c, 12, 76, 0
14, 211560, Note_on_c, 12, 73, 84
14, 211611, Note_on_c, 12, 73, 0
14, 211620, Note_on_c, 12, 73, 84
14, 211671, Note_on_c, 12, 73, 0
14, 211680, Note_on_c, 12, 69, 84
14, 211731, Note_on_c, 12, 69, 0
14, 211740, Note_on_c, 12, 69, 84
14, 211791, Note_on_c, 12, 69, 0
14, 211800, Note_on_c, 12, 69, 84
14, 211851, Note_on_c, 12, 69, 0
14, 211860, Note_on_c, 12, 69, 84
14, 211911, Note_on_c, 12, 69, 0
14, 211920, Note_on_c, 12, 64, 84
14, 211971, Note_on_c, 12, 64, 0
14, 211980, Note_on_c, 12, 64, 84
14, 212031, Note_on_c, 12, 64, 0
14, 212040, Note_on_c, 12, 61, 84
14, 212091, Note_on_c, 12, 61, 0
14, 212100, Note_on_c, 12, 61, 84
14, 212151, Note_on_c, 12, 61, 0
14, 212160, Note_on_c, 12, 57, 84
14, 212211, Note_on_c, 12, 57, 0
14, 212220, Note_on_c, 12, 57, 84
14, 212271, Note_on_c, 12, 57, 0
14, 212280, Note_on_c, 12, 69, 84
14, 212331, Note_on_c, 12, 69, 0
14, 212340, Note_on_c, 12, 69, 84
14, 212391, Note_on_c, 12, 69, 0
14, 212400, Note_on_c, 12, 64, 84
14, 212451, Note_on_c, 12, 64, 0
14, 212460, Note_on_c, 12, 64, 84
14, 212511, Note_on_c, 12, 64, 0
14, 212520, Note_on_c, 12, 61, 84
14, 212571, Note_on_c, 12, 61, 0
14, 212580, Note_on_c, 12, 61, 84
14, 212631, Note_on_c, 12, 61, 0
14, 212640, Note_on_c, 12, 57, 84
14, 212879, Note_on_c, 12, 57, 0
14, 213600, Note_on_c, 12, 64, 76
14, 213600, Note_on_c, 12, 73, 76
14, 213600, Note_on_c, 12, 57, 76
14, 213839, Note_on_c, 12, 64, 0
14, 213839, Note_on_c, 12, 73, 0
14, 213839, Note_on_c, 12, 57, 0
14, 216240, Note_on_c, 12, 57, 76
14, 216299, Note_on_c, 12, 57, 0
14, 216300, Note_on_c, 12, 56, 52
14, 216359, Note_on_c, 12, 56, 0
14, 216360, Note_on_c, 12, 57, 52
14, 216419, Note_on_c, 12, 57, 0
14, 216420, Note_on_c, 12, 56, 52
14, 216471, Note_on_c, 12, 56, 0
14, 216480, Note_on_c, 12, 57, 76
14, 216719, Note_on_c, 12, 57, 0
14, 217440, Note_on_c, 12, 73, 76
14, 217440, Note_on_c, 12, 57, 76
14, 217440, Note_on_c, 12, 64, 76
14, 217679, Note_on_c, 12, 73, 0
14, 217679, Note_on_c, 12, 57, 0
14, 217679, Note_on_c, 12, 64, 0
14, 220080, Control_c, 12, 11, 80
14, 220200, Note_on_c, 12, 57, 76
14, 220239, Note_on_c, 12, 57, 0
14, 220240, Note_on_c, 12, 59, 76
14, 220279, Note_on_c, 12, 59, 0
14, 220280, Note_on_c, 12, 61, 76
14, 220311, Note_on_c, 12, 61, 0
14, 220320, Note_on_c, 12, 62, 76
14, 220424, Note_on_c, 12, 62, 0
14, 220440, Note_on_c, 12, 62, 76
14, 220544, Note_on_c, 12, 62, 0
14, 220560, Note_on_c, 12, 62, 76
14, 220664, Note_on_c, 12, 62, 0
14, 220680, Note_on_c, 12, 62, 76
14, 220784, Note_on_c, 12, 62, 0
14, 220800, Note_on_c, 12, 62, 76
14, 220904, Note_on_c, 12, 62, 0
14, 220920, Note_on_c, 12, 62, 76
14, 221024, Note_on_c, 12, 62, 0
14, 221040, Note_on_c, 12, 62, 76
14, 221144, Note_on_c, 12, 62, 0
14, 221160, Note_on_c, 12, 62, 76
14, 221264, Note_on_c, 12, 62, 0
14, 221280, Note_on_c, 12, 62, 76
14, 221384, Note_on_c, 12, 62, 0
14, 221400, Note_on_c, 12, 62, 76
14, 221504, Note_on_c, 12, 62, 0
14, 221520, Note_on_c, 12, 62, 76
14, 221624, Note_on_c, 12, 62, 0
14, 221640, Note_on_c, 12, 62, 76
14, 221744, Note_on_c, 12, 62, 0
14, 221760, Note_on_c, 12, 62, 76
14, 221864, Note_on_c, 12, 62, 0
14, 221880, Note_on_c, 12, 62, 76
14, 221984, Note_on_c, 12, 62, 0
14, 222000, Note_on_c, 12, 62, 76
14, 222104, Note_on_c, 12, 62, 0
14, 222120, Note_on_c, 12, 62, 76
14, 222224, Note_on_c, 12, 62, 0
14, 222240, Note_on_c, 12, 62, 76
14, 222344, Note_on_c, 12, 62, 0
14, 222360, Note_on_c, 12, 62, 76
14, 222464, Note_on_c, 12, 62, 0
14, 222480, Note_on_c, 12, 62, 76
14, 222584, Note_on_c, 12, 62, 0
14, 222600, Note_on_c, 12, 62, 76
14, 222704, Note_on_c, 12, 62, 0
14, 222720, Note_on_c, 12, 62, 76
14, 222824, Note_on_c, 12, 62, 0
14, 222840, Note_on_c, 12, 62, 76
14, 222944, Note_on_c, 12, 62, 0
14, 222960, Note_on_c, 12, 62, 76
14, 223064, Note_on_c, 12, 62, 0
14, 223080, Note_on_c, 12, 62, 76
14, 223184, Note_on_c, 12, 62, 0
14, 223200, Note_on_c, 12, 62, 76
14, 223304, Note_on_c, 12, 62, 0
14, 223320, Note_on_c, 12, 62, 76
14, 223424, Note_on_c, 12, 62, 0
14, 223440, Note_on_c, 12, 62, 76
14, 223544, Note_on_c, 12, 62, 0
14, 223560, Note_on_c, 12, 62, 76
14, 223664, Note_on_c, 12, 62, 0
14, 223680, Note_on_c, 12, 62, 76
14, 223784, Note_on_c, 12, 62, 0
14, 223800, Note_on_c, 12, 62, 76
14, 223904, Note_on_c, 12, 62, 0
14, 223920, Note_on_c, 12, 62, 76
14, 224024, Note_on_c, 12, 62, 0
14, 224040, Note_on_c, 12, 62, 76
14, 224144, Note_on_c, 12, 62, 0
14, 224160, Control_c, 12, 11, 80
14, 224160, Note_on_c, 12, 58, 76
14, 224160, Note_on_c, 12, 63, 76
14, 224264, Note_on_c, 12, 58, 0
14, 224264, Note_on_c, 12, 63, 0
14, 224280, Note_on_c, 12, 63, 76
14, 224280, Note_on_c, 12, 58, 76
14, 224320, Control_c, 12, 11, 82
14, 224384, Note_on_c, 12, 63, 0
14, 224384, Note_on_c, 12, 58, 0
14, 224400, Note_on_c, 12, 58, 76
14, 224400, Note_on_c, 12, 63, 76
14, 224480, Control_c, 12, 11, 84
14, 224504, Note_on_c, 12, 58, 0
14, 224504, Note_on_c, 12, 63, 0
14, 224520, Note_on_c, 12, 58, 76
14, 224520, Note_on_c, 12, 63, 76
14, 224624, Note_on_c, 12, 58, 0
14, 224624, Note_on_c, 12, 63, 0
14, 224640, Control_c, 12, 11, 86
14, 224640, Note_on_c, 12, 63, 76
14, 224640, Note_on_c, 12, 58, 76
14, 224744, Note_on_c, 12, 63, 0
14, 224744, Note_on_c, 12, 58, 0
14, 224760, Note_on_c, 12, 58, 76
14, 224760, Note_on_c, 12, 63, 76
14, 224800, Control_c, 12, 11, 88
14, 224864, Note_on_c, 12, 58, 0
14, 224864, Note_on_c, 12, 63, 0
14, 224880, Note_on_c, 12, 63, 76
14, 224880, Note_on_c, 12, 58, 76
14, 224960, Control_c, 12, 11, 90
14, 224984, Note_on_c, 12, 63, 0
14, 224984, Note_on_c, 12, 58, 0
14, 225000, Note_on_c, 12, 58, 76
14, 225000, Note_on_c, 12, 63, 76
14, 225104, Note_on_c, 12, 58, 0
14, 225104, Note_on_c, 12, 63, 0
14, 225120, Note_on_c, 12, 63, 76
14, 225120, Note_on_c, 12, 58, 76
14, 225120, Control_c, 12, 11, 92
14, 225224, Note_on_c, 12, 63, 0
14, 225224, Note_on_c, 12, 58, 0
14, 225240, Note_on_c, 12, 63, 76
14, 225240, Note_on_c, 12, 58, 76
14, 225280, Control_c, 12, 11, 94
14, 225344, Note_on_c, 12, 63, 0
14, 225344, Note_on_c, 12, 58, 0
14, 225360, Note_on_c, 12, 63, 76
14, 225360, Note_on_c, 12, 58, 76
14, 225440, Control_c, 12, 11, 96
14, 225464, Note_on_c, 12, 63, 0
14, 225464, Note_on_c, 12, 58, 0
14, 225480, Note_on_c, 12, 58, 76
14, 225480, Note_on_c, 12, 63, 76
14, 225584, Note_on_c, 12, 58, 0
14, 225584, Note_on_c, 12, 63, 0
14, 225600, Control_c, 12, 11, 98
14, 225600, Note_on_c, 12, 58, 76
14, 225600, Note_on_c, 12, 63, 76
14, 225704, Note_on_c, 12, 58, 0
14, 225704, Note_on_c, 12, 63, 0
14, 225720, Note_on_c, 12, 63, 76
14, 225720, Note_on_c, 12, 58, 76
14, 225760, Control_c, 12, 11, 100
14, 225824, Note_on_c, 12, 63, 0
14, 225824, Note_on_c, 12, 58, 0
14, 225840, Note_on_c, 12, 63, 76
14, 225840, Note_on_c, 12, 58, 76
14, 225920, Control_c, 12, 11, 102
14, 225944, Note_on_c, 12, 63, 0
14, 225944, Note_on_c, 12, 58, 0
14, 225960, Note_on_c, 12, 63, 76
14, 225960, Note_on_c, 12, 58, 76
14, 226064, Note_on_c, 12, 63, 0
14, 226064, Note_on_c, 12, 58, 0
14, 226080, Note_on_c, 12, 66, 76
14, 226080, Control_c, 12, 11, 104
14, 226184, Note_on_c, 12, 66, 0
14, 226200, Note_on_c, 12, 66, 76
14, 226240, Control_c, 12, 11, 105
14, 226304, Note_on_c, 12, 66, 0
14, 226320, Note_on_c, 12, 66, 76
14, 226400, Control_c, 12, 11, 107
14, 226424, Note_on_c, 12, 66, 0
14, 226440, Note_on_c, 12, 66, 76
14, 226544, Note_on_c, 12, 66, 0
14, 226560, Note_on_c, 12, 66, 76
14, 226560, Control_c, 12, 11, 109
14, 226664, Note_on_c, 12, 66, 0
14, 226680, Note_on_c, 12, 66, 76
14, 226720, Control_c, 12, 11, 111
14, 226784, Note_on_c, 12, 66, 0
14, 226800, Note_on_c, 12, 66, 76
14, 226880, Control_c, 12, 11, 113
14, 226904, Note_on_c, 12, 66, 0
14, 226920, Note_on_c, 12, 66, 76
14, 227024, Note_on_c, 12, 66, 0
14, 227040, Note_on_c, 12, 66, 76
14, 227040, Control_c, 12, 11, 115
14, 227144, Note_on_c, 12, 66, 0
14, 227160, Note_on_c, 12, 66, 76
14, 227200, Control_c, 12, 11, 117
14, 227264, Note_on_c, 12, 66, 0
14, 227280, Note_on_c, 12, 66, 76
14, 227360, Control_c, 12, 11, 119
14, 227384, Note_on_c, 12, 66, 0
14, 227400, Note_on_c, 12, 66, 76
14, 227504, Note_on_c, 12, 66, 0
14, 227520, Control_c, 12, 11, 121
14, 227520, Note_on_c, 12, 66, 76
14, 227624, Note_on_c, 12, 66, 0
14, 227640, Note_on_c, 12, 66, 76
14, 227680, Control_c, 12, 11, 123
14, 227744, Note_on_c, 12, 66, 0
14, 227760, Note_on_c, 12, 66, 76
14, 227840, Control_c, 12, 11, 125
14, 227864, Note_on_c, 12, 66, 0
14, 227880, Note_on_c, 12, 66, 76
14, 227984, Note_on_c, 12, 66, 0
14, 228000, Note_on_c, 12, 67, 76
14, 228000, Control_c, 12, 11, 127
14, 228224, Note_on_c, 12, 67, 0
14, 228240, Note_on_c, 12, 74, 76
14, 228329, Note_on_c, 12, 74, 0
14, 228360, Note_on_c, 12, 72, 76
14, 228449, Note_on_c, 12, 72, 0
14, 228480, Note_on_c, 12, 70, 76
14, 228569, Note_on_c, 12, 70, 0
14, 228600, Note_on_c, 12, 72, 76
14, 228689, Note_on_c, 12, 72, 0
14, 228720, Note_on_c, 12, 69, 76
14, 228809, Note_on_c, 12, 69, 0
14, 228840, Note_on_c, 12, 70, 76
14, 228929, Note_on_c, 12, 70, 0
14, 228960, Note_on_c, 12, 67, 76
14, 229049, Note_on_c, 12, 67, 0
14, 229080, Note_on_c, 12, 69, 76
14, 229169, Note_on_c, 12, 69, 0
14, 229200, Note_on_c, 12, 65, 76
14, 229289, Note_on_c, 12, 65, 0
14, 229320, Note_on_c, 12, 67, 76
14, 229409, Note_on_c, 12, 67, 0
14, 229440, Note_on_c, 12, 63, 76
14, 229529, Note_on_c, 12, 63, 0
14, 229560, Note_on_c, 12, 65, 76
14, 229649, Note_on_c, 12, 65, 0
14, 229680, Note_on_c, 12, 62, 76
14, 229769, Note_on_c, 12, 62, 0
14, 229800, Note_on_c, 12, 63, 76
14, 229889, Note_on_c, 12, 63, 0
14, 229920, Note_on_c, 12, 60, 84
14, 230624, Note_on_c, 12, 60, 0
14, 230640, Note_on_c, 12, 60, 76
14, 230699, Note_on_c, 12, 60, 0
14, 230700, Note_on_c, 12, 59, 76
14, 230759, Note_on_c, 12, 59, 0
14, 230760, Note_on_c, 12, 60, 76
14, 230819, Note_on_c, 12, 60, 0
14, 230820, Note_on_c, 12, 62, 76
14, 230871, Note_on_c, 12, 62, 0
14, 230880, Note_on_c, 12, 63, 76
14, 231059, Note_on_c, 12, 63, 0
14, 231120, Note_on_c, 12, 64, 76
14, 231299, Note_on_c, 12, 64, 0
14, 231360, Note_on_c, 12, 65, 76
14, 231539, Note_on_c, 12, 65, 0
14, 231600, Note_on_c, 12, 67, 76
14, 231779, Note_on_c, 12, 67, 0
14, 231840, Note_on_c, 12, 69, 84
14, 231959, Note_on_c, 12, 69, 0
14, 231960, Note_on_c, 12, 70, 76
14, 232064, Note_on_c, 12, 70, 0
14, 232080, Note_on_c, 12, 72, 76
14, 232169, Note_on_c, 12, 72, 0
14, 232200, Note_on_c, 12, 70, 76
14, 232289, Note_on_c, 12, 70, 0
14, 232320, Note_on_c, 12, 69, 76
14, 232409, Note_on_c, 12, 69, 0
14, 232440, Note_on_c, 12, 70, 76
14, 232529, Note_on_c, 12, 70, 0
14, 232560, Note_on_c, 12, 67, 76
14, 232649, Note_on_c, 12, 67, 0
14, 232680, Note_on_c, 12, 69, 76
14, 232769, Note_on_c, 12, 69, 0
14, 232800, Note_on_c, 12, 65, 76
14, 232889, Note_on_c, 12, 65, 0
14, 232920, Note_on_c, 12, 67, 76
14, 233009, Note_on_c, 12, 67, 0
14, 233040, Note_on_c, 12, 63, 76
14, 233129, Note_on_c, 12, 63, 0
14, 233160, Note_on_c, 12, 65, 76
14, 233249, Note_on_c, 12, 65, 0
14, 233280, Note_on_c, 12, 62, 76
14, 233369, Note_on_c, 12, 62, 0
14, 233400, Note_on_c, 12, 63, 76
14, 233489, Note_on_c, 12, 63, 0
14, 233520, Note_on_c, 12, 60, 76
14, 233609, Note_on_c, 12, 60, 0
14, 233640, Note_on_c, 12, 62, 76
14, 233729, Note_on_c, 12, 62, 0
14, 233760, Note_on_c, 12, 58, 84
14, 234464, Note_on_c, 12, 58, 0
14, 234480, Note_on_c, 12, 58, 76
14, 234539, Note_on_c, 12, 58, 0
14, 234540, Note_on_c, 12, 57, 76
14, 234599, Note_on_c, 12, 57, 0
14, 234600, Note_on_c, 12, 58, 76
14, 234659, Note_on_c, 12, 58, 0
14, 234660, Note_on_c, 12, 60, 76
14, 234711, Note_on_c, 12, 60, 0
14, 234720, Note_on_c, 12, 62, 76
14, 234899, Note_on_c, 12, 62, 0
14, 234960, Note_on_c, 12, 62, 76
14, 235139, Note_on_c, 12, 62, 0
14, 235200, Note_on_c, 12, 64, 76
14, 235379, Note_on_c, 12, 64, 0
14, 235440, Note_on_c, 12, 65, 76
14, 235619, Note_on_c, 12, 65, 0
14, 235680, Note_on_c, 12, 67, 84
14, 235799, Note_on_c, 12, 67, 0
14, 235800, Note_on_c, 12, 69, 76
14, 235904, Note_on_c, 12, 69, 0
14, 235920, Note_on_c, 12, 65, 76
14, 236009, Note_on_c, 12, 65, 0
14, 236040, Note_on_c, 12, 67, 76
14, 236129, Note_on_c, 12, 67, 0
14, 236160, Note_on_c, 12, 64, 76
14, 236249, Note_on_c, 12, 64, 0
14, 236280, Note_on_c, 12, 65, 76
14, 236369, Note_on_c, 12, 65, 0
14, 236400, Note_on_c, 12, 62, 76
14, 236489, Note_on_c, 12, 62, 0
14, 236520, Note_on_c, 12, 64, 76
14, 236609, Note_on_c, 12, 64, 0
14, 236640, Note_on_c, 12, 61, 84
14, 237584, Note_on_c, 12, 61, 0
14, 237600, Note_on_c, 12, 65, 84
14, 237719, Note_on_c, 12, 65, 0
14, 237720, Note_on_c, 12, 67, 76
14, 237824, Note_on_c, 12, 67, 0
14, 237840, Note_on_c, 12, 64, 76
14, 237929, Note_on_c, 12, 64, 0
14, 237960, Note_on_c, 12, 65, 76
14, 238049, Note_on_c, 12, 65, 0
14, 238080, Note_on_c, 12, 62, 76
14, 238169, Note_on_c, 12, 62, 0
14, 238200, Note_on_c, 12, 64, 76
14, 238289, Note_on_c, 12, 64, 0
14, 238320, Note_on_c, 12, 60, 76
14, 238409, Note_on_c, 12, 60, 0
14, 238440, Note_on_c, 12, 62, 76
14, 238529, Note_on_c, 12, 62, 0
14, 238560, Note_on_c, 12, 59, 84
14, 239504, Note_on_c, 12, 59, 0
14, 239520, Note_on_c, 12, 55, 84
14, 239520, Note_on_c, 12, 64, 84
14, 241424, Note_on_c, 12, 55, 0
14, 241424, Note_on_c, 12, 64, 0
14, 241440, Note_on_c, 12, 64, 92
14, 241440, Note_on_c, 12, 55, 92
14, 243344, Note_on_c, 12, 64, 0
14, 243344, Note_on_c, 12, 55, 0
14, 243360, Note_on_c, 12, 64, 92
14, 243360, Note_on_c, 12, 55, 92
14, 244304, Note_on_c, 12, 64, 0
14, 244304, Note_on_c, 12, 55, 0
14, 244320, Note_on_c, 12, 55, 92
14, 244320, Note_on_c, 12, 64, 92
14, 245024, Note_on_c, 12, 55, 0
14, 245024, Note_on_c, 12, 64, 0
14, 245040, Note_on_c, 12, 62, 84
14, 245099, Note_on_c, 12, 62, 0
14, 245100, Note_on_c, 12, 61, 84
14, 245159, Note_on_c, 12, 61, 0
14, 245160, Note_on_c, 12, 62, 84
14, 245219, Note_on_c, 12, 62, 0
14, 245220, Note_on_c, 12, 64, 84
14, 245271, Note_on_c, 12, 64, 0
14, 245280, Note_on_c, 12, 57, 92
14, 245280, Note_on_c, 12, 65, 92
14, 246224, Note_on_c, 12, 57, 0
14, 246224, Note_on_c, 12, 65, 0
14, 246240, Note_on_c, 12, 56, 92
14, 246240, Note_on_c, 12, 65, 92
14, 247184, Note_on_c, 12, 56, 0
14, 247184, Note_on_c, 12, 65, 0
14, 247200, Note_on_c, 12, 55, 84
14, 247200, Note_on_c, 12, 65, 84
14, 247251, Note_on_c, 12, 55, 0
14, 247251, Note_on_c, 12, 65, 0
14, 247260, Note_on_c, 12, 74, 84
14, 247311, Note_on_c, 12, 74, 0
14, 247320, Note_on_c, 12, 74, 84
14, 247371, Note_on_c, 12, 74, 0
14, 247380, Note_on_c, 12, 74, 84
14, 247431, Note_on_c, 12, 74, 0
14, 247440, Note_on_c, 12, 74, 84
14, 247491, Note_on_c, 12, 74, 0
14, 247500, Note_on_c, 12, 74, 84
14, 247551, Note_on_c, 12, 74, 0
14, 247560, Note_on_c, 12, 74, 84
14, 247611, Note_on_c, 12, 74, 0
14, 247620, Note_on_c, 12, 74, 84
14, 247671, Note_on_c, 12, 74, 0
14, 247680, Note_on_c, 12, 74, 84
14, 247731, Note_on_c, 12, 74, 0
14, 247740, Note_on_c, 12, 74, 84
14, 247791, Note_on_c, 12, 74, 0
14, 247800, Note_on_c, 12, 74, 84
14, 247851, Note_on_c, 12, 74, 0
14, 247860, Note_on_c, 12, 74, 84
14, 247911, Note_on_c, 12, 74, 0
14, 247920, Note_on_c, 12, 74, 84
14, 247971, Note_on_c, 12, 74, 0
14, 247980, Note_on_c, 12, 74, 84
14, 248031, Note_on_c, 12, 74, 0
14, 248040, Note_on_c, 12, 74, 84
14, 248091, Note_on_c, 12, 74, 0
14, 248100, Note_on_c, 12, 74, 84
14, 248151, Note_on_c, 12, 74, 0
14, 248160, Note_on_c, 12, 74, 84
14, 248211, Note_on_c, 12, 74, 0
14, 248220, Note_on_c, 12, 74, 84
14, 248271, Note_on_c, 12, 74, 0
14, 248280, Note_on_c, 12, 74, 84
14, 248331, Note_on_c, 12, 74, 0
14, 248340, Note_on_c, 12, 74, 84
14, 248391, Note_on_c, 12, 74, 0
14, 248400, Note_on_c, 12, 74, 84
14, 248451, Note_on_c, 12, 74, 0
14, 248460, Note_on_c, 12, 74, 84
14, 248511, Note_on_c, 12, 74, 0
14, 248520, Note_on_c, 12, 74, 84
14, 248571, Note_on_c, 12, 74, 0
14, 248580, Note_on_c, 12, 74, 84
14, 248631, Note_on_c, 12, 74, 0
14, 248640, Note_on_c, 12, 72, 84
14, 248691, Note_on_c, 12, 72, 0
14, 248700, Note_on_c, 12, 72, 84
14, 248751, Note_on_c, 12, 72, 0
14, 248760, Note_on_c, 12, 72, 84
14, 248811, Note_on_c, 12, 72, 0
14, 248820, Note_on_c, 12, 72, 84
14, 248871, Note_on_c, 12, 72, 0
14, 248880, Note_on_c, 12, 72, 84
14, 248931, Note_on_c, 12, 72, 0
14, 248940, Note_on_c, 12, 72, 84
14, 248991, Note_on_c, 12, 72, 0
14, 249000, Note_on_c, 12, 72, 84
14, 249051, Note_on_c, 12, 72, 0
14, 249060, Note_on_c, 12, 72, 84
14, 249111, Note_on_c, 12, 72, 0
14, 249120, Note_on_c, 12, 72, 84
14, 249171, Note_on_c, 12, 72, 0
14, 249180, Note_on_c, 12, 72, 84
14, 249231, Note_on_c, 12, 72, 0
14, 249240, Note_on_c, 12, 72, 84
14, 249291, Note_on_c, 12, 72, 0
14, 249300, Note_on_c, 12, 72, 84
14, 249351, Note_on_c, 12, 72, 0
14, 249360, Note_on_c, 12, 72, 84
14, 249411, Note_on_c, 12, 72, 0
14, 249420, Note_on_c, 12, 72, 84
14, 249471, Note_on_c, 12, 72, 0
14, 249480, Note_on_c, 12, 72, 84
14, 249531, Note_on_c, 12, 72, 0
14, 249540, Note_on_c, 12, 72, 84
14, 249591, Note_on_c, 12, 72, 0
14, 249600, Note_on_c, 12, 71, 84
14, 249651, Note_on_c, 12, 71, 0
14, 249660, Note_on_c, 12, 71, 84
14, 249711, Note_on_c, 12, 71, 0
14, 249720, Note_on_c, 12, 71, 84
14, 249771, Note_on_c, 12, 71, 0
14, 249780, Note_on_c, 12, 71, 84
14, 249831, Note_on_c, 12, 71, 0
14, 249840, Note_on_c, 12, 71, 84
14, 249891, Note_on_c, 12, 71, 0
14, 249900, Note_on_c, 12, 71, 84
14, 249951, Note_on_c, 12, 71, 0
14, 249960, Note_on_c, 12, 71, 84
14, 250011, Note_on_c, 12, 71, 0
14, 250020, Note_on_c, 12, 71, 84
14, 250071, Note_on_c, 12, 71, 0
14, 250080, Note_on_c, 12, 71, 84
14, 250131, Note_on_c, 12, 71, 0
14, 250140, Note_on_c, 12, 71, 84
14, 250191, Note_on_c, 12, 71, 0
14, 250200, Note_on_c, 12, 71, 84
14, 250251, Note_on_c, 12, 71, 0
14, 250260, Note_on_c, 12, 71, 84
14, 250311, Note_on_c, 12, 71, 0
14, 250320, Note_on_c, 12, 71, 84
14, 250371, Note_on_c, 12, 71, 0
14, 250380, Note_on_c, 12, 71, 84
14, 250431, Note_on_c, 12, 71, 0
14, 250440, Note_on_c, 12, 71, 84
14, 250491, Note_on_c, 12, 71, 0
14, 250500, Note_on_c, 12, 71, 84
14, 250551, Note_on_c, 12, 71, 0
14, 250560, Note_on_c, 12, 69, 84
14, 250611, Note_on_c, 12, 69, 0
14, 250620, Note_on_c, 12, 69, 84
14, 250671, Note_on_c, 12, 69, 0
14, 250680, Note_on_c, 12, 69, 84
14, 250731, Note_on_c, 12, 69, 0
14, 250740, Note_on_c, 12, 69, 84
14, 250791, Note_on_c, 12, 69, 0
14, 250800, Note_on_c, 12, 69, 84
14, 250851, Note_on_c, 12, 69, 0
14, 250860, Note_on_c, 12, 69, 84
14, 250911, Note_on_c, 12, 69, 0
14, 250920, Note_on_c, 12, 69, 84
14, 250971, Note_on_c, 12, 69, 0
14, 250980, Note_on_c, 12, 69, 84
14, 251031, Note_on_c, 12, 69, 0
14, 251040, Note_on_c, 12, 69, 92
14, 251091, Note_on_c, 12, 69, 0
14, 251100, Note_on_c, 12, 62, 84
14, 251100, Note_on_c, 12, 60, 84
14, 251151, Note_on_c, 12, 62, 0
14, 251151, Note_on_c, 12, 60, 0
14, 251160, Note_on_c, 12, 60, 84
14, 251160, Note_on_c, 12, 62, 84
14, 251211, Note_on_c, 12, 60, 0
14, 251211, Note_on_c, 12, 62, 0
14, 251220, Note_on_c, 12, 60, 84
14, 251220, Note_on_c, 12, 62, 84
14, 251271, Note_on_c, 12, 60, 0
14, 251271, Note_on_c, 12, 62, 0
14, 251280, Note_on_c, 12, 60, 84
14, 251280, Note_on_c, 12, 62, 84
14, 251331, Note_on_c, 12, 60, 0
14, 251331, Note_on_c, 12, 62, 0
14, 251340, Note_on_c, 12, 60, 84
14, 251340, Note_on_c, 12, 62, 84
14, 251391, Note_on_c, 12, 60, 0
14, 251391, Note_on_c, 12, 62, 0
14, 251400, Note_on_c, 12, 60, 84
14, 251400, Note_on_c, 12, 62, 84
14, 251451, Note_on_c, 12, 60, 0
14, 251451, Note_on_c, 12, 62, 0
14, 251460, Note_on_c, 12, 60, 84
14, 251460, Note_on_c, 12, 62, 84
14, 251511, Note_on_c, 12, 60, 0
14, 251511, Note_on_c, 12, 62, 0
14, 251520, Note_on_c, 12, 62, 84
14, 251520, Note_on_c, 12, 60, 84
14, 251571, Note_on_c, 12, 62, 0
14, 251571, Note_on_c, 12, 60, 0
14, 251580, Note_on_c, 12, 62, 84
14, 251580, Note_on_c, 12, 60, 84
14, 251631, Note_on_c, 12, 62, 0
14, 251631, Note_on_c, 12, 60, 0
14, 251640, Note_on_c, 12, 60, 84
14, 251640, Note_on_c, 12, 62, 84
14, 251691, Note_on_c, 12, 60, 0
14, 251691, Note_on_c, 12, 62, 0
14, 251700, Note_on_c, 12, 62, 84
14, 251700, Note_on_c, 12, 60, 84
14, 251751, Note_on_c, 12, 62, 0
14, 251751, Note_on_c, 12, 60, 0
14, 251760, Note_on_c, 12, 62, 84
14, 251760, Note_on_c, 12, 60, 84
14, 251811, Note_on_c, 12, 62, 0
14, 251811, Note_on_c, 12, 60, 0
14, 251820, Note_on_c, 12, 62, 84
14, 251820, Note_on_c, 12, 60, 84
14, 251871, Note_on_c, 12, 62, 0
14, 251871, Note_on_c, 12, 60, 0
14, 251880, Note_on_c, 12, 60, 84
14, 251880, Note_on_c, 12, 62, 84
14, 251931, Note_on_c, 12, 60, 0
14, 251931, Note_on_c, 12, 62, 0
14, 251940, Note_on_c, 12, 62, 84
14, 251940, Note_on_c, 12, 60, 84
14, 251991, Note_on_c, 12, 62, 0
14, 251991, Note_on_c, 12, 60, 0
14, 252000, Note_on_c, 12, 60, 84
14, 252000, Note_on_c, 12, 62, 84
14, 252051, Note_on_c, 12, 60, 0
14, 252051, Note_on_c, 12, 62, 0
14, 252060, Note_on_c, 12, 62, 84
14, 252060, Note_on_c, 12, 60, 84
14, 252111, Note_on_c, 12, 62, 0
14, 252111, Note_on_c, 12, 60, 0
14, 252120, Note_on_c, 12, 62, 84
14, 252120, Note_on_c, 12, 60, 84
14, 252171, Note_on_c, 12, 62, 0
14, 252171, Note_on_c, 12, 60, 0
14, 252180, Note_on_c, 12, 62, 84
14, 252180, Note_on_c, 12, 60, 84
14, 252231, Note_on_c, 12, 62, 0
14, 252231, Note_on_c, 12, 60, 0
14, 252240, Note_on_c, 12, 60, 84
14, 252240, Note_on_c, 12, 62, 84
14, 252291, Note_on_c, 12, 60, 0
14, 252291, Note_on_c, 12, 62, 0
14, 252300, Note_on_c, 12, 60, 84
14, 252300, Note_on_c, 12, 62, 84
14, 252351, Note_on_c, 12, 60, 0
14, 252351, Note_on_c, 12, 62, 0
14, 252360, Note_on_c, 12, 62, 84
14, 252360, Note_on_c, 12, 60, 84
14, 252411, Note_on_c, 12, 62, 0
14, 252411, Note_on_c, 12, 60, 0
14, 252420, Note_on_c, 12, 62, 84
14, 252420, Note_on_c, 12, 60, 84
14, 252471, Note_on_c, 12, 62, 0
14, 252471, Note_on_c, 12, 60, 0
14, 252480, Note_on_c, 12, 60, 84
14, 252480, Note_on_c, 12, 62, 84
14, 252531, Note_on_c, 12, 60, 0
14, 252531, Note_on_c, 12, 62, 0
14, 252540, Note_on_c, 12, 60, 84
14, 252540, Note_on_c, 12, 62, 84
14, 252591, Note_on_c, 12, 60, 0
14, 252591, Note_on_c, 12, 62, 0
14, 252600, Note_on_c, 12, 60, 84
14, 252600, Note_on_c, 12, 62, 84
14, 252651, Note_on_c, 12, 60, 0
14, 252651, Note_on_c, 12, 62, 0
14, 252660, Note_on_c, 12, 62, 84
14, 252660, Note_on_c, 12, 60, 84
14, 252711, Note_on_c, 12, 62, 0
14, 252711, Note_on_c, 12, 60, 0
14, 252720, Note_on_c, 12, 62, 84
14, 252720, Note_on_c, 12, 60, 84
14, 252771, Note_on_c, 12, 62, 0
14, 252771, Note_on_c, 12, 60, 0
14, 252780, Note_on_c, 12, 62, 84
14, 252780, Note_on_c, 12, 60, 84
14, 252831, Note_on_c, 12, 62, 0
14, 252831, Note_on_c, 12, 60, 0
14, 252840, Note_on_c, 12, 62, 84
14, 252840, Note_on_c, 12, 60, 84
14, 252891, Note_on_c, 12, 62, 0
14, 252891, Note_on_c, 12, 60, 0
14, 252900, Note_on_c, 12, 62, 84
14, 252900, Note_on_c, 12, 60, 84
14, 252951, Note_on_c, 12, 62, 0
14, 252951, Note_on_c, 12, 60, 0
14, 252960, Note_on_c, 12, 60, 92
14, 252960, Note_on_c, 12, 62, 92
14, 253011, Note_on_c, 12, 60, 0
14, 253011, Note_on_c, 12, 62, 0
14, 253020, Note_on_c, 12, 60, 84
14, 253020, Note_on_c, 12, 62, 84
14, 253071, Note_on_c, 12, 60, 0
14, 253071, Note_on_c, 12, 62, 0
14, 253080, Note_on_c, 12, 60, 84
14, 253080, Note_on_c, 12, 62, 84
14, 253131, Note_on_c, 12, 60, 0
14, 253131, Note_on_c, 12, 62, 0
14, 253140, Note_on_c, 12, 60, 84
14, 253140, Note_on_c, 12, 62, 84
14, 253191, Note_on_c, 12, 60, 0
14, 253191, Note_on_c, 12, 62, 0
14, 253200, Note_on_c, 12, 62, 84
14, 253200, Note_on_c, 12, 60, 84
14, 253251, Note_on_c, 12, 62, 0
14, 253251, Note_on_c, 12, 60, 0
14, 253260, Note_on_c, 12, 60, 84
14, 253260, Note_on_c, 12, 62, 84
14, 253311, Note_on_c, 12, 60, 0
14, 253311, Note_on_c, 12, 62, 0
14, 253320, Note_on_c, 12, 60, 84
14, 253320, Note_on_c, 12, 62, 84
14, 253371, Note_on_c, 12, 60, 0
14, 253371, Note_on_c, 12, 62, 0
14, 253380, Note_on_c, 12, 60, 84
14, 253380, Note_on_c, 12, 62, 84
14, 253431, Note_on_c, 12, 60, 0
14, 253431, Note_on_c, 12, 62, 0
14, 253440, Note_on_c, 12, 62, 84
14, 253440, Note_on_c, 12, 60, 84
14, 253491, Note_on_c, 12, 62, 0
14, 253491, Note_on_c, 12, 60, 0
14, 253500, Note_on_c, 12, 60, 84
14, 253500, Note_on_c, 12, 62, 84
14, 253551, Note_on_c, 12, 60, 0
14, 253551, Note_on_c, 12, 62, 0
14, 253560, Note_on_c, 12, 60, 84
14, 253560, Note_on_c, 12, 62, 84
14, 253611, Note_on_c, 12, 60, 0
14, 253611, Note_on_c, 12, 62, 0
14, 253620, Note_on_c, 12, 60, 84
14, 253620, Note_on_c, 12, 62, 84
14, 253671, Note_on_c, 12, 60, 0
14, 253671, Note_on_c, 12, 62, 0
14, 253680, Note_on_c, 12, 60, 84
14, 253680, Note_on_c, 12, 62, 84
14, 253731, Note_on_c, 12, 60, 0
14, 253731, Note_on_c, 12, 62, 0
14, 253740, Note_on_c, 12, 62, 84
14, 253740, Note_on_c, 12, 60, 84
14, 253791, Note_on_c, 12, 62, 0
14, 253791, Note_on_c, 12, 60, 0
14, 253800, Note_on_c, 12, 62, 84
14, 253800, Note_on_c, 12, 60, 84
14, 253851, Note_on_c, 12, 62, 0
14, 253851, Note_on_c, 12, 60, 0
14, 253860, Note_on_c, 12, 62, 84
14, 253860, Note_on_c, 12, 60, 84
14, 253911, Note_on_c, 12, 62, 0
14, 253911, Note_on_c, 12, 60, 0
14, 253920, Note_on_c, 12, 62, 84
14, 253920, Note_on_c, 12, 60, 84
14, 253971, Note_on_c, 12, 62, 0
14, 253971, Note_on_c, 12, 60, 0
14, 253980, Note_on_c, 12, 60, 84
14, 253980, Note_on_c, 12, 62, 84
14, 254031, Note_on_c, 12, 60, 0
14, 254031, Note_on_c, 12, 62, 0
14, 254040, Note_on_c, 12, 60, 84
14, 254040, Note_on_c, 12, 62, 84
14, 254091, Note_on_c, 12, 60, 0
14, 254091, Note_on_c, 12, 62, 0
14, 254100, Note_on_c, 12, 62, 84
14, 254100, Note_on_c, 12, 60, 84
14, 254151, Note_on_c, 12, 62, 0
14, 254151, Note_on_c, 12, 60, 0
14, 254160, Note_on_c, 12, 62, 84
14, 254160, Note_on_c, 12, 60, 84
14, 254211, Note_on_c, 12, 62, 0
14, 254211, Note_on_c, 12, 60, 0
14, 254220, Note_on_c, 12, 62, 84
14, 254220, Note_on_c, 12, 60, 84
14, 254271, Note_on_c, 12, 62, 0
14, 254271, Note_on_c, 12, 60, 0
14, 254280, Note_on_c, 12, 62, 84
14, 254280, Note_on_c, 12, 60, 84
14, 254331, Note_on_c, 12, 62, 0
14, 254331, Note_on_c, 12, 60, 0
14, 254340, Note_on_c, 12, 62, 84
14, 254340, Note_on_c, 12, 60, 84
14, 254391, Note_on_c, 12, 62, 0
14, 254391, Note_on_c, 12, 60, 0
14, 254400, Note_on_c, 12, 62, 84
14, 254400, Note_on_c, 12, 60, 84
14, 254451, Note_on_c, 12, 62, 0
14, 254451, Note_on_c, 12, 60, 0
14, 254460, Note_on_c, 12, 60, 84
14, 254460, Note_on_c, 12, 62, 84
14, 254511, Note_on_c, 12, 60, 0
14, 254511, Note_on_c, 12, 62, 0
14, 254520, Note_on_c, 12, 62, 84
14, 254520, Note_on_c, 12, 60, 84
14, 254571, Note_on_c, 12, 62, 0
14, 254571, Note_on_c, 12, 60, 0
14, 254580, Note_on_c, 12, 60, 84
14, 254580, Note_on_c, 12, 62, 84
14, 254631, Note_on_c, 12, 60, 0
14, 254631, Note_on_c, 12, 62, 0
14, 254640, Note_on_c, 12, 60, 84
14, 254640, Note_on_c, 12, 62, 84
14, 254691, Note_on_c, 12, 60, 0
14, 254691, Note_on_c, 12, 62, 0
14, 254700, Note_on_c, 12, 60, 84
14, 254700, Note_on_c, 12, 62, 84
14, 254751, Note_on_c, 12, 60, 0
14, 254751, Note_on_c, 12, 62, 0
14, 254760, Note_on_c, 12, 62, 84
14, 254760, Note_on_c, 12, 60, 84
14, 254811, Note_on_c, 12, 62, 0
14, 254811, Note_on_c, 12, 60, 0
14, 254820, Note_on_c, 12, 62, 84
14, 254820, Note_on_c, 12, 60, 84
14, 254871, Note_on_c, 12, 62, 0
14, 254871, Note_on_c, 12, 60, 0
14, 254880, Note_on_c, 12, 62, 92
14, 254880, Note_on_c, 12, 60, 92
14, 254931, Note_on_c, 12, 62, 0
14, 254931, Note_on_c, 12, 60, 0
14, 254940, Note_on_c, 12, 62, 84
14, 254940, Note_on_c, 12, 60, 84
14, 254991, Note_on_c, 12, 62, 0
14, 254991, Note_on_c, 12, 60, 0
14, 255000, Note_on_c, 12, 62, 84
14, 255000, Note_on_c, 12, 60, 84
14, 255051, Note_on_c, 12, 62, 0
14, 255051, Note_on_c, 12, 60, 0
14, 255060, Note_on_c, 12, 62, 84
14, 255060, Note_on_c, 12, 60, 84
14, 255111, Note_on_c, 12, 62, 0
14, 255111, Note_on_c, 12, 60, 0
14, 255120, Note_on_c, 12, 62, 84
14, 255120, Note_on_c, 12, 60, 84
14, 255171, Note_on_c, 12, 62, 0
14, 255171, Note_on_c, 12, 60, 0
14, 255180, Note_on_c, 12, 62, 84
14, 255180, Note_on_c, 12, 60, 84
14, 255231, Note_on_c, 12, 62, 0
14, 255231, Note_on_c, 12, 60, 0
14, 255240, Note_on_c, 12, 60, 84
14, 255240, Note_on_c, 12, 62, 84
14, 255291, Note_on_c, 12, 60, 0
14, 255291, Note_on_c, 12, 62, 0
14, 255300, Note_on_c, 12, 62, 84
14, 255300, Note_on_c, 12, 60, 84
14, 255351, Note_on_c, 12, 62, 0
14, 255351, Note_on_c, 12, 60, 0
14, 255360, Note_on_c, 12, 62, 84
14, 255360, Note_on_c, 12, 60, 84
14, 255411, Note_on_c, 12, 62, 0
14, 255411, Note_on_c, 12, 60, 0
14, 255420, Note_on_c, 12, 62, 84
14, 255420, Note_on_c, 12, 60, 84
14, 255471, Note_on_c, 12, 62, 0
14, 255471, Note_on_c, 12, 60, 0
14, 255480, Note_on_c, 12, 60, 84
14, 255480, Note_on_c, 12, 62, 84
14, 255531, Note_on_c, 12, 60, 0
14, 255531, Note_on_c, 12, 62, 0
14, 255540, Note_on_c, 12, 62, 84
14, 255540, Note_on_c, 12, 60, 84
14, 255591, Note_on_c, 12, 62, 0
14, 255591, Note_on_c, 12, 60, 0
14, 255600, Note_on_c, 12, 62, 84
14, 255600, Note_on_c, 12, 60, 84
14, 255651, Note_on_c, 12, 62, 0
14, 255651, Note_on_c, 12, 60, 0
14, 255660, Note_on_c, 12, 60, 84
14, 255660, Note_on_c, 12, 62, 84
14, 255711, Note_on_c, 12, 60, 0
14, 255711, Note_on_c, 12, 62, 0
14, 255720, Note_on_c, 12, 62, 84
14, 255720, Note_on_c, 12, 60, 84
14, 255771, Note_on_c, 12, 62, 0
14, 255771, Note_on_c, 12, 60, 0
14, 255780, Note_on_c, 12, 60, 84
14, 255780, Note_on_c, 12, 62, 84
14, 255831, Note_on_c, 12, 60, 0
14, 255831, Note_on_c, 12, 62, 0
14, 255840, Note_on_c, 12, 62, 84
14, 255840, Note_on_c, 12, 60, 84
14, 255891, Note_on_c, 12, 62, 0
14, 255891, Note_on_c, 12, 60, 0
14, 255900, Note_on_c, 12, 62, 84
14, 255900, Note_on_c, 12, 60, 84
14, 255951, Note_on_c, 12, 62, 0
14, 255951, Note_on_c, 12, 60, 0
14, 255960, Note_on_c, 12, 60, 84
14, 255960, Note_on_c, 12, 62, 84
14, 256011, Note_on_c, 12, 60, 0
14, 256011, Note_on_c, 12, 62, 0
14, 256020, Note_on_c, 12, 60, 84
14, 256020, Note_on_c, 12, 62, 84
14, 256071, Note_on_c, 12, 60, 0
14, 256071, Note_on_c, 12, 62, 0
14, 256080, Note_on_c, 12, 60, 84
14, 256080, Note_on_c, 12, 62, 84
14, 256131, Note_on_c, 12, 60, 0
14, 256131, Note_on_c, 12, 62, 0
14, 256140, Note_on_c, 12, 62, 84
14, 256140, Note_on_c, 12, 60, 84
14, 256191, Note_on_c, 12, 62, 0
14, 256191, Note_on_c, 12, 60, 0
14, 256200, Note_on_c, 12, 62, 84
14, 256200, Note_on_c, 12, 60, 84
14, 256251, Note_on_c, 12, 62, 0
14, 256251, Note_on_c, 12, 60, 0
14, 256260, Note_on_c, 12, 60, 84
14, 256260, Note_on_c, 12, 62, 84
14, 256311, Note_on_c, 12, 60, 0
14, 256311, Note_on_c, 12, 62, 0
14, 256320, Note_on_c, 12, 60, 84
14, 256320, Note_on_c, 12, 62, 84
14, 256371, Note_on_c, 12, 60, 0
14, 256371, Note_on_c, 12, 62, 0
14, 256380, Note_on_c, 12, 62, 84
14, 256380, Note_on_c, 12, 60, 84
14, 256431, Note_on_c, 12, 62, 0
14, 256431, Note_on_c, 12, 60, 0
14, 256440, Note_on_c, 12, 62, 84
14, 256440, Note_on_c, 12, 60, 84
14, 256491, Note_on_c, 12, 62, 0
14, 256491, Note_on_c, 12, 60, 0
14, 256500, Note_on_c, 12, 60, 84
14, 256500, Note_on_c, 12, 62, 84
14, 256551, Note_on_c, 12, 60, 0
14, 256551, Note_on_c, 12, 62, 0
14, 256560, Note_on_c, 12, 62, 84
14, 256560, Note_on_c, 12, 60, 84
14, 256611, Note_on_c, 12, 62, 0
14, 256611, Note_on_c, 12, 60, 0
14, 256620, Note_on_c, 12, 60, 84
14, 256620, Note_on_c, 12, 62, 84
14, 256671, Note_on_c, 12, 60, 0
14, 256671, Note_on_c, 12, 62, 0
14, 256680, Note_on_c, 12, 60, 84
14, 256680, Note_on_c, 12, 62, 84
14, 256731, Note_on_c, 12, 60, 0
14, 256731, Note_on_c, 12, 62, 0
14, 256740, Note_on_c, 12, 60, 84
14, 256740, Note_on_c, 12, 62, 84
14, 256791, Note_on_c, 12, 60, 0
14, 256791, Note_on_c, 12, 62, 0
14, 256800, Note_on_c, 12, 62, 92
14, 256800, Note_on_c, 12, 60, 92
14, 256851, Note_on_c, 12, 62, 0
14, 256851, Note_on_c, 12, 60, 0
14, 256860, Note_on_c, 12, 62, 84
14, 256860, Note_on_c, 12, 60, 84
14, 256911, Note_on_c, 12, 62, 0
14, 256911, Note_on_c, 12, 60, 0
14, 256920, Note_on_c, 12, 62, 84
14, 256920, Note_on_c, 12, 60, 84
14, 256971, Note_on_c, 12, 62, 0
14, 256971, Note_on_c, 12, 60, 0
14, 256980, Note_on_c, 12, 60, 84
14, 256980, Note_on_c, 12, 62, 84
14, 257031, Note_on_c, 12, 60, 0
14, 257031, Note_on_c, 12, 62, 0
14, 257040, Note_on_c, 12, 62, 84
14, 257040, Note_on_c, 12, 60, 84
14, 257091, Note_on_c, 12, 62, 0
14, 257091, Note_on_c, 12, 60, 0
14, 257100, Note_on_c, 12, 62, 84
14, 257100, Note_on_c, 12, 60, 84
14, 257151, Note_on_c, 12, 62, 0
14, 257151, Note_on_c, 12, 60, 0
14, 257160, Note_on_c, 12, 60, 84
14, 257160, Note_on_c, 12, 62, 84
14, 257211, Note_on_c, 12, 60, 0
14, 257211, Note_on_c, 12, 62, 0
14, 257220, Note_on_c, 12, 60, 84
14, 257220, Note_on_c, 12, 62, 84
14, 257271, Note_on_c, 12, 60, 0
14, 257271, Note_on_c, 12, 62, 0
14, 257280, Note_on_c, 12, 60, 84
14, 257280, Note_on_c, 12, 62, 84
14, 257331, Note_on_c, 12, 60, 0
14, 257331, Note_on_c, 12, 62, 0
14, 257340, Note_on_c, 12, 62, 84
14, 257340, Note_on_c, 12, 60, 84
14, 257391, Note_on_c, 12, 62, 0
14, 257391, Note_on_c, 12, 60, 0
14, 257400, Note_on_c, 12, 60, 84
14, 257400, Note_on_c, 12, 62, 84
14, 257451, Note_on_c, 12, 60, 0
14, 257451, Note_on_c, 12, 62, 0
14, 257460, Note_on_c, 12, 62, 84
14, 257460, Note_on_c, 12, 60, 84
14, 257511, Note_on_c, 12, 62, 0
14, 257511, Note_on_c, 12, 60, 0
14, 257520, Note_on_c, 12, 62, 84
14, 257520, Note_on_c, 12, 60, 84
14, 257571, Note_on_c, 12, 62, 0
14, 257571, Note_on_c, 12, 60, 0
14, 257580, Note_on_c, 12, 60, 84
14, 257580, Note_on_c, 12, 62, 84
14, 257631, Note_on_c, 12, 60, 0
14, 257631, Note_on_c, 12, 62, 0
14, 257640, Note_on_c, 12, 60, 84
14, 257640, Note_on_c, 12, 62, 84
14, 257691, Note_on_c, 12, 60, 0
14, 257691, Note_on_c, 12, 62, 0
14, 257700, Note_on_c, 12, 62, 84
14, 257700, Note_on_c, 12, 60, 84
14, 257751, Note_on_c, 12, 62, 0
14, 257751, Note_on_c, 12, 60, 0
14, 257760, Note_on_c, 12, 60, 84
14, 257760, Note_on_c, 12, 62, 84
14, 257811, Note_on_c, 12, 60, 0
14, 257811, Note_on_c, 12, 62, 0
14, 257820, Note_on_c, 12, 60, 84
14, 257820, Note_on_c, 12, 62, 84
14, 257871, Note_on_c, 12, 60, 0
14, 257871, Note_on_c, 12, 62, 0
14, 257880, Note_on_c, 12, 60, 84
14, 257880, Note_on_c, 12, 62, 84
14, 257931, Note_on_c, 12, 60, 0
14, 257931, Note_on_c, 12, 62, 0
14, 257940, Note_on_c, 12, 60, 84
14, 257940, Note_on_c, 12, 62, 84
14, 257991, Note_on_c, 12, 60, 0
14, 257991, Note_on_c, 12, 62, 0
14, 258000, Note_on_c, 12, 62, 84
14, 258000, Note_on_c, 12, 60, 84
14, 258051, Note_on_c, 12, 62, 0
14, 258051, Note_on_c, 12, 60, 0
14, 258060, Note_on_c, 12, 60, 84
14, 258060, Note_on_c, 12, 62, 84
14, 258111, Note_on_c, 12, 60, 0
14, 258111, Note_on_c, 12, 62, 0
14, 258120, Note_on_c, 12, 60, 84
14, 258120, Note_on_c, 12, 62, 84
14, 258171, Note_on_c, 12, 60, 0
14, 258171, Note_on_c, 12, 62, 0
14, 258180, Note_on_c, 12, 60, 84
14, 258180, Note_on_c, 12, 62, 84
14, 258231, Note_on_c, 12, 60, 0
14, 258231, Note_on_c, 12, 62, 0
14, 258240, Note_on_c, 12, 60, 84
14, 258240, Note_on_c, 12, 62, 84
14, 258291, Note_on_c, 12, 60, 0
14, 258291, Note_on_c, 12, 62, 0
14, 258300, Note_on_c, 12, 62, 84
14, 258300, Note_on_c, 12, 60, 84
14, 258351, Note_on_c, 12, 62, 0
14, 258351, Note_on_c, 12, 60, 0
14, 258360, Note_on_c, 12, 60, 84
14, 258360, Note_on_c, 12, 62, 84
14, 258411, Note_on_c, 12, 60, 0
14, 258411, Note_on_c, 12, 62, 0
14, 258420, Note_on_c, 12, 62, 84
14, 258420, Note_on_c, 12, 60, 84
14, 258471, Note_on_c, 12, 62, 0
14, 258471, Note_on_c, 12, 60, 0
14, 258480, Note_on_c, 12, 62, 84
14, 258480, Note_on_c, 12, 60, 84
14, 258531, Note_on_c, 12, 62, 0
14, 258531, Note_on_c, 12, 60, 0
14, 258540, Note_on_c, 12, 60, 84
14, 258540, Note_on_c, 12, 62, 84
14, 258591, Note_on_c, 12, 60, 0
14, 258591, Note_on_c, 12, 62, 0
14, 258600, Note_on_c, 12, 62, 84
14, 258600, Note_on_c, 12, 60, 84
14, 258651, Note_on_c, 12, 62, 0
14, 258651, Note_on_c, 12, 60, 0
14, 258660, Note_on_c, 12, 60, 84
14, 258660, Note_on_c, 12, 62, 84
14, 258711, Note_on_c, 12, 60, 0
14, 258711, Note_on_c, 12, 62, 0
14, 258720, Note_on_c, 12, 60, 84
14, 258720, Note_on_c, 12, 62, 84
14, 258944, Note_on_c, 12, 60, 0
14, 258944, Note_on_c, 12, 62, 0
14, 258960, Note_on_c, 12, 69, 52
14, 259439, Note_on_c, 12, 69, 0
14, 259440, Note_on_c, 12, 70, 52
14, 259664, Note_on_c, 12, 70, 0
14, 259680, Note_on_c, 12, 69, 52
14, 260399, Note_on_c, 12, 69, 0
14, 260400, Note_on_c, 12, 70, 52
14, 260624, Note_on_c, 12, 70, 0
14, 260640, Note_on_c, 12, 69, 52
14, 260864, Note_on_c, 12, 69, 0
14, 260880, Note_on_c, 12, 69, 44
14, 260939, Note_on_c, 12, 69, 0
14, 260940, Note_on_c, 12, 68, 44
14, 260999, Note_on_c, 12, 68, 0
14, 261000, Note_on_c, 12, 69, 44
14, 261059, Note_on_c, 12, 69, 0
14, 261060, Note_on_c, 12, 71, 44
14, 261111, Note_on_c, 12, 71, 0
14, 261120, Note_on_c, 12, 72, 44
14, 261299, Note_on_c, 12, 72, 0
14, 261360, Note_on_c, 12, 66, 44
14, 261419, Note_on_c, 12, 66, 0
14, 261420, Note_on_c, 12, 65, 44
14, 261479, Note_on_c, 12, 65, 0
14, 261480, Note_on_c, 12, 66, 44
14, 261539, Note_on_c, 12, 66, 0
14, 261540, Note_on_c, 12, 67, 44
14, 261591, Note_on_c, 12, 67, 0
14, 261600, Note_on_c, 12, 69, 44
14, 261779, Note_on_c, 12, 69, 0
14, 262560, Note_on_c, 12, 55, 52
14, 263024, Note_on_c, 12, 55, 0
14, 263040, Note_on_c, 12, 59, 52
14, 263451, Note_on_c, 12, 59, 0
14, 263460, Note_on_c, 12, 62, 52
14, 263511, Note_on_c, 12, 62, 0
14, 263520, Note_on_c, 12, 67, 52
14, 264224, Note_on_c, 12, 67, 0
14, 264240, Note_on_c, 12, 67, 52
14, 264419, Note_on_c, 12, 67, 0
14, 264420, Note_on_c, 12, 69, 52
14, 264471, Note_on_c, 12, 69, 0
14, 264480, Note_on_c, 12, 71, 52
14, 264659, Note_on_c, 12, 71, 0
14, 264720, Note_on_c, 12, 71, 52
14, 264899, Note_on_c, 12, 71, 0
14, 264960, Note_on_c, 12, 71, 52
14, 265139, Note_on_c, 12, 71, 0
14, 265200, Note_on_c, 12, 72, 52
14, 265379, Note_on_c, 12, 72, 0
14, 265440, Note_on_c, 12, 71, 52
14, 265919, Note_on_c, 12, 71, 0
14, 265920, Note_on_c, 12, 67, 52
14, 266039, Note_on_c, 12, 67, 0
14, 267360, Note_on_c, 12, 62, 52
14, 267419, Note_on_c, 12, 62, 0
14, 267440, Note_on_c, 12, 59, 52
14, 267499, Note_on_c, 12, 59, 0
14, 267520, Note_on_c, 12, 60, 52
14, 267579, Note_on_c, 12, 60, 0
14, 267600, Note_on_c, 12, 62, 52
14, 267659, Note_on_c, 12, 62, 0
14, 267680, Note_on_c, 12, 59, 52
14, 267739, Note_on_c, 12, 59, 0
14, 267760, Note_on_c, 12, 60, 52
14, 267819, Note_on_c, 12, 60, 0
14, 267840, Note_on_c, 12, 62, 52
14, 267899, Note_on_c, 12, 62, 0
14, 267920, Note_on_c, 12, 59, 52
14, 267979, Note_on_c, 12, 59, 0
14, 268000, Note_on_c, 12, 62, 52
14, 268059, Note_on_c, 12, 62, 0
14, 268080, Note_on_c, 12, 63, 52
14, 268139, Note_on_c, 12, 63, 0
14, 268160, Note_on_c, 12, 60, 52
14, 268219, Note_on_c, 12, 60, 0
14, 268240, Note_on_c, 12, 63, 52
14, 268299, Note_on_c, 12, 63, 0
14, 268320, Note_on_c, 12, 62, 52
14, 268559, Note_on_c, 12, 62, 0
14, 269280, Note_on_c, 12, 62, 52
14, 269339, Note_on_c, 12, 62, 0
14, 269360, Note_on_c, 12, 65, 52
14, 269419, Note_on_c, 12, 65, 0
14, 269440, Note_on_c, 12, 64, 52
14, 269499, Note_on_c, 12, 64, 0
14, 269520, Note_on_c, 12, 62, 52
14, 269579, Note_on_c, 12, 62, 0
14, 269600, Note_on_c, 12, 65, 52
14, 269659, Note_on_c, 12, 65, 0
14, 269680, Note_on_c, 12, 64, 52
14, 269739, Note_on_c, 12, 64, 0
14, 269760, Note_on_c, 12, 62, 52
14, 269819, Note_on_c, 12, 62, 0
14, 269840, Note_on_c, 12, 65, 52
14, 269899, Note_on_c, 12, 65, 0
14, 269920, Note_on_c, 12, 64, 52
14, 269979, Note_on_c, 12, 64, 0
14, 270000, Note_on_c, 12, 62, 52
14, 270059, Note_on_c, 12, 62, 0
14, 270080, Note_on_c, 12, 64, 52
14, 270139, Note_on_c, 12, 64, 0
14, 270160, Note_on_c, 12, 65, 52
14, 270219, Note_on_c, 12, 65, 0
14, 270240, Note_on_c, 12, 64, 52
14, 270479, Note_on_c, 12, 64, 0
14, 271200, Note_on_c, 12, 64, 52
14, 271259, Note_on_c, 12, 64, 0
14, 271280, Note_on_c, 12, 61, 52
14, 271339, Note_on_c, 12, 61, 0
14, 271360, Note_on_c, 12, 62, 52
14, 271419, Note_on_c, 12, 62, 0
14, 271440, Note_on_c, 12, 64, 52
14, 271499, Note_on_c, 12, 64, 0
14, 271520, Note_on_c, 12, 61, 52
14, 271579, Note_on_c, 12, 61, 0
14, 271600, Note_on_c, 12, 62, 52
14, 271659, Note_on_c, 12, 62, 0
14, 271680, Note_on_c, 12, 64, 52
14, 271739, Note_on_c, 12, 64, 0
14, 271760, Note_on_c, 12, 61, 52
14, 271819, Note_on_c, 12, 61, 0
14, 271840, Note_on_c, 12, 64, 52
14, 271899, Note_on_c, 12, 64, 0
14, 271920, Note_on_c, 12, 65, 52
14, 271979, Note_on_c, 12, 65, 0
14, 272000, Note_on_c, 12, 62, 52
14, 272059, Note_on_c, 12, 62, 0
14, 272080, Note_on_c, 12, 65, 52
14, 272139, Note_on_c, 12, 65, 0
14, 272160, Note_on_c, 12, 64, 52
14, 272399, Note_on_c, 12, 64, 0
14, 273120, Note_on_c, 12, 64, 52
14, 273179, Note_on_c, 12, 64, 0
14, 273200, Note_on_c, 12, 67, 52
14, 273259, Note_on_c, 12, 67, 0
14, 273280, Note_on_c, 12, 66, 52
14, 273339, Note_on_c, 12, 66, 0
14, 273360, Note_on_c, 12, 64, 52
14, 273419, Note_on_c, 12, 64, 0
14, 273440, Note_on_c, 12, 67, 52
14, 273499, Note_on_c, 12, 67, 0
14, 273520, Note_on_c, 12, 66, 52
14, 273579, Note_on_c, 12, 66, 0
14, 273600, Note_on_c, 12, 64, 52
14, 273659, Note_on_c, 12, 64, 0
14, 273680, Note_on_c, 12, 67, 52
14, 273739, Note_on_c, 12, 67, 0
14, 273760, Note_on_c, 12, 66, 52
14, 273819, Note_on_c, 12, 66, 0
14, 273840, Note_on_c, 12, 64, 52
14, 273899, Note_on_c, 12, 64, 0
14, 273920, Note_on_c, 12, 66, 52
14, 273979, Note_on_c, 12, 66, 0
14, 274000, Note_on_c, 12, 67, 52
14, 274059, Note_on_c, 12, 67, 0
14, 274080, Note_on_c, 12, 66, 52
14, 274319, Note_on_c, 12, 66, 0
14, 274800, Control_c, 12, 11, 80
14, 275040, Note_on_c, 12, 66, 76
14, 275040, Control_c, 12, 11, 80
14, 275099, Note_on_c, 12, 66, 0
14, 275120, Control_c, 12, 11, 84
14, 275120, Note_on_c, 12, 63, 76
14, 275179, Note_on_c, 12, 63, 0
14, 275200, Control_c, 12, 11, 88
14, 275200, Note_on_c, 12, 64, 76
14, 275259, Note_on_c, 12, 64, 0
14, 275280, Note_on_c, 12, 66, 76
14, 275280, Control_c, 12, 11, 92
14, 275339, Note_on_c, 12, 66, 0
14, 275360, Note_on_c, 12, 63, 76
14, 275360, Control_c, 12, 11, 96
14, 275419, Note_on_c, 12, 63, 0
14, 275440, Control_c, 12, 11, 100
14, 275440, Note_on_c, 12, 64, 76
14, 275499, Note_on_c, 12, 64, 0
14, 275520, Note_on_c, 12, 66, 76
14, 275520, Control_c, 12, 11, 104
14, 275579, Note_on_c, 12, 66, 0
14, 275600, Note_on_c, 12, 63, 76
14, 275600, Control_c, 12, 11, 107
14, 275659, Note_on_c, 12, 63, 0
14, 275680, Note_on_c, 12, 63, 76
14, 275680, Control_c, 12, 11, 111
14, 275739, Note_on_c, 12, 63, 0
14, 275760, Control_c, 12, 11, 115
14, 275760, Note_on_c, 12, 68, 76
14, 275819, Note_on_c, 12, 68, 0
14, 275840, Note_on_c, 12, 65, 76
14, 275840, Control_c, 12, 11, 119
14, 275899, Note_on_c, 12, 65, 0
14, 275920, Note_on_c, 12, 65, 76
14, 275920, Control_c, 12, 11, 123
14, 275979, Note_on_c, 12, 65, 0
14, 276000, Control_c, 12, 11, 127
14, 276000, Note_on_c, 12, 69, 76
14, 276051, Note_on_c, 12, 69, 0
14, 276060, Note_on_c, 12, 78, 76
14, 276111, Note_on_c, 12, 78, 0
14, 276120, Note_on_c, 12, 78, 76
14, 276171, Note_on_c, 12, 78, 0
14, 276180, Note_on_c, 12, 78, 76
14, 276231, Note_on_c, 12, 78, 0
14, 276240, Note_on_c, 12, 78, 76
14, 276291, Note_on_c, 12, 78, 0
14, 276300, Note_on_c, 12, 78, 76
14, 276351, Note_on_c, 12, 78, 0
14, 276360, Note_on_c, 12, 78, 76
14, 276411, Note_on_c, 12, 78, 0
14, 276420, Note_on_c, 12, 78, 76
14, 276471, Note_on_c, 12, 78, 0
14, 276480, Note_on_c, 12, 78, 76
14, 276531, Note_on_c, 12, 78, 0
14, 276540, Note_on_c, 12, 78, 76
14, 276591, Note_on_c, 12, 78, 0
14, 276600, Note_on_c, 12, 78, 76
14, 276651, Note_on_c, 12, 78, 0
14, 276660, Note_on_c, 12, 78, 76
14, 276711, Note_on_c, 12, 78, 0
14, 276720, Note_on_c, 12, 78, 76
14, 276771, Note_on_c, 12, 78, 0
14, 276780, Note_on_c, 12, 78, 76
14, 276831, Note_on_c, 12, 78, 0
14, 276840, Note_on_c, 12, 78, 76
14, 276891, Note_on_c, 12, 78, 0
14, 276900, Note_on_c, 12, 78, 76
14, 276951, Note_on_c, 12, 78, 0
14, 276960, Note_on_c, 12, 78, 84
14, 277011, Note_on_c, 12, 78, 0
14, 277020, Note_on_c, 12, 81, 84
14, 277071, Note_on_c, 12, 81, 0
14, 277080, Note_on_c, 12, 81, 84
14, 277131, Note_on_c, 12, 81, 0
14, 277140, Note_on_c, 12, 81, 84
14, 277191, Note_on_c, 12, 81, 0
14, 277200, Note_on_c, 12, 81, 84
14, 277251, Note_on_c, 12, 81, 0
14, 277260, Note_on_c, 12, 81, 84
14, 277311, Note_on_c, 12, 81, 0
14, 277320, Note_on_c, 12, 81, 84
14, 277371, Note_on_c, 12, 81, 0
14, 277380, Note_on_c, 12, 81, 84
14, 277431, Note_on_c, 12, 81, 0
14, 277440, Note_on_c, 12, 81, 84
14, 277491, Note_on_c, 12, 81, 0
14, 277500, Note_on_c, 12, 81, 84
14, 277551, Note_on_c, 12, 81, 0
14, 277560, Note_on_c, 12, 81, 84
14, 277611, Note_on_c, 12, 81, 0
14, 277620, Note_on_c, 12, 81, 84
14, 277671, Note_on_c, 12, 81, 0
14, 277680, Note_on_c, 12, 81, 84
14, 277731, Note_on_c, 12, 81, 0
14, 277740, Note_on_c, 12, 81, 84
14, 277791, Note_on_c, 12, 81, 0
14, 277800, Note_on_c, 12, 81, 84
14, 277851, Note_on_c, 12, 81, 0
14, 277860, Note_on_c, 12, 81, 84
14, 277911, Note_on_c, 12, 81, 0
14, 277920, Note_on_c, 12, 80, 84
14, 278099, Note_on_c, 12, 80, 0
14, 278160, Note_on_c, 12, 61, 92
14, 278624, Note_on_c, 12, 61, 0
14, 278640, Note_on_c, 12, 61, 84
14, 278774, Note_on_c, 12, 61, 0
14, 278820, Note_on_c, 12, 61, 84
14, 278864, Note_on_c, 12, 61, 0
14, 278880, Note_on_c, 12, 66, 84
14, 279059, Note_on_c, 12, 66, 0
14, 279120, Note_on_c, 12, 66, 84
14, 279254, Note_on_c, 12, 66, 0
14, 279300, Note_on_c, 12, 66, 84
14, 279344, Note_on_c, 12, 66, 0
14, 279360, Note_on_c, 12, 69, 84
14, 279539, Note_on_c, 12, 69, 0
14, 279600, Note_on_c, 12, 69, 84
14, 279734, Note_on_c, 12, 69, 0
14, 279780, Note_on_c, 12, 69, 84
14, 279824, Note_on_c, 12, 69, 0
14, 279840, Note_on_c, 12, 73, 92
14, 280544, Note_on_c, 12, 73, 0
14, 280560, Note_on_c, 12, 73, 84
14, 280694, Note_on_c, 12, 73, 0
14, 280740, Note_on_c, 12, 73, 84
14, 280784, Note_on_c, 12, 73, 0
14, 280800, Note_on_c, 12, 69, 84
14, 280979, Note_on_c, 12, 69, 0
14, 281040, Note_on_c, 12, 69, 84
14, 281174, Note_on_c, 12, 69, 0
14, 281220, Note_on_c, 12, 69, 84
14, 281264, Note_on_c, 12, 69, 0
14, 281280, Note_on_c, 12, 66, 84
14, 281459, Note_on_c, 12, 66, 0
14, 281520, Note_on_c, 12, 66, 84
14, 281654, Note_on_c, 12, 66, 0
14, 281700, Note_on_c, 12, 66, 84
14, 281744, Note_on_c, 12, 66, 0
14, 281760, Note_on_c, 12, 61, 92
14, 282464, Note_on_c, 12, 61, 0
14, 282480, Note_on_c, 12, 61, 84
14, 282614, Note_on_c, 12, 61, 0
14, 282660, Note_on_c, 12, 61, 84
14, 282704, Note_on_c, 12, 61, 0
14, 282720, Note_on_c, 12, 66, 84
14, 282899, Note_on_c, 12, 66, 0
14, 282960, Note_on_c, 12, 66, 84
14, 283094, Note_on_c, 12, 66, 0
14, 283140, Note_on_c, 12, 66, 84
14, 283184, Note_on_c, 12, 66, 0
14, 283200, Note_on_c, 12, 69, 84
14, 283379, Note_on_c, 12, 69, 0
14, 283440, Note_on_c, 12, 69, 84
14, 283574, Note_on_c, 12, 69, 0
14, 283620, Note_on_c, 12, 69, 84
14, 283664, Note_on_c, 12, 69, 0
14, 283680, Note_on_c, 12, 73, 92
14, 284384, Note_on_c, 12, 73, 0
14, 284400, Note_on_c, 12, 73, 84
14, 284534, Note_on_c, 12, 73, 0
14, 284580, Note_on_c, 12, 73, 84
14, 284624, Note_on_c, 12, 73, 0
14, 284640, Note_on_c, 12, 69, 84
14, 284819, Note_on_c, 12, 69, 0
14, 284880, Note_on_c, 12, 69, 84
14, 285014, Note_on_c, 12, 69, 0
14, 285060, Note_on_c, 12, 69, 84
14, 285104, Note_on_c, 12, 69, 0
14, 285120, Note_on_c, 12, 66, 84
14, 285299, Note_on_c, 12, 66, 0
14, 285360, Note_on_c, 12, 66, 84
14, 285494, Note_on_c, 12, 66, 0
14, 285540, Note_on_c, 12, 66, 84
14, 285584, Note_on_c, 12, 66, 0
14, 285600, Note_on_c, 12, 65, 84
14, 285651, Note_on_c, 12, 65, 0
14, 285660, Note_on_c, 12, 65, 84
14, 285711, Note_on_c, 12, 65, 0
14, 285720, Note_on_c, 12, 77, 84
14, 285771, Note_on_c, 12, 77, 0
14, 285780, Note_on_c, 12, 77, 84
14, 285831, Note_on_c, 12, 77, 0
14, 285840, Note_on_c, 12, 73, 84
14, 285891, Note_on_c, 12, 73, 0
14, 285900, Note_on_c, 12, 73, 84
14, 285951, Note_on_c, 12, 73, 0
14, 285960, Note_on_c, 12, 68, 84
14, 286011, Note_on_c, 12, 68, 0
14, 286020, Note_on_c, 12, 68, 84
14, 286071, Note_on_c, 12, 68, 0
14, 286080, Note_on_c, 12, 65, 84
14, 286131, Note_on_c, 12, 65, 0
14, 286140, Note_on_c, 12, 65, 84
14, 286191, Note_on_c, 12, 65, 0
14, 286200, Note_on_c, 12, 73, 84
14, 286251, Note_on_c, 12, 73, 0
14, 286260, Note_on_c, 12, 73, 84
14, 286311, Note_on_c, 12, 73, 0
14, 286320, Note_on_c, 12, 68, 84
14, 286371, Note_on_c, 12, 68, 0
14, 286380, Note_on_c, 12, 68, 84
14, 286431, Note_on_c, 12, 68, 0
14, 286440, Note_on_c, 12, 65, 84
14, 286491, Note_on_c, 12, 65, 0
14, 286500, Note_on_c, 12, 65, 84
14, 286551, Note_on_c, 12, 65, 0
14, 286560, Note_on_c, 12, 66, 84
14, 286611, Note_on_c, 12, 66, 0
14, 286620, Note_on_c, 12, 66, 84
14, 286671, Note_on_c, 12, 66, 0
14, 286680, Note_on_c, 12, 78, 84
14, 286731, Note_on_c, 12, 78, 0
14, 286740, Note_on_c, 12, 78, 84
14, 286791, Note_on_c, 12, 78, 0
14, 286800, Note_on_c, 12, 73, 84
14, 286851, Note_on_c, 12, 73, 0
14, 286860, Note_on_c, 12, 73, 84
14, 286911, Note_on_c, 12, 73, 0
14, 286920, Note_on_c, 12, 69, 84
14, 286971, Note_on_c, 12, 69, 0
14, 286980, Note_on_c, 12, 69, 84
14, 287031, Note_on_c, 12, 69, 0
14, 287040, Note_on_c, 12, 66, 84
14, 287091, Note_on_c, 12, 66, 0
14, 287100, Note_on_c, 12, 66, 84
14, 287151, Note_on_c, 12, 66, 0
14, 287160, Note_on_c, 12, 73, 84
14, 287211, Note_on_c, 12, 73, 0
14, 287220, Note_on_c, 12, 73, 84
14, 287271, Note_on_c, 12, 73, 0
14, 287280, Note_on_c, 12, 69, 84
14, 287331, Note_on_c, 12, 69, 0
14, 287340, Note_on_c, 12, 69, 84
14, 287391, Note_on_c, 12, 69, 0
14, 287400, Note_on_c, 12, 66, 84
14, 287451, Note_on_c, 12, 66, 0
14, 287460, Note_on_c, 12, 66, 84
14, 287511, Note_on_c, 12, 66, 0
14, 287520, Note_on_c, 12, 65, 84
14, 287571, Note_on_c, 12, 65, 0
14, 287580, Note_on_c, 12, 65, 84
14, 287631, Note_on_c, 12, 65, 0
14, 287640, Note_on_c, 12, 77, 84
14, 287691, Note_on_c, 12, 77, 0
14, 287700, Note_on_c, 12, 77, 84
14, 287751, Note_on_c, 12, 77, 0
14, 287760, Note_on_c, 12, 73, 84
14, 287811, Note_on_c, 12, 73, 0
14, 287820, Note_on_c, 12, 73, 84
14, 287871, Note_on_c, 12, 73, 0
14, 287880, Note_on_c, 12, 68, 84
14, 287931, Note_on_c, 12, 68, 0
14, 287940, Note_on_c, 12, 68, 84
14, 287991, Note_on_c, 12, 68, 0
14, 288000, Note_on_c, 12, 65, 84
14, 288051, Note_on_c, 12, 65, 0
14, 288060, Note_on_c, 12, 65, 84
14, 288111, Note_on_c, 12, 65, 0
14, 288120, Note_on_c, 12, 73, 84
14, 288171, Note_on_c, 12, 73, 0
14, 288180, Note_on_c, 12, 73, 84
14, 288231, Note_on_c, 12, 73, 0
14, 288240, Note_on_c, 12, 68, 84
14, 288291, Note_on_c, 12, 68, 0
14, 288300, Note_on_c, 12, 68, 84
14, 288351, Note_on_c, 12, 68, 0
14, 288360, Note_on_c, 12, 65, 84
14, 288411, Note_on_c, 12, 65, 0
14, 288420, Note_on_c, 12, 65, 84
14, 288471, Note_on_c, 12, 65, 0
14, 288480, Note_on_c, 12, 66, 84
14, 288531, Note_on_c, 12, 66, 0
14, 288540, Note_on_c, 12, 66, 84
14, 288591, Note_on_c, 12, 66, 0
14, 288600, Note_on_c, 12, 78, 84
14, 288651, Note_on_c, 12, 78, 0
14, 288660, Note_on_c, 12, 78, 84
14, 288711, Note_on_c, 12, 78, 0
14, 288720, Note_on_c, 12, 73, 84
14, 288771, Note_on_c, 12, 73, 0
14, 288780, Note_on_c, 12, 73, 84
14, 288831, Note_on_c, 12, 73, 0
14, 288840, Note_on_c, 12, 69, 84
14, 288891, Note_on_c, 12, 69, 0
14, 288900, Note_on_c, 12, 69, 84
14, 288951, Note_on_c, 12, 69, 0
14, 288960, Note_on_c, 12, 66, 84
14, 289011, Note_on_c, 12, 66, 0
14, 289020, Note_on_c, 12, 66, 84
14, 289071, Note_on_c, 12, 66, 0
14, 289080, Note_on_c, 12, 73, 84
14, 289131, Note_on_c, 12, 73, 0
14, 289140, Note_on_c, 12, 73, 84
14, 289191, Note_on_c, 12, 73, 0
14, 289200, Note_on_c, 12, 69, 84
14, 289251, Note_on_c, 12, 69, 0
14, 289260, Note_on_c, 12, 69, 84
14, 289311, Note_on_c, 12, 69, 0
14, 289320, Note_on_c, 12, 66, 84
14, 289371, Note_on_c, 12, 66, 0
14, 289380, Note_on_c, 12, 66, 84
14, 289431, Note_on_c, 12, 66, 0
14, 289440, Note_on_c, 12, 65, 84
14, 289491, Note_on_c, 12, 65, 0
14, 289500, Note_on_c, 12, 65, 84
14, 289551, Note_on_c, 12, 65, 0
14, 289560, Note_on_c, 12, 80, 84
14, 289611, Note_on_c, 12, 80, 0
14, 289620, Note_on_c, 12, 80, 84
14, 289671, Note_on_c, 12, 80, 0
14, 289680, Note_on_c, 12, 77, 84
14, 289731, Note_on_c, 12, 77, 0
14, 289740, Note_on_c, 12, 77, 84
14, 289791, Note_on_c, 12, 77, 0
14, 289800, Note_on_c, 12, 73, 84
14, 289851, Note_on_c, 12, 73, 0
14, 289860, Note_on_c, 12, 73, 84
14, 289911, Note_on_c, 12, 73, 0
14, 289920, Note_on_c, 12, 68, 84
14, 289971, Note_on_c, 12, 68, 0
14, 289980, Note_on_c, 12, 68, 84
14, 290031, Note_on_c, 12, 68, 0
14, 290040, Note_on_c, 12, 77, 84
14, 290091, Note_on_c, 12, 77, 0
14, 290100, Note_on_c, 12, 77, 84
14, 290151, Note_on_c, 12, 77, 0
14, 290160, Note_on_c, 12, 73, 84
14, 290211, Note_on_c, 12, 73, 0
14, 290220, Note_on_c, 12, 73, 84
14, 290271, Note_on_c, 12, 73, 0
14, 290280, Note_on_c, 12, 68, 84
14, 290331, Note_on_c, 12, 68, 0
14, 290340, Note_on_c, 12, 68, 84
14, 290391, Note_on_c, 12, 68, 0
14, 290400, Note_on_c, 12, 65, 84
14, 290451, Note_on_c, 12, 65, 0
14, 290460, Note_on_c, 12, 65, 84
14, 290511, Note_on_c, 12, 65, 0
14, 290520, Note_on_c, 12, 73, 84
14, 290571, Note_on_c, 12, 73, 0
14, 290580, Note_on_c, 12, 73, 84
14, 290631, Note_on_c, 12, 73, 0
14, 290640, Note_on_c, 12, 68, 84
14, 290691, Note_on_c, 12, 68, 0
14, 290700, Note_on_c, 12, 68, 84
14, 290751, Note_on_c, 12, 68, 0
14, 290760, Note_on_c, 12, 65, 84
14, 290811, Note_on_c, 12, 65, 0
14, 290820, Note_on_c, 12, 65, 84
14, 290871, Note_on_c, 12, 65, 0
14, 290880, Note_on_c, 12, 61, 84
14, 290931, Note_on_c, 12, 61, 0
14, 290940, Note_on_c, 12, 61, 84
14, 290991, Note_on_c, 12, 61, 0
14, 291000, Note_on_c, 12, 73, 84
14, 291051, Note_on_c, 12, 73, 0
14, 291060, Note_on_c, 12, 73, 84
14, 291111, Note_on_c, 12, 73, 0
14, 291120, Note_on_c, 12, 68, 84
14, 291171, Note_on_c, 12, 68, 0
14, 291180, Note_on_c, 12, 68, 84
14, 291231, Note_on_c, 12, 68, 0
14, 291240, Note_on_c, 12, 65, 84
14, 291291, Note_on_c, 12, 65, 0
14, 291300, Note_on_c, 12, 65, 84
14, 291344, Note_on_c, 12, 65, 0
14, 291352, Control_c, 12, 11, 96
14, 291360, Note_on_c, 12, 61, 68
14, 293280, Control_c, 12, 11, 96
14, 293360, Control_c, 12, 11, 99
14, 293440, Control_c, 12, 11, 101
14, 293520, Control_c, 12, 11, 104
14, 293600, Control_c, 12, 11, 106
14, 293680, Control_c, 12, 11, 109
14, 293760, Control_c, 12, 11, 112
14, 293840, Control_c, 12, 11, 114
14, 293920, Control_c, 12, 11, 117
14, 294000, Control_c, 12, 11, 119
14, 294080, Control_c, 12, 11, 122
14, 294160, Control_c, 12, 11, 124
14, 294224, Note_on_c, 12, 61, 0
14, 294240, Control_c, 12, 11, 127
14, 294240, Note_on_c, 12, 61, 68
14, 294320, Control_c, 12, 11, 124
14, 294359, Note_on_c, 12, 61, 0
14, 294360, Note_on_c, 12, 62, 68
14, 294400, Control_c, 12, 11, 122
14, 294479, Note_on_c, 12, 62, 0
14, 294480, Note_on_c, 12, 64, 68
14, 294480, Control_c, 12, 11, 119
14, 294560, Control_c, 12, 11, 117
14, 294599, Note_on_c, 12, 64, 0
14, 294600, Note_on_c, 12, 66, 68
14, 294640, Control_c, 12, 11, 114
14, 294719, Note_on_c, 12, 66, 0
14, 294720, Control_c, 12, 11, 112
14, 294720, Note_on_c, 12, 67, 68
14, 294800, Control_c, 12, 11, 109
14, 294839, Note_on_c, 12, 67, 0
14, 294840, Note_on_c, 12, 69, 68
14, 294880, Control_c, 12, 11, 106
14, 294959, Note_on_c, 12, 69, 0
14, 294960, Control_c, 12, 11, 104
14, 294960, Note_on_c, 12, 71, 68
14, 295040, Control_c, 12, 11, 101
14, 295079, Note_on_c, 12, 71, 0
14, 295080, Note_on_c, 12, 73, 68
14, 295120, Control_c, 12, 11, 99
14, 295184, Note_on_c, 12, 73, 0
14, 295200, Note_on_c, 12, 74, 68
14, 295200, Control_c, 12, 11, 96
14, 295304, Note_on_c, 12, 74, 0
14, 295320, Note_on_c, 12, 62, 68
14, 295409, Note_on_c, 12, 62, 0
14, 295440, Note_on_c, 12, 62, 68
14, 295529, Note_on_c, 12, 62, 0
14, 295560, Note_on_c, 12, 62, 68
14, 295649, Note_on_c, 12, 62, 0
14, 295680, Note_on_c, 12, 62, 68
14, 295769, Note_on_c, 12, 62, 0
14, 295800, Note_on_c, 12, 62, 68
14, 295889, Note_on_c, 12, 62, 0
14, 295920, Note_on_c, 12, 62, 68
14, 296009, Note_on_c, 12, 62, 0
14, 296040, Note_on_c, 12, 62, 68
14, 296129, Note_on_c, 12, 62, 0
14, 296160, Note_on_c, 12, 62, 68
14, 296249, Note_on_c, 12, 62, 0
14, 296280, Note_on_c, 12, 62, 68
14, 296369, Note_on_c, 12, 62, 0
14, 296400, Note_on_c, 12, 62, 68
14, 296489, Note_on_c, 12, 62, 0
14, 296520, Note_on_c, 12, 62, 68
14, 296609, Note_on_c, 12, 62, 0
14, 296640, Note_on_c, 12, 62, 68
14, 296729, Note_on_c, 12, 62, 0
14, 296760, Note_on_c, 12, 62, 68
14, 296849, Note_on_c, 12, 62, 0
14, 296880, Note_on_c, 12, 62, 68
14, 296969, Note_on_c, 12, 62, 0
14, 297000, Note_on_c, 12, 62, 68
14, 297089, Note_on_c, 12, 62, 0
14, 297120, Note_on_c, 12, 62, 68
14, 297209, Note_on_c, 12, 62, 0
14, 297240, Note_on_c, 12, 62, 68
14, 297329, Note_on_c, 12, 62, 0
14, 297360, Note_on_c, 12, 62, 68
14, 297449, Note_on_c, 12, 62, 0
14, 297480, Note_on_c, 12, 62, 68
14, 297569, Note_on_c, 12, 62, 0
14, 297600, Note_on_c, 12, 62, 68
14, 297689, Note_on_c, 12, 62, 0
14, 297720, Note_on_c, 12, 62, 68
14, 297809, Note_on_c, 12, 62, 0
14, 297840, Note_on_c, 12, 62, 68
14, 297929, Note_on_c, 12, 62, 0
14, 297960, Note_on_c, 12, 62, 68
14, 298049, Note_on_c, 12, 62, 0
14, 298080, Control_c, 12, 11, 96
14, 298080, Note_on_c, 12, 62, 68
14, 298160, Control_c, 12, 11, 99
14, 298169, Note_on_c, 12, 62, 0
14, 298200, Note_on_c, 12, 62, 68
14, 298240, Control_c, 12, 11, 101
14, 298289, Note_on_c, 12, 62, 0
14, 298320, Control_c, 12, 11, 104
14, 298320, Note_on_c, 12, 62, 68
14, 298400, Control_c, 12, 11, 106
14, 298409, Note_on_c, 12, 62, 0
14, 298440, Note_on_c, 12, 62, 68
14, 298480, Control_c, 12, 11, 109
14, 298529, Note_on_c, 12, 62, 0
14, 298560, Control_c, 12, 11, 112
14, 298560, Note_on_c, 12, 62, 68
14, 298640, Control_c, 12, 11, 114
14, 298649, Note_on_c, 12, 62, 0
14, 298680, Note_on_c, 12, 62, 68
14, 298720, Control_c, 12, 11, 117
14, 298769, Note_on_c, 12, 62, 0
14, 298800, Note_on_c, 12, 62, 68
14, 298800, Control_c, 12, 11, 119
14, 298880, Control_c, 12, 11, 122
14, 298889, Note_on_c, 12, 62, 0
14, 298920, Note_on_c, 12, 62, 68
14, 298960, Control_c, 12, 11, 124
14, 299009, Note_on_c, 12, 62, 0
14, 299025, Control_c, 12, 11, 96
14, 299040, Note_on_c, 12, 59, 68
14, 299040, Note_on_c, 12, 62, 68
14, 299129, Note_on_c, 12, 59, 0
14, 299129, Note_on_c, 12, 62, 0
14, 299160, Note_on_c, 12, 62, 68
14, 299160, Note_on_c, 12, 59, 68
14, 299249, Note_on_c, 12, 62, 0
14, 299249, Note_on_c, 12, 59, 0
14, 299280, Note_on_c, 12, 62, 68
14, 299280, Note_on_c, 12, 59, 68
14, 299369, Note_on_c, 12, 62, 0
14, 299369, Note_on_c, 12, 59, 0
14, 299400, Note_on_c, 12, 62, 68
14, 299400, Note_on_c, 12, 59, 68
14, 299489, Note_on_c, 12, 62, 0
14, 299489, Note_on_c, 12, 59, 0
14, 299520, Note_on_c, 12, 62, 68
14, 299520, Note_on_c, 12, 59, 68
14, 299609, Note_on_c, 12, 62, 0
14, 299609, Note_on_c, 12, 59, 0
14, 299640, Note_on_c, 12, 62, 68
14, 299640, Note_on_c, 12, 59, 68
14, 299729, Note_on_c, 12, 62, 0
14, 299729, Note_on_c, 12, 59, 0
14, 299760, Note_on_c, 12, 62, 68
14, 299760, Note_on_c, 12, 59, 68
14, 299849, Note_on_c, 12, 62, 0
14, 299849, Note_on_c, 12, 59, 0
14, 299880, Note_on_c, 12, 59, 68
14, 299880, Note_on_c, 12, 62, 68
14, 299969, Note_on_c, 12, 59, 0
14, 299969, Note_on_c, 12, 62, 0
14, 300000, Note_on_c, 12, 62, 68
14, 300000, Note_on_c, 12, 59, 68
14, 300089, Note_on_c, 12, 62, 0
14, 300089, Note_on_c, 12, 59, 0
14, 300120, Note_on_c, 12, 62, 68
14, 300120, Note_on_c, 12, 59, 68
14, 300209, Note_on_c, 12, 62, 0
14, 300209, Note_on_c, 12, 59, 0
14, 300240, Note_on_c, 12, 62, 68
14, 300240, Note_on_c, 12, 59, 68
14, 300329, Note_on_c, 12, 62, 0
14, 300329, Note_on_c, 12, 59, 0
14, 300360, Note_on_c, 12, 62, 68
14, 300360, Note_on_c, 12, 59, 68
14, 300449, Note_on_c, 12, 62, 0
14, 300449, Note_on_c, 12, 59, 0
14, 300480, Note_on_c, 12, 59, 68
14, 300480, Note_on_c, 12, 62, 68
14, 300569, Note_on_c, 12, 59, 0
14, 300569, Note_on_c, 12, 62, 0
14, 300600, Note_on_c, 12, 59, 68
14, 300600, Note_on_c, 12, 62, 68
14, 300689, Note_on_c, 12, 59, 0
14, 300689, Note_on_c, 12, 62, 0
14, 300720, Note_on_c, 12, 59, 68
14, 300720, Note_on_c, 12, 62, 68
14, 300809, Note_on_c, 12, 59, 0
14, 300809, Note_on_c, 12, 62, 0
14, 300840, Note_on_c, 12, 62, 68
14, 300840, Note_on_c, 12, 59, 68
14, 300929, Note_on_c, 12, 62, 0
14, 300929, Note_on_c, 12, 59, 0
14, 300960, Note_on_c, 12, 62, 68
14, 300960, Note_on_c, 12, 59, 68
14, 301049, Note_on_c, 12, 62, 0
14, 301049, Note_on_c, 12, 59, 0
14, 301080, Note_on_c, 12, 62, 68
14, 301080, Note_on_c, 12, 59, 68
14, 301169, Note_on_c, 12, 62, 0
14, 301169, Note_on_c, 12, 59, 0
14, 301200, Note_on_c, 12, 62, 68
14, 301200, Note_on_c, 12, 59, 68
14, 301289, Note_on_c, 12, 62, 0
14, 301289, Note_on_c, 12, 59, 0
14, 301320, Note_on_c, 12, 62, 68
14, 301320, Note_on_c, 12, 59, 68
14, 301409, Note_on_c, 12, 62, 0
14, 301409, Note_on_c, 12, 59, 0
14, 301440, Note_on_c, 12, 59, 68
14, 301440, Note_on_c, 12, 62, 68
14, 301529, Note_on_c, 12, 59, 0
14, 301529, Note_on_c, 12, 62, 0
14, 301560, Note_on_c, 12, 62, 68
14, 301560, Note_on_c, 12, 59, 68
14, 301649, Note_on_c, 12, 62, 0
14, 301649, Note_on_c, 12, 59, 0
14, 301680, Note_on_c, 12, 62, 68
14, 301680, Note_on_c, 12, 59, 68
14, 301769, Note_on_c, 12, 62, 0
14, 301769, Note_on_c, 12, 59, 0
14, 301800, Note_on_c, 12, 59, 68
14, 301800, Note_on_c, 12, 62, 68
14, 301889, Note_on_c, 12, 59, 0
14, 301889, Note_on_c, 12, 62, 0
14, 301920, Note_on_c, 12, 59, 68
14, 301920, Note_on_c, 12, 62, 68
14, 302009, Note_on_c, 12, 59, 0
14, 302009, Note_on_c, 12, 62, 0
14, 302040, Note_on_c, 12, 62, 68
14, 302040, Note_on_c, 12, 59, 68
14, 302129, Note_on_c, 12, 62, 0
14, 302129, Note_on_c, 12, 59, 0
14, 302160, Note_on_c, 12, 62, 68
14, 302160, Note_on_c, 12, 59, 68
14, 302249, Note_on_c, 12, 62, 0
14, 302249, Note_on_c, 12, 59, 0
14, 302280, Note_on_c, 12, 59, 68
14, 302280, Note_on_c, 12, 62, 68
14, 302369, Note_on_c, 12, 59, 0
14, 302369, Note_on_c, 12, 62, 0
14, 302400, Note_on_c, 12, 59, 68
14, 302400, Note_on_c, 12, 62, 68
14, 302489, Note_on_c, 12, 59, 0
14, 302489, Note_on_c, 12, 62, 0
14, 302520, Note_on_c, 12, 59, 68
14, 302520, Note_on_c, 12, 62, 68
14, 302609, Note_on_c, 12, 59, 0
14, 302609, Note_on_c, 12, 62, 0
14, 302640, Note_on_c, 12, 59, 68
14, 302640, Note_on_c, 12, 62, 68
14, 302729, Note_on_c, 12, 59, 0
14, 302729, Note_on_c, 12, 62, 0
14, 302760, Note_on_c, 12, 62, 68
14, 302760, Note_on_c, 12, 59, 68
14, 302849, Note_on_c, 12, 62, 0
14, 302849, Note_on_c, 12, 59, 0
14, 302880, Note_on_c, 12, 60, 68
14, 302880, Note_on_c, 12, 62, 68
14, 302969, Note_on_c, 12, 60, 0
14, 302969, Note_on_c, 12, 62, 0
14, 303000, Note_on_c, 12, 60, 68
14, 303000, Note_on_c, 12, 62, 68
14, 303089, Note_on_c, 12, 60, 0
14, 303089, Note_on_c, 12, 62, 0
14, 303120, Note_on_c, 12, 62, 68
14, 303120, Note_on_c, 12, 60, 68
14, 303209, Note_on_c, 12, 62, 0
14, 303209, Note_on_c, 12, 60, 0
14, 303240, Note_on_c, 12, 60, 68
14, 303240, Note_on_c, 12, 62, 68
14, 303329, Note_on_c, 12, 60, 0
14, 303329, Note_on_c, 12, 62, 0
14, 303360, Note_on_c, 12, 60, 68
14, 303360, Note_on_c, 12, 62, 68
14, 303449, Note_on_c, 12, 60, 0
14, 303449, Note_on_c, 12, 62, 0
14, 303480, Note_on_c, 12, 60, 68
14, 303480, Note_on_c, 12, 62, 68
14, 303569, Note_on_c, 12, 60, 0
14, 303569, Note_on_c, 12, 62, 0
14, 303600, Note_on_c, 12, 60, 68
14, 303600, Note_on_c, 12, 62, 68
14, 303689, Note_on_c, 12, 60, 0
14, 303689, Note_on_c, 12, 62, 0
14, 303720, Note_on_c, 12, 60, 68
14, 303720, Note_on_c, 12, 62, 68
14, 303809, Note_on_c, 12, 60, 0
14, 303809, Note_on_c, 12, 62, 0
14, 303840, Note_on_c, 12, 60, 68
14, 303840, Note_on_c, 12, 62, 68
14, 303929, Note_on_c, 12, 60, 0
14, 303929, Note_on_c, 12, 62, 0
14, 303960, Note_on_c, 12, 62, 68
14, 303960, Note_on_c, 12, 60, 68
14, 304049, Note_on_c, 12, 62, 0
14, 304049, Note_on_c, 12, 60, 0
14, 304080, Note_on_c, 12, 60, 68
14, 304080, Note_on_c, 12, 62, 68
14, 304169, Note_on_c, 12, 60, 0
14, 304169, Note_on_c, 12, 62, 0
14, 304200, Note_on_c, 12, 60, 68
14, 304200, Note_on_c, 12, 62, 68
14, 304289, Note_on_c, 12, 60, 0
14, 304289, Note_on_c, 12, 62, 0
14, 304320, Note_on_c, 12, 60, 68
14, 304320, Note_on_c, 12, 62, 68
14, 304409, Note_on_c, 12, 60, 0
14, 304409, Note_on_c, 12, 62, 0
14, 304440, Note_on_c, 12, 60, 68
14, 304440, Note_on_c, 12, 62, 68
14, 304529, Note_on_c, 12, 60, 0
14, 304529, Note_on_c, 12, 62, 0
14, 304560, Note_on_c, 12, 62, 68
14, 304560, Note_on_c, 12, 60, 68
14, 304649, Note_on_c, 12, 62, 0
14, 304649, Note_on_c, 12, 60, 0
14, 304680, Note_on_c, 12, 62, 68
14, 304680, Note_on_c, 12, 60, 68
14, 304769, Note_on_c, 12, 62, 0
14, 304769, Note_on_c, 12, 60, 0
14, 304800, Control_c, 12, 11, 96
14, 304920, Note_on_c, 12, 62, 68
14, 305009, Note_on_c, 12, 62, 0
14, 305040, Note_on_c, 12, 62, 68
14, 305129, Note_on_c, 12, 62, 0
14, 305150, Control_c, 12, 11, 99
14, 305160, Note_on_c, 12, 62, 68
14, 305249, Note_on_c, 12, 62, 0
14, 305380, Control_c, 12, 11, 101
14, 305400, Note_on_c, 12, 63, 68
14, 305489, Note_on_c, 12, 63, 0
14, 305520, Note_on_c, 12, 63, 68
14, 305609, Note_on_c, 12, 63, 0
14, 305610, Control_c, 12, 11, 104
14, 305640, Note_on_c, 12, 63, 68
14, 305729, Note_on_c, 12, 63, 0
14, 305840, Control_c, 12, 11, 106
14, 305880, Note_on_c, 12, 59, 68
14, 305969, Note_on_c, 12, 59, 0
14, 306000, Note_on_c, 12, 59, 68
14, 306070, Control_c, 12, 11, 109
14, 306089, Note_on_c, 12, 59, 0
14, 306120, Note_on_c, 12, 59, 68
14, 306209, Note_on_c, 12, 59, 0
14, 306300, Control_c, 12, 11, 112
14, 306360, Note_on_c, 12, 60, 68
14, 306449, Note_on_c, 12, 60, 0
14, 306480, Note_on_c, 12, 60, 68
14, 306530, Control_c, 12, 11, 114
14, 306569, Note_on_c, 12, 60, 0
14, 306600, Note_on_c, 12, 60, 68
14, 306689, Note_on_c, 12, 60, 0
14, 306720, Note_on_c, 12, 59, 68
14, 306760, Control_c, 12, 11, 117
14, 306809, Note_on_c, 12, 59, 0
14, 306840, Note_on_c, 12, 71, 68
14, 306959, Note_on_c, 12, 71, 0
14, 306960, Note_on_c, 12, 67, 68
14, 306990, Control_c, 12, 11, 119
14, 307079, Note_on_c, 12, 67, 0
14, 307080, Note_on_c, 12, 71, 68
14, 307184, Note_on_c, 12, 71, 0
14, 307200, Note_on_c, 12, 64, 68
14, 307220, Control_c, 12, 11, 122
14, 307319, Note_on_c, 12, 64, 0
14, 307320, Note_on_c, 12, 67, 68
14, 307439, Note_on_c, 12, 67, 0
14, 307440, Note_on_c, 12, 64, 68
14, 307450, Control_c, 12, 11, 124
14, 307559, Note_on_c, 12, 64, 0
14, 307560, Note_on_c, 12, 67, 68
14, 307664, Note_on_c, 12, 67, 0
14, 307680, Control_c, 12, 11, 80
14, 307680, Note_on_c, 12, 66, 76
14, 307799, Note_on_c, 12, 66, 0
14, 307800, Note_on_c, 12, 62, 76
14, 307919, Note_on_c, 12, 62, 0
14, 307920, Note_on_c, 12, 61, 76
14, 307920, Control_c, 12, 11, 80
14, 308039, Note_on_c, 12, 61, 0
14, 308040, Note_on_c, 12, 62, 76
14, 308070, Control_c, 12, 11, 82
14, 308159, Note_on_c, 12, 62, 0
14, 308160, Note_on_c, 12, 61, 76
14, 308220, Control_c, 12, 11, 84
14, 308279, Note_on_c, 12, 61, 0
14, 308280, Note_on_c, 12, 62, 76
14, 308370, Control_c, 12, 11, 86
14, 308399, Note_on_c, 12, 62, 0
14, 308400, Note_on_c, 12, 66, 76
14, 308519, Note_on_c, 12, 66, 0
14, 308520, Note_on_c, 12, 69, 76
14, 308520, Control_c, 12, 11, 88
14, 308624, Note_on_c, 12, 69, 0
14, 308640, Note_on_c, 12, 69, 76
14, 308670, Control_c, 12, 11, 90
14, 308759, Note_on_c, 12, 69, 0
14, 308760, Note_on_c, 12, 67, 76
14, 308820, Control_c, 12, 11, 92
14, 308864, Note_on_c, 12, 67, 0
14, 308880, Note_on_c, 12, 67, 76
14, 308969, Note_on_c, 12, 67, 0
14, 308970, Control_c, 12, 11, 94
14, 309000, Note_on_c, 12, 67, 76
14, 309089, Note_on_c, 12, 67, 0
14, 309120, Note_on_c, 12, 67, 76
14, 309120, Control_c, 12, 11, 96
14, 309239, Note_on_c, 12, 67, 0
14, 309240, Note_on_c, 12, 66, 76
14, 309270, Control_c, 12, 11, 98
14, 309344, Note_on_c, 12, 66, 0
14, 309360, Note_on_c, 12, 66, 76
14, 309420, Control_c, 12, 11, 100
14, 309449, Note_on_c, 12, 66, 0
14, 309480, Note_on_c, 12, 66, 76
14, 309569, Note_on_c, 12, 66, 0
14, 309570, Control_c, 12, 11, 102
14, 309600, Note_on_c, 12, 66, 76
14, 309719, Note_on_c, 12, 66, 0
14, 309720, Control_c, 12, 11, 104
14, 309720, Note_on_c, 12, 64, 76
14, 309824, Note_on_c, 12, 64, 0
14, 309840, Note_on_c, 12, 64, 76
14, 309870, Control_c, 12, 11, 105
14, 309929, Note_on_c, 12, 64, 0
14, 309960, Note_on_c, 12, 64, 76
14, 310020, Control_c, 12, 11, 107
14, 310049, Note_on_c, 12, 64, 0
14, 310080, Note_on_c, 12, 64, 76
14, 310170, Control_c, 12, 11, 109
14, 310199, Note_on_c, 12, 64, 0
14, 310200, Note_on_c, 12, 63, 76
14, 310304, Note_on_c, 12, 63, 0
14, 310320, Note_on_c, 12, 63, 76
14, 310320, Control_c, 12, 11, 111
14, 310409, Note_on_c, 12, 63, 0
14, 310440, Note_on_c, 12, 63, 76
14, 310470, Control_c, 12, 11, 113
14, 310529, Note_on_c, 12, 63, 0
14, 310560, Note_on_c, 12, 63, 76
14, 310620, Control_c, 12, 11, 115
14, 310679, Note_on_c, 12, 63, 0
14, 310680, Note_on_c, 12, 64, 76
14, 310770, Control_c, 12, 11, 117
14, 310784, Note_on_c, 12, 64, 0
14, 310800, Note_on_c, 12, 64, 76
14, 310889, Note_on_c, 12, 64, 0
14, 310920, Control_c, 12, 11, 119
14, 310920, Note_on_c, 12, 64, 76
14, 311009, Note_on_c, 12, 64, 0
14, 311040, Note_on_c, 12, 64, 76
14, 311070, Control_c, 12, 11, 121
14, 311159, Note_on_c, 12, 64, 0
14, 311160, Note_on_c, 12, 62, 76
14, 311220, Control_c, 12, 11, 123
14, 311264, Note_on_c, 12, 62, 0
14, 311280, Note_on_c, 12, 62, 76
14, 311369, Note_on_c, 12, 62, 0
14, 311370, Control_c, 12, 11, 125
14, 311400, Note_on_c, 12, 62, 76
14, 311489, Note_on_c, 12, 62, 0
14, 311520, Control_c, 12, 11, 127
14, 311520, Note_on_c, 12, 61, 76
14, 311699, Note_on_c, 12, 61, 0
14, 311760, Note_on_c, 12, 57, 84
14, 311760, Note_on_c, 12, 69, 84
14, 312104, Note_on_c, 12, 57, 0
14, 312104, Note_on_c, 12, 69, 0
14, 312120, Note_on_c, 12, 71, 76
14, 312209, Note_on_c, 12, 71, 0
14, 312240, Note_on_c, 12, 69, 76
14, 312329, Note_on_c, 12, 69, 0
14, 312360, Note_on_c, 12, 67, 76
14, 312449, Note_on_c, 12, 67, 0
14, 312480, Note_on_c, 12, 66, 76
14, 312569, Note_on_c, 12, 66, 0
14, 312600, Note_on_c, 12, 64, 76
14, 312689, Note_on_c, 12, 64, 0
14, 312720, Note_on_c, 12, 62, 76
14, 312809, Note_on_c, 12, 62, 0
14, 312840, Note_on_c, 12, 61, 76
14, 312929, Note_on_c, 12, 61, 0
14, 312960, Note_on_c, 12, 62, 76
14, 313049, Note_on_c, 12, 62, 0
14, 313080, Note_on_c, 12, 66, 76
14, 313169, Note_on_c, 12, 66, 0
14, 313200, Note_on_c, 12, 64, 76
14, 313289, Note_on_c, 12, 64, 0
14, 313320, Note_on_c, 12, 62, 76
14, 313409, Note_on_c, 12, 62, 0
14, 313440, Note_on_c, 12, 61, 76
14, 313529, Note_on_c, 12, 61, 0
14, 313560, Note_on_c, 12, 57, 76
14, 313649, Note_on_c, 12, 57, 0
14, 313680, Note_on_c, 12, 56, 76
14, 313769, Note_on_c, 12, 56, 0
14, 313800, Note_on_c, 12, 57, 76
14, 313889, Note_on_c, 12, 57, 0
14, 313920, Note_on_c, 12, 58, 76
14, 314009, Note_on_c, 12, 58, 0
14, 314040, Note_on_c, 12, 59, 76
14, 314129, Note_on_c, 12, 59, 0
14, 314160, Note_on_c, 12, 60, 76
14, 314249, Note_on_c, 12, 60, 0
14, 314280, Note_on_c, 12, 61, 76
14, 314369, Note_on_c, 12, 61, 0
14, 314400, Note_on_c, 12, 62, 76
14, 314489, Note_on_c, 12, 62, 0
14, 314520, Note_on_c, 12, 61, 76
14, 314609, Note_on_c, 12, 61, 0
14, 314640, Note_on_c, 12, 62, 76
14, 314729, Note_on_c, 12, 62, 0
14, 314760, Note_on_c, 12, 64, 76
14, 314849, Note_on_c, 12, 64, 0
14, 314880, Note_on_c, 12, 65, 76
14, 314969, Note_on_c, 12, 65, 0
14, 315000, Note_on_c, 12, 66, 76
14, 315089, Note_on_c, 12, 66, 0
14, 315120, Note_on_c, 12, 67, 76
14, 315209, Note_on_c, 12, 67, 0
14, 315240, Note_on_c, 12, 68, 76
14, 315329, Note_on_c, 12, 68, 0
14, 315360, Note_on_c, 12, 69, 76
14, 315584, Note_on_c, 12, 69, 0
14, 315600, Note_on_c, 12, 69, 84
14, 315600, Note_on_c, 12, 57, 84
14, 315944, Note_on_c, 12, 69, 0
14, 315944, Note_on_c, 12, 57, 0
14, 315960, Note_on_c, 12, 70, 76
14, 316049, Note_on_c, 12, 70, 0
14, 316080, Note_on_c, 12, 69, 76
14, 316169, Note_on_c, 12, 69, 0
14, 316200, Note_on_c, 12, 67, 76
14, 316289, Note_on_c, 12, 67, 0
14, 316320, Note_on_c, 12, 65, 76
14, 316409, Note_on_c, 12, 65, 0
14, 316440, Note_on_c, 12, 64, 76
14, 316529, Note_on_c, 12, 64, 0
14, 316560, Note_on_c, 12, 62, 76
14, 316649, Note_on_c, 12, 62, 0
14, 316680, Note_on_c, 12, 61, 76
14, 316769, Note_on_c, 12, 61, 0
14, 316800, Note_on_c, 12, 62, 76
14, 316889, Note_on_c, 12, 62, 0
14, 316920, Note_on_c, 12, 65, 76
14, 317009, Note_on_c, 12, 65, 0
14, 317040, Note_on_c, 12, 64, 76
14, 317129, Note_on_c, 12, 64, 0
14, 317160, Note_on_c, 12, 62, 76
14, 317249, Note_on_c, 12, 62, 0
14, 317280, Note_on_c, 12, 61, 76
14, 317331, Note_on_c, 12, 61, 0
14, 317340, Note_on_c, 12, 61, 76
14, 317391, Note_on_c, 12, 61, 0
14, 317400, Note_on_c, 12, 56, 76
14, 317451, Note_on_c, 12, 56, 0
14, 317460, Note_on_c, 12, 56, 76
14, 317511, Note_on_c, 12, 56, 0
14, 317520, Note_on_c, 12, 57, 76
14, 317571, Note_on_c, 12, 57, 0
14, 317580, Note_on_c, 12, 57, 76
14, 317631, Note_on_c, 12, 57, 0
14, 317640, Note_on_c, 12, 56, 76
14, 317691, Note_on_c, 12, 56, 0
14, 317700, Note_on_c, 12, 56, 76
14, 317751, Note_on_c, 12, 56, 0
14, 317760, Note_on_c, 12, 57, 76
14, 317811, Note_on_c, 12, 57, 0
14, 317820, Note_on_c, 12, 57, 76
14, 317871, Note_on_c, 12, 57, 0
14, 317880, Note_on_c, 12, 59, 76
14, 317931, Note_on_c, 12, 59, 0
14, 317940, Note_on_c, 12, 59, 76
14, 317991, Note_on_c, 12, 59, 0
14, 318000, Note_on_c, 12, 60, 76
14, 318051, Note_on_c, 12, 60, 0
14, 318060, Note_on_c, 12, 60, 76
14, 318111, Note_on_c, 12, 60, 0
14, 318120, Note_on_c, 12, 61, 76
14, 318171, Note_on_c, 12, 61, 0
14, 318180, Note_on_c, 12, 61, 76
14, 318231, Note_on_c, 12, 61, 0
14, 318240, Note_on_c, 12, 62, 76
14, 318291, Note_on_c, 12, 62, 0
14, 318300, Note_on_c, 12, 62, 76
14, 318351, Note_on_c, 12, 62, 0
14, 318360, Note_on_c, 12, 61, 76
14, 318411, Note_on_c, 12, 61, 0
14, 318420, Note_on_c, 12, 61, 76
14, 318471, Note_on_c, 12, 61, 0
14, 318480, Note_on_c, 12, 62, 76
14, 318531, Note_on_c, 12, 62, 0
14, 318540, Note_on_c, 12, 62, 76
14, 318591, Note_on_c, 12, 62, 0
14, 318600, Note_on_c, 12, 64, 76
14, 318651, Note_on_c, 12, 64, 0
14, 318660, Note_on_c, 12, 64, 76
14, 318711, Note_on_c, 12, 64, 0
14, 318720, Note_on_c, 12, 65, 76
14, 318771, Note_on_c, 12, 65, 0
14, 318780, Note_on_c, 12, 65, 76
14, 318831, Note_on_c, 12, 65, 0
14, 318840, Note_on_c, 12, 66, 76
14, 318891, Note_on_c, 12, 66, 0
14, 318900, Note_on_c, 12, 66, 76
14, 318951, Note_on_c, 12, 66, 0
14, 318960, Note_on_c, 12, 67, 76
14, 319011, Note_on_c, 12, 67, 0
14, 319020, Note_on_c, 12, 67, 76
14, 319071, Note_on_c, 12, 67, 0
14, 319080, Note_on_c, 12, 68, 76
14, 319131, Note_on_c, 12, 68, 0
14, 319140, Note_on_c, 12, 68, 76
14, 319191, Note_on_c, 12, 68, 0
14, 319200, Note_on_c, 12, 69, 84
14, 319251, Note_on_c, 12, 69, 0
14, 319260, Note_on_c, 12, 61, 76
14, 319311, Note_on_c, 12, 61, 0
14, 319320, Note_on_c, 12, 61, 76
14, 319371, Note_on_c, 12, 61, 0
14, 319380, Note_on_c, 12, 61, 76
14, 319431, Note_on_c, 12, 61, 0
14, 319440, Note_on_c, 12, 61, 76
14, 319491, Note_on_c, 12, 61, 0
14, 319500, Note_on_c, 12, 61, 76
14, 319551, Note_on_c, 12, 61, 0
14, 319560, Note_on_c, 12, 62, 76
14, 319611, Note_on_c, 12, 62, 0
14, 319620, Note_on_c, 12, 62, 76
14, 319671, Note_on_c, 12, 62, 0
14, 319680, Note_on_c, 12, 61, 84
14, 319731, Note_on_c, 12, 61, 0
14, 319740, Note_on_c, 12, 61, 76
14, 319791, Note_on_c, 12, 61, 0
14, 319800, Note_on_c, 12, 61, 76
14, 319851, Note_on_c, 12, 61, 0
14, 319860, Note_on_c, 12, 61, 76
14, 319911, Note_on_c, 12, 61, 0
14, 319920, Note_on_c, 12, 61, 76
14, 319971, Note_on_c, 12, 61, 0
14, 319980, Note_on_c, 12, 61, 76
14, 320031, Note_on_c, 12, 61, 0
14, 320040, Note_on_c, 12, 62, 76
14, 320091, Note_on_c, 12, 62, 0
14, 320100, Note_on_c, 12, 62, 76
14, 320151, Note_on_c, 12, 62, 0
14, 320160, Note_on_c, 12, 61, 84
14, 320211, Note_on_c, 12, 61, 0
14, 320220, Note_on_c, 12, 61, 76
14, 320271, Note_on_c, 12, 61, 0
14, 320280, Note_on_c, 12, 62, 76
14, 320331, Note_on_c, 12, 62, 0
14, 320340, Note_on_c, 12, 62, 76
14, 320391, Note_on_c, 12, 62, 0
14, 320400, Note_on_c, 12, 61, 76
14, 320451, Note_on_c, 12, 61, 0
14, 320460, Note_on_c, 12, 61, 76
14, 320511, Note_on_c, 12, 61, 0
14, 320520, Note_on_c, 12, 62, 76
14, 320571, Note_on_c, 12, 62, 0
14, 320580, Note_on_c, 12, 62, 76
14, 320631, Note_on_c, 12, 62, 0
14, 320640, Note_on_c, 12, 61, 76
14, 320691, Note_on_c, 12, 61, 0
14, 320700, Note_on_c, 12, 61, 76
14, 320751, Note_on_c, 12, 61, 0
14, 320760, Note_on_c, 12, 62, 76
14, 320811, Note_on_c, 12, 62, 0
14, 320820, Note_on_c, 12, 62, 76
14, 320871, Note_on_c, 12, 62, 0
14, 320880, Note_on_c, 12, 61, 76
14, 320931, Note_on_c, 12, 61, 0
14, 320940, Note_on_c, 12, 61, 76
14, 320991, Note_on_c, 12, 61, 0
14, 321000, Note_on_c, 12, 62, 76
14, 321051, Note_on_c, 12, 62, 0
14, 321060, Note_on_c, 12, 62, 76
14, 321111, Note_on_c, 12, 62, 0
14, 321120, Note_on_c, 12, 61, 76
14, 321344, Note_on_c, 12, 61, 0
14, 321360, Note_on_c, 12, 69, 84
14, 321824, Note_on_c, 12, 69, 0
14, 321840, Note_on_c, 12, 68, 76
14, 322019, Note_on_c, 12, 68, 0
14, 322080, Note_on_c, 12, 67, 76
14, 322259, Note_on_c, 12, 67, 0
14, 322320, Note_on_c, 12, 66, 76
14, 322499, Note_on_c, 12, 66, 0
14, 322560, Note_on_c, 12, 64, 76
14, 322739, Note_on_c, 12, 64, 0
14, 322800, Note_on_c, 12, 69, 76
14, 322979, Note_on_c, 12, 69, 0
14, 323040, Note_on_c, 12, 62, 52
14, 323279, Note_on_c, 12, 62, 0
14, 326880, Note_on_c, 12, 74, 84
14, 327344, Note_on_c, 12, 74, 0
14, 327360, Note_on_c, 12, 78, 84
14, 327771, Note_on_c, 12, 78, 0
14, 327780, Note_on_c, 12, 83, 84
14, 327831, Note_on_c, 12, 83, 0
14, 327840, Note_on_c, 12, 86, 92
14, 328544, Note_on_c, 12, 86, 0
14, 328560, Note_on_c, 12, 78, 84
14, 328739, Note_on_c, 12, 78, 0
14, 328740, Note_on_c, 12, 74, 84
14, 328791, Note_on_c, 12, 74, 0
14, 328800, Note_on_c, 12, 73, 92
14, 328979, Note_on_c, 12, 73, 0
14, 329040, Note_on_c, 12, 76, 84
14, 329219, Note_on_c, 12, 76, 0
14, 329220, Note_on_c, 12, 73, 84
14, 329271, Note_on_c, 12, 73, 0
14, 329280, Note_on_c, 12, 71, 92
14, 329459, Note_on_c, 12, 71, 0
14, 329520, Note_on_c, 12, 74, 84
14, 329699, Note_on_c, 12, 74, 0
14, 329700, Note_on_c, 12, 71, 84
14, 329751, Note_on_c, 12, 71, 0
14, 329760, Note_on_c, 12, 73, 84
14, 329999, Note_on_c, 12, 73, 0
14, 330960, Note_on_c, 12, 74, 52
14, 331019, Note_on_c, 12, 74, 0
14, 331020, Note_on_c, 12, 73, 52
14, 331079, Note_on_c, 12, 73, 0
14, 331080, Note_on_c, 12, 74, 52
14, 331139, Note_on_c, 12, 74, 0
14, 331140, Note_on_c, 12, 73, 52
14, 331199, Note_on_c, 12, 73, 0
14, 331200, Note_on_c, 12, 74, 52
14, 331259, Note_on_c, 12, 74, 0
14, 331260, Note_on_c, 12, 73, 52
14, 331319, Note_on_c, 12, 73, 0
14, 331320, Note_on_c, 12, 74, 52
14, 331379, Note_on_c, 12, 74, 0
14, 331380, Note_on_c, 12, 73, 52
14, 331439, Note_on_c, 12, 73, 0
14, 331440, Note_on_c, 12, 74, 52
14, 331499, Note_on_c, 12, 74, 0
14, 331500, Note_on_c, 12, 73, 52
14, 331559, Note_on_c, 12, 73, 0
14, 331560, Note_on_c, 12, 74, 52
14, 331619, Note_on_c, 12, 74, 0
14, 331620, Note_on_c, 12, 73, 52
14, 331671, Note_on_c, 12, 73, 0
14, 331680, Note_on_c, 12, 74, 52
14, 331739, Note_on_c, 12, 74, 0
14, 331740, Note_on_c, 12, 73, 52
14, 331799, Note_on_c, 12, 73, 0
14, 331800, Note_on_c, 12, 74, 52
14, 331859, Note_on_c, 12, 74, 0
14, 331860, Note_on_c, 12, 73, 52
14, 331919, Note_on_c, 12, 73, 0
14, 331920, Note_on_c, 12, 74, 52
14, 331979, Note_on_c, 12, 74, 0
14, 331980, Note_on_c, 12, 73, 52
14, 332039, Note_on_c, 12, 73, 0
14, 332040, Note_on_c, 12, 74, 52
14, 332099, Note_on_c, 12, 74, 0
14, 332100, Note_on_c, 12, 73, 52
14, 332159, Note_on_c, 12, 73, 0
14, 332160, Note_on_c, 12, 74, 52
14, 332219, Note_on_c, 12, 74, 0
14, 332220, Note_on_c, 12, 73, 52
14, 332279, Note_on_c, 12, 73, 0
14, 332280, Note_on_c, 12, 74, 52
14, 332339, Note_on_c, 12, 74, 0
14, 332340, Note_on_c, 12, 73, 52
14, 332399, Note_on_c, 12, 73, 0
14, 332400, Note_on_c, 12, 74, 52
14, 332459, Note_on_c, 12, 74, 0
14, 332460, Note_on_c, 12, 73, 52
14, 332519, Note_on_c, 12, 73, 0
14, 332520, Note_on_c, 12, 74, 52
14, 332579, Note_on_c, 12, 74, 0
14, 332580, Note_on_c, 12, 73, 52
14, 332631, Note_on_c, 12, 73, 0
14, 332640, Note_on_c, 12, 74, 52
14, 332699, Note_on_c, 12, 74, 0
14, 332700, Note_on_c, 12, 73, 52
14, 332759, Note_on_c, 12, 73, 0
14, 332760, Note_on_c, 12, 74, 52
14, 332819, Note_on_c, 12, 74, 0
14, 332820, Note_on_c, 12, 73, 52
14, 332879, Note_on_c, 12, 73, 0
14, 332880, Note_on_c, 12, 74, 52
14, 332939, Note_on_c, 12, 74, 0
14, 332940, Note_on_c, 12, 73, 52
14, 332999, Note_on_c, 12, 73, 0
14, 333000, Note_on_c, 12, 74, 52
14, 333059, Note_on_c, 12, 74, 0
14, 333060, Note_on_c, 12, 73, 52
14, 333119, Note_on_c, 12, 73, 0
14, 333120, Note_on_c, 12, 74, 52
14, 333179, Note_on_c, 12, 74, 0
14, 333180, Note_on_c, 12, 73, 52
14, 333239, Note_on_c, 12, 73, 0
14, 333240, Note_on_c, 12, 74, 52
14, 333299, Note_on_c, 12, 74, 0
14, 333300, Note_on_c, 12, 73, 52
14, 333359, Note_on_c, 12, 73, 0
14, 333360, Note_on_c, 12, 74, 52
14, 333419, Note_on_c, 12, 74, 0
14, 333420, Note_on_c, 12, 73, 52
14, 333479, Note_on_c, 12, 73, 0
14, 333480, Note_on_c, 12, 74, 52
14, 333539, Note_on_c, 12, 74, 0
14, 333540, Note_on_c, 12, 73, 52
14, 333599, Note_on_c, 12, 73, 0
14, 333600, Note_on_c, 12, 74, 52
14, 333659, Note_on_c, 12, 74, 0
14, 333660, Note_on_c, 12, 73, 52
14, 333719, Note_on_c, 12, 73, 0
14, 333720, Note_on_c, 12, 74, 52
14, 333779, Note_on_c, 12, 74, 0
14, 333780, Note_on_c, 12, 73, 52
14, 333839, Note_on_c, 12, 73, 0
14, 333840, Note_on_c, 12, 74, 52
14, 333899, Note_on_c, 12, 74, 0
14, 333900, Note_on_c, 12, 73, 52
14, 333959, Note_on_c, 12, 73, 0
14, 333960, Note_on_c, 12, 74, 52
14, 334019, Note_on_c, 12, 74, 0
14, 334020, Note_on_c, 12, 73, 52
14, 334079, Note_on_c, 12, 73, 0
14, 334080, Note_on_c, 12, 74, 52
14, 334169, Note_on_c, 12, 74, 0
14, 334200, Note_on_c, 12, 66, 52
14, 334289, Note_on_c, 12, 66, 0
14, 334320, Note_on_c, 12, 71, 76
14, 334409, Note_on_c, 12, 71, 0
14, 334440, Note_on_c, 12, 74, 76
14, 334529, Note_on_c, 12, 74, 0
14, 334560, Note_on_c, 12, 78, 84
14, 334649, Note_on_c, 12, 78, 0
14, 334680, Note_on_c, 12, 62, 84
14, 334769, Note_on_c, 12, 62, 0
14, 334800, Note_on_c, 12, 66, 84
14, 334889, Note_on_c, 12, 66, 0
14, 334920, Note_on_c, 12, 71, 84
14, 335009, Note_on_c, 12, 71, 0
14, 335040, Note_on_c, 12, 74, 84
14, 335129, Note_on_c, 12, 74, 0
14, 335160, Note_on_c, 12, 74, 84
14, 335249, Note_on_c, 12, 74, 0
14, 335280, Note_on_c, 12, 78, 84
14, 335369, Note_on_c, 12, 78, 0
14, 335400, Note_on_c, 12, 83, 84
14, 335489, Note_on_c, 12, 83, 0
14, 335520, Note_on_c, 12, 86, 92
14, 336224, Note_on_c, 12, 86, 0
14, 336240, Note_on_c, 12, 78, 84
14, 336419, Note_on_c, 12, 78, 0
14, 336420, Note_on_c, 12, 74, 84
14, 336471, Note_on_c, 12, 74, 0
14, 336480, Note_on_c, 12, 73, 92
14, 336569, Note_on_c, 12, 73, 0
14, 336600, Note_on_c, 12, 73, 84
14, 336719, Note_on_c, 12, 73, 0
14, 336720, Note_on_c, 12, 76, 84
14, 336839, Note_on_c, 12, 76, 0
14, 336840, Note_on_c, 12, 73, 84
14, 336944, Note_on_c, 12, 73, 0
14, 336960, Note_on_c, 12, 71, 92
14, 337049, Note_on_c, 12, 71, 0
14, 337080, Note_on_c, 12, 71, 84
14, 337199, Note_on_c, 12, 71, 0
14, 337200, Note_on_c, 12, 74, 84
14, 337319, Note_on_c, 12, 74, 0
14, 337320, Note_on_c, 12, 71, 84
14, 337424, Note_on_c, 12, 71, 0
14, 337440, Note_on_c, 12, 73, 84
14, 337544, Note_on_c, 12, 73, 0
14, 337560, Note_on_c, 12, 81, 84
14, 337560, Note_on_c, 12, 69, 84
14, 337784, Note_on_c, 12, 81, 0
14, 337784, Note_on_c, 12, 69, 0
14, 337800, Note_on_c, 12, 69, 84
14, 337800, Note_on_c, 12, 81, 84
14, 338024, Note_on_c, 12, 69, 0
14, 338024, Note_on_c, 12, 81, 0
14, 338040, Note_on_c, 12, 69, 84
14, 338040, Note_on_c, 12, 81, 84
14, 338264, Note_on_c, 12, 69, 0
14, 338264, Note_on_c, 12, 81, 0
14, 338280, Note_on_c, 12, 81, 84
14, 338280, Note_on_c, 12, 69, 84
14, 338504, Note_on_c, 12, 81, 0
14, 338504, Note_on_c, 12, 69, 0
14, 338520, Note_on_c, 12, 81, 84
14, 338520, Note_on_c, 12, 69, 84
14, 338744, Note_on_c, 12, 81, 0
14, 338744, Note_on_c, 12, 69, 0
14, 338760, Note_on_c, 12, 81, 84
14, 338760, Note_on_c, 12, 69, 84
14, 338984, Note_on_c, 12, 81, 0
14, 338984, Note_on_c, 12, 69, 0
14, 339000, Note_on_c, 12, 81, 84
14, 339000, Note_on_c, 12, 69, 84
14, 339224, Note_on_c, 12, 81, 0
14, 339224, Note_on_c, 12, 69, 0
14, 339240, Note_on_c, 12, 69, 84
14, 339240, Note_on_c, 12, 81, 84
14, 339464, Note_on_c, 12, 69, 0
14, 339464, Note_on_c, 12, 81, 0
14, 339480, Note_on_c, 12, 69, 84
14, 339480, Note_on_c, 12, 81, 84
14, 339704, Note_on_c, 12, 69, 0
14, 339704, Note_on_c, 12, 81, 0
14, 339720, Note_on_c, 12, 81, 84
14, 339720, Note_on_c, 12, 69, 84
14, 339944, Note_on_c, 12, 81, 0
14, 339944, Note_on_c, 12, 69, 0
14, 339960, Note_on_c, 12, 81, 84
14, 339960, Note_on_c, 12, 69, 84
14, 340184, Note_on_c, 12, 81, 0
14, 340184, Note_on_c, 12, 69, 0
14, 340200, Note_on_c, 12, 81, 84
14, 340200, Note_on_c, 12, 69, 84
14, 340424, Note_on_c, 12, 81, 0
14, 340424, Note_on_c, 12, 69, 0
14, 340440, Note_on_c, 12, 69, 84
14, 340440, Note_on_c, 12, 81, 84
14, 340664, Note_on_c, 12, 69, 0
14, 340664, Note_on_c, 12, 81, 0
14, 340680, Note_on_c, 12, 81, 84
14, 340680, Note_on_c, 12, 69, 84
14, 340904, Note_on_c, 12, 81, 0
14, 340904, Note_on_c, 12, 69, 0
14, 340920, Note_on_c, 12, 69, 84
14, 340920, Note_on_c, 12, 81, 84
14, 341144, Note_on_c, 12, 69, 0
14, 341144, Note_on_c, 12, 81, 0
14, 341160, Note_on_c, 12, 81, 84
14, 341160, Note_on_c, 12, 69, 84
14, 341384, Note_on_c, 12, 81, 0
14, 341384, Note_on_c, 12, 69, 0
14, 341400, Note_on_c, 12, 81, 84
14, 341400, Note_on_c, 12, 69, 84
14, 341624, Note_on_c, 12, 81, 0
14, 341624, Note_on_c, 12, 69, 0
14, 341640, Note_on_c, 12, 69, 84
14, 341640, Note_on_c, 12, 81, 84
14, 341864, Note_on_c, 12, 69, 0
14, 341864, Note_on_c, 12, 81, 0
14, 341880, Note_on_c, 12, 69, 84
14, 341880, Note_on_c, 12, 81, 84
14, 342104, Note_on_c, 12, 69, 0
14, 342104, Note_on_c, 12, 81, 0
14, 342120, Note_on_c, 12, 81, 84
14, 342120, Note_on_c, 12, 69, 84
14, 342344, Note_on_c, 12, 81, 0
14, 342344, Note_on_c, 12, 69, 0
14, 342360, Note_on_c, 12, 69, 84
14, 342360, Note_on_c, 12, 81, 84
14, 342584, Note_on_c, 12, 69, 0
14, 342584, Note_on_c, 12, 81, 0
14, 342600, Note_on_c, 12, 81, 84
14, 342600, Note_on_c, 12, 69, 84
14, 342824, Note_on_c, 12, 81, 0
14, 342824, Note_on_c, 12, 69, 0
14, 342840, Note_on_c, 12, 81, 84
14, 342840, Note_on_c, 12, 69, 84
14, 343064, Note_on_c, 12, 81, 0
14, 343064, Note_on_c, 12, 69, 0
14, 343080, Note_on_c, 12, 81, 84
14, 343080, Note_on_c, 12, 69, 84
14, 343304, Note_on_c, 12, 81, 0
14, 343304, Note_on_c, 12, 69, 0
14, 343320, Note_on_c, 12, 78, 84
14, 343544, Note_on_c, 12, 78, 0
14, 343560, Note_on_c, 12, 78, 84
14, 343784, Note_on_c, 12, 78, 0
14, 343800, Note_on_c, 12, 78, 84
14, 344024, Note_on_c, 12, 78, 0
14, 344040, Note_on_c, 12, 78, 84
14, 344264, Note_on_c, 12, 78, 0
14, 344280, Note_on_c, 12, 62, 84
14, 344280, Note_on_c, 12, 74, 84
14, 344504, Note_on_c, 12, 62, 0
14, 344504, Note_on_c, 12, 74, 0
14, 344520, Note_on_c, 12, 74, 84
14, 344520, Note_on_c, 12, 62, 84
14, 344744, Note_on_c, 12, 74, 0
14, 344744, Note_on_c, 12, 62, 0
14, 344760, Note_on_c, 12, 62, 84
14, 344760, Note_on_c, 12, 74, 84
14, 344984, Note_on_c, 12, 62, 0
14, 344984, Note_on_c, 12, 74, 0
14, 345000, Note_on_c, 12, 62, 84
14, 345000, Note_on_c, 12, 74, 84
14, 345359, Note_on_c, 12, 62, 0
14, 345359, Note_on_c, 12, 74, 0
14, 346080, Note_on_c, 12, 79, 84
14, 346080, Note_on_c, 12, 64, 84
14, 346080, Note_on_c, 12, 71, 84
14, 346259, Note_on_c, 12, 79, 0
14, 346259, Note_on_c, 12, 64, 0
14, 346259, Note_on_c, 12, 71, 0
14, 347040, Note_on_c, 12, 79, 84
14, 347040, Note_on_c, 12, 64, 84
14, 347040, Note_on_c, 12, 69, 84
14, 347219, Note_on_c, 12, 79, 0
14, 347219, Note_on_c, 12, 64, 0
14, 347219, Note_on_c, 12, 69, 0
14, 347520, Note_on_c, 12, 62, 84
14, 347520, Note_on_c, 12, 69, 84
14, 347520, Note_on_c, 12, 78, 84
14, 347699, Note_on_c, 12, 62, 0
14, 347699, Note_on_c, 12, 69, 0
14, 347699, Note_on_c, 12, 78, 0
14, 348000, Note_on_c, 12, 67, 84
14, 348000, Note_on_c, 12, 76, 84
14, 348000, Note_on_c, 12, 55, 84
14, 348179, Note_on_c, 12, 67, 0
14, 348179, Note_on_c, 12, 76, 0
14, 348179, Note_on_c, 12, 55, 0
14, 348480, Note_on_c, 12, 73, 84
14, 348480, Note_on_c, 12, 57, 84
14, 348480, Note_on_c, 12, 64, 84
14, 348659, Note_on_c, 12, 73, 0
14, 348659, Note_on_c, 12, 57, 0
14, 348659, Note_on_c, 12, 64, 0
14, 348960, Note_on_c, 12, 67, 84
14, 348960, Note_on_c, 12, 74, 84
14, 348960, Note_on_c, 12, 58, 84
14, 349199, Note_on_c, 12, 67, 0
14, 349199, Note_on_c, 12, 74, 0
14, 349199, Note_on_c, 12, 58, 0
14, 349920, Note_on_c, 12, 67, 84
14, 349920, Note_on_c, 12, 70, 84
14, 349920, Note_on_c, 12, 76, 84
14, 350159, Note_on_c, 12, 67, 0
14, 350159, Note_on_c, 12, 70, 0
14, 350159, Note_on_c, 12, 76, 0
14, 351600, Note_on_c, 12, 64, 44
14, 351659, Note_on_c, 12, 64, 0
14, 351660, Note_on_c, 12, 63, 44
14, 351719, Note_on_c, 12, 63, 0
14, 351720, Note_on_c, 12, 64, 44
14, 351779, Note_on_c, 12, 64, 0
14, 351780, Note_on_c, 12, 65, 44
14, 351831, Note_on_c, 12, 65, 0
14, 351840, Note_on_c, 12, 67, 44
14, 352019, Note_on_c, 12, 67, 0
14, 352560, Note_on_c, 12, 65, 44
14, 352619, Note_on_c, 12, 65, 0
14, 352620, Note_on_c, 12, 64, 44
14, 352679, Note_on_c, 12, 64, 0
14, 352680, Note_on_c, 12, 65, 44
14, 352739, Note_on_c, 12, 65, 0
14, 352740, Note_on_c, 12, 67, 44
14, 352791, Note_on_c, 12, 67, 0
14, 352800, Note_on_c, 12, 69, 44
14, 352979, Note_on_c, 12, 69, 0
14, 353280, Control_c, 12, 11, 80
14, 353520, Note_on_c, 12, 67, 68
14, 353579, Note_on_c, 12, 67, 0
14, 353580, Note_on_c, 12, 66, 68
14, 353639, Note_on_c, 12, 66, 0
14, 353640, Note_on_c, 12, 67, 68
14, 353699, Note_on_c, 12, 67, 0
14, 353700, Note_on_c, 12, 69, 68
14, 353751, Note_on_c, 12, 69, 0
14, 353760, Control_c, 12, 11, 80
14, 353760, Note_on_c, 12, 70, 68
14, 353880, Control_c, 12, 11, 82
14, 353939, Note_on_c, 12, 70, 0
14, 354000, Note_on_c, 12, 69, 68
14, 354000, Control_c, 12, 11, 84
14, 354059, Note_on_c, 12, 69, 0
14, 354060, Note_on_c, 12, 68, 68
14, 354119, Note_on_c, 12, 68, 0
14, 354120, Control_c, 12, 11, 86
14, 354120, Note_on_c, 12, 69, 68
14, 354179, Note_on_c, 12, 69, 0
14, 354180, Note_on_c, 12, 71, 68
14, 354231, Note_on_c, 12, 71, 0
14, 354240, Control_c, 12, 11, 88
14, 354240, Note_on_c, 12, 72, 68
14, 354360, Control_c, 12, 11, 90
14, 354419, Note_on_c, 12, 72, 0
14, 354480, Control_c, 12, 11, 92
14, 354480, Note_on_c, 12, 71, 68
14, 354539, Note_on_c, 12, 71, 0
14, 354540, Note_on_c, 12, 70, 68
14, 354599, Note_on_c, 12, 70, 0
14, 354600, Note_on_c, 12, 71, 68
14, 354600, Control_c, 12, 11, 94
14, 354659, Note_on_c, 12, 71, 0
14, 354660, Note_on_c, 12, 73, 68
14, 354711, Note_on_c, 12, 73, 0
14, 354720, Control_c, 12, 11, 96
14, 354720, Note_on_c, 12, 74, 68
14, 354840, Control_c, 12, 11, 98
14, 354899, Note_on_c, 12, 74, 0
14, 354960, Control_c, 12, 11, 100
14, 354960, Note_on_c, 12, 61, 68
14, 355019, Note_on_c, 12, 61, 0
14, 355020, Note_on_c, 12, 60, 68
14, 355079, Note_on_c, 12, 60, 0
14, 355080, Note_on_c, 12, 61, 68
14, 355080, Control_c, 12, 11, 102
14, 355139, Note_on_c, 12, 61, 0
14, 355140, Note_on_c, 12, 62, 68
14, 355191, Note_on_c, 12, 62, 0
14, 355200, Control_c, 12, 11, 104
14, 355200, Note_on_c, 12, 64, 68
14, 355320, Control_c, 12, 11, 105
14, 355379, Note_on_c, 12, 64, 0
14, 355440, Control_c, 12, 11, 107
14, 355440, Note_on_c, 12, 62, 68
14, 355499, Note_on_c, 12, 62, 0
14, 355500, Note_on_c, 12, 61, 68
14, 355559, Note_on_c, 12, 61, 0
14, 355560, Control_c, 12, 11, 109
14, 355560, Note_on_c, 12, 62, 68
14, 355619, Note_on_c, 12, 62, 0
14, 355620, Note_on_c, 12, 64, 68
14, 355671, Note_on_c, 12, 64, 0
14, 355680, Control_c, 12, 11, 111
14, 355680, Note_on_c, 12, 65, 68
14, 355800, Control_c, 12, 11, 113
14, 355859, Note_on_c, 12, 65, 0
14, 355920, Note_on_c, 12, 62, 68
14, 355920, Control_c, 12, 11, 115
14, 355979, Note_on_c, 12, 62, 0
14, 355980, Note_on_c, 12, 61, 68
14, 356039, Note_on_c, 12, 61, 0
14, 356040, Note_on_c, 12, 62, 68
14, 356040, Control_c, 12, 11, 117
14, 356099, Note_on_c, 12, 62, 0
14, 356100, Note_on_c, 12, 64, 68
14, 356151, Note_on_c, 12, 64, 0
14, 356160, Note_on_c, 12, 65, 68
14, 356160, Control_c, 12, 11, 119
14, 356280, Control_c, 12, 11, 121
14, 356339, Note_on_c, 12, 65, 0
14, 356400, Note_on_c, 12, 62, 68
14, 356400, Control_c, 12, 11, 123
14, 356459, Note_on_c, 12, 62, 0
14, 356460, Note_on_c, 12, 61, 68
14, 356519, Note_on_c, 12, 61, 0
14, 356520, Note_on_c, 12, 62, 68
14, 356520, Control_c, 12, 11, 125
14, 356579, Note_on_c, 12, 62, 0
14, 356580, Note_on_c, 12, 64, 68
14, 356631, Note_on_c, 12, 64, 0
14, 356640, Note_on_c, 12, 65, 76
14, 356640, Control_c, 12, 11, 127
14, 357584, Note_on_c, 12, 65, 0
14, 357600, Note_on_c, 12, 56, 76
14, 358544, Note_on_c, 12, 56, 0
14, 358560, Note_on_c, 12, 57, 84
14, 358611, Note_on_c, 12, 57, 0
14, 358620, Note_on_c, 12, 66, 84
14, 358671, Note_on_c, 12, 66, 0
14, 358680, Note_on_c, 12, 66, 84
14, 358731, Note_on_c, 12, 66, 0
14, 358740, Note_on_c, 12, 66, 84
14, 358791, Note_on_c, 12, 66, 0
14, 358800, Note_on_c, 12, 66, 84
14, 358851, Note_on_c, 12, 66, 0
14, 358860, Note_on_c, 12, 66, 84
14, 358911, Note_on_c, 12, 66, 0
14, 358920, Note_on_c, 12, 66, 84
14, 358971, Note_on_c, 12, 66, 0
14, 358980, Note_on_c, 12, 66, 84
14, 359031, Note_on_c, 12, 66, 0
14, 359040, Note_on_c, 12, 66, 84
14, 359091, Note_on_c, 12, 66, 0
14, 359100, Note_on_c, 12, 66, 84
14, 359151, Note_on_c, 12, 66, 0
14, 359160, Note_on_c, 12, 66, 84
14, 359211, Note_on_c, 12, 66, 0
14, 359220, Note_on_c, 12, 66, 84
14, 359271, Note_on_c, 12, 66, 0
14, 359280, Note_on_c, 12, 66, 84
14, 359331, Note_on_c, 12, 66, 0
14, 359340, Note_on_c, 12, 66, 84
14, 359391, Note_on_c, 12, 66, 0
14, 359400, Note_on_c, 12, 66, 84
14, 359451, Note_on_c, 12, 66, 0
14, 359460, Note_on_c, 12, 66, 84
14, 359511, Note_on_c, 12, 66, 0
14, 359520, Note_on_c, 12, 67, 84
14, 359571, Note_on_c, 12, 67, 0
14, 359580, Note_on_c, 12, 67, 84
14, 359631, Note_on_c, 12, 67, 0
14, 359640, Note_on_c, 12, 67, 84
14, 359691, Note_on_c, 12, 67, 0
14, 359700, Note_on_c, 12, 67, 84
14, 359751, Note_on_c, 12, 67, 0
14, 359760, Note_on_c, 12, 67, 84
14, 359811, Note_on_c, 12, 67, 0
14, 359820, Note_on_c, 12, 67, 84
14, 359871, Note_on_c, 12, 67, 0
14, 359880, Note_on_c, 12, 67, 84
14, 359931, Note_on_c, 12, 67, 0
14, 359940, Note_on_c, 12, 67, 84
14, 359991, Note_on_c, 12, 67, 0
14, 360000, Note_on_c, 12, 67, 84
14, 360051, Note_on_c, 12, 67, 0
14, 360060, Note_on_c, 12, 67, 84
14, 360111, Note_on_c, 12, 67, 0
14, 360120, Note_on_c, 12, 67, 84
14, 360171, Note_on_c, 12, 67, 0
14, 360180, Note_on_c, 12, 67, 84
14, 360231, Note_on_c, 12, 67, 0
14, 360240, Note_on_c, 12, 67, 84
14, 360291, Note_on_c, 12, 67, 0
14, 360300, Note_on_c, 12, 67, 84
14, 360351, Note_on_c, 12, 67, 0
14, 360360, Note_on_c, 12, 67, 84
14, 360411, Note_on_c, 12, 67, 0
14, 360420, Note_on_c, 12, 67, 84
14, 360471, Note_on_c, 12, 67, 0
14, 360480, Note_on_c, 12, 66, 76
14, 360480, Note_on_c, 12, 74, 76
14, 360540, Control_c, 12, 11, 80
14, 360719, Note_on_c, 12, 66, 0
14, 361184, Note_on_c, 12, 74, 0
14, 361200, Note_on_c, 12, 74, 76
14, 361259, Note_on_c, 12, 74, 0
14, 361260, Note_on_c, 12, 73, 76
14, 361319, Note_on_c, 12, 73, 0
14, 361320, Note_on_c, 12, 74, 76
14, 361379, Note_on_c, 12, 74, 0
14, 361380, Note_on_c, 12, 76, 76
14, 361431, Note_on_c, 12, 76, 0
14, 361440, Note_on_c, 12, 78, 76
14, 361619, Note_on_c, 12, 78, 0
14, 361680, Note_on_c, 12, 78, 76
14, 361739, Note_on_c, 12, 78, 0
14, 361740, Note_on_c, 12, 76, 76
14, 361799, Note_on_c, 12, 76, 0
14, 361800, Note_on_c, 12, 78, 76
14, 361859, Note_on_c, 12, 78, 0
14, 361860, Note_on_c, 12, 79, 76
14, 361911, Note_on_c, 12, 79, 0
14, 361920, Note_on_c, 12, 81, 76
14, 362099, Note_on_c, 12, 81, 0
14, 362160, Note_on_c, 12, 81, 76
14, 362219, Note_on_c, 12, 81, 0
14, 362220, Note_on_c, 12, 82, 76
14, 362279, Note_on_c, 12, 82, 0
14, 362280, Note_on_c, 12, 84, 76
14, 362339, Note_on_c, 12, 84, 0
14, 362340, Note_on_c, 12, 81, 76
14, 362391, Note_on_c, 12, 81, 0
14, 362400, Control_c, 12, 11, 127
14, 362400, Note_on_c, 12, 82, 84
14, 362451, Note_on_c, 12, 82, 0
14, 362460, Note_on_c, 12, 67, 84
14, 362460, Note_on_c, 12, 70, 84
14, 362511, Note_on_c, 12, 67, 0
14, 362511, Note_on_c, 12, 70, 0
14, 362520, Note_on_c, 12, 67, 84
14, 362520, Note_on_c, 12, 70, 84
14, 362571, Note_on_c, 12, 67, 0
14, 362571, Note_on_c, 12, 70, 0
14, 362580, Note_on_c, 12, 67, 84
14, 362580, Note_on_c, 12, 70, 84
14, 362631, Note_on_c, 12, 67, 0
14, 362631, Note_on_c, 12, 70, 0
14, 362640, Note_on_c, 12, 70, 84
14, 362640, Note_on_c, 12, 67, 84
14, 362691, Note_on_c, 12, 70, 0
14, 362691, Note_on_c, 12, 67, 0
14, 362700, Note_on_c, 12, 67, 84
14, 362700, Note_on_c, 12, 70, 84
14, 362751, Note_on_c, 12, 67, 0
14, 362751, Note_on_c, 12, 70, 0
14, 362760, Note_on_c, 12, 70, 84
14, 362760, Note_on_c, 12, 67, 84
14, 362811, Note_on_c, 12, 70, 0
14, 362811, Note_on_c, 12, 67, 0
14, 362820, Note_on_c, 12, 67, 84
14, 362820, Note_on_c, 12, 70, 84
14, 362871, Note_on_c, 12, 67, 0
14, 362871, Note_on_c, 12, 70, 0
14, 362880, Note_on_c, 12, 70, 84
14, 362880, Note_on_c, 12, 67, 84
14, 362931, Note_on_c, 12, 70, 0
14, 362931, Note_on_c, 12, 67, 0
14, 362940, Note_on_c, 12, 70, 84
14, 362940, Note_on_c, 12, 67, 84
14, 362991, Note_on_c, 12, 70, 0
14, 362991, Note_on_c, 12, 67, 0
14, 363000, Note_on_c, 12, 70, 84
14, 363000, Note_on_c, 12, 67, 84
14, 363051, Note_on_c, 12, 70, 0
14, 363051, Note_on_c, 12, 67, 0
14, 363060, Note_on_c, 12, 67, 84
14, 363060, Note_on_c, 12, 70, 84
14, 363111, Note_on_c, 12, 67, 0
14, 363111, Note_on_c, 12, 70, 0
14, 363120, Note_on_c, 12, 70, 84
14, 363120, Note_on_c, 12, 67, 84
14, 363171, Note_on_c, 12, 70, 0
14, 363171, Note_on_c, 12, 67, 0
14, 363180, Note_on_c, 12, 67, 84
14, 363180, Note_on_c, 12, 70, 84
14, 363231, Note_on_c, 12, 67, 0
14, 363231, Note_on_c, 12, 70, 0
14, 363240, Note_on_c, 12, 67, 84
14, 363240, Note_on_c, 12, 70, 84
14, 363291, Note_on_c, 12, 67, 0
14, 363291, Note_on_c, 12, 70, 0
14, 363300, Note_on_c, 12, 67, 84
14, 363300, Note_on_c, 12, 70, 84
14, 363351, Note_on_c, 12, 67, 0
14, 363351, Note_on_c, 12, 70, 0
14, 363360, Note_on_c, 12, 70, 84
14, 363360, Note_on_c, 12, 67, 84
14, 363411, Note_on_c, 12, 70, 0
14, 363411, Note_on_c, 12, 67, 0
14, 363420, Note_on_c, 12, 67, 84
14, 363420, Note_on_c, 12, 70, 84
14, 363471, Note_on_c, 12, 67, 0
14, 363471, Note_on_c, 12, 70, 0
14, 363480, Note_on_c, 12, 70, 84
14, 363480, Note_on_c, 12, 67, 84
14, 363531, Note_on_c, 12, 70, 0
14, 363531, Note_on_c, 12, 67, 0
14, 363540, Note_on_c, 12, 67, 84
14, 363540, Note_on_c, 12, 70, 84
14, 363591, Note_on_c, 12, 67, 0
14, 363591, Note_on_c, 12, 70, 0
14, 363600, Note_on_c, 12, 70, 84
14, 363600, Note_on_c, 12, 67, 84
14, 363651, Note_on_c, 12, 70, 0
14, 363651, Note_on_c, 12, 67, 0
14, 363660, Note_on_c, 12, 67, 84
14, 363660, Note_on_c, 12, 70, 84
14, 363711, Note_on_c, 12, 67, 0
14, 363711, Note_on_c, 12, 70, 0
14, 363720, Note_on_c, 12, 70, 84
14, 363720, Note_on_c, 12, 67, 84
14, 363771, Note_on_c, 12, 70, 0
14, 363771, Note_on_c, 12, 67, 0
14, 363780, Note_on_c, 12, 67, 84
14, 363780, Note_on_c, 12, 70, 84
14, 363831, Note_on_c, 12, 67, 0
14, 363831, Note_on_c, 12, 70, 0
14, 363840, Note_on_c, 12, 67, 84
14, 363840, Note_on_c, 12, 70, 84
14, 363891, Note_on_c, 12, 67, 0
14, 363891, Note_on_c, 12, 70, 0
14, 363900, Note_on_c, 12, 67, 84
14, 363900, Note_on_c, 12, 70, 84
14, 363951, Note_on_c, 12, 67, 0
14, 363951, Note_on_c, 12, 70, 0
14, 363960, Note_on_c, 12, 67, 84
14, 363960, Note_on_c, 12, 70, 84
14, 364011, Note_on_c, 12, 67, 0
14, 364011, Note_on_c, 12, 70, 0
14, 364020, Note_on_c, 12, 67, 84
14, 364020, Note_on_c, 12, 70, 84
14, 364071, Note_on_c, 12, 67, 0
14, 364071, Note_on_c, 12, 70, 0
14, 364080, Note_on_c, 12, 70, 84
14, 364080, Note_on_c, 12, 67, 84
14, 364131, Note_on_c, 12, 70, 0
14, 364131, Note_on_c, 12, 67, 0
14, 364140, Note_on_c, 12, 70, 84
14, 364140, Note_on_c, 12, 67, 84
14, 364191, Note_on_c, 12, 70, 0
14, 364191, Note_on_c, 12, 67, 0
14, 364200, Note_on_c, 12, 67, 84
14, 364200, Note_on_c, 12, 70, 84
14, 364251, Note_on_c, 12, 67, 0
14, 364251, Note_on_c, 12, 70, 0
14, 364260, Note_on_c, 12, 67, 84
14, 364260, Note_on_c, 12, 70, 84
14, 364311, Note_on_c, 12, 67, 0
14, 364311, Note_on_c, 12, 70, 0
14, 364320, Note_on_c, 12, 74, 76
14, 364320, Note_on_c, 12, 62, 76
14, 364380, Control_c, 12, 11, 80
14, 365024, Note_on_c, 12, 74, 0
14, 365024, Note_on_c, 12, 62, 0
14, 365040, Note_on_c, 12, 74, 76
14, 365099, Note_on_c, 12, 74, 0
14, 365100, Note_on_c, 12, 73, 76
14, 365159, Note_on_c, 12, 73, 0
14, 365160, Note_on_c, 12, 74, 76
14, 365219, Note_on_c, 12, 74, 0
14, 365220, Note_on_c, 12, 76, 76
14, 365271, Note_on_c, 12, 76, 0
14, 365280, Note_on_c, 12, 78, 76
14, 365459, Note_on_c, 12, 78, 0
14, 365520, Note_on_c, 12, 78, 76
14, 365579, Note_on_c, 12, 78, 0
14, 365580, Note_on_c, 12, 76, 76
14, 365639, Note_on_c, 12, 76, 0
14, 365640, Note_on_c, 12, 78, 76
14, 365699, Note_on_c, 12, 78, 0
14, 365700, Note_on_c, 12, 79, 76
14, 365751, Note_on_c, 12, 79, 0
14, 365760, Note_on_c, 12, 81, 76
14, 365939, Note_on_c, 12, 81, 0
14, 366000, Note_on_c, 12, 81, 76
14, 366059, Note_on_c, 12, 81, 0
14, 366060, Note_on_c, 12, 82, 76
14, 366119, Note_on_c, 12, 82, 0
14, 366120, Note_on_c, 12, 84, 76
14, 366179, Note_on_c, 12, 84, 0
14, 366180, Note_on_c, 12, 81, 76
14, 366224, Note_on_c, 12, 81, 0
14, 366232, Control_c, 12, 11, 127
14, 366240, Note_on_c, 12, 82, 84
14, 366291, Note_on_c, 12, 82, 0
14, 366300, Note_on_c, 12, 70, 84
14, 366300, Note_on_c, 12, 67, 84
14, 366351, Note_on_c, 12, 70, 0
14, 366351, Note_on_c, 12, 67, 0
14, 366360, Note_on_c, 12, 70, 84
14, 366360, Note_on_c, 12, 67, 84
14, 366411, Note_on_c, 12, 70, 0
14, 366411, Note_on_c, 12, 67, 0
14, 366420, Note_on_c, 12, 67, 84
14, 366420, Note_on_c, 12, 70, 84
14, 366471, Note_on_c, 12, 67, 0
14, 366471, Note_on_c, 12, 70, 0
14, 366480, Note_on_c, 12, 70, 84
14, 366480, Note_on_c, 12, 67, 84
14, 366531, Note_on_c, 12, 70, 0
14, 366531, Note_on_c, 12, 67, 0
14, 366540, Note_on_c, 12, 70, 84
14, 366540, Note_on_c, 12, 67, 84
14, 366591, Note_on_c, 12, 70, 0
14, 366591, Note_on_c, 12, 67, 0
14, 366600, Note_on_c, 12, 70, 84
14, 366600, Note_on_c, 12, 67, 84
14, 366651, Note_on_c, 12, 70, 0
14, 366651, Note_on_c, 12, 67, 0
14, 366660, Note_on_c, 12, 70, 84
14, 366660, Note_on_c, 12, 67, 84
14, 366711, Note_on_c, 12, 70, 0
14, 366711, Note_on_c, 12, 67, 0
14, 366720, Note_on_c, 12, 67, 84
14, 366720, Note_on_c, 12, 70, 84
14, 366771, Note_on_c, 12, 67, 0
14, 366771, Note_on_c, 12, 70, 0
14, 366780, Note_on_c, 12, 67, 84
14, 366780, Note_on_c, 12, 70, 84
14, 366831, Note_on_c, 12, 67, 0
14, 366831, Note_on_c, 12, 70, 0
14, 366840, Note_on_c, 12, 70, 84
14, 366840, Note_on_c, 12, 67, 84
14, 366891, Note_on_c, 12, 70, 0
14, 366891, Note_on_c, 12, 67, 0
14, 366900, Note_on_c, 12, 70, 84
14, 366900, Note_on_c, 12, 67, 84
14, 366951, Note_on_c, 12, 70, 0
14, 366951, Note_on_c, 12, 67, 0
14, 366960, Note_on_c, 12, 67, 84
14, 366960, Note_on_c, 12, 70, 84
14, 367011, Note_on_c, 12, 67, 0
14, 367011, Note_on_c, 12, 70, 0
14, 367020, Note_on_c, 12, 67, 84
14, 367020, Note_on_c, 12, 70, 84
14, 367071, Note_on_c, 12, 67, 0
14, 367071, Note_on_c, 12, 70, 0
14, 367080, Note_on_c, 12, 67, 84
14, 367080, Note_on_c, 12, 70, 84
14, 367131, Note_on_c, 12, 67, 0
14, 367131, Note_on_c, 12, 70, 0
14, 367140, Note_on_c, 12, 67, 84
14, 367140, Note_on_c, 12, 70, 84
14, 367191, Note_on_c, 12, 67, 0
14, 367191, Note_on_c, 12, 70, 0
14, 367200, Note_on_c, 12, 67, 84
14, 367200, Note_on_c, 12, 70, 84
14, 367251, Note_on_c, 12, 67, 0
14, 367251, Note_on_c, 12, 70, 0
14, 367260, Note_on_c, 12, 70, 84
14, 367260, Note_on_c, 12, 67, 84
14, 367311, Note_on_c, 12, 70, 0
14, 367311, Note_on_c, 12, 67, 0
14, 367320, Note_on_c, 12, 67, 84
14, 367320, Note_on_c, 12, 70, 84
14, 367371, Note_on_c, 12, 67, 0
14, 367371, Note_on_c, 12, 70, 0
14, 367380, Note_on_c, 12, 67, 84
14, 367380, Note_on_c, 12, 70, 84
14, 367431, Note_on_c, 12, 67, 0
14, 367431, Note_on_c, 12, 70, 0
14, 367440, Note_on_c, 12, 67, 84
14, 367440, Note_on_c, 12, 70, 84
14, 367491, Note_on_c, 12, 67, 0
14, 367491, Note_on_c, 12, 70, 0
14, 367500, Note_on_c, 12, 67, 84
14, 367500, Note_on_c, 12, 70, 84
14, 367551, Note_on_c, 12, 67, 0
14, 367551, Note_on_c, 12, 70, 0
14, 367560, Note_on_c, 12, 67, 84
14, 367560, Note_on_c, 12, 70, 84
14, 367611, Note_on_c, 12, 67, 0
14, 367611, Note_on_c, 12, 70, 0
14, 367620, Note_on_c, 12, 70, 84
14, 367620, Note_on_c, 12, 67, 84
14, 367671, Note_on_c, 12, 70, 0
14, 367671, Note_on_c, 12, 67, 0
14, 367680, Note_on_c, 12, 67, 84
14, 367680, Note_on_c, 12, 70, 84
14, 367731, Note_on_c, 12, 67, 0
14, 367731, Note_on_c, 12, 70, 0
14, 367740, Note_on_c, 12, 70, 84
14, 367740, Note_on_c, 12, 67, 84
14, 367791, Note_on_c, 12, 70, 0
14, 367791, Note_on_c, 12, 67, 0
14, 367800, Note_on_c, 12, 67, 84
14, 367800, Note_on_c, 12, 70, 84
14, 367851, Note_on_c, 12, 67, 0
14, 367851, Note_on_c, 12, 70, 0
14, 367860, Note_on_c, 12, 67, 84
14, 367860, Note_on_c, 12, 70, 84
14, 367911, Note_on_c, 12, 67, 0
14, 367911, Note_on_c, 12, 70, 0
14, 367920, Note_on_c, 12, 70, 84
14, 367920, Note_on_c, 12, 67, 84
14, 367971, Note_on_c, 12, 70, 0
14, 367971, Note_on_c, 12, 67, 0
14, 367980, Note_on_c, 12, 70, 84
14, 367980, Note_on_c, 12, 67, 84
14, 368031, Note_on_c, 12, 70, 0
14, 368031, Note_on_c, 12, 67, 0
14, 368040, Note_on_c, 12, 70, 84
14, 368040, Note_on_c, 12, 67, 84
14, 368091, Note_on_c, 12, 70, 0
14, 368091, Note_on_c, 12, 67, 0
14, 368100, Note_on_c, 12, 70, 84
14, 368100, Note_on_c, 12, 67, 84
14, 368151, Note_on_c, 12, 70, 0
14, 368151, Note_on_c, 12, 67, 0
14, 368160, Note_on_c, 12, 66, 52
14, 368160, Note_on_c, 12, 69, 52
14, 368211, Note_on_c, 12, 66, 0
14, 368211, Note_on_c, 12, 69, 0
14, 368220, Note_on_c, 12, 66, 52
14, 368220, Note_on_c, 12, 69, 52
14, 368271, Note_on_c, 12, 66, 0
14, 368271, Note_on_c, 12, 69, 0
14, 368280, Note_on_c, 12, 69, 52
14, 368280, Note_on_c, 12, 66, 52
14, 368331, Note_on_c, 12, 69, 0
14, 368331, Note_on_c, 12, 66, 0
14, 368340, Note_on_c, 12, 69, 52
14, 368340, Note_on_c, 12, 66, 52
14, 368391, Note_on_c, 12, 69, 0
14, 368391, Note_on_c, 12, 66, 0
14, 368400, Note_on_c, 12, 67, 52
14, 368451, Note_on_c, 12, 67, 0
14, 368460, Note_on_c, 12, 67, 52
14, 368511, Note_on_c, 12, 67, 0
14, 368520, Note_on_c, 12, 67, 52
14, 368571, Note_on_c, 12, 67, 0
14, 368580, Note_on_c, 12, 67, 52
14, 368631, Note_on_c, 12, 67, 0
14, 368640, Note_on_c, 12, 69, 52
14, 368691, Note_on_c, 12, 69, 0
14, 368700, Note_on_c, 12, 69, 52
14, 368751, Note_on_c, 12, 69, 0
14, 368760, Note_on_c, 12, 69, 52
14, 368811, Note_on_c, 12, 69, 0
14, 368820, Note_on_c, 12, 69, 52
14, 368871, Note_on_c, 12, 69, 0
14, 368880, Note_on_c, 12, 70, 76
14, 368931, Note_on_c, 12, 70, 0
14, 368940, Note_on_c, 12, 70, 52
14, 368991, Note_on_c, 12, 70, 0
14, 369000, Note_on_c, 12, 70, 52
14, 369051, Note_on_c, 12, 70, 0
14, 369060, Note_on_c, 12, 70, 52
14, 369111, Note_on_c, 12, 70, 0
14, 369120, Note_on_c, 12, 69, 52
14, 369171, Note_on_c, 12, 69, 0
14, 369180, Note_on_c, 12, 69, 52
14, 369231, Note_on_c, 12, 69, 0
14, 369240, Note_on_c, 12, 69, 52
14, 369291, Note_on_c, 12, 69, 0
14, 369300, Note_on_c, 12, 69, 52
14, 369351, Note_on_c, 12, 69, 0
14, 369360, Note_on_c, 12, 67, 52
14, 369411, Note_on_c, 12, 67, 0
14, 369420, Note_on_c, 12, 67, 52
14, 369471, Note_on_c, 12, 67, 0
14, 369480, Note_on_c, 12, 67, 52
14, 369531, Note_on_c, 12, 67, 0
14, 369540, Note_on_c, 12, 67, 52
14, 369591, Note_on_c, 12, 67, 0
14, 369600, Note_on_c, 12, 69, 52
14, 369651, Note_on_c, 12, 69, 0
14, 369660, Note_on_c, 12, 69, 52
14, 369711, Note_on_c, 12, 69, 0
14, 369720, Note_on_c, 12, 69, 52
14, 369771, Note_on_c, 12, 69, 0
14, 369780, Note_on_c, 12, 69, 52
14, 369831, Note_on_c, 12, 69, 0
14, 369840, Note_on_c, 12, 70, 76
14, 369891, Note_on_c, 12, 70, 0
14, 369900, Note_on_c, 12, 70, 52
14, 369951, Note_on_c, 12, 70, 0
14, 369960, Note_on_c, 12, 70, 52
14, 370011, Note_on_c, 12, 70, 0
14, 370020, Note_on_c, 12, 70, 52
14, 370071, Note_on_c, 12, 70, 0
14, 370080, Note_on_c, 12, 69, 52
14, 370131, Note_on_c, 12, 69, 0
14, 370140, Note_on_c, 12, 69, 52
14, 370191, Note_on_c, 12, 69, 0
14, 370200, Note_on_c, 12, 69, 52
14, 370251, Note_on_c, 12, 69, 0
14, 370260, Note_on_c, 12, 69, 52
14, 370311, Note_on_c, 12, 69, 0
14, 370320, Note_on_c, 12, 67, 52
14, 370371, Note_on_c, 12, 67, 0
14, 370380, Note_on_c, 12, 67, 52
14, 370431, Note_on_c, 12, 67, 0
14, 370440, Note_on_c, 12, 67, 52
14, 370491, Note_on_c, 12, 67, 0
14, 370500, Note_on_c, 12, 67, 52
14, 370551, Note_on_c, 12, 67, 0
14, 370560, Note_on_c, 12, 69, 52
14, 370611, Note_on_c, 12, 69, 0
14, 370620, Note_on_c, 12, 69, 52
14, 370671, Note_on_c, 12, 69, 0
14, 370680, Note_on_c, 12, 69, 52
14, 370731, Note_on_c, 12, 69, 0
14, 370740, Note_on_c, 12, 69, 52
14, 370791, Note_on_c, 12, 69, 0
14, 370800, Note_on_c, 12, 70, 76
14, 370851, Note_on_c, 12, 70, 0
14, 370860, Note_on_c, 12, 70, 52
14, 370911, Note_on_c, 12, 70, 0
14, 370920, Note_on_c, 12, 70, 52
14, 370971, Note_on_c, 12, 70, 0
14, 370980, Note_on_c, 12, 70, 52
14, 371031, Note_on_c, 12, 70, 0
14, 371040, Note_on_c, 12, 69, 52
14, 371091, Note_on_c, 12, 69, 0
14, 371100, Note_on_c, 12, 69, 52
14, 371151, Note_on_c, 12, 69, 0
14, 371160, Note_on_c, 12, 69, 52
14, 371211, Note_on_c, 12, 69, 0
14, 371220, Note_on_c, 12, 69, 52
14, 371271, Note_on_c, 12, 69, 0
14, 371280, Note_on_c, 12, 67, 52
14, 371331, Note_on_c, 12, 67, 0
14, 371340, Note_on_c, 12, 67, 52
14, 371391, Note_on_c, 12, 67, 0
14, 371400, Note_on_c, 12, 67, 52
14, 371451, Note_on_c, 12, 67, 0
14, 371460, Note_on_c, 12, 67, 52
14, 371511, Note_on_c, 12, 67, 0
14, 371520, Note_on_c, 12, 69, 52
14, 371571, Note_on_c, 12, 69, 0
14, 371580, Note_on_c, 12, 69, 52
14, 371631, Note_on_c, 12, 69, 0
14, 371640, Note_on_c, 12, 69, 52
14, 371691, Note_on_c, 12, 69, 0
14, 371700, Note_on_c, 12, 69, 52
14, 371751, Note_on_c, 12, 69, 0
14, 371760, Note_on_c, 12, 70, 76
14, 371811, Note_on_c, 12, 70, 0
14, 371820, Note_on_c, 12, 70, 52
14, 371871, Note_on_c, 12, 70, 0
14, 371880, Note_on_c, 12, 70, 52
14, 371931, Note_on_c, 12, 70, 0
14, 371940, Note_on_c, 12, 70, 52
14, 371991, Note_on_c, 12, 70, 0
14, 372000, Note_on_c, 12, 69, 52
14, 372051, Note_on_c, 12, 69, 0
14, 372060, Note_on_c, 12, 69, 52
14, 372111, Note_on_c, 12, 69, 0
14, 372120, Note_on_c, 12, 69, 52
14, 372171, Note_on_c, 12, 69, 0
14, 372180, Note_on_c, 12, 69, 52
14, 372231, Note_on_c, 12, 69, 0
14, 372240, Note_on_c, 12, 70, 76
14, 372291, Note_on_c, 12, 70, 0
14, 372300, Note_on_c, 12, 70, 52
14, 372351, Note_on_c, 12, 70, 0
14, 372360, Note_on_c, 12, 70, 52
14, 372411, Note_on_c, 12, 70, 0
14, 372420, Note_on_c, 12, 70, 52
14, 372471, Note_on_c, 12, 70, 0
14, 372480, Note_on_c, 12, 69, 52
14, 372531, Note_on_c, 12, 69, 0
14, 372540, Note_on_c, 12, 69, 52
14, 372591, Note_on_c, 12, 69, 0
14, 372600, Note_on_c, 12, 69, 52
14, 372651, Note_on_c, 12, 69, 0
14, 372660, Note_on_c, 12, 69, 52
14, 372711, Note_on_c, 12, 69, 0
14, 372720, Note_on_c, 12, 70, 76
14, 372771, Note_on_c, 12, 70, 0
14, 372780, Note_on_c, 12, 70, 52
14, 372831, Note_on_c, 12, 70, 0
14, 372840, Note_on_c, 12, 70, 52
14, 372891, Note_on_c, 12, 70, 0
14, 372900, Note_on_c, 12, 70, 52
14, 372951, Note_on_c, 12, 70, 0
14, 372960, Note_on_c, 12, 69, 52
14, 373011, Note_on_c, 12, 69, 0
14, 373020, Note_on_c, 12, 69, 52
14, 373071, Note_on_c, 12, 69, 0
14, 373080, Note_on_c, 12, 69, 52
14, 373131, Note_on_c, 12, 69, 0
14, 373140, Note_on_c, 12, 69, 52
14, 373191, Note_on_c, 12, 69, 0
14, 373200, Note_on_c, 12, 70, 76
14, 373251, Note_on_c, 12, 70, 0
14, 373260, Note_on_c, 12, 70, 52
14, 373311, Note_on_c, 12, 70, 0
14, 373320, Note_on_c, 12, 70, 52
14, 373371, Note_on_c, 12, 70, 0
14, 373380, Note_on_c, 12, 70, 52
14, 373431, Note_on_c, 12, 70, 0
14, 373440, Note_on_c, 12, 69, 52
14, 373491, Note_on_c, 12, 69, 0
14, 373500, Note_on_c, 12, 69, 52
14, 373551, Note_on_c, 12, 69, 0
14, 373560, Note_on_c, 12, 69, 52
14, 373611, Note_on_c, 12, 69, 0
14, 373620, Note_on_c, 12, 69, 52
14, 373671, Note_on_c, 12, 69, 0
14, 373680, Note_on_c, 12, 70, 76
14, 373731, Note_on_c, 12, 70, 0
14, 373740, Note_on_c, 12, 70, 52
14, 373791, Note_on_c, 12, 70, 0
14, 373800, Note_on_c, 12, 70, 52
14, 373851, Note_on_c, 12, 70, 0
14, 373860, Note_on_c, 12, 70, 52
14, 373911, Note_on_c, 12, 70, 0
14, 373920, Note_on_c, 12, 66, 84
14, 373920, Note_on_c, 12, 69, 84
14, 374159, Note_on_c, 12, 66, 0
14, 374159, Note_on_c, 12, 69, 0
14, 375000, Note_on_c, 12, 57, 84
14, 375051, Note_on_c, 12, 57, 0
14, 375060, Note_on_c, 12, 57, 84
14, 375111, Note_on_c, 12, 57, 0
14, 375120, Note_on_c, 12, 62, 84
14, 375171, Note_on_c, 12, 62, 0
14, 375180, Note_on_c, 12, 62, 84
14, 375231, Note_on_c, 12, 62, 0
14, 375240, Note_on_c, 12, 66, 84
14, 375291, Note_on_c, 12, 66, 0
14, 375300, Note_on_c, 12, 66, 84
14, 375351, Note_on_c, 12, 66, 0
14, 375360, Note_on_c, 12, 69, 84
14, 375411, Note_on_c, 12, 69, 0
14, 375420, Note_on_c, 12, 69, 84
14, 375471, Note_on_c, 12, 69, 0
14, 375480, Note_on_c, 12, 62, 84
14, 375531, Note_on_c, 12, 62, 0
14, 375540, Note_on_c, 12, 62, 84
14, 375591, Note_on_c, 12, 62, 0
14, 375600, Note_on_c, 12, 66, 84
14, 375651, Note_on_c, 12, 66, 0
14, 375660, Note_on_c, 12, 66, 84
14, 375711, Note_on_c, 12, 66, 0
14, 375720, Note_on_c, 12, 69, 84
14, 375771, Note_on_c, 12, 69, 0
14, 375780, Note_on_c, 12, 69, 84
14, 375831, Note_on_c, 12, 69, 0
14, 375840, Note_on_c, 12, 74, 84
14, 375891, Note_on_c, 12, 74, 0
14, 375900, Note_on_c, 12, 74, 84
14, 375951, Note_on_c, 12, 74, 0
14, 375960, Note_on_c, 12, 69, 84
14, 376011, Note_on_c, 12, 69, 0
14, 376020, Note_on_c, 12, 69, 84
14, 376071, Note_on_c, 12, 69, 0
14, 376080, Note_on_c, 12, 66, 84
14, 376131, Note_on_c, 12, 66, 0
14, 376140, Note_on_c, 12, 66, 84
14, 376191, Note_on_c, 12, 66, 0
14, 376200, Note_on_c, 12, 62, 84
14, 376251, Note_on_c, 12, 62, 0
14, 376260, Note_on_c, 12, 62, 84
14, 376311, Note_on_c, 12, 62, 0
14, 376320, Note_on_c, 12, 57, 84
14, 376424, Note_on_c, 12, 57, 0
14, 376440, Note_on_c, 12, 78, 84
14, 376491, Note_on_c, 12, 78, 0
14, 376500, Note_on_c, 12, 78, 84
14, 376551, Note_on_c, 12, 78, 0
14, 376560, Note_on_c, 12, 74, 84
14, 376611, Note_on_c, 12, 74, 0
14, 376620, Note_on_c, 12, 74, 84
14, 376671, Note_on_c, 12, 74, 0
14, 376680, Note_on_c, 12, 69, 84
14, 376731, Note_on_c, 12, 69, 0
14, 376740, Note_on_c, 12, 69, 84
14, 376791, Note_on_c, 12, 69, 0
14, 376800, Note_on_c, 12, 66, 84
14, 376851, Note_on_c, 12, 66, 0
14, 376860, Note_on_c, 12, 66, 84
14, 376911, Note_on_c, 12, 66, 0
14, 376920, Note_on_c, 12, 74, 84
14, 376971, Note_on_c, 12, 74, 0
14, 376980, Note_on_c, 12, 74, 84
14, 377031, Note_on_c, 12, 74, 0
14, 377040, Note_on_c, 12, 69, 84
14, 377091, Note_on_c, 12, 69, 0
14, 377100, Note_on_c, 12, 69, 84
14, 377151, Note_on_c, 12, 69, 0
14, 377160, Note_on_c, 12, 66, 84
14, 377211, Note_on_c, 12, 66, 0
14, 377220, Note_on_c, 12, 66, 84
14, 377271, Note_on_c, 12, 66, 0
14, 377280, Note_on_c, 12, 62, 84
14, 377331, Note_on_c, 12, 62, 0
14, 377340, Note_on_c, 12, 62, 84
14, 377391, Note_on_c, 12, 62, 0
14, 377400, Note_on_c, 12, 74, 84
14, 377451, Note_on_c, 12, 74, 0
14, 377460, Note_on_c, 12, 74, 84
14, 377511, Note_on_c, 12, 74, 0
14, 377520, Note_on_c, 12, 69, 84
14, 377571, Note_on_c, 12, 69, 0
14, 377580, Note_on_c, 12, 69, 84
14, 377631, Note_on_c, 12, 69, 0
14, 377640, Note_on_c, 12, 66, 84
14, 377691, Note_on_c, 12, 66, 0
14, 377700, Note_on_c, 12, 66, 84
14, 377751, Note_on_c, 12, 66, 0
14, 377760, Note_on_c, 12, 62, 84
14, 377999, Note_on_c, 12, 62, 0
14, 378720, Note_on_c, 12, 62, 76
14, 378720, Note_on_c, 12, 69, 76
14, 378720, Note_on_c, 12, 78, 76
14, 378959, Note_on_c, 12, 62, 0
14, 378959, Note_on_c, 12, 69, 0
14, 378959, Note_on_c, 12, 78, 0
14, 381480, Note_on_c, 12, 62, 52
14, 381519, Note_on_c, 12, 62, 0
14, 381520, Note_on_c, 12, 64, 52
14, 381559, Note_on_c, 12, 64, 0
14, 381560, Note_on_c, 12, 66, 52
14, 381591, Note_on_c, 12, 66, 0
14, 381600, Note_on_c, 12, 67, 52
14, 381839, Note_on_c, 12, 67, 0
14, 383400, Note_on_c, 12, 59, 52
14, 383439, Note_on_c, 12, 59, 0
14, 383440, Note_on_c, 12, 61, 52
14, 383479, Note_on_c, 12, 61, 0
14, 383480, Note_on_c, 12, 63, 52
14, 383511, Note_on_c, 12, 63, 0
14, 383520, Note_on_c, 12, 64, 52
14, 383759, Note_on_c, 12, 64, 0
14, 385320, Note_on_c, 12, 57, 52
14, 385359, Note_on_c, 12, 57, 0
14, 385360, Note_on_c, 12, 59, 52
14, 385399, Note_on_c, 12, 59, 0
14, 385400, Note_on_c, 12, 61, 52
14, 385431, Note_on_c, 12, 61, 0
14, 385440, Note_on_c, 12, 62, 76
14, 385619, Note_on_c, 12, 62, 0
14, 385680, Note_on_c, 12, 62, 76
14, 385739, Note_on_c, 12, 62, 0
14, 385740, Note_on_c, 12, 61, 76
14, 385799, Note_on_c, 12, 61, 0
14, 385800, Note_on_c, 12, 62, 76
14, 385859, Note_on_c, 12, 62, 0
14, 385860, Note_on_c, 12, 64, 76
14, 385911, Note_on_c, 12, 64, 0
14, 385920, Note_on_c, 12, 66, 76
14, 386099, Note_on_c, 12, 66, 0
14, 386160, Note_on_c, 12, 78, 76
14, 386279, Note_on_c, 12, 78, 0
14, 386280, Note_on_c, 12, 76, 76
14, 386384, Note_on_c, 12, 76, 0
14, 386400, Note_on_c, 12, 74, 84
14, 386639, Note_on_c, 12, 74, 0
14, 386640, Note_on_c, 12, 72, 76
14, 386879, Note_on_c, 12, 72, 0
14, 386880, Note_on_c, 12, 71, 76
14, 387119, Note_on_c, 12, 71, 0
14, 387120, Note_on_c, 12, 69, 76
14, 387344, Note_on_c, 12, 69, 0
14, 387360, Note_on_c, 12, 67, 76
14, 387539, Note_on_c, 12, 67, 0
14, 387600, Note_on_c, 12, 64, 76
14, 387659, Note_on_c, 12, 64, 0
14, 387660, Note_on_c, 12, 63, 76
14, 387719, Note_on_c, 12, 63, 0
14, 387720, Note_on_c, 12, 64, 76
14, 387779, Note_on_c, 12, 64, 0
14, 387780, Note_on_c, 12, 66, 76
14, 387831, Note_on_c, 12, 66, 0
14, 387840, Note_on_c, 12, 67, 76
14, 388019, Note_on_c, 12, 67, 0
14, 388080, Note_on_c, 12, 79, 76
14, 388199, Note_on_c, 12, 79, 0
14, 388200, Note_on_c, 12, 78, 76
14, 388304, Note_on_c, 12, 78, 0
14, 388320, Note_on_c, 12, 76, 84
14, 388559, Note_on_c, 12, 76, 0
14, 388560, Note_on_c, 12, 74, 76
14, 388799, Note_on_c, 12, 74, 0
14, 388800, Note_on_c, 12, 73, 76
14, 389039, Note_on_c, 12, 73, 0
14, 389040, Note_on_c, 12, 71, 76
14, 389264, Note_on_c, 12, 71, 0
14, 389280, Note_on_c, 12, 69, 76
14, 389459, Note_on_c, 12, 69, 0
14, 389520, Note_on_c, 12, 62, 76
14, 389579, Note_on_c, 12, 62, 0
14, 389580, Note_on_c, 12, 61, 76
14, 389639, Note_on_c, 12, 61, 0
14, 389640, Note_on_c, 12, 62, 76
14, 389699, Note_on_c, 12, 62, 0
14, 389700, Note_on_c, 12, 64, 76
14, 389751, Note_on_c, 12, 64, 0
14, 389760, Note_on_c, 12, 66, 84
14, 389939, Note_on_c, 12, 66, 0
14, 390000, Note_on_c, 12, 67, 76
14, 390059, Note_on_c, 12, 67, 0
14, 390060, Note_on_c, 12, 66, 76
14, 390119, Note_on_c, 12, 66, 0
14, 390120, Note_on_c, 12, 67, 76
14, 390179, Note_on_c, 12, 67, 0
14, 390180, Note_on_c, 12, 69, 76
14, 390231, Note_on_c, 12, 69, 0
14, 390240, Note_on_c, 12, 71, 84
14, 390419, Note_on_c, 12, 71, 0
14, 390480, Note_on_c, 12, 67, 76
14, 390539, Note_on_c, 12, 67, 0
14, 390540, Note_on_c, 12, 66, 76
14, 390599, Note_on_c, 12, 66, 0
14, 390600, Note_on_c, 12, 67, 76
14, 390659, Note_on_c, 12, 67, 0
14, 390660, Note_on_c, 12, 69, 76
14, 390711, Note_on_c, 12, 69, 0
14, 390720, Note_on_c, 12, 71, 84
14, 390899, Note_on_c, 12, 71, 0
14, 390960, Note_on_c, 12, 76, 76
14, 391019, Note_on_c, 12, 76, 0
14, 391020, Note_on_c, 12, 74, 76
14, 391079, Note_on_c, 12, 74, 0
14, 391080, Note_on_c, 12, 76, 76
14, 391139, Note_on_c, 12, 76, 0
14, 391140, Note_on_c, 12, 78, 76
14, 391191, Note_on_c, 12, 78, 0
14, 391200, Note_on_c, 12, 79, 76
14, 391260, Control_c, 12, 11, 80
14, 391904, Note_on_c, 12, 79, 0
14, 391920, Note_on_c, 12, 67, 76
14, 391979, Note_on_c, 12, 67, 0
14, 391980, Note_on_c, 12, 66, 76
14, 392039, Note_on_c, 12, 66, 0
14, 392040, Note_on_c, 12, 67, 76
14, 392099, Note_on_c, 12, 67, 0
14, 392100, Note_on_c, 12, 69, 76
14, 392151, Note_on_c, 12, 69, 0
14, 392160, Note_on_c, 12, 70, 76
14, 392339, Note_on_c, 12, 70, 0
14, 392400, Note_on_c, 12, 70, 76
14, 392579, Note_on_c, 12, 70, 0
14, 392640, Note_on_c, 12, 67, 76
14, 392819, Note_on_c, 12, 67, 0
14, 392880, Note_on_c, 12, 67, 76
14, 393059, Note_on_c, 12, 67, 0
14, 393105, Control_c, 12, 11, 127
14, 393120, Note_on_c, 12, 69, 84
14, 393824, Note_on_c, 12, 69, 0
14, 393840, Note_on_c, 12, 67, 84
14, 393899, Note_on_c, 12, 67, 0
14, 393900, Note_on_c, 12, 66, 84
14, 393959, Note_on_c, 12, 66, 0
14, 393960, Note_on_c, 12, 67, 84
14, 394019, Note_on_c, 12, 67, 0
14, 394020, Note_on_c, 12, 69, 84
14, 394071, Note_on_c, 12, 69, 0
14, 394080, Note_on_c, 12, 70, 52
14, 394259, Note_on_c, 12, 70, 0
14, 394320, Note_on_c, 12, 70, 52
14, 394499, Note_on_c, 12, 70, 0
14, 394560, Note_on_c, 12, 67, 52
14, 394739, Note_on_c, 12, 67, 0
14, 394800, Note_on_c, 12, 67, 52
14, 394979, Note_on_c, 12, 67, 0
14, 395040, Note_on_c, 12, 71, 84
14, 395984, Note_on_c, 12, 71, 0
14, 396000, Note_on_c, 12, 64, 84
14, 396051, Note_on_c, 12, 64, 0
14, 396060, Note_on_c, 12, 64, 84
14, 396111, Note_on_c, 12, 64, 0
14, 396120, Note_on_c, 12, 64, 84
14, 396171, Note_on_c, 12, 64, 0
14, 396180, Note_on_c, 12, 64, 84
14, 396231, Note_on_c, 12, 64, 0
14, 396240, Note_on_c, 12, 69, 84
14, 396291, Note_on_c, 12, 69, 0
14, 396300, Note_on_c, 12, 69, 84
14, 396351, Note_on_c, 12, 69, 0
14, 396360, Note_on_c, 12, 69, 84
14, 396411, Note_on_c, 12, 69, 0
14, 396420, Note_on_c, 12, 69, 84
14, 396471, Note_on_c, 12, 69, 0
14, 396480, Note_on_c, 12, 69, 84
14, 396531, Note_on_c, 12, 69, 0
14, 396540, Note_on_c, 12, 69, 84
14, 396591, Note_on_c, 12, 69, 0
14, 396600, Note_on_c, 12, 69, 84
14, 396651, Note_on_c, 12, 69, 0
14, 396660, Note_on_c, 12, 69, 84
14, 396711, Note_on_c, 12, 69, 0
14, 396720, Note_on_c, 12, 67, 84
14, 396771, Note_on_c, 12, 67, 0
14, 396780, Note_on_c, 12, 67, 84
14, 396831, Note_on_c, 12, 67, 0
14, 396840, Note_on_c, 12, 67, 84
14, 396891, Note_on_c, 12, 67, 0
14, 396900, Note_on_c, 12, 67, 84
14, 396951, Note_on_c, 12, 67, 0
14, 396960, Note_on_c, 12, 66, 84
14, 397199, Note_on_c, 12, 66, 0
14, 398880, Note_on_c, 12, 78, 84
14, 398880, Note_on_c, 12, 69, 84
14, 398931, Note_on_c, 12, 78, 0
14, 398931, Note_on_c, 12, 69, 0
14, 398940, Note_on_c, 12, 69, 84
14, 398940, Note_on_c, 12, 78, 84
14, 398991, Note_on_c, 12, 69, 0
14, 398991, Note_on_c, 12, 78, 0
14, 399000, Note_on_c, 12, 69, 84
14, 399000, Note_on_c, 12, 78, 84
14, 399051, Note_on_c, 12, 69, 0
14, 399051, Note_on_c, 12, 78, 0
14, 399060, Note_on_c, 12, 69, 84
14, 399060, Note_on_c, 12, 78, 84
14, 399111, Note_on_c, 12, 69, 0
14, 399111, Note_on_c, 12, 78, 0
14, 399120, Note_on_c, 12, 78, 84
14, 399120, Note_on_c, 12, 69, 84
14, 399171, Note_on_c, 12, 78, 0
14, 399171, Note_on_c, 12, 69, 0
14, 399180, Note_on_c, 12, 69, 84
14, 399180, Note_on_c, 12, 78, 84
14, 399231, Note_on_c, 12, 69, 0
14, 399231, Note_on_c, 12, 78, 0
14, 399240, Note_on_c, 12, 69, 84
14, 399240, Note_on_c, 12, 78, 84
14, 399291, Note_on_c, 12, 69, 0
14, 399291, Note_on_c, 12, 78, 0
14, 399300, Note_on_c, 12, 78, 84
14, 399300, Note_on_c, 12, 69, 84
14, 399351, Note_on_c, 12, 78, 0
14, 399351, Note_on_c, 12, 69, 0
14, 399360, Note_on_c, 12, 69, 84
14, 399360, Note_on_c, 12, 78, 84
14, 399411, Note_on_c, 12, 69, 0
14, 399411, Note_on_c, 12, 78, 0
14, 399420, Note_on_c, 12, 78, 84
14, 399420, Note_on_c, 12, 69, 84
14, 399471, Note_on_c, 12, 78, 0
14, 399471, Note_on_c, 12, 69, 0
14, 399480, Note_on_c, 12, 78, 84
14, 399480, Note_on_c, 12, 69, 84
14, 399531, Note_on_c, 12, 78, 0
14, 399531, Note_on_c, 12, 69, 0
14, 399540, Note_on_c, 12, 69, 84
14, 399540, Note_on_c, 12, 78, 84
14, 399591, Note_on_c, 12, 69, 0
14, 399591, Note_on_c, 12, 78, 0
14, 399600, Note_on_c, 12, 69, 84
14, 399600, Note_on_c, 12, 78, 84
14, 399651, Note_on_c, 12, 69, 0
14, 399651, Note_on_c, 12, 78, 0
14, 399660, Note_on_c, 12, 69, 84
14, 399660, Note_on_c, 12, 78, 84
14, 399711, Note_on_c, 12, 69, 0
14, 399711, Note_on_c, 12, 78, 0
14, 399720, Note_on_c, 12, 69, 84
14, 399720, Note_on_c, 12, 78, 84
14, 399771, Note_on_c, 12, 69, 0
14, 399771, Note_on_c, 12, 78, 0
14, 399780, Note_on_c, 12, 78, 84
14, 399780, Note_on_c, 12, 69, 84
14, 399831, Note_on_c, 12, 78, 0
14, 399831, Note_on_c, 12, 69, 0
14, 400800, Note_on_c, 12, 78, 84
14, 400851, Note_on_c, 12, 78, 0
14, 400860, Note_on_c, 12, 78, 84
14, 400911, Note_on_c, 12, 78, 0
14, 400920, Note_on_c, 12, 78, 84
14, 400971, Note_on_c, 12, 78, 0
14, 400980, Note_on_c, 12, 78, 84
14, 401031, Note_on_c, 12, 78, 0
14, 401040, Note_on_c, 12, 78, 84
14, 401091, Note_on_c, 12, 78, 0
14, 401100, Note_on_c, 12, 78, 84
14, 401151, Note_on_c, 12, 78, 0
14, 401160, Note_on_c, 12, 78, 84
14, 401211, Note_on_c, 12, 78, 0
14, 401220, Note_on_c, 12, 78, 84
14, 401271, Note_on_c, 12, 78, 0
14, 401280, Note_on_c, 12, 78, 84
14, 401331, Note_on_c, 12, 78, 0
14, 401340, Note_on_c, 12, 78, 84
14, 401391, Note_on_c, 12, 78, 0
14, 401400, Note_on_c, 12, 78, 84
14, 401451, Note_on_c, 12, 78, 0
14, 401460, Note_on_c, 12, 78, 84
14, 401511, Note_on_c, 12, 78, 0
14, 401520, Note_on_c, 12, 78, 84
14, 401571, Note_on_c, 12, 78, 0
14, 401580, Note_on_c, 12, 78, 84
14, 401631, Note_on_c, 12, 78, 0
14, 401640, Note_on_c, 12, 78, 84
14, 401691, Note_on_c, 12, 78, 0
14, 401700, Note_on_c, 12, 78, 84
14, 401751, Note_on_c, 12, 78, 0
14, 401760, Note_on_c, 12, 78, 84
14, 401811, Note_on_c, 12, 78, 0
14, 401820, Note_on_c, 12, 78, 84
14, 401871, Note_on_c, 12, 78, 0
14, 401880, Note_on_c, 12, 78, 84
14, 401931, Note_on_c, 12, 78, 0
14, 401940, Note_on_c, 12, 78, 84
14, 401991, Note_on_c, 12, 78, 0
14, 402000, Note_on_c, 12, 78, 84
14, 402051, Note_on_c, 12, 78, 0
14, 402060, Note_on_c, 12, 78, 84
14, 402111, Note_on_c, 12, 78, 0
14, 402120, Note_on_c, 12, 78, 84
14, 402171, Note_on_c, 12, 78, 0
14, 402180, Note_on_c, 12, 78, 84
14, 402231, Note_on_c, 12, 78, 0
14, 402240, Note_on_c, 12, 78, 84
14, 402291, Note_on_c, 12, 78, 0
14, 402300, Note_on_c, 12, 78, 84
14, 402351, Note_on_c, 12, 78, 0
14, 402360, Note_on_c, 12, 78, 84
14, 402411, Note_on_c, 12, 78, 0
14, 402420, Note_on_c, 12, 78, 84
14, 402471, Note_on_c, 12, 78, 0
14, 402480, Note_on_c, 12, 78, 84
14, 402531, Note_on_c, 12, 78, 0
14, 402540, Note_on_c, 12, 78, 84
14, 402591, Note_on_c, 12, 78, 0
14, 402600, Note_on_c, 12, 78, 84
14, 402651, Note_on_c, 12, 78, 0
14, 402660, Note_on_c, 12, 78, 84
14, 402711, Note_on_c, 12, 78, 0
14, 402720, Note_on_c, 12, 76, 84
14, 402771, Note_on_c, 12, 76, 0
14, 402780, Note_on_c, 12, 76, 84
14, 402831, Note_on_c, 12, 76, 0
14, 402840, Note_on_c, 12, 76, 84
14, 402891, Note_on_c, 12, 76, 0
14, 402900, Note_on_c, 12, 76, 84
14, 402951, Note_on_c, 12, 76, 0
14, 402960, Note_on_c, 12, 76, 84
14, 403011, Note_on_c, 12, 76, 0
14, 403020, Note_on_c, 12, 76, 84
14, 403071, Note_on_c, 12, 76, 0
14, 403080, Note_on_c, 12, 76, 84
14, 403131, Note_on_c, 12, 76, 0
14, 403140, Note_on_c, 12, 76, 84
14, 403191, Note_on_c, 12, 76, 0
14, 403200, Note_on_c, 12, 75, 84
14, 403251, Note_on_c, 12, 75, 0
14, 403260, Note_on_c, 12, 75, 84
14, 403311, Note_on_c, 12, 75, 0
14, 403320, Note_on_c, 12, 75, 84
14, 403371, Note_on_c, 12, 75, 0
14, 403380, Note_on_c, 12, 75, 84
14, 403431, Note_on_c, 12, 75, 0
14, 403440, Note_on_c, 12, 75, 84
14, 403491, Note_on_c, 12, 75, 0
14, 403500, Note_on_c, 12, 75, 84
14, 403551, Note_on_c, 12, 75, 0
14, 403560, Note_on_c, 12, 75, 84
14, 403611, Note_on_c, 12, 75, 0
14, 403620, Note_on_c, 12, 75, 84
14, 403671, Note_on_c, 12, 75, 0
14, 403680, Note_on_c, 12, 75, 84
14, 403731, Note_on_c, 12, 75, 0
14, 403740, Note_on_c, 12, 75, 84
14, 403791, Note_on_c, 12, 75, 0
14, 403800, Note_on_c, 12, 75, 84
14, 403851, Note_on_c, 12, 75, 0
14, 403860, Note_on_c, 12, 75, 84
14, 403911, Note_on_c, 12, 75, 0
14, 403920, Note_on_c, 12, 75, 84
14, 403971, Note_on_c, 12, 75, 0
14, 403980, Note_on_c, 12, 75, 84
14, 404031, Note_on_c, 12, 75, 0
14, 404040, Note_on_c, 12, 75, 84
14, 404091, Note_on_c, 12, 75, 0
14, 404100, Note_on_c, 12, 75, 84
14, 404151, Note_on_c, 12, 75, 0
14, 404160, Note_on_c, 12, 75, 84
14, 404211, Note_on_c, 12, 75, 0
14, 404220, Note_on_c, 12, 75, 84
14, 404271, Note_on_c, 12, 75, 0
14, 404280, Note_on_c, 12, 75, 84
14, 404331, Note_on_c, 12, 75, 0
14, 404340, Note_on_c, 12, 75, 84
14, 404391, Note_on_c, 12, 75, 0
14, 404400, Note_on_c, 12, 75, 84
14, 404451, Note_on_c, 12, 75, 0
14, 404460, Note_on_c, 12, 75, 84
14, 404511, Note_on_c, 12, 75, 0
14, 404520, Note_on_c, 12, 75, 84
14, 404571, Note_on_c, 12, 75, 0
14, 404580, Note_on_c, 12, 75, 84
14, 404631, Note_on_c, 12, 75, 0
14, 404640, Note_on_c, 12, 72, 84
14, 404691, Note_on_c, 12, 72, 0
14, 404700, Note_on_c, 12, 72, 84
14, 404751, Note_on_c, 12, 72, 0
14, 404760, Note_on_c, 12, 72, 84
14, 404811, Note_on_c, 12, 72, 0
14, 404820, Note_on_c, 12, 72, 84
14, 404871, Note_on_c, 12, 72, 0
14, 404880, Note_on_c, 12, 72, 84
14, 404931, Note_on_c, 12, 72, 0
14, 404940, Note_on_c, 12, 72, 84
14, 404991, Note_on_c, 12, 72, 0
14, 405000, Note_on_c, 12, 72, 84
14, 405051, Note_on_c, 12, 72, 0
14, 405060, Note_on_c, 12, 72, 84
14, 405111, Note_on_c, 12, 72, 0
14, 405120, Note_on_c, 12, 72, 84
14, 405171, Note_on_c, 12, 72, 0
14, 405180, Note_on_c, 12, 72, 84
14, 405231, Note_on_c, 12, 72, 0
14, 405240, Note_on_c, 12, 72, 84
14, 405291, Note_on_c, 12, 72, 0
14, 405300, Note_on_c, 12, 72, 84
14, 405351, Note_on_c, 12, 72, 0
14, 405360, Note_on_c, 12, 72, 84
14, 405411, Note_on_c, 12, 72, 0
14, 405420, Note_on_c, 12, 72, 84
14, 405471, Note_on_c, 12, 72, 0
14, 405480, Note_on_c, 12, 72, 84
14, 405531, Note_on_c, 12, 72, 0
14, 405540, Note_on_c, 12, 72, 84
14, 405591, Note_on_c, 12, 72, 0
14, 405600, Note_on_c, 12, 72, 84
14, 405651, Note_on_c, 12, 72, 0
14, 405660, Note_on_c, 12, 72, 84
14, 405711, Note_on_c, 12, 72, 0
14, 405720, Note_on_c, 12, 72, 84
14, 405771, Note_on_c, 12, 72, 0
14, 405780, Note_on_c, 12, 72, 84
14, 405831, Note_on_c, 12, 72, 0
14, 405840, Note_on_c, 12, 72, 84
14, 405891, Note_on_c, 12, 72, 0
14, 405900, Note_on_c, 12, 72, 84
14, 405951, Note_on_c, 12, 72, 0
14, 405960, Note_on_c, 12, 72, 84
14, 406011, Note_on_c, 12, 72, 0
14, 406020, Note_on_c, 12, 72, 84
14, 406071, Note_on_c, 12, 72, 0
14, 406080, Note_on_c, 12, 72, 84
14, 406131, Note_on_c, 12, 72, 0
14, 406140, Note_on_c, 12, 72, 84
14, 406191, Note_on_c, 12, 72, 0
14, 406200, Note_on_c, 12, 72, 84
14, 406251, Note_on_c, 12, 72, 0
14, 406260, Note_on_c, 12, 72, 84
14, 406311, Note_on_c, 12, 72, 0
14, 406320, Note_on_c, 12, 72, 84
14, 406371, Note_on_c, 12, 72, 0
14, 406380, Note_on_c, 12, 72, 84
14, 406431, Note_on_c, 12, 72, 0
14, 406440, Note_on_c, 12, 72, 84
14, 406491, Note_on_c, 12, 72, 0
14, 406500, Note_on_c, 12, 72, 84
14, 406551, Note_on_c, 12, 72, 0
14, 406560, Note_on_c, 12, 75, 84
14, 406611, Note_on_c, 12, 75, 0
14, 406620, Note_on_c, 12, 75, 84
14, 406671, Note_on_c, 12, 75, 0
14, 406680, Note_on_c, 12, 75, 84
14, 406731, Note_on_c, 12, 75, 0
14, 406740, Note_on_c, 12, 75, 84
14, 406791, Note_on_c, 12, 75, 0
14, 406800, Note_on_c, 12, 75, 84
14, 406851, Note_on_c, 12, 75, 0
14, 406860, Note_on_c, 12, 75, 84
14, 406911, Note_on_c, 12, 75, 0
14, 406920, Note_on_c, 12, 75, 84
14, 406971, Note_on_c, 12, 75, 0
14, 406980, Note_on_c, 12, 75, 84
14, 407031, Note_on_c, 12, 75, 0
14, 407040, Note_on_c, 12, 75, 84
14, 407091, Note_on_c, 12, 75, 0
14, 407100, Note_on_c, 12, 75, 84
14, 407151, Note_on_c, 12, 75, 0
14, 407160, Note_on_c, 12, 75, 84
14, 407211, Note_on_c, 12, 75, 0
14, 407220, Note_on_c, 12, 75, 84
14, 407271, Note_on_c, 12, 75, 0
14, 407280, Note_on_c, 12, 75, 84
14, 407331, Note_on_c, 12, 75, 0
14, 407340, Note_on_c, 12, 75, 84
14, 407391, Note_on_c, 12, 75, 0
14, 407400, Note_on_c, 12, 75, 84
14, 407451, Note_on_c, 12, 75, 0
14, 407460, Note_on_c, 12, 75, 84
14, 407511, Note_on_c, 12, 75, 0
14, 407520, Note_on_c, 12, 75, 84
14, 407571, Note_on_c, 12, 75, 0
14, 407580, Note_on_c, 12, 75, 84
14, 407631, Note_on_c, 12, 75, 0
14, 407640, Note_on_c, 12, 75, 84
14, 407691, Note_on_c, 12, 75, 0
14, 407700, Note_on_c, 12, 75, 84
14, 407751, Note_on_c, 12, 75, 0
14, 407760, Note_on_c, 12, 75, 84
14, 407811, Note_on_c, 12, 75, 0
14, 407820, Note_on_c, 12, 75, 84
14, 407871, Note_on_c, 12, 75, 0
14, 407880, Note_on_c, 12, 75, 84
14, 407931, Note_on_c, 12, 75, 0
14, 407940, Note_on_c, 12, 75, 84
14, 407991, Note_on_c, 12, 75, 0
14, 408000, Note_on_c, 12, 75, 84
14, 408051, Note_on_c, 12, 75, 0
14, 408060, Note_on_c, 12, 75, 84
14, 408111, Note_on_c, 12, 75, 0
14, 408120, Note_on_c, 12, 75, 84
14, 408171, Note_on_c, 12, 75, 0
14, 408180, Note_on_c, 12, 75, 84
14, 408231, Note_on_c, 12, 75, 0
14, 408240, Note_on_c, 12, 75, 84
14, 408291, Note_on_c, 12, 75, 0
14, 408300, Note_on_c, 12, 75, 84
14, 408351, Note_on_c, 12, 75, 0
14, 408360, Note_on_c, 12, 75, 84
14, 408411, Note_on_c, 12, 75, 0
14, 408420, Note_on_c, 12, 75, 84
14, 408471, Note_on_c, 12, 75, 0
14, 408480, Note_on_c, 12, 73, 84
14, 408531, Note_on_c, 12, 73, 0
14, 408540, Note_on_c, 12, 73, 84
14, 408591, Note_on_c, 12, 73, 0
14, 408600, Note_on_c, 12, 73, 84
14, 408651, Note_on_c, 12, 73, 0
14, 408660, Note_on_c, 12, 73, 84
14, 408711, Note_on_c, 12, 73, 0
14, 408720, Note_on_c, 12, 73, 84
14, 408771, Note_on_c, 12, 73, 0
14, 408780, Note_on_c, 12, 73, 84
14, 408831, Note_on_c, 12, 73, 0
14, 408840, Note_on_c, 12, 73, 84
14, 408891, Note_on_c, 12, 73, 0
14, 408900, Note_on_c, 12, 73, 84
14, 408951, Note_on_c, 12, 73, 0
14, 408960, Note_on_c, 12, 72, 84
14, 409011, Note_on_c, 12, 72, 0
14, 409020, Note_on_c, 12, 72, 84
14, 409071, Note_on_c, 12, 72, 0
14, 409080, Note_on_c, 12, 72, 84
14, 409131, Note_on_c, 12, 72, 0
14, 409140, Note_on_c, 12, 72, 84
14, 409191, Note_on_c, 12, 72, 0
14, 409200, Note_on_c, 12, 72, 84
14, 409251, Note_on_c, 12, 72, 0
14, 409260, Note_on_c, 12, 72, 84
14, 409311, Note_on_c, 12, 72, 0
14, 409320, Note_on_c, 12, 72, 84
14, 409371, Note_on_c, 12, 72, 0
14, 409380, Note_on_c, 12, 72, 84
14, 409431, Note_on_c, 12, 72, 0
14, 409440, Note_on_c, 12, 71, 84
14, 409491, Note_on_c, 12, 71, 0
14, 409500, Note_on_c, 12, 81, 84
14, 409551, Note_on_c, 12, 81, 0
14, 409560, Note_on_c, 12, 81, 84
14, 409611, Note_on_c, 12, 81, 0
14, 409620, Note_on_c, 12, 81, 84
14, 409671, Note_on_c, 12, 81, 0
14, 409680, Note_on_c, 12, 81, 84
14, 409731, Note_on_c, 12, 81, 0
14, 409740, Note_on_c, 12, 81, 84
14, 409791, Note_on_c, 12, 81, 0
14, 409800, Note_on_c, 12, 81, 84
14, 409851, Note_on_c, 12, 81, 0
14, 409860, Note_on_c, 12, 81, 84
14, 409911, Note_on_c, 12, 81, 0
14, 409920, Note_on_c, 12, 81, 84
14, 409971, Note_on_c, 12, 81, 0
14, 409980, Note_on_c, 12, 81, 84
14, 410031, Note_on_c, 12, 81, 0
14, 410040, Note_on_c, 12, 81, 84
14, 410091, Note_on_c, 12, 81, 0
14, 410100, Note_on_c, 12, 81, 84
14, 410151, Note_on_c, 12, 81, 0
14, 410160, Note_on_c, 12, 81, 84
14, 410211, Note_on_c, 12, 81, 0
14, 410220, Note_on_c, 12, 81, 84
14, 410271, Note_on_c, 12, 81, 0
14, 410280, Note_on_c, 12, 81, 84
14, 410331, Note_on_c, 12, 81, 0
14, 410340, Note_on_c, 12, 81, 84
14, 410391, Note_on_c, 12, 81, 0
14, 410400, Note_on_c, 12, 79, 84
14, 410451, Note_on_c, 12, 79, 0
14, 410460, Note_on_c, 12, 79, 84
14, 410511, Note_on_c, 12, 79, 0
14, 410520, Note_on_c, 12, 79, 84
14, 410571, Note_on_c, 12, 79, 0
14, 410580, Note_on_c, 12, 79, 84
14, 410631, Note_on_c, 12, 79, 0
14, 410640, Note_on_c, 12, 79, 84
14, 410691, Note_on_c, 12, 79, 0
14, 410700, Note_on_c, 12, 79, 84
14, 410751, Note_on_c, 12, 79, 0
14, 410760, Note_on_c, 12, 79, 84
14, 410811, Note_on_c, 12, 79, 0
14, 410820, Note_on_c, 12, 79, 84
14, 410871, Note_on_c, 12, 79, 0
14, 410880, Note_on_c, 12, 79, 84
14, 410931, Note_on_c, 12, 79, 0
14, 410940, Note_on_c, 12, 79, 84
14, 410991, Note_on_c, 12, 79, 0
14, 411000, Note_on_c, 12, 79, 84
14, 411051, Note_on_c, 12, 79, 0
14, 411060, Note_on_c, 12, 79, 84
14, 411111, Note_on_c, 12, 79, 0
14, 411120, Note_on_c, 12, 79, 84
14, 411171, Note_on_c, 12, 79, 0
14, 411180, Note_on_c, 12, 79, 84
14, 411231, Note_on_c, 12, 79, 0
14, 411240, Note_on_c, 12, 79, 84
14, 411291, Note_on_c, 12, 79, 0
14, 411300, Note_on_c, 12, 79, 84
14, 411351, Note_on_c, 12, 79, 0
14, 411360, Note_on_c, 12, 78, 84
14, 411411, Note_on_c, 12, 78, 0
14, 411420, Note_on_c, 12, 78, 84
14, 411471, Note_on_c, 12, 78, 0
14, 411480, Note_on_c, 12, 78, 84
14, 411531, Note_on_c, 12, 78, 0
14, 411540, Note_on_c, 12, 78, 84
14, 411591, Note_on_c, 12, 78, 0
14, 411600, Note_on_c, 12, 78, 84
14, 411651, Note_on_c, 12, 78, 0
14, 411660, Note_on_c, 12, 78, 84
14, 411711, Note_on_c, 12, 78, 0
14, 411720, Note_on_c, 12, 78, 84
14, 411771, Note_on_c, 12, 78, 0
14, 411780, Note_on_c, 12, 78, 84
14, 411831, Note_on_c, 12, 78, 0
14, 411840, Note_on_c, 12, 78, 84
14, 411891, Note_on_c, 12, 78, 0
14, 411900, Note_on_c, 12, 78, 84
14, 411951, Note_on_c, 12, 78, 0
14, 411960, Note_on_c, 12, 78, 84
14, 412011, Note_on_c, 12, 78, 0
14, 412020, Note_on_c, 12, 78, 84
14, 412071, Note_on_c, 12, 78, 0
14, 412080, Note_on_c, 12, 78, 84
14, 412131, Note_on_c, 12, 78, 0
14, 412140, Note_on_c, 12, 78, 84
14, 412191, Note_on_c, 12, 78, 0
14, 412200, Note_on_c, 12, 78, 84
14, 412251, Note_on_c, 12, 78, 0
14, 412260, Note_on_c, 12, 78, 84
14, 412311, Note_on_c, 12, 78, 0
14, 412320, Note_on_c, 12, 76, 92
14, 412371, Note_on_c, 12, 76, 0
14, 412380, Note_on_c, 12, 76, 84
14, 412431, Note_on_c, 12, 76, 0
14, 412440, Note_on_c, 12, 76, 84
14, 412491, Note_on_c, 12, 76, 0
14, 412500, Note_on_c, 12, 76, 84
14, 412551, Note_on_c, 12, 76, 0
14, 412560, Note_on_c, 12, 76, 84
14, 412611, Note_on_c, 12, 76, 0
14, 412620, Note_on_c, 12, 76, 84
14, 412671, Note_on_c, 12, 76, 0
14, 412680, Note_on_c, 12, 76, 84
14, 412731, Note_on_c, 12, 76, 0
14, 412740, Note_on_c, 12, 76, 84
14, 412791, Note_on_c, 12, 76, 0
14, 412800, Note_on_c, 12, 76, 84
14, 412851, Note_on_c, 12, 76, 0
14, 412860, Note_on_c, 12, 76, 84
14, 412911, Note_on_c, 12, 76, 0
14, 412920, Note_on_c, 12, 76, 84
14, 412971, Note_on_c, 12, 76, 0
14, 412980, Note_on_c, 12, 76, 84
14, 413031, Note_on_c, 12, 76, 0
14, 413040, Note_on_c, 12, 76, 84
14, 413091, Note_on_c, 12, 76, 0
14, 413100, Note_on_c, 12, 76, 84
14, 413151, Note_on_c, 12, 76, 0
14, 413160, Note_on_c, 12, 76, 84
14, 413211, Note_on_c, 12, 76, 0
14, 413220, Note_on_c, 12, 76, 84
14, 413271, Note_on_c, 12, 76, 0
14, 413280, Note_on_c, 12, 76, 92
14, 413331, Note_on_c, 12, 76, 0
14, 413340, Note_on_c, 12, 76, 84
14, 413391, Note_on_c, 12, 76, 0
14, 413400, Note_on_c, 12, 76, 84
14, 413451, Note_on_c, 12, 76, 0
14, 413460, Note_on_c, 12, 76, 84
14, 413511, Note_on_c, 12, 76, 0
14, 413520, Note_on_c, 12, 76, 84
14, 413571, Note_on_c, 12, 76, 0
14, 413580, Note_on_c, 12, 76, 84
14, 413631, Note_on_c, 12, 76, 0
14, 413640, Note_on_c, 12, 76, 84
14, 413691, Note_on_c, 12, 76, 0
14, 413700, Note_on_c, 12, 76, 84
14, 413751, Note_on_c, 12, 76, 0
14, 413760, Note_on_c, 12, 76, 84
14, 413811, Note_on_c, 12, 76, 0
14, 413820, Note_on_c, 12, 76, 84
14, 413871, Note_on_c, 12, 76, 0
14, 413880, Note_on_c, 12, 76, 84
14, 413931, Note_on_c, 12, 76, 0
14, 413940, Note_on_c, 12, 76, 84
14, 413991, Note_on_c, 12, 76, 0
14, 414000, Note_on_c, 12, 76, 84
14, 414051, Note_on_c, 12, 76, 0
14, 414060, Note_on_c, 12, 76, 84
14, 414111, Note_on_c, 12, 76, 0
14, 414120, Note_on_c, 12, 76, 84
14, 414171, Note_on_c, 12, 76, 0
14, 414180, Note_on_c, 12, 76, 84
14, 414231, Note_on_c, 12, 76, 0
14, 414240, Note_on_c, 12, 62, 92
14, 414944, Note_on_c, 12, 62, 0
14, 414960, Note_on_c, 12, 74, 92
14, 415139, Note_on_c, 12, 74, 0
14, 415200, Note_on_c, 12, 62, 84
14, 415379, Note_on_c, 12, 62, 0
14, 415440, Note_on_c, 12, 78, 92
14, 415619, Note_on_c, 12, 78, 0
14, 415680, Note_on_c, 12, 62, 84
14, 415859, Note_on_c, 12, 62, 0
14, 415920, Note_on_c, 12, 81, 92
14, 416099, Note_on_c, 12, 81, 0
14, 416160, Note_on_c, 12, 62, 84
14, 416339, Note_on_c, 12, 62, 0
14, 416400, Note_on_c, 12, 74, 92
14, 416579, Note_on_c, 12, 74, 0
14, 416640, Note_on_c, 12, 74, 84
14, 416640, Note_on_c, 12, 78, 84
14, 416691, Note_on_c, 12, 74, 0
14, 416691, Note_on_c, 12, 78, 0
14, 416700, Note_on_c, 12, 78, 84
14, 416700, Note_on_c, 12, 74, 84
14, 416751, Note_on_c, 12, 78, 0
14, 416751, Note_on_c, 12, 74, 0
14, 416760, Note_on_c, 12, 74, 84
14, 416760, Note_on_c, 12, 78, 84
14, 416811, Note_on_c, 12, 74, 0
14, 416811, Note_on_c, 12, 78, 0
14, 416820, Note_on_c, 12, 74, 84
14, 416820, Note_on_c, 12, 78, 84
14, 416871, Note_on_c, 12, 74, 0
14, 416871, Note_on_c, 12, 78, 0
14, 416880, Note_on_c, 12, 78, 84
14, 416880, Note_on_c, 12, 74, 84
14, 416931, Note_on_c, 12, 78, 0
14, 416931, Note_on_c, 12, 74, 0
14, 416940, Note_on_c, 12, 74, 84
14, 416940, Note_on_c, 12, 78, 84
14, 416991, Note_on_c, 12, 74, 0
14, 416991, Note_on_c, 12, 78, 0
14, 417000, Note_on_c, 12, 74, 84
14, 417000, Note_on_c, 12, 78, 84
14, 417051, Note_on_c, 12, 74, 0
14, 417051, Note_on_c, 12, 78, 0
14, 417060, Note_on_c, 12, 78, 84
14, 417060, Note_on_c, 12, 74, 84
14, 417111, Note_on_c, 12, 78, 0
14, 417111, Note_on_c, 12, 74, 0
14, 417120, Note_on_c, 12, 76, 84
14, 417120, Note_on_c, 12, 74, 84
14, 417171, Note_on_c, 12, 76, 0
14, 417171, Note_on_c, 12, 74, 0
14, 417180, Note_on_c, 12, 74, 84
14, 417180, Note_on_c, 12, 76, 84
14, 417231, Note_on_c, 12, 74, 0
14, 417231, Note_on_c, 12, 76, 0
14, 417240, Note_on_c, 12, 76, 84
14, 417240, Note_on_c, 12, 74, 84
14, 417291, Note_on_c, 12, 76, 0
14, 417291, Note_on_c, 12, 74, 0
14, 417300, Note_on_c, 12, 74, 84
14, 417300, Note_on_c, 12, 76, 84
14, 417351, Note_on_c, 12, 74, 0
14, 417351, Note_on_c, 12, 76, 0
14, 417360, Note_on_c, 12, 74, 84
14, 417360, Note_on_c, 12, 76, 84
14, 417411, Note_on_c, 12, 74, 0
14, 417411, Note_on_c, 12, 76, 0
14, 417420, Note_on_c, 12, 76, 84
14, 417420, Note_on_c, 12, 74, 84
14, 417471, Note_on_c, 12, 76, 0
14, 417471, Note_on_c, 12, 74, 0
14, 417480, Note_on_c, 12, 76, 84
14, 417480, Note_on_c, 12, 74, 84
14, 417531, Note_on_c, 12, 76, 0
14, 417531, Note_on_c, 12, 74, 0
14, 417540, Note_on_c, 12, 74, 84
14, 417540, Note_on_c, 12, 76, 84
14, 417591, Note_on_c, 12, 74, 0
14, 417591, Note_on_c, 12, 76, 0
14, 417600, Note_on_c, 12, 76, 84
14, 417600, Note_on_c, 12, 73, 84
14, 417651, Note_on_c, 12, 76, 0
14, 417651, Note_on_c, 12, 73, 0
14, 417660, Note_on_c, 12, 73, 84
14, 417660, Note_on_c, 12, 76, 84
14, 417711, Note_on_c, 12, 73, 0
14, 417711, Note_on_c, 12, 76, 0
14, 417720, Note_on_c, 12, 76, 84
14, 417720, Note_on_c, 12, 73, 84
14, 417771, Note_on_c, 12, 76, 0
14, 417771, Note_on_c, 12, 73, 0
14, 417780, Note_on_c, 12, 76, 84
14, 417780, Note_on_c, 12, 73, 84
14, 417831, Note_on_c, 12, 76, 0
14, 417831, Note_on_c, 12, 73, 0
14, 417840, Note_on_c, 12, 76, 84
14, 417840, Note_on_c, 12, 73, 84
14, 417891, Note_on_c, 12, 76, 0
14, 417891, Note_on_c, 12, 73, 0
14, 417900, Note_on_c, 12, 73, 84
14, 417900, Note_on_c, 12, 76, 84
14, 417951, Note_on_c, 12, 73, 0
14, 417951, Note_on_c, 12, 76, 0
14, 417960, Note_on_c, 12, 76, 84
14, 417960, Note_on_c, 12, 73, 84
14, 418011, Note_on_c, 12, 76, 0
14, 418011, Note_on_c, 12, 73, 0
14, 418020, Note_on_c, 12, 76, 84
14, 418020, Note_on_c, 12, 73, 84
14, 418071, Note_on_c, 12, 76, 0
14, 418071, Note_on_c, 12, 73, 0
14, 418080, Note_on_c, 12, 62, 92
14, 418784, Note_on_c, 12, 62, 0
14, 418800, Note_on_c, 12, 74, 92
14, 418934, Note_on_c, 12, 74, 0
14, 418980, Note_on_c, 12, 74, 84
14, 419024, Note_on_c, 12, 74, 0
14, 419040, Note_on_c, 12, 62, 84
14, 419219, Note_on_c, 12, 62, 0
14, 419280, Note_on_c, 12, 78, 92
14, 419414, Note_on_c, 12, 78, 0
14, 419460, Note_on_c, 12, 78, 84
14, 419504, Note_on_c, 12, 78, 0
14, 419520, Note_on_c, 12, 62, 84
14, 419699, Note_on_c, 12, 62, 0
14, 419760, Note_on_c, 12, 81, 92
14, 419894, Note_on_c, 12, 81, 0
14, 419940, Note_on_c, 12, 81, 84
14, 419984, Note_on_c, 12, 81, 0
14, 420000, Note_on_c, 12, 62, 84
14, 420179, Note_on_c, 12, 62, 0
14, 420240, Note_on_c, 12, 74, 84
14, 420374, Note_on_c, 12, 74, 0
14, 420420, Note_on_c, 12, 74, 84
14, 420464, Note_on_c, 12, 74, 0
14, 420480, Note_on_c, 12, 78, 92
14, 420480, Note_on_c, 12, 74, 92
14, 420531, Note_on_c, 12, 78, 0
14, 420531, Note_on_c, 12, 74, 0
14, 420540, Note_on_c, 12, 78, 84
14, 420540, Note_on_c, 12, 74, 84
14, 420591, Note_on_c, 12, 78, 0
14, 420591, Note_on_c, 12, 74, 0
14, 420600, Note_on_c, 12, 74, 84
14, 420600, Note_on_c, 12, 78, 84
14, 420651, Note_on_c, 12, 74, 0
14, 420651, Note_on_c, 12, 78, 0
14, 420660, Note_on_c, 12, 78, 84
14, 420660, Note_on_c, 12, 74, 84
14, 420711, Note_on_c, 12, 78, 0
14, 420711, Note_on_c, 12, 74, 0
14, 420720, Note_on_c, 12, 78, 84
14, 420720, Note_on_c, 12, 74, 84
14, 420771, Note_on_c, 12, 78, 0
14, 420771, Note_on_c, 12, 74, 0
14, 420780, Note_on_c, 12, 74, 84
14, 420780, Note_on_c, 12, 78, 84
14, 420831, Note_on_c, 12, 74, 0
14, 420831, Note_on_c, 12, 78, 0
14, 420840, Note_on_c, 12, 74, 84
14, 420840, Note_on_c, 12, 78, 84
14, 420891, Note_on_c, 12, 74, 0
14, 420891, Note_on_c, 12, 78, 0
14, 420900, Note_on_c, 12, 74, 84
14, 420900, Note_on_c, 12, 78, 84
14, 420951, Note_on_c, 12, 74, 0
14, 420951, Note_on_c, 12, 78, 0
14, 420960, Note_on_c, 12, 74, 84
14, 420960, Note_on_c, 12, 76, 84
14, 421011, Note_on_c, 12, 74, 0
14, 421011, Note_on_c, 12, 76, 0
14, 421020, Note_on_c, 12, 76, 84
14, 421020, Note_on_c, 12, 74, 84
14, 421071, Note_on_c, 12, 76, 0
14, 421071, Note_on_c, 12, 74, 0
14, 421080, Note_on_c, 12, 76, 84
14, 421080, Note_on_c, 12, 74, 84
14, 421131, Note_on_c, 12, 76, 0
14, 421131, Note_on_c, 12, 74, 0
14, 421140, Note_on_c, 12, 76, 84
14, 421140, Note_on_c, 12, 74, 84
14, 421191, Note_on_c, 12, 76, 0
14, 421191, Note_on_c, 12, 74, 0
14, 421200, Note_on_c, 12, 76, 84
14, 421200, Note_on_c, 12, 74, 84
14, 421251, Note_on_c, 12, 76, 0
14, 421251, Note_on_c, 12, 74, 0
14, 421260, Note_on_c, 12, 76, 84
14, 421260, Note_on_c, 12, 74, 84
14, 421311, Note_on_c, 12, 76, 0
14, 421311, Note_on_c, 12, 74, 0
14, 421320, Note_on_c, 12, 76, 84
14, 421320, Note_on_c, 12, 74, 84
14, 421371, Note_on_c, 12, 76, 0
14, 421371, Note_on_c, 12, 74, 0
14, 421380, Note_on_c, 12, 76, 84
14, 421380, Note_on_c, 12, 74, 84
14, 421431, Note_on_c, 12, 76, 0
14, 421431, Note_on_c, 12, 74, 0
14, 421440, Note_on_c, 12, 76, 84
14, 421440, Note_on_c, 12, 73, 84
14, 421491, Note_on_c, 12, 76, 0
14, 421491, Note_on_c, 12, 73, 0
14, 421500, Note_on_c, 12, 76, 84
14, 421500, Note_on_c, 12, 73, 84
14, 421551, Note_on_c, 12, 76, 0
14, 421551, Note_on_c, 12, 73, 0
14, 421560, Note_on_c, 12, 76, 84
14, 421560, Note_on_c, 12, 73, 84
14, 421611, Note_on_c, 12, 76, 0
14, 421611, Note_on_c, 12, 73, 0
14, 421620, Note_on_c, 12, 73, 84
14, 421620, Note_on_c, 12, 76, 84
14, 421671, Note_on_c, 12, 73, 0
14, 421671, Note_on_c, 12, 76, 0
14, 421680, Note_on_c, 12, 73, 84
14, 421680, Note_on_c, 12, 76, 84
14, 421731, Note_on_c, 12, 73, 0
14, 421731, Note_on_c, 12, 76, 0
14, 421740, Note_on_c, 12, 76, 84
14, 421740, Note_on_c, 12, 73, 84
14, 421791, Note_on_c, 12, 76, 0
14, 421791, Note_on_c, 12, 73, 0
14, 421800, Note_on_c, 12, 76, 84
14, 421800, Note_on_c, 12, 73, 84
14, 421851, Note_on_c, 12, 76, 0
14, 421851, Note_on_c, 12, 73, 0
14, 421860, Note_on_c, 12, 76, 84
14, 421860, Note_on_c, 12, 73, 84
14, 421911, Note_on_c, 12, 76, 0
14, 421911, Note_on_c, 12, 73, 0
14, 421920, Note_on_c, 12, 62, 84
14, 421971, Note_on_c, 12, 62, 0
14, 421980, Note_on_c, 12, 74, 84
14, 422031, Note_on_c, 12, 74, 0
14, 422040, Note_on_c, 12, 74, 84
14, 422091, Note_on_c, 12, 74, 0
14, 422100, Note_on_c, 12, 74, 84
14, 422151, Note_on_c, 12, 74, 0
14, 422160, Note_on_c, 12, 74, 84
14, 422211, Note_on_c, 12, 74, 0
14, 422220, Note_on_c, 12, 74, 84
14, 422271, Note_on_c, 12, 74, 0
14, 422280, Note_on_c, 12, 74, 84
14, 422331, Note_on_c, 12, 74, 0
14, 422340, Note_on_c, 12, 74, 84
14, 422391, Note_on_c, 12, 74, 0
14, 422400, Note_on_c, 12, 78, 84
14, 422451, Note_on_c, 12, 78, 0
14, 422460, Note_on_c, 12, 78, 84
14, 422511, Note_on_c, 12, 78, 0
14, 422520, Note_on_c, 12, 74, 84
14, 422571, Note_on_c, 12, 74, 0
14, 422580, Note_on_c, 12, 74, 84
14, 422631, Note_on_c, 12, 74, 0
14, 422640, Note_on_c, 12, 69, 84
14, 422691, Note_on_c, 12, 69, 0
14, 422700, Note_on_c, 12, 69, 84
14, 422751, Note_on_c, 12, 69, 0
14, 422760, Note_on_c, 12, 66, 84
14, 422811, Note_on_c, 12, 66, 0
14, 422820, Note_on_c, 12, 66, 84
14, 422871, Note_on_c, 12, 66, 0
14, 422880, Note_on_c, 12, 71, 84
14, 422931, Note_on_c, 12, 71, 0
14, 422940, Note_on_c, 12, 71, 84
14, 422991, Note_on_c, 12, 71, 0
14, 423000, Note_on_c, 12, 67, 84
14, 423051, Note_on_c, 12, 67, 0
14, 423060, Note_on_c, 12, 67, 84
14, 423111, Note_on_c, 12, 67, 0
14, 423120, Note_on_c, 12, 64, 84
14, 423171, Note_on_c, 12, 64, 0
14, 423180, Note_on_c, 12, 64, 84
14, 423231, Note_on_c, 12, 64, 0
14, 423240, Note_on_c, 12, 59, 84
14, 423291, Note_on_c, 12, 59, 0
14, 423300, Note_on_c, 12, 59, 84
14, 423351, Note_on_c, 12, 59, 0
14, 423360, Note_on_c, 12, 67, 84
14, 423411, Note_on_c, 12, 67, 0
14, 423420, Note_on_c, 12, 67, 84
14, 423471, Note_on_c, 12, 67, 0
14, 423480, Note_on_c, 12, 64, 84
14, 423531, Note_on_c, 12, 64, 0
14, 423540, Note_on_c, 12, 64, 84
14, 423591, Note_on_c, 12, 64, 0
14, 423600, Note_on_c, 12, 61, 84
14, 423651, Note_on_c, 12, 61, 0
14, 423660, Note_on_c, 12, 61, 84
14, 423711, Note_on_c, 12, 61, 0
14, 423720, Note_on_c, 12, 57, 84
14, 423771, Note_on_c, 12, 57, 0
14, 423780, Note_on_c, 12, 57, 84
14, 423831, Note_on_c, 12, 57, 0
14, 423840, Note_on_c, 12, 62, 76
14, 424559, Note_on_c, 12, 62, 0
14, 424560, Note_on_c, 12, 62, 76
14, 424619, Note_on_c, 12, 62, 0
14, 424620, Note_on_c, 12, 61, 76
14, 424679, Note_on_c, 12, 61, 0
14, 424680, Note_on_c, 12, 62, 76
14, 424739, Note_on_c, 12, 62, 0
14, 424740, Note_on_c, 12, 64, 76
14, 424791, Note_on_c, 12, 64, 0
14, 424800, Note_on_c, 12, 66, 76
14, 424979, Note_on_c, 12, 66, 0
14, 425040, Note_on_c, 12, 66, 76
14, 425099, Note_on_c, 12, 66, 0
14, 425100, Note_on_c, 12, 64, 76
14, 425159, Note_on_c, 12, 64, 0
14, 425160, Note_on_c, 12, 66, 76
14, 425219, Note_on_c, 12, 66, 0
14, 425220, Note_on_c, 12, 67, 76
14, 425271, Note_on_c, 12, 67, 0
14, 425280, Note_on_c, 12, 69, 76
14, 425459, Note_on_c, 12, 69, 0
14, 425520, Note_on_c, 12, 69, 76
14, 425639, Note_on_c, 12, 69, 0
14, 425640, Note_on_c, 12, 71, 76
14, 425699, Note_on_c, 12, 71, 0
14, 425700, Note_on_c, 12, 73, 76
14, 425751, Note_on_c, 12, 73, 0
14, 425760, Note_on_c, 12, 74, 84
14, 426464, Note_on_c, 12, 74, 0
14, 426480, Note_on_c, 12, 74, 76
14, 426599, Note_on_c, 12, 74, 0
14, 426600, Note_on_c, 12, 73, 76
14, 426659, Note_on_c, 12, 73, 0
14, 426660, Note_on_c, 12, 71, 76
14, 426711, Note_on_c, 12, 71, 0
14, 426720, Note_on_c, 12, 69, 76
14, 426899, Note_on_c, 12, 69, 0
14, 426960, Note_on_c, 12, 69, 76
14, 427019, Note_on_c, 12, 69, 0
14, 427020, Note_on_c, 12, 71, 76
14, 427079, Note_on_c, 12, 71, 0
14, 427080, Note_on_c, 12, 69, 76
14, 427139, Note_on_c, 12, 69, 0
14, 427140, Note_on_c, 12, 67, 76
14, 427191, Note_on_c, 12, 67, 0
14, 427200, Note_on_c, 12, 66, 76
14, 427379, Note_on_c, 12, 66, 0
14, 427440, Note_on_c, 12, 66, 76
14, 427499, Note_on_c, 12, 66, 0
14, 427500, Note_on_c, 12, 67, 76
14, 427559, Note_on_c, 12, 67, 0
14, 427560, Note_on_c, 12, 66, 76
14, 427619, Note_on_c, 12, 66, 0
14, 427620, Note_on_c, 12, 64, 76
14, 427671, Note_on_c, 12, 64, 0
14, 427680, Note_on_c, 12, 62, 76
14, 427859, Note_on_c, 12, 62, 0
14, 428580, Note_on_c, 12, 78, 76
14, 428580, Note_on_c, 12, 69, 76
14, 428624, Note_on_c, 12, 78, 0
14, 428624, Note_on_c, 12, 69, 0
14, 428640, Note_on_c, 12, 69, 76
14, 428640, Note_on_c, 12, 79, 76
14, 428819, Note_on_c, 12, 69, 0
14, 428819, Note_on_c, 12, 79, 0
14, 429540, Note_on_c, 12, 69, 76
14, 429540, Note_on_c, 12, 79, 76
14, 429584, Note_on_c, 12, 69, 0
14, 429584, Note_on_c, 12, 79, 0
14, 429600, Note_on_c, 12, 78, 76
14, 429600, Note_on_c, 12, 69, 76
14, 429779, Note_on_c, 12, 78, 0
14, 429779, Note_on_c, 12, 69, 0
14, 430500, Note_on_c, 12, 78, 76
14, 430500, Note_on_c, 12, 69, 76
14, 430544, Note_on_c, 12, 78, 0
14, 430544, Note_on_c, 12, 69, 0
14, 430560, Note_on_c, 12, 69, 76
14, 430560, Note_on_c, 12, 79, 76
14, 430739, Note_on_c, 12, 69, 0
14, 430739, Note_on_c, 12, 79, 0
14, 431460, Note_on_c, 12, 79, 76
14, 431460, Note_on_c, 12, 69, 76
14, 431504, Note_on_c, 12, 79, 0
14, 431504, Note_on_c, 12, 69, 0
14, 431520, Note_on_c, 12, 78, 76
14, 431520, Note_on_c, 12, 69, 76
14, 431699, Note_on_c, 12, 78, 0
14, 431699, Note_on_c, 12, 69, 0
14, 432420, Note_on_c, 12, 62, 84
14, 432471, Note_on_c, 12, 62, 0
14, 432480, Note_on_c, 12, 62, 84
14, 432719, Note_on_c, 12, 62, 0
14, 432960, Note_on_c, 12, 62, 84
14, 433199, Note_on_c, 12, 62, 0
14, 433440, Note_on_c, 12, 62, 84
14, 434399, Note_on_c, 12, 62, 0
14, 434399, End_track
15, 0, Start_track
15, 0, Title_t, "Viola "
15, 0, MIDI_port, 0
15, 0, Program_c, 13, 48
15, 0, Control_c, 13, 11, 127
15, 0, Control_c, 13, 10, 70
15, 0, Control_c, 13, 7, 96
15, 690, Note_on_c, 13, 62, 84
15, 715, Note_on_c, 13, 62, 0
15, 720, Note_on_c, 13, 62, 84
15, 1064, Note_on_c, 13, 62, 0
15, 3570, Note_on_c, 13, 62, 84
15, 3570, Note_on_c, 13, 50, 84
15, 3595, Note_on_c, 13, 62, 0
15, 3595, Note_on_c, 13, 50, 0
15, 3600, Note_on_c, 13, 62, 84
15, 3600, Note_on_c, 13, 50, 84
15, 3951, Note_on_c, 13, 62, 0
15, 3951, Note_on_c, 13, 50, 0
15, 3956, Control_c, 13, 11, 80
15, 3960, Note_on_c, 13, 62, 76
15, 4079, Note_on_c, 13, 62, 0
15, 4080, Note_on_c, 13, 61, 76
15, 4199, Note_on_c, 13, 61, 0
15, 4200, Note_on_c, 13, 62, 76
15, 4311, Note_on_c, 13, 62, 0
15, 4320, Note_on_c, 13, 59, 76
15, 4320, Control_c, 13, 11, 80
15, 4360, Control_c, 13, 11, 84
15, 4400, Control_c, 13, 11, 88
15, 4440, Control_c, 13, 11, 92
15, 4480, Control_c, 13, 11, 96
15, 4520, Control_c, 13, 11, 100
15, 4559, Note_on_c, 13, 59, 0
15, 4560, Control_c, 13, 11, 104
15, 4560, Note_on_c, 13, 58, 76
15, 4600, Control_c, 13, 11, 107
15, 4640, Control_c, 13, 11, 111
15, 4680, Control_c, 13, 11, 115
15, 4720, Control_c, 13, 11, 119
15, 4760, Control_c, 13, 11, 123
15, 4791, Note_on_c, 13, 58, 0
15, 4800, Note_on_c, 13, 57, 84
15, 4800, Note_on_c, 13, 54, 84
15, 4800, Control_c, 13, 11, 127
15, 5039, Note_on_c, 13, 57, 0
15, 5039, Note_on_c, 13, 54, 0
15, 5040, Note_on_c, 13, 55, 76
15, 5040, Note_on_c, 13, 59, 76
15, 5159, Note_on_c, 13, 55, 0
15, 5159, Note_on_c, 13, 59, 0
15, 5520, Note_on_c, 13, 55, 84
15, 5520, Note_on_c, 13, 52, 84
15, 5759, Note_on_c, 13, 55, 0
15, 5759, Note_on_c, 13, 52, 0
15, 5760, Note_on_c, 13, 54, 76
15, 5939, Note_on_c, 13, 54, 0
15, 6000, Control_c, 13, 11, 96
15, 6120, Control_c, 13, 11, 96
15, 6120, Note_on_c, 13, 54, 68
15, 6150, Control_c, 13, 11, 99
15, 6180, Control_c, 13, 11, 101
15, 6210, Control_c, 13, 11, 104
15, 6239, Note_on_c, 13, 54, 0
15, 6240, Control_c, 13, 11, 106
15, 6240, Note_on_c, 13, 58, 68
15, 6270, Control_c, 13, 11, 109
15, 6300, Control_c, 13, 11, 112
15, 6330, Control_c, 13, 11, 114
15, 6359, Note_on_c, 13, 58, 0
15, 6360, Note_on_c, 13, 59, 68
15, 6360, Control_c, 13, 11, 117
15, 6390, Control_c, 13, 11, 119
15, 6420, Control_c, 13, 11, 122
15, 6450, Control_c, 13, 11, 124
15, 6471, Note_on_c, 13, 59, 0
15, 6480, Note_on_c, 13, 58, 76
15, 6480, Control_c, 13, 11, 127
15, 6719, Note_on_c, 13, 58, 0
15, 7200, Note_on_c, 13, 62, 76
15, 7200, Note_on_c, 13, 59, 76
15, 7439, Note_on_c, 13, 62, 0
15, 7439, Note_on_c, 13, 59, 0
15, 7920, Note_on_c, 13, 61, 76
15, 7920, Note_on_c, 13, 64, 76
15, 8159, Note_on_c, 13, 61, 0
15, 8159, Note_on_c, 13, 64, 0
15, 8400, Note_on_c, 13, 62, 52
15, 8489, Note_on_c, 13, 62, 0
15, 8520, Note_on_c, 13, 60, 84
15, 8609, Note_on_c, 13, 60, 0
15, 8640, Note_on_c, 13, 58, 76
15, 8695, Note_on_c, 13, 58, 0
15, 8700, Note_on_c, 13, 53, 52
15, 8755, Note_on_c, 13, 53, 0
15, 8760, Note_on_c, 13, 53, 52
15, 8815, Note_on_c, 13, 53, 0
15, 8820, Note_on_c, 13, 53, 52
15, 8875, Note_on_c, 13, 53, 0
15, 8880, Note_on_c, 13, 53, 52
15, 8935, Note_on_c, 13, 53, 0
15, 8940, Note_on_c, 13, 53, 52
15, 8995, Note_on_c, 13, 53, 0
15, 9000, Note_on_c, 13, 53, 52
15, 9055, Note_on_c, 13, 53, 0
15, 9060, Note_on_c, 13, 53, 52
15, 9115, Note_on_c, 13, 53, 0
15, 9120, Note_on_c, 13, 53, 52
15, 9175, Note_on_c, 13, 53, 0
15, 9180, Note_on_c, 13, 53, 52
15, 9235, Note_on_c, 13, 53, 0
15, 9240, Note_on_c, 13, 53, 52
15, 9295, Note_on_c, 13, 53, 0
15, 9300, Note_on_c, 13, 53, 52
15, 9355, Note_on_c, 13, 53, 0
15, 9360, Note_on_c, 13, 53, 68
15, 9415, Note_on_c, 13, 53, 0
15, 9420, Note_on_c, 13, 53, 52
15, 9475, Note_on_c, 13, 53, 0
15, 9480, Note_on_c, 13, 53, 52
15, 9535, Note_on_c, 13, 53, 0
15, 9540, Note_on_c, 13, 53, 52
15, 9595, Note_on_c, 13, 53, 0
15, 9600, Note_on_c, 13, 53, 52
15, 9655, Note_on_c, 13, 53, 0
15, 9660, Note_on_c, 13, 53, 52
15, 9715, Note_on_c, 13, 53, 0
15, 9720, Note_on_c, 13, 53, 52
15, 9775, Note_on_c, 13, 53, 0
15, 9780, Note_on_c, 13, 53, 52
15, 9835, Note_on_c, 13, 53, 0
15, 9840, Note_on_c, 13, 53, 52
15, 9895, Note_on_c, 13, 53, 0
15, 9900, Note_on_c, 13, 53, 52
15, 9955, Note_on_c, 13, 53, 0
15, 9960, Note_on_c, 13, 53, 52
15, 10015, Note_on_c, 13, 53, 0
15, 10020, Note_on_c, 13, 53, 52
15, 10075, Note_on_c, 13, 53, 0
15, 10080, Note_on_c, 13, 53, 68
15, 10135, Note_on_c, 13, 53, 0
15, 10140, Note_on_c, 13, 58, 52
15, 10140, Note_on_c, 13, 53, 52
15, 10140, Note_on_c, 13, 62, 52
15, 10195, Note_on_c, 13, 58, 0
15, 10195, Note_on_c, 13, 53, 0
15, 10195, Note_on_c, 13, 62, 0
15, 10200, Note_on_c, 13, 53, 52
15, 10200, Note_on_c, 13, 62, 52
15, 10200, Note_on_c, 13, 58, 52
15, 10255, Note_on_c, 13, 53, 0
15, 10255, Note_on_c, 13, 62, 0
15, 10255, Note_on_c, 13, 58, 0
15, 10260, Note_on_c, 13, 62, 52
15, 10260, Note_on_c, 13, 58, 52
15, 10260, Note_on_c, 13, 53, 52
15, 10315, Note_on_c, 13, 62, 0
15, 10315, Note_on_c, 13, 58, 0
15, 10315, Note_on_c, 13, 53, 0
15, 10320, Note_on_c, 13, 62, 52
15, 10320, Note_on_c, 13, 53, 52
15, 10320, Note_on_c, 13, 58, 52
15, 10375, Note_on_c, 13, 62, 0
15, 10375, Note_on_c, 13, 53, 0
15, 10375, Note_on_c, 13, 58, 0
15, 10380, Note_on_c, 13, 58, 52
15, 10380, Note_on_c, 13, 62, 52
15, 10380, Note_on_c, 13, 53, 52
15, 10435, Note_on_c, 13, 58, 0
15, 10435, Note_on_c, 13, 62, 0
15, 10435, Note_on_c, 13, 53, 0
15, 10440, Note_on_c, 13, 58, 52
15, 10440, Note_on_c, 13, 53, 52
15, 10440, Note_on_c, 13, 62, 52
15, 10495, Note_on_c, 13, 58, 0
15, 10495, Note_on_c, 13, 53, 0
15, 10495, Note_on_c, 13, 62, 0
15, 10500, Note_on_c, 13, 62, 52
15, 10500, Note_on_c, 13, 53, 52
15, 10500, Note_on_c, 13, 58, 52
15, 10555, Note_on_c, 13, 62, 0
15, 10555, Note_on_c, 13, 53, 0
15, 10555, Note_on_c, 13, 58, 0
15, 10560, Note_on_c, 13, 62, 52
15, 10560, Note_on_c, 13, 58, 52
15, 10560, Note_on_c, 13, 53, 52
15, 10615, Note_on_c, 13, 62, 0
15, 10615, Note_on_c, 13, 58, 0
15, 10615, Note_on_c, 13, 53, 0
15, 10620, Note_on_c, 13, 53, 52
15, 10620, Note_on_c, 13, 58, 52
15, 10620, Note_on_c, 13, 62, 52
15, 10675, Note_on_c, 13, 53, 0
15, 10675, Note_on_c, 13, 58, 0
15, 10675, Note_on_c, 13, 62, 0
15, 10680, Note_on_c, 13, 62, 52
15, 10680, Note_on_c, 13, 58, 52
15, 10680, Note_on_c, 13, 53, 52
15, 10735, Note_on_c, 13, 62, 0
15, 10735, Note_on_c, 13, 58, 0
15, 10735, Note_on_c, 13, 53, 0
15, 10740, Note_on_c, 13, 62, 52
15, 10740, Note_on_c, 13, 53, 52
15, 10740, Note_on_c, 13, 58, 52
15, 10795, Note_on_c, 13, 62, 0
15, 10795, Note_on_c, 13, 53, 0
15, 10795, Note_on_c, 13, 58, 0
15, 10800, Note_on_c, 13, 63, 68
15, 10800, Note_on_c, 13, 53, 68
15, 10800, Note_on_c, 13, 60, 68
15, 10855, Note_on_c, 13, 63, 0
15, 10855, Note_on_c, 13, 53, 0
15, 10855, Note_on_c, 13, 60, 0
15, 10860, Note_on_c, 13, 53, 52
15, 10915, Note_on_c, 13, 53, 0
15, 10920, Note_on_c, 13, 53, 52
15, 10975, Note_on_c, 13, 53, 0
15, 10980, Note_on_c, 13, 53, 52
15, 11035, Note_on_c, 13, 53, 0
15, 11040, Note_on_c, 13, 53, 52
15, 11095, Note_on_c, 13, 53, 0
15, 11100, Note_on_c, 13, 53, 52
15, 11155, Note_on_c, 13, 53, 0
15, 11160, Note_on_c, 13, 53, 52
15, 11215, Note_on_c, 13, 53, 0
15, 11220, Note_on_c, 13, 53, 52
15, 11275, Note_on_c, 13, 53, 0
15, 11280, Note_on_c, 13, 53, 52
15, 11335, Note_on_c, 13, 53, 0
15, 11340, Note_on_c, 13, 53, 52
15, 11395, Note_on_c, 13, 53, 0
15, 11400, Note_on_c, 13, 53, 52
15, 11455, Note_on_c, 13, 53, 0
15, 11460, Note_on_c, 13, 53, 52
15, 11515, Note_on_c, 13, 53, 0
15, 11520, Note_on_c, 13, 53, 52
15, 11639, Note_on_c, 13, 53, 0
15, 11640, Control_c, 13, 11, 96
15, 11760, Note_on_c, 13, 58, 68
15, 11789, Note_on_c, 13, 58, 0
15, 11790, Note_on_c, 13, 57, 68
15, 11800, Control_c, 13, 11, 99
15, 11819, Note_on_c, 13, 57, 0
15, 11820, Note_on_c, 13, 58, 68
15, 11840, Control_c, 13, 11, 101
15, 11849, Note_on_c, 13, 58, 0
15, 11850, Note_on_c, 13, 60, 68
15, 11879, Note_on_c, 13, 60, 0
15, 11880, Note_on_c, 13, 62, 68
15, 11880, Control_c, 13, 11, 104
15, 11909, Note_on_c, 13, 62, 0
15, 11910, Note_on_c, 13, 63, 68
15, 11920, Control_c, 13, 11, 106
15, 11939, Note_on_c, 13, 63, 0
15, 11940, Note_on_c, 13, 65, 68
15, 11960, Control_c, 13, 11, 109
15, 11969, Note_on_c, 13, 65, 0
15, 11970, Note_on_c, 13, 67, 68
15, 11995, Note_on_c, 13, 67, 0
15, 12000, Note_on_c, 13, 68, 68
15, 12000, Control_c, 13, 11, 112
15, 12029, Note_on_c, 13, 68, 0
15, 12030, Note_on_c, 13, 67, 68
15, 12040, Control_c, 13, 11, 114
15, 12059, Note_on_c, 13, 67, 0
15, 12060, Note_on_c, 13, 65, 68
15, 12080, Control_c, 13, 11, 117
15, 12089, Note_on_c, 13, 65, 0
15, 12090, Note_on_c, 13, 63, 68
15, 12119, Note_on_c, 13, 63, 0
15, 12120, Note_on_c, 13, 62, 68
15, 12120, Control_c, 13, 11, 119
15, 12149, Note_on_c, 13, 62, 0
15, 12150, Note_on_c, 13, 60, 68
15, 12160, Control_c, 13, 11, 122
15, 12179, Note_on_c, 13, 60, 0
15, 12180, Note_on_c, 13, 58, 68
15, 12200, Control_c, 13, 11, 127
15, 12209, Note_on_c, 13, 58, 0
15, 12210, Note_on_c, 13, 56, 68
15, 12235, Note_on_c, 13, 56, 0
15, 12240, Note_on_c, 13, 55, 76
15, 12275, Note_on_c, 13, 55, 0
15, 12280, Note_on_c, 13, 65, 52
15, 12280, Note_on_c, 13, 62, 52
15, 12315, Note_on_c, 13, 65, 0
15, 12315, Note_on_c, 13, 62, 0
15, 12320, Note_on_c, 13, 62, 52
15, 12320, Note_on_c, 13, 65, 52
15, 12355, Note_on_c, 13, 62, 0
15, 12355, Note_on_c, 13, 65, 0
15, 12360, Note_on_c, 13, 65, 52
15, 12360, Note_on_c, 13, 62, 52
15, 12395, Note_on_c, 13, 65, 0
15, 12395, Note_on_c, 13, 62, 0
15, 12400, Note_on_c, 13, 65, 52
15, 12400, Note_on_c, 13, 62, 52
15, 12435, Note_on_c, 13, 65, 0
15, 12435, Note_on_c, 13, 62, 0
15, 12440, Note_on_c, 13, 65, 52
15, 12440, Note_on_c, 13, 62, 52
15, 12475, Note_on_c, 13, 65, 0
15, 12475, Note_on_c, 13, 62, 0
15, 12480, Note_on_c, 13, 65, 52
15, 12480, Note_on_c, 13, 62, 52
15, 12515, Note_on_c, 13, 65, 0
15, 12515, Note_on_c, 13, 62, 0
15, 12520, Note_on_c, 13, 65, 52
15, 12520, Note_on_c, 13, 62, 52
15, 12555, Note_on_c, 13, 65, 0
15, 12555, Note_on_c, 13, 62, 0
15, 12560, Note_on_c, 13, 62, 52
15, 12560, Note_on_c, 13, 65, 52
15, 12595, Note_on_c, 13, 62, 0
15, 12595, Note_on_c, 13, 65, 0
15, 12600, Note_on_c, 13, 65, 52
15, 12600, Note_on_c, 13, 62, 52
15, 12635, Note_on_c, 13, 65, 0
15, 12635, Note_on_c, 13, 62, 0
15, 12640, Note_on_c, 13, 65, 52
15, 12640, Note_on_c, 13, 62, 52
15, 12675, Note_on_c, 13, 65, 0
15, 12675, Note_on_c, 13, 62, 0
15, 12680, Note_on_c, 13, 65, 52
15, 12680, Note_on_c, 13, 62, 52
15, 12715, Note_on_c, 13, 65, 0
15, 12715, Note_on_c, 13, 62, 0
15, 12720, Note_on_c, 13, 65, 52
15, 12720, Note_on_c, 13, 62, 52
15, 12755, Note_on_c, 13, 65, 0
15, 12755, Note_on_c, 13, 62, 0
15, 12760, Note_on_c, 13, 65, 52
15, 12760, Note_on_c, 13, 62, 52
15, 12795, Note_on_c, 13, 65, 0
15, 12795, Note_on_c, 13, 62, 0
15, 12800, Note_on_c, 13, 65, 52
15, 12800, Note_on_c, 13, 62, 52
15, 12835, Note_on_c, 13, 65, 0
15, 12835, Note_on_c, 13, 62, 0
15, 12840, Note_on_c, 13, 65, 52
15, 12840, Note_on_c, 13, 62, 52
15, 12875, Note_on_c, 13, 65, 0
15, 12875, Note_on_c, 13, 62, 0
15, 12880, Note_on_c, 13, 62, 52
15, 12880, Note_on_c, 13, 65, 52
15, 12915, Note_on_c, 13, 62, 0
15, 12915, Note_on_c, 13, 65, 0
15, 12920, Note_on_c, 13, 62, 52
15, 12920, Note_on_c, 13, 65, 52
15, 12955, Note_on_c, 13, 62, 0
15, 12955, Note_on_c, 13, 65, 0
15, 12960, Note_on_c, 13, 60, 68
15, 12960, Note_on_c, 13, 64, 68
15, 12995, Note_on_c, 13, 60, 0
15, 12995, Note_on_c, 13, 64, 0
15, 13000, Note_on_c, 13, 64, 52
15, 13000, Note_on_c, 13, 60, 52
15, 13035, Note_on_c, 13, 64, 0
15, 13035, Note_on_c, 13, 60, 0
15, 13040, Note_on_c, 13, 60, 52
15, 13040, Note_on_c, 13, 64, 52
15, 13075, Note_on_c, 13, 60, 0
15, 13075, Note_on_c, 13, 64, 0
15, 13080, Note_on_c, 13, 60, 52
15, 13080, Note_on_c, 13, 64, 52
15, 13115, Note_on_c, 13, 60, 0
15, 13115, Note_on_c, 13, 64, 0
15, 13120, Note_on_c, 13, 60, 52
15, 13120, Note_on_c, 13, 64, 52
15, 13155, Note_on_c, 13, 60, 0
15, 13155, Note_on_c, 13, 64, 0
15, 13160, Note_on_c, 13, 64, 52
15, 13160, Note_on_c, 13, 60, 52
15, 13195, Note_on_c, 13, 64, 0
15, 13195, Note_on_c, 13, 60, 0
15, 13200, Note_on_c, 13, 60, 52
15, 13200, Note_on_c, 13, 64, 52
15, 13235, Note_on_c, 13, 60, 0
15, 13235, Note_on_c, 13, 64, 0
15, 13240, Note_on_c, 13, 60, 52
15, 13240, Note_on_c, 13, 64, 52
15, 13275, Note_on_c, 13, 60, 0
15, 13275, Note_on_c, 13, 64, 0
15, 13280, Note_on_c, 13, 60, 52
15, 13280, Note_on_c, 13, 64, 52
15, 13315, Note_on_c, 13, 60, 0
15, 13315, Note_on_c, 13, 64, 0
15, 13320, Note_on_c, 13, 60, 52
15, 13320, Note_on_c, 13, 64, 52
15, 13355, Note_on_c, 13, 60, 0
15, 13355, Note_on_c, 13, 64, 0
15, 13360, Note_on_c, 13, 64, 52
15, 13360, Note_on_c, 13, 60, 52
15, 13395, Note_on_c, 13, 64, 0
15, 13395, Note_on_c, 13, 60, 0
15, 13400, Note_on_c, 13, 64, 52
15, 13400, Note_on_c, 13, 60, 52
15, 13435, Note_on_c, 13, 64, 0
15, 13435, Note_on_c, 13, 60, 0
15, 13440, Note_on_c, 13, 60, 52
15, 13440, Note_on_c, 13, 64, 52
15, 13475, Note_on_c, 13, 60, 0
15, 13475, Note_on_c, 13, 64, 0
15, 13480, Note_on_c, 13, 60, 52
15, 13480, Note_on_c, 13, 64, 52
15, 13515, Note_on_c, 13, 60, 0
15, 13515, Note_on_c, 13, 64, 0
15, 13520, Note_on_c, 13, 64, 52
15, 13520, Note_on_c, 13, 60, 52
15, 13555, Note_on_c, 13, 64, 0
15, 13555, Note_on_c, 13, 60, 0
15, 13560, Note_on_c, 13, 64, 52
15, 13560, Note_on_c, 13, 60, 52
15, 13595, Note_on_c, 13, 64, 0
15, 13595, Note_on_c, 13, 60, 0
15, 13600, Note_on_c, 13, 60, 52
15, 13600, Note_on_c, 13, 64, 52
15, 13635, Note_on_c, 13, 60, 0
15, 13635, Note_on_c, 13, 64, 0
15, 13640, Note_on_c, 13, 60, 52
15, 13640, Note_on_c, 13, 64, 52
15, 13675, Note_on_c, 13, 60, 0
15, 13675, Note_on_c, 13, 64, 0
15, 13680, Note_on_c, 13, 60, 68
15, 13680, Note_on_c, 13, 63, 68
15, 13715, Note_on_c, 13, 60, 0
15, 13715, Note_on_c, 13, 63, 0
15, 13720, Note_on_c, 13, 63, 52
15, 13720, Note_on_c, 13, 60, 52
15, 13755, Note_on_c, 13, 63, 0
15, 13755, Note_on_c, 13, 60, 0
15, 13760, Note_on_c, 13, 60, 52
15, 13760, Note_on_c, 13, 63, 52
15, 13795, Note_on_c, 13, 60, 0
15, 13795, Note_on_c, 13, 63, 0
15, 13800, Note_on_c, 13, 63, 52
15, 13800, Note_on_c, 13, 60, 52
15, 13835, Note_on_c, 13, 63, 0
15, 13835, Note_on_c, 13, 60, 0
15, 13840, Note_on_c, 13, 63, 52
15, 13840, Note_on_c, 13, 60, 52
15, 13875, Note_on_c, 13, 63, 0
15, 13875, Note_on_c, 13, 60, 0
15, 13880, Note_on_c, 13, 63, 52
15, 13880, Note_on_c, 13, 60, 52
15, 13915, Note_on_c, 13, 63, 0
15, 13915, Note_on_c, 13, 60, 0
15, 13920, Note_on_c, 13, 63, 52
15, 13920, Note_on_c, 13, 60, 52
15, 13955, Note_on_c, 13, 63, 0
15, 13955, Note_on_c, 13, 60, 0
15, 13960, Note_on_c, 13, 63, 52
15, 13960, Note_on_c, 13, 60, 52
15, 13995, Note_on_c, 13, 63, 0
15, 13995, Note_on_c, 13, 60, 0
15, 14000, Note_on_c, 13, 60, 52
15, 14000, Note_on_c, 13, 63, 52
15, 14035, Note_on_c, 13, 60, 0
15, 14035, Note_on_c, 13, 63, 0
15, 14040, Note_on_c, 13, 60, 52
15, 14040, Note_on_c, 13, 63, 52
15, 14075, Note_on_c, 13, 60, 0
15, 14075, Note_on_c, 13, 63, 0
15, 14080, Note_on_c, 13, 63, 52
15, 14080, Note_on_c, 13, 60, 52
15, 14115, Note_on_c, 13, 63, 0
15, 14115, Note_on_c, 13, 60, 0
15, 14120, Note_on_c, 13, 63, 52
15, 14120, Note_on_c, 13, 60, 52
15, 14155, Note_on_c, 13, 63, 0
15, 14155, Note_on_c, 13, 60, 0
15, 14160, Note_on_c, 13, 63, 52
15, 14160, Note_on_c, 13, 60, 52
15, 14195, Note_on_c, 13, 63, 0
15, 14195, Note_on_c, 13, 60, 0
15, 14200, Note_on_c, 13, 60, 52
15, 14200, Note_on_c, 13, 63, 52
15, 14235, Note_on_c, 13, 60, 0
15, 14235, Note_on_c, 13, 63, 0
15, 14240, Note_on_c, 13, 60, 52
15, 14240, Note_on_c, 13, 63, 52
15, 14275, Note_on_c, 13, 60, 0
15, 14275, Note_on_c, 13, 63, 0
15, 14280, Note_on_c, 13, 60, 52
15, 14280, Note_on_c, 13, 63, 52
15, 14315, Note_on_c, 13, 60, 0
15, 14315, Note_on_c, 13, 63, 0
15, 14320, Note_on_c, 13, 60, 52
15, 14320, Note_on_c, 13, 63, 52
15, 14355, Note_on_c, 13, 60, 0
15, 14355, Note_on_c, 13, 63, 0
15, 14360, Note_on_c, 13, 60, 52
15, 14360, Note_on_c, 13, 63, 52
15, 14395, Note_on_c, 13, 60, 0
15, 14395, Note_on_c, 13, 63, 0
15, 14400, Note_on_c, 13, 60, 68
15, 14400, Note_on_c, 13, 62, 68
15, 14435, Note_on_c, 13, 60, 0
15, 14435, Note_on_c, 13, 62, 0
15, 14440, Note_on_c, 13, 69, 52
15, 14475, Note_on_c, 13, 69, 0
15, 14480, Note_on_c, 13, 69, 52
15, 14515, Note_on_c, 13, 69, 0
15, 14520, Note_on_c, 13, 69, 52
15, 14555, Note_on_c, 13, 69, 0
15, 14560, Note_on_c, 13, 69, 52
15, 14595, Note_on_c, 13, 69, 0
15, 14600, Note_on_c, 13, 69, 52
15, 14635, Note_on_c, 13, 69, 0
15, 14640, Note_on_c, 13, 69, 52
15, 14675, Note_on_c, 13, 69, 0
15, 14680, Note_on_c, 13, 69, 52
15, 14715, Note_on_c, 13, 69, 0
15, 14720, Note_on_c, 13, 69, 52
15, 14755, Note_on_c, 13, 69, 0
15, 14760, Note_on_c, 13, 69, 52
15, 14795, Note_on_c, 13, 69, 0
15, 14800, Note_on_c, 13, 69, 52
15, 14835, Note_on_c, 13, 69, 0
15, 14840, Note_on_c, 13, 69, 52
15, 14875, Note_on_c, 13, 69, 0
15, 14880, Note_on_c, 13, 69, 52
15, 14915, Note_on_c, 13, 69, 0
15, 14920, Note_on_c, 13, 69, 52
15, 14955, Note_on_c, 13, 69, 0
15, 14960, Note_on_c, 13, 69, 52
15, 14995, Note_on_c, 13, 69, 0
15, 15000, Note_on_c, 13, 69, 52
15, 15035, Note_on_c, 13, 69, 0
15, 15040, Note_on_c, 13, 69, 52
15, 15075, Note_on_c, 13, 69, 0
15, 15080, Note_on_c, 13, 69, 52
15, 15115, Note_on_c, 13, 69, 0
15, 15120, Note_on_c, 13, 67, 68
15, 15155, Note_on_c, 13, 67, 0
15, 15160, Note_on_c, 13, 62, 52
15, 15195, Note_on_c, 13, 62, 0
15, 15200, Note_on_c, 13, 62, 52
15, 15235, Note_on_c, 13, 62, 0
15, 15240, Note_on_c, 13, 62, 52
15, 15275, Note_on_c, 13, 62, 0
15, 15280, Note_on_c, 13, 62, 52
15, 15315, Note_on_c, 13, 62, 0
15, 15320, Note_on_c, 13, 62, 52
15, 15355, Note_on_c, 13, 62, 0
15, 15360, Note_on_c, 13, 62, 52
15, 15395, Note_on_c, 13, 62, 0
15, 15400, Note_on_c, 13, 62, 52
15, 15435, Note_on_c, 13, 62, 0
15, 15440, Note_on_c, 13, 62, 52
15, 15475, Note_on_c, 13, 62, 0
15, 15480, Note_on_c, 13, 62, 52
15, 15515, Note_on_c, 13, 62, 0
15, 15520, Note_on_c, 13, 62, 52
15, 15555, Note_on_c, 13, 62, 0
15, 15560, Note_on_c, 13, 62, 52
15, 15595, Note_on_c, 13, 62, 0
15, 15600, Note_on_c, 13, 63, 52
15, 15635, Note_on_c, 13, 63, 0
15, 15640, Note_on_c, 13, 63, 52
15, 15675, Note_on_c, 13, 63, 0
15, 15680, Note_on_c, 13, 63, 52
15, 15715, Note_on_c, 13, 63, 0
15, 15720, Note_on_c, 13, 62, 52
15, 15755, Note_on_c, 13, 62, 0
15, 15760, Note_on_c, 13, 62, 52
15, 15795, Note_on_c, 13, 62, 0
15, 15800, Note_on_c, 13, 62, 52
15, 15835, Note_on_c, 13, 62, 0
15, 15840, Note_on_c, 13, 61, 52
15, 15875, Note_on_c, 13, 61, 0
15, 15880, Note_on_c, 13, 64, 53
15, 15880, Note_on_c, 13, 61, 53
15, 15915, Note_on_c, 13, 64, 0
15, 15915, Note_on_c, 13, 61, 0
15, 15920, Note_on_c, 13, 61, 55
15, 15920, Note_on_c, 13, 64, 55
15, 15955, Note_on_c, 13, 61, 0
15, 15955, Note_on_c, 13, 64, 0
15, 15960, Note_on_c, 13, 61, 57
15, 15960, Note_on_c, 13, 64, 57
15, 15995, Note_on_c, 13, 61, 0
15, 15995, Note_on_c, 13, 64, 0
15, 16000, Note_on_c, 13, 61, 59
15, 16000, Note_on_c, 13, 64, 59
15, 16035, Note_on_c, 13, 61, 0
15, 16035, Note_on_c, 13, 64, 0
15, 16040, Note_on_c, 13, 64, 60
15, 16040, Note_on_c, 13, 61, 60
15, 16075, Note_on_c, 13, 64, 0
15, 16075, Note_on_c, 13, 61, 0
15, 16080, Note_on_c, 13, 61, 62
15, 16080, Note_on_c, 13, 64, 62
15, 16115, Note_on_c, 13, 61, 0
15, 16115, Note_on_c, 13, 64, 0
15, 16120, Note_on_c, 13, 61, 64
15, 16120, Note_on_c, 13, 64, 64
15, 16155, Note_on_c, 13, 61, 0
15, 16155, Note_on_c, 13, 64, 0
15, 16160, Note_on_c, 13, 61, 66
15, 16160, Note_on_c, 13, 64, 66
15, 16195, Note_on_c, 13, 61, 0
15, 16195, Note_on_c, 13, 64, 0
15, 16200, Note_on_c, 13, 61, 68
15, 16200, Note_on_c, 13, 64, 68
15, 16235, Note_on_c, 13, 61, 0
15, 16235, Note_on_c, 13, 64, 0
15, 16240, Note_on_c, 13, 61, 69
15, 16240, Note_on_c, 13, 64, 69
15, 16275, Note_on_c, 13, 61, 0
15, 16275, Note_on_c, 13, 64, 0
15, 16280, Note_on_c, 13, 61, 71
15, 16280, Note_on_c, 13, 64, 71
15, 16315, Note_on_c, 13, 61, 0
15, 16315, Note_on_c, 13, 64, 0
15, 16320, Note_on_c, 13, 64, 73
15, 16320, Note_on_c, 13, 61, 73
15, 16355, Note_on_c, 13, 64, 0
15, 16355, Note_on_c, 13, 61, 0
15, 16360, Note_on_c, 13, 61, 75
15, 16360, Note_on_c, 13, 64, 75
15, 16395, Note_on_c, 13, 61, 0
15, 16395, Note_on_c, 13, 64, 0
15, 16400, Note_on_c, 13, 61, 76
15, 16400, Note_on_c, 13, 64, 76
15, 16435, Note_on_c, 13, 61, 0
15, 16435, Note_on_c, 13, 64, 0
15, 16440, Note_on_c, 13, 64, 78
15, 16440, Note_on_c, 13, 61, 78
15, 16475, Note_on_c, 13, 64, 0
15, 16475, Note_on_c, 13, 61, 0
15, 16480, Note_on_c, 13, 64, 80
15, 16480, Note_on_c, 13, 61, 80
15, 16515, Note_on_c, 13, 64, 0
15, 16515, Note_on_c, 13, 61, 0
15, 16520, Note_on_c, 13, 61, 82
15, 16520, Note_on_c, 13, 64, 82
15, 16555, Note_on_c, 13, 61, 0
15, 16555, Note_on_c, 13, 64, 0
15, 16560, Note_on_c, 13, 62, 84
15, 16560, Note_on_c, 13, 65, 84
15, 16765, Note_on_c, 13, 62, 0
15, 16765, Note_on_c, 13, 65, 0
15, 16770, Note_on_c, 13, 74, 84
15, 16795, Note_on_c, 13, 74, 0
15, 16800, Note_on_c, 13, 69, 84
15, 17005, Note_on_c, 13, 69, 0
15, 17010, Note_on_c, 13, 69, 84
15, 17035, Note_on_c, 13, 69, 0
15, 17040, Note_on_c, 13, 65, 84
15, 17129, Note_on_c, 13, 65, 0
15, 17160, Note_on_c, 13, 62, 84
15, 17249, Note_on_c, 13, 62, 0
15, 17280, Note_on_c, 13, 57, 92
15, 17399, Note_on_c, 13, 57, 0
15, 17520, Note_on_c, 13, 57, 52
15, 17759, Note_on_c, 13, 57, 0
15, 17760, Note_on_c, 13, 60, 52
15, 17991, Note_on_c, 13, 60, 0
15, 18000, Note_on_c, 13, 51, 52
15, 18239, Note_on_c, 13, 51, 0
15, 18240, Note_on_c, 13, 52, 52
15, 18415, Note_on_c, 13, 52, 0
15, 18420, Note_on_c, 13, 54, 52
15, 18464, Note_on_c, 13, 54, 0
15, 18480, Note_on_c, 13, 55, 52
15, 18524, Note_on_c, 13, 55, 0
15, 18540, Note_on_c, 13, 55, 52
15, 18584, Note_on_c, 13, 55, 0
15, 18600, Note_on_c, 13, 57, 52
15, 18644, Note_on_c, 13, 57, 0
15, 18660, Note_on_c, 13, 58, 52
15, 18704, Note_on_c, 13, 58, 0
15, 18720, Note_on_c, 13, 49, 52
15, 18959, Note_on_c, 13, 49, 0
15, 18960, Note_on_c, 13, 50, 52
15, 18989, Note_on_c, 13, 50, 0
15, 19000, Note_on_c, 13, 50, 52
15, 19029, Note_on_c, 13, 50, 0
15, 19040, Note_on_c, 13, 52, 52
15, 19069, Note_on_c, 13, 52, 0
15, 19080, Note_on_c, 13, 54, 52
15, 19109, Note_on_c, 13, 54, 0
15, 19120, Note_on_c, 13, 54, 52
15, 19149, Note_on_c, 13, 54, 0
15, 19160, Note_on_c, 13, 55, 52
15, 19189, Note_on_c, 13, 55, 0
15, 19200, Note_on_c, 13, 57, 52
15, 19229, Note_on_c, 13, 57, 0
15, 19240, Note_on_c, 13, 54, 52
15, 19269, Note_on_c, 13, 54, 0
15, 19280, Note_on_c, 13, 55, 52
15, 19309, Note_on_c, 13, 55, 0
15, 19320, Note_on_c, 13, 57, 52
15, 19349, Note_on_c, 13, 57, 0
15, 19360, Note_on_c, 13, 59, 52
15, 19389, Note_on_c, 13, 59, 0
15, 19400, Note_on_c, 13, 60, 52
15, 19429, Note_on_c, 13, 60, 0
15, 19480, Note_on_c, 13, 57, 52
15, 19509, Note_on_c, 13, 57, 0
15, 19520, Note_on_c, 13, 59, 52
15, 19549, Note_on_c, 13, 59, 0
15, 19560, Note_on_c, 13, 60, 52
15, 19589, Note_on_c, 13, 60, 0
15, 19600, Note_on_c, 13, 59, 52
15, 19629, Note_on_c, 13, 59, 0
15, 19640, Note_on_c, 13, 57, 52
15, 19669, Note_on_c, 13, 57, 0
15, 19680, Note_on_c, 13, 55, 52
15, 19709, Note_on_c, 13, 55, 0
15, 19720, Note_on_c, 13, 59, 52
15, 19749, Note_on_c, 13, 59, 0
15, 19760, Note_on_c, 13, 57, 52
15, 19789, Note_on_c, 13, 57, 0
15, 19800, Note_on_c, 13, 55, 52
15, 19829, Note_on_c, 13, 55, 0
15, 19840, Note_on_c, 13, 57, 52
15, 19869, Note_on_c, 13, 57, 0
15, 19880, Note_on_c, 13, 54, 52
15, 19909, Note_on_c, 13, 54, 0
15, 19920, Note_on_c, 13, 52, 52
15, 19949, Note_on_c, 13, 52, 0
15, 19960, Note_on_c, 13, 54, 52
15, 19989, Note_on_c, 13, 54, 0
15, 20000, Note_on_c, 13, 51, 52
15, 20029, Note_on_c, 13, 51, 0
15, 20040, Note_on_c, 13, 52, 52
15, 20069, Note_on_c, 13, 52, 0
15, 20080, Note_on_c, 13, 54, 52
15, 20109, Note_on_c, 13, 54, 0
15, 20120, Note_on_c, 13, 55, 52
15, 20149, Note_on_c, 13, 55, 0
15, 20200, Note_on_c, 13, 55, 52
15, 20229, Note_on_c, 13, 55, 0
15, 20240, Note_on_c, 13, 57, 53
15, 20269, Note_on_c, 13, 57, 0
15, 20280, Note_on_c, 13, 58, 54
15, 20309, Note_on_c, 13, 58, 0
15, 20320, Note_on_c, 13, 57, 55
15, 20349, Note_on_c, 13, 57, 0
15, 20360, Note_on_c, 13, 55, 56
15, 20389, Note_on_c, 13, 55, 0
15, 20400, Note_on_c, 13, 54, 57
15, 20429, Note_on_c, 13, 54, 0
15, 20440, Note_on_c, 13, 57, 58
15, 20469, Note_on_c, 13, 57, 0
15, 20480, Note_on_c, 13, 55, 59
15, 20509, Note_on_c, 13, 55, 0
15, 20520, Note_on_c, 13, 54, 60
15, 20549, Note_on_c, 13, 54, 0
15, 20560, Note_on_c, 13, 55, 60
15, 20589, Note_on_c, 13, 55, 0
15, 20600, Note_on_c, 13, 52, 61
15, 20629, Note_on_c, 13, 52, 0
15, 20640, Note_on_c, 13, 50, 62
15, 20669, Note_on_c, 13, 50, 0
15, 20680, Note_on_c, 13, 54, 63
15, 20709, Note_on_c, 13, 54, 0
15, 20720, Note_on_c, 13, 57, 64
15, 20749, Note_on_c, 13, 57, 0
15, 20760, Note_on_c, 13, 62, 65
15, 20789, Note_on_c, 13, 62, 0
15, 20800, Note_on_c, 13, 62, 66
15, 20829, Note_on_c, 13, 62, 0
15, 20840, Note_on_c, 13, 62, 67
15, 20869, Note_on_c, 13, 62, 0
15, 20880, Note_on_c, 13, 57, 76
15, 20999, Note_on_c, 13, 57, 0
15, 21360, Note_on_c, 13, 57, 52
15, 21479, Note_on_c, 13, 57, 0
15, 21600, Note_on_c, 13, 57, 68
15, 21719, Note_on_c, 13, 57, 0
15, 22080, Note_on_c, 13, 57, 52
15, 22199, Note_on_c, 13, 57, 0
15, 22320, Note_on_c, 13, 57, 68
15, 22439, Note_on_c, 13, 57, 0
15, 22800, Note_on_c, 13, 57, 52
15, 22919, Note_on_c, 13, 57, 0
15, 23040, Note_on_c, 13, 57, 68
15, 23159, Note_on_c, 13, 57, 0
15, 23520, Note_on_c, 13, 57, 52
15, 23639, Note_on_c, 13, 57, 0
15, 23760, Note_on_c, 13, 57, 52
15, 23799, Note_on_c, 13, 57, 0
15, 23800, Note_on_c, 13, 52, 53
15, 23800, Note_on_c, 13, 55, 53
15, 23839, Note_on_c, 13, 52, 0
15, 23839, Note_on_c, 13, 55, 0
15, 23840, Note_on_c, 13, 52, 54
15, 23840, Note_on_c, 13, 55, 54
15, 23879, Note_on_c, 13, 52, 0
15, 23879, Note_on_c, 13, 55, 0
15, 23880, Note_on_c, 13, 55, 56
15, 23880, Note_on_c, 13, 52, 56
15, 23919, Note_on_c, 13, 55, 0
15, 23919, Note_on_c, 13, 52, 0
15, 23920, Note_on_c, 13, 55, 57
15, 23920, Note_on_c, 13, 52, 57
15, 23959, Note_on_c, 13, 55, 0
15, 23959, Note_on_c, 13, 52, 0
15, 23960, Note_on_c, 13, 55, 58
15, 23960, Note_on_c, 13, 52, 58
15, 23999, Note_on_c, 13, 55, 0
15, 23999, Note_on_c, 13, 52, 0
15, 24000, Note_on_c, 13, 55, 60
15, 24000, Note_on_c, 13, 52, 60
15, 24039, Note_on_c, 13, 55, 0
15, 24039, Note_on_c, 13, 52, 0
15, 24040, Note_on_c, 13, 55, 61
15, 24040, Note_on_c, 13, 52, 61
15, 24079, Note_on_c, 13, 55, 0
15, 24079, Note_on_c, 13, 52, 0
15, 24080, Note_on_c, 13, 52, 62
15, 24080, Note_on_c, 13, 55, 62
15, 24119, Note_on_c, 13, 52, 0
15, 24119, Note_on_c, 13, 55, 0
15, 24120, Note_on_c, 13, 52, 64
15, 24120, Note_on_c, 13, 55, 64
15, 24159, Note_on_c, 13, 52, 0
15, 24159, Note_on_c, 13, 55, 0
15, 24160, Note_on_c, 13, 55, 65
15, 24160, Note_on_c, 13, 52, 65
15, 24199, Note_on_c, 13, 55, 0
15, 24199, Note_on_c, 13, 52, 0
15, 24200, Note_on_c, 13, 52, 66
15, 24200, Note_on_c, 13, 55, 66
15, 24239, Note_on_c, 13, 52, 0
15, 24239, Note_on_c, 13, 55, 0
15, 24240, Note_on_c, 13, 55, 68
15, 24240, Note_on_c, 13, 52, 68
15, 24279, Note_on_c, 13, 55, 0
15, 24279, Note_on_c, 13, 52, 0
15, 24280, Note_on_c, 13, 52, 69
15, 24280, Note_on_c, 13, 55, 69
15, 24319, Note_on_c, 13, 52, 0
15, 24319, Note_on_c, 13, 55, 0
15, 24320, Note_on_c, 13, 55, 70
15, 24320, Note_on_c, 13, 52, 70
15, 24359, Note_on_c, 13, 55, 0
15, 24359, Note_on_c, 13, 52, 0
15, 24360, Note_on_c, 13, 55, 72
15, 24360, Note_on_c, 13, 52, 72
15, 24399, Note_on_c, 13, 55, 0
15, 24399, Note_on_c, 13, 52, 0
15, 24400, Note_on_c, 13, 55, 73
15, 24400, Note_on_c, 13, 52, 73
15, 24439, Note_on_c, 13, 55, 0
15, 24439, Note_on_c, 13, 52, 0
15, 24440, Note_on_c, 13, 52, 74
15, 24440, Note_on_c, 13, 55, 74
15, 24479, Note_on_c, 13, 52, 0
15, 24479, Note_on_c, 13, 55, 0
15, 24480, Note_on_c, 13, 50, 76
15, 24540, Control_c, 13, 11, 80
15, 24945, Control_c, 13, 11, 127
15, 25169, Note_on_c, 13, 50, 0
15, 25200, Note_on_c, 13, 50, 52
15, 25259, Note_on_c, 13, 50, 0
15, 25260, Note_on_c, 13, 49, 52
15, 25319, Note_on_c, 13, 49, 0
15, 25320, Note_on_c, 13, 50, 52
15, 25379, Note_on_c, 13, 50, 0
15, 25380, Note_on_c, 13, 52, 52
15, 25431, Note_on_c, 13, 52, 0
15, 25440, Note_on_c, 13, 54, 52
15, 26129, Note_on_c, 13, 54, 0
15, 26160, Note_on_c, 13, 54, 52
15, 26219, Note_on_c, 13, 54, 0
15, 26220, Note_on_c, 13, 52, 52
15, 26279, Note_on_c, 13, 52, 0
15, 26280, Note_on_c, 13, 54, 52
15, 26339, Note_on_c, 13, 54, 0
15, 26340, Note_on_c, 13, 55, 52
15, 26399, Note_on_c, 13, 55, 0
15, 26400, Note_on_c, 13, 57, 52
15, 26579, Note_on_c, 13, 57, 0
15, 26640, Note_on_c, 13, 57, 52
15, 26819, Note_on_c, 13, 57, 0
15, 26880, Note_on_c, 13, 54, 52
15, 27059, Note_on_c, 13, 54, 0
15, 27120, Note_on_c, 13, 54, 52
15, 27299, Note_on_c, 13, 54, 0
15, 27360, Note_on_c, 13, 50, 52
15, 27464, Note_on_c, 13, 50, 0
15, 27480, Note_on_c, 13, 66, 54
15, 27584, Note_on_c, 13, 66, 0
15, 27600, Note_on_c, 13, 66, 56
15, 27704, Note_on_c, 13, 66, 0
15, 27720, Note_on_c, 13, 66, 58
15, 27824, Note_on_c, 13, 66, 0
15, 27840, Note_on_c, 13, 66, 60
15, 27944, Note_on_c, 13, 66, 0
15, 27960, Note_on_c, 13, 66, 62
15, 28064, Note_on_c, 13, 66, 0
15, 28080, Note_on_c, 13, 66, 64
15, 28184, Note_on_c, 13, 66, 0
15, 28200, Note_on_c, 13, 66, 66
15, 28304, Note_on_c, 13, 66, 0
15, 28320, Note_on_c, 13, 55, 52
15, 29024, Note_on_c, 13, 55, 0
15, 29040, Note_on_c, 13, 55, 52
15, 29099, Note_on_c, 13, 55, 0
15, 29100, Note_on_c, 13, 54, 52
15, 29159, Note_on_c, 13, 54, 0
15, 29160, Note_on_c, 13, 55, 52
15, 29219, Note_on_c, 13, 55, 0
15, 29220, Note_on_c, 13, 57, 52
15, 29271, Note_on_c, 13, 57, 0
15, 29280, Note_on_c, 13, 59, 52
15, 29984, Note_on_c, 13, 59, 0
15, 30000, Note_on_c, 13, 59, 52
15, 30059, Note_on_c, 13, 59, 0
15, 30060, Note_on_c, 13, 58, 52
15, 30119, Note_on_c, 13, 58, 0
15, 30120, Note_on_c, 13, 59, 52
15, 30179, Note_on_c, 13, 59, 0
15, 30180, Note_on_c, 13, 61, 52
15, 30231, Note_on_c, 13, 61, 0
15, 30240, Note_on_c, 13, 62, 52
15, 30419, Note_on_c, 13, 62, 0
15, 30480, Note_on_c, 13, 62, 52
15, 30659, Note_on_c, 13, 62, 0
15, 30720, Note_on_c, 13, 59, 52
15, 30899, Note_on_c, 13, 59, 0
15, 30960, Note_on_c, 13, 59, 52
15, 31139, Note_on_c, 13, 59, 0
15, 31200, Note_on_c, 13, 56, 52
15, 31439, Note_on_c, 13, 56, 0
15, 32160, Note_on_c, 13, 62, 52
15, 32339, Note_on_c, 13, 62, 0
15, 32400, Note_on_c, 13, 62, 52
15, 32579, Note_on_c, 13, 62, 0
15, 32640, Note_on_c, 13, 60, 52
15, 32819, Note_on_c, 13, 60, 0
15, 32880, Note_on_c, 13, 60, 52
15, 33059, Note_on_c, 13, 60, 0
15, 33120, Note_on_c, 13, 57, 52
15, 33299, Note_on_c, 13, 57, 0
15, 34080, Control_c, 13, 11, 80
15, 34200, Note_on_c, 13, 59, 76
15, 34200, Control_c, 13, 11, 82
15, 34289, Note_on_c, 13, 59, 0
15, 34320, Control_c, 13, 11, 84
15, 34320, Note_on_c, 13, 59, 76
15, 34409, Note_on_c, 13, 59, 0
15, 34440, Control_c, 13, 11, 86
15, 34440, Note_on_c, 13, 59, 76
15, 34529, Note_on_c, 13, 59, 0
15, 34560, Control_c, 13, 11, 88
15, 34680, Note_on_c, 13, 57, 76
15, 34680, Control_c, 13, 11, 90
15, 34680, Note_on_c, 13, 60, 76
15, 34769, Note_on_c, 13, 57, 0
15, 34769, Note_on_c, 13, 60, 0
15, 34800, Note_on_c, 13, 57, 76
15, 34800, Note_on_c, 13, 60, 76
15, 34800, Control_c, 13, 11, 92
15, 34889, Note_on_c, 13, 57, 0
15, 34889, Note_on_c, 13, 60, 0
15, 34920, Note_on_c, 13, 57, 76
15, 34920, Control_c, 13, 11, 94
15, 34920, Note_on_c, 13, 60, 76
15, 35009, Note_on_c, 13, 57, 0
15, 35009, Note_on_c, 13, 60, 0
15, 35040, Control_c, 13, 11, 96
15, 35160, Control_c, 13, 11, 98
15, 35160, Note_on_c, 13, 55, 76
15, 35249, Note_on_c, 13, 55, 0
15, 35280, Note_on_c, 13, 55, 76
15, 35280, Control_c, 13, 11, 100
15, 35369, Note_on_c, 13, 55, 0
15, 35400, Control_c, 13, 11, 102
15, 35400, Note_on_c, 13, 55, 76
15, 35489, Note_on_c, 13, 55, 0
15, 35520, Control_c, 13, 11, 104
15, 35640, Note_on_c, 13, 54, 76
15, 35640, Control_c, 13, 11, 105
15, 35640, Note_on_c, 13, 57, 76
15, 35729, Note_on_c, 13, 54, 0
15, 35729, Note_on_c, 13, 57, 0
15, 35760, Note_on_c, 13, 54, 76
15, 35760, Control_c, 13, 11, 107
15, 35760, Note_on_c, 13, 57, 76
15, 35849, Note_on_c, 13, 54, 0
15, 35849, Note_on_c, 13, 57, 0
15, 35880, Note_on_c, 13, 54, 76
15, 35880, Note_on_c, 13, 57, 76
15, 35880, Control_c, 13, 11, 109
15, 35969, Note_on_c, 13, 54, 0
15, 35969, Note_on_c, 13, 57, 0
15, 36000, Note_on_c, 13, 55, 76
15, 36000, Control_c, 13, 11, 111
15, 36119, Note_on_c, 13, 55, 0
15, 36120, Control_c, 13, 11, 113
15, 36120, Note_on_c, 13, 59, 76
15, 36239, Note_on_c, 13, 59, 0
15, 36240, Note_on_c, 13, 55, 76
15, 36240, Control_c, 13, 11, 115
15, 36359, Note_on_c, 13, 55, 0
15, 36360, Control_c, 13, 11, 117
15, 36360, Note_on_c, 13, 59, 76
15, 36464, Note_on_c, 13, 59, 0
15, 36480, Control_c, 13, 11, 119
15, 36480, Note_on_c, 13, 52, 76
15, 36599, Note_on_c, 13, 52, 0
15, 36600, Note_on_c, 13, 55, 76
15, 36600, Control_c, 13, 11, 121
15, 36719, Note_on_c, 13, 55, 0
15, 36720, Control_c, 13, 11, 123
15, 36720, Note_on_c, 13, 52, 76
15, 36839, Note_on_c, 13, 52, 0
15, 36840, Note_on_c, 13, 55, 76
15, 36840, Control_c, 13, 11, 127
15, 36944, Note_on_c, 13, 55, 0
15, 36960, Note_on_c, 13, 54, 76
15, 37199, Note_on_c, 13, 54, 0
15, 37680, Note_on_c, 13, 62, 76
15, 37739, Note_on_c, 13, 62, 0
15, 37740, Note_on_c, 13, 61, 76
15, 37799, Note_on_c, 13, 61, 0
15, 37800, Note_on_c, 13, 62, 76
15, 37859, Note_on_c, 13, 62, 0
15, 37860, Note_on_c, 13, 64, 76
15, 37911, Note_on_c, 13, 64, 0
15, 37920, Note_on_c, 13, 66, 84
15, 38624, Note_on_c, 13, 66, 0
15, 38640, Note_on_c, 13, 66, 76
15, 38699, Note_on_c, 13, 66, 0
15, 38700, Note_on_c, 13, 64, 76
15, 38759, Note_on_c, 13, 64, 0
15, 38760, Note_on_c, 13, 66, 76
15, 38819, Note_on_c, 13, 66, 0
15, 38820, Note_on_c, 13, 67, 76
15, 38871, Note_on_c, 13, 67, 0
15, 38880, Note_on_c, 13, 69, 76
15, 39059, Note_on_c, 13, 69, 0
15, 39120, Note_on_c, 13, 69, 76
15, 39179, Note_on_c, 13, 69, 0
15, 39180, Note_on_c, 13, 68, 76
15, 39239, Note_on_c, 13, 68, 0
15, 39240, Note_on_c, 13, 69, 76
15, 39299, Note_on_c, 13, 69, 0
15, 39300, Note_on_c, 13, 71, 76
15, 39351, Note_on_c, 13, 71, 0
15, 39360, Note_on_c, 13, 72, 84
15, 40064, Note_on_c, 13, 72, 0
15, 40080, Note_on_c, 13, 69, 76
15, 40259, Note_on_c, 13, 69, 0
15, 40320, Note_on_c, 13, 66, 76
15, 40499, Note_on_c, 13, 66, 0
15, 40560, Note_on_c, 13, 60, 76
15, 40739, Note_on_c, 13, 60, 0
15, 40800, Note_on_c, 13, 59, 76
15, 40979, Note_on_c, 13, 59, 0
15, 41040, Note_on_c, 13, 62, 76
15, 41219, Note_on_c, 13, 62, 0
15, 41280, Note_on_c, 13, 67, 76
15, 41459, Note_on_c, 13, 67, 0
15, 41520, Note_on_c, 13, 71, 76
15, 41699, Note_on_c, 13, 71, 0
15, 41760, Note_on_c, 13, 61, 76
15, 41939, Note_on_c, 13, 61, 0
15, 42000, Note_on_c, 13, 64, 76
15, 42179, Note_on_c, 13, 64, 0
15, 42240, Note_on_c, 13, 69, 76
15, 42419, Note_on_c, 13, 69, 0
15, 42480, Note_on_c, 13, 73, 76
15, 42659, Note_on_c, 13, 73, 0
15, 42720, Note_on_c, 13, 62, 76
15, 42899, Note_on_c, 13, 62, 0
15, 42960, Note_on_c, 13, 69, 76
15, 43019, Note_on_c, 13, 69, 0
15, 43020, Note_on_c, 13, 68, 76
15, 43079, Note_on_c, 13, 68, 0
15, 43080, Note_on_c, 13, 69, 76
15, 43139, Note_on_c, 13, 69, 0
15, 43140, Note_on_c, 13, 71, 76
15, 43191, Note_on_c, 13, 71, 0
15, 43200, Note_on_c, 13, 72, 84
15, 43904, Note_on_c, 13, 72, 0
15, 43920, Note_on_c, 13, 69, 76
15, 44099, Note_on_c, 13, 69, 0
15, 44160, Note_on_c, 13, 66, 76
15, 44339, Note_on_c, 13, 66, 0
15, 44400, Note_on_c, 13, 60, 76
15, 44579, Note_on_c, 13, 60, 0
15, 44640, Note_on_c, 13, 58, 76
15, 44819, Note_on_c, 13, 58, 0
15, 44880, Note_on_c, 13, 62, 76
15, 45059, Note_on_c, 13, 62, 0
15, 45120, Note_on_c, 13, 67, 76
15, 45299, Note_on_c, 13, 67, 0
15, 45360, Note_on_c, 13, 70, 76
15, 45539, Note_on_c, 13, 70, 0
15, 45600, Note_on_c, 13, 61, 76
15, 45779, Note_on_c, 13, 61, 0
15, 45840, Note_on_c, 13, 64, 76
15, 46019, Note_on_c, 13, 64, 0
15, 46080, Note_on_c, 13, 69, 76
15, 46259, Note_on_c, 13, 69, 0
15, 46320, Note_on_c, 13, 73, 76
15, 46499, Note_on_c, 13, 73, 0
15, 46560, Note_on_c, 13, 62, 84
15, 47264, Note_on_c, 13, 62, 0
15, 47280, Note_on_c, 13, 62, 76
15, 47339, Note_on_c, 13, 62, 0
15, 47340, Note_on_c, 13, 61, 76
15, 47399, Note_on_c, 13, 61, 0
15, 47400, Note_on_c, 13, 62, 76
15, 47459, Note_on_c, 13, 62, 0
15, 47460, Note_on_c, 13, 64, 76
15, 47511, Note_on_c, 13, 64, 0
15, 47520, Note_on_c, 13, 65, 76
15, 47699, Note_on_c, 13, 65, 0
15, 47760, Note_on_c, 13, 65, 76
15, 47939, Note_on_c, 13, 65, 0
15, 48000, Note_on_c, 13, 62, 76
15, 48179, Note_on_c, 13, 62, 0
15, 48240, Note_on_c, 13, 62, 76
15, 48419, Note_on_c, 13, 62, 0
15, 48480, Note_on_c, 13, 58, 84
15, 49184, Note_on_c, 13, 58, 0
15, 49200, Note_on_c, 13, 58, 76
15, 49259, Note_on_c, 13, 58, 0
15, 49260, Note_on_c, 13, 57, 76
15, 49319, Note_on_c, 13, 57, 0
15, 49320, Note_on_c, 13, 58, 76
15, 49379, Note_on_c, 13, 58, 0
15, 49380, Note_on_c, 13, 60, 76
15, 49431, Note_on_c, 13, 60, 0
15, 49440, Note_on_c, 13, 62, 76
15, 49619, Note_on_c, 13, 62, 0
15, 49680, Note_on_c, 13, 62, 76
15, 49859, Note_on_c, 13, 62, 0
15, 49920, Note_on_c, 13, 58, 76
15, 50099, Note_on_c, 13, 58, 0
15, 50160, Note_on_c, 13, 58, 76
15, 50339, Note_on_c, 13, 58, 0
15, 50400, Note_on_c, 13, 56, 84
15, 50489, Note_on_c, 13, 56, 0
15, 50520, Note_on_c, 13, 64, 84
15, 50609, Note_on_c, 13, 64, 0
15, 50640, Note_on_c, 13, 68, 84
15, 50729, Note_on_c, 13, 68, 0
15, 50760, Note_on_c, 13, 64, 84
15, 50849, Note_on_c, 13, 64, 0
15, 50880, Note_on_c, 13, 68, 84
15, 50969, Note_on_c, 13, 68, 0
15, 51000, Note_on_c, 13, 64, 84
15, 51089, Note_on_c, 13, 64, 0
15, 51120, Note_on_c, 13, 68, 84
15, 51209, Note_on_c, 13, 68, 0
15, 51240, Note_on_c, 13, 64, 84
15, 51329, Note_on_c, 13, 64, 0
15, 51360, Note_on_c, 13, 69, 84
15, 51449, Note_on_c, 13, 69, 0
15, 51480, Note_on_c, 13, 64, 84
15, 51569, Note_on_c, 13, 64, 0
15, 51600, Note_on_c, 13, 69, 84
15, 51689, Note_on_c, 13, 69, 0
15, 51720, Note_on_c, 13, 64, 84
15, 51809, Note_on_c, 13, 64, 0
15, 51840, Note_on_c, 13, 72, 84
15, 51929, Note_on_c, 13, 72, 0
15, 51960, Note_on_c, 13, 64, 84
15, 52049, Note_on_c, 13, 64, 0
15, 52080, Note_on_c, 13, 72, 84
15, 52169, Note_on_c, 13, 72, 0
15, 52200, Note_on_c, 13, 64, 84
15, 52289, Note_on_c, 13, 64, 0
15, 52320, Note_on_c, 13, 71, 84
15, 52409, Note_on_c, 13, 71, 0
15, 52440, Note_on_c, 13, 64, 84
15, 52529, Note_on_c, 13, 64, 0
15, 52560, Note_on_c, 13, 71, 84
15, 52649, Note_on_c, 13, 71, 0
15, 52680, Note_on_c, 13, 64, 84
15, 52769, Note_on_c, 13, 64, 0
15, 52800, Note_on_c, 13, 74, 84
15, 52889, Note_on_c, 13, 74, 0
15, 52920, Note_on_c, 13, 64, 84
15, 53009, Note_on_c, 13, 64, 0
15, 53040, Note_on_c, 13, 74, 84
15, 53129, Note_on_c, 13, 74, 0
15, 53160, Note_on_c, 13, 64, 84
15, 53249, Note_on_c, 13, 64, 0
15, 53280, Note_on_c, 13, 72, 84
15, 53369, Note_on_c, 13, 72, 0
15, 53400, Note_on_c, 13, 64, 84
15, 53489, Note_on_c, 13, 64, 0
15, 53520, Note_on_c, 13, 72, 84
15, 53609, Note_on_c, 13, 72, 0
15, 53640, Note_on_c, 13, 64, 84
15, 53729, Note_on_c, 13, 64, 0
15, 53760, Note_on_c, 13, 69, 84
15, 53849, Note_on_c, 13, 69, 0
15, 53880, Note_on_c, 13, 64, 84
15, 53969, Note_on_c, 13, 64, 0
15, 54000, Note_on_c, 13, 69, 84
15, 54089, Note_on_c, 13, 69, 0
15, 54120, Note_on_c, 13, 64, 84
15, 54209, Note_on_c, 13, 64, 0
15, 54240, Note_on_c, 13, 68, 84
15, 54329, Note_on_c, 13, 68, 0
15, 54360, Note_on_c, 13, 64, 84
15, 54449, Note_on_c, 13, 64, 0
15, 54480, Note_on_c, 13, 68, 84
15, 54569, Note_on_c, 13, 68, 0
15, 54600, Note_on_c, 13, 64, 84
15, 54689, Note_on_c, 13, 64, 0
15, 54720, Note_on_c, 13, 68, 84
15, 54809, Note_on_c, 13, 68, 0
15, 54840, Note_on_c, 13, 64, 84
15, 54929, Note_on_c, 13, 64, 0
15, 54960, Note_on_c, 13, 68, 84
15, 55049, Note_on_c, 13, 68, 0
15, 55080, Note_on_c, 13, 64, 84
15, 55169, Note_on_c, 13, 64, 0
15, 55200, Note_on_c, 13, 69, 84
15, 55289, Note_on_c, 13, 69, 0
15, 55320, Note_on_c, 13, 64, 84
15, 55409, Note_on_c, 13, 64, 0
15, 55440, Note_on_c, 13, 69, 84
15, 55529, Note_on_c, 13, 69, 0
15, 55560, Note_on_c, 13, 64, 84
15, 55649, Note_on_c, 13, 64, 0
15, 55680, Note_on_c, 13, 72, 84
15, 55769, Note_on_c, 13, 72, 0
15, 55800, Note_on_c, 13, 64, 84
15, 55889, Note_on_c, 13, 64, 0
15, 55920, Note_on_c, 13, 72, 84
15, 56009, Note_on_c, 13, 72, 0
15, 56040, Note_on_c, 13, 64, 84
15, 56129, Note_on_c, 13, 64, 0
15, 56160, Note_on_c, 13, 71, 84
15, 56264, Note_on_c, 13, 71, 0
15, 56280, Note_on_c, 13, 64, 84
15, 56384, Note_on_c, 13, 64, 0
15, 56400, Note_on_c, 13, 76, 92
15, 56984, Note_on_c, 13, 76, 0
15, 57000, Note_on_c, 13, 74, 84
15, 57104, Note_on_c, 13, 74, 0
15, 57120, Note_on_c, 13, 72, 84
15, 57224, Note_on_c, 13, 72, 0
15, 57240, Note_on_c, 13, 74, 84
15, 57344, Note_on_c, 13, 74, 0
15, 57360, Note_on_c, 13, 72, 84
15, 57464, Note_on_c, 13, 72, 0
15, 57480, Note_on_c, 13, 71, 84
15, 57584, Note_on_c, 13, 71, 0
15, 57600, Note_on_c, 13, 69, 84
15, 57704, Note_on_c, 13, 69, 0
15, 57720, Note_on_c, 13, 67, 84
15, 57824, Note_on_c, 13, 67, 0
15, 57840, Note_on_c, 13, 66, 84
15, 57944, Note_on_c, 13, 66, 0
15, 57960, Note_on_c, 13, 65, 84
15, 58064, Note_on_c, 13, 65, 0
15, 58080, Note_on_c, 13, 64, 92
15, 58439, Note_on_c, 13, 64, 0
15, 58440, Note_on_c, 13, 65, 84
15, 58544, Note_on_c, 13, 65, 0
15, 58560, Note_on_c, 13, 64, 92
15, 58919, Note_on_c, 13, 64, 0
15, 58920, Note_on_c, 13, 65, 84
15, 59024, Note_on_c, 13, 65, 0
15, 59040, Note_on_c, 13, 64, 84
15, 59129, Note_on_c, 13, 64, 0
15, 59160, Note_on_c, 13, 65, 84
15, 59249, Note_on_c, 13, 65, 0
15, 59280, Note_on_c, 13, 64, 84
15, 59369, Note_on_c, 13, 64, 0
15, 59400, Note_on_c, 13, 65, 84
15, 59489, Note_on_c, 13, 65, 0
15, 59520, Note_on_c, 13, 64, 84
15, 59609, Note_on_c, 13, 64, 0
15, 59640, Note_on_c, 13, 65, 84
15, 59729, Note_on_c, 13, 65, 0
15, 59760, Note_on_c, 13, 64, 84
15, 59849, Note_on_c, 13, 64, 0
15, 59880, Note_on_c, 13, 65, 84
15, 59969, Note_on_c, 13, 65, 0
15, 60000, Note_on_c, 13, 64, 92
15, 60704, Note_on_c, 13, 64, 0
15, 60720, Note_on_c, 13, 63, 84
15, 60899, Note_on_c, 13, 63, 0
15, 60960, Note_on_c, 13, 62, 84
15, 61139, Note_on_c, 13, 62, 0
15, 61200, Note_on_c, 13, 61, 84
15, 61379, Note_on_c, 13, 61, 0
15, 61440, Note_on_c, 13, 59, 84
15, 61619, Note_on_c, 13, 59, 0
15, 61680, Note_on_c, 13, 64, 84
15, 61859, Note_on_c, 13, 64, 0
15, 61920, Note_on_c, 13, 57, 52
15, 62024, Note_on_c, 13, 57, 0
15, 62040, Note_on_c, 13, 69, 52
15, 62144, Note_on_c, 13, 69, 0
15, 62160, Note_on_c, 13, 69, 52
15, 62264, Note_on_c, 13, 69, 0
15, 62280, Note_on_c, 13, 69, 52
15, 62384, Note_on_c, 13, 69, 0
15, 62400, Note_on_c, 13, 57, 52
15, 62504, Note_on_c, 13, 57, 0
15, 62520, Note_on_c, 13, 69, 52
15, 62624, Note_on_c, 13, 69, 0
15, 62640, Note_on_c, 13, 69, 52
15, 62744, Note_on_c, 13, 69, 0
15, 62760, Note_on_c, 13, 69, 52
15, 62864, Note_on_c, 13, 69, 0
15, 62880, Note_on_c, 13, 57, 52
15, 62984, Note_on_c, 13, 57, 0
15, 63000, Note_on_c, 13, 69, 52
15, 63104, Note_on_c, 13, 69, 0
15, 63120, Note_on_c, 13, 69, 52
15, 63224, Note_on_c, 13, 69, 0
15, 63240, Note_on_c, 13, 69, 52
15, 63344, Note_on_c, 13, 69, 0
15, 63360, Note_on_c, 13, 69, 52
15, 63464, Note_on_c, 13, 69, 0
15, 63480, Note_on_c, 13, 69, 52
15, 63584, Note_on_c, 13, 69, 0
15, 63600, Note_on_c, 13, 69, 52
15, 63704, Note_on_c, 13, 69, 0
15, 63720, Note_on_c, 13, 69, 52
15, 63824, Note_on_c, 13, 69, 0
15, 63840, Note_on_c, 13, 69, 52
15, 63944, Note_on_c, 13, 69, 0
15, 63960, Note_on_c, 13, 69, 52
15, 64064, Note_on_c, 13, 69, 0
15, 64080, Note_on_c, 13, 69, 52
15, 64184, Note_on_c, 13, 69, 0
15, 64200, Note_on_c, 13, 69, 52
15, 64304, Note_on_c, 13, 69, 0
15, 64320, Note_on_c, 13, 69, 52
15, 64424, Note_on_c, 13, 69, 0
15, 64440, Note_on_c, 13, 69, 52
15, 64544, Note_on_c, 13, 69, 0
15, 64560, Note_on_c, 13, 69, 52
15, 64664, Note_on_c, 13, 69, 0
15, 64680, Note_on_c, 13, 69, 52
15, 64784, Note_on_c, 13, 69, 0
15, 64800, Note_on_c, 13, 69, 52
15, 64904, Note_on_c, 13, 69, 0
15, 64920, Note_on_c, 13, 69, 52
15, 65024, Note_on_c, 13, 69, 0
15, 65040, Note_on_c, 13, 69, 52
15, 65144, Note_on_c, 13, 69, 0
15, 65160, Note_on_c, 13, 69, 52
15, 65264, Note_on_c, 13, 69, 0
15, 65280, Note_on_c, 13, 69, 52
15, 65384, Note_on_c, 13, 69, 0
15, 65400, Note_on_c, 13, 69, 52
15, 65504, Note_on_c, 13, 69, 0
15, 65520, Note_on_c, 13, 69, 52
15, 65624, Note_on_c, 13, 69, 0
15, 65640, Note_on_c, 13, 69, 52
15, 65744, Note_on_c, 13, 69, 0
15, 65760, Note_on_c, 13, 54, 84
15, 65864, Note_on_c, 13, 54, 0
15, 65880, Note_on_c, 13, 66, 84
15, 65984, Note_on_c, 13, 66, 0
15, 66000, Note_on_c, 13, 61, 84
15, 66104, Note_on_c, 13, 61, 0
15, 66120, Note_on_c, 13, 57, 84
15, 66224, Note_on_c, 13, 57, 0
15, 66240, Note_on_c, 13, 54, 84
15, 66344, Note_on_c, 13, 54, 0
15, 66360, Note_on_c, 13, 66, 84
15, 66464, Note_on_c, 13, 66, 0
15, 66480, Note_on_c, 13, 61, 84
15, 66584, Note_on_c, 13, 61, 0
15, 66600, Note_on_c, 13, 57, 84
15, 66704, Note_on_c, 13, 57, 0
15, 66720, Note_on_c, 13, 54, 84
15, 66824, Note_on_c, 13, 54, 0
15, 66840, Note_on_c, 13, 66, 84
15, 66944, Note_on_c, 13, 66, 0
15, 66960, Note_on_c, 13, 61, 84
15, 67064, Note_on_c, 13, 61, 0
15, 67080, Note_on_c, 13, 57, 84
15, 67184, Note_on_c, 13, 57, 0
15, 67200, Note_on_c, 13, 54, 84
15, 67304, Note_on_c, 13, 54, 0
15, 67320, Note_on_c, 13, 66, 84
15, 67424, Note_on_c, 13, 66, 0
15, 67440, Note_on_c, 13, 68, 84
15, 67544, Note_on_c, 13, 68, 0
15, 67560, Note_on_c, 13, 69, 84
15, 67664, Note_on_c, 13, 69, 0
15, 67680, Note_on_c, 13, 59, 92
15, 67784, Note_on_c, 13, 59, 0
15, 67800, Note_on_c, 13, 71, 84
15, 67904, Note_on_c, 13, 71, 0
15, 67920, Note_on_c, 13, 71, 84
15, 68024, Note_on_c, 13, 71, 0
15, 68040, Note_on_c, 13, 71, 84
15, 68144, Note_on_c, 13, 71, 0
15, 68160, Note_on_c, 13, 59, 92
15, 68264, Note_on_c, 13, 59, 0
15, 68280, Note_on_c, 13, 71, 84
15, 68384, Note_on_c, 13, 71, 0
15, 68400, Note_on_c, 13, 71, 84
15, 68504, Note_on_c, 13, 71, 0
15, 68520, Note_on_c, 13, 71, 84
15, 68624, Note_on_c, 13, 71, 0
15, 68640, Note_on_c, 13, 64, 84
15, 68879, Note_on_c, 13, 64, 0
15, 69600, Note_on_c, 13, 57, 52
15, 69704, Note_on_c, 13, 57, 0
15, 69720, Note_on_c, 13, 69, 52
15, 69824, Note_on_c, 13, 69, 0
15, 69840, Note_on_c, 13, 69, 52
15, 69944, Note_on_c, 13, 69, 0
15, 69960, Note_on_c, 13, 69, 52
15, 70064, Note_on_c, 13, 69, 0
15, 70080, Note_on_c, 13, 57, 52
15, 70184, Note_on_c, 13, 57, 0
15, 70200, Note_on_c, 13, 69, 52
15, 70304, Note_on_c, 13, 69, 0
15, 70320, Note_on_c, 13, 69, 52
15, 70424, Note_on_c, 13, 69, 0
15, 70440, Note_on_c, 13, 69, 52
15, 70544, Note_on_c, 13, 69, 0
15, 70560, Note_on_c, 13, 57, 52
15, 70664, Note_on_c, 13, 57, 0
15, 70680, Note_on_c, 13, 69, 52
15, 70784, Note_on_c, 13, 69, 0
15, 70800, Note_on_c, 13, 69, 52
15, 70904, Note_on_c, 13, 69, 0
15, 70920, Note_on_c, 13, 69, 52
15, 71024, Note_on_c, 13, 69, 0
15, 71040, Note_on_c, 13, 69, 52
15, 71144, Note_on_c, 13, 69, 0
15, 71160, Note_on_c, 13, 69, 52
15, 71264, Note_on_c, 13, 69, 0
15, 71280, Note_on_c, 13, 69, 52
15, 71384, Note_on_c, 13, 69, 0
15, 71400, Note_on_c, 13, 69, 52
15, 71504, Note_on_c, 13, 69, 0
15, 71520, Note_on_c, 13, 69, 52
15, 71624, Note_on_c, 13, 69, 0
15, 71640, Note_on_c, 13, 69, 52
15, 71744, Note_on_c, 13, 69, 0
15, 71760, Note_on_c, 13, 69, 52
15, 71864, Note_on_c, 13, 69, 0
15, 71880, Note_on_c, 13, 69, 52
15, 71984, Note_on_c, 13, 69, 0
15, 72000, Note_on_c, 13, 69, 52
15, 72104, Note_on_c, 13, 69, 0
15, 72120, Note_on_c, 13, 69, 52
15, 72224, Note_on_c, 13, 69, 0
15, 72240, Note_on_c, 13, 69, 52
15, 72344, Note_on_c, 13, 69, 0
15, 72360, Note_on_c, 13, 69, 52
15, 72464, Note_on_c, 13, 69, 0
15, 72480, Note_on_c, 13, 69, 52
15, 72584, Note_on_c, 13, 69, 0
15, 72600, Note_on_c, 13, 69, 52
15, 72704, Note_on_c, 13, 69, 0
15, 72720, Note_on_c, 13, 69, 52
15, 72824, Note_on_c, 13, 69, 0
15, 72840, Note_on_c, 13, 69, 52
15, 72944, Note_on_c, 13, 69, 0
15, 72960, Note_on_c, 13, 69, 52
15, 73079, Note_on_c, 13, 69, 0
15, 73440, Note_on_c, 13, 54, 84
15, 73544, Note_on_c, 13, 54, 0
15, 73560, Note_on_c, 13, 66, 84
15, 73664, Note_on_c, 13, 66, 0
15, 73680, Note_on_c, 13, 61, 84
15, 73784, Note_on_c, 13, 61, 0
15, 73800, Note_on_c, 13, 57, 84
15, 73904, Note_on_c, 13, 57, 0
15, 73920, Note_on_c, 13, 54, 84
15, 74024, Note_on_c, 13, 54, 0
15, 74040, Note_on_c, 13, 66, 84
15, 74144, Note_on_c, 13, 66, 0
15, 74160, Note_on_c, 13, 61, 84
15, 74264, Note_on_c, 13, 61, 0
15, 74280, Note_on_c, 13, 57, 84
15, 74384, Note_on_c, 13, 57, 0
15, 74400, Note_on_c, 13, 54, 84
15, 74504, Note_on_c, 13, 54, 0
15, 74520, Note_on_c, 13, 66, 84
15, 74624, Note_on_c, 13, 66, 0
15, 74640, Note_on_c, 13, 61, 84
15, 74744, Note_on_c, 13, 61, 0
15, 74760, Note_on_c, 13, 57, 84
15, 74864, Note_on_c, 13, 57, 0
15, 74880, Note_on_c, 13, 54, 84
15, 74984, Note_on_c, 13, 54, 0
15, 75000, Note_on_c, 13, 66, 84
15, 75104, Note_on_c, 13, 66, 0
15, 75120, Note_on_c, 13, 68, 84
15, 75224, Note_on_c, 13, 68, 0
15, 75240, Note_on_c, 13, 69, 84
15, 75344, Note_on_c, 13, 69, 0
15, 75360, Note_on_c, 13, 59, 92
15, 75464, Note_on_c, 13, 59, 0
15, 75480, Note_on_c, 13, 71, 84
15, 75584, Note_on_c, 13, 71, 0
15, 75600, Note_on_c, 13, 71, 84
15, 75704, Note_on_c, 13, 71, 0
15, 75720, Note_on_c, 13, 71, 84
15, 75824, Note_on_c, 13, 71, 0
15, 75840, Note_on_c, 13, 59, 92
15, 75944, Note_on_c, 13, 59, 0
15, 75960, Note_on_c, 13, 71, 84
15, 76064, Note_on_c, 13, 71, 0
15, 76080, Note_on_c, 13, 71, 84
15, 76184, Note_on_c, 13, 71, 0
15, 76200, Note_on_c, 13, 71, 84
15, 76304, Note_on_c, 13, 71, 0
15, 76320, Note_on_c, 13, 64, 92
15, 76904, Note_on_c, 13, 64, 0
15, 76920, Note_on_c, 13, 64, 84
15, 77039, Note_on_c, 13, 64, 0
15, 77040, Note_on_c, 13, 62, 84
15, 77159, Note_on_c, 13, 62, 0
15, 77160, Note_on_c, 13, 61, 84
15, 77264, Note_on_c, 13, 61, 0
15, 77280, Note_on_c, 13, 62, 92
15, 77864, Note_on_c, 13, 62, 0
15, 77880, Note_on_c, 13, 62, 84
15, 77999, Note_on_c, 13, 62, 0
15, 78000, Note_on_c, 13, 61, 84
15, 78119, Note_on_c, 13, 61, 0
15, 78120, Note_on_c, 13, 60, 84
15, 78224, Note_on_c, 13, 60, 0
15, 78240, Note_on_c, 13, 61, 92
15, 78824, Note_on_c, 13, 61, 0
15, 78840, Note_on_c, 13, 61, 84
15, 78959, Note_on_c, 13, 61, 0
15, 78960, Note_on_c, 13, 59, 84
15, 79079, Note_on_c, 13, 59, 0
15, 79080, Note_on_c, 13, 58, 84
15, 79184, Note_on_c, 13, 58, 0
15, 79200, Note_on_c, 13, 59, 92
15, 79784, Note_on_c, 13, 59, 0
15, 79800, Note_on_c, 13, 59, 84
15, 79919, Note_on_c, 13, 59, 0
15, 79920, Note_on_c, 13, 57, 84
15, 80039, Note_on_c, 13, 57, 0
15, 80040, Note_on_c, 13, 56, 84
15, 80144, Note_on_c, 13, 56, 0
15, 80160, Note_on_c, 13, 57, 92
15, 80249, Note_on_c, 13, 57, 0
15, 80280, Note_on_c, 13, 64, 84
15, 80399, Note_on_c, 13, 64, 0
15, 80400, Note_on_c, 13, 62, 84
15, 80519, Note_on_c, 13, 62, 0
15, 80520, Note_on_c, 13, 61, 84
15, 80624, Note_on_c, 13, 61, 0
15, 80640, Note_on_c, 13, 62, 92
15, 80729, Note_on_c, 13, 62, 0
15, 80760, Note_on_c, 13, 62, 84
15, 80879, Note_on_c, 13, 62, 0
15, 80880, Note_on_c, 13, 61, 84
15, 80999, Note_on_c, 13, 61, 0
15, 81000, Note_on_c, 13, 60, 84
15, 81104, Note_on_c, 13, 60, 0
15, 81120, Note_on_c, 13, 61, 92
15, 81209, Note_on_c, 13, 61, 0
15, 81240, Note_on_c, 13, 61, 84
15, 81359, Note_on_c, 13, 61, 0
15, 81360, Note_on_c, 13, 59, 84
15, 81479, Note_on_c, 13, 59, 0
15, 81480, Note_on_c, 13, 58, 84
15, 81584, Note_on_c, 13, 58, 0
15, 81600, Note_on_c, 13, 59, 92
15, 81689, Note_on_c, 13, 59, 0
15, 81720, Note_on_c, 13, 71, 84
15, 81839, Note_on_c, 13, 71, 0
15, 81840, Note_on_c, 13, 69, 84
15, 81959, Note_on_c, 13, 69, 0
15, 81960, Note_on_c, 13, 68, 84
15, 82064, Note_on_c, 13, 68, 0
15, 82080, Note_on_c, 13, 69, 92
15, 82169, Note_on_c, 13, 69, 0
15, 82200, Note_on_c, 13, 69, 84
15, 82319, Note_on_c, 13, 69, 0
15, 82320, Note_on_c, 13, 68, 84
15, 82439, Note_on_c, 13, 68, 0
15, 82440, Note_on_c, 13, 66, 84
15, 82544, Note_on_c, 13, 66, 0
15, 82560, Note_on_c, 13, 68, 92
15, 82649, Note_on_c, 13, 68, 0
15, 82680, Note_on_c, 13, 68, 84
15, 82799, Note_on_c, 13, 68, 0
15, 82800, Note_on_c, 13, 66, 84
15, 82919, Note_on_c, 13, 66, 0
15, 82920, Note_on_c, 13, 65, 84
15, 83024, Note_on_c, 13, 65, 0
15, 83040, Note_on_c, 13, 66, 92
15, 83129, Note_on_c, 13, 66, 0
15, 83160, Note_on_c, 13, 66, 84
15, 83279, Note_on_c, 13, 66, 0
15, 83280, Note_on_c, 13, 64, 84
15, 83399, Note_on_c, 13, 64, 0
15, 83400, Note_on_c, 13, 62, 84
15, 83504, Note_on_c, 13, 62, 0
15, 83520, Note_on_c, 13, 64, 92
15, 83609, Note_on_c, 13, 64, 0
15, 83640, Note_on_c, 13, 64, 84
15, 83759, Note_on_c, 13, 64, 0
15, 83760, Note_on_c, 13, 62, 84
15, 83879, Note_on_c, 13, 62, 0
15, 83880, Note_on_c, 13, 61, 84
15, 83984, Note_on_c, 13, 61, 0
15, 84000, Note_on_c, 13, 62, 84
15, 84179, Note_on_c, 13, 62, 0
15, 84960, Note_on_c, 13, 71, 84
15, 85139, Note_on_c, 13, 71, 0
15, 85920, Note_on_c, 13, 68, 84
15, 86099, Note_on_c, 13, 68, 0
15, 86400, Note_on_c, 13, 69, 84
15, 86579, Note_on_c, 13, 69, 0
15, 86880, Note_on_c, 13, 62, 84
15, 87059, Note_on_c, 13, 62, 0
15, 87360, Note_on_c, 13, 64, 84
15, 87539, Note_on_c, 13, 64, 0
15, 87840, Note_on_c, 13, 66, 84
15, 88079, Note_on_c, 13, 66, 0
15, 88800, Note_on_c, 13, 68, 84
15, 89039, Note_on_c, 13, 68, 0
15, 90240, Control_c, 13, 11, 80
15, 90480, Note_on_c, 13, 59, 68
15, 90539, Note_on_c, 13, 59, 0
15, 90540, Note_on_c, 13, 58, 68
15, 90599, Note_on_c, 13, 58, 0
15, 90600, Note_on_c, 13, 59, 68
15, 90659, Note_on_c, 13, 59, 0
15, 90660, Note_on_c, 13, 60, 68
15, 90711, Note_on_c, 13, 60, 0
15, 90720, Note_on_c, 13, 62, 68
15, 90899, Note_on_c, 13, 62, 0
15, 91440, Note_on_c, 13, 60, 68
15, 91499, Note_on_c, 13, 60, 0
15, 91500, Note_on_c, 13, 59, 68
15, 91559, Note_on_c, 13, 59, 0
15, 91560, Note_on_c, 13, 60, 68
15, 91619, Note_on_c, 13, 60, 0
15, 91620, Note_on_c, 13, 62, 68
15, 91671, Note_on_c, 13, 62, 0
15, 91680, Note_on_c, 13, 64, 68
15, 91859, Note_on_c, 13, 64, 0
15, 92400, Note_on_c, 13, 50, 68
15, 92459, Note_on_c, 13, 50, 0
15, 92460, Note_on_c, 13, 49, 68
15, 92519, Note_on_c, 13, 49, 0
15, 92520, Note_on_c, 13, 50, 68
15, 92579, Note_on_c, 13, 50, 0
15, 92580, Note_on_c, 13, 52, 68
15, 92631, Note_on_c, 13, 52, 0
15, 92640, Note_on_c, 13, 53, 68
15, 92640, Control_c, 13, 11, 80
15, 92760, Control_c, 13, 11, 82
15, 92819, Note_on_c, 13, 53, 0
15, 92880, Note_on_c, 13, 52, 68
15, 92880, Control_c, 13, 11, 84
15, 92939, Note_on_c, 13, 52, 0
15, 92940, Note_on_c, 13, 50, 68
15, 92999, Note_on_c, 13, 50, 0
15, 93000, Control_c, 13, 11, 86
15, 93000, Note_on_c, 13, 52, 68
15, 93059, Note_on_c, 13, 52, 0
15, 93060, Note_on_c, 13, 53, 68
15, 93111, Note_on_c, 13, 53, 0
15, 93120, Control_c, 13, 11, 88
15, 93120, Note_on_c, 13, 55, 68
15, 93240, Control_c, 13, 11, 90
15, 93299, Note_on_c, 13, 55, 0
15, 93360, Control_c, 13, 11, 92
15, 93360, Note_on_c, 13, 53, 68
15, 93419, Note_on_c, 13, 53, 0
15, 93420, Note_on_c, 13, 52, 68
15, 93479, Note_on_c, 13, 52, 0
15, 93480, Control_c, 13, 11, 94
15, 93480, Note_on_c, 13, 53, 68
15, 93539, Note_on_c, 13, 53, 0
15, 93540, Note_on_c, 13, 55, 68
15, 93591, Note_on_c, 13, 55, 0
15, 93600, Note_on_c, 13, 57, 68
15, 93600, Control_c, 13, 11, 96
15, 93720, Control_c, 13, 11, 98
15, 93779, Note_on_c, 13, 57, 0
15, 93840, Note_on_c, 13, 56, 68
15, 93840, Control_c, 13, 11, 100
15, 93899, Note_on_c, 13, 56, 0
15, 93900, Note_on_c, 13, 54, 68
15, 93959, Note_on_c, 13, 54, 0
15, 93960, Note_on_c, 13, 56, 68
15, 93960, Control_c, 13, 11, 102
15, 94019, Note_on_c, 13, 56, 0
15, 94020, Note_on_c, 13, 57, 68
15, 94071, Note_on_c, 13, 57, 0
15, 94080, Control_c, 13, 11, 104
15, 94080, Note_on_c, 13, 59, 68
15, 94200, Control_c, 13, 11, 105
15, 94259, Note_on_c, 13, 59, 0
15, 94320, Note_on_c, 13, 57, 68
15, 94320, Control_c, 13, 11, 107
15, 94379, Note_on_c, 13, 57, 0
15, 94380, Note_on_c, 13, 56, 68
15, 94439, Note_on_c, 13, 56, 0
15, 94440, Control_c, 13, 11, 109
15, 94440, Note_on_c, 13, 57, 68
15, 94499, Note_on_c, 13, 57, 0
15, 94500, Note_on_c, 13, 59, 68
15, 94551, Note_on_c, 13, 59, 0
15, 94560, Note_on_c, 13, 60, 68
15, 94560, Control_c, 13, 11, 111
15, 94680, Control_c, 13, 11, 113
15, 94739, Note_on_c, 13, 60, 0
15, 94800, Note_on_c, 13, 57, 68
15, 94800, Control_c, 13, 11, 115
15, 94859, Note_on_c, 13, 57, 0
15, 94860, Note_on_c, 13, 56, 68
15, 94919, Note_on_c, 13, 56, 0
15, 94920, Control_c, 13, 11, 117
15, 94920, Note_on_c, 13, 57, 68
15, 94979, Note_on_c, 13, 57, 0
15, 94980, Note_on_c, 13, 59, 68
15, 95031, Note_on_c, 13, 59, 0
15, 95040, Note_on_c, 13, 60, 68
15, 95040, Control_c, 13, 11, 119
15, 95160, Control_c, 13, 11, 121
15, 95219, Note_on_c, 13, 60, 0
15, 95280, Control_c, 13, 11, 123
15, 95280, Note_on_c, 13, 57, 68
15, 95339, Note_on_c, 13, 57, 0
15, 95340, Note_on_c, 13, 56, 68
15, 95399, Note_on_c, 13, 56, 0
15, 95400, Control_c, 13, 11, 125
15, 95400, Note_on_c, 13, 57, 68
15, 95459, Note_on_c, 13, 57, 0
15, 95460, Note_on_c, 13, 59, 68
15, 95511, Note_on_c, 13, 59, 0
15, 95520, Note_on_c, 13, 60, 76
15, 95520, Control_c, 13, 11, 127
15, 96464, Note_on_c, 13, 60, 0
15, 96480, Note_on_c, 13, 51, 76
15, 97424, Note_on_c, 13, 51, 0
15, 97440, Note_on_c, 13, 52, 84
15, 97491, Note_on_c, 13, 52, 0
15, 97500, Note_on_c, 13, 52, 84
15, 97551, Note_on_c, 13, 52, 0
15, 97560, Note_on_c, 13, 57, 84
15, 97611, Note_on_c, 13, 57, 0
15, 97620, Note_on_c, 13, 57, 84
15, 97671, Note_on_c, 13, 57, 0
15, 97680, Note_on_c, 13, 61, 84
15, 97731, Note_on_c, 13, 61, 0
15, 97740, Note_on_c, 13, 61, 84
15, 97791, Note_on_c, 13, 61, 0
15, 97800, Note_on_c, 13, 64, 84
15, 97851, Note_on_c, 13, 64, 0
15, 97860, Note_on_c, 13, 64, 84
15, 97911, Note_on_c, 13, 64, 0
15, 97920, Note_on_c, 13, 69, 84
15, 97971, Note_on_c, 13, 69, 0
15, 97980, Note_on_c, 13, 69, 84
15, 98031, Note_on_c, 13, 69, 0
15, 98040, Note_on_c, 13, 69, 84
15, 98091, Note_on_c, 13, 69, 0
15, 98100, Note_on_c, 13, 69, 84
15, 98151, Note_on_c, 13, 69, 0
15, 98160, Note_on_c, 13, 69, 84
15, 98211, Note_on_c, 13, 69, 0
15, 98220, Note_on_c, 13, 69, 84
15, 98271, Note_on_c, 13, 69, 0
15, 98280, Note_on_c, 13, 69, 84
15, 98331, Note_on_c, 13, 69, 0
15, 98340, Note_on_c, 13, 69, 84
15, 98391, Note_on_c, 13, 69, 0
15, 98400, Note_on_c, 13, 71, 84
15, 98451, Note_on_c, 13, 71, 0
15, 98460, Note_on_c, 13, 71, 84
15, 98511, Note_on_c, 13, 71, 0
15, 98520, Note_on_c, 13, 71, 84
15, 98571, Note_on_c, 13, 71, 0
15, 98580, Note_on_c, 13, 71, 84
15, 98631, Note_on_c, 13, 71, 0
15, 98640, Note_on_c, 13, 71, 84
15, 98691, Note_on_c, 13, 71, 0
15, 98700, Note_on_c, 13, 71, 84
15, 98751, Note_on_c, 13, 71, 0
15, 98760, Note_on_c, 13, 71, 84
15, 98811, Note_on_c, 13, 71, 0
15, 98820, Note_on_c, 13, 71, 84
15, 98871, Note_on_c, 13, 71, 0
15, 98880, Note_on_c, 13, 59, 84
15, 98931, Note_on_c, 13, 59, 0
15, 98940, Note_on_c, 13, 59, 84
15, 98991, Note_on_c, 13, 59, 0
15, 99000, Note_on_c, 13, 59, 84
15, 99051, Note_on_c, 13, 59, 0
15, 99060, Note_on_c, 13, 59, 84
15, 99111, Note_on_c, 13, 59, 0
15, 99120, Note_on_c, 13, 59, 84
15, 99171, Note_on_c, 13, 59, 0
15, 99180, Note_on_c, 13, 59, 84
15, 99231, Note_on_c, 13, 59, 0
15, 99240, Note_on_c, 13, 59, 84
15, 99291, Note_on_c, 13, 59, 0
15, 99300, Note_on_c, 13, 59, 84
15, 99351, Note_on_c, 13, 59, 0
15, 99360, Note_on_c, 13, 57, 76
15, 99411, Note_on_c, 13, 57, 0
15, 99420, Note_on_c, 13, 57, 52
15, 99420, Note_on_c, 13, 69, 52
15, 99471, Note_on_c, 13, 57, 0
15, 99471, Note_on_c, 13, 69, 0
15, 99480, Note_on_c, 13, 57, 52
15, 99480, Note_on_c, 13, 69, 52
15, 99531, Note_on_c, 13, 57, 0
15, 99531, Note_on_c, 13, 69, 0
15, 99540, Note_on_c, 13, 57, 52
15, 99540, Note_on_c, 13, 69, 52
15, 99591, Note_on_c, 13, 57, 0
15, 99591, Note_on_c, 13, 69, 0
15, 99600, Note_on_c, 13, 69, 52
15, 99600, Note_on_c, 13, 57, 52
15, 99651, Note_on_c, 13, 69, 0
15, 99651, Note_on_c, 13, 57, 0
15, 99660, Note_on_c, 13, 69, 52
15, 99660, Note_on_c, 13, 57, 52
15, 99711, Note_on_c, 13, 69, 0
15, 99711, Note_on_c, 13, 57, 0
15, 99720, Note_on_c, 13, 69, 52
15, 99720, Note_on_c, 13, 57, 52
15, 99771, Note_on_c, 13, 69, 0
15, 99771, Note_on_c, 13, 57, 0
15, 99780, Note_on_c, 13, 69, 52
15, 99780, Note_on_c, 13, 57, 52
15, 99831, Note_on_c, 13, 69, 0
15, 99831, Note_on_c, 13, 57, 0
15, 99840, Note_on_c, 13, 69, 52
15, 99840, Note_on_c, 13, 57, 52
15, 99891, Note_on_c, 13, 69, 0
15, 99891, Note_on_c, 13, 57, 0
15, 99900, Note_on_c, 13, 69, 52
15, 99900, Note_on_c, 13, 57, 52
15, 99951, Note_on_c, 13, 69, 0
15, 99951, Note_on_c, 13, 57, 0
15, 99960, Note_on_c, 13, 69, 52
15, 99960, Note_on_c, 13, 57, 52
15, 100011, Note_on_c, 13, 69, 0
15, 100011, Note_on_c, 13, 57, 0
15, 100020, Note_on_c, 13, 57, 52
15, 100020, Note_on_c, 13, 69, 52
15, 100071, Note_on_c, 13, 57, 0
15, 100071, Note_on_c, 13, 69, 0
15, 100080, Note_on_c, 13, 57, 52
15, 100080, Note_on_c, 13, 69, 52
15, 100131, Note_on_c, 13, 57, 0
15, 100131, Note_on_c, 13, 69, 0
15, 100140, Note_on_c, 13, 57, 52
15, 100140, Note_on_c, 13, 69, 52
15, 100191, Note_on_c, 13, 57, 0
15, 100191, Note_on_c, 13, 69, 0
15, 100200, Note_on_c, 13, 57, 52
15, 100200, Note_on_c, 13, 69, 52
15, 100251, Note_on_c, 13, 57, 0
15, 100251, Note_on_c, 13, 69, 0
15, 100260, Note_on_c, 13, 69, 52
15, 100260, Note_on_c, 13, 57, 52
15, 100311, Note_on_c, 13, 69, 0
15, 100311, Note_on_c, 13, 57, 0
15, 100320, Note_on_c, 13, 69, 52
15, 100320, Note_on_c, 13, 57, 52
15, 100371, Note_on_c, 13, 69, 0
15, 100371, Note_on_c, 13, 57, 0
15, 100380, Note_on_c, 13, 57, 52
15, 100380, Note_on_c, 13, 69, 52
15, 100431, Note_on_c, 13, 57, 0
15, 100431, Note_on_c, 13, 69, 0
15, 100440, Note_on_c, 13, 69, 52
15, 100440, Note_on_c, 13, 57, 52
15, 100491, Note_on_c, 13, 69, 0
15, 100491, Note_on_c, 13, 57, 0
15, 100500, Note_on_c, 13, 57, 52
15, 100500, Note_on_c, 13, 69, 52
15, 100551, Note_on_c, 13, 57, 0
15, 100551, Note_on_c, 13, 69, 0
15, 100560, Note_on_c, 13, 57, 52
15, 100560, Note_on_c, 13, 69, 52
15, 100611, Note_on_c, 13, 57, 0
15, 100611, Note_on_c, 13, 69, 0
15, 100620, Note_on_c, 13, 69, 52
15, 100620, Note_on_c, 13, 57, 52
15, 100671, Note_on_c, 13, 69, 0
15, 100671, Note_on_c, 13, 57, 0
15, 100680, Note_on_c, 13, 57, 52
15, 100680, Note_on_c, 13, 69, 52
15, 100731, Note_on_c, 13, 57, 0
15, 100731, Note_on_c, 13, 69, 0
15, 100740, Note_on_c, 13, 57, 52
15, 100740, Note_on_c, 13, 69, 52
15, 100791, Note_on_c, 13, 57, 0
15, 100791, Note_on_c, 13, 69, 0
15, 100800, Note_on_c, 13, 57, 52
15, 100800, Note_on_c, 13, 69, 52
15, 100851, Note_on_c, 13, 57, 0
15, 100851, Note_on_c, 13, 69, 0
15, 100860, Note_on_c, 13, 69, 52
15, 100860, Note_on_c, 13, 57, 52
15, 100911, Note_on_c, 13, 69, 0
15, 100911, Note_on_c, 13, 57, 0
15, 100920, Note_on_c, 13, 69, 52
15, 100920, Note_on_c, 13, 57, 52
15, 100971, Note_on_c, 13, 69, 0
15, 100971, Note_on_c, 13, 57, 0
15, 100980, Note_on_c, 13, 57, 52
15, 100980, Note_on_c, 13, 69, 52
15, 101031, Note_on_c, 13, 57, 0
15, 101031, Note_on_c, 13, 69, 0
15, 101040, Note_on_c, 13, 69, 52
15, 101040, Note_on_c, 13, 57, 52
15, 101091, Note_on_c, 13, 69, 0
15, 101091, Note_on_c, 13, 57, 0
15, 101100, Note_on_c, 13, 57, 52
15, 101100, Note_on_c, 13, 69, 52
15, 101151, Note_on_c, 13, 57, 0
15, 101151, Note_on_c, 13, 69, 0
15, 101160, Note_on_c, 13, 69, 52
15, 101160, Note_on_c, 13, 57, 52
15, 101211, Note_on_c, 13, 69, 0
15, 101211, Note_on_c, 13, 57, 0
15, 101220, Note_on_c, 13, 69, 52
15, 101220, Note_on_c, 13, 57, 52
15, 101271, Note_on_c, 13, 69, 0
15, 101271, Note_on_c, 13, 57, 0
15, 101280, Note_on_c, 13, 62, 84
15, 101280, Note_on_c, 13, 74, 84
15, 101984, Note_on_c, 13, 62, 0
15, 101984, Note_on_c, 13, 74, 0
15, 102000, Note_on_c, 13, 62, 84
15, 102000, Note_on_c, 13, 74, 84
15, 102179, Note_on_c, 13, 62, 0
15, 102179, Note_on_c, 13, 74, 0
15, 102240, Note_on_c, 13, 69, 84
15, 102419, Note_on_c, 13, 69, 0
15, 102480, Note_on_c, 13, 65, 84
15, 102659, Note_on_c, 13, 65, 0
15, 102720, Note_on_c, 13, 64, 84
15, 102899, Note_on_c, 13, 64, 0
15, 102960, Note_on_c, 13, 63, 84
15, 103139, Note_on_c, 13, 63, 0
15, 103200, Note_on_c, 13, 57, 76
15, 103251, Note_on_c, 13, 57, 0
15, 103260, Note_on_c, 13, 69, 52
15, 103260, Note_on_c, 13, 57, 52
15, 103311, Note_on_c, 13, 69, 0
15, 103311, Note_on_c, 13, 57, 0
15, 103320, Note_on_c, 13, 57, 52
15, 103320, Note_on_c, 13, 69, 52
15, 103371, Note_on_c, 13, 57, 0
15, 103371, Note_on_c, 13, 69, 0
15, 103380, Note_on_c, 13, 69, 52
15, 103380, Note_on_c, 13, 57, 52
15, 103431, Note_on_c, 13, 69, 0
15, 103431, Note_on_c, 13, 57, 0
15, 103440, Note_on_c, 13, 57, 52
15, 103440, Note_on_c, 13, 69, 52
15, 103491, Note_on_c, 13, 57, 0
15, 103491, Note_on_c, 13, 69, 0
15, 103500, Note_on_c, 13, 57, 52
15, 103500, Note_on_c, 13, 69, 52
15, 103551, Note_on_c, 13, 57, 0
15, 103551, Note_on_c, 13, 69, 0
15, 103560, Note_on_c, 13, 69, 52
15, 103560, Note_on_c, 13, 57, 52
15, 103611, Note_on_c, 13, 69, 0
15, 103611, Note_on_c, 13, 57, 0
15, 103620, Note_on_c, 13, 57, 52
15, 103620, Note_on_c, 13, 69, 52
15, 103671, Note_on_c, 13, 57, 0
15, 103671, Note_on_c, 13, 69, 0
15, 103680, Note_on_c, 13, 57, 52
15, 103680, Note_on_c, 13, 69, 52
15, 103731, Note_on_c, 13, 57, 0
15, 103731, Note_on_c, 13, 69, 0
15, 103740, Note_on_c, 13, 69, 52
15, 103740, Note_on_c, 13, 57, 52
15, 103791, Note_on_c, 13, 69, 0
15, 103791, Note_on_c, 13, 57, 0
15, 103800, Note_on_c, 13, 69, 52
15, 103800, Note_on_c, 13, 57, 52
15, 103851, Note_on_c, 13, 69, 0
15, 103851, Note_on_c, 13, 57, 0
15, 103860, Note_on_c, 13, 69, 52
15, 103860, Note_on_c, 13, 57, 52
15, 103911, Note_on_c, 13, 69, 0
15, 103911, Note_on_c, 13, 57, 0
15, 103920, Note_on_c, 13, 57, 52
15, 103920, Note_on_c, 13, 69, 52
15, 103971, Note_on_c, 13, 57, 0
15, 103971, Note_on_c, 13, 69, 0
15, 103980, Note_on_c, 13, 69, 52
15, 103980, Note_on_c, 13, 57, 52
15, 104031, Note_on_c, 13, 69, 0
15, 104031, Note_on_c, 13, 57, 0
15, 104040, Note_on_c, 13, 69, 52
15, 104040, Note_on_c, 13, 57, 52
15, 104091, Note_on_c, 13, 69, 0
15, 104091, Note_on_c, 13, 57, 0
15, 104100, Note_on_c, 13, 69, 52
15, 104100, Note_on_c, 13, 57, 52
15, 104151, Note_on_c, 13, 69, 0
15, 104151, Note_on_c, 13, 57, 0
15, 104160, Note_on_c, 13, 69, 52
15, 104160, Note_on_c, 13, 57, 52
15, 104211, Note_on_c, 13, 69, 0
15, 104211, Note_on_c, 13, 57, 0
15, 104220, Note_on_c, 13, 57, 52
15, 104220, Note_on_c, 13, 69, 52
15, 104271, Note_on_c, 13, 57, 0
15, 104271, Note_on_c, 13, 69, 0
15, 104280, Note_on_c, 13, 57, 52
15, 104280, Note_on_c, 13, 69, 52
15, 104331, Note_on_c, 13, 57, 0
15, 104331, Note_on_c, 13, 69, 0
15, 104340, Note_on_c, 13, 69, 52
15, 104340, Note_on_c, 13, 57, 52
15, 104391, Note_on_c, 13, 69, 0
15, 104391, Note_on_c, 13, 57, 0
15, 104400, Note_on_c, 13, 69, 52
15, 104400, Note_on_c, 13, 57, 52
15, 104451, Note_on_c, 13, 69, 0
15, 104451, Note_on_c, 13, 57, 0
15, 104460, Note_on_c, 13, 69, 52
15, 104460, Note_on_c, 13, 57, 52
15, 104511, Note_on_c, 13, 69, 0
15, 104511, Note_on_c, 13, 57, 0
15, 104520, Note_on_c, 13, 69, 52
15, 104520, Note_on_c, 13, 57, 52
15, 104571, Note_on_c, 13, 69, 0
15, 104571, Note_on_c, 13, 57, 0
15, 104580, Note_on_c, 13, 69, 52
15, 104580, Note_on_c, 13, 57, 52
15, 104631, Note_on_c, 13, 69, 0
15, 104631, Note_on_c, 13, 57, 0
15, 104640, Note_on_c, 13, 57, 52
15, 104640, Note_on_c, 13, 69, 52
15, 104691, Note_on_c, 13, 57, 0
15, 104691, Note_on_c, 13, 69, 0
15, 104700, Note_on_c, 13, 57, 52
15, 104700, Note_on_c, 13, 69, 52
15, 104751, Note_on_c, 13, 57, 0
15, 104751, Note_on_c, 13, 69, 0
15, 104760, Note_on_c, 13, 57, 52
15, 104760, Note_on_c, 13, 69, 52
15, 104811, Note_on_c, 13, 57, 0
15, 104811, Note_on_c, 13, 69, 0
15, 104820, Note_on_c, 13, 57, 52
15, 104820, Note_on_c, 13, 69, 52
15, 104871, Note_on_c, 13, 57, 0
15, 104871, Note_on_c, 13, 69, 0
15, 104880, Note_on_c, 13, 57, 52
15, 104880, Note_on_c, 13, 69, 52
15, 104931, Note_on_c, 13, 57, 0
15, 104931, Note_on_c, 13, 69, 0
15, 104940, Note_on_c, 13, 69, 52
15, 104940, Note_on_c, 13, 57, 52
15, 104991, Note_on_c, 13, 69, 0
15, 104991, Note_on_c, 13, 57, 0
15, 105000, Note_on_c, 13, 57, 52
15, 105000, Note_on_c, 13, 69, 52
15, 105051, Note_on_c, 13, 57, 0
15, 105051, Note_on_c, 13, 69, 0
15, 105060, Note_on_c, 13, 69, 52
15, 105060, Note_on_c, 13, 57, 52
15, 105111, Note_on_c, 13, 69, 0
15, 105111, Note_on_c, 13, 57, 0
15, 105120, Note_on_c, 13, 62, 84
15, 105120, Note_on_c, 13, 74, 84
15, 105824, Note_on_c, 13, 62, 0
15, 105824, Note_on_c, 13, 74, 0
15, 105840, Note_on_c, 13, 74, 84
15, 105840, Note_on_c, 13, 62, 84
15, 106019, Note_on_c, 13, 74, 0
15, 106019, Note_on_c, 13, 62, 0
15, 106080, Note_on_c, 13, 69, 84
15, 106259, Note_on_c, 13, 69, 0
15, 106320, Note_on_c, 13, 65, 84
15, 106499, Note_on_c, 13, 65, 0
15, 106560, Note_on_c, 13, 64, 84
15, 106739, Note_on_c, 13, 64, 0
15, 106800, Note_on_c, 13, 62, 84
15, 106979, Note_on_c, 13, 62, 0
15, 107040, Note_on_c, 13, 61, 52
15, 107091, Note_on_c, 13, 61, 0
15, 107100, Note_on_c, 13, 61, 52
15, 107151, Note_on_c, 13, 61, 0
15, 107160, Note_on_c, 13, 61, 52
15, 107211, Note_on_c, 13, 61, 0
15, 107220, Note_on_c, 13, 61, 52
15, 107271, Note_on_c, 13, 61, 0
15, 107280, Note_on_c, 13, 57, 52
15, 107331, Note_on_c, 13, 57, 0
15, 107340, Note_on_c, 13, 57, 52
15, 107391, Note_on_c, 13, 57, 0
15, 107400, Note_on_c, 13, 57, 52
15, 107451, Note_on_c, 13, 57, 0
15, 107460, Note_on_c, 13, 57, 52
15, 107511, Note_on_c, 13, 57, 0
15, 107520, Note_on_c, 13, 61, 52
15, 107571, Note_on_c, 13, 61, 0
15, 107580, Note_on_c, 13, 61, 52
15, 107631, Note_on_c, 13, 61, 0
15, 107640, Note_on_c, 13, 61, 52
15, 107691, Note_on_c, 13, 61, 0
15, 107700, Note_on_c, 13, 61, 52
15, 107751, Note_on_c, 13, 61, 0
15, 107760, Note_on_c, 13, 62, 76
15, 107811, Note_on_c, 13, 62, 0
15, 107820, Note_on_c, 13, 62, 52
15, 107871, Note_on_c, 13, 62, 0
15, 107880, Note_on_c, 13, 62, 52
15, 107931, Note_on_c, 13, 62, 0
15, 107940, Note_on_c, 13, 62, 52
15, 107991, Note_on_c, 13, 62, 0
15, 108000, Note_on_c, 13, 61, 52
15, 108051, Note_on_c, 13, 61, 0
15, 108060, Note_on_c, 13, 61, 52
15, 108111, Note_on_c, 13, 61, 0
15, 108120, Note_on_c, 13, 61, 52
15, 108171, Note_on_c, 13, 61, 0
15, 108180, Note_on_c, 13, 61, 52
15, 108231, Note_on_c, 13, 61, 0
15, 108240, Note_on_c, 13, 57, 52
15, 108291, Note_on_c, 13, 57, 0
15, 108300, Note_on_c, 13, 57, 52
15, 108351, Note_on_c, 13, 57, 0
15, 108360, Note_on_c, 13, 57, 52
15, 108411, Note_on_c, 13, 57, 0
15, 108420, Note_on_c, 13, 57, 52
15, 108471, Note_on_c, 13, 57, 0
15, 108480, Note_on_c, 13, 61, 52
15, 108531, Note_on_c, 13, 61, 0
15, 108540, Note_on_c, 13, 61, 52
15, 108591, Note_on_c, 13, 61, 0
15, 108600, Note_on_c, 13, 61, 52
15, 108651, Note_on_c, 13, 61, 0
15, 108660, Note_on_c, 13, 61, 52
15, 108711, Note_on_c, 13, 61, 0
15, 108720, Note_on_c, 13, 62, 76
15, 108771, Note_on_c, 13, 62, 0
15, 108780, Note_on_c, 13, 62, 52
15, 108831, Note_on_c, 13, 62, 0
15, 108840, Note_on_c, 13, 62, 52
15, 108891, Note_on_c, 13, 62, 0
15, 108900, Note_on_c, 13, 62, 52
15, 108951, Note_on_c, 13, 62, 0
15, 108960, Note_on_c, 13, 61, 52
15, 109011, Note_on_c, 13, 61, 0
15, 109020, Note_on_c, 13, 61, 52
15, 109071, Note_on_c, 13, 61, 0
15, 109080, Note_on_c, 13, 61, 52
15, 109131, Note_on_c, 13, 61, 0
15, 109140, Note_on_c, 13, 61, 52
15, 109191, Note_on_c, 13, 61, 0
15, 109200, Note_on_c, 13, 57, 52
15, 109251, Note_on_c, 13, 57, 0
15, 109260, Note_on_c, 13, 57, 52
15, 109311, Note_on_c, 13, 57, 0
15, 109320, Note_on_c, 13, 57, 52
15, 109371, Note_on_c, 13, 57, 0
15, 109380, Note_on_c, 13, 57, 52
15, 109431, Note_on_c, 13, 57, 0
15, 109440, Note_on_c, 13, 61, 52
15, 109491, Note_on_c, 13, 61, 0
15, 109500, Note_on_c, 13, 61, 52
15, 109551, Note_on_c, 13, 61, 0
15, 109560, Note_on_c, 13, 61, 52
15, 109611, Note_on_c, 13, 61, 0
15, 109620, Note_on_c, 13, 61, 52
15, 109671, Note_on_c, 13, 61, 0
15, 109680, Note_on_c, 13, 62, 76
15, 109731, Note_on_c, 13, 62, 0
15, 109740, Note_on_c, 13, 62, 52
15, 109791, Note_on_c, 13, 62, 0
15, 109800, Note_on_c, 13, 62, 52
15, 109851, Note_on_c, 13, 62, 0
15, 109860, Note_on_c, 13, 62, 52
15, 109911, Note_on_c, 13, 62, 0
15, 109920, Note_on_c, 13, 61, 52
15, 109971, Note_on_c, 13, 61, 0
15, 109980, Note_on_c, 13, 61, 52
15, 110031, Note_on_c, 13, 61, 0
15, 110040, Note_on_c, 13, 61, 52
15, 110091, Note_on_c, 13, 61, 0
15, 110100, Note_on_c, 13, 61, 52
15, 110151, Note_on_c, 13, 61, 0
15, 110160, Note_on_c, 13, 57, 52
15, 110211, Note_on_c, 13, 57, 0
15, 110220, Note_on_c, 13, 57, 52
15, 110271, Note_on_c, 13, 57, 0
15, 110280, Note_on_c, 13, 57, 52
15, 110331, Note_on_c, 13, 57, 0
15, 110340, Note_on_c, 13, 57, 52
15, 110391, Note_on_c, 13, 57, 0
15, 110400, Note_on_c, 13, 61, 52
15, 110451, Note_on_c, 13, 61, 0
15, 110460, Note_on_c, 13, 61, 52
15, 110511, Note_on_c, 13, 61, 0
15, 110520, Note_on_c, 13, 61, 52
15, 110571, Note_on_c, 13, 61, 0
15, 110580, Note_on_c, 13, 61, 52
15, 110631, Note_on_c, 13, 61, 0
15, 110640, Note_on_c, 13, 62, 76
15, 110691, Note_on_c, 13, 62, 0
15, 110700, Note_on_c, 13, 62, 52
15, 110751, Note_on_c, 13, 62, 0
15, 110760, Note_on_c, 13, 62, 52
15, 110811, Note_on_c, 13, 62, 0
15, 110820, Note_on_c, 13, 62, 52
15, 110871, Note_on_c, 13, 62, 0
15, 110880, Note_on_c, 13, 61, 52
15, 110931, Note_on_c, 13, 61, 0
15, 110940, Note_on_c, 13, 61, 52
15, 110991, Note_on_c, 13, 61, 0
15, 111000, Note_on_c, 13, 61, 52
15, 111051, Note_on_c, 13, 61, 0
15, 111060, Note_on_c, 13, 61, 52
15, 111111, Note_on_c, 13, 61, 0
15, 111120, Note_on_c, 13, 62, 76
15, 111171, Note_on_c, 13, 62, 0
15, 111180, Note_on_c, 13, 62, 52
15, 111231, Note_on_c, 13, 62, 0
15, 111240, Note_on_c, 13, 62, 52
15, 111291, Note_on_c, 13, 62, 0
15, 111300, Note_on_c, 13, 62, 52
15, 111351, Note_on_c, 13, 62, 0
15, 111360, Note_on_c, 13, 61, 52
15, 111411, Note_on_c, 13, 61, 0
15, 111420, Note_on_c, 13, 61, 52
15, 111471, Note_on_c, 13, 61, 0
15, 111480, Note_on_c, 13, 61, 52
15, 111531, Note_on_c, 13, 61, 0
15, 111540, Note_on_c, 13, 61, 52
15, 111591, Note_on_c, 13, 61, 0
15, 111600, Note_on_c, 13, 62, 76
15, 111651, Note_on_c, 13, 62, 0
15, 111660, Note_on_c, 13, 62, 52
15, 111711, Note_on_c, 13, 62, 0
15, 111720, Note_on_c, 13, 62, 52
15, 111771, Note_on_c, 13, 62, 0
15, 111780, Note_on_c, 13, 62, 52
15, 111831, Note_on_c, 13, 62, 0
15, 111840, Note_on_c, 13, 61, 52
15, 111891, Note_on_c, 13, 61, 0
15, 111900, Note_on_c, 13, 61, 52
15, 111951, Note_on_c, 13, 61, 0
15, 111960, Note_on_c, 13, 61, 52
15, 112011, Note_on_c, 13, 61, 0
15, 112020, Note_on_c, 13, 61, 52
15, 112071, Note_on_c, 13, 61, 0
15, 112080, Note_on_c, 13, 62, 76
15, 112131, Note_on_c, 13, 62, 0
15, 112140, Note_on_c, 13, 62, 52
15, 112191, Note_on_c, 13, 62, 0
15, 112200, Note_on_c, 13, 62, 52
15, 112251, Note_on_c, 13, 62, 0
15, 112260, Note_on_c, 13, 62, 52
15, 112311, Note_on_c, 13, 62, 0
15, 112320, Note_on_c, 13, 61, 52
15, 112371, Note_on_c, 13, 61, 0
15, 112380, Note_on_c, 13, 61, 52
15, 112431, Note_on_c, 13, 61, 0
15, 112440, Note_on_c, 13, 61, 52
15, 112491, Note_on_c, 13, 61, 0
15, 112500, Note_on_c, 13, 61, 52
15, 112551, Note_on_c, 13, 61, 0
15, 112560, Note_on_c, 13, 62, 76
15, 112611, Note_on_c, 13, 62, 0
15, 112620, Note_on_c, 13, 62, 52
15, 112671, Note_on_c, 13, 62, 0
15, 112680, Note_on_c, 13, 62, 52
15, 112731, Note_on_c, 13, 62, 0
15, 112740, Note_on_c, 13, 62, 52
15, 112791, Note_on_c, 13, 62, 0
15, 112800, Note_on_c, 13, 57, 84
15, 114704, Note_on_c, 13, 57, 0
15, 114720, Note_on_c, 13, 57, 84
15, 115304, Note_on_c, 13, 57, 0
15, 115320, Note_on_c, 13, 69, 84
15, 115424, Note_on_c, 13, 69, 0
15, 115440, Note_on_c, 13, 64, 84
15, 115544, Note_on_c, 13, 64, 0
15, 115560, Note_on_c, 13, 61, 84
15, 115664, Note_on_c, 13, 61, 0
15, 115680, Note_on_c, 13, 57, 84
15, 115784, Note_on_c, 13, 57, 0
15, 115800, Note_on_c, 13, 69, 84
15, 115904, Note_on_c, 13, 69, 0
15, 115920, Note_on_c, 13, 64, 84
15, 116024, Note_on_c, 13, 64, 0
15, 116040, Note_on_c, 13, 61, 84
15, 116144, Note_on_c, 13, 61, 0
15, 116160, Note_on_c, 13, 57, 84
15, 116264, Note_on_c, 13, 57, 0
15, 116280, Note_on_c, 13, 69, 84
15, 116384, Note_on_c, 13, 69, 0
15, 116400, Note_on_c, 13, 64, 84
15, 116504, Note_on_c, 13, 64, 0
15, 116520, Note_on_c, 13, 61, 84
15, 116624, Note_on_c, 13, 61, 0
15, 116640, Note_on_c, 13, 57, 84
15, 116879, Note_on_c, 13, 57, 0
15, 117600, Note_on_c, 13, 57, 76
15, 117839, Note_on_c, 13, 57, 0
15, 120360, Note_on_c, 13, 57, 52
15, 120399, Note_on_c, 13, 57, 0
15, 120400, Note_on_c, 13, 59, 52
15, 120439, Note_on_c, 13, 59, 0
15, 120440, Note_on_c, 13, 61, 52
15, 120471, Note_on_c, 13, 61, 0
15, 120480, Note_on_c, 13, 62, 52
15, 121184, Note_on_c, 13, 62, 0
15, 121200, Note_on_c, 13, 50, 52
15, 121259, Note_on_c, 13, 50, 0
15, 121260, Note_on_c, 13, 49, 52
15, 121319, Note_on_c, 13, 49, 0
15, 121320, Note_on_c, 13, 50, 52
15, 121379, Note_on_c, 13, 50, 0
15, 121380, Note_on_c, 13, 52, 52
15, 121431, Note_on_c, 13, 52, 0
15, 121440, Note_on_c, 13, 54, 52
15, 122129, Note_on_c, 13, 54, 0
15, 122160, Note_on_c, 13, 54, 52
15, 122219, Note_on_c, 13, 54, 0
15, 122220, Note_on_c, 13, 52, 52
15, 122279, Note_on_c, 13, 52, 0
15, 122280, Note_on_c, 13, 54, 52
15, 122339, Note_on_c, 13, 54, 0
15, 122340, Note_on_c, 13, 55, 52
15, 122399, Note_on_c, 13, 55, 0
15, 122400, Note_on_c, 13, 57, 52
15, 122579, Note_on_c, 13, 57, 0
15, 122640, Note_on_c, 13, 57, 52
15, 122819, Note_on_c, 13, 57, 0
15, 122880, Note_on_c, 13, 54, 52
15, 123059, Note_on_c, 13, 54, 0
15, 123120, Note_on_c, 13, 54, 52
15, 123299, Note_on_c, 13, 54, 0
15, 123360, Note_on_c, 13, 50, 52
15, 123464, Note_on_c, 13, 50, 0
15, 123480, Note_on_c, 13, 66, 54
15, 123584, Note_on_c, 13, 66, 0
15, 123600, Note_on_c, 13, 66, 56
15, 123704, Note_on_c, 13, 66, 0
15, 123720, Note_on_c, 13, 66, 58
15, 123824, Note_on_c, 13, 66, 0
15, 123840, Note_on_c, 13, 66, 60
15, 123944, Note_on_c, 13, 66, 0
15, 123960, Note_on_c, 13, 66, 62
15, 124064, Note_on_c, 13, 66, 0
15, 124080, Note_on_c, 13, 66, 64
15, 124184, Note_on_c, 13, 66, 0
15, 124200, Note_on_c, 13, 66, 66
15, 124304, Note_on_c, 13, 66, 0
15, 124320, Note_on_c, 13, 55, 52
15, 125024, Note_on_c, 13, 55, 0
15, 125040, Note_on_c, 13, 55, 52
15, 125099, Note_on_c, 13, 55, 0
15, 125100, Note_on_c, 13, 54, 52
15, 125159, Note_on_c, 13, 54, 0
15, 125160, Note_on_c, 13, 55, 52
15, 125219, Note_on_c, 13, 55, 0
15, 125220, Note_on_c, 13, 57, 52
15, 125271, Note_on_c, 13, 57, 0
15, 125280, Note_on_c, 13, 59, 52
15, 125984, Note_on_c, 13, 59, 0
15, 126000, Note_on_c, 13, 59, 52
15, 126059, Note_on_c, 13, 59, 0
15, 126060, Note_on_c, 13, 58, 52
15, 126119, Note_on_c, 13, 58, 0
15, 126120, Note_on_c, 13, 59, 52
15, 126179, Note_on_c, 13, 59, 0
15, 126180, Note_on_c, 13, 61, 52
15, 126231, Note_on_c, 13, 61, 0
15, 126240, Note_on_c, 13, 62, 52
15, 126419, Note_on_c, 13, 62, 0
15, 126480, Note_on_c, 13, 62, 52
15, 126659, Note_on_c, 13, 62, 0
15, 126720, Note_on_c, 13, 59, 52
15, 126899, Note_on_c, 13, 59, 0
15, 126960, Note_on_c, 13, 59, 52
15, 127139, Note_on_c, 13, 59, 0
15, 127200, Note_on_c, 13, 56, 52
15, 127439, Note_on_c, 13, 56, 0
15, 128160, Note_on_c, 13, 62, 52
15, 128339, Note_on_c, 13, 62, 0
15, 128400, Note_on_c, 13, 62, 52
15, 128579, Note_on_c, 13, 62, 0
15, 128640, Note_on_c, 13, 60, 52
15, 128819, Note_on_c, 13, 60, 0
15, 128880, Note_on_c, 13, 60, 52
15, 129059, Note_on_c, 13, 60, 0
15, 129120, Note_on_c, 13, 57, 52
15, 129299, Note_on_c, 13, 57, 0
15, 130080, Control_c, 13, 11, 80
15, 130200, Note_on_c, 13, 59, 76
15, 130200, Control_c, 13, 11, 82
15, 130289, Note_on_c, 13, 59, 0
15, 130320, Control_c, 13, 11, 84
15, 130320, Note_on_c, 13, 59, 76
15, 130409, Note_on_c, 13, 59, 0
15, 130440, Note_on_c, 13, 59, 76
15, 130440, Control_c, 13, 11, 86
15, 130529, Note_on_c, 13, 59, 0
15, 130560, Control_c, 13, 11, 88
15, 130680, Note_on_c, 13, 60, 76
15, 130680, Control_c, 13, 11, 90
15, 130680, Note_on_c, 13, 57, 76
15, 130769, Note_on_c, 13, 60, 0
15, 130769, Note_on_c, 13, 57, 0
15, 130800, Control_c, 13, 11, 92
15, 130800, Note_on_c, 13, 57, 76
15, 130800, Note_on_c, 13, 60, 76
15, 130889, Note_on_c, 13, 57, 0
15, 130889, Note_on_c, 13, 60, 0
15, 130920, Note_on_c, 13, 60, 76
15, 130920, Control_c, 13, 11, 94
15, 130920, Note_on_c, 13, 57, 76
15, 131009, Note_on_c, 13, 60, 0
15, 131009, Note_on_c, 13, 57, 0
15, 131040, Control_c, 13, 11, 96
15, 131160, Note_on_c, 13, 55, 76
15, 131160, Control_c, 13, 11, 98
15, 131249, Note_on_c, 13, 55, 0
15, 131280, Note_on_c, 13, 55, 76
15, 131280, Control_c, 13, 11, 100
15, 131369, Note_on_c, 13, 55, 0
15, 131400, Note_on_c, 13, 55, 76
15, 131400, Control_c, 13, 11, 102
15, 131489, Note_on_c, 13, 55, 0
15, 131520, Control_c, 13, 11, 104
15, 131640, Note_on_c, 13, 57, 76
15, 131640, Control_c, 13, 11, 105
15, 131640, Note_on_c, 13, 54, 76
15, 131729, Note_on_c, 13, 57, 0
15, 131729, Note_on_c, 13, 54, 0
15, 131760, Control_c, 13, 11, 107
15, 131760, Note_on_c, 13, 54, 76
15, 131760, Note_on_c, 13, 57, 76
15, 131849, Note_on_c, 13, 54, 0
15, 131849, Note_on_c, 13, 57, 0
15, 131880, Control_c, 13, 11, 109
15, 131880, Note_on_c, 13, 54, 76
15, 131880, Note_on_c, 13, 57, 76
15, 131969, Note_on_c, 13, 54, 0
15, 131969, Note_on_c, 13, 57, 0
15, 132000, Control_c, 13, 11, 111
15, 132000, Note_on_c, 13, 55, 76
15, 132119, Note_on_c, 13, 55, 0
15, 132120, Note_on_c, 13, 59, 76
15, 132120, Control_c, 13, 11, 113
15, 132239, Note_on_c, 13, 59, 0
15, 132240, Note_on_c, 13, 55, 76
15, 132240, Control_c, 13, 11, 115
15, 132359, Note_on_c, 13, 55, 0
15, 132360, Control_c, 13, 11, 117
15, 132360, Note_on_c, 13, 59, 76
15, 132464, Note_on_c, 13, 59, 0
15, 132480, Control_c, 13, 11, 119
15, 132480, Note_on_c, 13, 52, 76
15, 132599, Note_on_c, 13, 52, 0
15, 132600, Control_c, 13, 11, 121
15, 132600, Note_on_c, 13, 55, 76
15, 132719, Note_on_c, 13, 55, 0
15, 132720, Control_c, 13, 11, 123
15, 132720, Note_on_c, 13, 52, 76
15, 132839, Note_on_c, 13, 52, 0
15, 132840, Note_on_c, 13, 55, 76
15, 132840, Control_c, 13, 11, 127
15, 132944, Note_on_c, 13, 55, 0
15, 132960, Note_on_c, 13, 54, 76
15, 133199, Note_on_c, 13, 54, 0
15, 133680, Note_on_c, 13, 62, 76
15, 133739, Note_on_c, 13, 62, 0
15, 133740, Note_on_c, 13, 61, 76
15, 133799, Note_on_c, 13, 61, 0
15, 133800, Note_on_c, 13, 62, 76
15, 133859, Note_on_c, 13, 62, 0
15, 133860, Note_on_c, 13, 64, 76
15, 133911, Note_on_c, 13, 64, 0
15, 133920, Note_on_c, 13, 66, 84
15, 134624, Note_on_c, 13, 66, 0
15, 134640, Note_on_c, 13, 66, 76
15, 134699, Note_on_c, 13, 66, 0
15, 134700, Note_on_c, 13, 64, 76
15, 134759, Note_on_c, 13, 64, 0
15, 134760, Note_on_c, 13, 66, 76
15, 134819, Note_on_c, 13, 66, 0
15, 134820, Note_on_c, 13, 67, 76
15, 134871, Note_on_c, 13, 67, 0
15, 134880, Note_on_c, 13, 69, 76
15, 135059, Note_on_c, 13, 69, 0
15, 135120, Note_on_c, 13, 69, 76
15, 135179, Note_on_c, 13, 69, 0
15, 135180, Note_on_c, 13, 68, 76
15, 135239, Note_on_c, 13, 68, 0
15, 135240, Note_on_c, 13, 69, 76
15, 135299, Note_on_c, 13, 69, 0
15, 135300, Note_on_c, 13, 71, 76
15, 135351, Note_on_c, 13, 71, 0
15, 135360, Note_on_c, 13, 72, 84
15, 136064, Note_on_c, 13, 72, 0
15, 136080, Note_on_c, 13, 69, 76
15, 136259, Note_on_c, 13, 69, 0
15, 136320, Note_on_c, 13, 66, 76
15, 136499, Note_on_c, 13, 66, 0
15, 136560, Note_on_c, 13, 60, 76
15, 136739, Note_on_c, 13, 60, 0
15, 136800, Note_on_c, 13, 59, 76
15, 136979, Note_on_c, 13, 59, 0
15, 137040, Note_on_c, 13, 62, 76
15, 137219, Note_on_c, 13, 62, 0
15, 137280, Note_on_c, 13, 67, 76
15, 137459, Note_on_c, 13, 67, 0
15, 137520, Note_on_c, 13, 71, 76
15, 137699, Note_on_c, 13, 71, 0
15, 137760, Note_on_c, 13, 61, 76
15, 137939, Note_on_c, 13, 61, 0
15, 138000, Note_on_c, 13, 64, 76
15, 138179, Note_on_c, 13, 64, 0
15, 138240, Note_on_c, 13, 69, 76
15, 138419, Note_on_c, 13, 69, 0
15, 138480, Note_on_c, 13, 73, 76
15, 138659, Note_on_c, 13, 73, 0
15, 138720, Note_on_c, 13, 62, 76
15, 138899, Note_on_c, 13, 62, 0
15, 138960, Note_on_c, 13, 69, 76
15, 139019, Note_on_c, 13, 69, 0
15, 139020, Note_on_c, 13, 68, 76
15, 139079, Note_on_c, 13, 68, 0
15, 139080, Note_on_c, 13, 69, 76
15, 139139, Note_on_c, 13, 69, 0
15, 139140, Note_on_c, 13, 71, 76
15, 139191, Note_on_c, 13, 71, 0
15, 139200, Note_on_c, 13, 72, 84
15, 139904, Note_on_c, 13, 72, 0
15, 139920, Note_on_c, 13, 69, 76
15, 140099, Note_on_c, 13, 69, 0
15, 140160, Note_on_c, 13, 66, 76
15, 140339, Note_on_c, 13, 66, 0
15, 140400, Note_on_c, 13, 60, 76
15, 140579, Note_on_c, 13, 60, 0
15, 140640, Note_on_c, 13, 58, 76
15, 140819, Note_on_c, 13, 58, 0
15, 140880, Note_on_c, 13, 62, 76
15, 141059, Note_on_c, 13, 62, 0
15, 141120, Note_on_c, 13, 67, 76
15, 141299, Note_on_c, 13, 67, 0
15, 141360, Note_on_c, 13, 70, 76
15, 141539, Note_on_c, 13, 70, 0
15, 141600, Note_on_c, 13, 61, 76
15, 141779, Note_on_c, 13, 61, 0
15, 141840, Note_on_c, 13, 64, 76
15, 142019, Note_on_c, 13, 64, 0
15, 142080, Note_on_c, 13, 69, 76
15, 142259, Note_on_c, 13, 69, 0
15, 142320, Note_on_c, 13, 73, 76
15, 142499, Note_on_c, 13, 73, 0
15, 142560, Note_on_c, 13, 62, 84
15, 143264, Note_on_c, 13, 62, 0
15, 143280, Note_on_c, 13, 62, 76
15, 143339, Note_on_c, 13, 62, 0
15, 143340, Note_on_c, 13, 61, 76
15, 143399, Note_on_c, 13, 61, 0
15, 143400, Note_on_c, 13, 62, 76
15, 143459, Note_on_c, 13, 62, 0
15, 143460, Note_on_c, 13, 64, 76
15, 143511, Note_on_c, 13, 64, 0
15, 143520, Note_on_c, 13, 65, 76
15, 143699, Note_on_c, 13, 65, 0
15, 143760, Note_on_c, 13, 65, 76
15, 143939, Note_on_c, 13, 65, 0
15, 144000, Note_on_c, 13, 62, 76
15, 144179, Note_on_c, 13, 62, 0
15, 144240, Note_on_c, 13, 62, 76
15, 144419, Note_on_c, 13, 62, 0
15, 144480, Note_on_c, 13, 58, 84
15, 145184, Note_on_c, 13, 58, 0
15, 145200, Note_on_c, 13, 58, 76
15, 145259, Note_on_c, 13, 58, 0
15, 145260, Note_on_c, 13, 57, 76
15, 145319, Note_on_c, 13, 57, 0
15, 145320, Note_on_c, 13, 58, 76
15, 145379, Note_on_c, 13, 58, 0
15, 145380, Note_on_c, 13, 60, 76
15, 145431, Note_on_c, 13, 60, 0
15, 145440, Note_on_c, 13, 62, 76
15, 145619, Note_on_c, 13, 62, 0
15, 145680, Note_on_c, 13, 62, 76
15, 145859, Note_on_c, 13, 62, 0
15, 145920, Note_on_c, 13, 58, 76
15, 146099, Note_on_c, 13, 58, 0
15, 146160, Note_on_c, 13, 58, 76
15, 146339, Note_on_c, 13, 58, 0
15, 146400, Note_on_c, 13, 56, 84
15, 146489, Note_on_c, 13, 56, 0
15, 146520, Note_on_c, 13, 64, 84
15, 146609, Note_on_c, 13, 64, 0
15, 146640, Note_on_c, 13, 68, 84
15, 146729, Note_on_c, 13, 68, 0
15, 146760, Note_on_c, 13, 64, 84
15, 146849, Note_on_c, 13, 64, 0
15, 146880, Note_on_c, 13, 68, 84
15, 146969, Note_on_c, 13, 68, 0
15, 147000, Note_on_c, 13, 64, 84
15, 147089, Note_on_c, 13, 64, 0
15, 147120, Note_on_c, 13, 68, 84
15, 147209, Note_on_c, 13, 68, 0
15, 147240, Note_on_c, 13, 64, 84
15, 147329, Note_on_c, 13, 64, 0
15, 147360, Note_on_c, 13, 69, 84
15, 147449, Note_on_c, 13, 69, 0
15, 147480, Note_on_c, 13, 64, 84
15, 147569, Note_on_c, 13, 64, 0
15, 147600, Note_on_c, 13, 69, 84
15, 147689, Note_on_c, 13, 69, 0
15, 147720, Note_on_c, 13, 64, 84
15, 147809, Note_on_c, 13, 64, 0
15, 147840, Note_on_c, 13, 72, 84
15, 147929, Note_on_c, 13, 72, 0
15, 147960, Note_on_c, 13, 64, 84
15, 148049, Note_on_c, 13, 64, 0
15, 148080, Note_on_c, 13, 72, 84
15, 148169, Note_on_c, 13, 72, 0
15, 148200, Note_on_c, 13, 64, 84
15, 148289, Note_on_c, 13, 64, 0
15, 148320, Note_on_c, 13, 71, 84
15, 148409, Note_on_c, 13, 71, 0
15, 148440, Note_on_c, 13, 64, 84
15, 148529, Note_on_c, 13, 64, 0
15, 148560, Note_on_c, 13, 71, 84
15, 148649, Note_on_c, 13, 71, 0
15, 148680, Note_on_c, 13, 64, 84
15, 148769, Note_on_c, 13, 64, 0
15, 148800, Note_on_c, 13, 74, 84
15, 148889, Note_on_c, 13, 74, 0
15, 148920, Note_on_c, 13, 64, 84
15, 149009, Note_on_c, 13, 64, 0
15, 149040, Note_on_c, 13, 74, 84
15, 149129, Note_on_c, 13, 74, 0
15, 149160, Note_on_c, 13, 64, 84
15, 149249, Note_on_c, 13, 64, 0
15, 149280, Note_on_c, 13, 72, 84
15, 149369, Note_on_c, 13, 72, 0
15, 149400, Note_on_c, 13, 64, 84
15, 149489, Note_on_c, 13, 64, 0
15, 149520, Note_on_c, 13, 72, 84
15, 149609, Note_on_c, 13, 72, 0
15, 149640, Note_on_c, 13, 64, 84
15, 149729, Note_on_c, 13, 64, 0
15, 149760, Note_on_c, 13, 69, 84
15, 149849, Note_on_c, 13, 69, 0
15, 149880, Note_on_c, 13, 64, 84
15, 149969, Note_on_c, 13, 64, 0
15, 150000, Note_on_c, 13, 69, 84
15, 150089, Note_on_c, 13, 69, 0
15, 150120, Note_on_c, 13, 64, 84
15, 150209, Note_on_c, 13, 64, 0
15, 150240, Note_on_c, 13, 68, 84
15, 150329, Note_on_c, 13, 68, 0
15, 150360, Note_on_c, 13, 64, 84
15, 150449, Note_on_c, 13, 64, 0
15, 150480, Note_on_c, 13, 68, 84
15, 150569, Note_on_c, 13, 68, 0
15, 150600, Note_on_c, 13, 64, 84
15, 150689, Note_on_c, 13, 64, 0
15, 150720, Note_on_c, 13, 68, 84
15, 150809, Note_on_c, 13, 68, 0
15, 150840, Note_on_c, 13, 64, 84
15, 150929, Note_on_c, 13, 64, 0
15, 150960, Note_on_c, 13, 68, 84
15, 151049, Note_on_c, 13, 68, 0
15, 151080, Note_on_c, 13, 64, 84
15, 151169, Note_on_c, 13, 64, 0
15, 151200, Note_on_c, 13, 69, 84
15, 151289, Note_on_c, 13, 69, 0
15, 151320, Note_on_c, 13, 64, 84
15, 151409, Note_on_c, 13, 64, 0
15, 151440, Note_on_c, 13, 69, 84
15, 151529, Note_on_c, 13, 69, 0
15, 151560, Note_on_c, 13, 64, 84
15, 151649, Note_on_c, 13, 64, 0
15, 151680, Note_on_c, 13, 72, 84
15, 151769, Note_on_c, 13, 72, 0
15, 151800, Note_on_c, 13, 64, 84
15, 151889, Note_on_c, 13, 64, 0
15, 151920, Note_on_c, 13, 72, 84
15, 152009, Note_on_c, 13, 72, 0
15, 152040, Note_on_c, 13, 64, 84
15, 152129, Note_on_c, 13, 64, 0
15, 152160, Note_on_c, 13, 71, 84
15, 152264, Note_on_c, 13, 71, 0
15, 152280, Note_on_c, 13, 64, 84
15, 152384, Note_on_c, 13, 64, 0
15, 152400, Note_on_c, 13, 76, 92
15, 152984, Note_on_c, 13, 76, 0
15, 153000, Note_on_c, 13, 74, 84
15, 153104, Note_on_c, 13, 74, 0
15, 153120, Note_on_c, 13, 72, 84
15, 153224, Note_on_c, 13, 72, 0
15, 153240, Note_on_c, 13, 74, 84
15, 153344, Note_on_c, 13, 74, 0
15, 153360, Note_on_c, 13, 72, 84
15, 153464, Note_on_c, 13, 72, 0
15, 153480, Note_on_c, 13, 71, 84
15, 153584, Note_on_c, 13, 71, 0
15, 153600, Note_on_c, 13, 69, 84
15, 153704, Note_on_c, 13, 69, 0
15, 153720, Note_on_c, 13, 67, 84
15, 153824, Note_on_c, 13, 67, 0
15, 153840, Note_on_c, 13, 66, 84
15, 153944, Note_on_c, 13, 66, 0
15, 153960, Note_on_c, 13, 65, 84
15, 154064, Note_on_c, 13, 65, 0
15, 154080, Note_on_c, 13, 64, 92
15, 154439, Note_on_c, 13, 64, 0
15, 154440, Note_on_c, 13, 65, 84
15, 154544, Note_on_c, 13, 65, 0
15, 154560, Note_on_c, 13, 64, 92
15, 154919, Note_on_c, 13, 64, 0
15, 154920, Note_on_c, 13, 65, 84
15, 155024, Note_on_c, 13, 65, 0
15, 155040, Note_on_c, 13, 64, 84
15, 155129, Note_on_c, 13, 64, 0
15, 155160, Note_on_c, 13, 65, 84
15, 155249, Note_on_c, 13, 65, 0
15, 155280, Note_on_c, 13, 64, 84
15, 155369, Note_on_c, 13, 64, 0
15, 155400, Note_on_c, 13, 65, 84
15, 155489, Note_on_c, 13, 65, 0
15, 155520, Note_on_c, 13, 64, 84
15, 155609, Note_on_c, 13, 64, 0
15, 155640, Note_on_c, 13, 65, 84
15, 155729, Note_on_c, 13, 65, 0
15, 155760, Note_on_c, 13, 64, 84
15, 155849, Note_on_c, 13, 64, 0
15, 155880, Note_on_c, 13, 65, 84
15, 155969, Note_on_c, 13, 65, 0
15, 156000, Note_on_c, 13, 64, 92
15, 156704, Note_on_c, 13, 64, 0
15, 156720, Note_on_c, 13, 63, 84
15, 156899, Note_on_c, 13, 63, 0
15, 156960, Note_on_c, 13, 62, 84
15, 157139, Note_on_c, 13, 62, 0
15, 157200, Note_on_c, 13, 61, 84
15, 157379, Note_on_c, 13, 61, 0
15, 157440, Note_on_c, 13, 59, 84
15, 157619, Note_on_c, 13, 59, 0
15, 157680, Note_on_c, 13, 64, 84
15, 157859, Note_on_c, 13, 64, 0
15, 157920, Note_on_c, 13, 57, 52
15, 158024, Note_on_c, 13, 57, 0
15, 158040, Note_on_c, 13, 69, 52
15, 158144, Note_on_c, 13, 69, 0
15, 158160, Note_on_c, 13, 69, 52
15, 158264, Note_on_c, 13, 69, 0
15, 158280, Note_on_c, 13, 69, 52
15, 158384, Note_on_c, 13, 69, 0
15, 158400, Note_on_c, 13, 57, 52
15, 158504, Note_on_c, 13, 57, 0
15, 158520, Note_on_c, 13, 69, 52
15, 158624, Note_on_c, 13, 69, 0
15, 158640, Note_on_c, 13, 69, 52
15, 158744, Note_on_c, 13, 69, 0
15, 158760, Note_on_c, 13, 69, 52
15, 158864, Note_on_c, 13, 69, 0
15, 158880, Note_on_c, 13, 57, 52
15, 158984, Note_on_c, 13, 57, 0
15, 159000, Note_on_c, 13, 69, 52
15, 159104, Note_on_c, 13, 69, 0
15, 159120, Note_on_c, 13, 69, 52
15, 159224, Note_on_c, 13, 69, 0
15, 159240, Note_on_c, 13, 69, 52
15, 159344, Note_on_c, 13, 69, 0
15, 159360, Note_on_c, 13, 69, 52
15, 159464, Note_on_c, 13, 69, 0
15, 159480, Note_on_c, 13, 69, 52
15, 159584, Note_on_c, 13, 69, 0
15, 159600, Note_on_c, 13, 69, 52
15, 159704, Note_on_c, 13, 69, 0
15, 159720, Note_on_c, 13, 69, 52
15, 159824, Note_on_c, 13, 69, 0
15, 159840, Note_on_c, 13, 69, 52
15, 159944, Note_on_c, 13, 69, 0
15, 159960, Note_on_c, 13, 69, 52
15, 160064, Note_on_c, 13, 69, 0
15, 160080, Note_on_c, 13, 69, 52
15, 160184, Note_on_c, 13, 69, 0
15, 160200, Note_on_c, 13, 69, 52
15, 160304, Note_on_c, 13, 69, 0
15, 160320, Note_on_c, 13, 69, 52
15, 160424, Note_on_c, 13, 69, 0
15, 160440, Note_on_c, 13, 69, 52
15, 160544, Note_on_c, 13, 69, 0
15, 160560, Note_on_c, 13, 69, 52
15, 160664, Note_on_c, 13, 69, 0
15, 160680, Note_on_c, 13, 69, 52
15, 160784, Note_on_c, 13, 69, 0
15, 160800, Note_on_c, 13, 69, 52
15, 160904, Note_on_c, 13, 69, 0
15, 160920, Note_on_c, 13, 69, 52
15, 161024, Note_on_c, 13, 69, 0
15, 161040, Note_on_c, 13, 69, 52
15, 161144, Note_on_c, 13, 69, 0
15, 161160, Note_on_c, 13, 69, 52
15, 161264, Note_on_c, 13, 69, 0
15, 161280, Note_on_c, 13, 69, 52
15, 161384, Note_on_c, 13, 69, 0
15, 161400, Note_on_c, 13, 69, 52
15, 161504, Note_on_c, 13, 69, 0
15, 161520, Note_on_c, 13, 69, 52
15, 161624, Note_on_c, 13, 69, 0
15, 161640, Note_on_c, 13, 69, 52
15, 161744, Note_on_c, 13, 69, 0
15, 161760, Note_on_c, 13, 54, 84
15, 161864, Note_on_c, 13, 54, 0
15, 161880, Note_on_c, 13, 66, 84
15, 161984, Note_on_c, 13, 66, 0
15, 162000, Note_on_c, 13, 61, 84
15, 162104, Note_on_c, 13, 61, 0
15, 162120, Note_on_c, 13, 57, 84
15, 162224, Note_on_c, 13, 57, 0
15, 162240, Note_on_c, 13, 54, 84
15, 162344, Note_on_c, 13, 54, 0
15, 162360, Note_on_c, 13, 66, 84
15, 162464, Note_on_c, 13, 66, 0
15, 162480, Note_on_c, 13, 61, 84
15, 162584, Note_on_c, 13, 61, 0
15, 162600, Note_on_c, 13, 57, 84
15, 162704, Note_on_c, 13, 57, 0
15, 162720, Note_on_c, 13, 54, 84
15, 162824, Note_on_c, 13, 54, 0
15, 162840, Note_on_c, 13, 66, 84
15, 162944, Note_on_c, 13, 66, 0
15, 162960, Note_on_c, 13, 61, 84
15, 163064, Note_on_c, 13, 61, 0
15, 163080, Note_on_c, 13, 57, 84
15, 163184, Note_on_c, 13, 57, 0
15, 163200, Note_on_c, 13, 54, 84
15, 163304, Note_on_c, 13, 54, 0
15, 163320, Note_on_c, 13, 66, 84
15, 163424, Note_on_c, 13, 66, 0
15, 163440, Note_on_c, 13, 68, 84
15, 163544, Note_on_c, 13, 68, 0
15, 163560, Note_on_c, 13, 69, 84
15, 163664, Note_on_c, 13, 69, 0
15, 163680, Note_on_c, 13, 59, 92
15, 163784, Note_on_c, 13, 59, 0
15, 163800, Note_on_c, 13, 71, 84
15, 163904, Note_on_c, 13, 71, 0
15, 163920, Note_on_c, 13, 71, 84
15, 164024, Note_on_c, 13, 71, 0
15, 164040, Note_on_c, 13, 71, 84
15, 164144, Note_on_c, 13, 71, 0
15, 164160, Note_on_c, 13, 59, 92
15, 164264, Note_on_c, 13, 59, 0
15, 164280, Note_on_c, 13, 71, 84
15, 164384, Note_on_c, 13, 71, 0
15, 164400, Note_on_c, 13, 71, 84
15, 164504, Note_on_c, 13, 71, 0
15, 164520, Note_on_c, 13, 71, 84
15, 164624, Note_on_c, 13, 71, 0
15, 164640, Note_on_c, 13, 64, 84
15, 164879, Note_on_c, 13, 64, 0
15, 165600, Note_on_c, 13, 57, 52
15, 165704, Note_on_c, 13, 57, 0
15, 165720, Note_on_c, 13, 69, 52
15, 165824, Note_on_c, 13, 69, 0
15, 165840, Note_on_c, 13, 69, 52
15, 165944, Note_on_c, 13, 69, 0
15, 165960, Note_on_c, 13, 69, 52
15, 166064, Note_on_c, 13, 69, 0
15, 166080, Note_on_c, 13, 57, 52
15, 166184, Note_on_c, 13, 57, 0
15, 166200, Note_on_c, 13, 69, 52
15, 166304, Note_on_c, 13, 69, 0
15, 166320, Note_on_c, 13, 69, 52
15, 166424, Note_on_c, 13, 69, 0
15, 166440, Note_on_c, 13, 69, 52
15, 166544, Note_on_c, 13, 69, 0
15, 166560, Note_on_c, 13, 57, 52
15, 166664, Note_on_c, 13, 57, 0
15, 166680, Note_on_c, 13, 69, 52
15, 166784, Note_on_c, 13, 69, 0
15, 166800, Note_on_c, 13, 69, 52
15, 166904, Note_on_c, 13, 69, 0
15, 166920, Note_on_c, 13, 69, 52
15, 167024, Note_on_c, 13, 69, 0
15, 167040, Note_on_c, 13, 69, 52
15, 167144, Note_on_c, 13, 69, 0
15, 167160, Note_on_c, 13, 69, 52
15, 167264, Note_on_c, 13, 69, 0
15, 167280, Note_on_c, 13, 69, 52
15, 167384, Note_on_c, 13, 69, 0
15, 167400, Note_on_c, 13, 69, 52
15, 167504, Note_on_c, 13, 69, 0
15, 167520, Note_on_c, 13, 69, 52
15, 167624, Note_on_c, 13, 69, 0
15, 167640, Note_on_c, 13, 69, 52
15, 167744, Note_on_c, 13, 69, 0
15, 167760, Note_on_c, 13, 69, 52
15, 167864, Note_on_c, 13, 69, 0
15, 167880, Note_on_c, 13, 69, 52
15, 167984, Note_on_c, 13, 69, 0
15, 168000, Note_on_c, 13, 69, 52
15, 168104, Note_on_c, 13, 69, 0
15, 168120, Note_on_c, 13, 69, 52
15, 168224, Note_on_c, 13, 69, 0
15, 168240, Note_on_c, 13, 69, 52
15, 168344, Note_on_c, 13, 69, 0
15, 168360, Note_on_c, 13, 69, 52
15, 168464, Note_on_c, 13, 69, 0
15, 168480, Note_on_c, 13, 69, 52
15, 168584, Note_on_c, 13, 69, 0
15, 168600, Note_on_c, 13, 69, 52
15, 168704, Note_on_c, 13, 69, 0
15, 168720, Note_on_c, 13, 69, 52
15, 168824, Note_on_c, 13, 69, 0
15, 168840, Note_on_c, 13, 69, 52
15, 168944, Note_on_c, 13, 69, 0
15, 168960, Note_on_c, 13, 69, 52
15, 169079, Note_on_c, 13, 69, 0
15, 169440, Note_on_c, 13, 54, 84
15, 169544, Note_on_c, 13, 54, 0
15, 169560, Note_on_c, 13, 66, 84
15, 169664, Note_on_c, 13, 66, 0
15, 169680, Note_on_c, 13, 61, 84
15, 169784, Note_on_c, 13, 61, 0
15, 169800, Note_on_c, 13, 57, 84
15, 169904, Note_on_c, 13, 57, 0
15, 169920, Note_on_c, 13, 54, 84
15, 170024, Note_on_c, 13, 54, 0
15, 170040, Note_on_c, 13, 66, 84
15, 170144, Note_on_c, 13, 66, 0
15, 170160, Note_on_c, 13, 61, 84
15, 170264, Note_on_c, 13, 61, 0
15, 170280, Note_on_c, 13, 57, 84
15, 170384, Note_on_c, 13, 57, 0
15, 170400, Note_on_c, 13, 54, 84
15, 170504, Note_on_c, 13, 54, 0
15, 170520, Note_on_c, 13, 66, 84
15, 170624, Note_on_c, 13, 66, 0
15, 170640, Note_on_c, 13, 61, 84
15, 170744, Note_on_c, 13, 61, 0
15, 170760, Note_on_c, 13, 57, 84
15, 170864, Note_on_c, 13, 57, 0
15, 170880, Note_on_c, 13, 54, 84
15, 170984, Note_on_c, 13, 54, 0
15, 171000, Note_on_c, 13, 66, 84
15, 171104, Note_on_c, 13, 66, 0
15, 171120, Note_on_c, 13, 68, 84
15, 171224, Note_on_c, 13, 68, 0
15, 171240, Note_on_c, 13, 69, 84
15, 171344, Note_on_c, 13, 69, 0
15, 171360, Note_on_c, 13, 59, 92
15, 171464, Note_on_c, 13, 59, 0
15, 171480, Note_on_c, 13, 71, 84
15, 171584, Note_on_c, 13, 71, 0
15, 171600, Note_on_c, 13, 71, 84
15, 171704, Note_on_c, 13, 71, 0
15, 171720, Note_on_c, 13, 71, 84
15, 171824, Note_on_c, 13, 71, 0
15, 171840, Note_on_c, 13, 59, 92
15, 171944, Note_on_c, 13, 59, 0
15, 171960, Note_on_c, 13, 71, 84
15, 172064, Note_on_c, 13, 71, 0
15, 172080, Note_on_c, 13, 71, 84
15, 172184, Note_on_c, 13, 71, 0
15, 172200, Note_on_c, 13, 71, 84
15, 172304, Note_on_c, 13, 71, 0
15, 172320, Note_on_c, 13, 64, 92
15, 172904, Note_on_c, 13, 64, 0
15, 172920, Note_on_c, 13, 64, 84
15, 173039, Note_on_c, 13, 64, 0
15, 173040, Note_on_c, 13, 62, 84
15, 173159, Note_on_c, 13, 62, 0
15, 173160, Note_on_c, 13, 61, 84
15, 173264, Note_on_c, 13, 61, 0
15, 173280, Note_on_c, 13, 62, 92
15, 173864, Note_on_c, 13, 62, 0
15, 173880, Note_on_c, 13, 62, 84
15, 173999, Note_on_c, 13, 62, 0
15, 174000, Note_on_c, 13, 61, 84
15, 174119, Note_on_c, 13, 61, 0
15, 174120, Note_on_c, 13, 60, 84
15, 174224, Note_on_c, 13, 60, 0
15, 174240, Note_on_c, 13, 61, 92
15, 174824, Note_on_c, 13, 61, 0
15, 174840, Note_on_c, 13, 61, 84
15, 174959, Note_on_c, 13, 61, 0
15, 174960, Note_on_c, 13, 59, 84
15, 175079, Note_on_c, 13, 59, 0
15, 175080, Note_on_c, 13, 58, 84
15, 175184, Note_on_c, 13, 58, 0
15, 175200, Note_on_c, 13, 59, 92
15, 175784, Note_on_c, 13, 59, 0
15, 175800, Note_on_c, 13, 59, 84
15, 175919, Note_on_c, 13, 59, 0
15, 175920, Note_on_c, 13, 57, 84
15, 176039, Note_on_c, 13, 57, 0
15, 176040, Note_on_c, 13, 56, 84
15, 176144, Note_on_c, 13, 56, 0
15, 176160, Note_on_c, 13, 57, 92
15, 176249, Note_on_c, 13, 57, 0
15, 176280, Note_on_c, 13, 64, 84
15, 176399, Note_on_c, 13, 64, 0
15, 176400, Note_on_c, 13, 62, 84
15, 176519, Note_on_c, 13, 62, 0
15, 176520, Note_on_c, 13, 61, 84
15, 176624, Note_on_c, 13, 61, 0
15, 176640, Note_on_c, 13, 62, 92
15, 176729, Note_on_c, 13, 62, 0
15, 176760, Note_on_c, 13, 62, 84
15, 176879, Note_on_c, 13, 62, 0
15, 176880, Note_on_c, 13, 61, 84
15, 176999, Note_on_c, 13, 61, 0
15, 177000, Note_on_c, 13, 60, 84
15, 177104, Note_on_c, 13, 60, 0
15, 177120, Note_on_c, 13, 61, 92
15, 177209, Note_on_c, 13, 61, 0
15, 177240, Note_on_c, 13, 61, 84
15, 177359, Note_on_c, 13, 61, 0
15, 177360, Note_on_c, 13, 59, 84
15, 177479, Note_on_c, 13, 59, 0
15, 177480, Note_on_c, 13, 58, 84
15, 177584, Note_on_c, 13, 58, 0
15, 177600, Note_on_c, 13, 59, 92
15, 177689, Note_on_c, 13, 59, 0
15, 177720, Note_on_c, 13, 71, 84
15, 177839, Note_on_c, 13, 71, 0
15, 177840, Note_on_c, 13, 69, 84
15, 177959, Note_on_c, 13, 69, 0
15, 177960, Note_on_c, 13, 68, 84
15, 178064, Note_on_c, 13, 68, 0
15, 178080, Note_on_c, 13, 69, 92
15, 178169, Note_on_c, 13, 69, 0
15, 178200, Note_on_c, 13, 69, 84
15, 178319, Note_on_c, 13, 69, 0
15, 178320, Note_on_c, 13, 68, 84
15, 178439, Note_on_c, 13, 68, 0
15, 178440, Note_on_c, 13, 66, 84
15, 178544, Note_on_c, 13, 66, 0
15, 178560, Note_on_c, 13, 68, 92
15, 178649, Note_on_c, 13, 68, 0
15, 178680, Note_on_c, 13, 68, 84
15, 178799, Note_on_c, 13, 68, 0
15, 178800, Note_on_c, 13, 66, 84
15, 178919, Note_on_c, 13, 66, 0
15, 178920, Note_on_c, 13, 65, 84
15, 179024, Note_on_c, 13, 65, 0
15, 179040, Note_on_c, 13, 66, 92
15, 179129, Note_on_c, 13, 66, 0
15, 179160, Note_on_c, 13, 66, 84
15, 179279, Note_on_c, 13, 66, 0
15, 179280, Note_on_c, 13, 64, 84
15, 179399, Note_on_c, 13, 64, 0
15, 179400, Note_on_c, 13, 62, 84
15, 179504, Note_on_c, 13, 62, 0
15, 179520, Note_on_c, 13, 64, 92
15, 179609, Note_on_c, 13, 64, 0
15, 179640, Note_on_c, 13, 64, 84
15, 179759, Note_on_c, 13, 64, 0
15, 179760, Note_on_c, 13, 62, 84
15, 179879, Note_on_c, 13, 62, 0
15, 179880, Note_on_c, 13, 61, 84
15, 179984, Note_on_c, 13, 61, 0
15, 180000, Note_on_c, 13, 62, 84
15, 180179, Note_on_c, 13, 62, 0
15, 180960, Note_on_c, 13, 71, 84
15, 181139, Note_on_c, 13, 71, 0
15, 181920, Note_on_c, 13, 68, 84
15, 182099, Note_on_c, 13, 68, 0
15, 182400, Note_on_c, 13, 69, 84
15, 182579, Note_on_c, 13, 69, 0
15, 182880, Note_on_c, 13, 62, 84
15, 183059, Note_on_c, 13, 62, 0
15, 183360, Note_on_c, 13, 64, 84
15, 183539, Note_on_c, 13, 64, 0
15, 183840, Note_on_c, 13, 66, 84
15, 184079, Note_on_c, 13, 66, 0
15, 184800, Note_on_c, 13, 68, 84
15, 185039, Note_on_c, 13, 68, 0
15, 186240, Control_c, 13, 11, 80
15, 186480, Note_on_c, 13, 59, 68
15, 186539, Note_on_c, 13, 59, 0
15, 186540, Note_on_c, 13, 58, 68
15, 186599, Note_on_c, 13, 58, 0
15, 186600, Note_on_c, 13, 59, 68
15, 186659, Note_on_c, 13, 59, 0
15, 186660, Note_on_c, 13, 60, 68
15, 186711, Note_on_c, 13, 60, 0
15, 186720, Note_on_c, 13, 62, 68
15, 186899, Note_on_c, 13, 62, 0
15, 187440, Note_on_c, 13, 60, 68
15, 187499, Note_on_c, 13, 60, 0
15, 187500, Note_on_c, 13, 59, 68
15, 187559, Note_on_c, 13, 59, 0
15, 187560, Note_on_c, 13, 60, 68
15, 187619, Note_on_c, 13, 60, 0
15, 187620, Note_on_c, 13, 62, 68
15, 187671, Note_on_c, 13, 62, 0
15, 187680, Note_on_c, 13, 64, 68
15, 187859, Note_on_c, 13, 64, 0
15, 188400, Note_on_c, 13, 50, 68
15, 188459, Note_on_c, 13, 50, 0
15, 188460, Note_on_c, 13, 49, 68
15, 188519, Note_on_c, 13, 49, 0
15, 188520, Note_on_c, 13, 50, 68
15, 188579, Note_on_c, 13, 50, 0
15, 188580, Note_on_c, 13, 52, 68
15, 188631, Note_on_c, 13, 52, 0
15, 188640, Note_on_c, 13, 53, 68
15, 188640, Control_c, 13, 11, 80
15, 188760, Control_c, 13, 11, 82
15, 188819, Note_on_c, 13, 53, 0
15, 188880, Control_c, 13, 11, 84
15, 188880, Note_on_c, 13, 52, 68
15, 188939, Note_on_c, 13, 52, 0
15, 188940, Note_on_c, 13, 50, 68
15, 188999, Note_on_c, 13, 50, 0
15, 189000, Note_on_c, 13, 52, 68
15, 189000, Control_c, 13, 11, 86
15, 189059, Note_on_c, 13, 52, 0
15, 189060, Note_on_c, 13, 53, 68
15, 189111, Note_on_c, 13, 53, 0
15, 189120, Note_on_c, 13, 55, 68
15, 189120, Control_c, 13, 11, 88
15, 189240, Control_c, 13, 11, 90
15, 189299, Note_on_c, 13, 55, 0
15, 189360, Control_c, 13, 11, 92
15, 189360, Note_on_c, 13, 53, 68
15, 189419, Note_on_c, 13, 53, 0
15, 189420, Note_on_c, 13, 52, 68
15, 189479, Note_on_c, 13, 52, 0
15, 189480, Control_c, 13, 11, 94
15, 189480, Note_on_c, 13, 53, 68
15, 189539, Note_on_c, 13, 53, 0
15, 189540, Note_on_c, 13, 55, 68
15, 189591, Note_on_c, 13, 55, 0
15, 189600, Control_c, 13, 11, 96
15, 189600, Note_on_c, 13, 57, 68
15, 189720, Control_c, 13, 11, 98
15, 189779, Note_on_c, 13, 57, 0
15, 189840, Note_on_c, 13, 56, 68
15, 189840, Control_c, 13, 11, 100
15, 189899, Note_on_c, 13, 56, 0
15, 189900, Note_on_c, 13, 54, 68
15, 189959, Note_on_c, 13, 54, 0
15, 189960, Control_c, 13, 11, 102
15, 189960, Note_on_c, 13, 56, 68
15, 190019, Note_on_c, 13, 56, 0
15, 190020, Note_on_c, 13, 57, 68
15, 190071, Note_on_c, 13, 57, 0
15, 190080, Control_c, 13, 11, 104
15, 190080, Note_on_c, 13, 59, 68
15, 190200, Control_c, 13, 11, 105
15, 190259, Note_on_c, 13, 59, 0
15, 190320, Note_on_c, 13, 57, 68
15, 190320, Control_c, 13, 11, 107
15, 190379, Note_on_c, 13, 57, 0
15, 190380, Note_on_c, 13, 56, 68
15, 190439, Note_on_c, 13, 56, 0
15, 190440, Note_on_c, 13, 57, 68
15, 190440, Control_c, 13, 11, 109
15, 190499, Note_on_c, 13, 57, 0
15, 190500, Note_on_c, 13, 59, 68
15, 190551, Note_on_c, 13, 59, 0
15, 190560, Note_on_c, 13, 60, 68
15, 190560, Control_c, 13, 11, 111
15, 190680, Control_c, 13, 11, 113
15, 190739, Note_on_c, 13, 60, 0
15, 190800, Note_on_c, 13, 57, 68
15, 190800, Control_c, 13, 11, 115
15, 190859, Note_on_c, 13, 57, 0
15, 190860, Note_on_c, 13, 56, 68
15, 190919, Note_on_c, 13, 56, 0
15, 190920, Control_c, 13, 11, 117
15, 190920, Note_on_c, 13, 57, 68
15, 190979, Note_on_c, 13, 57, 0
15, 190980, Note_on_c, 13, 59, 68
15, 191031, Note_on_c, 13, 59, 0
15, 191040, Control_c, 13, 11, 119
15, 191040, Note_on_c, 13, 60, 68
15, 191160, Control_c, 13, 11, 121
15, 191219, Note_on_c, 13, 60, 0
15, 191280, Control_c, 13, 11, 123
15, 191280, Note_on_c, 13, 57, 68
15, 191339, Note_on_c, 13, 57, 0
15, 191340, Note_on_c, 13, 56, 68
15, 191399, Note_on_c, 13, 56, 0
15, 191400, Note_on_c, 13, 57, 68
15, 191400, Control_c, 13, 11, 125
15, 191459, Note_on_c, 13, 57, 0
15, 191460, Note_on_c, 13, 59, 68
15, 191511, Note_on_c, 13, 59, 0
15, 191520, Note_on_c, 13, 60, 76
15, 191520, Control_c, 13, 11, 127
15, 192464, Note_on_c, 13, 60, 0
15, 192480, Note_on_c, 13, 51, 76
15, 193424, Note_on_c, 13, 51, 0
15, 193440, Note_on_c, 13, 52, 84
15, 193491, Note_on_c, 13, 52, 0
15, 193500, Note_on_c, 13, 52, 84
15, 193551, Note_on_c, 13, 52, 0
15, 193560, Note_on_c, 13, 57, 84
15, 193611, Note_on_c, 13, 57, 0
15, 193620, Note_on_c, 13, 57, 84
15, 193671, Note_on_c, 13, 57, 0
15, 193680, Note_on_c, 13, 61, 84
15, 193731, Note_on_c, 13, 61, 0
15, 193740, Note_on_c, 13, 61, 84
15, 193791, Note_on_c, 13, 61, 0
15, 193800, Note_on_c, 13, 64, 84
15, 193851, Note_on_c, 13, 64, 0
15, 193860, Note_on_c, 13, 64, 84
15, 193911, Note_on_c, 13, 64, 0
15, 193920, Note_on_c, 13, 69, 84
15, 193971, Note_on_c, 13, 69, 0
15, 193980, Note_on_c, 13, 69, 84
15, 194031, Note_on_c, 13, 69, 0
15, 194040, Note_on_c, 13, 69, 84
15, 194091, Note_on_c, 13, 69, 0
15, 194100, Note_on_c, 13, 69, 84
15, 194151, Note_on_c, 13, 69, 0
15, 194160, Note_on_c, 13, 69, 84
15, 194211, Note_on_c, 13, 69, 0
15, 194220, Note_on_c, 13, 69, 84
15, 194271, Note_on_c, 13, 69, 0
15, 194280, Note_on_c, 13, 69, 84
15, 194331, Note_on_c, 13, 69, 0
15, 194340, Note_on_c, 13, 69, 84
15, 194391, Note_on_c, 13, 69, 0
15, 194400, Note_on_c, 13, 71, 84
15, 194451, Note_on_c, 13, 71, 0
15, 194460, Note_on_c, 13, 71, 84
15, 194511, Note_on_c, 13, 71, 0
15, 194520, Note_on_c, 13, 71, 84
15, 194571, Note_on_c, 13, 71, 0
15, 194580, Note_on_c, 13, 71, 84
15, 194631, Note_on_c, 13, 71, 0
15, 194640, Note_on_c, 13, 71, 84
15, 194691, Note_on_c, 13, 71, 0
15, 194700, Note_on_c, 13, 71, 84
15, 194751, Note_on_c, 13, 71, 0
15, 194760, Note_on_c, 13, 71, 84
15, 194811, Note_on_c, 13, 71, 0
15, 194820, Note_on_c, 13, 71, 84
15, 194871, Note_on_c, 13, 71, 0
15, 194880, Note_on_c, 13, 59, 84
15, 194931, Note_on_c, 13, 59, 0
15, 194940, Note_on_c, 13, 59, 84
15, 194991, Note_on_c, 13, 59, 0
15, 195000, Note_on_c, 13, 59, 84
15, 195051, Note_on_c, 13, 59, 0
15, 195060, Note_on_c, 13, 59, 84
15, 195111, Note_on_c, 13, 59, 0
15, 195120, Note_on_c, 13, 59, 84
15, 195171, Note_on_c, 13, 59, 0
15, 195180, Note_on_c, 13, 59, 84
15, 195231, Note_on_c, 13, 59, 0
15, 195240, Note_on_c, 13, 59, 84
15, 195291, Note_on_c, 13, 59, 0
15, 195300, Note_on_c, 13, 59, 84
15, 195351, Note_on_c, 13, 59, 0
15, 195360, Note_on_c, 13, 57, 76
15, 195411, Note_on_c, 13, 57, 0
15, 195420, Note_on_c, 13, 57, 52
15, 195420, Note_on_c, 13, 69, 52
15, 195471, Note_on_c, 13, 57, 0
15, 195471, Note_on_c, 13, 69, 0
15, 195480, Note_on_c, 13, 69, 52
15, 195480, Note_on_c, 13, 57, 52
15, 195531, Note_on_c, 13, 69, 0
15, 195531, Note_on_c, 13, 57, 0
15, 195540, Note_on_c, 13, 69, 52
15, 195540, Note_on_c, 13, 57, 52
15, 195591, Note_on_c, 13, 69, 0
15, 195591, Note_on_c, 13, 57, 0
15, 195600, Note_on_c, 13, 57, 52
15, 195600, Note_on_c, 13, 69, 52
15, 195651, Note_on_c, 13, 57, 0
15, 195651, Note_on_c, 13, 69, 0
15, 195660, Note_on_c, 13, 57, 52
15, 195660, Note_on_c, 13, 69, 52
15, 195711, Note_on_c, 13, 57, 0
15, 195711, Note_on_c, 13, 69, 0
15, 195720, Note_on_c, 13, 57, 52
15, 195720, Note_on_c, 13, 69, 52
15, 195771, Note_on_c, 13, 57, 0
15, 195771, Note_on_c, 13, 69, 0
15, 195780, Note_on_c, 13, 69, 52
15, 195780, Note_on_c, 13, 57, 52
15, 195831, Note_on_c, 13, 69, 0
15, 195831, Note_on_c, 13, 57, 0
15, 195840, Note_on_c, 13, 69, 52
15, 195840, Note_on_c, 13, 57, 52
15, 195891, Note_on_c, 13, 69, 0
15, 195891, Note_on_c, 13, 57, 0
15, 195900, Note_on_c, 13, 57, 52
15, 195900, Note_on_c, 13, 69, 52
15, 195951, Note_on_c, 13, 57, 0
15, 195951, Note_on_c, 13, 69, 0
15, 195960, Note_on_c, 13, 69, 52
15, 195960, Note_on_c, 13, 57, 52
15, 196011, Note_on_c, 13, 69, 0
15, 196011, Note_on_c, 13, 57, 0
15, 196020, Note_on_c, 13, 69, 52
15, 196020, Note_on_c, 13, 57, 52
15, 196071, Note_on_c, 13, 69, 0
15, 196071, Note_on_c, 13, 57, 0
15, 196080, Note_on_c, 13, 57, 52
15, 196080, Note_on_c, 13, 69, 52
15, 196131, Note_on_c, 13, 57, 0
15, 196131, Note_on_c, 13, 69, 0
15, 196140, Note_on_c, 13, 57, 52
15, 196140, Note_on_c, 13, 69, 52
15, 196191, Note_on_c, 13, 57, 0
15, 196191, Note_on_c, 13, 69, 0
15, 196200, Note_on_c, 13, 69, 52
15, 196200, Note_on_c, 13, 57, 52
15, 196251, Note_on_c, 13, 69, 0
15, 196251, Note_on_c, 13, 57, 0
15, 196260, Note_on_c, 13, 57, 52
15, 196260, Note_on_c, 13, 69, 52
15, 196311, Note_on_c, 13, 57, 0
15, 196311, Note_on_c, 13, 69, 0
15, 196320, Note_on_c, 13, 57, 52
15, 196320, Note_on_c, 13, 69, 52
15, 196371, Note_on_c, 13, 57, 0
15, 196371, Note_on_c, 13, 69, 0
15, 196380, Note_on_c, 13, 69, 52
15, 196380, Note_on_c, 13, 57, 52
15, 196431, Note_on_c, 13, 69, 0
15, 196431, Note_on_c, 13, 57, 0
15, 196440, Note_on_c, 13, 57, 52
15, 196440, Note_on_c, 13, 69, 52
15, 196491, Note_on_c, 13, 57, 0
15, 196491, Note_on_c, 13, 69, 0
15, 196500, Note_on_c, 13, 69, 52
15, 196500, Note_on_c, 13, 57, 52
15, 196551, Note_on_c, 13, 69, 0
15, 196551, Note_on_c, 13, 57, 0
15, 196560, Note_on_c, 13, 69, 52
15, 196560, Note_on_c, 13, 57, 52
15, 196611, Note_on_c, 13, 69, 0
15, 196611, Note_on_c, 13, 57, 0
15, 196620, Note_on_c, 13, 57, 52
15, 196620, Note_on_c, 13, 69, 52
15, 196671, Note_on_c, 13, 57, 0
15, 196671, Note_on_c, 13, 69, 0
15, 196680, Note_on_c, 13, 69, 52
15, 196680, Note_on_c, 13, 57, 52
15, 196731, Note_on_c, 13, 69, 0
15, 196731, Note_on_c, 13, 57, 0
15, 196740, Note_on_c, 13, 69, 52
15, 196740, Note_on_c, 13, 57, 52
15, 196791, Note_on_c, 13, 69, 0
15, 196791, Note_on_c, 13, 57, 0
15, 196800, Note_on_c, 13, 57, 52
15, 196800, Note_on_c, 13, 69, 52
15, 196851, Note_on_c, 13, 57, 0
15, 196851, Note_on_c, 13, 69, 0
15, 196860, Note_on_c, 13, 69, 52
15, 196860, Note_on_c, 13, 57, 52
15, 196911, Note_on_c, 13, 69, 0
15, 196911, Note_on_c, 13, 57, 0
15, 196920, Note_on_c, 13, 69, 52
15, 196920, Note_on_c, 13, 57, 52
15, 196971, Note_on_c, 13, 69, 0
15, 196971, Note_on_c, 13, 57, 0
15, 196980, Note_on_c, 13, 69, 52
15, 196980, Note_on_c, 13, 57, 52
15, 197031, Note_on_c, 13, 69, 0
15, 197031, Note_on_c, 13, 57, 0
15, 197040, Note_on_c, 13, 57, 52
15, 197040, Note_on_c, 13, 69, 52
15, 197091, Note_on_c, 13, 57, 0
15, 197091, Note_on_c, 13, 69, 0
15, 197100, Note_on_c, 13, 57, 52
15, 197100, Note_on_c, 13, 69, 52
15, 197151, Note_on_c, 13, 57, 0
15, 197151, Note_on_c, 13, 69, 0
15, 197160, Note_on_c, 13, 57, 52
15, 197160, Note_on_c, 13, 69, 52
15, 197211, Note_on_c, 13, 57, 0
15, 197211, Note_on_c, 13, 69, 0
15, 197220, Note_on_c, 13, 57, 52
15, 197220, Note_on_c, 13, 69, 52
15, 197271, Note_on_c, 13, 57, 0
15, 197271, Note_on_c, 13, 69, 0
15, 197280, Note_on_c, 13, 74, 84
15, 197280, Note_on_c, 13, 62, 84
15, 197984, Note_on_c, 13, 74, 0
15, 197984, Note_on_c, 13, 62, 0
15, 198000, Note_on_c, 13, 74, 84
15, 198000, Note_on_c, 13, 62, 84
15, 198179, Note_on_c, 13, 74, 0
15, 198179, Note_on_c, 13, 62, 0
15, 198240, Note_on_c, 13, 69, 84
15, 198419, Note_on_c, 13, 69, 0
15, 198480, Note_on_c, 13, 65, 84
15, 198659, Note_on_c, 13, 65, 0
15, 198720, Note_on_c, 13, 64, 84
15, 198899, Note_on_c, 13, 64, 0
15, 198960, Note_on_c, 13, 63, 84
15, 199139, Note_on_c, 13, 63, 0
15, 199200, Note_on_c, 13, 57, 76
15, 199251, Note_on_c, 13, 57, 0
15, 199260, Note_on_c, 13, 57, 52
15, 199260, Note_on_c, 13, 69, 52
15, 199311, Note_on_c, 13, 57, 0
15, 199311, Note_on_c, 13, 69, 0
15, 199320, Note_on_c, 13, 69, 52
15, 199320, Note_on_c, 13, 57, 52
15, 199371, Note_on_c, 13, 69, 0
15, 199371, Note_on_c, 13, 57, 0
15, 199380, Note_on_c, 13, 57, 52
15, 199380, Note_on_c, 13, 69, 52
15, 199431, Note_on_c, 13, 57, 0
15, 199431, Note_on_c, 13, 69, 0
15, 199440, Note_on_c, 13, 57, 52
15, 199440, Note_on_c, 13, 69, 52
15, 199491, Note_on_c, 13, 57, 0
15, 199491, Note_on_c, 13, 69, 0
15, 199500, Note_on_c, 13, 69, 52
15, 199500, Note_on_c, 13, 57, 52
15, 199551, Note_on_c, 13, 69, 0
15, 199551, Note_on_c, 13, 57, 0
15, 199560, Note_on_c, 13, 69, 52
15, 199560, Note_on_c, 13, 57, 52
15, 199611, Note_on_c, 13, 69, 0
15, 199611, Note_on_c, 13, 57, 0
15, 199620, Note_on_c, 13, 69, 52
15, 199620, Note_on_c, 13, 57, 52
15, 199671, Note_on_c, 13, 69, 0
15, 199671, Note_on_c, 13, 57, 0
15, 199680, Note_on_c, 13, 57, 52
15, 199680, Note_on_c, 13, 69, 52
15, 199731, Note_on_c, 13, 57, 0
15, 199731, Note_on_c, 13, 69, 0
15, 199740, Note_on_c, 13, 69, 52
15, 199740, Note_on_c, 13, 57, 52
15, 199791, Note_on_c, 13, 69, 0
15, 199791, Note_on_c, 13, 57, 0
15, 199800, Note_on_c, 13, 69, 52
15, 199800, Note_on_c, 13, 57, 52
15, 199851, Note_on_c, 13, 69, 0
15, 199851, Note_on_c, 13, 57, 0
15, 199860, Note_on_c, 13, 69, 52
15, 199860, Note_on_c, 13, 57, 52
15, 199911, Note_on_c, 13, 69, 0
15, 199911, Note_on_c, 13, 57, 0
15, 199920, Note_on_c, 13, 69, 52
15, 199920, Note_on_c, 13, 57, 52
15, 199971, Note_on_c, 13, 69, 0
15, 199971, Note_on_c, 13, 57, 0
15, 199980, Note_on_c, 13, 69, 52
15, 199980, Note_on_c, 13, 57, 52
15, 200031, Note_on_c, 13, 69, 0
15, 200031, Note_on_c, 13, 57, 0
15, 200040, Note_on_c, 13, 69, 52
15, 200040, Note_on_c, 13, 57, 52
15, 200091, Note_on_c, 13, 69, 0
15, 200091, Note_on_c, 13, 57, 0
15, 200100, Note_on_c, 13, 57, 52
15, 200100, Note_on_c, 13, 69, 52
15, 200151, Note_on_c, 13, 57, 0
15, 200151, Note_on_c, 13, 69, 0
15, 200160, Note_on_c, 13, 69, 52
15, 200160, Note_on_c, 13, 57, 52
15, 200211, Note_on_c, 13, 69, 0
15, 200211, Note_on_c, 13, 57, 0
15, 200220, Note_on_c, 13, 57, 52
15, 200220, Note_on_c, 13, 69, 52
15, 200271, Note_on_c, 13, 57, 0
15, 200271, Note_on_c, 13, 69, 0
15, 200280, Note_on_c, 13, 69, 52
15, 200280, Note_on_c, 13, 57, 52
15, 200331, Note_on_c, 13, 69, 0
15, 200331, Note_on_c, 13, 57, 0
15, 200340, Note_on_c, 13, 57, 52
15, 200340, Note_on_c, 13, 69, 52
15, 200391, Note_on_c, 13, 57, 0
15, 200391, Note_on_c, 13, 69, 0
15, 200400, Note_on_c, 13, 57, 52
15, 200400, Note_on_c, 13, 69, 52
15, 200451, Note_on_c, 13, 57, 0
15, 200451, Note_on_c, 13, 69, 0
15, 200460, Note_on_c, 13, 57, 52
15, 200460, Note_on_c, 13, 69, 52
15, 200511, Note_on_c, 13, 57, 0
15, 200511, Note_on_c, 13, 69, 0
15, 200520, Note_on_c, 13, 57, 52
15, 200520, Note_on_c, 13, 69, 52
15, 200571, Note_on_c, 13, 57, 0
15, 200571, Note_on_c, 13, 69, 0
15, 200580, Note_on_c, 13, 57, 52
15, 200580, Note_on_c, 13, 69, 52
15, 200631, Note_on_c, 13, 57, 0
15, 200631, Note_on_c, 13, 69, 0
15, 200640, Note_on_c, 13, 69, 52
15, 200640, Note_on_c, 13, 57, 52
15, 200691, Note_on_c, 13, 69, 0
15, 200691, Note_on_c, 13, 57, 0
15, 200700, Note_on_c, 13, 69, 52
15, 200700, Note_on_c, 13, 57, 52
15, 200751, Note_on_c, 13, 69, 0
15, 200751, Note_on_c, 13, 57, 0
15, 200760, Note_on_c, 13, 57, 52
15, 200760, Note_on_c, 13, 69, 52
15, 200811, Note_on_c, 13, 57, 0
15, 200811, Note_on_c, 13, 69, 0
15, 200820, Note_on_c, 13, 57, 52
15, 200820, Note_on_c, 13, 69, 52
15, 200871, Note_on_c, 13, 57, 0
15, 200871, Note_on_c, 13, 69, 0
15, 200880, Note_on_c, 13, 69, 52
15, 200880, Note_on_c, 13, 57, 52
15, 200931, Note_on_c, 13, 69, 0
15, 200931, Note_on_c, 13, 57, 0
15, 200940, Note_on_c, 13, 57, 52
15, 200940, Note_on_c, 13, 69, 52
15, 200991, Note_on_c, 13, 57, 0
15, 200991, Note_on_c, 13, 69, 0
15, 201000, Note_on_c, 13, 57, 52
15, 201000, Note_on_c, 13, 69, 52
15, 201051, Note_on_c, 13, 57, 0
15, 201051, Note_on_c, 13, 69, 0
15, 201060, Note_on_c, 13, 69, 52
15, 201060, Note_on_c, 13, 57, 52
15, 201111, Note_on_c, 13, 69, 0
15, 201111, Note_on_c, 13, 57, 0
15, 201120, Note_on_c, 13, 74, 84
15, 201120, Note_on_c, 13, 62, 84
15, 201824, Note_on_c, 13, 74, 0
15, 201824, Note_on_c, 13, 62, 0
15, 201840, Note_on_c, 13, 74, 84
15, 201840, Note_on_c, 13, 62, 84
15, 202019, Note_on_c, 13, 74, 0
15, 202019, Note_on_c, 13, 62, 0
15, 202080, Note_on_c, 13, 69, 84
15, 202259, Note_on_c, 13, 69, 0
15, 202320, Note_on_c, 13, 65, 84
15, 202499, Note_on_c, 13, 65, 0
15, 202560, Note_on_c, 13, 64, 84
15, 202739, Note_on_c, 13, 64, 0
15, 202800, Note_on_c, 13, 62, 84
15, 202979, Note_on_c, 13, 62, 0
15, 203040, Note_on_c, 13, 61, 52
15, 203091, Note_on_c, 13, 61, 0
15, 203100, Note_on_c, 13, 61, 52
15, 203151, Note_on_c, 13, 61, 0
15, 203160, Note_on_c, 13, 61, 52
15, 203211, Note_on_c, 13, 61, 0
15, 203220, Note_on_c, 13, 61, 52
15, 203271, Note_on_c, 13, 61, 0
15, 203280, Note_on_c, 13, 57, 52
15, 203331, Note_on_c, 13, 57, 0
15, 203340, Note_on_c, 13, 57, 52
15, 203391, Note_on_c, 13, 57, 0
15, 203400, Note_on_c, 13, 57, 52
15, 203451, Note_on_c, 13, 57, 0
15, 203460, Note_on_c, 13, 57, 52
15, 203511, Note_on_c, 13, 57, 0
15, 203520, Note_on_c, 13, 61, 52
15, 203571, Note_on_c, 13, 61, 0
15, 203580, Note_on_c, 13, 61, 52
15, 203631, Note_on_c, 13, 61, 0
15, 203640, Note_on_c, 13, 61, 52
15, 203691, Note_on_c, 13, 61, 0
15, 203700, Note_on_c, 13, 61, 52
15, 203751, Note_on_c, 13, 61, 0
15, 203760, Note_on_c, 13, 62, 76
15, 203811, Note_on_c, 13, 62, 0
15, 203820, Note_on_c, 13, 62, 52
15, 203871, Note_on_c, 13, 62, 0
15, 203880, Note_on_c, 13, 62, 52
15, 203931, Note_on_c, 13, 62, 0
15, 203940, Note_on_c, 13, 62, 52
15, 203991, Note_on_c, 13, 62, 0
15, 204000, Note_on_c, 13, 61, 52
15, 204051, Note_on_c, 13, 61, 0
15, 204060, Note_on_c, 13, 61, 52
15, 204111, Note_on_c, 13, 61, 0
15, 204120, Note_on_c, 13, 61, 52
15, 204171, Note_on_c, 13, 61, 0
15, 204180, Note_on_c, 13, 61, 52
15, 204231, Note_on_c, 13, 61, 0
15, 204240, Note_on_c, 13, 57, 52
15, 204291, Note_on_c, 13, 57, 0
15, 204300, Note_on_c, 13, 57, 52
15, 204351, Note_on_c, 13, 57, 0
15, 204360, Note_on_c, 13, 57, 52
15, 204411, Note_on_c, 13, 57, 0
15, 204420, Note_on_c, 13, 57, 52
15, 204471, Note_on_c, 13, 57, 0
15, 204480, Note_on_c, 13, 61, 52
15, 204531, Note_on_c, 13, 61, 0
15, 204540, Note_on_c, 13, 61, 52
15, 204591, Note_on_c, 13, 61, 0
15, 204600, Note_on_c, 13, 61, 52
15, 204651, Note_on_c, 13, 61, 0
15, 204660, Note_on_c, 13, 61, 52
15, 204711, Note_on_c, 13, 61, 0
15, 204720, Note_on_c, 13, 62, 76
15, 204771, Note_on_c, 13, 62, 0
15, 204780, Note_on_c, 13, 62, 52
15, 204831, Note_on_c, 13, 62, 0
15, 204840, Note_on_c, 13, 62, 52
15, 204891, Note_on_c, 13, 62, 0
15, 204900, Note_on_c, 13, 62, 52
15, 204951, Note_on_c, 13, 62, 0
15, 204960, Note_on_c, 13, 61, 52
15, 205011, Note_on_c, 13, 61, 0
15, 205020, Note_on_c, 13, 61, 52
15, 205071, Note_on_c, 13, 61, 0
15, 205080, Note_on_c, 13, 61, 52
15, 205131, Note_on_c, 13, 61, 0
15, 205140, Note_on_c, 13, 61, 52
15, 205191, Note_on_c, 13, 61, 0
15, 205200, Note_on_c, 13, 57, 52
15, 205251, Note_on_c, 13, 57, 0
15, 205260, Note_on_c, 13, 57, 52
15, 205311, Note_on_c, 13, 57, 0
15, 205320, Note_on_c, 13, 57, 52
15, 205371, Note_on_c, 13, 57, 0
15, 205380, Note_on_c, 13, 57, 52
15, 205431, Note_on_c, 13, 57, 0
15, 205440, Note_on_c, 13, 61, 52
15, 205491, Note_on_c, 13, 61, 0
15, 205500, Note_on_c, 13, 61, 52
15, 205551, Note_on_c, 13, 61, 0
15, 205560, Note_on_c, 13, 61, 52
15, 205611, Note_on_c, 13, 61, 0
15, 205620, Note_on_c, 13, 61, 52
15, 205671, Note_on_c, 13, 61, 0
15, 205680, Note_on_c, 13, 62, 76
15, 205731, Note_on_c, 13, 62, 0
15, 205740, Note_on_c, 13, 62, 52
15, 205791, Note_on_c, 13, 62, 0
15, 205800, Note_on_c, 13, 62, 52
15, 205851, Note_on_c, 13, 62, 0
15, 205860, Note_on_c, 13, 62, 52
15, 205911, Note_on_c, 13, 62, 0
15, 205920, Note_on_c, 13, 61, 52
15, 205971, Note_on_c, 13, 61, 0
15, 205980, Note_on_c, 13, 61, 52
15, 206031, Note_on_c, 13, 61, 0
15, 206040, Note_on_c, 13, 61, 52
15, 206091, Note_on_c, 13, 61, 0
15, 206100, Note_on_c, 13, 61, 52
15, 206151, Note_on_c, 13, 61, 0
15, 206160, Note_on_c, 13, 57, 52
15, 206211, Note_on_c, 13, 57, 0
15, 206220, Note_on_c, 13, 57, 52
15, 206271, Note_on_c, 13, 57, 0
15, 206280, Note_on_c, 13, 57, 52
15, 206331, Note_on_c, 13, 57, 0
15, 206340, Note_on_c, 13, 57, 52
15, 206391, Note_on_c, 13, 57, 0
15, 206400, Note_on_c, 13, 61, 52
15, 206451, Note_on_c, 13, 61, 0
15, 206460, Note_on_c, 13, 61, 52
15, 206511, Note_on_c, 13, 61, 0
15, 206520, Note_on_c, 13, 61, 52
15, 206571, Note_on_c, 13, 61, 0
15, 206580, Note_on_c, 13, 61, 52
15, 206631, Note_on_c, 13, 61, 0
15, 206640, Note_on_c, 13, 62, 76
15, 206691, Note_on_c, 13, 62, 0
15, 206700, Note_on_c, 13, 62, 52
15, 206751, Note_on_c, 13, 62, 0
15, 206760, Note_on_c, 13, 62, 52
15, 206811, Note_on_c, 13, 62, 0
15, 206820, Note_on_c, 13, 62, 52
15, 206871, Note_on_c, 13, 62, 0
15, 206880, Note_on_c, 13, 61, 52
15, 206931, Note_on_c, 13, 61, 0
15, 206940, Note_on_c, 13, 61, 52
15, 206991, Note_on_c, 13, 61, 0
15, 207000, Note_on_c, 13, 61, 52
15, 207051, Note_on_c, 13, 61, 0
15, 207060, Note_on_c, 13, 61, 52
15, 207111, Note_on_c, 13, 61, 0
15, 207120, Note_on_c, 13, 62, 76
15, 207171, Note_on_c, 13, 62, 0
15, 207180, Note_on_c, 13, 62, 52
15, 207231, Note_on_c, 13, 62, 0
15, 207240, Note_on_c, 13, 62, 52
15, 207291, Note_on_c, 13, 62, 0
15, 207300, Note_on_c, 13, 62, 52
15, 207351, Note_on_c, 13, 62, 0
15, 207360, Note_on_c, 13, 61, 52
15, 207411, Note_on_c, 13, 61, 0
15, 207420, Note_on_c, 13, 61, 52
15, 207471, Note_on_c, 13, 61, 0
15, 207480, Note_on_c, 13, 61, 52
15, 207531, Note_on_c, 13, 61, 0
15, 207540, Note_on_c, 13, 61, 52
15, 207591, Note_on_c, 13, 61, 0
15, 207600, Note_on_c, 13, 62, 76
15, 207651, Note_on_c, 13, 62, 0
15, 207660, Note_on_c, 13, 62, 52
15, 207711, Note_on_c, 13, 62, 0
15, 207720, Note_on_c, 13, 62, 52
15, 207771, Note_on_c, 13, 62, 0
15, 207780, Note_on_c, 13, 62, 52
15, 207831, Note_on_c, 13, 62, 0
15, 207840, Note_on_c, 13, 61, 52
15, 207891, Note_on_c, 13, 61, 0
15, 207900, Note_on_c, 13, 61, 52
15, 207951, Note_on_c, 13, 61, 0
15, 207960, Note_on_c, 13, 61, 52
15, 208011, Note_on_c, 13, 61, 0
15, 208020, Note_on_c, 13, 61, 52
15, 208071, Note_on_c, 13, 61, 0
15, 208080, Note_on_c, 13, 62, 76
15, 208131, Note_on_c, 13, 62, 0
15, 208140, Note_on_c, 13, 62, 52
15, 208191, Note_on_c, 13, 62, 0
15, 208200, Note_on_c, 13, 62, 52
15, 208251, Note_on_c, 13, 62, 0
15, 208260, Note_on_c, 13, 62, 52
15, 208311, Note_on_c, 13, 62, 0
15, 208320, Note_on_c, 13, 61, 52
15, 208371, Note_on_c, 13, 61, 0
15, 208380, Note_on_c, 13, 61, 52
15, 208431, Note_on_c, 13, 61, 0
15, 208440, Note_on_c, 13, 61, 52
15, 208491, Note_on_c, 13, 61, 0
15, 208500, Note_on_c, 13, 61, 52
15, 208551, Note_on_c, 13, 61, 0
15, 208560, Note_on_c, 13, 62, 76
15, 208611, Note_on_c, 13, 62, 0
15, 208620, Note_on_c, 13, 62, 52
15, 208671, Note_on_c, 13, 62, 0
15, 208680, Note_on_c, 13, 62, 52
15, 208731, Note_on_c, 13, 62, 0
15, 208740, Note_on_c, 13, 62, 52
15, 208791, Note_on_c, 13, 62, 0
15, 208800, Note_on_c, 13, 57, 84
15, 210704, Note_on_c, 13, 57, 0
15, 210720, Note_on_c, 13, 57, 84
15, 211304, Note_on_c, 13, 57, 0
15, 211320, Note_on_c, 13, 69, 84
15, 211424, Note_on_c, 13, 69, 0
15, 211440, Note_on_c, 13, 64, 84
15, 211544, Note_on_c, 13, 64, 0
15, 211560, Note_on_c, 13, 61, 84
15, 211664, Note_on_c, 13, 61, 0
15, 211680, Note_on_c, 13, 57, 84
15, 211784, Note_on_c, 13, 57, 0
15, 211800, Note_on_c, 13, 69, 84
15, 211904, Note_on_c, 13, 69, 0
15, 211920, Note_on_c, 13, 64, 84
15, 212024, Note_on_c, 13, 64, 0
15, 212040, Note_on_c, 13, 61, 84
15, 212144, Note_on_c, 13, 61, 0
15, 212160, Note_on_c, 13, 57, 84
15, 212264, Note_on_c, 13, 57, 0
15, 212280, Note_on_c, 13, 69, 84
15, 212384, Note_on_c, 13, 69, 0
15, 212400, Note_on_c, 13, 64, 84
15, 212504, Note_on_c, 13, 64, 0
15, 212520, Note_on_c, 13, 61, 84
15, 212624, Note_on_c, 13, 61, 0
15, 212640, Note_on_c, 13, 57, 84
15, 212879, Note_on_c, 13, 57, 0
15, 213600, Note_on_c, 13, 57, 76
15, 213839, Note_on_c, 13, 57, 0
15, 216240, Note_on_c, 13, 57, 52
15, 216299, Note_on_c, 13, 57, 0
15, 216300, Note_on_c, 13, 56, 52
15, 216359, Note_on_c, 13, 56, 0
15, 216360, Note_on_c, 13, 57, 52
15, 216419, Note_on_c, 13, 57, 0
15, 216420, Note_on_c, 13, 56, 52
15, 216471, Note_on_c, 13, 56, 0
15, 216480, Note_on_c, 13, 57, 76
15, 216719, Note_on_c, 13, 57, 0
15, 217440, Note_on_c, 13, 57, 76
15, 217679, Note_on_c, 13, 57, 0
15, 220080, Control_c, 13, 11, 80
15, 220200, Note_on_c, 13, 57, 76
15, 220239, Note_on_c, 13, 57, 0
15, 220240, Note_on_c, 13, 59, 76
15, 220279, Note_on_c, 13, 59, 0
15, 220280, Note_on_c, 13, 61, 76
15, 220311, Note_on_c, 13, 61, 0
15, 220320, Note_on_c, 13, 62, 76
15, 221024, Note_on_c, 13, 62, 0
15, 221040, Note_on_c, 13, 50, 76
15, 221099, Note_on_c, 13, 50, 0
15, 221100, Note_on_c, 13, 49, 76
15, 221159, Note_on_c, 13, 49, 0
15, 221160, Note_on_c, 13, 50, 76
15, 221219, Note_on_c, 13, 50, 0
15, 221220, Note_on_c, 13, 52, 76
15, 221271, Note_on_c, 13, 52, 0
15, 221280, Note_on_c, 13, 53, 76
15, 221984, Note_on_c, 13, 53, 0
15, 222000, Note_on_c, 13, 53, 76
15, 222059, Note_on_c, 13, 53, 0
15, 222060, Note_on_c, 13, 52, 76
15, 222119, Note_on_c, 13, 52, 0
15, 222120, Note_on_c, 13, 53, 76
15, 222179, Note_on_c, 13, 53, 0
15, 222180, Note_on_c, 13, 55, 76
15, 222231, Note_on_c, 13, 55, 0
15, 222240, Note_on_c, 13, 57, 76
15, 222419, Note_on_c, 13, 57, 0
15, 222480, Note_on_c, 13, 57, 76
15, 222659, Note_on_c, 13, 57, 0
15, 222720, Note_on_c, 13, 53, 76
15, 222899, Note_on_c, 13, 53, 0
15, 222960, Note_on_c, 13, 53, 76
15, 223139, Note_on_c, 13, 53, 0
15, 223200, Note_on_c, 13, 50, 76
15, 223304, Note_on_c, 13, 50, 0
15, 223320, Note_on_c, 13, 62, 76
15, 223424, Note_on_c, 13, 62, 0
15, 223440, Note_on_c, 13, 62, 76
15, 223544, Note_on_c, 13, 62, 0
15, 223560, Note_on_c, 13, 62, 76
15, 223664, Note_on_c, 13, 62, 0
15, 223680, Note_on_c, 13, 62, 76
15, 223784, Note_on_c, 13, 62, 0
15, 223800, Note_on_c, 13, 62, 76
15, 223904, Note_on_c, 13, 62, 0
15, 223920, Note_on_c, 13, 62, 76
15, 224024, Note_on_c, 13, 62, 0
15, 224040, Note_on_c, 13, 62, 76
15, 224144, Note_on_c, 13, 62, 0
15, 224160, Control_c, 13, 11, 80
15, 224160, Note_on_c, 13, 62, 76
15, 224264, Note_on_c, 13, 62, 0
15, 224280, Note_on_c, 13, 62, 76
15, 224320, Control_c, 13, 11, 82
15, 224384, Note_on_c, 13, 62, 0
15, 224400, Note_on_c, 13, 62, 76
15, 224480, Control_c, 13, 11, 84
15, 224504, Note_on_c, 13, 62, 0
15, 224520, Note_on_c, 13, 62, 76
15, 224624, Note_on_c, 13, 62, 0
15, 224640, Note_on_c, 13, 62, 76
15, 224640, Control_c, 13, 11, 86
15, 224744, Note_on_c, 13, 62, 0
15, 224760, Note_on_c, 13, 62, 76
15, 224800, Control_c, 13, 11, 88
15, 224864, Note_on_c, 13, 62, 0
15, 224880, Note_on_c, 13, 62, 76
15, 224960, Control_c, 13, 11, 90
15, 224984, Note_on_c, 13, 62, 0
15, 225000, Note_on_c, 13, 62, 76
15, 225104, Note_on_c, 13, 62, 0
15, 225120, Note_on_c, 13, 62, 76
15, 225120, Control_c, 13, 11, 92
15, 225224, Note_on_c, 13, 62, 0
15, 225240, Note_on_c, 13, 62, 76
15, 225280, Control_c, 13, 11, 94
15, 225344, Note_on_c, 13, 62, 0
15, 225360, Note_on_c, 13, 62, 76
15, 225440, Control_c, 13, 11, 96
15, 225464, Note_on_c, 13, 62, 0
15, 225480, Note_on_c, 13, 62, 76
15, 225584, Note_on_c, 13, 62, 0
15, 225600, Control_c, 13, 11, 98
15, 225600, Note_on_c, 13, 62, 76
15, 225704, Note_on_c, 13, 62, 0
15, 225720, Note_on_c, 13, 62, 76
15, 225760, Control_c, 13, 11, 100
15, 225824, Note_on_c, 13, 62, 0
15, 225840, Note_on_c, 13, 62, 76
15, 225920, Control_c, 13, 11, 102
15, 225944, Note_on_c, 13, 62, 0
15, 225960, Note_on_c, 13, 62, 76
15, 226064, Note_on_c, 13, 62, 0
15, 226080, Note_on_c, 13, 60, 76
15, 226080, Control_c, 13, 11, 104
15, 226080, Note_on_c, 13, 62, 76
15, 226184, Note_on_c, 13, 60, 0
15, 226184, Note_on_c, 13, 62, 0
15, 226200, Note_on_c, 13, 62, 76
15, 226200, Note_on_c, 13, 60, 76
15, 226240, Control_c, 13, 11, 105
15, 226304, Note_on_c, 13, 62, 0
15, 226304, Note_on_c, 13, 60, 0
15, 226320, Note_on_c, 13, 62, 76
15, 226320, Note_on_c, 13, 60, 76
15, 226400, Control_c, 13, 11, 107
15, 226424, Note_on_c, 13, 62, 0
15, 226424, Note_on_c, 13, 60, 0
15, 226440, Note_on_c, 13, 62, 76
15, 226440, Note_on_c, 13, 60, 76
15, 226544, Note_on_c, 13, 62, 0
15, 226544, Note_on_c, 13, 60, 0
15, 226560, Note_on_c, 13, 60, 76
15, 226560, Control_c, 13, 11, 109
15, 226560, Note_on_c, 13, 62, 76
15, 226664, Note_on_c, 13, 60, 0
15, 226664, Note_on_c, 13, 62, 0
15, 226680, Note_on_c, 13, 62, 76
15, 226680, Note_on_c, 13, 60, 76
15, 226720, Control_c, 13, 11, 111
15, 226784, Note_on_c, 13, 62, 0
15, 226784, Note_on_c, 13, 60, 0
15, 226800, Note_on_c, 13, 60, 76
15, 226800, Note_on_c, 13, 62, 76
15, 226880, Control_c, 13, 11, 113
15, 226904, Note_on_c, 13, 60, 0
15, 226904, Note_on_c, 13, 62, 0
15, 226920, Note_on_c, 13, 62, 76
15, 226920, Note_on_c, 13, 60, 76
15, 227024, Note_on_c, 13, 62, 0
15, 227024, Note_on_c, 13, 60, 0
15, 227040, Note_on_c, 13, 62, 76
15, 227040, Note_on_c, 13, 60, 76
15, 227040, Control_c, 13, 11, 115
15, 227144, Note_on_c, 13, 62, 0
15, 227144, Note_on_c, 13, 60, 0
15, 227160, Note_on_c, 13, 62, 76
15, 227160, Note_on_c, 13, 60, 76
15, 227200, Control_c, 13, 11, 117
15, 227264, Note_on_c, 13, 62, 0
15, 227264, Note_on_c, 13, 60, 0
15, 227280, Note_on_c, 13, 60, 76
15, 227280, Note_on_c, 13, 62, 76
15, 227360, Control_c, 13, 11, 119
15, 227384, Note_on_c, 13, 60, 0
15, 227384, Note_on_c, 13, 62, 0
15, 227400, Note_on_c, 13, 60, 76
15, 227400, Note_on_c, 13, 62, 76
15, 227504, Note_on_c, 13, 60, 0
15, 227504, Note_on_c, 13, 62, 0
15, 227520, Control_c, 13, 11, 121
15, 227520, Note_on_c, 13, 60, 76
15, 227520, Note_on_c, 13, 62, 76
15, 227624, Note_on_c, 13, 60, 0
15, 227624, Note_on_c, 13, 62, 0
15, 227640, Note_on_c, 13, 60, 76
15, 227640, Note_on_c, 13, 62, 76
15, 227680, Control_c, 13, 11, 123
15, 227744, Note_on_c, 13, 60, 0
15, 227744, Note_on_c, 13, 62, 0
15, 227760, Note_on_c, 13, 60, 76
15, 227760, Note_on_c, 13, 62, 76
15, 227840, Control_c, 13, 11, 125
15, 227864, Note_on_c, 13, 60, 0
15, 227864, Note_on_c, 13, 62, 0
15, 227880, Note_on_c, 13, 62, 76
15, 227880, Note_on_c, 13, 60, 76
15, 227984, Note_on_c, 13, 62, 0
15, 227984, Note_on_c, 13, 60, 0
15, 228000, Note_on_c, 13, 58, 76
15, 228000, Note_on_c, 13, 62, 76
15, 228000, Control_c, 13, 11, 127
15, 228239, Note_on_c, 13, 58, 0
15, 228239, Note_on_c, 13, 62, 0
15, 228720, Note_on_c, 13, 55, 76
15, 228779, Note_on_c, 13, 55, 0
15, 228780, Note_on_c, 13, 54, 76
15, 228839, Note_on_c, 13, 54, 0
15, 228840, Note_on_c, 13, 55, 76
15, 228899, Note_on_c, 13, 55, 0
15, 228900, Note_on_c, 13, 57, 76
15, 228951, Note_on_c, 13, 57, 0
15, 228960, Note_on_c, 13, 58, 76
15, 229139, Note_on_c, 13, 58, 0
15, 229200, Note_on_c, 13, 59, 76
15, 229379, Note_on_c, 13, 59, 0
15, 229440, Note_on_c, 13, 60, 76
15, 229619, Note_on_c, 13, 60, 0
15, 229680, Note_on_c, 13, 62, 76
15, 229859, Note_on_c, 13, 62, 0
15, 229920, Note_on_c, 13, 63, 84
15, 230039, Note_on_c, 13, 63, 0
15, 230040, Note_on_c, 13, 65, 76
15, 230144, Note_on_c, 13, 65, 0
15, 230160, Note_on_c, 13, 67, 76
15, 230249, Note_on_c, 13, 67, 0
15, 230280, Note_on_c, 13, 65, 76
15, 230369, Note_on_c, 13, 65, 0
15, 230400, Note_on_c, 13, 63, 76
15, 230489, Note_on_c, 13, 63, 0
15, 230520, Note_on_c, 13, 65, 76
15, 230609, Note_on_c, 13, 65, 0
15, 230640, Note_on_c, 13, 62, 76
15, 230729, Note_on_c, 13, 62, 0
15, 230760, Note_on_c, 13, 63, 76
15, 230849, Note_on_c, 13, 63, 0
15, 230880, Note_on_c, 13, 60, 76
15, 230969, Note_on_c, 13, 60, 0
15, 231000, Note_on_c, 13, 62, 76
15, 231089, Note_on_c, 13, 62, 0
15, 231120, Note_on_c, 13, 58, 76
15, 231209, Note_on_c, 13, 58, 0
15, 231240, Note_on_c, 13, 60, 76
15, 231329, Note_on_c, 13, 60, 0
15, 231360, Note_on_c, 13, 57, 76
15, 231449, Note_on_c, 13, 57, 0
15, 231480, Note_on_c, 13, 58, 76
15, 231569, Note_on_c, 13, 58, 0
15, 231600, Note_on_c, 13, 55, 76
15, 231689, Note_on_c, 13, 55, 0
15, 231720, Note_on_c, 13, 57, 76
15, 231809, Note_on_c, 13, 57, 0
15, 231840, Note_on_c, 13, 53, 84
15, 232544, Note_on_c, 13, 53, 0
15, 232560, Note_on_c, 13, 53, 76
15, 232619, Note_on_c, 13, 53, 0
15, 232620, Note_on_c, 13, 52, 76
15, 232679, Note_on_c, 13, 52, 0
15, 232680, Note_on_c, 13, 53, 76
15, 232739, Note_on_c, 13, 53, 0
15, 232740, Note_on_c, 13, 55, 76
15, 232791, Note_on_c, 13, 55, 0
15, 232800, Note_on_c, 13, 56, 76
15, 232979, Note_on_c, 13, 56, 0
15, 233040, Note_on_c, 13, 57, 76
15, 233219, Note_on_c, 13, 57, 0
15, 233280, Note_on_c, 13, 58, 76
15, 233459, Note_on_c, 13, 58, 0
15, 233520, Note_on_c, 13, 60, 76
15, 233699, Note_on_c, 13, 60, 0
15, 233760, Note_on_c, 13, 62, 84
15, 233879, Note_on_c, 13, 62, 0
15, 233880, Note_on_c, 13, 63, 76
15, 233984, Note_on_c, 13, 63, 0
15, 234000, Note_on_c, 13, 65, 76
15, 234089, Note_on_c, 13, 65, 0
15, 234120, Note_on_c, 13, 63, 76
15, 234209, Note_on_c, 13, 63, 0
15, 234240, Note_on_c, 13, 62, 76
15, 234329, Note_on_c, 13, 62, 0
15, 234360, Note_on_c, 13, 63, 76
15, 234449, Note_on_c, 13, 63, 0
15, 234480, Note_on_c, 13, 60, 76
15, 234569, Note_on_c, 13, 60, 0
15, 234600, Note_on_c, 13, 62, 76
15, 234689, Note_on_c, 13, 62, 0
15, 234720, Note_on_c, 13, 58, 76
15, 234809, Note_on_c, 13, 58, 0
15, 234840, Note_on_c, 13, 60, 76
15, 234929, Note_on_c, 13, 60, 0
15, 234960, Note_on_c, 13, 57, 76
15, 235049, Note_on_c, 13, 57, 0
15, 235080, Note_on_c, 13, 58, 76
15, 235169, Note_on_c, 13, 58, 0
15, 235200, Note_on_c, 13, 55, 76
15, 235289, Note_on_c, 13, 55, 0
15, 235320, Note_on_c, 13, 57, 76
15, 235409, Note_on_c, 13, 57, 0
15, 235440, Note_on_c, 13, 53, 76
15, 235529, Note_on_c, 13, 53, 0
15, 235560, Note_on_c, 13, 55, 76
15, 235649, Note_on_c, 13, 55, 0
15, 235680, Note_on_c, 13, 52, 76
15, 235859, Note_on_c, 13, 52, 0
15, 235920, Note_on_c, 13, 65, 76
15, 236099, Note_on_c, 13, 65, 0
15, 236160, Note_on_c, 13, 67, 76
15, 236339, Note_on_c, 13, 67, 0
15, 236400, Note_on_c, 13, 68, 76
15, 236579, Note_on_c, 13, 68, 0
15, 236640, Note_on_c, 13, 69, 84
15, 237584, Note_on_c, 13, 69, 0
15, 237600, Note_on_c, 13, 62, 76
15, 237779, Note_on_c, 13, 62, 0
15, 237840, Note_on_c, 13, 64, 76
15, 238019, Note_on_c, 13, 64, 0
15, 238080, Note_on_c, 13, 65, 76
15, 238259, Note_on_c, 13, 65, 0
15, 238320, Note_on_c, 13, 66, 76
15, 238499, Note_on_c, 13, 66, 0
15, 238560, Note_on_c, 13, 67, 84
15, 239504, Note_on_c, 13, 67, 0
15, 239520, Note_on_c, 13, 60, 92
15, 241424, Note_on_c, 13, 60, 0
15, 241440, Note_on_c, 13, 59, 92
15, 243344, Note_on_c, 13, 59, 0
15, 243360, Note_on_c, 13, 61, 92
15, 244304, Note_on_c, 13, 61, 0
15, 244320, Note_on_c, 13, 61, 92
15, 245024, Note_on_c, 13, 61, 0
15, 245040, Note_on_c, 13, 57, 84
15, 245264, Note_on_c, 13, 57, 0
15, 245280, Note_on_c, 13, 62, 92
15, 246224, Note_on_c, 13, 62, 0
15, 246240, Note_on_c, 13, 62, 92
15, 246944, Note_on_c, 13, 62, 0
15, 246960, Note_on_c, 13, 60, 84
15, 247184, Note_on_c, 13, 60, 0
15, 247200, Note_on_c, 13, 59, 84
15, 247251, Note_on_c, 13, 59, 0
15, 247260, Note_on_c, 13, 67, 84
15, 247311, Note_on_c, 13, 67, 0
15, 247320, Note_on_c, 13, 67, 84
15, 247371, Note_on_c, 13, 67, 0
15, 247380, Note_on_c, 13, 67, 84
15, 247431, Note_on_c, 13, 67, 0
15, 247440, Note_on_c, 13, 67, 84
15, 247491, Note_on_c, 13, 67, 0
15, 247500, Note_on_c, 13, 67, 84
15, 247551, Note_on_c, 13, 67, 0
15, 247560, Note_on_c, 13, 67, 84
15, 247611, Note_on_c, 13, 67, 0
15, 247620, Note_on_c, 13, 67, 84
15, 247671, Note_on_c, 13, 67, 0
15, 247680, Note_on_c, 13, 67, 84
15, 247731, Note_on_c, 13, 67, 0
15, 247740, Note_on_c, 13, 67, 84
15, 247791, Note_on_c, 13, 67, 0
15, 247800, Note_on_c, 13, 67, 84
15, 247851, Note_on_c, 13, 67, 0
15, 247860, Note_on_c, 13, 67, 84
15, 247911, Note_on_c, 13, 67, 0
15, 247920, Note_on_c, 13, 67, 84
15, 247971, Note_on_c, 13, 67, 0
15, 247980, Note_on_c, 13, 67, 84
15, 248031, Note_on_c, 13, 67, 0
15, 248040, Note_on_c, 13, 67, 84
15, 248091, Note_on_c, 13, 67, 0
15, 248100, Note_on_c, 13, 67, 84
15, 248151, Note_on_c, 13, 67, 0
15, 248160, Note_on_c, 13, 67, 84
15, 248211, Note_on_c, 13, 67, 0
15, 248220, Note_on_c, 13, 67, 84
15, 248271, Note_on_c, 13, 67, 0
15, 248280, Note_on_c, 13, 67, 84
15, 248331, Note_on_c, 13, 67, 0
15, 248340, Note_on_c, 13, 67, 84
15, 248391, Note_on_c, 13, 67, 0
15, 248400, Note_on_c, 13, 67, 84
15, 248451, Note_on_c, 13, 67, 0
15, 248460, Note_on_c, 13, 67, 84
15, 248511, Note_on_c, 13, 67, 0
15, 248520, Note_on_c, 13, 67, 84
15, 248571, Note_on_c, 13, 67, 0
15, 248580, Note_on_c, 13, 67, 84
15, 248631, Note_on_c, 13, 67, 0
15, 248640, Note_on_c, 13, 67, 84
15, 248691, Note_on_c, 13, 67, 0
15, 248700, Note_on_c, 13, 67, 84
15, 248751, Note_on_c, 13, 67, 0
15, 248760, Note_on_c, 13, 67, 84
15, 248811, Note_on_c, 13, 67, 0
15, 248820, Note_on_c, 13, 67, 84
15, 248871, Note_on_c, 13, 67, 0
15, 248880, Note_on_c, 13, 67, 84
15, 248931, Note_on_c, 13, 67, 0
15, 248940, Note_on_c, 13, 67, 84
15, 248991, Note_on_c, 13, 67, 0
15, 249000, Note_on_c, 13, 67, 84
15, 249051, Note_on_c, 13, 67, 0
15, 249060, Note_on_c, 13, 67, 84
15, 249111, Note_on_c, 13, 67, 0
15, 249120, Note_on_c, 13, 64, 84
15, 249171, Note_on_c, 13, 64, 0
15, 249180, Note_on_c, 13, 64, 84
15, 249231, Note_on_c, 13, 64, 0
15, 249240, Note_on_c, 13, 64, 84
15, 249291, Note_on_c, 13, 64, 0
15, 249300, Note_on_c, 13, 64, 84
15, 249351, Note_on_c, 13, 64, 0
15, 249360, Note_on_c, 13, 64, 84
15, 249411, Note_on_c, 13, 64, 0
15, 249420, Note_on_c, 13, 64, 84
15, 249471, Note_on_c, 13, 64, 0
15, 249480, Note_on_c, 13, 64, 84
15, 249531, Note_on_c, 13, 64, 0
15, 249540, Note_on_c, 13, 64, 84
15, 249591, Note_on_c, 13, 64, 0
15, 249600, Note_on_c, 13, 64, 84
15, 249651, Note_on_c, 13, 64, 0
15, 249660, Note_on_c, 13, 64, 84
15, 249711, Note_on_c, 13, 64, 0
15, 249720, Note_on_c, 13, 64, 84
15, 249771, Note_on_c, 13, 64, 0
15, 249780, Note_on_c, 13, 64, 84
15, 249831, Note_on_c, 13, 64, 0
15, 249840, Note_on_c, 13, 64, 84
15, 249891, Note_on_c, 13, 64, 0
15, 249900, Note_on_c, 13, 64, 84
15, 249951, Note_on_c, 13, 64, 0
15, 249960, Note_on_c, 13, 64, 84
15, 250011, Note_on_c, 13, 64, 0
15, 250020, Note_on_c, 13, 64, 84
15, 250071, Note_on_c, 13, 64, 0
15, 250080, Note_on_c, 13, 64, 84
15, 250131, Note_on_c, 13, 64, 0
15, 250140, Note_on_c, 13, 64, 84
15, 250191, Note_on_c, 13, 64, 0
15, 250200, Note_on_c, 13, 64, 84
15, 250251, Note_on_c, 13, 64, 0
15, 250260, Note_on_c, 13, 64, 84
15, 250311, Note_on_c, 13, 64, 0
15, 250320, Note_on_c, 13, 64, 84
15, 250371, Note_on_c, 13, 64, 0
15, 250380, Note_on_c, 13, 64, 84
15, 250431, Note_on_c, 13, 64, 0
15, 250440, Note_on_c, 13, 64, 84
15, 250491, Note_on_c, 13, 64, 0
15, 250500, Note_on_c, 13, 64, 84
15, 250551, Note_on_c, 13, 64, 0
15, 250560, Note_on_c, 13, 64, 84
15, 250611, Note_on_c, 13, 64, 0
15, 250620, Note_on_c, 13, 64, 84
15, 250671, Note_on_c, 13, 64, 0
15, 250680, Note_on_c, 13, 64, 84
15, 250731, Note_on_c, 13, 64, 0
15, 250740, Note_on_c, 13, 64, 84
15, 250791, Note_on_c, 13, 64, 0
15, 250800, Note_on_c, 13, 64, 84
15, 250851, Note_on_c, 13, 64, 0
15, 250860, Note_on_c, 13, 64, 84
15, 250911, Note_on_c, 13, 64, 0
15, 250920, Note_on_c, 13, 64, 84
15, 250971, Note_on_c, 13, 64, 0
15, 250980, Note_on_c, 13, 64, 84
15, 251031, Note_on_c, 13, 64, 0
15, 251040, Note_on_c, 13, 62, 84
15, 251219, Note_on_c, 13, 62, 0
15, 251280, Note_on_c, 13, 62, 84
15, 251339, Note_on_c, 13, 62, 0
15, 251340, Note_on_c, 13, 61, 84
15, 251399, Note_on_c, 13, 61, 0
15, 251400, Note_on_c, 13, 62, 84
15, 251459, Note_on_c, 13, 62, 0
15, 251460, Note_on_c, 13, 64, 84
15, 251511, Note_on_c, 13, 64, 0
15, 251520, Note_on_c, 13, 66, 84
15, 251699, Note_on_c, 13, 66, 0
15, 251760, Note_on_c, 13, 66, 84
15, 251819, Note_on_c, 13, 66, 0
15, 251820, Note_on_c, 13, 64, 84
15, 251879, Note_on_c, 13, 64, 0
15, 251880, Note_on_c, 13, 66, 84
15, 251939, Note_on_c, 13, 66, 0
15, 251940, Note_on_c, 13, 67, 84
15, 251991, Note_on_c, 13, 67, 0
15, 252000, Note_on_c, 13, 69, 84
15, 252179, Note_on_c, 13, 69, 0
15, 252240, Note_on_c, 13, 69, 84
15, 252299, Note_on_c, 13, 69, 0
15, 252300, Note_on_c, 13, 68, 84
15, 252359, Note_on_c, 13, 68, 0
15, 252360, Note_on_c, 13, 69, 84
15, 252419, Note_on_c, 13, 69, 0
15, 252420, Note_on_c, 13, 71, 84
15, 252471, Note_on_c, 13, 71, 0
15, 252480, Note_on_c, 13, 72, 92
15, 253184, Note_on_c, 13, 72, 0
15, 253200, Note_on_c, 13, 72, 84
15, 253259, Note_on_c, 13, 72, 0
15, 253260, Note_on_c, 13, 74, 84
15, 253319, Note_on_c, 13, 74, 0
15, 253320, Note_on_c, 13, 72, 84
15, 253379, Note_on_c, 13, 72, 0
15, 253380, Note_on_c, 13, 71, 84
15, 253431, Note_on_c, 13, 71, 0
15, 253440, Note_on_c, 13, 69, 84
15, 253619, Note_on_c, 13, 69, 0
15, 253680, Note_on_c, 13, 69, 84
15, 253739, Note_on_c, 13, 69, 0
15, 253740, Note_on_c, 13, 71, 84
15, 253799, Note_on_c, 13, 71, 0
15, 253800, Note_on_c, 13, 69, 84
15, 253859, Note_on_c, 13, 69, 0
15, 253860, Note_on_c, 13, 67, 84
15, 253911, Note_on_c, 13, 67, 0
15, 253920, Note_on_c, 13, 66, 84
15, 254099, Note_on_c, 13, 66, 0
15, 254160, Note_on_c, 13, 66, 84
15, 254219, Note_on_c, 13, 66, 0
15, 254220, Note_on_c, 13, 67, 84
15, 254279, Note_on_c, 13, 67, 0
15, 254280, Note_on_c, 13, 66, 84
15, 254339, Note_on_c, 13, 66, 0
15, 254340, Note_on_c, 13, 64, 84
15, 254391, Note_on_c, 13, 64, 0
15, 254400, Note_on_c, 13, 62, 92
15, 255104, Note_on_c, 13, 62, 0
15, 255120, Note_on_c, 13, 62, 84
15, 255179, Note_on_c, 13, 62, 0
15, 255180, Note_on_c, 13, 61, 84
15, 255239, Note_on_c, 13, 61, 0
15, 255240, Note_on_c, 13, 62, 84
15, 255299, Note_on_c, 13, 62, 0
15, 255300, Note_on_c, 13, 64, 84
15, 255351, Note_on_c, 13, 64, 0
15, 255360, Note_on_c, 13, 66, 84
15, 255539, Note_on_c, 13, 66, 0
15, 255600, Note_on_c, 13, 66, 84
15, 255659, Note_on_c, 13, 66, 0
15, 255660, Note_on_c, 13, 64, 84
15, 255719, Note_on_c, 13, 64, 0
15, 255720, Note_on_c, 13, 66, 84
15, 255779, Note_on_c, 13, 66, 0
15, 255780, Note_on_c, 13, 67, 84
15, 255831, Note_on_c, 13, 67, 0
15, 255840, Note_on_c, 13, 69, 84
15, 256019, Note_on_c, 13, 69, 0
15, 256080, Note_on_c, 13, 69, 84
15, 256139, Note_on_c, 13, 69, 0
15, 256140, Note_on_c, 13, 68, 84
15, 256199, Note_on_c, 13, 68, 0
15, 256200, Note_on_c, 13, 69, 84
15, 256259, Note_on_c, 13, 69, 0
15, 256260, Note_on_c, 13, 71, 84
15, 256311, Note_on_c, 13, 71, 0
15, 256320, Note_on_c, 13, 72, 92
15, 257024, Note_on_c, 13, 72, 0
15, 257040, Note_on_c, 13, 72, 84
15, 257099, Note_on_c, 13, 72, 0
15, 257100, Note_on_c, 13, 74, 84
15, 257159, Note_on_c, 13, 74, 0
15, 257160, Note_on_c, 13, 72, 84
15, 257219, Note_on_c, 13, 72, 0
15, 257220, Note_on_c, 13, 71, 84
15, 257271, Note_on_c, 13, 71, 0
15, 257280, Note_on_c, 13, 69, 84
15, 257459, Note_on_c, 13, 69, 0
15, 257520, Note_on_c, 13, 69, 84
15, 257579, Note_on_c, 13, 69, 0
15, 257580, Note_on_c, 13, 71, 84
15, 257639, Note_on_c, 13, 71, 0
15, 257640, Note_on_c, 13, 69, 84
15, 257699, Note_on_c, 13, 69, 0
15, 257700, Note_on_c, 13, 67, 84
15, 257751, Note_on_c, 13, 67, 0
15, 257760, Note_on_c, 13, 66, 84
15, 257939, Note_on_c, 13, 66, 0
15, 258000, Note_on_c, 13, 66, 84
15, 258059, Note_on_c, 13, 66, 0
15, 258060, Note_on_c, 13, 67, 84
15, 258119, Note_on_c, 13, 67, 0
15, 258120, Note_on_c, 13, 66, 84
15, 258179, Note_on_c, 13, 66, 0
15, 258180, Note_on_c, 13, 64, 84
15, 258231, Note_on_c, 13, 64, 0
15, 258240, Note_on_c, 13, 62, 92
15, 258944, Note_on_c, 13, 62, 0
15, 258960, Note_on_c, 13, 66, 52
15, 259439, Note_on_c, 13, 66, 0
15, 259440, Note_on_c, 13, 67, 52
15, 259664, Note_on_c, 13, 67, 0
15, 259680, Note_on_c, 13, 66, 52
15, 260399, Note_on_c, 13, 66, 0
15, 260400, Note_on_c, 13, 67, 52
15, 260624, Note_on_c, 13, 67, 0
15, 260640, Note_on_c, 13, 66, 52
15, 260879, Note_on_c, 13, 66, 0
15, 261120, Note_on_c, 13, 62, 44
15, 261359, Note_on_c, 13, 62, 0
15, 261600, Note_on_c, 13, 62, 44
15, 261839, Note_on_c, 13, 62, 0
15, 262560, Note_on_c, 13, 55, 52
15, 262664, Note_on_c, 13, 55, 0
15, 262680, Note_on_c, 13, 67, 52
15, 262784, Note_on_c, 13, 67, 0
15, 262800, Note_on_c, 13, 67, 52
15, 262904, Note_on_c, 13, 67, 0
15, 262920, Note_on_c, 13, 67, 52
15, 263024, Note_on_c, 13, 67, 0
15, 263040, Note_on_c, 13, 55, 52
15, 263144, Note_on_c, 13, 55, 0
15, 263160, Note_on_c, 13, 67, 52
15, 263264, Note_on_c, 13, 67, 0
15, 263280, Note_on_c, 13, 67, 52
15, 263384, Note_on_c, 13, 67, 0
15, 263400, Note_on_c, 13, 67, 52
15, 263504, Note_on_c, 13, 67, 0
15, 263520, Note_on_c, 13, 55, 52
15, 263624, Note_on_c, 13, 55, 0
15, 263640, Note_on_c, 13, 67, 52
15, 263744, Note_on_c, 13, 67, 0
15, 263760, Note_on_c, 13, 67, 52
15, 263864, Note_on_c, 13, 67, 0
15, 263880, Note_on_c, 13, 67, 52
15, 263984, Note_on_c, 13, 67, 0
15, 264000, Note_on_c, 13, 67, 52
15, 264104, Note_on_c, 13, 67, 0
15, 264120, Note_on_c, 13, 67, 52
15, 264224, Note_on_c, 13, 67, 0
15, 264240, Note_on_c, 13, 67, 52
15, 264344, Note_on_c, 13, 67, 0
15, 264360, Note_on_c, 13, 67, 52
15, 264464, Note_on_c, 13, 67, 0
15, 264480, Note_on_c, 13, 67, 52
15, 264584, Note_on_c, 13, 67, 0
15, 264600, Note_on_c, 13, 67, 52
15, 264704, Note_on_c, 13, 67, 0
15, 264720, Note_on_c, 13, 67, 52
15, 264824, Note_on_c, 13, 67, 0
15, 264840, Note_on_c, 13, 67, 52
15, 264944, Note_on_c, 13, 67, 0
15, 264960, Note_on_c, 13, 67, 52
15, 265064, Note_on_c, 13, 67, 0
15, 265080, Note_on_c, 13, 67, 52
15, 265184, Note_on_c, 13, 67, 0
15, 265200, Note_on_c, 13, 67, 52
15, 265304, Note_on_c, 13, 67, 0
15, 265320, Note_on_c, 13, 67, 52
15, 265424, Note_on_c, 13, 67, 0
15, 265440, Note_on_c, 13, 67, 52
15, 265544, Note_on_c, 13, 67, 0
15, 265560, Note_on_c, 13, 67, 52
15, 265664, Note_on_c, 13, 67, 0
15, 265680, Note_on_c, 13, 67, 52
15, 265784, Note_on_c, 13, 67, 0
15, 265800, Note_on_c, 13, 67, 52
15, 265904, Note_on_c, 13, 67, 0
15, 265920, Note_on_c, 13, 55, 52
15, 266024, Note_on_c, 13, 55, 0
15, 266040, Note_on_c, 13, 67, 52
15, 266144, Note_on_c, 13, 67, 0
15, 266160, Note_on_c, 13, 62, 52
15, 266264, Note_on_c, 13, 62, 0
15, 266280, Note_on_c, 13, 59, 52
15, 266384, Note_on_c, 13, 59, 0
15, 266400, Note_on_c, 13, 55, 52
15, 266639, Note_on_c, 13, 55, 0
15, 267360, Note_on_c, 13, 55, 52
15, 267539, Note_on_c, 13, 55, 0
15, 267600, Note_on_c, 13, 55, 52
15, 267779, Note_on_c, 13, 55, 0
15, 267840, Note_on_c, 13, 55, 52
15, 268019, Note_on_c, 13, 55, 0
15, 268080, Note_on_c, 13, 54, 52
15, 268259, Note_on_c, 13, 54, 0
15, 268320, Note_on_c, 13, 55, 52
15, 268559, Note_on_c, 13, 55, 0
15, 269280, Note_on_c, 13, 55, 52
15, 269459, Note_on_c, 13, 55, 0
15, 269520, Note_on_c, 13, 55, 52
15, 269699, Note_on_c, 13, 55, 0
15, 269760, Note_on_c, 13, 55, 52
15, 269939, Note_on_c, 13, 55, 0
15, 270000, Note_on_c, 13, 56, 52
15, 270179, Note_on_c, 13, 56, 0
15, 270240, Note_on_c, 13, 57, 52
15, 270479, Note_on_c, 13, 57, 0
15, 271200, Note_on_c, 13, 57, 52
15, 271379, Note_on_c, 13, 57, 0
15, 271440, Note_on_c, 13, 57, 52
15, 271619, Note_on_c, 13, 57, 0
15, 271680, Note_on_c, 13, 57, 52
15, 271859, Note_on_c, 13, 57, 0
15, 271920, Note_on_c, 13, 56, 52
15, 272099, Note_on_c, 13, 56, 0
15, 272160, Note_on_c, 13, 57, 52
15, 272399, Note_on_c, 13, 57, 0
15, 273120, Note_on_c, 13, 57, 52
15, 273299, Note_on_c, 13, 57, 0
15, 273360, Note_on_c, 13, 57, 52
15, 273539, Note_on_c, 13, 57, 0
15, 273600, Note_on_c, 13, 57, 52
15, 273779, Note_on_c, 13, 57, 0
15, 273840, Note_on_c, 13, 58, 52
15, 274019, Note_on_c, 13, 58, 0
15, 274080, Note_on_c, 13, 59, 52
15, 274319, Note_on_c, 13, 59, 0
15, 274800, Control_c, 13, 11, 80
15, 275040, Note_on_c, 13, 71, 76
15, 275040, Control_c, 13, 11, 80
15, 275120, Control_c, 13, 11, 84
15, 275200, Control_c, 13, 11, 88
15, 275264, Note_on_c, 13, 71, 0
15, 275280, Note_on_c, 13, 71, 76
15, 275280, Control_c, 13, 11, 92
15, 275360, Control_c, 13, 11, 96
15, 275440, Control_c, 13, 11, 100
15, 275504, Note_on_c, 13, 71, 0
15, 275520, Control_c, 13, 11, 104
15, 275520, Note_on_c, 13, 71, 76
15, 275600, Control_c, 13, 11, 107
15, 275680, Control_c, 13, 11, 111
15, 275744, Note_on_c, 13, 71, 0
15, 275760, Note_on_c, 13, 71, 76
15, 275760, Control_c, 13, 11, 115
15, 275840, Control_c, 13, 11, 119
15, 275920, Control_c, 13, 11, 123
15, 275984, Note_on_c, 13, 71, 0
15, 276000, Note_on_c, 13, 59, 76
15, 276000, Control_c, 13, 11, 127
15, 276104, Note_on_c, 13, 59, 0
15, 276120, Note_on_c, 13, 71, 76
15, 276224, Note_on_c, 13, 71, 0
15, 276240, Note_on_c, 13, 71, 76
15, 276344, Note_on_c, 13, 71, 0
15, 276360, Note_on_c, 13, 71, 76
15, 276464, Note_on_c, 13, 71, 0
15, 276480, Note_on_c, 13, 71, 76
15, 276584, Note_on_c, 13, 71, 0
15, 276600, Note_on_c, 13, 71, 76
15, 276704, Note_on_c, 13, 71, 0
15, 276720, Note_on_c, 13, 71, 76
15, 276824, Note_on_c, 13, 71, 0
15, 276840, Note_on_c, 13, 71, 76
15, 276944, Note_on_c, 13, 71, 0
15, 276960, Note_on_c, 13, 72, 84
15, 277064, Note_on_c, 13, 72, 0
15, 277080, Note_on_c, 13, 72, 84
15, 277184, Note_on_c, 13, 72, 0
15, 277200, Note_on_c, 13, 72, 84
15, 277304, Note_on_c, 13, 72, 0
15, 277320, Note_on_c, 13, 72, 84
15, 277424, Note_on_c, 13, 72, 0
15, 277440, Note_on_c, 13, 72, 84
15, 277544, Note_on_c, 13, 72, 0
15, 277560, Note_on_c, 13, 72, 84
15, 277664, Note_on_c, 13, 72, 0
15, 277680, Note_on_c, 13, 72, 84
15, 277784, Note_on_c, 13, 72, 0
15, 277800, Note_on_c, 13, 72, 84
15, 277904, Note_on_c, 13, 72, 0
15, 277920, Note_on_c, 13, 73, 84
15, 278009, Note_on_c, 13, 73, 0
15, 278040, Note_on_c, 13, 72, 84
15, 278129, Note_on_c, 13, 72, 0
15, 278160, Note_on_c, 13, 73, 84
15, 278249, Note_on_c, 13, 73, 0
15, 278280, Note_on_c, 13, 72, 84
15, 278369, Note_on_c, 13, 72, 0
15, 278400, Note_on_c, 13, 73, 84
15, 278489, Note_on_c, 13, 73, 0
15, 278520, Note_on_c, 13, 74, 84
15, 278609, Note_on_c, 13, 74, 0
15, 278640, Note_on_c, 13, 73, 84
15, 278729, Note_on_c, 13, 73, 0
15, 278760, Note_on_c, 13, 71, 84
15, 278849, Note_on_c, 13, 71, 0
15, 278880, Note_on_c, 13, 69, 84
15, 278969, Note_on_c, 13, 69, 0
15, 279000, Note_on_c, 13, 73, 84
15, 279089, Note_on_c, 13, 73, 0
15, 279120, Note_on_c, 13, 72, 84
15, 279209, Note_on_c, 13, 72, 0
15, 279240, Note_on_c, 13, 73, 84
15, 279329, Note_on_c, 13, 73, 0
15, 279360, Note_on_c, 13, 71, 84
15, 279449, Note_on_c, 13, 71, 0
15, 279480, Note_on_c, 13, 69, 84
15, 279569, Note_on_c, 13, 69, 0
15, 279600, Note_on_c, 13, 68, 84
15, 279689, Note_on_c, 13, 68, 0
15, 279720, Note_on_c, 13, 66, 84
15, 279809, Note_on_c, 13, 66, 0
15, 279840, Note_on_c, 13, 65, 84
15, 279929, Note_on_c, 13, 65, 0
15, 279960, Note_on_c, 13, 66, 84
15, 280049, Note_on_c, 13, 66, 0
15, 280080, Note_on_c, 13, 68, 84
15, 280169, Note_on_c, 13, 68, 0
15, 280200, Note_on_c, 13, 66, 84
15, 280289, Note_on_c, 13, 66, 0
15, 280320, Note_on_c, 13, 65, 84
15, 280409, Note_on_c, 13, 65, 0
15, 280440, Note_on_c, 13, 61, 84
15, 280529, Note_on_c, 13, 61, 0
15, 280560, Note_on_c, 13, 63, 84
15, 280649, Note_on_c, 13, 63, 0
15, 280680, Note_on_c, 13, 65, 84
15, 280769, Note_on_c, 13, 65, 0
15, 280800, Note_on_c, 13, 66, 84
15, 280889, Note_on_c, 13, 66, 0
15, 280920, Note_on_c, 13, 65, 84
15, 281009, Note_on_c, 13, 65, 0
15, 281040, Note_on_c, 13, 66, 84
15, 281129, Note_on_c, 13, 66, 0
15, 281160, Note_on_c, 13, 68, 84
15, 281249, Note_on_c, 13, 68, 0
15, 281280, Note_on_c, 13, 69, 84
15, 281369, Note_on_c, 13, 69, 0
15, 281400, Note_on_c, 13, 68, 84
15, 281489, Note_on_c, 13, 68, 0
15, 281520, Note_on_c, 13, 69, 84
15, 281609, Note_on_c, 13, 69, 0
15, 281640, Note_on_c, 13, 71, 84
15, 281729, Note_on_c, 13, 71, 0
15, 281760, Note_on_c, 13, 73, 84
15, 281849, Note_on_c, 13, 73, 0
15, 281880, Note_on_c, 13, 72, 84
15, 281969, Note_on_c, 13, 72, 0
15, 282000, Note_on_c, 13, 73, 84
15, 282089, Note_on_c, 13, 73, 0
15, 282120, Note_on_c, 13, 72, 84
15, 282209, Note_on_c, 13, 72, 0
15, 282240, Note_on_c, 13, 73, 84
15, 282329, Note_on_c, 13, 73, 0
15, 282360, Note_on_c, 13, 74, 84
15, 282449, Note_on_c, 13, 74, 0
15, 282480, Note_on_c, 13, 73, 84
15, 282569, Note_on_c, 13, 73, 0
15, 282600, Note_on_c, 13, 71, 84
15, 282689, Note_on_c, 13, 71, 0
15, 282720, Note_on_c, 13, 69, 84
15, 282809, Note_on_c, 13, 69, 0
15, 282840, Note_on_c, 13, 73, 84
15, 282929, Note_on_c, 13, 73, 0
15, 282960, Note_on_c, 13, 72, 84
15, 283049, Note_on_c, 13, 72, 0
15, 283080, Note_on_c, 13, 73, 84
15, 283169, Note_on_c, 13, 73, 0
15, 283200, Note_on_c, 13, 71, 84
15, 283289, Note_on_c, 13, 71, 0
15, 283320, Note_on_c, 13, 69, 84
15, 283409, Note_on_c, 13, 69, 0
15, 283440, Note_on_c, 13, 68, 84
15, 283529, Note_on_c, 13, 68, 0
15, 283560, Note_on_c, 13, 66, 84
15, 283649, Note_on_c, 13, 66, 0
15, 283680, Note_on_c, 13, 65, 84
15, 283769, Note_on_c, 13, 65, 0
15, 283800, Note_on_c, 13, 66, 84
15, 283889, Note_on_c, 13, 66, 0
15, 283920, Note_on_c, 13, 68, 84
15, 284009, Note_on_c, 13, 68, 0
15, 284040, Note_on_c, 13, 66, 84
15, 284129, Note_on_c, 13, 66, 0
15, 284160, Note_on_c, 13, 65, 84
15, 284249, Note_on_c, 13, 65, 0
15, 284280, Note_on_c, 13, 61, 84
15, 284369, Note_on_c, 13, 61, 0
15, 284400, Note_on_c, 13, 63, 84
15, 284489, Note_on_c, 13, 63, 0
15, 284520, Note_on_c, 13, 65, 84
15, 284609, Note_on_c, 13, 65, 0
15, 284640, Note_on_c, 13, 66, 84
15, 284729, Note_on_c, 13, 66, 0
15, 284760, Note_on_c, 13, 65, 84
15, 284849, Note_on_c, 13, 65, 0
15, 284880, Note_on_c, 13, 66, 84
15, 284969, Note_on_c, 13, 66, 0
15, 285000, Note_on_c, 13, 68, 84
15, 285089, Note_on_c, 13, 68, 0
15, 285120, Note_on_c, 13, 69, 84
15, 285209, Note_on_c, 13, 69, 0
15, 285240, Note_on_c, 13, 70, 84
15, 285329, Note_on_c, 13, 70, 0
15, 285360, Note_on_c, 13, 71, 84
15, 285449, Note_on_c, 13, 71, 0
15, 285480, Note_on_c, 13, 72, 84
15, 285569, Note_on_c, 13, 72, 0
15, 285600, Note_on_c, 13, 73, 84
15, 285839, Note_on_c, 13, 73, 0
15, 286500, Note_on_c, 13, 61, 84
15, 286551, Note_on_c, 13, 61, 0
15, 286560, Note_on_c, 13, 66, 84
15, 286799, Note_on_c, 13, 66, 0
15, 287460, Note_on_c, 13, 66, 84
15, 287511, Note_on_c, 13, 66, 0
15, 287520, Note_on_c, 13, 61, 84
15, 287759, Note_on_c, 13, 61, 0
15, 288420, Note_on_c, 13, 61, 84
15, 288471, Note_on_c, 13, 61, 0
15, 288480, Note_on_c, 13, 66, 84
15, 288719, Note_on_c, 13, 66, 0
15, 289380, Note_on_c, 13, 66, 84
15, 289431, Note_on_c, 13, 66, 0
15, 289440, Note_on_c, 13, 61, 84
15, 289679, Note_on_c, 13, 61, 0
15, 290340, Note_on_c, 13, 61, 84
15, 290391, Note_on_c, 13, 61, 0
15, 290400, Note_on_c, 13, 61, 84
15, 290639, Note_on_c, 13, 61, 0
15, 290820, Note_on_c, 13, 61, 84
15, 290871, Note_on_c, 13, 61, 0
15, 290880, Note_on_c, 13, 61, 84
15, 291119, Note_on_c, 13, 61, 0
15, 291300, Note_on_c, 13, 61, 84
15, 291344, Note_on_c, 13, 61, 0
15, 291352, Control_c, 13, 11, 96
15, 291360, Note_on_c, 13, 61, 68
15, 293280, Control_c, 13, 11, 96
15, 293360, Control_c, 13, 11, 99
15, 293440, Control_c, 13, 11, 101
15, 293520, Control_c, 13, 11, 104
15, 293600, Control_c, 13, 11, 106
15, 293680, Control_c, 13, 11, 109
15, 293760, Control_c, 13, 11, 112
15, 293840, Control_c, 13, 11, 114
15, 293920, Control_c, 13, 11, 117
15, 294000, Control_c, 13, 11, 119
15, 294080, Control_c, 13, 11, 122
15, 294160, Control_c, 13, 11, 124
15, 294224, Note_on_c, 13, 61, 0
15, 294240, Note_on_c, 13, 57, 76
15, 294240, Control_c, 13, 11, 127
15, 294320, Control_c, 13, 11, 123
15, 294400, Control_c, 13, 11, 119
15, 294480, Control_c, 13, 11, 115
15, 294560, Control_c, 13, 11, 111
15, 294640, Control_c, 13, 11, 107
15, 294720, Control_c, 13, 11, 104
15, 294800, Control_c, 13, 11, 100
15, 294880, Control_c, 13, 11, 96
15, 294960, Control_c, 13, 11, 92
15, 295040, Control_c, 13, 11, 88
15, 295120, Control_c, 13, 11, 84
15, 295184, Note_on_c, 13, 57, 0
15, 295200, Control_c, 13, 11, 80
15, 295200, Note_on_c, 13, 62, 76
15, 295904, Note_on_c, 13, 62, 0
15, 295920, Note_on_c, 13, 50, 76
15, 295979, Note_on_c, 13, 50, 0
15, 295980, Note_on_c, 13, 49, 76
15, 296039, Note_on_c, 13, 49, 0
15, 296040, Note_on_c, 13, 50, 76
15, 296099, Note_on_c, 13, 50, 0
15, 296100, Note_on_c, 13, 52, 76
15, 296151, Note_on_c, 13, 52, 0
15, 296160, Note_on_c, 13, 54, 76
15, 296864, Note_on_c, 13, 54, 0
15, 296880, Note_on_c, 13, 54, 76
15, 296939, Note_on_c, 13, 54, 0
15, 296940, Note_on_c, 13, 52, 76
15, 296999, Note_on_c, 13, 52, 0
15, 297000, Note_on_c, 13, 54, 76
15, 297059, Note_on_c, 13, 54, 0
15, 297060, Note_on_c, 13, 55, 76
15, 297111, Note_on_c, 13, 55, 0
15, 297120, Note_on_c, 13, 57, 76
15, 297299, Note_on_c, 13, 57, 0
15, 297360, Note_on_c, 13, 57, 76
15, 297539, Note_on_c, 13, 57, 0
15, 297600, Note_on_c, 13, 54, 76
15, 297779, Note_on_c, 13, 54, 0
15, 297840, Note_on_c, 13, 54, 76
15, 298019, Note_on_c, 13, 54, 0
15, 298080, Control_c, 13, 11, 80
15, 298080, Note_on_c, 13, 50, 76
15, 298160, Control_c, 13, 11, 83
15, 298184, Note_on_c, 13, 50, 0
15, 298200, Note_on_c, 13, 66, 76
15, 298240, Control_c, 13, 11, 85
15, 298304, Note_on_c, 13, 66, 0
15, 298320, Note_on_c, 13, 66, 76
15, 298320, Control_c, 13, 11, 88
15, 298400, Control_c, 13, 11, 91
15, 298424, Note_on_c, 13, 66, 0
15, 298440, Note_on_c, 13, 66, 76
15, 298480, Control_c, 13, 11, 93
15, 298544, Note_on_c, 13, 66, 0
15, 298560, Note_on_c, 13, 66, 76
15, 298560, Control_c, 13, 11, 96
15, 298640, Control_c, 13, 11, 99
15, 298664, Note_on_c, 13, 66, 0
15, 298680, Note_on_c, 13, 66, 76
15, 298720, Control_c, 13, 11, 101
15, 298784, Note_on_c, 13, 66, 0
15, 298800, Control_c, 13, 11, 104
15, 298800, Note_on_c, 13, 66, 76
15, 298880, Control_c, 13, 11, 107
15, 298904, Note_on_c, 13, 66, 0
15, 298920, Note_on_c, 13, 66, 76
15, 298960, Control_c, 13, 11, 109
15, 299024, Note_on_c, 13, 66, 0
15, 299040, Control_c, 13, 11, 80
15, 299040, Note_on_c, 13, 55, 76
15, 299744, Note_on_c, 13, 55, 0
15, 299760, Note_on_c, 13, 55, 76
15, 299819, Note_on_c, 13, 55, 0
15, 299820, Note_on_c, 13, 54, 76
15, 299879, Note_on_c, 13, 54, 0
15, 299880, Note_on_c, 13, 55, 76
15, 299939, Note_on_c, 13, 55, 0
15, 299940, Note_on_c, 13, 57, 76
15, 299991, Note_on_c, 13, 57, 0
15, 300000, Note_on_c, 13, 59, 76
15, 300704, Note_on_c, 13, 59, 0
15, 300720, Note_on_c, 13, 59, 76
15, 300779, Note_on_c, 13, 59, 0
15, 300780, Note_on_c, 13, 58, 76
15, 300839, Note_on_c, 13, 58, 0
15, 300840, Note_on_c, 13, 59, 76
15, 300899, Note_on_c, 13, 59, 0
15, 300900, Note_on_c, 13, 61, 76
15, 300951, Note_on_c, 13, 61, 0
15, 300960, Note_on_c, 13, 62, 76
15, 301139, Note_on_c, 13, 62, 0
15, 301200, Note_on_c, 13, 62, 76
15, 301379, Note_on_c, 13, 62, 0
15, 301440, Note_on_c, 13, 59, 76
15, 301619, Note_on_c, 13, 59, 0
15, 301680, Note_on_c, 13, 59, 76
15, 301859, Note_on_c, 13, 59, 0
15, 301920, Note_on_c, 13, 56, 76
15, 302159, Note_on_c, 13, 56, 0
15, 302880, Note_on_c, 13, 62, 76
15, 303059, Note_on_c, 13, 62, 0
15, 303120, Note_on_c, 13, 62, 76
15, 303299, Note_on_c, 13, 62, 0
15, 303360, Note_on_c, 13, 60, 76
15, 303539, Note_on_c, 13, 60, 0
15, 303600, Note_on_c, 13, 60, 76
15, 303779, Note_on_c, 13, 60, 0
15, 303840, Note_on_c, 13, 57, 76
15, 304079, Note_on_c, 13, 57, 0
15, 304800, Control_c, 13, 11, 80
15, 304920, Note_on_c, 13, 59, 76
15, 305009, Note_on_c, 13, 59, 0
15, 305040, Control_c, 13, 11, 83
15, 305040, Note_on_c, 13, 59, 76
15, 305129, Note_on_c, 13, 59, 0
15, 305160, Note_on_c, 13, 59, 76
15, 305249, Note_on_c, 13, 59, 0
15, 305280, Control_c, 13, 11, 85
15, 305400, Note_on_c, 13, 60, 76
15, 305400, Note_on_c, 13, 57, 76
15, 305489, Note_on_c, 13, 60, 0
15, 305489, Note_on_c, 13, 57, 0
15, 305520, Control_c, 13, 11, 88
15, 305520, Note_on_c, 13, 60, 76
15, 305520, Note_on_c, 13, 57, 76
15, 305609, Note_on_c, 13, 60, 0
15, 305609, Note_on_c, 13, 57, 0
15, 305640, Note_on_c, 13, 57, 76
15, 305640, Note_on_c, 13, 60, 76
15, 305729, Note_on_c, 13, 57, 0
15, 305729, Note_on_c, 13, 60, 0
15, 305760, Control_c, 13, 11, 91
15, 305880, Note_on_c, 13, 55, 76
15, 305969, Note_on_c, 13, 55, 0
15, 306000, Note_on_c, 13, 55, 76
15, 306000, Control_c, 13, 11, 93
15, 306089, Note_on_c, 13, 55, 0
15, 306120, Note_on_c, 13, 55, 76
15, 306209, Note_on_c, 13, 55, 0
15, 306240, Control_c, 13, 11, 96
15, 306360, Note_on_c, 13, 57, 76
15, 306360, Note_on_c, 13, 54, 76
15, 306449, Note_on_c, 13, 57, 0
15, 306449, Note_on_c, 13, 54, 0
15, 306480, Note_on_c, 13, 57, 76
15, 306480, Control_c, 13, 11, 99
15, 306480, Note_on_c, 13, 54, 76
15, 306569, Note_on_c, 13, 57, 0
15, 306569, Note_on_c, 13, 54, 0
15, 306600, Note_on_c, 13, 57, 76
15, 306600, Note_on_c, 13, 54, 76
15, 306689, Note_on_c, 13, 57, 0
15, 306689, Note_on_c, 13, 54, 0
15, 306720, Note_on_c, 13, 55, 76
15, 306720, Control_c, 13, 11, 101
15, 306839, Note_on_c, 13, 55, 0
15, 306840, Note_on_c, 13, 59, 76
15, 306959, Note_on_c, 13, 59, 0
15, 306960, Control_c, 13, 11, 104
15, 306960, Note_on_c, 13, 55, 76
15, 307079, Note_on_c, 13, 55, 0
15, 307080, Note_on_c, 13, 59, 76
15, 307184, Note_on_c, 13, 59, 0
15, 307200, Note_on_c, 13, 52, 76
15, 307200, Control_c, 13, 11, 107
15, 307319, Note_on_c, 13, 52, 0
15, 307320, Note_on_c, 13, 55, 76
15, 307439, Note_on_c, 13, 55, 0
15, 307440, Control_c, 13, 11, 109
15, 307440, Note_on_c, 13, 52, 76
15, 307559, Note_on_c, 13, 52, 0
15, 307560, Note_on_c, 13, 55, 76
15, 307664, Note_on_c, 13, 55, 0
15, 307680, Note_on_c, 13, 54, 76
15, 307680, Control_c, 13, 11, 80
15, 307919, Note_on_c, 13, 54, 0
15, 307920, Control_c, 13, 11, 80
15, 308670, Control_c, 13, 11, 90
15, 308760, Note_on_c, 13, 62, 76
15, 308760, Note_on_c, 13, 59, 76
15, 308820, Control_c, 13, 11, 92
15, 308849, Note_on_c, 13, 62, 0
15, 308849, Note_on_c, 13, 59, 0
15, 308880, Note_on_c, 13, 62, 76
15, 308880, Note_on_c, 13, 59, 76
15, 308969, Note_on_c, 13, 62, 0
15, 308969, Note_on_c, 13, 59, 0
15, 308970, Control_c, 13, 11, 94
15, 309000, Note_on_c, 13, 62, 76
15, 309000, Note_on_c, 13, 59, 76
15, 309089, Note_on_c, 13, 62, 0
15, 309089, Note_on_c, 13, 59, 0
15, 309120, Control_c, 13, 11, 96
15, 309240, Note_on_c, 13, 57, 76
15, 309240, Note_on_c, 13, 60, 76
15, 309270, Control_c, 13, 11, 98
15, 309329, Note_on_c, 13, 57, 0
15, 309329, Note_on_c, 13, 60, 0
15, 309360, Note_on_c, 13, 60, 76
15, 309360, Note_on_c, 13, 57, 76
15, 309420, Control_c, 13, 11, 100
15, 309449, Note_on_c, 13, 60, 0
15, 309449, Note_on_c, 13, 57, 0
15, 309480, Note_on_c, 13, 57, 76
15, 309480, Note_on_c, 13, 60, 76
15, 309569, Note_on_c, 13, 57, 0
15, 309569, Note_on_c, 13, 60, 0
15, 309570, Control_c, 13, 11, 102
15, 309720, Note_on_c, 13, 55, 76
15, 309720, Control_c, 13, 11, 104
15, 309720, Note_on_c, 13, 59, 76
15, 309809, Note_on_c, 13, 55, 0
15, 309809, Note_on_c, 13, 59, 0
15, 309840, Note_on_c, 13, 55, 76
15, 309840, Note_on_c, 13, 59, 76
15, 309870, Control_c, 13, 11, 105
15, 309929, Note_on_c, 13, 55, 0
15, 309929, Note_on_c, 13, 59, 0
15, 309960, Note_on_c, 13, 59, 76
15, 309960, Note_on_c, 13, 55, 76
15, 310020, Control_c, 13, 11, 107
15, 310049, Note_on_c, 13, 59, 0
15, 310049, Note_on_c, 13, 55, 0
15, 310170, Control_c, 13, 11, 109
15, 310200, Note_on_c, 13, 57, 76
15, 310200, Note_on_c, 13, 60, 76
15, 310289, Note_on_c, 13, 57, 0
15, 310289, Note_on_c, 13, 60, 0
15, 310320, Control_c, 13, 11, 111
15, 310320, Note_on_c, 13, 57, 76
15, 310320, Note_on_c, 13, 60, 76
15, 310409, Note_on_c, 13, 57, 0
15, 310409, Note_on_c, 13, 60, 0
15, 310440, Note_on_c, 13, 60, 76
15, 310440, Note_on_c, 13, 57, 76
15, 310470, Control_c, 13, 11, 113
15, 310529, Note_on_c, 13, 60, 0
15, 310529, Note_on_c, 13, 57, 0
15, 310620, Control_c, 13, 11, 115
15, 310680, Note_on_c, 13, 52, 76
15, 310680, Note_on_c, 13, 55, 76
15, 310769, Note_on_c, 13, 52, 0
15, 310769, Note_on_c, 13, 55, 0
15, 310770, Control_c, 13, 11, 117
15, 310800, Note_on_c, 13, 52, 76
15, 310800, Note_on_c, 13, 55, 76
15, 310889, Note_on_c, 13, 52, 0
15, 310889, Note_on_c, 13, 55, 0
15, 310920, Control_c, 13, 11, 119
15, 310920, Note_on_c, 13, 52, 76
15, 310920, Note_on_c, 13, 55, 76
15, 311009, Note_on_c, 13, 52, 0
15, 311009, Note_on_c, 13, 55, 0
15, 311070, Control_c, 13, 11, 121
15, 311160, Note_on_c, 13, 59, 76
15, 311160, Note_on_c, 13, 64, 76
15, 311220, Control_c, 13, 11, 123
15, 311249, Note_on_c, 13, 59, 0
15, 311249, Note_on_c, 13, 64, 0
15, 311280, Note_on_c, 13, 59, 76
15, 311280, Note_on_c, 13, 64, 76
15, 311369, Note_on_c, 13, 59, 0
15, 311369, Note_on_c, 13, 64, 0
15, 311370, Control_c, 13, 11, 125
15, 311400, Note_on_c, 13, 64, 76
15, 311400, Note_on_c, 13, 59, 76
15, 311489, Note_on_c, 13, 64, 0
15, 311489, Note_on_c, 13, 59, 0
15, 311520, Note_on_c, 13, 64, 76
15, 311520, Note_on_c, 13, 57, 76
15, 311520, Control_c, 13, 11, 127
15, 311609, Note_on_c, 13, 64, 0
15, 311609, Note_on_c, 13, 57, 0
15, 311640, Note_on_c, 13, 57, 76
15, 311729, Note_on_c, 13, 57, 0
15, 311760, Note_on_c, 13, 61, 76
15, 311849, Note_on_c, 13, 61, 0
15, 311880, Note_on_c, 13, 57, 76
15, 311969, Note_on_c, 13, 57, 0
15, 312000, Note_on_c, 13, 61, 76
15, 312089, Note_on_c, 13, 61, 0
15, 312120, Note_on_c, 13, 57, 76
15, 312209, Note_on_c, 13, 57, 0
15, 312240, Note_on_c, 13, 61, 76
15, 312329, Note_on_c, 13, 61, 0
15, 312360, Note_on_c, 13, 57, 76
15, 312449, Note_on_c, 13, 57, 0
15, 312480, Note_on_c, 13, 62, 76
15, 312569, Note_on_c, 13, 62, 0
15, 312600, Note_on_c, 13, 57, 76
15, 312689, Note_on_c, 13, 57, 0
15, 312720, Note_on_c, 13, 62, 76
15, 312809, Note_on_c, 13, 62, 0
15, 312840, Note_on_c, 13, 57, 76
15, 312929, Note_on_c, 13, 57, 0
15, 312960, Note_on_c, 13, 66, 76
15, 313049, Note_on_c, 13, 66, 0
15, 313080, Note_on_c, 13, 57, 76
15, 313169, Note_on_c, 13, 57, 0
15, 313200, Note_on_c, 13, 66, 76
15, 313289, Note_on_c, 13, 66, 0
15, 313320, Note_on_c, 13, 57, 76
15, 313409, Note_on_c, 13, 57, 0
15, 313440, Note_on_c, 13, 64, 76
15, 313529, Note_on_c, 13, 64, 0
15, 313560, Note_on_c, 13, 57, 76
15, 313649, Note_on_c, 13, 57, 0
15, 313680, Note_on_c, 13, 64, 76
15, 313769, Note_on_c, 13, 64, 0
15, 313800, Note_on_c, 13, 57, 76
15, 313889, Note_on_c, 13, 57, 0
15, 313920, Note_on_c, 13, 67, 76
15, 314009, Note_on_c, 13, 67, 0
15, 314040, Note_on_c, 13, 57, 76
15, 314129, Note_on_c, 13, 57, 0
15, 314160, Note_on_c, 13, 67, 76
15, 314249, Note_on_c, 13, 67, 0
15, 314280, Note_on_c, 13, 57, 76
15, 314369, Note_on_c, 13, 57, 0
15, 314400, Note_on_c, 13, 66, 76
15, 314489, Note_on_c, 13, 66, 0
15, 314520, Note_on_c, 13, 57, 76
15, 314609, Note_on_c, 13, 57, 0
15, 314640, Note_on_c, 13, 66, 76
15, 314729, Note_on_c, 13, 66, 0
15, 314760, Note_on_c, 13, 57, 76
15, 314849, Note_on_c, 13, 57, 0
15, 314880, Note_on_c, 13, 62, 76
15, 314969, Note_on_c, 13, 62, 0
15, 315000, Note_on_c, 13, 57, 76
15, 315089, Note_on_c, 13, 57, 0
15, 315120, Note_on_c, 13, 62, 76
15, 315209, Note_on_c, 13, 62, 0
15, 315240, Note_on_c, 13, 57, 76
15, 315329, Note_on_c, 13, 57, 0
15, 315360, Note_on_c, 13, 69, 76
15, 315449, Note_on_c, 13, 69, 0
15, 315480, Note_on_c, 13, 57, 76
15, 315569, Note_on_c, 13, 57, 0
15, 315600, Note_on_c, 13, 61, 76
15, 315689, Note_on_c, 13, 61, 0
15, 315720, Note_on_c, 13, 57, 76
15, 315809, Note_on_c, 13, 57, 0
15, 315840, Note_on_c, 13, 61, 76
15, 315929, Note_on_c, 13, 61, 0
15, 315960, Note_on_c, 13, 57, 76
15, 316049, Note_on_c, 13, 57, 0
15, 316080, Note_on_c, 13, 61, 76
15, 316169, Note_on_c, 13, 61, 0
15, 316200, Note_on_c, 13, 57, 76
15, 316289, Note_on_c, 13, 57, 0
15, 316320, Note_on_c, 13, 62, 76
15, 316409, Note_on_c, 13, 62, 0
15, 316440, Note_on_c, 13, 57, 76
15, 316529, Note_on_c, 13, 57, 0
15, 316560, Note_on_c, 13, 62, 76
15, 316649, Note_on_c, 13, 62, 0
15, 316680, Note_on_c, 13, 57, 76
15, 316769, Note_on_c, 13, 57, 0
15, 316800, Note_on_c, 13, 65, 76
15, 316889, Note_on_c, 13, 65, 0
15, 316920, Note_on_c, 13, 57, 76
15, 317009, Note_on_c, 13, 57, 0
15, 317040, Note_on_c, 13, 65, 76
15, 317129, Note_on_c, 13, 65, 0
15, 317160, Note_on_c, 13, 57, 76
15, 317249, Note_on_c, 13, 57, 0
15, 317280, Note_on_c, 13, 64, 76
15, 317384, Note_on_c, 13, 64, 0
15, 317400, Note_on_c, 13, 57, 76
15, 317504, Note_on_c, 13, 57, 0
15, 317520, Note_on_c, 13, 69, 84
15, 318104, Note_on_c, 13, 69, 0
15, 318120, Note_on_c, 13, 67, 76
15, 318224, Note_on_c, 13, 67, 0
15, 318240, Note_on_c, 13, 65, 76
15, 318329, Note_on_c, 13, 65, 0
15, 318360, Note_on_c, 13, 67, 76
15, 318449, Note_on_c, 13, 67, 0
15, 318480, Note_on_c, 13, 65, 76
15, 318569, Note_on_c, 13, 65, 0
15, 318600, Note_on_c, 13, 64, 76
15, 318689, Note_on_c, 13, 64, 0
15, 318720, Note_on_c, 13, 62, 76
15, 318809, Note_on_c, 13, 62, 0
15, 318840, Note_on_c, 13, 60, 76
15, 318929, Note_on_c, 13, 60, 0
15, 318960, Note_on_c, 13, 59, 76
15, 319049, Note_on_c, 13, 59, 0
15, 319080, Note_on_c, 13, 58, 76
15, 319169, Note_on_c, 13, 58, 0
15, 319200, Note_on_c, 13, 57, 84
15, 319559, Note_on_c, 13, 57, 0
15, 319560, Note_on_c, 13, 58, 76
15, 319664, Note_on_c, 13, 58, 0
15, 319680, Note_on_c, 13, 57, 84
15, 320039, Note_on_c, 13, 57, 0
15, 320040, Note_on_c, 13, 58, 76
15, 320144, Note_on_c, 13, 58, 0
15, 320160, Note_on_c, 13, 57, 84
15, 320249, Note_on_c, 13, 57, 0
15, 320280, Note_on_c, 13, 58, 76
15, 320369, Note_on_c, 13, 58, 0
15, 320400, Note_on_c, 13, 57, 76
15, 320489, Note_on_c, 13, 57, 0
15, 320520, Note_on_c, 13, 58, 76
15, 320609, Note_on_c, 13, 58, 0
15, 320640, Note_on_c, 13, 57, 76
15, 320729, Note_on_c, 13, 57, 0
15, 320760, Note_on_c, 13, 58, 76
15, 320849, Note_on_c, 13, 58, 0
15, 320880, Note_on_c, 13, 57, 76
15, 320969, Note_on_c, 13, 57, 0
15, 321000, Note_on_c, 13, 58, 76
15, 321089, Note_on_c, 13, 58, 0
15, 321120, Note_on_c, 13, 57, 84
15, 321824, Note_on_c, 13, 57, 0
15, 321840, Note_on_c, 13, 68, 76
15, 322019, Note_on_c, 13, 68, 0
15, 322080, Note_on_c, 13, 67, 76
15, 322259, Note_on_c, 13, 67, 0
15, 322320, Note_on_c, 13, 66, 76
15, 322499, Note_on_c, 13, 66, 0
15, 322560, Note_on_c, 13, 64, 76
15, 322739, Note_on_c, 13, 64, 0
15, 322800, Note_on_c, 13, 69, 76
15, 322979, Note_on_c, 13, 69, 0
15, 323040, Note_on_c, 13, 62, 52
15, 323129, Note_on_c, 13, 62, 0
15, 323160, Note_on_c, 13, 74, 52
15, 323249, Note_on_c, 13, 74, 0
15, 323280, Note_on_c, 13, 74, 52
15, 323369, Note_on_c, 13, 74, 0
15, 323400, Note_on_c, 13, 74, 52
15, 323489, Note_on_c, 13, 74, 0
15, 323520, Note_on_c, 13, 62, 52
15, 323609, Note_on_c, 13, 62, 0
15, 323640, Note_on_c, 13, 74, 52
15, 323729, Note_on_c, 13, 74, 0
15, 323760, Note_on_c, 13, 74, 52
15, 323849, Note_on_c, 13, 74, 0
15, 323880, Note_on_c, 13, 74, 52
15, 323969, Note_on_c, 13, 74, 0
15, 324000, Note_on_c, 13, 62, 52
15, 324089, Note_on_c, 13, 62, 0
15, 324120, Note_on_c, 13, 74, 52
15, 324209, Note_on_c, 13, 74, 0
15, 324240, Note_on_c, 13, 74, 52
15, 324329, Note_on_c, 13, 74, 0
15, 324360, Note_on_c, 13, 74, 52
15, 324449, Note_on_c, 13, 74, 0
15, 324480, Note_on_c, 13, 74, 52
15, 324569, Note_on_c, 13, 74, 0
15, 324600, Note_on_c, 13, 74, 52
15, 324689, Note_on_c, 13, 74, 0
15, 324720, Note_on_c, 13, 74, 52
15, 324809, Note_on_c, 13, 74, 0
15, 324840, Note_on_c, 13, 74, 52
15, 324929, Note_on_c, 13, 74, 0
15, 324960, Note_on_c, 13, 74, 52
15, 325049, Note_on_c, 13, 74, 0
15, 325080, Note_on_c, 13, 74, 52
15, 325169, Note_on_c, 13, 74, 0
15, 325200, Note_on_c, 13, 74, 52
15, 325289, Note_on_c, 13, 74, 0
15, 325320, Note_on_c, 13, 74, 52
15, 325409, Note_on_c, 13, 74, 0
15, 325440, Note_on_c, 13, 74, 52
15, 325529, Note_on_c, 13, 74, 0
15, 325560, Note_on_c, 13, 74, 52
15, 325649, Note_on_c, 13, 74, 0
15, 325680, Note_on_c, 13, 74, 52
15, 325769, Note_on_c, 13, 74, 0
15, 325800, Note_on_c, 13, 74, 52
15, 325889, Note_on_c, 13, 74, 0
15, 325920, Note_on_c, 13, 74, 52
15, 326009, Note_on_c, 13, 74, 0
15, 326040, Note_on_c, 13, 74, 52
15, 326129, Note_on_c, 13, 74, 0
15, 326160, Note_on_c, 13, 74, 52
15, 326249, Note_on_c, 13, 74, 0
15, 326280, Note_on_c, 13, 74, 52
15, 326369, Note_on_c, 13, 74, 0
15, 326400, Note_on_c, 13, 74, 52
15, 326489, Note_on_c, 13, 74, 0
15, 326520, Note_on_c, 13, 74, 52
15, 326609, Note_on_c, 13, 74, 0
15, 326640, Note_on_c, 13, 74, 52
15, 326729, Note_on_c, 13, 74, 0
15, 326760, Note_on_c, 13, 74, 52
15, 326849, Note_on_c, 13, 74, 0
15, 326880, Note_on_c, 13, 59, 84
15, 326969, Note_on_c, 13, 59, 0
15, 327000, Note_on_c, 13, 71, 84
15, 327089, Note_on_c, 13, 71, 0
15, 327120, Note_on_c, 13, 66, 84
15, 327209, Note_on_c, 13, 66, 0
15, 327240, Note_on_c, 13, 62, 84
15, 327329, Note_on_c, 13, 62, 0
15, 327360, Note_on_c, 13, 59, 84
15, 327449, Note_on_c, 13, 59, 0
15, 327480, Note_on_c, 13, 71, 84
15, 327569, Note_on_c, 13, 71, 0
15, 327600, Note_on_c, 13, 66, 84
15, 327689, Note_on_c, 13, 66, 0
15, 327720, Note_on_c, 13, 62, 84
15, 327809, Note_on_c, 13, 62, 0
15, 327840, Note_on_c, 13, 59, 84
15, 327929, Note_on_c, 13, 59, 0
15, 327960, Note_on_c, 13, 71, 84
15, 328049, Note_on_c, 13, 71, 0
15, 328080, Note_on_c, 13, 66, 84
15, 328169, Note_on_c, 13, 66, 0
15, 328200, Note_on_c, 13, 62, 84
15, 328289, Note_on_c, 13, 62, 0
15, 328320, Note_on_c, 13, 59, 84
15, 328409, Note_on_c, 13, 59, 0
15, 328440, Note_on_c, 13, 71, 84
15, 328529, Note_on_c, 13, 71, 0
15, 328560, Note_on_c, 13, 73, 84
15, 328649, Note_on_c, 13, 73, 0
15, 328680, Note_on_c, 13, 74, 84
15, 328769, Note_on_c, 13, 74, 0
15, 328800, Note_on_c, 13, 64, 92
15, 328889, Note_on_c, 13, 64, 0
15, 328920, Note_on_c, 13, 76, 84
15, 329009, Note_on_c, 13, 76, 0
15, 329040, Note_on_c, 13, 76, 84
15, 329129, Note_on_c, 13, 76, 0
15, 329160, Note_on_c, 13, 76, 84
15, 329249, Note_on_c, 13, 76, 0
15, 329280, Note_on_c, 13, 64, 92
15, 329369, Note_on_c, 13, 64, 0
15, 329400, Note_on_c, 13, 76, 84
15, 329489, Note_on_c, 13, 76, 0
15, 329520, Note_on_c, 13, 76, 84
15, 329609, Note_on_c, 13, 76, 0
15, 329640, Note_on_c, 13, 76, 84
15, 329729, Note_on_c, 13, 76, 0
15, 329760, Note_on_c, 13, 69, 84
15, 329999, Note_on_c, 13, 69, 0
15, 330720, Note_on_c, 13, 62, 52
15, 330809, Note_on_c, 13, 62, 0
15, 330840, Note_on_c, 13, 74, 52
15, 330929, Note_on_c, 13, 74, 0
15, 330960, Note_on_c, 13, 74, 52
15, 331049, Note_on_c, 13, 74, 0
15, 331080, Note_on_c, 13, 74, 52
15, 331169, Note_on_c, 13, 74, 0
15, 331200, Note_on_c, 13, 62, 52
15, 331289, Note_on_c, 13, 62, 0
15, 331320, Note_on_c, 13, 74, 52
15, 331409, Note_on_c, 13, 74, 0
15, 331440, Note_on_c, 13, 74, 52
15, 331529, Note_on_c, 13, 74, 0
15, 331560, Note_on_c, 13, 74, 52
15, 331649, Note_on_c, 13, 74, 0
15, 331680, Note_on_c, 13, 62, 52
15, 331769, Note_on_c, 13, 62, 0
15, 331800, Note_on_c, 13, 74, 52
15, 331889, Note_on_c, 13, 74, 0
15, 331920, Note_on_c, 13, 74, 52
15, 332009, Note_on_c, 13, 74, 0
15, 332040, Note_on_c, 13, 74, 52
15, 332129, Note_on_c, 13, 74, 0
15, 332160, Note_on_c, 13, 74, 52
15, 332249, Note_on_c, 13, 74, 0
15, 332280, Note_on_c, 13, 74, 52
15, 332369, Note_on_c, 13, 74, 0
15, 332400, Note_on_c, 13, 74, 52
15, 332489, Note_on_c, 13, 74, 0
15, 332520, Note_on_c, 13, 74, 52
15, 332609, Note_on_c, 13, 74, 0
15, 332640, Note_on_c, 13, 74, 52
15, 332729, Note_on_c, 13, 74, 0
15, 332760, Note_on_c, 13, 74, 52
15, 332849, Note_on_c, 13, 74, 0
15, 332880, Note_on_c, 13, 74, 52
15, 332969, Note_on_c, 13, 74, 0
15, 333000, Note_on_c, 13, 74, 52
15, 333089, Note_on_c, 13, 74, 0
15, 333120, Note_on_c, 13, 74, 52
15, 333209, Note_on_c, 13, 74, 0
15, 333240, Note_on_c, 13, 74, 52
15, 333329, Note_on_c, 13, 74, 0
15, 333360, Note_on_c, 13, 74, 52
15, 333449, Note_on_c, 13, 74, 0
15, 333480, Note_on_c, 13, 74, 52
15, 333569, Note_on_c, 13, 74, 0
15, 333600, Note_on_c, 13, 74, 52
15, 333689, Note_on_c, 13, 74, 0
15, 333720, Note_on_c, 13, 74, 52
15, 333809, Note_on_c, 13, 74, 0
15, 333840, Note_on_c, 13, 74, 52
15, 333929, Note_on_c, 13, 74, 0
15, 333960, Note_on_c, 13, 74, 52
15, 334049, Note_on_c, 13, 74, 0
15, 334080, Note_on_c, 13, 74, 52
15, 334199, Note_on_c, 13, 74, 0
15, 334560, Note_on_c, 13, 62, 84
15, 334649, Note_on_c, 13, 62, 0
15, 334680, Note_on_c, 13, 74, 84
15, 334769, Note_on_c, 13, 74, 0
15, 334800, Note_on_c, 13, 71, 84
15, 334889, Note_on_c, 13, 71, 0
15, 334920, Note_on_c, 13, 66, 84
15, 335009, Note_on_c, 13, 66, 0
15, 335040, Note_on_c, 13, 62, 84
15, 335129, Note_on_c, 13, 62, 0
15, 335160, Note_on_c, 13, 74, 84
15, 335249, Note_on_c, 13, 74, 0
15, 335280, Note_on_c, 13, 71, 84
15, 335369, Note_on_c, 13, 71, 0
15, 335400, Note_on_c, 13, 66, 84
15, 335489, Note_on_c, 13, 66, 0
15, 335520, Note_on_c, 13, 62, 84
15, 335609, Note_on_c, 13, 62, 0
15, 335640, Note_on_c, 13, 74, 84
15, 335729, Note_on_c, 13, 74, 0
15, 335760, Note_on_c, 13, 71, 84
15, 335849, Note_on_c, 13, 71, 0
15, 335880, Note_on_c, 13, 66, 84
15, 335969, Note_on_c, 13, 66, 0
15, 336000, Note_on_c, 13, 62, 84
15, 336089, Note_on_c, 13, 62, 0
15, 336120, Note_on_c, 13, 74, 84
15, 336209, Note_on_c, 13, 74, 0
15, 336240, Note_on_c, 13, 76, 84
15, 336329, Note_on_c, 13, 76, 0
15, 336360, Note_on_c, 13, 78, 84
15, 336449, Note_on_c, 13, 78, 0
15, 336480, Note_on_c, 13, 64, 92
15, 336569, Note_on_c, 13, 64, 0
15, 336600, Note_on_c, 13, 76, 84
15, 336689, Note_on_c, 13, 76, 0
15, 336720, Note_on_c, 13, 76, 84
15, 336809, Note_on_c, 13, 76, 0
15, 336840, Note_on_c, 13, 76, 84
15, 336929, Note_on_c, 13, 76, 0
15, 336960, Note_on_c, 13, 64, 92
15, 337049, Note_on_c, 13, 64, 0
15, 337080, Note_on_c, 13, 76, 84
15, 337169, Note_on_c, 13, 76, 0
15, 337200, Note_on_c, 13, 76, 84
15, 337289, Note_on_c, 13, 76, 0
15, 337320, Note_on_c, 13, 76, 84
15, 337409, Note_on_c, 13, 76, 0
15, 337440, Note_on_c, 13, 69, 92
15, 338024, Note_on_c, 13, 69, 0
15, 338040, Note_on_c, 13, 69, 84
15, 338159, Note_on_c, 13, 69, 0
15, 338160, Note_on_c, 13, 67, 84
15, 338279, Note_on_c, 13, 67, 0
15, 338280, Note_on_c, 13, 66, 84
15, 338384, Note_on_c, 13, 66, 0
15, 338400, Note_on_c, 13, 67, 92
15, 338984, Note_on_c, 13, 67, 0
15, 339000, Note_on_c, 13, 67, 84
15, 339119, Note_on_c, 13, 67, 0
15, 339120, Note_on_c, 13, 66, 84
15, 339239, Note_on_c, 13, 66, 0
15, 339240, Note_on_c, 13, 65, 84
15, 339344, Note_on_c, 13, 65, 0
15, 339360, Note_on_c, 13, 66, 92
15, 339944, Note_on_c, 13, 66, 0
15, 339960, Note_on_c, 13, 66, 84
15, 340079, Note_on_c, 13, 66, 0
15, 340080, Note_on_c, 13, 64, 84
15, 340199, Note_on_c, 13, 64, 0
15, 340200, Note_on_c, 13, 63, 84
15, 340304, Note_on_c, 13, 63, 0
15, 340320, Note_on_c, 13, 64, 92
15, 340904, Note_on_c, 13, 64, 0
15, 340920, Note_on_c, 13, 64, 84
15, 341039, Note_on_c, 13, 64, 0
15, 341040, Note_on_c, 13, 62, 84
15, 341159, Note_on_c, 13, 62, 0
15, 341160, Note_on_c, 13, 61, 84
15, 341264, Note_on_c, 13, 61, 0
15, 341280, Note_on_c, 13, 62, 92
15, 341369, Note_on_c, 13, 62, 0
15, 341400, Note_on_c, 13, 69, 84
15, 341519, Note_on_c, 13, 69, 0
15, 341520, Note_on_c, 13, 67, 84
15, 341639, Note_on_c, 13, 67, 0
15, 341640, Note_on_c, 13, 66, 84
15, 341744, Note_on_c, 13, 66, 0
15, 341760, Note_on_c, 13, 67, 92
15, 341849, Note_on_c, 13, 67, 0
15, 341880, Note_on_c, 13, 67, 84
15, 341999, Note_on_c, 13, 67, 0
15, 342000, Note_on_c, 13, 66, 84
15, 342119, Note_on_c, 13, 66, 0
15, 342120, Note_on_c, 13, 65, 84
15, 342224, Note_on_c, 13, 65, 0
15, 342240, Note_on_c, 13, 66, 92
15, 342329, Note_on_c, 13, 66, 0
15, 342360, Note_on_c, 13, 66, 84
15, 342479, Note_on_c, 13, 66, 0
15, 342480, Note_on_c, 13, 64, 84
15, 342599, Note_on_c, 13, 64, 0
15, 342600, Note_on_c, 13, 63, 84
15, 342704, Note_on_c, 13, 63, 0
15, 342720, Note_on_c, 13, 64, 92
15, 342809, Note_on_c, 13, 64, 0
15, 342840, Note_on_c, 13, 64, 84
15, 342959, Note_on_c, 13, 64, 0
15, 342960, Note_on_c, 13, 62, 84
15, 343079, Note_on_c, 13, 62, 0
15, 343080, Note_on_c, 13, 61, 84
15, 343184, Note_on_c, 13, 61, 0
15, 343200, Note_on_c, 13, 62, 92
15, 343289, Note_on_c, 13, 62, 0
15, 343320, Note_on_c, 13, 74, 84
15, 343439, Note_on_c, 13, 74, 0
15, 343440, Note_on_c, 13, 73, 84
15, 343559, Note_on_c, 13, 73, 0
15, 343560, Note_on_c, 13, 71, 84
15, 343664, Note_on_c, 13, 71, 0
15, 343680, Note_on_c, 13, 73, 92
15, 343769, Note_on_c, 13, 73, 0
15, 343800, Note_on_c, 13, 73, 84
15, 343919, Note_on_c, 13, 73, 0
15, 343920, Note_on_c, 13, 71, 84
15, 344039, Note_on_c, 13, 71, 0
15, 344040, Note_on_c, 13, 70, 84
15, 344144, Note_on_c, 13, 70, 0
15, 344160, Note_on_c, 13, 71, 92
15, 344249, Note_on_c, 13, 71, 0
15, 344280, Note_on_c, 13, 71, 84
15, 344399, Note_on_c, 13, 71, 0
15, 344400, Note_on_c, 13, 69, 84
15, 344519, Note_on_c, 13, 69, 0
15, 344520, Note_on_c, 13, 67, 84
15, 344624, Note_on_c, 13, 67, 0
15, 344640, Note_on_c, 13, 69, 92
15, 344729, Note_on_c, 13, 69, 0
15, 344760, Note_on_c, 13, 69, 84
15, 344879, Note_on_c, 13, 69, 0
15, 344880, Note_on_c, 13, 67, 84
15, 344999, Note_on_c, 13, 67, 0
15, 345000, Note_on_c, 13, 66, 84
15, 345104, Note_on_c, 13, 66, 0
15, 345120, Note_on_c, 13, 67, 84
15, 345299, Note_on_c, 13, 67, 0
15, 346080, Note_on_c, 13, 64, 84
15, 346259, Note_on_c, 13, 64, 0
15, 347040, Note_on_c, 13, 61, 84
15, 347219, Note_on_c, 13, 61, 0
15, 347520, Note_on_c, 13, 62, 84
15, 347699, Note_on_c, 13, 62, 0
15, 348000, Note_on_c, 13, 55, 84
15, 348179, Note_on_c, 13, 55, 0
15, 348480, Note_on_c, 13, 57, 84
15, 348659, Note_on_c, 13, 57, 0
15, 348960, Note_on_c, 13, 58, 84
15, 349199, Note_on_c, 13, 58, 0
15, 349920, Note_on_c, 13, 61, 84
15, 350159, Note_on_c, 13, 61, 0
15, 351600, Note_on_c, 13, 52, 44
15, 351659, Note_on_c, 13, 52, 0
15, 351660, Note_on_c, 13, 51, 44
15, 351719, Note_on_c, 13, 51, 0
15, 351720, Note_on_c, 13, 52, 44
15, 351779, Note_on_c, 13, 52, 0
15, 351780, Note_on_c, 13, 53, 44
15, 351831, Note_on_c, 13, 53, 0
15, 351840, Note_on_c, 13, 55, 44
15, 352019, Note_on_c, 13, 55, 0
15, 352560, Note_on_c, 13, 53, 44
15, 352619, Note_on_c, 13, 53, 0
15, 352620, Note_on_c, 13, 52, 44
15, 352679, Note_on_c, 13, 52, 0
15, 352680, Note_on_c, 13, 53, 44
15, 352739, Note_on_c, 13, 53, 0
15, 352740, Note_on_c, 13, 55, 44
15, 352791, Note_on_c, 13, 55, 0
15, 352800, Note_on_c, 13, 57, 44
15, 352979, Note_on_c, 13, 57, 0
15, 353040, Control_c, 13, 11, 80
15, 353520, Note_on_c, 13, 55, 68
15, 353579, Note_on_c, 13, 55, 0
15, 353580, Note_on_c, 13, 54, 68
15, 353639, Note_on_c, 13, 54, 0
15, 353640, Note_on_c, 13, 55, 68
15, 353699, Note_on_c, 13, 55, 0
15, 353700, Note_on_c, 13, 57, 68
15, 353751, Note_on_c, 13, 57, 0
15, 353760, Note_on_c, 13, 58, 68
15, 353760, Control_c, 13, 11, 80
15, 353880, Control_c, 13, 11, 82
15, 353939, Note_on_c, 13, 58, 0
15, 354000, Control_c, 13, 11, 84
15, 354000, Note_on_c, 13, 57, 68
15, 354059, Note_on_c, 13, 57, 0
15, 354060, Note_on_c, 13, 56, 68
15, 354119, Note_on_c, 13, 56, 0
15, 354120, Note_on_c, 13, 57, 68
15, 354120, Control_c, 13, 11, 86
15, 354179, Note_on_c, 13, 57, 0
15, 354180, Note_on_c, 13, 59, 68
15, 354231, Note_on_c, 13, 59, 0
15, 354240, Control_c, 13, 11, 88
15, 354240, Note_on_c, 13, 60, 68
15, 354360, Control_c, 13, 11, 90
15, 354419, Note_on_c, 13, 60, 0
15, 354480, Note_on_c, 13, 59, 68
15, 354480, Control_c, 13, 11, 92
15, 354539, Note_on_c, 13, 59, 0
15, 354540, Note_on_c, 13, 58, 68
15, 354599, Note_on_c, 13, 58, 0
15, 354600, Note_on_c, 13, 59, 68
15, 354600, Control_c, 13, 11, 94
15, 354659, Note_on_c, 13, 59, 0
15, 354660, Note_on_c, 13, 61, 68
15, 354711, Note_on_c, 13, 61, 0
15, 354720, Control_c, 13, 11, 96
15, 354720, Note_on_c, 13, 62, 68
15, 354840, Control_c, 13, 11, 98
15, 354899, Note_on_c, 13, 62, 0
15, 354960, Note_on_c, 13, 61, 68
15, 354960, Control_c, 13, 11, 100
15, 355019, Note_on_c, 13, 61, 0
15, 355020, Note_on_c, 13, 60, 68
15, 355079, Note_on_c, 13, 60, 0
15, 355080, Control_c, 13, 11, 102
15, 355080, Note_on_c, 13, 61, 68
15, 355139, Note_on_c, 13, 61, 0
15, 355140, Note_on_c, 13, 62, 68
15, 355191, Note_on_c, 13, 62, 0
15, 355200, Control_c, 13, 11, 104
15, 355200, Note_on_c, 13, 64, 68
15, 355320, Control_c, 13, 11, 105
15, 355379, Note_on_c, 13, 64, 0
15, 355440, Control_c, 13, 11, 107
15, 355440, Note_on_c, 13, 62, 68
15, 355499, Note_on_c, 13, 62, 0
15, 355500, Note_on_c, 13, 61, 68
15, 355559, Note_on_c, 13, 61, 0
15, 355560, Note_on_c, 13, 62, 68
15, 355560, Control_c, 13, 11, 109
15, 355619, Note_on_c, 13, 62, 0
15, 355620, Note_on_c, 13, 64, 68
15, 355671, Note_on_c, 13, 64, 0
15, 355680, Control_c, 13, 11, 111
15, 355680, Note_on_c, 13, 65, 68
15, 355800, Control_c, 13, 11, 113
15, 355859, Note_on_c, 13, 65, 0
15, 355920, Control_c, 13, 11, 115
15, 355920, Note_on_c, 13, 62, 68
15, 355979, Note_on_c, 13, 62, 0
15, 355980, Note_on_c, 13, 61, 68
15, 356039, Note_on_c, 13, 61, 0
15, 356040, Note_on_c, 13, 62, 68
15, 356040, Control_c, 13, 11, 117
15, 356099, Note_on_c, 13, 62, 0
15, 356100, Note_on_c, 13, 64, 68
15, 356151, Note_on_c, 13, 64, 0
15, 356160, Note_on_c, 13, 65, 68
15, 356160, Control_c, 13, 11, 119
15, 356280, Control_c, 13, 11, 121
15, 356339, Note_on_c, 13, 65, 0
15, 356400, Control_c, 13, 11, 123
15, 356400, Note_on_c, 13, 62, 68
15, 356459, Note_on_c, 13, 62, 0
15, 356460, Note_on_c, 13, 61, 68
15, 356519, Note_on_c, 13, 61, 0
15, 356520, Control_c, 13, 11, 125
15, 356520, Note_on_c, 13, 62, 68
15, 356579, Note_on_c, 13, 62, 0
15, 356580, Note_on_c, 13, 64, 68
15, 356631, Note_on_c, 13, 64, 0
15, 356640, Control_c, 13, 11, 127
15, 356640, Note_on_c, 13, 65, 76
15, 357584, Note_on_c, 13, 65, 0
15, 357600, Note_on_c, 13, 56, 76
15, 358544, Note_on_c, 13, 56, 0
15, 358560, Note_on_c, 13, 57, 84
15, 358611, Note_on_c, 13, 57, 0
15, 358620, Note_on_c, 13, 62, 84
15, 358671, Note_on_c, 13, 62, 0
15, 358680, Note_on_c, 13, 62, 84
15, 358731, Note_on_c, 13, 62, 0
15, 358740, Note_on_c, 13, 62, 84
15, 358791, Note_on_c, 13, 62, 0
15, 358800, Note_on_c, 13, 62, 84
15, 358851, Note_on_c, 13, 62, 0
15, 358860, Note_on_c, 13, 62, 84
15, 358911, Note_on_c, 13, 62, 0
15, 358920, Note_on_c, 13, 62, 84
15, 358971, Note_on_c, 13, 62, 0
15, 358980, Note_on_c, 13, 62, 84
15, 359031, Note_on_c, 13, 62, 0
15, 359040, Note_on_c, 13, 62, 84
15, 359091, Note_on_c, 13, 62, 0
15, 359100, Note_on_c, 13, 62, 84
15, 359151, Note_on_c, 13, 62, 0
15, 359160, Note_on_c, 13, 62, 84
15, 359211, Note_on_c, 13, 62, 0
15, 359220, Note_on_c, 13, 62, 84
15, 359271, Note_on_c, 13, 62, 0
15, 359280, Note_on_c, 13, 62, 84
15, 359331, Note_on_c, 13, 62, 0
15, 359340, Note_on_c, 13, 62, 84
15, 359391, Note_on_c, 13, 62, 0
15, 359400, Note_on_c, 13, 62, 84
15, 359451, Note_on_c, 13, 62, 0
15, 359460, Note_on_c, 13, 62, 84
15, 359511, Note_on_c, 13, 62, 0
15, 359520, Note_on_c, 13, 64, 84
15, 359571, Note_on_c, 13, 64, 0
15, 359580, Note_on_c, 13, 64, 84
15, 359631, Note_on_c, 13, 64, 0
15, 359640, Note_on_c, 13, 64, 84
15, 359691, Note_on_c, 13, 64, 0
15, 359700, Note_on_c, 13, 64, 84
15, 359751, Note_on_c, 13, 64, 0
15, 359760, Note_on_c, 13, 64, 84
15, 359811, Note_on_c, 13, 64, 0
15, 359820, Note_on_c, 13, 64, 84
15, 359871, Note_on_c, 13, 64, 0
15, 359880, Note_on_c, 13, 64, 84
15, 359931, Note_on_c, 13, 64, 0
15, 359940, Note_on_c, 13, 64, 84
15, 359991, Note_on_c, 13, 64, 0
15, 360000, Note_on_c, 13, 64, 84
15, 360051, Note_on_c, 13, 64, 0
15, 360060, Note_on_c, 13, 64, 84
15, 360111, Note_on_c, 13, 64, 0
15, 360120, Note_on_c, 13, 64, 84
15, 360171, Note_on_c, 13, 64, 0
15, 360180, Note_on_c, 13, 64, 84
15, 360231, Note_on_c, 13, 64, 0
15, 360240, Note_on_c, 13, 64, 84
15, 360291, Note_on_c, 13, 64, 0
15, 360300, Note_on_c, 13, 64, 84
15, 360351, Note_on_c, 13, 64, 0
15, 360360, Note_on_c, 13, 64, 84
15, 360411, Note_on_c, 13, 64, 0
15, 360420, Note_on_c, 13, 64, 84
15, 360471, Note_on_c, 13, 64, 0
15, 360480, Note_on_c, 13, 62, 76
15, 360531, Note_on_c, 13, 62, 0
15, 360540, Note_on_c, 13, 74, 52
15, 360540, Note_on_c, 13, 62, 52
15, 360591, Note_on_c, 13, 74, 0
15, 360591, Note_on_c, 13, 62, 0
15, 360600, Note_on_c, 13, 62, 52
15, 360600, Note_on_c, 13, 74, 52
15, 360651, Note_on_c, 13, 62, 0
15, 360651, Note_on_c, 13, 74, 0
15, 360660, Note_on_c, 13, 62, 52
15, 360660, Note_on_c, 13, 74, 52
15, 360711, Note_on_c, 13, 62, 0
15, 360711, Note_on_c, 13, 74, 0
15, 360720, Note_on_c, 13, 74, 52
15, 360720, Note_on_c, 13, 62, 52
15, 360771, Note_on_c, 13, 74, 0
15, 360771, Note_on_c, 13, 62, 0
15, 360780, Note_on_c, 13, 74, 52
15, 360780, Note_on_c, 13, 62, 52
15, 360831, Note_on_c, 13, 74, 0
15, 360831, Note_on_c, 13, 62, 0
15, 360840, Note_on_c, 13, 74, 52
15, 360840, Note_on_c, 13, 62, 52
15, 360891, Note_on_c, 13, 74, 0
15, 360891, Note_on_c, 13, 62, 0
15, 360900, Note_on_c, 13, 62, 52
15, 360900, Note_on_c, 13, 74, 52
15, 360951, Note_on_c, 13, 62, 0
15, 360951, Note_on_c, 13, 74, 0
15, 360960, Note_on_c, 13, 62, 52
15, 360960, Note_on_c, 13, 74, 52
15, 361011, Note_on_c, 13, 62, 0
15, 361011, Note_on_c, 13, 74, 0
15, 361020, Note_on_c, 13, 74, 52
15, 361020, Note_on_c, 13, 62, 52
15, 361071, Note_on_c, 13, 74, 0
15, 361071, Note_on_c, 13, 62, 0
15, 361080, Note_on_c, 13, 62, 52
15, 361080, Note_on_c, 13, 74, 52
15, 361131, Note_on_c, 13, 62, 0
15, 361131, Note_on_c, 13, 74, 0
15, 361140, Note_on_c, 13, 62, 52
15, 361140, Note_on_c, 13, 74, 52
15, 361191, Note_on_c, 13, 62, 0
15, 361191, Note_on_c, 13, 74, 0
15, 361200, Note_on_c, 13, 74, 52
15, 361200, Note_on_c, 13, 62, 52
15, 361251, Note_on_c, 13, 74, 0
15, 361251, Note_on_c, 13, 62, 0
15, 361260, Note_on_c, 13, 74, 52
15, 361260, Note_on_c, 13, 62, 52
15, 361311, Note_on_c, 13, 74, 0
15, 361311, Note_on_c, 13, 62, 0
15, 361320, Note_on_c, 13, 62, 52
15, 361320, Note_on_c, 13, 74, 52
15, 361371, Note_on_c, 13, 62, 0
15, 361371, Note_on_c, 13, 74, 0
15, 361380, Note_on_c, 13, 62, 52
15, 361380, Note_on_c, 13, 74, 52
15, 361431, Note_on_c, 13, 62, 0
15, 361431, Note_on_c, 13, 74, 0
15, 361440, Note_on_c, 13, 62, 52
15, 361440, Note_on_c, 13, 74, 52
15, 361491, Note_on_c, 13, 62, 0
15, 361491, Note_on_c, 13, 74, 0
15, 361500, Note_on_c, 13, 62, 52
15, 361500, Note_on_c, 13, 74, 52
15, 361551, Note_on_c, 13, 62, 0
15, 361551, Note_on_c, 13, 74, 0
15, 361560, Note_on_c, 13, 74, 52
15, 361560, Note_on_c, 13, 62, 52
15, 361611, Note_on_c, 13, 74, 0
15, 361611, Note_on_c, 13, 62, 0
15, 361620, Note_on_c, 13, 62, 52
15, 361620, Note_on_c, 13, 74, 52
15, 361671, Note_on_c, 13, 62, 0
15, 361671, Note_on_c, 13, 74, 0
15, 361680, Note_on_c, 13, 74, 52
15, 361680, Note_on_c, 13, 62, 52
15, 361731, Note_on_c, 13, 74, 0
15, 361731, Note_on_c, 13, 62, 0
15, 361740, Note_on_c, 13, 74, 52
15, 361740, Note_on_c, 13, 62, 52
15, 361791, Note_on_c, 13, 74, 0
15, 361791, Note_on_c, 13, 62, 0
15, 361800, Note_on_c, 13, 62, 52
15, 361800, Note_on_c, 13, 74, 52
15, 361851, Note_on_c, 13, 62, 0
15, 361851, Note_on_c, 13, 74, 0
15, 361860, Note_on_c, 13, 74, 52
15, 361860, Note_on_c, 13, 62, 52
15, 361911, Note_on_c, 13, 74, 0
15, 361911, Note_on_c, 13, 62, 0
15, 361920, Note_on_c, 13, 62, 52
15, 361920, Note_on_c, 13, 74, 52
15, 361971, Note_on_c, 13, 62, 0
15, 361971, Note_on_c, 13, 74, 0
15, 361980, Note_on_c, 13, 62, 52
15, 361980, Note_on_c, 13, 74, 52
15, 362031, Note_on_c, 13, 62, 0
15, 362031, Note_on_c, 13, 74, 0
15, 362040, Note_on_c, 13, 74, 52
15, 362040, Note_on_c, 13, 62, 52
15, 362091, Note_on_c, 13, 74, 0
15, 362091, Note_on_c, 13, 62, 0
15, 362100, Note_on_c, 13, 74, 52
15, 362100, Note_on_c, 13, 62, 52
15, 362151, Note_on_c, 13, 74, 0
15, 362151, Note_on_c, 13, 62, 0
15, 362160, Note_on_c, 13, 74, 52
15, 362160, Note_on_c, 13, 62, 52
15, 362211, Note_on_c, 13, 74, 0
15, 362211, Note_on_c, 13, 62, 0
15, 362220, Note_on_c, 13, 62, 52
15, 362220, Note_on_c, 13, 74, 52
15, 362271, Note_on_c, 13, 62, 0
15, 362271, Note_on_c, 13, 74, 0
15, 362280, Note_on_c, 13, 74, 52
15, 362280, Note_on_c, 13, 62, 52
15, 362331, Note_on_c, 13, 74, 0
15, 362331, Note_on_c, 13, 62, 0
15, 362340, Note_on_c, 13, 62, 52
15, 362340, Note_on_c, 13, 74, 52
15, 362391, Note_on_c, 13, 62, 0
15, 362391, Note_on_c, 13, 74, 0
15, 362400, Note_on_c, 13, 67, 84
15, 363104, Note_on_c, 13, 67, 0
15, 363120, Note_on_c, 13, 67, 84
15, 363299, Note_on_c, 13, 67, 0
15, 363360, Note_on_c, 13, 62, 84
15, 363539, Note_on_c, 13, 62, 0
15, 363600, Note_on_c, 13, 58, 84
15, 363779, Note_on_c, 13, 58, 0
15, 363840, Note_on_c, 13, 57, 84
15, 364019, Note_on_c, 13, 57, 0
15, 364080, Note_on_c, 13, 55, 84
15, 364259, Note_on_c, 13, 55, 0
15, 364320, Note_on_c, 13, 62, 76
15, 364371, Note_on_c, 13, 62, 0
15, 364380, Note_on_c, 13, 74, 52
15, 364380, Note_on_c, 13, 62, 52
15, 364431, Note_on_c, 13, 74, 0
15, 364431, Note_on_c, 13, 62, 0
15, 364440, Note_on_c, 13, 74, 52
15, 364440, Note_on_c, 13, 62, 52
15, 364491, Note_on_c, 13, 74, 0
15, 364491, Note_on_c, 13, 62, 0
15, 364500, Note_on_c, 13, 62, 52
15, 364500, Note_on_c, 13, 74, 52
15, 364551, Note_on_c, 13, 62, 0
15, 364551, Note_on_c, 13, 74, 0
15, 364560, Note_on_c, 13, 62, 52
15, 364560, Note_on_c, 13, 74, 52
15, 364611, Note_on_c, 13, 62, 0
15, 364611, Note_on_c, 13, 74, 0
15, 364620, Note_on_c, 13, 74, 52
15, 364620, Note_on_c, 13, 62, 52
15, 364671, Note_on_c, 13, 74, 0
15, 364671, Note_on_c, 13, 62, 0
15, 364680, Note_on_c, 13, 74, 52
15, 364680, Note_on_c, 13, 62, 52
15, 364731, Note_on_c, 13, 74, 0
15, 364731, Note_on_c, 13, 62, 0
15, 364740, Note_on_c, 13, 62, 52
15, 364740, Note_on_c, 13, 74, 52
15, 364791, Note_on_c, 13, 62, 0
15, 364791, Note_on_c, 13, 74, 0
15, 364800, Note_on_c, 13, 74, 52
15, 364800, Note_on_c, 13, 62, 52
15, 364851, Note_on_c, 13, 74, 0
15, 364851, Note_on_c, 13, 62, 0
15, 364860, Note_on_c, 13, 74, 52
15, 364860, Note_on_c, 13, 62, 52
15, 364911, Note_on_c, 13, 74, 0
15, 364911, Note_on_c, 13, 62, 0
15, 364920, Note_on_c, 13, 62, 52
15, 364920, Note_on_c, 13, 74, 52
15, 364971, Note_on_c, 13, 62, 0
15, 364971, Note_on_c, 13, 74, 0
15, 364980, Note_on_c, 13, 62, 52
15, 364980, Note_on_c, 13, 74, 52
15, 365031, Note_on_c, 13, 62, 0
15, 365031, Note_on_c, 13, 74, 0
15, 365040, Note_on_c, 13, 62, 52
15, 365040, Note_on_c, 13, 74, 52
15, 365091, Note_on_c, 13, 62, 0
15, 365091, Note_on_c, 13, 74, 0
15, 365100, Note_on_c, 13, 62, 52
15, 365100, Note_on_c, 13, 74, 52
15, 365151, Note_on_c, 13, 62, 0
15, 365151, Note_on_c, 13, 74, 0
15, 365160, Note_on_c, 13, 62, 52
15, 365160, Note_on_c, 13, 74, 52
15, 365211, Note_on_c, 13, 62, 0
15, 365211, Note_on_c, 13, 74, 0
15, 365220, Note_on_c, 13, 74, 52
15, 365220, Note_on_c, 13, 62, 52
15, 365271, Note_on_c, 13, 74, 0
15, 365271, Note_on_c, 13, 62, 0
15, 365280, Note_on_c, 13, 74, 52
15, 365280, Note_on_c, 13, 62, 52
15, 365331, Note_on_c, 13, 74, 0
15, 365331, Note_on_c, 13, 62, 0
15, 365340, Note_on_c, 13, 62, 52
15, 365340, Note_on_c, 13, 74, 52
15, 365391, Note_on_c, 13, 62, 0
15, 365391, Note_on_c, 13, 74, 0
15, 365400, Note_on_c, 13, 62, 52
15, 365400, Note_on_c, 13, 74, 52
15, 365451, Note_on_c, 13, 62, 0
15, 365451, Note_on_c, 13, 74, 0
15, 365460, Note_on_c, 13, 74, 52
15, 365460, Note_on_c, 13, 62, 52
15, 365511, Note_on_c, 13, 74, 0
15, 365511, Note_on_c, 13, 62, 0
15, 365520, Note_on_c, 13, 74, 52
15, 365520, Note_on_c, 13, 62, 52
15, 365571, Note_on_c, 13, 74, 0
15, 365571, Note_on_c, 13, 62, 0
15, 365580, Note_on_c, 13, 74, 52
15, 365580, Note_on_c, 13, 62, 52
15, 365631, Note_on_c, 13, 74, 0
15, 365631, Note_on_c, 13, 62, 0
15, 365640, Note_on_c, 13, 74, 52
15, 365640, Note_on_c, 13, 62, 52
15, 365691, Note_on_c, 13, 74, 0
15, 365691, Note_on_c, 13, 62, 0
15, 365700, Note_on_c, 13, 74, 52
15, 365700, Note_on_c, 13, 62, 52
15, 365751, Note_on_c, 13, 74, 0
15, 365751, Note_on_c, 13, 62, 0
15, 365760, Note_on_c, 13, 74, 52
15, 365760, Note_on_c, 13, 62, 52
15, 365811, Note_on_c, 13, 74, 0
15, 365811, Note_on_c, 13, 62, 0
15, 365820, Note_on_c, 13, 62, 52
15, 365820, Note_on_c, 13, 74, 52
15, 365871, Note_on_c, 13, 62, 0
15, 365871, Note_on_c, 13, 74, 0
15, 365880, Note_on_c, 13, 74, 52
15, 365880, Note_on_c, 13, 62, 52
15, 365931, Note_on_c, 13, 74, 0
15, 365931, Note_on_c, 13, 62, 0
15, 365940, Note_on_c, 13, 62, 52
15, 365940, Note_on_c, 13, 74, 52
15, 365991, Note_on_c, 13, 62, 0
15, 365991, Note_on_c, 13, 74, 0
15, 366000, Note_on_c, 13, 62, 52
15, 366000, Note_on_c, 13, 74, 52
15, 366051, Note_on_c, 13, 62, 0
15, 366051, Note_on_c, 13, 74, 0
15, 366060, Note_on_c, 13, 74, 52
15, 366060, Note_on_c, 13, 62, 52
15, 366111, Note_on_c, 13, 74, 0
15, 366111, Note_on_c, 13, 62, 0
15, 366120, Note_on_c, 13, 74, 52
15, 366120, Note_on_c, 13, 62, 52
15, 366171, Note_on_c, 13, 74, 0
15, 366171, Note_on_c, 13, 62, 0
15, 366180, Note_on_c, 13, 74, 52
15, 366180, Note_on_c, 13, 62, 52
15, 366231, Note_on_c, 13, 74, 0
15, 366231, Note_on_c, 13, 62, 0
15, 366240, Note_on_c, 13, 67, 84
15, 366944, Note_on_c, 13, 67, 0
15, 366960, Note_on_c, 13, 67, 84
15, 367139, Note_on_c, 13, 67, 0
15, 367200, Note_on_c, 13, 62, 84
15, 367379, Note_on_c, 13, 62, 0
15, 367440, Note_on_c, 13, 58, 84
15, 367619, Note_on_c, 13, 58, 0
15, 367680, Note_on_c, 13, 57, 84
15, 367859, Note_on_c, 13, 57, 0
15, 367920, Note_on_c, 13, 55, 84
15, 368099, Note_on_c, 13, 55, 0
15, 368160, Note_on_c, 13, 62, 52
15, 368384, Note_on_c, 13, 62, 0
15, 368400, Note_on_c, 13, 62, 52
15, 368451, Note_on_c, 13, 62, 0
15, 368460, Note_on_c, 13, 62, 52
15, 368511, Note_on_c, 13, 62, 0
15, 368520, Note_on_c, 13, 62, 52
15, 368571, Note_on_c, 13, 62, 0
15, 368580, Note_on_c, 13, 62, 52
15, 368631, Note_on_c, 13, 62, 0
15, 368640, Note_on_c, 13, 66, 52
15, 368691, Note_on_c, 13, 66, 0
15, 368700, Note_on_c, 13, 66, 52
15, 368751, Note_on_c, 13, 66, 0
15, 368760, Note_on_c, 13, 66, 52
15, 368811, Note_on_c, 13, 66, 0
15, 368820, Note_on_c, 13, 66, 52
15, 368871, Note_on_c, 13, 66, 0
15, 368880, Note_on_c, 13, 67, 76
15, 368931, Note_on_c, 13, 67, 0
15, 368940, Note_on_c, 13, 67, 52
15, 368991, Note_on_c, 13, 67, 0
15, 369000, Note_on_c, 13, 67, 52
15, 369051, Note_on_c, 13, 67, 0
15, 369060, Note_on_c, 13, 67, 52
15, 369111, Note_on_c, 13, 67, 0
15, 369120, Note_on_c, 13, 66, 52
15, 369171, Note_on_c, 13, 66, 0
15, 369180, Note_on_c, 13, 66, 52
15, 369231, Note_on_c, 13, 66, 0
15, 369240, Note_on_c, 13, 66, 52
15, 369291, Note_on_c, 13, 66, 0
15, 369300, Note_on_c, 13, 66, 52
15, 369351, Note_on_c, 13, 66, 0
15, 369360, Note_on_c, 13, 62, 52
15, 369411, Note_on_c, 13, 62, 0
15, 369420, Note_on_c, 13, 62, 52
15, 369471, Note_on_c, 13, 62, 0
15, 369480, Note_on_c, 13, 62, 52
15, 369531, Note_on_c, 13, 62, 0
15, 369540, Note_on_c, 13, 62, 52
15, 369591, Note_on_c, 13, 62, 0
15, 369600, Note_on_c, 13, 66, 52
15, 369651, Note_on_c, 13, 66, 0
15, 369660, Note_on_c, 13, 66, 52
15, 369711, Note_on_c, 13, 66, 0
15, 369720, Note_on_c, 13, 66, 52
15, 369771, Note_on_c, 13, 66, 0
15, 369780, Note_on_c, 13, 66, 52
15, 369831, Note_on_c, 13, 66, 0
15, 369840, Note_on_c, 13, 67, 76
15, 369891, Note_on_c, 13, 67, 0
15, 369900, Note_on_c, 13, 67, 52
15, 369951, Note_on_c, 13, 67, 0
15, 369960, Note_on_c, 13, 67, 52
15, 370011, Note_on_c, 13, 67, 0
15, 370020, Note_on_c, 13, 67, 52
15, 370071, Note_on_c, 13, 67, 0
15, 370080, Note_on_c, 13, 66, 52
15, 370131, Note_on_c, 13, 66, 0
15, 370140, Note_on_c, 13, 66, 52
15, 370191, Note_on_c, 13, 66, 0
15, 370200, Note_on_c, 13, 66, 52
15, 370251, Note_on_c, 13, 66, 0
15, 370260, Note_on_c, 13, 66, 52
15, 370311, Note_on_c, 13, 66, 0
15, 370320, Note_on_c, 13, 62, 52
15, 370371, Note_on_c, 13, 62, 0
15, 370380, Note_on_c, 13, 62, 52
15, 370431, Note_on_c, 13, 62, 0
15, 370440, Note_on_c, 13, 62, 52
15, 370491, Note_on_c, 13, 62, 0
15, 370500, Note_on_c, 13, 62, 52
15, 370551, Note_on_c, 13, 62, 0
15, 370560, Note_on_c, 13, 66, 52
15, 370611, Note_on_c, 13, 66, 0
15, 370620, Note_on_c, 13, 66, 52
15, 370671, Note_on_c, 13, 66, 0
15, 370680, Note_on_c, 13, 66, 52
15, 370731, Note_on_c, 13, 66, 0
15, 370740, Note_on_c, 13, 66, 52
15, 370791, Note_on_c, 13, 66, 0
15, 370800, Note_on_c, 13, 67, 76
15, 370851, Note_on_c, 13, 67, 0
15, 370860, Note_on_c, 13, 67, 52
15, 370911, Note_on_c, 13, 67, 0
15, 370920, Note_on_c, 13, 67, 52
15, 370971, Note_on_c, 13, 67, 0
15, 370980, Note_on_c, 13, 67, 52
15, 371031, Note_on_c, 13, 67, 0
15, 371040, Note_on_c, 13, 66, 52
15, 371091, Note_on_c, 13, 66, 0
15, 371100, Note_on_c, 13, 66, 52
15, 371151, Note_on_c, 13, 66, 0
15, 371160, Note_on_c, 13, 66, 52
15, 371211, Note_on_c, 13, 66, 0
15, 371220, Note_on_c, 13, 66, 52
15, 371271, Note_on_c, 13, 66, 0
15, 371280, Note_on_c, 13, 62, 52
15, 371331, Note_on_c, 13, 62, 0
15, 371340, Note_on_c, 13, 62, 52
15, 371391, Note_on_c, 13, 62, 0
15, 371400, Note_on_c, 13, 62, 52
15, 371451, Note_on_c, 13, 62, 0
15, 371460, Note_on_c, 13, 62, 52
15, 371511, Note_on_c, 13, 62, 0
15, 371520, Note_on_c, 13, 66, 52
15, 371571, Note_on_c, 13, 66, 0
15, 371580, Note_on_c, 13, 66, 52
15, 371631, Note_on_c, 13, 66, 0
15, 371640, Note_on_c, 13, 66, 52
15, 371691, Note_on_c, 13, 66, 0
15, 371700, Note_on_c, 13, 66, 52
15, 371751, Note_on_c, 13, 66, 0
15, 371760, Note_on_c, 13, 67, 76
15, 371811, Note_on_c, 13, 67, 0
15, 371820, Note_on_c, 13, 67, 52
15, 371871, Note_on_c, 13, 67, 0
15, 371880, Note_on_c, 13, 67, 52
15, 371931, Note_on_c, 13, 67, 0
15, 371940, Note_on_c, 13, 67, 52
15, 371991, Note_on_c, 13, 67, 0
15, 372000, Note_on_c, 13, 66, 52
15, 372051, Note_on_c, 13, 66, 0
15, 372060, Note_on_c, 13, 66, 52
15, 372111, Note_on_c, 13, 66, 0
15, 372120, Note_on_c, 13, 66, 52
15, 372171, Note_on_c, 13, 66, 0
15, 372180, Note_on_c, 13, 66, 52
15, 372231, Note_on_c, 13, 66, 0
15, 372240, Note_on_c, 13, 67, 76
15, 372291, Note_on_c, 13, 67, 0
15, 372300, Note_on_c, 13, 67, 52
15, 372351, Note_on_c, 13, 67, 0
15, 372360, Note_on_c, 13, 67, 52
15, 372411, Note_on_c, 13, 67, 0
15, 372420, Note_on_c, 13, 67, 52
15, 372471, Note_on_c, 13, 67, 0
15, 372480, Note_on_c, 13, 66, 52
15, 372531, Note_on_c, 13, 66, 0
15, 372540, Note_on_c, 13, 66, 52
15, 372591, Note_on_c, 13, 66, 0
15, 372600, Note_on_c, 13, 66, 52
15, 372651, Note_on_c, 13, 66, 0
15, 372660, Note_on_c, 13, 66, 52
15, 372711, Note_on_c, 13, 66, 0
15, 372720, Note_on_c, 13, 67, 76
15, 372771, Note_on_c, 13, 67, 0
15, 372780, Note_on_c, 13, 67, 52
15, 372831, Note_on_c, 13, 67, 0
15, 372840, Note_on_c, 13, 67, 52
15, 372891, Note_on_c, 13, 67, 0
15, 372900, Note_on_c, 13, 67, 52
15, 372951, Note_on_c, 13, 67, 0
15, 372960, Note_on_c, 13, 66, 52
15, 373011, Note_on_c, 13, 66, 0
15, 373020, Note_on_c, 13, 66, 52
15, 373071, Note_on_c, 13, 66, 0
15, 373080, Note_on_c, 13, 66, 52
15, 373131, Note_on_c, 13, 66, 0
15, 373140, Note_on_c, 13, 66, 52
15, 373191, Note_on_c, 13, 66, 0
15, 373200, Note_on_c, 13, 67, 76
15, 373251, Note_on_c, 13, 67, 0
15, 373260, Note_on_c, 13, 67, 52
15, 373311, Note_on_c, 13, 67, 0
15, 373320, Note_on_c, 13, 67, 52
15, 373371, Note_on_c, 13, 67, 0
15, 373380, Note_on_c, 13, 67, 52
15, 373431, Note_on_c, 13, 67, 0
15, 373440, Note_on_c, 13, 66, 52
15, 373491, Note_on_c, 13, 66, 0
15, 373500, Note_on_c, 13, 66, 52
15, 373551, Note_on_c, 13, 66, 0
15, 373560, Note_on_c, 13, 66, 52
15, 373611, Note_on_c, 13, 66, 0
15, 373620, Note_on_c, 13, 66, 52
15, 373671, Note_on_c, 13, 66, 0
15, 373680, Note_on_c, 13, 67, 76
15, 373731, Note_on_c, 13, 67, 0
15, 373740, Note_on_c, 13, 67, 52
15, 373791, Note_on_c, 13, 67, 0
15, 373800, Note_on_c, 13, 67, 52
15, 373851, Note_on_c, 13, 67, 0
15, 373860, Note_on_c, 13, 67, 52
15, 373911, Note_on_c, 13, 67, 0
15, 373920, Note_on_c, 13, 62, 84
15, 375824, Note_on_c, 13, 62, 0
15, 375840, Note_on_c, 13, 62, 84
15, 376424, Note_on_c, 13, 62, 0
15, 376440, Note_on_c, 13, 66, 84
15, 376491, Note_on_c, 13, 66, 0
15, 376500, Note_on_c, 13, 66, 84
15, 376551, Note_on_c, 13, 66, 0
15, 376560, Note_on_c, 13, 62, 84
15, 376611, Note_on_c, 13, 62, 0
15, 376620, Note_on_c, 13, 62, 84
15, 376671, Note_on_c, 13, 62, 0
15, 376680, Note_on_c, 13, 57, 84
15, 376731, Note_on_c, 13, 57, 0
15, 376740, Note_on_c, 13, 57, 84
15, 376791, Note_on_c, 13, 57, 0
15, 376800, Note_on_c, 13, 54, 84
15, 376851, Note_on_c, 13, 54, 0
15, 376860, Note_on_c, 13, 54, 84
15, 376911, Note_on_c, 13, 54, 0
15, 376920, Note_on_c, 13, 62, 84
15, 376971, Note_on_c, 13, 62, 0
15, 376980, Note_on_c, 13, 62, 84
15, 377031, Note_on_c, 13, 62, 0
15, 377040, Note_on_c, 13, 57, 84
15, 377091, Note_on_c, 13, 57, 0
15, 377100, Note_on_c, 13, 57, 84
15, 377151, Note_on_c, 13, 57, 0
15, 377160, Note_on_c, 13, 54, 84
15, 377211, Note_on_c, 13, 54, 0
15, 377220, Note_on_c, 13, 54, 84
15, 377271, Note_on_c, 13, 54, 0
15, 377280, Note_on_c, 13, 50, 84
15, 377331, Note_on_c, 13, 50, 0
15, 377340, Note_on_c, 13, 50, 84
15, 377391, Note_on_c, 13, 50, 0
15, 377400, Note_on_c, 13, 62, 84
15, 377451, Note_on_c, 13, 62, 0
15, 377460, Note_on_c, 13, 62, 84
15, 377511, Note_on_c, 13, 62, 0
15, 377520, Note_on_c, 13, 57, 84
15, 377571, Note_on_c, 13, 57, 0
15, 377580, Note_on_c, 13, 57, 84
15, 377631, Note_on_c, 13, 57, 0
15, 377640, Note_on_c, 13, 54, 84
15, 377691, Note_on_c, 13, 54, 0
15, 377700, Note_on_c, 13, 54, 84
15, 377751, Note_on_c, 13, 54, 0
15, 377760, Note_on_c, 13, 50, 84
15, 377999, Note_on_c, 13, 50, 0
15, 378720, Note_on_c, 13, 50, 76
15, 378720, Note_on_c, 13, 62, 76
15, 378959, Note_on_c, 13, 50, 0
15, 378959, Note_on_c, 13, 62, 0
15, 381480, Note_on_c, 13, 50, 52
15, 381519, Note_on_c, 13, 50, 0
15, 381520, Note_on_c, 13, 52, 52
15, 381559, Note_on_c, 13, 52, 0
15, 381560, Note_on_c, 13, 54, 52
15, 381591, Note_on_c, 13, 54, 0
15, 381600, Note_on_c, 13, 55, 52
15, 381839, Note_on_c, 13, 55, 0
15, 383400, Note_on_c, 13, 59, 52
15, 383439, Note_on_c, 13, 59, 0
15, 383440, Note_on_c, 13, 61, 52
15, 383479, Note_on_c, 13, 61, 0
15, 383480, Note_on_c, 13, 63, 52
15, 383511, Note_on_c, 13, 63, 0
15, 383520, Note_on_c, 13, 64, 52
15, 383759, Note_on_c, 13, 64, 0
15, 385320, Note_on_c, 13, 57, 52
15, 385359, Note_on_c, 13, 57, 0
15, 385360, Note_on_c, 13, 59, 52
15, 385399, Note_on_c, 13, 59, 0
15, 385400, Note_on_c, 13, 61, 52
15, 385431, Note_on_c, 13, 61, 0
15, 385440, Note_on_c, 13, 62, 76
15, 385619, Note_on_c, 13, 62, 0
15, 385680, Note_on_c, 13, 66, 84
15, 386159, Note_on_c, 13, 66, 0
15, 386160, Note_on_c, 13, 64, 76
15, 386384, Note_on_c, 13, 64, 0
15, 386400, Note_on_c, 13, 62, 84
15, 386639, Note_on_c, 13, 62, 0
15, 386640, Note_on_c, 13, 60, 76
15, 386879, Note_on_c, 13, 60, 0
15, 386880, Note_on_c, 13, 59, 76
15, 387119, Note_on_c, 13, 59, 0
15, 387120, Note_on_c, 13, 57, 76
15, 387344, Note_on_c, 13, 57, 0
15, 387360, Note_on_c, 13, 55, 76
15, 387539, Note_on_c, 13, 55, 0
15, 387600, Note_on_c, 13, 67, 84
15, 388079, Note_on_c, 13, 67, 0
15, 388080, Note_on_c, 13, 66, 76
15, 388304, Note_on_c, 13, 66, 0
15, 388320, Note_on_c, 13, 64, 84
15, 388559, Note_on_c, 13, 64, 0
15, 388560, Note_on_c, 13, 62, 76
15, 388799, Note_on_c, 13, 62, 0
15, 388800, Note_on_c, 13, 61, 76
15, 389039, Note_on_c, 13, 61, 0
15, 389040, Note_on_c, 13, 59, 76
15, 389264, Note_on_c, 13, 59, 0
15, 389280, Note_on_c, 13, 57, 76
15, 389369, Note_on_c, 13, 57, 0
15, 389400, Note_on_c, 13, 69, 84
15, 389624, Note_on_c, 13, 69, 0
15, 389640, Note_on_c, 13, 67, 76
15, 389729, Note_on_c, 13, 67, 0
15, 389760, Note_on_c, 13, 66, 76
15, 389849, Note_on_c, 13, 66, 0
15, 389880, Note_on_c, 13, 64, 76
15, 389969, Note_on_c, 13, 64, 0
15, 390000, Note_on_c, 13, 62, 76
15, 390089, Note_on_c, 13, 62, 0
15, 390120, Note_on_c, 13, 60, 76
15, 390209, Note_on_c, 13, 60, 0
15, 390240, Note_on_c, 13, 59, 76
15, 390329, Note_on_c, 13, 59, 0
15, 390360, Note_on_c, 13, 71, 84
15, 390584, Note_on_c, 13, 71, 0
15, 390600, Note_on_c, 13, 69, 76
15, 390689, Note_on_c, 13, 69, 0
15, 390720, Note_on_c, 13, 67, 76
15, 390809, Note_on_c, 13, 67, 0
15, 390840, Note_on_c, 13, 66, 76
15, 390929, Note_on_c, 13, 66, 0
15, 390960, Note_on_c, 13, 64, 76
15, 391049, Note_on_c, 13, 64, 0
15, 391080, Note_on_c, 13, 62, 76
15, 391169, Note_on_c, 13, 62, 0
15, 391200, Note_on_c, 13, 61, 76
15, 391260, Control_c, 13, 11, 80
15, 391904, Note_on_c, 13, 61, 0
15, 391920, Note_on_c, 13, 55, 76
15, 391979, Note_on_c, 13, 55, 0
15, 391980, Note_on_c, 13, 54, 76
15, 392039, Note_on_c, 13, 54, 0
15, 392040, Note_on_c, 13, 55, 76
15, 392099, Note_on_c, 13, 55, 0
15, 392100, Note_on_c, 13, 57, 76
15, 392151, Note_on_c, 13, 57, 0
15, 392160, Note_on_c, 13, 58, 76
15, 392339, Note_on_c, 13, 58, 0
15, 392400, Note_on_c, 13, 58, 76
15, 392579, Note_on_c, 13, 58, 0
15, 392640, Note_on_c, 13, 55, 76
15, 392819, Note_on_c, 13, 55, 0
15, 392880, Note_on_c, 13, 55, 76
15, 393059, Note_on_c, 13, 55, 0
15, 393105, Control_c, 13, 11, 127
15, 393120, Note_on_c, 13, 57, 84
15, 393824, Note_on_c, 13, 57, 0
15, 393840, Note_on_c, 13, 55, 84
15, 393899, Note_on_c, 13, 55, 0
15, 393900, Note_on_c, 13, 54, 84
15, 393959, Note_on_c, 13, 54, 0
15, 393960, Note_on_c, 13, 55, 84
15, 394019, Note_on_c, 13, 55, 0
15, 394020, Note_on_c, 13, 57, 84
15, 394071, Note_on_c, 13, 57, 0
15, 394080, Note_on_c, 13, 58, 52
15, 394259, Note_on_c, 13, 58, 0
15, 394320, Note_on_c, 13, 58, 52
15, 394499, Note_on_c, 13, 58, 0
15, 394560, Note_on_c, 13, 55, 52
15, 394739, Note_on_c, 13, 55, 0
15, 394800, Note_on_c, 13, 55, 52
15, 394979, Note_on_c, 13, 55, 0
15, 395040, Note_on_c, 13, 59, 84
15, 395984, Note_on_c, 13, 59, 0
15, 396000, Note_on_c, 13, 52, 84
15, 396051, Note_on_c, 13, 52, 0
15, 396060, Note_on_c, 13, 52, 84
15, 396111, Note_on_c, 13, 52, 0
15, 396120, Note_on_c, 13, 52, 84
15, 396171, Note_on_c, 13, 52, 0
15, 396180, Note_on_c, 13, 52, 84
15, 396231, Note_on_c, 13, 52, 0
15, 396240, Note_on_c, 13, 57, 84
15, 396291, Note_on_c, 13, 57, 0
15, 396300, Note_on_c, 13, 57, 84
15, 396351, Note_on_c, 13, 57, 0
15, 396360, Note_on_c, 13, 57, 84
15, 396411, Note_on_c, 13, 57, 0
15, 396420, Note_on_c, 13, 57, 84
15, 396471, Note_on_c, 13, 57, 0
15, 396480, Note_on_c, 13, 57, 84
15, 396531, Note_on_c, 13, 57, 0
15, 396540, Note_on_c, 13, 57, 84
15, 396591, Note_on_c, 13, 57, 0
15, 396600, Note_on_c, 13, 57, 84
15, 396651, Note_on_c, 13, 57, 0
15, 396660, Note_on_c, 13, 57, 84
15, 396711, Note_on_c, 13, 57, 0
15, 396720, Note_on_c, 13, 55, 84
15, 396771, Note_on_c, 13, 55, 0
15, 396780, Note_on_c, 13, 55, 84
15, 396831, Note_on_c, 13, 55, 0
15, 396840, Note_on_c, 13, 55, 84
15, 396891, Note_on_c, 13, 55, 0
15, 396900, Note_on_c, 13, 55, 84
15, 396951, Note_on_c, 13, 55, 0
15, 396960, Note_on_c, 13, 54, 84
15, 397199, Note_on_c, 13, 54, 0
15, 398880, Note_on_c, 13, 62, 84
15, 398984, Note_on_c, 13, 62, 0
15, 399000, Note_on_c, 13, 74, 84
15, 399104, Note_on_c, 13, 74, 0
15, 399120, Note_on_c, 13, 74, 84
15, 399224, Note_on_c, 13, 74, 0
15, 399240, Note_on_c, 13, 74, 84
15, 399344, Note_on_c, 13, 74, 0
15, 399360, Note_on_c, 13, 74, 84
15, 399464, Note_on_c, 13, 74, 0
15, 399480, Note_on_c, 13, 74, 84
15, 399584, Note_on_c, 13, 74, 0
15, 399600, Note_on_c, 13, 74, 84
15, 399704, Note_on_c, 13, 74, 0
15, 399720, Note_on_c, 13, 74, 84
15, 399824, Note_on_c, 13, 74, 0
15, 400800, Note_on_c, 13, 57, 84
15, 400851, Note_on_c, 13, 57, 0
15, 400860, Note_on_c, 13, 69, 84
15, 400911, Note_on_c, 13, 69, 0
15, 400920, Note_on_c, 13, 69, 84
15, 400971, Note_on_c, 13, 69, 0
15, 400980, Note_on_c, 13, 69, 84
15, 401031, Note_on_c, 13, 69, 0
15, 401040, Note_on_c, 13, 69, 84
15, 401091, Note_on_c, 13, 69, 0
15, 401100, Note_on_c, 13, 69, 84
15, 401151, Note_on_c, 13, 69, 0
15, 401160, Note_on_c, 13, 69, 84
15, 401211, Note_on_c, 13, 69, 0
15, 401220, Note_on_c, 13, 69, 84
15, 401271, Note_on_c, 13, 69, 0
15, 401280, Note_on_c, 13, 69, 84
15, 401331, Note_on_c, 13, 69, 0
15, 401340, Note_on_c, 13, 69, 84
15, 401391, Note_on_c, 13, 69, 0
15, 401400, Note_on_c, 13, 69, 84
15, 401451, Note_on_c, 13, 69, 0
15, 401460, Note_on_c, 13, 69, 84
15, 401511, Note_on_c, 13, 69, 0
15, 401520, Note_on_c, 13, 69, 84
15, 401571, Note_on_c, 13, 69, 0
15, 401580, Note_on_c, 13, 69, 84
15, 401631, Note_on_c, 13, 69, 0
15, 401640, Note_on_c, 13, 69, 84
15, 401691, Note_on_c, 13, 69, 0
15, 401700, Note_on_c, 13, 69, 84
15, 401751, Note_on_c, 13, 69, 0
15, 401760, Note_on_c, 13, 69, 84
15, 401811, Note_on_c, 13, 69, 0
15, 401820, Note_on_c, 13, 69, 84
15, 401871, Note_on_c, 13, 69, 0
15, 401880, Note_on_c, 13, 69, 84
15, 401931, Note_on_c, 13, 69, 0
15, 401940, Note_on_c, 13, 69, 84
15, 401991, Note_on_c, 13, 69, 0
15, 402000, Note_on_c, 13, 69, 84
15, 402051, Note_on_c, 13, 69, 0
15, 402060, Note_on_c, 13, 69, 84
15, 402111, Note_on_c, 13, 69, 0
15, 402120, Note_on_c, 13, 69, 84
15, 402171, Note_on_c, 13, 69, 0
15, 402180, Note_on_c, 13, 69, 84
15, 402231, Note_on_c, 13, 69, 0
15, 402240, Note_on_c, 13, 69, 84
15, 402291, Note_on_c, 13, 69, 0
15, 402300, Note_on_c, 13, 69, 84
15, 402351, Note_on_c, 13, 69, 0
15, 402360, Note_on_c, 13, 69, 84
15, 402411, Note_on_c, 13, 69, 0
15, 402420, Note_on_c, 13, 69, 84
15, 402471, Note_on_c, 13, 69, 0
15, 402480, Note_on_c, 13, 69, 84
15, 402531, Note_on_c, 13, 69, 0
15, 402540, Note_on_c, 13, 69, 84
15, 402591, Note_on_c, 13, 69, 0
15, 402600, Note_on_c, 13, 69, 84
15, 402651, Note_on_c, 13, 69, 0
15, 402660, Note_on_c, 13, 69, 84
15, 402711, Note_on_c, 13, 69, 0
15, 402720, Note_on_c, 13, 69, 84
15, 402771, Note_on_c, 13, 69, 0
15, 402780, Note_on_c, 13, 69, 84
15, 402831, Note_on_c, 13, 69, 0
15, 402840, Note_on_c, 13, 69, 84
15, 402891, Note_on_c, 13, 69, 0
15, 402900, Note_on_c, 13, 69, 84
15, 402951, Note_on_c, 13, 69, 0
15, 402960, Note_on_c, 13, 69, 84
15, 403011, Note_on_c, 13, 69, 0
15, 403020, Note_on_c, 13, 69, 84
15, 403071, Note_on_c, 13, 69, 0
15, 403080, Note_on_c, 13, 69, 84
15, 403131, Note_on_c, 13, 69, 0
15, 403140, Note_on_c, 13, 69, 84
15, 403191, Note_on_c, 13, 69, 0
15, 403200, Note_on_c, 13, 69, 84
15, 403251, Note_on_c, 13, 69, 0
15, 403260, Note_on_c, 13, 69, 84
15, 403311, Note_on_c, 13, 69, 0
15, 403320, Note_on_c, 13, 69, 84
15, 403371, Note_on_c, 13, 69, 0
15, 403380, Note_on_c, 13, 69, 84
15, 403431, Note_on_c, 13, 69, 0
15, 403440, Note_on_c, 13, 69, 84
15, 403491, Note_on_c, 13, 69, 0
15, 403500, Note_on_c, 13, 69, 84
15, 403551, Note_on_c, 13, 69, 0
15, 403560, Note_on_c, 13, 69, 84
15, 403611, Note_on_c, 13, 69, 0
15, 403620, Note_on_c, 13, 69, 84
15, 403671, Note_on_c, 13, 69, 0
15, 403680, Note_on_c, 13, 69, 84
15, 403731, Note_on_c, 13, 69, 0
15, 403740, Note_on_c, 13, 69, 84
15, 403791, Note_on_c, 13, 69, 0
15, 403800, Note_on_c, 13, 69, 84
15, 403851, Note_on_c, 13, 69, 0
15, 403860, Note_on_c, 13, 69, 84
15, 403911, Note_on_c, 13, 69, 0
15, 403920, Note_on_c, 13, 69, 84
15, 403971, Note_on_c, 13, 69, 0
15, 403980, Note_on_c, 13, 69, 84
15, 404031, Note_on_c, 13, 69, 0
15, 404040, Note_on_c, 13, 69, 84
15, 404091, Note_on_c, 13, 69, 0
15, 404100, Note_on_c, 13, 69, 84
15, 404151, Note_on_c, 13, 69, 0
15, 404160, Note_on_c, 13, 69, 84
15, 404211, Note_on_c, 13, 69, 0
15, 404220, Note_on_c, 13, 69, 84
15, 404271, Note_on_c, 13, 69, 0
15, 404280, Note_on_c, 13, 69, 84
15, 404331, Note_on_c, 13, 69, 0
15, 404340, Note_on_c, 13, 69, 84
15, 404391, Note_on_c, 13, 69, 0
15, 404400, Note_on_c, 13, 69, 84
15, 404451, Note_on_c, 13, 69, 0
15, 404460, Note_on_c, 13, 69, 84
15, 404511, Note_on_c, 13, 69, 0
15, 404520, Note_on_c, 13, 69, 84
15, 404571, Note_on_c, 13, 69, 0
15, 404580, Note_on_c, 13, 69, 84
15, 404631, Note_on_c, 13, 69, 0
15, 404640, Note_on_c, 13, 67, 84
15, 404691, Note_on_c, 13, 67, 0
15, 404700, Note_on_c, 13, 67, 84
15, 404751, Note_on_c, 13, 67, 0
15, 404760, Note_on_c, 13, 67, 84
15, 404811, Note_on_c, 13, 67, 0
15, 404820, Note_on_c, 13, 67, 84
15, 404871, Note_on_c, 13, 67, 0
15, 404880, Note_on_c, 13, 67, 84
15, 404931, Note_on_c, 13, 67, 0
15, 404940, Note_on_c, 13, 67, 84
15, 404991, Note_on_c, 13, 67, 0
15, 405000, Note_on_c, 13, 67, 84
15, 405051, Note_on_c, 13, 67, 0
15, 405060, Note_on_c, 13, 67, 84
15, 405111, Note_on_c, 13, 67, 0
15, 405120, Note_on_c, 13, 66, 84
15, 405171, Note_on_c, 13, 66, 0
15, 405180, Note_on_c, 13, 66, 84
15, 405231, Note_on_c, 13, 66, 0
15, 405240, Note_on_c, 13, 66, 84
15, 405291, Note_on_c, 13, 66, 0
15, 405300, Note_on_c, 13, 66, 84
15, 405351, Note_on_c, 13, 66, 0
15, 405360, Note_on_c, 13, 66, 84
15, 405411, Note_on_c, 13, 66, 0
15, 405420, Note_on_c, 13, 66, 84
15, 405471, Note_on_c, 13, 66, 0
15, 405480, Note_on_c, 13, 66, 84
15, 405531, Note_on_c, 13, 66, 0
15, 405540, Note_on_c, 13, 66, 84
15, 405591, Note_on_c, 13, 66, 0
15, 405600, Note_on_c, 13, 66, 84
15, 405651, Note_on_c, 13, 66, 0
15, 405660, Note_on_c, 13, 66, 84
15, 405711, Note_on_c, 13, 66, 0
15, 405720, Note_on_c, 13, 66, 84
15, 405771, Note_on_c, 13, 66, 0
15, 405780, Note_on_c, 13, 66, 84
15, 405831, Note_on_c, 13, 66, 0
15, 405840, Note_on_c, 13, 66, 84
15, 405891, Note_on_c, 13, 66, 0
15, 405900, Note_on_c, 13, 66, 84
15, 405951, Note_on_c, 13, 66, 0
15, 405960, Note_on_c, 13, 66, 84
15, 406011, Note_on_c, 13, 66, 0
15, 406020, Note_on_c, 13, 66, 84
15, 406071, Note_on_c, 13, 66, 0
15, 406080, Note_on_c, 13, 66, 84
15, 406131, Note_on_c, 13, 66, 0
15, 406140, Note_on_c, 13, 66, 84
15, 406191, Note_on_c, 13, 66, 0
15, 406200, Note_on_c, 13, 66, 84
15, 406251, Note_on_c, 13, 66, 0
15, 406260, Note_on_c, 13, 66, 84
15, 406311, Note_on_c, 13, 66, 0
15, 406320, Note_on_c, 13, 66, 84
15, 406371, Note_on_c, 13, 66, 0
15, 406380, Note_on_c, 13, 66, 84
15, 406431, Note_on_c, 13, 66, 0
15, 406440, Note_on_c, 13, 66, 84
15, 406491, Note_on_c, 13, 66, 0
15, 406500, Note_on_c, 13, 66, 84
15, 406551, Note_on_c, 13, 66, 0
15, 406560, Note_on_c, 13, 70, 84
15, 406611, Note_on_c, 13, 70, 0
15, 406620, Note_on_c, 13, 70, 84
15, 406671, Note_on_c, 13, 70, 0
15, 406680, Note_on_c, 13, 70, 84
15, 406731, Note_on_c, 13, 70, 0
15, 406740, Note_on_c, 13, 70, 84
15, 406791, Note_on_c, 13, 70, 0
15, 406800, Note_on_c, 13, 70, 84
15, 406851, Note_on_c, 13, 70, 0
15, 406860, Note_on_c, 13, 70, 84
15, 406911, Note_on_c, 13, 70, 0
15, 406920, Note_on_c, 13, 70, 84
15, 406971, Note_on_c, 13, 70, 0
15, 406980, Note_on_c, 13, 70, 84
15, 407031, Note_on_c, 13, 70, 0
15, 407040, Note_on_c, 13, 69, 84
15, 407091, Note_on_c, 13, 69, 0
15, 407100, Note_on_c, 13, 69, 84
15, 407151, Note_on_c, 13, 69, 0
15, 407160, Note_on_c, 13, 69, 84
15, 407211, Note_on_c, 13, 69, 0
15, 407220, Note_on_c, 13, 69, 84
15, 407271, Note_on_c, 13, 69, 0
15, 407280, Note_on_c, 13, 69, 84
15, 407331, Note_on_c, 13, 69, 0
15, 407340, Note_on_c, 13, 69, 84
15, 407391, Note_on_c, 13, 69, 0
15, 407400, Note_on_c, 13, 69, 84
15, 407451, Note_on_c, 13, 69, 0
15, 407460, Note_on_c, 13, 69, 84
15, 407511, Note_on_c, 13, 69, 0
15, 407520, Note_on_c, 13, 69, 84
15, 407571, Note_on_c, 13, 69, 0
15, 407580, Note_on_c, 13, 69, 84
15, 407631, Note_on_c, 13, 69, 0
15, 407640, Note_on_c, 13, 69, 84
15, 407691, Note_on_c, 13, 69, 0
15, 407700, Note_on_c, 13, 69, 84
15, 407751, Note_on_c, 13, 69, 0
15, 407760, Note_on_c, 13, 69, 84
15, 407811, Note_on_c, 13, 69, 0
15, 407820, Note_on_c, 13, 69, 84
15, 407871, Note_on_c, 13, 69, 0
15, 407880, Note_on_c, 13, 69, 84
15, 407931, Note_on_c, 13, 69, 0
15, 407940, Note_on_c, 13, 69, 84
15, 407991, Note_on_c, 13, 69, 0
15, 408000, Note_on_c, 13, 69, 84
15, 408051, Note_on_c, 13, 69, 0
15, 408060, Note_on_c, 13, 69, 84
15, 408111, Note_on_c, 13, 69, 0
15, 408120, Note_on_c, 13, 69, 84
15, 408171, Note_on_c, 13, 69, 0
15, 408180, Note_on_c, 13, 69, 84
15, 408231, Note_on_c, 13, 69, 0
15, 408240, Note_on_c, 13, 69, 84
15, 408291, Note_on_c, 13, 69, 0
15, 408300, Note_on_c, 13, 69, 84
15, 408351, Note_on_c, 13, 69, 0
15, 408360, Note_on_c, 13, 69, 84
15, 408411, Note_on_c, 13, 69, 0
15, 408420, Note_on_c, 13, 69, 84
15, 408471, Note_on_c, 13, 69, 0
15, 408480, Note_on_c, 13, 69, 84
15, 408531, Note_on_c, 13, 69, 0
15, 408540, Note_on_c, 13, 69, 84
15, 408591, Note_on_c, 13, 69, 0
15, 408600, Note_on_c, 13, 69, 84
15, 408651, Note_on_c, 13, 69, 0
15, 408660, Note_on_c, 13, 69, 84
15, 408711, Note_on_c, 13, 69, 0
15, 408720, Note_on_c, 13, 69, 84
15, 408771, Note_on_c, 13, 69, 0
15, 408780, Note_on_c, 13, 69, 84
15, 408831, Note_on_c, 13, 69, 0
15, 408840, Note_on_c, 13, 69, 84
15, 408891, Note_on_c, 13, 69, 0
15, 408900, Note_on_c, 13, 69, 84
15, 408951, Note_on_c, 13, 69, 0
15, 408960, Note_on_c, 13, 69, 84
15, 409011, Note_on_c, 13, 69, 0
15, 409020, Note_on_c, 13, 69, 84
15, 409071, Note_on_c, 13, 69, 0
15, 409080, Note_on_c, 13, 69, 84
15, 409131, Note_on_c, 13, 69, 0
15, 409140, Note_on_c, 13, 69, 84
15, 409191, Note_on_c, 13, 69, 0
15, 409200, Note_on_c, 13, 69, 84
15, 409251, Note_on_c, 13, 69, 0
15, 409260, Note_on_c, 13, 69, 84
15, 409311, Note_on_c, 13, 69, 0
15, 409320, Note_on_c, 13, 69, 84
15, 409371, Note_on_c, 13, 69, 0
15, 409380, Note_on_c, 13, 69, 84
15, 409431, Note_on_c, 13, 69, 0
15, 409440, Note_on_c, 13, 69, 84
15, 409491, Note_on_c, 13, 69, 0
15, 409500, Note_on_c, 13, 71, 84
15, 409551, Note_on_c, 13, 71, 0
15, 409560, Note_on_c, 13, 71, 84
15, 409611, Note_on_c, 13, 71, 0
15, 409620, Note_on_c, 13, 71, 84
15, 409671, Note_on_c, 13, 71, 0
15, 409680, Note_on_c, 13, 71, 84
15, 409731, Note_on_c, 13, 71, 0
15, 409740, Note_on_c, 13, 71, 84
15, 409791, Note_on_c, 13, 71, 0
15, 409800, Note_on_c, 13, 71, 84
15, 409851, Note_on_c, 13, 71, 0
15, 409860, Note_on_c, 13, 71, 84
15, 409911, Note_on_c, 13, 71, 0
15, 409920, Note_on_c, 13, 71, 84
15, 409971, Note_on_c, 13, 71, 0
15, 409980, Note_on_c, 13, 71, 84
15, 410031, Note_on_c, 13, 71, 0
15, 410040, Note_on_c, 13, 71, 84
15, 410091, Note_on_c, 13, 71, 0
15, 410100, Note_on_c, 13, 71, 84
15, 410151, Note_on_c, 13, 71, 0
15, 410160, Note_on_c, 13, 71, 84
15, 410211, Note_on_c, 13, 71, 0
15, 410220, Note_on_c, 13, 71, 84
15, 410271, Note_on_c, 13, 71, 0
15, 410280, Note_on_c, 13, 71, 84
15, 410331, Note_on_c, 13, 71, 0
15, 410340, Note_on_c, 13, 71, 84
15, 410391, Note_on_c, 13, 71, 0
15, 410400, Note_on_c, 13, 71, 84
15, 410451, Note_on_c, 13, 71, 0
15, 410460, Note_on_c, 13, 71, 84
15, 410511, Note_on_c, 13, 71, 0
15, 410520, Note_on_c, 13, 71, 84
15, 410571, Note_on_c, 13, 71, 0
15, 410580, Note_on_c, 13, 71, 84
15, 410631, Note_on_c, 13, 71, 0
15, 410640, Note_on_c, 13, 71, 84
15, 410691, Note_on_c, 13, 71, 0
15, 410700, Note_on_c, 13, 71, 84
15, 410751, Note_on_c, 13, 71, 0
15, 410760, Note_on_c, 13, 71, 84
15, 410811, Note_on_c, 13, 71, 0
15, 410820, Note_on_c, 13, 71, 84
15, 410871, Note_on_c, 13, 71, 0
15, 410880, Note_on_c, 13, 64, 84
15, 410931, Note_on_c, 13, 64, 0
15, 410940, Note_on_c, 13, 64, 84
15, 410991, Note_on_c, 13, 64, 0
15, 411000, Note_on_c, 13, 64, 84
15, 411051, Note_on_c, 13, 64, 0
15, 411060, Note_on_c, 13, 64, 84
15, 411111, Note_on_c, 13, 64, 0
15, 411120, Note_on_c, 13, 64, 84
15, 411171, Note_on_c, 13, 64, 0
15, 411180, Note_on_c, 13, 64, 84
15, 411231, Note_on_c, 13, 64, 0
15, 411240, Note_on_c, 13, 64, 84
15, 411291, Note_on_c, 13, 64, 0
15, 411300, Note_on_c, 13, 64, 84
15, 411351, Note_on_c, 13, 64, 0
15, 411360, Note_on_c, 13, 69, 84
15, 411411, Note_on_c, 13, 69, 0
15, 411420, Note_on_c, 13, 69, 84
15, 411471, Note_on_c, 13, 69, 0
15, 411480, Note_on_c, 13, 69, 84
15, 411531, Note_on_c, 13, 69, 0
15, 411540, Note_on_c, 13, 69, 84
15, 411591, Note_on_c, 13, 69, 0
15, 411600, Note_on_c, 13, 69, 84
15, 411651, Note_on_c, 13, 69, 0
15, 411660, Note_on_c, 13, 69, 84
15, 411711, Note_on_c, 13, 69, 0
15, 411720, Note_on_c, 13, 69, 84
15, 411771, Note_on_c, 13, 69, 0
15, 411780, Note_on_c, 13, 69, 84
15, 411831, Note_on_c, 13, 69, 0
15, 411840, Note_on_c, 13, 71, 84
15, 411891, Note_on_c, 13, 71, 0
15, 411900, Note_on_c, 13, 71, 84
15, 411951, Note_on_c, 13, 71, 0
15, 411960, Note_on_c, 13, 71, 84
15, 412011, Note_on_c, 13, 71, 0
15, 412020, Note_on_c, 13, 71, 84
15, 412071, Note_on_c, 13, 71, 0
15, 412080, Note_on_c, 13, 71, 84
15, 412131, Note_on_c, 13, 71, 0
15, 412140, Note_on_c, 13, 71, 84
15, 412191, Note_on_c, 13, 71, 0
15, 412200, Note_on_c, 13, 71, 84
15, 412251, Note_on_c, 13, 71, 0
15, 412260, Note_on_c, 13, 71, 84
15, 412311, Note_on_c, 13, 71, 0
15, 412320, Note_on_c, 13, 59, 92
15, 412371, Note_on_c, 13, 59, 0
15, 412380, Note_on_c, 13, 71, 84
15, 412431, Note_on_c, 13, 71, 0
15, 412440, Note_on_c, 13, 71, 84
15, 412491, Note_on_c, 13, 71, 0
15, 412500, Note_on_c, 13, 71, 84
15, 412551, Note_on_c, 13, 71, 0
15, 412560, Note_on_c, 13, 71, 84
15, 412611, Note_on_c, 13, 71, 0
15, 412620, Note_on_c, 13, 71, 84
15, 412671, Note_on_c, 13, 71, 0
15, 412680, Note_on_c, 13, 71, 84
15, 412731, Note_on_c, 13, 71, 0
15, 412740, Note_on_c, 13, 71, 84
15, 412791, Note_on_c, 13, 71, 0
15, 412800, Note_on_c, 13, 71, 84
15, 412851, Note_on_c, 13, 71, 0
15, 412860, Note_on_c, 13, 71, 84
15, 412911, Note_on_c, 13, 71, 0
15, 412920, Note_on_c, 13, 71, 84
15, 412971, Note_on_c, 13, 71, 0
15, 412980, Note_on_c, 13, 71, 84
15, 413031, Note_on_c, 13, 71, 0
15, 413040, Note_on_c, 13, 71, 84
15, 413091, Note_on_c, 13, 71, 0
15, 413100, Note_on_c, 13, 71, 84
15, 413151, Note_on_c, 13, 71, 0
15, 413160, Note_on_c, 13, 71, 84
15, 413211, Note_on_c, 13, 71, 0
15, 413220, Note_on_c, 13, 71, 84
15, 413271, Note_on_c, 13, 71, 0
15, 413280, Note_on_c, 13, 55, 92
15, 413331, Note_on_c, 13, 55, 0
15, 413340, Note_on_c, 13, 67, 84
15, 413391, Note_on_c, 13, 67, 0
15, 413400, Note_on_c, 13, 67, 84
15, 413451, Note_on_c, 13, 67, 0
15, 413460, Note_on_c, 13, 67, 84
15, 413511, Note_on_c, 13, 67, 0
15, 413520, Note_on_c, 13, 67, 84
15, 413571, Note_on_c, 13, 67, 0
15, 413580, Note_on_c, 13, 67, 84
15, 413631, Note_on_c, 13, 67, 0
15, 413640, Note_on_c, 13, 67, 84
15, 413691, Note_on_c, 13, 67, 0
15, 413700, Note_on_c, 13, 67, 84
15, 413751, Note_on_c, 13, 67, 0
15, 413760, Note_on_c, 13, 55, 84
15, 413811, Note_on_c, 13, 55, 0
15, 413820, Note_on_c, 13, 67, 84
15, 413871, Note_on_c, 13, 67, 0
15, 413880, Note_on_c, 13, 67, 84
15, 413931, Note_on_c, 13, 67, 0
15, 413940, Note_on_c, 13, 67, 84
15, 413991, Note_on_c, 13, 67, 0
15, 414000, Note_on_c, 13, 67, 84
15, 414051, Note_on_c, 13, 67, 0
15, 414060, Note_on_c, 13, 67, 84
15, 414111, Note_on_c, 13, 67, 0
15, 414120, Note_on_c, 13, 67, 84
15, 414171, Note_on_c, 13, 67, 0
15, 414180, Note_on_c, 13, 67, 84
15, 414231, Note_on_c, 13, 67, 0
15, 414240, Note_on_c, 13, 62, 84
15, 414329, Note_on_c, 13, 62, 0
15, 414360, Note_on_c, 13, 74, 84
15, 414449, Note_on_c, 13, 74, 0
15, 414480, Note_on_c, 13, 73, 84
15, 414569, Note_on_c, 13, 73, 0
15, 414600, Note_on_c, 13, 71, 84
15, 414689, Note_on_c, 13, 71, 0
15, 414720, Note_on_c, 13, 69, 84
15, 414809, Note_on_c, 13, 69, 0
15, 414840, Note_on_c, 13, 71, 84
15, 414929, Note_on_c, 13, 71, 0
15, 414960, Note_on_c, 13, 69, 84
15, 415049, Note_on_c, 13, 69, 0
15, 415080, Note_on_c, 13, 67, 84
15, 415169, Note_on_c, 13, 67, 0
15, 415200, Note_on_c, 13, 66, 84
15, 415289, Note_on_c, 13, 66, 0
15, 415320, Note_on_c, 13, 71, 84
15, 415409, Note_on_c, 13, 71, 0
15, 415440, Note_on_c, 13, 69, 84
15, 415529, Note_on_c, 13, 69, 0
15, 415560, Note_on_c, 13, 67, 84
15, 415649, Note_on_c, 13, 67, 0
15, 415680, Note_on_c, 13, 66, 84
15, 415769, Note_on_c, 13, 66, 0
15, 415800, Note_on_c, 13, 67, 84
15, 415889, Note_on_c, 13, 67, 0
15, 415920, Note_on_c, 13, 66, 84
15, 416009, Note_on_c, 13, 66, 0
15, 416040, Note_on_c, 13, 64, 84
15, 416129, Note_on_c, 13, 64, 0
15, 416160, Note_on_c, 13, 62, 84
15, 416249, Note_on_c, 13, 62, 0
15, 416280, Note_on_c, 13, 59, 84
15, 416369, Note_on_c, 13, 59, 0
15, 416400, Note_on_c, 13, 57, 84
15, 416489, Note_on_c, 13, 57, 0
15, 416520, Note_on_c, 13, 55, 84
15, 416609, Note_on_c, 13, 55, 0
15, 416640, Note_on_c, 13, 54, 84
15, 416729, Note_on_c, 13, 54, 0
15, 416760, Note_on_c, 13, 57, 84
15, 416849, Note_on_c, 13, 57, 0
15, 416880, Note_on_c, 13, 62, 84
15, 416969, Note_on_c, 13, 62, 0
15, 417000, Note_on_c, 13, 66, 84
15, 417089, Note_on_c, 13, 66, 0
15, 417120, Note_on_c, 13, 55, 84
15, 417209, Note_on_c, 13, 55, 0
15, 417240, Note_on_c, 13, 59, 84
15, 417329, Note_on_c, 13, 59, 0
15, 417360, Note_on_c, 13, 64, 84
15, 417449, Note_on_c, 13, 64, 0
15, 417480, Note_on_c, 13, 67, 84
15, 417569, Note_on_c, 13, 67, 0
15, 417600, Note_on_c, 13, 57, 84
15, 417689, Note_on_c, 13, 57, 0
15, 417720, Note_on_c, 13, 61, 84
15, 417809, Note_on_c, 13, 61, 0
15, 417840, Note_on_c, 13, 64, 84
15, 417929, Note_on_c, 13, 64, 0
15, 417960, Note_on_c, 13, 69, 84
15, 418049, Note_on_c, 13, 69, 0
15, 418080, Note_on_c, 13, 62, 84
15, 418169, Note_on_c, 13, 62, 0
15, 418200, Note_on_c, 13, 74, 84
15, 418289, Note_on_c, 13, 74, 0
15, 418320, Note_on_c, 13, 73, 84
15, 418409, Note_on_c, 13, 73, 0
15, 418440, Note_on_c, 13, 71, 84
15, 418529, Note_on_c, 13, 71, 0
15, 418560, Note_on_c, 13, 69, 84
15, 418649, Note_on_c, 13, 69, 0
15, 418680, Note_on_c, 13, 71, 84
15, 418769, Note_on_c, 13, 71, 0
15, 418800, Note_on_c, 13, 69, 84
15, 418889, Note_on_c, 13, 69, 0
15, 418920, Note_on_c, 13, 67, 84
15, 419009, Note_on_c, 13, 67, 0
15, 419040, Note_on_c, 13, 66, 84
15, 419129, Note_on_c, 13, 66, 0
15, 419160, Note_on_c, 13, 71, 84
15, 419249, Note_on_c, 13, 71, 0
15, 419280, Note_on_c, 13, 69, 84
15, 419369, Note_on_c, 13, 69, 0
15, 419400, Note_on_c, 13, 67, 84
15, 419489, Note_on_c, 13, 67, 0
15, 419520, Note_on_c, 13, 66, 84
15, 419609, Note_on_c, 13, 66, 0
15, 419640, Note_on_c, 13, 67, 84
15, 419729, Note_on_c, 13, 67, 0
15, 419760, Note_on_c, 13, 66, 84
15, 419849, Note_on_c, 13, 66, 0
15, 419880, Note_on_c, 13, 64, 84
15, 419969, Note_on_c, 13, 64, 0
15, 420000, Note_on_c, 13, 62, 84
15, 420089, Note_on_c, 13, 62, 0
15, 420120, Note_on_c, 13, 59, 84
15, 420209, Note_on_c, 13, 59, 0
15, 420240, Note_on_c, 13, 57, 84
15, 420329, Note_on_c, 13, 57, 0
15, 420360, Note_on_c, 13, 55, 84
15, 420449, Note_on_c, 13, 55, 0
15, 420480, Note_on_c, 13, 54, 84
15, 420569, Note_on_c, 13, 54, 0
15, 420600, Note_on_c, 13, 57, 84
15, 420689, Note_on_c, 13, 57, 0
15, 420720, Note_on_c, 13, 62, 84
15, 420809, Note_on_c, 13, 62, 0
15, 420840, Note_on_c, 13, 66, 84
15, 420929, Note_on_c, 13, 66, 0
15, 420960, Note_on_c, 13, 55, 84
15, 421049, Note_on_c, 13, 55, 0
15, 421080, Note_on_c, 13, 59, 84
15, 421169, Note_on_c, 13, 59, 0
15, 421200, Note_on_c, 13, 64, 84
15, 421289, Note_on_c, 13, 64, 0
15, 421320, Note_on_c, 13, 67, 84
15, 421409, Note_on_c, 13, 67, 0
15, 421440, Note_on_c, 13, 57, 84
15, 421529, Note_on_c, 13, 57, 0
15, 421560, Note_on_c, 13, 61, 84
15, 421649, Note_on_c, 13, 61, 0
15, 421680, Note_on_c, 13, 64, 84
15, 421769, Note_on_c, 13, 64, 0
15, 421800, Note_on_c, 13, 69, 84
15, 421889, Note_on_c, 13, 69, 0
15, 421920, Note_on_c, 13, 66, 84
15, 422009, Note_on_c, 13, 66, 0
15, 422040, Note_on_c, 13, 62, 84
15, 422129, Note_on_c, 13, 62, 0
15, 422160, Note_on_c, 13, 57, 84
15, 422249, Note_on_c, 13, 57, 0
15, 422280, Note_on_c, 13, 55, 84
15, 422369, Note_on_c, 13, 55, 0
15, 422400, Note_on_c, 13, 54, 84
15, 422489, Note_on_c, 13, 54, 0
15, 422520, Note_on_c, 13, 57, 84
15, 422609, Note_on_c, 13, 57, 0
15, 422640, Note_on_c, 13, 62, 84
15, 422729, Note_on_c, 13, 62, 0
15, 422760, Note_on_c, 13, 66, 84
15, 422849, Note_on_c, 13, 66, 0
15, 422880, Note_on_c, 13, 55, 84
15, 422969, Note_on_c, 13, 55, 0
15, 423000, Note_on_c, 13, 59, 84
15, 423089, Note_on_c, 13, 59, 0
15, 423120, Note_on_c, 13, 64, 84
15, 423209, Note_on_c, 13, 64, 0
15, 423240, Note_on_c, 13, 67, 84
15, 423329, Note_on_c, 13, 67, 0
15, 423360, Note_on_c, 13, 57, 84
15, 423449, Note_on_c, 13, 57, 0
15, 423480, Note_on_c, 13, 61, 84
15, 423569, Note_on_c, 13, 61, 0
15, 423600, Note_on_c, 13, 64, 84
15, 423689, Note_on_c, 13, 64, 0
15, 423720, Note_on_c, 13, 69, 84
15, 423809, Note_on_c, 13, 69, 0
15, 423840, Note_on_c, 13, 62, 76
15, 424544, Note_on_c, 13, 62, 0
15, 424560, Note_on_c, 13, 62, 76
15, 424619, Note_on_c, 13, 62, 0
15, 424620, Note_on_c, 13, 61, 76
15, 424679, Note_on_c, 13, 61, 0
15, 424680, Note_on_c, 13, 62, 76
15, 424739, Note_on_c, 13, 62, 0
15, 424740, Note_on_c, 13, 64, 76
15, 424791, Note_on_c, 13, 64, 0
15, 424800, Note_on_c, 13, 66, 76
15, 424979, Note_on_c, 13, 66, 0
15, 425040, Note_on_c, 13, 66, 76
15, 425099, Note_on_c, 13, 66, 0
15, 425100, Note_on_c, 13, 64, 76
15, 425159, Note_on_c, 13, 64, 0
15, 425160, Note_on_c, 13, 66, 76
15, 425219, Note_on_c, 13, 66, 0
15, 425220, Note_on_c, 13, 67, 76
15, 425271, Note_on_c, 13, 67, 0
15, 425280, Note_on_c, 13, 69, 76
15, 425459, Note_on_c, 13, 69, 0
15, 425520, Note_on_c, 13, 69, 76
15, 425639, Note_on_c, 13, 69, 0
15, 425640, Note_on_c, 13, 71, 76
15, 425699, Note_on_c, 13, 71, 0
15, 425700, Note_on_c, 13, 73, 76
15, 425751, Note_on_c, 13, 73, 0
15, 425760, Note_on_c, 13, 74, 84
15, 426464, Note_on_c, 13, 74, 0
15, 426480, Note_on_c, 13, 74, 76
15, 426599, Note_on_c, 13, 74, 0
15, 426600, Note_on_c, 13, 73, 76
15, 426659, Note_on_c, 13, 73, 0
15, 426660, Note_on_c, 13, 71, 76
15, 426711, Note_on_c, 13, 71, 0
15, 426720, Note_on_c, 13, 69, 76
15, 426899, Note_on_c, 13, 69, 0
15, 426960, Note_on_c, 13, 69, 76
15, 427019, Note_on_c, 13, 69, 0
15, 427020, Note_on_c, 13, 71, 76
15, 427079, Note_on_c, 13, 71, 0
15, 427080, Note_on_c, 13, 69, 76
15, 427139, Note_on_c, 13, 69, 0
15, 427140, Note_on_c, 13, 67, 76
15, 427191, Note_on_c, 13, 67, 0
15, 427200, Note_on_c, 13, 66, 76
15, 427379, Note_on_c, 13, 66, 0
15, 427440, Note_on_c, 13, 66, 76
15, 427499, Note_on_c, 13, 66, 0
15, 427500, Note_on_c, 13, 67, 76
15, 427559, Note_on_c, 13, 67, 0
15, 427560, Note_on_c, 13, 66, 76
15, 427619, Note_on_c, 13, 66, 0
15, 427620, Note_on_c, 13, 64, 76
15, 427671, Note_on_c, 13, 64, 0
15, 427680, Note_on_c, 13, 62, 76
15, 427859, Note_on_c, 13, 62, 0
15, 428580, Note_on_c, 13, 62, 76
15, 428624, Note_on_c, 13, 62, 0
15, 428640, Note_on_c, 13, 57, 76
15, 428819, Note_on_c, 13, 57, 0
15, 429540, Note_on_c, 13, 57, 76
15, 429584, Note_on_c, 13, 57, 0
15, 429600, Note_on_c, 13, 62, 76
15, 429779, Note_on_c, 13, 62, 0
15, 430500, Note_on_c, 13, 62, 76
15, 430544, Note_on_c, 13, 62, 0
15, 430560, Note_on_c, 13, 57, 76
15, 430739, Note_on_c, 13, 57, 0
15, 431460, Note_on_c, 13, 57, 76
15, 431504, Note_on_c, 13, 57, 0
15, 431520, Note_on_c, 13, 62, 76
15, 431699, Note_on_c, 13, 62, 0
15, 432420, Note_on_c, 13, 50, 84
15, 432471, Note_on_c, 13, 50, 0
15, 432480, Note_on_c, 13, 50, 84
15, 432719, Note_on_c, 13, 50, 0
15, 432960, Note_on_c, 13, 50, 84
15, 433199, Note_on_c, 13, 50, 0
15, 433440, Note_on_c, 13, 50, 84
15, 434399, Note_on_c, 13, 50, 0
15, 434399, End_track
16, 0, Start_track
16, 0, Title_t, "Cello"
16, 0, MIDI_port, 0
16, 0, Program_c, 14, 48
16, 0, Control_c, 14, 7, 96
16, 0, Control_c, 14, 10, 90
16, 0, Control_c, 14, 11, 127
16, 690, Note_on_c, 14, 50, 84
16, 715, Note_on_c, 14, 50, 0
16, 720, Note_on_c, 14, 50, 84
16, 1064, Note_on_c, 14, 50, 0
16, 3570, Note_on_c, 14, 50, 84
16, 3595, Note_on_c, 14, 50, 0
16, 3600, Note_on_c, 14, 50, 84
16, 3951, Note_on_c, 14, 50, 0
16, 3960, Note_on_c, 14, 62, 76
16, 3960, Control_c, 14, 11, 80
16, 4079, Note_on_c, 14, 62, 0
16, 4080, Note_on_c, 14, 58, 76
16, 4199, Note_on_c, 14, 58, 0
16, 4200, Note_on_c, 14, 59, 76
16, 4311, Note_on_c, 14, 59, 0
16, 4320, Note_on_c, 14, 56, 76
16, 4320, Control_c, 14, 11, 80
16, 4360, Control_c, 14, 11, 84
16, 4400, Control_c, 14, 11, 88
16, 4440, Control_c, 14, 11, 92
16, 4480, Control_c, 14, 11, 96
16, 4520, Control_c, 14, 11, 100
16, 4559, Note_on_c, 14, 56, 0
16, 4560, Note_on_c, 14, 55, 76
16, 4560, Control_c, 14, 11, 104
16, 4600, Control_c, 14, 11, 107
16, 4640, Control_c, 14, 11, 111
16, 4680, Control_c, 14, 11, 115
16, 4720, Control_c, 14, 11, 119
16, 4760, Control_c, 14, 11, 123
16, 4791, Note_on_c, 14, 55, 0
16, 4800, Control_c, 14, 11, 127
16, 4800, Note_on_c, 14, 54, 84
16, 5039, Note_on_c, 14, 54, 0
16, 5040, Note_on_c, 14, 55, 76
16, 5159, Note_on_c, 14, 55, 0
16, 5520, Note_on_c, 14, 45, 84
16, 5759, Note_on_c, 14, 45, 0
16, 5760, Note_on_c, 14, 50, 76
16, 5939, Note_on_c, 14, 50, 0
16, 6000, Control_c, 14, 11, 96
16, 6120, Control_c, 14, 11, 96
16, 6120, Note_on_c, 14, 50, 68
16, 6150, Control_c, 14, 11, 99
16, 6180, Control_c, 14, 11, 101
16, 6210, Control_c, 14, 11, 104
16, 6239, Note_on_c, 14, 50, 0
16, 6240, Note_on_c, 14, 49, 68
16, 6240, Control_c, 14, 11, 106
16, 6270, Control_c, 14, 11, 109
16, 6300, Control_c, 14, 11, 112
16, 6330, Control_c, 14, 11, 114
16, 6359, Note_on_c, 14, 49, 0
16, 6360, Control_c, 14, 11, 117
16, 6360, Note_on_c, 14, 47, 68
16, 6390, Control_c, 14, 11, 119
16, 6420, Control_c, 14, 11, 122
16, 6450, Control_c, 14, 11, 124
16, 6471, Note_on_c, 14, 47, 0
16, 6480, Control_c, 14, 11, 127
16, 6480, Note_on_c, 14, 46, 76
16, 6719, Note_on_c, 14, 46, 0
16, 7200, Note_on_c, 14, 47, 76
16, 7439, Note_on_c, 14, 47, 0
16, 7920, Note_on_c, 14, 49, 76
16, 8159, Note_on_c, 14, 49, 0
16, 8400, Note_on_c, 14, 50, 52
16, 8489, Note_on_c, 14, 50, 0
16, 8520, Note_on_c, 14, 48, 84
16, 8609, Note_on_c, 14, 48, 0
16, 8640, Note_on_c, 14, 46, 76
16, 8695, Note_on_c, 14, 46, 0
16, 8700, Note_on_c, 14, 46, 52
16, 8755, Note_on_c, 14, 46, 0
16, 8760, Note_on_c, 14, 46, 52
16, 8815, Note_on_c, 14, 46, 0
16, 8820, Note_on_c, 14, 46, 52
16, 8875, Note_on_c, 14, 46, 0
16, 8880, Note_on_c, 14, 46, 52
16, 8935, Note_on_c, 14, 46, 0
16, 8940, Note_on_c, 14, 46, 52
16, 8995, Note_on_c, 14, 46, 0
16, 9000, Note_on_c, 14, 46, 52
16, 9055, Note_on_c, 14, 46, 0
16, 9060, Note_on_c, 14, 46, 52
16, 9115, Note_on_c, 14, 46, 0
16, 9120, Note_on_c, 14, 46, 52
16, 9175, Note_on_c, 14, 46, 0
16, 9180, Note_on_c, 14, 46, 52
16, 9235, Note_on_c, 14, 46, 0
16, 9240, Note_on_c, 14, 46, 52
16, 9295, Note_on_c, 14, 46, 0
16, 9300, Note_on_c, 14, 46, 52
16, 9355, Note_on_c, 14, 46, 0
16, 9360, Note_on_c, 14, 46, 68
16, 9415, Note_on_c, 14, 46, 0
16, 9420, Note_on_c, 14, 46, 52
16, 9475, Note_on_c, 14, 46, 0
16, 9480, Note_on_c, 14, 46, 52
16, 9535, Note_on_c, 14, 46, 0
16, 9540, Note_on_c, 14, 46, 52
16, 9595, Note_on_c, 14, 46, 0
16, 9600, Note_on_c, 14, 46, 52
16, 9655, Note_on_c, 14, 46, 0
16, 9660, Note_on_c, 14, 46, 52
16, 9715, Note_on_c, 14, 46, 0
16, 9720, Note_on_c, 14, 46, 52
16, 9775, Note_on_c, 14, 46, 0
16, 9780, Note_on_c, 14, 46, 52
16, 9835, Note_on_c, 14, 46, 0
16, 9840, Note_on_c, 14, 46, 52
16, 9895, Note_on_c, 14, 46, 0
16, 9900, Note_on_c, 14, 46, 52
16, 9955, Note_on_c, 14, 46, 0
16, 9960, Note_on_c, 14, 46, 52
16, 10015, Note_on_c, 14, 46, 0
16, 10020, Note_on_c, 14, 46, 52
16, 10075, Note_on_c, 14, 46, 0
16, 10080, Note_on_c, 14, 46, 68
16, 10135, Note_on_c, 14, 46, 0
16, 10140, Note_on_c, 14, 46, 52
16, 10195, Note_on_c, 14, 46, 0
16, 10200, Note_on_c, 14, 46, 52
16, 10255, Note_on_c, 14, 46, 0
16, 10260, Note_on_c, 14, 46, 52
16, 10315, Note_on_c, 14, 46, 0
16, 10320, Note_on_c, 14, 46, 52
16, 10375, Note_on_c, 14, 46, 0
16, 10380, Note_on_c, 14, 46, 52
16, 10435, Note_on_c, 14, 46, 0
16, 10440, Note_on_c, 14, 46, 52
16, 10495, Note_on_c, 14, 46, 0
16, 10500, Note_on_c, 14, 46, 52
16, 10555, Note_on_c, 14, 46, 0
16, 10560, Note_on_c, 14, 46, 52
16, 10615, Note_on_c, 14, 46, 0
16, 10620, Note_on_c, 14, 46, 52
16, 10675, Note_on_c, 14, 46, 0
16, 10680, Note_on_c, 14, 46, 52
16, 10735, Note_on_c, 14, 46, 0
16, 10740, Note_on_c, 14, 46, 52
16, 10795, Note_on_c, 14, 46, 0
16, 10800, Note_on_c, 14, 46, 68
16, 10855, Note_on_c, 14, 46, 0
16, 10860, Note_on_c, 14, 46, 68
16, 10860, Control_c, 14, 11, 96
16, 10915, Note_on_c, 14, 46, 0
16, 10920, Note_on_c, 14, 46, 68
16, 10975, Note_on_c, 14, 46, 0
16, 10980, Note_on_c, 14, 46, 68
16, 11035, Note_on_c, 14, 46, 0
16, 11040, Note_on_c, 14, 46, 68
16, 11095, Note_on_c, 14, 46, 0
16, 11100, Note_on_c, 14, 46, 68
16, 11155, Note_on_c, 14, 46, 0
16, 11160, Note_on_c, 14, 46, 68
16, 11215, Note_on_c, 14, 46, 0
16, 11220, Note_on_c, 14, 46, 68
16, 11275, Note_on_c, 14, 46, 0
16, 11280, Note_on_c, 14, 46, 68
16, 11335, Note_on_c, 14, 46, 0
16, 11340, Note_on_c, 14, 46, 68
16, 11395, Note_on_c, 14, 46, 0
16, 11400, Note_on_c, 14, 46, 68
16, 11455, Note_on_c, 14, 46, 0
16, 11460, Note_on_c, 14, 46, 68
16, 11515, Note_on_c, 14, 46, 0
16, 11520, Note_on_c, 14, 46, 68
16, 11760, Control_c, 14, 11, 96
16, 11785, Note_on_c, 14, 46, 0
16, 11790, Note_on_c, 14, 45, 68
16, 11800, Control_c, 14, 11, 99
16, 11819, Note_on_c, 14, 45, 0
16, 11820, Note_on_c, 14, 46, 68
16, 11840, Control_c, 14, 11, 101
16, 11849, Note_on_c, 14, 46, 0
16, 11850, Note_on_c, 14, 48, 68
16, 11879, Note_on_c, 14, 48, 0
16, 11880, Note_on_c, 14, 50, 68
16, 11880, Control_c, 14, 11, 104
16, 11909, Note_on_c, 14, 50, 0
16, 11910, Note_on_c, 14, 51, 68
16, 11920, Control_c, 14, 11, 106
16, 11939, Note_on_c, 14, 51, 0
16, 11940, Note_on_c, 14, 53, 68
16, 11960, Control_c, 14, 11, 109
16, 11969, Note_on_c, 14, 53, 0
16, 11970, Note_on_c, 14, 55, 68
16, 11995, Note_on_c, 14, 55, 0
16, 12000, Note_on_c, 14, 56, 68
16, 12000, Control_c, 14, 11, 112
16, 12029, Note_on_c, 14, 56, 0
16, 12030, Note_on_c, 14, 55, 68
16, 12040, Control_c, 14, 11, 114
16, 12059, Note_on_c, 14, 55, 0
16, 12060, Note_on_c, 14, 53, 68
16, 12080, Control_c, 14, 11, 117
16, 12089, Note_on_c, 14, 53, 0
16, 12090, Note_on_c, 14, 51, 68
16, 12119, Note_on_c, 14, 51, 0
16, 12120, Note_on_c, 14, 50, 68
16, 12120, Control_c, 14, 11, 119
16, 12149, Note_on_c, 14, 50, 0
16, 12150, Note_on_c, 14, 48, 68
16, 12160, Control_c, 14, 11, 122
16, 12179, Note_on_c, 14, 48, 0
16, 12180, Note_on_c, 14, 46, 68
16, 12200, Control_c, 14, 11, 127
16, 12209, Note_on_c, 14, 46, 0
16, 12210, Note_on_c, 14, 44, 68
16, 12235, Note_on_c, 14, 44, 0
16, 12240, Note_on_c, 14, 43, 76
16, 12300, Control_c, 14, 11, 80
16, 12505, Note_on_c, 14, 43, 0
16, 12510, Note_on_c, 14, 45, 76
16, 12524, Note_on_c, 14, 45, 0
16, 12525, Note_on_c, 14, 47, 76
16, 12539, Note_on_c, 14, 47, 0
16, 12540, Note_on_c, 14, 48, 76
16, 12554, Note_on_c, 14, 48, 0
16, 12555, Note_on_c, 14, 50, 76
16, 12569, Note_on_c, 14, 50, 0
16, 12570, Note_on_c, 14, 52, 76
16, 12584, Note_on_c, 14, 52, 0
16, 12585, Note_on_c, 14, 54, 76
16, 12596, Note_on_c, 14, 54, 0
16, 12600, Note_on_c, 14, 55, 76
16, 12689, Note_on_c, 14, 55, 0
16, 12960, Note_on_c, 14, 48, 68
16, 12960, Control_c, 14, 11, 127
16, 13020, Control_c, 14, 11, 96
16, 13105, Note_on_c, 14, 48, 0
16, 13110, Note_on_c, 14, 50, 68
16, 13124, Note_on_c, 14, 50, 0
16, 13125, Note_on_c, 14, 52, 68
16, 13139, Note_on_c, 14, 52, 0
16, 13140, Note_on_c, 14, 53, 68
16, 13154, Note_on_c, 14, 53, 0
16, 13155, Note_on_c, 14, 55, 68
16, 13169, Note_on_c, 14, 55, 0
16, 13170, Note_on_c, 14, 57, 68
16, 13184, Note_on_c, 14, 57, 0
16, 13185, Note_on_c, 14, 59, 68
16, 13196, Note_on_c, 14, 59, 0
16, 13200, Note_on_c, 14, 60, 68
16, 13289, Note_on_c, 14, 60, 0
16, 13440, Control_c, 14, 11, 127
16, 13680, Note_on_c, 14, 41, 68
16, 13740, Control_c, 14, 11, 96
16, 13825, Note_on_c, 14, 41, 0
16, 13830, Note_on_c, 14, 43, 68
16, 13844, Note_on_c, 14, 43, 0
16, 13845, Note_on_c, 14, 45, 68
16, 13859, Note_on_c, 14, 45, 0
16, 13860, Note_on_c, 14, 46, 68
16, 13874, Note_on_c, 14, 46, 0
16, 13875, Note_on_c, 14, 48, 68
16, 13889, Note_on_c, 14, 48, 0
16, 13890, Note_on_c, 14, 50, 68
16, 13904, Note_on_c, 14, 50, 0
16, 13905, Note_on_c, 14, 52, 68
16, 13916, Note_on_c, 14, 52, 0
16, 13920, Note_on_c, 14, 53, 68
16, 14009, Note_on_c, 14, 53, 0
16, 14160, Control_c, 14, 11, 127
16, 14400, Note_on_c, 14, 42, 68
16, 14460, Control_c, 14, 11, 96
16, 14545, Note_on_c, 14, 42, 0
16, 14550, Note_on_c, 14, 43, 68
16, 14564, Note_on_c, 14, 43, 0
16, 14565, Note_on_c, 14, 45, 68
16, 14579, Note_on_c, 14, 45, 0
16, 14580, Note_on_c, 14, 46, 68
16, 14594, Note_on_c, 14, 46, 0
16, 14595, Note_on_c, 14, 48, 68
16, 14609, Note_on_c, 14, 48, 0
16, 14610, Note_on_c, 14, 50, 68
16, 14624, Note_on_c, 14, 50, 0
16, 14625, Note_on_c, 14, 52, 68
16, 14636, Note_on_c, 14, 52, 0
16, 14640, Note_on_c, 14, 54, 68
16, 14729, Note_on_c, 14, 54, 0
16, 14880, Control_c, 14, 11, 127
16, 15120, Note_on_c, 14, 43, 68
16, 15180, Control_c, 14, 11, 96
16, 15265, Note_on_c, 14, 43, 0
16, 15270, Note_on_c, 14, 45, 68
16, 15284, Note_on_c, 14, 45, 0
16, 15285, Note_on_c, 14, 46, 68
16, 15299, Note_on_c, 14, 46, 0
16, 15300, Note_on_c, 14, 48, 68
16, 15314, Note_on_c, 14, 48, 0
16, 15315, Note_on_c, 14, 50, 68
16, 15329, Note_on_c, 14, 50, 0
16, 15330, Note_on_c, 14, 52, 68
16, 15344, Note_on_c, 14, 52, 0
16, 15345, Note_on_c, 14, 54, 68
16, 15356, Note_on_c, 14, 54, 0
16, 15360, Note_on_c, 14, 55, 68
16, 15449, Note_on_c, 14, 55, 0
16, 15600, Control_c, 14, 11, 64
16, 15840, Control_c, 14, 11, 64
16, 15840, Note_on_c, 14, 45, 84
16, 15870, Control_c, 14, 11, 67
16, 15900, Control_c, 14, 11, 69
16, 15930, Control_c, 14, 11, 72
16, 15960, Control_c, 14, 11, 75
16, 15985, Note_on_c, 14, 45, 0
16, 15990, Control_c, 14, 11, 77
16, 15990, Note_on_c, 14, 47, 84
16, 16004, Note_on_c, 14, 47, 0
16, 16005, Note_on_c, 14, 49, 84
16, 16019, Note_on_c, 14, 49, 0
16, 16020, Control_c, 14, 11, 80
16, 16020, Note_on_c, 14, 50, 84
16, 16034, Note_on_c, 14, 50, 0
16, 16035, Note_on_c, 14, 52, 84
16, 16049, Note_on_c, 14, 52, 0
16, 16050, Control_c, 14, 11, 82
16, 16050, Note_on_c, 14, 53, 84
16, 16064, Note_on_c, 14, 53, 0
16, 16065, Note_on_c, 14, 55, 84
16, 16076, Note_on_c, 14, 55, 0
16, 16080, Note_on_c, 14, 57, 84
16, 16080, Control_c, 14, 11, 85
16, 16110, Control_c, 14, 11, 88
16, 16140, Control_c, 14, 11, 90
16, 16169, Note_on_c, 14, 57, 0
16, 16170, Control_c, 14, 11, 93
16, 16200, Control_c, 14, 11, 96
16, 16230, Control_c, 14, 11, 98
16, 16260, Control_c, 14, 11, 101
16, 16290, Control_c, 14, 11, 103
16, 16320, Control_c, 14, 11, 106
16, 16350, Control_c, 14, 11, 109
16, 16380, Control_c, 14, 11, 111
16, 16410, Control_c, 14, 11, 114
16, 16440, Control_c, 14, 11, 117
16, 16470, Control_c, 14, 11, 119
16, 16500, Control_c, 14, 11, 122
16, 16530, Control_c, 14, 11, 124
16, 16530, Note_on_c, 14, 57, 84
16, 16555, Note_on_c, 14, 57, 0
16, 16560, Control_c, 14, 11, 127
16, 16560, Note_on_c, 14, 62, 84
16, 16765, Note_on_c, 14, 62, 0
16, 16770, Note_on_c, 14, 62, 84
16, 16795, Note_on_c, 14, 62, 0
16, 16800, Note_on_c, 14, 57, 84
16, 17005, Note_on_c, 14, 57, 0
16, 17010, Note_on_c, 14, 57, 84
16, 17035, Note_on_c, 14, 57, 0
16, 17040, Note_on_c, 14, 53, 84
16, 17129, Note_on_c, 14, 53, 0
16, 17160, Note_on_c, 14, 50, 84
16, 17249, Note_on_c, 14, 50, 0
16, 17280, Note_on_c, 14, 45, 92
16, 17399, Note_on_c, 14, 45, 0
16, 17520, Note_on_c, 14, 57, 52
16, 17759, Note_on_c, 14, 57, 0
16, 17760, Note_on_c, 14, 60, 52
16, 17991, Note_on_c, 14, 60, 0
16, 18000, Note_on_c, 14, 51, 52
16, 18239, Note_on_c, 14, 51, 0
16, 18240, Note_on_c, 14, 52, 52
16, 18415, Note_on_c, 14, 52, 0
16, 18420, Note_on_c, 14, 54, 52
16, 18464, Note_on_c, 14, 54, 0
16, 18480, Note_on_c, 14, 55, 52
16, 18524, Note_on_c, 14, 55, 0
16, 18540, Note_on_c, 14, 55, 52
16, 18584, Note_on_c, 14, 55, 0
16, 18600, Note_on_c, 14, 57, 52
16, 18644, Note_on_c, 14, 57, 0
16, 18660, Note_on_c, 14, 58, 52
16, 18704, Note_on_c, 14, 58, 0
16, 18720, Note_on_c, 14, 49, 52
16, 18959, Note_on_c, 14, 49, 0
16, 18960, Note_on_c, 14, 50, 52
16, 18989, Note_on_c, 14, 50, 0
16, 19000, Note_on_c, 14, 50, 52
16, 19029, Note_on_c, 14, 50, 0
16, 19040, Note_on_c, 14, 52, 52
16, 19069, Note_on_c, 14, 52, 0
16, 19080, Note_on_c, 14, 54, 52
16, 19109, Note_on_c, 14, 54, 0
16, 19120, Note_on_c, 14, 54, 52
16, 19149, Note_on_c, 14, 54, 0
16, 19160, Note_on_c, 14, 55, 52
16, 19189, Note_on_c, 14, 55, 0
16, 19200, Note_on_c, 14, 57, 52
16, 19229, Note_on_c, 14, 57, 0
16, 19240, Note_on_c, 14, 54, 52
16, 19269, Note_on_c, 14, 54, 0
16, 19280, Note_on_c, 14, 55, 52
16, 19309, Note_on_c, 14, 55, 0
16, 19320, Note_on_c, 14, 57, 52
16, 19349, Note_on_c, 14, 57, 0
16, 19360, Note_on_c, 14, 59, 52
16, 19389, Note_on_c, 14, 59, 0
16, 19400, Note_on_c, 14, 60, 52
16, 19429, Note_on_c, 14, 60, 0
16, 19480, Note_on_c, 14, 57, 52
16, 19509, Note_on_c, 14, 57, 0
16, 19520, Note_on_c, 14, 59, 52
16, 19549, Note_on_c, 14, 59, 0
16, 19560, Note_on_c, 14, 60, 52
16, 19589, Note_on_c, 14, 60, 0
16, 19600, Note_on_c, 14, 59, 52
16, 19629, Note_on_c, 14, 59, 0
16, 19640, Note_on_c, 14, 57, 52
16, 19669, Note_on_c, 14, 57, 0
16, 19680, Note_on_c, 14, 55, 52
16, 19709, Note_on_c, 14, 55, 0
16, 19720, Note_on_c, 14, 59, 52
16, 19749, Note_on_c, 14, 59, 0
16, 19760, Note_on_c, 14, 57, 52
16, 19789, Note_on_c, 14, 57, 0
16, 19800, Note_on_c, 14, 55, 52
16, 19829, Note_on_c, 14, 55, 0
16, 19840, Note_on_c, 14, 57, 52
16, 19869, Note_on_c, 14, 57, 0
16, 19880, Note_on_c, 14, 54, 52
16, 19909, Note_on_c, 14, 54, 0
16, 19920, Note_on_c, 14, 52, 52
16, 19949, Note_on_c, 14, 52, 0
16, 19960, Note_on_c, 14, 54, 52
16, 19989, Note_on_c, 14, 54, 0
16, 20000, Note_on_c, 14, 51, 52
16, 20029, Note_on_c, 14, 51, 0
16, 20040, Note_on_c, 14, 52, 52
16, 20069, Note_on_c, 14, 52, 0
16, 20080, Note_on_c, 14, 54, 52
16, 20109, Note_on_c, 14, 54, 0
16, 20120, Note_on_c, 14, 55, 52
16, 20149, Note_on_c, 14, 55, 0
16, 20160, Control_c, 14, 11, 96
16, 20200, Note_on_c, 14, 55, 68
16, 20220, Control_c, 14, 11, 99
16, 20229, Note_on_c, 14, 55, 0
16, 20240, Note_on_c, 14, 57, 68
16, 20269, Note_on_c, 14, 57, 0
16, 20280, Control_c, 14, 11, 101
16, 20280, Note_on_c, 14, 58, 68
16, 20309, Note_on_c, 14, 58, 0
16, 20320, Note_on_c, 14, 57, 68
16, 20340, Control_c, 14, 11, 104
16, 20349, Note_on_c, 14, 57, 0
16, 20360, Note_on_c, 14, 55, 68
16, 20389, Note_on_c, 14, 55, 0
16, 20400, Control_c, 14, 11, 106
16, 20400, Note_on_c, 14, 54, 68
16, 20429, Note_on_c, 14, 54, 0
16, 20440, Note_on_c, 14, 57, 68
16, 20460, Control_c, 14, 11, 109
16, 20469, Note_on_c, 14, 57, 0
16, 20480, Note_on_c, 14, 55, 68
16, 20509, Note_on_c, 14, 55, 0
16, 20520, Note_on_c, 14, 54, 68
16, 20520, Control_c, 14, 11, 112
16, 20549, Note_on_c, 14, 54, 0
16, 20560, Note_on_c, 14, 55, 68
16, 20580, Control_c, 14, 11, 114
16, 20589, Note_on_c, 14, 55, 0
16, 20600, Note_on_c, 14, 52, 68
16, 20629, Note_on_c, 14, 52, 0
16, 20640, Note_on_c, 14, 50, 68
16, 20640, Control_c, 14, 11, 117
16, 20669, Note_on_c, 14, 50, 0
16, 20680, Note_on_c, 14, 54, 68
16, 20700, Control_c, 14, 11, 119
16, 20709, Note_on_c, 14, 54, 0
16, 20720, Note_on_c, 14, 57, 68
16, 20749, Note_on_c, 14, 57, 0
16, 20760, Note_on_c, 14, 62, 68
16, 20760, Control_c, 14, 11, 122
16, 20789, Note_on_c, 14, 62, 0
16, 20800, Note_on_c, 14, 62, 68
16, 20820, Control_c, 14, 11, 124
16, 20829, Note_on_c, 14, 62, 0
16, 20840, Note_on_c, 14, 62, 68
16, 20869, Note_on_c, 14, 62, 0
16, 20880, Note_on_c, 14, 57, 76
16, 20880, Control_c, 14, 11, 127
16, 20999, Note_on_c, 14, 57, 0
16, 21360, Note_on_c, 14, 45, 52
16, 21479, Note_on_c, 14, 45, 0
16, 21600, Note_on_c, 14, 45, 68
16, 21719, Note_on_c, 14, 45, 0
16, 22080, Note_on_c, 14, 45, 52
16, 22199, Note_on_c, 14, 45, 0
16, 22320, Note_on_c, 14, 45, 68
16, 22439, Note_on_c, 14, 45, 0
16, 22800, Note_on_c, 14, 45, 52
16, 22919, Note_on_c, 14, 45, 0
16, 23040, Note_on_c, 14, 45, 68
16, 23159, Note_on_c, 14, 45, 0
16, 23520, Note_on_c, 14, 45, 52
16, 23639, Note_on_c, 14, 45, 0
16, 23760, Note_on_c, 14, 45, 52
16, 23795, Note_on_c, 14, 45, 0
16, 23800, Note_on_c, 14, 45, 53
16, 23835, Note_on_c, 14, 45, 0
16, 23840, Note_on_c, 14, 45, 54
16, 23875, Note_on_c, 14, 45, 0
16, 23880, Note_on_c, 14, 45, 56
16, 23915, Note_on_c, 14, 45, 0
16, 23920, Note_on_c, 14, 45, 57
16, 23955, Note_on_c, 14, 45, 0
16, 23960, Note_on_c, 14, 45, 58
16, 23995, Note_on_c, 14, 45, 0
16, 24000, Note_on_c, 14, 45, 60
16, 24035, Note_on_c, 14, 45, 0
16, 24040, Note_on_c, 14, 45, 61
16, 24075, Note_on_c, 14, 45, 0
16, 24080, Note_on_c, 14, 45, 62
16, 24115, Note_on_c, 14, 45, 0
16, 24120, Note_on_c, 14, 45, 64
16, 24155, Note_on_c, 14, 45, 0
16, 24160, Note_on_c, 14, 45, 65
16, 24195, Note_on_c, 14, 45, 0
16, 24200, Note_on_c, 14, 45, 66
16, 24235, Note_on_c, 14, 45, 0
16, 24240, Note_on_c, 14, 45, 68
16, 24275, Note_on_c, 14, 45, 0
16, 24280, Note_on_c, 14, 45, 69
16, 24315, Note_on_c, 14, 45, 0
16, 24320, Note_on_c, 14, 45, 70
16, 24355, Note_on_c, 14, 45, 0
16, 24360, Note_on_c, 14, 45, 72
16, 24395, Note_on_c, 14, 45, 0
16, 24400, Note_on_c, 14, 45, 73
16, 24435, Note_on_c, 14, 45, 0
16, 24440, Note_on_c, 14, 45, 74
16, 24475, Note_on_c, 14, 45, 0
16, 24480, Note_on_c, 14, 50, 76
16, 24540, Control_c, 14, 11, 80
16, 25169, Note_on_c, 14, 50, 0
16, 25185, Control_c, 14, 11, 127
16, 25200, Note_on_c, 14, 50, 52
16, 25259, Note_on_c, 14, 50, 0
16, 25260, Note_on_c, 14, 49, 52
16, 25319, Note_on_c, 14, 49, 0
16, 25320, Note_on_c, 14, 50, 52
16, 25379, Note_on_c, 14, 50, 0
16, 25380, Note_on_c, 14, 52, 52
16, 25431, Note_on_c, 14, 52, 0
16, 25440, Note_on_c, 14, 54, 52
16, 26129, Note_on_c, 14, 54, 0
16, 26160, Note_on_c, 14, 54, 52
16, 26219, Note_on_c, 14, 54, 0
16, 26220, Note_on_c, 14, 52, 52
16, 26279, Note_on_c, 14, 52, 0
16, 26280, Note_on_c, 14, 54, 52
16, 26339, Note_on_c, 14, 54, 0
16, 26340, Note_on_c, 14, 55, 52
16, 26391, Note_on_c, 14, 55, 0
16, 26400, Note_on_c, 14, 57, 52
16, 26579, Note_on_c, 14, 57, 0
16, 26640, Note_on_c, 14, 57, 52
16, 26819, Note_on_c, 14, 57, 0
16, 26880, Note_on_c, 14, 54, 52
16, 27059, Note_on_c, 14, 54, 0
16, 27120, Note_on_c, 14, 54, 52
16, 27299, Note_on_c, 14, 54, 0
16, 27360, Note_on_c, 14, 50, 52
16, 27599, Note_on_c, 14, 50, 0
16, 28320, Note_on_c, 14, 55, 52
16, 29024, Note_on_c, 14, 55, 0
16, 29040, Note_on_c, 14, 55, 52
16, 29099, Note_on_c, 14, 55, 0
16, 29100, Note_on_c, 14, 54, 52
16, 29159, Note_on_c, 14, 54, 0
16, 29160, Note_on_c, 14, 55, 52
16, 29219, Note_on_c, 14, 55, 0
16, 29220, Note_on_c, 14, 57, 52
16, 29271, Note_on_c, 14, 57, 0
16, 29280, Note_on_c, 14, 59, 52
16, 29984, Note_on_c, 14, 59, 0
16, 30000, Note_on_c, 14, 59, 52
16, 30059, Note_on_c, 14, 59, 0
16, 30060, Note_on_c, 14, 58, 52
16, 30119, Note_on_c, 14, 58, 0
16, 30120, Note_on_c, 14, 59, 52
16, 30179, Note_on_c, 14, 59, 0
16, 30180, Note_on_c, 14, 61, 52
16, 30231, Note_on_c, 14, 61, 0
16, 30240, Note_on_c, 14, 62, 52
16, 30419, Note_on_c, 14, 62, 0
16, 30480, Note_on_c, 14, 62, 52
16, 30659, Note_on_c, 14, 62, 0
16, 30720, Note_on_c, 14, 59, 52
16, 30899, Note_on_c, 14, 59, 0
16, 30960, Note_on_c, 14, 59, 52
16, 31139, Note_on_c, 14, 59, 0
16, 31200, Note_on_c, 14, 56, 52
16, 31439, Note_on_c, 14, 56, 0
16, 32160, Note_on_c, 14, 62, 52
16, 32339, Note_on_c, 14, 62, 0
16, 32400, Note_on_c, 14, 62, 52
16, 32579, Note_on_c, 14, 62, 0
16, 32640, Note_on_c, 14, 60, 52
16, 32819, Note_on_c, 14, 60, 0
16, 32880, Note_on_c, 14, 60, 52
16, 33059, Note_on_c, 14, 60, 0
16, 33120, Note_on_c, 14, 57, 52
16, 33299, Note_on_c, 14, 57, 0
16, 33840, Control_c, 14, 11, 80
16, 34080, Note_on_c, 14, 59, 76
16, 34319, Note_on_c, 14, 59, 0
16, 34320, Control_c, 14, 11, 84
16, 34560, Control_c, 14, 11, 88
16, 34560, Note_on_c, 14, 57, 76
16, 34799, Note_on_c, 14, 57, 0
16, 34800, Control_c, 14, 11, 92
16, 35040, Note_on_c, 14, 55, 76
16, 35040, Control_c, 14, 11, 96
16, 35279, Note_on_c, 14, 55, 0
16, 35280, Control_c, 14, 11, 100
16, 35520, Control_c, 14, 11, 104
16, 35520, Note_on_c, 14, 54, 76
16, 35759, Note_on_c, 14, 54, 0
16, 35760, Control_c, 14, 11, 107
16, 36000, Control_c, 14, 11, 111
16, 36000, Note_on_c, 14, 55, 76
16, 36224, Note_on_c, 14, 55, 0
16, 36240, Note_on_c, 14, 52, 76
16, 36240, Control_c, 14, 11, 115
16, 36464, Note_on_c, 14, 52, 0
16, 36480, Control_c, 14, 11, 119
16, 36480, Note_on_c, 14, 57, 76
16, 36704, Note_on_c, 14, 57, 0
16, 36720, Control_c, 14, 11, 123
16, 36720, Note_on_c, 14, 45, 76
16, 36944, Note_on_c, 14, 45, 0
16, 36960, Note_on_c, 14, 50, 76
16, 36960, Control_c, 14, 11, 127
16, 37664, Note_on_c, 14, 50, 0
16, 37680, Note_on_c, 14, 50, 76
16, 37739, Note_on_c, 14, 50, 0
16, 37740, Note_on_c, 14, 49, 76
16, 37799, Note_on_c, 14, 49, 0
16, 37800, Note_on_c, 14, 50, 76
16, 37859, Note_on_c, 14, 50, 0
16, 37860, Note_on_c, 14, 52, 76
16, 37911, Note_on_c, 14, 52, 0
16, 37920, Note_on_c, 14, 54, 84
16, 38624, Note_on_c, 14, 54, 0
16, 38640, Note_on_c, 14, 54, 76
16, 38699, Note_on_c, 14, 54, 0
16, 38700, Note_on_c, 14, 52, 76
16, 38759, Note_on_c, 14, 52, 0
16, 38760, Note_on_c, 14, 54, 76
16, 38819, Note_on_c, 14, 54, 0
16, 38820, Note_on_c, 14, 55, 76
16, 38871, Note_on_c, 14, 55, 0
16, 38880, Note_on_c, 14, 57, 76
16, 39059, Note_on_c, 14, 57, 0
16, 39120, Note_on_c, 14, 57, 76
16, 39179, Note_on_c, 14, 57, 0
16, 39180, Note_on_c, 14, 56, 76
16, 39239, Note_on_c, 14, 56, 0
16, 39240, Note_on_c, 14, 57, 76
16, 39299, Note_on_c, 14, 57, 0
16, 39300, Note_on_c, 14, 59, 76
16, 39351, Note_on_c, 14, 59, 0
16, 39360, Note_on_c, 14, 60, 84
16, 40064, Note_on_c, 14, 60, 0
16, 40080, Note_on_c, 14, 57, 76
16, 40259, Note_on_c, 14, 57, 0
16, 40320, Note_on_c, 14, 54, 76
16, 40499, Note_on_c, 14, 54, 0
16, 40560, Note_on_c, 14, 48, 76
16, 40739, Note_on_c, 14, 48, 0
16, 40800, Note_on_c, 14, 47, 76
16, 40979, Note_on_c, 14, 47, 0
16, 41040, Note_on_c, 14, 50, 76
16, 41219, Note_on_c, 14, 50, 0
16, 41280, Note_on_c, 14, 55, 76
16, 41459, Note_on_c, 14, 55, 0
16, 41520, Note_on_c, 14, 59, 76
16, 41699, Note_on_c, 14, 59, 0
16, 41760, Note_on_c, 14, 49, 76
16, 41939, Note_on_c, 14, 49, 0
16, 42000, Note_on_c, 14, 52, 76
16, 42179, Note_on_c, 14, 52, 0
16, 42240, Note_on_c, 14, 57, 76
16, 42419, Note_on_c, 14, 57, 0
16, 42480, Note_on_c, 14, 61, 76
16, 42659, Note_on_c, 14, 61, 0
16, 42720, Note_on_c, 14, 50, 76
16, 42899, Note_on_c, 14, 50, 0
16, 42960, Note_on_c, 14, 57, 76
16, 43019, Note_on_c, 14, 57, 0
16, 43020, Note_on_c, 14, 56, 76
16, 43079, Note_on_c, 14, 56, 0
16, 43080, Note_on_c, 14, 57, 76
16, 43139, Note_on_c, 14, 57, 0
16, 43140, Note_on_c, 14, 59, 76
16, 43191, Note_on_c, 14, 59, 0
16, 43200, Note_on_c, 14, 60, 84
16, 43904, Note_on_c, 14, 60, 0
16, 43920, Note_on_c, 14, 57, 76
16, 44099, Note_on_c, 14, 57, 0
16, 44160, Note_on_c, 14, 54, 76
16, 44339, Note_on_c, 14, 54, 0
16, 44400, Note_on_c, 14, 48, 76
16, 44579, Note_on_c, 14, 48, 0
16, 44640, Note_on_c, 14, 46, 76
16, 44819, Note_on_c, 14, 46, 0
16, 44880, Note_on_c, 14, 50, 76
16, 45059, Note_on_c, 14, 50, 0
16, 45120, Note_on_c, 14, 55, 76
16, 45299, Note_on_c, 14, 55, 0
16, 45360, Note_on_c, 14, 58, 76
16, 45539, Note_on_c, 14, 58, 0
16, 45600, Note_on_c, 14, 49, 76
16, 45779, Note_on_c, 14, 49, 0
16, 45840, Note_on_c, 14, 52, 76
16, 46019, Note_on_c, 14, 52, 0
16, 46080, Note_on_c, 14, 57, 76
16, 46259, Note_on_c, 14, 57, 0
16, 46320, Note_on_c, 14, 61, 76
16, 46499, Note_on_c, 14, 61, 0
16, 46560, Note_on_c, 14, 50, 84
16, 47264, Note_on_c, 14, 50, 0
16, 47280, Note_on_c, 14, 50, 76
16, 47339, Note_on_c, 14, 50, 0
16, 47340, Note_on_c, 14, 49, 76
16, 47399, Note_on_c, 14, 49, 0
16, 47400, Note_on_c, 14, 50, 76
16, 47459, Note_on_c, 14, 50, 0
16, 47460, Note_on_c, 14, 52, 76
16, 47511, Note_on_c, 14, 52, 0
16, 47520, Note_on_c, 14, 53, 76
16, 47699, Note_on_c, 14, 53, 0
16, 47760, Note_on_c, 14, 53, 76
16, 47939, Note_on_c, 14, 53, 0
16, 48000, Note_on_c, 14, 50, 76
16, 48179, Note_on_c, 14, 50, 0
16, 48240, Note_on_c, 14, 50, 76
16, 48419, Note_on_c, 14, 50, 0
16, 48480, Note_on_c, 14, 46, 84
16, 49184, Note_on_c, 14, 46, 0
16, 49200, Note_on_c, 14, 46, 76
16, 49259, Note_on_c, 14, 46, 0
16, 49260, Note_on_c, 14, 45, 76
16, 49319, Note_on_c, 14, 45, 0
16, 49320, Note_on_c, 14, 46, 76
16, 49379, Note_on_c, 14, 46, 0
16, 49380, Note_on_c, 14, 48, 76
16, 49431, Note_on_c, 14, 48, 0
16, 49440, Note_on_c, 14, 50, 76
16, 49619, Note_on_c, 14, 50, 0
16, 49680, Note_on_c, 14, 50, 76
16, 49859, Note_on_c, 14, 50, 0
16, 49920, Note_on_c, 14, 46, 76
16, 50099, Note_on_c, 14, 46, 0
16, 50160, Note_on_c, 14, 46, 76
16, 50339, Note_on_c, 14, 46, 0
16, 50400, Note_on_c, 14, 44, 84
16, 50489, Note_on_c, 14, 44, 0
16, 50520, Note_on_c, 14, 52, 84
16, 50609, Note_on_c, 14, 52, 0
16, 50640, Note_on_c, 14, 56, 84
16, 50729, Note_on_c, 14, 56, 0
16, 50760, Note_on_c, 14, 52, 84
16, 50849, Note_on_c, 14, 52, 0
16, 50880, Note_on_c, 14, 56, 84
16, 50969, Note_on_c, 14, 56, 0
16, 51000, Note_on_c, 14, 52, 84
16, 51089, Note_on_c, 14, 52, 0
16, 51120, Note_on_c, 14, 56, 84
16, 51209, Note_on_c, 14, 56, 0
16, 51240, Note_on_c, 14, 52, 84
16, 51329, Note_on_c, 14, 52, 0
16, 51360, Note_on_c, 14, 57, 84
16, 51449, Note_on_c, 14, 57, 0
16, 51480, Note_on_c, 14, 52, 84
16, 51569, Note_on_c, 14, 52, 0
16, 51600, Note_on_c, 14, 57, 84
16, 51689, Note_on_c, 14, 57, 0
16, 51720, Note_on_c, 14, 52, 84
16, 51809, Note_on_c, 14, 52, 0
16, 51840, Note_on_c, 14, 60, 84
16, 51929, Note_on_c, 14, 60, 0
16, 51960, Note_on_c, 14, 52, 84
16, 52049, Note_on_c, 14, 52, 0
16, 52080, Note_on_c, 14, 60, 84
16, 52169, Note_on_c, 14, 60, 0
16, 52200, Note_on_c, 14, 52, 84
16, 52289, Note_on_c, 14, 52, 0
16, 52320, Note_on_c, 14, 59, 84
16, 52409, Note_on_c, 14, 59, 0
16, 52440, Note_on_c, 14, 52, 84
16, 52529, Note_on_c, 14, 52, 0
16, 52560, Note_on_c, 14, 59, 84
16, 52649, Note_on_c, 14, 59, 0
16, 52680, Note_on_c, 14, 52, 84
16, 52769, Note_on_c, 14, 52, 0
16, 52800, Note_on_c, 14, 62, 84
16, 52889, Note_on_c, 14, 62, 0
16, 52920, Note_on_c, 14, 52, 84
16, 53009, Note_on_c, 14, 52, 0
16, 53040, Note_on_c, 14, 62, 84
16, 53129, Note_on_c, 14, 62, 0
16, 53160, Note_on_c, 14, 52, 84
16, 53249, Note_on_c, 14, 52, 0
16, 53280, Note_on_c, 14, 60, 84
16, 53369, Note_on_c, 14, 60, 0
16, 53400, Note_on_c, 14, 52, 84
16, 53489, Note_on_c, 14, 52, 0
16, 53520, Note_on_c, 14, 60, 84
16, 53609, Note_on_c, 14, 60, 0
16, 53640, Note_on_c, 14, 52, 84
16, 53729, Note_on_c, 14, 52, 0
16, 53760, Note_on_c, 14, 57, 84
16, 53849, Note_on_c, 14, 57, 0
16, 53880, Note_on_c, 14, 52, 84
16, 53969, Note_on_c, 14, 52, 0
16, 54000, Note_on_c, 14, 57, 84
16, 54089, Note_on_c, 14, 57, 0
16, 54120, Note_on_c, 14, 52, 84
16, 54209, Note_on_c, 14, 52, 0
16, 54240, Note_on_c, 14, 56, 84
16, 54329, Note_on_c, 14, 56, 0
16, 54360, Note_on_c, 14, 52, 84
16, 54449, Note_on_c, 14, 52, 0
16, 54480, Note_on_c, 14, 56, 84
16, 54569, Note_on_c, 14, 56, 0
16, 54600, Note_on_c, 14, 52, 84
16, 54689, Note_on_c, 14, 52, 0
16, 54720, Note_on_c, 14, 56, 84
16, 54809, Note_on_c, 14, 56, 0
16, 54840, Note_on_c, 14, 52, 84
16, 54929, Note_on_c, 14, 52, 0
16, 54960, Note_on_c, 14, 56, 84
16, 55049, Note_on_c, 14, 56, 0
16, 55080, Note_on_c, 14, 52, 84
16, 55169, Note_on_c, 14, 52, 0
16, 55200, Note_on_c, 14, 57, 84
16, 55289, Note_on_c, 14, 57, 0
16, 55320, Note_on_c, 14, 52, 84
16, 55409, Note_on_c, 14, 52, 0
16, 55440, Note_on_c, 14, 57, 84
16, 55529, Note_on_c, 14, 57, 0
16, 55560, Note_on_c, 14, 52, 84
16, 55649, Note_on_c, 14, 52, 0
16, 55680, Note_on_c, 14, 60, 84
16, 55769, Note_on_c, 14, 60, 0
16, 55800, Note_on_c, 14, 52, 84
16, 55889, Note_on_c, 14, 52, 0
16, 55920, Note_on_c, 14, 60, 84
16, 56009, Note_on_c, 14, 60, 0
16, 56040, Note_on_c, 14, 52, 84
16, 56129, Note_on_c, 14, 52, 0
16, 56160, Note_on_c, 14, 59, 84
16, 56264, Note_on_c, 14, 59, 0
16, 56280, Note_on_c, 14, 52, 84
16, 56384, Note_on_c, 14, 52, 0
16, 56400, Note_on_c, 14, 64, 92
16, 56984, Note_on_c, 14, 64, 0
16, 57000, Note_on_c, 14, 62, 84
16, 57104, Note_on_c, 14, 62, 0
16, 57120, Note_on_c, 14, 60, 84
16, 57224, Note_on_c, 14, 60, 0
16, 57240, Note_on_c, 14, 62, 84
16, 57344, Note_on_c, 14, 62, 0
16, 57360, Note_on_c, 14, 60, 84
16, 57464, Note_on_c, 14, 60, 0
16, 57480, Note_on_c, 14, 59, 84
16, 57584, Note_on_c, 14, 59, 0
16, 57600, Note_on_c, 14, 57, 84
16, 57704, Note_on_c, 14, 57, 0
16, 57720, Note_on_c, 14, 55, 84
16, 57824, Note_on_c, 14, 55, 0
16, 57840, Note_on_c, 14, 54, 84
16, 57944, Note_on_c, 14, 54, 0
16, 57960, Note_on_c, 14, 53, 84
16, 58064, Note_on_c, 14, 53, 0
16, 58080, Note_on_c, 14, 52, 92
16, 58439, Note_on_c, 14, 52, 0
16, 58440, Note_on_c, 14, 53, 84
16, 58544, Note_on_c, 14, 53, 0
16, 58560, Note_on_c, 14, 52, 92
16, 58919, Note_on_c, 14, 52, 0
16, 58920, Note_on_c, 14, 53, 84
16, 59024, Note_on_c, 14, 53, 0
16, 59040, Note_on_c, 14, 52, 84
16, 59129, Note_on_c, 14, 52, 0
16, 59160, Note_on_c, 14, 53, 84
16, 59249, Note_on_c, 14, 53, 0
16, 59280, Note_on_c, 14, 52, 84
16, 59369, Note_on_c, 14, 52, 0
16, 59400, Note_on_c, 14, 53, 84
16, 59489, Note_on_c, 14, 53, 0
16, 59520, Note_on_c, 14, 52, 84
16, 59609, Note_on_c, 14, 52, 0
16, 59640, Note_on_c, 14, 53, 84
16, 59729, Note_on_c, 14, 53, 0
16, 59760, Note_on_c, 14, 52, 84
16, 59849, Note_on_c, 14, 52, 0
16, 59880, Note_on_c, 14, 53, 84
16, 59969, Note_on_c, 14, 53, 0
16, 60000, Note_on_c, 14, 52, 92
16, 60704, Note_on_c, 14, 52, 0
16, 60720, Note_on_c, 14, 51, 84
16, 60899, Note_on_c, 14, 51, 0
16, 60960, Note_on_c, 14, 50, 84
16, 61139, Note_on_c, 14, 50, 0
16, 61200, Note_on_c, 14, 49, 84
16, 61379, Note_on_c, 14, 49, 0
16, 61440, Note_on_c, 14, 47, 84
16, 61619, Note_on_c, 14, 47, 0
16, 61680, Note_on_c, 14, 52, 84
16, 61859, Note_on_c, 14, 52, 0
16, 61920, Note_on_c, 14, 45, 52
16, 62024, Note_on_c, 14, 45, 0
16, 62040, Note_on_c, 14, 57, 52
16, 62144, Note_on_c, 14, 57, 0
16, 62160, Note_on_c, 14, 57, 52
16, 62264, Note_on_c, 14, 57, 0
16, 62280, Note_on_c, 14, 57, 52
16, 62384, Note_on_c, 14, 57, 0
16, 62400, Note_on_c, 14, 45, 52
16, 62504, Note_on_c, 14, 45, 0
16, 62520, Note_on_c, 14, 57, 52
16, 62624, Note_on_c, 14, 57, 0
16, 62640, Note_on_c, 14, 57, 52
16, 62744, Note_on_c, 14, 57, 0
16, 62760, Note_on_c, 14, 57, 52
16, 62864, Note_on_c, 14, 57, 0
16, 62880, Note_on_c, 14, 45, 52
16, 62984, Note_on_c, 14, 45, 0
16, 63000, Note_on_c, 14, 57, 52
16, 63104, Note_on_c, 14, 57, 0
16, 63120, Note_on_c, 14, 57, 52
16, 63224, Note_on_c, 14, 57, 0
16, 63240, Note_on_c, 14, 57, 52
16, 63344, Note_on_c, 14, 57, 0
16, 63360, Note_on_c, 14, 57, 52
16, 63464, Note_on_c, 14, 57, 0
16, 63480, Note_on_c, 14, 57, 52
16, 63584, Note_on_c, 14, 57, 0
16, 63600, Note_on_c, 14, 57, 52
16, 63704, Note_on_c, 14, 57, 0
16, 63720, Note_on_c, 14, 57, 52
16, 63824, Note_on_c, 14, 57, 0
16, 63840, Note_on_c, 14, 57, 52
16, 63944, Note_on_c, 14, 57, 0
16, 63960, Note_on_c, 14, 57, 52
16, 64064, Note_on_c, 14, 57, 0
16, 64080, Note_on_c, 14, 57, 52
16, 64184, Note_on_c, 14, 57, 0
16, 64200, Note_on_c, 14, 57, 52
16, 64304, Note_on_c, 14, 57, 0
16, 64320, Note_on_c, 14, 57, 52
16, 64424, Note_on_c, 14, 57, 0
16, 64440, Note_on_c, 14, 57, 52
16, 64544, Note_on_c, 14, 57, 0
16, 64560, Note_on_c, 14, 57, 52
16, 64664, Note_on_c, 14, 57, 0
16, 64680, Note_on_c, 14, 57, 52
16, 64784, Note_on_c, 14, 57, 0
16, 64800, Note_on_c, 14, 57, 52
16, 64904, Note_on_c, 14, 57, 0
16, 64920, Note_on_c, 14, 57, 52
16, 65024, Note_on_c, 14, 57, 0
16, 65040, Note_on_c, 14, 57, 52
16, 65144, Note_on_c, 14, 57, 0
16, 65160, Note_on_c, 14, 57, 52
16, 65264, Note_on_c, 14, 57, 0
16, 65280, Note_on_c, 14, 57, 52
16, 65384, Note_on_c, 14, 57, 0
16, 65400, Note_on_c, 14, 57, 52
16, 65504, Note_on_c, 14, 57, 0
16, 65520, Note_on_c, 14, 57, 52
16, 65624, Note_on_c, 14, 57, 0
16, 65640, Note_on_c, 14, 57, 52
16, 65744, Note_on_c, 14, 57, 0
16, 65760, Note_on_c, 14, 42, 84
16, 65864, Note_on_c, 14, 42, 0
16, 65880, Note_on_c, 14, 54, 84
16, 65984, Note_on_c, 14, 54, 0
16, 66000, Note_on_c, 14, 49, 84
16, 66104, Note_on_c, 14, 49, 0
16, 66120, Note_on_c, 14, 45, 84
16, 66224, Note_on_c, 14, 45, 0
16, 66240, Note_on_c, 14, 42, 84
16, 66344, Note_on_c, 14, 42, 0
16, 66360, Note_on_c, 14, 54, 84
16, 66464, Note_on_c, 14, 54, 0
16, 66480, Note_on_c, 14, 49, 84
16, 66584, Note_on_c, 14, 49, 0
16, 66600, Note_on_c, 14, 45, 84
16, 66704, Note_on_c, 14, 45, 0
16, 66720, Note_on_c, 14, 42, 84
16, 66824, Note_on_c, 14, 42, 0
16, 66840, Note_on_c, 14, 54, 84
16, 66944, Note_on_c, 14, 54, 0
16, 66960, Note_on_c, 14, 49, 84
16, 67064, Note_on_c, 14, 49, 0
16, 67080, Note_on_c, 14, 45, 84
16, 67184, Note_on_c, 14, 45, 0
16, 67200, Note_on_c, 14, 42, 84
16, 67304, Note_on_c, 14, 42, 0
16, 67320, Note_on_c, 14, 54, 84
16, 67424, Note_on_c, 14, 54, 0
16, 67440, Note_on_c, 14, 56, 84
16, 67544, Note_on_c, 14, 56, 0
16, 67560, Note_on_c, 14, 57, 84
16, 67664, Note_on_c, 14, 57, 0
16, 67680, Note_on_c, 14, 47, 92
16, 67784, Note_on_c, 14, 47, 0
16, 67800, Note_on_c, 14, 59, 84
16, 67904, Note_on_c, 14, 59, 0
16, 67920, Note_on_c, 14, 59, 84
16, 68024, Note_on_c, 14, 59, 0
16, 68040, Note_on_c, 14, 59, 84
16, 68144, Note_on_c, 14, 59, 0
16, 68160, Note_on_c, 14, 47, 92
16, 68264, Note_on_c, 14, 47, 0
16, 68280, Note_on_c, 14, 59, 84
16, 68384, Note_on_c, 14, 59, 0
16, 68400, Note_on_c, 14, 59, 84
16, 68504, Note_on_c, 14, 59, 0
16, 68520, Note_on_c, 14, 59, 84
16, 68624, Note_on_c, 14, 59, 0
16, 68640, Note_on_c, 14, 52, 84
16, 68879, Note_on_c, 14, 52, 0
16, 69600, Note_on_c, 14, 45, 52
16, 69704, Note_on_c, 14, 45, 0
16, 69720, Note_on_c, 14, 57, 52
16, 69824, Note_on_c, 14, 57, 0
16, 69840, Note_on_c, 14, 57, 52
16, 69944, Note_on_c, 14, 57, 0
16, 69960, Note_on_c, 14, 57, 52
16, 70064, Note_on_c, 14, 57, 0
16, 70080, Note_on_c, 14, 45, 52
16, 70184, Note_on_c, 14, 45, 0
16, 70200, Note_on_c, 14, 57, 52
16, 70304, Note_on_c, 14, 57, 0
16, 70320, Note_on_c, 14, 57, 52
16, 70424, Note_on_c, 14, 57, 0
16, 70440, Note_on_c, 14, 57, 52
16, 70544, Note_on_c, 14, 57, 0
16, 70560, Note_on_c, 14, 45, 52
16, 70664, Note_on_c, 14, 45, 0
16, 70680, Note_on_c, 14, 57, 52
16, 70784, Note_on_c, 14, 57, 0
16, 70800, Note_on_c, 14, 57, 52
16, 70904, Note_on_c, 14, 57, 0
16, 70920, Note_on_c, 14, 57, 52
16, 71024, Note_on_c, 14, 57, 0
16, 71040, Note_on_c, 14, 57, 52
16, 71144, Note_on_c, 14, 57, 0
16, 71160, Note_on_c, 14, 57, 52
16, 71264, Note_on_c, 14, 57, 0
16, 71280, Note_on_c, 14, 57, 52
16, 71384, Note_on_c, 14, 57, 0
16, 71400, Note_on_c, 14, 57, 52
16, 71504, Note_on_c, 14, 57, 0
16, 71520, Note_on_c, 14, 57, 52
16, 71624, Note_on_c, 14, 57, 0
16, 71640, Note_on_c, 14, 57, 52
16, 71744, Note_on_c, 14, 57, 0
16, 71760, Note_on_c, 14, 57, 52
16, 71864, Note_on_c, 14, 57, 0
16, 71880, Note_on_c, 14, 57, 52
16, 71984, Note_on_c, 14, 57, 0
16, 72000, Note_on_c, 14, 57, 52
16, 72104, Note_on_c, 14, 57, 0
16, 72120, Note_on_c, 14, 57, 52
16, 72224, Note_on_c, 14, 57, 0
16, 72240, Note_on_c, 14, 57, 52
16, 72344, Note_on_c, 14, 57, 0
16, 72360, Note_on_c, 14, 57, 52
16, 72464, Note_on_c, 14, 57, 0
16, 72480, Note_on_c, 14, 57, 52
16, 72584, Note_on_c, 14, 57, 0
16, 72600, Note_on_c, 14, 57, 52
16, 72704, Note_on_c, 14, 57, 0
16, 72720, Note_on_c, 14, 57, 52
16, 72824, Note_on_c, 14, 57, 0
16, 72840, Note_on_c, 14, 57, 52
16, 72944, Note_on_c, 14, 57, 0
16, 72960, Note_on_c, 14, 57, 52
16, 73079, Note_on_c, 14, 57, 0
16, 73440, Note_on_c, 14, 42, 84
16, 73544, Note_on_c, 14, 42, 0
16, 73560, Note_on_c, 14, 54, 84
16, 73664, Note_on_c, 14, 54, 0
16, 73680, Note_on_c, 14, 49, 84
16, 73784, Note_on_c, 14, 49, 0
16, 73800, Note_on_c, 14, 45, 84
16, 73904, Note_on_c, 14, 45, 0
16, 73920, Note_on_c, 14, 42, 84
16, 74024, Note_on_c, 14, 42, 0
16, 74040, Note_on_c, 14, 54, 84
16, 74144, Note_on_c, 14, 54, 0
16, 74160, Note_on_c, 14, 49, 84
16, 74264, Note_on_c, 14, 49, 0
16, 74280, Note_on_c, 14, 45, 84
16, 74384, Note_on_c, 14, 45, 0
16, 74400, Note_on_c, 14, 42, 84
16, 74504, Note_on_c, 14, 42, 0
16, 74520, Note_on_c, 14, 54, 84
16, 74624, Note_on_c, 14, 54, 0
16, 74640, Note_on_c, 14, 49, 84
16, 74744, Note_on_c, 14, 49, 0
16, 74760, Note_on_c, 14, 45, 84
16, 74864, Note_on_c, 14, 45, 0
16, 74880, Note_on_c, 14, 42, 84
16, 74984, Note_on_c, 14, 42, 0
16, 75000, Note_on_c, 14, 54, 84
16, 75104, Note_on_c, 14, 54, 0
16, 75120, Note_on_c, 14, 56, 84
16, 75224, Note_on_c, 14, 56, 0
16, 75240, Note_on_c, 14, 57, 84
16, 75344, Note_on_c, 14, 57, 0
16, 75360, Note_on_c, 14, 47, 92
16, 75464, Note_on_c, 14, 47, 0
16, 75480, Note_on_c, 14, 59, 84
16, 75584, Note_on_c, 14, 59, 0
16, 75600, Note_on_c, 14, 59, 84
16, 75704, Note_on_c, 14, 59, 0
16, 75720, Note_on_c, 14, 59, 84
16, 75824, Note_on_c, 14, 59, 0
16, 75840, Note_on_c, 14, 47, 92
16, 75944, Note_on_c, 14, 47, 0
16, 75960, Note_on_c, 14, 59, 84
16, 76064, Note_on_c, 14, 59, 0
16, 76080, Note_on_c, 14, 59, 84
16, 76184, Note_on_c, 14, 59, 0
16, 76200, Note_on_c, 14, 59, 84
16, 76304, Note_on_c, 14, 59, 0
16, 76320, Note_on_c, 14, 52, 92
16, 76904, Note_on_c, 14, 52, 0
16, 76920, Note_on_c, 14, 52, 84
16, 77039, Note_on_c, 14, 52, 0
16, 77040, Note_on_c, 14, 50, 84
16, 77159, Note_on_c, 14, 50, 0
16, 77160, Note_on_c, 14, 49, 84
16, 77264, Note_on_c, 14, 49, 0
16, 77280, Note_on_c, 14, 50, 92
16, 77864, Note_on_c, 14, 50, 0
16, 77880, Note_on_c, 14, 50, 84
16, 77999, Note_on_c, 14, 50, 0
16, 78000, Note_on_c, 14, 49, 84
16, 78119, Note_on_c, 14, 49, 0
16, 78120, Note_on_c, 14, 48, 84
16, 78224, Note_on_c, 14, 48, 0
16, 78240, Note_on_c, 14, 49, 92
16, 78824, Note_on_c, 14, 49, 0
16, 78840, Note_on_c, 14, 49, 84
16, 78959, Note_on_c, 14, 49, 0
16, 78960, Note_on_c, 14, 47, 84
16, 79079, Note_on_c, 14, 47, 0
16, 79080, Note_on_c, 14, 46, 84
16, 79184, Note_on_c, 14, 46, 0
16, 79200, Note_on_c, 14, 47, 92
16, 79784, Note_on_c, 14, 47, 0
16, 79800, Note_on_c, 14, 47, 84
16, 79919, Note_on_c, 14, 47, 0
16, 79920, Note_on_c, 14, 45, 84
16, 80039, Note_on_c, 14, 45, 0
16, 80040, Note_on_c, 14, 44, 84
16, 80144, Note_on_c, 14, 44, 0
16, 80160, Note_on_c, 14, 45, 92
16, 80249, Note_on_c, 14, 45, 0
16, 80280, Note_on_c, 14, 52, 84
16, 80399, Note_on_c, 14, 52, 0
16, 80400, Note_on_c, 14, 50, 84
16, 80519, Note_on_c, 14, 50, 0
16, 80520, Note_on_c, 14, 49, 84
16, 80624, Note_on_c, 14, 49, 0
16, 80640, Note_on_c, 14, 50, 92
16, 80729, Note_on_c, 14, 50, 0
16, 80760, Note_on_c, 14, 50, 84
16, 80879, Note_on_c, 14, 50, 0
16, 80880, Note_on_c, 14, 49, 84
16, 80999, Note_on_c, 14, 49, 0
16, 81000, Note_on_c, 14, 48, 84
16, 81104, Note_on_c, 14, 48, 0
16, 81120, Note_on_c, 14, 49, 92
16, 81209, Note_on_c, 14, 49, 0
16, 81240, Note_on_c, 14, 49, 84
16, 81359, Note_on_c, 14, 49, 0
16, 81360, Note_on_c, 14, 47, 84
16, 81479, Note_on_c, 14, 47, 0
16, 81480, Note_on_c, 14, 46, 84
16, 81584, Note_on_c, 14, 46, 0
16, 81600, Note_on_c, 14, 47, 92
16, 81689, Note_on_c, 14, 47, 0
16, 81720, Note_on_c, 14, 59, 84
16, 81839, Note_on_c, 14, 59, 0
16, 81840, Note_on_c, 14, 57, 84
16, 81959, Note_on_c, 14, 57, 0
16, 81960, Note_on_c, 14, 56, 84
16, 82064, Note_on_c, 14, 56, 0
16, 82080, Note_on_c, 14, 57, 92
16, 82169, Note_on_c, 14, 57, 0
16, 82200, Note_on_c, 14, 57, 84
16, 82319, Note_on_c, 14, 57, 0
16, 82320, Note_on_c, 14, 56, 84
16, 82439, Note_on_c, 14, 56, 0
16, 82440, Note_on_c, 14, 54, 84
16, 82544, Note_on_c, 14, 54, 0
16, 82560, Note_on_c, 14, 56, 92
16, 82649, Note_on_c, 14, 56, 0
16, 82680, Note_on_c, 14, 56, 84
16, 82799, Note_on_c, 14, 56, 0
16, 82800, Note_on_c, 14, 54, 84
16, 82919, Note_on_c, 14, 54, 0
16, 82920, Note_on_c, 14, 53, 84
16, 83024, Note_on_c, 14, 53, 0
16, 83040, Note_on_c, 14, 54, 92
16, 83129, Note_on_c, 14, 54, 0
16, 83160, Note_on_c, 14, 54, 84
16, 83279, Note_on_c, 14, 54, 0
16, 83280, Note_on_c, 14, 52, 84
16, 83399, Note_on_c, 14, 52, 0
16, 83400, Note_on_c, 14, 50, 84
16, 83504, Note_on_c, 14, 50, 0
16, 83520, Note_on_c, 14, 52, 92
16, 83609, Note_on_c, 14, 52, 0
16, 83640, Note_on_c, 14, 52, 84
16, 83759, Note_on_c, 14, 52, 0
16, 83760, Note_on_c, 14, 50, 84
16, 83879, Note_on_c, 14, 50, 0
16, 83880, Note_on_c, 14, 49, 84
16, 83984, Note_on_c, 14, 49, 0
16, 84000, Note_on_c, 14, 50, 84
16, 84179, Note_on_c, 14, 50, 0
16, 84960, Note_on_c, 14, 59, 84
16, 85139, Note_on_c, 14, 59, 0
16, 85920, Note_on_c, 14, 56, 84
16, 86099, Note_on_c, 14, 56, 0
16, 86400, Note_on_c, 14, 57, 84
16, 86579, Note_on_c, 14, 57, 0
16, 86880, Note_on_c, 14, 50, 84
16, 87059, Note_on_c, 14, 50, 0
16, 87360, Note_on_c, 14, 52, 84
16, 87539, Note_on_c, 14, 52, 0
16, 87840, Note_on_c, 14, 54, 84
16, 88079, Note_on_c, 14, 54, 0
16, 88800, Note_on_c, 14, 56, 84
16, 89039, Note_on_c, 14, 56, 0
16, 90240, Control_c, 14, 11, 80
16, 90480, Note_on_c, 14, 47, 68
16, 90539, Note_on_c, 14, 47, 0
16, 90540, Note_on_c, 14, 46, 68
16, 90599, Note_on_c, 14, 46, 0
16, 90600, Note_on_c, 14, 47, 68
16, 90659, Note_on_c, 14, 47, 0
16, 90660, Note_on_c, 14, 48, 68
16, 90711, Note_on_c, 14, 48, 0
16, 90720, Note_on_c, 14, 50, 68
16, 90899, Note_on_c, 14, 50, 0
16, 91440, Note_on_c, 14, 48, 68
16, 91499, Note_on_c, 14, 48, 0
16, 91500, Note_on_c, 14, 47, 68
16, 91559, Note_on_c, 14, 47, 0
16, 91560, Note_on_c, 14, 48, 68
16, 91619, Note_on_c, 14, 48, 0
16, 91620, Note_on_c, 14, 50, 68
16, 91671, Note_on_c, 14, 50, 0
16, 91680, Note_on_c, 14, 52, 68
16, 91859, Note_on_c, 14, 52, 0
16, 92400, Note_on_c, 14, 50, 68
16, 92459, Note_on_c, 14, 50, 0
16, 92460, Note_on_c, 14, 49, 68
16, 92519, Note_on_c, 14, 49, 0
16, 92520, Note_on_c, 14, 50, 68
16, 92579, Note_on_c, 14, 50, 0
16, 92580, Note_on_c, 14, 52, 68
16, 92631, Note_on_c, 14, 52, 0
16, 92640, Note_on_c, 14, 53, 68
16, 92640, Control_c, 14, 11, 80
16, 92760, Control_c, 14, 11, 82
16, 92819, Note_on_c, 14, 53, 0
16, 92880, Note_on_c, 14, 52, 68
16, 92880, Control_c, 14, 11, 84
16, 92939, Note_on_c, 14, 52, 0
16, 92940, Note_on_c, 14, 50, 68
16, 92999, Note_on_c, 14, 50, 0
16, 93000, Note_on_c, 14, 52, 68
16, 93000, Control_c, 14, 11, 86
16, 93059, Note_on_c, 14, 52, 0
16, 93060, Note_on_c, 14, 53, 68
16, 93111, Note_on_c, 14, 53, 0
16, 93120, Control_c, 14, 11, 88
16, 93120, Note_on_c, 14, 55, 68
16, 93240, Control_c, 14, 11, 90
16, 93299, Note_on_c, 14, 55, 0
16, 93360, Control_c, 14, 11, 92
16, 93360, Note_on_c, 14, 53, 68
16, 93419, Note_on_c, 14, 53, 0
16, 93420, Note_on_c, 14, 52, 68
16, 93479, Note_on_c, 14, 52, 0
16, 93480, Control_c, 14, 11, 94
16, 93480, Note_on_c, 14, 53, 68
16, 93539, Note_on_c, 14, 53, 0
16, 93540, Note_on_c, 14, 55, 68
16, 93591, Note_on_c, 14, 55, 0
16, 93600, Control_c, 14, 11, 96
16, 93600, Note_on_c, 14, 57, 68
16, 93720, Control_c, 14, 11, 98
16, 93779, Note_on_c, 14, 57, 0
16, 93840, Control_c, 14, 11, 100
16, 93840, Note_on_c, 14, 56, 68
16, 93899, Note_on_c, 14, 56, 0
16, 93900, Note_on_c, 14, 54, 68
16, 93959, Note_on_c, 14, 54, 0
16, 93960, Control_c, 14, 11, 102
16, 93960, Note_on_c, 14, 56, 68
16, 94019, Note_on_c, 14, 56, 0
16, 94020, Note_on_c, 14, 57, 68
16, 94071, Note_on_c, 14, 57, 0
16, 94080, Note_on_c, 14, 59, 68
16, 94080, Control_c, 14, 11, 104
16, 94200, Control_c, 14, 11, 105
16, 94259, Note_on_c, 14, 59, 0
16, 94320, Note_on_c, 14, 57, 68
16, 94320, Control_c, 14, 11, 107
16, 94379, Note_on_c, 14, 57, 0
16, 94380, Note_on_c, 14, 56, 68
16, 94439, Note_on_c, 14, 56, 0
16, 94440, Control_c, 14, 11, 109
16, 94440, Note_on_c, 14, 57, 68
16, 94499, Note_on_c, 14, 57, 0
16, 94500, Note_on_c, 14, 59, 68
16, 94551, Note_on_c, 14, 59, 0
16, 94560, Control_c, 14, 11, 111
16, 94560, Note_on_c, 14, 60, 68
16, 94680, Control_c, 14, 11, 113
16, 94739, Note_on_c, 14, 60, 0
16, 94800, Note_on_c, 14, 57, 68
16, 94800, Control_c, 14, 11, 115
16, 94859, Note_on_c, 14, 57, 0
16, 94860, Note_on_c, 14, 56, 68
16, 94919, Note_on_c, 14, 56, 0
16, 94920, Control_c, 14, 11, 117
16, 94920, Note_on_c, 14, 57, 68
16, 94979, Note_on_c, 14, 57, 0
16, 94980, Note_on_c, 14, 59, 68
16, 95031, Note_on_c, 14, 59, 0
16, 95040, Control_c, 14, 11, 119
16, 95040, Note_on_c, 14, 60, 68
16, 95160, Control_c, 14, 11, 121
16, 95219, Note_on_c, 14, 60, 0
16, 95280, Note_on_c, 14, 57, 68
16, 95280, Control_c, 14, 11, 123
16, 95339, Note_on_c, 14, 57, 0
16, 95340, Note_on_c, 14, 56, 68
16, 95399, Note_on_c, 14, 56, 0
16, 95400, Control_c, 14, 11, 125
16, 95400, Note_on_c, 14, 57, 68
16, 95459, Note_on_c, 14, 57, 0
16, 95460, Note_on_c, 14, 59, 68
16, 95511, Note_on_c, 14, 59, 0
16, 95520, Control_c, 14, 11, 127
16, 95520, Note_on_c, 14, 60, 76
16, 96464, Note_on_c, 14, 60, 0
16, 96480, Note_on_c, 14, 51, 76
16, 97424, Note_on_c, 14, 51, 0
16, 97440, Note_on_c, 14, 52, 84
16, 97544, Note_on_c, 14, 52, 0
16, 97560, Note_on_c, 14, 52, 84
16, 97664, Note_on_c, 14, 52, 0
16, 97680, Note_on_c, 14, 52, 84
16, 97784, Note_on_c, 14, 52, 0
16, 97800, Note_on_c, 14, 52, 84
16, 97904, Note_on_c, 14, 52, 0
16, 97920, Note_on_c, 14, 52, 84
16, 98024, Note_on_c, 14, 52, 0
16, 98040, Note_on_c, 14, 52, 84
16, 98144, Note_on_c, 14, 52, 0
16, 98160, Note_on_c, 14, 52, 84
16, 98264, Note_on_c, 14, 52, 0
16, 98280, Note_on_c, 14, 52, 84
16, 98384, Note_on_c, 14, 52, 0
16, 98400, Note_on_c, 14, 52, 84
16, 98504, Note_on_c, 14, 52, 0
16, 98520, Note_on_c, 14, 52, 84
16, 98624, Note_on_c, 14, 52, 0
16, 98640, Note_on_c, 14, 52, 84
16, 98744, Note_on_c, 14, 52, 0
16, 98760, Note_on_c, 14, 52, 84
16, 98864, Note_on_c, 14, 52, 0
16, 98880, Note_on_c, 14, 52, 84
16, 98984, Note_on_c, 14, 52, 0
16, 99000, Note_on_c, 14, 52, 84
16, 99104, Note_on_c, 14, 52, 0
16, 99120, Note_on_c, 14, 52, 84
16, 99224, Note_on_c, 14, 52, 0
16, 99240, Note_on_c, 14, 52, 84
16, 99344, Note_on_c, 14, 52, 0
16, 99360, Note_on_c, 14, 45, 84
16, 99599, Note_on_c, 14, 45, 0
16, 101280, Note_on_c, 14, 62, 84
16, 101984, Note_on_c, 14, 62, 0
16, 102000, Note_on_c, 14, 62, 84
16, 102179, Note_on_c, 14, 62, 0
16, 102240, Note_on_c, 14, 57, 84
16, 102419, Note_on_c, 14, 57, 0
16, 102480, Note_on_c, 14, 53, 84
16, 102659, Note_on_c, 14, 53, 0
16, 102720, Note_on_c, 14, 52, 84
16, 102899, Note_on_c, 14, 52, 0
16, 102960, Note_on_c, 14, 50, 84
16, 103139, Note_on_c, 14, 50, 0
16, 103200, Note_on_c, 14, 45, 84
16, 103439, Note_on_c, 14, 45, 0
16, 105120, Note_on_c, 14, 62, 84
16, 105824, Note_on_c, 14, 62, 0
16, 105840, Note_on_c, 14, 62, 84
16, 106019, Note_on_c, 14, 62, 0
16, 106080, Note_on_c, 14, 57, 84
16, 106259, Note_on_c, 14, 57, 0
16, 106320, Note_on_c, 14, 53, 84
16, 106499, Note_on_c, 14, 53, 0
16, 106560, Note_on_c, 14, 52, 84
16, 106739, Note_on_c, 14, 52, 0
16, 106800, Note_on_c, 14, 50, 84
16, 106979, Note_on_c, 14, 50, 0
16, 107040, Note_on_c, 14, 45, 52
16, 107219, Note_on_c, 14, 45, 0
16, 107280, Note_on_c, 14, 53, 52
16, 107519, Note_on_c, 14, 53, 0
16, 107520, Note_on_c, 14, 52, 52
16, 107759, Note_on_c, 14, 52, 0
16, 107760, Note_on_c, 14, 50, 76
16, 107984, Note_on_c, 14, 50, 0
16, 108000, Note_on_c, 14, 45, 52
16, 108179, Note_on_c, 14, 45, 0
16, 108240, Note_on_c, 14, 53, 52
16, 108479, Note_on_c, 14, 53, 0
16, 108480, Note_on_c, 14, 52, 52
16, 108719, Note_on_c, 14, 52, 0
16, 108720, Note_on_c, 14, 50, 76
16, 108944, Note_on_c, 14, 50, 0
16, 108960, Note_on_c, 14, 45, 52
16, 109139, Note_on_c, 14, 45, 0
16, 109200, Note_on_c, 14, 53, 52
16, 109439, Note_on_c, 14, 53, 0
16, 109440, Note_on_c, 14, 52, 52
16, 109679, Note_on_c, 14, 52, 0
16, 109680, Note_on_c, 14, 50, 76
16, 109904, Note_on_c, 14, 50, 0
16, 109920, Note_on_c, 14, 45, 52
16, 110099, Note_on_c, 14, 45, 0
16, 110160, Note_on_c, 14, 53, 52
16, 110399, Note_on_c, 14, 53, 0
16, 110400, Note_on_c, 14, 52, 52
16, 110639, Note_on_c, 14, 52, 0
16, 110640, Note_on_c, 14, 50, 76
16, 110864, Note_on_c, 14, 50, 0
16, 110880, Note_on_c, 14, 45, 52
16, 111089, Note_on_c, 14, 45, 0
16, 111120, Note_on_c, 14, 50, 76
16, 111329, Note_on_c, 14, 50, 0
16, 111360, Note_on_c, 14, 45, 52
16, 111569, Note_on_c, 14, 45, 0
16, 111600, Note_on_c, 14, 50, 76
16, 111809, Note_on_c, 14, 50, 0
16, 111840, Note_on_c, 14, 45, 52
16, 112049, Note_on_c, 14, 45, 0
16, 112080, Note_on_c, 14, 50, 76
16, 112289, Note_on_c, 14, 50, 0
16, 112320, Note_on_c, 14, 45, 52
16, 112529, Note_on_c, 14, 45, 0
16, 112560, Note_on_c, 14, 50, 76
16, 112769, Note_on_c, 14, 50, 0
16, 112800, Note_on_c, 14, 45, 84
16, 114704, Note_on_c, 14, 45, 0
16, 114720, Note_on_c, 14, 45, 84
16, 115304, Note_on_c, 14, 45, 0
16, 115320, Note_on_c, 14, 57, 84
16, 115424, Note_on_c, 14, 57, 0
16, 115440, Note_on_c, 14, 52, 84
16, 115544, Note_on_c, 14, 52, 0
16, 115560, Note_on_c, 14, 49, 84
16, 115664, Note_on_c, 14, 49, 0
16, 115680, Note_on_c, 14, 45, 84
16, 115784, Note_on_c, 14, 45, 0
16, 115800, Note_on_c, 14, 57, 84
16, 115904, Note_on_c, 14, 57, 0
16, 115920, Note_on_c, 14, 52, 84
16, 116024, Note_on_c, 14, 52, 0
16, 116040, Note_on_c, 14, 49, 84
16, 116144, Note_on_c, 14, 49, 0
16, 116160, Note_on_c, 14, 45, 84
16, 116264, Note_on_c, 14, 45, 0
16, 116280, Note_on_c, 14, 57, 84
16, 116384, Note_on_c, 14, 57, 0
16, 116400, Note_on_c, 14, 52, 84
16, 116504, Note_on_c, 14, 52, 0
16, 116520, Note_on_c, 14, 49, 84
16, 116624, Note_on_c, 14, 49, 0
16, 116640, Note_on_c, 14, 45, 84
16, 116879, Note_on_c, 14, 45, 0
16, 117600, Note_on_c, 14, 45, 76
16, 117839, Note_on_c, 14, 45, 0
16, 120360, Note_on_c, 14, 45, 52
16, 120399, Note_on_c, 14, 45, 0
16, 120400, Note_on_c, 14, 47, 52
16, 120439, Note_on_c, 14, 47, 0
16, 120440, Note_on_c, 14, 49, 52
16, 120471, Note_on_c, 14, 49, 0
16, 120480, Note_on_c, 14, 50, 52
16, 121169, Note_on_c, 14, 50, 0
16, 121200, Note_on_c, 14, 50, 52
16, 121259, Note_on_c, 14, 50, 0
16, 121260, Note_on_c, 14, 49, 52
16, 121319, Note_on_c, 14, 49, 0
16, 121320, Note_on_c, 14, 50, 52
16, 121379, Note_on_c, 14, 50, 0
16, 121380, Note_on_c, 14, 52, 52
16, 121431, Note_on_c, 14, 52, 0
16, 121440, Note_on_c, 14, 54, 52
16, 122129, Note_on_c, 14, 54, 0
16, 122160, Note_on_c, 14, 54, 52
16, 122219, Note_on_c, 14, 54, 0
16, 122220, Note_on_c, 14, 52, 52
16, 122279, Note_on_c, 14, 52, 0
16, 122280, Note_on_c, 14, 54, 52
16, 122339, Note_on_c, 14, 54, 0
16, 122340, Note_on_c, 14, 55, 52
16, 122391, Note_on_c, 14, 55, 0
16, 122400, Note_on_c, 14, 57, 52
16, 122579, Note_on_c, 14, 57, 0
16, 122640, Note_on_c, 14, 57, 52
16, 122819, Note_on_c, 14, 57, 0
16, 122880, Note_on_c, 14, 54, 52
16, 123059, Note_on_c, 14, 54, 0
16, 123120, Note_on_c, 14, 54, 52
16, 123299, Note_on_c, 14, 54, 0
16, 123360, Note_on_c, 14, 50, 52
16, 123599, Note_on_c, 14, 50, 0
16, 124320, Note_on_c, 14, 55, 52
16, 125024, Note_on_c, 14, 55, 0
16, 125040, Note_on_c, 14, 55, 52
16, 125099, Note_on_c, 14, 55, 0
16, 125100, Note_on_c, 14, 54, 52
16, 125159, Note_on_c, 14, 54, 0
16, 125160, Note_on_c, 14, 55, 52
16, 125219, Note_on_c, 14, 55, 0
16, 125220, Note_on_c, 14, 57, 52
16, 125271, Note_on_c, 14, 57, 0
16, 125280, Note_on_c, 14, 59, 52
16, 125984, Note_on_c, 14, 59, 0
16, 126000, Note_on_c, 14, 59, 52
16, 126059, Note_on_c, 14, 59, 0
16, 126060, Note_on_c, 14, 58, 52
16, 126119, Note_on_c, 14, 58, 0
16, 126120, Note_on_c, 14, 59, 52
16, 126179, Note_on_c, 14, 59, 0
16, 126180, Note_on_c, 14, 61, 52
16, 126231, Note_on_c, 14, 61, 0
16, 126240, Note_on_c, 14, 62, 52
16, 126419, Note_on_c, 14, 62, 0
16, 126480, Note_on_c, 14, 62, 52
16, 126659, Note_on_c, 14, 62, 0
16, 126720, Note_on_c, 14, 59, 52
16, 126899, Note_on_c, 14, 59, 0
16, 126960, Note_on_c, 14, 59, 52
16, 127139, Note_on_c, 14, 59, 0
16, 127200, Note_on_c, 14, 56, 52
16, 127439, Note_on_c, 14, 56, 0
16, 128160, Note_on_c, 14, 62, 52
16, 128339, Note_on_c, 14, 62, 0
16, 128400, Note_on_c, 14, 62, 52
16, 128579, Note_on_c, 14, 62, 0
16, 128640, Note_on_c, 14, 60, 52
16, 128819, Note_on_c, 14, 60, 0
16, 128880, Note_on_c, 14, 60, 52
16, 129059, Note_on_c, 14, 60, 0
16, 129120, Note_on_c, 14, 57, 52
16, 129299, Note_on_c, 14, 57, 0
16, 129840, Control_c, 14, 11, 80
16, 130080, Note_on_c, 14, 59, 76
16, 130319, Note_on_c, 14, 59, 0
16, 130320, Control_c, 14, 11, 84
16, 130560, Control_c, 14, 11, 88
16, 130560, Note_on_c, 14, 57, 76
16, 130799, Note_on_c, 14, 57, 0
16, 130800, Control_c, 14, 11, 92
16, 131040, Note_on_c, 14, 55, 76
16, 131040, Control_c, 14, 11, 96
16, 131279, Note_on_c, 14, 55, 0
16, 131280, Control_c, 14, 11, 100
16, 131520, Control_c, 14, 11, 104
16, 131520, Note_on_c, 14, 54, 76
16, 131759, Note_on_c, 14, 54, 0
16, 131760, Control_c, 14, 11, 107
16, 132000, Control_c, 14, 11, 111
16, 132000, Note_on_c, 14, 55, 76
16, 132224, Note_on_c, 14, 55, 0
16, 132240, Control_c, 14, 11, 115
16, 132240, Note_on_c, 14, 52, 76
16, 132464, Note_on_c, 14, 52, 0
16, 132480, Control_c, 14, 11, 119
16, 132480, Note_on_c, 14, 57, 76
16, 132704, Note_on_c, 14, 57, 0
16, 132720, Control_c, 14, 11, 123
16, 132720, Note_on_c, 14, 45, 76
16, 132944, Note_on_c, 14, 45, 0
16, 132960, Note_on_c, 14, 50, 76
16, 132960, Control_c, 14, 11, 127
16, 133664, Note_on_c, 14, 50, 0
16, 133680, Note_on_c, 14, 50, 76
16, 133739, Note_on_c, 14, 50, 0
16, 133740, Note_on_c, 14, 49, 76
16, 133799, Note_on_c, 14, 49, 0
16, 133800, Note_on_c, 14, 50, 76
16, 133859, Note_on_c, 14, 50, 0
16, 133860, Note_on_c, 14, 52, 76
16, 133911, Note_on_c, 14, 52, 0
16, 133920, Note_on_c, 14, 54, 84
16, 134624, Note_on_c, 14, 54, 0
16, 134640, Note_on_c, 14, 54, 76
16, 134699, Note_on_c, 14, 54, 0
16, 134700, Note_on_c, 14, 52, 76
16, 134759, Note_on_c, 14, 52, 0
16, 134760, Note_on_c, 14, 54, 76
16, 134819, Note_on_c, 14, 54, 0
16, 134820, Note_on_c, 14, 55, 76
16, 134871, Note_on_c, 14, 55, 0
16, 134880, Note_on_c, 14, 57, 76
16, 135059, Note_on_c, 14, 57, 0
16, 135120, Note_on_c, 14, 57, 76
16, 135179, Note_on_c, 14, 57, 0
16, 135180, Note_on_c, 14, 56, 76
16, 135239, Note_on_c, 14, 56, 0
16, 135240, Note_on_c, 14, 57, 76
16, 135299, Note_on_c, 14, 57, 0
16, 135300, Note_on_c, 14, 59, 76
16, 135351, Note_on_c, 14, 59, 0
16, 135360, Note_on_c, 14, 60, 84
16, 136064, Note_on_c, 14, 60, 0
16, 136080, Note_on_c, 14, 57, 76
16, 136259, Note_on_c, 14, 57, 0
16, 136320, Note_on_c, 14, 54, 76
16, 136499, Note_on_c, 14, 54, 0
16, 136560, Note_on_c, 14, 48, 76
16, 136739, Note_on_c, 14, 48, 0
16, 136800, Note_on_c, 14, 47, 76
16, 136979, Note_on_c, 14, 47, 0
16, 137040, Note_on_c, 14, 50, 76
16, 137219, Note_on_c, 14, 50, 0
16, 137280, Note_on_c, 14, 55, 76
16, 137459, Note_on_c, 14, 55, 0
16, 137520, Note_on_c, 14, 59, 76
16, 137699, Note_on_c, 14, 59, 0
16, 137760, Note_on_c, 14, 49, 76
16, 137939, Note_on_c, 14, 49, 0
16, 138000, Note_on_c, 14, 52, 76
16, 138179, Note_on_c, 14, 52, 0
16, 138240, Note_on_c, 14, 57, 76
16, 138419, Note_on_c, 14, 57, 0
16, 138480, Note_on_c, 14, 61, 76
16, 138659, Note_on_c, 14, 61, 0
16, 138720, Note_on_c, 14, 50, 76
16, 138899, Note_on_c, 14, 50, 0
16, 138960, Note_on_c, 14, 57, 76
16, 139019, Note_on_c, 14, 57, 0
16, 139020, Note_on_c, 14, 56, 76
16, 139079, Note_on_c, 14, 56, 0
16, 139080, Note_on_c, 14, 57, 76
16, 139139, Note_on_c, 14, 57, 0
16, 139140, Note_on_c, 14, 59, 76
16, 139191, Note_on_c, 14, 59, 0
16, 139200, Note_on_c, 14, 60, 84
16, 139904, Note_on_c, 14, 60, 0
16, 139920, Note_on_c, 14, 57, 76
16, 140099, Note_on_c, 14, 57, 0
16, 140160, Note_on_c, 14, 54, 76
16, 140339, Note_on_c, 14, 54, 0
16, 140400, Note_on_c, 14, 48, 76
16, 140579, Note_on_c, 14, 48, 0
16, 140640, Note_on_c, 14, 46, 76
16, 140819, Note_on_c, 14, 46, 0
16, 140880, Note_on_c, 14, 50, 76
16, 141059, Note_on_c, 14, 50, 0
16, 141120, Note_on_c, 14, 55, 76
16, 141299, Note_on_c, 14, 55, 0
16, 141360, Note_on_c, 14, 58, 76
16, 141539, Note_on_c, 14, 58, 0
16, 141600, Note_on_c, 14, 49, 76
16, 141779, Note_on_c, 14, 49, 0
16, 141840, Note_on_c, 14, 52, 76
16, 142019, Note_on_c, 14, 52, 0
16, 142080, Note_on_c, 14, 57, 76
16, 142259, Note_on_c, 14, 57, 0
16, 142320, Note_on_c, 14, 61, 76
16, 142499, Note_on_c, 14, 61, 0
16, 142560, Note_on_c, 14, 50, 84
16, 143264, Note_on_c, 14, 50, 0
16, 143280, Note_on_c, 14, 50, 76
16, 143339, Note_on_c, 14, 50, 0
16, 143340, Note_on_c, 14, 49, 76
16, 143399, Note_on_c, 14, 49, 0
16, 143400, Note_on_c, 14, 50, 76
16, 143459, Note_on_c, 14, 50, 0
16, 143460, Note_on_c, 14, 52, 76
16, 143511, Note_on_c, 14, 52, 0
16, 143520, Note_on_c, 14, 53, 76
16, 143699, Note_on_c, 14, 53, 0
16, 143760, Note_on_c, 14, 53, 76
16, 143939, Note_on_c, 14, 53, 0
16, 144000, Note_on_c, 14, 50, 76
16, 144179, Note_on_c, 14, 50, 0
16, 144240, Note_on_c, 14, 50, 76
16, 144419, Note_on_c, 14, 50, 0
16, 144480, Note_on_c, 14, 46, 84
16, 145184, Note_on_c, 14, 46, 0
16, 145200, Note_on_c, 14, 46, 76
16, 145259, Note_on_c, 14, 46, 0
16, 145260, Note_on_c, 14, 45, 76
16, 145319, Note_on_c, 14, 45, 0
16, 145320, Note_on_c, 14, 46, 76
16, 145379, Note_on_c, 14, 46, 0
16, 145380, Note_on_c, 14, 48, 76
16, 145431, Note_on_c, 14, 48, 0
16, 145440, Note_on_c, 14, 50, 76
16, 145619, Note_on_c, 14, 50, 0
16, 145680, Note_on_c, 14, 50, 76
16, 145859, Note_on_c, 14, 50, 0
16, 145920, Note_on_c, 14, 46, 76
16, 146099, Note_on_c, 14, 46, 0
16, 146160, Note_on_c, 14, 46, 76
16, 146339, Note_on_c, 14, 46, 0
16, 146400, Note_on_c, 14, 44, 84
16, 146489, Note_on_c, 14, 44, 0
16, 146520, Note_on_c, 14, 52, 84
16, 146609, Note_on_c, 14, 52, 0
16, 146640, Note_on_c, 14, 56, 84
16, 146729, Note_on_c, 14, 56, 0
16, 146760, Note_on_c, 14, 52, 84
16, 146849, Note_on_c, 14, 52, 0
16, 146880, Note_on_c, 14, 56, 84
16, 146969, Note_on_c, 14, 56, 0
16, 147000, Note_on_c, 14, 52, 84
16, 147089, Note_on_c, 14, 52, 0
16, 147120, Note_on_c, 14, 56, 84
16, 147209, Note_on_c, 14, 56, 0
16, 147240, Note_on_c, 14, 52, 84
16, 147329, Note_on_c, 14, 52, 0
16, 147360, Note_on_c, 14, 57, 84
16, 147449, Note_on_c, 14, 57, 0
16, 147480, Note_on_c, 14, 52, 84
16, 147569, Note_on_c, 14, 52, 0
16, 147600, Note_on_c, 14, 57, 84
16, 147689, Note_on_c, 14, 57, 0
16, 147720, Note_on_c, 14, 52, 84
16, 147809, Note_on_c, 14, 52, 0
16, 147840, Note_on_c, 14, 60, 84
16, 147929, Note_on_c, 14, 60, 0
16, 147960, Note_on_c, 14, 52, 84
16, 148049, Note_on_c, 14, 52, 0
16, 148080, Note_on_c, 14, 60, 84
16, 148169, Note_on_c, 14, 60, 0
16, 148200, Note_on_c, 14, 52, 84
16, 148289, Note_on_c, 14, 52, 0
16, 148320, Note_on_c, 14, 59, 84
16, 148409, Note_on_c, 14, 59, 0
16, 148440, Note_on_c, 14, 52, 84
16, 148529, Note_on_c, 14, 52, 0
16, 148560, Note_on_c, 14, 59, 84
16, 148649, Note_on_c, 14, 59, 0
16, 148680, Note_on_c, 14, 52, 84
16, 148769, Note_on_c, 14, 52, 0
16, 148800, Note_on_c, 14, 62, 84
16, 148889, Note_on_c, 14, 62, 0
16, 148920, Note_on_c, 14, 52, 84
16, 149009, Note_on_c, 14, 52, 0
16, 149040, Note_on_c, 14, 62, 84
16, 149129, Note_on_c, 14, 62, 0
16, 149160, Note_on_c, 14, 52, 84
16, 149249, Note_on_c, 14, 52, 0
16, 149280, Note_on_c, 14, 60, 84
16, 149369, Note_on_c, 14, 60, 0
16, 149400, Note_on_c, 14, 52, 84
16, 149489, Note_on_c, 14, 52, 0
16, 149520, Note_on_c, 14, 60, 84
16, 149609, Note_on_c, 14, 60, 0
16, 149640, Note_on_c, 14, 52, 84
16, 149729, Note_on_c, 14, 52, 0
16, 149760, Note_on_c, 14, 57, 84
16, 149849, Note_on_c, 14, 57, 0
16, 149880, Note_on_c, 14, 52, 84
16, 149969, Note_on_c, 14, 52, 0
16, 150000, Note_on_c, 14, 57, 84
16, 150089, Note_on_c, 14, 57, 0
16, 150120, Note_on_c, 14, 52, 84
16, 150209, Note_on_c, 14, 52, 0
16, 150240, Note_on_c, 14, 56, 84
16, 150329, Note_on_c, 14, 56, 0
16, 150360, Note_on_c, 14, 52, 84
16, 150449, Note_on_c, 14, 52, 0
16, 150480, Note_on_c, 14, 56, 84
16, 150569, Note_on_c, 14, 56, 0
16, 150600, Note_on_c, 14, 52, 84
16, 150689, Note_on_c, 14, 52, 0
16, 150720, Note_on_c, 14, 56, 84
16, 150809, Note_on_c, 14, 56, 0
16, 150840, Note_on_c, 14, 52, 84
16, 150929, Note_on_c, 14, 52, 0
16, 150960, Note_on_c, 14, 56, 84
16, 151049, Note_on_c, 14, 56, 0
16, 151080, Note_on_c, 14, 52, 84
16, 151169, Note_on_c, 14, 52, 0
16, 151200, Note_on_c, 14, 57, 84
16, 151289, Note_on_c, 14, 57, 0
16, 151320, Note_on_c, 14, 52, 84
16, 151409, Note_on_c, 14, 52, 0
16, 151440, Note_on_c, 14, 57, 84
16, 151529, Note_on_c, 14, 57, 0
16, 151560, Note_on_c, 14, 52, 84
16, 151649, Note_on_c, 14, 52, 0
16, 151680, Note_on_c, 14, 60, 84
16, 151769, Note_on_c, 14, 60, 0
16, 151800, Note_on_c, 14, 52, 84
16, 151889, Note_on_c, 14, 52, 0
16, 151920, Note_on_c, 14, 60, 84
16, 152009, Note_on_c, 14, 60, 0
16, 152040, Note_on_c, 14, 52, 84
16, 152129, Note_on_c, 14, 52, 0
16, 152160, Note_on_c, 14, 59, 84
16, 152264, Note_on_c, 14, 59, 0
16, 152280, Note_on_c, 14, 52, 84
16, 152384, Note_on_c, 14, 52, 0
16, 152400, Note_on_c, 14, 64, 92
16, 152984, Note_on_c, 14, 64, 0
16, 153000, Note_on_c, 14, 62, 84
16, 153104, Note_on_c, 14, 62, 0
16, 153120, Note_on_c, 14, 60, 84
16, 153224, Note_on_c, 14, 60, 0
16, 153240, Note_on_c, 14, 62, 84
16, 153344, Note_on_c, 14, 62, 0
16, 153360, Note_on_c, 14, 60, 84
16, 153464, Note_on_c, 14, 60, 0
16, 153480, Note_on_c, 14, 59, 84
16, 153584, Note_on_c, 14, 59, 0
16, 153600, Note_on_c, 14, 57, 84
16, 153704, Note_on_c, 14, 57, 0
16, 153720, Note_on_c, 14, 55, 84
16, 153824, Note_on_c, 14, 55, 0
16, 153840, Note_on_c, 14, 54, 84
16, 153944, Note_on_c, 14, 54, 0
16, 153960, Note_on_c, 14, 53, 84
16, 154064, Note_on_c, 14, 53, 0
16, 154080, Note_on_c, 14, 52, 92
16, 154439, Note_on_c, 14, 52, 0
16, 154440, Note_on_c, 14, 53, 84
16, 154544, Note_on_c, 14, 53, 0
16, 154560, Note_on_c, 14, 52, 92
16, 154919, Note_on_c, 14, 52, 0
16, 154920, Note_on_c, 14, 53, 84
16, 155024, Note_on_c, 14, 53, 0
16, 155040, Note_on_c, 14, 52, 84
16, 155129, Note_on_c, 14, 52, 0
16, 155160, Note_on_c, 14, 53, 84
16, 155249, Note_on_c, 14, 53, 0
16, 155280, Note_on_c, 14, 52, 84
16, 155369, Note_on_c, 14, 52, 0
16, 155400, Note_on_c, 14, 53, 84
16, 155489, Note_on_c, 14, 53, 0
16, 155520, Note_on_c, 14, 52, 84
16, 155609, Note_on_c, 14, 52, 0
16, 155640, Note_on_c, 14, 53, 84
16, 155729, Note_on_c, 14, 53, 0
16, 155760, Note_on_c, 14, 52, 84
16, 155849, Note_on_c, 14, 52, 0
16, 155880, Note_on_c, 14, 53, 84
16, 155969, Note_on_c, 14, 53, 0
16, 156000, Note_on_c, 14, 52, 92
16, 156704, Note_on_c, 14, 52, 0
16, 156720, Note_on_c, 14, 51, 84
16, 156899, Note_on_c, 14, 51, 0
16, 156960, Note_on_c, 14, 50, 84
16, 157139, Note_on_c, 14, 50, 0
16, 157200, Note_on_c, 14, 49, 84
16, 157379, Note_on_c, 14, 49, 0
16, 157440, Note_on_c, 14, 47, 84
16, 157619, Note_on_c, 14, 47, 0
16, 157680, Note_on_c, 14, 52, 84
16, 157859, Note_on_c, 14, 52, 0
16, 157920, Note_on_c, 14, 45, 52
16, 158024, Note_on_c, 14, 45, 0
16, 158040, Note_on_c, 14, 57, 52
16, 158144, Note_on_c, 14, 57, 0
16, 158160, Note_on_c, 14, 57, 52
16, 158264, Note_on_c, 14, 57, 0
16, 158280, Note_on_c, 14, 57, 52
16, 158384, Note_on_c, 14, 57, 0
16, 158400, Note_on_c, 14, 45, 52
16, 158504, Note_on_c, 14, 45, 0
16, 158520, Note_on_c, 14, 57, 52
16, 158624, Note_on_c, 14, 57, 0
16, 158640, Note_on_c, 14, 57, 52
16, 158744, Note_on_c, 14, 57, 0
16, 158760, Note_on_c, 14, 57, 52
16, 158864, Note_on_c, 14, 57, 0
16, 158880, Note_on_c, 14, 45, 52
16, 158984, Note_on_c, 14, 45, 0
16, 159000, Note_on_c, 14, 57, 52
16, 159104, Note_on_c, 14, 57, 0
16, 159120, Note_on_c, 14, 57, 52
16, 159224, Note_on_c, 14, 57, 0
16, 159240, Note_on_c, 14, 57, 52
16, 159344, Note_on_c, 14, 57, 0
16, 159360, Note_on_c, 14, 57, 52
16, 159464, Note_on_c, 14, 57, 0
16, 159480, Note_on_c, 14, 57, 52
16, 159584, Note_on_c, 14, 57, 0
16, 159600, Note_on_c, 14, 57, 52
16, 159704, Note_on_c, 14, 57, 0
16, 159720, Note_on_c, 14, 57, 52
16, 159824, Note_on_c, 14, 57, 0
16, 159840, Note_on_c, 14, 57, 52
16, 159944, Note_on_c, 14, 57, 0
16, 159960, Note_on_c, 14, 57, 52
16, 160064, Note_on_c, 14, 57, 0
16, 160080, Note_on_c, 14, 57, 52
16, 160184, Note_on_c, 14, 57, 0
16, 160200, Note_on_c, 14, 57, 52
16, 160304, Note_on_c, 14, 57, 0
16, 160320, Note_on_c, 14, 57, 52
16, 160424, Note_on_c, 14, 57, 0
16, 160440, Note_on_c, 14, 57, 52
16, 160544, Note_on_c, 14, 57, 0
16, 160560, Note_on_c, 14, 57, 52
16, 160664, Note_on_c, 14, 57, 0
16, 160680, Note_on_c, 14, 57, 52
16, 160784, Note_on_c, 14, 57, 0
16, 160800, Note_on_c, 14, 57, 52
16, 160904, Note_on_c, 14, 57, 0
16, 160920, Note_on_c, 14, 57, 52
16, 161024, Note_on_c, 14, 57, 0
16, 161040, Note_on_c, 14, 57, 52
16, 161144, Note_on_c, 14, 57, 0
16, 161160, Note_on_c, 14, 57, 52
16, 161264, Note_on_c, 14, 57, 0
16, 161280, Note_on_c, 14, 57, 52
16, 161384, Note_on_c, 14, 57, 0
16, 161400, Note_on_c, 14, 57, 52
16, 161504, Note_on_c, 14, 57, 0
16, 161520, Note_on_c, 14, 57, 52
16, 161624, Note_on_c, 14, 57, 0
16, 161640, Note_on_c, 14, 57, 52
16, 161744, Note_on_c, 14, 57, 0
16, 161760, Note_on_c, 14, 42, 84
16, 161864, Note_on_c, 14, 42, 0
16, 161880, Note_on_c, 14, 54, 84
16, 161984, Note_on_c, 14, 54, 0
16, 162000, Note_on_c, 14, 49, 84
16, 162104, Note_on_c, 14, 49, 0
16, 162120, Note_on_c, 14, 45, 84
16, 162224, Note_on_c, 14, 45, 0
16, 162240, Note_on_c, 14, 42, 84
16, 162344, Note_on_c, 14, 42, 0
16, 162360, Note_on_c, 14, 54, 84
16, 162464, Note_on_c, 14, 54, 0
16, 162480, Note_on_c, 14, 49, 84
16, 162584, Note_on_c, 14, 49, 0
16, 162600, Note_on_c, 14, 45, 84
16, 162704, Note_on_c, 14, 45, 0
16, 162720, Note_on_c, 14, 42, 84
16, 162824, Note_on_c, 14, 42, 0
16, 162840, Note_on_c, 14, 54, 84
16, 162944, Note_on_c, 14, 54, 0
16, 162960, Note_on_c, 14, 49, 84
16, 163064, Note_on_c, 14, 49, 0
16, 163080, Note_on_c, 14, 45, 84
16, 163184, Note_on_c, 14, 45, 0
16, 163200, Note_on_c, 14, 42, 84
16, 163304, Note_on_c, 14, 42, 0
16, 163320, Note_on_c, 14, 54, 84
16, 163424, Note_on_c, 14, 54, 0
16, 163440, Note_on_c, 14, 56, 84
16, 163544, Note_on_c, 14, 56, 0
16, 163560, Note_on_c, 14, 57, 84
16, 163664, Note_on_c, 14, 57, 0
16, 163680, Note_on_c, 14, 47, 92
16, 163784, Note_on_c, 14, 47, 0
16, 163800, Note_on_c, 14, 59, 84
16, 163904, Note_on_c, 14, 59, 0
16, 163920, Note_on_c, 14, 59, 84
16, 164024, Note_on_c, 14, 59, 0
16, 164040, Note_on_c, 14, 59, 84
16, 164144, Note_on_c, 14, 59, 0
16, 164160, Note_on_c, 14, 47, 92
16, 164264, Note_on_c, 14, 47, 0
16, 164280, Note_on_c, 14, 59, 84
16, 164384, Note_on_c, 14, 59, 0
16, 164400, Note_on_c, 14, 59, 84
16, 164504, Note_on_c, 14, 59, 0
16, 164520, Note_on_c, 14, 59, 84
16, 164624, Note_on_c, 14, 59, 0
16, 164640, Note_on_c, 14, 52, 84
16, 164879, Note_on_c, 14, 52, 0
16, 165600, Note_on_c, 14, 45, 52
16, 165704, Note_on_c, 14, 45, 0
16, 165720, Note_on_c, 14, 57, 52
16, 165824, Note_on_c, 14, 57, 0
16, 165840, Note_on_c, 14, 57, 52
16, 165944, Note_on_c, 14, 57, 0
16, 165960, Note_on_c, 14, 57, 52
16, 166064, Note_on_c, 14, 57, 0
16, 166080, Note_on_c, 14, 45, 52
16, 166184, Note_on_c, 14, 45, 0
16, 166200, Note_on_c, 14, 57, 52
16, 166304, Note_on_c, 14, 57, 0
16, 166320, Note_on_c, 14, 57, 52
16, 166424, Note_on_c, 14, 57, 0
16, 166440, Note_on_c, 14, 57, 52
16, 166544, Note_on_c, 14, 57, 0
16, 166560, Note_on_c, 14, 45, 52
16, 166664, Note_on_c, 14, 45, 0
16, 166680, Note_on_c, 14, 57, 52
16, 166784, Note_on_c, 14, 57, 0
16, 166800, Note_on_c, 14, 57, 52
16, 166904, Note_on_c, 14, 57, 0
16, 166920, Note_on_c, 14, 57, 52
16, 167024, Note_on_c, 14, 57, 0
16, 167040, Note_on_c, 14, 57, 52
16, 167144, Note_on_c, 14, 57, 0
16, 167160, Note_on_c, 14, 57, 52
16, 167264, Note_on_c, 14, 57, 0
16, 167280, Note_on_c, 14, 57, 52
16, 167384, Note_on_c, 14, 57, 0
16, 167400, Note_on_c, 14, 57, 52
16, 167504, Note_on_c, 14, 57, 0
16, 167520, Note_on_c, 14, 57, 52
16, 167624, Note_on_c, 14, 57, 0
16, 167640, Note_on_c, 14, 57, 52
16, 167744, Note_on_c, 14, 57, 0
16, 167760, Note_on_c, 14, 57, 52
16, 167864, Note_on_c, 14, 57, 0
16, 167880, Note_on_c, 14, 57, 52
16, 167984, Note_on_c, 14, 57, 0
16, 168000, Note_on_c, 14, 57, 52
16, 168104, Note_on_c, 14, 57, 0
16, 168120, Note_on_c, 14, 57, 52
16, 168224, Note_on_c, 14, 57, 0
16, 168240, Note_on_c, 14, 57, 52
16, 168344, Note_on_c, 14, 57, 0
16, 168360, Note_on_c, 14, 57, 52
16, 168464, Note_on_c, 14, 57, 0
16, 168480, Note_on_c, 14, 57, 52
16, 168584, Note_on_c, 14, 57, 0
16, 168600, Note_on_c, 14, 57, 52
16, 168704, Note_on_c, 14, 57, 0
16, 168720, Note_on_c, 14, 57, 52
16, 168824, Note_on_c, 14, 57, 0
16, 168840, Note_on_c, 14, 57, 52
16, 168944, Note_on_c, 14, 57, 0
16, 168960, Note_on_c, 14, 57, 52
16, 169079, Note_on_c, 14, 57, 0
16, 169440, Note_on_c, 14, 42, 84
16, 169544, Note_on_c, 14, 42, 0
16, 169560, Note_on_c, 14, 54, 84
16, 169664, Note_on_c, 14, 54, 0
16, 169680, Note_on_c, 14, 49, 84
16, 169784, Note_on_c, 14, 49, 0
16, 169800, Note_on_c, 14, 45, 84
16, 169904, Note_on_c, 14, 45, 0
16, 169920, Note_on_c, 14, 42, 84
16, 170024, Note_on_c, 14, 42, 0
16, 170040, Note_on_c, 14, 54, 84
16, 170144, Note_on_c, 14, 54, 0
16, 170160, Note_on_c, 14, 49, 84
16, 170264, Note_on_c, 14, 49, 0
16, 170280, Note_on_c, 14, 45, 84
16, 170384, Note_on_c, 14, 45, 0
16, 170400, Note_on_c, 14, 42, 84
16, 170504, Note_on_c, 14, 42, 0
16, 170520, Note_on_c, 14, 54, 84
16, 170624, Note_on_c, 14, 54, 0
16, 170640, Note_on_c, 14, 49, 84
16, 170744, Note_on_c, 14, 49, 0
16, 170760, Note_on_c, 14, 45, 84
16, 170864, Note_on_c, 14, 45, 0
16, 170880, Note_on_c, 14, 42, 84
16, 170984, Note_on_c, 14, 42, 0
16, 171000, Note_on_c, 14, 54, 84
16, 171104, Note_on_c, 14, 54, 0
16, 171120, Note_on_c, 14, 56, 84
16, 171224, Note_on_c, 14, 56, 0
16, 171240, Note_on_c, 14, 57, 84
16, 171344, Note_on_c, 14, 57, 0
16, 171360, Note_on_c, 14, 47, 92
16, 171464, Note_on_c, 14, 47, 0
16, 171480, Note_on_c, 14, 59, 84
16, 171584, Note_on_c, 14, 59, 0
16, 171600, Note_on_c, 14, 59, 84
16, 171704, Note_on_c, 14, 59, 0
16, 171720, Note_on_c, 14, 59, 84
16, 171824, Note_on_c, 14, 59, 0
16, 171840, Note_on_c, 14, 47, 92
16, 171944, Note_on_c, 14, 47, 0
16, 171960, Note_on_c, 14, 59, 84
16, 172064, Note_on_c, 14, 59, 0
16, 172080, Note_on_c, 14, 59, 84
16, 172184, Note_on_c, 14, 59, 0
16, 172200, Note_on_c, 14, 59, 84
16, 172304, Note_on_c, 14, 59, 0
16, 172320, Note_on_c, 14, 52, 92
16, 172904, Note_on_c, 14, 52, 0
16, 172920, Note_on_c, 14, 52, 84
16, 173039, Note_on_c, 14, 52, 0
16, 173040, Note_on_c, 14, 50, 84
16, 173159, Note_on_c, 14, 50, 0
16, 173160, Note_on_c, 14, 49, 84
16, 173264, Note_on_c, 14, 49, 0
16, 173280, Note_on_c, 14, 50, 92
16, 173864, Note_on_c, 14, 50, 0
16, 173880, Note_on_c, 14, 50, 84
16, 173999, Note_on_c, 14, 50, 0
16, 174000, Note_on_c, 14, 49, 84
16, 174119, Note_on_c, 14, 49, 0
16, 174120, Note_on_c, 14, 48, 84
16, 174224, Note_on_c, 14, 48, 0
16, 174240, Note_on_c, 14, 49, 92
16, 174824, Note_on_c, 14, 49, 0
16, 174840, Note_on_c, 14, 49, 84
16, 174959, Note_on_c, 14, 49, 0
16, 174960, Note_on_c, 14, 47, 84
16, 175079, Note_on_c, 14, 47, 0
16, 175080, Note_on_c, 14, 46, 84
16, 175184, Note_on_c, 14, 46, 0
16, 175200, Note_on_c, 14, 47, 92
16, 175784, Note_on_c, 14, 47, 0
16, 175800, Note_on_c, 14, 47, 84
16, 175919, Note_on_c, 14, 47, 0
16, 175920, Note_on_c, 14, 45, 84
16, 176039, Note_on_c, 14, 45, 0
16, 176040, Note_on_c, 14, 44, 84
16, 176144, Note_on_c, 14, 44, 0
16, 176160, Note_on_c, 14, 45, 92
16, 176249, Note_on_c, 14, 45, 0
16, 176280, Note_on_c, 14, 52, 84
16, 176399, Note_on_c, 14, 52, 0
16, 176400, Note_on_c, 14, 50, 84
16, 176519, Note_on_c, 14, 50, 0
16, 176520, Note_on_c, 14, 49, 84
16, 176624, Note_on_c, 14, 49, 0
16, 176640, Note_on_c, 14, 50, 92
16, 176729, Note_on_c, 14, 50, 0
16, 176760, Note_on_c, 14, 50, 84
16, 176879, Note_on_c, 14, 50, 0
16, 176880, Note_on_c, 14, 49, 84
16, 176999, Note_on_c, 14, 49, 0
16, 177000, Note_on_c, 14, 48, 84
16, 177104, Note_on_c, 14, 48, 0
16, 177120, Note_on_c, 14, 49, 92
16, 177209, Note_on_c, 14, 49, 0
16, 177240, Note_on_c, 14, 49, 84
16, 177359, Note_on_c, 14, 49, 0
16, 177360, Note_on_c, 14, 47, 84
16, 177479, Note_on_c, 14, 47, 0
16, 177480, Note_on_c, 14, 46, 84
16, 177584, Note_on_c, 14, 46, 0
16, 177600, Note_on_c, 14, 47, 92
16, 177689, Note_on_c, 14, 47, 0
16, 177720, Note_on_c, 14, 59, 84
16, 177839, Note_on_c, 14, 59, 0
16, 177840, Note_on_c, 14, 57, 84
16, 177959, Note_on_c, 14, 57, 0
16, 177960, Note_on_c, 14, 56, 84
16, 178064, Note_on_c, 14, 56, 0
16, 178080, Note_on_c, 14, 57, 92
16, 178169, Note_on_c, 14, 57, 0
16, 178200, Note_on_c, 14, 57, 84
16, 178319, Note_on_c, 14, 57, 0
16, 178320, Note_on_c, 14, 56, 84
16, 178439, Note_on_c, 14, 56, 0
16, 178440, Note_on_c, 14, 54, 84
16, 178544, Note_on_c, 14, 54, 0
16, 178560, Note_on_c, 14, 56, 92
16, 178649, Note_on_c, 14, 56, 0
16, 178680, Note_on_c, 14, 56, 84
16, 178799, Note_on_c, 14, 56, 0
16, 178800, Note_on_c, 14, 54, 84
16, 178919, Note_on_c, 14, 54, 0
16, 178920, Note_on_c, 14, 53, 84
16, 179024, Note_on_c, 14, 53, 0
16, 179040, Note_on_c, 14, 54, 92
16, 179129, Note_on_c, 14, 54, 0
16, 179160, Note_on_c, 14, 54, 84
16, 179279, Note_on_c, 14, 54, 0
16, 179280, Note_on_c, 14, 52, 84
16, 179399, Note_on_c, 14, 52, 0
16, 179400, Note_on_c, 14, 50, 84
16, 179504, Note_on_c, 14, 50, 0
16, 179520, Note_on_c, 14, 52, 92
16, 179609, Note_on_c, 14, 52, 0
16, 179640, Note_on_c, 14, 52, 84
16, 179759, Note_on_c, 14, 52, 0
16, 179760, Note_on_c, 14, 50, 84
16, 179879, Note_on_c, 14, 50, 0
16, 179880, Note_on_c, 14, 49, 84
16, 179984, Note_on_c, 14, 49, 0
16, 180000, Note_on_c, 14, 50, 84
16, 180179, Note_on_c, 14, 50, 0
16, 180960, Note_on_c, 14, 59, 84
16, 181139, Note_on_c, 14, 59, 0
16, 181920, Note_on_c, 14, 56, 84
16, 182099, Note_on_c, 14, 56, 0
16, 182400, Note_on_c, 14, 57, 84
16, 182579, Note_on_c, 14, 57, 0
16, 182880, Note_on_c, 14, 50, 84
16, 183059, Note_on_c, 14, 50, 0
16, 183360, Note_on_c, 14, 52, 84
16, 183539, Note_on_c, 14, 52, 0
16, 183840, Note_on_c, 14, 54, 84
16, 184079, Note_on_c, 14, 54, 0
16, 184800, Note_on_c, 14, 56, 84
16, 185039, Note_on_c, 14, 56, 0
16, 186240, Control_c, 14, 11, 80
16, 186480, Note_on_c, 14, 47, 68
16, 186539, Note_on_c, 14, 47, 0
16, 186540, Note_on_c, 14, 46, 68
16, 186599, Note_on_c, 14, 46, 0
16, 186600, Note_on_c, 14, 47, 68
16, 186659, Note_on_c, 14, 47, 0
16, 186660, Note_on_c, 14, 48, 68
16, 186711, Note_on_c, 14, 48, 0
16, 186720, Note_on_c, 14, 50, 68
16, 186899, Note_on_c, 14, 50, 0
16, 187440, Note_on_c, 14, 48, 68
16, 187499, Note_on_c, 14, 48, 0
16, 187500, Note_on_c, 14, 47, 68
16, 187559, Note_on_c, 14, 47, 0
16, 187560, Note_on_c, 14, 48, 68
16, 187619, Note_on_c, 14, 48, 0
16, 187620, Note_on_c, 14, 50, 68
16, 187671, Note_on_c, 14, 50, 0
16, 187680, Note_on_c, 14, 52, 68
16, 187859, Note_on_c, 14, 52, 0
16, 188400, Note_on_c, 14, 50, 68
16, 188459, Note_on_c, 14, 50, 0
16, 188460, Note_on_c, 14, 49, 68
16, 188519, Note_on_c, 14, 49, 0
16, 188520, Note_on_c, 14, 50, 68
16, 188579, Note_on_c, 14, 50, 0
16, 188580, Note_on_c, 14, 52, 68
16, 188631, Note_on_c, 14, 52, 0
16, 188640, Note_on_c, 14, 53, 68
16, 188640, Control_c, 14, 11, 80
16, 188760, Control_c, 14, 11, 82
16, 188819, Note_on_c, 14, 53, 0
16, 188880, Note_on_c, 14, 52, 68
16, 188880, Control_c, 14, 11, 84
16, 188939, Note_on_c, 14, 52, 0
16, 188940, Note_on_c, 14, 50, 68
16, 188999, Note_on_c, 14, 50, 0
16, 189000, Note_on_c, 14, 52, 68
16, 189000, Control_c, 14, 11, 86
16, 189059, Note_on_c, 14, 52, 0
16, 189060, Note_on_c, 14, 53, 68
16, 189111, Note_on_c, 14, 53, 0
16, 189120, Control_c, 14, 11, 88
16, 189120, Note_on_c, 14, 55, 68
16, 189240, Control_c, 14, 11, 90
16, 189299, Note_on_c, 14, 55, 0
16, 189360, Note_on_c, 14, 53, 68
16, 189360, Control_c, 14, 11, 92
16, 189419, Note_on_c, 14, 53, 0
16, 189420, Note_on_c, 14, 52, 68
16, 189479, Note_on_c, 14, 52, 0
16, 189480, Control_c, 14, 11, 94
16, 189480, Note_on_c, 14, 53, 68
16, 189539, Note_on_c, 14, 53, 0
16, 189540, Note_on_c, 14, 55, 68
16, 189591, Note_on_c, 14, 55, 0
16, 189600, Control_c, 14, 11, 96
16, 189600, Note_on_c, 14, 57, 68
16, 189720, Control_c, 14, 11, 98
16, 189779, Note_on_c, 14, 57, 0
16, 189840, Note_on_c, 14, 56, 68
16, 189840, Control_c, 14, 11, 100
16, 189899, Note_on_c, 14, 56, 0
16, 189900, Note_on_c, 14, 54, 68
16, 189959, Note_on_c, 14, 54, 0
16, 189960, Note_on_c, 14, 56, 68
16, 189960, Control_c, 14, 11, 102
16, 190019, Note_on_c, 14, 56, 0
16, 190020, Note_on_c, 14, 57, 68
16, 190071, Note_on_c, 14, 57, 0
16, 190080, Control_c, 14, 11, 104
16, 190080, Note_on_c, 14, 59, 68
16, 190200, Control_c, 14, 11, 105
16, 190259, Note_on_c, 14, 59, 0
16, 190320, Control_c, 14, 11, 107
16, 190320, Note_on_c, 14, 57, 68
16, 190379, Note_on_c, 14, 57, 0
16, 190380, Note_on_c, 14, 56, 68
16, 190439, Note_on_c, 14, 56, 0
16, 190440, Control_c, 14, 11, 109
16, 190440, Note_on_c, 14, 57, 68
16, 190499, Note_on_c, 14, 57, 0
16, 190500, Note_on_c, 14, 59, 68
16, 190551, Note_on_c, 14, 59, 0
16, 190560, Note_on_c, 14, 60, 68
16, 190560, Control_c, 14, 11, 111
16, 190680, Control_c, 14, 11, 113
16, 190739, Note_on_c, 14, 60, 0
16, 190800, Control_c, 14, 11, 115
16, 190800, Note_on_c, 14, 57, 68
16, 190859, Note_on_c, 14, 57, 0
16, 190860, Note_on_c, 14, 56, 68
16, 190919, Note_on_c, 14, 56, 0
16, 190920, Note_on_c, 14, 57, 68
16, 190920, Control_c, 14, 11, 117
16, 190979, Note_on_c, 14, 57, 0
16, 190980, Note_on_c, 14, 59, 68
16, 191031, Note_on_c, 14, 59, 0
16, 191040, Note_on_c, 14, 60, 68
16, 191040, Control_c, 14, 11, 119
16, 191160, Control_c, 14, 11, 121
16, 191219, Note_on_c, 14, 60, 0
16, 191280, Control_c, 14, 11, 123
16, 191280, Note_on_c, 14, 57, 68
16, 191339, Note_on_c, 14, 57, 0
16, 191340, Note_on_c, 14, 56, 68
16, 191399, Note_on_c, 14, 56, 0
16, 191400, Control_c, 14, 11, 125
16, 191400, Note_on_c, 14, 57, 68
16, 191459, Note_on_c, 14, 57, 0
16, 191460, Note_on_c, 14, 59, 68
16, 191511, Note_on_c, 14, 59, 0
16, 191520, Control_c, 14, 11, 127
16, 191520, Note_on_c, 14, 60, 76
16, 192464, Note_on_c, 14, 60, 0
16, 192480, Note_on_c, 14, 51, 76
16, 193424, Note_on_c, 14, 51, 0
16, 193440, Note_on_c, 14, 52, 84
16, 193544, Note_on_c, 14, 52, 0
16, 193560, Note_on_c, 14, 52, 84
16, 193664, Note_on_c, 14, 52, 0
16, 193680, Note_on_c, 14, 52, 84
16, 193784, Note_on_c, 14, 52, 0
16, 193800, Note_on_c, 14, 52, 84
16, 193904, Note_on_c, 14, 52, 0
16, 193920, Note_on_c, 14, 52, 84
16, 194024, Note_on_c, 14, 52, 0
16, 194040, Note_on_c, 14, 52, 84
16, 194144, Note_on_c, 14, 52, 0
16, 194160, Note_on_c, 14, 52, 84
16, 194264, Note_on_c, 14, 52, 0
16, 194280, Note_on_c, 14, 52, 84
16, 194384, Note_on_c, 14, 52, 0
16, 194400, Note_on_c, 14, 52, 84
16, 194504, Note_on_c, 14, 52, 0
16, 194520, Note_on_c, 14, 52, 84
16, 194624, Note_on_c, 14, 52, 0
16, 194640, Note_on_c, 14, 52, 84
16, 194744, Note_on_c, 14, 52, 0
16, 194760, Note_on_c, 14, 52, 84
16, 194864, Note_on_c, 14, 52, 0
16, 194880, Note_on_c, 14, 52, 84
16, 194984, Note_on_c, 14, 52, 0
16, 195000, Note_on_c, 14, 52, 84
16, 195104, Note_on_c, 14, 52, 0
16, 195120, Note_on_c, 14, 52, 84
16, 195224, Note_on_c, 14, 52, 0
16, 195240, Note_on_c, 14, 52, 84
16, 195344, Note_on_c, 14, 52, 0
16, 195360, Note_on_c, 14, 45, 84
16, 195599, Note_on_c, 14, 45, 0
16, 197280, Note_on_c, 14, 62, 84
16, 197984, Note_on_c, 14, 62, 0
16, 198000, Note_on_c, 14, 62, 84
16, 198179, Note_on_c, 14, 62, 0
16, 198240, Note_on_c, 14, 57, 84
16, 198419, Note_on_c, 14, 57, 0
16, 198480, Note_on_c, 14, 53, 84
16, 198659, Note_on_c, 14, 53, 0
16, 198720, Note_on_c, 14, 52, 84
16, 198899, Note_on_c, 14, 52, 0
16, 198960, Note_on_c, 14, 50, 84
16, 199139, Note_on_c, 14, 50, 0
16, 199200, Note_on_c, 14, 45, 84
16, 199439, Note_on_c, 14, 45, 0
16, 201120, Note_on_c, 14, 62, 84
16, 201824, Note_on_c, 14, 62, 0
16, 201840, Note_on_c, 14, 62, 84
16, 202019, Note_on_c, 14, 62, 0
16, 202080, Note_on_c, 14, 57, 84
16, 202259, Note_on_c, 14, 57, 0
16, 202320, Note_on_c, 14, 53, 84
16, 202499, Note_on_c, 14, 53, 0
16, 202560, Note_on_c, 14, 52, 84
16, 202739, Note_on_c, 14, 52, 0
16, 202800, Note_on_c, 14, 50, 84
16, 202979, Note_on_c, 14, 50, 0
16, 203040, Note_on_c, 14, 45, 52
16, 203219, Note_on_c, 14, 45, 0
16, 203280, Note_on_c, 14, 53, 52
16, 203519, Note_on_c, 14, 53, 0
16, 203520, Note_on_c, 14, 52, 52
16, 203759, Note_on_c, 14, 52, 0
16, 203760, Note_on_c, 14, 50, 76
16, 203984, Note_on_c, 14, 50, 0
16, 204000, Note_on_c, 14, 45, 52
16, 204179, Note_on_c, 14, 45, 0
16, 204240, Note_on_c, 14, 53, 52
16, 204479, Note_on_c, 14, 53, 0
16, 204480, Note_on_c, 14, 52, 52
16, 204719, Note_on_c, 14, 52, 0
16, 204720, Note_on_c, 14, 50, 76
16, 204944, Note_on_c, 14, 50, 0
16, 204960, Note_on_c, 14, 45, 52
16, 205139, Note_on_c, 14, 45, 0
16, 205200, Note_on_c, 14, 53, 52
16, 205439, Note_on_c, 14, 53, 0
16, 205440, Note_on_c, 14, 52, 52
16, 205679, Note_on_c, 14, 52, 0
16, 205680, Note_on_c, 14, 50, 76
16, 205904, Note_on_c, 14, 50, 0
16, 205920, Note_on_c, 14, 45, 52
16, 206099, Note_on_c, 14, 45, 0
16, 206160, Note_on_c, 14, 53, 52
16, 206399, Note_on_c, 14, 53, 0
16, 206400, Note_on_c, 14, 52, 52
16, 206639, Note_on_c, 14, 52, 0
16, 206640, Note_on_c, 14, 50, 76
16, 206864, Note_on_c, 14, 50, 0
16, 206880, Note_on_c, 14, 45, 52
16, 207089, Note_on_c, 14, 45, 0
16, 207120, Note_on_c, 14, 50, 76
16, 207329, Note_on_c, 14, 50, 0
16, 207360, Note_on_c, 14, 45, 52
16, 207569, Note_on_c, 14, 45, 0
16, 207600, Note_on_c, 14, 50, 76
16, 207809, Note_on_c, 14, 50, 0
16, 207840, Note_on_c, 14, 45, 52
16, 208049, Note_on_c, 14, 45, 0
16, 208080, Note_on_c, 14, 50, 76
16, 208289, Note_on_c, 14, 50, 0
16, 208320, Note_on_c, 14, 45, 52
16, 208529, Note_on_c, 14, 45, 0
16, 208560, Note_on_c, 14, 50, 76
16, 208769, Note_on_c, 14, 50, 0
16, 208800, Note_on_c, 14, 45, 84
16, 210704, Note_on_c, 14, 45, 0
16, 210720, Note_on_c, 14, 45, 84
16, 211304, Note_on_c, 14, 45, 0
16, 211320, Note_on_c, 14, 57, 84
16, 211424, Note_on_c, 14, 57, 0
16, 211440, Note_on_c, 14, 52, 84
16, 211544, Note_on_c, 14, 52, 0
16, 211560, Note_on_c, 14, 49, 84
16, 211664, Note_on_c, 14, 49, 0
16, 211680, Note_on_c, 14, 45, 84
16, 211784, Note_on_c, 14, 45, 0
16, 211800, Note_on_c, 14, 57, 84
16, 211904, Note_on_c, 14, 57, 0
16, 211920, Note_on_c, 14, 52, 84
16, 212024, Note_on_c, 14, 52, 0
16, 212040, Note_on_c, 14, 49, 84
16, 212144, Note_on_c, 14, 49, 0
16, 212160, Note_on_c, 14, 45, 84
16, 212264, Note_on_c, 14, 45, 0
16, 212280, Note_on_c, 14, 57, 84
16, 212384, Note_on_c, 14, 57, 0
16, 212400, Note_on_c, 14, 52, 84
16, 212504, Note_on_c, 14, 52, 0
16, 212520, Note_on_c, 14, 49, 84
16, 212624, Note_on_c, 14, 49, 0
16, 212640, Note_on_c, 14, 45, 84
16, 212879, Note_on_c, 14, 45, 0
16, 213600, Note_on_c, 14, 45, 76
16, 213839, Note_on_c, 14, 45, 0
16, 216240, Note_on_c, 14, 45, 52
16, 216299, Note_on_c, 14, 45, 0
16, 216300, Note_on_c, 14, 44, 52
16, 216359, Note_on_c, 14, 44, 0
16, 216360, Note_on_c, 14, 45, 52
16, 216419, Note_on_c, 14, 45, 0
16, 216420, Note_on_c, 14, 44, 52
16, 216471, Note_on_c, 14, 44, 0
16, 216480, Note_on_c, 14, 45, 76
16, 216719, Note_on_c, 14, 45, 0
16, 217440, Note_on_c, 14, 45, 76
16, 217679, Note_on_c, 14, 45, 0
16, 220200, Note_on_c, 14, 45, 52
16, 220239, Note_on_c, 14, 45, 0
16, 220240, Note_on_c, 14, 47, 52
16, 220279, Note_on_c, 14, 47, 0
16, 220280, Note_on_c, 14, 49, 52
16, 220311, Note_on_c, 14, 49, 0
16, 220320, Note_on_c, 14, 50, 52
16, 221024, Note_on_c, 14, 50, 0
16, 221040, Note_on_c, 14, 50, 52
16, 221099, Note_on_c, 14, 50, 0
16, 221100, Note_on_c, 14, 49, 52
16, 221159, Note_on_c, 14, 49, 0
16, 221160, Note_on_c, 14, 50, 52
16, 221219, Note_on_c, 14, 50, 0
16, 221220, Note_on_c, 14, 52, 52
16, 221271, Note_on_c, 14, 52, 0
16, 221280, Note_on_c, 14, 53, 52
16, 221984, Note_on_c, 14, 53, 0
16, 222000, Note_on_c, 14, 53, 52
16, 222059, Note_on_c, 14, 53, 0
16, 222060, Note_on_c, 14, 52, 52
16, 222119, Note_on_c, 14, 52, 0
16, 222120, Note_on_c, 14, 53, 52
16, 222179, Note_on_c, 14, 53, 0
16, 222180, Note_on_c, 14, 55, 52
16, 222231, Note_on_c, 14, 55, 0
16, 222240, Note_on_c, 14, 57, 52
16, 222419, Note_on_c, 14, 57, 0
16, 222480, Note_on_c, 14, 57, 52
16, 222659, Note_on_c, 14, 57, 0
16, 222720, Note_on_c, 14, 53, 52
16, 222899, Note_on_c, 14, 53, 0
16, 222960, Note_on_c, 14, 53, 52
16, 223139, Note_on_c, 14, 53, 0
16, 223200, Note_on_c, 14, 50, 52
16, 223439, Note_on_c, 14, 50, 0
16, 223920, Control_c, 14, 11, 80
16, 224160, Note_on_c, 14, 58, 76
16, 224339, Note_on_c, 14, 58, 0
16, 224400, Note_on_c, 14, 58, 76
16, 224480, Control_c, 14, 11, 84
16, 224579, Note_on_c, 14, 58, 0
16, 224640, Note_on_c, 14, 55, 76
16, 224800, Control_c, 14, 11, 88
16, 224819, Note_on_c, 14, 55, 0
16, 224880, Note_on_c, 14, 55, 76
16, 225059, Note_on_c, 14, 55, 0
16, 225120, Note_on_c, 14, 50, 76
16, 225120, Control_c, 14, 11, 92
16, 225359, Note_on_c, 14, 50, 0
16, 225440, Control_c, 14, 11, 96
16, 225760, Control_c, 14, 11, 100
16, 226080, Note_on_c, 14, 60, 76
16, 226080, Control_c, 14, 11, 104
16, 226259, Note_on_c, 14, 60, 0
16, 226320, Note_on_c, 14, 60, 76
16, 226400, Control_c, 14, 11, 107
16, 226499, Note_on_c, 14, 60, 0
16, 226560, Note_on_c, 14, 57, 76
16, 226720, Control_c, 14, 11, 111
16, 226739, Note_on_c, 14, 57, 0
16, 226800, Note_on_c, 14, 57, 76
16, 226979, Note_on_c, 14, 57, 0
16, 227040, Note_on_c, 14, 50, 76
16, 227040, Control_c, 14, 11, 115
16, 227279, Note_on_c, 14, 50, 0
16, 227360, Control_c, 14, 11, 119
16, 227680, Control_c, 14, 11, 123
16, 228000, Control_c, 14, 11, 127
16, 228000, Note_on_c, 14, 55, 76
16, 228704, Note_on_c, 14, 55, 0
16, 228720, Note_on_c, 14, 55, 76
16, 228779, Note_on_c, 14, 55, 0
16, 228780, Note_on_c, 14, 54, 76
16, 228839, Note_on_c, 14, 54, 0
16, 228840, Note_on_c, 14, 55, 76
16, 228899, Note_on_c, 14, 55, 0
16, 228900, Note_on_c, 14, 57, 76
16, 228951, Note_on_c, 14, 57, 0
16, 228960, Note_on_c, 14, 58, 76
16, 229139, Note_on_c, 14, 58, 0
16, 229200, Note_on_c, 14, 59, 76
16, 229379, Note_on_c, 14, 59, 0
16, 229440, Note_on_c, 14, 60, 76
16, 229619, Note_on_c, 14, 60, 0
16, 229680, Note_on_c, 14, 62, 76
16, 229859, Note_on_c, 14, 62, 0
16, 229920, Note_on_c, 14, 63, 84
16, 230039, Note_on_c, 14, 63, 0
16, 230040, Note_on_c, 14, 65, 76
16, 230144, Note_on_c, 14, 65, 0
16, 230160, Note_on_c, 14, 67, 76
16, 230249, Note_on_c, 14, 67, 0
16, 230280, Note_on_c, 14, 65, 76
16, 230369, Note_on_c, 14, 65, 0
16, 230400, Note_on_c, 14, 63, 76
16, 230489, Note_on_c, 14, 63, 0
16, 230520, Note_on_c, 14, 65, 76
16, 230609, Note_on_c, 14, 65, 0
16, 230640, Note_on_c, 14, 62, 76
16, 230729, Note_on_c, 14, 62, 0
16, 230760, Note_on_c, 14, 63, 76
16, 230849, Note_on_c, 14, 63, 0
16, 230880, Note_on_c, 14, 60, 76
16, 230969, Note_on_c, 14, 60, 0
16, 231000, Note_on_c, 14, 62, 76
16, 231089, Note_on_c, 14, 62, 0
16, 231120, Note_on_c, 14, 58, 76
16, 231209, Note_on_c, 14, 58, 0
16, 231240, Note_on_c, 14, 60, 76
16, 231329, Note_on_c, 14, 60, 0
16, 231360, Note_on_c, 14, 57, 76
16, 231449, Note_on_c, 14, 57, 0
16, 231480, Note_on_c, 14, 58, 76
16, 231569, Note_on_c, 14, 58, 0
16, 231600, Note_on_c, 14, 55, 76
16, 231689, Note_on_c, 14, 55, 0
16, 231720, Note_on_c, 14, 57, 76
16, 231809, Note_on_c, 14, 57, 0
16, 231840, Note_on_c, 14, 53, 84
16, 232544, Note_on_c, 14, 53, 0
16, 232560, Note_on_c, 14, 53, 76
16, 232619, Note_on_c, 14, 53, 0
16, 232620, Note_on_c, 14, 52, 76
16, 232679, Note_on_c, 14, 52, 0
16, 232680, Note_on_c, 14, 53, 76
16, 232739, Note_on_c, 14, 53, 0
16, 232740, Note_on_c, 14, 55, 76
16, 232791, Note_on_c, 14, 55, 0
16, 232800, Note_on_c, 14, 56, 76
16, 232979, Note_on_c, 14, 56, 0
16, 233040, Note_on_c, 14, 57, 76
16, 233219, Note_on_c, 14, 57, 0
16, 233280, Note_on_c, 14, 58, 76
16, 233459, Note_on_c, 14, 58, 0
16, 233520, Note_on_c, 14, 60, 76
16, 233699, Note_on_c, 14, 60, 0
16, 233760, Note_on_c, 14, 62, 84
16, 233879, Note_on_c, 14, 62, 0
16, 233880, Note_on_c, 14, 63, 76
16, 233984, Note_on_c, 14, 63, 0
16, 234000, Note_on_c, 14, 65, 76
16, 234089, Note_on_c, 14, 65, 0
16, 234120, Note_on_c, 14, 63, 76
16, 234209, Note_on_c, 14, 63, 0
16, 234240, Note_on_c, 14, 62, 76
16, 234329, Note_on_c, 14, 62, 0
16, 234360, Note_on_c, 14, 63, 76
16, 234449, Note_on_c, 14, 63, 0
16, 234480, Note_on_c, 14, 60, 76
16, 234569, Note_on_c, 14, 60, 0
16, 234600, Note_on_c, 14, 62, 76
16, 234689, Note_on_c, 14, 62, 0
16, 234720, Note_on_c, 14, 58, 76
16, 234809, Note_on_c, 14, 58, 0
16, 234840, Note_on_c, 14, 60, 76
16, 234929, Note_on_c, 14, 60, 0
16, 234960, Note_on_c, 14, 57, 76
16, 235049, Note_on_c, 14, 57, 0
16, 235080, Note_on_c, 14, 58, 76
16, 235169, Note_on_c, 14, 58, 0
16, 235200, Note_on_c, 14, 55, 76
16, 235289, Note_on_c, 14, 55, 0
16, 235320, Note_on_c, 14, 57, 76
16, 235409, Note_on_c, 14, 57, 0
16, 235440, Note_on_c, 14, 53, 76
16, 235529, Note_on_c, 14, 53, 0
16, 235560, Note_on_c, 14, 55, 76
16, 235649, Note_on_c, 14, 55, 0
16, 235680, Note_on_c, 14, 52, 76
16, 235859, Note_on_c, 14, 52, 0
16, 235920, Note_on_c, 14, 53, 76
16, 236099, Note_on_c, 14, 53, 0
16, 236160, Note_on_c, 14, 55, 76
16, 236339, Note_on_c, 14, 55, 0
16, 236400, Note_on_c, 14, 56, 76
16, 236579, Note_on_c, 14, 56, 0
16, 236640, Note_on_c, 14, 57, 84
16, 237584, Note_on_c, 14, 57, 0
16, 237600, Note_on_c, 14, 50, 76
16, 237779, Note_on_c, 14, 50, 0
16, 237840, Note_on_c, 14, 52, 76
16, 238019, Note_on_c, 14, 52, 0
16, 238080, Note_on_c, 14, 53, 76
16, 238259, Note_on_c, 14, 53, 0
16, 238320, Note_on_c, 14, 54, 76
16, 238499, Note_on_c, 14, 54, 0
16, 238560, Note_on_c, 14, 55, 84
16, 239504, Note_on_c, 14, 55, 0
16, 239520, Note_on_c, 14, 36, 84
16, 241424, Note_on_c, 14, 36, 0
16, 241440, Note_on_c, 14, 47, 92
16, 243344, Note_on_c, 14, 47, 0
16, 243360, Note_on_c, 14, 46, 92
16, 244304, Note_on_c, 14, 46, 0
16, 244320, Note_on_c, 14, 45, 92
16, 245264, Note_on_c, 14, 45, 0
16, 245280, Note_on_c, 14, 45, 92
16, 246224, Note_on_c, 14, 45, 0
16, 246240, Note_on_c, 14, 44, 92
16, 247184, Note_on_c, 14, 44, 0
16, 247200, Note_on_c, 14, 43, 84
16, 247379, Note_on_c, 14, 43, 0
16, 247440, Note_on_c, 14, 55, 84
16, 247499, Note_on_c, 14, 55, 0
16, 247500, Note_on_c, 14, 54, 84
16, 247559, Note_on_c, 14, 54, 0
16, 247560, Note_on_c, 14, 55, 84
16, 247619, Note_on_c, 14, 55, 0
16, 247620, Note_on_c, 14, 57, 84
16, 247671, Note_on_c, 14, 57, 0
16, 247680, Note_on_c, 14, 59, 84
16, 247859, Note_on_c, 14, 59, 0
16, 248400, Note_on_c, 14, 60, 84
16, 248459, Note_on_c, 14, 60, 0
16, 248460, Note_on_c, 14, 59, 84
16, 248519, Note_on_c, 14, 59, 0
16, 248520, Note_on_c, 14, 60, 84
16, 248579, Note_on_c, 14, 60, 0
16, 248580, Note_on_c, 14, 62, 84
16, 248631, Note_on_c, 14, 62, 0
16, 248640, Note_on_c, 14, 64, 84
16, 248819, Note_on_c, 14, 64, 0
16, 249360, Note_on_c, 14, 52, 84
16, 249419, Note_on_c, 14, 52, 0
16, 249420, Note_on_c, 14, 51, 84
16, 249479, Note_on_c, 14, 51, 0
16, 249480, Note_on_c, 14, 52, 84
16, 249539, Note_on_c, 14, 52, 0
16, 249540, Note_on_c, 14, 54, 84
16, 249591, Note_on_c, 14, 54, 0
16, 249600, Note_on_c, 14, 56, 84
16, 249779, Note_on_c, 14, 56, 0
16, 250320, Note_on_c, 14, 57, 84
16, 250379, Note_on_c, 14, 57, 0
16, 250380, Note_on_c, 14, 56, 84
16, 250439, Note_on_c, 14, 56, 0
16, 250440, Note_on_c, 14, 57, 84
16, 250499, Note_on_c, 14, 57, 0
16, 250500, Note_on_c, 14, 59, 84
16, 250551, Note_on_c, 14, 59, 0
16, 250560, Note_on_c, 14, 60, 84
16, 250739, Note_on_c, 14, 60, 0
16, 251040, Note_on_c, 14, 50, 84
16, 251219, Note_on_c, 14, 50, 0
16, 251280, Note_on_c, 14, 50, 84
16, 251339, Note_on_c, 14, 50, 0
16, 251340, Note_on_c, 14, 49, 84
16, 251399, Note_on_c, 14, 49, 0
16, 251400, Note_on_c, 14, 50, 84
16, 251459, Note_on_c, 14, 50, 0
16, 251460, Note_on_c, 14, 52, 84
16, 251511, Note_on_c, 14, 52, 0
16, 251520, Note_on_c, 14, 54, 84
16, 251699, Note_on_c, 14, 54, 0
16, 251760, Note_on_c, 14, 54, 84
16, 251819, Note_on_c, 14, 54, 0
16, 251820, Note_on_c, 14, 52, 84
16, 251879, Note_on_c, 14, 52, 0
16, 251880, Note_on_c, 14, 54, 84
16, 251939, Note_on_c, 14, 54, 0
16, 251940, Note_on_c, 14, 55, 84
16, 251991, Note_on_c, 14, 55, 0
16, 252000, Note_on_c, 14, 57, 84
16, 252179, Note_on_c, 14, 57, 0
16, 252240, Note_on_c, 14, 57, 84
16, 252299, Note_on_c, 14, 57, 0
16, 252300, Note_on_c, 14, 56, 84
16, 252359, Note_on_c, 14, 56, 0
16, 252360, Note_on_c, 14, 57, 84
16, 252419, Note_on_c, 14, 57, 0
16, 252420, Note_on_c, 14, 59, 84
16, 252471, Note_on_c, 14, 59, 0
16, 252480, Note_on_c, 14, 60, 92
16, 253184, Note_on_c, 14, 60, 0
16, 253200, Note_on_c, 14, 60, 84
16, 253259, Note_on_c, 14, 60, 0
16, 253260, Note_on_c, 14, 62, 84
16, 253319, Note_on_c, 14, 62, 0
16, 253320, Note_on_c, 14, 60, 84
16, 253379, Note_on_c, 14, 60, 0
16, 253380, Note_on_c, 14, 59, 84
16, 253431, Note_on_c, 14, 59, 0
16, 253440, Note_on_c, 14, 57, 84
16, 253619, Note_on_c, 14, 57, 0
16, 253680, Note_on_c, 14, 57, 84
16, 253739, Note_on_c, 14, 57, 0
16, 253740, Note_on_c, 14, 59, 84
16, 253799, Note_on_c, 14, 59, 0
16, 253800, Note_on_c, 14, 57, 84
16, 253859, Note_on_c, 14, 57, 0
16, 253860, Note_on_c, 14, 55, 84
16, 253911, Note_on_c, 14, 55, 0
16, 253920, Note_on_c, 14, 54, 84
16, 254099, Note_on_c, 14, 54, 0
16, 254160, Note_on_c, 14, 54, 84
16, 254219, Note_on_c, 14, 54, 0
16, 254220, Note_on_c, 14, 55, 84
16, 254279, Note_on_c, 14, 55, 0
16, 254280, Note_on_c, 14, 54, 84
16, 254339, Note_on_c, 14, 54, 0
16, 254340, Note_on_c, 14, 52, 84
16, 254391, Note_on_c, 14, 52, 0
16, 254400, Note_on_c, 14, 50, 92
16, 255104, Note_on_c, 14, 50, 0
16, 255120, Note_on_c, 14, 50, 84
16, 255179, Note_on_c, 14, 50, 0
16, 255180, Note_on_c, 14, 49, 84
16, 255239, Note_on_c, 14, 49, 0
16, 255240, Note_on_c, 14, 50, 84
16, 255299, Note_on_c, 14, 50, 0
16, 255300, Note_on_c, 14, 52, 84
16, 255351, Note_on_c, 14, 52, 0
16, 255360, Note_on_c, 14, 54, 84
16, 255539, Note_on_c, 14, 54, 0
16, 255600, Note_on_c, 14, 54, 84
16, 255659, Note_on_c, 14, 54, 0
16, 255660, Note_on_c, 14, 52, 84
16, 255719, Note_on_c, 14, 52, 0
16, 255720, Note_on_c, 14, 54, 84
16, 255779, Note_on_c, 14, 54, 0
16, 255780, Note_on_c, 14, 55, 84
16, 255831, Note_on_c, 14, 55, 0
16, 255840, Note_on_c, 14, 57, 84
16, 256019, Note_on_c, 14, 57, 0
16, 256080, Note_on_c, 14, 57, 84
16, 256139, Note_on_c, 14, 57, 0
16, 256140, Note_on_c, 14, 56, 84
16, 256199, Note_on_c, 14, 56, 0
16, 256200, Note_on_c, 14, 57, 84
16, 256259, Note_on_c, 14, 57, 0
16, 256260, Note_on_c, 14, 59, 84
16, 256311, Note_on_c, 14, 59, 0
16, 256320, Note_on_c, 14, 60, 92
16, 257024, Note_on_c, 14, 60, 0
16, 257040, Note_on_c, 14, 60, 84
16, 257099, Note_on_c, 14, 60, 0
16, 257100, Note_on_c, 14, 62, 84
16, 257159, Note_on_c, 14, 62, 0
16, 257160, Note_on_c, 14, 60, 84
16, 257219, Note_on_c, 14, 60, 0
16, 257220, Note_on_c, 14, 59, 84
16, 257271, Note_on_c, 14, 59, 0
16, 257280, Note_on_c, 14, 57, 84
16, 257459, Note_on_c, 14, 57, 0
16, 257520, Note_on_c, 14, 57, 84
16, 257579, Note_on_c, 14, 57, 0
16, 257580, Note_on_c, 14, 59, 84
16, 257639, Note_on_c, 14, 59, 0
16, 257640, Note_on_c, 14, 57, 84
16, 257699, Note_on_c, 14, 57, 0
16, 257700, Note_on_c, 14, 55, 84
16, 257751, Note_on_c, 14, 55, 0
16, 257760, Note_on_c, 14, 54, 84
16, 257939, Note_on_c, 14, 54, 0
16, 258000, Note_on_c, 14, 54, 84
16, 258059, Note_on_c, 14, 54, 0
16, 258060, Note_on_c, 14, 55, 84
16, 258119, Note_on_c, 14, 55, 0
16, 258120, Note_on_c, 14, 54, 84
16, 258179, Note_on_c, 14, 54, 0
16, 258180, Note_on_c, 14, 52, 84
16, 258231, Note_on_c, 14, 52, 0
16, 258240, Note_on_c, 14, 50, 92
16, 258944, Note_on_c, 14, 50, 0
16, 258960, Note_on_c, 14, 62, 52
16, 260879, Note_on_c, 14, 62, 0
16, 261120, Note_on_c, 14, 50, 44
16, 261359, Note_on_c, 14, 50, 0
16, 261600, Note_on_c, 14, 50, 44
16, 261839, Note_on_c, 14, 50, 0
16, 262560, Note_on_c, 14, 43, 52
16, 262664, Note_on_c, 14, 43, 0
16, 262680, Note_on_c, 14, 55, 52
16, 262784, Note_on_c, 14, 55, 0
16, 262800, Note_on_c, 14, 55, 52
16, 262904, Note_on_c, 14, 55, 0
16, 262920, Note_on_c, 14, 55, 52
16, 263024, Note_on_c, 14, 55, 0
16, 263040, Note_on_c, 14, 43, 52
16, 263144, Note_on_c, 14, 43, 0
16, 263160, Note_on_c, 14, 55, 52
16, 263264, Note_on_c, 14, 55, 0
16, 263280, Note_on_c, 14, 55, 52
16, 263384, Note_on_c, 14, 55, 0
16, 263400, Note_on_c, 14, 55, 52
16, 263504, Note_on_c, 14, 55, 0
16, 263520, Note_on_c, 14, 43, 52
16, 263624, Note_on_c, 14, 43, 0
16, 263640, Note_on_c, 14, 55, 52
16, 263744, Note_on_c, 14, 55, 0
16, 263760, Note_on_c, 14, 55, 52
16, 263864, Note_on_c, 14, 55, 0
16, 263880, Note_on_c, 14, 55, 52
16, 263984, Note_on_c, 14, 55, 0
16, 264000, Note_on_c, 14, 55, 52
16, 264104, Note_on_c, 14, 55, 0
16, 264120, Note_on_c, 14, 55, 52
16, 264224, Note_on_c, 14, 55, 0
16, 264240, Note_on_c, 14, 55, 52
16, 264344, Note_on_c, 14, 55, 0
16, 264360, Note_on_c, 14, 55, 52
16, 264464, Note_on_c, 14, 55, 0
16, 264480, Note_on_c, 14, 55, 52
16, 264584, Note_on_c, 14, 55, 0
16, 264600, Note_on_c, 14, 55, 52
16, 264704, Note_on_c, 14, 55, 0
16, 264720, Note_on_c, 14, 55, 52
16, 264824, Note_on_c, 14, 55, 0
16, 264840, Note_on_c, 14, 55, 52
16, 264944, Note_on_c, 14, 55, 0
16, 264960, Note_on_c, 14, 55, 52
16, 265064, Note_on_c, 14, 55, 0
16, 265080, Note_on_c, 14, 55, 52
16, 265184, Note_on_c, 14, 55, 0
16, 265200, Note_on_c, 14, 55, 52
16, 265304, Note_on_c, 14, 55, 0
16, 265320, Note_on_c, 14, 55, 52
16, 265424, Note_on_c, 14, 55, 0
16, 265440, Note_on_c, 14, 55, 52
16, 265544, Note_on_c, 14, 55, 0
16, 265560, Note_on_c, 14, 55, 52
16, 265664, Note_on_c, 14, 55, 0
16, 265680, Note_on_c, 14, 55, 52
16, 265784, Note_on_c, 14, 55, 0
16, 265800, Note_on_c, 14, 55, 52
16, 265904, Note_on_c, 14, 55, 0
16, 265920, Note_on_c, 14, 43, 52
16, 266024, Note_on_c, 14, 43, 0
16, 266040, Note_on_c, 14, 55, 52
16, 266144, Note_on_c, 14, 55, 0
16, 266160, Note_on_c, 14, 50, 52
16, 266264, Note_on_c, 14, 50, 0
16, 266280, Note_on_c, 14, 47, 52
16, 266384, Note_on_c, 14, 47, 0
16, 266400, Note_on_c, 14, 43, 52
16, 266639, Note_on_c, 14, 43, 0
16, 267360, Note_on_c, 14, 55, 52
16, 267539, Note_on_c, 14, 55, 0
16, 267600, Note_on_c, 14, 55, 52
16, 267779, Note_on_c, 14, 55, 0
16, 267840, Note_on_c, 14, 55, 52
16, 268019, Note_on_c, 14, 55, 0
16, 268080, Note_on_c, 14, 54, 52
16, 268259, Note_on_c, 14, 54, 0
16, 268320, Note_on_c, 14, 55, 52
16, 268559, Note_on_c, 14, 55, 0
16, 269280, Note_on_c, 14, 55, 52
16, 269459, Note_on_c, 14, 55, 0
16, 269520, Note_on_c, 14, 55, 52
16, 269699, Note_on_c, 14, 55, 0
16, 269760, Note_on_c, 14, 55, 52
16, 269939, Note_on_c, 14, 55, 0
16, 270000, Note_on_c, 14, 56, 52
16, 270179, Note_on_c, 14, 56, 0
16, 270240, Note_on_c, 14, 57, 52
16, 270479, Note_on_c, 14, 57, 0
16, 271200, Note_on_c, 14, 57, 52
16, 271379, Note_on_c, 14, 57, 0
16, 271440, Note_on_c, 14, 57, 52
16, 271619, Note_on_c, 14, 57, 0
16, 271680, Note_on_c, 14, 57, 52
16, 271859, Note_on_c, 14, 57, 0
16, 271920, Note_on_c, 14, 56, 52
16, 272099, Note_on_c, 14, 56, 0
16, 272160, Note_on_c, 14, 57, 52
16, 272399, Note_on_c, 14, 57, 0
16, 273120, Note_on_c, 14, 57, 52
16, 273299, Note_on_c, 14, 57, 0
16, 273360, Note_on_c, 14, 57, 52
16, 273539, Note_on_c, 14, 57, 0
16, 273600, Note_on_c, 14, 57, 52
16, 273779, Note_on_c, 14, 57, 0
16, 273840, Note_on_c, 14, 58, 52
16, 274019, Note_on_c, 14, 58, 0
16, 274080, Note_on_c, 14, 59, 52
16, 274319, Note_on_c, 14, 59, 0
16, 274800, Control_c, 14, 11, 80
16, 275040, Note_on_c, 14, 59, 76
16, 275040, Control_c, 14, 11, 80
16, 275120, Control_c, 14, 11, 84
16, 275200, Control_c, 14, 11, 88
16, 275264, Note_on_c, 14, 59, 0
16, 275280, Note_on_c, 14, 59, 76
16, 275280, Control_c, 14, 11, 92
16, 275360, Control_c, 14, 11, 96
16, 275440, Control_c, 14, 11, 100
16, 275504, Note_on_c, 14, 59, 0
16, 275520, Control_c, 14, 11, 104
16, 275520, Note_on_c, 14, 59, 76
16, 275600, Control_c, 14, 11, 107
16, 275680, Control_c, 14, 11, 111
16, 275744, Note_on_c, 14, 59, 0
16, 275760, Note_on_c, 14, 59, 76
16, 275760, Control_c, 14, 11, 115
16, 275840, Control_c, 14, 11, 119
16, 275920, Control_c, 14, 11, 123
16, 275984, Note_on_c, 14, 59, 0
16, 276000, Control_c, 14, 11, 127
16, 276000, Note_on_c, 14, 47, 76
16, 276104, Note_on_c, 14, 47, 0
16, 276120, Note_on_c, 14, 59, 76
16, 276224, Note_on_c, 14, 59, 0
16, 276240, Note_on_c, 14, 59, 76
16, 276344, Note_on_c, 14, 59, 0
16, 276360, Note_on_c, 14, 59, 76
16, 276464, Note_on_c, 14, 59, 0
16, 276480, Note_on_c, 14, 59, 76
16, 276584, Note_on_c, 14, 59, 0
16, 276600, Note_on_c, 14, 59, 76
16, 276704, Note_on_c, 14, 59, 0
16, 276720, Note_on_c, 14, 59, 76
16, 276824, Note_on_c, 14, 59, 0
16, 276840, Note_on_c, 14, 59, 76
16, 276944, Note_on_c, 14, 59, 0
16, 276960, Note_on_c, 14, 60, 84
16, 277064, Note_on_c, 14, 60, 0
16, 277080, Note_on_c, 14, 60, 84
16, 277184, Note_on_c, 14, 60, 0
16, 277200, Note_on_c, 14, 60, 84
16, 277304, Note_on_c, 14, 60, 0
16, 277320, Note_on_c, 14, 60, 84
16, 277424, Note_on_c, 14, 60, 0
16, 277440, Note_on_c, 14, 60, 84
16, 277544, Note_on_c, 14, 60, 0
16, 277560, Note_on_c, 14, 60, 84
16, 277664, Note_on_c, 14, 60, 0
16, 277680, Note_on_c, 14, 60, 84
16, 277784, Note_on_c, 14, 60, 0
16, 277800, Note_on_c, 14, 60, 84
16, 277904, Note_on_c, 14, 60, 0
16, 277920, Note_on_c, 14, 61, 84
16, 278009, Note_on_c, 14, 61, 0
16, 278040, Note_on_c, 14, 60, 84
16, 278129, Note_on_c, 14, 60, 0
16, 278160, Note_on_c, 14, 61, 84
16, 278249, Note_on_c, 14, 61, 0
16, 278280, Note_on_c, 14, 60, 84
16, 278369, Note_on_c, 14, 60, 0
16, 278400, Note_on_c, 14, 61, 84
16, 278489, Note_on_c, 14, 61, 0
16, 278520, Note_on_c, 14, 62, 84
16, 278609, Note_on_c, 14, 62, 0
16, 278640, Note_on_c, 14, 61, 84
16, 278729, Note_on_c, 14, 61, 0
16, 278760, Note_on_c, 14, 59, 84
16, 278849, Note_on_c, 14, 59, 0
16, 278880, Note_on_c, 14, 57, 84
16, 278969, Note_on_c, 14, 57, 0
16, 279000, Note_on_c, 14, 61, 84
16, 279089, Note_on_c, 14, 61, 0
16, 279120, Note_on_c, 14, 60, 84
16, 279209, Note_on_c, 14, 60, 0
16, 279240, Note_on_c, 14, 61, 84
16, 279329, Note_on_c, 14, 61, 0
16, 279360, Note_on_c, 14, 59, 84
16, 279449, Note_on_c, 14, 59, 0
16, 279480, Note_on_c, 14, 57, 84
16, 279569, Note_on_c, 14, 57, 0
16, 279600, Note_on_c, 14, 56, 84
16, 279689, Note_on_c, 14, 56, 0
16, 279720, Note_on_c, 14, 54, 84
16, 279809, Note_on_c, 14, 54, 0
16, 279840, Note_on_c, 14, 53, 84
16, 279929, Note_on_c, 14, 53, 0
16, 279960, Note_on_c, 14, 54, 84
16, 280049, Note_on_c, 14, 54, 0
16, 280080, Note_on_c, 14, 56, 84
16, 280169, Note_on_c, 14, 56, 0
16, 280200, Note_on_c, 14, 54, 84
16, 280289, Note_on_c, 14, 54, 0
16, 280320, Note_on_c, 14, 53, 84
16, 280409, Note_on_c, 14, 53, 0
16, 280440, Note_on_c, 14, 49, 84
16, 280529, Note_on_c, 14, 49, 0
16, 280560, Note_on_c, 14, 51, 84
16, 280649, Note_on_c, 14, 51, 0
16, 280680, Note_on_c, 14, 53, 84
16, 280769, Note_on_c, 14, 53, 0
16, 280800, Note_on_c, 14, 54, 84
16, 280889, Note_on_c, 14, 54, 0
16, 280920, Note_on_c, 14, 53, 84
16, 281009, Note_on_c, 14, 53, 0
16, 281040, Note_on_c, 14, 54, 84
16, 281129, Note_on_c, 14, 54, 0
16, 281160, Note_on_c, 14, 56, 84
16, 281249, Note_on_c, 14, 56, 0
16, 281280, Note_on_c, 14, 57, 84
16, 281369, Note_on_c, 14, 57, 0
16, 281400, Note_on_c, 14, 56, 84
16, 281489, Note_on_c, 14, 56, 0
16, 281520, Note_on_c, 14, 57, 84
16, 281609, Note_on_c, 14, 57, 0
16, 281640, Note_on_c, 14, 59, 84
16, 281729, Note_on_c, 14, 59, 0
16, 281760, Note_on_c, 14, 61, 84
16, 281849, Note_on_c, 14, 61, 0
16, 281880, Note_on_c, 14, 60, 84
16, 281969, Note_on_c, 14, 60, 0
16, 282000, Note_on_c, 14, 61, 84
16, 282089, Note_on_c, 14, 61, 0
16, 282120, Note_on_c, 14, 60, 84
16, 282209, Note_on_c, 14, 60, 0
16, 282240, Note_on_c, 14, 61, 84
16, 282329, Note_on_c, 14, 61, 0
16, 282360, Note_on_c, 14, 62, 84
16, 282449, Note_on_c, 14, 62, 0
16, 282480, Note_on_c, 14, 61, 84
16, 282569, Note_on_c, 14, 61, 0
16, 282600, Note_on_c, 14, 59, 84
16, 282689, Note_on_c, 14, 59, 0
16, 282720, Note_on_c, 14, 57, 84
16, 282809, Note_on_c, 14, 57, 0
16, 282840, Note_on_c, 14, 61, 84
16, 282929, Note_on_c, 14, 61, 0
16, 282960, Note_on_c, 14, 60, 84
16, 283049, Note_on_c, 14, 60, 0
16, 283080, Note_on_c, 14, 61, 84
16, 283169, Note_on_c, 14, 61, 0
16, 283200, Note_on_c, 14, 59, 84
16, 283289, Note_on_c, 14, 59, 0
16, 283320, Note_on_c, 14, 57, 84
16, 283409, Note_on_c, 14, 57, 0
16, 283440, Note_on_c, 14, 56, 84
16, 283529, Note_on_c, 14, 56, 0
16, 283560, Note_on_c, 14, 54, 84
16, 283649, Note_on_c, 14, 54, 0
16, 283680, Note_on_c, 14, 53, 84
16, 283769, Note_on_c, 14, 53, 0
16, 283800, Note_on_c, 14, 54, 84
16, 283889, Note_on_c, 14, 54, 0
16, 283920, Note_on_c, 14, 56, 84
16, 284009, Note_on_c, 14, 56, 0
16, 284040, Note_on_c, 14, 54, 84
16, 284129, Note_on_c, 14, 54, 0
16, 284160, Note_on_c, 14, 53, 84
16, 284249, Note_on_c, 14, 53, 0
16, 284280, Note_on_c, 14, 49, 84
16, 284369, Note_on_c, 14, 49, 0
16, 284400, Note_on_c, 14, 51, 84
16, 284489, Note_on_c, 14, 51, 0
16, 284520, Note_on_c, 14, 53, 84
16, 284609, Note_on_c, 14, 53, 0
16, 284640, Note_on_c, 14, 54, 84
16, 284729, Note_on_c, 14, 54, 0
16, 284760, Note_on_c, 14, 53, 84
16, 284849, Note_on_c, 14, 53, 0
16, 284880, Note_on_c, 14, 54, 84
16, 284969, Note_on_c, 14, 54, 0
16, 285000, Note_on_c, 14, 56, 84
16, 285089, Note_on_c, 14, 56, 0
16, 285120, Note_on_c, 14, 57, 84
16, 285209, Note_on_c, 14, 57, 0
16, 285240, Note_on_c, 14, 58, 84
16, 285329, Note_on_c, 14, 58, 0
16, 285360, Note_on_c, 14, 59, 84
16, 285449, Note_on_c, 14, 59, 0
16, 285480, Note_on_c, 14, 60, 84
16, 285569, Note_on_c, 14, 60, 0
16, 285600, Note_on_c, 14, 61, 84
16, 285839, Note_on_c, 14, 61, 0
16, 286500, Note_on_c, 14, 49, 84
16, 286551, Note_on_c, 14, 49, 0
16, 286560, Note_on_c, 14, 54, 84
16, 286799, Note_on_c, 14, 54, 0
16, 287460, Note_on_c, 14, 54, 84
16, 287511, Note_on_c, 14, 54, 0
16, 287520, Note_on_c, 14, 49, 84
16, 287759, Note_on_c, 14, 49, 0
16, 288420, Note_on_c, 14, 49, 84
16, 288471, Note_on_c, 14, 49, 0
16, 288480, Note_on_c, 14, 54, 84
16, 288719, Note_on_c, 14, 54, 0
16, 289380, Note_on_c, 14, 54, 84
16, 289431, Note_on_c, 14, 54, 0
16, 289440, Note_on_c, 14, 49, 84
16, 289679, Note_on_c, 14, 49, 0
16, 290340, Note_on_c, 14, 49, 84
16, 290391, Note_on_c, 14, 49, 0
16, 290400, Note_on_c, 14, 49, 84
16, 290639, Note_on_c, 14, 49, 0
16, 290820, Note_on_c, 14, 49, 84
16, 290871, Note_on_c, 14, 49, 0
16, 290880, Note_on_c, 14, 49, 84
16, 291119, Note_on_c, 14, 49, 0
16, 291300, Note_on_c, 14, 49, 84
16, 291344, Note_on_c, 14, 49, 0
16, 291352, Control_c, 14, 11, 96
16, 291360, Note_on_c, 14, 49, 68
16, 293280, Control_c, 14, 11, 96
16, 293360, Control_c, 14, 11, 99
16, 293440, Control_c, 14, 11, 101
16, 293520, Control_c, 14, 11, 104
16, 293600, Control_c, 14, 11, 106
16, 293680, Control_c, 14, 11, 109
16, 293760, Control_c, 14, 11, 112
16, 293840, Control_c, 14, 11, 114
16, 293920, Control_c, 14, 11, 117
16, 294000, Control_c, 14, 11, 119
16, 294080, Control_c, 14, 11, 122
16, 294160, Control_c, 14, 11, 124
16, 294224, Note_on_c, 14, 49, 0
16, 294240, Note_on_c, 14, 45, 76
16, 294240, Control_c, 14, 11, 127
16, 294320, Control_c, 14, 11, 123
16, 294400, Control_c, 14, 11, 119
16, 294480, Control_c, 14, 11, 115
16, 294560, Control_c, 14, 11, 111
16, 294640, Control_c, 14, 11, 107
16, 294720, Control_c, 14, 11, 104
16, 294800, Control_c, 14, 11, 100
16, 294880, Control_c, 14, 11, 96
16, 294960, Control_c, 14, 11, 92
16, 295040, Control_c, 14, 11, 88
16, 295120, Control_c, 14, 11, 84
16, 295184, Note_on_c, 14, 45, 0
16, 295200, Note_on_c, 14, 50, 76
16, 295200, Control_c, 14, 11, 80
16, 295904, Note_on_c, 14, 50, 0
16, 295920, Note_on_c, 14, 50, 76
16, 295979, Note_on_c, 14, 50, 0
16, 295980, Note_on_c, 14, 49, 76
16, 296039, Note_on_c, 14, 49, 0
16, 296040, Note_on_c, 14, 50, 76
16, 296099, Note_on_c, 14, 50, 0
16, 296100, Note_on_c, 14, 52, 76
16, 296151, Note_on_c, 14, 52, 0
16, 296160, Note_on_c, 14, 54, 76
16, 296864, Note_on_c, 14, 54, 0
16, 296880, Note_on_c, 14, 54, 76
16, 296939, Note_on_c, 14, 54, 0
16, 296940, Note_on_c, 14, 52, 76
16, 296999, Note_on_c, 14, 52, 0
16, 297000, Note_on_c, 14, 54, 76
16, 297059, Note_on_c, 14, 54, 0
16, 297060, Note_on_c, 14, 55, 76
16, 297111, Note_on_c, 14, 55, 0
16, 297120, Note_on_c, 14, 57, 76
16, 297299, Note_on_c, 14, 57, 0
16, 297360, Note_on_c, 14, 57, 76
16, 297539, Note_on_c, 14, 57, 0
16, 297600, Note_on_c, 14, 54, 76
16, 297779, Note_on_c, 14, 54, 0
16, 297840, Note_on_c, 14, 54, 76
16, 298019, Note_on_c, 14, 54, 0
16, 298080, Note_on_c, 14, 50, 76
16, 298259, Note_on_c, 14, 50, 0
16, 298800, Control_c, 14, 11, 127
16, 299040, Note_on_c, 14, 55, 52
16, 299744, Note_on_c, 14, 55, 0
16, 299760, Note_on_c, 14, 55, 52
16, 299819, Note_on_c, 14, 55, 0
16, 299820, Note_on_c, 14, 54, 52
16, 299879, Note_on_c, 14, 54, 0
16, 299880, Note_on_c, 14, 55, 52
16, 299939, Note_on_c, 14, 55, 0
16, 299940, Note_on_c, 14, 57, 52
16, 299991, Note_on_c, 14, 57, 0
16, 300000, Note_on_c, 14, 59, 52
16, 300704, Note_on_c, 14, 59, 0
16, 300720, Note_on_c, 14, 59, 52
16, 300779, Note_on_c, 14, 59, 0
16, 300780, Note_on_c, 14, 58, 52
16, 300839, Note_on_c, 14, 58, 0
16, 300840, Note_on_c, 14, 59, 52
16, 300899, Note_on_c, 14, 59, 0
16, 300900, Note_on_c, 14, 61, 52
16, 300951, Note_on_c, 14, 61, 0
16, 300960, Note_on_c, 14, 62, 52
16, 301139, Note_on_c, 14, 62, 0
16, 301200, Note_on_c, 14, 62, 52
16, 301379, Note_on_c, 14, 62, 0
16, 301440, Note_on_c, 14, 59, 52
16, 301619, Note_on_c, 14, 59, 0
16, 301680, Note_on_c, 14, 59, 52
16, 301859, Note_on_c, 14, 59, 0
16, 301920, Note_on_c, 14, 56, 52
16, 302159, Note_on_c, 14, 56, 0
16, 302880, Note_on_c, 14, 62, 52
16, 303059, Note_on_c, 14, 62, 0
16, 303120, Note_on_c, 14, 62, 52
16, 303299, Note_on_c, 14, 62, 0
16, 303360, Note_on_c, 14, 60, 52
16, 303539, Note_on_c, 14, 60, 0
16, 303600, Note_on_c, 14, 60, 52
16, 303779, Note_on_c, 14, 60, 0
16, 303840, Note_on_c, 14, 57, 52
16, 304079, Note_on_c, 14, 57, 0
16, 304560, Control_c, 14, 11, 96
16, 304800, Control_c, 14, 11, 96
16, 304800, Note_on_c, 14, 59, 68
16, 305039, Note_on_c, 14, 59, 0
16, 305040, Control_c, 14, 11, 99
16, 305280, Note_on_c, 14, 57, 68
16, 305280, Control_c, 14, 11, 101
16, 305519, Note_on_c, 14, 57, 0
16, 305520, Control_c, 14, 11, 104
16, 305760, Note_on_c, 14, 55, 68
16, 305760, Control_c, 14, 11, 106
16, 305999, Note_on_c, 14, 55, 0
16, 306000, Control_c, 14, 11, 109
16, 306240, Control_c, 14, 11, 112
16, 306240, Note_on_c, 14, 54, 68
16, 306479, Note_on_c, 14, 54, 0
16, 306480, Control_c, 14, 11, 114
16, 306720, Note_on_c, 14, 55, 68
16, 306720, Control_c, 14, 11, 117
16, 306899, Note_on_c, 14, 55, 0
16, 306960, Control_c, 14, 11, 119
16, 306960, Note_on_c, 14, 52, 68
16, 307139, Note_on_c, 14, 52, 0
16, 307200, Control_c, 14, 11, 122
16, 307200, Note_on_c, 14, 57, 68
16, 307379, Note_on_c, 14, 57, 0
16, 307440, Note_on_c, 14, 45, 68
16, 307440, Control_c, 14, 11, 124
16, 307619, Note_on_c, 14, 45, 0
16, 307680, Note_on_c, 14, 50, 76
16, 307680, Control_c, 14, 11, 80
16, 307859, Note_on_c, 14, 50, 0
16, 307920, Control_c, 14, 11, 80
16, 307920, Note_on_c, 14, 62, 76
16, 308070, Control_c, 14, 11, 82
16, 308220, Control_c, 14, 11, 84
16, 308370, Control_c, 14, 11, 86
16, 308399, Note_on_c, 14, 62, 0
16, 308400, Note_on_c, 14, 60, 76
16, 308520, Control_c, 14, 11, 88
16, 308624, Note_on_c, 14, 60, 0
16, 308640, Note_on_c, 14, 59, 76
16, 308670, Control_c, 14, 11, 90
16, 308820, Control_c, 14, 11, 92
16, 308970, Control_c, 14, 11, 94
16, 309119, Note_on_c, 14, 59, 0
16, 309120, Control_c, 14, 11, 96
16, 309120, Note_on_c, 14, 57, 76
16, 309270, Control_c, 14, 11, 98
16, 309420, Control_c, 14, 11, 100
16, 309570, Control_c, 14, 11, 102
16, 309599, Note_on_c, 14, 57, 0
16, 309600, Note_on_c, 14, 55, 76
16, 309720, Control_c, 14, 11, 104
16, 309870, Control_c, 14, 11, 105
16, 310020, Control_c, 14, 11, 107
16, 310079, Note_on_c, 14, 55, 0
16, 310080, Note_on_c, 14, 54, 76
16, 310170, Control_c, 14, 11, 109
16, 310320, Control_c, 14, 11, 111
16, 310470, Control_c, 14, 11, 113
16, 310544, Note_on_c, 14, 54, 0
16, 310560, Note_on_c, 14, 55, 76
16, 310620, Control_c, 14, 11, 115
16, 310770, Control_c, 14, 11, 117
16, 310920, Control_c, 14, 11, 119
16, 311039, Note_on_c, 14, 55, 0
16, 311040, Note_on_c, 14, 56, 76
16, 311070, Control_c, 14, 11, 121
16, 311220, Control_c, 14, 11, 123
16, 311370, Control_c, 14, 11, 125
16, 311504, Note_on_c, 14, 56, 0
16, 311520, Note_on_c, 14, 57, 76
16, 311520, Control_c, 14, 11, 127
16, 311609, Note_on_c, 14, 57, 0
16, 311640, Note_on_c, 14, 45, 76
16, 311729, Note_on_c, 14, 45, 0
16, 311760, Note_on_c, 14, 49, 76
16, 311849, Note_on_c, 14, 49, 0
16, 311880, Note_on_c, 14, 45, 76
16, 311969, Note_on_c, 14, 45, 0
16, 312000, Note_on_c, 14, 49, 76
16, 312089, Note_on_c, 14, 49, 0
16, 312120, Note_on_c, 14, 45, 76
16, 312209, Note_on_c, 14, 45, 0
16, 312240, Note_on_c, 14, 49, 76
16, 312329, Note_on_c, 14, 49, 0
16, 312360, Note_on_c, 14, 45, 76
16, 312449, Note_on_c, 14, 45, 0
16, 312480, Note_on_c, 14, 50, 76
16, 312569, Note_on_c, 14, 50, 0
16, 312600, Note_on_c, 14, 45, 76
16, 312689, Note_on_c, 14, 45, 0
16, 312720, Note_on_c, 14, 50, 76
16, 312809, Note_on_c, 14, 50, 0
16, 312840, Note_on_c, 14, 45, 76
16, 312929, Note_on_c, 14, 45, 0
16, 312960, Note_on_c, 14, 54, 76
16, 313049, Note_on_c, 14, 54, 0
16, 313080, Note_on_c, 14, 45, 76
16, 313169, Note_on_c, 14, 45, 0
16, 313200, Note_on_c, 14, 54, 76
16, 313289, Note_on_c, 14, 54, 0
16, 313320, Note_on_c, 14, 45, 76
16, 313409, Note_on_c, 14, 45, 0
16, 313440, Note_on_c, 14, 52, 76
16, 313529, Note_on_c, 14, 52, 0
16, 313560, Note_on_c, 14, 45, 76
16, 313649, Note_on_c, 14, 45, 0
16, 313680, Note_on_c, 14, 52, 76
16, 313769, Note_on_c, 14, 52, 0
16, 313800, Note_on_c, 14, 45, 76
16, 313889, Note_on_c, 14, 45, 0
16, 313920, Note_on_c, 14, 55, 76
16, 314009, Note_on_c, 14, 55, 0
16, 314040, Note_on_c, 14, 45, 76
16, 314129, Note_on_c, 14, 45, 0
16, 314160, Note_on_c, 14, 55, 76
16, 314249, Note_on_c, 14, 55, 0
16, 314280, Note_on_c, 14, 45, 76
16, 314369, Note_on_c, 14, 45, 0
16, 314400, Note_on_c, 14, 54, 76
16, 314489, Note_on_c, 14, 54, 0
16, 314520, Note_on_c, 14, 45, 76
16, 314609, Note_on_c, 14, 45, 0
16, 314640, Note_on_c, 14, 54, 76
16, 314729, Note_on_c, 14, 54, 0
16, 314760, Note_on_c, 14, 45, 76
16, 314849, Note_on_c, 14, 45, 0
16, 314880, Note_on_c, 14, 50, 76
16, 314969, Note_on_c, 14, 50, 0
16, 315000, Note_on_c, 14, 45, 76
16, 315089, Note_on_c, 14, 45, 0
16, 315120, Note_on_c, 14, 50, 76
16, 315209, Note_on_c, 14, 50, 0
16, 315240, Note_on_c, 14, 45, 76
16, 315329, Note_on_c, 14, 45, 0
16, 315360, Note_on_c, 14, 57, 76
16, 315449, Note_on_c, 14, 57, 0
16, 315480, Note_on_c, 14, 45, 76
16, 315569, Note_on_c, 14, 45, 0
16, 315600, Note_on_c, 14, 49, 76
16, 315689, Note_on_c, 14, 49, 0
16, 315720, Note_on_c, 14, 45, 76
16, 315809, Note_on_c, 14, 45, 0
16, 315840, Note_on_c, 14, 49, 76
16, 315929, Note_on_c, 14, 49, 0
16, 315960, Note_on_c, 14, 45, 76
16, 316049, Note_on_c, 14, 45, 0
16, 316080, Note_on_c, 14, 49, 76
16, 316169, Note_on_c, 14, 49, 0
16, 316200, Note_on_c, 14, 45, 76
16, 316289, Note_on_c, 14, 45, 0
16, 316320, Note_on_c, 14, 50, 76
16, 316409, Note_on_c, 14, 50, 0
16, 316440, Note_on_c, 14, 45, 76
16, 316529, Note_on_c, 14, 45, 0
16, 316560, Note_on_c, 14, 50, 76
16, 316649, Note_on_c, 14, 50, 0
16, 316680, Note_on_c, 14, 45, 76
16, 316769, Note_on_c, 14, 45, 0
16, 316800, Note_on_c, 14, 53, 76
16, 316889, Note_on_c, 14, 53, 0
16, 316920, Note_on_c, 14, 45, 76
16, 317009, Note_on_c, 14, 45, 0
16, 317040, Note_on_c, 14, 53, 76
16, 317129, Note_on_c, 14, 53, 0
16, 317160, Note_on_c, 14, 45, 76
16, 317249, Note_on_c, 14, 45, 0
16, 317280, Note_on_c, 14, 52, 76
16, 317384, Note_on_c, 14, 52, 0
16, 317400, Note_on_c, 14, 45, 76
16, 317504, Note_on_c, 14, 45, 0
16, 317520, Note_on_c, 14, 57, 84
16, 318104, Note_on_c, 14, 57, 0
16, 318120, Note_on_c, 14, 55, 76
16, 318224, Note_on_c, 14, 55, 0
16, 318240, Note_on_c, 14, 53, 76
16, 318329, Note_on_c, 14, 53, 0
16, 318360, Note_on_c, 14, 55, 76
16, 318449, Note_on_c, 14, 55, 0
16, 318480, Note_on_c, 14, 53, 76
16, 318569, Note_on_c, 14, 53, 0
16, 318600, Note_on_c, 14, 52, 76
16, 318689, Note_on_c, 14, 52, 0
16, 318720, Note_on_c, 14, 50, 76
16, 318809, Note_on_c, 14, 50, 0
16, 318840, Note_on_c, 14, 48, 76
16, 318929, Note_on_c, 14, 48, 0
16, 318960, Note_on_c, 14, 47, 76
16, 319049, Note_on_c, 14, 47, 0
16, 319080, Note_on_c, 14, 46, 76
16, 319169, Note_on_c, 14, 46, 0
16, 319200, Note_on_c, 14, 45, 84
16, 319559, Note_on_c, 14, 45, 0
16, 319560, Note_on_c, 14, 46, 76
16, 319664, Note_on_c, 14, 46, 0
16, 319680, Note_on_c, 14, 45, 84
16, 320039, Note_on_c, 14, 45, 0
16, 320040, Note_on_c, 14, 46, 76
16, 320144, Note_on_c, 14, 46, 0
16, 320160, Note_on_c, 14, 45, 84
16, 320249, Note_on_c, 14, 45, 0
16, 320280, Note_on_c, 14, 46, 76
16, 320369, Note_on_c, 14, 46, 0
16, 320400, Note_on_c, 14, 45, 76
16, 320489, Note_on_c, 14, 45, 0
16, 320520, Note_on_c, 14, 46, 76
16, 320609, Note_on_c, 14, 46, 0
16, 320640, Note_on_c, 14, 45, 76
16, 320729, Note_on_c, 14, 45, 0
16, 320760, Note_on_c, 14, 46, 76
16, 320849, Note_on_c, 14, 46, 0
16, 320880, Note_on_c, 14, 45, 76
16, 320969, Note_on_c, 14, 45, 0
16, 321000, Note_on_c, 14, 46, 76
16, 321089, Note_on_c, 14, 46, 0
16, 321120, Note_on_c, 14, 45, 84
16, 321824, Note_on_c, 14, 45, 0
16, 321840, Note_on_c, 14, 56, 76
16, 322019, Note_on_c, 14, 56, 0
16, 322080, Note_on_c, 14, 55, 76
16, 322259, Note_on_c, 14, 55, 0
16, 322320, Note_on_c, 14, 54, 76
16, 322499, Note_on_c, 14, 54, 0
16, 322560, Note_on_c, 14, 52, 76
16, 322739, Note_on_c, 14, 52, 0
16, 322800, Note_on_c, 14, 57, 76
16, 322979, Note_on_c, 14, 57, 0
16, 323040, Note_on_c, 14, 50, 52
16, 323129, Note_on_c, 14, 50, 0
16, 323160, Note_on_c, 14, 62, 52
16, 323249, Note_on_c, 14, 62, 0
16, 323280, Note_on_c, 14, 62, 52
16, 323369, Note_on_c, 14, 62, 0
16, 323400, Note_on_c, 14, 62, 52
16, 323489, Note_on_c, 14, 62, 0
16, 323520, Note_on_c, 14, 50, 52
16, 323609, Note_on_c, 14, 50, 0
16, 323640, Note_on_c, 14, 62, 52
16, 323729, Note_on_c, 14, 62, 0
16, 323760, Note_on_c, 14, 62, 52
16, 323849, Note_on_c, 14, 62, 0
16, 323880, Note_on_c, 14, 62, 52
16, 323969, Note_on_c, 14, 62, 0
16, 324000, Note_on_c, 14, 50, 52
16, 324089, Note_on_c, 14, 50, 0
16, 324120, Note_on_c, 14, 62, 52
16, 324209, Note_on_c, 14, 62, 0
16, 324240, Note_on_c, 14, 62, 52
16, 324329, Note_on_c, 14, 62, 0
16, 324360, Note_on_c, 14, 62, 52
16, 324449, Note_on_c, 14, 62, 0
16, 324480, Note_on_c, 14, 62, 52
16, 324569, Note_on_c, 14, 62, 0
16, 324600, Note_on_c, 14, 62, 52
16, 324689, Note_on_c, 14, 62, 0
16, 324720, Note_on_c, 14, 62, 52
16, 324809, Note_on_c, 14, 62, 0
16, 324840, Note_on_c, 14, 62, 52
16, 324929, Note_on_c, 14, 62, 0
16, 324960, Note_on_c, 14, 62, 52
16, 325049, Note_on_c, 14, 62, 0
16, 325080, Note_on_c, 14, 62, 52
16, 325169, Note_on_c, 14, 62, 0
16, 325200, Note_on_c, 14, 62, 52
16, 325289, Note_on_c, 14, 62, 0
16, 325320, Note_on_c, 14, 62, 52
16, 325409, Note_on_c, 14, 62, 0
16, 325440, Note_on_c, 14, 62, 52
16, 325529, Note_on_c, 14, 62, 0
16, 325560, Note_on_c, 14, 62, 52
16, 325649, Note_on_c, 14, 62, 0
16, 325680, Note_on_c, 14, 62, 52
16, 325769, Note_on_c, 14, 62, 0
16, 325800, Note_on_c, 14, 62, 52
16, 325889, Note_on_c, 14, 62, 0
16, 325920, Note_on_c, 14, 62, 52
16, 326009, Note_on_c, 14, 62, 0
16, 326040, Note_on_c, 14, 62, 52
16, 326129, Note_on_c, 14, 62, 0
16, 326160, Note_on_c, 14, 62, 52
16, 326249, Note_on_c, 14, 62, 0
16, 326280, Note_on_c, 14, 62, 52
16, 326369, Note_on_c, 14, 62, 0
16, 326400, Note_on_c, 14, 62, 52
16, 326489, Note_on_c, 14, 62, 0
16, 326520, Note_on_c, 14, 62, 52
16, 326609, Note_on_c, 14, 62, 0
16, 326640, Note_on_c, 14, 62, 52
16, 326729, Note_on_c, 14, 62, 0
16, 326760, Note_on_c, 14, 62, 52
16, 326849, Note_on_c, 14, 62, 0
16, 326880, Note_on_c, 14, 47, 84
16, 326969, Note_on_c, 14, 47, 0
16, 327000, Note_on_c, 14, 59, 84
16, 327089, Note_on_c, 14, 59, 0
16, 327120, Note_on_c, 14, 54, 84
16, 327209, Note_on_c, 14, 54, 0
16, 327240, Note_on_c, 14, 50, 84
16, 327329, Note_on_c, 14, 50, 0
16, 327360, Note_on_c, 14, 47, 84
16, 327449, Note_on_c, 14, 47, 0
16, 327480, Note_on_c, 14, 59, 84
16, 327569, Note_on_c, 14, 59, 0
16, 327600, Note_on_c, 14, 54, 84
16, 327689, Note_on_c, 14, 54, 0
16, 327720, Note_on_c, 14, 50, 84
16, 327809, Note_on_c, 14, 50, 0
16, 327840, Note_on_c, 14, 47, 84
16, 327929, Note_on_c, 14, 47, 0
16, 327960, Note_on_c, 14, 59, 84
16, 328049, Note_on_c, 14, 59, 0
16, 328080, Note_on_c, 14, 54, 84
16, 328169, Note_on_c, 14, 54, 0
16, 328200, Note_on_c, 14, 50, 84
16, 328289, Note_on_c, 14, 50, 0
16, 328320, Note_on_c, 14, 47, 84
16, 328409, Note_on_c, 14, 47, 0
16, 328440, Note_on_c, 14, 59, 84
16, 328529, Note_on_c, 14, 59, 0
16, 328560, Note_on_c, 14, 61, 84
16, 328649, Note_on_c, 14, 61, 0
16, 328680, Note_on_c, 14, 62, 84
16, 328769, Note_on_c, 14, 62, 0
16, 328800, Note_on_c, 14, 52, 92
16, 328889, Note_on_c, 14, 52, 0
16, 328920, Note_on_c, 14, 64, 84
16, 329009, Note_on_c, 14, 64, 0
16, 329040, Note_on_c, 14, 64, 84
16, 329129, Note_on_c, 14, 64, 0
16, 329160, Note_on_c, 14, 64, 84
16, 329249, Note_on_c, 14, 64, 0
16, 329280, Note_on_c, 14, 52, 92
16, 329369, Note_on_c, 14, 52, 0
16, 329400, Note_on_c, 14, 64, 84
16, 329489, Note_on_c, 14, 64, 0
16, 329520, Note_on_c, 14, 64, 84
16, 329609, Note_on_c, 14, 64, 0
16, 329640, Note_on_c, 14, 64, 84
16, 329729, Note_on_c, 14, 64, 0
16, 329760, Note_on_c, 14, 57, 84
16, 329999, Note_on_c, 14, 57, 0
16, 330720, Note_on_c, 14, 50, 52
16, 330809, Note_on_c, 14, 50, 0
16, 330840, Note_on_c, 14, 62, 52
16, 330929, Note_on_c, 14, 62, 0
16, 330960, Note_on_c, 14, 62, 52
16, 331049, Note_on_c, 14, 62, 0
16, 331080, Note_on_c, 14, 62, 52
16, 331169, Note_on_c, 14, 62, 0
16, 331200, Note_on_c, 14, 50, 52
16, 331289, Note_on_c, 14, 50, 0
16, 331320, Note_on_c, 14, 62, 52
16, 331409, Note_on_c, 14, 62, 0
16, 331440, Note_on_c, 14, 62, 52
16, 331529, Note_on_c, 14, 62, 0
16, 331560, Note_on_c, 14, 62, 52
16, 331649, Note_on_c, 14, 62, 0
16, 331680, Note_on_c, 14, 50, 52
16, 331769, Note_on_c, 14, 50, 0
16, 331800, Note_on_c, 14, 62, 52
16, 331889, Note_on_c, 14, 62, 0
16, 331920, Note_on_c, 14, 62, 52
16, 332009, Note_on_c, 14, 62, 0
16, 332040, Note_on_c, 14, 62, 52
16, 332129, Note_on_c, 14, 62, 0
16, 332160, Note_on_c, 14, 62, 52
16, 332249, Note_on_c, 14, 62, 0
16, 332280, Note_on_c, 14, 62, 52
16, 332369, Note_on_c, 14, 62, 0
16, 332400, Note_on_c, 14, 62, 52
16, 332489, Note_on_c, 14, 62, 0
16, 332520, Note_on_c, 14, 62, 52
16, 332609, Note_on_c, 14, 62, 0
16, 332640, Note_on_c, 14, 62, 52
16, 332729, Note_on_c, 14, 62, 0
16, 332760, Note_on_c, 14, 62, 52
16, 332849, Note_on_c, 14, 62, 0
16, 332880, Note_on_c, 14, 62, 52
16, 332969, Note_on_c, 14, 62, 0
16, 333000, Note_on_c, 14, 62, 52
16, 333089, Note_on_c, 14, 62, 0
16, 333120, Note_on_c, 14, 62, 52
16, 333209, Note_on_c, 14, 62, 0
16, 333240, Note_on_c, 14, 62, 52
16, 333329, Note_on_c, 14, 62, 0
16, 333360, Note_on_c, 14, 62, 52
16, 333449, Note_on_c, 14, 62, 0
16, 333480, Note_on_c, 14, 62, 52
16, 333569, Note_on_c, 14, 62, 0
16, 333600, Note_on_c, 14, 62, 52
16, 333689, Note_on_c, 14, 62, 0
16, 333720, Note_on_c, 14, 62, 52
16, 333809, Note_on_c, 14, 62, 0
16, 333840, Note_on_c, 14, 62, 52
16, 333929, Note_on_c, 14, 62, 0
16, 333960, Note_on_c, 14, 62, 52
16, 334049, Note_on_c, 14, 62, 0
16, 334080, Note_on_c, 14, 62, 52
16, 334199, Note_on_c, 14, 62, 0
16, 334560, Note_on_c, 14, 47, 84
16, 334649, Note_on_c, 14, 47, 0
16, 334680, Note_on_c, 14, 59, 84
16, 334769, Note_on_c, 14, 59, 0
16, 334800, Note_on_c, 14, 54, 84
16, 334889, Note_on_c, 14, 54, 0
16, 334920, Note_on_c, 14, 50, 84
16, 335009, Note_on_c, 14, 50, 0
16, 335040, Note_on_c, 14, 47, 84
16, 335129, Note_on_c, 14, 47, 0
16, 335160, Note_on_c, 14, 59, 84
16, 335249, Note_on_c, 14, 59, 0
16, 335280, Note_on_c, 14, 54, 84
16, 335369, Note_on_c, 14, 54, 0
16, 335400, Note_on_c, 14, 50, 84
16, 335489, Note_on_c, 14, 50, 0
16, 335520, Note_on_c, 14, 47, 84
16, 335609, Note_on_c, 14, 47, 0
16, 335640, Note_on_c, 14, 59, 84
16, 335729, Note_on_c, 14, 59, 0
16, 335760, Note_on_c, 14, 54, 84
16, 335849, Note_on_c, 14, 54, 0
16, 335880, Note_on_c, 14, 50, 84
16, 335969, Note_on_c, 14, 50, 0
16, 336000, Note_on_c, 14, 47, 84
16, 336089, Note_on_c, 14, 47, 0
16, 336120, Note_on_c, 14, 59, 84
16, 336209, Note_on_c, 14, 59, 0
16, 336240, Note_on_c, 14, 61, 84
16, 336329, Note_on_c, 14, 61, 0
16, 336360, Note_on_c, 14, 62, 84
16, 336449, Note_on_c, 14, 62, 0
16, 336480, Note_on_c, 14, 52, 92
16, 336569, Note_on_c, 14, 52, 0
16, 336600, Note_on_c, 14, 64, 84
16, 336689, Note_on_c, 14, 64, 0
16, 336720, Note_on_c, 14, 64, 84
16, 336809, Note_on_c, 14, 64, 0
16, 336840, Note_on_c, 14, 64, 84
16, 336929, Note_on_c, 14, 64, 0
16, 336960, Note_on_c, 14, 52, 92
16, 337049, Note_on_c, 14, 52, 0
16, 337080, Note_on_c, 14, 64, 84
16, 337169, Note_on_c, 14, 64, 0
16, 337200, Note_on_c, 14, 64, 84
16, 337289, Note_on_c, 14, 64, 0
16, 337320, Note_on_c, 14, 64, 84
16, 337409, Note_on_c, 14, 64, 0
16, 337440, Note_on_c, 14, 57, 92
16, 338024, Note_on_c, 14, 57, 0
16, 338040, Note_on_c, 14, 57, 84
16, 338159, Note_on_c, 14, 57, 0
16, 338160, Note_on_c, 14, 55, 84
16, 338279, Note_on_c, 14, 55, 0
16, 338280, Note_on_c, 14, 54, 84
16, 338384, Note_on_c, 14, 54, 0
16, 338400, Note_on_c, 14, 55, 92
16, 338984, Note_on_c, 14, 55, 0
16, 339000, Note_on_c, 14, 55, 84
16, 339119, Note_on_c, 14, 55, 0
16, 339120, Note_on_c, 14, 54, 84
16, 339239, Note_on_c, 14, 54, 0
16, 339240, Note_on_c, 14, 53, 84
16, 339344, Note_on_c, 14, 53, 0
16, 339360, Note_on_c, 14, 54, 92
16, 339944, Note_on_c, 14, 54, 0
16, 339960, Note_on_c, 14, 54, 84
16, 340079, Note_on_c, 14, 54, 0
16, 340080, Note_on_c, 14, 52, 84
16, 340199, Note_on_c, 14, 52, 0
16, 340200, Note_on_c, 14, 51, 84
16, 340304, Note_on_c, 14, 51, 0
16, 340320, Note_on_c, 14, 52, 92
16, 340904, Note_on_c, 14, 52, 0
16, 340920, Note_on_c, 14, 52, 84
16, 341039, Note_on_c, 14, 52, 0
16, 341040, Note_on_c, 14, 50, 84
16, 341159, Note_on_c, 14, 50, 0
16, 341160, Note_on_c, 14, 49, 84
16, 341264, Note_on_c, 14, 49, 0
16, 341280, Note_on_c, 14, 50, 92
16, 341369, Note_on_c, 14, 50, 0
16, 341400, Note_on_c, 14, 57, 84
16, 341519, Note_on_c, 14, 57, 0
16, 341520, Note_on_c, 14, 55, 84
16, 341639, Note_on_c, 14, 55, 0
16, 341640, Note_on_c, 14, 54, 84
16, 341744, Note_on_c, 14, 54, 0
16, 341760, Note_on_c, 14, 55, 92
16, 341849, Note_on_c, 14, 55, 0
16, 341880, Note_on_c, 14, 55, 84
16, 341999, Note_on_c, 14, 55, 0
16, 342000, Note_on_c, 14, 54, 84
16, 342119, Note_on_c, 14, 54, 0
16, 342120, Note_on_c, 14, 53, 84
16, 342224, Note_on_c, 14, 53, 0
16, 342240, Note_on_c, 14, 54, 92
16, 342329, Note_on_c, 14, 54, 0
16, 342360, Note_on_c, 14, 54, 84
16, 342479, Note_on_c, 14, 54, 0
16, 342480, Note_on_c, 14, 52, 84
16, 342599, Note_on_c, 14, 52, 0
16, 342600, Note_on_c, 14, 51, 84
16, 342704, Note_on_c, 14, 51, 0
16, 342720, Note_on_c, 14, 52, 92
16, 342809, Note_on_c, 14, 52, 0
16, 342840, Note_on_c, 14, 52, 84
16, 342959, Note_on_c, 14, 52, 0
16, 342960, Note_on_c, 14, 50, 84
16, 343079, Note_on_c, 14, 50, 0
16, 343080, Note_on_c, 14, 49, 84
16, 343184, Note_on_c, 14, 49, 0
16, 343200, Note_on_c, 14, 50, 92
16, 343289, Note_on_c, 14, 50, 0
16, 343320, Note_on_c, 14, 62, 84
16, 343439, Note_on_c, 14, 62, 0
16, 343440, Note_on_c, 14, 61, 84
16, 343559, Note_on_c, 14, 61, 0
16, 343560, Note_on_c, 14, 59, 84
16, 343664, Note_on_c, 14, 59, 0
16, 343680, Note_on_c, 14, 61, 92
16, 343769, Note_on_c, 14, 61, 0
16, 343800, Note_on_c, 14, 61, 84
16, 343919, Note_on_c, 14, 61, 0
16, 343920, Note_on_c, 14, 59, 84
16, 344039, Note_on_c, 14, 59, 0
16, 344040, Note_on_c, 14, 58, 84
16, 344144, Note_on_c, 14, 58, 0
16, 344160, Note_on_c, 14, 59, 92
16, 344249, Note_on_c, 14, 59, 0
16, 344280, Note_on_c, 14, 59, 84
16, 344399, Note_on_c, 14, 59, 0
16, 344400, Note_on_c, 14, 57, 84
16, 344519, Note_on_c, 14, 57, 0
16, 344520, Note_on_c, 14, 55, 84
16, 344624, Note_on_c, 14, 55, 0
16, 344640, Note_on_c, 14, 57, 92
16, 344729, Note_on_c, 14, 57, 0
16, 344760, Note_on_c, 14, 57, 84
16, 344879, Note_on_c, 14, 57, 0
16, 344880, Note_on_c, 14, 55, 84
16, 344999, Note_on_c, 14, 55, 0
16, 345000, Note_on_c, 14, 54, 84
16, 345104, Note_on_c, 14, 54, 0
16, 345120, Note_on_c, 14, 55, 84
16, 345299, Note_on_c, 14, 55, 0
16, 346080, Note_on_c, 14, 52, 84
16, 346259, Note_on_c, 14, 52, 0
16, 347040, Note_on_c, 14, 49, 84
16, 347219, Note_on_c, 14, 49, 0
16, 347520, Note_on_c, 14, 50, 84
16, 347699, Note_on_c, 14, 50, 0
16, 348000, Note_on_c, 14, 43, 84
16, 348179, Note_on_c, 14, 43, 0
16, 348480, Note_on_c, 14, 45, 84
16, 348659, Note_on_c, 14, 45, 0
16, 348960, Note_on_c, 14, 58, 84
16, 349199, Note_on_c, 14, 58, 0
16, 349920, Note_on_c, 14, 61, 84
16, 350159, Note_on_c, 14, 61, 0
16, 351600, Note_on_c, 14, 52, 44
16, 351659, Note_on_c, 14, 52, 0
16, 351660, Note_on_c, 14, 51, 44
16, 351719, Note_on_c, 14, 51, 0
16, 351720, Note_on_c, 14, 52, 44
16, 351779, Note_on_c, 14, 52, 0
16, 351780, Note_on_c, 14, 53, 44
16, 351831, Note_on_c, 14, 53, 0
16, 351840, Note_on_c, 14, 55, 44
16, 352019, Note_on_c, 14, 55, 0
16, 352560, Note_on_c, 14, 53, 44
16, 352619, Note_on_c, 14, 53, 0
16, 352620, Note_on_c, 14, 52, 44
16, 352679, Note_on_c, 14, 52, 0
16, 352680, Note_on_c, 14, 53, 44
16, 352739, Note_on_c, 14, 53, 0
16, 352740, Note_on_c, 14, 55, 44
16, 352791, Note_on_c, 14, 55, 0
16, 352800, Note_on_c, 14, 57, 44
16, 352979, Note_on_c, 14, 57, 0
16, 353040, Control_c, 14, 11, 80
16, 353520, Note_on_c, 14, 55, 68
16, 353579, Note_on_c, 14, 55, 0
16, 353580, Note_on_c, 14, 54, 68
16, 353639, Note_on_c, 14, 54, 0
16, 353640, Note_on_c, 14, 55, 68
16, 353699, Note_on_c, 14, 55, 0
16, 353700, Note_on_c, 14, 57, 68
16, 353751, Note_on_c, 14, 57, 0
16, 353760, Note_on_c, 14, 58, 68
16, 353760, Control_c, 14, 11, 80
16, 353880, Control_c, 14, 11, 82
16, 353939, Note_on_c, 14, 58, 0
16, 354000, Control_c, 14, 11, 84
16, 354000, Note_on_c, 14, 57, 68
16, 354059, Note_on_c, 14, 57, 0
16, 354060, Note_on_c, 14, 56, 68
16, 354119, Note_on_c, 14, 56, 0
16, 354120, Control_c, 14, 11, 86
16, 354120, Note_on_c, 14, 57, 68
16, 354179, Note_on_c, 14, 57, 0
16, 354180, Note_on_c, 14, 59, 68
16, 354231, Note_on_c, 14, 59, 0
16, 354240, Control_c, 14, 11, 88
16, 354240, Note_on_c, 14, 60, 68
16, 354360, Control_c, 14, 11, 90
16, 354419, Note_on_c, 14, 60, 0
16, 354480, Control_c, 14, 11, 92
16, 354480, Note_on_c, 14, 59, 68
16, 354539, Note_on_c, 14, 59, 0
16, 354540, Note_on_c, 14, 58, 68
16, 354599, Note_on_c, 14, 58, 0
16, 354600, Control_c, 14, 11, 94
16, 354600, Note_on_c, 14, 59, 68
16, 354659, Note_on_c, 14, 59, 0
16, 354660, Note_on_c, 14, 61, 68
16, 354711, Note_on_c, 14, 61, 0
16, 354720, Control_c, 14, 11, 96
16, 354720, Note_on_c, 14, 62, 68
16, 354840, Control_c, 14, 11, 98
16, 354899, Note_on_c, 14, 62, 0
16, 354960, Control_c, 14, 11, 100
16, 354960, Note_on_c, 14, 49, 68
16, 355019, Note_on_c, 14, 49, 0
16, 355020, Note_on_c, 14, 48, 68
16, 355079, Note_on_c, 14, 48, 0
16, 355080, Control_c, 14, 11, 102
16, 355080, Note_on_c, 14, 49, 68
16, 355139, Note_on_c, 14, 49, 0
16, 355140, Note_on_c, 14, 50, 68
16, 355191, Note_on_c, 14, 50, 0
16, 355200, Control_c, 14, 11, 104
16, 355200, Note_on_c, 14, 52, 68
16, 355320, Control_c, 14, 11, 105
16, 355379, Note_on_c, 14, 52, 0
16, 355440, Control_c, 14, 11, 107
16, 355440, Note_on_c, 14, 50, 68
16, 355499, Note_on_c, 14, 50, 0
16, 355500, Note_on_c, 14, 49, 68
16, 355559, Note_on_c, 14, 49, 0
16, 355560, Note_on_c, 14, 50, 68
16, 355560, Control_c, 14, 11, 109
16, 355619, Note_on_c, 14, 50, 0
16, 355620, Note_on_c, 14, 52, 68
16, 355671, Note_on_c, 14, 52, 0
16, 355680, Control_c, 14, 11, 111
16, 355680, Note_on_c, 14, 53, 68
16, 355800, Control_c, 14, 11, 113
16, 355859, Note_on_c, 14, 53, 0
16, 355920, Control_c, 14, 11, 115
16, 355920, Note_on_c, 14, 50, 68
16, 355979, Note_on_c, 14, 50, 0
16, 355980, Note_on_c, 14, 49, 68
16, 356039, Note_on_c, 14, 49, 0
16, 356040, Control_c, 14, 11, 117
16, 356040, Note_on_c, 14, 50, 68
16, 356099, Note_on_c, 14, 50, 0
16, 356100, Note_on_c, 14, 52, 68
16, 356151, Note_on_c, 14, 52, 0
16, 356160, Note_on_c, 14, 53, 68
16, 356160, Control_c, 14, 11, 119
16, 356280, Control_c, 14, 11, 121
16, 356339, Note_on_c, 14, 53, 0
16, 356400, Note_on_c, 14, 50, 68
16, 356400, Control_c, 14, 11, 123
16, 356459, Note_on_c, 14, 50, 0
16, 356460, Note_on_c, 14, 49, 68
16, 356519, Note_on_c, 14, 49, 0
16, 356520, Control_c, 14, 11, 125
16, 356520, Note_on_c, 14, 50, 68
16, 356579, Note_on_c, 14, 50, 0
16, 356580, Note_on_c, 14, 52, 68
16, 356631, Note_on_c, 14, 52, 0
16, 356640, Control_c, 14, 11, 127
16, 356640, Note_on_c, 14, 53, 76
16, 357584, Note_on_c, 14, 53, 0
16, 357600, Note_on_c, 14, 44, 76
16, 358544, Note_on_c, 14, 44, 0
16, 358560, Note_on_c, 14, 45, 84
16, 358664, Note_on_c, 14, 45, 0
16, 358680, Note_on_c, 14, 57, 84
16, 358784, Note_on_c, 14, 57, 0
16, 358800, Note_on_c, 14, 57, 84
16, 358904, Note_on_c, 14, 57, 0
16, 358920, Note_on_c, 14, 57, 84
16, 359024, Note_on_c, 14, 57, 0
16, 359040, Note_on_c, 14, 57, 84
16, 359144, Note_on_c, 14, 57, 0
16, 359160, Note_on_c, 14, 57, 84
16, 359264, Note_on_c, 14, 57, 0
16, 359280, Note_on_c, 14, 57, 84
16, 359384, Note_on_c, 14, 57, 0
16, 359400, Note_on_c, 14, 57, 84
16, 359504, Note_on_c, 14, 57, 0
16, 359520, Note_on_c, 14, 45, 84
16, 359624, Note_on_c, 14, 45, 0
16, 359640, Note_on_c, 14, 57, 84
16, 359744, Note_on_c, 14, 57, 0
16, 359760, Note_on_c, 14, 57, 84
16, 359864, Note_on_c, 14, 57, 0
16, 359880, Note_on_c, 14, 57, 84
16, 359984, Note_on_c, 14, 57, 0
16, 360000, Note_on_c, 14, 45, 84
16, 360104, Note_on_c, 14, 45, 0
16, 360120, Note_on_c, 14, 57, 84
16, 360224, Note_on_c, 14, 57, 0
16, 360240, Note_on_c, 14, 57, 84
16, 360344, Note_on_c, 14, 57, 0
16, 360360, Note_on_c, 14, 57, 84
16, 360464, Note_on_c, 14, 57, 0
16, 360480, Note_on_c, 14, 50, 84
16, 360719, Note_on_c, 14, 50, 0
16, 362400, Note_on_c, 14, 55, 84
16, 363104, Note_on_c, 14, 55, 0
16, 363120, Note_on_c, 14, 55, 84
16, 363299, Note_on_c, 14, 55, 0
16, 363360, Note_on_c, 14, 50, 84
16, 363539, Note_on_c, 14, 50, 0
16, 363600, Note_on_c, 14, 46, 84
16, 363779, Note_on_c, 14, 46, 0
16, 363840, Note_on_c, 14, 45, 84
16, 364019, Note_on_c, 14, 45, 0
16, 364080, Note_on_c, 14, 43, 84
16, 364259, Note_on_c, 14, 43, 0
16, 364320, Note_on_c, 14, 50, 84
16, 364559, Note_on_c, 14, 50, 0
16, 366240, Note_on_c, 14, 55, 84
16, 366944, Note_on_c, 14, 55, 0
16, 366960, Note_on_c, 14, 55, 84
16, 367139, Note_on_c, 14, 55, 0
16, 367200, Note_on_c, 14, 50, 84
16, 367379, Note_on_c, 14, 50, 0
16, 367440, Note_on_c, 14, 46, 84
16, 367619, Note_on_c, 14, 46, 0
16, 367680, Note_on_c, 14, 45, 84
16, 367859, Note_on_c, 14, 45, 0
16, 367920, Note_on_c, 14, 43, 84
16, 368099, Note_on_c, 14, 43, 0
16, 368160, Note_on_c, 14, 50, 52
16, 368339, Note_on_c, 14, 50, 0
16, 368400, Note_on_c, 14, 58, 52
16, 368639, Note_on_c, 14, 58, 0
16, 368640, Note_on_c, 14, 57, 52
16, 368879, Note_on_c, 14, 57, 0
16, 368880, Note_on_c, 14, 55, 76
16, 369104, Note_on_c, 14, 55, 0
16, 369120, Note_on_c, 14, 50, 52
16, 369299, Note_on_c, 14, 50, 0
16, 369360, Note_on_c, 14, 58, 52
16, 369599, Note_on_c, 14, 58, 0
16, 369600, Note_on_c, 14, 57, 52
16, 369839, Note_on_c, 14, 57, 0
16, 369840, Note_on_c, 14, 55, 76
16, 370064, Note_on_c, 14, 55, 0
16, 370080, Note_on_c, 14, 50, 52
16, 370259, Note_on_c, 14, 50, 0
16, 370320, Note_on_c, 14, 58, 52
16, 370559, Note_on_c, 14, 58, 0
16, 370560, Note_on_c, 14, 57, 52
16, 370799, Note_on_c, 14, 57, 0
16, 370800, Note_on_c, 14, 55, 76
16, 371024, Note_on_c, 14, 55, 0
16, 371040, Note_on_c, 14, 50, 52
16, 371219, Note_on_c, 14, 50, 0
16, 371280, Note_on_c, 14, 58, 52
16, 371519, Note_on_c, 14, 58, 0
16, 371520, Note_on_c, 14, 57, 52
16, 371759, Note_on_c, 14, 57, 0
16, 371760, Note_on_c, 14, 55, 76
16, 371984, Note_on_c, 14, 55, 0
16, 372000, Note_on_c, 14, 50, 52
16, 372224, Note_on_c, 14, 50, 0
16, 372240, Note_on_c, 14, 55, 76
16, 372464, Note_on_c, 14, 55, 0
16, 372480, Note_on_c, 14, 50, 52
16, 372704, Note_on_c, 14, 50, 0
16, 372720, Note_on_c, 14, 55, 76
16, 372944, Note_on_c, 14, 55, 0
16, 372960, Note_on_c, 14, 50, 52
16, 373184, Note_on_c, 14, 50, 0
16, 373200, Note_on_c, 14, 55, 76
16, 373424, Note_on_c, 14, 55, 0
16, 373440, Note_on_c, 14, 50, 52
16, 373664, Note_on_c, 14, 50, 0
16, 373680, Note_on_c, 14, 55, 76
16, 373904, Note_on_c, 14, 55, 0
16, 373920, Note_on_c, 14, 50, 84
16, 375824, Note_on_c, 14, 50, 0
16, 375840, Note_on_c, 14, 50, 84
16, 376904, Note_on_c, 14, 50, 0
16, 376920, Note_on_c, 14, 62, 84
16, 377024, Note_on_c, 14, 62, 0
16, 377040, Note_on_c, 14, 57, 84
16, 377144, Note_on_c, 14, 57, 0
16, 377160, Note_on_c, 14, 54, 84
16, 377264, Note_on_c, 14, 54, 0
16, 377280, Note_on_c, 14, 50, 84
16, 377384, Note_on_c, 14, 50, 0
16, 377400, Note_on_c, 14, 62, 84
16, 377504, Note_on_c, 14, 62, 0
16, 377520, Note_on_c, 14, 57, 84
16, 377624, Note_on_c, 14, 57, 0
16, 377640, Note_on_c, 14, 54, 84
16, 377744, Note_on_c, 14, 54, 0
16, 377760, Note_on_c, 14, 50, 84
16, 377999, Note_on_c, 14, 50, 0
16, 378720, Note_on_c, 14, 50, 76
16, 378959, Note_on_c, 14, 50, 0
16, 381480, Note_on_c, 14, 50, 52
16, 381519, Note_on_c, 14, 50, 0
16, 381520, Note_on_c, 14, 52, 52
16, 381559, Note_on_c, 14, 52, 0
16, 381560, Note_on_c, 14, 54, 52
16, 381591, Note_on_c, 14, 54, 0
16, 381600, Note_on_c, 14, 55, 52
16, 381839, Note_on_c, 14, 55, 0
16, 383400, Note_on_c, 14, 47, 52
16, 383439, Note_on_c, 14, 47, 0
16, 383440, Note_on_c, 14, 49, 52
16, 383479, Note_on_c, 14, 49, 0
16, 383480, Note_on_c, 14, 51, 52
16, 383511, Note_on_c, 14, 51, 0
16, 383520, Note_on_c, 14, 52, 52
16, 383759, Note_on_c, 14, 52, 0
16, 385320, Note_on_c, 14, 45, 52
16, 385359, Note_on_c, 14, 45, 0
16, 385360, Note_on_c, 14, 47, 52
16, 385399, Note_on_c, 14, 47, 0
16, 385400, Note_on_c, 14, 49, 52
16, 385431, Note_on_c, 14, 49, 0
16, 385440, Note_on_c, 14, 50, 76
16, 385619, Note_on_c, 14, 50, 0
16, 385680, Note_on_c, 14, 62, 84
16, 386159, Note_on_c, 14, 62, 0
16, 386160, Note_on_c, 14, 61, 76
16, 386384, Note_on_c, 14, 61, 0
16, 386400, Note_on_c, 14, 59, 84
16, 386639, Note_on_c, 14, 59, 0
16, 386640, Note_on_c, 14, 57, 76
16, 386879, Note_on_c, 14, 57, 0
16, 386880, Note_on_c, 14, 55, 76
16, 387119, Note_on_c, 14, 55, 0
16, 387120, Note_on_c, 14, 54, 76
16, 387344, Note_on_c, 14, 54, 0
16, 387360, Note_on_c, 14, 52, 76
16, 387539, Note_on_c, 14, 52, 0
16, 387600, Note_on_c, 14, 64, 84
16, 388079, Note_on_c, 14, 64, 0
16, 388080, Note_on_c, 14, 62, 76
16, 388304, Note_on_c, 14, 62, 0
16, 388320, Note_on_c, 14, 61, 84
16, 388559, Note_on_c, 14, 61, 0
16, 388560, Note_on_c, 14, 59, 76
16, 388799, Note_on_c, 14, 59, 0
16, 388800, Note_on_c, 14, 57, 76
16, 389039, Note_on_c, 14, 57, 0
16, 389040, Note_on_c, 14, 55, 76
16, 389264, Note_on_c, 14, 55, 0
16, 389280, Note_on_c, 14, 54, 76
16, 389369, Note_on_c, 14, 54, 0
16, 389400, Note_on_c, 14, 66, 84
16, 389624, Note_on_c, 14, 66, 0
16, 389640, Note_on_c, 14, 64, 76
16, 389729, Note_on_c, 14, 64, 0
16, 389760, Note_on_c, 14, 62, 76
16, 389849, Note_on_c, 14, 62, 0
16, 389880, Note_on_c, 14, 60, 76
16, 389969, Note_on_c, 14, 60, 0
16, 390000, Note_on_c, 14, 59, 76
16, 390089, Note_on_c, 14, 59, 0
16, 390120, Note_on_c, 14, 57, 76
16, 390209, Note_on_c, 14, 57, 0
16, 390240, Note_on_c, 14, 55, 76
16, 390329, Note_on_c, 14, 55, 0
16, 390360, Note_on_c, 14, 67, 84
16, 390584, Note_on_c, 14, 67, 0
16, 390600, Note_on_c, 14, 66, 76
16, 390689, Note_on_c, 14, 66, 0
16, 390720, Note_on_c, 14, 64, 76
16, 390809, Note_on_c, 14, 64, 0
16, 390840, Note_on_c, 14, 62, 76
16, 390929, Note_on_c, 14, 62, 0
16, 390960, Note_on_c, 14, 61, 76
16, 391049, Note_on_c, 14, 61, 0
16, 391080, Note_on_c, 14, 59, 76
16, 391169, Note_on_c, 14, 59, 0
16, 391200, Note_on_c, 14, 57, 76
16, 391260, Control_c, 14, 11, 80
16, 393089, Note_on_c, 14, 57, 0
16, 393105, Control_c, 14, 11, 127
16, 393120, Note_on_c, 14, 45, 84
16, 393224, Note_on_c, 14, 45, 0
16, 393240, Note_on_c, 14, 57, 84
16, 393344, Note_on_c, 14, 57, 0
16, 393360, Note_on_c, 14, 57, 84
16, 393464, Note_on_c, 14, 57, 0
16, 393480, Note_on_c, 14, 57, 84
16, 393584, Note_on_c, 14, 57, 0
16, 393600, Note_on_c, 14, 57, 84
16, 393704, Note_on_c, 14, 57, 0
16, 393720, Note_on_c, 14, 57, 84
16, 393824, Note_on_c, 14, 57, 0
16, 393840, Note_on_c, 14, 57, 84
16, 393944, Note_on_c, 14, 57, 0
16, 393960, Note_on_c, 14, 57, 84
16, 394064, Note_on_c, 14, 57, 0
16, 395040, Note_on_c, 14, 44, 84
16, 395144, Note_on_c, 14, 44, 0
16, 395160, Note_on_c, 14, 56, 84
16, 395264, Note_on_c, 14, 56, 0
16, 395280, Note_on_c, 14, 56, 84
16, 395384, Note_on_c, 14, 56, 0
16, 395400, Note_on_c, 14, 56, 84
16, 395504, Note_on_c, 14, 56, 0
16, 395520, Note_on_c, 14, 56, 84
16, 395624, Note_on_c, 14, 56, 0
16, 395640, Note_on_c, 14, 56, 84
16, 395744, Note_on_c, 14, 56, 0
16, 395760, Note_on_c, 14, 56, 84
16, 395864, Note_on_c, 14, 56, 0
16, 395880, Note_on_c, 14, 56, 84
16, 395984, Note_on_c, 14, 56, 0
16, 396000, Note_on_c, 14, 45, 84
16, 396104, Note_on_c, 14, 45, 0
16, 396120, Note_on_c, 14, 57, 84
16, 396224, Note_on_c, 14, 57, 0
16, 396240, Note_on_c, 14, 57, 84
16, 396344, Note_on_c, 14, 57, 0
16, 396360, Note_on_c, 14, 57, 84
16, 396464, Note_on_c, 14, 57, 0
16, 396480, Note_on_c, 14, 45, 84
16, 396584, Note_on_c, 14, 45, 0
16, 396600, Note_on_c, 14, 57, 84
16, 396704, Note_on_c, 14, 57, 0
16, 396720, Note_on_c, 14, 57, 84
16, 396824, Note_on_c, 14, 57, 0
16, 396840, Note_on_c, 14, 57, 84
16, 396944, Note_on_c, 14, 57, 0
16, 396960, Note_on_c, 14, 50, 84
16, 397199, Note_on_c, 14, 50, 0
16, 398880, Note_on_c, 14, 50, 84
16, 398984, Note_on_c, 14, 50, 0
16, 399000, Note_on_c, 14, 62, 84
16, 399104, Note_on_c, 14, 62, 0
16, 399120, Note_on_c, 14, 62, 84
16, 399224, Note_on_c, 14, 62, 0
16, 399240, Note_on_c, 14, 62, 84
16, 399344, Note_on_c, 14, 62, 0
16, 399360, Note_on_c, 14, 62, 84
16, 399464, Note_on_c, 14, 62, 0
16, 399480, Note_on_c, 14, 62, 84
16, 399584, Note_on_c, 14, 62, 0
16, 399600, Note_on_c, 14, 62, 84
16, 399704, Note_on_c, 14, 62, 0
16, 399720, Note_on_c, 14, 62, 84
16, 399824, Note_on_c, 14, 62, 0
16, 400800, Note_on_c, 14, 50, 84
16, 401744, Note_on_c, 14, 50, 0
16, 401760, Note_on_c, 14, 51, 84
16, 402704, Note_on_c, 14, 51, 0
16, 402720, Note_on_c, 14, 52, 84
16, 403184, Note_on_c, 14, 52, 0
16, 403200, Note_on_c, 14, 53, 84
16, 403664, Note_on_c, 14, 53, 0
16, 403680, Note_on_c, 14, 54, 84
16, 404624, Note_on_c, 14, 54, 0
16, 404640, Note_on_c, 14, 55, 84
16, 405104, Note_on_c, 14, 55, 0
16, 405120, Note_on_c, 14, 56, 84
16, 405584, Note_on_c, 14, 56, 0
16, 405600, Note_on_c, 14, 57, 84
16, 406544, Note_on_c, 14, 57, 0
16, 406560, Note_on_c, 14, 58, 84
16, 407024, Note_on_c, 14, 58, 0
16, 407040, Note_on_c, 14, 59, 84
16, 407504, Note_on_c, 14, 59, 0
16, 407520, Note_on_c, 14, 60, 84
16, 408464, Note_on_c, 14, 60, 0
16, 408480, Note_on_c, 14, 61, 84
16, 408944, Note_on_c, 14, 61, 0
16, 408960, Note_on_c, 14, 62, 84
16, 409424, Note_on_c, 14, 62, 0
16, 409440, Note_on_c, 14, 51, 84
16, 409529, Note_on_c, 14, 51, 0
16, 409560, Note_on_c, 14, 63, 84
16, 409649, Note_on_c, 14, 63, 0
16, 409680, Note_on_c, 14, 63, 84
16, 409769, Note_on_c, 14, 63, 0
16, 409800, Note_on_c, 14, 63, 84
16, 409889, Note_on_c, 14, 63, 0
16, 409920, Note_on_c, 14, 47, 84
16, 410009, Note_on_c, 14, 47, 0
16, 410040, Note_on_c, 14, 59, 84
16, 410129, Note_on_c, 14, 59, 0
16, 410160, Note_on_c, 14, 59, 84
16, 410249, Note_on_c, 14, 59, 0
16, 410280, Note_on_c, 14, 59, 84
16, 410369, Note_on_c, 14, 59, 0
16, 410400, Note_on_c, 14, 52, 84
16, 410489, Note_on_c, 14, 52, 0
16, 410520, Note_on_c, 14, 64, 84
16, 410609, Note_on_c, 14, 64, 0
16, 410640, Note_on_c, 14, 64, 84
16, 410729, Note_on_c, 14, 64, 0
16, 410760, Note_on_c, 14, 64, 84
16, 410849, Note_on_c, 14, 64, 0
16, 410880, Note_on_c, 14, 49, 84
16, 410969, Note_on_c, 14, 49, 0
16, 411000, Note_on_c, 14, 61, 84
16, 411089, Note_on_c, 14, 61, 0
16, 411120, Note_on_c, 14, 61, 84
16, 411209, Note_on_c, 14, 61, 0
16, 411240, Note_on_c, 14, 61, 84
16, 411329, Note_on_c, 14, 61, 0
16, 411360, Note_on_c, 14, 50, 84
16, 411449, Note_on_c, 14, 50, 0
16, 411480, Note_on_c, 14, 62, 84
16, 411569, Note_on_c, 14, 62, 0
16, 411600, Note_on_c, 14, 62, 84
16, 411689, Note_on_c, 14, 62, 0
16, 411720, Note_on_c, 14, 62, 84
16, 411809, Note_on_c, 14, 62, 0
16, 411840, Note_on_c, 14, 47, 84
16, 411929, Note_on_c, 14, 47, 0
16, 411960, Note_on_c, 14, 59, 84
16, 412049, Note_on_c, 14, 59, 0
16, 412080, Note_on_c, 14, 59, 84
16, 412169, Note_on_c, 14, 59, 0
16, 412200, Note_on_c, 14, 59, 84
16, 412289, Note_on_c, 14, 59, 0
16, 412320, Note_on_c, 14, 43, 92
16, 412409, Note_on_c, 14, 43, 0
16, 412440, Note_on_c, 14, 55, 84
16, 412529, Note_on_c, 14, 55, 0
16, 412560, Note_on_c, 14, 55, 84
16, 412649, Note_on_c, 14, 55, 0
16, 412680, Note_on_c, 14, 55, 84
16, 412769, Note_on_c, 14, 55, 0
16, 412800, Note_on_c, 14, 55, 84
16, 412889, Note_on_c, 14, 55, 0
16, 412920, Note_on_c, 14, 55, 84
16, 413009, Note_on_c, 14, 55, 0
16, 413040, Note_on_c, 14, 55, 84
16, 413129, Note_on_c, 14, 55, 0
16, 413160, Note_on_c, 14, 55, 84
16, 413249, Note_on_c, 14, 55, 0
16, 413280, Note_on_c, 14, 45, 92
16, 413369, Note_on_c, 14, 45, 0
16, 413400, Note_on_c, 14, 57, 84
16, 413489, Note_on_c, 14, 57, 0
16, 413520, Note_on_c, 14, 57, 84
16, 413609, Note_on_c, 14, 57, 0
16, 413640, Note_on_c, 14, 57, 84
16, 413729, Note_on_c, 14, 57, 0
16, 413760, Note_on_c, 14, 45, 84
16, 413849, Note_on_c, 14, 45, 0
16, 413880, Note_on_c, 14, 57, 84
16, 413969, Note_on_c, 14, 57, 0
16, 414000, Note_on_c, 14, 57, 84
16, 414089, Note_on_c, 14, 57, 0
16, 414120, Note_on_c, 14, 57, 84
16, 414209, Note_on_c, 14, 57, 0
16, 414240, Note_on_c, 14, 50, 84
16, 414329, Note_on_c, 14, 50, 0
16, 414360, Note_on_c, 14, 62, 84
16, 414449, Note_on_c, 14, 62, 0
16, 414480, Note_on_c, 14, 61, 84
16, 414569, Note_on_c, 14, 61, 0
16, 414600, Note_on_c, 14, 59, 84
16, 414689, Note_on_c, 14, 59, 0
16, 414720, Note_on_c, 14, 57, 84
16, 414809, Note_on_c, 14, 57, 0
16, 414840, Note_on_c, 14, 59, 84
16, 414929, Note_on_c, 14, 59, 0
16, 414960, Note_on_c, 14, 57, 84
16, 415049, Note_on_c, 14, 57, 0
16, 415080, Note_on_c, 14, 55, 84
16, 415169, Note_on_c, 14, 55, 0
16, 415200, Note_on_c, 14, 54, 84
16, 415289, Note_on_c, 14, 54, 0
16, 415320, Note_on_c, 14, 59, 84
16, 415409, Note_on_c, 14, 59, 0
16, 415440, Note_on_c, 14, 57, 84
16, 415529, Note_on_c, 14, 57, 0
16, 415560, Note_on_c, 14, 55, 84
16, 415649, Note_on_c, 14, 55, 0
16, 415680, Note_on_c, 14, 54, 84
16, 415769, Note_on_c, 14, 54, 0
16, 415800, Note_on_c, 14, 55, 84
16, 415889, Note_on_c, 14, 55, 0
16, 415920, Note_on_c, 14, 54, 84
16, 416009, Note_on_c, 14, 54, 0
16, 416040, Note_on_c, 14, 52, 84
16, 416129, Note_on_c, 14, 52, 0
16, 416160, Note_on_c, 14, 50, 84
16, 416249, Note_on_c, 14, 50, 0
16, 416280, Note_on_c, 14, 47, 84
16, 416369, Note_on_c, 14, 47, 0
16, 416400, Note_on_c, 14, 45, 84
16, 416489, Note_on_c, 14, 45, 0
16, 416520, Note_on_c, 14, 43, 84
16, 416609, Note_on_c, 14, 43, 0
16, 416640, Note_on_c, 14, 42, 84
16, 416729, Note_on_c, 14, 42, 0
16, 416760, Note_on_c, 14, 45, 84
16, 416849, Note_on_c, 14, 45, 0
16, 416880, Note_on_c, 14, 50, 84
16, 416969, Note_on_c, 14, 50, 0
16, 417000, Note_on_c, 14, 54, 84
16, 417089, Note_on_c, 14, 54, 0
16, 417120, Note_on_c, 14, 43, 84
16, 417209, Note_on_c, 14, 43, 0
16, 417240, Note_on_c, 14, 47, 84
16, 417329, Note_on_c, 14, 47, 0
16, 417360, Note_on_c, 14, 52, 84
16, 417449, Note_on_c, 14, 52, 0
16, 417480, Note_on_c, 14, 55, 84
16, 417569, Note_on_c, 14, 55, 0
16, 417600, Note_on_c, 14, 45, 84
16, 417689, Note_on_c, 14, 45, 0
16, 417720, Note_on_c, 14, 49, 84
16, 417809, Note_on_c, 14, 49, 0
16, 417840, Note_on_c, 14, 52, 84
16, 417929, Note_on_c, 14, 52, 0
16, 417960, Note_on_c, 14, 57, 84
16, 418049, Note_on_c, 14, 57, 0
16, 418080, Note_on_c, 14, 50, 84
16, 418169, Note_on_c, 14, 50, 0
16, 418200, Note_on_c, 14, 62, 84
16, 418289, Note_on_c, 14, 62, 0
16, 418320, Note_on_c, 14, 61, 84
16, 418409, Note_on_c, 14, 61, 0
16, 418440, Note_on_c, 14, 59, 84
16, 418529, Note_on_c, 14, 59, 0
16, 418560, Note_on_c, 14, 57, 84
16, 418649, Note_on_c, 14, 57, 0
16, 418680, Note_on_c, 14, 59, 84
16, 418769, Note_on_c, 14, 59, 0
16, 418800, Note_on_c, 14, 57, 84
16, 418889, Note_on_c, 14, 57, 0
16, 418920, Note_on_c, 14, 55, 84
16, 419009, Note_on_c, 14, 55, 0
16, 419040, Note_on_c, 14, 54, 84
16, 419129, Note_on_c, 14, 54, 0
16, 419160, Note_on_c, 14, 59, 84
16, 419249, Note_on_c, 14, 59, 0
16, 419280, Note_on_c, 14, 57, 84
16, 419369, Note_on_c, 14, 57, 0
16, 419400, Note_on_c, 14, 55, 84
16, 419489, Note_on_c, 14, 55, 0
16, 419520, Note_on_c, 14, 54, 84
16, 419609, Note_on_c, 14, 54, 0
16, 419640, Note_on_c, 14, 55, 84
16, 419729, Note_on_c, 14, 55, 0
16, 419760, Note_on_c, 14, 54, 84
16, 419849, Note_on_c, 14, 54, 0
16, 419880, Note_on_c, 14, 52, 84
16, 419969, Note_on_c, 14, 52, 0
16, 420000, Note_on_c, 14, 50, 84
16, 420089, Note_on_c, 14, 50, 0
16, 420120, Note_on_c, 14, 47, 84
16, 420209, Note_on_c, 14, 47, 0
16, 420240, Note_on_c, 14, 45, 84
16, 420329, Note_on_c, 14, 45, 0
16, 420360, Note_on_c, 14, 43, 84
16, 420449, Note_on_c, 14, 43, 0
16, 420480, Note_on_c, 14, 42, 84
16, 420569, Note_on_c, 14, 42, 0
16, 420600, Note_on_c, 14, 45, 84
16, 420689, Note_on_c, 14, 45, 0
16, 420720, Note_on_c, 14, 50, 84
16, 420809, Note_on_c, 14, 50, 0
16, 420840, Note_on_c, 14, 54, 84
16, 420929, Note_on_c, 14, 54, 0
16, 420960, Note_on_c, 14, 43, 84
16, 421049, Note_on_c, 14, 43, 0
16, 421080, Note_on_c, 14, 47, 84
16, 421169, Note_on_c, 14, 47, 0
16, 421200, Note_on_c, 14, 52, 84
16, 421289, Note_on_c, 14, 52, 0
16, 421320, Note_on_c, 14, 55, 84
16, 421409, Note_on_c, 14, 55, 0
16, 421440, Note_on_c, 14, 45, 84
16, 421529, Note_on_c, 14, 45, 0
16, 421560, Note_on_c, 14, 49, 84
16, 421649, Note_on_c, 14, 49, 0
16, 421680, Note_on_c, 14, 52, 84
16, 421769, Note_on_c, 14, 52, 0
16, 421800, Note_on_c, 14, 57, 84
16, 421889, Note_on_c, 14, 57, 0
16, 421920, Note_on_c, 14, 54, 84
16, 422009, Note_on_c, 14, 54, 0
16, 422040, Note_on_c, 14, 50, 84
16, 422129, Note_on_c, 14, 50, 0
16, 422160, Note_on_c, 14, 45, 84
16, 422249, Note_on_c, 14, 45, 0
16, 422280, Note_on_c, 14, 43, 84
16, 422369, Note_on_c, 14, 43, 0
16, 422400, Note_on_c, 14, 42, 84
16, 422489, Note_on_c, 14, 42, 0
16, 422520, Note_on_c, 14, 45, 84
16, 422609, Note_on_c, 14, 45, 0
16, 422640, Note_on_c, 14, 50, 84
16, 422729, Note_on_c, 14, 50, 0
16, 422760, Note_on_c, 14, 54, 84
16, 422849, Note_on_c, 14, 54, 0
16, 422880, Note_on_c, 14, 43, 84
16, 422969, Note_on_c, 14, 43, 0
16, 423000, Note_on_c, 14, 47, 84
16, 423089, Note_on_c, 14, 47, 0
16, 423120, Note_on_c, 14, 52, 84
16, 423209, Note_on_c, 14, 52, 0
16, 423240, Note_on_c, 14, 55, 84
16, 423329, Note_on_c, 14, 55, 0
16, 423360, Note_on_c, 14, 45, 84
16, 423449, Note_on_c, 14, 45, 0
16, 423480, Note_on_c, 14, 49, 84
16, 423569, Note_on_c, 14, 49, 0
16, 423600, Note_on_c, 14, 52, 84
16, 423689, Note_on_c, 14, 52, 0
16, 423720, Note_on_c, 14, 57, 84
16, 423809, Note_on_c, 14, 57, 0
16, 423840, Note_on_c, 14, 50, 76
16, 424544, Note_on_c, 14, 50, 0
16, 424560, Note_on_c, 14, 50, 76
16, 424619, Note_on_c, 14, 50, 0
16, 424620, Note_on_c, 14, 49, 76
16, 424679, Note_on_c, 14, 49, 0
16, 424680, Note_on_c, 14, 50, 76
16, 424739, Note_on_c, 14, 50, 0
16, 424740, Note_on_c, 14, 52, 76
16, 424791, Note_on_c, 14, 52, 0
16, 424800, Note_on_c, 14, 54, 76
16, 424979, Note_on_c, 14, 54, 0
16, 425040, Note_on_c, 14, 54, 76
16, 425099, Note_on_c, 14, 54, 0
16, 425100, Note_on_c, 14, 52, 76
16, 425159, Note_on_c, 14, 52, 0
16, 425160, Note_on_c, 14, 54, 76
16, 425219, Note_on_c, 14, 54, 0
16, 425220, Note_on_c, 14, 55, 76
16, 425271, Note_on_c, 14, 55, 0
16, 425280, Note_on_c, 14, 57, 76
16, 425459, Note_on_c, 14, 57, 0
16, 425520, Note_on_c, 14, 57, 76
16, 425639, Note_on_c, 14, 57, 0
16, 425640, Note_on_c, 14, 59, 76
16, 425699, Note_on_c, 14, 59, 0
16, 425700, Note_on_c, 14, 61, 76
16, 425751, Note_on_c, 14, 61, 0
16, 425760, Note_on_c, 14, 62, 84
16, 426464, Note_on_c, 14, 62, 0
16, 426480, Note_on_c, 14, 62, 76
16, 426599, Note_on_c, 14, 62, 0
16, 426600, Note_on_c, 14, 61, 76
16, 426659, Note_on_c, 14, 61, 0
16, 426660, Note_on_c, 14, 59, 76
16, 426711, Note_on_c, 14, 59, 0
16, 426720, Note_on_c, 14, 57, 76
16, 426899, Note_on_c, 14, 57, 0
16, 426960, Note_on_c, 14, 57, 76
16, 427019, Note_on_c, 14, 57, 0
16, 427020, Note_on_c, 14, 59, 76
16, 427079, Note_on_c, 14, 59, 0
16, 427080, Note_on_c, 14, 57, 76
16, 427139, Note_on_c, 14, 57, 0
16, 427140, Note_on_c, 14, 55, 76
16, 427191, Note_on_c, 14, 55, 0
16, 427200, Note_on_c, 14, 54, 76
16, 427379, Note_on_c, 14, 54, 0
16, 427440, Note_on_c, 14, 54, 76
16, 427499, Note_on_c, 14, 54, 0
16, 427500, Note_on_c, 14, 55, 76
16, 427559, Note_on_c, 14, 55, 0
16, 427560, Note_on_c, 14, 54, 76
16, 427619, Note_on_c, 14, 54, 0
16, 427620, Note_on_c, 14, 52, 76
16, 427671, Note_on_c, 14, 52, 0
16, 427680, Note_on_c, 14, 50, 76
16, 427859, Note_on_c, 14, 50, 0
16, 428580, Note_on_c, 14, 50, 76
16, 428624, Note_on_c, 14, 50, 0
16, 428640, Note_on_c, 14, 45, 76
16, 428819, Note_on_c, 14, 45, 0
16, 429540, Note_on_c, 14, 45, 76
16, 429584, Note_on_c, 14, 45, 0
16, 429600, Note_on_c, 14, 50, 76
16, 429779, Note_on_c, 14, 50, 0
16, 430500, Note_on_c, 14, 50, 76
16, 430544, Note_on_c, 14, 50, 0
16, 430560, Note_on_c, 14, 45, 76
16, 430739, Note_on_c, 14, 45, 0
16, 431460, Note_on_c, 14, 45, 76
16, 431504, Note_on_c, 14, 45, 0
16, 431520, Note_on_c, 14, 50, 76
16, 431699, Note_on_c, 14, 50, 0
16, 432420, Note_on_c, 14, 50, 84
16, 432471, Note_on_c, 14, 50, 0
16, 432480, Note_on_c, 14, 50, 84
16, 432719, Note_on_c, 14, 50, 0
16, 432960, Note_on_c, 14, 50, 84
16, 433199, Note_on_c, 14, 50, 0
16, 433440, Note_on_c, 14, 50, 84
16, 434399, Note_on_c, 14, 50, 0
16, 434399, End_track
17, 0, Start_track
17, 0, Title_t, "Contrabass"
17, 0, MIDI_port, 0
17, 0, Program_c, 15, 48
17, 0, Control_c, 15, 7, 88
17, 0, Control_c, 15, 10, 100
17, 0, Control_c, 15, 11, 127
17, 690, Note_on_c, 15, 38, 84
17, 715, Note_on_c, 15, 38, 0
17, 720, Note_on_c, 15, 38, 84
17, 1064, Note_on_c, 15, 38, 0
17, 3570, Note_on_c, 15, 38, 84
17, 3595, Note_on_c, 15, 38, 0
17, 3600, Note_on_c, 15, 38, 84
17, 3951, Note_on_c, 15, 38, 0
17, 3960, Note_on_c, 15, 50, 76
17, 3960, Control_c, 15, 11, 80
17, 4079, Note_on_c, 15, 50, 0
17, 4080, Note_on_c, 15, 46, 76
17, 4199, Note_on_c, 15, 46, 0
17, 4200, Note_on_c, 15, 47, 76
17, 4311, Note_on_c, 15, 47, 0
17, 4320, Note_on_c, 15, 44, 76
17, 4320, Control_c, 15, 11, 80
17, 4360, Control_c, 15, 11, 84
17, 4400, Control_c, 15, 11, 88
17, 4440, Control_c, 15, 11, 92
17, 4480, Control_c, 15, 11, 96
17, 4520, Control_c, 15, 11, 100
17, 4559, Note_on_c, 15, 44, 0
17, 4560, Note_on_c, 15, 43, 76
17, 4560, Control_c, 15, 11, 104
17, 4600, Control_c, 15, 11, 107
17, 4640, Control_c, 15, 11, 111
17, 4680, Control_c, 15, 11, 115
17, 4720, Control_c, 15, 11, 119
17, 4760, Control_c, 15, 11, 123
17, 4791, Note_on_c, 15, 43, 0
17, 4800, Control_c, 15, 11, 127
17, 4800, Note_on_c, 15, 42, 84
17, 5039, Note_on_c, 15, 42, 0
17, 5040, Note_on_c, 15, 43, 76
17, 5159, Note_on_c, 15, 43, 0
17, 5520, Note_on_c, 15, 33, 84
17, 5759, Note_on_c, 15, 33, 0
17, 5760, Note_on_c, 15, 38, 76
17, 5939, Note_on_c, 15, 38, 0
17, 6000, Control_c, 15, 11, 96
17, 6120, Control_c, 15, 11, 96
17, 6120, Note_on_c, 15, 38, 68
17, 6150, Control_c, 15, 11, 99
17, 6180, Control_c, 15, 11, 101
17, 6210, Control_c, 15, 11, 104
17, 6239, Note_on_c, 15, 38, 0
17, 6240, Control_c, 15, 11, 106
17, 6240, Note_on_c, 15, 37, 68
17, 6270, Control_c, 15, 11, 109
17, 6300, Control_c, 15, 11, 112
17, 6330, Control_c, 15, 11, 114
17, 6359, Note_on_c, 15, 37, 0
17, 6360, Control_c, 15, 11, 117
17, 6360, Note_on_c, 15, 35, 68
17, 6390, Control_c, 15, 11, 119
17, 6420, Control_c, 15, 11, 122
17, 6450, Control_c, 15, 11, 124
17, 6471, Note_on_c, 15, 35, 0
17, 6480, Note_on_c, 15, 34, 76
17, 6480, Control_c, 15, 11, 127
17, 6719, Note_on_c, 15, 34, 0
17, 7200, Note_on_c, 15, 35, 76
17, 7439, Note_on_c, 15, 35, 0
17, 7920, Note_on_c, 15, 37, 76
17, 8159, Note_on_c, 15, 37, 0
17, 8400, Note_on_c, 15, 38, 52
17, 8489, Note_on_c, 15, 38, 0
17, 8520, Note_on_c, 15, 36, 84
17, 8609, Note_on_c, 15, 36, 0
17, 8640, Note_on_c, 15, 34, 76
17, 8695, Note_on_c, 15, 34, 0
17, 8700, Note_on_c, 15, 34, 52
17, 8755, Note_on_c, 15, 34, 0
17, 8760, Note_on_c, 15, 34, 52
17, 8815, Note_on_c, 15, 34, 0
17, 8820, Note_on_c, 15, 34, 52
17, 8875, Note_on_c, 15, 34, 0
17, 8880, Note_on_c, 15, 34, 52
17, 8935, Note_on_c, 15, 34, 0
17, 8940, Note_on_c, 15, 34, 52
17, 8995, Note_on_c, 15, 34, 0
17, 9000, Note_on_c, 15, 34, 52
17, 9055, Note_on_c, 15, 34, 0
17, 9060, Note_on_c, 15, 34, 52
17, 9115, Note_on_c, 15, 34, 0
17, 9120, Note_on_c, 15, 34, 52
17, 9175, Note_on_c, 15, 34, 0
17, 9180, Note_on_c, 15, 34, 52
17, 9235, Note_on_c, 15, 34, 0
17, 9240, Note_on_c, 15, 34, 52
17, 9295, Note_on_c, 15, 34, 0
17, 9300, Note_on_c, 15, 34, 52
17, 9355, Note_on_c, 15, 34, 0
17, 9360, Note_on_c, 15, 34, 68
17, 9415, Note_on_c, 15, 34, 0
17, 9420, Note_on_c, 15, 34, 52
17, 9475, Note_on_c, 15, 34, 0
17, 9480, Note_on_c, 15, 34, 52
17, 9535, Note_on_c, 15, 34, 0
17, 9540, Note_on_c, 15, 34, 52
17, 9595, Note_on_c, 15, 34, 0
17, 9600, Note_on_c, 15, 34, 52
17, 9655, Note_on_c, 15, 34, 0
17, 9660, Note_on_c, 15, 34, 52
17, 9715, Note_on_c, 15, 34, 0
17, 9720, Note_on_c, 15, 34, 52
17, 9775, Note_on_c, 15, 34, 0
17, 9780, Note_on_c, 15, 34, 52
17, 9835, Note_on_c, 15, 34, 0
17, 9840, Note_on_c, 15, 34, 52
17, 9895, Note_on_c, 15, 34, 0
17, 9900, Note_on_c, 15, 34, 52
17, 9955, Note_on_c, 15, 34, 0
17, 9960, Note_on_c, 15, 34, 52
17, 10015, Note_on_c, 15, 34, 0
17, 10020, Note_on_c, 15, 34, 52
17, 10075, Note_on_c, 15, 34, 0
17, 10080, Note_on_c, 15, 34, 68
17, 10135, Note_on_c, 15, 34, 0
17, 10140, Note_on_c, 15, 34, 52
17, 10195, Note_on_c, 15, 34, 0
17, 10200, Note_on_c, 15, 34, 52
17, 10255, Note_on_c, 15, 34, 0
17, 10260, Note_on_c, 15, 34, 52
17, 10315, Note_on_c, 15, 34, 0
17, 10320, Note_on_c, 15, 34, 52
17, 10375, Note_on_c, 15, 34, 0
17, 10380, Note_on_c, 15, 34, 52
17, 10435, Note_on_c, 15, 34, 0
17, 10440, Note_on_c, 15, 34, 52
17, 10495, Note_on_c, 15, 34, 0
17, 10500, Note_on_c, 15, 34, 52
17, 10555, Note_on_c, 15, 34, 0
17, 10560, Note_on_c, 15, 34, 52
17, 10615, Note_on_c, 15, 34, 0
17, 10620, Note_on_c, 15, 34, 52
17, 10675, Note_on_c, 15, 34, 0
17, 10680, Note_on_c, 15, 34, 52
17, 10735, Note_on_c, 15, 34, 0
17, 10740, Note_on_c, 15, 34, 52
17, 10795, Note_on_c, 15, 34, 0
17, 10800, Note_on_c, 15, 34, 68
17, 10855, Note_on_c, 15, 34, 0
17, 10860, Note_on_c, 15, 34, 68
17, 10860, Control_c, 15, 11, 96
17, 10915, Note_on_c, 15, 34, 0
17, 10920, Note_on_c, 15, 34, 68
17, 10975, Note_on_c, 15, 34, 0
17, 10980, Note_on_c, 15, 34, 68
17, 11035, Note_on_c, 15, 34, 0
17, 11040, Note_on_c, 15, 34, 68
17, 11095, Note_on_c, 15, 34, 0
17, 11100, Note_on_c, 15, 34, 68
17, 11155, Note_on_c, 15, 34, 0
17, 11160, Note_on_c, 15, 34, 68
17, 11215, Note_on_c, 15, 34, 0
17, 11220, Note_on_c, 15, 34, 68
17, 11275, Note_on_c, 15, 34, 0
17, 11280, Note_on_c, 15, 34, 68
17, 11335, Note_on_c, 15, 34, 0
17, 11340, Note_on_c, 15, 34, 68
17, 11395, Note_on_c, 15, 34, 0
17, 11400, Note_on_c, 15, 34, 68
17, 11455, Note_on_c, 15, 34, 0
17, 11460, Note_on_c, 15, 34, 68
17, 11515, Note_on_c, 15, 34, 0
17, 11520, Note_on_c, 15, 34, 68
17, 11760, Control_c, 15, 11, 96
17, 11785, Note_on_c, 15, 34, 0
17, 11790, Note_on_c, 15, 33, 68
17, 11800, Control_c, 15, 11, 99
17, 11819, Note_on_c, 15, 33, 0
17, 11820, Note_on_c, 15, 34, 68
17, 11840, Control_c, 15, 11, 101
17, 11849, Note_on_c, 15, 34, 0
17, 11850, Note_on_c, 15, 36, 68
17, 11879, Note_on_c, 15, 36, 0
17, 11880, Note_on_c, 15, 38, 68
17, 11880, Control_c, 15, 11, 104
17, 11909, Note_on_c, 15, 38, 0
17, 11910, Note_on_c, 15, 39, 68
17, 11920, Control_c, 15, 11, 106
17, 11939, Note_on_c, 15, 39, 0
17, 11940, Note_on_c, 15, 41, 68
17, 11960, Control_c, 15, 11, 109
17, 11969, Note_on_c, 15, 41, 0
17, 11970, Note_on_c, 15, 43, 68
17, 11995, Note_on_c, 15, 43, 0
17, 12000, Note_on_c, 15, 44, 68
17, 12000, Control_c, 15, 11, 112
17, 12029, Note_on_c, 15, 44, 0
17, 12030, Note_on_c, 15, 43, 68
17, 12040, Control_c, 15, 11, 114
17, 12059, Note_on_c, 15, 43, 0
17, 12060, Note_on_c, 15, 41, 68
17, 12080, Control_c, 15, 11, 117
17, 12089, Note_on_c, 15, 41, 0
17, 12090, Note_on_c, 15, 39, 68
17, 12119, Note_on_c, 15, 39, 0
17, 12120, Note_on_c, 15, 38, 68
17, 12120, Control_c, 15, 11, 119
17, 12149, Note_on_c, 15, 38, 0
17, 12150, Note_on_c, 15, 36, 68
17, 12160, Control_c, 15, 11, 122
17, 12179, Note_on_c, 15, 36, 0
17, 12180, Note_on_c, 15, 34, 68
17, 12200, Control_c, 15, 11, 127
17, 12209, Note_on_c, 15, 34, 0
17, 12210, Note_on_c, 15, 32, 68
17, 12235, Note_on_c, 15, 32, 0
17, 12240, Note_on_c, 15, 31, 76
17, 12300, Control_c, 15, 11, 80
17, 12505, Note_on_c, 15, 31, 0
17, 12510, Note_on_c, 15, 33, 76
17, 12524, Note_on_c, 15, 33, 0
17, 12525, Note_on_c, 15, 35, 76
17, 12539, Note_on_c, 15, 35, 0
17, 12540, Note_on_c, 15, 36, 76
17, 12554, Note_on_c, 15, 36, 0
17, 12555, Note_on_c, 15, 38, 76
17, 12569, Note_on_c, 15, 38, 0
17, 12570, Note_on_c, 15, 40, 76
17, 12584, Note_on_c, 15, 40, 0
17, 12585, Note_on_c, 15, 42, 76
17, 12596, Note_on_c, 15, 42, 0
17, 12600, Note_on_c, 15, 43, 76
17, 12689, Note_on_c, 15, 43, 0
17, 12960, Control_c, 15, 11, 127
17, 12960, Note_on_c, 15, 36, 68
17, 13020, Control_c, 15, 11, 96
17, 13105, Note_on_c, 15, 36, 0
17, 13110, Note_on_c, 15, 38, 68
17, 13124, Note_on_c, 15, 38, 0
17, 13125, Note_on_c, 15, 40, 68
17, 13139, Note_on_c, 15, 40, 0
17, 13140, Note_on_c, 15, 41, 68
17, 13154, Note_on_c, 15, 41, 0
17, 13155, Note_on_c, 15, 43, 68
17, 13169, Note_on_c, 15, 43, 0
17, 13170, Note_on_c, 15, 45, 68
17, 13184, Note_on_c, 15, 45, 0
17, 13185, Note_on_c, 15, 47, 68
17, 13196, Note_on_c, 15, 47, 0
17, 13200, Note_on_c, 15, 48, 68
17, 13289, Note_on_c, 15, 48, 0
17, 13440, Control_c, 15, 11, 127
17, 13680, Note_on_c, 15, 29, 68
17, 13740, Control_c, 15, 11, 96
17, 13825, Note_on_c, 15, 29, 0
17, 13830, Note_on_c, 15, 31, 68
17, 13844, Note_on_c, 15, 31, 0
17, 13845, Note_on_c, 15, 33, 68
17, 13859, Note_on_c, 15, 33, 0
17, 13860, Note_on_c, 15, 34, 68
17, 13874, Note_on_c, 15, 34, 0
17, 13875, Note_on_c, 15, 36, 68
17, 13889, Note_on_c, 15, 36, 0
17, 13890, Note_on_c, 15, 38, 68
17, 13904, Note_on_c, 15, 38, 0
17, 13905, Note_on_c, 15, 40, 68
17, 13916, Note_on_c, 15, 40, 0
17, 13920, Note_on_c, 15, 41, 68
17, 14009, Note_on_c, 15, 41, 0
17, 14160, Control_c, 15, 11, 127
17, 14400, Note_on_c, 15, 30, 68
17, 14460, Control_c, 15, 11, 96
17, 14545, Note_on_c, 15, 30, 0
17, 14550, Note_on_c, 15, 31, 68
17, 14564, Note_on_c, 15, 31, 0
17, 14565, Note_on_c, 15, 33, 68
17, 14579, Note_on_c, 15, 33, 0
17, 14580, Note_on_c, 15, 34, 68
17, 14594, Note_on_c, 15, 34, 0
17, 14595, Note_on_c, 15, 36, 68
17, 14609, Note_on_c, 15, 36, 0
17, 14610, Note_on_c, 15, 38, 68
17, 14624, Note_on_c, 15, 38, 0
17, 14625, Note_on_c, 15, 40, 68
17, 14636, Note_on_c, 15, 40, 0
17, 14640, Note_on_c, 15, 42, 68
17, 14729, Note_on_c, 15, 42, 0
17, 14880, Control_c, 15, 11, 127
17, 15120, Note_on_c, 15, 31, 68
17, 15180, Control_c, 15, 11, 96
17, 15265, Note_on_c, 15, 31, 0
17, 15270, Note_on_c, 15, 33, 68
17, 15284, Note_on_c, 15, 33, 0
17, 15285, Note_on_c, 15, 34, 68
17, 15299, Note_on_c, 15, 34, 0
17, 15300, Note_on_c, 15, 36, 68
17, 15314, Note_on_c, 15, 36, 0
17, 15315, Note_on_c, 15, 38, 68
17, 15329, Note_on_c, 15, 38, 0
17, 15330, Note_on_c, 15, 40, 68
17, 15344, Note_on_c, 15, 40, 0
17, 15345, Note_on_c, 15, 42, 68
17, 15356, Note_on_c, 15, 42, 0
17, 15360, Note_on_c, 15, 43, 68
17, 15449, Note_on_c, 15, 43, 0
17, 15600, Control_c, 15, 11, 64
17, 15840, Control_c, 15, 11, 64
17, 15840, Note_on_c, 15, 33, 84
17, 15870, Control_c, 15, 11, 67
17, 15900, Control_c, 15, 11, 69
17, 15930, Control_c, 15, 11, 72
17, 15960, Control_c, 15, 11, 75
17, 15985, Note_on_c, 15, 33, 0
17, 15990, Control_c, 15, 11, 77
17, 15990, Note_on_c, 15, 35, 84
17, 16004, Note_on_c, 15, 35, 0
17, 16005, Note_on_c, 15, 37, 84
17, 16019, Note_on_c, 15, 37, 0
17, 16020, Control_c, 15, 11, 80
17, 16020, Note_on_c, 15, 38, 84
17, 16034, Note_on_c, 15, 38, 0
17, 16035, Note_on_c, 15, 40, 84
17, 16049, Note_on_c, 15, 40, 0
17, 16050, Control_c, 15, 11, 82
17, 16050, Note_on_c, 15, 41, 84
17, 16064, Note_on_c, 15, 41, 0
17, 16065, Note_on_c, 15, 43, 84
17, 16076, Note_on_c, 15, 43, 0
17, 16080, Note_on_c, 15, 45, 84
17, 16080, Control_c, 15, 11, 85
17, 16110, Control_c, 15, 11, 88
17, 16140, Control_c, 15, 11, 90
17, 16169, Note_on_c, 15, 45, 0
17, 16170, Control_c, 15, 11, 93
17, 16200, Control_c, 15, 11, 96
17, 16230, Control_c, 15, 11, 98
17, 16260, Control_c, 15, 11, 101
17, 16290, Control_c, 15, 11, 103
17, 16320, Control_c, 15, 11, 106
17, 16350, Control_c, 15, 11, 109
17, 16380, Control_c, 15, 11, 111
17, 16410, Control_c, 15, 11, 114
17, 16440, Control_c, 15, 11, 117
17, 16470, Control_c, 15, 11, 119
17, 16500, Control_c, 15, 11, 122
17, 16530, Control_c, 15, 11, 124
17, 16530, Note_on_c, 15, 45, 84
17, 16555, Note_on_c, 15, 45, 0
17, 16560, Control_c, 15, 11, 127
17, 16560, Note_on_c, 15, 50, 84
17, 16765, Note_on_c, 15, 50, 0
17, 16770, Note_on_c, 15, 50, 84
17, 16795, Note_on_c, 15, 50, 0
17, 16800, Note_on_c, 15, 45, 84
17, 17005, Note_on_c, 15, 45, 0
17, 17010, Note_on_c, 15, 45, 84
17, 17035, Note_on_c, 15, 45, 0
17, 17040, Note_on_c, 15, 41, 84
17, 17129, Note_on_c, 15, 41, 0
17, 17160, Note_on_c, 15, 38, 84
17, 17249, Note_on_c, 15, 38, 0
17, 17280, Note_on_c, 15, 33, 84
17, 17340, Control_c, 15, 11, 64
17, 18711, Note_on_c, 15, 33, 0
17, 18716, Control_c, 15, 11, 96
17, 18720, Note_on_c, 15, 33, 68
17, 19071, Note_on_c, 15, 33, 0
17, 19080, Note_on_c, 15, 33, 68
17, 19191, Note_on_c, 15, 33, 0
17, 19200, Note_on_c, 15, 33, 68
17, 19311, Note_on_c, 15, 33, 0
17, 19320, Note_on_c, 15, 33, 68
17, 19431, Note_on_c, 15, 33, 0
17, 19440, Note_on_c, 15, 33, 68
17, 20151, Note_on_c, 15, 33, 0
17, 20160, Note_on_c, 15, 33, 68
17, 20160, Control_c, 15, 11, 96
17, 20220, Control_c, 15, 11, 99
17, 20280, Control_c, 15, 11, 101
17, 20340, Control_c, 15, 11, 104
17, 20400, Control_c, 15, 11, 106
17, 20460, Control_c, 15, 11, 109
17, 20520, Control_c, 15, 11, 112
17, 20580, Control_c, 15, 11, 114
17, 20640, Control_c, 15, 11, 117
17, 20700, Control_c, 15, 11, 119
17, 20760, Control_c, 15, 11, 122
17, 20820, Control_c, 15, 11, 124
17, 20871, Note_on_c, 15, 33, 0
17, 20880, Control_c, 15, 11, 127
17, 20880, Note_on_c, 15, 33, 76
17, 20999, Note_on_c, 15, 33, 0
17, 21360, Note_on_c, 15, 33, 52
17, 21479, Note_on_c, 15, 33, 0
17, 21600, Note_on_c, 15, 33, 68
17, 21719, Note_on_c, 15, 33, 0
17, 22080, Note_on_c, 15, 33, 52
17, 22199, Note_on_c, 15, 33, 0
17, 22320, Note_on_c, 15, 33, 68
17, 22439, Note_on_c, 15, 33, 0
17, 22800, Note_on_c, 15, 33, 52
17, 22919, Note_on_c, 15, 33, 0
17, 23040, Note_on_c, 15, 33, 68
17, 23159, Note_on_c, 15, 33, 0
17, 23520, Note_on_c, 15, 33, 52
17, 23639, Note_on_c, 15, 33, 0
17, 23760, Note_on_c, 15, 33, 52
17, 23795, Note_on_c, 15, 33, 0
17, 23800, Note_on_c, 15, 33, 53
17, 23835, Note_on_c, 15, 33, 0
17, 23840, Note_on_c, 15, 33, 54
17, 23875, Note_on_c, 15, 33, 0
17, 23880, Note_on_c, 15, 33, 56
17, 23915, Note_on_c, 15, 33, 0
17, 23920, Note_on_c, 15, 33, 57
17, 23955, Note_on_c, 15, 33, 0
17, 23960, Note_on_c, 15, 33, 58
17, 23995, Note_on_c, 15, 33, 0
17, 24000, Note_on_c, 15, 33, 60
17, 24035, Note_on_c, 15, 33, 0
17, 24040, Note_on_c, 15, 33, 61
17, 24075, Note_on_c, 15, 33, 0
17, 24080, Note_on_c, 15, 33, 62
17, 24115, Note_on_c, 15, 33, 0
17, 24120, Note_on_c, 15, 33, 64
17, 24155, Note_on_c, 15, 33, 0
17, 24160, Note_on_c, 15, 33, 65
17, 24195, Note_on_c, 15, 33, 0
17, 24200, Note_on_c, 15, 33, 66
17, 24235, Note_on_c, 15, 33, 0
17, 24240, Note_on_c, 15, 33, 68
17, 24275, Note_on_c, 15, 33, 0
17, 24280, Note_on_c, 15, 33, 69
17, 24315, Note_on_c, 15, 33, 0
17, 24320, Note_on_c, 15, 33, 70
17, 24355, Note_on_c, 15, 33, 0
17, 24360, Note_on_c, 15, 33, 72
17, 24395, Note_on_c, 15, 33, 0
17, 24400, Note_on_c, 15, 33, 73
17, 24435, Note_on_c, 15, 33, 0
17, 24440, Note_on_c, 15, 33, 74
17, 24475, Note_on_c, 15, 33, 0
17, 24540, Control_c, 15, 11, 80
17, 25200, Control_c, 15, 11, 127
17, 28320, Note_on_c, 15, 43, 52
17, 29024, Note_on_c, 15, 43, 0
17, 29040, Note_on_c, 15, 43, 52
17, 29099, Note_on_c, 15, 43, 0
17, 29100, Note_on_c, 15, 42, 52
17, 29159, Note_on_c, 15, 42, 0
17, 29160, Note_on_c, 15, 43, 52
17, 29219, Note_on_c, 15, 43, 0
17, 29220, Note_on_c, 15, 45, 52
17, 29271, Note_on_c, 15, 45, 0
17, 29280, Note_on_c, 15, 47, 52
17, 29984, Note_on_c, 15, 47, 0
17, 30000, Note_on_c, 15, 47, 52
17, 30059, Note_on_c, 15, 47, 0
17, 30060, Note_on_c, 15, 46, 52
17, 30119, Note_on_c, 15, 46, 0
17, 30120, Note_on_c, 15, 47, 52
17, 30179, Note_on_c, 15, 47, 0
17, 30180, Note_on_c, 15, 49, 52
17, 30231, Note_on_c, 15, 49, 0
17, 30240, Note_on_c, 15, 50, 52
17, 30419, Note_on_c, 15, 50, 0
17, 30480, Note_on_c, 15, 50, 52
17, 30659, Note_on_c, 15, 50, 0
17, 30720, Note_on_c, 15, 47, 52
17, 30899, Note_on_c, 15, 47, 0
17, 30960, Note_on_c, 15, 47, 52
17, 31139, Note_on_c, 15, 47, 0
17, 31200, Note_on_c, 15, 44, 52
17, 31439, Note_on_c, 15, 44, 0
17, 32160, Note_on_c, 15, 50, 52
17, 32339, Note_on_c, 15, 50, 0
17, 32400, Note_on_c, 15, 50, 52
17, 32579, Note_on_c, 15, 50, 0
17, 32640, Note_on_c, 15, 48, 52
17, 32819, Note_on_c, 15, 48, 0
17, 32880, Note_on_c, 15, 48, 52
17, 33059, Note_on_c, 15, 48, 0
17, 33120, Note_on_c, 15, 45, 52
17, 33299, Note_on_c, 15, 45, 0
17, 33840, Control_c, 15, 11, 80
17, 34080, Note_on_c, 15, 47, 76
17, 34319, Note_on_c, 15, 47, 0
17, 34320, Control_c, 15, 11, 84
17, 34560, Note_on_c, 15, 45, 76
17, 34560, Control_c, 15, 11, 88
17, 34799, Note_on_c, 15, 45, 0
17, 34800, Control_c, 15, 11, 92
17, 35040, Control_c, 15, 11, 96
17, 35040, Note_on_c, 15, 43, 76
17, 35279, Note_on_c, 15, 43, 0
17, 35280, Control_c, 15, 11, 100
17, 35520, Note_on_c, 15, 42, 76
17, 35520, Control_c, 15, 11, 104
17, 35759, Note_on_c, 15, 42, 0
17, 35760, Control_c, 15, 11, 107
17, 36000, Note_on_c, 15, 43, 76
17, 36000, Control_c, 15, 11, 111
17, 36224, Note_on_c, 15, 43, 0
17, 36240, Control_c, 15, 11, 115
17, 36240, Note_on_c, 15, 40, 76
17, 36464, Note_on_c, 15, 40, 0
17, 36480, Note_on_c, 15, 45, 76
17, 36480, Control_c, 15, 11, 119
17, 36704, Note_on_c, 15, 45, 0
17, 36720, Control_c, 15, 11, 123
17, 36720, Note_on_c, 15, 33, 76
17, 36944, Note_on_c, 15, 33, 0
17, 36960, Control_c, 15, 11, 127
17, 36960, Note_on_c, 15, 38, 76
17, 37664, Note_on_c, 15, 38, 0
17, 37680, Note_on_c, 15, 38, 76
17, 37739, Note_on_c, 15, 38, 0
17, 37740, Note_on_c, 15, 37, 76
17, 37799, Note_on_c, 15, 37, 0
17, 37800, Note_on_c, 15, 38, 76
17, 37859, Note_on_c, 15, 38, 0
17, 37860, Note_on_c, 15, 40, 76
17, 37911, Note_on_c, 15, 40, 0
17, 37920, Note_on_c, 15, 42, 84
17, 38624, Note_on_c, 15, 42, 0
17, 38640, Note_on_c, 15, 42, 76
17, 38699, Note_on_c, 15, 42, 0
17, 38700, Note_on_c, 15, 40, 76
17, 38759, Note_on_c, 15, 40, 0
17, 38760, Note_on_c, 15, 42, 76
17, 38819, Note_on_c, 15, 42, 0
17, 38820, Note_on_c, 15, 43, 76
17, 38871, Note_on_c, 15, 43, 0
17, 38880, Note_on_c, 15, 45, 76
17, 39059, Note_on_c, 15, 45, 0
17, 39120, Note_on_c, 15, 45, 76
17, 39179, Note_on_c, 15, 45, 0
17, 39180, Note_on_c, 15, 44, 76
17, 39239, Note_on_c, 15, 44, 0
17, 39240, Note_on_c, 15, 45, 76
17, 39299, Note_on_c, 15, 45, 0
17, 39300, Note_on_c, 15, 47, 76
17, 39351, Note_on_c, 15, 47, 0
17, 39360, Note_on_c, 15, 48, 84
17, 40064, Note_on_c, 15, 48, 0
17, 40080, Note_on_c, 15, 45, 76
17, 40259, Note_on_c, 15, 45, 0
17, 40320, Note_on_c, 15, 42, 76
17, 40499, Note_on_c, 15, 42, 0
17, 40560, Note_on_c, 15, 36, 76
17, 40739, Note_on_c, 15, 36, 0
17, 40800, Note_on_c, 15, 35, 76
17, 40979, Note_on_c, 15, 35, 0
17, 41040, Note_on_c, 15, 38, 76
17, 41219, Note_on_c, 15, 38, 0
17, 41280, Note_on_c, 15, 43, 76
17, 41459, Note_on_c, 15, 43, 0
17, 41520, Note_on_c, 15, 47, 76
17, 41699, Note_on_c, 15, 47, 0
17, 41760, Note_on_c, 15, 37, 76
17, 41939, Note_on_c, 15, 37, 0
17, 42000, Note_on_c, 15, 40, 76
17, 42179, Note_on_c, 15, 40, 0
17, 42240, Note_on_c, 15, 45, 76
17, 42419, Note_on_c, 15, 45, 0
17, 42480, Note_on_c, 15, 49, 76
17, 42659, Note_on_c, 15, 49, 0
17, 42720, Note_on_c, 15, 38, 76
17, 42899, Note_on_c, 15, 38, 0
17, 42960, Note_on_c, 15, 45, 76
17, 43019, Note_on_c, 15, 45, 0
17, 43020, Note_on_c, 15, 44, 76
17, 43079, Note_on_c, 15, 44, 0
17, 43080, Note_on_c, 15, 45, 76
17, 43139, Note_on_c, 15, 45, 0
17, 43140, Note_on_c, 15, 47, 76
17, 43191, Note_on_c, 15, 47, 0
17, 43200, Note_on_c, 15, 48, 84
17, 43904, Note_on_c, 15, 48, 0
17, 43920, Note_on_c, 15, 45, 76
17, 44099, Note_on_c, 15, 45, 0
17, 44160, Note_on_c, 15, 42, 76
17, 44339, Note_on_c, 15, 42, 0
17, 44400, Note_on_c, 15, 36, 76
17, 44579, Note_on_c, 15, 36, 0
17, 44640, Note_on_c, 15, 34, 76
17, 44819, Note_on_c, 15, 34, 0
17, 44880, Note_on_c, 15, 38, 76
17, 45059, Note_on_c, 15, 38, 0
17, 45120, Note_on_c, 15, 43, 76
17, 45299, Note_on_c, 15, 43, 0
17, 45360, Note_on_c, 15, 46, 76
17, 45539, Note_on_c, 15, 46, 0
17, 45600, Note_on_c, 15, 37, 76
17, 45779, Note_on_c, 15, 37, 0
17, 45840, Note_on_c, 15, 40, 76
17, 46019, Note_on_c, 15, 40, 0
17, 46080, Note_on_c, 15, 45, 76
17, 46259, Note_on_c, 15, 45, 0
17, 46320, Note_on_c, 15, 49, 76
17, 46499, Note_on_c, 15, 49, 0
17, 46560, Note_on_c, 15, 38, 84
17, 47264, Note_on_c, 15, 38, 0
17, 47280, Note_on_c, 15, 38, 76
17, 47339, Note_on_c, 15, 38, 0
17, 47340, Note_on_c, 15, 37, 76
17, 47399, Note_on_c, 15, 37, 0
17, 47400, Note_on_c, 15, 38, 76
17, 47459, Note_on_c, 15, 38, 0
17, 47460, Note_on_c, 15, 40, 76
17, 47511, Note_on_c, 15, 40, 0
17, 47520, Note_on_c, 15, 41, 76
17, 47699, Note_on_c, 15, 41, 0
17, 47760, Note_on_c, 15, 41, 76
17, 47939, Note_on_c, 15, 41, 0
17, 48000, Note_on_c, 15, 38, 76
17, 48179, Note_on_c, 15, 38, 0
17, 48240, Note_on_c, 15, 38, 76
17, 48419, Note_on_c, 15, 38, 0
17, 48480, Note_on_c, 15, 34, 84
17, 49184, Note_on_c, 15, 34, 0
17, 49200, Note_on_c, 15, 34, 76
17, 49259, Note_on_c, 15, 34, 0
17, 49260, Note_on_c, 15, 33, 76
17, 49319, Note_on_c, 15, 33, 0
17, 49320, Note_on_c, 15, 34, 76
17, 49379, Note_on_c, 15, 34, 0
17, 49380, Note_on_c, 15, 36, 76
17, 49431, Note_on_c, 15, 36, 0
17, 49440, Note_on_c, 15, 38, 76
17, 49619, Note_on_c, 15, 38, 0
17, 49680, Note_on_c, 15, 38, 76
17, 49859, Note_on_c, 15, 38, 0
17, 49920, Note_on_c, 15, 34, 76
17, 50099, Note_on_c, 15, 34, 0
17, 50160, Note_on_c, 15, 34, 76
17, 50339, Note_on_c, 15, 34, 0
17, 50400, Note_on_c, 15, 32, 84
17, 50489, Note_on_c, 15, 32, 0
17, 50520, Note_on_c, 15, 40, 84
17, 50609, Note_on_c, 15, 40, 0
17, 50640, Note_on_c, 15, 44, 84
17, 50729, Note_on_c, 15, 44, 0
17, 50760, Note_on_c, 15, 40, 84
17, 50849, Note_on_c, 15, 40, 0
17, 50880, Note_on_c, 15, 44, 84
17, 50969, Note_on_c, 15, 44, 0
17, 51000, Note_on_c, 15, 40, 84
17, 51089, Note_on_c, 15, 40, 0
17, 51120, Note_on_c, 15, 44, 84
17, 51209, Note_on_c, 15, 44, 0
17, 51240, Note_on_c, 15, 40, 84
17, 51329, Note_on_c, 15, 40, 0
17, 51360, Note_on_c, 15, 45, 84
17, 51449, Note_on_c, 15, 45, 0
17, 51480, Note_on_c, 15, 40, 84
17, 51569, Note_on_c, 15, 40, 0
17, 51600, Note_on_c, 15, 45, 84
17, 51689, Note_on_c, 15, 45, 0
17, 51720, Note_on_c, 15, 40, 84
17, 51809, Note_on_c, 15, 40, 0
17, 51840, Note_on_c, 15, 48, 84
17, 51929, Note_on_c, 15, 48, 0
17, 51960, Note_on_c, 15, 40, 84
17, 52049, Note_on_c, 15, 40, 0
17, 52080, Note_on_c, 15, 48, 84
17, 52169, Note_on_c, 15, 48, 0
17, 52200, Note_on_c, 15, 40, 84
17, 52289, Note_on_c, 15, 40, 0
17, 52320, Note_on_c, 15, 47, 84
17, 52409, Note_on_c, 15, 47, 0
17, 52440, Note_on_c, 15, 40, 84
17, 52529, Note_on_c, 15, 40, 0
17, 52560, Note_on_c, 15, 47, 84
17, 52649, Note_on_c, 15, 47, 0
17, 52680, Note_on_c, 15, 40, 84
17, 52769, Note_on_c, 15, 40, 0
17, 52800, Note_on_c, 15, 50, 84
17, 52889, Note_on_c, 15, 50, 0
17, 52920, Note_on_c, 15, 40, 84
17, 53009, Note_on_c, 15, 40, 0
17, 53040, Note_on_c, 15, 50, 84
17, 53129, Note_on_c, 15, 50, 0
17, 53160, Note_on_c, 15, 40, 84
17, 53249, Note_on_c, 15, 40, 0
17, 53280, Note_on_c, 15, 48, 84
17, 53369, Note_on_c, 15, 48, 0
17, 53400, Note_on_c, 15, 40, 84
17, 53489, Note_on_c, 15, 40, 0
17, 53520, Note_on_c, 15, 48, 84
17, 53609, Note_on_c, 15, 48, 0
17, 53640, Note_on_c, 15, 40, 84
17, 53729, Note_on_c, 15, 40, 0
17, 53760, Note_on_c, 15, 45, 84
17, 53849, Note_on_c, 15, 45, 0
17, 53880, Note_on_c, 15, 40, 84
17, 53969, Note_on_c, 15, 40, 0
17, 54000, Note_on_c, 15, 45, 84
17, 54089, Note_on_c, 15, 45, 0
17, 54120, Note_on_c, 15, 40, 84
17, 54209, Note_on_c, 15, 40, 0
17, 54240, Note_on_c, 15, 44, 84
17, 54329, Note_on_c, 15, 44, 0
17, 54360, Note_on_c, 15, 40, 84
17, 54449, Note_on_c, 15, 40, 0
17, 54480, Note_on_c, 15, 44, 84
17, 54569, Note_on_c, 15, 44, 0
17, 54600, Note_on_c, 15, 40, 84
17, 54689, Note_on_c, 15, 40, 0
17, 54720, Note_on_c, 15, 44, 84
17, 54809, Note_on_c, 15, 44, 0
17, 54840, Note_on_c, 15, 40, 84
17, 54929, Note_on_c, 15, 40, 0
17, 54960, Note_on_c, 15, 44, 84
17, 55049, Note_on_c, 15, 44, 0
17, 55080, Note_on_c, 15, 40, 84
17, 55169, Note_on_c, 15, 40, 0
17, 55200, Note_on_c, 15, 45, 84
17, 55289, Note_on_c, 15, 45, 0
17, 55320, Note_on_c, 15, 40, 84
17, 55409, Note_on_c, 15, 40, 0
17, 55440, Note_on_c, 15, 45, 84
17, 55529, Note_on_c, 15, 45, 0
17, 55560, Note_on_c, 15, 40, 84
17, 55649, Note_on_c, 15, 40, 0
17, 55680, Note_on_c, 15, 48, 84
17, 55769, Note_on_c, 15, 48, 0
17, 55800, Note_on_c, 15, 40, 84
17, 55889, Note_on_c, 15, 40, 0
17, 55920, Note_on_c, 15, 48, 84
17, 56009, Note_on_c, 15, 48, 0
17, 56040, Note_on_c, 15, 40, 84
17, 56129, Note_on_c, 15, 40, 0
17, 56160, Note_on_c, 15, 47, 84
17, 56264, Note_on_c, 15, 47, 0
17, 56280, Note_on_c, 15, 40, 84
17, 56384, Note_on_c, 15, 40, 0
17, 56400, Note_on_c, 15, 52, 92
17, 56984, Note_on_c, 15, 52, 0
17, 57000, Note_on_c, 15, 50, 84
17, 57104, Note_on_c, 15, 50, 0
17, 57120, Note_on_c, 15, 48, 84
17, 57224, Note_on_c, 15, 48, 0
17, 57240, Note_on_c, 15, 50, 84
17, 57344, Note_on_c, 15, 50, 0
17, 57360, Note_on_c, 15, 48, 84
17, 57464, Note_on_c, 15, 48, 0
17, 57480, Note_on_c, 15, 47, 84
17, 57584, Note_on_c, 15, 47, 0
17, 57600, Note_on_c, 15, 45, 84
17, 57704, Note_on_c, 15, 45, 0
17, 57720, Note_on_c, 15, 43, 84
17, 57824, Note_on_c, 15, 43, 0
17, 57840, Note_on_c, 15, 42, 84
17, 57944, Note_on_c, 15, 42, 0
17, 57960, Note_on_c, 15, 41, 84
17, 58064, Note_on_c, 15, 41, 0
17, 58080, Note_on_c, 15, 40, 92
17, 58439, Note_on_c, 15, 40, 0
17, 58440, Note_on_c, 15, 41, 84
17, 58544, Note_on_c, 15, 41, 0
17, 58560, Note_on_c, 15, 40, 92
17, 58919, Note_on_c, 15, 40, 0
17, 58920, Note_on_c, 15, 41, 84
17, 59024, Note_on_c, 15, 41, 0
17, 59040, Note_on_c, 15, 40, 84
17, 59129, Note_on_c, 15, 40, 0
17, 59160, Note_on_c, 15, 41, 84
17, 59249, Note_on_c, 15, 41, 0
17, 59280, Note_on_c, 15, 40, 84
17, 59369, Note_on_c, 15, 40, 0
17, 59400, Note_on_c, 15, 41, 84
17, 59489, Note_on_c, 15, 41, 0
17, 59520, Note_on_c, 15, 40, 84
17, 59609, Note_on_c, 15, 40, 0
17, 59640, Note_on_c, 15, 41, 84
17, 59729, Note_on_c, 15, 41, 0
17, 59760, Note_on_c, 15, 40, 84
17, 59849, Note_on_c, 15, 40, 0
17, 59880, Note_on_c, 15, 41, 84
17, 59969, Note_on_c, 15, 41, 0
17, 60000, Note_on_c, 15, 40, 92
17, 60704, Note_on_c, 15, 40, 0
17, 60720, Note_on_c, 15, 39, 84
17, 60899, Note_on_c, 15, 39, 0
17, 60960, Note_on_c, 15, 38, 84
17, 61139, Note_on_c, 15, 38, 0
17, 61200, Note_on_c, 15, 37, 84
17, 61379, Note_on_c, 15, 37, 0
17, 61440, Note_on_c, 15, 35, 84
17, 61619, Note_on_c, 15, 35, 0
17, 61680, Note_on_c, 15, 40, 84
17, 61859, Note_on_c, 15, 40, 0
17, 61920, Note_on_c, 15, 33, 52
17, 62159, Note_on_c, 15, 33, 0
17, 62400, Note_on_c, 15, 33, 52
17, 62639, Note_on_c, 15, 33, 0
17, 62880, Note_on_c, 15, 33, 52
17, 63119, Note_on_c, 15, 33, 0
17, 65760, Note_on_c, 15, 30, 84
17, 65864, Note_on_c, 15, 30, 0
17, 65880, Note_on_c, 15, 42, 84
17, 65984, Note_on_c, 15, 42, 0
17, 66000, Note_on_c, 15, 37, 84
17, 66104, Note_on_c, 15, 37, 0
17, 66120, Note_on_c, 15, 33, 84
17, 66224, Note_on_c, 15, 33, 0
17, 66240, Note_on_c, 15, 30, 84
17, 66344, Note_on_c, 15, 30, 0
17, 66360, Note_on_c, 15, 42, 84
17, 66464, Note_on_c, 15, 42, 0
17, 66480, Note_on_c, 15, 37, 84
17, 66584, Note_on_c, 15, 37, 0
17, 66600, Note_on_c, 15, 33, 84
17, 66704, Note_on_c, 15, 33, 0
17, 66720, Note_on_c, 15, 30, 84
17, 66824, Note_on_c, 15, 30, 0
17, 66840, Note_on_c, 15, 42, 84
17, 66944, Note_on_c, 15, 42, 0
17, 66960, Note_on_c, 15, 37, 84
17, 67064, Note_on_c, 15, 37, 0
17, 67080, Note_on_c, 15, 33, 84
17, 67184, Note_on_c, 15, 33, 0
17, 67200, Note_on_c, 15, 30, 84
17, 67304, Note_on_c, 15, 30, 0
17, 67320, Note_on_c, 15, 42, 84
17, 67424, Note_on_c, 15, 42, 0
17, 67440, Note_on_c, 15, 44, 84
17, 67544, Note_on_c, 15, 44, 0
17, 67560, Note_on_c, 15, 45, 84
17, 67664, Note_on_c, 15, 45, 0
17, 67680, Note_on_c, 15, 35, 92
17, 67784, Note_on_c, 15, 35, 0
17, 67800, Note_on_c, 15, 47, 84
17, 67904, Note_on_c, 15, 47, 0
17, 67920, Note_on_c, 15, 47, 84
17, 68024, Note_on_c, 15, 47, 0
17, 68040, Note_on_c, 15, 47, 84
17, 68144, Note_on_c, 15, 47, 0
17, 68160, Note_on_c, 15, 35, 92
17, 68264, Note_on_c, 15, 35, 0
17, 68280, Note_on_c, 15, 47, 84
17, 68384, Note_on_c, 15, 47, 0
17, 68400, Note_on_c, 15, 47, 84
17, 68504, Note_on_c, 15, 47, 0
17, 68520, Note_on_c, 15, 47, 84
17, 68624, Note_on_c, 15, 47, 0
17, 68640, Note_on_c, 15, 40, 84
17, 68879, Note_on_c, 15, 40, 0
17, 69600, Note_on_c, 15, 33, 52
17, 69839, Note_on_c, 15, 33, 0
17, 70080, Note_on_c, 15, 33, 52
17, 70319, Note_on_c, 15, 33, 0
17, 70560, Note_on_c, 15, 33, 52
17, 70799, Note_on_c, 15, 33, 0
17, 73440, Note_on_c, 15, 30, 84
17, 73544, Note_on_c, 15, 30, 0
17, 73560, Note_on_c, 15, 42, 84
17, 73664, Note_on_c, 15, 42, 0
17, 73680, Note_on_c, 15, 37, 84
17, 73784, Note_on_c, 15, 37, 0
17, 73800, Note_on_c, 15, 33, 84
17, 73904, Note_on_c, 15, 33, 0
17, 73920, Note_on_c, 15, 30, 84
17, 74024, Note_on_c, 15, 30, 0
17, 74040, Note_on_c, 15, 42, 84
17, 74144, Note_on_c, 15, 42, 0
17, 74160, Note_on_c, 15, 37, 84
17, 74264, Note_on_c, 15, 37, 0
17, 74280, Note_on_c, 15, 33, 84
17, 74384, Note_on_c, 15, 33, 0
17, 74400, Note_on_c, 15, 30, 84
17, 74504, Note_on_c, 15, 30, 0
17, 74520, Note_on_c, 15, 42, 84
17, 74624, Note_on_c, 15, 42, 0
17, 74640, Note_on_c, 15, 37, 84
17, 74744, Note_on_c, 15, 37, 0
17, 74760, Note_on_c, 15, 33, 84
17, 74864, Note_on_c, 15, 33, 0
17, 74880, Note_on_c, 15, 30, 84
17, 74984, Note_on_c, 15, 30, 0
17, 75000, Note_on_c, 15, 42, 84
17, 75104, Note_on_c, 15, 42, 0
17, 75120, Note_on_c, 15, 44, 84
17, 75224, Note_on_c, 15, 44, 0
17, 75240, Note_on_c, 15, 45, 84
17, 75344, Note_on_c, 15, 45, 0
17, 75360, Note_on_c, 15, 35, 92
17, 75464, Note_on_c, 15, 35, 0
17, 75480, Note_on_c, 15, 47, 84
17, 75584, Note_on_c, 15, 47, 0
17, 75600, Note_on_c, 15, 47, 84
17, 75704, Note_on_c, 15, 47, 0
17, 75720, Note_on_c, 15, 47, 84
17, 75824, Note_on_c, 15, 47, 0
17, 75840, Note_on_c, 15, 35, 92
17, 75944, Note_on_c, 15, 35, 0
17, 75960, Note_on_c, 15, 47, 84
17, 76064, Note_on_c, 15, 47, 0
17, 76080, Note_on_c, 15, 47, 84
17, 76184, Note_on_c, 15, 47, 0
17, 76200, Note_on_c, 15, 47, 84
17, 76304, Note_on_c, 15, 47, 0
17, 76320, Note_on_c, 15, 40, 92
17, 76904, Note_on_c, 15, 40, 0
17, 76920, Note_on_c, 15, 40, 84
17, 77039, Note_on_c, 15, 40, 0
17, 77040, Note_on_c, 15, 38, 84
17, 77159, Note_on_c, 15, 38, 0
17, 77160, Note_on_c, 15, 37, 84
17, 77264, Note_on_c, 15, 37, 0
17, 77280, Note_on_c, 15, 38, 92
17, 77864, Note_on_c, 15, 38, 0
17, 77880, Note_on_c, 15, 38, 84
17, 77999, Note_on_c, 15, 38, 0
17, 78000, Note_on_c, 15, 37, 84
17, 78119, Note_on_c, 15, 37, 0
17, 78120, Note_on_c, 15, 36, 84
17, 78224, Note_on_c, 15, 36, 0
17, 78240, Note_on_c, 15, 37, 92
17, 78824, Note_on_c, 15, 37, 0
17, 78840, Note_on_c, 15, 37, 84
17, 78959, Note_on_c, 15, 37, 0
17, 78960, Note_on_c, 15, 35, 84
17, 79079, Note_on_c, 15, 35, 0
17, 79080, Note_on_c, 15, 34, 84
17, 79184, Note_on_c, 15, 34, 0
17, 79200, Note_on_c, 15, 35, 92
17, 79784, Note_on_c, 15, 35, 0
17, 79800, Note_on_c, 15, 35, 84
17, 79919, Note_on_c, 15, 35, 0
17, 79920, Note_on_c, 15, 33, 84
17, 80039, Note_on_c, 15, 33, 0
17, 80040, Note_on_c, 15, 32, 84
17, 80144, Note_on_c, 15, 32, 0
17, 80160, Note_on_c, 15, 33, 92
17, 80249, Note_on_c, 15, 33, 0
17, 80280, Note_on_c, 15, 40, 84
17, 80399, Note_on_c, 15, 40, 0
17, 80400, Note_on_c, 15, 38, 84
17, 80519, Note_on_c, 15, 38, 0
17, 80520, Note_on_c, 15, 37, 84
17, 80624, Note_on_c, 15, 37, 0
17, 80640, Note_on_c, 15, 38, 92
17, 80729, Note_on_c, 15, 38, 0
17, 80760, Note_on_c, 15, 38, 84
17, 80879, Note_on_c, 15, 38, 0
17, 80880, Note_on_c, 15, 37, 84
17, 80999, Note_on_c, 15, 37, 0
17, 81000, Note_on_c, 15, 36, 84
17, 81104, Note_on_c, 15, 36, 0
17, 81120, Note_on_c, 15, 37, 92
17, 81209, Note_on_c, 15, 37, 0
17, 81240, Note_on_c, 15, 37, 84
17, 81359, Note_on_c, 15, 37, 0
17, 81360, Note_on_c, 15, 35, 84
17, 81479, Note_on_c, 15, 35, 0
17, 81480, Note_on_c, 15, 34, 84
17, 81584, Note_on_c, 15, 34, 0
17, 81600, Note_on_c, 15, 35, 92
17, 81689, Note_on_c, 15, 35, 0
17, 81720, Note_on_c, 15, 47, 84
17, 81839, Note_on_c, 15, 47, 0
17, 81840, Note_on_c, 15, 45, 84
17, 81959, Note_on_c, 15, 45, 0
17, 81960, Note_on_c, 15, 44, 84
17, 82064, Note_on_c, 15, 44, 0
17, 82080, Note_on_c, 15, 45, 92
17, 82169, Note_on_c, 15, 45, 0
17, 82200, Note_on_c, 15, 45, 84
17, 82319, Note_on_c, 15, 45, 0
17, 82320, Note_on_c, 15, 44, 84
17, 82439, Note_on_c, 15, 44, 0
17, 82440, Note_on_c, 15, 42, 84
17, 82544, Note_on_c, 15, 42, 0
17, 82560, Note_on_c, 15, 44, 92
17, 82649, Note_on_c, 15, 44, 0
17, 82680, Note_on_c, 15, 44, 84
17, 82799, Note_on_c, 15, 44, 0
17, 82800, Note_on_c, 15, 42, 84
17, 82919, Note_on_c, 15, 42, 0
17, 82920, Note_on_c, 15, 41, 84
17, 83024, Note_on_c, 15, 41, 0
17, 83040, Note_on_c, 15, 42, 92
17, 83129, Note_on_c, 15, 42, 0
17, 83160, Note_on_c, 15, 42, 84
17, 83279, Note_on_c, 15, 42, 0
17, 83280, Note_on_c, 15, 40, 84
17, 83399, Note_on_c, 15, 40, 0
17, 83400, Note_on_c, 15, 38, 84
17, 83504, Note_on_c, 15, 38, 0
17, 83520, Note_on_c, 15, 40, 92
17, 83609, Note_on_c, 15, 40, 0
17, 83640, Note_on_c, 15, 40, 84
17, 83759, Note_on_c, 15, 40, 0
17, 83760, Note_on_c, 15, 38, 84
17, 83879, Note_on_c, 15, 38, 0
17, 83880, Note_on_c, 15, 37, 84
17, 83984, Note_on_c, 15, 37, 0
17, 84000, Note_on_c, 15, 38, 84
17, 84179, Note_on_c, 15, 38, 0
17, 84960, Note_on_c, 15, 47, 84
17, 85139, Note_on_c, 15, 47, 0
17, 85920, Note_on_c, 15, 44, 84
17, 86099, Note_on_c, 15, 44, 0
17, 86400, Note_on_c, 15, 45, 84
17, 86579, Note_on_c, 15, 45, 0
17, 86880, Note_on_c, 15, 38, 84
17, 87059, Note_on_c, 15, 38, 0
17, 87360, Note_on_c, 15, 40, 84
17, 87539, Note_on_c, 15, 40, 0
17, 87840, Note_on_c, 15, 42, 84
17, 88079, Note_on_c, 15, 42, 0
17, 88800, Note_on_c, 15, 44, 84
17, 89039, Note_on_c, 15, 44, 0
17, 90240, Control_c, 15, 11, 80
17, 90480, Note_on_c, 15, 35, 68
17, 90539, Note_on_c, 15, 35, 0
17, 90540, Note_on_c, 15, 34, 68
17, 90599, Note_on_c, 15, 34, 0
17, 90600, Note_on_c, 15, 35, 68
17, 90659, Note_on_c, 15, 35, 0
17, 90660, Note_on_c, 15, 36, 68
17, 90711, Note_on_c, 15, 36, 0
17, 90720, Note_on_c, 15, 38, 68
17, 90899, Note_on_c, 15, 38, 0
17, 91440, Note_on_c, 15, 36, 68
17, 91499, Note_on_c, 15, 36, 0
17, 91500, Note_on_c, 15, 35, 68
17, 91559, Note_on_c, 15, 35, 0
17, 91560, Note_on_c, 15, 36, 68
17, 91619, Note_on_c, 15, 36, 0
17, 91620, Note_on_c, 15, 38, 68
17, 91671, Note_on_c, 15, 38, 0
17, 91680, Note_on_c, 15, 40, 68
17, 91859, Note_on_c, 15, 40, 0
17, 92400, Note_on_c, 15, 38, 68
17, 92459, Note_on_c, 15, 38, 0
17, 92460, Note_on_c, 15, 37, 68
17, 92519, Note_on_c, 15, 37, 0
17, 92520, Note_on_c, 15, 38, 68
17, 92579, Note_on_c, 15, 38, 0
17, 92580, Note_on_c, 15, 40, 68
17, 92631, Note_on_c, 15, 40, 0
17, 92640, Note_on_c, 15, 41, 68
17, 92640, Control_c, 15, 11, 80
17, 92760, Control_c, 15, 11, 82
17, 92819, Note_on_c, 15, 41, 0
17, 92880, Note_on_c, 15, 40, 68
17, 92880, Control_c, 15, 11, 84
17, 92939, Note_on_c, 15, 40, 0
17, 92940, Note_on_c, 15, 38, 68
17, 92999, Note_on_c, 15, 38, 0
17, 93000, Control_c, 15, 11, 86
17, 93000, Note_on_c, 15, 40, 68
17, 93059, Note_on_c, 15, 40, 0
17, 93060, Note_on_c, 15, 41, 68
17, 93111, Note_on_c, 15, 41, 0
17, 93120, Control_c, 15, 11, 88
17, 93120, Note_on_c, 15, 43, 68
17, 93240, Control_c, 15, 11, 90
17, 93299, Note_on_c, 15, 43, 0
17, 93360, Note_on_c, 15, 41, 68
17, 93360, Control_c, 15, 11, 92
17, 93419, Note_on_c, 15, 41, 0
17, 93420, Note_on_c, 15, 40, 68
17, 93479, Note_on_c, 15, 40, 0
17, 93480, Control_c, 15, 11, 94
17, 93480, Note_on_c, 15, 41, 68
17, 93539, Note_on_c, 15, 41, 0
17, 93540, Note_on_c, 15, 43, 68
17, 93591, Note_on_c, 15, 43, 0
17, 93600, Control_c, 15, 11, 96
17, 93600, Note_on_c, 15, 45, 68
17, 93720, Control_c, 15, 11, 98
17, 93779, Note_on_c, 15, 45, 0
17, 93840, Note_on_c, 15, 44, 68
17, 93840, Control_c, 15, 11, 100
17, 93899, Note_on_c, 15, 44, 0
17, 93900, Note_on_c, 15, 42, 68
17, 93959, Note_on_c, 15, 42, 0
17, 93960, Control_c, 15, 11, 102
17, 93960, Note_on_c, 15, 44, 68
17, 94019, Note_on_c, 15, 44, 0
17, 94020, Note_on_c, 15, 45, 68
17, 94071, Note_on_c, 15, 45, 0
17, 94080, Control_c, 15, 11, 104
17, 94080, Note_on_c, 15, 47, 68
17, 94200, Control_c, 15, 11, 105
17, 94259, Note_on_c, 15, 47, 0
17, 94320, Note_on_c, 15, 45, 68
17, 94320, Control_c, 15, 11, 107
17, 94379, Note_on_c, 15, 45, 0
17, 94380, Note_on_c, 15, 44, 68
17, 94439, Note_on_c, 15, 44, 0
17, 94440, Note_on_c, 15, 45, 68
17, 94440, Control_c, 15, 11, 109
17, 94499, Note_on_c, 15, 45, 0
17, 94500, Note_on_c, 15, 47, 68
17, 94551, Note_on_c, 15, 47, 0
17, 94560, Note_on_c, 15, 48, 68
17, 94560, Control_c, 15, 11, 111
17, 94680, Control_c, 15, 11, 113
17, 94739, Note_on_c, 15, 48, 0
17, 94800, Control_c, 15, 11, 115
17, 94800, Note_on_c, 15, 45, 68
17, 94859, Note_on_c, 15, 45, 0
17, 94860, Note_on_c, 15, 44, 68
17, 94919, Note_on_c, 15, 44, 0
17, 94920, Control_c, 15, 11, 117
17, 94920, Note_on_c, 15, 45, 68
17, 94979, Note_on_c, 15, 45, 0
17, 94980, Note_on_c, 15, 47, 68
17, 95031, Note_on_c, 15, 47, 0
17, 95040, Control_c, 15, 11, 119
17, 95040, Note_on_c, 15, 48, 68
17, 95160, Control_c, 15, 11, 121
17, 95219, Note_on_c, 15, 48, 0
17, 95280, Control_c, 15, 11, 123
17, 95280, Note_on_c, 15, 45, 68
17, 95339, Note_on_c, 15, 45, 0
17, 95340, Note_on_c, 15, 44, 68
17, 95399, Note_on_c, 15, 44, 0
17, 95400, Note_on_c, 15, 45, 68
17, 95400, Control_c, 15, 11, 125
17, 95459, Note_on_c, 15, 45, 0
17, 95460, Note_on_c, 15, 47, 68
17, 95511, Note_on_c, 15, 47, 0
17, 95520, Control_c, 15, 11, 127
17, 95520, Note_on_c, 15, 48, 76
17, 96464, Note_on_c, 15, 48, 0
17, 96480, Note_on_c, 15, 39, 76
17, 97424, Note_on_c, 15, 39, 0
17, 97440, Note_on_c, 15, 40, 84
17, 97544, Note_on_c, 15, 40, 0
17, 97560, Note_on_c, 15, 40, 84
17, 97664, Note_on_c, 15, 40, 0
17, 97680, Note_on_c, 15, 40, 84
17, 97784, Note_on_c, 15, 40, 0
17, 97800, Note_on_c, 15, 40, 84
17, 97904, Note_on_c, 15, 40, 0
17, 97920, Note_on_c, 15, 40, 84
17, 98024, Note_on_c, 15, 40, 0
17, 98040, Note_on_c, 15, 40, 84
17, 98144, Note_on_c, 15, 40, 0
17, 98160, Note_on_c, 15, 40, 84
17, 98264, Note_on_c, 15, 40, 0
17, 98280, Note_on_c, 15, 40, 84
17, 98384, Note_on_c, 15, 40, 0
17, 98400, Note_on_c, 15, 40, 84
17, 98504, Note_on_c, 15, 40, 0
17, 98520, Note_on_c, 15, 40, 84
17, 98624, Note_on_c, 15, 40, 0
17, 98640, Note_on_c, 15, 40, 84
17, 98744, Note_on_c, 15, 40, 0
17, 98760, Note_on_c, 15, 40, 84
17, 98864, Note_on_c, 15, 40, 0
17, 98880, Note_on_c, 15, 40, 84
17, 98984, Note_on_c, 15, 40, 0
17, 99000, Note_on_c, 15, 40, 84
17, 99104, Note_on_c, 15, 40, 0
17, 99120, Note_on_c, 15, 40, 84
17, 99224, Note_on_c, 15, 40, 0
17, 99240, Note_on_c, 15, 40, 84
17, 99344, Note_on_c, 15, 40, 0
17, 99360, Note_on_c, 15, 33, 84
17, 99599, Note_on_c, 15, 33, 0
17, 101280, Note_on_c, 15, 50, 84
17, 101984, Note_on_c, 15, 50, 0
17, 102000, Note_on_c, 15, 50, 84
17, 102179, Note_on_c, 15, 50, 0
17, 102240, Note_on_c, 15, 45, 84
17, 102419, Note_on_c, 15, 45, 0
17, 102480, Note_on_c, 15, 41, 84
17, 102659, Note_on_c, 15, 41, 0
17, 102720, Note_on_c, 15, 40, 84
17, 102899, Note_on_c, 15, 40, 0
17, 102960, Note_on_c, 15, 38, 84
17, 103139, Note_on_c, 15, 38, 0
17, 103200, Note_on_c, 15, 33, 84
17, 103439, Note_on_c, 15, 33, 0
17, 105120, Note_on_c, 15, 50, 84
17, 105824, Note_on_c, 15, 50, 0
17, 105840, Note_on_c, 15, 50, 84
17, 106019, Note_on_c, 15, 50, 0
17, 106080, Note_on_c, 15, 45, 84
17, 106259, Note_on_c, 15, 45, 0
17, 106320, Note_on_c, 15, 41, 84
17, 106499, Note_on_c, 15, 41, 0
17, 106560, Note_on_c, 15, 40, 84
17, 106739, Note_on_c, 15, 40, 0
17, 106800, Note_on_c, 15, 38, 84
17, 106979, Note_on_c, 15, 38, 0
17, 107040, Note_on_c, 15, 33, 52
17, 107219, Note_on_c, 15, 33, 0
17, 107280, Note_on_c, 15, 41, 52
17, 107519, Note_on_c, 15, 41, 0
17, 107520, Note_on_c, 15, 40, 52
17, 107759, Note_on_c, 15, 40, 0
17, 107760, Note_on_c, 15, 38, 76
17, 107984, Note_on_c, 15, 38, 0
17, 108000, Note_on_c, 15, 33, 52
17, 108179, Note_on_c, 15, 33, 0
17, 108240, Note_on_c, 15, 41, 52
17, 108479, Note_on_c, 15, 41, 0
17, 108480, Note_on_c, 15, 40, 52
17, 108719, Note_on_c, 15, 40, 0
17, 108720, Note_on_c, 15, 38, 76
17, 108944, Note_on_c, 15, 38, 0
17, 108960, Note_on_c, 15, 33, 52
17, 109139, Note_on_c, 15, 33, 0
17, 109200, Note_on_c, 15, 41, 52
17, 109439, Note_on_c, 15, 41, 0
17, 109440, Note_on_c, 15, 40, 52
17, 109679, Note_on_c, 15, 40, 0
17, 109680, Note_on_c, 15, 38, 76
17, 109904, Note_on_c, 15, 38, 0
17, 109920, Note_on_c, 15, 33, 52
17, 110099, Note_on_c, 15, 33, 0
17, 110160, Note_on_c, 15, 41, 52
17, 110399, Note_on_c, 15, 41, 0
17, 110400, Note_on_c, 15, 40, 52
17, 110639, Note_on_c, 15, 40, 0
17, 110640, Note_on_c, 15, 38, 76
17, 110864, Note_on_c, 15, 38, 0
17, 110880, Note_on_c, 15, 33, 52
17, 111089, Note_on_c, 15, 33, 0
17, 111120, Note_on_c, 15, 38, 76
17, 111329, Note_on_c, 15, 38, 0
17, 111360, Note_on_c, 15, 33, 52
17, 111569, Note_on_c, 15, 33, 0
17, 111600, Note_on_c, 15, 38, 76
17, 111809, Note_on_c, 15, 38, 0
17, 111840, Note_on_c, 15, 33, 52
17, 112049, Note_on_c, 15, 33, 0
17, 112080, Note_on_c, 15, 38, 76
17, 112289, Note_on_c, 15, 38, 0
17, 112320, Note_on_c, 15, 33, 52
17, 112529, Note_on_c, 15, 33, 0
17, 112560, Note_on_c, 15, 38, 76
17, 112769, Note_on_c, 15, 38, 0
17, 112800, Note_on_c, 15, 33, 84
17, 114704, Note_on_c, 15, 33, 0
17, 114720, Note_on_c, 15, 33, 84
17, 115304, Note_on_c, 15, 33, 0
17, 115320, Note_on_c, 15, 45, 84
17, 115424, Note_on_c, 15, 45, 0
17, 115440, Note_on_c, 15, 40, 84
17, 115544, Note_on_c, 15, 40, 0
17, 115560, Note_on_c, 15, 37, 84
17, 115664, Note_on_c, 15, 37, 0
17, 115680, Note_on_c, 15, 33, 84
17, 115784, Note_on_c, 15, 33, 0
17, 115800, Note_on_c, 15, 45, 84
17, 115904, Note_on_c, 15, 45, 0
17, 115920, Note_on_c, 15, 40, 84
17, 116024, Note_on_c, 15, 40, 0
17, 116040, Note_on_c, 15, 37, 84
17, 116144, Note_on_c, 15, 37, 0
17, 116160, Note_on_c, 15, 33, 84
17, 116264, Note_on_c, 15, 33, 0
17, 116280, Note_on_c, 15, 45, 84
17, 116384, Note_on_c, 15, 45, 0
17, 116400, Note_on_c, 15, 40, 84
17, 116504, Note_on_c, 15, 40, 0
17, 116520, Note_on_c, 15, 37, 84
17, 116624, Note_on_c, 15, 37, 0
17, 116640, Note_on_c, 15, 33, 84
17, 116879, Note_on_c, 15, 33, 0
17, 117600, Note_on_c, 15, 33, 76
17, 117839, Note_on_c, 15, 33, 0
17, 120360, Note_on_c, 15, 33, 52
17, 120399, Note_on_c, 15, 33, 0
17, 120400, Note_on_c, 15, 35, 52
17, 120439, Note_on_c, 15, 35, 0
17, 120440, Note_on_c, 15, 37, 52
17, 120471, Note_on_c, 15, 37, 0
17, 120480, Note_on_c, 15, 38, 52
17, 120719, Note_on_c, 15, 38, 0
17, 124320, Note_on_c, 15, 43, 52
17, 125024, Note_on_c, 15, 43, 0
17, 125040, Note_on_c, 15, 43, 52
17, 125099, Note_on_c, 15, 43, 0
17, 125100, Note_on_c, 15, 42, 52
17, 125159, Note_on_c, 15, 42, 0
17, 125160, Note_on_c, 15, 43, 52
17, 125219, Note_on_c, 15, 43, 0
17, 125220, Note_on_c, 15, 45, 52
17, 125271, Note_on_c, 15, 45, 0
17, 125280, Note_on_c, 15, 47, 52
17, 125984, Note_on_c, 15, 47, 0
17, 126000, Note_on_c, 15, 47, 52
17, 126059, Note_on_c, 15, 47, 0
17, 126060, Note_on_c, 15, 46, 52
17, 126119, Note_on_c, 15, 46, 0
17, 126120, Note_on_c, 15, 47, 52
17, 126179, Note_on_c, 15, 47, 0
17, 126180, Note_on_c, 15, 49, 52
17, 126231, Note_on_c, 15, 49, 0
17, 126240, Note_on_c, 15, 50, 52
17, 126419, Note_on_c, 15, 50, 0
17, 126480, Note_on_c, 15, 50, 52
17, 126659, Note_on_c, 15, 50, 0
17, 126720, Note_on_c, 15, 47, 52
17, 126899, Note_on_c, 15, 47, 0
17, 126960, Note_on_c, 15, 47, 52
17, 127139, Note_on_c, 15, 47, 0
17, 127200, Note_on_c, 15, 44, 52
17, 127439, Note_on_c, 15, 44, 0
17, 128160, Note_on_c, 15, 50, 52
17, 128339, Note_on_c, 15, 50, 0
17, 128400, Note_on_c, 15, 50, 52
17, 128579, Note_on_c, 15, 50, 0
17, 128640, Note_on_c, 15, 48, 52
17, 128819, Note_on_c, 15, 48, 0
17, 128880, Note_on_c, 15, 48, 52
17, 129059, Note_on_c, 15, 48, 0
17, 129120, Note_on_c, 15, 45, 52
17, 129299, Note_on_c, 15, 45, 0
17, 129840, Control_c, 15, 11, 80
17, 130080, Note_on_c, 15, 47, 76
17, 130319, Note_on_c, 15, 47, 0
17, 130320, Control_c, 15, 11, 84
17, 130560, Note_on_c, 15, 45, 76
17, 130560, Control_c, 15, 11, 88
17, 130799, Note_on_c, 15, 45, 0
17, 130800, Control_c, 15, 11, 92
17, 131040, Control_c, 15, 11, 96
17, 131040, Note_on_c, 15, 43, 76
17, 131279, Note_on_c, 15, 43, 0
17, 131280, Control_c, 15, 11, 100
17, 131520, Control_c, 15, 11, 104
17, 131520, Note_on_c, 15, 42, 76
17, 131759, Note_on_c, 15, 42, 0
17, 131760, Control_c, 15, 11, 107
17, 132000, Control_c, 15, 11, 111
17, 132000, Note_on_c, 15, 43, 76
17, 132224, Note_on_c, 15, 43, 0
17, 132240, Control_c, 15, 11, 115
17, 132240, Note_on_c, 15, 40, 76
17, 132464, Note_on_c, 15, 40, 0
17, 132480, Control_c, 15, 11, 119
17, 132480, Note_on_c, 15, 45, 76
17, 132704, Note_on_c, 15, 45, 0
17, 132720, Note_on_c, 15, 33, 76
17, 132720, Control_c, 15, 11, 123
17, 132944, Note_on_c, 15, 33, 0
17, 132960, Control_c, 15, 11, 127
17, 132960, Note_on_c, 15, 38, 76
17, 133664, Note_on_c, 15, 38, 0
17, 133680, Note_on_c, 15, 38, 76
17, 133739, Note_on_c, 15, 38, 0
17, 133740, Note_on_c, 15, 37, 76
17, 133799, Note_on_c, 15, 37, 0
17, 133800, Note_on_c, 15, 38, 76
17, 133859, Note_on_c, 15, 38, 0
17, 133860, Note_on_c, 15, 40, 76
17, 133911, Note_on_c, 15, 40, 0
17, 133920, Note_on_c, 15, 42, 84
17, 134624, Note_on_c, 15, 42, 0
17, 134640, Note_on_c, 15, 42, 76
17, 134699, Note_on_c, 15, 42, 0
17, 134700, Note_on_c, 15, 40, 76
17, 134759, Note_on_c, 15, 40, 0
17, 134760, Note_on_c, 15, 42, 76
17, 134819, Note_on_c, 15, 42, 0
17, 134820, Note_on_c, 15, 43, 76
17, 134871, Note_on_c, 15, 43, 0
17, 134880, Note_on_c, 15, 45, 76
17, 135059, Note_on_c, 15, 45, 0
17, 135120, Note_on_c, 15, 45, 76
17, 135179, Note_on_c, 15, 45, 0
17, 135180, Note_on_c, 15, 44, 76
17, 135239, Note_on_c, 15, 44, 0
17, 135240, Note_on_c, 15, 45, 76
17, 135299, Note_on_c, 15, 45, 0
17, 135300, Note_on_c, 15, 47, 76
17, 135351, Note_on_c, 15, 47, 0
17, 135360, Note_on_c, 15, 48, 84
17, 136064, Note_on_c, 15, 48, 0
17, 136080, Note_on_c, 15, 45, 76
17, 136259, Note_on_c, 15, 45, 0
17, 136320, Note_on_c, 15, 42, 76
17, 136499, Note_on_c, 15, 42, 0
17, 136560, Note_on_c, 15, 36, 76
17, 136739, Note_on_c, 15, 36, 0
17, 136800, Note_on_c, 15, 35, 76
17, 136979, Note_on_c, 15, 35, 0
17, 137040, Note_on_c, 15, 38, 76
17, 137219, Note_on_c, 15, 38, 0
17, 137280, Note_on_c, 15, 43, 76
17, 137459, Note_on_c, 15, 43, 0
17, 137520, Note_on_c, 15, 47, 76
17, 137699, Note_on_c, 15, 47, 0
17, 137760, Note_on_c, 15, 37, 76
17, 137939, Note_on_c, 15, 37, 0
17, 138000, Note_on_c, 15, 40, 76
17, 138179, Note_on_c, 15, 40, 0
17, 138240, Note_on_c, 15, 45, 76
17, 138419, Note_on_c, 15, 45, 0
17, 138480, Note_on_c, 15, 49, 76
17, 138659, Note_on_c, 15, 49, 0
17, 138720, Note_on_c, 15, 38, 76
17, 138899, Note_on_c, 15, 38, 0
17, 138960, Note_on_c, 15, 45, 76
17, 139019, Note_on_c, 15, 45, 0
17, 139020, Note_on_c, 15, 44, 76
17, 139079, Note_on_c, 15, 44, 0
17, 139080, Note_on_c, 15, 45, 76
17, 139139, Note_on_c, 15, 45, 0
17, 139140, Note_on_c, 15, 47, 76
17, 139191, Note_on_c, 15, 47, 0
17, 139200, Note_on_c, 15, 48, 84
17, 139904, Note_on_c, 15, 48, 0
17, 139920, Note_on_c, 15, 45, 76
17, 140099, Note_on_c, 15, 45, 0
17, 140160, Note_on_c, 15, 42, 76
17, 140339, Note_on_c, 15, 42, 0
17, 140400, Note_on_c, 15, 36, 76
17, 140579, Note_on_c, 15, 36, 0
17, 140640, Note_on_c, 15, 34, 76
17, 140819, Note_on_c, 15, 34, 0
17, 140880, Note_on_c, 15, 38, 76
17, 141059, Note_on_c, 15, 38, 0
17, 141120, Note_on_c, 15, 43, 76
17, 141299, Note_on_c, 15, 43, 0
17, 141360, Note_on_c, 15, 46, 76
17, 141539, Note_on_c, 15, 46, 0
17, 141600, Note_on_c, 15, 37, 76
17, 141779, Note_on_c, 15, 37, 0
17, 141840, Note_on_c, 15, 40, 76
17, 142019, Note_on_c, 15, 40, 0
17, 142080, Note_on_c, 15, 45, 76
17, 142259, Note_on_c, 15, 45, 0
17, 142320, Note_on_c, 15, 49, 76
17, 142499, Note_on_c, 15, 49, 0
17, 142560, Note_on_c, 15, 38, 84
17, 143264, Note_on_c, 15, 38, 0
17, 143280, Note_on_c, 15, 38, 76
17, 143339, Note_on_c, 15, 38, 0
17, 143340, Note_on_c, 15, 37, 76
17, 143399, Note_on_c, 15, 37, 0
17, 143400, Note_on_c, 15, 38, 76
17, 143459, Note_on_c, 15, 38, 0
17, 143460, Note_on_c, 15, 40, 76
17, 143511, Note_on_c, 15, 40, 0
17, 143520, Note_on_c, 15, 41, 76
17, 143699, Note_on_c, 15, 41, 0
17, 143760, Note_on_c, 15, 41, 76
17, 143939, Note_on_c, 15, 41, 0
17, 144000, Note_on_c, 15, 38, 76
17, 144179, Note_on_c, 15, 38, 0
17, 144240, Note_on_c, 15, 38, 76
17, 144419, Note_on_c, 15, 38, 0
17, 144480, Note_on_c, 15, 34, 84
17, 145184, Note_on_c, 15, 34, 0
17, 145200, Note_on_c, 15, 34, 76
17, 145259, Note_on_c, 15, 34, 0
17, 145260, Note_on_c, 15, 33, 76
17, 145319, Note_on_c, 15, 33, 0
17, 145320, Note_on_c, 15, 34, 76
17, 145379, Note_on_c, 15, 34, 0
17, 145380, Note_on_c, 15, 36, 76
17, 145431, Note_on_c, 15, 36, 0
17, 145440, Note_on_c, 15, 38, 76
17, 145619, Note_on_c, 15, 38, 0
17, 145680, Note_on_c, 15, 38, 76
17, 145859, Note_on_c, 15, 38, 0
17, 145920, Note_on_c, 15, 34, 76
17, 146099, Note_on_c, 15, 34, 0
17, 146160, Note_on_c, 15, 34, 76
17, 146339, Note_on_c, 15, 34, 0
17, 146400, Note_on_c, 15, 32, 84
17, 146489, Note_on_c, 15, 32, 0
17, 146520, Note_on_c, 15, 40, 84
17, 146609, Note_on_c, 15, 40, 0
17, 146640, Note_on_c, 15, 44, 84
17, 146729, Note_on_c, 15, 44, 0
17, 146760, Note_on_c, 15, 40, 84
17, 146849, Note_on_c, 15, 40, 0
17, 146880, Note_on_c, 15, 44, 84
17, 146969, Note_on_c, 15, 44, 0
17, 147000, Note_on_c, 15, 40, 84
17, 147089, Note_on_c, 15, 40, 0
17, 147120, Note_on_c, 15, 44, 84
17, 147209, Note_on_c, 15, 44, 0
17, 147240, Note_on_c, 15, 40, 84
17, 147329, Note_on_c, 15, 40, 0
17, 147360, Note_on_c, 15, 45, 84
17, 147449, Note_on_c, 15, 45, 0
17, 147480, Note_on_c, 15, 40, 84
17, 147569, Note_on_c, 15, 40, 0
17, 147600, Note_on_c, 15, 45, 84
17, 147689, Note_on_c, 15, 45, 0
17, 147720, Note_on_c, 15, 40, 84
17, 147809, Note_on_c, 15, 40, 0
17, 147840, Note_on_c, 15, 48, 84
17, 147929, Note_on_c, 15, 48, 0
17, 147960, Note_on_c, 15, 40, 84
17, 148049, Note_on_c, 15, 40, 0
17, 148080, Note_on_c, 15, 48, 84
17, 148169, Note_on_c, 15, 48, 0
17, 148200, Note_on_c, 15, 40, 84
17, 148289, Note_on_c, 15, 40, 0
17, 148320, Note_on_c, 15, 47, 84
17, 148409, Note_on_c, 15, 47, 0
17, 148440, Note_on_c, 15, 40, 84
17, 148529, Note_on_c, 15, 40, 0
17, 148560, Note_on_c, 15, 47, 84
17, 148649, Note_on_c, 15, 47, 0
17, 148680, Note_on_c, 15, 40, 84
17, 148769, Note_on_c, 15, 40, 0
17, 148800, Note_on_c, 15, 50, 84
17, 148889, Note_on_c, 15, 50, 0
17, 148920, Note_on_c, 15, 40, 84
17, 149009, Note_on_c, 15, 40, 0
17, 149040, Note_on_c, 15, 50, 84
17, 149129, Note_on_c, 15, 50, 0
17, 149160, Note_on_c, 15, 40, 84
17, 149249, Note_on_c, 15, 40, 0
17, 149280, Note_on_c, 15, 48, 84
17, 149369, Note_on_c, 15, 48, 0
17, 149400, Note_on_c, 15, 40, 84
17, 149489, Note_on_c, 15, 40, 0
17, 149520, Note_on_c, 15, 48, 84
17, 149609, Note_on_c, 15, 48, 0
17, 149640, Note_on_c, 15, 40, 84
17, 149729, Note_on_c, 15, 40, 0
17, 149760, Note_on_c, 15, 45, 84
17, 149849, Note_on_c, 15, 45, 0
17, 149880, Note_on_c, 15, 40, 84
17, 149969, Note_on_c, 15, 40, 0
17, 150000, Note_on_c, 15, 45, 84
17, 150089, Note_on_c, 15, 45, 0
17, 150120, Note_on_c, 15, 40, 84
17, 150209, Note_on_c, 15, 40, 0
17, 150240, Note_on_c, 15, 44, 84
17, 150329, Note_on_c, 15, 44, 0
17, 150360, Note_on_c, 15, 40, 84
17, 150449, Note_on_c, 15, 40, 0
17, 150480, Note_on_c, 15, 44, 84
17, 150569, Note_on_c, 15, 44, 0
17, 150600, Note_on_c, 15, 40, 84
17, 150689, Note_on_c, 15, 40, 0
17, 150720, Note_on_c, 15, 44, 84
17, 150809, Note_on_c, 15, 44, 0
17, 150840, Note_on_c, 15, 40, 84
17, 150929, Note_on_c, 15, 40, 0
17, 150960, Note_on_c, 15, 44, 84
17, 151049, Note_on_c, 15, 44, 0
17, 151080, Note_on_c, 15, 40, 84
17, 151169, Note_on_c, 15, 40, 0
17, 151200, Note_on_c, 15, 45, 84
17, 151289, Note_on_c, 15, 45, 0
17, 151320, Note_on_c, 15, 40, 84
17, 151409, Note_on_c, 15, 40, 0
17, 151440, Note_on_c, 15, 45, 84
17, 151529, Note_on_c, 15, 45, 0
17, 151560, Note_on_c, 15, 40, 84
17, 151649, Note_on_c, 15, 40, 0
17, 151680, Note_on_c, 15, 48, 84
17, 151769, Note_on_c, 15, 48, 0
17, 151800, Note_on_c, 15, 40, 84
17, 151889, Note_on_c, 15, 40, 0
17, 151920, Note_on_c, 15, 48, 84
17, 152009, Note_on_c, 15, 48, 0
17, 152040, Note_on_c, 15, 40, 84
17, 152129, Note_on_c, 15, 40, 0
17, 152160, Note_on_c, 15, 47, 84
17, 152264, Note_on_c, 15, 47, 0
17, 152280, Note_on_c, 15, 40, 84
17, 152384, Note_on_c, 15, 40, 0
17, 152400, Note_on_c, 15, 52, 92
17, 152984, Note_on_c, 15, 52, 0
17, 153000, Note_on_c, 15, 50, 84
17, 153104, Note_on_c, 15, 50, 0
17, 153120, Note_on_c, 15, 48, 84
17, 153224, Note_on_c, 15, 48, 0
17, 153240, Note_on_c, 15, 50, 84
17, 153344, Note_on_c, 15, 50, 0
17, 153360, Note_on_c, 15, 48, 84
17, 153464, Note_on_c, 15, 48, 0
17, 153480, Note_on_c, 15, 47, 84
17, 153584, Note_on_c, 15, 47, 0
17, 153600, Note_on_c, 15, 45, 84
17, 153704, Note_on_c, 15, 45, 0
17, 153720, Note_on_c, 15, 43, 84
17, 153824, Note_on_c, 15, 43, 0
17, 153840, Note_on_c, 15, 42, 84
17, 153944, Note_on_c, 15, 42, 0
17, 153960, Note_on_c, 15, 41, 84
17, 154064, Note_on_c, 15, 41, 0
17, 154080, Note_on_c, 15, 40, 92
17, 154439, Note_on_c, 15, 40, 0
17, 154440, Note_on_c, 15, 41, 84
17, 154544, Note_on_c, 15, 41, 0
17, 154560, Note_on_c, 15, 40, 92
17, 154919, Note_on_c, 15, 40, 0
17, 154920, Note_on_c, 15, 41, 84
17, 155024, Note_on_c, 15, 41, 0
17, 155040, Note_on_c, 15, 40, 84
17, 155129, Note_on_c, 15, 40, 0
17, 155160, Note_on_c, 15, 41, 84
17, 155249, Note_on_c, 15, 41, 0
17, 155280, Note_on_c, 15, 40, 84
17, 155369, Note_on_c, 15, 40, 0
17, 155400, Note_on_c, 15, 41, 84
17, 155489, Note_on_c, 15, 41, 0
17, 155520, Note_on_c, 15, 40, 84
17, 155609, Note_on_c, 15, 40, 0
17, 155640, Note_on_c, 15, 41, 84
17, 155729, Note_on_c, 15, 41, 0
17, 155760, Note_on_c, 15, 40, 84
17, 155849, Note_on_c, 15, 40, 0
17, 155880, Note_on_c, 15, 41, 84
17, 155969, Note_on_c, 15, 41, 0
17, 156000, Note_on_c, 15, 40, 92
17, 156704, Note_on_c, 15, 40, 0
17, 156720, Note_on_c, 15, 39, 84
17, 156899, Note_on_c, 15, 39, 0
17, 156960, Note_on_c, 15, 38, 84
17, 157139, Note_on_c, 15, 38, 0
17, 157200, Note_on_c, 15, 37, 84
17, 157379, Note_on_c, 15, 37, 0
17, 157440, Note_on_c, 15, 35, 84
17, 157619, Note_on_c, 15, 35, 0
17, 157680, Note_on_c, 15, 40, 84
17, 157859, Note_on_c, 15, 40, 0
17, 157920, Note_on_c, 15, 33, 52
17, 158159, Note_on_c, 15, 33, 0
17, 158400, Note_on_c, 15, 33, 52
17, 158639, Note_on_c, 15, 33, 0
17, 158880, Note_on_c, 15, 33, 52
17, 159119, Note_on_c, 15, 33, 0
17, 161760, Note_on_c, 15, 30, 84
17, 161864, Note_on_c, 15, 30, 0
17, 161880, Note_on_c, 15, 42, 84
17, 161984, Note_on_c, 15, 42, 0
17, 162000, Note_on_c, 15, 37, 84
17, 162104, Note_on_c, 15, 37, 0
17, 162120, Note_on_c, 15, 33, 84
17, 162224, Note_on_c, 15, 33, 0
17, 162240, Note_on_c, 15, 30, 84
17, 162344, Note_on_c, 15, 30, 0
17, 162360, Note_on_c, 15, 42, 84
17, 162464, Note_on_c, 15, 42, 0
17, 162480, Note_on_c, 15, 37, 84
17, 162584, Note_on_c, 15, 37, 0
17, 162600, Note_on_c, 15, 33, 84
17, 162704, Note_on_c, 15, 33, 0
17, 162720, Note_on_c, 15, 30, 84
17, 162824, Note_on_c, 15, 30, 0
17, 162840, Note_on_c, 15, 42, 84
17, 162944, Note_on_c, 15, 42, 0
17, 162960, Note_on_c, 15, 37, 84
17, 163064, Note_on_c, 15, 37, 0
17, 163080, Note_on_c, 15, 33, 84
17, 163184, Note_on_c, 15, 33, 0
17, 163200, Note_on_c, 15, 30, 84
17, 163304, Note_on_c, 15, 30, 0
17, 163320, Note_on_c, 15, 42, 84
17, 163424, Note_on_c, 15, 42, 0
17, 163440, Note_on_c, 15, 44, 84
17, 163544, Note_on_c, 15, 44, 0
17, 163560, Note_on_c, 15, 45, 84
17, 163664, Note_on_c, 15, 45, 0
17, 163680, Note_on_c, 15, 35, 92
17, 163784, Note_on_c, 15, 35, 0
17, 163800, Note_on_c, 15, 47, 84
17, 163904, Note_on_c, 15, 47, 0
17, 163920, Note_on_c, 15, 47, 84
17, 164024, Note_on_c, 15, 47, 0
17, 164040, Note_on_c, 15, 47, 84
17, 164144, Note_on_c, 15, 47, 0
17, 164160, Note_on_c, 15, 35, 92
17, 164264, Note_on_c, 15, 35, 0
17, 164280, Note_on_c, 15, 47, 84
17, 164384, Note_on_c, 15, 47, 0
17, 164400, Note_on_c, 15, 47, 84
17, 164504, Note_on_c, 15, 47, 0
17, 164520, Note_on_c, 15, 47, 84
17, 164624, Note_on_c, 15, 47, 0
17, 164640, Note_on_c, 15, 40, 84
17, 164879, Note_on_c, 15, 40, 0
17, 165600, Note_on_c, 15, 33, 52
17, 165839, Note_on_c, 15, 33, 0
17, 166080, Note_on_c, 15, 33, 52
17, 166319, Note_on_c, 15, 33, 0
17, 166560, Note_on_c, 15, 33, 52
17, 166799, Note_on_c, 15, 33, 0
17, 169440, Note_on_c, 15, 30, 84
17, 169544, Note_on_c, 15, 30, 0
17, 169560, Note_on_c, 15, 42, 84
17, 169664, Note_on_c, 15, 42, 0
17, 169680, Note_on_c, 15, 37, 84
17, 169784, Note_on_c, 15, 37, 0
17, 169800, Note_on_c, 15, 33, 84
17, 169904, Note_on_c, 15, 33, 0
17, 169920, Note_on_c, 15, 30, 84
17, 170024, Note_on_c, 15, 30, 0
17, 170040, Note_on_c, 15, 42, 84
17, 170144, Note_on_c, 15, 42, 0
17, 170160, Note_on_c, 15, 37, 84
17, 170264, Note_on_c, 15, 37, 0
17, 170280, Note_on_c, 15, 33, 84
17, 170384, Note_on_c, 15, 33, 0
17, 170400, Note_on_c, 15, 30, 84
17, 170504, Note_on_c, 15, 30, 0
17, 170520, Note_on_c, 15, 42, 84
17, 170624, Note_on_c, 15, 42, 0
17, 170640, Note_on_c, 15, 37, 84
17, 170744, Note_on_c, 15, 37, 0
17, 170760, Note_on_c, 15, 33, 84
17, 170864, Note_on_c, 15, 33, 0
17, 170880, Note_on_c, 15, 30, 84
17, 170984, Note_on_c, 15, 30, 0
17, 171000, Note_on_c, 15, 42, 84
17, 171104, Note_on_c, 15, 42, 0
17, 171120, Note_on_c, 15, 44, 84
17, 171224, Note_on_c, 15, 44, 0
17, 171240, Note_on_c, 15, 45, 84
17, 171344, Note_on_c, 15, 45, 0
17, 171360, Note_on_c, 15, 35, 92
17, 171464, Note_on_c, 15, 35, 0
17, 171480, Note_on_c, 15, 47, 84
17, 171584, Note_on_c, 15, 47, 0
17, 171600, Note_on_c, 15, 47, 84
17, 171704, Note_on_c, 15, 47, 0
17, 171720, Note_on_c, 15, 47, 84
17, 171824, Note_on_c, 15, 47, 0
17, 171840, Note_on_c, 15, 35, 92
17, 171944, Note_on_c, 15, 35, 0
17, 171960, Note_on_c, 15, 47, 84
17, 172064, Note_on_c, 15, 47, 0
17, 172080, Note_on_c, 15, 47, 84
17, 172184, Note_on_c, 15, 47, 0
17, 172200, Note_on_c, 15, 47, 84
17, 172304, Note_on_c, 15, 47, 0
17, 172320, Note_on_c, 15, 40, 92
17, 172904, Note_on_c, 15, 40, 0
17, 172920, Note_on_c, 15, 40, 84
17, 173039, Note_on_c, 15, 40, 0
17, 173040, Note_on_c, 15, 38, 84
17, 173159, Note_on_c, 15, 38, 0
17, 173160, Note_on_c, 15, 37, 84
17, 173264, Note_on_c, 15, 37, 0
17, 173280, Note_on_c, 15, 38, 92
17, 173864, Note_on_c, 15, 38, 0
17, 173880, Note_on_c, 15, 38, 84
17, 173999, Note_on_c, 15, 38, 0
17, 174000, Note_on_c, 15, 37, 84
17, 174119, Note_on_c, 15, 37, 0
17, 174120, Note_on_c, 15, 36, 84
17, 174224, Note_on_c, 15, 36, 0
17, 174240, Note_on_c, 15, 37, 92
17, 174824, Note_on_c, 15, 37, 0
17, 174840, Note_on_c, 15, 37, 84
17, 174959, Note_on_c, 15, 37, 0
17, 174960, Note_on_c, 15, 35, 84
17, 175079, Note_on_c, 15, 35, 0
17, 175080, Note_on_c, 15, 34, 84
17, 175184, Note_on_c, 15, 34, 0
17, 175200, Note_on_c, 15, 35, 92
17, 175784, Note_on_c, 15, 35, 0
17, 175800, Note_on_c, 15, 35, 84
17, 175919, Note_on_c, 15, 35, 0
17, 175920, Note_on_c, 15, 33, 84
17, 176039, Note_on_c, 15, 33, 0
17, 176040, Note_on_c, 15, 32, 84
17, 176144, Note_on_c, 15, 32, 0
17, 176160, Note_on_c, 15, 33, 92
17, 176249, Note_on_c, 15, 33, 0
17, 176280, Note_on_c, 15, 40, 84
17, 176399, Note_on_c, 15, 40, 0
17, 176400, Note_on_c, 15, 38, 84
17, 176519, Note_on_c, 15, 38, 0
17, 176520, Note_on_c, 15, 37, 84
17, 176624, Note_on_c, 15, 37, 0
17, 176640, Note_on_c, 15, 38, 92
17, 176729, Note_on_c, 15, 38, 0
17, 176760, Note_on_c, 15, 38, 84
17, 176879, Note_on_c, 15, 38, 0
17, 176880, Note_on_c, 15, 37, 84
17, 176999, Note_on_c, 15, 37, 0
17, 177000, Note_on_c, 15, 36, 84
17, 177104, Note_on_c, 15, 36, 0
17, 177120, Note_on_c, 15, 37, 92
17, 177209, Note_on_c, 15, 37, 0
17, 177240, Note_on_c, 15, 37, 84
17, 177359, Note_on_c, 15, 37, 0
17, 177360, Note_on_c, 15, 35, 84
17, 177479, Note_on_c, 15, 35, 0
17, 177480, Note_on_c, 15, 34, 84
17, 177584, Note_on_c, 15, 34, 0
17, 177600, Note_on_c, 15, 35, 92
17, 177689, Note_on_c, 15, 35, 0
17, 177720, Note_on_c, 15, 47, 84
17, 177839, Note_on_c, 15, 47, 0
17, 177840, Note_on_c, 15, 45, 84
17, 177959, Note_on_c, 15, 45, 0
17, 177960, Note_on_c, 15, 44, 84
17, 178064, Note_on_c, 15, 44, 0
17, 178080, Note_on_c, 15, 45, 92
17, 178169, Note_on_c, 15, 45, 0
17, 178200, Note_on_c, 15, 45, 84
17, 178319, Note_on_c, 15, 45, 0
17, 178320, Note_on_c, 15, 44, 84
17, 178439, Note_on_c, 15, 44, 0
17, 178440, Note_on_c, 15, 42, 84
17, 178544, Note_on_c, 15, 42, 0
17, 178560, Note_on_c, 15, 44, 92
17, 178649, Note_on_c, 15, 44, 0
17, 178680, Note_on_c, 15, 44, 84
17, 178799, Note_on_c, 15, 44, 0
17, 178800, Note_on_c, 15, 42, 84
17, 178919, Note_on_c, 15, 42, 0
17, 178920, Note_on_c, 15, 41, 84
17, 179024, Note_on_c, 15, 41, 0
17, 179040, Note_on_c, 15, 42, 92
17, 179129, Note_on_c, 15, 42, 0
17, 179160, Note_on_c, 15, 42, 84
17, 179279, Note_on_c, 15, 42, 0
17, 179280, Note_on_c, 15, 40, 84
17, 179399, Note_on_c, 15, 40, 0
17, 179400, Note_on_c, 15, 38, 84
17, 179504, Note_on_c, 15, 38, 0
17, 179520, Note_on_c, 15, 40, 92
17, 179609, Note_on_c, 15, 40, 0
17, 179640, Note_on_c, 15, 40, 84
17, 179759, Note_on_c, 15, 40, 0
17, 179760, Note_on_c, 15, 38, 84
17, 179879, Note_on_c, 15, 38, 0
17, 179880, Note_on_c, 15, 37, 84
17, 179984, Note_on_c, 15, 37, 0
17, 180000, Note_on_c, 15, 38, 84
17, 180179, Note_on_c, 15, 38, 0
17, 180960, Note_on_c, 15, 47, 84
17, 181139, Note_on_c, 15, 47, 0
17, 181920, Note_on_c, 15, 44, 84
17, 182099, Note_on_c, 15, 44, 0
17, 182400, Note_on_c, 15, 45, 84
17, 182579, Note_on_c, 15, 45, 0
17, 182880, Note_on_c, 15, 38, 84
17, 183059, Note_on_c, 15, 38, 0
17, 183360, Note_on_c, 15, 40, 84
17, 183539, Note_on_c, 15, 40, 0
17, 183840, Note_on_c, 15, 42, 84
17, 184079, Note_on_c, 15, 42, 0
17, 184800, Note_on_c, 15, 44, 84
17, 185039, Note_on_c, 15, 44, 0
17, 186240, Control_c, 15, 11, 80
17, 186480, Note_on_c, 15, 35, 68
17, 186539, Note_on_c, 15, 35, 0
17, 186540, Note_on_c, 15, 34, 68
17, 186599, Note_on_c, 15, 34, 0
17, 186600, Note_on_c, 15, 35, 68
17, 186659, Note_on_c, 15, 35, 0
17, 186660, Note_on_c, 15, 36, 68
17, 186711, Note_on_c, 15, 36, 0
17, 186720, Note_on_c, 15, 38, 68
17, 186899, Note_on_c, 15, 38, 0
17, 187440, Note_on_c, 15, 36, 68
17, 187499, Note_on_c, 15, 36, 0
17, 187500, Note_on_c, 15, 35, 68
17, 187559, Note_on_c, 15, 35, 0
17, 187560, Note_on_c, 15, 36, 68
17, 187619, Note_on_c, 15, 36, 0
17, 187620, Note_on_c, 15, 38, 68
17, 187671, Note_on_c, 15, 38, 0
17, 187680, Note_on_c, 15, 40, 68
17, 187859, Note_on_c, 15, 40, 0
17, 188400, Note_on_c, 15, 38, 68
17, 188459, Note_on_c, 15, 38, 0
17, 188460, Note_on_c, 15, 37, 68
17, 188519, Note_on_c, 15, 37, 0
17, 188520, Note_on_c, 15, 38, 68
17, 188579, Note_on_c, 15, 38, 0
17, 188580, Note_on_c, 15, 40, 68
17, 188631, Note_on_c, 15, 40, 0
17, 188640, Control_c, 15, 11, 80
17, 188640, Note_on_c, 15, 41, 68
17, 188760, Control_c, 15, 11, 82
17, 188819, Note_on_c, 15, 41, 0
17, 188880, Note_on_c, 15, 40, 68
17, 188880, Control_c, 15, 11, 84
17, 188939, Note_on_c, 15, 40, 0
17, 188940, Note_on_c, 15, 38, 68
17, 188999, Note_on_c, 15, 38, 0
17, 189000, Control_c, 15, 11, 86
17, 189000, Note_on_c, 15, 40, 68
17, 189059, Note_on_c, 15, 40, 0
17, 189060, Note_on_c, 15, 41, 68
17, 189111, Note_on_c, 15, 41, 0
17, 189120, Control_c, 15, 11, 88
17, 189120, Note_on_c, 15, 43, 68
17, 189240, Control_c, 15, 11, 90
17, 189299, Note_on_c, 15, 43, 0
17, 189360, Control_c, 15, 11, 92
17, 189360, Note_on_c, 15, 41, 68
17, 189419, Note_on_c, 15, 41, 0
17, 189420, Note_on_c, 15, 40, 68
17, 189479, Note_on_c, 15, 40, 0
17, 189480, Note_on_c, 15, 41, 68
17, 189480, Control_c, 15, 11, 94
17, 189539, Note_on_c, 15, 41, 0
17, 189540, Note_on_c, 15, 43, 68
17, 189591, Note_on_c, 15, 43, 0
17, 189600, Note_on_c, 15, 45, 68
17, 189600, Control_c, 15, 11, 96
17, 189720, Control_c, 15, 11, 98
17, 189779, Note_on_c, 15, 45, 0
17, 189840, Note_on_c, 15, 44, 68
17, 189840, Control_c, 15, 11, 100
17, 189899, Note_on_c, 15, 44, 0
17, 189900, Note_on_c, 15, 42, 68
17, 189959, Note_on_c, 15, 42, 0
17, 189960, Note_on_c, 15, 44, 68
17, 189960, Control_c, 15, 11, 102
17, 190019, Note_on_c, 15, 44, 0
17, 190020, Note_on_c, 15, 45, 68
17, 190071, Note_on_c, 15, 45, 0
17, 190080, Control_c, 15, 11, 104
17, 190080, Note_on_c, 15, 47, 68
17, 190200, Control_c, 15, 11, 105
17, 190259, Note_on_c, 15, 47, 0
17, 190320, Note_on_c, 15, 45, 68
17, 190320, Control_c, 15, 11, 107
17, 190379, Note_on_c, 15, 45, 0
17, 190380, Note_on_c, 15, 44, 68
17, 190439, Note_on_c, 15, 44, 0
17, 190440, Control_c, 15, 11, 109
17, 190440, Note_on_c, 15, 45, 68
17, 190499, Note_on_c, 15, 45, 0
17, 190500, Note_on_c, 15, 47, 68
17, 190551, Note_on_c, 15, 47, 0
17, 190560, Note_on_c, 15, 48, 68
17, 190560, Control_c, 15, 11, 111
17, 190680, Control_c, 15, 11, 113
17, 190739, Note_on_c, 15, 48, 0
17, 190800, Control_c, 15, 11, 115
17, 190800, Note_on_c, 15, 45, 68
17, 190859, Note_on_c, 15, 45, 0
17, 190860, Note_on_c, 15, 44, 68
17, 190919, Note_on_c, 15, 44, 0
17, 190920, Note_on_c, 15, 45, 68
17, 190920, Control_c, 15, 11, 117
17, 190979, Note_on_c, 15, 45, 0
17, 190980, Note_on_c, 15, 47, 68
17, 191031, Note_on_c, 15, 47, 0
17, 191040, Note_on_c, 15, 48, 68
17, 191040, Control_c, 15, 11, 119
17, 191160, Control_c, 15, 11, 121
17, 191219, Note_on_c, 15, 48, 0
17, 191280, Note_on_c, 15, 45, 68
17, 191280, Control_c, 15, 11, 123
17, 191339, Note_on_c, 15, 45, 0
17, 191340, Note_on_c, 15, 44, 68
17, 191399, Note_on_c, 15, 44, 0
17, 191400, Note_on_c, 15, 45, 68
17, 191400, Control_c, 15, 11, 125
17, 191459, Note_on_c, 15, 45, 0
17, 191460, Note_on_c, 15, 47, 68
17, 191511, Note_on_c, 15, 47, 0
17, 191520, Note_on_c, 15, 48, 76
17, 191520, Control_c, 15, 11, 127
17, 192464, Note_on_c, 15, 48, 0
17, 192480, Note_on_c, 15, 39, 76
17, 193424, Note_on_c, 15, 39, 0
17, 193440, Note_on_c, 15, 40, 84
17, 193544, Note_on_c, 15, 40, 0
17, 193560, Note_on_c, 15, 40, 84
17, 193664, Note_on_c, 15, 40, 0
17, 193680, Note_on_c, 15, 40, 84
17, 193784, Note_on_c, 15, 40, 0
17, 193800, Note_on_c, 15, 40, 84
17, 193904, Note_on_c, 15, 40, 0
17, 193920, Note_on_c, 15, 40, 84
17, 194024, Note_on_c, 15, 40, 0
17, 194040, Note_on_c, 15, 40, 84
17, 194144, Note_on_c, 15, 40, 0
17, 194160, Note_on_c, 15, 40, 84
17, 194264, Note_on_c, 15, 40, 0
17, 194280, Note_on_c, 15, 40, 84
17, 194384, Note_on_c, 15, 40, 0
17, 194400, Note_on_c, 15, 40, 84
17, 194504, Note_on_c, 15, 40, 0
17, 194520, Note_on_c, 15, 40, 84
17, 194624, Note_on_c, 15, 40, 0
17, 194640, Note_on_c, 15, 40, 84
17, 194744, Note_on_c, 15, 40, 0
17, 194760, Note_on_c, 15, 40, 84
17, 194864, Note_on_c, 15, 40, 0
17, 194880, Note_on_c, 15, 40, 84
17, 194984, Note_on_c, 15, 40, 0
17, 195000, Note_on_c, 15, 40, 84
17, 195104, Note_on_c, 15, 40, 0
17, 195120, Note_on_c, 15, 40, 84
17, 195224, Note_on_c, 15, 40, 0
17, 195240, Note_on_c, 15, 40, 84
17, 195344, Note_on_c, 15, 40, 0
17, 195360, Note_on_c, 15, 33, 84
17, 195599, Note_on_c, 15, 33, 0
17, 197280, Note_on_c, 15, 50, 84
17, 197984, Note_on_c, 15, 50, 0
17, 198000, Note_on_c, 15, 50, 84
17, 198179, Note_on_c, 15, 50, 0
17, 198240, Note_on_c, 15, 45, 84
17, 198419, Note_on_c, 15, 45, 0
17, 198480, Note_on_c, 15, 41, 84
17, 198659, Note_on_c, 15, 41, 0
17, 198720, Note_on_c, 15, 40, 84
17, 198899, Note_on_c, 15, 40, 0
17, 198960, Note_on_c, 15, 38, 84
17, 199139, Note_on_c, 15, 38, 0
17, 199200, Note_on_c, 15, 33, 84
17, 199439, Note_on_c, 15, 33, 0
17, 201120, Note_on_c, 15, 50, 84
17, 201824, Note_on_c, 15, 50, 0
17, 201840, Note_on_c, 15, 50, 84
17, 202019, Note_on_c, 15, 50, 0
17, 202080, Note_on_c, 15, 45, 84
17, 202259, Note_on_c, 15, 45, 0
17, 202320, Note_on_c, 15, 41, 84
17, 202499, Note_on_c, 15, 41, 0
17, 202560, Note_on_c, 15, 40, 84
17, 202739, Note_on_c, 15, 40, 0
17, 202800, Note_on_c, 15, 38, 84
17, 202979, Note_on_c, 15, 38, 0
17, 203040, Note_on_c, 15, 33, 52
17, 203219, Note_on_c, 15, 33, 0
17, 203280, Note_on_c, 15, 41, 52
17, 203519, Note_on_c, 15, 41, 0
17, 203520, Note_on_c, 15, 40, 52
17, 203759, Note_on_c, 15, 40, 0
17, 203760, Note_on_c, 15, 38, 76
17, 203984, Note_on_c, 15, 38, 0
17, 204000, Note_on_c, 15, 33, 52
17, 204179, Note_on_c, 15, 33, 0
17, 204240, Note_on_c, 15, 41, 52
17, 204479, Note_on_c, 15, 41, 0
17, 204480, Note_on_c, 15, 40, 52
17, 204719, Note_on_c, 15, 40, 0
17, 204720, Note_on_c, 15, 38, 76
17, 204944, Note_on_c, 15, 38, 0
17, 204960, Note_on_c, 15, 33, 52
17, 205139, Note_on_c, 15, 33, 0
17, 205200, Note_on_c, 15, 41, 52
17, 205439, Note_on_c, 15, 41, 0
17, 205440, Note_on_c, 15, 40, 52
17, 205679, Note_on_c, 15, 40, 0
17, 205680, Note_on_c, 15, 38, 76
17, 205904, Note_on_c, 15, 38, 0
17, 205920, Note_on_c, 15, 33, 52
17, 206099, Note_on_c, 15, 33, 0
17, 206160, Note_on_c, 15, 41, 52
17, 206399, Note_on_c, 15, 41, 0
17, 206400, Note_on_c, 15, 40, 52
17, 206639, Note_on_c, 15, 40, 0
17, 206640, Note_on_c, 15, 38, 76
17, 206864, Note_on_c, 15, 38, 0
17, 206880, Note_on_c, 15, 33, 52
17, 207089, Note_on_c, 15, 33, 0
17, 207120, Note_on_c, 15, 38, 76
17, 207329, Note_on_c, 15, 38, 0
17, 207360, Note_on_c, 15, 33, 52
17, 207569, Note_on_c, 15, 33, 0
17, 207600, Note_on_c, 15, 38, 76
17, 207809, Note_on_c, 15, 38, 0
17, 207840, Note_on_c, 15, 33, 52
17, 208049, Note_on_c, 15, 33, 0
17, 208080, Note_on_c, 15, 38, 76
17, 208289, Note_on_c, 15, 38, 0
17, 208320, Note_on_c, 15, 33, 52
17, 208529, Note_on_c, 15, 33, 0
17, 208560, Note_on_c, 15, 38, 76
17, 208769, Note_on_c, 15, 38, 0
17, 208800, Note_on_c, 15, 33, 84
17, 210704, Note_on_c, 15, 33, 0
17, 210720, Note_on_c, 15, 33, 84
17, 211304, Note_on_c, 15, 33, 0
17, 211320, Note_on_c, 15, 45, 84
17, 211424, Note_on_c, 15, 45, 0
17, 211440, Note_on_c, 15, 40, 84
17, 211544, Note_on_c, 15, 40, 0
17, 211560, Note_on_c, 15, 37, 84
17, 211664, Note_on_c, 15, 37, 0
17, 211680, Note_on_c, 15, 33, 84
17, 211784, Note_on_c, 15, 33, 0
17, 211800, Note_on_c, 15, 45, 84
17, 211904, Note_on_c, 15, 45, 0
17, 211920, Note_on_c, 15, 40, 84
17, 212024, Note_on_c, 15, 40, 0
17, 212040, Note_on_c, 15, 37, 84
17, 212144, Note_on_c, 15, 37, 0
17, 212160, Note_on_c, 15, 33, 84
17, 212264, Note_on_c, 15, 33, 0
17, 212280, Note_on_c, 15, 45, 84
17, 212384, Note_on_c, 15, 45, 0
17, 212400, Note_on_c, 15, 40, 84
17, 212504, Note_on_c, 15, 40, 0
17, 212520, Note_on_c, 15, 37, 84
17, 212624, Note_on_c, 15, 37, 0
17, 212640, Note_on_c, 15, 33, 84
17, 212879, Note_on_c, 15, 33, 0
17, 213600, Note_on_c, 15, 33, 76
17, 213839, Note_on_c, 15, 33, 0
17, 216240, Note_on_c, 15, 33, 52
17, 216299, Note_on_c, 15, 33, 0
17, 216300, Note_on_c, 15, 32, 52
17, 216359, Note_on_c, 15, 32, 0
17, 216360, Note_on_c, 15, 33, 52
17, 216419, Note_on_c, 15, 33, 0
17, 216420, Note_on_c, 15, 32, 52
17, 216471, Note_on_c, 15, 32, 0
17, 216480, Note_on_c, 15, 33, 76
17, 216719, Note_on_c, 15, 33, 0
17, 217440, Note_on_c, 15, 33, 76
17, 217679, Note_on_c, 15, 33, 0
17, 220200, Note_on_c, 15, 33, 52
17, 220239, Note_on_c, 15, 33, 0
17, 220240, Note_on_c, 15, 35, 52
17, 220279, Note_on_c, 15, 35, 0
17, 220280, Note_on_c, 15, 37, 52
17, 220311, Note_on_c, 15, 37, 0
17, 220320, Note_on_c, 15, 38, 52
17, 221024, Note_on_c, 15, 38, 0
17, 221040, Note_on_c, 15, 38, 52
17, 221099, Note_on_c, 15, 38, 0
17, 221100, Note_on_c, 15, 37, 52
17, 221159, Note_on_c, 15, 37, 0
17, 221160, Note_on_c, 15, 38, 52
17, 221219, Note_on_c, 15, 38, 0
17, 221220, Note_on_c, 15, 40, 52
17, 221271, Note_on_c, 15, 40, 0
17, 221280, Note_on_c, 15, 41, 52
17, 221984, Note_on_c, 15, 41, 0
17, 222000, Note_on_c, 15, 41, 52
17, 222059, Note_on_c, 15, 41, 0
17, 222060, Note_on_c, 15, 40, 52
17, 222119, Note_on_c, 15, 40, 0
17, 222120, Note_on_c, 15, 41, 52
17, 222179, Note_on_c, 15, 41, 0
17, 222180, Note_on_c, 15, 43, 52
17, 222231, Note_on_c, 15, 43, 0
17, 222240, Note_on_c, 15, 45, 52
17, 222419, Note_on_c, 15, 45, 0
17, 222480, Note_on_c, 15, 45, 52
17, 222659, Note_on_c, 15, 45, 0
17, 222720, Note_on_c, 15, 41, 52
17, 222899, Note_on_c, 15, 41, 0
17, 222960, Note_on_c, 15, 41, 52
17, 223139, Note_on_c, 15, 41, 0
17, 223200, Note_on_c, 15, 38, 52
17, 223439, Note_on_c, 15, 38, 0
17, 223920, Control_c, 15, 11, 80
17, 224160, Note_on_c, 15, 46, 76
17, 224339, Note_on_c, 15, 46, 0
17, 224400, Note_on_c, 15, 46, 76
17, 224480, Control_c, 15, 11, 84
17, 224579, Note_on_c, 15, 46, 0
17, 224640, Note_on_c, 15, 43, 76
17, 224800, Control_c, 15, 11, 88
17, 224819, Note_on_c, 15, 43, 0
17, 224880, Note_on_c, 15, 43, 76
17, 225059, Note_on_c, 15, 43, 0
17, 225120, Note_on_c, 15, 38, 76
17, 225120, Control_c, 15, 11, 92
17, 225359, Note_on_c, 15, 38, 0
17, 225440, Control_c, 15, 11, 96
17, 225760, Control_c, 15, 11, 100
17, 226080, Control_c, 15, 11, 104
17, 226080, Note_on_c, 15, 48, 76
17, 226259, Note_on_c, 15, 48, 0
17, 226320, Note_on_c, 15, 48, 76
17, 226400, Control_c, 15, 11, 107
17, 226499, Note_on_c, 15, 48, 0
17, 226560, Note_on_c, 15, 45, 76
17, 226720, Control_c, 15, 11, 111
17, 226739, Note_on_c, 15, 45, 0
17, 226800, Note_on_c, 15, 45, 76
17, 226979, Note_on_c, 15, 45, 0
17, 227040, Control_c, 15, 11, 115
17, 227040, Note_on_c, 15, 38, 76
17, 227279, Note_on_c, 15, 38, 0
17, 227360, Control_c, 15, 11, 119
17, 227680, Control_c, 15, 11, 123
17, 228000, Control_c, 15, 11, 127
17, 228000, Note_on_c, 15, 43, 76
17, 228704, Note_on_c, 15, 43, 0
17, 228720, Note_on_c, 15, 43, 76
17, 228779, Note_on_c, 15, 43, 0
17, 228780, Note_on_c, 15, 42, 76
17, 228839, Note_on_c, 15, 42, 0
17, 228840, Note_on_c, 15, 43, 76
17, 228899, Note_on_c, 15, 43, 0
17, 228900, Note_on_c, 15, 45, 76
17, 228951, Note_on_c, 15, 45, 0
17, 228960, Note_on_c, 15, 46, 76
17, 229139, Note_on_c, 15, 46, 0
17, 229200, Note_on_c, 15, 47, 76
17, 229379, Note_on_c, 15, 47, 0
17, 229440, Note_on_c, 15, 48, 76
17, 229619, Note_on_c, 15, 48, 0
17, 229680, Note_on_c, 15, 50, 76
17, 229859, Note_on_c, 15, 50, 0
17, 229920, Note_on_c, 15, 51, 84
17, 230039, Note_on_c, 15, 51, 0
17, 230040, Note_on_c, 15, 53, 76
17, 230144, Note_on_c, 15, 53, 0
17, 230160, Note_on_c, 15, 55, 76
17, 230249, Note_on_c, 15, 55, 0
17, 230280, Note_on_c, 15, 53, 76
17, 230369, Note_on_c, 15, 53, 0
17, 230400, Note_on_c, 15, 51, 76
17, 230489, Note_on_c, 15, 51, 0
17, 230520, Note_on_c, 15, 53, 76
17, 230609, Note_on_c, 15, 53, 0
17, 230640, Note_on_c, 15, 50, 76
17, 230729, Note_on_c, 15, 50, 0
17, 230760, Note_on_c, 15, 51, 76
17, 230849, Note_on_c, 15, 51, 0
17, 230880, Note_on_c, 15, 48, 76
17, 230969, Note_on_c, 15, 48, 0
17, 231000, Note_on_c, 15, 50, 76
17, 231089, Note_on_c, 15, 50, 0
17, 231120, Note_on_c, 15, 46, 76
17, 231209, Note_on_c, 15, 46, 0
17, 231240, Note_on_c, 15, 48, 76
17, 231329, Note_on_c, 15, 48, 0
17, 231360, Note_on_c, 15, 45, 76
17, 231449, Note_on_c, 15, 45, 0
17, 231480, Note_on_c, 15, 46, 76
17, 231569, Note_on_c, 15, 46, 0
17, 231600, Note_on_c, 15, 43, 76
17, 231689, Note_on_c, 15, 43, 0
17, 231720, Note_on_c, 15, 45, 76
17, 231809, Note_on_c, 15, 45, 0
17, 231840, Note_on_c, 15, 41, 84
17, 232544, Note_on_c, 15, 41, 0
17, 232560, Note_on_c, 15, 41, 76
17, 232619, Note_on_c, 15, 41, 0
17, 232620, Note_on_c, 15, 40, 76
17, 232679, Note_on_c, 15, 40, 0
17, 232680, Note_on_c, 15, 41, 76
17, 232739, Note_on_c, 15, 41, 0
17, 232740, Note_on_c, 15, 43, 76
17, 232791, Note_on_c, 15, 43, 0
17, 232800, Note_on_c, 15, 44, 76
17, 232979, Note_on_c, 15, 44, 0
17, 233040, Note_on_c, 15, 45, 76
17, 233219, Note_on_c, 15, 45, 0
17, 233280, Note_on_c, 15, 46, 76
17, 233459, Note_on_c, 15, 46, 0
17, 233520, Note_on_c, 15, 48, 76
17, 233699, Note_on_c, 15, 48, 0
17, 233760, Note_on_c, 15, 50, 84
17, 233879, Note_on_c, 15, 50, 0
17, 233880, Note_on_c, 15, 51, 76
17, 233984, Note_on_c, 15, 51, 0
17, 234000, Note_on_c, 15, 53, 76
17, 234089, Note_on_c, 15, 53, 0
17, 234120, Note_on_c, 15, 51, 76
17, 234209, Note_on_c, 15, 51, 0
17, 234240, Note_on_c, 15, 50, 76
17, 234329, Note_on_c, 15, 50, 0
17, 234360, Note_on_c, 15, 51, 76
17, 234449, Note_on_c, 15, 51, 0
17, 234480, Note_on_c, 15, 48, 76
17, 234569, Note_on_c, 15, 48, 0
17, 234600, Note_on_c, 15, 50, 76
17, 234689, Note_on_c, 15, 50, 0
17, 234720, Note_on_c, 15, 46, 76
17, 234809, Note_on_c, 15, 46, 0
17, 234840, Note_on_c, 15, 48, 76
17, 234929, Note_on_c, 15, 48, 0
17, 234960, Note_on_c, 15, 45, 76
17, 235049, Note_on_c, 15, 45, 0
17, 235080, Note_on_c, 15, 46, 76
17, 235169, Note_on_c, 15, 46, 0
17, 235200, Note_on_c, 15, 43, 76
17, 235289, Note_on_c, 15, 43, 0
17, 235320, Note_on_c, 15, 45, 76
17, 235409, Note_on_c, 15, 45, 0
17, 235440, Note_on_c, 15, 41, 76
17, 235529, Note_on_c, 15, 41, 0
17, 235560, Note_on_c, 15, 43, 76
17, 235649, Note_on_c, 15, 43, 0
17, 235680, Note_on_c, 15, 40, 76
17, 235859, Note_on_c, 15, 40, 0
17, 235920, Note_on_c, 15, 41, 76
17, 236099, Note_on_c, 15, 41, 0
17, 236160, Note_on_c, 15, 43, 76
17, 236339, Note_on_c, 15, 43, 0
17, 236400, Note_on_c, 15, 44, 76
17, 236579, Note_on_c, 15, 44, 0
17, 236640, Note_on_c, 15, 45, 84
17, 237584, Note_on_c, 15, 45, 0
17, 237600, Note_on_c, 15, 38, 76
17, 237779, Note_on_c, 15, 38, 0
17, 237840, Note_on_c, 15, 40, 76
17, 238019, Note_on_c, 15, 40, 0
17, 238080, Note_on_c, 15, 41, 76
17, 238259, Note_on_c, 15, 41, 0
17, 238320, Note_on_c, 15, 42, 76
17, 238499, Note_on_c, 15, 42, 0
17, 238560, Note_on_c, 15, 43, 84
17, 239504, Note_on_c, 15, 43, 0
17, 239520, Note_on_c, 15, 36, 84
17, 241424, Note_on_c, 15, 36, 0
17, 241440, Note_on_c, 15, 35, 92
17, 243344, Note_on_c, 15, 35, 0
17, 243360, Note_on_c, 15, 34, 92
17, 244304, Note_on_c, 15, 34, 0
17, 244320, Note_on_c, 15, 33, 92
17, 245264, Note_on_c, 15, 33, 0
17, 245280, Note_on_c, 15, 33, 92
17, 246224, Note_on_c, 15, 33, 0
17, 246240, Note_on_c, 15, 32, 92
17, 247184, Note_on_c, 15, 32, 0
17, 247200, Note_on_c, 15, 31, 84
17, 247379, Note_on_c, 15, 31, 0
17, 247440, Note_on_c, 15, 43, 84
17, 247499, Note_on_c, 15, 43, 0
17, 247500, Note_on_c, 15, 42, 84
17, 247559, Note_on_c, 15, 42, 0
17, 247560, Note_on_c, 15, 43, 84
17, 247619, Note_on_c, 15, 43, 0
17, 247620, Note_on_c, 15, 45, 84
17, 247671, Note_on_c, 15, 45, 0
17, 247680, Note_on_c, 15, 47, 84
17, 247859, Note_on_c, 15, 47, 0
17, 248400, Note_on_c, 15, 48, 84
17, 248459, Note_on_c, 15, 48, 0
17, 248460, Note_on_c, 15, 47, 84
17, 248519, Note_on_c, 15, 47, 0
17, 248520, Note_on_c, 15, 48, 84
17, 248579, Note_on_c, 15, 48, 0
17, 248580, Note_on_c, 15, 50, 84
17, 248631, Note_on_c, 15, 50, 0
17, 248640, Note_on_c, 15, 52, 84
17, 248819, Note_on_c, 15, 52, 0
17, 249360, Note_on_c, 15, 40, 84
17, 249419, Note_on_c, 15, 40, 0
17, 249420, Note_on_c, 15, 39, 84
17, 249479, Note_on_c, 15, 39, 0
17, 249480, Note_on_c, 15, 40, 84
17, 249539, Note_on_c, 15, 40, 0
17, 249540, Note_on_c, 15, 42, 84
17, 249591, Note_on_c, 15, 42, 0
17, 249600, Note_on_c, 15, 44, 84
17, 249779, Note_on_c, 15, 44, 0
17, 250320, Note_on_c, 15, 45, 84
17, 250379, Note_on_c, 15, 45, 0
17, 250380, Note_on_c, 15, 44, 84
17, 250439, Note_on_c, 15, 44, 0
17, 250440, Note_on_c, 15, 45, 84
17, 250499, Note_on_c, 15, 45, 0
17, 250500, Note_on_c, 15, 47, 84
17, 250551, Note_on_c, 15, 47, 0
17, 250560, Note_on_c, 15, 48, 84
17, 250739, Note_on_c, 15, 48, 0
17, 251040, Note_on_c, 15, 38, 84
17, 251219, Note_on_c, 15, 38, 0
17, 251280, Note_on_c, 15, 38, 84
17, 251339, Note_on_c, 15, 38, 0
17, 251340, Note_on_c, 15, 37, 84
17, 251399, Note_on_c, 15, 37, 0
17, 251400, Note_on_c, 15, 38, 84
17, 251459, Note_on_c, 15, 38, 0
17, 251460, Note_on_c, 15, 40, 84
17, 251511, Note_on_c, 15, 40, 0
17, 251520, Note_on_c, 15, 42, 84
17, 251699, Note_on_c, 15, 42, 0
17, 251760, Note_on_c, 15, 42, 84
17, 251819, Note_on_c, 15, 42, 0
17, 251820, Note_on_c, 15, 40, 84
17, 251879, Note_on_c, 15, 40, 0
17, 251880, Note_on_c, 15, 42, 84
17, 251939, Note_on_c, 15, 42, 0
17, 251940, Note_on_c, 15, 43, 84
17, 251991, Note_on_c, 15, 43, 0
17, 252000, Note_on_c, 15, 45, 84
17, 252179, Note_on_c, 15, 45, 0
17, 252240, Note_on_c, 15, 45, 84
17, 252299, Note_on_c, 15, 45, 0
17, 252300, Note_on_c, 15, 44, 84
17, 252359, Note_on_c, 15, 44, 0
17, 252360, Note_on_c, 15, 45, 84
17, 252419, Note_on_c, 15, 45, 0
17, 252420, Note_on_c, 15, 47, 84
17, 252471, Note_on_c, 15, 47, 0
17, 252480, Note_on_c, 15, 48, 92
17, 253184, Note_on_c, 15, 48, 0
17, 253200, Note_on_c, 15, 48, 84
17, 253259, Note_on_c, 15, 48, 0
17, 253260, Note_on_c, 15, 50, 84
17, 253319, Note_on_c, 15, 50, 0
17, 253320, Note_on_c, 15, 48, 84
17, 253379, Note_on_c, 15, 48, 0
17, 253380, Note_on_c, 15, 47, 84
17, 253431, Note_on_c, 15, 47, 0
17, 253440, Note_on_c, 15, 45, 84
17, 253619, Note_on_c, 15, 45, 0
17, 253680, Note_on_c, 15, 45, 84
17, 253739, Note_on_c, 15, 45, 0
17, 253740, Note_on_c, 15, 47, 84
17, 253799, Note_on_c, 15, 47, 0
17, 253800, Note_on_c, 15, 45, 84
17, 253859, Note_on_c, 15, 45, 0
17, 253860, Note_on_c, 15, 43, 84
17, 253911, Note_on_c, 15, 43, 0
17, 253920, Note_on_c, 15, 42, 84
17, 254099, Note_on_c, 15, 42, 0
17, 254160, Note_on_c, 15, 42, 84
17, 254219, Note_on_c, 15, 42, 0
17, 254220, Note_on_c, 15, 43, 84
17, 254279, Note_on_c, 15, 43, 0
17, 254280, Note_on_c, 15, 42, 84
17, 254339, Note_on_c, 15, 42, 0
17, 254340, Note_on_c, 15, 40, 84
17, 254391, Note_on_c, 15, 40, 0
17, 254400, Note_on_c, 15, 38, 92
17, 255104, Note_on_c, 15, 38, 0
17, 255120, Note_on_c, 15, 38, 84
17, 255179, Note_on_c, 15, 38, 0
17, 255180, Note_on_c, 15, 37, 84
17, 255239, Note_on_c, 15, 37, 0
17, 255240, Note_on_c, 15, 38, 84
17, 255299, Note_on_c, 15, 38, 0
17, 255300, Note_on_c, 15, 40, 84
17, 255351, Note_on_c, 15, 40, 0
17, 255360, Note_on_c, 15, 42, 84
17, 255539, Note_on_c, 15, 42, 0
17, 255600, Note_on_c, 15, 42, 84
17, 255659, Note_on_c, 15, 42, 0
17, 255660, Note_on_c, 15, 40, 84
17, 255719, Note_on_c, 15, 40, 0
17, 255720, Note_on_c, 15, 42, 84
17, 255779, Note_on_c, 15, 42, 0
17, 255780, Note_on_c, 15, 43, 84
17, 255831, Note_on_c, 15, 43, 0
17, 255840, Note_on_c, 15, 45, 84
17, 256019, Note_on_c, 15, 45, 0
17, 256080, Note_on_c, 15, 45, 84
17, 256139, Note_on_c, 15, 45, 0
17, 256140, Note_on_c, 15, 44, 84
17, 256199, Note_on_c, 15, 44, 0
17, 256200, Note_on_c, 15, 45, 84
17, 256259, Note_on_c, 15, 45, 0
17, 256260, Note_on_c, 15, 47, 84
17, 256311, Note_on_c, 15, 47, 0
17, 256320, Note_on_c, 15, 48, 92
17, 257024, Note_on_c, 15, 48, 0
17, 257040, Note_on_c, 15, 48, 84
17, 257099, Note_on_c, 15, 48, 0
17, 257100, Note_on_c, 15, 50, 84
17, 257159, Note_on_c, 15, 50, 0
17, 257160, Note_on_c, 15, 48, 84
17, 257219, Note_on_c, 15, 48, 0
17, 257220, Note_on_c, 15, 47, 84
17, 257271, Note_on_c, 15, 47, 0
17, 257280, Note_on_c, 15, 45, 84
17, 257459, Note_on_c, 15, 45, 0
17, 257520, Note_on_c, 15, 45, 84
17, 257579, Note_on_c, 15, 45, 0
17, 257580, Note_on_c, 15, 47, 84
17, 257639, Note_on_c, 15, 47, 0
17, 257640, Note_on_c, 15, 45, 84
17, 257699, Note_on_c, 15, 45, 0
17, 257700, Note_on_c, 15, 43, 84
17, 257751, Note_on_c, 15, 43, 0
17, 257760, Note_on_c, 15, 42, 84
17, 257939, Note_on_c, 15, 42, 0
17, 258000, Note_on_c, 15, 42, 84
17, 258059, Note_on_c, 15, 42, 0
17, 258060, Note_on_c, 15, 43, 84
17, 258119, Note_on_c, 15, 43, 0
17, 258120, Note_on_c, 15, 42, 84
17, 258179, Note_on_c, 15, 42, 0
17, 258180, Note_on_c, 15, 40, 84
17, 258231, Note_on_c, 15, 40, 0
17, 258240, Note_on_c, 15, 38, 92
17, 258959, Note_on_c, 15, 38, 0
17, 261120, Note_on_c, 15, 38, 44
17, 261359, Note_on_c, 15, 38, 0
17, 261600, Note_on_c, 15, 38, 44
17, 261839, Note_on_c, 15, 38, 0
17, 262560, Note_on_c, 15, 31, 52
17, 262799, Note_on_c, 15, 31, 0
17, 267360, Note_on_c, 15, 43, 52
17, 267539, Note_on_c, 15, 43, 0
17, 267600, Note_on_c, 15, 43, 52
17, 267779, Note_on_c, 15, 43, 0
17, 267840, Note_on_c, 15, 43, 52
17, 268019, Note_on_c, 15, 43, 0
17, 268080, Note_on_c, 15, 42, 52
17, 268259, Note_on_c, 15, 42, 0
17, 268320, Note_on_c, 15, 43, 52
17, 268559, Note_on_c, 15, 43, 0
17, 269280, Note_on_c, 15, 43, 52
17, 269459, Note_on_c, 15, 43, 0
17, 269520, Note_on_c, 15, 43, 52
17, 269699, Note_on_c, 15, 43, 0
17, 269760, Note_on_c, 15, 43, 52
17, 269939, Note_on_c, 15, 43, 0
17, 270000, Note_on_c, 15, 44, 52
17, 270179, Note_on_c, 15, 44, 0
17, 270240, Note_on_c, 15, 45, 52
17, 270479, Note_on_c, 15, 45, 0
17, 271200, Note_on_c, 15, 45, 52
17, 271379, Note_on_c, 15, 45, 0
17, 271440, Note_on_c, 15, 45, 52
17, 271619, Note_on_c, 15, 45, 0
17, 271680, Note_on_c, 15, 45, 52
17, 271859, Note_on_c, 15, 45, 0
17, 271920, Note_on_c, 15, 44, 52
17, 272099, Note_on_c, 15, 44, 0
17, 272160, Note_on_c, 15, 45, 52
17, 272399, Note_on_c, 15, 45, 0
17, 273120, Note_on_c, 15, 45, 52
17, 273299, Note_on_c, 15, 45, 0
17, 273360, Note_on_c, 15, 45, 52
17, 273539, Note_on_c, 15, 45, 0
17, 273600, Note_on_c, 15, 45, 52
17, 273779, Note_on_c, 15, 45, 0
17, 273840, Note_on_c, 15, 46, 52
17, 274019, Note_on_c, 15, 46, 0
17, 274080, Note_on_c, 15, 47, 52
17, 274319, Note_on_c, 15, 47, 0
17, 274800, Control_c, 15, 11, 80
17, 275040, Note_on_c, 15, 47, 76
17, 275040, Control_c, 15, 11, 80
17, 275120, Control_c, 15, 11, 84
17, 275200, Control_c, 15, 11, 88
17, 275264, Note_on_c, 15, 47, 0
17, 275280, Control_c, 15, 11, 92
17, 275280, Note_on_c, 15, 47, 76
17, 275360, Control_c, 15, 11, 96
17, 275440, Control_c, 15, 11, 100
17, 275504, Note_on_c, 15, 47, 0
17, 275520, Note_on_c, 15, 47, 76
17, 275520, Control_c, 15, 11, 104
17, 275600, Control_c, 15, 11, 107
17, 275680, Control_c, 15, 11, 111
17, 275744, Note_on_c, 15, 47, 0
17, 275760, Note_on_c, 15, 47, 76
17, 275760, Control_c, 15, 11, 115
17, 275840, Control_c, 15, 11, 119
17, 275920, Control_c, 15, 11, 123
17, 275984, Note_on_c, 15, 47, 0
17, 276000, Control_c, 15, 11, 127
17, 276000, Note_on_c, 15, 35, 76
17, 276104, Note_on_c, 15, 35, 0
17, 276120, Note_on_c, 15, 47, 76
17, 276224, Note_on_c, 15, 47, 0
17, 276240, Note_on_c, 15, 47, 76
17, 276344, Note_on_c, 15, 47, 0
17, 276360, Note_on_c, 15, 47, 76
17, 276464, Note_on_c, 15, 47, 0
17, 276480, Note_on_c, 15, 47, 76
17, 276584, Note_on_c, 15, 47, 0
17, 276600, Note_on_c, 15, 47, 76
17, 276704, Note_on_c, 15, 47, 0
17, 276720, Note_on_c, 15, 47, 76
17, 276824, Note_on_c, 15, 47, 0
17, 276840, Note_on_c, 15, 47, 76
17, 276944, Note_on_c, 15, 47, 0
17, 276960, Note_on_c, 15, 48, 84
17, 277064, Note_on_c, 15, 48, 0
17, 277080, Note_on_c, 15, 48, 84
17, 277184, Note_on_c, 15, 48, 0
17, 277200, Note_on_c, 15, 48, 84
17, 277304, Note_on_c, 15, 48, 0
17, 277320, Note_on_c, 15, 48, 84
17, 277424, Note_on_c, 15, 48, 0
17, 277440, Note_on_c, 15, 48, 84
17, 277544, Note_on_c, 15, 48, 0
17, 277560, Note_on_c, 15, 48, 84
17, 277664, Note_on_c, 15, 48, 0
17, 277680, Note_on_c, 15, 48, 84
17, 277784, Note_on_c, 15, 48, 0
17, 277800, Note_on_c, 15, 48, 84
17, 277904, Note_on_c, 15, 48, 0
17, 277920, Note_on_c, 15, 49, 84
17, 278009, Note_on_c, 15, 49, 0
17, 278040, Note_on_c, 15, 48, 84
17, 278129, Note_on_c, 15, 48, 0
17, 278160, Note_on_c, 15, 49, 84
17, 278249, Note_on_c, 15, 49, 0
17, 278280, Note_on_c, 15, 48, 84
17, 278369, Note_on_c, 15, 48, 0
17, 278400, Note_on_c, 15, 49, 84
17, 278489, Note_on_c, 15, 49, 0
17, 278520, Note_on_c, 15, 50, 84
17, 278609, Note_on_c, 15, 50, 0
17, 278640, Note_on_c, 15, 49, 84
17, 278729, Note_on_c, 15, 49, 0
17, 278760, Note_on_c, 15, 47, 84
17, 278849, Note_on_c, 15, 47, 0
17, 278880, Note_on_c, 15, 45, 84
17, 278969, Note_on_c, 15, 45, 0
17, 279000, Note_on_c, 15, 49, 84
17, 279089, Note_on_c, 15, 49, 0
17, 279120, Note_on_c, 15, 48, 84
17, 279209, Note_on_c, 15, 48, 0
17, 279240, Note_on_c, 15, 49, 84
17, 279329, Note_on_c, 15, 49, 0
17, 279360, Note_on_c, 15, 47, 84
17, 279449, Note_on_c, 15, 47, 0
17, 279480, Note_on_c, 15, 45, 84
17, 279569, Note_on_c, 15, 45, 0
17, 279600, Note_on_c, 15, 44, 84
17, 279689, Note_on_c, 15, 44, 0
17, 279720, Note_on_c, 15, 42, 84
17, 279809, Note_on_c, 15, 42, 0
17, 279840, Note_on_c, 15, 41, 84
17, 279929, Note_on_c, 15, 41, 0
17, 279960, Note_on_c, 15, 42, 84
17, 280049, Note_on_c, 15, 42, 0
17, 280080, Note_on_c, 15, 44, 84
17, 280169, Note_on_c, 15, 44, 0
17, 280200, Note_on_c, 15, 42, 84
17, 280289, Note_on_c, 15, 42, 0
17, 280320, Note_on_c, 15, 41, 84
17, 280409, Note_on_c, 15, 41, 0
17, 280440, Note_on_c, 15, 37, 84
17, 280529, Note_on_c, 15, 37, 0
17, 280560, Note_on_c, 15, 39, 84
17, 280649, Note_on_c, 15, 39, 0
17, 280680, Note_on_c, 15, 41, 84
17, 280769, Note_on_c, 15, 41, 0
17, 280800, Note_on_c, 15, 42, 84
17, 280889, Note_on_c, 15, 42, 0
17, 280920, Note_on_c, 15, 41, 84
17, 281009, Note_on_c, 15, 41, 0
17, 281040, Note_on_c, 15, 42, 84
17, 281129, Note_on_c, 15, 42, 0
17, 281160, Note_on_c, 15, 44, 84
17, 281249, Note_on_c, 15, 44, 0
17, 281280, Note_on_c, 15, 45, 84
17, 281369, Note_on_c, 15, 45, 0
17, 281400, Note_on_c, 15, 44, 84
17, 281489, Note_on_c, 15, 44, 0
17, 281520, Note_on_c, 15, 45, 84
17, 281609, Note_on_c, 15, 45, 0
17, 281640, Note_on_c, 15, 47, 84
17, 281729, Note_on_c, 15, 47, 0
17, 281760, Note_on_c, 15, 49, 84
17, 281849, Note_on_c, 15, 49, 0
17, 281880, Note_on_c, 15, 48, 84
17, 281969, Note_on_c, 15, 48, 0
17, 282000, Note_on_c, 15, 49, 84
17, 282089, Note_on_c, 15, 49, 0
17, 282120, Note_on_c, 15, 48, 84
17, 282209, Note_on_c, 15, 48, 0
17, 282240, Note_on_c, 15, 49, 84
17, 282329, Note_on_c, 15, 49, 0
17, 282360, Note_on_c, 15, 50, 84
17, 282449, Note_on_c, 15, 50, 0
17, 282480, Note_on_c, 15, 49, 84
17, 282569, Note_on_c, 15, 49, 0
17, 282600, Note_on_c, 15, 47, 84
17, 282689, Note_on_c, 15, 47, 0
17, 282720, Note_on_c, 15, 45, 84
17, 282809, Note_on_c, 15, 45, 0
17, 282840, Note_on_c, 15, 49, 84
17, 282929, Note_on_c, 15, 49, 0
17, 282960, Note_on_c, 15, 48, 84
17, 283049, Note_on_c, 15, 48, 0
17, 283080, Note_on_c, 15, 49, 84
17, 283169, Note_on_c, 15, 49, 0
17, 283200, Note_on_c, 15, 47, 84
17, 283289, Note_on_c, 15, 47, 0
17, 283320, Note_on_c, 15, 45, 84
17, 283409, Note_on_c, 15, 45, 0
17, 283440, Note_on_c, 15, 44, 84
17, 283529, Note_on_c, 15, 44, 0
17, 283560, Note_on_c, 15, 42, 84
17, 283649, Note_on_c, 15, 42, 0
17, 283680, Note_on_c, 15, 41, 84
17, 283769, Note_on_c, 15, 41, 0
17, 283800, Note_on_c, 15, 42, 84
17, 283889, Note_on_c, 15, 42, 0
17, 283920, Note_on_c, 15, 44, 84
17, 284009, Note_on_c, 15, 44, 0
17, 284040, Note_on_c, 15, 42, 84
17, 284129, Note_on_c, 15, 42, 0
17, 284160, Note_on_c, 15, 41, 84
17, 284249, Note_on_c, 15, 41, 0
17, 284280, Note_on_c, 15, 37, 84
17, 284369, Note_on_c, 15, 37, 0
17, 284400, Note_on_c, 15, 39, 84
17, 284489, Note_on_c, 15, 39, 0
17, 284520, Note_on_c, 15, 41, 84
17, 284609, Note_on_c, 15, 41, 0
17, 284640, Note_on_c, 15, 42, 84
17, 284729, Note_on_c, 15, 42, 0
17, 284760, Note_on_c, 15, 41, 84
17, 284849, Note_on_c, 15, 41, 0
17, 284880, Note_on_c, 15, 42, 84
17, 284969, Note_on_c, 15, 42, 0
17, 285000, Note_on_c, 15, 44, 84
17, 285089, Note_on_c, 15, 44, 0
17, 285120, Note_on_c, 15, 45, 84
17, 285209, Note_on_c, 15, 45, 0
17, 285240, Note_on_c, 15, 46, 84
17, 285329, Note_on_c, 15, 46, 0
17, 285360, Note_on_c, 15, 47, 84
17, 285449, Note_on_c, 15, 47, 0
17, 285480, Note_on_c, 15, 48, 84
17, 285569, Note_on_c, 15, 48, 0
17, 285600, Note_on_c, 15, 49, 84
17, 285839, Note_on_c, 15, 49, 0
17, 286500, Note_on_c, 15, 37, 84
17, 286551, Note_on_c, 15, 37, 0
17, 286560, Note_on_c, 15, 42, 84
17, 286799, Note_on_c, 15, 42, 0
17, 287460, Note_on_c, 15, 42, 84
17, 287511, Note_on_c, 15, 42, 0
17, 287520, Note_on_c, 15, 37, 84
17, 287759, Note_on_c, 15, 37, 0
17, 288420, Note_on_c, 15, 37, 84
17, 288471, Note_on_c, 15, 37, 0
17, 288480, Note_on_c, 15, 42, 84
17, 288719, Note_on_c, 15, 42, 0
17, 289380, Note_on_c, 15, 42, 84
17, 289431, Note_on_c, 15, 42, 0
17, 289440, Note_on_c, 15, 37, 84
17, 289679, Note_on_c, 15, 37, 0
17, 290340, Note_on_c, 15, 37, 84
17, 290391, Note_on_c, 15, 37, 0
17, 290400, Note_on_c, 15, 37, 84
17, 290639, Note_on_c, 15, 37, 0
17, 290820, Note_on_c, 15, 37, 84
17, 290871, Note_on_c, 15, 37, 0
17, 290880, Note_on_c, 15, 37, 84
17, 291119, Note_on_c, 15, 37, 0
17, 291300, Note_on_c, 15, 37, 84
17, 291344, Note_on_c, 15, 37, 0
17, 291352, Control_c, 15, 11, 96
17, 291360, Note_on_c, 15, 37, 68
17, 293280, Control_c, 15, 11, 96
17, 293360, Control_c, 15, 11, 99
17, 293440, Control_c, 15, 11, 101
17, 293520, Control_c, 15, 11, 104
17, 293600, Control_c, 15, 11, 106
17, 293680, Control_c, 15, 11, 109
17, 293760, Control_c, 15, 11, 112
17, 293840, Control_c, 15, 11, 114
17, 293920, Control_c, 15, 11, 117
17, 294000, Control_c, 15, 11, 119
17, 294080, Control_c, 15, 11, 122
17, 294160, Control_c, 15, 11, 124
17, 294224, Note_on_c, 15, 37, 0
17, 294240, Note_on_c, 15, 33, 76
17, 294240, Control_c, 15, 11, 127
17, 294320, Control_c, 15, 11, 123
17, 294400, Control_c, 15, 11, 119
17, 294480, Control_c, 15, 11, 115
17, 294560, Control_c, 15, 11, 111
17, 294640, Control_c, 15, 11, 107
17, 294720, Control_c, 15, 11, 104
17, 294800, Control_c, 15, 11, 100
17, 294880, Control_c, 15, 11, 96
17, 294960, Control_c, 15, 11, 92
17, 295040, Control_c, 15, 11, 88
17, 295120, Control_c, 15, 11, 80
17, 295184, Note_on_c, 15, 33, 0
17, 295200, Note_on_c, 15, 38, 76
17, 295439, Note_on_c, 15, 38, 0
17, 298800, Control_c, 15, 11, 127
17, 299040, Note_on_c, 15, 43, 52
17, 299744, Note_on_c, 15, 43, 0
17, 299760, Note_on_c, 15, 43, 52
17, 299819, Note_on_c, 15, 43, 0
17, 299820, Note_on_c, 15, 42, 52
17, 299879, Note_on_c, 15, 42, 0
17, 299880, Note_on_c, 15, 43, 52
17, 299939, Note_on_c, 15, 43, 0
17, 299940, Note_on_c, 15, 45, 52
17, 299991, Note_on_c, 15, 45, 0
17, 300000, Note_on_c, 15, 47, 52
17, 300704, Note_on_c, 15, 47, 0
17, 300720, Note_on_c, 15, 47, 52
17, 300779, Note_on_c, 15, 47, 0
17, 300780, Note_on_c, 15, 46, 52
17, 300839, Note_on_c, 15, 46, 0
17, 300840, Note_on_c, 15, 47, 52
17, 300899, Note_on_c, 15, 47, 0
17, 300900, Note_on_c, 15, 49, 52
17, 300951, Note_on_c, 15, 49, 0
17, 300960, Note_on_c, 15, 50, 52
17, 301139, Note_on_c, 15, 50, 0
17, 301200, Note_on_c, 15, 50, 52
17, 301379, Note_on_c, 15, 50, 0
17, 301440, Note_on_c, 15, 47, 52
17, 301619, Note_on_c, 15, 47, 0
17, 301680, Note_on_c, 15, 47, 52
17, 301859, Note_on_c, 15, 47, 0
17, 301920, Note_on_c, 15, 44, 52
17, 302159, Note_on_c, 15, 44, 0
17, 302880, Note_on_c, 15, 50, 52
17, 303059, Note_on_c, 15, 50, 0
17, 303120, Note_on_c, 15, 50, 52
17, 303299, Note_on_c, 15, 50, 0
17, 303360, Note_on_c, 15, 48, 52
17, 303539, Note_on_c, 15, 48, 0
17, 303600, Note_on_c, 15, 48, 52
17, 303779, Note_on_c, 15, 48, 0
17, 303840, Note_on_c, 15, 45, 52
17, 304079, Note_on_c, 15, 45, 0
17, 304560, Control_c, 15, 11, 96
17, 304800, Note_on_c, 15, 47, 68
17, 304800, Control_c, 15, 11, 96
17, 305039, Note_on_c, 15, 47, 0
17, 305040, Control_c, 15, 11, 99
17, 305280, Note_on_c, 15, 45, 68
17, 305280, Control_c, 15, 11, 101
17, 305519, Note_on_c, 15, 45, 0
17, 305520, Control_c, 15, 11, 104
17, 305760, Control_c, 15, 11, 106
17, 305760, Note_on_c, 15, 43, 68
17, 305999, Note_on_c, 15, 43, 0
17, 306000, Control_c, 15, 11, 109
17, 306240, Note_on_c, 15, 42, 68
17, 306240, Control_c, 15, 11, 112
17, 306479, Note_on_c, 15, 42, 0
17, 306480, Control_c, 15, 11, 114
17, 306720, Note_on_c, 15, 43, 68
17, 306720, Control_c, 15, 11, 117
17, 306899, Note_on_c, 15, 43, 0
17, 306960, Control_c, 15, 11, 119
17, 306960, Note_on_c, 15, 40, 68
17, 307139, Note_on_c, 15, 40, 0
17, 307200, Control_c, 15, 11, 122
17, 307200, Note_on_c, 15, 45, 68
17, 307379, Note_on_c, 15, 45, 0
17, 307440, Control_c, 15, 11, 124
17, 307440, Note_on_c, 15, 33, 68
17, 307619, Note_on_c, 15, 33, 0
17, 307680, Control_c, 15, 11, 80
17, 307680, Note_on_c, 15, 38, 76
17, 307859, Note_on_c, 15, 38, 0
17, 307920, Control_c, 15, 11, 80
17, 307920, Note_on_c, 15, 50, 76
17, 308070, Control_c, 15, 11, 82
17, 308220, Control_c, 15, 11, 84
17, 308370, Control_c, 15, 11, 86
17, 308399, Note_on_c, 15, 50, 0
17, 308400, Note_on_c, 15, 48, 76
17, 308520, Control_c, 15, 11, 88
17, 308624, Note_on_c, 15, 48, 0
17, 308640, Note_on_c, 15, 47, 76
17, 308670, Control_c, 15, 11, 90
17, 308820, Control_c, 15, 11, 92
17, 308970, Control_c, 15, 11, 94
17, 309119, Note_on_c, 15, 47, 0
17, 309120, Note_on_c, 15, 45, 76
17, 309120, Control_c, 15, 11, 96
17, 309270, Control_c, 15, 11, 98
17, 309420, Control_c, 15, 11, 100
17, 309570, Control_c, 15, 11, 102
17, 309599, Note_on_c, 15, 45, 0
17, 309600, Note_on_c, 15, 43, 76
17, 309720, Control_c, 15, 11, 104
17, 309870, Control_c, 15, 11, 105
17, 310020, Control_c, 15, 11, 107
17, 310079, Note_on_c, 15, 43, 0
17, 310080, Note_on_c, 15, 42, 76
17, 310170, Control_c, 15, 11, 109
17, 310320, Control_c, 15, 11, 111
17, 310470, Control_c, 15, 11, 113
17, 310544, Note_on_c, 15, 42, 0
17, 310560, Note_on_c, 15, 43, 76
17, 310620, Control_c, 15, 11, 115
17, 310770, Control_c, 15, 11, 117
17, 310920, Control_c, 15, 11, 119
17, 311039, Note_on_c, 15, 43, 0
17, 311040, Note_on_c, 15, 44, 76
17, 311070, Control_c, 15, 11, 121
17, 311220, Control_c, 15, 11, 123
17, 311370, Control_c, 15, 11, 125
17, 311504, Note_on_c, 15, 44, 0
17, 311520, Note_on_c, 15, 45, 76
17, 311520, Control_c, 15, 11, 127
17, 311609, Note_on_c, 15, 45, 0
17, 311640, Note_on_c, 15, 33, 76
17, 311729, Note_on_c, 15, 33, 0
17, 311760, Note_on_c, 15, 37, 76
17, 311849, Note_on_c, 15, 37, 0
17, 311880, Note_on_c, 15, 33, 76
17, 311969, Note_on_c, 15, 33, 0
17, 312000, Note_on_c, 15, 37, 76
17, 312089, Note_on_c, 15, 37, 0
17, 312120, Note_on_c, 15, 33, 76
17, 312209, Note_on_c, 15, 33, 0
17, 312240, Note_on_c, 15, 37, 76
17, 312329, Note_on_c, 15, 37, 0
17, 312360, Note_on_c, 15, 33, 76
17, 312449, Note_on_c, 15, 33, 0
17, 312480, Note_on_c, 15, 38, 76
17, 312569, Note_on_c, 15, 38, 0
17, 312600, Note_on_c, 15, 33, 76
17, 312689, Note_on_c, 15, 33, 0
17, 312720, Note_on_c, 15, 38, 76
17, 312809, Note_on_c, 15, 38, 0
17, 312840, Note_on_c, 15, 33, 76
17, 312929, Note_on_c, 15, 33, 0
17, 312960, Note_on_c, 15, 42, 76
17, 313049, Note_on_c, 15, 42, 0
17, 313080, Note_on_c, 15, 33, 76
17, 313169, Note_on_c, 15, 33, 0
17, 313200, Note_on_c, 15, 42, 76
17, 313289, Note_on_c, 15, 42, 0
17, 313320, Note_on_c, 15, 33, 76
17, 313409, Note_on_c, 15, 33, 0
17, 313440, Note_on_c, 15, 40, 76
17, 313529, Note_on_c, 15, 40, 0
17, 313560, Note_on_c, 15, 33, 76
17, 313649, Note_on_c, 15, 33, 0
17, 313680, Note_on_c, 15, 40, 76
17, 313769, Note_on_c, 15, 40, 0
17, 313800, Note_on_c, 15, 33, 76
17, 313889, Note_on_c, 15, 33, 0
17, 313920, Note_on_c, 15, 43, 76
17, 314009, Note_on_c, 15, 43, 0
17, 314040, Note_on_c, 15, 33, 76
17, 314129, Note_on_c, 15, 33, 0
17, 314160, Note_on_c, 15, 43, 76
17, 314249, Note_on_c, 15, 43, 0
17, 314280, Note_on_c, 15, 33, 76
17, 314369, Note_on_c, 15, 33, 0
17, 314400, Note_on_c, 15, 42, 76
17, 314489, Note_on_c, 15, 42, 0
17, 314520, Note_on_c, 15, 33, 76
17, 314609, Note_on_c, 15, 33, 0
17, 314640, Note_on_c, 15, 42, 76
17, 314729, Note_on_c, 15, 42, 0
17, 314760, Note_on_c, 15, 33, 76
17, 314849, Note_on_c, 15, 33, 0
17, 314880, Note_on_c, 15, 38, 76
17, 314969, Note_on_c, 15, 38, 0
17, 315000, Note_on_c, 15, 33, 76
17, 315089, Note_on_c, 15, 33, 0
17, 315120, Note_on_c, 15, 38, 76
17, 315209, Note_on_c, 15, 38, 0
17, 315240, Note_on_c, 15, 33, 76
17, 315329, Note_on_c, 15, 33, 0
17, 315360, Note_on_c, 15, 45, 76
17, 315449, Note_on_c, 15, 45, 0
17, 315480, Note_on_c, 15, 33, 76
17, 315569, Note_on_c, 15, 33, 0
17, 315600, Note_on_c, 15, 37, 76
17, 315689, Note_on_c, 15, 37, 0
17, 315720, Note_on_c, 15, 33, 76
17, 315809, Note_on_c, 15, 33, 0
17, 315840, Note_on_c, 15, 37, 76
17, 315929, Note_on_c, 15, 37, 0
17, 315960, Note_on_c, 15, 33, 76
17, 316049, Note_on_c, 15, 33, 0
17, 316080, Note_on_c, 15, 37, 76
17, 316169, Note_on_c, 15, 37, 0
17, 316200, Note_on_c, 15, 33, 76
17, 316289, Note_on_c, 15, 33, 0
17, 316320, Note_on_c, 15, 38, 76
17, 316409, Note_on_c, 15, 38, 0
17, 316440, Note_on_c, 15, 33, 76
17, 316529, Note_on_c, 15, 33, 0
17, 316560, Note_on_c, 15, 38, 76
17, 316649, Note_on_c, 15, 38, 0
17, 316680, Note_on_c, 15, 33, 76
17, 316769, Note_on_c, 15, 33, 0
17, 316800, Note_on_c, 15, 41, 76
17, 316889, Note_on_c, 15, 41, 0
17, 316920, Note_on_c, 15, 33, 76
17, 317009, Note_on_c, 15, 33, 0
17, 317040, Note_on_c, 15, 41, 76
17, 317129, Note_on_c, 15, 41, 0
17, 317160, Note_on_c, 15, 33, 76
17, 317249, Note_on_c, 15, 33, 0
17, 317280, Note_on_c, 15, 40, 76
17, 317384, Note_on_c, 15, 40, 0
17, 317400, Note_on_c, 15, 33, 76
17, 317504, Note_on_c, 15, 33, 0
17, 317520, Note_on_c, 15, 45, 84
17, 318104, Note_on_c, 15, 45, 0
17, 318120, Note_on_c, 15, 43, 76
17, 318224, Note_on_c, 15, 43, 0
17, 318240, Note_on_c, 15, 41, 76
17, 318329, Note_on_c, 15, 41, 0
17, 318360, Note_on_c, 15, 43, 76
17, 318449, Note_on_c, 15, 43, 0
17, 318480, Note_on_c, 15, 41, 76
17, 318569, Note_on_c, 15, 41, 0
17, 318600, Note_on_c, 15, 40, 76
17, 318689, Note_on_c, 15, 40, 0
17, 318720, Note_on_c, 15, 38, 76
17, 318809, Note_on_c, 15, 38, 0
17, 318840, Note_on_c, 15, 36, 76
17, 318929, Note_on_c, 15, 36, 0
17, 318960, Note_on_c, 15, 35, 76
17, 319049, Note_on_c, 15, 35, 0
17, 319080, Note_on_c, 15, 34, 76
17, 319169, Note_on_c, 15, 34, 0
17, 319200, Note_on_c, 15, 33, 84
17, 319559, Note_on_c, 15, 33, 0
17, 319560, Note_on_c, 15, 34, 76
17, 319664, Note_on_c, 15, 34, 0
17, 319680, Note_on_c, 15, 33, 84
17, 320039, Note_on_c, 15, 33, 0
17, 320040, Note_on_c, 15, 34, 76
17, 320144, Note_on_c, 15, 34, 0
17, 320160, Note_on_c, 15, 33, 84
17, 320249, Note_on_c, 15, 33, 0
17, 320280, Note_on_c, 15, 34, 76
17, 320369, Note_on_c, 15, 34, 0
17, 320400, Note_on_c, 15, 33, 76
17, 320489, Note_on_c, 15, 33, 0
17, 320520, Note_on_c, 15, 34, 76
17, 320609, Note_on_c, 15, 34, 0
17, 320640, Note_on_c, 15, 33, 76
17, 320729, Note_on_c, 15, 33, 0
17, 320760, Note_on_c, 15, 34, 76
17, 320849, Note_on_c, 15, 34, 0
17, 320880, Note_on_c, 15, 33, 76
17, 320969, Note_on_c, 15, 33, 0
17, 321000, Note_on_c, 15, 34, 76
17, 321089, Note_on_c, 15, 34, 0
17, 321120, Note_on_c, 15, 33, 84
17, 321824, Note_on_c, 15, 33, 0
17, 321840, Note_on_c, 15, 44, 76
17, 322019, Note_on_c, 15, 44, 0
17, 322080, Note_on_c, 15, 43, 76
17, 322259, Note_on_c, 15, 43, 0
17, 322320, Note_on_c, 15, 42, 76
17, 322499, Note_on_c, 15, 42, 0
17, 322560, Note_on_c, 15, 40, 76
17, 322739, Note_on_c, 15, 40, 0
17, 322800, Note_on_c, 15, 45, 76
17, 322979, Note_on_c, 15, 45, 0
17, 323040, Note_on_c, 15, 38, 52
17, 323279, Note_on_c, 15, 38, 0
17, 323520, Note_on_c, 15, 38, 52
17, 323759, Note_on_c, 15, 38, 0
17, 324000, Note_on_c, 15, 38, 52
17, 324239, Note_on_c, 15, 38, 0
17, 326880, Note_on_c, 15, 35, 84
17, 326969, Note_on_c, 15, 35, 0
17, 327000, Note_on_c, 15, 47, 84
17, 327089, Note_on_c, 15, 47, 0
17, 327120, Note_on_c, 15, 42, 84
17, 327209, Note_on_c, 15, 42, 0
17, 327240, Note_on_c, 15, 38, 84
17, 327329, Note_on_c, 15, 38, 0
17, 327360, Note_on_c, 15, 35, 84
17, 327449, Note_on_c, 15, 35, 0
17, 327480, Note_on_c, 15, 47, 84
17, 327569, Note_on_c, 15, 47, 0
17, 327600, Note_on_c, 15, 42, 84
17, 327689, Note_on_c, 15, 42, 0
17, 327720, Note_on_c, 15, 38, 84
17, 327809, Note_on_c, 15, 38, 0
17, 327840, Note_on_c, 15, 35, 84
17, 327929, Note_on_c, 15, 35, 0
17, 327960, Note_on_c, 15, 47, 84
17, 328049, Note_on_c, 15, 47, 0
17, 328080, Note_on_c, 15, 42, 84
17, 328169, Note_on_c, 15, 42, 0
17, 328200, Note_on_c, 15, 38, 84
17, 328289, Note_on_c, 15, 38, 0
17, 328320, Note_on_c, 15, 35, 84
17, 328409, Note_on_c, 15, 35, 0
17, 328440, Note_on_c, 15, 47, 84
17, 328529, Note_on_c, 15, 47, 0
17, 328560, Note_on_c, 15, 49, 84
17, 328649, Note_on_c, 15, 49, 0
17, 328680, Note_on_c, 15, 50, 84
17, 328769, Note_on_c, 15, 50, 0
17, 328800, Note_on_c, 15, 40, 92
17, 328889, Note_on_c, 15, 40, 0
17, 328920, Note_on_c, 15, 52, 84
17, 329009, Note_on_c, 15, 52, 0
17, 329040, Note_on_c, 15, 52, 84
17, 329129, Note_on_c, 15, 52, 0
17, 329160, Note_on_c, 15, 52, 84
17, 329249, Note_on_c, 15, 52, 0
17, 329280, Note_on_c, 15, 40, 92
17, 329369, Note_on_c, 15, 40, 0
17, 329400, Note_on_c, 15, 52, 84
17, 329489, Note_on_c, 15, 52, 0
17, 329520, Note_on_c, 15, 52, 84
17, 329609, Note_on_c, 15, 52, 0
17, 329640, Note_on_c, 15, 52, 84
17, 329729, Note_on_c, 15, 52, 0
17, 329760, Note_on_c, 15, 45, 84
17, 329999, Note_on_c, 15, 45, 0
17, 330720, Note_on_c, 15, 38, 52
17, 330959, Note_on_c, 15, 38, 0
17, 331200, Note_on_c, 15, 38, 52
17, 331439, Note_on_c, 15, 38, 0
17, 331680, Note_on_c, 15, 38, 52
17, 331919, Note_on_c, 15, 38, 0
17, 334560, Note_on_c, 15, 35, 84
17, 334649, Note_on_c, 15, 35, 0
17, 334680, Note_on_c, 15, 47, 84
17, 334769, Note_on_c, 15, 47, 0
17, 334800, Note_on_c, 15, 42, 84
17, 334889, Note_on_c, 15, 42, 0
17, 334920, Note_on_c, 15, 38, 84
17, 335009, Note_on_c, 15, 38, 0
17, 335040, Note_on_c, 15, 35, 84
17, 335129, Note_on_c, 15, 35, 0
17, 335160, Note_on_c, 15, 47, 84
17, 335249, Note_on_c, 15, 47, 0
17, 335280, Note_on_c, 15, 42, 84
17, 335369, Note_on_c, 15, 42, 0
17, 335400, Note_on_c, 15, 38, 84
17, 335489, Note_on_c, 15, 38, 0
17, 335520, Note_on_c, 15, 35, 84
17, 335609, Note_on_c, 15, 35, 0
17, 335640, Note_on_c, 15, 47, 84
17, 335729, Note_on_c, 15, 47, 0
17, 335760, Note_on_c, 15, 42, 84
17, 335849, Note_on_c, 15, 42, 0
17, 335880, Note_on_c, 15, 38, 84
17, 335969, Note_on_c, 15, 38, 0
17, 336000, Note_on_c, 15, 35, 84
17, 336089, Note_on_c, 15, 35, 0
17, 336120, Note_on_c, 15, 47, 84
17, 336209, Note_on_c, 15, 47, 0
17, 336240, Note_on_c, 15, 49, 84
17, 336329, Note_on_c, 15, 49, 0
17, 336360, Note_on_c, 15, 50, 84
17, 336449, Note_on_c, 15, 50, 0
17, 336480, Note_on_c, 15, 40, 92
17, 336569, Note_on_c, 15, 40, 0
17, 336600, Note_on_c, 15, 52, 84
17, 336689, Note_on_c, 15, 52, 0
17, 336720, Note_on_c, 15, 52, 84
17, 336809, Note_on_c, 15, 52, 0
17, 336840, Note_on_c, 15, 52, 84
17, 336929, Note_on_c, 15, 52, 0
17, 336960, Note_on_c, 15, 40, 92
17, 337049, Note_on_c, 15, 40, 0
17, 337080, Note_on_c, 15, 52, 84
17, 337169, Note_on_c, 15, 52, 0
17, 337200, Note_on_c, 15, 52, 84
17, 337289, Note_on_c, 15, 52, 0
17, 337320, Note_on_c, 15, 52, 84
17, 337409, Note_on_c, 15, 52, 0
17, 337440, Note_on_c, 15, 45, 92
17, 338024, Note_on_c, 15, 45, 0
17, 338040, Note_on_c, 15, 45, 84
17, 338159, Note_on_c, 15, 45, 0
17, 338160, Note_on_c, 15, 43, 84
17, 338279, Note_on_c, 15, 43, 0
17, 338280, Note_on_c, 15, 42, 84
17, 338384, Note_on_c, 15, 42, 0
17, 338400, Note_on_c, 15, 43, 92
17, 338984, Note_on_c, 15, 43, 0
17, 339000, Note_on_c, 15, 43, 84
17, 339119, Note_on_c, 15, 43, 0
17, 339120, Note_on_c, 15, 42, 84
17, 339239, Note_on_c, 15, 42, 0
17, 339240, Note_on_c, 15, 41, 84
17, 339344, Note_on_c, 15, 41, 0
17, 339360, Note_on_c, 15, 42, 92
17, 339944, Note_on_c, 15, 42, 0
17, 339960, Note_on_c, 15, 42, 84
17, 340079, Note_on_c, 15, 42, 0
17, 340080, Note_on_c, 15, 40, 84
17, 340199, Note_on_c, 15, 40, 0
17, 340200, Note_on_c, 15, 39, 84
17, 340304, Note_on_c, 15, 39, 0
17, 340320, Note_on_c, 15, 40, 92
17, 340904, Note_on_c, 15, 40, 0
17, 340920, Note_on_c, 15, 40, 84
17, 341039, Note_on_c, 15, 40, 0
17, 341040, Note_on_c, 15, 38, 84
17, 341159, Note_on_c, 15, 38, 0
17, 341160, Note_on_c, 15, 37, 84
17, 341264, Note_on_c, 15, 37, 0
17, 341280, Note_on_c, 15, 38, 92
17, 341369, Note_on_c, 15, 38, 0
17, 341400, Note_on_c, 15, 45, 84
17, 341519, Note_on_c, 15, 45, 0
17, 341520, Note_on_c, 15, 43, 84
17, 341639, Note_on_c, 15, 43, 0
17, 341640, Note_on_c, 15, 42, 84
17, 341744, Note_on_c, 15, 42, 0
17, 341760, Note_on_c, 15, 43, 92
17, 341849, Note_on_c, 15, 43, 0
17, 341880, Note_on_c, 15, 43, 84
17, 341999, Note_on_c, 15, 43, 0
17, 342000, Note_on_c, 15, 42, 84
17, 342119, Note_on_c, 15, 42, 0
17, 342120, Note_on_c, 15, 41, 84
17, 342224, Note_on_c, 15, 41, 0
17, 342240, Note_on_c, 15, 42, 92
17, 342329, Note_on_c, 15, 42, 0
17, 342360, Note_on_c, 15, 42, 84
17, 342479, Note_on_c, 15, 42, 0
17, 342480, Note_on_c, 15, 40, 84
17, 342599, Note_on_c, 15, 40, 0
17, 342600, Note_on_c, 15, 39, 84
17, 342704, Note_on_c, 15, 39, 0
17, 342720, Note_on_c, 15, 40, 92
17, 342809, Note_on_c, 15, 40, 0
17, 342840, Note_on_c, 15, 40, 84
17, 342959, Note_on_c, 15, 40, 0
17, 342960, Note_on_c, 15, 38, 84
17, 343079, Note_on_c, 15, 38, 0
17, 343080, Note_on_c, 15, 37, 84
17, 343184, Note_on_c, 15, 37, 0
17, 343200, Note_on_c, 15, 38, 92
17, 343289, Note_on_c, 15, 38, 0
17, 343320, Note_on_c, 15, 50, 84
17, 343439, Note_on_c, 15, 50, 0
17, 343440, Note_on_c, 15, 49, 84
17, 343559, Note_on_c, 15, 49, 0
17, 343560, Note_on_c, 15, 47, 84
17, 343664, Note_on_c, 15, 47, 0
17, 343680, Note_on_c, 15, 49, 92
17, 343769, Note_on_c, 15, 49, 0
17, 343800, Note_on_c, 15, 49, 84
17, 343919, Note_on_c, 15, 49, 0
17, 343920, Note_on_c, 15, 47, 84
17, 344039, Note_on_c, 15, 47, 0
17, 344040, Note_on_c, 15, 46, 84
17, 344144, Note_on_c, 15, 46, 0
17, 344160, Note_on_c, 15, 47, 92
17, 344249, Note_on_c, 15, 47, 0
17, 344280, Note_on_c, 15, 47, 84
17, 344399, Note_on_c, 15, 47, 0
17, 344400, Note_on_c, 15, 45, 84
17, 344519, Note_on_c, 15, 45, 0
17, 344520, Note_on_c, 15, 43, 84
17, 344624, Note_on_c, 15, 43, 0
17, 344640, Note_on_c, 15, 45, 92
17, 344729, Note_on_c, 15, 45, 0
17, 344760, Note_on_c, 15, 45, 84
17, 344879, Note_on_c, 15, 45, 0
17, 344880, Note_on_c, 15, 43, 84
17, 344999, Note_on_c, 15, 43, 0
17, 345000, Note_on_c, 15, 42, 84
17, 345104, Note_on_c, 15, 42, 0
17, 345120, Note_on_c, 15, 43, 84
17, 345299, Note_on_c, 15, 43, 0
17, 346080, Note_on_c, 15, 40, 84
17, 346259, Note_on_c, 15, 40, 0
17, 347040, Note_on_c, 15, 37, 84
17, 347219, Note_on_c, 15, 37, 0
17, 347520, Note_on_c, 15, 38, 84
17, 347699, Note_on_c, 15, 38, 0
17, 348000, Note_on_c, 15, 31, 84
17, 348179, Note_on_c, 15, 31, 0
17, 348480, Note_on_c, 15, 33, 84
17, 348659, Note_on_c, 15, 33, 0
17, 348960, Note_on_c, 15, 46, 84
17, 349199, Note_on_c, 15, 46, 0
17, 349920, Note_on_c, 15, 49, 84
17, 350159, Note_on_c, 15, 49, 0
17, 351600, Note_on_c, 15, 40, 44
17, 351659, Note_on_c, 15, 40, 0
17, 351660, Note_on_c, 15, 39, 44
17, 351719, Note_on_c, 15, 39, 0
17, 351720, Note_on_c, 15, 40, 44
17, 351779, Note_on_c, 15, 40, 0
17, 351780, Note_on_c, 15, 41, 44
17, 351831, Note_on_c, 15, 41, 0
17, 351840, Note_on_c, 15, 43, 44
17, 352019, Note_on_c, 15, 43, 0
17, 352560, Note_on_c, 15, 41, 44
17, 352619, Note_on_c, 15, 41, 0
17, 352620, Note_on_c, 15, 40, 44
17, 352679, Note_on_c, 15, 40, 0
17, 352680, Note_on_c, 15, 41, 44
17, 352739, Note_on_c, 15, 41, 0
17, 352740, Note_on_c, 15, 43, 44
17, 352791, Note_on_c, 15, 43, 0
17, 352800, Note_on_c, 15, 45, 44
17, 352979, Note_on_c, 15, 45, 0
17, 353040, Control_c, 15, 11, 80
17, 353520, Note_on_c, 15, 43, 68
17, 353579, Note_on_c, 15, 43, 0
17, 353580, Note_on_c, 15, 42, 68
17, 353639, Note_on_c, 15, 42, 0
17, 353640, Note_on_c, 15, 43, 68
17, 353699, Note_on_c, 15, 43, 0
17, 353700, Note_on_c, 15, 45, 68
17, 353751, Note_on_c, 15, 45, 0
17, 353760, Note_on_c, 15, 46, 68
17, 353760, Control_c, 15, 11, 80
17, 353880, Control_c, 15, 11, 82
17, 353939, Note_on_c, 15, 46, 0
17, 354000, Control_c, 15, 11, 84
17, 354000, Note_on_c, 15, 45, 68
17, 354059, Note_on_c, 15, 45, 0
17, 354060, Note_on_c, 15, 44, 68
17, 354119, Note_on_c, 15, 44, 0
17, 354120, Control_c, 15, 11, 86
17, 354120, Note_on_c, 15, 45, 68
17, 354179, Note_on_c, 15, 45, 0
17, 354180, Note_on_c, 15, 47, 68
17, 354231, Note_on_c, 15, 47, 0
17, 354240, Note_on_c, 15, 48, 68
17, 354240, Control_c, 15, 11, 88
17, 354360, Control_c, 15, 11, 90
17, 354419, Note_on_c, 15, 48, 0
17, 354480, Note_on_c, 15, 47, 68
17, 354480, Control_c, 15, 11, 92
17, 354539, Note_on_c, 15, 47, 0
17, 354540, Note_on_c, 15, 46, 68
17, 354599, Note_on_c, 15, 46, 0
17, 354600, Control_c, 15, 11, 94
17, 354600, Note_on_c, 15, 47, 68
17, 354659, Note_on_c, 15, 47, 0
17, 354660, Note_on_c, 15, 49, 68
17, 354711, Note_on_c, 15, 49, 0
17, 354720, Control_c, 15, 11, 96
17, 354720, Note_on_c, 15, 50, 68
17, 354840, Control_c, 15, 11, 98
17, 354899, Note_on_c, 15, 50, 0
17, 354960, Control_c, 15, 11, 100
17, 354960, Note_on_c, 15, 37, 68
17, 355019, Note_on_c, 15, 37, 0
17, 355020, Note_on_c, 15, 36, 68
17, 355079, Note_on_c, 15, 36, 0
17, 355080, Note_on_c, 15, 37, 68
17, 355080, Control_c, 15, 11, 102
17, 355139, Note_on_c, 15, 37, 0
17, 355140, Note_on_c, 15, 38, 68
17, 355191, Note_on_c, 15, 38, 0
17, 355200, Control_c, 15, 11, 104
17, 355200, Note_on_c, 15, 40, 68
17, 355320, Control_c, 15, 11, 105
17, 355379, Note_on_c, 15, 40, 0
17, 355440, Note_on_c, 15, 38, 68
17, 355440, Control_c, 15, 11, 107
17, 355499, Note_on_c, 15, 38, 0
17, 355500, Note_on_c, 15, 37, 68
17, 355559, Note_on_c, 15, 37, 0
17, 355560, Note_on_c, 15, 38, 68
17, 355560, Control_c, 15, 11, 109
17, 355619, Note_on_c, 15, 38, 0
17, 355620, Note_on_c, 15, 40, 68
17, 355671, Note_on_c, 15, 40, 0
17, 355680, Note_on_c, 15, 41, 68
17, 355680, Control_c, 15, 11, 111
17, 355800, Control_c, 15, 11, 113
17, 355859, Note_on_c, 15, 41, 0
17, 355920, Note_on_c, 15, 38, 68
17, 355920, Control_c, 15, 11, 115
17, 355979, Note_on_c, 15, 38, 0
17, 355980, Note_on_c, 15, 37, 68
17, 356039, Note_on_c, 15, 37, 0
17, 356040, Note_on_c, 15, 38, 68
17, 356040, Control_c, 15, 11, 117
17, 356099, Note_on_c, 15, 38, 0
17, 356100, Note_on_c, 15, 40, 68
17, 356151, Note_on_c, 15, 40, 0
17, 356160, Control_c, 15, 11, 119
17, 356160, Note_on_c, 15, 41, 68
17, 356280, Control_c, 15, 11, 121
17, 356339, Note_on_c, 15, 41, 0
17, 356400, Control_c, 15, 11, 123
17, 356400, Note_on_c, 15, 38, 68
17, 356459, Note_on_c, 15, 38, 0
17, 356460, Note_on_c, 15, 37, 68
17, 356519, Note_on_c, 15, 37, 0
17, 356520, Note_on_c, 15, 38, 68
17, 356520, Control_c, 15, 11, 125
17, 356579, Note_on_c, 15, 38, 0
17, 356580, Note_on_c, 15, 40, 68
17, 356631, Note_on_c, 15, 40, 0
17, 356640, Note_on_c, 15, 41, 76
17, 356640, Control_c, 15, 11, 127
17, 357584, Note_on_c, 15, 41, 0
17, 357600, Note_on_c, 15, 32, 76
17, 358544, Note_on_c, 15, 32, 0
17, 358560, Note_on_c, 15, 33, 84
17, 358664, Note_on_c, 15, 33, 0
17, 358680, Note_on_c, 15, 45, 84
17, 358784, Note_on_c, 15, 45, 0
17, 358800, Note_on_c, 15, 45, 84
17, 358904, Note_on_c, 15, 45, 0
17, 358920, Note_on_c, 15, 45, 84
17, 359024, Note_on_c, 15, 45, 0
17, 359040, Note_on_c, 15, 45, 84
17, 359144, Note_on_c, 15, 45, 0
17, 359160, Note_on_c, 15, 45, 84
17, 359264, Note_on_c, 15, 45, 0
17, 359280, Note_on_c, 15, 45, 84
17, 359384, Note_on_c, 15, 45, 0
17, 359400, Note_on_c, 15, 45, 84
17, 359504, Note_on_c, 15, 45, 0
17, 359520, Note_on_c, 15, 33, 84
17, 359624, Note_on_c, 15, 33, 0
17, 359640, Note_on_c, 15, 45, 84
17, 359744, Note_on_c, 15, 45, 0
17, 359760, Note_on_c, 15, 45, 84
17, 359864, Note_on_c, 15, 45, 0
17, 359880, Note_on_c, 15, 45, 84
17, 359984, Note_on_c, 15, 45, 0
17, 360000, Note_on_c, 15, 33, 84
17, 360104, Note_on_c, 15, 33, 0
17, 360120, Note_on_c, 15, 45, 84
17, 360224, Note_on_c, 15, 45, 0
17, 360240, Note_on_c, 15, 45, 84
17, 360344, Note_on_c, 15, 45, 0
17, 360360, Note_on_c, 15, 45, 84
17, 360464, Note_on_c, 15, 45, 0
17, 360480, Note_on_c, 15, 38, 84
17, 360719, Note_on_c, 15, 38, 0
17, 362400, Note_on_c, 15, 43, 84
17, 363104, Note_on_c, 15, 43, 0
17, 363120, Note_on_c, 15, 43, 84
17, 363299, Note_on_c, 15, 43, 0
17, 363360, Note_on_c, 15, 38, 84
17, 363539, Note_on_c, 15, 38, 0
17, 363600, Note_on_c, 15, 34, 84
17, 363779, Note_on_c, 15, 34, 0
17, 363840, Note_on_c, 15, 33, 84
17, 364019, Note_on_c, 15, 33, 0
17, 364080, Note_on_c, 15, 31, 84
17, 364259, Note_on_c, 15, 31, 0
17, 364320, Note_on_c, 15, 38, 84
17, 364559, Note_on_c, 15, 38, 0
17, 366240, Note_on_c, 15, 43, 84
17, 366944, Note_on_c, 15, 43, 0
17, 366960, Note_on_c, 15, 43, 84
17, 367139, Note_on_c, 15, 43, 0
17, 367200, Note_on_c, 15, 38, 84
17, 367379, Note_on_c, 15, 38, 0
17, 367440, Note_on_c, 15, 34, 84
17, 367619, Note_on_c, 15, 34, 0
17, 367680, Note_on_c, 15, 33, 84
17, 367859, Note_on_c, 15, 33, 0
17, 367920, Note_on_c, 15, 31, 84
17, 368099, Note_on_c, 15, 31, 0
17, 368160, Note_on_c, 15, 38, 52
17, 368339, Note_on_c, 15, 38, 0
17, 368400, Note_on_c, 15, 46, 52
17, 368639, Note_on_c, 15, 46, 0
17, 368640, Note_on_c, 15, 45, 52
17, 368879, Note_on_c, 15, 45, 0
17, 368880, Note_on_c, 15, 43, 76
17, 369104, Note_on_c, 15, 43, 0
17, 369120, Note_on_c, 15, 38, 52
17, 369299, Note_on_c, 15, 38, 0
17, 369360, Note_on_c, 15, 46, 52
17, 369599, Note_on_c, 15, 46, 0
17, 369600, Note_on_c, 15, 45, 52
17, 369839, Note_on_c, 15, 45, 0
17, 369840, Note_on_c, 15, 43, 76
17, 370064, Note_on_c, 15, 43, 0
17, 370080, Note_on_c, 15, 38, 52
17, 370259, Note_on_c, 15, 38, 0
17, 370320, Note_on_c, 15, 46, 52
17, 370559, Note_on_c, 15, 46, 0
17, 370560, Note_on_c, 15, 45, 52
17, 370799, Note_on_c, 15, 45, 0
17, 370800, Note_on_c, 15, 43, 76
17, 371024, Note_on_c, 15, 43, 0
17, 371040, Note_on_c, 15, 38, 52
17, 371219, Note_on_c, 15, 38, 0
17, 371280, Note_on_c, 15, 46, 52
17, 371519, Note_on_c, 15, 46, 0
17, 371520, Note_on_c, 15, 45, 52
17, 371759, Note_on_c, 15, 45, 0
17, 371760, Note_on_c, 15, 43, 76
17, 371984, Note_on_c, 15, 43, 0
17, 372000, Note_on_c, 15, 38, 52
17, 372224, Note_on_c, 15, 38, 0
17, 372240, Note_on_c, 15, 43, 76
17, 372464, Note_on_c, 15, 43, 0
17, 372480, Note_on_c, 15, 38, 52
17, 372704, Note_on_c, 15, 38, 0
17, 372720, Note_on_c, 15, 43, 76
17, 372944, Note_on_c, 15, 43, 0
17, 372960, Note_on_c, 15, 38, 52
17, 373184, Note_on_c, 15, 38, 0
17, 373200, Note_on_c, 15, 43, 76
17, 373424, Note_on_c, 15, 43, 0
17, 373440, Note_on_c, 15, 38, 52
17, 373664, Note_on_c, 15, 38, 0
17, 373680, Note_on_c, 15, 43, 76
17, 373904, Note_on_c, 15, 43, 0
17, 373920, Note_on_c, 15, 38, 84
17, 375824, Note_on_c, 15, 38, 0
17, 375840, Note_on_c, 15, 38, 84
17, 376904, Note_on_c, 15, 38, 0
17, 376920, Note_on_c, 15, 50, 84
17, 377024, Note_on_c, 15, 50, 0
17, 377040, Note_on_c, 15, 45, 84
17, 377144, Note_on_c, 15, 45, 0
17, 377160, Note_on_c, 15, 42, 84
17, 377264, Note_on_c, 15, 42, 0
17, 377280, Note_on_c, 15, 38, 84
17, 377384, Note_on_c, 15, 38, 0
17, 377400, Note_on_c, 15, 50, 84
17, 377504, Note_on_c, 15, 50, 0
17, 377520, Note_on_c, 15, 45, 84
17, 377624, Note_on_c, 15, 45, 0
17, 377640, Note_on_c, 15, 42, 84
17, 377744, Note_on_c, 15, 42, 0
17, 377760, Note_on_c, 15, 38, 84
17, 377999, Note_on_c, 15, 38, 0
17, 378720, Note_on_c, 15, 38, 76
17, 378959, Note_on_c, 15, 38, 0
17, 381480, Note_on_c, 15, 38, 52
17, 381519, Note_on_c, 15, 38, 0
17, 381520, Note_on_c, 15, 40, 52
17, 381559, Note_on_c, 15, 40, 0
17, 381560, Note_on_c, 15, 42, 52
17, 381591, Note_on_c, 15, 42, 0
17, 381600, Note_on_c, 15, 43, 52
17, 381839, Note_on_c, 15, 43, 0
17, 383400, Note_on_c, 15, 35, 52
17, 383439, Note_on_c, 15, 35, 0
17, 383440, Note_on_c, 15, 37, 52
17, 383479, Note_on_c, 15, 37, 0
17, 383480, Note_on_c, 15, 39, 52
17, 383511, Note_on_c, 15, 39, 0
17, 383520, Note_on_c, 15, 40, 52
17, 383759, Note_on_c, 15, 40, 0
17, 385320, Note_on_c, 15, 33, 52
17, 385359, Note_on_c, 15, 33, 0
17, 385360, Note_on_c, 15, 35, 52
17, 385399, Note_on_c, 15, 35, 0
17, 385400, Note_on_c, 15, 37, 52
17, 385431, Note_on_c, 15, 37, 0
17, 385440, Note_on_c, 15, 38, 76
17, 385619, Note_on_c, 15, 38, 0
17, 385680, Note_on_c, 15, 50, 84
17, 386159, Note_on_c, 15, 50, 0
17, 386160, Note_on_c, 15, 49, 76
17, 386384, Note_on_c, 15, 49, 0
17, 386400, Note_on_c, 15, 47, 84
17, 386639, Note_on_c, 15, 47, 0
17, 386640, Note_on_c, 15, 45, 76
17, 386879, Note_on_c, 15, 45, 0
17, 386880, Note_on_c, 15, 43, 76
17, 387119, Note_on_c, 15, 43, 0
17, 387120, Note_on_c, 15, 42, 76
17, 387344, Note_on_c, 15, 42, 0
17, 387360, Note_on_c, 15, 40, 76
17, 387539, Note_on_c, 15, 40, 0
17, 387600, Note_on_c, 15, 52, 84
17, 388079, Note_on_c, 15, 52, 0
17, 388080, Note_on_c, 15, 50, 76
17, 388304, Note_on_c, 15, 50, 0
17, 388320, Note_on_c, 15, 49, 84
17, 388559, Note_on_c, 15, 49, 0
17, 388560, Note_on_c, 15, 47, 76
17, 388799, Note_on_c, 15, 47, 0
17, 388800, Note_on_c, 15, 45, 76
17, 389039, Note_on_c, 15, 45, 0
17, 389040, Note_on_c, 15, 43, 76
17, 389264, Note_on_c, 15, 43, 0
17, 389280, Note_on_c, 15, 42, 76
17, 389369, Note_on_c, 15, 42, 0
17, 389400, Note_on_c, 15, 54, 84
17, 389624, Note_on_c, 15, 54, 0
17, 389640, Note_on_c, 15, 52, 76
17, 389729, Note_on_c, 15, 52, 0
17, 389760, Note_on_c, 15, 50, 76
17, 389849, Note_on_c, 15, 50, 0
17, 389880, Note_on_c, 15, 48, 76
17, 389969, Note_on_c, 15, 48, 0
17, 390000, Note_on_c, 15, 47, 76
17, 390089, Note_on_c, 15, 47, 0
17, 390120, Note_on_c, 15, 45, 76
17, 390209, Note_on_c, 15, 45, 0
17, 390240, Note_on_c, 15, 43, 76
17, 390329, Note_on_c, 15, 43, 0
17, 390360, Note_on_c, 15, 55, 84
17, 390584, Note_on_c, 15, 55, 0
17, 390600, Note_on_c, 15, 54, 76
17, 390689, Note_on_c, 15, 54, 0
17, 390720, Note_on_c, 15, 52, 76
17, 390809, Note_on_c, 15, 52, 0
17, 390840, Note_on_c, 15, 50, 76
17, 390929, Note_on_c, 15, 50, 0
17, 390960, Note_on_c, 15, 49, 76
17, 391049, Note_on_c, 15, 49, 0
17, 391080, Note_on_c, 15, 47, 76
17, 391169, Note_on_c, 15, 47, 0
17, 391200, Note_on_c, 15, 45, 76
17, 391260, Control_c, 15, 11, 80
17, 393089, Note_on_c, 15, 45, 0
17, 393105, Control_c, 15, 11, 127
17, 393120, Note_on_c, 15, 33, 84
17, 393224, Note_on_c, 15, 33, 0
17, 393240, Note_on_c, 15, 45, 84
17, 393344, Note_on_c, 15, 45, 0
17, 393360, Note_on_c, 15, 45, 84
17, 393464, Note_on_c, 15, 45, 0
17, 393480, Note_on_c, 15, 45, 84
17, 393584, Note_on_c, 15, 45, 0
17, 393600, Note_on_c, 15, 45, 84
17, 393704, Note_on_c, 15, 45, 0
17, 393720, Note_on_c, 15, 45, 84
17, 393824, Note_on_c, 15, 45, 0
17, 393840, Note_on_c, 15, 45, 84
17, 393944, Note_on_c, 15, 45, 0
17, 393960, Note_on_c, 15, 45, 84
17, 394064, Note_on_c, 15, 45, 0
17, 395040, Note_on_c, 15, 32, 84
17, 395144, Note_on_c, 15, 32, 0
17, 395160, Note_on_c, 15, 44, 84
17, 395264, Note_on_c, 15, 44, 0
17, 395280, Note_on_c, 15, 44, 84
17, 395384, Note_on_c, 15, 44, 0
17, 395400, Note_on_c, 15, 44, 84
17, 395504, Note_on_c, 15, 44, 0
17, 395520, Note_on_c, 15, 44, 84
17, 395624, Note_on_c, 15, 44, 0
17, 395640, Note_on_c, 15, 44, 84
17, 395744, Note_on_c, 15, 44, 0
17, 395760, Note_on_c, 15, 44, 84
17, 395864, Note_on_c, 15, 44, 0
17, 395880, Note_on_c, 15, 44, 84
17, 395984, Note_on_c, 15, 44, 0
17, 396000, Note_on_c, 15, 33, 84
17, 396104, Note_on_c, 15, 33, 0
17, 396120, Note_on_c, 15, 45, 84
17, 396224, Note_on_c, 15, 45, 0
17, 396240, Note_on_c, 15, 45, 84
17, 396344, Note_on_c, 15, 45, 0
17, 396360, Note_on_c, 15, 45, 84
17, 396464, Note_on_c, 15, 45, 0
17, 396480, Note_on_c, 15, 33, 84
17, 396584, Note_on_c, 15, 33, 0
17, 396600, Note_on_c, 15, 45, 84
17, 396704, Note_on_c, 15, 45, 0
17, 396720, Note_on_c, 15, 45, 84
17, 396824, Note_on_c, 15, 45, 0
17, 396840, Note_on_c, 15, 45, 84
17, 396944, Note_on_c, 15, 45, 0
17, 396960, Note_on_c, 15, 38, 84
17, 397199, Note_on_c, 15, 38, 0
17, 398880, Note_on_c, 15, 38, 84
17, 398984, Note_on_c, 15, 38, 0
17, 399000, Note_on_c, 15, 50, 84
17, 399104, Note_on_c, 15, 50, 0
17, 399120, Note_on_c, 15, 50, 84
17, 399224, Note_on_c, 15, 50, 0
17, 399240, Note_on_c, 15, 50, 84
17, 399344, Note_on_c, 15, 50, 0
17, 399360, Note_on_c, 15, 50, 84
17, 399464, Note_on_c, 15, 50, 0
17, 399480, Note_on_c, 15, 50, 84
17, 399584, Note_on_c, 15, 50, 0
17, 399600, Note_on_c, 15, 50, 84
17, 399704, Note_on_c, 15, 50, 0
17, 399720, Note_on_c, 15, 50, 84
17, 399824, Note_on_c, 15, 50, 0
17, 400800, Note_on_c, 15, 38, 84
17, 401744, Note_on_c, 15, 38, 0
17, 401760, Note_on_c, 15, 39, 84
17, 402704, Note_on_c, 15, 39, 0
17, 402720, Note_on_c, 15, 40, 84
17, 403184, Note_on_c, 15, 40, 0
17, 403200, Note_on_c, 15, 41, 84
17, 403664, Note_on_c, 15, 41, 0
17, 403680, Note_on_c, 15, 42, 84
17, 404624, Note_on_c, 15, 42, 0
17, 404640, Note_on_c, 15, 43, 84
17, 405104, Note_on_c, 15, 43, 0
17, 405120, Note_on_c, 15, 44, 84
17, 405584, Note_on_c, 15, 44, 0
17, 405600, Note_on_c, 15, 45, 84
17, 406544, Note_on_c, 15, 45, 0
17, 406560, Note_on_c, 15, 46, 84
17, 407024, Note_on_c, 15, 46, 0
17, 407040, Note_on_c, 15, 47, 84
17, 407504, Note_on_c, 15, 47, 0
17, 407520, Note_on_c, 15, 48, 84
17, 408464, Note_on_c, 15, 48, 0
17, 408480, Note_on_c, 15, 49, 84
17, 408944, Note_on_c, 15, 49, 0
17, 408960, Note_on_c, 15, 50, 84
17, 409424, Note_on_c, 15, 50, 0
17, 409440, Note_on_c, 15, 39, 84
17, 409529, Note_on_c, 15, 39, 0
17, 409560, Note_on_c, 15, 51, 84
17, 409649, Note_on_c, 15, 51, 0
17, 409680, Note_on_c, 15, 51, 84
17, 409769, Note_on_c, 15, 51, 0
17, 409800, Note_on_c, 15, 51, 84
17, 409889, Note_on_c, 15, 51, 0
17, 409920, Note_on_c, 15, 35, 84
17, 410009, Note_on_c, 15, 35, 0
17, 410040, Note_on_c, 15, 47, 84
17, 410129, Note_on_c, 15, 47, 0
17, 410160, Note_on_c, 15, 47, 84
17, 410249, Note_on_c, 15, 47, 0
17, 410280, Note_on_c, 15, 47, 84
17, 410369, Note_on_c, 15, 47, 0
17, 410400, Note_on_c, 15, 40, 84
17, 410489, Note_on_c, 15, 40, 0
17, 410520, Note_on_c, 15, 52, 84
17, 410609, Note_on_c, 15, 52, 0
17, 410640, Note_on_c, 15, 52, 84
17, 410729, Note_on_c, 15, 52, 0
17, 410760, Note_on_c, 15, 52, 84
17, 410849, Note_on_c, 15, 52, 0
17, 410880, Note_on_c, 15, 37, 84
17, 410969, Note_on_c, 15, 37, 0
17, 411000, Note_on_c, 15, 49, 84
17, 411089, Note_on_c, 15, 49, 0
17, 411120, Note_on_c, 15, 49, 84
17, 411209, Note_on_c, 15, 49, 0
17, 411240, Note_on_c, 15, 49, 84
17, 411329, Note_on_c, 15, 49, 0
17, 411360, Note_on_c, 15, 38, 84
17, 411449, Note_on_c, 15, 38, 0
17, 411480, Note_on_c, 15, 50, 84
17, 411569, Note_on_c, 15, 50, 0
17, 411600, Note_on_c, 15, 50, 84
17, 411689, Note_on_c, 15, 50, 0
17, 411720, Note_on_c, 15, 50, 84
17, 411809, Note_on_c, 15, 50, 0
17, 411840, Note_on_c, 15, 35, 84
17, 411929, Note_on_c, 15, 35, 0
17, 411960, Note_on_c, 15, 47, 84
17, 412049, Note_on_c, 15, 47, 0
17, 412080, Note_on_c, 15, 47, 84
17, 412169, Note_on_c, 15, 47, 0
17, 412200, Note_on_c, 15, 47, 84
17, 412289, Note_on_c, 15, 47, 0
17, 412320, Note_on_c, 15, 31, 92
17, 412409, Note_on_c, 15, 31, 0
17, 412440, Note_on_c, 15, 43, 84
17, 412529, Note_on_c, 15, 43, 0
17, 412560, Note_on_c, 15, 43, 84
17, 412649, Note_on_c, 15, 43, 0
17, 412680, Note_on_c, 15, 43, 84
17, 412769, Note_on_c, 15, 43, 0
17, 412800, Note_on_c, 15, 43, 84
17, 412889, Note_on_c, 15, 43, 0
17, 412920, Note_on_c, 15, 43, 84
17, 413009, Note_on_c, 15, 43, 0
17, 413040, Note_on_c, 15, 43, 84
17, 413129, Note_on_c, 15, 43, 0
17, 413160, Note_on_c, 15, 43, 84
17, 413249, Note_on_c, 15, 43, 0
17, 413280, Note_on_c, 15, 33, 92
17, 413369, Note_on_c, 15, 33, 0
17, 413400, Note_on_c, 15, 45, 84
17, 413489, Note_on_c, 15, 45, 0
17, 413520, Note_on_c, 15, 45, 84
17, 413609, Note_on_c, 15, 45, 0
17, 413640, Note_on_c, 15, 45, 84
17, 413729, Note_on_c, 15, 45, 0
17, 413760, Note_on_c, 15, 33, 84
17, 413849, Note_on_c, 15, 33, 0
17, 413880, Note_on_c, 15, 45, 84
17, 413969, Note_on_c, 15, 45, 0
17, 414000, Note_on_c, 15, 45, 84
17, 414089, Note_on_c, 15, 45, 0
17, 414120, Note_on_c, 15, 45, 84
17, 414209, Note_on_c, 15, 45, 0
17, 414240, Note_on_c, 15, 38, 84
17, 414329, Note_on_c, 15, 38, 0
17, 414360, Note_on_c, 15, 50, 84
17, 414449, Note_on_c, 15, 50, 0
17, 414480, Note_on_c, 15, 49, 84
17, 414569, Note_on_c, 15, 49, 0
17, 414600, Note_on_c, 15, 47, 84
17, 414689, Note_on_c, 15, 47, 0
17, 414720, Note_on_c, 15, 45, 84
17, 414809, Note_on_c, 15, 45, 0
17, 414840, Note_on_c, 15, 47, 84
17, 414929, Note_on_c, 15, 47, 0
17, 414960, Note_on_c, 15, 45, 84
17, 415049, Note_on_c, 15, 45, 0
17, 415080, Note_on_c, 15, 43, 84
17, 415169, Note_on_c, 15, 43, 0
17, 415200, Note_on_c, 15, 42, 84
17, 415289, Note_on_c, 15, 42, 0
17, 415320, Note_on_c, 15, 47, 84
17, 415409, Note_on_c, 15, 47, 0
17, 415440, Note_on_c, 15, 45, 84
17, 415529, Note_on_c, 15, 45, 0
17, 415560, Note_on_c, 15, 43, 84
17, 415649, Note_on_c, 15, 43, 0
17, 415680, Note_on_c, 15, 42, 84
17, 415769, Note_on_c, 15, 42, 0
17, 415800, Note_on_c, 15, 43, 84
17, 415889, Note_on_c, 15, 43, 0
17, 415920, Note_on_c, 15, 42, 84
17, 416009, Note_on_c, 15, 42, 0
17, 416040, Note_on_c, 15, 40, 84
17, 416129, Note_on_c, 15, 40, 0
17, 416160, Note_on_c, 15, 38, 84
17, 416249, Note_on_c, 15, 38, 0
17, 416280, Note_on_c, 15, 35, 84
17, 416369, Note_on_c, 15, 35, 0
17, 416400, Note_on_c, 15, 33, 84
17, 416489, Note_on_c, 15, 33, 0
17, 416520, Note_on_c, 15, 31, 84
17, 416609, Note_on_c, 15, 31, 0
17, 416640, Note_on_c, 15, 30, 84
17, 416729, Note_on_c, 15, 30, 0
17, 416760, Note_on_c, 15, 33, 84
17, 416849, Note_on_c, 15, 33, 0
17, 416880, Note_on_c, 15, 38, 84
17, 416969, Note_on_c, 15, 38, 0
17, 417000, Note_on_c, 15, 42, 84
17, 417089, Note_on_c, 15, 42, 0
17, 417120, Note_on_c, 15, 31, 84
17, 417209, Note_on_c, 15, 31, 0
17, 417240, Note_on_c, 15, 35, 84
17, 417329, Note_on_c, 15, 35, 0
17, 417360, Note_on_c, 15, 40, 84
17, 417449, Note_on_c, 15, 40, 0
17, 417480, Note_on_c, 15, 43, 84
17, 417569, Note_on_c, 15, 43, 0
17, 417600, Note_on_c, 15, 33, 84
17, 417689, Note_on_c, 15, 33, 0
17, 417720, Note_on_c, 15, 37, 84
17, 417809, Note_on_c, 15, 37, 0
17, 417840, Note_on_c, 15, 40, 84
17, 417929, Note_on_c, 15, 40, 0
17, 417960, Note_on_c, 15, 45, 84
17, 418049, Note_on_c, 15, 45, 0
17, 418080, Note_on_c, 15, 38, 84
17, 418169, Note_on_c, 15, 38, 0
17, 418200, Note_on_c, 15, 50, 84
17, 418289, Note_on_c, 15, 50, 0
17, 418320, Note_on_c, 15, 49, 84
17, 418409, Note_on_c, 15, 49, 0
17, 418440, Note_on_c, 15, 47, 84
17, 418529, Note_on_c, 15, 47, 0
17, 418560, Note_on_c, 15, 45, 84
17, 418649, Note_on_c, 15, 45, 0
17, 418680, Note_on_c, 15, 47, 84
17, 418769, Note_on_c, 15, 47, 0
17, 418800, Note_on_c, 15, 45, 84
17, 418889, Note_on_c, 15, 45, 0
17, 418920, Note_on_c, 15, 43, 84
17, 419009, Note_on_c, 15, 43, 0
17, 419040, Note_on_c, 15, 42, 84
17, 419129, Note_on_c, 15, 42, 0
17, 419160, Note_on_c, 15, 47, 84
17, 419249, Note_on_c, 15, 47, 0
17, 419280, Note_on_c, 15, 45, 84
17, 419369, Note_on_c, 15, 45, 0
17, 419400, Note_on_c, 15, 43, 84
17, 419489, Note_on_c, 15, 43, 0
17, 419520, Note_on_c, 15, 42, 84
17, 419609, Note_on_c, 15, 42, 0
17, 419640, Note_on_c, 15, 43, 84
17, 419729, Note_on_c, 15, 43, 0
17, 419760, Note_on_c, 15, 42, 84
17, 419849, Note_on_c, 15, 42, 0
17, 419880, Note_on_c, 15, 40, 84
17, 419969, Note_on_c, 15, 40, 0
17, 420000, Note_on_c, 15, 38, 84
17, 420089, Note_on_c, 15, 38, 0
17, 420120, Note_on_c, 15, 35, 84
17, 420209, Note_on_c, 15, 35, 0
17, 420240, Note_on_c, 15, 33, 84
17, 420329, Note_on_c, 15, 33, 0
17, 420360, Note_on_c, 15, 31, 84
17, 420449, Note_on_c, 15, 31, 0
17, 420480, Note_on_c, 15, 30, 84
17, 420569, Note_on_c, 15, 30, 0
17, 420600, Note_on_c, 15, 33, 84
17, 420689, Note_on_c, 15, 33, 0
17, 420720, Note_on_c, 15, 38, 84
17, 420809, Note_on_c, 15, 38, 0
17, 420840, Note_on_c, 15, 42, 84
17, 420929, Note_on_c, 15, 42, 0
17, 420960, Note_on_c, 15, 31, 84
17, 421049, Note_on_c, 15, 31, 0
17, 421080, Note_on_c, 15, 35, 84
17, 421169, Note_on_c, 15, 35, 0
17, 421200, Note_on_c, 15, 40, 84
17, 421289, Note_on_c, 15, 40, 0
17, 421320, Note_on_c, 15, 43, 84
17, 421409, Note_on_c, 15, 43, 0
17, 421440, Note_on_c, 15, 33, 84
17, 421529, Note_on_c, 15, 33, 0
17, 421560, Note_on_c, 15, 37, 84
17, 421649, Note_on_c, 15, 37, 0
17, 421680, Note_on_c, 15, 40, 84
17, 421769, Note_on_c, 15, 40, 0
17, 421800, Note_on_c, 15, 45, 84
17, 421889, Note_on_c, 15, 45, 0
17, 421920, Note_on_c, 15, 42, 84
17, 422009, Note_on_c, 15, 42, 0
17, 422040, Note_on_c, 15, 38, 84
17, 422129, Note_on_c, 15, 38, 0
17, 422160, Note_on_c, 15, 33, 84
17, 422249, Note_on_c, 15, 33, 0
17, 422280, Note_on_c, 15, 31, 84
17, 422369, Note_on_c, 15, 31, 0
17, 422400, Note_on_c, 15, 30, 84
17, 422489, Note_on_c, 15, 30, 0
17, 422520, Note_on_c, 15, 33, 84
17, 422609, Note_on_c, 15, 33, 0
17, 422640, Note_on_c, 15, 38, 84
17, 422729, Note_on_c, 15, 38, 0
17, 422760, Note_on_c, 15, 42, 84
17, 422849, Note_on_c, 15, 42, 0
17, 422880, Note_on_c, 15, 31, 84
17, 422969, Note_on_c, 15, 31, 0
17, 423000, Note_on_c, 15, 35, 84
17, 423089, Note_on_c, 15, 35, 0
17, 423120, Note_on_c, 15, 40, 84
17, 423209, Note_on_c, 15, 40, 0
17, 423240, Note_on_c, 15, 43, 84
17, 423329, Note_on_c, 15, 43, 0
17, 423360, Note_on_c, 15, 33, 84
17, 423449, Note_on_c, 15, 33, 0
17, 423480, Note_on_c, 15, 37, 84
17, 423569, Note_on_c, 15, 37, 0
17, 423600, Note_on_c, 15, 40, 84
17, 423689, Note_on_c, 15, 40, 0
17, 423720, Note_on_c, 15, 45, 84
17, 423809, Note_on_c, 15, 45, 0
17, 423840, Note_on_c, 15, 38, 76
17, 424544, Note_on_c, 15, 38, 0
17, 424560, Note_on_c, 15, 38, 76
17, 424619, Note_on_c, 15, 38, 0
17, 424620, Note_on_c, 15, 37, 76
17, 424679, Note_on_c, 15, 37, 0
17, 424680, Note_on_c, 15, 38, 76
17, 424739, Note_on_c, 15, 38, 0
17, 424740, Note_on_c, 15, 40, 76
17, 424791, Note_on_c, 15, 40, 0
17, 424800, Note_on_c, 15, 42, 76
17, 424979, Note_on_c, 15, 42, 0
17, 425040, Note_on_c, 15, 42, 76
17, 425099, Note_on_c, 15, 42, 0
17, 425100, Note_on_c, 15, 40, 76
17, 425159, Note_on_c, 15, 40, 0
17, 425160, Note_on_c, 15, 42, 76
17, 425219, Note_on_c, 15, 42, 0
17, 425220, Note_on_c, 15, 43, 76
17, 425271, Note_on_c, 15, 43, 0
17, 425280, Note_on_c, 15, 45, 76
17, 425459, Note_on_c, 15, 45, 0
17, 425520, Note_on_c, 15, 45, 76
17, 425639, Note_on_c, 15, 45, 0
17, 425640, Note_on_c, 15, 47, 76
17, 425699, Note_on_c, 15, 47, 0
17, 425700, Note_on_c, 15, 49, 76
17, 425751, Note_on_c, 15, 49, 0
17, 425760, Note_on_c, 15, 50, 84
17, 426464, Note_on_c, 15, 50, 0
17, 426480, Note_on_c, 15, 50, 76
17, 426599, Note_on_c, 15, 50, 0
17, 426600, Note_on_c, 15, 49, 76
17, 426659, Note_on_c, 15, 49, 0
17, 426660, Note_on_c, 15, 47, 76
17, 426711, Note_on_c, 15, 47, 0
17, 426720, Note_on_c, 15, 45, 76
17, 426899, Note_on_c, 15, 45, 0
17, 426960, Note_on_c, 15, 45, 76
17, 427019, Note_on_c, 15, 45, 0
17, 427020, Note_on_c, 15, 47, 76
17, 427079, Note_on_c, 15, 47, 0
17, 427080, Note_on_c, 15, 45, 76
17, 427139, Note_on_c, 15, 45, 0
17, 427140, Note_on_c, 15, 43, 76
17, 427191, Note_on_c, 15, 43, 0
17, 427200, Note_on_c, 15, 42, 76
17, 427379, Note_on_c, 15, 42, 0
17, 427440, Note_on_c, 15, 42, 76
17, 427499, Note_on_c, 15, 42, 0
17, 427500, Note_on_c, 15, 43, 76
17, 427559, Note_on_c, 15, 43, 0
17, 427560, Note_on_c, 15, 42, 76
17, 427619, Note_on_c, 15, 42, 0
17, 427620, Note_on_c, 15, 40, 76
17, 427671, Note_on_c, 15, 40, 0
17, 427680, Note_on_c, 15, 38, 76
17, 427859, Note_on_c, 15, 38, 0
17, 428580, Note_on_c, 15, 38, 76
17, 428624, Note_on_c, 15, 38, 0
17, 428640, Note_on_c, 15, 33, 76
17, 428819, Note_on_c, 15, 33, 0
17, 429540, Note_on_c, 15, 33, 76
17, 429584, Note_on_c, 15, 33, 0
17, 429600, Note_on_c, 15, 38, 76
17, 429779, Note_on_c, 15, 38, 0
17, 430500, Note_on_c, 15, 38, 76
17, 430544, Note_on_c, 15, 38, 0
17, 430560, Note_on_c, 15, 33, 76
17, 430739, Note_on_c, 15, 33, 0
17, 431460, Note_on_c, 15, 33, 76
17, 431504, Note_on_c, 15, 33, 0
17, 431520, Note_on_c, 15, 38, 76
17, 431699, Note_on_c, 15, 38, 0
17, 432420, Note_on_c, 15, 38, 84
17, 432471, Note_on_c, 15, 38, 0
17, 432480, Note_on_c, 15, 38, 84
17, 432719, Note_on_c, 15, 38, 0
17, 432960, Note_on_c, 15, 38, 84
17, 433199, Note_on_c, 15, 38, 0
17, 433440, Note_on_c, 15, 38, 84
17, 434399, Note_on_c, 15, 38, 0
17, 434399, End_track
18, 0, Start_track
18, 0, Title_t, "Ludwig van Beethoven - Symphony No. 2, Op.36 - No. 1 Adagio molto - Allegro"
18, 0, MIDI_port, 0
18, 0, End_track
0, 0, End_of_file
