0, 0, Header, 1, 18, 240
1, 0, Start_track
1, 0, Sequencer_specific, 10, 0, 0, 91, 35, 1, 0, 5, 6, 42, 0
1, 0, Title_t, "Ludwig van Beethoven - Symphony No. 5 in C minor, Op.67"
1, 0, Instrument_name_t, "Conductor Track"
1, 0, SMPTE_offset, 96, 0, 3, 0, 0
1, 0, MIDI_port, 0
1, 0, Key_signature, -3, "minor"
1, 0, Tempo, 208333
1, 0, Time_signature, 1, 2, 24, 8
1, 240, Time_signature, 3, 2, 24, 8
1, 4560, Tempo, 208333
1, 4620, Tempo, 210526
1, 4680, Tempo, 212765
1, 4740, Tempo, 215053
1, 4800, Tempo, 217391
1, 4860, Tempo, 219780
1, 4920, Tempo, 222222
1, 4980, Tempo, 224719
1, 5040, Tempo, 227272
1, 5100, Tempo, 229885
1, 5160, Tempo, 232558
1, 5220, Tempo, 235294
1, 5280, Tempo, 714285
1, 5760, Tempo, 208333
1, 11760, Tempo, 208333
1, 11820, Tempo, 210526
1, 11880, Tempo, 212765
1, 11940, Tempo, 215053
1, 12000, Tempo, 217391
1, 12060, Tempo, 219780
1, 12120, Tempo, 222222
1, 12180, Tempo, 224719
1, 12240, Tempo, 227272
1, 12300, Tempo, 229885
1, 12360, Tempo, 232558
1, 12420, Tempo, 235294
1, 12480, Tempo, 625000
1, 13200, Tempo, 208333
1, 36240, Tempo, 208333
1, 36300, Tempo, 210526
1, 36360, Tempo, 212765
1, 36420, Tempo, 215053
1, 36480, Tempo, 217391
1, 36540, Tempo, 219780
1, 36600, Tempo, 222222
1, 36660, Tempo, 224719
1, 36720, Tempo, 227272
1, 36780, Tempo, 229885
1, 36840, Tempo, 232558
1, 36900, Tempo, 235294
1, 36960, Tempo, 714285
1, 37440, Tempo, 208333
1, 100320, Key_signature, 0, "major"
1, 183840, Key_signature, -3, "minor"
1, 188880, Tempo, 208333
1, 188940, Tempo, 210526
1, 189000, Tempo, 212765
1, 189060, Tempo, 215053
1, 189120, Tempo, 217391
1, 189180, Tempo, 219780
1, 189240, Tempo, 222222
1, 189300, Tempo, 224719
1, 189360, Tempo, 227272
1, 189420, Tempo, 229885
1, 189480, Tempo, 232558
1, 189540, Tempo, 235294
1, 189600, Tempo, 714285
1, 190080, Tempo, 208333
1, 196080, Tempo, 208333
1, 196140, Tempo, 210526
1, 196200, Tempo, 212765
1, 196260, Tempo, 215053
1, 196320, Tempo, 217391
1, 196380, Tempo, 219780
1, 196440, Tempo, 222222
1, 196500, Tempo, 224719
1, 196560, Tempo, 227272
1, 196620, Tempo, 229885
1, 196680, Tempo, 232558
1, 196740, Tempo, 235294
1, 197040, Tempo, 1000000
1, 197400, Tempo, 208333
1, 197400, End_track
2, 0, Start_track
2, 0, Title_t, "3rd Movement - Allegro"
2, 0, MIDI_port, 0
2, 0, End_track
3, 0, Start_track
3, 0, Title_t, "Sequenced by D. L. Viens 1 Jul 2000"
3, 0, MIDI_port, 0
3, 0, End_track
4, 0, Start_track
4, 0, Title_t, "dlviens@empire.net"
4, 0, MIDI_port, 0
4, 0, End_track
5, 0, Start_track
5, 0, MIDI_port, 0
5, 0, End_track
6, 0, Start_track
6, 0, Title_t, "Flute"
6, 0, MIDI_port, 0
6, 0, Program_c, 0, 73
6, 0, Control_c, 0, 7, 72
6, 0, Control_c, 0, 10, 60
6, 0, Control_c, 0, 11, 127
6, 10320, Note_on_c, 0, 79, 44
6, 10799, Note_on_c, 0, 79, 0
6, 10800, Note_on_c, 0, 83, 44
6, 11039, Note_on_c, 0, 83, 0
6, 11040, Note_on_c, 0, 84, 44
6, 11519, Note_on_c, 0, 84, 0
6, 11520, Note_on_c, 0, 86, 44
6, 11739, Note_on_c, 0, 86, 0
6, 11760, Note_on_c, 0, 89, 44
6, 12199, Note_on_c, 0, 89, 0
6, 12240, Note_on_c, 0, 87, 44
6, 12439, Note_on_c, 0, 87, 0
6, 12480, Note_on_c, 0, 86, 44
6, 13199, Note_on_c, 0, 86, 0
6, 18960, Note_on_c, 0, 82, 76
6, 19179, Note_on_c, 0, 82, 0
6, 19200, Note_on_c, 0, 82, 76
6, 19419, Note_on_c, 0, 82, 0
6, 19440, Note_on_c, 0, 82, 76
6, 19659, Note_on_c, 0, 82, 0
6, 19680, Note_on_c, 0, 82, 76
6, 20379, Note_on_c, 0, 82, 0
6, 20400, Note_on_c, 0, 82, 76
6, 20619, Note_on_c, 0, 82, 0
6, 20640, Note_on_c, 0, 82, 76
6, 20859, Note_on_c, 0, 82, 0
6, 20880, Note_on_c, 0, 82, 76
6, 21099, Note_on_c, 0, 82, 0
6, 21120, Note_on_c, 0, 82, 76
6, 21819, Note_on_c, 0, 82, 0
6, 21840, Note_on_c, 0, 82, 76
6, 22059, Note_on_c, 0, 82, 0
6, 22080, Note_on_c, 0, 82, 76
6, 22299, Note_on_c, 0, 82, 0
6, 22320, Note_on_c, 0, 82, 76
6, 22539, Note_on_c, 0, 82, 0
6, 22560, Note_on_c, 0, 78, 76
6, 22560, Note_on_c, 0, 82, 76
6, 23259, Note_on_c, 0, 78, 0
6, 23259, Note_on_c, 0, 82, 0
6, 23280, Note_on_c, 0, 85, 76
6, 23280, Note_on_c, 0, 82, 76
6, 23519, Note_on_c, 0, 85, 0
6, 23519, Note_on_c, 0, 82, 0
6, 23520, Note_on_c, 0, 83, 76
6, 23520, Note_on_c, 0, 80, 76
6, 23739, Note_on_c, 0, 83, 0
6, 23739, Note_on_c, 0, 80, 0
6, 23760, Note_on_c, 0, 82, 76
6, 23760, Note_on_c, 0, 78, 76
6, 23939, Note_on_c, 0, 82, 0
6, 23939, Note_on_c, 0, 78, 0
6, 24000, Note_on_c, 0, 77, 76
6, 24000, Note_on_c, 0, 80, 76
6, 24699, Note_on_c, 0, 77, 0
6, 24699, Note_on_c, 0, 80, 0
6, 24720, Note_on_c, 0, 78, 76
6, 24720, Note_on_c, 0, 82, 76
6, 25419, Note_on_c, 0, 78, 0
6, 25419, Note_on_c, 0, 82, 0
6, 25440, Note_on_c, 0, 78, 76
6, 25440, Note_on_c, 0, 75, 76
6, 26139, Note_on_c, 0, 78, 0
6, 26139, Note_on_c, 0, 75, 0
6, 26160, Note_on_c, 0, 82, 76
6, 26160, Note_on_c, 0, 78, 76
6, 26399, Note_on_c, 0, 82, 0
6, 26399, Note_on_c, 0, 78, 0
6, 26400, Note_on_c, 0, 77, 76
6, 26400, Note_on_c, 0, 80, 76
6, 26619, Note_on_c, 0, 77, 0
6, 26619, Note_on_c, 0, 80, 0
6, 26640, Note_on_c, 0, 75, 76
6, 26640, Note_on_c, 0, 78, 76
6, 26819, Note_on_c, 0, 75, 0
6, 26819, Note_on_c, 0, 78, 0
6, 26880, Note_on_c, 0, 74, 84
6, 26880, Note_on_c, 0, 77, 84
6, 27000, Control_c, 0, 11, 112
6, 28079, Note_on_c, 0, 74, 0
6, 28079, Note_on_c, 0, 77, 0
6, 28080, Note_on_c, 0, 75, 84
6, 28080, Note_on_c, 0, 78, 84
6, 28299, Note_on_c, 0, 75, 0
6, 28299, Note_on_c, 0, 78, 0
6, 28318, Control_c, 0, 11, 127
6, 28320, Note_on_c, 0, 74, 84
6, 28320, Note_on_c, 0, 77, 84
6, 28440, Control_c, 0, 11, 112
6, 29519, Note_on_c, 0, 74, 0
6, 29519, Note_on_c, 0, 77, 0
6, 29520, Note_on_c, 0, 78, 84
6, 29520, Note_on_c, 0, 75, 84
6, 29739, Note_on_c, 0, 78, 0
6, 29739, Note_on_c, 0, 75, 0
6, 29758, Control_c, 0, 11, 127
6, 29760, Note_on_c, 0, 74, 84
6, 29760, Note_on_c, 0, 77, 84
6, 29880, Control_c, 0, 11, 112
6, 30239, Note_on_c, 0, 74, 0
6, 30239, Note_on_c, 0, 77, 0
6, 30240, Note_on_c, 0, 78, 84
6, 30240, Note_on_c, 0, 75, 84
6, 30459, Note_on_c, 0, 78, 0
6, 30459, Note_on_c, 0, 75, 0
6, 30478, Control_c, 0, 11, 127
6, 30480, Note_on_c, 0, 77, 84
6, 30480, Note_on_c, 0, 74, 84
6, 30600, Control_c, 0, 11, 112
6, 30959, Note_on_c, 0, 77, 0
6, 30959, Note_on_c, 0, 74, 0
6, 30960, Note_on_c, 0, 78, 84
6, 30960, Note_on_c, 0, 75, 84
6, 31179, Note_on_c, 0, 78, 0
6, 31179, Note_on_c, 0, 75, 0
6, 31198, Control_c, 0, 11, 127
6, 31200, Note_on_c, 0, 74, 76
6, 31200, Control_c, 0, 11, 127
6, 31200, Note_on_c, 0, 77, 76
6, 31260, Control_c, 0, 11, 122
6, 31320, Control_c, 0, 11, 117
6, 31380, Control_c, 0, 11, 111
6, 31440, Control_c, 0, 11, 106
6, 31500, Control_c, 0, 11, 101
6, 31560, Control_c, 0, 11, 96
6, 31620, Control_c, 0, 11, 90
6, 31680, Control_c, 0, 11, 85
6, 31740, Control_c, 0, 11, 80
6, 31800, Control_c, 0, 11, 75
6, 31860, Control_c, 0, 11, 69
6, 31920, Control_c, 0, 11, 64
6, 32159, Note_on_c, 0, 74, 0
6, 32159, Note_on_c, 0, 77, 0
6, 35520, Control_c, 0, 11, 127
6, 36240, Note_on_c, 0, 87, 52
6, 36679, Note_on_c, 0, 87, 0
6, 36720, Note_on_c, 0, 85, 52
6, 36919, Note_on_c, 0, 85, 0
6, 36960, Note_on_c, 0, 84, 52
6, 37439, Note_on_c, 0, 84, 0
6, 50640, Note_on_c, 0, 86, 76
6, 51339, Note_on_c, 0, 86, 0
6, 51360, Note_on_c, 0, 87, 76
6, 52059, Note_on_c, 0, 87, 0
6, 52080, Note_on_c, 0, 86, 76
6, 52779, Note_on_c, 0, 86, 0
6, 52800, Note_on_c, 0, 84, 76
6, 53499, Note_on_c, 0, 84, 0
6, 53520, Note_on_c, 0, 86, 76
6, 54219, Note_on_c, 0, 86, 0
6, 54240, Note_on_c, 0, 87, 76
6, 54939, Note_on_c, 0, 87, 0
6, 54960, Note_on_c, 0, 89, 76
6, 55659, Note_on_c, 0, 89, 0
6, 55680, Note_on_c, 0, 82, 76
6, 55919, Note_on_c, 0, 82, 0
6, 56400, Note_on_c, 0, 84, 84
6, 56619, Note_on_c, 0, 84, 0
6, 56640, Note_on_c, 0, 84, 84
6, 56859, Note_on_c, 0, 84, 0
6, 56880, Note_on_c, 0, 84, 84
6, 57099, Note_on_c, 0, 84, 0
6, 57120, Note_on_c, 0, 84, 84
6, 57819, Note_on_c, 0, 84, 0
6, 57840, Note_on_c, 0, 84, 84
6, 58059, Note_on_c, 0, 84, 0
6, 58080, Note_on_c, 0, 84, 84
6, 58299, Note_on_c, 0, 84, 0
6, 58320, Note_on_c, 0, 84, 84
6, 58539, Note_on_c, 0, 84, 0
6, 58560, Note_on_c, 0, 84, 84
6, 59259, Note_on_c, 0, 84, 0
6, 59280, Note_on_c, 0, 84, 84
6, 59280, Note_on_c, 0, 79, 84
6, 59499, Note_on_c, 0, 84, 0
6, 59499, Note_on_c, 0, 79, 0
6, 59520, Note_on_c, 0, 79, 84
6, 59520, Note_on_c, 0, 84, 84
6, 59739, Note_on_c, 0, 79, 0
6, 59739, Note_on_c, 0, 84, 0
6, 59760, Note_on_c, 0, 79, 84
6, 59760, Note_on_c, 0, 84, 84
6, 59979, Note_on_c, 0, 79, 0
6, 59979, Note_on_c, 0, 84, 0
6, 60000, Note_on_c, 0, 80, 84
6, 60000, Note_on_c, 0, 84, 84
6, 60699, Note_on_c, 0, 80, 0
6, 60699, Note_on_c, 0, 84, 0
6, 60720, Note_on_c, 0, 84, 84
6, 60720, Note_on_c, 0, 87, 84
6, 60959, Note_on_c, 0, 84, 0
6, 60959, Note_on_c, 0, 87, 0
6, 60960, Note_on_c, 0, 85, 84
6, 60960, Note_on_c, 0, 82, 84
6, 61179, Note_on_c, 0, 85, 0
6, 61179, Note_on_c, 0, 82, 0
6, 61200, Note_on_c, 0, 80, 84
6, 61200, Note_on_c, 0, 84, 84
6, 61379, Note_on_c, 0, 80, 0
6, 61379, Note_on_c, 0, 84, 0
6, 61440, Note_on_c, 0, 79, 84
6, 61440, Note_on_c, 0, 82, 84
6, 62139, Note_on_c, 0, 79, 0
6, 62139, Note_on_c, 0, 82, 0
6, 62160, Note_on_c, 0, 84, 84
6, 62160, Note_on_c, 0, 80, 84
6, 62859, Note_on_c, 0, 84, 0
6, 62859, Note_on_c, 0, 80, 0
6, 62880, Note_on_c, 0, 80, 84
6, 62880, Note_on_c, 0, 77, 84
6, 63579, Note_on_c, 0, 80, 0
6, 63579, Note_on_c, 0, 77, 0
6, 63600, Note_on_c, 0, 84, 84
6, 63600, Note_on_c, 0, 80, 84
6, 63839, Note_on_c, 0, 84, 0
6, 63839, Note_on_c, 0, 80, 0
6, 63840, Note_on_c, 0, 82, 84
6, 63840, Note_on_c, 0, 79, 84
6, 64059, Note_on_c, 0, 82, 0
6, 64059, Note_on_c, 0, 79, 0
6, 64080, Note_on_c, 0, 77, 84
6, 64080, Note_on_c, 0, 80, 84
6, 64259, Note_on_c, 0, 77, 0
6, 64259, Note_on_c, 0, 80, 0
6, 64320, Note_on_c, 0, 76, 92
6, 64320, Note_on_c, 0, 79, 92
6, 64440, Control_c, 0, 11, 112
6, 65519, Note_on_c, 0, 76, 0
6, 65519, Note_on_c, 0, 79, 0
6, 65520, Note_on_c, 0, 77, 92
6, 65520, Note_on_c, 0, 80, 92
6, 65739, Note_on_c, 0, 77, 0
6, 65739, Note_on_c, 0, 80, 0
6, 65758, Control_c, 0, 11, 127
6, 65760, Note_on_c, 0, 76, 92
6, 65760, Note_on_c, 0, 79, 92
6, 65880, Control_c, 0, 11, 112
6, 66959, Note_on_c, 0, 76, 0
6, 66959, Note_on_c, 0, 79, 0
6, 66960, Note_on_c, 0, 77, 92
6, 66960, Note_on_c, 0, 80, 92
6, 67179, Note_on_c, 0, 77, 0
6, 67179, Note_on_c, 0, 80, 0
6, 67198, Control_c, 0, 11, 127
6, 67200, Note_on_c, 0, 79, 92
6, 67200, Note_on_c, 0, 76, 92
6, 67320, Control_c, 0, 11, 112
6, 67679, Note_on_c, 0, 79, 0
6, 67679, Note_on_c, 0, 76, 0
6, 67680, Note_on_c, 0, 80, 92
6, 67680, Note_on_c, 0, 77, 92
6, 67899, Note_on_c, 0, 80, 0
6, 67899, Note_on_c, 0, 77, 0
6, 67918, Control_c, 0, 11, 127
6, 67920, Note_on_c, 0, 76, 92
6, 67920, Note_on_c, 0, 79, 92
6, 68040, Control_c, 0, 11, 112
6, 68399, Note_on_c, 0, 76, 0
6, 68399, Note_on_c, 0, 79, 0
6, 68400, Note_on_c, 0, 77, 92
6, 68400, Note_on_c, 0, 80, 92
6, 68619, Note_on_c, 0, 77, 0
6, 68619, Note_on_c, 0, 80, 0
6, 68638, Control_c, 0, 11, 127
6, 68640, Control_c, 0, 11, 127
6, 68640, Note_on_c, 0, 76, 84
6, 68640, Note_on_c, 0, 79, 84
6, 68700, Control_c, 0, 11, 120
6, 68760, Control_c, 0, 11, 114
6, 68820, Control_c, 0, 11, 107
6, 68880, Control_c, 0, 11, 101
6, 68940, Control_c, 0, 11, 94
6, 69000, Control_c, 0, 11, 88
6, 69060, Control_c, 0, 11, 81
6, 69120, Control_c, 0, 11, 74
6, 69180, Control_c, 0, 11, 68
6, 69240, Control_c, 0, 11, 61
6, 69300, Control_c, 0, 11, 55
6, 69360, Control_c, 0, 11, 48
6, 69599, Note_on_c, 0, 76, 0
6, 69599, Note_on_c, 0, 79, 0
6, 71520, Control_c, 0, 11, 127
6, 72240, Note_on_c, 0, 79, 52
6, 72719, Note_on_c, 0, 79, 0
6, 72720, Note_on_c, 0, 83, 52
6, 72959, Note_on_c, 0, 83, 0
6, 72960, Note_on_c, 0, 84, 52
6, 73439, Note_on_c, 0, 84, 0
6, 73440, Note_on_c, 0, 86, 52
6, 73679, Note_on_c, 0, 86, 0
6, 73680, Note_on_c, 0, 89, 52
6, 74159, Note_on_c, 0, 89, 0
6, 74160, Note_on_c, 0, 87, 52
6, 74399, Note_on_c, 0, 87, 0
6, 74400, Note_on_c, 0, 86, 52
6, 74639, Note_on_c, 0, 86, 0
6, 75120, Note_on_c, 0, 79, 52
6, 75599, Note_on_c, 0, 79, 0
6, 75600, Note_on_c, 0, 83, 52
6, 75839, Note_on_c, 0, 83, 0
6, 75840, Note_on_c, 0, 84, 52
6, 76319, Note_on_c, 0, 84, 0
6, 76320, Note_on_c, 0, 87, 52
6, 76559, Note_on_c, 0, 87, 0
6, 76560, Note_on_c, 0, 91, 52
6, 77039, Note_on_c, 0, 91, 0
6, 77040, Note_on_c, 0, 89, 52
6, 77279, Note_on_c, 0, 89, 0
6, 77280, Note_on_c, 0, 87, 52
6, 77519, Note_on_c, 0, 87, 0
6, 79440, Note_on_c, 0, 92, 52
6, 79659, Note_on_c, 0, 92, 0
6, 79680, Note_on_c, 0, 92, 52
6, 79899, Note_on_c, 0, 92, 0
6, 79920, Note_on_c, 0, 92, 52
6, 80139, Note_on_c, 0, 92, 0
6, 80160, Note_on_c, 0, 92, 52
6, 80399, Note_on_c, 0, 92, 0
6, 80880, Note_on_c, 0, 92, 52
6, 81099, Note_on_c, 0, 92, 0
6, 81120, Note_on_c, 0, 92, 52
6, 81339, Note_on_c, 0, 92, 0
6, 81360, Note_on_c, 0, 92, 52
6, 81579, Note_on_c, 0, 92, 0
6, 81600, Note_on_c, 0, 92, 52
6, 81839, Note_on_c, 0, 92, 0
6, 82080, Note_on_c, 0, 86, 44
6, 82080, Note_on_c, 0, 89, 44
6, 82319, Note_on_c, 0, 86, 0
6, 82319, Note_on_c, 0, 89, 0
6, 82800, Note_on_c, 0, 89, 52
6, 82800, Note_on_c, 0, 86, 52
6, 83039, Note_on_c, 0, 89, 0
6, 83039, Note_on_c, 0, 86, 0
6, 83520, Note_on_c, 0, 84, 52
6, 83520, Note_on_c, 0, 89, 52
6, 83759, Note_on_c, 0, 84, 0
6, 83759, Note_on_c, 0, 89, 0
6, 84240, Note_on_c, 0, 89, 52
6, 84240, Note_on_c, 0, 86, 52
6, 84479, Note_on_c, 0, 89, 0
6, 84479, Note_on_c, 0, 86, 0
6, 84960, Note_on_c, 0, 89, 52
6, 84960, Note_on_c, 0, 84, 52
6, 85199, Note_on_c, 0, 89, 0
6, 85199, Note_on_c, 0, 84, 0
6, 85680, Note_on_c, 0, 86, 52
6, 85680, Note_on_c, 0, 89, 52
6, 85919, Note_on_c, 0, 86, 0
6, 85919, Note_on_c, 0, 89, 0
6, 86400, Note_on_c, 0, 89, 52
6, 86400, Note_on_c, 0, 84, 52
6, 86639, Note_on_c, 0, 89, 0
6, 86639, Note_on_c, 0, 84, 0
6, 87120, Note_on_c, 0, 86, 52
6, 87120, Note_on_c, 0, 89, 52
6, 87359, Note_on_c, 0, 86, 0
6, 87359, Note_on_c, 0, 89, 0
6, 87840, Note_on_c, 0, 89, 52
6, 87840, Note_on_c, 0, 84, 52
6, 88079, Note_on_c, 0, 89, 0
6, 88079, Note_on_c, 0, 84, 0
6, 88560, Note_on_c, 0, 86, 55
6, 88560, Note_on_c, 0, 89, 55
6, 88799, Note_on_c, 0, 86, 0
6, 88799, Note_on_c, 0, 89, 0
6, 89280, Note_on_c, 0, 87, 58
6, 89280, Note_on_c, 0, 84, 58
6, 89519, Note_on_c, 0, 87, 0
6, 89519, Note_on_c, 0, 84, 0
6, 90000, Note_on_c, 0, 84, 61
6, 90000, Note_on_c, 0, 89, 61
6, 90239, Note_on_c, 0, 84, 0
6, 90239, Note_on_c, 0, 89, 0
6, 90720, Note_on_c, 0, 86, 65
6, 90720, Note_on_c, 0, 83, 65
6, 90959, Note_on_c, 0, 86, 0
6, 90959, Note_on_c, 0, 83, 0
6, 91440, Note_on_c, 0, 87, 68
6, 91440, Note_on_c, 0, 84, 68
6, 91679, Note_on_c, 0, 87, 0
6, 91679, Note_on_c, 0, 84, 0
6, 92160, Note_on_c, 0, 84, 71
6, 92160, Note_on_c, 0, 87, 71
6, 92399, Note_on_c, 0, 84, 0
6, 92399, Note_on_c, 0, 87, 0
6, 92880, Note_on_c, 0, 87, 74
6, 92880, Note_on_c, 0, 84, 74
6, 93119, Note_on_c, 0, 87, 0
6, 93119, Note_on_c, 0, 84, 0
6, 93600, Note_on_c, 0, 84, 76
6, 93600, Note_on_c, 0, 87, 76
6, 93819, Note_on_c, 0, 84, 0
6, 93819, Note_on_c, 0, 87, 0
6, 93840, Note_on_c, 0, 87, 76
6, 93840, Note_on_c, 0, 84, 76
6, 94059, Note_on_c, 0, 87, 0
6, 94059, Note_on_c, 0, 84, 0
6, 94080, Note_on_c, 0, 84, 76
6, 94080, Note_on_c, 0, 87, 76
6, 94299, Note_on_c, 0, 84, 0
6, 94299, Note_on_c, 0, 87, 0
6, 94320, Note_on_c, 0, 86, 76
6, 94320, Note_on_c, 0, 83, 76
6, 94539, Note_on_c, 0, 86, 0
6, 94539, Note_on_c, 0, 83, 0
6, 94560, Note_on_c, 0, 84, 76
6, 94799, Note_on_c, 0, 84, 0
6, 95280, Note_on_c, 0, 86, 84
6, 95280, Note_on_c, 0, 91, 84
6, 95499, Note_on_c, 0, 86, 0
6, 95499, Note_on_c, 0, 91, 0
6, 95520, Note_on_c, 0, 91, 84
6, 95520, Note_on_c, 0, 86, 84
6, 95739, Note_on_c, 0, 91, 0
6, 95739, Note_on_c, 0, 86, 0
6, 95760, Note_on_c, 0, 86, 84
6, 95760, Note_on_c, 0, 91, 84
6, 95979, Note_on_c, 0, 86, 0
6, 95979, Note_on_c, 0, 91, 0
6, 96000, Note_on_c, 0, 91, 84
6, 96000, Note_on_c, 0, 87, 84
6, 96699, Note_on_c, 0, 91, 0
6, 96699, Note_on_c, 0, 87, 0
6, 96720, Note_on_c, 0, 86, 84
6, 96720, Note_on_c, 0, 91, 84
6, 96939, Note_on_c, 0, 86, 0
6, 96939, Note_on_c, 0, 91, 0
6, 96960, Note_on_c, 0, 91, 84
6, 96960, Note_on_c, 0, 86, 84
6, 97179, Note_on_c, 0, 91, 0
6, 97179, Note_on_c, 0, 86, 0
6, 97200, Note_on_c, 0, 91, 84
6, 97200, Note_on_c, 0, 86, 84
6, 97419, Note_on_c, 0, 91, 0
6, 97419, Note_on_c, 0, 86, 0
6, 97440, Note_on_c, 0, 84, 84
6, 97440, Note_on_c, 0, 91, 84
6, 98139, Note_on_c, 0, 84, 0
6, 98139, Note_on_c, 0, 91, 0
6, 98160, Note_on_c, 0, 82, 52
6, 98160, Note_on_c, 0, 79, 52
6, 98379, Note_on_c, 0, 82, 0
6, 98379, Note_on_c, 0, 79, 0
6, 98400, Note_on_c, 0, 79, 52
6, 98400, Note_on_c, 0, 82, 52
6, 98619, Note_on_c, 0, 79, 0
6, 98619, Note_on_c, 0, 82, 0
6, 98640, Note_on_c, 0, 82, 52
6, 98640, Note_on_c, 0, 79, 52
6, 98859, Note_on_c, 0, 82, 0
6, 98859, Note_on_c, 0, 79, 0
6, 98880, Note_on_c, 0, 77, 52
6, 98880, Note_on_c, 0, 80, 52
6, 99059, Note_on_c, 0, 77, 0
6, 99059, Note_on_c, 0, 80, 0
6, 99600, Note_on_c, 0, 74, 52
6, 99600, Note_on_c, 0, 71, 52
6, 99779, Note_on_c, 0, 74, 0
6, 99779, Note_on_c, 0, 71, 0
6, 100320, Note_on_c, 0, 72, 52
6, 100499, Note_on_c, 0, 72, 0
6, 111840, Note_on_c, 0, 79, 76
6, 112539, Note_on_c, 0, 79, 0
6, 112560, Note_on_c, 0, 86, 76
6, 113019, Note_on_c, 0, 86, 0
6, 113040, Note_on_c, 0, 88, 76
6, 113139, Note_on_c, 0, 88, 0
6, 113160, Note_on_c, 0, 90, 76
6, 113259, Note_on_c, 0, 90, 0
6, 113280, Note_on_c, 0, 83, 76
6, 113280, Note_on_c, 0, 91, 76
6, 113519, Note_on_c, 0, 83, 0
6, 113519, Note_on_c, 0, 91, 0
6, 113640, Note_on_c, 0, 86, 76
6, 113739, Note_on_c, 0, 86, 0
6, 113760, Note_on_c, 0, 88, 76
6, 113859, Note_on_c, 0, 88, 0
6, 113880, Note_on_c, 0, 90, 76
6, 113979, Note_on_c, 0, 90, 0
6, 114000, Note_on_c, 0, 83, 76
6, 114000, Note_on_c, 0, 91, 76
6, 114239, Note_on_c, 0, 83, 0
6, 114239, Note_on_c, 0, 91, 0
6, 114360, Note_on_c, 0, 86, 76
6, 114459, Note_on_c, 0, 86, 0
6, 114480, Note_on_c, 0, 88, 76
6, 114579, Note_on_c, 0, 88, 0
6, 114600, Note_on_c, 0, 90, 76
6, 114699, Note_on_c, 0, 90, 0
6, 114720, Note_on_c, 0, 83, 76
6, 114720, Note_on_c, 0, 91, 76
6, 114959, Note_on_c, 0, 83, 0
6, 114959, Note_on_c, 0, 91, 0
6, 126240, Note_on_c, 0, 79, 76
6, 126939, Note_on_c, 0, 79, 0
6, 126960, Note_on_c, 0, 86, 76
6, 127419, Note_on_c, 0, 86, 0
6, 127440, Note_on_c, 0, 88, 76
6, 127539, Note_on_c, 0, 88, 0
6, 127560, Note_on_c, 0, 90, 76
6, 127659, Note_on_c, 0, 90, 0
6, 127680, Note_on_c, 0, 83, 76
6, 127680, Note_on_c, 0, 91, 76
6, 127919, Note_on_c, 0, 83, 0
6, 127919, Note_on_c, 0, 91, 0
6, 128040, Note_on_c, 0, 86, 76
6, 128139, Note_on_c, 0, 86, 0
6, 128160, Note_on_c, 0, 88, 76
6, 128259, Note_on_c, 0, 88, 0
6, 128280, Note_on_c, 0, 90, 76
6, 128379, Note_on_c, 0, 90, 0
6, 128400, Note_on_c, 0, 91, 76
6, 128400, Note_on_c, 0, 83, 76
6, 128639, Note_on_c, 0, 91, 0
6, 128639, Note_on_c, 0, 83, 0
6, 128760, Note_on_c, 0, 86, 76
6, 128859, Note_on_c, 0, 86, 0
6, 128880, Note_on_c, 0, 88, 76
6, 128979, Note_on_c, 0, 88, 0
6, 129000, Note_on_c, 0, 90, 76
6, 129099, Note_on_c, 0, 90, 0
6, 129120, Note_on_c, 0, 91, 76
6, 129120, Note_on_c, 0, 83, 76
6, 129359, Note_on_c, 0, 91, 0
6, 129359, Note_on_c, 0, 83, 0
6, 144720, Note_on_c, 0, 84, 76
6, 144939, Note_on_c, 0, 84, 0
6, 144960, Note_on_c, 0, 83, 76
6, 145059, Note_on_c, 0, 83, 0
6, 145080, Note_on_c, 0, 84, 76
6, 145179, Note_on_c, 0, 84, 0
6, 145200, Note_on_c, 0, 86, 76
6, 145299, Note_on_c, 0, 86, 0
6, 145320, Note_on_c, 0, 79, 76
6, 145419, Note_on_c, 0, 79, 0
6, 145440, Note_on_c, 0, 81, 76
6, 145539, Note_on_c, 0, 81, 0
6, 145560, Note_on_c, 0, 83, 76
6, 145659, Note_on_c, 0, 83, 0
6, 145680, Note_on_c, 0, 84, 76
6, 145779, Note_on_c, 0, 84, 0
6, 145800, Note_on_c, 0, 83, 76
6, 145899, Note_on_c, 0, 83, 0
6, 145920, Note_on_c, 0, 84, 76
6, 146019, Note_on_c, 0, 84, 0
6, 146040, Note_on_c, 0, 86, 76
6, 146139, Note_on_c, 0, 86, 0
6, 146160, Note_on_c, 0, 88, 76
6, 146160, Note_on_c, 0, 84, 76
6, 146259, Note_on_c, 0, 88, 0
6, 146280, Note_on_c, 0, 89, 76
6, 146379, Note_on_c, 0, 84, 0
6, 146379, Note_on_c, 0, 89, 0
6, 146400, Note_on_c, 0, 91, 84
6, 146400, Note_on_c, 0, 83, 84
6, 146520, Control_c, 0, 11, 112
6, 146859, Note_on_c, 0, 91, 0
6, 146859, Note_on_c, 0, 83, 0
6, 146880, Note_on_c, 0, 89, 84
6, 146880, Note_on_c, 0, 86, 84
6, 147059, Note_on_c, 0, 89, 0
6, 147059, Note_on_c, 0, 86, 0
6, 147120, Note_on_c, 0, 88, 84
6, 147120, Note_on_c, 0, 84, 84
6, 147299, Note_on_c, 0, 88, 0
6, 147299, Note_on_c, 0, 84, 0
6, 147360, Note_on_c, 0, 84, 84
6, 147360, Note_on_c, 0, 79, 84
6, 147539, Note_on_c, 0, 84, 0
6, 147539, Note_on_c, 0, 79, 0
6, 147600, Note_on_c, 0, 88, 84
6, 147600, Note_on_c, 0, 84, 84
6, 147779, Note_on_c, 0, 88, 0
6, 147779, Note_on_c, 0, 84, 0
6, 147838, Control_c, 0, 11, 127
6, 147840, Note_on_c, 0, 91, 84
6, 147840, Note_on_c, 0, 83, 84
6, 147960, Control_c, 0, 11, 112
6, 148299, Note_on_c, 0, 91, 0
6, 148299, Note_on_c, 0, 83, 0
6, 148320, Note_on_c, 0, 89, 84
6, 148320, Note_on_c, 0, 86, 84
6, 148499, Note_on_c, 0, 89, 0
6, 148499, Note_on_c, 0, 86, 0
6, 148560, Note_on_c, 0, 88, 84
6, 148560, Note_on_c, 0, 84, 84
6, 148739, Note_on_c, 0, 88, 0
6, 148739, Note_on_c, 0, 84, 0
6, 148800, Note_on_c, 0, 84, 84
6, 148800, Note_on_c, 0, 79, 84
6, 148979, Note_on_c, 0, 84, 0
6, 148979, Note_on_c, 0, 79, 0
6, 149040, Note_on_c, 0, 88, 84
6, 149040, Note_on_c, 0, 84, 84
6, 149219, Note_on_c, 0, 88, 0
6, 149219, Note_on_c, 0, 84, 0
6, 149278, Control_c, 0, 11, 127
6, 149280, Note_on_c, 0, 91, 84
6, 149280, Note_on_c, 0, 83, 84
6, 149400, Control_c, 0, 11, 112
6, 149739, Note_on_c, 0, 91, 0
6, 149739, Note_on_c, 0, 83, 0
6, 149760, Note_on_c, 0, 89, 84
6, 149760, Note_on_c, 0, 86, 84
6, 149939, Note_on_c, 0, 89, 0
6, 149939, Note_on_c, 0, 86, 0
6, 149998, Control_c, 0, 11, 127
6, 150000, Note_on_c, 0, 88, 76
6, 150000, Note_on_c, 0, 84, 76
6, 150179, Note_on_c, 0, 88, 0
6, 150179, Note_on_c, 0, 84, 0
6, 150240, Note_on_c, 0, 84, 76
6, 150240, Note_on_c, 0, 81, 76
6, 150419, Note_on_c, 0, 84, 0
6, 150419, Note_on_c, 0, 81, 0
6, 150480, Note_on_c, 0, 89, 76
6, 150480, Note_on_c, 0, 81, 76
6, 150659, Note_on_c, 0, 89, 0
6, 150659, Note_on_c, 0, 81, 0
6, 150720, Note_on_c, 0, 86, 76
6, 150720, Note_on_c, 0, 83, 76
6, 150939, Note_on_c, 0, 86, 0
6, 150939, Note_on_c, 0, 83, 0
6, 150960, Note_on_c, 0, 83, 76
6, 150960, Note_on_c, 0, 79, 76
6, 151179, Note_on_c, 0, 83, 0
6, 151179, Note_on_c, 0, 79, 0
6, 151200, Note_on_c, 0, 88, 76
6, 151200, Note_on_c, 0, 79, 76
6, 151419, Note_on_c, 0, 88, 0
6, 151419, Note_on_c, 0, 79, 0
6, 151440, Note_on_c, 0, 84, 76
6, 151440, Note_on_c, 0, 81, 76
6, 151659, Note_on_c, 0, 84, 0
6, 151659, Note_on_c, 0, 81, 0
6, 151680, Note_on_c, 0, 81, 76
6, 151680, Note_on_c, 0, 77, 76
6, 151899, Note_on_c, 0, 81, 0
6, 151899, Note_on_c, 0, 77, 0
6, 151920, Note_on_c, 0, 86, 76
6, 151920, Note_on_c, 0, 81, 76
6, 152139, Note_on_c, 0, 86, 0
6, 152139, Note_on_c, 0, 81, 0
6, 152160, Note_on_c, 0, 83, 76
6, 152160, Note_on_c, 0, 77, 76
6, 152379, Note_on_c, 0, 83, 0
6, 152379, Note_on_c, 0, 77, 0
6, 152400, Note_on_c, 0, 79, 76
6, 152400, Note_on_c, 0, 77, 76
6, 152619, Note_on_c, 0, 79, 0
6, 152619, Note_on_c, 0, 77, 0
6, 152640, Note_on_c, 0, 86, 76
6, 152640, Note_on_c, 0, 77, 76
6, 152859, Note_on_c, 0, 86, 0
6, 152859, Note_on_c, 0, 77, 0
6, 152880, Note_on_c, 0, 83, 76
6, 152880, Note_on_c, 0, 77, 76
6, 153099, Note_on_c, 0, 83, 0
6, 153099, Note_on_c, 0, 77, 0
6, 153120, Note_on_c, 0, 91, 76
6, 153120, Note_on_c, 0, 77, 76
6, 153339, Note_on_c, 0, 91, 0
6, 153339, Note_on_c, 0, 77, 0
6, 153360, Note_on_c, 0, 83, 76
6, 153360, Note_on_c, 0, 77, 76
6, 153579, Note_on_c, 0, 83, 0
6, 153579, Note_on_c, 0, 77, 0
6, 153600, Note_on_c, 0, 84, 76
6, 153600, Note_on_c, 0, 76, 76
6, 153839, Note_on_c, 0, 84, 0
6, 153839, Note_on_c, 0, 76, 0
6, 153960, Note_on_c, 0, 79, 76
6, 154059, Note_on_c, 0, 79, 0
6, 154080, Note_on_c, 0, 81, 76
6, 154179, Note_on_c, 0, 81, 0
6, 154200, Note_on_c, 0, 83, 76
6, 154299, Note_on_c, 0, 83, 0
6, 154320, Note_on_c, 0, 84, 76
6, 154559, Note_on_c, 0, 84, 0
6, 154680, Note_on_c, 0, 79, 76
6, 154779, Note_on_c, 0, 79, 0
6, 154800, Note_on_c, 0, 81, 76
6, 154899, Note_on_c, 0, 81, 0
6, 154920, Note_on_c, 0, 83, 76
6, 155019, Note_on_c, 0, 83, 0
6, 155040, Note_on_c, 0, 84, 76
6, 155279, Note_on_c, 0, 84, 0
6, 170640, Note_on_c, 0, 84, 44
6, 170879, Note_on_c, 0, 84, 0
6, 170880, Note_on_c, 0, 83, 44
6, 170999, Note_on_c, 0, 83, 0
6, 171000, Note_on_c, 0, 84, 44
6, 171119, Note_on_c, 0, 84, 0
6, 171120, Note_on_c, 0, 86, 44
6, 171239, Note_on_c, 0, 86, 0
6, 171240, Note_on_c, 0, 79, 44
6, 171359, Note_on_c, 0, 79, 0
6, 171360, Note_on_c, 0, 81, 44
6, 171479, Note_on_c, 0, 81, 0
6, 171480, Note_on_c, 0, 83, 44
6, 171599, Note_on_c, 0, 83, 0
6, 171600, Note_on_c, 0, 84, 44
6, 171719, Note_on_c, 0, 84, 0
6, 171720, Note_on_c, 0, 83, 44
6, 171839, Note_on_c, 0, 83, 0
6, 171840, Note_on_c, 0, 84, 44
6, 171959, Note_on_c, 0, 84, 0
6, 171960, Note_on_c, 0, 86, 44
6, 172079, Note_on_c, 0, 86, 0
6, 172080, Note_on_c, 0, 88, 44
6, 172199, Note_on_c, 0, 88, 0
6, 172200, Note_on_c, 0, 89, 44
6, 172299, Note_on_c, 0, 89, 0
6, 172320, Note_on_c, 0, 91, 44
6, 172799, Note_on_c, 0, 91, 0
6, 172800, Note_on_c, 0, 89, 44
6, 173039, Note_on_c, 0, 89, 0
6, 173040, Note_on_c, 0, 88, 44
6, 173279, Note_on_c, 0, 88, 0
6, 173280, Note_on_c, 0, 84, 44
6, 173519, Note_on_c, 0, 84, 0
6, 173520, Note_on_c, 0, 88, 44
6, 173739, Note_on_c, 0, 88, 0
6, 173760, Note_on_c, 0, 91, 44
6, 174239, Note_on_c, 0, 91, 0
6, 174240, Note_on_c, 0, 89, 44
6, 174479, Note_on_c, 0, 89, 0
6, 174480, Note_on_c, 0, 88, 44
6, 174719, Note_on_c, 0, 88, 0
6, 174720, Note_on_c, 0, 84, 44
6, 174959, Note_on_c, 0, 84, 0
6, 174960, Note_on_c, 0, 88, 44
6, 175179, Note_on_c, 0, 88, 0
6, 175200, Note_on_c, 0, 91, 44
6, 175679, Note_on_c, 0, 91, 0
6, 175680, Note_on_c, 0, 89, 44
6, 175919, Note_on_c, 0, 89, 0
6, 175920, Note_on_c, 0, 86, 44
6, 176159, Note_on_c, 0, 86, 0
6, 176160, Note_on_c, 0, 83, 44
6, 176399, Note_on_c, 0, 83, 0
6, 176400, Note_on_c, 0, 79, 44
6, 176639, Note_on_c, 0, 79, 0
6, 176640, Note_on_c, 0, 77, 44
6, 176879, Note_on_c, 0, 77, 0
6, 280080, Control_c, 0, 11, 64
6, 280320, Note_on_c, 0, 86, 84
6, 280320, Note_on_c, 0, 83, 84
6, 280320, Control_c, 0, 11, 64
6, 280400, Control_c, 0, 11, 66
6, 280480, Control_c, 0, 11, 68
6, 280560, Control_c, 0, 11, 69
6, 280640, Control_c, 0, 11, 71
6, 280720, Control_c, 0, 11, 73
6, 280800, Control_c, 0, 11, 75
6, 280880, Control_c, 0, 11, 76
6, 280960, Control_c, 0, 11, 78
6, 281040, Control_c, 0, 11, 80
6, 281120, Control_c, 0, 11, 82
6, 281200, Control_c, 0, 11, 83
6, 281280, Control_c, 0, 11, 85
6, 281360, Control_c, 0, 11, 87
6, 281440, Control_c, 0, 11, 89
6, 281520, Control_c, 0, 11, 90
6, 281600, Control_c, 0, 11, 92
6, 281680, Control_c, 0, 11, 94
6, 281760, Control_c, 0, 11, 96
6, 281840, Control_c, 0, 11, 97
6, 281920, Control_c, 0, 11, 99
6, 282000, Control_c, 0, 11, 101
6, 282080, Control_c, 0, 11, 103
6, 282160, Control_c, 0, 11, 104
6, 282240, Control_c, 0, 11, 106
6, 282320, Control_c, 0, 11, 108
6, 282400, Control_c, 0, 11, 110
6, 282480, Control_c, 0, 11, 111
6, 282560, Control_c, 0, 11, 113
6, 282640, Control_c, 0, 11, 115
6, 282720, Control_c, 0, 11, 117
6, 282800, Control_c, 0, 11, 118
6, 282880, Control_c, 0, 11, 120
6, 282960, Control_c, 0, 11, 122
6, 283040, Control_c, 0, 11, 124
6, 283120, Control_c, 0, 11, 127
6, 283199, Note_on_c, 0, 86, 0
6, 283199, Note_on_c, 0, 83, 0
6, 283199, End_track
7, 0, Start_track
7, 0, Title_t, "Oboe"
7, 0, MIDI_port, 0
7, 0, Program_c, 1, 68
7, 0, Control_c, 1, 7, 80
7, 0, Control_c, 1, 10, 70
7, 0, Control_c, 1, 11, 127
7, 18960, Note_on_c, 1, 82, 76
7, 18960, Note_on_c, 1, 70, 76
7, 19179, Note_on_c, 1, 82, 0
7, 19179, Note_on_c, 1, 70, 0
7, 19200, Note_on_c, 1, 82, 76
7, 19200, Note_on_c, 1, 70, 76
7, 19419, Note_on_c, 1, 82, 0
7, 19419, Note_on_c, 1, 70, 0
7, 19440, Note_on_c, 1, 70, 76
7, 19440, Note_on_c, 1, 82, 76
7, 19659, Note_on_c, 1, 70, 0
7, 19659, Note_on_c, 1, 82, 0
7, 19680, Note_on_c, 1, 82, 76
7, 19680, Note_on_c, 1, 70, 76
7, 20379, Note_on_c, 1, 82, 0
7, 20379, Note_on_c, 1, 70, 0
7, 20400, Note_on_c, 1, 82, 76
7, 20400, Note_on_c, 1, 70, 76
7, 20619, Note_on_c, 1, 82, 0
7, 20619, Note_on_c, 1, 70, 0
7, 20640, Note_on_c, 1, 70, 76
7, 20640, Note_on_c, 1, 82, 76
7, 20859, Note_on_c, 1, 70, 0
7, 20859, Note_on_c, 1, 82, 0
7, 20880, Note_on_c, 1, 70, 76
7, 20880, Note_on_c, 1, 82, 76
7, 21099, Note_on_c, 1, 70, 0
7, 21099, Note_on_c, 1, 82, 0
7, 21120, Note_on_c, 1, 70, 76
7, 21120, Note_on_c, 1, 82, 76
7, 21819, Note_on_c, 1, 70, 0
7, 21819, Note_on_c, 1, 82, 0
7, 21840, Note_on_c, 1, 70, 76
7, 21840, Note_on_c, 1, 82, 76
7, 22059, Note_on_c, 1, 70, 0
7, 22059, Note_on_c, 1, 82, 0
7, 22080, Note_on_c, 1, 70, 76
7, 22080, Note_on_c, 1, 82, 76
7, 22299, Note_on_c, 1, 70, 0
7, 22299, Note_on_c, 1, 82, 0
7, 22320, Note_on_c, 1, 70, 76
7, 22320, Note_on_c, 1, 82, 76
7, 22539, Note_on_c, 1, 70, 0
7, 22539, Note_on_c, 1, 82, 0
7, 22560, Note_on_c, 1, 82, 76
7, 22560, Note_on_c, 1, 78, 76
7, 23259, Note_on_c, 1, 82, 0
7, 23259, Note_on_c, 1, 78, 0
7, 23280, Note_on_c, 1, 85, 76
7, 23280, Note_on_c, 1, 82, 76
7, 23519, Note_on_c, 1, 85, 0
7, 23519, Note_on_c, 1, 82, 0
7, 23520, Note_on_c, 1, 80, 76
7, 23520, Note_on_c, 1, 83, 76
7, 23739, Note_on_c, 1, 80, 0
7, 23739, Note_on_c, 1, 83, 0
7, 23760, Note_on_c, 1, 82, 76
7, 23760, Note_on_c, 1, 78, 76
7, 23939, Note_on_c, 1, 82, 0
7, 23939, Note_on_c, 1, 78, 0
7, 24000, Note_on_c, 1, 77, 76
7, 24000, Note_on_c, 1, 80, 76
7, 24699, Note_on_c, 1, 77, 0
7, 24699, Note_on_c, 1, 80, 0
7, 24720, Note_on_c, 1, 78, 76
7, 24720, Note_on_c, 1, 82, 76
7, 25419, Note_on_c, 1, 78, 0
7, 25419, Note_on_c, 1, 82, 0
7, 25440, Note_on_c, 1, 75, 76
7, 25440, Note_on_c, 1, 78, 76
7, 26139, Note_on_c, 1, 75, 0
7, 26139, Note_on_c, 1, 78, 0
7, 26160, Note_on_c, 1, 82, 76
7, 26160, Note_on_c, 1, 78, 76
7, 26399, Note_on_c, 1, 82, 0
7, 26399, Note_on_c, 1, 78, 0
7, 26400, Note_on_c, 1, 77, 76
7, 26400, Note_on_c, 1, 80, 76
7, 26619, Note_on_c, 1, 77, 0
7, 26619, Note_on_c, 1, 80, 0
7, 26640, Note_on_c, 1, 78, 76
7, 26640, Note_on_c, 1, 75, 76
7, 26819, Note_on_c, 1, 78, 0
7, 26819, Note_on_c, 1, 75, 0
7, 26880, Note_on_c, 1, 74, 84
7, 26880, Note_on_c, 1, 77, 84
7, 27000, Control_c, 1, 11, 112
7, 28079, Note_on_c, 1, 74, 0
7, 28079, Note_on_c, 1, 77, 0
7, 28080, Note_on_c, 1, 75, 84
7, 28080, Note_on_c, 1, 78, 84
7, 28299, Note_on_c, 1, 75, 0
7, 28299, Note_on_c, 1, 78, 0
7, 28318, Control_c, 1, 11, 127
7, 28320, Note_on_c, 1, 74, 84
7, 28320, Note_on_c, 1, 77, 84
7, 28440, Control_c, 1, 11, 112
7, 29519, Note_on_c, 1, 74, 0
7, 29519, Note_on_c, 1, 77, 0
7, 29520, Note_on_c, 1, 75, 84
7, 29520, Note_on_c, 1, 78, 84
7, 29739, Note_on_c, 1, 75, 0
7, 29739, Note_on_c, 1, 78, 0
7, 29758, Control_c, 1, 11, 127
7, 29760, Note_on_c, 1, 77, 84
7, 29760, Note_on_c, 1, 74, 84
7, 29880, Control_c, 1, 11, 112
7, 30239, Note_on_c, 1, 77, 0
7, 30239, Note_on_c, 1, 74, 0
7, 30240, Note_on_c, 1, 75, 84
7, 30240, Note_on_c, 1, 78, 84
7, 30459, Note_on_c, 1, 75, 0
7, 30459, Note_on_c, 1, 78, 0
7, 30478, Control_c, 1, 11, 127
7, 30480, Note_on_c, 1, 77, 84
7, 30480, Note_on_c, 1, 74, 84
7, 30600, Control_c, 1, 11, 112
7, 30959, Note_on_c, 1, 77, 0
7, 30959, Note_on_c, 1, 74, 0
7, 30960, Note_on_c, 1, 75, 84
7, 30960, Note_on_c, 1, 78, 84
7, 31179, Note_on_c, 1, 75, 0
7, 31179, Note_on_c, 1, 78, 0
7, 31198, Control_c, 1, 11, 127
7, 31200, Note_on_c, 1, 77, 76
7, 31200, Control_c, 1, 11, 127
7, 31200, Note_on_c, 1, 74, 76
7, 31260, Control_c, 1, 11, 122
7, 31320, Control_c, 1, 11, 117
7, 31380, Control_c, 1, 11, 111
7, 31440, Control_c, 1, 11, 106
7, 31500, Control_c, 1, 11, 101
7, 31560, Control_c, 1, 11, 96
7, 31620, Control_c, 1, 11, 90
7, 31680, Control_c, 1, 11, 85
7, 31740, Control_c, 1, 11, 80
7, 31800, Control_c, 1, 11, 75
7, 31860, Control_c, 1, 11, 69
7, 31920, Control_c, 1, 11, 64
7, 32159, Note_on_c, 1, 77, 0
7, 32159, Note_on_c, 1, 74, 0
7, 35520, Control_c, 1, 11, 127
7, 36240, Note_on_c, 1, 84, 52
7, 36679, Note_on_c, 1, 84, 0
7, 36720, Note_on_c, 1, 82, 52
7, 36919, Note_on_c, 1, 82, 0
7, 36960, Note_on_c, 1, 81, 52
7, 37439, Note_on_c, 1, 81, 0
7, 42720, Note_on_c, 1, 79, 44
7, 45599, Note_on_c, 1, 79, 0
7, 45600, Note_on_c, 1, 79, 44
7, 47739, Note_on_c, 1, 79, 0
7, 47760, Note_on_c, 1, 79, 44
7, 47999, Note_on_c, 1, 79, 0
7, 48480, Note_on_c, 1, 79, 52
7, 48719, Note_on_c, 1, 79, 0
7, 49200, Note_on_c, 1, 79, 60
7, 49439, Note_on_c, 1, 79, 0
7, 49920, Note_on_c, 1, 79, 68
7, 50159, Note_on_c, 1, 79, 0
7, 50640, Note_on_c, 1, 74, 76
7, 51339, Note_on_c, 1, 74, 0
7, 51360, Note_on_c, 1, 75, 76
7, 52059, Note_on_c, 1, 75, 0
7, 52080, Note_on_c, 1, 74, 76
7, 52779, Note_on_c, 1, 74, 0
7, 52800, Note_on_c, 1, 72, 76
7, 53499, Note_on_c, 1, 72, 0
7, 53520, Note_on_c, 1, 74, 76
7, 54219, Note_on_c, 1, 74, 0
7, 54240, Note_on_c, 1, 75, 76
7, 54939, Note_on_c, 1, 75, 0
7, 54960, Note_on_c, 1, 77, 76
7, 55659, Note_on_c, 1, 77, 0
7, 55680, Note_on_c, 1, 70, 76
7, 55919, Note_on_c, 1, 70, 0
7, 56400, Note_on_c, 1, 84, 84
7, 56400, Note_on_c, 1, 72, 84
7, 56619, Note_on_c, 1, 84, 0
7, 56619, Note_on_c, 1, 72, 0
7, 56640, Note_on_c, 1, 84, 84
7, 56640, Note_on_c, 1, 72, 84
7, 56859, Note_on_c, 1, 84, 0
7, 56859, Note_on_c, 1, 72, 0
7, 56880, Note_on_c, 1, 72, 84
7, 56880, Note_on_c, 1, 84, 84
7, 57099, Note_on_c, 1, 72, 0
7, 57099, Note_on_c, 1, 84, 0
7, 57120, Note_on_c, 1, 84, 84
7, 57120, Note_on_c, 1, 72, 84
7, 57819, Note_on_c, 1, 84, 0
7, 57819, Note_on_c, 1, 72, 0
7, 57840, Note_on_c, 1, 84, 84
7, 57840, Note_on_c, 1, 72, 84
7, 58059, Note_on_c, 1, 84, 0
7, 58059, Note_on_c, 1, 72, 0
7, 58080, Note_on_c, 1, 84, 84
7, 58080, Note_on_c, 1, 72, 84
7, 58299, Note_on_c, 1, 84, 0
7, 58299, Note_on_c, 1, 72, 0
7, 58320, Note_on_c, 1, 72, 84
7, 58320, Note_on_c, 1, 84, 84
7, 58539, Note_on_c, 1, 72, 0
7, 58539, Note_on_c, 1, 84, 0
7, 58560, Note_on_c, 1, 84, 84
7, 58560, Note_on_c, 1, 72, 84
7, 59259, Note_on_c, 1, 84, 0
7, 59259, Note_on_c, 1, 72, 0
7, 59280, Note_on_c, 1, 72, 84
7, 59280, Note_on_c, 1, 84, 84
7, 59499, Note_on_c, 1, 72, 0
7, 59499, Note_on_c, 1, 84, 0
7, 59520, Note_on_c, 1, 84, 84
7, 59520, Note_on_c, 1, 72, 84
7, 59739, Note_on_c, 1, 84, 0
7, 59739, Note_on_c, 1, 72, 0
7, 59760, Note_on_c, 1, 84, 84
7, 59760, Note_on_c, 1, 72, 84
7, 59979, Note_on_c, 1, 84, 0
7, 59979, Note_on_c, 1, 72, 0
7, 60000, Note_on_c, 1, 84, 84
7, 60000, Note_on_c, 1, 72, 84
7, 60699, Note_on_c, 1, 84, 0
7, 60699, Note_on_c, 1, 72, 0
7, 60720, Note_on_c, 1, 75, 84
7, 60720, Note_on_c, 1, 84, 84
7, 60959, Note_on_c, 1, 75, 0
7, 60959, Note_on_c, 1, 84, 0
7, 60960, Note_on_c, 1, 73, 84
7, 60960, Note_on_c, 1, 82, 84
7, 61179, Note_on_c, 1, 73, 0
7, 61179, Note_on_c, 1, 82, 0
7, 61200, Note_on_c, 1, 80, 84
7, 61200, Note_on_c, 1, 72, 84
7, 61379, Note_on_c, 1, 80, 0
7, 61379, Note_on_c, 1, 72, 0
7, 61440, Note_on_c, 1, 70, 84
7, 61440, Note_on_c, 1, 79, 84
7, 62139, Note_on_c, 1, 70, 0
7, 62139, Note_on_c, 1, 79, 0
7, 62160, Note_on_c, 1, 80, 84
7, 62160, Note_on_c, 1, 72, 84
7, 62859, Note_on_c, 1, 80, 0
7, 62859, Note_on_c, 1, 72, 0
7, 62880, Note_on_c, 1, 77, 84
7, 62880, Note_on_c, 1, 68, 84
7, 63579, Note_on_c, 1, 77, 0
7, 63579, Note_on_c, 1, 68, 0
7, 63600, Note_on_c, 1, 72, 84
7, 63600, Note_on_c, 1, 80, 84
7, 63839, Note_on_c, 1, 72, 0
7, 63839, Note_on_c, 1, 80, 0
7, 63840, Note_on_c, 1, 70, 84
7, 63840, Note_on_c, 1, 79, 84
7, 64059, Note_on_c, 1, 70, 0
7, 64059, Note_on_c, 1, 79, 0
7, 64080, Note_on_c, 1, 77, 84
7, 64080, Note_on_c, 1, 68, 84
7, 64259, Note_on_c, 1, 77, 0
7, 64259, Note_on_c, 1, 68, 0
7, 64320, Note_on_c, 1, 76, 84
7, 64320, Note_on_c, 1, 67, 84
7, 64779, Note_on_c, 1, 76, 0
7, 64779, Note_on_c, 1, 67, 0
7, 64800, Note_on_c, 1, 73, 92
7, 64920, Control_c, 1, 11, 112
7, 65039, Note_on_c, 1, 73, 0
7, 65040, Note_on_c, 1, 72, 92
7, 66219, Note_on_c, 1, 72, 0
7, 66238, Control_c, 1, 11, 127
7, 66240, Note_on_c, 1, 73, 92
7, 66360, Control_c, 1, 11, 112
7, 66479, Note_on_c, 1, 73, 0
7, 66480, Note_on_c, 1, 72, 92
7, 67179, Note_on_c, 1, 72, 0
7, 67198, Control_c, 1, 11, 127
7, 67200, Note_on_c, 1, 72, 92
7, 67320, Control_c, 1, 11, 112
7, 67899, Note_on_c, 1, 72, 0
7, 67918, Control_c, 1, 11, 127
7, 67920, Note_on_c, 1, 72, 92
7, 68040, Control_c, 1, 11, 112
7, 68619, Note_on_c, 1, 72, 0
7, 68638, Control_c, 1, 11, 127
7, 68640, Note_on_c, 1, 72, 84
7, 68640, Control_c, 1, 11, 127
7, 68700, Control_c, 1, 11, 122
7, 68760, Control_c, 1, 11, 117
7, 68820, Control_c, 1, 11, 111
7, 68880, Control_c, 1, 11, 106
7, 68940, Control_c, 1, 11, 101
7, 69000, Control_c, 1, 11, 96
7, 69060, Control_c, 1, 11, 90
7, 69120, Control_c, 1, 11, 85
7, 69180, Control_c, 1, 11, 80
7, 69240, Control_c, 1, 11, 75
7, 69300, Control_c, 1, 11, 64
7, 69599, Note_on_c, 1, 72, 0
7, 71520, Control_c, 1, 11, 127
7, 72240, Note_on_c, 1, 67, 52
7, 72719, Note_on_c, 1, 67, 0
7, 72720, Note_on_c, 1, 71, 52
7, 72959, Note_on_c, 1, 71, 0
7, 72960, Note_on_c, 1, 72, 52
7, 73439, Note_on_c, 1, 72, 0
7, 73440, Note_on_c, 1, 74, 52
7, 73679, Note_on_c, 1, 74, 0
7, 73680, Note_on_c, 1, 77, 52
7, 74159, Note_on_c, 1, 77, 0
7, 74160, Note_on_c, 1, 75, 52
7, 74399, Note_on_c, 1, 75, 0
7, 74400, Note_on_c, 1, 74, 52
7, 74639, Note_on_c, 1, 74, 0
7, 75120, Note_on_c, 1, 67, 52
7, 75599, Note_on_c, 1, 67, 0
7, 75600, Note_on_c, 1, 71, 52
7, 75839, Note_on_c, 1, 71, 0
7, 75840, Note_on_c, 1, 72, 52
7, 76319, Note_on_c, 1, 72, 0
7, 76320, Note_on_c, 1, 75, 52
7, 76559, Note_on_c, 1, 75, 0
7, 76560, Note_on_c, 1, 79, 52
7, 77039, Note_on_c, 1, 79, 0
7, 77040, Note_on_c, 1, 77, 52
7, 77279, Note_on_c, 1, 77, 0
7, 77280, Note_on_c, 1, 75, 52
7, 77519, Note_on_c, 1, 75, 0
7, 79440, Note_on_c, 1, 80, 52
7, 79659, Note_on_c, 1, 80, 0
7, 79680, Note_on_c, 1, 80, 52
7, 79899, Note_on_c, 1, 80, 0
7, 79920, Note_on_c, 1, 80, 52
7, 80139, Note_on_c, 1, 80, 0
7, 80160, Note_on_c, 1, 80, 52
7, 80399, Note_on_c, 1, 80, 0
7, 80880, Note_on_c, 1, 80, 52
7, 81099, Note_on_c, 1, 80, 0
7, 81120, Note_on_c, 1, 80, 52
7, 81339, Note_on_c, 1, 80, 0
7, 81360, Note_on_c, 1, 80, 52
7, 81579, Note_on_c, 1, 80, 0
7, 81600, Note_on_c, 1, 80, 52
7, 81839, Note_on_c, 1, 80, 0
7, 82080, Note_on_c, 1, 77, 44
7, 82080, Note_on_c, 1, 74, 44
7, 82319, Note_on_c, 1, 77, 0
7, 82319, Note_on_c, 1, 74, 0
7, 82800, Note_on_c, 1, 74, 52
7, 82800, Note_on_c, 1, 77, 52
7, 83039, Note_on_c, 1, 74, 0
7, 83039, Note_on_c, 1, 77, 0
7, 83520, Note_on_c, 1, 72, 52
7, 83520, Note_on_c, 1, 77, 52
7, 83759, Note_on_c, 1, 72, 0
7, 83759, Note_on_c, 1, 77, 0
7, 84240, Note_on_c, 1, 74, 52
7, 84240, Note_on_c, 1, 77, 52
7, 84479, Note_on_c, 1, 74, 0
7, 84479, Note_on_c, 1, 77, 0
7, 84960, Note_on_c, 1, 72, 52
7, 84960, Note_on_c, 1, 77, 52
7, 85199, Note_on_c, 1, 72, 0
7, 85199, Note_on_c, 1, 77, 0
7, 85680, Note_on_c, 1, 77, 52
7, 85680, Note_on_c, 1, 74, 52
7, 85919, Note_on_c, 1, 77, 0
7, 85919, Note_on_c, 1, 74, 0
7, 86400, Note_on_c, 1, 77, 52
7, 86400, Note_on_c, 1, 72, 52
7, 86639, Note_on_c, 1, 77, 0
7, 86639, Note_on_c, 1, 72, 0
7, 87120, Note_on_c, 1, 77, 52
7, 87120, Note_on_c, 1, 74, 52
7, 87359, Note_on_c, 1, 77, 0
7, 87359, Note_on_c, 1, 74, 0
7, 87840, Note_on_c, 1, 77, 52
7, 87840, Note_on_c, 1, 72, 52
7, 88079, Note_on_c, 1, 77, 0
7, 88079, Note_on_c, 1, 72, 0
7, 88560, Note_on_c, 1, 74, 55
7, 88560, Note_on_c, 1, 77, 55
7, 88799, Note_on_c, 1, 74, 0
7, 88799, Note_on_c, 1, 77, 0
7, 89280, Note_on_c, 1, 72, 58
7, 89280, Note_on_c, 1, 75, 58
7, 89519, Note_on_c, 1, 72, 0
7, 89519, Note_on_c, 1, 75, 0
7, 90000, Note_on_c, 1, 77, 61
7, 90000, Note_on_c, 1, 72, 61
7, 90239, Note_on_c, 1, 77, 0
7, 90239, Note_on_c, 1, 72, 0
7, 90720, Note_on_c, 1, 74, 65
7, 90720, Note_on_c, 1, 71, 65
7, 90959, Note_on_c, 1, 74, 0
7, 90959, Note_on_c, 1, 71, 0
7, 91440, Note_on_c, 1, 75, 68
7, 91440, Note_on_c, 1, 72, 68
7, 91679, Note_on_c, 1, 75, 0
7, 91679, Note_on_c, 1, 72, 0
7, 92160, Note_on_c, 1, 72, 71
7, 92160, Note_on_c, 1, 75, 71
7, 92399, Note_on_c, 1, 72, 0
7, 92399, Note_on_c, 1, 75, 0
7, 92880, Note_on_c, 1, 75, 74
7, 92880, Note_on_c, 1, 72, 74
7, 93119, Note_on_c, 1, 75, 0
7, 93119, Note_on_c, 1, 72, 0
7, 93600, Note_on_c, 1, 75, 76
7, 93600, Note_on_c, 1, 72, 76
7, 93819, Note_on_c, 1, 75, 0
7, 93819, Note_on_c, 1, 72, 0
7, 93840, Note_on_c, 1, 79, 76
7, 93840, Note_on_c, 1, 72, 76
7, 94059, Note_on_c, 1, 79, 0
7, 94059, Note_on_c, 1, 72, 0
7, 94080, Note_on_c, 1, 79, 76
7, 94080, Note_on_c, 1, 72, 76
7, 94299, Note_on_c, 1, 79, 0
7, 94299, Note_on_c, 1, 72, 0
7, 94320, Note_on_c, 1, 71, 76
7, 94320, Note_on_c, 1, 79, 76
7, 94539, Note_on_c, 1, 71, 0
7, 94539, Note_on_c, 1, 79, 0
7, 94560, Note_on_c, 1, 72, 76
7, 94560, Note_on_c, 1, 75, 76
7, 94799, Note_on_c, 1, 72, 0
7, 94799, Note_on_c, 1, 75, 0
7, 95280, Note_on_c, 1, 67, 84
7, 95280, Note_on_c, 1, 79, 84
7, 95499, Note_on_c, 1, 67, 0
7, 95499, Note_on_c, 1, 79, 0
7, 95520, Note_on_c, 1, 67, 84
7, 95520, Note_on_c, 1, 79, 84
7, 95739, Note_on_c, 1, 67, 0
7, 95739, Note_on_c, 1, 79, 0
7, 95760, Note_on_c, 1, 67, 84
7, 95760, Note_on_c, 1, 79, 84
7, 95979, Note_on_c, 1, 67, 0
7, 95979, Note_on_c, 1, 79, 0
7, 96000, Note_on_c, 1, 67, 84
7, 96000, Note_on_c, 1, 79, 84
7, 96699, Note_on_c, 1, 67, 0
7, 96699, Note_on_c, 1, 79, 0
7, 96720, Note_on_c, 1, 67, 84
7, 96720, Note_on_c, 1, 79, 84
7, 96939, Note_on_c, 1, 67, 0
7, 96939, Note_on_c, 1, 79, 0
7, 96960, Note_on_c, 1, 67, 84
7, 96960, Note_on_c, 1, 79, 84
7, 97179, Note_on_c, 1, 67, 0
7, 97179, Note_on_c, 1, 79, 0
7, 97200, Note_on_c, 1, 79, 84
7, 97200, Note_on_c, 1, 67, 84
7, 97419, Note_on_c, 1, 79, 0
7, 97419, Note_on_c, 1, 67, 0
7, 97440, Note_on_c, 1, 67, 84
7, 97440, Note_on_c, 1, 79, 84
7, 98139, Note_on_c, 1, 67, 0
7, 98139, Note_on_c, 1, 79, 0
7, 98160, Note_on_c, 1, 84, 52
7, 98379, Note_on_c, 1, 84, 0
7, 98400, Note_on_c, 1, 84, 52
7, 98619, Note_on_c, 1, 84, 0
7, 98640, Note_on_c, 1, 84, 52
7, 98859, Note_on_c, 1, 84, 0
7, 98880, Note_on_c, 1, 84, 52
7, 99059, Note_on_c, 1, 84, 0
7, 99600, Note_on_c, 1, 79, 52
7, 99779, Note_on_c, 1, 79, 0
7, 100320, Note_on_c, 1, 72, 52
7, 100499, Note_on_c, 1, 72, 0
7, 111840, Note_on_c, 1, 67, 76
7, 111840, Note_on_c, 1, 79, 76
7, 112539, Note_on_c, 1, 67, 0
7, 112539, Note_on_c, 1, 79, 0
7, 112560, Note_on_c, 1, 78, 76
7, 112560, Note_on_c, 1, 74, 76
7, 113019, Note_on_c, 1, 78, 0
7, 113019, Note_on_c, 1, 74, 0
7, 113040, Note_on_c, 1, 76, 76
7, 113040, Note_on_c, 1, 79, 76
7, 113139, Note_on_c, 1, 76, 0
7, 113139, Note_on_c, 1, 79, 0
7, 113160, Note_on_c, 1, 78, 76
7, 113160, Note_on_c, 1, 81, 76
7, 113259, Note_on_c, 1, 78, 0
7, 113259, Note_on_c, 1, 81, 0
7, 113280, Note_on_c, 1, 83, 76
7, 113280, Note_on_c, 1, 79, 76
7, 113519, Note_on_c, 1, 83, 0
7, 113519, Note_on_c, 1, 79, 0
7, 114000, Note_on_c, 1, 79, 76
7, 114000, Note_on_c, 1, 83, 76
7, 114239, Note_on_c, 1, 79, 0
7, 114239, Note_on_c, 1, 83, 0
7, 114720, Note_on_c, 1, 79, 76
7, 114720, Note_on_c, 1, 83, 76
7, 114959, Note_on_c, 1, 79, 0
7, 114959, Note_on_c, 1, 83, 0
7, 126240, Note_on_c, 1, 67, 76
7, 126240, Note_on_c, 1, 79, 76
7, 126939, Note_on_c, 1, 67, 0
7, 126939, Note_on_c, 1, 79, 0
7, 126960, Note_on_c, 1, 74, 76
7, 126960, Note_on_c, 1, 78, 76
7, 127419, Note_on_c, 1, 74, 0
7, 127419, Note_on_c, 1, 78, 0
7, 127440, Note_on_c, 1, 76, 76
7, 127440, Note_on_c, 1, 79, 76
7, 127539, Note_on_c, 1, 76, 0
7, 127539, Note_on_c, 1, 79, 0
7, 127560, Note_on_c, 1, 81, 76
7, 127560, Note_on_c, 1, 78, 76
7, 127659, Note_on_c, 1, 81, 0
7, 127659, Note_on_c, 1, 78, 0
7, 127680, Note_on_c, 1, 79, 76
7, 127680, Note_on_c, 1, 83, 76
7, 127919, Note_on_c, 1, 79, 0
7, 127919, Note_on_c, 1, 83, 0
7, 128400, Note_on_c, 1, 79, 76
7, 128400, Note_on_c, 1, 83, 76
7, 128639, Note_on_c, 1, 79, 0
7, 128639, Note_on_c, 1, 83, 0
7, 129120, Note_on_c, 1, 79, 76
7, 129120, Note_on_c, 1, 83, 76
7, 129359, Note_on_c, 1, 79, 0
7, 129359, Note_on_c, 1, 83, 0
7, 143280, Note_on_c, 1, 82, 76
7, 143280, Note_on_c, 1, 79, 76
7, 143739, Note_on_c, 1, 82, 0
7, 143739, Note_on_c, 1, 79, 0
7, 143760, Note_on_c, 1, 72, 76
7, 143979, Note_on_c, 1, 72, 0
7, 144000, Note_on_c, 1, 82, 76
7, 144000, Note_on_c, 1, 79, 76
7, 144459, Note_on_c, 1, 82, 0
7, 144459, Note_on_c, 1, 79, 0
7, 144480, Note_on_c, 1, 81, 76
7, 144480, Note_on_c, 1, 77, 76
7, 144699, Note_on_c, 1, 81, 0
7, 144699, Note_on_c, 1, 77, 0
7, 144720, Note_on_c, 1, 72, 76
7, 144939, Note_on_c, 1, 72, 0
7, 144960, Note_on_c, 1, 71, 76
7, 145059, Note_on_c, 1, 71, 0
7, 145080, Note_on_c, 1, 72, 76
7, 145179, Note_on_c, 1, 72, 0
7, 145200, Note_on_c, 1, 74, 76
7, 145299, Note_on_c, 1, 74, 0
7, 145320, Note_on_c, 1, 67, 76
7, 145419, Note_on_c, 1, 67, 0
7, 145440, Note_on_c, 1, 69, 76
7, 145539, Note_on_c, 1, 69, 0
7, 145560, Note_on_c, 1, 71, 76
7, 145659, Note_on_c, 1, 71, 0
7, 145680, Note_on_c, 1, 72, 76
7, 145779, Note_on_c, 1, 72, 0
7, 145800, Note_on_c, 1, 71, 76
7, 145899, Note_on_c, 1, 71, 0
7, 145920, Note_on_c, 1, 72, 76
7, 146019, Note_on_c, 1, 72, 0
7, 146040, Note_on_c, 1, 74, 76
7, 146139, Note_on_c, 1, 74, 0
7, 146160, Note_on_c, 1, 76, 76
7, 146160, Note_on_c, 1, 72, 76
7, 146259, Note_on_c, 1, 76, 0
7, 146280, Note_on_c, 1, 77, 76
7, 146379, Note_on_c, 1, 72, 0
7, 146379, Note_on_c, 1, 77, 0
7, 146400, Note_on_c, 1, 79, 84
7, 146400, Note_on_c, 1, 71, 84
7, 146520, Control_c, 1, 11, 112
7, 146859, Note_on_c, 1, 79, 0
7, 146859, Note_on_c, 1, 71, 0
7, 146880, Note_on_c, 1, 77, 84
7, 146880, Note_on_c, 1, 74, 84
7, 147059, Note_on_c, 1, 77, 0
7, 147059, Note_on_c, 1, 74, 0
7, 147120, Note_on_c, 1, 76, 84
7, 147120, Note_on_c, 1, 72, 84
7, 147299, Note_on_c, 1, 76, 0
7, 147299, Note_on_c, 1, 72, 0
7, 147360, Note_on_c, 1, 72, 84
7, 147360, Note_on_c, 1, 67, 84
7, 147539, Note_on_c, 1, 72, 0
7, 147539, Note_on_c, 1, 67, 0
7, 147600, Note_on_c, 1, 76, 84
7, 147600, Note_on_c, 1, 72, 84
7, 147779, Note_on_c, 1, 76, 0
7, 147779, Note_on_c, 1, 72, 0
7, 147838, Control_c, 1, 11, 127
7, 147840, Note_on_c, 1, 79, 84
7, 147840, Note_on_c, 1, 71, 84
7, 147960, Control_c, 1, 11, 112
7, 148299, Note_on_c, 1, 79, 0
7, 148299, Note_on_c, 1, 71, 0
7, 148320, Note_on_c, 1, 77, 84
7, 148320, Note_on_c, 1, 74, 84
7, 148499, Note_on_c, 1, 77, 0
7, 148499, Note_on_c, 1, 74, 0
7, 148560, Note_on_c, 1, 76, 84
7, 148560, Note_on_c, 1, 72, 84
7, 148739, Note_on_c, 1, 76, 0
7, 148739, Note_on_c, 1, 72, 0
7, 148800, Note_on_c, 1, 72, 84
7, 148800, Note_on_c, 1, 67, 84
7, 148979, Note_on_c, 1, 72, 0
7, 148979, Note_on_c, 1, 67, 0
7, 149040, Note_on_c, 1, 76, 84
7, 149040, Note_on_c, 1, 72, 84
7, 149219, Note_on_c, 1, 76, 0
7, 149219, Note_on_c, 1, 72, 0
7, 149278, Control_c, 1, 11, 127
7, 149280, Note_on_c, 1, 79, 84
7, 149280, Note_on_c, 1, 71, 84
7, 149400, Control_c, 1, 11, 112
7, 149739, Note_on_c, 1, 79, 0
7, 149739, Note_on_c, 1, 71, 0
7, 149760, Note_on_c, 1, 77, 84
7, 149760, Note_on_c, 1, 74, 84
7, 149939, Note_on_c, 1, 77, 0
7, 149939, Note_on_c, 1, 74, 0
7, 149998, Control_c, 1, 11, 127
7, 150000, Note_on_c, 1, 76, 76
7, 150000, Note_on_c, 1, 72, 76
7, 150179, Note_on_c, 1, 76, 0
7, 150179, Note_on_c, 1, 72, 0
7, 150240, Note_on_c, 1, 72, 76
7, 150240, Note_on_c, 1, 69, 76
7, 150419, Note_on_c, 1, 72, 0
7, 150419, Note_on_c, 1, 69, 0
7, 150480, Note_on_c, 1, 77, 76
7, 150480, Note_on_c, 1, 69, 76
7, 150659, Note_on_c, 1, 77, 0
7, 150659, Note_on_c, 1, 69, 0
7, 150720, Note_on_c, 1, 74, 76
7, 150720, Note_on_c, 1, 71, 76
7, 150939, Note_on_c, 1, 74, 0
7, 150939, Note_on_c, 1, 71, 0
7, 150960, Note_on_c, 1, 71, 76
7, 150960, Note_on_c, 1, 67, 76
7, 151179, Note_on_c, 1, 71, 0
7, 151179, Note_on_c, 1, 67, 0
7, 151200, Note_on_c, 1, 76, 76
7, 151200, Note_on_c, 1, 67, 76
7, 151419, Note_on_c, 1, 76, 0
7, 151419, Note_on_c, 1, 67, 0
7, 151440, Note_on_c, 1, 72, 76
7, 151440, Note_on_c, 1, 69, 76
7, 151659, Note_on_c, 1, 72, 0
7, 151659, Note_on_c, 1, 69, 0
7, 151680, Note_on_c, 1, 81, 76
7, 151680, Note_on_c, 1, 77, 76
7, 151899, Note_on_c, 1, 81, 0
7, 151899, Note_on_c, 1, 77, 0
7, 151920, Note_on_c, 1, 86, 76
7, 151920, Note_on_c, 1, 77, 76
7, 152139, Note_on_c, 1, 86, 0
7, 152139, Note_on_c, 1, 77, 0
7, 152160, Note_on_c, 1, 83, 76
7, 152160, Note_on_c, 1, 74, 76
7, 152379, Note_on_c, 1, 83, 0
7, 152379, Note_on_c, 1, 74, 0
7, 152400, Note_on_c, 1, 79, 76
7, 152400, Note_on_c, 1, 71, 76
7, 152619, Note_on_c, 1, 79, 0
7, 152619, Note_on_c, 1, 71, 0
7, 152640, Note_on_c, 1, 86, 76
7, 152640, Note_on_c, 1, 77, 76
7, 152859, Note_on_c, 1, 86, 0
7, 152859, Note_on_c, 1, 77, 0
7, 152880, Note_on_c, 1, 83, 76
7, 152880, Note_on_c, 1, 74, 76
7, 153099, Note_on_c, 1, 83, 0
7, 153099, Note_on_c, 1, 74, 0
7, 153120, Note_on_c, 1, 79, 76
7, 153120, Note_on_c, 1, 71, 76
7, 153339, Note_on_c, 1, 79, 0
7, 153339, Note_on_c, 1, 71, 0
7, 153360, Note_on_c, 1, 83, 76
7, 153360, Note_on_c, 1, 74, 76
7, 153579, Note_on_c, 1, 83, 0
7, 153579, Note_on_c, 1, 74, 0
7, 153600, Note_on_c, 1, 84, 76
7, 153600, Note_on_c, 1, 76, 76
7, 153839, Note_on_c, 1, 84, 0
7, 153839, Note_on_c, 1, 76, 0
7, 154320, Note_on_c, 1, 84, 76
7, 154320, Note_on_c, 1, 76, 76
7, 154559, Note_on_c, 1, 84, 0
7, 154559, Note_on_c, 1, 76, 0
7, 155040, Note_on_c, 1, 84, 76
7, 155040, Note_on_c, 1, 76, 76
7, 155279, Note_on_c, 1, 84, 0
7, 155279, Note_on_c, 1, 76, 0
7, 167760, Note_on_c, 1, 72, 44
7, 167979, Note_on_c, 1, 72, 0
7, 168000, Note_on_c, 1, 71, 44
7, 168699, Note_on_c, 1, 71, 0
7, 168720, Note_on_c, 1, 72, 44
7, 169419, Note_on_c, 1, 72, 0
7, 169440, Note_on_c, 1, 76, 44
7, 169440, Note_on_c, 1, 70, 44
7, 170139, Note_on_c, 1, 76, 0
7, 170139, Note_on_c, 1, 70, 0
7, 170160, Note_on_c, 1, 77, 44
7, 170160, Note_on_c, 1, 69, 44
7, 170619, Note_on_c, 1, 77, 0
7, 170619, Note_on_c, 1, 69, 0
7, 170640, Note_on_c, 1, 81, 44
7, 170640, Note_on_c, 1, 77, 44
7, 170859, Note_on_c, 1, 81, 0
7, 170859, Note_on_c, 1, 77, 0
7, 170880, Note_on_c, 1, 77, 44
7, 170880, Note_on_c, 1, 74, 44
7, 171599, Note_on_c, 1, 77, 0
7, 171599, Note_on_c, 1, 74, 0
7, 171600, Note_on_c, 1, 76, 44
7, 171600, Note_on_c, 1, 72, 44
7, 172319, Note_on_c, 1, 76, 0
7, 172319, Note_on_c, 1, 72, 0
7, 172320, Note_on_c, 1, 74, 44
7, 172320, Note_on_c, 1, 71, 44
7, 173039, Note_on_c, 1, 74, 0
7, 173039, Note_on_c, 1, 71, 0
7, 173040, Note_on_c, 1, 76, 44
7, 173040, Note_on_c, 1, 72, 44
7, 173759, Note_on_c, 1, 76, 0
7, 173759, Note_on_c, 1, 72, 0
7, 173760, Note_on_c, 1, 71, 44
7, 173760, Note_on_c, 1, 74, 44
7, 174479, Note_on_c, 1, 71, 0
7, 174479, Note_on_c, 1, 74, 0
7, 174480, Note_on_c, 1, 76, 44
7, 174480, Note_on_c, 1, 72, 44
7, 175199, Note_on_c, 1, 76, 0
7, 175199, Note_on_c, 1, 72, 0
7, 175200, Note_on_c, 1, 74, 44
7, 175200, Note_on_c, 1, 71, 44
7, 175439, Note_on_c, 1, 74, 0
7, 175439, Note_on_c, 1, 71, 0
7, 176400, Note_on_c, 1, 79, 44
7, 176639, Note_on_c, 1, 79, 0
7, 176640, Note_on_c, 1, 77, 44
7, 176879, Note_on_c, 1, 77, 0
7, 176880, Note_on_c, 1, 74, 44
7, 177119, Note_on_c, 1, 74, 0
7, 177120, Note_on_c, 1, 71, 44
7, 177359, Note_on_c, 1, 71, 0
7, 177360, Note_on_c, 1, 67, 44
7, 177599, Note_on_c, 1, 67, 0
7, 203280, Note_on_c, 1, 84, 44
7, 203499, Note_on_c, 1, 84, 0
7, 203520, Note_on_c, 1, 84, 44
7, 203739, Note_on_c, 1, 84, 0
7, 203760, Note_on_c, 1, 84, 44
7, 203979, Note_on_c, 1, 84, 0
7, 204000, Note_on_c, 1, 84, 44
7, 204239, Note_on_c, 1, 84, 0
7, 204720, Note_on_c, 1, 84, 44
7, 204939, Note_on_c, 1, 84, 0
7, 204960, Note_on_c, 1, 84, 44
7, 205179, Note_on_c, 1, 84, 0
7, 205200, Note_on_c, 1, 84, 44
7, 205419, Note_on_c, 1, 84, 0
7, 205440, Note_on_c, 1, 84, 44
7, 205679, Note_on_c, 1, 84, 0
7, 220560, Note_on_c, 1, 79, 52
7, 220779, Note_on_c, 1, 79, 0
7, 220800, Note_on_c, 1, 79, 52
7, 221019, Note_on_c, 1, 79, 0
7, 221040, Note_on_c, 1, 79, 52
7, 221259, Note_on_c, 1, 79, 0
7, 221280, Note_on_c, 1, 79, 52
7, 221519, Note_on_c, 1, 79, 0
7, 223440, Note_on_c, 1, 79, 52
7, 223659, Note_on_c, 1, 79, 0
7, 223680, Note_on_c, 1, 79, 52
7, 223899, Note_on_c, 1, 79, 0
7, 223920, Note_on_c, 1, 79, 52
7, 224139, Note_on_c, 1, 79, 0
7, 224160, Note_on_c, 1, 79, 52
7, 224399, Note_on_c, 1, 79, 0
7, 277440, Control_c, 1, 11, 48
7, 278160, Note_on_c, 1, 77, 84
7, 278160, Note_on_c, 1, 69, 84
7, 278160, Control_c, 1, 11, 48
7, 278265, Control_c, 1, 11, 50
7, 278370, Control_c, 1, 11, 51
7, 278475, Control_c, 1, 11, 53
7, 278580, Control_c, 1, 11, 55
7, 278685, Control_c, 1, 11, 56
7, 278790, Control_c, 1, 11, 58
7, 278895, Control_c, 1, 11, 60
7, 279000, Control_c, 1, 11, 61
7, 279105, Control_c, 1, 11, 63
7, 279210, Control_c, 1, 11, 64
7, 279315, Control_c, 1, 11, 66
7, 279420, Control_c, 1, 11, 68
7, 279525, Control_c, 1, 11, 69
7, 279630, Control_c, 1, 11, 71
7, 279735, Control_c, 1, 11, 73
7, 279840, Control_c, 1, 11, 74
7, 279945, Control_c, 1, 11, 76
7, 280050, Control_c, 1, 11, 78
7, 280155, Control_c, 1, 11, 79
7, 280260, Control_c, 1, 11, 81
7, 280299, Note_on_c, 1, 77, 0
7, 280299, Note_on_c, 1, 69, 0
7, 280320, Note_on_c, 1, 77, 84
7, 280320, Note_on_c, 1, 71, 84
7, 280365, Control_c, 1, 11, 83
7, 280470, Control_c, 1, 11, 84
7, 280575, Control_c, 1, 11, 86
7, 280680, Control_c, 1, 11, 88
7, 280785, Control_c, 1, 11, 89
7, 280890, Control_c, 1, 11, 91
7, 280995, Control_c, 1, 11, 92
7, 281100, Control_c, 1, 11, 94
7, 281205, Control_c, 1, 11, 96
7, 281310, Control_c, 1, 11, 97
7, 281415, Control_c, 1, 11, 99
7, 281520, Control_c, 1, 11, 101
7, 281625, Control_c, 1, 11, 102
7, 281730, Control_c, 1, 11, 104
7, 281835, Control_c, 1, 11, 106
7, 281940, Control_c, 1, 11, 107
7, 282045, Control_c, 1, 11, 109
7, 282150, Control_c, 1, 11, 111
7, 282255, Control_c, 1, 11, 112
7, 282360, Control_c, 1, 11, 114
7, 282465, Control_c, 1, 11, 115
7, 282570, Control_c, 1, 11, 117
7, 282675, Control_c, 1, 11, 119
7, 282780, Control_c, 1, 11, 120
7, 282885, Control_c, 1, 11, 122
7, 282990, Control_c, 1, 11, 124
7, 283095, Control_c, 1, 11, 127
7, 283199, Note_on_c, 1, 77, 0
7, 283199, Note_on_c, 1, 71, 0
7, 283199, End_track
8, 0, Start_track
8, 0, Title_t, "Clarinet in B-flat"
8, 0, MIDI_port, 0
8, 0, Program_c, 2, 71
8, 0, Control_c, 2, 7, 88
8, 0, Control_c, 2, 10, 75
8, 0, Control_c, 2, 11, 127
8, 4560, Note_on_c, 2, 77, 52
8, 4560, Note_on_c, 2, 74, 52
8, 4999, Note_on_c, 2, 77, 0
8, 4999, Note_on_c, 2, 74, 0
8, 5040, Note_on_c, 2, 72, 52
8, 5040, Note_on_c, 2, 75, 52
8, 5239, Note_on_c, 2, 72, 0
8, 5239, Note_on_c, 2, 75, 0
8, 5280, Note_on_c, 2, 71, 52
8, 5280, Note_on_c, 2, 74, 52
8, 5759, Note_on_c, 2, 71, 0
8, 5759, Note_on_c, 2, 74, 0
8, 11040, Note_on_c, 2, 72, 52
8, 11519, Note_on_c, 2, 72, 0
8, 11520, Note_on_c, 2, 74, 52
8, 11739, Note_on_c, 2, 74, 0
8, 11760, Note_on_c, 2, 74, 52
8, 11760, Note_on_c, 2, 77, 52
8, 12199, Note_on_c, 2, 74, 0
8, 12199, Note_on_c, 2, 77, 0
8, 12240, Note_on_c, 2, 75, 52
8, 12240, Note_on_c, 2, 72, 52
8, 12439, Note_on_c, 2, 75, 0
8, 12439, Note_on_c, 2, 72, 0
8, 12480, Note_on_c, 2, 74, 52
8, 12480, Note_on_c, 2, 71, 52
8, 13199, Note_on_c, 2, 74, 0
8, 13199, Note_on_c, 2, 71, 0
8, 18960, Note_on_c, 2, 70, 76
8, 18960, Note_on_c, 2, 58, 76
8, 19179, Note_on_c, 2, 70, 0
8, 19179, Note_on_c, 2, 58, 0
8, 19200, Note_on_c, 2, 70, 76
8, 19200, Note_on_c, 2, 58, 76
8, 19419, Note_on_c, 2, 70, 0
8, 19419, Note_on_c, 2, 58, 0
8, 19440, Note_on_c, 2, 70, 76
8, 19440, Note_on_c, 2, 58, 76
8, 19659, Note_on_c, 2, 70, 0
8, 19659, Note_on_c, 2, 58, 0
8, 19680, Note_on_c, 2, 58, 76
8, 19680, Note_on_c, 2, 70, 76
8, 20379, Note_on_c, 2, 58, 0
8, 20379, Note_on_c, 2, 70, 0
8, 20400, Note_on_c, 2, 70, 76
8, 20400, Note_on_c, 2, 58, 76
8, 20619, Note_on_c, 2, 70, 0
8, 20619, Note_on_c, 2, 58, 0
8, 20640, Note_on_c, 2, 70, 76
8, 20640, Note_on_c, 2, 58, 76
8, 20859, Note_on_c, 2, 70, 0
8, 20859, Note_on_c, 2, 58, 0
8, 20880, Note_on_c, 2, 58, 76
8, 20880, Note_on_c, 2, 70, 76
8, 21099, Note_on_c, 2, 58, 0
8, 21099, Note_on_c, 2, 70, 0
8, 21120, Note_on_c, 2, 70, 76
8, 21120, Note_on_c, 2, 58, 76
8, 21819, Note_on_c, 2, 70, 0
8, 21819, Note_on_c, 2, 58, 0
8, 21840, Note_on_c, 2, 70, 76
8, 21840, Note_on_c, 2, 58, 76
8, 22059, Note_on_c, 2, 70, 0
8, 22059, Note_on_c, 2, 58, 0
8, 22080, Note_on_c, 2, 58, 76
8, 22080, Note_on_c, 2, 70, 76
8, 22299, Note_on_c, 2, 58, 0
8, 22299, Note_on_c, 2, 70, 0
8, 22320, Note_on_c, 2, 70, 76
8, 22320, Note_on_c, 2, 58, 76
8, 22539, Note_on_c, 2, 70, 0
8, 22539, Note_on_c, 2, 58, 0
8, 22560, Note_on_c, 2, 70, 76
8, 22560, Note_on_c, 2, 58, 76
8, 23259, Note_on_c, 2, 70, 0
8, 23259, Note_on_c, 2, 58, 0
8, 23280, Note_on_c, 2, 73, 76
8, 23280, Note_on_c, 2, 70, 76
8, 23519, Note_on_c, 2, 73, 0
8, 23519, Note_on_c, 2, 70, 0
8, 23520, Note_on_c, 2, 68, 76
8, 23520, Note_on_c, 2, 71, 76
8, 23739, Note_on_c, 2, 68, 0
8, 23739, Note_on_c, 2, 71, 0
8, 23760, Note_on_c, 2, 70, 76
8, 23760, Note_on_c, 2, 66, 76
8, 23939, Note_on_c, 2, 70, 0
8, 23939, Note_on_c, 2, 66, 0
8, 24000, Note_on_c, 2, 65, 76
8, 24000, Note_on_c, 2, 68, 76
8, 24699, Note_on_c, 2, 65, 0
8, 24699, Note_on_c, 2, 68, 0
8, 24720, Note_on_c, 2, 66, 76
8, 24720, Note_on_c, 2, 70, 76
8, 25419, Note_on_c, 2, 66, 0
8, 25419, Note_on_c, 2, 70, 0
8, 25440, Note_on_c, 2, 63, 76
8, 25440, Note_on_c, 2, 66, 76
8, 26139, Note_on_c, 2, 63, 0
8, 26139, Note_on_c, 2, 66, 0
8, 26160, Note_on_c, 2, 70, 76
8, 26160, Note_on_c, 2, 66, 76
8, 26399, Note_on_c, 2, 70, 0
8, 26399, Note_on_c, 2, 66, 0
8, 26400, Note_on_c, 2, 68, 76
8, 26400, Note_on_c, 2, 65, 76
8, 26619, Note_on_c, 2, 68, 0
8, 26619, Note_on_c, 2, 65, 0
8, 26640, Note_on_c, 2, 63, 76
8, 26640, Note_on_c, 2, 66, 76
8, 26819, Note_on_c, 2, 63, 0
8, 26819, Note_on_c, 2, 66, 0
8, 26880, Note_on_c, 2, 65, 76
8, 26880, Note_on_c, 2, 62, 76
8, 27339, Note_on_c, 2, 65, 0
8, 27339, Note_on_c, 2, 62, 0
8, 27360, Note_on_c, 2, 71, 84
8, 27480, Control_c, 2, 11, 112
8, 27599, Note_on_c, 2, 71, 0
8, 27600, Note_on_c, 2, 70, 84
8, 28779, Note_on_c, 2, 70, 0
8, 28798, Control_c, 2, 11, 127
8, 28800, Note_on_c, 2, 71, 84
8, 28920, Control_c, 2, 11, 112
8, 29039, Note_on_c, 2, 71, 0
8, 29040, Note_on_c, 2, 70, 84
8, 29739, Note_on_c, 2, 70, 0
8, 29758, Control_c, 2, 11, 127
8, 29760, Note_on_c, 2, 70, 84
8, 29760, Note_on_c, 2, 58, 84
8, 29880, Control_c, 2, 11, 112
8, 30459, Note_on_c, 2, 70, 0
8, 30459, Note_on_c, 2, 58, 0
8, 30478, Control_c, 2, 11, 127
8, 30480, Note_on_c, 2, 70, 84
8, 30480, Note_on_c, 2, 58, 84
8, 30600, Control_c, 2, 11, 112
8, 31179, Note_on_c, 2, 70, 0
8, 31179, Note_on_c, 2, 58, 0
8, 31198, Control_c, 2, 11, 127
8, 31200, Note_on_c, 2, 58, 76
8, 31200, Control_c, 2, 11, 127
8, 31200, Note_on_c, 2, 70, 76
8, 31260, Control_c, 2, 11, 122
8, 31320, Control_c, 2, 11, 117
8, 31380, Control_c, 2, 11, 111
8, 31440, Control_c, 2, 11, 106
8, 31500, Control_c, 2, 11, 101
8, 31560, Control_c, 2, 11, 96
8, 31620, Control_c, 2, 11, 90
8, 31680, Control_c, 2, 11, 85
8, 31740, Control_c, 2, 11, 80
8, 31800, Control_c, 2, 11, 75
8, 31860, Control_c, 2, 11, 69
8, 31920, Control_c, 2, 11, 64
8, 32159, Note_on_c, 2, 58, 0
8, 32159, Note_on_c, 2, 70, 0
8, 34800, Control_c, 2, 11, 127
8, 35520, Note_on_c, 2, 70, 52
8, 35999, Note_on_c, 2, 70, 0
8, 36000, Note_on_c, 2, 72, 52
8, 36000, Note_on_c, 2, 69, 52
8, 36219, Note_on_c, 2, 72, 0
8, 36219, Note_on_c, 2, 69, 0
8, 36240, Note_on_c, 2, 75, 52
8, 36240, Note_on_c, 2, 72, 52
8, 36679, Note_on_c, 2, 75, 0
8, 36679, Note_on_c, 2, 72, 0
8, 36720, Note_on_c, 2, 70, 52
8, 36720, Note_on_c, 2, 73, 52
8, 36919, Note_on_c, 2, 70, 0
8, 36919, Note_on_c, 2, 73, 0
8, 36960, Note_on_c, 2, 72, 52
8, 36960, Note_on_c, 2, 69, 52
8, 37439, Note_on_c, 2, 72, 0
8, 37439, Note_on_c, 2, 69, 0
8, 49200, Note_on_c, 2, 67, 60
8, 49200, Note_on_c, 2, 79, 60
8, 49439, Note_on_c, 2, 67, 0
8, 49439, Note_on_c, 2, 79, 0
8, 49920, Note_on_c, 2, 79, 68
8, 49920, Note_on_c, 2, 67, 68
8, 50159, Note_on_c, 2, 79, 0
8, 50159, Note_on_c, 2, 67, 0
8, 50640, Note_on_c, 2, 67, 76
8, 50640, Note_on_c, 2, 79, 76
8, 50879, Note_on_c, 2, 67, 0
8, 50879, Note_on_c, 2, 79, 0
8, 50880, Note_on_c, 2, 67, 76
8, 50880, Note_on_c, 2, 79, 76
8, 51099, Note_on_c, 2, 67, 0
8, 51099, Note_on_c, 2, 79, 0
8, 51120, Note_on_c, 2, 67, 76
8, 51120, Note_on_c, 2, 79, 76
8, 51339, Note_on_c, 2, 67, 0
8, 51339, Note_on_c, 2, 79, 0
8, 51360, Note_on_c, 2, 79, 76
8, 51360, Note_on_c, 2, 67, 76
8, 52059, Note_on_c, 2, 79, 0
8, 52059, Note_on_c, 2, 67, 0
8, 52080, Note_on_c, 2, 79, 76
8, 52080, Note_on_c, 2, 67, 76
8, 52299, Note_on_c, 2, 79, 0
8, 52299, Note_on_c, 2, 67, 0
8, 52320, Note_on_c, 2, 79, 76
8, 52320, Note_on_c, 2, 67, 76
8, 52539, Note_on_c, 2, 79, 0
8, 52539, Note_on_c, 2, 67, 0
8, 52560, Note_on_c, 2, 67, 76
8, 52560, Note_on_c, 2, 79, 76
8, 52779, Note_on_c, 2, 67, 0
8, 52779, Note_on_c, 2, 79, 0
8, 52800, Note_on_c, 2, 79, 76
8, 52800, Note_on_c, 2, 67, 76
8, 53499, Note_on_c, 2, 79, 0
8, 53499, Note_on_c, 2, 67, 0
8, 53520, Note_on_c, 2, 79, 76
8, 53520, Note_on_c, 2, 67, 76
8, 53739, Note_on_c, 2, 79, 0
8, 53739, Note_on_c, 2, 67, 0
8, 53760, Note_on_c, 2, 79, 76
8, 53760, Note_on_c, 2, 67, 76
8, 53979, Note_on_c, 2, 79, 0
8, 53979, Note_on_c, 2, 67, 0
8, 54000, Note_on_c, 2, 67, 76
8, 54000, Note_on_c, 2, 79, 76
8, 54219, Note_on_c, 2, 67, 0
8, 54219, Note_on_c, 2, 79, 0
8, 54240, Note_on_c, 2, 67, 76
8, 54240, Note_on_c, 2, 79, 76
8, 54939, Note_on_c, 2, 67, 0
8, 54939, Note_on_c, 2, 79, 0
8, 54960, Note_on_c, 2, 79, 76
8, 54960, Note_on_c, 2, 82, 76
8, 55199, Note_on_c, 2, 79, 0
8, 55199, Note_on_c, 2, 82, 0
8, 55200, Note_on_c, 2, 77, 76
8, 55200, Note_on_c, 2, 80, 76
8, 55419, Note_on_c, 2, 77, 0
8, 55419, Note_on_c, 2, 80, 0
8, 55440, Note_on_c, 2, 75, 76
8, 55440, Note_on_c, 2, 79, 76
8, 55619, Note_on_c, 2, 75, 0
8, 55619, Note_on_c, 2, 79, 0
8, 55680, Note_on_c, 2, 74, 76
8, 55680, Note_on_c, 2, 77, 76
8, 56379, Note_on_c, 2, 74, 0
8, 56379, Note_on_c, 2, 77, 0
8, 56400, Note_on_c, 2, 84, 84
8, 56400, Note_on_c, 2, 72, 84
8, 56619, Note_on_c, 2, 84, 0
8, 56619, Note_on_c, 2, 72, 0
8, 56640, Note_on_c, 2, 84, 84
8, 56640, Note_on_c, 2, 72, 84
8, 56859, Note_on_c, 2, 84, 0
8, 56859, Note_on_c, 2, 72, 0
8, 56880, Note_on_c, 2, 72, 84
8, 56880, Note_on_c, 2, 84, 84
8, 57099, Note_on_c, 2, 72, 0
8, 57099, Note_on_c, 2, 84, 0
8, 57120, Note_on_c, 2, 84, 84
8, 57120, Note_on_c, 2, 72, 84
8, 57819, Note_on_c, 2, 84, 0
8, 57819, Note_on_c, 2, 72, 0
8, 57840, Note_on_c, 2, 72, 84
8, 57840, Note_on_c, 2, 84, 84
8, 58059, Note_on_c, 2, 72, 0
8, 58059, Note_on_c, 2, 84, 0
8, 58080, Note_on_c, 2, 84, 84
8, 58080, Note_on_c, 2, 72, 84
8, 58299, Note_on_c, 2, 84, 0
8, 58299, Note_on_c, 2, 72, 0
8, 58320, Note_on_c, 2, 84, 84
8, 58320, Note_on_c, 2, 72, 84
8, 58539, Note_on_c, 2, 84, 0
8, 58539, Note_on_c, 2, 72, 0
8, 58560, Note_on_c, 2, 84, 84
8, 58560, Note_on_c, 2, 72, 84
8, 59259, Note_on_c, 2, 84, 0
8, 59259, Note_on_c, 2, 72, 0
8, 59280, Note_on_c, 2, 67, 84
8, 59280, Note_on_c, 2, 72, 84
8, 59499, Note_on_c, 2, 67, 0
8, 59499, Note_on_c, 2, 72, 0
8, 59520, Note_on_c, 2, 72, 84
8, 59520, Note_on_c, 2, 67, 84
8, 59739, Note_on_c, 2, 72, 0
8, 59739, Note_on_c, 2, 67, 0
8, 59760, Note_on_c, 2, 72, 84
8, 59760, Note_on_c, 2, 67, 84
8, 59979, Note_on_c, 2, 72, 0
8, 59979, Note_on_c, 2, 67, 0
8, 60000, Note_on_c, 2, 72, 84
8, 60000, Note_on_c, 2, 68, 84
8, 60699, Note_on_c, 2, 72, 0
8, 60699, Note_on_c, 2, 68, 0
8, 60720, Note_on_c, 2, 72, 84
8, 60720, Note_on_c, 2, 75, 84
8, 60959, Note_on_c, 2, 72, 0
8, 60959, Note_on_c, 2, 75, 0
8, 60960, Note_on_c, 2, 70, 84
8, 60960, Note_on_c, 2, 73, 84
8, 61179, Note_on_c, 2, 70, 0
8, 61179, Note_on_c, 2, 73, 0
8, 61200, Note_on_c, 2, 68, 84
8, 61200, Note_on_c, 2, 72, 84
8, 61379, Note_on_c, 2, 68, 0
8, 61379, Note_on_c, 2, 72, 0
8, 61440, Note_on_c, 2, 67, 84
8, 61440, Note_on_c, 2, 70, 84
8, 62139, Note_on_c, 2, 67, 0
8, 62139, Note_on_c, 2, 70, 0
8, 62160, Note_on_c, 2, 68, 84
8, 62160, Note_on_c, 2, 72, 84
8, 62859, Note_on_c, 2, 68, 0
8, 62859, Note_on_c, 2, 72, 0
8, 62880, Note_on_c, 2, 68, 84
8, 62880, Note_on_c, 2, 65, 84
8, 63579, Note_on_c, 2, 68, 0
8, 63579, Note_on_c, 2, 65, 0
8, 63600, Note_on_c, 2, 72, 84
8, 63600, Note_on_c, 2, 68, 84
8, 63839, Note_on_c, 2, 72, 0
8, 63839, Note_on_c, 2, 68, 0
8, 63840, Note_on_c, 2, 67, 84
8, 63840, Note_on_c, 2, 70, 84
8, 64059, Note_on_c, 2, 67, 0
8, 64059, Note_on_c, 2, 70, 0
8, 64080, Note_on_c, 2, 65, 84
8, 64080, Note_on_c, 2, 68, 84
8, 64259, Note_on_c, 2, 65, 0
8, 64259, Note_on_c, 2, 68, 0
8, 64320, Note_on_c, 2, 64, 92
8, 64320, Note_on_c, 2, 67, 92
8, 64440, Control_c, 2, 11, 112
8, 65519, Note_on_c, 2, 64, 0
8, 65519, Note_on_c, 2, 67, 0
8, 65520, Note_on_c, 2, 68, 92
8, 65520, Note_on_c, 2, 65, 92
8, 65739, Note_on_c, 2, 68, 0
8, 65739, Note_on_c, 2, 65, 0
8, 65758, Control_c, 2, 11, 127
8, 65760, Note_on_c, 2, 64, 92
8, 65760, Note_on_c, 2, 67, 92
8, 65880, Control_c, 2, 11, 112
8, 66959, Note_on_c, 2, 64, 0
8, 66959, Note_on_c, 2, 67, 0
8, 66960, Note_on_c, 2, 65, 92
8, 66960, Note_on_c, 2, 68, 92
8, 67179, Note_on_c, 2, 65, 0
8, 67179, Note_on_c, 2, 68, 0
8, 67198, Control_c, 2, 11, 127
8, 67200, Note_on_c, 2, 67, 92
8, 67200, Note_on_c, 2, 64, 92
8, 67320, Control_c, 2, 11, 112
8, 67679, Note_on_c, 2, 67, 0
8, 67679, Note_on_c, 2, 64, 0
8, 67680, Note_on_c, 2, 65, 92
8, 67680, Note_on_c, 2, 68, 92
8, 67899, Note_on_c, 2, 65, 0
8, 67899, Note_on_c, 2, 68, 0
8, 67918, Control_c, 2, 11, 127
8, 67920, Note_on_c, 2, 67, 92
8, 67920, Note_on_c, 2, 64, 92
8, 68040, Control_c, 2, 11, 112
8, 68399, Note_on_c, 2, 67, 0
8, 68399, Note_on_c, 2, 64, 0
8, 68400, Note_on_c, 2, 65, 92
8, 68400, Note_on_c, 2, 68, 92
8, 68619, Note_on_c, 2, 65, 0
8, 68619, Note_on_c, 2, 68, 0
8, 68638, Control_c, 2, 11, 127
8, 68640, Control_c, 2, 11, 127
8, 68640, Note_on_c, 2, 67, 84
8, 68640, Note_on_c, 2, 64, 84
8, 68700, Control_c, 2, 11, 120
8, 68760, Control_c, 2, 11, 114
8, 68820, Control_c, 2, 11, 107
8, 68880, Control_c, 2, 11, 101
8, 68940, Control_c, 2, 11, 94
8, 69000, Control_c, 2, 11, 88
8, 69060, Control_c, 2, 11, 81
8, 69120, Control_c, 2, 11, 74
8, 69180, Control_c, 2, 11, 68
8, 69240, Control_c, 2, 11, 61
8, 69300, Control_c, 2, 11, 55
8, 69360, Control_c, 2, 11, 48
8, 69599, Note_on_c, 2, 67, 0
8, 69599, Note_on_c, 2, 64, 0
8, 72240, Control_c, 2, 11, 127
8, 72960, Note_on_c, 2, 67, 52
8, 73439, Note_on_c, 2, 67, 0
8, 73440, Note_on_c, 2, 71, 52
8, 73679, Note_on_c, 2, 71, 0
8, 73680, Note_on_c, 2, 74, 52
8, 74159, Note_on_c, 2, 74, 0
8, 74160, Note_on_c, 2, 72, 52
8, 74399, Note_on_c, 2, 72, 0
8, 74400, Note_on_c, 2, 71, 52
8, 74639, Note_on_c, 2, 71, 0
8, 75840, Note_on_c, 2, 67, 52
8, 76319, Note_on_c, 2, 67, 0
8, 76320, Note_on_c, 2, 72, 52
8, 76559, Note_on_c, 2, 72, 0
8, 76560, Note_on_c, 2, 75, 52
8, 77039, Note_on_c, 2, 75, 0
8, 77040, Note_on_c, 2, 74, 52
8, 77279, Note_on_c, 2, 74, 0
8, 77280, Note_on_c, 2, 72, 52
8, 77519, Note_on_c, 2, 72, 0
8, 82800, Note_on_c, 2, 62, 52
8, 82800, Note_on_c, 2, 65, 52
8, 83039, Note_on_c, 2, 62, 0
8, 83039, Note_on_c, 2, 65, 0
8, 83520, Note_on_c, 2, 60, 52
8, 83520, Note_on_c, 2, 65, 52
8, 83759, Note_on_c, 2, 60, 0
8, 83759, Note_on_c, 2, 65, 0
8, 84240, Note_on_c, 2, 65, 52
8, 84240, Note_on_c, 2, 62, 52
8, 84479, Note_on_c, 2, 65, 0
8, 84479, Note_on_c, 2, 62, 0
8, 84960, Note_on_c, 2, 60, 52
8, 84960, Note_on_c, 2, 65, 52
8, 85199, Note_on_c, 2, 60, 0
8, 85199, Note_on_c, 2, 65, 0
8, 85680, Note_on_c, 2, 65, 52
8, 85680, Note_on_c, 2, 62, 52
8, 85919, Note_on_c, 2, 65, 0
8, 85919, Note_on_c, 2, 62, 0
8, 86400, Note_on_c, 2, 60, 52
8, 86400, Note_on_c, 2, 65, 52
8, 86639, Note_on_c, 2, 60, 0
8, 86639, Note_on_c, 2, 65, 0
8, 87120, Note_on_c, 2, 62, 52
8, 87120, Note_on_c, 2, 65, 52
8, 87359, Note_on_c, 2, 62, 0
8, 87359, Note_on_c, 2, 65, 0
8, 87840, Note_on_c, 2, 60, 52
8, 87840, Note_on_c, 2, 65, 52
8, 88079, Note_on_c, 2, 60, 0
8, 88079, Note_on_c, 2, 65, 0
8, 88560, Note_on_c, 2, 65, 55
8, 88560, Note_on_c, 2, 62, 55
8, 88799, Note_on_c, 2, 65, 0
8, 88799, Note_on_c, 2, 62, 0
8, 89280, Note_on_c, 2, 60, 58
8, 89280, Note_on_c, 2, 63, 58
8, 89519, Note_on_c, 2, 60, 0
8, 89519, Note_on_c, 2, 63, 0
8, 90000, Note_on_c, 2, 60, 61
8, 90000, Note_on_c, 2, 65, 61
8, 90239, Note_on_c, 2, 60, 0
8, 90239, Note_on_c, 2, 65, 0
8, 90720, Note_on_c, 2, 62, 65
8, 90720, Note_on_c, 2, 59, 65
8, 90959, Note_on_c, 2, 62, 0
8, 90959, Note_on_c, 2, 59, 0
8, 91440, Note_on_c, 2, 63, 68
8, 91440, Note_on_c, 2, 60, 68
8, 91679, Note_on_c, 2, 63, 0
8, 91679, Note_on_c, 2, 60, 0
8, 92160, Note_on_c, 2, 60, 71
8, 92160, Note_on_c, 2, 63, 71
8, 92399, Note_on_c, 2, 60, 0
8, 92399, Note_on_c, 2, 63, 0
8, 92880, Note_on_c, 2, 60, 74
8, 92880, Note_on_c, 2, 63, 74
8, 93099, Note_on_c, 2, 60, 0
8, 93099, Note_on_c, 2, 63, 0
8, 93120, Note_on_c, 2, 60, 76
8, 93120, Note_on_c, 2, 68, 76
8, 93579, Note_on_c, 2, 60, 0
8, 93579, Note_on_c, 2, 68, 0
8, 93600, Note_on_c, 2, 69, 76
8, 93600, Note_on_c, 2, 60, 76
8, 93819, Note_on_c, 2, 69, 0
8, 93819, Note_on_c, 2, 60, 0
8, 93840, Note_on_c, 2, 63, 76
8, 93840, Note_on_c, 2, 72, 76
8, 94059, Note_on_c, 2, 63, 0
8, 94059, Note_on_c, 2, 72, 0
8, 94080, Note_on_c, 2, 63, 76
8, 94080, Note_on_c, 2, 72, 76
8, 94299, Note_on_c, 2, 63, 0
8, 94299, Note_on_c, 2, 72, 0
8, 94320, Note_on_c, 2, 62, 76
8, 94320, Note_on_c, 2, 71, 76
8, 94539, Note_on_c, 2, 62, 0
8, 94539, Note_on_c, 2, 71, 0
8, 94560, Note_on_c, 2, 63, 76
8, 94560, Note_on_c, 2, 72, 76
8, 94799, Note_on_c, 2, 63, 0
8, 94799, Note_on_c, 2, 72, 0
8, 95280, Note_on_c, 2, 74, 84
8, 95979, Note_on_c, 2, 74, 0
8, 96000, Note_on_c, 2, 75, 84
8, 96699, Note_on_c, 2, 75, 0
8, 96720, Note_on_c, 2, 74, 84
8, 97419, Note_on_c, 2, 74, 0
8, 97440, Note_on_c, 2, 72, 84
8, 98159, Note_on_c, 2, 72, 0
8, 138960, Note_on_c, 2, 69, 76
8, 139419, Note_on_c, 2, 69, 0
8, 139440, Note_on_c, 2, 60, 76
8, 139659, Note_on_c, 2, 60, 0
8, 139680, Note_on_c, 2, 67, 76
8, 140139, Note_on_c, 2, 67, 0
8, 140160, Note_on_c, 2, 60, 76
8, 140379, Note_on_c, 2, 60, 0
8, 140400, Note_on_c, 2, 65, 76
8, 140859, Note_on_c, 2, 65, 0
8, 140880, Note_on_c, 2, 60, 76
8, 141099, Note_on_c, 2, 60, 0
8, 141120, Note_on_c, 2, 64, 76
8, 141339, Note_on_c, 2, 64, 0
8, 141360, Note_on_c, 2, 60, 76
8, 141579, Note_on_c, 2, 60, 0
8, 141600, Note_on_c, 2, 69, 76
8, 141839, Note_on_c, 2, 69, 0
8, 143280, Note_on_c, 2, 67, 76
8, 143280, Note_on_c, 2, 70, 76
8, 143739, Note_on_c, 2, 67, 0
8, 143739, Note_on_c, 2, 70, 0
8, 143760, Note_on_c, 2, 60, 76
8, 143979, Note_on_c, 2, 60, 0
8, 144000, Note_on_c, 2, 67, 76
8, 144000, Note_on_c, 2, 70, 76
8, 144459, Note_on_c, 2, 67, 0
8, 144459, Note_on_c, 2, 70, 0
8, 144480, Note_on_c, 2, 65, 76
8, 144480, Note_on_c, 2, 69, 76
8, 144719, Note_on_c, 2, 65, 0
8, 144719, Note_on_c, 2, 69, 0
8, 144960, Note_on_c, 2, 77, 76
8, 144960, Note_on_c, 2, 74, 76
8, 145659, Note_on_c, 2, 77, 0
8, 145659, Note_on_c, 2, 74, 0
8, 145680, Note_on_c, 2, 76, 76
8, 145680, Note_on_c, 2, 72, 76
8, 146379, Note_on_c, 2, 76, 0
8, 146379, Note_on_c, 2, 72, 0
8, 146400, Note_on_c, 2, 71, 84
8, 146400, Note_on_c, 2, 74, 84
8, 146520, Control_c, 2, 11, 112
8, 147099, Note_on_c, 2, 71, 0
8, 147099, Note_on_c, 2, 74, 0
8, 147120, Note_on_c, 2, 76, 84
8, 147120, Note_on_c, 2, 72, 84
8, 147819, Note_on_c, 2, 76, 0
8, 147819, Note_on_c, 2, 72, 0
8, 147838, Control_c, 2, 11, 127
8, 147840, Note_on_c, 2, 71, 84
8, 147840, Note_on_c, 2, 74, 84
8, 147960, Control_c, 2, 11, 112
8, 148539, Note_on_c, 2, 71, 0
8, 148539, Note_on_c, 2, 74, 0
8, 148560, Note_on_c, 2, 72, 84
8, 148560, Note_on_c, 2, 76, 84
8, 149259, Note_on_c, 2, 72, 0
8, 149259, Note_on_c, 2, 76, 0
8, 149278, Control_c, 2, 11, 127
8, 149280, Note_on_c, 2, 71, 84
8, 149280, Note_on_c, 2, 74, 84
8, 149400, Control_c, 2, 11, 112
8, 149979, Note_on_c, 2, 71, 0
8, 149979, Note_on_c, 2, 74, 0
8, 150000, Note_on_c, 2, 67, 84
8, 150000, Note_on_c, 2, 72, 84
8, 150239, Note_on_c, 2, 67, 0
8, 150239, Note_on_c, 2, 72, 0
8, 151440, Control_c, 2, 11, 127
8, 152160, Note_on_c, 2, 77, 76
8, 152160, Note_on_c, 2, 65, 76
8, 152379, Note_on_c, 2, 77, 0
8, 152379, Note_on_c, 2, 65, 0
8, 152400, Note_on_c, 2, 77, 76
8, 152400, Note_on_c, 2, 65, 76
8, 152619, Note_on_c, 2, 77, 0
8, 152619, Note_on_c, 2, 65, 0
8, 152640, Note_on_c, 2, 77, 76
8, 152640, Note_on_c, 2, 65, 76
8, 152859, Note_on_c, 2, 77, 0
8, 152859, Note_on_c, 2, 65, 0
8, 152880, Note_on_c, 2, 77, 76
8, 152880, Note_on_c, 2, 65, 76
8, 153099, Note_on_c, 2, 77, 0
8, 153099, Note_on_c, 2, 65, 0
8, 153120, Note_on_c, 2, 77, 76
8, 153120, Note_on_c, 2, 65, 76
8, 153339, Note_on_c, 2, 77, 0
8, 153339, Note_on_c, 2, 65, 0
8, 153360, Note_on_c, 2, 77, 76
8, 153360, Note_on_c, 2, 65, 76
8, 153579, Note_on_c, 2, 77, 0
8, 153579, Note_on_c, 2, 65, 0
8, 153600, Note_on_c, 2, 76, 76
8, 153600, Note_on_c, 2, 64, 76
8, 153839, Note_on_c, 2, 76, 0
8, 153839, Note_on_c, 2, 64, 0
8, 154320, Note_on_c, 2, 76, 76
8, 154320, Note_on_c, 2, 64, 76
8, 154559, Note_on_c, 2, 76, 0
8, 154559, Note_on_c, 2, 64, 0
8, 155040, Note_on_c, 2, 76, 76
8, 155040, Note_on_c, 2, 64, 76
8, 155279, Note_on_c, 2, 76, 0
8, 155279, Note_on_c, 2, 64, 0
8, 163680, Note_on_c, 2, 67, 52
8, 164139, Note_on_c, 2, 67, 0
8, 164160, Note_on_c, 2, 65, 52
8, 164379, Note_on_c, 2, 65, 0
8, 164400, Note_on_c, 2, 64, 52
8, 164619, Note_on_c, 2, 64, 0
8, 164640, Note_on_c, 2, 60, 52
8, 164859, Note_on_c, 2, 60, 0
8, 164880, Note_on_c, 2, 69, 52
8, 165339, Note_on_c, 2, 69, 0
8, 165360, Note_on_c, 2, 60, 51
8, 165579, Note_on_c, 2, 60, 0
8, 165600, Note_on_c, 2, 67, 51
8, 166059, Note_on_c, 2, 67, 0
8, 166080, Note_on_c, 2, 60, 50
8, 166299, Note_on_c, 2, 60, 0
8, 166320, Note_on_c, 2, 65, 50
8, 166779, Note_on_c, 2, 65, 0
8, 166800, Note_on_c, 2, 60, 49
8, 167019, Note_on_c, 2, 60, 0
8, 167040, Note_on_c, 2, 64, 48
8, 167259, Note_on_c, 2, 64, 0
8, 167280, Note_on_c, 2, 60, 48
8, 167499, Note_on_c, 2, 60, 0
8, 167520, Note_on_c, 2, 65, 48
8, 167739, Note_on_c, 2, 65, 0
8, 167760, Note_on_c, 2, 69, 47
8, 167979, Note_on_c, 2, 69, 0
8, 168000, Note_on_c, 2, 65, 47
8, 168699, Note_on_c, 2, 65, 0
8, 168720, Note_on_c, 2, 64, 46
8, 169419, Note_on_c, 2, 64, 0
8, 169440, Note_on_c, 2, 67, 44
8, 169440, Note_on_c, 2, 60, 44
8, 170139, Note_on_c, 2, 67, 0
8, 170139, Note_on_c, 2, 60, 0
8, 170160, Note_on_c, 2, 65, 44
8, 170160, Note_on_c, 2, 60, 44
8, 170619, Note_on_c, 2, 65, 0
8, 170619, Note_on_c, 2, 60, 0
8, 170640, Note_on_c, 2, 69, 44
8, 170640, Note_on_c, 2, 65, 44
8, 170859, Note_on_c, 2, 69, 0
8, 170859, Note_on_c, 2, 65, 0
8, 170880, Note_on_c, 2, 65, 44
8, 170880, Note_on_c, 2, 62, 44
8, 171599, Note_on_c, 2, 65, 0
8, 171599, Note_on_c, 2, 62, 0
8, 171600, Note_on_c, 2, 64, 44
8, 171600, Note_on_c, 2, 60, 44
8, 172319, Note_on_c, 2, 64, 0
8, 172319, Note_on_c, 2, 60, 0
8, 172320, Note_on_c, 2, 62, 44
8, 172320, Note_on_c, 2, 59, 44
8, 173039, Note_on_c, 2, 62, 0
8, 173039, Note_on_c, 2, 59, 0
8, 173040, Note_on_c, 2, 64, 44
8, 173040, Note_on_c, 2, 60, 44
8, 173759, Note_on_c, 2, 64, 0
8, 173759, Note_on_c, 2, 60, 0
8, 173760, Note_on_c, 2, 62, 44
8, 173760, Note_on_c, 2, 59, 44
8, 174479, Note_on_c, 2, 62, 0
8, 174479, Note_on_c, 2, 59, 0
8, 174480, Note_on_c, 2, 64, 44
8, 174480, Note_on_c, 2, 60, 44
8, 175199, Note_on_c, 2, 64, 0
8, 175199, Note_on_c, 2, 60, 0
8, 175200, Note_on_c, 2, 62, 44
8, 175200, Note_on_c, 2, 59, 44
8, 175439, Note_on_c, 2, 62, 0
8, 175439, Note_on_c, 2, 59, 0
8, 177120, Note_on_c, 2, 71, 44
8, 177359, Note_on_c, 2, 71, 0
8, 177360, Note_on_c, 2, 67, 44
8, 177599, Note_on_c, 2, 67, 0
8, 177600, Note_on_c, 2, 65, 44
8, 177839, Note_on_c, 2, 65, 0
8, 177840, Note_on_c, 2, 62, 44
8, 178079, Note_on_c, 2, 62, 0
8, 178080, Note_on_c, 2, 59, 44
8, 178319, Note_on_c, 2, 59, 0
8, 178800, Note_on_c, 2, 56, 44
8, 179039, Note_on_c, 2, 56, 0
8, 179520, Note_on_c, 2, 55, 44
8, 179759, Note_on_c, 2, 55, 0
8, 187440, Note_on_c, 2, 67, 44
8, 187440, Note_on_c, 2, 62, 44
8, 187919, Note_on_c, 2, 67, 0
8, 187920, Note_on_c, 2, 71, 44
8, 188159, Note_on_c, 2, 62, 0
8, 188159, Note_on_c, 2, 71, 0
8, 188160, Note_on_c, 2, 72, 44
8, 188160, Note_on_c, 2, 60, 44
8, 188399, Note_on_c, 2, 72, 0
8, 188399, Note_on_c, 2, 60, 0
8, 188640, Note_on_c, 2, 74, 44
8, 188640, Note_on_c, 2, 71, 44
8, 188859, Note_on_c, 2, 74, 0
8, 188859, Note_on_c, 2, 71, 0
8, 188880, Note_on_c, 2, 77, 44
8, 188880, Note_on_c, 2, 74, 44
8, 189119, Note_on_c, 2, 77, 0
8, 189119, Note_on_c, 2, 74, 0
8, 189360, Note_on_c, 2, 75, 44
8, 189360, Note_on_c, 2, 72, 44
8, 189579, Note_on_c, 2, 75, 0
8, 189579, Note_on_c, 2, 72, 0
8, 189600, Note_on_c, 2, 74, 44
8, 189600, Note_on_c, 2, 71, 44
8, 190079, Note_on_c, 2, 74, 0
8, 190079, Note_on_c, 2, 71, 0
8, 197520, Note_on_c, 2, 79, 44
8, 197739, Note_on_c, 2, 79, 0
8, 197760, Note_on_c, 2, 79, 44
8, 197979, Note_on_c, 2, 79, 0
8, 198000, Note_on_c, 2, 79, 44
8, 198219, Note_on_c, 2, 79, 0
8, 198240, Note_on_c, 2, 79, 44
8, 198479, Note_on_c, 2, 79, 0
8, 198960, Note_on_c, 2, 79, 44
8, 199179, Note_on_c, 2, 79, 0
8, 199200, Note_on_c, 2, 79, 44
8, 199419, Note_on_c, 2, 79, 0
8, 199440, Note_on_c, 2, 79, 44
8, 199659, Note_on_c, 2, 79, 0
8, 199680, Note_on_c, 2, 79, 44
8, 199919, Note_on_c, 2, 79, 0
8, 199919, End_track
9, 0, Start_track
9, 0, Title_t, "Bassoon"
9, 0, MIDI_port, 0
9, 0, Program_c, 3, 70
9, 0, Control_c, 3, 7, 96
9, 0, Control_c, 3, 10, 65
9, 0, Control_c, 3, 11, 127
9, 3840, Note_on_c, 3, 60, 52
9, 4319, Note_on_c, 3, 60, 0
9, 4320, Note_on_c, 3, 62, 52
9, 4320, Note_on_c, 3, 59, 52
9, 4539, Note_on_c, 3, 62, 0
9, 4539, Note_on_c, 3, 59, 0
9, 4560, Note_on_c, 3, 65, 52
9, 4560, Note_on_c, 3, 62, 52
9, 4999, Note_on_c, 3, 65, 0
9, 4999, Note_on_c, 3, 62, 0
9, 5040, Note_on_c, 3, 60, 52
9, 5040, Note_on_c, 3, 63, 52
9, 5239, Note_on_c, 3, 60, 0
9, 5239, Note_on_c, 3, 63, 0
9, 5280, Note_on_c, 3, 62, 52
9, 5280, Note_on_c, 3, 59, 52
9, 5759, Note_on_c, 3, 62, 0
9, 5759, Note_on_c, 3, 59, 0
9, 11040, Note_on_c, 3, 60, 52
9, 11519, Note_on_c, 3, 60, 0
9, 11520, Note_on_c, 3, 62, 52
9, 11739, Note_on_c, 3, 62, 0
9, 11760, Note_on_c, 3, 62, 52
9, 11760, Note_on_c, 3, 65, 52
9, 12199, Note_on_c, 3, 62, 0
9, 12199, Note_on_c, 3, 65, 0
9, 12240, Note_on_c, 3, 63, 52
9, 12240, Note_on_c, 3, 60, 52
9, 12439, Note_on_c, 3, 63, 0
9, 12439, Note_on_c, 3, 60, 0
9, 12480, Note_on_c, 3, 62, 52
9, 12480, Note_on_c, 3, 59, 52
9, 13199, Note_on_c, 3, 62, 0
9, 13199, Note_on_c, 3, 59, 0
9, 18960, Note_on_c, 3, 58, 76
9, 18960, Note_on_c, 3, 46, 76
9, 19179, Note_on_c, 3, 58, 0
9, 19179, Note_on_c, 3, 46, 0
9, 19200, Note_on_c, 3, 58, 76
9, 19200, Note_on_c, 3, 46, 76
9, 19419, Note_on_c, 3, 58, 0
9, 19419, Note_on_c, 3, 46, 0
9, 19440, Note_on_c, 3, 58, 76
9, 19440, Note_on_c, 3, 46, 76
9, 19659, Note_on_c, 3, 58, 0
9, 19659, Note_on_c, 3, 46, 0
9, 19680, Note_on_c, 3, 58, 76
9, 19680, Note_on_c, 3, 46, 76
9, 20379, Note_on_c, 3, 58, 0
9, 20379, Note_on_c, 3, 46, 0
9, 20400, Note_on_c, 3, 46, 76
9, 20400, Note_on_c, 3, 58, 76
9, 20619, Note_on_c, 3, 46, 0
9, 20619, Note_on_c, 3, 58, 0
9, 20640, Note_on_c, 3, 58, 76
9, 20640, Note_on_c, 3, 46, 76
9, 20859, Note_on_c, 3, 58, 0
9, 20859, Note_on_c, 3, 46, 0
9, 20880, Note_on_c, 3, 46, 76
9, 20880, Note_on_c, 3, 58, 76
9, 21099, Note_on_c, 3, 46, 0
9, 21099, Note_on_c, 3, 58, 0
9, 21120, Note_on_c, 3, 46, 76
9, 21120, Note_on_c, 3, 58, 76
9, 21819, Note_on_c, 3, 46, 0
9, 21819, Note_on_c, 3, 58, 0
9, 21840, Note_on_c, 3, 46, 76
9, 21840, Note_on_c, 3, 58, 76
9, 22059, Note_on_c, 3, 46, 0
9, 22059, Note_on_c, 3, 58, 0
9, 22080, Note_on_c, 3, 46, 76
9, 22080, Note_on_c, 3, 58, 76
9, 22299, Note_on_c, 3, 46, 0
9, 22299, Note_on_c, 3, 58, 0
9, 22320, Note_on_c, 3, 58, 76
9, 22320, Note_on_c, 3, 46, 76
9, 22539, Note_on_c, 3, 58, 0
9, 22539, Note_on_c, 3, 46, 0
9, 22560, Note_on_c, 3, 58, 76
9, 22560, Note_on_c, 3, 46, 76
9, 23259, Note_on_c, 3, 58, 0
9, 23259, Note_on_c, 3, 46, 0
9, 23280, Note_on_c, 3, 63, 76
9, 23979, Note_on_c, 3, 63, 0
9, 24000, Note_on_c, 3, 56, 76
9, 24699, Note_on_c, 3, 56, 0
9, 24720, Note_on_c, 3, 61, 76
9, 25419, Note_on_c, 3, 61, 0
9, 25440, Note_on_c, 3, 54, 76
9, 26139, Note_on_c, 3, 54, 0
9, 26160, Note_on_c, 3, 56, 76
9, 26859, Note_on_c, 3, 56, 0
9, 26880, Note_on_c, 3, 58, 76
9, 27339, Note_on_c, 3, 58, 0
9, 27360, Note_on_c, 3, 59, 84
9, 27480, Control_c, 3, 11, 112
9, 27599, Note_on_c, 3, 59, 0
9, 27600, Note_on_c, 3, 58, 84
9, 28779, Note_on_c, 3, 58, 0
9, 28798, Control_c, 3, 11, 127
9, 28800, Note_on_c, 3, 59, 84
9, 28920, Control_c, 3, 11, 112
9, 29039, Note_on_c, 3, 59, 0
9, 29040, Note_on_c, 3, 58, 84
9, 29499, Note_on_c, 3, 58, 0
9, 29520, Note_on_c, 3, 39, 84
9, 29520, Note_on_c, 3, 51, 84
9, 29739, Note_on_c, 3, 39, 0
9, 29739, Note_on_c, 3, 51, 0
9, 29758, Control_c, 3, 11, 127
9, 29760, Note_on_c, 3, 58, 84
9, 29760, Note_on_c, 3, 46, 84
9, 29880, Control_c, 3, 11, 112
9, 30239, Note_on_c, 3, 58, 0
9, 30239, Note_on_c, 3, 46, 0
9, 30240, Note_on_c, 3, 39, 84
9, 30240, Note_on_c, 3, 51, 84
9, 30459, Note_on_c, 3, 39, 0
9, 30459, Note_on_c, 3, 51, 0
9, 30478, Control_c, 3, 11, 127
9, 30480, Note_on_c, 3, 46, 84
9, 30480, Note_on_c, 3, 58, 84
9, 30600, Control_c, 3, 11, 112
9, 30959, Note_on_c, 3, 46, 0
9, 30959, Note_on_c, 3, 58, 0
9, 30960, Note_on_c, 3, 51, 84
9, 30960, Note_on_c, 3, 39, 84
9, 31179, Note_on_c, 3, 51, 0
9, 31179, Note_on_c, 3, 39, 0
9, 31198, Control_c, 3, 11, 127
9, 31200, Note_on_c, 3, 46, 76
9, 31200, Note_on_c, 3, 58, 76
9, 31260, Control_c, 3, 11, 122
9, 31320, Control_c, 3, 11, 117
9, 31380, Control_c, 3, 11, 111
9, 31440, Control_c, 3, 11, 106
9, 31500, Control_c, 3, 11, 101
9, 31560, Control_c, 3, 11, 96
9, 31620, Control_c, 3, 11, 90
9, 31680, Control_c, 3, 11, 85
9, 31740, Control_c, 3, 11, 80
9, 31800, Control_c, 3, 11, 75
9, 31860, Control_c, 3, 11, 69
9, 31920, Control_c, 3, 11, 64
9, 32159, Note_on_c, 3, 46, 0
9, 32159, Note_on_c, 3, 58, 0
9, 33360, Control_c, 3, 11, 127
9, 34080, Note_on_c, 3, 53, 52
9, 35520, Note_on_c, 3, 58, 52
9, 35999, Note_on_c, 3, 58, 0
9, 36000, Note_on_c, 3, 60, 52
9, 36219, Note_on_c, 3, 60, 0
9, 36240, Note_on_c, 3, 63, 52
9, 36679, Note_on_c, 3, 63, 0
9, 36720, Note_on_c, 3, 61, 52
9, 36919, Note_on_c, 3, 61, 0
9, 36960, Note_on_c, 3, 60, 52
9, 37439, Note_on_c, 3, 53, 0
9, 37439, Note_on_c, 3, 60, 0
9, 50640, Note_on_c, 3, 62, 76
9, 51339, Note_on_c, 3, 62, 0
9, 51360, Note_on_c, 3, 63, 76
9, 52059, Note_on_c, 3, 63, 0
9, 52080, Note_on_c, 3, 62, 76
9, 52779, Note_on_c, 3, 62, 0
9, 52800, Note_on_c, 3, 60, 76
9, 53499, Note_on_c, 3, 60, 0
9, 53520, Note_on_c, 3, 62, 76
9, 54219, Note_on_c, 3, 62, 0
9, 54240, Note_on_c, 3, 63, 76
9, 54939, Note_on_c, 3, 63, 0
9, 54960, Note_on_c, 3, 65, 76
9, 55659, Note_on_c, 3, 65, 0
9, 55680, Note_on_c, 3, 58, 76
9, 55919, Note_on_c, 3, 58, 0
9, 56400, Note_on_c, 3, 60, 84
9, 56400, Note_on_c, 3, 48, 84
9, 56619, Note_on_c, 3, 60, 0
9, 56619, Note_on_c, 3, 48, 0
9, 56640, Note_on_c, 3, 60, 84
9, 56640, Note_on_c, 3, 48, 84
9, 56859, Note_on_c, 3, 60, 0
9, 56859, Note_on_c, 3, 48, 0
9, 56880, Note_on_c, 3, 60, 84
9, 56880, Note_on_c, 3, 48, 84
9, 57099, Note_on_c, 3, 60, 0
9, 57099, Note_on_c, 3, 48, 0
9, 57120, Note_on_c, 3, 48, 84
9, 57120, Note_on_c, 3, 60, 84
9, 57819, Note_on_c, 3, 48, 0
9, 57819, Note_on_c, 3, 60, 0
9, 57840, Note_on_c, 3, 48, 84
9, 57840, Note_on_c, 3, 60, 84
9, 58059, Note_on_c, 3, 48, 0
9, 58059, Note_on_c, 3, 60, 0
9, 58080, Note_on_c, 3, 48, 84
9, 58080, Note_on_c, 3, 60, 84
9, 58299, Note_on_c, 3, 48, 0
9, 58299, Note_on_c, 3, 60, 0
9, 58320, Note_on_c, 3, 60, 84
9, 58320, Note_on_c, 3, 48, 84
9, 58539, Note_on_c, 3, 60, 0
9, 58539, Note_on_c, 3, 48, 0
9, 58560, Note_on_c, 3, 60, 84
9, 58560, Note_on_c, 3, 48, 84
9, 59259, Note_on_c, 3, 60, 0
9, 59259, Note_on_c, 3, 48, 0
9, 59280, Note_on_c, 3, 48, 84
9, 59280, Note_on_c, 3, 60, 84
9, 59499, Note_on_c, 3, 48, 0
9, 59499, Note_on_c, 3, 60, 0
9, 59520, Note_on_c, 3, 48, 84
9, 59520, Note_on_c, 3, 60, 84
9, 59739, Note_on_c, 3, 48, 0
9, 59739, Note_on_c, 3, 60, 0
9, 59760, Note_on_c, 3, 48, 84
9, 59760, Note_on_c, 3, 60, 84
9, 59979, Note_on_c, 3, 48, 0
9, 59979, Note_on_c, 3, 60, 0
9, 60000, Note_on_c, 3, 48, 84
9, 60000, Note_on_c, 3, 60, 84
9, 60699, Note_on_c, 3, 48, 0
9, 60699, Note_on_c, 3, 60, 0
9, 60720, Note_on_c, 3, 60, 84
9, 60720, Note_on_c, 3, 63, 84
9, 60959, Note_on_c, 3, 60, 0
9, 60959, Note_on_c, 3, 63, 0
9, 60960, Note_on_c, 3, 58, 84
9, 60960, Note_on_c, 3, 61, 84
9, 61179, Note_on_c, 3, 58, 0
9, 61179, Note_on_c, 3, 61, 0
9, 61200, Note_on_c, 3, 60, 84
9, 61200, Note_on_c, 3, 56, 84
9, 61379, Note_on_c, 3, 60, 0
9, 61379, Note_on_c, 3, 56, 0
9, 61440, Note_on_c, 3, 58, 84
9, 61440, Note_on_c, 3, 55, 84
9, 62139, Note_on_c, 3, 58, 0
9, 62139, Note_on_c, 3, 55, 0
9, 62160, Note_on_c, 3, 60, 84
9, 62160, Note_on_c, 3, 56, 84
9, 62859, Note_on_c, 3, 60, 0
9, 62859, Note_on_c, 3, 56, 0
9, 62880, Note_on_c, 3, 56, 84
9, 62880, Note_on_c, 3, 53, 84
9, 63579, Note_on_c, 3, 56, 0
9, 63579, Note_on_c, 3, 53, 0
9, 63600, Note_on_c, 3, 60, 84
9, 63600, Note_on_c, 3, 56, 84
9, 63839, Note_on_c, 3, 60, 0
9, 63839, Note_on_c, 3, 56, 0
9, 63840, Note_on_c, 3, 55, 84
9, 63840, Note_on_c, 3, 58, 84
9, 64059, Note_on_c, 3, 55, 0
9, 64059, Note_on_c, 3, 58, 0
9, 64080, Note_on_c, 3, 53, 84
9, 64080, Note_on_c, 3, 56, 84
9, 64259, Note_on_c, 3, 53, 0
9, 64259, Note_on_c, 3, 56, 0
9, 64320, Note_on_c, 3, 55, 92
9, 64320, Note_on_c, 3, 52, 92
9, 64440, Control_c, 3, 11, 112
9, 65519, Note_on_c, 3, 55, 0
9, 65519, Note_on_c, 3, 52, 0
9, 65520, Note_on_c, 3, 53, 92
9, 65520, Note_on_c, 3, 56, 92
9, 65739, Note_on_c, 3, 53, 0
9, 65739, Note_on_c, 3, 56, 0
9, 65758, Control_c, 3, 11, 127
9, 65760, Note_on_c, 3, 55, 92
9, 65760, Note_on_c, 3, 52, 92
9, 65880, Control_c, 3, 11, 112
9, 66959, Note_on_c, 3, 55, 0
9, 66959, Note_on_c, 3, 52, 0
9, 66960, Note_on_c, 3, 56, 92
9, 66960, Note_on_c, 3, 53, 92
9, 67179, Note_on_c, 3, 56, 0
9, 67179, Note_on_c, 3, 53, 0
9, 67198, Control_c, 3, 11, 127
9, 67200, Note_on_c, 3, 55, 92
9, 67200, Note_on_c, 3, 52, 92
9, 67320, Control_c, 3, 11, 112
9, 67679, Note_on_c, 3, 55, 0
9, 67679, Note_on_c, 3, 52, 0
9, 67680, Note_on_c, 3, 53, 92
9, 67680, Note_on_c, 3, 56, 92
9, 67899, Note_on_c, 3, 53, 0
9, 67899, Note_on_c, 3, 56, 0
9, 67918, Control_c, 3, 11, 127
9, 67920, Note_on_c, 3, 55, 92
9, 67920, Note_on_c, 3, 52, 92
9, 68040, Control_c, 3, 11, 112
9, 68399, Note_on_c, 3, 55, 0
9, 68399, Note_on_c, 3, 52, 0
9, 68400, Note_on_c, 3, 53, 92
9, 68400, Note_on_c, 3, 56, 92
9, 68619, Note_on_c, 3, 53, 0
9, 68619, Note_on_c, 3, 56, 0
9, 68638, Control_c, 3, 11, 127
9, 68640, Control_c, 3, 11, 127
9, 68640, Note_on_c, 3, 52, 84
9, 68640, Note_on_c, 3, 55, 84
9, 68700, Control_c, 3, 11, 120
9, 68760, Control_c, 3, 11, 114
9, 68820, Control_c, 3, 11, 107
9, 68880, Control_c, 3, 11, 101
9, 68940, Control_c, 3, 11, 94
9, 69000, Control_c, 3, 11, 88
9, 69060, Control_c, 3, 11, 81
9, 69120, Control_c, 3, 11, 74
9, 69180, Control_c, 3, 11, 68
9, 69240, Control_c, 3, 11, 61
9, 69300, Control_c, 3, 11, 55
9, 69360, Control_c, 3, 11, 48
9, 69599, Note_on_c, 3, 52, 0
9, 69599, Note_on_c, 3, 55, 0
9, 72240, Control_c, 3, 11, 127
9, 72960, Note_on_c, 3, 67, 52
9, 73439, Note_on_c, 3, 67, 0
9, 73440, Note_on_c, 3, 65, 52
9, 73679, Note_on_c, 3, 65, 0
9, 73680, Note_on_c, 3, 63, 52
9, 74159, Note_on_c, 3, 63, 0
9, 74160, Note_on_c, 3, 67, 52
9, 74379, Note_on_c, 3, 67, 0
9, 74400, Note_on_c, 3, 67, 52
9, 74639, Note_on_c, 3, 67, 0
9, 75840, Note_on_c, 3, 67, 52
9, 76319, Note_on_c, 3, 67, 0
9, 76320, Note_on_c, 3, 63, 52
9, 76559, Note_on_c, 3, 63, 0
9, 76560, Note_on_c, 3, 60, 52
9, 77039, Note_on_c, 3, 60, 0
9, 77040, Note_on_c, 3, 62, 52
9, 77279, Note_on_c, 3, 62, 0
9, 77280, Note_on_c, 3, 63, 52
9, 77519, Note_on_c, 3, 63, 0
9, 79440, Note_on_c, 3, 55, 52
9, 82059, Note_on_c, 3, 55, 0
9, 82080, Note_on_c, 3, 56, 52
9, 82319, Note_on_c, 3, 56, 0
9, 82320, Note_on_c, 3, 55, 52
9, 82799, Note_on_c, 3, 55, 0
9, 82800, Note_on_c, 3, 59, 52
9, 83039, Note_on_c, 3, 59, 0
9, 83040, Note_on_c, 3, 60, 52
9, 83519, Note_on_c, 3, 60, 0
9, 83520, Note_on_c, 3, 56, 52
9, 83759, Note_on_c, 3, 56, 0
9, 83760, Note_on_c, 3, 55, 52
9, 84239, Note_on_c, 3, 55, 0
9, 84240, Note_on_c, 3, 47, 52
9, 84479, Note_on_c, 3, 47, 0
9, 84480, Note_on_c, 3, 48, 52
9, 84939, Note_on_c, 3, 48, 0
9, 84960, Note_on_c, 3, 56, 52
9, 85199, Note_on_c, 3, 56, 0
9, 85200, Note_on_c, 3, 55, 52
9, 85679, Note_on_c, 3, 55, 0
9, 85680, Note_on_c, 3, 59, 52
9, 85919, Note_on_c, 3, 59, 0
9, 85920, Note_on_c, 3, 60, 52
9, 86399, Note_on_c, 3, 60, 0
9, 86400, Note_on_c, 3, 56, 52
9, 86639, Note_on_c, 3, 56, 0
9, 86640, Note_on_c, 3, 55, 52
9, 87119, Note_on_c, 3, 55, 0
9, 87120, Note_on_c, 3, 47, 52
9, 87359, Note_on_c, 3, 47, 0
9, 87360, Note_on_c, 3, 48, 52
9, 87819, Note_on_c, 3, 48, 0
9, 87838, Control_c, 3, 11, 80
9, 87840, Control_c, 3, 11, 80
9, 87840, Note_on_c, 3, 56, 76
9, 87987, Control_c, 3, 11, 81
9, 88079, Note_on_c, 3, 56, 0
9, 88080, Note_on_c, 3, 55, 76
9, 88133, Control_c, 3, 11, 83
9, 88280, Control_c, 3, 11, 84
9, 88427, Control_c, 3, 11, 85
9, 88559, Note_on_c, 3, 55, 0
9, 88560, Note_on_c, 3, 59, 76
9, 88573, Control_c, 3, 11, 87
9, 88720, Control_c, 3, 11, 88
9, 88799, Note_on_c, 3, 59, 0
9, 88800, Note_on_c, 3, 60, 76
9, 88867, Control_c, 3, 11, 89
9, 89013, Control_c, 3, 11, 90
9, 89160, Control_c, 3, 11, 92
9, 89279, Note_on_c, 3, 60, 0
9, 89280, Note_on_c, 3, 58, 76
9, 89307, Control_c, 3, 11, 93
9, 89453, Control_c, 3, 11, 94
9, 89519, Note_on_c, 3, 58, 0
9, 89520, Note_on_c, 3, 56, 76
9, 89600, Control_c, 3, 11, 96
9, 89747, Control_c, 3, 11, 97
9, 89893, Control_c, 3, 11, 98
9, 89999, Note_on_c, 3, 56, 0
9, 90000, Note_on_c, 3, 53, 76
9, 90040, Control_c, 3, 11, 100
9, 90187, Control_c, 3, 11, 101
9, 90239, Note_on_c, 3, 53, 0
9, 90240, Note_on_c, 3, 55, 76
9, 90333, Control_c, 3, 11, 102
9, 90480, Control_c, 3, 11, 104
9, 90627, Control_c, 3, 11, 105
9, 90719, Note_on_c, 3, 55, 0
9, 90720, Note_on_c, 3, 53, 76
9, 90773, Control_c, 3, 11, 106
9, 90920, Control_c, 3, 11, 107
9, 90959, Note_on_c, 3, 53, 0
9, 90960, Note_on_c, 3, 51, 76
9, 91067, Control_c, 3, 11, 109
9, 91213, Control_c, 3, 11, 110
9, 91360, Control_c, 3, 11, 111
9, 91439, Note_on_c, 3, 51, 0
9, 91440, Note_on_c, 3, 50, 76
9, 91507, Control_c, 3, 11, 113
9, 91653, Control_c, 3, 11, 114
9, 91659, Note_on_c, 3, 50, 0
9, 91680, Note_on_c, 3, 48, 76
9, 91800, Control_c, 3, 11, 115
9, 91947, Control_c, 3, 11, 117
9, 92093, Control_c, 3, 11, 118
9, 92159, Note_on_c, 3, 48, 0
9, 92160, Note_on_c, 3, 46, 76
9, 92240, Control_c, 3, 11, 119
9, 92387, Control_c, 3, 11, 120
9, 92399, Note_on_c, 3, 46, 0
9, 92400, Note_on_c, 3, 44, 76
9, 92533, Control_c, 3, 11, 122
9, 92680, Control_c, 3, 11, 123
9, 92827, Control_c, 3, 11, 124
9, 92879, Note_on_c, 3, 44, 0
9, 92880, Note_on_c, 3, 43, 76
9, 92973, Control_c, 3, 11, 127
9, 93119, Note_on_c, 3, 43, 0
9, 93120, Note_on_c, 3, 41, 76
9, 93599, Note_on_c, 3, 41, 0
9, 93600, Note_on_c, 3, 42, 76
9, 93819, Note_on_c, 3, 42, 0
9, 93840, Note_on_c, 3, 43, 76
9, 94059, Note_on_c, 3, 43, 0
9, 94080, Note_on_c, 3, 55, 76
9, 94299, Note_on_c, 3, 55, 0
9, 94320, Note_on_c, 3, 55, 76
9, 94539, Note_on_c, 3, 55, 0
9, 94560, Note_on_c, 3, 48, 76
9, 94799, Note_on_c, 3, 48, 0
9, 95280, Note_on_c, 3, 59, 84
9, 95280, Note_on_c, 3, 62, 84
9, 95979, Note_on_c, 3, 59, 0
9, 95979, Note_on_c, 3, 62, 0
9, 96000, Note_on_c, 3, 60, 84
9, 96000, Note_on_c, 3, 63, 84
9, 96699, Note_on_c, 3, 60, 0
9, 96699, Note_on_c, 3, 63, 0
9, 96720, Note_on_c, 3, 65, 84
9, 96720, Note_on_c, 3, 62, 84
9, 97419, Note_on_c, 3, 65, 0
9, 97419, Note_on_c, 3, 62, 0
9, 97440, Note_on_c, 3, 67, 84
9, 97440, Note_on_c, 3, 63, 84
9, 98139, Note_on_c, 3, 67, 0
9, 98139, Note_on_c, 3, 63, 0
9, 98160, Note_on_c, 3, 58, 52
9, 98160, Note_on_c, 3, 55, 52
9, 98379, Note_on_c, 3, 58, 0
9, 98379, Note_on_c, 3, 55, 0
9, 98400, Note_on_c, 3, 55, 52
9, 98400, Note_on_c, 3, 58, 52
9, 98619, Note_on_c, 3, 55, 0
9, 98619, Note_on_c, 3, 58, 0
9, 98640, Note_on_c, 3, 55, 52
9, 98640, Note_on_c, 3, 58, 52
9, 98859, Note_on_c, 3, 55, 0
9, 98859, Note_on_c, 3, 58, 0
9, 98880, Note_on_c, 3, 53, 52
9, 98880, Note_on_c, 3, 56, 52
9, 99059, Note_on_c, 3, 53, 0
9, 99059, Note_on_c, 3, 56, 0
9, 99600, Note_on_c, 3, 59, 52
9, 99600, Note_on_c, 3, 55, 52
9, 99779, Note_on_c, 3, 59, 0
9, 99779, Note_on_c, 3, 55, 0
9, 100320, Note_on_c, 3, 60, 52
9, 100320, Note_on_c, 3, 48, 52
9, 100499, Note_on_c, 3, 60, 0
9, 100499, Note_on_c, 3, 48, 0
9, 105120, Note_on_c, 3, 57, 76
9, 105339, Note_on_c, 3, 57, 0
9, 105360, Note_on_c, 3, 54, 76
9, 105459, Note_on_c, 3, 54, 0
9, 105480, Note_on_c, 3, 55, 76
9, 105579, Note_on_c, 3, 55, 0
9, 105600, Note_on_c, 3, 57, 76
9, 105699, Note_on_c, 3, 57, 0
9, 105720, Note_on_c, 3, 50, 76
9, 105819, Note_on_c, 3, 50, 0
9, 105840, Note_on_c, 3, 52, 76
9, 105939, Note_on_c, 3, 52, 0
9, 105960, Note_on_c, 3, 54, 76
9, 106059, Note_on_c, 3, 54, 0
9, 106080, Note_on_c, 3, 55, 76
9, 106179, Note_on_c, 3, 55, 0
9, 106200, Note_on_c, 3, 54, 76
9, 106299, Note_on_c, 3, 54, 0
9, 106320, Note_on_c, 3, 55, 76
9, 106419, Note_on_c, 3, 55, 0
9, 106440, Note_on_c, 3, 57, 76
9, 106539, Note_on_c, 3, 57, 0
9, 106560, Note_on_c, 3, 59, 76
9, 106659, Note_on_c, 3, 59, 0
9, 106680, Note_on_c, 3, 61, 76
9, 106779, Note_on_c, 3, 61, 0
9, 106800, Note_on_c, 3, 62, 76
9, 107259, Note_on_c, 3, 62, 0
9, 107280, Note_on_c, 3, 60, 76
9, 107499, Note_on_c, 3, 60, 0
9, 107520, Note_on_c, 3, 59, 76
9, 107739, Note_on_c, 3, 59, 0
9, 107760, Note_on_c, 3, 55, 76
9, 107979, Note_on_c, 3, 55, 0
9, 108000, Note_on_c, 3, 64, 76
9, 108219, Note_on_c, 3, 64, 0
9, 108240, Note_on_c, 3, 60, 76
9, 108459, Note_on_c, 3, 60, 0
9, 108480, Note_on_c, 3, 57, 76
9, 108699, Note_on_c, 3, 57, 0
9, 108720, Note_on_c, 3, 65, 76
9, 108939, Note_on_c, 3, 65, 0
9, 108960, Note_on_c, 3, 62, 76
9, 109179, Note_on_c, 3, 62, 0
9, 109200, Note_on_c, 3, 59, 76
9, 109419, Note_on_c, 3, 59, 0
9, 109440, Note_on_c, 3, 67, 76
9, 109659, Note_on_c, 3, 67, 0
9, 109680, Note_on_c, 3, 55, 76
9, 109680, Note_on_c, 3, 43, 76
9, 110379, Note_on_c, 3, 55, 0
9, 110379, Note_on_c, 3, 43, 0
9, 110400, Note_on_c, 3, 60, 76
9, 110400, Note_on_c, 3, 48, 76
9, 111099, Note_on_c, 3, 60, 0
9, 111099, Note_on_c, 3, 48, 0
9, 111120, Note_on_c, 3, 62, 76
9, 111120, Note_on_c, 3, 50, 76
9, 111819, Note_on_c, 3, 62, 0
9, 111819, Note_on_c, 3, 50, 0
9, 111840, Note_on_c, 3, 55, 76
9, 111840, Note_on_c, 3, 67, 76
9, 112539, Note_on_c, 3, 55, 0
9, 112539, Note_on_c, 3, 67, 0
9, 112560, Note_on_c, 3, 62, 76
9, 113019, Note_on_c, 3, 62, 0
9, 113040, Note_on_c, 3, 62, 76
9, 113040, Note_on_c, 3, 59, 76
9, 113139, Note_on_c, 3, 62, 0
9, 113139, Note_on_c, 3, 59, 0
9, 113160, Note_on_c, 3, 57, 76
9, 113160, Note_on_c, 3, 60, 76
9, 113259, Note_on_c, 3, 57, 0
9, 113259, Note_on_c, 3, 60, 0
9, 113280, Note_on_c, 3, 59, 76
9, 113280, Note_on_c, 3, 55, 76
9, 113519, Note_on_c, 3, 59, 0
9, 113519, Note_on_c, 3, 55, 0
9, 114000, Note_on_c, 3, 55, 76
9, 114000, Note_on_c, 3, 59, 76
9, 114239, Note_on_c, 3, 55, 0
9, 114239, Note_on_c, 3, 59, 0
9, 114720, Note_on_c, 3, 59, 76
9, 114720, Note_on_c, 3, 55, 76
9, 114959, Note_on_c, 3, 59, 0
9, 114959, Note_on_c, 3, 55, 0
9, 119520, Note_on_c, 3, 57, 76
9, 119739, Note_on_c, 3, 57, 0
9, 119760, Note_on_c, 3, 54, 76
9, 119859, Note_on_c, 3, 54, 0
9, 119880, Note_on_c, 3, 55, 76
9, 119979, Note_on_c, 3, 55, 0
9, 120000, Note_on_c, 3, 57, 76
9, 120099, Note_on_c, 3, 57, 0
9, 120120, Note_on_c, 3, 50, 76
9, 120219, Note_on_c, 3, 50, 0
9, 120240, Note_on_c, 3, 52, 76
9, 120339, Note_on_c, 3, 52, 0
9, 120360, Note_on_c, 3, 54, 76
9, 120459, Note_on_c, 3, 54, 0
9, 120480, Note_on_c, 3, 55, 76
9, 120579, Note_on_c, 3, 55, 0
9, 120600, Note_on_c, 3, 54, 76
9, 120699, Note_on_c, 3, 54, 0
9, 120720, Note_on_c, 3, 55, 76
9, 120819, Note_on_c, 3, 55, 0
9, 120840, Note_on_c, 3, 57, 76
9, 120939, Note_on_c, 3, 57, 0
9, 120960, Note_on_c, 3, 59, 76
9, 121059, Note_on_c, 3, 59, 0
9, 121080, Note_on_c, 3, 61, 76
9, 121179, Note_on_c, 3, 61, 0
9, 121200, Note_on_c, 3, 62, 76
9, 121659, Note_on_c, 3, 62, 0
9, 121680, Note_on_c, 3, 60, 76
9, 121899, Note_on_c, 3, 60, 0
9, 121920, Note_on_c, 3, 59, 76
9, 122139, Note_on_c, 3, 59, 0
9, 122160, Note_on_c, 3, 55, 76
9, 122379, Note_on_c, 3, 55, 0
9, 122400, Note_on_c, 3, 64, 76
9, 122619, Note_on_c, 3, 64, 0
9, 122640, Note_on_c, 3, 60, 76
9, 122859, Note_on_c, 3, 60, 0
9, 122880, Note_on_c, 3, 57, 76
9, 123099, Note_on_c, 3, 57, 0
9, 123120, Note_on_c, 3, 65, 76
9, 123339, Note_on_c, 3, 65, 0
9, 123360, Note_on_c, 3, 62, 76
9, 123579, Note_on_c, 3, 62, 0
9, 123600, Note_on_c, 3, 59, 76
9, 123819, Note_on_c, 3, 59, 0
9, 123840, Note_on_c, 3, 67, 76
9, 124059, Note_on_c, 3, 67, 0
9, 124080, Note_on_c, 3, 55, 76
9, 124080, Note_on_c, 3, 43, 76
9, 124779, Note_on_c, 3, 55, 0
9, 124779, Note_on_c, 3, 43, 0
9, 124800, Note_on_c, 3, 60, 76
9, 124800, Note_on_c, 3, 48, 76
9, 125499, Note_on_c, 3, 60, 0
9, 125499, Note_on_c, 3, 48, 0
9, 125520, Note_on_c, 3, 50, 76
9, 125520, Note_on_c, 3, 62, 76
9, 126219, Note_on_c, 3, 50, 0
9, 126219, Note_on_c, 3, 62, 0
9, 126240, Note_on_c, 3, 55, 76
9, 126240, Note_on_c, 3, 67, 76
9, 126939, Note_on_c, 3, 55, 0
9, 126939, Note_on_c, 3, 67, 0
9, 126960, Note_on_c, 3, 62, 76
9, 127419, Note_on_c, 3, 62, 0
9, 127440, Note_on_c, 3, 62, 76
9, 127440, Note_on_c, 3, 59, 76
9, 127539, Note_on_c, 3, 62, 0
9, 127539, Note_on_c, 3, 59, 0
9, 127560, Note_on_c, 3, 60, 76
9, 127560, Note_on_c, 3, 57, 76
9, 127659, Note_on_c, 3, 60, 0
9, 127659, Note_on_c, 3, 57, 0
9, 127680, Note_on_c, 3, 59, 76
9, 127680, Note_on_c, 3, 55, 76
9, 127919, Note_on_c, 3, 59, 0
9, 127919, Note_on_c, 3, 55, 0
9, 128400, Note_on_c, 3, 55, 76
9, 128400, Note_on_c, 3, 59, 76
9, 128639, Note_on_c, 3, 55, 0
9, 128639, Note_on_c, 3, 59, 0
9, 129120, Note_on_c, 3, 59, 76
9, 129120, Note_on_c, 3, 55, 76
9, 129359, Note_on_c, 3, 59, 0
9, 129359, Note_on_c, 3, 55, 0
9, 136080, Note_on_c, 3, 60, 76
9, 136299, Note_on_c, 3, 60, 0
9, 136320, Note_on_c, 3, 59, 76
9, 136419, Note_on_c, 3, 59, 0
9, 136440, Note_on_c, 3, 60, 76
9, 136539, Note_on_c, 3, 60, 0
9, 136560, Note_on_c, 3, 62, 76
9, 136659, Note_on_c, 3, 62, 0
9, 136680, Note_on_c, 3, 55, 76
9, 136779, Note_on_c, 3, 55, 0
9, 136800, Note_on_c, 3, 57, 76
9, 136899, Note_on_c, 3, 57, 0
9, 136920, Note_on_c, 3, 59, 76
9, 137019, Note_on_c, 3, 59, 0
9, 137040, Note_on_c, 3, 60, 76
9, 137139, Note_on_c, 3, 60, 0
9, 137160, Note_on_c, 3, 59, 76
9, 137259, Note_on_c, 3, 59, 0
9, 137280, Note_on_c, 3, 60, 76
9, 137379, Note_on_c, 3, 60, 0
9, 137400, Note_on_c, 3, 62, 76
9, 137499, Note_on_c, 3, 62, 0
9, 137520, Note_on_c, 3, 64, 76
9, 137619, Note_on_c, 3, 64, 0
9, 137640, Note_on_c, 3, 65, 76
9, 137739, Note_on_c, 3, 65, 0
9, 137760, Note_on_c, 3, 67, 76
9, 138219, Note_on_c, 3, 67, 0
9, 138240, Note_on_c, 3, 65, 76
9, 138459, Note_on_c, 3, 65, 0
9, 138480, Note_on_c, 3, 64, 76
9, 138699, Note_on_c, 3, 64, 0
9, 138720, Note_on_c, 3, 60, 76
9, 138959, Note_on_c, 3, 60, 0
9, 141840, Note_on_c, 3, 65, 76
9, 142299, Note_on_c, 3, 65, 0
9, 142320, Note_on_c, 3, 55, 76
9, 142539, Note_on_c, 3, 55, 0
9, 142560, Note_on_c, 3, 65, 76
9, 143019, Note_on_c, 3, 65, 0
9, 143040, Note_on_c, 3, 64, 76
9, 143279, Note_on_c, 3, 64, 0
9, 144720, Note_on_c, 3, 60, 76
9, 144939, Note_on_c, 3, 60, 0
9, 144960, Note_on_c, 3, 59, 76
9, 145059, Note_on_c, 3, 59, 0
9, 145080, Note_on_c, 3, 60, 76
9, 145179, Note_on_c, 3, 60, 0
9, 145200, Note_on_c, 3, 62, 76
9, 145299, Note_on_c, 3, 62, 0
9, 145320, Note_on_c, 3, 55, 76
9, 145419, Note_on_c, 3, 55, 0
9, 145440, Note_on_c, 3, 57, 76
9, 145539, Note_on_c, 3, 57, 0
9, 145560, Note_on_c, 3, 59, 76
9, 145659, Note_on_c, 3, 59, 0
9, 145680, Note_on_c, 3, 60, 76
9, 145779, Note_on_c, 3, 60, 0
9, 145800, Note_on_c, 3, 59, 76
9, 145899, Note_on_c, 3, 59, 0
9, 145920, Note_on_c, 3, 60, 76
9, 146019, Note_on_c, 3, 60, 0
9, 146040, Note_on_c, 3, 62, 76
9, 146139, Note_on_c, 3, 62, 0
9, 146160, Note_on_c, 3, 64, 76
9, 146160, Note_on_c, 3, 60, 76
9, 146259, Note_on_c, 3, 64, 0
9, 146280, Note_on_c, 3, 65, 76
9, 146379, Note_on_c, 3, 60, 0
9, 146379, Note_on_c, 3, 65, 0
9, 146400, Note_on_c, 3, 59, 84
9, 146400, Note_on_c, 3, 67, 84
9, 146520, Control_c, 3, 11, 112
9, 146859, Note_on_c, 3, 59, 0
9, 146859, Note_on_c, 3, 67, 0
9, 146880, Note_on_c, 3, 65, 84
9, 146880, Note_on_c, 3, 62, 84
9, 147059, Note_on_c, 3, 65, 0
9, 147059, Note_on_c, 3, 62, 0
9, 147120, Note_on_c, 3, 60, 84
9, 147120, Note_on_c, 3, 64, 84
9, 147299, Note_on_c, 3, 60, 0
9, 147299, Note_on_c, 3, 64, 0
9, 147360, Note_on_c, 3, 60, 84
9, 147360, Note_on_c, 3, 55, 84
9, 147539, Note_on_c, 3, 60, 0
9, 147539, Note_on_c, 3, 55, 0
9, 147600, Note_on_c, 3, 60, 84
9, 147600, Note_on_c, 3, 64, 84
9, 147779, Note_on_c, 3, 60, 0
9, 147779, Note_on_c, 3, 64, 0
9, 147838, Control_c, 3, 11, 127
9, 147840, Note_on_c, 3, 67, 84
9, 147840, Note_on_c, 3, 59, 84
9, 147960, Control_c, 3, 11, 112
9, 148299, Note_on_c, 3, 67, 0
9, 148299, Note_on_c, 3, 59, 0
9, 148320, Note_on_c, 3, 65, 84
9, 148320, Note_on_c, 3, 62, 84
9, 148539, Note_on_c, 3, 65, 0
9, 148539, Note_on_c, 3, 62, 0
9, 148560, Note_on_c, 3, 64, 84
9, 148560, Note_on_c, 3, 60, 84
9, 148739, Note_on_c, 3, 64, 0
9, 148739, Note_on_c, 3, 60, 0
9, 148800, Note_on_c, 3, 60, 84
9, 148800, Note_on_c, 3, 55, 84
9, 148979, Note_on_c, 3, 60, 0
9, 148979, Note_on_c, 3, 55, 0
9, 149040, Note_on_c, 3, 64, 84
9, 149040, Note_on_c, 3, 60, 84
9, 149219, Note_on_c, 3, 64, 0
9, 149219, Note_on_c, 3, 60, 0
9, 149278, Control_c, 3, 11, 127
9, 149280, Note_on_c, 3, 59, 84
9, 149280, Note_on_c, 3, 67, 84
9, 149400, Control_c, 3, 11, 112
9, 149739, Note_on_c, 3, 59, 0
9, 149739, Note_on_c, 3, 67, 0
9, 149760, Note_on_c, 3, 62, 84
9, 149760, Note_on_c, 3, 65, 84
9, 149939, Note_on_c, 3, 62, 0
9, 149939, Note_on_c, 3, 65, 0
9, 149998, Control_c, 3, 11, 127
9, 150000, Note_on_c, 3, 60, 76
9, 150000, Note_on_c, 3, 64, 76
9, 150179, Note_on_c, 3, 60, 0
9, 150179, Note_on_c, 3, 64, 0
9, 150240, Note_on_c, 3, 60, 76
9, 150240, Note_on_c, 3, 57, 76
9, 150419, Note_on_c, 3, 60, 0
9, 150419, Note_on_c, 3, 57, 0
9, 150480, Note_on_c, 3, 65, 76
9, 150480, Note_on_c, 3, 57, 76
9, 150659, Note_on_c, 3, 65, 0
9, 150659, Note_on_c, 3, 57, 0
9, 150720, Note_on_c, 3, 62, 76
9, 150720, Note_on_c, 3, 59, 76
9, 150939, Note_on_c, 3, 62, 0
9, 150939, Note_on_c, 3, 59, 0
9, 150960, Note_on_c, 3, 55, 76
9, 150960, Note_on_c, 3, 59, 76
9, 151179, Note_on_c, 3, 55, 0
9, 151179, Note_on_c, 3, 59, 0
9, 151200, Note_on_c, 3, 55, 76
9, 151200, Note_on_c, 3, 64, 76
9, 151419, Note_on_c, 3, 55, 0
9, 151419, Note_on_c, 3, 64, 0
9, 151440, Note_on_c, 3, 57, 76
9, 151440, Note_on_c, 3, 60, 76
9, 151659, Note_on_c, 3, 57, 0
9, 151659, Note_on_c, 3, 60, 0
9, 151680, Note_on_c, 3, 53, 76
9, 151680, Note_on_c, 3, 57, 76
9, 151899, Note_on_c, 3, 53, 0
9, 151899, Note_on_c, 3, 57, 0
9, 151920, Note_on_c, 3, 62, 76
9, 151920, Note_on_c, 3, 53, 76
9, 152139, Note_on_c, 3, 62, 0
9, 152139, Note_on_c, 3, 53, 0
9, 152160, Note_on_c, 3, 50, 76
9, 152160, Note_on_c, 3, 59, 76
9, 152379, Note_on_c, 3, 50, 0
9, 152379, Note_on_c, 3, 59, 0
9, 152400, Note_on_c, 3, 47, 76
9, 152400, Note_on_c, 3, 55, 76
9, 152619, Note_on_c, 3, 47, 0
9, 152619, Note_on_c, 3, 55, 0
9, 152640, Note_on_c, 3, 62, 76
9, 152640, Note_on_c, 3, 53, 76
9, 152859, Note_on_c, 3, 62, 0
9, 152859, Note_on_c, 3, 53, 0
9, 152880, Note_on_c, 3, 50, 76
9, 152880, Note_on_c, 3, 59, 76
9, 153099, Note_on_c, 3, 50, 0
9, 153099, Note_on_c, 3, 59, 0
9, 153120, Note_on_c, 3, 59, 76
9, 153120, Note_on_c, 3, 67, 76
9, 153339, Note_on_c, 3, 59, 0
9, 153339, Note_on_c, 3, 67, 0
9, 153360, Note_on_c, 3, 59, 76
9, 153360, Note_on_c, 3, 53, 76
9, 153579, Note_on_c, 3, 59, 0
9, 153579, Note_on_c, 3, 53, 0
9, 153600, Note_on_c, 3, 60, 76
9, 153600, Note_on_c, 3, 52, 76
9, 153839, Note_on_c, 3, 60, 0
9, 153839, Note_on_c, 3, 52, 0
9, 154320, Note_on_c, 3, 60, 76
9, 154320, Note_on_c, 3, 52, 76
9, 154559, Note_on_c, 3, 60, 0
9, 154559, Note_on_c, 3, 52, 0
9, 155040, Note_on_c, 3, 52, 76
9, 155040, Note_on_c, 3, 60, 76
9, 155279, Note_on_c, 3, 52, 0
9, 155279, Note_on_c, 3, 60, 0
9, 167760, Note_on_c, 3, 53, 44
9, 167760, Note_on_c, 3, 65, 44
9, 167979, Note_on_c, 3, 53, 0
9, 167979, Note_on_c, 3, 65, 0
9, 168000, Note_on_c, 3, 62, 44
9, 168000, Note_on_c, 3, 55, 44
9, 168699, Note_on_c, 3, 62, 0
9, 168699, Note_on_c, 3, 55, 0
9, 168720, Note_on_c, 3, 60, 44
9, 168720, Note_on_c, 3, 48, 44
9, 169419, Note_on_c, 3, 60, 0
9, 169419, Note_on_c, 3, 48, 0
9, 169440, Note_on_c, 3, 60, 44
9, 169440, Note_on_c, 3, 48, 44
9, 170139, Note_on_c, 3, 60, 0
9, 170139, Note_on_c, 3, 48, 0
9, 170160, Note_on_c, 3, 41, 44
9, 170160, Note_on_c, 3, 53, 44
9, 170859, Note_on_c, 3, 41, 0
9, 170859, Note_on_c, 3, 53, 0
9, 170880, Note_on_c, 3, 43, 44
9, 170880, Note_on_c, 3, 55, 44
9, 172299, Note_on_c, 3, 43, 0
9, 172299, Note_on_c, 3, 55, 0
9, 172320, Note_on_c, 3, 55, 44
9, 172320, Note_on_c, 3, 43, 44
9, 173739, Note_on_c, 3, 55, 0
9, 173739, Note_on_c, 3, 43, 0
9, 173760, Note_on_c, 3, 55, 44
9, 173760, Note_on_c, 3, 43, 44
9, 174459, Note_on_c, 3, 55, 0
9, 174459, Note_on_c, 3, 43, 0
9, 174480, Note_on_c, 3, 55, 44
9, 174480, Note_on_c, 3, 43, 44
9, 175179, Note_on_c, 3, 55, 0
9, 175179, Note_on_c, 3, 43, 0
9, 175200, Note_on_c, 3, 43, 44
9, 175200, Note_on_c, 3, 55, 44
9, 175439, Note_on_c, 3, 43, 0
9, 175439, Note_on_c, 3, 55, 0
9, 177360, Note_on_c, 3, 67, 44
9, 177599, Note_on_c, 3, 67, 0
9, 177600, Note_on_c, 3, 65, 44
9, 177839, Note_on_c, 3, 65, 0
9, 177840, Note_on_c, 3, 62, 44
9, 178079, Note_on_c, 3, 62, 0
9, 178080, Note_on_c, 3, 59, 44
9, 178319, Note_on_c, 3, 59, 0
9, 178800, Note_on_c, 3, 56, 44
9, 179039, Note_on_c, 3, 56, 0
9, 179520, Note_on_c, 3, 55, 44
9, 179759, Note_on_c, 3, 55, 0
9, 187440, Note_on_c, 3, 55, 44
9, 187920, Note_on_c, 3, 59, 44
9, 188159, Note_on_c, 3, 59, 0
9, 188160, Note_on_c, 3, 60, 44
9, 188399, Note_on_c, 3, 55, 0
9, 188399, Note_on_c, 3, 60, 0
9, 188640, Note_on_c, 3, 62, 44
9, 188640, Note_on_c, 3, 59, 44
9, 188859, Note_on_c, 3, 62, 0
9, 188859, Note_on_c, 3, 59, 0
9, 188880, Note_on_c, 3, 62, 44
9, 188880, Note_on_c, 3, 65, 44
9, 189119, Note_on_c, 3, 62, 0
9, 189119, Note_on_c, 3, 65, 0
9, 189360, Note_on_c, 3, 60, 44
9, 189360, Note_on_c, 3, 63, 44
9, 189579, Note_on_c, 3, 60, 0
9, 189579, Note_on_c, 3, 63, 0
9, 189600, Note_on_c, 3, 62, 44
9, 189600, Note_on_c, 3, 59, 44
9, 190059, Note_on_c, 3, 62, 0
9, 190059, Note_on_c, 3, 59, 0
9, 190080, Note_on_c, 3, 43, 52
9, 190299, Note_on_c, 3, 43, 0
9, 190320, Note_on_c, 3, 48, 52
9, 190539, Note_on_c, 3, 48, 0
9, 190560, Note_on_c, 3, 51, 52
9, 190779, Note_on_c, 3, 51, 0
9, 190800, Note_on_c, 3, 55, 52
9, 191019, Note_on_c, 3, 55, 0
9, 191040, Note_on_c, 3, 60, 52
9, 191259, Note_on_c, 3, 60, 0
9, 191520, Note_on_c, 3, 63, 52
9, 191739, Note_on_c, 3, 63, 0
9, 191760, Note_on_c, 3, 62, 52
9, 191999, Note_on_c, 3, 62, 0
9, 192240, Note_on_c, 3, 54, 52
9, 192459, Note_on_c, 3, 54, 0
9, 192480, Note_on_c, 3, 55, 52
9, 192719, Note_on_c, 3, 55, 0
9, 192960, Note_on_c, 3, 49, 52
9, 193179, Note_on_c, 3, 49, 0
9, 193200, Note_on_c, 3, 50, 52
9, 193439, Note_on_c, 3, 50, 0
9, 193680, Note_on_c, 3, 49, 52
9, 193899, Note_on_c, 3, 49, 0
9, 193920, Note_on_c, 3, 50, 52
9, 194159, Note_on_c, 3, 50, 0
9, 194400, Note_on_c, 3, 48, 52
9, 194619, Note_on_c, 3, 48, 0
9, 194640, Note_on_c, 3, 47, 52
9, 194879, Note_on_c, 3, 47, 0
9, 195120, Note_on_c, 3, 43, 52
9, 195339, Note_on_c, 3, 43, 0
9, 195360, Note_on_c, 3, 48, 52
9, 195599, Note_on_c, 3, 48, 0
9, 195840, Note_on_c, 3, 47, 52
9, 196059, Note_on_c, 3, 47, 0
9, 196080, Note_on_c, 3, 48, 52
9, 196319, Note_on_c, 3, 48, 0
9, 196560, Note_on_c, 3, 42, 52
9, 196779, Note_on_c, 3, 42, 0
9, 196800, Note_on_c, 3, 43, 52
9, 197039, Note_on_c, 3, 43, 0
9, 200400, Note_on_c, 3, 62, 44
9, 200639, Note_on_c, 3, 62, 0
9, 201120, Note_on_c, 3, 60, 44
9, 201359, Note_on_c, 3, 60, 0
9, 201840, Note_on_c, 3, 60, 44
9, 202079, Note_on_c, 3, 60, 0
9, 202560, Note_on_c, 3, 53, 44
9, 202799, Note_on_c, 3, 53, 0
9, 206160, Note_on_c, 3, 60, 44
9, 206399, Note_on_c, 3, 60, 0
9, 206880, Note_on_c, 3, 65, 44
9, 207119, Note_on_c, 3, 65, 0
9, 207600, Note_on_c, 3, 65, 44
9, 207839, Note_on_c, 3, 65, 0
9, 208320, Note_on_c, 3, 58, 44
9, 208559, Note_on_c, 3, 58, 0
9, 209040, Note_on_c, 3, 56, 44
9, 209279, Note_on_c, 3, 56, 0
9, 209760, Note_on_c, 3, 61, 44
9, 209999, Note_on_c, 3, 61, 0
9, 210480, Note_on_c, 3, 58, 44
9, 210719, Note_on_c, 3, 58, 0
9, 211200, Note_on_c, 3, 60, 44
9, 211439, Note_on_c, 3, 60, 0
9, 211680, Note_on_c, 3, 61, 44
9, 211899, Note_on_c, 3, 61, 0
9, 211920, Note_on_c, 3, 60, 44
9, 212159, Note_on_c, 3, 60, 0
9, 212400, Note_on_c, 3, 60, 44
9, 212619, Note_on_c, 3, 60, 0
9, 212640, Note_on_c, 3, 60, 44
9, 212879, Note_on_c, 3, 60, 0
9, 213120, Note_on_c, 3, 61, 44
9, 213339, Note_on_c, 3, 61, 0
9, 213360, Note_on_c, 3, 60, 44
9, 213599, Note_on_c, 3, 60, 0
9, 213840, Note_on_c, 3, 60, 44
9, 214059, Note_on_c, 3, 60, 0
9, 214080, Note_on_c, 3, 60, 44
9, 214319, Note_on_c, 3, 60, 0
9, 214560, Note_on_c, 3, 60, 44
9, 214779, Note_on_c, 3, 60, 0
9, 214800, Note_on_c, 3, 60, 44
9, 215039, Note_on_c, 3, 60, 0
9, 215280, Note_on_c, 3, 60, 44
9, 215499, Note_on_c, 3, 60, 0
9, 215520, Note_on_c, 3, 60, 44
9, 215759, Note_on_c, 3, 60, 0
9, 216000, Note_on_c, 3, 43, 44
9, 216219, Note_on_c, 3, 43, 0
9, 216240, Note_on_c, 3, 48, 44
9, 216459, Note_on_c, 3, 48, 0
9, 216480, Note_on_c, 3, 51, 44
9, 216699, Note_on_c, 3, 51, 0
9, 216720, Note_on_c, 3, 55, 44
9, 216939, Note_on_c, 3, 55, 0
9, 216960, Note_on_c, 3, 60, 44
9, 217199, Note_on_c, 3, 60, 0
9, 217440, Note_on_c, 3, 63, 44
9, 217659, Note_on_c, 3, 63, 0
9, 217680, Note_on_c, 3, 62, 44
9, 217919, Note_on_c, 3, 62, 0
9, 218160, Note_on_c, 3, 54, 44
9, 218379, Note_on_c, 3, 54, 0
9, 218400, Note_on_c, 3, 55, 44
9, 218639, Note_on_c, 3, 55, 0
9, 219120, Note_on_c, 3, 67, 44
9, 219359, Note_on_c, 3, 67, 0
9, 219600, Note_on_c, 3, 65, 44
9, 219600, Note_on_c, 3, 67, 44
9, 219819, Note_on_c, 3, 65, 0
9, 219819, Note_on_c, 3, 67, 0
9, 219840, Note_on_c, 3, 63, 44
9, 219840, Note_on_c, 3, 67, 44
9, 220079, Note_on_c, 3, 63, 0
9, 220079, Note_on_c, 3, 67, 0
9, 220320, Note_on_c, 3, 65, 44
9, 220320, Note_on_c, 3, 62, 44
9, 220539, Note_on_c, 3, 65, 0
9, 220539, Note_on_c, 3, 62, 0
9, 220560, Note_on_c, 3, 63, 44
9, 220560, Note_on_c, 3, 60, 44
9, 220799, Note_on_c, 3, 63, 0
9, 220799, Note_on_c, 3, 60, 0
9, 221040, Note_on_c, 3, 67, 44
9, 221040, Note_on_c, 3, 63, 44
9, 221259, Note_on_c, 3, 67, 0
9, 221259, Note_on_c, 3, 63, 0
9, 221280, Note_on_c, 3, 55, 44
9, 221280, Note_on_c, 3, 67, 44
9, 221519, Note_on_c, 3, 55, 0
9, 221519, Note_on_c, 3, 67, 0
9, 222000, Note_on_c, 3, 55, 44
9, 222000, Note_on_c, 3, 67, 44
9, 222239, Note_on_c, 3, 55, 0
9, 222239, Note_on_c, 3, 67, 0
9, 222480, Note_on_c, 3, 65, 44
9, 222480, Note_on_c, 3, 62, 44
9, 222699, Note_on_c, 3, 65, 0
9, 222699, Note_on_c, 3, 62, 0
9, 222720, Note_on_c, 3, 63, 44
9, 222720, Note_on_c, 3, 67, 44
9, 222959, Note_on_c, 3, 63, 0
9, 222959, Note_on_c, 3, 67, 0
9, 223200, Note_on_c, 3, 60, 44
9, 223200, Note_on_c, 3, 63, 44
9, 223419, Note_on_c, 3, 60, 0
9, 223419, Note_on_c, 3, 63, 0
9, 223440, Note_on_c, 3, 60, 44
9, 223440, Note_on_c, 3, 57, 44
9, 223679, Note_on_c, 3, 60, 0
9, 223679, Note_on_c, 3, 57, 0
9, 223920, Note_on_c, 3, 59, 44
9, 223920, Note_on_c, 3, 62, 44
9, 224139, Note_on_c, 3, 59, 0
9, 224139, Note_on_c, 3, 62, 0
9, 224160, Note_on_c, 3, 60, 44
9, 224160, Note_on_c, 3, 63, 44
9, 224399, Note_on_c, 3, 60, 0
9, 224399, Note_on_c, 3, 63, 0
9, 225120, Note_on_c, 3, 68, 44
9, 225339, Note_on_c, 3, 68, 0
9, 225360, Note_on_c, 3, 67, 44
9, 225599, Note_on_c, 3, 67, 0
9, 225840, Note_on_c, 3, 68, 44
9, 225840, Note_on_c, 3, 65, 44
9, 226059, Note_on_c, 3, 68, 0
9, 226059, Note_on_c, 3, 65, 0
9, 226080, Note_on_c, 3, 67, 44
9, 226080, Note_on_c, 3, 63, 44
9, 226319, Note_on_c, 3, 67, 0
9, 226319, Note_on_c, 3, 63, 0
9, 226560, Note_on_c, 3, 62, 44
9, 226560, Note_on_c, 3, 65, 44
9, 226779, Note_on_c, 3, 62, 0
9, 226779, Note_on_c, 3, 65, 0
9, 226800, Note_on_c, 3, 63, 44
9, 226800, Note_on_c, 3, 67, 44
9, 227039, Note_on_c, 3, 63, 0
9, 227039, Note_on_c, 3, 67, 0
9, 227280, Note_on_c, 3, 67, 44
9, 227280, Note_on_c, 3, 63, 44
9, 227499, Note_on_c, 3, 67, 0
9, 227499, Note_on_c, 3, 63, 0
9, 227520, Note_on_c, 3, 68, 44
9, 227520, Note_on_c, 3, 65, 44
9, 227759, Note_on_c, 3, 68, 0
9, 227759, Note_on_c, 3, 65, 0
9, 228000, Note_on_c, 3, 65, 44
9, 228000, Note_on_c, 3, 62, 44
9, 228219, Note_on_c, 3, 65, 0
9, 228219, Note_on_c, 3, 62, 0
9, 228240, Note_on_c, 3, 63, 44
9, 228240, Note_on_c, 3, 67, 44
9, 228459, Note_on_c, 3, 63, 0
9, 228459, Note_on_c, 3, 67, 0
9, 228480, Note_on_c, 3, 63, 44
9, 228480, Note_on_c, 3, 67, 44
9, 228699, Note_on_c, 3, 63, 0
9, 228699, Note_on_c, 3, 67, 0
9, 228720, Note_on_c, 3, 65, 44
9, 228720, Note_on_c, 3, 62, 44
9, 228939, Note_on_c, 3, 65, 0
9, 228939, Note_on_c, 3, 62, 0
9, 228960, Note_on_c, 3, 56, 44
9, 229179, Note_on_c, 3, 56, 0
9, 229200, Note_on_c, 3, 55, 44
9, 229439, Note_on_c, 3, 55, 0
9, 229680, Note_on_c, 3, 59, 44
9, 229899, Note_on_c, 3, 59, 0
9, 229920, Note_on_c, 3, 60, 44
9, 230159, Note_on_c, 3, 60, 0
9, 230400, Note_on_c, 3, 56, 44
9, 230619, Note_on_c, 3, 56, 0
9, 230640, Note_on_c, 3, 55, 44
9, 230879, Note_on_c, 3, 55, 0
9, 231120, Note_on_c, 3, 47, 44
9, 231339, Note_on_c, 3, 47, 0
9, 231360, Note_on_c, 3, 48, 44
9, 231599, Note_on_c, 3, 48, 0
9, 231840, Note_on_c, 3, 56, 44
9, 232059, Note_on_c, 3, 56, 0
9, 232080, Note_on_c, 3, 55, 44
9, 232319, Note_on_c, 3, 55, 0
9, 232560, Note_on_c, 3, 59, 44
9, 232779, Note_on_c, 3, 59, 0
9, 232800, Note_on_c, 3, 60, 44
9, 233039, Note_on_c, 3, 60, 0
9, 233280, Note_on_c, 3, 56, 44
9, 233499, Note_on_c, 3, 56, 0
9, 233520, Note_on_c, 3, 55, 44
9, 233759, Note_on_c, 3, 55, 0
9, 234000, Note_on_c, 3, 47, 44
9, 234219, Note_on_c, 3, 47, 0
9, 234240, Note_on_c, 3, 48, 44
9, 234479, Note_on_c, 3, 48, 0
9, 234720, Note_on_c, 3, 56, 44
9, 234939, Note_on_c, 3, 56, 0
9, 234960, Note_on_c, 3, 55, 44
9, 235199, Note_on_c, 3, 55, 0
9, 235440, Note_on_c, 3, 59, 44
9, 235659, Note_on_c, 3, 59, 0
9, 235680, Note_on_c, 3, 60, 44
9, 235919, Note_on_c, 3, 60, 0
9, 236160, Note_on_c, 3, 58, 44
9, 236379, Note_on_c, 3, 58, 0
9, 236400, Note_on_c, 3, 56, 44
9, 236639, Note_on_c, 3, 56, 0
9, 236880, Note_on_c, 3, 53, 44
9, 237099, Note_on_c, 3, 53, 0
9, 237120, Note_on_c, 3, 55, 44
9, 237359, Note_on_c, 3, 55, 0
9, 237600, Note_on_c, 3, 53, 44
9, 237819, Note_on_c, 3, 53, 0
9, 237840, Note_on_c, 3, 51, 44
9, 238079, Note_on_c, 3, 51, 0
9, 238320, Note_on_c, 3, 50, 44
9, 238539, Note_on_c, 3, 50, 0
9, 238560, Note_on_c, 3, 48, 44
9, 238799, Note_on_c, 3, 48, 0
9, 239040, Note_on_c, 3, 46, 44
9, 239259, Note_on_c, 3, 46, 0
9, 239280, Note_on_c, 3, 44, 44
9, 239519, Note_on_c, 3, 44, 0
9, 239760, Note_on_c, 3, 43, 44
9, 239979, Note_on_c, 3, 43, 0
9, 240000, Note_on_c, 3, 41, 44
9, 240239, Note_on_c, 3, 41, 0
9, 240480, Note_on_c, 3, 42, 44
9, 240699, Note_on_c, 3, 42, 0
9, 240720, Note_on_c, 3, 43, 44
9, 240939, Note_on_c, 3, 43, 0
9, 240960, Note_on_c, 3, 43, 44
9, 241179, Note_on_c, 3, 43, 0
9, 241200, Note_on_c, 3, 43, 44
9, 241419, Note_on_c, 3, 43, 0
9, 241440, Note_on_c, 3, 36, 44
9, 241679, Note_on_c, 3, 36, 0
9, 242880, Note_on_c, 3, 67, 44
9, 243099, Note_on_c, 3, 67, 0
9, 243120, Note_on_c, 3, 67, 44
9, 243339, Note_on_c, 3, 67, 0
9, 243360, Note_on_c, 3, 67, 44
9, 243599, Note_on_c, 3, 67, 0
9, 244320, Note_on_c, 3, 67, 44
9, 244539, Note_on_c, 3, 67, 0
9, 244560, Note_on_c, 3, 67, 44
9, 244779, Note_on_c, 3, 67, 0
9, 244800, Note_on_c, 3, 67, 44
9, 245019, Note_on_c, 3, 67, 0
9, 245040, Note_on_c, 3, 60, 44
9, 245259, Note_on_c, 3, 60, 0
9, 245280, Note_on_c, 3, 60, 44
9, 245499, Note_on_c, 3, 60, 0
9, 245520, Note_on_c, 3, 60, 44
9, 245739, Note_on_c, 3, 60, 0
9, 245760, Note_on_c, 3, 60, 44
9, 245999, Note_on_c, 3, 60, 0
9, 246480, Note_on_c, 3, 55, 44
9, 246719, Note_on_c, 3, 55, 0
9, 247200, Note_on_c, 3, 48, 44
9, 247439, Note_on_c, 3, 48, 0
9, 276720, Control_c, 3, 11, 48
9, 277440, Note_on_c, 3, 60, 84
9, 277440, Note_on_c, 3, 48, 84
9, 277440, Control_c, 3, 11, 48
9, 277536, Control_c, 3, 11, 49
9, 277632, Control_c, 3, 11, 51
9, 277728, Control_c, 3, 11, 52
9, 277824, Control_c, 3, 11, 53
9, 277920, Control_c, 3, 11, 55
9, 278016, Control_c, 3, 11, 56
9, 278112, Control_c, 3, 11, 57
9, 278208, Control_c, 3, 11, 59
9, 278304, Control_c, 3, 11, 60
9, 278400, Control_c, 3, 11, 61
9, 278496, Control_c, 3, 11, 62
9, 278592, Control_c, 3, 11, 64
9, 278688, Control_c, 3, 11, 65
9, 278784, Control_c, 3, 11, 66
9, 278880, Control_c, 3, 11, 68
9, 278976, Control_c, 3, 11, 69
9, 279072, Control_c, 3, 11, 70
9, 279168, Control_c, 3, 11, 72
9, 279264, Control_c, 3, 11, 73
9, 279360, Control_c, 3, 11, 74
9, 279456, Control_c, 3, 11, 76
9, 279552, Control_c, 3, 11, 77
9, 279648, Control_c, 3, 11, 78
9, 279744, Control_c, 3, 11, 80
9, 279840, Control_c, 3, 11, 81
9, 279936, Control_c, 3, 11, 82
9, 280032, Control_c, 3, 11, 84
9, 280128, Control_c, 3, 11, 85
9, 280224, Control_c, 3, 11, 86
9, 280319, Note_on_c, 3, 60, 0
9, 280319, Note_on_c, 3, 48, 0
9, 280320, Note_on_c, 3, 48, 84
9, 280320, Note_on_c, 3, 60, 84
9, 280320, Control_c, 3, 11, 88
9, 280416, Control_c, 3, 11, 89
9, 280512, Control_c, 3, 11, 90
9, 280608, Control_c, 3, 11, 91
9, 280704, Control_c, 3, 11, 93
9, 280800, Control_c, 3, 11, 94
9, 280896, Control_c, 3, 11, 95
9, 280992, Control_c, 3, 11, 97
9, 281088, Control_c, 3, 11, 98
9, 281184, Control_c, 3, 11, 99
9, 281280, Control_c, 3, 11, 101
9, 281376, Control_c, 3, 11, 102
9, 281472, Control_c, 3, 11, 103
9, 281568, Control_c, 3, 11, 105
9, 281664, Control_c, 3, 11, 106
9, 281760, Control_c, 3, 11, 107
9, 281856, Control_c, 3, 11, 109
9, 281952, Control_c, 3, 11, 110
9, 282048, Control_c, 3, 11, 111
9, 282144, Control_c, 3, 11, 113
9, 282240, Control_c, 3, 11, 114
9, 282336, Control_c, 3, 11, 115
9, 282432, Control_c, 3, 11, 116
9, 282528, Control_c, 3, 11, 118
9, 282624, Control_c, 3, 11, 119
9, 282720, Control_c, 3, 11, 120
9, 282816, Control_c, 3, 11, 122
9, 282912, Control_c, 3, 11, 123
9, 283008, Control_c, 3, 11, 124
9, 283104, Control_c, 3, 11, 127
9, 283199, Note_on_c, 3, 48, 0
9, 283199, Note_on_c, 3, 60, 0
9, 283199, End_track
10, 0, Start_track
10, 0, Title_t, "French Horn I and II in E-flat"
10, 0, MIDI_port, 0
10, 0, Program_c, 4, 60
10, 0, Control_c, 4, 7, 96
10, 0, Control_c, 4, 10, 45
10, 0, Control_c, 4, 11, 127
10, 2400, Note_on_c, 4, 55, 52
10, 5259, Note_on_c, 4, 55, 0
10, 5280, Note_on_c, 4, 55, 52
10, 5759, Note_on_c, 4, 55, 0
10, 13200, Note_on_c, 4, 67, 84
10, 13419, Note_on_c, 4, 67, 0
10, 13440, Note_on_c, 4, 67, 84
10, 13659, Note_on_c, 4, 67, 0
10, 13680, Note_on_c, 4, 67, 84
10, 13899, Note_on_c, 4, 67, 0
10, 13920, Note_on_c, 4, 67, 84
10, 14619, Note_on_c, 4, 67, 0
10, 14640, Note_on_c, 4, 67, 84
10, 14859, Note_on_c, 4, 67, 0
10, 14880, Note_on_c, 4, 67, 84
10, 15099, Note_on_c, 4, 67, 0
10, 15120, Note_on_c, 4, 67, 84
10, 15339, Note_on_c, 4, 67, 0
10, 15360, Note_on_c, 4, 67, 84
10, 16059, Note_on_c, 4, 67, 0
10, 16080, Note_on_c, 4, 67, 84
10, 16299, Note_on_c, 4, 67, 0
10, 16320, Note_on_c, 4, 67, 84
10, 16539, Note_on_c, 4, 67, 0
10, 16560, Note_on_c, 4, 67, 84
10, 16779, Note_on_c, 4, 67, 0
10, 16800, Note_on_c, 4, 63, 84
10, 16800, Note_on_c, 4, 67, 84
10, 17499, Note_on_c, 4, 63, 0
10, 17499, Note_on_c, 4, 67, 0
10, 17520, Note_on_c, 4, 70, 84
10, 17520, Note_on_c, 4, 67, 84
10, 17759, Note_on_c, 4, 70, 0
10, 17759, Note_on_c, 4, 67, 0
10, 17760, Note_on_c, 4, 68, 84
10, 17760, Note_on_c, 4, 65, 84
10, 17979, Note_on_c, 4, 68, 0
10, 17979, Note_on_c, 4, 65, 0
10, 18000, Note_on_c, 4, 67, 84
10, 18000, Note_on_c, 4, 63, 84
10, 18179, Note_on_c, 4, 67, 0
10, 18179, Note_on_c, 4, 63, 0
10, 18240, Note_on_c, 4, 65, 84
10, 18240, Note_on_c, 4, 58, 84
10, 18939, Note_on_c, 4, 65, 0
10, 18939, Note_on_c, 4, 58, 0
10, 18960, Note_on_c, 4, 65, 84
10, 19659, Note_on_c, 4, 65, 0
10, 19680, Note_on_c, 4, 66, 84
10, 20379, Note_on_c, 4, 66, 0
10, 20400, Note_on_c, 4, 65, 84
10, 21099, Note_on_c, 4, 65, 0
10, 21120, Note_on_c, 4, 63, 84
10, 21819, Note_on_c, 4, 63, 0
10, 21840, Note_on_c, 4, 65, 84
10, 22539, Note_on_c, 4, 65, 0
10, 22560, Note_on_c, 4, 66, 84
10, 23259, Note_on_c, 4, 66, 0
10, 23280, Note_on_c, 4, 68, 84
10, 23979, Note_on_c, 4, 68, 0
10, 24000, Note_on_c, 4, 61, 84
10, 24699, Note_on_c, 4, 61, 0
10, 24720, Note_on_c, 4, 66, 84
10, 25419, Note_on_c, 4, 66, 0
10, 25440, Note_on_c, 4, 63, 84
10, 26139, Note_on_c, 4, 63, 0
10, 26160, Note_on_c, 4, 65, 84
10, 26859, Note_on_c, 4, 65, 0
10, 26880, Note_on_c, 4, 46, 84
10, 26880, Note_on_c, 4, 58, 84
10, 27000, Control_c, 4, 11, 112
10, 28059, Note_on_c, 4, 46, 0
10, 28059, Note_on_c, 4, 58, 0
10, 28080, Note_on_c, 4, 46, 84
10, 28080, Note_on_c, 4, 58, 84
10, 28299, Note_on_c, 4, 46, 0
10, 28299, Note_on_c, 4, 58, 0
10, 28318, Control_c, 4, 11, 127
10, 28320, Note_on_c, 4, 46, 84
10, 28320, Note_on_c, 4, 58, 84
10, 28440, Control_c, 4, 11, 112
10, 29499, Note_on_c, 4, 46, 0
10, 29499, Note_on_c, 4, 58, 0
10, 29520, Note_on_c, 4, 58, 84
10, 29520, Note_on_c, 4, 46, 84
10, 29739, Note_on_c, 4, 58, 0
10, 29739, Note_on_c, 4, 46, 0
10, 29758, Control_c, 4, 11, 127
10, 29760, Note_on_c, 4, 58, 84
10, 29760, Note_on_c, 4, 46, 84
10, 29880, Control_c, 4, 11, 112
10, 30459, Note_on_c, 4, 58, 0
10, 30459, Note_on_c, 4, 46, 0
10, 30478, Control_c, 4, 11, 127
10, 30480, Note_on_c, 4, 46, 84
10, 30480, Note_on_c, 4, 58, 84
10, 30600, Control_c, 4, 11, 112
10, 31179, Note_on_c, 4, 46, 0
10, 31179, Note_on_c, 4, 58, 0
10, 31198, Control_c, 4, 11, 127
10, 31200, Note_on_c, 4, 46, 76
10, 31200, Note_on_c, 4, 58, 76
10, 31200, Control_c, 4, 11, 127
10, 31260, Control_c, 4, 11, 122
10, 31320, Control_c, 4, 11, 117
10, 31380, Control_c, 4, 11, 111
10, 31440, Control_c, 4, 11, 106
10, 31500, Control_c, 4, 11, 101
10, 31560, Control_c, 4, 11, 96
10, 31620, Control_c, 4, 11, 90
10, 31680, Control_c, 4, 11, 85
10, 31740, Control_c, 4, 11, 80
10, 31800, Control_c, 4, 11, 75
10, 31860, Control_c, 4, 11, 69
10, 31920, Control_c, 4, 11, 64
10, 32159, Note_on_c, 4, 46, 0
10, 32159, Note_on_c, 4, 58, 0
10, 42000, Control_c, 4, 11, 127
10, 42720, Note_on_c, 4, 67, 44
10, 42720, Note_on_c, 4, 55, 44
10, 45599, Note_on_c, 4, 67, 0
10, 45599, Note_on_c, 4, 55, 0
10, 45600, Note_on_c, 4, 67, 44
10, 45600, Note_on_c, 4, 55, 44
10, 47739, Note_on_c, 4, 67, 0
10, 47739, Note_on_c, 4, 55, 0
10, 47760, Note_on_c, 4, 55, 44
10, 47760, Note_on_c, 4, 67, 44
10, 47999, Note_on_c, 4, 55, 0
10, 47999, Note_on_c, 4, 67, 0
10, 48480, Note_on_c, 4, 67, 52
10, 48480, Note_on_c, 4, 55, 52
10, 48719, Note_on_c, 4, 67, 0
10, 48719, Note_on_c, 4, 55, 0
10, 49200, Note_on_c, 4, 55, 60
10, 49200, Note_on_c, 4, 67, 60
10, 49439, Note_on_c, 4, 55, 0
10, 49439, Note_on_c, 4, 67, 0
10, 49920, Note_on_c, 4, 55, 68
10, 49920, Note_on_c, 4, 67, 68
10, 50159, Note_on_c, 4, 55, 0
10, 50159, Note_on_c, 4, 67, 0
10, 50640, Note_on_c, 4, 67, 76
10, 50640, Note_on_c, 4, 55, 76
10, 50859, Note_on_c, 4, 67, 0
10, 50859, Note_on_c, 4, 55, 0
10, 50880, Note_on_c, 4, 67, 76
10, 50880, Note_on_c, 4, 55, 76
10, 51099, Note_on_c, 4, 67, 0
10, 51099, Note_on_c, 4, 55, 0
10, 51120, Note_on_c, 4, 67, 76
10, 51120, Note_on_c, 4, 55, 76
10, 51339, Note_on_c, 4, 67, 0
10, 51339, Note_on_c, 4, 55, 0
10, 51360, Note_on_c, 4, 55, 76
10, 51360, Note_on_c, 4, 67, 76
10, 52059, Note_on_c, 4, 55, 0
10, 52059, Note_on_c, 4, 67, 0
10, 52080, Note_on_c, 4, 55, 76
10, 52080, Note_on_c, 4, 67, 76
10, 52299, Note_on_c, 4, 55, 0
10, 52299, Note_on_c, 4, 67, 0
10, 52320, Note_on_c, 4, 55, 76
10, 52320, Note_on_c, 4, 67, 76
10, 52539, Note_on_c, 4, 55, 0
10, 52539, Note_on_c, 4, 67, 0
10, 52560, Note_on_c, 4, 55, 76
10, 52560, Note_on_c, 4, 67, 76
10, 52779, Note_on_c, 4, 55, 0
10, 52779, Note_on_c, 4, 67, 0
10, 52800, Note_on_c, 4, 67, 76
10, 52800, Note_on_c, 4, 55, 76
10, 53499, Note_on_c, 4, 67, 0
10, 53499, Note_on_c, 4, 55, 0
10, 53520, Note_on_c, 4, 55, 76
10, 53520, Note_on_c, 4, 67, 76
10, 53739, Note_on_c, 4, 55, 0
10, 53739, Note_on_c, 4, 67, 0
10, 53760, Note_on_c, 4, 55, 76
10, 53760, Note_on_c, 4, 67, 76
10, 53979, Note_on_c, 4, 55, 0
10, 53979, Note_on_c, 4, 67, 0
10, 54000, Note_on_c, 4, 55, 76
10, 54000, Note_on_c, 4, 67, 76
10, 54219, Note_on_c, 4, 55, 0
10, 54219, Note_on_c, 4, 67, 0
10, 54240, Note_on_c, 4, 55, 76
10, 54240, Note_on_c, 4, 67, 76
10, 54939, Note_on_c, 4, 55, 0
10, 54939, Note_on_c, 4, 67, 0
10, 54960, Note_on_c, 4, 70, 76
10, 54960, Note_on_c, 4, 67, 76
10, 55199, Note_on_c, 4, 70, 0
10, 55199, Note_on_c, 4, 67, 0
10, 55200, Note_on_c, 4, 65, 76
10, 55200, Note_on_c, 4, 68, 76
10, 55419, Note_on_c, 4, 65, 0
10, 55419, Note_on_c, 4, 68, 0
10, 55440, Note_on_c, 4, 63, 76
10, 55440, Note_on_c, 4, 67, 76
10, 55619, Note_on_c, 4, 63, 0
10, 55619, Note_on_c, 4, 67, 0
10, 55680, Note_on_c, 4, 58, 76
10, 55680, Note_on_c, 4, 65, 76
10, 56379, Note_on_c, 4, 58, 0
10, 56379, Note_on_c, 4, 65, 0
10, 56400, Note_on_c, 4, 67, 76
10, 57099, Note_on_c, 4, 67, 0
10, 57120, Note_on_c, 4, 68, 76
10, 57819, Note_on_c, 4, 68, 0
10, 57840, Note_on_c, 4, 67, 76
10, 58539, Note_on_c, 4, 67, 0
10, 58560, Note_on_c, 4, 65, 76
10, 59259, Note_on_c, 4, 65, 0
10, 59280, Note_on_c, 4, 67, 76
10, 59979, Note_on_c, 4, 67, 0
10, 60000, Note_on_c, 4, 68, 76
10, 60699, Note_on_c, 4, 68, 0
10, 60720, Note_on_c, 4, 70, 76
10, 61419, Note_on_c, 4, 70, 0
10, 61440, Note_on_c, 4, 63, 76
10, 62139, Note_on_c, 4, 63, 0
10, 62160, Note_on_c, 4, 68, 76
10, 62859, Note_on_c, 4, 68, 0
10, 62880, Note_on_c, 4, 65, 76
10, 63579, Note_on_c, 4, 65, 0
10, 63600, Note_on_c, 4, 67, 76
10, 64299, Note_on_c, 4, 67, 0
10, 64320, Note_on_c, 4, 67, 84
10, 64559, Note_on_c, 4, 67, 0
10, 65520, Note_on_c, 4, 68, 76
10, 65739, Note_on_c, 4, 68, 0
10, 65760, Note_on_c, 4, 67, 84
10, 65999, Note_on_c, 4, 67, 0
10, 66960, Note_on_c, 4, 68, 76
10, 67179, Note_on_c, 4, 68, 0
10, 67200, Note_on_c, 4, 67, 84
10, 67439, Note_on_c, 4, 67, 0
10, 67680, Note_on_c, 4, 68, 76
10, 67899, Note_on_c, 4, 68, 0
10, 67920, Note_on_c, 4, 67, 84
10, 68159, Note_on_c, 4, 67, 0
10, 68400, Note_on_c, 4, 68, 76
10, 68619, Note_on_c, 4, 68, 0
10, 68640, Note_on_c, 4, 67, 76
10, 68879, Note_on_c, 4, 67, 0
10, 71520, Note_on_c, 4, 55, 52
10, 74399, Note_on_c, 4, 55, 0
10, 74400, Note_on_c, 4, 55, 52
10, 77279, Note_on_c, 4, 55, 0
10, 77280, Note_on_c, 4, 55, 52
10, 80159, Note_on_c, 4, 55, 0
10, 80160, Note_on_c, 4, 55, 52
10, 82079, Note_on_c, 4, 55, 0
10, 84240, Note_on_c, 4, 55, 52
10, 84240, Note_on_c, 4, 67, 52
10, 84479, Note_on_c, 4, 55, 0
10, 84479, Note_on_c, 4, 67, 0
10, 87120, Note_on_c, 4, 67, 52
10, 87120, Note_on_c, 4, 55, 52
10, 87359, Note_on_c, 4, 67, 0
10, 87359, Note_on_c, 4, 55, 0
10, 93600, Note_on_c, 4, 63, 76
10, 93600, Note_on_c, 4, 51, 76
10, 93819, Note_on_c, 4, 63, 0
10, 93819, Note_on_c, 4, 51, 0
10, 93840, Note_on_c, 4, 63, 76
10, 93840, Note_on_c, 4, 51, 76
10, 94059, Note_on_c, 4, 63, 0
10, 94059, Note_on_c, 4, 51, 0
10, 94080, Note_on_c, 4, 55, 76
10, 94080, Note_on_c, 4, 67, 76
10, 94299, Note_on_c, 4, 55, 0
10, 94299, Note_on_c, 4, 67, 0
10, 94320, Note_on_c, 4, 55, 76
10, 94320, Note_on_c, 4, 67, 76
10, 94539, Note_on_c, 4, 55, 0
10, 94539, Note_on_c, 4, 67, 0
10, 94560, Note_on_c, 4, 63, 76
10, 94560, Note_on_c, 4, 51, 76
10, 94799, Note_on_c, 4, 63, 0
10, 94799, Note_on_c, 4, 51, 0
10, 95280, Note_on_c, 4, 67, 84
10, 95280, Note_on_c, 4, 55, 84
10, 95499, Note_on_c, 4, 67, 0
10, 95499, Note_on_c, 4, 55, 0
10, 95520, Note_on_c, 4, 55, 84
10, 95520, Note_on_c, 4, 67, 84
10, 95739, Note_on_c, 4, 55, 0
10, 95739, Note_on_c, 4, 67, 0
10, 95760, Note_on_c, 4, 55, 84
10, 95760, Note_on_c, 4, 67, 84
10, 95979, Note_on_c, 4, 55, 0
10, 95979, Note_on_c, 4, 67, 0
10, 96000, Note_on_c, 4, 55, 84
10, 96000, Note_on_c, 4, 67, 84
10, 96699, Note_on_c, 4, 55, 0
10, 96699, Note_on_c, 4, 67, 0
10, 96720, Note_on_c, 4, 55, 84
10, 96720, Note_on_c, 4, 67, 84
10, 96939, Note_on_c, 4, 55, 0
10, 96939, Note_on_c, 4, 67, 0
10, 96960, Note_on_c, 4, 55, 84
10, 96960, Note_on_c, 4, 67, 84
10, 97179, Note_on_c, 4, 55, 0
10, 97179, Note_on_c, 4, 67, 0
10, 97200, Note_on_c, 4, 67, 84
10, 97200, Note_on_c, 4, 55, 84
10, 97419, Note_on_c, 4, 67, 0
10, 97419, Note_on_c, 4, 55, 0
10, 97440, Note_on_c, 4, 67, 84
10, 97440, Note_on_c, 4, 55, 84
10, 98159, Note_on_c, 4, 67, 0
10, 98159, Note_on_c, 4, 55, 0
10, 113280, Note_on_c, 4, 67, 76
10, 113280, Note_on_c, 4, 55, 76
10, 113519, Note_on_c, 4, 67, 0
10, 113519, Note_on_c, 4, 55, 0
10, 114000, Note_on_c, 4, 55, 76
10, 114000, Note_on_c, 4, 67, 76
10, 114239, Note_on_c, 4, 55, 0
10, 114239, Note_on_c, 4, 67, 0
10, 114720, Note_on_c, 4, 55, 76
10, 114720, Note_on_c, 4, 67, 76
10, 114959, Note_on_c, 4, 55, 0
10, 114959, Note_on_c, 4, 67, 0
10, 127680, Note_on_c, 4, 67, 76
10, 127680, Note_on_c, 4, 55, 76
10, 127919, Note_on_c, 4, 67, 0
10, 127919, Note_on_c, 4, 55, 0
10, 128400, Note_on_c, 4, 67, 76
10, 128400, Note_on_c, 4, 55, 76
10, 128639, Note_on_c, 4, 67, 0
10, 128639, Note_on_c, 4, 55, 0
10, 129120, Note_on_c, 4, 55, 76
10, 129120, Note_on_c, 4, 67, 76
10, 129359, Note_on_c, 4, 55, 0
10, 129359, Note_on_c, 4, 67, 0
10, 143280, Note_on_c, 4, 67, 76
10, 143280, Note_on_c, 4, 70, 76
10, 143759, Note_on_c, 4, 67, 0
10, 143759, Note_on_c, 4, 70, 0
10, 144720, Note_on_c, 4, 65, 76
10, 144939, Note_on_c, 4, 65, 0
10, 144960, Note_on_c, 4, 67, 76
10, 145659, Note_on_c, 4, 67, 0
10, 145680, Note_on_c, 4, 67, 76
10, 146379, Note_on_c, 4, 67, 0
10, 146400, Note_on_c, 4, 67, 84
10, 146520, Control_c, 4, 11, 112
10, 147099, Note_on_c, 4, 67, 0
10, 147120, Note_on_c, 4, 67, 84
10, 147819, Note_on_c, 4, 67, 0
10, 147838, Control_c, 4, 11, 127
10, 147840, Note_on_c, 4, 67, 84
10, 147960, Control_c, 4, 11, 112
10, 148539, Note_on_c, 4, 67, 0
10, 148560, Note_on_c, 4, 67, 84
10, 149259, Note_on_c, 4, 67, 0
10, 149280, Note_on_c, 4, 67, 84
10, 149499, Note_on_c, 4, 67, 0
10, 149520, Note_on_c, 4, 67, 84
10, 149739, Note_on_c, 4, 67, 0
10, 149760, Note_on_c, 4, 67, 84
10, 149979, Note_on_c, 4, 67, 0
10, 149998, Control_c, 4, 11, 127
10, 150000, Note_on_c, 4, 67, 76
10, 150219, Note_on_c, 4, 67, 0
10, 150240, Note_on_c, 4, 67, 76
10, 150459, Note_on_c, 4, 67, 0
10, 150480, Note_on_c, 4, 67, 76
10, 150699, Note_on_c, 4, 67, 0
10, 150720, Note_on_c, 4, 67, 76
10, 150939, Note_on_c, 4, 67, 0
10, 150960, Note_on_c, 4, 67, 76
10, 151179, Note_on_c, 4, 67, 0
10, 151200, Note_on_c, 4, 67, 76
10, 151419, Note_on_c, 4, 67, 0
10, 151440, Note_on_c, 4, 67, 76
10, 151659, Note_on_c, 4, 67, 0
10, 151680, Note_on_c, 4, 67, 76
10, 151899, Note_on_c, 4, 67, 0
10, 151920, Note_on_c, 4, 67, 76
10, 152139, Note_on_c, 4, 67, 0
10, 152160, Note_on_c, 4, 67, 76
10, 152379, Note_on_c, 4, 67, 0
10, 152400, Note_on_c, 4, 67, 76
10, 152619, Note_on_c, 4, 67, 0
10, 152640, Note_on_c, 4, 67, 76
10, 152859, Note_on_c, 4, 67, 0
10, 152880, Note_on_c, 4, 67, 76
10, 153099, Note_on_c, 4, 67, 0
10, 153120, Note_on_c, 4, 67, 76
10, 153339, Note_on_c, 4, 67, 0
10, 153360, Note_on_c, 4, 67, 76
10, 153579, Note_on_c, 4, 67, 0
10, 153600, Note_on_c, 4, 67, 76
10, 153839, Note_on_c, 4, 67, 0
10, 154320, Note_on_c, 4, 67, 76
10, 154559, Note_on_c, 4, 67, 0
10, 155040, Note_on_c, 4, 67, 76
10, 155279, Note_on_c, 4, 67, 0
10, 186720, Note_on_c, 4, 55, 44
10, 187440, Note_on_c, 4, 65, 44
10, 188159, Note_on_c, 4, 65, 0
10, 188160, Note_on_c, 4, 63, 44
10, 188399, Note_on_c, 4, 63, 0
10, 189599, Note_on_c, 4, 55, 0
10, 189600, Note_on_c, 4, 55, 44
10, 190079, Note_on_c, 4, 55, 0
10, 219840, Note_on_c, 4, 67, 52
10, 220079, Note_on_c, 4, 67, 0
10, 220320, Note_on_c, 4, 67, 52
10, 220539, Note_on_c, 4, 67, 0
10, 220560, Note_on_c, 4, 67, 52
10, 220799, Note_on_c, 4, 67, 0
10, 221040, Note_on_c, 4, 67, 52
10, 221259, Note_on_c, 4, 67, 0
10, 221280, Note_on_c, 4, 67, 52
10, 221519, Note_on_c, 4, 67, 0
10, 222720, Note_on_c, 4, 67, 52
10, 222959, Note_on_c, 4, 67, 0
10, 223200, Note_on_c, 4, 67, 52
10, 223419, Note_on_c, 4, 67, 0
10, 223440, Note_on_c, 4, 67, 52
10, 223679, Note_on_c, 4, 67, 0
10, 223920, Note_on_c, 4, 67, 52
10, 224139, Note_on_c, 4, 67, 0
10, 224160, Note_on_c, 4, 67, 52
10, 224399, Note_on_c, 4, 67, 0
10, 226320, Note_on_c, 4, 68, 52
10, 226539, Note_on_c, 4, 68, 0
10, 226560, Note_on_c, 4, 68, 52
10, 226779, Note_on_c, 4, 68, 0
10, 226800, Note_on_c, 4, 68, 52
10, 227019, Note_on_c, 4, 68, 0
10, 227040, Note_on_c, 4, 68, 52
10, 227279, Note_on_c, 4, 68, 0
10, 227760, Note_on_c, 4, 68, 52
10, 227979, Note_on_c, 4, 68, 0
10, 228000, Note_on_c, 4, 68, 52
10, 228219, Note_on_c, 4, 68, 0
10, 228240, Note_on_c, 4, 68, 52
10, 228459, Note_on_c, 4, 68, 0
10, 228480, Note_on_c, 4, 68, 52
10, 228719, Note_on_c, 4, 68, 0
10, 277440, Control_c, 4, 11, 64
10, 277440, Marker_t, "Muta in C"
10, 280320, Note_on_c, 4, 62, 84
10, 280320, Note_on_c, 4, 55, 84
10, 280320, Control_c, 4, 11, 64
10, 280400, Control_c, 4, 11, 66
10, 280480, Control_c, 4, 11, 68
10, 280560, Control_c, 4, 11, 69
10, 280640, Control_c, 4, 11, 71
10, 280720, Control_c, 4, 11, 73
10, 280800, Control_c, 4, 11, 75
10, 280880, Control_c, 4, 11, 76
10, 280960, Control_c, 4, 11, 78
10, 281040, Control_c, 4, 11, 80
10, 281120, Control_c, 4, 11, 82
10, 281200, Control_c, 4, 11, 83
10, 281280, Control_c, 4, 11, 85
10, 281360, Control_c, 4, 11, 87
10, 281440, Control_c, 4, 11, 89
10, 281520, Control_c, 4, 11, 90
10, 281600, Control_c, 4, 11, 92
10, 281680, Control_c, 4, 11, 94
10, 281760, Control_c, 4, 11, 96
10, 281840, Control_c, 4, 11, 97
10, 281920, Control_c, 4, 11, 99
10, 282000, Control_c, 4, 11, 101
10, 282080, Control_c, 4, 11, 103
10, 282160, Control_c, 4, 11, 104
10, 282240, Control_c, 4, 11, 106
10, 282320, Control_c, 4, 11, 108
10, 282400, Control_c, 4, 11, 110
10, 282480, Control_c, 4, 11, 111
10, 282560, Control_c, 4, 11, 113
10, 282640, Control_c, 4, 11, 115
10, 282720, Control_c, 4, 11, 117
10, 282800, Control_c, 4, 11, 118
10, 282880, Control_c, 4, 11, 120
10, 282960, Control_c, 4, 11, 122
10, 283040, Control_c, 4, 11, 124
10, 283120, Control_c, 4, 11, 127
10, 283199, Note_on_c, 4, 62, 0
10, 283199, Note_on_c, 4, 55, 0
10, 283199, End_track
11, 0, Start_track
11, 0, Title_t, "Trumpet in C"
11, 0, MIDI_port, 0
11, 0, Program_c, 5, 56
11, 0, Control_c, 5, 7, 96
11, 0, Control_c, 5, 10, 60
11, 0, Control_c, 5, 11, 127
11, 50640, Note_on_c, 5, 55, 76
11, 50640, Note_on_c, 5, 67, 76
11, 50879, Note_on_c, 5, 55, 0
11, 50879, Note_on_c, 5, 67, 0
11, 51360, Note_on_c, 5, 55, 76
11, 51360, Note_on_c, 5, 67, 76
11, 51599, Note_on_c, 5, 55, 0
11, 51599, Note_on_c, 5, 67, 0
11, 52080, Note_on_c, 5, 55, 76
11, 52080, Note_on_c, 5, 67, 76
11, 52319, Note_on_c, 5, 55, 0
11, 52319, Note_on_c, 5, 67, 0
11, 52800, Note_on_c, 5, 55, 76
11, 52800, Note_on_c, 5, 67, 76
11, 53039, Note_on_c, 5, 55, 0
11, 53039, Note_on_c, 5, 67, 0
11, 53520, Note_on_c, 5, 55, 76
11, 53520, Note_on_c, 5, 67, 76
11, 53759, Note_on_c, 5, 55, 0
11, 53759, Note_on_c, 5, 67, 0
11, 54240, Note_on_c, 5, 67, 76
11, 54240, Note_on_c, 5, 55, 76
11, 54479, Note_on_c, 5, 67, 0
11, 54479, Note_on_c, 5, 55, 0
11, 54960, Note_on_c, 5, 60, 76
11, 54960, Note_on_c, 5, 72, 76
11, 55199, Note_on_c, 5, 60, 0
11, 55199, Note_on_c, 5, 72, 0
11, 56400, Note_on_c, 5, 60, 76
11, 56400, Note_on_c, 5, 72, 76
11, 56619, Note_on_c, 5, 60, 0
11, 56619, Note_on_c, 5, 72, 0
11, 56640, Note_on_c, 5, 60, 76
11, 56640, Note_on_c, 5, 72, 76
11, 56859, Note_on_c, 5, 60, 0
11, 56859, Note_on_c, 5, 72, 0
11, 56880, Note_on_c, 5, 60, 76
11, 56880, Note_on_c, 5, 72, 76
11, 57099, Note_on_c, 5, 60, 0
11, 57099, Note_on_c, 5, 72, 0
11, 57120, Note_on_c, 5, 60, 76
11, 57120, Note_on_c, 5, 72, 76
11, 57819, Note_on_c, 5, 60, 0
11, 57819, Note_on_c, 5, 72, 0
11, 57840, Note_on_c, 5, 72, 76
11, 57840, Note_on_c, 5, 60, 76
11, 58059, Note_on_c, 5, 72, 0
11, 58059, Note_on_c, 5, 60, 0
11, 58080, Note_on_c, 5, 60, 76
11, 58080, Note_on_c, 5, 72, 76
11, 58299, Note_on_c, 5, 60, 0
11, 58299, Note_on_c, 5, 72, 0
11, 58320, Note_on_c, 5, 60, 76
11, 58320, Note_on_c, 5, 72, 76
11, 58539, Note_on_c, 5, 60, 0
11, 58539, Note_on_c, 5, 72, 0
11, 58560, Note_on_c, 5, 60, 76
11, 58560, Note_on_c, 5, 72, 76
11, 59259, Note_on_c, 5, 60, 0
11, 59259, Note_on_c, 5, 72, 0
11, 59280, Note_on_c, 5, 72, 76
11, 59280, Note_on_c, 5, 60, 76
11, 59499, Note_on_c, 5, 72, 0
11, 59499, Note_on_c, 5, 60, 0
11, 59520, Note_on_c, 5, 72, 76
11, 59520, Note_on_c, 5, 60, 76
11, 59739, Note_on_c, 5, 72, 0
11, 59739, Note_on_c, 5, 60, 0
11, 59760, Note_on_c, 5, 60, 76
11, 59760, Note_on_c, 5, 72, 76
11, 59979, Note_on_c, 5, 60, 0
11, 59979, Note_on_c, 5, 72, 0
11, 60000, Note_on_c, 5, 72, 76
11, 60000, Note_on_c, 5, 60, 76
11, 60719, Note_on_c, 5, 72, 0
11, 60719, Note_on_c, 5, 60, 0
11, 62160, Note_on_c, 5, 72, 76
11, 62160, Note_on_c, 5, 60, 76
11, 62399, Note_on_c, 5, 72, 0
11, 62399, Note_on_c, 5, 60, 0
11, 64320, Note_on_c, 5, 60, 84
11, 64320, Note_on_c, 5, 72, 84
11, 64440, Control_c, 5, 11, 112
11, 65499, Note_on_c, 5, 60, 0
11, 65499, Note_on_c, 5, 72, 0
11, 65520, Note_on_c, 5, 60, 84
11, 65520, Note_on_c, 5, 72, 84
11, 65739, Note_on_c, 5, 60, 0
11, 65739, Note_on_c, 5, 72, 0
11, 65758, Control_c, 5, 11, 127
11, 65760, Note_on_c, 5, 72, 84
11, 65760, Note_on_c, 5, 60, 84
11, 65880, Control_c, 5, 11, 112
11, 66939, Note_on_c, 5, 72, 0
11, 66939, Note_on_c, 5, 60, 0
11, 66960, Note_on_c, 5, 60, 84
11, 66960, Note_on_c, 5, 72, 84
11, 67179, Note_on_c, 5, 60, 0
11, 67179, Note_on_c, 5, 72, 0
11, 67198, Control_c, 5, 11, 127
11, 67200, Note_on_c, 5, 60, 84
11, 67200, Note_on_c, 5, 72, 84
11, 67320, Control_c, 5, 11, 112
11, 67899, Note_on_c, 5, 60, 0
11, 67899, Note_on_c, 5, 72, 0
11, 67918, Control_c, 5, 11, 127
11, 67920, Note_on_c, 5, 60, 84
11, 67920, Note_on_c, 5, 72, 84
11, 68040, Control_c, 5, 11, 112
11, 68619, Note_on_c, 5, 60, 0
11, 68619, Note_on_c, 5, 72, 0
11, 68638, Control_c, 5, 11, 127
11, 68640, Control_c, 5, 11, 127
11, 68640, Note_on_c, 5, 72, 52
11, 68640, Note_on_c, 5, 60, 52
11, 68700, Control_c, 5, 11, 126
11, 68760, Control_c, 5, 11, 125
11, 68820, Control_c, 5, 11, 123
11, 68880, Control_c, 5, 11, 122
11, 68940, Control_c, 5, 11, 121
11, 69000, Control_c, 5, 11, 120
11, 69060, Control_c, 5, 11, 118
11, 69120, Control_c, 5, 11, 117
11, 69180, Control_c, 5, 11, 116
11, 69240, Control_c, 5, 11, 115
11, 69300, Control_c, 5, 11, 113
11, 69360, Control_c, 5, 11, 112
11, 69599, Note_on_c, 5, 72, 0
11, 69599, Note_on_c, 5, 60, 0
11, 88800, Control_c, 5, 11, 127
11, 89280, Note_on_c, 5, 72, 52
11, 89280, Note_on_c, 5, 60, 52
11, 89519, Note_on_c, 5, 72, 0
11, 89519, Note_on_c, 5, 60, 0
11, 90000, Note_on_c, 5, 72, 52
11, 90000, Note_on_c, 5, 60, 52
11, 90239, Note_on_c, 5, 72, 0
11, 90239, Note_on_c, 5, 60, 0
11, 90720, Note_on_c, 5, 55, 52
11, 90720, Note_on_c, 5, 67, 52
11, 90959, Note_on_c, 5, 55, 0
11, 90959, Note_on_c, 5, 67, 0
11, 91440, Note_on_c, 5, 72, 52
11, 91440, Note_on_c, 5, 60, 52
11, 91679, Note_on_c, 5, 72, 0
11, 91679, Note_on_c, 5, 60, 0
11, 92160, Note_on_c, 5, 72, 52
11, 92160, Note_on_c, 5, 60, 52
11, 92399, Note_on_c, 5, 72, 0
11, 92399, Note_on_c, 5, 60, 0
11, 92880, Note_on_c, 5, 60, 64
11, 92880, Note_on_c, 5, 72, 64
11, 93119, Note_on_c, 5, 60, 0
11, 93119, Note_on_c, 5, 72, 0
11, 93600, Note_on_c, 5, 72, 76
11, 93600, Note_on_c, 5, 60, 76
11, 93819, Note_on_c, 5, 72, 0
11, 93819, Note_on_c, 5, 60, 0
11, 93840, Note_on_c, 5, 72, 76
11, 93840, Note_on_c, 5, 60, 76
11, 94059, Note_on_c, 5, 72, 0
11, 94059, Note_on_c, 5, 60, 0
11, 94080, Note_on_c, 5, 55, 76
11, 94080, Note_on_c, 5, 67, 76
11, 94299, Note_on_c, 5, 55, 0
11, 94299, Note_on_c, 5, 67, 0
11, 94320, Note_on_c, 5, 55, 76
11, 94320, Note_on_c, 5, 67, 76
11, 94539, Note_on_c, 5, 55, 0
11, 94539, Note_on_c, 5, 67, 0
11, 94560, Note_on_c, 5, 60, 76
11, 94799, Note_on_c, 5, 60, 0
11, 95280, Note_on_c, 5, 55, 84
11, 95280, Note_on_c, 5, 67, 84
11, 95499, Note_on_c, 5, 55, 0
11, 95499, Note_on_c, 5, 67, 0
11, 95520, Note_on_c, 5, 67, 84
11, 95520, Note_on_c, 5, 55, 84
11, 95739, Note_on_c, 5, 67, 0
11, 95739, Note_on_c, 5, 55, 0
11, 95760, Note_on_c, 5, 55, 84
11, 95760, Note_on_c, 5, 67, 84
11, 95979, Note_on_c, 5, 55, 0
11, 95979, Note_on_c, 5, 67, 0
11, 96000, Note_on_c, 5, 67, 84
11, 96000, Note_on_c, 5, 55, 84
11, 96699, Note_on_c, 5, 67, 0
11, 96699, Note_on_c, 5, 55, 0
11, 96720, Note_on_c, 5, 55, 84
11, 96720, Note_on_c, 5, 67, 84
11, 96939, Note_on_c, 5, 55, 0
11, 96939, Note_on_c, 5, 67, 0
11, 96960, Note_on_c, 5, 55, 84
11, 96960, Note_on_c, 5, 67, 84
11, 97179, Note_on_c, 5, 55, 0
11, 97179, Note_on_c, 5, 67, 0
11, 97200, Note_on_c, 5, 55, 84
11, 97200, Note_on_c, 5, 67, 84
11, 97419, Note_on_c, 5, 55, 0
11, 97419, Note_on_c, 5, 67, 0
11, 97440, Note_on_c, 5, 55, 84
11, 97440, Note_on_c, 5, 67, 84
11, 98139, Note_on_c, 5, 55, 0
11, 98139, Note_on_c, 5, 67, 0
11, 98160, Note_on_c, 5, 60, 52
11, 98160, Note_on_c, 5, 72, 52
11, 98379, Note_on_c, 5, 60, 0
11, 98379, Note_on_c, 5, 72, 0
11, 98400, Note_on_c, 5, 72, 52
11, 98400, Note_on_c, 5, 60, 52
11, 98619, Note_on_c, 5, 72, 0
11, 98619, Note_on_c, 5, 60, 0
11, 98640, Note_on_c, 5, 72, 52
11, 98640, Note_on_c, 5, 60, 52
11, 98859, Note_on_c, 5, 72, 0
11, 98859, Note_on_c, 5, 60, 0
11, 98880, Note_on_c, 5, 72, 52
11, 98880, Note_on_c, 5, 60, 52
11, 99059, Note_on_c, 5, 72, 0
11, 99059, Note_on_c, 5, 60, 0
11, 99600, Note_on_c, 5, 67, 52
11, 99600, Note_on_c, 5, 55, 52
11, 99779, Note_on_c, 5, 67, 0
11, 99779, Note_on_c, 5, 55, 0
11, 100320, Note_on_c, 5, 60, 52
11, 100499, Note_on_c, 5, 60, 0
11, 109680, Note_on_c, 5, 55, 76
11, 109680, Note_on_c, 5, 67, 76
11, 110379, Note_on_c, 5, 55, 0
11, 110379, Note_on_c, 5, 67, 0
11, 110400, Note_on_c, 5, 72, 76
11, 110400, Note_on_c, 5, 60, 76
11, 111099, Note_on_c, 5, 72, 0
11, 111099, Note_on_c, 5, 60, 0
11, 111120, Note_on_c, 5, 74, 76
11, 111819, Note_on_c, 5, 74, 0
11, 111840, Note_on_c, 5, 74, 76
11, 112299, Note_on_c, 5, 74, 0
11, 112320, Note_on_c, 5, 67, 76
11, 112539, Note_on_c, 5, 67, 0
11, 112560, Note_on_c, 5, 74, 76
11, 113259, Note_on_c, 5, 74, 0
11, 113280, Note_on_c, 5, 67, 76
11, 113280, Note_on_c, 5, 74, 76
11, 113519, Note_on_c, 5, 67, 0
11, 113519, Note_on_c, 5, 74, 0
11, 114000, Note_on_c, 5, 67, 76
11, 114000, Note_on_c, 5, 74, 76
11, 114239, Note_on_c, 5, 67, 0
11, 114239, Note_on_c, 5, 74, 0
11, 114720, Note_on_c, 5, 74, 76
11, 114720, Note_on_c, 5, 67, 76
11, 114959, Note_on_c, 5, 74, 0
11, 114959, Note_on_c, 5, 67, 0
11, 124080, Note_on_c, 5, 55, 76
11, 124080, Note_on_c, 5, 67, 76
11, 124779, Note_on_c, 5, 55, 0
11, 124779, Note_on_c, 5, 67, 0
11, 124800, Note_on_c, 5, 72, 76
11, 124800, Note_on_c, 5, 60, 76
11, 125499, Note_on_c, 5, 72, 0
11, 125499, Note_on_c, 5, 60, 0
11, 125520, Note_on_c, 5, 74, 76
11, 126219, Note_on_c, 5, 74, 0
11, 126240, Note_on_c, 5, 74, 76
11, 126699, Note_on_c, 5, 74, 0
11, 126720, Note_on_c, 5, 67, 76
11, 126939, Note_on_c, 5, 67, 0
11, 126960, Note_on_c, 5, 74, 76
11, 127659, Note_on_c, 5, 74, 0
11, 127680, Note_on_c, 5, 74, 76
11, 127680, Note_on_c, 5, 67, 76
11, 127919, Note_on_c, 5, 74, 0
11, 127919, Note_on_c, 5, 67, 0
11, 128400, Note_on_c, 5, 67, 76
11, 128400, Note_on_c, 5, 74, 76
11, 128639, Note_on_c, 5, 67, 0
11, 128639, Note_on_c, 5, 74, 0
11, 129120, Note_on_c, 5, 67, 76
11, 129120, Note_on_c, 5, 74, 76
11, 129359, Note_on_c, 5, 67, 0
11, 129359, Note_on_c, 5, 74, 0
11, 144720, Note_on_c, 5, 72, 76
11, 144720, Note_on_c, 5, 60, 76
11, 144939, Note_on_c, 5, 72, 0
11, 144939, Note_on_c, 5, 60, 0
11, 144960, Note_on_c, 5, 67, 76
11, 144960, Note_on_c, 5, 55, 76
11, 145659, Note_on_c, 5, 67, 0
11, 145659, Note_on_c, 5, 55, 0
11, 145680, Note_on_c, 5, 60, 76
11, 145680, Note_on_c, 5, 72, 76
11, 146379, Note_on_c, 5, 60, 0
11, 146379, Note_on_c, 5, 72, 0
11, 146400, Note_on_c, 5, 74, 84
11, 146400, Note_on_c, 5, 67, 84
11, 146520, Control_c, 5, 11, 112
11, 147099, Note_on_c, 5, 74, 0
11, 147099, Note_on_c, 5, 67, 0
11, 147120, Note_on_c, 5, 72, 84
11, 147120, Note_on_c, 5, 76, 84
11, 147819, Note_on_c, 5, 72, 0
11, 147819, Note_on_c, 5, 76, 0
11, 147838, Control_c, 5, 11, 127
11, 147840, Note_on_c, 5, 76, 84
11, 147840, Note_on_c, 5, 67, 84
11, 147960, Control_c, 5, 11, 112
11, 148539, Note_on_c, 5, 76, 0
11, 148539, Note_on_c, 5, 67, 0
11, 148560, Note_on_c, 5, 76, 84
11, 148560, Note_on_c, 5, 72, 84
11, 149259, Note_on_c, 5, 76, 0
11, 149259, Note_on_c, 5, 72, 0
11, 149278, Control_c, 5, 11, 127
11, 149280, Note_on_c, 5, 74, 84
11, 149280, Note_on_c, 5, 67, 84
11, 149400, Control_c, 5, 11, 112
11, 149979, Note_on_c, 5, 74, 0
11, 149979, Note_on_c, 5, 67, 0
11, 149998, Control_c, 5, 11, 127
11, 150000, Note_on_c, 5, 72, 76
11, 150000, Note_on_c, 5, 76, 76
11, 150239, Note_on_c, 5, 72, 0
11, 150239, Note_on_c, 5, 76, 0
11, 150720, Note_on_c, 5, 67, 76
11, 150720, Note_on_c, 5, 74, 76
11, 150959, Note_on_c, 5, 67, 0
11, 150959, Note_on_c, 5, 74, 0
11, 151440, Note_on_c, 5, 72, 76
11, 151440, Note_on_c, 5, 60, 76
11, 151679, Note_on_c, 5, 72, 0
11, 151679, Note_on_c, 5, 60, 0
11, 152160, Note_on_c, 5, 67, 76
11, 152160, Note_on_c, 5, 74, 76
11, 152379, Note_on_c, 5, 67, 0
11, 152379, Note_on_c, 5, 74, 0
11, 152400, Note_on_c, 5, 55, 76
11, 152400, Note_on_c, 5, 67, 76
11, 152619, Note_on_c, 5, 55, 0
11, 152619, Note_on_c, 5, 67, 0
11, 152640, Note_on_c, 5, 67, 76
11, 152640, Note_on_c, 5, 74, 76
11, 152859, Note_on_c, 5, 67, 0
11, 152859, Note_on_c, 5, 74, 0
11, 152880, Note_on_c, 5, 67, 76
11, 152880, Note_on_c, 5, 55, 76
11, 153099, Note_on_c, 5, 67, 0
11, 153099, Note_on_c, 5, 55, 0
11, 153120, Note_on_c, 5, 67, 76
11, 153120, Note_on_c, 5, 74, 76
11, 153339, Note_on_c, 5, 67, 0
11, 153339, Note_on_c, 5, 74, 0
11, 153360, Note_on_c, 5, 67, 76
11, 153360, Note_on_c, 5, 55, 76
11, 153579, Note_on_c, 5, 67, 0
11, 153579, Note_on_c, 5, 55, 0
11, 153600, Note_on_c, 5, 60, 76
11, 153600, Note_on_c, 5, 72, 76
11, 153839, Note_on_c, 5, 60, 0
11, 153839, Note_on_c, 5, 72, 0
11, 154320, Note_on_c, 5, 72, 76
11, 154320, Note_on_c, 5, 60, 76
11, 154559, Note_on_c, 5, 72, 0
11, 154559, Note_on_c, 5, 60, 0
11, 155040, Note_on_c, 5, 72, 76
11, 155040, Note_on_c, 5, 60, 76
11, 155279, Note_on_c, 5, 72, 0
11, 155279, Note_on_c, 5, 60, 0
11, 277440, Control_c, 5, 11, 64
11, 280320, Note_on_c, 5, 74, 84
11, 280320, Note_on_c, 5, 67, 84
11, 280320, Control_c, 5, 11, 64
11, 280400, Control_c, 5, 11, 66
11, 280480, Control_c, 5, 11, 68
11, 280560, Control_c, 5, 11, 69
11, 280640, Control_c, 5, 11, 71
11, 280720, Control_c, 5, 11, 73
11, 280800, Control_c, 5, 11, 75
11, 280880, Control_c, 5, 11, 76
11, 280960, Control_c, 5, 11, 78
11, 281040, Control_c, 5, 11, 80
11, 281120, Control_c, 5, 11, 82
11, 281200, Control_c, 5, 11, 83
11, 281280, Control_c, 5, 11, 85
11, 281360, Control_c, 5, 11, 87
11, 281440, Control_c, 5, 11, 89
11, 281520, Control_c, 5, 11, 90
11, 281600, Control_c, 5, 11, 92
11, 281680, Control_c, 5, 11, 94
11, 281760, Control_c, 5, 11, 96
11, 281840, Control_c, 5, 11, 97
11, 281920, Control_c, 5, 11, 99
11, 282000, Control_c, 5, 11, 101
11, 282080, Control_c, 5, 11, 103
11, 282160, Control_c, 5, 11, 104
11, 282240, Control_c, 5, 11, 106
11, 282320, Control_c, 5, 11, 108
11, 282400, Control_c, 5, 11, 110
11, 282480, Control_c, 5, 11, 111
11, 282560, Control_c, 5, 11, 113
11, 282640, Control_c, 5, 11, 115
11, 282720, Control_c, 5, 11, 117
11, 282800, Control_c, 5, 11, 118
11, 282880, Control_c, 5, 11, 120
11, 282960, Control_c, 5, 11, 122
11, 283040, Control_c, 5, 11, 124
11, 283120, Control_c, 5, 11, 127
11, 283199, Note_on_c, 5, 74, 0
11, 283199, Note_on_c, 5, 67, 0
11, 283199, End_track
12, 0, Start_track
12, 0, Title_t, "Timpani"
12, 0, MIDI_port, 0
12, 0, Program_c, 6, 47
12, 0, Control_c, 6, 7, 96
12, 0, Control_c, 6, 10, 25
12, 0, Control_c, 6, 11, 127
12, 50640, Note_on_c, 6, 43, 76
12, 50879, Note_on_c, 6, 43, 0
12, 51360, Note_on_c, 6, 43, 76
12, 51599, Note_on_c, 6, 43, 0
12, 52080, Note_on_c, 6, 43, 76
12, 52319, Note_on_c, 6, 43, 0
12, 52800, Note_on_c, 6, 43, 76
12, 53039, Note_on_c, 6, 43, 0
12, 53520, Note_on_c, 6, 43, 76
12, 53759, Note_on_c, 6, 43, 0
12, 54240, Note_on_c, 6, 43, 76
12, 54479, Note_on_c, 6, 43, 0
12, 54960, Note_on_c, 6, 48, 76
12, 55199, Note_on_c, 6, 48, 0
12, 56400, Note_on_c, 6, 48, 76
12, 56639, Note_on_c, 6, 48, 0
12, 56640, Note_on_c, 6, 48, 76
12, 56879, Note_on_c, 6, 48, 0
12, 56880, Note_on_c, 6, 48, 76
12, 57119, Note_on_c, 6, 48, 0
12, 57120, Note_on_c, 6, 48, 76
12, 57359, Note_on_c, 6, 48, 0
12, 57840, Note_on_c, 6, 48, 76
12, 58079, Note_on_c, 6, 48, 0
12, 58080, Note_on_c, 6, 48, 76
12, 58319, Note_on_c, 6, 48, 0
12, 58320, Note_on_c, 6, 48, 76
12, 58559, Note_on_c, 6, 48, 0
12, 58560, Note_on_c, 6, 48, 76
12, 58799, Note_on_c, 6, 48, 0
12, 59280, Note_on_c, 6, 48, 76
12, 59519, Note_on_c, 6, 48, 0
12, 59520, Note_on_c, 6, 48, 76
12, 59759, Note_on_c, 6, 48, 0
12, 59760, Note_on_c, 6, 48, 76
12, 59999, Note_on_c, 6, 48, 0
12, 60000, Note_on_c, 6, 48, 76
12, 60239, Note_on_c, 6, 48, 0
12, 62160, Note_on_c, 6, 48, 76
12, 62399, Note_on_c, 6, 48, 0
12, 64320, Note_on_c, 6, 48, 76
12, 64559, Note_on_c, 6, 48, 0
12, 65520, Note_on_c, 6, 48, 76
12, 65759, Note_on_c, 6, 48, 0
12, 65760, Note_on_c, 6, 48, 76
12, 65999, Note_on_c, 6, 48, 0
12, 66960, Note_on_c, 6, 48, 76
12, 67199, Note_on_c, 6, 48, 0
12, 67200, Note_on_c, 6, 48, 76
12, 67439, Note_on_c, 6, 48, 0
12, 67920, Note_on_c, 6, 48, 76
12, 68159, Note_on_c, 6, 48, 0
12, 68640, Note_on_c, 6, 48, 52
12, 68879, Note_on_c, 6, 48, 0
12, 80160, Note_on_c, 6, 43, 52
12, 80399, Note_on_c, 6, 43, 0
12, 80400, Note_on_c, 6, 43, 52
12, 80639, Note_on_c, 6, 43, 0
12, 80640, Note_on_c, 6, 43, 52
12, 80879, Note_on_c, 6, 43, 0
12, 80880, Note_on_c, 6, 43, 52
12, 81119, Note_on_c, 6, 43, 0
12, 81600, Note_on_c, 6, 43, 52
12, 81839, Note_on_c, 6, 43, 0
12, 81840, Note_on_c, 6, 43, 52
12, 82079, Note_on_c, 6, 43, 0
12, 82080, Note_on_c, 6, 43, 52
12, 82319, Note_on_c, 6, 43, 0
12, 82320, Note_on_c, 6, 43, 52
12, 82559, Note_on_c, 6, 43, 0
12, 89280, Note_on_c, 6, 48, 52
12, 89519, Note_on_c, 6, 48, 0
12, 90000, Note_on_c, 6, 48, 52
12, 90239, Note_on_c, 6, 48, 0
12, 90720, Note_on_c, 6, 43, 52
12, 90959, Note_on_c, 6, 43, 0
12, 91440, Note_on_c, 6, 48, 52
12, 91679, Note_on_c, 6, 48, 0
12, 92160, Note_on_c, 6, 48, 52
12, 92399, Note_on_c, 6, 48, 0
12, 92880, Note_on_c, 6, 48, 64
12, 93119, Note_on_c, 6, 48, 0
12, 93600, Note_on_c, 6, 48, 76
12, 93839, Note_on_c, 6, 48, 0
12, 93840, Note_on_c, 6, 48, 76
12, 94079, Note_on_c, 6, 48, 0
12, 94080, Note_on_c, 6, 43, 76
12, 94319, Note_on_c, 6, 43, 0
12, 94320, Note_on_c, 6, 43, 76
12, 94559, Note_on_c, 6, 43, 0
12, 94560, Note_on_c, 6, 48, 76
12, 94799, Note_on_c, 6, 48, 0
12, 95280, Note_on_c, 6, 43, 84
12, 95519, Note_on_c, 6, 43, 0
12, 95520, Note_on_c, 6, 43, 84
12, 95759, Note_on_c, 6, 43, 0
12, 95760, Note_on_c, 6, 43, 84
12, 95999, Note_on_c, 6, 43, 0
12, 96000, Note_on_c, 6, 43, 84
12, 96239, Note_on_c, 6, 43, 0
12, 96720, Note_on_c, 6, 43, 84
12, 96959, Note_on_c, 6, 43, 0
12, 96960, Note_on_c, 6, 43, 84
12, 97199, Note_on_c, 6, 43, 0
12, 97200, Note_on_c, 6, 43, 84
12, 97439, Note_on_c, 6, 43, 0
12, 97440, Note_on_c, 6, 43, 84
12, 97679, Note_on_c, 6, 43, 0
12, 98160, Note_on_c, 6, 48, 52
12, 98399, Note_on_c, 6, 48, 0
12, 98400, Note_on_c, 6, 48, 52
12, 98639, Note_on_c, 6, 48, 0
12, 98640, Note_on_c, 6, 48, 52
12, 98879, Note_on_c, 6, 48, 0
12, 98880, Note_on_c, 6, 48, 52
12, 99059, Note_on_c, 6, 48, 0
12, 99600, Note_on_c, 6, 43, 52
12, 99779, Note_on_c, 6, 43, 0
12, 100320, Note_on_c, 6, 48, 52
12, 100499, Note_on_c, 6, 48, 0
12, 109680, Note_on_c, 6, 43, 76
12, 109919, Note_on_c, 6, 43, 0
12, 110400, Note_on_c, 6, 48, 76
12, 110639, Note_on_c, 6, 48, 0
12, 111840, Note_on_c, 6, 43, 76
12, 112079, Note_on_c, 6, 43, 0
12, 113280, Note_on_c, 6, 43, 76
12, 113519, Note_on_c, 6, 43, 0
12, 114000, Note_on_c, 6, 43, 76
12, 114239, Note_on_c, 6, 43, 0
12, 114720, Note_on_c, 6, 43, 76
12, 114959, Note_on_c, 6, 43, 0
12, 124080, Note_on_c, 6, 43, 76
12, 124319, Note_on_c, 6, 43, 0
12, 124800, Note_on_c, 6, 48, 76
12, 125039, Note_on_c, 6, 48, 0
12, 126240, Note_on_c, 6, 43, 76
12, 126479, Note_on_c, 6, 43, 0
12, 127680, Note_on_c, 6, 43, 76
12, 127919, Note_on_c, 6, 43, 0
12, 128400, Note_on_c, 6, 43, 76
12, 128639, Note_on_c, 6, 43, 0
12, 129120, Note_on_c, 6, 43, 76
12, 129359, Note_on_c, 6, 43, 0
12, 144720, Note_on_c, 6, 48, 76
12, 144959, Note_on_c, 6, 48, 0
12, 144960, Note_on_c, 6, 43, 76
12, 145199, Note_on_c, 6, 43, 0
12, 145680, Note_on_c, 6, 43, 76
12, 145919, Note_on_c, 6, 43, 0
12, 146400, Note_on_c, 6, 43, 76
12, 146639, Note_on_c, 6, 43, 0
12, 147120, Note_on_c, 6, 43, 76
12, 147359, Note_on_c, 6, 43, 0
12, 147840, Note_on_c, 6, 43, 76
12, 148079, Note_on_c, 6, 43, 0
12, 148560, Note_on_c, 6, 43, 76
12, 148799, Note_on_c, 6, 43, 0
12, 149280, Note_on_c, 6, 43, 76
12, 149519, Note_on_c, 6, 43, 0
12, 149520, Note_on_c, 6, 43, 76
12, 149759, Note_on_c, 6, 43, 0
12, 149760, Note_on_c, 6, 43, 76
12, 149999, Note_on_c, 6, 43, 0
12, 150000, Note_on_c, 6, 43, 76
12, 150239, Note_on_c, 6, 43, 0
12, 150240, Note_on_c, 6, 43, 76
12, 150479, Note_on_c, 6, 43, 0
12, 150480, Note_on_c, 6, 43, 76
12, 150719, Note_on_c, 6, 43, 0
12, 150720, Note_on_c, 6, 43, 76
12, 150959, Note_on_c, 6, 43, 0
12, 150960, Note_on_c, 6, 43, 76
12, 151199, Note_on_c, 6, 43, 0
12, 151200, Note_on_c, 6, 43, 76
12, 151439, Note_on_c, 6, 43, 0
12, 151440, Note_on_c, 6, 43, 76
12, 151679, Note_on_c, 6, 43, 0
12, 151680, Note_on_c, 6, 43, 76
12, 151919, Note_on_c, 6, 43, 0
12, 151920, Note_on_c, 6, 43, 76
12, 152159, Note_on_c, 6, 43, 0
12, 152160, Note_on_c, 6, 43, 76
12, 152279, Note_on_c, 6, 43, 0
12, 152280, Note_on_c, 6, 43, 76
12, 152399, Note_on_c, 6, 43, 0
12, 152400, Note_on_c, 6, 43, 76
12, 152519, Note_on_c, 6, 43, 0
12, 152520, Note_on_c, 6, 43, 76
12, 152639, Note_on_c, 6, 43, 0
12, 152640, Note_on_c, 6, 43, 76
12, 152759, Note_on_c, 6, 43, 0
12, 152760, Note_on_c, 6, 43, 76
12, 152879, Note_on_c, 6, 43, 0
12, 152880, Note_on_c, 6, 43, 76
12, 152999, Note_on_c, 6, 43, 0
12, 153000, Note_on_c, 6, 43, 76
12, 153119, Note_on_c, 6, 43, 0
12, 153120, Note_on_c, 6, 43, 76
12, 153239, Note_on_c, 6, 43, 0
12, 153240, Note_on_c, 6, 43, 76
12, 153359, Note_on_c, 6, 43, 0
12, 153360, Note_on_c, 6, 43, 76
12, 153479, Note_on_c, 6, 43, 0
12, 153480, Note_on_c, 6, 43, 76
12, 153599, Note_on_c, 6, 43, 0
12, 153600, Note_on_c, 6, 48, 76
12, 153839, Note_on_c, 6, 48, 0
12, 154320, Note_on_c, 6, 48, 76
12, 154559, Note_on_c, 6, 48, 0
12, 155040, Note_on_c, 6, 48, 76
12, 155279, Note_on_c, 6, 48, 0
12, 247200, Note_on_c, 6, 48, 44
12, 247439, Note_on_c, 6, 48, 0
12, 247920, Note_on_c, 6, 48, 44
12, 248159, Note_on_c, 6, 48, 0
12, 248160, Note_on_c, 6, 48, 44
12, 248399, Note_on_c, 6, 48, 0
12, 248400, Note_on_c, 6, 48, 44
12, 248639, Note_on_c, 6, 48, 0
12, 248640, Note_on_c, 6, 48, 44
12, 248879, Note_on_c, 6, 48, 0
12, 249360, Note_on_c, 6, 48, 44
12, 249599, Note_on_c, 6, 48, 0
12, 249600, Note_on_c, 6, 48, 44
12, 249839, Note_on_c, 6, 48, 0
12, 249840, Note_on_c, 6, 48, 44
12, 250079, Note_on_c, 6, 48, 0
12, 250080, Note_on_c, 6, 48, 44
12, 250319, Note_on_c, 6, 48, 0
12, 250800, Note_on_c, 6, 48, 44
12, 251039, Note_on_c, 6, 48, 0
12, 251520, Note_on_c, 6, 48, 44
12, 251759, Note_on_c, 6, 48, 0
12, 252240, Note_on_c, 6, 48, 44
12, 252479, Note_on_c, 6, 48, 0
12, 252960, Note_on_c, 6, 48, 44
12, 253199, Note_on_c, 6, 48, 0
12, 253440, Note_on_c, 6, 48, 44
12, 253679, Note_on_c, 6, 48, 0
12, 253680, Note_on_c, 6, 48, 44
12, 253919, Note_on_c, 6, 48, 0
12, 254160, Note_on_c, 6, 48, 44
12, 254399, Note_on_c, 6, 48, 0
12, 254400, Note_on_c, 6, 48, 44
12, 254639, Note_on_c, 6, 48, 0
12, 254880, Note_on_c, 6, 48, 44
12, 255119, Note_on_c, 6, 48, 0
12, 255120, Note_on_c, 6, 48, 44
12, 255359, Note_on_c, 6, 48, 0
12, 255600, Note_on_c, 6, 48, 44
12, 255839, Note_on_c, 6, 48, 0
12, 255840, Note_on_c, 6, 48, 44
12, 256079, Note_on_c, 6, 48, 0
12, 256080, Note_on_c, 6, 48, 44
12, 256319, Note_on_c, 6, 48, 0
12, 256320, Note_on_c, 6, 48, 44
12, 256559, Note_on_c, 6, 48, 0
12, 256560, Note_on_c, 6, 48, 44
12, 256799, Note_on_c, 6, 48, 0
12, 256800, Note_on_c, 6, 48, 44
12, 257039, Note_on_c, 6, 48, 0
12, 257040, Note_on_c, 6, 48, 44
12, 257279, Note_on_c, 6, 48, 0
12, 257280, Note_on_c, 6, 48, 44
12, 257519, Note_on_c, 6, 48, 0
12, 257520, Note_on_c, 6, 48, 44
12, 257759, Note_on_c, 6, 48, 0
12, 257760, Note_on_c, 6, 48, 44
12, 257999, Note_on_c, 6, 48, 0
12, 258000, Note_on_c, 6, 48, 44
12, 258239, Note_on_c, 6, 48, 0
12, 258240, Note_on_c, 6, 48, 44
12, 258479, Note_on_c, 6, 48, 0
12, 258480, Note_on_c, 6, 48, 44
12, 258719, Note_on_c, 6, 48, 0
12, 258720, Note_on_c, 6, 48, 44
12, 258959, Note_on_c, 6, 48, 0
12, 258960, Note_on_c, 6, 48, 44
12, 259199, Note_on_c, 6, 48, 0
12, 259200, Note_on_c, 6, 48, 44
12, 259439, Note_on_c, 6, 48, 0
12, 259440, Note_on_c, 6, 48, 44
12, 259679, Note_on_c, 6, 48, 0
12, 259680, Note_on_c, 6, 48, 44
12, 259919, Note_on_c, 6, 48, 0
12, 259920, Note_on_c, 6, 48, 44
12, 260159, Note_on_c, 6, 48, 0
12, 260160, Note_on_c, 6, 48, 44
12, 260399, Note_on_c, 6, 48, 0
12, 260400, Note_on_c, 6, 48, 44
12, 260639, Note_on_c, 6, 48, 0
12, 260640, Note_on_c, 6, 48, 44
12, 260879, Note_on_c, 6, 48, 0
12, 260880, Note_on_c, 6, 48, 44
12, 261119, Note_on_c, 6, 48, 0
12, 261120, Note_on_c, 6, 48, 44
12, 261359, Note_on_c, 6, 48, 0
12, 261360, Note_on_c, 6, 48, 44
12, 261599, Note_on_c, 6, 48, 0
12, 261600, Note_on_c, 6, 48, 44
12, 261839, Note_on_c, 6, 48, 0
12, 261840, Note_on_c, 6, 48, 44
12, 262079, Note_on_c, 6, 48, 0
12, 262080, Note_on_c, 6, 48, 44
12, 262319, Note_on_c, 6, 48, 0
12, 262320, Note_on_c, 6, 48, 44
12, 262559, Note_on_c, 6, 48, 0
12, 262560, Note_on_c, 6, 48, 44
12, 262799, Note_on_c, 6, 48, 0
12, 262800, Note_on_c, 6, 48, 44
12, 263039, Note_on_c, 6, 48, 0
12, 263040, Note_on_c, 6, 48, 44
12, 263279, Note_on_c, 6, 48, 0
12, 263280, Note_on_c, 6, 48, 44
12, 263519, Note_on_c, 6, 48, 0
12, 263520, Note_on_c, 6, 48, 44
12, 263759, Note_on_c, 6, 48, 0
12, 263760, Note_on_c, 6, 48, 44
12, 263999, Note_on_c, 6, 48, 0
12, 264000, Note_on_c, 6, 48, 44
12, 264239, Note_on_c, 6, 48, 0
12, 264240, Note_on_c, 6, 48, 44
12, 264479, Note_on_c, 6, 48, 0
12, 264480, Note_on_c, 6, 48, 44
12, 264719, Note_on_c, 6, 48, 0
12, 264720, Note_on_c, 6, 48, 44
12, 264959, Note_on_c, 6, 48, 0
12, 264960, Note_on_c, 6, 48, 44
12, 265199, Note_on_c, 6, 48, 0
12, 265200, Note_on_c, 6, 48, 44
12, 265439, Note_on_c, 6, 48, 0
12, 265440, Note_on_c, 6, 48, 44
12, 265679, Note_on_c, 6, 48, 0
12, 265680, Note_on_c, 6, 48, 44
12, 265919, Note_on_c, 6, 48, 0
12, 265920, Note_on_c, 6, 48, 44
12, 266159, Note_on_c, 6, 48, 0
12, 266160, Note_on_c, 6, 48, 44
12, 266399, Note_on_c, 6, 48, 0
12, 266400, Note_on_c, 6, 48, 44
12, 266639, Note_on_c, 6, 48, 0
12, 266640, Note_on_c, 6, 48, 44
12, 266879, Note_on_c, 6, 48, 0
12, 266880, Note_on_c, 6, 48, 44
12, 267119, Note_on_c, 6, 48, 0
12, 267120, Note_on_c, 6, 48, 44
12, 267359, Note_on_c, 6, 48, 0
12, 267360, Note_on_c, 6, 48, 44
12, 267599, Note_on_c, 6, 48, 0
12, 267600, Note_on_c, 6, 48, 44
12, 267839, Note_on_c, 6, 48, 0
12, 267840, Note_on_c, 6, 48, 44
12, 268079, Note_on_c, 6, 48, 0
12, 268080, Note_on_c, 6, 48, 44
12, 268319, Note_on_c, 6, 48, 0
12, 268320, Note_on_c, 6, 48, 44
12, 268559, Note_on_c, 6, 48, 0
12, 268560, Note_on_c, 6, 48, 44
12, 268799, Note_on_c, 6, 48, 0
12, 268800, Note_on_c, 6, 48, 44
12, 269039, Note_on_c, 6, 48, 0
12, 269040, Note_on_c, 6, 48, 44
12, 269279, Note_on_c, 6, 48, 0
12, 269280, Note_on_c, 6, 48, 44
12, 269519, Note_on_c, 6, 48, 0
12, 269520, Note_on_c, 6, 48, 44
12, 269759, Note_on_c, 6, 48, 0
12, 269760, Note_on_c, 6, 48, 44
12, 269999, Note_on_c, 6, 48, 0
12, 270000, Note_on_c, 6, 48, 44
12, 270239, Note_on_c, 6, 48, 0
12, 270240, Note_on_c, 6, 48, 44
12, 270479, Note_on_c, 6, 48, 0
12, 270480, Note_on_c, 6, 48, 44
12, 270719, Note_on_c, 6, 48, 0
12, 270720, Note_on_c, 6, 48, 44
12, 270959, Note_on_c, 6, 48, 0
12, 270960, Note_on_c, 6, 48, 44
12, 271199, Note_on_c, 6, 48, 0
12, 271200, Note_on_c, 6, 48, 44
12, 271439, Note_on_c, 6, 48, 0
12, 271440, Note_on_c, 6, 48, 44
12, 271679, Note_on_c, 6, 48, 0
12, 271680, Note_on_c, 6, 48, 44
12, 271919, Note_on_c, 6, 48, 0
12, 271920, Note_on_c, 6, 48, 44
12, 272159, Note_on_c, 6, 48, 0
12, 272160, Note_on_c, 6, 48, 44
12, 272399, Note_on_c, 6, 48, 0
12, 272400, Note_on_c, 6, 48, 44
12, 272639, Note_on_c, 6, 48, 0
12, 272640, Note_on_c, 6, 48, 44
12, 272879, Note_on_c, 6, 48, 0
12, 272880, Note_on_c, 6, 48, 44
12, 273119, Note_on_c, 6, 48, 0
12, 273120, Note_on_c, 6, 48, 44
12, 273359, Note_on_c, 6, 48, 0
12, 273360, Note_on_c, 6, 48, 44
12, 273599, Note_on_c, 6, 48, 0
12, 273600, Note_on_c, 6, 48, 44
12, 273839, Note_on_c, 6, 48, 0
12, 273840, Note_on_c, 6, 48, 44
12, 274079, Note_on_c, 6, 48, 0
12, 274080, Note_on_c, 6, 48, 44
12, 274319, Note_on_c, 6, 48, 0
12, 274320, Note_on_c, 6, 48, 44
12, 274559, Note_on_c, 6, 48, 0
12, 274560, Note_on_c, 6, 48, 44
12, 274799, Note_on_c, 6, 48, 0
12, 274800, Note_on_c, 6, 48, 44
12, 275039, Note_on_c, 6, 48, 0
12, 275040, Note_on_c, 6, 48, 44
12, 275279, Note_on_c, 6, 48, 0
12, 275280, Note_on_c, 6, 48, 44
12, 275519, Note_on_c, 6, 48, 0
12, 275520, Note_on_c, 6, 48, 44
12, 275759, Note_on_c, 6, 48, 0
12, 275760, Note_on_c, 6, 48, 44
12, 275999, Note_on_c, 6, 48, 0
12, 276000, Note_on_c, 6, 48, 44
12, 276239, Note_on_c, 6, 48, 0
12, 276240, Note_on_c, 6, 48, 44
12, 276479, Note_on_c, 6, 48, 0
12, 276480, Note_on_c, 6, 48, 44
12, 276719, Note_on_c, 6, 48, 0
12, 276720, Note_on_c, 6, 48, 44
12, 276959, Note_on_c, 6, 48, 0
12, 276960, Note_on_c, 6, 48, 44
12, 277199, Note_on_c, 6, 48, 0
12, 277200, Note_on_c, 6, 48, 44
12, 277439, Note_on_c, 6, 48, 0
12, 277440, Note_on_c, 6, 48, 44
12, 277559, Note_on_c, 6, 48, 0
12, 277560, Note_on_c, 6, 48, 44
12, 277679, Note_on_c, 6, 48, 0
12, 277680, Note_on_c, 6, 48, 44
12, 277799, Note_on_c, 6, 48, 0
12, 277800, Note_on_c, 6, 48, 44
12, 277919, Note_on_c, 6, 48, 0
12, 277920, Note_on_c, 6, 48, 44
12, 278039, Note_on_c, 6, 48, 0
12, 278040, Note_on_c, 6, 48, 52
12, 278159, Note_on_c, 6, 48, 0
12, 278160, Note_on_c, 6, 48, 52
12, 278279, Note_on_c, 6, 48, 0
12, 278280, Note_on_c, 6, 48, 52
12, 278399, Note_on_c, 6, 48, 0
12, 278400, Note_on_c, 6, 48, 53
12, 278519, Note_on_c, 6, 48, 0
12, 278520, Note_on_c, 6, 48, 54
12, 278639, Note_on_c, 6, 48, 0
12, 278640, Note_on_c, 6, 48, 55
12, 278759, Note_on_c, 6, 48, 0
12, 278760, Note_on_c, 6, 48, 55
12, 278879, Note_on_c, 6, 48, 0
12, 278880, Note_on_c, 6, 48, 56
12, 278999, Note_on_c, 6, 48, 0
12, 279000, Note_on_c, 6, 48, 57
12, 279119, Note_on_c, 6, 48, 0
12, 279120, Note_on_c, 6, 48, 58
12, 279239, Note_on_c, 6, 48, 0
12, 279240, Note_on_c, 6, 48, 58
12, 279359, Note_on_c, 6, 48, 0
12, 279360, Note_on_c, 6, 48, 59
12, 279479, Note_on_c, 6, 48, 0
12, 279480, Note_on_c, 6, 48, 60
12, 279599, Note_on_c, 6, 48, 0
12, 279600, Note_on_c, 6, 48, 61
12, 279719, Note_on_c, 6, 48, 0
12, 279720, Note_on_c, 6, 48, 61
12, 279839, Note_on_c, 6, 48, 0
12, 279840, Note_on_c, 6, 48, 62
12, 279959, Note_on_c, 6, 48, 0
12, 279960, Note_on_c, 6, 48, 63
12, 280079, Note_on_c, 6, 48, 0
12, 280080, Note_on_c, 6, 48, 64
12, 280199, Note_on_c, 6, 48, 0
12, 280200, Note_on_c, 6, 48, 64
12, 280319, Note_on_c, 6, 48, 0
12, 280320, Note_on_c, 6, 48, 65
12, 280439, Note_on_c, 6, 48, 0
12, 280440, Note_on_c, 6, 48, 66
12, 280559, Note_on_c, 6, 48, 0
12, 280560, Note_on_c, 6, 48, 67
12, 280679, Note_on_c, 6, 48, 0
12, 280680, Note_on_c, 6, 48, 68
12, 280799, Note_on_c, 6, 48, 0
12, 280800, Note_on_c, 6, 48, 68
12, 280919, Note_on_c, 6, 48, 0
12, 280920, Note_on_c, 6, 48, 69
12, 281039, Note_on_c, 6, 48, 0
12, 281040, Note_on_c, 6, 48, 70
12, 281159, Note_on_c, 6, 48, 0
12, 281160, Note_on_c, 6, 48, 71
12, 281279, Note_on_c, 6, 48, 0
12, 281280, Note_on_c, 6, 48, 71
12, 281399, Note_on_c, 6, 48, 0
12, 281400, Note_on_c, 6, 48, 72
12, 281519, Note_on_c, 6, 48, 0
12, 281520, Note_on_c, 6, 48, 73
12, 281639, Note_on_c, 6, 48, 0
12, 281640, Note_on_c, 6, 48, 74
12, 281759, Note_on_c, 6, 48, 0
12, 281760, Note_on_c, 6, 48, 74
12, 281879, Note_on_c, 6, 48, 0
12, 281880, Note_on_c, 6, 48, 75
12, 281999, Note_on_c, 6, 48, 0
12, 282000, Note_on_c, 6, 48, 76
12, 282119, Note_on_c, 6, 48, 0
12, 282120, Note_on_c, 6, 48, 77
12, 282239, Note_on_c, 6, 48, 0
12, 282240, Note_on_c, 6, 48, 77
12, 282359, Note_on_c, 6, 48, 0
12, 282360, Note_on_c, 6, 48, 78
12, 282479, Note_on_c, 6, 48, 0
12, 282480, Note_on_c, 6, 48, 79
12, 282599, Note_on_c, 6, 48, 0
12, 282600, Note_on_c, 6, 48, 80
12, 282719, Note_on_c, 6, 48, 0
12, 282720, Note_on_c, 6, 48, 80
12, 282839, Note_on_c, 6, 48, 0
12, 282840, Note_on_c, 6, 48, 81
12, 282959, Note_on_c, 6, 48, 0
12, 282960, Note_on_c, 6, 48, 82
12, 283079, Note_on_c, 6, 48, 0
12, 283080, Note_on_c, 6, 48, 83
12, 283199, Note_on_c, 6, 48, 0
12, 283199, End_track
13, 0, Start_track
13, 0, Title_t, "Violin I"
13, 0, MIDI_port, 0
13, 0, Program_c, 11, 48
13, 0, Control_c, 11, 7, 96
13, 0, Control_c, 11, 10, 48
13, 0, Control_c, 11, 11, 127
13, 3120, Note_on_c, 11, 67, 44
13, 3599, Note_on_c, 11, 67, 0
13, 3600, Note_on_c, 11, 71, 44
13, 3839, Note_on_c, 11, 71, 0
13, 3840, Note_on_c, 11, 72, 44
13, 4319, Note_on_c, 11, 72, 0
13, 4320, Note_on_c, 11, 74, 44
13, 4539, Note_on_c, 11, 74, 0
13, 4560, Note_on_c, 11, 77, 44
13, 4999, Note_on_c, 11, 77, 0
13, 5040, Note_on_c, 11, 75, 44
13, 5239, Note_on_c, 11, 75, 0
13, 5280, Note_on_c, 11, 74, 44
13, 5759, Note_on_c, 11, 74, 0
13, 10320, Note_on_c, 11, 67, 44
13, 10799, Note_on_c, 11, 67, 0
13, 10800, Note_on_c, 11, 71, 44
13, 11039, Note_on_c, 11, 71, 0
13, 11040, Note_on_c, 11, 72, 44
13, 11519, Note_on_c, 11, 72, 0
13, 11520, Note_on_c, 11, 74, 44
13, 11739, Note_on_c, 11, 74, 0
13, 11760, Note_on_c, 11, 77, 44
13, 12199, Note_on_c, 11, 77, 0
13, 12240, Note_on_c, 11, 75, 44
13, 12439, Note_on_c, 11, 75, 0
13, 12480, Note_on_c, 11, 74, 44
13, 13199, Note_on_c, 11, 74, 0
13, 13920, Note_on_c, 11, 55, 76
13, 13920, Note_on_c, 11, 67, 76
13, 14159, Note_on_c, 11, 55, 0
13, 14159, Note_on_c, 11, 67, 0
13, 14640, Note_on_c, 11, 67, 76
13, 14640, Note_on_c, 11, 55, 76
13, 14879, Note_on_c, 11, 67, 0
13, 14879, Note_on_c, 11, 55, 0
13, 15360, Note_on_c, 11, 67, 76
13, 15360, Note_on_c, 11, 55, 76
13, 15599, Note_on_c, 11, 67, 0
13, 15599, Note_on_c, 11, 55, 0
13, 16080, Note_on_c, 11, 67, 76
13, 16080, Note_on_c, 11, 55, 76
13, 16319, Note_on_c, 11, 67, 0
13, 16319, Note_on_c, 11, 55, 0
13, 16800, Note_on_c, 11, 55, 76
13, 16800, Note_on_c, 11, 67, 76
13, 17039, Note_on_c, 11, 55, 0
13, 17039, Note_on_c, 11, 67, 0
13, 17520, Note_on_c, 11, 68, 76
13, 17759, Note_on_c, 11, 68, 0
13, 18240, Note_on_c, 11, 65, 76
13, 18479, Note_on_c, 11, 65, 0
13, 18960, Note_on_c, 11, 70, 76
13, 18960, Note_on_c, 11, 82, 76
13, 19179, Note_on_c, 11, 70, 0
13, 19179, Note_on_c, 11, 82, 0
13, 19200, Note_on_c, 11, 82, 76
13, 19200, Note_on_c, 11, 70, 76
13, 19419, Note_on_c, 11, 82, 0
13, 19419, Note_on_c, 11, 70, 0
13, 19440, Note_on_c, 11, 82, 76
13, 19440, Note_on_c, 11, 70, 76
13, 19659, Note_on_c, 11, 82, 0
13, 19659, Note_on_c, 11, 70, 0
13, 19680, Note_on_c, 11, 70, 76
13, 19680, Note_on_c, 11, 82, 76
13, 20379, Note_on_c, 11, 70, 0
13, 20379, Note_on_c, 11, 82, 0
13, 20400, Note_on_c, 11, 70, 76
13, 20400, Note_on_c, 11, 82, 76
13, 20619, Note_on_c, 11, 70, 0
13, 20619, Note_on_c, 11, 82, 0
13, 20640, Note_on_c, 11, 70, 76
13, 20640, Note_on_c, 11, 82, 76
13, 20859, Note_on_c, 11, 70, 0
13, 20859, Note_on_c, 11, 82, 0
13, 20880, Note_on_c, 11, 70, 76
13, 20880, Note_on_c, 11, 82, 76
13, 21099, Note_on_c, 11, 70, 0
13, 21099, Note_on_c, 11, 82, 0
13, 21120, Note_on_c, 11, 70, 76
13, 21120, Note_on_c, 11, 82, 76
13, 21819, Note_on_c, 11, 70, 0
13, 21819, Note_on_c, 11, 82, 0
13, 21840, Note_on_c, 11, 70, 76
13, 21840, Note_on_c, 11, 82, 76
13, 22059, Note_on_c, 11, 70, 0
13, 22059, Note_on_c, 11, 82, 0
13, 22080, Note_on_c, 11, 70, 76
13, 22080, Note_on_c, 11, 82, 76
13, 22299, Note_on_c, 11, 70, 0
13, 22299, Note_on_c, 11, 82, 0
13, 22320, Note_on_c, 11, 70, 76
13, 22320, Note_on_c, 11, 82, 76
13, 22539, Note_on_c, 11, 70, 0
13, 22539, Note_on_c, 11, 82, 0
13, 22560, Note_on_c, 11, 82, 76
13, 22560, Note_on_c, 11, 70, 76
13, 23259, Note_on_c, 11, 82, 0
13, 23259, Note_on_c, 11, 70, 0
13, 23280, Note_on_c, 11, 85, 76
13, 23519, Note_on_c, 11, 85, 0
13, 23520, Note_on_c, 11, 83, 76
13, 23739, Note_on_c, 11, 83, 0
13, 23760, Note_on_c, 11, 82, 76
13, 23939, Note_on_c, 11, 82, 0
13, 24000, Note_on_c, 11, 80, 76
13, 24699, Note_on_c, 11, 80, 0
13, 24720, Note_on_c, 11, 82, 76
13, 25419, Note_on_c, 11, 82, 0
13, 25440, Note_on_c, 11, 78, 76
13, 26139, Note_on_c, 11, 78, 0
13, 26160, Note_on_c, 11, 82, 76
13, 26399, Note_on_c, 11, 82, 0
13, 26400, Note_on_c, 11, 80, 76
13, 26619, Note_on_c, 11, 80, 0
13, 26640, Note_on_c, 11, 78, 76
13, 26819, Note_on_c, 11, 78, 0
13, 26880, Note_on_c, 11, 77, 84
13, 26999, Note_on_c, 11, 77, 0
13, 27000, Note_on_c, 11, 77, 76
13, 28079, Note_on_c, 11, 77, 0
13, 28080, Note_on_c, 11, 78, 76
13, 28299, Note_on_c, 11, 78, 0
13, 28320, Note_on_c, 11, 77, 84
13, 28439, Note_on_c, 11, 77, 0
13, 28440, Note_on_c, 11, 77, 76
13, 29519, Note_on_c, 11, 77, 0
13, 29520, Note_on_c, 11, 78, 76
13, 29739, Note_on_c, 11, 78, 0
13, 29760, Note_on_c, 11, 77, 84
13, 29879, Note_on_c, 11, 77, 0
13, 29880, Note_on_c, 11, 77, 76
13, 30239, Note_on_c, 11, 77, 0
13, 30240, Note_on_c, 11, 78, 76
13, 30459, Note_on_c, 11, 78, 0
13, 30480, Note_on_c, 11, 77, 84
13, 30599, Note_on_c, 11, 77, 0
13, 30600, Note_on_c, 11, 77, 76
13, 30959, Note_on_c, 11, 77, 0
13, 30960, Note_on_c, 11, 78, 76
13, 31179, Note_on_c, 11, 78, 0
13, 31200, Control_c, 11, 11, 127
13, 31200, Note_on_c, 11, 77, 76
13, 31260, Control_c, 11, 11, 122
13, 31320, Control_c, 11, 11, 117
13, 31380, Control_c, 11, 11, 111
13, 31440, Control_c, 11, 11, 106
13, 31500, Control_c, 11, 11, 101
13, 31560, Control_c, 11, 11, 96
13, 31620, Control_c, 11, 11, 90
13, 31680, Control_c, 11, 11, 85
13, 31740, Control_c, 11, 11, 80
13, 31800, Control_c, 11, 11, 75
13, 31860, Control_c, 11, 11, 69
13, 31920, Control_c, 11, 11, 64
13, 32159, Note_on_c, 11, 77, 0
13, 34560, Control_c, 11, 11, 127
13, 34800, Note_on_c, 11, 65, 44
13, 35279, Note_on_c, 11, 65, 0
13, 35280, Note_on_c, 11, 69, 44
13, 35519, Note_on_c, 11, 69, 0
13, 35520, Note_on_c, 11, 70, 44
13, 35999, Note_on_c, 11, 70, 0
13, 36000, Note_on_c, 11, 72, 44
13, 36219, Note_on_c, 11, 72, 0
13, 36240, Note_on_c, 11, 75, 44
13, 36679, Note_on_c, 11, 75, 0
13, 36720, Note_on_c, 11, 73, 44
13, 36919, Note_on_c, 11, 73, 0
13, 36960, Note_on_c, 11, 72, 44
13, 37439, Note_on_c, 11, 72, 0
13, 43680, Note_on_c, 11, 71, 44
13, 43919, Note_on_c, 11, 71, 0
13, 43920, Note_on_c, 11, 76, 44
13, 44159, Note_on_c, 11, 76, 0
13, 44160, Note_on_c, 11, 77, 44
13, 44339, Note_on_c, 11, 77, 0
13, 45120, Note_on_c, 11, 71, 44
13, 45359, Note_on_c, 11, 71, 0
13, 45360, Note_on_c, 11, 76, 44
13, 45599, Note_on_c, 11, 76, 0
13, 45600, Note_on_c, 11, 77, 44
13, 45779, Note_on_c, 11, 77, 0
13, 46320, Note_on_c, 11, 77, 44
13, 46559, Note_on_c, 11, 77, 0
13, 47040, Note_on_c, 11, 77, 44
13, 47279, Note_on_c, 11, 77, 0
13, 47760, Note_on_c, 11, 79, 44
13, 47999, Note_on_c, 11, 79, 0
13, 48480, Note_on_c, 11, 79, 52
13, 48719, Note_on_c, 11, 79, 0
13, 49200, Note_on_c, 11, 79, 60
13, 49439, Note_on_c, 11, 79, 0
13, 49920, Note_on_c, 11, 79, 68
13, 50159, Note_on_c, 11, 79, 0
13, 50640, Note_on_c, 11, 79, 76
13, 50859, Note_on_c, 11, 79, 0
13, 50880, Note_on_c, 11, 79, 76
13, 51099, Note_on_c, 11, 79, 0
13, 51120, Note_on_c, 11, 79, 76
13, 51339, Note_on_c, 11, 79, 0
13, 51360, Note_on_c, 11, 79, 76
13, 52059, Note_on_c, 11, 79, 0
13, 52080, Note_on_c, 11, 79, 76
13, 52299, Note_on_c, 11, 79, 0
13, 52320, Note_on_c, 11, 79, 76
13, 52539, Note_on_c, 11, 79, 0
13, 52560, Note_on_c, 11, 79, 76
13, 52779, Note_on_c, 11, 79, 0
13, 52800, Note_on_c, 11, 79, 76
13, 53499, Note_on_c, 11, 79, 0
13, 53520, Note_on_c, 11, 79, 76
13, 53739, Note_on_c, 11, 79, 0
13, 53760, Note_on_c, 11, 79, 76
13, 53979, Note_on_c, 11, 79, 0
13, 54000, Note_on_c, 11, 79, 76
13, 54219, Note_on_c, 11, 79, 0
13, 54240, Note_on_c, 11, 79, 76
13, 54939, Note_on_c, 11, 79, 0
13, 54960, Note_on_c, 11, 82, 76
13, 55199, Note_on_c, 11, 82, 0
13, 55200, Note_on_c, 11, 80, 76
13, 55419, Note_on_c, 11, 80, 0
13, 55440, Note_on_c, 11, 79, 76
13, 55619, Note_on_c, 11, 79, 0
13, 55680, Note_on_c, 11, 77, 76
13, 56379, Note_on_c, 11, 77, 0
13, 56400, Note_on_c, 11, 76, 76
13, 56400, Note_on_c, 11, 64, 76
13, 56400, Note_on_c, 11, 72, 76
13, 56639, Note_on_c, 11, 76, 0
13, 56639, Note_on_c, 11, 64, 0
13, 56639, Note_on_c, 11, 72, 0
13, 57120, Note_on_c, 11, 80, 76
13, 57120, Note_on_c, 11, 65, 76
13, 57120, Note_on_c, 11, 72, 76
13, 57359, Note_on_c, 11, 80, 0
13, 57359, Note_on_c, 11, 65, 0
13, 57359, Note_on_c, 11, 72, 0
13, 57840, Note_on_c, 11, 72, 76
13, 57840, Note_on_c, 11, 64, 76
13, 57840, Note_on_c, 11, 79, 76
13, 58079, Note_on_c, 11, 72, 0
13, 58079, Note_on_c, 11, 64, 0
13, 58079, Note_on_c, 11, 79, 0
13, 58560, Note_on_c, 11, 77, 76
13, 58560, Note_on_c, 11, 72, 76
13, 58560, Note_on_c, 11, 65, 76
13, 58799, Note_on_c, 11, 77, 0
13, 58799, Note_on_c, 11, 72, 0
13, 58799, Note_on_c, 11, 65, 0
13, 59280, Note_on_c, 11, 84, 84
13, 59499, Note_on_c, 11, 84, 0
13, 59520, Note_on_c, 11, 84, 84
13, 59739, Note_on_c, 11, 84, 0
13, 59760, Note_on_c, 11, 84, 84
13, 59979, Note_on_c, 11, 84, 0
13, 60000, Note_on_c, 11, 84, 84
13, 60699, Note_on_c, 11, 84, 0
13, 60720, Note_on_c, 11, 87, 84
13, 60959, Note_on_c, 11, 87, 0
13, 60960, Note_on_c, 11, 85, 84
13, 61179, Note_on_c, 11, 85, 0
13, 61200, Note_on_c, 11, 84, 84
13, 61379, Note_on_c, 11, 84, 0
13, 61440, Note_on_c, 11, 82, 84
13, 62139, Note_on_c, 11, 82, 0
13, 62160, Note_on_c, 11, 84, 84
13, 62859, Note_on_c, 11, 84, 0
13, 62880, Note_on_c, 11, 80, 84
13, 63579, Note_on_c, 11, 80, 0
13, 63600, Note_on_c, 11, 84, 84
13, 63839, Note_on_c, 11, 84, 0
13, 63840, Note_on_c, 11, 82, 84
13, 64059, Note_on_c, 11, 82, 0
13, 64080, Note_on_c, 11, 80, 84
13, 64259, Note_on_c, 11, 80, 0
13, 64320, Note_on_c, 11, 79, 92
13, 64439, Note_on_c, 11, 79, 0
13, 64440, Note_on_c, 11, 79, 84
13, 65519, Note_on_c, 11, 79, 0
13, 65520, Note_on_c, 11, 80, 84
13, 65739, Note_on_c, 11, 80, 0
13, 65760, Note_on_c, 11, 79, 92
13, 65879, Note_on_c, 11, 79, 0
13, 65880, Note_on_c, 11, 79, 84
13, 66959, Note_on_c, 11, 79, 0
13, 66960, Note_on_c, 11, 80, 84
13, 67179, Note_on_c, 11, 80, 0
13, 67200, Note_on_c, 11, 79, 92
13, 67319, Note_on_c, 11, 79, 0
13, 67320, Note_on_c, 11, 79, 84
13, 67679, Note_on_c, 11, 79, 0
13, 67680, Note_on_c, 11, 80, 84
13, 67899, Note_on_c, 11, 80, 0
13, 67920, Note_on_c, 11, 79, 92
13, 68039, Note_on_c, 11, 79, 0
13, 68040, Note_on_c, 11, 79, 84
13, 68399, Note_on_c, 11, 79, 0
13, 68400, Note_on_c, 11, 80, 84
13, 68619, Note_on_c, 11, 80, 0
13, 68640, Note_on_c, 11, 79, 84
13, 68640, Control_c, 11, 11, 127
13, 68700, Control_c, 11, 11, 120
13, 68760, Control_c, 11, 11, 114
13, 68820, Control_c, 11, 11, 107
13, 68880, Control_c, 11, 11, 101
13, 68940, Control_c, 11, 11, 94
13, 69000, Control_c, 11, 11, 88
13, 69060, Control_c, 11, 11, 81
13, 69120, Control_c, 11, 11, 74
13, 69180, Control_c, 11, 11, 68
13, 69240, Control_c, 11, 11, 61
13, 69300, Control_c, 11, 11, 55
13, 69360, Control_c, 11, 11, 48
13, 69599, Note_on_c, 11, 79, 0
13, 72000, Control_c, 11, 11, 127
13, 72240, Note_on_c, 11, 79, 52
13, 72459, Note_on_c, 11, 79, 0
13, 72480, Note_on_c, 11, 79, 52
13, 72699, Note_on_c, 11, 79, 0
13, 72720, Note_on_c, 11, 79, 52
13, 72939, Note_on_c, 11, 79, 0
13, 72960, Note_on_c, 11, 79, 52
13, 73199, Note_on_c, 11, 79, 0
13, 75120, Note_on_c, 11, 79, 52
13, 75339, Note_on_c, 11, 79, 0
13, 75360, Note_on_c, 11, 79, 52
13, 75579, Note_on_c, 11, 79, 0
13, 75600, Note_on_c, 11, 79, 52
13, 75819, Note_on_c, 11, 79, 0
13, 75840, Note_on_c, 11, 79, 52
13, 76079, Note_on_c, 11, 79, 0
13, 78000, Note_on_c, 11, 72, 52
13, 78479, Note_on_c, 11, 72, 0
13, 78480, Note_on_c, 11, 75, 52
13, 78719, Note_on_c, 11, 75, 0
13, 78720, Note_on_c, 11, 77, 52
13, 79199, Note_on_c, 11, 77, 0
13, 79200, Note_on_c, 11, 79, 52
13, 79439, Note_on_c, 11, 79, 0
13, 79440, Note_on_c, 11, 80, 52
13, 79919, Note_on_c, 11, 80, 0
13, 79920, Note_on_c, 11, 79, 52
13, 80139, Note_on_c, 11, 79, 0
13, 80160, Note_on_c, 11, 79, 52
13, 80639, Note_on_c, 11, 79, 0
13, 80640, Note_on_c, 11, 77, 52
13, 80879, Note_on_c, 11, 77, 0
13, 80880, Note_on_c, 11, 80, 52
13, 81359, Note_on_c, 11, 80, 0
13, 81360, Note_on_c, 11, 79, 52
13, 81579, Note_on_c, 11, 79, 0
13, 81600, Note_on_c, 11, 79, 52
13, 81839, Note_on_c, 11, 79, 0
13, 81840, Note_on_c, 11, 77, 52
13, 82059, Note_on_c, 11, 77, 0
13, 82080, Note_on_c, 11, 77, 52
13, 82299, Note_on_c, 11, 77, 0
13, 82320, Note_on_c, 11, 77, 52
13, 82539, Note_on_c, 11, 77, 0
13, 82560, Note_on_c, 11, 77, 52
13, 82779, Note_on_c, 11, 77, 0
13, 82800, Note_on_c, 11, 79, 52
13, 83019, Note_on_c, 11, 79, 0
13, 83040, Note_on_c, 11, 77, 52
13, 83159, Note_on_c, 11, 77, 0
13, 83160, Note_on_c, 11, 75, 52
13, 83259, Note_on_c, 11, 75, 0
13, 83280, Note_on_c, 11, 74, 52
13, 83369, Note_on_c, 11, 74, 0
13, 83400, Note_on_c, 11, 72, 52
13, 83489, Note_on_c, 11, 72, 0
13, 83520, Note_on_c, 11, 72, 52
13, 83739, Note_on_c, 11, 72, 0
13, 83760, Note_on_c, 11, 72, 52
13, 83879, Note_on_c, 11, 72, 0
13, 83880, Note_on_c, 11, 71, 52
13, 83979, Note_on_c, 11, 71, 0
13, 84000, Note_on_c, 11, 72, 52
13, 84089, Note_on_c, 11, 72, 0
13, 84120, Note_on_c, 11, 74, 52
13, 84209, Note_on_c, 11, 74, 0
13, 84240, Note_on_c, 11, 74, 52
13, 84459, Note_on_c, 11, 74, 0
13, 84480, Note_on_c, 11, 74, 52
13, 84599, Note_on_c, 11, 74, 0
13, 84600, Note_on_c, 11, 72, 52
13, 84699, Note_on_c, 11, 72, 0
13, 84720, Note_on_c, 11, 74, 52
13, 84809, Note_on_c, 11, 74, 0
13, 84840, Note_on_c, 11, 75, 52
13, 84929, Note_on_c, 11, 75, 0
13, 84960, Note_on_c, 11, 77, 52
13, 85179, Note_on_c, 11, 77, 0
13, 85200, Note_on_c, 11, 77, 52
13, 85419, Note_on_c, 11, 77, 0
13, 85440, Note_on_c, 11, 77, 52
13, 85659, Note_on_c, 11, 77, 0
13, 85680, Note_on_c, 11, 79, 52
13, 85899, Note_on_c, 11, 79, 0
13, 85920, Note_on_c, 11, 77, 52
13, 86039, Note_on_c, 11, 77, 0
13, 86040, Note_on_c, 11, 75, 52
13, 86139, Note_on_c, 11, 75, 0
13, 86160, Note_on_c, 11, 74, 52
13, 86249, Note_on_c, 11, 74, 0
13, 86280, Note_on_c, 11, 72, 52
13, 86369, Note_on_c, 11, 72, 0
13, 86400, Note_on_c, 11, 72, 52
13, 86619, Note_on_c, 11, 72, 0
13, 86640, Note_on_c, 11, 72, 52
13, 86759, Note_on_c, 11, 72, 0
13, 86760, Note_on_c, 11, 71, 52
13, 86859, Note_on_c, 11, 71, 0
13, 86880, Note_on_c, 11, 72, 52
13, 86969, Note_on_c, 11, 72, 0
13, 87000, Note_on_c, 11, 74, 52
13, 87089, Note_on_c, 11, 74, 0
13, 87120, Note_on_c, 11, 74, 52
13, 87339, Note_on_c, 11, 74, 0
13, 87360, Note_on_c, 11, 74, 52
13, 87479, Note_on_c, 11, 74, 0
13, 87480, Note_on_c, 11, 72, 52
13, 87579, Note_on_c, 11, 72, 0
13, 87600, Note_on_c, 11, 74, 52
13, 87689, Note_on_c, 11, 74, 0
13, 87720, Note_on_c, 11, 75, 52
13, 87809, Note_on_c, 11, 75, 0
13, 87840, Note_on_c, 11, 77, 52
13, 88059, Note_on_c, 11, 77, 0
13, 88080, Note_on_c, 11, 77, 53
13, 88299, Note_on_c, 11, 77, 0
13, 88320, Note_on_c, 11, 77, 54
13, 88539, Note_on_c, 11, 77, 0
13, 88560, Note_on_c, 11, 79, 55
13, 88779, Note_on_c, 11, 79, 0
13, 88800, Note_on_c, 11, 77, 56
13, 88919, Note_on_c, 11, 77, 0
13, 88920, Note_on_c, 11, 75, 56
13, 89019, Note_on_c, 11, 75, 0
13, 89040, Note_on_c, 11, 74, 57
13, 89129, Note_on_c, 11, 74, 0
13, 89160, Note_on_c, 11, 72, 58
13, 89249, Note_on_c, 11, 72, 0
13, 89280, Note_on_c, 11, 72, 58
13, 89519, Note_on_c, 11, 72, 0
13, 89640, Note_on_c, 11, 77, 60
13, 89739, Note_on_c, 11, 77, 0
13, 89760, Note_on_c, 11, 79, 60
13, 89859, Note_on_c, 11, 79, 0
13, 89880, Note_on_c, 11, 80, 61
13, 89979, Note_on_c, 11, 80, 0
13, 90000, Note_on_c, 11, 80, 61
13, 90239, Note_on_c, 11, 80, 0
13, 90240, Note_on_c, 11, 72, 62
13, 90359, Note_on_c, 11, 72, 0
13, 90360, Note_on_c, 11, 71, 63
13, 90459, Note_on_c, 11, 71, 0
13, 90480, Note_on_c, 11, 69, 64
13, 90569, Note_on_c, 11, 69, 0
13, 90600, Note_on_c, 11, 67, 64
13, 90689, Note_on_c, 11, 67, 0
13, 90720, Note_on_c, 11, 67, 65
13, 90959, Note_on_c, 11, 67, 0
13, 91080, Note_on_c, 11, 67, 66
13, 91179, Note_on_c, 11, 67, 0
13, 91200, Note_on_c, 11, 69, 67
13, 91299, Note_on_c, 11, 69, 0
13, 91320, Note_on_c, 11, 71, 67
13, 91419, Note_on_c, 11, 71, 0
13, 91440, Note_on_c, 11, 72, 68
13, 91679, Note_on_c, 11, 72, 0
13, 91800, Note_on_c, 11, 72, 70
13, 91899, Note_on_c, 11, 72, 0
13, 91920, Note_on_c, 11, 74, 70
13, 92019, Note_on_c, 11, 74, 0
13, 92040, Note_on_c, 11, 75, 71
13, 92139, Note_on_c, 11, 75, 0
13, 92160, Note_on_c, 11, 75, 71
13, 92399, Note_on_c, 11, 75, 0
13, 92520, Note_on_c, 11, 77, 73
13, 92619, Note_on_c, 11, 77, 0
13, 92640, Note_on_c, 11, 79, 73
13, 92739, Note_on_c, 11, 79, 0
13, 92760, Note_on_c, 11, 80, 74
13, 92859, Note_on_c, 11, 80, 0
13, 92880, Note_on_c, 11, 80, 74
13, 93119, Note_on_c, 11, 80, 0
13, 93240, Note_on_c, 11, 80, 76
13, 93339, Note_on_c, 11, 80, 0
13, 93360, Note_on_c, 11, 82, 76
13, 93459, Note_on_c, 11, 82, 0
13, 93480, Note_on_c, 11, 84, 76
13, 93579, Note_on_c, 11, 84, 0
13, 93600, Note_on_c, 11, 84, 76
13, 93819, Note_on_c, 11, 84, 0
13, 93840, Note_on_c, 11, 84, 76
13, 94059, Note_on_c, 11, 84, 0
13, 94080, Note_on_c, 11, 75, 76
13, 94080, Note_on_c, 11, 84, 76
13, 94080, Note_on_c, 11, 67, 76
13, 94299, Note_on_c, 11, 75, 0
13, 94299, Note_on_c, 11, 84, 0
13, 94299, Note_on_c, 11, 67, 0
13, 94320, Note_on_c, 11, 74, 76
13, 94320, Note_on_c, 11, 67, 76
13, 94320, Note_on_c, 11, 83, 76
13, 94539, Note_on_c, 11, 74, 0
13, 94539, Note_on_c, 11, 67, 0
13, 94539, Note_on_c, 11, 83, 0
13, 94560, Note_on_c, 11, 84, 76
13, 94560, Note_on_c, 11, 75, 76
13, 94560, Note_on_c, 11, 67, 76
13, 94799, Note_on_c, 11, 84, 0
13, 94799, Note_on_c, 11, 75, 0
13, 94799, Note_on_c, 11, 67, 0
13, 95280, Note_on_c, 11, 79, 84
13, 95499, Note_on_c, 11, 79, 0
13, 95520, Note_on_c, 11, 79, 84
13, 95739, Note_on_c, 11, 79, 0
13, 95760, Note_on_c, 11, 79, 84
13, 95979, Note_on_c, 11, 79, 0
13, 96000, Note_on_c, 11, 79, 84
13, 96699, Note_on_c, 11, 79, 0
13, 96720, Note_on_c, 11, 79, 84
13, 96939, Note_on_c, 11, 79, 0
13, 96960, Note_on_c, 11, 79, 84
13, 97179, Note_on_c, 11, 79, 0
13, 97200, Note_on_c, 11, 79, 84
13, 97419, Note_on_c, 11, 79, 0
13, 97440, Note_on_c, 11, 79, 84
13, 98139, Note_on_c, 11, 79, 0
13, 98160, Note_on_c, 11, 72, 52
13, 98379, Note_on_c, 11, 72, 0
13, 98400, Note_on_c, 11, 72, 52
13, 98619, Note_on_c, 11, 72, 0
13, 98640, Note_on_c, 11, 72, 52
13, 98859, Note_on_c, 11, 72, 0
13, 98880, Note_on_c, 11, 72, 52
13, 99059, Note_on_c, 11, 72, 0
13, 99600, Note_on_c, 11, 67, 52
13, 99779, Note_on_c, 11, 67, 0
13, 100320, Note_on_c, 11, 60, 52
13, 100499, Note_on_c, 11, 60, 0
13, 110880, Note_on_c, 11, 79, 76
13, 111099, Note_on_c, 11, 79, 0
13, 111120, Note_on_c, 11, 78, 76
13, 111219, Note_on_c, 11, 78, 0
13, 111240, Note_on_c, 11, 79, 76
13, 111339, Note_on_c, 11, 79, 0
13, 111360, Note_on_c, 11, 81, 76
13, 111459, Note_on_c, 11, 81, 0
13, 111480, Note_on_c, 11, 74, 76
13, 111579, Note_on_c, 11, 74, 0
13, 111600, Note_on_c, 11, 76, 76
13, 111699, Note_on_c, 11, 76, 0
13, 111720, Note_on_c, 11, 78, 76
13, 111819, Note_on_c, 11, 78, 0
13, 111840, Note_on_c, 11, 79, 76
13, 111939, Note_on_c, 11, 79, 0
13, 111960, Note_on_c, 11, 78, 76
13, 112059, Note_on_c, 11, 78, 0
13, 112080, Note_on_c, 11, 79, 76
13, 112179, Note_on_c, 11, 79, 0
13, 112200, Note_on_c, 11, 81, 76
13, 112299, Note_on_c, 11, 81, 0
13, 112320, Note_on_c, 11, 83, 76
13, 112419, Note_on_c, 11, 83, 0
13, 112440, Note_on_c, 11, 84, 76
13, 112539, Note_on_c, 11, 84, 0
13, 112560, Note_on_c, 11, 86, 76
13, 112659, Note_on_c, 11, 86, 0
13, 112680, Note_on_c, 11, 86, 76
13, 112779, Note_on_c, 11, 86, 0
13, 112800, Note_on_c, 11, 86, 76
13, 112899, Note_on_c, 11, 86, 0
13, 112920, Note_on_c, 11, 86, 76
13, 113019, Note_on_c, 11, 86, 0
13, 113040, Note_on_c, 11, 88, 76
13, 113139, Note_on_c, 11, 88, 0
13, 113160, Note_on_c, 11, 90, 76
13, 113259, Note_on_c, 11, 90, 0
13, 113280, Note_on_c, 11, 91, 76
13, 113519, Note_on_c, 11, 91, 0
13, 113640, Note_on_c, 11, 86, 76
13, 113739, Note_on_c, 11, 86, 0
13, 113760, Note_on_c, 11, 88, 76
13, 113859, Note_on_c, 11, 88, 0
13, 113880, Note_on_c, 11, 90, 76
13, 113979, Note_on_c, 11, 90, 0
13, 114000, Note_on_c, 11, 91, 76
13, 114239, Note_on_c, 11, 91, 0
13, 114360, Note_on_c, 11, 86, 76
13, 114459, Note_on_c, 11, 86, 0
13, 114480, Note_on_c, 11, 88, 76
13, 114579, Note_on_c, 11, 88, 0
13, 114600, Note_on_c, 11, 90, 76
13, 114699, Note_on_c, 11, 90, 0
13, 114720, Note_on_c, 11, 91, 76
13, 114959, Note_on_c, 11, 91, 0
13, 125280, Note_on_c, 11, 79, 76
13, 125499, Note_on_c, 11, 79, 0
13, 125520, Note_on_c, 11, 78, 76
13, 125619, Note_on_c, 11, 78, 0
13, 125640, Note_on_c, 11, 79, 76
13, 125739, Note_on_c, 11, 79, 0
13, 125760, Note_on_c, 11, 81, 76
13, 125859, Note_on_c, 11, 81, 0
13, 125880, Note_on_c, 11, 74, 76
13, 125979, Note_on_c, 11, 74, 0
13, 126000, Note_on_c, 11, 76, 76
13, 126099, Note_on_c, 11, 76, 0
13, 126120, Note_on_c, 11, 78, 76
13, 126219, Note_on_c, 11, 78, 0
13, 126240, Note_on_c, 11, 79, 76
13, 126339, Note_on_c, 11, 79, 0
13, 126360, Note_on_c, 11, 78, 76
13, 126459, Note_on_c, 11, 78, 0
13, 126480, Note_on_c, 11, 79, 76
13, 126579, Note_on_c, 11, 79, 0
13, 126600, Note_on_c, 11, 81, 76
13, 126699, Note_on_c, 11, 81, 0
13, 126720, Note_on_c, 11, 83, 76
13, 126819, Note_on_c, 11, 83, 0
13, 126840, Note_on_c, 11, 84, 76
13, 126939, Note_on_c, 11, 84, 0
13, 126960, Note_on_c, 11, 86, 76
13, 127059, Note_on_c, 11, 86, 0
13, 127080, Note_on_c, 11, 86, 76
13, 127179, Note_on_c, 11, 86, 0
13, 127200, Note_on_c, 11, 86, 76
13, 127299, Note_on_c, 11, 86, 0
13, 127320, Note_on_c, 11, 86, 76
13, 127419, Note_on_c, 11, 86, 0
13, 127440, Note_on_c, 11, 88, 76
13, 127539, Note_on_c, 11, 88, 0
13, 127560, Note_on_c, 11, 90, 76
13, 127659, Note_on_c, 11, 90, 0
13, 127680, Note_on_c, 11, 91, 76
13, 127919, Note_on_c, 11, 91, 0
13, 128040, Note_on_c, 11, 86, 76
13, 128139, Note_on_c, 11, 86, 0
13, 128160, Note_on_c, 11, 88, 76
13, 128259, Note_on_c, 11, 88, 0
13, 128280, Note_on_c, 11, 90, 76
13, 128379, Note_on_c, 11, 90, 0
13, 128400, Note_on_c, 11, 91, 76
13, 128639, Note_on_c, 11, 91, 0
13, 128760, Note_on_c, 11, 86, 76
13, 128859, Note_on_c, 11, 86, 0
13, 128880, Note_on_c, 11, 88, 76
13, 128979, Note_on_c, 11, 88, 0
13, 129000, Note_on_c, 11, 90, 76
13, 129099, Note_on_c, 11, 90, 0
13, 129120, Note_on_c, 11, 91, 76
13, 129359, Note_on_c, 11, 91, 0
13, 143280, Note_on_c, 11, 79, 76
13, 143499, Note_on_c, 11, 79, 0
13, 143520, Note_on_c, 11, 76, 76
13, 143619, Note_on_c, 11, 76, 0
13, 143640, Note_on_c, 11, 77, 76
13, 143739, Note_on_c, 11, 77, 0
13, 143760, Note_on_c, 11, 79, 76
13, 143859, Note_on_c, 11, 79, 0
13, 143880, Note_on_c, 11, 72, 76
13, 143979, Note_on_c, 11, 72, 0
13, 144000, Note_on_c, 11, 74, 76
13, 144099, Note_on_c, 11, 74, 0
13, 144120, Note_on_c, 11, 76, 76
13, 144219, Note_on_c, 11, 76, 0
13, 144240, Note_on_c, 11, 77, 76
13, 144339, Note_on_c, 11, 77, 0
13, 144360, Note_on_c, 11, 76, 76
13, 144459, Note_on_c, 11, 76, 0
13, 144480, Note_on_c, 11, 77, 76
13, 144579, Note_on_c, 11, 77, 0
13, 144600, Note_on_c, 11, 79, 76
13, 144699, Note_on_c, 11, 79, 0
13, 144720, Note_on_c, 11, 81, 76
13, 144819, Note_on_c, 11, 81, 0
13, 144840, Note_on_c, 11, 77, 76
13, 144939, Note_on_c, 11, 77, 0
13, 144960, Note_on_c, 11, 74, 76
13, 145059, Note_on_c, 11, 74, 0
13, 145080, Note_on_c, 11, 67, 76
13, 145179, Note_on_c, 11, 67, 0
13, 145200, Note_on_c, 11, 74, 76
13, 145299, Note_on_c, 11, 74, 0
13, 145320, Note_on_c, 11, 74, 76
13, 145419, Note_on_c, 11, 74, 0
13, 145440, Note_on_c, 11, 74, 76
13, 145539, Note_on_c, 11, 74, 0
13, 145560, Note_on_c, 11, 74, 76
13, 145659, Note_on_c, 11, 74, 0
13, 145680, Note_on_c, 11, 76, 76
13, 145779, Note_on_c, 11, 76, 0
13, 145800, Note_on_c, 11, 72, 76
13, 145899, Note_on_c, 11, 72, 0
13, 145920, Note_on_c, 11, 76, 76
13, 146019, Note_on_c, 11, 76, 0
13, 146040, Note_on_c, 11, 76, 76
13, 146139, Note_on_c, 11, 76, 0
13, 146160, Note_on_c, 11, 76, 76
13, 146259, Note_on_c, 11, 76, 0
13, 146280, Note_on_c, 11, 77, 76
13, 146379, Note_on_c, 11, 77, 0
13, 146400, Note_on_c, 11, 79, 84
13, 146499, Note_on_c, 11, 79, 0
13, 146520, Note_on_c, 11, 74, 76
13, 146619, Note_on_c, 11, 74, 0
13, 146640, Note_on_c, 11, 79, 76
13, 146739, Note_on_c, 11, 79, 0
13, 146760, Note_on_c, 11, 79, 76
13, 146859, Note_on_c, 11, 79, 0
13, 146880, Note_on_c, 11, 77, 76
13, 146979, Note_on_c, 11, 77, 0
13, 147000, Note_on_c, 11, 77, 76
13, 147099, Note_on_c, 11, 77, 0
13, 147120, Note_on_c, 11, 76, 76
13, 147219, Note_on_c, 11, 76, 0
13, 147240, Note_on_c, 11, 76, 76
13, 147339, Note_on_c, 11, 76, 0
13, 147360, Note_on_c, 11, 72, 76
13, 147459, Note_on_c, 11, 72, 0
13, 147480, Note_on_c, 11, 72, 76
13, 147579, Note_on_c, 11, 72, 0
13, 147600, Note_on_c, 11, 76, 76
13, 147699, Note_on_c, 11, 76, 0
13, 147720, Note_on_c, 11, 76, 76
13, 147819, Note_on_c, 11, 76, 0
13, 147840, Note_on_c, 11, 79, 84
13, 147939, Note_on_c, 11, 79, 0
13, 147960, Note_on_c, 11, 74, 76
13, 148059, Note_on_c, 11, 74, 0
13, 148080, Note_on_c, 11, 79, 76
13, 148179, Note_on_c, 11, 79, 0
13, 148200, Note_on_c, 11, 79, 76
13, 148299, Note_on_c, 11, 79, 0
13, 148320, Note_on_c, 11, 77, 76
13, 148419, Note_on_c, 11, 77, 0
13, 148440, Note_on_c, 11, 77, 76
13, 148539, Note_on_c, 11, 77, 0
13, 148560, Note_on_c, 11, 76, 76
13, 148659, Note_on_c, 11, 76, 0
13, 148680, Note_on_c, 11, 76, 76
13, 148779, Note_on_c, 11, 76, 0
13, 148800, Note_on_c, 11, 72, 76
13, 148899, Note_on_c, 11, 72, 0
13, 148920, Note_on_c, 11, 72, 76
13, 149019, Note_on_c, 11, 72, 0
13, 149040, Note_on_c, 11, 76, 76
13, 149139, Note_on_c, 11, 76, 0
13, 149160, Note_on_c, 11, 76, 76
13, 149259, Note_on_c, 11, 76, 0
13, 149280, Note_on_c, 11, 79, 84
13, 149379, Note_on_c, 11, 79, 0
13, 149400, Note_on_c, 11, 74, 76
13, 149499, Note_on_c, 11, 74, 0
13, 149520, Note_on_c, 11, 79, 76
13, 149619, Note_on_c, 11, 79, 0
13, 149640, Note_on_c, 11, 79, 76
13, 149739, Note_on_c, 11, 79, 0
13, 149760, Note_on_c, 11, 77, 76
13, 149859, Note_on_c, 11, 77, 0
13, 149880, Note_on_c, 11, 77, 76
13, 149979, Note_on_c, 11, 77, 0
13, 150000, Note_on_c, 11, 76, 76
13, 150099, Note_on_c, 11, 76, 0
13, 150120, Note_on_c, 11, 76, 76
13, 150219, Note_on_c, 11, 76, 0
13, 150240, Note_on_c, 11, 72, 76
13, 150339, Note_on_c, 11, 72, 0
13, 150360, Note_on_c, 11, 72, 76
13, 150459, Note_on_c, 11, 72, 0
13, 150480, Note_on_c, 11, 77, 76
13, 150579, Note_on_c, 11, 77, 0
13, 150600, Note_on_c, 11, 77, 76
13, 150699, Note_on_c, 11, 77, 0
13, 150720, Note_on_c, 11, 74, 76
13, 150819, Note_on_c, 11, 74, 0
13, 150840, Note_on_c, 11, 74, 76
13, 150939, Note_on_c, 11, 74, 0
13, 150960, Note_on_c, 11, 71, 76
13, 151059, Note_on_c, 11, 71, 0
13, 151080, Note_on_c, 11, 71, 76
13, 151179, Note_on_c, 11, 71, 0
13, 151200, Note_on_c, 11, 76, 76
13, 151299, Note_on_c, 11, 76, 0
13, 151320, Note_on_c, 11, 76, 76
13, 151419, Note_on_c, 11, 76, 0
13, 151440, Note_on_c, 11, 72, 76
13, 151539, Note_on_c, 11, 72, 0
13, 151560, Note_on_c, 11, 72, 76
13, 151659, Note_on_c, 11, 72, 0
13, 151680, Note_on_c, 11, 69, 76
13, 151779, Note_on_c, 11, 69, 0
13, 151800, Note_on_c, 11, 69, 76
13, 151899, Note_on_c, 11, 69, 0
13, 151920, Note_on_c, 11, 74, 76
13, 152019, Note_on_c, 11, 74, 0
13, 152040, Note_on_c, 11, 74, 76
13, 152139, Note_on_c, 11, 74, 0
13, 152160, Note_on_c, 11, 71, 76
13, 152259, Note_on_c, 11, 71, 0
13, 152280, Note_on_c, 11, 71, 76
13, 152379, Note_on_c, 11, 71, 0
13, 152400, Note_on_c, 11, 79, 76
13, 152499, Note_on_c, 11, 79, 0
13, 152520, Note_on_c, 11, 79, 76
13, 152619, Note_on_c, 11, 79, 0
13, 152640, Note_on_c, 11, 74, 76
13, 152739, Note_on_c, 11, 74, 0
13, 152760, Note_on_c, 11, 74, 76
13, 152859, Note_on_c, 11, 74, 0
13, 152880, Note_on_c, 11, 71, 76
13, 152979, Note_on_c, 11, 71, 0
13, 153000, Note_on_c, 11, 71, 76
13, 153099, Note_on_c, 11, 71, 0
13, 153120, Note_on_c, 11, 79, 76
13, 153219, Note_on_c, 11, 79, 0
13, 153240, Note_on_c, 11, 79, 76
13, 153339, Note_on_c, 11, 79, 0
13, 153360, Note_on_c, 11, 83, 76
13, 153459, Note_on_c, 11, 83, 0
13, 153480, Note_on_c, 11, 83, 76
13, 153579, Note_on_c, 11, 83, 0
13, 153600, Note_on_c, 11, 84, 76
13, 153839, Note_on_c, 11, 84, 0
13, 153960, Note_on_c, 11, 79, 76
13, 154059, Note_on_c, 11, 79, 0
13, 154080, Note_on_c, 11, 81, 76
13, 154179, Note_on_c, 11, 81, 0
13, 154200, Note_on_c, 11, 83, 76
13, 154299, Note_on_c, 11, 83, 0
13, 154320, Note_on_c, 11, 84, 76
13, 154559, Note_on_c, 11, 84, 0
13, 154680, Note_on_c, 11, 79, 76
13, 154779, Note_on_c, 11, 79, 0
13, 154800, Note_on_c, 11, 81, 76
13, 154899, Note_on_c, 11, 81, 0
13, 154920, Note_on_c, 11, 83, 76
13, 155019, Note_on_c, 11, 83, 0
13, 155040, Note_on_c, 11, 84, 76
13, 155279, Note_on_c, 11, 84, 0
13, 169200, Note_on_c, 11, 79, 44
13, 169439, Note_on_c, 11, 79, 0
13, 169440, Note_on_c, 11, 76, 44
13, 169559, Note_on_c, 11, 76, 0
13, 169560, Note_on_c, 11, 77, 44
13, 169679, Note_on_c, 11, 77, 0
13, 169680, Note_on_c, 11, 79, 44
13, 169799, Note_on_c, 11, 79, 0
13, 169800, Note_on_c, 11, 72, 44
13, 169919, Note_on_c, 11, 72, 0
13, 169920, Note_on_c, 11, 74, 44
13, 170039, Note_on_c, 11, 74, 0
13, 170040, Note_on_c, 11, 76, 44
13, 170159, Note_on_c, 11, 76, 0
13, 170160, Note_on_c, 11, 77, 44
13, 170279, Note_on_c, 11, 77, 0
13, 170280, Note_on_c, 11, 76, 44
13, 170399, Note_on_c, 11, 76, 0
13, 170400, Note_on_c, 11, 77, 44
13, 170519, Note_on_c, 11, 77, 0
13, 170520, Note_on_c, 11, 79, 44
13, 170639, Note_on_c, 11, 79, 0
13, 170640, Note_on_c, 11, 81, 44
13, 170759, Note_on_c, 11, 81, 0
13, 170760, Note_on_c, 11, 77, 44
13, 170879, Note_on_c, 11, 77, 0
13, 170880, Note_on_c, 11, 74, 44
13, 171119, Note_on_c, 11, 74, 0
13, 194400, Program_c, 11, 45
13, 194640, Note_on_c, 11, 67, 48
13, 194879, Note_on_c, 11, 67, 0
13, 195120, Note_on_c, 11, 71, 48
13, 195359, Note_on_c, 11, 71, 0
13, 195360, Note_on_c, 11, 72, 48
13, 195599, Note_on_c, 11, 72, 0
13, 195840, Note_on_c, 11, 74, 48
13, 196079, Note_on_c, 11, 74, 0
13, 196080, Note_on_c, 11, 77, 48
13, 196319, Note_on_c, 11, 77, 0
13, 196560, Note_on_c, 11, 75, 48
13, 196799, Note_on_c, 11, 75, 0
13, 196800, Note_on_c, 11, 74, 48
13, 197039, Note_on_c, 11, 74, 0
13, 197280, Program_c, 11, 48
13, 197440, Note_on_c, 11, 59, 44
13, 197479, Note_on_c, 11, 59, 0
13, 197480, Note_on_c, 11, 62, 44
13, 197519, Note_on_c, 11, 62, 0
13, 197520, Note_on_c, 11, 67, 44
13, 197759, Note_on_c, 11, 67, 0
13, 198160, Note_on_c, 11, 60, 44
13, 198199, Note_on_c, 11, 60, 0
13, 198200, Note_on_c, 11, 63, 44
13, 198239, Note_on_c, 11, 63, 0
13, 198240, Note_on_c, 11, 67, 44
13, 198479, Note_on_c, 11, 67, 0
13, 198880, Note_on_c, 11, 62, 44
13, 198919, Note_on_c, 11, 62, 0
13, 198920, Note_on_c, 11, 65, 44
13, 198959, Note_on_c, 11, 65, 0
13, 198960, Note_on_c, 11, 71, 44
13, 199199, Note_on_c, 11, 71, 0
13, 199600, Note_on_c, 11, 63, 44
13, 199639, Note_on_c, 11, 63, 0
13, 199640, Note_on_c, 11, 67, 44
13, 199679, Note_on_c, 11, 67, 0
13, 199680, Note_on_c, 11, 72, 44
13, 199919, Note_on_c, 11, 72, 0
13, 200160, Program_c, 11, 45
13, 200400, Note_on_c, 11, 67, 44
13, 200639, Note_on_c, 11, 67, 0
13, 200640, Note_on_c, 11, 67, 44
13, 200879, Note_on_c, 11, 67, 0
13, 200880, Note_on_c, 11, 67, 44
13, 201119, Note_on_c, 11, 67, 0
13, 201120, Note_on_c, 11, 67, 44
13, 201359, Note_on_c, 11, 67, 0
13, 201840, Note_on_c, 11, 70, 44
13, 202079, Note_on_c, 11, 70, 0
13, 202080, Note_on_c, 11, 68, 44
13, 202319, Note_on_c, 11, 68, 0
13, 202320, Note_on_c, 11, 67, 44
13, 202559, Note_on_c, 11, 67, 0
13, 202560, Note_on_c, 11, 65, 44
13, 202799, Note_on_c, 11, 65, 0
13, 203040, Program_c, 11, 48
13, 203200, Note_on_c, 11, 64, 44
13, 203239, Note_on_c, 11, 64, 0
13, 203240, Note_on_c, 11, 67, 44
13, 203279, Note_on_c, 11, 67, 0
13, 203280, Note_on_c, 11, 72, 44
13, 203519, Note_on_c, 11, 72, 0
13, 203920, Note_on_c, 11, 65, 44
13, 203959, Note_on_c, 11, 65, 0
13, 203960, Note_on_c, 11, 68, 44
13, 203999, Note_on_c, 11, 68, 0
13, 204000, Note_on_c, 11, 72, 44
13, 204239, Note_on_c, 11, 72, 0
13, 204640, Note_on_c, 11, 64, 44
13, 204679, Note_on_c, 11, 64, 0
13, 204680, Note_on_c, 11, 70, 44
13, 204719, Note_on_c, 11, 70, 0
13, 204720, Note_on_c, 11, 72, 44
13, 204959, Note_on_c, 11, 72, 0
13, 205360, Note_on_c, 11, 65, 44
13, 205399, Note_on_c, 11, 65, 0
13, 205400, Note_on_c, 11, 68, 44
13, 205439, Note_on_c, 11, 68, 0
13, 205440, Note_on_c, 11, 72, 44
13, 205679, Note_on_c, 11, 72, 0
13, 205920, Program_c, 11, 45
13, 206160, Note_on_c, 11, 72, 44
13, 206399, Note_on_c, 11, 72, 0
13, 206400, Note_on_c, 11, 72, 44
13, 206639, Note_on_c, 11, 72, 0
13, 206640, Note_on_c, 11, 72, 44
13, 206879, Note_on_c, 11, 72, 0
13, 206880, Note_on_c, 11, 72, 44
13, 207119, Note_on_c, 11, 72, 0
13, 207600, Note_on_c, 11, 75, 44
13, 207839, Note_on_c, 11, 75, 0
13, 207840, Note_on_c, 11, 73, 44
13, 208079, Note_on_c, 11, 73, 0
13, 208080, Note_on_c, 11, 72, 44
13, 208319, Note_on_c, 11, 72, 0
13, 208320, Note_on_c, 11, 70, 44
13, 208559, Note_on_c, 11, 70, 0
13, 209040, Note_on_c, 11, 72, 44
13, 209279, Note_on_c, 11, 72, 0
13, 209760, Note_on_c, 11, 68, 44
13, 209999, Note_on_c, 11, 68, 0
13, 210480, Note_on_c, 11, 72, 44
13, 210719, Note_on_c, 11, 72, 0
13, 210720, Note_on_c, 11, 70, 44
13, 210959, Note_on_c, 11, 70, 0
13, 210960, Note_on_c, 11, 68, 44
13, 211199, Note_on_c, 11, 68, 0
13, 211200, Note_on_c, 11, 67, 44
13, 211439, Note_on_c, 11, 67, 0
13, 212400, Note_on_c, 11, 68, 44
13, 212639, Note_on_c, 11, 68, 0
13, 212640, Note_on_c, 11, 67, 44
13, 212879, Note_on_c, 11, 67, 0
13, 213840, Note_on_c, 11, 68, 44
13, 214079, Note_on_c, 11, 68, 0
13, 214080, Note_on_c, 11, 67, 44
13, 214319, Note_on_c, 11, 67, 0
13, 214560, Note_on_c, 11, 68, 44
13, 214799, Note_on_c, 11, 68, 0
13, 214800, Note_on_c, 11, 67, 44
13, 215039, Note_on_c, 11, 67, 0
13, 215280, Note_on_c, 11, 68, 44
13, 215519, Note_on_c, 11, 68, 0
13, 215520, Note_on_c, 11, 67, 44
13, 215759, Note_on_c, 11, 67, 0
13, 219120, Note_on_c, 11, 67, 44
13, 219359, Note_on_c, 11, 67, 0
13, 219600, Note_on_c, 11, 71, 44
13, 219839, Note_on_c, 11, 71, 0
13, 219840, Note_on_c, 11, 72, 44
13, 220079, Note_on_c, 11, 72, 0
13, 220320, Note_on_c, 11, 74, 44
13, 220559, Note_on_c, 11, 74, 0
13, 220560, Note_on_c, 11, 77, 44
13, 220799, Note_on_c, 11, 77, 0
13, 221040, Note_on_c, 11, 75, 44
13, 221279, Note_on_c, 11, 75, 0
13, 221280, Note_on_c, 11, 74, 44
13, 221519, Note_on_c, 11, 74, 0
13, 222000, Note_on_c, 11, 67, 44
13, 222239, Note_on_c, 11, 67, 0
13, 222480, Note_on_c, 11, 71, 44
13, 222719, Note_on_c, 11, 71, 0
13, 222720, Note_on_c, 11, 72, 44
13, 222959, Note_on_c, 11, 72, 0
13, 223200, Note_on_c, 11, 75, 44
13, 223439, Note_on_c, 11, 75, 0
13, 223440, Note_on_c, 11, 79, 44
13, 223679, Note_on_c, 11, 79, 0
13, 223920, Note_on_c, 11, 77, 44
13, 224159, Note_on_c, 11, 77, 0
13, 224160, Note_on_c, 11, 75, 44
13, 224399, Note_on_c, 11, 75, 0
13, 224880, Note_on_c, 11, 72, 44
13, 225119, Note_on_c, 11, 72, 0
13, 225360, Note_on_c, 11, 75, 44
13, 225599, Note_on_c, 11, 75, 0
13, 225600, Note_on_c, 11, 77, 44
13, 225839, Note_on_c, 11, 77, 0
13, 226080, Note_on_c, 11, 79, 44
13, 226319, Note_on_c, 11, 79, 0
13, 226320, Note_on_c, 11, 80, 44
13, 226559, Note_on_c, 11, 80, 0
13, 226800, Note_on_c, 11, 79, 44
13, 227039, Note_on_c, 11, 79, 0
13, 227040, Note_on_c, 11, 79, 44
13, 227279, Note_on_c, 11, 79, 0
13, 227520, Note_on_c, 11, 77, 44
13, 227759, Note_on_c, 11, 77, 0
13, 227760, Note_on_c, 11, 80, 44
13, 227999, Note_on_c, 11, 80, 0
13, 228240, Note_on_c, 11, 79, 44
13, 228479, Note_on_c, 11, 79, 0
13, 228480, Note_on_c, 11, 79, 44
13, 228719, Note_on_c, 11, 79, 0
13, 228720, Note_on_c, 11, 77, 44
13, 228959, Note_on_c, 11, 77, 0
13, 228960, Note_on_c, 11, 77, 44
13, 229199, Note_on_c, 11, 77, 0
13, 229200, Note_on_c, 11, 77, 44
13, 229439, Note_on_c, 11, 77, 0
13, 229440, Note_on_c, 11, 77, 44
13, 229679, Note_on_c, 11, 77, 0
13, 229680, Note_on_c, 11, 79, 44
13, 229839, Note_on_c, 11, 79, 0
13, 229840, Note_on_c, 11, 77, 44
13, 229919, Note_on_c, 11, 77, 0
13, 229920, Note_on_c, 11, 75, 44
13, 230159, Note_on_c, 11, 75, 0
13, 230160, Note_on_c, 11, 74, 44
13, 230399, Note_on_c, 11, 74, 0
13, 230400, Note_on_c, 11, 72, 44
13, 230639, Note_on_c, 11, 72, 0
13, 230640, Note_on_c, 11, 71, 44
13, 230879, Note_on_c, 11, 71, 0
13, 230880, Note_on_c, 11, 72, 44
13, 231119, Note_on_c, 11, 72, 0
13, 231120, Note_on_c, 11, 74, 44
13, 231359, Note_on_c, 11, 74, 0
13, 231360, Note_on_c, 11, 72, 44
13, 231599, Note_on_c, 11, 72, 0
13, 231600, Note_on_c, 11, 75, 44
13, 231839, Note_on_c, 11, 75, 0
13, 231840, Note_on_c, 11, 77, 44
13, 232079, Note_on_c, 11, 77, 0
13, 232080, Note_on_c, 11, 77, 44
13, 232319, Note_on_c, 11, 77, 0
13, 232320, Note_on_c, 11, 77, 44
13, 232559, Note_on_c, 11, 77, 0
13, 232560, Note_on_c, 11, 79, 44
13, 232719, Note_on_c, 11, 79, 0
13, 232720, Note_on_c, 11, 77, 44
13, 232799, Note_on_c, 11, 77, 0
13, 232800, Note_on_c, 11, 75, 44
13, 233039, Note_on_c, 11, 75, 0
13, 233040, Note_on_c, 11, 74, 44
13, 233279, Note_on_c, 11, 74, 0
13, 233280, Note_on_c, 11, 72, 44
13, 233519, Note_on_c, 11, 72, 0
13, 233520, Note_on_c, 11, 71, 44
13, 233759, Note_on_c, 11, 71, 0
13, 233760, Note_on_c, 11, 72, 44
13, 233999, Note_on_c, 11, 72, 0
13, 234000, Note_on_c, 11, 74, 44
13, 234239, Note_on_c, 11, 74, 0
13, 234240, Note_on_c, 11, 72, 44
13, 234479, Note_on_c, 11, 72, 0
13, 234480, Note_on_c, 11, 75, 44
13, 234719, Note_on_c, 11, 75, 0
13, 234720, Note_on_c, 11, 77, 44
13, 234959, Note_on_c, 11, 77, 0
13, 234960, Note_on_c, 11, 77, 44
13, 235199, Note_on_c, 11, 77, 0
13, 235200, Note_on_c, 11, 77, 44
13, 235439, Note_on_c, 11, 77, 0
13, 235440, Note_on_c, 11, 79, 44
13, 235599, Note_on_c, 11, 79, 0
13, 235600, Note_on_c, 11, 77, 44
13, 235679, Note_on_c, 11, 77, 0
13, 235680, Note_on_c, 11, 75, 44
13, 235919, Note_on_c, 11, 75, 0
13, 235920, Note_on_c, 11, 74, 44
13, 236159, Note_on_c, 11, 74, 0
13, 236160, Note_on_c, 11, 72, 44
13, 236399, Note_on_c, 11, 72, 0
13, 236400, Note_on_c, 11, 77, 44
13, 236639, Note_on_c, 11, 77, 0
13, 236640, Note_on_c, 11, 79, 44
13, 236879, Note_on_c, 11, 79, 0
13, 236880, Note_on_c, 11, 80, 44
13, 237039, Note_on_c, 11, 80, 0
13, 237040, Note_on_c, 11, 72, 44
13, 237119, Note_on_c, 11, 72, 0
13, 237120, Note_on_c, 11, 71, 44
13, 237359, Note_on_c, 11, 71, 0
13, 237360, Note_on_c, 11, 69, 44
13, 237599, Note_on_c, 11, 69, 0
13, 237600, Note_on_c, 11, 67, 44
13, 237839, Note_on_c, 11, 67, 0
13, 237840, Note_on_c, 11, 67, 44
13, 238079, Note_on_c, 11, 67, 0
13, 238080, Note_on_c, 11, 69, 44
13, 238319, Note_on_c, 11, 69, 0
13, 238320, Note_on_c, 11, 71, 44
13, 238559, Note_on_c, 11, 71, 0
13, 238560, Note_on_c, 11, 72, 44
13, 238799, Note_on_c, 11, 72, 0
13, 238800, Note_on_c, 11, 74, 44
13, 239039, Note_on_c, 11, 74, 0
13, 239040, Note_on_c, 11, 75, 44
13, 239279, Note_on_c, 11, 75, 0
13, 239280, Note_on_c, 11, 77, 44
13, 239519, Note_on_c, 11, 77, 0
13, 239520, Note_on_c, 11, 79, 44
13, 239759, Note_on_c, 11, 79, 0
13, 239760, Note_on_c, 11, 80, 44
13, 239999, Note_on_c, 11, 80, 0
13, 240000, Note_on_c, 11, 80, 44
13, 240239, Note_on_c, 11, 80, 0
13, 240240, Note_on_c, 11, 82, 44
13, 240479, Note_on_c, 11, 82, 0
13, 240480, Note_on_c, 11, 84, 44
13, 240719, Note_on_c, 11, 84, 0
13, 240720, Note_on_c, 11, 84, 44
13, 240959, Note_on_c, 11, 84, 0
13, 240960, Note_on_c, 11, 84, 44
13, 241199, Note_on_c, 11, 84, 0
13, 241200, Note_on_c, 11, 83, 44
13, 241439, Note_on_c, 11, 83, 0
13, 241440, Note_on_c, 11, 84, 44
13, 241679, Note_on_c, 11, 84, 0
13, 242160, Note_on_c, 11, 79, 44
13, 242399, Note_on_c, 11, 79, 0
13, 242400, Note_on_c, 11, 79, 44
13, 242639, Note_on_c, 11, 79, 0
13, 242640, Note_on_c, 11, 79, 44
13, 242879, Note_on_c, 11, 79, 0
13, 242880, Note_on_c, 11, 79, 44
13, 243119, Note_on_c, 11, 79, 0
13, 243600, Note_on_c, 11, 79, 44
13, 243839, Note_on_c, 11, 79, 0
13, 243840, Note_on_c, 11, 79, 44
13, 244079, Note_on_c, 11, 79, 0
13, 244080, Note_on_c, 11, 79, 44
13, 244319, Note_on_c, 11, 79, 0
13, 244320, Note_on_c, 11, 79, 44
13, 244559, Note_on_c, 11, 79, 0
13, 245040, Note_on_c, 11, 72, 44
13, 245279, Note_on_c, 11, 72, 0
13, 245280, Note_on_c, 11, 72, 44
13, 245519, Note_on_c, 11, 72, 0
13, 245520, Note_on_c, 11, 72, 44
13, 245759, Note_on_c, 11, 72, 0
13, 245760, Note_on_c, 11, 72, 44
13, 245999, Note_on_c, 11, 72, 0
13, 246480, Note_on_c, 11, 67, 44
13, 246719, Note_on_c, 11, 67, 0
13, 246960, Program_c, 11, 48
13, 247200, Note_on_c, 11, 60, 40
13, 248639, Note_on_c, 11, 60, 0
13, 248640, Note_on_c, 11, 60, 40
13, 250079, Note_on_c, 11, 60, 0
13, 250080, Note_on_c, 11, 60, 40
13, 251519, Note_on_c, 11, 60, 0
13, 251520, Note_on_c, 11, 60, 40
13, 252959, Note_on_c, 11, 60, 0
13, 252960, Note_on_c, 11, 60, 40
13, 254399, Note_on_c, 11, 60, 0
13, 254400, Note_on_c, 11, 60, 40
13, 255839, Note_on_c, 11, 60, 0
13, 255840, Note_on_c, 11, 60, 44
13, 257979, Note_on_c, 11, 60, 0
13, 258000, Note_on_c, 11, 60, 44
13, 258239, Note_on_c, 11, 60, 0
13, 258240, Note_on_c, 11, 63, 44
13, 258479, Note_on_c, 11, 63, 0
13, 258480, Note_on_c, 11, 68, 44
13, 258719, Note_on_c, 11, 68, 0
13, 258720, Note_on_c, 11, 72, 44
13, 259199, Note_on_c, 11, 72, 0
13, 259200, Note_on_c, 11, 75, 44
13, 259439, Note_on_c, 11, 75, 0
13, 259440, Note_on_c, 11, 74, 44
13, 259919, Note_on_c, 11, 74, 0
13, 259920, Note_on_c, 11, 66, 44
13, 260159, Note_on_c, 11, 66, 0
13, 260640, Note_on_c, 11, 75, 44
13, 260879, Note_on_c, 11, 75, 0
13, 260880, Note_on_c, 11, 74, 44
13, 261359, Note_on_c, 11, 74, 0
13, 261360, Note_on_c, 11, 67, 44
13, 261599, Note_on_c, 11, 67, 0
13, 262080, Note_on_c, 11, 75, 44
13, 262319, Note_on_c, 11, 75, 0
13, 262320, Note_on_c, 11, 74, 44
13, 262799, Note_on_c, 11, 74, 0
13, 262800, Note_on_c, 11, 69, 44
13, 263039, Note_on_c, 11, 69, 0
13, 263520, Note_on_c, 11, 75, 44
13, 263759, Note_on_c, 11, 75, 0
13, 263760, Note_on_c, 11, 74, 44
13, 264239, Note_on_c, 11, 74, 0
13, 264240, Note_on_c, 11, 67, 44
13, 264479, Note_on_c, 11, 67, 0
13, 264960, Note_on_c, 11, 75, 44
13, 265199, Note_on_c, 11, 75, 0
13, 265200, Note_on_c, 11, 74, 44
13, 265679, Note_on_c, 11, 74, 0
13, 265680, Note_on_c, 11, 66, 44
13, 265919, Note_on_c, 11, 66, 0
13, 266400, Note_on_c, 11, 75, 44
13, 266639, Note_on_c, 11, 75, 0
13, 266640, Note_on_c, 11, 74, 44
13, 267119, Note_on_c, 11, 74, 0
13, 267120, Note_on_c, 11, 67, 44
13, 267339, Note_on_c, 11, 67, 0
13, 267360, Note_on_c, 11, 75, 44
13, 267839, Note_on_c, 11, 75, 0
13, 267840, Note_on_c, 11, 74, 44
13, 268079, Note_on_c, 11, 74, 0
13, 268080, Note_on_c, 11, 67, 44
13, 268559, Note_on_c, 11, 67, 0
13, 268560, Note_on_c, 11, 75, 44
13, 268799, Note_on_c, 11, 75, 0
13, 268800, Note_on_c, 11, 74, 44
13, 269279, Note_on_c, 11, 74, 0
13, 269280, Note_on_c, 11, 67, 44
13, 269519, Note_on_c, 11, 67, 0
13, 269520, Note_on_c, 11, 76, 44
13, 269999, Note_on_c, 11, 76, 0
13, 270000, Note_on_c, 11, 74, 44
13, 270219, Note_on_c, 11, 74, 0
13, 270240, Note_on_c, 11, 67, 44
13, 270719, Note_on_c, 11, 67, 0
13, 270720, Note_on_c, 11, 77, 44
13, 270959, Note_on_c, 11, 77, 0
13, 270960, Note_on_c, 11, 76, 44
13, 271439, Note_on_c, 11, 76, 0
13, 271440, Note_on_c, 11, 69, 44
13, 271679, Note_on_c, 11, 69, 0
13, 271680, Note_on_c, 11, 79, 44
13, 272159, Note_on_c, 11, 79, 0
13, 272160, Note_on_c, 11, 77, 44
13, 272399, Note_on_c, 11, 77, 0
13, 272400, Note_on_c, 11, 69, 44
13, 272879, Note_on_c, 11, 69, 0
13, 272880, Note_on_c, 11, 81, 44
13, 273119, Note_on_c, 11, 81, 0
13, 273120, Note_on_c, 11, 79, 44
13, 273599, Note_on_c, 11, 79, 0
13, 273600, Note_on_c, 11, 71, 44
13, 273839, Note_on_c, 11, 71, 0
13, 273840, Note_on_c, 11, 83, 44
13, 274319, Note_on_c, 11, 83, 0
13, 274320, Note_on_c, 11, 81, 44
13, 274539, Note_on_c, 11, 81, 0
13, 274558, Control_c, 11, 11, 48
13, 274560, Note_on_c, 11, 72, 84
13, 275039, Note_on_c, 11, 72, 0
13, 275040, Note_on_c, 11, 84, 84
13, 275279, Note_on_c, 11, 84, 0
13, 275280, Note_on_c, 11, 83, 84
13, 275759, Note_on_c, 11, 83, 0
13, 275760, Note_on_c, 11, 74, 84
13, 275999, Note_on_c, 11, 74, 0
13, 276000, Note_on_c, 11, 86, 84
13, 276479, Note_on_c, 11, 86, 0
13, 276480, Note_on_c, 11, 84, 84
13, 276719, Note_on_c, 11, 84, 0
13, 276720, Note_on_c, 11, 76, 84
13, 277199, Note_on_c, 11, 76, 0
13, 277200, Note_on_c, 11, 88, 84
13, 277439, Note_on_c, 11, 88, 0
13, 277440, Note_on_c, 11, 86, 84
13, 277440, Control_c, 11, 11, 48
13, 277536, Control_c, 11, 11, 49
13, 277632, Control_c, 11, 11, 51
13, 277728, Control_c, 11, 11, 52
13, 277824, Control_c, 11, 11, 53
13, 277919, Note_on_c, 11, 86, 0
13, 277920, Note_on_c, 11, 77, 84
13, 277920, Control_c, 11, 11, 55
13, 278016, Control_c, 11, 11, 56
13, 278112, Control_c, 11, 11, 57
13, 278139, Note_on_c, 11, 77, 0
13, 278160, Note_on_c, 11, 89, 84
13, 278208, Control_c, 11, 11, 59
13, 278259, Note_on_c, 11, 89, 0
13, 278280, Note_on_c, 11, 89, 84
13, 278304, Control_c, 11, 11, 60
13, 278379, Note_on_c, 11, 89, 0
13, 278400, Note_on_c, 11, 89, 84
13, 278400, Control_c, 11, 11, 61
13, 278496, Control_c, 11, 11, 62
13, 278499, Note_on_c, 11, 89, 0
13, 278520, Note_on_c, 11, 89, 84
13, 278592, Control_c, 11, 11, 64
13, 278619, Note_on_c, 11, 89, 0
13, 278640, Note_on_c, 11, 89, 84
13, 278688, Control_c, 11, 11, 65
13, 278739, Note_on_c, 11, 89, 0
13, 278760, Note_on_c, 11, 89, 84
13, 278784, Control_c, 11, 11, 66
13, 278859, Note_on_c, 11, 89, 0
13, 278880, Control_c, 11, 11, 68
13, 278880, Note_on_c, 11, 89, 84
13, 278976, Control_c, 11, 11, 69
13, 278979, Note_on_c, 11, 89, 0
13, 279000, Note_on_c, 11, 89, 84
13, 279072, Control_c, 11, 11, 70
13, 279099, Note_on_c, 11, 89, 0
13, 279120, Note_on_c, 11, 89, 84
13, 279168, Control_c, 11, 11, 72
13, 279219, Note_on_c, 11, 89, 0
13, 279240, Note_on_c, 11, 89, 84
13, 279264, Control_c, 11, 11, 73
13, 279339, Note_on_c, 11, 89, 0
13, 279360, Control_c, 11, 11, 74
13, 279360, Note_on_c, 11, 89, 84
13, 279456, Control_c, 11, 11, 76
13, 279459, Note_on_c, 11, 89, 0
13, 279480, Note_on_c, 11, 89, 84
13, 279552, Control_c, 11, 11, 77
13, 279579, Note_on_c, 11, 89, 0
13, 279600, Note_on_c, 11, 89, 84
13, 279648, Control_c, 11, 11, 78
13, 279699, Note_on_c, 11, 89, 0
13, 279720, Note_on_c, 11, 89, 84
13, 279744, Control_c, 11, 11, 80
13, 279819, Note_on_c, 11, 89, 0
13, 279840, Note_on_c, 11, 89, 84
13, 279840, Control_c, 11, 11, 81
13, 279936, Control_c, 11, 11, 82
13, 279939, Note_on_c, 11, 89, 0
13, 279960, Note_on_c, 11, 89, 84
13, 280032, Control_c, 11, 11, 84
13, 280059, Note_on_c, 11, 89, 0
13, 280080, Note_on_c, 11, 89, 84
13, 280128, Control_c, 11, 11, 85
13, 280179, Note_on_c, 11, 89, 0
13, 280200, Note_on_c, 11, 89, 84
13, 280224, Control_c, 11, 11, 86
13, 280299, Note_on_c, 11, 89, 0
13, 280320, Control_c, 11, 11, 88
13, 280320, Note_on_c, 11, 89, 84
13, 280416, Control_c, 11, 11, 89
13, 280419, Note_on_c, 11, 89, 0
13, 280440, Note_on_c, 11, 89, 84
13, 280512, Control_c, 11, 11, 90
13, 280539, Note_on_c, 11, 89, 0
13, 280560, Note_on_c, 11, 89, 84
13, 280608, Control_c, 11, 11, 91
13, 280659, Note_on_c, 11, 89, 0
13, 280680, Note_on_c, 11, 89, 84
13, 280704, Control_c, 11, 11, 93
13, 280779, Note_on_c, 11, 89, 0
13, 280800, Control_c, 11, 11, 94
13, 280800, Note_on_c, 11, 89, 84
13, 280896, Control_c, 11, 11, 95
13, 280899, Note_on_c, 11, 89, 0
13, 280920, Note_on_c, 11, 89, 84
13, 280992, Control_c, 11, 11, 97
13, 281019, Note_on_c, 11, 89, 0
13, 281040, Note_on_c, 11, 89, 84
13, 281088, Control_c, 11, 11, 98
13, 281139, Note_on_c, 11, 89, 0
13, 281160, Note_on_c, 11, 89, 84
13, 281184, Control_c, 11, 11, 99
13, 281259, Note_on_c, 11, 89, 0
13, 281280, Note_on_c, 11, 89, 84
13, 281280, Control_c, 11, 11, 101
13, 281376, Control_c, 11, 11, 102
13, 281379, Note_on_c, 11, 89, 0
13, 281400, Note_on_c, 11, 89, 84
13, 281472, Control_c, 11, 11, 103
13, 281499, Note_on_c, 11, 89, 0
13, 281520, Note_on_c, 11, 89, 84
13, 281568, Control_c, 11, 11, 105
13, 281619, Note_on_c, 11, 89, 0
13, 281640, Note_on_c, 11, 89, 84
13, 281664, Control_c, 11, 11, 106
13, 281739, Note_on_c, 11, 89, 0
13, 281760, Control_c, 11, 11, 107
13, 281760, Note_on_c, 11, 89, 84
13, 281856, Control_c, 11, 11, 109
13, 281859, Note_on_c, 11, 89, 0
13, 281880, Note_on_c, 11, 89, 84
13, 281952, Control_c, 11, 11, 110
13, 281979, Note_on_c, 11, 89, 0
13, 282000, Note_on_c, 11, 89, 84
13, 282048, Control_c, 11, 11, 111
13, 282099, Note_on_c, 11, 89, 0
13, 282120, Note_on_c, 11, 89, 84
13, 282144, Control_c, 11, 11, 113
13, 282219, Note_on_c, 11, 89, 0
13, 282240, Control_c, 11, 11, 114
13, 282240, Note_on_c, 11, 89, 84
13, 282336, Control_c, 11, 11, 115
13, 282339, Note_on_c, 11, 89, 0
13, 282360, Note_on_c, 11, 89, 84
13, 282432, Control_c, 11, 11, 116
13, 282459, Note_on_c, 11, 89, 0
13, 282480, Note_on_c, 11, 89, 84
13, 282528, Control_c, 11, 11, 118
13, 282579, Note_on_c, 11, 89, 0
13, 282600, Note_on_c, 11, 89, 84
13, 282624, Control_c, 11, 11, 119
13, 282699, Note_on_c, 11, 89, 0
13, 282720, Note_on_c, 11, 89, 84
13, 282720, Control_c, 11, 11, 120
13, 282816, Control_c, 11, 11, 122
13, 282819, Note_on_c, 11, 89, 0
13, 282840, Note_on_c, 11, 89, 84
13, 282912, Control_c, 11, 11, 123
13, 282939, Note_on_c, 11, 89, 0
13, 282960, Note_on_c, 11, 89, 84
13, 283008, Control_c, 11, 11, 124
13, 283059, Note_on_c, 11, 89, 0
13, 283080, Note_on_c, 11, 89, 84
13, 283104, Control_c, 11, 11, 127
13, 283179, Note_on_c, 11, 89, 0
13, 283179, End_track
14, 0, Start_track
14, 0, Title_t, "Violin II"
14, 0, MIDI_port, 0
14, 0, Program_c, 12, 48
14, 0, Control_c, 12, 7, 96
14, 0, Control_c, 12, 10, 24
14, 0, Control_c, 12, 11, 127
14, 3120, Note_on_c, 12, 65, 44
14, 3839, Note_on_c, 12, 65, 0
14, 3840, Note_on_c, 12, 63, 44
14, 4319, Note_on_c, 12, 63, 0
14, 4320, Note_on_c, 12, 71, 44
14, 4539, Note_on_c, 12, 71, 0
14, 4560, Note_on_c, 12, 74, 44
14, 4999, Note_on_c, 12, 74, 0
14, 5040, Note_on_c, 12, 72, 44
14, 5239, Note_on_c, 12, 72, 0
14, 5280, Note_on_c, 12, 71, 44
14, 5759, Note_on_c, 12, 71, 0
14, 10320, Note_on_c, 12, 65, 44
14, 11039, Note_on_c, 12, 65, 0
14, 11040, Note_on_c, 12, 63, 44
14, 11519, Note_on_c, 12, 63, 0
14, 11520, Note_on_c, 12, 62, 44
14, 11739, Note_on_c, 12, 62, 0
14, 11760, Note_on_c, 12, 62, 44
14, 12199, Note_on_c, 12, 62, 0
14, 12240, Note_on_c, 12, 60, 44
14, 12439, Note_on_c, 12, 60, 0
14, 12480, Note_on_c, 12, 59, 44
14, 13199, Note_on_c, 12, 59, 0
14, 13920, Note_on_c, 12, 63, 76
14, 14159, Note_on_c, 12, 63, 0
14, 14640, Note_on_c, 12, 65, 76
14, 14879, Note_on_c, 12, 65, 0
14, 15360, Note_on_c, 12, 63, 76
14, 15599, Note_on_c, 12, 63, 0
14, 16080, Note_on_c, 12, 65, 76
14, 16319, Note_on_c, 12, 65, 0
14, 16800, Note_on_c, 12, 63, 76
14, 17039, Note_on_c, 12, 63, 0
14, 17520, Note_on_c, 12, 65, 76
14, 17759, Note_on_c, 12, 65, 0
14, 18240, Note_on_c, 12, 62, 76
14, 18479, Note_on_c, 12, 62, 0
14, 18960, Note_on_c, 12, 77, 76
14, 19179, Note_on_c, 12, 77, 0
14, 19200, Note_on_c, 12, 77, 76
14, 19419, Note_on_c, 12, 77, 0
14, 19440, Note_on_c, 12, 77, 76
14, 19659, Note_on_c, 12, 77, 0
14, 19680, Note_on_c, 12, 78, 76
14, 20379, Note_on_c, 12, 78, 0
14, 20400, Note_on_c, 12, 77, 76
14, 20619, Note_on_c, 12, 77, 0
14, 20640, Note_on_c, 12, 77, 76
14, 20859, Note_on_c, 12, 77, 0
14, 20880, Note_on_c, 12, 77, 76
14, 21099, Note_on_c, 12, 77, 0
14, 21120, Note_on_c, 12, 75, 76
14, 21819, Note_on_c, 12, 75, 0
14, 21840, Note_on_c, 12, 77, 76
14, 22059, Note_on_c, 12, 77, 0
14, 22080, Note_on_c, 12, 77, 76
14, 22299, Note_on_c, 12, 77, 0
14, 22320, Note_on_c, 12, 77, 76
14, 22539, Note_on_c, 12, 77, 0
14, 22560, Note_on_c, 12, 78, 76
14, 23259, Note_on_c, 12, 78, 0
14, 23280, Note_on_c, 12, 82, 76
14, 23519, Note_on_c, 12, 82, 0
14, 23520, Note_on_c, 12, 80, 76
14, 23739, Note_on_c, 12, 80, 0
14, 23760, Note_on_c, 12, 78, 76
14, 23939, Note_on_c, 12, 78, 0
14, 24000, Note_on_c, 12, 77, 76
14, 24699, Note_on_c, 12, 77, 0
14, 24720, Note_on_c, 12, 78, 76
14, 25419, Note_on_c, 12, 78, 0
14, 25440, Note_on_c, 12, 75, 76
14, 26139, Note_on_c, 12, 75, 0
14, 26160, Note_on_c, 12, 78, 76
14, 26399, Note_on_c, 12, 78, 0
14, 26400, Note_on_c, 12, 77, 76
14, 26619, Note_on_c, 12, 77, 0
14, 26640, Note_on_c, 12, 75, 76
14, 26819, Note_on_c, 12, 75, 0
14, 26880, Note_on_c, 12, 74, 84
14, 26999, Note_on_c, 12, 74, 0
14, 27000, Note_on_c, 12, 74, 76
14, 28079, Note_on_c, 12, 74, 0
14, 28080, Note_on_c, 12, 75, 76
14, 28299, Note_on_c, 12, 75, 0
14, 28320, Note_on_c, 12, 74, 84
14, 28439, Note_on_c, 12, 74, 0
14, 28440, Note_on_c, 12, 74, 76
14, 29519, Note_on_c, 12, 74, 0
14, 29520, Note_on_c, 12, 75, 76
14, 29739, Note_on_c, 12, 75, 0
14, 29760, Note_on_c, 12, 74, 84
14, 29879, Note_on_c, 12, 74, 0
14, 29880, Note_on_c, 12, 74, 76
14, 30239, Note_on_c, 12, 74, 0
14, 30240, Note_on_c, 12, 75, 76
14, 30459, Note_on_c, 12, 75, 0
14, 30480, Note_on_c, 12, 74, 84
14, 30599, Note_on_c, 12, 74, 0
14, 30600, Note_on_c, 12, 74, 76
14, 30959, Note_on_c, 12, 74, 0
14, 30960, Note_on_c, 12, 75, 76
14, 31179, Note_on_c, 12, 75, 0
14, 31200, Note_on_c, 12, 74, 76
14, 31200, Control_c, 12, 11, 127
14, 31260, Control_c, 12, 11, 122
14, 31320, Control_c, 12, 11, 117
14, 31380, Control_c, 12, 11, 111
14, 31440, Control_c, 12, 11, 106
14, 31500, Control_c, 12, 11, 101
14, 31560, Control_c, 12, 11, 96
14, 31620, Control_c, 12, 11, 90
14, 31680, Control_c, 12, 11, 85
14, 31740, Control_c, 12, 11, 80
14, 31800, Control_c, 12, 11, 75
14, 31860, Control_c, 12, 11, 69
14, 31920, Control_c, 12, 11, 64
14, 32159, Note_on_c, 12, 74, 0
14, 34560, Control_c, 12, 11, 127
14, 34800, Note_on_c, 12, 63, 44
14, 35519, Note_on_c, 12, 63, 0
14, 35520, Note_on_c, 12, 61, 44
14, 35999, Note_on_c, 12, 61, 0
14, 36000, Note_on_c, 12, 60, 44
14, 36219, Note_on_c, 12, 60, 0
14, 36240, Note_on_c, 12, 63, 44
14, 36679, Note_on_c, 12, 63, 0
14, 36720, Note_on_c, 12, 61, 44
14, 36919, Note_on_c, 12, 61, 0
14, 36960, Note_on_c, 12, 60, 44
14, 37439, Note_on_c, 12, 60, 0
14, 43680, Note_on_c, 12, 59, 44
14, 43919, Note_on_c, 12, 59, 0
14, 43920, Note_on_c, 12, 64, 44
14, 44159, Note_on_c, 12, 64, 0
14, 44160, Note_on_c, 12, 65, 44
14, 44339, Note_on_c, 12, 65, 0
14, 45120, Note_on_c, 12, 59, 44
14, 45359, Note_on_c, 12, 59, 0
14, 45360, Note_on_c, 12, 64, 44
14, 45599, Note_on_c, 12, 64, 0
14, 45600, Note_on_c, 12, 65, 44
14, 45779, Note_on_c, 12, 65, 0
14, 46320, Note_on_c, 12, 65, 44
14, 46559, Note_on_c, 12, 65, 0
14, 47040, Note_on_c, 12, 65, 44
14, 47279, Note_on_c, 12, 65, 0
14, 47760, Note_on_c, 12, 67, 44
14, 47999, Note_on_c, 12, 67, 0
14, 48480, Note_on_c, 12, 67, 52
14, 48719, Note_on_c, 12, 67, 0
14, 49200, Note_on_c, 12, 67, 60
14, 49439, Note_on_c, 12, 67, 0
14, 49920, Note_on_c, 12, 67, 68
14, 50159, Note_on_c, 12, 67, 0
14, 50640, Note_on_c, 12, 74, 76
14, 50859, Note_on_c, 12, 74, 0
14, 50880, Note_on_c, 12, 74, 76
14, 51099, Note_on_c, 12, 74, 0
14, 51120, Note_on_c, 12, 74, 76
14, 51339, Note_on_c, 12, 74, 0
14, 51360, Note_on_c, 12, 75, 76
14, 52059, Note_on_c, 12, 75, 0
14, 52080, Note_on_c, 12, 74, 76
14, 52299, Note_on_c, 12, 74, 0
14, 52320, Note_on_c, 12, 74, 76
14, 52539, Note_on_c, 12, 74, 0
14, 52560, Note_on_c, 12, 74, 76
14, 52779, Note_on_c, 12, 74, 0
14, 52800, Note_on_c, 12, 72, 76
14, 53499, Note_on_c, 12, 72, 0
14, 53520, Note_on_c, 12, 74, 76
14, 53739, Note_on_c, 12, 74, 0
14, 53760, Note_on_c, 12, 74, 76
14, 53979, Note_on_c, 12, 74, 0
14, 54000, Note_on_c, 12, 74, 76
14, 54219, Note_on_c, 12, 74, 0
14, 54240, Note_on_c, 12, 75, 76
14, 54939, Note_on_c, 12, 75, 0
14, 54960, Note_on_c, 12, 79, 76
14, 55199, Note_on_c, 12, 79, 0
14, 55200, Note_on_c, 12, 77, 76
14, 55419, Note_on_c, 12, 77, 0
14, 55440, Note_on_c, 12, 75, 76
14, 55619, Note_on_c, 12, 75, 0
14, 55680, Note_on_c, 12, 74, 76
14, 56379, Note_on_c, 12, 74, 0
14, 56400, Note_on_c, 12, 72, 76
14, 56400, Note_on_c, 12, 64, 76
14, 56400, Note_on_c, 12, 55, 76
14, 56639, Note_on_c, 12, 72, 0
14, 56639, Note_on_c, 12, 64, 0
14, 56639, Note_on_c, 12, 55, 0
14, 57120, Note_on_c, 12, 65, 76
14, 57120, Note_on_c, 12, 72, 76
14, 57120, Note_on_c, 12, 56, 76
14, 57359, Note_on_c, 12, 65, 0
14, 57359, Note_on_c, 12, 72, 0
14, 57359, Note_on_c, 12, 56, 0
14, 57840, Note_on_c, 12, 72, 76
14, 57840, Note_on_c, 12, 64, 76
14, 58079, Note_on_c, 12, 72, 0
14, 58079, Note_on_c, 12, 64, 0
14, 58560, Note_on_c, 12, 72, 76
14, 58560, Note_on_c, 12, 65, 76
14, 58799, Note_on_c, 12, 72, 0
14, 58799, Note_on_c, 12, 65, 0
14, 59280, Note_on_c, 12, 79, 84
14, 59280, Note_on_c, 12, 72, 84
14, 59499, Note_on_c, 12, 79, 0
14, 59499, Note_on_c, 12, 72, 0
14, 59520, Note_on_c, 12, 79, 84
14, 59520, Note_on_c, 12, 72, 84
14, 59739, Note_on_c, 12, 79, 0
14, 59739, Note_on_c, 12, 72, 0
14, 59760, Note_on_c, 12, 72, 84
14, 59760, Note_on_c, 12, 79, 84
14, 59979, Note_on_c, 12, 72, 0
14, 59979, Note_on_c, 12, 79, 0
14, 60000, Note_on_c, 12, 80, 84
14, 60000, Note_on_c, 12, 72, 84
14, 60699, Note_on_c, 12, 80, 0
14, 60699, Note_on_c, 12, 72, 0
14, 60720, Note_on_c, 12, 84, 84
14, 60959, Note_on_c, 12, 84, 0
14, 60960, Note_on_c, 12, 82, 84
14, 61179, Note_on_c, 12, 82, 0
14, 61200, Note_on_c, 12, 80, 84
14, 61379, Note_on_c, 12, 80, 0
14, 61440, Note_on_c, 12, 79, 84
14, 62139, Note_on_c, 12, 79, 0
14, 62160, Note_on_c, 12, 80, 84
14, 62859, Note_on_c, 12, 80, 0
14, 62880, Note_on_c, 12, 77, 84
14, 63579, Note_on_c, 12, 77, 0
14, 63600, Note_on_c, 12, 80, 84
14, 63839, Note_on_c, 12, 80, 0
14, 63840, Note_on_c, 12, 79, 84
14, 64059, Note_on_c, 12, 79, 0
14, 64080, Note_on_c, 12, 77, 84
14, 64259, Note_on_c, 12, 77, 0
14, 64320, Note_on_c, 12, 76, 92
14, 64439, Note_on_c, 12, 76, 0
14, 64440, Note_on_c, 12, 76, 84
14, 65519, Note_on_c, 12, 76, 0
14, 65520, Note_on_c, 12, 77, 84
14, 65739, Note_on_c, 12, 77, 0
14, 65760, Note_on_c, 12, 76, 92
14, 65879, Note_on_c, 12, 76, 0
14, 65880, Note_on_c, 12, 76, 84
14, 66959, Note_on_c, 12, 76, 0
14, 66960, Note_on_c, 12, 77, 84
14, 67179, Note_on_c, 12, 77, 0
14, 67200, Note_on_c, 12, 76, 92
14, 67319, Note_on_c, 12, 76, 0
14, 67320, Note_on_c, 12, 76, 84
14, 67679, Note_on_c, 12, 76, 0
14, 67680, Note_on_c, 12, 77, 84
14, 67899, Note_on_c, 12, 77, 0
14, 67920, Note_on_c, 12, 76, 92
14, 68039, Note_on_c, 12, 76, 0
14, 68040, Note_on_c, 12, 76, 84
14, 68399, Note_on_c, 12, 76, 0
14, 68400, Note_on_c, 12, 77, 84
14, 68619, Note_on_c, 12, 77, 0
14, 68640, Control_c, 12, 11, 127
14, 68640, Note_on_c, 12, 76, 84
14, 68700, Control_c, 12, 11, 120
14, 68760, Control_c, 12, 11, 114
14, 68820, Control_c, 12, 11, 107
14, 68880, Control_c, 12, 11, 101
14, 68940, Control_c, 12, 11, 94
14, 69000, Control_c, 12, 11, 88
14, 69060, Control_c, 12, 11, 81
14, 69120, Control_c, 12, 11, 74
14, 69180, Control_c, 12, 11, 68
14, 69240, Control_c, 12, 11, 61
14, 69300, Control_c, 12, 11, 55
14, 69360, Control_c, 12, 11, 48
14, 69599, Note_on_c, 12, 76, 0
14, 73440, Control_c, 12, 11, 127
14, 73680, Note_on_c, 12, 67, 52
14, 73899, Note_on_c, 12, 67, 0
14, 73920, Note_on_c, 12, 67, 52
14, 74139, Note_on_c, 12, 67, 0
14, 74160, Note_on_c, 12, 67, 52
14, 74379, Note_on_c, 12, 67, 0
14, 74400, Note_on_c, 12, 67, 52
14, 74639, Note_on_c, 12, 67, 0
14, 76560, Note_on_c, 12, 67, 52
14, 76779, Note_on_c, 12, 67, 0
14, 76800, Note_on_c, 12, 67, 52
14, 77019, Note_on_c, 12, 67, 0
14, 77040, Note_on_c, 12, 67, 52
14, 77259, Note_on_c, 12, 67, 0
14, 77280, Note_on_c, 12, 67, 52
14, 77519, Note_on_c, 12, 67, 0
14, 78000, Note_on_c, 12, 72, 52
14, 78479, Note_on_c, 12, 72, 0
14, 78480, Note_on_c, 12, 72, 52
14, 78719, Note_on_c, 12, 72, 0
14, 78720, Note_on_c, 12, 74, 52
14, 79199, Note_on_c, 12, 74, 0
14, 79200, Note_on_c, 12, 75, 52
14, 79439, Note_on_c, 12, 75, 0
14, 79440, Note_on_c, 12, 77, 52
14, 79919, Note_on_c, 12, 77, 0
14, 79920, Note_on_c, 12, 75, 52
14, 80139, Note_on_c, 12, 75, 0
14, 80160, Note_on_c, 12, 75, 52
14, 80639, Note_on_c, 12, 75, 0
14, 80640, Note_on_c, 12, 74, 52
14, 80879, Note_on_c, 12, 74, 0
14, 80880, Note_on_c, 12, 77, 52
14, 81359, Note_on_c, 12, 77, 0
14, 81360, Note_on_c, 12, 75, 52
14, 81579, Note_on_c, 12, 75, 0
14, 81600, Note_on_c, 12, 75, 52
14, 81839, Note_on_c, 12, 75, 0
14, 81840, Note_on_c, 12, 74, 52
14, 82059, Note_on_c, 12, 74, 0
14, 82080, Note_on_c, 12, 65, 52
14, 82299, Note_on_c, 12, 65, 0
14, 82320, Note_on_c, 12, 65, 52
14, 82539, Note_on_c, 12, 65, 0
14, 82560, Note_on_c, 12, 65, 52
14, 82779, Note_on_c, 12, 65, 0
14, 82800, Note_on_c, 12, 67, 52
14, 83039, Note_on_c, 12, 67, 0
14, 83280, Note_on_c, 12, 63, 52
14, 83499, Note_on_c, 12, 63, 0
14, 83520, Note_on_c, 12, 65, 52
14, 83759, Note_on_c, 12, 65, 0
14, 84000, Note_on_c, 12, 65, 52
14, 84219, Note_on_c, 12, 65, 0
14, 84240, Note_on_c, 12, 62, 52
14, 84479, Note_on_c, 12, 62, 0
14, 84720, Note_on_c, 12, 63, 52
14, 84939, Note_on_c, 12, 63, 0
14, 84960, Note_on_c, 12, 65, 52
14, 85199, Note_on_c, 12, 65, 0
14, 85440, Note_on_c, 12, 65, 52
14, 85659, Note_on_c, 12, 65, 0
14, 85680, Note_on_c, 12, 67, 52
14, 85919, Note_on_c, 12, 67, 0
14, 86160, Note_on_c, 12, 63, 52
14, 86379, Note_on_c, 12, 63, 0
14, 86400, Note_on_c, 12, 65, 52
14, 86639, Note_on_c, 12, 65, 0
14, 86880, Note_on_c, 12, 65, 52
14, 87099, Note_on_c, 12, 65, 0
14, 87120, Note_on_c, 12, 62, 52
14, 87359, Note_on_c, 12, 62, 0
14, 87600, Note_on_c, 12, 63, 52
14, 87819, Note_on_c, 12, 63, 0
14, 87840, Note_on_c, 12, 65, 52
14, 88079, Note_on_c, 12, 65, 0
14, 88320, Note_on_c, 12, 62, 54
14, 88539, Note_on_c, 12, 62, 0
14, 88560, Note_on_c, 12, 67, 55
14, 88799, Note_on_c, 12, 67, 0
14, 89040, Note_on_c, 12, 63, 57
14, 89259, Note_on_c, 12, 63, 0
14, 89280, Note_on_c, 12, 67, 58
14, 89519, Note_on_c, 12, 67, 0
14, 89760, Note_on_c, 12, 65, 60
14, 89979, Note_on_c, 12, 65, 0
14, 90000, Note_on_c, 12, 68, 61
14, 90239, Note_on_c, 12, 68, 0
14, 90480, Note_on_c, 12, 59, 64
14, 90699, Note_on_c, 12, 59, 0
14, 90720, Note_on_c, 12, 62, 65
14, 90959, Note_on_c, 12, 62, 0
14, 91200, Note_on_c, 12, 60, 67
14, 91419, Note_on_c, 12, 60, 0
14, 91440, Note_on_c, 12, 63, 68
14, 91679, Note_on_c, 12, 63, 0
14, 91920, Note_on_c, 12, 63, 70
14, 92139, Note_on_c, 12, 63, 0
14, 92160, Note_on_c, 12, 67, 71
14, 92399, Note_on_c, 12, 67, 0
14, 92520, Note_on_c, 12, 65, 73
14, 92619, Note_on_c, 12, 65, 0
14, 92640, Note_on_c, 12, 67, 73
14, 92739, Note_on_c, 12, 67, 0
14, 92760, Note_on_c, 12, 68, 74
14, 92859, Note_on_c, 12, 68, 0
14, 92880, Note_on_c, 12, 68, 74
14, 93119, Note_on_c, 12, 68, 0
14, 93240, Note_on_c, 12, 68, 76
14, 93339, Note_on_c, 12, 68, 0
14, 93360, Note_on_c, 12, 70, 76
14, 93459, Note_on_c, 12, 70, 0
14, 93480, Note_on_c, 12, 72, 76
14, 93579, Note_on_c, 12, 72, 0
14, 93600, Note_on_c, 12, 72, 76
14, 93819, Note_on_c, 12, 72, 0
14, 93840, Note_on_c, 12, 72, 76
14, 94059, Note_on_c, 12, 72, 0
14, 94080, Note_on_c, 12, 67, 76
14, 94080, Note_on_c, 12, 75, 76
14, 94080, Note_on_c, 12, 84, 76
14, 94299, Note_on_c, 12, 67, 0
14, 94299, Note_on_c, 12, 75, 0
14, 94299, Note_on_c, 12, 84, 0
14, 94320, Note_on_c, 12, 74, 76
14, 94320, Note_on_c, 12, 83, 76
14, 94320, Note_on_c, 12, 67, 76
14, 94539, Note_on_c, 12, 74, 0
14, 94539, Note_on_c, 12, 83, 0
14, 94539, Note_on_c, 12, 67, 0
14, 94560, Note_on_c, 12, 75, 76
14, 94560, Note_on_c, 12, 84, 76
14, 94560, Note_on_c, 12, 67, 76
14, 94799, Note_on_c, 12, 75, 0
14, 94799, Note_on_c, 12, 84, 0
14, 94799, Note_on_c, 12, 67, 0
14, 95280, Note_on_c, 12, 74, 84
14, 95499, Note_on_c, 12, 74, 0
14, 95520, Note_on_c, 12, 74, 84
14, 95739, Note_on_c, 12, 74, 0
14, 95760, Note_on_c, 12, 74, 84
14, 95979, Note_on_c, 12, 74, 0
14, 96000, Note_on_c, 12, 75, 84
14, 96699, Note_on_c, 12, 75, 0
14, 96720, Note_on_c, 12, 74, 84
14, 96939, Note_on_c, 12, 74, 0
14, 96960, Note_on_c, 12, 74, 84
14, 97179, Note_on_c, 12, 74, 0
14, 97200, Note_on_c, 12, 74, 84
14, 97419, Note_on_c, 12, 74, 0
14, 97440, Note_on_c, 12, 72, 84
14, 98139, Note_on_c, 12, 72, 0
14, 98160, Note_on_c, 12, 70, 52
14, 98379, Note_on_c, 12, 70, 0
14, 98400, Note_on_c, 12, 70, 52
14, 98619, Note_on_c, 12, 70, 0
14, 98640, Note_on_c, 12, 70, 52
14, 98859, Note_on_c, 12, 70, 0
14, 98880, Note_on_c, 12, 68, 52
14, 99059, Note_on_c, 12, 68, 0
14, 99600, Note_on_c, 12, 62, 52
14, 99779, Note_on_c, 12, 62, 0
14, 100320, Note_on_c, 12, 60, 52
14, 100499, Note_on_c, 12, 60, 0
14, 109440, Note_on_c, 12, 72, 76
14, 109659, Note_on_c, 12, 72, 0
14, 109680, Note_on_c, 12, 71, 76
14, 109779, Note_on_c, 12, 71, 0
14, 109800, Note_on_c, 12, 72, 76
14, 109899, Note_on_c, 12, 72, 0
14, 109920, Note_on_c, 12, 74, 76
14, 110019, Note_on_c, 12, 74, 0
14, 110040, Note_on_c, 12, 67, 76
14, 110139, Note_on_c, 12, 67, 0
14, 110160, Note_on_c, 12, 69, 76
14, 110259, Note_on_c, 12, 69, 0
14, 110280, Note_on_c, 12, 71, 76
14, 110379, Note_on_c, 12, 71, 0
14, 110400, Note_on_c, 12, 72, 76
14, 110499, Note_on_c, 12, 72, 0
14, 110520, Note_on_c, 12, 71, 76
14, 110619, Note_on_c, 12, 71, 0
14, 110640, Note_on_c, 12, 72, 76
14, 110739, Note_on_c, 12, 72, 0
14, 110760, Note_on_c, 12, 74, 76
14, 110859, Note_on_c, 12, 74, 0
14, 110880, Note_on_c, 12, 76, 76
14, 110979, Note_on_c, 12, 76, 0
14, 111000, Note_on_c, 12, 74, 76
14, 111099, Note_on_c, 12, 74, 0
14, 111120, Note_on_c, 12, 72, 76
14, 111339, Note_on_c, 12, 72, 0
14, 111360, Note_on_c, 12, 66, 76
14, 111579, Note_on_c, 12, 66, 0
14, 111600, Note_on_c, 12, 69, 76
14, 111819, Note_on_c, 12, 69, 0
14, 111840, Note_on_c, 12, 62, 76
14, 112059, Note_on_c, 12, 62, 0
14, 112080, Note_on_c, 12, 71, 76
14, 112299, Note_on_c, 12, 71, 0
14, 112320, Note_on_c, 12, 67, 76
14, 112539, Note_on_c, 12, 67, 0
14, 112560, Note_on_c, 12, 74, 76
14, 112659, Note_on_c, 12, 74, 0
14, 112680, Note_on_c, 12, 74, 76
14, 112779, Note_on_c, 12, 74, 0
14, 112800, Note_on_c, 12, 74, 76
14, 112899, Note_on_c, 12, 74, 0
14, 112920, Note_on_c, 12, 74, 76
14, 113019, Note_on_c, 12, 74, 0
14, 113040, Note_on_c, 12, 76, 76
14, 113139, Note_on_c, 12, 76, 0
14, 113160, Note_on_c, 12, 78, 76
14, 113259, Note_on_c, 12, 78, 0
14, 113280, Note_on_c, 12, 71, 76
14, 113280, Note_on_c, 12, 79, 76
14, 113519, Note_on_c, 12, 71, 0
14, 113519, Note_on_c, 12, 79, 0
14, 113640, Note_on_c, 12, 74, 76
14, 113739, Note_on_c, 12, 74, 0
14, 113760, Note_on_c, 12, 76, 76
14, 113859, Note_on_c, 12, 76, 0
14, 113880, Note_on_c, 12, 78, 76
14, 113979, Note_on_c, 12, 78, 0
14, 114000, Note_on_c, 12, 79, 76
14, 114000, Note_on_c, 12, 71, 76
14, 114239, Note_on_c, 12, 79, 0
14, 114239, Note_on_c, 12, 71, 0
14, 114360, Note_on_c, 12, 74, 76
14, 114459, Note_on_c, 12, 74, 0
14, 114480, Note_on_c, 12, 76, 76
14, 114579, Note_on_c, 12, 76, 0
14, 114600, Note_on_c, 12, 78, 76
14, 114699, Note_on_c, 12, 78, 0
14, 114720, Note_on_c, 12, 79, 76
14, 114720, Note_on_c, 12, 71, 76
14, 114720, Note_on_c, 12, 62, 76
14, 114959, Note_on_c, 12, 79, 0
14, 114959, Note_on_c, 12, 71, 0
14, 114959, Note_on_c, 12, 62, 0
14, 123840, Note_on_c, 12, 72, 76
14, 124059, Note_on_c, 12, 72, 0
14, 124080, Note_on_c, 12, 71, 76
14, 124179, Note_on_c, 12, 71, 0
14, 124200, Note_on_c, 12, 72, 76
14, 124299, Note_on_c, 12, 72, 0
14, 124320, Note_on_c, 12, 74, 76
14, 124419, Note_on_c, 12, 74, 0
14, 124440, Note_on_c, 12, 67, 76
14, 124539, Note_on_c, 12, 67, 0
14, 124560, Note_on_c, 12, 69, 76
14, 124659, Note_on_c, 12, 69, 0
14, 124680, Note_on_c, 12, 71, 76
14, 124779, Note_on_c, 12, 71, 0
14, 124800, Note_on_c, 12, 72, 76
14, 124899, Note_on_c, 12, 72, 0
14, 124920, Note_on_c, 12, 71, 76
14, 125019, Note_on_c, 12, 71, 0
14, 125040, Note_on_c, 12, 72, 76
14, 125139, Note_on_c, 12, 72, 0
14, 125160, Note_on_c, 12, 74, 76
14, 125259, Note_on_c, 12, 74, 0
14, 125280, Note_on_c, 12, 76, 76
14, 125379, Note_on_c, 12, 76, 0
14, 125400, Note_on_c, 12, 74, 76
14, 125499, Note_on_c, 12, 74, 0
14, 125520, Note_on_c, 12, 72, 76
14, 125739, Note_on_c, 12, 72, 0
14, 125760, Note_on_c, 12, 66, 76
14, 125979, Note_on_c, 12, 66, 0
14, 126000, Note_on_c, 12, 69, 76
14, 126219, Note_on_c, 12, 69, 0
14, 126240, Note_on_c, 12, 62, 76
14, 126459, Note_on_c, 12, 62, 0
14, 126480, Note_on_c, 12, 71, 76
14, 126699, Note_on_c, 12, 71, 0
14, 126720, Note_on_c, 12, 67, 76
14, 126939, Note_on_c, 12, 67, 0
14, 126960, Note_on_c, 12, 74, 76
14, 127059, Note_on_c, 12, 74, 0
14, 127080, Note_on_c, 12, 74, 76
14, 127179, Note_on_c, 12, 74, 0
14, 127200, Note_on_c, 12, 74, 76
14, 127299, Note_on_c, 12, 74, 0
14, 127320, Note_on_c, 12, 74, 76
14, 127419, Note_on_c, 12, 74, 0
14, 127440, Note_on_c, 12, 76, 76
14, 127539, Note_on_c, 12, 76, 0
14, 127560, Note_on_c, 12, 78, 76
14, 127659, Note_on_c, 12, 78, 0
14, 127680, Note_on_c, 12, 71, 76
14, 127680, Note_on_c, 12, 79, 76
14, 127919, Note_on_c, 12, 71, 0
14, 127919, Note_on_c, 12, 79, 0
14, 128040, Note_on_c, 12, 74, 76
14, 128139, Note_on_c, 12, 74, 0
14, 128160, Note_on_c, 12, 76, 76
14, 128259, Note_on_c, 12, 76, 0
14, 128280, Note_on_c, 12, 78, 76
14, 128379, Note_on_c, 12, 78, 0
14, 128400, Note_on_c, 12, 71, 76
14, 128400, Note_on_c, 12, 79, 76
14, 128639, Note_on_c, 12, 71, 0
14, 128639, Note_on_c, 12, 79, 0
14, 128760, Note_on_c, 12, 74, 76
14, 128859, Note_on_c, 12, 74, 0
14, 128880, Note_on_c, 12, 76, 76
14, 128979, Note_on_c, 12, 76, 0
14, 129000, Note_on_c, 12, 78, 76
14, 129099, Note_on_c, 12, 78, 0
14, 129120, Note_on_c, 12, 71, 76
14, 129120, Note_on_c, 12, 79, 76
14, 129120, Note_on_c, 12, 55, 76
14, 129120, Note_on_c, 12, 62, 76
14, 129359, Note_on_c, 12, 71, 0
14, 129359, Note_on_c, 12, 79, 0
14, 129359, Note_on_c, 12, 55, 0
14, 129359, Note_on_c, 12, 62, 0
14, 129480, Note_on_c, 12, 62, 84
14, 129579, Note_on_c, 12, 62, 0
14, 129600, Note_on_c, 12, 64, 84
14, 129699, Note_on_c, 12, 64, 0
14, 129720, Note_on_c, 12, 66, 84
14, 129819, Note_on_c, 12, 66, 0
14, 129840, Note_on_c, 12, 67, 84
14, 130079, Note_on_c, 12, 67, 0
14, 141840, Note_on_c, 12, 72, 76
14, 142059, Note_on_c, 12, 72, 0
14, 142080, Note_on_c, 12, 71, 76
14, 142179, Note_on_c, 12, 71, 0
14, 142200, Note_on_c, 12, 72, 76
14, 142299, Note_on_c, 12, 72, 0
14, 142320, Note_on_c, 12, 74, 76
14, 142419, Note_on_c, 12, 74, 0
14, 142440, Note_on_c, 12, 67, 76
14, 142539, Note_on_c, 12, 67, 0
14, 142560, Note_on_c, 12, 69, 76
14, 142659, Note_on_c, 12, 69, 0
14, 142680, Note_on_c, 12, 71, 76
14, 142779, Note_on_c, 12, 71, 0
14, 142800, Note_on_c, 12, 72, 76
14, 142899, Note_on_c, 12, 72, 0
14, 142920, Note_on_c, 12, 71, 76
14, 143019, Note_on_c, 12, 71, 0
14, 143040, Note_on_c, 12, 72, 76
14, 143139, Note_on_c, 12, 72, 0
14, 143160, Note_on_c, 12, 74, 76
14, 143259, Note_on_c, 12, 74, 0
14, 143280, Note_on_c, 12, 76, 76
14, 143379, Note_on_c, 12, 76, 0
14, 143400, Note_on_c, 12, 77, 76
14, 143499, Note_on_c, 12, 77, 0
14, 143520, Note_on_c, 12, 79, 76
14, 143619, Note_on_c, 12, 79, 0
14, 143640, Note_on_c, 12, 77, 76
14, 143739, Note_on_c, 12, 77, 0
14, 143760, Note_on_c, 12, 76, 76
14, 143859, Note_on_c, 12, 76, 0
14, 143880, Note_on_c, 12, 74, 76
14, 143979, Note_on_c, 12, 74, 0
14, 144000, Note_on_c, 12, 72, 76
14, 144099, Note_on_c, 12, 72, 0
14, 144120, Note_on_c, 12, 70, 76
14, 144219, Note_on_c, 12, 70, 0
14, 144240, Note_on_c, 12, 69, 76
14, 144479, Note_on_c, 12, 69, 0
14, 144720, Note_on_c, 12, 77, 76
14, 144819, Note_on_c, 12, 77, 0
14, 144840, Note_on_c, 12, 69, 76
14, 144939, Note_on_c, 12, 69, 0
14, 144960, Note_on_c, 12, 71, 76
14, 145059, Note_on_c, 12, 71, 0
14, 145080, Note_on_c, 12, 67, 76
14, 145179, Note_on_c, 12, 67, 0
14, 145200, Note_on_c, 12, 71, 76
14, 145299, Note_on_c, 12, 71, 0
14, 145320, Note_on_c, 12, 71, 76
14, 145419, Note_on_c, 12, 71, 0
14, 145440, Note_on_c, 12, 71, 76
14, 145539, Note_on_c, 12, 71, 0
14, 145560, Note_on_c, 12, 71, 76
14, 145659, Note_on_c, 12, 71, 0
14, 145680, Note_on_c, 12, 72, 76
14, 145779, Note_on_c, 12, 72, 0
14, 145800, Note_on_c, 12, 67, 76
14, 145899, Note_on_c, 12, 67, 0
14, 145920, Note_on_c, 12, 72, 76
14, 146019, Note_on_c, 12, 72, 0
14, 146040, Note_on_c, 12, 72, 76
14, 146139, Note_on_c, 12, 72, 0
14, 146160, Note_on_c, 12, 72, 76
14, 146259, Note_on_c, 12, 72, 0
14, 146280, Note_on_c, 12, 74, 76
14, 146379, Note_on_c, 12, 74, 0
14, 146400, Note_on_c, 12, 71, 84
14, 146499, Note_on_c, 12, 71, 0
14, 146520, Note_on_c, 12, 67, 76
14, 146619, Note_on_c, 12, 67, 0
14, 146640, Note_on_c, 12, 71, 76
14, 146739, Note_on_c, 12, 71, 0
14, 146760, Note_on_c, 12, 71, 76
14, 146859, Note_on_c, 12, 71, 0
14, 146880, Note_on_c, 12, 74, 76
14, 146979, Note_on_c, 12, 74, 0
14, 147000, Note_on_c, 12, 74, 76
14, 147099, Note_on_c, 12, 74, 0
14, 147120, Note_on_c, 12, 72, 76
14, 147219, Note_on_c, 12, 72, 0
14, 147240, Note_on_c, 12, 72, 76
14, 147339, Note_on_c, 12, 72, 0
14, 147360, Note_on_c, 12, 67, 76
14, 147459, Note_on_c, 12, 67, 0
14, 147480, Note_on_c, 12, 67, 76
14, 147579, Note_on_c, 12, 67, 0
14, 147600, Note_on_c, 12, 72, 76
14, 147699, Note_on_c, 12, 72, 0
14, 147720, Note_on_c, 12, 72, 76
14, 147819, Note_on_c, 12, 72, 0
14, 147840, Note_on_c, 12, 71, 84
14, 147939, Note_on_c, 12, 71, 0
14, 147960, Note_on_c, 12, 67, 76
14, 148059, Note_on_c, 12, 67, 0
14, 148080, Note_on_c, 12, 71, 76
14, 148179, Note_on_c, 12, 71, 0
14, 148200, Note_on_c, 12, 71, 76
14, 148299, Note_on_c, 12, 71, 0
14, 148320, Note_on_c, 12, 74, 76
14, 148419, Note_on_c, 12, 74, 0
14, 148440, Note_on_c, 12, 74, 76
14, 148539, Note_on_c, 12, 74, 0
14, 148560, Note_on_c, 12, 72, 76
14, 148659, Note_on_c, 12, 72, 0
14, 148680, Note_on_c, 12, 72, 76
14, 148779, Note_on_c, 12, 72, 0
14, 148800, Note_on_c, 12, 67, 76
14, 148899, Note_on_c, 12, 67, 0
14, 148920, Note_on_c, 12, 67, 76
14, 149019, Note_on_c, 12, 67, 0
14, 149040, Note_on_c, 12, 72, 76
14, 149139, Note_on_c, 12, 72, 0
14, 149160, Note_on_c, 12, 72, 76
14, 149259, Note_on_c, 12, 72, 0
14, 149280, Note_on_c, 12, 71, 84
14, 149379, Note_on_c, 12, 71, 0
14, 149400, Note_on_c, 12, 67, 76
14, 149499, Note_on_c, 12, 67, 0
14, 149520, Note_on_c, 12, 71, 76
14, 149619, Note_on_c, 12, 71, 0
14, 149640, Note_on_c, 12, 71, 76
14, 149739, Note_on_c, 12, 71, 0
14, 149760, Note_on_c, 12, 74, 76
14, 149859, Note_on_c, 12, 74, 0
14, 149880, Note_on_c, 12, 74, 76
14, 149979, Note_on_c, 12, 74, 0
14, 150000, Note_on_c, 12, 72, 76
14, 150099, Note_on_c, 12, 72, 0
14, 150120, Note_on_c, 12, 68, 76
14, 150219, Note_on_c, 12, 68, 0
14, 150240, Note_on_c, 12, 69, 76
14, 150339, Note_on_c, 12, 69, 0
14, 150360, Note_on_c, 12, 69, 76
14, 150459, Note_on_c, 12, 69, 0
14, 150480, Note_on_c, 12, 69, 76
14, 150579, Note_on_c, 12, 69, 0
14, 150600, Note_on_c, 12, 69, 76
14, 150699, Note_on_c, 12, 69, 0
14, 150720, Note_on_c, 12, 71, 76
14, 150819, Note_on_c, 12, 71, 0
14, 150840, Note_on_c, 12, 66, 76
14, 150939, Note_on_c, 12, 66, 0
14, 150960, Note_on_c, 12, 67, 76
14, 151059, Note_on_c, 12, 67, 0
14, 151080, Note_on_c, 12, 67, 76
14, 151179, Note_on_c, 12, 67, 0
14, 151200, Note_on_c, 12, 67, 76
14, 151299, Note_on_c, 12, 67, 0
14, 151320, Note_on_c, 12, 67, 76
14, 151419, Note_on_c, 12, 67, 0
14, 151440, Note_on_c, 12, 69, 76
14, 151539, Note_on_c, 12, 69, 0
14, 151560, Note_on_c, 12, 64, 76
14, 151659, Note_on_c, 12, 64, 0
14, 151680, Note_on_c, 12, 65, 76
14, 151779, Note_on_c, 12, 65, 0
14, 151800, Note_on_c, 12, 65, 76
14, 151899, Note_on_c, 12, 65, 0
14, 151920, Note_on_c, 12, 65, 76
14, 152019, Note_on_c, 12, 65, 0
14, 152040, Note_on_c, 12, 65, 76
14, 152139, Note_on_c, 12, 65, 0
14, 152160, Note_on_c, 12, 65, 76
14, 152259, Note_on_c, 12, 65, 0
14, 152280, Note_on_c, 12, 65, 76
14, 152379, Note_on_c, 12, 65, 0
14, 152400, Note_on_c, 12, 65, 76
14, 152499, Note_on_c, 12, 65, 0
14, 152520, Note_on_c, 12, 65, 76
14, 152619, Note_on_c, 12, 65, 0
14, 152640, Note_on_c, 12, 67, 76
14, 152739, Note_on_c, 12, 67, 0
14, 152760, Note_on_c, 12, 67, 76
14, 152859, Note_on_c, 12, 67, 0
14, 152880, Note_on_c, 12, 67, 76
14, 152979, Note_on_c, 12, 67, 0
14, 153000, Note_on_c, 12, 67, 76
14, 153099, Note_on_c, 12, 67, 0
14, 153120, Note_on_c, 12, 71, 76
14, 153219, Note_on_c, 12, 71, 0
14, 153240, Note_on_c, 12, 71, 76
14, 153339, Note_on_c, 12, 71, 0
14, 153360, Note_on_c, 12, 79, 76
14, 153459, Note_on_c, 12, 79, 0
14, 153480, Note_on_c, 12, 79, 76
14, 153579, Note_on_c, 12, 79, 0
14, 153600, Note_on_c, 12, 79, 76
14, 153839, Note_on_c, 12, 79, 0
14, 153960, Note_on_c, 12, 71, 76
14, 154059, Note_on_c, 12, 71, 0
14, 154080, Note_on_c, 12, 72, 76
14, 154179, Note_on_c, 12, 72, 0
14, 154200, Note_on_c, 12, 74, 76
14, 154299, Note_on_c, 12, 74, 0
14, 154320, Note_on_c, 12, 76, 76
14, 154559, Note_on_c, 12, 76, 0
14, 154680, Note_on_c, 12, 71, 76
14, 154779, Note_on_c, 12, 71, 0
14, 154800, Note_on_c, 12, 72, 76
14, 154899, Note_on_c, 12, 72, 0
14, 154920, Note_on_c, 12, 74, 76
14, 155019, Note_on_c, 12, 74, 0
14, 155040, Note_on_c, 12, 76, 76
14, 155279, Note_on_c, 12, 76, 0
14, 155400, Note_on_c, 12, 67, 84
14, 155499, Note_on_c, 12, 67, 0
14, 155520, Note_on_c, 12, 69, 84
14, 155619, Note_on_c, 12, 69, 0
14, 155640, Note_on_c, 12, 71, 84
14, 155739, Note_on_c, 12, 71, 0
14, 155760, Note_on_c, 12, 72, 84
14, 155999, Note_on_c, 12, 72, 0
14, 167760, Note_on_c, 12, 72, 44
14, 167999, Note_on_c, 12, 72, 0
14, 168000, Note_on_c, 12, 71, 44
14, 168119, Note_on_c, 12, 71, 0
14, 168120, Note_on_c, 12, 72, 44
14, 168239, Note_on_c, 12, 72, 0
14, 168240, Note_on_c, 12, 74, 44
14, 168359, Note_on_c, 12, 74, 0
14, 168360, Note_on_c, 12, 67, 44
14, 168479, Note_on_c, 12, 67, 0
14, 168480, Note_on_c, 12, 69, 44
14, 168599, Note_on_c, 12, 69, 0
14, 168600, Note_on_c, 12, 71, 44
14, 168719, Note_on_c, 12, 71, 0
14, 168720, Note_on_c, 12, 72, 44
14, 168839, Note_on_c, 12, 72, 0
14, 168840, Note_on_c, 12, 71, 44
14, 168959, Note_on_c, 12, 71, 0
14, 168960, Note_on_c, 12, 72, 44
14, 169079, Note_on_c, 12, 72, 0
14, 169080, Note_on_c, 12, 74, 44
14, 169199, Note_on_c, 12, 74, 0
14, 169200, Note_on_c, 12, 76, 44
14, 169319, Note_on_c, 12, 76, 0
14, 169320, Note_on_c, 12, 77, 44
14, 169419, Note_on_c, 12, 77, 0
14, 169440, Note_on_c, 12, 79, 44
14, 169679, Note_on_c, 12, 79, 0
14, 193920, Program_c, 12, 45
14, 194640, Note_on_c, 12, 65, 48
14, 194879, Note_on_c, 12, 65, 0
14, 195120, Note_on_c, 12, 62, 48
14, 195359, Note_on_c, 12, 62, 0
14, 195360, Note_on_c, 12, 63, 48
14, 195599, Note_on_c, 12, 63, 0
14, 195840, Note_on_c, 12, 62, 48
14, 196079, Note_on_c, 12, 62, 0
14, 196080, Note_on_c, 12, 62, 48
14, 196319, Note_on_c, 12, 62, 0
14, 196560, Note_on_c, 12, 60, 48
14, 196799, Note_on_c, 12, 60, 0
14, 196800, Note_on_c, 12, 59, 48
14, 197039, Note_on_c, 12, 59, 0
14, 197520, Note_on_c, 12, 62, 44
14, 197759, Note_on_c, 12, 62, 0
14, 198240, Note_on_c, 12, 63, 44
14, 198479, Note_on_c, 12, 63, 0
14, 198960, Note_on_c, 12, 65, 44
14, 199199, Note_on_c, 12, 65, 0
14, 199680, Note_on_c, 12, 67, 44
14, 199919, Note_on_c, 12, 67, 0
14, 200400, Note_on_c, 12, 62, 44
14, 200400, Note_on_c, 12, 65, 44
14, 200639, Note_on_c, 12, 62, 0
14, 200639, Note_on_c, 12, 65, 0
14, 201120, Note_on_c, 12, 63, 44
14, 201120, Note_on_c, 12, 60, 44
14, 201359, Note_on_c, 12, 63, 0
14, 201359, Note_on_c, 12, 60, 0
14, 201840, Note_on_c, 12, 67, 44
14, 202079, Note_on_c, 12, 67, 0
14, 202080, Note_on_c, 12, 65, 44
14, 202319, Note_on_c, 12, 65, 0
14, 202320, Note_on_c, 12, 63, 44
14, 202559, Note_on_c, 12, 63, 0
14, 202560, Note_on_c, 12, 62, 44
14, 202799, Note_on_c, 12, 62, 0
14, 203280, Note_on_c, 12, 67, 44
14, 203519, Note_on_c, 12, 67, 0
14, 204000, Note_on_c, 12, 68, 44
14, 204239, Note_on_c, 12, 68, 0
14, 204720, Note_on_c, 12, 70, 44
14, 204959, Note_on_c, 12, 70, 0
14, 205440, Note_on_c, 12, 68, 44
14, 205679, Note_on_c, 12, 68, 0
14, 206160, Note_on_c, 12, 70, 44
14, 206160, Note_on_c, 12, 67, 44
14, 206399, Note_on_c, 12, 70, 0
14, 206399, Note_on_c, 12, 67, 0
14, 206880, Note_on_c, 12, 68, 44
14, 207119, Note_on_c, 12, 68, 0
14, 207600, Note_on_c, 12, 72, 44
14, 207839, Note_on_c, 12, 72, 0
14, 207840, Note_on_c, 12, 70, 44
14, 208079, Note_on_c, 12, 70, 0
14, 208080, Note_on_c, 12, 68, 44
14, 208319, Note_on_c, 12, 68, 0
14, 208320, Note_on_c, 12, 67, 44
14, 208559, Note_on_c, 12, 67, 0
14, 209040, Note_on_c, 12, 68, 44
14, 209279, Note_on_c, 12, 68, 0
14, 209760, Note_on_c, 12, 65, 44
14, 209999, Note_on_c, 12, 65, 0
14, 210480, Note_on_c, 12, 68, 44
14, 210719, Note_on_c, 12, 68, 0
14, 210720, Note_on_c, 12, 67, 44
14, 210959, Note_on_c, 12, 67, 0
14, 210960, Note_on_c, 12, 65, 44
14, 211199, Note_on_c, 12, 65, 0
14, 211200, Note_on_c, 12, 64, 44
14, 211439, Note_on_c, 12, 64, 0
14, 212400, Note_on_c, 12, 65, 44
14, 212639, Note_on_c, 12, 65, 0
14, 212640, Note_on_c, 12, 64, 44
14, 212879, Note_on_c, 12, 64, 0
14, 213840, Note_on_c, 12, 65, 44
14, 214079, Note_on_c, 12, 65, 0
14, 214080, Note_on_c, 12, 64, 44
14, 214319, Note_on_c, 12, 64, 0
14, 214560, Note_on_c, 12, 65, 44
14, 214799, Note_on_c, 12, 65, 0
14, 214800, Note_on_c, 12, 64, 44
14, 215039, Note_on_c, 12, 64, 0
14, 215280, Note_on_c, 12, 65, 44
14, 215519, Note_on_c, 12, 65, 0
14, 215520, Note_on_c, 12, 64, 44
14, 215759, Note_on_c, 12, 64, 0
14, 219120, Note_on_c, 12, 67, 44
14, 219359, Note_on_c, 12, 67, 0
14, 219600, Note_on_c, 12, 67, 44
14, 219839, Note_on_c, 12, 67, 0
14, 219840, Note_on_c, 12, 67, 44
14, 220079, Note_on_c, 12, 67, 0
14, 220320, Note_on_c, 12, 71, 44
14, 220559, Note_on_c, 12, 71, 0
14, 220560, Note_on_c, 12, 74, 44
14, 220799, Note_on_c, 12, 74, 0
14, 221040, Note_on_c, 12, 72, 44
14, 221279, Note_on_c, 12, 72, 0
14, 221280, Note_on_c, 12, 71, 44
14, 221519, Note_on_c, 12, 71, 0
14, 222000, Note_on_c, 12, 67, 44
14, 222239, Note_on_c, 12, 67, 0
14, 222480, Note_on_c, 12, 65, 44
14, 222719, Note_on_c, 12, 65, 0
14, 222720, Note_on_c, 12, 67, 44
14, 222959, Note_on_c, 12, 67, 0
14, 223200, Note_on_c, 12, 72, 44
14, 223439, Note_on_c, 12, 72, 0
14, 223440, Note_on_c, 12, 75, 44
14, 223679, Note_on_c, 12, 75, 0
14, 223920, Note_on_c, 12, 74, 44
14, 224159, Note_on_c, 12, 74, 0
14, 224160, Note_on_c, 12, 72, 44
14, 224399, Note_on_c, 12, 72, 0
14, 224880, Note_on_c, 12, 72, 44
14, 225119, Note_on_c, 12, 72, 0
14, 225360, Note_on_c, 12, 72, 44
14, 225599, Note_on_c, 12, 72, 0
14, 225600, Note_on_c, 12, 74, 44
14, 225839, Note_on_c, 12, 74, 0
14, 226080, Note_on_c, 12, 75, 44
14, 226319, Note_on_c, 12, 75, 0
14, 226320, Note_on_c, 12, 77, 44
14, 226559, Note_on_c, 12, 77, 0
14, 226800, Note_on_c, 12, 75, 44
14, 227039, Note_on_c, 12, 75, 0
14, 227040, Note_on_c, 12, 75, 44
14, 227279, Note_on_c, 12, 75, 0
14, 227520, Note_on_c, 12, 74, 44
14, 227759, Note_on_c, 12, 74, 0
14, 227760, Note_on_c, 12, 77, 44
14, 227999, Note_on_c, 12, 77, 0
14, 228240, Note_on_c, 12, 75, 44
14, 228479, Note_on_c, 12, 75, 0
14, 228480, Note_on_c, 12, 75, 44
14, 228719, Note_on_c, 12, 75, 0
14, 228720, Note_on_c, 12, 74, 44
14, 228959, Note_on_c, 12, 74, 0
14, 228960, Note_on_c, 12, 74, 44
14, 229199, Note_on_c, 12, 74, 0
14, 229200, Note_on_c, 12, 74, 44
14, 229439, Note_on_c, 12, 74, 0
14, 229440, Note_on_c, 12, 62, 44
14, 229679, Note_on_c, 12, 62, 0
14, 229680, Note_on_c, 12, 67, 44
14, 229919, Note_on_c, 12, 67, 0
14, 230160, Note_on_c, 12, 60, 44
14, 230399, Note_on_c, 12, 60, 0
14, 230400, Note_on_c, 12, 65, 44
14, 230639, Note_on_c, 12, 65, 0
14, 230880, Note_on_c, 12, 62, 44
14, 231119, Note_on_c, 12, 62, 0
14, 231120, Note_on_c, 12, 67, 44
14, 231359, Note_on_c, 12, 67, 0
14, 231600, Note_on_c, 12, 60, 44
14, 231839, Note_on_c, 12, 60, 0
14, 231840, Note_on_c, 12, 65, 44
14, 232079, Note_on_c, 12, 65, 0
14, 232320, Note_on_c, 12, 62, 44
14, 232559, Note_on_c, 12, 62, 0
14, 232560, Note_on_c, 12, 67, 44
14, 232799, Note_on_c, 12, 67, 0
14, 233040, Note_on_c, 12, 60, 44
14, 233279, Note_on_c, 12, 60, 0
14, 233280, Note_on_c, 12, 65, 44
14, 233519, Note_on_c, 12, 65, 0
14, 233760, Note_on_c, 12, 62, 44
14, 233999, Note_on_c, 12, 62, 0
14, 234000, Note_on_c, 12, 67, 44
14, 234239, Note_on_c, 12, 67, 0
14, 234480, Note_on_c, 12, 60, 44
14, 234719, Note_on_c, 12, 60, 0
14, 234720, Note_on_c, 12, 65, 44
14, 234959, Note_on_c, 12, 65, 0
14, 235200, Note_on_c, 12, 62, 44
14, 235439, Note_on_c, 12, 62, 0
14, 235440, Note_on_c, 12, 67, 44
14, 235679, Note_on_c, 12, 67, 0
14, 235920, Note_on_c, 12, 60, 44
14, 236159, Note_on_c, 12, 60, 0
14, 236160, Note_on_c, 12, 63, 44
14, 236399, Note_on_c, 12, 63, 0
14, 236640, Note_on_c, 12, 60, 44
14, 236879, Note_on_c, 12, 60, 0
14, 236880, Note_on_c, 12, 68, 44
14, 237119, Note_on_c, 12, 68, 0
14, 237360, Note_on_c, 12, 59, 44
14, 237599, Note_on_c, 12, 59, 0
14, 237600, Note_on_c, 12, 62, 44
14, 237839, Note_on_c, 12, 62, 0
14, 238080, Note_on_c, 12, 55, 44
14, 238319, Note_on_c, 12, 55, 0
14, 238320, Note_on_c, 12, 65, 44
14, 238559, Note_on_c, 12, 65, 0
14, 238800, Note_on_c, 12, 60, 44
14, 239039, Note_on_c, 12, 60, 0
14, 239040, Note_on_c, 12, 72, 44
14, 239279, Note_on_c, 12, 72, 0
14, 239520, Note_on_c, 12, 60, 44
14, 239759, Note_on_c, 12, 60, 0
14, 239760, Note_on_c, 12, 72, 44
14, 239999, Note_on_c, 12, 72, 0
14, 240240, Note_on_c, 12, 60, 44
14, 240479, Note_on_c, 12, 60, 0
14, 240480, Note_on_c, 12, 75, 44
14, 240719, Note_on_c, 12, 75, 0
14, 240720, Note_on_c, 12, 75, 44
14, 240959, Note_on_c, 12, 75, 0
14, 240960, Note_on_c, 12, 75, 44
14, 241199, Note_on_c, 12, 75, 0
14, 241200, Note_on_c, 12, 74, 44
14, 241439, Note_on_c, 12, 74, 0
14, 241440, Note_on_c, 12, 72, 44
14, 241679, Note_on_c, 12, 72, 0
14, 242160, Note_on_c, 12, 67, 44
14, 242160, Note_on_c, 12, 74, 44
14, 242399, Note_on_c, 12, 67, 0
14, 242399, Note_on_c, 12, 74, 0
14, 242400, Note_on_c, 12, 74, 44
14, 242400, Note_on_c, 12, 67, 44
14, 242639, Note_on_c, 12, 74, 0
14, 242639, Note_on_c, 12, 67, 0
14, 242640, Note_on_c, 12, 74, 44
14, 242640, Note_on_c, 12, 67, 44
14, 242879, Note_on_c, 12, 74, 0
14, 242879, Note_on_c, 12, 67, 0
14, 242880, Note_on_c, 12, 67, 44
14, 242880, Note_on_c, 12, 75, 44
14, 243119, Note_on_c, 12, 67, 0
14, 243119, Note_on_c, 12, 75, 0
14, 243600, Note_on_c, 12, 65, 44
14, 243600, Note_on_c, 12, 71, 44
14, 243839, Note_on_c, 12, 65, 0
14, 243839, Note_on_c, 12, 71, 0
14, 243840, Note_on_c, 12, 71, 44
14, 243840, Note_on_c, 12, 65, 44
14, 244079, Note_on_c, 12, 71, 0
14, 244079, Note_on_c, 12, 65, 0
14, 244080, Note_on_c, 12, 71, 44
14, 244080, Note_on_c, 12, 65, 44
14, 244319, Note_on_c, 12, 71, 0
14, 244319, Note_on_c, 12, 65, 0
14, 244320, Note_on_c, 12, 72, 44
14, 244320, Note_on_c, 12, 63, 44
14, 244559, Note_on_c, 12, 72, 0
14, 244559, Note_on_c, 12, 63, 0
14, 245040, Note_on_c, 12, 70, 44
14, 245040, Note_on_c, 12, 67, 44
14, 245279, Note_on_c, 12, 70, 0
14, 245279, Note_on_c, 12, 67, 0
14, 245280, Note_on_c, 12, 70, 44
14, 245280, Note_on_c, 12, 67, 44
14, 245519, Note_on_c, 12, 70, 0
14, 245519, Note_on_c, 12, 67, 0
14, 245520, Note_on_c, 12, 67, 44
14, 245520, Note_on_c, 12, 70, 44
14, 245759, Note_on_c, 12, 67, 0
14, 245759, Note_on_c, 12, 70, 0
14, 245760, Note_on_c, 12, 68, 44
14, 245999, Note_on_c, 12, 68, 0
14, 246480, Note_on_c, 12, 62, 44
14, 246480, Note_on_c, 12, 59, 44
14, 246719, Note_on_c, 12, 62, 0
14, 246719, Note_on_c, 12, 59, 0
14, 255120, Program_c, 12, 48
14, 255840, Note_on_c, 12, 60, 44
14, 257279, Note_on_c, 12, 60, 0
14, 257280, Note_on_c, 12, 60, 44
14, 258719, Note_on_c, 12, 60, 0
14, 258720, Note_on_c, 12, 60, 44
14, 260159, Note_on_c, 12, 60, 0
14, 260160, Note_on_c, 12, 60, 44
14, 261599, Note_on_c, 12, 60, 0
14, 261600, Note_on_c, 12, 60, 44
14, 263039, Note_on_c, 12, 60, 0
14, 263040, Note_on_c, 12, 60, 44
14, 264479, Note_on_c, 12, 60, 0
14, 264480, Note_on_c, 12, 60, 44
14, 265919, Note_on_c, 12, 60, 0
14, 265920, Note_on_c, 12, 60, 44
14, 267359, Note_on_c, 12, 60, 0
14, 267360, Note_on_c, 12, 60, 44
14, 268799, Note_on_c, 12, 60, 0
14, 268800, Note_on_c, 12, 60, 44
14, 270239, Note_on_c, 12, 60, 0
14, 270240, Note_on_c, 12, 60, 44
14, 271679, Note_on_c, 12, 60, 0
14, 271680, Note_on_c, 12, 60, 44
14, 273119, Note_on_c, 12, 60, 0
14, 273120, Note_on_c, 12, 60, 44
14, 274559, Note_on_c, 12, 60, 0
14, 274560, Note_on_c, 12, 60, 44
14, 275999, Note_on_c, 12, 60, 0
14, 276000, Note_on_c, 12, 60, 44
14, 277431, Note_on_c, 12, 60, 0
14, 277438, Control_c, 12, 11, 48
14, 277440, Note_on_c, 12, 60, 84
14, 277440, Control_c, 12, 11, 48
14, 277536, Control_c, 12, 11, 49
14, 277632, Control_c, 12, 11, 51
14, 277728, Control_c, 12, 11, 52
14, 277824, Control_c, 12, 11, 53
14, 277920, Control_c, 12, 11, 55
14, 278016, Control_c, 12, 11, 56
14, 278112, Control_c, 12, 11, 57
14, 278139, Note_on_c, 12, 60, 0
14, 278160, Note_on_c, 12, 81, 84
14, 278208, Control_c, 12, 11, 59
14, 278259, Note_on_c, 12, 81, 0
14, 278280, Note_on_c, 12, 81, 84
14, 278304, Control_c, 12, 11, 60
14, 278379, Note_on_c, 12, 81, 0
14, 278400, Note_on_c, 12, 81, 84
14, 278400, Control_c, 12, 11, 61
14, 278496, Control_c, 12, 11, 62
14, 278499, Note_on_c, 12, 81, 0
14, 278520, Note_on_c, 12, 81, 84
14, 278592, Control_c, 12, 11, 64
14, 278619, Note_on_c, 12, 81, 0
14, 278640, Note_on_c, 12, 81, 84
14, 278688, Control_c, 12, 11, 65
14, 278739, Note_on_c, 12, 81, 0
14, 278760, Note_on_c, 12, 81, 84
14, 278784, Control_c, 12, 11, 66
14, 278859, Note_on_c, 12, 81, 0
14, 278880, Control_c, 12, 11, 68
14, 278880, Note_on_c, 12, 81, 84
14, 278976, Control_c, 12, 11, 69
14, 278979, Note_on_c, 12, 81, 0
14, 279000, Note_on_c, 12, 81, 84
14, 279072, Control_c, 12, 11, 70
14, 279099, Note_on_c, 12, 81, 0
14, 279120, Note_on_c, 12, 81, 84
14, 279168, Control_c, 12, 11, 72
14, 279219, Note_on_c, 12, 81, 0
14, 279240, Note_on_c, 12, 81, 84
14, 279264, Control_c, 12, 11, 73
14, 279339, Note_on_c, 12, 81, 0
14, 279360, Note_on_c, 12, 81, 84
14, 279360, Control_c, 12, 11, 74
14, 279456, Control_c, 12, 11, 76
14, 279459, Note_on_c, 12, 81, 0
14, 279480, Note_on_c, 12, 81, 84
14, 279552, Control_c, 12, 11, 77
14, 279579, Note_on_c, 12, 81, 0
14, 279600, Note_on_c, 12, 81, 84
14, 279648, Control_c, 12, 11, 78
14, 279699, Note_on_c, 12, 81, 0
14, 279720, Note_on_c, 12, 81, 84
14, 279744, Control_c, 12, 11, 80
14, 279819, Note_on_c, 12, 81, 0
14, 279840, Note_on_c, 12, 81, 84
14, 279840, Control_c, 12, 11, 81
14, 279936, Control_c, 12, 11, 82
14, 279939, Note_on_c, 12, 81, 0
14, 279960, Note_on_c, 12, 81, 84
14, 280032, Control_c, 12, 11, 84
14, 280059, Note_on_c, 12, 81, 0
14, 280080, Note_on_c, 12, 81, 84
14, 280128, Control_c, 12, 11, 85
14, 280179, Note_on_c, 12, 81, 0
14, 280200, Note_on_c, 12, 81, 84
14, 280224, Control_c, 12, 11, 86
14, 280299, Note_on_c, 12, 81, 0
14, 280320, Control_c, 12, 11, 88
14, 280320, Note_on_c, 12, 83, 84
14, 280416, Control_c, 12, 11, 89
14, 280419, Note_on_c, 12, 83, 0
14, 280440, Note_on_c, 12, 83, 84
14, 280512, Control_c, 12, 11, 90
14, 280539, Note_on_c, 12, 83, 0
14, 280560, Note_on_c, 12, 83, 84
14, 280608, Control_c, 12, 11, 91
14, 280659, Note_on_c, 12, 83, 0
14, 280680, Note_on_c, 12, 83, 84
14, 280704, Control_c, 12, 11, 93
14, 280779, Note_on_c, 12, 83, 0
14, 280800, Control_c, 12, 11, 94
14, 280800, Note_on_c, 12, 83, 84
14, 280896, Control_c, 12, 11, 95
14, 280899, Note_on_c, 12, 83, 0
14, 280920, Note_on_c, 12, 83, 84
14, 280992, Control_c, 12, 11, 97
14, 281019, Note_on_c, 12, 83, 0
14, 281040, Note_on_c, 12, 83, 84
14, 281088, Control_c, 12, 11, 98
14, 281139, Note_on_c, 12, 83, 0
14, 281160, Note_on_c, 12, 83, 84
14, 281184, Control_c, 12, 11, 99
14, 281259, Note_on_c, 12, 83, 0
14, 281280, Control_c, 12, 11, 101
14, 281280, Note_on_c, 12, 83, 84
14, 281376, Control_c, 12, 11, 102
14, 281379, Note_on_c, 12, 83, 0
14, 281400, Note_on_c, 12, 83, 84
14, 281472, Control_c, 12, 11, 103
14, 281499, Note_on_c, 12, 83, 0
14, 281520, Note_on_c, 12, 83, 84
14, 281568, Control_c, 12, 11, 105
14, 281619, Note_on_c, 12, 83, 0
14, 281640, Note_on_c, 12, 83, 84
14, 281664, Control_c, 12, 11, 106
14, 281739, Note_on_c, 12, 83, 0
14, 281760, Note_on_c, 12, 83, 84
14, 281760, Control_c, 12, 11, 107
14, 281856, Control_c, 12, 11, 109
14, 281859, Note_on_c, 12, 83, 0
14, 281880, Note_on_c, 12, 83, 84
14, 281952, Control_c, 12, 11, 110
14, 281979, Note_on_c, 12, 83, 0
14, 282000, Note_on_c, 12, 83, 84
14, 282048, Control_c, 12, 11, 111
14, 282099, Note_on_c, 12, 83, 0
14, 282120, Note_on_c, 12, 83, 84
14, 282144, Control_c, 12, 11, 113
14, 282219, Note_on_c, 12, 83, 0
14, 282240, Control_c, 12, 11, 114
14, 282240, Note_on_c, 12, 83, 84
14, 282336, Control_c, 12, 11, 115
14, 282339, Note_on_c, 12, 83, 0
14, 282360, Note_on_c, 12, 83, 84
14, 282432, Control_c, 12, 11, 116
14, 282459, Note_on_c, 12, 83, 0
14, 282480, Note_on_c, 12, 83, 84
14, 282528, Control_c, 12, 11, 118
14, 282579, Note_on_c, 12, 83, 0
14, 282600, Note_on_c, 12, 83, 84
14, 282624, Control_c, 12, 11, 119
14, 282699, Note_on_c, 12, 83, 0
14, 282720, Control_c, 12, 11, 120
14, 282720, Note_on_c, 12, 83, 84
14, 282816, Control_c, 12, 11, 122
14, 282819, Note_on_c, 12, 83, 0
14, 282840, Note_on_c, 12, 83, 84
14, 282912, Control_c, 12, 11, 123
14, 282939, Note_on_c, 12, 83, 0
14, 282960, Note_on_c, 12, 83, 84
14, 283008, Control_c, 12, 11, 124
14, 283059, Note_on_c, 12, 83, 0
14, 283080, Note_on_c, 12, 83, 84
14, 283104, Control_c, 12, 11, 127
14, 283179, Note_on_c, 12, 83, 0
14, 283179, End_track
15, 0, Start_track
15, 0, Title_t, "Viola "
15, 0, MIDI_port, 0
15, 0, Program_c, 13, 48
15, 0, Control_c, 13, 11, 127
15, 0, Control_c, 13, 10, 70
15, 0, Control_c, 13, 7, 96
15, 3120, Note_on_c, 13, 62, 44
15, 3839, Note_on_c, 13, 62, 0
15, 3840, Note_on_c, 13, 60, 44
15, 4319, Note_on_c, 13, 60, 0
15, 4320, Note_on_c, 13, 62, 44
15, 4539, Note_on_c, 13, 62, 0
15, 4560, Note_on_c, 13, 65, 44
15, 4999, Note_on_c, 13, 65, 0
15, 5040, Note_on_c, 13, 63, 44
15, 5239, Note_on_c, 13, 63, 0
15, 5280, Note_on_c, 13, 62, 44
15, 5759, Note_on_c, 13, 62, 0
15, 10320, Note_on_c, 13, 62, 44
15, 11039, Note_on_c, 13, 62, 0
15, 11040, Note_on_c, 13, 60, 44
15, 11519, Note_on_c, 13, 60, 0
15, 11520, Note_on_c, 13, 55, 44
15, 11739, Note_on_c, 13, 55, 0
15, 11760, Note_on_c, 13, 55, 44
15, 12199, Note_on_c, 13, 55, 0
15, 12240, Note_on_c, 13, 57, 44
15, 12439, Note_on_c, 13, 57, 0
15, 12480, Note_on_c, 13, 50, 44
15, 13199, Note_on_c, 13, 50, 0
15, 13920, Note_on_c, 13, 60, 76
15, 14159, Note_on_c, 13, 60, 0
15, 14640, Note_on_c, 13, 59, 76
15, 14879, Note_on_c, 13, 59, 0
15, 15360, Note_on_c, 13, 60, 76
15, 15599, Note_on_c, 13, 60, 0
15, 16080, Note_on_c, 13, 62, 76
15, 16319, Note_on_c, 13, 62, 0
15, 16800, Note_on_c, 13, 60, 76
15, 17039, Note_on_c, 13, 60, 0
15, 17520, Note_on_c, 13, 60, 76
15, 17759, Note_on_c, 13, 60, 0
15, 18240, Note_on_c, 13, 58, 76
15, 18479, Note_on_c, 13, 58, 0
15, 18960, Note_on_c, 13, 62, 76
15, 19179, Note_on_c, 13, 62, 0
15, 19200, Note_on_c, 13, 62, 76
15, 19419, Note_on_c, 13, 62, 0
15, 19440, Note_on_c, 13, 62, 76
15, 19659, Note_on_c, 13, 62, 0
15, 19680, Note_on_c, 13, 63, 76
15, 20379, Note_on_c, 13, 63, 0
15, 20400, Note_on_c, 13, 62, 76
15, 20619, Note_on_c, 13, 62, 0
15, 20640, Note_on_c, 13, 62, 76
15, 20859, Note_on_c, 13, 62, 0
15, 20880, Note_on_c, 13, 62, 76
15, 21099, Note_on_c, 13, 62, 0
15, 21120, Note_on_c, 13, 63, 76
15, 21819, Note_on_c, 13, 63, 0
15, 21840, Note_on_c, 13, 65, 76
15, 21840, Note_on_c, 13, 70, 76
15, 22059, Note_on_c, 13, 65, 0
15, 22059, Note_on_c, 13, 70, 0
15, 22080, Note_on_c, 13, 65, 76
15, 22080, Note_on_c, 13, 70, 76
15, 22299, Note_on_c, 13, 65, 0
15, 22299, Note_on_c, 13, 70, 0
15, 22320, Note_on_c, 13, 70, 76
15, 22320, Note_on_c, 13, 65, 76
15, 22539, Note_on_c, 13, 70, 0
15, 22539, Note_on_c, 13, 65, 0
15, 22560, Note_on_c, 13, 70, 76
15, 22560, Note_on_c, 13, 66, 76
15, 23259, Note_on_c, 13, 70, 0
15, 23259, Note_on_c, 13, 66, 0
15, 23280, Note_on_c, 13, 73, 76
15, 23280, Note_on_c, 13, 70, 76
15, 23519, Note_on_c, 13, 73, 0
15, 23519, Note_on_c, 13, 70, 0
15, 23520, Note_on_c, 13, 68, 76
15, 23520, Note_on_c, 13, 71, 76
15, 23739, Note_on_c, 13, 68, 0
15, 23739, Note_on_c, 13, 71, 0
15, 23760, Note_on_c, 13, 70, 76
15, 23760, Note_on_c, 13, 66, 76
15, 23939, Note_on_c, 13, 70, 0
15, 23939, Note_on_c, 13, 66, 0
15, 24000, Note_on_c, 13, 68, 76
15, 24000, Note_on_c, 13, 65, 76
15, 24699, Note_on_c, 13, 68, 0
15, 24699, Note_on_c, 13, 65, 0
15, 24720, Note_on_c, 13, 70, 76
15, 24720, Note_on_c, 13, 66, 76
15, 25419, Note_on_c, 13, 70, 0
15, 25419, Note_on_c, 13, 66, 0
15, 25440, Note_on_c, 13, 66, 76
15, 25440, Note_on_c, 13, 63, 76
15, 26139, Note_on_c, 13, 66, 0
15, 26139, Note_on_c, 13, 63, 0
15, 26160, Note_on_c, 13, 66, 76
15, 26160, Note_on_c, 13, 70, 76
15, 26399, Note_on_c, 13, 66, 0
15, 26399, Note_on_c, 13, 70, 0
15, 26400, Note_on_c, 13, 65, 76
15, 26400, Note_on_c, 13, 68, 76
15, 26619, Note_on_c, 13, 65, 0
15, 26619, Note_on_c, 13, 68, 0
15, 26640, Note_on_c, 13, 66, 76
15, 26640, Note_on_c, 13, 63, 76
15, 26819, Note_on_c, 13, 66, 0
15, 26819, Note_on_c, 13, 63, 0
15, 26880, Note_on_c, 13, 65, 84
15, 26880, Note_on_c, 13, 62, 84
15, 26999, Note_on_c, 13, 65, 0
15, 26999, Note_on_c, 13, 62, 0
15, 27000, Note_on_c, 13, 65, 76
15, 27000, Note_on_c, 13, 62, 76
15, 28079, Note_on_c, 13, 65, 0
15, 28079, Note_on_c, 13, 62, 0
15, 28080, Note_on_c, 13, 66, 76
15, 28080, Note_on_c, 13, 63, 76
15, 28299, Note_on_c, 13, 66, 0
15, 28299, Note_on_c, 13, 63, 0
15, 28320, Note_on_c, 13, 65, 84
15, 28320, Note_on_c, 13, 62, 84
15, 28439, Note_on_c, 13, 65, 0
15, 28439, Note_on_c, 13, 62, 0
15, 28440, Note_on_c, 13, 62, 76
15, 28440, Note_on_c, 13, 65, 76
15, 29519, Note_on_c, 13, 62, 0
15, 29519, Note_on_c, 13, 65, 0
15, 29520, Note_on_c, 13, 66, 76
15, 29520, Note_on_c, 13, 63, 76
15, 29739, Note_on_c, 13, 66, 0
15, 29739, Note_on_c, 13, 63, 0
15, 29760, Note_on_c, 13, 65, 84
15, 29760, Note_on_c, 13, 62, 84
15, 29879, Note_on_c, 13, 65, 0
15, 29879, Note_on_c, 13, 62, 0
15, 29880, Note_on_c, 13, 65, 76
15, 29880, Note_on_c, 13, 62, 76
15, 30239, Note_on_c, 13, 65, 0
15, 30239, Note_on_c, 13, 62, 0
15, 30240, Note_on_c, 13, 66, 76
15, 30240, Note_on_c, 13, 63, 76
15, 30459, Note_on_c, 13, 66, 0
15, 30459, Note_on_c, 13, 63, 0
15, 30480, Note_on_c, 13, 62, 84
15, 30480, Note_on_c, 13, 65, 84
15, 30599, Note_on_c, 13, 62, 0
15, 30599, Note_on_c, 13, 65, 0
15, 30600, Note_on_c, 13, 62, 76
15, 30600, Note_on_c, 13, 65, 76
15, 30959, Note_on_c, 13, 62, 0
15, 30959, Note_on_c, 13, 65, 0
15, 30960, Note_on_c, 13, 63, 76
15, 30960, Note_on_c, 13, 66, 76
15, 31179, Note_on_c, 13, 63, 0
15, 31179, Note_on_c, 13, 66, 0
15, 31200, Note_on_c, 13, 65, 76
15, 31200, Control_c, 13, 11, 127
15, 31200, Note_on_c, 13, 62, 76
15, 31260, Control_c, 13, 11, 122
15, 31320, Control_c, 13, 11, 117
15, 31380, Control_c, 13, 11, 111
15, 31440, Control_c, 13, 11, 106
15, 31500, Control_c, 13, 11, 101
15, 31560, Control_c, 13, 11, 96
15, 31620, Control_c, 13, 11, 90
15, 31680, Control_c, 13, 11, 85
15, 31740, Control_c, 13, 11, 80
15, 31800, Control_c, 13, 11, 75
15, 31860, Control_c, 13, 11, 69
15, 31920, Control_c, 13, 11, 64
15, 32159, Note_on_c, 13, 65, 0
15, 32159, Note_on_c, 13, 62, 0
15, 34560, Control_c, 13, 11, 127
15, 34800, Note_on_c, 13, 60, 44
15, 35519, Note_on_c, 13, 60, 0
15, 35520, Note_on_c, 13, 58, 44
15, 35999, Note_on_c, 13, 58, 0
15, 36000, Note_on_c, 13, 57, 44
15, 36219, Note_on_c, 13, 57, 0
15, 36240, Note_on_c, 13, 60, 44
15, 36679, Note_on_c, 13, 60, 0
15, 36720, Note_on_c, 13, 58, 44
15, 36919, Note_on_c, 13, 58, 0
15, 36960, Note_on_c, 13, 57, 44
15, 37439, Note_on_c, 13, 57, 0
15, 40320, Note_on_c, 13, 68, 44
15, 40559, Note_on_c, 13, 68, 0
15, 40560, Note_on_c, 13, 67, 44
15, 41039, Note_on_c, 13, 67, 0
15, 41040, Note_on_c, 13, 59, 44
15, 41279, Note_on_c, 13, 59, 0
15, 41280, Note_on_c, 13, 60, 44
15, 41759, Note_on_c, 13, 60, 0
15, 41760, Note_on_c, 13, 63, 44
15, 41999, Note_on_c, 13, 63, 0
15, 42000, Note_on_c, 13, 62, 44
15, 42479, Note_on_c, 13, 62, 0
15, 42480, Note_on_c, 13, 54, 44
15, 42719, Note_on_c, 13, 54, 0
15, 42720, Note_on_c, 13, 55, 44
15, 43199, Note_on_c, 13, 55, 0
15, 43200, Note_on_c, 13, 49, 44
15, 43419, Note_on_c, 13, 49, 0
15, 43440, Note_on_c, 13, 50, 44
15, 44139, Note_on_c, 13, 50, 0
15, 44160, Note_on_c, 13, 55, 44
15, 44639, Note_on_c, 13, 55, 0
15, 44640, Note_on_c, 13, 49, 44
15, 44859, Note_on_c, 13, 49, 0
15, 44880, Note_on_c, 13, 50, 44
15, 45579, Note_on_c, 13, 50, 0
15, 45600, Note_on_c, 13, 55, 44
15, 45839, Note_on_c, 13, 55, 0
15, 45840, Note_on_c, 13, 49, 44
15, 46079, Note_on_c, 13, 49, 0
15, 46080, Note_on_c, 13, 50, 44
15, 46299, Note_on_c, 13, 50, 0
15, 46320, Note_on_c, 13, 55, 44
15, 46559, Note_on_c, 13, 55, 0
15, 46560, Note_on_c, 13, 49, 44
15, 46799, Note_on_c, 13, 49, 0
15, 46800, Note_on_c, 13, 50, 44
15, 47019, Note_on_c, 13, 50, 0
15, 47040, Note_on_c, 13, 55, 44
15, 47279, Note_on_c, 13, 55, 0
15, 47280, Note_on_c, 13, 49, 44
15, 47519, Note_on_c, 13, 49, 0
15, 47520, Note_on_c, 13, 50, 44
15, 47739, Note_on_c, 13, 50, 0
15, 47760, Note_on_c, 13, 55, 44
15, 47999, Note_on_c, 13, 55, 0
15, 48000, Note_on_c, 13, 50, 46
15, 48239, Note_on_c, 13, 50, 0
15, 48240, Note_on_c, 13, 51, 49
15, 48459, Note_on_c, 13, 51, 0
15, 48480, Note_on_c, 13, 56, 52
15, 48719, Note_on_c, 13, 56, 0
15, 48720, Note_on_c, 13, 52, 54
15, 48959, Note_on_c, 13, 52, 0
15, 48960, Note_on_c, 13, 53, 57
15, 49179, Note_on_c, 13, 53, 0
15, 49200, Note_on_c, 13, 59, 60
15, 49439, Note_on_c, 13, 59, 0
15, 49440, Note_on_c, 13, 54, 62
15, 49679, Note_on_c, 13, 54, 0
15, 49680, Note_on_c, 13, 55, 65
15, 49899, Note_on_c, 13, 55, 0
15, 49920, Note_on_c, 13, 60, 68
15, 50159, Note_on_c, 13, 60, 0
15, 50160, Note_on_c, 13, 56, 70
15, 50399, Note_on_c, 13, 56, 0
15, 50400, Note_on_c, 13, 57, 73
15, 50619, Note_on_c, 13, 57, 0
15, 50640, Note_on_c, 13, 62, 76
15, 50859, Note_on_c, 13, 62, 0
15, 50880, Note_on_c, 13, 62, 76
15, 51099, Note_on_c, 13, 62, 0
15, 51120, Note_on_c, 13, 62, 76
15, 51339, Note_on_c, 13, 62, 0
15, 51360, Note_on_c, 13, 60, 76
15, 52059, Note_on_c, 13, 60, 0
15, 52080, Note_on_c, 13, 59, 76
15, 52299, Note_on_c, 13, 59, 0
15, 52320, Note_on_c, 13, 59, 76
15, 52539, Note_on_c, 13, 59, 0
15, 52560, Note_on_c, 13, 59, 76
15, 52779, Note_on_c, 13, 59, 0
15, 52800, Note_on_c, 13, 60, 76
15, 53499, Note_on_c, 13, 60, 0
15, 53520, Note_on_c, 13, 62, 76
15, 53520, Note_on_c, 13, 67, 76
15, 53739, Note_on_c, 13, 62, 0
15, 53739, Note_on_c, 13, 67, 0
15, 53760, Note_on_c, 13, 67, 76
15, 53760, Note_on_c, 13, 62, 76
15, 53979, Note_on_c, 13, 67, 0
15, 53979, Note_on_c, 13, 62, 0
15, 54000, Note_on_c, 13, 67, 76
15, 54000, Note_on_c, 13, 62, 76
15, 54219, Note_on_c, 13, 67, 0
15, 54219, Note_on_c, 13, 62, 0
15, 54240, Note_on_c, 13, 63, 76
15, 54240, Note_on_c, 13, 67, 76
15, 54939, Note_on_c, 13, 63, 0
15, 54939, Note_on_c, 13, 67, 0
15, 54960, Note_on_c, 13, 67, 76
15, 54960, Note_on_c, 13, 70, 76
15, 55199, Note_on_c, 13, 67, 0
15, 55199, Note_on_c, 13, 70, 0
15, 55200, Note_on_c, 13, 65, 76
15, 55200, Note_on_c, 13, 68, 76
15, 55419, Note_on_c, 13, 65, 0
15, 55419, Note_on_c, 13, 68, 0
15, 55440, Note_on_c, 13, 67, 76
15, 55440, Note_on_c, 13, 63, 76
15, 55619, Note_on_c, 13, 67, 0
15, 55619, Note_on_c, 13, 63, 0
15, 55680, Note_on_c, 13, 65, 76
15, 55680, Note_on_c, 13, 62, 76
15, 56379, Note_on_c, 13, 65, 0
15, 56379, Note_on_c, 13, 62, 0
15, 56400, Note_on_c, 13, 60, 76
15, 56639, Note_on_c, 13, 60, 0
15, 57120, Note_on_c, 13, 53, 76
15, 57359, Note_on_c, 13, 53, 0
15, 57840, Note_on_c, 13, 55, 76
15, 58079, Note_on_c, 13, 55, 0
15, 58560, Note_on_c, 13, 56, 76
15, 58799, Note_on_c, 13, 56, 0
15, 59280, Note_on_c, 13, 72, 84
15, 59280, Note_on_c, 13, 67, 84
15, 59499, Note_on_c, 13, 72, 0
15, 59499, Note_on_c, 13, 67, 0
15, 59520, Note_on_c, 13, 72, 84
15, 59520, Note_on_c, 13, 67, 84
15, 59739, Note_on_c, 13, 72, 0
15, 59739, Note_on_c, 13, 67, 0
15, 59760, Note_on_c, 13, 72, 84
15, 59760, Note_on_c, 13, 67, 84
15, 59979, Note_on_c, 13, 72, 0
15, 59979, Note_on_c, 13, 67, 0
15, 60000, Note_on_c, 13, 68, 84
15, 60000, Note_on_c, 13, 72, 84
15, 60699, Note_on_c, 13, 68, 0
15, 60699, Note_on_c, 13, 72, 0
15, 60720, Note_on_c, 13, 75, 84
15, 60720, Note_on_c, 13, 72, 84
15, 60959, Note_on_c, 13, 75, 0
15, 60959, Note_on_c, 13, 72, 0
15, 60960, Note_on_c, 13, 73, 84
15, 60960, Note_on_c, 13, 70, 84
15, 61179, Note_on_c, 13, 73, 0
15, 61179, Note_on_c, 13, 70, 0
15, 61200, Note_on_c, 13, 68, 84
15, 61200, Note_on_c, 13, 72, 84
15, 61379, Note_on_c, 13, 68, 0
15, 61379, Note_on_c, 13, 72, 0
15, 61440, Note_on_c, 13, 70, 84
15, 61440, Note_on_c, 13, 67, 84
15, 62139, Note_on_c, 13, 70, 0
15, 62139, Note_on_c, 13, 67, 0
15, 62160, Note_on_c, 13, 72, 84
15, 62160, Note_on_c, 13, 68, 84
15, 62859, Note_on_c, 13, 72, 0
15, 62859, Note_on_c, 13, 68, 0
15, 62880, Note_on_c, 13, 68, 84
15, 62880, Note_on_c, 13, 65, 84
15, 63579, Note_on_c, 13, 68, 0
15, 63579, Note_on_c, 13, 65, 0
15, 63600, Note_on_c, 13, 68, 84
15, 63600, Note_on_c, 13, 72, 84
15, 63839, Note_on_c, 13, 68, 0
15, 63839, Note_on_c, 13, 72, 0
15, 63840, Note_on_c, 13, 70, 84
15, 63840, Note_on_c, 13, 67, 84
15, 64059, Note_on_c, 13, 70, 0
15, 64059, Note_on_c, 13, 67, 0
15, 64080, Note_on_c, 13, 65, 84
15, 64080, Note_on_c, 13, 68, 84
15, 64259, Note_on_c, 13, 65, 0
15, 64259, Note_on_c, 13, 68, 0
15, 64320, Note_on_c, 13, 64, 84
15, 64320, Note_on_c, 13, 67, 84
15, 64779, Note_on_c, 13, 64, 0
15, 64779, Note_on_c, 13, 67, 0
15, 64800, Note_on_c, 13, 61, 92
15, 64919, Note_on_c, 13, 61, 0
15, 64920, Note_on_c, 13, 61, 84
15, 65039, Note_on_c, 13, 61, 0
15, 65040, Note_on_c, 13, 60, 84
15, 66219, Note_on_c, 13, 60, 0
15, 66240, Note_on_c, 13, 61, 92
15, 66359, Note_on_c, 13, 61, 0
15, 66360, Note_on_c, 13, 61, 84
15, 66479, Note_on_c, 13, 61, 0
15, 66480, Note_on_c, 13, 60, 84
15, 66959, Note_on_c, 13, 60, 0
15, 66960, Note_on_c, 13, 65, 84
15, 66960, Note_on_c, 13, 68, 84
15, 67179, Note_on_c, 13, 65, 0
15, 67179, Note_on_c, 13, 68, 0
15, 67200, Note_on_c, 13, 64, 92
15, 67200, Note_on_c, 13, 67, 92
15, 67319, Note_on_c, 13, 64, 0
15, 67319, Note_on_c, 13, 67, 0
15, 67320, Note_on_c, 13, 64, 84
15, 67320, Note_on_c, 13, 67, 84
15, 67679, Note_on_c, 13, 64, 0
15, 67679, Note_on_c, 13, 67, 0
15, 67680, Note_on_c, 13, 65, 84
15, 67680, Note_on_c, 13, 68, 84
15, 67899, Note_on_c, 13, 65, 0
15, 67899, Note_on_c, 13, 68, 0
15, 67920, Note_on_c, 13, 64, 92
15, 67920, Note_on_c, 13, 67, 92
15, 68039, Note_on_c, 13, 64, 0
15, 68039, Note_on_c, 13, 67, 0
15, 68040, Note_on_c, 13, 67, 84
15, 68040, Note_on_c, 13, 64, 84
15, 68399, Note_on_c, 13, 67, 0
15, 68399, Note_on_c, 13, 64, 0
15, 68400, Note_on_c, 13, 65, 84
15, 68400, Note_on_c, 13, 68, 84
15, 68619, Note_on_c, 13, 65, 0
15, 68619, Note_on_c, 13, 68, 0
15, 68640, Note_on_c, 13, 67, 84
15, 68640, Control_c, 13, 11, 127
15, 68640, Note_on_c, 13, 64, 84
15, 68700, Control_c, 13, 11, 120
15, 68760, Control_c, 13, 11, 114
15, 68820, Control_c, 13, 11, 107
15, 68880, Control_c, 13, 11, 101
15, 68940, Control_c, 13, 11, 94
15, 69000, Control_c, 13, 11, 88
15, 69060, Control_c, 13, 11, 81
15, 69120, Control_c, 13, 11, 74
15, 69180, Control_c, 13, 11, 68
15, 69240, Control_c, 13, 11, 61
15, 69300, Control_c, 13, 11, 55
15, 69360, Control_c, 13, 11, 48
15, 69599, Note_on_c, 13, 67, 0
15, 69599, Note_on_c, 13, 64, 0
15, 78000, Control_c, 13, 11, 127
15, 78720, Note_on_c, 13, 68, 52
15, 79199, Note_on_c, 13, 68, 0
15, 79200, Note_on_c, 13, 67, 52
15, 79439, Note_on_c, 13, 67, 0
15, 79680, Note_on_c, 13, 65, 52
15, 79859, Note_on_c, 13, 65, 0
15, 79920, Note_on_c, 13, 67, 52
15, 80099, Note_on_c, 13, 67, 0
15, 80400, Note_on_c, 13, 67, 52
15, 80579, Note_on_c, 13, 67, 0
15, 80640, Note_on_c, 13, 68, 52
15, 80819, Note_on_c, 13, 68, 0
15, 81120, Note_on_c, 13, 65, 52
15, 81299, Note_on_c, 13, 65, 0
15, 81360, Note_on_c, 13, 67, 52
15, 81539, Note_on_c, 13, 67, 0
15, 81600, Note_on_c, 13, 67, 52
15, 81779, Note_on_c, 13, 67, 0
15, 81840, Note_on_c, 13, 68, 52
15, 82019, Note_on_c, 13, 68, 0
15, 82080, Note_on_c, 13, 62, 52
15, 82299, Note_on_c, 13, 62, 0
15, 82320, Note_on_c, 13, 62, 52
15, 82539, Note_on_c, 13, 62, 0
15, 82560, Note_on_c, 13, 62, 52
15, 82779, Note_on_c, 13, 62, 0
15, 82800, Note_on_c, 13, 62, 52
15, 83039, Note_on_c, 13, 62, 0
15, 83280, Note_on_c, 13, 55, 52
15, 83499, Note_on_c, 13, 55, 0
15, 83520, Note_on_c, 13, 60, 52
15, 83759, Note_on_c, 13, 60, 0
15, 84000, Note_on_c, 13, 62, 52
15, 84219, Note_on_c, 13, 62, 0
15, 84240, Note_on_c, 13, 55, 52
15, 84479, Note_on_c, 13, 55, 0
15, 84720, Note_on_c, 13, 55, 52
15, 84939, Note_on_c, 13, 55, 0
15, 84960, Note_on_c, 13, 60, 52
15, 85199, Note_on_c, 13, 60, 0
15, 85440, Note_on_c, 13, 59, 52
15, 85659, Note_on_c, 13, 59, 0
15, 85680, Note_on_c, 13, 62, 52
15, 85919, Note_on_c, 13, 62, 0
15, 86160, Note_on_c, 13, 55, 52
15, 86379, Note_on_c, 13, 55, 0
15, 86400, Note_on_c, 13, 60, 52
15, 86639, Note_on_c, 13, 60, 0
15, 86880, Note_on_c, 13, 62, 52
15, 87099, Note_on_c, 13, 62, 0
15, 87120, Note_on_c, 13, 55, 52
15, 87359, Note_on_c, 13, 55, 0
15, 87600, Note_on_c, 13, 55, 52
15, 87819, Note_on_c, 13, 55, 0
15, 87840, Note_on_c, 13, 60, 52
15, 88079, Note_on_c, 13, 60, 0
15, 88320, Note_on_c, 13, 59, 54
15, 88539, Note_on_c, 13, 59, 0
15, 88560, Note_on_c, 13, 62, 55
15, 88799, Note_on_c, 13, 62, 0
15, 89040, Note_on_c, 13, 60, 57
15, 89259, Note_on_c, 13, 60, 0
15, 89280, Note_on_c, 13, 63, 58
15, 89519, Note_on_c, 13, 63, 0
15, 89760, Note_on_c, 13, 60, 60
15, 89979, Note_on_c, 13, 60, 0
15, 90000, Note_on_c, 13, 65, 61
15, 90239, Note_on_c, 13, 65, 0
15, 90480, Note_on_c, 13, 55, 64
15, 90699, Note_on_c, 13, 55, 0
15, 90720, Note_on_c, 13, 59, 65
15, 90959, Note_on_c, 13, 59, 0
15, 91200, Note_on_c, 13, 55, 67
15, 91419, Note_on_c, 13, 55, 0
15, 91440, Note_on_c, 13, 60, 68
15, 91679, Note_on_c, 13, 60, 0
15, 91920, Note_on_c, 13, 60, 70
15, 92139, Note_on_c, 13, 60, 0
15, 92160, Note_on_c, 13, 63, 71
15, 92399, Note_on_c, 13, 63, 0
15, 92640, Note_on_c, 13, 48, 73
15, 92859, Note_on_c, 13, 48, 0
15, 92880, Note_on_c, 13, 60, 74
15, 93119, Note_on_c, 13, 60, 0
15, 93240, Note_on_c, 13, 60, 76
15, 93339, Note_on_c, 13, 60, 0
15, 93360, Note_on_c, 13, 62, 76
15, 93459, Note_on_c, 13, 62, 0
15, 93480, Note_on_c, 13, 63, 76
15, 93579, Note_on_c, 13, 63, 0
15, 93600, Note_on_c, 13, 63, 76
15, 93819, Note_on_c, 13, 63, 0
15, 93840, Note_on_c, 13, 63, 76
15, 94059, Note_on_c, 13, 63, 0
15, 94080, Note_on_c, 13, 72, 76
15, 94080, Note_on_c, 13, 55, 76
15, 94080, Note_on_c, 13, 63, 76
15, 94299, Note_on_c, 13, 72, 0
15, 94299, Note_on_c, 13, 55, 0
15, 94299, Note_on_c, 13, 63, 0
15, 94320, Note_on_c, 13, 62, 76
15, 94320, Note_on_c, 13, 71, 76
15, 94320, Note_on_c, 13, 55, 76
15, 94539, Note_on_c, 13, 62, 0
15, 94539, Note_on_c, 13, 71, 0
15, 94539, Note_on_c, 13, 55, 0
15, 94560, Note_on_c, 13, 55, 76
15, 94560, Note_on_c, 13, 72, 76
15, 94560, Note_on_c, 13, 63, 76
15, 94799, Note_on_c, 13, 55, 0
15, 94799, Note_on_c, 13, 72, 0
15, 94799, Note_on_c, 13, 63, 0
15, 95280, Note_on_c, 13, 62, 84
15, 95499, Note_on_c, 13, 62, 0
15, 95520, Note_on_c, 13, 62, 84
15, 95739, Note_on_c, 13, 62, 0
15, 95760, Note_on_c, 13, 62, 84
15, 95979, Note_on_c, 13, 62, 0
15, 96000, Note_on_c, 13, 63, 84
15, 96699, Note_on_c, 13, 63, 0
15, 96720, Note_on_c, 13, 65, 84
15, 96939, Note_on_c, 13, 65, 0
15, 96960, Note_on_c, 13, 65, 84
15, 97179, Note_on_c, 13, 65, 0
15, 97200, Note_on_c, 13, 65, 84
15, 97419, Note_on_c, 13, 65, 0
15, 97440, Note_on_c, 13, 67, 84
15, 98139, Note_on_c, 13, 67, 0
15, 98160, Note_on_c, 13, 55, 52
15, 98379, Note_on_c, 13, 55, 0
15, 98400, Note_on_c, 13, 55, 52
15, 98619, Note_on_c, 13, 55, 0
15, 98640, Note_on_c, 13, 55, 52
15, 98859, Note_on_c, 13, 55, 0
15, 98880, Note_on_c, 13, 56, 52
15, 99059, Note_on_c, 13, 56, 0
15, 99600, Note_on_c, 13, 59, 52
15, 99779, Note_on_c, 13, 59, 0
15, 100320, Note_on_c, 13, 60, 52
15, 100499, Note_on_c, 13, 60, 0
15, 105120, Note_on_c, 13, 57, 76
15, 105339, Note_on_c, 13, 57, 0
15, 105360, Note_on_c, 13, 54, 76
15, 105459, Note_on_c, 13, 54, 0
15, 105480, Note_on_c, 13, 55, 76
15, 105579, Note_on_c, 13, 55, 0
15, 105600, Note_on_c, 13, 57, 76
15, 105699, Note_on_c, 13, 57, 0
15, 105720, Note_on_c, 13, 50, 76
15, 105819, Note_on_c, 13, 50, 0
15, 105840, Note_on_c, 13, 52, 76
15, 105939, Note_on_c, 13, 52, 0
15, 105960, Note_on_c, 13, 54, 76
15, 106059, Note_on_c, 13, 54, 0
15, 106080, Note_on_c, 13, 55, 76
15, 106179, Note_on_c, 13, 55, 0
15, 106200, Note_on_c, 13, 54, 76
15, 106299, Note_on_c, 13, 54, 0
15, 106320, Note_on_c, 13, 55, 76
15, 106419, Note_on_c, 13, 55, 0
15, 106440, Note_on_c, 13, 57, 76
15, 106539, Note_on_c, 13, 57, 0
15, 106560, Note_on_c, 13, 59, 76
15, 106659, Note_on_c, 13, 59, 0
15, 106680, Note_on_c, 13, 61, 76
15, 106779, Note_on_c, 13, 61, 0
15, 106800, Note_on_c, 13, 62, 76
15, 107259, Note_on_c, 13, 62, 0
15, 107280, Note_on_c, 13, 60, 76
15, 107499, Note_on_c, 13, 60, 0
15, 107520, Note_on_c, 13, 59, 76
15, 107739, Note_on_c, 13, 59, 0
15, 107760, Note_on_c, 13, 55, 76
15, 107979, Note_on_c, 13, 55, 0
15, 108000, Note_on_c, 13, 64, 76
15, 108219, Note_on_c, 13, 64, 0
15, 108240, Note_on_c, 13, 60, 76
15, 108459, Note_on_c, 13, 60, 0
15, 108480, Note_on_c, 13, 57, 76
15, 108699, Note_on_c, 13, 57, 0
15, 108720, Note_on_c, 13, 65, 76
15, 108939, Note_on_c, 13, 65, 0
15, 108960, Note_on_c, 13, 62, 76
15, 109179, Note_on_c, 13, 62, 0
15, 109200, Note_on_c, 13, 59, 76
15, 109419, Note_on_c, 13, 59, 0
15, 109440, Note_on_c, 13, 67, 76
15, 109899, Note_on_c, 13, 67, 0
15, 109920, Note_on_c, 13, 59, 76
15, 110019, Note_on_c, 13, 59, 0
15, 110040, Note_on_c, 13, 59, 76
15, 110139, Note_on_c, 13, 59, 0
15, 110160, Note_on_c, 13, 60, 76
15, 110259, Note_on_c, 13, 60, 0
15, 110280, Note_on_c, 13, 62, 76
15, 110379, Note_on_c, 13, 62, 0
15, 110400, Note_on_c, 13, 55, 76
15, 110619, Note_on_c, 13, 55, 0
15, 110640, Note_on_c, 13, 64, 76
15, 110739, Note_on_c, 13, 64, 0
15, 110760, Note_on_c, 13, 65, 76
15, 110859, Note_on_c, 13, 65, 0
15, 110880, Note_on_c, 13, 67, 76
15, 110979, Note_on_c, 13, 67, 0
15, 111000, Note_on_c, 13, 67, 76
15, 111099, Note_on_c, 13, 67, 0
15, 111120, Note_on_c, 13, 69, 76
15, 111219, Note_on_c, 13, 69, 0
15, 111240, Note_on_c, 13, 71, 76
15, 111339, Note_on_c, 13, 71, 0
15, 111360, Note_on_c, 13, 72, 76
15, 111459, Note_on_c, 13, 72, 0
15, 111480, Note_on_c, 13, 66, 76
15, 111579, Note_on_c, 13, 66, 0
15, 111600, Note_on_c, 13, 67, 76
15, 111699, Note_on_c, 13, 67, 0
15, 111720, Note_on_c, 13, 69, 76
15, 111819, Note_on_c, 13, 69, 0
15, 111840, Note_on_c, 13, 71, 76
15, 111939, Note_on_c, 13, 71, 0
15, 111960, Note_on_c, 13, 62, 76
15, 112059, Note_on_c, 13, 62, 0
15, 112080, Note_on_c, 13, 60, 76
15, 112179, Note_on_c, 13, 60, 0
15, 112200, Note_on_c, 13, 59, 76
15, 112299, Note_on_c, 13, 59, 0
15, 112320, Note_on_c, 13, 57, 76
15, 112419, Note_on_c, 13, 57, 0
15, 112440, Note_on_c, 13, 55, 76
15, 112539, Note_on_c, 13, 55, 0
15, 112560, Note_on_c, 13, 54, 76
15, 112659, Note_on_c, 13, 54, 0
15, 112680, Note_on_c, 13, 66, 76
15, 112779, Note_on_c, 13, 66, 0
15, 112800, Note_on_c, 13, 66, 76
15, 112899, Note_on_c, 13, 66, 0
15, 112920, Note_on_c, 13, 66, 76
15, 113019, Note_on_c, 13, 66, 0
15, 113040, Note_on_c, 13, 67, 76
15, 113139, Note_on_c, 13, 67, 0
15, 113160, Note_on_c, 13, 69, 76
15, 113259, Note_on_c, 13, 69, 0
15, 113280, Note_on_c, 13, 62, 76
15, 113280, Note_on_c, 13, 71, 76
15, 113280, Note_on_c, 13, 55, 76
15, 113519, Note_on_c, 13, 62, 0
15, 113519, Note_on_c, 13, 71, 0
15, 113519, Note_on_c, 13, 55, 0
15, 113640, Note_on_c, 13, 66, 76
15, 113739, Note_on_c, 13, 66, 0
15, 113760, Note_on_c, 13, 67, 76
15, 113859, Note_on_c, 13, 67, 0
15, 113880, Note_on_c, 13, 69, 76
15, 113979, Note_on_c, 13, 69, 0
15, 114000, Note_on_c, 13, 62, 76
15, 114000, Note_on_c, 13, 55, 76
15, 114000, Note_on_c, 13, 71, 76
15, 114239, Note_on_c, 13, 62, 0
15, 114239, Note_on_c, 13, 55, 0
15, 114239, Note_on_c, 13, 71, 0
15, 114360, Note_on_c, 13, 66, 76
15, 114459, Note_on_c, 13, 66, 0
15, 114480, Note_on_c, 13, 67, 76
15, 114579, Note_on_c, 13, 67, 0
15, 114600, Note_on_c, 13, 69, 76
15, 114699, Note_on_c, 13, 69, 0
15, 114720, Note_on_c, 13, 55, 76
15, 114720, Note_on_c, 13, 62, 76
15, 114720, Note_on_c, 13, 71, 76
15, 114959, Note_on_c, 13, 55, 0
15, 114959, Note_on_c, 13, 62, 0
15, 114959, Note_on_c, 13, 71, 0
15, 119520, Note_on_c, 13, 57, 76
15, 119739, Note_on_c, 13, 57, 0
15, 119760, Note_on_c, 13, 54, 76
15, 119859, Note_on_c, 13, 54, 0
15, 119880, Note_on_c, 13, 55, 76
15, 119979, Note_on_c, 13, 55, 0
15, 120000, Note_on_c, 13, 57, 76
15, 120099, Note_on_c, 13, 57, 0
15, 120120, Note_on_c, 13, 50, 76
15, 120219, Note_on_c, 13, 50, 0
15, 120240, Note_on_c, 13, 52, 76
15, 120339, Note_on_c, 13, 52, 0
15, 120360, Note_on_c, 13, 54, 76
15, 120459, Note_on_c, 13, 54, 0
15, 120480, Note_on_c, 13, 55, 76
15, 120579, Note_on_c, 13, 55, 0
15, 120600, Note_on_c, 13, 54, 76
15, 120699, Note_on_c, 13, 54, 0
15, 120720, Note_on_c, 13, 55, 76
15, 120819, Note_on_c, 13, 55, 0
15, 120840, Note_on_c, 13, 57, 76
15, 120939, Note_on_c, 13, 57, 0
15, 120960, Note_on_c, 13, 59, 76
15, 121059, Note_on_c, 13, 59, 0
15, 121080, Note_on_c, 13, 61, 76
15, 121179, Note_on_c, 13, 61, 0
15, 121200, Note_on_c, 13, 62, 76
15, 121659, Note_on_c, 13, 62, 0
15, 121680, Note_on_c, 13, 60, 76
15, 121899, Note_on_c, 13, 60, 0
15, 121920, Note_on_c, 13, 59, 76
15, 122139, Note_on_c, 13, 59, 0
15, 122160, Note_on_c, 13, 55, 76
15, 122379, Note_on_c, 13, 55, 0
15, 122400, Note_on_c, 13, 64, 76
15, 122619, Note_on_c, 13, 64, 0
15, 122640, Note_on_c, 13, 60, 76
15, 122859, Note_on_c, 13, 60, 0
15, 122880, Note_on_c, 13, 57, 76
15, 123099, Note_on_c, 13, 57, 0
15, 123120, Note_on_c, 13, 65, 76
15, 123339, Note_on_c, 13, 65, 0
15, 123360, Note_on_c, 13, 62, 76
15, 123579, Note_on_c, 13, 62, 0
15, 123600, Note_on_c, 13, 59, 76
15, 123819, Note_on_c, 13, 59, 0
15, 123840, Note_on_c, 13, 67, 76
15, 124299, Note_on_c, 13, 67, 0
15, 124320, Note_on_c, 13, 59, 76
15, 124419, Note_on_c, 13, 59, 0
15, 124440, Note_on_c, 13, 59, 76
15, 124539, Note_on_c, 13, 59, 0
15, 124560, Note_on_c, 13, 60, 76
15, 124659, Note_on_c, 13, 60, 0
15, 124680, Note_on_c, 13, 62, 76
15, 124779, Note_on_c, 13, 62, 0
15, 124800, Note_on_c, 13, 55, 76
15, 125019, Note_on_c, 13, 55, 0
15, 125040, Note_on_c, 13, 64, 76
15, 125139, Note_on_c, 13, 64, 0
15, 125160, Note_on_c, 13, 65, 76
15, 125259, Note_on_c, 13, 65, 0
15, 125280, Note_on_c, 13, 67, 76
15, 125379, Note_on_c, 13, 67, 0
15, 125400, Note_on_c, 13, 67, 76
15, 125499, Note_on_c, 13, 67, 0
15, 125520, Note_on_c, 13, 69, 76
15, 125619, Note_on_c, 13, 69, 0
15, 125640, Note_on_c, 13, 71, 76
15, 125739, Note_on_c, 13, 71, 0
15, 125760, Note_on_c, 13, 72, 76
15, 125859, Note_on_c, 13, 72, 0
15, 125880, Note_on_c, 13, 66, 76
15, 125979, Note_on_c, 13, 66, 0
15, 126000, Note_on_c, 13, 67, 76
15, 126099, Note_on_c, 13, 67, 0
15, 126120, Note_on_c, 13, 69, 76
15, 126219, Note_on_c, 13, 69, 0
15, 126240, Note_on_c, 13, 71, 76
15, 126339, Note_on_c, 13, 71, 0
15, 126360, Note_on_c, 13, 62, 76
15, 126459, Note_on_c, 13, 62, 0
15, 126480, Note_on_c, 13, 60, 76
15, 126579, Note_on_c, 13, 60, 0
15, 126600, Note_on_c, 13, 59, 76
15, 126699, Note_on_c, 13, 59, 0
15, 126720, Note_on_c, 13, 57, 76
15, 126819, Note_on_c, 13, 57, 0
15, 126840, Note_on_c, 13, 55, 76
15, 126939, Note_on_c, 13, 55, 0
15, 126960, Note_on_c, 13, 54, 76
15, 127059, Note_on_c, 13, 54, 0
15, 127080, Note_on_c, 13, 66, 76
15, 127179, Note_on_c, 13, 66, 0
15, 127200, Note_on_c, 13, 66, 76
15, 127299, Note_on_c, 13, 66, 0
15, 127320, Note_on_c, 13, 66, 76
15, 127419, Note_on_c, 13, 66, 0
15, 127440, Note_on_c, 13, 67, 76
15, 127539, Note_on_c, 13, 67, 0
15, 127560, Note_on_c, 13, 69, 76
15, 127659, Note_on_c, 13, 69, 0
15, 127680, Note_on_c, 13, 62, 76
15, 127680, Note_on_c, 13, 71, 76
15, 127680, Note_on_c, 13, 55, 76
15, 127919, Note_on_c, 13, 62, 0
15, 127919, Note_on_c, 13, 71, 0
15, 127919, Note_on_c, 13, 55, 0
15, 128040, Note_on_c, 13, 66, 76
15, 128139, Note_on_c, 13, 66, 0
15, 128160, Note_on_c, 13, 67, 76
15, 128259, Note_on_c, 13, 67, 0
15, 128280, Note_on_c, 13, 69, 76
15, 128379, Note_on_c, 13, 69, 0
15, 128400, Note_on_c, 13, 62, 76
15, 128400, Note_on_c, 13, 71, 76
15, 128400, Note_on_c, 13, 55, 76
15, 128639, Note_on_c, 13, 62, 0
15, 128639, Note_on_c, 13, 71, 0
15, 128639, Note_on_c, 13, 55, 0
15, 128760, Note_on_c, 13, 66, 76
15, 128859, Note_on_c, 13, 66, 0
15, 128880, Note_on_c, 13, 67, 76
15, 128979, Note_on_c, 13, 67, 0
15, 129000, Note_on_c, 13, 69, 76
15, 129099, Note_on_c, 13, 69, 0
15, 129120, Note_on_c, 13, 55, 76
15, 129120, Note_on_c, 13, 62, 76
15, 129120, Note_on_c, 13, 71, 76
15, 129359, Note_on_c, 13, 55, 0
15, 129359, Note_on_c, 13, 62, 0
15, 129359, Note_on_c, 13, 71, 0
15, 129480, Note_on_c, 13, 62, 84
15, 129579, Note_on_c, 13, 62, 0
15, 129600, Note_on_c, 13, 64, 84
15, 129699, Note_on_c, 13, 64, 0
15, 129720, Note_on_c, 13, 66, 84
15, 129819, Note_on_c, 13, 66, 0
15, 129840, Note_on_c, 13, 67, 84
15, 130079, Note_on_c, 13, 67, 0
15, 136080, Note_on_c, 13, 60, 76
15, 136299, Note_on_c, 13, 60, 0
15, 136320, Note_on_c, 13, 59, 76
15, 136419, Note_on_c, 13, 59, 0
15, 136440, Note_on_c, 13, 60, 76
15, 136539, Note_on_c, 13, 60, 0
15, 136560, Note_on_c, 13, 62, 76
15, 136659, Note_on_c, 13, 62, 0
15, 136680, Note_on_c, 13, 55, 76
15, 136779, Note_on_c, 13, 55, 0
15, 136800, Note_on_c, 13, 57, 76
15, 136899, Note_on_c, 13, 57, 0
15, 136920, Note_on_c, 13, 59, 76
15, 137019, Note_on_c, 13, 59, 0
15, 137040, Note_on_c, 13, 60, 76
15, 137139, Note_on_c, 13, 60, 0
15, 137160, Note_on_c, 13, 59, 76
15, 137259, Note_on_c, 13, 59, 0
15, 137280, Note_on_c, 13, 60, 76
15, 137379, Note_on_c, 13, 60, 0
15, 137400, Note_on_c, 13, 62, 76
15, 137499, Note_on_c, 13, 62, 0
15, 137520, Note_on_c, 13, 64, 76
15, 137619, Note_on_c, 13, 64, 0
15, 137640, Note_on_c, 13, 65, 76
15, 137739, Note_on_c, 13, 65, 0
15, 137760, Note_on_c, 13, 67, 76
15, 138219, Note_on_c, 13, 67, 0
15, 138240, Note_on_c, 13, 65, 76
15, 138459, Note_on_c, 13, 65, 0
15, 138480, Note_on_c, 13, 64, 76
15, 138699, Note_on_c, 13, 64, 0
15, 138720, Note_on_c, 13, 60, 76
15, 138939, Note_on_c, 13, 60, 0
15, 138960, Note_on_c, 13, 72, 76
15, 139419, Note_on_c, 13, 72, 0
15, 139440, Note_on_c, 13, 60, 76
15, 139659, Note_on_c, 13, 60, 0
15, 139680, Note_on_c, 13, 70, 76
15, 140139, Note_on_c, 13, 70, 0
15, 140160, Note_on_c, 13, 60, 76
15, 140379, Note_on_c, 13, 60, 0
15, 140400, Note_on_c, 13, 69, 76
15, 140859, Note_on_c, 13, 69, 0
15, 140880, Note_on_c, 13, 60, 76
15, 141099, Note_on_c, 13, 60, 0
15, 141120, Note_on_c, 13, 67, 76
15, 141579, Note_on_c, 13, 67, 0
15, 141600, Note_on_c, 13, 65, 76
15, 141819, Note_on_c, 13, 65, 0
15, 141840, Note_on_c, 13, 69, 76
15, 142059, Note_on_c, 13, 69, 0
15, 142080, Note_on_c, 13, 62, 76
15, 142779, Note_on_c, 13, 62, 0
15, 142800, Note_on_c, 13, 60, 76
15, 143259, Note_on_c, 13, 60, 0
15, 143280, Note_on_c, 13, 64, 76
15, 143379, Note_on_c, 13, 64, 0
15, 143400, Note_on_c, 13, 62, 76
15, 143499, Note_on_c, 13, 62, 0
15, 143520, Note_on_c, 13, 60, 76
15, 143859, Note_on_c, 13, 60, 0
15, 143880, Note_on_c, 13, 58, 76
15, 143979, Note_on_c, 13, 58, 0
15, 144000, Note_on_c, 13, 57, 76
15, 144099, Note_on_c, 13, 57, 0
15, 144120, Note_on_c, 13, 55, 76
15, 144219, Note_on_c, 13, 55, 0
15, 144240, Note_on_c, 13, 53, 76
15, 144479, Note_on_c, 13, 53, 0
15, 144720, Note_on_c, 13, 69, 76
15, 144720, Note_on_c, 13, 65, 76
15, 144819, Note_on_c, 13, 69, 0
15, 144819, Note_on_c, 13, 65, 0
15, 144840, Note_on_c, 13, 65, 76
15, 144840, Note_on_c, 13, 57, 76
15, 144939, Note_on_c, 13, 65, 0
15, 144939, Note_on_c, 13, 57, 0
15, 144960, Note_on_c, 13, 59, 76
15, 144960, Note_on_c, 13, 62, 76
15, 145059, Note_on_c, 13, 59, 0
15, 145059, Note_on_c, 13, 62, 0
15, 145080, Note_on_c, 13, 59, 76
15, 145080, Note_on_c, 13, 55, 76
15, 145179, Note_on_c, 13, 59, 0
15, 145179, Note_on_c, 13, 55, 0
15, 145200, Note_on_c, 13, 62, 76
15, 145200, Note_on_c, 13, 59, 76
15, 145299, Note_on_c, 13, 62, 0
15, 145299, Note_on_c, 13, 59, 0
15, 145320, Note_on_c, 13, 62, 76
15, 145320, Note_on_c, 13, 59, 76
15, 145419, Note_on_c, 13, 62, 0
15, 145419, Note_on_c, 13, 59, 0
15, 145440, Note_on_c, 13, 59, 76
15, 145440, Note_on_c, 13, 62, 76
15, 145539, Note_on_c, 13, 59, 0
15, 145539, Note_on_c, 13, 62, 0
15, 145560, Note_on_c, 13, 62, 76
15, 145560, Note_on_c, 13, 59, 76
15, 145659, Note_on_c, 13, 62, 0
15, 145659, Note_on_c, 13, 59, 0
15, 145680, Note_on_c, 13, 64, 76
15, 145680, Note_on_c, 13, 60, 76
15, 145779, Note_on_c, 13, 64, 0
15, 145779, Note_on_c, 13, 60, 0
15, 145800, Note_on_c, 13, 60, 76
15, 145800, Note_on_c, 13, 55, 76
15, 145899, Note_on_c, 13, 60, 0
15, 145899, Note_on_c, 13, 55, 0
15, 145920, Note_on_c, 13, 60, 76
15, 145920, Note_on_c, 13, 64, 76
15, 146019, Note_on_c, 13, 60, 0
15, 146019, Note_on_c, 13, 64, 0
15, 146040, Note_on_c, 13, 60, 76
15, 146040, Note_on_c, 13, 64, 76
15, 146139, Note_on_c, 13, 60, 0
15, 146139, Note_on_c, 13, 64, 0
15, 146160, Note_on_c, 13, 64, 76
15, 146160, Note_on_c, 13, 60, 76
15, 146259, Note_on_c, 13, 64, 0
15, 146259, Note_on_c, 13, 60, 0
15, 146280, Note_on_c, 13, 62, 76
15, 146280, Note_on_c, 13, 65, 76
15, 146379, Note_on_c, 13, 62, 0
15, 146379, Note_on_c, 13, 65, 0
15, 146400, Note_on_c, 13, 59, 84
15, 146400, Note_on_c, 13, 67, 84
15, 146499, Note_on_c, 13, 59, 0
15, 146499, Note_on_c, 13, 67, 0
15, 146520, Note_on_c, 13, 62, 76
15, 146520, Note_on_c, 13, 55, 76
15, 146619, Note_on_c, 13, 62, 0
15, 146619, Note_on_c, 13, 55, 0
15, 146640, Note_on_c, 13, 67, 76
15, 146640, Note_on_c, 13, 59, 76
15, 146739, Note_on_c, 13, 67, 0
15, 146739, Note_on_c, 13, 59, 0
15, 146760, Note_on_c, 13, 67, 76
15, 146760, Note_on_c, 13, 59, 76
15, 146859, Note_on_c, 13, 67, 0
15, 146859, Note_on_c, 13, 59, 0
15, 146880, Note_on_c, 13, 65, 76
15, 146880, Note_on_c, 13, 62, 76
15, 146979, Note_on_c, 13, 65, 0
15, 146979, Note_on_c, 13, 62, 0
15, 147000, Note_on_c, 13, 62, 76
15, 147000, Note_on_c, 13, 65, 76
15, 147099, Note_on_c, 13, 62, 0
15, 147099, Note_on_c, 13, 65, 0
15, 147120, Note_on_c, 13, 60, 76
15, 147120, Note_on_c, 13, 64, 76
15, 147219, Note_on_c, 13, 60, 0
15, 147219, Note_on_c, 13, 64, 0
15, 147240, Note_on_c, 13, 60, 76
15, 147240, Note_on_c, 13, 64, 76
15, 147339, Note_on_c, 13, 60, 0
15, 147339, Note_on_c, 13, 64, 0
15, 147360, Note_on_c, 13, 55, 76
15, 147360, Note_on_c, 13, 60, 76
15, 147459, Note_on_c, 13, 55, 0
15, 147459, Note_on_c, 13, 60, 0
15, 147480, Note_on_c, 13, 55, 76
15, 147480, Note_on_c, 13, 60, 76
15, 147579, Note_on_c, 13, 55, 0
15, 147579, Note_on_c, 13, 60, 0
15, 147600, Note_on_c, 13, 60, 76
15, 147600, Note_on_c, 13, 64, 76
15, 147699, Note_on_c, 13, 60, 0
15, 147699, Note_on_c, 13, 64, 0
15, 147720, Note_on_c, 13, 60, 76
15, 147720, Note_on_c, 13, 64, 76
15, 147819, Note_on_c, 13, 60, 0
15, 147819, Note_on_c, 13, 64, 0
15, 147840, Note_on_c, 13, 67, 84
15, 147840, Note_on_c, 13, 59, 84
15, 147939, Note_on_c, 13, 67, 0
15, 147939, Note_on_c, 13, 59, 0
15, 147960, Note_on_c, 13, 62, 76
15, 147960, Note_on_c, 13, 55, 76
15, 148059, Note_on_c, 13, 62, 0
15, 148059, Note_on_c, 13, 55, 0
15, 148080, Note_on_c, 13, 67, 76
15, 148080, Note_on_c, 13, 59, 76
15, 148179, Note_on_c, 13, 67, 0
15, 148179, Note_on_c, 13, 59, 0
15, 148200, Note_on_c, 13, 59, 76
15, 148200, Note_on_c, 13, 67, 76
15, 148299, Note_on_c, 13, 59, 0
15, 148299, Note_on_c, 13, 67, 0
15, 148320, Note_on_c, 13, 65, 76
15, 148320, Note_on_c, 13, 62, 76
15, 148419, Note_on_c, 13, 65, 0
15, 148419, Note_on_c, 13, 62, 0
15, 148440, Note_on_c, 13, 62, 76
15, 148440, Note_on_c, 13, 65, 76
15, 148539, Note_on_c, 13, 62, 0
15, 148539, Note_on_c, 13, 65, 0
15, 148560, Note_on_c, 13, 60, 76
15, 148560, Note_on_c, 13, 64, 76
15, 148659, Note_on_c, 13, 60, 0
15, 148659, Note_on_c, 13, 64, 0
15, 148680, Note_on_c, 13, 64, 76
15, 148680, Note_on_c, 13, 60, 76
15, 148779, Note_on_c, 13, 64, 0
15, 148779, Note_on_c, 13, 60, 0
15, 148800, Note_on_c, 13, 60, 76
15, 148800, Note_on_c, 13, 55, 76
15, 148899, Note_on_c, 13, 60, 0
15, 148899, Note_on_c, 13, 55, 0
15, 148920, Note_on_c, 13, 55, 76
15, 148920, Note_on_c, 13, 60, 76
15, 149019, Note_on_c, 13, 55, 0
15, 149019, Note_on_c, 13, 60, 0
15, 149040, Note_on_c, 13, 60, 76
15, 149040, Note_on_c, 13, 64, 76
15, 149139, Note_on_c, 13, 60, 0
15, 149139, Note_on_c, 13, 64, 0
15, 149160, Note_on_c, 13, 64, 76
15, 149160, Note_on_c, 13, 60, 76
15, 149259, Note_on_c, 13, 64, 0
15, 149259, Note_on_c, 13, 60, 0
15, 149280, Note_on_c, 13, 67, 84
15, 149280, Note_on_c, 13, 59, 84
15, 149379, Note_on_c, 13, 67, 0
15, 149379, Note_on_c, 13, 59, 0
15, 149400, Note_on_c, 13, 55, 76
15, 149400, Note_on_c, 13, 62, 76
15, 149499, Note_on_c, 13, 55, 0
15, 149499, Note_on_c, 13, 62, 0
15, 149520, Note_on_c, 13, 67, 76
15, 149520, Note_on_c, 13, 59, 76
15, 149619, Note_on_c, 13, 67, 0
15, 149619, Note_on_c, 13, 59, 0
15, 149640, Note_on_c, 13, 59, 76
15, 149640, Note_on_c, 13, 67, 76
15, 149739, Note_on_c, 13, 59, 0
15, 149739, Note_on_c, 13, 67, 0
15, 149760, Note_on_c, 13, 65, 76
15, 149760, Note_on_c, 13, 62, 76
15, 149859, Note_on_c, 13, 65, 0
15, 149859, Note_on_c, 13, 62, 0
15, 149880, Note_on_c, 13, 62, 76
15, 149880, Note_on_c, 13, 65, 76
15, 149979, Note_on_c, 13, 62, 0
15, 149979, Note_on_c, 13, 65, 0
15, 150000, Note_on_c, 13, 60, 76
15, 150000, Note_on_c, 13, 64, 76
15, 150099, Note_on_c, 13, 60, 0
15, 150099, Note_on_c, 13, 64, 0
15, 150120, Note_on_c, 13, 56, 76
15, 150120, Note_on_c, 13, 64, 76
15, 150219, Note_on_c, 13, 56, 0
15, 150219, Note_on_c, 13, 64, 0
15, 150240, Note_on_c, 13, 57, 76
15, 150240, Note_on_c, 13, 60, 76
15, 150339, Note_on_c, 13, 57, 0
15, 150339, Note_on_c, 13, 60, 0
15, 150360, Note_on_c, 13, 57, 76
15, 150360, Note_on_c, 13, 60, 76
15, 150459, Note_on_c, 13, 57, 0
15, 150459, Note_on_c, 13, 60, 0
15, 150480, Note_on_c, 13, 57, 76
15, 150480, Note_on_c, 13, 65, 76
15, 150579, Note_on_c, 13, 57, 0
15, 150579, Note_on_c, 13, 65, 0
15, 150600, Note_on_c, 13, 65, 76
15, 150600, Note_on_c, 13, 57, 76
15, 150699, Note_on_c, 13, 65, 0
15, 150699, Note_on_c, 13, 57, 0
15, 150720, Note_on_c, 13, 59, 76
15, 150720, Note_on_c, 13, 62, 76
15, 150819, Note_on_c, 13, 59, 0
15, 150819, Note_on_c, 13, 62, 0
15, 150840, Note_on_c, 13, 62, 76
15, 150840, Note_on_c, 13, 54, 76
15, 150939, Note_on_c, 13, 62, 0
15, 150939, Note_on_c, 13, 54, 0
15, 150960, Note_on_c, 13, 59, 76
15, 150960, Note_on_c, 13, 55, 76
15, 151059, Note_on_c, 13, 59, 0
15, 151059, Note_on_c, 13, 55, 0
15, 151080, Note_on_c, 13, 59, 76
15, 151080, Note_on_c, 13, 55, 76
15, 151179, Note_on_c, 13, 59, 0
15, 151179, Note_on_c, 13, 55, 0
15, 151200, Note_on_c, 13, 55, 76
15, 151200, Note_on_c, 13, 64, 76
15, 151299, Note_on_c, 13, 55, 0
15, 151299, Note_on_c, 13, 64, 0
15, 151320, Note_on_c, 13, 64, 76
15, 151320, Note_on_c, 13, 55, 76
15, 151419, Note_on_c, 13, 64, 0
15, 151419, Note_on_c, 13, 55, 0
15, 151440, Note_on_c, 13, 57, 76
15, 151440, Note_on_c, 13, 60, 76
15, 151539, Note_on_c, 13, 57, 0
15, 151539, Note_on_c, 13, 60, 0
15, 151560, Note_on_c, 13, 60, 76
15, 151560, Note_on_c, 13, 52, 76
15, 151659, Note_on_c, 13, 60, 0
15, 151659, Note_on_c, 13, 52, 0
15, 151680, Note_on_c, 13, 53, 76
15, 151680, Note_on_c, 13, 57, 76
15, 151779, Note_on_c, 13, 53, 0
15, 151779, Note_on_c, 13, 57, 0
15, 151800, Note_on_c, 13, 53, 76
15, 151800, Note_on_c, 13, 57, 76
15, 151899, Note_on_c, 13, 53, 0
15, 151899, Note_on_c, 13, 57, 0
15, 151920, Note_on_c, 13, 53, 76
15, 151920, Note_on_c, 13, 62, 76
15, 152019, Note_on_c, 13, 53, 0
15, 152019, Note_on_c, 13, 62, 0
15, 152040, Note_on_c, 13, 53, 76
15, 152040, Note_on_c, 13, 62, 76
15, 152139, Note_on_c, 13, 53, 0
15, 152139, Note_on_c, 13, 62, 0
15, 152160, Note_on_c, 13, 53, 76
15, 152160, Note_on_c, 13, 59, 76
15, 152259, Note_on_c, 13, 53, 0
15, 152259, Note_on_c, 13, 59, 0
15, 152280, Note_on_c, 13, 59, 76
15, 152280, Note_on_c, 13, 53, 76
15, 152379, Note_on_c, 13, 59, 0
15, 152379, Note_on_c, 13, 53, 0
15, 152400, Note_on_c, 13, 59, 76
15, 152400, Note_on_c, 13, 62, 76
15, 152499, Note_on_c, 13, 59, 0
15, 152499, Note_on_c, 13, 62, 0
15, 152520, Note_on_c, 13, 59, 76
15, 152520, Note_on_c, 13, 62, 76
15, 152619, Note_on_c, 13, 59, 0
15, 152619, Note_on_c, 13, 62, 0
15, 152640, Note_on_c, 13, 59, 76
15, 152640, Note_on_c, 13, 65, 76
15, 152739, Note_on_c, 13, 59, 0
15, 152739, Note_on_c, 13, 65, 0
15, 152760, Note_on_c, 13, 59, 76
15, 152760, Note_on_c, 13, 65, 76
15, 152859, Note_on_c, 13, 59, 0
15, 152859, Note_on_c, 13, 65, 0
15, 152880, Note_on_c, 13, 65, 76
15, 152880, Note_on_c, 13, 62, 76
15, 152979, Note_on_c, 13, 65, 0
15, 152979, Note_on_c, 13, 62, 0
15, 153000, Note_on_c, 13, 65, 76
15, 153000, Note_on_c, 13, 62, 76
15, 153099, Note_on_c, 13, 65, 0
15, 153099, Note_on_c, 13, 62, 0
15, 153120, Note_on_c, 13, 62, 76
15, 153120, Note_on_c, 13, 65, 76
15, 153219, Note_on_c, 13, 62, 0
15, 153219, Note_on_c, 13, 65, 0
15, 153240, Note_on_c, 13, 65, 76
15, 153240, Note_on_c, 13, 62, 76
15, 153339, Note_on_c, 13, 65, 0
15, 153339, Note_on_c, 13, 62, 0
15, 153360, Note_on_c, 13, 67, 76
15, 153360, Note_on_c, 13, 65, 76
15, 153459, Note_on_c, 13, 67, 0
15, 153459, Note_on_c, 13, 65, 0
15, 153480, Note_on_c, 13, 65, 76
15, 153480, Note_on_c, 13, 67, 76
15, 153579, Note_on_c, 13, 65, 0
15, 153579, Note_on_c, 13, 67, 0
15, 153600, Note_on_c, 13, 67, 76
15, 153600, Note_on_c, 13, 64, 76
15, 153839, Note_on_c, 13, 67, 0
15, 153839, Note_on_c, 13, 64, 0
15, 153960, Note_on_c, 13, 67, 76
15, 153960, Note_on_c, 13, 55, 76
15, 154059, Note_on_c, 13, 67, 0
15, 154059, Note_on_c, 13, 55, 0
15, 154080, Note_on_c, 13, 67, 76
15, 154080, Note_on_c, 13, 55, 76
15, 154179, Note_on_c, 13, 67, 0
15, 154179, Note_on_c, 13, 55, 0
15, 154200, Note_on_c, 13, 65, 76
15, 154200, Note_on_c, 13, 53, 76
15, 154299, Note_on_c, 13, 65, 0
15, 154299, Note_on_c, 13, 53, 0
15, 154320, Note_on_c, 13, 52, 76
15, 154320, Note_on_c, 13, 64, 76
15, 154559, Note_on_c, 13, 52, 0
15, 154559, Note_on_c, 13, 64, 0
15, 154680, Note_on_c, 13, 67, 76
15, 154680, Note_on_c, 13, 55, 76
15, 154779, Note_on_c, 13, 67, 0
15, 154779, Note_on_c, 13, 55, 0
15, 154800, Note_on_c, 13, 67, 76
15, 154800, Note_on_c, 13, 55, 76
15, 154899, Note_on_c, 13, 67, 0
15, 154899, Note_on_c, 13, 55, 0
15, 154920, Note_on_c, 13, 53, 76
15, 154920, Note_on_c, 13, 65, 76
15, 155019, Note_on_c, 13, 53, 0
15, 155019, Note_on_c, 13, 65, 0
15, 155040, Note_on_c, 13, 64, 76
15, 155040, Note_on_c, 13, 52, 76
15, 155279, Note_on_c, 13, 64, 0
15, 155279, Note_on_c, 13, 52, 0
15, 155400, Note_on_c, 13, 55, 84
15, 155499, Note_on_c, 13, 55, 0
15, 155520, Note_on_c, 13, 57, 84
15, 155619, Note_on_c, 13, 57, 0
15, 155640, Note_on_c, 13, 59, 84
15, 155739, Note_on_c, 13, 59, 0
15, 155760, Note_on_c, 13, 60, 84
15, 155999, Note_on_c, 13, 60, 0
15, 162000, Note_on_c, 13, 60, 52
15, 162219, Note_on_c, 13, 60, 0
15, 162240, Note_on_c, 13, 59, 52
15, 162339, Note_on_c, 13, 59, 0
15, 162360, Note_on_c, 13, 60, 52
15, 162459, Note_on_c, 13, 60, 0
15, 162480, Note_on_c, 13, 62, 52
15, 162579, Note_on_c, 13, 62, 0
15, 162600, Note_on_c, 13, 55, 52
15, 162699, Note_on_c, 13, 55, 0
15, 162720, Note_on_c, 13, 57, 52
15, 162819, Note_on_c, 13, 57, 0
15, 162840, Note_on_c, 13, 59, 52
15, 162939, Note_on_c, 13, 59, 0
15, 162960, Note_on_c, 13, 60, 52
15, 163059, Note_on_c, 13, 60, 0
15, 163080, Note_on_c, 13, 59, 52
15, 163179, Note_on_c, 13, 59, 0
15, 163200, Note_on_c, 13, 60, 52
15, 163299, Note_on_c, 13, 60, 0
15, 163320, Note_on_c, 13, 62, 52
15, 163419, Note_on_c, 13, 62, 0
15, 163440, Note_on_c, 13, 64, 52
15, 163539, Note_on_c, 13, 64, 0
15, 163560, Note_on_c, 13, 65, 52
15, 163659, Note_on_c, 13, 65, 0
15, 163680, Note_on_c, 13, 67, 52
15, 164139, Note_on_c, 13, 67, 0
15, 164160, Note_on_c, 13, 65, 52
15, 164379, Note_on_c, 13, 65, 0
15, 164400, Note_on_c, 13, 64, 52
15, 164619, Note_on_c, 13, 64, 0
15, 164640, Note_on_c, 13, 60, 52
15, 164859, Note_on_c, 13, 60, 0
15, 164880, Note_on_c, 13, 72, 52
15, 165339, Note_on_c, 13, 72, 0
15, 165360, Note_on_c, 13, 60, 51
15, 165579, Note_on_c, 13, 60, 0
15, 165600, Note_on_c, 13, 70, 50
15, 166059, Note_on_c, 13, 70, 0
15, 166080, Note_on_c, 13, 60, 49
15, 166299, Note_on_c, 13, 60, 0
15, 166320, Note_on_c, 13, 69, 48
15, 166779, Note_on_c, 13, 69, 0
15, 166800, Note_on_c, 13, 60, 47
15, 167019, Note_on_c, 13, 60, 0
15, 167040, Note_on_c, 13, 67, 46
15, 167259, Note_on_c, 13, 67, 0
15, 167280, Note_on_c, 13, 65, 46
15, 167499, Note_on_c, 13, 65, 0
15, 167520, Note_on_c, 13, 69, 45
15, 167759, Note_on_c, 13, 69, 0
15, 193920, Program_c, 13, 45
15, 194640, Note_on_c, 13, 62, 48
15, 194879, Note_on_c, 13, 62, 0
15, 195120, Note_on_c, 13, 55, 48
15, 195359, Note_on_c, 13, 55, 0
15, 195360, Note_on_c, 13, 55, 48
15, 195599, Note_on_c, 13, 55, 0
15, 195840, Note_on_c, 13, 55, 48
15, 196079, Note_on_c, 13, 55, 0
15, 196080, Note_on_c, 13, 55, 48
15, 196319, Note_on_c, 13, 55, 0
15, 196560, Note_on_c, 13, 57, 48
15, 196799, Note_on_c, 13, 57, 0
15, 196800, Note_on_c, 13, 50, 48
15, 197039, Note_on_c, 13, 50, 0
15, 197520, Note_on_c, 13, 69, 44
15, 197759, Note_on_c, 13, 69, 0
15, 198240, Note_on_c, 13, 60, 44
15, 198479, Note_on_c, 13, 60, 0
15, 198960, Note_on_c, 13, 62, 44
15, 199199, Note_on_c, 13, 62, 0
15, 199680, Note_on_c, 13, 63, 44
15, 199919, Note_on_c, 13, 63, 0
15, 200160, Program_c, 13, 48
15, 200320, Note_on_c, 13, 50, 44
15, 200359, Note_on_c, 13, 50, 0
15, 200360, Note_on_c, 13, 53, 44
15, 200399, Note_on_c, 13, 53, 0
15, 200400, Note_on_c, 13, 55, 44
15, 200639, Note_on_c, 13, 55, 0
15, 201040, Note_on_c, 13, 48, 44
15, 201079, Note_on_c, 13, 48, 0
15, 201080, Note_on_c, 13, 51, 44
15, 201119, Note_on_c, 13, 51, 0
15, 201120, Note_on_c, 13, 55, 44
15, 201359, Note_on_c, 13, 55, 0
15, 201760, Note_on_c, 13, 48, 44
15, 201799, Note_on_c, 13, 48, 0
15, 201800, Note_on_c, 13, 53, 44
15, 201839, Note_on_c, 13, 53, 0
15, 201840, Note_on_c, 13, 56, 44
15, 202079, Note_on_c, 13, 56, 0
15, 202480, Note_on_c, 13, 50, 44
15, 202519, Note_on_c, 13, 50, 0
15, 202520, Note_on_c, 13, 53, 44
15, 202559, Note_on_c, 13, 53, 0
15, 202560, Note_on_c, 13, 58, 44
15, 202799, Note_on_c, 13, 58, 0
15, 203040, Program_c, 13, 45
15, 203280, Note_on_c, 13, 64, 44
15, 203519, Note_on_c, 13, 64, 0
15, 204000, Note_on_c, 13, 65, 44
15, 204239, Note_on_c, 13, 65, 0
15, 204720, Note_on_c, 13, 64, 44
15, 204959, Note_on_c, 13, 64, 0
15, 205440, Note_on_c, 13, 65, 44
15, 205679, Note_on_c, 13, 65, 0
15, 205920, Program_c, 13, 48
15, 206080, Note_on_c, 13, 52, 44
15, 206119, Note_on_c, 13, 52, 0
15, 206120, Note_on_c, 13, 55, 44
15, 206159, Note_on_c, 13, 55, 0
15, 206160, Note_on_c, 13, 60, 44
15, 206399, Note_on_c, 13, 60, 0
15, 206800, Note_on_c, 13, 53, 44
15, 206839, Note_on_c, 13, 53, 0
15, 206840, Note_on_c, 13, 56, 44
15, 206879, Note_on_c, 13, 56, 0
15, 206880, Note_on_c, 13, 60, 44
15, 207119, Note_on_c, 13, 60, 0
15, 207520, Note_on_c, 13, 53, 44
15, 207559, Note_on_c, 13, 53, 0
15, 207560, Note_on_c, 13, 58, 44
15, 207599, Note_on_c, 13, 58, 0
15, 207600, Note_on_c, 13, 61, 44
15, 207839, Note_on_c, 13, 61, 0
15, 208240, Note_on_c, 13, 51, 44
15, 208279, Note_on_c, 13, 51, 0
15, 208280, Note_on_c, 13, 55, 44
15, 208319, Note_on_c, 13, 55, 0
15, 208320, Note_on_c, 13, 58, 44
15, 208559, Note_on_c, 13, 58, 0
15, 208960, Note_on_c, 13, 51, 44
15, 208999, Note_on_c, 13, 51, 0
15, 209000, Note_on_c, 13, 56, 44
15, 209039, Note_on_c, 13, 56, 0
15, 209040, Note_on_c, 13, 60, 44
15, 209279, Note_on_c, 13, 60, 0
15, 209680, Note_on_c, 13, 49, 44
15, 209719, Note_on_c, 13, 49, 0
15, 209720, Note_on_c, 13, 53, 44
15, 209759, Note_on_c, 13, 53, 0
15, 209760, Note_on_c, 13, 56, 44
15, 209999, Note_on_c, 13, 56, 0
15, 210400, Note_on_c, 13, 49, 44
15, 210439, Note_on_c, 13, 49, 0
15, 210440, Note_on_c, 13, 55, 44
15, 210479, Note_on_c, 13, 55, 0
15, 210480, Note_on_c, 13, 58, 44
15, 210719, Note_on_c, 13, 58, 0
15, 211120, Note_on_c, 13, 48, 44
15, 211159, Note_on_c, 13, 48, 0
15, 211160, Note_on_c, 13, 52, 44
15, 211199, Note_on_c, 13, 52, 0
15, 211200, Note_on_c, 13, 55, 44
15, 211439, Note_on_c, 13, 55, 0
15, 212400, Note_on_c, 13, 48, 44
15, 212539, Note_on_c, 13, 48, 0
15, 212560, Note_on_c, 13, 48, 44
15, 212599, Note_on_c, 13, 48, 0
15, 212600, Note_on_c, 13, 52, 44
15, 212639, Note_on_c, 13, 52, 0
15, 212640, Note_on_c, 13, 55, 44
15, 212879, Note_on_c, 13, 55, 0
15, 213840, Note_on_c, 13, 48, 44
15, 213979, Note_on_c, 13, 48, 0
15, 214000, Note_on_c, 13, 48, 44
15, 214039, Note_on_c, 13, 48, 0
15, 214040, Note_on_c, 13, 52, 44
15, 214079, Note_on_c, 13, 52, 0
15, 214080, Note_on_c, 13, 55, 44
15, 214319, Note_on_c, 13, 55, 0
15, 214720, Note_on_c, 13, 48, 44
15, 214759, Note_on_c, 13, 48, 0
15, 214760, Note_on_c, 13, 52, 44
15, 214799, Note_on_c, 13, 52, 0
15, 214800, Note_on_c, 13, 55, 44
15, 215039, Note_on_c, 13, 55, 0
15, 215440, Note_on_c, 13, 48, 44
15, 215479, Note_on_c, 13, 48, 0
15, 215480, Note_on_c, 13, 52, 44
15, 215519, Note_on_c, 13, 52, 0
15, 215520, Note_on_c, 13, 55, 44
15, 215759, Note_on_c, 13, 55, 0
15, 219040, Note_on_c, 13, 55, 44
15, 219079, Note_on_c, 13, 55, 0
15, 219080, Note_on_c, 13, 59, 44
15, 219119, Note_on_c, 13, 59, 0
15, 219120, Note_on_c, 13, 62, 44
15, 219359, Note_on_c, 13, 62, 0
15, 219760, Note_on_c, 13, 55, 44
15, 219799, Note_on_c, 13, 55, 0
15, 219800, Note_on_c, 13, 60, 44
15, 219839, Note_on_c, 13, 60, 0
15, 219840, Note_on_c, 13, 63, 44
15, 220079, Note_on_c, 13, 63, 0
15, 220480, Note_on_c, 13, 55, 44
15, 220519, Note_on_c, 13, 55, 0
15, 220520, Note_on_c, 13, 60, 44
15, 220559, Note_on_c, 13, 60, 0
15, 220560, Note_on_c, 13, 63, 44
15, 220799, Note_on_c, 13, 63, 0
15, 221200, Note_on_c, 13, 55, 44
15, 221239, Note_on_c, 13, 55, 0
15, 221240, Note_on_c, 13, 59, 44
15, 221279, Note_on_c, 13, 59, 0
15, 221280, Note_on_c, 13, 62, 44
15, 221519, Note_on_c, 13, 62, 0
15, 221920, Note_on_c, 13, 55, 44
15, 221959, Note_on_c, 13, 55, 0
15, 221960, Note_on_c, 13, 62, 44
15, 221999, Note_on_c, 13, 62, 0
15, 222000, Note_on_c, 13, 65, 44
15, 222239, Note_on_c, 13, 65, 0
15, 222640, Note_on_c, 13, 55, 44
15, 222679, Note_on_c, 13, 55, 0
15, 222680, Note_on_c, 13, 60, 44
15, 222719, Note_on_c, 13, 60, 0
15, 222720, Note_on_c, 13, 63, 44
15, 222959, Note_on_c, 13, 63, 0
15, 223360, Note_on_c, 13, 55, 44
15, 223399, Note_on_c, 13, 55, 0
15, 223400, Note_on_c, 13, 57, 44
15, 223439, Note_on_c, 13, 57, 0
15, 223440, Note_on_c, 13, 60, 44
15, 223679, Note_on_c, 13, 60, 0
15, 223840, Note_on_c, 13, 55, 44
15, 223879, Note_on_c, 13, 55, 0
15, 223880, Note_on_c, 13, 59, 44
15, 223919, Note_on_c, 13, 59, 0
15, 223920, Note_on_c, 13, 62, 44
15, 224059, Note_on_c, 13, 62, 0
15, 224080, Note_on_c, 13, 55, 44
15, 224119, Note_on_c, 13, 55, 0
15, 224120, Note_on_c, 13, 60, 44
15, 224159, Note_on_c, 13, 60, 0
15, 224160, Note_on_c, 13, 63, 44
15, 224399, Note_on_c, 13, 63, 0
15, 224800, Note_on_c, 13, 55, 44
15, 224839, Note_on_c, 13, 55, 0
15, 224840, Note_on_c, 13, 60, 44
15, 224879, Note_on_c, 13, 60, 0
15, 224880, Note_on_c, 13, 63, 44
15, 225119, Note_on_c, 13, 63, 0
15, 225520, Note_on_c, 13, 55, 44
15, 225559, Note_on_c, 13, 55, 0
15, 225560, Note_on_c, 13, 62, 44
15, 225599, Note_on_c, 13, 62, 0
15, 225600, Note_on_c, 13, 65, 44
15, 225839, Note_on_c, 13, 65, 0
15, 226240, Note_on_c, 13, 55, 44
15, 226279, Note_on_c, 13, 55, 0
15, 226280, Note_on_c, 13, 65, 44
15, 226319, Note_on_c, 13, 65, 0
15, 226320, Note_on_c, 13, 68, 44
15, 226559, Note_on_c, 13, 68, 0
15, 226960, Note_on_c, 13, 55, 44
15, 226999, Note_on_c, 13, 55, 0
15, 227000, Note_on_c, 13, 62, 44
15, 227039, Note_on_c, 13, 62, 0
15, 227040, Note_on_c, 13, 65, 44
15, 227279, Note_on_c, 13, 65, 0
15, 227680, Note_on_c, 13, 55, 44
15, 227719, Note_on_c, 13, 55, 0
15, 227720, Note_on_c, 13, 65, 44
15, 227759, Note_on_c, 13, 65, 0
15, 227760, Note_on_c, 13, 68, 44
15, 227999, Note_on_c, 13, 68, 0
15, 228400, Note_on_c, 13, 55, 44
15, 228439, Note_on_c, 13, 55, 0
15, 228440, Note_on_c, 13, 62, 44
15, 228479, Note_on_c, 13, 62, 0
15, 228480, Note_on_c, 13, 65, 44
15, 228719, Note_on_c, 13, 65, 0
15, 229120, Note_on_c, 13, 55, 44
15, 229159, Note_on_c, 13, 55, 0
15, 229160, Note_on_c, 13, 62, 44
15, 229199, Note_on_c, 13, 62, 0
15, 229200, Note_on_c, 13, 65, 44
15, 229439, Note_on_c, 13, 65, 0
15, 229840, Note_on_c, 13, 55, 44
15, 229879, Note_on_c, 13, 55, 0
15, 229880, Note_on_c, 13, 60, 44
15, 229919, Note_on_c, 13, 60, 0
15, 229920, Note_on_c, 13, 63, 44
15, 230159, Note_on_c, 13, 63, 0
15, 230560, Note_on_c, 13, 55, 44
15, 230599, Note_on_c, 13, 55, 0
15, 230600, Note_on_c, 13, 62, 44
15, 230639, Note_on_c, 13, 62, 0
15, 230640, Note_on_c, 13, 65, 44
15, 230879, Note_on_c, 13, 65, 0
15, 231280, Note_on_c, 13, 55, 44
15, 231319, Note_on_c, 13, 55, 0
15, 231320, Note_on_c, 13, 60, 44
15, 231359, Note_on_c, 13, 60, 0
15, 231360, Note_on_c, 13, 63, 44
15, 231599, Note_on_c, 13, 63, 0
15, 232000, Note_on_c, 13, 55, 44
15, 232039, Note_on_c, 13, 55, 0
15, 232040, Note_on_c, 13, 62, 44
15, 232079, Note_on_c, 13, 62, 0
15, 232080, Note_on_c, 13, 65, 44
15, 232319, Note_on_c, 13, 65, 0
15, 232720, Note_on_c, 13, 55, 44
15, 232759, Note_on_c, 13, 55, 0
15, 232760, Note_on_c, 13, 60, 44
15, 232799, Note_on_c, 13, 60, 0
15, 232800, Note_on_c, 13, 63, 44
15, 233039, Note_on_c, 13, 63, 0
15, 233440, Note_on_c, 13, 55, 44
15, 233479, Note_on_c, 13, 55, 0
15, 233480, Note_on_c, 13, 62, 44
15, 233519, Note_on_c, 13, 62, 0
15, 233520, Note_on_c, 13, 65, 44
15, 233759, Note_on_c, 13, 65, 0
15, 234160, Note_on_c, 13, 55, 44
15, 234199, Note_on_c, 13, 55, 0
15, 234200, Note_on_c, 13, 60, 44
15, 234239, Note_on_c, 13, 60, 0
15, 234240, Note_on_c, 13, 63, 44
15, 234479, Note_on_c, 13, 63, 0
15, 234880, Note_on_c, 13, 55, 44
15, 234919, Note_on_c, 13, 55, 0
15, 234920, Note_on_c, 13, 62, 44
15, 234959, Note_on_c, 13, 62, 0
15, 234960, Note_on_c, 13, 65, 44
15, 235199, Note_on_c, 13, 65, 0
15, 235600, Note_on_c, 13, 55, 44
15, 235639, Note_on_c, 13, 55, 0
15, 235640, Note_on_c, 13, 60, 44
15, 235679, Note_on_c, 13, 60, 0
15, 235680, Note_on_c, 13, 63, 44
15, 235919, Note_on_c, 13, 63, 0
15, 236320, Note_on_c, 13, 56, 44
15, 236359, Note_on_c, 13, 56, 0
15, 236360, Note_on_c, 13, 60, 44
15, 236399, Note_on_c, 13, 60, 0
15, 236400, Note_on_c, 13, 65, 44
15, 236639, Note_on_c, 13, 65, 0
15, 237040, Note_on_c, 13, 50, 44
15, 237079, Note_on_c, 13, 50, 0
15, 237080, Note_on_c, 13, 55, 44
15, 237119, Note_on_c, 13, 55, 0
15, 237120, Note_on_c, 13, 59, 44
15, 237359, Note_on_c, 13, 59, 0
15, 237760, Note_on_c, 13, 51, 44
15, 237799, Note_on_c, 13, 51, 0
15, 237800, Note_on_c, 13, 55, 44
15, 237839, Note_on_c, 13, 55, 0
15, 237840, Note_on_c, 13, 60, 44
15, 238079, Note_on_c, 13, 60, 0
15, 238480, Note_on_c, 13, 48, 44
15, 238519, Note_on_c, 13, 48, 0
15, 238520, Note_on_c, 13, 51, 44
15, 238559, Note_on_c, 13, 51, 0
15, 238560, Note_on_c, 13, 55, 44
15, 238799, Note_on_c, 13, 55, 0
15, 239200, Note_on_c, 13, 48, 44
15, 239239, Note_on_c, 13, 48, 0
15, 239240, Note_on_c, 13, 53, 44
15, 239279, Note_on_c, 13, 53, 0
15, 239280, Note_on_c, 13, 56, 44
15, 239519, Note_on_c, 13, 56, 0
15, 239920, Note_on_c, 13, 48, 44
15, 239959, Note_on_c, 13, 48, 0
15, 239960, Note_on_c, 13, 53, 44
15, 239999, Note_on_c, 13, 53, 0
15, 240000, Note_on_c, 13, 56, 44
15, 240239, Note_on_c, 13, 56, 0
15, 240478, Program_c, 13, 45
15, 240480, Note_on_c, 13, 54, 44
15, 240719, Note_on_c, 13, 54, 0
15, 240720, Note_on_c, 13, 55, 44
15, 240959, Note_on_c, 13, 55, 0
15, 240960, Note_on_c, 13, 55, 44
15, 240960, Note_on_c, 13, 67, 44
15, 241199, Note_on_c, 13, 55, 0
15, 241199, Note_on_c, 13, 67, 0
15, 241200, Note_on_c, 13, 55, 44
15, 241200, Note_on_c, 13, 65, 44
15, 241439, Note_on_c, 13, 55, 0
15, 241439, Note_on_c, 13, 65, 0
15, 241440, Note_on_c, 13, 63, 44
15, 241440, Note_on_c, 13, 55, 44
15, 241679, Note_on_c, 13, 63, 0
15, 241679, Note_on_c, 13, 55, 0
15, 241920, Program_c, 13, 48
15, 242080, Note_on_c, 13, 50, 44
15, 242119, Note_on_c, 13, 50, 0
15, 242120, Note_on_c, 13, 53, 44
15, 242159, Note_on_c, 13, 53, 0
15, 242160, Note_on_c, 13, 55, 44
15, 242399, Note_on_c, 13, 55, 0
15, 242800, Note_on_c, 13, 48, 44
15, 242839, Note_on_c, 13, 48, 0
15, 242840, Note_on_c, 13, 51, 44
15, 242879, Note_on_c, 13, 51, 0
15, 242880, Note_on_c, 13, 55, 44
15, 243119, Note_on_c, 13, 55, 0
15, 243520, Note_on_c, 13, 50, 44
15, 243559, Note_on_c, 13, 50, 0
15, 243560, Note_on_c, 13, 53, 44
15, 243599, Note_on_c, 13, 53, 0
15, 243600, Note_on_c, 13, 59, 44
15, 243839, Note_on_c, 13, 59, 0
15, 244240, Note_on_c, 13, 51, 44
15, 244279, Note_on_c, 13, 51, 0
15, 244280, Note_on_c, 13, 55, 44
15, 244319, Note_on_c, 13, 55, 0
15, 244320, Note_on_c, 13, 60, 44
15, 244559, Note_on_c, 13, 60, 0
15, 244960, Note_on_c, 13, 55, 44
15, 244999, Note_on_c, 13, 55, 0
15, 245000, Note_on_c, 13, 58, 44
15, 245039, Note_on_c, 13, 58, 0
15, 245040, Note_on_c, 13, 60, 44
15, 245279, Note_on_c, 13, 60, 0
15, 245680, Note_on_c, 13, 53, 44
15, 245719, Note_on_c, 13, 53, 0
15, 245720, Note_on_c, 13, 56, 44
15, 245759, Note_on_c, 13, 56, 0
15, 245760, Note_on_c, 13, 60, 44
15, 245999, Note_on_c, 13, 60, 0
15, 246400, Note_on_c, 13, 50, 44
15, 246439, Note_on_c, 13, 50, 0
15, 246440, Note_on_c, 13, 55, 44
15, 246479, Note_on_c, 13, 55, 0
15, 246480, Note_on_c, 13, 59, 44
15, 246719, Note_on_c, 13, 59, 0
15, 247200, Note_on_c, 13, 48, 40
15, 248639, Note_on_c, 13, 48, 0
15, 248640, Note_on_c, 13, 48, 40
15, 250079, Note_on_c, 13, 48, 0
15, 250080, Note_on_c, 13, 48, 40
15, 251519, Note_on_c, 13, 48, 0
15, 251520, Note_on_c, 13, 48, 40
15, 252959, Note_on_c, 13, 48, 0
15, 252960, Note_on_c, 13, 48, 40
15, 254399, Note_on_c, 13, 48, 0
15, 254400, Note_on_c, 13, 48, 40
15, 255839, Note_on_c, 13, 48, 0
15, 255840, Note_on_c, 13, 48, 44
15, 257279, Note_on_c, 13, 48, 0
15, 257280, Note_on_c, 13, 48, 44
15, 258719, Note_on_c, 13, 48, 0
15, 258720, Note_on_c, 13, 48, 44
15, 260159, Note_on_c, 13, 48, 0
15, 260160, Note_on_c, 13, 48, 44
15, 261599, Note_on_c, 13, 48, 0
15, 261600, Note_on_c, 13, 48, 44
15, 263039, Note_on_c, 13, 48, 0
15, 263040, Note_on_c, 13, 48, 44
15, 264479, Note_on_c, 13, 48, 0
15, 264480, Note_on_c, 13, 48, 44
15, 265919, Note_on_c, 13, 48, 0
15, 265920, Note_on_c, 13, 48, 44
15, 267359, Note_on_c, 13, 48, 0
15, 267360, Note_on_c, 13, 48, 44
15, 268799, Note_on_c, 13, 48, 0
15, 268800, Note_on_c, 13, 48, 44
15, 270239, Note_on_c, 13, 48, 0
15, 270240, Note_on_c, 13, 48, 44
15, 271679, Note_on_c, 13, 48, 0
15, 271680, Note_on_c, 13, 48, 44
15, 273119, Note_on_c, 13, 48, 0
15, 273120, Note_on_c, 13, 48, 44
15, 274559, Note_on_c, 13, 48, 0
15, 274560, Note_on_c, 13, 48, 44
15, 275999, Note_on_c, 13, 48, 0
15, 276000, Note_on_c, 13, 48, 44
15, 277431, Note_on_c, 13, 48, 0
15, 277438, Control_c, 13, 11, 48
15, 277440, Note_on_c, 13, 48, 84
15, 277440, Control_c, 13, 11, 48
15, 277536, Control_c, 13, 11, 49
15, 277632, Control_c, 13, 11, 51
15, 277728, Control_c, 13, 11, 52
15, 277824, Control_c, 13, 11, 53
15, 277920, Control_c, 13, 11, 55
15, 278016, Control_c, 13, 11, 56
15, 278112, Control_c, 13, 11, 57
15, 278139, Note_on_c, 13, 48, 0
15, 278160, Note_on_c, 13, 60, 84
15, 278208, Control_c, 13, 11, 59
15, 278259, Note_on_c, 13, 60, 0
15, 278280, Note_on_c, 13, 60, 84
15, 278304, Control_c, 13, 11, 60
15, 278379, Note_on_c, 13, 60, 0
15, 278400, Control_c, 13, 11, 61
15, 278400, Note_on_c, 13, 60, 84
15, 278496, Control_c, 13, 11, 62
15, 278499, Note_on_c, 13, 60, 0
15, 278520, Note_on_c, 13, 60, 84
15, 278592, Control_c, 13, 11, 64
15, 278619, Note_on_c, 13, 60, 0
15, 278640, Note_on_c, 13, 60, 84
15, 278688, Control_c, 13, 11, 65
15, 278739, Note_on_c, 13, 60, 0
15, 278760, Note_on_c, 13, 60, 84
15, 278784, Control_c, 13, 11, 66
15, 278859, Note_on_c, 13, 60, 0
15, 278880, Control_c, 13, 11, 68
15, 278880, Note_on_c, 13, 60, 84
15, 278976, Control_c, 13, 11, 69
15, 278979, Note_on_c, 13, 60, 0
15, 279000, Note_on_c, 13, 60, 84
15, 279072, Control_c, 13, 11, 70
15, 279099, Note_on_c, 13, 60, 0
15, 279120, Note_on_c, 13, 60, 84
15, 279168, Control_c, 13, 11, 72
15, 279219, Note_on_c, 13, 60, 0
15, 279240, Note_on_c, 13, 60, 84
15, 279264, Control_c, 13, 11, 73
15, 279339, Note_on_c, 13, 60, 0
15, 279360, Control_c, 13, 11, 74
15, 279360, Note_on_c, 13, 60, 84
15, 279456, Control_c, 13, 11, 76
15, 279459, Note_on_c, 13, 60, 0
15, 279480, Note_on_c, 13, 60, 84
15, 279552, Control_c, 13, 11, 77
15, 279579, Note_on_c, 13, 60, 0
15, 279600, Note_on_c, 13, 60, 84
15, 279648, Control_c, 13, 11, 78
15, 279699, Note_on_c, 13, 60, 0
15, 279720, Note_on_c, 13, 60, 84
15, 279744, Control_c, 13, 11, 80
15, 279819, Note_on_c, 13, 60, 0
15, 279840, Control_c, 13, 11, 81
15, 279840, Note_on_c, 13, 60, 84
15, 279936, Control_c, 13, 11, 82
15, 279939, Note_on_c, 13, 60, 0
15, 279960, Note_on_c, 13, 60, 84
15, 280032, Control_c, 13, 11, 84
15, 280059, Note_on_c, 13, 60, 0
15, 280080, Note_on_c, 13, 60, 84
15, 280128, Control_c, 13, 11, 85
15, 280179, Note_on_c, 13, 60, 0
15, 280200, Note_on_c, 13, 60, 84
15, 280224, Control_c, 13, 11, 86
15, 280299, Note_on_c, 13, 60, 0
15, 280320, Control_c, 13, 11, 88
15, 280320, Note_on_c, 13, 62, 84
15, 280416, Control_c, 13, 11, 89
15, 280419, Note_on_c, 13, 62, 0
15, 280440, Note_on_c, 13, 62, 84
15, 280512, Control_c, 13, 11, 90
15, 280539, Note_on_c, 13, 62, 0
15, 280560, Note_on_c, 13, 62, 84
15, 280608, Control_c, 13, 11, 91
15, 280659, Note_on_c, 13, 62, 0
15, 280680, Note_on_c, 13, 62, 84
15, 280704, Control_c, 13, 11, 93
15, 280779, Note_on_c, 13, 62, 0
15, 280800, Control_c, 13, 11, 94
15, 280800, Note_on_c, 13, 62, 84
15, 280896, Control_c, 13, 11, 95
15, 280899, Note_on_c, 13, 62, 0
15, 280920, Note_on_c, 13, 62, 84
15, 280992, Control_c, 13, 11, 97
15, 281019, Note_on_c, 13, 62, 0
15, 281040, Note_on_c, 13, 62, 84
15, 281088, Control_c, 13, 11, 98
15, 281139, Note_on_c, 13, 62, 0
15, 281160, Note_on_c, 13, 62, 84
15, 281184, Control_c, 13, 11, 99
15, 281259, Note_on_c, 13, 62, 0
15, 281280, Note_on_c, 13, 62, 84
15, 281280, Control_c, 13, 11, 101
15, 281376, Control_c, 13, 11, 102
15, 281379, Note_on_c, 13, 62, 0
15, 281400, Note_on_c, 13, 62, 84
15, 281472, Control_c, 13, 11, 103
15, 281499, Note_on_c, 13, 62, 0
15, 281520, Note_on_c, 13, 62, 84
15, 281568, Control_c, 13, 11, 105
15, 281619, Note_on_c, 13, 62, 0
15, 281640, Note_on_c, 13, 62, 84
15, 281664, Control_c, 13, 11, 106
15, 281739, Note_on_c, 13, 62, 0
15, 281760, Note_on_c, 13, 62, 84
15, 281760, Control_c, 13, 11, 107
15, 281856, Control_c, 13, 11, 109
15, 281859, Note_on_c, 13, 62, 0
15, 281880, Note_on_c, 13, 62, 84
15, 281952, Control_c, 13, 11, 110
15, 281979, Note_on_c, 13, 62, 0
15, 282000, Note_on_c, 13, 62, 84
15, 282048, Control_c, 13, 11, 111
15, 282099, Note_on_c, 13, 62, 0
15, 282120, Note_on_c, 13, 62, 84
15, 282144, Control_c, 13, 11, 113
15, 282219, Note_on_c, 13, 62, 0
15, 282240, Control_c, 13, 11, 114
15, 282240, Note_on_c, 13, 62, 84
15, 282336, Control_c, 13, 11, 115
15, 282339, Note_on_c, 13, 62, 0
15, 282360, Note_on_c, 13, 62, 84
15, 282432, Control_c, 13, 11, 116
15, 282459, Note_on_c, 13, 62, 0
15, 282480, Note_on_c, 13, 62, 84
15, 282528, Control_c, 13, 11, 118
15, 282579, Note_on_c, 13, 62, 0
15, 282600, Note_on_c, 13, 62, 84
15, 282624, Control_c, 13, 11, 119
15, 282699, Note_on_c, 13, 62, 0
15, 282720, Control_c, 13, 11, 120
15, 282720, Note_on_c, 13, 62, 84
15, 282816, Control_c, 13, 11, 122
15, 282819, Note_on_c, 13, 62, 0
15, 282840, Note_on_c, 13, 62, 84
15, 282912, Control_c, 13, 11, 123
15, 282939, Note_on_c, 13, 62, 0
15, 282960, Note_on_c, 13, 62, 84
15, 283008, Control_c, 13, 11, 124
15, 283059, Note_on_c, 13, 62, 0
15, 283080, Note_on_c, 13, 62, 84
15, 283104, Control_c, 13, 11, 127
15, 283179, Note_on_c, 13, 62, 0
15, 283179, End_track
16, 0, Start_track
16, 0, Title_t, "Cello"
16, 0, MIDI_port, 0
16, 0, Program_c, 14, 48
16, 0, Control_c, 14, 7, 96
16, 0, Control_c, 14, 10, 90
16, 0, Control_c, 14, 11, 127
16, 0, Note_on_c, 14, 43, 44
16, 239, Note_on_c, 14, 43, 0
16, 240, Note_on_c, 14, 48, 44
16, 479, Note_on_c, 14, 48, 0
16, 480, Note_on_c, 14, 51, 44
16, 719, Note_on_c, 14, 51, 0
16, 720, Note_on_c, 14, 55, 44
16, 959, Note_on_c, 14, 55, 0
16, 960, Note_on_c, 14, 60, 44
16, 1439, Note_on_c, 14, 60, 0
16, 1440, Note_on_c, 14, 63, 44
16, 1679, Note_on_c, 14, 63, 0
16, 1680, Note_on_c, 14, 62, 44
16, 2159, Note_on_c, 14, 62, 0
16, 2160, Note_on_c, 14, 54, 44
16, 2379, Note_on_c, 14, 54, 0
16, 2400, Note_on_c, 14, 55, 44
16, 3819, Note_on_c, 14, 55, 0
16, 3840, Note_on_c, 14, 48, 44
16, 5259, Note_on_c, 14, 48, 0
16, 5280, Note_on_c, 14, 43, 44
16, 5719, Note_on_c, 14, 43, 0
16, 5760, Note_on_c, 14, 43, 44
16, 5999, Note_on_c, 14, 43, 0
16, 6000, Note_on_c, 14, 48, 44
16, 6239, Note_on_c, 14, 48, 0
16, 6240, Note_on_c, 14, 51, 44
16, 6479, Note_on_c, 14, 51, 0
16, 6480, Note_on_c, 14, 55, 44
16, 6719, Note_on_c, 14, 55, 0
16, 6720, Note_on_c, 14, 60, 44
16, 7199, Note_on_c, 14, 60, 0
16, 7200, Note_on_c, 14, 63, 44
16, 7439, Note_on_c, 14, 63, 0
16, 7440, Note_on_c, 14, 62, 44
16, 7919, Note_on_c, 14, 62, 0
16, 7920, Note_on_c, 14, 54, 44
16, 8159, Note_on_c, 14, 54, 0
16, 8160, Note_on_c, 14, 55, 44
16, 8639, Note_on_c, 14, 55, 0
16, 8640, Note_on_c, 14, 49, 44
16, 8859, Note_on_c, 14, 49, 0
16, 8880, Note_on_c, 14, 50, 68
16, 8999, Note_on_c, 14, 50, 0
16, 9000, Note_on_c, 14, 50, 52
16, 10059, Note_on_c, 14, 50, 0
16, 10080, Note_on_c, 14, 48, 52
16, 10319, Note_on_c, 14, 48, 0
16, 10320, Note_on_c, 14, 47, 52
16, 10799, Note_on_c, 14, 47, 0
16, 10800, Note_on_c, 14, 43, 52
16, 11039, Note_on_c, 14, 43, 0
16, 11040, Note_on_c, 14, 48, 52
16, 11519, Note_on_c, 14, 48, 0
16, 11520, Note_on_c, 14, 47, 52
16, 11739, Note_on_c, 14, 47, 0
16, 11760, Note_on_c, 14, 48, 52
16, 12199, Note_on_c, 14, 48, 0
16, 12240, Note_on_c, 14, 42, 52
16, 12439, Note_on_c, 14, 42, 0
16, 12480, Note_on_c, 14, 43, 52
16, 13199, Note_on_c, 14, 43, 0
16, 13920, Note_on_c, 14, 48, 76
16, 14159, Note_on_c, 14, 48, 0
16, 14640, Note_on_c, 14, 50, 76
16, 14879, Note_on_c, 14, 50, 0
16, 15360, Note_on_c, 14, 51, 76
16, 15599, Note_on_c, 14, 51, 0
16, 16080, Note_on_c, 14, 47, 76
16, 16319, Note_on_c, 14, 47, 0
16, 16800, Note_on_c, 14, 48, 76
16, 17039, Note_on_c, 14, 48, 0
16, 17280, Note_on_c, 14, 46, 76
16, 17499, Note_on_c, 14, 46, 0
16, 17520, Note_on_c, 14, 44, 76
16, 17759, Note_on_c, 14, 44, 0
16, 18000, Note_on_c, 14, 44, 76
16, 18219, Note_on_c, 14, 44, 0
16, 18240, Note_on_c, 14, 46, 76
16, 18479, Note_on_c, 14, 46, 0
16, 18960, Note_on_c, 14, 46, 76
16, 19659, Note_on_c, 14, 46, 0
16, 19680, Note_on_c, 14, 51, 76
16, 20379, Note_on_c, 14, 51, 0
16, 20400, Note_on_c, 14, 53, 76
16, 21099, Note_on_c, 14, 53, 0
16, 21120, Note_on_c, 14, 54, 76
16, 21819, Note_on_c, 14, 54, 0
16, 21840, Note_on_c, 14, 50, 76
16, 22539, Note_on_c, 14, 50, 0
16, 22560, Note_on_c, 14, 51, 76
16, 23039, Note_on_c, 14, 51, 0
16, 23040, Note_on_c, 14, 49, 76
16, 23259, Note_on_c, 14, 49, 0
16, 23280, Note_on_c, 14, 47, 76
16, 23739, Note_on_c, 14, 47, 0
16, 23760, Note_on_c, 14, 47, 76
16, 23979, Note_on_c, 14, 47, 0
16, 24000, Note_on_c, 14, 49, 76
16, 24699, Note_on_c, 14, 49, 0
16, 24720, Note_on_c, 14, 42, 76
16, 25419, Note_on_c, 14, 42, 0
16, 25440, Note_on_c, 14, 47, 76
16, 25919, Note_on_c, 14, 47, 0
16, 25920, Note_on_c, 14, 46, 76
16, 26139, Note_on_c, 14, 46, 0
16, 26160, Note_on_c, 14, 44, 76
16, 26619, Note_on_c, 14, 44, 0
16, 26640, Note_on_c, 14, 44, 76
16, 26859, Note_on_c, 14, 44, 0
16, 26880, Note_on_c, 14, 46, 84
16, 26999, Note_on_c, 14, 46, 0
16, 27000, Note_on_c, 14, 46, 76
16, 28079, Note_on_c, 14, 46, 0
16, 28080, Note_on_c, 14, 39, 76
16, 28299, Note_on_c, 14, 39, 0
16, 28320, Note_on_c, 14, 46, 84
16, 28439, Note_on_c, 14, 46, 0
16, 28440, Note_on_c, 14, 46, 76
16, 29519, Note_on_c, 14, 46, 0
16, 29520, Note_on_c, 14, 39, 76
16, 29739, Note_on_c, 14, 39, 0
16, 29760, Note_on_c, 14, 46, 84
16, 29879, Note_on_c, 14, 46, 0
16, 29880, Note_on_c, 14, 46, 76
16, 30239, Note_on_c, 14, 46, 0
16, 30240, Note_on_c, 14, 39, 76
16, 30459, Note_on_c, 14, 39, 0
16, 30480, Note_on_c, 14, 46, 84
16, 30599, Note_on_c, 14, 46, 0
16, 30600, Note_on_c, 14, 46, 76
16, 30959, Note_on_c, 14, 46, 0
16, 30960, Note_on_c, 14, 39, 76
16, 31179, Note_on_c, 14, 39, 0
16, 31200, Control_c, 14, 11, 127
16, 31200, Note_on_c, 14, 46, 76
16, 31260, Control_c, 14, 11, 122
16, 31320, Control_c, 14, 11, 117
16, 31380, Control_c, 14, 11, 111
16, 31440, Control_c, 14, 11, 106
16, 31500, Control_c, 14, 11, 101
16, 31560, Control_c, 14, 11, 96
16, 31620, Control_c, 14, 11, 90
16, 31680, Control_c, 14, 11, 85
16, 31740, Control_c, 14, 11, 80
16, 31800, Control_c, 14, 11, 75
16, 31860, Control_c, 14, 11, 69
16, 31920, Control_c, 14, 11, 64
16, 32159, Note_on_c, 14, 46, 0
16, 32160, Note_on_c, 14, 49, 76
16, 32399, Note_on_c, 14, 49, 0
16, 32400, Note_on_c, 14, 53, 76
16, 32639, Note_on_c, 14, 53, 0
16, 32640, Note_on_c, 14, 58, 76
16, 33119, Note_on_c, 14, 58, 0
16, 33120, Note_on_c, 14, 61, 76
16, 33359, Note_on_c, 14, 61, 0
16, 33360, Note_on_c, 14, 60, 76
16, 33839, Note_on_c, 14, 60, 0
16, 33840, Note_on_c, 14, 52, 76
16, 34079, Note_on_c, 14, 52, 0
16, 34080, Note_on_c, 14, 53, 76
16, 35499, Note_on_c, 14, 53, 0
16, 35520, Note_on_c, 14, 46, 76
16, 36939, Note_on_c, 14, 46, 0
16, 36960, Note_on_c, 14, 41, 76
16, 37399, Note_on_c, 14, 41, 0
16, 37440, Note_on_c, 14, 41, 76
16, 37679, Note_on_c, 14, 41, 0
16, 37680, Note_on_c, 14, 46, 76
16, 37919, Note_on_c, 14, 46, 0
16, 37920, Note_on_c, 14, 49, 76
16, 38159, Note_on_c, 14, 49, 0
16, 38160, Note_on_c, 14, 53, 76
16, 38399, Note_on_c, 14, 53, 0
16, 38400, Note_on_c, 14, 58, 76
16, 38879, Note_on_c, 14, 58, 0
16, 38880, Note_on_c, 14, 61, 76
16, 39119, Note_on_c, 14, 61, 0
16, 39120, Note_on_c, 14, 60, 76
16, 39599, Note_on_c, 14, 60, 0
16, 39600, Note_on_c, 14, 52, 76
16, 39819, Note_on_c, 14, 52, 0
16, 39840, Note_on_c, 14, 53, 76
16, 40319, Note_on_c, 14, 53, 0
16, 40320, Note_on_c, 14, 68, 76
16, 40559, Note_on_c, 14, 68, 0
16, 40560, Note_on_c, 14, 67, 76
16, 41039, Note_on_c, 14, 67, 0
16, 41040, Note_on_c, 14, 59, 76
16, 41279, Note_on_c, 14, 59, 0
16, 41280, Note_on_c, 14, 60, 76
16, 41759, Note_on_c, 14, 60, 0
16, 41760, Note_on_c, 14, 63, 76
16, 41999, Note_on_c, 14, 63, 0
16, 42000, Note_on_c, 14, 62, 76
16, 42479, Note_on_c, 14, 62, 0
16, 42480, Note_on_c, 14, 54, 76
16, 42719, Note_on_c, 14, 54, 0
16, 42720, Note_on_c, 14, 55, 76
16, 43199, Note_on_c, 14, 55, 0
16, 43200, Note_on_c, 14, 49, 76
16, 43419, Note_on_c, 14, 49, 0
16, 43440, Note_on_c, 14, 50, 76
16, 44139, Note_on_c, 14, 50, 0
16, 44160, Note_on_c, 14, 55, 76
16, 44639, Note_on_c, 14, 55, 0
16, 44640, Note_on_c, 14, 49, 76
16, 44859, Note_on_c, 14, 49, 0
16, 44880, Note_on_c, 14, 50, 76
16, 45579, Note_on_c, 14, 50, 0
16, 45600, Note_on_c, 14, 55, 76
16, 45839, Note_on_c, 14, 55, 0
16, 45840, Note_on_c, 14, 49, 76
16, 46079, Note_on_c, 14, 49, 0
16, 46080, Note_on_c, 14, 50, 76
16, 46299, Note_on_c, 14, 50, 0
16, 46320, Note_on_c, 14, 55, 76
16, 46559, Note_on_c, 14, 55, 0
16, 46560, Note_on_c, 14, 49, 76
16, 46799, Note_on_c, 14, 49, 0
16, 46800, Note_on_c, 14, 50, 76
16, 47019, Note_on_c, 14, 50, 0
16, 47040, Note_on_c, 14, 55, 76
16, 47279, Note_on_c, 14, 55, 0
16, 47280, Note_on_c, 14, 49, 76
16, 47519, Note_on_c, 14, 49, 0
16, 47520, Note_on_c, 14, 50, 76
16, 47739, Note_on_c, 14, 50, 0
16, 47760, Control_c, 14, 11, 64
16, 47760, Note_on_c, 14, 55, 76
16, 47840, Control_c, 14, 11, 66
16, 47920, Control_c, 14, 11, 68
16, 47999, Note_on_c, 14, 55, 0
16, 48000, Control_c, 14, 11, 69
16, 48000, Note_on_c, 14, 50, 76
16, 48080, Control_c, 14, 11, 71
16, 48160, Control_c, 14, 11, 73
16, 48239, Note_on_c, 14, 50, 0
16, 48240, Control_c, 14, 11, 75
16, 48240, Note_on_c, 14, 51, 76
16, 48320, Control_c, 14, 11, 76
16, 48400, Control_c, 14, 11, 78
16, 48459, Note_on_c, 14, 51, 0
16, 48480, Control_c, 14, 11, 80
16, 48480, Note_on_c, 14, 56, 76
16, 48560, Control_c, 14, 11, 82
16, 48640, Control_c, 14, 11, 83
16, 48719, Note_on_c, 14, 56, 0
16, 48720, Control_c, 14, 11, 85
16, 48720, Note_on_c, 14, 52, 76
16, 48800, Control_c, 14, 11, 87
16, 48880, Control_c, 14, 11, 89
16, 48959, Note_on_c, 14, 52, 0
16, 48960, Control_c, 14, 11, 90
16, 48960, Note_on_c, 14, 53, 76
16, 49040, Control_c, 14, 11, 92
16, 49120, Control_c, 14, 11, 94
16, 49179, Note_on_c, 14, 53, 0
16, 49200, Note_on_c, 14, 59, 76
16, 49200, Control_c, 14, 11, 96
16, 49280, Control_c, 14, 11, 97
16, 49360, Control_c, 14, 11, 99
16, 49439, Note_on_c, 14, 59, 0
16, 49440, Control_c, 14, 11, 101
16, 49440, Note_on_c, 14, 54, 76
16, 49520, Control_c, 14, 11, 103
16, 49600, Control_c, 14, 11, 104
16, 49679, Note_on_c, 14, 54, 0
16, 49680, Control_c, 14, 11, 106
16, 49680, Note_on_c, 14, 55, 76
16, 49760, Control_c, 14, 11, 108
16, 49840, Control_c, 14, 11, 110
16, 49899, Note_on_c, 14, 55, 0
16, 49920, Note_on_c, 14, 60, 76
16, 49920, Control_c, 14, 11, 111
16, 50000, Control_c, 14, 11, 113
16, 50080, Control_c, 14, 11, 115
16, 50159, Note_on_c, 14, 60, 0
16, 50160, Note_on_c, 14, 56, 76
16, 50160, Control_c, 14, 11, 117
16, 50240, Control_c, 14, 11, 118
16, 50320, Control_c, 14, 11, 120
16, 50399, Note_on_c, 14, 56, 0
16, 50400, Note_on_c, 14, 57, 76
16, 50400, Control_c, 14, 11, 122
16, 50480, Control_c, 14, 11, 124
16, 50560, Control_c, 14, 11, 127
16, 50619, Note_on_c, 14, 57, 0
16, 50640, Note_on_c, 14, 59, 76
16, 51339, Note_on_c, 14, 59, 0
16, 51360, Note_on_c, 14, 60, 76
16, 52059, Note_on_c, 14, 60, 0
16, 52080, Note_on_c, 14, 62, 76
16, 52779, Note_on_c, 14, 62, 0
16, 52800, Note_on_c, 14, 63, 76
16, 53499, Note_on_c, 14, 63, 0
16, 53520, Note_on_c, 14, 59, 76
16, 54219, Note_on_c, 14, 59, 0
16, 54240, Note_on_c, 14, 60, 76
16, 54699, Note_on_c, 14, 60, 0
16, 54720, Note_on_c, 14, 58, 76
16, 54939, Note_on_c, 14, 58, 0
16, 54960, Note_on_c, 14, 56, 76
16, 55419, Note_on_c, 14, 56, 0
16, 55440, Note_on_c, 14, 56, 76
16, 55659, Note_on_c, 14, 56, 0
16, 55680, Note_on_c, 14, 58, 76
16, 56379, Note_on_c, 14, 58, 0
16, 56400, Note_on_c, 14, 48, 76
16, 57099, Note_on_c, 14, 48, 0
16, 57120, Note_on_c, 14, 53, 76
16, 57819, Note_on_c, 14, 53, 0
16, 57840, Note_on_c, 14, 55, 76
16, 58539, Note_on_c, 14, 55, 0
16, 58560, Note_on_c, 14, 56, 76
16, 59259, Note_on_c, 14, 56, 0
16, 59280, Note_on_c, 14, 52, 84
16, 59979, Note_on_c, 14, 52, 0
16, 60000, Note_on_c, 14, 53, 84
16, 60459, Note_on_c, 14, 53, 0
16, 60480, Note_on_c, 14, 51, 84
16, 60699, Note_on_c, 14, 51, 0
16, 60720, Note_on_c, 14, 49, 84
16, 61179, Note_on_c, 14, 49, 0
16, 61200, Note_on_c, 14, 49, 84
16, 61419, Note_on_c, 14, 49, 0
16, 61440, Note_on_c, 14, 51, 84
16, 62139, Note_on_c, 14, 51, 0
16, 62160, Note_on_c, 14, 44, 84
16, 62859, Note_on_c, 14, 44, 0
16, 62880, Note_on_c, 14, 49, 84
16, 63339, Note_on_c, 14, 49, 0
16, 63360, Note_on_c, 14, 48, 84
16, 63579, Note_on_c, 14, 48, 0
16, 63600, Note_on_c, 14, 46, 84
16, 64059, Note_on_c, 14, 46, 0
16, 64080, Note_on_c, 14, 46, 84
16, 64299, Note_on_c, 14, 46, 0
16, 64320, Note_on_c, 14, 48, 92
16, 64439, Note_on_c, 14, 48, 0
16, 64440, Note_on_c, 14, 48, 84
16, 65519, Note_on_c, 14, 48, 0
16, 65520, Note_on_c, 14, 41, 84
16, 65739, Note_on_c, 14, 41, 0
16, 65760, Note_on_c, 14, 48, 92
16, 65879, Note_on_c, 14, 48, 0
16, 65880, Note_on_c, 14, 48, 84
16, 66959, Note_on_c, 14, 48, 0
16, 66960, Note_on_c, 14, 41, 84
16, 67179, Note_on_c, 14, 41, 0
16, 67200, Note_on_c, 14, 48, 92
16, 67319, Note_on_c, 14, 48, 0
16, 67320, Note_on_c, 14, 48, 84
16, 67679, Note_on_c, 14, 48, 0
16, 67680, Note_on_c, 14, 41, 84
16, 67899, Note_on_c, 14, 41, 0
16, 67920, Note_on_c, 14, 48, 92
16, 68039, Note_on_c, 14, 48, 0
16, 68040, Note_on_c, 14, 48, 84
16, 68399, Note_on_c, 14, 48, 0
16, 68400, Note_on_c, 14, 41, 84
16, 68619, Note_on_c, 14, 41, 0
16, 68640, Control_c, 14, 11, 127
16, 68640, Note_on_c, 14, 48, 84
16, 68700, Control_c, 14, 11, 120
16, 68760, Control_c, 14, 11, 114
16, 68820, Control_c, 14, 11, 107
16, 68880, Control_c, 14, 11, 101
16, 68940, Control_c, 14, 11, 94
16, 69000, Control_c, 14, 11, 88
16, 69060, Control_c, 14, 11, 81
16, 69120, Control_c, 14, 11, 74
16, 69180, Control_c, 14, 11, 68
16, 69240, Control_c, 14, 11, 61
16, 69300, Control_c, 14, 11, 55
16, 69360, Control_c, 14, 11, 48
16, 69579, Note_on_c, 14, 48, 0
16, 69600, Note_on_c, 14, 51, 84
16, 69839, Note_on_c, 14, 51, 0
16, 69840, Note_on_c, 14, 55, 84
16, 70079, Note_on_c, 14, 55, 0
16, 70080, Note_on_c, 14, 60, 84
16, 70559, Note_on_c, 14, 60, 0
16, 70560, Note_on_c, 14, 63, 84
16, 70799, Note_on_c, 14, 63, 0
16, 70800, Note_on_c, 14, 62, 84
16, 71279, Note_on_c, 14, 62, 0
16, 71280, Note_on_c, 14, 54, 84
16, 71499, Note_on_c, 14, 54, 0
16, 71520, Note_on_c, 14, 55, 84
16, 72219, Note_on_c, 14, 55, 0
16, 72240, Note_on_c, 14, 67, 84
16, 72719, Note_on_c, 14, 67, 0
16, 72720, Note_on_c, 14, 65, 84
16, 72959, Note_on_c, 14, 65, 0
16, 72960, Note_on_c, 14, 63, 84
16, 73439, Note_on_c, 14, 63, 0
16, 73440, Note_on_c, 14, 62, 84
16, 73679, Note_on_c, 14, 62, 0
16, 73680, Note_on_c, 14, 60, 84
16, 74159, Note_on_c, 14, 60, 0
16, 74160, Note_on_c, 14, 63, 84
16, 74399, Note_on_c, 14, 63, 0
16, 74400, Note_on_c, 14, 67, 84
16, 74639, Note_on_c, 14, 67, 0
16, 74880, Note_on_c, 14, 43, 84
16, 75079, Note_on_c, 14, 43, 0
16, 75118, Control_c, 14, 11, 127
16, 75120, Control_c, 14, 11, 127
16, 75120, Note_on_c, 14, 67, 76
16, 75147, Control_c, 14, 11, 124
16, 75173, Control_c, 14, 11, 122
16, 75200, Control_c, 14, 11, 119
16, 75227, Control_c, 14, 11, 117
16, 75253, Control_c, 14, 11, 114
16, 75280, Control_c, 14, 11, 111
16, 75307, Control_c, 14, 11, 109
16, 75333, Control_c, 14, 11, 106
16, 75360, Control_c, 14, 11, 104
16, 75387, Control_c, 14, 11, 101
16, 75413, Control_c, 14, 11, 98
16, 75440, Control_c, 14, 11, 96
16, 75467, Control_c, 14, 11, 93
16, 75493, Control_c, 14, 11, 90
16, 75520, Control_c, 14, 11, 88
16, 75547, Control_c, 14, 11, 85
16, 75573, Control_c, 14, 11, 80
16, 75599, Note_on_c, 14, 67, 0
16, 75600, Note_on_c, 14, 65, 76
16, 75839, Note_on_c, 14, 65, 0
16, 75840, Note_on_c, 14, 63, 76
16, 76319, Note_on_c, 14, 63, 0
16, 76320, Note_on_c, 14, 60, 76
16, 76559, Note_on_c, 14, 60, 0
16, 76560, Note_on_c, 14, 57, 76
16, 77039, Note_on_c, 14, 57, 0
16, 77040, Note_on_c, 14, 59, 76
16, 77279, Note_on_c, 14, 59, 0
16, 77280, Note_on_c, 14, 60, 76
16, 77519, Note_on_c, 14, 60, 0
16, 77760, Note_on_c, 14, 43, 76
16, 77959, Note_on_c, 14, 43, 0
16, 77998, Control_c, 14, 11, 127
16, 78000, Note_on_c, 14, 68, 76
16, 78000, Control_c, 14, 11, 127
16, 78027, Control_c, 14, 11, 124
16, 78053, Control_c, 14, 11, 122
16, 78080, Control_c, 14, 11, 119
16, 78107, Control_c, 14, 11, 117
16, 78133, Control_c, 14, 11, 114
16, 78160, Control_c, 14, 11, 111
16, 78187, Control_c, 14, 11, 109
16, 78213, Control_c, 14, 11, 106
16, 78240, Control_c, 14, 11, 104
16, 78267, Control_c, 14, 11, 101
16, 78293, Control_c, 14, 11, 98
16, 78320, Control_c, 14, 11, 96
16, 78347, Control_c, 14, 11, 93
16, 78373, Control_c, 14, 11, 90
16, 78400, Control_c, 14, 11, 88
16, 78427, Control_c, 14, 11, 85
16, 78453, Control_c, 14, 11, 80
16, 78479, Note_on_c, 14, 68, 0
16, 78480, Note_on_c, 14, 67, 76
16, 78719, Note_on_c, 14, 67, 0
16, 78720, Note_on_c, 14, 65, 76
16, 79199, Note_on_c, 14, 65, 0
16, 79200, Note_on_c, 14, 63, 76
16, 79439, Note_on_c, 14, 63, 0
16, 79680, Note_on_c, 14, 62, 76
16, 79859, Note_on_c, 14, 62, 0
16, 79920, Note_on_c, 14, 63, 76
16, 80099, Note_on_c, 14, 63, 0
16, 80400, Note_on_c, 14, 63, 76
16, 80579, Note_on_c, 14, 63, 0
16, 80640, Note_on_c, 14, 65, 76
16, 80819, Note_on_c, 14, 65, 0
16, 81120, Note_on_c, 14, 62, 76
16, 81299, Note_on_c, 14, 62, 0
16, 81360, Note_on_c, 14, 63, 76
16, 81539, Note_on_c, 14, 63, 0
16, 81600, Note_on_c, 14, 63, 76
16, 81779, Note_on_c, 14, 63, 0
16, 81840, Note_on_c, 14, 65, 76
16, 82019, Note_on_c, 14, 65, 0
16, 82080, Note_on_c, 14, 56, 76
16, 82319, Note_on_c, 14, 56, 0
16, 82320, Note_on_c, 14, 55, 76
16, 82799, Note_on_c, 14, 55, 0
16, 82800, Note_on_c, 14, 59, 76
16, 83039, Note_on_c, 14, 59, 0
16, 83040, Note_on_c, 14, 60, 76
16, 83519, Note_on_c, 14, 60, 0
16, 83520, Note_on_c, 14, 56, 76
16, 83759, Note_on_c, 14, 56, 0
16, 83760, Note_on_c, 14, 55, 76
16, 84239, Note_on_c, 14, 55, 0
16, 84240, Note_on_c, 14, 47, 76
16, 84479, Note_on_c, 14, 47, 0
16, 84480, Note_on_c, 14, 48, 76
16, 84939, Note_on_c, 14, 48, 0
16, 84960, Note_on_c, 14, 56, 76
16, 85199, Note_on_c, 14, 56, 0
16, 85200, Note_on_c, 14, 55, 76
16, 85679, Note_on_c, 14, 55, 0
16, 85680, Note_on_c, 14, 59, 76
16, 85919, Note_on_c, 14, 59, 0
16, 85920, Note_on_c, 14, 60, 76
16, 86399, Note_on_c, 14, 60, 0
16, 86400, Note_on_c, 14, 56, 76
16, 86639, Note_on_c, 14, 56, 0
16, 86640, Note_on_c, 14, 55, 76
16, 87119, Note_on_c, 14, 55, 0
16, 87120, Note_on_c, 14, 47, 76
16, 87359, Note_on_c, 14, 47, 0
16, 87360, Note_on_c, 14, 48, 76
16, 87819, Note_on_c, 14, 48, 0
16, 87840, Control_c, 14, 11, 80
16, 87840, Note_on_c, 14, 56, 76
16, 87952, Control_c, 14, 11, 81
16, 88065, Control_c, 14, 11, 82
16, 88079, Note_on_c, 14, 56, 0
16, 88080, Note_on_c, 14, 55, 76
16, 88177, Control_c, 14, 11, 83
16, 88289, Control_c, 14, 11, 84
16, 88402, Control_c, 14, 11, 85
16, 88514, Control_c, 14, 11, 86
16, 88559, Note_on_c, 14, 55, 0
16, 88560, Note_on_c, 14, 59, 76
16, 88626, Control_c, 14, 11, 87
16, 88739, Control_c, 14, 11, 88
16, 88799, Note_on_c, 14, 59, 0
16, 88800, Note_on_c, 14, 60, 76
16, 88851, Control_c, 14, 11, 89
16, 88963, Control_c, 14, 11, 90
16, 89076, Control_c, 14, 11, 91
16, 89188, Control_c, 14, 11, 92
16, 89279, Note_on_c, 14, 60, 0
16, 89280, Note_on_c, 14, 58, 76
16, 89300, Control_c, 14, 11, 93
16, 89413, Control_c, 14, 11, 94
16, 89519, Note_on_c, 14, 58, 0
16, 89520, Note_on_c, 14, 56, 76
16, 89525, Control_c, 14, 11, 95
16, 89637, Control_c, 14, 11, 96
16, 89750, Control_c, 14, 11, 97
16, 89862, Control_c, 14, 11, 98
16, 89974, Control_c, 14, 11, 99
16, 89999, Note_on_c, 14, 56, 0
16, 90000, Note_on_c, 14, 53, 76
16, 90087, Control_c, 14, 11, 100
16, 90199, Control_c, 14, 11, 101
16, 90239, Note_on_c, 14, 53, 0
16, 90240, Note_on_c, 14, 55, 76
16, 90311, Control_c, 14, 11, 102
16, 90424, Control_c, 14, 11, 103
16, 90536, Control_c, 14, 11, 104
16, 90649, Control_c, 14, 11, 105
16, 90719, Note_on_c, 14, 55, 0
16, 90720, Note_on_c, 14, 53, 76
16, 90761, Control_c, 14, 11, 106
16, 90873, Control_c, 14, 11, 107
16, 90959, Note_on_c, 14, 53, 0
16, 90960, Note_on_c, 14, 51, 76
16, 90986, Control_c, 14, 11, 108
16, 91098, Control_c, 14, 11, 109
16, 91210, Control_c, 14, 11, 110
16, 91323, Control_c, 14, 11, 111
16, 91435, Control_c, 14, 11, 112
16, 91439, Note_on_c, 14, 51, 0
16, 91440, Note_on_c, 14, 50, 76
16, 91547, Control_c, 14, 11, 113
16, 91659, Note_on_c, 14, 50, 0
16, 91660, Control_c, 14, 11, 114
16, 91680, Note_on_c, 14, 48, 76
16, 91772, Control_c, 14, 11, 115
16, 91884, Control_c, 14, 11, 116
16, 91997, Control_c, 14, 11, 117
16, 92109, Control_c, 14, 11, 118
16, 92159, Note_on_c, 14, 48, 0
16, 92160, Note_on_c, 14, 46, 76
16, 92221, Control_c, 14, 11, 119
16, 92334, Control_c, 14, 11, 120
16, 92399, Note_on_c, 14, 46, 0
16, 92400, Note_on_c, 14, 44, 76
16, 92446, Control_c, 14, 11, 121
16, 92558, Control_c, 14, 11, 122
16, 92671, Control_c, 14, 11, 123
16, 92783, Control_c, 14, 11, 124
16, 92879, Note_on_c, 14, 44, 0
16, 92880, Note_on_c, 14, 43, 76
16, 92895, Control_c, 14, 11, 125
16, 93008, Control_c, 14, 11, 127
16, 93119, Note_on_c, 14, 43, 0
16, 93120, Note_on_c, 14, 41, 76
16, 93599, Note_on_c, 14, 41, 0
16, 93600, Note_on_c, 14, 42, 76
16, 93819, Note_on_c, 14, 42, 0
16, 93840, Note_on_c, 14, 43, 76
16, 94059, Note_on_c, 14, 43, 0
16, 94080, Note_on_c, 14, 55, 76
16, 94299, Note_on_c, 14, 55, 0
16, 94320, Note_on_c, 14, 55, 76
16, 94539, Note_on_c, 14, 55, 0
16, 94560, Note_on_c, 14, 48, 76
16, 94799, Note_on_c, 14, 48, 0
16, 95280, Note_on_c, 14, 47, 84
16, 95979, Note_on_c, 14, 47, 0
16, 96000, Note_on_c, 14, 48, 84
16, 96699, Note_on_c, 14, 48, 0
16, 96720, Note_on_c, 14, 50, 84
16, 97419, Note_on_c, 14, 50, 0
16, 97440, Note_on_c, 14, 39, 84
16, 98139, Note_on_c, 14, 39, 0
16, 98160, Note_on_c, 14, 40, 52
16, 98399, Note_on_c, 14, 40, 0
16, 98400, Note_on_c, 14, 40, 52
16, 98639, Note_on_c, 14, 40, 0
16, 98640, Note_on_c, 14, 40, 52
16, 98879, Note_on_c, 14, 40, 0
16, 98880, Note_on_c, 14, 41, 52
16, 99059, Note_on_c, 14, 41, 0
16, 99600, Note_on_c, 14, 43, 52
16, 99779, Note_on_c, 14, 43, 0
16, 100320, Note_on_c, 14, 48, 52
16, 100499, Note_on_c, 14, 48, 0
16, 100800, Note_on_c, 14, 48, 76
16, 101019, Note_on_c, 14, 48, 0
16, 101040, Note_on_c, 14, 47, 76
16, 101139, Note_on_c, 14, 47, 0
16, 101160, Note_on_c, 14, 48, 76
16, 101259, Note_on_c, 14, 48, 0
16, 101280, Note_on_c, 14, 50, 76
16, 101379, Note_on_c, 14, 50, 0
16, 101400, Note_on_c, 14, 43, 76
16, 101499, Note_on_c, 14, 43, 0
16, 101520, Note_on_c, 14, 45, 76
16, 101619, Note_on_c, 14, 45, 0
16, 101640, Note_on_c, 14, 47, 76
16, 101739, Note_on_c, 14, 47, 0
16, 101760, Note_on_c, 14, 48, 76
16, 101859, Note_on_c, 14, 48, 0
16, 101880, Note_on_c, 14, 47, 76
16, 101979, Note_on_c, 14, 47, 0
16, 102000, Note_on_c, 14, 48, 76
16, 102099, Note_on_c, 14, 48, 0
16, 102120, Note_on_c, 14, 50, 76
16, 102219, Note_on_c, 14, 50, 0
16, 102240, Note_on_c, 14, 52, 76
16, 102339, Note_on_c, 14, 52, 0
16, 102360, Note_on_c, 14, 53, 76
16, 102459, Note_on_c, 14, 53, 0
16, 102480, Note_on_c, 14, 55, 76
16, 102939, Note_on_c, 14, 55, 0
16, 102960, Note_on_c, 14, 53, 76
16, 103179, Note_on_c, 14, 53, 0
16, 103200, Note_on_c, 14, 52, 76
16, 103419, Note_on_c, 14, 52, 0
16, 103440, Note_on_c, 14, 48, 76
16, 103659, Note_on_c, 14, 48, 0
16, 103680, Note_on_c, 14, 57, 76
16, 103899, Note_on_c, 14, 57, 0
16, 103920, Note_on_c, 14, 53, 76
16, 104139, Note_on_c, 14, 53, 0
16, 104160, Note_on_c, 14, 50, 76
16, 104379, Note_on_c, 14, 50, 0
16, 104400, Note_on_c, 14, 59, 76
16, 104619, Note_on_c, 14, 59, 0
16, 104640, Note_on_c, 14, 55, 76
16, 104859, Note_on_c, 14, 55, 0
16, 104880, Note_on_c, 14, 52, 76
16, 105099, Note_on_c, 14, 52, 0
16, 105120, Note_on_c, 14, 60, 76
16, 105339, Note_on_c, 14, 60, 0
16, 105360, Note_on_c, 14, 57, 76
16, 105579, Note_on_c, 14, 57, 0
16, 105600, Note_on_c, 14, 62, 76
16, 105819, Note_on_c, 14, 62, 0
16, 105840, Note_on_c, 14, 60, 76
16, 106059, Note_on_c, 14, 60, 0
16, 106080, Note_on_c, 14, 59, 76
16, 106299, Note_on_c, 14, 59, 0
16, 106320, Note_on_c, 14, 55, 76
16, 106539, Note_on_c, 14, 55, 0
16, 106560, Note_on_c, 14, 52, 76
16, 106779, Note_on_c, 14, 52, 0
16, 106800, Note_on_c, 14, 54, 76
16, 107019, Note_on_c, 14, 54, 0
16, 107040, Note_on_c, 14, 50, 76
16, 107259, Note_on_c, 14, 50, 0
16, 107280, Note_on_c, 14, 54, 76
16, 107499, Note_on_c, 14, 54, 0
16, 107520, Note_on_c, 14, 55, 76
16, 107739, Note_on_c, 14, 55, 0
16, 107760, Note_on_c, 14, 52, 76
16, 107979, Note_on_c, 14, 52, 0
16, 108000, Note_on_c, 14, 56, 76
16, 108219, Note_on_c, 14, 56, 0
16, 108240, Note_on_c, 14, 57, 76
16, 108459, Note_on_c, 14, 57, 0
16, 108480, Note_on_c, 14, 53, 76
16, 108699, Note_on_c, 14, 53, 0
16, 108720, Note_on_c, 14, 57, 76
16, 108939, Note_on_c, 14, 57, 0
16, 108960, Note_on_c, 14, 59, 76
16, 109179, Note_on_c, 14, 59, 0
16, 109200, Note_on_c, 14, 55, 76
16, 109419, Note_on_c, 14, 55, 0
16, 109440, Note_on_c, 14, 64, 76
16, 109659, Note_on_c, 14, 64, 0
16, 109680, Note_on_c, 14, 65, 76
16, 109899, Note_on_c, 14, 65, 0
16, 109920, Note_on_c, 14, 55, 76
16, 110139, Note_on_c, 14, 55, 0
16, 110160, Note_on_c, 14, 65, 76
16, 110379, Note_on_c, 14, 65, 0
16, 110400, Note_on_c, 14, 64, 76
16, 110619, Note_on_c, 14, 64, 0
16, 110640, Note_on_c, 14, 60, 76
16, 110859, Note_on_c, 14, 60, 0
16, 110880, Note_on_c, 14, 59, 76
16, 111099, Note_on_c, 14, 59, 0
16, 111120, Note_on_c, 14, 57, 76
16, 111339, Note_on_c, 14, 57, 0
16, 111360, Note_on_c, 14, 50, 76
16, 111579, Note_on_c, 14, 50, 0
16, 111600, Note_on_c, 14, 60, 76
16, 111819, Note_on_c, 14, 60, 0
16, 111840, Note_on_c, 14, 59, 76
16, 112059, Note_on_c, 14, 59, 0
16, 112080, Note_on_c, 14, 55, 76
16, 112299, Note_on_c, 14, 55, 0
16, 112320, Note_on_c, 14, 52, 76
16, 112539, Note_on_c, 14, 52, 0
16, 112560, Note_on_c, 14, 50, 76
16, 112659, Note_on_c, 14, 50, 0
16, 112680, Note_on_c, 14, 49, 76
16, 112779, Note_on_c, 14, 49, 0
16, 112800, Note_on_c, 14, 50, 76
16, 112899, Note_on_c, 14, 50, 0
16, 112920, Note_on_c, 14, 48, 76
16, 113019, Note_on_c, 14, 48, 0
16, 113040, Note_on_c, 14, 47, 76
16, 113139, Note_on_c, 14, 47, 0
16, 113160, Note_on_c, 14, 45, 76
16, 113259, Note_on_c, 14, 45, 0
16, 113280, Note_on_c, 14, 43, 76
16, 113379, Note_on_c, 14, 43, 0
16, 113400, Note_on_c, 14, 47, 76
16, 113499, Note_on_c, 14, 47, 0
16, 113520, Note_on_c, 14, 50, 76
16, 113619, Note_on_c, 14, 50, 0
16, 113640, Note_on_c, 14, 48, 76
16, 113739, Note_on_c, 14, 48, 0
16, 113760, Note_on_c, 14, 47, 76
16, 113859, Note_on_c, 14, 47, 0
16, 113880, Note_on_c, 14, 45, 76
16, 113979, Note_on_c, 14, 45, 0
16, 114000, Note_on_c, 14, 43, 76
16, 114099, Note_on_c, 14, 43, 0
16, 114120, Note_on_c, 14, 47, 76
16, 114219, Note_on_c, 14, 47, 0
16, 114240, Note_on_c, 14, 50, 76
16, 114339, Note_on_c, 14, 50, 0
16, 114360, Note_on_c, 14, 48, 76
16, 114459, Note_on_c, 14, 48, 0
16, 114480, Note_on_c, 14, 47, 76
16, 114579, Note_on_c, 14, 47, 0
16, 114600, Note_on_c, 14, 45, 76
16, 114699, Note_on_c, 14, 45, 0
16, 114720, Note_on_c, 14, 43, 76
16, 114959, Note_on_c, 14, 43, 0
16, 115200, Note_on_c, 14, 48, 76
16, 115419, Note_on_c, 14, 48, 0
16, 115440, Note_on_c, 14, 47, 76
16, 115539, Note_on_c, 14, 47, 0
16, 115560, Note_on_c, 14, 48, 76
16, 115659, Note_on_c, 14, 48, 0
16, 115680, Note_on_c, 14, 50, 76
16, 115779, Note_on_c, 14, 50, 0
16, 115800, Note_on_c, 14, 43, 76
16, 115899, Note_on_c, 14, 43, 0
16, 115920, Note_on_c, 14, 45, 76
16, 116019, Note_on_c, 14, 45, 0
16, 116040, Note_on_c, 14, 47, 76
16, 116139, Note_on_c, 14, 47, 0
16, 116160, Note_on_c, 14, 48, 76
16, 116259, Note_on_c, 14, 48, 0
16, 116280, Note_on_c, 14, 47, 76
16, 116379, Note_on_c, 14, 47, 0
16, 116400, Note_on_c, 14, 48, 76
16, 116499, Note_on_c, 14, 48, 0
16, 116520, Note_on_c, 14, 50, 76
16, 116619, Note_on_c, 14, 50, 0
16, 116640, Note_on_c, 14, 52, 76
16, 116739, Note_on_c, 14, 52, 0
16, 116760, Note_on_c, 14, 53, 76
16, 116859, Note_on_c, 14, 53, 0
16, 116880, Note_on_c, 14, 55, 76
16, 117339, Note_on_c, 14, 55, 0
16, 117360, Note_on_c, 14, 53, 76
16, 117579, Note_on_c, 14, 53, 0
16, 117600, Note_on_c, 14, 52, 76
16, 117819, Note_on_c, 14, 52, 0
16, 117840, Note_on_c, 14, 48, 76
16, 118059, Note_on_c, 14, 48, 0
16, 118080, Note_on_c, 14, 57, 76
16, 118299, Note_on_c, 14, 57, 0
16, 118320, Note_on_c, 14, 53, 76
16, 118539, Note_on_c, 14, 53, 0
16, 118560, Note_on_c, 14, 50, 76
16, 118779, Note_on_c, 14, 50, 0
16, 118800, Note_on_c, 14, 59, 76
16, 119019, Note_on_c, 14, 59, 0
16, 119040, Note_on_c, 14, 55, 76
16, 119259, Note_on_c, 14, 55, 0
16, 119280, Note_on_c, 14, 52, 76
16, 119499, Note_on_c, 14, 52, 0
16, 119520, Note_on_c, 14, 60, 76
16, 119739, Note_on_c, 14, 60, 0
16, 119760, Note_on_c, 14, 57, 76
16, 119979, Note_on_c, 14, 57, 0
16, 120000, Note_on_c, 14, 62, 76
16, 120219, Note_on_c, 14, 62, 0
16, 120240, Note_on_c, 14, 60, 76
16, 120459, Note_on_c, 14, 60, 0
16, 120480, Note_on_c, 14, 59, 76
16, 120699, Note_on_c, 14, 59, 0
16, 120720, Note_on_c, 14, 55, 76
16, 120939, Note_on_c, 14, 55, 0
16, 120960, Note_on_c, 14, 52, 76
16, 121179, Note_on_c, 14, 52, 0
16, 121200, Note_on_c, 14, 54, 76
16, 121419, Note_on_c, 14, 54, 0
16, 121440, Note_on_c, 14, 50, 76
16, 121659, Note_on_c, 14, 50, 0
16, 121680, Note_on_c, 14, 54, 76
16, 121899, Note_on_c, 14, 54, 0
16, 121920, Note_on_c, 14, 55, 76
16, 122139, Note_on_c, 14, 55, 0
16, 122160, Note_on_c, 14, 52, 76
16, 122379, Note_on_c, 14, 52, 0
16, 122400, Note_on_c, 14, 56, 76
16, 122619, Note_on_c, 14, 56, 0
16, 122640, Note_on_c, 14, 57, 76
16, 122859, Note_on_c, 14, 57, 0
16, 122880, Note_on_c, 14, 53, 76
16, 123099, Note_on_c, 14, 53, 0
16, 123120, Note_on_c, 14, 57, 76
16, 123339, Note_on_c, 14, 57, 0
16, 123360, Note_on_c, 14, 59, 76
16, 123579, Note_on_c, 14, 59, 0
16, 123600, Note_on_c, 14, 55, 76
16, 123819, Note_on_c, 14, 55, 0
16, 123840, Note_on_c, 14, 64, 76
16, 124059, Note_on_c, 14, 64, 0
16, 124080, Note_on_c, 14, 65, 76
16, 124299, Note_on_c, 14, 65, 0
16, 124320, Note_on_c, 14, 55, 76
16, 124539, Note_on_c, 14, 55, 0
16, 124560, Note_on_c, 14, 65, 76
16, 124779, Note_on_c, 14, 65, 0
16, 124800, Note_on_c, 14, 64, 76
16, 125019, Note_on_c, 14, 64, 0
16, 125040, Note_on_c, 14, 60, 76
16, 125259, Note_on_c, 14, 60, 0
16, 125280, Note_on_c, 14, 59, 76
16, 125499, Note_on_c, 14, 59, 0
16, 125520, Note_on_c, 14, 57, 76
16, 125739, Note_on_c, 14, 57, 0
16, 125760, Note_on_c, 14, 50, 76
16, 125979, Note_on_c, 14, 50, 0
16, 126000, Note_on_c, 14, 60, 76
16, 126219, Note_on_c, 14, 60, 0
16, 126240, Note_on_c, 14, 59, 76
16, 126459, Note_on_c, 14, 59, 0
16, 126480, Note_on_c, 14, 55, 76
16, 126699, Note_on_c, 14, 55, 0
16, 126720, Note_on_c, 14, 52, 76
16, 126939, Note_on_c, 14, 52, 0
16, 126960, Note_on_c, 14, 50, 76
16, 127059, Note_on_c, 14, 50, 0
16, 127080, Note_on_c, 14, 49, 76
16, 127179, Note_on_c, 14, 49, 0
16, 127200, Note_on_c, 14, 50, 76
16, 127299, Note_on_c, 14, 50, 0
16, 127320, Note_on_c, 14, 48, 76
16, 127419, Note_on_c, 14, 48, 0
16, 127440, Note_on_c, 14, 47, 76
16, 127539, Note_on_c, 14, 47, 0
16, 127560, Note_on_c, 14, 45, 76
16, 127659, Note_on_c, 14, 45, 0
16, 127680, Note_on_c, 14, 43, 76
16, 127779, Note_on_c, 14, 43, 0
16, 127800, Note_on_c, 14, 47, 76
16, 127899, Note_on_c, 14, 47, 0
16, 127920, Note_on_c, 14, 50, 76
16, 128019, Note_on_c, 14, 50, 0
16, 128040, Note_on_c, 14, 48, 76
16, 128139, Note_on_c, 14, 48, 0
16, 128160, Note_on_c, 14, 47, 76
16, 128259, Note_on_c, 14, 47, 0
16, 128280, Note_on_c, 14, 45, 76
16, 128379, Note_on_c, 14, 45, 0
16, 128400, Note_on_c, 14, 43, 76
16, 128499, Note_on_c, 14, 43, 0
16, 128520, Note_on_c, 14, 47, 76
16, 128619, Note_on_c, 14, 47, 0
16, 128640, Note_on_c, 14, 50, 76
16, 128739, Note_on_c, 14, 50, 0
16, 128760, Note_on_c, 14, 48, 76
16, 128859, Note_on_c, 14, 48, 0
16, 128880, Note_on_c, 14, 47, 76
16, 128979, Note_on_c, 14, 47, 0
16, 129000, Note_on_c, 14, 45, 76
16, 129099, Note_on_c, 14, 45, 0
16, 129120, Note_on_c, 14, 43, 76
16, 129359, Note_on_c, 14, 43, 0
16, 130320, Note_on_c, 14, 55, 76
16, 130539, Note_on_c, 14, 55, 0
16, 130560, Note_on_c, 14, 53, 76
16, 130659, Note_on_c, 14, 53, 0
16, 130680, Note_on_c, 14, 55, 76
16, 130779, Note_on_c, 14, 55, 0
16, 130800, Note_on_c, 14, 57, 76
16, 130899, Note_on_c, 14, 57, 0
16, 130920, Note_on_c, 14, 50, 76
16, 131019, Note_on_c, 14, 50, 0
16, 131040, Note_on_c, 14, 52, 76
16, 131139, Note_on_c, 14, 52, 0
16, 131160, Note_on_c, 14, 53, 76
16, 131279, Note_on_c, 14, 53, 0
16, 131760, Note_on_c, 14, 55, 76
16, 131979, Note_on_c, 14, 55, 0
16, 132000, Note_on_c, 14, 53, 76
16, 132099, Note_on_c, 14, 53, 0
16, 132120, Note_on_c, 14, 55, 76
16, 132219, Note_on_c, 14, 55, 0
16, 132240, Note_on_c, 14, 57, 76
16, 132339, Note_on_c, 14, 57, 0
16, 132360, Note_on_c, 14, 50, 76
16, 132459, Note_on_c, 14, 50, 0
16, 132480, Note_on_c, 14, 52, 76
16, 132579, Note_on_c, 14, 52, 0
16, 132600, Note_on_c, 14, 53, 76
16, 132719, Note_on_c, 14, 53, 0
16, 133200, Note_on_c, 14, 55, 76
16, 133419, Note_on_c, 14, 55, 0
16, 133440, Note_on_c, 14, 53, 76
16, 133539, Note_on_c, 14, 53, 0
16, 133560, Note_on_c, 14, 55, 76
16, 133659, Note_on_c, 14, 55, 0
16, 133680, Note_on_c, 14, 57, 76
16, 133779, Note_on_c, 14, 57, 0
16, 133800, Note_on_c, 14, 50, 76
16, 133899, Note_on_c, 14, 50, 0
16, 133920, Note_on_c, 14, 52, 76
16, 134019, Note_on_c, 14, 52, 0
16, 134040, Note_on_c, 14, 53, 76
16, 134139, Note_on_c, 14, 53, 0
16, 134160, Note_on_c, 14, 47, 76
16, 134259, Note_on_c, 14, 47, 0
16, 134280, Note_on_c, 14, 48, 76
16, 134379, Note_on_c, 14, 48, 0
16, 134400, Note_on_c, 14, 50, 76
16, 134499, Note_on_c, 14, 50, 0
16, 134520, Note_on_c, 14, 43, 76
16, 134619, Note_on_c, 14, 43, 0
16, 134640, Note_on_c, 14, 45, 76
16, 134739, Note_on_c, 14, 45, 0
16, 134760, Note_on_c, 14, 47, 76
16, 134859, Note_on_c, 14, 47, 0
16, 134880, Note_on_c, 14, 45, 76
16, 134979, Note_on_c, 14, 45, 0
16, 135000, Note_on_c, 14, 47, 76
16, 135099, Note_on_c, 14, 47, 0
16, 135120, Note_on_c, 14, 48, 76
16, 135219, Note_on_c, 14, 48, 0
16, 135240, Note_on_c, 14, 47, 76
16, 135339, Note_on_c, 14, 47, 0
16, 135360, Note_on_c, 14, 48, 76
16, 135459, Note_on_c, 14, 48, 0
16, 135480, Note_on_c, 14, 50, 76
16, 135579, Note_on_c, 14, 50, 0
16, 135600, Note_on_c, 14, 48, 76
16, 135699, Note_on_c, 14, 48, 0
16, 135720, Note_on_c, 14, 50, 76
16, 135819, Note_on_c, 14, 50, 0
16, 135840, Note_on_c, 14, 52, 76
16, 135939, Note_on_c, 14, 52, 0
16, 135960, Note_on_c, 14, 50, 76
16, 136059, Note_on_c, 14, 50, 0
16, 136080, Note_on_c, 14, 52, 76
16, 136179, Note_on_c, 14, 52, 0
16, 136200, Note_on_c, 14, 53, 76
16, 136299, Note_on_c, 14, 53, 0
16, 136320, Note_on_c, 14, 55, 76
16, 136779, Note_on_c, 14, 55, 0
16, 136800, Note_on_c, 14, 53, 76
16, 137019, Note_on_c, 14, 53, 0
16, 137040, Note_on_c, 14, 52, 76
16, 137259, Note_on_c, 14, 52, 0
16, 137280, Note_on_c, 14, 48, 76
16, 137499, Note_on_c, 14, 48, 0
16, 137520, Note_on_c, 14, 47, 76
16, 137739, Note_on_c, 14, 47, 0
16, 137760, Note_on_c, 14, 45, 76
16, 137979, Note_on_c, 14, 45, 0
16, 138000, Note_on_c, 14, 47, 76
16, 138219, Note_on_c, 14, 47, 0
16, 138240, Note_on_c, 14, 43, 76
16, 138459, Note_on_c, 14, 43, 0
16, 138480, Note_on_c, 14, 48, 76
16, 138699, Note_on_c, 14, 48, 0
16, 138720, Note_on_c, 14, 52, 76
16, 138939, Note_on_c, 14, 52, 0
16, 138960, Note_on_c, 14, 53, 76
16, 139179, Note_on_c, 14, 53, 0
16, 139200, Note_on_c, 14, 52, 76
16, 139299, Note_on_c, 14, 52, 0
16, 139320, Note_on_c, 14, 53, 76
16, 139419, Note_on_c, 14, 53, 0
16, 139440, Note_on_c, 14, 55, 76
16, 139539, Note_on_c, 14, 55, 0
16, 139560, Note_on_c, 14, 48, 76
16, 139659, Note_on_c, 14, 48, 0
16, 139680, Note_on_c, 14, 50, 76
16, 139779, Note_on_c, 14, 50, 0
16, 139800, Note_on_c, 14, 52, 76
16, 139899, Note_on_c, 14, 52, 0
16, 139920, Note_on_c, 14, 53, 76
16, 140019, Note_on_c, 14, 53, 0
16, 140040, Note_on_c, 14, 52, 76
16, 140139, Note_on_c, 14, 52, 0
16, 140160, Note_on_c, 14, 53, 76
16, 140259, Note_on_c, 14, 53, 0
16, 140280, Note_on_c, 14, 55, 76
16, 140379, Note_on_c, 14, 55, 0
16, 140400, Note_on_c, 14, 57, 76
16, 140499, Note_on_c, 14, 57, 0
16, 140520, Note_on_c, 14, 58, 76
16, 140619, Note_on_c, 14, 58, 0
16, 140640, Note_on_c, 14, 60, 76
16, 141099, Note_on_c, 14, 60, 0
16, 141120, Note_on_c, 14, 58, 76
16, 141339, Note_on_c, 14, 58, 0
16, 141360, Note_on_c, 14, 57, 76
16, 141579, Note_on_c, 14, 57, 0
16, 141600, Note_on_c, 14, 53, 76
16, 141839, Note_on_c, 14, 53, 0
16, 142080, Note_on_c, 14, 55, 76
16, 142779, Note_on_c, 14, 55, 0
16, 142800, Note_on_c, 14, 48, 76
16, 143499, Note_on_c, 14, 48, 0
16, 143520, Note_on_c, 14, 60, 76
16, 144219, Note_on_c, 14, 60, 0
16, 144240, Note_on_c, 14, 53, 76
16, 144699, Note_on_c, 14, 53, 0
16, 144720, Note_on_c, 14, 53, 76
16, 144939, Note_on_c, 14, 53, 0
16, 144960, Note_on_c, 14, 55, 76
16, 145179, Note_on_c, 14, 55, 0
16, 145200, Note_on_c, 14, 43, 76
16, 145419, Note_on_c, 14, 43, 0
16, 145440, Note_on_c, 14, 55, 76
16, 145899, Note_on_c, 14, 55, 0
16, 145920, Note_on_c, 14, 43, 76
16, 146139, Note_on_c, 14, 43, 0
16, 146160, Note_on_c, 14, 55, 76
16, 146619, Note_on_c, 14, 55, 0
16, 146640, Note_on_c, 14, 43, 76
16, 146859, Note_on_c, 14, 43, 0
16, 146880, Note_on_c, 14, 55, 76
16, 147339, Note_on_c, 14, 55, 0
16, 147360, Note_on_c, 14, 43, 76
16, 147579, Note_on_c, 14, 43, 0
16, 147600, Note_on_c, 14, 55, 76
16, 148059, Note_on_c, 14, 55, 0
16, 148080, Note_on_c, 14, 43, 76
16, 148299, Note_on_c, 14, 43, 0
16, 148320, Note_on_c, 14, 55, 76
16, 148779, Note_on_c, 14, 55, 0
16, 148800, Note_on_c, 14, 43, 76
16, 149019, Note_on_c, 14, 43, 0
16, 149040, Note_on_c, 14, 55, 76
16, 149259, Note_on_c, 14, 55, 0
16, 149280, Note_on_c, 14, 55, 76
16, 149379, Note_on_c, 14, 55, 0
16, 149400, Note_on_c, 14, 55, 76
16, 149499, Note_on_c, 14, 55, 0
16, 149520, Note_on_c, 14, 59, 76
16, 149619, Note_on_c, 14, 59, 0
16, 149640, Note_on_c, 14, 59, 76
16, 149739, Note_on_c, 14, 59, 0
16, 149760, Note_on_c, 14, 62, 76
16, 149859, Note_on_c, 14, 62, 0
16, 149880, Note_on_c, 14, 62, 76
16, 149979, Note_on_c, 14, 62, 0
16, 150000, Note_on_c, 14, 60, 76
16, 150099, Note_on_c, 14, 60, 0
16, 150120, Note_on_c, 14, 56, 76
16, 150219, Note_on_c, 14, 56, 0
16, 150240, Note_on_c, 14, 57, 76
16, 150339, Note_on_c, 14, 57, 0
16, 150360, Note_on_c, 14, 57, 76
16, 150459, Note_on_c, 14, 57, 0
16, 150480, Note_on_c, 14, 57, 76
16, 150579, Note_on_c, 14, 57, 0
16, 150600, Note_on_c, 14, 57, 76
16, 150699, Note_on_c, 14, 57, 0
16, 150720, Note_on_c, 14, 59, 76
16, 150819, Note_on_c, 14, 59, 0
16, 150840, Note_on_c, 14, 54, 76
16, 150939, Note_on_c, 14, 54, 0
16, 150960, Note_on_c, 14, 55, 76
16, 151059, Note_on_c, 14, 55, 0
16, 151080, Note_on_c, 14, 55, 76
16, 151179, Note_on_c, 14, 55, 0
16, 151200, Note_on_c, 14, 55, 76
16, 151299, Note_on_c, 14, 55, 0
16, 151320, Note_on_c, 14, 55, 76
16, 151419, Note_on_c, 14, 55, 0
16, 151440, Note_on_c, 14, 57, 76
16, 151539, Note_on_c, 14, 57, 0
16, 151560, Note_on_c, 14, 52, 76
16, 151659, Note_on_c, 14, 52, 0
16, 151680, Note_on_c, 14, 53, 76
16, 151779, Note_on_c, 14, 53, 0
16, 151800, Note_on_c, 14, 53, 76
16, 151899, Note_on_c, 14, 53, 0
16, 151920, Note_on_c, 14, 53, 76
16, 152019, Note_on_c, 14, 53, 0
16, 152040, Note_on_c, 14, 53, 76
16, 152139, Note_on_c, 14, 53, 0
16, 152160, Note_on_c, 14, 55, 76
16, 152379, Note_on_c, 14, 55, 0
16, 152400, Note_on_c, 14, 43, 76
16, 152619, Note_on_c, 14, 43, 0
16, 152640, Note_on_c, 14, 43, 76
16, 152859, Note_on_c, 14, 43, 0
16, 152880, Note_on_c, 14, 43, 76
16, 152979, Note_on_c, 14, 43, 0
16, 153000, Note_on_c, 14, 43, 76
16, 153099, Note_on_c, 14, 43, 0
16, 153120, Note_on_c, 14, 41, 76
16, 153219, Note_on_c, 14, 41, 0
16, 153240, Note_on_c, 14, 41, 76
16, 153339, Note_on_c, 14, 41, 0
16, 153360, Note_on_c, 14, 38, 76
16, 153459, Note_on_c, 14, 38, 0
16, 153480, Note_on_c, 14, 38, 76
16, 153579, Note_on_c, 14, 38, 0
16, 153600, Note_on_c, 14, 36, 76
16, 153699, Note_on_c, 14, 36, 0
16, 153720, Note_on_c, 14, 40, 76
16, 153819, Note_on_c, 14, 40, 0
16, 153840, Note_on_c, 14, 43, 76
16, 153939, Note_on_c, 14, 43, 0
16, 153960, Note_on_c, 14, 41, 76
16, 154059, Note_on_c, 14, 41, 0
16, 154080, Note_on_c, 14, 40, 76
16, 154179, Note_on_c, 14, 40, 0
16, 154200, Note_on_c, 14, 38, 76
16, 154299, Note_on_c, 14, 38, 0
16, 154320, Note_on_c, 14, 36, 76
16, 154419, Note_on_c, 14, 36, 0
16, 154440, Note_on_c, 14, 40, 76
16, 154539, Note_on_c, 14, 40, 0
16, 154560, Note_on_c, 14, 43, 76
16, 154659, Note_on_c, 14, 43, 0
16, 154680, Note_on_c, 14, 41, 76
16, 154779, Note_on_c, 14, 41, 0
16, 154800, Note_on_c, 14, 40, 76
16, 154899, Note_on_c, 14, 40, 0
16, 154920, Note_on_c, 14, 38, 76
16, 155019, Note_on_c, 14, 38, 0
16, 155040, Note_on_c, 14, 36, 76
16, 155279, Note_on_c, 14, 36, 0
16, 156240, Note_on_c, 14, 55, 76
16, 156459, Note_on_c, 14, 55, 0
16, 156480, Note_on_c, 14, 53, 76
16, 156579, Note_on_c, 14, 53, 0
16, 156600, Note_on_c, 14, 55, 76
16, 156699, Note_on_c, 14, 55, 0
16, 156720, Note_on_c, 14, 57, 76
16, 156819, Note_on_c, 14, 57, 0
16, 156840, Note_on_c, 14, 50, 76
16, 156939, Note_on_c, 14, 50, 0
16, 156960, Note_on_c, 14, 52, 76
16, 157059, Note_on_c, 14, 52, 0
16, 157080, Note_on_c, 14, 53, 76
16, 157199, Note_on_c, 14, 53, 0
16, 157680, Note_on_c, 14, 55, 76
16, 157899, Note_on_c, 14, 55, 0
16, 157920, Note_on_c, 14, 53, 72
16, 158019, Note_on_c, 14, 53, 0
16, 158040, Note_on_c, 14, 55, 70
16, 158139, Note_on_c, 14, 55, 0
16, 158160, Note_on_c, 14, 57, 68
16, 158259, Note_on_c, 14, 57, 0
16, 158280, Note_on_c, 14, 50, 66
16, 158379, Note_on_c, 14, 50, 0
16, 158400, Note_on_c, 14, 52, 64
16, 158499, Note_on_c, 14, 52, 0
16, 158520, Note_on_c, 14, 53, 62
16, 158639, Note_on_c, 14, 53, 0
16, 159120, Note_on_c, 14, 55, 52
16, 159359, Note_on_c, 14, 55, 0
16, 159360, Note_on_c, 14, 53, 52
16, 159479, Note_on_c, 14, 53, 0
16, 159480, Note_on_c, 14, 55, 52
16, 159599, Note_on_c, 14, 55, 0
16, 159600, Note_on_c, 14, 57, 52
16, 159719, Note_on_c, 14, 57, 0
16, 159720, Note_on_c, 14, 50, 52
16, 159839, Note_on_c, 14, 50, 0
16, 159840, Note_on_c, 14, 52, 52
16, 159959, Note_on_c, 14, 52, 0
16, 159960, Note_on_c, 14, 53, 52
16, 160079, Note_on_c, 14, 53, 0
16, 160080, Note_on_c, 14, 47, 52
16, 160199, Note_on_c, 14, 47, 0
16, 160200, Note_on_c, 14, 48, 52
16, 160319, Note_on_c, 14, 48, 0
16, 160320, Note_on_c, 14, 50, 52
16, 160439, Note_on_c, 14, 50, 0
16, 160440, Note_on_c, 14, 43, 52
16, 160559, Note_on_c, 14, 43, 0
16, 160560, Note_on_c, 14, 45, 52
16, 160679, Note_on_c, 14, 45, 0
16, 160680, Note_on_c, 14, 47, 52
16, 160799, Note_on_c, 14, 47, 0
16, 160800, Note_on_c, 14, 45, 52
16, 160919, Note_on_c, 14, 45, 0
16, 160920, Note_on_c, 14, 47, 52
16, 161039, Note_on_c, 14, 47, 0
16, 161040, Note_on_c, 14, 48, 52
16, 161159, Note_on_c, 14, 48, 0
16, 161160, Note_on_c, 14, 47, 52
16, 161279, Note_on_c, 14, 47, 0
16, 161280, Note_on_c, 14, 48, 52
16, 161399, Note_on_c, 14, 48, 0
16, 161400, Note_on_c, 14, 50, 52
16, 161519, Note_on_c, 14, 50, 0
16, 161520, Note_on_c, 14, 48, 52
16, 161639, Note_on_c, 14, 48, 0
16, 161640, Note_on_c, 14, 50, 52
16, 161759, Note_on_c, 14, 50, 0
16, 161760, Note_on_c, 14, 52, 52
16, 161879, Note_on_c, 14, 52, 0
16, 161880, Note_on_c, 14, 50, 52
16, 161999, Note_on_c, 14, 50, 0
16, 162000, Note_on_c, 14, 52, 52
16, 162119, Note_on_c, 14, 52, 0
16, 162120, Note_on_c, 14, 53, 52
16, 162239, Note_on_c, 14, 53, 0
16, 162240, Note_on_c, 14, 55, 52
16, 162719, Note_on_c, 14, 55, 0
16, 162720, Note_on_c, 14, 53, 52
16, 162959, Note_on_c, 14, 53, 0
16, 162960, Note_on_c, 14, 52, 52
16, 163199, Note_on_c, 14, 52, 0
16, 163200, Note_on_c, 14, 48, 52
16, 163439, Note_on_c, 14, 48, 0
16, 163440, Note_on_c, 14, 47, 52
16, 163679, Note_on_c, 14, 47, 0
16, 163680, Note_on_c, 14, 45, 52
16, 163919, Note_on_c, 14, 45, 0
16, 163920, Note_on_c, 14, 47, 52
16, 164159, Note_on_c, 14, 47, 0
16, 164160, Note_on_c, 14, 43, 52
16, 164399, Note_on_c, 14, 43, 0
16, 164400, Note_on_c, 14, 48, 52
16, 164639, Note_on_c, 14, 48, 0
16, 164640, Note_on_c, 14, 52, 52
16, 164879, Note_on_c, 14, 52, 0
16, 164880, Note_on_c, 14, 53, 52
16, 165119, Note_on_c, 14, 53, 0
16, 165120, Note_on_c, 14, 52, 51
16, 165239, Note_on_c, 14, 52, 0
16, 165240, Note_on_c, 14, 53, 51
16, 165359, Note_on_c, 14, 53, 0
16, 165360, Note_on_c, 14, 55, 50
16, 165479, Note_on_c, 14, 55, 0
16, 165480, Note_on_c, 14, 48, 50
16, 165599, Note_on_c, 14, 48, 0
16, 165600, Note_on_c, 14, 50, 50
16, 165719, Note_on_c, 14, 50, 0
16, 165720, Note_on_c, 14, 52, 49
16, 165839, Note_on_c, 14, 52, 0
16, 165840, Note_on_c, 14, 53, 49
16, 165959, Note_on_c, 14, 53, 0
16, 165960, Note_on_c, 14, 52, 49
16, 166079, Note_on_c, 14, 52, 0
16, 166080, Note_on_c, 14, 53, 48
16, 166199, Note_on_c, 14, 53, 0
16, 166200, Note_on_c, 14, 55, 48
16, 166319, Note_on_c, 14, 55, 0
16, 166320, Note_on_c, 14, 57, 48
16, 166439, Note_on_c, 14, 57, 0
16, 166440, Note_on_c, 14, 58, 47
16, 166559, Note_on_c, 14, 58, 0
16, 166560, Note_on_c, 14, 60, 47
16, 167039, Note_on_c, 14, 60, 0
16, 167040, Note_on_c, 14, 58, 46
16, 167279, Note_on_c, 14, 58, 0
16, 167280, Note_on_c, 14, 57, 45
16, 167519, Note_on_c, 14, 57, 0
16, 167520, Note_on_c, 14, 53, 44
16, 167759, Note_on_c, 14, 53, 0
16, 168000, Note_on_c, 14, 55, 44
16, 168239, Note_on_c, 14, 55, 0
16, 168720, Note_on_c, 14, 48, 44
16, 168959, Note_on_c, 14, 48, 0
16, 169440, Note_on_c, 14, 48, 44
16, 169679, Note_on_c, 14, 48, 0
16, 170160, Note_on_c, 14, 41, 44
16, 170399, Note_on_c, 14, 41, 0
16, 170880, Note_on_c, 14, 43, 44
16, 171119, Note_on_c, 14, 43, 0
16, 179520, Program_c, 14, 45
16, 180240, Note_on_c, 14, 54, 48
16, 180479, Note_on_c, 14, 54, 0
16, 180960, Note_on_c, 14, 53, 48
16, 181199, Note_on_c, 14, 53, 0
16, 181680, Note_on_c, 14, 51, 48
16, 181919, Note_on_c, 14, 51, 0
16, 182400, Note_on_c, 14, 50, 48
16, 182639, Note_on_c, 14, 50, 0
16, 182880, Note_on_c, 14, 56, 48
16, 183119, Note_on_c, 14, 56, 0
16, 183120, Note_on_c, 14, 55, 48
16, 183359, Note_on_c, 14, 55, 0
16, 183598, Program_c, 14, 48
16, 183600, Note_on_c, 14, 43, 44
16, 183819, Note_on_c, 14, 43, 0
16, 183840, Note_on_c, 14, 48, 44
16, 184799, Note_on_c, 14, 48, 0
16, 184800, Note_on_c, 14, 51, 44
16, 185039, Note_on_c, 14, 51, 0
16, 185040, Note_on_c, 14, 55, 44
16, 185259, Note_on_c, 14, 55, 0
16, 185280, Note_on_c, 14, 60, 44
16, 185519, Note_on_c, 14, 60, 0
16, 185760, Note_on_c, 14, 63, 44
16, 185979, Note_on_c, 14, 63, 0
16, 186000, Note_on_c, 14, 62, 44
16, 186239, Note_on_c, 14, 62, 0
16, 186480, Note_on_c, 14, 54, 44
16, 186699, Note_on_c, 14, 54, 0
16, 186720, Note_on_c, 14, 55, 44
16, 188139, Note_on_c, 14, 55, 0
16, 188160, Note_on_c, 14, 48, 44
16, 189579, Note_on_c, 14, 48, 0
16, 189600, Note_on_c, 14, 43, 44
16, 190039, Note_on_c, 14, 43, 0
16, 190078, Program_c, 14, 45
16, 190080, Note_on_c, 14, 43, 48
16, 190319, Note_on_c, 14, 43, 0
16, 190320, Note_on_c, 14, 48, 48
16, 190559, Note_on_c, 14, 48, 0
16, 190560, Note_on_c, 14, 51, 48
16, 190799, Note_on_c, 14, 51, 0
16, 190800, Note_on_c, 14, 55, 48
16, 191039, Note_on_c, 14, 55, 0
16, 191040, Note_on_c, 14, 60, 48
16, 191279, Note_on_c, 14, 60, 0
16, 191520, Note_on_c, 14, 63, 48
16, 191759, Note_on_c, 14, 63, 0
16, 191760, Note_on_c, 14, 62, 48
16, 191999, Note_on_c, 14, 62, 0
16, 192240, Note_on_c, 14, 54, 48
16, 192479, Note_on_c, 14, 54, 0
16, 192480, Note_on_c, 14, 55, 48
16, 192719, Note_on_c, 14, 55, 0
16, 192960, Note_on_c, 14, 49, 48
16, 193199, Note_on_c, 14, 49, 0
16, 193200, Note_on_c, 14, 50, 48
16, 193439, Note_on_c, 14, 50, 0
16, 193680, Note_on_c, 14, 49, 48
16, 193919, Note_on_c, 14, 49, 0
16, 193920, Note_on_c, 14, 50, 48
16, 194159, Note_on_c, 14, 50, 0
16, 194400, Note_on_c, 14, 48, 48
16, 194639, Note_on_c, 14, 48, 0
16, 194640, Note_on_c, 14, 47, 48
16, 194879, Note_on_c, 14, 47, 0
16, 195120, Note_on_c, 14, 43, 48
16, 195359, Note_on_c, 14, 43, 0
16, 195360, Note_on_c, 14, 48, 48
16, 195599, Note_on_c, 14, 48, 0
16, 195840, Note_on_c, 14, 47, 48
16, 196079, Note_on_c, 14, 47, 0
16, 196080, Note_on_c, 14, 48, 48
16, 196319, Note_on_c, 14, 48, 0
16, 196560, Note_on_c, 14, 42, 48
16, 196799, Note_on_c, 14, 42, 0
16, 196800, Note_on_c, 14, 43, 48
16, 197039, Note_on_c, 14, 43, 0
16, 197520, Note_on_c, 14, 59, 44
16, 197759, Note_on_c, 14, 59, 0
16, 198240, Note_on_c, 14, 60, 44
16, 198479, Note_on_c, 14, 60, 0
16, 198960, Note_on_c, 14, 62, 44
16, 199199, Note_on_c, 14, 62, 0
16, 199680, Note_on_c, 14, 63, 44
16, 199919, Note_on_c, 14, 63, 0
16, 200400, Note_on_c, 14, 47, 44
16, 200639, Note_on_c, 14, 47, 0
16, 201120, Note_on_c, 14, 48, 44
16, 201359, Note_on_c, 14, 48, 0
16, 201600, Note_on_c, 14, 46, 44
16, 201839, Note_on_c, 14, 46, 0
16, 201840, Note_on_c, 14, 44, 44
16, 202079, Note_on_c, 14, 44, 0
16, 202320, Note_on_c, 14, 44, 44
16, 202559, Note_on_c, 14, 44, 0
16, 202560, Note_on_c, 14, 46, 44
16, 202799, Note_on_c, 14, 46, 0
16, 203280, Note_on_c, 14, 60, 44
16, 203519, Note_on_c, 14, 60, 0
16, 204000, Note_on_c, 14, 65, 44
16, 204239, Note_on_c, 14, 65, 0
16, 204720, Note_on_c, 14, 67, 44
16, 204959, Note_on_c, 14, 67, 0
16, 205440, Note_on_c, 14, 68, 44
16, 205679, Note_on_c, 14, 68, 0
16, 206160, Note_on_c, 14, 52, 44
16, 206399, Note_on_c, 14, 52, 0
16, 206880, Note_on_c, 14, 53, 44
16, 207119, Note_on_c, 14, 53, 0
16, 207600, Note_on_c, 14, 49, 44
16, 207839, Note_on_c, 14, 49, 0
16, 208080, Note_on_c, 14, 49, 44
16, 208319, Note_on_c, 14, 49, 0
16, 208320, Note_on_c, 14, 51, 44
16, 208559, Note_on_c, 14, 51, 0
16, 209040, Note_on_c, 14, 44, 44
16, 209279, Note_on_c, 14, 44, 0
16, 209760, Note_on_c, 14, 49, 44
16, 209999, Note_on_c, 14, 49, 0
16, 210240, Note_on_c, 14, 48, 44
16, 210479, Note_on_c, 14, 48, 0
16, 210480, Note_on_c, 14, 46, 44
16, 210719, Note_on_c, 14, 46, 0
16, 210960, Note_on_c, 14, 46, 44
16, 211199, Note_on_c, 14, 46, 0
16, 211200, Note_on_c, 14, 48, 44
16, 211439, Note_on_c, 14, 48, 0
16, 212400, Note_on_c, 14, 41, 44
16, 212639, Note_on_c, 14, 41, 0
16, 212640, Note_on_c, 14, 48, 44
16, 212879, Note_on_c, 14, 48, 0
16, 213840, Note_on_c, 14, 41, 44
16, 214079, Note_on_c, 14, 41, 0
16, 214080, Note_on_c, 14, 48, 44
16, 214319, Note_on_c, 14, 48, 0
16, 214560, Note_on_c, 14, 41, 44
16, 214799, Note_on_c, 14, 41, 0
16, 214800, Note_on_c, 14, 48, 44
16, 215039, Note_on_c, 14, 48, 0
16, 215280, Note_on_c, 14, 41, 44
16, 215519, Note_on_c, 14, 41, 0
16, 215520, Note_on_c, 14, 48, 44
16, 215759, Note_on_c, 14, 48, 0
16, 216000, Note_on_c, 14, 43, 44
16, 216239, Note_on_c, 14, 43, 0
16, 216240, Note_on_c, 14, 48, 44
16, 216479, Note_on_c, 14, 48, 0
16, 216480, Note_on_c, 14, 51, 44
16, 216719, Note_on_c, 14, 51, 0
16, 216720, Note_on_c, 14, 55, 44
16, 216959, Note_on_c, 14, 55, 0
16, 216960, Note_on_c, 14, 60, 44
16, 217199, Note_on_c, 14, 60, 0
16, 217440, Note_on_c, 14, 63, 44
16, 217679, Note_on_c, 14, 63, 0
16, 217680, Note_on_c, 14, 62, 44
16, 217919, Note_on_c, 14, 62, 0
16, 218160, Note_on_c, 14, 54, 44
16, 218399, Note_on_c, 14, 54, 0
16, 218400, Note_on_c, 14, 55, 44
16, 218639, Note_on_c, 14, 55, 0
16, 219120, Note_on_c, 14, 55, 44
16, 219359, Note_on_c, 14, 55, 0
16, 219600, Note_on_c, 14, 55, 44
16, 219839, Note_on_c, 14, 55, 0
16, 219840, Note_on_c, 14, 55, 44
16, 220079, Note_on_c, 14, 55, 0
16, 220320, Note_on_c, 14, 55, 44
16, 220559, Note_on_c, 14, 55, 0
16, 220560, Note_on_c, 14, 55, 44
16, 220799, Note_on_c, 14, 55, 0
16, 221040, Note_on_c, 14, 55, 44
16, 221279, Note_on_c, 14, 55, 0
16, 221280, Note_on_c, 14, 55, 44
16, 221519, Note_on_c, 14, 55, 0
16, 221760, Note_on_c, 14, 43, 44
16, 221999, Note_on_c, 14, 43, 0
16, 222000, Note_on_c, 14, 55, 44
16, 222239, Note_on_c, 14, 55, 0
16, 222480, Note_on_c, 14, 55, 44
16, 222719, Note_on_c, 14, 55, 0
16, 222720, Note_on_c, 14, 55, 44
16, 222959, Note_on_c, 14, 55, 0
16, 223200, Note_on_c, 14, 55, 44
16, 223439, Note_on_c, 14, 55, 0
16, 223440, Note_on_c, 14, 55, 44
16, 223679, Note_on_c, 14, 55, 0
16, 223920, Note_on_c, 14, 55, 44
16, 224159, Note_on_c, 14, 55, 0
16, 224160, Note_on_c, 14, 55, 44
16, 224399, Note_on_c, 14, 55, 0
16, 224640, Note_on_c, 14, 43, 44
16, 224879, Note_on_c, 14, 43, 0
16, 224880, Note_on_c, 14, 55, 44
16, 225119, Note_on_c, 14, 55, 0
16, 225360, Note_on_c, 14, 55, 44
16, 225599, Note_on_c, 14, 55, 0
16, 225600, Note_on_c, 14, 55, 44
16, 225839, Note_on_c, 14, 55, 0
16, 226080, Note_on_c, 14, 55, 44
16, 226319, Note_on_c, 14, 55, 0
16, 226320, Note_on_c, 14, 55, 44
16, 226559, Note_on_c, 14, 55, 0
16, 227040, Note_on_c, 14, 55, 44
16, 227279, Note_on_c, 14, 55, 0
16, 227520, Note_on_c, 14, 55, 44
16, 227759, Note_on_c, 14, 55, 0
16, 227760, Note_on_c, 14, 55, 44
16, 227999, Note_on_c, 14, 55, 0
16, 228480, Note_on_c, 14, 55, 44
16, 228719, Note_on_c, 14, 55, 0
16, 228960, Note_on_c, 14, 56, 44
16, 229199, Note_on_c, 14, 56, 0
16, 229200, Note_on_c, 14, 55, 44
16, 229439, Note_on_c, 14, 55, 0
16, 229680, Note_on_c, 14, 59, 44
16, 229919, Note_on_c, 14, 59, 0
16, 229920, Note_on_c, 14, 60, 44
16, 230159, Note_on_c, 14, 60, 0
16, 230400, Note_on_c, 14, 56, 44
16, 230639, Note_on_c, 14, 56, 0
16, 230640, Note_on_c, 14, 55, 44
16, 230879, Note_on_c, 14, 55, 0
16, 231120, Note_on_c, 14, 47, 44
16, 231359, Note_on_c, 14, 47, 0
16, 231360, Note_on_c, 14, 48, 44
16, 231599, Note_on_c, 14, 48, 0
16, 231840, Note_on_c, 14, 56, 44
16, 232079, Note_on_c, 14, 56, 0
16, 232080, Note_on_c, 14, 55, 44
16, 232319, Note_on_c, 14, 55, 0
16, 232560, Note_on_c, 14, 59, 44
16, 232799, Note_on_c, 14, 59, 0
16, 232800, Note_on_c, 14, 60, 44
16, 233039, Note_on_c, 14, 60, 0
16, 233280, Note_on_c, 14, 56, 44
16, 233519, Note_on_c, 14, 56, 0
16, 233520, Note_on_c, 14, 55, 44
16, 233759, Note_on_c, 14, 55, 0
16, 234000, Note_on_c, 14, 47, 44
16, 234239, Note_on_c, 14, 47, 0
16, 234240, Note_on_c, 14, 48, 44
16, 234479, Note_on_c, 14, 48, 0
16, 234720, Note_on_c, 14, 56, 44
16, 234959, Note_on_c, 14, 56, 0
16, 234960, Note_on_c, 14, 55, 44
16, 235199, Note_on_c, 14, 55, 0
16, 235440, Note_on_c, 14, 59, 44
16, 235679, Note_on_c, 14, 59, 0
16, 235680, Note_on_c, 14, 60, 44
16, 235919, Note_on_c, 14, 60, 0
16, 236160, Note_on_c, 14, 58, 44
16, 236399, Note_on_c, 14, 58, 0
16, 236400, Note_on_c, 14, 56, 44
16, 236639, Note_on_c, 14, 56, 0
16, 236880, Note_on_c, 14, 53, 44
16, 237119, Note_on_c, 14, 53, 0
16, 237120, Note_on_c, 14, 55, 44
16, 237359, Note_on_c, 14, 55, 0
16, 237600, Note_on_c, 14, 53, 44
16, 237839, Note_on_c, 14, 53, 0
16, 237840, Note_on_c, 14, 51, 44
16, 238079, Note_on_c, 14, 51, 0
16, 238320, Note_on_c, 14, 50, 44
16, 238559, Note_on_c, 14, 50, 0
16, 238560, Note_on_c, 14, 48, 44
16, 238799, Note_on_c, 14, 48, 0
16, 239040, Note_on_c, 14, 46, 44
16, 239279, Note_on_c, 14, 46, 0
16, 239280, Note_on_c, 14, 44, 44
16, 239519, Note_on_c, 14, 44, 0
16, 239760, Note_on_c, 14, 43, 44
16, 239999, Note_on_c, 14, 43, 0
16, 240000, Note_on_c, 14, 41, 44
16, 240239, Note_on_c, 14, 41, 0
16, 240480, Note_on_c, 14, 42, 44
16, 240719, Note_on_c, 14, 42, 0
16, 240720, Note_on_c, 14, 43, 44
16, 240959, Note_on_c, 14, 43, 0
16, 240960, Note_on_c, 14, 43, 44
16, 241199, Note_on_c, 14, 43, 0
16, 241200, Note_on_c, 14, 43, 44
16, 241439, Note_on_c, 14, 43, 0
16, 241440, Note_on_c, 14, 36, 44
16, 241679, Note_on_c, 14, 36, 0
16, 242160, Note_on_c, 14, 47, 44
16, 242399, Note_on_c, 14, 47, 0
16, 242400, Note_on_c, 14, 47, 44
16, 242639, Note_on_c, 14, 47, 0
16, 242640, Note_on_c, 14, 47, 44
16, 242879, Note_on_c, 14, 47, 0
16, 242880, Note_on_c, 14, 48, 44
16, 243119, Note_on_c, 14, 48, 0
16, 243600, Note_on_c, 14, 50, 44
16, 243839, Note_on_c, 14, 50, 0
16, 243840, Note_on_c, 14, 50, 44
16, 244079, Note_on_c, 14, 50, 0
16, 244080, Note_on_c, 14, 50, 44
16, 244319, Note_on_c, 14, 50, 0
16, 244320, Note_on_c, 14, 51, 44
16, 244559, Note_on_c, 14, 51, 0
16, 245040, Note_on_c, 14, 40, 44
16, 245279, Note_on_c, 14, 40, 0
16, 245280, Note_on_c, 14, 40, 44
16, 245519, Note_on_c, 14, 40, 0
16, 245520, Note_on_c, 14, 40, 44
16, 245759, Note_on_c, 14, 40, 0
16, 245760, Note_on_c, 14, 41, 44
16, 245999, Note_on_c, 14, 41, 0
16, 246480, Note_on_c, 14, 43, 44
16, 246719, Note_on_c, 14, 43, 0
16, 246960, Program_c, 14, 48
16, 247200, Note_on_c, 14, 44, 40
16, 248639, Note_on_c, 14, 44, 0
16, 248640, Note_on_c, 14, 44, 40
16, 250079, Note_on_c, 14, 44, 0
16, 250080, Note_on_c, 14, 44, 40
16, 251519, Note_on_c, 14, 44, 0
16, 251520, Note_on_c, 14, 44, 40
16, 252959, Note_on_c, 14, 44, 0
16, 252960, Note_on_c, 14, 44, 40
16, 254399, Note_on_c, 14, 44, 0
16, 254400, Note_on_c, 14, 44, 40
16, 255839, Note_on_c, 14, 44, 0
16, 255840, Note_on_c, 14, 44, 44
16, 257279, Note_on_c, 14, 44, 0
16, 257280, Note_on_c, 14, 44, 44
16, 258219, Note_on_c, 14, 44, 0
16, 258240, Note_on_c, 14, 44, 44
16, 258459, Note_on_c, 14, 44, 0
16, 258480, Note_on_c, 14, 44, 44
16, 258699, Note_on_c, 14, 44, 0
16, 258720, Note_on_c, 14, 44, 44
16, 258939, Note_on_c, 14, 44, 0
16, 258960, Note_on_c, 14, 44, 44
16, 259179, Note_on_c, 14, 44, 0
16, 259200, Note_on_c, 14, 44, 44
16, 259419, Note_on_c, 14, 44, 0
16, 259440, Note_on_c, 14, 44, 44
16, 259679, Note_on_c, 14, 44, 0
16, 260400, Note_on_c, 14, 43, 44
16, 260619, Note_on_c, 14, 43, 0
16, 260640, Note_on_c, 14, 43, 44
16, 260859, Note_on_c, 14, 43, 0
16, 260880, Note_on_c, 14, 43, 44
16, 261119, Note_on_c, 14, 43, 0
16, 261840, Note_on_c, 14, 42, 44
16, 262059, Note_on_c, 14, 42, 0
16, 262080, Note_on_c, 14, 42, 44
16, 262299, Note_on_c, 14, 42, 0
16, 262320, Note_on_c, 14, 42, 44
16, 262559, Note_on_c, 14, 42, 0
16, 263280, Note_on_c, 14, 43, 44
16, 263499, Note_on_c, 14, 43, 0
16, 263520, Note_on_c, 14, 43, 44
16, 263739, Note_on_c, 14, 43, 0
16, 263760, Note_on_c, 14, 43, 44
16, 263999, Note_on_c, 14, 43, 0
16, 264720, Note_on_c, 14, 44, 44
16, 264939, Note_on_c, 14, 44, 0
16, 264960, Note_on_c, 14, 44, 44
16, 265179, Note_on_c, 14, 44, 0
16, 265200, Note_on_c, 14, 44, 44
16, 265439, Note_on_c, 14, 44, 0
16, 266160, Note_on_c, 14, 43, 44
16, 266379, Note_on_c, 14, 43, 0
16, 266400, Note_on_c, 14, 43, 44
16, 266619, Note_on_c, 14, 43, 0
16, 266640, Note_on_c, 14, 43, 44
16, 266859, Note_on_c, 14, 43, 0
16, 266880, Note_on_c, 14, 43, 44
16, 267099, Note_on_c, 14, 43, 0
16, 267120, Note_on_c, 14, 43, 44
16, 267339, Note_on_c, 14, 43, 0
16, 267360, Note_on_c, 14, 43, 44
16, 267579, Note_on_c, 14, 43, 0
16, 267600, Note_on_c, 14, 43, 44
16, 267819, Note_on_c, 14, 43, 0
16, 267840, Note_on_c, 14, 43, 44
16, 268059, Note_on_c, 14, 43, 0
16, 268080, Note_on_c, 14, 43, 44
16, 268299, Note_on_c, 14, 43, 0
16, 268320, Note_on_c, 14, 43, 44
16, 268539, Note_on_c, 14, 43, 0
16, 268560, Note_on_c, 14, 43, 44
16, 268779, Note_on_c, 14, 43, 0
16, 268800, Note_on_c, 14, 43, 44
16, 269019, Note_on_c, 14, 43, 0
16, 269040, Note_on_c, 14, 43, 44
16, 269259, Note_on_c, 14, 43, 0
16, 269280, Note_on_c, 14, 43, 44
16, 269499, Note_on_c, 14, 43, 0
16, 269520, Note_on_c, 14, 43, 44
16, 269739, Note_on_c, 14, 43, 0
16, 269760, Note_on_c, 14, 43, 44
16, 269979, Note_on_c, 14, 43, 0
16, 270000, Note_on_c, 14, 43, 44
16, 270219, Note_on_c, 14, 43, 0
16, 270240, Note_on_c, 14, 43, 44
16, 270459, Note_on_c, 14, 43, 0
16, 270480, Note_on_c, 14, 43, 44
16, 270699, Note_on_c, 14, 43, 0
16, 270720, Note_on_c, 14, 43, 44
16, 270939, Note_on_c, 14, 43, 0
16, 270960, Note_on_c, 14, 43, 44
16, 271179, Note_on_c, 14, 43, 0
16, 271200, Note_on_c, 14, 43, 44
16, 271419, Note_on_c, 14, 43, 0
16, 271440, Note_on_c, 14, 43, 44
16, 271659, Note_on_c, 14, 43, 0
16, 271680, Note_on_c, 14, 43, 44
16, 271899, Note_on_c, 14, 43, 0
16, 271920, Note_on_c, 14, 43, 44
16, 272139, Note_on_c, 14, 43, 0
16, 272160, Note_on_c, 14, 43, 44
16, 272379, Note_on_c, 14, 43, 0
16, 272400, Note_on_c, 14, 43, 44
16, 272619, Note_on_c, 14, 43, 0
16, 272640, Note_on_c, 14, 43, 44
16, 272859, Note_on_c, 14, 43, 0
16, 272880, Note_on_c, 14, 43, 44
16, 273099, Note_on_c, 14, 43, 0
16, 273120, Note_on_c, 14, 43, 44
16, 273339, Note_on_c, 14, 43, 0
16, 273360, Note_on_c, 14, 43, 44
16, 273579, Note_on_c, 14, 43, 0
16, 273600, Note_on_c, 14, 43, 44
16, 273819, Note_on_c, 14, 43, 0
16, 273840, Note_on_c, 14, 43, 44
16, 274059, Note_on_c, 14, 43, 0
16, 274080, Note_on_c, 14, 43, 44
16, 274299, Note_on_c, 14, 43, 0
16, 274320, Note_on_c, 14, 43, 44
16, 274539, Note_on_c, 14, 43, 0
16, 274560, Note_on_c, 14, 43, 44
16, 274779, Note_on_c, 14, 43, 0
16, 274800, Note_on_c, 14, 43, 44
16, 275019, Note_on_c, 14, 43, 0
16, 275040, Note_on_c, 14, 43, 44
16, 275259, Note_on_c, 14, 43, 0
16, 275280, Note_on_c, 14, 43, 44
16, 275499, Note_on_c, 14, 43, 0
16, 275520, Note_on_c, 14, 43, 44
16, 275739, Note_on_c, 14, 43, 0
16, 275760, Note_on_c, 14, 43, 44
16, 275979, Note_on_c, 14, 43, 0
16, 276000, Note_on_c, 14, 43, 44
16, 276219, Note_on_c, 14, 43, 0
16, 276240, Note_on_c, 14, 43, 44
16, 276459, Note_on_c, 14, 43, 0
16, 276480, Note_on_c, 14, 43, 44
16, 276699, Note_on_c, 14, 43, 0
16, 276720, Note_on_c, 14, 43, 44
16, 276939, Note_on_c, 14, 43, 0
16, 276960, Note_on_c, 14, 43, 44
16, 277179, Note_on_c, 14, 43, 0
16, 277200, Note_on_c, 14, 43, 44
16, 277419, Note_on_c, 14, 43, 0
16, 277440, Note_on_c, 14, 43, 44
16, 277539, Note_on_c, 14, 43, 0
16, 277560, Note_on_c, 14, 43, 44
16, 277659, Note_on_c, 14, 43, 0
16, 277680, Note_on_c, 14, 43, 45
16, 277779, Note_on_c, 14, 43, 0
16, 277800, Note_on_c, 14, 43, 46
16, 277899, Note_on_c, 14, 43, 0
16, 277920, Note_on_c, 14, 43, 47
16, 278019, Note_on_c, 14, 43, 0
16, 278040, Note_on_c, 14, 43, 48
16, 278139, Note_on_c, 14, 43, 0
16, 278160, Note_on_c, 14, 43, 49
16, 278259, Note_on_c, 14, 43, 0
16, 278280, Note_on_c, 14, 43, 49
16, 278379, Note_on_c, 14, 43, 0
16, 278400, Note_on_c, 14, 43, 50
16, 278499, Note_on_c, 14, 43, 0
16, 278520, Note_on_c, 14, 43, 51
16, 278619, Note_on_c, 14, 43, 0
16, 278640, Note_on_c, 14, 43, 52
16, 278739, Note_on_c, 14, 43, 0
16, 278760, Note_on_c, 14, 43, 53
16, 278859, Note_on_c, 14, 43, 0
16, 278880, Note_on_c, 14, 43, 54
16, 278979, Note_on_c, 14, 43, 0
16, 279000, Note_on_c, 14, 43, 54
16, 279099, Note_on_c, 14, 43, 0
16, 279120, Note_on_c, 14, 43, 55
16, 279219, Note_on_c, 14, 43, 0
16, 279240, Note_on_c, 14, 43, 56
16, 279339, Note_on_c, 14, 43, 0
16, 279360, Note_on_c, 14, 43, 57
16, 279459, Note_on_c, 14, 43, 0
16, 279480, Note_on_c, 14, 43, 58
16, 279579, Note_on_c, 14, 43, 0
16, 279600, Note_on_c, 14, 43, 59
16, 279699, Note_on_c, 14, 43, 0
16, 279720, Note_on_c, 14, 43, 59
16, 279819, Note_on_c, 14, 43, 0
16, 279840, Note_on_c, 14, 43, 60
16, 279939, Note_on_c, 14, 43, 0
16, 279960, Note_on_c, 14, 43, 61
16, 280059, Note_on_c, 14, 43, 0
16, 280080, Note_on_c, 14, 43, 62
16, 280179, Note_on_c, 14, 43, 0
16, 280200, Note_on_c, 14, 43, 63
16, 280299, Note_on_c, 14, 43, 0
16, 280320, Note_on_c, 14, 43, 64
16, 280419, Note_on_c, 14, 43, 0
16, 280440, Note_on_c, 14, 43, 64
16, 280539, Note_on_c, 14, 43, 0
16, 280560, Note_on_c, 14, 43, 65
16, 280659, Note_on_c, 14, 43, 0
16, 280680, Note_on_c, 14, 43, 66
16, 280779, Note_on_c, 14, 43, 0
16, 280800, Note_on_c, 14, 43, 67
16, 280899, Note_on_c, 14, 43, 0
16, 280920, Note_on_c, 14, 43, 68
16, 281019, Note_on_c, 14, 43, 0
16, 281040, Note_on_c, 14, 43, 69
16, 281139, Note_on_c, 14, 43, 0
16, 281160, Note_on_c, 14, 43, 69
16, 281259, Note_on_c, 14, 43, 0
16, 281280, Note_on_c, 14, 43, 70
16, 281379, Note_on_c, 14, 43, 0
16, 281400, Note_on_c, 14, 43, 71
16, 281499, Note_on_c, 14, 43, 0
16, 281520, Note_on_c, 14, 43, 72
16, 281619, Note_on_c, 14, 43, 0
16, 281640, Note_on_c, 14, 43, 73
16, 281739, Note_on_c, 14, 43, 0
16, 281760, Note_on_c, 14, 43, 74
16, 281859, Note_on_c, 14, 43, 0
16, 281880, Note_on_c, 14, 43, 74
16, 281979, Note_on_c, 14, 43, 0
16, 282000, Note_on_c, 14, 43, 75
16, 282099, Note_on_c, 14, 43, 0
16, 282120, Note_on_c, 14, 43, 76
16, 282219, Note_on_c, 14, 43, 0
16, 282240, Note_on_c, 14, 43, 77
16, 282339, Note_on_c, 14, 43, 0
16, 282360, Note_on_c, 14, 43, 78
16, 282459, Note_on_c, 14, 43, 0
16, 282480, Note_on_c, 14, 43, 79
16, 282579, Note_on_c, 14, 43, 0
16, 282600, Note_on_c, 14, 43, 79
16, 282699, Note_on_c, 14, 43, 0
16, 282720, Note_on_c, 14, 43, 80
16, 282819, Note_on_c, 14, 43, 0
16, 282840, Note_on_c, 14, 43, 81
16, 282939, Note_on_c, 14, 43, 0
16, 282960, Note_on_c, 14, 43, 82
16, 283059, Note_on_c, 14, 43, 0
16, 283080, Note_on_c, 14, 43, 83
16, 283179, Note_on_c, 14, 43, 0
16, 283179, End_track
17, 0, Start_track
17, 0, Title_t, "Contrabass"
17, 0, MIDI_port, 0
17, 0, Program_c, 15, 48
17, 0, Control_c, 15, 7, 88
17, 0, Control_c, 15, 10, 100
17, 0, Control_c, 15, 11, 127
17, 0, Note_on_c, 15, 31, 44
17, 239, Note_on_c, 15, 31, 0
17, 240, Note_on_c, 15, 36, 44
17, 479, Note_on_c, 15, 36, 0
17, 480, Note_on_c, 15, 39, 44
17, 719, Note_on_c, 15, 39, 0
17, 720, Note_on_c, 15, 43, 44
17, 959, Note_on_c, 15, 43, 0
17, 960, Note_on_c, 15, 48, 44
17, 1439, Note_on_c, 15, 48, 0
17, 1440, Note_on_c, 15, 51, 44
17, 1679, Note_on_c, 15, 51, 0
17, 1680, Note_on_c, 15, 50, 44
17, 2159, Note_on_c, 15, 50, 0
17, 2160, Note_on_c, 15, 42, 44
17, 2379, Note_on_c, 15, 42, 0
17, 2400, Note_on_c, 15, 43, 44
17, 3819, Note_on_c, 15, 43, 0
17, 3840, Note_on_c, 15, 36, 44
17, 5259, Note_on_c, 15, 36, 0
17, 5280, Note_on_c, 15, 31, 44
17, 5719, Note_on_c, 15, 31, 0
17, 5760, Note_on_c, 15, 31, 44
17, 5999, Note_on_c, 15, 31, 0
17, 6000, Note_on_c, 15, 36, 44
17, 6239, Note_on_c, 15, 36, 0
17, 6240, Note_on_c, 15, 39, 44
17, 6479, Note_on_c, 15, 39, 0
17, 6480, Note_on_c, 15, 43, 44
17, 6719, Note_on_c, 15, 43, 0
17, 6720, Note_on_c, 15, 48, 44
17, 7199, Note_on_c, 15, 48, 0
17, 7200, Note_on_c, 15, 51, 44
17, 7439, Note_on_c, 15, 51, 0
17, 7440, Note_on_c, 15, 50, 44
17, 7919, Note_on_c, 15, 50, 0
17, 7920, Note_on_c, 15, 42, 44
17, 8159, Note_on_c, 15, 42, 0
17, 8160, Note_on_c, 15, 43, 44
17, 8639, Note_on_c, 15, 43, 0
17, 8640, Note_on_c, 15, 37, 44
17, 8859, Note_on_c, 15, 37, 0
17, 8880, Note_on_c, 15, 38, 68
17, 8999, Note_on_c, 15, 38, 0
17, 9000, Note_on_c, 15, 38, 52
17, 10059, Note_on_c, 15, 38, 0
17, 10080, Note_on_c, 15, 36, 52
17, 10319, Note_on_c, 15, 36, 0
17, 10320, Note_on_c, 15, 35, 52
17, 10799, Note_on_c, 15, 35, 0
17, 10800, Note_on_c, 15, 31, 52
17, 11039, Note_on_c, 15, 31, 0
17, 11040, Note_on_c, 15, 36, 52
17, 11519, Note_on_c, 15, 36, 0
17, 11520, Note_on_c, 15, 35, 52
17, 11739, Note_on_c, 15, 35, 0
17, 11760, Note_on_c, 15, 36, 52
17, 12199, Note_on_c, 15, 36, 0
17, 12240, Note_on_c, 15, 30, 52
17, 12439, Note_on_c, 15, 30, 0
17, 12480, Note_on_c, 15, 31, 52
17, 13199, Note_on_c, 15, 31, 0
17, 13920, Note_on_c, 15, 36, 76
17, 14159, Note_on_c, 15, 36, 0
17, 14640, Note_on_c, 15, 38, 76
17, 14879, Note_on_c, 15, 38, 0
17, 15360, Note_on_c, 15, 39, 76
17, 15599, Note_on_c, 15, 39, 0
17, 16080, Note_on_c, 15, 35, 76
17, 16319, Note_on_c, 15, 35, 0
17, 16800, Note_on_c, 15, 36, 76
17, 17039, Note_on_c, 15, 36, 0
17, 17280, Note_on_c, 15, 34, 76
17, 17499, Note_on_c, 15, 34, 0
17, 17520, Note_on_c, 15, 32, 76
17, 17759, Note_on_c, 15, 32, 0
17, 18000, Note_on_c, 15, 32, 76
17, 18219, Note_on_c, 15, 32, 0
17, 18240, Note_on_c, 15, 34, 76
17, 18479, Note_on_c, 15, 34, 0
17, 18960, Note_on_c, 15, 34, 76
17, 19659, Note_on_c, 15, 34, 0
17, 19680, Note_on_c, 15, 39, 76
17, 20379, Note_on_c, 15, 39, 0
17, 20400, Note_on_c, 15, 41, 76
17, 21099, Note_on_c, 15, 41, 0
17, 21120, Note_on_c, 15, 42, 76
17, 21819, Note_on_c, 15, 42, 0
17, 21840, Note_on_c, 15, 38, 76
17, 22539, Note_on_c, 15, 38, 0
17, 22560, Note_on_c, 15, 39, 76
17, 23039, Note_on_c, 15, 39, 0
17, 23040, Note_on_c, 15, 37, 76
17, 23259, Note_on_c, 15, 37, 0
17, 23280, Note_on_c, 15, 35, 76
17, 23739, Note_on_c, 15, 35, 0
17, 23760, Note_on_c, 15, 35, 76
17, 23979, Note_on_c, 15, 35, 0
17, 24000, Note_on_c, 15, 37, 76
17, 24699, Note_on_c, 15, 37, 0
17, 24720, Note_on_c, 15, 30, 76
17, 25419, Note_on_c, 15, 30, 0
17, 25440, Note_on_c, 15, 35, 76
17, 25919, Note_on_c, 15, 35, 0
17, 25920, Note_on_c, 15, 34, 76
17, 26139, Note_on_c, 15, 34, 0
17, 26160, Note_on_c, 15, 32, 76
17, 26619, Note_on_c, 15, 32, 0
17, 26640, Note_on_c, 15, 32, 76
17, 26859, Note_on_c, 15, 32, 0
17, 26880, Note_on_c, 15, 34, 84
17, 26999, Note_on_c, 15, 34, 0
17, 27000, Note_on_c, 15, 34, 76
17, 28079, Note_on_c, 15, 34, 0
17, 28080, Note_on_c, 15, 27, 76
17, 28299, Note_on_c, 15, 27, 0
17, 28320, Note_on_c, 15, 34, 84
17, 28439, Note_on_c, 15, 34, 0
17, 28440, Note_on_c, 15, 34, 76
17, 29519, Note_on_c, 15, 34, 0
17, 29520, Note_on_c, 15, 27, 76
17, 29739, Note_on_c, 15, 27, 0
17, 29760, Note_on_c, 15, 34, 84
17, 29879, Note_on_c, 15, 34, 0
17, 29880, Note_on_c, 15, 34, 76
17, 30239, Note_on_c, 15, 34, 0
17, 30240, Note_on_c, 15, 27, 76
17, 30459, Note_on_c, 15, 27, 0
17, 30480, Note_on_c, 15, 34, 84
17, 30599, Note_on_c, 15, 34, 0
17, 30600, Note_on_c, 15, 34, 76
17, 30959, Note_on_c, 15, 34, 0
17, 30960, Note_on_c, 15, 27, 76
17, 31179, Note_on_c, 15, 27, 0
17, 31200, Note_on_c, 15, 34, 76
17, 31200, Control_c, 15, 11, 127
17, 31260, Control_c, 15, 11, 122
17, 31320, Control_c, 15, 11, 117
17, 31380, Control_c, 15, 11, 111
17, 31440, Control_c, 15, 11, 106
17, 31500, Control_c, 15, 11, 101
17, 31560, Control_c, 15, 11, 96
17, 31620, Control_c, 15, 11, 90
17, 31680, Control_c, 15, 11, 85
17, 31740, Control_c, 15, 11, 80
17, 31800, Control_c, 15, 11, 75
17, 31860, Control_c, 15, 11, 69
17, 31920, Control_c, 15, 11, 64
17, 32159, Note_on_c, 15, 34, 0
17, 32160, Note_on_c, 15, 37, 76
17, 32399, Note_on_c, 15, 37, 0
17, 32400, Note_on_c, 15, 41, 76
17, 32639, Note_on_c, 15, 41, 0
17, 32640, Note_on_c, 15, 46, 76
17, 33119, Note_on_c, 15, 46, 0
17, 33120, Note_on_c, 15, 49, 76
17, 33359, Note_on_c, 15, 49, 0
17, 33360, Note_on_c, 15, 48, 76
17, 33839, Note_on_c, 15, 48, 0
17, 33840, Note_on_c, 15, 40, 76
17, 34079, Note_on_c, 15, 40, 0
17, 34080, Note_on_c, 15, 41, 76
17, 35499, Note_on_c, 15, 41, 0
17, 35520, Note_on_c, 15, 34, 76
17, 36939, Note_on_c, 15, 34, 0
17, 36960, Note_on_c, 15, 29, 76
17, 37399, Note_on_c, 15, 29, 0
17, 37440, Note_on_c, 15, 29, 76
17, 37679, Note_on_c, 15, 29, 0
17, 37680, Note_on_c, 15, 34, 76
17, 37919, Note_on_c, 15, 34, 0
17, 37920, Note_on_c, 15, 37, 76
17, 38159, Note_on_c, 15, 37, 0
17, 38160, Note_on_c, 15, 41, 76
17, 38399, Note_on_c, 15, 41, 0
17, 38400, Note_on_c, 15, 46, 76
17, 38879, Note_on_c, 15, 46, 0
17, 38880, Note_on_c, 15, 49, 76
17, 39119, Note_on_c, 15, 49, 0
17, 39120, Note_on_c, 15, 48, 76
17, 39599, Note_on_c, 15, 48, 0
17, 39600, Note_on_c, 15, 40, 76
17, 39819, Note_on_c, 15, 40, 0
17, 39840, Note_on_c, 15, 41, 76
17, 40319, Note_on_c, 15, 41, 0
17, 40320, Note_on_c, 15, 56, 76
17, 40559, Note_on_c, 15, 56, 0
17, 40560, Note_on_c, 15, 55, 76
17, 41039, Note_on_c, 15, 55, 0
17, 41040, Note_on_c, 15, 47, 76
17, 41279, Note_on_c, 15, 47, 0
17, 41280, Note_on_c, 15, 48, 76
17, 41759, Note_on_c, 15, 48, 0
17, 41760, Note_on_c, 15, 51, 76
17, 41999, Note_on_c, 15, 51, 0
17, 42000, Note_on_c, 15, 50, 76
17, 42479, Note_on_c, 15, 50, 0
17, 42480, Note_on_c, 15, 42, 76
17, 42719, Note_on_c, 15, 42, 0
17, 42720, Note_on_c, 15, 43, 76
17, 43199, Note_on_c, 15, 43, 0
17, 43200, Note_on_c, 15, 37, 76
17, 43419, Note_on_c, 15, 37, 0
17, 43440, Note_on_c, 15, 38, 76
17, 44139, Note_on_c, 15, 38, 0
17, 44160, Note_on_c, 15, 43, 76
17, 44639, Note_on_c, 15, 43, 0
17, 44640, Note_on_c, 15, 37, 76
17, 44859, Note_on_c, 15, 37, 0
17, 44880, Note_on_c, 15, 38, 76
17, 45579, Note_on_c, 15, 38, 0
17, 45600, Note_on_c, 15, 43, 76
17, 45839, Note_on_c, 15, 43, 0
17, 45840, Note_on_c, 15, 37, 76
17, 46079, Note_on_c, 15, 37, 0
17, 46080, Note_on_c, 15, 38, 76
17, 46299, Note_on_c, 15, 38, 0
17, 46320, Note_on_c, 15, 43, 76
17, 46559, Note_on_c, 15, 43, 0
17, 46560, Note_on_c, 15, 37, 76
17, 46799, Note_on_c, 15, 37, 0
17, 46800, Note_on_c, 15, 38, 76
17, 47019, Note_on_c, 15, 38, 0
17, 47040, Note_on_c, 15, 43, 76
17, 47279, Note_on_c, 15, 43, 0
17, 47280, Note_on_c, 15, 37, 76
17, 47519, Note_on_c, 15, 37, 0
17, 47520, Note_on_c, 15, 38, 76
17, 47739, Note_on_c, 15, 38, 0
17, 47760, Note_on_c, 15, 43, 76
17, 47760, Control_c, 15, 11, 64
17, 47840, Control_c, 15, 11, 66
17, 47920, Control_c, 15, 11, 68
17, 47999, Note_on_c, 15, 43, 0
17, 48000, Control_c, 15, 11, 69
17, 48000, Note_on_c, 15, 38, 76
17, 48080, Control_c, 15, 11, 71
17, 48160, Control_c, 15, 11, 73
17, 48239, Note_on_c, 15, 38, 0
17, 48240, Note_on_c, 15, 39, 76
17, 48240, Control_c, 15, 11, 75
17, 48320, Control_c, 15, 11, 76
17, 48400, Control_c, 15, 11, 78
17, 48459, Note_on_c, 15, 39, 0
17, 48480, Note_on_c, 15, 44, 76
17, 48480, Control_c, 15, 11, 80
17, 48560, Control_c, 15, 11, 82
17, 48640, Control_c, 15, 11, 83
17, 48719, Note_on_c, 15, 44, 0
17, 48720, Note_on_c, 15, 40, 76
17, 48720, Control_c, 15, 11, 85
17, 48800, Control_c, 15, 11, 87
17, 48880, Control_c, 15, 11, 89
17, 48959, Note_on_c, 15, 40, 0
17, 48960, Note_on_c, 15, 41, 76
17, 48960, Control_c, 15, 11, 90
17, 49040, Control_c, 15, 11, 92
17, 49120, Control_c, 15, 11, 94
17, 49179, Note_on_c, 15, 41, 0
17, 49200, Control_c, 15, 11, 96
17, 49200, Note_on_c, 15, 47, 76
17, 49280, Control_c, 15, 11, 97
17, 49360, Control_c, 15, 11, 99
17, 49439, Note_on_c, 15, 47, 0
17, 49440, Control_c, 15, 11, 101
17, 49440, Note_on_c, 15, 42, 76
17, 49520, Control_c, 15, 11, 103
17, 49600, Control_c, 15, 11, 104
17, 49679, Note_on_c, 15, 42, 0
17, 49680, Control_c, 15, 11, 106
17, 49680, Note_on_c, 15, 43, 76
17, 49760, Control_c, 15, 11, 108
17, 49840, Control_c, 15, 11, 110
17, 49899, Note_on_c, 15, 43, 0
17, 49920, Note_on_c, 15, 48, 76
17, 49920, Control_c, 15, 11, 111
17, 50000, Control_c, 15, 11, 113
17, 50080, Control_c, 15, 11, 115
17, 50159, Note_on_c, 15, 48, 0
17, 50160, Control_c, 15, 11, 117
17, 50160, Note_on_c, 15, 44, 76
17, 50240, Control_c, 15, 11, 118
17, 50320, Control_c, 15, 11, 120
17, 50399, Note_on_c, 15, 44, 0
17, 50400, Note_on_c, 15, 45, 76
17, 50400, Control_c, 15, 11, 122
17, 50480, Control_c, 15, 11, 124
17, 50560, Control_c, 15, 11, 127
17, 50619, Note_on_c, 15, 45, 0
17, 50640, Note_on_c, 15, 47, 76
17, 51339, Note_on_c, 15, 47, 0
17, 51360, Note_on_c, 15, 48, 76
17, 52059, Note_on_c, 15, 48, 0
17, 52080, Note_on_c, 15, 50, 76
17, 52779, Note_on_c, 15, 50, 0
17, 52800, Note_on_c, 15, 51, 76
17, 53499, Note_on_c, 15, 51, 0
17, 53520, Note_on_c, 15, 47, 76
17, 54219, Note_on_c, 15, 47, 0
17, 54240, Note_on_c, 15, 48, 76
17, 54699, Note_on_c, 15, 48, 0
17, 54720, Note_on_c, 15, 46, 76
17, 54939, Note_on_c, 15, 46, 0
17, 54960, Note_on_c, 15, 44, 76
17, 55419, Note_on_c, 15, 44, 0
17, 55440, Note_on_c, 15, 44, 76
17, 55659, Note_on_c, 15, 44, 0
17, 55680, Note_on_c, 15, 46, 76
17, 56379, Note_on_c, 15, 46, 0
17, 56400, Note_on_c, 15, 36, 76
17, 57099, Note_on_c, 15, 36, 0
17, 57120, Note_on_c, 15, 41, 76
17, 57819, Note_on_c, 15, 41, 0
17, 57840, Note_on_c, 15, 43, 76
17, 58539, Note_on_c, 15, 43, 0
17, 58560, Note_on_c, 15, 44, 76
17, 59259, Note_on_c, 15, 44, 0
17, 59280, Note_on_c, 15, 40, 84
17, 59979, Note_on_c, 15, 40, 0
17, 60000, Note_on_c, 15, 41, 84
17, 60459, Note_on_c, 15, 41, 0
17, 60480, Note_on_c, 15, 39, 84
17, 60699, Note_on_c, 15, 39, 0
17, 60720, Note_on_c, 15, 37, 84
17, 61179, Note_on_c, 15, 37, 0
17, 61200, Note_on_c, 15, 37, 84
17, 61419, Note_on_c, 15, 37, 0
17, 61440, Note_on_c, 15, 39, 84
17, 62139, Note_on_c, 15, 39, 0
17, 62160, Note_on_c, 15, 32, 84
17, 62859, Note_on_c, 15, 32, 0
17, 62880, Note_on_c, 15, 37, 84
17, 63339, Note_on_c, 15, 37, 0
17, 63360, Note_on_c, 15, 36, 84
17, 63579, Note_on_c, 15, 36, 0
17, 63600, Note_on_c, 15, 34, 84
17, 64059, Note_on_c, 15, 34, 0
17, 64080, Note_on_c, 15, 34, 84
17, 64299, Note_on_c, 15, 34, 0
17, 64320, Note_on_c, 15, 36, 92
17, 64439, Note_on_c, 15, 36, 0
17, 64440, Note_on_c, 15, 36, 84
17, 65519, Note_on_c, 15, 36, 0
17, 65520, Note_on_c, 15, 29, 84
17, 65739, Note_on_c, 15, 29, 0
17, 65760, Note_on_c, 15, 36, 92
17, 65879, Note_on_c, 15, 36, 0
17, 65880, Note_on_c, 15, 36, 84
17, 66959, Note_on_c, 15, 36, 0
17, 66960, Note_on_c, 15, 29, 84
17, 67179, Note_on_c, 15, 29, 0
17, 67200, Note_on_c, 15, 36, 92
17, 67319, Note_on_c, 15, 36, 0
17, 67320, Note_on_c, 15, 36, 84
17, 67679, Note_on_c, 15, 36, 0
17, 67680, Note_on_c, 15, 29, 84
17, 67899, Note_on_c, 15, 29, 0
17, 67920, Note_on_c, 15, 36, 92
17, 68039, Note_on_c, 15, 36, 0
17, 68040, Note_on_c, 15, 36, 84
17, 68399, Note_on_c, 15, 36, 0
17, 68400, Note_on_c, 15, 29, 84
17, 68619, Note_on_c, 15, 29, 0
17, 68640, Control_c, 15, 11, 127
17, 68640, Note_on_c, 15, 36, 84
17, 68700, Control_c, 15, 11, 120
17, 68760, Control_c, 15, 11, 114
17, 68820, Control_c, 15, 11, 107
17, 68880, Control_c, 15, 11, 101
17, 68940, Control_c, 15, 11, 94
17, 69000, Control_c, 15, 11, 88
17, 69060, Control_c, 15, 11, 81
17, 69120, Control_c, 15, 11, 74
17, 69180, Control_c, 15, 11, 68
17, 69240, Control_c, 15, 11, 61
17, 69300, Control_c, 15, 11, 55
17, 69360, Control_c, 15, 11, 48
17, 69579, Note_on_c, 15, 36, 0
17, 69600, Note_on_c, 15, 39, 84
17, 69839, Note_on_c, 15, 39, 0
17, 69840, Note_on_c, 15, 43, 84
17, 70079, Note_on_c, 15, 43, 0
17, 70080, Note_on_c, 15, 48, 84
17, 70559, Note_on_c, 15, 48, 0
17, 70560, Note_on_c, 15, 51, 84
17, 70799, Note_on_c, 15, 51, 0
17, 70800, Note_on_c, 15, 50, 84
17, 71279, Note_on_c, 15, 50, 0
17, 71280, Note_on_c, 15, 42, 84
17, 71499, Note_on_c, 15, 42, 0
17, 71520, Note_on_c, 15, 43, 84
17, 71759, Note_on_c, 15, 43, 0
17, 74400, Control_c, 15, 11, 127
17, 74400, Program_c, 15, 45
17, 74880, Note_on_c, 15, 31, 44
17, 75119, Note_on_c, 15, 31, 0
17, 77760, Note_on_c, 15, 31, 44
17, 77999, Note_on_c, 15, 31, 0
17, 90960, Program_c, 15, 48
17, 91660, Control_c, 15, 11, 114
17, 91680, Note_on_c, 15, 36, 76
17, 91772, Control_c, 15, 11, 115
17, 91884, Control_c, 15, 11, 116
17, 91997, Control_c, 15, 11, 117
17, 92109, Control_c, 15, 11, 118
17, 92159, Note_on_c, 15, 36, 0
17, 92160, Note_on_c, 15, 34, 76
17, 92221, Control_c, 15, 11, 119
17, 92334, Control_c, 15, 11, 120
17, 92399, Note_on_c, 15, 34, 0
17, 92400, Note_on_c, 15, 32, 76
17, 92446, Control_c, 15, 11, 121
17, 92558, Control_c, 15, 11, 122
17, 92671, Control_c, 15, 11, 123
17, 92783, Control_c, 15, 11, 124
17, 92879, Note_on_c, 15, 32, 0
17, 92880, Note_on_c, 15, 31, 76
17, 92895, Control_c, 15, 11, 125
17, 93008, Control_c, 15, 11, 127
17, 93119, Note_on_c, 15, 31, 0
17, 93120, Note_on_c, 15, 29, 76
17, 93599, Note_on_c, 15, 29, 0
17, 93600, Note_on_c, 15, 30, 76
17, 93819, Note_on_c, 15, 30, 0
17, 93840, Note_on_c, 15, 31, 76
17, 94059, Note_on_c, 15, 31, 0
17, 94080, Note_on_c, 15, 43, 76
17, 94299, Note_on_c, 15, 43, 0
17, 94320, Note_on_c, 15, 43, 76
17, 94539, Note_on_c, 15, 43, 0
17, 94560, Note_on_c, 15, 36, 76
17, 94799, Note_on_c, 15, 36, 0
17, 95280, Note_on_c, 15, 35, 84
17, 95979, Note_on_c, 15, 35, 0
17, 96000, Note_on_c, 15, 36, 84
17, 96699, Note_on_c, 15, 36, 0
17, 96720, Note_on_c, 15, 38, 84
17, 97419, Note_on_c, 15, 38, 0
17, 97440, Note_on_c, 15, 39, 84
17, 98139, Note_on_c, 15, 39, 0
17, 98160, Note_on_c, 15, 40, 52
17, 98399, Note_on_c, 15, 40, 0
17, 98400, Note_on_c, 15, 28, 52
17, 98639, Note_on_c, 15, 28, 0
17, 98640, Note_on_c, 15, 28, 52
17, 98879, Note_on_c, 15, 28, 0
17, 98880, Note_on_c, 15, 29, 52
17, 99059, Note_on_c, 15, 29, 0
17, 99600, Note_on_c, 15, 31, 52
17, 99779, Note_on_c, 15, 31, 0
17, 100320, Note_on_c, 15, 36, 52
17, 100499, Note_on_c, 15, 36, 0
17, 100800, Note_on_c, 15, 36, 76
17, 101019, Note_on_c, 15, 36, 0
17, 101040, Note_on_c, 15, 35, 76
17, 101139, Note_on_c, 15, 35, 0
17, 101160, Note_on_c, 15, 36, 76
17, 101259, Note_on_c, 15, 36, 0
17, 101280, Note_on_c, 15, 38, 76
17, 101379, Note_on_c, 15, 38, 0
17, 101400, Note_on_c, 15, 31, 76
17, 101499, Note_on_c, 15, 31, 0
17, 101520, Note_on_c, 15, 33, 76
17, 101619, Note_on_c, 15, 33, 0
17, 101640, Note_on_c, 15, 35, 76
17, 101739, Note_on_c, 15, 35, 0
17, 101760, Note_on_c, 15, 36, 76
17, 101859, Note_on_c, 15, 36, 0
17, 101880, Note_on_c, 15, 35, 76
17, 101979, Note_on_c, 15, 35, 0
17, 102000, Note_on_c, 15, 36, 76
17, 102099, Note_on_c, 15, 36, 0
17, 102120, Note_on_c, 15, 38, 76
17, 102219, Note_on_c, 15, 38, 0
17, 102240, Note_on_c, 15, 40, 76
17, 102339, Note_on_c, 15, 40, 0
17, 102360, Note_on_c, 15, 41, 76
17, 102459, Note_on_c, 15, 41, 0
17, 102480, Note_on_c, 15, 43, 76
17, 102939, Note_on_c, 15, 43, 0
17, 102960, Note_on_c, 15, 41, 76
17, 103179, Note_on_c, 15, 41, 0
17, 103200, Note_on_c, 15, 40, 76
17, 103419, Note_on_c, 15, 40, 0
17, 103440, Note_on_c, 15, 36, 76
17, 103659, Note_on_c, 15, 36, 0
17, 103680, Note_on_c, 15, 45, 76
17, 103899, Note_on_c, 15, 45, 0
17, 103920, Note_on_c, 15, 41, 76
17, 104139, Note_on_c, 15, 41, 0
17, 104160, Note_on_c, 15, 38, 76
17, 104379, Note_on_c, 15, 38, 0
17, 104400, Note_on_c, 15, 47, 76
17, 104619, Note_on_c, 15, 47, 0
17, 104640, Note_on_c, 15, 43, 76
17, 104859, Note_on_c, 15, 43, 0
17, 104880, Note_on_c, 15, 40, 76
17, 105099, Note_on_c, 15, 40, 0
17, 105120, Note_on_c, 15, 48, 76
17, 105339, Note_on_c, 15, 48, 0
17, 105360, Note_on_c, 15, 45, 76
17, 105579, Note_on_c, 15, 45, 0
17, 105600, Note_on_c, 15, 50, 76
17, 105819, Note_on_c, 15, 50, 0
17, 105840, Note_on_c, 15, 48, 76
17, 106059, Note_on_c, 15, 48, 0
17, 106080, Note_on_c, 15, 47, 76
17, 106299, Note_on_c, 15, 47, 0
17, 106320, Note_on_c, 15, 43, 76
17, 106539, Note_on_c, 15, 43, 0
17, 106560, Note_on_c, 15, 40, 76
17, 106779, Note_on_c, 15, 40, 0
17, 106800, Note_on_c, 15, 42, 76
17, 107019, Note_on_c, 15, 42, 0
17, 107040, Note_on_c, 15, 38, 76
17, 107259, Note_on_c, 15, 38, 0
17, 107280, Note_on_c, 15, 42, 76
17, 107499, Note_on_c, 15, 42, 0
17, 107520, Note_on_c, 15, 43, 76
17, 107739, Note_on_c, 15, 43, 0
17, 107760, Note_on_c, 15, 40, 76
17, 107979, Note_on_c, 15, 40, 0
17, 108000, Note_on_c, 15, 44, 76
17, 108219, Note_on_c, 15, 44, 0
17, 108240, Note_on_c, 15, 45, 76
17, 108459, Note_on_c, 15, 45, 0
17, 108480, Note_on_c, 15, 41, 76
17, 108699, Note_on_c, 15, 41, 0
17, 108720, Note_on_c, 15, 45, 76
17, 108939, Note_on_c, 15, 45, 0
17, 108960, Note_on_c, 15, 47, 76
17, 109179, Note_on_c, 15, 47, 0
17, 109200, Note_on_c, 15, 43, 76
17, 109419, Note_on_c, 15, 43, 0
17, 109440, Note_on_c, 15, 52, 76
17, 109659, Note_on_c, 15, 52, 0
17, 109680, Note_on_c, 15, 53, 76
17, 109899, Note_on_c, 15, 53, 0
17, 109920, Note_on_c, 15, 43, 76
17, 110139, Note_on_c, 15, 43, 0
17, 110160, Note_on_c, 15, 53, 76
17, 110379, Note_on_c, 15, 53, 0
17, 110400, Note_on_c, 15, 52, 76
17, 110619, Note_on_c, 15, 52, 0
17, 110640, Note_on_c, 15, 48, 76
17, 110859, Note_on_c, 15, 48, 0
17, 110880, Note_on_c, 15, 47, 76
17, 111099, Note_on_c, 15, 47, 0
17, 111120, Note_on_c, 15, 45, 76
17, 111339, Note_on_c, 15, 45, 0
17, 111360, Note_on_c, 15, 38, 76
17, 111579, Note_on_c, 15, 38, 0
17, 111600, Note_on_c, 15, 48, 76
17, 111819, Note_on_c, 15, 48, 0
17, 111840, Note_on_c, 15, 47, 76
17, 112059, Note_on_c, 15, 47, 0
17, 112080, Note_on_c, 15, 43, 76
17, 112299, Note_on_c, 15, 43, 0
17, 112320, Note_on_c, 15, 40, 76
17, 112539, Note_on_c, 15, 40, 0
17, 112560, Note_on_c, 15, 38, 76
17, 112659, Note_on_c, 15, 38, 0
17, 112680, Note_on_c, 15, 37, 76
17, 112779, Note_on_c, 15, 37, 0
17, 112800, Note_on_c, 15, 38, 76
17, 112899, Note_on_c, 15, 38, 0
17, 112920, Note_on_c, 15, 36, 76
17, 113019, Note_on_c, 15, 36, 0
17, 113040, Note_on_c, 15, 35, 76
17, 113139, Note_on_c, 15, 35, 0
17, 113160, Note_on_c, 15, 33, 76
17, 113259, Note_on_c, 15, 33, 0
17, 113280, Note_on_c, 15, 31, 76
17, 113379, Note_on_c, 15, 31, 0
17, 113400, Note_on_c, 15, 35, 76
17, 113499, Note_on_c, 15, 35, 0
17, 113520, Note_on_c, 15, 38, 76
17, 113619, Note_on_c, 15, 38, 0
17, 113640, Note_on_c, 15, 36, 76
17, 113739, Note_on_c, 15, 36, 0
17, 113760, Note_on_c, 15, 35, 76
17, 113859, Note_on_c, 15, 35, 0
17, 113880, Note_on_c, 15, 33, 76
17, 113979, Note_on_c, 15, 33, 0
17, 114000, Note_on_c, 15, 31, 76
17, 114099, Note_on_c, 15, 31, 0
17, 114120, Note_on_c, 15, 35, 76
17, 114219, Note_on_c, 15, 35, 0
17, 114240, Note_on_c, 15, 38, 76
17, 114339, Note_on_c, 15, 38, 0
17, 114360, Note_on_c, 15, 36, 76
17, 114459, Note_on_c, 15, 36, 0
17, 114480, Note_on_c, 15, 35, 76
17, 114579, Note_on_c, 15, 35, 0
17, 114600, Note_on_c, 15, 33, 76
17, 114699, Note_on_c, 15, 33, 0
17, 114720, Note_on_c, 15, 31, 76
17, 114959, Note_on_c, 15, 31, 0
17, 115200, Note_on_c, 15, 36, 76
17, 115419, Note_on_c, 15, 36, 0
17, 115440, Note_on_c, 15, 35, 76
17, 115539, Note_on_c, 15, 35, 0
17, 115560, Note_on_c, 15, 36, 76
17, 115659, Note_on_c, 15, 36, 0
17, 115680, Note_on_c, 15, 38, 76
17, 115779, Note_on_c, 15, 38, 0
17, 115800, Note_on_c, 15, 31, 76
17, 115899, Note_on_c, 15, 31, 0
17, 115920, Note_on_c, 15, 33, 76
17, 116019, Note_on_c, 15, 33, 0
17, 116040, Note_on_c, 15, 35, 76
17, 116139, Note_on_c, 15, 35, 0
17, 116160, Note_on_c, 15, 36, 76
17, 116259, Note_on_c, 15, 36, 0
17, 116280, Note_on_c, 15, 35, 76
17, 116379, Note_on_c, 15, 35, 0
17, 116400, Note_on_c, 15, 36, 76
17, 116499, Note_on_c, 15, 36, 0
17, 116520, Note_on_c, 15, 38, 76
17, 116619, Note_on_c, 15, 38, 0
17, 116640, Note_on_c, 15, 40, 76
17, 116739, Note_on_c, 15, 40, 0
17, 116760, Note_on_c, 15, 41, 76
17, 116859, Note_on_c, 15, 41, 0
17, 116880, Note_on_c, 15, 43, 76
17, 117339, Note_on_c, 15, 43, 0
17, 117360, Note_on_c, 15, 41, 76
17, 117579, Note_on_c, 15, 41, 0
17, 117600, Note_on_c, 15, 40, 76
17, 117819, Note_on_c, 15, 40, 0
17, 117840, Note_on_c, 15, 36, 76
17, 118059, Note_on_c, 15, 36, 0
17, 118080, Note_on_c, 15, 45, 76
17, 118299, Note_on_c, 15, 45, 0
17, 118320, Note_on_c, 15, 41, 76
17, 118539, Note_on_c, 15, 41, 0
17, 118560, Note_on_c, 15, 38, 76
17, 118779, Note_on_c, 15, 38, 0
17, 118800, Note_on_c, 15, 47, 76
17, 119019, Note_on_c, 15, 47, 0
17, 119040, Note_on_c, 15, 43, 76
17, 119259, Note_on_c, 15, 43, 0
17, 119280, Note_on_c, 15, 40, 76
17, 119499, Note_on_c, 15, 40, 0
17, 119520, Note_on_c, 15, 48, 76
17, 119739, Note_on_c, 15, 48, 0
17, 119760, Note_on_c, 15, 45, 76
17, 119979, Note_on_c, 15, 45, 0
17, 120000, Note_on_c, 15, 50, 76
17, 120219, Note_on_c, 15, 50, 0
17, 120240, Note_on_c, 15, 48, 76
17, 120459, Note_on_c, 15, 48, 0
17, 120480, Note_on_c, 15, 47, 76
17, 120699, Note_on_c, 15, 47, 0
17, 120720, Note_on_c, 15, 43, 76
17, 120939, Note_on_c, 15, 43, 0
17, 120960, Note_on_c, 15, 40, 76
17, 121179, Note_on_c, 15, 40, 0
17, 121200, Note_on_c, 15, 42, 76
17, 121419, Note_on_c, 15, 42, 0
17, 121440, Note_on_c, 15, 38, 76
17, 121659, Note_on_c, 15, 38, 0
17, 121680, Note_on_c, 15, 42, 76
17, 121899, Note_on_c, 15, 42, 0
17, 121920, Note_on_c, 15, 43, 76
17, 122139, Note_on_c, 15, 43, 0
17, 122160, Note_on_c, 15, 40, 76
17, 122379, Note_on_c, 15, 40, 0
17, 122400, Note_on_c, 15, 44, 76
17, 122619, Note_on_c, 15, 44, 0
17, 122640, Note_on_c, 15, 45, 76
17, 122859, Note_on_c, 15, 45, 0
17, 122880, Note_on_c, 15, 41, 76
17, 123099, Note_on_c, 15, 41, 0
17, 123120, Note_on_c, 15, 45, 76
17, 123339, Note_on_c, 15, 45, 0
17, 123360, Note_on_c, 15, 47, 76
17, 123579, Note_on_c, 15, 47, 0
17, 123600, Note_on_c, 15, 43, 76
17, 123819, Note_on_c, 15, 43, 0
17, 123840, Note_on_c, 15, 52, 76
17, 124059, Note_on_c, 15, 52, 0
17, 124080, Note_on_c, 15, 53, 76
17, 124299, Note_on_c, 15, 53, 0
17, 124320, Note_on_c, 15, 43, 76
17, 124539, Note_on_c, 15, 43, 0
17, 124560, Note_on_c, 15, 53, 76
17, 124779, Note_on_c, 15, 53, 0
17, 124800, Note_on_c, 15, 52, 76
17, 125019, Note_on_c, 15, 52, 0
17, 125040, Note_on_c, 15, 48, 76
17, 125259, Note_on_c, 15, 48, 0
17, 125280, Note_on_c, 15, 47, 76
17, 125499, Note_on_c, 15, 47, 0
17, 125520, Note_on_c, 15, 45, 76
17, 125739, Note_on_c, 15, 45, 0
17, 125760, Note_on_c, 15, 38, 76
17, 125979, Note_on_c, 15, 38, 0
17, 126000, Note_on_c, 15, 48, 76
17, 126219, Note_on_c, 15, 48, 0
17, 126240, Note_on_c, 15, 47, 76
17, 126459, Note_on_c, 15, 47, 0
17, 126480, Note_on_c, 15, 43, 76
17, 126699, Note_on_c, 15, 43, 0
17, 126720, Note_on_c, 15, 40, 76
17, 126939, Note_on_c, 15, 40, 0
17, 126960, Note_on_c, 15, 38, 76
17, 127059, Note_on_c, 15, 38, 0
17, 127080, Note_on_c, 15, 37, 76
17, 127179, Note_on_c, 15, 37, 0
17, 127200, Note_on_c, 15, 38, 76
17, 127299, Note_on_c, 15, 38, 0
17, 127320, Note_on_c, 15, 36, 76
17, 127419, Note_on_c, 15, 36, 0
17, 127440, Note_on_c, 15, 35, 76
17, 127539, Note_on_c, 15, 35, 0
17, 127560, Note_on_c, 15, 33, 76
17, 127659, Note_on_c, 15, 33, 0
17, 127680, Note_on_c, 15, 31, 76
17, 127779, Note_on_c, 15, 31, 0
17, 127800, Note_on_c, 15, 35, 76
17, 127899, Note_on_c, 15, 35, 0
17, 127920, Note_on_c, 15, 38, 76
17, 128019, Note_on_c, 15, 38, 0
17, 128040, Note_on_c, 15, 36, 76
17, 128139, Note_on_c, 15, 36, 0
17, 128160, Note_on_c, 15, 35, 76
17, 128259, Note_on_c, 15, 35, 0
17, 128280, Note_on_c, 15, 33, 76
17, 128379, Note_on_c, 15, 33, 0
17, 128400, Note_on_c, 15, 31, 76
17, 128499, Note_on_c, 15, 31, 0
17, 128520, Note_on_c, 15, 35, 76
17, 128619, Note_on_c, 15, 35, 0
17, 128640, Note_on_c, 15, 38, 76
17, 128739, Note_on_c, 15, 38, 0
17, 128760, Note_on_c, 15, 36, 76
17, 128859, Note_on_c, 15, 36, 0
17, 128880, Note_on_c, 15, 35, 76
17, 128979, Note_on_c, 15, 35, 0
17, 129000, Note_on_c, 15, 33, 76
17, 129099, Note_on_c, 15, 33, 0
17, 129120, Note_on_c, 15, 31, 76
17, 129359, Note_on_c, 15, 31, 0
17, 130320, Note_on_c, 15, 43, 76
17, 130539, Note_on_c, 15, 43, 0
17, 130560, Note_on_c, 15, 41, 76
17, 130659, Note_on_c, 15, 41, 0
17, 130680, Note_on_c, 15, 43, 76
17, 130779, Note_on_c, 15, 43, 0
17, 130800, Note_on_c, 15, 45, 76
17, 130899, Note_on_c, 15, 45, 0
17, 130920, Note_on_c, 15, 38, 76
17, 131019, Note_on_c, 15, 38, 0
17, 131040, Note_on_c, 15, 40, 76
17, 131139, Note_on_c, 15, 40, 0
17, 131160, Note_on_c, 15, 41, 76
17, 131279, Note_on_c, 15, 41, 0
17, 131760, Note_on_c, 15, 43, 76
17, 131979, Note_on_c, 15, 43, 0
17, 132000, Note_on_c, 15, 41, 76
17, 132099, Note_on_c, 15, 41, 0
17, 132120, Note_on_c, 15, 43, 76
17, 132219, Note_on_c, 15, 43, 0
17, 132240, Note_on_c, 15, 45, 76
17, 132339, Note_on_c, 15, 45, 0
17, 132360, Note_on_c, 15, 38, 76
17, 132459, Note_on_c, 15, 38, 0
17, 132480, Note_on_c, 15, 40, 76
17, 132579, Note_on_c, 15, 40, 0
17, 132600, Note_on_c, 15, 41, 76
17, 132719, Note_on_c, 15, 41, 0
17, 133200, Note_on_c, 15, 43, 76
17, 133419, Note_on_c, 15, 43, 0
17, 133440, Note_on_c, 15, 41, 76
17, 133539, Note_on_c, 15, 41, 0
17, 133560, Note_on_c, 15, 43, 76
17, 133659, Note_on_c, 15, 43, 0
17, 133680, Note_on_c, 15, 45, 76
17, 133779, Note_on_c, 15, 45, 0
17, 133800, Note_on_c, 15, 38, 76
17, 133899, Note_on_c, 15, 38, 0
17, 133920, Note_on_c, 15, 40, 76
17, 134019, Note_on_c, 15, 40, 0
17, 134040, Note_on_c, 15, 41, 76
17, 134139, Note_on_c, 15, 41, 0
17, 134160, Note_on_c, 15, 35, 76
17, 134259, Note_on_c, 15, 35, 0
17, 134280, Note_on_c, 15, 36, 76
17, 134379, Note_on_c, 15, 36, 0
17, 134400, Note_on_c, 15, 38, 76
17, 134499, Note_on_c, 15, 38, 0
17, 134520, Note_on_c, 15, 31, 76
17, 134619, Note_on_c, 15, 31, 0
17, 134640, Note_on_c, 15, 33, 76
17, 134739, Note_on_c, 15, 33, 0
17, 134760, Note_on_c, 15, 35, 76
17, 134859, Note_on_c, 15, 35, 0
17, 134880, Note_on_c, 15, 33, 76
17, 134979, Note_on_c, 15, 33, 0
17, 135000, Note_on_c, 15, 35, 76
17, 135099, Note_on_c, 15, 35, 0
17, 135120, Note_on_c, 15, 36, 76
17, 135219, Note_on_c, 15, 36, 0
17, 135240, Note_on_c, 15, 35, 76
17, 135339, Note_on_c, 15, 35, 0
17, 135360, Note_on_c, 15, 36, 76
17, 135459, Note_on_c, 15, 36, 0
17, 135480, Note_on_c, 15, 38, 76
17, 135579, Note_on_c, 15, 38, 0
17, 135600, Note_on_c, 15, 36, 76
17, 135699, Note_on_c, 15, 36, 0
17, 135720, Note_on_c, 15, 38, 76
17, 135819, Note_on_c, 15, 38, 0
17, 135840, Note_on_c, 15, 40, 76
17, 135939, Note_on_c, 15, 40, 0
17, 135960, Note_on_c, 15, 38, 76
17, 136059, Note_on_c, 15, 38, 0
17, 136080, Note_on_c, 15, 40, 76
17, 136179, Note_on_c, 15, 40, 0
17, 136200, Note_on_c, 15, 41, 76
17, 136299, Note_on_c, 15, 41, 0
17, 136320, Note_on_c, 15, 43, 76
17, 136779, Note_on_c, 15, 43, 0
17, 136800, Note_on_c, 15, 41, 76
17, 137019, Note_on_c, 15, 41, 0
17, 137040, Note_on_c, 15, 40, 76
17, 137259, Note_on_c, 15, 40, 0
17, 137280, Note_on_c, 15, 36, 76
17, 137499, Note_on_c, 15, 36, 0
17, 137520, Note_on_c, 15, 35, 76
17, 137739, Note_on_c, 15, 35, 0
17, 137760, Note_on_c, 15, 33, 76
17, 137979, Note_on_c, 15, 33, 0
17, 138000, Note_on_c, 15, 35, 76
17, 138219, Note_on_c, 15, 35, 0
17, 138240, Note_on_c, 15, 31, 76
17, 138459, Note_on_c, 15, 31, 0
17, 138480, Note_on_c, 15, 36, 76
17, 138699, Note_on_c, 15, 36, 0
17, 138720, Note_on_c, 15, 40, 76
17, 138939, Note_on_c, 15, 40, 0
17, 138960, Note_on_c, 15, 41, 76
17, 139179, Note_on_c, 15, 41, 0
17, 139200, Note_on_c, 15, 40, 76
17, 139299, Note_on_c, 15, 40, 0
17, 139320, Note_on_c, 15, 41, 76
17, 139419, Note_on_c, 15, 41, 0
17, 139440, Note_on_c, 15, 43, 76
17, 139539, Note_on_c, 15, 43, 0
17, 139560, Note_on_c, 15, 36, 76
17, 139659, Note_on_c, 15, 36, 0
17, 139680, Note_on_c, 15, 38, 76
17, 139779, Note_on_c, 15, 38, 0
17, 139800, Note_on_c, 15, 40, 76
17, 139899, Note_on_c, 15, 40, 0
17, 139920, Note_on_c, 15, 41, 76
17, 140019, Note_on_c, 15, 41, 0
17, 140040, Note_on_c, 15, 40, 76
17, 140139, Note_on_c, 15, 40, 0
17, 140160, Note_on_c, 15, 41, 76
17, 140259, Note_on_c, 15, 41, 0
17, 140280, Note_on_c, 15, 43, 76
17, 140379, Note_on_c, 15, 43, 0
17, 140400, Note_on_c, 15, 45, 76
17, 140499, Note_on_c, 15, 45, 0
17, 140520, Note_on_c, 15, 46, 76
17, 140619, Note_on_c, 15, 46, 0
17, 140640, Note_on_c, 15, 48, 76
17, 141099, Note_on_c, 15, 48, 0
17, 141120, Note_on_c, 15, 46, 76
17, 141339, Note_on_c, 15, 46, 0
17, 141360, Note_on_c, 15, 45, 76
17, 141579, Note_on_c, 15, 45, 0
17, 141600, Note_on_c, 15, 41, 76
17, 141839, Note_on_c, 15, 41, 0
17, 142080, Note_on_c, 15, 43, 76
17, 142779, Note_on_c, 15, 43, 0
17, 142800, Note_on_c, 15, 36, 76
17, 143499, Note_on_c, 15, 36, 0
17, 143520, Note_on_c, 15, 48, 76
17, 144219, Note_on_c, 15, 48, 0
17, 144240, Note_on_c, 15, 41, 76
17, 144699, Note_on_c, 15, 41, 0
17, 144720, Note_on_c, 15, 41, 76
17, 144939, Note_on_c, 15, 41, 0
17, 144960, Note_on_c, 15, 43, 76
17, 145179, Note_on_c, 15, 43, 0
17, 145200, Note_on_c, 15, 31, 76
17, 145419, Note_on_c, 15, 31, 0
17, 145440, Note_on_c, 15, 43, 76
17, 145899, Note_on_c, 15, 43, 0
17, 145920, Note_on_c, 15, 31, 76
17, 146139, Note_on_c, 15, 31, 0
17, 146160, Note_on_c, 15, 43, 76
17, 146619, Note_on_c, 15, 43, 0
17, 146640, Note_on_c, 15, 31, 76
17, 146859, Note_on_c, 15, 31, 0
17, 146880, Note_on_c, 15, 43, 76
17, 147339, Note_on_c, 15, 43, 0
17, 147360, Note_on_c, 15, 31, 76
17, 147579, Note_on_c, 15, 31, 0
17, 147600, Note_on_c, 15, 43, 76
17, 148059, Note_on_c, 15, 43, 0
17, 148080, Note_on_c, 15, 31, 76
17, 148299, Note_on_c, 15, 31, 0
17, 148320, Note_on_c, 15, 43, 76
17, 148779, Note_on_c, 15, 43, 0
17, 148800, Note_on_c, 15, 31, 76
17, 149019, Note_on_c, 15, 31, 0
17, 149040, Note_on_c, 15, 43, 76
17, 149499, Note_on_c, 15, 43, 0
17, 149520, Note_on_c, 15, 31, 76
17, 149739, Note_on_c, 15, 31, 0
17, 149760, Note_on_c, 15, 43, 76
17, 149979, Note_on_c, 15, 43, 0
17, 150000, Note_on_c, 15, 31, 76
17, 150219, Note_on_c, 15, 31, 0
17, 150240, Note_on_c, 15, 43, 76
17, 150459, Note_on_c, 15, 43, 0
17, 150480, Note_on_c, 15, 31, 76
17, 150699, Note_on_c, 15, 31, 0
17, 150720, Note_on_c, 15, 43, 76
17, 150939, Note_on_c, 15, 43, 0
17, 150960, Note_on_c, 15, 31, 76
17, 151179, Note_on_c, 15, 31, 0
17, 151200, Note_on_c, 15, 43, 76
17, 151419, Note_on_c, 15, 43, 0
17, 151440, Note_on_c, 15, 31, 76
17, 151659, Note_on_c, 15, 31, 0
17, 151680, Note_on_c, 15, 43, 76
17, 151899, Note_on_c, 15, 43, 0
17, 151920, Note_on_c, 15, 31, 76
17, 152139, Note_on_c, 15, 31, 0
17, 152160, Note_on_c, 15, 43, 76
17, 152379, Note_on_c, 15, 43, 0
17, 152400, Note_on_c, 15, 43, 76
17, 152619, Note_on_c, 15, 43, 0
17, 152640, Note_on_c, 15, 43, 76
17, 152859, Note_on_c, 15, 43, 0
17, 152880, Note_on_c, 15, 43, 76
17, 153099, Note_on_c, 15, 43, 0
17, 153120, Note_on_c, 15, 41, 76
17, 153339, Note_on_c, 15, 41, 0
17, 153360, Note_on_c, 15, 38, 76
17, 153579, Note_on_c, 15, 38, 0
17, 153600, Note_on_c, 15, 36, 76
17, 153699, Note_on_c, 15, 36, 0
17, 153720, Note_on_c, 15, 40, 76
17, 153819, Note_on_c, 15, 40, 0
17, 153840, Note_on_c, 15, 43, 76
17, 153939, Note_on_c, 15, 43, 0
17, 153960, Note_on_c, 15, 41, 76
17, 154059, Note_on_c, 15, 41, 0
17, 154080, Note_on_c, 15, 40, 76
17, 154179, Note_on_c, 15, 40, 0
17, 154200, Note_on_c, 15, 38, 76
17, 154299, Note_on_c, 15, 38, 0
17, 154320, Note_on_c, 15, 36, 76
17, 154419, Note_on_c, 15, 36, 0
17, 154440, Note_on_c, 15, 40, 76
17, 154539, Note_on_c, 15, 40, 0
17, 154560, Note_on_c, 15, 43, 76
17, 154659, Note_on_c, 15, 43, 0
17, 154680, Note_on_c, 15, 41, 76
17, 154779, Note_on_c, 15, 41, 0
17, 154800, Note_on_c, 15, 40, 76
17, 154899, Note_on_c, 15, 40, 0
17, 154920, Note_on_c, 15, 38, 76
17, 155019, Note_on_c, 15, 38, 0
17, 155040, Note_on_c, 15, 36, 76
17, 155279, Note_on_c, 15, 36, 0
17, 156240, Note_on_c, 15, 43, 76
17, 156459, Note_on_c, 15, 43, 0
17, 156480, Note_on_c, 15, 41, 76
17, 156579, Note_on_c, 15, 41, 0
17, 156600, Note_on_c, 15, 43, 76
17, 156699, Note_on_c, 15, 43, 0
17, 156720, Note_on_c, 15, 45, 76
17, 156819, Note_on_c, 15, 45, 0
17, 156840, Note_on_c, 15, 38, 76
17, 156939, Note_on_c, 15, 38, 0
17, 156960, Note_on_c, 15, 40, 76
17, 157059, Note_on_c, 15, 40, 0
17, 157080, Note_on_c, 15, 41, 76
17, 157199, Note_on_c, 15, 41, 0
17, 157680, Note_on_c, 15, 43, 76
17, 157899, Note_on_c, 15, 43, 0
17, 157920, Note_on_c, 15, 41, 72
17, 158019, Note_on_c, 15, 41, 0
17, 158040, Note_on_c, 15, 43, 70
17, 158139, Note_on_c, 15, 43, 0
17, 158160, Note_on_c, 15, 45, 68
17, 158259, Note_on_c, 15, 45, 0
17, 158280, Note_on_c, 15, 38, 66
17, 158379, Note_on_c, 15, 38, 0
17, 158400, Note_on_c, 15, 40, 64
17, 158499, Note_on_c, 15, 40, 0
17, 158520, Note_on_c, 15, 41, 62
17, 158639, Note_on_c, 15, 41, 0
17, 159120, Note_on_c, 15, 43, 52
17, 159359, Note_on_c, 15, 43, 0
17, 159360, Note_on_c, 15, 41, 52
17, 159479, Note_on_c, 15, 41, 0
17, 159480, Note_on_c, 15, 43, 52
17, 159599, Note_on_c, 15, 43, 0
17, 159600, Note_on_c, 15, 45, 52
17, 159719, Note_on_c, 15, 45, 0
17, 159720, Note_on_c, 15, 38, 52
17, 159839, Note_on_c, 15, 38, 0
17, 159840, Note_on_c, 15, 40, 52
17, 159959, Note_on_c, 15, 40, 0
17, 159960, Note_on_c, 15, 41, 52
17, 160079, Note_on_c, 15, 41, 0
17, 160080, Note_on_c, 15, 35, 52
17, 160199, Note_on_c, 15, 35, 0
17, 160200, Note_on_c, 15, 36, 52
17, 160319, Note_on_c, 15, 36, 0
17, 160320, Note_on_c, 15, 38, 52
17, 160439, Note_on_c, 15, 38, 0
17, 160440, Note_on_c, 15, 31, 52
17, 160559, Note_on_c, 15, 31, 0
17, 160560, Note_on_c, 15, 33, 52
17, 160679, Note_on_c, 15, 33, 0
17, 160680, Note_on_c, 15, 35, 52
17, 160799, Note_on_c, 15, 35, 0
17, 160800, Note_on_c, 15, 33, 52
17, 160919, Note_on_c, 15, 33, 0
17, 160920, Note_on_c, 15, 35, 52
17, 161039, Note_on_c, 15, 35, 0
17, 161040, Note_on_c, 15, 36, 52
17, 161159, Note_on_c, 15, 36, 0
17, 161160, Note_on_c, 15, 35, 52
17, 161279, Note_on_c, 15, 35, 0
17, 161280, Note_on_c, 15, 36, 52
17, 161399, Note_on_c, 15, 36, 0
17, 161400, Note_on_c, 15, 38, 52
17, 161519, Note_on_c, 15, 38, 0
17, 161520, Note_on_c, 15, 36, 52
17, 161639, Note_on_c, 15, 36, 0
17, 161640, Note_on_c, 15, 38, 52
17, 161759, Note_on_c, 15, 38, 0
17, 161760, Note_on_c, 15, 40, 52
17, 161879, Note_on_c, 15, 40, 0
17, 161880, Note_on_c, 15, 38, 52
17, 161999, Note_on_c, 15, 38, 0
17, 162000, Note_on_c, 15, 40, 52
17, 162119, Note_on_c, 15, 40, 0
17, 162120, Note_on_c, 15, 41, 52
17, 162239, Note_on_c, 15, 41, 0
17, 162240, Note_on_c, 15, 43, 52
17, 162719, Note_on_c, 15, 43, 0
17, 162720, Note_on_c, 15, 41, 52
17, 162959, Note_on_c, 15, 41, 0
17, 162960, Note_on_c, 15, 40, 52
17, 163199, Note_on_c, 15, 40, 0
17, 163200, Note_on_c, 15, 36, 52
17, 163439, Note_on_c, 15, 36, 0
17, 163440, Note_on_c, 15, 35, 52
17, 163679, Note_on_c, 15, 35, 0
17, 163680, Note_on_c, 15, 33, 52
17, 163919, Note_on_c, 15, 33, 0
17, 163920, Note_on_c, 15, 35, 52
17, 164159, Note_on_c, 15, 35, 0
17, 164160, Note_on_c, 15, 31, 52
17, 164399, Note_on_c, 15, 31, 0
17, 164400, Note_on_c, 15, 36, 52
17, 164639, Note_on_c, 15, 36, 0
17, 164640, Note_on_c, 15, 40, 52
17, 164879, Note_on_c, 15, 40, 0
17, 164880, Note_on_c, 15, 41, 52
17, 165119, Note_on_c, 15, 41, 0
17, 165120, Note_on_c, 15, 40, 51
17, 165239, Note_on_c, 15, 40, 0
17, 165240, Note_on_c, 15, 41, 51
17, 165359, Note_on_c, 15, 41, 0
17, 165360, Note_on_c, 15, 43, 50
17, 165479, Note_on_c, 15, 43, 0
17, 165480, Note_on_c, 15, 36, 50
17, 165599, Note_on_c, 15, 36, 0
17, 165600, Note_on_c, 15, 38, 50
17, 165719, Note_on_c, 15, 38, 0
17, 165720, Note_on_c, 15, 40, 49
17, 165839, Note_on_c, 15, 40, 0
17, 165840, Note_on_c, 15, 41, 49
17, 165959, Note_on_c, 15, 41, 0
17, 165960, Note_on_c, 15, 40, 49
17, 166079, Note_on_c, 15, 40, 0
17, 166080, Note_on_c, 15, 41, 48
17, 166199, Note_on_c, 15, 41, 0
17, 166200, Note_on_c, 15, 43, 48
17, 166319, Note_on_c, 15, 43, 0
17, 166320, Note_on_c, 15, 45, 48
17, 166439, Note_on_c, 15, 45, 0
17, 166440, Note_on_c, 15, 46, 47
17, 166559, Note_on_c, 15, 46, 0
17, 166560, Note_on_c, 15, 48, 47
17, 167039, Note_on_c, 15, 48, 0
17, 167040, Note_on_c, 15, 46, 46
17, 167279, Note_on_c, 15, 46, 0
17, 167280, Note_on_c, 15, 45, 45
17, 167519, Note_on_c, 15, 45, 0
17, 167520, Note_on_c, 15, 41, 44
17, 167759, Note_on_c, 15, 41, 0
17, 168000, Note_on_c, 15, 43, 44
17, 168239, Note_on_c, 15, 43, 0
17, 168720, Note_on_c, 15, 36, 44
17, 168959, Note_on_c, 15, 36, 0
17, 169440, Note_on_c, 15, 36, 44
17, 169679, Note_on_c, 15, 36, 0
17, 170160, Note_on_c, 15, 29, 44
17, 170399, Note_on_c, 15, 29, 0
17, 170880, Note_on_c, 15, 31, 44
17, 171119, Note_on_c, 15, 31, 0
17, 179520, Program_c, 15, 45
17, 180240, Note_on_c, 15, 42, 48
17, 180479, Note_on_c, 15, 42, 0
17, 180960, Note_on_c, 15, 41, 48
17, 181199, Note_on_c, 15, 41, 0
17, 181680, Note_on_c, 15, 39, 48
17, 181919, Note_on_c, 15, 39, 0
17, 182400, Note_on_c, 15, 38, 48
17, 182639, Note_on_c, 15, 38, 0
17, 182880, Note_on_c, 15, 44, 48
17, 183119, Note_on_c, 15, 44, 0
17, 183120, Note_on_c, 15, 43, 48
17, 183359, Note_on_c, 15, 43, 0
17, 183598, Program_c, 15, 48
17, 183600, Note_on_c, 15, 31, 44
17, 183819, Note_on_c, 15, 31, 0
17, 183840, Note_on_c, 15, 36, 44
17, 184799, Note_on_c, 15, 36, 0
17, 184800, Note_on_c, 15, 39, 44
17, 185039, Note_on_c, 15, 39, 0
17, 185040, Note_on_c, 15, 43, 44
17, 185259, Note_on_c, 15, 43, 0
17, 185280, Note_on_c, 15, 48, 44
17, 185519, Note_on_c, 15, 48, 0
17, 185760, Note_on_c, 15, 51, 44
17, 185979, Note_on_c, 15, 51, 0
17, 186000, Note_on_c, 15, 50, 44
17, 186239, Note_on_c, 15, 50, 0
17, 186480, Note_on_c, 15, 42, 44
17, 186699, Note_on_c, 15, 42, 0
17, 186720, Note_on_c, 15, 43, 44
17, 188139, Note_on_c, 15, 43, 0
17, 188160, Note_on_c, 15, 36, 44
17, 189579, Note_on_c, 15, 36, 0
17, 189600, Note_on_c, 15, 31, 44
17, 190039, Note_on_c, 15, 31, 0
17, 246240, Program_c, 15, 45
17, 246480, Note_on_c, 15, 31, 44
17, 246719, Note_on_c, 15, 31, 0
17, 246960, Program_c, 15, 48
17, 247200, Note_on_c, 15, 32, 40
17, 248639, Note_on_c, 15, 32, 0
17, 248640, Note_on_c, 15, 32, 40
17, 250079, Note_on_c, 15, 32, 0
17, 250080, Note_on_c, 15, 32, 40
17, 251519, Note_on_c, 15, 32, 0
17, 251520, Note_on_c, 15, 32, 40
17, 252959, Note_on_c, 15, 32, 0
17, 252960, Note_on_c, 15, 32, 40
17, 254399, Note_on_c, 15, 32, 0
17, 254400, Note_on_c, 15, 32, 40
17, 255839, Note_on_c, 15, 32, 0
17, 255840, Note_on_c, 15, 32, 44
17, 257279, Note_on_c, 15, 32, 0
17, 257280, Note_on_c, 15, 32, 44
17, 258219, Note_on_c, 15, 32, 0
17, 258240, Note_on_c, 15, 32, 44
17, 258459, Note_on_c, 15, 32, 0
17, 258480, Note_on_c, 15, 32, 44
17, 258699, Note_on_c, 15, 32, 0
17, 258720, Note_on_c, 15, 32, 44
17, 258939, Note_on_c, 15, 32, 0
17, 258960, Note_on_c, 15, 32, 44
17, 259179, Note_on_c, 15, 32, 0
17, 259200, Note_on_c, 15, 32, 44
17, 259419, Note_on_c, 15, 32, 0
17, 259440, Note_on_c, 15, 32, 44
17, 259679, Note_on_c, 15, 32, 0
17, 260400, Note_on_c, 15, 31, 44
17, 260619, Note_on_c, 15, 31, 0
17, 260640, Note_on_c, 15, 31, 44
17, 260859, Note_on_c, 15, 31, 0
17, 260880, Note_on_c, 15, 31, 44
17, 261119, Note_on_c, 15, 31, 0
17, 261840, Note_on_c, 15, 30, 44
17, 262059, Note_on_c, 15, 30, 0
17, 262080, Note_on_c, 15, 30, 44
17, 262299, Note_on_c, 15, 30, 0
17, 262320, Note_on_c, 15, 30, 44
17, 262559, Note_on_c, 15, 30, 0
17, 263280, Note_on_c, 15, 31, 44
17, 263499, Note_on_c, 15, 31, 0
17, 263520, Note_on_c, 15, 31, 44
17, 263739, Note_on_c, 15, 31, 0
17, 263760, Note_on_c, 15, 31, 44
17, 263999, Note_on_c, 15, 31, 0
17, 264720, Note_on_c, 15, 32, 44
17, 264939, Note_on_c, 15, 32, 0
17, 264960, Note_on_c, 15, 32, 44
17, 265179, Note_on_c, 15, 32, 0
17, 265200, Note_on_c, 15, 32, 44
17, 265439, Note_on_c, 15, 32, 0
17, 266160, Note_on_c, 15, 31, 44
17, 266379, Note_on_c, 15, 31, 0
17, 266400, Note_on_c, 15, 31, 44
17, 266619, Note_on_c, 15, 31, 0
17, 266640, Note_on_c, 15, 31, 44
17, 266859, Note_on_c, 15, 31, 0
17, 266880, Note_on_c, 15, 31, 44
17, 267099, Note_on_c, 15, 31, 0
17, 267120, Note_on_c, 15, 31, 44
17, 267339, Note_on_c, 15, 31, 0
17, 267360, Note_on_c, 15, 31, 44
17, 267579, Note_on_c, 15, 31, 0
17, 267600, Note_on_c, 15, 31, 44
17, 267819, Note_on_c, 15, 31, 0
17, 267840, Note_on_c, 15, 31, 44
17, 268059, Note_on_c, 15, 31, 0
17, 268080, Note_on_c, 15, 31, 44
17, 268299, Note_on_c, 15, 31, 0
17, 268320, Note_on_c, 15, 31, 44
17, 268539, Note_on_c, 15, 31, 0
17, 268560, Note_on_c, 15, 31, 44
17, 268779, Note_on_c, 15, 31, 0
17, 268800, Note_on_c, 15, 31, 44
17, 269019, Note_on_c, 15, 31, 0
17, 269040, Note_on_c, 15, 31, 44
17, 269259, Note_on_c, 15, 31, 0
17, 269280, Note_on_c, 15, 31, 44
17, 269499, Note_on_c, 15, 31, 0
17, 269520, Note_on_c, 15, 31, 44
17, 269739, Note_on_c, 15, 31, 0
17, 269760, Note_on_c, 15, 31, 44
17, 269979, Note_on_c, 15, 31, 0
17, 270000, Note_on_c, 15, 31, 44
17, 270219, Note_on_c, 15, 31, 0
17, 270240, Note_on_c, 15, 31, 44
17, 270459, Note_on_c, 15, 31, 0
17, 270480, Note_on_c, 15, 31, 44
17, 270699, Note_on_c, 15, 31, 0
17, 270720, Note_on_c, 15, 31, 44
17, 270939, Note_on_c, 15, 31, 0
17, 270960, Note_on_c, 15, 31, 44
17, 271179, Note_on_c, 15, 31, 0
17, 271200, Note_on_c, 15, 31, 44
17, 271419, Note_on_c, 15, 31, 0
17, 271440, Note_on_c, 15, 31, 44
17, 271659, Note_on_c, 15, 31, 0
17, 271680, Note_on_c, 15, 31, 44
17, 271899, Note_on_c, 15, 31, 0
17, 271920, Note_on_c, 15, 31, 44
17, 272139, Note_on_c, 15, 31, 0
17, 272160, Note_on_c, 15, 31, 44
17, 272379, Note_on_c, 15, 31, 0
17, 272400, Note_on_c, 15, 31, 44
17, 272619, Note_on_c, 15, 31, 0
17, 272640, Note_on_c, 15, 31, 44
17, 272859, Note_on_c, 15, 31, 0
17, 272880, Note_on_c, 15, 31, 44
17, 273099, Note_on_c, 15, 31, 0
17, 273120, Note_on_c, 15, 31, 44
17, 273339, Note_on_c, 15, 31, 0
17, 273360, Note_on_c, 15, 31, 44
17, 273579, Note_on_c, 15, 31, 0
17, 273600, Note_on_c, 15, 31, 44
17, 273819, Note_on_c, 15, 31, 0
17, 273840, Note_on_c, 15, 31, 44
17, 274059, Note_on_c, 15, 31, 0
17, 274080, Note_on_c, 15, 31, 44
17, 274299, Note_on_c, 15, 31, 0
17, 274320, Note_on_c, 15, 31, 44
17, 274539, Note_on_c, 15, 31, 0
17, 274560, Note_on_c, 15, 31, 44
17, 274779, Note_on_c, 15, 31, 0
17, 274800, Note_on_c, 15, 31, 44
17, 275019, Note_on_c, 15, 31, 0
17, 275040, Note_on_c, 15, 31, 44
17, 275259, Note_on_c, 15, 31, 0
17, 275280, Note_on_c, 15, 31, 44
17, 275499, Note_on_c, 15, 31, 0
17, 275520, Note_on_c, 15, 31, 44
17, 275739, Note_on_c, 15, 31, 0
17, 275760, Note_on_c, 15, 31, 44
17, 275979, Note_on_c, 15, 31, 0
17, 276000, Note_on_c, 15, 31, 44
17, 276219, Note_on_c, 15, 31, 0
17, 276240, Note_on_c, 15, 31, 44
17, 276459, Note_on_c, 15, 31, 0
17, 276480, Note_on_c, 15, 31, 44
17, 276699, Note_on_c, 15, 31, 0
17, 276720, Note_on_c, 15, 31, 44
17, 276939, Note_on_c, 15, 31, 0
17, 276960, Note_on_c, 15, 31, 44
17, 277179, Note_on_c, 15, 31, 0
17, 277200, Note_on_c, 15, 31, 44
17, 277419, Note_on_c, 15, 31, 0
17, 277440, Note_on_c, 15, 31, 44
17, 277539, Note_on_c, 15, 31, 0
17, 277560, Note_on_c, 15, 31, 44
17, 277659, Note_on_c, 15, 31, 0
17, 277680, Note_on_c, 15, 31, 45
17, 277779, Note_on_c, 15, 31, 0
17, 277800, Note_on_c, 15, 31, 46
17, 277899, Note_on_c, 15, 31, 0
17, 277920, Note_on_c, 15, 31, 47
17, 278019, Note_on_c, 15, 31, 0
17, 278040, Note_on_c, 15, 31, 48
17, 278139, Note_on_c, 15, 31, 0
17, 278160, Note_on_c, 15, 31, 49
17, 278259, Note_on_c, 15, 31, 0
17, 278280, Note_on_c, 15, 31, 49
17, 278379, Note_on_c, 15, 31, 0
17, 278400, Note_on_c, 15, 31, 50
17, 278499, Note_on_c, 15, 31, 0
17, 278520, Note_on_c, 15, 31, 51
17, 278619, Note_on_c, 15, 31, 0
17, 278640, Note_on_c, 15, 31, 52
17, 278739, Note_on_c, 15, 31, 0
17, 278760, Note_on_c, 15, 31, 53
17, 278859, Note_on_c, 15, 31, 0
17, 278880, Note_on_c, 15, 31, 54
17, 278979, Note_on_c, 15, 31, 0
17, 279000, Note_on_c, 15, 31, 54
17, 279099, Note_on_c, 15, 31, 0
17, 279120, Note_on_c, 15, 31, 55
17, 279219, Note_on_c, 15, 31, 0
17, 279240, Note_on_c, 15, 31, 56
17, 279339, Note_on_c, 15, 31, 0
17, 279360, Note_on_c, 15, 31, 57
17, 279459, Note_on_c, 15, 31, 0
17, 279480, Note_on_c, 15, 31, 58
17, 279579, Note_on_c, 15, 31, 0
17, 279600, Note_on_c, 15, 31, 59
17, 279699, Note_on_c, 15, 31, 0
17, 279720, Note_on_c, 15, 31, 59
17, 279819, Note_on_c, 15, 31, 0
17, 279840, Note_on_c, 15, 31, 60
17, 279939, Note_on_c, 15, 31, 0
17, 279960, Note_on_c, 15, 31, 61
17, 280059, Note_on_c, 15, 31, 0
17, 280080, Note_on_c, 15, 31, 62
17, 280179, Note_on_c, 15, 31, 0
17, 280200, Note_on_c, 15, 31, 63
17, 280299, Note_on_c, 15, 31, 0
17, 280320, Note_on_c, 15, 31, 64
17, 280419, Note_on_c, 15, 31, 0
17, 280440, Note_on_c, 15, 31, 64
17, 280539, Note_on_c, 15, 31, 0
17, 280560, Note_on_c, 15, 31, 65
17, 280659, Note_on_c, 15, 31, 0
17, 280680, Note_on_c, 15, 31, 66
17, 280779, Note_on_c, 15, 31, 0
17, 280800, Note_on_c, 15, 31, 67
17, 280899, Note_on_c, 15, 31, 0
17, 280920, Note_on_c, 15, 31, 68
17, 281019, Note_on_c, 15, 31, 0
17, 281040, Note_on_c, 15, 31, 69
17, 281139, Note_on_c, 15, 31, 0
17, 281160, Note_on_c, 15, 31, 69
17, 281259, Note_on_c, 15, 31, 0
17, 281280, Note_on_c, 15, 31, 70
17, 281379, Note_on_c, 15, 31, 0
17, 281400, Note_on_c, 15, 31, 71
17, 281499, Note_on_c, 15, 31, 0
17, 281520, Note_on_c, 15, 31, 72
17, 281619, Note_on_c, 15, 31, 0
17, 281640, Note_on_c, 15, 31, 73
17, 281739, Note_on_c, 15, 31, 0
17, 281760, Note_on_c, 15, 31, 74
17, 281859, Note_on_c, 15, 31, 0
17, 281880, Note_on_c, 15, 31, 74
17, 281979, Note_on_c, 15, 31, 0
17, 282000, Note_on_c, 15, 31, 75
17, 282099, Note_on_c, 15, 31, 0
17, 282120, Note_on_c, 15, 31, 76
17, 282219, Note_on_c, 15, 31, 0
17, 282240, Note_on_c, 15, 31, 77
17, 282339, Note_on_c, 15, 31, 0
17, 282360, Note_on_c, 15, 31, 78
17, 282459, Note_on_c, 15, 31, 0
17, 282480, Note_on_c, 15, 31, 79
17, 282579, Note_on_c, 15, 31, 0
17, 282600, Note_on_c, 15, 31, 79
17, 282699, Note_on_c, 15, 31, 0
17, 282720, Note_on_c, 15, 31, 80
17, 282819, Note_on_c, 15, 31, 0
17, 282840, Note_on_c, 15, 31, 81
17, 282939, Note_on_c, 15, 31, 0
17, 282960, Note_on_c, 15, 31, 82
17, 283059, Note_on_c, 15, 31, 0
17, 283080, Note_on_c, 15, 31, 83
17, 283179, Note_on_c, 15, 31, 0
17, 283179, End_track
18, 0, Start_track
18, 0, Title_t, "Ludwig van Beethoven - Symphony No. 5, Op.67 - No. 3 Allegro"
18, 0, MIDI_port, 0
18, 0, End_track
0, 0, End_of_file
