0, 0, Header, 1, 20, 240
1, 0, Start_track
1, 0, Sequencer_specific, 10, 0, 0, 91, 35, 1, 0, 5, 6, 42, 0
1, 0, Title_t, "Ludwig van Beethoven - Symphony No. 3 in E-flat Major, Op.55 (Eroica)"
1, 0, Instrument_name_t, "Conductor Track"
1, 0, SMPTE_offset, 96, 0, 3, 0, 0
1, 0, MIDI_port, 0
1, 0, Key_signature, -3, "minor"
1, 0, Tempo, 300000
1, 0, Time_signature, 1, 2, 24, 8
1, 120, Tempo, 1500000
1, 240, Time_signature, 2, 2, 24, 8
1, 32880, Key_signature, 0, "major"
1, 50160, Key_signature, -3, "minor"
1, 118320, Tempo, 4000000
1, 118680, Tempo, 2000000
1, 119400, Tempo, 2000000
1, 119400, End_track
2, 0, Start_track
2, 0, Title_t, "2nd Movement - Adagio assai (Marcia Funebre)"
2, 0, MIDI_port, 0
2, 0, End_track
3, 0, Start_track
3, 0, Title_t, "Sequenced by D. L. Viens 9 Apr 2000"
3, 0, MIDI_port, 0
3, 0, End_track
4, 0, Start_track
4, 0, Title_t, "dlviens@empire.net"
4, 0, MIDI_port, 0
4, 0, End_track
5, 0, Start_track
5, 0, MIDI_port, 0
5, 0, End_track
6, 0, Start_track
6, 0, Title_t, "Flute I"
6, 0, MIDI_port, 0
6, 0, Program_c, 8, 73
6, 0, Control_c, 8, 7, 72
6, 0, Control_c, 8, 10, 60
6, 0, Control_c, 8, 11, 127
6, 22300, Control_c, 8, 11, 96
6, 23880, Note_on_c, 8, 79, 68
6, 23991, Note_on_c, 8, 79, 0
6, 23996, Control_c, 8, 11, 127
6, 24000, Note_on_c, 8, 79, 68
6, 24118, Control_c, 8, 11, 96
6, 24119, Note_on_c, 8, 79, 0
6, 24120, Note_on_c, 8, 84, 68
6, 24130, Control_c, 8, 11, 99
6, 24140, Control_c, 8, 11, 101
6, 24150, Control_c, 8, 11, 104
6, 24160, Control_c, 8, 11, 106
6, 24170, Control_c, 8, 11, 109
6, 24180, Control_c, 8, 11, 112
6, 24190, Control_c, 8, 11, 114
6, 24200, Control_c, 8, 11, 117
6, 24210, Control_c, 8, 11, 119
6, 24220, Control_c, 8, 11, 122
6, 24230, Control_c, 8, 11, 127
6, 24231, Note_on_c, 8, 84, 0
6, 24240, Note_on_c, 8, 84, 52
6, 24359, Note_on_c, 8, 84, 0
6, 24359, End_track
7, 0, Start_track
7, 0, Title_t, "Flute I and II"
7, 0, MIDI_port, 0
7, 0, Program_c, 0, 73
7, 0, Control_c, 0, 7, 72
7, 0, Control_c, 0, 10, 60
7, 0, Control_c, 0, 11, 127
7, 21120, Control_c, 0, 11, 96
7, 21360, Note_on_c, 0, 79, 68
7, 21360, Note_on_c, 0, 91, 68
7, 21360, Control_c, 0, 11, 96
7, 21380, Control_c, 0, 11, 97
7, 21400, Control_c, 0, 11, 99
7, 21420, Control_c, 0, 11, 100
7, 21440, Control_c, 0, 11, 101
7, 21460, Control_c, 0, 11, 102
7, 21480, Control_c, 0, 11, 104
7, 21500, Control_c, 0, 11, 105
7, 21520, Control_c, 0, 11, 106
7, 21540, Control_c, 0, 11, 108
7, 21560, Control_c, 0, 11, 109
7, 21580, Control_c, 0, 11, 110
7, 21591, Note_on_c, 0, 79, 0
7, 21599, Note_on_c, 0, 91, 0
7, 21600, Note_on_c, 0, 86, 68
7, 21600, Note_on_c, 0, 79, 68
7, 21600, Control_c, 0, 11, 112
7, 21620, Control_c, 0, 11, 113
7, 21640, Control_c, 0, 11, 114
7, 21660, Control_c, 0, 11, 115
7, 21680, Control_c, 0, 11, 117
7, 21700, Control_c, 0, 11, 118
7, 21719, Note_on_c, 0, 86, 0
7, 21720, Control_c, 0, 11, 119
7, 21720, Note_on_c, 0, 89, 68
7, 21740, Control_c, 0, 11, 121
7, 21760, Control_c, 0, 11, 122
7, 21780, Control_c, 0, 11, 123
7, 21800, Control_c, 0, 11, 124
7, 21820, Control_c, 0, 11, 126
7, 21839, Note_on_c, 0, 89, 0
7, 21840, Note_on_c, 0, 87, 68
7, 21840, Control_c, 0, 11, 127
7, 21860, Control_c, 0, 11, 126
7, 21880, Control_c, 0, 11, 124
7, 21900, Control_c, 0, 11, 123
7, 21920, Control_c, 0, 11, 122
7, 21940, Control_c, 0, 11, 121
7, 21960, Control_c, 0, 11, 119
7, 21980, Control_c, 0, 11, 118
7, 22000, Control_c, 0, 11, 117
7, 22020, Control_c, 0, 11, 115
7, 22040, Control_c, 0, 11, 114
7, 22060, Control_c, 0, 11, 113
7, 22079, Note_on_c, 0, 87, 0
7, 22080, Control_c, 0, 11, 112
7, 22080, Note_on_c, 0, 86, 68
7, 22100, Control_c, 0, 11, 110
7, 22120, Control_c, 0, 11, 109
7, 22140, Control_c, 0, 11, 108
7, 22160, Control_c, 0, 11, 106
7, 22180, Control_c, 0, 11, 105
7, 22199, Note_on_c, 0, 79, 0
7, 22199, Note_on_c, 0, 86, 0
7, 22200, Control_c, 0, 11, 104
7, 22200, Note_on_c, 0, 84, 68
7, 22200, Note_on_c, 0, 78, 68
7, 22220, Control_c, 0, 11, 102
7, 22240, Control_c, 0, 11, 101
7, 22260, Control_c, 0, 11, 100
7, 22280, Control_c, 0, 11, 99
7, 22300, Control_c, 0, 11, 96
7, 22311, Note_on_c, 0, 84, 0
7, 22311, Note_on_c, 0, 78, 0
7, 22320, Note_on_c, 0, 83, 68
7, 22320, Note_on_c, 0, 79, 68
7, 22439, Note_on_c, 0, 83, 0
7, 22439, Note_on_c, 0, 79, 0
7, 23760, Control_c, 0, 11, 127
7, 24000, Note_on_c, 0, 79, 68
7, 24231, Note_on_c, 0, 79, 0
7, 24240, Note_on_c, 0, 77, 52
7, 24359, Note_on_c, 0, 77, 0
7, 24960, Control_c, 0, 11, 80
7, 25200, Note_on_c, 0, 89, 76
7, 25200, Control_c, 0, 11, 80
7, 25220, Control_c, 0, 11, 82
7, 25240, Control_c, 0, 11, 84
7, 25260, Control_c, 0, 11, 86
7, 25280, Control_c, 0, 11, 88
7, 25300, Control_c, 0, 11, 90
7, 25320, Control_c, 0, 11, 92
7, 25340, Control_c, 0, 11, 94
7, 25360, Control_c, 0, 11, 96
7, 25380, Control_c, 0, 11, 98
7, 25400, Control_c, 0, 11, 100
7, 25420, Control_c, 0, 11, 102
7, 25431, Note_on_c, 0, 89, 0
7, 25440, Note_on_c, 0, 87, 76
7, 25440, Control_c, 0, 11, 104
7, 25460, Control_c, 0, 11, 105
7, 25469, Note_on_c, 0, 87, 0
7, 25470, Note_on_c, 0, 86, 76
7, 25480, Control_c, 0, 11, 107
7, 25500, Control_c, 0, 11, 109
7, 25520, Control_c, 0, 11, 111
7, 25540, Control_c, 0, 11, 113
7, 25551, Note_on_c, 0, 86, 0
7, 25560, Note_on_c, 0, 84, 76
7, 25560, Note_on_c, 0, 80, 76
7, 25560, Control_c, 0, 11, 115
7, 25580, Control_c, 0, 11, 117
7, 25589, Note_on_c, 0, 84, 0
7, 25590, Note_on_c, 0, 83, 76
7, 25600, Control_c, 0, 11, 119
7, 25620, Control_c, 0, 11, 121
7, 25640, Control_c, 0, 11, 123
7, 25660, Control_c, 0, 11, 127
7, 25671, Note_on_c, 0, 80, 0
7, 25671, Note_on_c, 0, 83, 0
7, 25680, Note_on_c, 0, 79, 76
7, 25680, Note_on_c, 0, 84, 76
7, 25769, Note_on_c, 0, 79, 0
7, 25769, Note_on_c, 0, 84, 0
7, 25800, Note_on_c, 0, 84, 76
7, 25800, Note_on_c, 0, 80, 76
7, 25889, Note_on_c, 0, 84, 0
7, 25889, Note_on_c, 0, 80, 0
7, 26160, Control_c, 0, 11, 96
7, 26280, Control_c, 0, 11, 96
7, 26280, Note_on_c, 0, 72, 68
7, 26280, Note_on_c, 0, 91, 68
7, 26300, Control_c, 0, 11, 99
7, 26320, Control_c, 0, 11, 101
7, 26340, Control_c, 0, 11, 104
7, 26360, Control_c, 0, 11, 106
7, 26380, Control_c, 0, 11, 109
7, 26399, Note_on_c, 0, 72, 0
7, 26400, Control_c, 0, 11, 112
7, 26400, Note_on_c, 0, 74, 68
7, 26420, Control_c, 0, 11, 114
7, 26440, Control_c, 0, 11, 117
7, 26460, Control_c, 0, 11, 119
7, 26480, Control_c, 0, 11, 122
7, 26500, Control_c, 0, 11, 124
7, 26511, Note_on_c, 0, 74, 0
7, 26519, Note_on_c, 0, 91, 0
7, 26520, Note_on_c, 0, 89, 68
7, 26520, Control_c, 0, 11, 127
7, 26520, Note_on_c, 0, 74, 68
7, 26533, Control_c, 0, 11, 124
7, 26547, Control_c, 0, 11, 120
7, 26560, Control_c, 0, 11, 117
7, 26573, Control_c, 0, 11, 113
7, 26587, Control_c, 0, 11, 110
7, 26600, Control_c, 0, 11, 106
7, 26609, Note_on_c, 0, 89, 0
7, 26609, Note_on_c, 0, 74, 0
7, 26610, Note_on_c, 0, 86, 68
7, 26610, Note_on_c, 0, 77, 68
7, 26613, Control_c, 0, 11, 103
7, 26627, Control_c, 0, 11, 96
7, 26635, Note_on_c, 0, 86, 0
7, 26635, Note_on_c, 0, 77, 0
7, 26640, Note_on_c, 0, 75, 68
7, 26640, Note_on_c, 0, 84, 68
7, 26759, Note_on_c, 0, 75, 0
7, 26759, Note_on_c, 0, 84, 0
7, 28320, Control_c, 0, 11, 127
7, 28560, Note_on_c, 0, 84, 76
7, 28560, Note_on_c, 0, 86, 76
7, 28791, Note_on_c, 0, 84, 0
7, 28791, Note_on_c, 0, 86, 0
7, 28800, Note_on_c, 0, 84, 76
7, 28800, Note_on_c, 0, 86, 76
7, 29001, Note_on_c, 0, 84, 0
7, 29001, Note_on_c, 0, 86, 0
7, 29010, Note_on_c, 0, 86, 76
7, 29010, Note_on_c, 0, 84, 76
7, 29035, Note_on_c, 0, 86, 0
7, 29035, Note_on_c, 0, 84, 0
7, 29040, Note_on_c, 0, 84, 84
7, 29040, Note_on_c, 0, 87, 84
7, 29100, Control_c, 0, 11, 112
7, 29123, Control_c, 0, 11, 109
7, 29147, Control_c, 0, 11, 107
7, 29170, Control_c, 0, 11, 104
7, 29193, Control_c, 0, 11, 101
7, 29217, Control_c, 0, 11, 99
7, 29240, Control_c, 0, 11, 96
7, 29263, Control_c, 0, 11, 93
7, 29287, Control_c, 0, 11, 91
7, 29310, Control_c, 0, 11, 88
7, 29333, Control_c, 0, 11, 85
7, 29357, Control_c, 0, 11, 83
7, 29380, Control_c, 0, 11, 80
7, 29399, Note_on_c, 0, 84, 0
7, 29399, Note_on_c, 0, 87, 0
7, 29400, Note_on_c, 0, 75, 84
7, 29400, Note_on_c, 0, 86, 84
7, 29403, Control_c, 0, 11, 77
7, 29427, Control_c, 0, 11, 75
7, 29450, Control_c, 0, 11, 72
7, 29459, Note_on_c, 0, 86, 0
7, 29460, Note_on_c, 0, 84, 84
7, 29473, Control_c, 0, 11, 69
7, 29497, Control_c, 0, 11, 64
7, 29511, Note_on_c, 0, 75, 0
7, 29511, Note_on_c, 0, 84, 0
7, 29520, Note_on_c, 0, 75, 84
7, 29520, Note_on_c, 0, 84, 84
7, 29759, Note_on_c, 0, 75, 0
7, 29759, Note_on_c, 0, 84, 0
7, 29760, Note_on_c, 0, 77, 84
7, 29760, Note_on_c, 0, 83, 84
7, 29991, Note_on_c, 0, 77, 0
7, 29991, Note_on_c, 0, 83, 0
7, 30000, Note_on_c, 0, 75, 84
7, 30000, Note_on_c, 0, 84, 84
7, 30119, Note_on_c, 0, 75, 0
7, 30119, Note_on_c, 0, 84, 0
7, 30360, Control_c, 0, 11, 127
7, 30480, Note_on_c, 0, 84, 52
7, 30480, Note_on_c, 0, 87, 52
7, 30719, Note_on_c, 0, 84, 0
7, 30719, Note_on_c, 0, 87, 0
7, 30720, Note_on_c, 0, 86, 52
7, 30720, Note_on_c, 0, 83, 52
7, 30929, Note_on_c, 0, 86, 0
7, 30929, Note_on_c, 0, 83, 0
7, 30930, Note_on_c, 0, 84, 52
7, 30955, Note_on_c, 0, 84, 0
7, 30960, Note_on_c, 0, 84, 52
7, 31079, Note_on_c, 0, 84, 0
7, 31320, Note_on_c, 0, 87, 68
7, 31320, Note_on_c, 0, 75, 68
7, 31439, Note_on_c, 0, 87, 0
7, 31439, Note_on_c, 0, 75, 0
7, 31440, Note_on_c, 0, 72, 52
7, 31440, Note_on_c, 0, 84, 52
7, 31551, Note_on_c, 0, 72, 0
7, 31551, Note_on_c, 0, 84, 0
7, 31560, Note_on_c, 0, 80, 76
7, 31641, Note_on_c, 0, 80, 0
7, 31650, Note_on_c, 0, 77, 76
7, 31675, Note_on_c, 0, 77, 0
7, 31680, Note_on_c, 0, 74, 76
7, 31769, Note_on_c, 0, 74, 0
7, 31800, Note_on_c, 0, 79, 76
7, 31889, Note_on_c, 0, 79, 0
7, 31920, Note_on_c, 0, 72, 52
7, 32009, Note_on_c, 0, 72, 0
7, 32160, Note_on_c, 0, 75, 52
7, 32160, Note_on_c, 0, 72, 52
7, 32249, Note_on_c, 0, 75, 0
7, 32249, Note_on_c, 0, 72, 0
7, 32400, Note_on_c, 0, 72, 52
7, 32489, Note_on_c, 0, 72, 0
7, 33840, Note_on_c, 0, 81, 52
7, 34079, Note_on_c, 0, 81, 0
7, 34080, Note_on_c, 0, 86, 52
7, 34311, Note_on_c, 0, 86, 0
7, 34320, Note_on_c, 0, 89, 52
7, 34599, Note_on_c, 0, 89, 0
7, 34600, Note_on_c, 0, 88, 52
7, 34639, Note_on_c, 0, 88, 0
7, 34640, Note_on_c, 0, 86, 52
7, 34675, Note_on_c, 0, 86, 0
7, 34680, Note_on_c, 0, 84, 52
7, 34709, Note_on_c, 0, 84, 0
7, 34720, Note_on_c, 0, 83, 52
7, 34749, Note_on_c, 0, 83, 0
7, 34760, Note_on_c, 0, 81, 52
7, 34789, Note_on_c, 0, 81, 0
7, 34800, Note_on_c, 0, 81, 52
7, 34859, Note_on_c, 0, 81, 0
7, 34860, Note_on_c, 0, 79, 52
7, 35039, Note_on_c, 0, 79, 0
7, 36040, Control_c, 0, 11, 114
7, 36060, Note_on_c, 0, 83, 84
7, 36080, Control_c, 0, 11, 117
7, 36119, Note_on_c, 0, 83, 0
7, 36120, Note_on_c, 0, 84, 84
7, 36120, Control_c, 0, 11, 119
7, 36160, Control_c, 0, 11, 122
7, 36179, Note_on_c, 0, 84, 0
7, 36180, Note_on_c, 0, 78, 84
7, 36200, Control_c, 0, 11, 124
7, 36231, Note_on_c, 0, 78, 0
7, 36240, Note_on_c, 0, 79, 84
7, 36240, Control_c, 0, 11, 127
7, 36591, Note_on_c, 0, 79, 0
7, 36600, Note_on_c, 0, 83, 92
7, 36600, Note_on_c, 0, 86, 92
7, 36689, Note_on_c, 0, 83, 0
7, 36689, Note_on_c, 0, 86, 0
7, 36720, Note_on_c, 0, 91, 84
7, 36720, Note_on_c, 0, 79, 84
7, 37071, Note_on_c, 0, 91, 0
7, 37071, Note_on_c, 0, 79, 0
7, 37080, Note_on_c, 0, 86, 92
7, 37080, Note_on_c, 0, 83, 92
7, 37169, Note_on_c, 0, 86, 0
7, 37169, Note_on_c, 0, 83, 0
7, 37200, Note_on_c, 0, 79, 84
7, 37200, Note_on_c, 0, 91, 84
7, 37289, Note_on_c, 0, 79, 0
7, 37289, Note_on_c, 0, 91, 0
7, 37320, Note_on_c, 0, 86, 92
7, 37320, Note_on_c, 0, 83, 92
7, 37409, Note_on_c, 0, 86, 0
7, 37409, Note_on_c, 0, 83, 0
7, 37440, Note_on_c, 0, 79, 84
7, 37440, Note_on_c, 0, 91, 84
7, 37529, Note_on_c, 0, 79, 0
7, 37529, Note_on_c, 0, 91, 0
7, 37560, Note_on_c, 0, 83, 92
7, 37560, Note_on_c, 0, 86, 92
7, 37649, Note_on_c, 0, 83, 0
7, 37649, Note_on_c, 0, 86, 0
7, 37680, Note_on_c, 0, 91, 84
7, 37680, Note_on_c, 0, 79, 84
7, 37769, Note_on_c, 0, 91, 0
7, 37769, Note_on_c, 0, 79, 0
7, 38640, Note_on_c, 0, 84, 52
7, 38640, Note_on_c, 0, 82, 52
7, 39111, Note_on_c, 0, 82, 0
7, 39120, Note_on_c, 0, 81, 52
7, 39155, Note_on_c, 0, 84, 0
7, 39160, Note_on_c, 0, 84, 52
7, 39195, Note_on_c, 0, 84, 0
7, 39200, Note_on_c, 0, 84, 53
7, 39231, Note_on_c, 0, 81, 0
7, 39235, Note_on_c, 0, 84, 0
7, 39240, Note_on_c, 0, 84, 54
7, 39275, Note_on_c, 0, 84, 0
7, 39280, Note_on_c, 0, 84, 54
7, 39315, Note_on_c, 0, 84, 0
7, 39320, Note_on_c, 0, 84, 55
7, 39359, Note_on_c, 0, 84, 0
7, 39400, Note_on_c, 0, 84, 56
7, 39435, Note_on_c, 0, 84, 0
7, 39440, Note_on_c, 0, 84, 57
7, 39475, Note_on_c, 0, 84, 0
7, 39480, Note_on_c, 0, 84, 58
7, 39515, Note_on_c, 0, 84, 0
7, 39520, Note_on_c, 0, 84, 58
7, 39555, Note_on_c, 0, 84, 0
7, 39560, Note_on_c, 0, 84, 59
7, 39599, Note_on_c, 0, 84, 0
7, 39640, Note_on_c, 0, 84, 60
7, 39675, Note_on_c, 0, 84, 0
7, 39680, Note_on_c, 0, 84, 61
7, 39715, Note_on_c, 0, 84, 0
7, 39720, Note_on_c, 0, 84, 62
7, 39755, Note_on_c, 0, 84, 0
7, 39760, Note_on_c, 0, 84, 62
7, 39795, Note_on_c, 0, 84, 0
7, 39800, Note_on_c, 0, 84, 63
7, 39839, Note_on_c, 0, 84, 0
7, 39880, Note_on_c, 0, 84, 64
7, 39915, Note_on_c, 0, 84, 0
7, 39920, Note_on_c, 0, 84, 65
7, 39955, Note_on_c, 0, 84, 0
7, 39960, Note_on_c, 0, 84, 66
7, 39995, Note_on_c, 0, 84, 0
7, 40000, Note_on_c, 0, 84, 66
7, 40035, Note_on_c, 0, 84, 0
7, 40040, Note_on_c, 0, 84, 67
7, 40075, Note_on_c, 0, 84, 0
7, 40080, Note_on_c, 0, 84, 52
7, 40109, Note_on_c, 0, 84, 0
7, 40120, Note_on_c, 0, 92, 52
7, 40159, Note_on_c, 0, 92, 0
7, 40160, Note_on_c, 0, 93, 52
7, 40199, Note_on_c, 0, 93, 0
7, 40240, Note_on_c, 0, 93, 52
7, 40279, Note_on_c, 0, 93, 0
7, 40280, Note_on_c, 0, 91, 52
7, 40319, Note_on_c, 0, 91, 0
7, 40360, Note_on_c, 0, 91, 52
7, 40399, Note_on_c, 0, 91, 0
7, 40400, Note_on_c, 0, 89, 52
7, 40439, Note_on_c, 0, 89, 0
7, 40480, Note_on_c, 0, 89, 52
7, 40519, Note_on_c, 0, 89, 0
7, 40520, Note_on_c, 0, 88, 52
7, 40559, Note_on_c, 0, 88, 0
7, 40600, Note_on_c, 0, 88, 52
7, 40639, Note_on_c, 0, 88, 0
7, 40640, Note_on_c, 0, 86, 52
7, 40679, Note_on_c, 0, 86, 0
7, 40720, Note_on_c, 0, 86, 52
7, 40759, Note_on_c, 0, 86, 0
7, 40760, Note_on_c, 0, 85, 52
7, 40799, Note_on_c, 0, 85, 0
7, 40840, Note_on_c, 0, 85, 52
7, 40879, Note_on_c, 0, 85, 0
7, 40880, Note_on_c, 0, 86, 52
7, 40919, Note_on_c, 0, 86, 0
7, 40960, Note_on_c, 0, 86, 52
7, 40999, Note_on_c, 0, 86, 0
7, 41000, Note_on_c, 0, 84, 52
7, 41035, Note_on_c, 0, 84, 0
7, 41040, Note_on_c, 0, 83, 52
7, 41159, Note_on_c, 0, 83, 0
7, 41280, Note_on_c, 0, 72, 52
7, 41309, Note_on_c, 0, 72, 0
7, 41320, Note_on_c, 0, 76, 52
7, 41349, Note_on_c, 0, 76, 0
7, 41360, Note_on_c, 0, 79, 52
7, 41389, Note_on_c, 0, 79, 0
7, 41400, Note_on_c, 0, 84, 52
7, 41429, Note_on_c, 0, 84, 0
7, 41440, Note_on_c, 0, 88, 52
7, 41469, Note_on_c, 0, 88, 0
7, 41480, Note_on_c, 0, 84, 52
7, 41509, Note_on_c, 0, 84, 0
7, 41520, Note_on_c, 0, 91, 52
7, 41639, Note_on_c, 0, 91, 0
7, 41760, Note_on_c, 0, 72, 52
7, 41789, Note_on_c, 0, 72, 0
7, 41800, Note_on_c, 0, 76, 52
7, 41829, Note_on_c, 0, 76, 0
7, 41840, Note_on_c, 0, 79, 52
7, 41869, Note_on_c, 0, 79, 0
7, 41880, Note_on_c, 0, 84, 52
7, 41909, Note_on_c, 0, 84, 0
7, 41920, Note_on_c, 0, 88, 52
7, 41949, Note_on_c, 0, 88, 0
7, 41960, Note_on_c, 0, 84, 52
7, 41989, Note_on_c, 0, 84, 0
7, 42000, Note_on_c, 0, 91, 52
7, 42029, Note_on_c, 0, 91, 0
7, 42040, Note_on_c, 0, 90, 52
7, 42069, Note_on_c, 0, 90, 0
7, 42080, Note_on_c, 0, 91, 52
7, 42109, Note_on_c, 0, 91, 0
7, 42120, Note_on_c, 0, 86, 52
7, 42149, Note_on_c, 0, 86, 0
7, 42160, Note_on_c, 0, 85, 52
7, 42189, Note_on_c, 0, 85, 0
7, 42200, Note_on_c, 0, 86, 52
7, 42229, Note_on_c, 0, 86, 0
7, 42240, Note_on_c, 0, 83, 52
7, 42269, Note_on_c, 0, 83, 0
7, 42280, Note_on_c, 0, 82, 52
7, 42309, Note_on_c, 0, 82, 0
7, 42320, Note_on_c, 0, 83, 52
7, 42349, Note_on_c, 0, 83, 0
7, 42360, Note_on_c, 0, 79, 52
7, 42389, Note_on_c, 0, 79, 0
7, 42400, Note_on_c, 0, 78, 52
7, 42429, Note_on_c, 0, 78, 0
7, 42440, Note_on_c, 0, 79, 52
7, 42469, Note_on_c, 0, 79, 0
7, 42480, Note_on_c, 0, 77, 52
7, 42599, Note_on_c, 0, 77, 0
7, 43480, Note_on_c, 0, 72, 52
7, 43509, Note_on_c, 0, 72, 0
7, 43520, Note_on_c, 0, 76, 52
7, 43549, Note_on_c, 0, 76, 0
7, 43560, Note_on_c, 0, 79, 52
7, 43589, Note_on_c, 0, 79, 0
7, 43600, Note_on_c, 0, 84, 52
7, 43629, Note_on_c, 0, 84, 0
7, 43640, Note_on_c, 0, 88, 52
7, 43669, Note_on_c, 0, 88, 0
7, 43680, Note_on_c, 0, 91, 52
7, 43709, Note_on_c, 0, 91, 0
7, 43720, Note_on_c, 0, 88, 52
7, 43749, Note_on_c, 0, 88, 0
7, 43760, Note_on_c, 0, 84, 52
7, 43789, Note_on_c, 0, 84, 0
7, 43800, Note_on_c, 0, 79, 52
7, 43829, Note_on_c, 0, 79, 0
7, 43840, Note_on_c, 0, 76, 52
7, 43869, Note_on_c, 0, 76, 0
7, 43880, Note_on_c, 0, 72, 52
7, 43909, Note_on_c, 0, 72, 0
7, 43920, Note_on_c, 0, 77, 52
7, 44039, Note_on_c, 0, 77, 0
7, 44400, Note_on_c, 0, 69, 52
7, 44429, Note_on_c, 0, 69, 0
7, 44440, Note_on_c, 0, 72, 52
7, 44469, Note_on_c, 0, 72, 0
7, 44480, Note_on_c, 0, 77, 52
7, 44509, Note_on_c, 0, 77, 0
7, 44520, Note_on_c, 0, 81, 52
7, 44549, Note_on_c, 0, 81, 0
7, 44560, Note_on_c, 0, 84, 52
7, 44589, Note_on_c, 0, 84, 0
7, 44600, Note_on_c, 0, 89, 52
7, 44629, Note_on_c, 0, 89, 0
7, 44640, Note_on_c, 0, 93, 52
7, 44729, Note_on_c, 0, 93, 0
7, 44880, Control_c, 0, 11, 64
7, 44920, Control_c, 0, 11, 66
7, 44920, Note_on_c, 0, 76, 84
7, 44949, Note_on_c, 0, 76, 0
7, 44960, Control_c, 0, 11, 68
7, 44960, Note_on_c, 0, 79, 84
7, 44989, Note_on_c, 0, 79, 0
7, 45000, Control_c, 0, 11, 70
7, 45000, Note_on_c, 0, 84, 84
7, 45029, Note_on_c, 0, 84, 0
7, 45040, Control_c, 0, 11, 72
7, 45040, Note_on_c, 0, 88, 84
7, 45069, Note_on_c, 0, 88, 0
7, 45080, Note_on_c, 0, 91, 84
7, 45080, Control_c, 0, 11, 74
7, 45109, Note_on_c, 0, 91, 0
7, 45120, Control_c, 0, 11, 76
7, 45160, Control_c, 0, 11, 78
7, 45160, Note_on_c, 0, 74, 84
7, 45189, Note_on_c, 0, 74, 0
7, 45200, Note_on_c, 0, 79, 84
7, 45200, Control_c, 0, 11, 80
7, 45229, Note_on_c, 0, 79, 0
7, 45240, Control_c, 0, 11, 82
7, 45240, Note_on_c, 0, 83, 84
7, 45269, Note_on_c, 0, 83, 0
7, 45280, Control_c, 0, 11, 84
7, 45280, Note_on_c, 0, 86, 84
7, 45309, Note_on_c, 0, 86, 0
7, 45320, Note_on_c, 0, 91, 84
7, 45320, Control_c, 0, 11, 86
7, 45349, Note_on_c, 0, 91, 0
7, 45360, Control_c, 0, 11, 88
7, 45400, Note_on_c, 0, 79, 84
7, 45400, Control_c, 0, 11, 90
7, 45429, Note_on_c, 0, 79, 0
7, 45440, Note_on_c, 0, 84, 84
7, 45440, Control_c, 0, 11, 92
7, 45469, Note_on_c, 0, 84, 0
7, 45480, Note_on_c, 0, 88, 84
7, 45480, Control_c, 0, 11, 94
7, 45509, Note_on_c, 0, 88, 0
7, 45520, Note_on_c, 0, 91, 84
7, 45520, Control_c, 0, 11, 96
7, 45549, Note_on_c, 0, 91, 0
7, 45560, Control_c, 0, 11, 98
7, 45560, Note_on_c, 0, 92, 84
7, 45589, Note_on_c, 0, 92, 0
7, 45600, Note_on_c, 0, 93, 84
7, 45600, Control_c, 0, 11, 100
7, 45640, Control_c, 0, 11, 102
7, 45659, Note_on_c, 0, 93, 0
7, 45660, Note_on_c, 0, 89, 84
7, 45680, Control_c, 0, 11, 104
7, 45719, Note_on_c, 0, 89, 0
7, 45720, Note_on_c, 0, 88, 84
7, 45720, Control_c, 0, 11, 106
7, 45760, Control_c, 0, 11, 108
7, 45779, Note_on_c, 0, 88, 0
7, 45780, Note_on_c, 0, 86, 84
7, 45800, Control_c, 0, 11, 112
7, 45831, Note_on_c, 0, 86, 0
7, 45840, Note_on_c, 0, 84, 84
7, 45840, Control_c, 0, 11, 112
7, 45904, Control_c, 0, 11, 113
7, 45951, Note_on_c, 0, 84, 0
7, 45960, Note_on_c, 0, 84, 84
7, 45960, Note_on_c, 0, 88, 84
7, 45968, Control_c, 0, 11, 114
7, 46032, Control_c, 0, 11, 115
7, 46096, Control_c, 0, 11, 116
7, 46160, Control_c, 0, 11, 117
7, 46199, Note_on_c, 0, 84, 0
7, 46199, Note_on_c, 0, 88, 0
7, 46200, Note_on_c, 0, 88, 84
7, 46200, Note_on_c, 0, 91, 84
7, 46224, Control_c, 0, 11, 118
7, 46288, Control_c, 0, 11, 119
7, 46311, Note_on_c, 0, 88, 0
7, 46311, Note_on_c, 0, 91, 0
7, 46320, Note_on_c, 0, 83, 84
7, 46320, Note_on_c, 0, 91, 84
7, 46352, Control_c, 0, 11, 120
7, 46416, Control_c, 0, 11, 121
7, 46480, Control_c, 0, 11, 122
7, 46544, Control_c, 0, 11, 123
7, 46608, Control_c, 0, 11, 124
7, 46671, Note_on_c, 0, 83, 0
7, 46671, Note_on_c, 0, 91, 0
7, 46672, Control_c, 0, 11, 125
7, 46680, Note_on_c, 0, 89, 84
7, 46680, Note_on_c, 0, 83, 84
7, 46736, Control_c, 0, 11, 126
7, 46769, Note_on_c, 0, 89, 0
7, 46769, Note_on_c, 0, 83, 0
7, 46770, Note_on_c, 0, 77, 84
7, 46770, Note_on_c, 0, 86, 84
7, 46795, Note_on_c, 0, 77, 0
7, 46795, Note_on_c, 0, 86, 0
7, 46800, Note_on_c, 0, 76, 84
7, 46800, Note_on_c, 0, 84, 84
7, 47151, Note_on_c, 0, 76, 0
7, 47151, Note_on_c, 0, 84, 0
7, 47160, Note_on_c, 0, 88, 92
7, 47160, Note_on_c, 0, 79, 92
7, 47249, Note_on_c, 0, 88, 0
7, 47249, Note_on_c, 0, 79, 0
7, 47280, Note_on_c, 0, 76, 84
7, 47280, Note_on_c, 0, 84, 84
7, 47631, Note_on_c, 0, 76, 0
7, 47631, Note_on_c, 0, 84, 0
7, 47640, Note_on_c, 0, 88, 92
7, 47640, Note_on_c, 0, 79, 92
7, 47729, Note_on_c, 0, 88, 0
7, 47729, Note_on_c, 0, 79, 0
7, 47760, Note_on_c, 0, 84, 84
7, 47760, Note_on_c, 0, 76, 84
7, 47849, Note_on_c, 0, 84, 0
7, 47849, Note_on_c, 0, 76, 0
7, 47880, Note_on_c, 0, 79, 92
7, 47880, Note_on_c, 0, 88, 92
7, 47969, Note_on_c, 0, 79, 0
7, 47969, Note_on_c, 0, 88, 0
7, 48000, Note_on_c, 0, 84, 84
7, 48000, Note_on_c, 0, 76, 84
7, 48089, Note_on_c, 0, 84, 0
7, 48089, Note_on_c, 0, 76, 0
7, 48120, Note_on_c, 0, 88, 92
7, 48120, Note_on_c, 0, 79, 92
7, 48209, Note_on_c, 0, 88, 0
7, 48209, Note_on_c, 0, 79, 0
7, 48240, Note_on_c, 0, 84, 84
7, 48240, Note_on_c, 0, 76, 84
7, 48329, Note_on_c, 0, 84, 0
7, 48329, Note_on_c, 0, 76, 0
7, 55920, Note_on_c, 0, 84, 76
7, 56391, Note_on_c, 0, 84, 0
7, 56400, Note_on_c, 0, 80, 84
7, 56864, Note_on_c, 0, 80, 0
7, 56880, Note_on_c, 0, 83, 84
7, 57224, Note_on_c, 0, 83, 0
7, 57240, Note_on_c, 0, 83, 76
7, 57254, Note_on_c, 0, 83, 0
7, 57255, Note_on_c, 0, 84, 76
7, 57269, Note_on_c, 0, 84, 0
7, 57270, Note_on_c, 0, 83, 76
7, 57284, Note_on_c, 0, 83, 0
7, 57285, Note_on_c, 0, 84, 76
7, 57299, Note_on_c, 0, 84, 0
7, 57300, Note_on_c, 0, 83, 76
7, 57314, Note_on_c, 0, 83, 0
7, 57315, Note_on_c, 0, 84, 76
7, 57329, Note_on_c, 0, 84, 0
7, 57330, Note_on_c, 0, 81, 76
7, 57344, Note_on_c, 0, 81, 0
7, 57345, Note_on_c, 0, 83, 76
7, 57356, Note_on_c, 0, 83, 0
7, 57360, Note_on_c, 0, 84, 76
7, 57711, Note_on_c, 0, 84, 0
7, 57720, Note_on_c, 0, 84, 76
7, 57831, Note_on_c, 0, 84, 0
7, 57840, Note_on_c, 0, 84, 76
7, 57959, Note_on_c, 0, 84, 0
7, 58920, Note_on_c, 0, 79, 76
7, 59039, Note_on_c, 0, 79, 0
7, 59040, Note_on_c, 0, 80, 76
7, 59159, Note_on_c, 0, 80, 0
7, 59160, Note_on_c, 0, 84, 76
7, 59399, Note_on_c, 0, 84, 0
7, 62160, Note_on_c, 0, 77, 84
7, 62399, Note_on_c, 0, 77, 0
7, 62400, Note_on_c, 0, 79, 84
7, 62519, Note_on_c, 0, 79, 0
7, 62520, Note_on_c, 0, 80, 84
7, 62631, Note_on_c, 0, 80, 0
7, 62640, Note_on_c, 0, 82, 92
7, 62984, Note_on_c, 0, 82, 0
7, 63000, Note_on_c, 0, 80, 84
7, 63111, Note_on_c, 0, 80, 0
7, 63120, Note_on_c, 0, 79, 84
7, 63239, Note_on_c, 0, 79, 0
7, 63240, Note_on_c, 0, 85, 84
7, 63359, Note_on_c, 0, 85, 0
7, 63360, Note_on_c, 0, 84, 84
7, 63479, Note_on_c, 0, 84, 0
7, 63480, Note_on_c, 0, 82, 84
7, 63591, Note_on_c, 0, 82, 0
7, 63600, Note_on_c, 0, 80, 84
7, 64191, Note_on_c, 0, 80, 0
7, 64200, Note_on_c, 0, 86, 84
7, 64200, Note_on_c, 0, 74, 84
7, 64319, Note_on_c, 0, 86, 0
7, 64319, Note_on_c, 0, 74, 0
7, 64320, Note_on_c, 0, 87, 84
7, 64320, Note_on_c, 0, 75, 84
7, 64439, Note_on_c, 0, 87, 0
7, 64439, Note_on_c, 0, 75, 0
7, 64440, Note_on_c, 0, 89, 84
7, 64440, Note_on_c, 0, 77, 84
7, 64551, Note_on_c, 0, 89, 0
7, 64551, Note_on_c, 0, 77, 0
7, 64560, Note_on_c, 0, 91, 84
7, 64560, Note_on_c, 0, 79, 84
7, 64679, Note_on_c, 0, 91, 0
7, 64679, Note_on_c, 0, 79, 0
7, 67500, Note_on_c, 0, 80, 84
7, 67500, Note_on_c, 0, 77, 84
7, 67544, Note_on_c, 0, 80, 0
7, 67544, Note_on_c, 0, 77, 0
7, 67560, Note_on_c, 0, 82, 84
7, 67560, Note_on_c, 0, 79, 84
7, 67604, Note_on_c, 0, 82, 0
7, 67604, Note_on_c, 0, 79, 0
7, 67620, Note_on_c, 0, 84, 84
7, 67620, Note_on_c, 0, 80, 84
7, 67664, Note_on_c, 0, 84, 0
7, 67664, Note_on_c, 0, 80, 0
7, 67680, Note_on_c, 0, 86, 84
7, 67680, Note_on_c, 0, 82, 84
7, 67724, Note_on_c, 0, 86, 0
7, 67724, Note_on_c, 0, 82, 0
7, 67740, Note_on_c, 0, 87, 84
7, 67740, Note_on_c, 0, 84, 84
7, 67784, Note_on_c, 0, 87, 0
7, 67784, Note_on_c, 0, 84, 0
7, 67800, Note_on_c, 0, 89, 84
7, 67800, Note_on_c, 0, 86, 84
7, 67844, Note_on_c, 0, 89, 0
7, 67844, Note_on_c, 0, 86, 0
7, 67860, Note_on_c, 0, 91, 84
7, 67860, Note_on_c, 0, 87, 84
7, 67904, Note_on_c, 0, 91, 0
7, 67904, Note_on_c, 0, 87, 0
7, 67920, Note_on_c, 0, 92, 84
7, 67920, Note_on_c, 0, 89, 84
7, 68039, Note_on_c, 0, 92, 0
7, 68039, Note_on_c, 0, 89, 0
7, 68460, Note_on_c, 0, 83, 84
7, 68504, Note_on_c, 0, 83, 0
7, 68520, Note_on_c, 0, 81, 84
7, 68564, Note_on_c, 0, 81, 0
7, 68580, Note_on_c, 0, 83, 84
7, 68580, Note_on_c, 0, 79, 84
7, 68624, Note_on_c, 0, 83, 0
7, 68624, Note_on_c, 0, 79, 0
7, 68640, Note_on_c, 0, 84, 84
7, 68640, Note_on_c, 0, 81, 84
7, 68684, Note_on_c, 0, 84, 0
7, 68684, Note_on_c, 0, 81, 0
7, 68700, Note_on_c, 0, 86, 84
7, 68700, Note_on_c, 0, 83, 84
7, 68744, Note_on_c, 0, 86, 0
7, 68744, Note_on_c, 0, 83, 0
7, 68760, Note_on_c, 0, 87, 84
7, 68760, Note_on_c, 0, 84, 84
7, 68804, Note_on_c, 0, 87, 0
7, 68804, Note_on_c, 0, 84, 0
7, 68820, Note_on_c, 0, 89, 84
7, 68820, Note_on_c, 0, 86, 84
7, 68864, Note_on_c, 0, 89, 0
7, 68864, Note_on_c, 0, 86, 0
7, 68880, Note_on_c, 0, 91, 84
7, 68880, Note_on_c, 0, 87, 84
7, 68991, Note_on_c, 0, 91, 0
7, 68991, Note_on_c, 0, 87, 0
7, 69000, Note_on_c, 0, 91, 84
7, 69000, Note_on_c, 0, 79, 84
7, 69231, Note_on_c, 0, 91, 0
7, 69231, Note_on_c, 0, 79, 0
7, 69240, Note_on_c, 0, 91, 84
7, 69240, Note_on_c, 0, 79, 84
7, 69299, Note_on_c, 0, 91, 0
7, 69299, Note_on_c, 0, 79, 0
7, 69300, Note_on_c, 0, 85, 84
7, 69300, Note_on_c, 0, 73, 84
7, 69351, Note_on_c, 0, 85, 0
7, 69351, Note_on_c, 0, 73, 0
7, 69360, Note_on_c, 0, 86, 84
7, 69360, Note_on_c, 0, 74, 84
7, 69479, Note_on_c, 0, 86, 0
7, 69479, Note_on_c, 0, 74, 0
7, 69600, Note_on_c, 0, 86, 92
7, 69840, Note_on_c, 0, 87, 84
7, 70071, Note_on_c, 0, 86, 0
7, 70080, Note_on_c, 0, 84, 92
7, 70311, Note_on_c, 0, 87, 0
7, 70320, Note_on_c, 0, 86, 84
7, 70551, Note_on_c, 0, 84, 0
7, 70560, Note_on_c, 0, 82, 92
7, 70791, Note_on_c, 0, 86, 0
7, 70800, Note_on_c, 0, 84, 84
7, 71031, Note_on_c, 0, 82, 0
7, 71040, Note_on_c, 0, 81, 92
7, 71391, Note_on_c, 0, 84, 0
7, 71391, Note_on_c, 0, 81, 0
7, 71400, Note_on_c, 0, 82, 84
7, 71400, Note_on_c, 0, 79, 84
7, 71511, Note_on_c, 0, 82, 0
7, 71511, Note_on_c, 0, 79, 0
7, 71520, Note_on_c, 0, 82, 84
7, 71520, Note_on_c, 0, 79, 84
7, 71639, Note_on_c, 0, 82, 0
7, 71639, Note_on_c, 0, 79, 0
7, 71640, Note_on_c, 0, 91, 84
7, 71640, Note_on_c, 0, 82, 84
7, 71751, Note_on_c, 0, 91, 0
7, 71751, Note_on_c, 0, 82, 0
7, 71760, Note_on_c, 0, 91, 84
7, 71760, Note_on_c, 0, 82, 84
7, 71849, Note_on_c, 0, 91, 0
7, 71849, Note_on_c, 0, 82, 0
7, 73440, Note_on_c, 0, 78, 52
7, 73440, Note_on_c, 0, 74, 52
7, 73679, Note_on_c, 0, 78, 0
7, 73680, Note_on_c, 0, 79, 52
7, 73799, Note_on_c, 0, 74, 0
7, 73799, Note_on_c, 0, 79, 0
7, 79440, Note_on_c, 0, 86, 84
7, 79440, Note_on_c, 0, 83, 84
7, 80151, Note_on_c, 0, 86, 0
7, 80151, Note_on_c, 0, 83, 0
7, 80160, Note_on_c, 0, 74, 84
7, 80189, Note_on_c, 0, 74, 0
7, 80200, Note_on_c, 0, 77, 84
7, 80229, Note_on_c, 0, 77, 0
7, 80240, Note_on_c, 0, 80, 84
7, 80269, Note_on_c, 0, 80, 0
7, 80280, Note_on_c, 0, 83, 84
7, 80280, Note_on_c, 0, 71, 84
7, 80309, Note_on_c, 0, 83, 0
7, 80309, Note_on_c, 0, 71, 0
7, 80320, Note_on_c, 0, 74, 84
7, 80320, Note_on_c, 0, 86, 84
7, 80349, Note_on_c, 0, 74, 0
7, 80349, Note_on_c, 0, 86, 0
7, 80360, Note_on_c, 0, 89, 84
7, 80360, Note_on_c, 0, 77, 84
7, 80389, Note_on_c, 0, 89, 0
7, 80389, Note_on_c, 0, 77, 0
7, 80400, Note_on_c, 0, 92, 84
7, 80400, Note_on_c, 0, 80, 84
7, 80435, Note_on_c, 0, 92, 0
7, 80440, Note_on_c, 0, 92, 84
7, 80475, Note_on_c, 0, 92, 0
7, 80480, Note_on_c, 0, 92, 84
7, 80515, Note_on_c, 0, 92, 0
7, 80519, Note_on_c, 0, 80, 0
7, 80520, Note_on_c, 0, 92, 84
7, 80555, Note_on_c, 0, 92, 0
7, 80560, Note_on_c, 0, 92, 81
7, 80595, Note_on_c, 0, 92, 0
7, 80600, Note_on_c, 0, 92, 77
7, 80635, Note_on_c, 0, 92, 0
7, 80640, Note_on_c, 0, 92, 74
7, 80675, Note_on_c, 0, 92, 0
7, 80680, Note_on_c, 0, 92, 70
7, 80715, Note_on_c, 0, 92, 0
7, 80720, Note_on_c, 0, 92, 67
7, 80755, Note_on_c, 0, 92, 0
7, 80760, Note_on_c, 0, 91, 63
7, 80795, Note_on_c, 0, 91, 0
7, 80800, Note_on_c, 0, 91, 60
7, 80835, Note_on_c, 0, 91, 0
7, 80840, Note_on_c, 0, 91, 56
7, 80879, Note_on_c, 0, 91, 0
7, 80920, Note_on_c, 0, 90, 52
7, 80955, Note_on_c, 0, 90, 0
7, 80960, Note_on_c, 0, 90, 52
7, 80999, Note_on_c, 0, 90, 0
7, 81040, Note_on_c, 0, 91, 52
7, 81075, Note_on_c, 0, 91, 0
7, 81080, Note_on_c, 0, 91, 52
7, 81119, Note_on_c, 0, 91, 0
7, 81160, Note_on_c, 0, 92, 52
7, 81195, Note_on_c, 0, 92, 0
7, 81200, Note_on_c, 0, 92, 52
7, 81239, Note_on_c, 0, 92, 0
7, 81280, Note_on_c, 0, 91, 52
7, 81315, Note_on_c, 0, 91, 0
7, 81320, Note_on_c, 0, 91, 52
7, 81359, Note_on_c, 0, 91, 0
7, 81400, Note_on_c, 0, 89, 52
7, 81435, Note_on_c, 0, 89, 0
7, 81440, Note_on_c, 0, 89, 52
7, 81479, Note_on_c, 0, 89, 0
7, 81520, Note_on_c, 0, 87, 52
7, 81555, Note_on_c, 0, 87, 0
7, 81560, Note_on_c, 0, 87, 52
7, 81599, Note_on_c, 0, 87, 0
7, 81640, Note_on_c, 0, 86, 52
7, 81675, Note_on_c, 0, 86, 0
7, 81680, Note_on_c, 0, 86, 52
7, 81719, Note_on_c, 0, 86, 0
7, 81760, Note_on_c, 0, 84, 52
7, 81795, Note_on_c, 0, 84, 0
7, 81800, Note_on_c, 0, 84, 52
7, 81839, Note_on_c, 0, 84, 0
7, 81880, Note_on_c, 0, 83, 52
7, 81915, Note_on_c, 0, 83, 0
7, 81920, Note_on_c, 0, 83, 52
7, 81959, Note_on_c, 0, 83, 0
7, 82000, Note_on_c, 0, 80, 52
7, 82035, Note_on_c, 0, 80, 0
7, 82040, Note_on_c, 0, 80, 52
7, 82079, Note_on_c, 0, 80, 0
7, 82120, Note_on_c, 0, 79, 52
7, 82155, Note_on_c, 0, 79, 0
7, 82160, Note_on_c, 0, 79, 52
7, 82199, Note_on_c, 0, 79, 0
7, 82240, Note_on_c, 0, 82, 60
7, 82275, Note_on_c, 0, 82, 0
7, 82280, Note_on_c, 0, 82, 52
7, 82319, Note_on_c, 0, 82, 0
7, 82360, Note_on_c, 0, 79, 52
7, 82395, Note_on_c, 0, 79, 0
7, 82400, Note_on_c, 0, 79, 52
7, 82439, Note_on_c, 0, 79, 0
7, 82480, Note_on_c, 0, 86, 60
7, 82515, Note_on_c, 0, 86, 0
7, 82520, Note_on_c, 0, 86, 52
7, 82559, Note_on_c, 0, 86, 0
7, 82600, Note_on_c, 0, 79, 52
7, 82635, Note_on_c, 0, 79, 0
7, 82640, Note_on_c, 0, 79, 52
7, 82679, Note_on_c, 0, 79, 0
7, 82720, Note_on_c, 0, 91, 60
7, 82755, Note_on_c, 0, 91, 0
7, 82760, Note_on_c, 0, 91, 52
7, 82799, Note_on_c, 0, 91, 0
7, 82840, Note_on_c, 0, 79, 52
7, 82875, Note_on_c, 0, 79, 0
7, 82880, Note_on_c, 0, 79, 52
7, 82919, Note_on_c, 0, 79, 0
7, 82960, Note_on_c, 0, 80, 60
7, 82995, Note_on_c, 0, 80, 0
7, 83000, Note_on_c, 0, 80, 52
7, 83039, Note_on_c, 0, 80, 0
7, 83080, Note_on_c, 0, 79, 52
7, 83115, Note_on_c, 0, 79, 0
7, 83120, Note_on_c, 0, 79, 52
7, 83159, Note_on_c, 0, 79, 0
7, 83200, Note_on_c, 0, 84, 60
7, 83235, Note_on_c, 0, 84, 0
7, 83240, Note_on_c, 0, 84, 52
7, 83279, Note_on_c, 0, 84, 0
7, 83320, Note_on_c, 0, 79, 52
7, 83355, Note_on_c, 0, 79, 0
7, 83360, Note_on_c, 0, 79, 52
7, 83399, Note_on_c, 0, 79, 0
7, 83440, Note_on_c, 0, 87, 60
7, 83475, Note_on_c, 0, 87, 0
7, 83480, Note_on_c, 0, 87, 52
7, 83519, Note_on_c, 0, 87, 0
7, 83560, Note_on_c, 0, 79, 52
7, 83595, Note_on_c, 0, 79, 0
7, 83600, Note_on_c, 0, 79, 52
7, 83639, Note_on_c, 0, 79, 0
7, 83680, Note_on_c, 0, 91, 60
7, 83715, Note_on_c, 0, 91, 0
7, 83720, Note_on_c, 0, 91, 52
7, 83759, Note_on_c, 0, 91, 0
7, 83800, Note_on_c, 0, 79, 52
7, 83835, Note_on_c, 0, 79, 0
7, 83840, Note_on_c, 0, 79, 52
7, 83879, Note_on_c, 0, 79, 0
7, 83920, Note_on_c, 0, 80, 60
7, 83955, Note_on_c, 0, 80, 0
7, 83960, Note_on_c, 0, 80, 52
7, 83999, Note_on_c, 0, 80, 0
7, 84040, Note_on_c, 0, 79, 52
7, 84075, Note_on_c, 0, 79, 0
7, 84080, Note_on_c, 0, 79, 52
7, 84119, Note_on_c, 0, 79, 0
7, 84160, Note_on_c, 0, 84, 60
7, 84195, Note_on_c, 0, 84, 0
7, 84200, Note_on_c, 0, 84, 52
7, 84239, Note_on_c, 0, 84, 0
7, 84280, Note_on_c, 0, 79, 52
7, 84315, Note_on_c, 0, 79, 0
7, 84320, Note_on_c, 0, 79, 52
7, 84359, Note_on_c, 0, 79, 0
7, 84360, Note_on_c, 0, 78, 68
7, 84400, Note_on_c, 0, 87, 60
7, 84435, Note_on_c, 0, 87, 0
7, 84440, Note_on_c, 0, 87, 52
7, 84479, Note_on_c, 0, 87, 0
7, 84520, Note_on_c, 0, 79, 52
7, 84555, Note_on_c, 0, 79, 0
7, 84560, Note_on_c, 0, 79, 52
7, 84599, Note_on_c, 0, 78, 0
7, 84599, Note_on_c, 0, 79, 0
7, 84600, Note_on_c, 0, 79, 52
7, 84640, Note_on_c, 0, 91, 60
7, 84675, Note_on_c, 0, 91, 0
7, 84680, Note_on_c, 0, 91, 52
7, 84719, Note_on_c, 0, 79, 0
7, 84719, Note_on_c, 0, 91, 0
7, 84760, Note_on_c, 0, 77, 52
7, 84795, Note_on_c, 0, 77, 0
7, 84800, Note_on_c, 0, 77, 52
7, 84839, Note_on_c, 0, 77, 0
7, 84880, Note_on_c, 0, 86, 60
7, 84915, Note_on_c, 0, 86, 0
7, 84920, Note_on_c, 0, 86, 52
7, 84959, Note_on_c, 0, 86, 0
7, 85000, Note_on_c, 0, 83, 52
7, 85035, Note_on_c, 0, 83, 0
7, 85040, Note_on_c, 0, 83, 52
7, 85079, Note_on_c, 0, 83, 0
7, 85120, Note_on_c, 0, 89, 60
7, 85155, Note_on_c, 0, 89, 0
7, 85160, Note_on_c, 0, 89, 52
7, 85199, Note_on_c, 0, 89, 0
7, 85240, Note_on_c, 0, 86, 53
7, 85275, Note_on_c, 0, 86, 0
7, 85280, Note_on_c, 0, 86, 54
7, 85319, Note_on_c, 0, 86, 0
7, 85360, Note_on_c, 0, 92, 57
7, 85395, Note_on_c, 0, 92, 0
7, 85400, Note_on_c, 0, 92, 58
7, 85439, Note_on_c, 0, 92, 0
7, 85480, Note_on_c, 0, 92, 61
7, 85515, Note_on_c, 0, 92, 0
7, 85520, Note_on_c, 0, 92, 62
7, 85559, Note_on_c, 0, 92, 0
7, 85600, Note_on_c, 0, 92, 65
7, 85635, Note_on_c, 0, 92, 0
7, 85640, Note_on_c, 0, 92, 66
7, 85679, Note_on_c, 0, 92, 0
7, 85720, Note_on_c, 0, 92, 67
7, 85755, Note_on_c, 0, 92, 0
7, 85760, Note_on_c, 0, 92, 66
7, 85799, Note_on_c, 0, 92, 0
7, 85840, Note_on_c, 0, 89, 63
7, 85875, Note_on_c, 0, 89, 0
7, 85880, Note_on_c, 0, 89, 62
7, 85919, Note_on_c, 0, 89, 0
7, 85960, Note_on_c, 0, 87, 59
7, 85995, Note_on_c, 0, 87, 0
7, 86000, Note_on_c, 0, 87, 58
7, 86039, Note_on_c, 0, 87, 0
7, 86080, Note_on_c, 0, 86, 55
7, 86115, Note_on_c, 0, 86, 0
7, 86120, Note_on_c, 0, 86, 54
7, 86155, Note_on_c, 0, 86, 0
7, 86160, Note_on_c, 0, 87, 52
7, 86279, Note_on_c, 0, 87, 0
7, 88560, Control_c, 0, 11, 96
7, 88800, Note_on_c, 0, 84, 68
7, 88800, Note_on_c, 0, 72, 68
7, 89040, Control_c, 0, 11, 96
7, 89060, Control_c, 0, 11, 99
7, 89080, Control_c, 0, 11, 101
7, 89100, Control_c, 0, 11, 104
7, 89120, Control_c, 0, 11, 106
7, 89140, Control_c, 0, 11, 109
7, 89151, Note_on_c, 0, 84, 0
7, 89151, Note_on_c, 0, 72, 0
7, 89160, Control_c, 0, 11, 112
7, 89160, Note_on_c, 0, 84, 68
7, 89160, Note_on_c, 0, 72, 68
7, 89180, Control_c, 0, 11, 114
7, 89200, Control_c, 0, 11, 117
7, 89220, Control_c, 0, 11, 119
7, 89240, Control_c, 0, 11, 122
7, 89260, Control_c, 0, 11, 127
7, 89271, Note_on_c, 0, 84, 0
7, 89271, Note_on_c, 0, 72, 0
7, 89280, Note_on_c, 0, 78, 76
7, 89280, Note_on_c, 0, 87, 76
7, 89391, Note_on_c, 0, 78, 0
7, 89391, Note_on_c, 0, 87, 0
7, 89400, Note_on_c, 0, 84, 68
7, 89400, Note_on_c, 0, 75, 68
7, 89400, Control_c, 0, 11, 127
7, 89413, Control_c, 0, 11, 124
7, 89427, Control_c, 0, 11, 120
7, 89440, Control_c, 0, 11, 117
7, 89451, Note_on_c, 0, 75, 0
7, 89453, Control_c, 0, 11, 113
7, 89460, Note_on_c, 0, 72, 68
7, 89467, Control_c, 0, 11, 110
7, 89480, Control_c, 0, 11, 106
7, 89493, Control_c, 0, 11, 103
7, 89507, Control_c, 0, 11, 96
7, 89511, Note_on_c, 0, 84, 0
7, 89511, Note_on_c, 0, 72, 0
7, 89520, Note_on_c, 0, 71, 68
7, 89520, Note_on_c, 0, 83, 68
7, 89639, Note_on_c, 0, 71, 0
7, 89639, Note_on_c, 0, 83, 0
7, 90480, Note_on_c, 0, 91, 68
7, 90719, Note_on_c, 0, 91, 0
7, 90720, Note_on_c, 0, 86, 68
7, 90720, Note_on_c, 0, 79, 68
7, 90720, Control_c, 0, 11, 96
7, 90740, Control_c, 0, 11, 99
7, 90760, Control_c, 0, 11, 101
7, 90780, Control_c, 0, 11, 104
7, 90800, Control_c, 0, 11, 106
7, 90820, Control_c, 0, 11, 109
7, 90839, Note_on_c, 0, 86, 0
7, 90840, Note_on_c, 0, 89, 68
7, 90840, Control_c, 0, 11, 112
7, 90860, Control_c, 0, 11, 114
7, 90880, Control_c, 0, 11, 117
7, 90900, Control_c, 0, 11, 119
7, 90920, Control_c, 0, 11, 122
7, 90940, Control_c, 0, 11, 124
7, 90959, Note_on_c, 0, 89, 0
7, 90960, Note_on_c, 0, 87, 68
7, 90960, Control_c, 0, 11, 127
7, 90980, Control_c, 0, 11, 126
7, 91000, Control_c, 0, 11, 124
7, 91020, Control_c, 0, 11, 123
7, 91040, Control_c, 0, 11, 122
7, 91060, Control_c, 0, 11, 121
7, 91080, Control_c, 0, 11, 119
7, 91100, Control_c, 0, 11, 118
7, 91120, Control_c, 0, 11, 117
7, 91140, Control_c, 0, 11, 115
7, 91160, Control_c, 0, 11, 114
7, 91180, Control_c, 0, 11, 113
7, 91199, Note_on_c, 0, 87, 0
7, 91200, Control_c, 0, 11, 112
7, 91200, Note_on_c, 0, 86, 68
7, 91220, Control_c, 0, 11, 110
7, 91240, Control_c, 0, 11, 109
7, 91260, Control_c, 0, 11, 108
7, 91280, Control_c, 0, 11, 106
7, 91300, Control_c, 0, 11, 105
7, 91319, Note_on_c, 0, 79, 0
7, 91319, Note_on_c, 0, 86, 0
7, 91320, Note_on_c, 0, 78, 68
7, 91320, Control_c, 0, 11, 104
7, 91320, Note_on_c, 0, 84, 68
7, 91340, Control_c, 0, 11, 102
7, 91360, Control_c, 0, 11, 101
7, 91380, Control_c, 0, 11, 100
7, 91400, Control_c, 0, 11, 99
7, 91420, Control_c, 0, 11, 96
7, 91431, Note_on_c, 0, 78, 0
7, 91431, Note_on_c, 0, 84, 0
7, 91440, Note_on_c, 0, 79, 68
7, 91440, Note_on_c, 0, 83, 68
7, 91559, Note_on_c, 0, 79, 0
7, 91559, Note_on_c, 0, 83, 0
7, 92940, Note_on_c, 0, 81, 61
7, 92991, Note_on_c, 0, 81, 0
7, 93000, Note_on_c, 0, 82, 62
7, 93051, Note_on_c, 0, 82, 0
7, 93060, Note_on_c, 0, 83, 63
7, 93111, Note_on_c, 0, 83, 0
7, 93120, Note_on_c, 0, 84, 64
7, 93171, Note_on_c, 0, 84, 0
7, 93180, Note_on_c, 0, 85, 65
7, 93231, Note_on_c, 0, 85, 0
7, 93240, Note_on_c, 0, 86, 66
7, 93291, Note_on_c, 0, 86, 0
7, 93300, Note_on_c, 0, 88, 67
7, 93351, Note_on_c, 0, 88, 0
7, 93360, Note_on_c, 0, 89, 52
7, 93479, Note_on_c, 0, 89, 0
7, 94080, Control_c, 0, 11, 80
7, 94320, Note_on_c, 0, 89, 76
7, 94320, Control_c, 0, 11, 80
7, 94340, Control_c, 0, 11, 82
7, 94360, Control_c, 0, 11, 84
7, 94380, Control_c, 0, 11, 86
7, 94400, Control_c, 0, 11, 88
7, 94420, Control_c, 0, 11, 90
7, 94440, Control_c, 0, 11, 92
7, 94460, Control_c, 0, 11, 94
7, 94480, Control_c, 0, 11, 96
7, 94500, Control_c, 0, 11, 98
7, 94520, Control_c, 0, 11, 100
7, 94540, Control_c, 0, 11, 102
7, 94551, Note_on_c, 0, 89, 0
7, 94560, Note_on_c, 0, 87, 76
7, 94560, Control_c, 0, 11, 104
7, 94580, Control_c, 0, 11, 105
7, 94589, Note_on_c, 0, 87, 0
7, 94590, Note_on_c, 0, 86, 76
7, 94600, Control_c, 0, 11, 107
7, 94620, Control_c, 0, 11, 109
7, 94640, Control_c, 0, 11, 111
7, 94660, Control_c, 0, 11, 113
7, 94671, Note_on_c, 0, 86, 0
7, 94680, Control_c, 0, 11, 115
7, 94680, Note_on_c, 0, 84, 76
7, 94700, Control_c, 0, 11, 117
7, 94709, Note_on_c, 0, 84, 0
7, 94710, Note_on_c, 0, 83, 76
7, 94720, Control_c, 0, 11, 119
7, 94740, Control_c, 0, 11, 121
7, 94760, Control_c, 0, 11, 123
7, 94780, Control_c, 0, 11, 127
7, 94791, Note_on_c, 0, 83, 0
7, 94800, Note_on_c, 0, 79, 76
7, 94800, Note_on_c, 0, 84, 76
7, 94889, Note_on_c, 0, 79, 0
7, 94889, Note_on_c, 0, 84, 0
7, 94920, Note_on_c, 0, 80, 76
7, 94920, Note_on_c, 0, 72, 76
7, 95009, Note_on_c, 0, 80, 0
7, 95009, Note_on_c, 0, 72, 0
7, 95400, Note_on_c, 0, 84, 52
7, 95400, Note_on_c, 0, 91, 52
7, 95400, Control_c, 0, 11, 127
7, 95420, Control_c, 0, 11, 126
7, 95440, Control_c, 0, 11, 125
7, 95460, Control_c, 0, 11, 123
7, 95480, Control_c, 0, 11, 122
7, 95500, Control_c, 0, 11, 121
7, 95511, Note_on_c, 0, 84, 0
7, 95520, Note_on_c, 0, 83, 52
7, 95520, Control_c, 0, 11, 120
7, 95540, Control_c, 0, 11, 118
7, 95560, Control_c, 0, 11, 117
7, 95580, Control_c, 0, 11, 116
7, 95600, Control_c, 0, 11, 115
7, 95631, Note_on_c, 0, 91, 0
7, 95631, Note_on_c, 0, 83, 0
7, 95640, Control_c, 0, 11, 112
7, 95640, Note_on_c, 0, 89, 52
7, 95640, Note_on_c, 0, 83, 52
7, 95729, Note_on_c, 0, 89, 0
7, 95729, Note_on_c, 0, 83, 0
7, 95730, Note_on_c, 0, 77, 52
7, 95730, Note_on_c, 0, 86, 52
7, 95755, Note_on_c, 0, 77, 0
7, 95755, Note_on_c, 0, 86, 0
7, 95760, Note_on_c, 0, 75, 52
7, 95760, Note_on_c, 0, 84, 52
7, 95879, Note_on_c, 0, 75, 0
7, 95879, Note_on_c, 0, 84, 0
7, 97440, Control_c, 0, 11, 127
7, 97680, Note_on_c, 0, 86, 76
7, 97680, Note_on_c, 0, 84, 76
7, 97911, Note_on_c, 0, 86, 0
7, 97911, Note_on_c, 0, 84, 0
7, 97920, Note_on_c, 0, 86, 76
7, 97920, Note_on_c, 0, 84, 76
7, 98121, Note_on_c, 0, 86, 0
7, 98121, Note_on_c, 0, 84, 0
7, 98130, Note_on_c, 0, 86, 76
7, 98130, Note_on_c, 0, 84, 76
7, 98155, Note_on_c, 0, 86, 0
7, 98155, Note_on_c, 0, 84, 0
7, 98160, Note_on_c, 0, 87, 84
7, 98160, Note_on_c, 0, 84, 84
7, 98220, Control_c, 0, 11, 112
7, 98238, Control_c, 0, 11, 110
7, 98255, Control_c, 0, 11, 108
7, 98273, Control_c, 0, 11, 106
7, 98290, Control_c, 0, 11, 104
7, 98308, Control_c, 0, 11, 102
7, 98325, Control_c, 0, 11, 100
7, 98343, Control_c, 0, 11, 98
7, 98360, Control_c, 0, 11, 96
7, 98378, Control_c, 0, 11, 94
7, 98395, Control_c, 0, 11, 92
7, 98413, Control_c, 0, 11, 90
7, 98430, Control_c, 0, 11, 88
7, 98448, Control_c, 0, 11, 86
7, 98465, Control_c, 0, 11, 84
7, 98483, Control_c, 0, 11, 82
7, 98500, Control_c, 0, 11, 80
7, 98518, Control_c, 0, 11, 78
7, 98519, Note_on_c, 0, 87, 0
7, 98519, Note_on_c, 0, 84, 0
7, 98520, Note_on_c, 0, 86, 84
7, 98535, Control_c, 0, 11, 76
7, 98553, Control_c, 0, 11, 74
7, 98570, Control_c, 0, 11, 72
7, 98579, Note_on_c, 0, 86, 0
7, 98580, Note_on_c, 0, 84, 84
7, 98588, Control_c, 0, 11, 70
7, 98605, Control_c, 0, 11, 68
7, 98631, Note_on_c, 0, 84, 0
7, 98636, Control_c, 0, 11, 80
7, 98640, Note_on_c, 0, 79, 76
7, 98640, Note_on_c, 0, 84, 76
7, 98879, Note_on_c, 0, 84, 0
7, 98880, Note_on_c, 0, 83, 76
7, 99111, Note_on_c, 0, 79, 0
7, 99111, Note_on_c, 0, 83, 0
7, 99120, Note_on_c, 0, 84, 76
7, 99231, Note_on_c, 0, 84, 0
7, 99240, Note_on_c, 0, 90, 76
7, 99240, Control_c, 0, 11, 80
7, 99260, Control_c, 0, 11, 79
7, 99280, Control_c, 0, 11, 77
7, 99300, Control_c, 0, 11, 76
7, 99320, Control_c, 0, 11, 75
7, 99340, Control_c, 0, 11, 73
7, 99360, Control_c, 0, 11, 72
7, 99380, Control_c, 0, 11, 71
7, 99400, Control_c, 0, 11, 69
7, 99420, Control_c, 0, 11, 68
7, 99440, Control_c, 0, 11, 67
7, 99460, Control_c, 0, 11, 64
7, 99479, Note_on_c, 0, 90, 0
7, 99480, Note_on_c, 0, 91, 76
7, 99591, Note_on_c, 0, 91, 0
7, 99600, Note_on_c, 0, 87, 76
7, 99600, Note_on_c, 0, 84, 76
7, 99600, Control_c, 0, 11, 64
7, 99620, Control_c, 0, 11, 67
7, 99640, Control_c, 0, 11, 69
7, 99660, Control_c, 0, 11, 72
7, 99680, Control_c, 0, 11, 75
7, 99700, Control_c, 0, 11, 77
7, 99720, Control_c, 0, 11, 80
7, 99740, Control_c, 0, 11, 82
7, 99760, Control_c, 0, 11, 85
7, 99780, Control_c, 0, 11, 88
7, 99800, Control_c, 0, 11, 90
7, 99820, Control_c, 0, 11, 93
7, 99839, Note_on_c, 0, 87, 0
7, 99839, Note_on_c, 0, 84, 0
7, 99840, Note_on_c, 0, 86, 76
7, 99840, Note_on_c, 0, 77, 76
7, 99840, Control_c, 0, 11, 96
7, 99860, Control_c, 0, 11, 98
7, 99880, Control_c, 0, 11, 101
7, 99900, Control_c, 0, 11, 103
7, 99920, Control_c, 0, 11, 106
7, 99940, Control_c, 0, 11, 109
7, 99960, Control_c, 0, 11, 111
7, 99980, Control_c, 0, 11, 114
7, 100000, Control_c, 0, 11, 117
7, 100020, Control_c, 0, 11, 119
7, 100040, Control_c, 0, 11, 122
7, 100049, Note_on_c, 0, 86, 0
7, 100049, Note_on_c, 0, 77, 0
7, 100050, Note_on_c, 0, 75, 76
7, 100050, Note_on_c, 0, 84, 76
7, 100060, Control_c, 0, 11, 127
7, 100075, Note_on_c, 0, 75, 0
7, 100075, Note_on_c, 0, 84, 0
7, 100080, Note_on_c, 0, 75, 76
7, 100080, Note_on_c, 0, 84, 76
7, 100199, Note_on_c, 0, 75, 0
7, 100199, Note_on_c, 0, 84, 0
7, 108000, Control_c, 0, 11, 96
7, 108240, Note_on_c, 0, 84, 68
7, 108240, Note_on_c, 0, 72, 68
7, 108240, Control_c, 0, 11, 96
7, 108280, Control_c, 0, 11, 97
7, 108320, Control_c, 0, 11, 99
7, 108360, Control_c, 0, 11, 100
7, 108400, Control_c, 0, 11, 101
7, 108440, Control_c, 0, 11, 102
7, 108480, Control_c, 0, 11, 104
7, 108520, Control_c, 0, 11, 105
7, 108560, Control_c, 0, 11, 106
7, 108591, Note_on_c, 0, 84, 0
7, 108591, Note_on_c, 0, 72, 0
7, 108600, Control_c, 0, 11, 108
7, 108600, Note_on_c, 0, 84, 68
7, 108600, Note_on_c, 0, 72, 68
7, 108640, Control_c, 0, 11, 109
7, 108680, Control_c, 0, 11, 110
7, 108711, Note_on_c, 0, 84, 0
7, 108711, Note_on_c, 0, 72, 0
7, 108720, Control_c, 0, 11, 112
7, 108720, Note_on_c, 0, 84, 68
7, 108720, Note_on_c, 0, 72, 68
7, 108760, Control_c, 0, 11, 113
7, 108800, Control_c, 0, 11, 114
7, 108809, Note_on_c, 0, 84, 0
7, 108809, Note_on_c, 0, 72, 0
7, 108840, Note_on_c, 0, 72, 68
7, 108840, Note_on_c, 0, 84, 68
7, 108840, Control_c, 0, 11, 115
7, 108880, Control_c, 0, 11, 117
7, 108920, Control_c, 0, 11, 118
7, 108929, Note_on_c, 0, 72, 0
7, 108929, Note_on_c, 0, 84, 0
7, 108960, Control_c, 0, 11, 119
7, 108960, Note_on_c, 0, 84, 68
7, 108960, Note_on_c, 0, 72, 68
7, 109000, Control_c, 0, 11, 121
7, 109040, Control_c, 0, 11, 122
7, 109049, Note_on_c, 0, 84, 0
7, 109049, Note_on_c, 0, 72, 0
7, 109080, Note_on_c, 0, 84, 68
7, 109080, Control_c, 0, 11, 123
7, 109080, Note_on_c, 0, 72, 68
7, 109120, Control_c, 0, 11, 124
7, 109160, Control_c, 0, 11, 127
7, 109169, Note_on_c, 0, 84, 0
7, 109169, Note_on_c, 0, 72, 0
7, 109200, Note_on_c, 0, 72, 52
7, 109200, Note_on_c, 0, 84, 52
7, 109289, Note_on_c, 0, 72, 0
7, 109289, Note_on_c, 0, 84, 0
7, 113180, Control_c, 0, 11, 105
7, 113200, Note_on_c, 0, 80, 68
7, 113200, Control_c, 0, 11, 106
7, 113220, Control_c, 0, 11, 108
7, 113239, Note_on_c, 0, 80, 0
7, 113240, Note_on_c, 0, 79, 68
7, 113240, Control_c, 0, 11, 109
7, 113260, Control_c, 0, 11, 110
7, 113275, Note_on_c, 0, 79, 0
7, 113280, Control_c, 0, 11, 112
7, 113280, Note_on_c, 0, 77, 68
7, 113300, Control_c, 0, 11, 113
7, 113309, Note_on_c, 0, 77, 0
7, 113320, Note_on_c, 0, 86, 68
7, 113320, Control_c, 0, 11, 114
7, 113340, Control_c, 0, 11, 115
7, 113359, Note_on_c, 0, 86, 0
7, 113360, Control_c, 0, 11, 117
7, 113360, Note_on_c, 0, 84, 68
7, 113380, Control_c, 0, 11, 118
7, 113395, Note_on_c, 0, 84, 0
7, 113400, Control_c, 0, 11, 119
7, 113400, Note_on_c, 0, 83, 68
7, 113420, Control_c, 0, 11, 121
7, 113429, Note_on_c, 0, 83, 0
7, 113440, Control_c, 0, 11, 122
7, 113440, Note_on_c, 0, 89, 68
7, 113460, Control_c, 0, 11, 123
7, 113479, Note_on_c, 0, 89, 0
7, 113480, Note_on_c, 0, 87, 68
7, 113480, Control_c, 0, 11, 124
7, 113500, Control_c, 0, 11, 126
7, 113515, Note_on_c, 0, 87, 0
7, 113520, Note_on_c, 0, 86, 68
7, 113520, Control_c, 0, 11, 127
7, 113540, Control_c, 0, 11, 126
7, 113560, Control_c, 0, 11, 124
7, 113564, Note_on_c, 0, 86, 0
7, 113580, Control_c, 0, 11, 123
7, 113580, Note_on_c, 0, 84, 68
7, 113600, Control_c, 0, 11, 122
7, 113620, Control_c, 0, 11, 121
7, 113624, Note_on_c, 0, 84, 0
7, 113640, Control_c, 0, 11, 119
7, 113640, Note_on_c, 0, 83, 68
7, 113660, Control_c, 0, 11, 118
7, 113680, Control_c, 0, 11, 117
7, 113684, Note_on_c, 0, 83, 0
7, 113700, Control_c, 0, 11, 115
7, 113700, Note_on_c, 0, 80, 68
7, 113720, Control_c, 0, 11, 114
7, 113740, Control_c, 0, 11, 113
7, 113744, Note_on_c, 0, 80, 0
7, 113760, Control_c, 0, 11, 112
7, 113760, Note_on_c, 0, 79, 68
7, 113780, Control_c, 0, 11, 110
7, 113800, Control_c, 0, 11, 109
7, 113804, Note_on_c, 0, 79, 0
7, 113820, Control_c, 0, 11, 108
7, 113820, Note_on_c, 0, 77, 68
7, 113840, Control_c, 0, 11, 106
7, 113860, Control_c, 0, 11, 105
7, 113864, Note_on_c, 0, 77, 0
7, 113880, Note_on_c, 0, 75, 68
7, 113880, Control_c, 0, 11, 104
7, 113900, Control_c, 0, 11, 102
7, 113920, Control_c, 0, 11, 101
7, 113924, Note_on_c, 0, 75, 0
7, 113940, Note_on_c, 0, 74, 68
7, 113940, Control_c, 0, 11, 100
7, 113960, Control_c, 0, 11, 99
7, 113980, Control_c, 0, 11, 96
7, 113984, Note_on_c, 0, 74, 0
7, 113984, End_track
8, 0, Start_track
8, 0, Title_t, "Oboe"
8, 0, MIDI_port, 0
8, 0, Program_c, 1, 68
8, 0, Control_c, 1, 7, 80
8, 0, Control_c, 1, 10, 70
8, 0, Control_c, 1, 11, 127
8, 3960, Note_on_c, 1, 67, 52
8, 4041, Note_on_c, 1, 67, 0
8, 4050, Note_on_c, 1, 67, 52
8, 4075, Note_on_c, 1, 67, 0
8, 4080, Note_on_c, 1, 67, 52
8, 4291, Note_on_c, 1, 67, 0
8, 4300, Note_on_c, 1, 74, 52
8, 4319, Note_on_c, 1, 74, 0
8, 4320, Note_on_c, 1, 72, 52
8, 4409, Note_on_c, 1, 72, 0
8, 4410, Note_on_c, 1, 71, 52
8, 4439, Note_on_c, 1, 71, 0
8, 4440, Note_on_c, 1, 72, 52
8, 4529, Note_on_c, 1, 72, 0
8, 4530, Note_on_c, 1, 74, 52
8, 4555, Note_on_c, 1, 74, 0
8, 4560, Note_on_c, 1, 75, 52
8, 4799, Note_on_c, 1, 75, 0
8, 4800, Note_on_c, 1, 72, 52
8, 4919, Note_on_c, 1, 72, 0
8, 5040, Note_on_c, 1, 79, 52
8, 5271, Note_on_c, 1, 79, 0
8, 5280, Note_on_c, 1, 77, 52
8, 5309, Note_on_c, 1, 77, 0
8, 5310, Note_on_c, 1, 75, 52
8, 5391, Note_on_c, 1, 75, 0
8, 5400, Note_on_c, 1, 74, 52
8, 5429, Note_on_c, 1, 74, 0
8, 5430, Note_on_c, 1, 72, 52
8, 5511, Note_on_c, 1, 72, 0
8, 5516, Control_c, 1, 11, 96
8, 5520, Note_on_c, 1, 72, 68
8, 5520, Note_on_c, 1, 75, 68
8, 5520, Control_c, 1, 11, 96
8, 5533, Control_c, 1, 11, 99
8, 5547, Control_c, 1, 11, 103
8, 5560, Control_c, 1, 11, 106
8, 5573, Control_c, 1, 11, 110
8, 5587, Control_c, 1, 11, 113
8, 5600, Control_c, 1, 11, 117
8, 5613, Control_c, 1, 11, 120
8, 5627, Control_c, 1, 11, 124
8, 5640, Control_c, 1, 11, 127
8, 5653, Control_c, 1, 11, 124
8, 5667, Control_c, 1, 11, 120
8, 5680, Control_c, 1, 11, 117
8, 5693, Control_c, 1, 11, 113
8, 5707, Control_c, 1, 11, 110
8, 5720, Control_c, 1, 11, 106
8, 5733, Control_c, 1, 11, 103
8, 5747, Control_c, 1, 11, 99
8, 5759, Note_on_c, 1, 72, 0
8, 5759, Note_on_c, 1, 75, 0
8, 5760, Note_on_c, 1, 71, 68
8, 5760, Control_c, 1, 11, 96
8, 5760, Note_on_c, 1, 74, 68
8, 5871, Note_on_c, 1, 71, 0
8, 5871, Note_on_c, 1, 74, 0
8, 5880, Note_on_c, 1, 74, 68
8, 5961, Note_on_c, 1, 74, 0
8, 5970, Note_on_c, 1, 74, 68
8, 5995, Note_on_c, 1, 74, 0
8, 6000, Note_on_c, 1, 74, 68
8, 6000, Note_on_c, 1, 71, 68
8, 6231, Note_on_c, 1, 74, 0
8, 6231, Note_on_c, 1, 71, 0
8, 6240, Note_on_c, 1, 74, 68
8, 6329, Note_on_c, 1, 74, 0
8, 6330, Note_on_c, 1, 75, 68
8, 6359, Note_on_c, 1, 75, 0
8, 6360, Note_on_c, 1, 77, 68
8, 6449, Note_on_c, 1, 77, 0
8, 6450, Note_on_c, 1, 79, 68
8, 6475, Note_on_c, 1, 79, 0
8, 6480, Note_on_c, 1, 80, 68
8, 6480, Note_on_c, 1, 74, 68
8, 6719, Note_on_c, 1, 74, 0
8, 6720, Control_c, 1, 11, 96
8, 6740, Control_c, 1, 11, 99
8, 6760, Control_c, 1, 11, 101
8, 6780, Control_c, 1, 11, 104
8, 6800, Control_c, 1, 11, 106
8, 6820, Control_c, 1, 11, 109
8, 6840, Control_c, 1, 11, 112
8, 6860, Control_c, 1, 11, 114
8, 6880, Control_c, 1, 11, 117
8, 6900, Control_c, 1, 11, 119
8, 6920, Control_c, 1, 11, 122
8, 6940, Control_c, 1, 11, 124
8, 6960, Control_c, 1, 11, 127
8, 7079, Note_on_c, 1, 80, 0
8, 7080, Note_on_c, 1, 70, 68
8, 7080, Control_c, 1, 11, 127
8, 7080, Note_on_c, 1, 77, 68
8, 7100, Control_c, 1, 11, 125
8, 7120, Control_c, 1, 11, 124
8, 7140, Control_c, 1, 11, 122
8, 7160, Control_c, 1, 11, 120
8, 7180, Control_c, 1, 11, 118
8, 7199, Note_on_c, 1, 77, 0
8, 7200, Note_on_c, 1, 75, 68
8, 7200, Control_c, 1, 11, 117
8, 7220, Control_c, 1, 11, 115
8, 7240, Control_c, 1, 11, 113
8, 7260, Control_c, 1, 11, 112
8, 7280, Control_c, 1, 11, 110
8, 7300, Control_c, 1, 11, 108
8, 7311, Note_on_c, 1, 70, 0
8, 7319, Note_on_c, 1, 75, 0
8, 7320, Note_on_c, 1, 74, 68
8, 7320, Control_c, 1, 11, 106
8, 7320, Note_on_c, 1, 70, 68
8, 7340, Control_c, 1, 11, 105
8, 7360, Control_c, 1, 11, 103
8, 7380, Control_c, 1, 11, 101
8, 7400, Control_c, 1, 11, 99
8, 7420, Control_c, 1, 11, 98
8, 7431, Note_on_c, 1, 74, 0
8, 7431, Note_on_c, 1, 70, 0
8, 7440, Note_on_c, 1, 75, 68
8, 7440, Control_c, 1, 11, 96
8, 7440, Note_on_c, 1, 70, 68
8, 7551, Note_on_c, 1, 75, 0
8, 7551, Note_on_c, 1, 70, 0
8, 7560, Note_on_c, 1, 72, 68
8, 7560, Note_on_c, 1, 75, 68
8, 7641, Note_on_c, 1, 72, 0
8, 7641, Note_on_c, 1, 75, 0
8, 7650, Note_on_c, 1, 75, 68
8, 7650, Note_on_c, 1, 72, 68
8, 7675, Note_on_c, 1, 75, 0
8, 7675, Note_on_c, 1, 72, 0
8, 7680, Note_on_c, 1, 75, 68
8, 7680, Note_on_c, 1, 70, 68
8, 7799, Note_on_c, 1, 75, 0
8, 7799, Note_on_c, 1, 70, 0
8, 17280, Control_c, 1, 11, 80
8, 17400, Note_on_c, 1, 70, 76
8, 17511, Note_on_c, 1, 70, 0
8, 17520, Note_on_c, 1, 75, 76
8, 17759, Note_on_c, 1, 75, 0
8, 17760, Note_on_c, 1, 74, 76
8, 17879, Note_on_c, 1, 74, 0
8, 17880, Note_on_c, 1, 72, 76
8, 17991, Note_on_c, 1, 72, 0
8, 18000, Note_on_c, 1, 70, 76
8, 18240, Control_c, 1, 11, 80
8, 18263, Control_c, 1, 11, 81
8, 18287, Control_c, 1, 11, 83
8, 18291, Note_on_c, 1, 70, 0
8, 18300, Note_on_c, 1, 70, 76
8, 18310, Control_c, 1, 11, 84
8, 18321, Note_on_c, 1, 70, 0
8, 18330, Note_on_c, 1, 72, 76
8, 18333, Control_c, 1, 11, 85
8, 18351, Note_on_c, 1, 72, 0
8, 18357, Control_c, 1, 11, 87
8, 18360, Note_on_c, 1, 74, 76
8, 18380, Control_c, 1, 11, 88
8, 18381, Note_on_c, 1, 74, 0
8, 18390, Note_on_c, 1, 75, 76
8, 18403, Control_c, 1, 11, 89
8, 18411, Note_on_c, 1, 75, 0
8, 18420, Note_on_c, 1, 77, 76
8, 18427, Control_c, 1, 11, 90
8, 18441, Note_on_c, 1, 77, 0
8, 18450, Control_c, 1, 11, 92
8, 18450, Note_on_c, 1, 79, 76
8, 18471, Note_on_c, 1, 79, 0
8, 18473, Control_c, 1, 11, 93
8, 18480, Note_on_c, 1, 80, 76
8, 18497, Control_c, 1, 11, 94
8, 18520, Control_c, 1, 11, 96
8, 18543, Control_c, 1, 11, 97
8, 18567, Control_c, 1, 11, 98
8, 18590, Control_c, 1, 11, 100
8, 18613, Control_c, 1, 11, 101
8, 18637, Control_c, 1, 11, 102
8, 18660, Control_c, 1, 11, 104
8, 18683, Control_c, 1, 11, 105
8, 18707, Control_c, 1, 11, 106
8, 18719, Note_on_c, 1, 80, 0
8, 18720, Note_on_c, 1, 79, 76
8, 18730, Control_c, 1, 11, 107
8, 18753, Control_c, 1, 11, 109
8, 18777, Control_c, 1, 11, 110
8, 18800, Control_c, 1, 11, 111
8, 18823, Control_c, 1, 11, 113
8, 18839, Note_on_c, 1, 79, 0
8, 18840, Note_on_c, 1, 72, 76
8, 18840, Note_on_c, 1, 77, 76
8, 18847, Control_c, 1, 11, 114
8, 18870, Control_c, 1, 11, 115
8, 18893, Control_c, 1, 11, 117
8, 18917, Control_c, 1, 11, 118
8, 18940, Control_c, 1, 11, 119
8, 18951, Note_on_c, 1, 72, 0
8, 18951, Note_on_c, 1, 77, 0
8, 18960, Note_on_c, 1, 76, 76
8, 18960, Note_on_c, 1, 73, 76
8, 18963, Control_c, 1, 11, 120
8, 18987, Control_c, 1, 11, 122
8, 19010, Control_c, 1, 11, 123
8, 19033, Control_c, 1, 11, 124
8, 19057, Control_c, 1, 11, 126
8, 19079, Note_on_c, 1, 76, 0
8, 19079, Note_on_c, 1, 73, 0
8, 19080, Control_c, 1, 11, 127
8, 19170, Note_on_c, 1, 79, 76
8, 19170, Note_on_c, 1, 82, 76
8, 19191, Note_on_c, 1, 79, 0
8, 19191, Note_on_c, 1, 82, 0
8, 19200, Note_on_c, 1, 79, 76
8, 19200, Note_on_c, 1, 82, 76
8, 19439, Note_on_c, 1, 79, 0
8, 19439, Note_on_c, 1, 82, 0
8, 19680, Note_on_c, 1, 80, 52
8, 19680, Note_on_c, 1, 77, 52
8, 19799, Note_on_c, 1, 80, 0
8, 19799, Note_on_c, 1, 77, 0
8, 19800, Note_on_c, 1, 79, 52
8, 19800, Note_on_c, 1, 75, 52
8, 19911, Note_on_c, 1, 79, 0
8, 19911, Note_on_c, 1, 75, 0
8, 19920, Note_on_c, 1, 75, 52
8, 19920, Note_on_c, 1, 78, 52
8, 20039, Note_on_c, 1, 75, 0
8, 20159, Note_on_c, 1, 78, 0
8, 20160, Note_on_c, 1, 72, 60
8, 20160, Control_c, 1, 11, 127
8, 20160, Note_on_c, 1, 84, 68
8, 20180, Control_c, 1, 11, 124
8, 20200, Control_c, 1, 11, 122
8, 20220, Control_c, 1, 11, 119
8, 20240, Control_c, 1, 11, 117
8, 20260, Control_c, 1, 11, 114
8, 20280, Control_c, 1, 11, 112
8, 20300, Control_c, 1, 11, 109
8, 20320, Control_c, 1, 11, 106
8, 20339, Note_on_c, 1, 84, 0
8, 20340, Control_c, 1, 11, 104
8, 20340, Note_on_c, 1, 77, 68
8, 20360, Control_c, 1, 11, 101
8, 20380, Control_c, 1, 11, 99
8, 20391, Note_on_c, 1, 77, 0
8, 20399, Note_on_c, 1, 72, 0
8, 20400, Note_on_c, 1, 79, 68
8, 20400, Control_c, 1, 11, 96
8, 20400, Note_on_c, 1, 71, 68
8, 20519, Note_on_c, 1, 71, 0
8, 20880, Note_on_c, 1, 72, 68
8, 21119, Note_on_c, 1, 72, 0
8, 21120, Note_on_c, 1, 71, 68
8, 21239, Note_on_c, 1, 71, 0
8, 21240, Note_on_c, 1, 72, 68
8, 21351, Note_on_c, 1, 79, 0
8, 21351, Note_on_c, 1, 72, 0
8, 21360, Note_on_c, 1, 79, 68
8, 21360, Note_on_c, 1, 74, 68
8, 21360, Control_c, 1, 11, 96
8, 21380, Control_c, 1, 11, 97
8, 21400, Control_c, 1, 11, 99
8, 21420, Control_c, 1, 11, 100
8, 21440, Control_c, 1, 11, 101
8, 21460, Control_c, 1, 11, 102
8, 21480, Control_c, 1, 11, 104
8, 21500, Control_c, 1, 11, 105
8, 21520, Control_c, 1, 11, 106
8, 21540, Control_c, 1, 11, 108
8, 21560, Control_c, 1, 11, 109
8, 21580, Control_c, 1, 11, 110
8, 21591, Note_on_c, 1, 74, 0
8, 21599, Note_on_c, 1, 79, 0
8, 21600, Control_c, 1, 11, 112
8, 21600, Note_on_c, 1, 74, 68
8, 21620, Control_c, 1, 11, 113
8, 21640, Control_c, 1, 11, 114
8, 21660, Control_c, 1, 11, 115
8, 21680, Control_c, 1, 11, 117
8, 21700, Control_c, 1, 11, 118
8, 21719, Note_on_c, 1, 74, 0
8, 21720, Control_c, 1, 11, 119
8, 21720, Note_on_c, 1, 77, 68
8, 21740, Control_c, 1, 11, 121
8, 21760, Control_c, 1, 11, 122
8, 21780, Control_c, 1, 11, 123
8, 21800, Control_c, 1, 11, 124
8, 21820, Control_c, 1, 11, 126
8, 21839, Note_on_c, 1, 77, 0
8, 21840, Control_c, 1, 11, 127
8, 21840, Note_on_c, 1, 75, 68
8, 21860, Control_c, 1, 11, 126
8, 21880, Control_c, 1, 11, 124
8, 21900, Control_c, 1, 11, 123
8, 21920, Control_c, 1, 11, 122
8, 21940, Control_c, 1, 11, 121
8, 21960, Control_c, 1, 11, 119
8, 21980, Control_c, 1, 11, 118
8, 22000, Control_c, 1, 11, 117
8, 22020, Control_c, 1, 11, 115
8, 22040, Control_c, 1, 11, 114
8, 22060, Control_c, 1, 11, 113
8, 22079, Note_on_c, 1, 75, 0
8, 22080, Control_c, 1, 11, 112
8, 22080, Note_on_c, 1, 74, 68
8, 22100, Control_c, 1, 11, 110
8, 22120, Control_c, 1, 11, 109
8, 22140, Control_c, 1, 11, 108
8, 22160, Control_c, 1, 11, 106
8, 22180, Control_c, 1, 11, 105
8, 22199, Note_on_c, 1, 74, 0
8, 22200, Note_on_c, 1, 72, 68
8, 22200, Control_c, 1, 11, 104
8, 22220, Control_c, 1, 11, 102
8, 22240, Control_c, 1, 11, 101
8, 22260, Control_c, 1, 11, 100
8, 22280, Control_c, 1, 11, 99
8, 22300, Control_c, 1, 11, 97
8, 22304, Note_on_c, 1, 72, 0
8, 22320, Control_c, 1, 11, 96
8, 22320, Note_on_c, 1, 71, 68
8, 22439, Note_on_c, 1, 71, 0
8, 23280, Control_c, 1, 11, 127
8, 23320, Control_c, 1, 11, 124
8, 23360, Control_c, 1, 11, 122
8, 23400, Control_c, 1, 11, 119
8, 23400, Note_on_c, 1, 77, 68
8, 23440, Control_c, 1, 11, 117
8, 23480, Control_c, 1, 11, 114
8, 23511, Note_on_c, 1, 77, 0
8, 23520, Note_on_c, 1, 77, 68
8, 23520, Control_c, 1, 11, 112
8, 23560, Control_c, 1, 11, 109
8, 23600, Control_c, 1, 11, 106
8, 23631, Note_on_c, 1, 77, 0
8, 23640, Control_c, 1, 11, 104
8, 23640, Note_on_c, 1, 77, 68
8, 23680, Control_c, 1, 11, 101
8, 23720, Control_c, 1, 11, 99
8, 23751, Note_on_c, 1, 77, 0
8, 23760, Note_on_c, 1, 77, 68
8, 23760, Control_c, 1, 11, 96
8, 23780, Control_c, 1, 11, 97
8, 23800, Control_c, 1, 11, 99
8, 23820, Control_c, 1, 11, 100
8, 23840, Control_c, 1, 11, 101
8, 23860, Control_c, 1, 11, 102
8, 23880, Control_c, 1, 11, 104
8, 23900, Control_c, 1, 11, 105
8, 23920, Control_c, 1, 11, 106
8, 23940, Control_c, 1, 11, 108
8, 23960, Control_c, 1, 11, 109
8, 23980, Control_c, 1, 11, 110
8, 23999, Note_on_c, 1, 77, 0
8, 24000, Control_c, 1, 11, 112
8, 24000, Note_on_c, 1, 76, 84
8, 24020, Control_c, 1, 11, 113
8, 24040, Control_c, 1, 11, 114
8, 24060, Control_c, 1, 11, 115
8, 24080, Control_c, 1, 11, 117
8, 24100, Control_c, 1, 11, 118
8, 24120, Control_c, 1, 11, 119
8, 24120, Note_on_c, 1, 72, 68
8, 24140, Control_c, 1, 11, 121
8, 24160, Control_c, 1, 11, 122
8, 24180, Control_c, 1, 11, 123
8, 24200, Control_c, 1, 11, 124
8, 24201, Note_on_c, 1, 72, 0
8, 24210, Note_on_c, 1, 72, 68
8, 24220, Control_c, 1, 11, 127
8, 24231, Note_on_c, 1, 76, 0
8, 24235, Note_on_c, 1, 72, 0
8, 24240, Note_on_c, 1, 72, 52
8, 24240, Note_on_c, 1, 77, 52
8, 24359, Note_on_c, 1, 77, 0
8, 24451, Note_on_c, 1, 72, 0
8, 24460, Note_on_c, 1, 79, 52
8, 24479, Note_on_c, 1, 79, 0
8, 24480, Note_on_c, 1, 77, 52
8, 24569, Note_on_c, 1, 77, 0
8, 24570, Note_on_c, 1, 76, 52
8, 24599, Note_on_c, 1, 76, 0
8, 24600, Note_on_c, 1, 77, 52
8, 24689, Note_on_c, 1, 77, 0
8, 24690, Note_on_c, 1, 79, 52
8, 24715, Note_on_c, 1, 79, 0
8, 24720, Note_on_c, 1, 80, 52
8, 24959, Note_on_c, 1, 80, 0
8, 24960, Note_on_c, 1, 77, 52
8, 25079, Note_on_c, 1, 77, 0
8, 25140, Control_c, 1, 11, 80
8, 25200, Note_on_c, 1, 77, 76
8, 25200, Control_c, 1, 11, 80
8, 25200, Note_on_c, 1, 65, 76
8, 25220, Control_c, 1, 11, 82
8, 25240, Control_c, 1, 11, 84
8, 25260, Control_c, 1, 11, 86
8, 25280, Control_c, 1, 11, 88
8, 25300, Control_c, 1, 11, 90
8, 25320, Control_c, 1, 11, 92
8, 25340, Control_c, 1, 11, 94
8, 25360, Control_c, 1, 11, 96
8, 25380, Control_c, 1, 11, 98
8, 25400, Control_c, 1, 11, 100
8, 25420, Control_c, 1, 11, 102
8, 25431, Note_on_c, 1, 77, 0
8, 25440, Control_c, 1, 11, 104
8, 25440, Note_on_c, 1, 75, 76
8, 25460, Control_c, 1, 11, 105
8, 25469, Note_on_c, 1, 75, 0
8, 25470, Note_on_c, 1, 74, 76
8, 25480, Control_c, 1, 11, 107
8, 25500, Control_c, 1, 11, 109
8, 25520, Control_c, 1, 11, 111
8, 25540, Control_c, 1, 11, 113
8, 25551, Note_on_c, 1, 65, 0
8, 25551, Note_on_c, 1, 74, 0
8, 25560, Note_on_c, 1, 62, 76
8, 25560, Control_c, 1, 11, 115
8, 25560, Note_on_c, 1, 72, 76
8, 25580, Control_c, 1, 11, 117
8, 25589, Note_on_c, 1, 72, 0
8, 25590, Note_on_c, 1, 71, 76
8, 25600, Control_c, 1, 11, 119
8, 25620, Control_c, 1, 11, 121
8, 25640, Control_c, 1, 11, 123
8, 25660, Control_c, 1, 11, 127
8, 25671, Note_on_c, 1, 62, 0
8, 25671, Note_on_c, 1, 71, 0
8, 25680, Note_on_c, 1, 72, 76
8, 25680, Note_on_c, 1, 67, 76
8, 25769, Note_on_c, 1, 72, 0
8, 25769, Note_on_c, 1, 67, 0
8, 25800, Note_on_c, 1, 72, 76
8, 25800, Note_on_c, 1, 80, 76
8, 25889, Note_on_c, 1, 72, 0
8, 25889, Note_on_c, 1, 80, 0
8, 26010, Control_c, 1, 11, 96
8, 26040, Note_on_c, 1, 78, 68
8, 26271, Note_on_c, 1, 78, 0
8, 26280, Note_on_c, 1, 79, 68
8, 26280, Control_c, 1, 11, 96
8, 26300, Control_c, 1, 11, 99
8, 26320, Control_c, 1, 11, 101
8, 26340, Control_c, 1, 11, 104
8, 26360, Control_c, 1, 11, 106
8, 26380, Control_c, 1, 11, 109
8, 26400, Control_c, 1, 11, 112
8, 26420, Control_c, 1, 11, 114
8, 26440, Control_c, 1, 11, 117
8, 26460, Control_c, 1, 11, 119
8, 26480, Control_c, 1, 11, 122
8, 26500, Control_c, 1, 11, 124
8, 26519, Note_on_c, 1, 79, 0
8, 26520, Note_on_c, 1, 77, 68
8, 26520, Control_c, 1, 11, 127
8, 26533, Control_c, 1, 11, 124
8, 26547, Control_c, 1, 11, 120
8, 26560, Control_c, 1, 11, 117
8, 26573, Control_c, 1, 11, 113
8, 26587, Control_c, 1, 11, 110
8, 26600, Control_c, 1, 11, 106
8, 26609, Note_on_c, 1, 77, 0
8, 26610, Note_on_c, 1, 74, 68
8, 26613, Control_c, 1, 11, 103
8, 26627, Control_c, 1, 11, 96
8, 26635, Note_on_c, 1, 74, 0
8, 26640, Note_on_c, 1, 72, 68
8, 26759, Note_on_c, 1, 72, 0
8, 28560, Note_on_c, 1, 72, 76
8, 28560, Note_on_c, 1, 80, 76
8, 28791, Note_on_c, 1, 72, 0
8, 28791, Note_on_c, 1, 80, 0
8, 28800, Note_on_c, 1, 80, 76
8, 28800, Note_on_c, 1, 72, 76
8, 29001, Note_on_c, 1, 80, 0
8, 29001, Note_on_c, 1, 72, 0
8, 29010, Note_on_c, 1, 80, 76
8, 29010, Note_on_c, 1, 72, 76
8, 29035, Note_on_c, 1, 80, 0
8, 29035, Note_on_c, 1, 72, 0
8, 29040, Note_on_c, 1, 81, 84
8, 29040, Note_on_c, 1, 72, 84
8, 29100, Control_c, 1, 11, 112
8, 29118, Control_c, 1, 11, 110
8, 29135, Control_c, 1, 11, 108
8, 29153, Control_c, 1, 11, 106
8, 29170, Control_c, 1, 11, 104
8, 29188, Control_c, 1, 11, 102
8, 29205, Control_c, 1, 11, 100
8, 29223, Control_c, 1, 11, 98
8, 29240, Control_c, 1, 11, 96
8, 29258, Control_c, 1, 11, 94
8, 29275, Control_c, 1, 11, 92
8, 29293, Control_c, 1, 11, 90
8, 29310, Control_c, 1, 11, 88
8, 29328, Control_c, 1, 11, 86
8, 29345, Control_c, 1, 11, 84
8, 29363, Control_c, 1, 11, 82
8, 29380, Control_c, 1, 11, 80
8, 29398, Control_c, 1, 11, 78
8, 29415, Control_c, 1, 11, 76
8, 29433, Control_c, 1, 11, 74
8, 29450, Control_c, 1, 11, 72
8, 29468, Control_c, 1, 11, 70
8, 29485, Control_c, 1, 11, 68
8, 29503, Control_c, 1, 11, 64
8, 29511, Note_on_c, 1, 81, 0
8, 29511, Note_on_c, 1, 72, 0
8, 29520, Note_on_c, 1, 75, 84
8, 29520, Note_on_c, 1, 72, 84
8, 29631, Note_on_c, 1, 75, 0
8, 29640, Note_on_c, 1, 79, 84
8, 29751, Note_on_c, 1, 72, 0
8, 29760, Note_on_c, 1, 74, 84
8, 29871, Note_on_c, 1, 79, 0
8, 29880, Note_on_c, 1, 79, 84
8, 29991, Note_on_c, 1, 74, 0
8, 29991, Note_on_c, 1, 79, 0
8, 30000, Note_on_c, 1, 79, 84
8, 30000, Note_on_c, 1, 75, 84
8, 30119, Note_on_c, 1, 79, 0
8, 30119, Note_on_c, 1, 75, 0
8, 30360, Control_c, 1, 11, 127
8, 30480, Note_on_c, 1, 75, 52
8, 30480, Note_on_c, 1, 72, 52
8, 30591, Note_on_c, 1, 75, 0
8, 30600, Note_on_c, 1, 79, 52
8, 30719, Note_on_c, 1, 72, 0
8, 30720, Note_on_c, 1, 71, 52
8, 30831, Note_on_c, 1, 79, 0
8, 30840, Note_on_c, 1, 79, 52
8, 30929, Note_on_c, 1, 71, 0
8, 30930, Note_on_c, 1, 72, 52
8, 30951, Note_on_c, 1, 79, 0
8, 30955, Note_on_c, 1, 72, 0
8, 30960, Note_on_c, 1, 79, 52
8, 30960, Note_on_c, 1, 72, 52
8, 31079, Note_on_c, 1, 79, 0
8, 31079, Note_on_c, 1, 72, 0
8, 32880, Note_on_c, 1, 72, 52
8, 33119, Note_on_c, 1, 72, 0
8, 33120, Note_on_c, 1, 76, 52
8, 33351, Note_on_c, 1, 76, 0
8, 33360, Note_on_c, 1, 79, 52
8, 33639, Note_on_c, 1, 79, 0
8, 33640, Note_on_c, 1, 77, 52
8, 33675, Note_on_c, 1, 77, 0
8, 33680, Note_on_c, 1, 76, 52
8, 33709, Note_on_c, 1, 76, 0
8, 33720, Note_on_c, 1, 74, 52
8, 33749, Note_on_c, 1, 74, 0
8, 33760, Note_on_c, 1, 72, 52
8, 33789, Note_on_c, 1, 72, 0
8, 33800, Note_on_c, 1, 71, 52
8, 33829, Note_on_c, 1, 71, 0
8, 33840, Note_on_c, 1, 71, 52
8, 33899, Note_on_c, 1, 71, 0
8, 33900, Note_on_c, 1, 69, 52
8, 34079, Note_on_c, 1, 69, 0
8, 35280, Control_c, 1, 11, 64
8, 35307, Control_c, 1, 11, 66
8, 35333, Control_c, 1, 11, 68
8, 35360, Control_c, 1, 11, 69
8, 35387, Control_c, 1, 11, 71
8, 35400, Note_on_c, 1, 77, 84
8, 35413, Control_c, 1, 11, 73
8, 35440, Control_c, 1, 11, 75
8, 35467, Control_c, 1, 11, 76
8, 35493, Control_c, 1, 11, 78
8, 35520, Control_c, 1, 11, 80
8, 35547, Control_c, 1, 11, 82
8, 35573, Control_c, 1, 11, 83
8, 35600, Control_c, 1, 11, 85
8, 35627, Control_c, 1, 11, 87
8, 35639, Note_on_c, 1, 77, 0
8, 35640, Note_on_c, 1, 76, 84
8, 35653, Control_c, 1, 11, 89
8, 35680, Control_c, 1, 11, 90
8, 35699, Note_on_c, 1, 76, 0
8, 35700, Note_on_c, 1, 74, 84
8, 35707, Control_c, 1, 11, 92
8, 35733, Control_c, 1, 11, 94
8, 35751, Note_on_c, 1, 74, 0
8, 35760, Control_c, 1, 11, 96
8, 35760, Note_on_c, 1, 74, 84
8, 35787, Control_c, 1, 11, 97
8, 35813, Control_c, 1, 11, 99
8, 35819, Note_on_c, 1, 74, 0
8, 35820, Note_on_c, 1, 72, 84
8, 35840, Control_c, 1, 11, 101
8, 35867, Control_c, 1, 11, 103
8, 35879, Note_on_c, 1, 72, 0
8, 35880, Note_on_c, 1, 71, 84
8, 35893, Control_c, 1, 11, 104
8, 35920, Control_c, 1, 11, 106
8, 35939, Note_on_c, 1, 71, 0
8, 35940, Note_on_c, 1, 69, 84
8, 35947, Control_c, 1, 11, 108
8, 35973, Control_c, 1, 11, 110
8, 35991, Note_on_c, 1, 69, 0
8, 36000, Control_c, 1, 11, 111
8, 36000, Note_on_c, 1, 67, 84
8, 36027, Control_c, 1, 11, 113
8, 36053, Control_c, 1, 11, 115
8, 36059, Note_on_c, 1, 67, 0
8, 36060, Note_on_c, 1, 74, 84
8, 36080, Control_c, 1, 11, 117
8, 36107, Control_c, 1, 11, 118
8, 36119, Note_on_c, 1, 74, 0
8, 36120, Note_on_c, 1, 72, 84
8, 36133, Control_c, 1, 11, 120
8, 36160, Control_c, 1, 11, 122
8, 36179, Note_on_c, 1, 72, 0
8, 36180, Note_on_c, 1, 69, 84
8, 36187, Control_c, 1, 11, 124
8, 36213, Control_c, 1, 11, 127
8, 36231, Note_on_c, 1, 69, 0
8, 36240, Note_on_c, 1, 71, 84
8, 36240, Note_on_c, 1, 67, 84
8, 36591, Note_on_c, 1, 71, 0
8, 36591, Note_on_c, 1, 67, 0
8, 36600, Note_on_c, 1, 83, 92
8, 36600, Note_on_c, 1, 74, 92
8, 36689, Note_on_c, 1, 83, 0
8, 36689, Note_on_c, 1, 74, 0
8, 36720, Note_on_c, 1, 79, 84
8, 36720, Note_on_c, 1, 71, 84
8, 37071, Note_on_c, 1, 79, 0
8, 37071, Note_on_c, 1, 71, 0
8, 37080, Note_on_c, 1, 83, 92
8, 37080, Note_on_c, 1, 74, 92
8, 37169, Note_on_c, 1, 83, 0
8, 37169, Note_on_c, 1, 74, 0
8, 37200, Note_on_c, 1, 79, 84
8, 37200, Note_on_c, 1, 71, 84
8, 37289, Note_on_c, 1, 79, 0
8, 37289, Note_on_c, 1, 71, 0
8, 37320, Note_on_c, 1, 74, 92
8, 37320, Note_on_c, 1, 83, 92
8, 37409, Note_on_c, 1, 74, 0
8, 37409, Note_on_c, 1, 83, 0
8, 37440, Note_on_c, 1, 71, 84
8, 37440, Note_on_c, 1, 79, 84
8, 37529, Note_on_c, 1, 71, 0
8, 37529, Note_on_c, 1, 79, 0
8, 37560, Note_on_c, 1, 83, 92
8, 37560, Note_on_c, 1, 74, 92
8, 37649, Note_on_c, 1, 83, 0
8, 37649, Note_on_c, 1, 74, 0
8, 37680, Note_on_c, 1, 79, 84
8, 37680, Note_on_c, 1, 71, 84
8, 37769, Note_on_c, 1, 79, 0
8, 37769, Note_on_c, 1, 71, 0
8, 37920, Control_c, 1, 11, 96
8, 38160, Note_on_c, 1, 72, 68
8, 38160, Note_on_c, 1, 70, 68
8, 38999, Note_on_c, 1, 72, 0
8, 39000, Note_on_c, 1, 76, 68
8, 39111, Note_on_c, 1, 70, 0
8, 39111, Note_on_c, 1, 76, 0
8, 39120, Note_on_c, 1, 77, 68
8, 39120, Note_on_c, 1, 69, 68
8, 39120, Control_c, 1, 11, 96
8, 39149, Note_on_c, 1, 77, 0
8, 39160, Control_c, 1, 11, 97
8, 39200, Note_on_c, 1, 72, 68
8, 39200, Control_c, 1, 11, 99
8, 39229, Note_on_c, 1, 72, 0
8, 39231, Note_on_c, 1, 69, 0
8, 39240, Note_on_c, 1, 72, 68
8, 39240, Control_c, 1, 11, 100
8, 39240, Note_on_c, 1, 77, 68
8, 39269, Note_on_c, 1, 77, 0
8, 39280, Note_on_c, 1, 81, 68
8, 39280, Control_c, 1, 11, 101
8, 39309, Note_on_c, 1, 81, 0
8, 39320, Note_on_c, 1, 84, 68
8, 39320, Control_c, 1, 11, 102
8, 39349, Note_on_c, 1, 84, 0
8, 39359, Note_on_c, 1, 72, 0
8, 39360, Control_c, 1, 11, 104
8, 39400, Note_on_c, 1, 82, 68
8, 39400, Control_c, 1, 11, 105
8, 39429, Note_on_c, 1, 82, 0
8, 39440, Note_on_c, 1, 79, 68
8, 39440, Control_c, 1, 11, 106
8, 39469, Note_on_c, 1, 79, 0
8, 39480, Control_c, 1, 11, 108
8, 39480, Note_on_c, 1, 76, 68
8, 39480, Note_on_c, 1, 72, 68
8, 39509, Note_on_c, 1, 76, 0
8, 39520, Control_c, 1, 11, 109
8, 39560, Control_c, 1, 11, 110
8, 39560, Note_on_c, 1, 70, 68
8, 39589, Note_on_c, 1, 70, 0
8, 39599, Note_on_c, 1, 72, 0
8, 39600, Control_c, 1, 11, 112
8, 39640, Note_on_c, 1, 69, 68
8, 39640, Control_c, 1, 11, 113
8, 39669, Note_on_c, 1, 69, 0
8, 39680, Control_c, 1, 11, 114
8, 39680, Note_on_c, 1, 72, 68
8, 39709, Note_on_c, 1, 72, 0
8, 39720, Note_on_c, 1, 77, 68
8, 39720, Note_on_c, 1, 72, 68
8, 39720, Control_c, 1, 11, 115
8, 39749, Note_on_c, 1, 77, 0
8, 39760, Note_on_c, 1, 81, 68
8, 39760, Control_c, 1, 11, 117
8, 39789, Note_on_c, 1, 81, 0
8, 39800, Control_c, 1, 11, 118
8, 39800, Note_on_c, 1, 84, 68
8, 39829, Note_on_c, 1, 84, 0
8, 39839, Note_on_c, 1, 72, 0
8, 39840, Control_c, 1, 11, 119
8, 39880, Control_c, 1, 11, 121
8, 39880, Note_on_c, 1, 82, 68
8, 39909, Note_on_c, 1, 82, 0
8, 39920, Note_on_c, 1, 79, 68
8, 39920, Control_c, 1, 11, 122
8, 39949, Note_on_c, 1, 79, 0
8, 39960, Control_c, 1, 11, 123
8, 39960, Note_on_c, 1, 76, 68
8, 39960, Note_on_c, 1, 72, 68
8, 39989, Note_on_c, 1, 76, 0
8, 40000, Control_c, 1, 11, 124
8, 40040, Control_c, 1, 11, 127
8, 40040, Note_on_c, 1, 70, 68
8, 40069, Note_on_c, 1, 70, 0
8, 40071, Note_on_c, 1, 72, 0
8, 40080, Note_on_c, 1, 69, 52
8, 40080, Note_on_c, 1, 72, 52
8, 40199, Note_on_c, 1, 69, 0
8, 40199, Note_on_c, 1, 72, 0
8, 40680, Note_on_c, 1, 82, 52
8, 40680, Note_on_c, 1, 67, 52
8, 40799, Note_on_c, 1, 82, 0
8, 40799, Note_on_c, 1, 67, 0
8, 40800, Note_on_c, 1, 81, 52
8, 40800, Note_on_c, 1, 69, 52
8, 40911, Note_on_c, 1, 81, 0
8, 40911, Note_on_c, 1, 69, 0
8, 40920, Note_on_c, 1, 81, 52
8, 40920, Note_on_c, 1, 69, 52
8, 41031, Note_on_c, 1, 81, 0
8, 41031, Note_on_c, 1, 69, 0
8, 41040, Note_on_c, 1, 74, 52
8, 41040, Note_on_c, 1, 71, 52
8, 41159, Note_on_c, 1, 74, 0
8, 41159, Note_on_c, 1, 71, 0
8, 41280, Note_on_c, 1, 60, 52
8, 41309, Note_on_c, 1, 60, 0
8, 41320, Note_on_c, 1, 64, 52
8, 41349, Note_on_c, 1, 64, 0
8, 41360, Note_on_c, 1, 67, 52
8, 41389, Note_on_c, 1, 67, 0
8, 41400, Note_on_c, 1, 72, 52
8, 41429, Note_on_c, 1, 72, 0
8, 41440, Note_on_c, 1, 76, 52
8, 41469, Note_on_c, 1, 76, 0
8, 41480, Note_on_c, 1, 72, 52
8, 41509, Note_on_c, 1, 72, 0
8, 41520, Note_on_c, 1, 79, 52
8, 41639, Note_on_c, 1, 79, 0
8, 41760, Note_on_c, 1, 60, 52
8, 41789, Note_on_c, 1, 60, 0
8, 41800, Note_on_c, 1, 64, 52
8, 41829, Note_on_c, 1, 64, 0
8, 41840, Note_on_c, 1, 67, 52
8, 41869, Note_on_c, 1, 67, 0
8, 41880, Note_on_c, 1, 72, 52
8, 41909, Note_on_c, 1, 72, 0
8, 41920, Note_on_c, 1, 76, 52
8, 41949, Note_on_c, 1, 76, 0
8, 41960, Note_on_c, 1, 72, 52
8, 41989, Note_on_c, 1, 72, 0
8, 42000, Note_on_c, 1, 79, 52
8, 42119, Note_on_c, 1, 79, 0
8, 42480, Note_on_c, 1, 67, 52
8, 42839, Note_on_c, 1, 67, 0
8, 42840, Note_on_c, 1, 69, 52
8, 42899, Note_on_c, 1, 69, 0
8, 42900, Note_on_c, 1, 71, 52
8, 42951, Note_on_c, 1, 71, 0
8, 42960, Note_on_c, 1, 72, 52
8, 43199, Note_on_c, 1, 72, 0
8, 43200, Note_on_c, 1, 76, 52
8, 43439, Note_on_c, 1, 76, 0
8, 43440, Note_on_c, 1, 79, 52
8, 43904, Note_on_c, 1, 79, 0
8, 43912, Control_c, 1, 11, 64
8, 43920, Control_c, 1, 11, 64
8, 43920, Note_on_c, 1, 77, 84
8, 43973, Control_c, 1, 11, 65
8, 44027, Control_c, 1, 11, 67
8, 44080, Control_c, 1, 11, 68
8, 44133, Control_c, 1, 11, 69
8, 44159, Note_on_c, 1, 77, 0
8, 44160, Note_on_c, 1, 81, 84
8, 44187, Control_c, 1, 11, 71
8, 44240, Control_c, 1, 11, 72
8, 44293, Control_c, 1, 11, 73
8, 44347, Control_c, 1, 11, 75
8, 44391, Note_on_c, 1, 81, 0
8, 44400, Control_c, 1, 11, 76
8, 44400, Note_on_c, 1, 84, 84
8, 44453, Control_c, 1, 11, 77
8, 44507, Control_c, 1, 11, 79
8, 44560, Control_c, 1, 11, 80
8, 44613, Control_c, 1, 11, 81
8, 44667, Control_c, 1, 11, 83
8, 44699, Note_on_c, 1, 84, 0
8, 44700, Note_on_c, 1, 81, 84
8, 44720, Control_c, 1, 11, 84
8, 44759, Note_on_c, 1, 81, 0
8, 44760, Note_on_c, 1, 77, 84
8, 44773, Control_c, 1, 11, 85
8, 44819, Note_on_c, 1, 77, 0
8, 44820, Note_on_c, 1, 74, 84
8, 44827, Control_c, 1, 11, 87
8, 44871, Note_on_c, 1, 74, 0
8, 44880, Control_c, 1, 11, 88
8, 44880, Note_on_c, 1, 74, 84
8, 44933, Control_c, 1, 11, 89
8, 44987, Control_c, 1, 11, 91
8, 44999, Note_on_c, 1, 74, 0
8, 45000, Note_on_c, 1, 72, 84
8, 45040, Control_c, 1, 11, 92
8, 45093, Control_c, 1, 11, 93
8, 45147, Control_c, 1, 11, 95
8, 45200, Control_c, 1, 11, 96
8, 45239, Note_on_c, 1, 72, 0
8, 45240, Note_on_c, 1, 71, 84
8, 45253, Control_c, 1, 11, 97
8, 45299, Note_on_c, 1, 71, 0
8, 45300, Note_on_c, 1, 79, 84
8, 45307, Control_c, 1, 11, 99
8, 45351, Note_on_c, 1, 79, 0
8, 45360, Note_on_c, 1, 79, 84
8, 45360, Control_c, 1, 11, 100
8, 45413, Control_c, 1, 11, 101
8, 45419, Note_on_c, 1, 79, 0
8, 45420, Note_on_c, 1, 78, 84
8, 45467, Control_c, 1, 11, 103
8, 45479, Note_on_c, 1, 78, 0
8, 45480, Note_on_c, 1, 79, 84
8, 45520, Control_c, 1, 11, 104
8, 45539, Note_on_c, 1, 79, 0
8, 45540, Note_on_c, 1, 80, 84
8, 45573, Control_c, 1, 11, 105
8, 45599, Note_on_c, 1, 80, 0
8, 45600, Note_on_c, 1, 81, 84
8, 45627, Control_c, 1, 11, 107
8, 45659, Note_on_c, 1, 81, 0
8, 45660, Note_on_c, 1, 77, 84
8, 45680, Control_c, 1, 11, 108
8, 45719, Note_on_c, 1, 77, 0
8, 45720, Note_on_c, 1, 76, 84
8, 45733, Control_c, 1, 11, 109
8, 45779, Note_on_c, 1, 76, 0
8, 45780, Note_on_c, 1, 74, 84
8, 45787, Control_c, 1, 11, 111
8, 45831, Note_on_c, 1, 74, 0
8, 45840, Control_c, 1, 11, 112
8, 45840, Note_on_c, 1, 72, 84
8, 45904, Control_c, 1, 11, 113
8, 45951, Note_on_c, 1, 72, 0
8, 45960, Note_on_c, 1, 76, 84
8, 45960, Note_on_c, 1, 72, 84
8, 45968, Control_c, 1, 11, 114
8, 46032, Control_c, 1, 11, 115
8, 46096, Control_c, 1, 11, 116
8, 46160, Control_c, 1, 11, 117
8, 46199, Note_on_c, 1, 76, 0
8, 46199, Note_on_c, 1, 72, 0
8, 46200, Note_on_c, 1, 79, 84
8, 46200, Note_on_c, 1, 76, 84
8, 46224, Control_c, 1, 11, 118
8, 46288, Control_c, 1, 11, 119
8, 46311, Note_on_c, 1, 79, 0
8, 46311, Note_on_c, 1, 76, 0
8, 46320, Note_on_c, 1, 79, 84
8, 46320, Note_on_c, 1, 77, 84
8, 46352, Control_c, 1, 11, 120
8, 46416, Control_c, 1, 11, 121
8, 46480, Control_c, 1, 11, 122
8, 46544, Control_c, 1, 11, 123
8, 46608, Control_c, 1, 11, 124
8, 46671, Note_on_c, 1, 79, 0
8, 46671, Note_on_c, 1, 77, 0
8, 46672, Control_c, 1, 11, 125
8, 46680, Note_on_c, 1, 74, 84
8, 46680, Note_on_c, 1, 77, 84
8, 46736, Control_c, 1, 11, 127
8, 46769, Note_on_c, 1, 74, 0
8, 46769, Note_on_c, 1, 77, 0
8, 46770, Note_on_c, 1, 71, 84
8, 46770, Note_on_c, 1, 74, 84
8, 46795, Note_on_c, 1, 71, 0
8, 46795, Note_on_c, 1, 74, 0
8, 46800, Note_on_c, 1, 72, 84
8, 46800, Note_on_c, 1, 64, 84
8, 47151, Note_on_c, 1, 72, 0
8, 47151, Note_on_c, 1, 64, 0
8, 47160, Note_on_c, 1, 79, 92
8, 47160, Note_on_c, 1, 76, 92
8, 47249, Note_on_c, 1, 79, 0
8, 47249, Note_on_c, 1, 76, 0
8, 47280, Note_on_c, 1, 76, 84
8, 47280, Note_on_c, 1, 72, 84
8, 47631, Note_on_c, 1, 76, 0
8, 47631, Note_on_c, 1, 72, 0
8, 47640, Note_on_c, 1, 79, 92
8, 47640, Note_on_c, 1, 76, 92
8, 47729, Note_on_c, 1, 79, 0
8, 47729, Note_on_c, 1, 76, 0
8, 47760, Note_on_c, 1, 72, 84
8, 47760, Note_on_c, 1, 76, 84
8, 47849, Note_on_c, 1, 72, 0
8, 47849, Note_on_c, 1, 76, 0
8, 47880, Note_on_c, 1, 79, 92
8, 47880, Note_on_c, 1, 76, 92
8, 47969, Note_on_c, 1, 79, 0
8, 47969, Note_on_c, 1, 76, 0
8, 48000, Note_on_c, 1, 76, 84
8, 48000, Note_on_c, 1, 72, 84
8, 48089, Note_on_c, 1, 76, 0
8, 48089, Note_on_c, 1, 72, 0
8, 48120, Note_on_c, 1, 76, 92
8, 48120, Note_on_c, 1, 79, 92
8, 48209, Note_on_c, 1, 76, 0
8, 48209, Note_on_c, 1, 79, 0
8, 48240, Note_on_c, 1, 72, 84
8, 48240, Note_on_c, 1, 76, 84
8, 48329, Note_on_c, 1, 72, 0
8, 48329, Note_on_c, 1, 76, 0
8, 57360, Note_on_c, 1, 76, 76
8, 57480, Note_on_c, 1, 72, 76
8, 57599, Note_on_c, 1, 76, 0
8, 57600, Note_on_c, 1, 77, 76
8, 57711, Note_on_c, 1, 72, 0
8, 57719, Note_on_c, 1, 77, 0
8, 57720, Note_on_c, 1, 79, 76
8, 57720, Note_on_c, 1, 72, 76
8, 57831, Note_on_c, 1, 79, 0
8, 57831, Note_on_c, 1, 72, 0
8, 57840, Note_on_c, 1, 77, 76
8, 57840, Note_on_c, 1, 72, 76
8, 57959, Note_on_c, 1, 77, 0
8, 57959, Note_on_c, 1, 72, 0
8, 58920, Note_on_c, 1, 67, 76
8, 59039, Note_on_c, 1, 67, 0
8, 59040, Note_on_c, 1, 68, 76
8, 59159, Note_on_c, 1, 68, 0
8, 59160, Note_on_c, 1, 72, 76
8, 59399, Note_on_c, 1, 72, 0
8, 62160, Note_on_c, 1, 77, 84
8, 62399, Note_on_c, 1, 77, 0
8, 62400, Note_on_c, 1, 79, 84
8, 62519, Note_on_c, 1, 79, 0
8, 62520, Note_on_c, 1, 80, 84
8, 62631, Note_on_c, 1, 80, 0
8, 62640, Note_on_c, 1, 82, 92
8, 62984, Note_on_c, 1, 82, 0
8, 63000, Note_on_c, 1, 80, 84
8, 63111, Note_on_c, 1, 80, 0
8, 63120, Note_on_c, 1, 79, 84
8, 63239, Note_on_c, 1, 79, 0
8, 63240, Note_on_c, 1, 76, 84
8, 63359, Note_on_c, 1, 76, 0
8, 63360, Note_on_c, 1, 77, 84
8, 63479, Note_on_c, 1, 77, 0
8, 63480, Note_on_c, 1, 79, 84
8, 63591, Note_on_c, 1, 79, 0
8, 63600, Note_on_c, 1, 80, 84
8, 63720, Note_on_c, 1, 79, 84
8, 63839, Note_on_c, 1, 79, 0
8, 63840, Note_on_c, 1, 77, 84
8, 63959, Note_on_c, 1, 77, 0
8, 63960, Note_on_c, 1, 75, 84
8, 64071, Note_on_c, 1, 75, 0
8, 64080, Note_on_c, 1, 74, 84
8, 64199, Note_on_c, 1, 80, 0
8, 64200, Note_on_c, 1, 84, 84
8, 64319, Note_on_c, 1, 74, 0
8, 64319, Note_on_c, 1, 84, 0
8, 64320, Note_on_c, 1, 82, 84
8, 64320, Note_on_c, 1, 75, 84
8, 64439, Note_on_c, 1, 82, 0
8, 64439, Note_on_c, 1, 75, 0
8, 64440, Note_on_c, 1, 80, 84
8, 64440, Note_on_c, 1, 77, 84
8, 64551, Note_on_c, 1, 80, 0
8, 64551, Note_on_c, 1, 77, 0
8, 64560, Note_on_c, 1, 79, 84
8, 64679, Note_on_c, 1, 79, 0
8, 66240, Note_on_c, 1, 75, 92
8, 66839, Note_on_c, 1, 75, 0
8, 66840, Note_on_c, 1, 74, 84
8, 66951, Note_on_c, 1, 74, 0
8, 66960, Note_on_c, 1, 72, 84
8, 67071, Note_on_c, 1, 72, 0
8, 67080, Note_on_c, 1, 75, 84
8, 67080, Note_on_c, 1, 79, 84
8, 67124, Note_on_c, 1, 75, 0
8, 67124, Note_on_c, 1, 79, 0
8, 67140, Note_on_c, 1, 77, 84
8, 67140, Note_on_c, 1, 74, 84
8, 67184, Note_on_c, 1, 77, 0
8, 67184, Note_on_c, 1, 74, 0
8, 67200, Note_on_c, 1, 75, 84
8, 67200, Note_on_c, 1, 72, 84
8, 67244, Note_on_c, 1, 75, 0
8, 67244, Note_on_c, 1, 72, 0
8, 67260, Note_on_c, 1, 74, 84
8, 67260, Note_on_c, 1, 70, 84
8, 67304, Note_on_c, 1, 74, 0
8, 67304, Note_on_c, 1, 70, 0
8, 67320, Note_on_c, 1, 72, 84
8, 67320, Note_on_c, 1, 68, 84
8, 67364, Note_on_c, 1, 72, 0
8, 67364, Note_on_c, 1, 68, 0
8, 67380, Note_on_c, 1, 70, 84
8, 67380, Note_on_c, 1, 67, 84
8, 67424, Note_on_c, 1, 70, 0
8, 67424, Note_on_c, 1, 67, 0
8, 67440, Note_on_c, 1, 65, 84
8, 67440, Note_on_c, 1, 68, 84
8, 67559, Note_on_c, 1, 65, 0
8, 67559, Note_on_c, 1, 68, 0
8, 67980, Note_on_c, 1, 77, 84
8, 67980, Note_on_c, 1, 80, 84
8, 68024, Note_on_c, 1, 77, 0
8, 68024, Note_on_c, 1, 80, 0
8, 68040, Note_on_c, 1, 80, 84
8, 68040, Note_on_c, 1, 77, 84
8, 68084, Note_on_c, 1, 80, 0
8, 68084, Note_on_c, 1, 77, 0
8, 68100, Note_on_c, 1, 75, 84
8, 68100, Note_on_c, 1, 79, 84
8, 68144, Note_on_c, 1, 75, 0
8, 68144, Note_on_c, 1, 79, 0
8, 68160, Note_on_c, 1, 77, 84
8, 68160, Note_on_c, 1, 74, 84
8, 68204, Note_on_c, 1, 77, 0
8, 68204, Note_on_c, 1, 74, 0
8, 68220, Note_on_c, 1, 75, 84
8, 68220, Note_on_c, 1, 72, 84
8, 68264, Note_on_c, 1, 75, 0
8, 68264, Note_on_c, 1, 72, 0
8, 68280, Note_on_c, 1, 74, 84
8, 68280, Note_on_c, 1, 71, 84
8, 68324, Note_on_c, 1, 74, 0
8, 68324, Note_on_c, 1, 71, 0
8, 68340, Note_on_c, 1, 72, 84
8, 68340, Note_on_c, 1, 69, 84
8, 68384, Note_on_c, 1, 72, 0
8, 68384, Note_on_c, 1, 69, 0
8, 68400, Note_on_c, 1, 71, 84
8, 68400, Note_on_c, 1, 67, 84
8, 68519, Note_on_c, 1, 71, 0
8, 68519, Note_on_c, 1, 67, 0
8, 68760, Note_on_c, 1, 79, 84
8, 68760, Note_on_c, 1, 67, 84
8, 68939, Note_on_c, 1, 79, 0
8, 68939, Note_on_c, 1, 67, 0
8, 68940, Note_on_c, 1, 78, 84
8, 68940, Note_on_c, 1, 66, 84
8, 68999, Note_on_c, 1, 78, 0
8, 68999, Note_on_c, 1, 66, 0
8, 69000, Note_on_c, 1, 67, 84
8, 69000, Note_on_c, 1, 79, 84
8, 69059, Note_on_c, 1, 67, 0
8, 69059, Note_on_c, 1, 79, 0
8, 69060, Note_on_c, 1, 81, 84
8, 69060, Note_on_c, 1, 69, 84
8, 69119, Note_on_c, 1, 81, 0
8, 69119, Note_on_c, 1, 69, 0
8, 69120, Note_on_c, 1, 82, 84
8, 69120, Note_on_c, 1, 70, 84
8, 69239, Note_on_c, 1, 82, 0
8, 69239, Note_on_c, 1, 70, 0
8, 69240, Note_on_c, 1, 79, 84
8, 69240, Note_on_c, 1, 67, 84
8, 69351, Note_on_c, 1, 79, 0
8, 69351, Note_on_c, 1, 67, 0
8, 69360, Note_on_c, 1, 78, 84
8, 69360, Note_on_c, 1, 66, 84
8, 69479, Note_on_c, 1, 78, 0
8, 69479, Note_on_c, 1, 66, 0
8, 69720, Note_on_c, 1, 74, 84
8, 69951, Note_on_c, 1, 74, 0
8, 69960, Note_on_c, 1, 72, 84
8, 70019, Note_on_c, 1, 72, 0
8, 70020, Note_on_c, 1, 70, 84
8, 70079, Note_on_c, 1, 70, 0
8, 70080, Note_on_c, 1, 68, 92
8, 70199, Note_on_c, 1, 68, 0
8, 70200, Note_on_c, 1, 72, 84
8, 70431, Note_on_c, 1, 72, 0
8, 70440, Note_on_c, 1, 70, 84
8, 70499, Note_on_c, 1, 70, 0
8, 70500, Note_on_c, 1, 69, 84
8, 70559, Note_on_c, 1, 69, 0
8, 70560, Note_on_c, 1, 67, 92
8, 70679, Note_on_c, 1, 67, 0
8, 70680, Note_on_c, 1, 70, 84
8, 70911, Note_on_c, 1, 70, 0
8, 70920, Note_on_c, 1, 69, 84
8, 70979, Note_on_c, 1, 69, 0
8, 70980, Note_on_c, 1, 67, 84
8, 71039, Note_on_c, 1, 67, 0
8, 71040, Note_on_c, 1, 66, 92
8, 71159, Note_on_c, 1, 66, 0
8, 71160, Note_on_c, 1, 69, 84
8, 71391, Note_on_c, 1, 69, 0
8, 71400, Note_on_c, 1, 74, 84
8, 71511, Note_on_c, 1, 74, 0
8, 71520, Note_on_c, 1, 74, 84
8, 71520, Note_on_c, 1, 67, 84
8, 71639, Note_on_c, 1, 74, 0
8, 71639, Note_on_c, 1, 67, 0
8, 71640, Note_on_c, 1, 79, 84
8, 71640, Note_on_c, 1, 70, 84
8, 71751, Note_on_c, 1, 79, 0
8, 71751, Note_on_c, 1, 70, 0
8, 71760, Note_on_c, 1, 76, 84
8, 71760, Note_on_c, 1, 79, 84
8, 71849, Note_on_c, 1, 76, 0
8, 71849, Note_on_c, 1, 79, 0
8, 73440, Note_on_c, 1, 72, 52
8, 73679, Note_on_c, 1, 72, 0
8, 73680, Note_on_c, 1, 70, 52
8, 73799, Note_on_c, 1, 70, 0
8, 79440, Note_on_c, 1, 77, 84
8, 79440, Note_on_c, 1, 74, 84
8, 80031, Note_on_c, 1, 77, 0
8, 80031, Note_on_c, 1, 74, 0
8, 80040, Note_on_c, 1, 77, 84
8, 80040, Note_on_c, 1, 74, 84
8, 80151, Note_on_c, 1, 77, 0
8, 80151, Note_on_c, 1, 74, 0
8, 80160, Note_on_c, 1, 74, 84
8, 80160, Note_on_c, 1, 77, 84
8, 80271, Note_on_c, 1, 74, 0
8, 80271, Note_on_c, 1, 77, 0
8, 80280, Note_on_c, 1, 77, 84
8, 80280, Note_on_c, 1, 74, 84
8, 80391, Note_on_c, 1, 77, 0
8, 80391, Note_on_c, 1, 74, 0
8, 80400, Note_on_c, 1, 77, 84
8, 80400, Note_on_c, 1, 74, 84
8, 80519, Note_on_c, 1, 77, 0
8, 80519, Note_on_c, 1, 74, 0
8, 82800, Note_on_c, 1, 72, 52
8, 83011, Note_on_c, 1, 72, 0
8, 83020, Note_on_c, 1, 74, 52
8, 83039, Note_on_c, 1, 74, 0
8, 83040, Note_on_c, 1, 72, 52
8, 83129, Note_on_c, 1, 72, 0
8, 83130, Note_on_c, 1, 71, 52
8, 83159, Note_on_c, 1, 71, 0
8, 83160, Note_on_c, 1, 72, 52
8, 83249, Note_on_c, 1, 72, 0
8, 83250, Note_on_c, 1, 74, 52
8, 83275, Note_on_c, 1, 74, 0
8, 83280, Note_on_c, 1, 75, 52
8, 83519, Note_on_c, 1, 75, 0
8, 83520, Note_on_c, 1, 72, 52
8, 83639, Note_on_c, 1, 72, 0
8, 83760, Note_on_c, 1, 79, 52
8, 83991, Note_on_c, 1, 79, 0
8, 84000, Note_on_c, 1, 77, 52
8, 84029, Note_on_c, 1, 77, 0
8, 84030, Note_on_c, 1, 75, 52
8, 84111, Note_on_c, 1, 75, 0
8, 84120, Note_on_c, 1, 74, 52
8, 84149, Note_on_c, 1, 74, 0
8, 84150, Note_on_c, 1, 72, 52
8, 84231, Note_on_c, 1, 72, 0
8, 84240, Note_on_c, 1, 75, 52
8, 84360, Note_on_c, 1, 66, 68
8, 84479, Note_on_c, 1, 75, 0
8, 84480, Note_on_c, 1, 74, 52
8, 84599, Note_on_c, 1, 66, 0
8, 84599, Note_on_c, 1, 74, 0
8, 84600, Note_on_c, 1, 67, 52
8, 84711, Note_on_c, 1, 67, 0
8, 84720, Note_on_c, 1, 74, 52
8, 84951, Note_on_c, 1, 74, 0
8, 84960, Note_on_c, 1, 74, 52
8, 85049, Note_on_c, 1, 74, 0
8, 85050, Note_on_c, 1, 75, 52
8, 85079, Note_on_c, 1, 75, 0
8, 85080, Note_on_c, 1, 77, 52
8, 85169, Note_on_c, 1, 77, 0
8, 85170, Note_on_c, 1, 79, 52
8, 85191, Note_on_c, 1, 79, 0
8, 85196, Control_c, 1, 11, 96
8, 85200, Note_on_c, 1, 80, 68
8, 85440, Note_on_c, 1, 77, 68
8, 85440, Control_c, 1, 11, 96
8, 85460, Control_c, 1, 11, 99
8, 85480, Control_c, 1, 11, 101
8, 85500, Control_c, 1, 11, 104
8, 85520, Control_c, 1, 11, 106
8, 85540, Control_c, 1, 11, 109
8, 85560, Control_c, 1, 11, 112
8, 85580, Control_c, 1, 11, 114
8, 85600, Control_c, 1, 11, 117
8, 85620, Control_c, 1, 11, 119
8, 85640, Control_c, 1, 11, 122
8, 85660, Control_c, 1, 11, 124
8, 85680, Control_c, 1, 11, 127
8, 85700, Control_c, 1, 11, 126
8, 85720, Control_c, 1, 11, 124
8, 85740, Control_c, 1, 11, 123
8, 85760, Control_c, 1, 11, 122
8, 85780, Control_c, 1, 11, 121
8, 85799, Note_on_c, 1, 80, 0
8, 85799, Note_on_c, 1, 77, 0
8, 85800, Note_on_c, 1, 70, 68
8, 85800, Note_on_c, 1, 77, 68
8, 85800, Control_c, 1, 11, 119
8, 85820, Control_c, 1, 11, 118
8, 85840, Control_c, 1, 11, 117
8, 85860, Control_c, 1, 11, 115
8, 85880, Control_c, 1, 11, 114
8, 85900, Control_c, 1, 11, 113
8, 85911, Note_on_c, 1, 70, 0
8, 85919, Note_on_c, 1, 77, 0
8, 85920, Note_on_c, 1, 70, 68
8, 85920, Note_on_c, 1, 75, 68
8, 85920, Control_c, 1, 11, 112
8, 85940, Control_c, 1, 11, 110
8, 85960, Control_c, 1, 11, 109
8, 85980, Control_c, 1, 11, 108
8, 86000, Control_c, 1, 11, 106
8, 86020, Control_c, 1, 11, 105
8, 86031, Note_on_c, 1, 70, 0
8, 86039, Note_on_c, 1, 75, 0
8, 86040, Control_c, 1, 11, 104
8, 86040, Note_on_c, 1, 70, 68
8, 86040, Note_on_c, 1, 74, 68
8, 86060, Control_c, 1, 11, 102
8, 86080, Control_c, 1, 11, 101
8, 86100, Control_c, 1, 11, 100
8, 86120, Control_c, 1, 11, 99
8, 86140, Control_c, 1, 11, 96
8, 86151, Note_on_c, 1, 70, 0
8, 86151, Note_on_c, 1, 74, 0
8, 86160, Note_on_c, 1, 75, 68
8, 86160, Note_on_c, 1, 70, 68
8, 86271, Note_on_c, 1, 75, 0
8, 86271, Note_on_c, 1, 70, 0
8, 86280, Note_on_c, 1, 75, 68
8, 86280, Note_on_c, 1, 72, 68
8, 86361, Note_on_c, 1, 75, 0
8, 86361, Note_on_c, 1, 72, 0
8, 86370, Note_on_c, 1, 72, 68
8, 86370, Note_on_c, 1, 75, 68
8, 86395, Note_on_c, 1, 72, 0
8, 86395, Note_on_c, 1, 75, 0
8, 86400, Note_on_c, 1, 70, 68
8, 86400, Note_on_c, 1, 75, 68
8, 86519, Note_on_c, 1, 70, 0
8, 86519, Note_on_c, 1, 75, 0
8, 88560, Note_on_c, 1, 79, 68
8, 88560, Note_on_c, 1, 82, 68
8, 88799, Note_on_c, 1, 79, 0
8, 88799, Note_on_c, 1, 82, 0
8, 88800, Note_on_c, 1, 77, 68
8, 88800, Note_on_c, 1, 80, 68
8, 88919, Note_on_c, 1, 77, 0
8, 88919, Note_on_c, 1, 80, 0
8, 88920, Note_on_c, 1, 79, 68
8, 88920, Note_on_c, 1, 75, 68
8, 89031, Note_on_c, 1, 79, 0
8, 89031, Note_on_c, 1, 75, 0
8, 89040, Note_on_c, 1, 75, 68
8, 89040, Note_on_c, 1, 78, 68
8, 89040, Control_c, 1, 11, 96
8, 89060, Control_c, 1, 11, 99
8, 89080, Control_c, 1, 11, 101
8, 89100, Control_c, 1, 11, 104
8, 89120, Control_c, 1, 11, 106
8, 89140, Control_c, 1, 11, 109
8, 89159, Note_on_c, 1, 75, 0
8, 89160, Note_on_c, 1, 72, 68
8, 89160, Control_c, 1, 11, 112
8, 89180, Control_c, 1, 11, 114
8, 89200, Control_c, 1, 11, 117
8, 89220, Control_c, 1, 11, 119
8, 89240, Control_c, 1, 11, 122
8, 89260, Control_c, 1, 11, 127
8, 89279, Note_on_c, 1, 78, 0
8, 89280, Note_on_c, 1, 84, 76
8, 89340, Control_c, 1, 11, 112
8, 89355, Control_c, 1, 11, 109
8, 89370, Control_c, 1, 11, 107
8, 89385, Control_c, 1, 11, 104
8, 89399, Note_on_c, 1, 72, 0
8, 89400, Control_c, 1, 11, 101
8, 89400, Note_on_c, 1, 75, 76
8, 89415, Control_c, 1, 11, 99
8, 89430, Control_c, 1, 11, 96
8, 89445, Control_c, 1, 11, 93
8, 89459, Note_on_c, 1, 84, 0
8, 89460, Control_c, 1, 11, 91
8, 89460, Note_on_c, 1, 78, 76
8, 89475, Control_c, 1, 11, 88
8, 89490, Control_c, 1, 11, 85
8, 89505, Control_c, 1, 11, 80
8, 89511, Note_on_c, 1, 75, 0
8, 89511, Note_on_c, 1, 78, 0
8, 89520, Note_on_c, 1, 71, 76
8, 89520, Note_on_c, 1, 79, 76
8, 89639, Note_on_c, 1, 71, 0
8, 89639, Note_on_c, 1, 79, 0
8, 89880, Control_c, 1, 11, 96
8, 90000, Note_on_c, 1, 79, 68
8, 90239, Note_on_c, 1, 79, 0
8, 90240, Note_on_c, 1, 77, 68
8, 90359, Note_on_c, 1, 77, 0
8, 90360, Note_on_c, 1, 75, 68
8, 90471, Note_on_c, 1, 75, 0
8, 90480, Note_on_c, 1, 74, 68
8, 90720, Control_c, 1, 11, 96
8, 90740, Control_c, 1, 11, 99
8, 90760, Control_c, 1, 11, 101
8, 90780, Control_c, 1, 11, 104
8, 90800, Control_c, 1, 11, 106
8, 90820, Control_c, 1, 11, 109
8, 90839, Note_on_c, 1, 74, 0
8, 90840, Control_c, 1, 11, 112
8, 90840, Note_on_c, 1, 77, 68
8, 90860, Control_c, 1, 11, 114
8, 90880, Control_c, 1, 11, 117
8, 90900, Control_c, 1, 11, 119
8, 90920, Control_c, 1, 11, 122
8, 90940, Control_c, 1, 11, 124
8, 90951, Note_on_c, 1, 77, 0
8, 90960, Note_on_c, 1, 75, 68
8, 90960, Control_c, 1, 11, 127
8, 90980, Control_c, 1, 11, 126
8, 91000, Control_c, 1, 11, 124
8, 91020, Control_c, 1, 11, 123
8, 91040, Control_c, 1, 11, 122
8, 91060, Control_c, 1, 11, 121
8, 91080, Control_c, 1, 11, 119
8, 91100, Control_c, 1, 11, 118
8, 91120, Control_c, 1, 11, 117
8, 91140, Control_c, 1, 11, 115
8, 91160, Control_c, 1, 11, 114
8, 91180, Control_c, 1, 11, 113
8, 91199, Note_on_c, 1, 75, 0
8, 91200, Control_c, 1, 11, 112
8, 91200, Note_on_c, 1, 74, 68
8, 91220, Control_c, 1, 11, 110
8, 91240, Control_c, 1, 11, 109
8, 91260, Control_c, 1, 11, 108
8, 91280, Control_c, 1, 11, 106
8, 91300, Control_c, 1, 11, 105
8, 91319, Note_on_c, 1, 74, 0
8, 91320, Note_on_c, 1, 72, 68
8, 91320, Control_c, 1, 11, 104
8, 91340, Control_c, 1, 11, 102
8, 91360, Control_c, 1, 11, 101
8, 91380, Control_c, 1, 11, 100
8, 91400, Control_c, 1, 11, 99
8, 91420, Control_c, 1, 11, 96
8, 91431, Note_on_c, 1, 72, 0
8, 91440, Note_on_c, 1, 71, 68
8, 91559, Note_on_c, 1, 71, 0
8, 92400, Control_c, 1, 11, 96
8, 92440, Control_c, 1, 11, 97
8, 92460, Note_on_c, 1, 74, 68
8, 92480, Control_c, 1, 11, 99
8, 92511, Note_on_c, 1, 74, 0
8, 92520, Control_c, 1, 11, 100
8, 92520, Note_on_c, 1, 75, 68
8, 92560, Control_c, 1, 11, 101
8, 92571, Note_on_c, 1, 75, 0
8, 92580, Note_on_c, 1, 74, 68
8, 92600, Control_c, 1, 11, 102
8, 92631, Note_on_c, 1, 74, 0
8, 92640, Note_on_c, 1, 75, 68
8, 92640, Control_c, 1, 11, 104
8, 92680, Control_c, 1, 11, 105
8, 92691, Note_on_c, 1, 75, 0
8, 92700, Note_on_c, 1, 76, 68
8, 92720, Control_c, 1, 11, 106
8, 92751, Note_on_c, 1, 76, 0
8, 92760, Control_c, 1, 11, 108
8, 92760, Note_on_c, 1, 77, 68
8, 92800, Control_c, 1, 11, 109
8, 92811, Note_on_c, 1, 77, 0
8, 92820, Note_on_c, 1, 78, 68
8, 92840, Control_c, 1, 11, 110
8, 92864, Note_on_c, 1, 78, 0
8, 92880, Note_on_c, 1, 79, 68
8, 92880, Control_c, 1, 11, 112
8, 92920, Control_c, 1, 11, 113
8, 92960, Control_c, 1, 11, 114
8, 93000, Control_c, 1, 11, 115
8, 93040, Control_c, 1, 11, 117
8, 93080, Control_c, 1, 11, 118
8, 93120, Note_on_c, 1, 70, 68
8, 93120, Control_c, 1, 11, 119
8, 93160, Control_c, 1, 11, 121
8, 93200, Control_c, 1, 11, 122
8, 93231, Note_on_c, 1, 79, 0
8, 93240, Control_c, 1, 11, 123
8, 93240, Note_on_c, 1, 72, 68
8, 93280, Control_c, 1, 11, 124
8, 93320, Control_c, 1, 11, 127
8, 93321, Note_on_c, 1, 72, 0
8, 93330, Note_on_c, 1, 72, 68
8, 93351, Note_on_c, 1, 70, 0
8, 93355, Note_on_c, 1, 72, 0
8, 93360, Note_on_c, 1, 72, 52
8, 93360, Note_on_c, 1, 68, 52
8, 93479, Note_on_c, 1, 68, 0
8, 93571, Note_on_c, 1, 72, 0
8, 93580, Note_on_c, 1, 79, 52
8, 93599, Note_on_c, 1, 79, 0
8, 93600, Note_on_c, 1, 77, 52
8, 93689, Note_on_c, 1, 77, 0
8, 93690, Note_on_c, 1, 76, 52
8, 93719, Note_on_c, 1, 76, 0
8, 93720, Note_on_c, 1, 77, 52
8, 93809, Note_on_c, 1, 77, 0
8, 93810, Note_on_c, 1, 79, 52
8, 93835, Note_on_c, 1, 79, 0
8, 93840, Note_on_c, 1, 80, 52
8, 94079, Note_on_c, 1, 80, 0
8, 94080, Note_on_c, 1, 77, 52
8, 94199, Note_on_c, 1, 77, 0
8, 94260, Control_c, 1, 11, 80
8, 94320, Control_c, 1, 11, 80
8, 94320, Note_on_c, 1, 77, 76
8, 94340, Control_c, 1, 11, 82
8, 94360, Control_c, 1, 11, 84
8, 94380, Control_c, 1, 11, 86
8, 94400, Control_c, 1, 11, 88
8, 94420, Control_c, 1, 11, 90
8, 94440, Control_c, 1, 11, 92
8, 94460, Control_c, 1, 11, 94
8, 94480, Control_c, 1, 11, 96
8, 94500, Control_c, 1, 11, 98
8, 94520, Control_c, 1, 11, 100
8, 94540, Control_c, 1, 11, 102
8, 94551, Note_on_c, 1, 77, 0
8, 94560, Control_c, 1, 11, 104
8, 94560, Note_on_c, 1, 75, 76
8, 94580, Control_c, 1, 11, 105
8, 94589, Note_on_c, 1, 75, 0
8, 94590, Note_on_c, 1, 74, 76
8, 94600, Control_c, 1, 11, 107
8, 94620, Control_c, 1, 11, 109
8, 94640, Control_c, 1, 11, 111
8, 94660, Control_c, 1, 11, 113
8, 94671, Note_on_c, 1, 74, 0
8, 94680, Note_on_c, 1, 72, 76
8, 94680, Control_c, 1, 11, 115
8, 94680, Note_on_c, 1, 74, 76
8, 94700, Control_c, 1, 11, 117
8, 94709, Note_on_c, 1, 72, 0
8, 94710, Note_on_c, 1, 71, 76
8, 94720, Control_c, 1, 11, 119
8, 94740, Control_c, 1, 11, 121
8, 94760, Control_c, 1, 11, 123
8, 94780, Control_c, 1, 11, 127
8, 94791, Note_on_c, 1, 74, 0
8, 94791, Note_on_c, 1, 71, 0
8, 94800, Note_on_c, 1, 67, 76
8, 94800, Note_on_c, 1, 72, 76
8, 94889, Note_on_c, 1, 67, 0
8, 94889, Note_on_c, 1, 72, 0
8, 94920, Note_on_c, 1, 72, 76
8, 94920, Note_on_c, 1, 80, 76
8, 95009, Note_on_c, 1, 72, 0
8, 95009, Note_on_c, 1, 80, 0
8, 95160, Note_on_c, 1, 78, 52
8, 95391, Note_on_c, 1, 78, 0
8, 95400, Control_c, 1, 11, 127
8, 95400, Note_on_c, 1, 75, 52
8, 95400, Note_on_c, 1, 79, 52
8, 95416, Control_c, 1, 11, 126
8, 95432, Control_c, 1, 11, 125
8, 95448, Control_c, 1, 11, 124
8, 95464, Control_c, 1, 11, 123
8, 95480, Control_c, 1, 11, 122
8, 95496, Control_c, 1, 11, 121
8, 95512, Control_c, 1, 11, 120
8, 95519, Note_on_c, 1, 75, 0
8, 95520, Note_on_c, 1, 71, 52
8, 95528, Control_c, 1, 11, 119
8, 95544, Control_c, 1, 11, 118
8, 95560, Control_c, 1, 11, 117
8, 95576, Control_c, 1, 11, 116
8, 95592, Control_c, 1, 11, 115
8, 95608, Control_c, 1, 11, 114
8, 95624, Control_c, 1, 11, 112
8, 95631, Note_on_c, 1, 79, 0
8, 95631, Note_on_c, 1, 71, 0
8, 95640, Note_on_c, 1, 74, 52
8, 95640, Note_on_c, 1, 77, 52
8, 95729, Note_on_c, 1, 74, 0
8, 95729, Note_on_c, 1, 77, 0
8, 95730, Note_on_c, 1, 74, 52
8, 95730, Note_on_c, 1, 71, 52
8, 95755, Note_on_c, 1, 74, 0
8, 95755, Note_on_c, 1, 71, 0
8, 95760, Note_on_c, 1, 72, 52
8, 95879, Note_on_c, 1, 72, 0
8, 96720, Control_c, 1, 11, 127
8, 97080, Note_on_c, 1, 78, 52
8, 97080, Control_c, 1, 11, 127
8, 97088, Control_c, 1, 11, 126
8, 97096, Control_c, 1, 11, 125
8, 97104, Control_c, 1, 11, 124
8, 97112, Control_c, 1, 11, 123
8, 97120, Control_c, 1, 11, 122
8, 97128, Control_c, 1, 11, 121
8, 97136, Control_c, 1, 11, 120
8, 97144, Control_c, 1, 11, 119
8, 97152, Control_c, 1, 11, 118
8, 97160, Control_c, 1, 11, 117
8, 97168, Control_c, 1, 11, 116
8, 97176, Control_c, 1, 11, 115
8, 97184, Control_c, 1, 11, 114
8, 97192, Control_c, 1, 11, 112
8, 97379, Note_on_c, 1, 78, 0
8, 97380, Note_on_c, 1, 79, 52
8, 97431, Note_on_c, 1, 79, 0
8, 97440, Note_on_c, 1, 79, 52
8, 97559, Note_on_c, 1, 79, 0
8, 97650, Control_c, 1, 11, 127
8, 97680, Note_on_c, 1, 80, 76
8, 97680, Note_on_c, 1, 72, 76
8, 97911, Note_on_c, 1, 80, 0
8, 97911, Note_on_c, 1, 72, 0
8, 97920, Note_on_c, 1, 80, 76
8, 97920, Note_on_c, 1, 72, 76
8, 98121, Note_on_c, 1, 80, 0
8, 98121, Note_on_c, 1, 72, 0
8, 98130, Note_on_c, 1, 72, 76
8, 98130, Note_on_c, 1, 80, 76
8, 98155, Note_on_c, 1, 72, 0
8, 98155, Note_on_c, 1, 80, 0
8, 98160, Note_on_c, 1, 72, 84
8, 98160, Note_on_c, 1, 81, 84
8, 98220, Control_c, 1, 11, 112
8, 98238, Control_c, 1, 11, 110
8, 98255, Control_c, 1, 11, 108
8, 98273, Control_c, 1, 11, 106
8, 98290, Control_c, 1, 11, 104
8, 98308, Control_c, 1, 11, 102
8, 98325, Control_c, 1, 11, 100
8, 98343, Control_c, 1, 11, 98
8, 98360, Control_c, 1, 11, 96
8, 98378, Control_c, 1, 11, 94
8, 98395, Control_c, 1, 11, 92
8, 98413, Control_c, 1, 11, 90
8, 98430, Control_c, 1, 11, 88
8, 98448, Control_c, 1, 11, 86
8, 98465, Control_c, 1, 11, 84
8, 98483, Control_c, 1, 11, 82
8, 98500, Control_c, 1, 11, 80
8, 98518, Control_c, 1, 11, 78
8, 98535, Control_c, 1, 11, 76
8, 98553, Control_c, 1, 11, 74
8, 98570, Control_c, 1, 11, 72
8, 98588, Control_c, 1, 11, 70
8, 98605, Control_c, 1, 11, 68
8, 98624, Note_on_c, 1, 72, 0
8, 98624, Note_on_c, 1, 81, 0
8, 98636, Control_c, 1, 11, 80
8, 98640, Note_on_c, 1, 75, 76
8, 98640, Note_on_c, 1, 79, 76
8, 98871, Note_on_c, 1, 75, 0
8, 98880, Note_on_c, 1, 77, 76
8, 99111, Note_on_c, 1, 77, 0
8, 99119, Note_on_c, 1, 79, 0
8, 99120, Note_on_c, 1, 75, 76
8, 99120, Note_on_c, 1, 79, 76
8, 99231, Note_on_c, 1, 75, 0
8, 99231, Note_on_c, 1, 79, 0
8, 99240, Note_on_c, 1, 78, 76
8, 99240, Control_c, 1, 11, 80
8, 99260, Control_c, 1, 11, 79
8, 99280, Control_c, 1, 11, 77
8, 99300, Control_c, 1, 11, 76
8, 99320, Control_c, 1, 11, 75
8, 99340, Control_c, 1, 11, 73
8, 99360, Control_c, 1, 11, 72
8, 99380, Control_c, 1, 11, 71
8, 99400, Control_c, 1, 11, 69
8, 99420, Control_c, 1, 11, 68
8, 99440, Control_c, 1, 11, 67
8, 99460, Control_c, 1, 11, 64
8, 99479, Note_on_c, 1, 78, 0
8, 99480, Note_on_c, 1, 79, 76
8, 99591, Note_on_c, 1, 79, 0
8, 99600, Control_c, 1, 11, 64
8, 99600, Note_on_c, 1, 72, 76
8, 99600, Note_on_c, 1, 75, 76
8, 99620, Control_c, 1, 11, 67
8, 99640, Control_c, 1, 11, 69
8, 99660, Control_c, 1, 11, 72
8, 99680, Control_c, 1, 11, 75
8, 99700, Control_c, 1, 11, 77
8, 99711, Note_on_c, 1, 72, 0
8, 99720, Control_c, 1, 11, 80
8, 99720, Note_on_c, 1, 67, 76
8, 99740, Control_c, 1, 11, 82
8, 99760, Control_c, 1, 11, 85
8, 99780, Control_c, 1, 11, 88
8, 99800, Control_c, 1, 11, 90
8, 99820, Control_c, 1, 11, 93
8, 99831, Note_on_c, 1, 67, 0
8, 99839, Note_on_c, 1, 75, 0
8, 99840, Control_c, 1, 11, 96
8, 99840, Note_on_c, 1, 74, 76
8, 99840, Note_on_c, 1, 67, 76
8, 99860, Control_c, 1, 11, 98
8, 99880, Control_c, 1, 11, 101
8, 99900, Control_c, 1, 11, 103
8, 99920, Control_c, 1, 11, 106
8, 99940, Control_c, 1, 11, 109
8, 99951, Note_on_c, 1, 67, 0
8, 99960, Note_on_c, 1, 67, 76
8, 99960, Control_c, 1, 11, 111
8, 99980, Control_c, 1, 11, 114
8, 100000, Control_c, 1, 11, 117
8, 100020, Control_c, 1, 11, 119
8, 100040, Control_c, 1, 11, 122
8, 100049, Note_on_c, 1, 74, 0
8, 100050, Note_on_c, 1, 72, 76
8, 100060, Control_c, 1, 11, 127
8, 100071, Note_on_c, 1, 67, 0
8, 100075, Note_on_c, 1, 72, 0
8, 100080, Note_on_c, 1, 72, 76
8, 100199, Note_on_c, 1, 72, 0
8, 102720, Control_c, 1, 11, 96
8, 102960, Note_on_c, 1, 80, 60
8, 102960, Control_c, 1, 11, 96
8, 102980, Control_c, 1, 11, 97
8, 103000, Control_c, 1, 11, 99
8, 103020, Control_c, 1, 11, 100
8, 103040, Control_c, 1, 11, 101
8, 103060, Control_c, 1, 11, 102
8, 103080, Control_c, 1, 11, 104
8, 103100, Control_c, 1, 11, 105
8, 103120, Control_c, 1, 11, 106
8, 103140, Control_c, 1, 11, 108
8, 103160, Control_c, 1, 11, 109
8, 103180, Control_c, 1, 11, 110
8, 103200, Control_c, 1, 11, 112
8, 103220, Control_c, 1, 11, 113
8, 103240, Control_c, 1, 11, 114
8, 103260, Control_c, 1, 11, 115
8, 103280, Control_c, 1, 11, 117
8, 103300, Control_c, 1, 11, 118
8, 103320, Control_c, 1, 11, 119
8, 103340, Control_c, 1, 11, 121
8, 103360, Control_c, 1, 11, 122
8, 103380, Control_c, 1, 11, 123
8, 103400, Control_c, 1, 11, 124
8, 103420, Control_c, 1, 11, 126
8, 103439, Note_on_c, 1, 80, 0
8, 103440, Note_on_c, 1, 80, 60
8, 103440, Control_c, 1, 11, 127
8, 103460, Control_c, 1, 11, 126
8, 103480, Control_c, 1, 11, 124
8, 103500, Control_c, 1, 11, 123
8, 103520, Control_c, 1, 11, 122
8, 103540, Control_c, 1, 11, 121
8, 103560, Control_c, 1, 11, 119
8, 103580, Control_c, 1, 11, 118
8, 103600, Control_c, 1, 11, 117
8, 103620, Control_c, 1, 11, 115
8, 103640, Control_c, 1, 11, 114
8, 103660, Control_c, 1, 11, 113
8, 103680, Control_c, 1, 11, 112
8, 103700, Control_c, 1, 11, 110
8, 103720, Control_c, 1, 11, 109
8, 103740, Control_c, 1, 11, 108
8, 103760, Control_c, 1, 11, 106
8, 103780, Control_c, 1, 11, 105
8, 103800, Control_c, 1, 11, 104
8, 103820, Control_c, 1, 11, 102
8, 103840, Control_c, 1, 11, 101
8, 103860, Control_c, 1, 11, 100
8, 103880, Control_c, 1, 11, 99
8, 103900, Control_c, 1, 11, 96
8, 104039, Note_on_c, 1, 80, 0
8, 107640, Note_on_c, 1, 83, 68
8, 107759, Note_on_c, 1, 83, 0
8, 107760, Note_on_c, 1, 84, 68
8, 107999, Note_on_c, 1, 84, 0
8, 108000, Note_on_c, 1, 79, 68
8, 108119, Note_on_c, 1, 79, 0
8, 108120, Note_on_c, 1, 82, 68
8, 108231, Note_on_c, 1, 82, 0
8, 108240, Note_on_c, 1, 80, 68
8, 108240, Note_on_c, 1, 72, 68
8, 108240, Control_c, 1, 11, 96
8, 108280, Control_c, 1, 11, 97
8, 108320, Control_c, 1, 11, 99
8, 108360, Control_c, 1, 11, 100
8, 108400, Control_c, 1, 11, 101
8, 108440, Control_c, 1, 11, 102
8, 108479, Note_on_c, 1, 80, 0
8, 108480, Note_on_c, 1, 79, 68
8, 108480, Control_c, 1, 11, 104
8, 108520, Control_c, 1, 11, 105
8, 108560, Control_c, 1, 11, 106
8, 108591, Note_on_c, 1, 72, 0
8, 108599, Note_on_c, 1, 79, 0
8, 108600, Control_c, 1, 11, 108
8, 108600, Note_on_c, 1, 77, 68
8, 108600, Note_on_c, 1, 72, 68
8, 108640, Control_c, 1, 11, 109
8, 108680, Control_c, 1, 11, 110
8, 108711, Note_on_c, 1, 77, 0
8, 108711, Note_on_c, 1, 72, 0
8, 108720, Note_on_c, 1, 76, 68
8, 108720, Note_on_c, 1, 72, 68
8, 108720, Control_c, 1, 11, 112
8, 108760, Control_c, 1, 11, 113
8, 108800, Control_c, 1, 11, 114
8, 108839, Note_on_c, 1, 76, 0
8, 108839, Note_on_c, 1, 72, 0
8, 108840, Note_on_c, 1, 77, 68
8, 108840, Control_c, 1, 11, 115
8, 108840, Note_on_c, 1, 72, 68
8, 108880, Control_c, 1, 11, 117
8, 108920, Control_c, 1, 11, 118
8, 108959, Note_on_c, 1, 77, 0
8, 108959, Note_on_c, 1, 72, 0
8, 108960, Control_c, 1, 11, 119
8, 108960, Note_on_c, 1, 79, 68
8, 108960, Note_on_c, 1, 76, 68
8, 109000, Control_c, 1, 11, 121
8, 109040, Control_c, 1, 11, 122
8, 109079, Note_on_c, 1, 79, 0
8, 109079, Note_on_c, 1, 76, 0
8, 109080, Note_on_c, 1, 80, 68
8, 109080, Note_on_c, 1, 77, 68
8, 109080, Control_c, 1, 11, 123
8, 109120, Control_c, 1, 11, 124
8, 109191, Note_on_c, 1, 80, 0
8, 109191, Note_on_c, 1, 77, 0
8, 109198, Control_c, 1, 11, 96
8, 109200, Note_on_c, 1, 76, 68
8, 109200, Note_on_c, 1, 79, 68
8, 109200, Control_c, 1, 11, 96
8, 109220, Control_c, 1, 11, 97
8, 109240, Control_c, 1, 11, 99
8, 109260, Control_c, 1, 11, 100
8, 109280, Control_c, 1, 11, 101
8, 109300, Control_c, 1, 11, 102
8, 109320, Control_c, 1, 11, 104
8, 109340, Control_c, 1, 11, 105
8, 109360, Control_c, 1, 11, 106
8, 109380, Control_c, 1, 11, 108
8, 109400, Control_c, 1, 11, 109
8, 109420, Control_c, 1, 11, 110
8, 109439, Note_on_c, 1, 76, 0
8, 109440, Control_c, 1, 11, 112
8, 109440, Note_on_c, 1, 75, 68
8, 109460, Control_c, 1, 11, 113
8, 109480, Control_c, 1, 11, 114
8, 109500, Control_c, 1, 11, 115
8, 109520, Control_c, 1, 11, 117
8, 109540, Control_c, 1, 11, 118
8, 109560, Control_c, 1, 11, 119
8, 109580, Control_c, 1, 11, 121
8, 109600, Control_c, 1, 11, 122
8, 109620, Control_c, 1, 11, 123
8, 109640, Control_c, 1, 11, 124
8, 109660, Control_c, 1, 11, 127
8, 109679, Note_on_c, 1, 79, 0
8, 109679, Note_on_c, 1, 75, 0
8, 109920, Note_on_c, 1, 77, 52
8, 110039, Note_on_c, 1, 77, 0
8, 110400, Note_on_c, 1, 75, 52
8, 110519, Note_on_c, 1, 75, 0
8, 111120, Control_c, 1, 11, 112
8, 111240, Note_on_c, 1, 79, 60
8, 111240, Control_c, 1, 11, 112
8, 111264, Control_c, 1, 11, 113
8, 111288, Control_c, 1, 11, 114
8, 111312, Control_c, 1, 11, 115
8, 111336, Control_c, 1, 11, 116
8, 111360, Control_c, 1, 11, 117
8, 111384, Control_c, 1, 11, 118
8, 111408, Control_c, 1, 11, 119
8, 111432, Control_c, 1, 11, 120
8, 111456, Control_c, 1, 11, 121
8, 111479, Note_on_c, 1, 79, 0
8, 111480, Note_on_c, 1, 80, 60
8, 111480, Control_c, 1, 11, 122
8, 111504, Control_c, 1, 11, 123
8, 111528, Control_c, 1, 11, 124
8, 111552, Control_c, 1, 11, 125
8, 111576, Control_c, 1, 11, 127
8, 111591, Note_on_c, 1, 80, 0
8, 111600, Note_on_c, 1, 80, 60
8, 111600, Control_c, 1, 11, 127
8, 111616, Control_c, 1, 11, 126
8, 111632, Control_c, 1, 11, 125
8, 111648, Control_c, 1, 11, 124
8, 111664, Control_c, 1, 11, 123
8, 111680, Control_c, 1, 11, 122
8, 111696, Control_c, 1, 11, 121
8, 111712, Control_c, 1, 11, 120
8, 111719, Note_on_c, 1, 80, 0
8, 111720, Note_on_c, 1, 71, 60
8, 111728, Control_c, 1, 11, 119
8, 111744, Control_c, 1, 11, 118
8, 111760, Control_c, 1, 11, 117
8, 111776, Control_c, 1, 11, 116
8, 111779, Note_on_c, 1, 71, 0
8, 111792, Control_c, 1, 11, 115
8, 111808, Control_c, 1, 11, 114
8, 111824, Control_c, 1, 11, 112
8, 112080, Control_c, 1, 11, 127
8, 112200, Note_on_c, 1, 79, 52
8, 112379, Note_on_c, 1, 79, 0
8, 112380, Note_on_c, 1, 80, 52
8, 112431, Note_on_c, 1, 80, 0
8, 112440, Note_on_c, 1, 80, 52
8, 112491, Note_on_c, 1, 80, 0
8, 112500, Note_on_c, 1, 80, 52
8, 112544, Note_on_c, 1, 80, 0
8, 112560, Note_on_c, 1, 80, 52
8, 112560, Control_c, 1, 11, 127
8, 112576, Control_c, 1, 11, 126
8, 112592, Control_c, 1, 11, 125
8, 112608, Control_c, 1, 11, 124
8, 112624, Control_c, 1, 11, 123
8, 112640, Control_c, 1, 11, 122
8, 112656, Control_c, 1, 11, 121
8, 112672, Control_c, 1, 11, 120
8, 112679, Note_on_c, 1, 80, 0
8, 112680, Note_on_c, 1, 71, 52
8, 112688, Control_c, 1, 11, 119
8, 112704, Control_c, 1, 11, 118
8, 112720, Control_c, 1, 11, 117
8, 112736, Control_c, 1, 11, 116
8, 112739, Note_on_c, 1, 71, 0
8, 112752, Control_c, 1, 11, 115
8, 112768, Control_c, 1, 11, 114
8, 112784, Control_c, 1, 11, 112
8, 115680, Control_c, 1, 11, 127
8, 115920, Note_on_c, 1, 77, 44
8, 115920, Note_on_c, 1, 71, 44
8, 116399, Note_on_c, 1, 77, 0
8, 116399, Note_on_c, 1, 71, 0
8, 116400, Note_on_c, 1, 75, 44
8, 116400, Note_on_c, 1, 72, 44
8, 116639, Note_on_c, 1, 75, 0
8, 116639, Note_on_c, 1, 72, 0
8, 116880, Note_on_c, 1, 77, 44
8, 116880, Note_on_c, 1, 71, 44
8, 117359, Note_on_c, 1, 77, 0
8, 117359, Note_on_c, 1, 71, 0
8, 117360, Note_on_c, 1, 75, 44
8, 117360, Note_on_c, 1, 72, 44
8, 117479, Note_on_c, 1, 75, 0
8, 117479, Note_on_c, 1, 72, 0
8, 117960, Note_on_c, 1, 79, 76
8, 117960, Note_on_c, 1, 72, 76
8, 118020, Control_c, 1, 11, 112
8, 118030, Control_c, 1, 11, 110
8, 118040, Control_c, 1, 11, 108
8, 118050, Control_c, 1, 11, 107
8, 118060, Control_c, 1, 11, 105
8, 118070, Control_c, 1, 11, 103
8, 118080, Control_c, 1, 11, 101
8, 118090, Control_c, 1, 11, 100
8, 118100, Control_c, 1, 11, 98
8, 118110, Control_c, 1, 11, 96
8, 118120, Control_c, 1, 11, 94
8, 118130, Control_c, 1, 11, 92
8, 118140, Control_c, 1, 11, 91
8, 118150, Control_c, 1, 11, 89
8, 118160, Control_c, 1, 11, 87
8, 118170, Control_c, 1, 11, 85
8, 118180, Control_c, 1, 11, 84
8, 118190, Control_c, 1, 11, 80
8, 118199, Note_on_c, 1, 79, 0
8, 118200, Note_on_c, 1, 75, 76
8, 118311, Note_on_c, 1, 72, 0
8, 118311, Note_on_c, 1, 75, 0
8, 118320, Note_on_c, 1, 72, 76
8, 118679, Note_on_c, 1, 72, 0
8, 118679, End_track
9, 0, Start_track
9, 0, Title_t, "Clarinet in B-flat"
9, 0, MIDI_port, 0
9, 0, Program_c, 2, 71
9, 0, Control_c, 2, 7, 88
9, 0, Control_c, 2, 10, 75
9, 0, Control_c, 2, 11, 127
9, 4080, Note_on_c, 2, 67, 52
9, 4080, Note_on_c, 2, 63, 52
9, 4551, Note_on_c, 2, 67, 0
9, 4551, Note_on_c, 2, 63, 0
9, 4560, Note_on_c, 2, 67, 52
9, 4560, Note_on_c, 2, 63, 52
9, 5031, Note_on_c, 2, 67, 0
9, 5031, Note_on_c, 2, 63, 0
9, 5040, Note_on_c, 2, 67, 52
9, 5040, Note_on_c, 2, 63, 52
9, 5271, Note_on_c, 2, 67, 0
9, 5271, Note_on_c, 2, 63, 0
9, 5280, Note_on_c, 2, 67, 52
9, 5280, Note_on_c, 2, 72, 52
9, 5391, Note_on_c, 2, 67, 0
9, 5391, Note_on_c, 2, 72, 0
9, 5400, Note_on_c, 2, 67, 52
9, 5400, Note_on_c, 2, 72, 52
9, 5511, Note_on_c, 2, 67, 0
9, 5511, Note_on_c, 2, 72, 0
9, 5516, Control_c, 2, 11, 96
9, 5520, Note_on_c, 2, 67, 68
9, 5520, Control_c, 2, 11, 96
9, 5520, Note_on_c, 2, 72, 68
9, 5533, Control_c, 2, 11, 99
9, 5547, Control_c, 2, 11, 103
9, 5560, Control_c, 2, 11, 106
9, 5573, Control_c, 2, 11, 110
9, 5587, Control_c, 2, 11, 113
9, 5600, Control_c, 2, 11, 117
9, 5613, Control_c, 2, 11, 120
9, 5627, Control_c, 2, 11, 124
9, 5631, Note_on_c, 2, 67, 0
9, 5631, Note_on_c, 2, 72, 0
9, 5640, Note_on_c, 2, 63, 68
9, 5640, Control_c, 2, 11, 127
9, 5640, Note_on_c, 2, 69, 68
9, 5660, Control_c, 2, 11, 124
9, 5680, Control_c, 2, 11, 122
9, 5700, Control_c, 2, 11, 119
9, 5720, Control_c, 2, 11, 117
9, 5740, Control_c, 2, 11, 114
9, 5759, Note_on_c, 2, 63, 0
9, 5759, Note_on_c, 2, 69, 0
9, 5760, Note_on_c, 2, 71, 68
9, 5760, Note_on_c, 2, 62, 68
9, 5760, Control_c, 2, 11, 112
9, 5780, Control_c, 2, 11, 109
9, 5800, Control_c, 2, 11, 106
9, 5820, Control_c, 2, 11, 104
9, 5840, Control_c, 2, 11, 101
9, 5860, Control_c, 2, 11, 99
9, 5879, Note_on_c, 2, 71, 0
9, 5879, Note_on_c, 2, 62, 0
9, 5880, Control_c, 2, 11, 96
9, 6000, Note_on_c, 2, 62, 68
9, 6000, Note_on_c, 2, 68, 68
9, 6239, Note_on_c, 2, 62, 0
9, 6239, Note_on_c, 2, 68, 0
9, 6480, Note_on_c, 2, 68, 68
9, 6480, Note_on_c, 2, 65, 68
9, 6599, Note_on_c, 2, 68, 0
9, 6599, Note_on_c, 2, 65, 0
9, 6720, Control_c, 2, 11, 96
9, 6720, Note_on_c, 2, 68, 68
9, 6740, Control_c, 2, 11, 99
9, 6760, Control_c, 2, 11, 101
9, 6780, Control_c, 2, 11, 104
9, 6800, Control_c, 2, 11, 106
9, 6820, Control_c, 2, 11, 109
9, 6840, Control_c, 2, 11, 112
9, 6860, Control_c, 2, 11, 114
9, 6880, Control_c, 2, 11, 117
9, 6900, Control_c, 2, 11, 119
9, 6920, Control_c, 2, 11, 122
9, 6940, Control_c, 2, 11, 124
9, 6960, Control_c, 2, 11, 127
9, 7071, Note_on_c, 2, 68, 0
9, 7080, Note_on_c, 2, 68, 68
9, 7080, Note_on_c, 2, 65, 68
9, 7080, Control_c, 2, 11, 127
9, 7100, Control_c, 2, 11, 125
9, 7120, Control_c, 2, 11, 124
9, 7140, Control_c, 2, 11, 122
9, 7160, Control_c, 2, 11, 120
9, 7180, Control_c, 2, 11, 118
9, 7199, Note_on_c, 2, 68, 0
9, 7199, Note_on_c, 2, 65, 0
9, 7200, Note_on_c, 2, 63, 68
9, 7200, Note_on_c, 2, 67, 68
9, 7200, Control_c, 2, 11, 117
9, 7220, Control_c, 2, 11, 115
9, 7240, Control_c, 2, 11, 113
9, 7260, Control_c, 2, 11, 112
9, 7280, Control_c, 2, 11, 110
9, 7300, Control_c, 2, 11, 108
9, 7319, Note_on_c, 2, 63, 0
9, 7319, Note_on_c, 2, 67, 0
9, 7320, Note_on_c, 2, 65, 68
9, 7320, Control_c, 2, 11, 106
9, 7320, Note_on_c, 2, 62, 68
9, 7340, Control_c, 2, 11, 105
9, 7360, Control_c, 2, 11, 103
9, 7380, Control_c, 2, 11, 101
9, 7400, Control_c, 2, 11, 99
9, 7420, Control_c, 2, 11, 98
9, 7431, Note_on_c, 2, 65, 0
9, 7431, Note_on_c, 2, 62, 0
9, 7440, Note_on_c, 2, 63, 68
9, 7440, Control_c, 2, 11, 96
9, 7440, Note_on_c, 2, 67, 68
9, 7551, Note_on_c, 2, 63, 0
9, 7551, Note_on_c, 2, 67, 0
9, 7560, Note_on_c, 2, 63, 68
9, 7560, Note_on_c, 2, 68, 68
9, 7641, Note_on_c, 2, 63, 0
9, 7641, Note_on_c, 2, 68, 0
9, 7650, Note_on_c, 2, 63, 68
9, 7650, Note_on_c, 2, 68, 68
9, 7679, Note_on_c, 2, 63, 0
9, 7679, Note_on_c, 2, 68, 0
9, 7680, Note_on_c, 2, 63, 68
9, 7680, Note_on_c, 2, 67, 68
9, 7799, Note_on_c, 2, 63, 0
9, 7799, Note_on_c, 2, 67, 0
9, 17280, Control_c, 2, 11, 80
9, 17520, Note_on_c, 2, 70, 76
9, 17520, Note_on_c, 2, 67, 76
9, 17759, Note_on_c, 2, 70, 0
9, 17759, Note_on_c, 2, 67, 0
9, 17760, Note_on_c, 2, 65, 76
9, 17760, Note_on_c, 2, 68, 76
9, 17879, Note_on_c, 2, 65, 0
9, 17879, Note_on_c, 2, 68, 0
9, 17880, Note_on_c, 2, 63, 76
9, 17880, Note_on_c, 2, 67, 76
9, 17991, Note_on_c, 2, 63, 0
9, 17991, Note_on_c, 2, 67, 0
9, 18000, Note_on_c, 2, 62, 76
9, 18000, Note_on_c, 2, 65, 76
9, 18471, Note_on_c, 2, 62, 0
9, 18471, Note_on_c, 2, 65, 0
9, 18480, Control_c, 2, 11, 80
9, 18480, Note_on_c, 2, 68, 76
9, 18505, Control_c, 2, 11, 82
9, 18530, Control_c, 2, 11, 84
9, 18555, Control_c, 2, 11, 86
9, 18580, Control_c, 2, 11, 88
9, 18605, Control_c, 2, 11, 90
9, 18630, Control_c, 2, 11, 92
9, 18655, Control_c, 2, 11, 94
9, 18680, Control_c, 2, 11, 96
9, 18705, Control_c, 2, 11, 98
9, 18719, Note_on_c, 2, 68, 0
9, 18720, Note_on_c, 2, 67, 76
9, 18730, Control_c, 2, 11, 100
9, 18755, Control_c, 2, 11, 102
9, 18780, Control_c, 2, 11, 104
9, 18805, Control_c, 2, 11, 105
9, 18830, Control_c, 2, 11, 107
9, 18839, Note_on_c, 2, 67, 0
9, 18840, Note_on_c, 2, 68, 76
9, 18840, Note_on_c, 2, 65, 76
9, 18855, Control_c, 2, 11, 109
9, 18880, Control_c, 2, 11, 111
9, 18905, Control_c, 2, 11, 113
9, 18930, Control_c, 2, 11, 115
9, 18951, Note_on_c, 2, 68, 0
9, 18951, Note_on_c, 2, 65, 0
9, 18955, Control_c, 2, 11, 117
9, 18960, Note_on_c, 2, 64, 76
9, 18960, Note_on_c, 2, 70, 76
9, 18980, Control_c, 2, 11, 119
9, 19005, Control_c, 2, 11, 121
9, 19030, Control_c, 2, 11, 123
9, 19055, Control_c, 2, 11, 125
9, 19079, Note_on_c, 2, 64, 0
9, 19079, Note_on_c, 2, 70, 0
9, 19080, Control_c, 2, 11, 127
9, 19170, Note_on_c, 2, 70, 76
9, 19170, Note_on_c, 2, 72, 76
9, 19191, Note_on_c, 2, 70, 0
9, 19191, Note_on_c, 2, 72, 0
9, 19200, Note_on_c, 2, 72, 76
9, 19200, Note_on_c, 2, 70, 76
9, 19439, Note_on_c, 2, 72, 0
9, 19439, Note_on_c, 2, 70, 0
9, 19680, Note_on_c, 2, 72, 52
9, 19680, Note_on_c, 2, 68, 52
9, 19784, Note_on_c, 2, 72, 0
9, 19784, Note_on_c, 2, 68, 0
9, 19800, Note_on_c, 2, 72, 52
9, 19800, Note_on_c, 2, 67, 52
9, 19904, Note_on_c, 2, 72, 0
9, 19904, Note_on_c, 2, 67, 0
9, 19920, Note_on_c, 2, 66, 52
9, 19920, Note_on_c, 2, 72, 52
9, 20009, Note_on_c, 2, 72, 0
9, 20040, Note_on_c, 2, 72, 52
9, 20159, Note_on_c, 2, 72, 0
9, 20160, Note_on_c, 2, 75, 60
9, 20279, Note_on_c, 2, 75, 0
9, 20280, Note_on_c, 2, 72, 52
9, 20399, Note_on_c, 2, 66, 0
9, 20399, Note_on_c, 2, 72, 0
9, 20400, Note_on_c, 2, 71, 52
9, 20400, Note_on_c, 2, 67, 52
9, 20519, Note_on_c, 2, 71, 0
9, 20519, Note_on_c, 2, 67, 0
9, 20640, Control_c, 2, 11, 96
9, 20880, Note_on_c, 2, 79, 68
9, 20880, Note_on_c, 2, 67, 68
9, 21119, Note_on_c, 2, 79, 0
9, 21119, Note_on_c, 2, 67, 0
9, 21120, Note_on_c, 2, 65, 68
9, 21120, Note_on_c, 2, 77, 68
9, 21239, Note_on_c, 2, 65, 0
9, 21239, Note_on_c, 2, 77, 0
9, 21240, Note_on_c, 2, 75, 68
9, 21240, Note_on_c, 2, 63, 68
9, 21351, Note_on_c, 2, 75, 0
9, 21351, Note_on_c, 2, 63, 0
9, 21360, Control_c, 2, 11, 96
9, 21360, Note_on_c, 2, 74, 68
9, 21360, Note_on_c, 2, 62, 68
9, 21380, Control_c, 2, 11, 97
9, 21400, Control_c, 2, 11, 99
9, 21420, Control_c, 2, 11, 100
9, 21440, Control_c, 2, 11, 101
9, 21460, Control_c, 2, 11, 102
9, 21480, Control_c, 2, 11, 104
9, 21500, Control_c, 2, 11, 105
9, 21520, Control_c, 2, 11, 106
9, 21540, Control_c, 2, 11, 108
9, 21560, Control_c, 2, 11, 109
9, 21580, Control_c, 2, 11, 110
9, 21591, Note_on_c, 2, 62, 0
9, 21599, Note_on_c, 2, 74, 0
9, 21600, Note_on_c, 2, 67, 68
9, 21600, Note_on_c, 2, 62, 68
9, 21600, Control_c, 2, 11, 112
9, 21620, Control_c, 2, 11, 113
9, 21640, Control_c, 2, 11, 114
9, 21660, Control_c, 2, 11, 115
9, 21680, Control_c, 2, 11, 117
9, 21700, Control_c, 2, 11, 118
9, 21711, Note_on_c, 2, 62, 0
9, 21720, Note_on_c, 2, 65, 68
9, 21720, Control_c, 2, 11, 119
9, 21740, Control_c, 2, 11, 121
9, 21760, Control_c, 2, 11, 122
9, 21780, Control_c, 2, 11, 123
9, 21800, Control_c, 2, 11, 124
9, 21820, Control_c, 2, 11, 126
9, 21831, Note_on_c, 2, 65, 0
9, 21840, Note_on_c, 2, 63, 68
9, 21840, Control_c, 2, 11, 127
9, 21860, Control_c, 2, 11, 126
9, 21880, Control_c, 2, 11, 124
9, 21900, Control_c, 2, 11, 123
9, 21920, Control_c, 2, 11, 122
9, 21940, Control_c, 2, 11, 121
9, 21960, Control_c, 2, 11, 119
9, 21980, Control_c, 2, 11, 118
9, 22000, Control_c, 2, 11, 117
9, 22020, Control_c, 2, 11, 115
9, 22040, Control_c, 2, 11, 114
9, 22060, Control_c, 2, 11, 113
9, 22079, Note_on_c, 2, 63, 0
9, 22080, Control_c, 2, 11, 112
9, 22080, Note_on_c, 2, 62, 68
9, 22100, Control_c, 2, 11, 110
9, 22120, Control_c, 2, 11, 109
9, 22140, Control_c, 2, 11, 108
9, 22160, Control_c, 2, 11, 106
9, 22180, Control_c, 2, 11, 105
9, 22199, Note_on_c, 2, 67, 0
9, 22199, Note_on_c, 2, 62, 0
9, 22200, Note_on_c, 2, 66, 68
9, 22200, Note_on_c, 2, 60, 68
9, 22200, Control_c, 2, 11, 104
9, 22220, Control_c, 2, 11, 102
9, 22240, Control_c, 2, 11, 101
9, 22260, Control_c, 2, 11, 100
9, 22280, Control_c, 2, 11, 99
9, 22300, Control_c, 2, 11, 97
9, 22311, Note_on_c, 2, 66, 0
9, 22311, Note_on_c, 2, 60, 0
9, 22320, Note_on_c, 2, 67, 68
9, 22320, Control_c, 2, 11, 96
9, 22431, Note_on_c, 2, 67, 0
9, 22440, Note_on_c, 2, 68, 68
9, 22440, Control_c, 2, 11, 96
9, 22487, Control_c, 2, 11, 98
9, 22533, Control_c, 2, 11, 99
9, 22559, Note_on_c, 2, 68, 0
9, 22560, Note_on_c, 2, 67, 68
9, 22580, Control_c, 2, 11, 101
9, 22627, Control_c, 2, 11, 103
9, 22673, Control_c, 2, 11, 105
9, 22679, Note_on_c, 2, 67, 0
9, 22680, Note_on_c, 2, 72, 68
9, 22720, Control_c, 2, 11, 106
9, 22767, Control_c, 2, 11, 108
9, 22799, Note_on_c, 2, 72, 0
9, 22800, Note_on_c, 2, 71, 68
9, 22813, Control_c, 2, 11, 110
9, 22860, Control_c, 2, 11, 112
9, 22907, Control_c, 2, 11, 113
9, 22919, Note_on_c, 2, 71, 0
9, 22920, Note_on_c, 2, 75, 68
9, 22953, Control_c, 2, 11, 115
9, 23000, Control_c, 2, 11, 117
9, 23039, Note_on_c, 2, 75, 0
9, 23040, Note_on_c, 2, 74, 68
9, 23047, Control_c, 2, 11, 118
9, 23093, Control_c, 2, 11, 120
9, 23140, Control_c, 2, 11, 122
9, 23159, Note_on_c, 2, 74, 0
9, 23160, Note_on_c, 2, 72, 68
9, 23160, Note_on_c, 2, 67, 68
9, 23187, Control_c, 2, 11, 124
9, 23233, Control_c, 2, 11, 125
9, 23271, Note_on_c, 2, 72, 0
9, 23271, Note_on_c, 2, 67, 0
9, 23280, Control_c, 2, 11, 127
9, 23280, Note_on_c, 2, 65, 68
9, 23280, Note_on_c, 2, 71, 68
9, 23300, Control_c, 2, 11, 126
9, 23320, Control_c, 2, 11, 124
9, 23340, Control_c, 2, 11, 123
9, 23360, Control_c, 2, 11, 122
9, 23380, Control_c, 2, 11, 121
9, 23400, Control_c, 2, 11, 119
9, 23420, Control_c, 2, 11, 118
9, 23440, Control_c, 2, 11, 117
9, 23460, Control_c, 2, 11, 115
9, 23480, Control_c, 2, 11, 114
9, 23500, Control_c, 2, 11, 113
9, 23519, Note_on_c, 2, 65, 0
9, 23519, Note_on_c, 2, 71, 0
9, 23520, Note_on_c, 2, 63, 68
9, 23520, Note_on_c, 2, 68, 68
9, 23520, Control_c, 2, 11, 112
9, 23540, Control_c, 2, 11, 110
9, 23560, Control_c, 2, 11, 109
9, 23580, Control_c, 2, 11, 108
9, 23600, Control_c, 2, 11, 106
9, 23620, Control_c, 2, 11, 105
9, 23640, Control_c, 2, 11, 104
9, 23660, Control_c, 2, 11, 102
9, 23680, Control_c, 2, 11, 101
9, 23700, Control_c, 2, 11, 100
9, 23720, Control_c, 2, 11, 99
9, 23740, Control_c, 2, 11, 97
9, 23759, Note_on_c, 2, 63, 0
9, 23759, Note_on_c, 2, 68, 0
9, 23760, Control_c, 2, 11, 96
9, 23760, Note_on_c, 2, 67, 68
9, 23760, Note_on_c, 2, 62, 68
9, 23780, Control_c, 2, 11, 97
9, 23800, Control_c, 2, 11, 99
9, 23820, Control_c, 2, 11, 100
9, 23840, Control_c, 2, 11, 101
9, 23860, Control_c, 2, 11, 102
9, 23880, Control_c, 2, 11, 104
9, 23900, Control_c, 2, 11, 105
9, 23920, Control_c, 2, 11, 106
9, 23940, Control_c, 2, 11, 108
9, 23960, Control_c, 2, 11, 109
9, 23980, Control_c, 2, 11, 110
9, 23991, Note_on_c, 2, 67, 0
9, 23991, Note_on_c, 2, 62, 0
9, 24000, Note_on_c, 2, 60, 84
9, 24000, Control_c, 2, 11, 112
9, 24000, Note_on_c, 2, 67, 84
9, 24020, Control_c, 2, 11, 113
9, 24040, Control_c, 2, 11, 114
9, 24060, Control_c, 2, 11, 115
9, 24080, Control_c, 2, 11, 117
9, 24100, Control_c, 2, 11, 118
9, 24120, Control_c, 2, 11, 119
9, 24140, Control_c, 2, 11, 121
9, 24160, Control_c, 2, 11, 122
9, 24180, Control_c, 2, 11, 123
9, 24200, Control_c, 2, 11, 124
9, 24220, Control_c, 2, 11, 127
9, 24231, Note_on_c, 2, 60, 0
9, 24231, Note_on_c, 2, 67, 0
9, 24240, Note_on_c, 2, 65, 52
9, 24240, Note_on_c, 2, 60, 52
9, 24479, Note_on_c, 2, 65, 0
9, 24479, Note_on_c, 2, 60, 0
9, 24720, Note_on_c, 2, 68, 52
9, 24720, Note_on_c, 2, 65, 52
9, 24959, Note_on_c, 2, 68, 0
9, 24959, Note_on_c, 2, 65, 0
9, 25140, Control_c, 2, 11, 80
9, 25200, Note_on_c, 2, 65, 76
9, 25200, Control_c, 2, 11, 80
9, 25200, Note_on_c, 2, 68, 76
9, 25220, Control_c, 2, 11, 82
9, 25240, Control_c, 2, 11, 84
9, 25260, Control_c, 2, 11, 86
9, 25280, Control_c, 2, 11, 88
9, 25300, Control_c, 2, 11, 90
9, 25320, Control_c, 2, 11, 92
9, 25340, Control_c, 2, 11, 94
9, 25360, Control_c, 2, 11, 96
9, 25380, Control_c, 2, 11, 98
9, 25400, Control_c, 2, 11, 100
9, 25420, Control_c, 2, 11, 102
9, 25440, Control_c, 2, 11, 104
9, 25460, Control_c, 2, 11, 105
9, 25480, Control_c, 2, 11, 107
9, 25500, Control_c, 2, 11, 109
9, 25520, Control_c, 2, 11, 111
9, 25540, Control_c, 2, 11, 113
9, 25551, Note_on_c, 2, 65, 0
9, 25551, Note_on_c, 2, 68, 0
9, 25560, Note_on_c, 2, 62, 76
9, 25560, Control_c, 2, 11, 115
9, 25560, Note_on_c, 2, 68, 76
9, 25580, Control_c, 2, 11, 117
9, 25600, Control_c, 2, 11, 119
9, 25620, Control_c, 2, 11, 121
9, 25640, Control_c, 2, 11, 123
9, 25660, Control_c, 2, 11, 125
9, 25671, Note_on_c, 2, 62, 0
9, 25671, Note_on_c, 2, 68, 0
9, 25680, Note_on_c, 2, 67, 76
9, 25680, Control_c, 2, 11, 127
9, 25769, Note_on_c, 2, 67, 0
9, 25800, Note_on_c, 2, 68, 76
9, 25800, Note_on_c, 2, 65, 76
9, 25860, Control_c, 2, 11, 96
9, 25889, Note_on_c, 2, 68, 0
9, 25889, Note_on_c, 2, 65, 0
9, 26040, Note_on_c, 2, 66, 68
9, 26040, Note_on_c, 2, 72, 68
9, 26160, Control_c, 2, 11, 96
9, 26180, Control_c, 2, 11, 98
9, 26200, Control_c, 2, 11, 99
9, 26220, Control_c, 2, 11, 101
9, 26240, Control_c, 2, 11, 103
9, 26260, Control_c, 2, 11, 105
9, 26271, Note_on_c, 2, 66, 0
9, 26271, Note_on_c, 2, 72, 0
9, 26280, Note_on_c, 2, 67, 68
9, 26280, Control_c, 2, 11, 106
9, 26280, Note_on_c, 2, 72, 68
9, 26300, Control_c, 2, 11, 108
9, 26320, Control_c, 2, 11, 110
9, 26340, Control_c, 2, 11, 112
9, 26360, Control_c, 2, 11, 113
9, 26380, Control_c, 2, 11, 115
9, 26399, Note_on_c, 2, 67, 0
9, 26399, Note_on_c, 2, 72, 0
9, 26400, Note_on_c, 2, 71, 68
9, 26400, Control_c, 2, 11, 117
9, 26400, Note_on_c, 2, 65, 68
9, 26420, Control_c, 2, 11, 118
9, 26440, Control_c, 2, 11, 120
9, 26460, Control_c, 2, 11, 122
9, 26480, Control_c, 2, 11, 124
9, 26500, Control_c, 2, 11, 125
9, 26511, Note_on_c, 2, 71, 0
9, 26511, Note_on_c, 2, 65, 0
9, 26520, Note_on_c, 2, 65, 68
9, 26520, Note_on_c, 2, 71, 68
9, 26520, Control_c, 2, 11, 127
9, 26533, Control_c, 2, 11, 124
9, 26547, Control_c, 2, 11, 120
9, 26560, Control_c, 2, 11, 117
9, 26573, Control_c, 2, 11, 113
9, 26587, Control_c, 2, 11, 110
9, 26600, Control_c, 2, 11, 106
9, 26609, Note_on_c, 2, 71, 0
9, 26610, Note_on_c, 2, 74, 68
9, 26613, Control_c, 2, 11, 103
9, 26627, Control_c, 2, 11, 99
9, 26631, Note_on_c, 2, 65, 0
9, 26635, Note_on_c, 2, 74, 0
9, 26640, Note_on_c, 2, 72, 68
9, 26640, Note_on_c, 2, 63, 68
9, 26640, Control_c, 2, 11, 96
9, 26759, Note_on_c, 2, 72, 0
9, 26759, Note_on_c, 2, 63, 0
9, 28320, Control_c, 2, 11, 127
9, 28560, Note_on_c, 2, 68, 76
9, 28560, Note_on_c, 2, 74, 76
9, 28791, Note_on_c, 2, 68, 0
9, 28791, Note_on_c, 2, 74, 0
9, 28800, Note_on_c, 2, 68, 76
9, 28800, Note_on_c, 2, 74, 76
9, 29001, Note_on_c, 2, 68, 0
9, 29001, Note_on_c, 2, 74, 0
9, 29010, Note_on_c, 2, 68, 76
9, 29010, Note_on_c, 2, 74, 76
9, 29035, Note_on_c, 2, 68, 0
9, 29035, Note_on_c, 2, 74, 0
9, 29040, Note_on_c, 2, 75, 84
9, 29040, Note_on_c, 2, 69, 84
9, 29100, Control_c, 2, 11, 112
9, 29118, Control_c, 2, 11, 110
9, 29135, Control_c, 2, 11, 108
9, 29153, Control_c, 2, 11, 106
9, 29170, Control_c, 2, 11, 104
9, 29188, Control_c, 2, 11, 102
9, 29205, Control_c, 2, 11, 100
9, 29223, Control_c, 2, 11, 98
9, 29240, Control_c, 2, 11, 96
9, 29258, Control_c, 2, 11, 94
9, 29275, Control_c, 2, 11, 92
9, 29293, Control_c, 2, 11, 90
9, 29310, Control_c, 2, 11, 88
9, 29328, Control_c, 2, 11, 86
9, 29345, Control_c, 2, 11, 84
9, 29363, Control_c, 2, 11, 82
9, 29380, Control_c, 2, 11, 80
9, 29398, Control_c, 2, 11, 78
9, 29399, Note_on_c, 2, 75, 0
9, 29400, Note_on_c, 2, 74, 76
9, 29415, Control_c, 2, 11, 76
9, 29433, Control_c, 2, 11, 74
9, 29450, Control_c, 2, 11, 72
9, 29459, Note_on_c, 2, 74, 0
9, 29460, Note_on_c, 2, 72, 76
9, 29468, Control_c, 2, 11, 70
9, 29485, Control_c, 2, 11, 68
9, 29503, Control_c, 2, 11, 66
9, 29511, Note_on_c, 2, 69, 0
9, 29519, Note_on_c, 2, 72, 0
9, 29520, Note_on_c, 2, 72, 76
9, 29520, Control_c, 2, 11, 64
9, 29520, Note_on_c, 2, 63, 76
9, 29759, Note_on_c, 2, 72, 0
9, 29759, Note_on_c, 2, 63, 0
9, 29760, Note_on_c, 2, 65, 76
9, 29760, Note_on_c, 2, 71, 76
9, 29991, Note_on_c, 2, 65, 0
9, 29991, Note_on_c, 2, 71, 0
9, 30000, Note_on_c, 2, 63, 76
9, 30000, Note_on_c, 2, 72, 76
9, 30119, Note_on_c, 2, 63, 0
9, 30119, Note_on_c, 2, 72, 0
9, 30360, Control_c, 2, 11, 127
9, 30480, Note_on_c, 2, 75, 52
9, 30480, Note_on_c, 2, 67, 52
9, 30719, Note_on_c, 2, 75, 0
9, 30719, Note_on_c, 2, 67, 0
9, 30720, Note_on_c, 2, 65, 52
9, 30720, Note_on_c, 2, 74, 52
9, 30929, Note_on_c, 2, 65, 0
9, 30929, Note_on_c, 2, 74, 0
9, 30930, Note_on_c, 2, 72, 52
9, 30930, Note_on_c, 2, 63, 52
9, 30955, Note_on_c, 2, 72, 0
9, 30955, Note_on_c, 2, 63, 0
9, 30960, Note_on_c, 2, 63, 52
9, 30960, Note_on_c, 2, 72, 52
9, 31079, Note_on_c, 2, 63, 0
9, 31079, Note_on_c, 2, 72, 0
9, 31320, Note_on_c, 2, 63, 68
9, 31320, Note_on_c, 2, 75, 68
9, 31439, Note_on_c, 2, 63, 0
9, 31439, Note_on_c, 2, 75, 0
9, 31440, Note_on_c, 2, 60, 76
9, 31440, Note_on_c, 2, 72, 76
9, 31551, Note_on_c, 2, 60, 0
9, 31551, Note_on_c, 2, 72, 0
9, 31560, Note_on_c, 2, 68, 76
9, 31641, Note_on_c, 2, 68, 0
9, 31650, Note_on_c, 2, 65, 76
9, 31679, Note_on_c, 2, 65, 0
9, 31680, Note_on_c, 2, 62, 76
9, 31769, Note_on_c, 2, 62, 0
9, 31800, Note_on_c, 2, 67, 76
9, 31889, Note_on_c, 2, 67, 0
9, 31920, Note_on_c, 2, 60, 52
9, 32009, Note_on_c, 2, 60, 0
9, 32160, Note_on_c, 2, 67, 52
9, 32160, Note_on_c, 2, 63, 52
9, 32249, Note_on_c, 2, 67, 0
9, 32249, Note_on_c, 2, 63, 0
9, 32400, Note_on_c, 2, 63, 52
9, 32400, Note_on_c, 2, 67, 52
9, 32489, Note_on_c, 2, 63, 0
9, 32489, Note_on_c, 2, 67, 0
9, 46272, Control_c, 2, 11, 116
9, 46320, Control_c, 2, 11, 117
9, 46320, Note_on_c, 2, 71, 84
9, 46320, Note_on_c, 2, 65, 84
9, 46368, Control_c, 2, 11, 118
9, 46416, Control_c, 2, 11, 119
9, 46464, Control_c, 2, 11, 120
9, 46512, Control_c, 2, 11, 121
9, 46560, Control_c, 2, 11, 122
9, 46608, Control_c, 2, 11, 123
9, 46656, Control_c, 2, 11, 124
9, 46704, Control_c, 2, 11, 125
9, 46752, Control_c, 2, 11, 127
9, 46791, Note_on_c, 2, 71, 0
9, 46791, Note_on_c, 2, 65, 0
9, 46800, Note_on_c, 2, 72, 84
9, 46800, Note_on_c, 2, 64, 84
9, 47151, Note_on_c, 2, 72, 0
9, 47151, Note_on_c, 2, 64, 0
9, 47160, Note_on_c, 2, 76, 92
9, 47160, Note_on_c, 2, 67, 92
9, 47249, Note_on_c, 2, 76, 0
9, 47249, Note_on_c, 2, 67, 0
9, 47280, Note_on_c, 2, 72, 84
9, 47280, Note_on_c, 2, 64, 84
9, 47631, Note_on_c, 2, 72, 0
9, 47631, Note_on_c, 2, 64, 0
9, 47640, Note_on_c, 2, 76, 92
9, 47640, Note_on_c, 2, 67, 92
9, 47729, Note_on_c, 2, 76, 0
9, 47729, Note_on_c, 2, 67, 0
9, 47760, Note_on_c, 2, 64, 84
9, 47760, Note_on_c, 2, 72, 84
9, 47849, Note_on_c, 2, 64, 0
9, 47849, Note_on_c, 2, 72, 0
9, 47880, Note_on_c, 2, 67, 92
9, 47880, Note_on_c, 2, 76, 92
9, 47969, Note_on_c, 2, 67, 0
9, 47969, Note_on_c, 2, 76, 0
9, 48000, Note_on_c, 2, 72, 84
9, 48000, Note_on_c, 2, 64, 84
9, 48089, Note_on_c, 2, 72, 0
9, 48089, Note_on_c, 2, 64, 0
9, 48120, Note_on_c, 2, 67, 92
9, 48120, Note_on_c, 2, 76, 92
9, 48209, Note_on_c, 2, 67, 0
9, 48209, Note_on_c, 2, 76, 0
9, 48240, Note_on_c, 2, 64, 84
9, 48240, Note_on_c, 2, 72, 84
9, 48329, Note_on_c, 2, 64, 0
9, 48329, Note_on_c, 2, 72, 0
9, 57840, Note_on_c, 2, 77, 76
9, 58311, Note_on_c, 2, 77, 0
9, 58320, Note_on_c, 2, 73, 84
9, 58784, Note_on_c, 2, 73, 0
9, 58800, Note_on_c, 2, 76, 84
9, 59144, Note_on_c, 2, 76, 0
9, 59160, Note_on_c, 2, 76, 76
9, 59174, Note_on_c, 2, 76, 0
9, 59175, Note_on_c, 2, 77, 76
9, 59189, Note_on_c, 2, 77, 0
9, 59190, Note_on_c, 2, 76, 76
9, 59204, Note_on_c, 2, 76, 0
9, 59205, Note_on_c, 2, 77, 76
9, 59219, Note_on_c, 2, 77, 0
9, 59220, Note_on_c, 2, 76, 76
9, 59234, Note_on_c, 2, 76, 0
9, 59235, Note_on_c, 2, 77, 76
9, 59249, Note_on_c, 2, 77, 0
9, 59250, Note_on_c, 2, 74, 76
9, 59264, Note_on_c, 2, 74, 0
9, 59265, Note_on_c, 2, 76, 76
9, 59279, Note_on_c, 2, 76, 0
9, 59280, Note_on_c, 2, 77, 76
9, 59399, Note_on_c, 2, 77, 0
9, 62160, Note_on_c, 2, 65, 84
9, 62399, Note_on_c, 2, 65, 0
9, 62400, Note_on_c, 2, 67, 84
9, 62519, Note_on_c, 2, 67, 0
9, 62520, Note_on_c, 2, 68, 84
9, 62631, Note_on_c, 2, 68, 0
9, 62640, Note_on_c, 2, 70, 92
9, 62984, Note_on_c, 2, 70, 0
9, 63000, Note_on_c, 2, 68, 84
9, 63111, Note_on_c, 2, 68, 0
9, 63120, Note_on_c, 2, 67, 84
9, 63239, Note_on_c, 2, 67, 0
9, 63240, Note_on_c, 2, 73, 84
9, 63359, Note_on_c, 2, 73, 0
9, 63360, Note_on_c, 2, 72, 84
9, 63479, Note_on_c, 2, 72, 0
9, 63480, Note_on_c, 2, 70, 84
9, 63591, Note_on_c, 2, 70, 0
9, 63600, Note_on_c, 2, 68, 84
9, 63720, Note_on_c, 2, 67, 84
9, 63839, Note_on_c, 2, 67, 0
9, 63840, Note_on_c, 2, 65, 84
9, 63959, Note_on_c, 2, 65, 0
9, 63960, Note_on_c, 2, 63, 84
9, 64071, Note_on_c, 2, 63, 0
9, 64080, Note_on_c, 2, 62, 84
9, 64199, Note_on_c, 2, 68, 0
9, 64200, Note_on_c, 2, 72, 84
9, 64319, Note_on_c, 2, 62, 0
9, 64319, Note_on_c, 2, 72, 0
9, 64320, Note_on_c, 2, 63, 84
9, 64320, Note_on_c, 2, 70, 84
9, 64439, Note_on_c, 2, 63, 0
9, 64439, Note_on_c, 2, 70, 0
9, 64440, Note_on_c, 2, 65, 84
9, 64440, Note_on_c, 2, 68, 84
9, 64551, Note_on_c, 2, 65, 0
9, 64551, Note_on_c, 2, 68, 0
9, 64560, Note_on_c, 2, 63, 84
9, 64799, Note_on_c, 2, 63, 0
9, 64800, Note_on_c, 2, 65, 84
9, 64919, Note_on_c, 2, 65, 0
9, 64920, Note_on_c, 2, 67, 84
9, 65031, Note_on_c, 2, 67, 0
9, 65040, Note_on_c, 2, 68, 92
9, 65399, Note_on_c, 2, 68, 0
9, 65400, Note_on_c, 2, 67, 84
9, 65511, Note_on_c, 2, 67, 0
9, 65520, Note_on_c, 2, 65, 84
9, 65759, Note_on_c, 2, 65, 0
9, 65760, Note_on_c, 2, 67, 84
9, 65879, Note_on_c, 2, 67, 0
9, 65880, Note_on_c, 2, 68, 84
9, 65991, Note_on_c, 2, 68, 0
9, 66000, Note_on_c, 2, 70, 92
9, 66359, Note_on_c, 2, 70, 0
9, 66360, Note_on_c, 2, 68, 84
9, 66471, Note_on_c, 2, 68, 0
9, 66480, Note_on_c, 2, 67, 84
9, 66719, Note_on_c, 2, 67, 0
9, 66720, Note_on_c, 2, 69, 84
9, 66839, Note_on_c, 2, 69, 0
9, 66840, Note_on_c, 2, 71, 84
9, 66951, Note_on_c, 2, 71, 0
9, 66960, Note_on_c, 2, 60, 84
9, 66960, Note_on_c, 2, 72, 84
9, 67491, Note_on_c, 2, 60, 0
9, 67491, Note_on_c, 2, 72, 0
9, 67500, Note_on_c, 2, 68, 84
9, 67500, Note_on_c, 2, 65, 84
9, 67544, Note_on_c, 2, 68, 0
9, 67544, Note_on_c, 2, 65, 0
9, 67560, Note_on_c, 2, 67, 84
9, 67560, Note_on_c, 2, 70, 84
9, 67604, Note_on_c, 2, 67, 0
9, 67604, Note_on_c, 2, 70, 0
9, 67620, Note_on_c, 2, 68, 84
9, 67620, Note_on_c, 2, 72, 84
9, 67664, Note_on_c, 2, 68, 0
9, 67664, Note_on_c, 2, 72, 0
9, 67680, Note_on_c, 2, 70, 84
9, 67680, Note_on_c, 2, 74, 84
9, 67724, Note_on_c, 2, 70, 0
9, 67724, Note_on_c, 2, 74, 0
9, 67740, Note_on_c, 2, 72, 84
9, 67740, Note_on_c, 2, 75, 84
9, 67784, Note_on_c, 2, 72, 0
9, 67784, Note_on_c, 2, 75, 0
9, 67800, Note_on_c, 2, 74, 84
9, 67800, Note_on_c, 2, 77, 84
9, 67844, Note_on_c, 2, 74, 0
9, 67844, Note_on_c, 2, 77, 0
9, 67860, Note_on_c, 2, 75, 84
9, 67860, Note_on_c, 2, 79, 84
9, 67904, Note_on_c, 2, 75, 0
9, 67904, Note_on_c, 2, 79, 0
9, 67920, Note_on_c, 2, 80, 84
9, 67920, Note_on_c, 2, 77, 84
9, 67979, Note_on_c, 2, 80, 0
9, 67979, Note_on_c, 2, 77, 0
9, 67980, Note_on_c, 2, 68, 84
9, 68024, Note_on_c, 2, 68, 0
9, 68040, Note_on_c, 2, 68, 84
9, 68084, Note_on_c, 2, 68, 0
9, 68100, Note_on_c, 2, 67, 84
9, 68144, Note_on_c, 2, 67, 0
9, 68160, Note_on_c, 2, 65, 84
9, 68204, Note_on_c, 2, 65, 0
9, 68220, Note_on_c, 2, 75, 84
9, 68264, Note_on_c, 2, 75, 0
9, 68280, Note_on_c, 2, 74, 84
9, 68324, Note_on_c, 2, 74, 0
9, 68340, Note_on_c, 2, 72, 84
9, 68384, Note_on_c, 2, 72, 0
9, 68400, Note_on_c, 2, 71, 84
9, 68504, Note_on_c, 2, 71, 0
9, 68520, Note_on_c, 2, 69, 84
9, 68564, Note_on_c, 2, 69, 0
9, 68580, Note_on_c, 2, 67, 84
9, 68580, Note_on_c, 2, 71, 84
9, 68624, Note_on_c, 2, 67, 0
9, 68624, Note_on_c, 2, 71, 0
9, 68640, Note_on_c, 2, 69, 84
9, 68640, Note_on_c, 2, 72, 84
9, 68684, Note_on_c, 2, 69, 0
9, 68684, Note_on_c, 2, 72, 0
9, 68700, Note_on_c, 2, 71, 84
9, 68700, Note_on_c, 2, 74, 84
9, 68744, Note_on_c, 2, 71, 0
9, 68744, Note_on_c, 2, 74, 0
9, 68760, Note_on_c, 2, 72, 84
9, 68760, Note_on_c, 2, 75, 84
9, 68804, Note_on_c, 2, 72, 0
9, 68804, Note_on_c, 2, 75, 0
9, 68820, Note_on_c, 2, 74, 84
9, 68820, Note_on_c, 2, 77, 84
9, 68864, Note_on_c, 2, 74, 0
9, 68864, Note_on_c, 2, 77, 0
9, 69720, Note_on_c, 2, 74, 84
9, 69951, Note_on_c, 2, 74, 0
9, 69960, Note_on_c, 2, 72, 84
9, 70019, Note_on_c, 2, 72, 0
9, 70020, Note_on_c, 2, 70, 84
9, 70079, Note_on_c, 2, 70, 0
9, 70080, Note_on_c, 2, 68, 92
9, 70199, Note_on_c, 2, 68, 0
9, 70200, Note_on_c, 2, 72, 84
9, 70431, Note_on_c, 2, 72, 0
9, 70440, Note_on_c, 2, 70, 84
9, 70499, Note_on_c, 2, 70, 0
9, 70500, Note_on_c, 2, 69, 84
9, 70559, Note_on_c, 2, 69, 0
9, 70560, Note_on_c, 2, 67, 92
9, 70679, Note_on_c, 2, 67, 0
9, 70680, Note_on_c, 2, 70, 84
9, 70911, Note_on_c, 2, 70, 0
9, 70920, Note_on_c, 2, 69, 84
9, 70979, Note_on_c, 2, 69, 0
9, 70980, Note_on_c, 2, 67, 84
9, 71039, Note_on_c, 2, 67, 0
9, 71040, Note_on_c, 2, 66, 92
9, 71159, Note_on_c, 2, 66, 0
9, 71160, Note_on_c, 2, 69, 84
9, 71391, Note_on_c, 2, 69, 0
9, 71400, Note_on_c, 2, 67, 84
9, 71459, Note_on_c, 2, 67, 0
9, 71460, Note_on_c, 2, 69, 84
9, 71519, Note_on_c, 2, 69, 0
9, 71520, Note_on_c, 2, 70, 84
9, 71631, Note_on_c, 2, 70, 0
9, 71640, Note_on_c, 2, 67, 84
9, 71640, Note_on_c, 2, 70, 84
9, 71751, Note_on_c, 2, 67, 0
9, 71751, Note_on_c, 2, 70, 0
9, 71760, Note_on_c, 2, 67, 84
9, 71760, Note_on_c, 2, 70, 84
9, 71849, Note_on_c, 2, 67, 0
9, 71849, Note_on_c, 2, 70, 0
9, 73440, Note_on_c, 2, 66, 52
9, 73440, Note_on_c, 2, 72, 52
9, 73679, Note_on_c, 2, 66, 0
9, 73679, Note_on_c, 2, 72, 0
9, 73680, Note_on_c, 2, 67, 52
9, 73680, Note_on_c, 2, 70, 52
9, 73799, Note_on_c, 2, 67, 0
9, 73799, Note_on_c, 2, 70, 0
9, 79440, Note_on_c, 2, 71, 84
9, 79440, Note_on_c, 2, 68, 84
9, 80031, Note_on_c, 2, 71, 0
9, 80031, Note_on_c, 2, 68, 0
9, 80040, Note_on_c, 2, 68, 84
9, 80040, Note_on_c, 2, 71, 84
9, 80151, Note_on_c, 2, 68, 0
9, 80151, Note_on_c, 2, 71, 0
9, 80160, Note_on_c, 2, 68, 84
9, 80160, Note_on_c, 2, 71, 84
9, 80271, Note_on_c, 2, 68, 0
9, 80271, Note_on_c, 2, 71, 0
9, 80280, Note_on_c, 2, 68, 84
9, 80280, Note_on_c, 2, 71, 84
9, 80391, Note_on_c, 2, 68, 0
9, 80391, Note_on_c, 2, 71, 0
9, 80400, Note_on_c, 2, 68, 84
9, 80400, Note_on_c, 2, 71, 84
9, 80519, Note_on_c, 2, 68, 0
9, 80519, Note_on_c, 2, 71, 0
9, 82800, Note_on_c, 2, 60, 52
9, 83011, Note_on_c, 2, 60, 0
9, 83020, Note_on_c, 2, 62, 52
9, 83039, Note_on_c, 2, 62, 0
9, 83040, Note_on_c, 2, 60, 52
9, 83129, Note_on_c, 2, 60, 0
9, 83130, Note_on_c, 2, 59, 52
9, 83159, Note_on_c, 2, 59, 0
9, 83160, Note_on_c, 2, 60, 52
9, 83249, Note_on_c, 2, 60, 0
9, 83250, Note_on_c, 2, 62, 52
9, 83275, Note_on_c, 2, 62, 0
9, 83280, Note_on_c, 2, 63, 52
9, 83519, Note_on_c, 2, 63, 0
9, 83520, Note_on_c, 2, 60, 52
9, 83639, Note_on_c, 2, 60, 0
9, 83760, Note_on_c, 2, 67, 52
9, 83991, Note_on_c, 2, 67, 0
9, 84000, Note_on_c, 2, 65, 52
9, 84029, Note_on_c, 2, 65, 0
9, 84030, Note_on_c, 2, 63, 52
9, 84111, Note_on_c, 2, 63, 0
9, 84120, Note_on_c, 2, 62, 52
9, 84149, Note_on_c, 2, 62, 0
9, 84150, Note_on_c, 2, 60, 52
9, 84231, Note_on_c, 2, 60, 0
9, 84240, Note_on_c, 2, 63, 52
9, 84479, Note_on_c, 2, 63, 0
9, 84480, Note_on_c, 2, 62, 52
9, 84599, Note_on_c, 2, 62, 0
9, 84690, Control_c, 2, 11, 96
9, 84720, Note_on_c, 2, 62, 68
9, 84951, Note_on_c, 2, 62, 0
9, 84960, Note_on_c, 2, 62, 68
9, 85049, Note_on_c, 2, 62, 0
9, 85050, Note_on_c, 2, 63, 68
9, 85079, Note_on_c, 2, 63, 0
9, 85080, Note_on_c, 2, 65, 68
9, 85169, Note_on_c, 2, 65, 0
9, 85170, Note_on_c, 2, 67, 68
9, 85195, Note_on_c, 2, 67, 0
9, 85200, Note_on_c, 2, 68, 68
9, 85440, Control_c, 2, 11, 96
9, 85440, Note_on_c, 2, 65, 68
9, 85460, Control_c, 2, 11, 99
9, 85480, Control_c, 2, 11, 101
9, 85500, Control_c, 2, 11, 104
9, 85520, Control_c, 2, 11, 106
9, 85540, Control_c, 2, 11, 109
9, 85560, Control_c, 2, 11, 112
9, 85580, Control_c, 2, 11, 114
9, 85600, Control_c, 2, 11, 117
9, 85620, Control_c, 2, 11, 119
9, 85640, Control_c, 2, 11, 122
9, 85660, Control_c, 2, 11, 124
9, 85680, Control_c, 2, 11, 127
9, 85700, Control_c, 2, 11, 126
9, 85720, Control_c, 2, 11, 124
9, 85740, Control_c, 2, 11, 123
9, 85760, Control_c, 2, 11, 122
9, 85780, Control_c, 2, 11, 121
9, 85791, Note_on_c, 2, 68, 0
9, 85791, Note_on_c, 2, 65, 0
9, 85800, Note_on_c, 2, 65, 68
9, 85800, Control_c, 2, 11, 119
9, 85800, Note_on_c, 2, 68, 68
9, 85820, Control_c, 2, 11, 118
9, 85840, Control_c, 2, 11, 117
9, 85860, Control_c, 2, 11, 115
9, 85880, Control_c, 2, 11, 114
9, 85900, Control_c, 2, 11, 113
9, 85919, Note_on_c, 2, 65, 0
9, 85919, Note_on_c, 2, 68, 0
9, 85920, Note_on_c, 2, 67, 68
9, 85920, Note_on_c, 2, 63, 68
9, 85920, Control_c, 2, 11, 112
9, 85940, Control_c, 2, 11, 110
9, 85960, Control_c, 2, 11, 109
9, 85980, Control_c, 2, 11, 108
9, 86000, Control_c, 2, 11, 106
9, 86020, Control_c, 2, 11, 105
9, 86039, Note_on_c, 2, 67, 0
9, 86039, Note_on_c, 2, 63, 0
9, 86040, Note_on_c, 2, 62, 68
9, 86040, Control_c, 2, 11, 104
9, 86040, Note_on_c, 2, 65, 68
9, 86060, Control_c, 2, 11, 102
9, 86080, Control_c, 2, 11, 101
9, 86100, Control_c, 2, 11, 100
9, 86120, Control_c, 2, 11, 99
9, 86140, Control_c, 2, 11, 96
9, 86151, Note_on_c, 2, 62, 0
9, 86151, Note_on_c, 2, 65, 0
9, 86160, Note_on_c, 2, 63, 68
9, 86160, Note_on_c, 2, 67, 68
9, 86271, Note_on_c, 2, 63, 0
9, 86271, Note_on_c, 2, 67, 0
9, 86280, Note_on_c, 2, 63, 68
9, 86280, Note_on_c, 2, 68, 68
9, 86361, Note_on_c, 2, 63, 0
9, 86361, Note_on_c, 2, 68, 0
9, 86370, Note_on_c, 2, 68, 68
9, 86370, Note_on_c, 2, 63, 68
9, 86395, Note_on_c, 2, 68, 0
9, 86395, Note_on_c, 2, 63, 0
9, 86400, Note_on_c, 2, 67, 68
9, 86400, Note_on_c, 2, 63, 68
9, 86519, Note_on_c, 2, 67, 0
9, 86519, Note_on_c, 2, 63, 0
9, 88560, Note_on_c, 2, 70, 68
9, 88560, Note_on_c, 2, 72, 68
9, 88799, Note_on_c, 2, 70, 0
9, 88799, Note_on_c, 2, 72, 0
9, 88800, Note_on_c, 2, 68, 68
9, 88800, Note_on_c, 2, 72, 68
9, 88919, Note_on_c, 2, 68, 0
9, 88919, Note_on_c, 2, 72, 0
9, 88920, Note_on_c, 2, 67, 68
9, 88920, Note_on_c, 2, 72, 68
9, 89031, Note_on_c, 2, 67, 0
9, 89040, Control_c, 2, 11, 96
9, 89040, Note_on_c, 2, 66, 68
9, 89060, Control_c, 2, 11, 99
9, 89080, Control_c, 2, 11, 101
9, 89100, Control_c, 2, 11, 104
9, 89120, Control_c, 2, 11, 106
9, 89140, Control_c, 2, 11, 109
9, 89160, Control_c, 2, 11, 112
9, 89180, Control_c, 2, 11, 114
9, 89200, Control_c, 2, 11, 117
9, 89220, Control_c, 2, 11, 119
9, 89240, Control_c, 2, 11, 122
9, 89260, Control_c, 2, 11, 127
9, 89271, Note_on_c, 2, 72, 0
9, 89271, Note_on_c, 2, 66, 0
9, 89280, Note_on_c, 2, 72, 76
9, 89280, Note_on_c, 2, 60, 76
9, 89340, Control_c, 2, 11, 112
9, 89355, Control_c, 2, 11, 109
9, 89370, Control_c, 2, 11, 107
9, 89385, Control_c, 2, 11, 104
9, 89400, Control_c, 2, 11, 101
9, 89415, Control_c, 2, 11, 99
9, 89430, Control_c, 2, 11, 96
9, 89445, Control_c, 2, 11, 93
9, 89459, Note_on_c, 2, 72, 0
9, 89460, Note_on_c, 2, 66, 76
9, 89460, Control_c, 2, 11, 91
9, 89475, Control_c, 2, 11, 88
9, 89490, Control_c, 2, 11, 85
9, 89505, Control_c, 2, 11, 80
9, 89511, Note_on_c, 2, 60, 0
9, 89511, Note_on_c, 2, 66, 0
9, 89520, Note_on_c, 2, 67, 76
9, 89520, Note_on_c, 2, 59, 76
9, 89639, Note_on_c, 2, 67, 0
9, 89639, Note_on_c, 2, 59, 0
9, 89760, Control_c, 2, 11, 96
9, 90000, Note_on_c, 2, 67, 68
9, 90239, Note_on_c, 2, 67, 0
9, 90240, Note_on_c, 2, 65, 68
9, 90359, Note_on_c, 2, 65, 0
9, 90360, Note_on_c, 2, 63, 68
9, 90471, Note_on_c, 2, 63, 0
9, 90480, Control_c, 2, 11, 96
9, 90480, Note_on_c, 2, 62, 68
9, 90500, Control_c, 2, 11, 97
9, 90520, Control_c, 2, 11, 99
9, 90540, Control_c, 2, 11, 100
9, 90560, Control_c, 2, 11, 101
9, 90580, Control_c, 2, 11, 102
9, 90600, Control_c, 2, 11, 104
9, 90620, Control_c, 2, 11, 105
9, 90640, Control_c, 2, 11, 106
9, 90660, Control_c, 2, 11, 108
9, 90680, Control_c, 2, 11, 109
9, 90700, Control_c, 2, 11, 110
9, 90719, Note_on_c, 2, 62, 0
9, 90720, Control_c, 2, 11, 112
9, 90720, Note_on_c, 2, 67, 68
9, 90740, Control_c, 2, 11, 113
9, 90760, Control_c, 2, 11, 114
9, 90780, Control_c, 2, 11, 115
9, 90800, Control_c, 2, 11, 117
9, 90820, Control_c, 2, 11, 118
9, 90831, Note_on_c, 2, 67, 0
9, 90840, Note_on_c, 2, 79, 68
9, 90840, Control_c, 2, 11, 119
9, 90840, Note_on_c, 2, 67, 68
9, 90860, Control_c, 2, 11, 121
9, 90880, Control_c, 2, 11, 122
9, 90900, Control_c, 2, 11, 123
9, 90920, Control_c, 2, 11, 124
9, 90940, Control_c, 2, 11, 126
9, 90960, Control_c, 2, 11, 127
9, 90980, Control_c, 2, 11, 126
9, 91000, Control_c, 2, 11, 124
9, 91020, Control_c, 2, 11, 123
9, 91040, Control_c, 2, 11, 122
9, 91060, Control_c, 2, 11, 121
9, 91080, Control_c, 2, 11, 119
9, 91100, Control_c, 2, 11, 118
9, 91120, Control_c, 2, 11, 117
9, 91140, Control_c, 2, 11, 115
9, 91160, Control_c, 2, 11, 114
9, 91180, Control_c, 2, 11, 113
9, 91200, Control_c, 2, 11, 112
9, 91220, Control_c, 2, 11, 110
9, 91240, Control_c, 2, 11, 109
9, 91260, Control_c, 2, 11, 108
9, 91280, Control_c, 2, 11, 106
9, 91300, Control_c, 2, 11, 105
9, 91319, Note_on_c, 2, 79, 0
9, 91319, Note_on_c, 2, 67, 0
9, 91320, Note_on_c, 2, 78, 68
9, 91320, Control_c, 2, 11, 104
9, 91320, Note_on_c, 2, 66, 68
9, 91340, Control_c, 2, 11, 102
9, 91360, Control_c, 2, 11, 101
9, 91380, Control_c, 2, 11, 100
9, 91400, Control_c, 2, 11, 99
9, 91420, Control_c, 2, 11, 96
9, 91431, Note_on_c, 2, 78, 0
9, 91431, Note_on_c, 2, 66, 0
9, 91440, Note_on_c, 2, 67, 68
9, 91440, Note_on_c, 2, 79, 68
9, 91559, Note_on_c, 2, 67, 0
9, 91559, Note_on_c, 2, 79, 0
9, 92880, Control_c, 2, 11, 112
9, 92912, Control_c, 2, 11, 113
9, 92940, Note_on_c, 2, 69, 68
9, 92944, Control_c, 2, 11, 114
9, 92976, Control_c, 2, 11, 115
9, 92991, Note_on_c, 2, 69, 0
9, 93000, Note_on_c, 2, 70, 68
9, 93008, Control_c, 2, 11, 116
9, 93040, Control_c, 2, 11, 117
9, 93051, Note_on_c, 2, 70, 0
9, 93060, Note_on_c, 2, 71, 68
9, 93072, Control_c, 2, 11, 118
9, 93104, Control_c, 2, 11, 119
9, 93111, Note_on_c, 2, 71, 0
9, 93120, Note_on_c, 2, 72, 68
9, 93136, Control_c, 2, 11, 120
9, 93168, Control_c, 2, 11, 121
9, 93171, Note_on_c, 2, 72, 0
9, 93180, Note_on_c, 2, 73, 68
9, 93200, Control_c, 2, 11, 122
9, 93231, Note_on_c, 2, 73, 0
9, 93232, Control_c, 2, 11, 123
9, 93240, Note_on_c, 2, 60, 68
9, 93240, Note_on_c, 2, 74, 68
9, 93264, Control_c, 2, 11, 124
9, 93291, Note_on_c, 2, 74, 0
9, 93296, Control_c, 2, 11, 125
9, 93300, Note_on_c, 2, 76, 68
9, 93321, Note_on_c, 2, 60, 0
9, 93328, Control_c, 2, 11, 127
9, 93330, Note_on_c, 2, 60, 68
9, 93344, Note_on_c, 2, 76, 0
9, 93355, Note_on_c, 2, 60, 0
9, 93360, Note_on_c, 2, 60, 52
9, 93360, Note_on_c, 2, 77, 52
9, 93479, Note_on_c, 2, 77, 0
9, 93571, Note_on_c, 2, 60, 0
9, 93580, Note_on_c, 2, 67, 52
9, 93599, Note_on_c, 2, 67, 0
9, 93600, Note_on_c, 2, 65, 52
9, 93689, Note_on_c, 2, 65, 0
9, 93690, Note_on_c, 2, 64, 52
9, 93719, Note_on_c, 2, 64, 0
9, 93720, Note_on_c, 2, 65, 52
9, 93809, Note_on_c, 2, 65, 0
9, 93810, Note_on_c, 2, 67, 52
9, 93835, Note_on_c, 2, 67, 0
9, 93840, Note_on_c, 2, 68, 52
9, 94079, Note_on_c, 2, 68, 0
9, 94080, Note_on_c, 2, 65, 52
9, 94199, Note_on_c, 2, 65, 0
9, 94260, Control_c, 2, 11, 80
9, 94320, Note_on_c, 2, 71, 76
9, 94320, Control_c, 2, 11, 80
9, 94320, Note_on_c, 2, 65, 76
9, 94340, Control_c, 2, 11, 82
9, 94360, Control_c, 2, 11, 84
9, 94380, Control_c, 2, 11, 86
9, 94400, Control_c, 2, 11, 88
9, 94420, Control_c, 2, 11, 90
9, 94440, Control_c, 2, 11, 92
9, 94460, Control_c, 2, 11, 94
9, 94480, Control_c, 2, 11, 96
9, 94500, Control_c, 2, 11, 98
9, 94520, Control_c, 2, 11, 100
9, 94540, Control_c, 2, 11, 102
9, 94551, Note_on_c, 2, 65, 0
9, 94560, Note_on_c, 2, 63, 76
9, 94560, Control_c, 2, 11, 104
9, 94580, Control_c, 2, 11, 105
9, 94589, Note_on_c, 2, 63, 0
9, 94590, Note_on_c, 2, 62, 76
9, 94600, Control_c, 2, 11, 107
9, 94620, Control_c, 2, 11, 109
9, 94640, Control_c, 2, 11, 111
9, 94660, Control_c, 2, 11, 113
9, 94671, Note_on_c, 2, 71, 0
9, 94671, Note_on_c, 2, 62, 0
9, 94680, Control_c, 2, 11, 115
9, 94680, Note_on_c, 2, 80, 76
9, 94680, Note_on_c, 2, 60, 76
9, 94700, Control_c, 2, 11, 117
9, 94709, Note_on_c, 2, 60, 0
9, 94710, Note_on_c, 2, 59, 76
9, 94720, Control_c, 2, 11, 119
9, 94740, Control_c, 2, 11, 121
9, 94760, Control_c, 2, 11, 123
9, 94780, Control_c, 2, 11, 127
9, 94791, Note_on_c, 2, 80, 0
9, 94791, Note_on_c, 2, 59, 0
9, 94800, Note_on_c, 2, 79, 76
9, 94800, Note_on_c, 2, 60, 76
9, 94889, Note_on_c, 2, 79, 0
9, 94889, Note_on_c, 2, 60, 0
9, 94920, Note_on_c, 2, 68, 76
9, 94920, Note_on_c, 2, 72, 76
9, 95009, Note_on_c, 2, 68, 0
9, 95009, Note_on_c, 2, 72, 0
9, 95160, Note_on_c, 2, 66, 52
9, 95160, Note_on_c, 2, 72, 52
9, 95391, Note_on_c, 2, 66, 0
9, 95391, Note_on_c, 2, 72, 0
9, 95400, Note_on_c, 2, 67, 52
9, 95400, Note_on_c, 2, 72, 52
9, 95400, Control_c, 2, 11, 127
9, 95420, Control_c, 2, 11, 126
9, 95440, Control_c, 2, 11, 125
9, 95460, Control_c, 2, 11, 123
9, 95480, Control_c, 2, 11, 122
9, 95500, Control_c, 2, 11, 121
9, 95519, Note_on_c, 2, 67, 0
9, 95519, Note_on_c, 2, 72, 0
9, 95520, Note_on_c, 2, 65, 52
9, 95520, Control_c, 2, 11, 120
9, 95520, Note_on_c, 2, 71, 52
9, 95540, Control_c, 2, 11, 118
9, 95560, Control_c, 2, 11, 117
9, 95580, Control_c, 2, 11, 116
9, 95600, Control_c, 2, 11, 115
9, 95620, Control_c, 2, 11, 112
9, 95631, Note_on_c, 2, 65, 0
9, 95631, Note_on_c, 2, 71, 0
9, 95640, Note_on_c, 2, 71, 52
9, 95640, Note_on_c, 2, 65, 52
9, 95729, Note_on_c, 2, 71, 0
9, 95729, Note_on_c, 2, 65, 0
9, 95730, Note_on_c, 2, 67, 52
9, 95730, Note_on_c, 2, 65, 52
9, 95755, Note_on_c, 2, 67, 0
9, 95755, Note_on_c, 2, 65, 0
9, 95760, Note_on_c, 2, 63, 52
9, 95760, Note_on_c, 2, 67, 52
9, 95879, Note_on_c, 2, 63, 0
9, 95879, Note_on_c, 2, 67, 0
9, 96720, Control_c, 2, 11, 127
9, 97080, Control_c, 2, 11, 127
9, 97080, Note_on_c, 2, 66, 52
9, 97093, Control_c, 2, 11, 125
9, 97107, Control_c, 2, 11, 124
9, 97120, Control_c, 2, 11, 122
9, 97133, Control_c, 2, 11, 120
9, 97147, Control_c, 2, 11, 119
9, 97160, Control_c, 2, 11, 117
9, 97173, Control_c, 2, 11, 115
9, 97187, Control_c, 2, 11, 112
9, 97379, Note_on_c, 2, 66, 0
9, 97380, Note_on_c, 2, 67, 52
9, 97431, Note_on_c, 2, 67, 0
9, 97440, Note_on_c, 2, 67, 52
9, 97559, Note_on_c, 2, 67, 0
9, 97620, Control_c, 2, 11, 127
9, 97680, Note_on_c, 2, 68, 76
9, 97680, Note_on_c, 2, 74, 76
9, 97911, Note_on_c, 2, 68, 0
9, 97911, Note_on_c, 2, 74, 0
9, 97920, Note_on_c, 2, 74, 76
9, 97920, Note_on_c, 2, 68, 76
9, 98121, Note_on_c, 2, 74, 0
9, 98121, Note_on_c, 2, 68, 0
9, 98130, Note_on_c, 2, 68, 76
9, 98130, Note_on_c, 2, 74, 76
9, 98155, Note_on_c, 2, 68, 0
9, 98155, Note_on_c, 2, 74, 0
9, 98160, Note_on_c, 2, 75, 84
9, 98160, Note_on_c, 2, 69, 84
9, 98220, Control_c, 2, 11, 112
9, 98238, Control_c, 2, 11, 110
9, 98255, Control_c, 2, 11, 108
9, 98273, Control_c, 2, 11, 106
9, 98290, Control_c, 2, 11, 104
9, 98308, Control_c, 2, 11, 102
9, 98325, Control_c, 2, 11, 100
9, 98343, Control_c, 2, 11, 98
9, 98360, Control_c, 2, 11, 96
9, 98378, Control_c, 2, 11, 94
9, 98395, Control_c, 2, 11, 92
9, 98413, Control_c, 2, 11, 90
9, 98430, Control_c, 2, 11, 88
9, 98448, Control_c, 2, 11, 86
9, 98465, Control_c, 2, 11, 84
9, 98483, Control_c, 2, 11, 82
9, 98500, Control_c, 2, 11, 80
9, 98518, Control_c, 2, 11, 78
9, 98519, Note_on_c, 2, 75, 0
9, 98520, Note_on_c, 2, 74, 84
9, 98535, Control_c, 2, 11, 76
9, 98553, Control_c, 2, 11, 74
9, 98570, Control_c, 2, 11, 72
9, 98579, Note_on_c, 2, 74, 0
9, 98580, Note_on_c, 2, 72, 84
9, 98588, Control_c, 2, 11, 70
9, 98605, Control_c, 2, 11, 68
9, 98631, Note_on_c, 2, 69, 0
9, 98631, Note_on_c, 2, 72, 0
9, 98636, Control_c, 2, 11, 80
9, 98640, Note_on_c, 2, 72, 76
9, 98640, Note_on_c, 2, 63, 76
9, 98879, Note_on_c, 2, 72, 0
9, 98879, Note_on_c, 2, 63, 0
9, 98880, Note_on_c, 2, 65, 76
9, 98880, Note_on_c, 2, 71, 76
9, 99111, Note_on_c, 2, 65, 0
9, 99111, Note_on_c, 2, 71, 0
9, 99120, Note_on_c, 2, 72, 76
9, 99120, Note_on_c, 2, 63, 76
9, 99231, Note_on_c, 2, 72, 0
9, 99231, Note_on_c, 2, 63, 0
9, 99240, Note_on_c, 2, 66, 76
9, 99240, Control_c, 2, 11, 80
9, 99260, Control_c, 2, 11, 79
9, 99280, Control_c, 2, 11, 77
9, 99300, Control_c, 2, 11, 76
9, 99320, Control_c, 2, 11, 75
9, 99340, Control_c, 2, 11, 73
9, 99360, Control_c, 2, 11, 72
9, 99380, Control_c, 2, 11, 71
9, 99400, Control_c, 2, 11, 69
9, 99420, Control_c, 2, 11, 68
9, 99440, Control_c, 2, 11, 67
9, 99460, Control_c, 2, 11, 64
9, 99479, Note_on_c, 2, 66, 0
9, 99480, Note_on_c, 2, 67, 76
9, 99591, Note_on_c, 2, 67, 0
9, 99600, Control_c, 2, 11, 64
9, 99600, Note_on_c, 2, 72, 76
9, 99600, Note_on_c, 2, 67, 76
9, 99620, Control_c, 2, 11, 67
9, 99640, Control_c, 2, 11, 69
9, 99660, Control_c, 2, 11, 72
9, 99680, Control_c, 2, 11, 75
9, 99700, Control_c, 2, 11, 77
9, 99720, Control_c, 2, 11, 80
9, 99740, Control_c, 2, 11, 82
9, 99760, Control_c, 2, 11, 85
9, 99780, Control_c, 2, 11, 88
9, 99800, Control_c, 2, 11, 90
9, 99820, Control_c, 2, 11, 93
9, 99839, Note_on_c, 2, 72, 0
9, 99839, Note_on_c, 2, 67, 0
9, 99840, Note_on_c, 2, 71, 76
9, 99840, Note_on_c, 2, 65, 76
9, 99840, Control_c, 2, 11, 96
9, 99860, Control_c, 2, 11, 98
9, 99880, Control_c, 2, 11, 101
9, 99900, Control_c, 2, 11, 103
9, 99920, Control_c, 2, 11, 106
9, 99940, Control_c, 2, 11, 109
9, 99960, Control_c, 2, 11, 111
9, 99980, Control_c, 2, 11, 114
9, 100000, Control_c, 2, 11, 117
9, 100020, Control_c, 2, 11, 119
9, 100040, Control_c, 2, 11, 122
9, 100049, Note_on_c, 2, 71, 0
9, 100049, Note_on_c, 2, 65, 0
9, 100050, Note_on_c, 2, 72, 76
9, 100050, Note_on_c, 2, 63, 76
9, 100060, Control_c, 2, 11, 127
9, 100075, Note_on_c, 2, 72, 0
9, 100075, Note_on_c, 2, 63, 0
9, 100080, Note_on_c, 2, 72, 76
9, 100080, Note_on_c, 2, 63, 76
9, 100199, Note_on_c, 2, 72, 0
9, 100199, Note_on_c, 2, 63, 0
9, 103200, Control_c, 2, 11, 96
9, 103440, Note_on_c, 2, 78, 60
9, 103440, Control_c, 2, 11, 96
9, 103487, Control_c, 2, 11, 98
9, 103533, Control_c, 2, 11, 99
9, 103580, Control_c, 2, 11, 101
9, 103627, Control_c, 2, 11, 103
9, 103673, Control_c, 2, 11, 105
9, 103720, Control_c, 2, 11, 106
9, 103767, Control_c, 2, 11, 108
9, 103813, Control_c, 2, 11, 110
9, 103860, Control_c, 2, 11, 112
9, 103907, Control_c, 2, 11, 113
9, 103919, Note_on_c, 2, 78, 0
9, 103920, Note_on_c, 2, 77, 60
9, 103953, Control_c, 2, 11, 115
9, 104000, Control_c, 2, 11, 117
9, 104039, Note_on_c, 2, 77, 0
9, 104047, Control_c, 2, 11, 118
9, 104093, Control_c, 2, 11, 120
9, 104140, Control_c, 2, 11, 122
9, 104187, Control_c, 2, 11, 124
9, 104233, Control_c, 2, 11, 125
9, 104280, Control_c, 2, 11, 127
9, 104293, Control_c, 2, 11, 124
9, 104307, Control_c, 2, 11, 120
9, 104320, Control_c, 2, 11, 117
9, 104333, Control_c, 2, 11, 113
9, 104347, Control_c, 2, 11, 110
9, 104360, Control_c, 2, 11, 106
9, 104373, Control_c, 2, 11, 103
9, 104387, Control_c, 2, 11, 99
9, 105360, Control_c, 2, 11, 127
9, 105600, Note_on_c, 2, 72, 44
9, 105839, Note_on_c, 2, 72, 0
9, 105840, Note_on_c, 2, 65, 44
9, 106079, Note_on_c, 2, 65, 0
9, 106260, Note_on_c, 2, 65, 44
9, 106311, Note_on_c, 2, 65, 0
9, 106320, Note_on_c, 2, 67, 44
9, 106559, Note_on_c, 2, 67, 0
9, 106740, Note_on_c, 2, 67, 44
9, 106791, Note_on_c, 2, 67, 0
9, 106800, Note_on_c, 2, 60, 44
9, 106919, Note_on_c, 2, 60, 0
9, 107280, Control_c, 2, 11, 96
9, 107640, Note_on_c, 2, 71, 68
9, 107759, Note_on_c, 2, 71, 0
9, 107760, Note_on_c, 2, 72, 68
9, 107999, Note_on_c, 2, 72, 0
9, 108000, Note_on_c, 2, 67, 68
9, 108119, Note_on_c, 2, 67, 0
9, 108120, Note_on_c, 2, 70, 68
9, 108231, Note_on_c, 2, 70, 0
9, 108240, Note_on_c, 2, 68, 68
9, 108240, Control_c, 2, 11, 96
9, 108280, Control_c, 2, 11, 97
9, 108320, Control_c, 2, 11, 99
9, 108360, Control_c, 2, 11, 100
9, 108400, Control_c, 2, 11, 101
9, 108440, Control_c, 2, 11, 102
9, 108479, Note_on_c, 2, 68, 0
9, 108480, Note_on_c, 2, 67, 68
9, 108480, Control_c, 2, 11, 104
9, 108520, Control_c, 2, 11, 105
9, 108560, Control_c, 2, 11, 106
9, 108599, Note_on_c, 2, 67, 0
9, 108600, Control_c, 2, 11, 108
9, 108600, Note_on_c, 2, 65, 68
9, 108640, Control_c, 2, 11, 109
9, 108680, Control_c, 2, 11, 110
9, 108711, Note_on_c, 2, 65, 0
9, 108720, Note_on_c, 2, 64, 68
9, 108720, Control_c, 2, 11, 112
9, 108760, Control_c, 2, 11, 113
9, 108800, Control_c, 2, 11, 114
9, 108831, Note_on_c, 2, 64, 0
9, 108840, Control_c, 2, 11, 115
9, 108840, Note_on_c, 2, 72, 68
9, 108840, Note_on_c, 2, 68, 68
9, 108880, Control_c, 2, 11, 117
9, 108920, Control_c, 2, 11, 118
9, 108951, Note_on_c, 2, 72, 0
9, 108959, Note_on_c, 2, 68, 0
9, 108960, Note_on_c, 2, 72, 68
9, 108960, Note_on_c, 2, 67, 68
9, 108960, Control_c, 2, 11, 119
9, 109000, Control_c, 2, 11, 121
9, 109040, Control_c, 2, 11, 122
9, 109071, Note_on_c, 2, 72, 0
9, 109079, Note_on_c, 2, 67, 0
9, 109080, Control_c, 2, 11, 123
9, 109080, Note_on_c, 2, 72, 68
9, 109080, Note_on_c, 2, 65, 68
9, 109120, Control_c, 2, 11, 124
9, 109191, Note_on_c, 2, 72, 0
9, 109191, Note_on_c, 2, 65, 0
9, 109198, Control_c, 2, 11, 96
9, 109200, Note_on_c, 2, 72, 68
9, 109200, Note_on_c, 2, 64, 68
9, 109200, Control_c, 2, 11, 96
9, 109220, Control_c, 2, 11, 97
9, 109240, Control_c, 2, 11, 99
9, 109260, Control_c, 2, 11, 100
9, 109280, Control_c, 2, 11, 101
9, 109300, Control_c, 2, 11, 102
9, 109320, Control_c, 2, 11, 104
9, 109340, Control_c, 2, 11, 105
9, 109360, Control_c, 2, 11, 106
9, 109380, Control_c, 2, 11, 108
9, 109400, Control_c, 2, 11, 109
9, 109420, Control_c, 2, 11, 110
9, 109439, Note_on_c, 2, 64, 0
9, 109440, Control_c, 2, 11, 112
9, 109460, Control_c, 2, 11, 113
9, 109480, Control_c, 2, 11, 114
9, 109500, Control_c, 2, 11, 115
9, 109520, Control_c, 2, 11, 117
9, 109540, Control_c, 2, 11, 118
9, 109560, Control_c, 2, 11, 119
9, 109580, Control_c, 2, 11, 121
9, 109600, Control_c, 2, 11, 122
9, 109620, Control_c, 2, 11, 123
9, 109640, Control_c, 2, 11, 124
9, 109660, Control_c, 2, 11, 127
9, 109671, Note_on_c, 2, 72, 0
9, 109920, Note_on_c, 2, 73, 52
9, 109920, Note_on_c, 2, 68, 52
9, 110039, Note_on_c, 2, 73, 0
9, 110039, Note_on_c, 2, 68, 0
9, 110400, Note_on_c, 2, 72, 52
9, 110400, Note_on_c, 2, 63, 52
9, 110519, Note_on_c, 2, 72, 0
9, 110519, Note_on_c, 2, 63, 0
9, 111120, Control_c, 2, 11, 112
9, 111240, Note_on_c, 2, 67, 60
9, 111240, Control_c, 2, 11, 112
9, 111264, Control_c, 2, 11, 113
9, 111288, Control_c, 2, 11, 114
9, 111312, Control_c, 2, 11, 115
9, 111336, Control_c, 2, 11, 116
9, 111360, Control_c, 2, 11, 117
9, 111384, Control_c, 2, 11, 118
9, 111408, Control_c, 2, 11, 119
9, 111432, Control_c, 2, 11, 120
9, 111456, Control_c, 2, 11, 121
9, 111479, Note_on_c, 2, 67, 0
9, 111480, Note_on_c, 2, 68, 60
9, 111480, Control_c, 2, 11, 122
9, 111504, Control_c, 2, 11, 123
9, 111528, Control_c, 2, 11, 124
9, 111552, Control_c, 2, 11, 125
9, 111576, Control_c, 2, 11, 126
9, 111591, Note_on_c, 2, 68, 0
9, 111600, Note_on_c, 2, 68, 60
9, 111600, Control_c, 2, 11, 127
9, 111616, Control_c, 2, 11, 126
9, 111632, Control_c, 2, 11, 125
9, 111648, Control_c, 2, 11, 124
9, 111664, Control_c, 2, 11, 123
9, 111680, Control_c, 2, 11, 122
9, 111696, Control_c, 2, 11, 121
9, 111712, Control_c, 2, 11, 120
9, 111719, Note_on_c, 2, 68, 0
9, 111720, Note_on_c, 2, 59, 60
9, 111728, Control_c, 2, 11, 119
9, 111744, Control_c, 2, 11, 118
9, 111760, Control_c, 2, 11, 117
9, 111776, Control_c, 2, 11, 116
9, 111779, Note_on_c, 2, 59, 0
9, 111792, Control_c, 2, 11, 115
9, 111808, Control_c, 2, 11, 114
9, 111824, Control_c, 2, 11, 113
9, 112080, Control_c, 2, 11, 127
9, 112200, Note_on_c, 2, 67, 52
9, 112379, Note_on_c, 2, 67, 0
9, 112380, Note_on_c, 2, 68, 52
9, 112439, Note_on_c, 2, 68, 0
9, 112440, Note_on_c, 2, 68, 52
9, 112491, Note_on_c, 2, 68, 0
9, 112500, Note_on_c, 2, 68, 52
9, 112544, Note_on_c, 2, 68, 0
9, 112560, Note_on_c, 2, 68, 52
9, 112560, Control_c, 2, 11, 127
9, 112573, Control_c, 2, 11, 125
9, 112587, Control_c, 2, 11, 124
9, 112600, Control_c, 2, 11, 122
9, 112613, Control_c, 2, 11, 120
9, 112627, Control_c, 2, 11, 119
9, 112640, Control_c, 2, 11, 117
9, 112653, Control_c, 2, 11, 115
9, 112667, Control_c, 2, 11, 112
9, 112679, Note_on_c, 2, 68, 0
9, 112680, Note_on_c, 2, 59, 52
9, 112739, Note_on_c, 2, 59, 0
9, 117840, Control_c, 2, 11, 127
9, 117900, Control_c, 2, 11, 112
9, 117923, Control_c, 2, 11, 110
9, 117947, Control_c, 2, 11, 108
9, 117960, Note_on_c, 2, 72, 76
9, 117960, Note_on_c, 2, 67, 76
9, 117970, Control_c, 2, 11, 107
9, 117993, Control_c, 2, 11, 105
9, 118017, Control_c, 2, 11, 103
9, 118040, Control_c, 2, 11, 101
9, 118063, Control_c, 2, 11, 100
9, 118087, Control_c, 2, 11, 98
9, 118110, Control_c, 2, 11, 96
9, 118133, Control_c, 2, 11, 94
9, 118157, Control_c, 2, 11, 92
9, 118180, Control_c, 2, 11, 91
9, 118199, Note_on_c, 2, 67, 0
9, 118200, Note_on_c, 2, 63, 76
9, 118203, Control_c, 2, 11, 89
9, 118227, Control_c, 2, 11, 87
9, 118250, Control_c, 2, 11, 85
9, 118273, Control_c, 2, 11, 84
9, 118297, Control_c, 2, 11, 80
9, 118311, Note_on_c, 2, 72, 0
9, 118311, Note_on_c, 2, 63, 0
9, 118320, Note_on_c, 2, 63, 76
9, 118320, Note_on_c, 2, 67, 76
9, 118679, Note_on_c, 2, 63, 0
9, 118679, Note_on_c, 2, 67, 0
9, 118679, End_track
10, 0, Start_track
10, 0, Title_t, "Bassoon"
10, 0, MIDI_port, 0
10, 0, Program_c, 3, 70
10, 0, Control_c, 3, 7, 96
10, 0, Control_c, 3, 10, 65
10, 0, Control_c, 3, 11, 127
10, 4080, Note_on_c, 3, 60, 52
10, 4080, Note_on_c, 3, 48, 52
10, 4551, Note_on_c, 3, 60, 0
10, 4551, Note_on_c, 3, 48, 0
10, 4560, Note_on_c, 3, 48, 52
10, 4560, Note_on_c, 3, 60, 52
10, 5031, Note_on_c, 3, 48, 0
10, 5031, Note_on_c, 3, 60, 0
10, 5040, Note_on_c, 3, 60, 52
10, 5040, Note_on_c, 3, 48, 52
10, 5271, Note_on_c, 3, 60, 0
10, 5271, Note_on_c, 3, 48, 0
10, 5280, Note_on_c, 3, 63, 52
10, 5280, Note_on_c, 3, 51, 52
10, 5391, Note_on_c, 3, 63, 0
10, 5391, Note_on_c, 3, 51, 0
10, 5400, Note_on_c, 3, 63, 52
10, 5400, Note_on_c, 3, 51, 52
10, 5511, Note_on_c, 3, 63, 0
10, 5511, Note_on_c, 3, 51, 0
10, 5516, Control_c, 3, 11, 96
10, 5520, Control_c, 3, 11, 96
10, 5520, Note_on_c, 3, 60, 68
10, 5520, Note_on_c, 3, 63, 68
10, 5533, Control_c, 3, 11, 99
10, 5547, Control_c, 3, 11, 103
10, 5560, Control_c, 3, 11, 106
10, 5573, Control_c, 3, 11, 110
10, 5587, Control_c, 3, 11, 113
10, 5600, Control_c, 3, 11, 117
10, 5613, Control_c, 3, 11, 120
10, 5627, Control_c, 3, 11, 124
10, 5639, Note_on_c, 3, 63, 0
10, 5640, Control_c, 3, 11, 127
10, 5640, Note_on_c, 3, 66, 68
10, 5660, Control_c, 3, 11, 124
10, 5680, Control_c, 3, 11, 122
10, 5700, Control_c, 3, 11, 119
10, 5720, Control_c, 3, 11, 117
10, 5740, Control_c, 3, 11, 114
10, 5759, Note_on_c, 3, 60, 0
10, 5759, Note_on_c, 3, 66, 0
10, 5760, Note_on_c, 3, 67, 68
10, 5760, Note_on_c, 3, 59, 68
10, 5760, Control_c, 3, 11, 112
10, 5780, Control_c, 3, 11, 109
10, 5800, Control_c, 3, 11, 106
10, 5820, Control_c, 3, 11, 104
10, 5840, Control_c, 3, 11, 101
10, 5860, Control_c, 3, 11, 99
10, 5879, Note_on_c, 3, 67, 0
10, 5879, Note_on_c, 3, 59, 0
10, 5880, Control_c, 3, 11, 96
10, 6000, Note_on_c, 3, 53, 68
10, 6000, Note_on_c, 3, 59, 68
10, 6239, Note_on_c, 3, 53, 0
10, 6239, Note_on_c, 3, 59, 0
10, 6480, Note_on_c, 3, 47, 68
10, 6480, Note_on_c, 3, 59, 68
10, 6719, Note_on_c, 3, 47, 0
10, 6719, Note_on_c, 3, 59, 0
10, 6840, Control_c, 3, 11, 127
10, 6960, Note_on_c, 3, 46, 68
10, 6960, Note_on_c, 3, 58, 68
10, 6960, Control_c, 3, 11, 127
10, 6980, Control_c, 3, 11, 126
10, 7000, Control_c, 3, 11, 124
10, 7020, Control_c, 3, 11, 123
10, 7040, Control_c, 3, 11, 122
10, 7060, Control_c, 3, 11, 121
10, 7079, Note_on_c, 3, 46, 0
10, 7079, Note_on_c, 3, 58, 0
10, 7080, Control_c, 3, 11, 119
10, 7080, Note_on_c, 3, 50, 68
10, 7080, Note_on_c, 3, 53, 68
10, 7100, Control_c, 3, 11, 118
10, 7120, Control_c, 3, 11, 117
10, 7140, Control_c, 3, 11, 115
10, 7160, Control_c, 3, 11, 114
10, 7180, Control_c, 3, 11, 113
10, 7199, Note_on_c, 3, 50, 0
10, 7199, Note_on_c, 3, 53, 0
10, 7200, Control_c, 3, 11, 112
10, 7200, Note_on_c, 3, 55, 68
10, 7200, Note_on_c, 3, 51, 68
10, 7220, Control_c, 3, 11, 110
10, 7240, Control_c, 3, 11, 109
10, 7260, Control_c, 3, 11, 108
10, 7280, Control_c, 3, 11, 106
10, 7300, Control_c, 3, 11, 105
10, 7319, Note_on_c, 3, 55, 0
10, 7319, Note_on_c, 3, 51, 0
10, 7320, Note_on_c, 3, 53, 68
10, 7320, Control_c, 3, 11, 104
10, 7320, Note_on_c, 3, 56, 68
10, 7340, Control_c, 3, 11, 102
10, 7360, Control_c, 3, 11, 101
10, 7380, Control_c, 3, 11, 100
10, 7400, Control_c, 3, 11, 99
10, 7420, Control_c, 3, 11, 97
10, 7431, Note_on_c, 3, 53, 0
10, 7431, Note_on_c, 3, 56, 0
10, 7440, Note_on_c, 3, 51, 68
10, 7440, Note_on_c, 3, 55, 68
10, 7440, Control_c, 3, 11, 96
10, 7551, Note_on_c, 3, 51, 0
10, 7551, Note_on_c, 3, 55, 0
10, 7560, Note_on_c, 3, 60, 68
10, 7560, Note_on_c, 3, 56, 68
10, 7641, Note_on_c, 3, 60, 0
10, 7641, Note_on_c, 3, 56, 0
10, 7650, Note_on_c, 3, 56, 68
10, 7650, Note_on_c, 3, 60, 68
10, 7675, Note_on_c, 3, 56, 0
10, 7675, Note_on_c, 3, 60, 0
10, 7680, Note_on_c, 3, 51, 68
10, 7680, Note_on_c, 3, 58, 68
10, 7799, Note_on_c, 3, 51, 0
10, 7799, Note_on_c, 3, 58, 0
10, 11520, Control_c, 3, 11, 96
10, 11760, Note_on_c, 3, 55, 68
10, 11760, Control_c, 3, 11, 96
10, 11780, Control_c, 3, 11, 97
10, 11800, Control_c, 3, 11, 99
10, 11820, Control_c, 3, 11, 100
10, 11840, Control_c, 3, 11, 101
10, 11860, Control_c, 3, 11, 102
10, 11880, Control_c, 3, 11, 104
10, 11900, Control_c, 3, 11, 105
10, 11920, Control_c, 3, 11, 106
10, 11940, Control_c, 3, 11, 108
10, 11960, Control_c, 3, 11, 109
10, 11980, Control_c, 3, 11, 110
10, 12000, Control_c, 3, 11, 112
10, 12020, Control_c, 3, 11, 113
10, 12040, Control_c, 3, 11, 114
10, 12060, Control_c, 3, 11, 115
10, 12080, Control_c, 3, 11, 117
10, 12100, Control_c, 3, 11, 118
10, 12120, Control_c, 3, 11, 119
10, 12140, Control_c, 3, 11, 121
10, 12160, Control_c, 3, 11, 122
10, 12180, Control_c, 3, 11, 123
10, 12200, Control_c, 3, 11, 124
10, 12220, Control_c, 3, 11, 126
10, 12240, Control_c, 3, 11, 127
10, 12260, Control_c, 3, 11, 126
10, 12280, Control_c, 3, 11, 124
10, 12300, Control_c, 3, 11, 123
10, 12320, Control_c, 3, 11, 122
10, 12340, Control_c, 3, 11, 121
10, 12360, Control_c, 3, 11, 119
10, 12380, Control_c, 3, 11, 118
10, 12400, Control_c, 3, 11, 117
10, 12420, Control_c, 3, 11, 115
10, 12440, Control_c, 3, 11, 114
10, 12460, Control_c, 3, 11, 113
10, 12480, Control_c, 3, 11, 112
10, 12500, Control_c, 3, 11, 110
10, 12520, Control_c, 3, 11, 109
10, 12540, Control_c, 3, 11, 108
10, 12560, Control_c, 3, 11, 106
10, 12580, Control_c, 3, 11, 105
10, 12599, Note_on_c, 3, 55, 0
10, 12600, Control_c, 3, 11, 104
10, 12600, Note_on_c, 3, 54, 68
10, 12620, Control_c, 3, 11, 102
10, 12640, Control_c, 3, 11, 101
10, 12660, Control_c, 3, 11, 100
10, 12680, Control_c, 3, 11, 99
10, 12700, Control_c, 3, 11, 97
10, 12719, Note_on_c, 3, 54, 0
10, 12720, Note_on_c, 3, 55, 68
10, 12720, Control_c, 3, 11, 96
10, 12839, Note_on_c, 3, 55, 0
10, 17280, Control_c, 3, 11, 127
10, 17520, Note_on_c, 3, 51, 52
10, 17991, Note_on_c, 3, 51, 0
10, 18000, Note_on_c, 3, 58, 52
10, 18236, Control_c, 3, 11, 80
10, 18471, Note_on_c, 3, 58, 0
10, 18480, Note_on_c, 3, 60, 76
10, 18480, Control_c, 3, 11, 80
10, 18480, Note_on_c, 3, 63, 76
10, 18505, Control_c, 3, 11, 82
10, 18530, Control_c, 3, 11, 84
10, 18555, Control_c, 3, 11, 86
10, 18580, Control_c, 3, 11, 88
10, 18605, Control_c, 3, 11, 90
10, 18630, Control_c, 3, 11, 92
10, 18655, Control_c, 3, 11, 94
10, 18680, Control_c, 3, 11, 96
10, 18705, Control_c, 3, 11, 98
10, 18719, Note_on_c, 3, 60, 0
10, 18719, Note_on_c, 3, 63, 0
10, 18720, Note_on_c, 3, 62, 76
10, 18720, Note_on_c, 3, 58, 76
10, 18730, Control_c, 3, 11, 100
10, 18755, Control_c, 3, 11, 102
10, 18780, Control_c, 3, 11, 104
10, 18805, Control_c, 3, 11, 105
10, 18830, Control_c, 3, 11, 107
10, 18839, Note_on_c, 3, 62, 0
10, 18839, Note_on_c, 3, 58, 0
10, 18840, Note_on_c, 3, 60, 76
10, 18840, Note_on_c, 3, 56, 76
10, 18855, Control_c, 3, 11, 109
10, 18880, Control_c, 3, 11, 111
10, 18905, Control_c, 3, 11, 113
10, 18930, Control_c, 3, 11, 115
10, 18951, Note_on_c, 3, 60, 0
10, 18951, Note_on_c, 3, 56, 0
10, 18955, Control_c, 3, 11, 117
10, 18960, Note_on_c, 3, 55, 76
10, 18960, Note_on_c, 3, 61, 76
10, 18980, Control_c, 3, 11, 119
10, 19005, Control_c, 3, 11, 121
10, 19030, Control_c, 3, 11, 123
10, 19055, Control_c, 3, 11, 127
10, 19079, Note_on_c, 3, 55, 0
10, 19079, Note_on_c, 3, 61, 0
10, 19170, Note_on_c, 3, 60, 76
10, 19170, Note_on_c, 3, 52, 76
10, 19191, Note_on_c, 3, 60, 0
10, 19191, Note_on_c, 3, 52, 0
10, 19200, Note_on_c, 3, 60, 76
10, 19200, Note_on_c, 3, 52, 76
10, 19439, Note_on_c, 3, 60, 0
10, 19439, Note_on_c, 3, 52, 0
10, 19680, Note_on_c, 3, 60, 52
10, 19680, Note_on_c, 3, 53, 52
10, 19784, Note_on_c, 3, 60, 0
10, 19784, Note_on_c, 3, 53, 0
10, 19800, Note_on_c, 3, 60, 52
10, 19800, Note_on_c, 3, 55, 52
10, 19904, Note_on_c, 3, 60, 0
10, 19904, Note_on_c, 3, 55, 0
10, 19920, Note_on_c, 3, 60, 52
10, 19920, Note_on_c, 3, 56, 52
10, 20009, Note_on_c, 3, 60, 0
10, 20040, Note_on_c, 3, 60, 52
10, 20159, Note_on_c, 3, 60, 0
10, 20160, Note_on_c, 3, 63, 60
10, 20279, Note_on_c, 3, 63, 0
10, 20280, Note_on_c, 3, 60, 52
10, 20399, Note_on_c, 3, 56, 0
10, 20399, Note_on_c, 3, 60, 0
10, 20400, Note_on_c, 3, 67, 52
10, 20400, Note_on_c, 3, 55, 52
10, 20519, Note_on_c, 3, 55, 0
10, 20639, Note_on_c, 3, 67, 0
10, 20640, Note_on_c, 3, 62, 52
10, 20759, Note_on_c, 3, 62, 0
10, 20760, Note_on_c, 3, 65, 52
10, 20879, Note_on_c, 3, 65, 0
10, 20880, Note_on_c, 3, 63, 52
10, 21119, Note_on_c, 3, 63, 0
10, 21120, Note_on_c, 3, 62, 52
10, 21239, Note_on_c, 3, 62, 0
10, 21240, Note_on_c, 3, 60, 52
10, 21351, Note_on_c, 3, 60, 0
10, 21356, Control_c, 3, 11, 96
10, 21360, Control_c, 3, 11, 96
10, 21360, Note_on_c, 3, 55, 68
10, 21360, Note_on_c, 3, 59, 68
10, 21380, Control_c, 3, 11, 97
10, 21400, Control_c, 3, 11, 99
10, 21420, Control_c, 3, 11, 100
10, 21440, Control_c, 3, 11, 101
10, 21460, Control_c, 3, 11, 102
10, 21480, Control_c, 3, 11, 104
10, 21500, Control_c, 3, 11, 105
10, 21520, Control_c, 3, 11, 106
10, 21540, Control_c, 3, 11, 108
10, 21560, Control_c, 3, 11, 109
10, 21580, Control_c, 3, 11, 110
10, 21591, Note_on_c, 3, 55, 0
10, 21591, Note_on_c, 3, 59, 0
10, 21600, Control_c, 3, 11, 112
10, 21600, Note_on_c, 3, 59, 68
10, 21620, Control_c, 3, 11, 113
10, 21640, Control_c, 3, 11, 114
10, 21660, Control_c, 3, 11, 115
10, 21680, Control_c, 3, 11, 117
10, 21700, Control_c, 3, 11, 118
10, 21719, Note_on_c, 3, 59, 0
10, 21720, Control_c, 3, 11, 119
10, 21720, Note_on_c, 3, 62, 68
10, 21740, Control_c, 3, 11, 121
10, 21760, Control_c, 3, 11, 122
10, 21780, Control_c, 3, 11, 123
10, 21800, Control_c, 3, 11, 124
10, 21820, Control_c, 3, 11, 126
10, 21839, Note_on_c, 3, 62, 0
10, 21840, Control_c, 3, 11, 127
10, 21840, Note_on_c, 3, 55, 68
10, 21840, Note_on_c, 3, 60, 68
10, 21860, Control_c, 3, 11, 126
10, 21880, Control_c, 3, 11, 124
10, 21900, Control_c, 3, 11, 123
10, 21920, Control_c, 3, 11, 122
10, 21940, Control_c, 3, 11, 121
10, 21960, Control_c, 3, 11, 119
10, 21980, Control_c, 3, 11, 118
10, 22000, Control_c, 3, 11, 117
10, 22020, Control_c, 3, 11, 115
10, 22040, Control_c, 3, 11, 114
10, 22060, Control_c, 3, 11, 113
10, 22079, Note_on_c, 3, 60, 0
10, 22080, Control_c, 3, 11, 112
10, 22080, Note_on_c, 3, 58, 68
10, 22100, Control_c, 3, 11, 110
10, 22120, Control_c, 3, 11, 109
10, 22140, Control_c, 3, 11, 108
10, 22160, Control_c, 3, 11, 106
10, 22180, Control_c, 3, 11, 105
10, 22199, Note_on_c, 3, 58, 0
10, 22200, Note_on_c, 3, 56, 68
10, 22200, Control_c, 3, 11, 104
10, 22220, Control_c, 3, 11, 102
10, 22240, Control_c, 3, 11, 101
10, 22260, Control_c, 3, 11, 100
10, 22280, Control_c, 3, 11, 99
10, 22300, Control_c, 3, 11, 96
10, 22311, Note_on_c, 3, 56, 0
10, 22319, Note_on_c, 3, 55, 0
10, 22320, Note_on_c, 3, 55, 68
10, 22439, Note_on_c, 3, 55, 0
10, 22560, Control_c, 3, 11, 96
10, 22590, Control_c, 3, 11, 97
10, 22620, Control_c, 3, 11, 99
10, 22650, Control_c, 3, 11, 100
10, 22680, Control_c, 3, 11, 101
10, 22680, Note_on_c, 3, 63, 68
10, 22710, Control_c, 3, 11, 102
10, 22740, Control_c, 3, 11, 104
10, 22770, Control_c, 3, 11, 105
10, 22799, Note_on_c, 3, 63, 0
10, 22800, Control_c, 3, 11, 106
10, 22800, Note_on_c, 3, 62, 68
10, 22830, Control_c, 3, 11, 108
10, 22860, Control_c, 3, 11, 109
10, 22890, Control_c, 3, 11, 110
10, 22919, Note_on_c, 3, 62, 0
10, 22920, Note_on_c, 3, 67, 68
10, 22920, Control_c, 3, 11, 112
10, 22950, Control_c, 3, 11, 113
10, 22980, Control_c, 3, 11, 114
10, 23010, Control_c, 3, 11, 115
10, 23039, Note_on_c, 3, 67, 0
10, 23040, Note_on_c, 3, 65, 68
10, 23040, Control_c, 3, 11, 117
10, 23070, Control_c, 3, 11, 118
10, 23100, Control_c, 3, 11, 119
10, 23130, Control_c, 3, 11, 121
10, 23159, Note_on_c, 3, 65, 0
10, 23160, Note_on_c, 3, 63, 68
10, 23160, Control_c, 3, 11, 122
10, 23190, Control_c, 3, 11, 123
10, 23220, Control_c, 3, 11, 124
10, 23250, Control_c, 3, 11, 127
10, 23271, Note_on_c, 3, 63, 0
10, 23280, Control_c, 3, 11, 127
10, 23280, Note_on_c, 3, 62, 68
10, 23300, Control_c, 3, 11, 126
10, 23320, Control_c, 3, 11, 124
10, 23340, Control_c, 3, 11, 123
10, 23360, Control_c, 3, 11, 122
10, 23380, Control_c, 3, 11, 121
10, 23400, Control_c, 3, 11, 119
10, 23420, Control_c, 3, 11, 118
10, 23440, Control_c, 3, 11, 117
10, 23460, Control_c, 3, 11, 115
10, 23480, Control_c, 3, 11, 114
10, 23500, Control_c, 3, 11, 113
10, 23519, Note_on_c, 3, 62, 0
10, 23520, Control_c, 3, 11, 112
10, 23520, Note_on_c, 3, 60, 68
10, 23540, Control_c, 3, 11, 110
10, 23560, Control_c, 3, 11, 109
10, 23580, Control_c, 3, 11, 108
10, 23600, Control_c, 3, 11, 106
10, 23620, Control_c, 3, 11, 105
10, 23640, Control_c, 3, 11, 104
10, 23660, Control_c, 3, 11, 102
10, 23680, Control_c, 3, 11, 101
10, 23700, Control_c, 3, 11, 100
10, 23720, Control_c, 3, 11, 99
10, 23740, Control_c, 3, 11, 96
10, 23759, Note_on_c, 3, 60, 0
10, 23760, Control_c, 3, 11, 96
10, 23760, Note_on_c, 3, 59, 68
10, 23780, Control_c, 3, 11, 97
10, 23800, Control_c, 3, 11, 99
10, 23820, Control_c, 3, 11, 100
10, 23840, Control_c, 3, 11, 101
10, 23860, Control_c, 3, 11, 102
10, 23880, Control_c, 3, 11, 104
10, 23900, Control_c, 3, 11, 105
10, 23920, Control_c, 3, 11, 106
10, 23940, Control_c, 3, 11, 108
10, 23960, Control_c, 3, 11, 109
10, 23980, Control_c, 3, 11, 110
10, 23991, Note_on_c, 3, 59, 0
10, 24000, Note_on_c, 3, 48, 84
10, 24000, Control_c, 3, 11, 112
10, 24000, Note_on_c, 3, 58, 84
10, 24020, Control_c, 3, 11, 113
10, 24040, Control_c, 3, 11, 114
10, 24060, Control_c, 3, 11, 115
10, 24080, Control_c, 3, 11, 117
10, 24100, Control_c, 3, 11, 118
10, 24120, Control_c, 3, 11, 119
10, 24140, Control_c, 3, 11, 121
10, 24160, Control_c, 3, 11, 122
10, 24180, Control_c, 3, 11, 123
10, 24200, Control_c, 3, 11, 124
10, 24220, Control_c, 3, 11, 127
10, 24231, Note_on_c, 3, 48, 0
10, 24231, Note_on_c, 3, 58, 0
10, 24240, Note_on_c, 3, 53, 52
10, 24240, Note_on_c, 3, 56, 52
10, 24479, Note_on_c, 3, 53, 0
10, 24479, Note_on_c, 3, 56, 0
10, 24720, Note_on_c, 3, 49, 52
10, 24720, Note_on_c, 3, 61, 52
10, 24959, Note_on_c, 3, 49, 0
10, 24959, Note_on_c, 3, 61, 0
10, 25080, Control_c, 3, 11, 80
10, 25200, Note_on_c, 3, 59, 76
10, 25200, Control_c, 3, 11, 80
10, 25200, Note_on_c, 3, 47, 76
10, 25220, Control_c, 3, 11, 82
10, 25240, Control_c, 3, 11, 84
10, 25260, Control_c, 3, 11, 86
10, 25280, Control_c, 3, 11, 88
10, 25300, Control_c, 3, 11, 90
10, 25320, Control_c, 3, 11, 92
10, 25340, Control_c, 3, 11, 94
10, 25360, Control_c, 3, 11, 96
10, 25380, Control_c, 3, 11, 98
10, 25400, Control_c, 3, 11, 100
10, 25420, Control_c, 3, 11, 102
10, 25440, Control_c, 3, 11, 104
10, 25460, Control_c, 3, 11, 105
10, 25480, Control_c, 3, 11, 107
10, 25500, Control_c, 3, 11, 109
10, 25520, Control_c, 3, 11, 111
10, 25540, Control_c, 3, 11, 113
10, 25551, Note_on_c, 3, 59, 0
10, 25551, Note_on_c, 3, 47, 0
10, 25560, Note_on_c, 3, 53, 76
10, 25560, Note_on_c, 3, 65, 76
10, 25560, Control_c, 3, 11, 115
10, 25580, Control_c, 3, 11, 117
10, 25600, Control_c, 3, 11, 119
10, 25620, Control_c, 3, 11, 121
10, 25640, Control_c, 3, 11, 123
10, 25660, Control_c, 3, 11, 127
10, 25671, Note_on_c, 3, 53, 0
10, 25671, Note_on_c, 3, 65, 0
10, 25680, Note_on_c, 3, 51, 76
10, 25680, Note_on_c, 3, 63, 76
10, 25769, Note_on_c, 3, 51, 0
10, 25769, Note_on_c, 3, 63, 0
10, 25800, Note_on_c, 3, 53, 76
10, 25800, Note_on_c, 3, 65, 76
10, 25889, Note_on_c, 3, 53, 0
10, 25889, Note_on_c, 3, 65, 0
10, 26010, Control_c, 3, 11, 96
10, 26040, Note_on_c, 3, 56, 68
10, 26040, Note_on_c, 3, 63, 68
10, 26271, Note_on_c, 3, 56, 0
10, 26271, Note_on_c, 3, 63, 0
10, 26280, Note_on_c, 3, 55, 68
10, 26280, Control_c, 3, 11, 96
10, 26280, Note_on_c, 3, 63, 68
10, 26300, Control_c, 3, 11, 99
10, 26320, Control_c, 3, 11, 101
10, 26340, Control_c, 3, 11, 104
10, 26360, Control_c, 3, 11, 106
10, 26380, Control_c, 3, 11, 109
10, 26399, Note_on_c, 3, 63, 0
10, 26400, Control_c, 3, 11, 112
10, 26400, Note_on_c, 3, 62, 68
10, 26420, Control_c, 3, 11, 114
10, 26440, Control_c, 3, 11, 117
10, 26460, Control_c, 3, 11, 119
10, 26480, Control_c, 3, 11, 122
10, 26500, Control_c, 3, 11, 127
10, 26511, Note_on_c, 3, 55, 0
10, 26511, Note_on_c, 3, 62, 0
10, 26520, Control_c, 3, 11, 127
10, 26520, Note_on_c, 3, 62, 68
10, 26520, Note_on_c, 3, 43, 68
10, 26540, Control_c, 3, 11, 122
10, 26560, Control_c, 3, 11, 117
10, 26580, Control_c, 3, 11, 112
10, 26600, Control_c, 3, 11, 106
10, 26609, Note_on_c, 3, 62, 0
10, 26610, Note_on_c, 3, 59, 68
10, 26620, Control_c, 3, 11, 96
10, 26631, Note_on_c, 3, 43, 0
10, 26635, Note_on_c, 3, 59, 0
10, 26640, Note_on_c, 3, 48, 68
10, 26640, Note_on_c, 3, 60, 68
10, 26751, Note_on_c, 3, 48, 0
10, 26751, Note_on_c, 3, 60, 0
10, 26760, Note_on_c, 3, 51, 68
10, 26879, Note_on_c, 3, 51, 0
10, 26880, Note_on_c, 3, 55, 68
10, 26999, Note_on_c, 3, 55, 0
10, 27000, Note_on_c, 3, 59, 68
10, 27111, Note_on_c, 3, 59, 0
10, 27120, Note_on_c, 3, 60, 68
10, 27239, Note_on_c, 3, 60, 0
10, 27240, Note_on_c, 3, 55, 68
10, 27359, Note_on_c, 3, 55, 0
10, 27360, Note_on_c, 3, 51, 68
10, 27479, Note_on_c, 3, 51, 0
10, 27480, Note_on_c, 3, 48, 68
10, 27591, Note_on_c, 3, 48, 0
10, 27600, Note_on_c, 3, 47, 68
10, 27719, Note_on_c, 3, 47, 0
10, 27720, Note_on_c, 3, 43, 68
10, 27839, Note_on_c, 3, 43, 0
10, 27840, Note_on_c, 3, 48, 84
10, 27959, Note_on_c, 3, 48, 0
10, 27960, Note_on_c, 3, 51, 68
10, 28071, Note_on_c, 3, 51, 0
10, 28080, Note_on_c, 3, 55, 68
10, 28319, Note_on_c, 3, 55, 0
10, 28320, Note_on_c, 3, 43, 68
10, 28409, Note_on_c, 3, 43, 0
10, 28545, Control_c, 3, 11, 127
10, 28560, Note_on_c, 3, 62, 76
10, 28560, Note_on_c, 3, 53, 76
10, 28791, Note_on_c, 3, 62, 0
10, 28791, Note_on_c, 3, 53, 0
10, 28800, Note_on_c, 3, 62, 76
10, 28800, Note_on_c, 3, 53, 76
10, 29001, Note_on_c, 3, 62, 0
10, 29001, Note_on_c, 3, 53, 0
10, 29010, Note_on_c, 3, 53, 76
10, 29010, Note_on_c, 3, 62, 76
10, 29035, Note_on_c, 3, 53, 0
10, 29035, Note_on_c, 3, 62, 0
10, 29040, Note_on_c, 3, 54, 84
10, 29040, Note_on_c, 3, 63, 84
10, 29100, Control_c, 3, 11, 112
10, 29118, Control_c, 3, 11, 110
10, 29135, Control_c, 3, 11, 108
10, 29153, Control_c, 3, 11, 106
10, 29170, Control_c, 3, 11, 104
10, 29188, Control_c, 3, 11, 102
10, 29205, Control_c, 3, 11, 100
10, 29223, Control_c, 3, 11, 98
10, 29240, Control_c, 3, 11, 96
10, 29258, Control_c, 3, 11, 94
10, 29275, Control_c, 3, 11, 92
10, 29293, Control_c, 3, 11, 90
10, 29310, Control_c, 3, 11, 88
10, 29328, Control_c, 3, 11, 86
10, 29345, Control_c, 3, 11, 84
10, 29363, Control_c, 3, 11, 82
10, 29380, Control_c, 3, 11, 80
10, 29398, Control_c, 3, 11, 78
10, 29399, Note_on_c, 3, 63, 0
10, 29400, Note_on_c, 3, 62, 84
10, 29415, Control_c, 3, 11, 76
10, 29433, Control_c, 3, 11, 74
10, 29450, Control_c, 3, 11, 72
10, 29459, Note_on_c, 3, 62, 0
10, 29460, Note_on_c, 3, 60, 84
10, 29468, Control_c, 3, 11, 70
10, 29485, Control_c, 3, 11, 68
10, 29503, Control_c, 3, 11, 64
10, 29511, Note_on_c, 3, 54, 0
10, 29511, Note_on_c, 3, 60, 0
10, 29520, Note_on_c, 3, 55, 84
10, 29520, Note_on_c, 3, 60, 84
10, 29751, Note_on_c, 3, 55, 0
10, 29759, Note_on_c, 3, 60, 0
10, 29760, Note_on_c, 3, 59, 84
10, 29760, Note_on_c, 3, 55, 84
10, 29991, Note_on_c, 3, 59, 0
10, 29991, Note_on_c, 3, 55, 0
10, 30000, Note_on_c, 3, 48, 84
10, 30000, Note_on_c, 3, 60, 84
10, 30119, Note_on_c, 3, 48, 0
10, 30119, Note_on_c, 3, 60, 0
10, 30360, Control_c, 3, 11, 127
10, 30480, Note_on_c, 3, 60, 52
10, 30480, Note_on_c, 3, 63, 52
10, 30719, Note_on_c, 3, 60, 0
10, 30719, Note_on_c, 3, 63, 0
10, 30720, Note_on_c, 3, 62, 52
10, 30720, Note_on_c, 3, 59, 52
10, 30929, Note_on_c, 3, 62, 0
10, 30929, Note_on_c, 3, 59, 0
10, 30930, Note_on_c, 3, 60, 52
10, 30955, Note_on_c, 3, 60, 0
10, 30960, Note_on_c, 3, 60, 52
10, 31079, Note_on_c, 3, 60, 0
10, 31320, Note_on_c, 3, 63, 68
10, 31320, Note_on_c, 3, 51, 68
10, 31439, Note_on_c, 3, 63, 0
10, 31439, Note_on_c, 3, 51, 0
10, 31440, Note_on_c, 3, 48, 52
10, 31440, Note_on_c, 3, 60, 52
10, 31551, Note_on_c, 3, 48, 0
10, 31551, Note_on_c, 3, 60, 0
10, 31560, Note_on_c, 3, 56, 76
10, 31641, Note_on_c, 3, 56, 0
10, 31650, Note_on_c, 3, 53, 76
10, 31675, Note_on_c, 3, 53, 0
10, 31680, Note_on_c, 3, 50, 76
10, 31769, Note_on_c, 3, 50, 0
10, 31800, Note_on_c, 3, 55, 76
10, 31889, Note_on_c, 3, 55, 0
10, 31920, Note_on_c, 3, 48, 52
10, 32009, Note_on_c, 3, 48, 0
10, 32160, Note_on_c, 3, 48, 52
10, 32249, Note_on_c, 3, 48, 0
10, 32400, Note_on_c, 3, 48, 52
10, 32489, Note_on_c, 3, 48, 0
10, 34560, Control_c, 3, 11, 64
10, 34800, Note_on_c, 3, 59, 84
10, 35039, Note_on_c, 3, 59, 0
10, 35040, Note_on_c, 3, 62, 84
10, 35271, Note_on_c, 3, 62, 0
10, 35280, Control_c, 3, 11, 64
10, 35280, Note_on_c, 3, 65, 84
10, 35307, Control_c, 3, 11, 66
10, 35333, Control_c, 3, 11, 68
10, 35360, Control_c, 3, 11, 69
10, 35387, Control_c, 3, 11, 71
10, 35413, Control_c, 3, 11, 73
10, 35440, Control_c, 3, 11, 75
10, 35467, Control_c, 3, 11, 76
10, 35493, Control_c, 3, 11, 78
10, 35520, Control_c, 3, 11, 80
10, 35547, Control_c, 3, 11, 82
10, 35573, Control_c, 3, 11, 83
10, 35600, Control_c, 3, 11, 85
10, 35627, Control_c, 3, 11, 87
10, 35639, Note_on_c, 3, 65, 0
10, 35640, Note_on_c, 3, 64, 84
10, 35653, Control_c, 3, 11, 89
10, 35680, Control_c, 3, 11, 90
10, 35699, Note_on_c, 3, 64, 0
10, 35700, Note_on_c, 3, 62, 84
10, 35707, Control_c, 3, 11, 92
10, 35733, Control_c, 3, 11, 94
10, 35751, Note_on_c, 3, 62, 0
10, 35760, Control_c, 3, 11, 96
10, 35760, Note_on_c, 3, 62, 84
10, 35787, Control_c, 3, 11, 97
10, 35813, Control_c, 3, 11, 99
10, 35819, Note_on_c, 3, 62, 0
10, 35820, Note_on_c, 3, 60, 84
10, 35840, Control_c, 3, 11, 101
10, 35867, Control_c, 3, 11, 103
10, 35879, Note_on_c, 3, 60, 0
10, 35880, Note_on_c, 3, 59, 84
10, 35893, Control_c, 3, 11, 104
10, 35920, Control_c, 3, 11, 106
10, 35939, Note_on_c, 3, 59, 0
10, 35940, Note_on_c, 3, 57, 84
10, 35947, Control_c, 3, 11, 108
10, 35973, Control_c, 3, 11, 110
10, 35991, Note_on_c, 3, 57, 0
10, 36000, Control_c, 3, 11, 111
10, 36000, Note_on_c, 3, 55, 84
10, 36027, Control_c, 3, 11, 113
10, 36051, Note_on_c, 3, 55, 0
10, 36053, Control_c, 3, 11, 115
10, 36060, Note_on_c, 3, 55, 84
10, 36080, Control_c, 3, 11, 117
10, 36107, Control_c, 3, 11, 118
10, 36119, Note_on_c, 3, 55, 0
10, 36120, Note_on_c, 3, 57, 84
10, 36133, Control_c, 3, 11, 120
10, 36160, Control_c, 3, 11, 122
10, 36179, Note_on_c, 3, 57, 0
10, 36180, Note_on_c, 3, 60, 84
10, 36187, Control_c, 3, 11, 124
10, 36213, Control_c, 3, 11, 127
10, 36231, Note_on_c, 3, 60, 0
10, 36240, Note_on_c, 3, 59, 84
10, 36240, Note_on_c, 3, 55, 84
10, 36591, Note_on_c, 3, 59, 0
10, 36591, Note_on_c, 3, 55, 0
10, 36600, Note_on_c, 3, 59, 92
10, 36600, Note_on_c, 3, 62, 92
10, 36689, Note_on_c, 3, 59, 0
10, 36689, Note_on_c, 3, 62, 0
10, 36720, Note_on_c, 3, 55, 84
10, 36720, Note_on_c, 3, 59, 84
10, 37071, Note_on_c, 3, 55, 0
10, 37071, Note_on_c, 3, 59, 0
10, 37080, Note_on_c, 3, 59, 92
10, 37080, Note_on_c, 3, 62, 92
10, 37169, Note_on_c, 3, 59, 0
10, 37169, Note_on_c, 3, 62, 0
10, 37200, Note_on_c, 3, 59, 84
10, 37200, Note_on_c, 3, 55, 84
10, 37289, Note_on_c, 3, 59, 0
10, 37289, Note_on_c, 3, 55, 0
10, 37320, Note_on_c, 3, 62, 92
10, 37320, Note_on_c, 3, 59, 92
10, 37409, Note_on_c, 3, 62, 0
10, 37409, Note_on_c, 3, 59, 0
10, 37440, Note_on_c, 3, 59, 84
10, 37440, Note_on_c, 3, 55, 84
10, 37529, Note_on_c, 3, 59, 0
10, 37529, Note_on_c, 3, 55, 0
10, 37560, Note_on_c, 3, 59, 92
10, 37560, Note_on_c, 3, 62, 92
10, 37649, Note_on_c, 3, 59, 0
10, 37649, Note_on_c, 3, 62, 0
10, 37680, Note_on_c, 3, 55, 84
10, 37680, Note_on_c, 3, 59, 84
10, 37769, Note_on_c, 3, 55, 0
10, 37769, Note_on_c, 3, 59, 0
10, 37920, Control_c, 3, 11, 96
10, 38160, Note_on_c, 3, 48, 68
10, 38160, Note_on_c, 3, 58, 68
10, 38279, Note_on_c, 3, 48, 0
10, 38399, Note_on_c, 3, 58, 0
10, 38400, Note_on_c, 3, 55, 68
10, 38519, Note_on_c, 3, 55, 0
10, 38520, Note_on_c, 3, 52, 68
10, 38631, Note_on_c, 3, 52, 0
10, 38640, Note_on_c, 3, 48, 68
10, 38759, Note_on_c, 3, 48, 0
10, 38760, Note_on_c, 3, 55, 68
10, 38760, Note_on_c, 3, 52, 68
10, 38849, Note_on_c, 3, 55, 0
10, 38879, Note_on_c, 3, 52, 0
10, 38880, Note_on_c, 3, 52, 68
10, 38880, Note_on_c, 3, 55, 68
10, 38969, Note_on_c, 3, 52, 0
10, 38999, Note_on_c, 3, 55, 0
10, 39000, Note_on_c, 3, 58, 68
10, 39000, Note_on_c, 3, 48, 68
10, 39089, Note_on_c, 3, 48, 0
10, 39111, Note_on_c, 3, 58, 0
10, 39120, Note_on_c, 3, 57, 68
10, 39120, Control_c, 3, 11, 96
10, 39120, Note_on_c, 3, 53, 68
10, 39151, Control_c, 3, 11, 97
10, 39182, Control_c, 3, 11, 98
10, 39213, Control_c, 3, 11, 99
10, 39231, Note_on_c, 3, 53, 0
10, 39239, Note_on_c, 3, 57, 0
10, 39240, Note_on_c, 3, 53, 68
10, 39244, Control_c, 3, 11, 100
10, 39275, Control_c, 3, 11, 101
10, 39306, Control_c, 3, 11, 102
10, 39337, Control_c, 3, 11, 103
10, 39359, Note_on_c, 3, 53, 0
10, 39360, Note_on_c, 3, 52, 68
10, 39360, Note_on_c, 3, 48, 68
10, 39368, Control_c, 3, 11, 104
10, 39399, Control_c, 3, 11, 105
10, 39430, Control_c, 3, 11, 106
10, 39461, Control_c, 3, 11, 107
10, 39479, Note_on_c, 3, 52, 0
10, 39479, Note_on_c, 3, 48, 0
10, 39480, Note_on_c, 3, 58, 68
10, 39492, Control_c, 3, 11, 108
10, 39523, Control_c, 3, 11, 109
10, 39554, Control_c, 3, 11, 110
10, 39585, Control_c, 3, 11, 111
10, 39591, Note_on_c, 3, 58, 0
10, 39600, Note_on_c, 3, 53, 68
10, 39600, Note_on_c, 3, 57, 68
10, 39615, Control_c, 3, 11, 112
10, 39646, Control_c, 3, 11, 113
10, 39677, Control_c, 3, 11, 114
10, 39708, Control_c, 3, 11, 115
10, 39711, Note_on_c, 3, 53, 0
10, 39719, Note_on_c, 3, 57, 0
10, 39720, Note_on_c, 3, 53, 68
10, 39739, Control_c, 3, 11, 116
10, 39770, Control_c, 3, 11, 117
10, 39801, Control_c, 3, 11, 118
10, 39832, Control_c, 3, 11, 119
10, 39839, Note_on_c, 3, 53, 0
10, 39840, Note_on_c, 3, 52, 68
10, 39840, Note_on_c, 3, 48, 68
10, 39863, Control_c, 3, 11, 120
10, 39894, Control_c, 3, 11, 121
10, 39925, Control_c, 3, 11, 122
10, 39956, Control_c, 3, 11, 123
10, 39959, Note_on_c, 3, 52, 0
10, 39959, Note_on_c, 3, 48, 0
10, 39960, Note_on_c, 3, 58, 68
10, 39987, Control_c, 3, 11, 124
10, 40018, Control_c, 3, 11, 125
10, 40049, Control_c, 3, 11, 127
10, 40071, Note_on_c, 3, 58, 0
10, 40080, Note_on_c, 3, 53, 52
10, 40080, Note_on_c, 3, 57, 52
10, 40199, Note_on_c, 3, 53, 0
10, 40199, Note_on_c, 3, 57, 0
10, 40680, Note_on_c, 3, 67, 52
10, 40799, Note_on_c, 3, 67, 0
10, 40800, Note_on_c, 3, 65, 52
10, 40919, Note_on_c, 3, 65, 0
10, 40920, Note_on_c, 3, 62, 52
10, 41031, Note_on_c, 3, 62, 0
10, 41040, Note_on_c, 3, 59, 52
10, 41040, Note_on_c, 3, 62, 52
10, 41279, Note_on_c, 3, 59, 0
10, 41279, Note_on_c, 3, 62, 0
10, 41280, Note_on_c, 3, 60, 52
10, 41280, Note_on_c, 3, 64, 52
10, 41511, Note_on_c, 3, 60, 0
10, 41511, Note_on_c, 3, 64, 0
10, 41520, Note_on_c, 3, 59, 52
10, 41520, Note_on_c, 3, 62, 52
10, 41759, Note_on_c, 3, 59, 0
10, 41759, Note_on_c, 3, 62, 0
10, 41760, Note_on_c, 3, 64, 52
10, 41760, Note_on_c, 3, 60, 52
10, 41991, Note_on_c, 3, 64, 0
10, 41991, Note_on_c, 3, 60, 0
10, 42000, Note_on_c, 3, 62, 52
10, 42000, Note_on_c, 3, 59, 52
10, 42119, Note_on_c, 3, 62, 0
10, 42119, Note_on_c, 3, 59, 0
10, 42480, Note_on_c, 3, 55, 52
10, 42839, Note_on_c, 3, 55, 0
10, 42840, Note_on_c, 3, 57, 52
10, 42899, Note_on_c, 3, 57, 0
10, 42900, Note_on_c, 3, 59, 52
10, 42951, Note_on_c, 3, 59, 0
10, 42960, Note_on_c, 3, 60, 52
10, 43079, Note_on_c, 3, 60, 0
10, 43680, Control_c, 3, 11, 64
10, 43920, Control_c, 3, 11, 64
10, 43920, Note_on_c, 3, 53, 84
10, 43920, Note_on_c, 3, 45, 84
10, 43973, Control_c, 3, 11, 65
10, 44027, Control_c, 3, 11, 67
10, 44080, Control_c, 3, 11, 68
10, 44133, Control_c, 3, 11, 69
10, 44159, Note_on_c, 3, 53, 0
10, 44160, Note_on_c, 3, 57, 84
10, 44187, Control_c, 3, 11, 71
10, 44240, Control_c, 3, 11, 72
10, 44293, Control_c, 3, 11, 73
10, 44347, Control_c, 3, 11, 75
10, 44391, Note_on_c, 3, 45, 0
10, 44391, Note_on_c, 3, 57, 0
10, 44400, Control_c, 3, 11, 76
10, 44400, Note_on_c, 3, 60, 84
10, 44400, Note_on_c, 3, 41, 84
10, 44453, Control_c, 3, 11, 77
10, 44507, Control_c, 3, 11, 79
10, 44511, Note_on_c, 3, 41, 0
10, 44520, Note_on_c, 3, 53, 84
10, 44560, Control_c, 3, 11, 80
10, 44613, Control_c, 3, 11, 81
10, 44667, Control_c, 3, 11, 83
10, 44699, Note_on_c, 3, 60, 0
10, 44700, Note_on_c, 3, 57, 84
10, 44720, Control_c, 3, 11, 84
10, 44751, Note_on_c, 3, 53, 0
10, 44759, Note_on_c, 3, 57, 0
10, 44760, Note_on_c, 3, 53, 84
10, 44760, Note_on_c, 3, 65, 84
10, 44773, Control_c, 3, 11, 85
10, 44819, Note_on_c, 3, 65, 0
10, 44820, Note_on_c, 3, 62, 84
10, 44827, Control_c, 3, 11, 87
10, 44871, Note_on_c, 3, 53, 0
10, 44871, Note_on_c, 3, 62, 0
10, 44880, Note_on_c, 3, 62, 84
10, 44880, Note_on_c, 3, 55, 84
10, 44880, Control_c, 3, 11, 88
10, 44933, Control_c, 3, 11, 89
10, 44987, Control_c, 3, 11, 91
10, 44999, Note_on_c, 3, 62, 0
10, 45000, Note_on_c, 3, 60, 84
10, 45040, Control_c, 3, 11, 92
10, 45093, Control_c, 3, 11, 93
10, 45111, Note_on_c, 3, 55, 0
10, 45120, Note_on_c, 3, 53, 84
10, 45147, Control_c, 3, 11, 95
10, 45200, Control_c, 3, 11, 96
10, 45239, Note_on_c, 3, 60, 0
10, 45240, Note_on_c, 3, 59, 84
10, 45253, Control_c, 3, 11, 97
10, 45299, Note_on_c, 3, 59, 0
10, 45300, Note_on_c, 3, 67, 84
10, 45307, Control_c, 3, 11, 99
10, 45351, Note_on_c, 3, 53, 0
10, 45351, Note_on_c, 3, 67, 0
10, 45360, Control_c, 3, 11, 100
10, 45360, Note_on_c, 3, 52, 84
10, 45360, Note_on_c, 3, 67, 84
10, 45413, Control_c, 3, 11, 101
10, 45419, Note_on_c, 3, 67, 0
10, 45420, Note_on_c, 3, 66, 84
10, 45467, Control_c, 3, 11, 103
10, 45479, Note_on_c, 3, 66, 0
10, 45480, Note_on_c, 3, 67, 84
10, 45520, Control_c, 3, 11, 104
10, 45539, Note_on_c, 3, 67, 0
10, 45540, Note_on_c, 3, 68, 84
10, 45573, Control_c, 3, 11, 105
10, 45599, Note_on_c, 3, 52, 0
10, 45599, Note_on_c, 3, 68, 0
10, 45600, Note_on_c, 3, 53, 84
10, 45600, Note_on_c, 3, 69, 84
10, 45627, Control_c, 3, 11, 107
10, 45659, Note_on_c, 3, 53, 0
10, 45659, Note_on_c, 3, 69, 0
10, 45660, Note_on_c, 3, 65, 84
10, 45660, Note_on_c, 3, 57, 84
10, 45680, Control_c, 3, 11, 108
10, 45719, Note_on_c, 3, 65, 0
10, 45719, Note_on_c, 3, 57, 0
10, 45720, Note_on_c, 3, 64, 84
10, 45720, Note_on_c, 3, 55, 84
10, 45733, Control_c, 3, 11, 109
10, 45779, Note_on_c, 3, 64, 0
10, 45779, Note_on_c, 3, 55, 0
10, 45780, Note_on_c, 3, 53, 84
10, 45780, Note_on_c, 3, 62, 84
10, 45787, Control_c, 3, 11, 111
10, 45831, Note_on_c, 3, 53, 0
10, 45831, Note_on_c, 3, 62, 0
10, 45840, Note_on_c, 3, 52, 84
10, 45840, Control_c, 3, 11, 112
10, 45840, Note_on_c, 3, 60, 84
10, 45872, Control_c, 3, 11, 113
10, 45904, Control_c, 3, 11, 114
10, 45936, Control_c, 3, 11, 115
10, 45951, Note_on_c, 3, 52, 0
10, 45951, Note_on_c, 3, 60, 0
10, 45960, Note_on_c, 3, 60, 84
10, 45960, Note_on_c, 3, 64, 84
10, 45968, Control_c, 3, 11, 116
10, 46000, Control_c, 3, 11, 117
10, 46032, Control_c, 3, 11, 118
10, 46064, Control_c, 3, 11, 119
10, 46096, Control_c, 3, 11, 120
10, 46128, Control_c, 3, 11, 121
10, 46160, Control_c, 3, 11, 122
10, 46192, Control_c, 3, 11, 123
10, 46199, Note_on_c, 3, 60, 0
10, 46199, Note_on_c, 3, 64, 0
10, 46200, Note_on_c, 3, 64, 84
10, 46200, Note_on_c, 3, 67, 84
10, 46224, Control_c, 3, 11, 124
10, 46256, Control_c, 3, 11, 125
10, 46288, Control_c, 3, 11, 127
10, 46311, Note_on_c, 3, 64, 0
10, 46311, Note_on_c, 3, 67, 0
10, 46320, Note_on_c, 3, 67, 84
10, 46320, Note_on_c, 3, 65, 84
10, 46671, Note_on_c, 3, 67, 0
10, 46671, Note_on_c, 3, 65, 0
10, 46680, Note_on_c, 3, 55, 84
10, 46680, Note_on_c, 3, 65, 84
10, 46769, Note_on_c, 3, 55, 0
10, 46769, Note_on_c, 3, 65, 0
10, 46770, Note_on_c, 3, 62, 84
10, 46770, Note_on_c, 3, 53, 84
10, 46795, Note_on_c, 3, 62, 0
10, 46795, Note_on_c, 3, 53, 0
10, 46800, Note_on_c, 3, 52, 84
10, 46800, Note_on_c, 3, 60, 84
10, 47151, Note_on_c, 3, 52, 0
10, 47151, Note_on_c, 3, 60, 0
10, 47160, Note_on_c, 3, 55, 92
10, 47160, Note_on_c, 3, 52, 92
10, 47249, Note_on_c, 3, 55, 0
10, 47249, Note_on_c, 3, 52, 0
10, 47280, Note_on_c, 3, 60, 84
10, 47280, Note_on_c, 3, 52, 84
10, 47631, Note_on_c, 3, 60, 0
10, 47631, Note_on_c, 3, 52, 0
10, 47640, Note_on_c, 3, 55, 92
10, 47640, Note_on_c, 3, 52, 92
10, 47729, Note_on_c, 3, 55, 0
10, 47729, Note_on_c, 3, 52, 0
10, 47760, Note_on_c, 3, 60, 84
10, 47760, Note_on_c, 3, 52, 84
10, 47849, Note_on_c, 3, 60, 0
10, 47849, Note_on_c, 3, 52, 0
10, 47880, Note_on_c, 3, 55, 92
10, 47880, Note_on_c, 3, 52, 92
10, 47969, Note_on_c, 3, 55, 0
10, 47969, Note_on_c, 3, 52, 0
10, 48000, Note_on_c, 3, 52, 84
10, 48000, Note_on_c, 3, 60, 84
10, 48089, Note_on_c, 3, 52, 0
10, 48089, Note_on_c, 3, 60, 0
10, 48120, Note_on_c, 3, 55, 92
10, 48120, Note_on_c, 3, 52, 92
10, 48209, Note_on_c, 3, 55, 0
10, 48209, Note_on_c, 3, 52, 0
10, 48240, Note_on_c, 3, 60, 84
10, 48240, Note_on_c, 3, 52, 84
10, 48329, Note_on_c, 3, 60, 0
10, 48329, Note_on_c, 3, 52, 0
10, 54100, Control_c, 3, 11, 109
10, 54120, Control_c, 3, 11, 112
10, 54120, Note_on_c, 3, 65, 68
10, 54140, Control_c, 3, 11, 114
10, 54160, Control_c, 3, 11, 117
10, 54180, Control_c, 3, 11, 119
10, 54200, Control_c, 3, 11, 122
10, 54220, Control_c, 3, 11, 127
10, 54240, Control_c, 3, 11, 127
10, 54260, Control_c, 3, 11, 124
10, 54280, Control_c, 3, 11, 122
10, 54300, Control_c, 3, 11, 119
10, 54320, Control_c, 3, 11, 117
10, 54340, Control_c, 3, 11, 114
10, 54351, Note_on_c, 3, 65, 0
10, 54360, Note_on_c, 3, 60, 68
10, 54360, Control_c, 3, 11, 112
10, 54380, Control_c, 3, 11, 109
10, 54400, Control_c, 3, 11, 106
10, 54420, Control_c, 3, 11, 104
10, 54440, Control_c, 3, 11, 101
10, 54464, Note_on_c, 3, 60, 0
10, 54472, Control_c, 3, 11, 127
10, 54480, Note_on_c, 3, 65, 76
10, 54951, Note_on_c, 3, 65, 0
10, 54960, Note_on_c, 3, 61, 84
10, 55424, Note_on_c, 3, 61, 0
10, 55440, Note_on_c, 3, 64, 76
10, 55791, Note_on_c, 3, 64, 0
10, 55800, Note_on_c, 3, 64, 76
10, 55814, Note_on_c, 3, 64, 0
10, 55815, Note_on_c, 3, 65, 76
10, 55829, Note_on_c, 3, 65, 0
10, 55830, Note_on_c, 3, 64, 76
10, 55844, Note_on_c, 3, 64, 0
10, 55845, Note_on_c, 3, 65, 76
10, 55859, Note_on_c, 3, 65, 0
10, 55860, Note_on_c, 3, 64, 76
10, 55874, Note_on_c, 3, 64, 0
10, 55875, Note_on_c, 3, 65, 76
10, 55889, Note_on_c, 3, 65, 0
10, 55890, Note_on_c, 3, 62, 76
10, 55904, Note_on_c, 3, 62, 0
10, 55905, Note_on_c, 3, 64, 76
10, 55916, Note_on_c, 3, 64, 0
10, 55920, Note_on_c, 3, 65, 76
10, 56039, Note_on_c, 3, 65, 0
10, 57360, Note_on_c, 3, 60, 76
10, 57599, Note_on_c, 3, 60, 0
10, 57600, Note_on_c, 3, 62, 76
10, 57719, Note_on_c, 3, 62, 0
10, 57720, Note_on_c, 3, 64, 76
10, 57831, Note_on_c, 3, 64, 0
10, 57840, Note_on_c, 3, 65, 76
10, 57959, Note_on_c, 3, 65, 0
10, 62160, Note_on_c, 3, 53, 84
10, 62400, Note_on_c, 3, 55, 84
10, 62519, Note_on_c, 3, 55, 0
10, 62520, Note_on_c, 3, 56, 84
10, 62631, Note_on_c, 3, 53, 0
10, 62631, Note_on_c, 3, 56, 0
10, 62640, Note_on_c, 3, 46, 92
10, 62640, Note_on_c, 3, 58, 92
10, 62984, Note_on_c, 3, 58, 0
10, 63000, Note_on_c, 3, 56, 84
10, 63111, Note_on_c, 3, 46, 0
10, 63111, Note_on_c, 3, 56, 0
10, 63120, Note_on_c, 3, 48, 84
10, 63120, Note_on_c, 3, 55, 84
10, 63239, Note_on_c, 3, 55, 0
10, 63240, Note_on_c, 3, 61, 84
10, 63359, Note_on_c, 3, 61, 0
10, 63360, Note_on_c, 3, 60, 84
10, 63479, Note_on_c, 3, 60, 0
10, 63480, Note_on_c, 3, 58, 84
10, 63591, Note_on_c, 3, 48, 0
10, 63591, Note_on_c, 3, 58, 0
10, 63600, Note_on_c, 3, 53, 84
10, 63600, Note_on_c, 3, 56, 84
10, 63719, Note_on_c, 3, 53, 0
10, 63719, Note_on_c, 3, 56, 0
10, 64200, Note_on_c, 3, 46, 92
10, 64200, Note_on_c, 3, 58, 92
10, 64439, Note_on_c, 3, 46, 0
10, 64439, Note_on_c, 3, 58, 0
10, 64440, Note_on_c, 3, 60, 84
10, 64440, Note_on_c, 3, 48, 84
10, 64499, Note_on_c, 3, 60, 0
10, 64499, Note_on_c, 3, 48, 0
10, 64500, Note_on_c, 3, 50, 84
10, 64500, Note_on_c, 3, 62, 84
10, 64551, Note_on_c, 3, 50, 0
10, 64551, Note_on_c, 3, 62, 0
10, 64560, Note_on_c, 3, 63, 84
10, 64560, Note_on_c, 3, 51, 84
10, 64679, Note_on_c, 3, 63, 0
10, 64679, Note_on_c, 3, 51, 0
10, 64800, Note_on_c, 3, 51, 92
10, 64800, Note_on_c, 3, 63, 92
10, 65271, Note_on_c, 3, 51, 0
10, 65271, Note_on_c, 3, 63, 0
10, 65280, Note_on_c, 3, 62, 84
10, 65280, Note_on_c, 3, 50, 84
10, 65631, Note_on_c, 3, 62, 0
10, 65631, Note_on_c, 3, 50, 0
10, 65640, Note_on_c, 3, 63, 84
10, 65640, Note_on_c, 3, 51, 84
10, 65729, Note_on_c, 3, 63, 0
10, 65729, Note_on_c, 3, 51, 0
10, 65760, Note_on_c, 3, 65, 92
10, 65760, Note_on_c, 3, 53, 92
10, 66239, Note_on_c, 3, 65, 0
10, 66239, Note_on_c, 3, 53, 0
10, 66240, Note_on_c, 3, 63, 84
10, 66240, Note_on_c, 3, 51, 84
10, 66359, Note_on_c, 3, 63, 0
10, 66359, Note_on_c, 3, 51, 0
10, 66720, Note_on_c, 3, 67, 84
10, 67011, Note_on_c, 3, 67, 0
10, 67020, Note_on_c, 3, 65, 84
10, 67071, Note_on_c, 3, 65, 0
10, 67080, Note_on_c, 3, 63, 84
10, 67080, Note_on_c, 3, 67, 84
10, 67124, Note_on_c, 3, 63, 0
10, 67124, Note_on_c, 3, 67, 0
10, 67140, Note_on_c, 3, 65, 84
10, 67140, Note_on_c, 3, 62, 84
10, 67184, Note_on_c, 3, 65, 0
10, 67184, Note_on_c, 3, 62, 0
10, 67200, Note_on_c, 3, 60, 84
10, 67200, Note_on_c, 3, 63, 84
10, 67244, Note_on_c, 3, 60, 0
10, 67244, Note_on_c, 3, 63, 0
10, 67260, Note_on_c, 3, 62, 84
10, 67260, Note_on_c, 3, 58, 84
10, 67304, Note_on_c, 3, 62, 0
10, 67304, Note_on_c, 3, 58, 0
10, 67320, Note_on_c, 3, 60, 84
10, 67320, Note_on_c, 3, 56, 84
10, 67364, Note_on_c, 3, 60, 0
10, 67364, Note_on_c, 3, 56, 0
10, 67380, Note_on_c, 3, 55, 84
10, 67380, Note_on_c, 3, 58, 84
10, 67424, Note_on_c, 3, 55, 0
10, 67424, Note_on_c, 3, 58, 0
10, 67440, Note_on_c, 3, 53, 84
10, 67440, Note_on_c, 3, 56, 84
10, 67559, Note_on_c, 3, 53, 0
10, 67559, Note_on_c, 3, 56, 0
10, 67980, Note_on_c, 3, 65, 84
10, 68024, Note_on_c, 3, 65, 0
10, 68040, Note_on_c, 3, 65, 84
10, 68084, Note_on_c, 3, 65, 0
10, 68100, Note_on_c, 3, 63, 84
10, 68100, Note_on_c, 3, 67, 84
10, 68144, Note_on_c, 3, 63, 0
10, 68144, Note_on_c, 3, 67, 0
10, 68160, Note_on_c, 3, 62, 84
10, 68160, Note_on_c, 3, 65, 84
10, 68204, Note_on_c, 3, 62, 0
10, 68204, Note_on_c, 3, 65, 0
10, 68220, Note_on_c, 3, 63, 84
10, 68220, Note_on_c, 3, 60, 84
10, 68264, Note_on_c, 3, 63, 0
10, 68264, Note_on_c, 3, 60, 0
10, 68280, Note_on_c, 3, 59, 84
10, 68280, Note_on_c, 3, 62, 84
10, 68324, Note_on_c, 3, 59, 0
10, 68324, Note_on_c, 3, 62, 0
10, 68340, Note_on_c, 3, 57, 84
10, 68340, Note_on_c, 3, 60, 84
10, 68384, Note_on_c, 3, 57, 0
10, 68384, Note_on_c, 3, 60, 0
10, 68400, Note_on_c, 3, 55, 84
10, 68400, Note_on_c, 3, 59, 84
10, 68519, Note_on_c, 3, 55, 0
10, 68519, Note_on_c, 3, 59, 0
10, 68700, Note_on_c, 3, 59, 84
10, 68700, Note_on_c, 3, 62, 84
10, 68744, Note_on_c, 3, 59, 0
10, 68744, Note_on_c, 3, 62, 0
10, 68760, Note_on_c, 3, 60, 84
10, 68760, Note_on_c, 3, 57, 84
10, 68804, Note_on_c, 3, 60, 0
10, 68804, Note_on_c, 3, 57, 0
10, 68820, Note_on_c, 3, 55, 84
10, 68820, Note_on_c, 3, 59, 84
10, 68864, Note_on_c, 3, 55, 0
10, 68864, Note_on_c, 3, 59, 0
10, 68880, Note_on_c, 3, 60, 84
10, 68880, Note_on_c, 3, 55, 84
10, 68991, Note_on_c, 3, 60, 0
10, 68991, Note_on_c, 3, 55, 0
10, 69000, Note_on_c, 3, 55, 84
10, 69000, Note_on_c, 3, 61, 84
10, 69231, Note_on_c, 3, 55, 0
10, 69231, Note_on_c, 3, 61, 0
10, 69240, Note_on_c, 3, 55, 84
10, 69329, Note_on_c, 3, 55, 0
10, 69360, Note_on_c, 3, 62, 84
10, 69360, Note_on_c, 3, 50, 84
10, 69479, Note_on_c, 3, 62, 0
10, 69479, Note_on_c, 3, 50, 0
10, 69600, Note_on_c, 3, 62, 92
10, 69840, Note_on_c, 3, 63, 84
10, 70071, Note_on_c, 3, 62, 0
10, 70080, Note_on_c, 3, 60, 92
10, 70311, Note_on_c, 3, 63, 0
10, 70320, Note_on_c, 3, 62, 84
10, 70551, Note_on_c, 3, 60, 0
10, 70560, Note_on_c, 3, 58, 92
10, 70791, Note_on_c, 3, 62, 0
10, 70800, Note_on_c, 3, 60, 84
10, 71031, Note_on_c, 3, 58, 0
10, 71040, Note_on_c, 3, 57, 92
10, 71391, Note_on_c, 3, 60, 0
10, 71391, Note_on_c, 3, 57, 0
10, 71400, Note_on_c, 3, 58, 84
10, 71400, Note_on_c, 3, 55, 84
10, 71511, Note_on_c, 3, 58, 0
10, 71511, Note_on_c, 3, 55, 0
10, 71520, Note_on_c, 3, 58, 84
10, 71520, Note_on_c, 3, 55, 84
10, 71631, Note_on_c, 3, 58, 0
10, 71631, Note_on_c, 3, 55, 0
10, 71640, Note_on_c, 3, 55, 84
10, 71640, Note_on_c, 3, 61, 84
10, 71699, Note_on_c, 3, 61, 0
10, 71700, Note_on_c, 3, 62, 84
10, 71751, Note_on_c, 3, 55, 0
10, 71751, Note_on_c, 3, 62, 0
10, 71760, Note_on_c, 3, 55, 84
10, 71760, Note_on_c, 3, 64, 84
10, 71849, Note_on_c, 3, 55, 0
10, 71849, Note_on_c, 3, 64, 0
10, 73440, Note_on_c, 3, 62, 52
10, 73680, Note_on_c, 3, 55, 52
10, 73799, Note_on_c, 3, 62, 0
10, 73799, Note_on_c, 3, 55, 0
10, 79440, Note_on_c, 3, 62, 84
10, 79440, Note_on_c, 3, 65, 84
10, 80031, Note_on_c, 3, 62, 0
10, 80031, Note_on_c, 3, 65, 0
10, 80040, Note_on_c, 3, 62, 84
10, 80040, Note_on_c, 3, 65, 84
10, 80151, Note_on_c, 3, 62, 0
10, 80151, Note_on_c, 3, 65, 0
10, 80160, Note_on_c, 3, 65, 84
10, 80160, Note_on_c, 3, 62, 84
10, 80271, Note_on_c, 3, 65, 0
10, 80271, Note_on_c, 3, 62, 0
10, 80280, Note_on_c, 3, 62, 84
10, 80280, Note_on_c, 3, 65, 84
10, 80391, Note_on_c, 3, 62, 0
10, 80391, Note_on_c, 3, 65, 0
10, 80400, Note_on_c, 3, 65, 84
10, 80400, Note_on_c, 3, 62, 84
10, 80519, Note_on_c, 3, 65, 0
10, 80519, Note_on_c, 3, 62, 0
10, 81960, Note_on_c, 3, 56, 52
10, 82079, Note_on_c, 3, 56, 0
10, 82080, Note_on_c, 3, 55, 52
10, 82199, Note_on_c, 3, 55, 0
10, 82200, Note_on_c, 3, 59, 60
10, 82311, Note_on_c, 3, 59, 0
10, 82320, Note_on_c, 3, 55, 52
10, 82439, Note_on_c, 3, 55, 0
10, 82440, Note_on_c, 3, 62, 60
10, 82559, Note_on_c, 3, 62, 0
10, 82560, Note_on_c, 3, 55, 52
10, 82679, Note_on_c, 3, 55, 0
10, 82680, Note_on_c, 3, 67, 60
10, 82791, Note_on_c, 3, 67, 0
10, 82800, Note_on_c, 3, 55, 52
10, 82919, Note_on_c, 3, 55, 0
10, 82920, Note_on_c, 3, 56, 60
10, 82920, Note_on_c, 3, 60, 52
10, 83001, Note_on_c, 3, 60, 0
10, 83010, Note_on_c, 3, 60, 52
10, 83035, Note_on_c, 3, 60, 0
10, 83039, Note_on_c, 3, 56, 0
10, 83040, Note_on_c, 3, 55, 52
10, 83040, Note_on_c, 3, 60, 52
10, 83151, Note_on_c, 3, 60, 0
10, 83159, Note_on_c, 3, 55, 0
10, 83160, Note_on_c, 3, 60, 60
10, 83271, Note_on_c, 3, 60, 0
10, 83280, Note_on_c, 3, 55, 52
10, 83399, Note_on_c, 3, 55, 0
10, 83400, Note_on_c, 3, 63, 60
10, 83400, Note_on_c, 3, 60, 52
10, 83481, Note_on_c, 3, 60, 0
10, 83490, Note_on_c, 3, 60, 52
10, 83515, Note_on_c, 3, 60, 0
10, 83519, Note_on_c, 3, 63, 0
10, 83520, Note_on_c, 3, 60, 52
10, 83520, Note_on_c, 3, 55, 52
10, 83631, Note_on_c, 3, 60, 0
10, 83639, Note_on_c, 3, 55, 0
10, 83640, Note_on_c, 3, 67, 60
10, 83640, Note_on_c, 3, 60, 52
10, 83751, Note_on_c, 3, 67, 0
10, 83751, Note_on_c, 3, 60, 0
10, 83760, Note_on_c, 3, 55, 52
10, 83879, Note_on_c, 3, 55, 0
10, 83880, Note_on_c, 3, 56, 60
10, 83880, Note_on_c, 3, 60, 52
10, 83961, Note_on_c, 3, 60, 0
10, 83970, Note_on_c, 3, 60, 52
10, 83995, Note_on_c, 3, 60, 0
10, 83999, Note_on_c, 3, 56, 0
10, 84000, Note_on_c, 3, 55, 52
10, 84000, Note_on_c, 3, 60, 52
10, 84111, Note_on_c, 3, 60, 0
10, 84119, Note_on_c, 3, 55, 0
10, 84120, Note_on_c, 3, 60, 60
10, 84231, Note_on_c, 3, 60, 0
10, 84240, Note_on_c, 3, 55, 52
10, 84359, Note_on_c, 3, 55, 0
10, 84360, Note_on_c, 3, 60, 52
10, 84360, Note_on_c, 3, 63, 60
10, 84441, Note_on_c, 3, 60, 0
10, 84450, Note_on_c, 3, 60, 52
10, 84475, Note_on_c, 3, 60, 0
10, 84479, Note_on_c, 3, 63, 0
10, 84480, Note_on_c, 3, 59, 52
10, 84480, Note_on_c, 3, 55, 52
10, 84591, Note_on_c, 3, 59, 0
10, 84599, Note_on_c, 3, 55, 0
10, 84600, Note_on_c, 3, 67, 60
10, 84600, Note_on_c, 3, 59, 52
10, 84719, Note_on_c, 3, 67, 0
10, 84719, Note_on_c, 3, 59, 0
10, 84840, Note_on_c, 3, 59, 52
10, 84840, Note_on_c, 3, 62, 52
10, 84921, Note_on_c, 3, 59, 0
10, 84921, Note_on_c, 3, 62, 0
10, 84930, Note_on_c, 3, 59, 52
10, 84930, Note_on_c, 3, 62, 52
10, 84955, Note_on_c, 3, 59, 0
10, 84955, Note_on_c, 3, 62, 0
10, 84960, Note_on_c, 3, 59, 52
10, 84960, Note_on_c, 3, 62, 52
10, 85071, Note_on_c, 3, 59, 0
10, 85071, Note_on_c, 3, 62, 0
10, 85080, Note_on_c, 3, 62, 52
10, 85080, Note_on_c, 3, 59, 52
10, 85199, Note_on_c, 3, 62, 0
10, 85199, Note_on_c, 3, 59, 0
10, 85200, Control_c, 3, 11, 96
10, 85320, Note_on_c, 3, 59, 68
10, 85320, Control_c, 3, 11, 96
10, 85320, Note_on_c, 3, 62, 68
10, 85340, Control_c, 3, 11, 98
10, 85360, Control_c, 3, 11, 99
10, 85380, Control_c, 3, 11, 101
10, 85400, Control_c, 3, 11, 103
10, 85401, Note_on_c, 3, 59, 0
10, 85401, Note_on_c, 3, 62, 0
10, 85410, Note_on_c, 3, 59, 68
10, 85410, Note_on_c, 3, 62, 68
10, 85420, Control_c, 3, 11, 105
10, 85435, Note_on_c, 3, 59, 0
10, 85435, Note_on_c, 3, 62, 0
10, 85440, Note_on_c, 3, 62, 68
10, 85440, Note_on_c, 3, 59, 68
10, 85440, Control_c, 3, 11, 106
10, 85460, Control_c, 3, 11, 108
10, 85480, Control_c, 3, 11, 110
10, 85500, Control_c, 3, 11, 112
10, 85520, Control_c, 3, 11, 113
10, 85540, Control_c, 3, 11, 115
10, 85551, Note_on_c, 3, 62, 0
10, 85551, Note_on_c, 3, 59, 0
10, 85560, Control_c, 3, 11, 117
10, 85560, Note_on_c, 3, 59, 68
10, 85560, Note_on_c, 3, 62, 68
10, 85580, Control_c, 3, 11, 118
10, 85600, Control_c, 3, 11, 120
10, 85620, Control_c, 3, 11, 122
10, 85640, Control_c, 3, 11, 124
10, 85660, Control_c, 3, 11, 125
10, 85671, Note_on_c, 3, 59, 0
10, 85671, Note_on_c, 3, 62, 0
10, 85680, Note_on_c, 3, 62, 68
10, 85680, Control_c, 3, 11, 127
10, 85680, Note_on_c, 3, 58, 68
10, 85700, Control_c, 3, 11, 126
10, 85720, Control_c, 3, 11, 124
10, 85740, Control_c, 3, 11, 123
10, 85760, Control_c, 3, 11, 122
10, 85780, Control_c, 3, 11, 121
10, 85799, Note_on_c, 3, 62, 0
10, 85799, Note_on_c, 3, 58, 0
10, 85800, Note_on_c, 3, 50, 68
10, 85800, Note_on_c, 3, 53, 68
10, 85800, Control_c, 3, 11, 119
10, 85820, Control_c, 3, 11, 118
10, 85840, Control_c, 3, 11, 117
10, 85860, Control_c, 3, 11, 115
10, 85880, Control_c, 3, 11, 114
10, 85900, Control_c, 3, 11, 113
10, 85919, Note_on_c, 3, 50, 0
10, 85919, Note_on_c, 3, 53, 0
10, 85920, Control_c, 3, 11, 112
10, 85920, Note_on_c, 3, 55, 68
10, 85920, Note_on_c, 3, 51, 68
10, 85940, Control_c, 3, 11, 110
10, 85960, Control_c, 3, 11, 109
10, 85980, Control_c, 3, 11, 108
10, 86000, Control_c, 3, 11, 106
10, 86020, Control_c, 3, 11, 105
10, 86039, Note_on_c, 3, 55, 0
10, 86039, Note_on_c, 3, 51, 0
10, 86040, Note_on_c, 3, 53, 68
10, 86040, Note_on_c, 3, 56, 68
10, 86040, Control_c, 3, 11, 104
10, 86060, Control_c, 3, 11, 102
10, 86080, Control_c, 3, 11, 101
10, 86100, Control_c, 3, 11, 100
10, 86120, Control_c, 3, 11, 99
10, 86140, Control_c, 3, 11, 96
10, 86151, Note_on_c, 3, 53, 0
10, 86151, Note_on_c, 3, 56, 0
10, 86160, Note_on_c, 3, 51, 68
10, 86160, Note_on_c, 3, 55, 68
10, 86271, Note_on_c, 3, 51, 0
10, 86271, Note_on_c, 3, 55, 0
10, 86280, Note_on_c, 3, 56, 68
10, 86280, Note_on_c, 3, 60, 68
10, 86361, Note_on_c, 3, 56, 0
10, 86361, Note_on_c, 3, 60, 0
10, 86370, Note_on_c, 3, 56, 68
10, 86370, Note_on_c, 3, 60, 68
10, 86395, Note_on_c, 3, 56, 0
10, 86395, Note_on_c, 3, 60, 0
10, 86400, Note_on_c, 3, 58, 68
10, 86400, Note_on_c, 3, 51, 68
10, 86519, Note_on_c, 3, 58, 0
10, 86519, Note_on_c, 3, 51, 0
10, 88560, Note_on_c, 3, 60, 68
10, 88560, Note_on_c, 3, 52, 68
10, 88791, Note_on_c, 3, 60, 0
10, 88799, Note_on_c, 3, 52, 0
10, 88800, Note_on_c, 3, 60, 68
10, 88800, Note_on_c, 3, 53, 68
10, 88911, Note_on_c, 3, 60, 0
10, 88919, Note_on_c, 3, 53, 0
10, 88920, Note_on_c, 3, 55, 68
10, 88920, Note_on_c, 3, 60, 68
10, 89031, Note_on_c, 3, 55, 0
10, 89031, Note_on_c, 3, 60, 0
10, 89040, Note_on_c, 3, 60, 68
10, 89040, Control_c, 3, 11, 96
10, 89040, Note_on_c, 3, 56, 68
10, 89060, Control_c, 3, 11, 99
10, 89080, Control_c, 3, 11, 101
10, 89100, Control_c, 3, 11, 104
10, 89120, Control_c, 3, 11, 106
10, 89140, Control_c, 3, 11, 109
10, 89160, Control_c, 3, 11, 112
10, 89180, Control_c, 3, 11, 114
10, 89200, Control_c, 3, 11, 117
10, 89220, Control_c, 3, 11, 119
10, 89240, Control_c, 3, 11, 122
10, 89260, Control_c, 3, 11, 127
10, 89271, Note_on_c, 3, 60, 0
10, 89271, Note_on_c, 3, 56, 0
10, 89280, Note_on_c, 3, 56, 76
10, 89280, Note_on_c, 3, 44, 76
10, 89340, Control_c, 3, 11, 112
10, 89360, Control_c, 3, 11, 108
10, 89380, Control_c, 3, 11, 105
10, 89400, Control_c, 3, 11, 101
10, 89420, Control_c, 3, 11, 98
10, 89440, Control_c, 3, 11, 94
10, 89460, Control_c, 3, 11, 91
10, 89480, Control_c, 3, 11, 87
10, 89500, Control_c, 3, 11, 80
10, 89511, Note_on_c, 3, 56, 0
10, 89511, Note_on_c, 3, 44, 0
10, 89520, Note_on_c, 3, 55, 76
10, 89520, Note_on_c, 3, 43, 76
10, 89639, Note_on_c, 3, 55, 0
10, 89639, Note_on_c, 3, 43, 0
10, 89760, Control_c, 3, 11, 96
10, 90000, Note_on_c, 3, 60, 68
10, 90000, Control_c, 3, 11, 96
10, 90020, Control_c, 3, 11, 97
10, 90040, Control_c, 3, 11, 99
10, 90060, Control_c, 3, 11, 100
10, 90080, Control_c, 3, 11, 101
10, 90100, Control_c, 3, 11, 102
10, 90120, Control_c, 3, 11, 104
10, 90140, Control_c, 3, 11, 105
10, 90160, Control_c, 3, 11, 106
10, 90180, Control_c, 3, 11, 108
10, 90200, Control_c, 3, 11, 109
10, 90220, Control_c, 3, 11, 110
10, 90239, Note_on_c, 3, 60, 0
10, 90240, Control_c, 3, 11, 112
10, 90240, Note_on_c, 3, 59, 68
10, 90260, Control_c, 3, 11, 113
10, 90280, Control_c, 3, 11, 114
10, 90300, Control_c, 3, 11, 115
10, 90320, Control_c, 3, 11, 117
10, 90340, Control_c, 3, 11, 118
10, 90359, Note_on_c, 3, 59, 0
10, 90360, Control_c, 3, 11, 119
10, 90360, Note_on_c, 3, 60, 68
10, 90380, Control_c, 3, 11, 121
10, 90400, Control_c, 3, 11, 122
10, 90420, Control_c, 3, 11, 123
10, 90440, Control_c, 3, 11, 124
10, 90460, Control_c, 3, 11, 126
10, 90471, Note_on_c, 3, 60, 0
10, 90480, Note_on_c, 3, 55, 68
10, 90480, Control_c, 3, 11, 127
10, 90480, Note_on_c, 3, 59, 68
10, 90500, Control_c, 3, 11, 126
10, 90520, Control_c, 3, 11, 124
10, 90540, Control_c, 3, 11, 123
10, 90560, Control_c, 3, 11, 122
10, 90580, Control_c, 3, 11, 121
10, 90600, Control_c, 3, 11, 119
10, 90620, Control_c, 3, 11, 118
10, 90640, Control_c, 3, 11, 117
10, 90660, Control_c, 3, 11, 115
10, 90680, Control_c, 3, 11, 114
10, 90700, Control_c, 3, 11, 113
10, 90720, Control_c, 3, 11, 112
10, 90740, Control_c, 3, 11, 110
10, 90760, Control_c, 3, 11, 109
10, 90780, Control_c, 3, 11, 108
10, 90800, Control_c, 3, 11, 106
10, 90820, Control_c, 3, 11, 105
10, 90839, Note_on_c, 3, 55, 0
10, 90839, Note_on_c, 3, 59, 0
10, 90840, Note_on_c, 3, 62, 68
10, 90840, Control_c, 3, 11, 104
10, 90840, Note_on_c, 3, 65, 68
10, 90860, Control_c, 3, 11, 102
10, 90880, Control_c, 3, 11, 101
10, 90900, Control_c, 3, 11, 100
10, 90920, Control_c, 3, 11, 99
10, 90940, Control_c, 3, 11, 96
10, 90959, Note_on_c, 3, 62, 0
10, 90959, Note_on_c, 3, 65, 0
10, 90960, Note_on_c, 3, 60, 68
10, 90960, Note_on_c, 3, 63, 68
10, 91199, Note_on_c, 3, 60, 0
10, 91199, Note_on_c, 3, 63, 0
10, 91200, Note_on_c, 3, 62, 68
10, 91200, Note_on_c, 3, 58, 68
10, 91319, Note_on_c, 3, 62, 0
10, 91319, Note_on_c, 3, 58, 0
10, 91320, Note_on_c, 3, 56, 68
10, 91320, Note_on_c, 3, 60, 68
10, 91431, Note_on_c, 3, 56, 0
10, 91431, Note_on_c, 3, 60, 0
10, 91440, Note_on_c, 3, 59, 68
10, 91440, Note_on_c, 3, 55, 68
10, 91559, Note_on_c, 3, 59, 0
10, 91559, Note_on_c, 3, 55, 0
10, 92400, Control_c, 3, 11, 96
10, 92420, Control_c, 3, 11, 97
10, 92440, Control_c, 3, 11, 99
10, 92460, Control_c, 3, 11, 100
10, 92460, Note_on_c, 3, 62, 68
10, 92480, Control_c, 3, 11, 101
10, 92500, Control_c, 3, 11, 102
10, 92511, Note_on_c, 3, 62, 0
10, 92520, Note_on_c, 3, 63, 68
10, 92520, Control_c, 3, 11, 104
10, 92540, Control_c, 3, 11, 105
10, 92560, Control_c, 3, 11, 106
10, 92571, Note_on_c, 3, 63, 0
10, 92580, Control_c, 3, 11, 108
10, 92580, Note_on_c, 3, 62, 68
10, 92600, Control_c, 3, 11, 109
10, 92620, Control_c, 3, 11, 110
10, 92631, Note_on_c, 3, 62, 0
10, 92640, Note_on_c, 3, 63, 68
10, 92640, Control_c, 3, 11, 112
10, 92660, Control_c, 3, 11, 113
10, 92680, Control_c, 3, 11, 114
10, 92691, Note_on_c, 3, 63, 0
10, 92700, Control_c, 3, 11, 115
10, 92700, Note_on_c, 3, 64, 68
10, 92720, Control_c, 3, 11, 117
10, 92740, Control_c, 3, 11, 118
10, 92751, Note_on_c, 3, 64, 0
10, 92760, Note_on_c, 3, 65, 68
10, 92760, Control_c, 3, 11, 119
10, 92780, Control_c, 3, 11, 121
10, 92800, Control_c, 3, 11, 122
10, 92811, Note_on_c, 3, 65, 0
10, 92820, Note_on_c, 3, 66, 68
10, 92820, Control_c, 3, 11, 123
10, 92840, Control_c, 3, 11, 124
10, 92860, Control_c, 3, 11, 127
10, 92864, Note_on_c, 3, 66, 0
10, 92880, Note_on_c, 3, 67, 68
10, 93120, Note_on_c, 3, 48, 76
10, 93180, Control_c, 3, 11, 112
10, 93195, Control_c, 3, 11, 109
10, 93210, Control_c, 3, 11, 107
10, 93225, Control_c, 3, 11, 104
10, 93231, Note_on_c, 3, 67, 0
10, 93240, Control_c, 3, 11, 101
10, 93240, Note_on_c, 3, 58, 76
10, 93255, Control_c, 3, 11, 99
10, 93270, Control_c, 3, 11, 96
10, 93285, Control_c, 3, 11, 93
10, 93300, Control_c, 3, 11, 91
10, 93315, Control_c, 3, 11, 88
10, 93330, Control_c, 3, 11, 85
10, 93344, Note_on_c, 3, 48, 0
10, 93345, Control_c, 3, 11, 80
10, 93351, Note_on_c, 3, 58, 0
10, 93360, Note_on_c, 3, 56, 76
10, 93360, Note_on_c, 3, 53, 76
10, 93471, Note_on_c, 3, 56, 0
10, 93471, Note_on_c, 3, 53, 0
10, 93480, Note_on_c, 3, 60, 76
10, 93480, Note_on_c, 3, 53, 76
10, 93561, Note_on_c, 3, 60, 0
10, 93561, Note_on_c, 3, 53, 0
10, 93570, Note_on_c, 3, 53, 76
10, 93570, Note_on_c, 3, 60, 76
10, 93595, Note_on_c, 3, 53, 0
10, 93595, Note_on_c, 3, 60, 0
10, 93600, Note_on_c, 3, 60, 76
10, 93600, Note_on_c, 3, 53, 76
10, 93711, Note_on_c, 3, 60, 0
10, 93711, Note_on_c, 3, 53, 0
10, 93720, Note_on_c, 3, 53, 76
10, 93720, Note_on_c, 3, 60, 76
10, 93839, Note_on_c, 3, 53, 0
10, 93839, Note_on_c, 3, 60, 0
10, 93960, Note_on_c, 3, 61, 76
10, 94041, Note_on_c, 3, 61, 0
10, 94050, Note_on_c, 3, 61, 76
10, 94075, Note_on_c, 3, 61, 0
10, 94080, Note_on_c, 3, 61, 76
10, 94191, Note_on_c, 3, 61, 0
10, 94200, Note_on_c, 3, 61, 76
10, 94319, Note_on_c, 3, 61, 0
10, 94320, Control_c, 3, 11, 80
10, 94340, Control_c, 3, 11, 82
10, 94360, Control_c, 3, 11, 84
10, 94380, Control_c, 3, 11, 86
10, 94400, Control_c, 3, 11, 88
10, 94420, Control_c, 3, 11, 90
10, 94440, Note_on_c, 3, 65, 76
10, 94440, Note_on_c, 3, 62, 76
10, 94440, Control_c, 3, 11, 92
10, 94460, Control_c, 3, 11, 94
10, 94480, Control_c, 3, 11, 96
10, 94500, Control_c, 3, 11, 98
10, 94520, Control_c, 3, 11, 100
10, 94521, Note_on_c, 3, 65, 0
10, 94521, Note_on_c, 3, 62, 0
10, 94530, Note_on_c, 3, 62, 76
10, 94530, Note_on_c, 3, 65, 76
10, 94540, Control_c, 3, 11, 102
10, 94555, Note_on_c, 3, 62, 0
10, 94555, Note_on_c, 3, 65, 0
10, 94560, Note_on_c, 3, 65, 76
10, 94560, Note_on_c, 3, 62, 76
10, 94560, Control_c, 3, 11, 104
10, 94580, Control_c, 3, 11, 105
10, 94600, Control_c, 3, 11, 107
10, 94620, Control_c, 3, 11, 109
10, 94640, Control_c, 3, 11, 111
10, 94660, Control_c, 3, 11, 113
10, 94671, Note_on_c, 3, 65, 0
10, 94671, Note_on_c, 3, 62, 0
10, 94680, Control_c, 3, 11, 115
10, 94680, Note_on_c, 3, 53, 76
10, 94680, Note_on_c, 3, 65, 76
10, 94700, Control_c, 3, 11, 117
10, 94720, Control_c, 3, 11, 119
10, 94740, Control_c, 3, 11, 121
10, 94760, Control_c, 3, 11, 123
10, 94780, Control_c, 3, 11, 127
10, 94791, Note_on_c, 3, 53, 0
10, 94791, Note_on_c, 3, 65, 0
10, 94800, Note_on_c, 3, 63, 76
10, 94800, Note_on_c, 3, 51, 76
10, 94889, Note_on_c, 3, 63, 0
10, 94889, Note_on_c, 3, 51, 0
10, 94920, Note_on_c, 3, 60, 76
10, 94920, Note_on_c, 3, 53, 76
10, 95009, Note_on_c, 3, 60, 0
10, 95009, Note_on_c, 3, 53, 0
10, 95160, Note_on_c, 3, 56, 52
10, 95160, Note_on_c, 3, 60, 52
10, 95391, Note_on_c, 3, 56, 0
10, 95391, Note_on_c, 3, 60, 0
10, 95400, Note_on_c, 3, 55, 52
10, 95400, Note_on_c, 3, 63, 52
10, 95400, Control_c, 3, 11, 127
10, 95416, Control_c, 3, 11, 126
10, 95432, Control_c, 3, 11, 125
10, 95448, Control_c, 3, 11, 124
10, 95464, Control_c, 3, 11, 123
10, 95480, Control_c, 3, 11, 122
10, 95496, Control_c, 3, 11, 121
10, 95512, Control_c, 3, 11, 120
10, 95519, Note_on_c, 3, 63, 0
10, 95520, Note_on_c, 3, 62, 52
10, 95528, Control_c, 3, 11, 119
10, 95544, Control_c, 3, 11, 118
10, 95560, Control_c, 3, 11, 117
10, 95576, Control_c, 3, 11, 116
10, 95592, Control_c, 3, 11, 115
10, 95608, Control_c, 3, 11, 114
10, 95624, Control_c, 3, 11, 112
10, 95631, Note_on_c, 3, 55, 0
10, 95631, Note_on_c, 3, 62, 0
10, 95640, Note_on_c, 3, 62, 52
10, 95640, Note_on_c, 3, 55, 52
10, 95729, Note_on_c, 3, 62, 0
10, 95730, Note_on_c, 3, 59, 52
10, 95751, Note_on_c, 3, 55, 0
10, 95755, Note_on_c, 3, 59, 0
10, 95760, Note_on_c, 3, 48, 52
10, 95760, Note_on_c, 3, 60, 52
10, 95871, Note_on_c, 3, 48, 0
10, 95871, Note_on_c, 3, 60, 0
10, 95880, Note_on_c, 3, 51, 52
10, 95999, Note_on_c, 3, 51, 0
10, 96000, Note_on_c, 3, 55, 52
10, 96119, Note_on_c, 3, 55, 0
10, 96120, Note_on_c, 3, 59, 52
10, 96231, Note_on_c, 3, 59, 0
10, 96240, Note_on_c, 3, 60, 52
10, 96359, Note_on_c, 3, 60, 0
10, 96360, Note_on_c, 3, 55, 52
10, 96479, Note_on_c, 3, 55, 0
10, 96480, Note_on_c, 3, 51, 52
10, 96599, Note_on_c, 3, 51, 0
10, 96600, Note_on_c, 3, 48, 52
10, 96711, Note_on_c, 3, 48, 0
10, 96720, Note_on_c, 3, 47, 52
10, 96839, Note_on_c, 3, 47, 0
10, 96840, Note_on_c, 3, 43, 52
10, 96959, Note_on_c, 3, 43, 0
10, 96960, Note_on_c, 3, 48, 52
10, 97079, Note_on_c, 3, 48, 0
10, 97080, Note_on_c, 3, 51, 52
10, 97191, Note_on_c, 3, 51, 0
10, 97200, Note_on_c, 3, 55, 52
10, 97439, Note_on_c, 3, 55, 0
10, 97440, Note_on_c, 3, 43, 52
10, 97559, Note_on_c, 3, 43, 0
10, 97650, Control_c, 3, 11, 127
10, 97680, Note_on_c, 3, 62, 76
10, 97680, Note_on_c, 3, 53, 76
10, 97911, Note_on_c, 3, 62, 0
10, 97911, Note_on_c, 3, 53, 0
10, 97920, Note_on_c, 3, 62, 76
10, 97920, Note_on_c, 3, 53, 76
10, 98121, Note_on_c, 3, 62, 0
10, 98121, Note_on_c, 3, 53, 0
10, 98130, Note_on_c, 3, 62, 76
10, 98130, Note_on_c, 3, 53, 76
10, 98155, Note_on_c, 3, 62, 0
10, 98155, Note_on_c, 3, 53, 0
10, 98160, Note_on_c, 3, 63, 84
10, 98160, Note_on_c, 3, 54, 84
10, 98220, Control_c, 3, 11, 112
10, 98238, Control_c, 3, 11, 110
10, 98255, Control_c, 3, 11, 108
10, 98273, Control_c, 3, 11, 106
10, 98290, Control_c, 3, 11, 104
10, 98308, Control_c, 3, 11, 102
10, 98325, Control_c, 3, 11, 100
10, 98343, Control_c, 3, 11, 98
10, 98360, Control_c, 3, 11, 96
10, 98378, Control_c, 3, 11, 94
10, 98395, Control_c, 3, 11, 92
10, 98413, Control_c, 3, 11, 90
10, 98430, Control_c, 3, 11, 88
10, 98448, Control_c, 3, 11, 86
10, 98465, Control_c, 3, 11, 84
10, 98483, Control_c, 3, 11, 82
10, 98500, Control_c, 3, 11, 80
10, 98518, Control_c, 3, 11, 78
10, 98519, Note_on_c, 3, 63, 0
10, 98520, Note_on_c, 3, 62, 84
10, 98535, Control_c, 3, 11, 76
10, 98553, Control_c, 3, 11, 74
10, 98570, Control_c, 3, 11, 72
10, 98579, Note_on_c, 3, 62, 0
10, 98580, Note_on_c, 3, 60, 84
10, 98588, Control_c, 3, 11, 70
10, 98605, Control_c, 3, 11, 68
10, 98631, Note_on_c, 3, 54, 0
10, 98631, Note_on_c, 3, 60, 0
10, 98636, Control_c, 3, 11, 80
10, 98640, Note_on_c, 3, 60, 76
10, 98640, Note_on_c, 3, 55, 76
10, 98879, Note_on_c, 3, 60, 0
10, 98880, Note_on_c, 3, 59, 76
10, 99111, Note_on_c, 3, 55, 0
10, 99111, Note_on_c, 3, 59, 0
10, 99120, Note_on_c, 3, 60, 76
10, 99120, Note_on_c, 3, 48, 76
10, 99231, Note_on_c, 3, 60, 0
10, 99231, Note_on_c, 3, 48, 0
10, 99240, Control_c, 3, 11, 80
10, 99240, Note_on_c, 3, 67, 76
10, 99240, Note_on_c, 3, 55, 76
10, 99260, Control_c, 3, 11, 79
10, 99280, Control_c, 3, 11, 77
10, 99300, Control_c, 3, 11, 76
10, 99320, Control_c, 3, 11, 75
10, 99340, Control_c, 3, 11, 73
10, 99359, Note_on_c, 3, 67, 0
10, 99359, Note_on_c, 3, 55, 0
10, 99360, Note_on_c, 3, 63, 76
10, 99360, Note_on_c, 3, 51, 76
10, 99360, Control_c, 3, 11, 72
10, 99380, Control_c, 3, 11, 71
10, 99400, Control_c, 3, 11, 69
10, 99420, Control_c, 3, 11, 68
10, 99440, Control_c, 3, 11, 67
10, 99460, Control_c, 3, 11, 64
10, 99479, Note_on_c, 3, 63, 0
10, 99479, Note_on_c, 3, 51, 0
10, 99480, Note_on_c, 3, 60, 76
10, 99480, Note_on_c, 3, 48, 76
10, 99591, Note_on_c, 3, 60, 0
10, 99591, Note_on_c, 3, 48, 0
10, 99600, Note_on_c, 3, 63, 76
10, 99600, Control_c, 3, 11, 64
10, 99600, Note_on_c, 3, 55, 76
10, 99620, Control_c, 3, 11, 67
10, 99640, Control_c, 3, 11, 69
10, 99660, Control_c, 3, 11, 72
10, 99680, Control_c, 3, 11, 75
10, 99700, Control_c, 3, 11, 77
10, 99720, Control_c, 3, 11, 80
10, 99740, Control_c, 3, 11, 82
10, 99760, Control_c, 3, 11, 85
10, 99780, Control_c, 3, 11, 88
10, 99800, Control_c, 3, 11, 90
10, 99820, Control_c, 3, 11, 93
10, 99831, Note_on_c, 3, 55, 0
10, 99839, Note_on_c, 3, 63, 0
10, 99840, Note_on_c, 3, 55, 76
10, 99840, Note_on_c, 3, 62, 76
10, 99840, Control_c, 3, 11, 96
10, 99860, Control_c, 3, 11, 98
10, 99880, Control_c, 3, 11, 101
10, 99900, Control_c, 3, 11, 103
10, 99920, Control_c, 3, 11, 106
10, 99940, Control_c, 3, 11, 109
10, 99960, Control_c, 3, 11, 111
10, 99980, Control_c, 3, 11, 114
10, 100000, Control_c, 3, 11, 117
10, 100020, Control_c, 3, 11, 119
10, 100040, Control_c, 3, 11, 122
10, 100049, Note_on_c, 3, 62, 0
10, 100050, Note_on_c, 3, 60, 76
10, 100060, Control_c, 3, 11, 127
10, 100071, Note_on_c, 3, 55, 0
10, 100075, Note_on_c, 3, 60, 0
10, 100080, Note_on_c, 3, 60, 76
10, 100080, Note_on_c, 3, 56, 76
10, 100199, Note_on_c, 3, 60, 0
10, 100199, Note_on_c, 3, 56, 0
10, 105360, Control_c, 3, 11, 127
10, 105600, Note_on_c, 3, 60, 44
10, 105839, Note_on_c, 3, 60, 0
10, 105840, Note_on_c, 3, 53, 44
10, 106079, Note_on_c, 3, 53, 0
10, 106260, Note_on_c, 3, 53, 44
10, 106311, Note_on_c, 3, 53, 0
10, 106320, Note_on_c, 3, 55, 44
10, 106559, Note_on_c, 3, 55, 0
10, 106740, Note_on_c, 3, 55, 44
10, 106791, Note_on_c, 3, 55, 0
10, 106800, Note_on_c, 3, 48, 44
10, 106919, Note_on_c, 3, 48, 0
10, 108000, Control_c, 3, 11, 96
10, 108240, Note_on_c, 3, 60, 68
10, 108240, Control_c, 3, 11, 96
10, 108280, Control_c, 3, 11, 97
10, 108320, Control_c, 3, 11, 99
10, 108360, Control_c, 3, 11, 100
10, 108400, Control_c, 3, 11, 101
10, 108440, Control_c, 3, 11, 102
10, 108479, Note_on_c, 3, 60, 0
10, 108480, Note_on_c, 3, 58, 68
10, 108480, Control_c, 3, 11, 104
10, 108520, Control_c, 3, 11, 105
10, 108560, Control_c, 3, 11, 106
10, 108599, Note_on_c, 3, 58, 0
10, 108600, Note_on_c, 3, 53, 68
10, 108600, Note_on_c, 3, 56, 68
10, 108600, Control_c, 3, 11, 108
10, 108640, Control_c, 3, 11, 109
10, 108680, Control_c, 3, 11, 110
10, 108711, Note_on_c, 3, 53, 0
10, 108711, Note_on_c, 3, 56, 0
10, 108720, Control_c, 3, 11, 112
10, 108720, Note_on_c, 3, 58, 68
10, 108720, Note_on_c, 3, 55, 68
10, 108760, Control_c, 3, 11, 113
10, 108800, Control_c, 3, 11, 114
10, 108839, Note_on_c, 3, 58, 0
10, 108839, Note_on_c, 3, 55, 0
10, 108840, Control_c, 3, 11, 115
10, 108840, Note_on_c, 3, 53, 68
10, 108840, Note_on_c, 3, 56, 68
10, 108880, Control_c, 3, 11, 117
10, 108920, Control_c, 3, 11, 118
10, 108959, Note_on_c, 3, 53, 0
10, 108959, Note_on_c, 3, 56, 0
10, 108960, Note_on_c, 3, 55, 68
10, 108960, Control_c, 3, 11, 119
10, 108960, Note_on_c, 3, 52, 68
10, 109000, Control_c, 3, 11, 121
10, 109040, Control_c, 3, 11, 122
10, 109079, Note_on_c, 3, 55, 0
10, 109079, Note_on_c, 3, 52, 0
10, 109080, Control_c, 3, 11, 123
10, 109080, Note_on_c, 3, 53, 68
10, 109120, Control_c, 3, 11, 124
10, 109191, Note_on_c, 3, 53, 0
10, 109198, Control_c, 3, 11, 96
10, 109200, Control_c, 3, 11, 96
10, 109200, Note_on_c, 3, 48, 68
10, 109200, Note_on_c, 3, 60, 68
10, 109220, Control_c, 3, 11, 97
10, 109240, Control_c, 3, 11, 99
10, 109260, Control_c, 3, 11, 100
10, 109280, Control_c, 3, 11, 101
10, 109300, Control_c, 3, 11, 102
10, 109320, Control_c, 3, 11, 104
10, 109340, Control_c, 3, 11, 105
10, 109360, Control_c, 3, 11, 106
10, 109380, Control_c, 3, 11, 108
10, 109400, Control_c, 3, 11, 109
10, 109420, Control_c, 3, 11, 110
10, 109439, Note_on_c, 3, 48, 0
10, 109439, Note_on_c, 3, 60, 0
10, 109440, Note_on_c, 3, 60, 68
10, 109440, Control_c, 3, 11, 112
10, 109440, Note_on_c, 3, 63, 68
10, 109460, Control_c, 3, 11, 113
10, 109480, Control_c, 3, 11, 114
10, 109500, Control_c, 3, 11, 115
10, 109520, Control_c, 3, 11, 117
10, 109540, Control_c, 3, 11, 118
10, 109560, Control_c, 3, 11, 119
10, 109580, Control_c, 3, 11, 121
10, 109600, Control_c, 3, 11, 122
10, 109620, Control_c, 3, 11, 123
10, 109640, Control_c, 3, 11, 124
10, 109660, Control_c, 3, 11, 127
10, 109679, Note_on_c, 3, 60, 0
10, 109679, Note_on_c, 3, 63, 0
10, 109920, Note_on_c, 3, 56, 52
10, 109920, Note_on_c, 3, 61, 52
10, 110039, Note_on_c, 3, 56, 0
10, 110039, Note_on_c, 3, 61, 0
10, 110400, Note_on_c, 3, 55, 52
10, 110400, Note_on_c, 3, 60, 52
10, 110519, Note_on_c, 3, 55, 0
10, 110519, Note_on_c, 3, 60, 0
10, 117840, Control_c, 3, 11, 127
10, 117960, Note_on_c, 3, 60, 76
10, 117960, Note_on_c, 3, 63, 76
10, 118020, Control_c, 3, 11, 112
10, 118035, Control_c, 3, 11, 109
10, 118050, Control_c, 3, 11, 107
10, 118065, Control_c, 3, 11, 104
10, 118080, Control_c, 3, 11, 101
10, 118095, Control_c, 3, 11, 99
10, 118110, Control_c, 3, 11, 96
10, 118125, Control_c, 3, 11, 93
10, 118140, Control_c, 3, 11, 91
10, 118155, Control_c, 3, 11, 88
10, 118170, Control_c, 3, 11, 85
10, 118185, Control_c, 3, 11, 80
10, 118199, Note_on_c, 3, 60, 0
10, 118199, Note_on_c, 3, 63, 0
10, 118200, Note_on_c, 3, 55, 76
10, 118200, Note_on_c, 3, 60, 76
10, 118311, Note_on_c, 3, 55, 0
10, 118311, Note_on_c, 3, 60, 0
10, 118320, Note_on_c, 3, 60, 76
10, 118320, Note_on_c, 3, 55, 76
10, 118679, Note_on_c, 3, 60, 0
10, 118679, Note_on_c, 3, 55, 0
10, 118679, End_track
11, 0, Start_track
11, 0, Title_t, "French Horn I and II in C"
11, 0, MIDI_port, 0
11, 0, Program_c, 4, 60
11, 0, Control_c, 4, 7, 96
11, 0, Control_c, 4, 10, 45
11, 0, Control_c, 4, 11, 127
11, 4080, Note_on_c, 4, 55, 52
11, 4080, Note_on_c, 4, 67, 52
11, 4551, Note_on_c, 4, 55, 0
11, 4551, Note_on_c, 4, 67, 0
11, 4560, Note_on_c, 4, 67, 52
11, 4560, Note_on_c, 4, 55, 52
11, 5031, Note_on_c, 4, 67, 0
11, 5031, Note_on_c, 4, 55, 0
11, 5040, Note_on_c, 4, 67, 52
11, 5040, Note_on_c, 4, 55, 52
11, 5271, Note_on_c, 4, 67, 0
11, 5271, Note_on_c, 4, 55, 0
11, 5280, Note_on_c, 4, 55, 52
11, 5280, Note_on_c, 4, 67, 52
11, 5391, Note_on_c, 4, 55, 0
11, 5391, Note_on_c, 4, 67, 0
11, 5400, Note_on_c, 4, 67, 52
11, 5400, Note_on_c, 4, 55, 52
11, 5511, Note_on_c, 4, 67, 0
11, 5511, Note_on_c, 4, 55, 0
11, 5520, Note_on_c, 4, 55, 52
11, 5520, Note_on_c, 4, 67, 52
11, 5879, Note_on_c, 4, 55, 0
11, 5879, Note_on_c, 4, 67, 0
11, 6240, Control_c, 4, 11, 96
11, 6480, Control_c, 4, 11, 96
11, 6480, Note_on_c, 4, 65, 68
11, 6500, Control_c, 4, 11, 97
11, 6520, Control_c, 4, 11, 99
11, 6540, Control_c, 4, 11, 100
11, 6560, Control_c, 4, 11, 101
11, 6580, Control_c, 4, 11, 102
11, 6600, Control_c, 4, 11, 104
11, 6620, Control_c, 4, 11, 105
11, 6640, Control_c, 4, 11, 106
11, 6660, Control_c, 4, 11, 108
11, 6680, Control_c, 4, 11, 109
11, 6700, Control_c, 4, 11, 110
11, 6720, Control_c, 4, 11, 112
11, 6740, Control_c, 4, 11, 113
11, 6760, Control_c, 4, 11, 114
11, 6780, Control_c, 4, 11, 115
11, 6800, Control_c, 4, 11, 117
11, 6820, Control_c, 4, 11, 118
11, 6840, Control_c, 4, 11, 119
11, 6860, Control_c, 4, 11, 121
11, 6880, Control_c, 4, 11, 122
11, 6900, Control_c, 4, 11, 123
11, 6920, Control_c, 4, 11, 124
11, 6940, Control_c, 4, 11, 126
11, 6960, Control_c, 4, 11, 127
11, 7079, Note_on_c, 4, 65, 0
11, 10080, Note_on_c, 4, 48, 52
11, 10080, Note_on_c, 4, 60, 52
11, 10184, Note_on_c, 4, 48, 0
11, 10184, Note_on_c, 4, 60, 0
11, 10200, Note_on_c, 4, 60, 52
11, 10200, Note_on_c, 4, 48, 52
11, 10304, Note_on_c, 4, 60, 0
11, 10304, Note_on_c, 4, 48, 0
11, 10320, Note_on_c, 4, 60, 52
11, 10320, Note_on_c, 4, 48, 52
11, 10671, Note_on_c, 4, 60, 0
11, 10671, Note_on_c, 4, 48, 0
11, 10680, Note_on_c, 4, 48, 52
11, 10680, Note_on_c, 4, 60, 52
11, 10791, Note_on_c, 4, 48, 0
11, 10791, Note_on_c, 4, 60, 0
11, 10800, Note_on_c, 4, 67, 44
11, 10800, Note_on_c, 4, 55, 44
11, 11271, Note_on_c, 4, 67, 0
11, 11271, Note_on_c, 4, 55, 0
11, 11280, Note_on_c, 4, 67, 44
11, 11280, Note_on_c, 4, 55, 44
11, 11751, Note_on_c, 4, 67, 0
11, 11751, Note_on_c, 4, 55, 0
11, 11756, Control_c, 4, 11, 96
11, 11760, Note_on_c, 4, 67, 60
11, 11760, Note_on_c, 4, 55, 60
11, 11760, Control_c, 4, 11, 96
11, 11780, Control_c, 4, 11, 97
11, 11800, Control_c, 4, 11, 99
11, 11820, Control_c, 4, 11, 100
11, 11840, Control_c, 4, 11, 101
11, 11860, Control_c, 4, 11, 102
11, 11880, Control_c, 4, 11, 104
11, 11900, Control_c, 4, 11, 105
11, 11920, Control_c, 4, 11, 106
11, 11940, Control_c, 4, 11, 108
11, 11960, Control_c, 4, 11, 109
11, 11980, Control_c, 4, 11, 110
11, 12000, Control_c, 4, 11, 112
11, 12020, Control_c, 4, 11, 113
11, 12040, Control_c, 4, 11, 114
11, 12060, Control_c, 4, 11, 115
11, 12080, Control_c, 4, 11, 117
11, 12100, Control_c, 4, 11, 118
11, 12120, Control_c, 4, 11, 119
11, 12140, Control_c, 4, 11, 121
11, 12160, Control_c, 4, 11, 122
11, 12180, Control_c, 4, 11, 123
11, 12200, Control_c, 4, 11, 124
11, 12220, Control_c, 4, 11, 126
11, 12240, Control_c, 4, 11, 127
11, 12260, Control_c, 4, 11, 126
11, 12280, Control_c, 4, 11, 124
11, 12300, Control_c, 4, 11, 123
11, 12320, Control_c, 4, 11, 122
11, 12340, Control_c, 4, 11, 121
11, 12360, Control_c, 4, 11, 119
11, 12380, Control_c, 4, 11, 118
11, 12400, Control_c, 4, 11, 117
11, 12420, Control_c, 4, 11, 115
11, 12440, Control_c, 4, 11, 114
11, 12460, Control_c, 4, 11, 113
11, 12480, Control_c, 4, 11, 112
11, 12500, Control_c, 4, 11, 110
11, 12520, Control_c, 4, 11, 109
11, 12540, Control_c, 4, 11, 108
11, 12560, Control_c, 4, 11, 106
11, 12580, Control_c, 4, 11, 105
11, 12591, Note_on_c, 4, 67, 0
11, 12591, Note_on_c, 4, 55, 0
11, 12600, Control_c, 4, 11, 104
11, 12600, Note_on_c, 4, 55, 60
11, 12600, Note_on_c, 4, 67, 60
11, 12620, Control_c, 4, 11, 102
11, 12640, Control_c, 4, 11, 101
11, 12660, Control_c, 4, 11, 100
11, 12680, Control_c, 4, 11, 99
11, 12700, Control_c, 4, 11, 96
11, 12711, Note_on_c, 4, 55, 0
11, 12711, Note_on_c, 4, 67, 0
11, 12720, Note_on_c, 4, 67, 60
11, 12720, Note_on_c, 4, 55, 60
11, 12831, Note_on_c, 4, 67, 0
11, 12831, Note_on_c, 4, 55, 0
11, 14160, Control_c, 4, 11, 127
11, 14400, Note_on_c, 4, 48, 68
11, 14400, Note_on_c, 4, 60, 68
11, 14624, Note_on_c, 4, 48, 0
11, 14624, Note_on_c, 4, 60, 0
11, 14640, Note_on_c, 4, 60, 52
11, 14640, Note_on_c, 4, 48, 52
11, 14879, Note_on_c, 4, 60, 0
11, 14879, Note_on_c, 4, 48, 0
11, 19440, Note_on_c, 4, 60, 76
11, 19440, Note_on_c, 4, 48, 76
11, 19500, Control_c, 4, 11, 80
11, 20031, Note_on_c, 4, 60, 0
11, 20031, Note_on_c, 4, 48, 0
11, 20040, Note_on_c, 4, 48, 76
11, 20040, Note_on_c, 4, 60, 76
11, 20040, Control_c, 4, 11, 80
11, 20063, Control_c, 4, 11, 79
11, 20085, Control_c, 4, 11, 78
11, 20108, Control_c, 4, 11, 77
11, 20130, Control_c, 4, 11, 76
11, 20151, Note_on_c, 4, 48, 0
11, 20151, Note_on_c, 4, 60, 0
11, 20153, Control_c, 4, 11, 75
11, 20160, Note_on_c, 4, 48, 76
11, 20160, Note_on_c, 4, 60, 76
11, 20175, Control_c, 4, 11, 74
11, 20198, Control_c, 4, 11, 73
11, 20220, Control_c, 4, 11, 72
11, 20243, Control_c, 4, 11, 71
11, 20265, Control_c, 4, 11, 70
11, 20271, Note_on_c, 4, 48, 0
11, 20271, Note_on_c, 4, 60, 0
11, 20280, Note_on_c, 4, 60, 76
11, 20280, Note_on_c, 4, 48, 76
11, 20288, Control_c, 4, 11, 69
11, 20310, Control_c, 4, 11, 68
11, 20333, Control_c, 4, 11, 67
11, 20355, Control_c, 4, 11, 66
11, 20378, Control_c, 4, 11, 64
11, 20391, Note_on_c, 4, 60, 0
11, 20391, Note_on_c, 4, 48, 0
11, 20396, Control_c, 4, 11, 80
11, 20400, Note_on_c, 4, 67, 76
11, 20400, Note_on_c, 4, 55, 76
11, 20871, Note_on_c, 4, 67, 0
11, 20871, Note_on_c, 4, 55, 0
11, 20880, Note_on_c, 4, 67, 76
11, 20880, Note_on_c, 4, 55, 76
11, 21351, Note_on_c, 4, 67, 0
11, 21351, Note_on_c, 4, 55, 0
11, 21356, Control_c, 4, 11, 96
11, 21360, Control_c, 4, 11, 96
11, 21360, Note_on_c, 4, 55, 68
11, 21360, Note_on_c, 4, 67, 68
11, 21380, Control_c, 4, 11, 97
11, 21400, Control_c, 4, 11, 99
11, 21420, Control_c, 4, 11, 100
11, 21440, Control_c, 4, 11, 101
11, 21460, Control_c, 4, 11, 102
11, 21480, Control_c, 4, 11, 104
11, 21500, Control_c, 4, 11, 105
11, 21520, Control_c, 4, 11, 106
11, 21540, Control_c, 4, 11, 108
11, 21560, Control_c, 4, 11, 109
11, 21580, Control_c, 4, 11, 110
11, 21600, Control_c, 4, 11, 112
11, 21620, Control_c, 4, 11, 113
11, 21640, Control_c, 4, 11, 114
11, 21660, Control_c, 4, 11, 115
11, 21680, Control_c, 4, 11, 117
11, 21700, Control_c, 4, 11, 118
11, 21720, Control_c, 4, 11, 119
11, 21740, Control_c, 4, 11, 121
11, 21760, Control_c, 4, 11, 122
11, 21780, Control_c, 4, 11, 123
11, 21800, Control_c, 4, 11, 124
11, 21820, Control_c, 4, 11, 126
11, 21831, Note_on_c, 4, 55, 0
11, 21831, Note_on_c, 4, 67, 0
11, 21840, Note_on_c, 4, 67, 68
11, 21840, Control_c, 4, 11, 127
11, 21840, Note_on_c, 4, 55, 68
11, 21860, Control_c, 4, 11, 126
11, 21880, Control_c, 4, 11, 124
11, 21900, Control_c, 4, 11, 123
11, 21920, Control_c, 4, 11, 122
11, 21940, Control_c, 4, 11, 121
11, 21960, Control_c, 4, 11, 119
11, 21980, Control_c, 4, 11, 118
11, 22000, Control_c, 4, 11, 117
11, 22020, Control_c, 4, 11, 115
11, 22040, Control_c, 4, 11, 114
11, 22060, Control_c, 4, 11, 113
11, 22080, Control_c, 4, 11, 112
11, 22100, Control_c, 4, 11, 110
11, 22120, Control_c, 4, 11, 109
11, 22140, Control_c, 4, 11, 108
11, 22160, Control_c, 4, 11, 106
11, 22180, Control_c, 4, 11, 105
11, 22200, Control_c, 4, 11, 104
11, 22220, Control_c, 4, 11, 102
11, 22240, Control_c, 4, 11, 101
11, 22260, Control_c, 4, 11, 100
11, 22280, Control_c, 4, 11, 99
11, 22300, Control_c, 4, 11, 96
11, 22439, Note_on_c, 4, 67, 0
11, 22439, Note_on_c, 4, 55, 0
11, 24000, Control_c, 4, 11, 127
11, 24240, Note_on_c, 4, 65, 52
11, 24711, Note_on_c, 4, 65, 0
11, 24720, Note_on_c, 4, 65, 52
11, 25191, Note_on_c, 4, 65, 0
11, 25196, Control_c, 4, 11, 80
11, 25200, Note_on_c, 4, 65, 76
11, 25200, Note_on_c, 4, 62, 76
11, 25200, Control_c, 4, 11, 80
11, 25220, Control_c, 4, 11, 82
11, 25240, Control_c, 4, 11, 84
11, 25260, Control_c, 4, 11, 86
11, 25280, Control_c, 4, 11, 88
11, 25300, Control_c, 4, 11, 90
11, 25320, Control_c, 4, 11, 92
11, 25340, Control_c, 4, 11, 94
11, 25360, Control_c, 4, 11, 96
11, 25380, Control_c, 4, 11, 98
11, 25400, Control_c, 4, 11, 100
11, 25420, Control_c, 4, 11, 102
11, 25440, Control_c, 4, 11, 104
11, 25460, Control_c, 4, 11, 105
11, 25480, Control_c, 4, 11, 107
11, 25500, Control_c, 4, 11, 109
11, 25520, Control_c, 4, 11, 111
11, 25540, Control_c, 4, 11, 113
11, 25551, Note_on_c, 4, 65, 0
11, 25551, Note_on_c, 4, 62, 0
11, 25560, Note_on_c, 4, 62, 76
11, 25560, Note_on_c, 4, 65, 76
11, 25560, Control_c, 4, 11, 115
11, 25580, Control_c, 4, 11, 117
11, 25600, Control_c, 4, 11, 119
11, 25620, Control_c, 4, 11, 121
11, 25640, Control_c, 4, 11, 123
11, 25660, Control_c, 4, 11, 127
11, 25671, Note_on_c, 4, 62, 0
11, 25671, Note_on_c, 4, 65, 0
11, 25680, Note_on_c, 4, 60, 76
11, 25680, Note_on_c, 4, 48, 76
11, 25769, Note_on_c, 4, 60, 0
11, 25769, Note_on_c, 4, 48, 0
11, 25800, Note_on_c, 4, 60, 76
11, 25800, Note_on_c, 4, 48, 76
11, 25889, Note_on_c, 4, 60, 0
11, 25889, Note_on_c, 4, 48, 0
11, 26280, Control_c, 4, 11, 127
11, 26280, Note_on_c, 4, 55, 68
11, 26280, Note_on_c, 4, 67, 68
11, 26300, Control_c, 4, 11, 124
11, 26320, Control_c, 4, 11, 122
11, 26340, Control_c, 4, 11, 119
11, 26360, Control_c, 4, 11, 117
11, 26380, Control_c, 4, 11, 114
11, 26400, Control_c, 4, 11, 112
11, 26420, Control_c, 4, 11, 109
11, 26440, Control_c, 4, 11, 106
11, 26460, Control_c, 4, 11, 104
11, 26480, Control_c, 4, 11, 101
11, 26500, Control_c, 4, 11, 96
11, 26511, Note_on_c, 4, 55, 0
11, 26511, Note_on_c, 4, 67, 0
11, 26520, Note_on_c, 4, 55, 68
11, 26520, Note_on_c, 4, 67, 68
11, 26631, Note_on_c, 4, 55, 0
11, 26631, Note_on_c, 4, 67, 0
11, 26640, Note_on_c, 4, 48, 68
11, 26640, Note_on_c, 4, 60, 68
11, 26759, Note_on_c, 4, 48, 0
11, 26759, Note_on_c, 4, 60, 0
11, 28320, Control_c, 4, 11, 127
11, 28560, Note_on_c, 4, 60, 76
11, 28791, Note_on_c, 4, 60, 0
11, 28800, Note_on_c, 4, 60, 76
11, 29001, Note_on_c, 4, 60, 0
11, 29010, Note_on_c, 4, 60, 76
11, 29035, Note_on_c, 4, 60, 0
11, 29040, Note_on_c, 4, 60, 84
11, 29100, Control_c, 4, 11, 112
11, 29118, Control_c, 4, 11, 110
11, 29135, Control_c, 4, 11, 108
11, 29153, Control_c, 4, 11, 106
11, 29170, Control_c, 4, 11, 104
11, 29188, Control_c, 4, 11, 102
11, 29205, Control_c, 4, 11, 100
11, 29223, Control_c, 4, 11, 98
11, 29240, Control_c, 4, 11, 96
11, 29258, Control_c, 4, 11, 94
11, 29275, Control_c, 4, 11, 92
11, 29293, Control_c, 4, 11, 90
11, 29310, Control_c, 4, 11, 88
11, 29328, Control_c, 4, 11, 86
11, 29345, Control_c, 4, 11, 84
11, 29363, Control_c, 4, 11, 82
11, 29380, Control_c, 4, 11, 80
11, 29391, Note_on_c, 4, 60, 0
11, 29398, Control_c, 4, 11, 78
11, 29400, Note_on_c, 4, 60, 84
11, 29400, Note_on_c, 4, 48, 84
11, 29415, Control_c, 4, 11, 76
11, 29433, Control_c, 4, 11, 74
11, 29450, Control_c, 4, 11, 72
11, 29468, Control_c, 4, 11, 70
11, 29485, Control_c, 4, 11, 68
11, 29503, Control_c, 4, 11, 64
11, 29511, Note_on_c, 4, 60, 0
11, 29511, Note_on_c, 4, 48, 0
11, 29520, Note_on_c, 4, 60, 84
11, 29520, Note_on_c, 4, 48, 84
11, 29759, Note_on_c, 4, 60, 0
11, 29759, Note_on_c, 4, 48, 0
11, 29760, Note_on_c, 4, 62, 84
11, 29760, Note_on_c, 4, 55, 84
11, 29991, Note_on_c, 4, 62, 0
11, 29991, Note_on_c, 4, 55, 0
11, 30000, Note_on_c, 4, 48, 84
11, 30000, Note_on_c, 4, 60, 84
11, 30119, Note_on_c, 4, 48, 0
11, 30119, Note_on_c, 4, 60, 0
11, 30360, Control_c, 4, 11, 127
11, 30480, Note_on_c, 4, 48, 52
11, 30480, Note_on_c, 4, 60, 52
11, 30719, Note_on_c, 4, 48, 0
11, 30719, Note_on_c, 4, 60, 0
11, 30720, Note_on_c, 4, 55, 52
11, 30720, Note_on_c, 4, 62, 52
11, 30951, Note_on_c, 4, 55, 0
11, 30951, Note_on_c, 4, 62, 0
11, 30960, Note_on_c, 4, 48, 52
11, 30960, Note_on_c, 4, 60, 52
11, 31079, Note_on_c, 4, 48, 0
11, 31079, Note_on_c, 4, 60, 0
11, 31800, Note_on_c, 4, 67, 76
11, 31800, Note_on_c, 4, 55, 76
11, 31889, Note_on_c, 4, 67, 0
11, 31889, Note_on_c, 4, 55, 0
11, 31920, Note_on_c, 4, 60, 52
11, 31920, Note_on_c, 4, 48, 52
11, 32009, Note_on_c, 4, 60, 0
11, 32009, Note_on_c, 4, 48, 0
11, 32160, Note_on_c, 4, 60, 52
11, 32160, Note_on_c, 4, 48, 52
11, 32249, Note_on_c, 4, 60, 0
11, 32249, Note_on_c, 4, 48, 0
11, 32400, Note_on_c, 4, 48, 52
11, 32400, Note_on_c, 4, 60, 52
11, 32489, Note_on_c, 4, 48, 0
11, 32489, Note_on_c, 4, 60, 0
11, 32880, Note_on_c, 4, 60, 52
11, 33831, Note_on_c, 4, 60, 0
11, 33840, Note_on_c, 4, 62, 52
11, 33840, Note_on_c, 4, 60, 52
11, 34791, Note_on_c, 4, 62, 0
11, 34791, Note_on_c, 4, 60, 0
11, 34800, Note_on_c, 4, 62, 52
11, 34800, Note_on_c, 4, 55, 52
11, 35279, Note_on_c, 4, 55, 0
11, 35399, Note_on_c, 4, 62, 0
11, 35640, Note_on_c, 4, 64, 52
11, 35640, Note_on_c, 4, 52, 52
11, 35879, Note_on_c, 4, 64, 0
11, 35879, Note_on_c, 4, 52, 0
11, 36120, Note_on_c, 4, 62, 52
11, 36231, Note_on_c, 4, 62, 0
11, 36240, Note_on_c, 4, 62, 84
11, 36240, Note_on_c, 4, 55, 84
11, 36591, Note_on_c, 4, 62, 0
11, 36591, Note_on_c, 4, 55, 0
11, 36600, Note_on_c, 4, 55, 92
11, 36600, Note_on_c, 4, 62, 92
11, 36689, Note_on_c, 4, 55, 0
11, 36689, Note_on_c, 4, 62, 0
11, 36720, Note_on_c, 4, 62, 84
11, 36720, Note_on_c, 4, 55, 84
11, 37071, Note_on_c, 4, 62, 0
11, 37071, Note_on_c, 4, 55, 0
11, 37080, Note_on_c, 4, 55, 92
11, 37080, Note_on_c, 4, 62, 92
11, 37169, Note_on_c, 4, 55, 0
11, 37169, Note_on_c, 4, 62, 0
11, 37200, Note_on_c, 4, 55, 84
11, 37200, Note_on_c, 4, 62, 84
11, 37289, Note_on_c, 4, 55, 0
11, 37289, Note_on_c, 4, 62, 0
11, 37320, Note_on_c, 4, 55, 92
11, 37320, Note_on_c, 4, 62, 92
11, 37409, Note_on_c, 4, 55, 0
11, 37409, Note_on_c, 4, 62, 0
11, 37440, Note_on_c, 4, 62, 84
11, 37440, Note_on_c, 4, 55, 84
11, 37529, Note_on_c, 4, 62, 0
11, 37529, Note_on_c, 4, 55, 0
11, 37560, Note_on_c, 4, 55, 92
11, 37560, Note_on_c, 4, 62, 92
11, 37649, Note_on_c, 4, 55, 0
11, 37649, Note_on_c, 4, 62, 0
11, 37680, Note_on_c, 4, 55, 84
11, 37680, Note_on_c, 4, 62, 84
11, 37769, Note_on_c, 4, 55, 0
11, 37769, Note_on_c, 4, 62, 0
11, 37920, Control_c, 4, 11, 96
11, 38160, Note_on_c, 4, 48, 68
11, 38160, Note_on_c, 4, 60, 68
11, 38751, Note_on_c, 4, 48, 0
11, 38751, Note_on_c, 4, 60, 0
11, 38760, Note_on_c, 4, 48, 68
11, 38760, Note_on_c, 4, 60, 68
11, 38871, Note_on_c, 4, 48, 0
11, 38871, Note_on_c, 4, 60, 0
11, 38880, Note_on_c, 4, 48, 68
11, 38880, Note_on_c, 4, 60, 68
11, 38991, Note_on_c, 4, 48, 0
11, 38991, Note_on_c, 4, 60, 0
11, 39000, Note_on_c, 4, 60, 68
11, 39000, Note_on_c, 4, 48, 68
11, 39111, Note_on_c, 4, 60, 0
11, 39111, Note_on_c, 4, 48, 0
11, 39120, Control_c, 4, 11, 96
11, 39120, Note_on_c, 4, 60, 68
11, 39120, Note_on_c, 4, 48, 68
11, 39151, Control_c, 4, 11, 97
11, 39182, Control_c, 4, 11, 98
11, 39213, Control_c, 4, 11, 99
11, 39244, Control_c, 4, 11, 100
11, 39275, Control_c, 4, 11, 101
11, 39306, Control_c, 4, 11, 102
11, 39337, Control_c, 4, 11, 103
11, 39351, Note_on_c, 4, 60, 0
11, 39351, Note_on_c, 4, 48, 0
11, 39360, Note_on_c, 4, 48, 68
11, 39360, Note_on_c, 4, 60, 68
11, 39368, Control_c, 4, 11, 104
11, 39399, Control_c, 4, 11, 105
11, 39430, Control_c, 4, 11, 106
11, 39461, Control_c, 4, 11, 107
11, 39492, Control_c, 4, 11, 108
11, 39523, Control_c, 4, 11, 109
11, 39554, Control_c, 4, 11, 110
11, 39585, Control_c, 4, 11, 111
11, 39591, Note_on_c, 4, 48, 0
11, 39591, Note_on_c, 4, 60, 0
11, 39600, Note_on_c, 4, 48, 68
11, 39600, Note_on_c, 4, 60, 68
11, 39615, Control_c, 4, 11, 112
11, 39646, Control_c, 4, 11, 113
11, 39677, Control_c, 4, 11, 114
11, 39708, Control_c, 4, 11, 115
11, 39739, Control_c, 4, 11, 116
11, 39770, Control_c, 4, 11, 117
11, 39801, Control_c, 4, 11, 118
11, 39831, Note_on_c, 4, 48, 0
11, 39831, Note_on_c, 4, 60, 0
11, 39832, Control_c, 4, 11, 119
11, 39840, Note_on_c, 4, 48, 68
11, 39840, Note_on_c, 4, 60, 68
11, 39863, Control_c, 4, 11, 120
11, 39894, Control_c, 4, 11, 121
11, 39925, Control_c, 4, 11, 122
11, 39956, Control_c, 4, 11, 123
11, 39987, Control_c, 4, 11, 124
11, 40018, Control_c, 4, 11, 125
11, 40079, Control_c, 4, 11, 96
11, 40199, Note_on_c, 4, 48, 0
11, 40199, Note_on_c, 4, 60, 0
11, 40800, Control_c, 4, 11, 127
11, 41040, Note_on_c, 4, 62, 52
11, 41040, Note_on_c, 4, 55, 52
11, 41271, Note_on_c, 4, 62, 0
11, 41271, Note_on_c, 4, 55, 0
11, 41280, Note_on_c, 4, 64, 52
11, 41280, Note_on_c, 4, 48, 52
11, 41315, Note_on_c, 4, 48, 0
11, 41320, Note_on_c, 4, 52, 52
11, 41355, Note_on_c, 4, 52, 0
11, 41360, Note_on_c, 4, 55, 52
11, 41391, Note_on_c, 4, 64, 0
11, 41395, Note_on_c, 4, 55, 0
11, 41400, Note_on_c, 4, 60, 52
11, 41435, Note_on_c, 4, 60, 0
11, 41440, Note_on_c, 4, 64, 52
11, 41440, Note_on_c, 4, 52, 52
11, 41475, Note_on_c, 4, 64, 0
11, 41475, Note_on_c, 4, 52, 0
11, 41480, Note_on_c, 4, 48, 52
11, 41480, Note_on_c, 4, 60, 52
11, 41515, Note_on_c, 4, 48, 0
11, 41515, Note_on_c, 4, 60, 0
11, 41520, Note_on_c, 4, 55, 52
11, 41520, Note_on_c, 4, 62, 52
11, 41751, Note_on_c, 4, 55, 0
11, 41751, Note_on_c, 4, 62, 0
11, 41760, Note_on_c, 4, 64, 52
11, 41760, Note_on_c, 4, 48, 52
11, 41795, Note_on_c, 4, 48, 0
11, 41800, Note_on_c, 4, 52, 52
11, 41835, Note_on_c, 4, 52, 0
11, 41840, Note_on_c, 4, 55, 52
11, 41871, Note_on_c, 4, 64, 0
11, 41875, Note_on_c, 4, 55, 0
11, 41880, Note_on_c, 4, 60, 52
11, 41915, Note_on_c, 4, 60, 0
11, 41920, Note_on_c, 4, 64, 52
11, 41920, Note_on_c, 4, 52, 52
11, 41955, Note_on_c, 4, 64, 0
11, 41955, Note_on_c, 4, 52, 0
11, 41960, Note_on_c, 4, 48, 52
11, 41960, Note_on_c, 4, 60, 52
11, 41995, Note_on_c, 4, 48, 0
11, 41995, Note_on_c, 4, 60, 0
11, 42000, Note_on_c, 4, 62, 52
11, 42000, Note_on_c, 4, 55, 52
11, 42472, Control_c, 4, 11, 64
11, 42944, Note_on_c, 4, 62, 0
11, 42944, Note_on_c, 4, 55, 0
11, 42960, Note_on_c, 4, 48, 84
11, 42960, Note_on_c, 4, 60, 84
11, 43199, Note_on_c, 4, 48, 0
11, 43199, Note_on_c, 4, 60, 0
11, 43200, Note_on_c, 4, 64, 84
11, 43200, Note_on_c, 4, 52, 84
11, 43439, Note_on_c, 4, 64, 0
11, 43439, Note_on_c, 4, 52, 0
11, 43440, Note_on_c, 4, 67, 84
11, 43440, Note_on_c, 4, 55, 84
11, 43911, Note_on_c, 4, 67, 0
11, 43911, Note_on_c, 4, 55, 0
11, 43920, Note_on_c, 4, 48, 84
11, 43920, Note_on_c, 4, 60, 84
11, 43920, Control_c, 4, 11, 64
11, 44000, Control_c, 4, 11, 66
11, 44080, Control_c, 4, 11, 68
11, 44160, Control_c, 4, 11, 70
11, 44240, Control_c, 4, 11, 72
11, 44320, Control_c, 4, 11, 74
11, 44400, Control_c, 4, 11, 76
11, 44480, Control_c, 4, 11, 78
11, 44511, Note_on_c, 4, 48, 0
11, 44511, Note_on_c, 4, 60, 0
11, 44520, Note_on_c, 4, 48, 84
11, 44520, Note_on_c, 4, 60, 84
11, 44560, Control_c, 4, 11, 80
11, 44601, Note_on_c, 4, 48, 0
11, 44601, Note_on_c, 4, 60, 0
11, 44610, Note_on_c, 4, 48, 84
11, 44610, Note_on_c, 4, 60, 84
11, 44635, Note_on_c, 4, 48, 0
11, 44635, Note_on_c, 4, 60, 0
11, 44640, Note_on_c, 4, 60, 84
11, 44640, Note_on_c, 4, 48, 84
11, 44640, Control_c, 4, 11, 82
11, 44720, Control_c, 4, 11, 84
11, 44751, Note_on_c, 4, 60, 0
11, 44751, Note_on_c, 4, 48, 0
11, 44760, Note_on_c, 4, 48, 84
11, 44760, Note_on_c, 4, 60, 84
11, 44800, Control_c, 4, 11, 86
11, 44879, Note_on_c, 4, 48, 0
11, 44879, Note_on_c, 4, 60, 0
11, 44880, Control_c, 4, 11, 88
11, 44960, Control_c, 4, 11, 90
11, 45000, Note_on_c, 4, 64, 84
11, 45000, Note_on_c, 4, 60, 84
11, 45040, Control_c, 4, 11, 92
11, 45119, Note_on_c, 4, 64, 0
11, 45119, Note_on_c, 4, 60, 0
11, 45120, Control_c, 4, 11, 94
11, 45200, Control_c, 4, 11, 96
11, 45240, Note_on_c, 4, 55, 84
11, 45240, Note_on_c, 4, 62, 84
11, 45280, Control_c, 4, 11, 98
11, 45359, Note_on_c, 4, 55, 0
11, 45359, Note_on_c, 4, 62, 0
11, 45360, Control_c, 4, 11, 100
11, 45440, Control_c, 4, 11, 102
11, 45480, Note_on_c, 4, 48, 84
11, 45480, Note_on_c, 4, 60, 84
11, 45520, Control_c, 4, 11, 104
11, 45599, Note_on_c, 4, 48, 0
11, 45599, Note_on_c, 4, 60, 0
11, 45600, Control_c, 4, 11, 106
11, 45680, Control_c, 4, 11, 108
11, 45720, Note_on_c, 4, 60, 84
11, 45720, Note_on_c, 4, 48, 84
11, 45760, Control_c, 4, 11, 110
11, 45839, Note_on_c, 4, 60, 0
11, 45839, Note_on_c, 4, 48, 0
11, 45840, Note_on_c, 4, 52, 84
11, 45840, Note_on_c, 4, 60, 84
11, 45840, Control_c, 4, 11, 112
11, 45904, Control_c, 4, 11, 113
11, 45951, Note_on_c, 4, 52, 0
11, 45951, Note_on_c, 4, 60, 0
11, 45960, Note_on_c, 4, 64, 84
11, 45960, Note_on_c, 4, 60, 84
11, 45968, Control_c, 4, 11, 114
11, 46032, Control_c, 4, 11, 115
11, 46096, Control_c, 4, 11, 116
11, 46160, Control_c, 4, 11, 117
11, 46191, Note_on_c, 4, 64, 0
11, 46191, Note_on_c, 4, 60, 0
11, 46200, Note_on_c, 4, 64, 84
11, 46200, Note_on_c, 4, 67, 84
11, 46224, Control_c, 4, 11, 118
11, 46259, Note_on_c, 4, 64, 0
11, 46259, Note_on_c, 4, 67, 0
11, 46260, Note_on_c, 4, 64, 84
11, 46260, Note_on_c, 4, 60, 84
11, 46288, Control_c, 4, 11, 119
11, 46311, Note_on_c, 4, 64, 0
11, 46311, Note_on_c, 4, 60, 0
11, 46320, Note_on_c, 4, 62, 84
11, 46320, Note_on_c, 4, 55, 84
11, 46352, Control_c, 4, 11, 120
11, 46416, Control_c, 4, 11, 121
11, 46480, Control_c, 4, 11, 122
11, 46544, Control_c, 4, 11, 123
11, 46608, Control_c, 4, 11, 124
11, 46671, Note_on_c, 4, 62, 0
11, 46671, Note_on_c, 4, 55, 0
11, 46672, Control_c, 4, 11, 125
11, 46680, Note_on_c, 4, 55, 84
11, 46680, Note_on_c, 4, 62, 84
11, 46736, Control_c, 4, 11, 127
11, 46791, Note_on_c, 4, 55, 0
11, 46791, Note_on_c, 4, 62, 0
11, 46800, Note_on_c, 4, 52, 84
11, 46800, Note_on_c, 4, 60, 84
11, 47151, Note_on_c, 4, 52, 0
11, 47151, Note_on_c, 4, 60, 0
11, 47160, Note_on_c, 4, 64, 92
11, 47160, Note_on_c, 4, 55, 92
11, 47249, Note_on_c, 4, 64, 0
11, 47249, Note_on_c, 4, 55, 0
11, 47280, Note_on_c, 4, 52, 84
11, 47280, Note_on_c, 4, 60, 84
11, 47631, Note_on_c, 4, 52, 0
11, 47631, Note_on_c, 4, 60, 0
11, 47640, Note_on_c, 4, 64, 92
11, 47640, Note_on_c, 4, 55, 92
11, 47729, Note_on_c, 4, 64, 0
11, 47729, Note_on_c, 4, 55, 0
11, 47760, Note_on_c, 4, 60, 84
11, 47760, Note_on_c, 4, 52, 84
11, 47849, Note_on_c, 4, 60, 0
11, 47849, Note_on_c, 4, 52, 0
11, 47880, Note_on_c, 4, 64, 92
11, 47880, Note_on_c, 4, 55, 92
11, 47969, Note_on_c, 4, 64, 0
11, 47969, Note_on_c, 4, 55, 0
11, 48000, Note_on_c, 4, 60, 84
11, 48000, Note_on_c, 4, 52, 84
11, 48089, Note_on_c, 4, 60, 0
11, 48089, Note_on_c, 4, 52, 0
11, 48120, Note_on_c, 4, 55, 92
11, 48120, Note_on_c, 4, 64, 92
11, 48209, Note_on_c, 4, 55, 0
11, 48209, Note_on_c, 4, 64, 0
11, 48240, Note_on_c, 4, 60, 84
11, 48240, Note_on_c, 4, 52, 84
11, 48329, Note_on_c, 4, 60, 0
11, 48329, Note_on_c, 4, 52, 0
11, 59880, Note_on_c, 4, 55, 76
11, 59880, Note_on_c, 4, 67, 76
11, 60111, Note_on_c, 4, 55, 0
11, 60111, Note_on_c, 4, 67, 0
11, 60120, Note_on_c, 4, 55, 76
11, 60120, Note_on_c, 4, 67, 76
11, 60231, Note_on_c, 4, 55, 0
11, 60231, Note_on_c, 4, 67, 0
11, 60240, Note_on_c, 4, 55, 76
11, 60240, Note_on_c, 4, 43, 76
11, 60471, Note_on_c, 4, 55, 0
11, 60471, Note_on_c, 4, 43, 0
11, 60480, Note_on_c, 4, 55, 76
11, 60480, Note_on_c, 4, 43, 76
11, 60591, Note_on_c, 4, 55, 0
11, 60591, Note_on_c, 4, 43, 0
11, 60600, Note_on_c, 4, 55, 76
11, 60600, Note_on_c, 4, 43, 76
11, 60711, Note_on_c, 4, 55, 0
11, 60711, Note_on_c, 4, 43, 0
11, 60720, Note_on_c, 4, 55, 84
11, 60720, Note_on_c, 4, 43, 84
11, 61064, Note_on_c, 4, 55, 0
11, 61064, Note_on_c, 4, 43, 0
11, 61080, Note_on_c, 4, 43, 76
11, 61080, Note_on_c, 4, 55, 76
11, 61191, Note_on_c, 4, 43, 0
11, 61191, Note_on_c, 4, 55, 0
11, 61200, Note_on_c, 4, 55, 76
11, 61200, Note_on_c, 4, 43, 76
11, 61311, Note_on_c, 4, 55, 0
11, 61311, Note_on_c, 4, 43, 0
11, 61320, Note_on_c, 4, 43, 76
11, 61320, Note_on_c, 4, 55, 76
11, 61431, Note_on_c, 4, 43, 0
11, 61431, Note_on_c, 4, 55, 0
11, 61440, Note_on_c, 4, 43, 76
11, 61440, Note_on_c, 4, 55, 76
11, 61551, Note_on_c, 4, 43, 0
11, 61551, Note_on_c, 4, 55, 0
11, 61560, Note_on_c, 4, 55, 76
11, 61560, Note_on_c, 4, 67, 76
11, 61791, Note_on_c, 4, 55, 0
11, 61791, Note_on_c, 4, 67, 0
11, 61800, Note_on_c, 4, 60, 76
11, 61800, Note_on_c, 4, 48, 76
11, 61911, Note_on_c, 4, 60, 0
11, 61911, Note_on_c, 4, 48, 0
11, 61920, Note_on_c, 4, 48, 76
11, 61920, Note_on_c, 4, 60, 76
11, 62031, Note_on_c, 4, 48, 0
11, 62031, Note_on_c, 4, 60, 0
11, 62040, Note_on_c, 4, 60, 76
11, 62040, Note_on_c, 4, 48, 76
11, 62151, Note_on_c, 4, 60, 0
11, 62151, Note_on_c, 4, 48, 0
11, 62160, Note_on_c, 4, 60, 84
11, 62160, Note_on_c, 4, 48, 84
11, 62279, Note_on_c, 4, 60, 0
11, 62279, Note_on_c, 4, 48, 0
11, 62400, Note_on_c, 4, 65, 84
11, 62631, Note_on_c, 4, 65, 0
11, 62640, Note_on_c, 4, 65, 84
11, 63111, Note_on_c, 4, 65, 0
11, 63120, Note_on_c, 4, 60, 84
11, 63120, Note_on_c, 4, 48, 84
11, 63471, Note_on_c, 4, 60, 0
11, 63471, Note_on_c, 4, 48, 0
11, 63480, Note_on_c, 4, 48, 84
11, 63480, Note_on_c, 4, 60, 84
11, 63591, Note_on_c, 4, 48, 0
11, 63591, Note_on_c, 4, 60, 0
11, 63600, Note_on_c, 4, 48, 84
11, 63600, Note_on_c, 4, 60, 84
11, 63719, Note_on_c, 4, 48, 0
11, 63719, Note_on_c, 4, 60, 0
11, 66960, Note_on_c, 4, 60, 84
11, 66960, Note_on_c, 4, 48, 84
11, 67671, Note_on_c, 4, 60, 0
11, 67671, Note_on_c, 4, 48, 0
11, 67680, Note_on_c, 4, 65, 92
11, 68144, Note_on_c, 4, 65, 0
11, 68160, Note_on_c, 4, 62, 92
11, 68624, Note_on_c, 4, 62, 0
11, 68640, Note_on_c, 4, 67, 84
11, 68880, Note_on_c, 4, 55, 84
11, 69111, Note_on_c, 4, 67, 0
11, 69111, Note_on_c, 4, 55, 0
11, 69120, Note_on_c, 4, 55, 84
11, 69120, Note_on_c, 4, 67, 84
11, 69351, Note_on_c, 4, 55, 0
11, 69351, Note_on_c, 4, 67, 0
11, 69360, Note_on_c, 4, 62, 84
11, 69471, Note_on_c, 4, 62, 0
11, 69480, Note_on_c, 4, 62, 92
11, 69839, Note_on_c, 4, 62, 0
11, 69840, Note_on_c, 4, 62, 84
11, 70799, Note_on_c, 4, 62, 0
11, 70800, Note_on_c, 4, 62, 84
11, 71391, Note_on_c, 4, 62, 0
11, 71400, Note_on_c, 4, 55, 84
11, 71400, Note_on_c, 4, 67, 84
11, 71489, Note_on_c, 4, 55, 0
11, 71489, Note_on_c, 4, 67, 0
11, 71520, Note_on_c, 4, 67, 84
11, 71520, Note_on_c, 4, 55, 84
11, 71609, Note_on_c, 4, 67, 0
11, 71609, Note_on_c, 4, 55, 0
11, 71640, Note_on_c, 4, 67, 84
11, 71640, Note_on_c, 4, 55, 84
11, 71729, Note_on_c, 4, 67, 0
11, 71729, Note_on_c, 4, 55, 0
11, 71760, Note_on_c, 4, 55, 84
11, 71760, Note_on_c, 4, 67, 84
11, 71849, Note_on_c, 4, 55, 0
11, 71849, Note_on_c, 4, 67, 0
11, 76080, Note_on_c, 4, 60, 84
11, 76080, Note_on_c, 4, 48, 84
11, 76551, Note_on_c, 4, 60, 0
11, 76551, Note_on_c, 4, 48, 0
11, 76560, Note_on_c, 4, 60, 84
11, 76560, Note_on_c, 4, 48, 84
11, 77031, Note_on_c, 4, 60, 0
11, 77031, Note_on_c, 4, 48, 0
11, 77040, Note_on_c, 4, 48, 84
11, 77040, Note_on_c, 4, 60, 84
11, 77271, Note_on_c, 4, 48, 0
11, 77271, Note_on_c, 4, 60, 0
11, 77280, Note_on_c, 4, 48, 84
11, 77280, Note_on_c, 4, 60, 84
11, 77481, Note_on_c, 4, 48, 0
11, 77481, Note_on_c, 4, 60, 0
11, 77490, Note_on_c, 4, 60, 84
11, 77490, Note_on_c, 4, 48, 84
11, 77515, Note_on_c, 4, 60, 0
11, 77515, Note_on_c, 4, 48, 0
11, 77520, Note_on_c, 4, 48, 92
11, 77520, Note_on_c, 4, 60, 92
11, 77984, Note_on_c, 4, 48, 0
11, 77984, Note_on_c, 4, 60, 0
11, 78000, Note_on_c, 4, 48, 84
11, 78000, Note_on_c, 4, 60, 84
11, 78231, Note_on_c, 4, 48, 0
11, 78231, Note_on_c, 4, 60, 0
11, 78240, Note_on_c, 4, 60, 84
11, 78240, Note_on_c, 4, 48, 84
11, 78441, Note_on_c, 4, 60, 0
11, 78441, Note_on_c, 4, 48, 0
11, 78450, Note_on_c, 4, 48, 84
11, 78450, Note_on_c, 4, 60, 84
11, 78475, Note_on_c, 4, 48, 0
11, 78475, Note_on_c, 4, 60, 0
11, 78480, Note_on_c, 4, 48, 92
11, 78480, Note_on_c, 4, 60, 92
11, 79071, Note_on_c, 4, 48, 0
11, 79071, Note_on_c, 4, 60, 0
11, 79080, Note_on_c, 4, 48, 84
11, 79080, Note_on_c, 4, 60, 84
11, 79191, Note_on_c, 4, 48, 0
11, 79191, Note_on_c, 4, 60, 0
11, 79200, Note_on_c, 4, 48, 84
11, 79200, Note_on_c, 4, 60, 84
11, 79311, Note_on_c, 4, 48, 0
11, 79311, Note_on_c, 4, 60, 0
11, 79320, Note_on_c, 4, 48, 84
11, 79320, Note_on_c, 4, 60, 84
11, 79431, Note_on_c, 4, 48, 0
11, 79431, Note_on_c, 4, 60, 0
11, 79440, Note_on_c, 4, 65, 84
11, 80031, Note_on_c, 4, 65, 0
11, 80040, Note_on_c, 4, 65, 84
11, 80151, Note_on_c, 4, 65, 0
11, 80160, Note_on_c, 4, 65, 84
11, 80271, Note_on_c, 4, 65, 0
11, 80280, Note_on_c, 4, 65, 84
11, 80391, Note_on_c, 4, 65, 0
11, 80400, Note_on_c, 4, 65, 84
11, 80519, Note_on_c, 4, 65, 0
11, 82920, Note_on_c, 4, 67, 52
11, 82920, Note_on_c, 4, 55, 52
11, 83001, Note_on_c, 4, 67, 0
11, 83001, Note_on_c, 4, 55, 0
11, 83010, Note_on_c, 4, 67, 52
11, 83010, Note_on_c, 4, 55, 52
11, 83035, Note_on_c, 4, 67, 0
11, 83035, Note_on_c, 4, 55, 0
11, 83040, Note_on_c, 4, 55, 52
11, 83040, Note_on_c, 4, 67, 52
11, 83151, Note_on_c, 4, 55, 0
11, 83151, Note_on_c, 4, 67, 0
11, 83160, Note_on_c, 4, 67, 52
11, 83160, Note_on_c, 4, 55, 52
11, 83279, Note_on_c, 4, 67, 0
11, 83279, Note_on_c, 4, 55, 0
11, 83400, Note_on_c, 4, 67, 52
11, 83400, Note_on_c, 4, 55, 52
11, 83481, Note_on_c, 4, 67, 0
11, 83481, Note_on_c, 4, 55, 0
11, 83490, Note_on_c, 4, 67, 52
11, 83490, Note_on_c, 4, 55, 52
11, 83515, Note_on_c, 4, 67, 0
11, 83515, Note_on_c, 4, 55, 0
11, 83520, Note_on_c, 4, 67, 52
11, 83520, Note_on_c, 4, 55, 52
11, 83631, Note_on_c, 4, 67, 0
11, 83631, Note_on_c, 4, 55, 0
11, 83640, Note_on_c, 4, 55, 52
11, 83640, Note_on_c, 4, 67, 52
11, 83759, Note_on_c, 4, 55, 0
11, 83759, Note_on_c, 4, 67, 0
11, 83880, Note_on_c, 4, 67, 52
11, 83880, Note_on_c, 4, 55, 52
11, 83961, Note_on_c, 4, 67, 0
11, 83961, Note_on_c, 4, 55, 0
11, 83970, Note_on_c, 4, 55, 52
11, 83970, Note_on_c, 4, 67, 52
11, 83995, Note_on_c, 4, 55, 0
11, 83995, Note_on_c, 4, 67, 0
11, 84000, Note_on_c, 4, 55, 52
11, 84000, Note_on_c, 4, 67, 52
11, 84111, Note_on_c, 4, 55, 0
11, 84111, Note_on_c, 4, 67, 0
11, 84120, Note_on_c, 4, 67, 52
11, 84120, Note_on_c, 4, 55, 52
11, 84239, Note_on_c, 4, 67, 0
11, 84239, Note_on_c, 4, 55, 0
11, 84360, Note_on_c, 4, 67, 52
11, 84360, Note_on_c, 4, 55, 52
11, 84441, Note_on_c, 4, 67, 0
11, 84441, Note_on_c, 4, 55, 0
11, 84450, Note_on_c, 4, 55, 52
11, 84450, Note_on_c, 4, 67, 52
11, 84475, Note_on_c, 4, 55, 0
11, 84475, Note_on_c, 4, 67, 0
11, 84480, Note_on_c, 4, 67, 52
11, 84480, Note_on_c, 4, 55, 52
11, 84591, Note_on_c, 4, 67, 0
11, 84591, Note_on_c, 4, 55, 0
11, 84600, Note_on_c, 4, 67, 52
11, 84600, Note_on_c, 4, 55, 52
11, 84719, Note_on_c, 4, 67, 0
11, 84719, Note_on_c, 4, 55, 0
11, 84840, Note_on_c, 4, 65, 52
11, 84921, Note_on_c, 4, 65, 0
11, 84930, Note_on_c, 4, 65, 52
11, 84955, Note_on_c, 4, 65, 0
11, 84960, Note_on_c, 4, 65, 52
11, 85071, Note_on_c, 4, 65, 0
11, 85080, Note_on_c, 4, 65, 52
11, 85199, Note_on_c, 4, 65, 0
11, 85260, Control_c, 4, 11, 96
11, 85320, Control_c, 4, 11, 96
11, 85320, Note_on_c, 4, 65, 68
11, 85340, Control_c, 4, 11, 98
11, 85360, Control_c, 4, 11, 99
11, 85380, Control_c, 4, 11, 101
11, 85400, Control_c, 4, 11, 103
11, 85401, Note_on_c, 4, 65, 0
11, 85410, Note_on_c, 4, 65, 68
11, 85420, Control_c, 4, 11, 105
11, 85435, Note_on_c, 4, 65, 0
11, 85440, Note_on_c, 4, 65, 68
11, 85440, Control_c, 4, 11, 106
11, 85460, Control_c, 4, 11, 108
11, 85480, Control_c, 4, 11, 110
11, 85500, Control_c, 4, 11, 112
11, 85520, Control_c, 4, 11, 113
11, 85540, Control_c, 4, 11, 115
11, 85551, Note_on_c, 4, 65, 0
11, 85560, Note_on_c, 4, 65, 68
11, 85560, Control_c, 4, 11, 117
11, 85580, Control_c, 4, 11, 118
11, 85600, Control_c, 4, 11, 120
11, 85620, Control_c, 4, 11, 122
11, 85640, Control_c, 4, 11, 124
11, 85660, Control_c, 4, 11, 127
11, 85671, Note_on_c, 4, 65, 0
11, 85680, Note_on_c, 4, 65, 52
11, 85799, Note_on_c, 4, 65, 0
11, 88080, Control_c, 4, 11, 96
11, 88320, Note_on_c, 4, 36, 68
11, 89039, Note_on_c, 4, 36, 0
11, 89040, Note_on_c, 4, 36, 68
11, 89040, Control_c, 4, 11, 96
11, 89060, Control_c, 4, 11, 99
11, 89080, Control_c, 4, 11, 101
11, 89100, Control_c, 4, 11, 104
11, 89120, Control_c, 4, 11, 106
11, 89140, Control_c, 4, 11, 109
11, 89160, Control_c, 4, 11, 112
11, 89180, Control_c, 4, 11, 114
11, 89200, Control_c, 4, 11, 117
11, 89220, Control_c, 4, 11, 119
11, 89240, Control_c, 4, 11, 122
11, 89260, Control_c, 4, 11, 124
11, 89280, Control_c, 4, 11, 127
11, 89300, Control_c, 4, 11, 124
11, 89320, Control_c, 4, 11, 122
11, 89340, Control_c, 4, 11, 119
11, 89360, Control_c, 4, 11, 117
11, 89380, Control_c, 4, 11, 114
11, 89400, Control_c, 4, 11, 112
11, 89420, Control_c, 4, 11, 109
11, 89440, Control_c, 4, 11, 106
11, 89460, Control_c, 4, 11, 104
11, 89480, Control_c, 4, 11, 101
11, 89500, Control_c, 4, 11, 96
11, 89511, Note_on_c, 4, 36, 0
11, 89520, Note_on_c, 4, 55, 68
11, 89520, Note_on_c, 4, 43, 68
11, 89991, Note_on_c, 4, 55, 0
11, 89991, Note_on_c, 4, 43, 0
11, 90000, Note_on_c, 4, 55, 68
11, 90000, Note_on_c, 4, 43, 68
11, 90471, Note_on_c, 4, 55, 0
11, 90471, Note_on_c, 4, 43, 0
11, 90480, Control_c, 4, 11, 96
11, 90480, Note_on_c, 4, 43, 68
11, 90480, Note_on_c, 4, 55, 68
11, 90500, Control_c, 4, 11, 97
11, 90520, Control_c, 4, 11, 99
11, 90540, Control_c, 4, 11, 100
11, 90560, Control_c, 4, 11, 101
11, 90580, Control_c, 4, 11, 102
11, 90600, Control_c, 4, 11, 104
11, 90620, Control_c, 4, 11, 105
11, 90640, Control_c, 4, 11, 106
11, 90660, Control_c, 4, 11, 108
11, 90680, Control_c, 4, 11, 109
11, 90700, Control_c, 4, 11, 110
11, 90720, Control_c, 4, 11, 112
11, 90740, Control_c, 4, 11, 113
11, 90760, Control_c, 4, 11, 114
11, 90780, Control_c, 4, 11, 115
11, 90800, Control_c, 4, 11, 117
11, 90820, Control_c, 4, 11, 118
11, 90840, Control_c, 4, 11, 119
11, 90860, Control_c, 4, 11, 121
11, 90880, Control_c, 4, 11, 122
11, 90900, Control_c, 4, 11, 123
11, 90920, Control_c, 4, 11, 124
11, 90940, Control_c, 4, 11, 126
11, 90951, Note_on_c, 4, 43, 0
11, 90951, Note_on_c, 4, 55, 0
11, 90960, Control_c, 4, 11, 127
11, 90960, Note_on_c, 4, 43, 68
11, 90960, Note_on_c, 4, 55, 68
11, 90980, Control_c, 4, 11, 126
11, 91000, Control_c, 4, 11, 124
11, 91020, Control_c, 4, 11, 123
11, 91040, Control_c, 4, 11, 122
11, 91060, Control_c, 4, 11, 121
11, 91080, Control_c, 4, 11, 119
11, 91100, Control_c, 4, 11, 118
11, 91120, Control_c, 4, 11, 117
11, 91140, Control_c, 4, 11, 115
11, 91160, Control_c, 4, 11, 114
11, 91180, Control_c, 4, 11, 113
11, 91200, Control_c, 4, 11, 112
11, 91220, Control_c, 4, 11, 110
11, 91240, Control_c, 4, 11, 109
11, 91260, Control_c, 4, 11, 108
11, 91280, Control_c, 4, 11, 106
11, 91300, Control_c, 4, 11, 105
11, 91311, Note_on_c, 4, 43, 0
11, 91311, Note_on_c, 4, 55, 0
11, 91320, Note_on_c, 4, 55, 68
11, 91320, Control_c, 4, 11, 104
11, 91320, Note_on_c, 4, 43, 68
11, 91340, Control_c, 4, 11, 102
11, 91360, Control_c, 4, 11, 101
11, 91380, Control_c, 4, 11, 100
11, 91400, Control_c, 4, 11, 99
11, 91420, Control_c, 4, 11, 96
11, 91431, Note_on_c, 4, 55, 0
11, 91431, Note_on_c, 4, 43, 0
11, 91440, Note_on_c, 4, 55, 68
11, 91440, Note_on_c, 4, 43, 68
11, 91559, Note_on_c, 4, 55, 0
11, 91559, Note_on_c, 4, 43, 0
11, 92880, Control_c, 4, 11, 127
11, 93120, Note_on_c, 4, 48, 76
11, 93120, Note_on_c, 4, 60, 76
11, 93180, Control_c, 4, 11, 112
11, 93195, Control_c, 4, 11, 109
11, 93210, Control_c, 4, 11, 107
11, 93225, Control_c, 4, 11, 104
11, 93240, Control_c, 4, 11, 101
11, 93255, Control_c, 4, 11, 99
11, 93270, Control_c, 4, 11, 96
11, 93285, Control_c, 4, 11, 93
11, 93300, Control_c, 4, 11, 91
11, 93315, Control_c, 4, 11, 88
11, 93330, Control_c, 4, 11, 85
11, 93344, Note_on_c, 4, 48, 0
11, 93344, Note_on_c, 4, 60, 0
11, 93345, Control_c, 4, 11, 80
11, 93360, Note_on_c, 4, 60, 76
11, 93360, Note_on_c, 4, 48, 76
11, 93471, Note_on_c, 4, 60, 0
11, 93471, Note_on_c, 4, 48, 0
11, 93480, Note_on_c, 4, 65, 76
11, 93561, Note_on_c, 4, 65, 0
11, 93570, Note_on_c, 4, 65, 76
11, 93595, Note_on_c, 4, 65, 0
11, 93600, Note_on_c, 4, 65, 76
11, 93711, Note_on_c, 4, 65, 0
11, 93720, Note_on_c, 4, 65, 76
11, 93839, Note_on_c, 4, 65, 0
11, 93960, Note_on_c, 4, 65, 76
11, 94041, Note_on_c, 4, 65, 0
11, 94050, Note_on_c, 4, 65, 76
11, 94075, Note_on_c, 4, 65, 0
11, 94080, Note_on_c, 4, 65, 76
11, 94191, Note_on_c, 4, 65, 0
11, 94200, Note_on_c, 4, 65, 76
11, 94319, Note_on_c, 4, 65, 0
11, 94320, Control_c, 4, 11, 80
11, 94340, Control_c, 4, 11, 82
11, 94360, Control_c, 4, 11, 84
11, 94380, Control_c, 4, 11, 86
11, 94400, Control_c, 4, 11, 88
11, 94420, Control_c, 4, 11, 90
11, 94440, Control_c, 4, 11, 92
11, 94440, Note_on_c, 4, 65, 76
11, 94460, Control_c, 4, 11, 94
11, 94480, Control_c, 4, 11, 96
11, 94500, Control_c, 4, 11, 98
11, 94520, Control_c, 4, 11, 100
11, 94521, Note_on_c, 4, 65, 0
11, 94530, Note_on_c, 4, 65, 76
11, 94540, Control_c, 4, 11, 102
11, 94555, Note_on_c, 4, 65, 0
11, 94560, Note_on_c, 4, 65, 76
11, 94560, Control_c, 4, 11, 104
11, 94580, Control_c, 4, 11, 105
11, 94600, Control_c, 4, 11, 107
11, 94620, Control_c, 4, 11, 109
11, 94640, Control_c, 4, 11, 111
11, 94660, Control_c, 4, 11, 113
11, 94671, Note_on_c, 4, 65, 0
11, 94680, Control_c, 4, 11, 115
11, 94680, Note_on_c, 4, 65, 76
11, 94700, Control_c, 4, 11, 117
11, 94720, Control_c, 4, 11, 119
11, 94740, Control_c, 4, 11, 121
11, 94760, Control_c, 4, 11, 123
11, 94761, Note_on_c, 4, 65, 0
11, 94770, Note_on_c, 4, 65, 76
11, 94780, Control_c, 4, 11, 127
11, 94795, Note_on_c, 4, 65, 0
11, 94800, Note_on_c, 4, 60, 76
11, 94800, Note_on_c, 4, 48, 76
11, 94889, Note_on_c, 4, 60, 0
11, 94889, Note_on_c, 4, 48, 0
11, 94920, Note_on_c, 4, 48, 76
11, 94920, Note_on_c, 4, 60, 76
11, 95009, Note_on_c, 4, 48, 0
11, 95009, Note_on_c, 4, 60, 0
11, 95160, Note_on_c, 4, 60, 52
11, 95160, Note_on_c, 4, 48, 52
11, 95391, Note_on_c, 4, 60, 0
11, 95391, Note_on_c, 4, 48, 0
11, 95400, Note_on_c, 4, 60, 52
11, 95400, Control_c, 4, 11, 127
11, 95400, Note_on_c, 4, 48, 52
11, 95420, Control_c, 4, 11, 126
11, 95440, Control_c, 4, 11, 125
11, 95460, Control_c, 4, 11, 123
11, 95480, Control_c, 4, 11, 122
11, 95500, Control_c, 4, 11, 121
11, 95520, Control_c, 4, 11, 120
11, 95540, Control_c, 4, 11, 118
11, 95560, Control_c, 4, 11, 117
11, 95580, Control_c, 4, 11, 116
11, 95600, Control_c, 4, 11, 115
11, 95620, Control_c, 4, 11, 112
11, 95631, Note_on_c, 4, 60, 0
11, 95631, Note_on_c, 4, 48, 0
11, 95640, Note_on_c, 4, 62, 52
11, 95640, Note_on_c, 4, 55, 52
11, 95751, Note_on_c, 4, 62, 0
11, 95751, Note_on_c, 4, 55, 0
11, 95760, Note_on_c, 4, 60, 52
11, 95760, Note_on_c, 4, 48, 52
11, 95879, Note_on_c, 4, 60, 0
11, 95879, Note_on_c, 4, 48, 0
11, 97440, Control_c, 4, 11, 127
11, 97680, Note_on_c, 4, 60, 76
11, 97911, Note_on_c, 4, 60, 0
11, 97920, Note_on_c, 4, 60, 76
11, 98121, Note_on_c, 4, 60, 0
11, 98130, Note_on_c, 4, 60, 76
11, 98155, Note_on_c, 4, 60, 0
11, 98160, Note_on_c, 4, 60, 84
11, 98220, Control_c, 4, 11, 112
11, 98238, Control_c, 4, 11, 110
11, 98255, Control_c, 4, 11, 108
11, 98273, Control_c, 4, 11, 106
11, 98290, Control_c, 4, 11, 104
11, 98308, Control_c, 4, 11, 102
11, 98325, Control_c, 4, 11, 100
11, 98343, Control_c, 4, 11, 98
11, 98360, Control_c, 4, 11, 96
11, 98378, Control_c, 4, 11, 94
11, 98395, Control_c, 4, 11, 92
11, 98413, Control_c, 4, 11, 90
11, 98430, Control_c, 4, 11, 88
11, 98448, Control_c, 4, 11, 86
11, 98465, Control_c, 4, 11, 84
11, 98483, Control_c, 4, 11, 82
11, 98500, Control_c, 4, 11, 80
11, 98518, Control_c, 4, 11, 78
11, 98535, Control_c, 4, 11, 76
11, 98553, Control_c, 4, 11, 74
11, 98570, Control_c, 4, 11, 72
11, 98588, Control_c, 4, 11, 70
11, 98605, Control_c, 4, 11, 68
11, 98624, Note_on_c, 4, 60, 0
11, 98636, Control_c, 4, 11, 80
11, 98640, Note_on_c, 4, 60, 76
11, 98640, Note_on_c, 4, 48, 76
11, 98879, Note_on_c, 4, 60, 0
11, 98879, Note_on_c, 4, 48, 0
11, 98880, Note_on_c, 4, 55, 76
11, 98880, Note_on_c, 4, 62, 76
11, 99119, Note_on_c, 4, 55, 0
11, 99119, Note_on_c, 4, 62, 0
11, 99120, Note_on_c, 4, 48, 76
11, 99120, Note_on_c, 4, 60, 76
11, 99239, Note_on_c, 4, 48, 0
11, 99239, Note_on_c, 4, 60, 0
11, 99240, Control_c, 4, 11, 80
11, 99260, Control_c, 4, 11, 79
11, 99280, Control_c, 4, 11, 77
11, 99300, Control_c, 4, 11, 76
11, 99320, Control_c, 4, 11, 75
11, 99340, Control_c, 4, 11, 73
11, 99360, Control_c, 4, 11, 72
11, 99380, Control_c, 4, 11, 71
11, 99400, Control_c, 4, 11, 69
11, 99420, Control_c, 4, 11, 68
11, 99440, Control_c, 4, 11, 67
11, 99460, Control_c, 4, 11, 64
11, 99600, Note_on_c, 4, 48, 76
11, 99600, Note_on_c, 4, 60, 76
11, 99600, Control_c, 4, 11, 64
11, 99620, Control_c, 4, 11, 67
11, 99640, Control_c, 4, 11, 69
11, 99660, Control_c, 4, 11, 72
11, 99680, Control_c, 4, 11, 75
11, 99700, Control_c, 4, 11, 77
11, 99720, Control_c, 4, 11, 80
11, 99740, Control_c, 4, 11, 82
11, 99760, Control_c, 4, 11, 85
11, 99780, Control_c, 4, 11, 88
11, 99800, Control_c, 4, 11, 90
11, 99820, Control_c, 4, 11, 93
11, 99839, Note_on_c, 4, 48, 0
11, 99839, Note_on_c, 4, 60, 0
11, 99840, Note_on_c, 4, 55, 76
11, 99840, Note_on_c, 4, 62, 76
11, 99840, Control_c, 4, 11, 96
11, 99860, Control_c, 4, 11, 98
11, 99880, Control_c, 4, 11, 101
11, 99900, Control_c, 4, 11, 103
11, 99920, Control_c, 4, 11, 106
11, 99940, Control_c, 4, 11, 109
11, 99951, Note_on_c, 4, 55, 0
11, 99951, Note_on_c, 4, 62, 0
11, 99960, Note_on_c, 4, 67, 76
11, 99960, Note_on_c, 4, 55, 76
11, 99960, Control_c, 4, 11, 111
11, 99980, Control_c, 4, 11, 114
11, 100000, Control_c, 4, 11, 117
11, 100020, Control_c, 4, 11, 119
11, 100040, Control_c, 4, 11, 122
11, 100060, Control_c, 4, 11, 127
11, 100071, Note_on_c, 4, 67, 0
11, 100071, Note_on_c, 4, 55, 0
11, 100080, Note_on_c, 4, 48, 76
11, 100080, Note_on_c, 4, 60, 76
11, 100199, Note_on_c, 4, 48, 0
11, 100199, Note_on_c, 4, 60, 0
11, 106560, Control_c, 4, 11, 80
11, 106800, Note_on_c, 4, 60, 68
11, 106800, Note_on_c, 4, 48, 68
11, 107271, Note_on_c, 4, 60, 0
11, 107271, Note_on_c, 4, 48, 0
11, 107280, Note_on_c, 4, 60, 68
11, 107280, Note_on_c, 4, 48, 68
11, 107751, Note_on_c, 4, 60, 0
11, 107751, Note_on_c, 4, 48, 0
11, 107760, Note_on_c, 4, 60, 68
11, 107760, Note_on_c, 4, 48, 68
11, 107760, Control_c, 4, 11, 80
11, 107820, Control_c, 4, 11, 82
11, 107880, Control_c, 4, 11, 84
11, 107940, Control_c, 4, 11, 86
11, 108000, Control_c, 4, 11, 88
11, 108060, Control_c, 4, 11, 90
11, 108111, Note_on_c, 4, 60, 0
11, 108111, Note_on_c, 4, 48, 0
11, 108120, Note_on_c, 4, 60, 68
11, 108120, Control_c, 4, 11, 92
11, 108120, Note_on_c, 4, 48, 68
11, 108180, Control_c, 4, 11, 94
11, 108231, Note_on_c, 4, 60, 0
11, 108231, Note_on_c, 4, 48, 0
11, 108240, Note_on_c, 4, 60, 68
11, 108240, Note_on_c, 4, 48, 68
11, 108240, Control_c, 4, 11, 96
11, 108300, Control_c, 4, 11, 98
11, 108360, Control_c, 4, 11, 100
11, 108420, Control_c, 4, 11, 102
11, 108471, Note_on_c, 4, 60, 0
11, 108471, Note_on_c, 4, 48, 0
11, 108480, Note_on_c, 4, 60, 68
11, 108480, Control_c, 4, 11, 104
11, 108480, Note_on_c, 4, 48, 68
11, 108540, Control_c, 4, 11, 105
11, 108591, Note_on_c, 4, 60, 0
11, 108591, Note_on_c, 4, 48, 0
11, 108600, Control_c, 4, 11, 107
11, 108600, Note_on_c, 4, 60, 68
11, 108600, Note_on_c, 4, 48, 68
11, 108660, Control_c, 4, 11, 109
11, 108711, Note_on_c, 4, 60, 0
11, 108711, Note_on_c, 4, 48, 0
11, 108720, Note_on_c, 4, 60, 68
11, 108720, Note_on_c, 4, 48, 68
11, 108720, Control_c, 4, 11, 111
11, 108780, Control_c, 4, 11, 113
11, 108831, Note_on_c, 4, 60, 0
11, 108831, Note_on_c, 4, 48, 0
11, 108840, Note_on_c, 4, 60, 68
11, 108840, Note_on_c, 4, 48, 68
11, 108840, Control_c, 4, 11, 115
11, 108900, Control_c, 4, 11, 117
11, 108951, Note_on_c, 4, 60, 0
11, 108951, Note_on_c, 4, 48, 0
11, 108960, Note_on_c, 4, 60, 68
11, 108960, Control_c, 4, 11, 119
11, 108960, Note_on_c, 4, 48, 68
11, 109020, Control_c, 4, 11, 121
11, 109071, Note_on_c, 4, 60, 0
11, 109071, Note_on_c, 4, 48, 0
11, 109080, Control_c, 4, 11, 123
11, 109080, Note_on_c, 4, 60, 68
11, 109080, Note_on_c, 4, 48, 68
11, 109140, Control_c, 4, 11, 127
11, 109191, Note_on_c, 4, 60, 0
11, 109191, Note_on_c, 4, 48, 0
11, 109198, Control_c, 4, 11, 96
11, 109200, Note_on_c, 4, 60, 68
11, 109200, Note_on_c, 4, 48, 68
11, 109200, Control_c, 4, 11, 96
11, 109220, Control_c, 4, 11, 97
11, 109240, Control_c, 4, 11, 99
11, 109260, Control_c, 4, 11, 100
11, 109280, Control_c, 4, 11, 101
11, 109300, Control_c, 4, 11, 102
11, 109320, Control_c, 4, 11, 104
11, 109340, Control_c, 4, 11, 105
11, 109360, Control_c, 4, 11, 106
11, 109380, Control_c, 4, 11, 108
11, 109400, Control_c, 4, 11, 109
11, 109420, Control_c, 4, 11, 110
11, 109440, Control_c, 4, 11, 112
11, 109460, Control_c, 4, 11, 113
11, 109480, Control_c, 4, 11, 114
11, 109500, Control_c, 4, 11, 115
11, 109520, Control_c, 4, 11, 117
11, 109540, Control_c, 4, 11, 118
11, 109560, Control_c, 4, 11, 119
11, 109580, Control_c, 4, 11, 121
11, 109600, Control_c, 4, 11, 122
11, 109620, Control_c, 4, 11, 123
11, 109640, Control_c, 4, 11, 124
11, 109660, Control_c, 4, 11, 127
11, 109679, Note_on_c, 4, 60, 0
11, 109679, Note_on_c, 4, 48, 0
11, 109800, Control_c, 4, 11, 96
11, 109920, Note_on_c, 4, 60, 68
11, 109920, Note_on_c, 4, 48, 68
11, 110039, Note_on_c, 4, 60, 0
11, 110039, Note_on_c, 4, 48, 0
11, 110400, Note_on_c, 4, 48, 68
11, 110400, Note_on_c, 4, 60, 68
11, 110519, Note_on_c, 4, 60, 0
11, 110639, Note_on_c, 4, 48, 0
11, 110640, Note_on_c, 4, 47, 68
11, 110640, Control_c, 4, 11, 96
11, 110660, Control_c, 4, 11, 98
11, 110680, Control_c, 4, 11, 99
11, 110700, Control_c, 4, 11, 101
11, 110720, Control_c, 4, 11, 103
11, 110740, Control_c, 4, 11, 105
11, 110760, Control_c, 4, 11, 106
11, 110780, Control_c, 4, 11, 108
11, 110800, Control_c, 4, 11, 110
11, 110820, Control_c, 4, 11, 112
11, 110840, Control_c, 4, 11, 113
11, 110860, Control_c, 4, 11, 115
11, 110880, Control_c, 4, 11, 117
11, 110900, Control_c, 4, 11, 118
11, 110920, Control_c, 4, 11, 120
11, 110940, Control_c, 4, 11, 122
11, 110960, Control_c, 4, 11, 124
11, 110980, Control_c, 4, 11, 125
11, 111000, Control_c, 4, 11, 127
11, 111013, Control_c, 4, 11, 124
11, 111027, Control_c, 4, 11, 120
11, 111040, Control_c, 4, 11, 117
11, 111053, Control_c, 4, 11, 113
11, 111067, Control_c, 4, 11, 110
11, 111080, Control_c, 4, 11, 106
11, 111093, Control_c, 4, 11, 103
11, 111107, Control_c, 4, 11, 96
11, 111119, Note_on_c, 4, 47, 0
11, 111120, Note_on_c, 4, 48, 68
11, 111239, Note_on_c, 4, 48, 0
11, 111600, Note_on_c, 4, 47, 68
11, 111600, Control_c, 4, 11, 96
11, 111620, Control_c, 4, 11, 99
11, 111640, Control_c, 4, 11, 101
11, 111660, Control_c, 4, 11, 104
11, 111680, Control_c, 4, 11, 106
11, 111700, Control_c, 4, 11, 109
11, 111720, Control_c, 4, 11, 112
11, 111740, Control_c, 4, 11, 114
11, 111760, Control_c, 4, 11, 117
11, 111780, Control_c, 4, 11, 119
11, 111800, Control_c, 4, 11, 122
11, 111820, Control_c, 4, 11, 124
11, 111840, Control_c, 4, 11, 127
11, 111860, Control_c, 4, 11, 124
11, 111880, Control_c, 4, 11, 122
11, 111900, Control_c, 4, 11, 119
11, 111920, Control_c, 4, 11, 117
11, 111940, Control_c, 4, 11, 114
11, 111960, Control_c, 4, 11, 112
11, 111980, Control_c, 4, 11, 109
11, 112000, Control_c, 4, 11, 106
11, 112020, Control_c, 4, 11, 104
11, 112040, Control_c, 4, 11, 101
11, 112060, Control_c, 4, 11, 96
11, 112079, Note_on_c, 4, 47, 0
11, 112080, Note_on_c, 4, 48, 68
11, 112199, Note_on_c, 4, 48, 0
11, 112500, Control_c, 4, 11, 127
11, 112560, Note_on_c, 4, 47, 52
11, 113039, Note_on_c, 4, 47, 0
11, 113040, Note_on_c, 4, 47, 52
11, 113519, Note_on_c, 4, 47, 0
11, 113520, Note_on_c, 4, 47, 52
11, 113520, Control_c, 4, 11, 127
11, 113552, Control_c, 4, 11, 126
11, 113584, Control_c, 4, 11, 125
11, 113616, Control_c, 4, 11, 124
11, 113648, Control_c, 4, 11, 123
11, 113680, Control_c, 4, 11, 122
11, 113712, Control_c, 4, 11, 121
11, 113744, Control_c, 4, 11, 120
11, 113776, Control_c, 4, 11, 119
11, 113808, Control_c, 4, 11, 118
11, 113840, Control_c, 4, 11, 117
11, 113872, Control_c, 4, 11, 116
11, 113904, Control_c, 4, 11, 115
11, 113936, Control_c, 4, 11, 114
11, 113968, Control_c, 4, 11, 112
11, 113999, Note_on_c, 4, 47, 0
11, 115680, Control_c, 4, 11, 127
11, 115920, Note_on_c, 4, 55, 44
11, 115920, Note_on_c, 4, 62, 44
11, 116399, Note_on_c, 4, 55, 0
11, 116399, Note_on_c, 4, 62, 0
11, 116400, Note_on_c, 4, 60, 44
11, 116400, Note_on_c, 4, 48, 44
11, 116639, Note_on_c, 4, 60, 0
11, 116639, Note_on_c, 4, 48, 0
11, 116880, Note_on_c, 4, 55, 44
11, 116880, Note_on_c, 4, 62, 44
11, 117359, Note_on_c, 4, 55, 0
11, 117359, Note_on_c, 4, 62, 0
11, 117360, Note_on_c, 4, 48, 44
11, 117360, Note_on_c, 4, 60, 44
11, 117599, Note_on_c, 4, 48, 0
11, 117599, Note_on_c, 4, 60, 0
11, 117960, Note_on_c, 4, 55, 76
11, 117960, Note_on_c, 4, 48, 76
11, 118020, Control_c, 4, 11, 112
11, 118035, Control_c, 4, 11, 109
11, 118050, Control_c, 4, 11, 107
11, 118065, Control_c, 4, 11, 104
11, 118080, Control_c, 4, 11, 101
11, 118095, Control_c, 4, 11, 99
11, 118110, Control_c, 4, 11, 96
11, 118125, Control_c, 4, 11, 93
11, 118140, Control_c, 4, 11, 91
11, 118155, Control_c, 4, 11, 88
11, 118170, Control_c, 4, 11, 85
11, 118185, Control_c, 4, 11, 80
11, 118191, Note_on_c, 4, 55, 0
11, 118191, Note_on_c, 4, 48, 0
11, 118200, Note_on_c, 4, 48, 76
11, 118200, Note_on_c, 4, 55, 76
11, 118311, Note_on_c, 4, 48, 0
11, 118311, Note_on_c, 4, 55, 0
11, 118320, Note_on_c, 4, 48, 76
11, 118320, Note_on_c, 4, 55, 76
11, 118679, Note_on_c, 4, 48, 0
11, 118679, Note_on_c, 4, 55, 0
11, 118679, End_track
12, 0, Start_track
12, 0, Title_t, "French Horn III in E-flat"
12, 0, MIDI_port, 0
12, 0, Program_c, 5, 60
12, 0, Control_c, 5, 7, 96
12, 0, Control_c, 5, 10, 50
12, 0, Control_c, 5, 11, 127
12, 4080, Note_on_c, 5, 63, 52
12, 4551, Note_on_c, 5, 63, 0
12, 4560, Note_on_c, 5, 63, 52
12, 5031, Note_on_c, 5, 63, 0
12, 5040, Note_on_c, 5, 63, 52
12, 5271, Note_on_c, 5, 63, 0
12, 5280, Note_on_c, 5, 63, 52
12, 5391, Note_on_c, 5, 63, 0
12, 5400, Note_on_c, 5, 63, 52
12, 5519, Note_on_c, 5, 63, 0
12, 6960, Control_c, 5, 11, 127
12, 7000, Control_c, 5, 11, 124
12, 7040, Control_c, 5, 11, 122
12, 7080, Note_on_c, 5, 58, 68
12, 7080, Control_c, 5, 11, 119
12, 7120, Control_c, 5, 11, 117
12, 7160, Control_c, 5, 11, 114
12, 7191, Note_on_c, 5, 58, 0
12, 7200, Control_c, 5, 11, 112
12, 7200, Note_on_c, 5, 58, 68
12, 7240, Control_c, 5, 11, 109
12, 7280, Control_c, 5, 11, 106
12, 7311, Note_on_c, 5, 58, 0
12, 7320, Note_on_c, 5, 58, 68
12, 7320, Control_c, 5, 11, 104
12, 7360, Control_c, 5, 11, 101
12, 7400, Control_c, 5, 11, 99
12, 7431, Note_on_c, 5, 58, 0
12, 7440, Note_on_c, 5, 63, 68
12, 7440, Control_c, 5, 11, 96
12, 7551, Note_on_c, 5, 63, 0
12, 7560, Note_on_c, 5, 63, 68
12, 7641, Note_on_c, 5, 63, 0
12, 7650, Note_on_c, 5, 63, 68
12, 7675, Note_on_c, 5, 63, 0
12, 7680, Note_on_c, 5, 63, 68
12, 7799, Note_on_c, 5, 63, 0
12, 17280, Control_c, 5, 11, 80
12, 17520, Note_on_c, 5, 63, 76
12, 17991, Note_on_c, 5, 63, 0
12, 18000, Note_on_c, 5, 58, 76
12, 18471, Note_on_c, 5, 58, 0
12, 18480, Control_c, 5, 11, 80
12, 18480, Note_on_c, 5, 63, 76
12, 18505, Control_c, 5, 11, 82
12, 18530, Control_c, 5, 11, 84
12, 18555, Control_c, 5, 11, 86
12, 18580, Control_c, 5, 11, 88
12, 18605, Control_c, 5, 11, 90
12, 18630, Control_c, 5, 11, 92
12, 18655, Control_c, 5, 11, 94
12, 18680, Control_c, 5, 11, 96
12, 18705, Control_c, 5, 11, 98
12, 18711, Note_on_c, 5, 63, 0
12, 18720, Note_on_c, 5, 58, 76
12, 18730, Control_c, 5, 11, 100
12, 18755, Control_c, 5, 11, 102
12, 18780, Control_c, 5, 11, 104
12, 18805, Control_c, 5, 11, 105
12, 18830, Control_c, 5, 11, 107
12, 18855, Control_c, 5, 11, 109
12, 18880, Control_c, 5, 11, 111
12, 18905, Control_c, 5, 11, 113
12, 18930, Control_c, 5, 11, 115
12, 18951, Note_on_c, 5, 58, 0
12, 18955, Control_c, 5, 11, 117
12, 18960, Note_on_c, 5, 58, 76
12, 18980, Control_c, 5, 11, 119
12, 19005, Control_c, 5, 11, 121
12, 19030, Control_c, 5, 11, 123
12, 19055, Control_c, 5, 11, 125
12, 19079, Note_on_c, 5, 58, 0
12, 19080, Control_c, 5, 11, 127
12, 19170, Note_on_c, 5, 67, 76
12, 19191, Note_on_c, 5, 67, 0
12, 19200, Note_on_c, 5, 67, 76
12, 19439, Note_on_c, 5, 67, 0
12, 19440, Control_c, 5, 11, 127
12, 19680, Note_on_c, 5, 65, 52
12, 19799, Note_on_c, 5, 65, 0
12, 19800, Note_on_c, 5, 63, 52
12, 19911, Note_on_c, 5, 63, 0
12, 19920, Control_c, 5, 11, 127
12, 19920, Note_on_c, 5, 63, 52
12, 19952, Control_c, 5, 11, 126
12, 19984, Control_c, 5, 11, 125
12, 20016, Control_c, 5, 11, 124
12, 20048, Control_c, 5, 11, 123
12, 20080, Control_c, 5, 11, 122
12, 20112, Control_c, 5, 11, 121
12, 20144, Control_c, 5, 11, 120
12, 20176, Control_c, 5, 11, 119
12, 20208, Control_c, 5, 11, 118
12, 20240, Control_c, 5, 11, 117
12, 20271, Note_on_c, 5, 63, 0
12, 20272, Control_c, 5, 11, 116
12, 20280, Note_on_c, 5, 63, 52
12, 20304, Control_c, 5, 11, 115
12, 20336, Control_c, 5, 11, 114
12, 20368, Control_c, 5, 11, 113
12, 20391, Note_on_c, 5, 63, 0
12, 20400, Note_on_c, 5, 67, 52
12, 20400, Control_c, 5, 11, 112
12, 20519, Note_on_c, 5, 67, 0
12, 23500, Control_c, 5, 11, 113
12, 23520, Control_c, 5, 11, 112
12, 23520, Note_on_c, 5, 65, 68
12, 23540, Control_c, 5, 11, 110
12, 23560, Control_c, 5, 11, 109
12, 23580, Control_c, 5, 11, 108
12, 23600, Control_c, 5, 11, 106
12, 23620, Control_c, 5, 11, 105
12, 23640, Control_c, 5, 11, 104
12, 23660, Control_c, 5, 11, 102
12, 23680, Control_c, 5, 11, 101
12, 23700, Control_c, 5, 11, 100
12, 23720, Control_c, 5, 11, 99
12, 23740, Control_c, 5, 11, 96
12, 23751, Note_on_c, 5, 65, 0
12, 23760, Note_on_c, 5, 65, 68
12, 23760, Control_c, 5, 11, 96
12, 23780, Control_c, 5, 11, 97
12, 23800, Control_c, 5, 11, 99
12, 23820, Control_c, 5, 11, 100
12, 23840, Control_c, 5, 11, 101
12, 23860, Control_c, 5, 11, 102
12, 23880, Control_c, 5, 11, 104
12, 23900, Control_c, 5, 11, 105
12, 23920, Control_c, 5, 11, 106
12, 23940, Control_c, 5, 11, 108
12, 23960, Control_c, 5, 11, 109
12, 23980, Control_c, 5, 11, 110
12, 23991, Note_on_c, 5, 65, 0
12, 24000, Control_c, 5, 11, 112
12, 24000, Note_on_c, 5, 67, 84
12, 24020, Control_c, 5, 11, 113
12, 24040, Control_c, 5, 11, 114
12, 24060, Control_c, 5, 11, 115
12, 24080, Control_c, 5, 11, 117
12, 24100, Control_c, 5, 11, 118
12, 24120, Control_c, 5, 11, 119
12, 24140, Control_c, 5, 11, 121
12, 24160, Control_c, 5, 11, 122
12, 24180, Control_c, 5, 11, 123
12, 24200, Control_c, 5, 11, 124
12, 24220, Control_c, 5, 11, 127
12, 24231, Note_on_c, 5, 67, 0
12, 24240, Note_on_c, 5, 65, 52
12, 24359, Note_on_c, 5, 65, 0
12, 24720, Note_on_c, 5, 68, 52
12, 25191, Note_on_c, 5, 68, 0
12, 25196, Control_c, 5, 11, 80
12, 25200, Control_c, 5, 11, 80
12, 25200, Note_on_c, 5, 68, 76
12, 25220, Control_c, 5, 11, 82
12, 25240, Control_c, 5, 11, 84
12, 25260, Control_c, 5, 11, 86
12, 25280, Control_c, 5, 11, 88
12, 25300, Control_c, 5, 11, 90
12, 25320, Control_c, 5, 11, 92
12, 25340, Control_c, 5, 11, 94
12, 25360, Control_c, 5, 11, 96
12, 25380, Control_c, 5, 11, 98
12, 25400, Control_c, 5, 11, 100
12, 25420, Control_c, 5, 11, 102
12, 25440, Control_c, 5, 11, 104
12, 25460, Control_c, 5, 11, 105
12, 25480, Control_c, 5, 11, 107
12, 25500, Control_c, 5, 11, 109
12, 25520, Control_c, 5, 11, 111
12, 25540, Control_c, 5, 11, 113
12, 25551, Note_on_c, 5, 68, 0
12, 25560, Note_on_c, 5, 68, 76
12, 25560, Control_c, 5, 11, 115
12, 25580, Control_c, 5, 11, 117
12, 25600, Control_c, 5, 11, 119
12, 25620, Control_c, 5, 11, 121
12, 25640, Control_c, 5, 11, 123
12, 25660, Control_c, 5, 11, 127
12, 25671, Note_on_c, 5, 68, 0
12, 25680, Note_on_c, 5, 67, 76
12, 25769, Note_on_c, 5, 67, 0
12, 25800, Note_on_c, 5, 65, 76
12, 25889, Note_on_c, 5, 65, 0
12, 26160, Control_c, 5, 11, 96
12, 26280, Control_c, 5, 11, 96
12, 26280, Note_on_c, 5, 63, 68
12, 26300, Control_c, 5, 11, 99
12, 26320, Control_c, 5, 11, 101
12, 26340, Control_c, 5, 11, 104
12, 26360, Control_c, 5, 11, 106
12, 26380, Control_c, 5, 11, 109
12, 26399, Note_on_c, 5, 63, 0
12, 26400, Control_c, 5, 11, 112
12, 26400, Note_on_c, 5, 65, 68
12, 26420, Control_c, 5, 11, 114
12, 26440, Control_c, 5, 11, 117
12, 26460, Control_c, 5, 11, 119
12, 26480, Control_c, 5, 11, 122
12, 26500, Control_c, 5, 11, 124
12, 26511, Note_on_c, 5, 65, 0
12, 26520, Control_c, 5, 11, 127
12, 26520, Note_on_c, 5, 65, 68
12, 26533, Control_c, 5, 11, 124
12, 26547, Control_c, 5, 11, 120
12, 26560, Control_c, 5, 11, 117
12, 26573, Control_c, 5, 11, 113
12, 26587, Control_c, 5, 11, 110
12, 26600, Control_c, 5, 11, 106
12, 26613, Control_c, 5, 11, 103
12, 26627, Control_c, 5, 11, 96
12, 26631, Note_on_c, 5, 65, 0
12, 26640, Note_on_c, 5, 63, 68
12, 26759, Note_on_c, 5, 63, 0
12, 29040, Note_on_c, 5, 63, 84
12, 29100, Control_c, 5, 11, 112
12, 29118, Control_c, 5, 11, 110
12, 29135, Control_c, 5, 11, 108
12, 29153, Control_c, 5, 11, 106
12, 29170, Control_c, 5, 11, 104
12, 29188, Control_c, 5, 11, 102
12, 29205, Control_c, 5, 11, 100
12, 29223, Control_c, 5, 11, 98
12, 29240, Control_c, 5, 11, 96
12, 29258, Control_c, 5, 11, 94
12, 29275, Control_c, 5, 11, 92
12, 29293, Control_c, 5, 11, 90
12, 29310, Control_c, 5, 11, 88
12, 29328, Control_c, 5, 11, 86
12, 29345, Control_c, 5, 11, 84
12, 29363, Control_c, 5, 11, 82
12, 29380, Control_c, 5, 11, 80
12, 29398, Control_c, 5, 11, 78
12, 29415, Control_c, 5, 11, 76
12, 29433, Control_c, 5, 11, 74
12, 29450, Control_c, 5, 11, 72
12, 29468, Control_c, 5, 11, 70
12, 29485, Control_c, 5, 11, 68
12, 29503, Control_c, 5, 11, 64
12, 29504, Note_on_c, 5, 63, 0
12, 29520, Note_on_c, 5, 63, 84
12, 29631, Note_on_c, 5, 63, 0
12, 29640, Note_on_c, 5, 67, 84
12, 29871, Note_on_c, 5, 67, 0
12, 29880, Note_on_c, 5, 67, 84
12, 29991, Note_on_c, 5, 67, 0
12, 30000, Note_on_c, 5, 67, 84
12, 30119, Note_on_c, 5, 67, 0
12, 30360, Control_c, 5, 11, 127
12, 30480, Note_on_c, 5, 63, 52
12, 30591, Note_on_c, 5, 63, 0
12, 30600, Note_on_c, 5, 67, 52
12, 30831, Note_on_c, 5, 67, 0
12, 30840, Note_on_c, 5, 67, 52
12, 30951, Note_on_c, 5, 67, 0
12, 30960, Note_on_c, 5, 67, 52
12, 31079, Note_on_c, 5, 67, 0
12, 31800, Note_on_c, 5, 67, 76
12, 31889, Note_on_c, 5, 67, 0
12, 31920, Note_on_c, 5, 63, 52
12, 32009, Note_on_c, 5, 63, 0
12, 36240, Note_on_c, 5, 67, 84
12, 36591, Note_on_c, 5, 67, 0
12, 36600, Note_on_c, 5, 67, 92
12, 36689, Note_on_c, 5, 67, 0
12, 36720, Note_on_c, 5, 67, 84
12, 37071, Note_on_c, 5, 67, 0
12, 37080, Note_on_c, 5, 67, 92
12, 37169, Note_on_c, 5, 67, 0
12, 37200, Note_on_c, 5, 67, 84
12, 37289, Note_on_c, 5, 67, 0
12, 37320, Note_on_c, 5, 67, 92
12, 37409, Note_on_c, 5, 67, 0
12, 37440, Note_on_c, 5, 67, 84
12, 37529, Note_on_c, 5, 67, 0
12, 37560, Note_on_c, 5, 67, 92
12, 37649, Note_on_c, 5, 67, 0
12, 37680, Note_on_c, 5, 67, 84
12, 37769, Note_on_c, 5, 67, 0
12, 38160, Note_on_c, 5, 58, 52
12, 38991, Note_on_c, 5, 58, 0
12, 39000, Note_on_c, 5, 67, 52
12, 39089, Note_on_c, 5, 67, 0
12, 39120, Note_on_c, 5, 65, 52
12, 39209, Note_on_c, 5, 65, 0
12, 41040, Note_on_c, 5, 67, 52
12, 41271, Note_on_c, 5, 67, 0
12, 41280, Note_on_c, 5, 67, 52
12, 41511, Note_on_c, 5, 67, 0
12, 41520, Note_on_c, 5, 67, 52
12, 41751, Note_on_c, 5, 67, 0
12, 41760, Note_on_c, 5, 67, 52
12, 41991, Note_on_c, 5, 67, 0
12, 42000, Note_on_c, 5, 67, 52
12, 42119, Note_on_c, 5, 67, 0
12, 45840, Control_c, 5, 11, 112
12, 45880, Note_on_c, 5, 67, 84
12, 45904, Control_c, 5, 11, 113
12, 45915, Note_on_c, 5, 67, 0
12, 45920, Note_on_c, 5, 67, 84
12, 45955, Note_on_c, 5, 67, 0
12, 45960, Note_on_c, 5, 67, 84
12, 45968, Control_c, 5, 11, 114
12, 45995, Note_on_c, 5, 67, 0
12, 46000, Note_on_c, 5, 67, 84
12, 46032, Control_c, 5, 11, 115
12, 46035, Note_on_c, 5, 67, 0
12, 46040, Note_on_c, 5, 67, 84
12, 46075, Note_on_c, 5, 67, 0
12, 46080, Note_on_c, 5, 67, 84
12, 46096, Control_c, 5, 11, 116
12, 46115, Note_on_c, 5, 67, 0
12, 46120, Note_on_c, 5, 67, 84
12, 46155, Note_on_c, 5, 67, 0
12, 46160, Note_on_c, 5, 67, 84
12, 46160, Control_c, 5, 11, 117
12, 46195, Note_on_c, 5, 67, 0
12, 46200, Note_on_c, 5, 67, 84
12, 46224, Control_c, 5, 11, 118
12, 46235, Note_on_c, 5, 67, 0
12, 46240, Note_on_c, 5, 67, 84
12, 46275, Note_on_c, 5, 67, 0
12, 46280, Note_on_c, 5, 67, 84
12, 46288, Control_c, 5, 11, 119
12, 46315, Note_on_c, 5, 67, 0
12, 46320, Note_on_c, 5, 67, 84
12, 46352, Control_c, 5, 11, 120
12, 46416, Control_c, 5, 11, 121
12, 46480, Control_c, 5, 11, 122
12, 46544, Control_c, 5, 11, 123
12, 46608, Control_c, 5, 11, 124
12, 46671, Note_on_c, 5, 67, 0
12, 46672, Control_c, 5, 11, 125
12, 46680, Note_on_c, 5, 67, 84
12, 46736, Control_c, 5, 11, 127
12, 46791, Note_on_c, 5, 67, 0
12, 46800, Note_on_c, 5, 67, 84
12, 47151, Note_on_c, 5, 67, 0
12, 47160, Note_on_c, 5, 67, 92
12, 47249, Note_on_c, 5, 67, 0
12, 47280, Note_on_c, 5, 67, 84
12, 47631, Note_on_c, 5, 67, 0
12, 47640, Note_on_c, 5, 67, 92
12, 47729, Note_on_c, 5, 67, 0
12, 47760, Note_on_c, 5, 67, 84
12, 47849, Note_on_c, 5, 67, 0
12, 47880, Note_on_c, 5, 67, 92
12, 47969, Note_on_c, 5, 67, 0
12, 48000, Note_on_c, 5, 67, 84
12, 48089, Note_on_c, 5, 67, 0
12, 48120, Note_on_c, 5, 67, 92
12, 48209, Note_on_c, 5, 67, 0
12, 48240, Note_on_c, 5, 67, 84
12, 48329, Note_on_c, 5, 67, 0
12, 62160, Note_on_c, 5, 65, 84
12, 62631, Note_on_c, 5, 65, 0
12, 62640, Note_on_c, 5, 58, 84
12, 63111, Note_on_c, 5, 58, 0
12, 63120, Note_on_c, 5, 58, 84
12, 63471, Note_on_c, 5, 58, 0
12, 63480, Note_on_c, 5, 67, 84
12, 63591, Note_on_c, 5, 67, 0
12, 63600, Note_on_c, 5, 68, 84
12, 63719, Note_on_c, 5, 68, 0
12, 63840, Note_on_c, 5, 65, 84
12, 64191, Note_on_c, 5, 65, 0
12, 64200, Note_on_c, 5, 58, 84
12, 64431, Note_on_c, 5, 58, 0
12, 64440, Note_on_c, 5, 58, 84
12, 64551, Note_on_c, 5, 58, 0
12, 64560, Note_on_c, 5, 63, 84
12, 64799, Note_on_c, 5, 63, 0
12, 64800, Note_on_c, 5, 65, 84
12, 64919, Note_on_c, 5, 65, 0
12, 64920, Note_on_c, 5, 67, 84
12, 65031, Note_on_c, 5, 67, 0
12, 65040, Note_on_c, 5, 68, 92
12, 65399, Note_on_c, 5, 68, 0
12, 65400, Note_on_c, 5, 67, 84
12, 65511, Note_on_c, 5, 67, 0
12, 65520, Note_on_c, 5, 65, 84
12, 65759, Note_on_c, 5, 65, 0
12, 65760, Note_on_c, 5, 67, 84
12, 65879, Note_on_c, 5, 67, 0
12, 65880, Note_on_c, 5, 68, 84
12, 65991, Note_on_c, 5, 68, 0
12, 66000, Note_on_c, 5, 70, 92
12, 66359, Note_on_c, 5, 70, 0
12, 66360, Note_on_c, 5, 68, 84
12, 66471, Note_on_c, 5, 68, 0
12, 66480, Note_on_c, 5, 67, 84
12, 66711, Note_on_c, 5, 67, 0
12, 66720, Note_on_c, 5, 55, 84
12, 66831, Note_on_c, 5, 55, 0
12, 66840, Note_on_c, 5, 55, 84
12, 66951, Note_on_c, 5, 55, 0
12, 66960, Note_on_c, 5, 55, 84
12, 67079, Note_on_c, 5, 55, 0
12, 67680, Note_on_c, 5, 68, 92
12, 68144, Note_on_c, 5, 68, 0
12, 68160, Note_on_c, 5, 65, 84
12, 68511, Note_on_c, 5, 65, 0
12, 68520, Note_on_c, 5, 67, 84
12, 68631, Note_on_c, 5, 67, 0
12, 68640, Note_on_c, 5, 67, 84
12, 68991, Note_on_c, 5, 67, 0
12, 69000, Note_on_c, 5, 55, 84
12, 69111, Note_on_c, 5, 55, 0
12, 69120, Note_on_c, 5, 58, 84
12, 69231, Note_on_c, 5, 58, 0
12, 69240, Note_on_c, 5, 55, 84
12, 69359, Note_on_c, 5, 55, 0
12, 71400, Note_on_c, 5, 58, 84
12, 71489, Note_on_c, 5, 58, 0
12, 71520, Note_on_c, 5, 58, 84
12, 71609, Note_on_c, 5, 58, 0
12, 71640, Note_on_c, 5, 58, 84
12, 71729, Note_on_c, 5, 58, 0
12, 71760, Note_on_c, 5, 58, 84
12, 71849, Note_on_c, 5, 58, 0
12, 76560, Note_on_c, 5, 63, 84
12, 77031, Note_on_c, 5, 63, 0
12, 77040, Note_on_c, 5, 63, 84
12, 77271, Note_on_c, 5, 63, 0
12, 77280, Note_on_c, 5, 63, 84
12, 77481, Note_on_c, 5, 63, 0
12, 77490, Note_on_c, 5, 63, 84
12, 77515, Note_on_c, 5, 63, 0
12, 77520, Note_on_c, 5, 63, 92
12, 77984, Note_on_c, 5, 63, 0
12, 78000, Note_on_c, 5, 63, 84
12, 78231, Note_on_c, 5, 63, 0
12, 78240, Note_on_c, 5, 63, 84
12, 78441, Note_on_c, 5, 63, 0
12, 78450, Note_on_c, 5, 63, 84
12, 78475, Note_on_c, 5, 63, 0
12, 78480, Note_on_c, 5, 63, 92
12, 79071, Note_on_c, 5, 63, 0
12, 79080, Note_on_c, 5, 63, 84
12, 79191, Note_on_c, 5, 63, 0
12, 79200, Note_on_c, 5, 63, 84
12, 79311, Note_on_c, 5, 63, 0
12, 79320, Note_on_c, 5, 63, 84
12, 79431, Note_on_c, 5, 63, 0
12, 79440, Note_on_c, 5, 68, 84
12, 80031, Note_on_c, 5, 68, 0
12, 80040, Note_on_c, 5, 68, 84
12, 80151, Note_on_c, 5, 68, 0
12, 80160, Note_on_c, 5, 68, 84
12, 80271, Note_on_c, 5, 68, 0
12, 80280, Note_on_c, 5, 68, 84
12, 80391, Note_on_c, 5, 68, 0
12, 80400, Note_on_c, 5, 68, 84
12, 80519, Note_on_c, 5, 68, 0
12, 82920, Note_on_c, 5, 63, 52
12, 83001, Note_on_c, 5, 63, 0
12, 83010, Note_on_c, 5, 63, 52
12, 83035, Note_on_c, 5, 63, 0
12, 83040, Note_on_c, 5, 63, 52
12, 83151, Note_on_c, 5, 63, 0
12, 83160, Note_on_c, 5, 63, 52
12, 83279, Note_on_c, 5, 63, 0
12, 83400, Note_on_c, 5, 63, 52
12, 83481, Note_on_c, 5, 63, 0
12, 83490, Note_on_c, 5, 63, 52
12, 83515, Note_on_c, 5, 63, 0
12, 83520, Note_on_c, 5, 63, 52
12, 83631, Note_on_c, 5, 63, 0
12, 83640, Note_on_c, 5, 63, 52
12, 83759, Note_on_c, 5, 63, 0
12, 83880, Note_on_c, 5, 63, 52
12, 83961, Note_on_c, 5, 63, 0
12, 83970, Note_on_c, 5, 63, 52
12, 83995, Note_on_c, 5, 63, 0
12, 84000, Note_on_c, 5, 63, 52
12, 84111, Note_on_c, 5, 63, 0
12, 84120, Note_on_c, 5, 63, 52
12, 84239, Note_on_c, 5, 63, 0
12, 84360, Note_on_c, 5, 63, 52
12, 84441, Note_on_c, 5, 63, 0
12, 84450, Note_on_c, 5, 63, 52
12, 84475, Note_on_c, 5, 63, 0
12, 84480, Note_on_c, 5, 67, 52
12, 84591, Note_on_c, 5, 67, 0
12, 84600, Note_on_c, 5, 67, 52
12, 84719, Note_on_c, 5, 67, 0
12, 84840, Note_on_c, 5, 68, 52
12, 84921, Note_on_c, 5, 68, 0
12, 84930, Note_on_c, 5, 68, 52
12, 84955, Note_on_c, 5, 68, 0
12, 84960, Note_on_c, 5, 68, 52
12, 85071, Note_on_c, 5, 68, 0
12, 85080, Note_on_c, 5, 68, 52
12, 85199, Note_on_c, 5, 68, 0
12, 85260, Control_c, 5, 11, 96
12, 85320, Note_on_c, 5, 68, 68
12, 85320, Control_c, 5, 11, 96
12, 85340, Control_c, 5, 11, 98
12, 85360, Control_c, 5, 11, 99
12, 85380, Control_c, 5, 11, 101
12, 85400, Control_c, 5, 11, 103
12, 85401, Note_on_c, 5, 68, 0
12, 85410, Note_on_c, 5, 68, 68
12, 85420, Control_c, 5, 11, 105
12, 85435, Note_on_c, 5, 68, 0
12, 85440, Note_on_c, 5, 68, 68
12, 85440, Control_c, 5, 11, 106
12, 85460, Control_c, 5, 11, 108
12, 85480, Control_c, 5, 11, 110
12, 85500, Control_c, 5, 11, 112
12, 85520, Control_c, 5, 11, 113
12, 85540, Control_c, 5, 11, 115
12, 85551, Note_on_c, 5, 68, 0
12, 85560, Control_c, 5, 11, 117
12, 85560, Note_on_c, 5, 68, 68
12, 85580, Control_c, 5, 11, 118
12, 85600, Control_c, 5, 11, 120
12, 85620, Control_c, 5, 11, 122
12, 85640, Control_c, 5, 11, 124
12, 85660, Control_c, 5, 11, 127
12, 85671, Note_on_c, 5, 68, 0
12, 85680, Note_on_c, 5, 68, 68
12, 85680, Control_c, 5, 11, 127
12, 85700, Control_c, 5, 11, 126
12, 85720, Control_c, 5, 11, 124
12, 85740, Control_c, 5, 11, 123
12, 85760, Control_c, 5, 11, 122
12, 85780, Control_c, 5, 11, 121
12, 85791, Note_on_c, 5, 68, 0
12, 85800, Note_on_c, 5, 58, 68
12, 85800, Control_c, 5, 11, 119
12, 85820, Control_c, 5, 11, 118
12, 85840, Control_c, 5, 11, 117
12, 85860, Control_c, 5, 11, 115
12, 85880, Control_c, 5, 11, 114
12, 85881, Note_on_c, 5, 58, 0
12, 85890, Note_on_c, 5, 58, 68
12, 85900, Control_c, 5, 11, 113
12, 85915, Note_on_c, 5, 58, 0
12, 85920, Note_on_c, 5, 58, 68
12, 85920, Control_c, 5, 11, 112
12, 85940, Control_c, 5, 11, 110
12, 85960, Control_c, 5, 11, 109
12, 85980, Control_c, 5, 11, 108
12, 86000, Control_c, 5, 11, 106
12, 86020, Control_c, 5, 11, 105
12, 86031, Note_on_c, 5, 58, 0
12, 86040, Note_on_c, 5, 58, 68
12, 86040, Control_c, 5, 11, 104
12, 86060, Control_c, 5, 11, 102
12, 86080, Control_c, 5, 11, 101
12, 86100, Control_c, 5, 11, 100
12, 86120, Control_c, 5, 11, 99
12, 86121, Note_on_c, 5, 58, 0
12, 86130, Note_on_c, 5, 58, 68
12, 86140, Control_c, 5, 11, 96
12, 86155, Note_on_c, 5, 58, 0
12, 86160, Note_on_c, 5, 63, 68
12, 86271, Note_on_c, 5, 63, 0
12, 86280, Note_on_c, 5, 63, 68
12, 86361, Note_on_c, 5, 63, 0
12, 86370, Note_on_c, 5, 63, 68
12, 86395, Note_on_c, 5, 63, 0
12, 86400, Note_on_c, 5, 63, 68
12, 86519, Note_on_c, 5, 63, 0
12, 86640, Note_on_c, 5, 63, 68
12, 87111, Note_on_c, 5, 63, 0
12, 87120, Note_on_c, 5, 58, 68
12, 87120, Control_c, 5, 11, 96
12, 87140, Control_c, 5, 11, 97
12, 87160, Control_c, 5, 11, 99
12, 87180, Control_c, 5, 11, 100
12, 87200, Control_c, 5, 11, 101
12, 87220, Control_c, 5, 11, 102
12, 87240, Control_c, 5, 11, 104
12, 87260, Control_c, 5, 11, 105
12, 87280, Control_c, 5, 11, 106
12, 87300, Control_c, 5, 11, 108
12, 87320, Control_c, 5, 11, 109
12, 87340, Control_c, 5, 11, 110
12, 87360, Control_c, 5, 11, 112
12, 87380, Control_c, 5, 11, 113
12, 87400, Control_c, 5, 11, 114
12, 87420, Control_c, 5, 11, 115
12, 87440, Control_c, 5, 11, 117
12, 87460, Control_c, 5, 11, 118
12, 87480, Control_c, 5, 11, 119
12, 87500, Control_c, 5, 11, 121
12, 87520, Control_c, 5, 11, 122
12, 87540, Control_c, 5, 11, 123
12, 87560, Control_c, 5, 11, 124
12, 87580, Control_c, 5, 11, 127
12, 87599, Note_on_c, 5, 58, 0
12, 88320, Control_c, 5, 11, 96
12, 88560, Note_on_c, 5, 67, 68
12, 88799, Note_on_c, 5, 67, 0
12, 88800, Note_on_c, 5, 65, 68
12, 88919, Note_on_c, 5, 65, 0
12, 88920, Note_on_c, 5, 63, 68
12, 89031, Note_on_c, 5, 63, 0
12, 89040, Note_on_c, 5, 63, 68
12, 89040, Control_c, 5, 11, 96
12, 89060, Control_c, 5, 11, 99
12, 89080, Control_c, 5, 11, 101
12, 89100, Control_c, 5, 11, 104
12, 89120, Control_c, 5, 11, 106
12, 89140, Control_c, 5, 11, 109
12, 89160, Control_c, 5, 11, 112
12, 89180, Control_c, 5, 11, 114
12, 89200, Control_c, 5, 11, 117
12, 89220, Control_c, 5, 11, 119
12, 89240, Control_c, 5, 11, 122
12, 89260, Control_c, 5, 11, 124
12, 89271, Note_on_c, 5, 63, 0
12, 89280, Note_on_c, 5, 63, 68
12, 89280, Control_c, 5, 11, 127
12, 89300, Control_c, 5, 11, 124
12, 89320, Control_c, 5, 11, 122
12, 89340, Control_c, 5, 11, 119
12, 89360, Control_c, 5, 11, 117
12, 89380, Control_c, 5, 11, 114
12, 89400, Control_c, 5, 11, 112
12, 89420, Control_c, 5, 11, 109
12, 89440, Control_c, 5, 11, 106
12, 89460, Control_c, 5, 11, 104
12, 89480, Control_c, 5, 11, 101
12, 89500, Control_c, 5, 11, 96
12, 89511, Note_on_c, 5, 63, 0
12, 89520, Note_on_c, 5, 67, 68
12, 89639, Note_on_c, 5, 67, 0
12, 92880, Control_c, 5, 11, 127
12, 93120, Note_on_c, 5, 67, 76
12, 93180, Control_c, 5, 11, 112
12, 93195, Control_c, 5, 11, 109
12, 93210, Control_c, 5, 11, 107
12, 93225, Control_c, 5, 11, 104
12, 93240, Control_c, 5, 11, 101
12, 93255, Control_c, 5, 11, 99
12, 93270, Control_c, 5, 11, 96
12, 93285, Control_c, 5, 11, 93
12, 93300, Control_c, 5, 11, 91
12, 93315, Control_c, 5, 11, 88
12, 93330, Control_c, 5, 11, 85
12, 93344, Note_on_c, 5, 67, 0
12, 93345, Control_c, 5, 11, 80
12, 93360, Note_on_c, 5, 65, 76
12, 93471, Note_on_c, 5, 65, 0
12, 93480, Note_on_c, 5, 68, 76
12, 93561, Note_on_c, 5, 68, 0
12, 93570, Note_on_c, 5, 68, 76
12, 93595, Note_on_c, 5, 68, 0
12, 93600, Note_on_c, 5, 68, 76
12, 93711, Note_on_c, 5, 68, 0
12, 93720, Note_on_c, 5, 68, 76
12, 93839, Note_on_c, 5, 68, 0
12, 93960, Note_on_c, 5, 68, 76
12, 94041, Note_on_c, 5, 68, 0
12, 94050, Note_on_c, 5, 68, 76
12, 94075, Note_on_c, 5, 68, 0
12, 94080, Note_on_c, 5, 68, 76
12, 94191, Note_on_c, 5, 68, 0
12, 94200, Note_on_c, 5, 68, 76
12, 94319, Note_on_c, 5, 68, 0
12, 94320, Control_c, 5, 11, 80
12, 94340, Control_c, 5, 11, 82
12, 94360, Control_c, 5, 11, 84
12, 94380, Control_c, 5, 11, 86
12, 94400, Control_c, 5, 11, 88
12, 94420, Control_c, 5, 11, 90
12, 94440, Note_on_c, 5, 68, 76
12, 94440, Control_c, 5, 11, 92
12, 94460, Control_c, 5, 11, 94
12, 94480, Control_c, 5, 11, 96
12, 94500, Control_c, 5, 11, 98
12, 94520, Control_c, 5, 11, 100
12, 94521, Note_on_c, 5, 68, 0
12, 94530, Note_on_c, 5, 68, 76
12, 94540, Control_c, 5, 11, 102
12, 94555, Note_on_c, 5, 68, 0
12, 94560, Note_on_c, 5, 68, 76
12, 94560, Control_c, 5, 11, 104
12, 94580, Control_c, 5, 11, 105
12, 94600, Control_c, 5, 11, 107
12, 94620, Control_c, 5, 11, 109
12, 94640, Control_c, 5, 11, 111
12, 94660, Control_c, 5, 11, 113
12, 94671, Note_on_c, 5, 68, 0
12, 94680, Control_c, 5, 11, 115
12, 94680, Note_on_c, 5, 68, 76
12, 94700, Control_c, 5, 11, 117
12, 94720, Control_c, 5, 11, 119
12, 94740, Control_c, 5, 11, 121
12, 94760, Control_c, 5, 11, 123
12, 94761, Note_on_c, 5, 68, 0
12, 94770, Note_on_c, 5, 68, 76
12, 94780, Control_c, 5, 11, 127
12, 94795, Note_on_c, 5, 68, 0
12, 94800, Note_on_c, 5, 67, 76
12, 94889, Note_on_c, 5, 67, 0
12, 94920, Note_on_c, 5, 65, 76
12, 95009, Note_on_c, 5, 65, 0
12, 95160, Note_on_c, 5, 63, 52
12, 95391, Note_on_c, 5, 63, 0
12, 95400, Note_on_c, 5, 67, 52
12, 95400, Control_c, 5, 11, 127
12, 95420, Control_c, 5, 11, 126
12, 95440, Control_c, 5, 11, 125
12, 95460, Control_c, 5, 11, 123
12, 95480, Control_c, 5, 11, 122
12, 95500, Control_c, 5, 11, 121
12, 95520, Control_c, 5, 11, 120
12, 95540, Control_c, 5, 11, 118
12, 95560, Control_c, 5, 11, 117
12, 95580, Control_c, 5, 11, 116
12, 95600, Control_c, 5, 11, 115
12, 95620, Control_c, 5, 11, 112
12, 95631, Note_on_c, 5, 67, 0
12, 95640, Note_on_c, 5, 67, 52
12, 95751, Note_on_c, 5, 67, 0
12, 95760, Note_on_c, 5, 67, 52
12, 95879, Note_on_c, 5, 67, 0
12, 98400, Control_c, 5, 11, 127
12, 98640, Note_on_c, 5, 63, 52
12, 98879, Note_on_c, 5, 63, 0
12, 98880, Note_on_c, 5, 65, 52
12, 99119, Note_on_c, 5, 65, 0
12, 99120, Note_on_c, 5, 63, 52
12, 99239, Note_on_c, 5, 63, 0
12, 99360, Control_c, 5, 11, 80
12, 99420, Note_on_c, 5, 67, 76
12, 99471, Note_on_c, 5, 67, 0
12, 99480, Note_on_c, 5, 67, 76
12, 99531, Note_on_c, 5, 67, 0
12, 99540, Note_on_c, 5, 67, 76
12, 99591, Note_on_c, 5, 67, 0
12, 99600, Note_on_c, 5, 63, 76
12, 99600, Control_c, 5, 11, 80
12, 99620, Control_c, 5, 11, 82
12, 99640, Control_c, 5, 11, 84
12, 99660, Control_c, 5, 11, 86
12, 99680, Control_c, 5, 11, 88
12, 99700, Control_c, 5, 11, 90
12, 99720, Control_c, 5, 11, 92
12, 99740, Control_c, 5, 11, 94
12, 99760, Control_c, 5, 11, 96
12, 99780, Control_c, 5, 11, 98
12, 99800, Control_c, 5, 11, 100
12, 99820, Control_c, 5, 11, 102
12, 99839, Note_on_c, 5, 63, 0
12, 99840, Note_on_c, 5, 65, 76
12, 99840, Control_c, 5, 11, 104
12, 99860, Control_c, 5, 11, 105
12, 99880, Control_c, 5, 11, 107
12, 99900, Control_c, 5, 11, 109
12, 99920, Control_c, 5, 11, 111
12, 99940, Control_c, 5, 11, 113
12, 99960, Control_c, 5, 11, 115
12, 99980, Control_c, 5, 11, 117
12, 100000, Control_c, 5, 11, 119
12, 100020, Control_c, 5, 11, 121
12, 100040, Control_c, 5, 11, 123
12, 100060, Control_c, 5, 11, 127
12, 100071, Note_on_c, 5, 65, 0
12, 100080, Note_on_c, 5, 63, 76
12, 100199, Note_on_c, 5, 63, 0
12, 117960, Note_on_c, 5, 63, 76
12, 118020, Control_c, 5, 11, 112
12, 118035, Control_c, 5, 11, 109
12, 118050, Control_c, 5, 11, 107
12, 118065, Control_c, 5, 11, 104
12, 118080, Control_c, 5, 11, 101
12, 118095, Control_c, 5, 11, 99
12, 118110, Control_c, 5, 11, 96
12, 118125, Control_c, 5, 11, 93
12, 118140, Control_c, 5, 11, 91
12, 118155, Control_c, 5, 11, 88
12, 118170, Control_c, 5, 11, 85
12, 118185, Control_c, 5, 11, 80
12, 118191, Note_on_c, 5, 63, 0
12, 118200, Note_on_c, 5, 63, 76
12, 118311, Note_on_c, 5, 63, 0
12, 118320, Note_on_c, 5, 63, 76
12, 118679, Note_on_c, 5, 63, 0
12, 118679, End_track
13, 0, Start_track
13, 0, Title_t, "Trumpet in C"
13, 0, MIDI_port, 0
13, 0, Program_c, 6, 56
13, 0, Control_c, 6, 7, 96
13, 0, Control_c, 6, 10, 60
13, 0, Control_c, 6, 11, 127
13, 36240, Note_on_c, 6, 67, 84
13, 36240, Note_on_c, 6, 55, 84
13, 36591, Note_on_c, 6, 67, 0
13, 36591, Note_on_c, 6, 55, 0
13, 36600, Note_on_c, 6, 67, 92
13, 36600, Note_on_c, 6, 55, 92
13, 36689, Note_on_c, 6, 67, 0
13, 36689, Note_on_c, 6, 55, 0
13, 36720, Note_on_c, 6, 67, 84
13, 36720, Note_on_c, 6, 55, 84
13, 37071, Note_on_c, 6, 67, 0
13, 37071, Note_on_c, 6, 55, 0
13, 37080, Note_on_c, 6, 67, 92
13, 37080, Note_on_c, 6, 55, 92
13, 37169, Note_on_c, 6, 67, 0
13, 37169, Note_on_c, 6, 55, 0
13, 37200, Note_on_c, 6, 67, 84
13, 37200, Note_on_c, 6, 55, 84
13, 37289, Note_on_c, 6, 67, 0
13, 37289, Note_on_c, 6, 55, 0
13, 37320, Note_on_c, 6, 67, 92
13, 37320, Note_on_c, 6, 55, 92
13, 37409, Note_on_c, 6, 67, 0
13, 37409, Note_on_c, 6, 55, 0
13, 37440, Note_on_c, 6, 67, 84
13, 37440, Note_on_c, 6, 55, 84
13, 37529, Note_on_c, 6, 67, 0
13, 37529, Note_on_c, 6, 55, 0
13, 37560, Note_on_c, 6, 67, 92
13, 37560, Note_on_c, 6, 55, 92
13, 37649, Note_on_c, 6, 67, 0
13, 37649, Note_on_c, 6, 55, 0
13, 37680, Note_on_c, 6, 67, 84
13, 37680, Note_on_c, 6, 55, 84
13, 37769, Note_on_c, 6, 67, 0
13, 37769, Note_on_c, 6, 55, 0
13, 43560, Note_on_c, 6, 72, 52
13, 43560, Note_on_c, 6, 60, 52
13, 43641, Note_on_c, 6, 72, 0
13, 43641, Note_on_c, 6, 60, 0
13, 43650, Note_on_c, 6, 72, 52
13, 43650, Note_on_c, 6, 60, 52
13, 43675, Note_on_c, 6, 72, 0
13, 43675, Note_on_c, 6, 60, 0
13, 43680, Note_on_c, 6, 72, 52
13, 43680, Note_on_c, 6, 60, 52
13, 43791, Note_on_c, 6, 72, 0
13, 43791, Note_on_c, 6, 60, 0
13, 43800, Note_on_c, 6, 72, 52
13, 43800, Note_on_c, 6, 60, 52
13, 43911, Note_on_c, 6, 72, 0
13, 43911, Note_on_c, 6, 60, 0
13, 43920, Note_on_c, 6, 72, 52
13, 43920, Note_on_c, 6, 60, 52
13, 44039, Note_on_c, 6, 72, 0
13, 44039, Note_on_c, 6, 60, 0
13, 44400, Control_c, 6, 11, 64
13, 44460, Control_c, 6, 11, 66
13, 44520, Note_on_c, 6, 72, 84
13, 44520, Control_c, 6, 11, 68
13, 44520, Note_on_c, 6, 60, 84
13, 44580, Control_c, 6, 11, 70
13, 44601, Note_on_c, 6, 72, 0
13, 44601, Note_on_c, 6, 60, 0
13, 44610, Note_on_c, 6, 60, 84
13, 44610, Note_on_c, 6, 72, 84
13, 44635, Note_on_c, 6, 60, 0
13, 44635, Note_on_c, 6, 72, 0
13, 44640, Note_on_c, 6, 60, 84
13, 44640, Control_c, 6, 11, 72
13, 44640, Note_on_c, 6, 72, 84
13, 44700, Control_c, 6, 11, 74
13, 44751, Note_on_c, 6, 60, 0
13, 44751, Note_on_c, 6, 72, 0
13, 44760, Control_c, 6, 11, 76
13, 44760, Note_on_c, 6, 60, 84
13, 44760, Note_on_c, 6, 72, 84
13, 44820, Control_c, 6, 11, 78
13, 44871, Note_on_c, 6, 60, 0
13, 44871, Note_on_c, 6, 72, 0
13, 44880, Note_on_c, 6, 60, 84
13, 44880, Control_c, 6, 11, 80
13, 44880, Note_on_c, 6, 72, 84
13, 44940, Control_c, 6, 11, 82
13, 44991, Note_on_c, 6, 60, 0
13, 44991, Note_on_c, 6, 72, 0
13, 45000, Control_c, 6, 11, 84
13, 45000, Note_on_c, 6, 60, 84
13, 45000, Note_on_c, 6, 72, 84
13, 45060, Control_c, 6, 11, 86
13, 45119, Note_on_c, 6, 60, 0
13, 45119, Note_on_c, 6, 72, 0
13, 45120, Control_c, 6, 11, 88
13, 45180, Control_c, 6, 11, 90
13, 45240, Control_c, 6, 11, 92
13, 45240, Note_on_c, 6, 67, 84
13, 45240, Note_on_c, 6, 55, 84
13, 45300, Control_c, 6, 11, 94
13, 45359, Note_on_c, 6, 67, 0
13, 45359, Note_on_c, 6, 55, 0
13, 45360, Control_c, 6, 11, 96
13, 45420, Control_c, 6, 11, 98
13, 45480, Note_on_c, 6, 72, 84
13, 45480, Control_c, 6, 11, 100
13, 45480, Note_on_c, 6, 60, 84
13, 45540, Control_c, 6, 11, 102
13, 45599, Note_on_c, 6, 72, 0
13, 45599, Note_on_c, 6, 60, 0
13, 45600, Control_c, 6, 11, 104
13, 45660, Control_c, 6, 11, 106
13, 45720, Note_on_c, 6, 72, 84
13, 45720, Note_on_c, 6, 60, 84
13, 45720, Control_c, 6, 11, 108
13, 45780, Control_c, 6, 11, 110
13, 45831, Note_on_c, 6, 72, 0
13, 45831, Note_on_c, 6, 60, 0
13, 45840, Note_on_c, 6, 60, 84
13, 45840, Note_on_c, 6, 72, 84
13, 45840, Control_c, 6, 11, 112
13, 45875, Note_on_c, 6, 72, 0
13, 45904, Control_c, 6, 11, 113
13, 45920, Note_on_c, 6, 64, 84
13, 45955, Note_on_c, 6, 64, 0
13, 45959, Note_on_c, 6, 60, 0
13, 45960, Note_on_c, 6, 67, 84
13, 45968, Control_c, 6, 11, 114
13, 45995, Note_on_c, 6, 67, 0
13, 46020, Note_on_c, 6, 64, 84
13, 46032, Control_c, 6, 11, 115
13, 46040, Note_on_c, 6, 67, 84
13, 46055, Note_on_c, 6, 64, 0
13, 46075, Note_on_c, 6, 67, 0
13, 46080, Note_on_c, 6, 72, 84
13, 46080, Note_on_c, 6, 60, 84
13, 46096, Control_c, 6, 11, 116
13, 46115, Note_on_c, 6, 72, 0
13, 46115, Note_on_c, 6, 60, 0
13, 46120, Note_on_c, 6, 55, 84
13, 46120, Note_on_c, 6, 67, 84
13, 46155, Note_on_c, 6, 55, 0
13, 46155, Note_on_c, 6, 67, 0
13, 46160, Note_on_c, 6, 60, 84
13, 46160, Note_on_c, 6, 72, 84
13, 46160, Control_c, 6, 11, 117
13, 46195, Note_on_c, 6, 60, 0
13, 46195, Note_on_c, 6, 72, 0
13, 46200, Note_on_c, 6, 76, 84
13, 46200, Note_on_c, 6, 64, 84
13, 46224, Control_c, 6, 11, 118
13, 46235, Note_on_c, 6, 76, 0
13, 46235, Note_on_c, 6, 64, 0
13, 46240, Note_on_c, 6, 72, 84
13, 46240, Note_on_c, 6, 60, 84
13, 46275, Note_on_c, 6, 72, 0
13, 46275, Note_on_c, 6, 60, 0
13, 46280, Note_on_c, 6, 64, 84
13, 46280, Note_on_c, 6, 76, 84
13, 46288, Control_c, 6, 11, 119
13, 46315, Note_on_c, 6, 64, 0
13, 46315, Note_on_c, 6, 76, 0
13, 46320, Note_on_c, 6, 79, 84
13, 46320, Note_on_c, 6, 67, 84
13, 46352, Control_c, 6, 11, 120
13, 46416, Control_c, 6, 11, 121
13, 46480, Control_c, 6, 11, 122
13, 46544, Control_c, 6, 11, 123
13, 46608, Control_c, 6, 11, 124
13, 46671, Note_on_c, 6, 79, 0
13, 46671, Note_on_c, 6, 67, 0
13, 46672, Control_c, 6, 11, 125
13, 46680, Note_on_c, 6, 55, 84
13, 46680, Note_on_c, 6, 67, 84
13, 46736, Control_c, 6, 11, 127
13, 46791, Note_on_c, 6, 55, 0
13, 46791, Note_on_c, 6, 67, 0
13, 46800, Note_on_c, 6, 60, 84
13, 46800, Note_on_c, 6, 72, 84
13, 47151, Note_on_c, 6, 60, 0
13, 47151, Note_on_c, 6, 72, 0
13, 47160, Note_on_c, 6, 64, 84
13, 47160, Note_on_c, 6, 67, 84
13, 47249, Note_on_c, 6, 64, 0
13, 47249, Note_on_c, 6, 67, 0
13, 47280, Note_on_c, 6, 60, 84
13, 47280, Note_on_c, 6, 72, 84
13, 47631, Note_on_c, 6, 60, 0
13, 47631, Note_on_c, 6, 72, 0
13, 47640, Note_on_c, 6, 67, 84
13, 47640, Note_on_c, 6, 64, 84
13, 47729, Note_on_c, 6, 67, 0
13, 47729, Note_on_c, 6, 64, 0
13, 47760, Note_on_c, 6, 60, 84
13, 47760, Note_on_c, 6, 72, 84
13, 47849, Note_on_c, 6, 60, 0
13, 47849, Note_on_c, 6, 72, 0
13, 47880, Note_on_c, 6, 64, 84
13, 47880, Note_on_c, 6, 67, 84
13, 47969, Note_on_c, 6, 64, 0
13, 47969, Note_on_c, 6, 67, 0
13, 48000, Note_on_c, 6, 72, 84
13, 48000, Note_on_c, 6, 60, 84
13, 48089, Note_on_c, 6, 72, 0
13, 48089, Note_on_c, 6, 60, 0
13, 48120, Note_on_c, 6, 64, 84
13, 48120, Note_on_c, 6, 67, 84
13, 48209, Note_on_c, 6, 64, 0
13, 48209, Note_on_c, 6, 67, 0
13, 48240, Note_on_c, 6, 60, 84
13, 48240, Note_on_c, 6, 72, 84
13, 48329, Note_on_c, 6, 60, 0
13, 48329, Note_on_c, 6, 72, 0
13, 61800, Note_on_c, 6, 72, 76
13, 61800, Note_on_c, 6, 60, 76
13, 61911, Note_on_c, 6, 72, 0
13, 61911, Note_on_c, 6, 60, 0
13, 61920, Note_on_c, 6, 72, 76
13, 61920, Note_on_c, 6, 60, 76
13, 62031, Note_on_c, 6, 72, 0
13, 62031, Note_on_c, 6, 60, 0
13, 62040, Note_on_c, 6, 72, 76
13, 62040, Note_on_c, 6, 60, 76
13, 62151, Note_on_c, 6, 72, 0
13, 62151, Note_on_c, 6, 60, 0
13, 62160, Note_on_c, 6, 77, 84
13, 62631, Note_on_c, 6, 77, 0
13, 62640, Note_on_c, 6, 77, 84
13, 63111, Note_on_c, 6, 77, 0
13, 63120, Note_on_c, 6, 72, 84
13, 63120, Note_on_c, 6, 60, 84
13, 63471, Note_on_c, 6, 72, 0
13, 63471, Note_on_c, 6, 60, 0
13, 63480, Note_on_c, 6, 72, 84
13, 63480, Note_on_c, 6, 60, 84
13, 63591, Note_on_c, 6, 72, 0
13, 63591, Note_on_c, 6, 60, 0
13, 63600, Note_on_c, 6, 72, 84
13, 63600, Note_on_c, 6, 60, 84
13, 63719, Note_on_c, 6, 72, 0
13, 63719, Note_on_c, 6, 60, 0
13, 66960, Note_on_c, 6, 72, 84
13, 66960, Note_on_c, 6, 60, 84
13, 67671, Note_on_c, 6, 72, 0
13, 67671, Note_on_c, 6, 60, 0
13, 67680, Note_on_c, 6, 77, 92
13, 68151, Note_on_c, 6, 77, 0
13, 68160, Note_on_c, 6, 74, 84
13, 68631, Note_on_c, 6, 74, 0
13, 68640, Note_on_c, 6, 79, 84
13, 68880, Note_on_c, 6, 67, 84
13, 69111, Note_on_c, 6, 79, 0
13, 69111, Note_on_c, 6, 67, 0
13, 69120, Note_on_c, 6, 79, 84
13, 69120, Note_on_c, 6, 67, 84
13, 69351, Note_on_c, 6, 79, 0
13, 69351, Note_on_c, 6, 67, 0
13, 69360, Note_on_c, 6, 74, 84
13, 69479, Note_on_c, 6, 74, 0
13, 71040, Note_on_c, 6, 74, 84
13, 71391, Note_on_c, 6, 74, 0
13, 71400, Note_on_c, 6, 67, 84
13, 71400, Note_on_c, 6, 55, 84
13, 71489, Note_on_c, 6, 67, 0
13, 71489, Note_on_c, 6, 55, 0
13, 71520, Note_on_c, 6, 67, 84
13, 71520, Note_on_c, 6, 55, 84
13, 71609, Note_on_c, 6, 67, 0
13, 71609, Note_on_c, 6, 55, 0
13, 71640, Note_on_c, 6, 67, 84
13, 71640, Note_on_c, 6, 55, 84
13, 71729, Note_on_c, 6, 67, 0
13, 71729, Note_on_c, 6, 55, 0
13, 71760, Note_on_c, 6, 67, 84
13, 71760, Note_on_c, 6, 55, 84
13, 71849, Note_on_c, 6, 67, 0
13, 71849, Note_on_c, 6, 55, 0
13, 76560, Note_on_c, 6, 72, 84
13, 76560, Note_on_c, 6, 60, 84
13, 77031, Note_on_c, 6, 72, 0
13, 77031, Note_on_c, 6, 60, 0
13, 77040, Note_on_c, 6, 72, 84
13, 77040, Note_on_c, 6, 60, 84
13, 77271, Note_on_c, 6, 72, 0
13, 77271, Note_on_c, 6, 60, 0
13, 77280, Note_on_c, 6, 72, 84
13, 77280, Note_on_c, 6, 60, 84
13, 77481, Note_on_c, 6, 72, 0
13, 77481, Note_on_c, 6, 60, 0
13, 77490, Note_on_c, 6, 72, 84
13, 77490, Note_on_c, 6, 60, 84
13, 77515, Note_on_c, 6, 72, 0
13, 77515, Note_on_c, 6, 60, 0
13, 77520, Note_on_c, 6, 72, 92
13, 77520, Note_on_c, 6, 60, 92
13, 77984, Note_on_c, 6, 72, 0
13, 77984, Note_on_c, 6, 60, 0
13, 78000, Note_on_c, 6, 72, 84
13, 78000, Note_on_c, 6, 60, 84
13, 78231, Note_on_c, 6, 72, 0
13, 78231, Note_on_c, 6, 60, 0
13, 78240, Note_on_c, 6, 72, 84
13, 78240, Note_on_c, 6, 60, 84
13, 78441, Note_on_c, 6, 72, 0
13, 78441, Note_on_c, 6, 60, 0
13, 78450, Note_on_c, 6, 72, 84
13, 78450, Note_on_c, 6, 60, 84
13, 78475, Note_on_c, 6, 72, 0
13, 78475, Note_on_c, 6, 60, 0
13, 78480, Note_on_c, 6, 72, 92
13, 78480, Note_on_c, 6, 60, 92
13, 79071, Note_on_c, 6, 72, 0
13, 79071, Note_on_c, 6, 60, 0
13, 79080, Note_on_c, 6, 72, 84
13, 79080, Note_on_c, 6, 60, 84
13, 79191, Note_on_c, 6, 72, 0
13, 79191, Note_on_c, 6, 60, 0
13, 79200, Note_on_c, 6, 72, 84
13, 79200, Note_on_c, 6, 60, 84
13, 79311, Note_on_c, 6, 72, 0
13, 79311, Note_on_c, 6, 60, 0
13, 79320, Note_on_c, 6, 72, 84
13, 79320, Note_on_c, 6, 60, 84
13, 79431, Note_on_c, 6, 72, 0
13, 79431, Note_on_c, 6, 60, 0
13, 79440, Note_on_c, 6, 77, 84
13, 80031, Note_on_c, 6, 77, 0
13, 80040, Note_on_c, 6, 77, 84
13, 80151, Note_on_c, 6, 77, 0
13, 80160, Note_on_c, 6, 77, 84
13, 80271, Note_on_c, 6, 77, 0
13, 80280, Note_on_c, 6, 77, 84
13, 80391, Note_on_c, 6, 77, 0
13, 80400, Note_on_c, 6, 77, 84
13, 80519, Note_on_c, 6, 77, 0
13, 82800, Note_on_c, 6, 67, 52
13, 82800, Note_on_c, 6, 55, 52
13, 83271, Note_on_c, 6, 67, 0
13, 83271, Note_on_c, 6, 55, 0
13, 83280, Note_on_c, 6, 67, 52
13, 83280, Note_on_c, 6, 55, 52
13, 83751, Note_on_c, 6, 67, 0
13, 83751, Note_on_c, 6, 55, 0
13, 83760, Note_on_c, 6, 67, 52
13, 83760, Note_on_c, 6, 55, 52
13, 83991, Note_on_c, 6, 67, 0
13, 83991, Note_on_c, 6, 55, 0
13, 84000, Note_on_c, 6, 67, 52
13, 84000, Note_on_c, 6, 55, 52
13, 84231, Note_on_c, 6, 67, 0
13, 84231, Note_on_c, 6, 55, 0
13, 84240, Note_on_c, 6, 67, 52
13, 84240, Note_on_c, 6, 55, 52
13, 84599, Note_on_c, 6, 67, 0
13, 84599, Note_on_c, 6, 55, 0
13, 84599, End_track
14, 0, Start_track
14, 0, Title_t, "Timpani"
14, 0, MIDI_port, 0
14, 0, Program_c, 7, 47
14, 0, Control_c, 7, 7, 96
14, 0, Control_c, 7, 10, 25
14, 0, Control_c, 7, 11, 127
14, 4080, Note_on_c, 7, 48, 44
14, 4199, Note_on_c, 7, 48, 0
14, 4560, Note_on_c, 7, 48, 44
14, 4679, Note_on_c, 7, 48, 0
14, 5040, Note_on_c, 7, 48, 44
14, 5159, Note_on_c, 7, 48, 0
14, 5280, Note_on_c, 7, 48, 44
14, 5399, Note_on_c, 7, 48, 0
14, 5520, Note_on_c, 7, 43, 44
14, 5639, Note_on_c, 7, 43, 0
14, 5640, Note_on_c, 7, 43, 44
14, 5759, Note_on_c, 7, 43, 0
14, 5760, Note_on_c, 7, 43, 44
14, 5879, Note_on_c, 7, 43, 0
14, 10800, Note_on_c, 7, 43, 44
14, 10919, Note_on_c, 7, 43, 0
14, 11280, Note_on_c, 7, 43, 44
14, 11399, Note_on_c, 7, 43, 0
14, 11760, Note_on_c, 7, 43, 44
14, 11879, Note_on_c, 7, 43, 0
14, 12240, Note_on_c, 7, 43, 44
14, 12359, Note_on_c, 7, 43, 0
14, 12480, Note_on_c, 7, 43, 44
14, 12599, Note_on_c, 7, 43, 0
14, 12720, Note_on_c, 7, 43, 44
14, 12839, Note_on_c, 7, 43, 0
14, 19440, Note_on_c, 7, 48, 52
14, 19559, Note_on_c, 7, 48, 0
14, 19680, Note_on_c, 7, 48, 52
14, 19799, Note_on_c, 7, 48, 0
14, 19800, Note_on_c, 7, 48, 52
14, 19919, Note_on_c, 7, 48, 0
14, 19920, Note_on_c, 7, 48, 52
14, 20039, Note_on_c, 7, 48, 0
14, 20160, Note_on_c, 7, 48, 52
14, 20279, Note_on_c, 7, 48, 0
14, 20400, Note_on_c, 7, 43, 52
14, 20519, Note_on_c, 7, 43, 0
14, 20880, Note_on_c, 7, 43, 52
14, 20999, Note_on_c, 7, 43, 0
14, 21360, Note_on_c, 7, 43, 52
14, 21479, Note_on_c, 7, 43, 0
14, 21840, Note_on_c, 7, 43, 52
14, 21959, Note_on_c, 7, 43, 0
14, 22080, Note_on_c, 7, 43, 52
14, 22199, Note_on_c, 7, 43, 0
14, 22320, Note_on_c, 7, 43, 52
14, 22439, Note_on_c, 7, 43, 0
14, 24000, Note_on_c, 7, 48, 76
14, 24119, Note_on_c, 7, 48, 0
14, 24240, Note_on_c, 7, 48, 52
14, 24359, Note_on_c, 7, 48, 0
14, 25560, Note_on_c, 7, 43, 52
14, 25679, Note_on_c, 7, 43, 0
14, 25680, Note_on_c, 7, 48, 76
14, 25769, Note_on_c, 7, 48, 0
14, 25800, Note_on_c, 7, 48, 76
14, 25889, Note_on_c, 7, 48, 0
14, 26040, Note_on_c, 7, 48, 52
14, 26159, Note_on_c, 7, 48, 0
14, 26160, Note_on_c, 7, 48, 52
14, 26279, Note_on_c, 7, 48, 0
14, 26280, Note_on_c, 7, 43, 52
14, 26399, Note_on_c, 7, 43, 0
14, 26400, Note_on_c, 7, 43, 52
14, 26519, Note_on_c, 7, 43, 0
14, 26520, Note_on_c, 7, 43, 52
14, 26639, Note_on_c, 7, 43, 0
14, 26640, Note_on_c, 7, 48, 52
14, 26759, Note_on_c, 7, 48, 0
14, 29400, Note_on_c, 7, 48, 52
14, 29519, Note_on_c, 7, 48, 0
14, 29520, Note_on_c, 7, 43, 52
14, 29639, Note_on_c, 7, 43, 0
14, 29760, Note_on_c, 7, 43, 52
14, 29879, Note_on_c, 7, 43, 0
14, 30000, Note_on_c, 7, 48, 52
14, 30119, Note_on_c, 7, 48, 0
14, 30480, Note_on_c, 7, 43, 52
14, 30599, Note_on_c, 7, 43, 0
14, 30720, Note_on_c, 7, 43, 52
14, 30839, Note_on_c, 7, 43, 0
14, 30960, Note_on_c, 7, 48, 52
14, 31079, Note_on_c, 7, 48, 0
14, 31800, Note_on_c, 7, 43, 76
14, 31919, Note_on_c, 7, 43, 0
14, 31920, Note_on_c, 7, 48, 52
14, 32039, Note_on_c, 7, 48, 0
14, 32160, Note_on_c, 7, 48, 52
14, 32279, Note_on_c, 7, 48, 0
14, 32400, Note_on_c, 7, 48, 52
14, 32519, Note_on_c, 7, 48, 0
14, 36240, Note_on_c, 7, 43, 84
14, 36254, Note_on_c, 7, 43, 0
14, 36255, Note_on_c, 7, 43, 84
14, 36269, Note_on_c, 7, 43, 0
14, 36270, Note_on_c, 7, 43, 84
14, 36284, Note_on_c, 7, 43, 0
14, 36285, Note_on_c, 7, 43, 84
14, 36299, Note_on_c, 7, 43, 0
14, 36300, Note_on_c, 7, 43, 84
14, 36314, Note_on_c, 7, 43, 0
14, 36315, Note_on_c, 7, 43, 84
14, 36329, Note_on_c, 7, 43, 0
14, 36330, Note_on_c, 7, 43, 84
14, 36344, Note_on_c, 7, 43, 0
14, 36345, Note_on_c, 7, 43, 84
14, 36359, Note_on_c, 7, 43, 0
14, 36360, Note_on_c, 7, 43, 84
14, 36374, Note_on_c, 7, 43, 0
14, 36375, Note_on_c, 7, 43, 84
14, 36389, Note_on_c, 7, 43, 0
14, 36390, Note_on_c, 7, 43, 84
14, 36404, Note_on_c, 7, 43, 0
14, 36405, Note_on_c, 7, 43, 84
14, 36419, Note_on_c, 7, 43, 0
14, 36420, Note_on_c, 7, 43, 84
14, 36434, Note_on_c, 7, 43, 0
14, 36435, Note_on_c, 7, 43, 84
14, 36449, Note_on_c, 7, 43, 0
14, 36450, Note_on_c, 7, 43, 84
14, 36464, Note_on_c, 7, 43, 0
14, 36465, Note_on_c, 7, 43, 84
14, 36479, Note_on_c, 7, 43, 0
14, 36480, Note_on_c, 7, 43, 84
14, 36599, Note_on_c, 7, 43, 0
14, 36720, Note_on_c, 7, 43, 84
14, 36734, Note_on_c, 7, 43, 0
14, 36735, Note_on_c, 7, 43, 84
14, 36749, Note_on_c, 7, 43, 0
14, 36750, Note_on_c, 7, 43, 84
14, 36764, Note_on_c, 7, 43, 0
14, 36765, Note_on_c, 7, 43, 84
14, 36779, Note_on_c, 7, 43, 0
14, 36780, Note_on_c, 7, 43, 84
14, 36794, Note_on_c, 7, 43, 0
14, 36795, Note_on_c, 7, 43, 84
14, 36809, Note_on_c, 7, 43, 0
14, 36810, Note_on_c, 7, 43, 84
14, 36824, Note_on_c, 7, 43, 0
14, 36825, Note_on_c, 7, 43, 84
14, 36839, Note_on_c, 7, 43, 0
14, 36840, Note_on_c, 7, 43, 84
14, 36854, Note_on_c, 7, 43, 0
14, 36855, Note_on_c, 7, 43, 84
14, 36869, Note_on_c, 7, 43, 0
14, 36870, Note_on_c, 7, 43, 84
14, 36884, Note_on_c, 7, 43, 0
14, 36885, Note_on_c, 7, 43, 84
14, 36899, Note_on_c, 7, 43, 0
14, 36900, Note_on_c, 7, 43, 84
14, 36914, Note_on_c, 7, 43, 0
14, 36915, Note_on_c, 7, 43, 84
14, 36929, Note_on_c, 7, 43, 0
14, 36930, Note_on_c, 7, 43, 84
14, 36944, Note_on_c, 7, 43, 0
14, 36945, Note_on_c, 7, 43, 84
14, 36959, Note_on_c, 7, 43, 0
14, 36960, Note_on_c, 7, 43, 84
14, 37079, Note_on_c, 7, 43, 0
14, 37200, Note_on_c, 7, 43, 84
14, 37214, Note_on_c, 7, 43, 0
14, 37215, Note_on_c, 7, 43, 84
14, 37229, Note_on_c, 7, 43, 0
14, 37230, Note_on_c, 7, 43, 84
14, 37244, Note_on_c, 7, 43, 0
14, 37245, Note_on_c, 7, 43, 84
14, 37259, Note_on_c, 7, 43, 0
14, 37260, Note_on_c, 7, 43, 84
14, 37274, Note_on_c, 7, 43, 0
14, 37275, Note_on_c, 7, 43, 84
14, 37289, Note_on_c, 7, 43, 0
14, 37290, Note_on_c, 7, 43, 84
14, 37304, Note_on_c, 7, 43, 0
14, 37305, Note_on_c, 7, 43, 84
14, 37319, Note_on_c, 7, 43, 0
14, 37320, Note_on_c, 7, 43, 84
14, 37334, Note_on_c, 7, 43, 0
14, 37335, Note_on_c, 7, 43, 84
14, 37349, Note_on_c, 7, 43, 0
14, 37350, Note_on_c, 7, 43, 84
14, 37364, Note_on_c, 7, 43, 0
14, 37365, Note_on_c, 7, 43, 84
14, 37379, Note_on_c, 7, 43, 0
14, 37380, Note_on_c, 7, 43, 84
14, 37394, Note_on_c, 7, 43, 0
14, 37395, Note_on_c, 7, 43, 84
14, 37409, Note_on_c, 7, 43, 0
14, 37410, Note_on_c, 7, 43, 84
14, 37424, Note_on_c, 7, 43, 0
14, 37425, Note_on_c, 7, 43, 84
14, 37439, Note_on_c, 7, 43, 0
14, 37440, Note_on_c, 7, 43, 84
14, 37454, Note_on_c, 7, 43, 0
14, 37455, Note_on_c, 7, 43, 84
14, 37469, Note_on_c, 7, 43, 0
14, 37470, Note_on_c, 7, 43, 84
14, 37484, Note_on_c, 7, 43, 0
14, 37485, Note_on_c, 7, 43, 84
14, 37499, Note_on_c, 7, 43, 0
14, 37500, Note_on_c, 7, 43, 84
14, 37514, Note_on_c, 7, 43, 0
14, 37515, Note_on_c, 7, 43, 84
14, 37529, Note_on_c, 7, 43, 0
14, 37530, Note_on_c, 7, 43, 84
14, 37544, Note_on_c, 7, 43, 0
14, 37545, Note_on_c, 7, 43, 84
14, 37559, Note_on_c, 7, 43, 0
14, 37560, Note_on_c, 7, 43, 84
14, 37574, Note_on_c, 7, 43, 0
14, 37575, Note_on_c, 7, 43, 84
14, 37589, Note_on_c, 7, 43, 0
14, 37590, Note_on_c, 7, 43, 84
14, 37604, Note_on_c, 7, 43, 0
14, 37605, Note_on_c, 7, 43, 84
14, 37619, Note_on_c, 7, 43, 0
14, 37620, Note_on_c, 7, 43, 84
14, 37634, Note_on_c, 7, 43, 0
14, 37635, Note_on_c, 7, 43, 84
14, 37649, Note_on_c, 7, 43, 0
14, 37650, Note_on_c, 7, 43, 84
14, 37664, Note_on_c, 7, 43, 0
14, 37665, Note_on_c, 7, 43, 84
14, 37679, Note_on_c, 7, 43, 0
14, 37680, Note_on_c, 7, 43, 84
14, 37799, Note_on_c, 7, 43, 0
14, 38160, Note_on_c, 7, 48, 52
14, 38279, Note_on_c, 7, 48, 0
14, 38280, Note_on_c, 7, 48, 52
14, 38399, Note_on_c, 7, 48, 0
14, 38640, Note_on_c, 7, 48, 52
14, 38759, Note_on_c, 7, 48, 0
14, 39000, Note_on_c, 7, 48, 58
14, 39119, Note_on_c, 7, 48, 0
14, 39120, Note_on_c, 7, 48, 52
14, 39239, Note_on_c, 7, 48, 0
14, 39360, Note_on_c, 7, 48, 56
14, 39479, Note_on_c, 7, 48, 0
14, 39600, Note_on_c, 7, 48, 60
14, 39719, Note_on_c, 7, 48, 0
14, 39840, Note_on_c, 7, 48, 64
14, 39959, Note_on_c, 7, 48, 0
14, 40080, Note_on_c, 7, 48, 52
14, 40199, Note_on_c, 7, 48, 0
14, 42960, Note_on_c, 7, 48, 52
14, 43079, Note_on_c, 7, 48, 0
14, 43440, Note_on_c, 7, 48, 52
14, 43559, Note_on_c, 7, 48, 0
14, 43920, Note_on_c, 7, 48, 52
14, 44039, Note_on_c, 7, 48, 0
14, 44520, Note_on_c, 7, 48, 54
14, 44609, Note_on_c, 7, 48, 0
14, 44610, Note_on_c, 7, 48, 55
14, 44639, Note_on_c, 7, 48, 0
14, 44640, Note_on_c, 7, 48, 56
14, 44759, Note_on_c, 7, 48, 0
14, 44760, Note_on_c, 7, 48, 58
14, 44879, Note_on_c, 7, 48, 0
14, 44880, Note_on_c, 7, 48, 60
14, 44999, Note_on_c, 7, 48, 0
14, 45120, Note_on_c, 7, 43, 64
14, 45239, Note_on_c, 7, 43, 0
14, 45360, Note_on_c, 7, 48, 68
14, 45479, Note_on_c, 7, 48, 0
14, 45600, Note_on_c, 7, 48, 72
14, 45719, Note_on_c, 7, 48, 0
14, 45840, Note_on_c, 7, 43, 76
14, 45959, Note_on_c, 7, 43, 0
14, 46080, Note_on_c, 7, 43, 78
14, 46119, Note_on_c, 7, 43, 0
14, 46120, Note_on_c, 7, 43, 78
14, 46159, Note_on_c, 7, 43, 0
14, 46160, Note_on_c, 7, 43, 78
14, 46199, Note_on_c, 7, 43, 0
14, 46200, Note_on_c, 7, 43, 79
14, 46239, Note_on_c, 7, 43, 0
14, 46240, Note_on_c, 7, 43, 79
14, 46279, Note_on_c, 7, 43, 0
14, 46280, Note_on_c, 7, 43, 79
14, 46319, Note_on_c, 7, 43, 0
14, 46320, Note_on_c, 7, 43, 80
14, 46359, Note_on_c, 7, 43, 0
14, 46360, Note_on_c, 7, 43, 80
14, 46399, Note_on_c, 7, 43, 0
14, 46400, Note_on_c, 7, 43, 80
14, 46439, Note_on_c, 7, 43, 0
14, 46440, Note_on_c, 7, 43, 81
14, 46479, Note_on_c, 7, 43, 0
14, 46480, Note_on_c, 7, 43, 81
14, 46519, Note_on_c, 7, 43, 0
14, 46520, Note_on_c, 7, 43, 81
14, 46559, Note_on_c, 7, 43, 0
14, 46560, Note_on_c, 7, 43, 82
14, 46599, Note_on_c, 7, 43, 0
14, 46600, Note_on_c, 7, 43, 82
14, 46639, Note_on_c, 7, 43, 0
14, 46640, Note_on_c, 7, 43, 82
14, 46679, Note_on_c, 7, 43, 0
14, 46680, Note_on_c, 7, 43, 83
14, 46719, Note_on_c, 7, 43, 0
14, 46720, Note_on_c, 7, 43, 83
14, 46759, Note_on_c, 7, 43, 0
14, 46760, Note_on_c, 7, 43, 83
14, 46799, Note_on_c, 7, 43, 0
14, 46800, Note_on_c, 7, 48, 84
14, 46814, Note_on_c, 7, 48, 0
14, 46815, Note_on_c, 7, 48, 84
14, 46829, Note_on_c, 7, 48, 0
14, 46830, Note_on_c, 7, 48, 84
14, 46844, Note_on_c, 7, 48, 0
14, 46845, Note_on_c, 7, 48, 84
14, 46859, Note_on_c, 7, 48, 0
14, 46860, Note_on_c, 7, 48, 84
14, 46874, Note_on_c, 7, 48, 0
14, 46875, Note_on_c, 7, 48, 84
14, 46889, Note_on_c, 7, 48, 0
14, 46890, Note_on_c, 7, 48, 84
14, 46904, Note_on_c, 7, 48, 0
14, 46905, Note_on_c, 7, 48, 84
14, 46919, Note_on_c, 7, 48, 0
14, 46920, Note_on_c, 7, 48, 84
14, 46934, Note_on_c, 7, 48, 0
14, 46935, Note_on_c, 7, 48, 84
14, 46949, Note_on_c, 7, 48, 0
14, 46950, Note_on_c, 7, 48, 84
14, 46964, Note_on_c, 7, 48, 0
14, 46965, Note_on_c, 7, 48, 84
14, 46979, Note_on_c, 7, 48, 0
14, 46980, Note_on_c, 7, 48, 84
14, 46994, Note_on_c, 7, 48, 0
14, 46995, Note_on_c, 7, 48, 84
14, 47009, Note_on_c, 7, 48, 0
14, 47010, Note_on_c, 7, 48, 84
14, 47024, Note_on_c, 7, 48, 0
14, 47025, Note_on_c, 7, 48, 84
14, 47039, Note_on_c, 7, 48, 0
14, 47040, Note_on_c, 7, 48, 84
14, 47159, Note_on_c, 7, 48, 0
14, 47280, Note_on_c, 7, 48, 84
14, 47294, Note_on_c, 7, 48, 0
14, 47295, Note_on_c, 7, 48, 84
14, 47309, Note_on_c, 7, 48, 0
14, 47310, Note_on_c, 7, 48, 84
14, 47324, Note_on_c, 7, 48, 0
14, 47325, Note_on_c, 7, 48, 84
14, 47339, Note_on_c, 7, 48, 0
14, 47340, Note_on_c, 7, 48, 84
14, 47354, Note_on_c, 7, 48, 0
14, 47355, Note_on_c, 7, 48, 84
14, 47369, Note_on_c, 7, 48, 0
14, 47370, Note_on_c, 7, 48, 84
14, 47384, Note_on_c, 7, 48, 0
14, 47385, Note_on_c, 7, 48, 84
14, 47399, Note_on_c, 7, 48, 0
14, 47400, Note_on_c, 7, 48, 84
14, 47414, Note_on_c, 7, 48, 0
14, 47415, Note_on_c, 7, 48, 84
14, 47429, Note_on_c, 7, 48, 0
14, 47430, Note_on_c, 7, 48, 84
14, 47444, Note_on_c, 7, 48, 0
14, 47445, Note_on_c, 7, 48, 84
14, 47459, Note_on_c, 7, 48, 0
14, 47460, Note_on_c, 7, 48, 84
14, 47474, Note_on_c, 7, 48, 0
14, 47475, Note_on_c, 7, 48, 84
14, 47489, Note_on_c, 7, 48, 0
14, 47490, Note_on_c, 7, 48, 84
14, 47504, Note_on_c, 7, 48, 0
14, 47505, Note_on_c, 7, 48, 84
14, 47519, Note_on_c, 7, 48, 0
14, 47520, Note_on_c, 7, 48, 84
14, 47639, Note_on_c, 7, 48, 0
14, 47760, Note_on_c, 7, 48, 84
14, 47774, Note_on_c, 7, 48, 0
14, 47775, Note_on_c, 7, 48, 84
14, 47789, Note_on_c, 7, 48, 0
14, 47790, Note_on_c, 7, 48, 84
14, 47804, Note_on_c, 7, 48, 0
14, 47805, Note_on_c, 7, 48, 84
14, 47819, Note_on_c, 7, 48, 0
14, 47820, Note_on_c, 7, 48, 84
14, 47834, Note_on_c, 7, 48, 0
14, 47835, Note_on_c, 7, 48, 84
14, 47849, Note_on_c, 7, 48, 0
14, 47850, Note_on_c, 7, 48, 84
14, 47864, Note_on_c, 7, 48, 0
14, 47865, Note_on_c, 7, 48, 84
14, 47879, Note_on_c, 7, 48, 0
14, 47880, Note_on_c, 7, 48, 84
14, 47894, Note_on_c, 7, 48, 0
14, 47895, Note_on_c, 7, 48, 84
14, 47909, Note_on_c, 7, 48, 0
14, 47910, Note_on_c, 7, 48, 84
14, 47924, Note_on_c, 7, 48, 0
14, 47925, Note_on_c, 7, 48, 84
14, 47939, Note_on_c, 7, 48, 0
14, 47940, Note_on_c, 7, 48, 84
14, 47954, Note_on_c, 7, 48, 0
14, 47955, Note_on_c, 7, 48, 84
14, 47969, Note_on_c, 7, 48, 0
14, 47970, Note_on_c, 7, 48, 84
14, 47984, Note_on_c, 7, 48, 0
14, 47985, Note_on_c, 7, 48, 84
14, 47999, Note_on_c, 7, 48, 0
14, 48000, Note_on_c, 7, 48, 84
14, 48014, Note_on_c, 7, 48, 0
14, 48015, Note_on_c, 7, 48, 84
14, 48029, Note_on_c, 7, 48, 0
14, 48030, Note_on_c, 7, 48, 84
14, 48044, Note_on_c, 7, 48, 0
14, 48045, Note_on_c, 7, 48, 84
14, 48059, Note_on_c, 7, 48, 0
14, 48060, Note_on_c, 7, 48, 84
14, 48074, Note_on_c, 7, 48, 0
14, 48075, Note_on_c, 7, 48, 84
14, 48089, Note_on_c, 7, 48, 0
14, 48090, Note_on_c, 7, 48, 84
14, 48104, Note_on_c, 7, 48, 0
14, 48105, Note_on_c, 7, 48, 84
14, 48119, Note_on_c, 7, 48, 0
14, 48120, Note_on_c, 7, 48, 84
14, 48134, Note_on_c, 7, 48, 0
14, 48135, Note_on_c, 7, 48, 84
14, 48149, Note_on_c, 7, 48, 0
14, 48150, Note_on_c, 7, 48, 84
14, 48164, Note_on_c, 7, 48, 0
14, 48165, Note_on_c, 7, 48, 84
14, 48179, Note_on_c, 7, 48, 0
14, 48180, Note_on_c, 7, 48, 84
14, 48194, Note_on_c, 7, 48, 0
14, 48195, Note_on_c, 7, 48, 84
14, 48209, Note_on_c, 7, 48, 0
14, 48210, Note_on_c, 7, 48, 84
14, 48224, Note_on_c, 7, 48, 0
14, 48225, Note_on_c, 7, 48, 84
14, 48239, Note_on_c, 7, 48, 0
14, 48240, Note_on_c, 7, 48, 84
14, 48329, Note_on_c, 7, 48, 0
14, 60240, Note_on_c, 7, 43, 76
14, 60359, Note_on_c, 7, 43, 0
14, 60720, Note_on_c, 7, 43, 76
14, 60839, Note_on_c, 7, 43, 0
14, 61080, Note_on_c, 7, 43, 76
14, 61199, Note_on_c, 7, 43, 0
14, 61200, Note_on_c, 7, 43, 76
14, 61319, Note_on_c, 7, 43, 0
14, 61320, Note_on_c, 7, 43, 76
14, 61439, Note_on_c, 7, 43, 0
14, 61440, Note_on_c, 7, 43, 76
14, 61559, Note_on_c, 7, 43, 0
14, 61560, Note_on_c, 7, 43, 76
14, 61679, Note_on_c, 7, 43, 0
14, 61680, Note_on_c, 7, 48, 76
14, 61799, Note_on_c, 7, 48, 0
14, 61800, Note_on_c, 7, 48, 76
14, 61919, Note_on_c, 7, 48, 0
14, 61920, Note_on_c, 7, 48, 76
14, 62039, Note_on_c, 7, 48, 0
14, 62040, Note_on_c, 7, 48, 76
14, 62159, Note_on_c, 7, 48, 0
14, 62160, Note_on_c, 7, 48, 76
14, 62279, Note_on_c, 7, 48, 0
14, 63120, Note_on_c, 7, 48, 84
14, 63134, Note_on_c, 7, 48, 0
14, 63135, Note_on_c, 7, 48, 84
14, 63149, Note_on_c, 7, 48, 0
14, 63150, Note_on_c, 7, 48, 84
14, 63164, Note_on_c, 7, 48, 0
14, 63165, Note_on_c, 7, 48, 84
14, 63179, Note_on_c, 7, 48, 0
14, 63180, Note_on_c, 7, 48, 84
14, 63194, Note_on_c, 7, 48, 0
14, 63195, Note_on_c, 7, 48, 84
14, 63209, Note_on_c, 7, 48, 0
14, 63210, Note_on_c, 7, 48, 84
14, 63224, Note_on_c, 7, 48, 0
14, 63225, Note_on_c, 7, 48, 84
14, 63239, Note_on_c, 7, 48, 0
14, 63240, Note_on_c, 7, 48, 84
14, 63254, Note_on_c, 7, 48, 0
14, 63255, Note_on_c, 7, 48, 84
14, 63269, Note_on_c, 7, 48, 0
14, 63270, Note_on_c, 7, 48, 84
14, 63284, Note_on_c, 7, 48, 0
14, 63285, Note_on_c, 7, 48, 84
14, 63299, Note_on_c, 7, 48, 0
14, 63300, Note_on_c, 7, 48, 84
14, 63314, Note_on_c, 7, 48, 0
14, 63315, Note_on_c, 7, 48, 84
14, 63329, Note_on_c, 7, 48, 0
14, 63330, Note_on_c, 7, 48, 84
14, 63344, Note_on_c, 7, 48, 0
14, 63345, Note_on_c, 7, 48, 84
14, 63359, Note_on_c, 7, 48, 0
14, 63360, Note_on_c, 7, 48, 84
14, 63374, Note_on_c, 7, 48, 0
14, 63375, Note_on_c, 7, 48, 84
14, 63389, Note_on_c, 7, 48, 0
14, 63390, Note_on_c, 7, 48, 84
14, 63404, Note_on_c, 7, 48, 0
14, 63405, Note_on_c, 7, 48, 84
14, 63419, Note_on_c, 7, 48, 0
14, 63420, Note_on_c, 7, 48, 84
14, 63434, Note_on_c, 7, 48, 0
14, 63435, Note_on_c, 7, 48, 84
14, 63449, Note_on_c, 7, 48, 0
14, 63450, Note_on_c, 7, 48, 84
14, 63464, Note_on_c, 7, 48, 0
14, 63465, Note_on_c, 7, 48, 84
14, 63479, Note_on_c, 7, 48, 0
14, 63480, Note_on_c, 7, 48, 84
14, 63494, Note_on_c, 7, 48, 0
14, 63495, Note_on_c, 7, 48, 84
14, 63509, Note_on_c, 7, 48, 0
14, 63510, Note_on_c, 7, 48, 84
14, 63524, Note_on_c, 7, 48, 0
14, 63525, Note_on_c, 7, 48, 84
14, 63539, Note_on_c, 7, 48, 0
14, 63540, Note_on_c, 7, 48, 84
14, 63554, Note_on_c, 7, 48, 0
14, 63555, Note_on_c, 7, 48, 84
14, 63569, Note_on_c, 7, 48, 0
14, 63570, Note_on_c, 7, 48, 84
14, 63584, Note_on_c, 7, 48, 0
14, 63585, Note_on_c, 7, 48, 84
14, 63599, Note_on_c, 7, 48, 0
14, 63600, Note_on_c, 7, 48, 84
14, 63719, Note_on_c, 7, 48, 0
14, 66720, Note_on_c, 7, 43, 84
14, 66734, Note_on_c, 7, 43, 0
14, 66735, Note_on_c, 7, 43, 84
14, 66749, Note_on_c, 7, 43, 0
14, 66750, Note_on_c, 7, 43, 84
14, 66764, Note_on_c, 7, 43, 0
14, 66765, Note_on_c, 7, 43, 84
14, 66779, Note_on_c, 7, 43, 0
14, 66780, Note_on_c, 7, 43, 84
14, 66794, Note_on_c, 7, 43, 0
14, 66795, Note_on_c, 7, 43, 84
14, 66809, Note_on_c, 7, 43, 0
14, 66810, Note_on_c, 7, 43, 84
14, 66824, Note_on_c, 7, 43, 0
14, 66825, Note_on_c, 7, 43, 84
14, 66839, Note_on_c, 7, 43, 0
14, 66840, Note_on_c, 7, 43, 84
14, 66854, Note_on_c, 7, 43, 0
14, 66855, Note_on_c, 7, 43, 84
14, 66869, Note_on_c, 7, 43, 0
14, 66870, Note_on_c, 7, 43, 84
14, 66884, Note_on_c, 7, 43, 0
14, 66885, Note_on_c, 7, 43, 84
14, 66899, Note_on_c, 7, 43, 0
14, 66900, Note_on_c, 7, 43, 84
14, 66914, Note_on_c, 7, 43, 0
14, 66915, Note_on_c, 7, 43, 84
14, 66929, Note_on_c, 7, 43, 0
14, 66930, Note_on_c, 7, 43, 84
14, 66944, Note_on_c, 7, 43, 0
14, 66945, Note_on_c, 7, 43, 84
14, 66959, Note_on_c, 7, 43, 0
14, 66960, Note_on_c, 7, 48, 84
14, 67199, Note_on_c, 7, 48, 0
14, 67200, Note_on_c, 7, 48, 84
14, 67319, Note_on_c, 7, 48, 0
14, 67320, Note_on_c, 7, 48, 84
14, 67439, Note_on_c, 7, 48, 0
14, 67440, Note_on_c, 7, 48, 84
14, 67559, Note_on_c, 7, 48, 0
14, 68400, Note_on_c, 7, 43, 84
14, 68519, Note_on_c, 7, 43, 0
14, 68520, Note_on_c, 7, 43, 84
14, 68639, Note_on_c, 7, 43, 0
14, 68640, Note_on_c, 7, 43, 84
14, 68759, Note_on_c, 7, 43, 0
14, 68760, Note_on_c, 7, 43, 84
14, 68879, Note_on_c, 7, 43, 0
14, 68880, Note_on_c, 7, 48, 84
14, 68999, Note_on_c, 7, 48, 0
14, 69120, Note_on_c, 7, 43, 84
14, 69239, Note_on_c, 7, 43, 0
14, 71400, Note_on_c, 7, 43, 84
14, 71489, Note_on_c, 7, 43, 0
14, 71520, Note_on_c, 7, 43, 84
14, 71609, Note_on_c, 7, 43, 0
14, 71640, Note_on_c, 7, 43, 84
14, 71729, Note_on_c, 7, 43, 0
14, 71760, Note_on_c, 7, 43, 84
14, 71849, Note_on_c, 7, 43, 0
14, 73680, Note_on_c, 7, 43, 52
14, 73799, Note_on_c, 7, 43, 0
14, 82800, Note_on_c, 7, 48, 52
14, 82919, Note_on_c, 7, 48, 0
14, 83280, Note_on_c, 7, 48, 52
14, 83399, Note_on_c, 7, 48, 0
14, 83760, Note_on_c, 7, 48, 52
14, 83879, Note_on_c, 7, 48, 0
14, 84000, Note_on_c, 7, 48, 52
14, 84119, Note_on_c, 7, 48, 0
14, 84240, Note_on_c, 7, 43, 52
14, 84359, Note_on_c, 7, 43, 0
14, 88560, Note_on_c, 7, 48, 44
14, 88679, Note_on_c, 7, 48, 0
14, 88800, Note_on_c, 7, 48, 44
14, 88919, Note_on_c, 7, 48, 0
14, 88920, Note_on_c, 7, 48, 44
14, 89039, Note_on_c, 7, 48, 0
14, 89040, Note_on_c, 7, 48, 44
14, 89159, Note_on_c, 7, 48, 0
14, 89280, Note_on_c, 7, 48, 44
14, 89399, Note_on_c, 7, 48, 0
14, 89520, Note_on_c, 7, 43, 44
14, 89639, Note_on_c, 7, 43, 0
14, 90000, Note_on_c, 7, 43, 44
14, 90119, Note_on_c, 7, 43, 0
14, 90480, Note_on_c, 7, 43, 44
14, 90599, Note_on_c, 7, 43, 0
14, 90960, Note_on_c, 7, 43, 44
14, 91079, Note_on_c, 7, 43, 0
14, 91200, Note_on_c, 7, 43, 44
14, 91319, Note_on_c, 7, 43, 0
14, 91440, Note_on_c, 7, 43, 44
14, 91559, Note_on_c, 7, 43, 0
14, 93120, Note_on_c, 7, 48, 76
14, 93239, Note_on_c, 7, 48, 0
14, 93360, Note_on_c, 7, 48, 52
14, 93479, Note_on_c, 7, 48, 0
14, 94680, Note_on_c, 7, 43, 76
14, 94799, Note_on_c, 7, 43, 0
14, 94800, Note_on_c, 7, 48, 76
14, 94889, Note_on_c, 7, 48, 0
14, 94920, Note_on_c, 7, 48, 76
14, 95009, Note_on_c, 7, 48, 0
14, 95160, Note_on_c, 7, 48, 52
14, 95249, Note_on_c, 7, 48, 0
14, 95250, Note_on_c, 7, 48, 52
14, 95279, Note_on_c, 7, 48, 0
14, 95280, Note_on_c, 7, 48, 52
14, 95399, Note_on_c, 7, 48, 0
14, 95400, Note_on_c, 7, 43, 52
14, 95519, Note_on_c, 7, 43, 0
14, 95700, Note_on_c, 7, 43, 52
14, 95719, Note_on_c, 7, 43, 0
14, 95720, Note_on_c, 7, 43, 52
14, 95739, Note_on_c, 7, 43, 0
14, 95740, Note_on_c, 7, 43, 52
14, 95759, Note_on_c, 7, 43, 0
14, 95760, Note_on_c, 7, 43, 52
14, 95879, Note_on_c, 7, 43, 0
14, 96180, Note_on_c, 7, 43, 52
14, 96199, Note_on_c, 7, 43, 0
14, 96200, Note_on_c, 7, 43, 52
14, 96219, Note_on_c, 7, 43, 0
14, 96220, Note_on_c, 7, 43, 52
14, 96239, Note_on_c, 7, 43, 0
14, 96240, Note_on_c, 7, 43, 52
14, 96359, Note_on_c, 7, 43, 0
14, 96660, Note_on_c, 7, 43, 52
14, 96679, Note_on_c, 7, 43, 0
14, 96680, Note_on_c, 7, 43, 52
14, 96699, Note_on_c, 7, 43, 0
14, 96700, Note_on_c, 7, 43, 52
14, 96719, Note_on_c, 7, 43, 0
14, 96720, Note_on_c, 7, 43, 52
14, 96839, Note_on_c, 7, 43, 0
14, 97140, Note_on_c, 7, 43, 52
14, 97159, Note_on_c, 7, 43, 0
14, 97160, Note_on_c, 7, 43, 52
14, 97179, Note_on_c, 7, 43, 0
14, 97180, Note_on_c, 7, 43, 52
14, 97199, Note_on_c, 7, 43, 0
14, 97200, Note_on_c, 7, 43, 52
14, 97319, Note_on_c, 7, 43, 0
14, 97620, Note_on_c, 7, 43, 52
14, 97639, Note_on_c, 7, 43, 0
14, 97640, Note_on_c, 7, 43, 52
14, 97659, Note_on_c, 7, 43, 0
14, 97660, Note_on_c, 7, 43, 52
14, 97679, Note_on_c, 7, 43, 0
14, 97680, Note_on_c, 7, 43, 76
14, 97799, Note_on_c, 7, 43, 0
14, 98100, Note_on_c, 7, 43, 76
14, 98119, Note_on_c, 7, 43, 0
14, 98120, Note_on_c, 7, 43, 76
14, 98139, Note_on_c, 7, 43, 0
14, 98140, Note_on_c, 7, 43, 76
14, 98159, Note_on_c, 7, 43, 0
14, 98160, Note_on_c, 7, 43, 76
14, 98279, Note_on_c, 7, 43, 0
14, 98580, Note_on_c, 7, 43, 76
14, 98599, Note_on_c, 7, 43, 0
14, 98600, Note_on_c, 7, 43, 68
14, 98619, Note_on_c, 7, 43, 0
14, 98620, Note_on_c, 7, 43, 60
14, 98639, Note_on_c, 7, 43, 0
14, 98640, Note_on_c, 7, 43, 52
14, 98759, Note_on_c, 7, 43, 0
14, 98820, Note_on_c, 7, 43, 52
14, 98839, Note_on_c, 7, 43, 0
14, 98840, Note_on_c, 7, 43, 52
14, 98859, Note_on_c, 7, 43, 0
14, 98860, Note_on_c, 7, 43, 52
14, 98879, Note_on_c, 7, 43, 0
14, 98880, Note_on_c, 7, 43, 52
14, 98999, Note_on_c, 7, 43, 0
14, 99060, Note_on_c, 7, 43, 52
14, 99079, Note_on_c, 7, 43, 0
14, 99080, Note_on_c, 7, 43, 52
14, 99099, Note_on_c, 7, 43, 0
14, 99100, Note_on_c, 7, 43, 52
14, 99119, Note_on_c, 7, 43, 0
14, 99120, Note_on_c, 7, 43, 52
14, 99239, Note_on_c, 7, 43, 0
14, 99540, Note_on_c, 7, 43, 52
14, 99559, Note_on_c, 7, 43, 0
14, 99560, Note_on_c, 7, 43, 52
14, 99579, Note_on_c, 7, 43, 0
14, 99580, Note_on_c, 7, 43, 52
14, 99599, Note_on_c, 7, 43, 0
14, 99600, Note_on_c, 7, 43, 52
14, 99719, Note_on_c, 7, 43, 0
14, 99780, Note_on_c, 7, 43, 61
14, 99799, Note_on_c, 7, 43, 0
14, 99800, Note_on_c, 7, 43, 62
14, 99819, Note_on_c, 7, 43, 0
14, 99820, Note_on_c, 7, 43, 63
14, 99839, Note_on_c, 7, 43, 0
14, 99840, Note_on_c, 7, 43, 64
14, 99959, Note_on_c, 7, 43, 0
14, 100020, Note_on_c, 7, 43, 73
14, 100039, Note_on_c, 7, 43, 0
14, 100040, Note_on_c, 7, 43, 74
14, 100059, Note_on_c, 7, 43, 0
14, 100060, Note_on_c, 7, 43, 75
14, 100079, Note_on_c, 7, 43, 0
14, 100080, Note_on_c, 7, 48, 76
14, 100199, Note_on_c, 7, 48, 0
14, 106800, Note_on_c, 7, 48, 44
14, 106919, Note_on_c, 7, 48, 0
14, 107280, Note_on_c, 7, 48, 44
14, 107399, Note_on_c, 7, 48, 0
14, 107760, Note_on_c, 7, 48, 44
14, 107999, Note_on_c, 7, 48, 0
14, 108000, Note_on_c, 7, 48, 44
14, 108119, Note_on_c, 7, 48, 0
14, 108120, Note_on_c, 7, 48, 44
14, 108239, Note_on_c, 7, 48, 0
14, 108240, Note_on_c, 7, 48, 44
14, 108359, Note_on_c, 7, 48, 0
14, 108480, Note_on_c, 7, 48, 48
14, 108599, Note_on_c, 7, 48, 0
14, 108600, Note_on_c, 7, 48, 50
14, 108719, Note_on_c, 7, 48, 0
14, 108720, Note_on_c, 7, 48, 52
14, 108734, Note_on_c, 7, 48, 0
14, 108735, Note_on_c, 7, 48, 52
14, 108749, Note_on_c, 7, 48, 0
14, 108750, Note_on_c, 7, 48, 52
14, 108764, Note_on_c, 7, 48, 0
14, 108765, Note_on_c, 7, 48, 52
14, 108779, Note_on_c, 7, 48, 0
14, 108780, Note_on_c, 7, 48, 53
14, 108794, Note_on_c, 7, 48, 0
14, 108795, Note_on_c, 7, 48, 53
14, 108809, Note_on_c, 7, 48, 0
14, 108810, Note_on_c, 7, 48, 53
14, 108824, Note_on_c, 7, 48, 0
14, 108825, Note_on_c, 7, 48, 53
14, 108839, Note_on_c, 7, 48, 0
14, 108840, Note_on_c, 7, 48, 54
14, 108854, Note_on_c, 7, 48, 0
14, 108855, Note_on_c, 7, 48, 54
14, 108869, Note_on_c, 7, 48, 0
14, 108870, Note_on_c, 7, 48, 54
14, 108884, Note_on_c, 7, 48, 0
14, 108885, Note_on_c, 7, 48, 54
14, 108899, Note_on_c, 7, 48, 0
14, 108900, Note_on_c, 7, 48, 55
14, 108914, Note_on_c, 7, 48, 0
14, 108915, Note_on_c, 7, 48, 55
14, 108929, Note_on_c, 7, 48, 0
14, 108930, Note_on_c, 7, 48, 55
14, 108944, Note_on_c, 7, 48, 0
14, 108945, Note_on_c, 7, 48, 55
14, 108959, Note_on_c, 7, 48, 0
14, 108960, Note_on_c, 7, 48, 56
14, 108974, Note_on_c, 7, 48, 0
14, 108975, Note_on_c, 7, 48, 56
14, 108989, Note_on_c, 7, 48, 0
14, 108990, Note_on_c, 7, 48, 56
14, 109004, Note_on_c, 7, 48, 0
14, 109005, Note_on_c, 7, 48, 56
14, 109019, Note_on_c, 7, 48, 0
14, 109020, Note_on_c, 7, 48, 57
14, 109034, Note_on_c, 7, 48, 0
14, 109035, Note_on_c, 7, 48, 57
14, 109049, Note_on_c, 7, 48, 0
14, 109050, Note_on_c, 7, 48, 57
14, 109064, Note_on_c, 7, 48, 0
14, 109065, Note_on_c, 7, 48, 57
14, 109079, Note_on_c, 7, 48, 0
14, 109080, Note_on_c, 7, 48, 58
14, 109094, Note_on_c, 7, 48, 0
14, 109095, Note_on_c, 7, 48, 58
14, 109109, Note_on_c, 7, 48, 0
14, 109110, Note_on_c, 7, 48, 58
14, 109124, Note_on_c, 7, 48, 0
14, 109125, Note_on_c, 7, 48, 58
14, 109139, Note_on_c, 7, 48, 0
14, 109140, Note_on_c, 7, 48, 59
14, 109154, Note_on_c, 7, 48, 0
14, 109155, Note_on_c, 7, 48, 59
14, 109169, Note_on_c, 7, 48, 0
14, 109170, Note_on_c, 7, 48, 59
14, 109184, Note_on_c, 7, 48, 0
14, 109185, Note_on_c, 7, 48, 59
14, 109199, Note_on_c, 7, 48, 0
14, 109200, Note_on_c, 7, 48, 52
14, 109319, Note_on_c, 7, 48, 0
14, 109920, Note_on_c, 7, 48, 52
14, 110039, Note_on_c, 7, 48, 0
14, 110400, Note_on_c, 7, 48, 52
14, 110519, Note_on_c, 7, 48, 0
14, 110880, Note_on_c, 7, 43, 44
14, 110999, Note_on_c, 7, 43, 0
14, 111360, Note_on_c, 7, 43, 44
14, 111479, Note_on_c, 7, 43, 0
14, 111840, Note_on_c, 7, 43, 44
14, 111959, Note_on_c, 7, 43, 0
14, 112800, Note_on_c, 7, 43, 44
14, 112919, Note_on_c, 7, 43, 0
14, 112920, Note_on_c, 7, 43, 44
14, 113039, Note_on_c, 7, 43, 0
14, 114000, Note_on_c, 7, 48, 44
14, 114119, Note_on_c, 7, 48, 0
14, 114119, End_track
15, 0, Start_track
15, 0, Title_t, "Violin I"
15, 0, MIDI_port, 0
15, 0, Program_c, 11, 48
15, 0, Control_c, 11, 7, 96
15, 0, Control_c, 11, 10, 48
15, 0, Control_c, 11, 11, 127
15, 120, Note_on_c, 11, 55, 44
15, 201, Note_on_c, 11, 55, 0
15, 210, Note_on_c, 11, 55, 44
15, 235, Note_on_c, 11, 55, 0
15, 240, Note_on_c, 11, 55, 44
15, 451, Note_on_c, 11, 55, 0
15, 460, Note_on_c, 11, 62, 44
15, 479, Note_on_c, 11, 62, 0
15, 480, Note_on_c, 11, 60, 44
15, 569, Note_on_c, 11, 60, 0
15, 570, Note_on_c, 11, 59, 44
15, 599, Note_on_c, 11, 59, 0
15, 600, Note_on_c, 11, 60, 44
15, 689, Note_on_c, 11, 60, 0
15, 690, Note_on_c, 11, 62, 44
15, 715, Note_on_c, 11, 62, 0
15, 720, Note_on_c, 11, 63, 44
15, 959, Note_on_c, 11, 63, 0
15, 960, Note_on_c, 11, 60, 44
15, 1079, Note_on_c, 11, 60, 0
15, 1200, Note_on_c, 11, 67, 44
15, 1431, Note_on_c, 11, 67, 0
15, 1440, Note_on_c, 11, 65, 44
15, 1469, Note_on_c, 11, 65, 0
15, 1470, Note_on_c, 11, 63, 44
15, 1551, Note_on_c, 11, 63, 0
15, 1560, Note_on_c, 11, 62, 44
15, 1589, Note_on_c, 11, 62, 0
15, 1590, Note_on_c, 11, 60, 44
15, 1671, Note_on_c, 11, 60, 0
15, 1680, Note_on_c, 11, 63, 44
15, 1919, Note_on_c, 11, 63, 0
15, 1920, Note_on_c, 11, 62, 44
15, 2039, Note_on_c, 11, 62, 0
15, 2160, Note_on_c, 11, 62, 44
15, 2391, Note_on_c, 11, 62, 0
15, 2400, Note_on_c, 11, 62, 44
15, 2489, Note_on_c, 11, 62, 0
15, 2490, Note_on_c, 11, 63, 44
15, 2519, Note_on_c, 11, 63, 0
15, 2520, Note_on_c, 11, 65, 44
15, 2609, Note_on_c, 11, 65, 0
15, 2610, Note_on_c, 11, 67, 44
15, 2635, Note_on_c, 11, 67, 0
15, 2640, Note_on_c, 11, 68, 60
15, 2760, Control_c, 11, 11, 112
15, 2880, Control_c, 11, 11, 104
15, 2910, Control_c, 11, 11, 103
15, 2940, Control_c, 11, 11, 102
15, 2970, Control_c, 11, 11, 101
15, 2999, Note_on_c, 11, 68, 0
15, 3000, Control_c, 11, 11, 100
15, 3000, Note_on_c, 11, 67, 60
15, 3030, Control_c, 11, 11, 99
15, 3059, Note_on_c, 11, 67, 0
15, 3060, Control_c, 11, 11, 98
15, 3060, Note_on_c, 11, 65, 60
15, 3090, Control_c, 11, 11, 97
15, 3111, Note_on_c, 11, 65, 0
15, 3120, Note_on_c, 11, 65, 60
15, 3120, Control_c, 11, 11, 96
15, 3179, Note_on_c, 11, 65, 0
15, 3180, Note_on_c, 11, 63, 60
15, 3231, Note_on_c, 11, 63, 0
15, 3240, Note_on_c, 11, 65, 60
15, 3287, Note_on_c, 11, 65, 0
15, 3300, Note_on_c, 11, 62, 60
15, 3347, Note_on_c, 11, 62, 0
15, 3360, Note_on_c, 11, 60, 60
15, 3479, Note_on_c, 11, 60, 0
15, 3480, Note_on_c, 11, 62, 60
15, 3569, Note_on_c, 11, 62, 0
15, 3570, Note_on_c, 11, 59, 60
15, 3595, Note_on_c, 11, 59, 0
15, 3600, Note_on_c, 11, 60, 60
15, 3711, Note_on_c, 11, 60, 0
15, 3720, Note_on_c, 11, 60, 60
15, 3801, Note_on_c, 11, 60, 0
15, 3810, Note_on_c, 11, 60, 60
15, 3835, Note_on_c, 11, 60, 0
15, 3840, Note_on_c, 11, 60, 60
15, 3959, Note_on_c, 11, 60, 0
15, 4020, Note_on_c, 11, 63, 60
15, 4039, Note_on_c, 11, 63, 0
15, 4040, Note_on_c, 11, 63, 60
15, 4059, Note_on_c, 11, 63, 0
15, 4060, Note_on_c, 11, 63, 60
15, 4075, Note_on_c, 11, 63, 0
15, 4080, Note_on_c, 11, 63, 60
15, 4199, Note_on_c, 11, 63, 0
15, 4470, Control_c, 11, 11, 127
15, 4500, Note_on_c, 11, 63, 44
15, 4519, Note_on_c, 11, 63, 0
15, 4520, Note_on_c, 11, 63, 44
15, 4539, Note_on_c, 11, 63, 0
15, 4540, Note_on_c, 11, 63, 44
15, 4555, Note_on_c, 11, 63, 0
15, 4560, Note_on_c, 11, 63, 44
15, 4679, Note_on_c, 11, 63, 0
15, 4980, Note_on_c, 11, 63, 44
15, 4999, Note_on_c, 11, 63, 0
15, 5000, Note_on_c, 11, 63, 44
15, 5019, Note_on_c, 11, 63, 0
15, 5020, Note_on_c, 11, 63, 44
15, 5035, Note_on_c, 11, 63, 0
15, 5040, Note_on_c, 11, 63, 44
15, 5159, Note_on_c, 11, 63, 0
15, 5220, Note_on_c, 11, 63, 44
15, 5239, Note_on_c, 11, 63, 0
15, 5240, Note_on_c, 11, 63, 44
15, 5259, Note_on_c, 11, 63, 0
15, 5260, Note_on_c, 11, 63, 44
15, 5275, Note_on_c, 11, 63, 0
15, 5280, Note_on_c, 11, 67, 44
15, 5399, Note_on_c, 11, 67, 0
15, 5430, Control_c, 11, 11, 96
15, 5460, Note_on_c, 11, 67, 60
15, 5479, Note_on_c, 11, 67, 0
15, 5480, Note_on_c, 11, 67, 60
15, 5499, Note_on_c, 11, 67, 0
15, 5500, Note_on_c, 11, 67, 60
15, 5515, Note_on_c, 11, 67, 0
15, 5520, Note_on_c, 11, 67, 60
15, 5520, Control_c, 11, 11, 96
15, 5540, Control_c, 11, 11, 99
15, 5560, Control_c, 11, 11, 101
15, 5580, Control_c, 11, 11, 104
15, 5600, Control_c, 11, 11, 106
15, 5620, Control_c, 11, 11, 109
15, 5639, Note_on_c, 11, 67, 0
15, 5640, Control_c, 11, 11, 112
15, 5660, Control_c, 11, 11, 114
15, 5680, Control_c, 11, 11, 117
15, 5700, Control_c, 11, 11, 119
15, 5700, Note_on_c, 11, 69, 60
15, 5719, Note_on_c, 11, 69, 0
15, 5720, Note_on_c, 11, 69, 60
15, 5720, Control_c, 11, 11, 122
15, 5739, Note_on_c, 11, 69, 0
15, 5740, Control_c, 11, 11, 124
15, 5740, Note_on_c, 11, 69, 60
15, 5755, Note_on_c, 11, 69, 0
15, 5760, Control_c, 11, 11, 127
15, 5760, Note_on_c, 11, 71, 60
15, 5773, Control_c, 11, 11, 124
15, 5787, Control_c, 11, 11, 120
15, 5800, Control_c, 11, 11, 117
15, 5813, Control_c, 11, 11, 113
15, 5827, Control_c, 11, 11, 110
15, 5840, Control_c, 11, 11, 106
15, 5853, Control_c, 11, 11, 103
15, 5867, Control_c, 11, 11, 99
15, 5879, Note_on_c, 11, 71, 0
15, 5920, Control_c, 11, 11, 96
15, 5940, Note_on_c, 11, 62, 68
15, 5959, Note_on_c, 11, 62, 0
15, 5960, Note_on_c, 11, 62, 68
15, 5979, Note_on_c, 11, 62, 0
15, 5980, Note_on_c, 11, 62, 68
15, 5995, Note_on_c, 11, 62, 0
15, 6000, Note_on_c, 11, 62, 68
15, 6119, Note_on_c, 11, 62, 0
15, 6420, Note_on_c, 11, 65, 68
15, 6439, Note_on_c, 11, 65, 0
15, 6440, Note_on_c, 11, 65, 68
15, 6459, Note_on_c, 11, 65, 0
15, 6460, Note_on_c, 11, 65, 68
15, 6475, Note_on_c, 11, 65, 0
15, 6480, Note_on_c, 11, 65, 68
15, 6599, Note_on_c, 11, 65, 0
15, 6900, Note_on_c, 11, 68, 68
15, 6900, Control_c, 11, 11, 96
15, 6919, Note_on_c, 11, 68, 0
15, 6920, Control_c, 11, 11, 99
15, 6920, Note_on_c, 11, 68, 68
15, 6939, Note_on_c, 11, 68, 0
15, 6940, Control_c, 11, 11, 101
15, 6940, Note_on_c, 11, 68, 68
15, 6955, Note_on_c, 11, 68, 0
15, 6960, Control_c, 11, 11, 104
15, 6960, Note_on_c, 11, 68, 68
15, 6980, Control_c, 11, 11, 106
15, 7000, Control_c, 11, 11, 109
15, 7020, Control_c, 11, 11, 112
15, 7040, Control_c, 11, 11, 114
15, 7060, Control_c, 11, 11, 117
15, 7079, Note_on_c, 11, 68, 0
15, 7080, Control_c, 11, 11, 119
15, 7100, Control_c, 11, 11, 122
15, 7120, Control_c, 11, 11, 124
15, 7140, Control_c, 11, 11, 127
15, 7140, Note_on_c, 11, 68, 68
15, 7157, Control_c, 11, 11, 125
15, 7159, Note_on_c, 11, 68, 0
15, 7160, Note_on_c, 11, 68, 68
15, 7173, Control_c, 11, 11, 124
15, 7179, Note_on_c, 11, 68, 0
15, 7180, Note_on_c, 11, 68, 68
15, 7190, Control_c, 11, 11, 122
15, 7195, Note_on_c, 11, 68, 0
15, 7200, Note_on_c, 11, 67, 68
15, 7207, Control_c, 11, 11, 120
15, 7223, Control_c, 11, 11, 118
15, 7240, Control_c, 11, 11, 117
15, 7257, Control_c, 11, 11, 115
15, 7273, Control_c, 11, 11, 113
15, 7290, Control_c, 11, 11, 112
15, 7307, Control_c, 11, 11, 110
15, 7319, Note_on_c, 11, 67, 0
15, 7323, Control_c, 11, 11, 108
15, 7340, Control_c, 11, 11, 106
15, 7357, Control_c, 11, 11, 105
15, 7373, Control_c, 11, 11, 103
15, 7380, Note_on_c, 11, 68, 68
15, 7390, Control_c, 11, 11, 101
15, 7399, Note_on_c, 11, 68, 0
15, 7400, Note_on_c, 11, 68, 68
15, 7407, Control_c, 11, 11, 99
15, 7419, Note_on_c, 11, 68, 0
15, 7420, Note_on_c, 11, 68, 68
15, 7423, Control_c, 11, 11, 96
15, 7435, Note_on_c, 11, 68, 0
15, 7440, Note_on_c, 11, 67, 68
15, 7559, Note_on_c, 11, 67, 0
15, 7680, Control_c, 11, 11, 80
15, 7800, Note_on_c, 11, 58, 76
15, 7911, Note_on_c, 11, 58, 0
15, 7920, Note_on_c, 11, 63, 76
15, 8159, Note_on_c, 11, 63, 0
15, 8160, Note_on_c, 11, 62, 76
15, 8279, Note_on_c, 11, 62, 0
15, 8280, Note_on_c, 11, 60, 76
15, 8391, Note_on_c, 11, 60, 0
15, 8400, Note_on_c, 11, 58, 76
15, 8640, Control_c, 11, 11, 80
15, 8680, Control_c, 11, 11, 83
15, 8691, Note_on_c, 11, 58, 0
15, 8700, Note_on_c, 11, 58, 76
15, 8720, Control_c, 11, 11, 85
15, 8721, Note_on_c, 11, 58, 0
15, 8730, Note_on_c, 11, 60, 76
15, 8751, Note_on_c, 11, 60, 0
15, 8760, Control_c, 11, 11, 88
15, 8760, Note_on_c, 11, 62, 76
15, 8781, Note_on_c, 11, 62, 0
15, 8785, Control_c, 11, 11, 90
15, 8790, Note_on_c, 11, 63, 76
15, 8811, Note_on_c, 11, 63, 0
15, 8820, Note_on_c, 11, 65, 76
15, 8820, Control_c, 11, 11, 92
15, 8840, Control_c, 11, 11, 93
15, 8841, Note_on_c, 11, 65, 0
15, 8850, Note_on_c, 11, 67, 76
15, 8871, Note_on_c, 11, 67, 0
15, 8880, Control_c, 11, 11, 96
15, 8880, Note_on_c, 11, 68, 76
15, 8910, Control_c, 11, 11, 97
15, 8940, Control_c, 11, 11, 99
15, 8970, Control_c, 11, 11, 100
15, 9000, Control_c, 11, 11, 101
15, 9030, Control_c, 11, 11, 102
15, 9060, Control_c, 11, 11, 104
15, 9090, Control_c, 11, 11, 105
15, 9119, Note_on_c, 11, 68, 0
15, 9120, Note_on_c, 11, 67, 76
15, 9120, Control_c, 11, 11, 106
15, 9150, Control_c, 11, 11, 108
15, 9180, Control_c, 11, 11, 109
15, 9210, Control_c, 11, 11, 110
15, 9239, Note_on_c, 11, 67, 0
15, 9240, Note_on_c, 11, 65, 76
15, 9240, Control_c, 11, 11, 112
15, 9270, Control_c, 11, 11, 113
15, 9300, Control_c, 11, 11, 114
15, 9330, Control_c, 11, 11, 115
15, 9351, Note_on_c, 11, 65, 0
15, 9360, Control_c, 11, 11, 117
15, 9360, Note_on_c, 11, 64, 76
15, 9390, Control_c, 11, 11, 118
15, 9420, Control_c, 11, 11, 119
15, 9450, Control_c, 11, 11, 121
15, 9479, Note_on_c, 11, 64, 0
15, 9480, Control_c, 11, 11, 122
15, 9510, Control_c, 11, 11, 123
15, 9540, Control_c, 11, 11, 124
15, 9570, Control_c, 11, 11, 127
15, 9570, Note_on_c, 11, 70, 76
15, 9595, Note_on_c, 11, 70, 0
15, 9600, Note_on_c, 11, 70, 76
15, 9839, Note_on_c, 11, 70, 0
15, 10080, Note_on_c, 11, 68, 52
15, 10199, Note_on_c, 11, 68, 0
15, 10200, Note_on_c, 11, 67, 52
15, 10311, Note_on_c, 11, 67, 0
15, 10320, Note_on_c, 11, 66, 52
15, 10551, Note_on_c, 11, 66, 0
15, 10560, Note_on_c, 11, 72, 68
15, 10620, Control_c, 11, 11, 127
15, 10640, Control_c, 11, 11, 122
15, 10660, Control_c, 11, 11, 117
15, 10680, Control_c, 11, 11, 112
15, 10700, Control_c, 11, 11, 106
15, 10720, Control_c, 11, 11, 96
15, 10731, Note_on_c, 11, 72, 0
15, 10740, Note_on_c, 11, 66, 68
15, 10791, Note_on_c, 11, 66, 0
15, 10800, Note_on_c, 11, 67, 68
15, 11631, Note_on_c, 11, 67, 0
15, 11640, Note_on_c, 11, 67, 68
15, 11751, Note_on_c, 11, 67, 0
15, 11760, Note_on_c, 11, 79, 68
15, 11760, Control_c, 11, 11, 96
15, 11780, Control_c, 11, 11, 97
15, 11800, Control_c, 11, 11, 99
15, 11820, Control_c, 11, 11, 100
15, 11840, Control_c, 11, 11, 101
15, 11860, Control_c, 11, 11, 102
15, 11880, Control_c, 11, 11, 104
15, 11900, Control_c, 11, 11, 105
15, 11920, Control_c, 11, 11, 106
15, 11940, Control_c, 11, 11, 108
15, 11960, Control_c, 11, 11, 109
15, 11980, Control_c, 11, 11, 110
15, 11999, Note_on_c, 11, 79, 0
15, 12000, Note_on_c, 11, 74, 68
15, 12000, Control_c, 11, 11, 112
15, 12020, Control_c, 11, 11, 113
15, 12040, Control_c, 11, 11, 114
15, 12060, Control_c, 11, 11, 115
15, 12080, Control_c, 11, 11, 117
15, 12100, Control_c, 11, 11, 118
15, 12119, Note_on_c, 11, 74, 0
15, 12120, Control_c, 11, 11, 119
15, 12120, Note_on_c, 11, 77, 68
15, 12140, Control_c, 11, 11, 121
15, 12160, Control_c, 11, 11, 122
15, 12180, Control_c, 11, 11, 123
15, 12200, Control_c, 11, 11, 124
15, 12220, Control_c, 11, 11, 126
15, 12239, Note_on_c, 11, 77, 0
15, 12240, Control_c, 11, 11, 127
15, 12240, Note_on_c, 11, 75, 68
15, 12260, Control_c, 11, 11, 126
15, 12280, Control_c, 11, 11, 124
15, 12300, Control_c, 11, 11, 123
15, 12320, Control_c, 11, 11, 122
15, 12340, Control_c, 11, 11, 121
15, 12360, Control_c, 11, 11, 119
15, 12380, Control_c, 11, 11, 118
15, 12400, Control_c, 11, 11, 117
15, 12420, Control_c, 11, 11, 115
15, 12440, Control_c, 11, 11, 114
15, 12460, Control_c, 11, 11, 113
15, 12479, Note_on_c, 11, 75, 0
15, 12480, Control_c, 11, 11, 112
15, 12480, Note_on_c, 11, 74, 68
15, 12500, Control_c, 11, 11, 110
15, 12520, Control_c, 11, 11, 109
15, 12540, Control_c, 11, 11, 108
15, 12560, Control_c, 11, 11, 106
15, 12580, Control_c, 11, 11, 105
15, 12599, Note_on_c, 11, 74, 0
15, 12600, Note_on_c, 11, 72, 68
15, 12600, Control_c, 11, 11, 104
15, 12620, Control_c, 11, 11, 102
15, 12640, Control_c, 11, 11, 101
15, 12660, Control_c, 11, 11, 100
15, 12680, Control_c, 11, 11, 99
15, 12700, Control_c, 11, 11, 96
15, 12711, Note_on_c, 11, 72, 0
15, 12720, Note_on_c, 11, 71, 68
15, 12839, Note_on_c, 11, 71, 0
15, 14400, Control_c, 11, 11, 127
15, 14520, Note_on_c, 11, 60, 68
15, 14601, Note_on_c, 11, 60, 0
15, 14610, Note_on_c, 11, 60, 52
15, 14635, Note_on_c, 11, 60, 0
15, 14640, Note_on_c, 11, 60, 52
15, 14851, Note_on_c, 11, 60, 0
15, 14860, Note_on_c, 11, 67, 52
15, 14879, Note_on_c, 11, 67, 0
15, 14880, Note_on_c, 11, 65, 52
15, 14969, Note_on_c, 11, 65, 0
15, 14970, Note_on_c, 11, 64, 52
15, 14999, Note_on_c, 11, 64, 0
15, 15000, Note_on_c, 11, 65, 52
15, 15089, Note_on_c, 11, 65, 0
15, 15090, Note_on_c, 11, 67, 52
15, 15115, Note_on_c, 11, 67, 0
15, 15120, Note_on_c, 11, 68, 52
15, 15359, Note_on_c, 11, 68, 0
15, 15360, Note_on_c, 11, 65, 52
15, 15479, Note_on_c, 11, 65, 0
15, 15540, Control_c, 11, 11, 80
15, 15600, Control_c, 11, 11, 80
15, 15600, Note_on_c, 11, 77, 76
15, 15620, Control_c, 11, 11, 82
15, 15640, Control_c, 11, 11, 84
15, 15660, Control_c, 11, 11, 86
15, 15680, Control_c, 11, 11, 88
15, 15700, Control_c, 11, 11, 90
15, 15720, Control_c, 11, 11, 92
15, 15740, Control_c, 11, 11, 94
15, 15760, Control_c, 11, 11, 96
15, 15780, Control_c, 11, 11, 98
15, 15800, Control_c, 11, 11, 100
15, 15820, Control_c, 11, 11, 102
15, 15831, Note_on_c, 11, 77, 0
15, 15840, Control_c, 11, 11, 104
15, 15840, Note_on_c, 11, 75, 76
15, 15860, Control_c, 11, 11, 105
15, 15869, Note_on_c, 11, 75, 0
15, 15870, Note_on_c, 11, 74, 76
15, 15880, Control_c, 11, 11, 107
15, 15900, Control_c, 11, 11, 109
15, 15920, Control_c, 11, 11, 111
15, 15940, Control_c, 11, 11, 113
15, 15951, Note_on_c, 11, 74, 0
15, 15960, Note_on_c, 11, 72, 76
15, 15960, Control_c, 11, 11, 115
15, 15980, Control_c, 11, 11, 117
15, 15989, Note_on_c, 11, 72, 0
15, 15990, Note_on_c, 11, 71, 76
15, 16000, Control_c, 11, 11, 119
15, 16020, Control_c, 11, 11, 121
15, 16040, Control_c, 11, 11, 123
15, 16060, Control_c, 11, 11, 127
15, 16071, Note_on_c, 11, 71, 0
15, 16080, Note_on_c, 11, 72, 76
15, 16169, Note_on_c, 11, 72, 0
15, 16200, Note_on_c, 11, 68, 76
15, 16289, Note_on_c, 11, 68, 0
15, 16410, Control_c, 11, 11, 96
15, 16440, Control_c, 11, 11, 96
15, 16440, Note_on_c, 11, 66, 68
15, 16460, Control_c, 11, 11, 99
15, 16480, Control_c, 11, 11, 101
15, 16500, Control_c, 11, 11, 104
15, 16520, Control_c, 11, 11, 106
15, 16540, Control_c, 11, 11, 109
15, 16560, Control_c, 11, 11, 112
15, 16580, Control_c, 11, 11, 114
15, 16600, Control_c, 11, 11, 117
15, 16620, Control_c, 11, 11, 119
15, 16640, Control_c, 11, 11, 122
15, 16660, Control_c, 11, 11, 127
15, 16671, Note_on_c, 11, 66, 0
15, 16680, Note_on_c, 11, 67, 76
15, 16740, Control_c, 11, 11, 112
15, 16765, Control_c, 11, 11, 109
15, 16790, Control_c, 11, 11, 107
15, 16815, Control_c, 11, 11, 104
15, 16840, Control_c, 11, 11, 101
15, 16865, Control_c, 11, 11, 99
15, 16890, Control_c, 11, 11, 96
15, 16915, Control_c, 11, 11, 93
15, 16919, Note_on_c, 11, 67, 0
15, 16920, Note_on_c, 11, 65, 76
15, 16940, Control_c, 11, 11, 91
15, 16965, Control_c, 11, 11, 88
15, 16990, Control_c, 11, 11, 85
15, 17009, Note_on_c, 11, 65, 0
15, 17010, Note_on_c, 11, 62, 76
15, 17015, Control_c, 11, 11, 80
15, 17035, Note_on_c, 11, 62, 0
15, 17040, Note_on_c, 11, 60, 76
15, 17159, Note_on_c, 11, 60, 0
15, 17280, Control_c, 11, 11, 127
15, 17460, Note_on_c, 11, 68, 52
15, 17460, Note_on_c, 11, 58, 52
15, 17479, Note_on_c, 11, 68, 0
15, 17479, Note_on_c, 11, 58, 0
15, 17480, Note_on_c, 11, 68, 52
15, 17480, Note_on_c, 11, 58, 52
15, 17499, Note_on_c, 11, 68, 0
15, 17499, Note_on_c, 11, 58, 0
15, 17500, Note_on_c, 11, 68, 52
15, 17500, Note_on_c, 11, 58, 52
15, 17515, Note_on_c, 11, 68, 0
15, 17515, Note_on_c, 11, 58, 0
15, 17520, Note_on_c, 11, 67, 52
15, 17520, Note_on_c, 11, 58, 52
15, 17639, Note_on_c, 11, 67, 0
15, 17639, Note_on_c, 11, 58, 0
15, 17940, Note_on_c, 11, 63, 52
15, 17959, Note_on_c, 11, 63, 0
15, 17960, Note_on_c, 11, 63, 52
15, 17979, Note_on_c, 11, 63, 0
15, 17980, Note_on_c, 11, 63, 52
15, 17995, Note_on_c, 11, 63, 0
15, 18000, Note_on_c, 11, 65, 52
15, 18119, Note_on_c, 11, 65, 0
15, 18420, Note_on_c, 11, 65, 52
15, 18439, Note_on_c, 11, 65, 0
15, 18440, Note_on_c, 11, 65, 52
15, 18459, Note_on_c, 11, 65, 0
15, 18460, Note_on_c, 11, 65, 52
15, 18475, Note_on_c, 11, 65, 0
15, 18480, Note_on_c, 11, 68, 52
15, 18599, Note_on_c, 11, 68, 0
15, 18660, Note_on_c, 11, 68, 58
15, 18679, Note_on_c, 11, 68, 0
15, 18680, Note_on_c, 11, 68, 58
15, 18699, Note_on_c, 11, 68, 0
15, 18700, Note_on_c, 11, 68, 59
15, 18719, Note_on_c, 11, 68, 0
15, 18720, Note_on_c, 11, 67, 60
15, 18839, Note_on_c, 11, 67, 0
15, 18900, Note_on_c, 11, 65, 66
15, 18919, Note_on_c, 11, 65, 0
15, 18920, Note_on_c, 11, 65, 66
15, 18939, Note_on_c, 11, 65, 0
15, 18940, Note_on_c, 11, 65, 67
15, 18955, Note_on_c, 11, 65, 0
15, 18960, Note_on_c, 11, 64, 68
15, 19079, Note_on_c, 11, 64, 0
15, 19140, Note_on_c, 11, 70, 74
15, 19159, Note_on_c, 11, 70, 0
15, 19160, Note_on_c, 11, 70, 74
15, 19179, Note_on_c, 11, 70, 0
15, 19180, Note_on_c, 11, 70, 75
15, 19195, Note_on_c, 11, 70, 0
15, 19200, Note_on_c, 11, 70, 76
15, 19319, Note_on_c, 11, 70, 0
15, 19380, Note_on_c, 11, 70, 76
15, 19395, Note_on_c, 11, 70, 0
15, 19400, Note_on_c, 11, 70, 76
15, 19415, Note_on_c, 11, 70, 0
15, 19420, Note_on_c, 11, 70, 76
15, 19435, Note_on_c, 11, 70, 0
15, 19440, Note_on_c, 11, 70, 52
15, 19559, Note_on_c, 11, 70, 0
15, 19620, Note_on_c, 11, 70, 52
15, 19635, Note_on_c, 11, 70, 0
15, 19640, Note_on_c, 11, 70, 52
15, 19655, Note_on_c, 11, 70, 0
15, 19660, Note_on_c, 11, 70, 52
15, 19675, Note_on_c, 11, 70, 0
15, 19680, Note_on_c, 11, 68, 52
15, 19799, Note_on_c, 11, 68, 0
15, 19860, Note_on_c, 11, 67, 52
15, 19875, Note_on_c, 11, 67, 0
15, 19880, Note_on_c, 11, 67, 52
15, 19895, Note_on_c, 11, 67, 0
15, 19900, Note_on_c, 11, 67, 52
15, 19915, Note_on_c, 11, 67, 0
15, 19920, Note_on_c, 11, 66, 52
15, 20039, Note_on_c, 11, 66, 0
15, 20100, Note_on_c, 11, 66, 52
15, 20115, Note_on_c, 11, 66, 0
15, 20120, Note_on_c, 11, 66, 52
15, 20135, Note_on_c, 11, 66, 0
15, 20140, Note_on_c, 11, 66, 52
15, 20155, Note_on_c, 11, 66, 0
15, 20160, Note_on_c, 11, 66, 60
15, 20279, Note_on_c, 11, 66, 0
15, 20340, Note_on_c, 11, 66, 52
15, 20355, Note_on_c, 11, 66, 0
15, 20360, Note_on_c, 11, 66, 52
15, 20375, Note_on_c, 11, 66, 0
15, 20380, Note_on_c, 11, 66, 52
15, 20395, Note_on_c, 11, 66, 0
15, 20400, Note_on_c, 11, 67, 52
15, 20519, Note_on_c, 11, 67, 0
15, 20820, Note_on_c, 11, 67, 52
15, 20835, Note_on_c, 11, 67, 0
15, 20840, Note_on_c, 11, 67, 52
15, 20855, Note_on_c, 11, 67, 0
15, 20860, Note_on_c, 11, 67, 52
15, 20875, Note_on_c, 11, 67, 0
15, 20880, Note_on_c, 11, 67, 52
15, 20999, Note_on_c, 11, 67, 0
15, 21300, Note_on_c, 11, 67, 52
15, 21315, Note_on_c, 11, 67, 0
15, 21320, Note_on_c, 11, 67, 52
15, 21335, Note_on_c, 11, 67, 0
15, 21340, Note_on_c, 11, 67, 52
15, 21355, Note_on_c, 11, 67, 0
15, 21360, Note_on_c, 11, 67, 52
15, 21479, Note_on_c, 11, 67, 0
15, 21780, Note_on_c, 11, 67, 66
15, 21795, Note_on_c, 11, 67, 0
15, 21800, Note_on_c, 11, 67, 66
15, 21815, Note_on_c, 11, 67, 0
15, 21820, Note_on_c, 11, 67, 67
15, 21835, Note_on_c, 11, 67, 0
15, 21840, Note_on_c, 11, 67, 68
15, 21959, Note_on_c, 11, 67, 0
15, 22020, Note_on_c, 11, 67, 62
15, 22035, Note_on_c, 11, 67, 0
15, 22040, Note_on_c, 11, 67, 62
15, 22055, Note_on_c, 11, 67, 0
15, 22060, Note_on_c, 11, 67, 61
15, 22075, Note_on_c, 11, 67, 0
15, 22080, Note_on_c, 11, 67, 60
15, 22199, Note_on_c, 11, 67, 0
15, 22260, Note_on_c, 11, 67, 54
15, 22275, Note_on_c, 11, 67, 0
15, 22280, Note_on_c, 11, 67, 54
15, 22295, Note_on_c, 11, 67, 0
15, 22300, Note_on_c, 11, 67, 53
15, 22315, Note_on_c, 11, 67, 0
15, 22320, Note_on_c, 11, 67, 52
15, 22439, Note_on_c, 11, 67, 0
15, 24180, Note_on_c, 11, 70, 68
15, 24195, Note_on_c, 11, 70, 0
15, 24200, Note_on_c, 11, 70, 52
15, 24215, Note_on_c, 11, 70, 0
15, 24220, Note_on_c, 11, 70, 52
15, 24235, Note_on_c, 11, 70, 0
15, 24240, Note_on_c, 11, 68, 52
15, 24359, Note_on_c, 11, 68, 0
15, 24660, Note_on_c, 11, 68, 52
15, 24675, Note_on_c, 11, 68, 0
15, 24680, Note_on_c, 11, 68, 52
15, 24695, Note_on_c, 11, 68, 0
15, 24700, Note_on_c, 11, 68, 52
15, 24715, Note_on_c, 11, 68, 0
15, 24720, Note_on_c, 11, 68, 52
15, 24839, Note_on_c, 11, 68, 0
15, 25140, Note_on_c, 11, 68, 52
15, 25155, Note_on_c, 11, 68, 0
15, 25160, Note_on_c, 11, 68, 52
15, 25175, Note_on_c, 11, 68, 0
15, 25180, Note_on_c, 11, 68, 52
15, 25195, Note_on_c, 11, 68, 0
15, 25200, Note_on_c, 11, 68, 52
15, 25319, Note_on_c, 11, 68, 0
15, 25380, Note_on_c, 11, 68, 61
15, 25395, Note_on_c, 11, 68, 0
15, 25400, Note_on_c, 11, 68, 62
15, 25415, Note_on_c, 11, 68, 0
15, 25420, Note_on_c, 11, 68, 63
15, 25435, Note_on_c, 11, 68, 0
15, 25440, Note_on_c, 11, 71, 64
15, 25559, Note_on_c, 11, 71, 0
15, 25620, Note_on_c, 11, 71, 73
15, 25635, Note_on_c, 11, 71, 0
15, 25640, Note_on_c, 11, 71, 74
15, 25655, Note_on_c, 11, 71, 0
15, 25660, Note_on_c, 11, 71, 75
15, 25675, Note_on_c, 11, 71, 0
15, 25680, Note_on_c, 11, 72, 76
15, 25769, Note_on_c, 11, 72, 0
15, 25800, Note_on_c, 11, 68, 52
15, 25889, Note_on_c, 11, 68, 0
15, 26100, Note_on_c, 11, 63, 52
15, 26115, Note_on_c, 11, 63, 0
15, 26120, Note_on_c, 11, 63, 52
15, 26135, Note_on_c, 11, 63, 0
15, 26140, Note_on_c, 11, 63, 52
15, 26155, Note_on_c, 11, 63, 0
15, 26160, Note_on_c, 11, 63, 52
15, 26279, Note_on_c, 11, 63, 0
15, 26340, Note_on_c, 11, 63, 64
15, 26355, Note_on_c, 11, 63, 0
15, 26360, Note_on_c, 11, 63, 65
15, 26375, Note_on_c, 11, 63, 0
15, 26380, Note_on_c, 11, 63, 66
15, 26395, Note_on_c, 11, 63, 0
15, 26400, Note_on_c, 11, 65, 68
15, 26519, Note_on_c, 11, 65, 0
15, 26580, Note_on_c, 11, 71, 56
15, 26595, Note_on_c, 11, 71, 0
15, 26600, Note_on_c, 11, 71, 55
15, 26615, Note_on_c, 11, 71, 0
15, 26620, Note_on_c, 11, 71, 54
15, 26635, Note_on_c, 11, 71, 0
15, 26640, Note_on_c, 11, 72, 52
15, 26879, Note_on_c, 11, 72, 0
15, 26880, Note_on_c, 11, 67, 52
15, 27111, Note_on_c, 11, 67, 0
15, 27120, Note_on_c, 11, 63, 52
15, 27239, Note_on_c, 11, 63, 0
15, 27240, Note_on_c, 11, 67, 52
15, 27359, Note_on_c, 11, 67, 0
15, 27360, Note_on_c, 11, 72, 52
15, 27591, Note_on_c, 11, 72, 0
15, 27600, Note_on_c, 11, 74, 52
15, 27839, Note_on_c, 11, 74, 0
15, 27840, Note_on_c, 11, 75, 68
15, 28019, Note_on_c, 11, 75, 0
15, 28020, Note_on_c, 11, 74, 52
15, 28049, Note_on_c, 11, 74, 0
15, 28050, Note_on_c, 11, 72, 52
15, 28075, Note_on_c, 11, 72, 0
15, 28080, Note_on_c, 11, 72, 52
15, 28199, Note_on_c, 11, 72, 0
15, 28200, Note_on_c, 11, 71, 52
15, 28259, Note_on_c, 11, 71, 0
15, 28320, Note_on_c, 11, 71, 52
15, 28409, Note_on_c, 11, 71, 0
15, 29460, Note_on_c, 11, 69, 52
15, 29475, Note_on_c, 11, 69, 0
15, 29480, Note_on_c, 11, 69, 52
15, 29495, Note_on_c, 11, 69, 0
15, 29500, Note_on_c, 11, 69, 52
15, 29515, Note_on_c, 11, 69, 0
15, 29520, Note_on_c, 11, 67, 52
15, 29639, Note_on_c, 11, 67, 0
15, 29700, Note_on_c, 11, 67, 52
15, 29715, Note_on_c, 11, 67, 0
15, 29720, Note_on_c, 11, 67, 52
15, 29735, Note_on_c, 11, 67, 0
15, 29740, Note_on_c, 11, 67, 52
15, 29755, Note_on_c, 11, 67, 0
15, 29760, Note_on_c, 11, 67, 52
15, 29879, Note_on_c, 11, 67, 0
15, 29940, Note_on_c, 11, 67, 52
15, 29955, Note_on_c, 11, 67, 0
15, 29960, Note_on_c, 11, 67, 52
15, 29975, Note_on_c, 11, 67, 0
15, 29980, Note_on_c, 11, 67, 52
15, 29995, Note_on_c, 11, 67, 0
15, 30000, Note_on_c, 11, 67, 52
15, 30111, Note_on_c, 11, 67, 0
15, 30120, Note_on_c, 11, 78, 68
15, 30359, Note_on_c, 11, 78, 0
15, 30360, Note_on_c, 11, 79, 52
15, 30471, Note_on_c, 11, 79, 0
15, 30480, Note_on_c, 11, 67, 52
15, 30599, Note_on_c, 11, 67, 0
15, 30660, Note_on_c, 11, 67, 52
15, 30675, Note_on_c, 11, 67, 0
15, 30680, Note_on_c, 11, 67, 52
15, 30695, Note_on_c, 11, 67, 0
15, 30700, Note_on_c, 11, 67, 52
15, 30715, Note_on_c, 11, 67, 0
15, 30720, Note_on_c, 11, 67, 52
15, 30839, Note_on_c, 11, 67, 0
15, 30900, Note_on_c, 11, 67, 52
15, 30915, Note_on_c, 11, 67, 0
15, 30920, Note_on_c, 11, 67, 52
15, 30935, Note_on_c, 11, 67, 0
15, 30940, Note_on_c, 11, 67, 52
15, 30955, Note_on_c, 11, 67, 0
15, 30960, Note_on_c, 11, 67, 52
15, 31071, Note_on_c, 11, 67, 0
15, 31080, Note_on_c, 11, 80, 68
15, 31199, Note_on_c, 11, 80, 0
15, 31200, Note_on_c, 11, 79, 52
15, 31319, Note_on_c, 11, 79, 0
15, 31320, Note_on_c, 11, 75, 68
15, 31439, Note_on_c, 11, 75, 0
15, 31440, Note_on_c, 11, 72, 52
15, 31551, Note_on_c, 11, 72, 0
15, 31560, Note_on_c, 11, 68, 76
15, 31641, Note_on_c, 11, 68, 0
15, 31650, Note_on_c, 11, 65, 76
15, 31675, Note_on_c, 11, 65, 0
15, 31680, Note_on_c, 11, 62, 76
15, 31769, Note_on_c, 11, 62, 0
15, 31800, Note_on_c, 11, 67, 76
15, 31889, Note_on_c, 11, 67, 0
15, 31920, Note_on_c, 11, 60, 52
15, 32009, Note_on_c, 11, 60, 0
15, 32160, Note_on_c, 11, 63, 52
15, 32249, Note_on_c, 11, 63, 0
15, 32400, Note_on_c, 11, 60, 52
15, 32489, Note_on_c, 11, 60, 0
15, 32880, Note_on_c, 11, 67, 52
15, 32919, Note_on_c, 11, 67, 0
15, 32920, Note_on_c, 11, 72, 52
15, 32955, Note_on_c, 11, 72, 0
15, 32960, Note_on_c, 11, 76, 52
15, 32989, Note_on_c, 11, 76, 0
15, 33000, Note_on_c, 11, 67, 52
15, 33039, Note_on_c, 11, 67, 0
15, 33040, Note_on_c, 11, 72, 52
15, 33075, Note_on_c, 11, 72, 0
15, 33080, Note_on_c, 11, 76, 52
15, 33109, Note_on_c, 11, 76, 0
15, 33120, Note_on_c, 11, 67, 52
15, 33159, Note_on_c, 11, 67, 0
15, 33160, Note_on_c, 11, 72, 52
15, 33195, Note_on_c, 11, 72, 0
15, 33200, Note_on_c, 11, 76, 52
15, 33229, Note_on_c, 11, 76, 0
15, 33240, Note_on_c, 11, 67, 52
15, 33279, Note_on_c, 11, 67, 0
15, 33280, Note_on_c, 11, 72, 52
15, 33315, Note_on_c, 11, 72, 0
15, 33320, Note_on_c, 11, 76, 52
15, 33349, Note_on_c, 11, 76, 0
15, 33360, Note_on_c, 11, 67, 52
15, 33399, Note_on_c, 11, 67, 0
15, 33400, Note_on_c, 11, 72, 52
15, 33435, Note_on_c, 11, 72, 0
15, 33440, Note_on_c, 11, 76, 52
15, 33469, Note_on_c, 11, 76, 0
15, 33480, Note_on_c, 11, 67, 52
15, 33519, Note_on_c, 11, 67, 0
15, 33520, Note_on_c, 11, 72, 52
15, 33555, Note_on_c, 11, 72, 0
15, 33560, Note_on_c, 11, 76, 52
15, 33589, Note_on_c, 11, 76, 0
15, 33600, Note_on_c, 11, 67, 52
15, 33639, Note_on_c, 11, 67, 0
15, 33640, Note_on_c, 11, 72, 52
15, 33675, Note_on_c, 11, 72, 0
15, 33680, Note_on_c, 11, 76, 52
15, 33709, Note_on_c, 11, 76, 0
15, 33720, Note_on_c, 11, 67, 52
15, 33759, Note_on_c, 11, 67, 0
15, 33760, Note_on_c, 11, 72, 52
15, 33795, Note_on_c, 11, 72, 0
15, 33800, Note_on_c, 11, 76, 52
15, 33829, Note_on_c, 11, 76, 0
15, 33840, Note_on_c, 11, 69, 52
15, 33879, Note_on_c, 11, 69, 0
15, 33880, Note_on_c, 11, 72, 52
15, 33915, Note_on_c, 11, 72, 0
15, 33920, Note_on_c, 11, 74, 52
15, 33949, Note_on_c, 11, 74, 0
15, 33960, Note_on_c, 11, 69, 52
15, 33999, Note_on_c, 11, 69, 0
15, 34000, Note_on_c, 11, 72, 52
15, 34035, Note_on_c, 11, 72, 0
15, 34040, Note_on_c, 11, 74, 52
15, 34069, Note_on_c, 11, 74, 0
15, 34080, Note_on_c, 11, 69, 52
15, 34119, Note_on_c, 11, 69, 0
15, 34120, Note_on_c, 11, 72, 52
15, 34155, Note_on_c, 11, 72, 0
15, 34160, Note_on_c, 11, 74, 52
15, 34189, Note_on_c, 11, 74, 0
15, 34200, Note_on_c, 11, 69, 52
15, 34239, Note_on_c, 11, 69, 0
15, 34240, Note_on_c, 11, 72, 52
15, 34275, Note_on_c, 11, 72, 0
15, 34280, Note_on_c, 11, 74, 52
15, 34309, Note_on_c, 11, 74, 0
15, 34320, Note_on_c, 11, 69, 52
15, 34359, Note_on_c, 11, 69, 0
15, 34360, Note_on_c, 11, 72, 52
15, 34395, Note_on_c, 11, 72, 0
15, 34400, Note_on_c, 11, 74, 52
15, 34429, Note_on_c, 11, 74, 0
15, 34440, Note_on_c, 11, 69, 52
15, 34479, Note_on_c, 11, 69, 0
15, 34480, Note_on_c, 11, 72, 52
15, 34515, Note_on_c, 11, 72, 0
15, 34520, Note_on_c, 11, 74, 52
15, 34549, Note_on_c, 11, 74, 0
15, 34560, Note_on_c, 11, 69, 52
15, 34599, Note_on_c, 11, 69, 0
15, 34600, Note_on_c, 11, 72, 52
15, 34635, Note_on_c, 11, 72, 0
15, 34640, Note_on_c, 11, 74, 52
15, 34669, Note_on_c, 11, 74, 0
15, 34680, Note_on_c, 11, 69, 52
15, 34719, Note_on_c, 11, 69, 0
15, 34720, Note_on_c, 11, 72, 52
15, 34755, Note_on_c, 11, 72, 0
15, 34760, Note_on_c, 11, 74, 52
15, 34789, Note_on_c, 11, 74, 0
15, 34800, Note_on_c, 11, 71, 52
15, 34839, Note_on_c, 11, 71, 0
15, 34840, Note_on_c, 11, 74, 52
15, 34875, Note_on_c, 11, 74, 0
15, 34880, Note_on_c, 11, 77, 52
15, 34909, Note_on_c, 11, 77, 0
15, 34920, Note_on_c, 11, 71, 52
15, 34959, Note_on_c, 11, 71, 0
15, 34960, Note_on_c, 11, 74, 52
15, 34995, Note_on_c, 11, 74, 0
15, 35000, Note_on_c, 11, 77, 52
15, 35029, Note_on_c, 11, 77, 0
15, 35040, Note_on_c, 11, 71, 52
15, 35079, Note_on_c, 11, 71, 0
15, 35080, Note_on_c, 11, 74, 52
15, 35115, Note_on_c, 11, 74, 0
15, 35120, Note_on_c, 11, 77, 52
15, 35149, Note_on_c, 11, 77, 0
15, 35160, Note_on_c, 11, 71, 52
15, 35199, Note_on_c, 11, 71, 0
15, 35200, Note_on_c, 11, 74, 52
15, 35235, Note_on_c, 11, 74, 0
15, 35240, Note_on_c, 11, 77, 52
15, 35269, Note_on_c, 11, 77, 0
15, 35280, Note_on_c, 11, 71, 52
15, 35319, Note_on_c, 11, 71, 0
15, 35320, Note_on_c, 11, 74, 52
15, 35355, Note_on_c, 11, 74, 0
15, 35360, Note_on_c, 11, 77, 52
15, 35389, Note_on_c, 11, 77, 0
15, 35400, Note_on_c, 11, 71, 52
15, 35439, Note_on_c, 11, 71, 0
15, 35440, Note_on_c, 11, 74, 53
15, 35475, Note_on_c, 11, 74, 0
15, 35480, Note_on_c, 11, 77, 55
15, 35509, Note_on_c, 11, 77, 0
15, 35520, Note_on_c, 11, 71, 56
15, 35559, Note_on_c, 11, 71, 0
15, 35560, Note_on_c, 11, 74, 58
15, 35595, Note_on_c, 11, 74, 0
15, 35600, Note_on_c, 11, 77, 59
15, 35629, Note_on_c, 11, 77, 0
15, 35640, Note_on_c, 11, 71, 61
15, 35679, Note_on_c, 11, 71, 0
15, 35680, Note_on_c, 11, 74, 62
15, 35715, Note_on_c, 11, 74, 0
15, 35720, Note_on_c, 11, 76, 64
15, 35749, Note_on_c, 11, 76, 0
15, 35760, Note_on_c, 11, 69, 65
15, 35799, Note_on_c, 11, 69, 0
15, 35800, Note_on_c, 11, 72, 67
15, 35835, Note_on_c, 11, 72, 0
15, 35840, Note_on_c, 11, 76, 68
15, 35869, Note_on_c, 11, 76, 0
15, 35880, Note_on_c, 11, 64, 70
15, 35919, Note_on_c, 11, 64, 0
15, 35920, Note_on_c, 11, 69, 71
15, 35955, Note_on_c, 11, 69, 0
15, 35960, Note_on_c, 11, 72, 73
15, 35989, Note_on_c, 11, 72, 0
15, 36000, Note_on_c, 11, 62, 74
15, 36039, Note_on_c, 11, 62, 0
15, 36040, Note_on_c, 11, 67, 76
15, 36075, Note_on_c, 11, 67, 0
15, 36080, Note_on_c, 11, 71, 77
15, 36109, Note_on_c, 11, 71, 0
15, 36120, Note_on_c, 11, 62, 79
15, 36159, Note_on_c, 11, 62, 0
15, 36160, Note_on_c, 11, 66, 80
15, 36195, Note_on_c, 11, 66, 0
15, 36200, Note_on_c, 11, 69, 82
15, 36229, Note_on_c, 11, 69, 0
15, 36240, Note_on_c, 11, 67, 84
15, 36259, Note_on_c, 11, 67, 0
15, 36260, Note_on_c, 11, 79, 84
15, 36279, Note_on_c, 11, 79, 0
15, 36280, Note_on_c, 11, 79, 84
15, 36299, Note_on_c, 11, 79, 0
15, 36300, Note_on_c, 11, 79, 84
15, 36319, Note_on_c, 11, 79, 0
15, 36320, Note_on_c, 11, 79, 84
15, 36339, Note_on_c, 11, 79, 0
15, 36340, Note_on_c, 11, 79, 84
15, 36359, Note_on_c, 11, 79, 0
15, 36360, Note_on_c, 11, 79, 84
15, 36379, Note_on_c, 11, 79, 0
15, 36380, Note_on_c, 11, 79, 84
15, 36399, Note_on_c, 11, 79, 0
15, 36400, Note_on_c, 11, 79, 84
15, 36419, Note_on_c, 11, 79, 0
15, 36420, Note_on_c, 11, 79, 84
15, 36439, Note_on_c, 11, 79, 0
15, 36440, Note_on_c, 11, 79, 84
15, 36459, Note_on_c, 11, 79, 0
15, 36460, Note_on_c, 11, 79, 84
15, 36479, Note_on_c, 11, 79, 0
15, 36480, Note_on_c, 11, 79, 84
15, 36569, Note_on_c, 11, 79, 0
15, 36720, Note_on_c, 11, 67, 84
15, 36739, Note_on_c, 11, 67, 0
15, 36740, Note_on_c, 11, 79, 84
15, 36759, Note_on_c, 11, 79, 0
15, 36760, Note_on_c, 11, 79, 84
15, 36779, Note_on_c, 11, 79, 0
15, 36780, Note_on_c, 11, 79, 84
15, 36799, Note_on_c, 11, 79, 0
15, 36800, Note_on_c, 11, 79, 84
15, 36819, Note_on_c, 11, 79, 0
15, 36820, Note_on_c, 11, 79, 84
15, 36839, Note_on_c, 11, 79, 0
15, 36840, Note_on_c, 11, 79, 84
15, 36859, Note_on_c, 11, 79, 0
15, 36860, Note_on_c, 11, 79, 84
15, 36879, Note_on_c, 11, 79, 0
15, 36880, Note_on_c, 11, 79, 84
15, 36899, Note_on_c, 11, 79, 0
15, 36900, Note_on_c, 11, 79, 84
15, 36919, Note_on_c, 11, 79, 0
15, 36920, Note_on_c, 11, 79, 84
15, 36939, Note_on_c, 11, 79, 0
15, 36940, Note_on_c, 11, 79, 84
15, 36959, Note_on_c, 11, 79, 0
15, 36960, Note_on_c, 11, 79, 84
15, 37049, Note_on_c, 11, 79, 0
15, 37200, Note_on_c, 11, 79, 84
15, 37200, Note_on_c, 11, 62, 84
15, 37200, Note_on_c, 11, 55, 84
15, 37200, Note_on_c, 11, 71, 84
15, 37289, Note_on_c, 11, 79, 0
15, 37289, Note_on_c, 11, 62, 0
15, 37289, Note_on_c, 11, 55, 0
15, 37289, Note_on_c, 11, 71, 0
15, 37440, Note_on_c, 11, 55, 84
15, 37440, Note_on_c, 11, 62, 84
15, 37440, Note_on_c, 11, 79, 84
15, 37440, Note_on_c, 11, 71, 84
15, 37529, Note_on_c, 11, 55, 0
15, 37529, Note_on_c, 11, 62, 0
15, 37529, Note_on_c, 11, 79, 0
15, 37529, Note_on_c, 11, 71, 0
15, 37680, Note_on_c, 11, 79, 92
15, 37680, Note_on_c, 11, 55, 92
15, 37680, Note_on_c, 11, 62, 92
15, 37680, Note_on_c, 11, 71, 92
15, 37800, Control_c, 11, 11, 112
15, 37815, Control_c, 11, 11, 110
15, 37830, Control_c, 11, 11, 108
15, 37845, Control_c, 11, 11, 106
15, 37860, Control_c, 11, 11, 104
15, 37875, Control_c, 11, 11, 102
15, 37889, Note_on_c, 11, 79, 0
15, 37889, Note_on_c, 11, 55, 0
15, 37889, Note_on_c, 11, 62, 0
15, 37889, Note_on_c, 11, 71, 0
15, 37890, Control_c, 11, 11, 100
15, 37905, Control_c, 11, 11, 98
15, 37920, Control_c, 11, 11, 96
15, 37920, Note_on_c, 11, 77, 84
15, 37935, Control_c, 11, 11, 94
15, 37950, Control_c, 11, 11, 92
15, 37965, Control_c, 11, 11, 90
15, 37979, Note_on_c, 11, 77, 0
15, 37980, Control_c, 11, 11, 88
15, 37980, Note_on_c, 11, 76, 84
15, 37995, Control_c, 11, 11, 86
15, 38010, Control_c, 11, 11, 84
15, 38025, Control_c, 11, 11, 82
15, 38039, Note_on_c, 11, 76, 0
15, 38040, Control_c, 11, 11, 80
15, 38040, Note_on_c, 11, 77, 84
15, 38055, Control_c, 11, 11, 78
15, 38070, Control_c, 11, 11, 76
15, 38085, Control_c, 11, 11, 74
15, 38099, Note_on_c, 11, 77, 0
15, 38100, Control_c, 11, 11, 72
15, 38100, Note_on_c, 11, 74, 84
15, 38115, Control_c, 11, 11, 70
15, 38130, Control_c, 11, 11, 68
15, 38151, Note_on_c, 11, 74, 0
15, 38158, Control_c, 11, 11, 80
15, 38160, Note_on_c, 11, 72, 76
15, 38399, Note_on_c, 11, 72, 0
15, 38400, Note_on_c, 11, 76, 76
15, 38519, Note_on_c, 11, 76, 0
15, 38520, Note_on_c, 11, 79, 76
15, 38624, Note_on_c, 11, 79, 0
15, 38632, Control_c, 11, 11, 96
15, 38640, Note_on_c, 11, 82, 68
15, 38999, Note_on_c, 11, 82, 0
15, 39000, Note_on_c, 11, 76, 68
15, 39111, Note_on_c, 11, 76, 0
15, 39120, Control_c, 11, 11, 96
15, 39120, Note_on_c, 11, 77, 68
15, 39160, Control_c, 11, 11, 97
15, 39200, Control_c, 11, 11, 99
15, 39239, Note_on_c, 11, 77, 0
15, 39240, Note_on_c, 11, 81, 68
15, 39240, Control_c, 11, 11, 100
15, 39280, Control_c, 11, 11, 101
15, 39320, Control_c, 11, 11, 102
15, 39359, Note_on_c, 11, 81, 0
15, 39360, Control_c, 11, 11, 104
15, 39360, Note_on_c, 11, 82, 68
15, 39400, Control_c, 11, 11, 105
15, 39440, Control_c, 11, 11, 106
15, 39479, Note_on_c, 11, 82, 0
15, 39480, Note_on_c, 11, 76, 68
15, 39480, Control_c, 11, 11, 108
15, 39520, Control_c, 11, 11, 109
15, 39560, Control_c, 11, 11, 110
15, 39591, Note_on_c, 11, 76, 0
15, 39600, Note_on_c, 11, 77, 68
15, 39600, Control_c, 11, 11, 112
15, 39640, Control_c, 11, 11, 113
15, 39680, Control_c, 11, 11, 114
15, 39719, Note_on_c, 11, 77, 0
15, 39720, Note_on_c, 11, 81, 68
15, 39720, Control_c, 11, 11, 115
15, 39760, Control_c, 11, 11, 117
15, 39800, Control_c, 11, 11, 118
15, 39839, Note_on_c, 11, 81, 0
15, 39840, Control_c, 11, 11, 119
15, 39840, Note_on_c, 11, 82, 68
15, 39880, Control_c, 11, 11, 121
15, 39920, Control_c, 11, 11, 122
15, 39959, Note_on_c, 11, 82, 0
15, 39960, Note_on_c, 11, 76, 68
15, 39960, Control_c, 11, 11, 123
15, 40000, Control_c, 11, 11, 124
15, 40040, Control_c, 11, 11, 127
15, 40071, Note_on_c, 11, 76, 0
15, 40080, Note_on_c, 11, 77, 52
15, 40109, Note_on_c, 11, 77, 0
15, 40120, Note_on_c, 11, 80, 52
15, 40159, Note_on_c, 11, 80, 0
15, 40160, Note_on_c, 11, 81, 52
15, 40199, Note_on_c, 11, 81, 0
15, 40240, Note_on_c, 11, 81, 52
15, 40279, Note_on_c, 11, 81, 0
15, 40280, Note_on_c, 11, 79, 52
15, 40319, Note_on_c, 11, 79, 0
15, 40360, Note_on_c, 11, 79, 52
15, 40399, Note_on_c, 11, 79, 0
15, 40400, Note_on_c, 11, 77, 52
15, 40439, Note_on_c, 11, 77, 0
15, 40480, Note_on_c, 11, 77, 52
15, 40519, Note_on_c, 11, 77, 0
15, 40520, Note_on_c, 11, 76, 52
15, 40559, Note_on_c, 11, 76, 0
15, 40600, Note_on_c, 11, 76, 52
15, 40629, Note_on_c, 11, 76, 0
15, 40640, Note_on_c, 11, 74, 52
15, 40669, Note_on_c, 11, 74, 0
15, 40720, Note_on_c, 11, 74, 52
15, 40749, Note_on_c, 11, 74, 0
15, 40760, Note_on_c, 11, 73, 52
15, 40789, Note_on_c, 11, 73, 0
15, 40840, Note_on_c, 11, 73, 52
15, 40869, Note_on_c, 11, 73, 0
15, 40880, Note_on_c, 11, 74, 52
15, 40909, Note_on_c, 11, 74, 0
15, 40960, Note_on_c, 11, 74, 52
15, 40989, Note_on_c, 11, 74, 0
15, 41000, Note_on_c, 11, 72, 52
15, 41029, Note_on_c, 11, 72, 0
15, 41040, Note_on_c, 11, 71, 52
15, 41069, Note_on_c, 11, 71, 0
15, 41080, Note_on_c, 11, 71, 52
15, 41109, Note_on_c, 11, 71, 0
15, 41120, Note_on_c, 11, 74, 52
15, 41149, Note_on_c, 11, 74, 0
15, 41160, Note_on_c, 11, 79, 52
15, 41189, Note_on_c, 11, 79, 0
15, 41200, Note_on_c, 11, 81, 52
15, 41229, Note_on_c, 11, 81, 0
15, 41240, Note_on_c, 11, 83, 52
15, 41269, Note_on_c, 11, 83, 0
15, 41280, Note_on_c, 11, 84, 52
15, 41369, Note_on_c, 11, 84, 0
15, 41480, Note_on_c, 11, 72, 52
15, 41515, Note_on_c, 11, 72, 0
15, 41520, Note_on_c, 11, 67, 52
15, 41555, Note_on_c, 11, 67, 0
15, 41560, Note_on_c, 11, 71, 52
15, 41595, Note_on_c, 11, 71, 0
15, 41600, Note_on_c, 11, 74, 52
15, 41635, Note_on_c, 11, 74, 0
15, 41640, Note_on_c, 11, 79, 52
15, 41675, Note_on_c, 11, 79, 0
15, 41680, Note_on_c, 11, 81, 52
15, 41715, Note_on_c, 11, 81, 0
15, 41720, Note_on_c, 11, 83, 52
15, 41755, Note_on_c, 11, 83, 0
15, 41760, Note_on_c, 11, 84, 52
15, 41795, Note_on_c, 11, 84, 0
15, 41800, Note_on_c, 11, 79, 52
15, 41835, Note_on_c, 11, 79, 0
15, 41840, Note_on_c, 11, 76, 52
15, 41875, Note_on_c, 11, 76, 0
15, 41880, Note_on_c, 11, 79, 52
15, 41915, Note_on_c, 11, 79, 0
15, 41920, Note_on_c, 11, 76, 52
15, 41955, Note_on_c, 11, 76, 0
15, 41960, Note_on_c, 11, 72, 52
15, 41995, Note_on_c, 11, 72, 0
15, 42000, Note_on_c, 11, 67, 52
15, 42035, Note_on_c, 11, 67, 0
15, 42040, Note_on_c, 11, 67, 52
15, 42075, Note_on_c, 11, 67, 0
15, 42080, Note_on_c, 11, 67, 52
15, 42115, Note_on_c, 11, 67, 0
15, 42120, Note_on_c, 11, 67, 52
15, 42155, Note_on_c, 11, 67, 0
15, 42160, Note_on_c, 11, 67, 52
15, 42195, Note_on_c, 11, 67, 0
15, 42200, Note_on_c, 11, 67, 52
15, 42235, Note_on_c, 11, 67, 0
15, 42240, Note_on_c, 11, 67, 52
15, 42275, Note_on_c, 11, 67, 0
15, 42280, Note_on_c, 11, 67, 52
15, 42315, Note_on_c, 11, 67, 0
15, 42320, Note_on_c, 11, 67, 52
15, 42355, Note_on_c, 11, 67, 0
15, 42360, Note_on_c, 11, 67, 52
15, 42395, Note_on_c, 11, 67, 0
15, 42400, Note_on_c, 11, 67, 52
15, 42435, Note_on_c, 11, 67, 0
15, 42440, Note_on_c, 11, 67, 52
15, 42475, Note_on_c, 11, 67, 0
15, 42480, Note_on_c, 11, 77, 52
15, 42509, Note_on_c, 11, 77, 0
15, 42520, Note_on_c, 11, 76, 52
15, 42549, Note_on_c, 11, 76, 0
15, 42560, Note_on_c, 11, 77, 52
15, 42589, Note_on_c, 11, 77, 0
15, 42600, Note_on_c, 11, 74, 52
15, 42629, Note_on_c, 11, 74, 0
15, 42640, Note_on_c, 11, 73, 52
15, 42669, Note_on_c, 11, 73, 0
15, 42680, Note_on_c, 11, 74, 52
15, 42709, Note_on_c, 11, 74, 0
15, 42720, Note_on_c, 11, 71, 52
15, 42749, Note_on_c, 11, 71, 0
15, 42760, Note_on_c, 11, 70, 52
15, 42789, Note_on_c, 11, 70, 0
15, 42800, Note_on_c, 11, 71, 52
15, 42829, Note_on_c, 11, 71, 0
15, 42840, Note_on_c, 11, 65, 52
15, 42869, Note_on_c, 11, 65, 0
15, 42880, Note_on_c, 11, 64, 52
15, 42909, Note_on_c, 11, 64, 0
15, 42920, Note_on_c, 11, 65, 52
15, 42949, Note_on_c, 11, 65, 0
15, 42960, Note_on_c, 11, 64, 52
15, 42999, Note_on_c, 11, 64, 0
15, 43000, Note_on_c, 11, 67, 52
15, 43035, Note_on_c, 11, 67, 0
15, 43040, Note_on_c, 11, 72, 52
15, 43069, Note_on_c, 11, 72, 0
15, 43080, Note_on_c, 11, 64, 52
15, 43119, Note_on_c, 11, 64, 0
15, 43120, Note_on_c, 11, 67, 52
15, 43155, Note_on_c, 11, 67, 0
15, 43160, Note_on_c, 11, 72, 52
15, 43189, Note_on_c, 11, 72, 0
15, 43200, Note_on_c, 11, 64, 52
15, 43239, Note_on_c, 11, 64, 0
15, 43240, Note_on_c, 11, 67, 52
15, 43275, Note_on_c, 11, 67, 0
15, 43280, Note_on_c, 11, 72, 52
15, 43309, Note_on_c, 11, 72, 0
15, 43320, Note_on_c, 11, 64, 52
15, 43359, Note_on_c, 11, 64, 0
15, 43360, Note_on_c, 11, 67, 52
15, 43395, Note_on_c, 11, 67, 0
15, 43400, Note_on_c, 11, 72, 52
15, 43429, Note_on_c, 11, 72, 0
15, 43440, Note_on_c, 11, 67, 52
15, 43479, Note_on_c, 11, 67, 0
15, 43480, Note_on_c, 11, 72, 52
15, 43515, Note_on_c, 11, 72, 0
15, 43520, Note_on_c, 11, 76, 52
15, 43549, Note_on_c, 11, 76, 0
15, 43560, Note_on_c, 11, 67, 52
15, 43599, Note_on_c, 11, 67, 0
15, 43600, Note_on_c, 11, 72, 52
15, 43635, Note_on_c, 11, 72, 0
15, 43640, Note_on_c, 11, 76, 52
15, 43669, Note_on_c, 11, 76, 0
15, 43680, Note_on_c, 11, 67, 52
15, 43719, Note_on_c, 11, 67, 0
15, 43720, Note_on_c, 11, 72, 52
15, 43755, Note_on_c, 11, 72, 0
15, 43760, Note_on_c, 11, 76, 52
15, 43789, Note_on_c, 11, 76, 0
15, 43800, Note_on_c, 11, 67, 52
15, 43839, Note_on_c, 11, 67, 0
15, 43840, Note_on_c, 11, 72, 52
15, 43875, Note_on_c, 11, 72, 0
15, 43880, Note_on_c, 11, 76, 52
15, 43909, Note_on_c, 11, 76, 0
15, 43920, Note_on_c, 11, 77, 52
15, 43959, Note_on_c, 11, 77, 0
15, 43960, Note_on_c, 11, 72, 52
15, 43995, Note_on_c, 11, 72, 0
15, 44000, Note_on_c, 11, 69, 53
15, 44029, Note_on_c, 11, 69, 0
15, 44040, Note_on_c, 11, 77, 53
15, 44079, Note_on_c, 11, 77, 0
15, 44080, Note_on_c, 11, 72, 54
15, 44115, Note_on_c, 11, 72, 0
15, 44120, Note_on_c, 11, 69, 54
15, 44149, Note_on_c, 11, 69, 0
15, 44160, Note_on_c, 11, 77, 55
15, 44199, Note_on_c, 11, 77, 0
15, 44200, Note_on_c, 11, 72, 55
15, 44235, Note_on_c, 11, 72, 0
15, 44240, Note_on_c, 11, 69, 56
15, 44269, Note_on_c, 11, 69, 0
15, 44280, Note_on_c, 11, 77, 56
15, 44319, Note_on_c, 11, 77, 0
15, 44320, Note_on_c, 11, 72, 57
15, 44355, Note_on_c, 11, 72, 0
15, 44360, Note_on_c, 11, 69, 57
15, 44389, Note_on_c, 11, 69, 0
15, 44400, Note_on_c, 11, 81, 58
15, 44439, Note_on_c, 11, 81, 0
15, 44440, Note_on_c, 11, 77, 58
15, 44475, Note_on_c, 11, 77, 0
15, 44480, Note_on_c, 11, 72, 59
15, 44509, Note_on_c, 11, 72, 0
15, 44520, Note_on_c, 11, 81, 59
15, 44559, Note_on_c, 11, 81, 0
15, 44560, Note_on_c, 11, 77, 60
15, 44595, Note_on_c, 11, 77, 0
15, 44600, Note_on_c, 11, 72, 60
15, 44629, Note_on_c, 11, 72, 0
15, 44640, Note_on_c, 11, 81, 61
15, 44679, Note_on_c, 11, 81, 0
15, 44680, Note_on_c, 11, 77, 61
15, 44715, Note_on_c, 11, 77, 0
15, 44720, Note_on_c, 11, 72, 62
15, 44749, Note_on_c, 11, 72, 0
15, 44760, Note_on_c, 11, 81, 62
15, 44799, Note_on_c, 11, 81, 0
15, 44800, Note_on_c, 11, 77, 63
15, 44835, Note_on_c, 11, 77, 0
15, 44840, Note_on_c, 11, 72, 63
15, 44869, Note_on_c, 11, 72, 0
15, 44880, Note_on_c, 11, 79, 64
15, 44919, Note_on_c, 11, 79, 0
15, 44920, Note_on_c, 11, 76, 64
15, 44955, Note_on_c, 11, 76, 0
15, 44960, Note_on_c, 11, 72, 65
15, 44989, Note_on_c, 11, 72, 0
15, 45000, Note_on_c, 11, 79, 65
15, 45039, Note_on_c, 11, 79, 0
15, 45040, Note_on_c, 11, 76, 66
15, 45075, Note_on_c, 11, 76, 0
15, 45080, Note_on_c, 11, 72, 66
15, 45109, Note_on_c, 11, 72, 0
15, 45120, Note_on_c, 11, 79, 67
15, 45159, Note_on_c, 11, 79, 0
15, 45160, Note_on_c, 11, 74, 67
15, 45195, Note_on_c, 11, 74, 0
15, 45200, Note_on_c, 11, 71, 68
15, 45229, Note_on_c, 11, 71, 0
15, 45240, Note_on_c, 11, 79, 68
15, 45279, Note_on_c, 11, 79, 0
15, 45280, Note_on_c, 11, 74, 69
15, 45315, Note_on_c, 11, 74, 0
15, 45320, Note_on_c, 11, 71, 69
15, 45349, Note_on_c, 11, 71, 0
15, 45360, Note_on_c, 11, 79, 70
15, 45399, Note_on_c, 11, 79, 0
15, 45400, Note_on_c, 11, 76, 70
15, 45435, Note_on_c, 11, 76, 0
15, 45440, Note_on_c, 11, 72, 71
15, 45469, Note_on_c, 11, 72, 0
15, 45480, Note_on_c, 11, 79, 71
15, 45519, Note_on_c, 11, 79, 0
15, 45520, Note_on_c, 11, 76, 72
15, 45555, Note_on_c, 11, 76, 0
15, 45560, Note_on_c, 11, 72, 72
15, 45589, Note_on_c, 11, 72, 0
15, 45600, Note_on_c, 11, 81, 73
15, 45639, Note_on_c, 11, 81, 0
15, 45640, Note_on_c, 11, 77, 73
15, 45675, Note_on_c, 11, 77, 0
15, 45680, Note_on_c, 11, 72, 74
15, 45709, Note_on_c, 11, 72, 0
15, 45720, Note_on_c, 11, 81, 74
15, 45759, Note_on_c, 11, 81, 0
15, 45760, Note_on_c, 11, 77, 75
15, 45795, Note_on_c, 11, 77, 0
15, 45800, Note_on_c, 11, 72, 75
15, 45829, Note_on_c, 11, 72, 0
15, 45840, Note_on_c, 11, 72, 76
15, 45875, Note_on_c, 11, 72, 0
15, 45880, Note_on_c, 11, 84, 76
15, 45880, Note_on_c, 11, 76, 76
15, 45915, Note_on_c, 11, 84, 0
15, 45915, Note_on_c, 11, 76, 0
15, 45920, Note_on_c, 11, 76, 76
15, 45920, Note_on_c, 11, 84, 76
15, 45955, Note_on_c, 11, 76, 0
15, 45955, Note_on_c, 11, 84, 0
15, 45960, Note_on_c, 11, 76, 77
15, 45960, Note_on_c, 11, 84, 77
15, 45995, Note_on_c, 11, 76, 0
15, 45995, Note_on_c, 11, 84, 0
15, 46000, Note_on_c, 11, 84, 77
15, 46000, Note_on_c, 11, 76, 77
15, 46035, Note_on_c, 11, 84, 0
15, 46035, Note_on_c, 11, 76, 0
15, 46040, Note_on_c, 11, 76, 77
15, 46040, Note_on_c, 11, 84, 77
15, 46075, Note_on_c, 11, 76, 0
15, 46075, Note_on_c, 11, 84, 0
15, 46080, Note_on_c, 11, 84, 78
15, 46080, Note_on_c, 11, 76, 78
15, 46115, Note_on_c, 11, 84, 0
15, 46115, Note_on_c, 11, 76, 0
15, 46120, Note_on_c, 11, 84, 78
15, 46120, Note_on_c, 11, 76, 78
15, 46155, Note_on_c, 11, 84, 0
15, 46155, Note_on_c, 11, 76, 0
15, 46160, Note_on_c, 11, 76, 78
15, 46160, Note_on_c, 11, 84, 78
15, 46195, Note_on_c, 11, 76, 0
15, 46195, Note_on_c, 11, 84, 0
15, 46200, Note_on_c, 11, 76, 79
15, 46200, Note_on_c, 11, 84, 79
15, 46235, Note_on_c, 11, 76, 0
15, 46235, Note_on_c, 11, 84, 0
15, 46240, Note_on_c, 11, 84, 79
15, 46240, Note_on_c, 11, 76, 79
15, 46275, Note_on_c, 11, 84, 0
15, 46275, Note_on_c, 11, 76, 0
15, 46280, Note_on_c, 11, 84, 79
15, 46280, Note_on_c, 11, 76, 79
15, 46315, Note_on_c, 11, 84, 0
15, 46315, Note_on_c, 11, 76, 0
15, 46320, Note_on_c, 11, 83, 80
15, 46320, Note_on_c, 11, 74, 80
15, 46355, Note_on_c, 11, 83, 0
15, 46355, Note_on_c, 11, 74, 0
15, 46360, Note_on_c, 11, 83, 80
15, 46360, Note_on_c, 11, 74, 80
15, 46395, Note_on_c, 11, 83, 0
15, 46395, Note_on_c, 11, 74, 0
15, 46400, Note_on_c, 11, 83, 80
15, 46400, Note_on_c, 11, 74, 80
15, 46435, Note_on_c, 11, 83, 0
15, 46435, Note_on_c, 11, 74, 0
15, 46440, Note_on_c, 11, 74, 81
15, 46440, Note_on_c, 11, 83, 81
15, 46475, Note_on_c, 11, 74, 0
15, 46475, Note_on_c, 11, 83, 0
15, 46480, Note_on_c, 11, 74, 81
15, 46480, Note_on_c, 11, 83, 81
15, 46515, Note_on_c, 11, 74, 0
15, 46515, Note_on_c, 11, 83, 0
15, 46520, Note_on_c, 11, 74, 81
15, 46520, Note_on_c, 11, 83, 81
15, 46555, Note_on_c, 11, 74, 0
15, 46555, Note_on_c, 11, 83, 0
15, 46560, Note_on_c, 11, 83, 82
15, 46560, Note_on_c, 11, 74, 82
15, 46595, Note_on_c, 11, 83, 0
15, 46595, Note_on_c, 11, 74, 0
15, 46600, Note_on_c, 11, 74, 82
15, 46600, Note_on_c, 11, 83, 82
15, 46635, Note_on_c, 11, 74, 0
15, 46635, Note_on_c, 11, 83, 0
15, 46640, Note_on_c, 11, 74, 82
15, 46640, Note_on_c, 11, 83, 82
15, 46675, Note_on_c, 11, 74, 0
15, 46675, Note_on_c, 11, 83, 0
15, 46680, Note_on_c, 11, 83, 83
15, 46680, Note_on_c, 11, 74, 83
15, 46715, Note_on_c, 11, 83, 0
15, 46715, Note_on_c, 11, 74, 0
15, 46720, Note_on_c, 11, 83, 83
15, 46720, Note_on_c, 11, 74, 83
15, 46755, Note_on_c, 11, 83, 0
15, 46755, Note_on_c, 11, 74, 0
15, 46760, Note_on_c, 11, 83, 83
15, 46760, Note_on_c, 11, 74, 83
15, 46795, Note_on_c, 11, 83, 0
15, 46795, Note_on_c, 11, 74, 0
15, 46800, Note_on_c, 11, 76, 84
15, 46800, Note_on_c, 11, 84, 84
15, 46819, Note_on_c, 11, 76, 0
15, 46819, Note_on_c, 11, 84, 0
15, 46820, Note_on_c, 11, 76, 84
15, 46820, Note_on_c, 11, 84, 84
15, 46839, Note_on_c, 11, 76, 0
15, 46839, Note_on_c, 11, 84, 0
15, 46840, Note_on_c, 11, 76, 84
15, 46840, Note_on_c, 11, 84, 84
15, 46859, Note_on_c, 11, 76, 0
15, 46859, Note_on_c, 11, 84, 0
15, 46860, Note_on_c, 11, 84, 84
15, 46860, Note_on_c, 11, 76, 84
15, 46879, Note_on_c, 11, 84, 0
15, 46879, Note_on_c, 11, 76, 0
15, 46880, Note_on_c, 11, 76, 84
15, 46880, Note_on_c, 11, 84, 84
15, 46899, Note_on_c, 11, 76, 0
15, 46899, Note_on_c, 11, 84, 0
15, 46900, Note_on_c, 11, 76, 84
15, 46900, Note_on_c, 11, 84, 84
15, 46919, Note_on_c, 11, 76, 0
15, 46919, Note_on_c, 11, 84, 0
15, 46920, Note_on_c, 11, 84, 84
15, 46920, Note_on_c, 11, 76, 84
15, 46939, Note_on_c, 11, 84, 0
15, 46939, Note_on_c, 11, 76, 0
15, 46940, Note_on_c, 11, 84, 84
15, 46940, Note_on_c, 11, 76, 84
15, 46959, Note_on_c, 11, 84, 0
15, 46959, Note_on_c, 11, 76, 0
15, 46960, Note_on_c, 11, 84, 84
15, 46960, Note_on_c, 11, 76, 84
15, 46979, Note_on_c, 11, 84, 0
15, 46979, Note_on_c, 11, 76, 0
15, 46980, Note_on_c, 11, 84, 84
15, 46980, Note_on_c, 11, 76, 84
15, 46999, Note_on_c, 11, 84, 0
15, 46999, Note_on_c, 11, 76, 0
15, 47000, Note_on_c, 11, 84, 84
15, 47000, Note_on_c, 11, 76, 84
15, 47019, Note_on_c, 11, 84, 0
15, 47019, Note_on_c, 11, 76, 0
15, 47020, Note_on_c, 11, 76, 84
15, 47020, Note_on_c, 11, 84, 84
15, 47039, Note_on_c, 11, 76, 0
15, 47039, Note_on_c, 11, 84, 0
15, 47040, Note_on_c, 11, 84, 84
15, 47040, Note_on_c, 11, 76, 84
15, 47129, Note_on_c, 11, 84, 0
15, 47129, Note_on_c, 11, 76, 0
15, 47280, Note_on_c, 11, 84, 84
15, 47280, Note_on_c, 11, 76, 84
15, 47299, Note_on_c, 11, 84, 0
15, 47299, Note_on_c, 11, 76, 0
15, 47300, Note_on_c, 11, 76, 84
15, 47300, Note_on_c, 11, 84, 84
15, 47319, Note_on_c, 11, 76, 0
15, 47319, Note_on_c, 11, 84, 0
15, 47320, Note_on_c, 11, 84, 84
15, 47320, Note_on_c, 11, 76, 84
15, 47339, Note_on_c, 11, 84, 0
15, 47339, Note_on_c, 11, 76, 0
15, 47340, Note_on_c, 11, 84, 84
15, 47340, Note_on_c, 11, 76, 84
15, 47359, Note_on_c, 11, 84, 0
15, 47359, Note_on_c, 11, 76, 0
15, 47360, Note_on_c, 11, 84, 84
15, 47360, Note_on_c, 11, 76, 84
15, 47379, Note_on_c, 11, 84, 0
15, 47379, Note_on_c, 11, 76, 0
15, 47380, Note_on_c, 11, 76, 84
15, 47380, Note_on_c, 11, 84, 84
15, 47399, Note_on_c, 11, 76, 0
15, 47399, Note_on_c, 11, 84, 0
15, 47400, Note_on_c, 11, 84, 84
15, 47400, Note_on_c, 11, 76, 84
15, 47419, Note_on_c, 11, 84, 0
15, 47419, Note_on_c, 11, 76, 0
15, 47420, Note_on_c, 11, 84, 84
15, 47420, Note_on_c, 11, 76, 84
15, 47439, Note_on_c, 11, 84, 0
15, 47439, Note_on_c, 11, 76, 0
15, 47440, Note_on_c, 11, 76, 84
15, 47440, Note_on_c, 11, 84, 84
15, 47459, Note_on_c, 11, 76, 0
15, 47459, Note_on_c, 11, 84, 0
15, 47460, Note_on_c, 11, 84, 84
15, 47460, Note_on_c, 11, 76, 84
15, 47479, Note_on_c, 11, 84, 0
15, 47479, Note_on_c, 11, 76, 0
15, 47480, Note_on_c, 11, 84, 84
15, 47480, Note_on_c, 11, 76, 84
15, 47499, Note_on_c, 11, 84, 0
15, 47499, Note_on_c, 11, 76, 0
15, 47500, Note_on_c, 11, 76, 84
15, 47500, Note_on_c, 11, 84, 84
15, 47519, Note_on_c, 11, 76, 0
15, 47519, Note_on_c, 11, 84, 0
15, 47520, Note_on_c, 11, 84, 84
15, 47520, Note_on_c, 11, 76, 84
15, 47609, Note_on_c, 11, 84, 0
15, 47609, Note_on_c, 11, 76, 0
15, 47760, Note_on_c, 11, 84, 84
15, 47760, Note_on_c, 11, 67, 84
15, 47760, Note_on_c, 11, 60, 84
15, 47760, Note_on_c, 11, 76, 84
15, 47849, Note_on_c, 11, 84, 0
15, 47849, Note_on_c, 11, 67, 0
15, 47849, Note_on_c, 11, 60, 0
15, 47849, Note_on_c, 11, 76, 0
15, 48000, Note_on_c, 11, 84, 84
15, 48000, Note_on_c, 11, 76, 84
15, 48000, Note_on_c, 11, 60, 84
15, 48000, Note_on_c, 11, 67, 84
15, 48089, Note_on_c, 11, 84, 0
15, 48089, Note_on_c, 11, 76, 0
15, 48089, Note_on_c, 11, 60, 0
15, 48089, Note_on_c, 11, 67, 0
15, 48240, Note_on_c, 11, 84, 76
15, 48269, Note_on_c, 11, 84, 0
15, 48270, Note_on_c, 11, 84, 52
15, 48719, Note_on_c, 11, 84, 0
15, 48720, Note_on_c, 11, 80, 52
15, 49079, Note_on_c, 11, 80, 0
15, 49080, Note_on_c, 11, 77, 52
15, 49184, Note_on_c, 11, 77, 0
15, 49192, Control_c, 11, 11, 96
15, 49200, Note_on_c, 11, 73, 68
15, 49319, Note_on_c, 11, 73, 0
15, 49320, Control_c, 11, 11, 96
15, 49320, Note_on_c, 11, 68, 68
15, 49340, Control_c, 11, 11, 98
15, 49360, Control_c, 11, 11, 99
15, 49380, Control_c, 11, 11, 101
15, 49400, Control_c, 11, 11, 103
15, 49409, Note_on_c, 11, 68, 0
15, 49410, Note_on_c, 11, 65, 68
15, 49420, Control_c, 11, 11, 105
15, 49435, Note_on_c, 11, 65, 0
15, 49440, Control_c, 11, 11, 106
15, 49440, Note_on_c, 11, 61, 68
15, 49460, Control_c, 11, 11, 108
15, 49480, Control_c, 11, 11, 110
15, 49500, Control_c, 11, 11, 112
15, 49520, Control_c, 11, 11, 113
15, 49529, Note_on_c, 11, 61, 0
15, 49540, Control_c, 11, 11, 115
15, 49560, Note_on_c, 11, 60, 68
15, 49560, Control_c, 11, 11, 117
15, 49580, Control_c, 11, 11, 118
15, 49600, Control_c, 11, 11, 120
15, 49620, Control_c, 11, 11, 122
15, 49640, Control_c, 11, 11, 124
15, 49649, Note_on_c, 11, 60, 0
15, 49660, Control_c, 11, 11, 127
15, 49680, Note_on_c, 11, 59, 52
15, 49799, Note_on_c, 11, 59, 0
15, 50040, Note_on_c, 11, 55, 52
15, 50121, Note_on_c, 11, 55, 0
15, 50130, Note_on_c, 11, 55, 52
15, 50155, Note_on_c, 11, 55, 0
15, 50160, Note_on_c, 11, 55, 52
15, 50367, Note_on_c, 11, 55, 0
15, 50380, Note_on_c, 11, 62, 52
15, 50399, Note_on_c, 11, 62, 0
15, 50400, Note_on_c, 11, 60, 52
15, 50489, Note_on_c, 11, 60, 0
15, 50490, Note_on_c, 11, 59, 52
15, 50519, Note_on_c, 11, 59, 0
15, 50520, Note_on_c, 11, 60, 52
15, 50609, Note_on_c, 11, 60, 0
15, 50610, Note_on_c, 11, 62, 52
15, 50635, Note_on_c, 11, 62, 0
15, 50640, Note_on_c, 11, 63, 52
15, 50879, Note_on_c, 11, 63, 0
15, 50880, Note_on_c, 11, 60, 52
15, 50999, Note_on_c, 11, 60, 0
15, 51120, Note_on_c, 11, 67, 52
15, 51351, Note_on_c, 11, 67, 0
15, 51360, Note_on_c, 11, 65, 52
15, 51389, Note_on_c, 11, 65, 0
15, 51390, Note_on_c, 11, 63, 52
15, 51471, Note_on_c, 11, 63, 0
15, 51480, Note_on_c, 11, 62, 52
15, 51509, Note_on_c, 11, 62, 0
15, 51510, Note_on_c, 11, 60, 52
15, 51591, Note_on_c, 11, 60, 0
15, 51600, Note_on_c, 11, 63, 52
15, 51839, Note_on_c, 11, 63, 0
15, 51840, Note_on_c, 11, 62, 52
15, 51959, Note_on_c, 11, 62, 0
15, 52080, Note_on_c, 11, 62, 52
15, 52311, Note_on_c, 11, 62, 0
15, 52320, Note_on_c, 11, 62, 52
15, 52409, Note_on_c, 11, 62, 0
15, 52410, Note_on_c, 11, 63, 52
15, 52439, Note_on_c, 11, 63, 0
15, 52440, Note_on_c, 11, 65, 52
15, 52529, Note_on_c, 11, 65, 0
15, 52530, Note_on_c, 11, 67, 52
15, 52555, Note_on_c, 11, 67, 0
15, 52560, Note_on_c, 11, 68, 52
15, 53031, Note_on_c, 11, 68, 0
15, 53040, Note_on_c, 11, 67, 52
15, 53271, Note_on_c, 11, 67, 0
15, 53280, Note_on_c, 11, 67, 52
15, 53369, Note_on_c, 11, 67, 0
15, 53370, Note_on_c, 11, 68, 52
15, 53399, Note_on_c, 11, 68, 0
15, 53400, Note_on_c, 11, 70, 52
15, 53489, Note_on_c, 11, 70, 0
15, 53490, Note_on_c, 11, 72, 52
15, 53515, Note_on_c, 11, 72, 0
15, 53520, Note_on_c, 11, 73, 68
15, 53580, Control_c, 11, 11, 127
15, 53603, Control_c, 11, 11, 125
15, 53627, Control_c, 11, 11, 124
15, 53650, Control_c, 11, 11, 122
15, 53673, Control_c, 11, 11, 120
15, 53697, Control_c, 11, 11, 118
15, 53720, Control_c, 11, 11, 117
15, 53743, Control_c, 11, 11, 115
15, 53767, Control_c, 11, 11, 113
15, 53790, Control_c, 11, 11, 112
15, 53813, Control_c, 11, 11, 110
15, 53837, Control_c, 11, 11, 108
15, 53860, Control_c, 11, 11, 106
15, 53879, Note_on_c, 11, 73, 0
15, 53880, Note_on_c, 11, 72, 60
15, 53883, Control_c, 11, 11, 105
15, 53907, Control_c, 11, 11, 103
15, 53930, Control_c, 11, 11, 101
15, 53939, Note_on_c, 11, 72, 0
15, 53940, Note_on_c, 11, 70, 60
15, 53953, Control_c, 11, 11, 99
15, 53977, Control_c, 11, 11, 96
15, 53991, Note_on_c, 11, 70, 0
15, 54000, Note_on_c, 11, 70, 68
15, 54059, Note_on_c, 11, 70, 0
15, 54060, Note_on_c, 11, 68, 68
15, 54111, Note_on_c, 11, 68, 0
15, 54120, Note_on_c, 11, 70, 68
15, 54164, Note_on_c, 11, 70, 0
15, 54180, Note_on_c, 11, 67, 68
15, 54224, Note_on_c, 11, 67, 0
15, 54240, Note_on_c, 11, 65, 68
15, 54359, Note_on_c, 11, 65, 0
15, 54360, Note_on_c, 11, 67, 68
15, 54449, Note_on_c, 11, 67, 0
15, 54450, Note_on_c, 11, 64, 68
15, 54471, Note_on_c, 11, 64, 0
15, 54476, Control_c, 11, 11, 127
15, 54480, Note_on_c, 11, 65, 76
15, 54599, Note_on_c, 11, 65, 0
15, 55920, Note_on_c, 11, 72, 76
15, 56159, Note_on_c, 11, 72, 0
15, 56160, Note_on_c, 11, 74, 76
15, 56279, Note_on_c, 11, 74, 0
15, 56280, Note_on_c, 11, 75, 76
15, 56391, Note_on_c, 11, 75, 0
15, 56400, Note_on_c, 11, 77, 84
15, 56744, Note_on_c, 11, 77, 0
15, 56760, Note_on_c, 11, 75, 76
15, 56774, Note_on_c, 11, 75, 0
15, 56775, Note_on_c, 11, 77, 76
15, 56789, Note_on_c, 11, 77, 0
15, 56790, Note_on_c, 11, 75, 76
15, 56804, Note_on_c, 11, 75, 0
15, 56805, Note_on_c, 11, 77, 76
15, 56819, Note_on_c, 11, 77, 0
15, 56820, Note_on_c, 11, 75, 76
15, 56834, Note_on_c, 11, 75, 0
15, 56835, Note_on_c, 11, 77, 76
15, 56849, Note_on_c, 11, 77, 0
15, 56850, Note_on_c, 11, 74, 76
15, 56864, Note_on_c, 11, 74, 0
15, 56865, Note_on_c, 11, 75, 76
15, 56876, Note_on_c, 11, 75, 0
15, 56880, Note_on_c, 11, 74, 76
15, 56999, Note_on_c, 11, 74, 0
15, 57000, Note_on_c, 11, 80, 76
15, 57119, Note_on_c, 11, 80, 0
15, 57120, Note_on_c, 11, 79, 84
15, 57239, Note_on_c, 11, 79, 0
15, 57240, Note_on_c, 11, 77, 76
15, 57351, Note_on_c, 11, 77, 0
15, 57360, Note_on_c, 11, 76, 76
15, 57479, Note_on_c, 11, 76, 0
15, 57480, Note_on_c, 11, 85, 76
15, 57599, Note_on_c, 11, 85, 0
15, 57600, Note_on_c, 11, 84, 84
15, 57719, Note_on_c, 11, 84, 0
15, 57720, Note_on_c, 11, 82, 76
15, 57831, Note_on_c, 11, 82, 0
15, 57840, Note_on_c, 11, 80, 76
15, 57884, Note_on_c, 11, 80, 0
15, 57900, Note_on_c, 11, 72, 76
15, 57944, Note_on_c, 11, 72, 0
15, 57960, Note_on_c, 11, 73, 76
15, 58004, Note_on_c, 11, 73, 0
15, 58020, Note_on_c, 11, 72, 76
15, 58064, Note_on_c, 11, 72, 0
15, 58080, Note_on_c, 11, 70, 76
15, 58124, Note_on_c, 11, 70, 0
15, 58140, Note_on_c, 11, 68, 76
15, 58184, Note_on_c, 11, 68, 0
15, 58200, Note_on_c, 11, 67, 76
15, 58244, Note_on_c, 11, 67, 0
15, 58260, Note_on_c, 11, 65, 76
15, 58304, Note_on_c, 11, 65, 0
15, 58320, Note_on_c, 11, 64, 76
15, 58364, Note_on_c, 11, 64, 0
15, 58380, Note_on_c, 11, 65, 76
15, 58424, Note_on_c, 11, 65, 0
15, 58440, Note_on_c, 11, 67, 76
15, 58484, Note_on_c, 11, 67, 0
15, 58500, Note_on_c, 11, 65, 76
15, 58544, Note_on_c, 11, 65, 0
15, 58560, Note_on_c, 11, 64, 76
15, 58604, Note_on_c, 11, 64, 0
15, 58620, Note_on_c, 11, 60, 76
15, 58664, Note_on_c, 11, 60, 0
15, 58680, Note_on_c, 11, 65, 76
15, 58724, Note_on_c, 11, 65, 0
15, 58740, Note_on_c, 11, 60, 76
15, 58784, Note_on_c, 11, 60, 0
15, 58800, Note_on_c, 11, 70, 76
15, 58844, Note_on_c, 11, 70, 0
15, 58860, Note_on_c, 11, 60, 76
15, 58904, Note_on_c, 11, 60, 0
15, 58920, Note_on_c, 11, 70, 76
15, 58964, Note_on_c, 11, 70, 0
15, 58980, Note_on_c, 11, 60, 76
15, 59024, Note_on_c, 11, 60, 0
15, 59040, Note_on_c, 11, 68, 76
15, 59084, Note_on_c, 11, 68, 0
15, 59100, Note_on_c, 11, 60, 76
15, 59144, Note_on_c, 11, 60, 0
15, 59160, Note_on_c, 11, 67, 76
15, 59204, Note_on_c, 11, 67, 0
15, 59220, Note_on_c, 11, 60, 76
15, 59264, Note_on_c, 11, 60, 0
15, 59280, Note_on_c, 11, 65, 76
15, 59391, Note_on_c, 11, 65, 0
15, 59400, Note_on_c, 11, 77, 76
15, 59459, Note_on_c, 11, 77, 0
15, 59460, Note_on_c, 11, 79, 76
15, 59511, Note_on_c, 11, 79, 0
15, 59520, Note_on_c, 11, 80, 84
15, 59871, Note_on_c, 11, 80, 0
15, 59880, Note_on_c, 11, 79, 76
15, 60111, Note_on_c, 11, 79, 0
15, 60120, Note_on_c, 11, 77, 76
15, 60351, Note_on_c, 11, 77, 0
15, 60360, Note_on_c, 11, 75, 76
15, 60479, Note_on_c, 11, 75, 0
15, 60480, Note_on_c, 11, 77, 76
15, 60599, Note_on_c, 11, 77, 0
15, 60600, Note_on_c, 11, 79, 76
15, 60711, Note_on_c, 11, 79, 0
15, 60720, Note_on_c, 11, 80, 84
15, 61071, Note_on_c, 11, 80, 0
15, 61080, Note_on_c, 11, 79, 76
15, 61191, Note_on_c, 11, 79, 0
15, 61200, Note_on_c, 11, 77, 76
15, 61289, Note_on_c, 11, 77, 0
15, 61320, Note_on_c, 11, 77, 76
15, 61439, Note_on_c, 11, 77, 0
15, 61440, Note_on_c, 11, 79, 76
15, 61559, Note_on_c, 11, 79, 0
15, 61560, Note_on_c, 11, 80, 76
15, 61671, Note_on_c, 11, 80, 0
15, 61680, Note_on_c, 11, 79, 76
15, 61724, Note_on_c, 11, 79, 0
15, 61740, Note_on_c, 11, 82, 76
15, 61784, Note_on_c, 11, 82, 0
15, 61800, Note_on_c, 11, 79, 76
15, 61844, Note_on_c, 11, 79, 0
15, 61860, Note_on_c, 11, 80, 76
15, 61904, Note_on_c, 11, 80, 0
15, 61920, Note_on_c, 11, 82, 76
15, 61964, Note_on_c, 11, 82, 0
15, 61980, Note_on_c, 11, 84, 76
15, 62024, Note_on_c, 11, 84, 0
15, 62040, Note_on_c, 11, 86, 76
15, 62084, Note_on_c, 11, 86, 0
15, 62100, Note_on_c, 11, 88, 76
15, 62144, Note_on_c, 11, 88, 0
15, 62160, Note_on_c, 11, 89, 84
15, 62631, Note_on_c, 11, 89, 0
15, 62640, Note_on_c, 11, 85, 92
15, 63104, Note_on_c, 11, 85, 0
15, 63120, Note_on_c, 11, 88, 84
15, 63471, Note_on_c, 11, 88, 0
15, 63480, Note_on_c, 11, 88, 84
15, 63494, Note_on_c, 11, 88, 0
15, 63495, Note_on_c, 11, 89, 84
15, 63509, Note_on_c, 11, 89, 0
15, 63510, Note_on_c, 11, 88, 84
15, 63524, Note_on_c, 11, 88, 0
15, 63525, Note_on_c, 11, 89, 84
15, 63539, Note_on_c, 11, 89, 0
15, 63540, Note_on_c, 11, 88, 84
15, 63554, Note_on_c, 11, 88, 0
15, 63555, Note_on_c, 11, 89, 84
15, 63569, Note_on_c, 11, 89, 0
15, 63570, Note_on_c, 11, 86, 84
15, 63584, Note_on_c, 11, 86, 0
15, 63585, Note_on_c, 11, 88, 84
15, 63596, Note_on_c, 11, 88, 0
15, 63600, Note_on_c, 11, 89, 84
15, 63831, Note_on_c, 11, 89, 0
15, 63840, Note_on_c, 11, 77, 92
15, 63959, Note_on_c, 11, 77, 0
15, 63960, Note_on_c, 11, 79, 84
15, 64019, Note_on_c, 11, 79, 0
15, 64020, Note_on_c, 11, 80, 84
15, 64071, Note_on_c, 11, 80, 0
15, 64080, Note_on_c, 11, 82, 84
15, 64679, Note_on_c, 11, 82, 0
15, 65100, Note_on_c, 11, 68, 84
15, 65144, Note_on_c, 11, 68, 0
15, 65160, Note_on_c, 11, 70, 84
15, 65204, Note_on_c, 11, 70, 0
15, 65220, Note_on_c, 11, 72, 84
15, 65264, Note_on_c, 11, 72, 0
15, 65280, Note_on_c, 11, 74, 84
15, 65324, Note_on_c, 11, 74, 0
15, 65340, Note_on_c, 11, 75, 84
15, 65384, Note_on_c, 11, 75, 0
15, 65400, Note_on_c, 11, 77, 84
15, 65444, Note_on_c, 11, 77, 0
15, 65460, Note_on_c, 11, 79, 84
15, 65504, Note_on_c, 11, 79, 0
15, 65520, Note_on_c, 11, 80, 84
15, 65639, Note_on_c, 11, 80, 0
15, 66060, Note_on_c, 11, 70, 84
15, 66104, Note_on_c, 11, 70, 0
15, 66120, Note_on_c, 11, 72, 84
15, 66164, Note_on_c, 11, 72, 0
15, 66180, Note_on_c, 11, 74, 84
15, 66224, Note_on_c, 11, 74, 0
15, 66240, Note_on_c, 11, 75, 84
15, 66284, Note_on_c, 11, 75, 0
15, 66300, Note_on_c, 11, 77, 84
15, 66344, Note_on_c, 11, 77, 0
15, 66360, Note_on_c, 11, 79, 84
15, 66404, Note_on_c, 11, 79, 0
15, 66420, Note_on_c, 11, 80, 84
15, 66464, Note_on_c, 11, 80, 0
15, 66480, Note_on_c, 11, 82, 84
15, 66569, Note_on_c, 11, 82, 0
15, 66600, Note_on_c, 11, 83, 84
15, 66689, Note_on_c, 11, 83, 0
15, 66720, Note_on_c, 11, 84, 84
15, 66809, Note_on_c, 11, 84, 0
15, 66840, Note_on_c, 11, 86, 84
15, 66929, Note_on_c, 11, 86, 0
15, 66960, Note_on_c, 11, 87, 84
15, 67049, Note_on_c, 11, 87, 0
15, 67680, Note_on_c, 11, 80, 92
15, 68024, Note_on_c, 11, 80, 0
15, 68040, Note_on_c, 11, 77, 84
15, 68099, Note_on_c, 11, 77, 0
15, 68100, Note_on_c, 11, 75, 84
15, 68151, Note_on_c, 11, 75, 0
15, 68160, Note_on_c, 11, 74, 84
15, 68279, Note_on_c, 11, 74, 0
15, 68640, Note_on_c, 11, 79, 84
15, 68931, Note_on_c, 11, 79, 0
15, 68940, Note_on_c, 11, 78, 84
15, 68984, Note_on_c, 11, 78, 0
15, 69000, Note_on_c, 11, 79, 84
15, 69044, Note_on_c, 11, 79, 0
15, 69060, Note_on_c, 11, 81, 84
15, 69104, Note_on_c, 11, 81, 0
15, 69120, Note_on_c, 11, 82, 84
15, 69164, Note_on_c, 11, 82, 0
15, 69180, Note_on_c, 11, 83, 84
15, 69224, Note_on_c, 11, 83, 0
15, 69240, Note_on_c, 11, 84, 84
15, 69284, Note_on_c, 11, 84, 0
15, 69300, Note_on_c, 11, 85, 84
15, 69344, Note_on_c, 11, 85, 0
15, 69360, Note_on_c, 11, 86, 84
15, 69395, Note_on_c, 11, 86, 0
15, 69400, Note_on_c, 11, 86, 84
15, 69435, Note_on_c, 11, 86, 0
15, 69440, Note_on_c, 11, 86, 84
15, 69475, Note_on_c, 11, 86, 0
15, 69480, Note_on_c, 11, 86, 84
15, 69515, Note_on_c, 11, 86, 0
15, 69520, Note_on_c, 11, 86, 84
15, 69555, Note_on_c, 11, 86, 0
15, 69560, Note_on_c, 11, 86, 84
15, 69595, Note_on_c, 11, 86, 0
15, 69600, Note_on_c, 11, 86, 92
15, 69635, Note_on_c, 11, 86, 0
15, 69640, Note_on_c, 11, 86, 84
15, 69675, Note_on_c, 11, 86, 0
15, 69680, Note_on_c, 11, 86, 84
15, 69715, Note_on_c, 11, 86, 0
15, 69720, Note_on_c, 11, 86, 84
15, 69755, Note_on_c, 11, 86, 0
15, 69760, Note_on_c, 11, 86, 84
15, 69795, Note_on_c, 11, 86, 0
15, 69800, Note_on_c, 11, 86, 84
15, 69835, Note_on_c, 11, 86, 0
15, 69840, Note_on_c, 11, 87, 84
15, 69875, Note_on_c, 11, 87, 0
15, 69880, Note_on_c, 11, 87, 84
15, 69915, Note_on_c, 11, 87, 0
15, 69920, Note_on_c, 11, 87, 84
15, 69955, Note_on_c, 11, 87, 0
15, 69960, Note_on_c, 11, 87, 84
15, 69995, Note_on_c, 11, 87, 0
15, 70000, Note_on_c, 11, 87, 84
15, 70035, Note_on_c, 11, 87, 0
15, 70040, Note_on_c, 11, 87, 84
15, 70075, Note_on_c, 11, 87, 0
15, 70080, Note_on_c, 11, 87, 92
15, 70115, Note_on_c, 11, 87, 0
15, 70120, Note_on_c, 11, 87, 84
15, 70155, Note_on_c, 11, 87, 0
15, 70160, Note_on_c, 11, 87, 84
15, 70195, Note_on_c, 11, 87, 0
15, 70200, Note_on_c, 11, 87, 84
15, 70235, Note_on_c, 11, 87, 0
15, 70240, Note_on_c, 11, 87, 84
15, 70275, Note_on_c, 11, 87, 0
15, 70280, Note_on_c, 11, 87, 84
15, 70315, Note_on_c, 11, 87, 0
15, 70320, Note_on_c, 11, 87, 84
15, 70359, Note_on_c, 11, 87, 0
15, 70360, Note_on_c, 11, 86, 84
15, 70395, Note_on_c, 11, 86, 0
15, 70400, Note_on_c, 11, 86, 84
15, 70435, Note_on_c, 11, 86, 0
15, 70440, Note_on_c, 11, 86, 84
15, 70475, Note_on_c, 11, 86, 0
15, 70480, Note_on_c, 11, 86, 84
15, 70515, Note_on_c, 11, 86, 0
15, 70520, Note_on_c, 11, 86, 84
15, 70555, Note_on_c, 11, 86, 0
15, 70560, Note_on_c, 11, 86, 92
15, 70595, Note_on_c, 11, 86, 0
15, 70600, Note_on_c, 11, 86, 84
15, 70635, Note_on_c, 11, 86, 0
15, 70640, Note_on_c, 11, 86, 84
15, 70675, Note_on_c, 11, 86, 0
15, 70680, Note_on_c, 11, 86, 84
15, 70715, Note_on_c, 11, 86, 0
15, 70720, Note_on_c, 11, 86, 84
15, 70755, Note_on_c, 11, 86, 0
15, 70760, Note_on_c, 11, 86, 84
15, 70795, Note_on_c, 11, 86, 0
15, 70800, Note_on_c, 11, 86, 84
15, 70839, Note_on_c, 11, 86, 0
15, 70840, Note_on_c, 11, 84, 84
15, 70875, Note_on_c, 11, 84, 0
15, 70880, Note_on_c, 11, 84, 84
15, 70915, Note_on_c, 11, 84, 0
15, 70920, Note_on_c, 11, 84, 84
15, 70955, Note_on_c, 11, 84, 0
15, 70960, Note_on_c, 11, 84, 84
15, 70995, Note_on_c, 11, 84, 0
15, 71000, Note_on_c, 11, 84, 84
15, 71035, Note_on_c, 11, 84, 0
15, 71040, Note_on_c, 11, 84, 92
15, 71075, Note_on_c, 11, 84, 0
15, 71080, Note_on_c, 11, 84, 84
15, 71115, Note_on_c, 11, 84, 0
15, 71120, Note_on_c, 11, 84, 84
15, 71155, Note_on_c, 11, 84, 0
15, 71160, Note_on_c, 11, 84, 84
15, 71195, Note_on_c, 11, 84, 0
15, 71200, Note_on_c, 11, 84, 84
15, 71235, Note_on_c, 11, 84, 0
15, 71240, Note_on_c, 11, 84, 84
15, 71275, Note_on_c, 11, 84, 0
15, 71280, Note_on_c, 11, 84, 84
15, 71315, Note_on_c, 11, 84, 0
15, 71320, Note_on_c, 11, 84, 84
15, 71355, Note_on_c, 11, 84, 0
15, 71360, Note_on_c, 11, 84, 84
15, 71395, Note_on_c, 11, 84, 0
15, 71400, Note_on_c, 11, 82, 84
15, 71435, Note_on_c, 11, 82, 0
15, 71440, Note_on_c, 11, 82, 84
15, 71475, Note_on_c, 11, 82, 0
15, 71480, Note_on_c, 11, 82, 84
15, 71515, Note_on_c, 11, 82, 0
15, 71520, Note_on_c, 11, 82, 84
15, 71555, Note_on_c, 11, 82, 0
15, 71560, Note_on_c, 11, 82, 84
15, 71595, Note_on_c, 11, 82, 0
15, 71600, Note_on_c, 11, 82, 84
15, 71635, Note_on_c, 11, 82, 0
15, 71640, Note_on_c, 11, 82, 84
15, 71675, Note_on_c, 11, 82, 0
15, 71680, Note_on_c, 11, 82, 84
15, 71715, Note_on_c, 11, 82, 0
15, 71720, Note_on_c, 11, 82, 84
15, 71755, Note_on_c, 11, 82, 0
15, 71760, Note_on_c, 11, 82, 84
15, 71849, Note_on_c, 11, 82, 0
15, 72120, Note_on_c, 11, 58, 92
15, 72120, Note_on_c, 11, 67, 92
15, 72344, Note_on_c, 11, 58, 0
15, 72344, Note_on_c, 11, 67, 0
15, 72360, Note_on_c, 11, 58, 84
15, 72360, Note_on_c, 11, 67, 84
15, 72449, Note_on_c, 11, 58, 0
15, 72449, Note_on_c, 11, 67, 0
15, 72480, Note_on_c, 11, 58, 84
15, 72480, Note_on_c, 11, 67, 84
15, 72569, Note_on_c, 11, 58, 0
15, 72569, Note_on_c, 11, 67, 0
15, 72600, Note_on_c, 11, 67, 84
15, 72600, Note_on_c, 11, 58, 84
15, 72689, Note_on_c, 11, 67, 0
15, 72689, Note_on_c, 11, 58, 0
15, 72720, Note_on_c, 11, 57, 84
15, 72720, Control_c, 11, 11, 127
15, 72720, Note_on_c, 11, 67, 84
15, 72740, Control_c, 11, 11, 124
15, 72760, Control_c, 11, 11, 122
15, 72780, Control_c, 11, 11, 119
15, 72800, Control_c, 11, 11, 117
15, 72820, Control_c, 11, 11, 114
15, 72840, Control_c, 11, 11, 111
15, 72860, Control_c, 11, 11, 109
15, 72880, Control_c, 11, 11, 106
15, 72900, Control_c, 11, 11, 103
15, 72920, Control_c, 11, 11, 101
15, 72940, Control_c, 11, 11, 98
15, 72960, Control_c, 11, 11, 96
15, 72980, Control_c, 11, 11, 93
15, 73000, Control_c, 11, 11, 90
15, 73020, Control_c, 11, 11, 88
15, 73040, Control_c, 11, 11, 85
15, 73060, Control_c, 11, 11, 82
15, 73080, Control_c, 11, 11, 80
15, 73100, Control_c, 11, 11, 77
15, 73120, Control_c, 11, 11, 75
15, 73140, Control_c, 11, 11, 72
15, 73160, Control_c, 11, 11, 69
15, 73180, Control_c, 11, 11, 64
15, 73191, Note_on_c, 11, 57, 0
15, 73191, Note_on_c, 11, 67, 0
15, 73200, Note_on_c, 11, 66, 84
15, 73200, Note_on_c, 11, 57, 84
15, 73671, Note_on_c, 11, 66, 0
15, 73671, Note_on_c, 11, 57, 0
15, 73680, Note_on_c, 11, 67, 84
15, 73891, Note_on_c, 11, 67, 0
15, 73900, Note_on_c, 11, 69, 84
15, 73919, Note_on_c, 11, 69, 0
15, 73920, Note_on_c, 11, 67, 84
15, 74009, Note_on_c, 11, 67, 0
15, 74010, Note_on_c, 11, 66, 84
15, 74039, Note_on_c, 11, 66, 0
15, 74040, Note_on_c, 11, 67, 84
15, 74129, Note_on_c, 11, 67, 0
15, 74130, Note_on_c, 11, 69, 84
15, 74155, Note_on_c, 11, 69, 0
15, 74160, Note_on_c, 11, 70, 84
15, 74399, Note_on_c, 11, 70, 0
15, 74400, Note_on_c, 11, 67, 84
15, 74519, Note_on_c, 11, 67, 0
15, 74640, Note_on_c, 11, 74, 84
15, 74879, Note_on_c, 11, 74, 0
15, 74880, Note_on_c, 11, 71, 84
15, 74999, Note_on_c, 11, 71, 0
15, 75120, Note_on_c, 11, 80, 84
15, 75599, Note_on_c, 11, 80, 0
15, 76078, Control_c, 11, 11, 127
15, 76080, Note_on_c, 11, 63, 84
15, 76080, Note_on_c, 11, 60, 84
15, 76551, Note_on_c, 11, 63, 0
15, 76551, Note_on_c, 11, 60, 0
15, 76560, Note_on_c, 11, 60, 84
15, 76560, Note_on_c, 11, 63, 84
15, 76595, Note_on_c, 11, 60, 0
15, 76595, Note_on_c, 11, 63, 0
15, 76600, Note_on_c, 11, 60, 84
15, 76600, Note_on_c, 11, 63, 84
15, 76635, Note_on_c, 11, 60, 0
15, 76635, Note_on_c, 11, 63, 0
15, 76640, Note_on_c, 11, 60, 84
15, 76640, Note_on_c, 11, 63, 84
15, 76675, Note_on_c, 11, 60, 0
15, 76675, Note_on_c, 11, 63, 0
15, 76680, Note_on_c, 11, 60, 84
15, 76680, Note_on_c, 11, 63, 84
15, 76715, Note_on_c, 11, 60, 0
15, 76715, Note_on_c, 11, 63, 0
15, 76720, Note_on_c, 11, 63, 84
15, 76720, Note_on_c, 11, 60, 84
15, 76755, Note_on_c, 11, 63, 0
15, 76755, Note_on_c, 11, 60, 0
15, 76760, Note_on_c, 11, 63, 84
15, 76760, Note_on_c, 11, 60, 84
15, 76795, Note_on_c, 11, 63, 0
15, 76795, Note_on_c, 11, 60, 0
15, 76800, Note_on_c, 11, 63, 84
15, 76800, Note_on_c, 11, 60, 84
15, 76835, Note_on_c, 11, 63, 0
15, 76835, Note_on_c, 11, 60, 0
15, 76840, Note_on_c, 11, 60, 84
15, 76840, Note_on_c, 11, 63, 84
15, 76875, Note_on_c, 11, 60, 0
15, 76875, Note_on_c, 11, 63, 0
15, 76880, Note_on_c, 11, 63, 84
15, 76880, Note_on_c, 11, 60, 84
15, 76915, Note_on_c, 11, 63, 0
15, 76915, Note_on_c, 11, 60, 0
15, 76920, Note_on_c, 11, 63, 84
15, 76920, Note_on_c, 11, 60, 84
15, 76955, Note_on_c, 11, 63, 0
15, 76955, Note_on_c, 11, 60, 0
15, 76960, Note_on_c, 11, 60, 84
15, 76960, Note_on_c, 11, 63, 84
15, 76995, Note_on_c, 11, 60, 0
15, 76995, Note_on_c, 11, 63, 0
15, 77000, Note_on_c, 11, 60, 84
15, 77000, Note_on_c, 11, 63, 84
15, 77035, Note_on_c, 11, 60, 0
15, 77035, Note_on_c, 11, 63, 0
15, 77040, Note_on_c, 11, 60, 84
15, 77040, Note_on_c, 11, 63, 84
15, 77075, Note_on_c, 11, 60, 0
15, 77075, Note_on_c, 11, 63, 0
15, 77080, Note_on_c, 11, 63, 84
15, 77080, Note_on_c, 11, 60, 84
15, 77115, Note_on_c, 11, 63, 0
15, 77115, Note_on_c, 11, 60, 0
15, 77120, Note_on_c, 11, 63, 84
15, 77120, Note_on_c, 11, 60, 84
15, 77155, Note_on_c, 11, 63, 0
15, 77155, Note_on_c, 11, 60, 0
15, 77160, Note_on_c, 11, 63, 84
15, 77160, Note_on_c, 11, 60, 84
15, 77195, Note_on_c, 11, 63, 0
15, 77195, Note_on_c, 11, 60, 0
15, 77200, Note_on_c, 11, 63, 84
15, 77200, Note_on_c, 11, 60, 84
15, 77235, Note_on_c, 11, 63, 0
15, 77235, Note_on_c, 11, 60, 0
15, 77240, Note_on_c, 11, 60, 84
15, 77240, Note_on_c, 11, 63, 84
15, 77275, Note_on_c, 11, 60, 0
15, 77275, Note_on_c, 11, 63, 0
15, 77280, Note_on_c, 11, 63, 84
15, 77280, Note_on_c, 11, 60, 84
15, 77315, Note_on_c, 11, 63, 0
15, 77315, Note_on_c, 11, 60, 0
15, 77320, Note_on_c, 11, 63, 84
15, 77320, Note_on_c, 11, 60, 84
15, 77355, Note_on_c, 11, 63, 0
15, 77355, Note_on_c, 11, 60, 0
15, 77360, Note_on_c, 11, 63, 84
15, 77360, Note_on_c, 11, 60, 84
15, 77395, Note_on_c, 11, 63, 0
15, 77395, Note_on_c, 11, 60, 0
15, 77400, Note_on_c, 11, 63, 84
15, 77400, Note_on_c, 11, 60, 84
15, 77435, Note_on_c, 11, 63, 0
15, 77435, Note_on_c, 11, 60, 0
15, 77440, Note_on_c, 11, 63, 84
15, 77440, Note_on_c, 11, 60, 84
15, 77475, Note_on_c, 11, 63, 0
15, 77475, Note_on_c, 11, 60, 0
15, 77480, Note_on_c, 11, 60, 84
15, 77480, Note_on_c, 11, 63, 84
15, 77515, Note_on_c, 11, 60, 0
15, 77515, Note_on_c, 11, 63, 0
15, 77520, Note_on_c, 11, 60, 84
15, 77520, Note_on_c, 11, 63, 84
15, 77555, Note_on_c, 11, 60, 0
15, 77555, Note_on_c, 11, 63, 0
15, 77560, Note_on_c, 11, 63, 84
15, 77560, Note_on_c, 11, 72, 84
15, 77595, Note_on_c, 11, 63, 0
15, 77595, Note_on_c, 11, 72, 0
15, 77600, Note_on_c, 11, 72, 84
15, 77600, Note_on_c, 11, 63, 84
15, 77635, Note_on_c, 11, 72, 0
15, 77635, Note_on_c, 11, 63, 0
15, 77640, Note_on_c, 11, 72, 84
15, 77640, Note_on_c, 11, 63, 84
15, 77675, Note_on_c, 11, 72, 0
15, 77675, Note_on_c, 11, 63, 0
15, 77680, Note_on_c, 11, 63, 84
15, 77680, Note_on_c, 11, 72, 84
15, 77715, Note_on_c, 11, 63, 0
15, 77715, Note_on_c, 11, 72, 0
15, 77720, Note_on_c, 11, 63, 84
15, 77720, Note_on_c, 11, 72, 84
15, 77755, Note_on_c, 11, 63, 0
15, 77755, Note_on_c, 11, 72, 0
15, 77760, Note_on_c, 11, 63, 84
15, 77760, Note_on_c, 11, 72, 84
15, 77795, Note_on_c, 11, 63, 0
15, 77795, Note_on_c, 11, 72, 0
15, 77800, Note_on_c, 11, 72, 84
15, 77800, Note_on_c, 11, 63, 84
15, 77835, Note_on_c, 11, 72, 0
15, 77835, Note_on_c, 11, 63, 0
15, 77840, Note_on_c, 11, 63, 84
15, 77840, Note_on_c, 11, 72, 84
15, 77875, Note_on_c, 11, 63, 0
15, 77875, Note_on_c, 11, 72, 0
15, 77880, Note_on_c, 11, 72, 84
15, 77880, Note_on_c, 11, 63, 84
15, 77915, Note_on_c, 11, 72, 0
15, 77915, Note_on_c, 11, 63, 0
15, 77920, Note_on_c, 11, 72, 84
15, 77920, Note_on_c, 11, 63, 84
15, 77955, Note_on_c, 11, 72, 0
15, 77955, Note_on_c, 11, 63, 0
15, 77960, Note_on_c, 11, 63, 84
15, 77960, Note_on_c, 11, 72, 84
15, 77995, Note_on_c, 11, 63, 0
15, 77995, Note_on_c, 11, 72, 0
15, 78000, Note_on_c, 11, 63, 84
15, 78000, Note_on_c, 11, 72, 84
15, 78035, Note_on_c, 11, 63, 0
15, 78035, Note_on_c, 11, 72, 0
15, 78040, Note_on_c, 11, 72, 84
15, 78040, Note_on_c, 11, 63, 84
15, 78075, Note_on_c, 11, 72, 0
15, 78075, Note_on_c, 11, 63, 0
15, 78080, Note_on_c, 11, 63, 84
15, 78080, Note_on_c, 11, 72, 84
15, 78115, Note_on_c, 11, 63, 0
15, 78115, Note_on_c, 11, 72, 0
15, 78120, Note_on_c, 11, 72, 84
15, 78120, Note_on_c, 11, 63, 84
15, 78155, Note_on_c, 11, 72, 0
15, 78155, Note_on_c, 11, 63, 0
15, 78160, Note_on_c, 11, 63, 84
15, 78160, Note_on_c, 11, 72, 84
15, 78195, Note_on_c, 11, 63, 0
15, 78195, Note_on_c, 11, 72, 0
15, 78200, Note_on_c, 11, 63, 84
15, 78200, Note_on_c, 11, 72, 84
15, 78235, Note_on_c, 11, 63, 0
15, 78235, Note_on_c, 11, 72, 0
15, 78240, Note_on_c, 11, 63, 84
15, 78240, Note_on_c, 11, 72, 84
15, 78275, Note_on_c, 11, 63, 0
15, 78275, Note_on_c, 11, 72, 0
15, 78280, Note_on_c, 11, 72, 84
15, 78280, Note_on_c, 11, 63, 84
15, 78315, Note_on_c, 11, 72, 0
15, 78315, Note_on_c, 11, 63, 0
15, 78320, Note_on_c, 11, 63, 84
15, 78320, Note_on_c, 11, 72, 84
15, 78355, Note_on_c, 11, 63, 0
15, 78355, Note_on_c, 11, 72, 0
15, 78360, Note_on_c, 11, 63, 84
15, 78360, Note_on_c, 11, 72, 84
15, 78395, Note_on_c, 11, 63, 0
15, 78395, Note_on_c, 11, 72, 0
15, 78400, Note_on_c, 11, 72, 84
15, 78400, Note_on_c, 11, 63, 84
15, 78435, Note_on_c, 11, 72, 0
15, 78435, Note_on_c, 11, 63, 0
15, 78440, Note_on_c, 11, 63, 84
15, 78440, Note_on_c, 11, 72, 84
15, 78475, Note_on_c, 11, 63, 0
15, 78475, Note_on_c, 11, 72, 0
15, 78480, Note_on_c, 11, 63, 84
15, 78480, Note_on_c, 11, 72, 84
15, 78515, Note_on_c, 11, 63, 0
15, 78515, Note_on_c, 11, 72, 0
15, 78520, Note_on_c, 11, 63, 84
15, 78520, Note_on_c, 11, 72, 84
15, 78555, Note_on_c, 11, 63, 0
15, 78555, Note_on_c, 11, 72, 0
15, 78560, Note_on_c, 11, 72, 84
15, 78560, Note_on_c, 11, 63, 84
15, 78595, Note_on_c, 11, 72, 0
15, 78595, Note_on_c, 11, 63, 0
15, 78600, Note_on_c, 11, 63, 84
15, 78600, Note_on_c, 11, 72, 84
15, 78635, Note_on_c, 11, 63, 0
15, 78635, Note_on_c, 11, 72, 0
15, 78640, Note_on_c, 11, 72, 84
15, 78640, Note_on_c, 11, 63, 84
15, 78675, Note_on_c, 11, 72, 0
15, 78675, Note_on_c, 11, 63, 0
15, 78680, Note_on_c, 11, 63, 84
15, 78680, Note_on_c, 11, 72, 84
15, 78715, Note_on_c, 11, 63, 0
15, 78715, Note_on_c, 11, 72, 0
15, 78720, Note_on_c, 11, 63, 84
15, 78720, Note_on_c, 11, 72, 84
15, 78755, Note_on_c, 11, 63, 0
15, 78755, Note_on_c, 11, 72, 0
15, 78760, Note_on_c, 11, 72, 84
15, 78760, Note_on_c, 11, 63, 84
15, 78795, Note_on_c, 11, 72, 0
15, 78795, Note_on_c, 11, 63, 0
15, 78800, Note_on_c, 11, 63, 84
15, 78800, Note_on_c, 11, 72, 84
15, 78835, Note_on_c, 11, 63, 0
15, 78835, Note_on_c, 11, 72, 0
15, 78840, Note_on_c, 11, 72, 84
15, 78840, Note_on_c, 11, 63, 84
15, 78875, Note_on_c, 11, 72, 0
15, 78875, Note_on_c, 11, 63, 0
15, 78880, Note_on_c, 11, 72, 84
15, 78880, Note_on_c, 11, 63, 84
15, 78915, Note_on_c, 11, 72, 0
15, 78915, Note_on_c, 11, 63, 0
15, 78920, Note_on_c, 11, 72, 84
15, 78920, Note_on_c, 11, 63, 84
15, 78955, Note_on_c, 11, 72, 0
15, 78955, Note_on_c, 11, 63, 0
15, 78960, Note_on_c, 11, 69, 84
15, 78989, Note_on_c, 11, 69, 0
15, 79000, Note_on_c, 11, 72, 84
15, 79029, Note_on_c, 11, 72, 0
15, 79040, Note_on_c, 11, 75, 84
15, 79069, Note_on_c, 11, 75, 0
15, 79080, Note_on_c, 11, 78, 84
15, 79109, Note_on_c, 11, 78, 0
15, 79120, Note_on_c, 11, 81, 84
15, 79149, Note_on_c, 11, 81, 0
15, 79160, Note_on_c, 11, 84, 84
15, 79189, Note_on_c, 11, 84, 0
15, 79200, Note_on_c, 11, 87, 84
15, 79289, Note_on_c, 11, 87, 0
15, 79440, Note_on_c, 11, 71, 84
15, 79440, Note_on_c, 11, 62, 84
15, 79475, Note_on_c, 11, 71, 0
15, 79475, Note_on_c, 11, 62, 0
15, 79480, Note_on_c, 11, 71, 84
15, 79480, Note_on_c, 11, 62, 84
15, 79515, Note_on_c, 11, 71, 0
15, 79515, Note_on_c, 11, 62, 0
15, 79520, Note_on_c, 11, 71, 84
15, 79520, Note_on_c, 11, 62, 84
15, 79555, Note_on_c, 11, 71, 0
15, 79555, Note_on_c, 11, 62, 0
15, 79560, Note_on_c, 11, 71, 84
15, 79560, Note_on_c, 11, 62, 84
15, 79595, Note_on_c, 11, 71, 0
15, 79595, Note_on_c, 11, 62, 0
15, 79600, Note_on_c, 11, 71, 84
15, 79600, Note_on_c, 11, 62, 84
15, 79635, Note_on_c, 11, 71, 0
15, 79635, Note_on_c, 11, 62, 0
15, 79640, Note_on_c, 11, 71, 84
15, 79640, Note_on_c, 11, 62, 84
15, 79675, Note_on_c, 11, 71, 0
15, 79675, Note_on_c, 11, 62, 0
15, 79680, Note_on_c, 11, 71, 84
15, 79680, Note_on_c, 11, 62, 84
15, 79715, Note_on_c, 11, 71, 0
15, 79715, Note_on_c, 11, 62, 0
15, 79720, Note_on_c, 11, 71, 84
15, 79720, Note_on_c, 11, 62, 84
15, 79755, Note_on_c, 11, 71, 0
15, 79755, Note_on_c, 11, 62, 0
15, 79760, Note_on_c, 11, 71, 84
15, 79760, Note_on_c, 11, 62, 84
15, 79795, Note_on_c, 11, 71, 0
15, 79795, Note_on_c, 11, 62, 0
15, 79800, Note_on_c, 11, 71, 84
15, 79800, Note_on_c, 11, 62, 84
15, 79835, Note_on_c, 11, 71, 0
15, 79835, Note_on_c, 11, 62, 0
15, 79840, Note_on_c, 11, 71, 84
15, 79840, Note_on_c, 11, 62, 84
15, 79875, Note_on_c, 11, 71, 0
15, 79875, Note_on_c, 11, 62, 0
15, 79880, Note_on_c, 11, 71, 84
15, 79880, Note_on_c, 11, 62, 84
15, 79915, Note_on_c, 11, 71, 0
15, 79915, Note_on_c, 11, 62, 0
15, 79920, Note_on_c, 11, 62, 84
15, 79949, Note_on_c, 11, 62, 0
15, 79960, Note_on_c, 11, 65, 84
15, 79989, Note_on_c, 11, 65, 0
15, 80000, Note_on_c, 11, 68, 84
15, 80029, Note_on_c, 11, 68, 0
15, 80040, Note_on_c, 11, 71, 84
15, 80069, Note_on_c, 11, 71, 0
15, 80080, Note_on_c, 11, 74, 84
15, 80109, Note_on_c, 11, 74, 0
15, 80120, Note_on_c, 11, 77, 84
15, 80149, Note_on_c, 11, 77, 0
15, 80160, Note_on_c, 11, 80, 84
15, 80195, Note_on_c, 11, 80, 0
15, 80200, Note_on_c, 11, 80, 84
15, 80235, Note_on_c, 11, 80, 0
15, 80240, Note_on_c, 11, 80, 84
15, 80275, Note_on_c, 11, 80, 0
15, 80280, Note_on_c, 11, 80, 84
15, 80315, Note_on_c, 11, 80, 0
15, 80320, Note_on_c, 11, 80, 84
15, 80355, Note_on_c, 11, 80, 0
15, 80360, Note_on_c, 11, 80, 84
15, 80395, Note_on_c, 11, 80, 0
15, 80400, Note_on_c, 11, 80, 84
15, 80435, Note_on_c, 11, 80, 0
15, 80440, Note_on_c, 11, 80, 84
15, 80475, Note_on_c, 11, 80, 0
15, 80480, Note_on_c, 11, 80, 84
15, 80515, Note_on_c, 11, 80, 0
15, 80520, Note_on_c, 11, 80, 84
15, 80555, Note_on_c, 11, 80, 0
15, 80560, Note_on_c, 11, 80, 84
15, 80595, Note_on_c, 11, 80, 0
15, 80600, Note_on_c, 11, 80, 84
15, 80635, Note_on_c, 11, 80, 0
15, 80640, Note_on_c, 11, 80, 84
15, 80675, Note_on_c, 11, 80, 0
15, 80680, Note_on_c, 11, 80, 79
15, 80715, Note_on_c, 11, 80, 0
15, 80720, Note_on_c, 11, 80, 74
15, 80755, Note_on_c, 11, 80, 0
15, 80760, Note_on_c, 11, 79, 68
15, 80795, Note_on_c, 11, 79, 0
15, 80800, Note_on_c, 11, 79, 63
15, 80835, Note_on_c, 11, 79, 0
15, 80840, Note_on_c, 11, 79, 58
15, 80879, Note_on_c, 11, 79, 0
15, 80920, Note_on_c, 11, 78, 52
15, 80955, Note_on_c, 11, 78, 0
15, 80960, Note_on_c, 11, 78, 52
15, 80999, Note_on_c, 11, 78, 0
15, 81040, Note_on_c, 11, 79, 52
15, 81075, Note_on_c, 11, 79, 0
15, 81080, Note_on_c, 11, 79, 52
15, 81119, Note_on_c, 11, 79, 0
15, 81160, Note_on_c, 11, 80, 52
15, 81195, Note_on_c, 11, 80, 0
15, 81200, Note_on_c, 11, 80, 52
15, 81239, Note_on_c, 11, 80, 0
15, 81280, Note_on_c, 11, 79, 52
15, 81315, Note_on_c, 11, 79, 0
15, 81320, Note_on_c, 11, 79, 52
15, 81359, Note_on_c, 11, 79, 0
15, 81400, Note_on_c, 11, 77, 52
15, 81435, Note_on_c, 11, 77, 0
15, 81440, Note_on_c, 11, 77, 52
15, 81479, Note_on_c, 11, 77, 0
15, 81520, Note_on_c, 11, 75, 52
15, 81555, Note_on_c, 11, 75, 0
15, 81560, Note_on_c, 11, 75, 52
15, 81599, Note_on_c, 11, 75, 0
15, 81640, Note_on_c, 11, 74, 52
15, 81675, Note_on_c, 11, 74, 0
15, 81680, Note_on_c, 11, 74, 52
15, 81719, Note_on_c, 11, 74, 0
15, 81760, Note_on_c, 11, 72, 52
15, 81795, Note_on_c, 11, 72, 0
15, 81800, Note_on_c, 11, 72, 52
15, 81839, Note_on_c, 11, 72, 0
15, 81880, Note_on_c, 11, 71, 52
15, 81915, Note_on_c, 11, 71, 0
15, 81920, Note_on_c, 11, 71, 52
15, 81959, Note_on_c, 11, 71, 0
15, 82000, Note_on_c, 11, 68, 52
15, 82035, Note_on_c, 11, 68, 0
15, 82040, Note_on_c, 11, 68, 52
15, 82079, Note_on_c, 11, 68, 0
15, 82120, Note_on_c, 11, 67, 52
15, 82155, Note_on_c, 11, 67, 0
15, 82160, Note_on_c, 11, 67, 52
15, 82199, Note_on_c, 11, 67, 0
15, 82240, Note_on_c, 11, 71, 60
15, 82275, Note_on_c, 11, 71, 0
15, 82280, Note_on_c, 11, 71, 52
15, 82319, Note_on_c, 11, 71, 0
15, 82360, Note_on_c, 11, 67, 52
15, 82395, Note_on_c, 11, 67, 0
15, 82400, Note_on_c, 11, 67, 52
15, 82439, Note_on_c, 11, 67, 0
15, 82480, Note_on_c, 11, 74, 60
15, 82515, Note_on_c, 11, 74, 0
15, 82520, Note_on_c, 11, 74, 52
15, 82559, Note_on_c, 11, 74, 0
15, 82600, Note_on_c, 11, 67, 52
15, 82635, Note_on_c, 11, 67, 0
15, 82640, Note_on_c, 11, 67, 52
15, 82679, Note_on_c, 11, 67, 0
15, 82720, Note_on_c, 11, 79, 60
15, 82755, Note_on_c, 11, 79, 0
15, 82760, Note_on_c, 11, 79, 52
15, 82799, Note_on_c, 11, 79, 0
15, 82840, Note_on_c, 11, 67, 52
15, 82875, Note_on_c, 11, 67, 0
15, 82880, Note_on_c, 11, 67, 52
15, 82919, Note_on_c, 11, 67, 0
15, 82960, Note_on_c, 11, 68, 60
15, 82995, Note_on_c, 11, 68, 0
15, 83000, Note_on_c, 11, 68, 52
15, 83039, Note_on_c, 11, 68, 0
15, 83080, Note_on_c, 11, 67, 52
15, 83115, Note_on_c, 11, 67, 0
15, 83120, Note_on_c, 11, 67, 52
15, 83159, Note_on_c, 11, 67, 0
15, 83200, Note_on_c, 11, 72, 60
15, 83235, Note_on_c, 11, 72, 0
15, 83240, Note_on_c, 11, 72, 52
15, 83279, Note_on_c, 11, 72, 0
15, 83320, Note_on_c, 11, 67, 52
15, 83355, Note_on_c, 11, 67, 0
15, 83360, Note_on_c, 11, 67, 52
15, 83399, Note_on_c, 11, 67, 0
15, 83440, Note_on_c, 11, 75, 60
15, 83475, Note_on_c, 11, 75, 0
15, 83480, Note_on_c, 11, 75, 52
15, 83519, Note_on_c, 11, 75, 0
15, 83560, Note_on_c, 11, 67, 52
15, 83595, Note_on_c, 11, 67, 0
15, 83600, Note_on_c, 11, 67, 52
15, 83639, Note_on_c, 11, 67, 0
15, 83680, Note_on_c, 11, 79, 60
15, 83715, Note_on_c, 11, 79, 0
15, 83720, Note_on_c, 11, 79, 52
15, 83759, Note_on_c, 11, 79, 0
15, 83800, Note_on_c, 11, 67, 52
15, 83835, Note_on_c, 11, 67, 0
15, 83840, Note_on_c, 11, 67, 52
15, 83879, Note_on_c, 11, 67, 0
15, 83920, Note_on_c, 11, 68, 60
15, 83955, Note_on_c, 11, 68, 0
15, 83960, Note_on_c, 11, 68, 52
15, 83999, Note_on_c, 11, 68, 0
15, 84040, Note_on_c, 11, 67, 52
15, 84075, Note_on_c, 11, 67, 0
15, 84080, Note_on_c, 11, 67, 52
15, 84119, Note_on_c, 11, 67, 0
15, 84160, Note_on_c, 11, 72, 60
15, 84195, Note_on_c, 11, 72, 0
15, 84200, Note_on_c, 11, 72, 52
15, 84239, Note_on_c, 11, 72, 0
15, 84280, Note_on_c, 11, 67, 52
15, 84315, Note_on_c, 11, 67, 0
15, 84320, Note_on_c, 11, 67, 52
15, 84359, Note_on_c, 11, 67, 0
15, 84400, Note_on_c, 11, 75, 60
15, 84435, Note_on_c, 11, 75, 0
15, 84440, Note_on_c, 11, 75, 52
15, 84479, Note_on_c, 11, 75, 0
15, 84520, Note_on_c, 11, 67, 52
15, 84555, Note_on_c, 11, 67, 0
15, 84560, Note_on_c, 11, 67, 52
15, 84599, Note_on_c, 11, 67, 0
15, 84640, Note_on_c, 11, 79, 60
15, 84675, Note_on_c, 11, 79, 0
15, 84680, Note_on_c, 11, 79, 52
15, 84719, Note_on_c, 11, 79, 0
15, 84760, Note_on_c, 11, 65, 52
15, 84795, Note_on_c, 11, 65, 0
15, 84800, Note_on_c, 11, 65, 52
15, 84839, Note_on_c, 11, 65, 0
15, 84880, Note_on_c, 11, 74, 60
15, 84915, Note_on_c, 11, 74, 0
15, 84920, Note_on_c, 11, 74, 52
15, 84959, Note_on_c, 11, 74, 0
15, 85000, Note_on_c, 11, 71, 52
15, 85035, Note_on_c, 11, 71, 0
15, 85040, Note_on_c, 11, 71, 52
15, 85079, Note_on_c, 11, 71, 0
15, 85120, Note_on_c, 11, 77, 60
15, 85155, Note_on_c, 11, 77, 0
15, 85160, Note_on_c, 11, 77, 52
15, 85199, Note_on_c, 11, 77, 0
15, 85240, Note_on_c, 11, 74, 52
15, 85275, Note_on_c, 11, 74, 0
15, 85280, Note_on_c, 11, 74, 52
15, 85319, Note_on_c, 11, 74, 0
15, 85360, Note_on_c, 11, 80, 53
15, 85395, Note_on_c, 11, 80, 0
15, 85400, Note_on_c, 11, 80, 55
15, 85439, Note_on_c, 11, 80, 0
15, 85480, Note_on_c, 11, 80, 59
15, 85515, Note_on_c, 11, 80, 0
15, 85520, Note_on_c, 11, 80, 60
15, 85559, Note_on_c, 11, 80, 0
15, 85600, Note_on_c, 11, 80, 64
15, 85635, Note_on_c, 11, 80, 0
15, 85640, Note_on_c, 11, 80, 66
15, 85679, Note_on_c, 11, 80, 0
15, 85720, Note_on_c, 11, 80, 67
15, 85755, Note_on_c, 11, 80, 0
15, 85760, Note_on_c, 11, 80, 66
15, 85799, Note_on_c, 11, 80, 0
15, 85840, Note_on_c, 11, 65, 63
15, 85875, Note_on_c, 11, 65, 0
15, 85880, Note_on_c, 11, 65, 62
15, 85919, Note_on_c, 11, 65, 0
15, 85960, Note_on_c, 11, 67, 59
15, 85995, Note_on_c, 11, 67, 0
15, 86000, Note_on_c, 11, 67, 58
15, 86039, Note_on_c, 11, 67, 0
15, 86080, Note_on_c, 11, 68, 55
15, 86115, Note_on_c, 11, 68, 0
15, 86120, Note_on_c, 11, 68, 54
15, 86159, Note_on_c, 11, 68, 0
15, 86160, Control_c, 11, 11, 96
15, 86200, Note_on_c, 11, 67, 68
15, 86235, Note_on_c, 11, 67, 0
15, 86240, Note_on_c, 11, 67, 68
15, 86279, Note_on_c, 11, 67, 0
15, 86320, Note_on_c, 11, 68, 68
15, 86355, Note_on_c, 11, 68, 0
15, 86360, Note_on_c, 11, 68, 68
15, 86395, Note_on_c, 11, 68, 0
15, 86400, Note_on_c, 11, 67, 68
15, 86511, Note_on_c, 11, 67, 0
15, 86520, Note_on_c, 11, 58, 68
15, 86631, Note_on_c, 11, 58, 0
15, 86640, Note_on_c, 11, 63, 68
15, 86879, Note_on_c, 11, 63, 0
15, 86880, Note_on_c, 11, 62, 68
15, 86999, Note_on_c, 11, 62, 0
15, 87000, Note_on_c, 11, 60, 68
15, 87111, Note_on_c, 11, 60, 0
15, 87120, Note_on_c, 11, 58, 68
15, 87120, Control_c, 11, 11, 96
15, 87160, Control_c, 11, 11, 99
15, 87200, Control_c, 11, 11, 101
15, 87240, Control_c, 11, 11, 104
15, 87280, Control_c, 11, 11, 106
15, 87320, Control_c, 11, 11, 109
15, 87360, Control_c, 11, 11, 112
15, 87400, Control_c, 11, 11, 114
15, 87411, Note_on_c, 11, 58, 0
15, 87420, Note_on_c, 11, 58, 68
15, 87440, Control_c, 11, 11, 117
15, 87441, Note_on_c, 11, 58, 0
15, 87450, Note_on_c, 11, 60, 68
15, 87471, Note_on_c, 11, 60, 0
15, 87480, Control_c, 11, 11, 119
15, 87480, Note_on_c, 11, 62, 68
15, 87501, Note_on_c, 11, 62, 0
15, 87510, Note_on_c, 11, 63, 68
15, 87520, Control_c, 11, 11, 122
15, 87531, Note_on_c, 11, 63, 0
15, 87540, Note_on_c, 11, 65, 68
15, 87560, Control_c, 11, 11, 127
15, 87561, Note_on_c, 11, 65, 0
15, 87570, Note_on_c, 11, 67, 68
15, 87591, Note_on_c, 11, 67, 0
15, 87600, Note_on_c, 11, 70, 68
15, 87600, Control_c, 11, 11, 127
15, 87620, Control_c, 11, 11, 126
15, 87640, Control_c, 11, 11, 124
15, 87660, Control_c, 11, 11, 123
15, 87680, Control_c, 11, 11, 122
15, 87700, Control_c, 11, 11, 121
15, 87720, Control_c, 11, 11, 119
15, 87740, Control_c, 11, 11, 118
15, 87760, Control_c, 11, 11, 117
15, 87779, Note_on_c, 11, 70, 0
15, 87780, Note_on_c, 11, 68, 68
15, 87780, Control_c, 11, 11, 115
15, 87800, Control_c, 11, 11, 114
15, 87820, Control_c, 11, 11, 113
15, 87839, Note_on_c, 11, 68, 0
15, 87840, Note_on_c, 11, 67, 68
15, 87840, Control_c, 11, 11, 112
15, 87860, Control_c, 11, 11, 110
15, 87880, Control_c, 11, 11, 109
15, 87900, Control_c, 11, 11, 108
15, 87920, Control_c, 11, 11, 106
15, 87940, Control_c, 11, 11, 105
15, 87959, Note_on_c, 11, 67, 0
15, 87960, Note_on_c, 11, 65, 68
15, 87960, Control_c, 11, 11, 104
15, 87980, Control_c, 11, 11, 102
15, 88000, Control_c, 11, 11, 101
15, 88020, Control_c, 11, 11, 100
15, 88040, Control_c, 11, 11, 99
15, 88060, Control_c, 11, 11, 97
15, 88071, Note_on_c, 11, 65, 0
15, 88080, Note_on_c, 11, 64, 68
15, 88199, Note_on_c, 11, 64, 0
15, 88260, Control_c, 11, 11, 127
15, 88290, Note_on_c, 11, 70, 76
15, 88311, Note_on_c, 11, 70, 0
15, 88320, Note_on_c, 11, 70, 76
15, 88559, Note_on_c, 11, 70, 0
15, 88680, Control_c, 11, 11, 96
15, 88800, Note_on_c, 11, 68, 68
15, 88919, Note_on_c, 11, 68, 0
15, 88920, Note_on_c, 11, 67, 68
15, 89031, Note_on_c, 11, 67, 0
15, 89040, Note_on_c, 11, 66, 68
15, 89040, Control_c, 11, 11, 96
15, 89060, Control_c, 11, 11, 99
15, 89080, Control_c, 11, 11, 101
15, 89100, Control_c, 11, 11, 104
15, 89120, Control_c, 11, 11, 106
15, 89140, Control_c, 11, 11, 109
15, 89160, Control_c, 11, 11, 112
15, 89180, Control_c, 11, 11, 114
15, 89200, Control_c, 11, 11, 117
15, 89220, Control_c, 11, 11, 119
15, 89240, Control_c, 11, 11, 122
15, 89260, Control_c, 11, 11, 127
15, 89279, Note_on_c, 11, 66, 0
15, 89280, Note_on_c, 11, 72, 76
15, 89340, Control_c, 11, 11, 112
15, 89355, Control_c, 11, 11, 109
15, 89370, Control_c, 11, 11, 107
15, 89385, Control_c, 11, 11, 104
15, 89400, Control_c, 11, 11, 101
15, 89415, Control_c, 11, 11, 99
15, 89430, Control_c, 11, 11, 96
15, 89445, Control_c, 11, 11, 93
15, 89459, Note_on_c, 11, 72, 0
15, 89460, Note_on_c, 11, 66, 76
15, 89460, Control_c, 11, 11, 91
15, 89475, Control_c, 11, 11, 88
15, 89490, Control_c, 11, 11, 85
15, 89505, Control_c, 11, 11, 80
15, 89511, Note_on_c, 11, 66, 0
15, 89520, Note_on_c, 11, 67, 76
15, 89555, Note_on_c, 11, 67, 0
15, 89560, Note_on_c, 11, 67, 76
15, 89595, Note_on_c, 11, 67, 0
15, 89600, Note_on_c, 11, 67, 76
15, 89635, Note_on_c, 11, 67, 0
15, 89640, Note_on_c, 11, 67, 76
15, 89675, Note_on_c, 11, 67, 0
15, 89680, Note_on_c, 11, 67, 76
15, 89715, Note_on_c, 11, 67, 0
15, 89720, Note_on_c, 11, 67, 76
15, 89755, Note_on_c, 11, 67, 0
15, 89790, Control_c, 11, 11, 96
15, 89800, Note_on_c, 11, 67, 68
15, 89835, Note_on_c, 11, 67, 0
15, 89840, Note_on_c, 11, 67, 68
15, 89879, Note_on_c, 11, 67, 0
15, 89920, Note_on_c, 11, 67, 68
15, 89955, Note_on_c, 11, 67, 0
15, 89960, Note_on_c, 11, 67, 68
15, 89999, Note_on_c, 11, 67, 0
15, 90000, Note_on_c, 11, 67, 68
15, 90035, Note_on_c, 11, 67, 0
15, 90040, Note_on_c, 11, 67, 68
15, 90075, Note_on_c, 11, 67, 0
15, 90080, Note_on_c, 11, 67, 68
15, 90115, Note_on_c, 11, 67, 0
15, 90120, Note_on_c, 11, 67, 68
15, 90155, Note_on_c, 11, 67, 0
15, 90160, Note_on_c, 11, 67, 68
15, 90195, Note_on_c, 11, 67, 0
15, 90200, Note_on_c, 11, 67, 68
15, 90239, Note_on_c, 11, 67, 0
15, 90280, Note_on_c, 11, 67, 68
15, 90315, Note_on_c, 11, 67, 0
15, 90320, Note_on_c, 11, 67, 68
15, 90359, Note_on_c, 11, 67, 0
15, 90400, Note_on_c, 11, 67, 68
15, 90435, Note_on_c, 11, 67, 0
15, 90440, Note_on_c, 11, 67, 68
15, 90475, Note_on_c, 11, 67, 0
15, 90480, Note_on_c, 11, 79, 68
15, 90480, Control_c, 11, 11, 96
15, 90500, Control_c, 11, 11, 97
15, 90520, Control_c, 11, 11, 99
15, 90540, Control_c, 11, 11, 100
15, 90560, Control_c, 11, 11, 101
15, 90580, Control_c, 11, 11, 102
15, 90600, Control_c, 11, 11, 104
15, 90620, Control_c, 11, 11, 105
15, 90640, Control_c, 11, 11, 106
15, 90660, Control_c, 11, 11, 108
15, 90680, Control_c, 11, 11, 109
15, 90700, Control_c, 11, 11, 110
15, 90719, Note_on_c, 11, 79, 0
15, 90720, Note_on_c, 11, 74, 68
15, 90720, Control_c, 11, 11, 112
15, 90740, Control_c, 11, 11, 113
15, 90760, Control_c, 11, 11, 114
15, 90780, Control_c, 11, 11, 115
15, 90800, Control_c, 11, 11, 117
15, 90820, Control_c, 11, 11, 118
15, 90839, Note_on_c, 11, 74, 0
15, 90840, Note_on_c, 11, 77, 68
15, 90840, Control_c, 11, 11, 119
15, 90860, Control_c, 11, 11, 121
15, 90880, Control_c, 11, 11, 122
15, 90900, Control_c, 11, 11, 123
15, 90920, Control_c, 11, 11, 124
15, 90940, Control_c, 11, 11, 127
15, 90959, Note_on_c, 11, 77, 0
15, 90960, Note_on_c, 11, 75, 68
15, 90960, Control_c, 11, 11, 127
15, 90980, Control_c, 11, 11, 126
15, 91000, Control_c, 11, 11, 124
15, 91020, Control_c, 11, 11, 123
15, 91040, Control_c, 11, 11, 122
15, 91060, Control_c, 11, 11, 121
15, 91080, Control_c, 11, 11, 119
15, 91100, Control_c, 11, 11, 118
15, 91120, Control_c, 11, 11, 117
15, 91140, Control_c, 11, 11, 115
15, 91160, Control_c, 11, 11, 114
15, 91180, Control_c, 11, 11, 113
15, 91199, Note_on_c, 11, 75, 0
15, 91200, Note_on_c, 11, 74, 68
15, 91200, Control_c, 11, 11, 112
15, 91220, Control_c, 11, 11, 110
15, 91240, Control_c, 11, 11, 109
15, 91260, Control_c, 11, 11, 108
15, 91280, Control_c, 11, 11, 106
15, 91300, Control_c, 11, 11, 105
15, 91319, Note_on_c, 11, 74, 0
15, 91320, Note_on_c, 11, 72, 68
15, 91320, Control_c, 11, 11, 104
15, 91340, Control_c, 11, 11, 102
15, 91360, Control_c, 11, 11, 101
15, 91380, Control_c, 11, 11, 100
15, 91400, Control_c, 11, 11, 99
15, 91420, Control_c, 11, 11, 96
15, 91431, Note_on_c, 11, 72, 0
15, 91440, Note_on_c, 11, 71, 68
15, 91465, Note_on_c, 11, 71, 0
15, 91470, Note_on_c, 11, 67, 68
15, 91495, Note_on_c, 11, 67, 0
15, 91500, Note_on_c, 11, 67, 68
15, 91525, Note_on_c, 11, 67, 0
15, 91530, Note_on_c, 11, 67, 68
15, 91559, Note_on_c, 11, 67, 0
15, 91590, Note_on_c, 11, 68, 68
15, 91615, Note_on_c, 11, 68, 0
15, 91620, Note_on_c, 11, 68, 68
15, 91645, Note_on_c, 11, 68, 0
15, 91650, Note_on_c, 11, 68, 68
15, 91679, Note_on_c, 11, 68, 0
15, 91710, Note_on_c, 11, 67, 68
15, 91735, Note_on_c, 11, 67, 0
15, 91740, Note_on_c, 11, 67, 68
15, 91765, Note_on_c, 11, 67, 0
15, 91770, Note_on_c, 11, 67, 68
15, 91799, Note_on_c, 11, 67, 0
15, 91830, Note_on_c, 11, 72, 68
15, 91855, Note_on_c, 11, 72, 0
15, 91860, Note_on_c, 11, 72, 68
15, 91885, Note_on_c, 11, 72, 0
15, 91890, Note_on_c, 11, 72, 68
15, 91919, Note_on_c, 11, 72, 0
15, 91950, Note_on_c, 11, 71, 68
15, 91975, Note_on_c, 11, 71, 0
15, 91980, Note_on_c, 11, 71, 68
15, 92005, Note_on_c, 11, 71, 0
15, 92010, Note_on_c, 11, 71, 68
15, 92039, Note_on_c, 11, 71, 0
15, 92070, Note_on_c, 11, 75, 68
15, 92095, Note_on_c, 11, 75, 0
15, 92100, Note_on_c, 11, 75, 68
15, 92125, Note_on_c, 11, 75, 0
15, 92130, Note_on_c, 11, 75, 68
15, 92159, Note_on_c, 11, 75, 0
15, 92190, Note_on_c, 11, 74, 68
15, 92215, Note_on_c, 11, 74, 0
15, 92220, Note_on_c, 11, 74, 68
15, 92245, Note_on_c, 11, 74, 0
15, 92250, Note_on_c, 11, 74, 68
15, 92279, Note_on_c, 11, 74, 0
15, 92310, Note_on_c, 11, 72, 68
15, 92335, Note_on_c, 11, 72, 0
15, 92340, Note_on_c, 11, 72, 68
15, 92365, Note_on_c, 11, 72, 0
15, 92370, Note_on_c, 11, 72, 68
15, 92399, Note_on_c, 11, 72, 0
15, 92400, Control_c, 11, 11, 96
15, 92423, Control_c, 11, 11, 97
15, 92430, Note_on_c, 11, 71, 68
15, 92446, Control_c, 11, 11, 98
15, 92455, Note_on_c, 11, 71, 0
15, 92460, Note_on_c, 11, 71, 68
15, 92470, Control_c, 11, 11, 99
15, 92485, Note_on_c, 11, 71, 0
15, 92490, Note_on_c, 11, 71, 68
15, 92493, Control_c, 11, 11, 100
15, 92515, Note_on_c, 11, 71, 0
15, 92516, Control_c, 11, 11, 101
15, 92520, Note_on_c, 11, 71, 68
15, 92539, Control_c, 11, 11, 102
15, 92545, Note_on_c, 11, 71, 0
15, 92550, Note_on_c, 11, 71, 68
15, 92563, Control_c, 11, 11, 103
15, 92575, Note_on_c, 11, 71, 0
15, 92580, Note_on_c, 11, 71, 68
15, 92586, Control_c, 11, 11, 104
15, 92605, Note_on_c, 11, 71, 0
15, 92609, Control_c, 11, 11, 105
15, 92610, Note_on_c, 11, 71, 68
15, 92632, Control_c, 11, 11, 106
15, 92639, Note_on_c, 11, 71, 0
15, 92655, Control_c, 11, 11, 107
15, 92670, Note_on_c, 11, 68, 68
15, 92679, Control_c, 11, 11, 108
15, 92695, Note_on_c, 11, 68, 0
15, 92700, Note_on_c, 11, 68, 68
15, 92702, Control_c, 11, 11, 109
15, 92725, Note_on_c, 11, 68, 0
15, 92725, Control_c, 11, 11, 110
15, 92730, Note_on_c, 11, 68, 68
15, 92748, Control_c, 11, 11, 111
15, 92755, Note_on_c, 11, 68, 0
15, 92760, Note_on_c, 11, 68, 68
15, 92772, Control_c, 11, 11, 112
15, 92785, Note_on_c, 11, 68, 0
15, 92790, Note_on_c, 11, 68, 68
15, 92795, Control_c, 11, 11, 113
15, 92815, Note_on_c, 11, 68, 0
15, 92818, Control_c, 11, 11, 114
15, 92820, Note_on_c, 11, 68, 68
15, 92841, Control_c, 11, 11, 115
15, 92845, Note_on_c, 11, 68, 0
15, 92850, Note_on_c, 11, 68, 68
15, 92865, Control_c, 11, 11, 116
15, 92879, Note_on_c, 11, 68, 0
15, 92888, Control_c, 11, 11, 117
15, 92910, Note_on_c, 11, 67, 68
15, 92911, Control_c, 11, 11, 118
15, 92934, Control_c, 11, 11, 119
15, 92935, Note_on_c, 11, 67, 0
15, 92940, Note_on_c, 11, 67, 68
15, 92957, Control_c, 11, 11, 120
15, 92965, Note_on_c, 11, 67, 0
15, 92970, Note_on_c, 11, 67, 68
15, 92981, Control_c, 11, 11, 121
15, 92995, Note_on_c, 11, 67, 0
15, 93000, Note_on_c, 11, 67, 68
15, 93004, Control_c, 11, 11, 122
15, 93025, Note_on_c, 11, 67, 0
15, 93027, Control_c, 11, 11, 123
15, 93030, Note_on_c, 11, 67, 68
15, 93050, Control_c, 11, 11, 124
15, 93055, Note_on_c, 11, 67, 0
15, 93060, Note_on_c, 11, 67, 68
15, 93074, Control_c, 11, 11, 125
15, 93085, Note_on_c, 11, 67, 0
15, 93090, Note_on_c, 11, 67, 68
15, 93097, Control_c, 11, 11, 127
15, 93115, Note_on_c, 11, 67, 0
15, 93120, Note_on_c, 11, 55, 76
15, 93120, Note_on_c, 11, 64, 76
15, 93145, Note_on_c, 11, 55, 0
15, 93145, Note_on_c, 11, 64, 0
15, 93150, Note_on_c, 11, 64, 68
15, 93150, Note_on_c, 11, 55, 68
15, 93175, Note_on_c, 11, 64, 0
15, 93175, Note_on_c, 11, 55, 0
15, 93180, Note_on_c, 11, 64, 68
15, 93180, Note_on_c, 11, 55, 68
15, 93205, Note_on_c, 11, 64, 0
15, 93205, Note_on_c, 11, 55, 0
15, 93210, Note_on_c, 11, 55, 68
15, 93210, Note_on_c, 11, 64, 68
15, 93235, Note_on_c, 11, 55, 0
15, 93235, Note_on_c, 11, 64, 0
15, 93240, Note_on_c, 11, 64, 68
15, 93240, Note_on_c, 11, 55, 68
15, 93265, Note_on_c, 11, 64, 0
15, 93265, Note_on_c, 11, 55, 0
15, 93270, Note_on_c, 11, 55, 68
15, 93270, Note_on_c, 11, 64, 68
15, 93295, Note_on_c, 11, 55, 0
15, 93295, Note_on_c, 11, 64, 0
15, 93300, Note_on_c, 11, 64, 68
15, 93300, Note_on_c, 11, 55, 68
15, 93325, Note_on_c, 11, 64, 0
15, 93325, Note_on_c, 11, 55, 0
15, 93330, Note_on_c, 11, 64, 68
15, 93330, Note_on_c, 11, 55, 68
15, 93355, Note_on_c, 11, 64, 0
15, 93355, Note_on_c, 11, 55, 0
15, 93360, Note_on_c, 11, 65, 52
15, 93385, Note_on_c, 11, 65, 0
15, 93390, Note_on_c, 11, 68, 52
15, 93415, Note_on_c, 11, 68, 0
15, 93420, Note_on_c, 11, 68, 52
15, 93445, Note_on_c, 11, 68, 0
15, 93450, Note_on_c, 11, 68, 52
15, 93479, Note_on_c, 11, 68, 0
15, 93510, Note_on_c, 11, 68, 52
15, 93535, Note_on_c, 11, 68, 0
15, 93540, Note_on_c, 11, 68, 52
15, 93565, Note_on_c, 11, 68, 0
15, 93570, Note_on_c, 11, 68, 52
15, 93599, Note_on_c, 11, 68, 0
15, 93630, Note_on_c, 11, 68, 52
15, 93655, Note_on_c, 11, 68, 0
15, 93660, Note_on_c, 11, 68, 52
15, 93685, Note_on_c, 11, 68, 0
15, 93690, Note_on_c, 11, 68, 52
15, 93719, Note_on_c, 11, 68, 0
15, 93750, Note_on_c, 11, 68, 52
15, 93775, Note_on_c, 11, 68, 0
15, 93780, Note_on_c, 11, 68, 52
15, 93805, Note_on_c, 11, 68, 0
15, 93810, Note_on_c, 11, 68, 52
15, 93839, Note_on_c, 11, 68, 0
15, 93870, Note_on_c, 11, 68, 52
15, 93895, Note_on_c, 11, 68, 0
15, 93900, Note_on_c, 11, 68, 52
15, 93925, Note_on_c, 11, 68, 0
15, 93930, Note_on_c, 11, 68, 52
15, 93959, Note_on_c, 11, 68, 0
15, 93990, Note_on_c, 11, 68, 52
15, 94015, Note_on_c, 11, 68, 0
15, 94020, Note_on_c, 11, 68, 52
15, 94045, Note_on_c, 11, 68, 0
15, 94050, Note_on_c, 11, 68, 52
15, 94079, Note_on_c, 11, 68, 0
15, 94110, Note_on_c, 11, 68, 52
15, 94135, Note_on_c, 11, 68, 0
15, 94140, Note_on_c, 11, 68, 52
15, 94165, Note_on_c, 11, 68, 0
15, 94170, Note_on_c, 11, 68, 52
15, 94199, Note_on_c, 11, 68, 0
15, 94230, Note_on_c, 11, 68, 52
15, 94255, Note_on_c, 11, 68, 0
15, 94260, Note_on_c, 11, 68, 52
15, 94285, Note_on_c, 11, 68, 0
15, 94290, Note_on_c, 11, 68, 52
15, 94319, Note_on_c, 11, 68, 0
15, 94350, Note_on_c, 11, 68, 53
15, 94375, Note_on_c, 11, 68, 0
15, 94380, Note_on_c, 11, 68, 55
15, 94405, Note_on_c, 11, 68, 0
15, 94410, Note_on_c, 11, 68, 56
15, 94439, Note_on_c, 11, 68, 0
15, 94470, Note_on_c, 11, 68, 59
15, 94495, Note_on_c, 11, 68, 0
15, 94500, Note_on_c, 11, 68, 61
15, 94525, Note_on_c, 11, 68, 0
15, 94530, Note_on_c, 11, 68, 62
15, 94559, Note_on_c, 11, 68, 0
15, 94590, Note_on_c, 11, 71, 65
15, 94615, Note_on_c, 11, 71, 0
15, 94620, Note_on_c, 11, 71, 67
15, 94645, Note_on_c, 11, 71, 0
15, 94650, Note_on_c, 11, 71, 68
15, 94679, Note_on_c, 11, 71, 0
15, 94710, Note_on_c, 11, 71, 71
15, 94735, Note_on_c, 11, 71, 0
15, 94740, Note_on_c, 11, 71, 73
15, 94765, Note_on_c, 11, 71, 0
15, 94770, Note_on_c, 11, 71, 74
15, 94799, Note_on_c, 11, 71, 0
15, 94830, Note_on_c, 11, 72, 76
15, 94855, Note_on_c, 11, 72, 0
15, 94860, Note_on_c, 11, 72, 76
15, 94885, Note_on_c, 11, 72, 0
15, 94890, Note_on_c, 11, 72, 76
15, 94915, Note_on_c, 11, 72, 0
15, 94920, Note_on_c, 11, 68, 76
15, 94945, Note_on_c, 11, 68, 0
15, 94950, Note_on_c, 11, 68, 76
15, 94975, Note_on_c, 11, 68, 0
15, 94980, Note_on_c, 11, 68, 76
15, 95005, Note_on_c, 11, 68, 0
15, 95010, Note_on_c, 11, 68, 76
15, 95035, Note_on_c, 11, 68, 0
15, 95040, Note_on_c, 11, 68, 52
15, 95065, Note_on_c, 11, 68, 0
15, 95070, Note_on_c, 11, 68, 52
15, 95095, Note_on_c, 11, 68, 0
15, 95100, Note_on_c, 11, 68, 52
15, 95125, Note_on_c, 11, 68, 0
15, 95130, Note_on_c, 11, 68, 52
15, 95155, Note_on_c, 11, 68, 0
15, 95160, Note_on_c, 11, 66, 52
15, 95185, Note_on_c, 11, 66, 0
15, 95190, Note_on_c, 11, 66, 52
15, 95215, Note_on_c, 11, 66, 0
15, 95220, Note_on_c, 11, 66, 52
15, 95245, Note_on_c, 11, 66, 0
15, 95250, Note_on_c, 11, 66, 52
15, 95275, Note_on_c, 11, 66, 0
15, 95280, Note_on_c, 11, 66, 52
15, 95305, Note_on_c, 11, 66, 0
15, 95310, Note_on_c, 11, 66, 56
15, 95335, Note_on_c, 11, 66, 0
15, 95340, Note_on_c, 11, 66, 60
15, 95365, Note_on_c, 11, 66, 0
15, 95370, Note_on_c, 11, 66, 64
15, 95395, Note_on_c, 11, 66, 0
15, 95400, Note_on_c, 11, 67, 68
15, 95425, Note_on_c, 11, 67, 0
15, 95430, Note_on_c, 11, 67, 64
15, 95455, Note_on_c, 11, 67, 0
15, 95460, Note_on_c, 11, 67, 60
15, 95485, Note_on_c, 11, 67, 0
15, 95490, Note_on_c, 11, 67, 56
15, 95519, Note_on_c, 11, 67, 0
15, 95550, Note_on_c, 11, 67, 52
15, 95575, Note_on_c, 11, 67, 0
15, 95580, Note_on_c, 11, 67, 52
15, 95605, Note_on_c, 11, 67, 0
15, 95610, Note_on_c, 11, 67, 52
15, 95639, Note_on_c, 11, 67, 0
15, 95670, Note_on_c, 11, 71, 52
15, 95695, Note_on_c, 11, 71, 0
15, 95700, Note_on_c, 11, 71, 52
15, 95725, Note_on_c, 11, 71, 0
15, 95730, Note_on_c, 11, 71, 52
15, 95755, Note_on_c, 11, 71, 0
15, 95760, Note_on_c, 11, 72, 52
15, 95999, Note_on_c, 11, 72, 0
15, 96000, Note_on_c, 11, 67, 52
15, 96231, Note_on_c, 11, 67, 0
15, 96240, Note_on_c, 11, 63, 52
15, 96359, Note_on_c, 11, 63, 0
15, 96360, Note_on_c, 11, 67, 52
15, 96479, Note_on_c, 11, 67, 0
15, 96480, Note_on_c, 11, 72, 52
15, 96711, Note_on_c, 11, 72, 0
15, 96720, Note_on_c, 11, 74, 52
15, 96959, Note_on_c, 11, 74, 0
15, 96960, Note_on_c, 11, 75, 68
15, 97139, Note_on_c, 11, 75, 0
15, 97140, Note_on_c, 11, 74, 52
15, 97169, Note_on_c, 11, 74, 0
15, 97170, Note_on_c, 11, 72, 52
15, 97195, Note_on_c, 11, 72, 0
15, 97200, Note_on_c, 11, 72, 52
15, 97319, Note_on_c, 11, 72, 0
15, 97320, Note_on_c, 11, 71, 52
15, 97364, Note_on_c, 11, 71, 0
15, 97440, Note_on_c, 11, 71, 52
15, 97559, Note_on_c, 11, 71, 0
15, 97710, Note_on_c, 11, 74, 76
15, 97739, Note_on_c, 11, 74, 0
15, 97740, Note_on_c, 11, 72, 76
15, 97769, Note_on_c, 11, 72, 0
15, 97770, Note_on_c, 11, 74, 76
15, 97799, Note_on_c, 11, 74, 0
15, 97830, Note_on_c, 11, 74, 76
15, 97859, Note_on_c, 11, 74, 0
15, 97860, Note_on_c, 11, 72, 76
15, 97889, Note_on_c, 11, 72, 0
15, 97890, Note_on_c, 11, 74, 76
15, 97919, Note_on_c, 11, 74, 0
15, 97950, Note_on_c, 11, 74, 76
15, 97979, Note_on_c, 11, 74, 0
15, 97980, Note_on_c, 11, 72, 76
15, 98009, Note_on_c, 11, 72, 0
15, 98010, Note_on_c, 11, 74, 76
15, 98039, Note_on_c, 11, 74, 0
15, 98070, Note_on_c, 11, 74, 76
15, 98099, Note_on_c, 11, 74, 0
15, 98100, Note_on_c, 11, 72, 76
15, 98129, Note_on_c, 11, 72, 0
15, 98130, Note_on_c, 11, 74, 76
15, 98159, Note_on_c, 11, 74, 0
15, 98190, Note_on_c, 11, 75, 84
15, 98219, Note_on_c, 11, 75, 0
15, 98220, Note_on_c, 11, 72, 76
15, 98249, Note_on_c, 11, 72, 0
15, 98250, Note_on_c, 11, 75, 75
15, 98279, Note_on_c, 11, 75, 0
15, 98310, Note_on_c, 11, 75, 71
15, 98339, Note_on_c, 11, 75, 0
15, 98340, Note_on_c, 11, 72, 70
15, 98369, Note_on_c, 11, 72, 0
15, 98370, Note_on_c, 11, 75, 68
15, 98399, Note_on_c, 11, 75, 0
15, 98430, Note_on_c, 11, 75, 64
15, 98459, Note_on_c, 11, 75, 0
15, 98460, Note_on_c, 11, 72, 63
15, 98489, Note_on_c, 11, 72, 0
15, 98490, Note_on_c, 11, 75, 61
15, 98519, Note_on_c, 11, 75, 0
15, 98550, Note_on_c, 11, 75, 58
15, 98579, Note_on_c, 11, 75, 0
15, 98580, Note_on_c, 11, 72, 56
15, 98609, Note_on_c, 11, 72, 0
15, 98610, Note_on_c, 11, 75, 54
15, 98639, Note_on_c, 11, 75, 0
15, 98670, Note_on_c, 11, 72, 52
15, 98699, Note_on_c, 11, 72, 0
15, 98700, Note_on_c, 11, 63, 52
15, 98729, Note_on_c, 11, 63, 0
15, 98730, Note_on_c, 11, 72, 52
15, 98759, Note_on_c, 11, 72, 0
15, 98790, Note_on_c, 11, 72, 52
15, 98819, Note_on_c, 11, 72, 0
15, 98820, Note_on_c, 11, 63, 52
15, 98849, Note_on_c, 11, 63, 0
15, 98850, Note_on_c, 11, 72, 52
15, 98879, Note_on_c, 11, 72, 0
15, 98910, Note_on_c, 11, 71, 52
15, 98939, Note_on_c, 11, 71, 0
15, 98940, Note_on_c, 11, 65, 52
15, 98969, Note_on_c, 11, 65, 0
15, 98970, Note_on_c, 11, 71, 52
15, 98999, Note_on_c, 11, 71, 0
15, 99030, Note_on_c, 11, 71, 52
15, 99059, Note_on_c, 11, 71, 0
15, 99060, Note_on_c, 11, 65, 52
15, 99089, Note_on_c, 11, 65, 0
15, 99090, Note_on_c, 11, 71, 52
15, 99119, Note_on_c, 11, 71, 0
15, 99150, Note_on_c, 11, 72, 52
15, 99179, Note_on_c, 11, 72, 0
15, 99180, Note_on_c, 11, 63, 52
15, 99209, Note_on_c, 11, 63, 0
15, 99210, Note_on_c, 11, 72, 52
15, 99239, Note_on_c, 11, 72, 0
15, 99240, Note_on_c, 11, 63, 52
15, 99269, Note_on_c, 11, 63, 0
15, 99270, Note_on_c, 11, 72, 52
15, 99299, Note_on_c, 11, 72, 0
15, 99300, Note_on_c, 11, 63, 52
15, 99329, Note_on_c, 11, 63, 0
15, 99330, Note_on_c, 11, 72, 52
15, 99355, Note_on_c, 11, 72, 0
15, 99360, Note_on_c, 11, 63, 52
15, 99389, Note_on_c, 11, 63, 0
15, 99390, Note_on_c, 11, 72, 52
15, 99419, Note_on_c, 11, 72, 0
15, 99420, Note_on_c, 11, 63, 52
15, 99449, Note_on_c, 11, 63, 0
15, 99450, Note_on_c, 11, 72, 52
15, 99479, Note_on_c, 11, 72, 0
15, 99480, Note_on_c, 11, 63, 52
15, 99509, Note_on_c, 11, 63, 0
15, 99510, Note_on_c, 11, 72, 52
15, 99539, Note_on_c, 11, 72, 0
15, 99540, Note_on_c, 11, 63, 52
15, 99569, Note_on_c, 11, 63, 0
15, 99570, Note_on_c, 11, 72, 52
15, 99599, Note_on_c, 11, 72, 0
15, 99630, Note_on_c, 11, 72, 53
15, 99659, Note_on_c, 11, 72, 0
15, 99660, Note_on_c, 11, 63, 55
15, 99689, Note_on_c, 11, 63, 0
15, 99690, Note_on_c, 11, 72, 56
15, 99719, Note_on_c, 11, 72, 0
15, 99750, Note_on_c, 11, 72, 59
15, 99779, Note_on_c, 11, 72, 0
15, 99780, Note_on_c, 11, 63, 61
15, 99809, Note_on_c, 11, 63, 0
15, 99810, Note_on_c, 11, 72, 62
15, 99839, Note_on_c, 11, 72, 0
15, 99870, Note_on_c, 11, 71, 65
15, 99899, Note_on_c, 11, 71, 0
15, 99900, Note_on_c, 11, 65, 67
15, 99929, Note_on_c, 11, 65, 0
15, 99930, Note_on_c, 11, 71, 68
15, 99959, Note_on_c, 11, 71, 0
15, 99990, Note_on_c, 11, 71, 71
15, 100019, Note_on_c, 11, 71, 0
15, 100020, Note_on_c, 11, 65, 73
15, 100049, Note_on_c, 11, 65, 0
15, 100050, Note_on_c, 11, 71, 74
15, 100079, Note_on_c, 11, 71, 0
15, 100080, Note_on_c, 11, 72, 76
15, 100080, Note_on_c, 11, 63, 76
15, 100080, Note_on_c, 11, 56, 76
15, 100199, Note_on_c, 11, 72, 0
15, 100199, Note_on_c, 11, 63, 0
15, 100199, Note_on_c, 11, 56, 0
15, 101160, Note_on_c, 11, 60, 52
15, 101249, Note_on_c, 11, 60, 0
15, 101280, Note_on_c, 11, 56, 52
15, 101369, Note_on_c, 11, 56, 0
15, 101400, Note_on_c, 11, 60, 52
15, 101489, Note_on_c, 11, 60, 0
15, 101520, Note_on_c, 11, 56, 52
15, 101609, Note_on_c, 11, 56, 0
15, 101640, Note_on_c, 11, 60, 52
15, 101729, Note_on_c, 11, 60, 0
15, 101760, Note_on_c, 11, 56, 52
15, 101849, Note_on_c, 11, 56, 0
15, 101880, Note_on_c, 11, 72, 52
15, 101969, Note_on_c, 11, 72, 0
15, 102000, Note_on_c, 11, 68, 44
15, 102359, Note_on_c, 11, 68, 0
15, 102360, Note_on_c, 11, 72, 44
15, 102479, Note_on_c, 11, 72, 0
15, 102480, Note_on_c, 11, 75, 44
15, 102599, Note_on_c, 11, 75, 0
15, 102600, Note_on_c, 11, 72, 44
15, 102719, Note_on_c, 11, 72, 0
15, 102720, Note_on_c, 11, 68, 44
15, 102839, Note_on_c, 11, 68, 0
15, 102840, Note_on_c, 11, 66, 44
15, 103011, Note_on_c, 11, 66, 0
15, 103020, Note_on_c, 11, 65, 44
15, 103131, Note_on_c, 11, 65, 0
15, 103140, Note_on_c, 11, 68, 44
15, 103251, Note_on_c, 11, 68, 0
15, 103260, Note_on_c, 11, 73, 44
15, 103371, Note_on_c, 11, 73, 0
15, 103380, Note_on_c, 11, 77, 44
15, 103491, Note_on_c, 11, 77, 0
15, 103500, Note_on_c, 11, 75, 44
15, 103611, Note_on_c, 11, 75, 0
15, 103620, Note_on_c, 11, 72, 44
15, 103731, Note_on_c, 11, 72, 0
15, 103740, Note_on_c, 11, 68, 44
15, 103851, Note_on_c, 11, 68, 0
15, 103860, Note_on_c, 11, 66, 44
15, 103979, Note_on_c, 11, 66, 0
15, 103980, Note_on_c, 11, 65, 44
15, 104039, Note_on_c, 11, 65, 0
15, 104100, Note_on_c, 11, 65, 44
15, 104159, Note_on_c, 11, 65, 0
15, 104160, Note_on_c, 11, 64, 44
15, 104219, Note_on_c, 11, 64, 0
15, 104220, Note_on_c, 11, 65, 44
15, 104279, Note_on_c, 11, 65, 0
15, 104340, Note_on_c, 11, 65, 44
15, 104399, Note_on_c, 11, 65, 0
15, 104400, Note_on_c, 11, 65, 44
15, 104459, Note_on_c, 11, 65, 0
15, 104460, Note_on_c, 11, 65, 44
15, 104519, Note_on_c, 11, 65, 0
15, 104580, Note_on_c, 11, 77, 60
15, 104639, Note_on_c, 11, 77, 0
15, 104640, Note_on_c, 11, 77, 44
15, 104699, Note_on_c, 11, 77, 0
15, 104700, Note_on_c, 11, 65, 44
15, 104759, Note_on_c, 11, 65, 0
15, 104820, Note_on_c, 11, 65, 44
15, 104879, Note_on_c, 11, 65, 0
15, 104880, Note_on_c, 11, 65, 44
15, 104939, Note_on_c, 11, 65, 0
15, 104940, Note_on_c, 11, 63, 44
15, 104999, Note_on_c, 11, 63, 0
15, 105060, Note_on_c, 11, 63, 44
15, 105119, Note_on_c, 11, 63, 0
15, 105120, Note_on_c, 11, 63, 44
15, 105179, Note_on_c, 11, 63, 0
15, 105180, Note_on_c, 11, 63, 44
15, 105239, Note_on_c, 11, 63, 0
15, 105300, Note_on_c, 11, 63, 44
15, 105359, Note_on_c, 11, 63, 0
15, 105360, Note_on_c, 11, 63, 44
15, 105419, Note_on_c, 11, 63, 0
15, 105420, Note_on_c, 11, 75, 44
15, 105479, Note_on_c, 11, 75, 0
15, 105520, Control_c, 11, 11, 96
15, 105540, Note_on_c, 11, 75, 76
15, 105599, Note_on_c, 11, 75, 0
15, 105600, Note_on_c, 11, 75, 60
15, 105600, Control_c, 11, 11, 96
15, 105630, Control_c, 11, 11, 99
15, 105659, Note_on_c, 11, 75, 0
15, 105660, Note_on_c, 11, 63, 60
15, 105660, Control_c, 11, 11, 101
15, 105690, Control_c, 11, 11, 104
15, 105719, Note_on_c, 11, 63, 0
15, 105720, Control_c, 11, 11, 106
15, 105750, Control_c, 11, 11, 109
15, 105780, Note_on_c, 11, 63, 60
15, 105780, Control_c, 11, 11, 112
15, 105810, Control_c, 11, 11, 114
15, 105839, Note_on_c, 11, 63, 0
15, 105840, Note_on_c, 11, 63, 60
15, 105840, Control_c, 11, 11, 117
15, 105870, Control_c, 11, 11, 119
15, 105899, Note_on_c, 11, 63, 0
15, 105900, Control_c, 11, 11, 122
15, 105900, Note_on_c, 11, 62, 60
15, 105930, Control_c, 11, 11, 127
15, 105952, Control_c, 11, 11, 125
15, 105959, Note_on_c, 11, 62, 0
15, 105973, Control_c, 11, 11, 124
15, 105995, Control_c, 11, 11, 122
15, 106017, Control_c, 11, 11, 120
15, 106020, Note_on_c, 11, 62, 60
15, 106038, Control_c, 11, 11, 118
15, 106060, Control_c, 11, 11, 117
15, 106079, Note_on_c, 11, 62, 0
15, 106080, Note_on_c, 11, 61, 60
15, 106082, Control_c, 11, 11, 115
15, 106103, Control_c, 11, 11, 113
15, 106125, Control_c, 11, 11, 112
15, 106139, Note_on_c, 11, 61, 0
15, 106140, Note_on_c, 11, 62, 60
15, 106147, Control_c, 11, 11, 110
15, 106168, Control_c, 11, 11, 108
15, 106190, Control_c, 11, 11, 106
15, 106199, Note_on_c, 11, 62, 0
15, 106212, Control_c, 11, 11, 105
15, 106233, Control_c, 11, 11, 103
15, 106255, Control_c, 11, 11, 101
15, 106260, Note_on_c, 11, 62, 60
15, 106277, Control_c, 11, 11, 99
15, 106298, Control_c, 11, 11, 96
15, 106319, Note_on_c, 11, 62, 0
15, 106320, Note_on_c, 11, 62, 60
15, 106379, Note_on_c, 11, 62, 0
15, 106380, Note_on_c, 11, 62, 60
15, 106439, Note_on_c, 11, 62, 0
15, 106500, Note_on_c, 11, 62, 60
15, 106559, Note_on_c, 11, 62, 0
15, 106560, Note_on_c, 11, 62, 60
15, 106619, Note_on_c, 11, 62, 0
15, 106620, Note_on_c, 11, 62, 60
15, 106679, Note_on_c, 11, 62, 0
15, 106740, Note_on_c, 11, 62, 60
15, 106791, Note_on_c, 11, 62, 0
15, 106800, Note_on_c, 11, 60, 60
15, 107631, Note_on_c, 11, 60, 0
15, 107640, Note_on_c, 11, 71, 60
15, 107759, Note_on_c, 11, 71, 0
15, 107760, Note_on_c, 11, 72, 60
15, 107760, Control_c, 11, 11, 96
15, 107806, Control_c, 11, 11, 97
15, 107853, Control_c, 11, 11, 98
15, 107899, Control_c, 11, 11, 99
15, 107946, Control_c, 11, 11, 100
15, 107992, Control_c, 11, 11, 101
15, 107999, Note_on_c, 11, 72, 0
15, 108000, Note_on_c, 11, 67, 60
15, 108039, Control_c, 11, 11, 102
15, 108085, Control_c, 11, 11, 103
15, 108119, Note_on_c, 11, 67, 0
15, 108120, Note_on_c, 11, 70, 60
15, 108132, Control_c, 11, 11, 104
15, 108178, Control_c, 11, 11, 105
15, 108225, Control_c, 11, 11, 106
15, 108231, Note_on_c, 11, 70, 0
15, 108240, Note_on_c, 11, 68, 60
15, 108271, Control_c, 11, 11, 107
15, 108317, Control_c, 11, 11, 108
15, 108364, Control_c, 11, 11, 109
15, 108410, Control_c, 11, 11, 110
15, 108457, Control_c, 11, 11, 111
15, 108479, Note_on_c, 11, 68, 0
15, 108480, Note_on_c, 11, 67, 60
15, 108503, Control_c, 11, 11, 112
15, 108550, Control_c, 11, 11, 113
15, 108596, Control_c, 11, 11, 114
15, 108599, Note_on_c, 11, 67, 0
15, 108600, Note_on_c, 11, 65, 60
15, 108643, Control_c, 11, 11, 115
15, 108689, Control_c, 11, 11, 116
15, 108711, Note_on_c, 11, 65, 0
15, 108720, Note_on_c, 11, 64, 60
15, 108735, Control_c, 11, 11, 117
15, 108782, Control_c, 11, 11, 118
15, 108828, Control_c, 11, 11, 119
15, 108839, Note_on_c, 11, 64, 0
15, 108840, Note_on_c, 11, 65, 60
15, 108875, Control_c, 11, 11, 120
15, 108921, Control_c, 11, 11, 121
15, 108959, Note_on_c, 11, 65, 0
15, 108960, Note_on_c, 11, 67, 60
15, 108968, Control_c, 11, 11, 122
15, 109014, Control_c, 11, 11, 123
15, 109061, Control_c, 11, 11, 124
15, 109079, Note_on_c, 11, 67, 0
15, 109080, Note_on_c, 11, 68, 60
15, 109107, Control_c, 11, 11, 125
15, 109191, Note_on_c, 11, 68, 0
15, 109198, Control_c, 11, 11, 96
15, 109200, Note_on_c, 11, 67, 68
15, 109200, Control_c, 11, 11, 96
15, 109220, Control_c, 11, 11, 97
15, 109240, Control_c, 11, 11, 99
15, 109260, Control_c, 11, 11, 100
15, 109280, Control_c, 11, 11, 101
15, 109300, Control_c, 11, 11, 102
15, 109320, Control_c, 11, 11, 104
15, 109340, Control_c, 11, 11, 105
15, 109360, Control_c, 11, 11, 106
15, 109380, Control_c, 11, 11, 108
15, 109400, Control_c, 11, 11, 109
15, 109420, Control_c, 11, 11, 110
15, 109440, Control_c, 11, 11, 112
15, 109460, Control_c, 11, 11, 113
15, 109480, Control_c, 11, 11, 114
15, 109500, Control_c, 11, 11, 115
15, 109520, Control_c, 11, 11, 117
15, 109540, Control_c, 11, 11, 118
15, 109560, Control_c, 11, 11, 119
15, 109580, Control_c, 11, 11, 121
15, 109600, Control_c, 11, 11, 122
15, 109620, Control_c, 11, 11, 123
15, 109640, Control_c, 11, 11, 124
15, 109660, Control_c, 11, 11, 127
15, 109679, Note_on_c, 11, 67, 0
15, 109680, Note_on_c, 11, 65, 52
15, 109799, Note_on_c, 11, 65, 0
15, 110160, Note_on_c, 11, 63, 52
15, 110279, Note_on_c, 11, 63, 0
15, 110610, Control_c, 11, 11, 96
15, 110640, Note_on_c, 11, 62, 68
15, 110640, Control_c, 11, 11, 96
15, 110660, Control_c, 11, 11, 98
15, 110680, Control_c, 11, 11, 99
15, 110700, Control_c, 11, 11, 101
15, 110720, Control_c, 11, 11, 103
15, 110740, Control_c, 11, 11, 105
15, 110760, Control_c, 11, 11, 106
15, 110780, Control_c, 11, 11, 108
15, 110800, Control_c, 11, 11, 110
15, 110820, Control_c, 11, 11, 112
15, 110840, Control_c, 11, 11, 113
15, 110860, Control_c, 11, 11, 115
15, 110880, Control_c, 11, 11, 117
15, 110900, Control_c, 11, 11, 118
15, 110920, Control_c, 11, 11, 120
15, 110940, Control_c, 11, 11, 122
15, 110960, Control_c, 11, 11, 124
15, 110980, Control_c, 11, 11, 127
15, 110999, Note_on_c, 11, 62, 0
15, 111000, Note_on_c, 11, 65, 68
15, 111000, Control_c, 11, 11, 127
15, 111013, Control_c, 11, 11, 124
15, 111027, Control_c, 11, 11, 120
15, 111040, Control_c, 11, 11, 117
15, 111053, Control_c, 11, 11, 113
15, 111059, Note_on_c, 11, 65, 0
15, 111060, Note_on_c, 11, 63, 68
15, 111067, Control_c, 11, 11, 110
15, 111080, Control_c, 11, 11, 106
15, 111093, Control_c, 11, 11, 103
15, 111107, Control_c, 11, 11, 96
15, 111111, Note_on_c, 11, 63, 0
15, 111120, Note_on_c, 11, 60, 68
15, 111275, Note_on_c, 11, 60, 0
15, 111280, Note_on_c, 11, 72, 68
15, 111319, Note_on_c, 11, 72, 0
15, 111320, Note_on_c, 11, 71, 68
15, 111355, Note_on_c, 11, 71, 0
15, 111360, Note_on_c, 11, 74, 68
15, 111399, Note_on_c, 11, 74, 0
15, 111400, Note_on_c, 11, 72, 68
15, 111435, Note_on_c, 11, 72, 0
15, 111440, Note_on_c, 11, 75, 68
15, 111469, Note_on_c, 11, 75, 0
15, 111480, Note_on_c, 11, 72, 68
15, 111509, Note_on_c, 11, 72, 0
15, 111520, Note_on_c, 11, 67, 68
15, 111549, Note_on_c, 11, 67, 0
15, 111560, Note_on_c, 11, 63, 68
15, 111599, Note_on_c, 11, 63, 0
15, 111600, Note_on_c, 11, 62, 68
15, 111600, Control_c, 11, 11, 96
15, 111620, Control_c, 11, 11, 99
15, 111640, Control_c, 11, 11, 101
15, 111660, Control_c, 11, 11, 104
15, 111680, Control_c, 11, 11, 106
15, 111700, Control_c, 11, 11, 109
15, 111720, Control_c, 11, 11, 112
15, 111740, Control_c, 11, 11, 114
15, 111760, Control_c, 11, 11, 117
15, 111780, Control_c, 11, 11, 119
15, 111800, Control_c, 11, 11, 122
15, 111820, Control_c, 11, 11, 124
15, 111840, Control_c, 11, 11, 127
15, 111860, Control_c, 11, 11, 124
15, 111880, Control_c, 11, 11, 122
15, 111900, Control_c, 11, 11, 119
15, 111920, Control_c, 11, 11, 117
15, 111940, Control_c, 11, 11, 114
15, 111959, Note_on_c, 11, 62, 0
15, 111960, Note_on_c, 11, 65, 68
15, 111960, Control_c, 11, 11, 112
15, 111980, Control_c, 11, 11, 109
15, 112000, Control_c, 11, 11, 106
15, 112019, Note_on_c, 11, 65, 0
15, 112020, Note_on_c, 11, 63, 68
15, 112020, Control_c, 11, 11, 104
15, 112040, Control_c, 11, 11, 101
15, 112060, Control_c, 11, 11, 96
15, 112071, Note_on_c, 11, 63, 0
15, 112080, Note_on_c, 11, 60, 68
15, 112115, Note_on_c, 11, 60, 0
15, 112120, Note_on_c, 11, 72, 68
15, 112159, Note_on_c, 11, 72, 0
15, 112160, Note_on_c, 11, 71, 68
15, 112195, Note_on_c, 11, 71, 0
15, 112200, Note_on_c, 11, 74, 68
15, 112239, Note_on_c, 11, 74, 0
15, 112240, Note_on_c, 11, 72, 68
15, 112275, Note_on_c, 11, 72, 0
15, 112280, Note_on_c, 11, 75, 68
15, 112309, Note_on_c, 11, 75, 0
15, 112320, Note_on_c, 11, 72, 68
15, 112349, Note_on_c, 11, 72, 0
15, 112360, Note_on_c, 11, 79, 68
15, 112389, Note_on_c, 11, 79, 0
15, 112400, Note_on_c, 11, 75, 68
15, 112429, Note_on_c, 11, 75, 0
15, 112440, Note_on_c, 11, 72, 68
15, 112469, Note_on_c, 11, 72, 0
15, 112480, Note_on_c, 11, 67, 68
15, 112509, Note_on_c, 11, 67, 0
15, 112520, Note_on_c, 11, 63, 68
15, 112549, Note_on_c, 11, 63, 0
15, 112560, Note_on_c, 11, 62, 68
15, 112715, Note_on_c, 11, 62, 0
15, 112720, Note_on_c, 11, 65, 68
15, 112759, Note_on_c, 11, 65, 0
15, 112760, Note_on_c, 11, 63, 68
15, 112795, Note_on_c, 11, 63, 0
15, 112800, Note_on_c, 11, 62, 68
15, 112829, Note_on_c, 11, 62, 0
15, 112840, Note_on_c, 11, 68, 68
15, 112879, Note_on_c, 11, 68, 0
15, 112880, Note_on_c, 11, 67, 68
15, 112915, Note_on_c, 11, 67, 0
15, 112920, Note_on_c, 11, 65, 68
15, 112949, Note_on_c, 11, 65, 0
15, 112960, Note_on_c, 11, 74, 68
15, 112999, Note_on_c, 11, 74, 0
15, 113000, Note_on_c, 11, 72, 68
15, 113035, Note_on_c, 11, 72, 0
15, 113040, Note_on_c, 11, 71, 68
15, 113040, Control_c, 11, 11, 96
15, 113069, Note_on_c, 11, 71, 0
15, 113080, Note_on_c, 11, 77, 68
15, 113080, Control_c, 11, 11, 99
15, 113119, Note_on_c, 11, 77, 0
15, 113120, Note_on_c, 11, 75, 68
15, 113120, Control_c, 11, 11, 101
15, 113155, Note_on_c, 11, 75, 0
15, 113160, Note_on_c, 11, 74, 68
15, 113160, Control_c, 11, 11, 104
15, 113189, Note_on_c, 11, 74, 0
15, 113200, Control_c, 11, 11, 106
15, 113200, Note_on_c, 11, 80, 68
15, 113239, Note_on_c, 11, 80, 0
15, 113240, Control_c, 11, 11, 109
15, 113240, Note_on_c, 11, 79, 68
15, 113275, Note_on_c, 11, 79, 0
15, 113280, Control_c, 11, 11, 112
15, 113280, Note_on_c, 11, 77, 68
15, 113309, Note_on_c, 11, 77, 0
15, 113320, Control_c, 11, 11, 114
15, 113320, Note_on_c, 11, 77, 68
15, 113359, Note_on_c, 11, 77, 0
15, 113360, Note_on_c, 11, 75, 68
15, 113360, Control_c, 11, 11, 117
15, 113395, Note_on_c, 11, 75, 0
15, 113400, Note_on_c, 11, 74, 68
15, 113400, Control_c, 11, 11, 119
15, 113429, Note_on_c, 11, 74, 0
15, 113440, Note_on_c, 11, 77, 68
15, 113440, Control_c, 11, 11, 122
15, 113479, Note_on_c, 11, 77, 0
15, 113480, Note_on_c, 11, 75, 68
15, 113500, Control_c, 11, 11, 127
15, 113515, Note_on_c, 11, 75, 0
15, 113520, Note_on_c, 11, 74, 68
15, 113520, Control_c, 11, 11, 127
15, 113560, Control_c, 11, 11, 124
15, 113564, Note_on_c, 11, 74, 0
15, 113580, Note_on_c, 11, 72, 68
15, 113600, Control_c, 11, 11, 122
15, 113624, Note_on_c, 11, 72, 0
15, 113640, Control_c, 11, 11, 119
15, 113640, Note_on_c, 11, 71, 68
15, 113680, Control_c, 11, 11, 117
15, 113684, Note_on_c, 11, 71, 0
15, 113700, Note_on_c, 11, 68, 68
15, 113720, Control_c, 11, 11, 114
15, 113744, Note_on_c, 11, 68, 0
15, 113760, Control_c, 11, 11, 112
15, 113760, Note_on_c, 11, 67, 68
15, 113800, Control_c, 11, 11, 109
15, 113804, Note_on_c, 11, 67, 0
15, 113820, Note_on_c, 11, 65, 68
15, 113840, Control_c, 11, 11, 106
15, 113864, Note_on_c, 11, 65, 0
15, 113880, Control_c, 11, 11, 104
15, 113880, Note_on_c, 11, 63, 68
15, 113920, Control_c, 11, 11, 101
15, 113924, Note_on_c, 11, 63, 0
15, 113940, Note_on_c, 11, 62, 68
15, 113960, Control_c, 11, 11, 96
15, 113984, Note_on_c, 11, 62, 0
15, 114238, Control_c, 11, 11, 127
15, 114240, Note_on_c, 11, 60, 48
15, 114419, Note_on_c, 11, 60, 0
15, 114460, Note_on_c, 11, 62, 48
15, 114479, Note_on_c, 11, 62, 0
15, 114480, Note_on_c, 11, 60, 48
15, 114569, Note_on_c, 11, 60, 0
15, 114570, Note_on_c, 11, 59, 48
15, 114599, Note_on_c, 11, 59, 0
15, 114600, Note_on_c, 11, 60, 48
15, 114689, Note_on_c, 11, 60, 0
15, 114690, Note_on_c, 11, 62, 48
15, 114719, Note_on_c, 11, 62, 0
15, 114960, Note_on_c, 11, 63, 48
15, 115079, Note_on_c, 11, 63, 0
15, 115080, Note_on_c, 11, 60, 48
15, 115199, Note_on_c, 11, 60, 0
15, 115260, Note_on_c, 11, 67, 47
15, 115304, Note_on_c, 11, 67, 0
15, 115320, Note_on_c, 11, 65, 47
15, 115364, Note_on_c, 11, 65, 0
15, 115380, Note_on_c, 11, 63, 47
15, 115424, Note_on_c, 11, 63, 0
15, 115440, Note_on_c, 11, 62, 47
15, 115484, Note_on_c, 11, 62, 0
15, 115500, Note_on_c, 11, 60, 47
15, 115544, Note_on_c, 11, 60, 0
15, 115560, Note_on_c, 11, 63, 46
15, 115589, Note_on_c, 11, 63, 0
15, 115590, Note_on_c, 11, 62, 46
15, 115619, Note_on_c, 11, 62, 0
15, 115740, Note_on_c, 11, 63, 46
15, 115784, Note_on_c, 11, 63, 0
15, 115800, Note_on_c, 11, 65, 46
15, 115844, Note_on_c, 11, 65, 0
15, 115860, Note_on_c, 11, 67, 45
15, 115904, Note_on_c, 11, 67, 0
15, 116040, Note_on_c, 11, 68, 45
15, 116279, Note_on_c, 11, 68, 0
15, 116280, Note_on_c, 11, 67, 44
15, 116339, Note_on_c, 11, 67, 0
15, 116340, Note_on_c, 11, 65, 44
15, 116399, Note_on_c, 11, 65, 0
15, 116640, Note_on_c, 11, 65, 43
15, 116699, Note_on_c, 11, 65, 0
15, 116700, Note_on_c, 11, 63, 43
15, 116751, Note_on_c, 11, 63, 0
15, 116760, Note_on_c, 11, 65, 42
15, 116804, Note_on_c, 11, 65, 0
15, 116820, Note_on_c, 11, 62, 42
15, 116864, Note_on_c, 11, 62, 0
15, 117180, Note_on_c, 11, 60, 41
15, 117231, Note_on_c, 11, 60, 0
15, 117240, Note_on_c, 11, 62, 41
15, 117291, Note_on_c, 11, 62, 0
15, 117300, Note_on_c, 11, 59, 41
15, 117359, Note_on_c, 11, 59, 0
15, 117480, Note_on_c, 11, 60, 44
15, 117599, Note_on_c, 11, 60, 0
15, 117720, Note_on_c, 11, 60, 44
15, 117771, Note_on_c, 11, 60, 0
15, 117780, Note_on_c, 11, 60, 44
15, 117831, Note_on_c, 11, 60, 0
15, 117840, Note_on_c, 11, 60, 44
15, 117959, Note_on_c, 11, 60, 0
15, 118080, Note_on_c, 11, 72, 76
15, 118080, Note_on_c, 11, 63, 76
15, 118080, Note_on_c, 11, 55, 76
15, 118199, Note_on_c, 11, 72, 0
15, 118199, Note_on_c, 11, 63, 0
15, 118199, Note_on_c, 11, 55, 0
15, 118320, Note_on_c, 11, 60, 52
15, 118679, Note_on_c, 11, 60, 0
15, 118679, End_track
16, 0, Start_track
16, 0, Title_t, "Violin II"
16, 0, MIDI_port, 0
16, 0, Program_c, 12, 48
16, 0, Control_c, 12, 7, 96
16, 0, Control_c, 12, 10, 24
16, 0, Control_c, 12, 11, 127
16, 240, Note_on_c, 12, 55, 44
16, 479, Note_on_c, 12, 55, 0
16, 720, Note_on_c, 12, 55, 44
16, 959, Note_on_c, 12, 55, 0
16, 1200, Note_on_c, 12, 55, 44
16, 1431, Note_on_c, 12, 55, 0
16, 1440, Note_on_c, 12, 55, 44
16, 1671, Note_on_c, 12, 55, 0
16, 1680, Note_on_c, 12, 55, 44
16, 1799, Note_on_c, 12, 55, 0
16, 1800, Note_on_c, 12, 66, 44
16, 1919, Note_on_c, 12, 66, 0
16, 1920, Note_on_c, 12, 67, 44
16, 2039, Note_on_c, 12, 67, 0
16, 2160, Note_on_c, 12, 59, 44
16, 2399, Note_on_c, 12, 59, 0
16, 2640, Note_on_c, 12, 56, 60
16, 2760, Control_c, 12, 11, 112
16, 2880, Control_c, 12, 11, 104
16, 2910, Control_c, 12, 11, 103
16, 2940, Control_c, 12, 11, 102
16, 2970, Control_c, 12, 11, 101
16, 2999, Note_on_c, 12, 56, 0
16, 3000, Control_c, 12, 11, 100
16, 3000, Note_on_c, 12, 55, 60
16, 3030, Control_c, 12, 11, 99
16, 3060, Control_c, 12, 11, 98
16, 3090, Control_c, 12, 11, 97
16, 3111, Note_on_c, 12, 55, 0
16, 3120, Control_c, 12, 11, 96
16, 3120, Note_on_c, 12, 55, 60
16, 3239, Note_on_c, 12, 55, 0
16, 3240, Note_on_c, 12, 56, 60
16, 3351, Note_on_c, 12, 56, 0
16, 3360, Note_on_c, 12, 55, 60
16, 3471, Note_on_c, 12, 55, 0
16, 3480, Note_on_c, 12, 55, 60
16, 3591, Note_on_c, 12, 55, 0
16, 3600, Note_on_c, 12, 55, 60
16, 3711, Note_on_c, 12, 55, 0
16, 3720, Note_on_c, 12, 56, 60
16, 3801, Note_on_c, 12, 56, 0
16, 3810, Note_on_c, 12, 56, 60
16, 3835, Note_on_c, 12, 56, 0
16, 3840, Note_on_c, 12, 55, 60
16, 3959, Note_on_c, 12, 55, 0
16, 4020, Note_on_c, 12, 60, 60
16, 4039, Note_on_c, 12, 60, 0
16, 4040, Note_on_c, 12, 60, 60
16, 4059, Note_on_c, 12, 60, 0
16, 4060, Note_on_c, 12, 60, 60
16, 4075, Note_on_c, 12, 60, 0
16, 4080, Note_on_c, 12, 60, 60
16, 4199, Note_on_c, 12, 60, 0
16, 4320, Control_c, 12, 11, 127
16, 4500, Note_on_c, 12, 60, 44
16, 4519, Note_on_c, 12, 60, 0
16, 4520, Note_on_c, 12, 60, 44
16, 4539, Note_on_c, 12, 60, 0
16, 4540, Note_on_c, 12, 60, 44
16, 4555, Note_on_c, 12, 60, 0
16, 4560, Note_on_c, 12, 60, 44
16, 4679, Note_on_c, 12, 60, 0
16, 4980, Note_on_c, 12, 60, 44
16, 4999, Note_on_c, 12, 60, 0
16, 5000, Note_on_c, 12, 60, 44
16, 5019, Note_on_c, 12, 60, 0
16, 5020, Note_on_c, 12, 60, 44
16, 5035, Note_on_c, 12, 60, 0
16, 5040, Note_on_c, 12, 60, 44
16, 5159, Note_on_c, 12, 60, 0
16, 5220, Note_on_c, 12, 60, 44
16, 5239, Note_on_c, 12, 60, 0
16, 5240, Note_on_c, 12, 60, 44
16, 5259, Note_on_c, 12, 60, 0
16, 5260, Note_on_c, 12, 60, 44
16, 5275, Note_on_c, 12, 60, 0
16, 5280, Note_on_c, 12, 60, 44
16, 5399, Note_on_c, 12, 60, 0
16, 5440, Control_c, 12, 11, 96
16, 5460, Note_on_c, 12, 60, 60
16, 5479, Note_on_c, 12, 60, 0
16, 5480, Note_on_c, 12, 60, 60
16, 5499, Note_on_c, 12, 60, 0
16, 5500, Note_on_c, 12, 60, 60
16, 5515, Note_on_c, 12, 60, 0
16, 5520, Control_c, 12, 11, 96
16, 5520, Note_on_c, 12, 63, 60
16, 5540, Control_c, 12, 11, 99
16, 5560, Control_c, 12, 11, 101
16, 5580, Control_c, 12, 11, 104
16, 5600, Control_c, 12, 11, 106
16, 5620, Control_c, 12, 11, 109
16, 5639, Note_on_c, 12, 63, 0
16, 5640, Control_c, 12, 11, 112
16, 5660, Control_c, 12, 11, 114
16, 5680, Control_c, 12, 11, 117
16, 5700, Note_on_c, 12, 66, 60
16, 5700, Control_c, 12, 11, 119
16, 5719, Note_on_c, 12, 66, 0
16, 5720, Control_c, 12, 11, 122
16, 5720, Note_on_c, 12, 66, 60
16, 5739, Note_on_c, 12, 66, 0
16, 5740, Control_c, 12, 11, 127
16, 5740, Note_on_c, 12, 66, 60
16, 5755, Note_on_c, 12, 66, 0
16, 5760, Note_on_c, 12, 67, 60
16, 5760, Control_c, 12, 11, 127
16, 5773, Control_c, 12, 11, 124
16, 5787, Control_c, 12, 11, 120
16, 5800, Control_c, 12, 11, 117
16, 5813, Control_c, 12, 11, 113
16, 5827, Control_c, 12, 11, 110
16, 5840, Control_c, 12, 11, 106
16, 5853, Control_c, 12, 11, 103
16, 5867, Control_c, 12, 11, 96
16, 5879, Note_on_c, 12, 67, 0
16, 5920, Control_c, 12, 11, 127
16, 5940, Note_on_c, 12, 59, 52
16, 5959, Note_on_c, 12, 59, 0
16, 5960, Note_on_c, 12, 59, 52
16, 5979, Note_on_c, 12, 59, 0
16, 5980, Note_on_c, 12, 59, 52
16, 5995, Note_on_c, 12, 59, 0
16, 6000, Note_on_c, 12, 59, 52
16, 6119, Note_on_c, 12, 59, 0
16, 6420, Note_on_c, 12, 62, 52
16, 6439, Note_on_c, 12, 62, 0
16, 6440, Note_on_c, 12, 62, 52
16, 6459, Note_on_c, 12, 62, 0
16, 6460, Note_on_c, 12, 62, 52
16, 6475, Note_on_c, 12, 62, 0
16, 6480, Note_on_c, 12, 62, 52
16, 6599, Note_on_c, 12, 62, 0
16, 6880, Control_c, 12, 11, 96
16, 6900, Note_on_c, 12, 65, 68
16, 6900, Control_c, 12, 11, 96
16, 6919, Note_on_c, 12, 65, 0
16, 6920, Note_on_c, 12, 65, 68
16, 6920, Control_c, 12, 11, 99
16, 6939, Note_on_c, 12, 65, 0
16, 6940, Control_c, 12, 11, 101
16, 6940, Note_on_c, 12, 65, 68
16, 6955, Note_on_c, 12, 65, 0
16, 6960, Note_on_c, 12, 65, 68
16, 6960, Control_c, 12, 11, 104
16, 6980, Control_c, 12, 11, 106
16, 7000, Control_c, 12, 11, 109
16, 7020, Control_c, 12, 11, 112
16, 7040, Control_c, 12, 11, 114
16, 7060, Control_c, 12, 11, 117
16, 7079, Note_on_c, 12, 65, 0
16, 7080, Control_c, 12, 11, 119
16, 7100, Control_c, 12, 11, 122
16, 7120, Control_c, 12, 11, 127
16, 7140, Note_on_c, 12, 65, 68
16, 7140, Control_c, 12, 11, 127
16, 7157, Control_c, 12, 11, 125
16, 7159, Note_on_c, 12, 65, 0
16, 7160, Note_on_c, 12, 65, 68
16, 7173, Control_c, 12, 11, 124
16, 7179, Note_on_c, 12, 65, 0
16, 7180, Note_on_c, 12, 65, 68
16, 7190, Control_c, 12, 11, 122
16, 7195, Note_on_c, 12, 65, 0
16, 7200, Note_on_c, 12, 63, 68
16, 7207, Control_c, 12, 11, 120
16, 7223, Control_c, 12, 11, 118
16, 7240, Control_c, 12, 11, 117
16, 7257, Control_c, 12, 11, 115
16, 7273, Control_c, 12, 11, 113
16, 7290, Control_c, 12, 11, 112
16, 7307, Control_c, 12, 11, 110
16, 7319, Note_on_c, 12, 63, 0
16, 7323, Control_c, 12, 11, 108
16, 7340, Control_c, 12, 11, 106
16, 7357, Control_c, 12, 11, 105
16, 7373, Control_c, 12, 11, 103
16, 7380, Note_on_c, 12, 65, 68
16, 7390, Control_c, 12, 11, 101
16, 7399, Note_on_c, 12, 65, 0
16, 7400, Note_on_c, 12, 65, 68
16, 7407, Control_c, 12, 11, 99
16, 7419, Note_on_c, 12, 65, 0
16, 7420, Note_on_c, 12, 65, 68
16, 7423, Control_c, 12, 11, 96
16, 7435, Note_on_c, 12, 65, 0
16, 7440, Note_on_c, 12, 63, 68
16, 7559, Note_on_c, 12, 63, 0
16, 7800, Control_c, 12, 11, 127
16, 7920, Note_on_c, 12, 58, 52
16, 8159, Note_on_c, 12, 58, 0
16, 8160, Note_on_c, 12, 56, 52
16, 8279, Note_on_c, 12, 56, 0
16, 8280, Note_on_c, 12, 55, 52
16, 8391, Note_on_c, 12, 55, 0
16, 8400, Note_on_c, 12, 56, 52
16, 8519, Note_on_c, 12, 56, 0
16, 8760, Control_c, 12, 11, 80
16, 8880, Control_c, 12, 11, 80
16, 8880, Note_on_c, 12, 63, 76
16, 8910, Control_c, 12, 11, 82
16, 8940, Control_c, 12, 11, 84
16, 8970, Control_c, 12, 11, 86
16, 9000, Control_c, 12, 11, 88
16, 9030, Control_c, 12, 11, 90
16, 9060, Control_c, 12, 11, 92
16, 9090, Control_c, 12, 11, 94
16, 9119, Note_on_c, 12, 63, 0
16, 9120, Note_on_c, 12, 62, 76
16, 9120, Control_c, 12, 11, 96
16, 9150, Control_c, 12, 11, 98
16, 9180, Control_c, 12, 11, 100
16, 9210, Control_c, 12, 11, 102
16, 9239, Note_on_c, 12, 62, 0
16, 9240, Control_c, 12, 11, 104
16, 9240, Note_on_c, 12, 60, 76
16, 9270, Control_c, 12, 11, 105
16, 9300, Control_c, 12, 11, 107
16, 9330, Control_c, 12, 11, 109
16, 9351, Note_on_c, 12, 60, 0
16, 9360, Note_on_c, 12, 58, 76
16, 9360, Control_c, 12, 11, 111
16, 9390, Control_c, 12, 11, 113
16, 9420, Control_c, 12, 11, 115
16, 9450, Control_c, 12, 11, 117
16, 9479, Note_on_c, 12, 58, 0
16, 9480, Control_c, 12, 11, 119
16, 9510, Control_c, 12, 11, 121
16, 9540, Control_c, 12, 11, 123
16, 9570, Note_on_c, 12, 67, 76
16, 9570, Control_c, 12, 11, 127
16, 9591, Note_on_c, 12, 67, 0
16, 9600, Note_on_c, 12, 67, 76
16, 9839, Note_on_c, 12, 67, 0
16, 10080, Note_on_c, 12, 65, 52
16, 10199, Note_on_c, 12, 65, 0
16, 10200, Note_on_c, 12, 63, 52
16, 10311, Note_on_c, 12, 63, 0
16, 10320, Note_on_c, 12, 63, 52
16, 10431, Note_on_c, 12, 63, 0
16, 10440, Note_on_c, 12, 63, 52
16, 10559, Note_on_c, 12, 63, 0
16, 10560, Note_on_c, 12, 60, 68
16, 10620, Control_c, 12, 11, 127
16, 10640, Control_c, 12, 11, 122
16, 10660, Control_c, 12, 11, 117
16, 10679, Note_on_c, 12, 60, 0
16, 10680, Control_c, 12, 11, 112
16, 10680, Note_on_c, 12, 63, 60
16, 10700, Control_c, 12, 11, 106
16, 10720, Control_c, 12, 11, 96
16, 10791, Note_on_c, 12, 63, 0
16, 10800, Note_on_c, 12, 59, 68
16, 10919, Note_on_c, 12, 59, 0
16, 11280, Note_on_c, 12, 67, 68
16, 11519, Note_on_c, 12, 67, 0
16, 11520, Note_on_c, 12, 65, 68
16, 11639, Note_on_c, 12, 65, 0
16, 11640, Note_on_c, 12, 63, 68
16, 11751, Note_on_c, 12, 63, 0
16, 11760, Control_c, 12, 11, 96
16, 11760, Note_on_c, 12, 62, 68
16, 11780, Control_c, 12, 11, 97
16, 11800, Control_c, 12, 11, 99
16, 11820, Control_c, 12, 11, 100
16, 11840, Control_c, 12, 11, 101
16, 11860, Control_c, 12, 11, 102
16, 11880, Control_c, 12, 11, 104
16, 11900, Control_c, 12, 11, 105
16, 11920, Control_c, 12, 11, 106
16, 11940, Control_c, 12, 11, 108
16, 11960, Control_c, 12, 11, 109
16, 11980, Control_c, 12, 11, 110
16, 12000, Control_c, 12, 11, 112
16, 12020, Control_c, 12, 11, 113
16, 12040, Control_c, 12, 11, 114
16, 12060, Control_c, 12, 11, 115
16, 12080, Control_c, 12, 11, 117
16, 12100, Control_c, 12, 11, 118
16, 12119, Note_on_c, 12, 62, 0
16, 12120, Control_c, 12, 11, 119
16, 12120, Note_on_c, 12, 65, 68
16, 12140, Control_c, 12, 11, 121
16, 12160, Control_c, 12, 11, 122
16, 12180, Control_c, 12, 11, 123
16, 12200, Control_c, 12, 11, 124
16, 12220, Control_c, 12, 11, 126
16, 12239, Note_on_c, 12, 65, 0
16, 12240, Note_on_c, 12, 63, 68
16, 12240, Control_c, 12, 11, 127
16, 12260, Control_c, 12, 11, 126
16, 12280, Control_c, 12, 11, 124
16, 12300, Control_c, 12, 11, 123
16, 12320, Control_c, 12, 11, 122
16, 12340, Control_c, 12, 11, 121
16, 12360, Control_c, 12, 11, 119
16, 12380, Control_c, 12, 11, 118
16, 12400, Control_c, 12, 11, 117
16, 12420, Control_c, 12, 11, 115
16, 12440, Control_c, 12, 11, 114
16, 12460, Control_c, 12, 11, 113
16, 12479, Note_on_c, 12, 63, 0
16, 12480, Note_on_c, 12, 62, 68
16, 12480, Control_c, 12, 11, 112
16, 12500, Control_c, 12, 11, 110
16, 12520, Control_c, 12, 11, 109
16, 12540, Control_c, 12, 11, 108
16, 12560, Control_c, 12, 11, 106
16, 12580, Control_c, 12, 11, 105
16, 12599, Note_on_c, 12, 62, 0
16, 12600, Control_c, 12, 11, 104
16, 12600, Note_on_c, 12, 60, 68
16, 12620, Control_c, 12, 11, 102
16, 12640, Control_c, 12, 11, 101
16, 12660, Control_c, 12, 11, 100
16, 12680, Control_c, 12, 11, 99
16, 12700, Control_c, 12, 11, 96
16, 12711, Note_on_c, 12, 60, 0
16, 12720, Note_on_c, 12, 59, 68
16, 12839, Note_on_c, 12, 59, 0
16, 14160, Control_c, 12, 11, 127
16, 14400, Note_on_c, 12, 58, 68
16, 14639, Note_on_c, 12, 58, 0
16, 14640, Note_on_c, 12, 56, 52
16, 14879, Note_on_c, 12, 56, 0
16, 15120, Note_on_c, 12, 56, 52
16, 15120, Note_on_c, 12, 65, 52
16, 15479, Note_on_c, 12, 56, 0
16, 15479, Note_on_c, 12, 65, 0
16, 15480, Control_c, 12, 11, 80
16, 15600, Note_on_c, 12, 56, 76
16, 15600, Note_on_c, 12, 65, 76
16, 15600, Control_c, 12, 11, 80
16, 15620, Control_c, 12, 11, 82
16, 15640, Control_c, 12, 11, 84
16, 15660, Control_c, 12, 11, 86
16, 15680, Control_c, 12, 11, 88
16, 15700, Control_c, 12, 11, 90
16, 15720, Control_c, 12, 11, 92
16, 15740, Control_c, 12, 11, 94
16, 15760, Control_c, 12, 11, 96
16, 15780, Control_c, 12, 11, 98
16, 15800, Control_c, 12, 11, 100
16, 15820, Control_c, 12, 11, 102
16, 15831, Note_on_c, 12, 56, 0
16, 15831, Note_on_c, 12, 65, 0
16, 15840, Control_c, 12, 11, 104
16, 15840, Note_on_c, 12, 63, 76
16, 15860, Control_c, 12, 11, 105
16, 15869, Note_on_c, 12, 63, 0
16, 15870, Note_on_c, 12, 62, 76
16, 15880, Control_c, 12, 11, 107
16, 15900, Control_c, 12, 11, 109
16, 15920, Control_c, 12, 11, 111
16, 15940, Control_c, 12, 11, 113
16, 15951, Note_on_c, 12, 62, 0
16, 15960, Control_c, 12, 11, 115
16, 15960, Note_on_c, 12, 60, 76
16, 15980, Control_c, 12, 11, 117
16, 15989, Note_on_c, 12, 60, 0
16, 15990, Note_on_c, 12, 59, 76
16, 16000, Control_c, 12, 11, 119
16, 16020, Control_c, 12, 11, 121
16, 16040, Control_c, 12, 11, 123
16, 16060, Control_c, 12, 11, 127
16, 16071, Note_on_c, 12, 59, 0
16, 16080, Note_on_c, 12, 60, 76
16, 16169, Note_on_c, 12, 60, 0
16, 16200, Note_on_c, 12, 68, 76
16, 16200, Note_on_c, 12, 60, 76
16, 16289, Note_on_c, 12, 68, 0
16, 16289, Note_on_c, 12, 60, 0
16, 16380, Control_c, 12, 11, 96
16, 16440, Note_on_c, 12, 60, 68
16, 16440, Control_c, 12, 11, 96
16, 16460, Control_c, 12, 11, 99
16, 16480, Control_c, 12, 11, 101
16, 16500, Control_c, 12, 11, 104
16, 16520, Control_c, 12, 11, 106
16, 16540, Control_c, 12, 11, 109
16, 16560, Control_c, 12, 11, 112
16, 16580, Control_c, 12, 11, 114
16, 16600, Control_c, 12, 11, 117
16, 16620, Control_c, 12, 11, 119
16, 16640, Control_c, 12, 11, 122
16, 16660, Control_c, 12, 11, 127
16, 16671, Note_on_c, 12, 60, 0
16, 16680, Note_on_c, 12, 55, 76
16, 16740, Control_c, 12, 11, 127
16, 16760, Control_c, 12, 11, 123
16, 16780, Control_c, 12, 11, 119
16, 16800, Control_c, 12, 11, 115
16, 16820, Control_c, 12, 11, 111
16, 16840, Control_c, 12, 11, 107
16, 16860, Control_c, 12, 11, 104
16, 16880, Control_c, 12, 11, 100
16, 16900, Control_c, 12, 11, 96
16, 16911, Note_on_c, 12, 55, 0
16, 16920, Control_c, 12, 11, 92
16, 16920, Note_on_c, 12, 55, 76
16, 16940, Control_c, 12, 11, 88
16, 16960, Control_c, 12, 11, 80
16, 17031, Note_on_c, 12, 55, 0
16, 17040, Note_on_c, 12, 55, 76
16, 17159, Note_on_c, 12, 55, 0
16, 17400, Control_c, 12, 11, 127
16, 17460, Note_on_c, 12, 65, 52
16, 17479, Note_on_c, 12, 65, 0
16, 17480, Note_on_c, 12, 65, 52
16, 17499, Note_on_c, 12, 65, 0
16, 17500, Note_on_c, 12, 65, 52
16, 17515, Note_on_c, 12, 65, 0
16, 17520, Note_on_c, 12, 63, 52
16, 17639, Note_on_c, 12, 63, 0
16, 17940, Note_on_c, 12, 58, 52
16, 17959, Note_on_c, 12, 58, 0
16, 17960, Note_on_c, 12, 58, 52
16, 17979, Note_on_c, 12, 58, 0
16, 17980, Note_on_c, 12, 58, 52
16, 17995, Note_on_c, 12, 58, 0
16, 18000, Note_on_c, 12, 62, 52
16, 18119, Note_on_c, 12, 62, 0
16, 18420, Note_on_c, 12, 62, 52
16, 18439, Note_on_c, 12, 62, 0
16, 18440, Note_on_c, 12, 62, 52
16, 18459, Note_on_c, 12, 62, 0
16, 18460, Note_on_c, 12, 62, 52
16, 18475, Note_on_c, 12, 62, 0
16, 18480, Note_on_c, 12, 63, 52
16, 18599, Note_on_c, 12, 63, 0
16, 18660, Note_on_c, 12, 63, 58
16, 18679, Note_on_c, 12, 63, 0
16, 18680, Note_on_c, 12, 63, 58
16, 18699, Note_on_c, 12, 63, 0
16, 18700, Note_on_c, 12, 63, 59
16, 18715, Note_on_c, 12, 63, 0
16, 18720, Note_on_c, 12, 62, 60
16, 18839, Note_on_c, 12, 62, 0
16, 18900, Note_on_c, 12, 60, 66
16, 18915, Note_on_c, 12, 60, 0
16, 18920, Note_on_c, 12, 60, 66
16, 18935, Note_on_c, 12, 60, 0
16, 18940, Note_on_c, 12, 60, 67
16, 18955, Note_on_c, 12, 60, 0
16, 18960, Note_on_c, 12, 61, 68
16, 19079, Note_on_c, 12, 61, 0
16, 19140, Note_on_c, 12, 60, 74
16, 19155, Note_on_c, 12, 60, 0
16, 19160, Note_on_c, 12, 60, 74
16, 19175, Note_on_c, 12, 60, 0
16, 19180, Note_on_c, 12, 60, 75
16, 19195, Note_on_c, 12, 60, 0
16, 19200, Note_on_c, 12, 60, 76
16, 19319, Note_on_c, 12, 60, 0
16, 19380, Note_on_c, 12, 60, 76
16, 19395, Note_on_c, 12, 60, 0
16, 19400, Note_on_c, 12, 60, 76
16, 19415, Note_on_c, 12, 60, 0
16, 19420, Note_on_c, 12, 60, 76
16, 19435, Note_on_c, 12, 60, 0
16, 19440, Note_on_c, 12, 60, 52
16, 19559, Note_on_c, 12, 60, 0
16, 19620, Note_on_c, 12, 67, 52
16, 19635, Note_on_c, 12, 67, 0
16, 19640, Note_on_c, 12, 67, 52
16, 19655, Note_on_c, 12, 67, 0
16, 19660, Note_on_c, 12, 67, 52
16, 19675, Note_on_c, 12, 67, 0
16, 19680, Note_on_c, 12, 65, 52
16, 19799, Note_on_c, 12, 65, 0
16, 19860, Note_on_c, 12, 63, 52
16, 19875, Note_on_c, 12, 63, 0
16, 19880, Note_on_c, 12, 63, 52
16, 19895, Note_on_c, 12, 63, 0
16, 19900, Note_on_c, 12, 63, 52
16, 19915, Note_on_c, 12, 63, 0
16, 19920, Note_on_c, 12, 63, 52
16, 20039, Note_on_c, 12, 63, 0
16, 20100, Note_on_c, 12, 60, 52
16, 20115, Note_on_c, 12, 60, 0
16, 20120, Note_on_c, 12, 60, 52
16, 20135, Note_on_c, 12, 60, 0
16, 20140, Note_on_c, 12, 60, 52
16, 20155, Note_on_c, 12, 60, 0
16, 20160, Note_on_c, 12, 60, 60
16, 20279, Note_on_c, 12, 60, 0
16, 20340, Note_on_c, 12, 60, 52
16, 20355, Note_on_c, 12, 60, 0
16, 20360, Note_on_c, 12, 60, 52
16, 20375, Note_on_c, 12, 60, 0
16, 20380, Note_on_c, 12, 60, 52
16, 20395, Note_on_c, 12, 60, 0
16, 20400, Note_on_c, 12, 59, 52
16, 20519, Note_on_c, 12, 59, 0
16, 20820, Note_on_c, 12, 67, 52
16, 20835, Note_on_c, 12, 67, 0
16, 20840, Note_on_c, 12, 67, 52
16, 20855, Note_on_c, 12, 67, 0
16, 20860, Note_on_c, 12, 67, 52
16, 20875, Note_on_c, 12, 67, 0
16, 20880, Note_on_c, 12, 67, 52
16, 20999, Note_on_c, 12, 67, 0
16, 21300, Note_on_c, 12, 67, 52
16, 21315, Note_on_c, 12, 67, 0
16, 21320, Note_on_c, 12, 67, 52
16, 21335, Note_on_c, 12, 67, 0
16, 21340, Note_on_c, 12, 67, 52
16, 21355, Note_on_c, 12, 67, 0
16, 21360, Note_on_c, 12, 67, 52
16, 21479, Note_on_c, 12, 67, 0
16, 21780, Note_on_c, 12, 67, 66
16, 21795, Note_on_c, 12, 67, 0
16, 21800, Note_on_c, 12, 67, 66
16, 21815, Note_on_c, 12, 67, 0
16, 21820, Note_on_c, 12, 67, 67
16, 21835, Note_on_c, 12, 67, 0
16, 21840, Note_on_c, 12, 67, 68
16, 21959, Note_on_c, 12, 67, 0
16, 22020, Note_on_c, 12, 67, 62
16, 22035, Note_on_c, 12, 67, 0
16, 22040, Note_on_c, 12, 67, 62
16, 22055, Note_on_c, 12, 67, 0
16, 22060, Note_on_c, 12, 67, 61
16, 22075, Note_on_c, 12, 67, 0
16, 22080, Note_on_c, 12, 67, 60
16, 22199, Note_on_c, 12, 67, 0
16, 22260, Note_on_c, 12, 67, 54
16, 22275, Note_on_c, 12, 67, 0
16, 22280, Note_on_c, 12, 67, 54
16, 22295, Note_on_c, 12, 67, 0
16, 22300, Note_on_c, 12, 67, 53
16, 22315, Note_on_c, 12, 67, 0
16, 22320, Note_on_c, 12, 67, 52
16, 22439, Note_on_c, 12, 67, 0
16, 24180, Note_on_c, 12, 67, 68
16, 24195, Note_on_c, 12, 67, 0
16, 24200, Note_on_c, 12, 67, 52
16, 24215, Note_on_c, 12, 67, 0
16, 24220, Note_on_c, 12, 67, 52
16, 24235, Note_on_c, 12, 67, 0
16, 24240, Note_on_c, 12, 60, 52
16, 24359, Note_on_c, 12, 60, 0
16, 24660, Note_on_c, 12, 65, 52
16, 24675, Note_on_c, 12, 65, 0
16, 24680, Note_on_c, 12, 65, 52
16, 24695, Note_on_c, 12, 65, 0
16, 24700, Note_on_c, 12, 65, 52
16, 24715, Note_on_c, 12, 65, 0
16, 24720, Note_on_c, 12, 65, 52
16, 24839, Note_on_c, 12, 65, 0
16, 25140, Note_on_c, 12, 65, 52
16, 25155, Note_on_c, 12, 65, 0
16, 25160, Note_on_c, 12, 65, 52
16, 25175, Note_on_c, 12, 65, 0
16, 25180, Note_on_c, 12, 65, 52
16, 25195, Note_on_c, 12, 65, 0
16, 25200, Note_on_c, 12, 65, 52
16, 25319, Note_on_c, 12, 65, 0
16, 25380, Note_on_c, 12, 65, 61
16, 25395, Note_on_c, 12, 65, 0
16, 25400, Note_on_c, 12, 65, 62
16, 25415, Note_on_c, 12, 65, 0
16, 25420, Note_on_c, 12, 65, 63
16, 25435, Note_on_c, 12, 65, 0
16, 25440, Note_on_c, 12, 62, 64
16, 25559, Note_on_c, 12, 62, 0
16, 25620, Note_on_c, 12, 62, 73
16, 25635, Note_on_c, 12, 62, 0
16, 25640, Note_on_c, 12, 62, 74
16, 25655, Note_on_c, 12, 62, 0
16, 25660, Note_on_c, 12, 62, 75
16, 25675, Note_on_c, 12, 62, 0
16, 25680, Note_on_c, 12, 60, 76
16, 25769, Note_on_c, 12, 60, 0
16, 25800, Note_on_c, 12, 60, 76
16, 25889, Note_on_c, 12, 60, 0
16, 26100, Note_on_c, 12, 60, 52
16, 26115, Note_on_c, 12, 60, 0
16, 26120, Note_on_c, 12, 60, 52
16, 26135, Note_on_c, 12, 60, 0
16, 26140, Note_on_c, 12, 60, 52
16, 26155, Note_on_c, 12, 60, 0
16, 26160, Note_on_c, 12, 60, 52
16, 26279, Note_on_c, 12, 60, 0
16, 26340, Note_on_c, 12, 60, 64
16, 26355, Note_on_c, 12, 60, 0
16, 26360, Note_on_c, 12, 60, 65
16, 26375, Note_on_c, 12, 60, 0
16, 26380, Note_on_c, 12, 60, 66
16, 26395, Note_on_c, 12, 60, 0
16, 26400, Note_on_c, 12, 59, 68
16, 26519, Note_on_c, 12, 59, 0
16, 26580, Note_on_c, 12, 65, 56
16, 26595, Note_on_c, 12, 65, 0
16, 26600, Note_on_c, 12, 65, 55
16, 26615, Note_on_c, 12, 65, 0
16, 26620, Note_on_c, 12, 65, 54
16, 26635, Note_on_c, 12, 65, 0
16, 26640, Note_on_c, 12, 63, 52
16, 26751, Note_on_c, 12, 63, 0
16, 26760, Note_on_c, 12, 63, 52
16, 26879, Note_on_c, 12, 63, 0
16, 26880, Note_on_c, 12, 62, 52
16, 26999, Note_on_c, 12, 62, 0
16, 27000, Note_on_c, 12, 65, 52
16, 27111, Note_on_c, 12, 65, 0
16, 27120, Note_on_c, 12, 63, 52
16, 27239, Note_on_c, 12, 63, 0
16, 27240, Note_on_c, 12, 62, 52
16, 27359, Note_on_c, 12, 62, 0
16, 27360, Note_on_c, 12, 60, 52
16, 27479, Note_on_c, 12, 60, 0
16, 27480, Note_on_c, 12, 63, 52
16, 27591, Note_on_c, 12, 63, 0
16, 27600, Note_on_c, 12, 65, 52
16, 27719, Note_on_c, 12, 65, 0
16, 27720, Note_on_c, 12, 67, 68
16, 28019, Note_on_c, 12, 67, 0
16, 28020, Note_on_c, 12, 65, 52
16, 28049, Note_on_c, 12, 65, 0
16, 28050, Note_on_c, 12, 63, 52
16, 28075, Note_on_c, 12, 63, 0
16, 28080, Note_on_c, 12, 63, 52
16, 28199, Note_on_c, 12, 63, 0
16, 28200, Note_on_c, 12, 62, 52
16, 28259, Note_on_c, 12, 62, 0
16, 28320, Note_on_c, 12, 62, 52
16, 28409, Note_on_c, 12, 62, 0
16, 29460, Note_on_c, 12, 63, 52
16, 29475, Note_on_c, 12, 63, 0
16, 29480, Note_on_c, 12, 63, 52
16, 29495, Note_on_c, 12, 63, 0
16, 29500, Note_on_c, 12, 63, 52
16, 29515, Note_on_c, 12, 63, 0
16, 29520, Note_on_c, 12, 63, 52
16, 29639, Note_on_c, 12, 63, 0
16, 29700, Note_on_c, 12, 63, 52
16, 29715, Note_on_c, 12, 63, 0
16, 29720, Note_on_c, 12, 63, 52
16, 29735, Note_on_c, 12, 63, 0
16, 29740, Note_on_c, 12, 63, 52
16, 29755, Note_on_c, 12, 63, 0
16, 29760, Note_on_c, 12, 65, 52
16, 29879, Note_on_c, 12, 65, 0
16, 29940, Note_on_c, 12, 65, 52
16, 29955, Note_on_c, 12, 65, 0
16, 29960, Note_on_c, 12, 65, 52
16, 29975, Note_on_c, 12, 65, 0
16, 29980, Note_on_c, 12, 65, 52
16, 29995, Note_on_c, 12, 65, 0
16, 30000, Note_on_c, 12, 63, 52
16, 30111, Note_on_c, 12, 63, 0
16, 30120, Note_on_c, 12, 66, 68
16, 30359, Note_on_c, 12, 66, 0
16, 30360, Note_on_c, 12, 67, 52
16, 30471, Note_on_c, 12, 67, 0
16, 30480, Note_on_c, 12, 63, 52
16, 30599, Note_on_c, 12, 63, 0
16, 30660, Note_on_c, 12, 63, 52
16, 30675, Note_on_c, 12, 63, 0
16, 30680, Note_on_c, 12, 63, 52
16, 30695, Note_on_c, 12, 63, 0
16, 30700, Note_on_c, 12, 63, 52
16, 30715, Note_on_c, 12, 63, 0
16, 30720, Note_on_c, 12, 65, 52
16, 30839, Note_on_c, 12, 65, 0
16, 30900, Note_on_c, 12, 65, 52
16, 30915, Note_on_c, 12, 65, 0
16, 30920, Note_on_c, 12, 65, 52
16, 30935, Note_on_c, 12, 65, 0
16, 30940, Note_on_c, 12, 65, 52
16, 30955, Note_on_c, 12, 65, 0
16, 30960, Note_on_c, 12, 63, 52
16, 31071, Note_on_c, 12, 63, 0
16, 31080, Note_on_c, 12, 68, 68
16, 31199, Note_on_c, 12, 68, 0
16, 31200, Note_on_c, 12, 67, 52
16, 31319, Note_on_c, 12, 67, 0
16, 31320, Note_on_c, 12, 63, 68
16, 31439, Note_on_c, 12, 63, 0
16, 31440, Note_on_c, 12, 60, 52
16, 31551, Note_on_c, 12, 60, 0
16, 31560, Note_on_c, 12, 68, 76
16, 31641, Note_on_c, 12, 68, 0
16, 31650, Note_on_c, 12, 65, 76
16, 31675, Note_on_c, 12, 65, 0
16, 31680, Note_on_c, 12, 62, 76
16, 31769, Note_on_c, 12, 62, 0
16, 31800, Note_on_c, 12, 67, 76
16, 31889, Note_on_c, 12, 67, 0
16, 31920, Note_on_c, 12, 60, 52
16, 32009, Note_on_c, 12, 60, 0
16, 32160, Note_on_c, 12, 60, 52
16, 32249, Note_on_c, 12, 60, 0
16, 32400, Note_on_c, 12, 55, 52
16, 32489, Note_on_c, 12, 55, 0
16, 32880, Note_on_c, 12, 55, 52
16, 32919, Note_on_c, 12, 55, 0
16, 32920, Note_on_c, 12, 60, 52
16, 32955, Note_on_c, 12, 60, 0
16, 32960, Note_on_c, 12, 64, 52
16, 32989, Note_on_c, 12, 64, 0
16, 33000, Note_on_c, 12, 55, 52
16, 33039, Note_on_c, 12, 55, 0
16, 33040, Note_on_c, 12, 60, 52
16, 33075, Note_on_c, 12, 60, 0
16, 33080, Note_on_c, 12, 64, 52
16, 33109, Note_on_c, 12, 64, 0
16, 33120, Note_on_c, 12, 55, 52
16, 33159, Note_on_c, 12, 55, 0
16, 33160, Note_on_c, 12, 60, 52
16, 33195, Note_on_c, 12, 60, 0
16, 33200, Note_on_c, 12, 64, 52
16, 33229, Note_on_c, 12, 64, 0
16, 33240, Note_on_c, 12, 55, 52
16, 33279, Note_on_c, 12, 55, 0
16, 33280, Note_on_c, 12, 60, 52
16, 33315, Note_on_c, 12, 60, 0
16, 33320, Note_on_c, 12, 64, 52
16, 33349, Note_on_c, 12, 64, 0
16, 33360, Note_on_c, 12, 55, 52
16, 33399, Note_on_c, 12, 55, 0
16, 33400, Note_on_c, 12, 60, 52
16, 33435, Note_on_c, 12, 60, 0
16, 33440, Note_on_c, 12, 64, 52
16, 33469, Note_on_c, 12, 64, 0
16, 33480, Note_on_c, 12, 55, 52
16, 33519, Note_on_c, 12, 55, 0
16, 33520, Note_on_c, 12, 60, 52
16, 33555, Note_on_c, 12, 60, 0
16, 33560, Note_on_c, 12, 64, 52
16, 33589, Note_on_c, 12, 64, 0
16, 33600, Note_on_c, 12, 55, 52
16, 33639, Note_on_c, 12, 55, 0
16, 33640, Note_on_c, 12, 60, 52
16, 33675, Note_on_c, 12, 60, 0
16, 33680, Note_on_c, 12, 64, 52
16, 33709, Note_on_c, 12, 64, 0
16, 33720, Note_on_c, 12, 55, 52
16, 33759, Note_on_c, 12, 55, 0
16, 33760, Note_on_c, 12, 60, 52
16, 33795, Note_on_c, 12, 60, 0
16, 33800, Note_on_c, 12, 64, 52
16, 33829, Note_on_c, 12, 64, 0
16, 33840, Note_on_c, 12, 57, 52
16, 33879, Note_on_c, 12, 57, 0
16, 33880, Note_on_c, 12, 60, 52
16, 33915, Note_on_c, 12, 60, 0
16, 33920, Note_on_c, 12, 62, 52
16, 33949, Note_on_c, 12, 62, 0
16, 33960, Note_on_c, 12, 57, 52
16, 33999, Note_on_c, 12, 57, 0
16, 34000, Note_on_c, 12, 60, 52
16, 34035, Note_on_c, 12, 60, 0
16, 34040, Note_on_c, 12, 62, 52
16, 34069, Note_on_c, 12, 62, 0
16, 34080, Note_on_c, 12, 57, 52
16, 34119, Note_on_c, 12, 57, 0
16, 34120, Note_on_c, 12, 60, 52
16, 34155, Note_on_c, 12, 60, 0
16, 34160, Note_on_c, 12, 62, 52
16, 34189, Note_on_c, 12, 62, 0
16, 34200, Note_on_c, 12, 57, 52
16, 34239, Note_on_c, 12, 57, 0
16, 34240, Note_on_c, 12, 60, 52
16, 34275, Note_on_c, 12, 60, 0
16, 34280, Note_on_c, 12, 62, 52
16, 34309, Note_on_c, 12, 62, 0
16, 34320, Note_on_c, 12, 57, 52
16, 34359, Note_on_c, 12, 57, 0
16, 34360, Note_on_c, 12, 60, 52
16, 34395, Note_on_c, 12, 60, 0
16, 34400, Note_on_c, 12, 62, 52
16, 34429, Note_on_c, 12, 62, 0
16, 34440, Note_on_c, 12, 57, 52
16, 34479, Note_on_c, 12, 57, 0
16, 34480, Note_on_c, 12, 60, 52
16, 34515, Note_on_c, 12, 60, 0
16, 34520, Note_on_c, 12, 62, 52
16, 34549, Note_on_c, 12, 62, 0
16, 34560, Note_on_c, 12, 57, 52
16, 34599, Note_on_c, 12, 57, 0
16, 34600, Note_on_c, 12, 60, 52
16, 34635, Note_on_c, 12, 60, 0
16, 34640, Note_on_c, 12, 62, 52
16, 34669, Note_on_c, 12, 62, 0
16, 34680, Note_on_c, 12, 57, 52
16, 34719, Note_on_c, 12, 57, 0
16, 34720, Note_on_c, 12, 60, 52
16, 34755, Note_on_c, 12, 60, 0
16, 34760, Note_on_c, 12, 62, 52
16, 34789, Note_on_c, 12, 62, 0
16, 34800, Note_on_c, 12, 59, 52
16, 34839, Note_on_c, 12, 59, 0
16, 34840, Note_on_c, 12, 62, 52
16, 34875, Note_on_c, 12, 62, 0
16, 34880, Note_on_c, 12, 65, 52
16, 34909, Note_on_c, 12, 65, 0
16, 34920, Note_on_c, 12, 59, 52
16, 34959, Note_on_c, 12, 59, 0
16, 34960, Note_on_c, 12, 62, 52
16, 34995, Note_on_c, 12, 62, 0
16, 35000, Note_on_c, 12, 65, 52
16, 35029, Note_on_c, 12, 65, 0
16, 35040, Note_on_c, 12, 59, 52
16, 35079, Note_on_c, 12, 59, 0
16, 35080, Note_on_c, 12, 62, 52
16, 35115, Note_on_c, 12, 62, 0
16, 35120, Note_on_c, 12, 65, 52
16, 35149, Note_on_c, 12, 65, 0
16, 35160, Note_on_c, 12, 59, 52
16, 35199, Note_on_c, 12, 59, 0
16, 35200, Note_on_c, 12, 62, 52
16, 35235, Note_on_c, 12, 62, 0
16, 35240, Note_on_c, 12, 65, 52
16, 35269, Note_on_c, 12, 65, 0
16, 35280, Note_on_c, 12, 59, 52
16, 35319, Note_on_c, 12, 59, 0
16, 35320, Note_on_c, 12, 62, 52
16, 35355, Note_on_c, 12, 62, 0
16, 35360, Note_on_c, 12, 65, 52
16, 35389, Note_on_c, 12, 65, 0
16, 35400, Note_on_c, 12, 59, 52
16, 35439, Note_on_c, 12, 59, 0
16, 35440, Note_on_c, 12, 62, 53
16, 35475, Note_on_c, 12, 62, 0
16, 35480, Note_on_c, 12, 65, 55
16, 35509, Note_on_c, 12, 65, 0
16, 35520, Note_on_c, 12, 59, 56
16, 35559, Note_on_c, 12, 59, 0
16, 35560, Note_on_c, 12, 62, 58
16, 35595, Note_on_c, 12, 62, 0
16, 35600, Note_on_c, 12, 65, 59
16, 35629, Note_on_c, 12, 65, 0
16, 35640, Note_on_c, 12, 59, 61
16, 35679, Note_on_c, 12, 59, 0
16, 35680, Note_on_c, 12, 62, 62
16, 35715, Note_on_c, 12, 62, 0
16, 35720, Note_on_c, 12, 64, 64
16, 35749, Note_on_c, 12, 64, 0
16, 35760, Note_on_c, 12, 57, 65
16, 35799, Note_on_c, 12, 57, 0
16, 35800, Note_on_c, 12, 60, 67
16, 35835, Note_on_c, 12, 60, 0
16, 35840, Note_on_c, 12, 64, 68
16, 35869, Note_on_c, 12, 64, 0
16, 35880, Note_on_c, 12, 57, 70
16, 35919, Note_on_c, 12, 57, 0
16, 35920, Note_on_c, 12, 60, 71
16, 35955, Note_on_c, 12, 60, 0
16, 35960, Note_on_c, 12, 64, 73
16, 35989, Note_on_c, 12, 64, 0
16, 36000, Note_on_c, 12, 59, 74
16, 36039, Note_on_c, 12, 59, 0
16, 36040, Note_on_c, 12, 62, 76
16, 36075, Note_on_c, 12, 62, 0
16, 36080, Note_on_c, 12, 62, 77
16, 36109, Note_on_c, 12, 62, 0
16, 36120, Note_on_c, 12, 60, 79
16, 36159, Note_on_c, 12, 60, 0
16, 36160, Note_on_c, 12, 62, 80
16, 36195, Note_on_c, 12, 62, 0
16, 36200, Note_on_c, 12, 62, 82
16, 36229, Note_on_c, 12, 62, 0
16, 36240, Note_on_c, 12, 59, 84
16, 36259, Note_on_c, 12, 59, 0
16, 36260, Note_on_c, 12, 71, 84
16, 36279, Note_on_c, 12, 71, 0
16, 36280, Note_on_c, 12, 71, 84
16, 36299, Note_on_c, 12, 71, 0
16, 36300, Note_on_c, 12, 71, 84
16, 36319, Note_on_c, 12, 71, 0
16, 36320, Note_on_c, 12, 71, 84
16, 36339, Note_on_c, 12, 71, 0
16, 36340, Note_on_c, 12, 71, 84
16, 36359, Note_on_c, 12, 71, 0
16, 36360, Note_on_c, 12, 71, 84
16, 36379, Note_on_c, 12, 71, 0
16, 36380, Note_on_c, 12, 71, 84
16, 36399, Note_on_c, 12, 71, 0
16, 36400, Note_on_c, 12, 71, 84
16, 36419, Note_on_c, 12, 71, 0
16, 36420, Note_on_c, 12, 71, 84
16, 36439, Note_on_c, 12, 71, 0
16, 36440, Note_on_c, 12, 71, 84
16, 36459, Note_on_c, 12, 71, 0
16, 36460, Note_on_c, 12, 71, 84
16, 36479, Note_on_c, 12, 71, 0
16, 36480, Note_on_c, 12, 71, 84
16, 36569, Note_on_c, 12, 71, 0
16, 36720, Note_on_c, 12, 59, 84
16, 36739, Note_on_c, 12, 59, 0
16, 36740, Note_on_c, 12, 71, 84
16, 36759, Note_on_c, 12, 71, 0
16, 36760, Note_on_c, 12, 71, 84
16, 36779, Note_on_c, 12, 71, 0
16, 36780, Note_on_c, 12, 71, 84
16, 36799, Note_on_c, 12, 71, 0
16, 36800, Note_on_c, 12, 71, 84
16, 36819, Note_on_c, 12, 71, 0
16, 36820, Note_on_c, 12, 71, 84
16, 36839, Note_on_c, 12, 71, 0
16, 36840, Note_on_c, 12, 71, 84
16, 36859, Note_on_c, 12, 71, 0
16, 36860, Note_on_c, 12, 71, 84
16, 36879, Note_on_c, 12, 71, 0
16, 36880, Note_on_c, 12, 71, 84
16, 36899, Note_on_c, 12, 71, 0
16, 36900, Note_on_c, 12, 71, 84
16, 36919, Note_on_c, 12, 71, 0
16, 36920, Note_on_c, 12, 71, 84
16, 36939, Note_on_c, 12, 71, 0
16, 36940, Note_on_c, 12, 71, 84
16, 36959, Note_on_c, 12, 71, 0
16, 36960, Note_on_c, 12, 71, 84
16, 37049, Note_on_c, 12, 71, 0
16, 37200, Note_on_c, 12, 71, 84
16, 37200, Note_on_c, 12, 55, 84
16, 37200, Note_on_c, 12, 62, 84
16, 37289, Note_on_c, 12, 71, 0
16, 37289, Note_on_c, 12, 55, 0
16, 37289, Note_on_c, 12, 62, 0
16, 37320, Note_on_c, 12, 74, 92
16, 37409, Note_on_c, 12, 74, 0
16, 37440, Note_on_c, 12, 55, 84
16, 37440, Note_on_c, 12, 62, 84
16, 37440, Note_on_c, 12, 71, 84
16, 37529, Note_on_c, 12, 55, 0
16, 37529, Note_on_c, 12, 62, 0
16, 37529, Note_on_c, 12, 71, 0
16, 37560, Note_on_c, 12, 74, 92
16, 37649, Note_on_c, 12, 74, 0
16, 37680, Note_on_c, 12, 67, 92
16, 37680, Note_on_c, 12, 55, 92
16, 37800, Control_c, 12, 11, 112
16, 37815, Control_c, 12, 11, 110
16, 37830, Control_c, 12, 11, 108
16, 37845, Control_c, 12, 11, 106
16, 37860, Control_c, 12, 11, 104
16, 37875, Control_c, 12, 11, 102
16, 37889, Note_on_c, 12, 67, 0
16, 37889, Note_on_c, 12, 55, 0
16, 37890, Control_c, 12, 11, 100
16, 37905, Control_c, 12, 11, 98
16, 37920, Note_on_c, 12, 65, 84
16, 37920, Control_c, 12, 11, 96
16, 37935, Control_c, 12, 11, 94
16, 37950, Control_c, 12, 11, 92
16, 37965, Control_c, 12, 11, 90
16, 37979, Note_on_c, 12, 65, 0
16, 37980, Control_c, 12, 11, 88
16, 37980, Note_on_c, 12, 64, 84
16, 37995, Control_c, 12, 11, 86
16, 38010, Control_c, 12, 11, 84
16, 38025, Control_c, 12, 11, 82
16, 38039, Note_on_c, 12, 64, 0
16, 38040, Note_on_c, 12, 65, 84
16, 38040, Control_c, 12, 11, 80
16, 38055, Control_c, 12, 11, 78
16, 38070, Control_c, 12, 11, 76
16, 38085, Control_c, 12, 11, 74
16, 38099, Note_on_c, 12, 65, 0
16, 38100, Control_c, 12, 11, 72
16, 38100, Note_on_c, 12, 62, 84
16, 38115, Control_c, 12, 11, 70
16, 38130, Control_c, 12, 11, 68
16, 38151, Note_on_c, 12, 62, 0
16, 38158, Control_c, 12, 11, 80
16, 38160, Note_on_c, 12, 60, 76
16, 38399, Note_on_c, 12, 60, 0
16, 38400, Note_on_c, 12, 64, 76
16, 38519, Note_on_c, 12, 64, 0
16, 38520, Note_on_c, 12, 67, 76
16, 38624, Note_on_c, 12, 67, 0
16, 38632, Control_c, 12, 11, 96
16, 38640, Note_on_c, 12, 70, 68
16, 38999, Note_on_c, 12, 70, 0
16, 39000, Note_on_c, 12, 64, 68
16, 39111, Note_on_c, 12, 64, 0
16, 39120, Note_on_c, 12, 65, 68
16, 39120, Control_c, 12, 11, 96
16, 39160, Control_c, 12, 11, 97
16, 39200, Control_c, 12, 11, 99
16, 39239, Note_on_c, 12, 65, 0
16, 39240, Note_on_c, 12, 69, 68
16, 39240, Control_c, 12, 11, 100
16, 39280, Control_c, 12, 11, 101
16, 39320, Control_c, 12, 11, 102
16, 39359, Note_on_c, 12, 69, 0
16, 39360, Control_c, 12, 11, 104
16, 39360, Note_on_c, 12, 70, 68
16, 39400, Control_c, 12, 11, 105
16, 39440, Control_c, 12, 11, 106
16, 39479, Note_on_c, 12, 70, 0
16, 39480, Note_on_c, 12, 64, 68
16, 39480, Control_c, 12, 11, 108
16, 39520, Control_c, 12, 11, 109
16, 39560, Control_c, 12, 11, 110
16, 39591, Note_on_c, 12, 64, 0
16, 39600, Note_on_c, 12, 65, 68
16, 39600, Control_c, 12, 11, 112
16, 39640, Control_c, 12, 11, 113
16, 39680, Control_c, 12, 11, 114
16, 39719, Note_on_c, 12, 65, 0
16, 39720, Control_c, 12, 11, 115
16, 39720, Note_on_c, 12, 69, 68
16, 39760, Control_c, 12, 11, 117
16, 39800, Control_c, 12, 11, 118
16, 39839, Note_on_c, 12, 69, 0
16, 39840, Control_c, 12, 11, 119
16, 39840, Note_on_c, 12, 70, 68
16, 39880, Control_c, 12, 11, 121
16, 39920, Control_c, 12, 11, 122
16, 39959, Note_on_c, 12, 70, 0
16, 39960, Control_c, 12, 11, 123
16, 39960, Note_on_c, 12, 64, 68
16, 40000, Control_c, 12, 11, 124
16, 40040, Control_c, 12, 11, 127
16, 40071, Note_on_c, 12, 64, 0
16, 40080, Note_on_c, 12, 65, 52
16, 40115, Note_on_c, 12, 65, 0
16, 40120, Note_on_c, 12, 69, 52
16, 40155, Note_on_c, 12, 69, 0
16, 40160, Note_on_c, 12, 69, 52
16, 40195, Note_on_c, 12, 69, 0
16, 40240, Note_on_c, 12, 64, 52
16, 40275, Note_on_c, 12, 64, 0
16, 40280, Note_on_c, 12, 64, 52
16, 40315, Note_on_c, 12, 64, 0
16, 40360, Note_on_c, 12, 65, 52
16, 40395, Note_on_c, 12, 65, 0
16, 40400, Note_on_c, 12, 65, 52
16, 40435, Note_on_c, 12, 65, 0
16, 40480, Note_on_c, 12, 67, 52
16, 40515, Note_on_c, 12, 67, 0
16, 40520, Note_on_c, 12, 67, 52
16, 40555, Note_on_c, 12, 67, 0
16, 40600, Note_on_c, 12, 69, 52
16, 40635, Note_on_c, 12, 69, 0
16, 40640, Note_on_c, 12, 69, 52
16, 40675, Note_on_c, 12, 69, 0
16, 40720, Note_on_c, 12, 67, 52
16, 40755, Note_on_c, 12, 67, 0
16, 40760, Note_on_c, 12, 67, 52
16, 40795, Note_on_c, 12, 67, 0
16, 40840, Note_on_c, 12, 69, 52
16, 40875, Note_on_c, 12, 69, 0
16, 40880, Note_on_c, 12, 69, 52
16, 40915, Note_on_c, 12, 69, 0
16, 40960, Note_on_c, 12, 69, 52
16, 40995, Note_on_c, 12, 69, 0
16, 41000, Note_on_c, 12, 62, 52
16, 41035, Note_on_c, 12, 62, 0
16, 41040, Note_on_c, 12, 62, 52
16, 41069, Note_on_c, 12, 62, 0
16, 41080, Note_on_c, 12, 59, 52
16, 41109, Note_on_c, 12, 59, 0
16, 41120, Note_on_c, 12, 62, 52
16, 41149, Note_on_c, 12, 62, 0
16, 41160, Note_on_c, 12, 67, 52
16, 41189, Note_on_c, 12, 67, 0
16, 41200, Note_on_c, 12, 69, 52
16, 41229, Note_on_c, 12, 69, 0
16, 41240, Note_on_c, 12, 71, 52
16, 41269, Note_on_c, 12, 71, 0
16, 41280, Note_on_c, 12, 72, 52
16, 41369, Note_on_c, 12, 72, 0
16, 41480, Note_on_c, 12, 60, 52
16, 41515, Note_on_c, 12, 60, 0
16, 41520, Note_on_c, 12, 55, 52
16, 41555, Note_on_c, 12, 55, 0
16, 41560, Note_on_c, 12, 59, 52
16, 41595, Note_on_c, 12, 59, 0
16, 41600, Note_on_c, 12, 62, 52
16, 41635, Note_on_c, 12, 62, 0
16, 41640, Note_on_c, 12, 67, 52
16, 41675, Note_on_c, 12, 67, 0
16, 41680, Note_on_c, 12, 69, 52
16, 41715, Note_on_c, 12, 69, 0
16, 41720, Note_on_c, 12, 71, 52
16, 41755, Note_on_c, 12, 71, 0
16, 41760, Note_on_c, 12, 72, 52
16, 41795, Note_on_c, 12, 72, 0
16, 41800, Note_on_c, 12, 67, 52
16, 41835, Note_on_c, 12, 67, 0
16, 41840, Note_on_c, 12, 64, 52
16, 41875, Note_on_c, 12, 64, 0
16, 41880, Note_on_c, 12, 67, 52
16, 41915, Note_on_c, 12, 67, 0
16, 41920, Note_on_c, 12, 64, 52
16, 41955, Note_on_c, 12, 64, 0
16, 41960, Note_on_c, 12, 60, 52
16, 41995, Note_on_c, 12, 60, 0
16, 42000, Note_on_c, 12, 59, 52
16, 42035, Note_on_c, 12, 59, 0
16, 42040, Note_on_c, 12, 67, 52
16, 42040, Note_on_c, 12, 55, 52
16, 42075, Note_on_c, 12, 67, 0
16, 42075, Note_on_c, 12, 55, 0
16, 42080, Note_on_c, 12, 55, 52
16, 42080, Note_on_c, 12, 67, 52
16, 42115, Note_on_c, 12, 55, 0
16, 42115, Note_on_c, 12, 67, 0
16, 42120, Note_on_c, 12, 55, 52
16, 42120, Note_on_c, 12, 67, 52
16, 42155, Note_on_c, 12, 55, 0
16, 42155, Note_on_c, 12, 67, 0
16, 42160, Note_on_c, 12, 55, 52
16, 42160, Note_on_c, 12, 67, 52
16, 42195, Note_on_c, 12, 55, 0
16, 42195, Note_on_c, 12, 67, 0
16, 42200, Note_on_c, 12, 55, 52
16, 42200, Note_on_c, 12, 67, 52
16, 42235, Note_on_c, 12, 55, 0
16, 42235, Note_on_c, 12, 67, 0
16, 42240, Note_on_c, 12, 67, 52
16, 42240, Note_on_c, 12, 55, 52
16, 42275, Note_on_c, 12, 67, 0
16, 42275, Note_on_c, 12, 55, 0
16, 42280, Note_on_c, 12, 55, 52
16, 42280, Note_on_c, 12, 67, 52
16, 42315, Note_on_c, 12, 55, 0
16, 42315, Note_on_c, 12, 67, 0
16, 42320, Note_on_c, 12, 67, 52
16, 42320, Note_on_c, 12, 55, 52
16, 42355, Note_on_c, 12, 67, 0
16, 42355, Note_on_c, 12, 55, 0
16, 42360, Note_on_c, 12, 55, 52
16, 42360, Note_on_c, 12, 67, 52
16, 42395, Note_on_c, 12, 55, 0
16, 42395, Note_on_c, 12, 67, 0
16, 42400, Note_on_c, 12, 55, 52
16, 42400, Note_on_c, 12, 67, 52
16, 42435, Note_on_c, 12, 55, 0
16, 42435, Note_on_c, 12, 67, 0
16, 42440, Note_on_c, 12, 67, 52
16, 42440, Note_on_c, 12, 55, 52
16, 42475, Note_on_c, 12, 67, 0
16, 42475, Note_on_c, 12, 55, 0
16, 42480, Note_on_c, 12, 55, 52
16, 42480, Note_on_c, 12, 67, 52
16, 42515, Note_on_c, 12, 55, 0
16, 42515, Note_on_c, 12, 67, 0
16, 42520, Note_on_c, 12, 55, 52
16, 42520, Note_on_c, 12, 67, 52
16, 42555, Note_on_c, 12, 55, 0
16, 42555, Note_on_c, 12, 67, 0
16, 42560, Note_on_c, 12, 55, 52
16, 42560, Note_on_c, 12, 67, 52
16, 42595, Note_on_c, 12, 55, 0
16, 42595, Note_on_c, 12, 67, 0
16, 42600, Note_on_c, 12, 55, 52
16, 42600, Note_on_c, 12, 67, 52
16, 42635, Note_on_c, 12, 55, 0
16, 42635, Note_on_c, 12, 67, 0
16, 42640, Note_on_c, 12, 55, 52
16, 42640, Note_on_c, 12, 67, 52
16, 42675, Note_on_c, 12, 55, 0
16, 42675, Note_on_c, 12, 67, 0
16, 42680, Note_on_c, 12, 55, 52
16, 42680, Note_on_c, 12, 67, 52
16, 42715, Note_on_c, 12, 55, 0
16, 42715, Note_on_c, 12, 67, 0
16, 42720, Note_on_c, 12, 67, 52
16, 42720, Note_on_c, 12, 55, 52
16, 42755, Note_on_c, 12, 67, 0
16, 42755, Note_on_c, 12, 55, 0
16, 42760, Note_on_c, 12, 67, 52
16, 42760, Note_on_c, 12, 55, 52
16, 42795, Note_on_c, 12, 67, 0
16, 42795, Note_on_c, 12, 55, 0
16, 42800, Note_on_c, 12, 55, 52
16, 42800, Note_on_c, 12, 67, 52
16, 42835, Note_on_c, 12, 55, 0
16, 42835, Note_on_c, 12, 67, 0
16, 42840, Note_on_c, 12, 55, 52
16, 42840, Note_on_c, 12, 67, 52
16, 42875, Note_on_c, 12, 55, 0
16, 42875, Note_on_c, 12, 67, 0
16, 42880, Note_on_c, 12, 55, 52
16, 42880, Note_on_c, 12, 67, 52
16, 42915, Note_on_c, 12, 55, 0
16, 42915, Note_on_c, 12, 67, 0
16, 42920, Note_on_c, 12, 67, 52
16, 42920, Note_on_c, 12, 55, 52
16, 42955, Note_on_c, 12, 67, 0
16, 42955, Note_on_c, 12, 55, 0
16, 42960, Note_on_c, 12, 55, 52
16, 42960, Note_on_c, 12, 67, 52
16, 42995, Note_on_c, 12, 55, 0
16, 42995, Note_on_c, 12, 67, 0
16, 43000, Note_on_c, 12, 67, 52
16, 43035, Note_on_c, 12, 67, 0
16, 43040, Note_on_c, 12, 72, 52
16, 43069, Note_on_c, 12, 72, 0
16, 43080, Note_on_c, 12, 64, 52
16, 43119, Note_on_c, 12, 64, 0
16, 43120, Note_on_c, 12, 67, 52
16, 43155, Note_on_c, 12, 67, 0
16, 43160, Note_on_c, 12, 72, 52
16, 43189, Note_on_c, 12, 72, 0
16, 43200, Note_on_c, 12, 64, 52
16, 43239, Note_on_c, 12, 64, 0
16, 43240, Note_on_c, 12, 67, 52
16, 43275, Note_on_c, 12, 67, 0
16, 43280, Note_on_c, 12, 72, 52
16, 43309, Note_on_c, 12, 72, 0
16, 43320, Note_on_c, 12, 64, 52
16, 43359, Note_on_c, 12, 64, 0
16, 43360, Note_on_c, 12, 67, 52
16, 43395, Note_on_c, 12, 67, 0
16, 43400, Note_on_c, 12, 72, 52
16, 43429, Note_on_c, 12, 72, 0
16, 43440, Note_on_c, 12, 64, 52
16, 43479, Note_on_c, 12, 64, 0
16, 43480, Note_on_c, 12, 67, 52
16, 43515, Note_on_c, 12, 67, 0
16, 43520, Note_on_c, 12, 72, 52
16, 43549, Note_on_c, 12, 72, 0
16, 43560, Note_on_c, 12, 64, 52
16, 43599, Note_on_c, 12, 64, 0
16, 43600, Note_on_c, 12, 67, 52
16, 43635, Note_on_c, 12, 67, 0
16, 43640, Note_on_c, 12, 72, 52
16, 43669, Note_on_c, 12, 72, 0
16, 43680, Note_on_c, 12, 64, 52
16, 43719, Note_on_c, 12, 64, 0
16, 43720, Note_on_c, 12, 67, 52
16, 43755, Note_on_c, 12, 67, 0
16, 43760, Note_on_c, 12, 72, 52
16, 43789, Note_on_c, 12, 72, 0
16, 43800, Note_on_c, 12, 64, 52
16, 43839, Note_on_c, 12, 64, 0
16, 43840, Note_on_c, 12, 67, 52
16, 43875, Note_on_c, 12, 67, 0
16, 43880, Note_on_c, 12, 72, 52
16, 43909, Note_on_c, 12, 72, 0
16, 43920, Note_on_c, 12, 72, 52
16, 43959, Note_on_c, 12, 72, 0
16, 43960, Note_on_c, 12, 69, 52
16, 43995, Note_on_c, 12, 69, 0
16, 44000, Note_on_c, 12, 65, 53
16, 44029, Note_on_c, 12, 65, 0
16, 44040, Note_on_c, 12, 72, 53
16, 44079, Note_on_c, 12, 72, 0
16, 44080, Note_on_c, 12, 69, 54
16, 44115, Note_on_c, 12, 69, 0
16, 44120, Note_on_c, 12, 65, 54
16, 44149, Note_on_c, 12, 65, 0
16, 44160, Note_on_c, 12, 72, 55
16, 44199, Note_on_c, 12, 72, 0
16, 44200, Note_on_c, 12, 69, 55
16, 44235, Note_on_c, 12, 69, 0
16, 44240, Note_on_c, 12, 65, 56
16, 44269, Note_on_c, 12, 65, 0
16, 44280, Note_on_c, 12, 72, 56
16, 44319, Note_on_c, 12, 72, 0
16, 44320, Note_on_c, 12, 69, 57
16, 44355, Note_on_c, 12, 69, 0
16, 44360, Note_on_c, 12, 65, 57
16, 44389, Note_on_c, 12, 65, 0
16, 44400, Note_on_c, 12, 77, 58
16, 44439, Note_on_c, 12, 77, 0
16, 44440, Note_on_c, 12, 72, 58
16, 44475, Note_on_c, 12, 72, 0
16, 44480, Note_on_c, 12, 69, 59
16, 44509, Note_on_c, 12, 69, 0
16, 44520, Note_on_c, 12, 77, 59
16, 44559, Note_on_c, 12, 77, 0
16, 44560, Note_on_c, 12, 72, 60
16, 44595, Note_on_c, 12, 72, 0
16, 44600, Note_on_c, 12, 69, 60
16, 44629, Note_on_c, 12, 69, 0
16, 44640, Note_on_c, 12, 77, 61
16, 44679, Note_on_c, 12, 77, 0
16, 44680, Note_on_c, 12, 72, 61
16, 44715, Note_on_c, 12, 72, 0
16, 44720, Note_on_c, 12, 69, 62
16, 44749, Note_on_c, 12, 69, 0
16, 44760, Note_on_c, 12, 77, 62
16, 44799, Note_on_c, 12, 77, 0
16, 44800, Note_on_c, 12, 72, 63
16, 44835, Note_on_c, 12, 72, 0
16, 44840, Note_on_c, 12, 69, 63
16, 44869, Note_on_c, 12, 69, 0
16, 44880, Note_on_c, 12, 76, 64
16, 44919, Note_on_c, 12, 76, 0
16, 44920, Note_on_c, 12, 72, 64
16, 44955, Note_on_c, 12, 72, 0
16, 44960, Note_on_c, 12, 67, 65
16, 44989, Note_on_c, 12, 67, 0
16, 45000, Note_on_c, 12, 76, 65
16, 45039, Note_on_c, 12, 76, 0
16, 45040, Note_on_c, 12, 72, 66
16, 45075, Note_on_c, 12, 72, 0
16, 45080, Note_on_c, 12, 67, 66
16, 45109, Note_on_c, 12, 67, 0
16, 45120, Note_on_c, 12, 74, 67
16, 45159, Note_on_c, 12, 74, 0
16, 45160, Note_on_c, 12, 71, 67
16, 45195, Note_on_c, 12, 71, 0
16, 45200, Note_on_c, 12, 67, 68
16, 45229, Note_on_c, 12, 67, 0
16, 45240, Note_on_c, 12, 74, 68
16, 45279, Note_on_c, 12, 74, 0
16, 45280, Note_on_c, 12, 71, 69
16, 45315, Note_on_c, 12, 71, 0
16, 45320, Note_on_c, 12, 67, 69
16, 45349, Note_on_c, 12, 67, 0
16, 45360, Note_on_c, 12, 72, 70
16, 45399, Note_on_c, 12, 72, 0
16, 45400, Note_on_c, 12, 67, 70
16, 45435, Note_on_c, 12, 67, 0
16, 45440, Note_on_c, 12, 64, 71
16, 45469, Note_on_c, 12, 64, 0
16, 45480, Note_on_c, 12, 72, 71
16, 45519, Note_on_c, 12, 72, 0
16, 45520, Note_on_c, 12, 67, 72
16, 45555, Note_on_c, 12, 67, 0
16, 45560, Note_on_c, 12, 64, 72
16, 45589, Note_on_c, 12, 64, 0
16, 45600, Note_on_c, 12, 72, 73
16, 45639, Note_on_c, 12, 72, 0
16, 45640, Note_on_c, 12, 69, 73
16, 45675, Note_on_c, 12, 69, 0
16, 45680, Note_on_c, 12, 65, 74
16, 45709, Note_on_c, 12, 65, 0
16, 45720, Note_on_c, 12, 72, 74
16, 45759, Note_on_c, 12, 72, 0
16, 45760, Note_on_c, 12, 69, 75
16, 45795, Note_on_c, 12, 69, 0
16, 45800, Note_on_c, 12, 65, 75
16, 45829, Note_on_c, 12, 65, 0
16, 45840, Note_on_c, 12, 64, 76
16, 45875, Note_on_c, 12, 64, 0
16, 45880, Note_on_c, 12, 79, 76
16, 45880, Note_on_c, 12, 72, 76
16, 45915, Note_on_c, 12, 79, 0
16, 45915, Note_on_c, 12, 72, 0
16, 45920, Note_on_c, 12, 79, 76
16, 45920, Note_on_c, 12, 72, 76
16, 45955, Note_on_c, 12, 79, 0
16, 45955, Note_on_c, 12, 72, 0
16, 45960, Note_on_c, 12, 72, 77
16, 45960, Note_on_c, 12, 79, 77
16, 45995, Note_on_c, 12, 72, 0
16, 45995, Note_on_c, 12, 79, 0
16, 46000, Note_on_c, 12, 72, 77
16, 46000, Note_on_c, 12, 79, 77
16, 46035, Note_on_c, 12, 72, 0
16, 46035, Note_on_c, 12, 79, 0
16, 46040, Note_on_c, 12, 72, 77
16, 46040, Note_on_c, 12, 79, 77
16, 46075, Note_on_c, 12, 72, 0
16, 46075, Note_on_c, 12, 79, 0
16, 46080, Note_on_c, 12, 79, 78
16, 46080, Note_on_c, 12, 72, 78
16, 46115, Note_on_c, 12, 79, 0
16, 46115, Note_on_c, 12, 72, 0
16, 46120, Note_on_c, 12, 79, 78
16, 46120, Note_on_c, 12, 72, 78
16, 46155, Note_on_c, 12, 79, 0
16, 46155, Note_on_c, 12, 72, 0
16, 46160, Note_on_c, 12, 72, 78
16, 46160, Note_on_c, 12, 79, 78
16, 46195, Note_on_c, 12, 72, 0
16, 46195, Note_on_c, 12, 79, 0
16, 46200, Note_on_c, 12, 79, 79
16, 46200, Note_on_c, 12, 72, 79
16, 46235, Note_on_c, 12, 79, 0
16, 46235, Note_on_c, 12, 72, 0
16, 46240, Note_on_c, 12, 79, 79
16, 46240, Note_on_c, 12, 72, 79
16, 46275, Note_on_c, 12, 79, 0
16, 46275, Note_on_c, 12, 72, 0
16, 46280, Note_on_c, 12, 79, 79
16, 46280, Note_on_c, 12, 72, 79
16, 46315, Note_on_c, 12, 79, 0
16, 46315, Note_on_c, 12, 72, 0
16, 46320, Note_on_c, 12, 71, 80
16, 46320, Note_on_c, 12, 79, 80
16, 46355, Note_on_c, 12, 71, 0
16, 46355, Note_on_c, 12, 79, 0
16, 46360, Note_on_c, 12, 71, 80
16, 46360, Note_on_c, 12, 79, 80
16, 46395, Note_on_c, 12, 71, 0
16, 46395, Note_on_c, 12, 79, 0
16, 46400, Note_on_c, 12, 71, 80
16, 46400, Note_on_c, 12, 79, 80
16, 46435, Note_on_c, 12, 71, 0
16, 46435, Note_on_c, 12, 79, 0
16, 46440, Note_on_c, 12, 71, 81
16, 46440, Note_on_c, 12, 79, 81
16, 46475, Note_on_c, 12, 71, 0
16, 46475, Note_on_c, 12, 79, 0
16, 46480, Note_on_c, 12, 79, 81
16, 46480, Note_on_c, 12, 71, 81
16, 46515, Note_on_c, 12, 79, 0
16, 46515, Note_on_c, 12, 71, 0
16, 46520, Note_on_c, 12, 79, 81
16, 46520, Note_on_c, 12, 71, 81
16, 46555, Note_on_c, 12, 79, 0
16, 46555, Note_on_c, 12, 71, 0
16, 46560, Note_on_c, 12, 71, 82
16, 46560, Note_on_c, 12, 79, 82
16, 46595, Note_on_c, 12, 71, 0
16, 46595, Note_on_c, 12, 79, 0
16, 46600, Note_on_c, 12, 71, 82
16, 46600, Note_on_c, 12, 79, 82
16, 46635, Note_on_c, 12, 71, 0
16, 46635, Note_on_c, 12, 79, 0
16, 46640, Note_on_c, 12, 79, 82
16, 46640, Note_on_c, 12, 71, 82
16, 46675, Note_on_c, 12, 79, 0
16, 46675, Note_on_c, 12, 71, 0
16, 46680, Note_on_c, 12, 79, 83
16, 46680, Note_on_c, 12, 71, 83
16, 46715, Note_on_c, 12, 79, 0
16, 46715, Note_on_c, 12, 71, 0
16, 46720, Note_on_c, 12, 71, 83
16, 46720, Note_on_c, 12, 79, 83
16, 46755, Note_on_c, 12, 71, 0
16, 46755, Note_on_c, 12, 79, 0
16, 46760, Note_on_c, 12, 79, 83
16, 46760, Note_on_c, 12, 71, 83
16, 46795, Note_on_c, 12, 79, 0
16, 46795, Note_on_c, 12, 71, 0
16, 46800, Note_on_c, 12, 79, 84
16, 46800, Note_on_c, 12, 72, 84
16, 46819, Note_on_c, 12, 79, 0
16, 46819, Note_on_c, 12, 72, 0
16, 46820, Note_on_c, 12, 72, 84
16, 46820, Note_on_c, 12, 79, 84
16, 46839, Note_on_c, 12, 72, 0
16, 46839, Note_on_c, 12, 79, 0
16, 46840, Note_on_c, 12, 79, 84
16, 46840, Note_on_c, 12, 72, 84
16, 46859, Note_on_c, 12, 79, 0
16, 46859, Note_on_c, 12, 72, 0
16, 46860, Note_on_c, 12, 72, 84
16, 46860, Note_on_c, 12, 79, 84
16, 46879, Note_on_c, 12, 72, 0
16, 46879, Note_on_c, 12, 79, 0
16, 46880, Note_on_c, 12, 79, 84
16, 46880, Note_on_c, 12, 72, 84
16, 46899, Note_on_c, 12, 79, 0
16, 46899, Note_on_c, 12, 72, 0
16, 46900, Note_on_c, 12, 79, 84
16, 46900, Note_on_c, 12, 72, 84
16, 46919, Note_on_c, 12, 79, 0
16, 46919, Note_on_c, 12, 72, 0
16, 46920, Note_on_c, 12, 79, 84
16, 46920, Note_on_c, 12, 72, 84
16, 46939, Note_on_c, 12, 79, 0
16, 46939, Note_on_c, 12, 72, 0
16, 46940, Note_on_c, 12, 72, 84
16, 46940, Note_on_c, 12, 79, 84
16, 46959, Note_on_c, 12, 72, 0
16, 46959, Note_on_c, 12, 79, 0
16, 46960, Note_on_c, 12, 72, 84
16, 46960, Note_on_c, 12, 79, 84
16, 46979, Note_on_c, 12, 72, 0
16, 46979, Note_on_c, 12, 79, 0
16, 46980, Note_on_c, 12, 72, 84
16, 46980, Note_on_c, 12, 79, 84
16, 46999, Note_on_c, 12, 72, 0
16, 46999, Note_on_c, 12, 79, 0
16, 47000, Note_on_c, 12, 72, 84
16, 47000, Note_on_c, 12, 79, 84
16, 47019, Note_on_c, 12, 72, 0
16, 47019, Note_on_c, 12, 79, 0
16, 47020, Note_on_c, 12, 79, 84
16, 47020, Note_on_c, 12, 72, 84
16, 47039, Note_on_c, 12, 79, 0
16, 47039, Note_on_c, 12, 72, 0
16, 47040, Note_on_c, 12, 72, 84
16, 47040, Note_on_c, 12, 79, 84
16, 47129, Note_on_c, 12, 72, 0
16, 47129, Note_on_c, 12, 79, 0
16, 47160, Note_on_c, 12, 67, 92
16, 47249, Note_on_c, 12, 67, 0
16, 47280, Note_on_c, 12, 79, 84
16, 47280, Note_on_c, 12, 72, 84
16, 47299, Note_on_c, 12, 79, 0
16, 47299, Note_on_c, 12, 72, 0
16, 47300, Note_on_c, 12, 79, 84
16, 47300, Note_on_c, 12, 72, 84
16, 47319, Note_on_c, 12, 79, 0
16, 47319, Note_on_c, 12, 72, 0
16, 47320, Note_on_c, 12, 72, 84
16, 47320, Note_on_c, 12, 79, 84
16, 47339, Note_on_c, 12, 72, 0
16, 47339, Note_on_c, 12, 79, 0
16, 47340, Note_on_c, 12, 79, 84
16, 47340, Note_on_c, 12, 72, 84
16, 47359, Note_on_c, 12, 79, 0
16, 47359, Note_on_c, 12, 72, 0
16, 47360, Note_on_c, 12, 79, 84
16, 47360, Note_on_c, 12, 72, 84
16, 47379, Note_on_c, 12, 79, 0
16, 47379, Note_on_c, 12, 72, 0
16, 47380, Note_on_c, 12, 79, 84
16, 47380, Note_on_c, 12, 72, 84
16, 47399, Note_on_c, 12, 79, 0
16, 47399, Note_on_c, 12, 72, 0
16, 47400, Note_on_c, 12, 79, 84
16, 47400, Note_on_c, 12, 72, 84
16, 47419, Note_on_c, 12, 79, 0
16, 47419, Note_on_c, 12, 72, 0
16, 47420, Note_on_c, 12, 79, 84
16, 47420, Note_on_c, 12, 72, 84
16, 47439, Note_on_c, 12, 79, 0
16, 47439, Note_on_c, 12, 72, 0
16, 47440, Note_on_c, 12, 72, 84
16, 47440, Note_on_c, 12, 79, 84
16, 47459, Note_on_c, 12, 72, 0
16, 47459, Note_on_c, 12, 79, 0
16, 47460, Note_on_c, 12, 79, 84
16, 47460, Note_on_c, 12, 72, 84
16, 47479, Note_on_c, 12, 79, 0
16, 47479, Note_on_c, 12, 72, 0
16, 47480, Note_on_c, 12, 79, 84
16, 47480, Note_on_c, 12, 72, 84
16, 47499, Note_on_c, 12, 79, 0
16, 47499, Note_on_c, 12, 72, 0
16, 47500, Note_on_c, 12, 79, 84
16, 47500, Note_on_c, 12, 72, 84
16, 47519, Note_on_c, 12, 79, 0
16, 47519, Note_on_c, 12, 72, 0
16, 47520, Note_on_c, 12, 72, 84
16, 47520, Note_on_c, 12, 79, 84
16, 47609, Note_on_c, 12, 72, 0
16, 47609, Note_on_c, 12, 79, 0
16, 47640, Note_on_c, 12, 67, 92
16, 47729, Note_on_c, 12, 67, 0
16, 47760, Note_on_c, 12, 72, 84
16, 47760, Note_on_c, 12, 64, 84
16, 47760, Note_on_c, 12, 79, 84
16, 47849, Note_on_c, 12, 72, 0
16, 47849, Note_on_c, 12, 64, 0
16, 47849, Note_on_c, 12, 79, 0
16, 47880, Note_on_c, 12, 67, 92
16, 47969, Note_on_c, 12, 67, 0
16, 48000, Note_on_c, 12, 72, 84
16, 48000, Note_on_c, 12, 64, 84
16, 48000, Note_on_c, 12, 79, 84
16, 48089, Note_on_c, 12, 72, 0
16, 48089, Note_on_c, 12, 64, 0
16, 48089, Note_on_c, 12, 79, 0
16, 48120, Note_on_c, 12, 67, 92
16, 48209, Note_on_c, 12, 67, 0
16, 48240, Note_on_c, 12, 72, 76
16, 48269, Note_on_c, 12, 72, 0
16, 48270, Note_on_c, 12, 72, 52
16, 48719, Note_on_c, 12, 72, 0
16, 48720, Note_on_c, 12, 68, 52
16, 49079, Note_on_c, 12, 68, 0
16, 49080, Note_on_c, 12, 65, 52
16, 49184, Note_on_c, 12, 65, 0
16, 49192, Control_c, 12, 11, 96
16, 49200, Note_on_c, 12, 61, 68
16, 49319, Note_on_c, 12, 61, 0
16, 49320, Control_c, 12, 11, 96
16, 49320, Note_on_c, 12, 56, 68
16, 49340, Control_c, 12, 11, 98
16, 49360, Control_c, 12, 11, 99
16, 49380, Control_c, 12, 11, 101
16, 49400, Control_c, 12, 11, 103
16, 49409, Note_on_c, 12, 56, 0
16, 49410, Note_on_c, 12, 65, 68
16, 49420, Control_c, 12, 11, 105
16, 49435, Note_on_c, 12, 65, 0
16, 49440, Control_c, 12, 11, 106
16, 49440, Note_on_c, 12, 61, 68
16, 49460, Control_c, 12, 11, 108
16, 49480, Control_c, 12, 11, 110
16, 49500, Control_c, 12, 11, 112
16, 49520, Control_c, 12, 11, 113
16, 49529, Note_on_c, 12, 61, 0
16, 49540, Control_c, 12, 11, 115
16, 49560, Note_on_c, 12, 60, 68
16, 49560, Control_c, 12, 11, 117
16, 49580, Control_c, 12, 11, 118
16, 49600, Control_c, 12, 11, 120
16, 49620, Control_c, 12, 11, 122
16, 49640, Control_c, 12, 11, 124
16, 49649, Note_on_c, 12, 60, 0
16, 49660, Control_c, 12, 11, 127
16, 49680, Note_on_c, 12, 59, 52
16, 49799, Note_on_c, 12, 59, 0
16, 50160, Note_on_c, 12, 55, 52
16, 50399, Note_on_c, 12, 55, 0
16, 50640, Note_on_c, 12, 55, 52
16, 50999, Note_on_c, 12, 55, 0
16, 51120, Note_on_c, 12, 55, 52
16, 51351, Note_on_c, 12, 55, 0
16, 51360, Note_on_c, 12, 55, 52
16, 51591, Note_on_c, 12, 55, 0
16, 51600, Note_on_c, 12, 55, 52
16, 51719, Note_on_c, 12, 55, 0
16, 51720, Note_on_c, 12, 66, 52
16, 51839, Note_on_c, 12, 66, 0
16, 51840, Note_on_c, 12, 67, 52
16, 51959, Note_on_c, 12, 67, 0
16, 52080, Note_on_c, 12, 59, 52
16, 52319, Note_on_c, 12, 59, 0
16, 52560, Note_on_c, 12, 65, 52
16, 52679, Note_on_c, 12, 65, 0
16, 53040, Note_on_c, 12, 64, 52
16, 53279, Note_on_c, 12, 64, 0
16, 53520, Note_on_c, 12, 67, 68
16, 53580, Control_c, 12, 11, 127
16, 53603, Control_c, 12, 11, 125
16, 53627, Control_c, 12, 11, 124
16, 53650, Control_c, 12, 11, 122
16, 53673, Control_c, 12, 11, 120
16, 53697, Control_c, 12, 11, 118
16, 53720, Control_c, 12, 11, 117
16, 53743, Control_c, 12, 11, 115
16, 53767, Control_c, 12, 11, 113
16, 53790, Control_c, 12, 11, 112
16, 53813, Control_c, 12, 11, 110
16, 53837, Control_c, 12, 11, 108
16, 53860, Control_c, 12, 11, 106
16, 53879, Note_on_c, 12, 67, 0
16, 53880, Note_on_c, 12, 60, 60
16, 53883, Control_c, 12, 11, 105
16, 53907, Control_c, 12, 11, 103
16, 53930, Control_c, 12, 11, 101
16, 53953, Control_c, 12, 11, 99
16, 53977, Control_c, 12, 11, 96
16, 53991, Note_on_c, 12, 60, 0
16, 54000, Note_on_c, 12, 60, 68
16, 54111, Note_on_c, 12, 60, 0
16, 54120, Note_on_c, 12, 61, 68
16, 54164, Note_on_c, 12, 61, 0
16, 54180, Note_on_c, 12, 58, 68
16, 54224, Note_on_c, 12, 58, 0
16, 54240, Note_on_c, 12, 56, 68
16, 54359, Note_on_c, 12, 56, 0
16, 54360, Note_on_c, 12, 58, 68
16, 54449, Note_on_c, 12, 58, 0
16, 54450, Note_on_c, 12, 55, 68
16, 54471, Note_on_c, 12, 55, 0
16, 54476, Control_c, 12, 11, 127
16, 54480, Note_on_c, 12, 56, 76
16, 54480, Note_on_c, 12, 65, 76
16, 54599, Note_on_c, 12, 56, 0
16, 54719, Note_on_c, 12, 65, 0
16, 54720, Note_on_c, 12, 67, 76
16, 54839, Note_on_c, 12, 67, 0
16, 54840, Note_on_c, 12, 68, 76
16, 54951, Note_on_c, 12, 68, 0
16, 54960, Note_on_c, 12, 70, 84
16, 55304, Note_on_c, 12, 70, 0
16, 55320, Note_on_c, 12, 68, 76
16, 55334, Note_on_c, 12, 68, 0
16, 55335, Note_on_c, 12, 70, 76
16, 55349, Note_on_c, 12, 70, 0
16, 55350, Note_on_c, 12, 68, 76
16, 55364, Note_on_c, 12, 68, 0
16, 55365, Note_on_c, 12, 70, 76
16, 55379, Note_on_c, 12, 70, 0
16, 55380, Note_on_c, 12, 68, 76
16, 55394, Note_on_c, 12, 68, 0
16, 55395, Note_on_c, 12, 70, 76
16, 55409, Note_on_c, 12, 70, 0
16, 55410, Note_on_c, 12, 67, 76
16, 55424, Note_on_c, 12, 67, 0
16, 55425, Note_on_c, 12, 68, 76
16, 55436, Note_on_c, 12, 68, 0
16, 55440, Note_on_c, 12, 67, 76
16, 55559, Note_on_c, 12, 67, 0
16, 55560, Note_on_c, 12, 73, 76
16, 55679, Note_on_c, 12, 73, 0
16, 55680, Note_on_c, 12, 72, 84
16, 55799, Note_on_c, 12, 72, 0
16, 55800, Note_on_c, 12, 70, 76
16, 55911, Note_on_c, 12, 70, 0
16, 55920, Note_on_c, 12, 68, 76
16, 55979, Note_on_c, 12, 68, 0
16, 55980, Note_on_c, 12, 70, 76
16, 56031, Note_on_c, 12, 70, 0
16, 56040, Note_on_c, 12, 68, 76
16, 56084, Note_on_c, 12, 68, 0
16, 56100, Note_on_c, 12, 67, 76
16, 56144, Note_on_c, 12, 67, 0
16, 56160, Note_on_c, 12, 65, 76
16, 56204, Note_on_c, 12, 65, 0
16, 56220, Note_on_c, 12, 63, 76
16, 56264, Note_on_c, 12, 63, 0
16, 56280, Note_on_c, 12, 62, 76
16, 56324, Note_on_c, 12, 62, 0
16, 56340, Note_on_c, 12, 60, 76
16, 56384, Note_on_c, 12, 60, 0
16, 56400, Note_on_c, 12, 59, 76
16, 56444, Note_on_c, 12, 59, 0
16, 56460, Note_on_c, 12, 60, 76
16, 56504, Note_on_c, 12, 60, 0
16, 56520, Note_on_c, 12, 62, 76
16, 56564, Note_on_c, 12, 62, 0
16, 56580, Note_on_c, 12, 60, 76
16, 56624, Note_on_c, 12, 60, 0
16, 56640, Note_on_c, 12, 59, 76
16, 56684, Note_on_c, 12, 59, 0
16, 56700, Note_on_c, 12, 55, 76
16, 56744, Note_on_c, 12, 55, 0
16, 56760, Note_on_c, 12, 60, 76
16, 56804, Note_on_c, 12, 60, 0
16, 56820, Note_on_c, 12, 55, 76
16, 56864, Note_on_c, 12, 55, 0
16, 56880, Note_on_c, 12, 65, 76
16, 56924, Note_on_c, 12, 65, 0
16, 56940, Note_on_c, 12, 55, 76
16, 56984, Note_on_c, 12, 55, 0
16, 57000, Note_on_c, 12, 65, 76
16, 57044, Note_on_c, 12, 65, 0
16, 57060, Note_on_c, 12, 55, 76
16, 57104, Note_on_c, 12, 55, 0
16, 57120, Note_on_c, 12, 63, 76
16, 57164, Note_on_c, 12, 63, 0
16, 57180, Note_on_c, 12, 55, 76
16, 57224, Note_on_c, 12, 55, 0
16, 57240, Note_on_c, 12, 62, 76
16, 57284, Note_on_c, 12, 62, 0
16, 57300, Note_on_c, 12, 55, 76
16, 57344, Note_on_c, 12, 55, 0
16, 57360, Note_on_c, 12, 60, 76
16, 57404, Note_on_c, 12, 60, 0
16, 57420, Note_on_c, 12, 72, 76
16, 57464, Note_on_c, 12, 72, 0
16, 57480, Note_on_c, 12, 70, 76
16, 57524, Note_on_c, 12, 70, 0
16, 57540, Note_on_c, 12, 72, 76
16, 57584, Note_on_c, 12, 72, 0
16, 57600, Note_on_c, 12, 68, 76
16, 57644, Note_on_c, 12, 68, 0
16, 57660, Note_on_c, 12, 72, 76
16, 57704, Note_on_c, 12, 72, 0
16, 57720, Note_on_c, 12, 67, 76
16, 57764, Note_on_c, 12, 67, 0
16, 57780, Note_on_c, 12, 72, 76
16, 57824, Note_on_c, 12, 72, 0
16, 57840, Note_on_c, 12, 65, 76
16, 57959, Note_on_c, 12, 65, 0
16, 59400, Note_on_c, 12, 60, 84
16, 59504, Note_on_c, 12, 60, 0
16, 59520, Note_on_c, 12, 60, 76
16, 59639, Note_on_c, 12, 60, 0
16, 59640, Note_on_c, 12, 62, 76
16, 59699, Note_on_c, 12, 62, 0
16, 59700, Note_on_c, 12, 63, 76
16, 59751, Note_on_c, 12, 63, 0
16, 59760, Note_on_c, 12, 65, 76
16, 59871, Note_on_c, 12, 65, 0
16, 59880, Note_on_c, 12, 74, 76
16, 59969, Note_on_c, 12, 74, 0
16, 60000, Note_on_c, 12, 67, 76
16, 60089, Note_on_c, 12, 67, 0
16, 60120, Note_on_c, 12, 79, 76
16, 60209, Note_on_c, 12, 79, 0
16, 60240, Note_on_c, 12, 72, 84
16, 60704, Note_on_c, 12, 72, 0
16, 60720, Note_on_c, 12, 68, 84
16, 61184, Note_on_c, 12, 68, 0
16, 61200, Note_on_c, 12, 71, 84
16, 61544, Note_on_c, 12, 71, 0
16, 61560, Note_on_c, 12, 71, 76
16, 61574, Note_on_c, 12, 71, 0
16, 61575, Note_on_c, 12, 72, 76
16, 61589, Note_on_c, 12, 72, 0
16, 61590, Note_on_c, 12, 71, 76
16, 61604, Note_on_c, 12, 71, 0
16, 61605, Note_on_c, 12, 72, 76
16, 61619, Note_on_c, 12, 72, 0
16, 61620, Note_on_c, 12, 71, 76
16, 61634, Note_on_c, 12, 71, 0
16, 61635, Note_on_c, 12, 72, 76
16, 61649, Note_on_c, 12, 72, 0
16, 61650, Note_on_c, 12, 69, 76
16, 61664, Note_on_c, 12, 69, 0
16, 61665, Note_on_c, 12, 71, 76
16, 61676, Note_on_c, 12, 71, 0
16, 61680, Note_on_c, 12, 72, 76
16, 61724, Note_on_c, 12, 72, 0
16, 61740, Note_on_c, 12, 67, 76
16, 61784, Note_on_c, 12, 67, 0
16, 61800, Note_on_c, 12, 64, 76
16, 61844, Note_on_c, 12, 64, 0
16, 61860, Note_on_c, 12, 65, 76
16, 61904, Note_on_c, 12, 65, 0
16, 61920, Note_on_c, 12, 67, 76
16, 61964, Note_on_c, 12, 67, 0
16, 61980, Note_on_c, 12, 76, 76
16, 62024, Note_on_c, 12, 76, 0
16, 62040, Note_on_c, 12, 77, 76
16, 62084, Note_on_c, 12, 77, 0
16, 62100, Note_on_c, 12, 79, 76
16, 62144, Note_on_c, 12, 79, 0
16, 62160, Note_on_c, 12, 72, 84
16, 62279, Note_on_c, 12, 72, 0
16, 62400, Note_on_c, 12, 77, 92
16, 62624, Note_on_c, 12, 77, 0
16, 62640, Note_on_c, 12, 73, 92
16, 63104, Note_on_c, 12, 73, 0
16, 63120, Note_on_c, 12, 76, 84
16, 63471, Note_on_c, 12, 76, 0
16, 63480, Note_on_c, 12, 76, 84
16, 63494, Note_on_c, 12, 76, 0
16, 63495, Note_on_c, 12, 77, 84
16, 63509, Note_on_c, 12, 77, 0
16, 63510, Note_on_c, 12, 76, 84
16, 63524, Note_on_c, 12, 76, 0
16, 63525, Note_on_c, 12, 77, 84
16, 63539, Note_on_c, 12, 77, 0
16, 63540, Note_on_c, 12, 76, 84
16, 63554, Note_on_c, 12, 76, 0
16, 63555, Note_on_c, 12, 77, 84
16, 63569, Note_on_c, 12, 77, 0
16, 63570, Note_on_c, 12, 74, 84
16, 63584, Note_on_c, 12, 74, 0
16, 63585, Note_on_c, 12, 76, 84
16, 63596, Note_on_c, 12, 76, 0
16, 63600, Note_on_c, 12, 77, 84
16, 63951, Note_on_c, 12, 77, 0
16, 63960, Note_on_c, 12, 75, 84
16, 64071, Note_on_c, 12, 75, 0
16, 64080, Note_on_c, 12, 74, 84
16, 64169, Note_on_c, 12, 74, 0
16, 64200, Note_on_c, 12, 74, 84
16, 64319, Note_on_c, 12, 74, 0
16, 64320, Note_on_c, 12, 75, 84
16, 64439, Note_on_c, 12, 75, 0
16, 64440, Note_on_c, 12, 77, 84
16, 64559, Note_on_c, 12, 77, 0
16, 64560, Note_on_c, 12, 79, 84
16, 64611, Note_on_c, 12, 79, 0
16, 64620, Note_on_c, 12, 68, 84
16, 64664, Note_on_c, 12, 68, 0
16, 64680, Note_on_c, 12, 67, 84
16, 64724, Note_on_c, 12, 67, 0
16, 64740, Note_on_c, 12, 65, 84
16, 64784, Note_on_c, 12, 65, 0
16, 64800, Note_on_c, 12, 63, 84
16, 64844, Note_on_c, 12, 63, 0
16, 64860, Note_on_c, 12, 62, 84
16, 64904, Note_on_c, 12, 62, 0
16, 64920, Note_on_c, 12, 60, 84
16, 64964, Note_on_c, 12, 60, 0
16, 64980, Note_on_c, 12, 58, 84
16, 65024, Note_on_c, 12, 58, 0
16, 65040, Note_on_c, 12, 56, 84
16, 65159, Note_on_c, 12, 56, 0
16, 65580, Note_on_c, 12, 70, 84
16, 65624, Note_on_c, 12, 70, 0
16, 65640, Note_on_c, 12, 68, 84
16, 65684, Note_on_c, 12, 68, 0
16, 65700, Note_on_c, 12, 67, 84
16, 65744, Note_on_c, 12, 67, 0
16, 65760, Note_on_c, 12, 65, 84
16, 65804, Note_on_c, 12, 65, 0
16, 65820, Note_on_c, 12, 63, 84
16, 65864, Note_on_c, 12, 63, 0
16, 65880, Note_on_c, 12, 62, 84
16, 65924, Note_on_c, 12, 62, 0
16, 65940, Note_on_c, 12, 60, 84
16, 65984, Note_on_c, 12, 60, 0
16, 66000, Note_on_c, 12, 58, 84
16, 66119, Note_on_c, 12, 58, 0
16, 66600, Note_on_c, 12, 79, 84
16, 66831, Note_on_c, 12, 79, 0
16, 66840, Note_on_c, 12, 77, 84
16, 66929, Note_on_c, 12, 77, 0
16, 66960, Note_on_c, 12, 75, 84
16, 67049, Note_on_c, 12, 75, 0
16, 67200, Note_on_c, 12, 75, 92
16, 67439, Note_on_c, 12, 75, 0
16, 67440, Note_on_c, 12, 75, 84
16, 67559, Note_on_c, 12, 75, 0
16, 67560, Note_on_c, 12, 72, 84
16, 67619, Note_on_c, 12, 72, 0
16, 67620, Note_on_c, 12, 70, 84
16, 67671, Note_on_c, 12, 70, 0
16, 67680, Note_on_c, 12, 68, 84
16, 67799, Note_on_c, 12, 68, 0
16, 68160, Note_on_c, 12, 77, 92
16, 68399, Note_on_c, 12, 77, 0
16, 68400, Note_on_c, 12, 77, 84
16, 68511, Note_on_c, 12, 77, 0
16, 68520, Note_on_c, 12, 74, 84
16, 68579, Note_on_c, 12, 74, 0
16, 68580, Note_on_c, 12, 72, 84
16, 68631, Note_on_c, 12, 72, 0
16, 68640, Note_on_c, 12, 71, 84
16, 68751, Note_on_c, 12, 71, 0
16, 68760, Note_on_c, 12, 71, 84
16, 68879, Note_on_c, 12, 71, 0
16, 68880, Note_on_c, 12, 72, 84
16, 68931, Note_on_c, 12, 72, 0
16, 68940, Note_on_c, 12, 66, 84
16, 68984, Note_on_c, 12, 66, 0
16, 69000, Note_on_c, 12, 67, 84
16, 69044, Note_on_c, 12, 67, 0
16, 69060, Note_on_c, 12, 69, 84
16, 69104, Note_on_c, 12, 69, 0
16, 69120, Note_on_c, 12, 70, 84
16, 69164, Note_on_c, 12, 70, 0
16, 69180, Note_on_c, 12, 71, 84
16, 69224, Note_on_c, 12, 71, 0
16, 69240, Note_on_c, 12, 72, 84
16, 69284, Note_on_c, 12, 72, 0
16, 69300, Note_on_c, 12, 73, 84
16, 69344, Note_on_c, 12, 73, 0
16, 69360, Note_on_c, 12, 74, 84
16, 69711, Note_on_c, 12, 74, 0
16, 69720, Note_on_c, 12, 76, 84
16, 69779, Note_on_c, 12, 76, 0
16, 69780, Note_on_c, 12, 78, 84
16, 69831, Note_on_c, 12, 78, 0
16, 69840, Note_on_c, 12, 79, 84
16, 69959, Note_on_c, 12, 79, 0
16, 69960, Note_on_c, 12, 81, 84
16, 70019, Note_on_c, 12, 81, 0
16, 70020, Note_on_c, 12, 82, 84
16, 70079, Note_on_c, 12, 82, 0
16, 70080, Note_on_c, 12, 84, 92
16, 70199, Note_on_c, 12, 84, 0
16, 70200, Note_on_c, 12, 80, 84
16, 70259, Note_on_c, 12, 80, 0
16, 70260, Note_on_c, 12, 79, 84
16, 70311, Note_on_c, 12, 79, 0
16, 70320, Note_on_c, 12, 78, 84
16, 70439, Note_on_c, 12, 78, 0
16, 70440, Note_on_c, 12, 79, 84
16, 70499, Note_on_c, 12, 79, 0
16, 70500, Note_on_c, 12, 81, 84
16, 70559, Note_on_c, 12, 81, 0
16, 70560, Note_on_c, 12, 82, 92
16, 70679, Note_on_c, 12, 82, 0
16, 70680, Note_on_c, 12, 79, 84
16, 70739, Note_on_c, 12, 79, 0
16, 70740, Note_on_c, 12, 77, 84
16, 70791, Note_on_c, 12, 77, 0
16, 70800, Note_on_c, 12, 76, 84
16, 70919, Note_on_c, 12, 76, 0
16, 70920, Note_on_c, 12, 78, 84
16, 70979, Note_on_c, 12, 78, 0
16, 70980, Note_on_c, 12, 79, 84
16, 71039, Note_on_c, 12, 79, 0
16, 71040, Note_on_c, 12, 81, 92
16, 71159, Note_on_c, 12, 81, 0
16, 71160, Note_on_c, 12, 78, 84
16, 71219, Note_on_c, 12, 78, 0
16, 71220, Note_on_c, 12, 75, 84
16, 71271, Note_on_c, 12, 75, 0
16, 71280, Note_on_c, 12, 74, 84
16, 71315, Note_on_c, 12, 74, 0
16, 71320, Note_on_c, 12, 81, 84
16, 71355, Note_on_c, 12, 81, 0
16, 71360, Note_on_c, 12, 81, 84
16, 71395, Note_on_c, 12, 81, 0
16, 71400, Note_on_c, 12, 81, 84
16, 71435, Note_on_c, 12, 81, 0
16, 71440, Note_on_c, 12, 79, 84
16, 71475, Note_on_c, 12, 79, 0
16, 71480, Note_on_c, 12, 79, 84
16, 71515, Note_on_c, 12, 79, 0
16, 71520, Note_on_c, 12, 79, 84
16, 71555, Note_on_c, 12, 79, 0
16, 71560, Note_on_c, 12, 79, 84
16, 71595, Note_on_c, 12, 79, 0
16, 71600, Note_on_c, 12, 79, 84
16, 71635, Note_on_c, 12, 79, 0
16, 71640, Note_on_c, 12, 79, 84
16, 71675, Note_on_c, 12, 79, 0
16, 71680, Note_on_c, 12, 79, 84
16, 71715, Note_on_c, 12, 79, 0
16, 71720, Note_on_c, 12, 79, 84
16, 71755, Note_on_c, 12, 79, 0
16, 71760, Note_on_c, 12, 79, 84
16, 71760, Note_on_c, 12, 70, 84
16, 71849, Note_on_c, 12, 79, 0
16, 71849, Note_on_c, 12, 70, 0
16, 72000, Note_on_c, 12, 64, 92
16, 72239, Note_on_c, 12, 64, 0
16, 72240, Note_on_c, 12, 64, 84
16, 72351, Note_on_c, 12, 64, 0
16, 72360, Note_on_c, 12, 64, 84
16, 72449, Note_on_c, 12, 64, 0
16, 72480, Note_on_c, 12, 64, 84
16, 72569, Note_on_c, 12, 64, 0
16, 72600, Note_on_c, 12, 64, 84
16, 72689, Note_on_c, 12, 64, 0
16, 72720, Note_on_c, 12, 57, 84
16, 72720, Control_c, 12, 11, 127
16, 72740, Control_c, 12, 11, 124
16, 72760, Control_c, 12, 11, 122
16, 72780, Control_c, 12, 11, 119
16, 72800, Control_c, 12, 11, 117
16, 72820, Control_c, 12, 11, 114
16, 72840, Control_c, 12, 11, 111
16, 72860, Control_c, 12, 11, 109
16, 72880, Control_c, 12, 11, 106
16, 72900, Control_c, 12, 11, 103
16, 72920, Control_c, 12, 11, 101
16, 72940, Control_c, 12, 11, 98
16, 72960, Control_c, 12, 11, 96
16, 72980, Control_c, 12, 11, 93
16, 73000, Control_c, 12, 11, 90
16, 73020, Control_c, 12, 11, 88
16, 73040, Control_c, 12, 11, 85
16, 73060, Control_c, 12, 11, 82
16, 73080, Control_c, 12, 11, 80
16, 73100, Control_c, 12, 11, 77
16, 73120, Control_c, 12, 11, 75
16, 73140, Control_c, 12, 11, 72
16, 73160, Control_c, 12, 11, 69
16, 73180, Control_c, 12, 11, 64
16, 73191, Note_on_c, 12, 57, 0
16, 73200, Note_on_c, 12, 62, 84
16, 73559, Note_on_c, 12, 62, 0
16, 73560, Note_on_c, 12, 60, 84
16, 73679, Note_on_c, 12, 60, 0
16, 73680, Note_on_c, 12, 58, 84
16, 73919, Note_on_c, 12, 58, 0
16, 74152, Control_c, 12, 11, 127
16, 74160, Note_on_c, 12, 62, 52
16, 74160, Note_on_c, 12, 58, 52
16, 74399, Note_on_c, 12, 62, 0
16, 74399, Note_on_c, 12, 58, 0
16, 74640, Note_on_c, 12, 62, 52
16, 74640, Note_on_c, 12, 59, 52
16, 74879, Note_on_c, 12, 62, 0
16, 74879, Note_on_c, 12, 59, 0
16, 76080, Note_on_c, 12, 60, 84
16, 76080, Note_on_c, 12, 63, 84
16, 76551, Note_on_c, 12, 60, 0
16, 76551, Note_on_c, 12, 63, 0
16, 76560, Note_on_c, 12, 63, 84
16, 76560, Note_on_c, 12, 60, 84
16, 76595, Note_on_c, 12, 63, 0
16, 76595, Note_on_c, 12, 60, 0
16, 76600, Note_on_c, 12, 63, 84
16, 76600, Note_on_c, 12, 60, 84
16, 76635, Note_on_c, 12, 63, 0
16, 76635, Note_on_c, 12, 60, 0
16, 76640, Note_on_c, 12, 60, 84
16, 76640, Note_on_c, 12, 63, 84
16, 76675, Note_on_c, 12, 60, 0
16, 76675, Note_on_c, 12, 63, 0
16, 76680, Note_on_c, 12, 63, 84
16, 76680, Note_on_c, 12, 60, 84
16, 76715, Note_on_c, 12, 63, 0
16, 76715, Note_on_c, 12, 60, 0
16, 76720, Note_on_c, 12, 63, 84
16, 76720, Note_on_c, 12, 60, 84
16, 76755, Note_on_c, 12, 63, 0
16, 76755, Note_on_c, 12, 60, 0
16, 76760, Note_on_c, 12, 60, 84
16, 76760, Note_on_c, 12, 63, 84
16, 76795, Note_on_c, 12, 60, 0
16, 76795, Note_on_c, 12, 63, 0
16, 76800, Note_on_c, 12, 63, 84
16, 76800, Note_on_c, 12, 60, 84
16, 76835, Note_on_c, 12, 63, 0
16, 76835, Note_on_c, 12, 60, 0
16, 76840, Note_on_c, 12, 60, 84
16, 76840, Note_on_c, 12, 63, 84
16, 76875, Note_on_c, 12, 60, 0
16, 76875, Note_on_c, 12, 63, 0
16, 76880, Note_on_c, 12, 63, 84
16, 76880, Note_on_c, 12, 60, 84
16, 76915, Note_on_c, 12, 63, 0
16, 76915, Note_on_c, 12, 60, 0
16, 76920, Note_on_c, 12, 63, 84
16, 76920, Note_on_c, 12, 60, 84
16, 76955, Note_on_c, 12, 63, 0
16, 76955, Note_on_c, 12, 60, 0
16, 76960, Note_on_c, 12, 63, 84
16, 76960, Note_on_c, 12, 60, 84
16, 76995, Note_on_c, 12, 63, 0
16, 76995, Note_on_c, 12, 60, 0
16, 77000, Note_on_c, 12, 63, 84
16, 77000, Note_on_c, 12, 60, 84
16, 77035, Note_on_c, 12, 63, 0
16, 77035, Note_on_c, 12, 60, 0
16, 77040, Note_on_c, 12, 63, 84
16, 77040, Note_on_c, 12, 60, 84
16, 77075, Note_on_c, 12, 63, 0
16, 77075, Note_on_c, 12, 60, 0
16, 77080, Note_on_c, 12, 60, 84
16, 77080, Note_on_c, 12, 63, 84
16, 77115, Note_on_c, 12, 60, 0
16, 77115, Note_on_c, 12, 63, 0
16, 77120, Note_on_c, 12, 63, 84
16, 77120, Note_on_c, 12, 60, 84
16, 77155, Note_on_c, 12, 63, 0
16, 77155, Note_on_c, 12, 60, 0
16, 77160, Note_on_c, 12, 60, 84
16, 77160, Note_on_c, 12, 63, 84
16, 77195, Note_on_c, 12, 60, 0
16, 77195, Note_on_c, 12, 63, 0
16, 77200, Note_on_c, 12, 63, 84
16, 77200, Note_on_c, 12, 60, 84
16, 77235, Note_on_c, 12, 63, 0
16, 77235, Note_on_c, 12, 60, 0
16, 77240, Note_on_c, 12, 60, 84
16, 77240, Note_on_c, 12, 63, 84
16, 77275, Note_on_c, 12, 60, 0
16, 77275, Note_on_c, 12, 63, 0
16, 77280, Note_on_c, 12, 60, 84
16, 77280, Note_on_c, 12, 63, 84
16, 77315, Note_on_c, 12, 60, 0
16, 77315, Note_on_c, 12, 63, 0
16, 77320, Note_on_c, 12, 60, 84
16, 77320, Note_on_c, 12, 63, 84
16, 77355, Note_on_c, 12, 60, 0
16, 77355, Note_on_c, 12, 63, 0
16, 77360, Note_on_c, 12, 63, 84
16, 77360, Note_on_c, 12, 60, 84
16, 77395, Note_on_c, 12, 63, 0
16, 77395, Note_on_c, 12, 60, 0
16, 77400, Note_on_c, 12, 63, 84
16, 77400, Note_on_c, 12, 60, 84
16, 77435, Note_on_c, 12, 63, 0
16, 77435, Note_on_c, 12, 60, 0
16, 77440, Note_on_c, 12, 60, 84
16, 77440, Note_on_c, 12, 63, 84
16, 77475, Note_on_c, 12, 60, 0
16, 77475, Note_on_c, 12, 63, 0
16, 77480, Note_on_c, 12, 63, 84
16, 77480, Note_on_c, 12, 60, 84
16, 77515, Note_on_c, 12, 63, 0
16, 77515, Note_on_c, 12, 60, 0
16, 77520, Note_on_c, 12, 63, 84
16, 77520, Note_on_c, 12, 60, 84
16, 77555, Note_on_c, 12, 63, 0
16, 77555, Note_on_c, 12, 60, 0
16, 77560, Note_on_c, 12, 63, 84
16, 77560, Note_on_c, 12, 60, 84
16, 77595, Note_on_c, 12, 63, 0
16, 77595, Note_on_c, 12, 60, 0
16, 77600, Note_on_c, 12, 63, 84
16, 77600, Note_on_c, 12, 60, 84
16, 77635, Note_on_c, 12, 63, 0
16, 77635, Note_on_c, 12, 60, 0
16, 77640, Note_on_c, 12, 60, 84
16, 77640, Note_on_c, 12, 63, 84
16, 77675, Note_on_c, 12, 60, 0
16, 77675, Note_on_c, 12, 63, 0
16, 77680, Note_on_c, 12, 60, 84
16, 77680, Note_on_c, 12, 63, 84
16, 77715, Note_on_c, 12, 60, 0
16, 77715, Note_on_c, 12, 63, 0
16, 77720, Note_on_c, 12, 63, 84
16, 77720, Note_on_c, 12, 60, 84
16, 77755, Note_on_c, 12, 63, 0
16, 77755, Note_on_c, 12, 60, 0
16, 77760, Note_on_c, 12, 60, 84
16, 77760, Note_on_c, 12, 63, 84
16, 77795, Note_on_c, 12, 60, 0
16, 77795, Note_on_c, 12, 63, 0
16, 77800, Note_on_c, 12, 60, 84
16, 77800, Note_on_c, 12, 63, 84
16, 77835, Note_on_c, 12, 60, 0
16, 77835, Note_on_c, 12, 63, 0
16, 77840, Note_on_c, 12, 60, 84
16, 77840, Note_on_c, 12, 63, 84
16, 77875, Note_on_c, 12, 60, 0
16, 77875, Note_on_c, 12, 63, 0
16, 77880, Note_on_c, 12, 60, 84
16, 77880, Note_on_c, 12, 63, 84
16, 77915, Note_on_c, 12, 60, 0
16, 77915, Note_on_c, 12, 63, 0
16, 77920, Note_on_c, 12, 63, 84
16, 77920, Note_on_c, 12, 60, 84
16, 77955, Note_on_c, 12, 63, 0
16, 77955, Note_on_c, 12, 60, 0
16, 77960, Note_on_c, 12, 63, 84
16, 77960, Note_on_c, 12, 60, 84
16, 77995, Note_on_c, 12, 63, 0
16, 77995, Note_on_c, 12, 60, 0
16, 78000, Note_on_c, 12, 63, 84
16, 78000, Note_on_c, 12, 60, 84
16, 78035, Note_on_c, 12, 63, 0
16, 78035, Note_on_c, 12, 60, 0
16, 78040, Note_on_c, 12, 63, 84
16, 78040, Note_on_c, 12, 60, 84
16, 78075, Note_on_c, 12, 63, 0
16, 78075, Note_on_c, 12, 60, 0
16, 78080, Note_on_c, 12, 60, 84
16, 78080, Note_on_c, 12, 63, 84
16, 78115, Note_on_c, 12, 60, 0
16, 78115, Note_on_c, 12, 63, 0
16, 78120, Note_on_c, 12, 60, 84
16, 78120, Note_on_c, 12, 63, 84
16, 78155, Note_on_c, 12, 60, 0
16, 78155, Note_on_c, 12, 63, 0
16, 78160, Note_on_c, 12, 60, 84
16, 78160, Note_on_c, 12, 63, 84
16, 78195, Note_on_c, 12, 60, 0
16, 78195, Note_on_c, 12, 63, 0
16, 78200, Note_on_c, 12, 60, 84
16, 78200, Note_on_c, 12, 63, 84
16, 78235, Note_on_c, 12, 60, 0
16, 78235, Note_on_c, 12, 63, 0
16, 78240, Note_on_c, 12, 63, 84
16, 78240, Note_on_c, 12, 60, 84
16, 78275, Note_on_c, 12, 63, 0
16, 78275, Note_on_c, 12, 60, 0
16, 78280, Note_on_c, 12, 60, 84
16, 78280, Note_on_c, 12, 63, 84
16, 78315, Note_on_c, 12, 60, 0
16, 78315, Note_on_c, 12, 63, 0
16, 78320, Note_on_c, 12, 63, 84
16, 78320, Note_on_c, 12, 60, 84
16, 78355, Note_on_c, 12, 63, 0
16, 78355, Note_on_c, 12, 60, 0
16, 78360, Note_on_c, 12, 60, 84
16, 78360, Note_on_c, 12, 63, 84
16, 78395, Note_on_c, 12, 60, 0
16, 78395, Note_on_c, 12, 63, 0
16, 78400, Note_on_c, 12, 60, 84
16, 78400, Note_on_c, 12, 63, 84
16, 78435, Note_on_c, 12, 60, 0
16, 78435, Note_on_c, 12, 63, 0
16, 78440, Note_on_c, 12, 60, 84
16, 78440, Note_on_c, 12, 63, 84
16, 78475, Note_on_c, 12, 60, 0
16, 78475, Note_on_c, 12, 63, 0
16, 78480, Note_on_c, 12, 60, 84
16, 78480, Note_on_c, 12, 63, 84
16, 78599, Note_on_c, 12, 60, 0
16, 78599, Note_on_c, 12, 63, 0
16, 78720, Note_on_c, 12, 57, 84
16, 78749, Note_on_c, 12, 57, 0
16, 78760, Note_on_c, 12, 60, 84
16, 78789, Note_on_c, 12, 60, 0
16, 78800, Note_on_c, 12, 63, 84
16, 78829, Note_on_c, 12, 63, 0
16, 78840, Note_on_c, 12, 66, 84
16, 78869, Note_on_c, 12, 66, 0
16, 78880, Note_on_c, 12, 69, 84
16, 78909, Note_on_c, 12, 69, 0
16, 78920, Note_on_c, 12, 72, 84
16, 78949, Note_on_c, 12, 72, 0
16, 78960, Note_on_c, 12, 75, 84
16, 78995, Note_on_c, 12, 75, 0
16, 79000, Note_on_c, 12, 63, 84
16, 79000, Note_on_c, 12, 72, 84
16, 79035, Note_on_c, 12, 63, 0
16, 79035, Note_on_c, 12, 72, 0
16, 79040, Note_on_c, 12, 72, 84
16, 79040, Note_on_c, 12, 63, 84
16, 79075, Note_on_c, 12, 72, 0
16, 79075, Note_on_c, 12, 63, 0
16, 79080, Note_on_c, 12, 72, 84
16, 79080, Note_on_c, 12, 63, 84
16, 79115, Note_on_c, 12, 72, 0
16, 79115, Note_on_c, 12, 63, 0
16, 79120, Note_on_c, 12, 72, 84
16, 79120, Note_on_c, 12, 63, 84
16, 79155, Note_on_c, 12, 72, 0
16, 79155, Note_on_c, 12, 63, 0
16, 79160, Note_on_c, 12, 63, 84
16, 79160, Note_on_c, 12, 72, 84
16, 79195, Note_on_c, 12, 63, 0
16, 79195, Note_on_c, 12, 72, 0
16, 79200, Note_on_c, 12, 72, 84
16, 79200, Note_on_c, 12, 63, 84
16, 79235, Note_on_c, 12, 72, 0
16, 79235, Note_on_c, 12, 63, 0
16, 79240, Note_on_c, 12, 63, 84
16, 79240, Note_on_c, 12, 72, 84
16, 79275, Note_on_c, 12, 63, 0
16, 79275, Note_on_c, 12, 72, 0
16, 79280, Note_on_c, 12, 72, 84
16, 79280, Note_on_c, 12, 63, 84
16, 79315, Note_on_c, 12, 72, 0
16, 79315, Note_on_c, 12, 63, 0
16, 79320, Note_on_c, 12, 63, 84
16, 79320, Note_on_c, 12, 72, 84
16, 79355, Note_on_c, 12, 63, 0
16, 79355, Note_on_c, 12, 72, 0
16, 79360, Note_on_c, 12, 72, 84
16, 79360, Note_on_c, 12, 63, 84
16, 79395, Note_on_c, 12, 72, 0
16, 79395, Note_on_c, 12, 63, 0
16, 79400, Note_on_c, 12, 63, 84
16, 79400, Note_on_c, 12, 72, 84
16, 79435, Note_on_c, 12, 63, 0
16, 79435, Note_on_c, 12, 72, 0
16, 79440, Note_on_c, 12, 71, 84
16, 79440, Note_on_c, 12, 62, 84
16, 79559, Note_on_c, 12, 71, 0
16, 79559, Note_on_c, 12, 62, 0
16, 79680, Note_on_c, 12, 56, 84
16, 79709, Note_on_c, 12, 56, 0
16, 79720, Note_on_c, 12, 59, 84
16, 79749, Note_on_c, 12, 59, 0
16, 79760, Note_on_c, 12, 62, 84
16, 79789, Note_on_c, 12, 62, 0
16, 79800, Note_on_c, 12, 65, 84
16, 79829, Note_on_c, 12, 65, 0
16, 79840, Note_on_c, 12, 68, 84
16, 79869, Note_on_c, 12, 68, 0
16, 79880, Note_on_c, 12, 71, 84
16, 79909, Note_on_c, 12, 71, 0
16, 79920, Note_on_c, 12, 74, 84
16, 79955, Note_on_c, 12, 74, 0
16, 79960, Note_on_c, 12, 62, 84
16, 79960, Note_on_c, 12, 59, 84
16, 79995, Note_on_c, 12, 62, 0
16, 79995, Note_on_c, 12, 59, 0
16, 80000, Note_on_c, 12, 59, 84
16, 80000, Note_on_c, 12, 62, 84
16, 80035, Note_on_c, 12, 59, 0
16, 80035, Note_on_c, 12, 62, 0
16, 80040, Note_on_c, 12, 59, 84
16, 80040, Note_on_c, 12, 62, 84
16, 80075, Note_on_c, 12, 59, 0
16, 80075, Note_on_c, 12, 62, 0
16, 80080, Note_on_c, 12, 59, 84
16, 80080, Note_on_c, 12, 62, 84
16, 80115, Note_on_c, 12, 59, 0
16, 80115, Note_on_c, 12, 62, 0
16, 80120, Note_on_c, 12, 62, 84
16, 80120, Note_on_c, 12, 59, 84
16, 80155, Note_on_c, 12, 62, 0
16, 80155, Note_on_c, 12, 59, 0
16, 80160, Note_on_c, 12, 59, 84
16, 80160, Note_on_c, 12, 62, 84
16, 80195, Note_on_c, 12, 59, 0
16, 80195, Note_on_c, 12, 62, 0
16, 80200, Note_on_c, 12, 62, 84
16, 80200, Note_on_c, 12, 59, 84
16, 80235, Note_on_c, 12, 62, 0
16, 80235, Note_on_c, 12, 59, 0
16, 80240, Note_on_c, 12, 62, 84
16, 80240, Note_on_c, 12, 59, 84
16, 80275, Note_on_c, 12, 62, 0
16, 80275, Note_on_c, 12, 59, 0
16, 80280, Note_on_c, 12, 62, 84
16, 80280, Note_on_c, 12, 59, 84
16, 80315, Note_on_c, 12, 62, 0
16, 80315, Note_on_c, 12, 59, 0
16, 80320, Note_on_c, 12, 59, 84
16, 80320, Note_on_c, 12, 62, 84
16, 80355, Note_on_c, 12, 59, 0
16, 80355, Note_on_c, 12, 62, 0
16, 80360, Note_on_c, 12, 59, 84
16, 80360, Note_on_c, 12, 62, 84
16, 80395, Note_on_c, 12, 59, 0
16, 80395, Note_on_c, 12, 62, 0
16, 80400, Note_on_c, 12, 59, 84
16, 80400, Note_on_c, 12, 62, 84
16, 80435, Note_on_c, 12, 59, 0
16, 80435, Note_on_c, 12, 62, 0
16, 80440, Note_on_c, 12, 65, 84
16, 80440, Note_on_c, 12, 55, 84
16, 80475, Note_on_c, 12, 65, 0
16, 80475, Note_on_c, 12, 55, 0
16, 80480, Note_on_c, 12, 55, 84
16, 80480, Note_on_c, 12, 65, 84
16, 80515, Note_on_c, 12, 55, 0
16, 80515, Note_on_c, 12, 65, 0
16, 80520, Note_on_c, 12, 65, 84
16, 80520, Note_on_c, 12, 55, 84
16, 80555, Note_on_c, 12, 65, 0
16, 80555, Note_on_c, 12, 55, 0
16, 80560, Note_on_c, 12, 65, 81
16, 80560, Note_on_c, 12, 55, 81
16, 80595, Note_on_c, 12, 65, 0
16, 80595, Note_on_c, 12, 55, 0
16, 80600, Note_on_c, 12, 55, 77
16, 80600, Note_on_c, 12, 65, 77
16, 80635, Note_on_c, 12, 55, 0
16, 80635, Note_on_c, 12, 65, 0
16, 80640, Note_on_c, 12, 65, 74
16, 80640, Note_on_c, 12, 55, 74
16, 80675, Note_on_c, 12, 65, 0
16, 80675, Note_on_c, 12, 55, 0
16, 80680, Note_on_c, 12, 65, 70
16, 80680, Note_on_c, 12, 55, 70
16, 80715, Note_on_c, 12, 65, 0
16, 80715, Note_on_c, 12, 55, 0
16, 80720, Note_on_c, 12, 55, 67
16, 80720, Note_on_c, 12, 65, 67
16, 80755, Note_on_c, 12, 55, 0
16, 80755, Note_on_c, 12, 65, 0
16, 80760, Note_on_c, 12, 65, 63
16, 80760, Note_on_c, 12, 55, 63
16, 80795, Note_on_c, 12, 65, 0
16, 80795, Note_on_c, 12, 55, 0
16, 80800, Note_on_c, 12, 65, 60
16, 80800, Note_on_c, 12, 55, 60
16, 80835, Note_on_c, 12, 65, 0
16, 80835, Note_on_c, 12, 55, 0
16, 80840, Note_on_c, 12, 65, 56
16, 80840, Note_on_c, 12, 55, 56
16, 80875, Note_on_c, 12, 65, 0
16, 80875, Note_on_c, 12, 55, 0
16, 80880, Note_on_c, 12, 55, 52
16, 80880, Note_on_c, 12, 65, 52
16, 80915, Note_on_c, 12, 55, 0
16, 80915, Note_on_c, 12, 65, 0
16, 80920, Note_on_c, 12, 65, 52
16, 80920, Note_on_c, 12, 55, 52
16, 80955, Note_on_c, 12, 65, 0
16, 80955, Note_on_c, 12, 55, 0
16, 80960, Note_on_c, 12, 55, 52
16, 80960, Note_on_c, 12, 65, 52
16, 80995, Note_on_c, 12, 55, 0
16, 80995, Note_on_c, 12, 65, 0
16, 81000, Note_on_c, 12, 55, 52
16, 81000, Note_on_c, 12, 65, 52
16, 81035, Note_on_c, 12, 55, 0
16, 81035, Note_on_c, 12, 65, 0
16, 81040, Note_on_c, 12, 65, 52
16, 81040, Note_on_c, 12, 55, 52
16, 81075, Note_on_c, 12, 65, 0
16, 81075, Note_on_c, 12, 55, 0
16, 81080, Note_on_c, 12, 65, 52
16, 81080, Note_on_c, 12, 55, 52
16, 81115, Note_on_c, 12, 65, 0
16, 81115, Note_on_c, 12, 55, 0
16, 81120, Note_on_c, 12, 65, 52
16, 81120, Note_on_c, 12, 55, 52
16, 81155, Note_on_c, 12, 65, 0
16, 81155, Note_on_c, 12, 55, 0
16, 81160, Note_on_c, 12, 65, 52
16, 81160, Note_on_c, 12, 55, 52
16, 81195, Note_on_c, 12, 65, 0
16, 81195, Note_on_c, 12, 55, 0
16, 81200, Note_on_c, 12, 65, 52
16, 81200, Note_on_c, 12, 55, 52
16, 81235, Note_on_c, 12, 65, 0
16, 81235, Note_on_c, 12, 55, 0
16, 81240, Note_on_c, 12, 65, 52
16, 81240, Note_on_c, 12, 55, 52
16, 81275, Note_on_c, 12, 65, 0
16, 81275, Note_on_c, 12, 55, 0
16, 81280, Note_on_c, 12, 55, 52
16, 81280, Note_on_c, 12, 65, 52
16, 81315, Note_on_c, 12, 55, 0
16, 81315, Note_on_c, 12, 65, 0
16, 81320, Note_on_c, 12, 55, 52
16, 81320, Note_on_c, 12, 65, 52
16, 81355, Note_on_c, 12, 55, 0
16, 81355, Note_on_c, 12, 65, 0
16, 81360, Note_on_c, 12, 55, 52
16, 81360, Note_on_c, 12, 65, 52
16, 81395, Note_on_c, 12, 55, 0
16, 81395, Note_on_c, 12, 65, 0
16, 81400, Note_on_c, 12, 55, 52
16, 81400, Note_on_c, 12, 65, 52
16, 81435, Note_on_c, 12, 55, 0
16, 81435, Note_on_c, 12, 65, 0
16, 81440, Note_on_c, 12, 65, 52
16, 81440, Note_on_c, 12, 55, 52
16, 81475, Note_on_c, 12, 65, 0
16, 81475, Note_on_c, 12, 55, 0
16, 81480, Note_on_c, 12, 55, 52
16, 81480, Note_on_c, 12, 65, 52
16, 81515, Note_on_c, 12, 55, 0
16, 81515, Note_on_c, 12, 65, 0
16, 81520, Note_on_c, 12, 55, 52
16, 81520, Note_on_c, 12, 65, 52
16, 81555, Note_on_c, 12, 55, 0
16, 81555, Note_on_c, 12, 65, 0
16, 81560, Note_on_c, 12, 55, 52
16, 81560, Note_on_c, 12, 65, 52
16, 81595, Note_on_c, 12, 55, 0
16, 81595, Note_on_c, 12, 65, 0
16, 81600, Note_on_c, 12, 55, 52
16, 81600, Note_on_c, 12, 65, 52
16, 81635, Note_on_c, 12, 55, 0
16, 81635, Note_on_c, 12, 65, 0
16, 81640, Note_on_c, 12, 55, 52
16, 81640, Note_on_c, 12, 65, 52
16, 81675, Note_on_c, 12, 55, 0
16, 81675, Note_on_c, 12, 65, 0
16, 81680, Note_on_c, 12, 55, 52
16, 81680, Note_on_c, 12, 65, 52
16, 81715, Note_on_c, 12, 55, 0
16, 81715, Note_on_c, 12, 65, 0
16, 81720, Note_on_c, 12, 65, 52
16, 81720, Note_on_c, 12, 55, 52
16, 81755, Note_on_c, 12, 65, 0
16, 81755, Note_on_c, 12, 55, 0
16, 81760, Note_on_c, 12, 65, 52
16, 81760, Note_on_c, 12, 55, 52
16, 81795, Note_on_c, 12, 65, 0
16, 81795, Note_on_c, 12, 55, 0
16, 81800, Note_on_c, 12, 55, 52
16, 81800, Note_on_c, 12, 65, 52
16, 81835, Note_on_c, 12, 55, 0
16, 81835, Note_on_c, 12, 65, 0
16, 81840, Note_on_c, 12, 55, 52
16, 81840, Note_on_c, 12, 65, 52
16, 81875, Note_on_c, 12, 55, 0
16, 81875, Note_on_c, 12, 65, 0
16, 81880, Note_on_c, 12, 55, 52
16, 81880, Note_on_c, 12, 65, 52
16, 81915, Note_on_c, 12, 55, 0
16, 81915, Note_on_c, 12, 65, 0
16, 81920, Note_on_c, 12, 65, 52
16, 81920, Note_on_c, 12, 55, 52
16, 81955, Note_on_c, 12, 65, 0
16, 81955, Note_on_c, 12, 55, 0
16, 81960, Note_on_c, 12, 55, 52
16, 81960, Note_on_c, 12, 65, 52
16, 81995, Note_on_c, 12, 55, 0
16, 81995, Note_on_c, 12, 65, 0
16, 82000, Note_on_c, 12, 65, 52
16, 82000, Note_on_c, 12, 55, 52
16, 82035, Note_on_c, 12, 65, 0
16, 82035, Note_on_c, 12, 55, 0
16, 82040, Note_on_c, 12, 55, 52
16, 82040, Note_on_c, 12, 65, 52
16, 82075, Note_on_c, 12, 55, 0
16, 82075, Note_on_c, 12, 65, 0
16, 82080, Note_on_c, 12, 55, 52
16, 82080, Note_on_c, 12, 65, 52
16, 82115, Note_on_c, 12, 55, 0
16, 82115, Note_on_c, 12, 65, 0
16, 82120, Note_on_c, 12, 65, 52
16, 82120, Note_on_c, 12, 55, 52
16, 82155, Note_on_c, 12, 65, 0
16, 82155, Note_on_c, 12, 55, 0
16, 82160, Note_on_c, 12, 65, 52
16, 82160, Note_on_c, 12, 55, 52
16, 82195, Note_on_c, 12, 65, 0
16, 82195, Note_on_c, 12, 55, 0
16, 82200, Note_on_c, 12, 65, 52
16, 82200, Note_on_c, 12, 55, 52
16, 82235, Note_on_c, 12, 65, 0
16, 82235, Note_on_c, 12, 55, 0
16, 82240, Note_on_c, 12, 55, 52
16, 82240, Note_on_c, 12, 65, 52
16, 82275, Note_on_c, 12, 55, 0
16, 82275, Note_on_c, 12, 65, 0
16, 82280, Note_on_c, 12, 65, 52
16, 82280, Note_on_c, 12, 55, 52
16, 82315, Note_on_c, 12, 65, 0
16, 82315, Note_on_c, 12, 55, 0
16, 82320, Note_on_c, 12, 65, 52
16, 82320, Note_on_c, 12, 55, 52
16, 82355, Note_on_c, 12, 65, 0
16, 82355, Note_on_c, 12, 55, 0
16, 82360, Note_on_c, 12, 65, 52
16, 82360, Note_on_c, 12, 55, 52
16, 82395, Note_on_c, 12, 65, 0
16, 82395, Note_on_c, 12, 55, 0
16, 82400, Note_on_c, 12, 55, 52
16, 82400, Note_on_c, 12, 65, 52
16, 82435, Note_on_c, 12, 55, 0
16, 82435, Note_on_c, 12, 65, 0
16, 82440, Note_on_c, 12, 65, 52
16, 82440, Note_on_c, 12, 55, 52
16, 82475, Note_on_c, 12, 65, 0
16, 82475, Note_on_c, 12, 55, 0
16, 82480, Note_on_c, 12, 65, 52
16, 82480, Note_on_c, 12, 55, 52
16, 82515, Note_on_c, 12, 65, 0
16, 82515, Note_on_c, 12, 55, 0
16, 82520, Note_on_c, 12, 55, 52
16, 82520, Note_on_c, 12, 65, 52
16, 82555, Note_on_c, 12, 55, 0
16, 82555, Note_on_c, 12, 65, 0
16, 82560, Note_on_c, 12, 55, 52
16, 82560, Note_on_c, 12, 65, 52
16, 82595, Note_on_c, 12, 55, 0
16, 82595, Note_on_c, 12, 65, 0
16, 82600, Note_on_c, 12, 65, 52
16, 82600, Note_on_c, 12, 55, 52
16, 82635, Note_on_c, 12, 65, 0
16, 82635, Note_on_c, 12, 55, 0
16, 82640, Note_on_c, 12, 55, 52
16, 82640, Note_on_c, 12, 65, 52
16, 82675, Note_on_c, 12, 55, 0
16, 82675, Note_on_c, 12, 65, 0
16, 82680, Note_on_c, 12, 65, 52
16, 82680, Note_on_c, 12, 55, 52
16, 82715, Note_on_c, 12, 65, 0
16, 82715, Note_on_c, 12, 55, 0
16, 82720, Note_on_c, 12, 55, 52
16, 82720, Note_on_c, 12, 65, 52
16, 82755, Note_on_c, 12, 55, 0
16, 82755, Note_on_c, 12, 65, 0
16, 82760, Note_on_c, 12, 55, 52
16, 82760, Note_on_c, 12, 65, 52
16, 82795, Note_on_c, 12, 55, 0
16, 82795, Note_on_c, 12, 65, 0
16, 82800, Note_on_c, 12, 55, 52
16, 82800, Note_on_c, 12, 63, 52
16, 82835, Note_on_c, 12, 55, 0
16, 82835, Note_on_c, 12, 63, 0
16, 82840, Note_on_c, 12, 63, 52
16, 82840, Note_on_c, 12, 55, 52
16, 82875, Note_on_c, 12, 63, 0
16, 82875, Note_on_c, 12, 55, 0
16, 82880, Note_on_c, 12, 63, 52
16, 82880, Note_on_c, 12, 55, 52
16, 82915, Note_on_c, 12, 63, 0
16, 82915, Note_on_c, 12, 55, 0
16, 82920, Note_on_c, 12, 63, 52
16, 82920, Note_on_c, 12, 55, 52
16, 82955, Note_on_c, 12, 63, 0
16, 82955, Note_on_c, 12, 55, 0
16, 82960, Note_on_c, 12, 55, 52
16, 82960, Note_on_c, 12, 63, 52
16, 82995, Note_on_c, 12, 55, 0
16, 82995, Note_on_c, 12, 63, 0
16, 83000, Note_on_c, 12, 55, 52
16, 83000, Note_on_c, 12, 63, 52
16, 83035, Note_on_c, 12, 55, 0
16, 83035, Note_on_c, 12, 63, 0
16, 83040, Note_on_c, 12, 63, 52
16, 83040, Note_on_c, 12, 55, 52
16, 83075, Note_on_c, 12, 63, 0
16, 83075, Note_on_c, 12, 55, 0
16, 83080, Note_on_c, 12, 55, 52
16, 83080, Note_on_c, 12, 63, 52
16, 83115, Note_on_c, 12, 55, 0
16, 83115, Note_on_c, 12, 63, 0
16, 83120, Note_on_c, 12, 63, 52
16, 83120, Note_on_c, 12, 55, 52
16, 83155, Note_on_c, 12, 63, 0
16, 83155, Note_on_c, 12, 55, 0
16, 83160, Note_on_c, 12, 55, 52
16, 83160, Note_on_c, 12, 63, 52
16, 83195, Note_on_c, 12, 55, 0
16, 83195, Note_on_c, 12, 63, 0
16, 83200, Note_on_c, 12, 63, 52
16, 83200, Note_on_c, 12, 55, 52
16, 83235, Note_on_c, 12, 63, 0
16, 83235, Note_on_c, 12, 55, 0
16, 83240, Note_on_c, 12, 55, 52
16, 83240, Note_on_c, 12, 63, 52
16, 83275, Note_on_c, 12, 55, 0
16, 83275, Note_on_c, 12, 63, 0
16, 83280, Note_on_c, 12, 63, 52
16, 83280, Note_on_c, 12, 55, 52
16, 83315, Note_on_c, 12, 63, 0
16, 83315, Note_on_c, 12, 55, 0
16, 83320, Note_on_c, 12, 63, 52
16, 83320, Note_on_c, 12, 55, 52
16, 83355, Note_on_c, 12, 63, 0
16, 83355, Note_on_c, 12, 55, 0
16, 83360, Note_on_c, 12, 55, 52
16, 83360, Note_on_c, 12, 63, 52
16, 83395, Note_on_c, 12, 55, 0
16, 83395, Note_on_c, 12, 63, 0
16, 83400, Note_on_c, 12, 63, 52
16, 83400, Note_on_c, 12, 55, 52
16, 83435, Note_on_c, 12, 63, 0
16, 83435, Note_on_c, 12, 55, 0
16, 83440, Note_on_c, 12, 63, 52
16, 83440, Note_on_c, 12, 55, 52
16, 83475, Note_on_c, 12, 63, 0
16, 83475, Note_on_c, 12, 55, 0
16, 83480, Note_on_c, 12, 63, 52
16, 83480, Note_on_c, 12, 55, 52
16, 83515, Note_on_c, 12, 63, 0
16, 83515, Note_on_c, 12, 55, 0
16, 83520, Note_on_c, 12, 55, 52
16, 83520, Note_on_c, 12, 63, 52
16, 83555, Note_on_c, 12, 55, 0
16, 83555, Note_on_c, 12, 63, 0
16, 83560, Note_on_c, 12, 55, 52
16, 83560, Note_on_c, 12, 63, 52
16, 83595, Note_on_c, 12, 55, 0
16, 83595, Note_on_c, 12, 63, 0
16, 83600, Note_on_c, 12, 63, 52
16, 83600, Note_on_c, 12, 55, 52
16, 83635, Note_on_c, 12, 63, 0
16, 83635, Note_on_c, 12, 55, 0
16, 83640, Note_on_c, 12, 63, 52
16, 83640, Note_on_c, 12, 55, 52
16, 83675, Note_on_c, 12, 63, 0
16, 83675, Note_on_c, 12, 55, 0
16, 83680, Note_on_c, 12, 55, 52
16, 83680, Note_on_c, 12, 63, 52
16, 83715, Note_on_c, 12, 55, 0
16, 83715, Note_on_c, 12, 63, 0
16, 83720, Note_on_c, 12, 55, 52
16, 83720, Note_on_c, 12, 63, 52
16, 83755, Note_on_c, 12, 55, 0
16, 83755, Note_on_c, 12, 63, 0
16, 83760, Note_on_c, 12, 55, 52
16, 83760, Note_on_c, 12, 63, 52
16, 83795, Note_on_c, 12, 55, 0
16, 83795, Note_on_c, 12, 63, 0
16, 83800, Note_on_c, 12, 63, 52
16, 83800, Note_on_c, 12, 55, 52
16, 83835, Note_on_c, 12, 63, 0
16, 83835, Note_on_c, 12, 55, 0
16, 83840, Note_on_c, 12, 63, 52
16, 83840, Note_on_c, 12, 55, 52
16, 83875, Note_on_c, 12, 63, 0
16, 83875, Note_on_c, 12, 55, 0
16, 83880, Note_on_c, 12, 55, 52
16, 83880, Note_on_c, 12, 63, 52
16, 83915, Note_on_c, 12, 55, 0
16, 83915, Note_on_c, 12, 63, 0
16, 83920, Note_on_c, 12, 63, 52
16, 83920, Note_on_c, 12, 55, 52
16, 83955, Note_on_c, 12, 63, 0
16, 83955, Note_on_c, 12, 55, 0
16, 83960, Note_on_c, 12, 55, 52
16, 83960, Note_on_c, 12, 63, 52
16, 83995, Note_on_c, 12, 55, 0
16, 83995, Note_on_c, 12, 63, 0
16, 84000, Note_on_c, 12, 63, 52
16, 84000, Note_on_c, 12, 55, 52
16, 84035, Note_on_c, 12, 63, 0
16, 84035, Note_on_c, 12, 55, 0
16, 84040, Note_on_c, 12, 55, 52
16, 84040, Note_on_c, 12, 63, 52
16, 84075, Note_on_c, 12, 55, 0
16, 84075, Note_on_c, 12, 63, 0
16, 84080, Note_on_c, 12, 63, 52
16, 84080, Note_on_c, 12, 55, 52
16, 84115, Note_on_c, 12, 63, 0
16, 84115, Note_on_c, 12, 55, 0
16, 84120, Note_on_c, 12, 63, 52
16, 84120, Note_on_c, 12, 55, 52
16, 84155, Note_on_c, 12, 63, 0
16, 84155, Note_on_c, 12, 55, 0
16, 84160, Note_on_c, 12, 55, 52
16, 84160, Note_on_c, 12, 63, 52
16, 84195, Note_on_c, 12, 55, 0
16, 84195, Note_on_c, 12, 63, 0
16, 84200, Note_on_c, 12, 55, 52
16, 84200, Note_on_c, 12, 63, 52
16, 84235, Note_on_c, 12, 55, 0
16, 84235, Note_on_c, 12, 63, 0
16, 84240, Note_on_c, 12, 55, 52
16, 84240, Note_on_c, 12, 63, 52
16, 84275, Note_on_c, 12, 55, 0
16, 84275, Note_on_c, 12, 63, 0
16, 84280, Note_on_c, 12, 55, 52
16, 84280, Note_on_c, 12, 63, 52
16, 84315, Note_on_c, 12, 55, 0
16, 84315, Note_on_c, 12, 63, 0
16, 84320, Note_on_c, 12, 63, 52
16, 84320, Note_on_c, 12, 55, 52
16, 84355, Note_on_c, 12, 63, 0
16, 84355, Note_on_c, 12, 55, 0
16, 84360, Note_on_c, 12, 55, 52
16, 84360, Note_on_c, 12, 63, 52
16, 84395, Note_on_c, 12, 55, 0
16, 84395, Note_on_c, 12, 63, 0
16, 84400, Note_on_c, 12, 55, 52
16, 84400, Note_on_c, 12, 63, 52
16, 84435, Note_on_c, 12, 55, 0
16, 84435, Note_on_c, 12, 63, 0
16, 84440, Note_on_c, 12, 55, 52
16, 84440, Note_on_c, 12, 63, 52
16, 84475, Note_on_c, 12, 55, 0
16, 84475, Note_on_c, 12, 63, 0
16, 84480, Note_on_c, 12, 62, 52
16, 84480, Note_on_c, 12, 55, 52
16, 84515, Note_on_c, 12, 62, 0
16, 84515, Note_on_c, 12, 55, 0
16, 84520, Note_on_c, 12, 62, 52
16, 84520, Note_on_c, 12, 55, 52
16, 84555, Note_on_c, 12, 62, 0
16, 84555, Note_on_c, 12, 55, 0
16, 84560, Note_on_c, 12, 62, 52
16, 84560, Note_on_c, 12, 55, 52
16, 84595, Note_on_c, 12, 62, 0
16, 84595, Note_on_c, 12, 55, 0
16, 84600, Note_on_c, 12, 55, 52
16, 84600, Note_on_c, 12, 62, 52
16, 84635, Note_on_c, 12, 55, 0
16, 84635, Note_on_c, 12, 62, 0
16, 84640, Note_on_c, 12, 55, 52
16, 84640, Note_on_c, 12, 62, 52
16, 84675, Note_on_c, 12, 55, 0
16, 84675, Note_on_c, 12, 62, 0
16, 84680, Note_on_c, 12, 62, 52
16, 84680, Note_on_c, 12, 55, 52
16, 84715, Note_on_c, 12, 62, 0
16, 84715, Note_on_c, 12, 55, 0
16, 84720, Note_on_c, 12, 59, 52
16, 84720, Note_on_c, 12, 62, 52
16, 84755, Note_on_c, 12, 59, 0
16, 84755, Note_on_c, 12, 62, 0
16, 84760, Note_on_c, 12, 62, 52
16, 84760, Note_on_c, 12, 59, 52
16, 84795, Note_on_c, 12, 62, 0
16, 84795, Note_on_c, 12, 59, 0
16, 84800, Note_on_c, 12, 59, 52
16, 84800, Note_on_c, 12, 62, 52
16, 84835, Note_on_c, 12, 59, 0
16, 84835, Note_on_c, 12, 62, 0
16, 84840, Note_on_c, 12, 62, 52
16, 84840, Note_on_c, 12, 59, 52
16, 84875, Note_on_c, 12, 62, 0
16, 84875, Note_on_c, 12, 59, 0
16, 84880, Note_on_c, 12, 62, 52
16, 84880, Note_on_c, 12, 59, 52
16, 84915, Note_on_c, 12, 62, 0
16, 84915, Note_on_c, 12, 59, 0
16, 84920, Note_on_c, 12, 59, 52
16, 84920, Note_on_c, 12, 62, 52
16, 84955, Note_on_c, 12, 59, 0
16, 84955, Note_on_c, 12, 62, 0
16, 84960, Note_on_c, 12, 62, 52
16, 84960, Note_on_c, 12, 59, 52
16, 84995, Note_on_c, 12, 62, 0
16, 84995, Note_on_c, 12, 59, 0
16, 85000, Note_on_c, 12, 59, 52
16, 85000, Note_on_c, 12, 62, 52
16, 85035, Note_on_c, 12, 59, 0
16, 85035, Note_on_c, 12, 62, 0
16, 85040, Note_on_c, 12, 59, 52
16, 85040, Note_on_c, 12, 62, 52
16, 85075, Note_on_c, 12, 59, 0
16, 85075, Note_on_c, 12, 62, 0
16, 85080, Note_on_c, 12, 62, 52
16, 85080, Note_on_c, 12, 59, 52
16, 85115, Note_on_c, 12, 62, 0
16, 85115, Note_on_c, 12, 59, 0
16, 85120, Note_on_c, 12, 62, 52
16, 85120, Note_on_c, 12, 59, 52
16, 85155, Note_on_c, 12, 62, 0
16, 85155, Note_on_c, 12, 59, 0
16, 85160, Note_on_c, 12, 59, 52
16, 85160, Note_on_c, 12, 62, 52
16, 85195, Note_on_c, 12, 59, 0
16, 85195, Note_on_c, 12, 62, 0
16, 85200, Note_on_c, 12, 62, 52
16, 85200, Note_on_c, 12, 59, 52
16, 85235, Note_on_c, 12, 62, 0
16, 85235, Note_on_c, 12, 59, 0
16, 85240, Note_on_c, 12, 59, 52
16, 85240, Note_on_c, 12, 68, 52
16, 85275, Note_on_c, 12, 59, 0
16, 85275, Note_on_c, 12, 68, 0
16, 85280, Note_on_c, 12, 68, 52
16, 85280, Note_on_c, 12, 59, 52
16, 85315, Note_on_c, 12, 68, 0
16, 85315, Note_on_c, 12, 59, 0
16, 85320, Note_on_c, 12, 68, 52
16, 85320, Note_on_c, 12, 59, 52
16, 85355, Note_on_c, 12, 68, 0
16, 85355, Note_on_c, 12, 59, 0
16, 85360, Note_on_c, 12, 68, 53
16, 85360, Note_on_c, 12, 59, 53
16, 85395, Note_on_c, 12, 68, 0
16, 85395, Note_on_c, 12, 59, 0
16, 85400, Note_on_c, 12, 68, 55
16, 85400, Note_on_c, 12, 59, 55
16, 85435, Note_on_c, 12, 68, 0
16, 85435, Note_on_c, 12, 59, 0
16, 85440, Note_on_c, 12, 68, 57
16, 85440, Note_on_c, 12, 59, 57
16, 85475, Note_on_c, 12, 68, 0
16, 85475, Note_on_c, 12, 59, 0
16, 85480, Note_on_c, 12, 59, 59
16, 85480, Note_on_c, 12, 68, 59
16, 85515, Note_on_c, 12, 59, 0
16, 85515, Note_on_c, 12, 68, 0
16, 85520, Note_on_c, 12, 68, 60
16, 85520, Note_on_c, 12, 59, 60
16, 85555, Note_on_c, 12, 68, 0
16, 85555, Note_on_c, 12, 59, 0
16, 85560, Note_on_c, 12, 68, 62
16, 85560, Note_on_c, 12, 59, 62
16, 85595, Note_on_c, 12, 68, 0
16, 85595, Note_on_c, 12, 59, 0
16, 85600, Note_on_c, 12, 68, 64
16, 85600, Note_on_c, 12, 59, 64
16, 85635, Note_on_c, 12, 68, 0
16, 85635, Note_on_c, 12, 59, 0
16, 85640, Note_on_c, 12, 68, 66
16, 85640, Note_on_c, 12, 59, 66
16, 85675, Note_on_c, 12, 68, 0
16, 85675, Note_on_c, 12, 59, 0
16, 85680, Note_on_c, 12, 68, 68
16, 85680, Note_on_c, 12, 58, 68
16, 85715, Note_on_c, 12, 68, 0
16, 85715, Note_on_c, 12, 58, 0
16, 85720, Note_on_c, 12, 68, 67
16, 85720, Note_on_c, 12, 58, 67
16, 85755, Note_on_c, 12, 68, 0
16, 85755, Note_on_c, 12, 58, 0
16, 85760, Note_on_c, 12, 58, 66
16, 85760, Note_on_c, 12, 68, 66
16, 85799, Note_on_c, 12, 58, 0
16, 85799, Note_on_c, 12, 68, 0
16, 85840, Note_on_c, 12, 62, 63
16, 85875, Note_on_c, 12, 62, 0
16, 85880, Note_on_c, 12, 62, 62
16, 85919, Note_on_c, 12, 62, 0
16, 85960, Note_on_c, 12, 63, 59
16, 85995, Note_on_c, 12, 63, 0
16, 86000, Note_on_c, 12, 63, 58
16, 86039, Note_on_c, 12, 63, 0
16, 86080, Note_on_c, 12, 65, 55
16, 86115, Note_on_c, 12, 65, 0
16, 86120, Note_on_c, 12, 65, 54
16, 86159, Note_on_c, 12, 65, 0
16, 86200, Note_on_c, 12, 63, 52
16, 86235, Note_on_c, 12, 63, 0
16, 86240, Note_on_c, 12, 63, 52
16, 86279, Note_on_c, 12, 63, 0
16, 86320, Note_on_c, 12, 63, 52
16, 86355, Note_on_c, 12, 63, 0
16, 86360, Note_on_c, 12, 63, 52
16, 86395, Note_on_c, 12, 63, 0
16, 86400, Note_on_c, 12, 63, 52
16, 86519, Note_on_c, 12, 63, 0
16, 86580, Control_c, 12, 11, 96
16, 86640, Note_on_c, 12, 58, 68
16, 86879, Note_on_c, 12, 58, 0
16, 86880, Note_on_c, 12, 56, 68
16, 86999, Note_on_c, 12, 56, 0
16, 87000, Note_on_c, 12, 55, 68
16, 87111, Note_on_c, 12, 55, 0
16, 87120, Control_c, 12, 11, 96
16, 87120, Note_on_c, 12, 56, 68
16, 87140, Control_c, 12, 11, 97
16, 87160, Control_c, 12, 11, 99
16, 87180, Control_c, 12, 11, 100
16, 87200, Control_c, 12, 11, 101
16, 87220, Control_c, 12, 11, 102
16, 87240, Control_c, 12, 11, 104
16, 87260, Control_c, 12, 11, 105
16, 87280, Control_c, 12, 11, 106
16, 87300, Control_c, 12, 11, 108
16, 87320, Control_c, 12, 11, 109
16, 87340, Control_c, 12, 11, 110
16, 87360, Control_c, 12, 11, 112
16, 87380, Control_c, 12, 11, 113
16, 87400, Control_c, 12, 11, 114
16, 87420, Control_c, 12, 11, 115
16, 87440, Control_c, 12, 11, 117
16, 87460, Control_c, 12, 11, 118
16, 87480, Control_c, 12, 11, 119
16, 87500, Control_c, 12, 11, 121
16, 87520, Control_c, 12, 11, 122
16, 87540, Control_c, 12, 11, 123
16, 87560, Control_c, 12, 11, 124
16, 87580, Control_c, 12, 11, 127
16, 87591, Note_on_c, 12, 56, 0
16, 87600, Note_on_c, 12, 63, 68
16, 87600, Control_c, 12, 11, 127
16, 87620, Control_c, 12, 11, 126
16, 87640, Control_c, 12, 11, 124
16, 87660, Control_c, 12, 11, 123
16, 87680, Control_c, 12, 11, 122
16, 87700, Control_c, 12, 11, 121
16, 87720, Control_c, 12, 11, 119
16, 87740, Control_c, 12, 11, 118
16, 87760, Control_c, 12, 11, 117
16, 87780, Control_c, 12, 11, 115
16, 87800, Control_c, 12, 11, 114
16, 87820, Control_c, 12, 11, 113
16, 87839, Note_on_c, 12, 63, 0
16, 87840, Note_on_c, 12, 62, 68
16, 87840, Control_c, 12, 11, 112
16, 87860, Control_c, 12, 11, 110
16, 87880, Control_c, 12, 11, 109
16, 87900, Control_c, 12, 11, 108
16, 87920, Control_c, 12, 11, 106
16, 87940, Control_c, 12, 11, 105
16, 87959, Note_on_c, 12, 62, 0
16, 87960, Note_on_c, 12, 60, 68
16, 87960, Control_c, 12, 11, 104
16, 87980, Control_c, 12, 11, 102
16, 88000, Control_c, 12, 11, 101
16, 88020, Control_c, 12, 11, 100
16, 88040, Control_c, 12, 11, 99
16, 88060, Control_c, 12, 11, 97
16, 88071, Note_on_c, 12, 60, 0
16, 88080, Note_on_c, 12, 58, 68
16, 88199, Note_on_c, 12, 58, 0
16, 88260, Control_c, 12, 11, 127
16, 88290, Note_on_c, 12, 67, 76
16, 88311, Note_on_c, 12, 67, 0
16, 88320, Note_on_c, 12, 67, 76
16, 88559, Note_on_c, 12, 67, 0
16, 88740, Control_c, 12, 11, 96
16, 88800, Note_on_c, 12, 65, 68
16, 88919, Note_on_c, 12, 65, 0
16, 88920, Note_on_c, 12, 63, 68
16, 89039, Note_on_c, 12, 63, 0
16, 89040, Note_on_c, 12, 63, 68
16, 89040, Control_c, 12, 11, 96
16, 89060, Control_c, 12, 11, 99
16, 89080, Control_c, 12, 11, 101
16, 89100, Control_c, 12, 11, 104
16, 89120, Control_c, 12, 11, 106
16, 89140, Control_c, 12, 11, 109
16, 89151, Note_on_c, 12, 63, 0
16, 89160, Control_c, 12, 11, 112
16, 89160, Note_on_c, 12, 60, 68
16, 89180, Control_c, 12, 11, 114
16, 89200, Control_c, 12, 11, 117
16, 89220, Control_c, 12, 11, 119
16, 89240, Control_c, 12, 11, 122
16, 89260, Control_c, 12, 11, 127
16, 89279, Note_on_c, 12, 60, 0
16, 89280, Note_on_c, 12, 60, 76
16, 89340, Control_c, 12, 11, 112
16, 89355, Control_c, 12, 11, 109
16, 89370, Control_c, 12, 11, 107
16, 89385, Control_c, 12, 11, 104
16, 89399, Note_on_c, 12, 60, 0
16, 89400, Note_on_c, 12, 63, 76
16, 89400, Control_c, 12, 11, 101
16, 89415, Control_c, 12, 11, 99
16, 89430, Control_c, 12, 11, 96
16, 89445, Control_c, 12, 11, 93
16, 89460, Control_c, 12, 11, 91
16, 89475, Control_c, 12, 11, 88
16, 89490, Control_c, 12, 11, 85
16, 89505, Control_c, 12, 11, 80
16, 89511, Note_on_c, 12, 63, 0
16, 89520, Note_on_c, 12, 59, 76
16, 89639, Note_on_c, 12, 59, 0
16, 90240, Control_c, 12, 11, 127
16, 90480, Note_on_c, 12, 67, 52
16, 90515, Note_on_c, 12, 67, 0
16, 90520, Note_on_c, 12, 67, 53
16, 90555, Note_on_c, 12, 67, 0
16, 90560, Note_on_c, 12, 67, 54
16, 90595, Note_on_c, 12, 67, 0
16, 90600, Note_on_c, 12, 67, 56
16, 90635, Note_on_c, 12, 67, 0
16, 90640, Note_on_c, 12, 67, 57
16, 90675, Note_on_c, 12, 67, 0
16, 90680, Note_on_c, 12, 67, 58
16, 90719, Note_on_c, 12, 67, 0
16, 90760, Note_on_c, 12, 67, 61
16, 90795, Note_on_c, 12, 67, 0
16, 90800, Note_on_c, 12, 67, 62
16, 90839, Note_on_c, 12, 67, 0
16, 90880, Note_on_c, 12, 67, 65
16, 90915, Note_on_c, 12, 67, 0
16, 90920, Note_on_c, 12, 67, 66
16, 90955, Note_on_c, 12, 67, 0
16, 90960, Note_on_c, 12, 67, 68
16, 90995, Note_on_c, 12, 67, 0
16, 91000, Note_on_c, 12, 67, 67
16, 91035, Note_on_c, 12, 67, 0
16, 91040, Note_on_c, 12, 67, 66
16, 91075, Note_on_c, 12, 67, 0
16, 91080, Note_on_c, 12, 67, 64
16, 91115, Note_on_c, 12, 67, 0
16, 91120, Note_on_c, 12, 67, 63
16, 91155, Note_on_c, 12, 67, 0
16, 91160, Note_on_c, 12, 67, 62
16, 91199, Note_on_c, 12, 67, 0
16, 91240, Note_on_c, 12, 67, 59
16, 91275, Note_on_c, 12, 67, 0
16, 91280, Note_on_c, 12, 67, 58
16, 91319, Note_on_c, 12, 67, 0
16, 91360, Note_on_c, 12, 66, 55
16, 91395, Note_on_c, 12, 66, 0
16, 91400, Note_on_c, 12, 66, 54
16, 91435, Note_on_c, 12, 66, 0
16, 91440, Note_on_c, 12, 67, 52
16, 91465, Note_on_c, 12, 67, 0
16, 91470, Note_on_c, 12, 55, 52
16, 91495, Note_on_c, 12, 55, 0
16, 91500, Note_on_c, 12, 55, 52
16, 91525, Note_on_c, 12, 55, 0
16, 91530, Note_on_c, 12, 55, 52
16, 91559, Note_on_c, 12, 55, 0
16, 91590, Note_on_c, 12, 56, 52
16, 91615, Note_on_c, 12, 56, 0
16, 91620, Note_on_c, 12, 56, 52
16, 91645, Note_on_c, 12, 56, 0
16, 91650, Note_on_c, 12, 56, 52
16, 91679, Note_on_c, 12, 56, 0
16, 91710, Note_on_c, 12, 55, 52
16, 91735, Note_on_c, 12, 55, 0
16, 91740, Note_on_c, 12, 55, 52
16, 91765, Note_on_c, 12, 55, 0
16, 91770, Note_on_c, 12, 55, 52
16, 91799, Note_on_c, 12, 55, 0
16, 91830, Note_on_c, 12, 60, 52
16, 91855, Note_on_c, 12, 60, 0
16, 91860, Note_on_c, 12, 60, 52
16, 91885, Note_on_c, 12, 60, 0
16, 91890, Note_on_c, 12, 60, 52
16, 91919, Note_on_c, 12, 60, 0
16, 91950, Note_on_c, 12, 59, 52
16, 91975, Note_on_c, 12, 59, 0
16, 91980, Note_on_c, 12, 59, 52
16, 92005, Note_on_c, 12, 59, 0
16, 92010, Note_on_c, 12, 59, 52
16, 92039, Note_on_c, 12, 59, 0
16, 92070, Note_on_c, 12, 63, 52
16, 92095, Note_on_c, 12, 63, 0
16, 92100, Note_on_c, 12, 63, 52
16, 92125, Note_on_c, 12, 63, 0
16, 92130, Note_on_c, 12, 63, 52
16, 92159, Note_on_c, 12, 63, 0
16, 92190, Note_on_c, 12, 62, 52
16, 92215, Note_on_c, 12, 62, 0
16, 92220, Note_on_c, 12, 62, 52
16, 92245, Note_on_c, 12, 62, 0
16, 92250, Note_on_c, 12, 62, 52
16, 92279, Note_on_c, 12, 62, 0
16, 92310, Note_on_c, 12, 60, 52
16, 92335, Note_on_c, 12, 60, 0
16, 92340, Note_on_c, 12, 60, 52
16, 92365, Note_on_c, 12, 60, 0
16, 92370, Note_on_c, 12, 60, 52
16, 92399, Note_on_c, 12, 60, 0
16, 92430, Note_on_c, 12, 59, 52
16, 92455, Note_on_c, 12, 59, 0
16, 92460, Note_on_c, 12, 59, 53
16, 92485, Note_on_c, 12, 59, 0
16, 92490, Note_on_c, 12, 59, 54
16, 92515, Note_on_c, 12, 59, 0
16, 92520, Note_on_c, 12, 59, 54
16, 92545, Note_on_c, 12, 59, 0
16, 92550, Note_on_c, 12, 59, 55
16, 92575, Note_on_c, 12, 59, 0
16, 92580, Note_on_c, 12, 59, 56
16, 92605, Note_on_c, 12, 59, 0
16, 92610, Note_on_c, 12, 59, 56
16, 92639, Note_on_c, 12, 59, 0
16, 92670, Note_on_c, 12, 56, 58
16, 92695, Note_on_c, 12, 56, 0
16, 92700, Note_on_c, 12, 56, 58
16, 92725, Note_on_c, 12, 56, 0
16, 92730, Note_on_c, 12, 56, 59
16, 92755, Note_on_c, 12, 56, 0
16, 92760, Note_on_c, 12, 56, 60
16, 92785, Note_on_c, 12, 56, 0
16, 92790, Note_on_c, 12, 56, 60
16, 92815, Note_on_c, 12, 56, 0
16, 92820, Note_on_c, 12, 56, 61
16, 92845, Note_on_c, 12, 56, 0
16, 92850, Note_on_c, 12, 56, 62
16, 92879, Note_on_c, 12, 56, 0
16, 92910, Note_on_c, 12, 55, 63
16, 92935, Note_on_c, 12, 55, 0
16, 92940, Note_on_c, 12, 55, 64
16, 92965, Note_on_c, 12, 55, 0
16, 92970, Note_on_c, 12, 55, 64
16, 92995, Note_on_c, 12, 55, 0
16, 93000, Note_on_c, 12, 55, 65
16, 93025, Note_on_c, 12, 55, 0
16, 93030, Note_on_c, 12, 55, 66
16, 93055, Note_on_c, 12, 55, 0
16, 93060, Note_on_c, 12, 55, 66
16, 93085, Note_on_c, 12, 55, 0
16, 93090, Note_on_c, 12, 55, 67
16, 93115, Note_on_c, 12, 55, 0
16, 93120, Note_on_c, 12, 58, 76
16, 93145, Note_on_c, 12, 58, 0
16, 93150, Note_on_c, 12, 58, 68
16, 93175, Note_on_c, 12, 58, 0
16, 93180, Note_on_c, 12, 58, 68
16, 93205, Note_on_c, 12, 58, 0
16, 93210, Note_on_c, 12, 58, 68
16, 93235, Note_on_c, 12, 58, 0
16, 93240, Note_on_c, 12, 58, 68
16, 93265, Note_on_c, 12, 58, 0
16, 93270, Note_on_c, 12, 58, 68
16, 93295, Note_on_c, 12, 58, 0
16, 93300, Note_on_c, 12, 58, 68
16, 93325, Note_on_c, 12, 58, 0
16, 93330, Note_on_c, 12, 58, 68
16, 93355, Note_on_c, 12, 58, 0
16, 93360, Note_on_c, 12, 56, 52
16, 93385, Note_on_c, 12, 56, 0
16, 93390, Note_on_c, 12, 65, 52
16, 93415, Note_on_c, 12, 65, 0
16, 93420, Note_on_c, 12, 65, 52
16, 93445, Note_on_c, 12, 65, 0
16, 93450, Note_on_c, 12, 65, 52
16, 93479, Note_on_c, 12, 65, 0
16, 93510, Note_on_c, 12, 65, 52
16, 93535, Note_on_c, 12, 65, 0
16, 93540, Note_on_c, 12, 65, 52
16, 93565, Note_on_c, 12, 65, 0
16, 93570, Note_on_c, 12, 65, 52
16, 93599, Note_on_c, 12, 65, 0
16, 93630, Note_on_c, 12, 65, 52
16, 93655, Note_on_c, 12, 65, 0
16, 93660, Note_on_c, 12, 65, 52
16, 93685, Note_on_c, 12, 65, 0
16, 93690, Note_on_c, 12, 65, 52
16, 93719, Note_on_c, 12, 65, 0
16, 93750, Note_on_c, 12, 65, 52
16, 93775, Note_on_c, 12, 65, 0
16, 93780, Note_on_c, 12, 65, 52
16, 93805, Note_on_c, 12, 65, 0
16, 93810, Note_on_c, 12, 65, 52
16, 93839, Note_on_c, 12, 65, 0
16, 93870, Note_on_c, 12, 65, 52
16, 93895, Note_on_c, 12, 65, 0
16, 93900, Note_on_c, 12, 65, 52
16, 93925, Note_on_c, 12, 65, 0
16, 93930, Note_on_c, 12, 65, 52
16, 93959, Note_on_c, 12, 65, 0
16, 93990, Note_on_c, 12, 65, 52
16, 94015, Note_on_c, 12, 65, 0
16, 94020, Note_on_c, 12, 65, 52
16, 94045, Note_on_c, 12, 65, 0
16, 94050, Note_on_c, 12, 65, 52
16, 94079, Note_on_c, 12, 65, 0
16, 94110, Note_on_c, 12, 65, 52
16, 94135, Note_on_c, 12, 65, 0
16, 94140, Note_on_c, 12, 65, 52
16, 94165, Note_on_c, 12, 65, 0
16, 94170, Note_on_c, 12, 65, 52
16, 94199, Note_on_c, 12, 65, 0
16, 94230, Note_on_c, 12, 65, 52
16, 94255, Note_on_c, 12, 65, 0
16, 94260, Note_on_c, 12, 65, 52
16, 94285, Note_on_c, 12, 65, 0
16, 94290, Note_on_c, 12, 65, 52
16, 94319, Note_on_c, 12, 65, 0
16, 94350, Note_on_c, 12, 62, 53
16, 94375, Note_on_c, 12, 62, 0
16, 94380, Note_on_c, 12, 62, 55
16, 94405, Note_on_c, 12, 62, 0
16, 94410, Note_on_c, 12, 62, 56
16, 94439, Note_on_c, 12, 62, 0
16, 94470, Note_on_c, 12, 62, 59
16, 94495, Note_on_c, 12, 62, 0
16, 94500, Note_on_c, 12, 62, 61
16, 94525, Note_on_c, 12, 62, 0
16, 94530, Note_on_c, 12, 62, 62
16, 94559, Note_on_c, 12, 62, 0
16, 94590, Note_on_c, 12, 62, 65
16, 94615, Note_on_c, 12, 62, 0
16, 94620, Note_on_c, 12, 62, 67
16, 94645, Note_on_c, 12, 62, 0
16, 94650, Note_on_c, 12, 62, 68
16, 94679, Note_on_c, 12, 62, 0
16, 94710, Note_on_c, 12, 62, 71
16, 94735, Note_on_c, 12, 62, 0
16, 94740, Note_on_c, 12, 62, 73
16, 94765, Note_on_c, 12, 62, 0
16, 94770, Note_on_c, 12, 62, 74
16, 94799, Note_on_c, 12, 62, 0
16, 94830, Note_on_c, 12, 60, 76
16, 94855, Note_on_c, 12, 60, 0
16, 94860, Note_on_c, 12, 60, 76
16, 94885, Note_on_c, 12, 60, 0
16, 94890, Note_on_c, 12, 60, 76
16, 94915, Note_on_c, 12, 60, 0
16, 94920, Note_on_c, 12, 60, 76
16, 94945, Note_on_c, 12, 60, 0
16, 94950, Note_on_c, 12, 60, 76
16, 94975, Note_on_c, 12, 60, 0
16, 94980, Note_on_c, 12, 60, 76
16, 95005, Note_on_c, 12, 60, 0
16, 95010, Note_on_c, 12, 60, 76
16, 95035, Note_on_c, 12, 60, 0
16, 95040, Note_on_c, 12, 60, 76
16, 95065, Note_on_c, 12, 60, 0
16, 95070, Note_on_c, 12, 60, 76
16, 95095, Note_on_c, 12, 60, 0
16, 95100, Note_on_c, 12, 60, 76
16, 95125, Note_on_c, 12, 60, 0
16, 95130, Note_on_c, 12, 60, 76
16, 95155, Note_on_c, 12, 60, 0
16, 95160, Note_on_c, 12, 60, 52
16, 95185, Note_on_c, 12, 60, 0
16, 95190, Note_on_c, 12, 60, 52
16, 95215, Note_on_c, 12, 60, 0
16, 95220, Note_on_c, 12, 60, 52
16, 95245, Note_on_c, 12, 60, 0
16, 95250, Note_on_c, 12, 60, 52
16, 95275, Note_on_c, 12, 60, 0
16, 95280, Note_on_c, 12, 60, 52
16, 95305, Note_on_c, 12, 60, 0
16, 95310, Note_on_c, 12, 60, 56
16, 95335, Note_on_c, 12, 60, 0
16, 95340, Note_on_c, 12, 60, 60
16, 95365, Note_on_c, 12, 60, 0
16, 95370, Note_on_c, 12, 60, 64
16, 95395, Note_on_c, 12, 60, 0
16, 95400, Note_on_c, 12, 60, 68
16, 95425, Note_on_c, 12, 60, 0
16, 95430, Note_on_c, 12, 60, 64
16, 95455, Note_on_c, 12, 60, 0
16, 95460, Note_on_c, 12, 60, 60
16, 95485, Note_on_c, 12, 60, 0
16, 95490, Note_on_c, 12, 60, 56
16, 95519, Note_on_c, 12, 60, 0
16, 95550, Note_on_c, 12, 59, 52
16, 95575, Note_on_c, 12, 59, 0
16, 95580, Note_on_c, 12, 59, 52
16, 95605, Note_on_c, 12, 59, 0
16, 95610, Note_on_c, 12, 59, 52
16, 95639, Note_on_c, 12, 59, 0
16, 95670, Note_on_c, 12, 62, 52
16, 95695, Note_on_c, 12, 62, 0
16, 95700, Note_on_c, 12, 62, 52
16, 95725, Note_on_c, 12, 62, 0
16, 95730, Note_on_c, 12, 62, 52
16, 95755, Note_on_c, 12, 62, 0
16, 95760, Note_on_c, 12, 63, 52
16, 95785, Note_on_c, 12, 63, 0
16, 95790, Note_on_c, 12, 63, 52
16, 95819, Note_on_c, 12, 63, 0
16, 95820, Note_on_c, 12, 67, 52
16, 95849, Note_on_c, 12, 67, 0
16, 95850, Note_on_c, 12, 63, 52
16, 95879, Note_on_c, 12, 63, 0
16, 95880, Note_on_c, 12, 67, 52
16, 95909, Note_on_c, 12, 67, 0
16, 95910, Note_on_c, 12, 63, 52
16, 95939, Note_on_c, 12, 63, 0
16, 95940, Note_on_c, 12, 67, 52
16, 95969, Note_on_c, 12, 67, 0
16, 95970, Note_on_c, 12, 63, 52
16, 95999, Note_on_c, 12, 63, 0
16, 96030, Note_on_c, 12, 65, 52
16, 96059, Note_on_c, 12, 65, 0
16, 96060, Note_on_c, 12, 67, 52
16, 96089, Note_on_c, 12, 67, 0
16, 96090, Note_on_c, 12, 65, 52
16, 96119, Note_on_c, 12, 65, 0
16, 96120, Note_on_c, 12, 67, 52
16, 96149, Note_on_c, 12, 67, 0
16, 96150, Note_on_c, 12, 65, 52
16, 96179, Note_on_c, 12, 65, 0
16, 96180, Note_on_c, 12, 67, 52
16, 96209, Note_on_c, 12, 67, 0
16, 96210, Note_on_c, 12, 65, 52
16, 96239, Note_on_c, 12, 65, 0
16, 96270, Note_on_c, 12, 63, 52
16, 96299, Note_on_c, 12, 63, 0
16, 96300, Note_on_c, 12, 67, 52
16, 96329, Note_on_c, 12, 67, 0
16, 96330, Note_on_c, 12, 63, 52
16, 96359, Note_on_c, 12, 63, 0
16, 96390, Note_on_c, 12, 63, 52
16, 96419, Note_on_c, 12, 63, 0
16, 96420, Note_on_c, 12, 67, 52
16, 96449, Note_on_c, 12, 67, 0
16, 96450, Note_on_c, 12, 63, 52
16, 96479, Note_on_c, 12, 63, 0
16, 96510, Note_on_c, 12, 63, 52
16, 96539, Note_on_c, 12, 63, 0
16, 96540, Note_on_c, 12, 67, 52
16, 96569, Note_on_c, 12, 67, 0
16, 96570, Note_on_c, 12, 63, 52
16, 96599, Note_on_c, 12, 63, 0
16, 96630, Note_on_c, 12, 63, 52
16, 96659, Note_on_c, 12, 63, 0
16, 96660, Note_on_c, 12, 67, 52
16, 96689, Note_on_c, 12, 67, 0
16, 96690, Note_on_c, 12, 63, 52
16, 96719, Note_on_c, 12, 63, 0
16, 96750, Note_on_c, 12, 65, 52
16, 96779, Note_on_c, 12, 65, 0
16, 96780, Note_on_c, 12, 67, 52
16, 96809, Note_on_c, 12, 67, 0
16, 96810, Note_on_c, 12, 65, 52
16, 96839, Note_on_c, 12, 65, 0
16, 96870, Note_on_c, 12, 65, 52
16, 96899, Note_on_c, 12, 65, 0
16, 96900, Note_on_c, 12, 67, 52
16, 96929, Note_on_c, 12, 67, 0
16, 96930, Note_on_c, 12, 65, 52
16, 96959, Note_on_c, 12, 65, 0
16, 96990, Note_on_c, 12, 63, 52
16, 97019, Note_on_c, 12, 63, 0
16, 97020, Note_on_c, 12, 67, 52
16, 97049, Note_on_c, 12, 67, 0
16, 97050, Note_on_c, 12, 63, 52
16, 97079, Note_on_c, 12, 63, 0
16, 97110, Note_on_c, 12, 63, 52
16, 97139, Note_on_c, 12, 63, 0
16, 97140, Note_on_c, 12, 67, 52
16, 97169, Note_on_c, 12, 67, 0
16, 97170, Note_on_c, 12, 63, 52
16, 97199, Note_on_c, 12, 63, 0
16, 97230, Note_on_c, 12, 63, 52
16, 97259, Note_on_c, 12, 63, 0
16, 97260, Note_on_c, 12, 67, 52
16, 97289, Note_on_c, 12, 67, 0
16, 97290, Note_on_c, 12, 63, 52
16, 97319, Note_on_c, 12, 63, 0
16, 97350, Note_on_c, 12, 62, 52
16, 97379, Note_on_c, 12, 62, 0
16, 97380, Note_on_c, 12, 67, 52
16, 97409, Note_on_c, 12, 67, 0
16, 97410, Note_on_c, 12, 62, 52
16, 97439, Note_on_c, 12, 62, 0
16, 97470, Note_on_c, 12, 62, 52
16, 97499, Note_on_c, 12, 62, 0
16, 97500, Note_on_c, 12, 67, 52
16, 97529, Note_on_c, 12, 67, 0
16, 97530, Note_on_c, 12, 62, 52
16, 97559, Note_on_c, 12, 62, 0
16, 97560, Note_on_c, 12, 67, 52
16, 97589, Note_on_c, 12, 67, 0
16, 97590, Note_on_c, 12, 62, 52
16, 97619, Note_on_c, 12, 62, 0
16, 97620, Note_on_c, 12, 67, 52
16, 97649, Note_on_c, 12, 67, 0
16, 97650, Note_on_c, 12, 62, 52
16, 97679, Note_on_c, 12, 62, 0
16, 97710, Note_on_c, 12, 72, 76
16, 97739, Note_on_c, 12, 72, 0
16, 97740, Note_on_c, 12, 62, 76
16, 97769, Note_on_c, 12, 62, 0
16, 97770, Note_on_c, 12, 72, 76
16, 97799, Note_on_c, 12, 72, 0
16, 97830, Note_on_c, 12, 72, 76
16, 97859, Note_on_c, 12, 72, 0
16, 97860, Note_on_c, 12, 62, 76
16, 97889, Note_on_c, 12, 62, 0
16, 97890, Note_on_c, 12, 72, 76
16, 97919, Note_on_c, 12, 72, 0
16, 97950, Note_on_c, 12, 72, 76
16, 97979, Note_on_c, 12, 72, 0
16, 97980, Note_on_c, 12, 62, 76
16, 98009, Note_on_c, 12, 62, 0
16, 98010, Note_on_c, 12, 72, 76
16, 98039, Note_on_c, 12, 72, 0
16, 98070, Note_on_c, 12, 72, 76
16, 98099, Note_on_c, 12, 72, 0
16, 98100, Note_on_c, 12, 62, 76
16, 98129, Note_on_c, 12, 62, 0
16, 98130, Note_on_c, 12, 72, 76
16, 98159, Note_on_c, 12, 72, 0
16, 98190, Note_on_c, 12, 72, 84
16, 98219, Note_on_c, 12, 72, 0
16, 98220, Note_on_c, 12, 63, 76
16, 98249, Note_on_c, 12, 63, 0
16, 98250, Note_on_c, 12, 72, 75
16, 98279, Note_on_c, 12, 72, 0
16, 98310, Note_on_c, 12, 72, 71
16, 98339, Note_on_c, 12, 72, 0
16, 98340, Note_on_c, 12, 63, 70
16, 98369, Note_on_c, 12, 63, 0
16, 98370, Note_on_c, 12, 72, 68
16, 98399, Note_on_c, 12, 72, 0
16, 98430, Note_on_c, 12, 72, 64
16, 98459, Note_on_c, 12, 72, 0
16, 98460, Note_on_c, 12, 63, 63
16, 98489, Note_on_c, 12, 63, 0
16, 98490, Note_on_c, 12, 72, 61
16, 98519, Note_on_c, 12, 72, 0
16, 98550, Note_on_c, 12, 72, 58
16, 98579, Note_on_c, 12, 72, 0
16, 98580, Note_on_c, 12, 63, 56
16, 98609, Note_on_c, 12, 63, 0
16, 98610, Note_on_c, 12, 72, 54
16, 98639, Note_on_c, 12, 72, 0
16, 98670, Note_on_c, 12, 63, 52
16, 98699, Note_on_c, 12, 63, 0
16, 98700, Note_on_c, 12, 60, 52
16, 98729, Note_on_c, 12, 60, 0
16, 98730, Note_on_c, 12, 63, 52
16, 98759, Note_on_c, 12, 63, 0
16, 98790, Note_on_c, 12, 63, 52
16, 98819, Note_on_c, 12, 63, 0
16, 98820, Note_on_c, 12, 60, 52
16, 98849, Note_on_c, 12, 60, 0
16, 98850, Note_on_c, 12, 63, 52
16, 98879, Note_on_c, 12, 63, 0
16, 98910, Note_on_c, 12, 65, 52
16, 98939, Note_on_c, 12, 65, 0
16, 98940, Note_on_c, 12, 59, 52
16, 98969, Note_on_c, 12, 59, 0
16, 98970, Note_on_c, 12, 65, 52
16, 98999, Note_on_c, 12, 65, 0
16, 99030, Note_on_c, 12, 65, 52
16, 99059, Note_on_c, 12, 65, 0
16, 99060, Note_on_c, 12, 59, 52
16, 99089, Note_on_c, 12, 59, 0
16, 99090, Note_on_c, 12, 65, 52
16, 99119, Note_on_c, 12, 65, 0
16, 99150, Note_on_c, 12, 63, 52
16, 99179, Note_on_c, 12, 63, 0
16, 99180, Note_on_c, 12, 60, 52
16, 99209, Note_on_c, 12, 60, 0
16, 99210, Note_on_c, 12, 63, 52
16, 99239, Note_on_c, 12, 63, 0
16, 99240, Note_on_c, 12, 60, 52
16, 99269, Note_on_c, 12, 60, 0
16, 99270, Note_on_c, 12, 63, 52
16, 99299, Note_on_c, 12, 63, 0
16, 99300, Note_on_c, 12, 60, 52
16, 99329, Note_on_c, 12, 60, 0
16, 99330, Note_on_c, 12, 63, 52
16, 99355, Note_on_c, 12, 63, 0
16, 99360, Note_on_c, 12, 60, 52
16, 99389, Note_on_c, 12, 60, 0
16, 99390, Note_on_c, 12, 63, 52
16, 99419, Note_on_c, 12, 63, 0
16, 99420, Note_on_c, 12, 60, 52
16, 99449, Note_on_c, 12, 60, 0
16, 99450, Note_on_c, 12, 63, 52
16, 99479, Note_on_c, 12, 63, 0
16, 99480, Note_on_c, 12, 60, 52
16, 99509, Note_on_c, 12, 60, 0
16, 99510, Note_on_c, 12, 63, 52
16, 99539, Note_on_c, 12, 63, 0
16, 99540, Note_on_c, 12, 60, 52
16, 99569, Note_on_c, 12, 60, 0
16, 99570, Note_on_c, 12, 63, 52
16, 99599, Note_on_c, 12, 63, 0
16, 99630, Note_on_c, 12, 63, 53
16, 99659, Note_on_c, 12, 63, 0
16, 99660, Note_on_c, 12, 60, 55
16, 99689, Note_on_c, 12, 60, 0
16, 99690, Note_on_c, 12, 63, 56
16, 99719, Note_on_c, 12, 63, 0
16, 99750, Note_on_c, 12, 63, 59
16, 99779, Note_on_c, 12, 63, 0
16, 99780, Note_on_c, 12, 60, 61
16, 99809, Note_on_c, 12, 60, 0
16, 99810, Note_on_c, 12, 63, 62
16, 99839, Note_on_c, 12, 63, 0
16, 99870, Note_on_c, 12, 65, 65
16, 99899, Note_on_c, 12, 65, 0
16, 99900, Note_on_c, 12, 59, 67
16, 99929, Note_on_c, 12, 59, 0
16, 99930, Note_on_c, 12, 65, 68
16, 99959, Note_on_c, 12, 65, 0
16, 99990, Note_on_c, 12, 65, 71
16, 100019, Note_on_c, 12, 65, 0
16, 100020, Note_on_c, 12, 59, 73
16, 100049, Note_on_c, 12, 59, 0
16, 100050, Note_on_c, 12, 65, 74
16, 100075, Note_on_c, 12, 65, 0
16, 100080, Note_on_c, 12, 63, 76
16, 100191, Note_on_c, 12, 63, 0
16, 100200, Note_on_c, 12, 60, 73
16, 100289, Note_on_c, 12, 60, 0
16, 100320, Note_on_c, 12, 56, 70
16, 100409, Note_on_c, 12, 56, 0
16, 100440, Note_on_c, 12, 60, 67
16, 100529, Note_on_c, 12, 60, 0
16, 100560, Note_on_c, 12, 56, 64
16, 100649, Note_on_c, 12, 56, 0
16, 100680, Note_on_c, 12, 60, 61
16, 100769, Note_on_c, 12, 60, 0
16, 100800, Note_on_c, 12, 56, 58
16, 100889, Note_on_c, 12, 56, 0
16, 100920, Note_on_c, 12, 60, 55
16, 101009, Note_on_c, 12, 60, 0
16, 101040, Note_on_c, 12, 56, 52
16, 101129, Note_on_c, 12, 56, 0
16, 101160, Note_on_c, 12, 63, 52
16, 101249, Note_on_c, 12, 63, 0
16, 101280, Note_on_c, 12, 60, 52
16, 101369, Note_on_c, 12, 60, 0
16, 101400, Note_on_c, 12, 63, 52
16, 101489, Note_on_c, 12, 63, 0
16, 101520, Note_on_c, 12, 60, 52
16, 101609, Note_on_c, 12, 60, 0
16, 101640, Note_on_c, 12, 63, 52
16, 101729, Note_on_c, 12, 63, 0
16, 101760, Note_on_c, 12, 60, 52
16, 101849, Note_on_c, 12, 60, 0
16, 101880, Note_on_c, 12, 63, 52
16, 101969, Note_on_c, 12, 63, 0
16, 102000, Note_on_c, 12, 60, 44
16, 102051, Note_on_c, 12, 60, 0
16, 102060, Note_on_c, 12, 56, 44
16, 102060, Note_on_c, 12, 66, 44
16, 102171, Note_on_c, 12, 56, 0
16, 102171, Note_on_c, 12, 66, 0
16, 102180, Note_on_c, 12, 56, 44
16, 102180, Note_on_c, 12, 66, 44
16, 102291, Note_on_c, 12, 56, 0
16, 102291, Note_on_c, 12, 66, 0
16, 102300, Note_on_c, 12, 66, 44
16, 102300, Note_on_c, 12, 56, 44
16, 102411, Note_on_c, 12, 66, 0
16, 102411, Note_on_c, 12, 56, 0
16, 102420, Note_on_c, 12, 56, 44
16, 102420, Note_on_c, 12, 66, 44
16, 102531, Note_on_c, 12, 56, 0
16, 102531, Note_on_c, 12, 66, 0
16, 102540, Note_on_c, 12, 56, 44
16, 102540, Note_on_c, 12, 63, 44
16, 102651, Note_on_c, 12, 56, 0
16, 102651, Note_on_c, 12, 63, 0
16, 102660, Note_on_c, 12, 56, 44
16, 102660, Note_on_c, 12, 63, 44
16, 102771, Note_on_c, 12, 56, 0
16, 102771, Note_on_c, 12, 63, 0
16, 102780, Note_on_c, 12, 63, 44
16, 102780, Note_on_c, 12, 56, 44
16, 102891, Note_on_c, 12, 63, 0
16, 102891, Note_on_c, 12, 56, 0
16, 102900, Note_on_c, 12, 56, 44
16, 102900, Note_on_c, 12, 63, 44
16, 102951, Note_on_c, 12, 56, 0
16, 102959, Note_on_c, 12, 63, 0
16, 102960, Note_on_c, 12, 61, 44
16, 103011, Note_on_c, 12, 61, 0
16, 103020, Note_on_c, 12, 56, 44
16, 103020, Note_on_c, 12, 65, 44
16, 103131, Note_on_c, 12, 56, 0
16, 103131, Note_on_c, 12, 65, 0
16, 103140, Note_on_c, 12, 65, 44
16, 103140, Note_on_c, 12, 56, 44
16, 103251, Note_on_c, 12, 65, 0
16, 103251, Note_on_c, 12, 56, 0
16, 103260, Note_on_c, 12, 56, 44
16, 103260, Note_on_c, 12, 65, 44
16, 103371, Note_on_c, 12, 56, 0
16, 103371, Note_on_c, 12, 65, 0
16, 103380, Note_on_c, 12, 56, 44
16, 103380, Note_on_c, 12, 65, 44
16, 103439, Note_on_c, 12, 65, 0
16, 103440, Note_on_c, 12, 66, 44
16, 103491, Note_on_c, 12, 56, 0
16, 103491, Note_on_c, 12, 66, 0
16, 103500, Note_on_c, 12, 66, 44
16, 103500, Note_on_c, 12, 56, 44
16, 103611, Note_on_c, 12, 66, 0
16, 103611, Note_on_c, 12, 56, 0
16, 103620, Note_on_c, 12, 66, 44
16, 103620, Note_on_c, 12, 56, 44
16, 103731, Note_on_c, 12, 66, 0
16, 103731, Note_on_c, 12, 56, 0
16, 103740, Note_on_c, 12, 66, 44
16, 103740, Note_on_c, 12, 56, 44
16, 103851, Note_on_c, 12, 66, 0
16, 103851, Note_on_c, 12, 56, 0
16, 103860, Note_on_c, 12, 63, 44
16, 103979, Note_on_c, 12, 63, 0
16, 103980, Note_on_c, 12, 61, 44
16, 104031, Note_on_c, 12, 61, 0
16, 104100, Note_on_c, 12, 61, 44
16, 104159, Note_on_c, 12, 61, 0
16, 104160, Note_on_c, 12, 60, 44
16, 104219, Note_on_c, 12, 60, 0
16, 104220, Note_on_c, 12, 61, 44
16, 104279, Note_on_c, 12, 61, 0
16, 104340, Note_on_c, 12, 61, 44
16, 104399, Note_on_c, 12, 61, 0
16, 104400, Note_on_c, 12, 61, 44
16, 104459, Note_on_c, 12, 61, 0
16, 104460, Note_on_c, 12, 62, 44
16, 104519, Note_on_c, 12, 62, 0
16, 104580, Note_on_c, 12, 74, 60
16, 104639, Note_on_c, 12, 74, 0
16, 104640, Note_on_c, 12, 74, 44
16, 104699, Note_on_c, 12, 74, 0
16, 104700, Note_on_c, 12, 62, 44
16, 104759, Note_on_c, 12, 62, 0
16, 104820, Note_on_c, 12, 62, 44
16, 104879, Note_on_c, 12, 62, 0
16, 104880, Note_on_c, 12, 62, 44
16, 104939, Note_on_c, 12, 62, 0
16, 104940, Note_on_c, 12, 60, 44
16, 104999, Note_on_c, 12, 60, 0
16, 105060, Note_on_c, 12, 60, 44
16, 105119, Note_on_c, 12, 60, 0
16, 105120, Note_on_c, 12, 59, 44
16, 105179, Note_on_c, 12, 59, 0
16, 105180, Note_on_c, 12, 60, 44
16, 105239, Note_on_c, 12, 60, 0
16, 105300, Note_on_c, 12, 60, 44
16, 105359, Note_on_c, 12, 60, 0
16, 105360, Note_on_c, 12, 60, 44
16, 105419, Note_on_c, 12, 60, 0
16, 105420, Note_on_c, 12, 72, 44
16, 105479, Note_on_c, 12, 72, 0
16, 105520, Control_c, 12, 11, 96
16, 105540, Note_on_c, 12, 72, 76
16, 105599, Note_on_c, 12, 72, 0
16, 105600, Note_on_c, 12, 72, 60
16, 105600, Control_c, 12, 11, 96
16, 105630, Control_c, 12, 11, 99
16, 105659, Note_on_c, 12, 72, 0
16, 105660, Note_on_c, 12, 60, 60
16, 105660, Control_c, 12, 11, 101
16, 105690, Control_c, 12, 11, 104
16, 105719, Note_on_c, 12, 60, 0
16, 105720, Control_c, 12, 11, 106
16, 105750, Control_c, 12, 11, 109
16, 105780, Note_on_c, 12, 60, 60
16, 105780, Control_c, 12, 11, 112
16, 105810, Control_c, 12, 11, 114
16, 105839, Note_on_c, 12, 60, 0
16, 105840, Note_on_c, 12, 60, 60
16, 105840, Control_c, 12, 11, 117
16, 105870, Control_c, 12, 11, 119
16, 105899, Note_on_c, 12, 60, 0
16, 105900, Control_c, 12, 11, 122
16, 105900, Note_on_c, 12, 60, 60
16, 105930, Control_c, 12, 11, 127
16, 105952, Control_c, 12, 11, 125
16, 105959, Note_on_c, 12, 60, 0
16, 105973, Control_c, 12, 11, 124
16, 105995, Control_c, 12, 11, 122
16, 106017, Control_c, 12, 11, 120
16, 106020, Note_on_c, 12, 60, 60
16, 106038, Control_c, 12, 11, 118
16, 106060, Control_c, 12, 11, 117
16, 106079, Note_on_c, 12, 60, 0
16, 106080, Note_on_c, 12, 60, 60
16, 106082, Control_c, 12, 11, 115
16, 106103, Control_c, 12, 11, 113
16, 106125, Control_c, 12, 11, 112
16, 106139, Note_on_c, 12, 60, 0
16, 106140, Note_on_c, 12, 60, 60
16, 106147, Control_c, 12, 11, 110
16, 106168, Control_c, 12, 11, 108
16, 106190, Control_c, 12, 11, 106
16, 106199, Note_on_c, 12, 60, 0
16, 106212, Control_c, 12, 11, 105
16, 106233, Control_c, 12, 11, 103
16, 106255, Control_c, 12, 11, 101
16, 106260, Note_on_c, 12, 60, 60
16, 106277, Control_c, 12, 11, 99
16, 106298, Control_c, 12, 11, 96
16, 106319, Note_on_c, 12, 60, 0
16, 106320, Note_on_c, 12, 60, 60
16, 106379, Note_on_c, 12, 60, 0
16, 106380, Note_on_c, 12, 59, 60
16, 106439, Note_on_c, 12, 59, 0
16, 106500, Note_on_c, 12, 59, 60
16, 106559, Note_on_c, 12, 59, 0
16, 106560, Note_on_c, 12, 60, 60
16, 106619, Note_on_c, 12, 60, 0
16, 106620, Note_on_c, 12, 59, 60
16, 106679, Note_on_c, 12, 59, 0
16, 106740, Note_on_c, 12, 59, 60
16, 106791, Note_on_c, 12, 59, 0
16, 106800, Note_on_c, 12, 60, 60
16, 107039, Note_on_c, 12, 60, 0
16, 107280, Note_on_c, 12, 60, 60
16, 107519, Note_on_c, 12, 60, 0
16, 107520, Note_on_c, 12, 58, 60
16, 107639, Note_on_c, 12, 58, 0
16, 107640, Note_on_c, 12, 56, 60
16, 107751, Note_on_c, 12, 56, 0
16, 107760, Control_c, 12, 11, 96
16, 107760, Note_on_c, 12, 55, 60
16, 107806, Control_c, 12, 11, 97
16, 107853, Control_c, 12, 11, 98
16, 107879, Note_on_c, 12, 55, 0
16, 107880, Note_on_c, 12, 60, 60
16, 107899, Control_c, 12, 11, 99
16, 107946, Control_c, 12, 11, 100
16, 107992, Control_c, 12, 11, 101
16, 108039, Control_c, 12, 11, 102
16, 108085, Control_c, 12, 11, 103
16, 108119, Note_on_c, 12, 60, 0
16, 108120, Note_on_c, 12, 64, 60
16, 108132, Control_c, 12, 11, 104
16, 108178, Control_c, 12, 11, 105
16, 108225, Control_c, 12, 11, 106
16, 108231, Note_on_c, 12, 64, 0
16, 108240, Note_on_c, 12, 65, 60
16, 108271, Control_c, 12, 11, 107
16, 108317, Control_c, 12, 11, 108
16, 108364, Control_c, 12, 11, 109
16, 108410, Control_c, 12, 11, 110
16, 108457, Control_c, 12, 11, 111
16, 108479, Note_on_c, 12, 65, 0
16, 108480, Note_on_c, 12, 64, 60
16, 108503, Control_c, 12, 11, 112
16, 108550, Control_c, 12, 11, 113
16, 108596, Control_c, 12, 11, 114
16, 108599, Note_on_c, 12, 64, 0
16, 108600, Note_on_c, 12, 60, 60
16, 108643, Control_c, 12, 11, 115
16, 108689, Control_c, 12, 11, 116
16, 108711, Note_on_c, 12, 60, 0
16, 108720, Note_on_c, 12, 60, 60
16, 108735, Control_c, 12, 11, 117
16, 108782, Control_c, 12, 11, 118
16, 108828, Control_c, 12, 11, 119
16, 108831, Note_on_c, 12, 60, 0
16, 108840, Note_on_c, 12, 60, 60
16, 108875, Control_c, 12, 11, 120
16, 108921, Control_c, 12, 11, 121
16, 108951, Note_on_c, 12, 60, 0
16, 108960, Note_on_c, 12, 60, 60
16, 108968, Control_c, 12, 11, 122
16, 109014, Control_c, 12, 11, 123
16, 109061, Control_c, 12, 11, 124
16, 109071, Note_on_c, 12, 60, 0
16, 109080, Note_on_c, 12, 60, 60
16, 109107, Control_c, 12, 11, 125
16, 109191, Note_on_c, 12, 60, 0
16, 109198, Control_c, 12, 11, 96
16, 109200, Control_c, 12, 11, 96
16, 109200, Note_on_c, 12, 64, 68
16, 109220, Control_c, 12, 11, 97
16, 109240, Control_c, 12, 11, 99
16, 109260, Control_c, 12, 11, 100
16, 109280, Control_c, 12, 11, 101
16, 109300, Control_c, 12, 11, 102
16, 109320, Control_c, 12, 11, 104
16, 109340, Control_c, 12, 11, 105
16, 109360, Control_c, 12, 11, 106
16, 109380, Control_c, 12, 11, 108
16, 109400, Control_c, 12, 11, 109
16, 109420, Control_c, 12, 11, 110
16, 109439, Note_on_c, 12, 64, 0
16, 109440, Note_on_c, 12, 63, 68
16, 109440, Control_c, 12, 11, 112
16, 109460, Control_c, 12, 11, 113
16, 109480, Control_c, 12, 11, 114
16, 109500, Control_c, 12, 11, 115
16, 109520, Control_c, 12, 11, 117
16, 109540, Control_c, 12, 11, 118
16, 109560, Control_c, 12, 11, 119
16, 109580, Control_c, 12, 11, 121
16, 109600, Control_c, 12, 11, 122
16, 109620, Control_c, 12, 11, 123
16, 109640, Control_c, 12, 11, 124
16, 109660, Control_c, 12, 11, 127
16, 109679, Note_on_c, 12, 63, 0
16, 109680, Note_on_c, 12, 61, 52
16, 109799, Note_on_c, 12, 61, 0
16, 110160, Note_on_c, 12, 60, 52
16, 110279, Note_on_c, 12, 60, 0
16, 110610, Control_c, 12, 11, 96
16, 110640, Control_c, 12, 11, 96
16, 110640, Note_on_c, 12, 56, 68
16, 110660, Control_c, 12, 11, 98
16, 110680, Control_c, 12, 11, 99
16, 110700, Control_c, 12, 11, 101
16, 110720, Control_c, 12, 11, 103
16, 110740, Control_c, 12, 11, 105
16, 110760, Control_c, 12, 11, 106
16, 110780, Control_c, 12, 11, 108
16, 110800, Control_c, 12, 11, 110
16, 110820, Control_c, 12, 11, 112
16, 110840, Control_c, 12, 11, 113
16, 110860, Control_c, 12, 11, 115
16, 110880, Control_c, 12, 11, 117
16, 110900, Control_c, 12, 11, 118
16, 110920, Control_c, 12, 11, 120
16, 110940, Control_c, 12, 11, 122
16, 110960, Control_c, 12, 11, 124
16, 110980, Control_c, 12, 11, 127
16, 111000, Control_c, 12, 11, 127
16, 111013, Control_c, 12, 11, 124
16, 111027, Control_c, 12, 11, 120
16, 111040, Control_c, 12, 11, 117
16, 111053, Control_c, 12, 11, 113
16, 111067, Control_c, 12, 11, 110
16, 111080, Control_c, 12, 11, 106
16, 111093, Control_c, 12, 11, 103
16, 111107, Control_c, 12, 11, 96
16, 111119, Note_on_c, 12, 56, 0
16, 111120, Note_on_c, 12, 55, 68
16, 111239, Note_on_c, 12, 55, 0
16, 111600, Note_on_c, 12, 56, 68
16, 111600, Control_c, 12, 11, 96
16, 111620, Control_c, 12, 11, 99
16, 111640, Control_c, 12, 11, 101
16, 111660, Control_c, 12, 11, 104
16, 111680, Control_c, 12, 11, 106
16, 111700, Control_c, 12, 11, 109
16, 111720, Control_c, 12, 11, 112
16, 111740, Control_c, 12, 11, 114
16, 111760, Control_c, 12, 11, 117
16, 111780, Control_c, 12, 11, 119
16, 111800, Control_c, 12, 11, 122
16, 111820, Control_c, 12, 11, 124
16, 111840, Control_c, 12, 11, 127
16, 111860, Control_c, 12, 11, 124
16, 111880, Control_c, 12, 11, 122
16, 111900, Control_c, 12, 11, 119
16, 111920, Control_c, 12, 11, 117
16, 111940, Control_c, 12, 11, 114
16, 111960, Control_c, 12, 11, 112
16, 111980, Control_c, 12, 11, 109
16, 112000, Control_c, 12, 11, 106
16, 112020, Control_c, 12, 11, 104
16, 112040, Control_c, 12, 11, 101
16, 112060, Control_c, 12, 11, 96
16, 112079, Note_on_c, 12, 56, 0
16, 112080, Note_on_c, 12, 55, 68
16, 112199, Note_on_c, 12, 55, 0
16, 112560, Note_on_c, 12, 56, 68
16, 113039, Note_on_c, 12, 56, 0
16, 113040, Note_on_c, 12, 56, 68
16, 113040, Control_c, 12, 11, 96
16, 113080, Control_c, 12, 11, 99
16, 113120, Control_c, 12, 11, 101
16, 113160, Control_c, 12, 11, 104
16, 113200, Control_c, 12, 11, 106
16, 113240, Control_c, 12, 11, 109
16, 113280, Control_c, 12, 11, 112
16, 113320, Control_c, 12, 11, 114
16, 113360, Control_c, 12, 11, 117
16, 113400, Control_c, 12, 11, 119
16, 113440, Control_c, 12, 11, 122
16, 113500, Control_c, 12, 11, 127
16, 113519, Note_on_c, 12, 56, 0
16, 113520, Note_on_c, 12, 56, 68
16, 113520, Control_c, 12, 11, 127
16, 113560, Control_c, 12, 11, 124
16, 113600, Control_c, 12, 11, 122
16, 113639, Note_on_c, 12, 56, 0
16, 113640, Control_c, 12, 11, 119
16, 113640, Note_on_c, 12, 55, 68
16, 113680, Control_c, 12, 11, 117
16, 113720, Control_c, 12, 11, 114
16, 113760, Control_c, 12, 11, 112
16, 113800, Control_c, 12, 11, 109
16, 113840, Control_c, 12, 11, 106
16, 113871, Note_on_c, 12, 55, 0
16, 113880, Control_c, 12, 11, 104
16, 113880, Note_on_c, 12, 55, 68
16, 113920, Control_c, 12, 11, 101
16, 113960, Control_c, 12, 11, 96
16, 113999, Note_on_c, 12, 55, 0
16, 114238, Control_c, 12, 11, 127
16, 117720, Note_on_c, 12, 56, 44
16, 117771, Note_on_c, 12, 56, 0
16, 117780, Note_on_c, 12, 56, 44
16, 117831, Note_on_c, 12, 56, 0
16, 117840, Note_on_c, 12, 55, 44
16, 117959, Note_on_c, 12, 55, 0
16, 118080, Note_on_c, 12, 63, 76
16, 118080, Note_on_c, 12, 72, 76
16, 118080, Note_on_c, 12, 55, 76
16, 118199, Note_on_c, 12, 63, 0
16, 118199, Note_on_c, 12, 72, 0
16, 118199, Note_on_c, 12, 55, 0
16, 118320, Note_on_c, 12, 60, 52
16, 118679, Note_on_c, 12, 60, 0
16, 118679, End_track
17, 0, Start_track
17, 0, Title_t, "Viola "
17, 0, MIDI_port, 0
17, 0, Program_c, 13, 48
17, 0, Control_c, 13, 11, 127
17, 0, Control_c, 13, 10, 70
17, 0, Control_c, 13, 7, 96
17, 240, Note_on_c, 13, 51, 44
17, 479, Note_on_c, 13, 51, 0
17, 720, Note_on_c, 13, 51, 44
17, 959, Note_on_c, 13, 51, 0
17, 1200, Note_on_c, 13, 51, 44
17, 1431, Note_on_c, 13, 51, 0
17, 1440, Note_on_c, 13, 51, 44
17, 1671, Note_on_c, 13, 51, 0
17, 1680, Note_on_c, 13, 51, 44
17, 1919, Note_on_c, 13, 51, 0
17, 1920, Note_on_c, 13, 50, 44
17, 2039, Note_on_c, 13, 50, 0
17, 2160, Note_on_c, 13, 53, 44
17, 2399, Note_on_c, 13, 53, 0
17, 2640, Note_on_c, 13, 53, 60
17, 2760, Control_c, 13, 11, 112
17, 2880, Control_c, 13, 11, 104
17, 2910, Control_c, 13, 11, 103
17, 2940, Control_c, 13, 11, 102
17, 2970, Control_c, 13, 11, 101
17, 2991, Note_on_c, 13, 53, 0
17, 3000, Note_on_c, 13, 53, 60
17, 3000, Control_c, 13, 11, 100
17, 3030, Control_c, 13, 11, 99
17, 3059, Note_on_c, 13, 53, 0
17, 3060, Note_on_c, 13, 55, 60
17, 3060, Control_c, 13, 11, 98
17, 3090, Control_c, 13, 11, 97
17, 3111, Note_on_c, 13, 55, 0
17, 3120, Note_on_c, 13, 55, 60
17, 3120, Control_c, 13, 11, 96
17, 3239, Note_on_c, 13, 55, 0
17, 3240, Note_on_c, 13, 50, 60
17, 3351, Note_on_c, 13, 50, 0
17, 3360, Note_on_c, 13, 51, 60
17, 3479, Note_on_c, 13, 51, 0
17, 3480, Note_on_c, 13, 53, 60
17, 3591, Note_on_c, 13, 53, 0
17, 3600, Note_on_c, 13, 51, 60
17, 3711, Note_on_c, 13, 51, 0
17, 3720, Note_on_c, 13, 53, 60
17, 3801, Note_on_c, 13, 53, 0
17, 3810, Note_on_c, 13, 53, 60
17, 3835, Note_on_c, 13, 53, 0
17, 3840, Note_on_c, 13, 51, 60
17, 3959, Note_on_c, 13, 51, 0
17, 4020, Note_on_c, 13, 55, 60
17, 4039, Note_on_c, 13, 55, 0
17, 4040, Note_on_c, 13, 55, 60
17, 4059, Note_on_c, 13, 55, 0
17, 4060, Note_on_c, 13, 55, 60
17, 4075, Note_on_c, 13, 55, 0
17, 4080, Note_on_c, 13, 55, 60
17, 4199, Note_on_c, 13, 55, 0
17, 4320, Control_c, 13, 11, 127
17, 4500, Note_on_c, 13, 55, 44
17, 4519, Note_on_c, 13, 55, 0
17, 4520, Note_on_c, 13, 55, 44
17, 4539, Note_on_c, 13, 55, 0
17, 4540, Note_on_c, 13, 55, 44
17, 4555, Note_on_c, 13, 55, 0
17, 4560, Note_on_c, 13, 55, 44
17, 4679, Note_on_c, 13, 55, 0
17, 4980, Note_on_c, 13, 55, 44
17, 4999, Note_on_c, 13, 55, 0
17, 5000, Note_on_c, 13, 55, 44
17, 5019, Note_on_c, 13, 55, 0
17, 5020, Note_on_c, 13, 55, 44
17, 5035, Note_on_c, 13, 55, 0
17, 5040, Note_on_c, 13, 55, 44
17, 5159, Note_on_c, 13, 55, 0
17, 5220, Note_on_c, 13, 55, 44
17, 5239, Note_on_c, 13, 55, 0
17, 5240, Note_on_c, 13, 55, 44
17, 5259, Note_on_c, 13, 55, 0
17, 5260, Note_on_c, 13, 55, 44
17, 5275, Note_on_c, 13, 55, 0
17, 5280, Note_on_c, 13, 55, 44
17, 5399, Note_on_c, 13, 55, 0
17, 5400, Control_c, 13, 11, 96
17, 5460, Note_on_c, 13, 55, 60
17, 5479, Note_on_c, 13, 55, 0
17, 5480, Note_on_c, 13, 55, 60
17, 5499, Note_on_c, 13, 55, 0
17, 5500, Note_on_c, 13, 55, 60
17, 5515, Note_on_c, 13, 55, 0
17, 5520, Control_c, 13, 11, 96
17, 5520, Note_on_c, 13, 60, 60
17, 5540, Control_c, 13, 11, 99
17, 5560, Control_c, 13, 11, 101
17, 5580, Control_c, 13, 11, 104
17, 5600, Control_c, 13, 11, 106
17, 5620, Control_c, 13, 11, 109
17, 5639, Note_on_c, 13, 60, 0
17, 5640, Control_c, 13, 11, 112
17, 5660, Control_c, 13, 11, 114
17, 5680, Control_c, 13, 11, 117
17, 5700, Note_on_c, 13, 63, 60
17, 5700, Note_on_c, 13, 60, 60
17, 5700, Control_c, 13, 11, 119
17, 5719, Note_on_c, 13, 63, 0
17, 5719, Note_on_c, 13, 60, 0
17, 5720, Note_on_c, 13, 60, 60
17, 5720, Note_on_c, 13, 63, 60
17, 5720, Control_c, 13, 11, 122
17, 5739, Note_on_c, 13, 60, 0
17, 5739, Note_on_c, 13, 63, 0
17, 5740, Note_on_c, 13, 60, 60
17, 5740, Note_on_c, 13, 63, 60
17, 5740, Control_c, 13, 11, 124
17, 5755, Note_on_c, 13, 60, 0
17, 5755, Note_on_c, 13, 63, 0
17, 5760, Control_c, 13, 11, 127
17, 5760, Note_on_c, 13, 59, 60
17, 5760, Note_on_c, 13, 62, 60
17, 5773, Control_c, 13, 11, 124
17, 5787, Control_c, 13, 11, 120
17, 5800, Control_c, 13, 11, 117
17, 5813, Control_c, 13, 11, 113
17, 5827, Control_c, 13, 11, 110
17, 5840, Control_c, 13, 11, 106
17, 5853, Control_c, 13, 11, 103
17, 5867, Control_c, 13, 11, 96
17, 5879, Note_on_c, 13, 59, 0
17, 5879, Note_on_c, 13, 62, 0
17, 5940, Note_on_c, 13, 55, 68
17, 5959, Note_on_c, 13, 55, 0
17, 5960, Note_on_c, 13, 55, 68
17, 5979, Note_on_c, 13, 55, 0
17, 5980, Note_on_c, 13, 55, 68
17, 5995, Note_on_c, 13, 55, 0
17, 6000, Note_on_c, 13, 56, 68
17, 6119, Note_on_c, 13, 56, 0
17, 6360, Control_c, 13, 11, 127
17, 6420, Note_on_c, 13, 56, 52
17, 6439, Note_on_c, 13, 56, 0
17, 6440, Note_on_c, 13, 56, 52
17, 6459, Note_on_c, 13, 56, 0
17, 6460, Note_on_c, 13, 56, 52
17, 6475, Note_on_c, 13, 56, 0
17, 6480, Note_on_c, 13, 56, 52
17, 6599, Note_on_c, 13, 56, 0
17, 6870, Control_c, 13, 11, 96
17, 6900, Control_c, 13, 11, 96
17, 6900, Note_on_c, 13, 62, 68
17, 6919, Note_on_c, 13, 62, 0
17, 6920, Control_c, 13, 11, 99
17, 6920, Note_on_c, 13, 62, 68
17, 6939, Note_on_c, 13, 62, 0
17, 6940, Note_on_c, 13, 62, 68
17, 6940, Control_c, 13, 11, 101
17, 6955, Note_on_c, 13, 62, 0
17, 6960, Control_c, 13, 11, 104
17, 6960, Note_on_c, 13, 62, 68
17, 6980, Control_c, 13, 11, 106
17, 7000, Control_c, 13, 11, 109
17, 7020, Control_c, 13, 11, 112
17, 7040, Control_c, 13, 11, 114
17, 7060, Control_c, 13, 11, 117
17, 7079, Note_on_c, 13, 62, 0
17, 7080, Control_c, 13, 11, 119
17, 7100, Control_c, 13, 11, 122
17, 7120, Control_c, 13, 11, 124
17, 7140, Control_c, 13, 11, 127
17, 7140, Note_on_c, 13, 58, 68
17, 7159, Note_on_c, 13, 58, 0
17, 7160, Note_on_c, 13, 58, 68
17, 7165, Control_c, 13, 11, 124
17, 7179, Note_on_c, 13, 58, 0
17, 7180, Note_on_c, 13, 58, 68
17, 7190, Control_c, 13, 11, 122
17, 7195, Note_on_c, 13, 58, 0
17, 7200, Note_on_c, 13, 58, 68
17, 7215, Control_c, 13, 11, 119
17, 7240, Control_c, 13, 11, 117
17, 7265, Control_c, 13, 11, 114
17, 7290, Control_c, 13, 11, 112
17, 7315, Control_c, 13, 11, 109
17, 7319, Note_on_c, 13, 58, 0
17, 7340, Control_c, 13, 11, 106
17, 7365, Control_c, 13, 11, 104
17, 7380, Note_on_c, 13, 58, 68
17, 7390, Control_c, 13, 11, 101
17, 7399, Note_on_c, 13, 58, 0
17, 7400, Note_on_c, 13, 58, 68
17, 7415, Control_c, 13, 11, 96
17, 7419, Note_on_c, 13, 58, 0
17, 7420, Note_on_c, 13, 58, 68
17, 7435, Note_on_c, 13, 58, 0
17, 7440, Note_on_c, 13, 58, 68
17, 7559, Note_on_c, 13, 58, 0
17, 7680, Control_c, 13, 11, 127
17, 7920, Note_on_c, 13, 51, 52
17, 8159, Note_on_c, 13, 51, 0
17, 8160, Note_on_c, 13, 53, 52
17, 8279, Note_on_c, 13, 53, 0
17, 8280, Note_on_c, 13, 55, 52
17, 8391, Note_on_c, 13, 55, 0
17, 8400, Note_on_c, 13, 53, 52
17, 8519, Note_on_c, 13, 53, 0
17, 8760, Control_c, 13, 11, 96
17, 8880, Control_c, 13, 11, 96
17, 8880, Note_on_c, 13, 51, 76
17, 8910, Control_c, 13, 11, 97
17, 8940, Control_c, 13, 11, 99
17, 8970, Control_c, 13, 11, 100
17, 9000, Control_c, 13, 11, 101
17, 9030, Control_c, 13, 11, 102
17, 9060, Control_c, 13, 11, 104
17, 9090, Control_c, 13, 11, 105
17, 9119, Note_on_c, 13, 51, 0
17, 9120, Note_on_c, 13, 55, 76
17, 9120, Control_c, 13, 11, 106
17, 9150, Control_c, 13, 11, 108
17, 9180, Control_c, 13, 11, 109
17, 9210, Control_c, 13, 11, 110
17, 9239, Note_on_c, 13, 55, 0
17, 9240, Control_c, 13, 11, 112
17, 9240, Note_on_c, 13, 48, 76
17, 9270, Control_c, 13, 11, 113
17, 9300, Control_c, 13, 11, 114
17, 9330, Control_c, 13, 11, 115
17, 9351, Note_on_c, 13, 48, 0
17, 9360, Control_c, 13, 11, 117
17, 9360, Note_on_c, 13, 49, 76
17, 9390, Control_c, 13, 11, 118
17, 9420, Control_c, 13, 11, 119
17, 9450, Control_c, 13, 11, 121
17, 9479, Note_on_c, 13, 49, 0
17, 9480, Control_c, 13, 11, 122
17, 9510, Control_c, 13, 11, 123
17, 9540, Control_c, 13, 11, 124
17, 9570, Control_c, 13, 11, 127
17, 9570, Note_on_c, 13, 60, 76
17, 9570, Note_on_c, 13, 48, 76
17, 9591, Note_on_c, 13, 60, 0
17, 9591, Note_on_c, 13, 48, 0
17, 9600, Note_on_c, 13, 60, 76
17, 9600, Note_on_c, 13, 48, 76
17, 9839, Note_on_c, 13, 60, 0
17, 9839, Note_on_c, 13, 48, 0
17, 10080, Note_on_c, 13, 60, 52
17, 10080, Note_on_c, 13, 48, 52
17, 10184, Note_on_c, 13, 60, 0
17, 10184, Note_on_c, 13, 48, 0
17, 10200, Note_on_c, 13, 60, 52
17, 10200, Note_on_c, 13, 48, 52
17, 10304, Note_on_c, 13, 60, 0
17, 10304, Note_on_c, 13, 48, 0
17, 10320, Note_on_c, 13, 60, 52
17, 10320, Note_on_c, 13, 48, 52
17, 10431, Note_on_c, 13, 60, 0
17, 10431, Note_on_c, 13, 48, 0
17, 10440, Note_on_c, 13, 48, 52
17, 10559, Note_on_c, 13, 48, 0
17, 10560, Note_on_c, 13, 51, 68
17, 10620, Control_c, 13, 11, 127
17, 10640, Control_c, 13, 11, 122
17, 10660, Control_c, 13, 11, 117
17, 10679, Note_on_c, 13, 51, 0
17, 10680, Control_c, 13, 11, 112
17, 10680, Note_on_c, 13, 48, 60
17, 10700, Control_c, 13, 11, 106
17, 10720, Control_c, 13, 11, 96
17, 10791, Note_on_c, 13, 48, 0
17, 10800, Note_on_c, 13, 50, 68
17, 10919, Note_on_c, 13, 50, 0
17, 11280, Note_on_c, 13, 60, 68
17, 11519, Note_on_c, 13, 60, 0
17, 11520, Note_on_c, 13, 59, 68
17, 11639, Note_on_c, 13, 59, 0
17, 11640, Note_on_c, 13, 60, 68
17, 11751, Note_on_c, 13, 60, 0
17, 11760, Control_c, 13, 11, 96
17, 11760, Note_on_c, 13, 62, 68
17, 11780, Control_c, 13, 11, 97
17, 11800, Control_c, 13, 11, 99
17, 11820, Control_c, 13, 11, 100
17, 11840, Control_c, 13, 11, 101
17, 11860, Control_c, 13, 11, 102
17, 11879, Note_on_c, 13, 62, 0
17, 11880, Control_c, 13, 11, 104
17, 11880, Note_on_c, 13, 55, 68
17, 11900, Control_c, 13, 11, 105
17, 11920, Control_c, 13, 11, 106
17, 11940, Control_c, 13, 11, 108
17, 11960, Control_c, 13, 11, 109
17, 11980, Control_c, 13, 11, 110
17, 11999, Note_on_c, 13, 55, 0
17, 12000, Control_c, 13, 11, 112
17, 12000, Note_on_c, 13, 67, 68
17, 12020, Control_c, 13, 11, 113
17, 12040, Control_c, 13, 11, 114
17, 12060, Control_c, 13, 11, 115
17, 12080, Control_c, 13, 11, 117
17, 12100, Control_c, 13, 11, 118
17, 12120, Control_c, 13, 11, 119
17, 12140, Control_c, 13, 11, 121
17, 12160, Control_c, 13, 11, 122
17, 12180, Control_c, 13, 11, 123
17, 12200, Control_c, 13, 11, 124
17, 12220, Control_c, 13, 11, 127
17, 12240, Control_c, 13, 11, 127
17, 12260, Control_c, 13, 11, 126
17, 12280, Control_c, 13, 11, 124
17, 12300, Control_c, 13, 11, 123
17, 12320, Control_c, 13, 11, 122
17, 12340, Control_c, 13, 11, 121
17, 12351, Note_on_c, 13, 67, 0
17, 12360, Control_c, 13, 11, 119
17, 12360, Note_on_c, 13, 67, 68
17, 12380, Control_c, 13, 11, 118
17, 12400, Control_c, 13, 11, 117
17, 12420, Control_c, 13, 11, 115
17, 12440, Control_c, 13, 11, 114
17, 12460, Control_c, 13, 11, 113
17, 12480, Control_c, 13, 11, 112
17, 12500, Control_c, 13, 11, 110
17, 12520, Control_c, 13, 11, 109
17, 12540, Control_c, 13, 11, 108
17, 12560, Control_c, 13, 11, 106
17, 12580, Control_c, 13, 11, 105
17, 12599, Note_on_c, 13, 67, 0
17, 12600, Note_on_c, 13, 66, 68
17, 12600, Control_c, 13, 11, 104
17, 12620, Control_c, 13, 11, 102
17, 12640, Control_c, 13, 11, 101
17, 12660, Control_c, 13, 11, 100
17, 12680, Control_c, 13, 11, 99
17, 12700, Control_c, 13, 11, 96
17, 12719, Note_on_c, 13, 66, 0
17, 12720, Note_on_c, 13, 67, 68
17, 12839, Note_on_c, 13, 67, 0
17, 14160, Control_c, 13, 11, 127
17, 14400, Note_on_c, 13, 52, 68
17, 14639, Note_on_c, 13, 52, 0
17, 14640, Note_on_c, 13, 53, 52
17, 14879, Note_on_c, 13, 53, 0
17, 15000, Control_c, 13, 11, 80
17, 15120, Note_on_c, 13, 61, 76
17, 15479, Note_on_c, 13, 61, 0
17, 15600, Control_c, 13, 11, 80
17, 15600, Note_on_c, 13, 62, 76
17, 15620, Control_c, 13, 11, 82
17, 15640, Control_c, 13, 11, 84
17, 15660, Control_c, 13, 11, 86
17, 15680, Control_c, 13, 11, 88
17, 15700, Control_c, 13, 11, 90
17, 15719, Note_on_c, 13, 62, 0
17, 15720, Control_c, 13, 11, 92
17, 15740, Control_c, 13, 11, 94
17, 15760, Control_c, 13, 11, 96
17, 15780, Control_c, 13, 11, 98
17, 15780, Note_on_c, 13, 62, 76
17, 15799, Note_on_c, 13, 62, 0
17, 15800, Note_on_c, 13, 62, 76
17, 15800, Control_c, 13, 11, 100
17, 15819, Note_on_c, 13, 62, 0
17, 15820, Control_c, 13, 11, 102
17, 15820, Note_on_c, 13, 62, 76
17, 15835, Note_on_c, 13, 62, 0
17, 15840, Control_c, 13, 11, 104
17, 15840, Note_on_c, 13, 68, 76
17, 15860, Control_c, 13, 11, 105
17, 15880, Control_c, 13, 11, 107
17, 15900, Control_c, 13, 11, 109
17, 15920, Control_c, 13, 11, 111
17, 15940, Control_c, 13, 11, 113
17, 15959, Note_on_c, 13, 68, 0
17, 15960, Control_c, 13, 11, 115
17, 15980, Control_c, 13, 11, 117
17, 16000, Control_c, 13, 11, 119
17, 16020, Control_c, 13, 11, 121
17, 16020, Note_on_c, 13, 68, 76
17, 16039, Note_on_c, 13, 68, 0
17, 16040, Note_on_c, 13, 68, 76
17, 16040, Control_c, 13, 11, 123
17, 16059, Note_on_c, 13, 68, 0
17, 16060, Note_on_c, 13, 68, 76
17, 16060, Control_c, 13, 11, 127
17, 16075, Note_on_c, 13, 68, 0
17, 16080, Note_on_c, 13, 67, 76
17, 16169, Note_on_c, 13, 67, 0
17, 16200, Note_on_c, 13, 60, 76
17, 16289, Note_on_c, 13, 60, 0
17, 16410, Control_c, 13, 11, 96
17, 16440, Control_c, 13, 11, 96
17, 16440, Note_on_c, 13, 51, 68
17, 16460, Control_c, 13, 11, 99
17, 16480, Control_c, 13, 11, 101
17, 16500, Control_c, 13, 11, 104
17, 16520, Control_c, 13, 11, 106
17, 16540, Control_c, 13, 11, 109
17, 16560, Control_c, 13, 11, 112
17, 16580, Control_c, 13, 11, 114
17, 16600, Control_c, 13, 11, 117
17, 16620, Control_c, 13, 11, 119
17, 16640, Control_c, 13, 11, 122
17, 16660, Control_c, 13, 11, 127
17, 16679, Note_on_c, 13, 51, 0
17, 16680, Note_on_c, 13, 51, 76
17, 16740, Control_c, 13, 11, 112
17, 16757, Control_c, 13, 11, 110
17, 16773, Control_c, 13, 11, 108
17, 16790, Control_c, 13, 11, 107
17, 16807, Control_c, 13, 11, 105
17, 16823, Control_c, 13, 11, 103
17, 16840, Control_c, 13, 11, 101
17, 16857, Control_c, 13, 11, 100
17, 16873, Control_c, 13, 11, 98
17, 16890, Control_c, 13, 11, 96
17, 16907, Control_c, 13, 11, 94
17, 16919, Note_on_c, 13, 51, 0
17, 16920, Note_on_c, 13, 50, 76
17, 16923, Control_c, 13, 11, 92
17, 16940, Control_c, 13, 11, 91
17, 16957, Control_c, 13, 11, 89
17, 16973, Control_c, 13, 11, 87
17, 16990, Control_c, 13, 11, 85
17, 17007, Control_c, 13, 11, 84
17, 17009, Note_on_c, 13, 50, 0
17, 17010, Note_on_c, 13, 53, 76
17, 17023, Control_c, 13, 11, 80
17, 17039, Note_on_c, 13, 53, 0
17, 17040, Note_on_c, 13, 51, 76
17, 17129, Note_on_c, 13, 51, 0
17, 17160, Note_on_c, 13, 56, 76
17, 17234, Note_on_c, 13, 56, 0
17, 17250, Note_on_c, 13, 56, 76
17, 17271, Note_on_c, 13, 56, 0
17, 17280, Note_on_c, 13, 50, 76
17, 17369, Note_on_c, 13, 50, 0
17, 17400, Note_on_c, 13, 58, 76
17, 17474, Note_on_c, 13, 58, 0
17, 17490, Note_on_c, 13, 58, 76
17, 17511, Note_on_c, 13, 58, 0
17, 17520, Note_on_c, 13, 51, 76
17, 17639, Note_on_c, 13, 51, 0
17, 17910, Control_c, 13, 11, 127
17, 17940, Note_on_c, 13, 55, 52
17, 17959, Note_on_c, 13, 55, 0
17, 17960, Note_on_c, 13, 55, 52
17, 17979, Note_on_c, 13, 55, 0
17, 17980, Note_on_c, 13, 55, 52
17, 17995, Note_on_c, 13, 55, 0
17, 18000, Note_on_c, 13, 58, 52
17, 18119, Note_on_c, 13, 58, 0
17, 18420, Note_on_c, 13, 58, 52
17, 18439, Note_on_c, 13, 58, 0
17, 18440, Note_on_c, 13, 58, 52
17, 18459, Note_on_c, 13, 58, 0
17, 18460, Note_on_c, 13, 58, 52
17, 18475, Note_on_c, 13, 58, 0
17, 18480, Note_on_c, 13, 60, 52
17, 18599, Note_on_c, 13, 60, 0
17, 18660, Note_on_c, 13, 60, 58
17, 18679, Note_on_c, 13, 60, 0
17, 18680, Note_on_c, 13, 60, 58
17, 18699, Note_on_c, 13, 60, 0
17, 18700, Note_on_c, 13, 60, 59
17, 18715, Note_on_c, 13, 60, 0
17, 18720, Note_on_c, 13, 58, 60
17, 18839, Note_on_c, 13, 58, 0
17, 18900, Note_on_c, 13, 56, 66
17, 18919, Note_on_c, 13, 56, 0
17, 18920, Note_on_c, 13, 56, 66
17, 18939, Note_on_c, 13, 56, 0
17, 18940, Note_on_c, 13, 56, 67
17, 18955, Note_on_c, 13, 56, 0
17, 18960, Note_on_c, 13, 58, 68
17, 18960, Note_on_c, 13, 55, 68
17, 19079, Note_on_c, 13, 58, 0
17, 19079, Note_on_c, 13, 55, 0
17, 19140, Note_on_c, 13, 67, 74
17, 19155, Note_on_c, 13, 67, 0
17, 19160, Note_on_c, 13, 67, 74
17, 19175, Note_on_c, 13, 67, 0
17, 19180, Note_on_c, 13, 67, 75
17, 19195, Note_on_c, 13, 67, 0
17, 19200, Note_on_c, 13, 67, 76
17, 19319, Note_on_c, 13, 67, 0
17, 19380, Note_on_c, 13, 67, 76
17, 19395, Note_on_c, 13, 67, 0
17, 19400, Note_on_c, 13, 67, 76
17, 19415, Note_on_c, 13, 67, 0
17, 19420, Note_on_c, 13, 67, 76
17, 19435, Note_on_c, 13, 67, 0
17, 19440, Note_on_c, 13, 67, 52
17, 19559, Note_on_c, 13, 67, 0
17, 19620, Note_on_c, 13, 60, 52
17, 19635, Note_on_c, 13, 60, 0
17, 19640, Note_on_c, 13, 60, 52
17, 19655, Note_on_c, 13, 60, 0
17, 19660, Note_on_c, 13, 60, 52
17, 19675, Note_on_c, 13, 60, 0
17, 19680, Note_on_c, 13, 60, 52
17, 19799, Note_on_c, 13, 60, 0
17, 19860, Note_on_c, 13, 60, 52
17, 19875, Note_on_c, 13, 60, 0
17, 19880, Note_on_c, 13, 60, 52
17, 19895, Note_on_c, 13, 60, 0
17, 19900, Note_on_c, 13, 60, 52
17, 19915, Note_on_c, 13, 60, 0
17, 19920, Note_on_c, 13, 60, 52
17, 20039, Note_on_c, 13, 60, 0
17, 20100, Note_on_c, 13, 48, 52
17, 20115, Note_on_c, 13, 48, 0
17, 20120, Note_on_c, 13, 48, 52
17, 20135, Note_on_c, 13, 48, 0
17, 20140, Note_on_c, 13, 48, 52
17, 20155, Note_on_c, 13, 48, 0
17, 20160, Note_on_c, 13, 51, 60
17, 20279, Note_on_c, 13, 51, 0
17, 20340, Note_on_c, 13, 48, 52
17, 20355, Note_on_c, 13, 48, 0
17, 20360, Note_on_c, 13, 48, 52
17, 20375, Note_on_c, 13, 48, 0
17, 20380, Note_on_c, 13, 48, 52
17, 20395, Note_on_c, 13, 48, 0
17, 20400, Note_on_c, 13, 50, 52
17, 20519, Note_on_c, 13, 50, 0
17, 20820, Note_on_c, 13, 55, 52
17, 20835, Note_on_c, 13, 55, 0
17, 20840, Note_on_c, 13, 55, 52
17, 20855, Note_on_c, 13, 55, 0
17, 20860, Note_on_c, 13, 55, 52
17, 20875, Note_on_c, 13, 55, 0
17, 20880, Note_on_c, 13, 55, 52
17, 20999, Note_on_c, 13, 55, 0
17, 21300, Note_on_c, 13, 55, 52
17, 21315, Note_on_c, 13, 55, 0
17, 21320, Note_on_c, 13, 55, 52
17, 21335, Note_on_c, 13, 55, 0
17, 21340, Note_on_c, 13, 55, 52
17, 21355, Note_on_c, 13, 55, 0
17, 21360, Note_on_c, 13, 55, 52
17, 21479, Note_on_c, 13, 55, 0
17, 21780, Note_on_c, 13, 55, 66
17, 21795, Note_on_c, 13, 55, 0
17, 21800, Note_on_c, 13, 55, 66
17, 21815, Note_on_c, 13, 55, 0
17, 21820, Note_on_c, 13, 55, 67
17, 21835, Note_on_c, 13, 55, 0
17, 21840, Note_on_c, 13, 55, 68
17, 21959, Note_on_c, 13, 55, 0
17, 22020, Note_on_c, 13, 55, 62
17, 22035, Note_on_c, 13, 55, 0
17, 22040, Note_on_c, 13, 55, 62
17, 22055, Note_on_c, 13, 55, 0
17, 22060, Note_on_c, 13, 55, 61
17, 22075, Note_on_c, 13, 55, 0
17, 22080, Note_on_c, 13, 55, 60
17, 22199, Note_on_c, 13, 55, 0
17, 22260, Note_on_c, 13, 55, 54
17, 22275, Note_on_c, 13, 55, 0
17, 22280, Note_on_c, 13, 55, 54
17, 22295, Note_on_c, 13, 55, 0
17, 22300, Note_on_c, 13, 55, 53
17, 22315, Note_on_c, 13, 55, 0
17, 22320, Note_on_c, 13, 55, 52
17, 22439, Note_on_c, 13, 55, 0
17, 24180, Note_on_c, 13, 60, 68
17, 24195, Note_on_c, 13, 60, 0
17, 24200, Note_on_c, 13, 60, 52
17, 24215, Note_on_c, 13, 60, 0
17, 24220, Note_on_c, 13, 60, 52
17, 24235, Note_on_c, 13, 60, 0
17, 24240, Note_on_c, 13, 65, 52
17, 24359, Note_on_c, 13, 65, 0
17, 24660, Note_on_c, 13, 65, 52
17, 24675, Note_on_c, 13, 65, 0
17, 24680, Note_on_c, 13, 65, 52
17, 24695, Note_on_c, 13, 65, 0
17, 24700, Note_on_c, 13, 65, 52
17, 24715, Note_on_c, 13, 65, 0
17, 24720, Note_on_c, 13, 61, 52
17, 24839, Note_on_c, 13, 61, 0
17, 25140, Note_on_c, 13, 61, 52
17, 25155, Note_on_c, 13, 61, 0
17, 25160, Note_on_c, 13, 61, 52
17, 25175, Note_on_c, 13, 61, 0
17, 25180, Note_on_c, 13, 61, 52
17, 25195, Note_on_c, 13, 61, 0
17, 25200, Note_on_c, 13, 62, 52
17, 25319, Note_on_c, 13, 62, 0
17, 25380, Note_on_c, 13, 62, 61
17, 25395, Note_on_c, 13, 62, 0
17, 25400, Note_on_c, 13, 62, 62
17, 25415, Note_on_c, 13, 62, 0
17, 25420, Note_on_c, 13, 62, 63
17, 25435, Note_on_c, 13, 62, 0
17, 25440, Note_on_c, 13, 56, 64
17, 25559, Note_on_c, 13, 56, 0
17, 25620, Note_on_c, 13, 56, 73
17, 25635, Note_on_c, 13, 56, 0
17, 25640, Note_on_c, 13, 56, 74
17, 25655, Note_on_c, 13, 56, 0
17, 25660, Note_on_c, 13, 56, 75
17, 25675, Note_on_c, 13, 56, 0
17, 25680, Note_on_c, 13, 55, 76
17, 25769, Note_on_c, 13, 55, 0
17, 25800, Note_on_c, 13, 53, 76
17, 25889, Note_on_c, 13, 53, 0
17, 26100, Note_on_c, 13, 56, 52
17, 26115, Note_on_c, 13, 56, 0
17, 26120, Note_on_c, 13, 56, 52
17, 26135, Note_on_c, 13, 56, 0
17, 26140, Note_on_c, 13, 56, 52
17, 26155, Note_on_c, 13, 56, 0
17, 26160, Note_on_c, 13, 56, 52
17, 26279, Note_on_c, 13, 56, 0
17, 26340, Note_on_c, 13, 55, 64
17, 26355, Note_on_c, 13, 55, 0
17, 26360, Note_on_c, 13, 55, 65
17, 26375, Note_on_c, 13, 55, 0
17, 26380, Note_on_c, 13, 55, 66
17, 26395, Note_on_c, 13, 55, 0
17, 26400, Note_on_c, 13, 55, 68
17, 26519, Note_on_c, 13, 55, 0
17, 26580, Note_on_c, 13, 55, 56
17, 26595, Note_on_c, 13, 55, 0
17, 26600, Note_on_c, 13, 55, 55
17, 26615, Note_on_c, 13, 55, 0
17, 26620, Note_on_c, 13, 55, 54
17, 26635, Note_on_c, 13, 55, 0
17, 26640, Note_on_c, 13, 55, 52
17, 26759, Note_on_c, 13, 55, 0
17, 26760, Note_on_c, 13, 60, 52
17, 26879, Note_on_c, 13, 60, 0
17, 26880, Note_on_c, 13, 59, 52
17, 26999, Note_on_c, 13, 59, 0
17, 27000, Note_on_c, 13, 62, 52
17, 27111, Note_on_c, 13, 62, 0
17, 27120, Note_on_c, 13, 60, 52
17, 27239, Note_on_c, 13, 60, 0
17, 27240, Note_on_c, 13, 59, 52
17, 27359, Note_on_c, 13, 59, 0
17, 27360, Note_on_c, 13, 55, 52
17, 27471, Note_on_c, 13, 55, 0
17, 27480, Note_on_c, 13, 55, 52
17, 27569, Note_on_c, 13, 55, 0
17, 27600, Note_on_c, 13, 55, 52
17, 27719, Note_on_c, 13, 55, 0
17, 27720, Note_on_c, 13, 59, 52
17, 27839, Note_on_c, 13, 59, 0
17, 27840, Note_on_c, 13, 60, 68
17, 27959, Note_on_c, 13, 60, 0
17, 27960, Note_on_c, 13, 55, 52
17, 28071, Note_on_c, 13, 55, 0
17, 28080, Note_on_c, 13, 55, 52
17, 28409, Note_on_c, 13, 55, 0
17, 29460, Note_on_c, 13, 60, 52
17, 29475, Note_on_c, 13, 60, 0
17, 29480, Note_on_c, 13, 60, 52
17, 29495, Note_on_c, 13, 60, 0
17, 29500, Note_on_c, 13, 60, 52
17, 29515, Note_on_c, 13, 60, 0
17, 29520, Note_on_c, 13, 60, 52
17, 29639, Note_on_c, 13, 60, 0
17, 29700, Note_on_c, 13, 60, 52
17, 29715, Note_on_c, 13, 60, 0
17, 29720, Note_on_c, 13, 60, 52
17, 29735, Note_on_c, 13, 60, 0
17, 29740, Note_on_c, 13, 60, 52
17, 29755, Note_on_c, 13, 60, 0
17, 29760, Note_on_c, 13, 62, 52
17, 29879, Note_on_c, 13, 62, 0
17, 29940, Note_on_c, 13, 62, 52
17, 29955, Note_on_c, 13, 62, 0
17, 29960, Note_on_c, 13, 62, 52
17, 29975, Note_on_c, 13, 62, 0
17, 29980, Note_on_c, 13, 62, 52
17, 29995, Note_on_c, 13, 62, 0
17, 30000, Note_on_c, 13, 60, 52
17, 30119, Note_on_c, 13, 60, 0
17, 30480, Note_on_c, 13, 60, 52
17, 30599, Note_on_c, 13, 60, 0
17, 30660, Note_on_c, 13, 60, 52
17, 30675, Note_on_c, 13, 60, 0
17, 30680, Note_on_c, 13, 60, 52
17, 30695, Note_on_c, 13, 60, 0
17, 30700, Note_on_c, 13, 60, 52
17, 30715, Note_on_c, 13, 60, 0
17, 30720, Note_on_c, 13, 59, 52
17, 30839, Note_on_c, 13, 59, 0
17, 30900, Note_on_c, 13, 55, 52
17, 30915, Note_on_c, 13, 55, 0
17, 30920, Note_on_c, 13, 55, 52
17, 30935, Note_on_c, 13, 55, 0
17, 30940, Note_on_c, 13, 55, 52
17, 30955, Note_on_c, 13, 55, 0
17, 30960, Note_on_c, 13, 60, 52
17, 31071, Note_on_c, 13, 60, 0
17, 31080, Note_on_c, 13, 68, 68
17, 31199, Note_on_c, 13, 68, 0
17, 31200, Note_on_c, 13, 67, 52
17, 31319, Note_on_c, 13, 67, 0
17, 31320, Note_on_c, 13, 63, 68
17, 31439, Note_on_c, 13, 63, 0
17, 31440, Note_on_c, 13, 60, 52
17, 31559, Note_on_c, 13, 60, 0
17, 31560, Note_on_c, 13, 56, 76
17, 31641, Note_on_c, 13, 56, 0
17, 31650, Note_on_c, 13, 53, 76
17, 31675, Note_on_c, 13, 53, 0
17, 31680, Note_on_c, 13, 50, 52
17, 31769, Note_on_c, 13, 50, 0
17, 31800, Note_on_c, 13, 55, 52
17, 31889, Note_on_c, 13, 55, 0
17, 31920, Note_on_c, 13, 48, 52
17, 32009, Note_on_c, 13, 48, 0
17, 32160, Note_on_c, 13, 55, 52
17, 32249, Note_on_c, 13, 55, 0
17, 32400, Note_on_c, 13, 51, 52
17, 32489, Note_on_c, 13, 51, 0
17, 33000, Note_on_c, 13, 55, 52
17, 33089, Note_on_c, 13, 55, 0
17, 33120, Note_on_c, 13, 57, 52
17, 33209, Note_on_c, 13, 57, 0
17, 33240, Note_on_c, 13, 59, 52
17, 33329, Note_on_c, 13, 59, 0
17, 33360, Note_on_c, 13, 60, 52
17, 33951, Note_on_c, 13, 60, 0
17, 33960, Note_on_c, 13, 60, 52
17, 34049, Note_on_c, 13, 60, 0
17, 34080, Note_on_c, 13, 62, 52
17, 34169, Note_on_c, 13, 62, 0
17, 34200, Note_on_c, 13, 64, 52
17, 34289, Note_on_c, 13, 64, 0
17, 34320, Note_on_c, 13, 65, 52
17, 34911, Note_on_c, 13, 65, 0
17, 34920, Note_on_c, 13, 65, 52
17, 35009, Note_on_c, 13, 65, 0
17, 35040, Note_on_c, 13, 62, 52
17, 35129, Note_on_c, 13, 62, 0
17, 35160, Note_on_c, 13, 59, 52
17, 35249, Note_on_c, 13, 59, 0
17, 35272, Control_c, 13, 11, 64
17, 35280, Note_on_c, 13, 56, 84
17, 35369, Note_on_c, 13, 56, 0
17, 35400, Control_c, 13, 11, 64
17, 35400, Note_on_c, 13, 68, 84
17, 35435, Control_c, 13, 11, 67
17, 35470, Control_c, 13, 11, 69
17, 35489, Note_on_c, 13, 68, 0
17, 35505, Control_c, 13, 11, 72
17, 35520, Note_on_c, 13, 71, 84
17, 35540, Control_c, 13, 11, 75
17, 35575, Control_c, 13, 11, 77
17, 35609, Note_on_c, 13, 71, 0
17, 35610, Control_c, 13, 11, 80
17, 35640, Note_on_c, 13, 64, 84
17, 35645, Control_c, 13, 11, 82
17, 35680, Control_c, 13, 11, 85
17, 35715, Control_c, 13, 11, 88
17, 35729, Note_on_c, 13, 64, 0
17, 35750, Control_c, 13, 11, 90
17, 35760, Note_on_c, 13, 72, 84
17, 35785, Control_c, 13, 11, 93
17, 35820, Control_c, 13, 11, 96
17, 35855, Control_c, 13, 11, 98
17, 35871, Note_on_c, 13, 72, 0
17, 35880, Note_on_c, 13, 52, 84
17, 35890, Control_c, 13, 11, 101
17, 35919, Note_on_c, 13, 52, 0
17, 35920, Note_on_c, 13, 57, 84
17, 35925, Control_c, 13, 11, 103
17, 35955, Note_on_c, 13, 57, 0
17, 35960, Note_on_c, 13, 60, 84
17, 35960, Control_c, 13, 11, 106
17, 35989, Note_on_c, 13, 60, 0
17, 35995, Control_c, 13, 11, 109
17, 36000, Note_on_c, 13, 50, 84
17, 36030, Control_c, 13, 11, 111
17, 36039, Note_on_c, 13, 50, 0
17, 36040, Note_on_c, 13, 55, 84
17, 36065, Control_c, 13, 11, 114
17, 36075, Note_on_c, 13, 55, 0
17, 36080, Note_on_c, 13, 59, 84
17, 36100, Control_c, 13, 11, 117
17, 36109, Note_on_c, 13, 59, 0
17, 36120, Note_on_c, 13, 50, 84
17, 36135, Control_c, 13, 11, 119
17, 36159, Note_on_c, 13, 50, 0
17, 36160, Note_on_c, 13, 57, 84
17, 36170, Control_c, 13, 11, 122
17, 36195, Note_on_c, 13, 57, 0
17, 36200, Note_on_c, 13, 60, 84
17, 36205, Control_c, 13, 11, 127
17, 36229, Note_on_c, 13, 60, 0
17, 36240, Note_on_c, 13, 55, 84
17, 36259, Note_on_c, 13, 55, 0
17, 36260, Note_on_c, 13, 62, 84
17, 36279, Note_on_c, 13, 62, 0
17, 36280, Note_on_c, 13, 62, 84
17, 36299, Note_on_c, 13, 62, 0
17, 36300, Note_on_c, 13, 62, 84
17, 36319, Note_on_c, 13, 62, 0
17, 36320, Note_on_c, 13, 62, 84
17, 36339, Note_on_c, 13, 62, 0
17, 36340, Note_on_c, 13, 62, 84
17, 36359, Note_on_c, 13, 62, 0
17, 36360, Note_on_c, 13, 62, 84
17, 36379, Note_on_c, 13, 62, 0
17, 36380, Note_on_c, 13, 62, 84
17, 36399, Note_on_c, 13, 62, 0
17, 36400, Note_on_c, 13, 62, 84
17, 36419, Note_on_c, 13, 62, 0
17, 36420, Note_on_c, 13, 62, 84
17, 36439, Note_on_c, 13, 62, 0
17, 36440, Note_on_c, 13, 62, 84
17, 36459, Note_on_c, 13, 62, 0
17, 36460, Note_on_c, 13, 62, 84
17, 36479, Note_on_c, 13, 62, 0
17, 36480, Note_on_c, 13, 62, 84
17, 36569, Note_on_c, 13, 62, 0
17, 36720, Note_on_c, 13, 55, 84
17, 36739, Note_on_c, 13, 55, 0
17, 36740, Note_on_c, 13, 62, 84
17, 36759, Note_on_c, 13, 62, 0
17, 36760, Note_on_c, 13, 62, 84
17, 36779, Note_on_c, 13, 62, 0
17, 36780, Note_on_c, 13, 62, 84
17, 36799, Note_on_c, 13, 62, 0
17, 36800, Note_on_c, 13, 62, 84
17, 36819, Note_on_c, 13, 62, 0
17, 36820, Note_on_c, 13, 62, 84
17, 36839, Note_on_c, 13, 62, 0
17, 36840, Note_on_c, 13, 62, 84
17, 36859, Note_on_c, 13, 62, 0
17, 36860, Note_on_c, 13, 62, 84
17, 36879, Note_on_c, 13, 62, 0
17, 36880, Note_on_c, 13, 62, 84
17, 36899, Note_on_c, 13, 62, 0
17, 36900, Note_on_c, 13, 62, 84
17, 36919, Note_on_c, 13, 62, 0
17, 36920, Note_on_c, 13, 62, 84
17, 36939, Note_on_c, 13, 62, 0
17, 36940, Note_on_c, 13, 62, 84
17, 36959, Note_on_c, 13, 62, 0
17, 36960, Note_on_c, 13, 62, 84
17, 37049, Note_on_c, 13, 62, 0
17, 37200, Note_on_c, 13, 55, 84
17, 37200, Note_on_c, 13, 67, 84
17, 37289, Note_on_c, 13, 55, 0
17, 37289, Note_on_c, 13, 67, 0
17, 37320, Note_on_c, 13, 59, 92
17, 37409, Note_on_c, 13, 59, 0
17, 37440, Note_on_c, 13, 55, 84
17, 37440, Note_on_c, 13, 67, 84
17, 37529, Note_on_c, 13, 55, 0
17, 37529, Note_on_c, 13, 67, 0
17, 37560, Note_on_c, 13, 59, 92
17, 37649, Note_on_c, 13, 59, 0
17, 37680, Note_on_c, 13, 55, 84
17, 37680, Note_on_c, 13, 67, 84
17, 37769, Note_on_c, 13, 55, 0
17, 37769, Note_on_c, 13, 67, 0
17, 38160, Note_on_c, 13, 52, 52
17, 38199, Note_on_c, 13, 52, 0
17, 38200, Note_on_c, 13, 55, 52
17, 38235, Note_on_c, 13, 55, 0
17, 38240, Note_on_c, 13, 60, 52
17, 38269, Note_on_c, 13, 60, 0
17, 38280, Note_on_c, 13, 52, 52
17, 38319, Note_on_c, 13, 52, 0
17, 38320, Note_on_c, 13, 55, 52
17, 38355, Note_on_c, 13, 55, 0
17, 38360, Note_on_c, 13, 60, 52
17, 38389, Note_on_c, 13, 60, 0
17, 38400, Note_on_c, 13, 52, 52
17, 38439, Note_on_c, 13, 52, 0
17, 38440, Note_on_c, 13, 55, 52
17, 38475, Note_on_c, 13, 55, 0
17, 38480, Note_on_c, 13, 60, 52
17, 38509, Note_on_c, 13, 60, 0
17, 38520, Note_on_c, 13, 52, 52
17, 38559, Note_on_c, 13, 52, 0
17, 38560, Note_on_c, 13, 55, 52
17, 38595, Note_on_c, 13, 55, 0
17, 38600, Note_on_c, 13, 60, 52
17, 38629, Note_on_c, 13, 60, 0
17, 38640, Note_on_c, 13, 52, 52
17, 38679, Note_on_c, 13, 52, 0
17, 38680, Note_on_c, 13, 55, 52
17, 38715, Note_on_c, 13, 55, 0
17, 38720, Note_on_c, 13, 60, 52
17, 38749, Note_on_c, 13, 60, 0
17, 38760, Note_on_c, 13, 52, 52
17, 38799, Note_on_c, 13, 52, 0
17, 38800, Note_on_c, 13, 55, 52
17, 38835, Note_on_c, 13, 55, 0
17, 38840, Note_on_c, 13, 60, 52
17, 38869, Note_on_c, 13, 60, 0
17, 38880, Note_on_c, 13, 52, 52
17, 38919, Note_on_c, 13, 52, 0
17, 38920, Note_on_c, 13, 55, 52
17, 38955, Note_on_c, 13, 55, 0
17, 38960, Note_on_c, 13, 60, 52
17, 38989, Note_on_c, 13, 60, 0
17, 39000, Note_on_c, 13, 55, 52
17, 39039, Note_on_c, 13, 55, 0
17, 39040, Note_on_c, 13, 58, 52
17, 39075, Note_on_c, 13, 58, 0
17, 39080, Note_on_c, 13, 60, 52
17, 39109, Note_on_c, 13, 60, 0
17, 39120, Note_on_c, 13, 57, 52
17, 39159, Note_on_c, 13, 57, 0
17, 39160, Note_on_c, 13, 60, 52
17, 39195, Note_on_c, 13, 60, 0
17, 39200, Note_on_c, 13, 57, 53
17, 39229, Note_on_c, 13, 57, 0
17, 39240, Note_on_c, 13, 53, 54
17, 39279, Note_on_c, 13, 53, 0
17, 39280, Note_on_c, 13, 57, 54
17, 39315, Note_on_c, 13, 57, 0
17, 39320, Note_on_c, 13, 60, 55
17, 39349, Note_on_c, 13, 60, 0
17, 39360, Note_on_c, 13, 52, 56
17, 39399, Note_on_c, 13, 52, 0
17, 39400, Note_on_c, 13, 55, 56
17, 39435, Note_on_c, 13, 55, 0
17, 39440, Note_on_c, 13, 60, 57
17, 39469, Note_on_c, 13, 60, 0
17, 39480, Note_on_c, 13, 55, 58
17, 39519, Note_on_c, 13, 55, 0
17, 39520, Note_on_c, 13, 58, 58
17, 39555, Note_on_c, 13, 58, 0
17, 39560, Note_on_c, 13, 60, 59
17, 39589, Note_on_c, 13, 60, 0
17, 39600, Note_on_c, 13, 53, 60
17, 39639, Note_on_c, 13, 53, 0
17, 39640, Note_on_c, 13, 57, 60
17, 39675, Note_on_c, 13, 57, 0
17, 39680, Note_on_c, 13, 60, 61
17, 39709, Note_on_c, 13, 60, 0
17, 39720, Note_on_c, 13, 53, 62
17, 39759, Note_on_c, 13, 53, 0
17, 39760, Note_on_c, 13, 57, 62
17, 39795, Note_on_c, 13, 57, 0
17, 39800, Note_on_c, 13, 60, 63
17, 39829, Note_on_c, 13, 60, 0
17, 39840, Note_on_c, 13, 52, 64
17, 39879, Note_on_c, 13, 52, 0
17, 39880, Note_on_c, 13, 55, 64
17, 39915, Note_on_c, 13, 55, 0
17, 39920, Note_on_c, 13, 60, 65
17, 39949, Note_on_c, 13, 60, 0
17, 39960, Note_on_c, 13, 55, 66
17, 39999, Note_on_c, 13, 55, 0
17, 40000, Note_on_c, 13, 58, 66
17, 40035, Note_on_c, 13, 58, 0
17, 40040, Note_on_c, 13, 60, 67
17, 40069, Note_on_c, 13, 60, 0
17, 40080, Note_on_c, 13, 57, 52
17, 40115, Note_on_c, 13, 57, 0
17, 40120, Note_on_c, 13, 57, 52
17, 40155, Note_on_c, 13, 57, 0
17, 40160, Note_on_c, 13, 57, 52
17, 40199, Note_on_c, 13, 57, 0
17, 40240, Note_on_c, 13, 57, 52
17, 40275, Note_on_c, 13, 57, 0
17, 40280, Note_on_c, 13, 57, 52
17, 40319, Note_on_c, 13, 57, 0
17, 40360, Note_on_c, 13, 57, 52
17, 40395, Note_on_c, 13, 57, 0
17, 40400, Note_on_c, 13, 57, 52
17, 40439, Note_on_c, 13, 57, 0
17, 40480, Note_on_c, 13, 55, 52
17, 40515, Note_on_c, 13, 55, 0
17, 40520, Note_on_c, 13, 55, 52
17, 40559, Note_on_c, 13, 55, 0
17, 40600, Note_on_c, 13, 57, 52
17, 40635, Note_on_c, 13, 57, 0
17, 40640, Note_on_c, 13, 57, 52
17, 40679, Note_on_c, 13, 57, 0
17, 40680, Note_on_c, 13, 55, 52
17, 40715, Note_on_c, 13, 55, 0
17, 40740, Note_on_c, 13, 55, 52
17, 40779, Note_on_c, 13, 55, 0
17, 40840, Note_on_c, 13, 57, 52
17, 40875, Note_on_c, 13, 57, 0
17, 40880, Note_on_c, 13, 57, 52
17, 40919, Note_on_c, 13, 57, 0
17, 40960, Note_on_c, 13, 57, 52
17, 40995, Note_on_c, 13, 57, 0
17, 41000, Note_on_c, 13, 57, 52
17, 41035, Note_on_c, 13, 57, 0
17, 41040, Note_on_c, 13, 50, 52
17, 41079, Note_on_c, 13, 50, 0
17, 41080, Note_on_c, 13, 55, 52
17, 41115, Note_on_c, 13, 55, 0
17, 41120, Note_on_c, 13, 59, 52
17, 41149, Note_on_c, 13, 59, 0
17, 41160, Note_on_c, 13, 50, 52
17, 41199, Note_on_c, 13, 50, 0
17, 41200, Note_on_c, 13, 55, 52
17, 41235, Note_on_c, 13, 55, 0
17, 41240, Note_on_c, 13, 59, 52
17, 41269, Note_on_c, 13, 59, 0
17, 41280, Note_on_c, 13, 52, 52
17, 41319, Note_on_c, 13, 52, 0
17, 41320, Note_on_c, 13, 55, 52
17, 41355, Note_on_c, 13, 55, 0
17, 41360, Note_on_c, 13, 60, 52
17, 41389, Note_on_c, 13, 60, 0
17, 41400, Note_on_c, 13, 52, 52
17, 41439, Note_on_c, 13, 52, 0
17, 41440, Note_on_c, 13, 55, 52
17, 41475, Note_on_c, 13, 55, 0
17, 41480, Note_on_c, 13, 60, 52
17, 41509, Note_on_c, 13, 60, 0
17, 41520, Note_on_c, 13, 50, 52
17, 41559, Note_on_c, 13, 50, 0
17, 41560, Note_on_c, 13, 55, 52
17, 41595, Note_on_c, 13, 55, 0
17, 41600, Note_on_c, 13, 59, 52
17, 41629, Note_on_c, 13, 59, 0
17, 41640, Note_on_c, 13, 50, 52
17, 41679, Note_on_c, 13, 50, 0
17, 41680, Note_on_c, 13, 55, 52
17, 41715, Note_on_c, 13, 55, 0
17, 41720, Note_on_c, 13, 59, 52
17, 41749, Note_on_c, 13, 59, 0
17, 41760, Note_on_c, 13, 52, 52
17, 41799, Note_on_c, 13, 52, 0
17, 41800, Note_on_c, 13, 55, 52
17, 41835, Note_on_c, 13, 55, 0
17, 41840, Note_on_c, 13, 60, 52
17, 41869, Note_on_c, 13, 60, 0
17, 41880, Note_on_c, 13, 52, 52
17, 41919, Note_on_c, 13, 52, 0
17, 41920, Note_on_c, 13, 55, 52
17, 41955, Note_on_c, 13, 55, 0
17, 41960, Note_on_c, 13, 60, 52
17, 41989, Note_on_c, 13, 60, 0
17, 42000, Note_on_c, 13, 50, 52
17, 42000, Note_on_c, 13, 59, 52
17, 42119, Note_on_c, 13, 50, 0
17, 42119, Note_on_c, 13, 59, 0
17, 42360, Note_on_c, 13, 67, 52
17, 42389, Note_on_c, 13, 67, 0
17, 42400, Note_on_c, 13, 66, 52
17, 42429, Note_on_c, 13, 66, 0
17, 42440, Note_on_c, 13, 67, 52
17, 42469, Note_on_c, 13, 67, 0
17, 42480, Note_on_c, 13, 65, 52
17, 42509, Note_on_c, 13, 65, 0
17, 42520, Note_on_c, 13, 64, 52
17, 42549, Note_on_c, 13, 64, 0
17, 42560, Note_on_c, 13, 65, 52
17, 42589, Note_on_c, 13, 65, 0
17, 42600, Note_on_c, 13, 62, 52
17, 42629, Note_on_c, 13, 62, 0
17, 42640, Note_on_c, 13, 61, 52
17, 42669, Note_on_c, 13, 61, 0
17, 42680, Note_on_c, 13, 62, 52
17, 42709, Note_on_c, 13, 62, 0
17, 42720, Note_on_c, 13, 59, 52
17, 42749, Note_on_c, 13, 59, 0
17, 42760, Note_on_c, 13, 58, 52
17, 42789, Note_on_c, 13, 58, 0
17, 42800, Note_on_c, 13, 59, 52
17, 42829, Note_on_c, 13, 59, 0
17, 42840, Note_on_c, 13, 53, 52
17, 42869, Note_on_c, 13, 53, 0
17, 42880, Note_on_c, 13, 52, 52
17, 42909, Note_on_c, 13, 52, 0
17, 42920, Note_on_c, 13, 53, 52
17, 42949, Note_on_c, 13, 53, 0
17, 42960, Note_on_c, 13, 52, 52
17, 42999, Note_on_c, 13, 52, 0
17, 43000, Note_on_c, 13, 55, 52
17, 43035, Note_on_c, 13, 55, 0
17, 43040, Note_on_c, 13, 60, 52
17, 43069, Note_on_c, 13, 60, 0
17, 43080, Note_on_c, 13, 52, 52
17, 43119, Note_on_c, 13, 52, 0
17, 43120, Note_on_c, 13, 55, 52
17, 43155, Note_on_c, 13, 55, 0
17, 43160, Note_on_c, 13, 60, 52
17, 43189, Note_on_c, 13, 60, 0
17, 43200, Note_on_c, 13, 52, 52
17, 43239, Note_on_c, 13, 52, 0
17, 43240, Note_on_c, 13, 55, 52
17, 43275, Note_on_c, 13, 55, 0
17, 43280, Note_on_c, 13, 60, 52
17, 43309, Note_on_c, 13, 60, 0
17, 43320, Note_on_c, 13, 52, 52
17, 43359, Note_on_c, 13, 52, 0
17, 43360, Note_on_c, 13, 55, 52
17, 43395, Note_on_c, 13, 55, 0
17, 43400, Note_on_c, 13, 60, 52
17, 43429, Note_on_c, 13, 60, 0
17, 43440, Note_on_c, 13, 52, 52
17, 43479, Note_on_c, 13, 52, 0
17, 43480, Note_on_c, 13, 55, 52
17, 43515, Note_on_c, 13, 55, 0
17, 43520, Note_on_c, 13, 60, 52
17, 43549, Note_on_c, 13, 60, 0
17, 43560, Note_on_c, 13, 52, 52
17, 43599, Note_on_c, 13, 52, 0
17, 43600, Note_on_c, 13, 55, 52
17, 43635, Note_on_c, 13, 55, 0
17, 43640, Note_on_c, 13, 60, 52
17, 43669, Note_on_c, 13, 60, 0
17, 43680, Note_on_c, 13, 52, 52
17, 43719, Note_on_c, 13, 52, 0
17, 43720, Note_on_c, 13, 55, 52
17, 43755, Note_on_c, 13, 55, 0
17, 43760, Note_on_c, 13, 60, 52
17, 43789, Note_on_c, 13, 60, 0
17, 43800, Note_on_c, 13, 52, 52
17, 43839, Note_on_c, 13, 52, 0
17, 43840, Note_on_c, 13, 55, 52
17, 43875, Note_on_c, 13, 55, 0
17, 43880, Note_on_c, 13, 60, 52
17, 43909, Note_on_c, 13, 60, 0
17, 43920, Note_on_c, 13, 48, 52
17, 43959, Note_on_c, 13, 48, 0
17, 43960, Note_on_c, 13, 53, 52
17, 43995, Note_on_c, 13, 53, 0
17, 44000, Note_on_c, 13, 57, 53
17, 44029, Note_on_c, 13, 57, 0
17, 44040, Note_on_c, 13, 48, 53
17, 44079, Note_on_c, 13, 48, 0
17, 44080, Note_on_c, 13, 53, 54
17, 44115, Note_on_c, 13, 53, 0
17, 44120, Note_on_c, 13, 57, 54
17, 44149, Note_on_c, 13, 57, 0
17, 44160, Note_on_c, 13, 48, 55
17, 44199, Note_on_c, 13, 48, 0
17, 44200, Note_on_c, 13, 53, 55
17, 44235, Note_on_c, 13, 53, 0
17, 44240, Note_on_c, 13, 57, 56
17, 44269, Note_on_c, 13, 57, 0
17, 44280, Note_on_c, 13, 48, 56
17, 44319, Note_on_c, 13, 48, 0
17, 44320, Note_on_c, 13, 53, 57
17, 44355, Note_on_c, 13, 53, 0
17, 44360, Note_on_c, 13, 57, 57
17, 44389, Note_on_c, 13, 57, 0
17, 44400, Note_on_c, 13, 53, 58
17, 44439, Note_on_c, 13, 53, 0
17, 44440, Note_on_c, 13, 57, 58
17, 44475, Note_on_c, 13, 57, 0
17, 44480, Note_on_c, 13, 60, 59
17, 44509, Note_on_c, 13, 60, 0
17, 44520, Note_on_c, 13, 53, 59
17, 44559, Note_on_c, 13, 53, 0
17, 44560, Note_on_c, 13, 57, 60
17, 44595, Note_on_c, 13, 57, 0
17, 44600, Note_on_c, 13, 60, 60
17, 44629, Note_on_c, 13, 60, 0
17, 44640, Note_on_c, 13, 53, 61
17, 44679, Note_on_c, 13, 53, 0
17, 44680, Note_on_c, 13, 57, 61
17, 44715, Note_on_c, 13, 57, 0
17, 44720, Note_on_c, 13, 60, 62
17, 44749, Note_on_c, 13, 60, 0
17, 44760, Note_on_c, 13, 53, 62
17, 44799, Note_on_c, 13, 53, 0
17, 44800, Note_on_c, 13, 57, 63
17, 44835, Note_on_c, 13, 57, 0
17, 44840, Note_on_c, 13, 60, 63
17, 44869, Note_on_c, 13, 60, 0
17, 44880, Note_on_c, 13, 52, 64
17, 44919, Note_on_c, 13, 52, 0
17, 44920, Note_on_c, 13, 55, 64
17, 44955, Note_on_c, 13, 55, 0
17, 44960, Note_on_c, 13, 60, 65
17, 44989, Note_on_c, 13, 60, 0
17, 45000, Note_on_c, 13, 52, 65
17, 45039, Note_on_c, 13, 52, 0
17, 45040, Note_on_c, 13, 55, 66
17, 45075, Note_on_c, 13, 55, 0
17, 45080, Note_on_c, 13, 60, 66
17, 45109, Note_on_c, 13, 60, 0
17, 45120, Note_on_c, 13, 50, 67
17, 45159, Note_on_c, 13, 50, 0
17, 45160, Note_on_c, 13, 55, 67
17, 45195, Note_on_c, 13, 55, 0
17, 45200, Note_on_c, 13, 59, 68
17, 45229, Note_on_c, 13, 59, 0
17, 45240, Note_on_c, 13, 50, 68
17, 45279, Note_on_c, 13, 50, 0
17, 45280, Note_on_c, 13, 55, 69
17, 45315, Note_on_c, 13, 55, 0
17, 45320, Note_on_c, 13, 59, 69
17, 45349, Note_on_c, 13, 59, 0
17, 45360, Note_on_c, 13, 55, 70
17, 45399, Note_on_c, 13, 55, 0
17, 45400, Note_on_c, 13, 60, 70
17, 45435, Note_on_c, 13, 60, 0
17, 45440, Note_on_c, 13, 64, 71
17, 45469, Note_on_c, 13, 64, 0
17, 45480, Note_on_c, 13, 55, 71
17, 45519, Note_on_c, 13, 55, 0
17, 45520, Note_on_c, 13, 60, 72
17, 45555, Note_on_c, 13, 60, 0
17, 45560, Note_on_c, 13, 64, 72
17, 45589, Note_on_c, 13, 64, 0
17, 45600, Note_on_c, 13, 50, 73
17, 45639, Note_on_c, 13, 50, 0
17, 45640, Note_on_c, 13, 57, 73
17, 45675, Note_on_c, 13, 57, 0
17, 45680, Note_on_c, 13, 60, 74
17, 45709, Note_on_c, 13, 60, 0
17, 45720, Note_on_c, 13, 50, 74
17, 45759, Note_on_c, 13, 50, 0
17, 45760, Note_on_c, 13, 57, 75
17, 45795, Note_on_c, 13, 57, 0
17, 45800, Note_on_c, 13, 60, 75
17, 45829, Note_on_c, 13, 60, 0
17, 45840, Note_on_c, 13, 52, 76
17, 45840, Note_on_c, 13, 60, 76
17, 45875, Note_on_c, 13, 52, 0
17, 45875, Note_on_c, 13, 60, 0
17, 45880, Note_on_c, 13, 64, 76
17, 45880, Note_on_c, 13, 55, 76
17, 45915, Note_on_c, 13, 64, 0
17, 45915, Note_on_c, 13, 55, 0
17, 45920, Note_on_c, 13, 55, 76
17, 45920, Note_on_c, 13, 64, 76
17, 45955, Note_on_c, 13, 55, 0
17, 45955, Note_on_c, 13, 64, 0
17, 45960, Note_on_c, 13, 55, 77
17, 45960, Note_on_c, 13, 64, 77
17, 45995, Note_on_c, 13, 55, 0
17, 45995, Note_on_c, 13, 64, 0
17, 46000, Note_on_c, 13, 64, 77
17, 46000, Note_on_c, 13, 55, 77
17, 46035, Note_on_c, 13, 64, 0
17, 46035, Note_on_c, 13, 55, 0
17, 46040, Note_on_c, 13, 64, 77
17, 46040, Note_on_c, 13, 55, 77
17, 46075, Note_on_c, 13, 64, 0
17, 46075, Note_on_c, 13, 55, 0
17, 46080, Note_on_c, 13, 64, 78
17, 46080, Note_on_c, 13, 55, 78
17, 46115, Note_on_c, 13, 64, 0
17, 46115, Note_on_c, 13, 55, 0
17, 46120, Note_on_c, 13, 55, 78
17, 46120, Note_on_c, 13, 64, 78
17, 46155, Note_on_c, 13, 55, 0
17, 46155, Note_on_c, 13, 64, 0
17, 46160, Note_on_c, 13, 64, 78
17, 46160, Note_on_c, 13, 55, 78
17, 46195, Note_on_c, 13, 64, 0
17, 46195, Note_on_c, 13, 55, 0
17, 46200, Note_on_c, 13, 55, 79
17, 46200, Note_on_c, 13, 64, 79
17, 46235, Note_on_c, 13, 55, 0
17, 46235, Note_on_c, 13, 64, 0
17, 46240, Note_on_c, 13, 64, 79
17, 46240, Note_on_c, 13, 55, 79
17, 46275, Note_on_c, 13, 64, 0
17, 46275, Note_on_c, 13, 55, 0
17, 46280, Note_on_c, 13, 64, 79
17, 46280, Note_on_c, 13, 55, 79
17, 46315, Note_on_c, 13, 64, 0
17, 46315, Note_on_c, 13, 55, 0
17, 46320, Note_on_c, 13, 55, 80
17, 46320, Note_on_c, 13, 65, 80
17, 46355, Note_on_c, 13, 55, 0
17, 46355, Note_on_c, 13, 65, 0
17, 46360, Note_on_c, 13, 65, 80
17, 46360, Note_on_c, 13, 55, 80
17, 46395, Note_on_c, 13, 65, 0
17, 46395, Note_on_c, 13, 55, 0
17, 46400, Note_on_c, 13, 65, 80
17, 46400, Note_on_c, 13, 55, 80
17, 46435, Note_on_c, 13, 65, 0
17, 46435, Note_on_c, 13, 55, 0
17, 46440, Note_on_c, 13, 65, 81
17, 46440, Note_on_c, 13, 55, 81
17, 46475, Note_on_c, 13, 65, 0
17, 46475, Note_on_c, 13, 55, 0
17, 46480, Note_on_c, 13, 55, 81
17, 46480, Note_on_c, 13, 65, 81
17, 46515, Note_on_c, 13, 55, 0
17, 46515, Note_on_c, 13, 65, 0
17, 46520, Note_on_c, 13, 55, 81
17, 46520, Note_on_c, 13, 65, 81
17, 46555, Note_on_c, 13, 55, 0
17, 46555, Note_on_c, 13, 65, 0
17, 46560, Note_on_c, 13, 55, 82
17, 46560, Note_on_c, 13, 65, 82
17, 46595, Note_on_c, 13, 55, 0
17, 46595, Note_on_c, 13, 65, 0
17, 46600, Note_on_c, 13, 65, 82
17, 46600, Note_on_c, 13, 55, 82
17, 46635, Note_on_c, 13, 65, 0
17, 46635, Note_on_c, 13, 55, 0
17, 46640, Note_on_c, 13, 55, 82
17, 46640, Note_on_c, 13, 65, 82
17, 46675, Note_on_c, 13, 55, 0
17, 46675, Note_on_c, 13, 65, 0
17, 46680, Note_on_c, 13, 65, 83
17, 46680, Note_on_c, 13, 55, 83
17, 46715, Note_on_c, 13, 65, 0
17, 46715, Note_on_c, 13, 55, 0
17, 46720, Note_on_c, 13, 65, 83
17, 46720, Note_on_c, 13, 55, 83
17, 46755, Note_on_c, 13, 65, 0
17, 46755, Note_on_c, 13, 55, 0
17, 46760, Note_on_c, 13, 65, 83
17, 46760, Note_on_c, 13, 55, 83
17, 46795, Note_on_c, 13, 65, 0
17, 46795, Note_on_c, 13, 55, 0
17, 46800, Note_on_c, 13, 64, 84
17, 46800, Note_on_c, 13, 55, 84
17, 46819, Note_on_c, 13, 64, 0
17, 46819, Note_on_c, 13, 55, 0
17, 46820, Note_on_c, 13, 55, 84
17, 46820, Note_on_c, 13, 64, 84
17, 46839, Note_on_c, 13, 55, 0
17, 46839, Note_on_c, 13, 64, 0
17, 46840, Note_on_c, 13, 64, 84
17, 46840, Note_on_c, 13, 55, 84
17, 46859, Note_on_c, 13, 64, 0
17, 46859, Note_on_c, 13, 55, 0
17, 46860, Note_on_c, 13, 64, 84
17, 46860, Note_on_c, 13, 55, 84
17, 46879, Note_on_c, 13, 64, 0
17, 46879, Note_on_c, 13, 55, 0
17, 46880, Note_on_c, 13, 64, 84
17, 46880, Note_on_c, 13, 55, 84
17, 46899, Note_on_c, 13, 64, 0
17, 46899, Note_on_c, 13, 55, 0
17, 46900, Note_on_c, 13, 55, 84
17, 46900, Note_on_c, 13, 64, 84
17, 46919, Note_on_c, 13, 55, 0
17, 46919, Note_on_c, 13, 64, 0
17, 46920, Note_on_c, 13, 55, 84
17, 46920, Note_on_c, 13, 64, 84
17, 46939, Note_on_c, 13, 55, 0
17, 46939, Note_on_c, 13, 64, 0
17, 46940, Note_on_c, 13, 55, 84
17, 46940, Note_on_c, 13, 64, 84
17, 46959, Note_on_c, 13, 55, 0
17, 46959, Note_on_c, 13, 64, 0
17, 46960, Note_on_c, 13, 64, 84
17, 46960, Note_on_c, 13, 55, 84
17, 46979, Note_on_c, 13, 64, 0
17, 46979, Note_on_c, 13, 55, 0
17, 46980, Note_on_c, 13, 55, 84
17, 46980, Note_on_c, 13, 64, 84
17, 46999, Note_on_c, 13, 55, 0
17, 46999, Note_on_c, 13, 64, 0
17, 47000, Note_on_c, 13, 64, 84
17, 47000, Note_on_c, 13, 55, 84
17, 47019, Note_on_c, 13, 64, 0
17, 47019, Note_on_c, 13, 55, 0
17, 47020, Note_on_c, 13, 64, 84
17, 47020, Note_on_c, 13, 55, 84
17, 47039, Note_on_c, 13, 64, 0
17, 47039, Note_on_c, 13, 55, 0
17, 47040, Note_on_c, 13, 64, 84
17, 47040, Note_on_c, 13, 55, 84
17, 47129, Note_on_c, 13, 64, 0
17, 47129, Note_on_c, 13, 55, 0
17, 47160, Note_on_c, 13, 52, 92
17, 47160, Note_on_c, 13, 55, 92
17, 47249, Note_on_c, 13, 52, 0
17, 47249, Note_on_c, 13, 55, 0
17, 47280, Note_on_c, 13, 64, 84
17, 47280, Note_on_c, 13, 55, 84
17, 47299, Note_on_c, 13, 64, 0
17, 47299, Note_on_c, 13, 55, 0
17, 47300, Note_on_c, 13, 55, 84
17, 47300, Note_on_c, 13, 64, 84
17, 47319, Note_on_c, 13, 55, 0
17, 47319, Note_on_c, 13, 64, 0
17, 47320, Note_on_c, 13, 55, 84
17, 47320, Note_on_c, 13, 64, 84
17, 47339, Note_on_c, 13, 55, 0
17, 47339, Note_on_c, 13, 64, 0
17, 47340, Note_on_c, 13, 55, 84
17, 47340, Note_on_c, 13, 64, 84
17, 47359, Note_on_c, 13, 55, 0
17, 47359, Note_on_c, 13, 64, 0
17, 47360, Note_on_c, 13, 64, 84
17, 47360, Note_on_c, 13, 55, 84
17, 47379, Note_on_c, 13, 64, 0
17, 47379, Note_on_c, 13, 55, 0
17, 47380, Note_on_c, 13, 55, 84
17, 47380, Note_on_c, 13, 64, 84
17, 47399, Note_on_c, 13, 55, 0
17, 47399, Note_on_c, 13, 64, 0
17, 47400, Note_on_c, 13, 55, 84
17, 47400, Note_on_c, 13, 64, 84
17, 47419, Note_on_c, 13, 55, 0
17, 47419, Note_on_c, 13, 64, 0
17, 47420, Note_on_c, 13, 55, 84
17, 47420, Note_on_c, 13, 64, 84
17, 47439, Note_on_c, 13, 55, 0
17, 47439, Note_on_c, 13, 64, 0
17, 47440, Note_on_c, 13, 55, 84
17, 47440, Note_on_c, 13, 64, 84
17, 47459, Note_on_c, 13, 55, 0
17, 47459, Note_on_c, 13, 64, 0
17, 47460, Note_on_c, 13, 55, 84
17, 47460, Note_on_c, 13, 64, 84
17, 47479, Note_on_c, 13, 55, 0
17, 47479, Note_on_c, 13, 64, 0
17, 47480, Note_on_c, 13, 55, 84
17, 47480, Note_on_c, 13, 64, 84
17, 47499, Note_on_c, 13, 55, 0
17, 47499, Note_on_c, 13, 64, 0
17, 47500, Note_on_c, 13, 55, 84
17, 47500, Note_on_c, 13, 64, 84
17, 47519, Note_on_c, 13, 55, 0
17, 47519, Note_on_c, 13, 64, 0
17, 47520, Note_on_c, 13, 64, 84
17, 47520, Note_on_c, 13, 55, 84
17, 47609, Note_on_c, 13, 64, 0
17, 47609, Note_on_c, 13, 55, 0
17, 47640, Note_on_c, 13, 52, 92
17, 47640, Note_on_c, 13, 55, 92
17, 47729, Note_on_c, 13, 52, 0
17, 47729, Note_on_c, 13, 55, 0
17, 47760, Note_on_c, 13, 72, 84
17, 47760, Note_on_c, 13, 64, 84
17, 47760, Note_on_c, 13, 55, 84
17, 47849, Note_on_c, 13, 72, 0
17, 47849, Note_on_c, 13, 64, 0
17, 47849, Note_on_c, 13, 55, 0
17, 47880, Note_on_c, 13, 52, 92
17, 47880, Note_on_c, 13, 55, 92
17, 47969, Note_on_c, 13, 52, 0
17, 47969, Note_on_c, 13, 55, 0
17, 48000, Note_on_c, 13, 72, 84
17, 48000, Note_on_c, 13, 55, 84
17, 48000, Note_on_c, 13, 64, 84
17, 48089, Note_on_c, 13, 72, 0
17, 48089, Note_on_c, 13, 55, 0
17, 48089, Note_on_c, 13, 64, 0
17, 48120, Note_on_c, 13, 52, 92
17, 48120, Note_on_c, 13, 55, 92
17, 48209, Note_on_c, 13, 52, 0
17, 48209, Note_on_c, 13, 55, 0
17, 48240, Note_on_c, 13, 60, 76
17, 48269, Note_on_c, 13, 60, 0
17, 48270, Note_on_c, 13, 60, 52
17, 48719, Note_on_c, 13, 60, 0
17, 48720, Note_on_c, 13, 56, 52
17, 49079, Note_on_c, 13, 56, 0
17, 49080, Note_on_c, 13, 53, 52
17, 49184, Note_on_c, 13, 53, 0
17, 49192, Control_c, 13, 11, 96
17, 49200, Note_on_c, 13, 49, 68
17, 49319, Note_on_c, 13, 49, 0
17, 49320, Note_on_c, 13, 56, 68
17, 49320, Control_c, 13, 11, 96
17, 49340, Control_c, 13, 11, 98
17, 49360, Control_c, 13, 11, 99
17, 49380, Control_c, 13, 11, 101
17, 49400, Control_c, 13, 11, 103
17, 49409, Note_on_c, 13, 56, 0
17, 49410, Note_on_c, 13, 65, 68
17, 49420, Control_c, 13, 11, 105
17, 49435, Note_on_c, 13, 65, 0
17, 49440, Note_on_c, 13, 61, 68
17, 49440, Control_c, 13, 11, 106
17, 49460, Control_c, 13, 11, 108
17, 49480, Control_c, 13, 11, 110
17, 49500, Control_c, 13, 11, 112
17, 49520, Control_c, 13, 11, 113
17, 49529, Note_on_c, 13, 61, 0
17, 49540, Control_c, 13, 11, 115
17, 49560, Note_on_c, 13, 60, 68
17, 49560, Control_c, 13, 11, 117
17, 49580, Control_c, 13, 11, 118
17, 49600, Control_c, 13, 11, 120
17, 49620, Control_c, 13, 11, 122
17, 49640, Control_c, 13, 11, 124
17, 49649, Note_on_c, 13, 60, 0
17, 49660, Control_c, 13, 11, 127
17, 49680, Note_on_c, 13, 59, 52
17, 49799, Note_on_c, 13, 59, 0
17, 50160, Note_on_c, 13, 51, 52
17, 50399, Note_on_c, 13, 51, 0
17, 50640, Note_on_c, 13, 51, 52
17, 50999, Note_on_c, 13, 51, 0
17, 51120, Note_on_c, 13, 51, 52
17, 51351, Note_on_c, 13, 51, 0
17, 51360, Note_on_c, 13, 51, 52
17, 51599, Note_on_c, 13, 51, 0
17, 51600, Note_on_c, 13, 51, 52
17, 51839, Note_on_c, 13, 51, 0
17, 51840, Note_on_c, 13, 50, 52
17, 51959, Note_on_c, 13, 50, 0
17, 52080, Note_on_c, 13, 53, 52
17, 52319, Note_on_c, 13, 53, 0
17, 52560, Note_on_c, 13, 62, 52
17, 52679, Note_on_c, 13, 62, 0
17, 53040, Note_on_c, 13, 58, 52
17, 53279, Note_on_c, 13, 58, 0
17, 53520, Note_on_c, 13, 58, 68
17, 53580, Control_c, 13, 11, 127
17, 53603, Control_c, 13, 11, 125
17, 53627, Control_c, 13, 11, 124
17, 53650, Control_c, 13, 11, 122
17, 53673, Control_c, 13, 11, 120
17, 53697, Control_c, 13, 11, 118
17, 53720, Control_c, 13, 11, 117
17, 53743, Control_c, 13, 11, 115
17, 53767, Control_c, 13, 11, 113
17, 53790, Control_c, 13, 11, 112
17, 53813, Control_c, 13, 11, 110
17, 53837, Control_c, 13, 11, 108
17, 53860, Control_c, 13, 11, 106
17, 53879, Note_on_c, 13, 58, 0
17, 53880, Note_on_c, 13, 56, 60
17, 53883, Control_c, 13, 11, 105
17, 53907, Control_c, 13, 11, 103
17, 53930, Control_c, 13, 11, 101
17, 53939, Note_on_c, 13, 56, 0
17, 53940, Note_on_c, 13, 55, 60
17, 53953, Control_c, 13, 11, 99
17, 53977, Control_c, 13, 11, 96
17, 53991, Note_on_c, 13, 55, 0
17, 54000, Note_on_c, 13, 53, 60
17, 54111, Note_on_c, 13, 53, 0
17, 54120, Note_on_c, 13, 65, 60
17, 54171, Note_on_c, 13, 65, 0
17, 54180, Note_on_c, 13, 61, 60
17, 54231, Note_on_c, 13, 61, 0
17, 54240, Note_on_c, 13, 60, 60
17, 54351, Note_on_c, 13, 60, 0
17, 54360, Note_on_c, 13, 60, 60
17, 54471, Note_on_c, 13, 60, 0
17, 54476, Control_c, 13, 11, 127
17, 54480, Note_on_c, 13, 65, 76
17, 54951, Note_on_c, 13, 65, 0
17, 54960, Note_on_c, 13, 61, 84
17, 55424, Note_on_c, 13, 61, 0
17, 55440, Note_on_c, 13, 64, 76
17, 55791, Note_on_c, 13, 64, 0
17, 55800, Note_on_c, 13, 64, 76
17, 55814, Note_on_c, 13, 64, 0
17, 55815, Note_on_c, 13, 65, 76
17, 55829, Note_on_c, 13, 65, 0
17, 55830, Note_on_c, 13, 64, 76
17, 55844, Note_on_c, 13, 64, 0
17, 55845, Note_on_c, 13, 65, 76
17, 55859, Note_on_c, 13, 65, 0
17, 55860, Note_on_c, 13, 64, 76
17, 55874, Note_on_c, 13, 64, 0
17, 55875, Note_on_c, 13, 65, 76
17, 55889, Note_on_c, 13, 65, 0
17, 55890, Note_on_c, 13, 62, 76
17, 55904, Note_on_c, 13, 62, 0
17, 55905, Note_on_c, 13, 64, 76
17, 55916, Note_on_c, 13, 64, 0
17, 55920, Note_on_c, 13, 65, 76
17, 56039, Note_on_c, 13, 65, 0
17, 57840, Note_on_c, 13, 53, 76
17, 58079, Note_on_c, 13, 53, 0
17, 58080, Note_on_c, 13, 55, 76
17, 58199, Note_on_c, 13, 55, 0
17, 58200, Note_on_c, 13, 56, 76
17, 58311, Note_on_c, 13, 56, 0
17, 58320, Note_on_c, 13, 58, 84
17, 58664, Note_on_c, 13, 58, 0
17, 58680, Note_on_c, 13, 56, 76
17, 58694, Note_on_c, 13, 56, 0
17, 58695, Note_on_c, 13, 58, 76
17, 58709, Note_on_c, 13, 58, 0
17, 58710, Note_on_c, 13, 56, 76
17, 58724, Note_on_c, 13, 56, 0
17, 58725, Note_on_c, 13, 58, 76
17, 58739, Note_on_c, 13, 58, 0
17, 58740, Note_on_c, 13, 56, 76
17, 58754, Note_on_c, 13, 56, 0
17, 58755, Note_on_c, 13, 58, 76
17, 58769, Note_on_c, 13, 58, 0
17, 58770, Note_on_c, 13, 55, 76
17, 58784, Note_on_c, 13, 55, 0
17, 58785, Note_on_c, 13, 56, 76
17, 58796, Note_on_c, 13, 56, 0
17, 58800, Note_on_c, 13, 55, 76
17, 58919, Note_on_c, 13, 55, 0
17, 58920, Note_on_c, 13, 61, 76
17, 59039, Note_on_c, 13, 61, 0
17, 59040, Note_on_c, 13, 60, 76
17, 59159, Note_on_c, 13, 60, 0
17, 59160, Note_on_c, 13, 58, 76
17, 59271, Note_on_c, 13, 58, 0
17, 59280, Note_on_c, 13, 56, 76
17, 59399, Note_on_c, 13, 56, 0
17, 59880, Note_on_c, 13, 59, 76
17, 59999, Note_on_c, 13, 59, 0
17, 60000, Note_on_c, 13, 60, 76
17, 60119, Note_on_c, 13, 60, 0
17, 60120, Note_on_c, 13, 62, 76
17, 60231, Note_on_c, 13, 62, 0
17, 60240, Note_on_c, 13, 63, 76
17, 60284, Note_on_c, 13, 63, 0
17, 60300, Note_on_c, 13, 67, 76
17, 60344, Note_on_c, 13, 67, 0
17, 60360, Note_on_c, 13, 68, 76
17, 60404, Note_on_c, 13, 68, 0
17, 60420, Note_on_c, 13, 67, 76
17, 60464, Note_on_c, 13, 67, 0
17, 60480, Note_on_c, 13, 65, 76
17, 60524, Note_on_c, 13, 65, 0
17, 60540, Note_on_c, 13, 63, 76
17, 60584, Note_on_c, 13, 63, 0
17, 60600, Note_on_c, 13, 62, 76
17, 60644, Note_on_c, 13, 62, 0
17, 60660, Note_on_c, 13, 60, 76
17, 60704, Note_on_c, 13, 60, 0
17, 60720, Note_on_c, 13, 59, 76
17, 60764, Note_on_c, 13, 59, 0
17, 60780, Note_on_c, 13, 60, 76
17, 60824, Note_on_c, 13, 60, 0
17, 60840, Note_on_c, 13, 62, 76
17, 60884, Note_on_c, 13, 62, 0
17, 60900, Note_on_c, 13, 60, 76
17, 60944, Note_on_c, 13, 60, 0
17, 60960, Note_on_c, 13, 59, 76
17, 61004, Note_on_c, 13, 59, 0
17, 61020, Note_on_c, 13, 55, 76
17, 61064, Note_on_c, 13, 55, 0
17, 61080, Note_on_c, 13, 60, 76
17, 61124, Note_on_c, 13, 60, 0
17, 61140, Note_on_c, 13, 55, 76
17, 61184, Note_on_c, 13, 55, 0
17, 61200, Note_on_c, 13, 65, 76
17, 61244, Note_on_c, 13, 65, 0
17, 61260, Note_on_c, 13, 55, 76
17, 61304, Note_on_c, 13, 55, 0
17, 61320, Note_on_c, 13, 65, 76
17, 61364, Note_on_c, 13, 65, 0
17, 61380, Note_on_c, 13, 55, 76
17, 61424, Note_on_c, 13, 55, 0
17, 61440, Note_on_c, 13, 63, 76
17, 61484, Note_on_c, 13, 63, 0
17, 61500, Note_on_c, 13, 55, 76
17, 61544, Note_on_c, 13, 55, 0
17, 61560, Note_on_c, 13, 62, 76
17, 61604, Note_on_c, 13, 62, 0
17, 61620, Note_on_c, 13, 55, 76
17, 61664, Note_on_c, 13, 55, 0
17, 61680, Note_on_c, 13, 60, 76
17, 61724, Note_on_c, 13, 60, 0
17, 61740, Note_on_c, 13, 60, 76
17, 61784, Note_on_c, 13, 60, 0
17, 61800, Note_on_c, 13, 58, 76
17, 61844, Note_on_c, 13, 58, 0
17, 61860, Note_on_c, 13, 60, 76
17, 61904, Note_on_c, 13, 60, 0
17, 61920, Note_on_c, 13, 56, 76
17, 61964, Note_on_c, 13, 56, 0
17, 61980, Note_on_c, 13, 60, 76
17, 62024, Note_on_c, 13, 60, 0
17, 62040, Note_on_c, 13, 55, 76
17, 62084, Note_on_c, 13, 55, 0
17, 62100, Note_on_c, 13, 60, 76
17, 62144, Note_on_c, 13, 60, 0
17, 62160, Note_on_c, 13, 53, 84
17, 62279, Note_on_c, 13, 53, 0
17, 62460, Note_on_c, 13, 60, 84
17, 62504, Note_on_c, 13, 60, 0
17, 62520, Note_on_c, 13, 58, 84
17, 62564, Note_on_c, 13, 58, 0
17, 62580, Note_on_c, 13, 56, 84
17, 62624, Note_on_c, 13, 56, 0
17, 62640, Note_on_c, 13, 61, 84
17, 62759, Note_on_c, 13, 61, 0
17, 62940, Note_on_c, 13, 70, 84
17, 62984, Note_on_c, 13, 70, 0
17, 63000, Note_on_c, 13, 72, 84
17, 63044, Note_on_c, 13, 72, 0
17, 63060, Note_on_c, 13, 73, 84
17, 63104, Note_on_c, 13, 73, 0
17, 63120, Note_on_c, 13, 58, 84
17, 63239, Note_on_c, 13, 58, 0
17, 63420, Note_on_c, 13, 60, 84
17, 63464, Note_on_c, 13, 60, 0
17, 63480, Note_on_c, 13, 48, 84
17, 63524, Note_on_c, 13, 48, 0
17, 63540, Note_on_c, 13, 60, 84
17, 63584, Note_on_c, 13, 60, 0
17, 63600, Note_on_c, 13, 53, 84
17, 63644, Note_on_c, 13, 53, 0
17, 63660, Note_on_c, 13, 65, 84
17, 63704, Note_on_c, 13, 65, 0
17, 63720, Note_on_c, 13, 63, 84
17, 63764, Note_on_c, 13, 63, 0
17, 63780, Note_on_c, 13, 65, 84
17, 63824, Note_on_c, 13, 65, 0
17, 63840, Note_on_c, 13, 62, 84
17, 63884, Note_on_c, 13, 62, 0
17, 63900, Note_on_c, 13, 65, 84
17, 63944, Note_on_c, 13, 65, 0
17, 63960, Note_on_c, 13, 60, 84
17, 64004, Note_on_c, 13, 60, 0
17, 64020, Note_on_c, 13, 65, 84
17, 64064, Note_on_c, 13, 65, 0
17, 64080, Note_on_c, 13, 58, 84
17, 64169, Note_on_c, 13, 58, 0
17, 64200, Note_on_c, 13, 58, 84
17, 64439, Note_on_c, 13, 58, 0
17, 64440, Note_on_c, 13, 60, 84
17, 64499, Note_on_c, 13, 60, 0
17, 64500, Note_on_c, 13, 62, 84
17, 64551, Note_on_c, 13, 62, 0
17, 64560, Note_on_c, 13, 63, 84
17, 64679, Note_on_c, 13, 63, 0
17, 65100, Note_on_c, 13, 53, 84
17, 65144, Note_on_c, 13, 53, 0
17, 65160, Note_on_c, 13, 55, 84
17, 65204, Note_on_c, 13, 55, 0
17, 65220, Note_on_c, 13, 56, 84
17, 65264, Note_on_c, 13, 56, 0
17, 65280, Note_on_c, 13, 58, 84
17, 65324, Note_on_c, 13, 58, 0
17, 65340, Note_on_c, 13, 60, 84
17, 65384, Note_on_c, 13, 60, 0
17, 65400, Note_on_c, 13, 62, 84
17, 65444, Note_on_c, 13, 62, 0
17, 65460, Note_on_c, 13, 63, 84
17, 65504, Note_on_c, 13, 63, 0
17, 65520, Note_on_c, 13, 65, 84
17, 65639, Note_on_c, 13, 65, 0
17, 66060, Note_on_c, 13, 55, 84
17, 66104, Note_on_c, 13, 55, 0
17, 66120, Note_on_c, 13, 56, 84
17, 66164, Note_on_c, 13, 56, 0
17, 66180, Note_on_c, 13, 58, 84
17, 66224, Note_on_c, 13, 58, 0
17, 66240, Note_on_c, 13, 60, 84
17, 66284, Note_on_c, 13, 60, 0
17, 66300, Note_on_c, 13, 62, 84
17, 66344, Note_on_c, 13, 62, 0
17, 66360, Note_on_c, 13, 63, 84
17, 66404, Note_on_c, 13, 63, 0
17, 66420, Note_on_c, 13, 65, 84
17, 66464, Note_on_c, 13, 65, 0
17, 66480, Note_on_c, 13, 67, 84
17, 66719, Note_on_c, 13, 67, 0
17, 66720, Note_on_c, 13, 69, 84
17, 66839, Note_on_c, 13, 69, 0
17, 66840, Note_on_c, 13, 71, 84
17, 66951, Note_on_c, 13, 71, 0
17, 66960, Note_on_c, 13, 72, 84
17, 67191, Note_on_c, 13, 72, 0
17, 67200, Note_on_c, 13, 60, 92
17, 67439, Note_on_c, 13, 60, 0
17, 67440, Note_on_c, 13, 60, 84
17, 67559, Note_on_c, 13, 60, 0
17, 67560, Note_on_c, 13, 56, 84
17, 67619, Note_on_c, 13, 56, 0
17, 67620, Note_on_c, 13, 55, 84
17, 67671, Note_on_c, 13, 55, 0
17, 67680, Note_on_c, 13, 53, 84
17, 67799, Note_on_c, 13, 53, 0
17, 68160, Note_on_c, 13, 62, 92
17, 68399, Note_on_c, 13, 62, 0
17, 68400, Note_on_c, 13, 62, 84
17, 68511, Note_on_c, 13, 62, 0
17, 68520, Note_on_c, 13, 59, 84
17, 68579, Note_on_c, 13, 59, 0
17, 68580, Note_on_c, 13, 57, 84
17, 68631, Note_on_c, 13, 57, 0
17, 68640, Note_on_c, 13, 55, 84
17, 68729, Note_on_c, 13, 55, 0
17, 68760, Note_on_c, 13, 62, 84
17, 68849, Note_on_c, 13, 62, 0
17, 68880, Note_on_c, 13, 60, 84
17, 68991, Note_on_c, 13, 60, 0
17, 69000, Note_on_c, 13, 61, 84
17, 69231, Note_on_c, 13, 61, 0
17, 69240, Note_on_c, 13, 55, 84
17, 69351, Note_on_c, 13, 55, 0
17, 69360, Note_on_c, 13, 54, 84
17, 69599, Note_on_c, 13, 54, 0
17, 69600, Note_on_c, 13, 54, 92
17, 69711, Note_on_c, 13, 54, 0
17, 69720, Note_on_c, 13, 55, 84
17, 69779, Note_on_c, 13, 55, 0
17, 69780, Note_on_c, 13, 57, 84
17, 69831, Note_on_c, 13, 57, 0
17, 69840, Note_on_c, 13, 58, 84
17, 69959, Note_on_c, 13, 58, 0
17, 69960, Note_on_c, 13, 60, 84
17, 70019, Note_on_c, 13, 60, 0
17, 70020, Note_on_c, 13, 62, 84
17, 70079, Note_on_c, 13, 62, 0
17, 70080, Note_on_c, 13, 63, 92
17, 70199, Note_on_c, 13, 63, 0
17, 70200, Note_on_c, 13, 60, 84
17, 70259, Note_on_c, 13, 60, 0
17, 70260, Note_on_c, 13, 58, 84
17, 70311, Note_on_c, 13, 58, 0
17, 70320, Note_on_c, 13, 57, 84
17, 70439, Note_on_c, 13, 57, 0
17, 70440, Note_on_c, 13, 58, 84
17, 70499, Note_on_c, 13, 58, 0
17, 70500, Note_on_c, 13, 60, 84
17, 70559, Note_on_c, 13, 60, 0
17, 70560, Note_on_c, 13, 62, 92
17, 70679, Note_on_c, 13, 62, 0
17, 70680, Note_on_c, 13, 58, 84
17, 70739, Note_on_c, 13, 58, 0
17, 70740, Note_on_c, 13, 57, 84
17, 70791, Note_on_c, 13, 57, 0
17, 70800, Note_on_c, 13, 55, 84
17, 70919, Note_on_c, 13, 55, 0
17, 70920, Note_on_c, 13, 57, 84
17, 70979, Note_on_c, 13, 57, 0
17, 70980, Note_on_c, 13, 58, 84
17, 71039, Note_on_c, 13, 58, 0
17, 71040, Note_on_c, 13, 60, 92
17, 71159, Note_on_c, 13, 60, 0
17, 71160, Note_on_c, 13, 57, 84
17, 71219, Note_on_c, 13, 57, 0
17, 71220, Note_on_c, 13, 55, 84
17, 71271, Note_on_c, 13, 55, 0
17, 71280, Note_on_c, 13, 54, 84
17, 71399, Note_on_c, 13, 54, 0
17, 71400, Note_on_c, 13, 55, 84
17, 71459, Note_on_c, 13, 55, 0
17, 71460, Note_on_c, 13, 57, 84
17, 71519, Note_on_c, 13, 57, 0
17, 71520, Note_on_c, 13, 58, 84
17, 71579, Note_on_c, 13, 58, 0
17, 71580, Note_on_c, 13, 60, 84
17, 71639, Note_on_c, 13, 60, 0
17, 71640, Note_on_c, 13, 61, 84
17, 71699, Note_on_c, 13, 61, 0
17, 71700, Note_on_c, 13, 62, 84
17, 71751, Note_on_c, 13, 62, 0
17, 71760, Note_on_c, 13, 64, 84
17, 71849, Note_on_c, 13, 64, 0
17, 72000, Note_on_c, 13, 55, 92
17, 72239, Note_on_c, 13, 55, 0
17, 72240, Note_on_c, 13, 55, 84
17, 72351, Note_on_c, 13, 55, 0
17, 72360, Note_on_c, 13, 55, 84
17, 72449, Note_on_c, 13, 55, 0
17, 72480, Note_on_c, 13, 55, 84
17, 72569, Note_on_c, 13, 55, 0
17, 72600, Note_on_c, 13, 55, 84
17, 72689, Note_on_c, 13, 55, 0
17, 72720, Control_c, 13, 11, 127
17, 72720, Note_on_c, 13, 62, 84
17, 72740, Control_c, 13, 11, 124
17, 72760, Control_c, 13, 11, 122
17, 72780, Control_c, 13, 11, 119
17, 72800, Control_c, 13, 11, 117
17, 72820, Control_c, 13, 11, 114
17, 72840, Control_c, 13, 11, 111
17, 72860, Control_c, 13, 11, 109
17, 72880, Control_c, 13, 11, 106
17, 72900, Control_c, 13, 11, 103
17, 72920, Control_c, 13, 11, 101
17, 72940, Control_c, 13, 11, 98
17, 72960, Control_c, 13, 11, 96
17, 72980, Control_c, 13, 11, 93
17, 73000, Control_c, 13, 11, 90
17, 73020, Control_c, 13, 11, 88
17, 73040, Control_c, 13, 11, 85
17, 73060, Control_c, 13, 11, 82
17, 73080, Control_c, 13, 11, 80
17, 73100, Control_c, 13, 11, 77
17, 73120, Control_c, 13, 11, 75
17, 73140, Control_c, 13, 11, 72
17, 73160, Control_c, 13, 11, 69
17, 73180, Control_c, 13, 11, 64
17, 73191, Note_on_c, 13, 62, 0
17, 73200, Note_on_c, 13, 50, 84
17, 73671, Note_on_c, 13, 50, 0
17, 73680, Note_on_c, 13, 55, 84
17, 73919, Note_on_c, 13, 55, 0
17, 74145, Control_c, 13, 11, 127
17, 74160, Note_on_c, 13, 55, 52
17, 74399, Note_on_c, 13, 55, 0
17, 74640, Note_on_c, 13, 56, 52
17, 74879, Note_on_c, 13, 56, 0
17, 76080, Note_on_c, 13, 51, 84
17, 76080, Note_on_c, 13, 48, 84
17, 76551, Note_on_c, 13, 51, 0
17, 76551, Note_on_c, 13, 48, 0
17, 76560, Note_on_c, 13, 51, 84
17, 76560, Note_on_c, 13, 48, 84
17, 76595, Note_on_c, 13, 51, 0
17, 76595, Note_on_c, 13, 48, 0
17, 76600, Note_on_c, 13, 48, 84
17, 76600, Note_on_c, 13, 51, 84
17, 76635, Note_on_c, 13, 48, 0
17, 76635, Note_on_c, 13, 51, 0
17, 76640, Note_on_c, 13, 51, 84
17, 76640, Note_on_c, 13, 48, 84
17, 76675, Note_on_c, 13, 51, 0
17, 76675, Note_on_c, 13, 48, 0
17, 76680, Note_on_c, 13, 51, 84
17, 76680, Note_on_c, 13, 48, 84
17, 76715, Note_on_c, 13, 51, 0
17, 76715, Note_on_c, 13, 48, 0
17, 76720, Note_on_c, 13, 48, 84
17, 76720, Note_on_c, 13, 51, 84
17, 76755, Note_on_c, 13, 48, 0
17, 76755, Note_on_c, 13, 51, 0
17, 76760, Note_on_c, 13, 48, 84
17, 76760, Note_on_c, 13, 51, 84
17, 76795, Note_on_c, 13, 48, 0
17, 76795, Note_on_c, 13, 51, 0
17, 76800, Note_on_c, 13, 51, 84
17, 76800, Note_on_c, 13, 48, 84
17, 76835, Note_on_c, 13, 51, 0
17, 76835, Note_on_c, 13, 48, 0
17, 76840, Note_on_c, 13, 48, 84
17, 76840, Note_on_c, 13, 51, 84
17, 76875, Note_on_c, 13, 48, 0
17, 76875, Note_on_c, 13, 51, 0
17, 76880, Note_on_c, 13, 48, 84
17, 76880, Note_on_c, 13, 51, 84
17, 76915, Note_on_c, 13, 48, 0
17, 76915, Note_on_c, 13, 51, 0
17, 76920, Note_on_c, 13, 48, 84
17, 76920, Note_on_c, 13, 51, 84
17, 76955, Note_on_c, 13, 48, 0
17, 76955, Note_on_c, 13, 51, 0
17, 76960, Note_on_c, 13, 51, 84
17, 76960, Note_on_c, 13, 48, 84
17, 76995, Note_on_c, 13, 51, 0
17, 76995, Note_on_c, 13, 48, 0
17, 77000, Note_on_c, 13, 48, 84
17, 77000, Note_on_c, 13, 51, 84
17, 77035, Note_on_c, 13, 48, 0
17, 77035, Note_on_c, 13, 51, 0
17, 77040, Note_on_c, 13, 51, 84
17, 77040, Note_on_c, 13, 48, 84
17, 77075, Note_on_c, 13, 51, 0
17, 77075, Note_on_c, 13, 48, 0
17, 77080, Note_on_c, 13, 51, 84
17, 77080, Note_on_c, 13, 48, 84
17, 77115, Note_on_c, 13, 51, 0
17, 77115, Note_on_c, 13, 48, 0
17, 77120, Note_on_c, 13, 51, 84
17, 77120, Note_on_c, 13, 48, 84
17, 77155, Note_on_c, 13, 51, 0
17, 77155, Note_on_c, 13, 48, 0
17, 77160, Note_on_c, 13, 48, 84
17, 77160, Note_on_c, 13, 51, 84
17, 77195, Note_on_c, 13, 48, 0
17, 77195, Note_on_c, 13, 51, 0
17, 77200, Note_on_c, 13, 51, 84
17, 77200, Note_on_c, 13, 48, 84
17, 77235, Note_on_c, 13, 51, 0
17, 77235, Note_on_c, 13, 48, 0
17, 77240, Note_on_c, 13, 51, 84
17, 77240, Note_on_c, 13, 48, 84
17, 77275, Note_on_c, 13, 51, 0
17, 77275, Note_on_c, 13, 48, 0
17, 77280, Note_on_c, 13, 48, 84
17, 77280, Note_on_c, 13, 51, 84
17, 77315, Note_on_c, 13, 48, 0
17, 77315, Note_on_c, 13, 51, 0
17, 77320, Note_on_c, 13, 48, 84
17, 77320, Note_on_c, 13, 51, 84
17, 77355, Note_on_c, 13, 48, 0
17, 77355, Note_on_c, 13, 51, 0
17, 77360, Note_on_c, 13, 48, 84
17, 77360, Note_on_c, 13, 51, 84
17, 77395, Note_on_c, 13, 48, 0
17, 77395, Note_on_c, 13, 51, 0
17, 77400, Note_on_c, 13, 51, 84
17, 77400, Note_on_c, 13, 48, 84
17, 77435, Note_on_c, 13, 51, 0
17, 77435, Note_on_c, 13, 48, 0
17, 77440, Note_on_c, 13, 48, 84
17, 77440, Note_on_c, 13, 51, 84
17, 77475, Note_on_c, 13, 48, 0
17, 77475, Note_on_c, 13, 51, 0
17, 77480, Note_on_c, 13, 48, 84
17, 77480, Note_on_c, 13, 51, 84
17, 77515, Note_on_c, 13, 48, 0
17, 77515, Note_on_c, 13, 51, 0
17, 77520, Note_on_c, 13, 48, 84
17, 77520, Note_on_c, 13, 51, 84
17, 77555, Note_on_c, 13, 48, 0
17, 77555, Note_on_c, 13, 51, 0
17, 77560, Note_on_c, 13, 51, 84
17, 77560, Note_on_c, 13, 48, 84
17, 77595, Note_on_c, 13, 51, 0
17, 77595, Note_on_c, 13, 48, 0
17, 77600, Note_on_c, 13, 51, 84
17, 77600, Note_on_c, 13, 48, 84
17, 77635, Note_on_c, 13, 51, 0
17, 77635, Note_on_c, 13, 48, 0
17, 77640, Note_on_c, 13, 48, 84
17, 77640, Note_on_c, 13, 51, 84
17, 77675, Note_on_c, 13, 48, 0
17, 77675, Note_on_c, 13, 51, 0
17, 77680, Note_on_c, 13, 48, 84
17, 77680, Note_on_c, 13, 51, 84
17, 77715, Note_on_c, 13, 48, 0
17, 77715, Note_on_c, 13, 51, 0
17, 77720, Note_on_c, 13, 48, 84
17, 77720, Note_on_c, 13, 51, 84
17, 77755, Note_on_c, 13, 48, 0
17, 77755, Note_on_c, 13, 51, 0
17, 77760, Note_on_c, 13, 51, 84
17, 77760, Note_on_c, 13, 48, 84
17, 77795, Note_on_c, 13, 51, 0
17, 77795, Note_on_c, 13, 48, 0
17, 77800, Note_on_c, 13, 51, 84
17, 77800, Note_on_c, 13, 48, 84
17, 77835, Note_on_c, 13, 51, 0
17, 77835, Note_on_c, 13, 48, 0
17, 77840, Note_on_c, 13, 51, 84
17, 77840, Note_on_c, 13, 48, 84
17, 77875, Note_on_c, 13, 51, 0
17, 77875, Note_on_c, 13, 48, 0
17, 77880, Note_on_c, 13, 51, 84
17, 77880, Note_on_c, 13, 48, 84
17, 77915, Note_on_c, 13, 51, 0
17, 77915, Note_on_c, 13, 48, 0
17, 77920, Note_on_c, 13, 51, 84
17, 77920, Note_on_c, 13, 48, 84
17, 77955, Note_on_c, 13, 51, 0
17, 77955, Note_on_c, 13, 48, 0
17, 77960, Note_on_c, 13, 48, 84
17, 77960, Note_on_c, 13, 51, 84
17, 77995, Note_on_c, 13, 48, 0
17, 77995, Note_on_c, 13, 51, 0
17, 78000, Note_on_c, 13, 48, 84
17, 78000, Note_on_c, 13, 51, 84
17, 78035, Note_on_c, 13, 48, 0
17, 78035, Note_on_c, 13, 51, 0
17, 78040, Note_on_c, 13, 48, 84
17, 78040, Note_on_c, 13, 51, 84
17, 78075, Note_on_c, 13, 48, 0
17, 78075, Note_on_c, 13, 51, 0
17, 78080, Note_on_c, 13, 51, 84
17, 78080, Note_on_c, 13, 48, 84
17, 78115, Note_on_c, 13, 51, 0
17, 78115, Note_on_c, 13, 48, 0
17, 78120, Note_on_c, 13, 48, 84
17, 78120, Note_on_c, 13, 51, 84
17, 78155, Note_on_c, 13, 48, 0
17, 78155, Note_on_c, 13, 51, 0
17, 78160, Note_on_c, 13, 51, 84
17, 78160, Note_on_c, 13, 48, 84
17, 78195, Note_on_c, 13, 51, 0
17, 78195, Note_on_c, 13, 48, 0
17, 78200, Note_on_c, 13, 51, 84
17, 78200, Note_on_c, 13, 48, 84
17, 78235, Note_on_c, 13, 51, 0
17, 78235, Note_on_c, 13, 48, 0
17, 78240, Note_on_c, 13, 48, 84
17, 78240, Note_on_c, 13, 51, 84
17, 78275, Note_on_c, 13, 48, 0
17, 78275, Note_on_c, 13, 51, 0
17, 78280, Note_on_c, 13, 48, 84
17, 78280, Note_on_c, 13, 51, 84
17, 78315, Note_on_c, 13, 48, 0
17, 78315, Note_on_c, 13, 51, 0
17, 78320, Note_on_c, 13, 48, 84
17, 78320, Note_on_c, 13, 51, 84
17, 78355, Note_on_c, 13, 48, 0
17, 78355, Note_on_c, 13, 51, 0
17, 78360, Note_on_c, 13, 51, 84
17, 78360, Note_on_c, 13, 48, 84
17, 78395, Note_on_c, 13, 51, 0
17, 78395, Note_on_c, 13, 48, 0
17, 78400, Note_on_c, 13, 51, 84
17, 78400, Note_on_c, 13, 48, 84
17, 78435, Note_on_c, 13, 51, 0
17, 78435, Note_on_c, 13, 48, 0
17, 78440, Note_on_c, 13, 48, 84
17, 78440, Note_on_c, 13, 51, 84
17, 78475, Note_on_c, 13, 48, 0
17, 78475, Note_on_c, 13, 51, 0
17, 78480, Note_on_c, 13, 51, 84
17, 78480, Note_on_c, 13, 48, 84
17, 78515, Note_on_c, 13, 51, 0
17, 78515, Note_on_c, 13, 48, 0
17, 78520, Note_on_c, 13, 54, 84
17, 78520, Note_on_c, 13, 57, 84
17, 78555, Note_on_c, 13, 54, 0
17, 78555, Note_on_c, 13, 57, 0
17, 78560, Note_on_c, 13, 57, 84
17, 78560, Note_on_c, 13, 54, 84
17, 78595, Note_on_c, 13, 57, 0
17, 78595, Note_on_c, 13, 54, 0
17, 78600, Note_on_c, 13, 57, 84
17, 78600, Note_on_c, 13, 54, 84
17, 78635, Note_on_c, 13, 57, 0
17, 78635, Note_on_c, 13, 54, 0
17, 78640, Note_on_c, 13, 57, 84
17, 78640, Note_on_c, 13, 54, 84
17, 78675, Note_on_c, 13, 57, 0
17, 78675, Note_on_c, 13, 54, 0
17, 78680, Note_on_c, 13, 54, 84
17, 78680, Note_on_c, 13, 57, 84
17, 78715, Note_on_c, 13, 54, 0
17, 78715, Note_on_c, 13, 57, 0
17, 78720, Note_on_c, 13, 54, 84
17, 78720, Note_on_c, 13, 57, 84
17, 78755, Note_on_c, 13, 54, 0
17, 78755, Note_on_c, 13, 57, 0
17, 78760, Note_on_c, 13, 54, 84
17, 78760, Note_on_c, 13, 57, 84
17, 78795, Note_on_c, 13, 54, 0
17, 78795, Note_on_c, 13, 57, 0
17, 78800, Note_on_c, 13, 57, 84
17, 78800, Note_on_c, 13, 54, 84
17, 78835, Note_on_c, 13, 57, 0
17, 78835, Note_on_c, 13, 54, 0
17, 78840, Note_on_c, 13, 57, 84
17, 78840, Note_on_c, 13, 54, 84
17, 78875, Note_on_c, 13, 57, 0
17, 78875, Note_on_c, 13, 54, 0
17, 78880, Note_on_c, 13, 57, 84
17, 78880, Note_on_c, 13, 54, 84
17, 78915, Note_on_c, 13, 57, 0
17, 78915, Note_on_c, 13, 54, 0
17, 78920, Note_on_c, 13, 54, 84
17, 78920, Note_on_c, 13, 57, 84
17, 78955, Note_on_c, 13, 54, 0
17, 78955, Note_on_c, 13, 57, 0
17, 78960, Note_on_c, 13, 57, 84
17, 78960, Note_on_c, 13, 54, 84
17, 78995, Note_on_c, 13, 57, 0
17, 78995, Note_on_c, 13, 54, 0
17, 79000, Note_on_c, 13, 54, 84
17, 79000, Note_on_c, 13, 57, 84
17, 79035, Note_on_c, 13, 54, 0
17, 79035, Note_on_c, 13, 57, 0
17, 79040, Note_on_c, 13, 54, 84
17, 79040, Note_on_c, 13, 57, 84
17, 79075, Note_on_c, 13, 54, 0
17, 79075, Note_on_c, 13, 57, 0
17, 79080, Note_on_c, 13, 54, 84
17, 79080, Note_on_c, 13, 57, 84
17, 79115, Note_on_c, 13, 54, 0
17, 79115, Note_on_c, 13, 57, 0
17, 79120, Note_on_c, 13, 57, 84
17, 79120, Note_on_c, 13, 54, 84
17, 79155, Note_on_c, 13, 57, 0
17, 79155, Note_on_c, 13, 54, 0
17, 79160, Note_on_c, 13, 54, 84
17, 79160, Note_on_c, 13, 57, 84
17, 79195, Note_on_c, 13, 54, 0
17, 79195, Note_on_c, 13, 57, 0
17, 79200, Note_on_c, 13, 54, 84
17, 79200, Note_on_c, 13, 57, 84
17, 79235, Note_on_c, 13, 54, 0
17, 79235, Note_on_c, 13, 57, 0
17, 79240, Note_on_c, 13, 57, 84
17, 79240, Note_on_c, 13, 54, 84
17, 79275, Note_on_c, 13, 57, 0
17, 79275, Note_on_c, 13, 54, 0
17, 79280, Note_on_c, 13, 54, 84
17, 79280, Note_on_c, 13, 57, 84
17, 79315, Note_on_c, 13, 54, 0
17, 79315, Note_on_c, 13, 57, 0
17, 79320, Note_on_c, 13, 57, 84
17, 79320, Note_on_c, 13, 54, 84
17, 79355, Note_on_c, 13, 57, 0
17, 79355, Note_on_c, 13, 54, 0
17, 79360, Note_on_c, 13, 54, 84
17, 79360, Note_on_c, 13, 57, 84
17, 79395, Note_on_c, 13, 54, 0
17, 79395, Note_on_c, 13, 57, 0
17, 79400, Note_on_c, 13, 57, 84
17, 79400, Note_on_c, 13, 54, 84
17, 79435, Note_on_c, 13, 57, 0
17, 79435, Note_on_c, 13, 54, 0
17, 79440, Note_on_c, 13, 56, 84
17, 79440, Note_on_c, 13, 53, 84
17, 79475, Note_on_c, 13, 56, 0
17, 79475, Note_on_c, 13, 53, 0
17, 79480, Note_on_c, 13, 56, 84
17, 79480, Note_on_c, 13, 53, 84
17, 79515, Note_on_c, 13, 56, 0
17, 79515, Note_on_c, 13, 53, 0
17, 79520, Note_on_c, 13, 56, 84
17, 79520, Note_on_c, 13, 53, 84
17, 79555, Note_on_c, 13, 56, 0
17, 79555, Note_on_c, 13, 53, 0
17, 79560, Note_on_c, 13, 56, 84
17, 79560, Note_on_c, 13, 53, 84
17, 79595, Note_on_c, 13, 56, 0
17, 79595, Note_on_c, 13, 53, 0
17, 79600, Note_on_c, 13, 56, 84
17, 79600, Note_on_c, 13, 53, 84
17, 79635, Note_on_c, 13, 56, 0
17, 79635, Note_on_c, 13, 53, 0
17, 79640, Note_on_c, 13, 56, 84
17, 79640, Note_on_c, 13, 53, 84
17, 79675, Note_on_c, 13, 56, 0
17, 79675, Note_on_c, 13, 53, 0
17, 79680, Note_on_c, 13, 56, 84
17, 79680, Note_on_c, 13, 53, 84
17, 79715, Note_on_c, 13, 56, 0
17, 79715, Note_on_c, 13, 53, 0
17, 79720, Note_on_c, 13, 53, 84
17, 79720, Note_on_c, 13, 56, 84
17, 79755, Note_on_c, 13, 53, 0
17, 79755, Note_on_c, 13, 56, 0
17, 79760, Note_on_c, 13, 53, 84
17, 79760, Note_on_c, 13, 56, 84
17, 79795, Note_on_c, 13, 53, 0
17, 79795, Note_on_c, 13, 56, 0
17, 79800, Note_on_c, 13, 56, 84
17, 79800, Note_on_c, 13, 53, 84
17, 79835, Note_on_c, 13, 56, 0
17, 79835, Note_on_c, 13, 53, 0
17, 79840, Note_on_c, 13, 53, 84
17, 79840, Note_on_c, 13, 56, 84
17, 79875, Note_on_c, 13, 53, 0
17, 79875, Note_on_c, 13, 56, 0
17, 79880, Note_on_c, 13, 53, 84
17, 79880, Note_on_c, 13, 56, 84
17, 79915, Note_on_c, 13, 53, 0
17, 79915, Note_on_c, 13, 56, 0
17, 79920, Note_on_c, 13, 53, 84
17, 79920, Note_on_c, 13, 56, 84
17, 79955, Note_on_c, 13, 53, 0
17, 79955, Note_on_c, 13, 56, 0
17, 79960, Note_on_c, 13, 56, 84
17, 79960, Note_on_c, 13, 53, 84
17, 79995, Note_on_c, 13, 56, 0
17, 79995, Note_on_c, 13, 53, 0
17, 80000, Note_on_c, 13, 56, 84
17, 80000, Note_on_c, 13, 53, 84
17, 80035, Note_on_c, 13, 56, 0
17, 80035, Note_on_c, 13, 53, 0
17, 80040, Note_on_c, 13, 53, 84
17, 80040, Note_on_c, 13, 56, 84
17, 80075, Note_on_c, 13, 53, 0
17, 80075, Note_on_c, 13, 56, 0
17, 80080, Note_on_c, 13, 53, 84
17, 80080, Note_on_c, 13, 56, 84
17, 80115, Note_on_c, 13, 53, 0
17, 80115, Note_on_c, 13, 56, 0
17, 80120, Note_on_c, 13, 56, 84
17, 80120, Note_on_c, 13, 53, 84
17, 80155, Note_on_c, 13, 56, 0
17, 80155, Note_on_c, 13, 53, 0
17, 80160, Note_on_c, 13, 56, 84
17, 80160, Note_on_c, 13, 53, 84
17, 80195, Note_on_c, 13, 56, 0
17, 80195, Note_on_c, 13, 53, 0
17, 80200, Note_on_c, 13, 53, 84
17, 80200, Note_on_c, 13, 56, 84
17, 80235, Note_on_c, 13, 53, 0
17, 80235, Note_on_c, 13, 56, 0
17, 80240, Note_on_c, 13, 56, 84
17, 80240, Note_on_c, 13, 53, 84
17, 80275, Note_on_c, 13, 56, 0
17, 80275, Note_on_c, 13, 53, 0
17, 80280, Note_on_c, 13, 53, 84
17, 80280, Note_on_c, 13, 56, 84
17, 80315, Note_on_c, 13, 53, 0
17, 80315, Note_on_c, 13, 56, 0
17, 80320, Note_on_c, 13, 53, 84
17, 80320, Note_on_c, 13, 56, 84
17, 80355, Note_on_c, 13, 53, 0
17, 80355, Note_on_c, 13, 56, 0
17, 80360, Note_on_c, 13, 56, 84
17, 80360, Note_on_c, 13, 53, 84
17, 80395, Note_on_c, 13, 56, 0
17, 80395, Note_on_c, 13, 53, 0
17, 80400, Note_on_c, 13, 53, 84
17, 80435, Note_on_c, 13, 53, 0
17, 80440, Note_on_c, 13, 59, 84
17, 80440, Note_on_c, 13, 62, 84
17, 80475, Note_on_c, 13, 59, 0
17, 80475, Note_on_c, 13, 62, 0
17, 80480, Note_on_c, 13, 62, 84
17, 80480, Note_on_c, 13, 59, 84
17, 80515, Note_on_c, 13, 62, 0
17, 80515, Note_on_c, 13, 59, 0
17, 80520, Note_on_c, 13, 59, 84
17, 80520, Note_on_c, 13, 62, 84
17, 80555, Note_on_c, 13, 59, 0
17, 80555, Note_on_c, 13, 62, 0
17, 80560, Note_on_c, 13, 62, 81
17, 80560, Note_on_c, 13, 59, 81
17, 80595, Note_on_c, 13, 62, 0
17, 80595, Note_on_c, 13, 59, 0
17, 80600, Note_on_c, 13, 59, 77
17, 80600, Note_on_c, 13, 62, 77
17, 80635, Note_on_c, 13, 59, 0
17, 80635, Note_on_c, 13, 62, 0
17, 80640, Note_on_c, 13, 62, 74
17, 80640, Note_on_c, 13, 59, 74
17, 80675, Note_on_c, 13, 62, 0
17, 80675, Note_on_c, 13, 59, 0
17, 80680, Note_on_c, 13, 59, 70
17, 80680, Note_on_c, 13, 62, 70
17, 80715, Note_on_c, 13, 59, 0
17, 80715, Note_on_c, 13, 62, 0
17, 80720, Note_on_c, 13, 62, 67
17, 80720, Note_on_c, 13, 59, 67
17, 80755, Note_on_c, 13, 62, 0
17, 80755, Note_on_c, 13, 59, 0
17, 80760, Note_on_c, 13, 62, 63
17, 80760, Note_on_c, 13, 59, 63
17, 80795, Note_on_c, 13, 62, 0
17, 80795, Note_on_c, 13, 59, 0
17, 80800, Note_on_c, 13, 62, 60
17, 80800, Note_on_c, 13, 59, 60
17, 80835, Note_on_c, 13, 62, 0
17, 80835, Note_on_c, 13, 59, 0
17, 80840, Note_on_c, 13, 59, 56
17, 80840, Note_on_c, 13, 62, 56
17, 80875, Note_on_c, 13, 59, 0
17, 80875, Note_on_c, 13, 62, 0
17, 80880, Note_on_c, 13, 59, 52
17, 80880, Note_on_c, 13, 62, 52
17, 80915, Note_on_c, 13, 59, 0
17, 80915, Note_on_c, 13, 62, 0
17, 80920, Note_on_c, 13, 59, 52
17, 80920, Note_on_c, 13, 62, 52
17, 80955, Note_on_c, 13, 59, 0
17, 80955, Note_on_c, 13, 62, 0
17, 80960, Note_on_c, 13, 62, 52
17, 80960, Note_on_c, 13, 59, 52
17, 80995, Note_on_c, 13, 62, 0
17, 80995, Note_on_c, 13, 59, 0
17, 81000, Note_on_c, 13, 59, 52
17, 81000, Note_on_c, 13, 62, 52
17, 81035, Note_on_c, 13, 59, 0
17, 81035, Note_on_c, 13, 62, 0
17, 81040, Note_on_c, 13, 62, 52
17, 81040, Note_on_c, 13, 59, 52
17, 81075, Note_on_c, 13, 62, 0
17, 81075, Note_on_c, 13, 59, 0
17, 81080, Note_on_c, 13, 59, 52
17, 81080, Note_on_c, 13, 62, 52
17, 81115, Note_on_c, 13, 59, 0
17, 81115, Note_on_c, 13, 62, 0
17, 81120, Note_on_c, 13, 59, 52
17, 81120, Note_on_c, 13, 62, 52
17, 81155, Note_on_c, 13, 59, 0
17, 81155, Note_on_c, 13, 62, 0
17, 81160, Note_on_c, 13, 62, 52
17, 81160, Note_on_c, 13, 59, 52
17, 81195, Note_on_c, 13, 62, 0
17, 81195, Note_on_c, 13, 59, 0
17, 81200, Note_on_c, 13, 62, 52
17, 81200, Note_on_c, 13, 59, 52
17, 81235, Note_on_c, 13, 62, 0
17, 81235, Note_on_c, 13, 59, 0
17, 81240, Note_on_c, 13, 59, 52
17, 81240, Note_on_c, 13, 62, 52
17, 81275, Note_on_c, 13, 59, 0
17, 81275, Note_on_c, 13, 62, 0
17, 81280, Note_on_c, 13, 59, 52
17, 81280, Note_on_c, 13, 62, 52
17, 81315, Note_on_c, 13, 59, 0
17, 81315, Note_on_c, 13, 62, 0
17, 81320, Note_on_c, 13, 62, 52
17, 81320, Note_on_c, 13, 59, 52
17, 81355, Note_on_c, 13, 62, 0
17, 81355, Note_on_c, 13, 59, 0
17, 81360, Note_on_c, 13, 59, 52
17, 81360, Note_on_c, 13, 62, 52
17, 81395, Note_on_c, 13, 59, 0
17, 81395, Note_on_c, 13, 62, 0
17, 81400, Note_on_c, 13, 62, 52
17, 81400, Note_on_c, 13, 59, 52
17, 81435, Note_on_c, 13, 62, 0
17, 81435, Note_on_c, 13, 59, 0
17, 81440, Note_on_c, 13, 62, 52
17, 81440, Note_on_c, 13, 59, 52
17, 81475, Note_on_c, 13, 62, 0
17, 81475, Note_on_c, 13, 59, 0
17, 81480, Note_on_c, 13, 62, 52
17, 81480, Note_on_c, 13, 59, 52
17, 81515, Note_on_c, 13, 62, 0
17, 81515, Note_on_c, 13, 59, 0
17, 81520, Note_on_c, 13, 59, 52
17, 81520, Note_on_c, 13, 62, 52
17, 81555, Note_on_c, 13, 59, 0
17, 81555, Note_on_c, 13, 62, 0
17, 81560, Note_on_c, 13, 62, 52
17, 81560, Note_on_c, 13, 59, 52
17, 81595, Note_on_c, 13, 62, 0
17, 81595, Note_on_c, 13, 59, 0
17, 81600, Note_on_c, 13, 59, 52
17, 81600, Note_on_c, 13, 62, 52
17, 81635, Note_on_c, 13, 59, 0
17, 81635, Note_on_c, 13, 62, 0
17, 81640, Note_on_c, 13, 59, 52
17, 81640, Note_on_c, 13, 62, 52
17, 81675, Note_on_c, 13, 59, 0
17, 81675, Note_on_c, 13, 62, 0
17, 81680, Note_on_c, 13, 62, 52
17, 81680, Note_on_c, 13, 59, 52
17, 81715, Note_on_c, 13, 62, 0
17, 81715, Note_on_c, 13, 59, 0
17, 81720, Note_on_c, 13, 59, 52
17, 81720, Note_on_c, 13, 62, 52
17, 81755, Note_on_c, 13, 59, 0
17, 81755, Note_on_c, 13, 62, 0
17, 81760, Note_on_c, 13, 59, 52
17, 81760, Note_on_c, 13, 62, 52
17, 81795, Note_on_c, 13, 59, 0
17, 81795, Note_on_c, 13, 62, 0
17, 81800, Note_on_c, 13, 59, 52
17, 81800, Note_on_c, 13, 62, 52
17, 81835, Note_on_c, 13, 59, 0
17, 81835, Note_on_c, 13, 62, 0
17, 81840, Note_on_c, 13, 59, 52
17, 81840, Note_on_c, 13, 62, 52
17, 81875, Note_on_c, 13, 59, 0
17, 81875, Note_on_c, 13, 62, 0
17, 81880, Note_on_c, 13, 59, 52
17, 81880, Note_on_c, 13, 62, 52
17, 81915, Note_on_c, 13, 59, 0
17, 81915, Note_on_c, 13, 62, 0
17, 81920, Note_on_c, 13, 62, 52
17, 81920, Note_on_c, 13, 59, 52
17, 81955, Note_on_c, 13, 62, 0
17, 81955, Note_on_c, 13, 59, 0
17, 81960, Note_on_c, 13, 59, 52
17, 81960, Note_on_c, 13, 62, 52
17, 81995, Note_on_c, 13, 59, 0
17, 81995, Note_on_c, 13, 62, 0
17, 82000, Note_on_c, 13, 62, 52
17, 82000, Note_on_c, 13, 59, 52
17, 82035, Note_on_c, 13, 62, 0
17, 82035, Note_on_c, 13, 59, 0
17, 82040, Note_on_c, 13, 59, 52
17, 82040, Note_on_c, 13, 62, 52
17, 82075, Note_on_c, 13, 59, 0
17, 82075, Note_on_c, 13, 62, 0
17, 82080, Note_on_c, 13, 59, 52
17, 82080, Note_on_c, 13, 62, 52
17, 82115, Note_on_c, 13, 59, 0
17, 82115, Note_on_c, 13, 62, 0
17, 82120, Note_on_c, 13, 59, 52
17, 82120, Note_on_c, 13, 62, 52
17, 82155, Note_on_c, 13, 59, 0
17, 82155, Note_on_c, 13, 62, 0
17, 82160, Note_on_c, 13, 59, 52
17, 82160, Note_on_c, 13, 62, 52
17, 82195, Note_on_c, 13, 59, 0
17, 82195, Note_on_c, 13, 62, 0
17, 82200, Note_on_c, 13, 62, 52
17, 82200, Note_on_c, 13, 59, 52
17, 82235, Note_on_c, 13, 62, 0
17, 82235, Note_on_c, 13, 59, 0
17, 82240, Note_on_c, 13, 59, 52
17, 82240, Note_on_c, 13, 62, 52
17, 82275, Note_on_c, 13, 59, 0
17, 82275, Note_on_c, 13, 62, 0
17, 82280, Note_on_c, 13, 59, 52
17, 82280, Note_on_c, 13, 62, 52
17, 82315, Note_on_c, 13, 59, 0
17, 82315, Note_on_c, 13, 62, 0
17, 82320, Note_on_c, 13, 59, 52
17, 82320, Note_on_c, 13, 62, 52
17, 82355, Note_on_c, 13, 59, 0
17, 82355, Note_on_c, 13, 62, 0
17, 82360, Note_on_c, 13, 59, 52
17, 82360, Note_on_c, 13, 62, 52
17, 82395, Note_on_c, 13, 59, 0
17, 82395, Note_on_c, 13, 62, 0
17, 82400, Note_on_c, 13, 59, 52
17, 82400, Note_on_c, 13, 62, 52
17, 82435, Note_on_c, 13, 59, 0
17, 82435, Note_on_c, 13, 62, 0
17, 82440, Note_on_c, 13, 59, 52
17, 82440, Note_on_c, 13, 62, 52
17, 82475, Note_on_c, 13, 59, 0
17, 82475, Note_on_c, 13, 62, 0
17, 82480, Note_on_c, 13, 59, 52
17, 82480, Note_on_c, 13, 62, 52
17, 82515, Note_on_c, 13, 59, 0
17, 82515, Note_on_c, 13, 62, 0
17, 82520, Note_on_c, 13, 62, 52
17, 82520, Note_on_c, 13, 59, 52
17, 82555, Note_on_c, 13, 62, 0
17, 82555, Note_on_c, 13, 59, 0
17, 82560, Note_on_c, 13, 59, 52
17, 82560, Note_on_c, 13, 62, 52
17, 82595, Note_on_c, 13, 59, 0
17, 82595, Note_on_c, 13, 62, 0
17, 82600, Note_on_c, 13, 59, 52
17, 82600, Note_on_c, 13, 62, 52
17, 82635, Note_on_c, 13, 59, 0
17, 82635, Note_on_c, 13, 62, 0
17, 82640, Note_on_c, 13, 59, 52
17, 82640, Note_on_c, 13, 62, 52
17, 82675, Note_on_c, 13, 59, 0
17, 82675, Note_on_c, 13, 62, 0
17, 82680, Note_on_c, 13, 59, 52
17, 82680, Note_on_c, 13, 62, 52
17, 82715, Note_on_c, 13, 59, 0
17, 82715, Note_on_c, 13, 62, 0
17, 82720, Note_on_c, 13, 59, 52
17, 82720, Note_on_c, 13, 62, 52
17, 82755, Note_on_c, 13, 59, 0
17, 82755, Note_on_c, 13, 62, 0
17, 82760, Note_on_c, 13, 62, 52
17, 82760, Note_on_c, 13, 59, 52
17, 82795, Note_on_c, 13, 62, 0
17, 82795, Note_on_c, 13, 59, 0
17, 82800, Note_on_c, 13, 60, 52
17, 82835, Note_on_c, 13, 60, 0
17, 82840, Note_on_c, 13, 60, 52
17, 82875, Note_on_c, 13, 60, 0
17, 82880, Note_on_c, 13, 60, 52
17, 82915, Note_on_c, 13, 60, 0
17, 82920, Note_on_c, 13, 60, 52
17, 82955, Note_on_c, 13, 60, 0
17, 82960, Note_on_c, 13, 60, 52
17, 82995, Note_on_c, 13, 60, 0
17, 83000, Note_on_c, 13, 60, 52
17, 83035, Note_on_c, 13, 60, 0
17, 83040, Note_on_c, 13, 60, 52
17, 83075, Note_on_c, 13, 60, 0
17, 83080, Note_on_c, 13, 60, 52
17, 83115, Note_on_c, 13, 60, 0
17, 83120, Note_on_c, 13, 60, 52
17, 83155, Note_on_c, 13, 60, 0
17, 83160, Note_on_c, 13, 60, 52
17, 83195, Note_on_c, 13, 60, 0
17, 83200, Note_on_c, 13, 60, 52
17, 83235, Note_on_c, 13, 60, 0
17, 83240, Note_on_c, 13, 60, 52
17, 83275, Note_on_c, 13, 60, 0
17, 83280, Note_on_c, 13, 60, 52
17, 83315, Note_on_c, 13, 60, 0
17, 83320, Note_on_c, 13, 60, 52
17, 83355, Note_on_c, 13, 60, 0
17, 83360, Note_on_c, 13, 60, 52
17, 83395, Note_on_c, 13, 60, 0
17, 83400, Note_on_c, 13, 60, 52
17, 83435, Note_on_c, 13, 60, 0
17, 83440, Note_on_c, 13, 60, 52
17, 83475, Note_on_c, 13, 60, 0
17, 83480, Note_on_c, 13, 60, 52
17, 83515, Note_on_c, 13, 60, 0
17, 83520, Note_on_c, 13, 60, 52
17, 83555, Note_on_c, 13, 60, 0
17, 83560, Note_on_c, 13, 60, 52
17, 83595, Note_on_c, 13, 60, 0
17, 83600, Note_on_c, 13, 60, 52
17, 83635, Note_on_c, 13, 60, 0
17, 83640, Note_on_c, 13, 60, 52
17, 83675, Note_on_c, 13, 60, 0
17, 83680, Note_on_c, 13, 60, 52
17, 83715, Note_on_c, 13, 60, 0
17, 83720, Note_on_c, 13, 60, 52
17, 83755, Note_on_c, 13, 60, 0
17, 83760, Note_on_c, 13, 60, 52
17, 83795, Note_on_c, 13, 60, 0
17, 83800, Note_on_c, 13, 60, 52
17, 83835, Note_on_c, 13, 60, 0
17, 83840, Note_on_c, 13, 60, 52
17, 83875, Note_on_c, 13, 60, 0
17, 83880, Note_on_c, 13, 60, 52
17, 83915, Note_on_c, 13, 60, 0
17, 83920, Note_on_c, 13, 60, 52
17, 83955, Note_on_c, 13, 60, 0
17, 83960, Note_on_c, 13, 60, 52
17, 83995, Note_on_c, 13, 60, 0
17, 84000, Note_on_c, 13, 60, 52
17, 84035, Note_on_c, 13, 60, 0
17, 84040, Note_on_c, 13, 60, 52
17, 84075, Note_on_c, 13, 60, 0
17, 84080, Note_on_c, 13, 60, 52
17, 84115, Note_on_c, 13, 60, 0
17, 84120, Note_on_c, 13, 60, 52
17, 84155, Note_on_c, 13, 60, 0
17, 84160, Note_on_c, 13, 60, 52
17, 84195, Note_on_c, 13, 60, 0
17, 84200, Note_on_c, 13, 60, 52
17, 84235, Note_on_c, 13, 60, 0
17, 84240, Note_on_c, 13, 60, 52
17, 84275, Note_on_c, 13, 60, 0
17, 84280, Note_on_c, 13, 60, 52
17, 84315, Note_on_c, 13, 60, 0
17, 84320, Note_on_c, 13, 60, 52
17, 84355, Note_on_c, 13, 60, 0
17, 84360, Note_on_c, 13, 60, 52
17, 84395, Note_on_c, 13, 60, 0
17, 84400, Note_on_c, 13, 60, 52
17, 84435, Note_on_c, 13, 60, 0
17, 84440, Note_on_c, 13, 60, 52
17, 84475, Note_on_c, 13, 60, 0
17, 84480, Note_on_c, 13, 59, 52
17, 84515, Note_on_c, 13, 59, 0
17, 84520, Note_on_c, 13, 59, 52
17, 84555, Note_on_c, 13, 59, 0
17, 84560, Note_on_c, 13, 59, 52
17, 84595, Note_on_c, 13, 59, 0
17, 84600, Note_on_c, 13, 59, 52
17, 84635, Note_on_c, 13, 59, 0
17, 84640, Note_on_c, 13, 59, 52
17, 84675, Note_on_c, 13, 59, 0
17, 84680, Note_on_c, 13, 59, 52
17, 84715, Note_on_c, 13, 59, 0
17, 84720, Note_on_c, 13, 56, 52
17, 84720, Note_on_c, 13, 53, 52
17, 84755, Note_on_c, 13, 56, 0
17, 84755, Note_on_c, 13, 53, 0
17, 84760, Note_on_c, 13, 56, 52
17, 84760, Note_on_c, 13, 53, 52
17, 84795, Note_on_c, 13, 56, 0
17, 84795, Note_on_c, 13, 53, 0
17, 84800, Note_on_c, 13, 56, 52
17, 84800, Note_on_c, 13, 53, 52
17, 84835, Note_on_c, 13, 56, 0
17, 84835, Note_on_c, 13, 53, 0
17, 84840, Note_on_c, 13, 56, 52
17, 84840, Note_on_c, 13, 53, 52
17, 84875, Note_on_c, 13, 56, 0
17, 84875, Note_on_c, 13, 53, 0
17, 84880, Note_on_c, 13, 56, 52
17, 84880, Note_on_c, 13, 53, 52
17, 84915, Note_on_c, 13, 56, 0
17, 84915, Note_on_c, 13, 53, 0
17, 84920, Note_on_c, 13, 56, 52
17, 84920, Note_on_c, 13, 53, 52
17, 84955, Note_on_c, 13, 56, 0
17, 84955, Note_on_c, 13, 53, 0
17, 84960, Note_on_c, 13, 56, 52
17, 84960, Note_on_c, 13, 53, 52
17, 84995, Note_on_c, 13, 56, 0
17, 84995, Note_on_c, 13, 53, 0
17, 85000, Note_on_c, 13, 53, 52
17, 85000, Note_on_c, 13, 56, 52
17, 85035, Note_on_c, 13, 53, 0
17, 85035, Note_on_c, 13, 56, 0
17, 85040, Note_on_c, 13, 56, 52
17, 85040, Note_on_c, 13, 53, 52
17, 85075, Note_on_c, 13, 56, 0
17, 85075, Note_on_c, 13, 53, 0
17, 85080, Note_on_c, 13, 56, 52
17, 85080, Note_on_c, 13, 53, 52
17, 85115, Note_on_c, 13, 56, 0
17, 85115, Note_on_c, 13, 53, 0
17, 85120, Note_on_c, 13, 53, 52
17, 85120, Note_on_c, 13, 56, 52
17, 85155, Note_on_c, 13, 53, 0
17, 85155, Note_on_c, 13, 56, 0
17, 85160, Note_on_c, 13, 56, 52
17, 85160, Note_on_c, 13, 53, 52
17, 85195, Note_on_c, 13, 56, 0
17, 85195, Note_on_c, 13, 53, 0
17, 85200, Note_on_c, 13, 53, 52
17, 85200, Note_on_c, 13, 56, 52
17, 85235, Note_on_c, 13, 53, 0
17, 85235, Note_on_c, 13, 56, 0
17, 85240, Note_on_c, 13, 59, 52
17, 85240, Note_on_c, 13, 62, 52
17, 85275, Note_on_c, 13, 59, 0
17, 85275, Note_on_c, 13, 62, 0
17, 85280, Note_on_c, 13, 59, 52
17, 85280, Note_on_c, 13, 62, 52
17, 85315, Note_on_c, 13, 59, 0
17, 85315, Note_on_c, 13, 62, 0
17, 85320, Note_on_c, 13, 59, 52
17, 85320, Note_on_c, 13, 62, 52
17, 85355, Note_on_c, 13, 59, 0
17, 85355, Note_on_c, 13, 62, 0
17, 85360, Note_on_c, 13, 59, 53
17, 85360, Note_on_c, 13, 62, 53
17, 85395, Note_on_c, 13, 59, 0
17, 85395, Note_on_c, 13, 62, 0
17, 85400, Note_on_c, 13, 59, 55
17, 85400, Note_on_c, 13, 62, 55
17, 85435, Note_on_c, 13, 59, 0
17, 85435, Note_on_c, 13, 62, 0
17, 85440, Note_on_c, 13, 59, 57
17, 85440, Note_on_c, 13, 62, 57
17, 85475, Note_on_c, 13, 59, 0
17, 85475, Note_on_c, 13, 62, 0
17, 85480, Note_on_c, 13, 59, 59
17, 85480, Note_on_c, 13, 62, 59
17, 85515, Note_on_c, 13, 59, 0
17, 85515, Note_on_c, 13, 62, 0
17, 85520, Note_on_c, 13, 59, 60
17, 85520, Note_on_c, 13, 62, 60
17, 85555, Note_on_c, 13, 59, 0
17, 85555, Note_on_c, 13, 62, 0
17, 85560, Note_on_c, 13, 59, 62
17, 85560, Note_on_c, 13, 62, 62
17, 85595, Note_on_c, 13, 59, 0
17, 85595, Note_on_c, 13, 62, 0
17, 85600, Note_on_c, 13, 59, 64
17, 85600, Note_on_c, 13, 62, 64
17, 85635, Note_on_c, 13, 59, 0
17, 85635, Note_on_c, 13, 62, 0
17, 85640, Note_on_c, 13, 59, 66
17, 85640, Note_on_c, 13, 62, 66
17, 85675, Note_on_c, 13, 59, 0
17, 85675, Note_on_c, 13, 62, 0
17, 85680, Note_on_c, 13, 58, 68
17, 85680, Note_on_c, 13, 62, 68
17, 85715, Note_on_c, 13, 58, 0
17, 85715, Note_on_c, 13, 62, 0
17, 85720, Note_on_c, 13, 58, 67
17, 85720, Note_on_c, 13, 62, 67
17, 85755, Note_on_c, 13, 58, 0
17, 85755, Note_on_c, 13, 62, 0
17, 85760, Note_on_c, 13, 58, 66
17, 85760, Note_on_c, 13, 62, 66
17, 85799, Note_on_c, 13, 58, 0
17, 85799, Note_on_c, 13, 62, 0
17, 85840, Note_on_c, 13, 58, 63
17, 85875, Note_on_c, 13, 58, 0
17, 85880, Note_on_c, 13, 58, 62
17, 85919, Note_on_c, 13, 58, 0
17, 85960, Note_on_c, 13, 58, 59
17, 85995, Note_on_c, 13, 58, 0
17, 86000, Note_on_c, 13, 58, 58
17, 86039, Note_on_c, 13, 58, 0
17, 86080, Note_on_c, 13, 58, 55
17, 86115, Note_on_c, 13, 58, 0
17, 86120, Note_on_c, 13, 58, 54
17, 86159, Note_on_c, 13, 58, 0
17, 86160, Control_c, 13, 11, 96
17, 86200, Note_on_c, 13, 58, 68
17, 86235, Note_on_c, 13, 58, 0
17, 86240, Note_on_c, 13, 58, 68
17, 86279, Note_on_c, 13, 58, 0
17, 86320, Note_on_c, 13, 60, 68
17, 86355, Note_on_c, 13, 60, 0
17, 86360, Note_on_c, 13, 60, 68
17, 86399, Note_on_c, 13, 60, 0
17, 86400, Note_on_c, 13, 58, 68
17, 86435, Note_on_c, 13, 58, 0
17, 86440, Note_on_c, 13, 60, 68
17, 86475, Note_on_c, 13, 60, 0
17, 86480, Note_on_c, 13, 58, 68
17, 86515, Note_on_c, 13, 58, 0
17, 86520, Note_on_c, 13, 56, 68
17, 86555, Note_on_c, 13, 56, 0
17, 86560, Note_on_c, 13, 55, 68
17, 86595, Note_on_c, 13, 55, 0
17, 86600, Note_on_c, 13, 53, 68
17, 86635, Note_on_c, 13, 53, 0
17, 86640, Note_on_c, 13, 58, 68
17, 86879, Note_on_c, 13, 58, 0
17, 86880, Note_on_c, 13, 56, 68
17, 86999, Note_on_c, 13, 56, 0
17, 87000, Note_on_c, 13, 55, 68
17, 87111, Note_on_c, 13, 55, 0
17, 87120, Control_c, 13, 11, 96
17, 87120, Note_on_c, 13, 53, 68
17, 87140, Control_c, 13, 11, 97
17, 87160, Control_c, 13, 11, 99
17, 87180, Control_c, 13, 11, 100
17, 87200, Control_c, 13, 11, 101
17, 87220, Control_c, 13, 11, 102
17, 87240, Control_c, 13, 11, 104
17, 87260, Control_c, 13, 11, 105
17, 87280, Control_c, 13, 11, 106
17, 87300, Control_c, 13, 11, 108
17, 87320, Control_c, 13, 11, 109
17, 87340, Control_c, 13, 11, 110
17, 87360, Control_c, 13, 11, 112
17, 87380, Control_c, 13, 11, 113
17, 87400, Control_c, 13, 11, 114
17, 87420, Control_c, 13, 11, 115
17, 87440, Control_c, 13, 11, 117
17, 87460, Control_c, 13, 11, 118
17, 87480, Control_c, 13, 11, 119
17, 87500, Control_c, 13, 11, 121
17, 87520, Control_c, 13, 11, 122
17, 87540, Control_c, 13, 11, 123
17, 87560, Control_c, 13, 11, 124
17, 87580, Control_c, 13, 11, 127
17, 87591, Note_on_c, 13, 53, 0
17, 87600, Note_on_c, 13, 56, 68
17, 87600, Control_c, 13, 11, 127
17, 87620, Control_c, 13, 11, 126
17, 87640, Control_c, 13, 11, 124
17, 87660, Control_c, 13, 11, 123
17, 87680, Control_c, 13, 11, 122
17, 87700, Control_c, 13, 11, 121
17, 87720, Control_c, 13, 11, 119
17, 87740, Control_c, 13, 11, 118
17, 87760, Control_c, 13, 11, 117
17, 87780, Control_c, 13, 11, 115
17, 87800, Control_c, 13, 11, 114
17, 87820, Control_c, 13, 11, 113
17, 87839, Note_on_c, 13, 56, 0
17, 87840, Control_c, 13, 11, 112
17, 87840, Note_on_c, 13, 58, 68
17, 87860, Control_c, 13, 11, 110
17, 87880, Control_c, 13, 11, 109
17, 87900, Control_c, 13, 11, 108
17, 87920, Control_c, 13, 11, 106
17, 87940, Control_c, 13, 11, 105
17, 87959, Note_on_c, 13, 58, 0
17, 87960, Note_on_c, 13, 53, 68
17, 87960, Control_c, 13, 11, 104
17, 87980, Control_c, 13, 11, 102
17, 88000, Control_c, 13, 11, 101
17, 88020, Control_c, 13, 11, 100
17, 88040, Control_c, 13, 11, 99
17, 88060, Control_c, 13, 11, 96
17, 88071, Note_on_c, 13, 53, 0
17, 88080, Note_on_c, 13, 55, 68
17, 88199, Note_on_c, 13, 55, 0
17, 88260, Control_c, 13, 11, 127
17, 88290, Note_on_c, 13, 60, 76
17, 88311, Note_on_c, 13, 60, 0
17, 88320, Note_on_c, 13, 60, 76
17, 88559, Note_on_c, 13, 60, 0
17, 88740, Control_c, 13, 11, 96
17, 88800, Note_on_c, 13, 48, 68
17, 88800, Note_on_c, 13, 60, 68
17, 88911, Note_on_c, 13, 48, 0
17, 88911, Note_on_c, 13, 60, 0
17, 88920, Note_on_c, 13, 60, 68
17, 88920, Note_on_c, 13, 48, 68
17, 89031, Note_on_c, 13, 60, 0
17, 89031, Note_on_c, 13, 48, 0
17, 89040, Note_on_c, 13, 60, 68
17, 89040, Control_c, 13, 11, 96
17, 89060, Control_c, 13, 11, 99
17, 89080, Control_c, 13, 11, 101
17, 89100, Control_c, 13, 11, 104
17, 89120, Control_c, 13, 11, 106
17, 89140, Control_c, 13, 11, 109
17, 89151, Note_on_c, 13, 60, 0
17, 89160, Control_c, 13, 11, 112
17, 89160, Note_on_c, 13, 48, 68
17, 89180, Control_c, 13, 11, 114
17, 89200, Control_c, 13, 11, 117
17, 89220, Control_c, 13, 11, 119
17, 89240, Control_c, 13, 11, 122
17, 89260, Control_c, 13, 11, 127
17, 89279, Note_on_c, 13, 48, 0
17, 89280, Note_on_c, 13, 51, 76
17, 89340, Control_c, 13, 11, 112
17, 89355, Control_c, 13, 11, 109
17, 89370, Control_c, 13, 11, 107
17, 89385, Control_c, 13, 11, 104
17, 89399, Note_on_c, 13, 51, 0
17, 89400, Note_on_c, 13, 48, 76
17, 89400, Control_c, 13, 11, 101
17, 89415, Control_c, 13, 11, 99
17, 89430, Control_c, 13, 11, 96
17, 89445, Control_c, 13, 11, 93
17, 89460, Control_c, 13, 11, 91
17, 89475, Control_c, 13, 11, 88
17, 89490, Control_c, 13, 11, 85
17, 89511, Note_on_c, 13, 48, 0
17, 89518, Control_c, 13, 11, 96
17, 89520, Note_on_c, 13, 50, 68
17, 89555, Note_on_c, 13, 50, 0
17, 89560, Note_on_c, 13, 55, 68
17, 89595, Note_on_c, 13, 55, 0
17, 89600, Note_on_c, 13, 55, 68
17, 89635, Note_on_c, 13, 55, 0
17, 89640, Note_on_c, 13, 55, 68
17, 89675, Note_on_c, 13, 55, 0
17, 89680, Note_on_c, 13, 55, 68
17, 89715, Note_on_c, 13, 55, 0
17, 89720, Note_on_c, 13, 55, 68
17, 89759, Note_on_c, 13, 55, 0
17, 89800, Note_on_c, 13, 55, 68
17, 89835, Note_on_c, 13, 55, 0
17, 89840, Note_on_c, 13, 55, 68
17, 89879, Note_on_c, 13, 55, 0
17, 89920, Note_on_c, 13, 55, 68
17, 89955, Note_on_c, 13, 55, 0
17, 89960, Note_on_c, 13, 55, 68
17, 89995, Note_on_c, 13, 55, 0
17, 90000, Note_on_c, 13, 55, 68
17, 90035, Note_on_c, 13, 55, 0
17, 90040, Note_on_c, 13, 55, 68
17, 90075, Note_on_c, 13, 55, 0
17, 90080, Note_on_c, 13, 55, 68
17, 90115, Note_on_c, 13, 55, 0
17, 90120, Note_on_c, 13, 55, 68
17, 90155, Note_on_c, 13, 55, 0
17, 90160, Note_on_c, 13, 55, 68
17, 90195, Note_on_c, 13, 55, 0
17, 90200, Note_on_c, 13, 55, 68
17, 90239, Note_on_c, 13, 55, 0
17, 90280, Note_on_c, 13, 55, 68
17, 90315, Note_on_c, 13, 55, 0
17, 90320, Note_on_c, 13, 55, 68
17, 90359, Note_on_c, 13, 55, 0
17, 90400, Note_on_c, 13, 55, 68
17, 90435, Note_on_c, 13, 55, 0
17, 90440, Note_on_c, 13, 55, 68
17, 90475, Note_on_c, 13, 55, 0
17, 90480, Note_on_c, 13, 55, 68
17, 90480, Control_c, 13, 11, 96
17, 90515, Note_on_c, 13, 55, 0
17, 90520, Note_on_c, 13, 55, 68
17, 90520, Control_c, 13, 11, 99
17, 90555, Note_on_c, 13, 55, 0
17, 90560, Control_c, 13, 11, 101
17, 90560, Note_on_c, 13, 55, 68
17, 90595, Note_on_c, 13, 55, 0
17, 90600, Note_on_c, 13, 55, 68
17, 90600, Control_c, 13, 11, 104
17, 90635, Note_on_c, 13, 55, 0
17, 90640, Note_on_c, 13, 55, 68
17, 90640, Control_c, 13, 11, 106
17, 90675, Note_on_c, 13, 55, 0
17, 90680, Control_c, 13, 11, 109
17, 90680, Note_on_c, 13, 55, 68
17, 90719, Note_on_c, 13, 55, 0
17, 90720, Control_c, 13, 11, 112
17, 90760, Control_c, 13, 11, 114
17, 90760, Note_on_c, 13, 55, 68
17, 90795, Note_on_c, 13, 55, 0
17, 90800, Control_c, 13, 11, 117
17, 90800, Note_on_c, 13, 55, 68
17, 90839, Note_on_c, 13, 55, 0
17, 90840, Control_c, 13, 11, 119
17, 90880, Control_c, 13, 11, 122
17, 90880, Note_on_c, 13, 55, 68
17, 90915, Note_on_c, 13, 55, 0
17, 90920, Control_c, 13, 11, 124
17, 90920, Note_on_c, 13, 55, 68
17, 90955, Note_on_c, 13, 55, 0
17, 90960, Note_on_c, 13, 55, 68
17, 90960, Control_c, 13, 11, 127
17, 90995, Note_on_c, 13, 55, 0
17, 91000, Note_on_c, 13, 55, 68
17, 91000, Control_c, 13, 11, 124
17, 91035, Note_on_c, 13, 55, 0
17, 91040, Control_c, 13, 11, 122
17, 91040, Note_on_c, 13, 55, 68
17, 91075, Note_on_c, 13, 55, 0
17, 91080, Note_on_c, 13, 55, 68
17, 91080, Control_c, 13, 11, 119
17, 91115, Note_on_c, 13, 55, 0
17, 91120, Note_on_c, 13, 55, 68
17, 91120, Control_c, 13, 11, 117
17, 91155, Note_on_c, 13, 55, 0
17, 91160, Control_c, 13, 11, 114
17, 91160, Note_on_c, 13, 55, 68
17, 91199, Note_on_c, 13, 55, 0
17, 91200, Control_c, 13, 11, 112
17, 91240, Control_c, 13, 11, 109
17, 91240, Note_on_c, 13, 55, 68
17, 91275, Note_on_c, 13, 55, 0
17, 91280, Control_c, 13, 11, 106
17, 91280, Note_on_c, 13, 55, 68
17, 91319, Note_on_c, 13, 55, 0
17, 91320, Control_c, 13, 11, 104
17, 91360, Control_c, 13, 11, 101
17, 91360, Note_on_c, 13, 54, 68
17, 91395, Note_on_c, 13, 54, 0
17, 91400, Control_c, 13, 11, 96
17, 91400, Note_on_c, 13, 54, 68
17, 91435, Note_on_c, 13, 54, 0
17, 91440, Note_on_c, 13, 55, 68
17, 91559, Note_on_c, 13, 55, 0
17, 92880, Control_c, 13, 11, 127
17, 93120, Note_on_c, 13, 60, 76
17, 93145, Note_on_c, 13, 60, 0
17, 93150, Note_on_c, 13, 60, 68
17, 93175, Note_on_c, 13, 60, 0
17, 93180, Note_on_c, 13, 60, 68
17, 93205, Note_on_c, 13, 60, 0
17, 93210, Note_on_c, 13, 60, 68
17, 93235, Note_on_c, 13, 60, 0
17, 93240, Note_on_c, 13, 60, 68
17, 93265, Note_on_c, 13, 60, 0
17, 93270, Note_on_c, 13, 60, 68
17, 93295, Note_on_c, 13, 60, 0
17, 93300, Note_on_c, 13, 60, 68
17, 93325, Note_on_c, 13, 60, 0
17, 93330, Note_on_c, 13, 60, 68
17, 93355, Note_on_c, 13, 60, 0
17, 93360, Note_on_c, 13, 60, 52
17, 93385, Note_on_c, 13, 60, 0
17, 93390, Note_on_c, 13, 60, 52
17, 93415, Note_on_c, 13, 60, 0
17, 93420, Note_on_c, 13, 60, 52
17, 93445, Note_on_c, 13, 60, 0
17, 93450, Note_on_c, 13, 60, 52
17, 93479, Note_on_c, 13, 60, 0
17, 93510, Note_on_c, 13, 60, 52
17, 93535, Note_on_c, 13, 60, 0
17, 93540, Note_on_c, 13, 60, 52
17, 93565, Note_on_c, 13, 60, 0
17, 93570, Note_on_c, 13, 60, 52
17, 93599, Note_on_c, 13, 60, 0
17, 93630, Note_on_c, 13, 60, 52
17, 93655, Note_on_c, 13, 60, 0
17, 93660, Note_on_c, 13, 60, 52
17, 93685, Note_on_c, 13, 60, 0
17, 93690, Note_on_c, 13, 60, 52
17, 93719, Note_on_c, 13, 60, 0
17, 93750, Note_on_c, 13, 56, 52
17, 93775, Note_on_c, 13, 56, 0
17, 93780, Note_on_c, 13, 56, 52
17, 93805, Note_on_c, 13, 56, 0
17, 93810, Note_on_c, 13, 56, 52
17, 93839, Note_on_c, 13, 56, 0
17, 93870, Note_on_c, 13, 56, 52
17, 93895, Note_on_c, 13, 56, 0
17, 93900, Note_on_c, 13, 56, 52
17, 93925, Note_on_c, 13, 56, 0
17, 93930, Note_on_c, 13, 56, 52
17, 93959, Note_on_c, 13, 56, 0
17, 93990, Note_on_c, 13, 56, 52
17, 94015, Note_on_c, 13, 56, 0
17, 94020, Note_on_c, 13, 56, 52
17, 94045, Note_on_c, 13, 56, 0
17, 94050, Note_on_c, 13, 56, 52
17, 94079, Note_on_c, 13, 56, 0
17, 94110, Note_on_c, 13, 56, 52
17, 94135, Note_on_c, 13, 56, 0
17, 94140, Note_on_c, 13, 56, 52
17, 94165, Note_on_c, 13, 56, 0
17, 94170, Note_on_c, 13, 56, 52
17, 94199, Note_on_c, 13, 56, 0
17, 94230, Note_on_c, 13, 56, 52
17, 94255, Note_on_c, 13, 56, 0
17, 94260, Note_on_c, 13, 56, 52
17, 94285, Note_on_c, 13, 56, 0
17, 94290, Note_on_c, 13, 56, 52
17, 94319, Note_on_c, 13, 56, 0
17, 94350, Note_on_c, 13, 56, 53
17, 94375, Note_on_c, 13, 56, 0
17, 94380, Note_on_c, 13, 56, 55
17, 94405, Note_on_c, 13, 56, 0
17, 94410, Note_on_c, 13, 56, 56
17, 94439, Note_on_c, 13, 56, 0
17, 94470, Note_on_c, 13, 56, 59
17, 94495, Note_on_c, 13, 56, 0
17, 94500, Note_on_c, 13, 56, 61
17, 94525, Note_on_c, 13, 56, 0
17, 94530, Note_on_c, 13, 56, 62
17, 94559, Note_on_c, 13, 56, 0
17, 94590, Note_on_c, 13, 56, 65
17, 94615, Note_on_c, 13, 56, 0
17, 94620, Note_on_c, 13, 56, 67
17, 94645, Note_on_c, 13, 56, 0
17, 94650, Note_on_c, 13, 56, 68
17, 94679, Note_on_c, 13, 56, 0
17, 94710, Note_on_c, 13, 56, 71
17, 94735, Note_on_c, 13, 56, 0
17, 94740, Note_on_c, 13, 56, 73
17, 94765, Note_on_c, 13, 56, 0
17, 94770, Note_on_c, 13, 56, 74
17, 94799, Note_on_c, 13, 56, 0
17, 94830, Note_on_c, 13, 55, 76
17, 94855, Note_on_c, 13, 55, 0
17, 94860, Note_on_c, 13, 55, 76
17, 94885, Note_on_c, 13, 55, 0
17, 94890, Note_on_c, 13, 55, 76
17, 94915, Note_on_c, 13, 55, 0
17, 94920, Note_on_c, 13, 53, 76
17, 94945, Note_on_c, 13, 53, 0
17, 94950, Note_on_c, 13, 53, 76
17, 94975, Note_on_c, 13, 53, 0
17, 94980, Note_on_c, 13, 53, 76
17, 95005, Note_on_c, 13, 53, 0
17, 95010, Note_on_c, 13, 53, 76
17, 95035, Note_on_c, 13, 53, 0
17, 95040, Note_on_c, 13, 53, 76
17, 95065, Note_on_c, 13, 53, 0
17, 95070, Note_on_c, 13, 53, 76
17, 95095, Note_on_c, 13, 53, 0
17, 95100, Note_on_c, 13, 53, 76
17, 95125, Note_on_c, 13, 53, 0
17, 95130, Note_on_c, 13, 53, 76
17, 95155, Note_on_c, 13, 53, 0
17, 95160, Note_on_c, 13, 51, 52
17, 95185, Note_on_c, 13, 51, 0
17, 95190, Note_on_c, 13, 51, 52
17, 95215, Note_on_c, 13, 51, 0
17, 95220, Note_on_c, 13, 51, 52
17, 95245, Note_on_c, 13, 51, 0
17, 95250, Note_on_c, 13, 51, 52
17, 95275, Note_on_c, 13, 51, 0
17, 95280, Note_on_c, 13, 51, 52
17, 95305, Note_on_c, 13, 51, 0
17, 95310, Note_on_c, 13, 51, 56
17, 95335, Note_on_c, 13, 51, 0
17, 95340, Note_on_c, 13, 51, 60
17, 95365, Note_on_c, 13, 51, 0
17, 95370, Note_on_c, 13, 51, 64
17, 95395, Note_on_c, 13, 51, 0
17, 95400, Note_on_c, 13, 51, 68
17, 95425, Note_on_c, 13, 51, 0
17, 95430, Note_on_c, 13, 51, 64
17, 95455, Note_on_c, 13, 51, 0
17, 95460, Note_on_c, 13, 51, 60
17, 95485, Note_on_c, 13, 51, 0
17, 95490, Note_on_c, 13, 51, 56
17, 95519, Note_on_c, 13, 51, 0
17, 95550, Note_on_c, 13, 50, 52
17, 95575, Note_on_c, 13, 50, 0
17, 95580, Note_on_c, 13, 50, 52
17, 95605, Note_on_c, 13, 50, 0
17, 95610, Note_on_c, 13, 50, 52
17, 95639, Note_on_c, 13, 50, 0
17, 95670, Note_on_c, 13, 55, 52
17, 95695, Note_on_c, 13, 55, 0
17, 95700, Note_on_c, 13, 55, 52
17, 95725, Note_on_c, 13, 55, 0
17, 95730, Note_on_c, 13, 55, 52
17, 95755, Note_on_c, 13, 55, 0
17, 95760, Note_on_c, 13, 48, 52
17, 95785, Note_on_c, 13, 48, 0
17, 95790, Note_on_c, 13, 60, 52
17, 95819, Note_on_c, 13, 60, 0
17, 95820, Note_on_c, 13, 63, 52
17, 95849, Note_on_c, 13, 63, 0
17, 95850, Note_on_c, 13, 60, 52
17, 95879, Note_on_c, 13, 60, 0
17, 95880, Note_on_c, 13, 63, 52
17, 95909, Note_on_c, 13, 63, 0
17, 95910, Note_on_c, 13, 60, 52
17, 95939, Note_on_c, 13, 60, 0
17, 95940, Note_on_c, 13, 63, 52
17, 95969, Note_on_c, 13, 63, 0
17, 95970, Note_on_c, 13, 60, 52
17, 95999, Note_on_c, 13, 60, 0
17, 96030, Note_on_c, 13, 62, 52
17, 96059, Note_on_c, 13, 62, 0
17, 96060, Note_on_c, 13, 65, 52
17, 96089, Note_on_c, 13, 65, 0
17, 96090, Note_on_c, 13, 62, 52
17, 96119, Note_on_c, 13, 62, 0
17, 96120, Note_on_c, 13, 65, 52
17, 96149, Note_on_c, 13, 65, 0
17, 96150, Note_on_c, 13, 62, 52
17, 96179, Note_on_c, 13, 62, 0
17, 96180, Note_on_c, 13, 65, 52
17, 96209, Note_on_c, 13, 65, 0
17, 96210, Note_on_c, 13, 62, 52
17, 96239, Note_on_c, 13, 62, 0
17, 96270, Note_on_c, 13, 60, 52
17, 96299, Note_on_c, 13, 60, 0
17, 96300, Note_on_c, 13, 63, 52
17, 96329, Note_on_c, 13, 63, 0
17, 96330, Note_on_c, 13, 60, 52
17, 96359, Note_on_c, 13, 60, 0
17, 96390, Note_on_c, 13, 60, 52
17, 96419, Note_on_c, 13, 60, 0
17, 96420, Note_on_c, 13, 63, 52
17, 96449, Note_on_c, 13, 63, 0
17, 96450, Note_on_c, 13, 60, 52
17, 96479, Note_on_c, 13, 60, 0
17, 96510, Note_on_c, 13, 60, 52
17, 96539, Note_on_c, 13, 60, 0
17, 96540, Note_on_c, 13, 63, 52
17, 96569, Note_on_c, 13, 63, 0
17, 96570, Note_on_c, 13, 60, 52
17, 96599, Note_on_c, 13, 60, 0
17, 96630, Note_on_c, 13, 60, 52
17, 96659, Note_on_c, 13, 60, 0
17, 96660, Note_on_c, 13, 63, 52
17, 96689, Note_on_c, 13, 63, 0
17, 96690, Note_on_c, 13, 60, 52
17, 96719, Note_on_c, 13, 60, 0
17, 96750, Note_on_c, 13, 55, 52
17, 96779, Note_on_c, 13, 55, 0
17, 96780, Note_on_c, 13, 62, 52
17, 96809, Note_on_c, 13, 62, 0
17, 96810, Note_on_c, 13, 55, 52
17, 96839, Note_on_c, 13, 55, 0
17, 96870, Note_on_c, 13, 55, 52
17, 96899, Note_on_c, 13, 55, 0
17, 96900, Note_on_c, 13, 62, 52
17, 96929, Note_on_c, 13, 62, 0
17, 96930, Note_on_c, 13, 55, 52
17, 96959, Note_on_c, 13, 55, 0
17, 96990, Note_on_c, 13, 55, 52
17, 97019, Note_on_c, 13, 55, 0
17, 97020, Note_on_c, 13, 60, 52
17, 97049, Note_on_c, 13, 60, 0
17, 97050, Note_on_c, 13, 55, 52
17, 97079, Note_on_c, 13, 55, 0
17, 97110, Note_on_c, 13, 55, 52
17, 97139, Note_on_c, 13, 55, 0
17, 97140, Note_on_c, 13, 60, 52
17, 97169, Note_on_c, 13, 60, 0
17, 97170, Note_on_c, 13, 55, 52
17, 97199, Note_on_c, 13, 55, 0
17, 97230, Note_on_c, 13, 55, 52
17, 97259, Note_on_c, 13, 55, 0
17, 97260, Note_on_c, 13, 60, 52
17, 97289, Note_on_c, 13, 60, 0
17, 97290, Note_on_c, 13, 55, 52
17, 97319, Note_on_c, 13, 55, 0
17, 97350, Note_on_c, 13, 55, 52
17, 97379, Note_on_c, 13, 55, 0
17, 97380, Note_on_c, 13, 59, 52
17, 97409, Note_on_c, 13, 59, 0
17, 97410, Note_on_c, 13, 55, 52
17, 97439, Note_on_c, 13, 55, 0
17, 97470, Note_on_c, 13, 55, 52
17, 97499, Note_on_c, 13, 55, 0
17, 97500, Note_on_c, 13, 59, 52
17, 97529, Note_on_c, 13, 59, 0
17, 97530, Note_on_c, 13, 55, 52
17, 97559, Note_on_c, 13, 55, 0
17, 97560, Note_on_c, 13, 59, 52
17, 97589, Note_on_c, 13, 59, 0
17, 97590, Note_on_c, 13, 55, 52
17, 97619, Note_on_c, 13, 55, 0
17, 97620, Note_on_c, 13, 59, 52
17, 97649, Note_on_c, 13, 59, 0
17, 97650, Note_on_c, 13, 55, 52
17, 97679, Note_on_c, 13, 55, 0
17, 97710, Note_on_c, 13, 56, 76
17, 97739, Note_on_c, 13, 56, 0
17, 97740, Note_on_c, 13, 60, 76
17, 97769, Note_on_c, 13, 60, 0
17, 97770, Note_on_c, 13, 56, 76
17, 97799, Note_on_c, 13, 56, 0
17, 97830, Note_on_c, 13, 56, 76
17, 97859, Note_on_c, 13, 56, 0
17, 97860, Note_on_c, 13, 60, 76
17, 97889, Note_on_c, 13, 60, 0
17, 97890, Note_on_c, 13, 56, 76
17, 97919, Note_on_c, 13, 56, 0
17, 97950, Note_on_c, 13, 56, 76
17, 97979, Note_on_c, 13, 56, 0
17, 97980, Note_on_c, 13, 60, 76
17, 98009, Note_on_c, 13, 60, 0
17, 98010, Note_on_c, 13, 56, 76
17, 98039, Note_on_c, 13, 56, 0
17, 98070, Note_on_c, 13, 56, 76
17, 98099, Note_on_c, 13, 56, 0
17, 98100, Note_on_c, 13, 60, 76
17, 98129, Note_on_c, 13, 60, 0
17, 98130, Note_on_c, 13, 56, 76
17, 98159, Note_on_c, 13, 56, 0
17, 98190, Note_on_c, 13, 57, 84
17, 98219, Note_on_c, 13, 57, 0
17, 98220, Note_on_c, 13, 60, 76
17, 98249, Note_on_c, 13, 60, 0
17, 98250, Note_on_c, 13, 57, 75
17, 98279, Note_on_c, 13, 57, 0
17, 98310, Note_on_c, 13, 57, 71
17, 98339, Note_on_c, 13, 57, 0
17, 98340, Note_on_c, 13, 60, 70
17, 98369, Note_on_c, 13, 60, 0
17, 98370, Note_on_c, 13, 57, 68
17, 98399, Note_on_c, 13, 57, 0
17, 98430, Note_on_c, 13, 57, 64
17, 98459, Note_on_c, 13, 57, 0
17, 98460, Note_on_c, 13, 60, 63
17, 98489, Note_on_c, 13, 60, 0
17, 98490, Note_on_c, 13, 57, 61
17, 98519, Note_on_c, 13, 57, 0
17, 98550, Note_on_c, 13, 57, 58
17, 98579, Note_on_c, 13, 57, 0
17, 98580, Note_on_c, 13, 60, 56
17, 98609, Note_on_c, 13, 60, 0
17, 98610, Note_on_c, 13, 57, 54
17, 98639, Note_on_c, 13, 57, 0
17, 98670, Note_on_c, 13, 55, 52
17, 98699, Note_on_c, 13, 55, 0
17, 98700, Note_on_c, 13, 60, 52
17, 98729, Note_on_c, 13, 60, 0
17, 98730, Note_on_c, 13, 55, 52
17, 98759, Note_on_c, 13, 55, 0
17, 98790, Note_on_c, 13, 55, 52
17, 98819, Note_on_c, 13, 55, 0
17, 98820, Note_on_c, 13, 60, 52
17, 98849, Note_on_c, 13, 60, 0
17, 98850, Note_on_c, 13, 55, 52
17, 98879, Note_on_c, 13, 55, 0
17, 98910, Note_on_c, 13, 55, 52
17, 98939, Note_on_c, 13, 55, 0
17, 98940, Note_on_c, 13, 62, 52
17, 98969, Note_on_c, 13, 62, 0
17, 98970, Note_on_c, 13, 55, 52
17, 98999, Note_on_c, 13, 55, 0
17, 99030, Note_on_c, 13, 55, 52
17, 99059, Note_on_c, 13, 55, 0
17, 99060, Note_on_c, 13, 62, 52
17, 99089, Note_on_c, 13, 62, 0
17, 99090, Note_on_c, 13, 55, 52
17, 99119, Note_on_c, 13, 55, 0
17, 99150, Note_on_c, 13, 55, 52
17, 99179, Note_on_c, 13, 55, 0
17, 99180, Note_on_c, 13, 56, 52
17, 99209, Note_on_c, 13, 56, 0
17, 99210, Note_on_c, 13, 55, 52
17, 99239, Note_on_c, 13, 55, 0
17, 99240, Note_on_c, 13, 56, 52
17, 99269, Note_on_c, 13, 56, 0
17, 99270, Note_on_c, 13, 55, 52
17, 99299, Note_on_c, 13, 55, 0
17, 99300, Note_on_c, 13, 56, 52
17, 99329, Note_on_c, 13, 56, 0
17, 99330, Note_on_c, 13, 55, 52
17, 99355, Note_on_c, 13, 55, 0
17, 99360, Note_on_c, 13, 56, 52
17, 99389, Note_on_c, 13, 56, 0
17, 99390, Note_on_c, 13, 55, 52
17, 99419, Note_on_c, 13, 55, 0
17, 99420, Note_on_c, 13, 56, 52
17, 99449, Note_on_c, 13, 56, 0
17, 99450, Note_on_c, 13, 55, 52
17, 99479, Note_on_c, 13, 55, 0
17, 99480, Note_on_c, 13, 56, 52
17, 99509, Note_on_c, 13, 56, 0
17, 99510, Note_on_c, 13, 55, 52
17, 99539, Note_on_c, 13, 55, 0
17, 99540, Note_on_c, 13, 56, 52
17, 99569, Note_on_c, 13, 56, 0
17, 99570, Note_on_c, 13, 55, 52
17, 99599, Note_on_c, 13, 55, 0
17, 99630, Note_on_c, 13, 55, 53
17, 99659, Note_on_c, 13, 55, 0
17, 99660, Note_on_c, 13, 60, 55
17, 99689, Note_on_c, 13, 60, 0
17, 99690, Note_on_c, 13, 55, 56
17, 99719, Note_on_c, 13, 55, 0
17, 99750, Note_on_c, 13, 55, 59
17, 99779, Note_on_c, 13, 55, 0
17, 99780, Note_on_c, 13, 60, 61
17, 99809, Note_on_c, 13, 60, 0
17, 99810, Note_on_c, 13, 55, 62
17, 99839, Note_on_c, 13, 55, 0
17, 99870, Note_on_c, 13, 55, 65
17, 99899, Note_on_c, 13, 55, 0
17, 99900, Note_on_c, 13, 62, 67
17, 99929, Note_on_c, 13, 62, 0
17, 99930, Note_on_c, 13, 55, 68
17, 99959, Note_on_c, 13, 55, 0
17, 99990, Note_on_c, 13, 55, 71
17, 100019, Note_on_c, 13, 55, 0
17, 100020, Note_on_c, 13, 62, 73
17, 100049, Note_on_c, 13, 62, 0
17, 100050, Note_on_c, 13, 55, 74
17, 100075, Note_on_c, 13, 55, 0
17, 100080, Note_on_c, 13, 56, 76
17, 100199, Note_on_c, 13, 56, 0
17, 102120, Note_on_c, 13, 56, 44
17, 102209, Note_on_c, 13, 56, 0
17, 102240, Note_on_c, 13, 48, 44
17, 102329, Note_on_c, 13, 48, 0
17, 102360, Note_on_c, 13, 56, 44
17, 102449, Note_on_c, 13, 56, 0
17, 102480, Note_on_c, 13, 48, 44
17, 102569, Note_on_c, 13, 48, 0
17, 102600, Note_on_c, 13, 56, 44
17, 102689, Note_on_c, 13, 56, 0
17, 102720, Note_on_c, 13, 48, 44
17, 102809, Note_on_c, 13, 48, 0
17, 102840, Note_on_c, 13, 56, 44
17, 102929, Note_on_c, 13, 56, 0
17, 102960, Note_on_c, 13, 49, 44
17, 103049, Note_on_c, 13, 49, 0
17, 103080, Note_on_c, 13, 56, 44
17, 103169, Note_on_c, 13, 56, 0
17, 103200, Note_on_c, 13, 49, 44
17, 103289, Note_on_c, 13, 49, 0
17, 103320, Note_on_c, 13, 56, 44
17, 103409, Note_on_c, 13, 56, 0
17, 103440, Note_on_c, 13, 48, 44
17, 103529, Note_on_c, 13, 48, 0
17, 103560, Note_on_c, 13, 56, 44
17, 103649, Note_on_c, 13, 56, 0
17, 103680, Note_on_c, 13, 48, 44
17, 103769, Note_on_c, 13, 48, 0
17, 103800, Note_on_c, 13, 56, 44
17, 103889, Note_on_c, 13, 56, 0
17, 103920, Note_on_c, 13, 49, 44
17, 104009, Note_on_c, 13, 49, 0
17, 104040, Note_on_c, 13, 56, 44
17, 104129, Note_on_c, 13, 56, 0
17, 104160, Note_on_c, 13, 49, 44
17, 104249, Note_on_c, 13, 49, 0
17, 104280, Note_on_c, 13, 56, 44
17, 104369, Note_on_c, 13, 56, 0
17, 104520, Note_on_c, 13, 56, 44
17, 104639, Note_on_c, 13, 56, 0
17, 104760, Note_on_c, 13, 55, 44
17, 104871, Note_on_c, 13, 55, 0
17, 104880, Note_on_c, 13, 55, 44
17, 104999, Note_on_c, 13, 55, 0
17, 106560, Control_c, 13, 11, 96
17, 106800, Note_on_c, 13, 60, 60
17, 107039, Note_on_c, 13, 60, 0
17, 107040, Note_on_c, 13, 55, 60
17, 107159, Note_on_c, 13, 55, 0
17, 107160, Note_on_c, 13, 58, 60
17, 107271, Note_on_c, 13, 58, 0
17, 107280, Note_on_c, 13, 56, 60
17, 107519, Note_on_c, 13, 56, 0
17, 107520, Note_on_c, 13, 55, 60
17, 107639, Note_on_c, 13, 55, 0
17, 107640, Note_on_c, 13, 53, 60
17, 107751, Note_on_c, 13, 53, 0
17, 107760, Control_c, 13, 11, 96
17, 107760, Note_on_c, 13, 52, 60
17, 107806, Control_c, 13, 11, 97
17, 107853, Control_c, 13, 11, 98
17, 107899, Control_c, 13, 11, 99
17, 107946, Control_c, 13, 11, 100
17, 107992, Control_c, 13, 11, 101
17, 107999, Note_on_c, 13, 52, 0
17, 108000, Note_on_c, 13, 55, 60
17, 108039, Control_c, 13, 11, 102
17, 108085, Control_c, 13, 11, 103
17, 108119, Note_on_c, 13, 55, 0
17, 108120, Note_on_c, 13, 60, 60
17, 108132, Control_c, 13, 11, 104
17, 108178, Control_c, 13, 11, 105
17, 108225, Control_c, 13, 11, 106
17, 108231, Note_on_c, 13, 60, 0
17, 108240, Note_on_c, 13, 60, 60
17, 108271, Control_c, 13, 11, 107
17, 108317, Control_c, 13, 11, 108
17, 108364, Control_c, 13, 11, 109
17, 108410, Control_c, 13, 11, 110
17, 108457, Control_c, 13, 11, 111
17, 108479, Note_on_c, 13, 60, 0
17, 108480, Note_on_c, 13, 58, 60
17, 108503, Control_c, 13, 11, 112
17, 108550, Control_c, 13, 11, 113
17, 108596, Control_c, 13, 11, 114
17, 108599, Note_on_c, 13, 58, 0
17, 108600, Note_on_c, 13, 56, 60
17, 108643, Control_c, 13, 11, 115
17, 108689, Control_c, 13, 11, 116
17, 108711, Note_on_c, 13, 56, 0
17, 108720, Note_on_c, 13, 58, 60
17, 108735, Control_c, 13, 11, 117
17, 108782, Control_c, 13, 11, 118
17, 108828, Control_c, 13, 11, 119
17, 108839, Note_on_c, 13, 58, 0
17, 108840, Note_on_c, 13, 56, 60
17, 108875, Control_c, 13, 11, 120
17, 108921, Control_c, 13, 11, 121
17, 108959, Note_on_c, 13, 56, 0
17, 108960, Note_on_c, 13, 55, 60
17, 108968, Control_c, 13, 11, 122
17, 109014, Control_c, 13, 11, 123
17, 109061, Control_c, 13, 11, 124
17, 109079, Note_on_c, 13, 55, 0
17, 109080, Note_on_c, 13, 53, 60
17, 109107, Control_c, 13, 11, 125
17, 109191, Note_on_c, 13, 53, 0
17, 109198, Control_c, 13, 11, 96
17, 109200, Note_on_c, 13, 60, 68
17, 109200, Control_c, 13, 11, 96
17, 109220, Control_c, 13, 11, 97
17, 109240, Control_c, 13, 11, 99
17, 109260, Control_c, 13, 11, 100
17, 109280, Control_c, 13, 11, 101
17, 109300, Control_c, 13, 11, 102
17, 109320, Control_c, 13, 11, 104
17, 109340, Control_c, 13, 11, 105
17, 109360, Control_c, 13, 11, 106
17, 109380, Control_c, 13, 11, 108
17, 109400, Control_c, 13, 11, 109
17, 109420, Control_c, 13, 11, 110
17, 109440, Control_c, 13, 11, 112
17, 109460, Control_c, 13, 11, 113
17, 109480, Control_c, 13, 11, 114
17, 109500, Control_c, 13, 11, 115
17, 109520, Control_c, 13, 11, 117
17, 109540, Control_c, 13, 11, 118
17, 109560, Control_c, 13, 11, 119
17, 109580, Control_c, 13, 11, 121
17, 109600, Control_c, 13, 11, 122
17, 109620, Control_c, 13, 11, 123
17, 109640, Control_c, 13, 11, 124
17, 109660, Control_c, 13, 11, 127
17, 109679, Note_on_c, 13, 60, 0
17, 109680, Note_on_c, 13, 56, 52
17, 109799, Note_on_c, 13, 56, 0
17, 110160, Note_on_c, 13, 55, 52
17, 110279, Note_on_c, 13, 55, 0
17, 110610, Control_c, 13, 11, 96
17, 110640, Control_c, 13, 11, 96
17, 110640, Note_on_c, 13, 53, 68
17, 110660, Control_c, 13, 11, 98
17, 110680, Control_c, 13, 11, 99
17, 110700, Control_c, 13, 11, 101
17, 110720, Control_c, 13, 11, 103
17, 110740, Control_c, 13, 11, 105
17, 110760, Control_c, 13, 11, 106
17, 110780, Control_c, 13, 11, 108
17, 110800, Control_c, 13, 11, 110
17, 110820, Control_c, 13, 11, 112
17, 110840, Control_c, 13, 11, 113
17, 110860, Control_c, 13, 11, 115
17, 110880, Control_c, 13, 11, 117
17, 110900, Control_c, 13, 11, 118
17, 110920, Control_c, 13, 11, 120
17, 110940, Control_c, 13, 11, 122
17, 110960, Control_c, 13, 11, 124
17, 110980, Control_c, 13, 11, 127
17, 111000, Control_c, 13, 11, 127
17, 111013, Control_c, 13, 11, 124
17, 111027, Control_c, 13, 11, 120
17, 111040, Control_c, 13, 11, 117
17, 111053, Control_c, 13, 11, 113
17, 111067, Control_c, 13, 11, 110
17, 111080, Control_c, 13, 11, 106
17, 111093, Control_c, 13, 11, 103
17, 111107, Control_c, 13, 11, 96
17, 111119, Note_on_c, 13, 53, 0
17, 111120, Note_on_c, 13, 51, 68
17, 111239, Note_on_c, 13, 51, 0
17, 111600, Note_on_c, 13, 53, 68
17, 111600, Control_c, 13, 11, 96
17, 111620, Control_c, 13, 11, 99
17, 111640, Control_c, 13, 11, 101
17, 111660, Control_c, 13, 11, 104
17, 111680, Control_c, 13, 11, 106
17, 111700, Control_c, 13, 11, 109
17, 111720, Control_c, 13, 11, 112
17, 111740, Control_c, 13, 11, 114
17, 111760, Control_c, 13, 11, 117
17, 111780, Control_c, 13, 11, 119
17, 111800, Control_c, 13, 11, 122
17, 111820, Control_c, 13, 11, 124
17, 111840, Control_c, 13, 11, 127
17, 111860, Control_c, 13, 11, 124
17, 111880, Control_c, 13, 11, 122
17, 111900, Control_c, 13, 11, 119
17, 111920, Control_c, 13, 11, 117
17, 111940, Control_c, 13, 11, 114
17, 111960, Control_c, 13, 11, 112
17, 111980, Control_c, 13, 11, 109
17, 112000, Control_c, 13, 11, 106
17, 112020, Control_c, 13, 11, 104
17, 112040, Control_c, 13, 11, 101
17, 112060, Control_c, 13, 11, 96
17, 112079, Note_on_c, 13, 53, 0
17, 112080, Note_on_c, 13, 51, 68
17, 112199, Note_on_c, 13, 51, 0
17, 112560, Note_on_c, 13, 53, 68
17, 113039, Note_on_c, 13, 53, 0
17, 113040, Control_c, 13, 11, 96
17, 113040, Note_on_c, 13, 53, 68
17, 113080, Control_c, 13, 11, 99
17, 113120, Control_c, 13, 11, 101
17, 113160, Control_c, 13, 11, 104
17, 113200, Control_c, 13, 11, 106
17, 113240, Control_c, 13, 11, 109
17, 113280, Control_c, 13, 11, 112
17, 113320, Control_c, 13, 11, 114
17, 113360, Control_c, 13, 11, 117
17, 113400, Control_c, 13, 11, 119
17, 113440, Control_c, 13, 11, 122
17, 113500, Control_c, 13, 11, 127
17, 113519, Note_on_c, 13, 53, 0
17, 113520, Control_c, 13, 11, 127
17, 113520, Note_on_c, 13, 53, 68
17, 113560, Control_c, 13, 11, 124
17, 113600, Control_c, 13, 11, 122
17, 113640, Control_c, 13, 11, 119
17, 113680, Control_c, 13, 11, 117
17, 113720, Control_c, 13, 11, 114
17, 113760, Control_c, 13, 11, 112
17, 113800, Control_c, 13, 11, 109
17, 113840, Control_c, 13, 11, 106
17, 113871, Note_on_c, 13, 53, 0
17, 113880, Note_on_c, 13, 53, 68
17, 113880, Control_c, 13, 11, 104
17, 113920, Control_c, 13, 11, 101
17, 113960, Control_c, 13, 11, 96
17, 113999, Note_on_c, 13, 53, 0
17, 114238, Control_c, 13, 11, 127
17, 117720, Note_on_c, 13, 53, 44
17, 117771, Note_on_c, 13, 53, 0
17, 117780, Note_on_c, 13, 53, 44
17, 117831, Note_on_c, 13, 53, 0
17, 117840, Note_on_c, 13, 51, 44
17, 117959, Note_on_c, 13, 51, 0
17, 118080, Note_on_c, 13, 60, 76
17, 118080, Note_on_c, 13, 48, 76
17, 118199, Note_on_c, 13, 60, 0
17, 118199, Note_on_c, 13, 48, 0
17, 118320, Note_on_c, 13, 48, 52
17, 118679, Note_on_c, 13, 48, 0
17, 118679, End_track
18, 0, Start_track
18, 0, Title_t, "Cello"
18, 0, MIDI_port, 0
18, 0, Program_c, 14, 48
18, 0, Control_c, 14, 7, 96
18, 0, Control_c, 14, 10, 90
18, 0, Control_c, 14, 11, 127
18, 240, Note_on_c, 14, 48, 44
18, 479, Note_on_c, 14, 48, 0
18, 720, Note_on_c, 14, 48, 44
18, 959, Note_on_c, 14, 48, 0
18, 1200, Note_on_c, 14, 48, 44
18, 1424, Note_on_c, 14, 48, 0
18, 1440, Note_on_c, 14, 48, 44
18, 1664, Note_on_c, 14, 48, 0
18, 1680, Note_on_c, 14, 48, 44
18, 1919, Note_on_c, 14, 48, 0
18, 1920, Note_on_c, 14, 47, 44
18, 2039, Note_on_c, 14, 47, 0
18, 2160, Note_on_c, 14, 47, 44
18, 2399, Note_on_c, 14, 47, 0
18, 2640, Note_on_c, 14, 50, 60
18, 2760, Control_c, 14, 11, 127
18, 2773, Control_c, 14, 11, 125
18, 2787, Control_c, 14, 11, 124
18, 2800, Control_c, 14, 11, 122
18, 2813, Control_c, 14, 11, 120
18, 2827, Control_c, 14, 11, 118
18, 2840, Control_c, 14, 11, 117
18, 2853, Control_c, 14, 11, 115
18, 2867, Control_c, 14, 11, 113
18, 2880, Control_c, 14, 11, 112
18, 2893, Control_c, 14, 11, 110
18, 2907, Control_c, 14, 11, 108
18, 2920, Control_c, 14, 11, 106
18, 2933, Control_c, 14, 11, 105
18, 2947, Control_c, 14, 11, 103
18, 2960, Control_c, 14, 11, 101
18, 2973, Control_c, 14, 11, 99
18, 2987, Control_c, 14, 11, 98
18, 2991, Note_on_c, 14, 50, 0
18, 3000, Control_c, 14, 11, 96
18, 3000, Note_on_c, 14, 50, 60
18, 3111, Note_on_c, 14, 50, 0
18, 3120, Note_on_c, 14, 48, 60
18, 3231, Note_on_c, 14, 48, 0
18, 3240, Note_on_c, 14, 48, 60
18, 3351, Note_on_c, 14, 48, 0
18, 3360, Note_on_c, 14, 48, 60
18, 3479, Note_on_c, 14, 48, 0
18, 3480, Note_on_c, 14, 47, 60
18, 3569, Note_on_c, 14, 47, 0
18, 3570, Note_on_c, 14, 50, 60
18, 3595, Note_on_c, 14, 50, 0
18, 3600, Note_on_c, 14, 48, 60
18, 3711, Note_on_c, 14, 48, 0
18, 3720, Note_on_c, 14, 53, 60
18, 3801, Note_on_c, 14, 53, 0
18, 3810, Note_on_c, 14, 53, 60
18, 3835, Note_on_c, 14, 53, 0
18, 3840, Note_on_c, 14, 48, 60
18, 3959, Note_on_c, 14, 48, 0
18, 4020, Note_on_c, 14, 48, 60
18, 4039, Note_on_c, 14, 48, 0
18, 4040, Note_on_c, 14, 48, 60
18, 4059, Note_on_c, 14, 48, 0
18, 4060, Note_on_c, 14, 48, 60
18, 4075, Note_on_c, 14, 48, 0
18, 4080, Note_on_c, 14, 48, 60
18, 4199, Note_on_c, 14, 48, 0
18, 4320, Control_c, 14, 11, 127
18, 4500, Note_on_c, 14, 48, 44
18, 4519, Note_on_c, 14, 48, 0
18, 4520, Note_on_c, 14, 48, 44
18, 4539, Note_on_c, 14, 48, 0
18, 4540, Note_on_c, 14, 48, 44
18, 4555, Note_on_c, 14, 48, 0
18, 4560, Note_on_c, 14, 48, 44
18, 4679, Note_on_c, 14, 48, 0
18, 4980, Note_on_c, 14, 48, 44
18, 4999, Note_on_c, 14, 48, 0
18, 5000, Note_on_c, 14, 48, 44
18, 5019, Note_on_c, 14, 48, 0
18, 5020, Note_on_c, 14, 48, 44
18, 5035, Note_on_c, 14, 48, 0
18, 5040, Note_on_c, 14, 48, 44
18, 5159, Note_on_c, 14, 48, 0
18, 5220, Note_on_c, 14, 48, 44
18, 5239, Note_on_c, 14, 48, 0
18, 5240, Note_on_c, 14, 48, 44
18, 5259, Note_on_c, 14, 48, 0
18, 5260, Note_on_c, 14, 48, 44
18, 5275, Note_on_c, 14, 48, 0
18, 5280, Note_on_c, 14, 51, 44
18, 5399, Note_on_c, 14, 51, 0
18, 5430, Control_c, 14, 11, 96
18, 5460, Note_on_c, 14, 51, 60
18, 5479, Note_on_c, 14, 51, 0
18, 5480, Note_on_c, 14, 51, 60
18, 5499, Note_on_c, 14, 51, 0
18, 5500, Note_on_c, 14, 51, 60
18, 5515, Note_on_c, 14, 51, 0
18, 5520, Note_on_c, 14, 55, 60
18, 5520, Control_c, 14, 11, 96
18, 5540, Control_c, 14, 11, 99
18, 5560, Control_c, 14, 11, 101
18, 5580, Control_c, 14, 11, 104
18, 5600, Control_c, 14, 11, 106
18, 5620, Control_c, 14, 11, 109
18, 5639, Note_on_c, 14, 55, 0
18, 5640, Control_c, 14, 11, 112
18, 5660, Control_c, 14, 11, 114
18, 5680, Control_c, 14, 11, 117
18, 5700, Note_on_c, 14, 55, 60
18, 5700, Control_c, 14, 11, 119
18, 5719, Note_on_c, 14, 55, 0
18, 5720, Control_c, 14, 11, 122
18, 5720, Note_on_c, 14, 55, 60
18, 5739, Note_on_c, 14, 55, 0
18, 5740, Control_c, 14, 11, 124
18, 5740, Note_on_c, 14, 55, 60
18, 5755, Note_on_c, 14, 55, 0
18, 5760, Control_c, 14, 11, 127
18, 5760, Note_on_c, 14, 55, 60
18, 5773, Control_c, 14, 11, 124
18, 5787, Control_c, 14, 11, 120
18, 5800, Control_c, 14, 11, 117
18, 5813, Control_c, 14, 11, 113
18, 5827, Control_c, 14, 11, 110
18, 5840, Control_c, 14, 11, 106
18, 5853, Control_c, 14, 11, 103
18, 5867, Control_c, 14, 11, 96
18, 5879, Note_on_c, 14, 55, 0
18, 5940, Note_on_c, 14, 55, 60
18, 5959, Note_on_c, 14, 55, 0
18, 5960, Note_on_c, 14, 55, 60
18, 5979, Note_on_c, 14, 55, 0
18, 5980, Note_on_c, 14, 55, 60
18, 5995, Note_on_c, 14, 55, 0
18, 6000, Note_on_c, 14, 53, 60
18, 6119, Note_on_c, 14, 53, 0
18, 6420, Note_on_c, 14, 47, 68
18, 6439, Note_on_c, 14, 47, 0
18, 6440, Note_on_c, 14, 47, 68
18, 6459, Note_on_c, 14, 47, 0
18, 6460, Note_on_c, 14, 47, 68
18, 6475, Note_on_c, 14, 47, 0
18, 6480, Note_on_c, 14, 47, 68
18, 6599, Note_on_c, 14, 47, 0
18, 6900, Note_on_c, 14, 47, 68
18, 6900, Control_c, 14, 11, 96
18, 6919, Note_on_c, 14, 47, 0
18, 6920, Control_c, 14, 11, 99
18, 6920, Note_on_c, 14, 47, 68
18, 6939, Note_on_c, 14, 47, 0
18, 6940, Note_on_c, 14, 47, 68
18, 6940, Control_c, 14, 11, 101
18, 6955, Note_on_c, 14, 47, 0
18, 6960, Note_on_c, 14, 46, 68
18, 6960, Control_c, 14, 11, 104
18, 6980, Control_c, 14, 11, 106
18, 7000, Control_c, 14, 11, 109
18, 7020, Control_c, 14, 11, 112
18, 7040, Control_c, 14, 11, 114
18, 7060, Control_c, 14, 11, 117
18, 7079, Note_on_c, 14, 46, 0
18, 7080, Control_c, 14, 11, 119
18, 7100, Control_c, 14, 11, 122
18, 7120, Control_c, 14, 11, 124
18, 7140, Control_c, 14, 11, 127
18, 7140, Note_on_c, 14, 46, 68
18, 7159, Note_on_c, 14, 46, 0
18, 7160, Note_on_c, 14, 46, 68
18, 7165, Control_c, 14, 11, 124
18, 7179, Note_on_c, 14, 46, 0
18, 7180, Note_on_c, 14, 46, 68
18, 7190, Control_c, 14, 11, 122
18, 7195, Note_on_c, 14, 46, 0
18, 7200, Note_on_c, 14, 46, 68
18, 7215, Control_c, 14, 11, 119
18, 7240, Control_c, 14, 11, 117
18, 7265, Control_c, 14, 11, 114
18, 7290, Control_c, 14, 11, 112
18, 7315, Control_c, 14, 11, 109
18, 7319, Note_on_c, 14, 46, 0
18, 7340, Control_c, 14, 11, 106
18, 7365, Control_c, 14, 11, 104
18, 7380, Note_on_c, 14, 46, 68
18, 7390, Control_c, 14, 11, 101
18, 7399, Note_on_c, 14, 46, 0
18, 7400, Note_on_c, 14, 46, 68
18, 7415, Control_c, 14, 11, 96
18, 7419, Note_on_c, 14, 46, 0
18, 7420, Note_on_c, 14, 46, 68
18, 7435, Note_on_c, 14, 46, 0
18, 7440, Note_on_c, 14, 51, 68
18, 7559, Note_on_c, 14, 51, 0
18, 7800, Control_c, 14, 11, 127
18, 7920, Note_on_c, 14, 46, 52
18, 8151, Note_on_c, 14, 46, 0
18, 8160, Note_on_c, 14, 46, 52
18, 8264, Note_on_c, 14, 46, 0
18, 8280, Note_on_c, 14, 46, 52
18, 8384, Note_on_c, 14, 46, 0
18, 8400, Note_on_c, 14, 46, 52
18, 8519, Note_on_c, 14, 46, 0
18, 8640, Control_c, 14, 11, 96
18, 8880, Control_c, 14, 11, 96
18, 8880, Note_on_c, 14, 48, 76
18, 8910, Control_c, 14, 11, 97
18, 8940, Control_c, 14, 11, 99
18, 8970, Control_c, 14, 11, 100
18, 9000, Control_c, 14, 11, 101
18, 9030, Control_c, 14, 11, 102
18, 9060, Control_c, 14, 11, 104
18, 9090, Control_c, 14, 11, 105
18, 9119, Note_on_c, 14, 48, 0
18, 9120, Control_c, 14, 11, 106
18, 9120, Note_on_c, 14, 46, 76
18, 9150, Control_c, 14, 11, 108
18, 9180, Control_c, 14, 11, 109
18, 9210, Control_c, 14, 11, 110
18, 9239, Note_on_c, 14, 46, 0
18, 9240, Note_on_c, 14, 44, 76
18, 9240, Control_c, 14, 11, 112
18, 9270, Control_c, 14, 11, 113
18, 9300, Control_c, 14, 11, 114
18, 9330, Control_c, 14, 11, 115
18, 9351, Note_on_c, 14, 44, 0
18, 9360, Note_on_c, 14, 43, 76
18, 9360, Control_c, 14, 11, 117
18, 9390, Control_c, 14, 11, 118
18, 9420, Control_c, 14, 11, 119
18, 9450, Control_c, 14, 11, 121
18, 9479, Note_on_c, 14, 43, 0
18, 9480, Control_c, 14, 11, 122
18, 9510, Control_c, 14, 11, 123
18, 9540, Control_c, 14, 11, 124
18, 9570, Note_on_c, 14, 52, 76
18, 9570, Control_c, 14, 11, 126
18, 9591, Note_on_c, 14, 52, 0
18, 9600, Note_on_c, 14, 52, 76
18, 9600, Control_c, 14, 11, 127
18, 9839, Note_on_c, 14, 52, 0
18, 10080, Note_on_c, 14, 53, 52
18, 10199, Note_on_c, 14, 53, 0
18, 10200, Note_on_c, 14, 55, 52
18, 10311, Note_on_c, 14, 55, 0
18, 10320, Note_on_c, 14, 56, 52
18, 10559, Note_on_c, 14, 56, 0
18, 10560, Note_on_c, 14, 56, 68
18, 10620, Control_c, 14, 11, 127
18, 10635, Control_c, 14, 11, 124
18, 10650, Control_c, 14, 11, 122
18, 10665, Control_c, 14, 11, 119
18, 10680, Control_c, 14, 11, 117
18, 10695, Control_c, 14, 11, 114
18, 10710, Control_c, 14, 11, 112
18, 10725, Control_c, 14, 11, 109
18, 10740, Control_c, 14, 11, 106
18, 10755, Control_c, 14, 11, 104
18, 10770, Control_c, 14, 11, 101
18, 10785, Control_c, 14, 11, 96
18, 10799, Note_on_c, 14, 56, 0
18, 10800, Note_on_c, 14, 55, 68
18, 11039, Note_on_c, 14, 55, 0
18, 11040, Note_on_c, 14, 50, 68
18, 11159, Note_on_c, 14, 50, 0
18, 11160, Note_on_c, 14, 53, 68
18, 11279, Note_on_c, 14, 53, 0
18, 11280, Note_on_c, 14, 51, 68
18, 11519, Note_on_c, 14, 51, 0
18, 11520, Note_on_c, 14, 50, 68
18, 11639, Note_on_c, 14, 50, 0
18, 11640, Note_on_c, 14, 48, 68
18, 11751, Note_on_c, 14, 48, 0
18, 11760, Control_c, 14, 11, 96
18, 11760, Note_on_c, 14, 47, 68
18, 11780, Control_c, 14, 11, 97
18, 11800, Control_c, 14, 11, 99
18, 11820, Control_c, 14, 11, 100
18, 11840, Control_c, 14, 11, 101
18, 11860, Control_c, 14, 11, 102
18, 11880, Control_c, 14, 11, 104
18, 11900, Control_c, 14, 11, 105
18, 11920, Control_c, 14, 11, 106
18, 11940, Control_c, 14, 11, 108
18, 11960, Control_c, 14, 11, 109
18, 11980, Control_c, 14, 11, 110
18, 12000, Control_c, 14, 11, 112
18, 12020, Control_c, 14, 11, 113
18, 12040, Control_c, 14, 11, 114
18, 12060, Control_c, 14, 11, 115
18, 12080, Control_c, 14, 11, 117
18, 12100, Control_c, 14, 11, 118
18, 12119, Note_on_c, 14, 47, 0
18, 12120, Note_on_c, 14, 50, 68
18, 12120, Control_c, 14, 11, 119
18, 12140, Control_c, 14, 11, 121
18, 12160, Control_c, 14, 11, 122
18, 12180, Control_c, 14, 11, 123
18, 12200, Control_c, 14, 11, 124
18, 12220, Control_c, 14, 11, 126
18, 12239, Note_on_c, 14, 50, 0
18, 12240, Control_c, 14, 11, 127
18, 12240, Note_on_c, 14, 48, 68
18, 12260, Control_c, 14, 11, 126
18, 12280, Control_c, 14, 11, 124
18, 12300, Control_c, 14, 11, 123
18, 12320, Control_c, 14, 11, 122
18, 12340, Control_c, 14, 11, 121
18, 12360, Control_c, 14, 11, 119
18, 12380, Control_c, 14, 11, 118
18, 12400, Control_c, 14, 11, 117
18, 12420, Control_c, 14, 11, 115
18, 12440, Control_c, 14, 11, 114
18, 12460, Control_c, 14, 11, 113
18, 12479, Note_on_c, 14, 48, 0
18, 12480, Control_c, 14, 11, 112
18, 12480, Note_on_c, 14, 46, 68
18, 12500, Control_c, 14, 11, 110
18, 12520, Control_c, 14, 11, 109
18, 12540, Control_c, 14, 11, 108
18, 12560, Control_c, 14, 11, 106
18, 12580, Control_c, 14, 11, 105
18, 12599, Note_on_c, 14, 46, 0
18, 12600, Note_on_c, 14, 44, 68
18, 12600, Control_c, 14, 11, 104
18, 12620, Control_c, 14, 11, 102
18, 12640, Control_c, 14, 11, 101
18, 12660, Control_c, 14, 11, 100
18, 12680, Control_c, 14, 11, 99
18, 12700, Control_c, 14, 11, 96
18, 12711, Note_on_c, 14, 44, 0
18, 12720, Note_on_c, 14, 43, 68
18, 12720, Control_c, 14, 11, 96
18, 12750, Control_c, 14, 11, 97
18, 12780, Control_c, 14, 11, 98
18, 12810, Control_c, 14, 11, 99
18, 12839, Note_on_c, 14, 43, 0
18, 12840, Control_c, 14, 11, 100
18, 12840, Note_on_c, 14, 44, 68
18, 12870, Control_c, 14, 11, 101
18, 12900, Control_c, 14, 11, 102
18, 12930, Control_c, 14, 11, 103
18, 12959, Note_on_c, 14, 44, 0
18, 12960, Note_on_c, 14, 43, 68
18, 12960, Control_c, 14, 11, 104
18, 12990, Control_c, 14, 11, 105
18, 13020, Control_c, 14, 11, 106
18, 13050, Control_c, 14, 11, 107
18, 13079, Note_on_c, 14, 43, 0
18, 13080, Note_on_c, 14, 48, 68
18, 13080, Control_c, 14, 11, 108
18, 13110, Control_c, 14, 11, 109
18, 13140, Control_c, 14, 11, 110
18, 13170, Control_c, 14, 11, 111
18, 13199, Note_on_c, 14, 48, 0
18, 13200, Note_on_c, 14, 47, 68
18, 13319, Note_on_c, 14, 47, 0
18, 13320, Note_on_c, 14, 51, 68
18, 13439, Note_on_c, 14, 51, 0
18, 13440, Control_c, 14, 11, 112
18, 13440, Note_on_c, 14, 50, 68
18, 13485, Control_c, 14, 11, 111
18, 13530, Control_c, 14, 11, 110
18, 13559, Note_on_c, 14, 50, 0
18, 13560, Note_on_c, 14, 48, 68
18, 13575, Control_c, 14, 11, 109
18, 13620, Control_c, 14, 11, 108
18, 13665, Control_c, 14, 11, 107
18, 13671, Note_on_c, 14, 48, 0
18, 13680, Note_on_c, 14, 47, 68
18, 13710, Control_c, 14, 11, 106
18, 13755, Control_c, 14, 11, 105
18, 13800, Control_c, 14, 11, 104
18, 13845, Control_c, 14, 11, 103
18, 13890, Control_c, 14, 11, 102
18, 13919, Note_on_c, 14, 47, 0
18, 13920, Note_on_c, 14, 44, 68
18, 13935, Control_c, 14, 11, 101
18, 13980, Control_c, 14, 11, 100
18, 14025, Control_c, 14, 11, 99
18, 14070, Control_c, 14, 11, 98
18, 14115, Control_c, 14, 11, 96
18, 14159, Note_on_c, 14, 44, 0
18, 14160, Note_on_c, 14, 43, 68
18, 14399, Note_on_c, 14, 43, 0
18, 14399, Control_c, 14, 11, 127
18, 14400, Note_on_c, 14, 36, 68
18, 14400, Note_on_c, 14, 43, 68
18, 14624, Note_on_c, 14, 36, 0
18, 14624, Note_on_c, 14, 43, 0
18, 14640, Note_on_c, 14, 41, 52
18, 14879, Note_on_c, 14, 41, 0
18, 15060, Note_on_c, 14, 53, 52
18, 15089, Note_on_c, 14, 53, 0
18, 15090, Note_on_c, 14, 51, 52
18, 15119, Note_on_c, 14, 51, 0
18, 15120, Note_on_c, 14, 49, 52
18, 15359, Note_on_c, 14, 49, 0
18, 15510, Control_c, 14, 11, 80
18, 15540, Note_on_c, 14, 49, 76
18, 15569, Note_on_c, 14, 49, 0
18, 15570, Note_on_c, 14, 48, 76
18, 15599, Note_on_c, 14, 48, 0
18, 15600, Control_c, 14, 11, 80
18, 15600, Note_on_c, 14, 47, 76
18, 15620, Control_c, 14, 11, 82
18, 15640, Control_c, 14, 11, 84
18, 15660, Control_c, 14, 11, 86
18, 15680, Control_c, 14, 11, 88
18, 15700, Control_c, 14, 11, 90
18, 15719, Note_on_c, 14, 47, 0
18, 15720, Control_c, 14, 11, 92
18, 15740, Control_c, 14, 11, 94
18, 15760, Control_c, 14, 11, 96
18, 15780, Note_on_c, 14, 47, 76
18, 15780, Control_c, 14, 11, 98
18, 15799, Note_on_c, 14, 47, 0
18, 15800, Note_on_c, 14, 47, 76
18, 15800, Control_c, 14, 11, 100
18, 15819, Note_on_c, 14, 47, 0
18, 15820, Control_c, 14, 11, 102
18, 15820, Note_on_c, 14, 47, 76
18, 15835, Note_on_c, 14, 47, 0
18, 15840, Control_c, 14, 11, 104
18, 15840, Note_on_c, 14, 53, 76
18, 15860, Control_c, 14, 11, 105
18, 15880, Control_c, 14, 11, 107
18, 15900, Control_c, 14, 11, 109
18, 15920, Control_c, 14, 11, 111
18, 15940, Control_c, 14, 11, 113
18, 15959, Note_on_c, 14, 53, 0
18, 15960, Control_c, 14, 11, 115
18, 15980, Control_c, 14, 11, 117
18, 16000, Control_c, 14, 11, 119
18, 16020, Control_c, 14, 11, 121
18, 16020, Note_on_c, 14, 53, 76
18, 16039, Note_on_c, 14, 53, 0
18, 16040, Note_on_c, 14, 53, 76
18, 16040, Control_c, 14, 11, 123
18, 16059, Note_on_c, 14, 53, 0
18, 16060, Note_on_c, 14, 53, 76
18, 16060, Control_c, 14, 11, 127
18, 16075, Note_on_c, 14, 53, 0
18, 16080, Note_on_c, 14, 51, 76
18, 16169, Note_on_c, 14, 51, 0
18, 16200, Note_on_c, 14, 53, 76
18, 16289, Note_on_c, 14, 53, 0
18, 16410, Control_c, 14, 11, 96
18, 16440, Note_on_c, 14, 51, 68
18, 16440, Control_c, 14, 11, 96
18, 16460, Control_c, 14, 11, 99
18, 16480, Control_c, 14, 11, 101
18, 16500, Control_c, 14, 11, 104
18, 16520, Control_c, 14, 11, 106
18, 16540, Control_c, 14, 11, 109
18, 16560, Control_c, 14, 11, 112
18, 16580, Control_c, 14, 11, 114
18, 16600, Control_c, 14, 11, 117
18, 16620, Control_c, 14, 11, 119
18, 16640, Control_c, 14, 11, 122
18, 16660, Control_c, 14, 11, 127
18, 16671, Note_on_c, 14, 51, 0
18, 16680, Note_on_c, 14, 48, 76
18, 16919, Note_on_c, 14, 48, 0
18, 16920, Note_on_c, 14, 47, 76
18, 16980, Control_c, 14, 11, 127
18, 16985, Control_c, 14, 11, 123
18, 16990, Control_c, 14, 11, 119
18, 16995, Control_c, 14, 11, 115
18, 17000, Control_c, 14, 11, 111
18, 17005, Control_c, 14, 11, 107
18, 17010, Control_c, 14, 11, 104
18, 17015, Control_c, 14, 11, 100
18, 17020, Control_c, 14, 11, 96
18, 17025, Control_c, 14, 11, 92
18, 17030, Control_c, 14, 11, 88
18, 17035, Control_c, 14, 11, 80
18, 17039, Note_on_c, 14, 47, 0
18, 17040, Note_on_c, 14, 48, 76
18, 17129, Note_on_c, 14, 48, 0
18, 17160, Note_on_c, 14, 56, 76
18, 17231, Note_on_c, 14, 56, 0
18, 17250, Note_on_c, 14, 56, 76
18, 17271, Note_on_c, 14, 56, 0
18, 17280, Note_on_c, 14, 50, 76
18, 17369, Note_on_c, 14, 50, 0
18, 17400, Note_on_c, 14, 58, 76
18, 17471, Note_on_c, 14, 58, 0
18, 17490, Note_on_c, 14, 58, 76
18, 17511, Note_on_c, 14, 58, 0
18, 17520, Note_on_c, 14, 51, 76
18, 17639, Note_on_c, 14, 51, 0
18, 17910, Control_c, 14, 11, 127
18, 17940, Note_on_c, 14, 51, 52
18, 17959, Note_on_c, 14, 51, 0
18, 17960, Note_on_c, 14, 51, 52
18, 17979, Note_on_c, 14, 51, 0
18, 17980, Note_on_c, 14, 51, 52
18, 17995, Note_on_c, 14, 51, 0
18, 18000, Note_on_c, 14, 46, 52
18, 18119, Note_on_c, 14, 46, 0
18, 18420, Note_on_c, 14, 46, 52
18, 18439, Note_on_c, 14, 46, 0
18, 18440, Note_on_c, 14, 46, 52
18, 18459, Note_on_c, 14, 46, 0
18, 18460, Note_on_c, 14, 46, 52
18, 18475, Note_on_c, 14, 46, 0
18, 18480, Note_on_c, 14, 48, 52
18, 18599, Note_on_c, 14, 48, 0
18, 18660, Note_on_c, 14, 48, 58
18, 18679, Note_on_c, 14, 48, 0
18, 18680, Note_on_c, 14, 48, 58
18, 18699, Note_on_c, 14, 48, 0
18, 18700, Note_on_c, 14, 48, 59
18, 18715, Note_on_c, 14, 48, 0
18, 18720, Note_on_c, 14, 46, 60
18, 18839, Note_on_c, 14, 46, 0
18, 18900, Note_on_c, 14, 44, 66
18, 18919, Note_on_c, 14, 44, 0
18, 18920, Note_on_c, 14, 44, 66
18, 18939, Note_on_c, 14, 44, 0
18, 18940, Note_on_c, 14, 44, 67
18, 18955, Note_on_c, 14, 44, 0
18, 18960, Note_on_c, 14, 43, 68
18, 19079, Note_on_c, 14, 43, 0
18, 19140, Note_on_c, 14, 52, 74
18, 19155, Note_on_c, 14, 52, 0
18, 19160, Note_on_c, 14, 52, 74
18, 19175, Note_on_c, 14, 52, 0
18, 19180, Note_on_c, 14, 52, 75
18, 19195, Note_on_c, 14, 52, 0
18, 19200, Note_on_c, 14, 52, 76
18, 19319, Note_on_c, 14, 52, 0
18, 19380, Note_on_c, 14, 52, 76
18, 19395, Note_on_c, 14, 52, 0
18, 19400, Note_on_c, 14, 52, 76
18, 19415, Note_on_c, 14, 52, 0
18, 19420, Note_on_c, 14, 52, 76
18, 19435, Note_on_c, 14, 52, 0
18, 19440, Note_on_c, 14, 52, 52
18, 19559, Note_on_c, 14, 52, 0
18, 19620, Note_on_c, 14, 52, 52
18, 19635, Note_on_c, 14, 52, 0
18, 19640, Note_on_c, 14, 52, 52
18, 19655, Note_on_c, 14, 52, 0
18, 19660, Note_on_c, 14, 52, 52
18, 19675, Note_on_c, 14, 52, 0
18, 19680, Note_on_c, 14, 53, 52
18, 19799, Note_on_c, 14, 53, 0
18, 19860, Note_on_c, 14, 55, 52
18, 19875, Note_on_c, 14, 55, 0
18, 19880, Note_on_c, 14, 55, 52
18, 19895, Note_on_c, 14, 55, 0
18, 19900, Note_on_c, 14, 55, 52
18, 19915, Note_on_c, 14, 55, 0
18, 19920, Note_on_c, 14, 56, 52
18, 20039, Note_on_c, 14, 56, 0
18, 20100, Note_on_c, 14, 44, 52
18, 20115, Note_on_c, 14, 44, 0
18, 20120, Note_on_c, 14, 44, 52
18, 20135, Note_on_c, 14, 44, 0
18, 20140, Note_on_c, 14, 44, 52
18, 20155, Note_on_c, 14, 44, 0
18, 20160, Note_on_c, 14, 44, 60
18, 20279, Note_on_c, 14, 44, 0
18, 20340, Note_on_c, 14, 44, 52
18, 20355, Note_on_c, 14, 44, 0
18, 20360, Note_on_c, 14, 44, 52
18, 20375, Note_on_c, 14, 44, 0
18, 20380, Note_on_c, 14, 44, 52
18, 20395, Note_on_c, 14, 44, 0
18, 20400, Note_on_c, 14, 43, 52
18, 20519, Note_on_c, 14, 43, 0
18, 20820, Note_on_c, 14, 43, 52
18, 20835, Note_on_c, 14, 43, 0
18, 20840, Note_on_c, 14, 43, 52
18, 20855, Note_on_c, 14, 43, 0
18, 20860, Note_on_c, 14, 43, 52
18, 20875, Note_on_c, 14, 43, 0
18, 20880, Note_on_c, 14, 43, 52
18, 20999, Note_on_c, 14, 43, 0
18, 21300, Note_on_c, 14, 43, 52
18, 21315, Note_on_c, 14, 43, 0
18, 21320, Note_on_c, 14, 43, 52
18, 21335, Note_on_c, 14, 43, 0
18, 21340, Note_on_c, 14, 43, 52
18, 21355, Note_on_c, 14, 43, 0
18, 21360, Note_on_c, 14, 43, 52
18, 21479, Note_on_c, 14, 43, 0
18, 21780, Note_on_c, 14, 43, 66
18, 21795, Note_on_c, 14, 43, 0
18, 21800, Note_on_c, 14, 43, 66
18, 21815, Note_on_c, 14, 43, 0
18, 21820, Note_on_c, 14, 43, 67
18, 21835, Note_on_c, 14, 43, 0
18, 21840, Note_on_c, 14, 43, 68
18, 21959, Note_on_c, 14, 43, 0
18, 22020, Note_on_c, 14, 43, 62
18, 22035, Note_on_c, 14, 43, 0
18, 22040, Note_on_c, 14, 43, 62
18, 22055, Note_on_c, 14, 43, 0
18, 22060, Note_on_c, 14, 43, 61
18, 22075, Note_on_c, 14, 43, 0
18, 22080, Note_on_c, 14, 43, 60
18, 22199, Note_on_c, 14, 43, 0
18, 22260, Note_on_c, 14, 43, 54
18, 22275, Note_on_c, 14, 43, 0
18, 22280, Note_on_c, 14, 43, 54
18, 22295, Note_on_c, 14, 43, 0
18, 22300, Note_on_c, 14, 43, 53
18, 22315, Note_on_c, 14, 43, 0
18, 22320, Note_on_c, 14, 43, 52
18, 22439, Note_on_c, 14, 43, 0
18, 24180, Note_on_c, 14, 48, 68
18, 24195, Note_on_c, 14, 48, 0
18, 24200, Note_on_c, 14, 48, 52
18, 24215, Note_on_c, 14, 48, 0
18, 24220, Note_on_c, 14, 48, 52
18, 24235, Note_on_c, 14, 48, 0
18, 24240, Note_on_c, 14, 53, 52
18, 24359, Note_on_c, 14, 53, 0
18, 24660, Note_on_c, 14, 53, 52
18, 24675, Note_on_c, 14, 53, 0
18, 24680, Note_on_c, 14, 53, 52
18, 24695, Note_on_c, 14, 53, 0
18, 24700, Note_on_c, 14, 53, 52
18, 24715, Note_on_c, 14, 53, 0
18, 24720, Note_on_c, 14, 49, 52
18, 24839, Note_on_c, 14, 49, 0
18, 25140, Note_on_c, 14, 49, 52
18, 25155, Note_on_c, 14, 49, 0
18, 25160, Note_on_c, 14, 49, 52
18, 25175, Note_on_c, 14, 49, 0
18, 25180, Note_on_c, 14, 49, 52
18, 25195, Note_on_c, 14, 49, 0
18, 25200, Note_on_c, 14, 47, 52
18, 25319, Note_on_c, 14, 47, 0
18, 25380, Note_on_c, 14, 47, 61
18, 25395, Note_on_c, 14, 47, 0
18, 25400, Note_on_c, 14, 47, 62
18, 25415, Note_on_c, 14, 47, 0
18, 25420, Note_on_c, 14, 47, 63
18, 25435, Note_on_c, 14, 47, 0
18, 25440, Note_on_c, 14, 53, 64
18, 25559, Note_on_c, 14, 53, 0
18, 25620, Note_on_c, 14, 53, 73
18, 25635, Note_on_c, 14, 53, 0
18, 25640, Note_on_c, 14, 53, 74
18, 25655, Note_on_c, 14, 53, 0
18, 25660, Note_on_c, 14, 53, 75
18, 25675, Note_on_c, 14, 53, 0
18, 25680, Note_on_c, 14, 51, 76
18, 25769, Note_on_c, 14, 51, 0
18, 25800, Note_on_c, 14, 53, 76
18, 25889, Note_on_c, 14, 53, 0
18, 26100, Note_on_c, 14, 56, 52
18, 26115, Note_on_c, 14, 56, 0
18, 26120, Note_on_c, 14, 56, 52
18, 26135, Note_on_c, 14, 56, 0
18, 26140, Note_on_c, 14, 56, 52
18, 26155, Note_on_c, 14, 56, 0
18, 26160, Note_on_c, 14, 56, 52
18, 26279, Note_on_c, 14, 56, 0
18, 26340, Note_on_c, 14, 55, 64
18, 26355, Note_on_c, 14, 55, 0
18, 26360, Note_on_c, 14, 55, 65
18, 26375, Note_on_c, 14, 55, 0
18, 26380, Note_on_c, 14, 55, 66
18, 26395, Note_on_c, 14, 55, 0
18, 26400, Note_on_c, 14, 55, 68
18, 26519, Note_on_c, 14, 55, 0
18, 26580, Note_on_c, 14, 43, 56
18, 26595, Note_on_c, 14, 43, 0
18, 26600, Note_on_c, 14, 43, 55
18, 26615, Note_on_c, 14, 43, 0
18, 26620, Note_on_c, 14, 43, 54
18, 26635, Note_on_c, 14, 43, 0
18, 26640, Note_on_c, 14, 48, 52
18, 26759, Note_on_c, 14, 48, 0
18, 26820, Note_on_c, 14, 48, 52
18, 26834, Note_on_c, 14, 48, 0
18, 26835, Note_on_c, 14, 50, 52
18, 26849, Note_on_c, 14, 50, 0
18, 26850, Note_on_c, 14, 51, 52
18, 26864, Note_on_c, 14, 51, 0
18, 26865, Note_on_c, 14, 53, 52
18, 26879, Note_on_c, 14, 53, 0
18, 26880, Note_on_c, 14, 55, 52
18, 26969, Note_on_c, 14, 55, 0
18, 27060, Note_on_c, 14, 55, 52
18, 27079, Note_on_c, 14, 55, 0
18, 27080, Note_on_c, 14, 57, 52
18, 27099, Note_on_c, 14, 57, 0
18, 27100, Note_on_c, 14, 59, 52
18, 27115, Note_on_c, 14, 59, 0
18, 27120, Note_on_c, 14, 60, 52
18, 27239, Note_on_c, 14, 60, 0
18, 27240, Note_on_c, 14, 55, 52
18, 27359, Note_on_c, 14, 55, 0
18, 27360, Note_on_c, 14, 51, 52
18, 27479, Note_on_c, 14, 51, 0
18, 27480, Note_on_c, 14, 48, 52
18, 27591, Note_on_c, 14, 48, 0
18, 27600, Note_on_c, 14, 47, 52
18, 27719, Note_on_c, 14, 47, 0
18, 27720, Note_on_c, 14, 43, 52
18, 27839, Note_on_c, 14, 43, 0
18, 27840, Note_on_c, 14, 48, 68
18, 27959, Note_on_c, 14, 48, 0
18, 27960, Note_on_c, 14, 51, 52
18, 28071, Note_on_c, 14, 51, 0
18, 28080, Note_on_c, 14, 55, 52
18, 28319, Note_on_c, 14, 55, 0
18, 28320, Note_on_c, 14, 43, 52
18, 28409, Note_on_c, 14, 43, 0
18, 29460, Note_on_c, 14, 54, 52
18, 29475, Note_on_c, 14, 54, 0
18, 29480, Note_on_c, 14, 54, 52
18, 29495, Note_on_c, 14, 54, 0
18, 29500, Note_on_c, 14, 54, 52
18, 29515, Note_on_c, 14, 54, 0
18, 29520, Note_on_c, 14, 55, 52
18, 29639, Note_on_c, 14, 55, 0
18, 29700, Note_on_c, 14, 55, 52
18, 29715, Note_on_c, 14, 55, 0
18, 29720, Note_on_c, 14, 55, 52
18, 29735, Note_on_c, 14, 55, 0
18, 29740, Note_on_c, 14, 55, 52
18, 29755, Note_on_c, 14, 55, 0
18, 29760, Note_on_c, 14, 43, 52
18, 29879, Note_on_c, 14, 43, 0
18, 29940, Note_on_c, 14, 43, 52
18, 29955, Note_on_c, 14, 43, 0
18, 29960, Note_on_c, 14, 43, 52
18, 29975, Note_on_c, 14, 43, 0
18, 29980, Note_on_c, 14, 43, 52
18, 29995, Note_on_c, 14, 43, 0
18, 30000, Note_on_c, 14, 48, 52
18, 30119, Note_on_c, 14, 48, 0
18, 30480, Note_on_c, 14, 55, 52
18, 30599, Note_on_c, 14, 55, 0
18, 30660, Note_on_c, 14, 55, 52
18, 30675, Note_on_c, 14, 55, 0
18, 30680, Note_on_c, 14, 55, 52
18, 30695, Note_on_c, 14, 55, 0
18, 30700, Note_on_c, 14, 55, 52
18, 30715, Note_on_c, 14, 55, 0
18, 30720, Note_on_c, 14, 43, 52
18, 30839, Note_on_c, 14, 43, 0
18, 30900, Note_on_c, 14, 43, 52
18, 30915, Note_on_c, 14, 43, 0
18, 30920, Note_on_c, 14, 43, 52
18, 30935, Note_on_c, 14, 43, 0
18, 30940, Note_on_c, 14, 43, 52
18, 30955, Note_on_c, 14, 43, 0
18, 30960, Note_on_c, 14, 48, 52
18, 31071, Note_on_c, 14, 48, 0
18, 31080, Note_on_c, 14, 56, 68
18, 31199, Note_on_c, 14, 56, 0
18, 31200, Note_on_c, 14, 55, 52
18, 31319, Note_on_c, 14, 55, 0
18, 31320, Note_on_c, 14, 51, 68
18, 31439, Note_on_c, 14, 51, 0
18, 31440, Note_on_c, 14, 48, 52
18, 31551, Note_on_c, 14, 48, 0
18, 31560, Note_on_c, 14, 44, 76
18, 31641, Note_on_c, 14, 44, 0
18, 31650, Note_on_c, 14, 53, 76
18, 31675, Note_on_c, 14, 53, 0
18, 31680, Note_on_c, 14, 50, 76
18, 31769, Note_on_c, 14, 50, 0
18, 31800, Note_on_c, 14, 55, 76
18, 31889, Note_on_c, 14, 55, 0
18, 31920, Note_on_c, 14, 48, 52
18, 32009, Note_on_c, 14, 48, 0
18, 32160, Note_on_c, 14, 48, 52
18, 32249, Note_on_c, 14, 48, 0
18, 32400, Note_on_c, 14, 48, 52
18, 32489, Note_on_c, 14, 48, 0
18, 32520, Note_on_c, 14, 43, 52
18, 32609, Note_on_c, 14, 43, 0
18, 32640, Note_on_c, 14, 45, 52
18, 32729, Note_on_c, 14, 45, 0
18, 32760, Note_on_c, 14, 47, 52
18, 32849, Note_on_c, 14, 47, 0
18, 32880, Note_on_c, 14, 48, 52
18, 33471, Note_on_c, 14, 48, 0
18, 33480, Note_on_c, 14, 48, 52
18, 33569, Note_on_c, 14, 48, 0
18, 33600, Note_on_c, 14, 50, 52
18, 33689, Note_on_c, 14, 50, 0
18, 33720, Note_on_c, 14, 52, 52
18, 33809, Note_on_c, 14, 52, 0
18, 33840, Note_on_c, 14, 53, 52
18, 34431, Note_on_c, 14, 53, 0
18, 34440, Note_on_c, 14, 50, 52
18, 34529, Note_on_c, 14, 50, 0
18, 34560, Note_on_c, 14, 52, 52
18, 34649, Note_on_c, 14, 52, 0
18, 34680, Note_on_c, 14, 53, 52
18, 34769, Note_on_c, 14, 53, 0
18, 34800, Note_on_c, 14, 55, 52
18, 35264, Note_on_c, 14, 55, 0
18, 35272, Control_c, 14, 11, 64
18, 35280, Note_on_c, 14, 56, 84
18, 35369, Note_on_c, 14, 56, 0
18, 35400, Control_c, 14, 11, 64
18, 35400, Note_on_c, 14, 62, 84
18, 35435, Control_c, 14, 11, 67
18, 35470, Control_c, 14, 11, 69
18, 35489, Note_on_c, 14, 62, 0
18, 35505, Control_c, 14, 11, 72
18, 35520, Note_on_c, 14, 59, 84
18, 35540, Control_c, 14, 11, 75
18, 35575, Control_c, 14, 11, 77
18, 35609, Note_on_c, 14, 59, 0
18, 35610, Control_c, 14, 11, 80
18, 35640, Note_on_c, 14, 56, 84
18, 35645, Control_c, 14, 11, 82
18, 35680, Control_c, 14, 11, 85
18, 35715, Control_c, 14, 11, 88
18, 35729, Note_on_c, 14, 56, 0
18, 35750, Control_c, 14, 11, 90
18, 35760, Note_on_c, 14, 57, 84
18, 35785, Control_c, 14, 11, 93
18, 35820, Control_c, 14, 11, 96
18, 35849, Note_on_c, 14, 57, 0
18, 35855, Control_c, 14, 11, 98
18, 35880, Note_on_c, 14, 48, 84
18, 35890, Control_c, 14, 11, 101
18, 35925, Control_c, 14, 11, 103
18, 35960, Control_c, 14, 11, 106
18, 35969, Note_on_c, 14, 48, 0
18, 35995, Control_c, 14, 11, 109
18, 36000, Note_on_c, 14, 50, 84
18, 36030, Control_c, 14, 11, 111
18, 36065, Control_c, 14, 11, 114
18, 36089, Note_on_c, 14, 50, 0
18, 36100, Control_c, 14, 11, 117
18, 36120, Note_on_c, 14, 50, 84
18, 36135, Control_c, 14, 11, 119
18, 36170, Control_c, 14, 11, 122
18, 36205, Control_c, 14, 11, 127
18, 36209, Note_on_c, 14, 50, 0
18, 36240, Note_on_c, 14, 43, 84
18, 36259, Note_on_c, 14, 43, 0
18, 36260, Note_on_c, 14, 43, 84
18, 36279, Note_on_c, 14, 43, 0
18, 36280, Note_on_c, 14, 43, 84
18, 36299, Note_on_c, 14, 43, 0
18, 36300, Note_on_c, 14, 43, 84
18, 36319, Note_on_c, 14, 43, 0
18, 36320, Note_on_c, 14, 43, 84
18, 36339, Note_on_c, 14, 43, 0
18, 36340, Note_on_c, 14, 43, 84
18, 36359, Note_on_c, 14, 43, 0
18, 36360, Note_on_c, 14, 43, 84
18, 36379, Note_on_c, 14, 43, 0
18, 36380, Note_on_c, 14, 43, 84
18, 36399, Note_on_c, 14, 43, 0
18, 36400, Note_on_c, 14, 43, 84
18, 36419, Note_on_c, 14, 43, 0
18, 36420, Note_on_c, 14, 43, 84
18, 36439, Note_on_c, 14, 43, 0
18, 36440, Note_on_c, 14, 43, 84
18, 36459, Note_on_c, 14, 43, 0
18, 36460, Note_on_c, 14, 43, 84
18, 36479, Note_on_c, 14, 43, 0
18, 36480, Note_on_c, 14, 43, 84
18, 36569, Note_on_c, 14, 43, 0
18, 36720, Note_on_c, 14, 55, 84
18, 36739, Note_on_c, 14, 55, 0
18, 36740, Note_on_c, 14, 55, 84
18, 36759, Note_on_c, 14, 55, 0
18, 36760, Note_on_c, 14, 55, 84
18, 36779, Note_on_c, 14, 55, 0
18, 36780, Note_on_c, 14, 55, 84
18, 36799, Note_on_c, 14, 55, 0
18, 36800, Note_on_c, 14, 55, 84
18, 36819, Note_on_c, 14, 55, 0
18, 36820, Note_on_c, 14, 55, 84
18, 36839, Note_on_c, 14, 55, 0
18, 36840, Note_on_c, 14, 55, 84
18, 36859, Note_on_c, 14, 55, 0
18, 36860, Note_on_c, 14, 55, 84
18, 36879, Note_on_c, 14, 55, 0
18, 36880, Note_on_c, 14, 55, 84
18, 36899, Note_on_c, 14, 55, 0
18, 36900, Note_on_c, 14, 55, 84
18, 36919, Note_on_c, 14, 55, 0
18, 36920, Note_on_c, 14, 55, 84
18, 36939, Note_on_c, 14, 55, 0
18, 36940, Note_on_c, 14, 55, 84
18, 36959, Note_on_c, 14, 55, 0
18, 36960, Note_on_c, 14, 55, 84
18, 37049, Note_on_c, 14, 55, 0
18, 37200, Note_on_c, 14, 55, 84
18, 37289, Note_on_c, 14, 55, 0
18, 37440, Note_on_c, 14, 55, 84
18, 37529, Note_on_c, 14, 55, 0
18, 37680, Note_on_c, 14, 55, 84
18, 37769, Note_on_c, 14, 55, 0
18, 38160, Note_on_c, 14, 58, 52
18, 38399, Note_on_c, 14, 58, 0
18, 38400, Note_on_c, 14, 55, 52
18, 38519, Note_on_c, 14, 55, 0
18, 38520, Note_on_c, 14, 52, 52
18, 38631, Note_on_c, 14, 52, 0
18, 38640, Note_on_c, 14, 48, 52
18, 38759, Note_on_c, 14, 48, 0
18, 38760, Note_on_c, 14, 52, 52
18, 38879, Note_on_c, 14, 52, 0
18, 38880, Note_on_c, 14, 55, 52
18, 38999, Note_on_c, 14, 55, 0
18, 39000, Note_on_c, 14, 58, 52
18, 39104, Note_on_c, 14, 58, 0
18, 39120, Control_c, 14, 11, 96
18, 39120, Note_on_c, 14, 57, 68
18, 39160, Control_c, 14, 11, 97
18, 39200, Control_c, 14, 11, 99
18, 39239, Note_on_c, 14, 57, 0
18, 39240, Note_on_c, 14, 53, 68
18, 39240, Control_c, 14, 11, 100
18, 39280, Control_c, 14, 11, 101
18, 39320, Control_c, 14, 11, 102
18, 39359, Note_on_c, 14, 53, 0
18, 39360, Note_on_c, 14, 52, 68
18, 39360, Control_c, 14, 11, 104
18, 39400, Control_c, 14, 11, 105
18, 39440, Control_c, 14, 11, 106
18, 39479, Note_on_c, 14, 52, 0
18, 39480, Note_on_c, 14, 58, 68
18, 39480, Control_c, 14, 11, 108
18, 39520, Control_c, 14, 11, 109
18, 39560, Control_c, 14, 11, 110
18, 39591, Note_on_c, 14, 58, 0
18, 39600, Note_on_c, 14, 57, 68
18, 39600, Control_c, 14, 11, 112
18, 39640, Control_c, 14, 11, 113
18, 39680, Control_c, 14, 11, 114
18, 39719, Note_on_c, 14, 57, 0
18, 39720, Control_c, 14, 11, 115
18, 39720, Note_on_c, 14, 53, 68
18, 39760, Control_c, 14, 11, 117
18, 39800, Control_c, 14, 11, 118
18, 39839, Note_on_c, 14, 53, 0
18, 39840, Note_on_c, 14, 52, 68
18, 39840, Control_c, 14, 11, 119
18, 39880, Control_c, 14, 11, 121
18, 39920, Control_c, 14, 11, 122
18, 39959, Note_on_c, 14, 52, 0
18, 39960, Note_on_c, 14, 58, 68
18, 39960, Control_c, 14, 11, 123
18, 40000, Control_c, 14, 11, 124
18, 40040, Control_c, 14, 11, 127
18, 40071, Note_on_c, 14, 58, 0
18, 40080, Note_on_c, 14, 57, 52
18, 40169, Note_on_c, 14, 57, 0
18, 40200, Note_on_c, 14, 49, 52
18, 40289, Note_on_c, 14, 49, 0
18, 40320, Note_on_c, 14, 50, 52
18, 40409, Note_on_c, 14, 50, 0
18, 40440, Note_on_c, 14, 52, 52
18, 40529, Note_on_c, 14, 52, 0
18, 40560, Note_on_c, 14, 53, 52
18, 40649, Note_on_c, 14, 53, 0
18, 40680, Note_on_c, 14, 52, 52
18, 40769, Note_on_c, 14, 52, 0
18, 40800, Note_on_c, 14, 53, 52
18, 40889, Note_on_c, 14, 53, 0
18, 40920, Note_on_c, 14, 54, 52
18, 41009, Note_on_c, 14, 54, 0
18, 41040, Note_on_c, 14, 55, 52
18, 41129, Note_on_c, 14, 55, 0
18, 41160, Note_on_c, 14, 53, 52
18, 41249, Note_on_c, 14, 53, 0
18, 41280, Note_on_c, 14, 52, 52
18, 41369, Note_on_c, 14, 52, 0
18, 41400, Note_on_c, 14, 48, 52
18, 41489, Note_on_c, 14, 48, 0
18, 41520, Note_on_c, 14, 55, 52
18, 41609, Note_on_c, 14, 55, 0
18, 41640, Note_on_c, 14, 53, 52
18, 41729, Note_on_c, 14, 53, 0
18, 41760, Note_on_c, 14, 52, 52
18, 41849, Note_on_c, 14, 52, 0
18, 41880, Note_on_c, 14, 48, 52
18, 41969, Note_on_c, 14, 48, 0
18, 42000, Note_on_c, 14, 43, 52
18, 42119, Note_on_c, 14, 43, 0
18, 42360, Note_on_c, 14, 67, 52
18, 42389, Note_on_c, 14, 67, 0
18, 42400, Note_on_c, 14, 66, 52
18, 42429, Note_on_c, 14, 66, 0
18, 42440, Note_on_c, 14, 67, 52
18, 42469, Note_on_c, 14, 67, 0
18, 42480, Note_on_c, 14, 65, 52
18, 42509, Note_on_c, 14, 65, 0
18, 42520, Note_on_c, 14, 64, 52
18, 42549, Note_on_c, 14, 64, 0
18, 42560, Note_on_c, 14, 65, 52
18, 42589, Note_on_c, 14, 65, 0
18, 42600, Note_on_c, 14, 62, 52
18, 42629, Note_on_c, 14, 62, 0
18, 42640, Note_on_c, 14, 61, 52
18, 42669, Note_on_c, 14, 61, 0
18, 42680, Note_on_c, 14, 62, 52
18, 42709, Note_on_c, 14, 62, 0
18, 42720, Note_on_c, 14, 59, 52
18, 42749, Note_on_c, 14, 59, 0
18, 42760, Note_on_c, 14, 58, 52
18, 42789, Note_on_c, 14, 58, 0
18, 42800, Note_on_c, 14, 59, 52
18, 42829, Note_on_c, 14, 59, 0
18, 42840, Note_on_c, 14, 53, 52
18, 42869, Note_on_c, 14, 53, 0
18, 42880, Note_on_c, 14, 52, 52
18, 42909, Note_on_c, 14, 52, 0
18, 42920, Note_on_c, 14, 53, 52
18, 42949, Note_on_c, 14, 53, 0
18, 42960, Note_on_c, 14, 52, 52
18, 43079, Note_on_c, 14, 52, 0
18, 43440, Note_on_c, 14, 48, 52
18, 43479, Note_on_c, 14, 48, 0
18, 43480, Note_on_c, 14, 52, 52
18, 43515, Note_on_c, 14, 52, 0
18, 43520, Note_on_c, 14, 55, 52
18, 43549, Note_on_c, 14, 55, 0
18, 43560, Note_on_c, 14, 48, 52
18, 43599, Note_on_c, 14, 48, 0
18, 43600, Note_on_c, 14, 52, 52
18, 43635, Note_on_c, 14, 52, 0
18, 43640, Note_on_c, 14, 55, 52
18, 43669, Note_on_c, 14, 55, 0
18, 43680, Note_on_c, 14, 48, 52
18, 43719, Note_on_c, 14, 48, 0
18, 43720, Note_on_c, 14, 52, 52
18, 43755, Note_on_c, 14, 52, 0
18, 43760, Note_on_c, 14, 55, 52
18, 43789, Note_on_c, 14, 55, 0
18, 43800, Note_on_c, 14, 48, 52
18, 43839, Note_on_c, 14, 48, 0
18, 43840, Note_on_c, 14, 52, 52
18, 43875, Note_on_c, 14, 52, 0
18, 43880, Note_on_c, 14, 55, 52
18, 43909, Note_on_c, 14, 55, 0
18, 43920, Note_on_c, 14, 45, 52
18, 43959, Note_on_c, 14, 45, 0
18, 43960, Note_on_c, 14, 48, 52
18, 43995, Note_on_c, 14, 48, 0
18, 44000, Note_on_c, 14, 53, 53
18, 44029, Note_on_c, 14, 53, 0
18, 44040, Note_on_c, 14, 45, 53
18, 44079, Note_on_c, 14, 45, 0
18, 44080, Note_on_c, 14, 48, 54
18, 44115, Note_on_c, 14, 48, 0
18, 44120, Note_on_c, 14, 53, 54
18, 44149, Note_on_c, 14, 53, 0
18, 44160, Note_on_c, 14, 45, 55
18, 44199, Note_on_c, 14, 45, 0
18, 44200, Note_on_c, 14, 48, 55
18, 44235, Note_on_c, 14, 48, 0
18, 44240, Note_on_c, 14, 53, 56
18, 44269, Note_on_c, 14, 53, 0
18, 44280, Note_on_c, 14, 45, 56
18, 44319, Note_on_c, 14, 45, 0
18, 44320, Note_on_c, 14, 48, 57
18, 44355, Note_on_c, 14, 48, 0
18, 44360, Note_on_c, 14, 53, 57
18, 44389, Note_on_c, 14, 53, 0
18, 44400, Note_on_c, 14, 41, 58
18, 44439, Note_on_c, 14, 41, 0
18, 44440, Note_on_c, 14, 45, 58
18, 44475, Note_on_c, 14, 45, 0
18, 44480, Note_on_c, 14, 50, 59
18, 44509, Note_on_c, 14, 50, 0
18, 44520, Note_on_c, 14, 41, 59
18, 44559, Note_on_c, 14, 41, 0
18, 44560, Note_on_c, 14, 45, 60
18, 44595, Note_on_c, 14, 45, 0
18, 44600, Note_on_c, 14, 50, 60
18, 44629, Note_on_c, 14, 50, 0
18, 44640, Note_on_c, 14, 41, 61
18, 44679, Note_on_c, 14, 41, 0
18, 44680, Note_on_c, 14, 45, 61
18, 44715, Note_on_c, 14, 45, 0
18, 44720, Note_on_c, 14, 50, 62
18, 44749, Note_on_c, 14, 50, 0
18, 44760, Note_on_c, 14, 41, 62
18, 44799, Note_on_c, 14, 41, 0
18, 44800, Note_on_c, 14, 45, 63
18, 44835, Note_on_c, 14, 45, 0
18, 44840, Note_on_c, 14, 50, 63
18, 44869, Note_on_c, 14, 50, 0
18, 44880, Note_on_c, 14, 43, 64
18, 44919, Note_on_c, 14, 43, 0
18, 44920, Note_on_c, 14, 48, 64
18, 44955, Note_on_c, 14, 48, 0
18, 44960, Note_on_c, 14, 52, 65
18, 44989, Note_on_c, 14, 52, 0
18, 45000, Note_on_c, 14, 43, 65
18, 45039, Note_on_c, 14, 43, 0
18, 45040, Note_on_c, 14, 48, 66
18, 45075, Note_on_c, 14, 48, 0
18, 45080, Note_on_c, 14, 52, 66
18, 45109, Note_on_c, 14, 52, 0
18, 45120, Note_on_c, 14, 43, 67
18, 45159, Note_on_c, 14, 43, 0
18, 45160, Note_on_c, 14, 47, 67
18, 45195, Note_on_c, 14, 47, 0
18, 45200, Note_on_c, 14, 50, 68
18, 45229, Note_on_c, 14, 50, 0
18, 45240, Note_on_c, 14, 43, 68
18, 45279, Note_on_c, 14, 43, 0
18, 45280, Note_on_c, 14, 47, 69
18, 45315, Note_on_c, 14, 47, 0
18, 45320, Note_on_c, 14, 50, 69
18, 45349, Note_on_c, 14, 50, 0
18, 45360, Note_on_c, 14, 40, 70
18, 45399, Note_on_c, 14, 40, 0
18, 45400, Note_on_c, 14, 43, 70
18, 45435, Note_on_c, 14, 43, 0
18, 45440, Note_on_c, 14, 48, 71
18, 45469, Note_on_c, 14, 48, 0
18, 45480, Note_on_c, 14, 40, 71
18, 45519, Note_on_c, 14, 40, 0
18, 45520, Note_on_c, 14, 43, 72
18, 45555, Note_on_c, 14, 43, 0
18, 45560, Note_on_c, 14, 48, 72
18, 45589, Note_on_c, 14, 48, 0
18, 45600, Note_on_c, 14, 41, 73
18, 45639, Note_on_c, 14, 41, 0
18, 45640, Note_on_c, 14, 45, 73
18, 45675, Note_on_c, 14, 45, 0
18, 45680, Note_on_c, 14, 50, 74
18, 45709, Note_on_c, 14, 50, 0
18, 45720, Note_on_c, 14, 41, 74
18, 45759, Note_on_c, 14, 41, 0
18, 45760, Note_on_c, 14, 45, 75
18, 45795, Note_on_c, 14, 45, 0
18, 45800, Note_on_c, 14, 50, 75
18, 45829, Note_on_c, 14, 50, 0
18, 45840, Note_on_c, 14, 43, 76
18, 45875, Note_on_c, 14, 43, 0
18, 45880, Note_on_c, 14, 55, 76
18, 45915, Note_on_c, 14, 55, 0
18, 45920, Note_on_c, 14, 55, 76
18, 45955, Note_on_c, 14, 55, 0
18, 45960, Note_on_c, 14, 55, 77
18, 45995, Note_on_c, 14, 55, 0
18, 46000, Note_on_c, 14, 55, 77
18, 46035, Note_on_c, 14, 55, 0
18, 46040, Note_on_c, 14, 55, 77
18, 46075, Note_on_c, 14, 55, 0
18, 46080, Note_on_c, 14, 55, 78
18, 46115, Note_on_c, 14, 55, 0
18, 46120, Note_on_c, 14, 55, 78
18, 46155, Note_on_c, 14, 55, 0
18, 46160, Note_on_c, 14, 55, 78
18, 46195, Note_on_c, 14, 55, 0
18, 46200, Note_on_c, 14, 55, 79
18, 46235, Note_on_c, 14, 55, 0
18, 46240, Note_on_c, 14, 55, 79
18, 46275, Note_on_c, 14, 55, 0
18, 46280, Note_on_c, 14, 55, 79
18, 46315, Note_on_c, 14, 55, 0
18, 46320, Note_on_c, 14, 43, 80
18, 46355, Note_on_c, 14, 43, 0
18, 46360, Note_on_c, 14, 43, 80
18, 46395, Note_on_c, 14, 43, 0
18, 46400, Note_on_c, 14, 43, 80
18, 46435, Note_on_c, 14, 43, 0
18, 46440, Note_on_c, 14, 43, 81
18, 46475, Note_on_c, 14, 43, 0
18, 46480, Note_on_c, 14, 43, 81
18, 46515, Note_on_c, 14, 43, 0
18, 46520, Note_on_c, 14, 43, 81
18, 46555, Note_on_c, 14, 43, 0
18, 46560, Note_on_c, 14, 43, 82
18, 46595, Note_on_c, 14, 43, 0
18, 46600, Note_on_c, 14, 43, 82
18, 46635, Note_on_c, 14, 43, 0
18, 46640, Note_on_c, 14, 43, 82
18, 46675, Note_on_c, 14, 43, 0
18, 46680, Note_on_c, 14, 43, 83
18, 46715, Note_on_c, 14, 43, 0
18, 46720, Note_on_c, 14, 43, 83
18, 46755, Note_on_c, 14, 43, 0
18, 46760, Note_on_c, 14, 43, 83
18, 46795, Note_on_c, 14, 43, 0
18, 46800, Note_on_c, 14, 48, 84
18, 46819, Note_on_c, 14, 48, 0
18, 46820, Note_on_c, 14, 60, 84
18, 46839, Note_on_c, 14, 60, 0
18, 46840, Note_on_c, 14, 60, 84
18, 46859, Note_on_c, 14, 60, 0
18, 46860, Note_on_c, 14, 60, 84
18, 46879, Note_on_c, 14, 60, 0
18, 46880, Note_on_c, 14, 60, 84
18, 46899, Note_on_c, 14, 60, 0
18, 46900, Note_on_c, 14, 60, 84
18, 46919, Note_on_c, 14, 60, 0
18, 46920, Note_on_c, 14, 60, 84
18, 46939, Note_on_c, 14, 60, 0
18, 46940, Note_on_c, 14, 60, 84
18, 46959, Note_on_c, 14, 60, 0
18, 46960, Note_on_c, 14, 60, 84
18, 46979, Note_on_c, 14, 60, 0
18, 46980, Note_on_c, 14, 60, 84
18, 46999, Note_on_c, 14, 60, 0
18, 47000, Note_on_c, 14, 60, 84
18, 47019, Note_on_c, 14, 60, 0
18, 47020, Note_on_c, 14, 60, 84
18, 47039, Note_on_c, 14, 60, 0
18, 47040, Note_on_c, 14, 60, 84
18, 47129, Note_on_c, 14, 60, 0
18, 47280, Note_on_c, 14, 48, 84
18, 47299, Note_on_c, 14, 48, 0
18, 47300, Note_on_c, 14, 60, 84
18, 47319, Note_on_c, 14, 60, 0
18, 47320, Note_on_c, 14, 60, 84
18, 47339, Note_on_c, 14, 60, 0
18, 47340, Note_on_c, 14, 60, 84
18, 47359, Note_on_c, 14, 60, 0
18, 47360, Note_on_c, 14, 60, 84
18, 47379, Note_on_c, 14, 60, 0
18, 47380, Note_on_c, 14, 60, 84
18, 47399, Note_on_c, 14, 60, 0
18, 47400, Note_on_c, 14, 60, 84
18, 47419, Note_on_c, 14, 60, 0
18, 47420, Note_on_c, 14, 60, 84
18, 47439, Note_on_c, 14, 60, 0
18, 47440, Note_on_c, 14, 60, 84
18, 47459, Note_on_c, 14, 60, 0
18, 47460, Note_on_c, 14, 60, 84
18, 47479, Note_on_c, 14, 60, 0
18, 47480, Note_on_c, 14, 60, 84
18, 47499, Note_on_c, 14, 60, 0
18, 47500, Note_on_c, 14, 60, 84
18, 47519, Note_on_c, 14, 60, 0
18, 47520, Note_on_c, 14, 60, 84
18, 47609, Note_on_c, 14, 60, 0
18, 47760, Note_on_c, 14, 48, 84
18, 47849, Note_on_c, 14, 48, 0
18, 48000, Note_on_c, 14, 48, 84
18, 48089, Note_on_c, 14, 48, 0
18, 48240, Note_on_c, 14, 60, 76
18, 48269, Note_on_c, 14, 60, 0
18, 48270, Note_on_c, 14, 60, 52
18, 48719, Note_on_c, 14, 60, 0
18, 48720, Note_on_c, 14, 56, 52
18, 49079, Note_on_c, 14, 56, 0
18, 49080, Note_on_c, 14, 53, 52
18, 49184, Note_on_c, 14, 53, 0
18, 49192, Control_c, 14, 11, 96
18, 49200, Note_on_c, 14, 49, 68
18, 49319, Note_on_c, 14, 49, 0
18, 49320, Note_on_c, 14, 56, 68
18, 49320, Control_c, 14, 11, 96
18, 49340, Control_c, 14, 11, 98
18, 49360, Control_c, 14, 11, 99
18, 49380, Control_c, 14, 11, 101
18, 49400, Control_c, 14, 11, 103
18, 49409, Note_on_c, 14, 56, 0
18, 49410, Note_on_c, 14, 53, 68
18, 49420, Control_c, 14, 11, 105
18, 49435, Note_on_c, 14, 53, 0
18, 49440, Control_c, 14, 11, 106
18, 49440, Note_on_c, 14, 49, 68
18, 49460, Control_c, 14, 11, 108
18, 49480, Control_c, 14, 11, 110
18, 49500, Control_c, 14, 11, 112
18, 49520, Control_c, 14, 11, 113
18, 49529, Note_on_c, 14, 49, 0
18, 49540, Control_c, 14, 11, 115
18, 49560, Control_c, 14, 11, 117
18, 49560, Note_on_c, 14, 48, 68
18, 49580, Control_c, 14, 11, 118
18, 49600, Control_c, 14, 11, 120
18, 49620, Control_c, 14, 11, 122
18, 49640, Control_c, 14, 11, 124
18, 49649, Note_on_c, 14, 48, 0
18, 49660, Control_c, 14, 11, 127
18, 49680, Note_on_c, 14, 47, 52
18, 49799, Note_on_c, 14, 47, 0
18, 50160, Note_on_c, 14, 48, 52
18, 50399, Note_on_c, 14, 48, 0
18, 50640, Note_on_c, 14, 48, 52
18, 50999, Note_on_c, 14, 48, 0
18, 51120, Note_on_c, 14, 48, 52
18, 51351, Note_on_c, 14, 48, 0
18, 51360, Note_on_c, 14, 48, 52
18, 51591, Note_on_c, 14, 48, 0
18, 51600, Note_on_c, 14, 48, 52
18, 51839, Note_on_c, 14, 48, 0
18, 51840, Note_on_c, 14, 47, 52
18, 51959, Note_on_c, 14, 47, 0
18, 52080, Note_on_c, 14, 47, 52
18, 52319, Note_on_c, 14, 47, 0
18, 52440, Note_on_c, 14, 53, 52
18, 52469, Note_on_c, 14, 53, 0
18, 52470, Note_on_c, 14, 51, 52
18, 52499, Note_on_c, 14, 51, 0
18, 52500, Note_on_c, 14, 50, 52
18, 52529, Note_on_c, 14, 50, 0
18, 52530, Note_on_c, 14, 48, 52
18, 52559, Note_on_c, 14, 48, 0
18, 52560, Note_on_c, 14, 47, 52
18, 52679, Note_on_c, 14, 47, 0
18, 52980, Note_on_c, 14, 58, 52
18, 53009, Note_on_c, 14, 58, 0
18, 53010, Note_on_c, 14, 60, 52
18, 53039, Note_on_c, 14, 60, 0
18, 53040, Note_on_c, 14, 61, 52
18, 53129, Note_on_c, 14, 61, 0
18, 53400, Note_on_c, 14, 58, 52
18, 53429, Note_on_c, 14, 58, 0
18, 53430, Note_on_c, 14, 56, 52
18, 53459, Note_on_c, 14, 56, 0
18, 53460, Note_on_c, 14, 55, 52
18, 53489, Note_on_c, 14, 55, 0
18, 53490, Note_on_c, 14, 53, 52
18, 53519, Note_on_c, 14, 53, 0
18, 53520, Note_on_c, 14, 52, 68
18, 53580, Control_c, 14, 11, 112
18, 53606, Control_c, 14, 11, 111
18, 53633, Control_c, 14, 11, 110
18, 53659, Control_c, 14, 11, 109
18, 53685, Control_c, 14, 11, 108
18, 53711, Control_c, 14, 11, 107
18, 53738, Control_c, 14, 11, 106
18, 53759, Note_on_c, 14, 52, 0
18, 53760, Note_on_c, 14, 52, 60
18, 53764, Control_c, 14, 11, 105
18, 53790, Control_c, 14, 11, 104
18, 53816, Control_c, 14, 11, 103
18, 53843, Control_c, 14, 11, 102
18, 53869, Control_c, 14, 11, 101
18, 53895, Control_c, 14, 11, 100
18, 53921, Control_c, 14, 11, 99
18, 53939, Note_on_c, 14, 52, 0
18, 53940, Note_on_c, 14, 48, 60
18, 53948, Control_c, 14, 11, 98
18, 53959, Note_on_c, 14, 48, 0
18, 53960, Note_on_c, 14, 50, 60
18, 53974, Control_c, 14, 11, 96
18, 53979, Note_on_c, 14, 50, 0
18, 53980, Note_on_c, 14, 52, 60
18, 53999, Note_on_c, 14, 52, 0
18, 54000, Note_on_c, 14, 53, 68
18, 54119, Note_on_c, 14, 53, 0
18, 54180, Note_on_c, 14, 46, 68
18, 54195, Note_on_c, 14, 46, 0
18, 54200, Note_on_c, 14, 46, 68
18, 54215, Note_on_c, 14, 46, 0
18, 54220, Note_on_c, 14, 46, 68
18, 54235, Note_on_c, 14, 46, 0
18, 54240, Note_on_c, 14, 48, 68
18, 54359, Note_on_c, 14, 48, 0
18, 54420, Note_on_c, 14, 48, 68
18, 54435, Note_on_c, 14, 48, 0
18, 54440, Note_on_c, 14, 48, 68
18, 54455, Note_on_c, 14, 48, 0
18, 54460, Note_on_c, 14, 48, 68
18, 54475, Note_on_c, 14, 48, 0
18, 54478, Control_c, 14, 11, 127
18, 54480, Note_on_c, 14, 41, 76
18, 54599, Note_on_c, 14, 41, 0
18, 57840, Note_on_c, 14, 53, 76
18, 58079, Note_on_c, 14, 53, 0
18, 58080, Note_on_c, 14, 55, 76
18, 58199, Note_on_c, 14, 55, 0
18, 58200, Note_on_c, 14, 56, 76
18, 58311, Note_on_c, 14, 56, 0
18, 58320, Note_on_c, 14, 58, 84
18, 58664, Note_on_c, 14, 58, 0
18, 58680, Note_on_c, 14, 56, 76
18, 58694, Note_on_c, 14, 56, 0
18, 58695, Note_on_c, 14, 58, 76
18, 58709, Note_on_c, 14, 58, 0
18, 58710, Note_on_c, 14, 56, 76
18, 58724, Note_on_c, 14, 56, 0
18, 58725, Note_on_c, 14, 58, 76
18, 58739, Note_on_c, 14, 58, 0
18, 58740, Note_on_c, 14, 56, 76
18, 58754, Note_on_c, 14, 56, 0
18, 58755, Note_on_c, 14, 58, 76
18, 58769, Note_on_c, 14, 58, 0
18, 58770, Note_on_c, 14, 55, 76
18, 58784, Note_on_c, 14, 55, 0
18, 58785, Note_on_c, 14, 56, 76
18, 58796, Note_on_c, 14, 56, 0
18, 58800, Note_on_c, 14, 55, 76
18, 58919, Note_on_c, 14, 55, 0
18, 58920, Note_on_c, 14, 61, 76
18, 59039, Note_on_c, 14, 61, 0
18, 59040, Note_on_c, 14, 60, 76
18, 59159, Note_on_c, 14, 60, 0
18, 59160, Note_on_c, 14, 58, 76
18, 59271, Note_on_c, 14, 58, 0
18, 59280, Note_on_c, 14, 56, 76
18, 59339, Note_on_c, 14, 56, 0
18, 59340, Note_on_c, 14, 58, 76
18, 59391, Note_on_c, 14, 58, 0
18, 59400, Note_on_c, 14, 56, 76
18, 59444, Note_on_c, 14, 56, 0
18, 59460, Note_on_c, 14, 55, 76
18, 59504, Note_on_c, 14, 55, 0
18, 59520, Note_on_c, 14, 53, 76
18, 59564, Note_on_c, 14, 53, 0
18, 59580, Note_on_c, 14, 51, 76
18, 59624, Note_on_c, 14, 51, 0
18, 59640, Note_on_c, 14, 50, 76
18, 59684, Note_on_c, 14, 50, 0
18, 59700, Note_on_c, 14, 48, 76
18, 59744, Note_on_c, 14, 48, 0
18, 59760, Note_on_c, 14, 47, 76
18, 59804, Note_on_c, 14, 47, 0
18, 59820, Note_on_c, 14, 43, 76
18, 59864, Note_on_c, 14, 43, 0
18, 59880, Note_on_c, 14, 44, 76
18, 59924, Note_on_c, 14, 44, 0
18, 59940, Note_on_c, 14, 43, 76
18, 59984, Note_on_c, 14, 43, 0
18, 60000, Note_on_c, 14, 44, 76
18, 60044, Note_on_c, 14, 44, 0
18, 60060, Note_on_c, 14, 45, 76
18, 60104, Note_on_c, 14, 45, 0
18, 60120, Note_on_c, 14, 46, 76
18, 60164, Note_on_c, 14, 46, 0
18, 60180, Note_on_c, 14, 47, 76
18, 60224, Note_on_c, 14, 47, 0
18, 60240, Note_on_c, 14, 48, 76
18, 60479, Note_on_c, 14, 48, 0
18, 60480, Note_on_c, 14, 50, 76
18, 60599, Note_on_c, 14, 50, 0
18, 60600, Note_on_c, 14, 51, 76
18, 60711, Note_on_c, 14, 51, 0
18, 60720, Note_on_c, 14, 53, 84
18, 61064, Note_on_c, 14, 53, 0
18, 61080, Note_on_c, 14, 51, 76
18, 61191, Note_on_c, 14, 51, 0
18, 61200, Note_on_c, 14, 50, 76
18, 61319, Note_on_c, 14, 50, 0
18, 61320, Note_on_c, 14, 56, 76
18, 61439, Note_on_c, 14, 56, 0
18, 61440, Note_on_c, 14, 55, 76
18, 61559, Note_on_c, 14, 55, 0
18, 61560, Note_on_c, 14, 53, 76
18, 61671, Note_on_c, 14, 53, 0
18, 61680, Note_on_c, 14, 52, 76
18, 61799, Note_on_c, 14, 52, 0
18, 61800, Note_on_c, 14, 61, 76
18, 61919, Note_on_c, 14, 61, 0
18, 61920, Note_on_c, 14, 60, 76
18, 62039, Note_on_c, 14, 60, 0
18, 62040, Note_on_c, 14, 58, 76
18, 62151, Note_on_c, 14, 58, 0
18, 62160, Note_on_c, 14, 56, 84
18, 62204, Note_on_c, 14, 56, 0
18, 62220, Note_on_c, 14, 60, 84
18, 62264, Note_on_c, 14, 60, 0
18, 62280, Note_on_c, 14, 61, 84
18, 62324, Note_on_c, 14, 61, 0
18, 62340, Note_on_c, 14, 60, 84
18, 62384, Note_on_c, 14, 60, 0
18, 62400, Note_on_c, 14, 58, 84
18, 62444, Note_on_c, 14, 58, 0
18, 62460, Note_on_c, 14, 56, 84
18, 62504, Note_on_c, 14, 56, 0
18, 62520, Note_on_c, 14, 55, 84
18, 62564, Note_on_c, 14, 55, 0
18, 62580, Note_on_c, 14, 53, 84
18, 62624, Note_on_c, 14, 53, 0
18, 62640, Note_on_c, 14, 58, 84
18, 62684, Note_on_c, 14, 58, 0
18, 62700, Note_on_c, 14, 46, 84
18, 62744, Note_on_c, 14, 46, 0
18, 62760, Note_on_c, 14, 48, 84
18, 62804, Note_on_c, 14, 48, 0
18, 62820, Note_on_c, 14, 46, 84
18, 62864, Note_on_c, 14, 46, 0
18, 62880, Note_on_c, 14, 58, 84
18, 62924, Note_on_c, 14, 58, 0
18, 62940, Note_on_c, 14, 46, 84
18, 62984, Note_on_c, 14, 46, 0
18, 63000, Note_on_c, 14, 58, 84
18, 63044, Note_on_c, 14, 58, 0
18, 63060, Note_on_c, 14, 46, 84
18, 63104, Note_on_c, 14, 46, 0
18, 63120, Note_on_c, 14, 58, 84
18, 63164, Note_on_c, 14, 58, 0
18, 63180, Note_on_c, 14, 48, 84
18, 63224, Note_on_c, 14, 48, 0
18, 63240, Note_on_c, 14, 58, 84
18, 63284, Note_on_c, 14, 58, 0
18, 63300, Note_on_c, 14, 48, 84
18, 63344, Note_on_c, 14, 48, 0
18, 63360, Note_on_c, 14, 56, 84
18, 63404, Note_on_c, 14, 56, 0
18, 63420, Note_on_c, 14, 48, 84
18, 63464, Note_on_c, 14, 48, 0
18, 63480, Note_on_c, 14, 55, 84
18, 63524, Note_on_c, 14, 55, 0
18, 63540, Note_on_c, 14, 48, 84
18, 63584, Note_on_c, 14, 48, 0
18, 63600, Note_on_c, 14, 53, 84
18, 63719, Note_on_c, 14, 53, 0
18, 64080, Note_on_c, 14, 46, 84
18, 64124, Note_on_c, 14, 46, 0
18, 64140, Note_on_c, 14, 58, 84
18, 64184, Note_on_c, 14, 58, 0
18, 64200, Note_on_c, 14, 56, 84
18, 64244, Note_on_c, 14, 56, 0
18, 64260, Note_on_c, 14, 58, 84
18, 64304, Note_on_c, 14, 58, 0
18, 64320, Note_on_c, 14, 55, 84
18, 64364, Note_on_c, 14, 55, 0
18, 64380, Note_on_c, 14, 58, 84
18, 64424, Note_on_c, 14, 58, 0
18, 64440, Note_on_c, 14, 53, 84
18, 64484, Note_on_c, 14, 53, 0
18, 64500, Note_on_c, 14, 58, 84
18, 64544, Note_on_c, 14, 58, 0
18, 64560, Note_on_c, 14, 51, 84
18, 64604, Note_on_c, 14, 51, 0
18, 64620, Note_on_c, 14, 53, 84
18, 64664, Note_on_c, 14, 53, 0
18, 64680, Note_on_c, 14, 51, 84
18, 64724, Note_on_c, 14, 51, 0
18, 64740, Note_on_c, 14, 50, 84
18, 64784, Note_on_c, 14, 50, 0
18, 64800, Note_on_c, 14, 48, 84
18, 64844, Note_on_c, 14, 48, 0
18, 64860, Note_on_c, 14, 46, 84
18, 64904, Note_on_c, 14, 46, 0
18, 64920, Note_on_c, 14, 44, 84
18, 64964, Note_on_c, 14, 44, 0
18, 64980, Note_on_c, 14, 43, 84
18, 65024, Note_on_c, 14, 43, 0
18, 65040, Note_on_c, 14, 41, 84
18, 65159, Note_on_c, 14, 41, 0
18, 65580, Note_on_c, 14, 55, 84
18, 65624, Note_on_c, 14, 55, 0
18, 65640, Note_on_c, 14, 53, 84
18, 65684, Note_on_c, 14, 53, 0
18, 65700, Note_on_c, 14, 51, 84
18, 65744, Note_on_c, 14, 51, 0
18, 65760, Note_on_c, 14, 50, 84
18, 65804, Note_on_c, 14, 50, 0
18, 65820, Note_on_c, 14, 48, 84
18, 65864, Note_on_c, 14, 48, 0
18, 65880, Note_on_c, 14, 46, 84
18, 65924, Note_on_c, 14, 46, 0
18, 65940, Note_on_c, 14, 44, 84
18, 65984, Note_on_c, 14, 44, 0
18, 66000, Note_on_c, 14, 43, 84
18, 66119, Note_on_c, 14, 43, 0
18, 66720, Note_on_c, 14, 48, 76
18, 67199, Note_on_c, 14, 48, 0
18, 67200, Note_on_c, 14, 50, 76
18, 67319, Note_on_c, 14, 50, 0
18, 67320, Note_on_c, 14, 51, 76
18, 67431, Note_on_c, 14, 51, 0
18, 67440, Note_on_c, 14, 53, 84
18, 67799, Note_on_c, 14, 53, 0
18, 67800, Note_on_c, 14, 51, 76
18, 67911, Note_on_c, 14, 51, 0
18, 67920, Note_on_c, 14, 50, 76
18, 68159, Note_on_c, 14, 50, 0
18, 68160, Note_on_c, 14, 51, 76
18, 68279, Note_on_c, 14, 51, 0
18, 68280, Note_on_c, 14, 53, 76
18, 68391, Note_on_c, 14, 53, 0
18, 68400, Note_on_c, 14, 55, 84
18, 68759, Note_on_c, 14, 55, 0
18, 68760, Note_on_c, 14, 53, 76
18, 68871, Note_on_c, 14, 53, 0
18, 68880, Note_on_c, 14, 51, 84
18, 68894, Note_on_c, 14, 51, 0
18, 68895, Note_on_c, 14, 53, 84
18, 68909, Note_on_c, 14, 53, 0
18, 68910, Note_on_c, 14, 51, 84
18, 68924, Note_on_c, 14, 51, 0
18, 68925, Note_on_c, 14, 53, 84
18, 68939, Note_on_c, 14, 53, 0
18, 68940, Note_on_c, 14, 51, 84
18, 68954, Note_on_c, 14, 51, 0
18, 68955, Note_on_c, 14, 53, 84
18, 68969, Note_on_c, 14, 53, 0
18, 68970, Note_on_c, 14, 51, 84
18, 68984, Note_on_c, 14, 51, 0
18, 68985, Note_on_c, 14, 53, 84
18, 68999, Note_on_c, 14, 53, 0
18, 69000, Note_on_c, 14, 51, 84
18, 69014, Note_on_c, 14, 51, 0
18, 69015, Note_on_c, 14, 53, 84
18, 69029, Note_on_c, 14, 53, 0
18, 69030, Note_on_c, 14, 51, 84
18, 69044, Note_on_c, 14, 51, 0
18, 69045, Note_on_c, 14, 53, 84
18, 69059, Note_on_c, 14, 53, 0
18, 69060, Note_on_c, 14, 51, 84
18, 69074, Note_on_c, 14, 51, 0
18, 69075, Note_on_c, 14, 53, 84
18, 69089, Note_on_c, 14, 53, 0
18, 69090, Note_on_c, 14, 51, 84
18, 69104, Note_on_c, 14, 51, 0
18, 69105, Note_on_c, 14, 53, 84
18, 69119, Note_on_c, 14, 53, 0
18, 69120, Note_on_c, 14, 51, 84
18, 69134, Note_on_c, 14, 51, 0
18, 69135, Note_on_c, 14, 53, 84
18, 69149, Note_on_c, 14, 53, 0
18, 69150, Note_on_c, 14, 51, 84
18, 69164, Note_on_c, 14, 51, 0
18, 69165, Note_on_c, 14, 53, 84
18, 69179, Note_on_c, 14, 53, 0
18, 69180, Note_on_c, 14, 51, 84
18, 69194, Note_on_c, 14, 51, 0
18, 69195, Note_on_c, 14, 53, 84
18, 69209, Note_on_c, 14, 53, 0
18, 69210, Note_on_c, 14, 51, 84
18, 69224, Note_on_c, 14, 51, 0
18, 69225, Note_on_c, 14, 53, 84
18, 69239, Note_on_c, 14, 53, 0
18, 69240, Note_on_c, 14, 51, 84
18, 69254, Note_on_c, 14, 51, 0
18, 69255, Note_on_c, 14, 53, 84
18, 69269, Note_on_c, 14, 53, 0
18, 69270, Note_on_c, 14, 51, 84
18, 69284, Note_on_c, 14, 51, 0
18, 69285, Note_on_c, 14, 53, 84
18, 69299, Note_on_c, 14, 53, 0
18, 69300, Note_on_c, 14, 51, 84
18, 69314, Note_on_c, 14, 51, 0
18, 69315, Note_on_c, 14, 53, 84
18, 69329, Note_on_c, 14, 53, 0
18, 69330, Note_on_c, 14, 50, 84
18, 69344, Note_on_c, 14, 50, 0
18, 69345, Note_on_c, 14, 51, 84
18, 69356, Note_on_c, 14, 51, 0
18, 69360, Note_on_c, 14, 50, 92
18, 69471, Note_on_c, 14, 50, 0
18, 69480, Note_on_c, 14, 54, 84
18, 69711, Note_on_c, 14, 54, 0
18, 69720, Note_on_c, 14, 55, 84
18, 69779, Note_on_c, 14, 55, 0
18, 69780, Note_on_c, 14, 57, 84
18, 69831, Note_on_c, 14, 57, 0
18, 69840, Note_on_c, 14, 58, 84
18, 69959, Note_on_c, 14, 58, 0
18, 69960, Note_on_c, 14, 60, 84
18, 70019, Note_on_c, 14, 60, 0
18, 70020, Note_on_c, 14, 62, 84
18, 70079, Note_on_c, 14, 62, 0
18, 70080, Note_on_c, 14, 63, 92
18, 70199, Note_on_c, 14, 63, 0
18, 70200, Note_on_c, 14, 60, 84
18, 70259, Note_on_c, 14, 60, 0
18, 70260, Note_on_c, 14, 58, 84
18, 70311, Note_on_c, 14, 58, 0
18, 70320, Note_on_c, 14, 57, 84
18, 70439, Note_on_c, 14, 57, 0
18, 70440, Note_on_c, 14, 58, 84
18, 70499, Note_on_c, 14, 58, 0
18, 70500, Note_on_c, 14, 60, 84
18, 70559, Note_on_c, 14, 60, 0
18, 70560, Note_on_c, 14, 62, 92
18, 70679, Note_on_c, 14, 62, 0
18, 70680, Note_on_c, 14, 58, 84
18, 70739, Note_on_c, 14, 58, 0
18, 70740, Note_on_c, 14, 57, 84
18, 70791, Note_on_c, 14, 57, 0
18, 70800, Note_on_c, 14, 55, 84
18, 70919, Note_on_c, 14, 55, 0
18, 70920, Note_on_c, 14, 57, 84
18, 70979, Note_on_c, 14, 57, 0
18, 70980, Note_on_c, 14, 58, 84
18, 71039, Note_on_c, 14, 58, 0
18, 71040, Note_on_c, 14, 60, 92
18, 71159, Note_on_c, 14, 60, 0
18, 71160, Note_on_c, 14, 57, 84
18, 71219, Note_on_c, 14, 57, 0
18, 71220, Note_on_c, 14, 55, 84
18, 71271, Note_on_c, 14, 55, 0
18, 71280, Note_on_c, 14, 54, 84
18, 71399, Note_on_c, 14, 54, 0
18, 71400, Note_on_c, 14, 55, 84
18, 71459, Note_on_c, 14, 55, 0
18, 71460, Note_on_c, 14, 57, 84
18, 71519, Note_on_c, 14, 57, 0
18, 71520, Note_on_c, 14, 58, 84
18, 71639, Note_on_c, 14, 58, 0
18, 71640, Note_on_c, 14, 55, 84
18, 71699, Note_on_c, 14, 55, 0
18, 71700, Note_on_c, 14, 53, 84
18, 71751, Note_on_c, 14, 53, 0
18, 71760, Note_on_c, 14, 52, 84
18, 71849, Note_on_c, 14, 52, 0
18, 72000, Note_on_c, 14, 49, 92
18, 72239, Note_on_c, 14, 49, 0
18, 72240, Note_on_c, 14, 49, 84
18, 72329, Note_on_c, 14, 49, 0
18, 72360, Note_on_c, 14, 49, 84
18, 72449, Note_on_c, 14, 49, 0
18, 72480, Note_on_c, 14, 49, 84
18, 72569, Note_on_c, 14, 49, 0
18, 72600, Note_on_c, 14, 49, 84
18, 72689, Note_on_c, 14, 49, 0
18, 72720, Note_on_c, 14, 50, 84
18, 72720, Control_c, 14, 11, 127
18, 72740, Control_c, 14, 11, 124
18, 72760, Control_c, 14, 11, 122
18, 72780, Control_c, 14, 11, 119
18, 72800, Control_c, 14, 11, 117
18, 72820, Control_c, 14, 11, 114
18, 72840, Control_c, 14, 11, 111
18, 72860, Control_c, 14, 11, 109
18, 72880, Control_c, 14, 11, 106
18, 72900, Control_c, 14, 11, 103
18, 72920, Control_c, 14, 11, 101
18, 72940, Control_c, 14, 11, 98
18, 72960, Control_c, 14, 11, 96
18, 72980, Control_c, 14, 11, 93
18, 73000, Control_c, 14, 11, 90
18, 73020, Control_c, 14, 11, 88
18, 73040, Control_c, 14, 11, 85
18, 73060, Control_c, 14, 11, 82
18, 73080, Control_c, 14, 11, 80
18, 73100, Control_c, 14, 11, 77
18, 73120, Control_c, 14, 11, 75
18, 73140, Control_c, 14, 11, 72
18, 73160, Control_c, 14, 11, 69
18, 73180, Control_c, 14, 11, 64
18, 73671, Note_on_c, 14, 50, 0
18, 73680, Note_on_c, 14, 43, 84
18, 73919, Note_on_c, 14, 43, 0
18, 74145, Control_c, 14, 11, 127
18, 74160, Note_on_c, 14, 55, 52
18, 74399, Note_on_c, 14, 55, 0
18, 74640, Note_on_c, 14, 53, 52
18, 74879, Note_on_c, 14, 53, 0
18, 75600, Note_on_c, 14, 44, 84
18, 76071, Note_on_c, 14, 44, 0
18, 76080, Note_on_c, 14, 44, 92
18, 76544, Note_on_c, 14, 44, 0
18, 76560, Note_on_c, 14, 44, 84
18, 76589, Note_on_c, 14, 44, 0
18, 76600, Note_on_c, 14, 43, 84
18, 76629, Note_on_c, 14, 43, 0
18, 76640, Note_on_c, 14, 44, 84
18, 76669, Note_on_c, 14, 44, 0
18, 76680, Note_on_c, 14, 48, 84
18, 76709, Note_on_c, 14, 48, 0
18, 76720, Note_on_c, 14, 47, 84
18, 76749, Note_on_c, 14, 47, 0
18, 76760, Note_on_c, 14, 48, 84
18, 76789, Note_on_c, 14, 48, 0
18, 76800, Note_on_c, 14, 44, 84
18, 76829, Note_on_c, 14, 44, 0
18, 76840, Note_on_c, 14, 43, 84
18, 76869, Note_on_c, 14, 43, 0
18, 76880, Note_on_c, 14, 44, 84
18, 76909, Note_on_c, 14, 44, 0
18, 76920, Note_on_c, 14, 48, 84
18, 76949, Note_on_c, 14, 48, 0
18, 76960, Note_on_c, 14, 47, 84
18, 76989, Note_on_c, 14, 47, 0
18, 77000, Note_on_c, 14, 48, 84
18, 77029, Note_on_c, 14, 48, 0
18, 77040, Note_on_c, 14, 44, 84
18, 77069, Note_on_c, 14, 44, 0
18, 77080, Note_on_c, 14, 43, 84
18, 77109, Note_on_c, 14, 43, 0
18, 77120, Note_on_c, 14, 44, 84
18, 77149, Note_on_c, 14, 44, 0
18, 77160, Note_on_c, 14, 48, 84
18, 77189, Note_on_c, 14, 48, 0
18, 77200, Note_on_c, 14, 47, 84
18, 77229, Note_on_c, 14, 47, 0
18, 77240, Note_on_c, 14, 48, 84
18, 77269, Note_on_c, 14, 48, 0
18, 77280, Note_on_c, 14, 44, 84
18, 77309, Note_on_c, 14, 44, 0
18, 77320, Note_on_c, 14, 43, 84
18, 77349, Note_on_c, 14, 43, 0
18, 77360, Note_on_c, 14, 44, 84
18, 77389, Note_on_c, 14, 44, 0
18, 77400, Note_on_c, 14, 48, 84
18, 77429, Note_on_c, 14, 48, 0
18, 77440, Note_on_c, 14, 47, 84
18, 77469, Note_on_c, 14, 47, 0
18, 77480, Note_on_c, 14, 48, 84
18, 77509, Note_on_c, 14, 48, 0
18, 77520, Note_on_c, 14, 43, 84
18, 77549, Note_on_c, 14, 43, 0
18, 77560, Note_on_c, 14, 42, 84
18, 77589, Note_on_c, 14, 42, 0
18, 77600, Note_on_c, 14, 43, 84
18, 77629, Note_on_c, 14, 43, 0
18, 77640, Note_on_c, 14, 48, 84
18, 77669, Note_on_c, 14, 48, 0
18, 77680, Note_on_c, 14, 47, 84
18, 77709, Note_on_c, 14, 47, 0
18, 77720, Note_on_c, 14, 48, 84
18, 77749, Note_on_c, 14, 48, 0
18, 77760, Note_on_c, 14, 43, 84
18, 77789, Note_on_c, 14, 43, 0
18, 77800, Note_on_c, 14, 42, 84
18, 77829, Note_on_c, 14, 42, 0
18, 77840, Note_on_c, 14, 43, 84
18, 77869, Note_on_c, 14, 43, 0
18, 77880, Note_on_c, 14, 48, 84
18, 77909, Note_on_c, 14, 48, 0
18, 77920, Note_on_c, 14, 47, 84
18, 77949, Note_on_c, 14, 47, 0
18, 77960, Note_on_c, 14, 48, 84
18, 77989, Note_on_c, 14, 48, 0
18, 78000, Note_on_c, 14, 43, 84
18, 78029, Note_on_c, 14, 43, 0
18, 78040, Note_on_c, 14, 42, 84
18, 78069, Note_on_c, 14, 42, 0
18, 78080, Note_on_c, 14, 43, 84
18, 78109, Note_on_c, 14, 43, 0
18, 78120, Note_on_c, 14, 48, 84
18, 78149, Note_on_c, 14, 48, 0
18, 78160, Note_on_c, 14, 47, 84
18, 78189, Note_on_c, 14, 47, 0
18, 78200, Note_on_c, 14, 48, 84
18, 78229, Note_on_c, 14, 48, 0
18, 78240, Note_on_c, 14, 43, 84
18, 78269, Note_on_c, 14, 43, 0
18, 78280, Note_on_c, 14, 42, 84
18, 78309, Note_on_c, 14, 42, 0
18, 78320, Note_on_c, 14, 43, 84
18, 78349, Note_on_c, 14, 43, 0
18, 78360, Note_on_c, 14, 48, 84
18, 78389, Note_on_c, 14, 48, 0
18, 78400, Note_on_c, 14, 47, 84
18, 78429, Note_on_c, 14, 47, 0
18, 78440, Note_on_c, 14, 48, 84
18, 78469, Note_on_c, 14, 48, 0
18, 78480, Note_on_c, 14, 42, 84
18, 78509, Note_on_c, 14, 42, 0
18, 78520, Note_on_c, 14, 45, 84
18, 78549, Note_on_c, 14, 45, 0
18, 78560, Note_on_c, 14, 48, 84
18, 78589, Note_on_c, 14, 48, 0
18, 78600, Note_on_c, 14, 51, 84
18, 78629, Note_on_c, 14, 51, 0
18, 78640, Note_on_c, 14, 54, 84
18, 78669, Note_on_c, 14, 54, 0
18, 78680, Note_on_c, 14, 57, 84
18, 78709, Note_on_c, 14, 57, 0
18, 78720, Note_on_c, 14, 60, 84
18, 78809, Note_on_c, 14, 60, 0
18, 79440, Note_on_c, 14, 41, 84
18, 79469, Note_on_c, 14, 41, 0
18, 79480, Note_on_c, 14, 44, 84
18, 79509, Note_on_c, 14, 44, 0
18, 79520, Note_on_c, 14, 47, 84
18, 79549, Note_on_c, 14, 47, 0
18, 79560, Note_on_c, 14, 50, 84
18, 79589, Note_on_c, 14, 50, 0
18, 79600, Note_on_c, 14, 53, 84
18, 79629, Note_on_c, 14, 53, 0
18, 79640, Note_on_c, 14, 56, 84
18, 79669, Note_on_c, 14, 56, 0
18, 79680, Note_on_c, 14, 59, 84
18, 79769, Note_on_c, 14, 59, 0
18, 80400, Note_on_c, 14, 43, 84
18, 80519, Note_on_c, 14, 43, 0
18, 81360, Note_on_c, 14, 43, 52
18, 81479, Note_on_c, 14, 43, 0
18, 81840, Note_on_c, 14, 43, 52
18, 81959, Note_on_c, 14, 43, 0
18, 81960, Note_on_c, 14, 44, 52
18, 82079, Note_on_c, 14, 44, 0
18, 82080, Note_on_c, 14, 43, 52
18, 82199, Note_on_c, 14, 43, 0
18, 82200, Note_on_c, 14, 47, 60
18, 82311, Note_on_c, 14, 47, 0
18, 82320, Note_on_c, 14, 43, 52
18, 82439, Note_on_c, 14, 43, 0
18, 82440, Note_on_c, 14, 50, 60
18, 82559, Note_on_c, 14, 50, 0
18, 82560, Note_on_c, 14, 43, 52
18, 82679, Note_on_c, 14, 43, 0
18, 82680, Note_on_c, 14, 55, 60
18, 82791, Note_on_c, 14, 55, 0
18, 82800, Note_on_c, 14, 43, 52
18, 82919, Note_on_c, 14, 43, 0
18, 82920, Note_on_c, 14, 44, 60
18, 83039, Note_on_c, 14, 44, 0
18, 83040, Note_on_c, 14, 43, 52
18, 83159, Note_on_c, 14, 43, 0
18, 83160, Note_on_c, 14, 48, 60
18, 83271, Note_on_c, 14, 48, 0
18, 83280, Note_on_c, 14, 43, 52
18, 83399, Note_on_c, 14, 43, 0
18, 83400, Note_on_c, 14, 51, 60
18, 83519, Note_on_c, 14, 51, 0
18, 83520, Note_on_c, 14, 43, 52
18, 83639, Note_on_c, 14, 43, 0
18, 83640, Note_on_c, 14, 55, 60
18, 83751, Note_on_c, 14, 55, 0
18, 83760, Note_on_c, 14, 43, 52
18, 83879, Note_on_c, 14, 43, 0
18, 83880, Note_on_c, 14, 44, 60
18, 83999, Note_on_c, 14, 44, 0
18, 84000, Note_on_c, 14, 43, 52
18, 84119, Note_on_c, 14, 43, 0
18, 84120, Note_on_c, 14, 48, 60
18, 84231, Note_on_c, 14, 48, 0
18, 84240, Note_on_c, 14, 43, 52
18, 84359, Note_on_c, 14, 43, 0
18, 84360, Note_on_c, 14, 51, 60
18, 84479, Note_on_c, 14, 51, 0
18, 84480, Note_on_c, 14, 43, 52
18, 84599, Note_on_c, 14, 43, 0
18, 84600, Note_on_c, 14, 55, 60
18, 84711, Note_on_c, 14, 55, 0
18, 84720, Note_on_c, 14, 41, 52
18, 84839, Note_on_c, 14, 41, 0
18, 84840, Note_on_c, 14, 47, 60
18, 84959, Note_on_c, 14, 47, 0
18, 84960, Note_on_c, 14, 41, 52
18, 85079, Note_on_c, 14, 41, 0
18, 85080, Note_on_c, 14, 50, 60
18, 85191, Note_on_c, 14, 50, 0
18, 85198, Control_c, 14, 11, 96
18, 85200, Note_on_c, 14, 47, 68
18, 85260, Control_c, 14, 11, 96
18, 85283, Control_c, 14, 11, 98
18, 85307, Control_c, 14, 11, 99
18, 85319, Note_on_c, 14, 47, 0
18, 85320, Note_on_c, 14, 53, 68
18, 85330, Control_c, 14, 11, 101
18, 85353, Control_c, 14, 11, 103
18, 85377, Control_c, 14, 11, 105
18, 85400, Control_c, 14, 11, 106
18, 85423, Control_c, 14, 11, 108
18, 85439, Note_on_c, 14, 53, 0
18, 85440, Note_on_c, 14, 50, 68
18, 85447, Control_c, 14, 11, 110
18, 85470, Control_c, 14, 11, 112
18, 85493, Control_c, 14, 11, 113
18, 85517, Control_c, 14, 11, 115
18, 85540, Control_c, 14, 11, 117
18, 85559, Note_on_c, 14, 50, 0
18, 85560, Note_on_c, 14, 47, 68
18, 85563, Control_c, 14, 11, 118
18, 85587, Control_c, 14, 11, 120
18, 85610, Control_c, 14, 11, 122
18, 85633, Control_c, 14, 11, 124
18, 85657, Control_c, 14, 11, 127
18, 85671, Note_on_c, 14, 47, 0
18, 85680, Note_on_c, 14, 46, 68
18, 85680, Control_c, 14, 11, 127
18, 85700, Control_c, 14, 11, 126
18, 85720, Control_c, 14, 11, 124
18, 85740, Control_c, 14, 11, 123
18, 85760, Control_c, 14, 11, 122
18, 85780, Control_c, 14, 11, 121
18, 85791, Note_on_c, 14, 46, 0
18, 85800, Control_c, 14, 11, 119
18, 85800, Note_on_c, 14, 58, 68
18, 85820, Control_c, 14, 11, 118
18, 85840, Control_c, 14, 11, 117
18, 85860, Control_c, 14, 11, 115
18, 85880, Control_c, 14, 11, 114
18, 85900, Control_c, 14, 11, 113
18, 85911, Note_on_c, 14, 58, 0
18, 85920, Note_on_c, 14, 46, 68
18, 85920, Control_c, 14, 11, 112
18, 85940, Control_c, 14, 11, 110
18, 85960, Control_c, 14, 11, 109
18, 85980, Control_c, 14, 11, 108
18, 86000, Control_c, 14, 11, 106
18, 86020, Control_c, 14, 11, 105
18, 86031, Note_on_c, 14, 46, 0
18, 86040, Control_c, 14, 11, 104
18, 86040, Note_on_c, 14, 58, 68
18, 86060, Control_c, 14, 11, 102
18, 86080, Control_c, 14, 11, 101
18, 86100, Control_c, 14, 11, 100
18, 86120, Control_c, 14, 11, 99
18, 86140, Control_c, 14, 11, 96
18, 86151, Note_on_c, 14, 58, 0
18, 86160, Note_on_c, 14, 51, 68
18, 86271, Note_on_c, 14, 51, 0
18, 86280, Note_on_c, 14, 56, 68
18, 86391, Note_on_c, 14, 56, 0
18, 86400, Note_on_c, 14, 51, 68
18, 86435, Note_on_c, 14, 51, 0
18, 86440, Note_on_c, 14, 48, 68
18, 86475, Note_on_c, 14, 48, 0
18, 86480, Note_on_c, 14, 46, 68
18, 86515, Note_on_c, 14, 46, 0
18, 86520, Note_on_c, 14, 44, 68
18, 86555, Note_on_c, 14, 44, 0
18, 86560, Note_on_c, 14, 43, 68
18, 86595, Note_on_c, 14, 43, 0
18, 86600, Note_on_c, 14, 41, 68
18, 86635, Note_on_c, 14, 41, 0
18, 86640, Note_on_c, 14, 55, 68
18, 86879, Note_on_c, 14, 55, 0
18, 86880, Note_on_c, 14, 53, 68
18, 86999, Note_on_c, 14, 53, 0
18, 87000, Note_on_c, 14, 51, 68
18, 87111, Note_on_c, 14, 51, 0
18, 87120, Control_c, 14, 11, 96
18, 87120, Note_on_c, 14, 50, 68
18, 87140, Control_c, 14, 11, 97
18, 87160, Control_c, 14, 11, 99
18, 87180, Control_c, 14, 11, 100
18, 87200, Control_c, 14, 11, 101
18, 87220, Control_c, 14, 11, 102
18, 87240, Control_c, 14, 11, 104
18, 87260, Control_c, 14, 11, 105
18, 87280, Control_c, 14, 11, 106
18, 87300, Control_c, 14, 11, 108
18, 87320, Control_c, 14, 11, 109
18, 87340, Control_c, 14, 11, 110
18, 87360, Control_c, 14, 11, 112
18, 87380, Control_c, 14, 11, 113
18, 87400, Control_c, 14, 11, 114
18, 87420, Control_c, 14, 11, 115
18, 87440, Control_c, 14, 11, 117
18, 87460, Control_c, 14, 11, 118
18, 87480, Control_c, 14, 11, 119
18, 87500, Control_c, 14, 11, 121
18, 87520, Control_c, 14, 11, 122
18, 87540, Control_c, 14, 11, 123
18, 87560, Control_c, 14, 11, 124
18, 87580, Control_c, 14, 11, 126
18, 87591, Note_on_c, 14, 50, 0
18, 87600, Control_c, 14, 11, 127
18, 87600, Note_on_c, 14, 51, 68
18, 87620, Control_c, 14, 11, 126
18, 87640, Control_c, 14, 11, 124
18, 87660, Control_c, 14, 11, 123
18, 87680, Control_c, 14, 11, 122
18, 87700, Control_c, 14, 11, 121
18, 87720, Control_c, 14, 11, 119
18, 87740, Control_c, 14, 11, 118
18, 87760, Control_c, 14, 11, 117
18, 87780, Control_c, 14, 11, 115
18, 87800, Control_c, 14, 11, 114
18, 87820, Control_c, 14, 11, 113
18, 87839, Note_on_c, 14, 51, 0
18, 87840, Control_c, 14, 11, 112
18, 87840, Note_on_c, 14, 50, 68
18, 87860, Control_c, 14, 11, 110
18, 87880, Control_c, 14, 11, 109
18, 87900, Control_c, 14, 11, 108
18, 87920, Control_c, 14, 11, 106
18, 87940, Control_c, 14, 11, 105
18, 87959, Note_on_c, 14, 50, 0
18, 87960, Note_on_c, 14, 48, 68
18, 87960, Control_c, 14, 11, 104
18, 87980, Control_c, 14, 11, 102
18, 88000, Control_c, 14, 11, 101
18, 88020, Control_c, 14, 11, 100
18, 88040, Control_c, 14, 11, 99
18, 88060, Control_c, 14, 11, 96
18, 88071, Note_on_c, 14, 48, 0
18, 88080, Note_on_c, 14, 49, 68
18, 88199, Note_on_c, 14, 49, 0
18, 88260, Control_c, 14, 11, 127
18, 88290, Note_on_c, 14, 52, 76
18, 88311, Note_on_c, 14, 52, 0
18, 88320, Note_on_c, 14, 52, 76
18, 88559, Note_on_c, 14, 52, 0
18, 88740, Control_c, 14, 11, 96
18, 88800, Note_on_c, 14, 53, 68
18, 88919, Note_on_c, 14, 53, 0
18, 88920, Note_on_c, 14, 55, 68
18, 89031, Note_on_c, 14, 55, 0
18, 89040, Note_on_c, 14, 56, 68
18, 89040, Control_c, 14, 11, 96
18, 89060, Control_c, 14, 11, 99
18, 89080, Control_c, 14, 11, 101
18, 89100, Control_c, 14, 11, 104
18, 89120, Control_c, 14, 11, 106
18, 89140, Control_c, 14, 11, 109
18, 89160, Control_c, 14, 11, 112
18, 89180, Control_c, 14, 11, 114
18, 89200, Control_c, 14, 11, 117
18, 89220, Control_c, 14, 11, 119
18, 89240, Control_c, 14, 11, 122
18, 89260, Control_c, 14, 11, 127
18, 89279, Note_on_c, 14, 56, 0
18, 89280, Note_on_c, 14, 44, 76
18, 89340, Control_c, 14, 11, 112
18, 89355, Control_c, 14, 11, 109
18, 89370, Control_c, 14, 11, 107
18, 89385, Control_c, 14, 11, 104
18, 89400, Control_c, 14, 11, 101
18, 89415, Control_c, 14, 11, 99
18, 89430, Control_c, 14, 11, 96
18, 89445, Control_c, 14, 11, 93
18, 89460, Control_c, 14, 11, 91
18, 89475, Control_c, 14, 11, 88
18, 89490, Control_c, 14, 11, 85
18, 89511, Note_on_c, 14, 44, 0
18, 89518, Control_c, 14, 11, 96
18, 89520, Note_on_c, 14, 55, 68
18, 89759, Note_on_c, 14, 55, 0
18, 89760, Note_on_c, 14, 50, 68
18, 89879, Note_on_c, 14, 50, 0
18, 89880, Note_on_c, 14, 53, 68
18, 89999, Note_on_c, 14, 53, 0
18, 90000, Note_on_c, 14, 51, 68
18, 90239, Note_on_c, 14, 51, 0
18, 90240, Note_on_c, 14, 50, 68
18, 90359, Note_on_c, 14, 50, 0
18, 90360, Note_on_c, 14, 48, 68
18, 90471, Note_on_c, 14, 48, 0
18, 90480, Control_c, 14, 11, 96
18, 90480, Note_on_c, 14, 47, 68
18, 90500, Control_c, 14, 11, 97
18, 90520, Control_c, 14, 11, 99
18, 90540, Control_c, 14, 11, 100
18, 90560, Control_c, 14, 11, 101
18, 90580, Control_c, 14, 11, 102
18, 90600, Control_c, 14, 11, 104
18, 90620, Control_c, 14, 11, 105
18, 90640, Control_c, 14, 11, 106
18, 90660, Control_c, 14, 11, 108
18, 90680, Control_c, 14, 11, 109
18, 90700, Control_c, 14, 11, 110
18, 90720, Control_c, 14, 11, 112
18, 90740, Control_c, 14, 11, 113
18, 90760, Control_c, 14, 11, 114
18, 90780, Control_c, 14, 11, 115
18, 90800, Control_c, 14, 11, 117
18, 90820, Control_c, 14, 11, 118
18, 90839, Note_on_c, 14, 47, 0
18, 90840, Note_on_c, 14, 50, 68
18, 90840, Control_c, 14, 11, 119
18, 90860, Control_c, 14, 11, 121
18, 90880, Control_c, 14, 11, 122
18, 90900, Control_c, 14, 11, 123
18, 90920, Control_c, 14, 11, 124
18, 90940, Control_c, 14, 11, 127
18, 90959, Note_on_c, 14, 50, 0
18, 90960, Control_c, 14, 11, 127
18, 90960, Note_on_c, 14, 48, 68
18, 90980, Control_c, 14, 11, 126
18, 91000, Control_c, 14, 11, 124
18, 91020, Control_c, 14, 11, 123
18, 91040, Control_c, 14, 11, 122
18, 91060, Control_c, 14, 11, 121
18, 91080, Control_c, 14, 11, 119
18, 91100, Control_c, 14, 11, 118
18, 91120, Control_c, 14, 11, 117
18, 91140, Control_c, 14, 11, 115
18, 91160, Control_c, 14, 11, 114
18, 91180, Control_c, 14, 11, 113
18, 91199, Note_on_c, 14, 48, 0
18, 91200, Control_c, 14, 11, 112
18, 91200, Note_on_c, 14, 46, 68
18, 91220, Control_c, 14, 11, 110
18, 91240, Control_c, 14, 11, 109
18, 91260, Control_c, 14, 11, 108
18, 91280, Control_c, 14, 11, 106
18, 91300, Control_c, 14, 11, 105
18, 91319, Note_on_c, 14, 46, 0
18, 91320, Note_on_c, 14, 44, 68
18, 91320, Control_c, 14, 11, 104
18, 91340, Control_c, 14, 11, 102
18, 91360, Control_c, 14, 11, 101
18, 91380, Control_c, 14, 11, 100
18, 91400, Control_c, 14, 11, 99
18, 91420, Control_c, 14, 11, 96
18, 91431, Note_on_c, 14, 44, 0
18, 91440, Note_on_c, 14, 43, 68
18, 91559, Note_on_c, 14, 43, 0
18, 91560, Note_on_c, 14, 44, 68
18, 91679, Note_on_c, 14, 44, 0
18, 91680, Note_on_c, 14, 43, 68
18, 91799, Note_on_c, 14, 43, 0
18, 91800, Note_on_c, 14, 48, 68
18, 91919, Note_on_c, 14, 48, 0
18, 91920, Note_on_c, 14, 47, 68
18, 92039, Note_on_c, 14, 47, 0
18, 92040, Note_on_c, 14, 51, 68
18, 92159, Note_on_c, 14, 51, 0
18, 92160, Note_on_c, 14, 50, 68
18, 92279, Note_on_c, 14, 50, 0
18, 92280, Note_on_c, 14, 48, 68
18, 92391, Note_on_c, 14, 48, 0
18, 92400, Control_c, 14, 11, 96
18, 92400, Note_on_c, 14, 47, 68
18, 92423, Control_c, 14, 11, 97
18, 92446, Control_c, 14, 11, 98
18, 92470, Control_c, 14, 11, 99
18, 92493, Control_c, 14, 11, 100
18, 92516, Control_c, 14, 11, 101
18, 92539, Control_c, 14, 11, 102
18, 92563, Control_c, 14, 11, 103
18, 92586, Control_c, 14, 11, 104
18, 92609, Control_c, 14, 11, 105
18, 92632, Control_c, 14, 11, 106
18, 92639, Note_on_c, 14, 47, 0
18, 92640, Note_on_c, 14, 44, 68
18, 92655, Control_c, 14, 11, 107
18, 92679, Control_c, 14, 11, 108
18, 92702, Control_c, 14, 11, 109
18, 92725, Control_c, 14, 11, 110
18, 92748, Control_c, 14, 11, 111
18, 92772, Control_c, 14, 11, 112
18, 92795, Control_c, 14, 11, 113
18, 92818, Control_c, 14, 11, 114
18, 92841, Control_c, 14, 11, 115
18, 92865, Control_c, 14, 11, 116
18, 92879, Note_on_c, 14, 44, 0
18, 92880, Note_on_c, 14, 43, 68
18, 92888, Control_c, 14, 11, 117
18, 92911, Control_c, 14, 11, 118
18, 92934, Control_c, 14, 11, 119
18, 92957, Control_c, 14, 11, 120
18, 92981, Control_c, 14, 11, 121
18, 93004, Control_c, 14, 11, 122
18, 93027, Control_c, 14, 11, 123
18, 93050, Control_c, 14, 11, 124
18, 93074, Control_c, 14, 11, 125
18, 93097, Control_c, 14, 11, 127
18, 93119, Note_on_c, 14, 43, 0
18, 93120, Note_on_c, 14, 43, 76
18, 93120, Note_on_c, 14, 36, 76
18, 93351, Note_on_c, 14, 43, 0
18, 93351, Note_on_c, 14, 36, 0
18, 93360, Note_on_c, 14, 41, 52
18, 93449, Note_on_c, 14, 41, 0
18, 93480, Note_on_c, 14, 44, 52
18, 93569, Note_on_c, 14, 44, 0
18, 93600, Note_on_c, 14, 41, 52
18, 93689, Note_on_c, 14, 41, 0
18, 93720, Note_on_c, 14, 53, 52
18, 93809, Note_on_c, 14, 53, 0
18, 93840, Note_on_c, 14, 49, 52
18, 93929, Note_on_c, 14, 49, 0
18, 93960, Note_on_c, 14, 53, 52
18, 94049, Note_on_c, 14, 53, 0
18, 94080, Note_on_c, 14, 49, 52
18, 94169, Note_on_c, 14, 49, 0
18, 94200, Note_on_c, 14, 61, 52
18, 94289, Note_on_c, 14, 61, 0
18, 94320, Note_on_c, 14, 47, 52
18, 94409, Note_on_c, 14, 47, 0
18, 94440, Note_on_c, 14, 59, 58
18, 94529, Note_on_c, 14, 59, 0
18, 94560, Note_on_c, 14, 41, 64
18, 94649, Note_on_c, 14, 41, 0
18, 94680, Note_on_c, 14, 53, 70
18, 94769, Note_on_c, 14, 53, 0
18, 94800, Note_on_c, 14, 51, 76
18, 94889, Note_on_c, 14, 51, 0
18, 94920, Note_on_c, 14, 53, 76
18, 95009, Note_on_c, 14, 53, 0
18, 95100, Control_c, 14, 11, 96
18, 95160, Note_on_c, 14, 56, 68
18, 95280, Control_c, 14, 11, 96
18, 95293, Control_c, 14, 11, 99
18, 95307, Control_c, 14, 11, 103
18, 95320, Control_c, 14, 11, 106
18, 95333, Control_c, 14, 11, 110
18, 95347, Control_c, 14, 11, 113
18, 95360, Control_c, 14, 11, 117
18, 95373, Control_c, 14, 11, 120
18, 95387, Control_c, 14, 11, 127
18, 95399, Note_on_c, 14, 56, 0
18, 95400, Control_c, 14, 11, 127
18, 95400, Note_on_c, 14, 55, 68
18, 95413, Control_c, 14, 11, 124
18, 95427, Control_c, 14, 11, 120
18, 95440, Control_c, 14, 11, 117
18, 95453, Control_c, 14, 11, 113
18, 95467, Control_c, 14, 11, 110
18, 95480, Control_c, 14, 11, 106
18, 95493, Control_c, 14, 11, 103
18, 95507, Control_c, 14, 11, 96
18, 95511, Note_on_c, 14, 55, 0
18, 95520, Note_on_c, 14, 43, 68
18, 95631, Note_on_c, 14, 43, 0
18, 95640, Note_on_c, 14, 55, 68
18, 95751, Note_on_c, 14, 55, 0
18, 95760, Note_on_c, 14, 48, 68
18, 95879, Note_on_c, 14, 48, 0
18, 95920, Control_c, 14, 11, 112
18, 95940, Note_on_c, 14, 48, 60
18, 95954, Note_on_c, 14, 48, 0
18, 95955, Note_on_c, 14, 50, 60
18, 95969, Note_on_c, 14, 50, 0
18, 95970, Note_on_c, 14, 51, 60
18, 95984, Note_on_c, 14, 51, 0
18, 95985, Note_on_c, 14, 53, 60
18, 95999, Note_on_c, 14, 53, 0
18, 96000, Note_on_c, 14, 55, 60
18, 96089, Note_on_c, 14, 55, 0
18, 96160, Control_c, 14, 11, 127
18, 96180, Note_on_c, 14, 55, 52
18, 96199, Note_on_c, 14, 55, 0
18, 96200, Note_on_c, 14, 57, 52
18, 96219, Note_on_c, 14, 57, 0
18, 96220, Note_on_c, 14, 59, 52
18, 96235, Note_on_c, 14, 59, 0
18, 96240, Note_on_c, 14, 60, 52
18, 96359, Note_on_c, 14, 60, 0
18, 96360, Note_on_c, 14, 55, 52
18, 96479, Note_on_c, 14, 55, 0
18, 96480, Note_on_c, 14, 51, 52
18, 96599, Note_on_c, 14, 51, 0
18, 96600, Note_on_c, 14, 48, 52
18, 96711, Note_on_c, 14, 48, 0
18, 96720, Note_on_c, 14, 47, 52
18, 96839, Note_on_c, 14, 47, 0
18, 96840, Note_on_c, 14, 43, 52
18, 96959, Note_on_c, 14, 43, 0
18, 96960, Note_on_c, 14, 48, 52
18, 97079, Note_on_c, 14, 48, 0
18, 97080, Note_on_c, 14, 51, 52
18, 97191, Note_on_c, 14, 51, 0
18, 97200, Note_on_c, 14, 55, 52
18, 97439, Note_on_c, 14, 55, 0
18, 97440, Note_on_c, 14, 43, 52
18, 97559, Note_on_c, 14, 43, 0
18, 97680, Note_on_c, 14, 41, 76
18, 97791, Note_on_c, 14, 41, 0
18, 97800, Note_on_c, 14, 53, 76
18, 97911, Note_on_c, 14, 53, 0
18, 97920, Note_on_c, 14, 53, 76
18, 98031, Note_on_c, 14, 53, 0
18, 98040, Note_on_c, 14, 53, 76
18, 98151, Note_on_c, 14, 53, 0
18, 98160, Note_on_c, 14, 42, 84
18, 98220, Control_c, 14, 11, 112
18, 98255, Control_c, 14, 11, 108
18, 98271, Note_on_c, 14, 42, 0
18, 98280, Note_on_c, 14, 54, 84
18, 98290, Control_c, 14, 11, 104
18, 98325, Control_c, 14, 11, 100
18, 98360, Control_c, 14, 11, 96
18, 98391, Note_on_c, 14, 54, 0
18, 98395, Control_c, 14, 11, 92
18, 98400, Note_on_c, 14, 54, 84
18, 98430, Control_c, 14, 11, 88
18, 98465, Control_c, 14, 11, 84
18, 98500, Control_c, 14, 11, 80
18, 98511, Note_on_c, 14, 54, 0
18, 98520, Note_on_c, 14, 54, 84
18, 98535, Control_c, 14, 11, 76
18, 98570, Control_c, 14, 11, 72
18, 98605, Control_c, 14, 11, 68
18, 98631, Note_on_c, 14, 54, 0
18, 98638, Control_c, 14, 11, 80
18, 98640, Note_on_c, 14, 43, 76
18, 98751, Note_on_c, 14, 43, 0
18, 98760, Note_on_c, 14, 55, 76
18, 98871, Note_on_c, 14, 55, 0
18, 98880, Note_on_c, 14, 43, 76
18, 98991, Note_on_c, 14, 43, 0
18, 99000, Note_on_c, 14, 55, 76
18, 99111, Note_on_c, 14, 55, 0
18, 99120, Note_on_c, 14, 48, 76
18, 99239, Note_on_c, 14, 48, 0
18, 99240, Note_on_c, 14, 55, 76
18, 99359, Note_on_c, 14, 55, 0
18, 99360, Note_on_c, 14, 51, 76
18, 99479, Note_on_c, 14, 51, 0
18, 99480, Note_on_c, 14, 48, 76
18, 99591, Note_on_c, 14, 48, 0
18, 99600, Control_c, 14, 11, 80
18, 99600, Note_on_c, 14, 43, 76
18, 99640, Control_c, 14, 11, 84
18, 99680, Control_c, 14, 11, 88
18, 99711, Note_on_c, 14, 43, 0
18, 99720, Control_c, 14, 11, 92
18, 99720, Note_on_c, 14, 55, 76
18, 99760, Control_c, 14, 11, 96
18, 99800, Control_c, 14, 11, 100
18, 99831, Note_on_c, 14, 55, 0
18, 99840, Note_on_c, 14, 43, 76
18, 99840, Control_c, 14, 11, 104
18, 99880, Control_c, 14, 11, 107
18, 99920, Control_c, 14, 11, 111
18, 99951, Note_on_c, 14, 43, 0
18, 99960, Note_on_c, 14, 55, 76
18, 99960, Control_c, 14, 11, 115
18, 100000, Control_c, 14, 11, 119
18, 100040, Control_c, 14, 11, 127
18, 100071, Note_on_c, 14, 55, 0
18, 100080, Note_on_c, 14, 44, 76
18, 100199, Note_on_c, 14, 44, 0
18, 103800, Note_on_c, 14, 48, 44
18, 103889, Note_on_c, 14, 48, 0
18, 103920, Note_on_c, 14, 49, 44
18, 104009, Note_on_c, 14, 49, 0
18, 104040, Note_on_c, 14, 56, 44
18, 104129, Note_on_c, 14, 56, 0
18, 104160, Note_on_c, 14, 49, 44
18, 104249, Note_on_c, 14, 49, 0
18, 104280, Note_on_c, 14, 56, 44
18, 104369, Note_on_c, 14, 56, 0
18, 104400, Note_on_c, 14, 47, 44
18, 104489, Note_on_c, 14, 47, 0
18, 104520, Note_on_c, 14, 56, 44
18, 104609, Note_on_c, 14, 56, 0
18, 104640, Note_on_c, 14, 47, 44
18, 104729, Note_on_c, 14, 47, 0
18, 104760, Note_on_c, 14, 55, 44
18, 104849, Note_on_c, 14, 55, 0
18, 104880, Note_on_c, 14, 48, 44
18, 104969, Note_on_c, 14, 48, 0
18, 105000, Note_on_c, 14, 51, 44
18, 105089, Note_on_c, 14, 51, 0
18, 105120, Note_on_c, 14, 48, 44
18, 105209, Note_on_c, 14, 48, 0
18, 105240, Note_on_c, 14, 51, 44
18, 105329, Note_on_c, 14, 51, 0
18, 105358, Control_c, 14, 11, 96
18, 105360, Control_c, 14, 11, 96
18, 105360, Note_on_c, 14, 44, 60
18, 105420, Control_c, 14, 11, 100
18, 105449, Note_on_c, 14, 44, 0
18, 105480, Control_c, 14, 11, 104
18, 105480, Note_on_c, 14, 48, 60
18, 105540, Control_c, 14, 11, 108
18, 105569, Note_on_c, 14, 48, 0
18, 105600, Note_on_c, 14, 44, 60
18, 105600, Control_c, 14, 11, 112
18, 105660, Control_c, 14, 11, 115
18, 105689, Note_on_c, 14, 44, 0
18, 105720, Note_on_c, 14, 48, 60
18, 105720, Control_c, 14, 11, 119
18, 105780, Control_c, 14, 11, 127
18, 105809, Note_on_c, 14, 48, 0
18, 105840, Control_c, 14, 11, 127
18, 105840, Note_on_c, 14, 41, 60
18, 105900, Control_c, 14, 11, 123
18, 105929, Note_on_c, 14, 41, 0
18, 105960, Note_on_c, 14, 44, 60
18, 105960, Control_c, 14, 11, 119
18, 106020, Control_c, 14, 11, 115
18, 106049, Note_on_c, 14, 44, 0
18, 106080, Note_on_c, 14, 41, 60
18, 106080, Control_c, 14, 11, 112
18, 106140, Control_c, 14, 11, 108
18, 106169, Note_on_c, 14, 41, 0
18, 106200, Control_c, 14, 11, 104
18, 106200, Note_on_c, 14, 44, 60
18, 106260, Control_c, 14, 11, 96
18, 106289, Note_on_c, 14, 44, 0
18, 106320, Note_on_c, 14, 42, 60
18, 106409, Note_on_c, 14, 42, 0
18, 106440, Note_on_c, 14, 43, 60
18, 106529, Note_on_c, 14, 43, 0
18, 106560, Note_on_c, 14, 42, 60
18, 106649, Note_on_c, 14, 42, 0
18, 106680, Note_on_c, 14, 43, 60
18, 106769, Note_on_c, 14, 43, 0
18, 106800, Note_on_c, 14, 48, 60
18, 107039, Note_on_c, 14, 48, 0
18, 107040, Note_on_c, 14, 55, 60
18, 107159, Note_on_c, 14, 55, 0
18, 107160, Note_on_c, 14, 58, 60
18, 107271, Note_on_c, 14, 58, 0
18, 107280, Note_on_c, 14, 56, 60
18, 107519, Note_on_c, 14, 56, 0
18, 107520, Note_on_c, 14, 55, 60
18, 107639, Note_on_c, 14, 55, 0
18, 107640, Note_on_c, 14, 53, 60
18, 107751, Note_on_c, 14, 53, 0
18, 107760, Control_c, 14, 11, 96
18, 107760, Note_on_c, 14, 48, 60
18, 107806, Control_c, 14, 11, 97
18, 107853, Control_c, 14, 11, 98
18, 107899, Control_c, 14, 11, 99
18, 107946, Control_c, 14, 11, 100
18, 107992, Control_c, 14, 11, 101
18, 107999, Note_on_c, 14, 48, 0
18, 108000, Note_on_c, 14, 52, 60
18, 108039, Control_c, 14, 11, 102
18, 108085, Control_c, 14, 11, 103
18, 108119, Note_on_c, 14, 52, 0
18, 108120, Note_on_c, 14, 55, 60
18, 108132, Control_c, 14, 11, 104
18, 108178, Control_c, 14, 11, 105
18, 108225, Control_c, 14, 11, 106
18, 108231, Note_on_c, 14, 55, 0
18, 108240, Note_on_c, 14, 53, 60
18, 108271, Control_c, 14, 11, 107
18, 108317, Control_c, 14, 11, 108
18, 108364, Control_c, 14, 11, 109
18, 108410, Control_c, 14, 11, 110
18, 108457, Control_c, 14, 11, 111
18, 108479, Note_on_c, 14, 53, 0
18, 108480, Note_on_c, 14, 55, 60
18, 108503, Control_c, 14, 11, 112
18, 108550, Control_c, 14, 11, 113
18, 108596, Control_c, 14, 11, 114
18, 108599, Note_on_c, 14, 55, 0
18, 108600, Note_on_c, 14, 56, 60
18, 108643, Control_c, 14, 11, 115
18, 108689, Control_c, 14, 11, 116
18, 108711, Note_on_c, 14, 56, 0
18, 108720, Note_on_c, 14, 55, 60
18, 108735, Control_c, 14, 11, 117
18, 108782, Control_c, 14, 11, 118
18, 108828, Control_c, 14, 11, 119
18, 108839, Note_on_c, 14, 55, 0
18, 108840, Note_on_c, 14, 53, 60
18, 108875, Control_c, 14, 11, 120
18, 108921, Control_c, 14, 11, 121
18, 108959, Note_on_c, 14, 53, 0
18, 108960, Note_on_c, 14, 52, 60
18, 108968, Control_c, 14, 11, 122
18, 109014, Control_c, 14, 11, 123
18, 109061, Control_c, 14, 11, 124
18, 109079, Note_on_c, 14, 52, 0
18, 109080, Note_on_c, 14, 53, 60
18, 109107, Control_c, 14, 11, 125
18, 109191, Note_on_c, 14, 53, 0
18, 109198, Control_c, 14, 11, 127
18, 109200, Note_on_c, 14, 48, 52
18, 109319, Note_on_c, 14, 48, 0
18, 109680, Note_on_c, 14, 48, 52
18, 109799, Note_on_c, 14, 48, 0
18, 110160, Note_on_c, 14, 48, 52
18, 110279, Note_on_c, 14, 48, 0
18, 110610, Control_c, 14, 11, 96
18, 110640, Control_c, 14, 11, 96
18, 110640, Note_on_c, 14, 47, 68
18, 110660, Control_c, 14, 11, 98
18, 110680, Control_c, 14, 11, 99
18, 110700, Control_c, 14, 11, 101
18, 110720, Control_c, 14, 11, 103
18, 110740, Control_c, 14, 11, 105
18, 110760, Control_c, 14, 11, 106
18, 110780, Control_c, 14, 11, 108
18, 110800, Control_c, 14, 11, 110
18, 110820, Control_c, 14, 11, 112
18, 110840, Control_c, 14, 11, 113
18, 110860, Control_c, 14, 11, 115
18, 110880, Control_c, 14, 11, 117
18, 110900, Control_c, 14, 11, 118
18, 110920, Control_c, 14, 11, 120
18, 110940, Control_c, 14, 11, 122
18, 110960, Control_c, 14, 11, 124
18, 110980, Control_c, 14, 11, 127
18, 111000, Control_c, 14, 11, 127
18, 111013, Control_c, 14, 11, 124
18, 111027, Control_c, 14, 11, 120
18, 111040, Control_c, 14, 11, 117
18, 111053, Control_c, 14, 11, 113
18, 111067, Control_c, 14, 11, 110
18, 111080, Control_c, 14, 11, 106
18, 111093, Control_c, 14, 11, 103
18, 111107, Control_c, 14, 11, 96
18, 111119, Note_on_c, 14, 47, 0
18, 111120, Note_on_c, 14, 48, 68
18, 111239, Note_on_c, 14, 48, 0
18, 111600, Control_c, 14, 11, 96
18, 111600, Note_on_c, 14, 47, 68
18, 111620, Control_c, 14, 11, 99
18, 111640, Control_c, 14, 11, 101
18, 111660, Control_c, 14, 11, 104
18, 111680, Control_c, 14, 11, 106
18, 111700, Control_c, 14, 11, 109
18, 111720, Control_c, 14, 11, 112
18, 111740, Control_c, 14, 11, 114
18, 111760, Control_c, 14, 11, 117
18, 111780, Control_c, 14, 11, 119
18, 111800, Control_c, 14, 11, 122
18, 111820, Control_c, 14, 11, 124
18, 111840, Control_c, 14, 11, 127
18, 111860, Control_c, 14, 11, 124
18, 111880, Control_c, 14, 11, 122
18, 111900, Control_c, 14, 11, 119
18, 111920, Control_c, 14, 11, 117
18, 111940, Control_c, 14, 11, 114
18, 111960, Control_c, 14, 11, 112
18, 111980, Control_c, 14, 11, 109
18, 112000, Control_c, 14, 11, 106
18, 112020, Control_c, 14, 11, 104
18, 112040, Control_c, 14, 11, 101
18, 112060, Control_c, 14, 11, 96
18, 112079, Note_on_c, 14, 47, 0
18, 112080, Note_on_c, 14, 48, 68
18, 112199, Note_on_c, 14, 48, 0
18, 112560, Note_on_c, 14, 47, 68
18, 113039, Note_on_c, 14, 47, 0
18, 113040, Control_c, 14, 11, 96
18, 113040, Note_on_c, 14, 47, 68
18, 113080, Control_c, 14, 11, 99
18, 113120, Control_c, 14, 11, 101
18, 113160, Control_c, 14, 11, 104
18, 113200, Control_c, 14, 11, 106
18, 113240, Control_c, 14, 11, 109
18, 113280, Control_c, 14, 11, 112
18, 113320, Control_c, 14, 11, 114
18, 113360, Control_c, 14, 11, 117
18, 113400, Control_c, 14, 11, 119
18, 113440, Control_c, 14, 11, 122
18, 113500, Control_c, 14, 11, 127
18, 113519, Note_on_c, 14, 47, 0
18, 113520, Control_c, 14, 11, 127
18, 113520, Note_on_c, 14, 47, 68
18, 113560, Control_c, 14, 11, 124
18, 113600, Control_c, 14, 11, 122
18, 113640, Control_c, 14, 11, 119
18, 113680, Control_c, 14, 11, 117
18, 113720, Control_c, 14, 11, 114
18, 113760, Control_c, 14, 11, 112
18, 113800, Control_c, 14, 11, 109
18, 113840, Control_c, 14, 11, 106
18, 113880, Control_c, 14, 11, 104
18, 113920, Control_c, 14, 11, 101
18, 113960, Control_c, 14, 11, 96
18, 113999, Note_on_c, 14, 47, 0
18, 114238, Program_c, 14, 45
18, 114238, Control_c, 14, 11, 127
18, 114240, Note_on_c, 14, 48, 44
18, 114359, Note_on_c, 14, 48, 0
18, 114480, Note_on_c, 14, 43, 44
18, 114599, Note_on_c, 14, 43, 0
18, 114720, Note_on_c, 14, 51, 44
18, 114839, Note_on_c, 14, 51, 0
18, 114960, Note_on_c, 14, 48, 44
18, 115079, Note_on_c, 14, 48, 0
18, 115440, Note_on_c, 14, 43, 44
18, 115559, Note_on_c, 14, 43, 0
18, 115920, Note_on_c, 14, 43, 44
18, 116039, Note_on_c, 14, 43, 0
18, 116880, Note_on_c, 14, 43, 44
18, 116999, Note_on_c, 14, 43, 0
18, 117840, Program_c, 14, 48
18, 118020, Note_on_c, 14, 43, 76
18, 118039, Note_on_c, 14, 43, 0
18, 118040, Note_on_c, 14, 45, 76
18, 118059, Note_on_c, 14, 45, 0
18, 118060, Note_on_c, 14, 47, 76
18, 118079, Note_on_c, 14, 47, 0
18, 118080, Note_on_c, 14, 48, 76
18, 118169, Note_on_c, 14, 48, 0
18, 118200, Control_c, 14, 11, 127
18, 118213, Control_c, 14, 11, 122
18, 118227, Control_c, 14, 11, 117
18, 118240, Control_c, 14, 11, 111
18, 118253, Control_c, 14, 11, 106
18, 118260, Note_on_c, 14, 43, 76
18, 118267, Control_c, 14, 11, 101
18, 118279, Note_on_c, 14, 43, 0
18, 118280, Note_on_c, 14, 45, 76
18, 118280, Control_c, 14, 11, 96
18, 118293, Control_c, 14, 11, 88
18, 118299, Note_on_c, 14, 45, 0
18, 118300, Note_on_c, 14, 47, 76
18, 118307, Control_c, 14, 11, 80
18, 118319, Note_on_c, 14, 47, 0
18, 118320, Note_on_c, 14, 48, 76
18, 118679, Note_on_c, 14, 48, 0
18, 118679, End_track
19, 0, Start_track
19, 0, Title_t, "Contrabass"
19, 0, MIDI_port, 0
19, 0, Program_c, 15, 48
19, 0, Control_c, 15, 7, 88
19, 0, Control_c, 15, 10, 100
19, 0, Control_c, 15, 11, 127
19, 180, Note_on_c, 15, 31, 44
19, 199, Note_on_c, 15, 31, 0
19, 200, Note_on_c, 15, 33, 44
19, 219, Note_on_c, 15, 33, 0
19, 220, Note_on_c, 15, 35, 44
19, 239, Note_on_c, 15, 35, 0
19, 240, Note_on_c, 15, 36, 44
19, 329, Note_on_c, 15, 36, 0
19, 660, Note_on_c, 15, 31, 44
19, 679, Note_on_c, 15, 31, 0
19, 680, Note_on_c, 15, 33, 44
19, 699, Note_on_c, 15, 33, 0
19, 700, Note_on_c, 15, 35, 44
19, 719, Note_on_c, 15, 35, 0
19, 720, Note_on_c, 15, 36, 44
19, 809, Note_on_c, 15, 36, 0
19, 1140, Note_on_c, 15, 31, 44
19, 1159, Note_on_c, 15, 31, 0
19, 1160, Note_on_c, 15, 33, 44
19, 1179, Note_on_c, 15, 33, 0
19, 1180, Note_on_c, 15, 35, 44
19, 1199, Note_on_c, 15, 35, 0
19, 1200, Note_on_c, 15, 36, 44
19, 1289, Note_on_c, 15, 36, 0
19, 1380, Note_on_c, 15, 36, 44
19, 1409, Note_on_c, 15, 36, 0
19, 1410, Note_on_c, 15, 38, 44
19, 1439, Note_on_c, 15, 38, 0
19, 1440, Note_on_c, 15, 39, 44
19, 1529, Note_on_c, 15, 39, 0
19, 1620, Note_on_c, 15, 39, 44
19, 1649, Note_on_c, 15, 39, 0
19, 1650, Note_on_c, 15, 41, 44
19, 1679, Note_on_c, 15, 41, 0
19, 1680, Note_on_c, 15, 43, 44
19, 2039, Note_on_c, 15, 43, 0
19, 2100, Note_on_c, 15, 41, 44
19, 2129, Note_on_c, 15, 41, 0
19, 2130, Note_on_c, 15, 43, 44
19, 2159, Note_on_c, 15, 43, 0
19, 2160, Note_on_c, 15, 44, 44
19, 2399, Note_on_c, 15, 44, 0
19, 2520, Note_on_c, 15, 41, 44
19, 2549, Note_on_c, 15, 41, 0
19, 2550, Note_on_c, 15, 39, 44
19, 2579, Note_on_c, 15, 39, 0
19, 2580, Note_on_c, 15, 38, 44
19, 2609, Note_on_c, 15, 38, 0
19, 2610, Note_on_c, 15, 36, 44
19, 2635, Note_on_c, 15, 36, 0
19, 2640, Note_on_c, 15, 35, 60
19, 2879, Note_on_c, 15, 35, 0
19, 3060, Note_on_c, 15, 31, 44
19, 3079, Note_on_c, 15, 31, 0
19, 3080, Note_on_c, 15, 33, 44
19, 3099, Note_on_c, 15, 33, 0
19, 3100, Note_on_c, 15, 35, 44
19, 3115, Note_on_c, 15, 35, 0
19, 3120, Note_on_c, 15, 36, 44
19, 3209, Note_on_c, 15, 36, 0
19, 3300, Note_on_c, 15, 29, 44
19, 3319, Note_on_c, 15, 29, 0
19, 3320, Note_on_c, 15, 29, 44
19, 3339, Note_on_c, 15, 29, 0
19, 3340, Note_on_c, 15, 29, 44
19, 3355, Note_on_c, 15, 29, 0
19, 3360, Note_on_c, 15, 31, 44
19, 3449, Note_on_c, 15, 31, 0
19, 3540, Note_on_c, 15, 31, 44
19, 3559, Note_on_c, 15, 31, 0
19, 3560, Note_on_c, 15, 31, 44
19, 3579, Note_on_c, 15, 31, 0
19, 3580, Note_on_c, 15, 31, 44
19, 3595, Note_on_c, 15, 31, 0
19, 3600, Note_on_c, 15, 36, 44
19, 3711, Note_on_c, 15, 36, 0
19, 3720, Note_on_c, 15, 41, 44
19, 3801, Note_on_c, 15, 41, 0
19, 3810, Note_on_c, 15, 41, 44
19, 3835, Note_on_c, 15, 41, 0
19, 3840, Note_on_c, 15, 36, 44
19, 3959, Note_on_c, 15, 36, 0
19, 4020, Note_on_c, 15, 36, 44
19, 4039, Note_on_c, 15, 36, 0
19, 4040, Note_on_c, 15, 36, 44
19, 4059, Note_on_c, 15, 36, 0
19, 4060, Note_on_c, 15, 36, 44
19, 4075, Note_on_c, 15, 36, 0
19, 4080, Note_on_c, 15, 36, 44
19, 4199, Note_on_c, 15, 36, 0
19, 4500, Note_on_c, 15, 36, 44
19, 4519, Note_on_c, 15, 36, 0
19, 4520, Note_on_c, 15, 36, 44
19, 4539, Note_on_c, 15, 36, 0
19, 4540, Note_on_c, 15, 36, 44
19, 4555, Note_on_c, 15, 36, 0
19, 4560, Note_on_c, 15, 36, 44
19, 4679, Note_on_c, 15, 36, 0
19, 4980, Note_on_c, 15, 36, 44
19, 4999, Note_on_c, 15, 36, 0
19, 5000, Note_on_c, 15, 36, 44
19, 5019, Note_on_c, 15, 36, 0
19, 5020, Note_on_c, 15, 36, 44
19, 5035, Note_on_c, 15, 36, 0
19, 5040, Note_on_c, 15, 36, 44
19, 5159, Note_on_c, 15, 36, 0
19, 5220, Note_on_c, 15, 36, 44
19, 5239, Note_on_c, 15, 36, 0
19, 5240, Note_on_c, 15, 36, 44
19, 5259, Note_on_c, 15, 36, 0
19, 5260, Note_on_c, 15, 36, 44
19, 5275, Note_on_c, 15, 36, 0
19, 5280, Note_on_c, 15, 39, 44
19, 5399, Note_on_c, 15, 39, 0
19, 5430, Control_c, 15, 11, 96
19, 5460, Note_on_c, 15, 39, 60
19, 5479, Note_on_c, 15, 39, 0
19, 5480, Note_on_c, 15, 39, 60
19, 5499, Note_on_c, 15, 39, 0
19, 5500, Note_on_c, 15, 39, 60
19, 5515, Note_on_c, 15, 39, 0
19, 5520, Note_on_c, 15, 43, 60
19, 5520, Control_c, 15, 11, 96
19, 5540, Control_c, 15, 11, 99
19, 5560, Control_c, 15, 11, 101
19, 5580, Control_c, 15, 11, 104
19, 5600, Control_c, 15, 11, 106
19, 5620, Control_c, 15, 11, 109
19, 5639, Note_on_c, 15, 43, 0
19, 5640, Control_c, 15, 11, 112
19, 5660, Control_c, 15, 11, 114
19, 5680, Control_c, 15, 11, 117
19, 5700, Control_c, 15, 11, 119
19, 5700, Note_on_c, 15, 43, 60
19, 5719, Note_on_c, 15, 43, 0
19, 5720, Note_on_c, 15, 43, 60
19, 5720, Control_c, 15, 11, 122
19, 5739, Note_on_c, 15, 43, 0
19, 5740, Note_on_c, 15, 43, 60
19, 5740, Control_c, 15, 11, 124
19, 5755, Note_on_c, 15, 43, 0
19, 5760, Control_c, 15, 11, 127
19, 5760, Note_on_c, 15, 43, 60
19, 5773, Control_c, 15, 11, 124
19, 5787, Control_c, 15, 11, 120
19, 5800, Control_c, 15, 11, 117
19, 5813, Control_c, 15, 11, 113
19, 5827, Control_c, 15, 11, 110
19, 5840, Control_c, 15, 11, 106
19, 5853, Control_c, 15, 11, 103
19, 5867, Control_c, 15, 11, 96
19, 5879, Note_on_c, 15, 43, 0
19, 5940, Note_on_c, 15, 43, 60
19, 5959, Note_on_c, 15, 43, 0
19, 5960, Note_on_c, 15, 43, 60
19, 5979, Note_on_c, 15, 43, 0
19, 5980, Note_on_c, 15, 43, 60
19, 5995, Note_on_c, 15, 43, 0
19, 6000, Note_on_c, 15, 41, 60
19, 6119, Note_on_c, 15, 41, 0
19, 6420, Note_on_c, 15, 35, 68
19, 6439, Note_on_c, 15, 35, 0
19, 6440, Note_on_c, 15, 35, 68
19, 6459, Note_on_c, 15, 35, 0
19, 6460, Note_on_c, 15, 35, 68
19, 6475, Note_on_c, 15, 35, 0
19, 6480, Note_on_c, 15, 35, 68
19, 6599, Note_on_c, 15, 35, 0
19, 6900, Control_c, 15, 11, 96
19, 6900, Note_on_c, 15, 35, 68
19, 6919, Note_on_c, 15, 35, 0
19, 6920, Control_c, 15, 11, 99
19, 6920, Note_on_c, 15, 35, 68
19, 6939, Note_on_c, 15, 35, 0
19, 6940, Note_on_c, 15, 35, 68
19, 6940, Control_c, 15, 11, 101
19, 6955, Note_on_c, 15, 35, 0
19, 6960, Note_on_c, 15, 34, 68
19, 6960, Control_c, 15, 11, 104
19, 6980, Control_c, 15, 11, 106
19, 7000, Control_c, 15, 11, 109
19, 7020, Control_c, 15, 11, 112
19, 7040, Control_c, 15, 11, 114
19, 7060, Control_c, 15, 11, 117
19, 7079, Note_on_c, 15, 34, 0
19, 7080, Control_c, 15, 11, 119
19, 7100, Control_c, 15, 11, 122
19, 7120, Control_c, 15, 11, 124
19, 7140, Control_c, 15, 11, 127
19, 7140, Note_on_c, 15, 34, 68
19, 7159, Note_on_c, 15, 34, 0
19, 7160, Note_on_c, 15, 34, 68
19, 7165, Control_c, 15, 11, 124
19, 7179, Note_on_c, 15, 34, 0
19, 7180, Note_on_c, 15, 34, 68
19, 7190, Control_c, 15, 11, 122
19, 7195, Note_on_c, 15, 34, 0
19, 7200, Note_on_c, 15, 34, 68
19, 7215, Control_c, 15, 11, 119
19, 7240, Control_c, 15, 11, 117
19, 7265, Control_c, 15, 11, 114
19, 7290, Control_c, 15, 11, 112
19, 7315, Control_c, 15, 11, 109
19, 7319, Note_on_c, 15, 34, 0
19, 7340, Control_c, 15, 11, 106
19, 7365, Control_c, 15, 11, 104
19, 7380, Note_on_c, 15, 34, 68
19, 7390, Control_c, 15, 11, 101
19, 7399, Note_on_c, 15, 34, 0
19, 7400, Note_on_c, 15, 34, 68
19, 7415, Control_c, 15, 11, 96
19, 7419, Note_on_c, 15, 34, 0
19, 7420, Note_on_c, 15, 34, 68
19, 7435, Note_on_c, 15, 34, 0
19, 7440, Note_on_c, 15, 39, 68
19, 7559, Note_on_c, 15, 39, 0
19, 7920, Note_on_c, 15, 43, 68
19, 8159, Note_on_c, 15, 43, 0
19, 8160, Note_on_c, 15, 41, 68
19, 8279, Note_on_c, 15, 41, 0
19, 8280, Note_on_c, 15, 39, 68
19, 8391, Note_on_c, 15, 39, 0
19, 8400, Note_on_c, 15, 38, 68
19, 8519, Note_on_c, 15, 38, 0
19, 8880, Control_c, 15, 11, 96
19, 8880, Note_on_c, 15, 36, 76
19, 8910, Control_c, 15, 11, 97
19, 8940, Control_c, 15, 11, 99
19, 8970, Control_c, 15, 11, 100
19, 9000, Control_c, 15, 11, 101
19, 9030, Control_c, 15, 11, 102
19, 9060, Control_c, 15, 11, 104
19, 9090, Control_c, 15, 11, 105
19, 9119, Note_on_c, 15, 36, 0
19, 9120, Note_on_c, 15, 34, 76
19, 9120, Control_c, 15, 11, 106
19, 9150, Control_c, 15, 11, 108
19, 9180, Control_c, 15, 11, 109
19, 9210, Control_c, 15, 11, 110
19, 9239, Note_on_c, 15, 34, 0
19, 9240, Control_c, 15, 11, 112
19, 9240, Note_on_c, 15, 32, 76
19, 9270, Control_c, 15, 11, 113
19, 9300, Control_c, 15, 11, 114
19, 9330, Control_c, 15, 11, 115
19, 9351, Note_on_c, 15, 32, 0
19, 9360, Control_c, 15, 11, 117
19, 9360, Note_on_c, 15, 31, 76
19, 9390, Control_c, 15, 11, 118
19, 9420, Control_c, 15, 11, 119
19, 9450, Control_c, 15, 11, 121
19, 9479, Note_on_c, 15, 31, 0
19, 9480, Control_c, 15, 11, 122
19, 9510, Control_c, 15, 11, 123
19, 9540, Control_c, 15, 11, 124
19, 9570, Control_c, 15, 11, 127
19, 9570, Note_on_c, 15, 40, 76
19, 9591, Note_on_c, 15, 40, 0
19, 9600, Note_on_c, 15, 40, 76
19, 9839, Note_on_c, 15, 40, 0
19, 10080, Note_on_c, 15, 41, 52
19, 10199, Note_on_c, 15, 41, 0
19, 10200, Note_on_c, 15, 43, 52
19, 10319, Note_on_c, 15, 43, 0
19, 10320, Note_on_c, 15, 44, 52
19, 10559, Note_on_c, 15, 44, 0
19, 10560, Note_on_c, 15, 32, 68
19, 10620, Control_c, 15, 11, 127
19, 10635, Control_c, 15, 11, 124
19, 10650, Control_c, 15, 11, 122
19, 10665, Control_c, 15, 11, 119
19, 10680, Control_c, 15, 11, 117
19, 10695, Control_c, 15, 11, 114
19, 10710, Control_c, 15, 11, 112
19, 10725, Control_c, 15, 11, 109
19, 10740, Control_c, 15, 11, 106
19, 10755, Control_c, 15, 11, 104
19, 10770, Control_c, 15, 11, 101
19, 10785, Control_c, 15, 11, 96
19, 10799, Note_on_c, 15, 32, 0
19, 10800, Note_on_c, 15, 31, 68
19, 11271, Note_on_c, 15, 31, 0
19, 11280, Note_on_c, 15, 31, 68
19, 11751, Note_on_c, 15, 31, 0
19, 11760, Control_c, 15, 11, 96
19, 11760, Note_on_c, 15, 31, 68
19, 11780, Control_c, 15, 11, 97
19, 11800, Control_c, 15, 11, 99
19, 11820, Control_c, 15, 11, 100
19, 11840, Control_c, 15, 11, 101
19, 11860, Control_c, 15, 11, 102
19, 11880, Control_c, 15, 11, 104
19, 11900, Control_c, 15, 11, 105
19, 11920, Control_c, 15, 11, 106
19, 11940, Control_c, 15, 11, 108
19, 11960, Control_c, 15, 11, 109
19, 11980, Control_c, 15, 11, 110
19, 12000, Control_c, 15, 11, 112
19, 12020, Control_c, 15, 11, 113
19, 12040, Control_c, 15, 11, 114
19, 12060, Control_c, 15, 11, 115
19, 12080, Control_c, 15, 11, 117
19, 12100, Control_c, 15, 11, 118
19, 12120, Control_c, 15, 11, 119
19, 12140, Control_c, 15, 11, 121
19, 12160, Control_c, 15, 11, 122
19, 12180, Control_c, 15, 11, 123
19, 12200, Control_c, 15, 11, 124
19, 12220, Control_c, 15, 11, 126
19, 12231, Note_on_c, 15, 31, 0
19, 12240, Note_on_c, 15, 31, 68
19, 12240, Control_c, 15, 11, 127
19, 12260, Control_c, 15, 11, 126
19, 12280, Control_c, 15, 11, 124
19, 12300, Control_c, 15, 11, 123
19, 12320, Control_c, 15, 11, 122
19, 12340, Control_c, 15, 11, 121
19, 12360, Control_c, 15, 11, 119
19, 12380, Control_c, 15, 11, 118
19, 12400, Control_c, 15, 11, 117
19, 12420, Control_c, 15, 11, 115
19, 12440, Control_c, 15, 11, 114
19, 12460, Control_c, 15, 11, 113
19, 12480, Control_c, 15, 11, 112
19, 12500, Control_c, 15, 11, 110
19, 12520, Control_c, 15, 11, 109
19, 12540, Control_c, 15, 11, 108
19, 12560, Control_c, 15, 11, 106
19, 12580, Control_c, 15, 11, 105
19, 12600, Control_c, 15, 11, 104
19, 12620, Control_c, 15, 11, 102
19, 12640, Control_c, 15, 11, 101
19, 12660, Control_c, 15, 11, 100
19, 12680, Control_c, 15, 11, 99
19, 12700, Control_c, 15, 11, 97
19, 12711, Note_on_c, 15, 31, 0
19, 12720, Note_on_c, 15, 31, 68
19, 12839, Note_on_c, 15, 31, 0
19, 14160, Control_c, 15, 11, 127
19, 14400, Note_on_c, 15, 36, 68
19, 14639, Note_on_c, 15, 36, 0
19, 14640, Note_on_c, 15, 29, 52
19, 14879, Note_on_c, 15, 29, 0
19, 15060, Note_on_c, 15, 41, 52
19, 15089, Note_on_c, 15, 41, 0
19, 15090, Note_on_c, 15, 39, 52
19, 15119, Note_on_c, 15, 39, 0
19, 15120, Note_on_c, 15, 37, 52
19, 15359, Note_on_c, 15, 37, 0
19, 15510, Control_c, 15, 11, 80
19, 15540, Note_on_c, 15, 37, 76
19, 15569, Note_on_c, 15, 37, 0
19, 15570, Note_on_c, 15, 36, 76
19, 15599, Note_on_c, 15, 36, 0
19, 15600, Note_on_c, 15, 35, 76
19, 15600, Control_c, 15, 11, 80
19, 15620, Control_c, 15, 11, 82
19, 15640, Control_c, 15, 11, 84
19, 15660, Control_c, 15, 11, 86
19, 15680, Control_c, 15, 11, 88
19, 15700, Control_c, 15, 11, 90
19, 15719, Note_on_c, 15, 35, 0
19, 15720, Control_c, 15, 11, 92
19, 15740, Control_c, 15, 11, 94
19, 15760, Control_c, 15, 11, 96
19, 15780, Control_c, 15, 11, 98
19, 15780, Note_on_c, 15, 35, 76
19, 15799, Note_on_c, 15, 35, 0
19, 15800, Note_on_c, 15, 35, 76
19, 15800, Control_c, 15, 11, 100
19, 15819, Note_on_c, 15, 35, 0
19, 15820, Control_c, 15, 11, 102
19, 15820, Note_on_c, 15, 35, 76
19, 15835, Note_on_c, 15, 35, 0
19, 15840, Note_on_c, 15, 41, 76
19, 15840, Control_c, 15, 11, 104
19, 15860, Control_c, 15, 11, 105
19, 15880, Control_c, 15, 11, 107
19, 15900, Control_c, 15, 11, 109
19, 15920, Control_c, 15, 11, 111
19, 15940, Control_c, 15, 11, 113
19, 15959, Note_on_c, 15, 41, 0
19, 15960, Control_c, 15, 11, 115
19, 15980, Control_c, 15, 11, 117
19, 16000, Control_c, 15, 11, 119
19, 16020, Control_c, 15, 11, 121
19, 16020, Note_on_c, 15, 41, 76
19, 16039, Note_on_c, 15, 41, 0
19, 16040, Note_on_c, 15, 41, 76
19, 16040, Control_c, 15, 11, 123
19, 16059, Note_on_c, 15, 41, 0
19, 16060, Control_c, 15, 11, 127
19, 16060, Note_on_c, 15, 41, 76
19, 16075, Note_on_c, 15, 41, 0
19, 16080, Note_on_c, 15, 39, 76
19, 16169, Note_on_c, 15, 39, 0
19, 16200, Note_on_c, 15, 41, 76
19, 16289, Note_on_c, 15, 41, 0
19, 16410, Control_c, 15, 11, 96
19, 16440, Note_on_c, 15, 32, 68
19, 16440, Control_c, 15, 11, 96
19, 16460, Control_c, 15, 11, 99
19, 16480, Control_c, 15, 11, 101
19, 16500, Control_c, 15, 11, 104
19, 16520, Control_c, 15, 11, 106
19, 16540, Control_c, 15, 11, 109
19, 16560, Control_c, 15, 11, 112
19, 16580, Control_c, 15, 11, 114
19, 16600, Control_c, 15, 11, 117
19, 16620, Control_c, 15, 11, 119
19, 16640, Control_c, 15, 11, 122
19, 16660, Control_c, 15, 11, 127
19, 16671, Note_on_c, 15, 32, 0
19, 16680, Note_on_c, 15, 31, 76
19, 16911, Note_on_c, 15, 31, 0
19, 16920, Note_on_c, 15, 31, 76
19, 16980, Control_c, 15, 11, 127
19, 16985, Control_c, 15, 11, 123
19, 16990, Control_c, 15, 11, 119
19, 16995, Control_c, 15, 11, 115
19, 17000, Control_c, 15, 11, 111
19, 17005, Control_c, 15, 11, 107
19, 17010, Control_c, 15, 11, 104
19, 17015, Control_c, 15, 11, 100
19, 17020, Control_c, 15, 11, 96
19, 17025, Control_c, 15, 11, 92
19, 17030, Control_c, 15, 11, 88
19, 17035, Control_c, 15, 11, 80
19, 17039, Note_on_c, 15, 31, 0
19, 17040, Note_on_c, 15, 36, 76
19, 17129, Note_on_c, 15, 36, 0
19, 17160, Note_on_c, 15, 44, 76
19, 17231, Note_on_c, 15, 44, 0
19, 17250, Note_on_c, 15, 44, 76
19, 17271, Note_on_c, 15, 44, 0
19, 17280, Note_on_c, 15, 38, 76
19, 17369, Note_on_c, 15, 38, 0
19, 17400, Note_on_c, 15, 46, 76
19, 17471, Note_on_c, 15, 46, 0
19, 17490, Note_on_c, 15, 46, 76
19, 17511, Note_on_c, 15, 46, 0
19, 17520, Note_on_c, 15, 39, 76
19, 17639, Note_on_c, 15, 39, 0
19, 17910, Control_c, 15, 11, 127
19, 17940, Note_on_c, 15, 39, 52
19, 17959, Note_on_c, 15, 39, 0
19, 17960, Note_on_c, 15, 39, 52
19, 17979, Note_on_c, 15, 39, 0
19, 17980, Note_on_c, 15, 39, 52
19, 17995, Note_on_c, 15, 39, 0
19, 18000, Note_on_c, 15, 34, 52
19, 18119, Note_on_c, 15, 34, 0
19, 18420, Note_on_c, 15, 34, 52
19, 18439, Note_on_c, 15, 34, 0
19, 18440, Note_on_c, 15, 34, 52
19, 18459, Note_on_c, 15, 34, 0
19, 18460, Note_on_c, 15, 34, 52
19, 18475, Note_on_c, 15, 34, 0
19, 18480, Note_on_c, 15, 36, 52
19, 18599, Note_on_c, 15, 36, 0
19, 18660, Note_on_c, 15, 36, 58
19, 18679, Note_on_c, 15, 36, 0
19, 18680, Note_on_c, 15, 36, 58
19, 18699, Note_on_c, 15, 36, 0
19, 18700, Note_on_c, 15, 36, 59
19, 18715, Note_on_c, 15, 36, 0
19, 18720, Note_on_c, 15, 34, 60
19, 18839, Note_on_c, 15, 34, 0
19, 18900, Note_on_c, 15, 32, 66
19, 18919, Note_on_c, 15, 32, 0
19, 18920, Note_on_c, 15, 32, 66
19, 18939, Note_on_c, 15, 32, 0
19, 18940, Note_on_c, 15, 32, 67
19, 18955, Note_on_c, 15, 32, 0
19, 18960, Note_on_c, 15, 31, 68
19, 19079, Note_on_c, 15, 31, 0
19, 19140, Note_on_c, 15, 40, 74
19, 19155, Note_on_c, 15, 40, 0
19, 19160, Note_on_c, 15, 40, 74
19, 19175, Note_on_c, 15, 40, 0
19, 19180, Note_on_c, 15, 40, 75
19, 19195, Note_on_c, 15, 40, 0
19, 19200, Note_on_c, 15, 40, 76
19, 19319, Note_on_c, 15, 40, 0
19, 19380, Note_on_c, 15, 40, 76
19, 19395, Note_on_c, 15, 40, 0
19, 19400, Note_on_c, 15, 40, 76
19, 19415, Note_on_c, 15, 40, 0
19, 19420, Note_on_c, 15, 40, 76
19, 19435, Note_on_c, 15, 40, 0
19, 19440, Note_on_c, 15, 40, 52
19, 19559, Note_on_c, 15, 40, 0
19, 19620, Note_on_c, 15, 40, 52
19, 19635, Note_on_c, 15, 40, 0
19, 19640, Note_on_c, 15, 40, 52
19, 19655, Note_on_c, 15, 40, 0
19, 19660, Note_on_c, 15, 40, 52
19, 19675, Note_on_c, 15, 40, 0
19, 19680, Note_on_c, 15, 41, 52
19, 19799, Note_on_c, 15, 41, 0
19, 19860, Note_on_c, 15, 43, 52
19, 19875, Note_on_c, 15, 43, 0
19, 19880, Note_on_c, 15, 43, 52
19, 19895, Note_on_c, 15, 43, 0
19, 19900, Note_on_c, 15, 43, 52
19, 19915, Note_on_c, 15, 43, 0
19, 19920, Note_on_c, 15, 44, 52
19, 20039, Note_on_c, 15, 44, 0
19, 20100, Note_on_c, 15, 32, 52
19, 20115, Note_on_c, 15, 32, 0
19, 20120, Note_on_c, 15, 32, 52
19, 20135, Note_on_c, 15, 32, 0
19, 20140, Note_on_c, 15, 32, 52
19, 20155, Note_on_c, 15, 32, 0
19, 20160, Note_on_c, 15, 32, 60
19, 20279, Note_on_c, 15, 32, 0
19, 20340, Note_on_c, 15, 32, 52
19, 20355, Note_on_c, 15, 32, 0
19, 20360, Note_on_c, 15, 32, 52
19, 20375, Note_on_c, 15, 32, 0
19, 20380, Note_on_c, 15, 32, 52
19, 20395, Note_on_c, 15, 32, 0
19, 20400, Note_on_c, 15, 31, 52
19, 20519, Note_on_c, 15, 31, 0
19, 20820, Note_on_c, 15, 31, 52
19, 20835, Note_on_c, 15, 31, 0
19, 20840, Note_on_c, 15, 31, 52
19, 20855, Note_on_c, 15, 31, 0
19, 20860, Note_on_c, 15, 31, 52
19, 20875, Note_on_c, 15, 31, 0
19, 20880, Note_on_c, 15, 31, 52
19, 20999, Note_on_c, 15, 31, 0
19, 21300, Note_on_c, 15, 31, 52
19, 21315, Note_on_c, 15, 31, 0
19, 21320, Note_on_c, 15, 31, 52
19, 21335, Note_on_c, 15, 31, 0
19, 21340, Note_on_c, 15, 31, 52
19, 21355, Note_on_c, 15, 31, 0
19, 21360, Note_on_c, 15, 31, 52
19, 21479, Note_on_c, 15, 31, 0
19, 21780, Note_on_c, 15, 31, 66
19, 21795, Note_on_c, 15, 31, 0
19, 21800, Note_on_c, 15, 31, 66
19, 21815, Note_on_c, 15, 31, 0
19, 21820, Note_on_c, 15, 31, 67
19, 21835, Note_on_c, 15, 31, 0
19, 21840, Note_on_c, 15, 31, 68
19, 21959, Note_on_c, 15, 31, 0
19, 22020, Note_on_c, 15, 31, 62
19, 22035, Note_on_c, 15, 31, 0
19, 22040, Note_on_c, 15, 31, 62
19, 22055, Note_on_c, 15, 31, 0
19, 22060, Note_on_c, 15, 31, 61
19, 22075, Note_on_c, 15, 31, 0
19, 22080, Note_on_c, 15, 31, 60
19, 22199, Note_on_c, 15, 31, 0
19, 22260, Note_on_c, 15, 31, 54
19, 22275, Note_on_c, 15, 31, 0
19, 22280, Note_on_c, 15, 31, 54
19, 22295, Note_on_c, 15, 31, 0
19, 22300, Note_on_c, 15, 31, 53
19, 22315, Note_on_c, 15, 31, 0
19, 22320, Note_on_c, 15, 31, 52
19, 22439, Note_on_c, 15, 31, 0
19, 24180, Note_on_c, 15, 36, 68
19, 24195, Note_on_c, 15, 36, 0
19, 24200, Note_on_c, 15, 36, 52
19, 24215, Note_on_c, 15, 36, 0
19, 24220, Note_on_c, 15, 36, 52
19, 24235, Note_on_c, 15, 36, 0
19, 24240, Note_on_c, 15, 41, 52
19, 24359, Note_on_c, 15, 41, 0
19, 24660, Note_on_c, 15, 41, 52
19, 24675, Note_on_c, 15, 41, 0
19, 24680, Note_on_c, 15, 41, 52
19, 24695, Note_on_c, 15, 41, 0
19, 24700, Note_on_c, 15, 41, 52
19, 24715, Note_on_c, 15, 41, 0
19, 24720, Note_on_c, 15, 37, 52
19, 24839, Note_on_c, 15, 37, 0
19, 25140, Note_on_c, 15, 37, 52
19, 25155, Note_on_c, 15, 37, 0
19, 25160, Note_on_c, 15, 37, 52
19, 25175, Note_on_c, 15, 37, 0
19, 25180, Note_on_c, 15, 37, 52
19, 25195, Note_on_c, 15, 37, 0
19, 25200, Note_on_c, 15, 35, 52
19, 25319, Note_on_c, 15, 35, 0
19, 25380, Note_on_c, 15, 35, 61
19, 25395, Note_on_c, 15, 35, 0
19, 25400, Note_on_c, 15, 35, 62
19, 25415, Note_on_c, 15, 35, 0
19, 25420, Note_on_c, 15, 35, 63
19, 25435, Note_on_c, 15, 35, 0
19, 25440, Note_on_c, 15, 41, 64
19, 25559, Note_on_c, 15, 41, 0
19, 25620, Note_on_c, 15, 41, 73
19, 25635, Note_on_c, 15, 41, 0
19, 25640, Note_on_c, 15, 41, 74
19, 25655, Note_on_c, 15, 41, 0
19, 25660, Note_on_c, 15, 41, 75
19, 25675, Note_on_c, 15, 41, 0
19, 25680, Note_on_c, 15, 39, 76
19, 25769, Note_on_c, 15, 39, 0
19, 25800, Note_on_c, 15, 41, 76
19, 25889, Note_on_c, 15, 41, 0
19, 26100, Note_on_c, 15, 44, 52
19, 26115, Note_on_c, 15, 44, 0
19, 26120, Note_on_c, 15, 44, 52
19, 26135, Note_on_c, 15, 44, 0
19, 26140, Note_on_c, 15, 44, 52
19, 26155, Note_on_c, 15, 44, 0
19, 26160, Note_on_c, 15, 44, 52
19, 26279, Note_on_c, 15, 44, 0
19, 26340, Note_on_c, 15, 43, 64
19, 26355, Note_on_c, 15, 43, 0
19, 26360, Note_on_c, 15, 43, 65
19, 26375, Note_on_c, 15, 43, 0
19, 26380, Note_on_c, 15, 43, 66
19, 26395, Note_on_c, 15, 43, 0
19, 26400, Note_on_c, 15, 43, 68
19, 26519, Note_on_c, 15, 43, 0
19, 26580, Note_on_c, 15, 31, 56
19, 26595, Note_on_c, 15, 31, 0
19, 26600, Note_on_c, 15, 31, 55
19, 26615, Note_on_c, 15, 31, 0
19, 26620, Note_on_c, 15, 31, 54
19, 26635, Note_on_c, 15, 31, 0
19, 26640, Note_on_c, 15, 36, 52
19, 26759, Note_on_c, 15, 36, 0
19, 29460, Note_on_c, 15, 42, 52
19, 29475, Note_on_c, 15, 42, 0
19, 29480, Note_on_c, 15, 42, 52
19, 29495, Note_on_c, 15, 42, 0
19, 29500, Note_on_c, 15, 42, 52
19, 29515, Note_on_c, 15, 42, 0
19, 29520, Note_on_c, 15, 43, 52
19, 29639, Note_on_c, 15, 43, 0
19, 29700, Note_on_c, 15, 43, 52
19, 29715, Note_on_c, 15, 43, 0
19, 29720, Note_on_c, 15, 43, 52
19, 29735, Note_on_c, 15, 43, 0
19, 29740, Note_on_c, 15, 43, 52
19, 29755, Note_on_c, 15, 43, 0
19, 29760, Note_on_c, 15, 31, 52
19, 29879, Note_on_c, 15, 31, 0
19, 29940, Note_on_c, 15, 31, 52
19, 29955, Note_on_c, 15, 31, 0
19, 29960, Note_on_c, 15, 31, 52
19, 29975, Note_on_c, 15, 31, 0
19, 29980, Note_on_c, 15, 31, 52
19, 29995, Note_on_c, 15, 31, 0
19, 30000, Note_on_c, 15, 36, 52
19, 30119, Note_on_c, 15, 36, 0
19, 30480, Note_on_c, 15, 43, 52
19, 30599, Note_on_c, 15, 43, 0
19, 30660, Note_on_c, 15, 43, 52
19, 30675, Note_on_c, 15, 43, 0
19, 30680, Note_on_c, 15, 43, 52
19, 30695, Note_on_c, 15, 43, 0
19, 30700, Note_on_c, 15, 43, 52
19, 30715, Note_on_c, 15, 43, 0
19, 30720, Note_on_c, 15, 31, 52
19, 30839, Note_on_c, 15, 31, 0
19, 30900, Note_on_c, 15, 31, 52
19, 30915, Note_on_c, 15, 31, 0
19, 30920, Note_on_c, 15, 31, 52
19, 30935, Note_on_c, 15, 31, 0
19, 30940, Note_on_c, 15, 31, 52
19, 30955, Note_on_c, 15, 31, 0
19, 30960, Note_on_c, 15, 36, 52
19, 31071, Note_on_c, 15, 36, 0
19, 31080, Note_on_c, 15, 44, 68
19, 31199, Note_on_c, 15, 44, 0
19, 31200, Note_on_c, 15, 43, 52
19, 31319, Note_on_c, 15, 43, 0
19, 31320, Note_on_c, 15, 39, 68
19, 31439, Note_on_c, 15, 39, 0
19, 31440, Note_on_c, 15, 36, 52
19, 31551, Note_on_c, 15, 36, 0
19, 31560, Note_on_c, 15, 32, 76
19, 31641, Note_on_c, 15, 32, 0
19, 31650, Note_on_c, 15, 41, 76
19, 31675, Note_on_c, 15, 41, 0
19, 31680, Note_on_c, 15, 38, 76
19, 31769, Note_on_c, 15, 38, 0
19, 31800, Note_on_c, 15, 43, 76
19, 31889, Note_on_c, 15, 43, 0
19, 31920, Note_on_c, 15, 36, 52
19, 32009, Note_on_c, 15, 36, 0
19, 32160, Note_on_c, 15, 36, 52
19, 32249, Note_on_c, 15, 36, 0
19, 32400, Note_on_c, 15, 36, 52
19, 32489, Note_on_c, 15, 36, 0
19, 32520, Note_on_c, 15, 31, 52
19, 32609, Note_on_c, 15, 31, 0
19, 32640, Note_on_c, 15, 33, 52
19, 32729, Note_on_c, 15, 33, 0
19, 32760, Note_on_c, 15, 35, 52
19, 32849, Note_on_c, 15, 35, 0
19, 32880, Note_on_c, 15, 36, 52
19, 33471, Note_on_c, 15, 36, 0
19, 33480, Note_on_c, 15, 36, 52
19, 33569, Note_on_c, 15, 36, 0
19, 33600, Note_on_c, 15, 38, 52
19, 33689, Note_on_c, 15, 38, 0
19, 33720, Note_on_c, 15, 40, 52
19, 33809, Note_on_c, 15, 40, 0
19, 33840, Note_on_c, 15, 41, 52
19, 34431, Note_on_c, 15, 41, 0
19, 34440, Note_on_c, 15, 38, 52
19, 34529, Note_on_c, 15, 38, 0
19, 34560, Note_on_c, 15, 40, 52
19, 34649, Note_on_c, 15, 40, 0
19, 34680, Note_on_c, 15, 41, 52
19, 34769, Note_on_c, 15, 41, 0
19, 34800, Note_on_c, 15, 43, 52
19, 35264, Note_on_c, 15, 43, 0
19, 35272, Control_c, 15, 11, 64
19, 35280, Note_on_c, 15, 44, 84
19, 35369, Note_on_c, 15, 44, 0
19, 35400, Control_c, 15, 11, 64
19, 35400, Note_on_c, 15, 50, 84
19, 35435, Control_c, 15, 11, 67
19, 35470, Control_c, 15, 11, 69
19, 35489, Note_on_c, 15, 50, 0
19, 35505, Control_c, 15, 11, 72
19, 35520, Note_on_c, 15, 47, 84
19, 35540, Control_c, 15, 11, 75
19, 35575, Control_c, 15, 11, 77
19, 35609, Note_on_c, 15, 47, 0
19, 35610, Control_c, 15, 11, 80
19, 35640, Note_on_c, 15, 44, 84
19, 35645, Control_c, 15, 11, 82
19, 35680, Control_c, 15, 11, 85
19, 35715, Control_c, 15, 11, 88
19, 35729, Note_on_c, 15, 44, 0
19, 35750, Control_c, 15, 11, 90
19, 35760, Note_on_c, 15, 45, 84
19, 35785, Control_c, 15, 11, 93
19, 35820, Control_c, 15, 11, 96
19, 35849, Note_on_c, 15, 45, 0
19, 35855, Control_c, 15, 11, 98
19, 35880, Note_on_c, 15, 36, 84
19, 35890, Control_c, 15, 11, 101
19, 35925, Control_c, 15, 11, 103
19, 35960, Control_c, 15, 11, 106
19, 35969, Note_on_c, 15, 36, 0
19, 35995, Control_c, 15, 11, 109
19, 36000, Note_on_c, 15, 38, 84
19, 36030, Control_c, 15, 11, 111
19, 36065, Control_c, 15, 11, 114
19, 36089, Note_on_c, 15, 38, 0
19, 36100, Control_c, 15, 11, 117
19, 36120, Note_on_c, 15, 38, 84
19, 36135, Control_c, 15, 11, 119
19, 36170, Control_c, 15, 11, 122
19, 36205, Control_c, 15, 11, 127
19, 36209, Note_on_c, 15, 38, 0
19, 36240, Note_on_c, 15, 31, 84
19, 36259, Note_on_c, 15, 31, 0
19, 36260, Note_on_c, 15, 31, 84
19, 36279, Note_on_c, 15, 31, 0
19, 36280, Note_on_c, 15, 31, 84
19, 36299, Note_on_c, 15, 31, 0
19, 36300, Note_on_c, 15, 31, 84
19, 36319, Note_on_c, 15, 31, 0
19, 36320, Note_on_c, 15, 31, 84
19, 36339, Note_on_c, 15, 31, 0
19, 36340, Note_on_c, 15, 31, 84
19, 36359, Note_on_c, 15, 31, 0
19, 36360, Note_on_c, 15, 31, 84
19, 36379, Note_on_c, 15, 31, 0
19, 36380, Note_on_c, 15, 31, 84
19, 36399, Note_on_c, 15, 31, 0
19, 36400, Note_on_c, 15, 31, 84
19, 36419, Note_on_c, 15, 31, 0
19, 36420, Note_on_c, 15, 31, 84
19, 36439, Note_on_c, 15, 31, 0
19, 36440, Note_on_c, 15, 31, 84
19, 36459, Note_on_c, 15, 31, 0
19, 36460, Note_on_c, 15, 31, 84
19, 36479, Note_on_c, 15, 31, 0
19, 36480, Note_on_c, 15, 31, 84
19, 36569, Note_on_c, 15, 31, 0
19, 36720, Note_on_c, 15, 31, 84
19, 36739, Note_on_c, 15, 31, 0
19, 36740, Note_on_c, 15, 31, 84
19, 36759, Note_on_c, 15, 31, 0
19, 36760, Note_on_c, 15, 31, 84
19, 36779, Note_on_c, 15, 31, 0
19, 36780, Note_on_c, 15, 31, 84
19, 36799, Note_on_c, 15, 31, 0
19, 36800, Note_on_c, 15, 31, 84
19, 36819, Note_on_c, 15, 31, 0
19, 36820, Note_on_c, 15, 31, 84
19, 36839, Note_on_c, 15, 31, 0
19, 36840, Note_on_c, 15, 31, 84
19, 36859, Note_on_c, 15, 31, 0
19, 36860, Note_on_c, 15, 31, 84
19, 36879, Note_on_c, 15, 31, 0
19, 36880, Note_on_c, 15, 31, 84
19, 36899, Note_on_c, 15, 31, 0
19, 36900, Note_on_c, 15, 31, 84
19, 36919, Note_on_c, 15, 31, 0
19, 36920, Note_on_c, 15, 31, 84
19, 36939, Note_on_c, 15, 31, 0
19, 36940, Note_on_c, 15, 31, 84
19, 36959, Note_on_c, 15, 31, 0
19, 36960, Note_on_c, 15, 31, 84
19, 37049, Note_on_c, 15, 31, 0
19, 37200, Note_on_c, 15, 31, 84
19, 37289, Note_on_c, 15, 31, 0
19, 37440, Note_on_c, 15, 31, 84
19, 37529, Note_on_c, 15, 31, 0
19, 37680, Note_on_c, 15, 31, 84
19, 37769, Note_on_c, 15, 31, 0
19, 38160, Note_on_c, 15, 36, 52
19, 38279, Note_on_c, 15, 36, 0
19, 38760, Note_on_c, 15, 43, 52
19, 38849, Note_on_c, 15, 43, 0
19, 38880, Note_on_c, 15, 40, 52
19, 38969, Note_on_c, 15, 40, 0
19, 39000, Note_on_c, 15, 36, 52
19, 39089, Note_on_c, 15, 36, 0
19, 39120, Note_on_c, 15, 41, 52
19, 39209, Note_on_c, 15, 41, 0
19, 39360, Note_on_c, 15, 36, 56
19, 39449, Note_on_c, 15, 36, 0
19, 39600, Note_on_c, 15, 41, 60
19, 39689, Note_on_c, 15, 41, 0
19, 39840, Note_on_c, 15, 36, 64
19, 39929, Note_on_c, 15, 36, 0
19, 40080, Note_on_c, 15, 41, 52
19, 40169, Note_on_c, 15, 41, 0
19, 40200, Note_on_c, 15, 37, 52
19, 40289, Note_on_c, 15, 37, 0
19, 40320, Note_on_c, 15, 38, 52
19, 40409, Note_on_c, 15, 38, 0
19, 40440, Note_on_c, 15, 40, 52
19, 40529, Note_on_c, 15, 40, 0
19, 40560, Note_on_c, 15, 41, 52
19, 40649, Note_on_c, 15, 41, 0
19, 40680, Note_on_c, 15, 40, 52
19, 40769, Note_on_c, 15, 40, 0
19, 40800, Note_on_c, 15, 41, 52
19, 40889, Note_on_c, 15, 41, 0
19, 40920, Note_on_c, 15, 42, 52
19, 41009, Note_on_c, 15, 42, 0
19, 41040, Note_on_c, 15, 43, 52
19, 41129, Note_on_c, 15, 43, 0
19, 41160, Note_on_c, 15, 41, 52
19, 41249, Note_on_c, 15, 41, 0
19, 41280, Note_on_c, 15, 40, 52
19, 41369, Note_on_c, 15, 40, 0
19, 41400, Note_on_c, 15, 36, 52
19, 41489, Note_on_c, 15, 36, 0
19, 41520, Note_on_c, 15, 43, 52
19, 41609, Note_on_c, 15, 43, 0
19, 41640, Note_on_c, 15, 41, 52
19, 41729, Note_on_c, 15, 41, 0
19, 41760, Note_on_c, 15, 40, 52
19, 41849, Note_on_c, 15, 40, 0
19, 41880, Note_on_c, 15, 36, 52
19, 41969, Note_on_c, 15, 36, 0
19, 42000, Note_on_c, 15, 31, 52
19, 42119, Note_on_c, 15, 31, 0
19, 42360, Note_on_c, 15, 55, 52
19, 42389, Note_on_c, 15, 55, 0
19, 42400, Note_on_c, 15, 54, 52
19, 42429, Note_on_c, 15, 54, 0
19, 42440, Note_on_c, 15, 55, 52
19, 42469, Note_on_c, 15, 55, 0
19, 42480, Note_on_c, 15, 53, 52
19, 42509, Note_on_c, 15, 53, 0
19, 42520, Note_on_c, 15, 52, 52
19, 42549, Note_on_c, 15, 52, 0
19, 42560, Note_on_c, 15, 53, 52
19, 42589, Note_on_c, 15, 53, 0
19, 42600, Note_on_c, 15, 50, 52
19, 42629, Note_on_c, 15, 50, 0
19, 42640, Note_on_c, 15, 49, 52
19, 42669, Note_on_c, 15, 49, 0
19, 42680, Note_on_c, 15, 50, 52
19, 42709, Note_on_c, 15, 50, 0
19, 42720, Note_on_c, 15, 47, 52
19, 42749, Note_on_c, 15, 47, 0
19, 42760, Note_on_c, 15, 46, 52
19, 42789, Note_on_c, 15, 46, 0
19, 42800, Note_on_c, 15, 47, 52
19, 42829, Note_on_c, 15, 47, 0
19, 42840, Note_on_c, 15, 41, 52
19, 42869, Note_on_c, 15, 41, 0
19, 42880, Note_on_c, 15, 40, 52
19, 42909, Note_on_c, 15, 40, 0
19, 42920, Note_on_c, 15, 41, 52
19, 42949, Note_on_c, 15, 41, 0
19, 42960, Note_on_c, 15, 40, 52
19, 43079, Note_on_c, 15, 40, 0
19, 43440, Note_on_c, 15, 36, 52
19, 43559, Note_on_c, 15, 36, 0
19, 43920, Note_on_c, 15, 33, 52
19, 44039, Note_on_c, 15, 33, 0
19, 44400, Note_on_c, 15, 29, 58
19, 44519, Note_on_c, 15, 29, 0
19, 44880, Note_on_c, 15, 43, 64
19, 44999, Note_on_c, 15, 43, 0
19, 45120, Note_on_c, 15, 41, 67
19, 45239, Note_on_c, 15, 41, 0
19, 45360, Note_on_c, 15, 40, 70
19, 45479, Note_on_c, 15, 40, 0
19, 45600, Note_on_c, 15, 41, 73
19, 45719, Note_on_c, 15, 41, 0
19, 45840, Note_on_c, 15, 31, 76
19, 45875, Note_on_c, 15, 31, 0
19, 45880, Note_on_c, 15, 43, 76
19, 45915, Note_on_c, 15, 43, 0
19, 45920, Note_on_c, 15, 43, 76
19, 45955, Note_on_c, 15, 43, 0
19, 45960, Note_on_c, 15, 43, 77
19, 45995, Note_on_c, 15, 43, 0
19, 46000, Note_on_c, 15, 43, 77
19, 46035, Note_on_c, 15, 43, 0
19, 46040, Note_on_c, 15, 43, 77
19, 46075, Note_on_c, 15, 43, 0
19, 46080, Note_on_c, 15, 43, 78
19, 46115, Note_on_c, 15, 43, 0
19, 46120, Note_on_c, 15, 43, 78
19, 46155, Note_on_c, 15, 43, 0
19, 46160, Note_on_c, 15, 43, 78
19, 46195, Note_on_c, 15, 43, 0
19, 46200, Note_on_c, 15, 43, 79
19, 46235, Note_on_c, 15, 43, 0
19, 46240, Note_on_c, 15, 43, 79
19, 46275, Note_on_c, 15, 43, 0
19, 46280, Note_on_c, 15, 43, 79
19, 46315, Note_on_c, 15, 43, 0
19, 46320, Note_on_c, 15, 31, 80
19, 46355, Note_on_c, 15, 31, 0
19, 46360, Note_on_c, 15, 31, 80
19, 46395, Note_on_c, 15, 31, 0
19, 46400, Note_on_c, 15, 31, 80
19, 46435, Note_on_c, 15, 31, 0
19, 46440, Note_on_c, 15, 31, 81
19, 46475, Note_on_c, 15, 31, 0
19, 46480, Note_on_c, 15, 31, 81
19, 46515, Note_on_c, 15, 31, 0
19, 46520, Note_on_c, 15, 31, 81
19, 46555, Note_on_c, 15, 31, 0
19, 46560, Note_on_c, 15, 31, 82
19, 46595, Note_on_c, 15, 31, 0
19, 46600, Note_on_c, 15, 31, 82
19, 46635, Note_on_c, 15, 31, 0
19, 46640, Note_on_c, 15, 31, 82
19, 46675, Note_on_c, 15, 31, 0
19, 46680, Note_on_c, 15, 31, 83
19, 46715, Note_on_c, 15, 31, 0
19, 46720, Note_on_c, 15, 31, 83
19, 46755, Note_on_c, 15, 31, 0
19, 46760, Note_on_c, 15, 31, 83
19, 46795, Note_on_c, 15, 31, 0
19, 46800, Note_on_c, 15, 36, 84
19, 46819, Note_on_c, 15, 36, 0
19, 46820, Note_on_c, 15, 48, 84
19, 46839, Note_on_c, 15, 48, 0
19, 46840, Note_on_c, 15, 48, 84
19, 46859, Note_on_c, 15, 48, 0
19, 46860, Note_on_c, 15, 48, 84
19, 46879, Note_on_c, 15, 48, 0
19, 46880, Note_on_c, 15, 48, 84
19, 46899, Note_on_c, 15, 48, 0
19, 46900, Note_on_c, 15, 48, 84
19, 46919, Note_on_c, 15, 48, 0
19, 46920, Note_on_c, 15, 48, 84
19, 46939, Note_on_c, 15, 48, 0
19, 46940, Note_on_c, 15, 48, 84
19, 46959, Note_on_c, 15, 48, 0
19, 46960, Note_on_c, 15, 48, 84
19, 46979, Note_on_c, 15, 48, 0
19, 46980, Note_on_c, 15, 48, 84
19, 46999, Note_on_c, 15, 48, 0
19, 47000, Note_on_c, 15, 48, 84
19, 47019, Note_on_c, 15, 48, 0
19, 47020, Note_on_c, 15, 48, 84
19, 47039, Note_on_c, 15, 48, 0
19, 47040, Note_on_c, 15, 48, 84
19, 47129, Note_on_c, 15, 48, 0
19, 47280, Note_on_c, 15, 36, 84
19, 47299, Note_on_c, 15, 36, 0
19, 47300, Note_on_c, 15, 48, 84
19, 47319, Note_on_c, 15, 48, 0
19, 47320, Note_on_c, 15, 48, 84
19, 47339, Note_on_c, 15, 48, 0
19, 47340, Note_on_c, 15, 48, 84
19, 47359, Note_on_c, 15, 48, 0
19, 47360, Note_on_c, 15, 48, 84
19, 47379, Note_on_c, 15, 48, 0
19, 47380, Note_on_c, 15, 48, 84
19, 47399, Note_on_c, 15, 48, 0
19, 47400, Note_on_c, 15, 48, 84
19, 47419, Note_on_c, 15, 48, 0
19, 47420, Note_on_c, 15, 48, 84
19, 47439, Note_on_c, 15, 48, 0
19, 47440, Note_on_c, 15, 48, 84
19, 47459, Note_on_c, 15, 48, 0
19, 47460, Note_on_c, 15, 48, 84
19, 47479, Note_on_c, 15, 48, 0
19, 47480, Note_on_c, 15, 48, 84
19, 47499, Note_on_c, 15, 48, 0
19, 47500, Note_on_c, 15, 48, 84
19, 47519, Note_on_c, 15, 48, 0
19, 47520, Note_on_c, 15, 48, 84
19, 47609, Note_on_c, 15, 48, 0
19, 47760, Note_on_c, 15, 36, 84
19, 47849, Note_on_c, 15, 36, 0
19, 48000, Note_on_c, 15, 36, 84
19, 48089, Note_on_c, 15, 36, 0
19, 48240, Note_on_c, 15, 48, 76
19, 48269, Note_on_c, 15, 48, 0
19, 48270, Note_on_c, 15, 48, 52
19, 48719, Note_on_c, 15, 48, 0
19, 48720, Note_on_c, 15, 44, 52
19, 49079, Note_on_c, 15, 44, 0
19, 49080, Note_on_c, 15, 41, 52
19, 49184, Note_on_c, 15, 41, 0
19, 49192, Control_c, 15, 11, 96
19, 49200, Note_on_c, 15, 37, 68
19, 49319, Note_on_c, 15, 37, 0
19, 49320, Note_on_c, 15, 44, 68
19, 49320, Control_c, 15, 11, 96
19, 49340, Control_c, 15, 11, 98
19, 49360, Control_c, 15, 11, 99
19, 49380, Control_c, 15, 11, 101
19, 49400, Control_c, 15, 11, 103
19, 49409, Note_on_c, 15, 44, 0
19, 49410, Note_on_c, 15, 41, 68
19, 49420, Control_c, 15, 11, 105
19, 49435, Note_on_c, 15, 41, 0
19, 49440, Note_on_c, 15, 37, 68
19, 49440, Control_c, 15, 11, 106
19, 49460, Control_c, 15, 11, 108
19, 49480, Control_c, 15, 11, 110
19, 49500, Control_c, 15, 11, 112
19, 49520, Control_c, 15, 11, 113
19, 49529, Note_on_c, 15, 37, 0
19, 49540, Control_c, 15, 11, 115
19, 49560, Note_on_c, 15, 36, 68
19, 49560, Control_c, 15, 11, 117
19, 49580, Control_c, 15, 11, 118
19, 49600, Control_c, 15, 11, 120
19, 49620, Control_c, 15, 11, 122
19, 49640, Control_c, 15, 11, 124
19, 49649, Note_on_c, 15, 36, 0
19, 49660, Control_c, 15, 11, 127
19, 49680, Note_on_c, 15, 35, 52
19, 49799, Note_on_c, 15, 35, 0
19, 50100, Note_on_c, 15, 31, 52
19, 50119, Note_on_c, 15, 31, 0
19, 50120, Note_on_c, 15, 33, 52
19, 50139, Note_on_c, 15, 33, 0
19, 50140, Note_on_c, 15, 35, 52
19, 50159, Note_on_c, 15, 35, 0
19, 50160, Note_on_c, 15, 36, 52
19, 50249, Note_on_c, 15, 36, 0
19, 50580, Note_on_c, 15, 31, 52
19, 50599, Note_on_c, 15, 31, 0
19, 50600, Note_on_c, 15, 33, 52
19, 50619, Note_on_c, 15, 33, 0
19, 50620, Note_on_c, 15, 35, 52
19, 50639, Note_on_c, 15, 35, 0
19, 50640, Note_on_c, 15, 36, 52
19, 50729, Note_on_c, 15, 36, 0
19, 51060, Note_on_c, 15, 31, 52
19, 51079, Note_on_c, 15, 31, 0
19, 51080, Note_on_c, 15, 33, 52
19, 51099, Note_on_c, 15, 33, 0
19, 51100, Note_on_c, 15, 35, 52
19, 51119, Note_on_c, 15, 35, 0
19, 51120, Note_on_c, 15, 36, 52
19, 51239, Note_on_c, 15, 36, 0
19, 51300, Note_on_c, 15, 36, 52
19, 51329, Note_on_c, 15, 36, 0
19, 51330, Note_on_c, 15, 38, 52
19, 51359, Note_on_c, 15, 38, 0
19, 51360, Note_on_c, 15, 39, 52
19, 51479, Note_on_c, 15, 39, 0
19, 51540, Note_on_c, 15, 39, 52
19, 51569, Note_on_c, 15, 39, 0
19, 51570, Note_on_c, 15, 41, 52
19, 51599, Note_on_c, 15, 41, 0
19, 51600, Note_on_c, 15, 43, 52
19, 51959, Note_on_c, 15, 43, 0
19, 52020, Note_on_c, 15, 41, 52
19, 52049, Note_on_c, 15, 41, 0
19, 52050, Note_on_c, 15, 43, 52
19, 52079, Note_on_c, 15, 43, 0
19, 52080, Note_on_c, 15, 44, 52
19, 52319, Note_on_c, 15, 44, 0
19, 52440, Note_on_c, 15, 41, 52
19, 52469, Note_on_c, 15, 41, 0
19, 52470, Note_on_c, 15, 39, 52
19, 52499, Note_on_c, 15, 39, 0
19, 52500, Note_on_c, 15, 38, 52
19, 52529, Note_on_c, 15, 38, 0
19, 52530, Note_on_c, 15, 36, 52
19, 52559, Note_on_c, 15, 36, 0
19, 52560, Note_on_c, 15, 35, 52
19, 52679, Note_on_c, 15, 35, 0
19, 52980, Note_on_c, 15, 46, 52
19, 53009, Note_on_c, 15, 46, 0
19, 53010, Note_on_c, 15, 48, 52
19, 53039, Note_on_c, 15, 48, 0
19, 53040, Note_on_c, 15, 49, 52
19, 53129, Note_on_c, 15, 49, 0
19, 53400, Note_on_c, 15, 46, 52
19, 53429, Note_on_c, 15, 46, 0
19, 53430, Note_on_c, 15, 44, 52
19, 53459, Note_on_c, 15, 44, 0
19, 53460, Note_on_c, 15, 43, 52
19, 53489, Note_on_c, 15, 43, 0
19, 53490, Note_on_c, 15, 41, 52
19, 53519, Note_on_c, 15, 41, 0
19, 53520, Note_on_c, 15, 40, 68
19, 53639, Note_on_c, 15, 40, 0
19, 53921, Control_c, 15, 11, 99
19, 53940, Note_on_c, 15, 36, 60
19, 53948, Control_c, 15, 11, 98
19, 53959, Note_on_c, 15, 36, 0
19, 53960, Note_on_c, 15, 38, 60
19, 53974, Control_c, 15, 11, 96
19, 53979, Note_on_c, 15, 38, 0
19, 53980, Note_on_c, 15, 40, 60
19, 53999, Note_on_c, 15, 40, 0
19, 54000, Note_on_c, 15, 41, 68
19, 54119, Note_on_c, 15, 41, 0
19, 54180, Note_on_c, 15, 34, 68
19, 54195, Note_on_c, 15, 34, 0
19, 54200, Note_on_c, 15, 34, 68
19, 54215, Note_on_c, 15, 34, 0
19, 54220, Note_on_c, 15, 34, 68
19, 54235, Note_on_c, 15, 34, 0
19, 54240, Note_on_c, 15, 36, 68
19, 54359, Note_on_c, 15, 36, 0
19, 54420, Note_on_c, 15, 36, 68
19, 54435, Note_on_c, 15, 36, 0
19, 54440, Note_on_c, 15, 36, 68
19, 54455, Note_on_c, 15, 36, 0
19, 54460, Note_on_c, 15, 36, 68
19, 54475, Note_on_c, 15, 36, 0
19, 54478, Control_c, 15, 11, 127
19, 54480, Note_on_c, 15, 29, 76
19, 54599, Note_on_c, 15, 29, 0
19, 60240, Note_on_c, 15, 36, 76
19, 60479, Note_on_c, 15, 36, 0
19, 60480, Note_on_c, 15, 38, 76
19, 60599, Note_on_c, 15, 38, 0
19, 60600, Note_on_c, 15, 39, 76
19, 60711, Note_on_c, 15, 39, 0
19, 60720, Note_on_c, 15, 41, 84
19, 61064, Note_on_c, 15, 41, 0
19, 61080, Note_on_c, 15, 39, 76
19, 61191, Note_on_c, 15, 39, 0
19, 61200, Note_on_c, 15, 38, 76
19, 61319, Note_on_c, 15, 38, 0
19, 61320, Note_on_c, 15, 44, 76
19, 61439, Note_on_c, 15, 44, 0
19, 61440, Note_on_c, 15, 43, 76
19, 61559, Note_on_c, 15, 43, 0
19, 61560, Note_on_c, 15, 41, 76
19, 61671, Note_on_c, 15, 41, 0
19, 61680, Note_on_c, 15, 40, 76
19, 61799, Note_on_c, 15, 40, 0
19, 61800, Note_on_c, 15, 49, 76
19, 61919, Note_on_c, 15, 49, 0
19, 61920, Note_on_c, 15, 48, 76
19, 62039, Note_on_c, 15, 48, 0
19, 62040, Note_on_c, 15, 46, 76
19, 62151, Note_on_c, 15, 46, 0
19, 62160, Note_on_c, 15, 44, 84
19, 62204, Note_on_c, 15, 44, 0
19, 62220, Note_on_c, 15, 48, 84
19, 62264, Note_on_c, 15, 48, 0
19, 62280, Note_on_c, 15, 49, 84
19, 62324, Note_on_c, 15, 49, 0
19, 62340, Note_on_c, 15, 48, 84
19, 62384, Note_on_c, 15, 48, 0
19, 62400, Note_on_c, 15, 46, 84
19, 62444, Note_on_c, 15, 46, 0
19, 62460, Note_on_c, 15, 44, 84
19, 62504, Note_on_c, 15, 44, 0
19, 62520, Note_on_c, 15, 43, 84
19, 62564, Note_on_c, 15, 43, 0
19, 62580, Note_on_c, 15, 41, 84
19, 62624, Note_on_c, 15, 41, 0
19, 62640, Note_on_c, 15, 46, 84
19, 62684, Note_on_c, 15, 46, 0
19, 62700, Note_on_c, 15, 34, 84
19, 62744, Note_on_c, 15, 34, 0
19, 62760, Note_on_c, 15, 36, 84
19, 62804, Note_on_c, 15, 36, 0
19, 62820, Note_on_c, 15, 34, 84
19, 62864, Note_on_c, 15, 34, 0
19, 62880, Note_on_c, 15, 46, 84
19, 62924, Note_on_c, 15, 46, 0
19, 62940, Note_on_c, 15, 34, 84
19, 62984, Note_on_c, 15, 34, 0
19, 63000, Note_on_c, 15, 46, 84
19, 63044, Note_on_c, 15, 46, 0
19, 63060, Note_on_c, 15, 34, 84
19, 63104, Note_on_c, 15, 34, 0
19, 63120, Note_on_c, 15, 46, 84
19, 63164, Note_on_c, 15, 46, 0
19, 63180, Note_on_c, 15, 36, 84
19, 63224, Note_on_c, 15, 36, 0
19, 63240, Note_on_c, 15, 46, 84
19, 63284, Note_on_c, 15, 46, 0
19, 63300, Note_on_c, 15, 36, 84
19, 63344, Note_on_c, 15, 36, 0
19, 63360, Note_on_c, 15, 44, 84
19, 63404, Note_on_c, 15, 44, 0
19, 63420, Note_on_c, 15, 36, 84
19, 63464, Note_on_c, 15, 36, 0
19, 63480, Note_on_c, 15, 43, 84
19, 63524, Note_on_c, 15, 43, 0
19, 63540, Note_on_c, 15, 36, 84
19, 63584, Note_on_c, 15, 36, 0
19, 63600, Note_on_c, 15, 41, 84
19, 63719, Note_on_c, 15, 41, 0
19, 64080, Note_on_c, 15, 34, 84
19, 64124, Note_on_c, 15, 34, 0
19, 64140, Note_on_c, 15, 46, 84
19, 64184, Note_on_c, 15, 46, 0
19, 64200, Note_on_c, 15, 44, 84
19, 64244, Note_on_c, 15, 44, 0
19, 64260, Note_on_c, 15, 46, 84
19, 64304, Note_on_c, 15, 46, 0
19, 64320, Note_on_c, 15, 43, 84
19, 64364, Note_on_c, 15, 43, 0
19, 64380, Note_on_c, 15, 46, 84
19, 64424, Note_on_c, 15, 46, 0
19, 64440, Note_on_c, 15, 41, 84
19, 64484, Note_on_c, 15, 41, 0
19, 64500, Note_on_c, 15, 46, 84
19, 64544, Note_on_c, 15, 46, 0
19, 64560, Note_on_c, 15, 39, 84
19, 64604, Note_on_c, 15, 39, 0
19, 64620, Note_on_c, 15, 41, 84
19, 64664, Note_on_c, 15, 41, 0
19, 64680, Note_on_c, 15, 39, 84
19, 64724, Note_on_c, 15, 39, 0
19, 64740, Note_on_c, 15, 38, 84
19, 64784, Note_on_c, 15, 38, 0
19, 64800, Note_on_c, 15, 36, 84
19, 64844, Note_on_c, 15, 36, 0
19, 64860, Note_on_c, 15, 34, 84
19, 64904, Note_on_c, 15, 34, 0
19, 64920, Note_on_c, 15, 32, 84
19, 64964, Note_on_c, 15, 32, 0
19, 64980, Note_on_c, 15, 31, 84
19, 65024, Note_on_c, 15, 31, 0
19, 65040, Note_on_c, 15, 29, 84
19, 65159, Note_on_c, 15, 29, 0
19, 65580, Note_on_c, 15, 43, 84
19, 65624, Note_on_c, 15, 43, 0
19, 65640, Note_on_c, 15, 41, 84
19, 65684, Note_on_c, 15, 41, 0
19, 65700, Note_on_c, 15, 39, 84
19, 65744, Note_on_c, 15, 39, 0
19, 65760, Note_on_c, 15, 38, 84
19, 65804, Note_on_c, 15, 38, 0
19, 65820, Note_on_c, 15, 36, 84
19, 65864, Note_on_c, 15, 36, 0
19, 65880, Note_on_c, 15, 34, 84
19, 65924, Note_on_c, 15, 34, 0
19, 65940, Note_on_c, 15, 32, 84
19, 65984, Note_on_c, 15, 32, 0
19, 66000, Note_on_c, 15, 31, 84
19, 66119, Note_on_c, 15, 31, 0
19, 66720, Note_on_c, 15, 36, 76
19, 67199, Note_on_c, 15, 36, 0
19, 67200, Note_on_c, 15, 38, 76
19, 67319, Note_on_c, 15, 38, 0
19, 67320, Note_on_c, 15, 39, 76
19, 67431, Note_on_c, 15, 39, 0
19, 67440, Note_on_c, 15, 41, 84
19, 67799, Note_on_c, 15, 41, 0
19, 67800, Note_on_c, 15, 39, 76
19, 67911, Note_on_c, 15, 39, 0
19, 67920, Note_on_c, 15, 38, 76
19, 68159, Note_on_c, 15, 38, 0
19, 68160, Note_on_c, 15, 39, 76
19, 68279, Note_on_c, 15, 39, 0
19, 68280, Note_on_c, 15, 41, 76
19, 68391, Note_on_c, 15, 41, 0
19, 68400, Note_on_c, 15, 43, 84
19, 68759, Note_on_c, 15, 43, 0
19, 68760, Note_on_c, 15, 41, 76
19, 68871, Note_on_c, 15, 41, 0
19, 68880, Note_on_c, 15, 39, 84
19, 68894, Note_on_c, 15, 39, 0
19, 68895, Note_on_c, 15, 41, 84
19, 68909, Note_on_c, 15, 41, 0
19, 68910, Note_on_c, 15, 39, 84
19, 68924, Note_on_c, 15, 39, 0
19, 68925, Note_on_c, 15, 41, 84
19, 68939, Note_on_c, 15, 41, 0
19, 68940, Note_on_c, 15, 39, 84
19, 68954, Note_on_c, 15, 39, 0
19, 68955, Note_on_c, 15, 41, 84
19, 68969, Note_on_c, 15, 41, 0
19, 68970, Note_on_c, 15, 39, 84
19, 68984, Note_on_c, 15, 39, 0
19, 68985, Note_on_c, 15, 41, 84
19, 68999, Note_on_c, 15, 41, 0
19, 69000, Note_on_c, 15, 39, 84
19, 69014, Note_on_c, 15, 39, 0
19, 69015, Note_on_c, 15, 41, 84
19, 69029, Note_on_c, 15, 41, 0
19, 69030, Note_on_c, 15, 39, 84
19, 69044, Note_on_c, 15, 39, 0
19, 69045, Note_on_c, 15, 41, 84
19, 69059, Note_on_c, 15, 41, 0
19, 69060, Note_on_c, 15, 39, 84
19, 69074, Note_on_c, 15, 39, 0
19, 69075, Note_on_c, 15, 41, 84
19, 69089, Note_on_c, 15, 41, 0
19, 69090, Note_on_c, 15, 39, 84
19, 69104, Note_on_c, 15, 39, 0
19, 69105, Note_on_c, 15, 41, 84
19, 69119, Note_on_c, 15, 41, 0
19, 69120, Note_on_c, 15, 39, 84
19, 69134, Note_on_c, 15, 39, 0
19, 69135, Note_on_c, 15, 41, 84
19, 69149, Note_on_c, 15, 41, 0
19, 69150, Note_on_c, 15, 39, 84
19, 69164, Note_on_c, 15, 39, 0
19, 69165, Note_on_c, 15, 41, 84
19, 69179, Note_on_c, 15, 41, 0
19, 69180, Note_on_c, 15, 39, 84
19, 69194, Note_on_c, 15, 39, 0
19, 69195, Note_on_c, 15, 41, 84
19, 69209, Note_on_c, 15, 41, 0
19, 69210, Note_on_c, 15, 39, 84
19, 69224, Note_on_c, 15, 39, 0
19, 69225, Note_on_c, 15, 41, 84
19, 69239, Note_on_c, 15, 41, 0
19, 69240, Note_on_c, 15, 39, 84
19, 69254, Note_on_c, 15, 39, 0
19, 69255, Note_on_c, 15, 41, 84
19, 69269, Note_on_c, 15, 41, 0
19, 69270, Note_on_c, 15, 39, 84
19, 69284, Note_on_c, 15, 39, 0
19, 69285, Note_on_c, 15, 41, 84
19, 69299, Note_on_c, 15, 41, 0
19, 69300, Note_on_c, 15, 39, 84
19, 69314, Note_on_c, 15, 39, 0
19, 69315, Note_on_c, 15, 41, 84
19, 69329, Note_on_c, 15, 41, 0
19, 69330, Note_on_c, 15, 38, 84
19, 69344, Note_on_c, 15, 38, 0
19, 69345, Note_on_c, 15, 39, 84
19, 69356, Note_on_c, 15, 39, 0
19, 69360, Note_on_c, 15, 38, 84
19, 69831, Note_on_c, 15, 38, 0
19, 69840, Note_on_c, 15, 38, 84
19, 70311, Note_on_c, 15, 38, 0
19, 70320, Note_on_c, 15, 38, 84
19, 70791, Note_on_c, 15, 38, 0
19, 70800, Note_on_c, 15, 38, 84
19, 71271, Note_on_c, 15, 38, 0
19, 71280, Note_on_c, 15, 38, 84
19, 71399, Note_on_c, 15, 38, 0
19, 71400, Note_on_c, 15, 40, 84
19, 71459, Note_on_c, 15, 40, 0
19, 71460, Note_on_c, 15, 42, 84
19, 71519, Note_on_c, 15, 42, 0
19, 71520, Note_on_c, 15, 43, 84
19, 71639, Note_on_c, 15, 43, 0
19, 71640, Note_on_c, 15, 39, 84
19, 71699, Note_on_c, 15, 39, 0
19, 71700, Note_on_c, 15, 38, 84
19, 71751, Note_on_c, 15, 38, 0
19, 71760, Note_on_c, 15, 37, 84
19, 71879, Note_on_c, 15, 37, 0
19, 72000, Note_on_c, 15, 37, 92
19, 72239, Note_on_c, 15, 37, 0
19, 72240, Note_on_c, 15, 37, 84
19, 72329, Note_on_c, 15, 37, 0
19, 72360, Note_on_c, 15, 37, 84
19, 72449, Note_on_c, 15, 37, 0
19, 72480, Note_on_c, 15, 37, 84
19, 72569, Note_on_c, 15, 37, 0
19, 72600, Note_on_c, 15, 37, 84
19, 72689, Note_on_c, 15, 37, 0
19, 72720, Note_on_c, 15, 38, 84
19, 72720, Control_c, 15, 11, 127
19, 72740, Control_c, 15, 11, 124
19, 72760, Control_c, 15, 11, 122
19, 72780, Control_c, 15, 11, 119
19, 72800, Control_c, 15, 11, 117
19, 72820, Control_c, 15, 11, 114
19, 72840, Control_c, 15, 11, 111
19, 72860, Control_c, 15, 11, 109
19, 72880, Control_c, 15, 11, 106
19, 72900, Control_c, 15, 11, 103
19, 72920, Control_c, 15, 11, 101
19, 72940, Control_c, 15, 11, 98
19, 72960, Control_c, 15, 11, 96
19, 72980, Control_c, 15, 11, 93
19, 73000, Control_c, 15, 11, 90
19, 73020, Control_c, 15, 11, 88
19, 73040, Control_c, 15, 11, 85
19, 73060, Control_c, 15, 11, 82
19, 73080, Control_c, 15, 11, 80
19, 73100, Control_c, 15, 11, 77
19, 73120, Control_c, 15, 11, 75
19, 73140, Control_c, 15, 11, 72
19, 73160, Control_c, 15, 11, 69
19, 73180, Control_c, 15, 11, 64
19, 73191, Note_on_c, 15, 38, 0
19, 73200, Note_on_c, 15, 33, 84
19, 73200, Note_on_c, 15, 26, 84
19, 73671, Note_on_c, 15, 33, 0
19, 73671, Note_on_c, 15, 26, 0
19, 73680, Note_on_c, 15, 31, 84
19, 73919, Note_on_c, 15, 31, 0
19, 74145, Control_c, 15, 11, 127
19, 74160, Note_on_c, 15, 43, 52
19, 74399, Note_on_c, 15, 43, 0
19, 74640, Note_on_c, 15, 41, 52
19, 74879, Note_on_c, 15, 41, 0
19, 75600, Note_on_c, 15, 32, 84
19, 76071, Note_on_c, 15, 32, 0
19, 76080, Note_on_c, 15, 32, 92
19, 76544, Note_on_c, 15, 32, 0
19, 76560, Note_on_c, 15, 32, 84
19, 76589, Note_on_c, 15, 32, 0
19, 76600, Note_on_c, 15, 31, 84
19, 76629, Note_on_c, 15, 31, 0
19, 76640, Note_on_c, 15, 32, 84
19, 76669, Note_on_c, 15, 32, 0
19, 76680, Note_on_c, 15, 36, 84
19, 76709, Note_on_c, 15, 36, 0
19, 76720, Note_on_c, 15, 35, 84
19, 76749, Note_on_c, 15, 35, 0
19, 76760, Note_on_c, 15, 36, 84
19, 76789, Note_on_c, 15, 36, 0
19, 76800, Note_on_c, 15, 32, 84
19, 76829, Note_on_c, 15, 32, 0
19, 76840, Note_on_c, 15, 31, 84
19, 76869, Note_on_c, 15, 31, 0
19, 76880, Note_on_c, 15, 32, 84
19, 76909, Note_on_c, 15, 32, 0
19, 76920, Note_on_c, 15, 36, 84
19, 76949, Note_on_c, 15, 36, 0
19, 76960, Note_on_c, 15, 35, 84
19, 76989, Note_on_c, 15, 35, 0
19, 77000, Note_on_c, 15, 36, 84
19, 77029, Note_on_c, 15, 36, 0
19, 77040, Note_on_c, 15, 32, 84
19, 77069, Note_on_c, 15, 32, 0
19, 77080, Note_on_c, 15, 31, 84
19, 77109, Note_on_c, 15, 31, 0
19, 77120, Note_on_c, 15, 32, 84
19, 77149, Note_on_c, 15, 32, 0
19, 77160, Note_on_c, 15, 36, 84
19, 77189, Note_on_c, 15, 36, 0
19, 77200, Note_on_c, 15, 35, 84
19, 77229, Note_on_c, 15, 35, 0
19, 77240, Note_on_c, 15, 36, 84
19, 77269, Note_on_c, 15, 36, 0
19, 77280, Note_on_c, 15, 32, 84
19, 77309, Note_on_c, 15, 32, 0
19, 77320, Note_on_c, 15, 31, 84
19, 77349, Note_on_c, 15, 31, 0
19, 77360, Note_on_c, 15, 32, 84
19, 77389, Note_on_c, 15, 32, 0
19, 77400, Note_on_c, 15, 36, 84
19, 77429, Note_on_c, 15, 36, 0
19, 77440, Note_on_c, 15, 35, 84
19, 77469, Note_on_c, 15, 35, 0
19, 77480, Note_on_c, 15, 36, 84
19, 77509, Note_on_c, 15, 36, 0
19, 77520, Note_on_c, 15, 31, 84
19, 77549, Note_on_c, 15, 31, 0
19, 77560, Note_on_c, 15, 30, 84
19, 77589, Note_on_c, 15, 30, 0
19, 77600, Note_on_c, 15, 31, 84
19, 77629, Note_on_c, 15, 31, 0
19, 77640, Note_on_c, 15, 36, 84
19, 77669, Note_on_c, 15, 36, 0
19, 77680, Note_on_c, 15, 35, 84
19, 77709, Note_on_c, 15, 35, 0
19, 77720, Note_on_c, 15, 36, 84
19, 77749, Note_on_c, 15, 36, 0
19, 77760, Note_on_c, 15, 31, 84
19, 77789, Note_on_c, 15, 31, 0
19, 77800, Note_on_c, 15, 30, 84
19, 77829, Note_on_c, 15, 30, 0
19, 77840, Note_on_c, 15, 31, 84
19, 77869, Note_on_c, 15, 31, 0
19, 77880, Note_on_c, 15, 36, 84
19, 77909, Note_on_c, 15, 36, 0
19, 77920, Note_on_c, 15, 35, 84
19, 77949, Note_on_c, 15, 35, 0
19, 77960, Note_on_c, 15, 36, 84
19, 77989, Note_on_c, 15, 36, 0
19, 78000, Note_on_c, 15, 31, 84
19, 78029, Note_on_c, 15, 31, 0
19, 78040, Note_on_c, 15, 30, 84
19, 78069, Note_on_c, 15, 30, 0
19, 78080, Note_on_c, 15, 31, 84
19, 78109, Note_on_c, 15, 31, 0
19, 78120, Note_on_c, 15, 36, 84
19, 78149, Note_on_c, 15, 36, 0
19, 78160, Note_on_c, 15, 35, 84
19, 78189, Note_on_c, 15, 35, 0
19, 78200, Note_on_c, 15, 36, 84
19, 78229, Note_on_c, 15, 36, 0
19, 78240, Note_on_c, 15, 31, 84
19, 78269, Note_on_c, 15, 31, 0
19, 78280, Note_on_c, 15, 30, 84
19, 78309, Note_on_c, 15, 30, 0
19, 78320, Note_on_c, 15, 31, 84
19, 78349, Note_on_c, 15, 31, 0
19, 78360, Note_on_c, 15, 36, 84
19, 78389, Note_on_c, 15, 36, 0
19, 78400, Note_on_c, 15, 35, 84
19, 78429, Note_on_c, 15, 35, 0
19, 78440, Note_on_c, 15, 36, 84
19, 78469, Note_on_c, 15, 36, 0
19, 78480, Note_on_c, 15, 30, 84
19, 78509, Note_on_c, 15, 30, 0
19, 78520, Note_on_c, 15, 33, 84
19, 78549, Note_on_c, 15, 33, 0
19, 78560, Note_on_c, 15, 36, 84
19, 78589, Note_on_c, 15, 36, 0
19, 78600, Note_on_c, 15, 39, 84
19, 78629, Note_on_c, 15, 39, 0
19, 78640, Note_on_c, 15, 42, 84
19, 78669, Note_on_c, 15, 42, 0
19, 78680, Note_on_c, 15, 45, 84
19, 78709, Note_on_c, 15, 45, 0
19, 78720, Note_on_c, 15, 48, 84
19, 78809, Note_on_c, 15, 48, 0
19, 79440, Note_on_c, 15, 29, 84
19, 79469, Note_on_c, 15, 29, 0
19, 79480, Note_on_c, 15, 32, 84
19, 79509, Note_on_c, 15, 32, 0
19, 79520, Note_on_c, 15, 35, 84
19, 79549, Note_on_c, 15, 35, 0
19, 79560, Note_on_c, 15, 38, 84
19, 79589, Note_on_c, 15, 38, 0
19, 79600, Note_on_c, 15, 41, 84
19, 79629, Note_on_c, 15, 41, 0
19, 79640, Note_on_c, 15, 44, 84
19, 79669, Note_on_c, 15, 44, 0
19, 79680, Note_on_c, 15, 47, 84
19, 79769, Note_on_c, 15, 47, 0
19, 80400, Note_on_c, 15, 31, 84
19, 80519, Note_on_c, 15, 31, 0
19, 81360, Note_on_c, 15, 31, 52
19, 81479, Note_on_c, 15, 31, 0
19, 81840, Note_on_c, 15, 31, 52
19, 81959, Note_on_c, 15, 31, 0
19, 81960, Note_on_c, 15, 32, 52
19, 82079, Note_on_c, 15, 32, 0
19, 82080, Note_on_c, 15, 31, 52
19, 82199, Note_on_c, 15, 31, 0
19, 82200, Note_on_c, 15, 35, 60
19, 82311, Note_on_c, 15, 35, 0
19, 82320, Note_on_c, 15, 31, 52
19, 82439, Note_on_c, 15, 31, 0
19, 82440, Note_on_c, 15, 38, 60
19, 82559, Note_on_c, 15, 38, 0
19, 82560, Note_on_c, 15, 31, 52
19, 82679, Note_on_c, 15, 31, 0
19, 82680, Note_on_c, 15, 43, 60
19, 82791, Note_on_c, 15, 43, 0
19, 82800, Note_on_c, 15, 31, 52
19, 82919, Note_on_c, 15, 31, 0
19, 82920, Note_on_c, 15, 32, 60
19, 83039, Note_on_c, 15, 32, 0
19, 83040, Note_on_c, 15, 31, 52
19, 83159, Note_on_c, 15, 31, 0
19, 83160, Note_on_c, 15, 36, 60
19, 83271, Note_on_c, 15, 36, 0
19, 83280, Note_on_c, 15, 31, 52
19, 83399, Note_on_c, 15, 31, 0
19, 83400, Note_on_c, 15, 39, 60
19, 83519, Note_on_c, 15, 39, 0
19, 83520, Note_on_c, 15, 31, 52
19, 83639, Note_on_c, 15, 31, 0
19, 83640, Note_on_c, 15, 43, 60
19, 83751, Note_on_c, 15, 43, 0
19, 83760, Note_on_c, 15, 31, 52
19, 83879, Note_on_c, 15, 31, 0
19, 83880, Note_on_c, 15, 32, 60
19, 83999, Note_on_c, 15, 32, 0
19, 84000, Note_on_c, 15, 31, 52
19, 84119, Note_on_c, 15, 31, 0
19, 84120, Note_on_c, 15, 36, 60
19, 84231, Note_on_c, 15, 36, 0
19, 84240, Note_on_c, 15, 31, 52
19, 84359, Note_on_c, 15, 31, 0
19, 84360, Note_on_c, 15, 39, 60
19, 84479, Note_on_c, 15, 39, 0
19, 84480, Note_on_c, 15, 31, 52
19, 84599, Note_on_c, 15, 31, 0
19, 84600, Note_on_c, 15, 43, 60
19, 84711, Note_on_c, 15, 43, 0
19, 84720, Note_on_c, 15, 29, 52
19, 84839, Note_on_c, 15, 29, 0
19, 84840, Note_on_c, 15, 35, 60
19, 84959, Note_on_c, 15, 35, 0
19, 84960, Note_on_c, 15, 29, 52
19, 85079, Note_on_c, 15, 29, 0
19, 85080, Note_on_c, 15, 38, 60
19, 85191, Note_on_c, 15, 38, 0
19, 85198, Control_c, 15, 11, 96
19, 85200, Note_on_c, 15, 35, 68
19, 85260, Control_c, 15, 11, 96
19, 85283, Control_c, 15, 11, 98
19, 85307, Control_c, 15, 11, 99
19, 85319, Note_on_c, 15, 35, 0
19, 85320, Note_on_c, 15, 41, 68
19, 85330, Control_c, 15, 11, 101
19, 85353, Control_c, 15, 11, 103
19, 85377, Control_c, 15, 11, 105
19, 85400, Control_c, 15, 11, 106
19, 85423, Control_c, 15, 11, 108
19, 85439, Note_on_c, 15, 41, 0
19, 85440, Note_on_c, 15, 38, 68
19, 85447, Control_c, 15, 11, 110
19, 85470, Control_c, 15, 11, 112
19, 85493, Control_c, 15, 11, 113
19, 85517, Control_c, 15, 11, 115
19, 85540, Control_c, 15, 11, 117
19, 85559, Note_on_c, 15, 38, 0
19, 85560, Note_on_c, 15, 35, 68
19, 85563, Control_c, 15, 11, 118
19, 85587, Control_c, 15, 11, 120
19, 85610, Control_c, 15, 11, 122
19, 85633, Control_c, 15, 11, 124
19, 85657, Control_c, 15, 11, 127
19, 85671, Note_on_c, 15, 35, 0
19, 85680, Note_on_c, 15, 34, 68
19, 85680, Control_c, 15, 11, 127
19, 85700, Control_c, 15, 11, 126
19, 85720, Control_c, 15, 11, 124
19, 85740, Control_c, 15, 11, 123
19, 85760, Control_c, 15, 11, 122
19, 85780, Control_c, 15, 11, 121
19, 85791, Note_on_c, 15, 34, 0
19, 85800, Note_on_c, 15, 46, 68
19, 85800, Control_c, 15, 11, 119
19, 85820, Control_c, 15, 11, 118
19, 85840, Control_c, 15, 11, 117
19, 85860, Control_c, 15, 11, 115
19, 85880, Control_c, 15, 11, 114
19, 85900, Control_c, 15, 11, 113
19, 85911, Note_on_c, 15, 46, 0
19, 85920, Note_on_c, 15, 34, 68
19, 85920, Control_c, 15, 11, 112
19, 85940, Control_c, 15, 11, 110
19, 85960, Control_c, 15, 11, 109
19, 85980, Control_c, 15, 11, 108
19, 86000, Control_c, 15, 11, 106
19, 86020, Control_c, 15, 11, 105
19, 86031, Note_on_c, 15, 34, 0
19, 86040, Control_c, 15, 11, 104
19, 86040, Note_on_c, 15, 46, 68
19, 86060, Control_c, 15, 11, 102
19, 86080, Control_c, 15, 11, 101
19, 86100, Control_c, 15, 11, 100
19, 86120, Control_c, 15, 11, 99
19, 86140, Control_c, 15, 11, 96
19, 86151, Note_on_c, 15, 46, 0
19, 86160, Note_on_c, 15, 39, 68
19, 86271, Note_on_c, 15, 39, 0
19, 86280, Note_on_c, 15, 44, 68
19, 86391, Note_on_c, 15, 44, 0
19, 86400, Note_on_c, 15, 39, 68
19, 86435, Note_on_c, 15, 39, 0
19, 86440, Note_on_c, 15, 48, 68
19, 86475, Note_on_c, 15, 48, 0
19, 86480, Note_on_c, 15, 46, 68
19, 86515, Note_on_c, 15, 46, 0
19, 86520, Note_on_c, 15, 44, 68
19, 86555, Note_on_c, 15, 44, 0
19, 86560, Note_on_c, 15, 43, 68
19, 86595, Note_on_c, 15, 43, 0
19, 86600, Note_on_c, 15, 41, 68
19, 86635, Note_on_c, 15, 41, 0
19, 86640, Note_on_c, 15, 39, 68
19, 87111, Note_on_c, 15, 39, 0
19, 87120, Note_on_c, 15, 34, 68
19, 87120, Control_c, 15, 11, 96
19, 87140, Control_c, 15, 11, 97
19, 87160, Control_c, 15, 11, 99
19, 87180, Control_c, 15, 11, 100
19, 87200, Control_c, 15, 11, 101
19, 87220, Control_c, 15, 11, 102
19, 87240, Control_c, 15, 11, 104
19, 87260, Control_c, 15, 11, 105
19, 87280, Control_c, 15, 11, 106
19, 87300, Control_c, 15, 11, 108
19, 87320, Control_c, 15, 11, 109
19, 87340, Control_c, 15, 11, 110
19, 87360, Control_c, 15, 11, 112
19, 87380, Control_c, 15, 11, 113
19, 87400, Control_c, 15, 11, 114
19, 87420, Control_c, 15, 11, 115
19, 87440, Control_c, 15, 11, 117
19, 87460, Control_c, 15, 11, 118
19, 87480, Control_c, 15, 11, 119
19, 87500, Control_c, 15, 11, 121
19, 87520, Control_c, 15, 11, 122
19, 87540, Control_c, 15, 11, 123
19, 87560, Control_c, 15, 11, 124
19, 87580, Control_c, 15, 11, 127
19, 87591, Note_on_c, 15, 34, 0
19, 87600, Control_c, 15, 11, 127
19, 87600, Note_on_c, 15, 36, 68
19, 87620, Control_c, 15, 11, 126
19, 87640, Control_c, 15, 11, 124
19, 87660, Control_c, 15, 11, 123
19, 87680, Control_c, 15, 11, 122
19, 87700, Control_c, 15, 11, 121
19, 87720, Control_c, 15, 11, 119
19, 87740, Control_c, 15, 11, 118
19, 87760, Control_c, 15, 11, 117
19, 87780, Control_c, 15, 11, 115
19, 87800, Control_c, 15, 11, 114
19, 87820, Control_c, 15, 11, 113
19, 87839, Note_on_c, 15, 36, 0
19, 87840, Note_on_c, 15, 34, 68
19, 87840, Control_c, 15, 11, 112
19, 87860, Control_c, 15, 11, 110
19, 87880, Control_c, 15, 11, 109
19, 87900, Control_c, 15, 11, 108
19, 87920, Control_c, 15, 11, 106
19, 87940, Control_c, 15, 11, 105
19, 87959, Note_on_c, 15, 34, 0
19, 87960, Note_on_c, 15, 32, 68
19, 87960, Control_c, 15, 11, 104
19, 87980, Control_c, 15, 11, 102
19, 88000, Control_c, 15, 11, 101
19, 88020, Control_c, 15, 11, 100
19, 88040, Control_c, 15, 11, 99
19, 88060, Control_c, 15, 11, 96
19, 88071, Note_on_c, 15, 32, 0
19, 88080, Note_on_c, 15, 31, 68
19, 88199, Note_on_c, 15, 31, 0
19, 88260, Control_c, 15, 11, 127
19, 88290, Note_on_c, 15, 40, 76
19, 88311, Note_on_c, 15, 40, 0
19, 88320, Note_on_c, 15, 40, 76
19, 88559, Note_on_c, 15, 40, 0
19, 88740, Control_c, 15, 11, 96
19, 88800, Note_on_c, 15, 41, 68
19, 88919, Note_on_c, 15, 41, 0
19, 88920, Note_on_c, 15, 43, 68
19, 89031, Note_on_c, 15, 43, 0
19, 89040, Control_c, 15, 11, 96
19, 89040, Note_on_c, 15, 44, 68
19, 89060, Control_c, 15, 11, 99
19, 89080, Control_c, 15, 11, 101
19, 89100, Control_c, 15, 11, 104
19, 89120, Control_c, 15, 11, 106
19, 89140, Control_c, 15, 11, 109
19, 89160, Control_c, 15, 11, 112
19, 89180, Control_c, 15, 11, 114
19, 89200, Control_c, 15, 11, 117
19, 89220, Control_c, 15, 11, 119
19, 89240, Control_c, 15, 11, 122
19, 89260, Control_c, 15, 11, 127
19, 89279, Note_on_c, 15, 44, 0
19, 89280, Note_on_c, 15, 32, 76
19, 89340, Control_c, 15, 11, 112
19, 89355, Control_c, 15, 11, 109
19, 89370, Control_c, 15, 11, 107
19, 89385, Control_c, 15, 11, 104
19, 89400, Control_c, 15, 11, 101
19, 89415, Control_c, 15, 11, 99
19, 89430, Control_c, 15, 11, 96
19, 89445, Control_c, 15, 11, 93
19, 89460, Control_c, 15, 11, 91
19, 89475, Control_c, 15, 11, 88
19, 89490, Control_c, 15, 11, 85
19, 89511, Note_on_c, 15, 32, 0
19, 89518, Control_c, 15, 11, 96
19, 89520, Note_on_c, 15, 31, 68
19, 89991, Note_on_c, 15, 31, 0
19, 90000, Note_on_c, 15, 31, 68
19, 90471, Note_on_c, 15, 31, 0
19, 90480, Control_c, 15, 11, 96
19, 90480, Note_on_c, 15, 31, 68
19, 90500, Control_c, 15, 11, 97
19, 90520, Control_c, 15, 11, 99
19, 90540, Control_c, 15, 11, 100
19, 90560, Control_c, 15, 11, 101
19, 90580, Control_c, 15, 11, 102
19, 90600, Control_c, 15, 11, 104
19, 90620, Control_c, 15, 11, 105
19, 90640, Control_c, 15, 11, 106
19, 90660, Control_c, 15, 11, 108
19, 90680, Control_c, 15, 11, 109
19, 90700, Control_c, 15, 11, 110
19, 90720, Control_c, 15, 11, 112
19, 90740, Control_c, 15, 11, 113
19, 90760, Control_c, 15, 11, 114
19, 90780, Control_c, 15, 11, 115
19, 90800, Control_c, 15, 11, 117
19, 90820, Control_c, 15, 11, 118
19, 90840, Control_c, 15, 11, 119
19, 90860, Control_c, 15, 11, 121
19, 90880, Control_c, 15, 11, 122
19, 90900, Control_c, 15, 11, 123
19, 90920, Control_c, 15, 11, 124
19, 90940, Control_c, 15, 11, 127
19, 90951, Note_on_c, 15, 31, 0
19, 90960, Control_c, 15, 11, 127
19, 90960, Note_on_c, 15, 31, 68
19, 90980, Control_c, 15, 11, 126
19, 91000, Control_c, 15, 11, 124
19, 91020, Control_c, 15, 11, 123
19, 91040, Control_c, 15, 11, 122
19, 91060, Control_c, 15, 11, 121
19, 91080, Control_c, 15, 11, 119
19, 91100, Control_c, 15, 11, 118
19, 91120, Control_c, 15, 11, 117
19, 91140, Control_c, 15, 11, 115
19, 91160, Control_c, 15, 11, 114
19, 91180, Control_c, 15, 11, 113
19, 91200, Control_c, 15, 11, 112
19, 91220, Control_c, 15, 11, 110
19, 91240, Control_c, 15, 11, 109
19, 91260, Control_c, 15, 11, 108
19, 91280, Control_c, 15, 11, 106
19, 91300, Control_c, 15, 11, 105
19, 91320, Control_c, 15, 11, 104
19, 91340, Control_c, 15, 11, 102
19, 91360, Control_c, 15, 11, 101
19, 91380, Control_c, 15, 11, 100
19, 91400, Control_c, 15, 11, 99
19, 91420, Control_c, 15, 11, 96
19, 91431, Note_on_c, 15, 31, 0
19, 91440, Note_on_c, 15, 31, 68
19, 91559, Note_on_c, 15, 31, 0
19, 92880, Control_c, 15, 11, 127
19, 93120, Note_on_c, 15, 36, 76
19, 93351, Note_on_c, 15, 36, 0
19, 93360, Note_on_c, 15, 29, 52
19, 93449, Note_on_c, 15, 29, 0
19, 93480, Note_on_c, 15, 32, 52
19, 93569, Note_on_c, 15, 32, 0
19, 93600, Note_on_c, 15, 29, 52
19, 93689, Note_on_c, 15, 29, 0
19, 93720, Note_on_c, 15, 41, 52
19, 93809, Note_on_c, 15, 41, 0
19, 93840, Note_on_c, 15, 37, 52
19, 93929, Note_on_c, 15, 37, 0
19, 93960, Note_on_c, 15, 41, 52
19, 94049, Note_on_c, 15, 41, 0
19, 94080, Note_on_c, 15, 37, 52
19, 94169, Note_on_c, 15, 37, 0
19, 94200, Note_on_c, 15, 49, 52
19, 94289, Note_on_c, 15, 49, 0
19, 94320, Note_on_c, 15, 35, 52
19, 94409, Note_on_c, 15, 35, 0
19, 94440, Note_on_c, 15, 47, 58
19, 94529, Note_on_c, 15, 47, 0
19, 94560, Note_on_c, 15, 29, 64
19, 94649, Note_on_c, 15, 29, 0
19, 94680, Note_on_c, 15, 41, 70
19, 94769, Note_on_c, 15, 41, 0
19, 94800, Note_on_c, 15, 39, 76
19, 94889, Note_on_c, 15, 39, 0
19, 94920, Note_on_c, 15, 41, 76
19, 95009, Note_on_c, 15, 41, 0
19, 95100, Control_c, 15, 11, 96
19, 95160, Note_on_c, 15, 44, 68
19, 95280, Control_c, 15, 11, 96
19, 95293, Control_c, 15, 11, 99
19, 95307, Control_c, 15, 11, 103
19, 95320, Control_c, 15, 11, 106
19, 95333, Control_c, 15, 11, 110
19, 95347, Control_c, 15, 11, 113
19, 95360, Control_c, 15, 11, 117
19, 95373, Control_c, 15, 11, 120
19, 95387, Control_c, 15, 11, 127
19, 95399, Note_on_c, 15, 44, 0
19, 95400, Note_on_c, 15, 43, 68
19, 95400, Control_c, 15, 11, 127
19, 95413, Control_c, 15, 11, 124
19, 95427, Control_c, 15, 11, 120
19, 95440, Control_c, 15, 11, 117
19, 95453, Control_c, 15, 11, 113
19, 95467, Control_c, 15, 11, 110
19, 95480, Control_c, 15, 11, 106
19, 95493, Control_c, 15, 11, 103
19, 95507, Control_c, 15, 11, 96
19, 95511, Note_on_c, 15, 43, 0
19, 95520, Note_on_c, 15, 31, 68
19, 95631, Note_on_c, 15, 31, 0
19, 95640, Note_on_c, 15, 43, 68
19, 95751, Note_on_c, 15, 43, 0
19, 95760, Note_on_c, 15, 36, 68
19, 95879, Note_on_c, 15, 36, 0
19, 97440, Control_c, 15, 11, 127
19, 97680, Note_on_c, 15, 29, 76
19, 97919, Note_on_c, 15, 29, 0
19, 98160, Note_on_c, 15, 30, 84
19, 98220, Control_c, 15, 11, 112
19, 98238, Control_c, 15, 11, 111
19, 98255, Control_c, 15, 11, 109
19, 98273, Control_c, 15, 11, 108
19, 98290, Control_c, 15, 11, 107
19, 98308, Control_c, 15, 11, 105
19, 98325, Control_c, 15, 11, 104
19, 98343, Control_c, 15, 11, 103
19, 98360, Control_c, 15, 11, 101
19, 98378, Control_c, 15, 11, 100
19, 98395, Control_c, 15, 11, 99
19, 98399, Note_on_c, 15, 30, 0
19, 98580, Control_c, 15, 11, 127
19, 98640, Note_on_c, 15, 31, 52
19, 98759, Note_on_c, 15, 31, 0
19, 98880, Note_on_c, 15, 31, 52
19, 98999, Note_on_c, 15, 31, 0
19, 99120, Note_on_c, 15, 36, 52
19, 99239, Note_on_c, 15, 36, 0
19, 99360, Control_c, 15, 11, 80
19, 99600, Note_on_c, 15, 31, 76
19, 99600, Control_c, 15, 11, 80
19, 99640, Control_c, 15, 11, 84
19, 99680, Control_c, 15, 11, 88
19, 99711, Note_on_c, 15, 31, 0
19, 99720, Note_on_c, 15, 43, 76
19, 99720, Control_c, 15, 11, 92
19, 99760, Control_c, 15, 11, 96
19, 99800, Control_c, 15, 11, 100
19, 99831, Note_on_c, 15, 43, 0
19, 99840, Control_c, 15, 11, 104
19, 99840, Note_on_c, 15, 31, 76
19, 99880, Control_c, 15, 11, 107
19, 99920, Control_c, 15, 11, 111
19, 99951, Note_on_c, 15, 31, 0
19, 99960, Note_on_c, 15, 43, 76
19, 99960, Control_c, 15, 11, 115
19, 100000, Control_c, 15, 11, 119
19, 100040, Control_c, 15, 11, 127
19, 100071, Note_on_c, 15, 43, 0
19, 100080, Note_on_c, 15, 32, 76
19, 100199, Note_on_c, 15, 32, 0
19, 106560, Control_c, 15, 11, 96
19, 106800, Note_on_c, 15, 36, 60
19, 107279, Note_on_c, 15, 36, 0
19, 107280, Note_on_c, 15, 36, 60
19, 107751, Note_on_c, 15, 36, 0
19, 107760, Note_on_c, 15, 36, 60
19, 107760, Control_c, 15, 11, 96
19, 107806, Control_c, 15, 11, 97
19, 107853, Control_c, 15, 11, 98
19, 107899, Control_c, 15, 11, 99
19, 107946, Control_c, 15, 11, 100
19, 107992, Control_c, 15, 11, 101
19, 107999, Note_on_c, 15, 36, 0
19, 108000, Note_on_c, 15, 40, 60
19, 108039, Control_c, 15, 11, 102
19, 108085, Control_c, 15, 11, 103
19, 108119, Note_on_c, 15, 40, 0
19, 108120, Note_on_c, 15, 43, 60
19, 108132, Control_c, 15, 11, 104
19, 108178, Control_c, 15, 11, 105
19, 108225, Control_c, 15, 11, 106
19, 108231, Note_on_c, 15, 43, 0
19, 108240, Note_on_c, 15, 41, 60
19, 108271, Control_c, 15, 11, 107
19, 108317, Control_c, 15, 11, 108
19, 108364, Control_c, 15, 11, 109
19, 108410, Control_c, 15, 11, 110
19, 108457, Control_c, 15, 11, 111
19, 108479, Note_on_c, 15, 41, 0
19, 108480, Note_on_c, 15, 43, 60
19, 108503, Control_c, 15, 11, 112
19, 108550, Control_c, 15, 11, 113
19, 108596, Control_c, 15, 11, 114
19, 108599, Note_on_c, 15, 43, 0
19, 108600, Note_on_c, 15, 44, 60
19, 108643, Control_c, 15, 11, 115
19, 108689, Control_c, 15, 11, 116
19, 108711, Note_on_c, 15, 44, 0
19, 108720, Note_on_c, 15, 43, 60
19, 108735, Control_c, 15, 11, 117
19, 108782, Control_c, 15, 11, 118
19, 108828, Control_c, 15, 11, 119
19, 108839, Note_on_c, 15, 43, 0
19, 108840, Note_on_c, 15, 41, 60
19, 108875, Control_c, 15, 11, 120
19, 108921, Control_c, 15, 11, 121
19, 108959, Note_on_c, 15, 41, 0
19, 108960, Note_on_c, 15, 40, 60
19, 108968, Control_c, 15, 11, 122
19, 109014, Control_c, 15, 11, 123
19, 109061, Control_c, 15, 11, 124
19, 109079, Note_on_c, 15, 40, 0
19, 109080, Note_on_c, 15, 41, 60
19, 109107, Control_c, 15, 11, 125
19, 109191, Note_on_c, 15, 41, 0
19, 109198, Control_c, 15, 11, 127
19, 109200, Note_on_c, 15, 36, 52
19, 109319, Note_on_c, 15, 36, 0
19, 109680, Note_on_c, 15, 36, 52
19, 109799, Note_on_c, 15, 36, 0
19, 110160, Note_on_c, 15, 36, 52
19, 110279, Note_on_c, 15, 36, 0
19, 110580, Control_c, 15, 11, 96
19, 110640, Control_c, 15, 11, 96
19, 110640, Note_on_c, 15, 31, 68
19, 110660, Control_c, 15, 11, 98
19, 110680, Control_c, 15, 11, 99
19, 110700, Control_c, 15, 11, 101
19, 110720, Control_c, 15, 11, 103
19, 110740, Control_c, 15, 11, 105
19, 110760, Control_c, 15, 11, 106
19, 110780, Control_c, 15, 11, 108
19, 110800, Control_c, 15, 11, 110
19, 110820, Control_c, 15, 11, 112
19, 110840, Control_c, 15, 11, 113
19, 110860, Control_c, 15, 11, 115
19, 110880, Control_c, 15, 11, 117
19, 110900, Control_c, 15, 11, 118
19, 110920, Control_c, 15, 11, 120
19, 110940, Control_c, 15, 11, 122
19, 110960, Control_c, 15, 11, 124
19, 110980, Control_c, 15, 11, 127
19, 111000, Control_c, 15, 11, 127
19, 111013, Control_c, 15, 11, 124
19, 111027, Control_c, 15, 11, 120
19, 111040, Control_c, 15, 11, 117
19, 111053, Control_c, 15, 11, 113
19, 111067, Control_c, 15, 11, 110
19, 111080, Control_c, 15, 11, 106
19, 111093, Control_c, 15, 11, 103
19, 111107, Control_c, 15, 11, 96
19, 111119, Note_on_c, 15, 31, 0
19, 111120, Note_on_c, 15, 36, 68
19, 111239, Note_on_c, 15, 36, 0
19, 111600, Note_on_c, 15, 31, 68
19, 111600, Control_c, 15, 11, 96
19, 111620, Control_c, 15, 11, 99
19, 111640, Control_c, 15, 11, 101
19, 111660, Control_c, 15, 11, 104
19, 111680, Control_c, 15, 11, 106
19, 111700, Control_c, 15, 11, 109
19, 111720, Control_c, 15, 11, 112
19, 111740, Control_c, 15, 11, 114
19, 111760, Control_c, 15, 11, 117
19, 111780, Control_c, 15, 11, 119
19, 111800, Control_c, 15, 11, 122
19, 111820, Control_c, 15, 11, 124
19, 111840, Control_c, 15, 11, 127
19, 111860, Control_c, 15, 11, 124
19, 111880, Control_c, 15, 11, 122
19, 111900, Control_c, 15, 11, 119
19, 111920, Control_c, 15, 11, 117
19, 111940, Control_c, 15, 11, 114
19, 111960, Control_c, 15, 11, 112
19, 111980, Control_c, 15, 11, 109
19, 112000, Control_c, 15, 11, 106
19, 112020, Control_c, 15, 11, 104
19, 112040, Control_c, 15, 11, 101
19, 112060, Control_c, 15, 11, 96
19, 112079, Note_on_c, 15, 31, 0
19, 112080, Note_on_c, 15, 36, 68
19, 112199, Note_on_c, 15, 36, 0
19, 112560, Note_on_c, 15, 31, 68
19, 113039, Note_on_c, 15, 31, 0
19, 113040, Control_c, 15, 11, 96
19, 113040, Note_on_c, 15, 31, 68
19, 113080, Control_c, 15, 11, 99
19, 113120, Control_c, 15, 11, 101
19, 113160, Control_c, 15, 11, 104
19, 113200, Control_c, 15, 11, 106
19, 113240, Control_c, 15, 11, 109
19, 113280, Control_c, 15, 11, 112
19, 113320, Control_c, 15, 11, 114
19, 113360, Control_c, 15, 11, 117
19, 113400, Control_c, 15, 11, 119
19, 113440, Control_c, 15, 11, 122
19, 113500, Control_c, 15, 11, 127
19, 113519, Note_on_c, 15, 31, 0
19, 113520, Control_c, 15, 11, 127
19, 113520, Note_on_c, 15, 31, 68
19, 113560, Control_c, 15, 11, 124
19, 113600, Control_c, 15, 11, 122
19, 113640, Control_c, 15, 11, 119
19, 113680, Control_c, 15, 11, 117
19, 113720, Control_c, 15, 11, 114
19, 113760, Control_c, 15, 11, 112
19, 113800, Control_c, 15, 11, 109
19, 113840, Control_c, 15, 11, 106
19, 113880, Control_c, 15, 11, 104
19, 113920, Control_c, 15, 11, 101
19, 113960, Control_c, 15, 11, 96
19, 113999, Note_on_c, 15, 31, 0
19, 114238, Control_c, 15, 11, 127
19, 114238, Program_c, 15, 45
19, 114240, Note_on_c, 15, 36, 44
19, 114359, Note_on_c, 15, 36, 0
19, 114480, Note_on_c, 15, 31, 44
19, 114599, Note_on_c, 15, 31, 0
19, 114720, Note_on_c, 15, 39, 44
19, 114839, Note_on_c, 15, 39, 0
19, 114960, Note_on_c, 15, 36, 44
19, 115079, Note_on_c, 15, 36, 0
19, 115440, Note_on_c, 15, 31, 44
19, 115559, Note_on_c, 15, 31, 0
19, 115920, Note_on_c, 15, 31, 44
19, 116039, Note_on_c, 15, 31, 0
19, 116880, Note_on_c, 15, 31, 44
19, 116999, Note_on_c, 15, 31, 0
19, 117840, Program_c, 15, 48
19, 118020, Note_on_c, 15, 31, 76
19, 118039, Note_on_c, 15, 31, 0
19, 118040, Note_on_c, 15, 33, 76
19, 118059, Note_on_c, 15, 33, 0
19, 118060, Note_on_c, 15, 35, 76
19, 118079, Note_on_c, 15, 35, 0
19, 118080, Note_on_c, 15, 36, 76
19, 118169, Note_on_c, 15, 36, 0
19, 118200, Control_c, 15, 11, 127
19, 118213, Control_c, 15, 11, 122
19, 118227, Control_c, 15, 11, 117
19, 118240, Control_c, 15, 11, 111
19, 118253, Control_c, 15, 11, 106
19, 118260, Note_on_c, 15, 31, 76
19, 118267, Control_c, 15, 11, 101
19, 118279, Note_on_c, 15, 31, 0
19, 118280, Control_c, 15, 11, 96
19, 118280, Note_on_c, 15, 33, 76
19, 118293, Control_c, 15, 11, 88
19, 118299, Note_on_c, 15, 33, 0
19, 118300, Note_on_c, 15, 35, 76
19, 118307, Control_c, 15, 11, 80
19, 118319, Note_on_c, 15, 35, 0
19, 118320, Note_on_c, 15, 36, 76
19, 118679, Note_on_c, 15, 36, 0
19, 118679, End_track
20, 0, Start_track
20, 0, Title_t, "Ludwig van Beethoven - Symphony No. 3, Op.55 (Eroica) - No. 2 Marcia Funebre"
20, 0, MIDI_port, 0
20, 0, End_track
0, 0, End_of_file
