0, 0, Header, 1, 18, 240
1, 0, Start_track
1, 0, Sequencer_specific, 10, 0, 0, 91, 35, 1, 0, 5, 6, 42, 0
1, 0, Title_t, "Ludwig van Beethoven - Symphony No. 7 in A Major, Op.92"
1, 0, Instrument_name_t, "Conductor Track"
1, 0, SMPTE_offset, 96, 0, 3, 0, 0
1, 0, MIDI_port, 0
1, 0, Marker_t, "Originally Sequenced 9 Sep 2000"
1, 0, Key_signature, 3, "major"
1, 0, Tempo, 869565
1, 0, Time_signature, 4, 2, 24, 8
1, 59520, Time_signature, 6, 3, 36, 8
1, 59520, Tempo, 384615
1, 77520, Tempo, 1538461
1, 77880, Tempo, 384615
1, 159600, Tempo, 1538461
1, 159960, Tempo, 384615
1, 311520, Tempo, 1538461
1, 311880, Tempo, 384615
1, 312360, Tempo, 2000000
1, 312600, Tempo, 384615
1, 418800, Tempo, 384615
1, 419040, Tempo, 410958
1, 419460, Tempo, 384615
1, 419760, Tempo, 441176
1, 420240, Tempo, 384615
1, 420480, Tempo, 3000000
1, 420960, Tempo, 789473
1, 420960, End_track
2, 0, Start_track
2, 0, Title_t, "1st Movement - Poco sostenuto--Vivace"
2, 0, MIDI_port, 0
2, 0, End_track
3, 0, Start_track
3, 0, Title_t, "Sequenced by D. L. Viens 4 Oct 2000"
3, 0, MIDI_port, 0
3, 0, End_track
4, 0, Start_track
4, 0, Title_t, "dlviens@empire.net"
4, 0, MIDI_port, 0
4, 0, End_track
5, 0, Start_track
5, 0, MIDI_port, 0
5, 0, End_track
6, 0, Start_track
6, 0, Title_t, "Flute"
6, 0, MIDI_port, 0
6, 0, Program_c, 1, 73
6, 0, Control_c, 1, 7, 72
6, 0, Control_c, 1, 10, 60
6, 0, Control_c, 1, 11, 127
6, 0, Note_on_c, 1, 93, 76
6, 0, Note_on_c, 1, 85, 76
6, 179, Note_on_c, 1, 93, 0
6, 179, Note_on_c, 1, 85, 0
6, 1920, Note_on_c, 1, 83, 76
6, 1920, Note_on_c, 1, 88, 76
6, 2099, Note_on_c, 1, 83, 0
6, 2099, Note_on_c, 1, 88, 0
6, 3840, Note_on_c, 1, 85, 76
6, 3840, Note_on_c, 1, 88, 76
6, 4019, Note_on_c, 1, 85, 0
6, 4019, Note_on_c, 1, 88, 0
6, 4800, Note_on_c, 1, 81, 52
6, 5279, Note_on_c, 1, 81, 0
6, 5280, Note_on_c, 1, 76, 52
6, 5519, Note_on_c, 1, 76, 0
6, 5520, Note_on_c, 1, 81, 52
6, 5749, Note_on_c, 1, 81, 0
6, 5760, Note_on_c, 1, 86, 76
6, 5760, Note_on_c, 1, 81, 76
6, 5820, Control_c, 1, 11, 80
6, 5939, Note_on_c, 1, 86, 0
6, 6719, Note_on_c, 1, 81, 0
6, 6720, Note_on_c, 1, 83, 76
6, 7199, Note_on_c, 1, 83, 0
6, 7200, Note_on_c, 1, 84, 76
6, 7669, Note_on_c, 1, 84, 0
6, 7680, Note_on_c, 1, 84, 76
6, 7680, Control_c, 1, 11, 80
6, 7740, Control_c, 1, 11, 79
6, 7800, Control_c, 1, 11, 78
6, 7860, Control_c, 1, 11, 77
6, 7920, Control_c, 1, 11, 76
6, 7980, Control_c, 1, 11, 75
6, 8040, Control_c, 1, 11, 74
6, 8100, Control_c, 1, 11, 73
6, 8160, Control_c, 1, 11, 72
6, 8220, Control_c, 1, 11, 71
6, 8280, Control_c, 1, 11, 70
6, 8340, Control_c, 1, 11, 69
6, 8399, Note_on_c, 1, 84, 0
6, 8400, Control_c, 1, 11, 68
6, 8400, Note_on_c, 1, 81, 76
6, 8460, Control_c, 1, 11, 67
6, 8520, Control_c, 1, 11, 66
6, 8580, Control_c, 1, 11, 64
6, 8639, Note_on_c, 1, 81, 0
6, 8640, Note_on_c, 1, 88, 76
6, 8879, Note_on_c, 1, 88, 0
6, 12240, Control_c, 1, 11, 127
6, 12480, Note_on_c, 1, 68, 44
6, 12524, Note_on_c, 1, 68, 0
6, 12540, Note_on_c, 1, 68, 46
6, 12584, Note_on_c, 1, 68, 0
6, 12600, Note_on_c, 1, 69, 49
6, 12644, Note_on_c, 1, 69, 0
6, 12660, Note_on_c, 1, 71, 51
6, 12704, Note_on_c, 1, 71, 0
6, 12720, Note_on_c, 1, 73, 54
6, 12764, Note_on_c, 1, 73, 0
6, 12780, Note_on_c, 1, 74, 56
6, 12824, Note_on_c, 1, 74, 0
6, 12840, Note_on_c, 1, 76, 59
6, 12884, Note_on_c, 1, 76, 0
6, 12900, Note_on_c, 1, 78, 61
6, 12944, Note_on_c, 1, 78, 0
6, 12960, Note_on_c, 1, 80, 64
6, 13004, Note_on_c, 1, 80, 0
6, 13020, Note_on_c, 1, 81, 66
6, 13064, Note_on_c, 1, 81, 0
6, 13080, Note_on_c, 1, 83, 69
6, 13124, Note_on_c, 1, 83, 0
6, 13140, Note_on_c, 1, 85, 71
6, 13184, Note_on_c, 1, 85, 0
6, 13200, Note_on_c, 1, 86, 74
6, 13244, Note_on_c, 1, 86, 0
6, 13260, Note_on_c, 1, 88, 76
6, 13304, Note_on_c, 1, 88, 0
6, 13320, Note_on_c, 1, 90, 79
6, 13364, Note_on_c, 1, 90, 0
6, 13380, Note_on_c, 1, 92, 81
6, 13380, Note_on_c, 1, 88, 81
6, 13424, Note_on_c, 1, 92, 0
6, 13424, Note_on_c, 1, 88, 0
6, 13440, Note_on_c, 1, 93, 84
6, 13440, Note_on_c, 1, 88, 84
6, 14639, Note_on_c, 1, 93, 0
6, 14639, Note_on_c, 1, 88, 0
6, 15360, Note_on_c, 1, 83, 84
6, 15360, Note_on_c, 1, 88, 84
6, 16319, Note_on_c, 1, 83, 0
6, 16320, Note_on_c, 1, 85, 84
6, 16559, Note_on_c, 1, 88, 0
6, 16559, Note_on_c, 1, 85, 0
6, 17280, Note_on_c, 1, 86, 84
6, 17280, Note_on_c, 1, 93, 84
6, 18479, Note_on_c, 1, 86, 0
6, 18479, Note_on_c, 1, 93, 0
6, 19200, Note_on_c, 1, 86, 84
6, 19200, Note_on_c, 1, 91, 84
6, 20149, Note_on_c, 1, 86, 0
6, 20160, Note_on_c, 1, 88, 84
6, 20160, Control_c, 1, 11, 127
6, 20200, Control_c, 1, 11, 124
6, 20213, Note_on_c, 1, 91, 0
6, 20220, Note_on_c, 1, 72, 84
6, 20240, Control_c, 1, 11, 122
6, 20264, Note_on_c, 1, 72, 0
6, 20280, Control_c, 1, 11, 119
6, 20280, Note_on_c, 1, 74, 84
6, 20320, Control_c, 1, 11, 117
6, 20324, Note_on_c, 1, 74, 0
6, 20340, Note_on_c, 1, 76, 84
6, 20360, Control_c, 1, 11, 114
6, 20384, Note_on_c, 1, 76, 0
6, 20389, Note_on_c, 1, 88, 0
6, 20400, Note_on_c, 1, 77, 84
6, 20400, Control_c, 1, 11, 111
6, 20440, Control_c, 1, 11, 109
6, 20444, Note_on_c, 1, 77, 0
6, 20460, Note_on_c, 1, 79, 84
6, 20480, Control_c, 1, 11, 106
6, 20504, Note_on_c, 1, 79, 0
6, 20520, Note_on_c, 1, 81, 84
6, 20520, Control_c, 1, 11, 103
6, 20560, Control_c, 1, 11, 101
6, 20564, Note_on_c, 1, 81, 0
6, 20580, Note_on_c, 1, 83, 84
6, 20600, Control_c, 1, 11, 98
6, 20624, Note_on_c, 1, 83, 0
6, 20640, Note_on_c, 1, 84, 84
6, 20640, Control_c, 1, 11, 96
6, 20680, Control_c, 1, 11, 93
6, 20684, Note_on_c, 1, 84, 0
6, 20700, Note_on_c, 1, 86, 84
6, 20720, Control_c, 1, 11, 90
6, 20744, Note_on_c, 1, 86, 0
6, 20760, Note_on_c, 1, 88, 84
6, 20760, Control_c, 1, 11, 88
6, 20800, Control_c, 1, 11, 85
6, 20804, Note_on_c, 1, 88, 0
6, 20820, Note_on_c, 1, 89, 84
6, 20840, Control_c, 1, 11, 82
6, 20864, Note_on_c, 1, 89, 0
6, 20880, Control_c, 1, 11, 80
6, 20880, Note_on_c, 1, 91, 84
6, 20920, Control_c, 1, 11, 77
6, 20924, Note_on_c, 1, 91, 0
6, 20940, Note_on_c, 1, 88, 84
6, 20960, Control_c, 1, 11, 75
6, 20984, Note_on_c, 1, 88, 0
6, 21000, Note_on_c, 1, 86, 84
6, 21000, Control_c, 1, 11, 72
6, 21040, Control_c, 1, 11, 69
6, 21044, Note_on_c, 1, 86, 0
6, 21060, Note_on_c, 1, 84, 84
6, 21080, Control_c, 1, 11, 67
6, 21104, Note_on_c, 1, 84, 0
6, 21120, Note_on_c, 1, 83, 84
6, 21120, Control_c, 1, 11, 64
6, 21359, Note_on_c, 1, 83, 0
6, 29760, Note_on_c, 1, 84, 84
6, 30240, Control_c, 1, 11, 64
6, 30280, Control_c, 1, 11, 66
6, 30293, Note_on_c, 1, 84, 0
6, 30300, Note_on_c, 1, 84, 84
6, 30320, Control_c, 1, 11, 68
6, 30353, Note_on_c, 1, 84, 0
6, 30360, Note_on_c, 1, 84, 84
6, 30360, Control_c, 1, 11, 69
6, 30400, Control_c, 1, 11, 71
6, 30413, Note_on_c, 1, 84, 0
6, 30420, Note_on_c, 1, 84, 84
6, 30440, Control_c, 1, 11, 73
6, 30473, Note_on_c, 1, 84, 0
6, 30480, Note_on_c, 1, 84, 84
6, 30480, Control_c, 1, 11, 75
6, 30520, Control_c, 1, 11, 76
6, 30533, Note_on_c, 1, 84, 0
6, 30540, Note_on_c, 1, 84, 84
6, 30560, Control_c, 1, 11, 78
6, 30593, Note_on_c, 1, 84, 0
6, 30600, Control_c, 1, 11, 80
6, 30600, Note_on_c, 1, 84, 84
6, 30640, Control_c, 1, 11, 82
6, 30653, Note_on_c, 1, 84, 0
6, 30660, Note_on_c, 1, 84, 84
6, 30680, Control_c, 1, 11, 83
6, 30713, Note_on_c, 1, 84, 0
6, 30720, Note_on_c, 1, 84, 84
6, 30720, Control_c, 1, 11, 85
6, 30760, Control_c, 1, 11, 87
6, 30800, Control_c, 1, 11, 89
6, 30840, Control_c, 1, 11, 90
6, 30880, Control_c, 1, 11, 92
6, 30920, Control_c, 1, 11, 94
6, 30949, Note_on_c, 1, 84, 0
6, 30960, Control_c, 1, 11, 96
6, 30960, Note_on_c, 1, 86, 84
6, 31000, Control_c, 1, 11, 97
6, 31013, Note_on_c, 1, 86, 0
6, 31020, Note_on_c, 1, 86, 84
6, 31040, Control_c, 1, 11, 99
6, 31073, Note_on_c, 1, 86, 0
6, 31080, Control_c, 1, 11, 101
6, 31080, Note_on_c, 1, 86, 84
6, 31120, Control_c, 1, 11, 103
6, 31133, Note_on_c, 1, 86, 0
6, 31140, Note_on_c, 1, 86, 84
6, 31160, Control_c, 1, 11, 104
6, 31193, Note_on_c, 1, 86, 0
6, 31200, Control_c, 1, 11, 106
6, 31200, Note_on_c, 1, 86, 84
6, 31240, Control_c, 1, 11, 108
6, 31280, Control_c, 1, 11, 110
6, 31320, Control_c, 1, 11, 111
6, 31360, Control_c, 1, 11, 113
6, 31400, Control_c, 1, 11, 115
6, 31429, Note_on_c, 1, 86, 0
6, 31440, Note_on_c, 1, 86, 84
6, 31440, Control_c, 1, 11, 117
6, 31480, Control_c, 1, 11, 118
6, 31493, Note_on_c, 1, 86, 0
6, 31500, Note_on_c, 1, 86, 84
6, 31520, Control_c, 1, 11, 120
6, 31553, Note_on_c, 1, 86, 0
6, 31560, Note_on_c, 1, 86, 84
6, 31560, Control_c, 1, 11, 122
6, 31600, Control_c, 1, 11, 124
6, 31613, Note_on_c, 1, 86, 0
6, 31620, Note_on_c, 1, 86, 84
6, 31640, Control_c, 1, 11, 127
6, 31673, Note_on_c, 1, 86, 0
6, 31680, Note_on_c, 1, 83, 84
6, 31680, Note_on_c, 1, 88, 84
6, 32149, Note_on_c, 1, 83, 0
6, 32149, Note_on_c, 1, 88, 0
6, 32160, Note_on_c, 1, 88, 92
6, 32220, Control_c, 1, 11, 112
6, 32629, Note_on_c, 1, 88, 0
6, 32638, Control_c, 1, 11, 127
6, 32640, Note_on_c, 1, 83, 92
6, 32700, Control_c, 1, 11, 112
6, 33109, Note_on_c, 1, 83, 0
6, 33118, Control_c, 1, 11, 127
6, 33120, Note_on_c, 1, 76, 92
6, 33180, Control_c, 1, 11, 112
6, 33589, Note_on_c, 1, 76, 0
6, 33598, Control_c, 1, 11, 127
6, 33600, Note_on_c, 1, 88, 92
6, 33660, Control_c, 1, 11, 112
6, 34069, Note_on_c, 1, 88, 0
6, 34078, Control_c, 1, 11, 127
6, 34080, Note_on_c, 1, 90, 92
6, 34140, Control_c, 1, 11, 112
6, 34549, Note_on_c, 1, 90, 0
6, 34558, Control_c, 1, 11, 127
6, 34560, Note_on_c, 1, 85, 92
6, 34620, Control_c, 1, 11, 112
6, 35029, Note_on_c, 1, 85, 0
6, 35038, Control_c, 1, 11, 127
6, 35040, Note_on_c, 1, 76, 92
6, 35100, Control_c, 1, 11, 112
6, 35509, Note_on_c, 1, 76, 0
6, 35518, Control_c, 1, 11, 127
6, 35520, Note_on_c, 1, 88, 92
6, 35580, Control_c, 1, 11, 112
6, 35989, Note_on_c, 1, 88, 0
6, 35998, Control_c, 1, 11, 127
6, 36000, Note_on_c, 1, 91, 92
6, 36060, Control_c, 1, 11, 112
6, 36469, Note_on_c, 1, 91, 0
6, 36480, Note_on_c, 1, 88, 92
6, 36540, Control_c, 1, 11, 112
6, 36949, Note_on_c, 1, 88, 0
6, 36958, Control_c, 1, 11, 127
6, 36960, Note_on_c, 1, 76, 92
6, 37020, Control_c, 1, 11, 112
6, 37429, Note_on_c, 1, 76, 0
6, 37438, Control_c, 1, 11, 127
6, 37440, Note_on_c, 1, 88, 92
6, 37500, Control_c, 1, 11, 112
6, 37909, Note_on_c, 1, 88, 0
6, 37918, Control_c, 1, 11, 127
6, 37920, Note_on_c, 1, 91, 92
6, 37980, Control_c, 1, 11, 112
6, 38389, Note_on_c, 1, 91, 0
6, 38398, Control_c, 1, 11, 127
6, 38400, Note_on_c, 1, 88, 84
6, 38460, Note_on_c, 1, 72, 82
6, 38513, Note_on_c, 1, 72, 0
6, 38520, Note_on_c, 1, 74, 80
6, 38573, Note_on_c, 1, 74, 0
6, 38580, Note_on_c, 1, 76, 78
6, 38633, Note_on_c, 1, 76, 0
6, 38639, Note_on_c, 1, 88, 0
6, 38640, Note_on_c, 1, 77, 76
6, 38693, Note_on_c, 1, 77, 0
6, 38700, Note_on_c, 1, 79, 74
6, 38753, Note_on_c, 1, 79, 0
6, 38760, Note_on_c, 1, 81, 72
6, 38813, Note_on_c, 1, 81, 0
6, 38820, Note_on_c, 1, 83, 70
6, 38873, Note_on_c, 1, 83, 0
6, 38880, Note_on_c, 1, 84, 68
6, 38933, Note_on_c, 1, 84, 0
6, 38940, Note_on_c, 1, 86, 66
6, 38993, Note_on_c, 1, 86, 0
6, 39000, Note_on_c, 1, 88, 64
6, 39053, Note_on_c, 1, 88, 0
6, 39060, Note_on_c, 1, 89, 62
6, 39113, Note_on_c, 1, 89, 0
6, 39120, Note_on_c, 1, 91, 60
6, 39173, Note_on_c, 1, 91, 0
6, 39180, Note_on_c, 1, 88, 58
6, 39233, Note_on_c, 1, 88, 0
6, 39240, Note_on_c, 1, 86, 56
6, 39293, Note_on_c, 1, 86, 0
6, 39300, Note_on_c, 1, 84, 54
6, 39353, Note_on_c, 1, 84, 0
6, 39360, Note_on_c, 1, 82, 48
6, 39839, Note_on_c, 1, 82, 0
6, 39840, Note_on_c, 1, 84, 48
6, 39899, Note_on_c, 1, 84, 0
6, 39900, Note_on_c, 1, 82, 48
6, 39959, Note_on_c, 1, 82, 0
6, 39960, Note_on_c, 1, 81, 48
6, 40019, Note_on_c, 1, 81, 0
6, 40020, Note_on_c, 1, 82, 48
6, 40073, Note_on_c, 1, 82, 0
6, 40080, Note_on_c, 1, 84, 48
6, 40169, Note_on_c, 1, 84, 0
6, 40200, Note_on_c, 1, 82, 48
6, 40289, Note_on_c, 1, 82, 0
6, 40320, Note_on_c, 1, 81, 48
6, 40559, Note_on_c, 1, 81, 0
6, 40560, Note_on_c, 1, 84, 48
6, 40679, Note_on_c, 1, 84, 0
6, 40740, Note_on_c, 1, 84, 48
6, 40793, Note_on_c, 1, 84, 0
6, 40800, Note_on_c, 1, 89, 48
6, 41039, Note_on_c, 1, 89, 0
6, 41040, Note_on_c, 1, 84, 48
6, 41159, Note_on_c, 1, 84, 0
6, 41220, Note_on_c, 1, 84, 48
6, 41273, Note_on_c, 1, 84, 0
6, 41280, Note_on_c, 1, 82, 48
6, 41759, Note_on_c, 1, 82, 0
6, 41760, Note_on_c, 1, 84, 48
6, 41819, Note_on_c, 1, 84, 0
6, 41820, Note_on_c, 1, 82, 48
6, 41879, Note_on_c, 1, 82, 0
6, 41880, Note_on_c, 1, 81, 48
6, 41939, Note_on_c, 1, 81, 0
6, 41940, Note_on_c, 1, 82, 48
6, 41993, Note_on_c, 1, 82, 0
6, 42000, Note_on_c, 1, 84, 48
6, 42089, Note_on_c, 1, 84, 0
6, 42120, Note_on_c, 1, 82, 48
6, 42209, Note_on_c, 1, 82, 0
6, 42240, Note_on_c, 1, 81, 48
6, 42479, Note_on_c, 1, 81, 0
6, 42480, Note_on_c, 1, 84, 48
6, 42599, Note_on_c, 1, 84, 0
6, 42660, Note_on_c, 1, 84, 48
6, 42713, Note_on_c, 1, 84, 0
6, 42720, Note_on_c, 1, 89, 48
6, 42959, Note_on_c, 1, 89, 0
6, 42960, Note_on_c, 1, 84, 48
6, 43079, Note_on_c, 1, 84, 0
6, 43140, Note_on_c, 1, 84, 48
6, 43193, Note_on_c, 1, 84, 0
6, 43200, Note_on_c, 1, 86, 48
6, 43439, Note_on_c, 1, 86, 0
6, 43440, Note_on_c, 1, 82, 48
6, 43559, Note_on_c, 1, 82, 0
6, 43620, Note_on_c, 1, 82, 48
6, 43673, Note_on_c, 1, 82, 0
6, 43680, Note_on_c, 1, 89, 48
6, 43919, Note_on_c, 1, 89, 0
6, 43920, Note_on_c, 1, 86, 48
6, 44039, Note_on_c, 1, 86, 0
6, 44100, Note_on_c, 1, 86, 48
6, 44153, Note_on_c, 1, 86, 0
6, 44160, Note_on_c, 1, 84, 48
6, 44399, Note_on_c, 1, 84, 0
6, 44400, Note_on_c, 1, 81, 48
6, 44519, Note_on_c, 1, 81, 0
6, 44580, Note_on_c, 1, 81, 48
6, 44633, Note_on_c, 1, 81, 0
6, 44640, Note_on_c, 1, 84, 48
6, 44879, Note_on_c, 1, 84, 0
6, 44880, Note_on_c, 1, 79, 48
6, 44999, Note_on_c, 1, 79, 0
6, 45060, Note_on_c, 1, 84, 48
6, 45113, Note_on_c, 1, 84, 0
6, 45120, Note_on_c, 1, 84, 44
6, 45653, Note_on_c, 1, 84, 0
6, 45660, Note_on_c, 1, 84, 44
6, 45713, Note_on_c, 1, 84, 0
6, 45720, Note_on_c, 1, 84, 44
6, 45773, Note_on_c, 1, 84, 0
6, 45780, Note_on_c, 1, 84, 44
6, 45833, Note_on_c, 1, 84, 0
6, 45840, Note_on_c, 1, 84, 44
6, 45893, Note_on_c, 1, 84, 0
6, 45900, Note_on_c, 1, 84, 44
6, 45953, Note_on_c, 1, 84, 0
6, 45960, Note_on_c, 1, 84, 44
6, 46013, Note_on_c, 1, 84, 0
6, 46020, Note_on_c, 1, 84, 44
6, 46073, Note_on_c, 1, 84, 0
6, 46078, Control_c, 1, 11, 48
6, 46080, Note_on_c, 1, 84, 84
6, 46080, Control_c, 1, 11, 48
6, 46080, Note_on_c, 1, 81, 84
6, 46129, Control_c, 1, 11, 49
6, 46177, Control_c, 1, 11, 50
6, 46226, Control_c, 1, 11, 51
6, 46274, Control_c, 1, 11, 52
6, 46323, Control_c, 1, 11, 53
6, 46372, Control_c, 1, 11, 54
6, 46420, Control_c, 1, 11, 55
6, 46469, Control_c, 1, 11, 56
6, 46517, Control_c, 1, 11, 57
6, 46566, Control_c, 1, 11, 58
6, 46613, Note_on_c, 1, 84, 0
6, 46613, Note_on_c, 1, 81, 0
6, 46615, Control_c, 1, 11, 59
6, 46620, Note_on_c, 1, 81, 84
6, 46620, Note_on_c, 1, 84, 84
6, 46663, Control_c, 1, 11, 60
6, 46673, Note_on_c, 1, 81, 0
6, 46673, Note_on_c, 1, 84, 0
6, 46680, Note_on_c, 1, 81, 84
6, 46680, Note_on_c, 1, 84, 84
6, 46712, Control_c, 1, 11, 61
6, 46733, Note_on_c, 1, 81, 0
6, 46733, Note_on_c, 1, 84, 0
6, 46740, Note_on_c, 1, 84, 84
6, 46740, Note_on_c, 1, 81, 84
6, 46761, Control_c, 1, 11, 62
6, 46793, Note_on_c, 1, 84, 0
6, 46793, Note_on_c, 1, 81, 0
6, 46800, Note_on_c, 1, 81, 84
6, 46800, Note_on_c, 1, 84, 84
6, 46809, Control_c, 1, 11, 63
6, 46853, Note_on_c, 1, 81, 0
6, 46853, Note_on_c, 1, 84, 0
6, 46858, Control_c, 1, 11, 64
6, 46860, Note_on_c, 1, 84, 84
6, 46860, Note_on_c, 1, 81, 84
6, 46906, Control_c, 1, 11, 65
6, 46913, Note_on_c, 1, 84, 0
6, 46913, Note_on_c, 1, 81, 0
6, 46920, Note_on_c, 1, 81, 84
6, 46920, Note_on_c, 1, 84, 84
6, 46955, Control_c, 1, 11, 66
6, 46973, Note_on_c, 1, 81, 0
6, 46973, Note_on_c, 1, 84, 0
6, 46980, Note_on_c, 1, 84, 84
6, 46980, Note_on_c, 1, 81, 84
6, 47004, Control_c, 1, 11, 67
6, 47033, Note_on_c, 1, 84, 0
6, 47033, Note_on_c, 1, 81, 0
6, 47040, Note_on_c, 1, 84, 84
6, 47040, Note_on_c, 1, 81, 84
6, 47052, Control_c, 1, 11, 68
6, 47101, Control_c, 1, 11, 69
6, 47149, Control_c, 1, 11, 70
6, 47198, Control_c, 1, 11, 71
6, 47247, Control_c, 1, 11, 72
6, 47295, Control_c, 1, 11, 73
6, 47344, Control_c, 1, 11, 74
6, 47392, Control_c, 1, 11, 75
6, 47441, Control_c, 1, 11, 76
6, 47490, Control_c, 1, 11, 77
6, 47538, Control_c, 1, 11, 78
6, 47573, Note_on_c, 1, 84, 0
6, 47573, Note_on_c, 1, 81, 0
6, 47580, Note_on_c, 1, 81, 84
6, 47580, Note_on_c, 1, 84, 84
6, 47587, Control_c, 1, 11, 79
6, 47633, Note_on_c, 1, 81, 0
6, 47633, Note_on_c, 1, 84, 0
6, 47635, Control_c, 1, 11, 80
6, 47640, Note_on_c, 1, 81, 84
6, 47640, Note_on_c, 1, 84, 84
6, 47684, Control_c, 1, 11, 81
6, 47693, Note_on_c, 1, 81, 0
6, 47693, Note_on_c, 1, 84, 0
6, 47700, Note_on_c, 1, 81, 84
6, 47700, Note_on_c, 1, 84, 84
6, 47733, Control_c, 1, 11, 82
6, 47753, Note_on_c, 1, 81, 0
6, 47753, Note_on_c, 1, 84, 0
6, 47760, Note_on_c, 1, 84, 84
6, 47760, Note_on_c, 1, 81, 84
6, 47781, Control_c, 1, 11, 83
6, 47813, Note_on_c, 1, 84, 0
6, 47813, Note_on_c, 1, 81, 0
6, 47820, Note_on_c, 1, 84, 84
6, 47820, Note_on_c, 1, 81, 84
6, 47830, Control_c, 1, 11, 84
6, 47873, Note_on_c, 1, 84, 0
6, 47873, Note_on_c, 1, 81, 0
6, 47878, Control_c, 1, 11, 85
6, 47880, Note_on_c, 1, 81, 84
6, 47880, Note_on_c, 1, 84, 84
6, 47927, Control_c, 1, 11, 86
6, 47933, Note_on_c, 1, 81, 0
6, 47933, Note_on_c, 1, 84, 0
6, 47940, Note_on_c, 1, 84, 84
6, 47940, Note_on_c, 1, 81, 84
6, 47976, Control_c, 1, 11, 87
6, 47993, Note_on_c, 1, 84, 0
6, 47993, Note_on_c, 1, 81, 0
6, 48000, Note_on_c, 1, 84, 84
6, 48000, Note_on_c, 1, 81, 84
6, 48024, Control_c, 1, 11, 88
6, 48073, Control_c, 1, 11, 89
6, 48119, Note_on_c, 1, 84, 0
6, 48119, Note_on_c, 1, 81, 0
6, 48122, Control_c, 1, 11, 90
6, 48170, Control_c, 1, 11, 91
6, 48219, Control_c, 1, 11, 92
6, 48240, Note_on_c, 1, 81, 84
6, 48240, Note_on_c, 1, 84, 84
6, 48267, Control_c, 1, 11, 93
6, 48293, Note_on_c, 1, 81, 0
6, 48293, Note_on_c, 1, 84, 0
6, 48300, Note_on_c, 1, 81, 84
6, 48300, Note_on_c, 1, 84, 84
6, 48316, Control_c, 1, 11, 94
6, 48353, Note_on_c, 1, 81, 0
6, 48353, Note_on_c, 1, 84, 0
6, 48360, Note_on_c, 1, 84, 84
6, 48360, Note_on_c, 1, 81, 84
6, 48365, Control_c, 1, 11, 95
6, 48413, Note_on_c, 1, 84, 0
6, 48413, Note_on_c, 1, 81, 0
6, 48413, Control_c, 1, 11, 96
6, 48420, Note_on_c, 1, 81, 84
6, 48420, Note_on_c, 1, 84, 84
6, 48462, Control_c, 1, 11, 97
6, 48473, Note_on_c, 1, 81, 0
6, 48473, Note_on_c, 1, 84, 0
6, 48480, Note_on_c, 1, 81, 84
6, 48480, Note_on_c, 1, 84, 84
6, 48510, Control_c, 1, 11, 98
6, 48559, Control_c, 1, 11, 99
6, 48599, Note_on_c, 1, 81, 0
6, 48599, Note_on_c, 1, 84, 0
6, 48608, Control_c, 1, 11, 100
6, 48656, Control_c, 1, 11, 101
6, 48705, Control_c, 1, 11, 102
6, 48720, Note_on_c, 1, 84, 84
6, 48720, Note_on_c, 1, 81, 84
6, 48753, Control_c, 1, 11, 103
6, 48773, Note_on_c, 1, 84, 0
6, 48773, Note_on_c, 1, 81, 0
6, 48780, Note_on_c, 1, 81, 84
6, 48780, Note_on_c, 1, 84, 84
6, 48802, Control_c, 1, 11, 104
6, 48833, Note_on_c, 1, 81, 0
6, 48833, Note_on_c, 1, 84, 0
6, 48840, Note_on_c, 1, 84, 84
6, 48840, Note_on_c, 1, 81, 84
6, 48851, Control_c, 1, 11, 105
6, 48893, Note_on_c, 1, 84, 0
6, 48893, Note_on_c, 1, 81, 0
6, 48899, Control_c, 1, 11, 106
6, 48900, Note_on_c, 1, 81, 84
6, 48900, Note_on_c, 1, 84, 84
6, 48948, Control_c, 1, 11, 107
6, 48953, Note_on_c, 1, 81, 0
6, 48953, Note_on_c, 1, 84, 0
6, 48960, Note_on_c, 1, 81, 84
6, 48960, Note_on_c, 1, 84, 84
6, 48996, Control_c, 1, 11, 108
6, 49045, Control_c, 1, 11, 109
6, 49079, Note_on_c, 1, 81, 0
6, 49079, Note_on_c, 1, 84, 0
6, 49094, Control_c, 1, 11, 110
6, 49142, Control_c, 1, 11, 111
6, 49191, Control_c, 1, 11, 112
6, 49200, Note_on_c, 1, 81, 84
6, 49200, Note_on_c, 1, 84, 84
6, 49239, Control_c, 1, 11, 113
6, 49253, Note_on_c, 1, 81, 0
6, 49253, Note_on_c, 1, 84, 0
6, 49260, Note_on_c, 1, 84, 84
6, 49260, Note_on_c, 1, 81, 84
6, 49288, Control_c, 1, 11, 114
6, 49313, Note_on_c, 1, 84, 0
6, 49313, Note_on_c, 1, 81, 0
6, 49320, Note_on_c, 1, 84, 84
6, 49320, Note_on_c, 1, 81, 84
6, 49337, Control_c, 1, 11, 115
6, 49373, Note_on_c, 1, 84, 0
6, 49373, Note_on_c, 1, 81, 0
6, 49380, Note_on_c, 1, 81, 84
6, 49380, Note_on_c, 1, 84, 84
6, 49385, Control_c, 1, 11, 116
6, 49433, Note_on_c, 1, 81, 0
6, 49433, Note_on_c, 1, 84, 0
6, 49434, Control_c, 1, 11, 117
6, 49440, Note_on_c, 1, 81, 84
6, 49440, Note_on_c, 1, 84, 84
6, 49483, Control_c, 1, 11, 118
6, 49531, Control_c, 1, 11, 119
6, 49559, Note_on_c, 1, 81, 0
6, 49559, Note_on_c, 1, 84, 0
6, 49580, Control_c, 1, 11, 120
6, 49628, Control_c, 1, 11, 121
6, 49677, Control_c, 1, 11, 122
6, 49680, Note_on_c, 1, 84, 84
6, 49680, Note_on_c, 1, 81, 84
6, 49726, Control_c, 1, 11, 123
6, 49733, Note_on_c, 1, 84, 0
6, 49733, Note_on_c, 1, 81, 0
6, 49740, Note_on_c, 1, 81, 84
6, 49740, Note_on_c, 1, 84, 84
6, 49774, Control_c, 1, 11, 124
6, 49793, Note_on_c, 1, 81, 0
6, 49793, Note_on_c, 1, 84, 0
6, 49800, Note_on_c, 1, 81, 84
6, 49823, Control_c, 1, 11, 125
6, 49853, Note_on_c, 1, 81, 0
6, 49860, Note_on_c, 1, 81, 84
6, 49871, Control_c, 1, 11, 127
6, 49913, Note_on_c, 1, 81, 0
6, 49920, Note_on_c, 1, 76, 84
6, 49920, Note_on_c, 1, 88, 84
6, 50039, Note_on_c, 1, 76, 0
6, 50039, Note_on_c, 1, 88, 0
6, 50880, Note_on_c, 1, 76, 52
6, 51349, Note_on_c, 1, 76, 0
6, 51360, Note_on_c, 1, 80, 52
6, 51599, Note_on_c, 1, 80, 0
6, 51600, Note_on_c, 1, 83, 52
6, 51779, Note_on_c, 1, 83, 0
6, 51780, Note_on_c, 1, 81, 52
6, 51839, Note_on_c, 1, 81, 0
6, 51840, Note_on_c, 1, 80, 52
6, 51959, Note_on_c, 1, 80, 0
6, 52800, Note_on_c, 1, 76, 52
6, 53269, Note_on_c, 1, 76, 0
6, 53280, Note_on_c, 1, 80, 52
6, 53519, Note_on_c, 1, 80, 0
6, 53520, Note_on_c, 1, 83, 52
6, 53699, Note_on_c, 1, 83, 0
6, 53700, Note_on_c, 1, 81, 52
6, 53759, Note_on_c, 1, 81, 0
6, 53760, Note_on_c, 1, 80, 52
6, 53813, Note_on_c, 1, 80, 0
6, 53820, Note_on_c, 1, 88, 52
6, 53879, Note_on_c, 1, 88, 0
6, 53880, Note_on_c, 1, 88, 52
6, 53939, Note_on_c, 1, 88, 0
6, 53940, Note_on_c, 1, 88, 52
6, 53999, Note_on_c, 1, 88, 0
6, 54000, Note_on_c, 1, 88, 52
6, 54059, Note_on_c, 1, 88, 0
6, 54060, Note_on_c, 1, 88, 52
6, 54119, Note_on_c, 1, 88, 0
6, 54120, Note_on_c, 1, 88, 52
6, 54179, Note_on_c, 1, 88, 0
6, 54180, Note_on_c, 1, 88, 52
6, 54239, Note_on_c, 1, 88, 0
6, 54240, Note_on_c, 1, 88, 52
6, 54359, Note_on_c, 1, 88, 0
6, 54840, Note_on_c, 1, 88, 52
6, 54949, Note_on_c, 1, 88, 0
6, 54960, Note_on_c, 1, 88, 52
6, 55069, Note_on_c, 1, 88, 0
6, 55080, Note_on_c, 1, 88, 52
6, 55189, Note_on_c, 1, 88, 0
6, 55200, Note_on_c, 1, 88, 52
6, 55319, Note_on_c, 1, 88, 0
6, 56160, Note_on_c, 1, 88, 52
6, 56399, Note_on_c, 1, 88, 0
6, 57120, Note_on_c, 1, 88, 52
6, 57359, Note_on_c, 1, 88, 0
6, 57540, Note_on_c, 1, 88, 52
6, 57593, Note_on_c, 1, 88, 0
6, 57600, Note_on_c, 1, 88, 52
6, 57839, Note_on_c, 1, 88, 0
6, 58500, Note_on_c, 1, 88, 52
6, 58553, Note_on_c, 1, 88, 0
6, 58560, Note_on_c, 1, 88, 52
6, 58799, Note_on_c, 1, 88, 0
6, 59460, Note_on_c, 1, 88, 52
6, 59513, Note_on_c, 1, 88, 0
6, 59520, Note_on_c, 1, 88, 52
6, 59691, Note_on_c, 1, 88, 0
6, 59700, Note_on_c, 1, 88, 52
6, 59751, Note_on_c, 1, 88, 0
6, 59760, Note_on_c, 1, 88, 52
6, 59864, Note_on_c, 1, 88, 0
6, 59880, Note_on_c, 1, 88, 52
6, 60051, Note_on_c, 1, 88, 0
6, 60060, Note_on_c, 1, 88, 52
6, 60111, Note_on_c, 1, 88, 0
6, 60120, Note_on_c, 1, 88, 52
6, 60224, Note_on_c, 1, 88, 0
6, 60240, Note_on_c, 1, 88, 52
6, 60411, Note_on_c, 1, 88, 0
6, 60420, Note_on_c, 1, 88, 52
6, 60471, Note_on_c, 1, 88, 0
6, 60480, Note_on_c, 1, 88, 52
6, 60584, Note_on_c, 1, 88, 0
6, 60600, Note_on_c, 1, 88, 52
6, 60771, Note_on_c, 1, 88, 0
6, 60780, Note_on_c, 1, 88, 52
6, 60831, Note_on_c, 1, 88, 0
6, 60840, Note_on_c, 1, 88, 52
6, 60944, Note_on_c, 1, 88, 0
6, 60960, Note_on_c, 1, 88, 52
6, 61131, Note_on_c, 1, 88, 0
6, 61140, Note_on_c, 1, 88, 52
6, 61191, Note_on_c, 1, 88, 0
6, 61200, Note_on_c, 1, 88, 52
6, 61304, Note_on_c, 1, 88, 0
6, 61320, Note_on_c, 1, 88, 52
6, 61491, Note_on_c, 1, 88, 0
6, 61500, Note_on_c, 1, 88, 52
6, 61551, Note_on_c, 1, 88, 0
6, 61560, Note_on_c, 1, 88, 52
6, 61664, Note_on_c, 1, 88, 0
6, 61680, Note_on_c, 1, 88, 52
6, 61680, Note_on_c, 1, 85, 52
6, 61851, Note_on_c, 1, 88, 0
6, 61851, Note_on_c, 1, 85, 0
6, 61860, Note_on_c, 1, 88, 56
6, 61860, Note_on_c, 1, 85, 56
6, 61911, Note_on_c, 1, 88, 0
6, 61911, Note_on_c, 1, 85, 0
6, 61920, Note_on_c, 1, 85, 57
6, 61920, Note_on_c, 1, 88, 57
6, 62024, Note_on_c, 1, 85, 0
6, 62024, Note_on_c, 1, 88, 0
6, 62040, Note_on_c, 1, 88, 60
6, 62040, Note_on_c, 1, 85, 60
6, 62211, Note_on_c, 1, 88, 0
6, 62211, Note_on_c, 1, 85, 0
6, 62220, Note_on_c, 1, 88, 64
6, 62220, Note_on_c, 1, 85, 64
6, 62271, Note_on_c, 1, 88, 0
6, 62271, Note_on_c, 1, 85, 0
6, 62280, Note_on_c, 1, 85, 65
6, 62280, Note_on_c, 1, 88, 65
6, 62384, Note_on_c, 1, 85, 0
6, 62384, Note_on_c, 1, 88, 0
6, 62400, Note_on_c, 1, 85, 52
6, 62400, Note_on_c, 1, 88, 52
6, 62639, Note_on_c, 1, 85, 0
6, 62931, Note_on_c, 1, 88, 0
6, 62940, Note_on_c, 1, 86, 52
6, 62984, Note_on_c, 1, 86, 0
6, 63000, Note_on_c, 1, 85, 52
6, 63081, Note_on_c, 1, 85, 0
6, 63090, Note_on_c, 1, 85, 52
6, 63119, Note_on_c, 1, 85, 0
6, 63120, Note_on_c, 1, 86, 52
6, 63651, Note_on_c, 1, 86, 0
6, 63660, Note_on_c, 1, 78, 52
6, 63704, Note_on_c, 1, 78, 0
6, 63720, Note_on_c, 1, 80, 52
6, 63809, Note_on_c, 1, 80, 0
6, 63840, Note_on_c, 1, 81, 52
6, 64064, Note_on_c, 1, 81, 0
6, 64080, Note_on_c, 1, 81, 52
6, 64184, Note_on_c, 1, 81, 0
6, 64200, Note_on_c, 1, 81, 52
6, 64371, Note_on_c, 1, 81, 0
6, 64380, Note_on_c, 1, 83, 52
6, 64424, Note_on_c, 1, 83, 0
6, 64440, Note_on_c, 1, 85, 52
6, 64529, Note_on_c, 1, 85, 0
6, 64560, Note_on_c, 1, 85, 52
6, 64679, Note_on_c, 1, 85, 0
6, 64680, Note_on_c, 1, 83, 52
6, 64851, Note_on_c, 1, 83, 0
6, 64860, Note_on_c, 1, 85, 52
6, 64879, Note_on_c, 1, 85, 0
6, 64880, Note_on_c, 1, 83, 52
6, 64899, Note_on_c, 1, 83, 0
6, 64900, Note_on_c, 1, 82, 52
6, 64919, Note_on_c, 1, 82, 0
6, 64920, Note_on_c, 1, 83, 52
6, 65091, Note_on_c, 1, 83, 0
6, 65100, Note_on_c, 1, 85, 52
6, 65144, Note_on_c, 1, 85, 0
6, 65160, Note_on_c, 1, 86, 52
6, 65249, Note_on_c, 1, 86, 0
6, 65280, Note_on_c, 1, 88, 52
6, 65811, Note_on_c, 1, 88, 0
6, 65820, Note_on_c, 1, 86, 52
6, 65864, Note_on_c, 1, 86, 0
6, 65880, Note_on_c, 1, 85, 52
6, 65961, Note_on_c, 1, 85, 0
6, 65970, Note_on_c, 1, 85, 52
6, 65999, Note_on_c, 1, 85, 0
6, 66000, Note_on_c, 1, 86, 52
6, 66531, Note_on_c, 1, 86, 0
6, 66540, Note_on_c, 1, 78, 52
6, 66584, Note_on_c, 1, 78, 0
6, 66600, Note_on_c, 1, 80, 52
6, 66689, Note_on_c, 1, 80, 0
6, 66720, Note_on_c, 1, 81, 52
6, 66944, Note_on_c, 1, 81, 0
6, 66960, Note_on_c, 1, 81, 52
6, 67064, Note_on_c, 1, 81, 0
6, 67080, Note_on_c, 1, 81, 52
6, 67199, Note_on_c, 1, 81, 0
6, 67200, Note_on_c, 1, 85, 52
6, 67304, Note_on_c, 1, 85, 0
6, 67320, Note_on_c, 1, 83, 52
6, 67409, Note_on_c, 1, 83, 0
6, 67440, Note_on_c, 1, 81, 52
6, 67679, Note_on_c, 1, 81, 0
6, 68040, Note_on_c, 1, 81, 52
6, 68144, Note_on_c, 1, 81, 0
6, 68160, Note_on_c, 1, 81, 52
6, 68384, Note_on_c, 1, 81, 0
6, 68400, Note_on_c, 1, 81, 52
6, 68504, Note_on_c, 1, 81, 0
6, 68520, Note_on_c, 1, 81, 52
6, 68691, Note_on_c, 1, 81, 0
6, 68700, Note_on_c, 1, 86, 52
6, 68744, Note_on_c, 1, 86, 0
6, 68760, Note_on_c, 1, 90, 52
6, 68849, Note_on_c, 1, 90, 0
6, 68880, Note_on_c, 1, 90, 52
6, 68999, Note_on_c, 1, 90, 0
6, 69000, Note_on_c, 1, 88, 52
6, 69104, Note_on_c, 1, 88, 0
6, 69120, Note_on_c, 1, 85, 52
6, 69209, Note_on_c, 1, 85, 0
6, 69240, Note_on_c, 1, 81, 52
6, 69479, Note_on_c, 1, 81, 0
6, 70200, Note_on_c, 1, 81, 52
6, 70304, Note_on_c, 1, 81, 0
6, 70320, Note_on_c, 1, 81, 52
6, 70491, Note_on_c, 1, 81, 0
6, 70500, Note_on_c, 1, 86, 52
6, 70544, Note_on_c, 1, 86, 0
6, 70560, Note_on_c, 1, 81, 52
6, 70649, Note_on_c, 1, 81, 0
6, 70680, Note_on_c, 1, 81, 52
6, 70851, Note_on_c, 1, 81, 0
6, 70860, Note_on_c, 1, 86, 52
6, 70904, Note_on_c, 1, 86, 0
6, 70920, Note_on_c, 1, 90, 52
6, 71009, Note_on_c, 1, 90, 0
6, 71040, Note_on_c, 1, 90, 52
6, 71159, Note_on_c, 1, 90, 0
6, 71160, Note_on_c, 1, 88, 52
6, 71264, Note_on_c, 1, 88, 0
6, 71280, Note_on_c, 1, 85, 52
6, 71369, Note_on_c, 1, 85, 0
6, 71400, Note_on_c, 1, 81, 52
6, 71639, Note_on_c, 1, 81, 0
6, 72360, Note_on_c, 1, 85, 52
6, 72464, Note_on_c, 1, 85, 0
6, 72480, Note_on_c, 1, 83, 52
6, 72704, Note_on_c, 1, 83, 0
6, 72720, Note_on_c, 1, 76, 52
6, 72824, Note_on_c, 1, 76, 0
6, 72840, Note_on_c, 1, 76, 52
6, 73011, Note_on_c, 1, 76, 0
6, 73020, Note_on_c, 1, 85, 52
6, 73064, Note_on_c, 1, 85, 0
6, 73080, Note_on_c, 1, 81, 52
6, 73169, Note_on_c, 1, 81, 0
6, 73200, Control_c, 1, 11, 127
6, 73200, Note_on_c, 1, 88, 76
6, 73240, Control_c, 1, 11, 124
6, 73280, Control_c, 1, 11, 122
6, 73320, Control_c, 1, 11, 119
6, 73360, Control_c, 1, 11, 117
6, 73400, Control_c, 1, 11, 114
6, 73440, Control_c, 1, 11, 111
6, 73480, Control_c, 1, 11, 109
6, 73520, Control_c, 1, 11, 106
6, 73560, Control_c, 1, 11, 104
6, 73600, Control_c, 1, 11, 101
6, 73640, Control_c, 1, 11, 98
6, 73680, Control_c, 1, 11, 96
6, 73720, Control_c, 1, 11, 93
6, 73760, Control_c, 1, 11, 90
6, 73784, Note_on_c, 1, 88, 0
6, 73800, Control_c, 1, 11, 88
6, 73800, Note_on_c, 1, 85, 76
6, 73840, Control_c, 1, 11, 85
6, 73880, Control_c, 1, 11, 80
6, 73904, Note_on_c, 1, 85, 0
6, 73920, Note_on_c, 1, 83, 76
6, 74144, Note_on_c, 1, 83, 0
6, 74160, Note_on_c, 1, 76, 76
6, 74264, Note_on_c, 1, 76, 0
6, 74280, Note_on_c, 1, 76, 76
6, 74451, Note_on_c, 1, 76, 0
6, 74460, Note_on_c, 1, 85, 76
6, 74504, Note_on_c, 1, 85, 0
6, 74520, Note_on_c, 1, 81, 76
6, 74609, Note_on_c, 1, 81, 0
6, 74638, Control_c, 1, 11, 127
6, 74640, Note_on_c, 1, 88, 76
6, 74640, Note_on_c, 1, 76, 76
6, 75239, Note_on_c, 1, 88, 0
6, 75239, Note_on_c, 1, 76, 0
6, 75360, Note_on_c, 1, 76, 84
6, 75360, Note_on_c, 1, 88, 84
6, 75420, Control_c, 1, 11, 112
6, 75959, Note_on_c, 1, 76, 0
6, 75959, Note_on_c, 1, 88, 0
6, 76078, Control_c, 1, 11, 127
6, 76080, Note_on_c, 1, 88, 84
6, 76080, Note_on_c, 1, 76, 84
6, 76140, Control_c, 1, 11, 112
6, 76319, Note_on_c, 1, 88, 0
6, 76319, Note_on_c, 1, 76, 0
6, 76438, Control_c, 1, 11, 127
6, 76440, Note_on_c, 1, 76, 84
6, 76440, Note_on_c, 1, 88, 84
6, 76500, Control_c, 1, 11, 112
6, 76679, Note_on_c, 1, 76, 0
6, 76679, Note_on_c, 1, 88, 0
6, 76798, Control_c, 1, 11, 127
6, 76800, Note_on_c, 1, 76, 84
6, 76800, Note_on_c, 1, 88, 84
6, 76860, Control_c, 1, 11, 112
6, 77039, Note_on_c, 1, 76, 0
6, 77039, Note_on_c, 1, 88, 0
6, 77158, Control_c, 1, 11, 127
6, 77160, Note_on_c, 1, 86, 84
6, 77220, Control_c, 1, 11, 112
6, 77279, Note_on_c, 1, 86, 0
6, 77340, Note_on_c, 1, 83, 84
6, 77391, Note_on_c, 1, 83, 0
6, 77400, Note_on_c, 1, 80, 84
6, 77504, Note_on_c, 1, 80, 0
6, 77518, Control_c, 1, 11, 127
6, 77520, Note_on_c, 1, 83, 76
6, 77520, Note_on_c, 1, 86, 76
6, 77879, Note_on_c, 1, 83, 0
6, 77879, Note_on_c, 1, 86, 0
6, 78240, Note_on_c, 1, 88, 84
6, 78240, Note_on_c, 1, 85, 84
6, 78944, Note_on_c, 1, 88, 0
6, 78944, Note_on_c, 1, 85, 0
6, 78960, Note_on_c, 1, 86, 84
6, 78960, Note_on_c, 1, 90, 84
6, 79544, Note_on_c, 1, 86, 0
6, 79544, Note_on_c, 1, 90, 0
6, 79560, Note_on_c, 1, 83, 84
6, 79560, Note_on_c, 1, 92, 84
6, 79664, Note_on_c, 1, 83, 0
6, 79664, Note_on_c, 1, 92, 0
6, 79680, Note_on_c, 1, 93, 84
6, 79680, Note_on_c, 1, 85, 84
6, 80519, Note_on_c, 1, 93, 0
6, 80519, Note_on_c, 1, 85, 0
6, 80520, Note_on_c, 1, 83, 84
6, 80520, Note_on_c, 1, 92, 84
6, 80624, Note_on_c, 1, 83, 0
6, 80624, Note_on_c, 1, 92, 0
6, 80640, Note_on_c, 1, 90, 84
6, 80640, Note_on_c, 1, 81, 84
6, 80729, Note_on_c, 1, 90, 0
6, 80729, Note_on_c, 1, 81, 0
6, 80760, Note_on_c, 1, 80, 84
6, 80760, Note_on_c, 1, 88, 84
6, 80984, Note_on_c, 1, 80, 0
6, 80984, Note_on_c, 1, 88, 0
6, 81000, Note_on_c, 1, 76, 84
6, 81000, Note_on_c, 1, 88, 84
6, 81104, Note_on_c, 1, 76, 0
6, 81104, Note_on_c, 1, 88, 0
6, 81120, Note_on_c, 1, 88, 84
6, 81120, Note_on_c, 1, 85, 84
6, 81824, Note_on_c, 1, 88, 0
6, 81824, Note_on_c, 1, 85, 0
6, 81840, Note_on_c, 1, 90, 84
6, 81840, Note_on_c, 1, 86, 84
6, 82424, Note_on_c, 1, 90, 0
6, 82424, Note_on_c, 1, 86, 0
6, 82440, Note_on_c, 1, 92, 84
6, 82440, Note_on_c, 1, 83, 84
6, 82544, Note_on_c, 1, 92, 0
6, 82544, Note_on_c, 1, 83, 0
6, 82560, Note_on_c, 1, 93, 84
6, 82560, Note_on_c, 1, 85, 84
6, 82784, Note_on_c, 1, 93, 0
6, 82784, Note_on_c, 1, 85, 0
6, 82800, Note_on_c, 1, 85, 84
6, 82800, Note_on_c, 1, 93, 84
6, 82904, Note_on_c, 1, 85, 0
6, 82904, Note_on_c, 1, 93, 0
6, 82920, Note_on_c, 1, 93, 84
6, 82920, Note_on_c, 1, 85, 84
6, 83039, Note_on_c, 1, 85, 0
6, 83040, Note_on_c, 1, 81, 84
6, 83144, Note_on_c, 1, 93, 0
6, 83144, Note_on_c, 1, 81, 0
6, 83160, Note_on_c, 1, 92, 84
6, 83160, Note_on_c, 1, 83, 84
6, 83249, Note_on_c, 1, 92, 0
6, 83249, Note_on_c, 1, 83, 0
6, 83280, Note_on_c, 1, 93, 84
6, 83280, Note_on_c, 1, 85, 84
6, 83504, Note_on_c, 1, 93, 0
6, 83504, Note_on_c, 1, 85, 0
6, 83520, Note_on_c, 1, 93, 84
6, 83520, Note_on_c, 1, 81, 84
6, 83624, Note_on_c, 1, 93, 0
6, 83624, Note_on_c, 1, 81, 0
6, 83640, Note_on_c, 1, 93, 84
6, 83640, Note_on_c, 1, 81, 84
6, 83811, Note_on_c, 1, 93, 0
6, 83811, Note_on_c, 1, 81, 0
6, 83820, Note_on_c, 1, 81, 84
6, 83820, Note_on_c, 1, 93, 84
6, 83871, Note_on_c, 1, 81, 0
6, 83871, Note_on_c, 1, 93, 0
6, 83880, Note_on_c, 1, 93, 84
6, 83880, Note_on_c, 1, 81, 84
6, 83984, Note_on_c, 1, 93, 0
6, 83984, Note_on_c, 1, 81, 0
6, 84000, Note_on_c, 1, 81, 84
6, 84000, Note_on_c, 1, 93, 84
6, 84891, Note_on_c, 1, 81, 0
6, 84891, Note_on_c, 1, 93, 0
6, 84900, Note_on_c, 1, 81, 84
6, 84900, Note_on_c, 1, 93, 84
6, 84951, Note_on_c, 1, 81, 0
6, 84951, Note_on_c, 1, 93, 0
6, 84960, Note_on_c, 1, 93, 84
6, 84960, Note_on_c, 1, 81, 84
6, 85064, Note_on_c, 1, 93, 0
6, 85064, Note_on_c, 1, 81, 0
6, 85080, Note_on_c, 1, 81, 84
6, 85080, Note_on_c, 1, 93, 84
6, 85251, Note_on_c, 1, 81, 0
6, 85251, Note_on_c, 1, 93, 0
6, 85260, Note_on_c, 1, 93, 84
6, 85260, Note_on_c, 1, 81, 84
6, 85311, Note_on_c, 1, 93, 0
6, 85311, Note_on_c, 1, 81, 0
6, 85320, Note_on_c, 1, 81, 84
6, 85320, Note_on_c, 1, 93, 84
6, 85424, Note_on_c, 1, 81, 0
6, 85424, Note_on_c, 1, 93, 0
6, 85440, Note_on_c, 1, 81, 84
6, 85440, Note_on_c, 1, 93, 84
6, 86331, Note_on_c, 1, 81, 0
6, 86331, Note_on_c, 1, 93, 0
6, 86340, Note_on_c, 1, 81, 84
6, 86340, Note_on_c, 1, 93, 84
6, 86391, Note_on_c, 1, 81, 0
6, 86391, Note_on_c, 1, 93, 0
6, 86400, Note_on_c, 1, 93, 84
6, 86400, Note_on_c, 1, 81, 84
6, 86504, Note_on_c, 1, 93, 0
6, 86504, Note_on_c, 1, 81, 0
6, 86520, Note_on_c, 1, 93, 84
6, 86520, Note_on_c, 1, 81, 84
6, 86759, Note_on_c, 1, 93, 0
6, 86759, Note_on_c, 1, 81, 0
6, 87120, Note_on_c, 1, 88, 55
6, 87224, Note_on_c, 1, 88, 0
6, 87240, Note_on_c, 1, 90, 56
6, 87359, Note_on_c, 1, 90, 0
6, 87360, Note_on_c, 1, 88, 56
6, 87464, Note_on_c, 1, 88, 0
6, 87480, Note_on_c, 1, 85, 57
6, 87569, Note_on_c, 1, 85, 0
6, 87840, Note_on_c, 1, 90, 59
6, 87944, Note_on_c, 1, 90, 0
6, 87960, Note_on_c, 1, 91, 60
6, 88079, Note_on_c, 1, 91, 0
6, 88080, Note_on_c, 1, 90, 60
6, 88184, Note_on_c, 1, 90, 0
6, 88200, Note_on_c, 1, 86, 61
6, 88289, Note_on_c, 1, 86, 0
6, 88560, Note_on_c, 1, 86, 63
6, 88664, Note_on_c, 1, 86, 0
6, 88680, Note_on_c, 1, 88, 63
6, 88799, Note_on_c, 1, 88, 0
6, 88800, Note_on_c, 1, 86, 64
6, 88904, Note_on_c, 1, 86, 0
6, 88920, Note_on_c, 1, 83, 64
6, 89009, Note_on_c, 1, 83, 0
6, 89280, Note_on_c, 1, 88, 66
6, 89384, Note_on_c, 1, 88, 0
6, 89400, Note_on_c, 1, 90, 67
6, 89519, Note_on_c, 1, 90, 0
6, 89520, Note_on_c, 1, 88, 68
6, 89624, Note_on_c, 1, 88, 0
6, 89640, Note_on_c, 1, 85, 68
6, 89729, Note_on_c, 1, 85, 0
6, 90000, Note_on_c, 1, 88, 70
6, 90104, Note_on_c, 1, 88, 0
6, 90120, Note_on_c, 1, 90, 71
6, 90239, Note_on_c, 1, 90, 0
6, 90240, Note_on_c, 1, 88, 71
6, 90344, Note_on_c, 1, 88, 0
6, 90360, Note_on_c, 1, 85, 72
6, 90449, Note_on_c, 1, 85, 0
6, 90480, Note_on_c, 1, 91, 72
6, 90599, Note_on_c, 1, 91, 0
6, 90600, Note_on_c, 1, 90, 73
6, 90704, Note_on_c, 1, 90, 0
6, 90720, Note_on_c, 1, 86, 74
6, 90809, Note_on_c, 1, 86, 0
6, 90840, Note_on_c, 1, 91, 74
6, 90959, Note_on_c, 1, 91, 0
6, 90960, Note_on_c, 1, 90, 75
6, 91064, Note_on_c, 1, 90, 0
6, 91080, Note_on_c, 1, 86, 76
6, 91169, Note_on_c, 1, 86, 0
6, 91200, Note_on_c, 1, 85, 76
6, 91319, Note_on_c, 1, 85, 0
6, 91320, Note_on_c, 1, 83, 77
6, 91424, Note_on_c, 1, 83, 0
6, 91440, Note_on_c, 1, 80, 77
6, 91529, Note_on_c, 1, 80, 0
6, 91560, Note_on_c, 1, 85, 78
6, 91679, Note_on_c, 1, 85, 0
6, 91680, Note_on_c, 1, 83, 79
6, 91784, Note_on_c, 1, 83, 0
6, 91800, Note_on_c, 1, 80, 79
6, 91889, Note_on_c, 1, 80, 0
6, 91920, Note_on_c, 1, 86, 80
6, 92039, Note_on_c, 1, 86, 0
6, 92040, Note_on_c, 1, 85, 80
6, 92144, Note_on_c, 1, 85, 0
6, 92160, Note_on_c, 1, 81, 81
6, 92249, Note_on_c, 1, 81, 0
6, 92280, Note_on_c, 1, 86, 82
6, 92399, Note_on_c, 1, 86, 0
6, 92400, Note_on_c, 1, 85, 82
6, 92504, Note_on_c, 1, 85, 0
6, 92520, Note_on_c, 1, 81, 83
6, 92609, Note_on_c, 1, 81, 0
6, 92640, Note_on_c, 1, 88, 84
6, 92640, Note_on_c, 1, 82, 84
6, 93344, Note_on_c, 1, 88, 0
6, 93344, Note_on_c, 1, 82, 0
6, 93360, Note_on_c, 1, 87, 84
6, 93360, Note_on_c, 1, 83, 84
6, 93824, Note_on_c, 1, 87, 0
6, 93824, Note_on_c, 1, 83, 0
6, 93840, Note_on_c, 1, 87, 52
6, 93944, Note_on_c, 1, 87, 0
6, 93960, Note_on_c, 1, 87, 52
6, 94064, Note_on_c, 1, 87, 0
6, 94080, Note_on_c, 1, 85, 52
6, 94199, Note_on_c, 1, 85, 0
6, 94320, Note_on_c, 1, 85, 52
6, 94424, Note_on_c, 1, 85, 0
6, 94440, Note_on_c, 1, 85, 52
6, 94559, Note_on_c, 1, 85, 0
6, 94680, Note_on_c, 1, 85, 52
6, 94784, Note_on_c, 1, 85, 0
6, 94800, Note_on_c, 1, 84, 52
6, 95039, Note_on_c, 1, 84, 0
6, 96840, Control_c, 1, 11, 80
6, 96960, Note_on_c, 1, 88, 76
6, 96960, Control_c, 1, 11, 80
6, 96960, Note_on_c, 1, 80, 76
6, 97000, Control_c, 1, 11, 83
6, 97040, Control_c, 1, 11, 85
6, 97080, Control_c, 1, 11, 88
6, 97120, Control_c, 1, 11, 90
6, 97160, Control_c, 1, 11, 93
6, 97200, Control_c, 1, 11, 96
6, 97240, Control_c, 1, 11, 98
6, 97280, Control_c, 1, 11, 101
6, 97319, Note_on_c, 1, 88, 0
6, 97320, Control_c, 1, 11, 104
6, 97320, Note_on_c, 1, 85, 76
6, 97360, Control_c, 1, 11, 106
6, 97400, Control_c, 1, 11, 109
6, 97440, Control_c, 1, 11, 111
6, 97480, Control_c, 1, 11, 114
6, 97520, Control_c, 1, 11, 117
6, 97560, Control_c, 1, 11, 119
6, 97600, Control_c, 1, 11, 122
6, 97640, Control_c, 1, 11, 127
6, 97664, Note_on_c, 1, 80, 0
6, 97664, Note_on_c, 1, 85, 0
6, 97680, Note_on_c, 1, 82, 76
6, 97680, Note_on_c, 1, 79, 76
6, 97904, Note_on_c, 1, 82, 0
6, 97904, Note_on_c, 1, 79, 0
6, 97920, Note_on_c, 1, 75, 52
6, 98024, Note_on_c, 1, 75, 0
6, 98040, Note_on_c, 1, 75, 52
6, 98174, Note_on_c, 1, 75, 0
6, 98220, Note_on_c, 1, 79, 52
6, 98264, Note_on_c, 1, 79, 0
6, 98280, Note_on_c, 1, 82, 52
6, 98369, Note_on_c, 1, 82, 0
6, 98400, Note_on_c, 1, 83, 52
6, 98579, Note_on_c, 1, 83, 0
6, 98640, Note_on_c, 1, 83, 52
6, 98744, Note_on_c, 1, 83, 0
6, 98760, Note_on_c, 1, 83, 52
6, 98894, Note_on_c, 1, 83, 0
6, 98940, Note_on_c, 1, 82, 52
6, 98984, Note_on_c, 1, 82, 0
6, 99000, Note_on_c, 1, 80, 52
6, 99089, Note_on_c, 1, 80, 0
6, 99120, Note_on_c, 1, 79, 52
6, 99359, Note_on_c, 1, 79, 0
6, 99600, Control_c, 1, 11, 80
6, 99720, Note_on_c, 1, 82, 76
6, 99839, Note_on_c, 1, 82, 0
6, 99840, Note_on_c, 1, 83, 76
6, 99840, Control_c, 1, 11, 80
6, 99880, Control_c, 1, 11, 83
6, 99920, Control_c, 1, 11, 85
6, 99960, Control_c, 1, 11, 88
6, 100000, Control_c, 1, 11, 90
6, 100040, Control_c, 1, 11, 93
6, 100064, Note_on_c, 1, 83, 0
6, 100080, Control_c, 1, 11, 96
6, 100080, Note_on_c, 1, 83, 76
6, 100120, Control_c, 1, 11, 98
6, 100160, Control_c, 1, 11, 101
6, 100184, Note_on_c, 1, 83, 0
6, 100200, Control_c, 1, 11, 104
6, 100200, Note_on_c, 1, 88, 76
6, 100200, Note_on_c, 1, 83, 76
6, 100240, Control_c, 1, 11, 106
6, 100280, Control_c, 1, 11, 109
6, 100320, Control_c, 1, 11, 111
6, 100360, Control_c, 1, 11, 114
6, 100400, Control_c, 1, 11, 117
6, 100424, Note_on_c, 1, 88, 0
6, 100424, Note_on_c, 1, 83, 0
6, 100440, Control_c, 1, 11, 119
6, 100440, Note_on_c, 1, 88, 76
6, 100440, Note_on_c, 1, 83, 76
6, 100480, Control_c, 1, 11, 122
6, 100520, Control_c, 1, 11, 127
6, 100544, Note_on_c, 1, 88, 0
6, 100544, Note_on_c, 1, 83, 0
6, 100560, Note_on_c, 1, 88, 76
6, 100560, Note_on_c, 1, 83, 76
6, 100679, Note_on_c, 1, 88, 0
6, 100680, Note_on_c, 1, 87, 76
6, 101144, Note_on_c, 1, 87, 0
6, 101160, Note_on_c, 1, 81, 76
6, 101264, Note_on_c, 1, 81, 0
6, 101280, Note_on_c, 1, 80, 76
6, 101504, Note_on_c, 1, 83, 0
6, 101504, Note_on_c, 1, 80, 0
6, 101520, Note_on_c, 1, 80, 76
6, 101520, Note_on_c, 1, 83, 76
6, 101624, Note_on_c, 1, 80, 0
6, 101624, Note_on_c, 1, 83, 0
6, 101640, Note_on_c, 1, 83, 76
6, 101640, Note_on_c, 1, 85, 76
6, 101864, Note_on_c, 1, 83, 0
6, 101864, Note_on_c, 1, 85, 0
6, 101880, Note_on_c, 1, 85, 76
6, 101880, Note_on_c, 1, 83, 76
6, 101984, Note_on_c, 1, 85, 0
6, 101984, Note_on_c, 1, 83, 0
6, 102000, Note_on_c, 1, 83, 76
6, 102000, Note_on_c, 1, 85, 76
6, 102119, Note_on_c, 1, 85, 0
6, 102600, Note_on_c, 1, 78, 76
6, 102704, Note_on_c, 1, 78, 0
6, 102720, Note_on_c, 1, 76, 76
6, 102839, Note_on_c, 1, 83, 0
6, 102840, Note_on_c, 1, 81, 76
6, 102944, Note_on_c, 1, 76, 0
6, 102944, Note_on_c, 1, 81, 0
6, 102960, Note_on_c, 1, 88, 76
6, 103064, Note_on_c, 1, 88, 0
6, 103080, Note_on_c, 1, 88, 76
6, 103080, Note_on_c, 1, 93, 76
6, 103304, Note_on_c, 1, 88, 0
6, 103304, Note_on_c, 1, 93, 0
6, 103320, Note_on_c, 1, 88, 76
6, 103320, Note_on_c, 1, 93, 76
6, 103424, Note_on_c, 1, 88, 0
6, 103424, Note_on_c, 1, 93, 0
6, 103440, Note_on_c, 1, 90, 76
6, 103440, Note_on_c, 1, 93, 76
6, 103544, Note_on_c, 1, 90, 0
6, 103544, Note_on_c, 1, 93, 0
6, 103560, Note_on_c, 1, 90, 76
6, 103560, Note_on_c, 1, 93, 76
6, 103679, Note_on_c, 1, 90, 0
6, 103679, Note_on_c, 1, 93, 0
6, 103800, Note_on_c, 1, 90, 76
6, 103800, Note_on_c, 1, 93, 76
6, 103904, Note_on_c, 1, 90, 0
6, 103904, Note_on_c, 1, 93, 0
6, 103920, Note_on_c, 1, 90, 76
6, 103920, Note_on_c, 1, 93, 76
6, 104039, Note_on_c, 1, 90, 0
6, 104039, Note_on_c, 1, 93, 0
6, 104160, Note_on_c, 1, 88, 76
6, 104160, Note_on_c, 1, 92, 76
6, 104264, Note_on_c, 1, 88, 0
6, 104264, Note_on_c, 1, 92, 0
6, 104280, Note_on_c, 1, 92, 76
6, 104280, Note_on_c, 1, 88, 76
6, 104399, Note_on_c, 1, 92, 0
6, 104399, Note_on_c, 1, 88, 0
6, 104520, Note_on_c, 1, 88, 76
6, 104520, Note_on_c, 1, 92, 76
6, 104624, Note_on_c, 1, 88, 0
6, 104624, Note_on_c, 1, 92, 0
6, 104640, Note_on_c, 1, 88, 76
6, 104640, Note_on_c, 1, 92, 76
6, 104759, Note_on_c, 1, 88, 0
6, 104759, Note_on_c, 1, 92, 0
6, 104880, Note_on_c, 1, 93, 76
6, 104880, Note_on_c, 1, 90, 76
6, 104984, Note_on_c, 1, 93, 0
6, 104984, Note_on_c, 1, 90, 0
6, 105000, Note_on_c, 1, 93, 76
6, 105000, Note_on_c, 1, 90, 76
6, 105119, Note_on_c, 1, 93, 0
6, 105119, Note_on_c, 1, 90, 0
6, 105240, Note_on_c, 1, 93, 76
6, 105240, Note_on_c, 1, 90, 76
6, 105344, Note_on_c, 1, 93, 0
6, 105344, Note_on_c, 1, 90, 0
6, 105360, Note_on_c, 1, 90, 76
6, 105360, Note_on_c, 1, 93, 76
6, 105479, Note_on_c, 1, 90, 0
6, 105479, Note_on_c, 1, 93, 0
6, 105600, Note_on_c, 1, 92, 76
6, 105600, Note_on_c, 1, 88, 76
6, 105704, Note_on_c, 1, 92, 0
6, 105704, Note_on_c, 1, 88, 0
6, 105720, Note_on_c, 1, 92, 76
6, 105720, Note_on_c, 1, 88, 76
6, 105839, Note_on_c, 1, 92, 0
6, 105839, Note_on_c, 1, 88, 0
6, 105960, Note_on_c, 1, 92, 76
6, 105960, Note_on_c, 1, 88, 76
6, 106064, Note_on_c, 1, 92, 0
6, 106064, Note_on_c, 1, 88, 0
6, 106080, Note_on_c, 1, 88, 76
6, 106080, Note_on_c, 1, 92, 76
6, 106199, Note_on_c, 1, 88, 0
6, 106199, Note_on_c, 1, 92, 0
6, 109560, Note_on_c, 1, 88, 48
6, 109731, Note_on_c, 1, 88, 0
6, 109740, Note_on_c, 1, 83, 48
6, 109791, Note_on_c, 1, 83, 0
6, 109800, Note_on_c, 1, 83, 48
6, 109904, Note_on_c, 1, 83, 0
6, 109920, Note_on_c, 1, 83, 48
6, 110091, Note_on_c, 1, 83, 0
6, 110100, Note_on_c, 1, 80, 48
6, 110151, Note_on_c, 1, 80, 0
6, 110160, Note_on_c, 1, 80, 48
6, 110264, Note_on_c, 1, 80, 0
6, 110280, Note_on_c, 1, 80, 48
6, 110399, Note_on_c, 1, 80, 0
6, 110400, Note_on_c, 1, 81, 48
6, 110504, Note_on_c, 1, 81, 0
6, 110520, Note_on_c, 1, 78, 48
6, 110609, Note_on_c, 1, 78, 0
6, 110640, Note_on_c, 1, 76, 76
6, 110744, Note_on_c, 1, 76, 0
6, 110760, Note_on_c, 1, 88, 76
6, 110760, Note_on_c, 1, 76, 76
6, 110864, Note_on_c, 1, 88, 0
6, 110864, Note_on_c, 1, 76, 0
6, 110880, Note_on_c, 1, 88, 76
6, 110880, Note_on_c, 1, 76, 76
6, 110984, Note_on_c, 1, 88, 0
6, 110984, Note_on_c, 1, 76, 0
6, 111000, Note_on_c, 1, 88, 76
6, 111000, Note_on_c, 1, 76, 76
6, 111104, Note_on_c, 1, 88, 0
6, 111104, Note_on_c, 1, 76, 0
6, 111120, Note_on_c, 1, 88, 76
6, 111120, Note_on_c, 1, 76, 76
6, 111224, Note_on_c, 1, 88, 0
6, 111224, Note_on_c, 1, 76, 0
6, 111240, Note_on_c, 1, 76, 76
6, 111240, Note_on_c, 1, 88, 76
6, 111344, Note_on_c, 1, 76, 0
6, 111344, Note_on_c, 1, 88, 0
6, 111360, Note_on_c, 1, 76, 76
6, 111360, Note_on_c, 1, 88, 76
6, 111464, Note_on_c, 1, 76, 0
6, 111464, Note_on_c, 1, 88, 0
6, 111480, Note_on_c, 1, 88, 76
6, 111480, Note_on_c, 1, 76, 76
6, 111584, Note_on_c, 1, 88, 0
6, 111584, Note_on_c, 1, 76, 0
6, 111600, Note_on_c, 1, 88, 76
6, 111600, Note_on_c, 1, 76, 76
6, 111704, Note_on_c, 1, 88, 0
6, 111704, Note_on_c, 1, 76, 0
6, 111720, Note_on_c, 1, 91, 76
6, 111720, Note_on_c, 1, 79, 76
6, 111824, Note_on_c, 1, 91, 0
6, 111824, Note_on_c, 1, 79, 0
6, 111840, Note_on_c, 1, 91, 76
6, 111840, Note_on_c, 1, 79, 76
6, 111944, Note_on_c, 1, 91, 0
6, 111944, Note_on_c, 1, 79, 0
6, 111960, Note_on_c, 1, 79, 76
6, 111960, Note_on_c, 1, 91, 76
6, 112064, Note_on_c, 1, 79, 0
6, 112064, Note_on_c, 1, 91, 0
6, 112080, Note_on_c, 1, 84, 76
6, 112319, Note_on_c, 1, 84, 0
6, 122400, Note_on_c, 1, 85, 68
6, 122459, Note_on_c, 1, 85, 0
6, 122460, Note_on_c, 1, 87, 69
6, 122519, Note_on_c, 1, 87, 0
6, 122520, Note_on_c, 1, 88, 70
6, 122699, Note_on_c, 1, 88, 0
6, 123120, Note_on_c, 1, 87, 77
6, 123179, Note_on_c, 1, 87, 0
6, 123180, Note_on_c, 1, 88, 78
6, 123239, Note_on_c, 1, 88, 0
6, 123240, Note_on_c, 1, 90, 79
6, 123419, Note_on_c, 1, 90, 0
6, 123480, Note_on_c, 1, 88, 82
6, 123539, Note_on_c, 1, 88, 0
6, 123540, Note_on_c, 1, 90, 83
6, 123599, Note_on_c, 1, 90, 0
6, 123600, Note_on_c, 1, 92, 84
6, 123600, Note_on_c, 1, 88, 84
6, 124664, Note_on_c, 1, 92, 0
6, 124664, Note_on_c, 1, 88, 0
6, 124680, Note_on_c, 1, 92, 84
6, 124680, Note_on_c, 1, 88, 84
6, 124851, Note_on_c, 1, 92, 0
6, 124851, Note_on_c, 1, 88, 0
6, 124860, Note_on_c, 1, 92, 84
6, 124860, Note_on_c, 1, 88, 84
6, 124911, Note_on_c, 1, 92, 0
6, 124911, Note_on_c, 1, 88, 0
6, 124920, Note_on_c, 1, 88, 84
6, 124920, Note_on_c, 1, 92, 84
6, 125024, Note_on_c, 1, 88, 0
6, 125024, Note_on_c, 1, 92, 0
6, 125040, Note_on_c, 1, 88, 84
6, 125040, Note_on_c, 1, 90, 84
6, 126104, Note_on_c, 1, 88, 0
6, 126104, Note_on_c, 1, 90, 0
6, 126120, Note_on_c, 1, 88, 84
6, 126120, Note_on_c, 1, 90, 84
6, 126291, Note_on_c, 1, 88, 0
6, 126291, Note_on_c, 1, 90, 0
6, 126300, Note_on_c, 1, 88, 84
6, 126300, Note_on_c, 1, 90, 84
6, 126351, Note_on_c, 1, 88, 0
6, 126351, Note_on_c, 1, 90, 0
6, 126360, Note_on_c, 1, 90, 84
6, 126360, Note_on_c, 1, 88, 84
6, 126464, Note_on_c, 1, 90, 0
6, 126464, Note_on_c, 1, 88, 0
6, 126478, Control_c, 1, 11, 48
6, 126480, Note_on_c, 1, 89, 84
6, 126839, Note_on_c, 1, 89, 0
6, 126840, Note_on_c, 1, 84, 84
6, 127199, Note_on_c, 1, 84, 0
6, 127200, Control_c, 1, 11, 48
6, 127200, Note_on_c, 1, 75, 84
6, 127240, Control_c, 1, 11, 52
6, 127280, Control_c, 1, 11, 57
6, 127320, Control_c, 1, 11, 61
6, 127360, Control_c, 1, 11, 66
6, 127400, Control_c, 1, 11, 70
6, 127440, Control_c, 1, 11, 74
6, 127480, Control_c, 1, 11, 79
6, 127520, Control_c, 1, 11, 83
6, 127544, Note_on_c, 1, 75, 0
6, 127560, Control_c, 1, 11, 88
6, 127560, Note_on_c, 1, 83, 84
6, 127600, Control_c, 1, 11, 92
6, 127640, Control_c, 1, 11, 96
6, 127664, Note_on_c, 1, 83, 0
6, 127680, Note_on_c, 1, 85, 84
6, 127680, Control_c, 1, 11, 101
6, 127720, Control_c, 1, 11, 105
6, 127731, Note_on_c, 1, 85, 0
6, 127740, Note_on_c, 1, 87, 84
6, 127760, Control_c, 1, 11, 109
6, 127791, Note_on_c, 1, 87, 0
6, 127800, Note_on_c, 1, 88, 84
6, 127800, Control_c, 1, 11, 114
6, 127840, Control_c, 1, 11, 118
6, 127851, Note_on_c, 1, 88, 0
6, 127860, Note_on_c, 1, 90, 84
6, 127880, Control_c, 1, 11, 127
6, 127911, Note_on_c, 1, 90, 0
6, 127920, Note_on_c, 1, 92, 84
6, 127920, Note_on_c, 1, 88, 84
6, 128984, Note_on_c, 1, 92, 0
6, 128984, Note_on_c, 1, 88, 0
6, 129000, Note_on_c, 1, 92, 84
6, 129000, Note_on_c, 1, 88, 84
6, 129171, Note_on_c, 1, 92, 0
6, 129171, Note_on_c, 1, 88, 0
6, 129180, Note_on_c, 1, 92, 84
6, 129180, Note_on_c, 1, 88, 84
6, 129231, Note_on_c, 1, 92, 0
6, 129231, Note_on_c, 1, 88, 0
6, 129240, Note_on_c, 1, 92, 84
6, 129240, Note_on_c, 1, 88, 84
6, 129344, Note_on_c, 1, 92, 0
6, 129344, Note_on_c, 1, 88, 0
6, 129360, Note_on_c, 1, 88, 84
6, 129360, Note_on_c, 1, 90, 84
6, 130424, Note_on_c, 1, 88, 0
6, 130424, Note_on_c, 1, 90, 0
6, 130440, Note_on_c, 1, 88, 84
6, 130440, Note_on_c, 1, 90, 84
6, 130611, Note_on_c, 1, 88, 0
6, 130611, Note_on_c, 1, 90, 0
6, 130620, Note_on_c, 1, 90, 84
6, 130620, Note_on_c, 1, 88, 84
6, 130671, Note_on_c, 1, 90, 0
6, 130671, Note_on_c, 1, 88, 0
6, 130680, Note_on_c, 1, 88, 84
6, 130680, Note_on_c, 1, 90, 84
6, 130784, Note_on_c, 1, 88, 0
6, 130784, Note_on_c, 1, 90, 0
6, 130800, Control_c, 1, 11, 48
6, 131160, Note_on_c, 1, 89, 84
6, 131519, Note_on_c, 1, 89, 0
6, 131520, Note_on_c, 1, 87, 84
6, 131520, Control_c, 1, 11, 48
6, 131560, Control_c, 1, 11, 52
6, 131600, Control_c, 1, 11, 57
6, 131640, Control_c, 1, 11, 61
6, 131680, Control_c, 1, 11, 66
6, 131720, Control_c, 1, 11, 70
6, 131760, Control_c, 1, 11, 74
6, 131800, Control_c, 1, 11, 79
6, 131840, Control_c, 1, 11, 83
6, 131880, Control_c, 1, 11, 88
6, 131920, Control_c, 1, 11, 92
6, 131960, Control_c, 1, 11, 96
6, 132000, Control_c, 1, 11, 101
6, 132040, Control_c, 1, 11, 105
6, 132080, Control_c, 1, 11, 109
6, 132104, Note_on_c, 1, 87, 0
6, 132120, Note_on_c, 1, 83, 84
6, 132120, Control_c, 1, 11, 114
6, 132160, Control_c, 1, 11, 118
6, 132200, Control_c, 1, 11, 123
6, 132209, Note_on_c, 1, 83, 0
6, 132238, Control_c, 1, 11, 127
6, 132240, Note_on_c, 1, 83, 84
6, 132771, Note_on_c, 1, 83, 0
6, 132780, Note_on_c, 1, 93, 84
6, 132780, Note_on_c, 1, 81, 84
6, 132831, Note_on_c, 1, 93, 0
6, 132831, Note_on_c, 1, 81, 0
6, 132840, Note_on_c, 1, 80, 84
6, 132840, Note_on_c, 1, 92, 84
6, 132921, Note_on_c, 1, 80, 0
6, 132921, Note_on_c, 1, 92, 0
6, 132930, Note_on_c, 1, 80, 84
6, 132930, Note_on_c, 1, 92, 84
6, 132959, Note_on_c, 1, 80, 0
6, 132959, Note_on_c, 1, 92, 0
6, 132960, Note_on_c, 1, 81, 92
6, 132960, Note_on_c, 1, 93, 92
6, 133020, Control_c, 1, 11, 112
6, 133491, Note_on_c, 1, 81, 0
6, 133491, Note_on_c, 1, 93, 0
6, 133500, Note_on_c, 1, 81, 92
6, 133500, Note_on_c, 1, 85, 92
6, 133551, Note_on_c, 1, 81, 0
6, 133551, Note_on_c, 1, 85, 0
6, 133560, Note_on_c, 1, 83, 92
6, 133560, Note_on_c, 1, 87, 92
6, 133664, Note_on_c, 1, 83, 0
6, 133664, Note_on_c, 1, 87, 0
6, 133680, Note_on_c, 1, 83, 92
6, 133680, Note_on_c, 1, 88, 92
6, 133919, Note_on_c, 1, 83, 0
6, 133919, Note_on_c, 1, 88, 0
6, 134038, Control_c, 1, 11, 127
6, 134040, Note_on_c, 1, 92, 84
6, 134040, Note_on_c, 1, 83, 84
6, 134279, Note_on_c, 1, 92, 0
6, 134279, Note_on_c, 1, 83, 0
6, 134400, Note_on_c, 1, 83, 84
6, 134639, Note_on_c, 1, 83, 0
6, 134940, Note_on_c, 1, 83, 84
6, 134991, Note_on_c, 1, 83, 0
6, 135000, Note_on_c, 1, 83, 84
6, 135104, Note_on_c, 1, 83, 0
6, 135120, Note_on_c, 1, 83, 92
6, 135180, Control_c, 1, 11, 112
6, 135344, Note_on_c, 1, 83, 0
6, 135360, Note_on_c, 1, 80, 92
6, 135360, Note_on_c, 1, 92, 92
6, 135441, Note_on_c, 1, 80, 0
6, 135441, Note_on_c, 1, 92, 0
6, 135450, Note_on_c, 1, 92, 92
6, 135450, Note_on_c, 1, 80, 92
6, 135479, Note_on_c, 1, 92, 0
6, 135479, Note_on_c, 1, 80, 0
6, 135480, Note_on_c, 1, 81, 92
6, 135480, Note_on_c, 1, 93, 92
6, 135651, Note_on_c, 1, 81, 0
6, 135651, Note_on_c, 1, 93, 0
6, 135660, Note_on_c, 1, 85, 92
6, 135660, Note_on_c, 1, 81, 92
6, 135711, Note_on_c, 1, 85, 0
6, 135711, Note_on_c, 1, 81, 0
6, 135720, Note_on_c, 1, 87, 92
6, 135720, Note_on_c, 1, 83, 92
6, 135824, Note_on_c, 1, 87, 0
6, 135824, Note_on_c, 1, 83, 0
6, 135840, Note_on_c, 1, 83, 92
6, 135840, Note_on_c, 1, 88, 92
6, 136079, Note_on_c, 1, 83, 0
6, 136079, Note_on_c, 1, 88, 0
6, 136380, Note_on_c, 1, 83, 92
6, 136431, Note_on_c, 1, 83, 0
6, 136440, Note_on_c, 1, 83, 92
6, 136544, Note_on_c, 1, 83, 0
6, 136558, Control_c, 1, 11, 127
6, 136560, Note_on_c, 1, 83, 92
6, 136620, Control_c, 1, 11, 112
6, 136784, Note_on_c, 1, 83, 0
6, 136800, Note_on_c, 1, 92, 92
6, 136800, Note_on_c, 1, 80, 92
6, 136881, Note_on_c, 1, 92, 0
6, 136881, Note_on_c, 1, 80, 0
6, 136890, Note_on_c, 1, 92, 92
6, 136890, Note_on_c, 1, 80, 92
6, 136919, Note_on_c, 1, 92, 0
6, 136919, Note_on_c, 1, 80, 0
6, 136920, Note_on_c, 1, 93, 92
6, 136920, Note_on_c, 1, 81, 92
6, 137091, Note_on_c, 1, 93, 0
6, 137091, Note_on_c, 1, 81, 0
6, 137100, Note_on_c, 1, 85, 92
6, 137100, Note_on_c, 1, 81, 92
6, 137151, Note_on_c, 1, 85, 0
6, 137151, Note_on_c, 1, 81, 0
6, 137160, Note_on_c, 1, 87, 92
6, 137160, Note_on_c, 1, 83, 92
6, 137264, Note_on_c, 1, 87, 0
6, 137264, Note_on_c, 1, 83, 0
6, 137278, Control_c, 1, 11, 127
6, 137280, Note_on_c, 1, 88, 84
6, 137399, Note_on_c, 1, 88, 0
6, 137520, Note_on_c, 1, 88, 84
6, 137639, Note_on_c, 1, 88, 0
6, 137880, Note_on_c, 1, 88, 84
6, 137999, Note_on_c, 1, 88, 0
6, 138240, Note_on_c, 1, 88, 84
6, 138359, Note_on_c, 1, 88, 0
6, 138600, Note_on_c, 1, 88, 84
6, 138719, Note_on_c, 1, 88, 0
6, 138960, Note_on_c, 1, 88, 84
6, 139079, Note_on_c, 1, 88, 0
6, 139320, Note_on_c, 1, 88, 84
6, 139439, Note_on_c, 1, 88, 0
6, 139680, Note_on_c, 1, 88, 84
6, 139799, Note_on_c, 1, 88, 0
6, 140040, Note_on_c, 1, 88, 84
6, 140159, Note_on_c, 1, 88, 0
6, 141600, Note_on_c, 1, 88, 52
6, 141771, Note_on_c, 1, 88, 0
6, 141780, Note_on_c, 1, 88, 52
6, 141831, Note_on_c, 1, 88, 0
6, 141840, Note_on_c, 1, 88, 52
6, 141944, Note_on_c, 1, 88, 0
6, 141960, Note_on_c, 1, 88, 52
6, 142131, Note_on_c, 1, 88, 0
6, 142140, Note_on_c, 1, 88, 52
6, 142191, Note_on_c, 1, 88, 0
6, 142200, Note_on_c, 1, 88, 52
6, 142304, Note_on_c, 1, 88, 0
6, 142320, Note_on_c, 1, 88, 52
6, 142491, Note_on_c, 1, 88, 0
6, 142500, Note_on_c, 1, 88, 52
6, 142551, Note_on_c, 1, 88, 0
6, 142560, Note_on_c, 1, 88, 52
6, 142664, Note_on_c, 1, 88, 0
6, 142680, Note_on_c, 1, 88, 52
6, 142851, Note_on_c, 1, 88, 0
6, 142860, Note_on_c, 1, 88, 52
6, 142911, Note_on_c, 1, 88, 0
6, 142920, Note_on_c, 1, 88, 52
6, 143024, Note_on_c, 1, 88, 0
6, 143040, Note_on_c, 1, 88, 52
6, 143211, Note_on_c, 1, 88, 0
6, 143220, Note_on_c, 1, 88, 52
6, 143271, Note_on_c, 1, 88, 0
6, 143280, Note_on_c, 1, 88, 52
6, 143384, Note_on_c, 1, 88, 0
6, 143400, Note_on_c, 1, 88, 52
6, 143571, Note_on_c, 1, 88, 0
6, 143580, Note_on_c, 1, 88, 52
6, 143631, Note_on_c, 1, 88, 0
6, 143640, Note_on_c, 1, 88, 52
6, 143744, Note_on_c, 1, 88, 0
6, 143760, Note_on_c, 1, 88, 52
6, 143760, Note_on_c, 1, 85, 52
6, 143931, Note_on_c, 1, 88, 0
6, 143931, Note_on_c, 1, 85, 0
6, 143940, Note_on_c, 1, 88, 56
6, 143940, Note_on_c, 1, 85, 56
6, 143991, Note_on_c, 1, 88, 0
6, 143991, Note_on_c, 1, 85, 0
6, 144000, Note_on_c, 1, 85, 57
6, 144000, Note_on_c, 1, 88, 57
6, 144104, Note_on_c, 1, 85, 0
6, 144104, Note_on_c, 1, 88, 0
6, 144120, Note_on_c, 1, 88, 60
6, 144120, Note_on_c, 1, 85, 60
6, 144291, Note_on_c, 1, 88, 0
6, 144291, Note_on_c, 1, 85, 0
6, 144300, Note_on_c, 1, 85, 64
6, 144300, Note_on_c, 1, 88, 64
6, 144351, Note_on_c, 1, 85, 0
6, 144351, Note_on_c, 1, 88, 0
6, 144360, Note_on_c, 1, 88, 65
6, 144360, Note_on_c, 1, 85, 65
6, 144464, Note_on_c, 1, 88, 0
6, 144464, Note_on_c, 1, 85, 0
6, 144480, Note_on_c, 1, 85, 52
6, 144480, Note_on_c, 1, 88, 52
6, 144719, Note_on_c, 1, 85, 0
6, 145011, Note_on_c, 1, 88, 0
6, 145020, Note_on_c, 1, 86, 52
6, 145064, Note_on_c, 1, 86, 0
6, 145080, Note_on_c, 1, 85, 52
6, 145161, Note_on_c, 1, 85, 0
6, 145170, Note_on_c, 1, 85, 52
6, 145199, Note_on_c, 1, 85, 0
6, 145200, Note_on_c, 1, 86, 52
6, 145731, Note_on_c, 1, 86, 0
6, 145740, Note_on_c, 1, 78, 52
6, 145784, Note_on_c, 1, 78, 0
6, 145800, Note_on_c, 1, 80, 52
6, 145889, Note_on_c, 1, 80, 0
6, 145920, Note_on_c, 1, 81, 52
6, 146144, Note_on_c, 1, 81, 0
6, 146160, Note_on_c, 1, 81, 52
6, 146264, Note_on_c, 1, 81, 0
6, 146280, Note_on_c, 1, 81, 52
6, 146451, Note_on_c, 1, 81, 0
6, 146460, Note_on_c, 1, 83, 52
6, 146504, Note_on_c, 1, 83, 0
6, 146520, Note_on_c, 1, 85, 52
6, 146609, Note_on_c, 1, 85, 0
6, 146640, Note_on_c, 1, 85, 52
6, 146759, Note_on_c, 1, 85, 0
6, 146760, Note_on_c, 1, 83, 52
6, 146931, Note_on_c, 1, 83, 0
6, 146940, Note_on_c, 1, 85, 52
6, 146959, Note_on_c, 1, 85, 0
6, 146960, Note_on_c, 1, 83, 52
6, 146979, Note_on_c, 1, 83, 0
6, 146980, Note_on_c, 1, 82, 52
6, 146999, Note_on_c, 1, 82, 0
6, 147000, Note_on_c, 1, 83, 52
6, 147171, Note_on_c, 1, 83, 0
6, 147180, Note_on_c, 1, 85, 52
6, 147224, Note_on_c, 1, 85, 0
6, 147240, Note_on_c, 1, 86, 52
6, 147329, Note_on_c, 1, 86, 0
6, 147360, Note_on_c, 1, 88, 52
6, 147891, Note_on_c, 1, 88, 0
6, 147900, Note_on_c, 1, 86, 52
6, 147944, Note_on_c, 1, 86, 0
6, 147960, Note_on_c, 1, 85, 52
6, 148041, Note_on_c, 1, 85, 0
6, 148050, Note_on_c, 1, 85, 52
6, 148079, Note_on_c, 1, 85, 0
6, 148080, Note_on_c, 1, 86, 52
6, 148611, Note_on_c, 1, 86, 0
6, 148620, Note_on_c, 1, 78, 52
6, 148664, Note_on_c, 1, 78, 0
6, 148680, Note_on_c, 1, 80, 52
6, 148769, Note_on_c, 1, 80, 0
6, 148800, Note_on_c, 1, 81, 52
6, 149024, Note_on_c, 1, 81, 0
6, 149040, Note_on_c, 1, 81, 52
6, 149144, Note_on_c, 1, 81, 0
6, 149160, Note_on_c, 1, 81, 52
6, 149279, Note_on_c, 1, 81, 0
6, 149280, Note_on_c, 1, 85, 52
6, 149384, Note_on_c, 1, 85, 0
6, 149400, Note_on_c, 1, 83, 52
6, 149489, Note_on_c, 1, 83, 0
6, 149520, Note_on_c, 1, 81, 52
6, 149759, Note_on_c, 1, 81, 0
6, 150120, Note_on_c, 1, 81, 52
6, 150224, Note_on_c, 1, 81, 0
6, 150240, Note_on_c, 1, 81, 52
6, 150464, Note_on_c, 1, 81, 0
6, 150480, Note_on_c, 1, 81, 52
6, 150584, Note_on_c, 1, 81, 0
6, 150600, Note_on_c, 1, 81, 52
6, 150771, Note_on_c, 1, 81, 0
6, 150780, Note_on_c, 1, 86, 52
6, 150824, Note_on_c, 1, 86, 0
6, 150840, Note_on_c, 1, 90, 52
6, 150929, Note_on_c, 1, 90, 0
6, 150960, Note_on_c, 1, 90, 52
6, 151079, Note_on_c, 1, 90, 0
6, 151080, Note_on_c, 1, 88, 52
6, 151184, Note_on_c, 1, 88, 0
6, 151200, Note_on_c, 1, 85, 52
6, 151289, Note_on_c, 1, 85, 0
6, 151320, Note_on_c, 1, 81, 52
6, 151559, Note_on_c, 1, 81, 0
6, 152280, Note_on_c, 1, 81, 52
6, 152384, Note_on_c, 1, 81, 0
6, 152400, Note_on_c, 1, 81, 52
6, 152571, Note_on_c, 1, 81, 0
6, 152580, Note_on_c, 1, 86, 52
6, 152624, Note_on_c, 1, 86, 0
6, 152640, Note_on_c, 1, 81, 52
6, 152729, Note_on_c, 1, 81, 0
6, 152760, Note_on_c, 1, 81, 52
6, 152931, Note_on_c, 1, 81, 0
6, 152940, Note_on_c, 1, 86, 52
6, 152984, Note_on_c, 1, 86, 0
6, 153000, Note_on_c, 1, 90, 52
6, 153089, Note_on_c, 1, 90, 0
6, 153120, Note_on_c, 1, 90, 52
6, 153239, Note_on_c, 1, 90, 0
6, 153240, Note_on_c, 1, 88, 52
6, 153344, Note_on_c, 1, 88, 0
6, 153360, Note_on_c, 1, 85, 52
6, 153449, Note_on_c, 1, 85, 0
6, 153480, Note_on_c, 1, 81, 52
6, 153719, Note_on_c, 1, 81, 0
6, 154440, Note_on_c, 1, 85, 52
6, 154544, Note_on_c, 1, 85, 0
6, 154560, Note_on_c, 1, 83, 52
6, 154784, Note_on_c, 1, 83, 0
6, 154800, Note_on_c, 1, 76, 52
6, 154904, Note_on_c, 1, 76, 0
6, 154920, Note_on_c, 1, 76, 52
6, 155091, Note_on_c, 1, 76, 0
6, 155100, Note_on_c, 1, 85, 52
6, 155144, Note_on_c, 1, 85, 0
6, 155160, Note_on_c, 1, 81, 52
6, 155249, Note_on_c, 1, 81, 0
6, 155280, Control_c, 1, 11, 127
6, 155280, Note_on_c, 1, 88, 76
6, 155320, Control_c, 1, 11, 124
6, 155360, Control_c, 1, 11, 122
6, 155400, Control_c, 1, 11, 119
6, 155440, Control_c, 1, 11, 117
6, 155480, Control_c, 1, 11, 114
6, 155520, Control_c, 1, 11, 111
6, 155560, Control_c, 1, 11, 109
6, 155600, Control_c, 1, 11, 106
6, 155640, Control_c, 1, 11, 104
6, 155680, Control_c, 1, 11, 101
6, 155720, Control_c, 1, 11, 98
6, 155760, Control_c, 1, 11, 96
6, 155800, Control_c, 1, 11, 93
6, 155840, Control_c, 1, 11, 90
6, 155864, Note_on_c, 1, 88, 0
6, 155880, Control_c, 1, 11, 88
6, 155880, Note_on_c, 1, 85, 76
6, 155920, Control_c, 1, 11, 85
6, 155960, Control_c, 1, 11, 80
6, 155984, Note_on_c, 1, 85, 0
6, 156000, Note_on_c, 1, 83, 76
6, 156224, Note_on_c, 1, 83, 0
6, 156240, Note_on_c, 1, 76, 76
6, 156344, Note_on_c, 1, 76, 0
6, 156360, Note_on_c, 1, 76, 76
6, 156531, Note_on_c, 1, 76, 0
6, 156540, Note_on_c, 1, 85, 76
6, 156584, Note_on_c, 1, 85, 0
6, 156600, Note_on_c, 1, 81, 76
6, 156689, Note_on_c, 1, 81, 0
6, 156718, Control_c, 1, 11, 127
6, 156720, Note_on_c, 1, 76, 76
6, 156720, Note_on_c, 1, 88, 76
6, 157319, Note_on_c, 1, 76, 0
6, 157319, Note_on_c, 1, 88, 0
6, 157440, Note_on_c, 1, 88, 84
6, 157440, Note_on_c, 1, 76, 84
6, 157500, Control_c, 1, 11, 112
6, 158039, Note_on_c, 1, 88, 0
6, 158039, Note_on_c, 1, 76, 0
6, 158158, Control_c, 1, 11, 127
6, 158160, Note_on_c, 1, 76, 84
6, 158160, Note_on_c, 1, 88, 84
6, 158220, Control_c, 1, 11, 112
6, 158399, Note_on_c, 1, 76, 0
6, 158399, Note_on_c, 1, 88, 0
6, 158518, Control_c, 1, 11, 127
6, 158520, Note_on_c, 1, 88, 84
6, 158520, Note_on_c, 1, 76, 84
6, 158580, Control_c, 1, 11, 112
6, 158759, Note_on_c, 1, 88, 0
6, 158759, Note_on_c, 1, 76, 0
6, 158878, Control_c, 1, 11, 127
6, 158880, Note_on_c, 1, 76, 84
6, 158880, Note_on_c, 1, 88, 84
6, 158940, Control_c, 1, 11, 112
6, 159119, Note_on_c, 1, 76, 0
6, 159119, Note_on_c, 1, 88, 0
6, 159238, Control_c, 1, 11, 127
6, 159240, Note_on_c, 1, 86, 84
6, 159300, Control_c, 1, 11, 112
6, 159359, Note_on_c, 1, 86, 0
6, 159420, Note_on_c, 1, 83, 84
6, 159471, Note_on_c, 1, 83, 0
6, 159480, Note_on_c, 1, 80, 84
6, 159584, Note_on_c, 1, 80, 0
6, 159598, Control_c, 1, 11, 127
6, 159600, Note_on_c, 1, 86, 76
6, 159600, Note_on_c, 1, 83, 76
6, 159959, Note_on_c, 1, 86, 0
6, 159959, Note_on_c, 1, 83, 0
6, 160320, Note_on_c, 1, 88, 84
6, 160320, Note_on_c, 1, 85, 84
6, 161024, Note_on_c, 1, 88, 0
6, 161024, Note_on_c, 1, 85, 0
6, 161040, Note_on_c, 1, 86, 84
6, 161040, Note_on_c, 1, 90, 84
6, 161624, Note_on_c, 1, 86, 0
6, 161624, Note_on_c, 1, 90, 0
6, 161640, Note_on_c, 1, 83, 84
6, 161640, Note_on_c, 1, 92, 84
6, 161744, Note_on_c, 1, 83, 0
6, 161744, Note_on_c, 1, 92, 0
6, 161760, Note_on_c, 1, 85, 84
6, 161760, Note_on_c, 1, 93, 84
6, 162599, Note_on_c, 1, 85, 0
6, 162599, Note_on_c, 1, 93, 0
6, 162600, Note_on_c, 1, 83, 84
6, 162600, Note_on_c, 1, 92, 84
6, 162704, Note_on_c, 1, 83, 0
6, 162704, Note_on_c, 1, 92, 0
6, 162720, Note_on_c, 1, 90, 84
6, 162720, Note_on_c, 1, 81, 84
6, 162809, Note_on_c, 1, 90, 0
6, 162809, Note_on_c, 1, 81, 0
6, 162840, Note_on_c, 1, 88, 84
6, 162840, Note_on_c, 1, 80, 84
6, 163064, Note_on_c, 1, 88, 0
6, 163064, Note_on_c, 1, 80, 0
6, 163080, Note_on_c, 1, 76, 84
6, 163080, Note_on_c, 1, 88, 84
6, 163184, Note_on_c, 1, 76, 0
6, 163184, Note_on_c, 1, 88, 0
6, 163200, Note_on_c, 1, 85, 84
6, 163200, Note_on_c, 1, 88, 84
6, 163904, Note_on_c, 1, 85, 0
6, 163904, Note_on_c, 1, 88, 0
6, 163920, Note_on_c, 1, 86, 84
6, 163920, Note_on_c, 1, 90, 84
6, 164504, Note_on_c, 1, 86, 0
6, 164504, Note_on_c, 1, 90, 0
6, 164520, Note_on_c, 1, 92, 84
6, 164520, Note_on_c, 1, 83, 84
6, 164624, Note_on_c, 1, 92, 0
6, 164624, Note_on_c, 1, 83, 0
6, 164640, Note_on_c, 1, 85, 84
6, 164640, Note_on_c, 1, 93, 84
6, 164864, Note_on_c, 1, 85, 0
6, 164864, Note_on_c, 1, 93, 0
6, 164880, Note_on_c, 1, 93, 84
6, 164880, Note_on_c, 1, 85, 84
6, 164984, Note_on_c, 1, 93, 0
6, 164984, Note_on_c, 1, 85, 0
6, 165000, Note_on_c, 1, 93, 84
6, 165000, Note_on_c, 1, 85, 84
6, 165119, Note_on_c, 1, 85, 0
6, 165120, Note_on_c, 1, 81, 84
6, 165224, Note_on_c, 1, 93, 0
6, 165224, Note_on_c, 1, 81, 0
6, 165240, Note_on_c, 1, 92, 84
6, 165240, Note_on_c, 1, 83, 84
6, 165329, Note_on_c, 1, 92, 0
6, 165329, Note_on_c, 1, 83, 0
6, 165360, Note_on_c, 1, 85, 84
6, 165360, Note_on_c, 1, 93, 84
6, 165584, Note_on_c, 1, 85, 0
6, 165584, Note_on_c, 1, 93, 0
6, 165600, Note_on_c, 1, 81, 84
6, 165600, Note_on_c, 1, 93, 84
6, 165704, Note_on_c, 1, 81, 0
6, 165704, Note_on_c, 1, 93, 0
6, 165720, Note_on_c, 1, 81, 84
6, 165720, Note_on_c, 1, 93, 84
6, 165891, Note_on_c, 1, 81, 0
6, 165891, Note_on_c, 1, 93, 0
6, 165900, Note_on_c, 1, 93, 84
6, 165900, Note_on_c, 1, 81, 84
6, 165951, Note_on_c, 1, 93, 0
6, 165951, Note_on_c, 1, 81, 0
6, 165960, Note_on_c, 1, 81, 84
6, 165960, Note_on_c, 1, 93, 84
6, 166064, Note_on_c, 1, 81, 0
6, 166064, Note_on_c, 1, 93, 0
6, 166080, Note_on_c, 1, 81, 84
6, 166080, Note_on_c, 1, 93, 84
6, 166971, Note_on_c, 1, 81, 0
6, 166971, Note_on_c, 1, 93, 0
6, 166980, Note_on_c, 1, 93, 84
6, 166980, Note_on_c, 1, 81, 84
6, 167031, Note_on_c, 1, 93, 0
6, 167031, Note_on_c, 1, 81, 0
6, 167040, Note_on_c, 1, 81, 84
6, 167040, Note_on_c, 1, 93, 84
6, 167144, Note_on_c, 1, 81, 0
6, 167144, Note_on_c, 1, 93, 0
6, 167160, Note_on_c, 1, 81, 84
6, 167160, Note_on_c, 1, 93, 84
6, 167331, Note_on_c, 1, 81, 0
6, 167331, Note_on_c, 1, 93, 0
6, 167340, Note_on_c, 1, 93, 84
6, 167340, Note_on_c, 1, 81, 84
6, 167391, Note_on_c, 1, 93, 0
6, 167391, Note_on_c, 1, 81, 0
6, 167400, Note_on_c, 1, 93, 84
6, 167400, Note_on_c, 1, 81, 84
6, 167504, Note_on_c, 1, 93, 0
6, 167504, Note_on_c, 1, 81, 0
6, 167520, Note_on_c, 1, 93, 84
6, 167520, Note_on_c, 1, 81, 84
6, 168411, Note_on_c, 1, 93, 0
6, 168411, Note_on_c, 1, 81, 0
6, 168420, Note_on_c, 1, 93, 84
6, 168420, Note_on_c, 1, 81, 84
6, 168471, Note_on_c, 1, 93, 0
6, 168471, Note_on_c, 1, 81, 0
6, 168480, Note_on_c, 1, 93, 84
6, 168480, Note_on_c, 1, 81, 84
6, 168584, Note_on_c, 1, 93, 0
6, 168584, Note_on_c, 1, 81, 0
6, 168600, Note_on_c, 1, 93, 84
6, 168600, Note_on_c, 1, 81, 84
6, 168839, Note_on_c, 1, 93, 0
6, 168839, Note_on_c, 1, 81, 0
6, 169200, Note_on_c, 1, 88, 55
6, 169304, Note_on_c, 1, 88, 0
6, 169320, Note_on_c, 1, 90, 56
6, 169439, Note_on_c, 1, 90, 0
6, 169440, Note_on_c, 1, 88, 56
6, 169544, Note_on_c, 1, 88, 0
6, 169560, Note_on_c, 1, 85, 57
6, 169649, Note_on_c, 1, 85, 0
6, 169920, Note_on_c, 1, 90, 59
6, 170024, Note_on_c, 1, 90, 0
6, 170040, Note_on_c, 1, 91, 60
6, 170159, Note_on_c, 1, 91, 0
6, 170160, Note_on_c, 1, 90, 60
6, 170264, Note_on_c, 1, 90, 0
6, 170280, Note_on_c, 1, 86, 61
6, 170369, Note_on_c, 1, 86, 0
6, 170640, Note_on_c, 1, 86, 63
6, 170744, Note_on_c, 1, 86, 0
6, 170760, Note_on_c, 1, 88, 63
6, 170879, Note_on_c, 1, 88, 0
6, 170880, Note_on_c, 1, 86, 64
6, 170984, Note_on_c, 1, 86, 0
6, 171000, Note_on_c, 1, 83, 64
6, 171089, Note_on_c, 1, 83, 0
6, 171360, Note_on_c, 1, 88, 66
6, 171464, Note_on_c, 1, 88, 0
6, 171480, Note_on_c, 1, 90, 67
6, 171599, Note_on_c, 1, 90, 0
6, 171600, Note_on_c, 1, 88, 68
6, 171704, Note_on_c, 1, 88, 0
6, 171720, Note_on_c, 1, 85, 68
6, 171809, Note_on_c, 1, 85, 0
6, 172080, Note_on_c, 1, 88, 70
6, 172184, Note_on_c, 1, 88, 0
6, 172200, Note_on_c, 1, 90, 71
6, 172319, Note_on_c, 1, 90, 0
6, 172320, Note_on_c, 1, 88, 71
6, 172424, Note_on_c, 1, 88, 0
6, 172440, Note_on_c, 1, 85, 72
6, 172529, Note_on_c, 1, 85, 0
6, 172560, Note_on_c, 1, 91, 72
6, 172679, Note_on_c, 1, 91, 0
6, 172680, Note_on_c, 1, 90, 73
6, 172784, Note_on_c, 1, 90, 0
6, 172800, Note_on_c, 1, 86, 74
6, 172889, Note_on_c, 1, 86, 0
6, 172920, Note_on_c, 1, 91, 74
6, 173039, Note_on_c, 1, 91, 0
6, 173040, Note_on_c, 1, 90, 75
6, 173144, Note_on_c, 1, 90, 0
6, 173160, Note_on_c, 1, 86, 76
6, 173249, Note_on_c, 1, 86, 0
6, 173280, Note_on_c, 1, 85, 76
6, 173399, Note_on_c, 1, 85, 0
6, 173400, Note_on_c, 1, 83, 77
6, 173504, Note_on_c, 1, 83, 0
6, 173520, Note_on_c, 1, 80, 77
6, 173609, Note_on_c, 1, 80, 0
6, 173640, Note_on_c, 1, 85, 78
6, 173759, Note_on_c, 1, 85, 0
6, 173760, Note_on_c, 1, 83, 79
6, 173864, Note_on_c, 1, 83, 0
6, 173880, Note_on_c, 1, 80, 79
6, 173969, Note_on_c, 1, 80, 0
6, 174000, Note_on_c, 1, 86, 80
6, 174119, Note_on_c, 1, 86, 0
6, 174120, Note_on_c, 1, 85, 80
6, 174224, Note_on_c, 1, 85, 0
6, 174240, Note_on_c, 1, 81, 81
6, 174329, Note_on_c, 1, 81, 0
6, 174360, Note_on_c, 1, 86, 82
6, 174479, Note_on_c, 1, 86, 0
6, 174480, Note_on_c, 1, 85, 82
6, 174584, Note_on_c, 1, 85, 0
6, 174600, Note_on_c, 1, 81, 83
6, 174689, Note_on_c, 1, 81, 0
6, 174720, Note_on_c, 1, 82, 84
6, 174720, Note_on_c, 1, 88, 84
6, 175424, Note_on_c, 1, 82, 0
6, 175424, Note_on_c, 1, 88, 0
6, 175440, Note_on_c, 1, 87, 84
6, 175440, Note_on_c, 1, 83, 84
6, 175904, Note_on_c, 1, 87, 0
6, 175904, Note_on_c, 1, 83, 0
6, 175920, Note_on_c, 1, 87, 52
6, 176024, Note_on_c, 1, 87, 0
6, 176040, Note_on_c, 1, 87, 52
6, 176144, Note_on_c, 1, 87, 0
6, 176160, Note_on_c, 1, 85, 52
6, 176279, Note_on_c, 1, 85, 0
6, 176400, Note_on_c, 1, 85, 52
6, 176504, Note_on_c, 1, 85, 0
6, 176520, Note_on_c, 1, 85, 52
6, 176639, Note_on_c, 1, 85, 0
6, 176760, Note_on_c, 1, 85, 52
6, 176864, Note_on_c, 1, 85, 0
6, 176880, Note_on_c, 1, 84, 52
6, 177119, Note_on_c, 1, 84, 0
6, 178920, Control_c, 1, 11, 80
6, 179040, Note_on_c, 1, 88, 76
6, 179040, Note_on_c, 1, 80, 76
6, 179040, Control_c, 1, 11, 80
6, 179080, Control_c, 1, 11, 83
6, 179120, Control_c, 1, 11, 85
6, 179160, Control_c, 1, 11, 88
6, 179200, Control_c, 1, 11, 90
6, 179240, Control_c, 1, 11, 93
6, 179280, Control_c, 1, 11, 96
6, 179320, Control_c, 1, 11, 98
6, 179360, Control_c, 1, 11, 101
6, 179399, Note_on_c, 1, 88, 0
6, 179400, Note_on_c, 1, 85, 76
6, 179400, Control_c, 1, 11, 104
6, 179440, Control_c, 1, 11, 106
6, 179480, Control_c, 1, 11, 109
6, 179520, Control_c, 1, 11, 111
6, 179560, Control_c, 1, 11, 114
6, 179600, Control_c, 1, 11, 117
6, 179640, Control_c, 1, 11, 119
6, 179680, Control_c, 1, 11, 122
6, 179720, Control_c, 1, 11, 127
6, 179744, Note_on_c, 1, 80, 0
6, 179744, Note_on_c, 1, 85, 0
6, 179760, Note_on_c, 1, 79, 76
6, 179760, Note_on_c, 1, 82, 76
6, 179984, Note_on_c, 1, 79, 0
6, 179984, Note_on_c, 1, 82, 0
6, 180000, Note_on_c, 1, 75, 52
6, 180104, Note_on_c, 1, 75, 0
6, 180120, Note_on_c, 1, 75, 52
6, 180254, Note_on_c, 1, 75, 0
6, 180300, Note_on_c, 1, 79, 52
6, 180344, Note_on_c, 1, 79, 0
6, 180360, Note_on_c, 1, 82, 52
6, 180449, Note_on_c, 1, 82, 0
6, 180480, Note_on_c, 1, 83, 52
6, 180659, Note_on_c, 1, 83, 0
6, 180720, Note_on_c, 1, 83, 52
6, 180824, Note_on_c, 1, 83, 0
6, 180840, Note_on_c, 1, 83, 52
6, 180974, Note_on_c, 1, 83, 0
6, 181020, Note_on_c, 1, 82, 52
6, 181064, Note_on_c, 1, 82, 0
6, 181080, Note_on_c, 1, 80, 52
6, 181169, Note_on_c, 1, 80, 0
6, 181200, Note_on_c, 1, 79, 52
6, 181439, Note_on_c, 1, 79, 0
6, 181680, Control_c, 1, 11, 80
6, 181800, Note_on_c, 1, 82, 76
6, 181919, Note_on_c, 1, 82, 0
6, 181920, Note_on_c, 1, 83, 76
6, 181920, Control_c, 1, 11, 80
6, 181960, Control_c, 1, 11, 83
6, 182000, Control_c, 1, 11, 85
6, 182040, Control_c, 1, 11, 88
6, 182080, Control_c, 1, 11, 90
6, 182120, Control_c, 1, 11, 93
6, 182144, Note_on_c, 1, 83, 0
6, 182160, Control_c, 1, 11, 96
6, 182160, Note_on_c, 1, 83, 76
6, 182200, Control_c, 1, 11, 98
6, 182240, Control_c, 1, 11, 101
6, 182264, Note_on_c, 1, 83, 0
6, 182280, Note_on_c, 1, 83, 76
6, 182280, Note_on_c, 1, 88, 76
6, 182280, Control_c, 1, 11, 104
6, 182320, Control_c, 1, 11, 106
6, 182360, Control_c, 1, 11, 109
6, 182400, Control_c, 1, 11, 111
6, 182440, Control_c, 1, 11, 114
6, 182480, Control_c, 1, 11, 117
6, 182504, Note_on_c, 1, 83, 0
6, 182504, Note_on_c, 1, 88, 0
6, 182520, Note_on_c, 1, 88, 76
6, 182520, Note_on_c, 1, 83, 76
6, 182520, Control_c, 1, 11, 119
6, 182560, Control_c, 1, 11, 122
6, 182600, Control_c, 1, 11, 127
6, 182624, Note_on_c, 1, 88, 0
6, 182624, Note_on_c, 1, 83, 0
6, 182640, Note_on_c, 1, 88, 76
6, 182640, Note_on_c, 1, 83, 76
6, 182759, Note_on_c, 1, 88, 0
6, 182760, Note_on_c, 1, 87, 76
6, 183224, Note_on_c, 1, 87, 0
6, 183240, Note_on_c, 1, 81, 76
6, 183344, Note_on_c, 1, 81, 0
6, 183360, Note_on_c, 1, 80, 76
6, 183584, Note_on_c, 1, 83, 0
6, 183584, Note_on_c, 1, 80, 0
6, 183600, Note_on_c, 1, 83, 76
6, 183600, Note_on_c, 1, 80, 76
6, 183704, Note_on_c, 1, 83, 0
6, 183704, Note_on_c, 1, 80, 0
6, 183720, Note_on_c, 1, 83, 76
6, 183720, Note_on_c, 1, 85, 76
6, 183944, Note_on_c, 1, 83, 0
6, 183944, Note_on_c, 1, 85, 0
6, 183960, Note_on_c, 1, 83, 76
6, 183960, Note_on_c, 1, 85, 76
6, 184064, Note_on_c, 1, 83, 0
6, 184064, Note_on_c, 1, 85, 0
6, 184080, Note_on_c, 1, 83, 76
6, 184080, Note_on_c, 1, 85, 76
6, 184199, Note_on_c, 1, 85, 0
6, 184680, Note_on_c, 1, 78, 76
6, 184784, Note_on_c, 1, 78, 0
6, 184800, Note_on_c, 1, 76, 76
6, 184919, Note_on_c, 1, 83, 0
6, 184920, Note_on_c, 1, 81, 76
6, 185024, Note_on_c, 1, 76, 0
6, 185024, Note_on_c, 1, 81, 0
6, 185040, Note_on_c, 1, 88, 76
6, 185144, Note_on_c, 1, 88, 0
6, 185160, Note_on_c, 1, 93, 76
6, 185160, Note_on_c, 1, 88, 76
6, 185384, Note_on_c, 1, 93, 0
6, 185384, Note_on_c, 1, 88, 0
6, 185400, Note_on_c, 1, 93, 76
6, 185400, Note_on_c, 1, 88, 76
6, 185504, Note_on_c, 1, 93, 0
6, 185504, Note_on_c, 1, 88, 0
6, 185520, Note_on_c, 1, 93, 76
6, 185520, Note_on_c, 1, 90, 76
6, 185624, Note_on_c, 1, 93, 0
6, 185624, Note_on_c, 1, 90, 0
6, 185640, Note_on_c, 1, 90, 76
6, 185640, Note_on_c, 1, 93, 76
6, 185759, Note_on_c, 1, 90, 0
6, 185759, Note_on_c, 1, 93, 0
6, 185880, Note_on_c, 1, 90, 76
6, 185880, Note_on_c, 1, 93, 76
6, 185984, Note_on_c, 1, 90, 0
6, 185984, Note_on_c, 1, 93, 0
6, 186000, Note_on_c, 1, 93, 76
6, 186000, Note_on_c, 1, 90, 76
6, 186119, Note_on_c, 1, 93, 0
6, 186119, Note_on_c, 1, 90, 0
6, 186240, Note_on_c, 1, 92, 76
6, 186240, Note_on_c, 1, 88, 76
6, 186344, Note_on_c, 1, 92, 0
6, 186344, Note_on_c, 1, 88, 0
6, 186360, Note_on_c, 1, 92, 76
6, 186360, Note_on_c, 1, 88, 76
6, 186479, Note_on_c, 1, 92, 0
6, 186479, Note_on_c, 1, 88, 0
6, 186600, Note_on_c, 1, 92, 76
6, 186600, Note_on_c, 1, 88, 76
6, 186704, Note_on_c, 1, 92, 0
6, 186704, Note_on_c, 1, 88, 0
6, 186720, Note_on_c, 1, 92, 76
6, 186720, Note_on_c, 1, 88, 76
6, 186839, Note_on_c, 1, 92, 0
6, 186839, Note_on_c, 1, 88, 0
6, 186960, Note_on_c, 1, 90, 76
6, 186960, Note_on_c, 1, 93, 76
6, 187064, Note_on_c, 1, 90, 0
6, 187064, Note_on_c, 1, 93, 0
6, 187080, Note_on_c, 1, 90, 76
6, 187080, Note_on_c, 1, 93, 76
6, 187199, Note_on_c, 1, 90, 0
6, 187199, Note_on_c, 1, 93, 0
6, 187320, Note_on_c, 1, 93, 76
6, 187320, Note_on_c, 1, 90, 76
6, 187424, Note_on_c, 1, 93, 0
6, 187424, Note_on_c, 1, 90, 0
6, 187440, Note_on_c, 1, 90, 76
6, 187440, Note_on_c, 1, 93, 76
6, 187559, Note_on_c, 1, 90, 0
6, 187559, Note_on_c, 1, 93, 0
6, 187680, Note_on_c, 1, 92, 76
6, 187680, Note_on_c, 1, 88, 76
6, 187784, Note_on_c, 1, 92, 0
6, 187784, Note_on_c, 1, 88, 0
6, 187800, Note_on_c, 1, 88, 76
6, 187800, Note_on_c, 1, 92, 76
6, 187919, Note_on_c, 1, 88, 0
6, 187919, Note_on_c, 1, 92, 0
6, 188040, Note_on_c, 1, 88, 76
6, 188040, Note_on_c, 1, 92, 76
6, 188144, Note_on_c, 1, 88, 0
6, 188144, Note_on_c, 1, 92, 0
6, 188160, Note_on_c, 1, 92, 76
6, 188160, Note_on_c, 1, 88, 76
6, 188279, Note_on_c, 1, 92, 0
6, 188279, Note_on_c, 1, 88, 0
6, 191640, Note_on_c, 1, 88, 48
6, 191811, Note_on_c, 1, 88, 0
6, 191820, Note_on_c, 1, 83, 48
6, 191871, Note_on_c, 1, 83, 0
6, 191880, Note_on_c, 1, 83, 48
6, 191984, Note_on_c, 1, 83, 0
6, 192000, Note_on_c, 1, 83, 48
6, 192171, Note_on_c, 1, 83, 0
6, 192180, Note_on_c, 1, 80, 48
6, 192231, Note_on_c, 1, 80, 0
6, 192240, Note_on_c, 1, 80, 48
6, 192344, Note_on_c, 1, 80, 0
6, 192360, Note_on_c, 1, 80, 48
6, 192479, Note_on_c, 1, 80, 0
6, 192480, Note_on_c, 1, 81, 48
6, 192584, Note_on_c, 1, 81, 0
6, 192600, Note_on_c, 1, 78, 48
6, 192689, Note_on_c, 1, 78, 0
6, 192720, Note_on_c, 1, 76, 76
6, 192824, Note_on_c, 1, 76, 0
6, 192840, Note_on_c, 1, 76, 76
6, 192840, Note_on_c, 1, 88, 76
6, 192944, Note_on_c, 1, 76, 0
6, 192944, Note_on_c, 1, 88, 0
6, 192960, Note_on_c, 1, 76, 76
6, 192960, Note_on_c, 1, 88, 76
6, 193064, Note_on_c, 1, 76, 0
6, 193064, Note_on_c, 1, 88, 0
6, 193080, Note_on_c, 1, 88, 76
6, 193080, Note_on_c, 1, 76, 76
6, 193184, Note_on_c, 1, 88, 0
6, 193184, Note_on_c, 1, 76, 0
6, 193200, Note_on_c, 1, 76, 76
6, 193200, Note_on_c, 1, 88, 76
6, 193304, Note_on_c, 1, 76, 0
6, 193304, Note_on_c, 1, 88, 0
6, 193320, Note_on_c, 1, 88, 76
6, 193320, Note_on_c, 1, 76, 76
6, 193424, Note_on_c, 1, 88, 0
6, 193424, Note_on_c, 1, 76, 0
6, 193440, Note_on_c, 1, 88, 76
6, 193440, Note_on_c, 1, 76, 76
6, 193544, Note_on_c, 1, 88, 0
6, 193544, Note_on_c, 1, 76, 0
6, 193560, Note_on_c, 1, 88, 76
6, 193560, Note_on_c, 1, 76, 76
6, 193664, Note_on_c, 1, 88, 0
6, 193664, Note_on_c, 1, 76, 0
6, 193680, Note_on_c, 1, 88, 76
6, 193680, Note_on_c, 1, 76, 76
6, 193784, Note_on_c, 1, 88, 0
6, 193784, Note_on_c, 1, 76, 0
6, 193800, Note_on_c, 1, 79, 76
6, 193800, Note_on_c, 1, 91, 76
6, 193904, Note_on_c, 1, 79, 0
6, 193904, Note_on_c, 1, 91, 0
6, 193920, Note_on_c, 1, 91, 76
6, 193920, Note_on_c, 1, 79, 76
6, 194024, Note_on_c, 1, 91, 0
6, 194024, Note_on_c, 1, 79, 0
6, 194040, Note_on_c, 1, 91, 76
6, 194040, Note_on_c, 1, 79, 76
6, 194144, Note_on_c, 1, 91, 0
6, 194144, Note_on_c, 1, 79, 0
6, 194160, Note_on_c, 1, 84, 76
6, 194399, Note_on_c, 1, 84, 0
6, 204480, Note_on_c, 1, 85, 68
6, 204539, Note_on_c, 1, 85, 0
6, 204540, Note_on_c, 1, 87, 69
6, 204599, Note_on_c, 1, 87, 0
6, 204600, Note_on_c, 1, 88, 70
6, 204779, Note_on_c, 1, 88, 0
6, 205200, Note_on_c, 1, 87, 77
6, 205259, Note_on_c, 1, 87, 0
6, 205260, Note_on_c, 1, 88, 78
6, 205319, Note_on_c, 1, 88, 0
6, 205320, Note_on_c, 1, 90, 79
6, 205499, Note_on_c, 1, 90, 0
6, 205560, Note_on_c, 1, 88, 82
6, 205619, Note_on_c, 1, 88, 0
6, 205620, Note_on_c, 1, 90, 83
6, 205679, Note_on_c, 1, 90, 0
6, 205680, Note_on_c, 1, 88, 84
6, 205680, Note_on_c, 1, 92, 84
6, 206744, Note_on_c, 1, 88, 0
6, 206744, Note_on_c, 1, 92, 0
6, 206760, Note_on_c, 1, 92, 84
6, 206760, Note_on_c, 1, 88, 84
6, 206931, Note_on_c, 1, 92, 0
6, 206931, Note_on_c, 1, 88, 0
6, 206940, Note_on_c, 1, 88, 84
6, 206940, Note_on_c, 1, 92, 84
6, 206991, Note_on_c, 1, 88, 0
6, 206991, Note_on_c, 1, 92, 0
6, 207000, Note_on_c, 1, 88, 84
6, 207000, Note_on_c, 1, 92, 84
6, 207104, Note_on_c, 1, 88, 0
6, 207104, Note_on_c, 1, 92, 0
6, 207120, Note_on_c, 1, 88, 84
6, 207120, Note_on_c, 1, 90, 84
6, 208184, Note_on_c, 1, 88, 0
6, 208184, Note_on_c, 1, 90, 0
6, 208200, Note_on_c, 1, 88, 84
6, 208200, Note_on_c, 1, 90, 84
6, 208371, Note_on_c, 1, 88, 0
6, 208371, Note_on_c, 1, 90, 0
6, 208380, Note_on_c, 1, 90, 84
6, 208380, Note_on_c, 1, 88, 84
6, 208431, Note_on_c, 1, 90, 0
6, 208431, Note_on_c, 1, 88, 0
6, 208440, Note_on_c, 1, 90, 84
6, 208440, Note_on_c, 1, 88, 84
6, 208544, Note_on_c, 1, 90, 0
6, 208544, Note_on_c, 1, 88, 0
6, 208558, Control_c, 1, 11, 48
6, 208560, Note_on_c, 1, 89, 84
6, 208919, Note_on_c, 1, 89, 0
6, 208920, Note_on_c, 1, 84, 84
6, 209279, Note_on_c, 1, 84, 0
6, 209280, Note_on_c, 1, 75, 84
6, 209280, Control_c, 1, 11, 48
6, 209320, Control_c, 1, 11, 52
6, 209360, Control_c, 1, 11, 57
6, 209400, Control_c, 1, 11, 61
6, 209440, Control_c, 1, 11, 66
6, 209480, Control_c, 1, 11, 70
6, 209520, Control_c, 1, 11, 74
6, 209560, Control_c, 1, 11, 79
6, 209600, Control_c, 1, 11, 83
6, 209624, Note_on_c, 1, 75, 0
6, 209640, Control_c, 1, 11, 88
6, 209640, Note_on_c, 1, 83, 84
6, 209680, Control_c, 1, 11, 92
6, 209720, Control_c, 1, 11, 96
6, 209744, Note_on_c, 1, 83, 0
6, 209760, Note_on_c, 1, 85, 84
6, 209760, Control_c, 1, 11, 101
6, 209800, Control_c, 1, 11, 105
6, 209811, Note_on_c, 1, 85, 0
6, 209820, Note_on_c, 1, 87, 84
6, 209840, Control_c, 1, 11, 109
6, 209871, Note_on_c, 1, 87, 0
6, 209880, Note_on_c, 1, 88, 84
6, 209880, Control_c, 1, 11, 114
6, 209920, Control_c, 1, 11, 118
6, 209931, Note_on_c, 1, 88, 0
6, 209940, Note_on_c, 1, 90, 84
6, 209960, Control_c, 1, 11, 127
6, 209991, Note_on_c, 1, 90, 0
6, 210000, Note_on_c, 1, 92, 84
6, 210000, Note_on_c, 1, 88, 84
6, 211064, Note_on_c, 1, 92, 0
6, 211064, Note_on_c, 1, 88, 0
6, 211080, Note_on_c, 1, 88, 84
6, 211080, Note_on_c, 1, 92, 84
6, 211251, Note_on_c, 1, 88, 0
6, 211251, Note_on_c, 1, 92, 0
6, 211260, Note_on_c, 1, 92, 84
6, 211260, Note_on_c, 1, 88, 84
6, 211311, Note_on_c, 1, 92, 0
6, 211311, Note_on_c, 1, 88, 0
6, 211320, Note_on_c, 1, 88, 84
6, 211320, Note_on_c, 1, 92, 84
6, 211424, Note_on_c, 1, 88, 0
6, 211424, Note_on_c, 1, 92, 0
6, 211440, Note_on_c, 1, 88, 84
6, 211440, Note_on_c, 1, 90, 84
6, 212504, Note_on_c, 1, 88, 0
6, 212504, Note_on_c, 1, 90, 0
6, 212520, Note_on_c, 1, 90, 84
6, 212520, Note_on_c, 1, 88, 84
6, 212691, Note_on_c, 1, 90, 0
6, 212691, Note_on_c, 1, 88, 0
6, 212700, Note_on_c, 1, 88, 84
6, 212700, Note_on_c, 1, 90, 84
6, 212751, Note_on_c, 1, 88, 0
6, 212751, Note_on_c, 1, 90, 0
6, 212760, Note_on_c, 1, 90, 84
6, 212760, Note_on_c, 1, 88, 84
6, 212864, Note_on_c, 1, 90, 0
6, 212864, Note_on_c, 1, 88, 0
6, 212880, Control_c, 1, 11, 48
6, 213240, Note_on_c, 1, 89, 84
6, 213599, Note_on_c, 1, 89, 0
6, 213600, Control_c, 1, 11, 48
6, 213600, Note_on_c, 1, 87, 84
6, 213640, Control_c, 1, 11, 52
6, 213680, Control_c, 1, 11, 57
6, 213720, Control_c, 1, 11, 61
6, 213760, Control_c, 1, 11, 66
6, 213800, Control_c, 1, 11, 70
6, 213840, Control_c, 1, 11, 74
6, 213880, Control_c, 1, 11, 79
6, 213920, Control_c, 1, 11, 83
6, 213960, Control_c, 1, 11, 88
6, 214000, Control_c, 1, 11, 92
6, 214040, Control_c, 1, 11, 96
6, 214080, Control_c, 1, 11, 101
6, 214120, Control_c, 1, 11, 105
6, 214160, Control_c, 1, 11, 109
6, 214184, Note_on_c, 1, 87, 0
6, 214200, Note_on_c, 1, 83, 84
6, 214200, Control_c, 1, 11, 114
6, 214240, Control_c, 1, 11, 118
6, 214280, Control_c, 1, 11, 123
6, 214289, Note_on_c, 1, 83, 0
6, 214318, Control_c, 1, 11, 127
6, 214320, Note_on_c, 1, 83, 84
6, 214851, Note_on_c, 1, 83, 0
6, 214860, Note_on_c, 1, 93, 84
6, 214860, Note_on_c, 1, 81, 84
6, 214911, Note_on_c, 1, 93, 0
6, 214911, Note_on_c, 1, 81, 0
6, 214920, Note_on_c, 1, 92, 84
6, 214920, Note_on_c, 1, 80, 84
6, 215001, Note_on_c, 1, 92, 0
6, 215001, Note_on_c, 1, 80, 0
6, 215010, Note_on_c, 1, 92, 84
6, 215010, Note_on_c, 1, 80, 84
6, 215039, Note_on_c, 1, 92, 0
6, 215039, Note_on_c, 1, 80, 0
6, 215040, Note_on_c, 1, 81, 92
6, 215040, Note_on_c, 1, 93, 92
6, 215100, Control_c, 1, 11, 112
6, 215571, Note_on_c, 1, 81, 0
6, 215571, Note_on_c, 1, 93, 0
6, 215580, Note_on_c, 1, 81, 92
6, 215580, Note_on_c, 1, 85, 92
6, 215631, Note_on_c, 1, 81, 0
6, 215631, Note_on_c, 1, 85, 0
6, 215640, Note_on_c, 1, 87, 92
6, 215640, Note_on_c, 1, 83, 92
6, 215744, Note_on_c, 1, 87, 0
6, 215744, Note_on_c, 1, 83, 0
6, 215760, Note_on_c, 1, 88, 92
6, 215760, Note_on_c, 1, 83, 92
6, 215999, Note_on_c, 1, 88, 0
6, 215999, Note_on_c, 1, 83, 0
6, 216118, Control_c, 1, 11, 127
6, 216120, Note_on_c, 1, 92, 84
6, 216120, Note_on_c, 1, 83, 84
6, 216359, Note_on_c, 1, 92, 0
6, 216359, Note_on_c, 1, 83, 0
6, 216480, Note_on_c, 1, 83, 84
6, 216719, Note_on_c, 1, 83, 0
6, 217020, Note_on_c, 1, 83, 84
6, 217071, Note_on_c, 1, 83, 0
6, 217080, Note_on_c, 1, 83, 84
6, 217184, Note_on_c, 1, 83, 0
6, 217200, Note_on_c, 1, 83, 92
6, 217260, Control_c, 1, 11, 112
6, 217424, Note_on_c, 1, 83, 0
6, 217440, Note_on_c, 1, 80, 92
6, 217440, Note_on_c, 1, 92, 92
6, 217521, Note_on_c, 1, 80, 0
6, 217521, Note_on_c, 1, 92, 0
6, 217530, Note_on_c, 1, 92, 92
6, 217530, Note_on_c, 1, 80, 92
6, 217559, Note_on_c, 1, 92, 0
6, 217559, Note_on_c, 1, 80, 0
6, 217560, Note_on_c, 1, 93, 92
6, 217560, Note_on_c, 1, 81, 92
6, 217731, Note_on_c, 1, 93, 0
6, 217731, Note_on_c, 1, 81, 0
6, 217740, Note_on_c, 1, 81, 92
6, 217740, Note_on_c, 1, 85, 92
6, 217791, Note_on_c, 1, 81, 0
6, 217791, Note_on_c, 1, 85, 0
6, 217800, Note_on_c, 1, 83, 92
6, 217800, Note_on_c, 1, 87, 92
6, 217904, Note_on_c, 1, 83, 0
6, 217904, Note_on_c, 1, 87, 0
6, 217920, Note_on_c, 1, 83, 92
6, 217920, Note_on_c, 1, 88, 92
6, 218159, Note_on_c, 1, 83, 0
6, 218159, Note_on_c, 1, 88, 0
6, 218460, Note_on_c, 1, 83, 92
6, 218511, Note_on_c, 1, 83, 0
6, 218520, Note_on_c, 1, 83, 92
6, 218624, Note_on_c, 1, 83, 0
6, 218638, Control_c, 1, 11, 127
6, 218640, Note_on_c, 1, 83, 92
6, 218700, Control_c, 1, 11, 112
6, 218864, Note_on_c, 1, 83, 0
6, 218880, Note_on_c, 1, 92, 92
6, 218880, Note_on_c, 1, 80, 92
6, 218961, Note_on_c, 1, 92, 0
6, 218961, Note_on_c, 1, 80, 0
6, 218970, Note_on_c, 1, 92, 92
6, 218970, Note_on_c, 1, 80, 92
6, 218999, Note_on_c, 1, 92, 0
6, 218999, Note_on_c, 1, 80, 0
6, 219000, Note_on_c, 1, 81, 92
6, 219000, Note_on_c, 1, 93, 92
6, 219171, Note_on_c, 1, 81, 0
6, 219171, Note_on_c, 1, 93, 0
6, 219180, Note_on_c, 1, 81, 92
6, 219180, Note_on_c, 1, 85, 92
6, 219231, Note_on_c, 1, 81, 0
6, 219231, Note_on_c, 1, 85, 0
6, 219240, Note_on_c, 1, 83, 92
6, 219240, Note_on_c, 1, 87, 92
6, 219344, Note_on_c, 1, 83, 0
6, 219344, Note_on_c, 1, 87, 0
6, 219358, Control_c, 1, 11, 127
6, 219360, Note_on_c, 1, 88, 84
6, 219479, Note_on_c, 1, 88, 0
6, 219600, Note_on_c, 1, 88, 84
6, 219719, Note_on_c, 1, 88, 0
6, 219960, Note_on_c, 1, 88, 84
6, 220079, Note_on_c, 1, 88, 0
6, 220320, Note_on_c, 1, 88, 84
6, 220439, Note_on_c, 1, 88, 0
6, 220680, Note_on_c, 1, 88, 84
6, 220799, Note_on_c, 1, 88, 0
6, 221040, Note_on_c, 1, 88, 84
6, 221159, Note_on_c, 1, 88, 0
6, 221400, Note_on_c, 1, 88, 84
6, 221519, Note_on_c, 1, 88, 0
6, 221760, Note_on_c, 1, 88, 84
6, 221879, Note_on_c, 1, 88, 0
6, 222120, Note_on_c, 1, 88, 84
6, 222239, Note_on_c, 1, 88, 0
6, 223920, Note_on_c, 1, 91, 84
6, 223920, Note_on_c, 1, 79, 84
6, 224039, Note_on_c, 1, 91, 0
6, 224039, Note_on_c, 1, 79, 0
6, 224280, Note_on_c, 1, 79, 84
6, 224280, Note_on_c, 1, 91, 84
6, 224399, Note_on_c, 1, 79, 0
6, 224399, Note_on_c, 1, 91, 0
6, 224640, Note_on_c, 1, 91, 84
6, 224640, Note_on_c, 1, 79, 84
6, 224759, Note_on_c, 1, 91, 0
6, 224759, Note_on_c, 1, 79, 0
6, 225000, Note_on_c, 1, 79, 84
6, 225000, Note_on_c, 1, 91, 84
6, 225119, Note_on_c, 1, 79, 0
6, 225119, Note_on_c, 1, 91, 0
6, 235200, Note_on_c, 1, 79, 44
6, 235731, Note_on_c, 1, 79, 0
6, 235740, Note_on_c, 1, 77, 44
6, 235784, Note_on_c, 1, 77, 0
6, 235800, Note_on_c, 1, 76, 44
6, 235889, Note_on_c, 1, 76, 0
6, 235920, Note_on_c, 1, 77, 44
6, 236069, Note_on_c, 1, 77, 0
6, 236100, Note_on_c, 1, 79, 44
6, 236144, Note_on_c, 1, 79, 0
6, 236160, Note_on_c, 1, 81, 44
6, 236249, Note_on_c, 1, 81, 0
6, 236280, Note_on_c, 1, 83, 44
6, 236429, Note_on_c, 1, 83, 0
6, 236460, Note_on_c, 1, 84, 44
6, 236504, Note_on_c, 1, 84, 0
6, 236520, Note_on_c, 1, 86, 44
6, 236609, Note_on_c, 1, 86, 0
6, 236638, Control_c, 1, 11, 64
6, 236640, Note_on_c, 1, 88, 76
6, 236709, Control_c, 1, 11, 65
6, 236777, Control_c, 1, 11, 66
6, 236846, Control_c, 1, 11, 67
6, 236914, Control_c, 1, 11, 68
6, 236983, Control_c, 1, 11, 69
6, 237051, Control_c, 1, 11, 70
6, 237120, Control_c, 1, 11, 71
6, 237189, Control_c, 1, 11, 72
6, 237257, Control_c, 1, 11, 73
6, 237326, Control_c, 1, 11, 74
6, 237394, Control_c, 1, 11, 75
6, 237463, Control_c, 1, 11, 76
6, 237531, Control_c, 1, 11, 77
6, 237600, Control_c, 1, 11, 78
6, 237669, Control_c, 1, 11, 79
6, 237737, Control_c, 1, 11, 80
6, 237806, Control_c, 1, 11, 81
6, 237874, Control_c, 1, 11, 82
6, 237943, Control_c, 1, 11, 83
6, 238011, Control_c, 1, 11, 84
6, 238064, Note_on_c, 1, 88, 0
6, 238080, Note_on_c, 1, 87, 76
6, 238080, Control_c, 1, 11, 85
6, 238149, Control_c, 1, 11, 86
6, 238217, Control_c, 1, 11, 87
6, 238286, Control_c, 1, 11, 88
6, 238354, Control_c, 1, 11, 89
6, 238423, Control_c, 1, 11, 90
6, 238491, Control_c, 1, 11, 91
6, 238560, Control_c, 1, 11, 92
6, 238629, Control_c, 1, 11, 93
6, 238697, Control_c, 1, 11, 94
6, 238766, Control_c, 1, 11, 95
6, 238834, Control_c, 1, 11, 96
6, 238903, Control_c, 1, 11, 97
6, 238971, Control_c, 1, 11, 98
6, 239040, Control_c, 1, 11, 99
6, 239109, Control_c, 1, 11, 100
6, 239177, Control_c, 1, 11, 101
6, 239246, Control_c, 1, 11, 102
6, 239314, Control_c, 1, 11, 103
6, 239383, Control_c, 1, 11, 104
6, 239451, Control_c, 1, 11, 105
6, 239504, Note_on_c, 1, 87, 0
6, 239520, Control_c, 1, 11, 106
6, 239520, Note_on_c, 1, 88, 76
6, 239589, Control_c, 1, 11, 107
6, 239657, Control_c, 1, 11, 108
6, 239726, Control_c, 1, 11, 109
6, 239794, Control_c, 1, 11, 110
6, 239863, Control_c, 1, 11, 111
6, 239864, Note_on_c, 1, 88, 0
6, 239880, Note_on_c, 1, 91, 76
6, 239931, Control_c, 1, 11, 112
6, 240000, Control_c, 1, 11, 113
6, 240069, Control_c, 1, 11, 114
6, 240137, Control_c, 1, 11, 115
6, 240206, Control_c, 1, 11, 116
6, 240274, Control_c, 1, 11, 117
6, 240343, Control_c, 1, 11, 118
6, 240411, Control_c, 1, 11, 119
6, 240480, Control_c, 1, 11, 120
6, 240549, Control_c, 1, 11, 121
6, 240617, Control_c, 1, 11, 122
6, 240686, Control_c, 1, 11, 123
6, 240754, Control_c, 1, 11, 124
6, 240823, Control_c, 1, 11, 125
6, 240891, Control_c, 1, 11, 127
6, 240944, Note_on_c, 1, 91, 0
6, 240960, Note_on_c, 1, 91, 76
6, 240960, Note_on_c, 1, 88, 76
6, 243824, Note_on_c, 1, 91, 0
6, 243824, Note_on_c, 1, 88, 0
6, 243840, Note_on_c, 1, 86, 84
6, 243840, Note_on_c, 1, 89, 84
6, 244011, Note_on_c, 1, 86, 0
6, 244011, Note_on_c, 1, 89, 0
6, 244020, Note_on_c, 1, 89, 84
6, 244020, Note_on_c, 1, 86, 84
6, 244071, Note_on_c, 1, 89, 0
6, 244071, Note_on_c, 1, 86, 0
6, 244080, Note_on_c, 1, 89, 84
6, 244080, Note_on_c, 1, 86, 84
6, 244184, Note_on_c, 1, 89, 0
6, 244184, Note_on_c, 1, 86, 0
6, 244200, Note_on_c, 1, 89, 84
6, 244200, Note_on_c, 1, 86, 84
6, 244371, Note_on_c, 1, 89, 0
6, 244371, Note_on_c, 1, 86, 0
6, 244380, Note_on_c, 1, 86, 84
6, 244380, Note_on_c, 1, 89, 84
6, 244431, Note_on_c, 1, 86, 0
6, 244431, Note_on_c, 1, 89, 0
6, 244440, Note_on_c, 1, 89, 84
6, 244440, Note_on_c, 1, 86, 84
6, 244544, Note_on_c, 1, 89, 0
6, 244544, Note_on_c, 1, 86, 0
6, 244560, Note_on_c, 1, 86, 84
6, 244560, Note_on_c, 1, 89, 84
6, 244731, Note_on_c, 1, 86, 0
6, 244731, Note_on_c, 1, 89, 0
6, 244740, Note_on_c, 1, 86, 84
6, 244740, Note_on_c, 1, 89, 84
6, 244791, Note_on_c, 1, 86, 0
6, 244791, Note_on_c, 1, 89, 0
6, 244800, Note_on_c, 1, 89, 84
6, 244800, Note_on_c, 1, 86, 84
6, 244904, Note_on_c, 1, 89, 0
6, 244904, Note_on_c, 1, 86, 0
6, 244920, Note_on_c, 1, 86, 84
6, 244920, Note_on_c, 1, 89, 84
6, 245091, Note_on_c, 1, 86, 0
6, 245091, Note_on_c, 1, 89, 0
6, 245100, Note_on_c, 1, 89, 84
6, 245100, Note_on_c, 1, 86, 84
6, 245151, Note_on_c, 1, 89, 0
6, 245151, Note_on_c, 1, 86, 0
6, 245160, Note_on_c, 1, 86, 84
6, 245160, Note_on_c, 1, 89, 84
6, 245264, Note_on_c, 1, 86, 0
6, 245264, Note_on_c, 1, 89, 0
6, 245280, Note_on_c, 1, 89, 76
6, 245280, Note_on_c, 1, 86, 76
6, 248144, Note_on_c, 1, 89, 0
6, 248144, Note_on_c, 1, 86, 0
6, 248160, Note_on_c, 1, 88, 84
6, 248160, Note_on_c, 1, 83, 84
6, 248331, Note_on_c, 1, 88, 0
6, 248331, Note_on_c, 1, 83, 0
6, 248340, Note_on_c, 1, 83, 84
6, 248340, Note_on_c, 1, 88, 84
6, 248391, Note_on_c, 1, 83, 0
6, 248391, Note_on_c, 1, 88, 0
6, 248400, Note_on_c, 1, 83, 84
6, 248400, Note_on_c, 1, 88, 84
6, 248504, Note_on_c, 1, 83, 0
6, 248504, Note_on_c, 1, 88, 0
6, 248520, Note_on_c, 1, 88, 84
6, 248520, Note_on_c, 1, 83, 84
6, 248691, Note_on_c, 1, 88, 0
6, 248691, Note_on_c, 1, 83, 0
6, 248700, Note_on_c, 1, 88, 84
6, 248700, Note_on_c, 1, 83, 84
6, 248751, Note_on_c, 1, 88, 0
6, 248751, Note_on_c, 1, 83, 0
6, 248760, Note_on_c, 1, 83, 84
6, 248760, Note_on_c, 1, 88, 84
6, 248864, Note_on_c, 1, 83, 0
6, 248864, Note_on_c, 1, 88, 0
6, 248880, Note_on_c, 1, 88, 84
6, 248880, Note_on_c, 1, 83, 84
6, 249051, Note_on_c, 1, 88, 0
6, 249051, Note_on_c, 1, 83, 0
6, 249060, Note_on_c, 1, 83, 84
6, 249060, Note_on_c, 1, 88, 84
6, 249111, Note_on_c, 1, 83, 0
6, 249111, Note_on_c, 1, 88, 0
6, 249120, Note_on_c, 1, 88, 84
6, 249120, Note_on_c, 1, 83, 84
6, 249224, Note_on_c, 1, 88, 0
6, 249224, Note_on_c, 1, 83, 0
6, 249240, Note_on_c, 1, 88, 84
6, 249240, Note_on_c, 1, 83, 84
6, 249411, Note_on_c, 1, 88, 0
6, 249411, Note_on_c, 1, 83, 0
6, 249420, Note_on_c, 1, 83, 84
6, 249420, Note_on_c, 1, 88, 84
6, 249471, Note_on_c, 1, 83, 0
6, 249471, Note_on_c, 1, 88, 0
6, 249480, Note_on_c, 1, 88, 84
6, 249480, Note_on_c, 1, 83, 84
6, 249584, Note_on_c, 1, 88, 0
6, 249584, Note_on_c, 1, 83, 0
6, 249600, Note_on_c, 1, 88, 84
6, 249600, Note_on_c, 1, 83, 84
6, 252719, Note_on_c, 1, 88, 0
6, 252719, Note_on_c, 1, 83, 0
6, 252840, Note_on_c, 1, 76, 92
6, 252840, Note_on_c, 1, 88, 92
6, 252900, Control_c, 1, 11, 112
6, 253011, Note_on_c, 1, 76, 0
6, 253011, Note_on_c, 1, 88, 0
6, 253020, Note_on_c, 1, 76, 92
6, 253020, Note_on_c, 1, 88, 92
6, 253071, Note_on_c, 1, 76, 0
6, 253071, Note_on_c, 1, 88, 0
6, 253080, Note_on_c, 1, 76, 92
6, 253080, Note_on_c, 1, 88, 92
6, 253199, Note_on_c, 1, 76, 0
6, 253199, Note_on_c, 1, 88, 0
6, 253440, Control_c, 1, 11, 127
6, 253560, Note_on_c, 1, 89, 92
6, 253560, Note_on_c, 1, 77, 92
6, 253620, Control_c, 1, 11, 112
6, 253731, Note_on_c, 1, 89, 0
6, 253731, Note_on_c, 1, 77, 0
6, 253740, Note_on_c, 1, 77, 92
6, 253740, Note_on_c, 1, 89, 92
6, 253791, Note_on_c, 1, 77, 0
6, 253791, Note_on_c, 1, 89, 0
6, 253800, Note_on_c, 1, 77, 92
6, 253800, Note_on_c, 1, 89, 92
6, 253919, Note_on_c, 1, 77, 0
6, 253919, Note_on_c, 1, 89, 0
6, 254160, Control_c, 1, 11, 127
6, 254280, Note_on_c, 1, 89, 92
6, 254280, Note_on_c, 1, 77, 92
6, 254340, Control_c, 1, 11, 112
6, 254451, Note_on_c, 1, 89, 0
6, 254451, Note_on_c, 1, 77, 0
6, 254460, Note_on_c, 1, 89, 92
6, 254460, Note_on_c, 1, 77, 92
6, 254511, Note_on_c, 1, 89, 0
6, 254511, Note_on_c, 1, 77, 0
6, 254520, Note_on_c, 1, 89, 92
6, 254520, Note_on_c, 1, 77, 92
6, 254624, Note_on_c, 1, 89, 0
6, 254624, Note_on_c, 1, 77, 0
6, 254638, Control_c, 1, 11, 127
6, 254640, Note_on_c, 1, 80, 52
6, 255359, Note_on_c, 1, 80, 0
6, 255360, Note_on_c, 1, 81, 52
6, 256011, Note_on_c, 1, 81, 0
6, 256020, Note_on_c, 1, 84, 52
6, 256071, Note_on_c, 1, 84, 0
6, 256080, Note_on_c, 1, 84, 52
6, 256611, Note_on_c, 1, 84, 0
6, 256620, Note_on_c, 1, 82, 52
6, 256671, Note_on_c, 1, 82, 0
6, 256680, Note_on_c, 1, 81, 52
6, 256784, Note_on_c, 1, 81, 0
6, 256800, Note_on_c, 1, 82, 52
6, 257039, Note_on_c, 1, 82, 0
6, 257160, Note_on_c, 1, 81, 52
6, 257399, Note_on_c, 1, 81, 0
6, 257520, Note_on_c, 1, 79, 52
6, 257759, Note_on_c, 1, 79, 0
6, 257880, Note_on_c, 1, 77, 52
6, 258119, Note_on_c, 1, 77, 0
6, 260340, Note_on_c, 1, 86, 52
6, 260391, Note_on_c, 1, 86, 0
6, 260400, Note_on_c, 1, 86, 52
6, 260931, Note_on_c, 1, 86, 0
6, 260940, Note_on_c, 1, 84, 52
6, 260984, Note_on_c, 1, 84, 0
6, 261000, Note_on_c, 1, 82, 52
6, 261089, Note_on_c, 1, 82, 0
6, 261120, Note_on_c, 1, 84, 52
6, 261359, Note_on_c, 1, 84, 0
6, 261480, Note_on_c, 1, 82, 52
6, 261719, Note_on_c, 1, 82, 0
6, 261840, Note_on_c, 1, 81, 52
6, 262079, Note_on_c, 1, 81, 0
6, 262200, Note_on_c, 1, 79, 52
6, 262439, Note_on_c, 1, 79, 0
6, 262920, Note_on_c, 1, 81, 52
6, 263091, Note_on_c, 1, 81, 0
6, 263100, Note_on_c, 1, 85, 52
6, 263151, Note_on_c, 1, 85, 0
6, 263160, Note_on_c, 1, 86, 52
6, 263264, Note_on_c, 1, 86, 0
6, 263280, Note_on_c, 1, 88, 52
6, 263519, Note_on_c, 1, 88, 0
6, 263640, Note_on_c, 1, 86, 52
6, 263879, Note_on_c, 1, 86, 0
6, 264720, Note_on_c, 1, 88, 52
6, 264959, Note_on_c, 1, 88, 0
6, 265080, Note_on_c, 1, 86, 52
6, 265319, Note_on_c, 1, 86, 0
6, 270660, Note_on_c, 1, 84, 62
6, 270711, Note_on_c, 1, 84, 0
6, 270720, Note_on_c, 1, 84, 62
6, 270824, Note_on_c, 1, 84, 0
6, 270840, Note_on_c, 1, 84, 63
6, 271011, Note_on_c, 1, 84, 0
6, 271020, Note_on_c, 1, 84, 63
6, 271071, Note_on_c, 1, 84, 0
6, 271080, Note_on_c, 1, 84, 63
6, 271184, Note_on_c, 1, 84, 0
6, 271200, Note_on_c, 1, 84, 64
6, 271371, Note_on_c, 1, 84, 0
6, 271380, Note_on_c, 1, 84, 64
6, 271431, Note_on_c, 1, 84, 0
6, 271440, Note_on_c, 1, 84, 64
6, 271544, Note_on_c, 1, 84, 0
6, 271560, Note_on_c, 1, 84, 64
6, 271731, Note_on_c, 1, 84, 0
6, 271740, Note_on_c, 1, 84, 65
6, 271791, Note_on_c, 1, 84, 0
6, 271800, Note_on_c, 1, 84, 65
6, 271904, Note_on_c, 1, 84, 0
6, 271920, Note_on_c, 1, 84, 65
6, 272091, Note_on_c, 1, 84, 0
6, 272100, Note_on_c, 1, 84, 66
6, 272151, Note_on_c, 1, 84, 0
6, 272160, Note_on_c, 1, 84, 66
6, 272264, Note_on_c, 1, 84, 0
6, 272280, Note_on_c, 1, 84, 66
6, 272451, Note_on_c, 1, 84, 0
6, 272460, Note_on_c, 1, 84, 67
6, 272511, Note_on_c, 1, 84, 0
6, 272520, Note_on_c, 1, 84, 67
6, 272624, Note_on_c, 1, 84, 0
6, 272640, Note_on_c, 1, 84, 67
6, 272811, Note_on_c, 1, 84, 0
6, 272820, Note_on_c, 1, 84, 67
6, 272871, Note_on_c, 1, 84, 0
6, 272880, Note_on_c, 1, 84, 68
6, 272984, Note_on_c, 1, 84, 0
6, 273000, Note_on_c, 1, 84, 68
6, 273171, Note_on_c, 1, 84, 0
6, 273180, Note_on_c, 1, 84, 68
6, 273231, Note_on_c, 1, 84, 0
6, 273240, Note_on_c, 1, 84, 68
6, 273344, Note_on_c, 1, 84, 0
6, 273360, Note_on_c, 1, 84, 69
6, 273531, Note_on_c, 1, 84, 0
6, 273540, Note_on_c, 1, 86, 69
6, 273591, Note_on_c, 1, 86, 0
6, 273600, Note_on_c, 1, 86, 69
6, 273704, Note_on_c, 1, 86, 0
6, 273720, Note_on_c, 1, 86, 70
6, 273891, Note_on_c, 1, 86, 0
6, 273900, Note_on_c, 1, 86, 70
6, 273951, Note_on_c, 1, 86, 0
6, 273960, Note_on_c, 1, 86, 70
6, 274064, Note_on_c, 1, 86, 0
6, 274080, Note_on_c, 1, 86, 70
6, 274251, Note_on_c, 1, 86, 0
6, 274260, Note_on_c, 1, 86, 71
6, 274311, Note_on_c, 1, 86, 0
6, 274320, Note_on_c, 1, 86, 71
6, 274424, Note_on_c, 1, 86, 0
6, 274440, Note_on_c, 1, 86, 71
6, 274611, Note_on_c, 1, 86, 0
6, 274620, Note_on_c, 1, 86, 72
6, 274671, Note_on_c, 1, 86, 0
6, 274680, Note_on_c, 1, 86, 72
6, 274784, Note_on_c, 1, 86, 0
6, 274800, Note_on_c, 1, 86, 72
6, 274971, Note_on_c, 1, 86, 0
6, 274980, Note_on_c, 1, 86, 73
6, 275031, Note_on_c, 1, 86, 0
6, 275040, Note_on_c, 1, 86, 73
6, 275144, Note_on_c, 1, 86, 0
6, 275160, Note_on_c, 1, 86, 73
6, 275331, Note_on_c, 1, 86, 0
6, 275340, Note_on_c, 1, 86, 73
6, 275391, Note_on_c, 1, 86, 0
6, 275400, Note_on_c, 1, 86, 74
6, 275504, Note_on_c, 1, 86, 0
6, 275520, Note_on_c, 1, 86, 74
6, 275691, Note_on_c, 1, 86, 0
6, 275700, Note_on_c, 1, 86, 74
6, 275751, Note_on_c, 1, 86, 0
6, 275760, Note_on_c, 1, 86, 74
6, 275864, Note_on_c, 1, 86, 0
6, 275880, Note_on_c, 1, 86, 75
6, 276051, Note_on_c, 1, 86, 0
6, 276060, Note_on_c, 1, 86, 75
6, 276111, Note_on_c, 1, 86, 0
6, 276120, Note_on_c, 1, 86, 75
6, 276224, Note_on_c, 1, 86, 0
6, 276240, Note_on_c, 1, 86, 76
6, 276479, Note_on_c, 1, 86, 0
6, 276600, Note_on_c, 1, 79, 76
6, 276600, Note_on_c, 1, 86, 76
6, 276719, Note_on_c, 1, 79, 0
6, 276719, Note_on_c, 1, 86, 0
6, 276780, Note_on_c, 1, 79, 76
6, 276780, Note_on_c, 1, 86, 76
6, 276831, Note_on_c, 1, 79, 0
6, 276831, Note_on_c, 1, 86, 0
6, 276840, Note_on_c, 1, 85, 76
6, 276840, Note_on_c, 1, 79, 76
6, 276944, Note_on_c, 1, 85, 0
6, 276944, Note_on_c, 1, 79, 0
6, 276960, Note_on_c, 1, 86, 76
6, 276960, Note_on_c, 1, 79, 76
6, 277199, Note_on_c, 1, 86, 0
6, 277199, Note_on_c, 1, 79, 0
6, 277320, Note_on_c, 1, 79, 76
6, 277320, Note_on_c, 1, 86, 76
6, 277439, Note_on_c, 1, 79, 0
6, 277439, Note_on_c, 1, 86, 0
6, 277500, Note_on_c, 1, 86, 76
6, 277500, Note_on_c, 1, 79, 76
6, 277551, Note_on_c, 1, 86, 0
6, 277551, Note_on_c, 1, 79, 0
6, 277560, Note_on_c, 1, 87, 76
6, 277560, Note_on_c, 1, 79, 76
6, 277664, Note_on_c, 1, 87, 0
6, 277664, Note_on_c, 1, 79, 0
6, 277680, Note_on_c, 1, 88, 76
6, 277680, Note_on_c, 1, 79, 76
6, 277919, Note_on_c, 1, 88, 0
6, 277919, Note_on_c, 1, 79, 0
6, 278040, Note_on_c, 1, 88, 76
6, 278040, Note_on_c, 1, 79, 76
6, 278159, Note_on_c, 1, 88, 0
6, 278159, Note_on_c, 1, 79, 0
6, 278220, Note_on_c, 1, 88, 76
6, 278220, Note_on_c, 1, 79, 76
6, 278271, Note_on_c, 1, 88, 0
6, 278271, Note_on_c, 1, 79, 0
6, 278280, Note_on_c, 1, 87, 76
6, 278280, Note_on_c, 1, 79, 76
6, 278384, Note_on_c, 1, 87, 0
6, 278384, Note_on_c, 1, 79, 0
6, 278400, Note_on_c, 1, 88, 76
6, 278400, Note_on_c, 1, 79, 76
6, 278639, Note_on_c, 1, 88, 0
6, 278639, Note_on_c, 1, 79, 0
6, 278760, Note_on_c, 1, 88, 76
6, 278879, Note_on_c, 1, 88, 0
6, 278940, Note_on_c, 1, 93, 76
6, 278940, Note_on_c, 1, 88, 76
6, 278991, Note_on_c, 1, 93, 0
6, 278991, Note_on_c, 1, 88, 0
6, 279000, Note_on_c, 1, 88, 76
6, 279000, Note_on_c, 1, 93, 76
6, 279104, Note_on_c, 1, 88, 0
6, 279104, Note_on_c, 1, 93, 0
6, 279120, Note_on_c, 1, 89, 84
6, 279120, Note_on_c, 1, 93, 84
6, 279239, Note_on_c, 1, 89, 0
6, 279239, Note_on_c, 1, 93, 0
6, 279300, Note_on_c, 1, 93, 84
6, 279300, Note_on_c, 1, 81, 84
6, 279351, Note_on_c, 1, 93, 0
6, 279351, Note_on_c, 1, 81, 0
6, 279360, Note_on_c, 1, 81, 84
6, 279360, Note_on_c, 1, 93, 84
6, 279464, Note_on_c, 1, 81, 0
6, 279464, Note_on_c, 1, 93, 0
6, 279480, Note_on_c, 1, 93, 84
6, 279480, Note_on_c, 1, 81, 84
6, 279599, Note_on_c, 1, 93, 0
6, 279599, Note_on_c, 1, 81, 0
6, 279660, Note_on_c, 1, 81, 84
6, 279660, Note_on_c, 1, 93, 84
6, 279711, Note_on_c, 1, 81, 0
6, 279711, Note_on_c, 1, 93, 0
6, 279720, Note_on_c, 1, 81, 84
6, 279720, Note_on_c, 1, 93, 84
6, 279824, Note_on_c, 1, 81, 0
6, 279824, Note_on_c, 1, 93, 0
6, 279840, Note_on_c, 1, 81, 84
6, 279840, Note_on_c, 1, 93, 84
6, 279959, Note_on_c, 1, 81, 0
6, 279959, Note_on_c, 1, 93, 0
6, 280020, Note_on_c, 1, 81, 84
6, 280020, Note_on_c, 1, 93, 84
6, 280071, Note_on_c, 1, 81, 0
6, 280071, Note_on_c, 1, 93, 0
6, 280080, Note_on_c, 1, 93, 84
6, 280080, Note_on_c, 1, 81, 84
6, 280184, Note_on_c, 1, 93, 0
6, 280184, Note_on_c, 1, 81, 0
6, 280200, Note_on_c, 1, 93, 84
6, 280200, Note_on_c, 1, 81, 84
6, 280319, Note_on_c, 1, 93, 0
6, 280319, Note_on_c, 1, 81, 0
6, 280380, Note_on_c, 1, 93, 84
6, 280380, Note_on_c, 1, 81, 84
6, 280431, Note_on_c, 1, 93, 0
6, 280431, Note_on_c, 1, 81, 0
6, 280440, Note_on_c, 1, 93, 84
6, 280440, Note_on_c, 1, 81, 84
6, 280544, Note_on_c, 1, 93, 0
6, 280544, Note_on_c, 1, 81, 0
6, 280560, Note_on_c, 1, 81, 84
6, 280560, Note_on_c, 1, 93, 84
6, 280679, Note_on_c, 1, 81, 0
6, 280679, Note_on_c, 1, 93, 0
6, 280740, Note_on_c, 1, 77, 84
6, 280740, Note_on_c, 1, 89, 84
6, 280791, Note_on_c, 1, 77, 0
6, 280791, Note_on_c, 1, 89, 0
6, 280800, Note_on_c, 1, 79, 84
6, 280800, Note_on_c, 1, 91, 84
6, 280904, Note_on_c, 1, 79, 0
6, 280904, Note_on_c, 1, 91, 0
6, 280920, Note_on_c, 1, 81, 84
6, 280920, Note_on_c, 1, 93, 84
6, 281039, Note_on_c, 1, 81, 0
6, 281039, Note_on_c, 1, 93, 0
6, 281100, Note_on_c, 1, 86, 84
6, 281151, Note_on_c, 1, 86, 0
6, 281160, Note_on_c, 1, 88, 84
6, 281264, Note_on_c, 1, 88, 0
6, 281280, Note_on_c, 1, 89, 84
6, 281399, Note_on_c, 1, 89, 0
6, 281460, Note_on_c, 1, 77, 84
6, 281511, Note_on_c, 1, 77, 0
6, 281520, Note_on_c, 1, 79, 84
6, 281624, Note_on_c, 1, 79, 0
6, 281640, Note_on_c, 1, 81, 84
6, 281759, Note_on_c, 1, 81, 0
6, 281820, Note_on_c, 1, 81, 84
6, 281820, Note_on_c, 1, 93, 84
6, 281871, Note_on_c, 1, 81, 0
6, 281871, Note_on_c, 1, 93, 0
6, 281880, Note_on_c, 1, 81, 84
6, 281880, Note_on_c, 1, 93, 84
6, 281984, Note_on_c, 1, 81, 0
6, 281984, Note_on_c, 1, 93, 0
6, 282000, Note_on_c, 1, 93, 84
6, 282000, Note_on_c, 1, 81, 84
6, 282119, Note_on_c, 1, 93, 0
6, 282119, Note_on_c, 1, 81, 0
6, 282180, Note_on_c, 1, 81, 84
6, 282180, Note_on_c, 1, 93, 84
6, 282231, Note_on_c, 1, 81, 0
6, 282231, Note_on_c, 1, 93, 0
6, 282240, Note_on_c, 1, 81, 84
6, 282240, Note_on_c, 1, 93, 84
6, 282344, Note_on_c, 1, 81, 0
6, 282344, Note_on_c, 1, 93, 0
6, 282360, Note_on_c, 1, 93, 84
6, 282360, Note_on_c, 1, 81, 84
6, 282479, Note_on_c, 1, 93, 0
6, 282479, Note_on_c, 1, 81, 0
6, 282540, Note_on_c, 1, 93, 84
6, 282540, Note_on_c, 1, 81, 84
6, 282591, Note_on_c, 1, 93, 0
6, 282591, Note_on_c, 1, 81, 0
6, 282600, Note_on_c, 1, 81, 84
6, 282600, Note_on_c, 1, 93, 84
6, 282704, Note_on_c, 1, 81, 0
6, 282704, Note_on_c, 1, 93, 0
6, 282720, Note_on_c, 1, 93, 84
6, 282720, Note_on_c, 1, 81, 84
6, 282839, Note_on_c, 1, 93, 0
6, 282839, Note_on_c, 1, 81, 0
6, 282900, Note_on_c, 1, 81, 84
6, 282900, Note_on_c, 1, 93, 84
6, 282951, Note_on_c, 1, 81, 0
6, 282951, Note_on_c, 1, 93, 0
6, 282960, Note_on_c, 1, 93, 84
6, 282960, Note_on_c, 1, 81, 84
6, 283064, Note_on_c, 1, 93, 0
6, 283064, Note_on_c, 1, 81, 0
6, 283080, Note_on_c, 1, 81, 84
6, 283080, Note_on_c, 1, 93, 84
6, 283199, Note_on_c, 1, 81, 0
6, 283199, Note_on_c, 1, 93, 0
6, 283260, Note_on_c, 1, 93, 84
6, 283260, Note_on_c, 1, 81, 84
6, 283311, Note_on_c, 1, 93, 0
6, 283311, Note_on_c, 1, 81, 0
6, 283320, Note_on_c, 1, 93, 84
6, 283320, Note_on_c, 1, 81, 84
6, 283424, Note_on_c, 1, 93, 0
6, 283424, Note_on_c, 1, 81, 0
6, 283440, Note_on_c, 1, 81, 84
6, 283440, Note_on_c, 1, 93, 84
6, 283559, Note_on_c, 1, 81, 0
6, 283559, Note_on_c, 1, 93, 0
6, 283620, Note_on_c, 1, 84, 84
6, 283671, Note_on_c, 1, 84, 0
6, 283680, Note_on_c, 1, 86, 84
6, 283784, Note_on_c, 1, 86, 0
6, 283800, Note_on_c, 1, 88, 84
6, 283919, Note_on_c, 1, 88, 0
6, 283980, Note_on_c, 1, 81, 84
6, 284031, Note_on_c, 1, 81, 0
6, 284040, Note_on_c, 1, 83, 84
6, 284144, Note_on_c, 1, 83, 0
6, 284160, Note_on_c, 1, 84, 84
6, 284279, Note_on_c, 1, 84, 0
6, 284340, Note_on_c, 1, 84, 84
6, 284391, Note_on_c, 1, 84, 0
6, 284400, Note_on_c, 1, 86, 84
6, 284504, Note_on_c, 1, 86, 0
6, 284520, Note_on_c, 1, 88, 84
6, 284639, Note_on_c, 1, 88, 0
6, 284700, Note_on_c, 1, 88, 84
6, 284751, Note_on_c, 1, 88, 0
6, 284760, Note_on_c, 1, 88, 84
6, 284864, Note_on_c, 1, 88, 0
6, 284880, Note_on_c, 1, 88, 84
6, 284999, Note_on_c, 1, 88, 0
6, 285060, Note_on_c, 1, 88, 84
6, 285111, Note_on_c, 1, 88, 0
6, 285120, Note_on_c, 1, 88, 84
6, 285224, Note_on_c, 1, 88, 0
6, 285240, Note_on_c, 1, 88, 84
6, 285359, Note_on_c, 1, 88, 0
6, 285420, Note_on_c, 1, 88, 84
6, 285471, Note_on_c, 1, 88, 0
6, 285480, Note_on_c, 1, 88, 84
6, 285584, Note_on_c, 1, 88, 0
6, 285600, Note_on_c, 1, 88, 84
6, 285719, Note_on_c, 1, 88, 0
6, 285780, Note_on_c, 1, 88, 84
6, 285831, Note_on_c, 1, 88, 0
6, 285840, Note_on_c, 1, 88, 84
6, 285944, Note_on_c, 1, 88, 0
6, 285960, Note_on_c, 1, 88, 84
6, 286079, Note_on_c, 1, 88, 0
6, 286140, Note_on_c, 1, 88, 84
6, 286191, Note_on_c, 1, 88, 0
6, 286200, Note_on_c, 1, 88, 84
6, 286304, Note_on_c, 1, 88, 0
6, 286320, Note_on_c, 1, 88, 84
6, 286439, Note_on_c, 1, 88, 0
6, 286500, Note_on_c, 1, 86, 84
6, 286551, Note_on_c, 1, 86, 0
6, 286560, Note_on_c, 1, 88, 84
6, 286664, Note_on_c, 1, 88, 0
6, 286680, Note_on_c, 1, 89, 84
6, 286919, Note_on_c, 1, 89, 0
6, 287220, Note_on_c, 1, 83, 84
6, 287271, Note_on_c, 1, 83, 0
6, 287280, Note_on_c, 1, 84, 84
6, 287384, Note_on_c, 1, 84, 0
6, 287400, Note_on_c, 1, 86, 84
6, 287639, Note_on_c, 1, 86, 0
6, 287940, Note_on_c, 1, 80, 84
6, 287991, Note_on_c, 1, 80, 0
6, 288000, Note_on_c, 1, 81, 84
6, 288104, Note_on_c, 1, 81, 0
6, 288120, Note_on_c, 1, 83, 84
6, 288359, Note_on_c, 1, 83, 0
6, 288660, Note_on_c, 1, 83, 84
6, 288711, Note_on_c, 1, 83, 0
6, 288720, Note_on_c, 1, 84, 84
6, 288824, Note_on_c, 1, 84, 0
6, 288840, Note_on_c, 1, 86, 84
6, 289079, Note_on_c, 1, 86, 0
6, 292260, Note_on_c, 1, 85, 84
6, 292311, Note_on_c, 1, 85, 0
6, 292320, Note_on_c, 1, 86, 84
6, 292424, Note_on_c, 1, 86, 0
6, 292440, Note_on_c, 1, 88, 84
6, 292559, Note_on_c, 1, 88, 0
6, 292620, Note_on_c, 1, 85, 84
6, 292671, Note_on_c, 1, 85, 0
6, 292680, Note_on_c, 1, 86, 84
6, 292784, Note_on_c, 1, 86, 0
6, 292800, Note_on_c, 1, 88, 84
6, 292919, Note_on_c, 1, 88, 0
6, 292980, Note_on_c, 1, 85, 84
6, 293031, Note_on_c, 1, 85, 0
6, 293040, Note_on_c, 1, 86, 84
6, 293144, Note_on_c, 1, 86, 0
6, 293160, Note_on_c, 1, 88, 84
6, 293279, Note_on_c, 1, 88, 0
6, 293340, Note_on_c, 1, 85, 84
6, 293391, Note_on_c, 1, 85, 0
6, 293400, Note_on_c, 1, 86, 84
6, 293504, Note_on_c, 1, 86, 0
6, 293520, Note_on_c, 1, 88, 88
6, 293691, Note_on_c, 1, 88, 0
6, 293700, Note_on_c, 1, 88, 88
6, 293751, Note_on_c, 1, 88, 0
6, 293760, Note_on_c, 1, 88, 88
6, 293864, Note_on_c, 1, 88, 0
6, 293880, Note_on_c, 1, 88, 88
6, 294051, Note_on_c, 1, 88, 0
6, 294060, Note_on_c, 1, 88, 88
6, 294111, Note_on_c, 1, 88, 0
6, 294120, Note_on_c, 1, 88, 88
6, 294224, Note_on_c, 1, 88, 0
6, 294240, Note_on_c, 1, 88, 88
6, 294411, Note_on_c, 1, 88, 0
6, 294420, Note_on_c, 1, 88, 88
6, 294471, Note_on_c, 1, 88, 0
6, 294480, Note_on_c, 1, 88, 88
6, 294584, Note_on_c, 1, 88, 0
6, 294600, Note_on_c, 1, 88, 88
6, 294771, Note_on_c, 1, 88, 0
6, 294780, Note_on_c, 1, 88, 88
6, 294831, Note_on_c, 1, 88, 0
6, 294840, Note_on_c, 1, 88, 88
6, 294944, Note_on_c, 1, 88, 0
6, 294960, Note_on_c, 1, 88, 88
6, 295131, Note_on_c, 1, 88, 0
6, 295140, Note_on_c, 1, 88, 88
6, 295191, Note_on_c, 1, 88, 0
6, 295200, Note_on_c, 1, 88, 88
6, 295304, Note_on_c, 1, 88, 0
6, 295320, Note_on_c, 1, 88, 88
6, 295491, Note_on_c, 1, 88, 0
6, 295500, Note_on_c, 1, 88, 88
6, 295551, Note_on_c, 1, 88, 0
6, 295560, Note_on_c, 1, 88, 88
6, 295664, Note_on_c, 1, 88, 0
6, 295680, Note_on_c, 1, 93, 88
6, 295680, Note_on_c, 1, 88, 88
6, 295851, Note_on_c, 1, 93, 0
6, 295851, Note_on_c, 1, 88, 0
6, 295860, Note_on_c, 1, 93, 88
6, 295860, Note_on_c, 1, 88, 88
6, 295911, Note_on_c, 1, 93, 0
6, 295911, Note_on_c, 1, 88, 0
6, 295920, Note_on_c, 1, 88, 88
6, 295920, Note_on_c, 1, 93, 88
6, 296024, Note_on_c, 1, 88, 0
6, 296024, Note_on_c, 1, 93, 0
6, 296040, Note_on_c, 1, 88, 88
6, 296040, Note_on_c, 1, 93, 88
6, 296211, Note_on_c, 1, 88, 0
6, 296211, Note_on_c, 1, 93, 0
6, 296220, Note_on_c, 1, 93, 88
6, 296220, Note_on_c, 1, 88, 88
6, 296271, Note_on_c, 1, 93, 0
6, 296271, Note_on_c, 1, 88, 0
6, 296280, Note_on_c, 1, 88, 88
6, 296280, Note_on_c, 1, 93, 88
6, 296384, Note_on_c, 1, 88, 0
6, 296384, Note_on_c, 1, 93, 0
6, 296400, Note_on_c, 1, 88, 84
6, 296400, Note_on_c, 1, 93, 84
6, 296639, Note_on_c, 1, 88, 0
6, 296639, Note_on_c, 1, 93, 0
6, 297780, Note_on_c, 1, 93, 84
6, 297780, Note_on_c, 1, 88, 84
6, 297831, Note_on_c, 1, 93, 0
6, 297831, Note_on_c, 1, 88, 0
6, 297840, Note_on_c, 1, 93, 84
6, 297840, Note_on_c, 1, 88, 84
6, 298079, Note_on_c, 1, 93, 0
6, 298079, Note_on_c, 1, 88, 0
6, 299220, Note_on_c, 1, 88, 84
6, 299220, Note_on_c, 1, 93, 84
6, 299271, Note_on_c, 1, 88, 0
6, 299271, Note_on_c, 1, 93, 0
6, 299280, Note_on_c, 1, 88, 84
6, 299280, Note_on_c, 1, 93, 84
6, 299519, Note_on_c, 1, 88, 0
6, 299519, Note_on_c, 1, 93, 0
6, 300660, Note_on_c, 1, 88, 84
6, 300660, Note_on_c, 1, 93, 84
6, 300711, Note_on_c, 1, 88, 0
6, 300711, Note_on_c, 1, 93, 0
6, 300720, Note_on_c, 1, 88, 84
6, 300720, Note_on_c, 1, 93, 84
6, 300959, Note_on_c, 1, 88, 0
6, 300959, Note_on_c, 1, 93, 0
6, 301020, Note_on_c, 1, 88, 84
6, 301020, Note_on_c, 1, 93, 84
6, 301071, Note_on_c, 1, 88, 0
6, 301071, Note_on_c, 1, 93, 0
6, 301080, Note_on_c, 1, 93, 84
6, 301080, Note_on_c, 1, 88, 84
6, 301319, Note_on_c, 1, 93, 0
6, 301319, Note_on_c, 1, 88, 0
6, 301380, Note_on_c, 1, 88, 84
6, 301380, Note_on_c, 1, 92, 84
6, 301431, Note_on_c, 1, 88, 0
6, 301431, Note_on_c, 1, 92, 0
6, 301440, Note_on_c, 1, 88, 84
6, 301440, Note_on_c, 1, 93, 84
6, 301679, Note_on_c, 1, 88, 0
6, 301679, Note_on_c, 1, 93, 0
6, 301740, Note_on_c, 1, 90, 84
6, 301740, Note_on_c, 1, 93, 84
6, 301791, Note_on_c, 1, 90, 0
6, 301791, Note_on_c, 1, 93, 0
6, 301800, Note_on_c, 1, 90, 84
6, 301800, Note_on_c, 1, 93, 84
6, 302039, Note_on_c, 1, 90, 0
6, 302039, Note_on_c, 1, 93, 0
6, 302100, Note_on_c, 1, 93, 84
6, 302100, Note_on_c, 1, 90, 84
6, 302151, Note_on_c, 1, 93, 0
6, 302151, Note_on_c, 1, 90, 0
6, 302160, Note_on_c, 1, 90, 84
6, 302160, Note_on_c, 1, 93, 84
6, 302399, Note_on_c, 1, 90, 0
6, 302399, Note_on_c, 1, 93, 0
6, 303480, Note_on_c, 1, 76, 84
6, 303480, Note_on_c, 1, 88, 84
6, 303569, Note_on_c, 1, 76, 0
6, 303569, Note_on_c, 1, 88, 0
6, 303600, Note_on_c, 1, 78, 92
6, 303600, Note_on_c, 1, 90, 92
6, 303719, Note_on_c, 1, 78, 0
6, 303719, Note_on_c, 1, 90, 0
6, 303720, Note_on_c, 1, 88, 84
6, 303720, Note_on_c, 1, 76, 84
6, 303824, Note_on_c, 1, 88, 0
6, 303824, Note_on_c, 1, 76, 0
6, 303840, Note_on_c, 1, 85, 84
6, 303840, Note_on_c, 1, 73, 84
6, 303929, Note_on_c, 1, 85, 0
6, 303929, Note_on_c, 1, 73, 0
6, 303960, Note_on_c, 1, 69, 84
6, 303960, Note_on_c, 1, 81, 84
6, 304199, Note_on_c, 1, 69, 0
6, 304199, Note_on_c, 1, 81, 0
6, 304260, Note_on_c, 1, 88, 84
6, 304260, Note_on_c, 1, 93, 84
6, 304311, Note_on_c, 1, 88, 0
6, 304311, Note_on_c, 1, 93, 0
6, 304320, Note_on_c, 1, 93, 84
6, 304320, Note_on_c, 1, 90, 84
6, 304559, Note_on_c, 1, 93, 0
6, 304559, Note_on_c, 1, 90, 0
6, 305640, Note_on_c, 1, 88, 84
6, 305729, Note_on_c, 1, 88, 0
6, 305760, Note_on_c, 1, 90, 92
6, 305879, Note_on_c, 1, 90, 0
6, 305880, Note_on_c, 1, 88, 84
6, 305984, Note_on_c, 1, 88, 0
6, 306000, Note_on_c, 1, 85, 84
6, 306089, Note_on_c, 1, 85, 0
6, 306120, Note_on_c, 1, 81, 84
6, 306359, Note_on_c, 1, 81, 0
6, 306420, Note_on_c, 1, 85, 84
6, 306420, Note_on_c, 1, 88, 84
6, 306471, Note_on_c, 1, 85, 0
6, 306471, Note_on_c, 1, 88, 0
6, 306480, Note_on_c, 1, 83, 84
6, 306480, Note_on_c, 1, 88, 84
6, 306719, Note_on_c, 1, 83, 0
6, 306719, Note_on_c, 1, 88, 0
6, 307140, Note_on_c, 1, 88, 84
6, 307140, Note_on_c, 1, 85, 84
6, 307191, Note_on_c, 1, 88, 0
6, 307191, Note_on_c, 1, 85, 0
6, 307200, Note_on_c, 1, 83, 84
6, 307200, Note_on_c, 1, 88, 84
6, 307439, Note_on_c, 1, 83, 0
6, 307439, Note_on_c, 1, 88, 0
6, 307860, Note_on_c, 1, 85, 84
6, 307860, Note_on_c, 1, 88, 84
6, 307911, Note_on_c, 1, 85, 0
6, 307911, Note_on_c, 1, 88, 0
6, 307920, Note_on_c, 1, 88, 84
6, 307920, Note_on_c, 1, 83, 84
6, 308159, Note_on_c, 1, 88, 0
6, 308159, Note_on_c, 1, 83, 0
6, 308580, Note_on_c, 1, 88, 84
6, 308580, Note_on_c, 1, 85, 84
6, 308631, Note_on_c, 1, 88, 0
6, 308631, Note_on_c, 1, 85, 0
6, 308640, Note_on_c, 1, 88, 84
6, 308640, Note_on_c, 1, 83, 84
6, 308879, Note_on_c, 1, 88, 0
6, 308879, Note_on_c, 1, 83, 0
6, 309300, Note_on_c, 1, 88, 84
6, 309300, Note_on_c, 1, 85, 84
6, 309351, Note_on_c, 1, 88, 0
6, 309351, Note_on_c, 1, 85, 0
6, 309360, Note_on_c, 1, 88, 84
6, 309360, Note_on_c, 1, 85, 84
6, 309599, Note_on_c, 1, 88, 0
6, 309599, Note_on_c, 1, 85, 0
6, 310020, Note_on_c, 1, 88, 84
6, 310020, Note_on_c, 1, 85, 84
6, 310071, Note_on_c, 1, 88, 0
6, 310071, Note_on_c, 1, 85, 0
6, 310080, Note_on_c, 1, 88, 84
6, 310080, Note_on_c, 1, 76, 84
6, 310319, Note_on_c, 1, 88, 0
6, 310319, Note_on_c, 1, 76, 0
6, 310380, Note_on_c, 1, 86, 84
6, 310380, Note_on_c, 1, 88, 84
6, 310431, Note_on_c, 1, 86, 0
6, 310431, Note_on_c, 1, 88, 0
6, 310440, Note_on_c, 1, 86, 84
6, 310440, Note_on_c, 1, 88, 84
6, 310679, Note_on_c, 1, 86, 0
6, 310679, Note_on_c, 1, 88, 0
6, 310740, Note_on_c, 1, 86, 84
6, 310740, Note_on_c, 1, 88, 84
6, 310791, Note_on_c, 1, 86, 0
6, 310791, Note_on_c, 1, 88, 0
6, 310800, Note_on_c, 1, 88, 84
6, 310800, Note_on_c, 1, 86, 84
6, 311039, Note_on_c, 1, 88, 0
6, 311039, Note_on_c, 1, 86, 0
6, 311100, Note_on_c, 1, 86, 84
6, 311100, Note_on_c, 1, 88, 84
6, 311151, Note_on_c, 1, 86, 0
6, 311151, Note_on_c, 1, 88, 0
6, 311160, Note_on_c, 1, 86, 84
6, 311160, Note_on_c, 1, 88, 84
6, 311399, Note_on_c, 1, 86, 0
6, 311399, Note_on_c, 1, 88, 0
6, 311460, Note_on_c, 1, 83, 84
6, 311460, Note_on_c, 1, 86, 84
6, 311511, Note_on_c, 1, 83, 0
6, 311511, Note_on_c, 1, 86, 0
6, 311520, Note_on_c, 1, 83, 84
6, 311520, Note_on_c, 1, 86, 84
6, 311879, Note_on_c, 1, 83, 0
6, 311879, Note_on_c, 1, 86, 0
6, 312180, Note_on_c, 1, 85, 52
6, 312231, Note_on_c, 1, 85, 0
6, 312240, Note_on_c, 1, 85, 52
6, 312599, Note_on_c, 1, 85, 0
6, 314400, Note_on_c, 1, 90, 52
6, 314931, Note_on_c, 1, 90, 0
6, 314940, Note_on_c, 1, 88, 52
6, 314984, Note_on_c, 1, 88, 0
6, 315000, Note_on_c, 1, 86, 52
6, 315089, Note_on_c, 1, 86, 0
6, 315120, Note_on_c, 1, 85, 52
6, 315291, Note_on_c, 1, 85, 0
6, 315300, Note_on_c, 1, 83, 52
6, 315351, Note_on_c, 1, 83, 0
6, 315360, Note_on_c, 1, 81, 52
6, 315464, Note_on_c, 1, 81, 0
6, 315480, Note_on_c, 1, 79, 52
6, 315651, Note_on_c, 1, 79, 0
6, 315660, Note_on_c, 1, 78, 52
6, 315711, Note_on_c, 1, 78, 0
6, 315720, Note_on_c, 1, 76, 52
6, 315824, Note_on_c, 1, 76, 0
6, 315840, Note_on_c, 1, 74, 52
6, 316079, Note_on_c, 1, 74, 0
6, 317280, Note_on_c, 1, 89, 52
6, 317811, Note_on_c, 1, 89, 0
6, 317820, Note_on_c, 1, 86, 52
6, 317871, Note_on_c, 1, 86, 0
6, 317880, Note_on_c, 1, 85, 52
6, 317984, Note_on_c, 1, 85, 0
6, 318000, Note_on_c, 1, 86, 52
6, 318171, Note_on_c, 1, 86, 0
6, 318180, Note_on_c, 1, 85, 52
6, 318231, Note_on_c, 1, 85, 0
6, 318240, Note_on_c, 1, 77, 52
6, 318344, Note_on_c, 1, 77, 0
6, 318360, Note_on_c, 1, 74, 52
6, 318599, Note_on_c, 1, 74, 0
6, 320040, Note_on_c, 1, 77, 52
6, 320144, Note_on_c, 1, 77, 0
6, 320160, Note_on_c, 1, 77, 52
6, 320384, Note_on_c, 1, 77, 0
6, 320400, Note_on_c, 1, 77, 52
6, 320504, Note_on_c, 1, 77, 0
6, 320520, Note_on_c, 1, 77, 52
6, 320691, Note_on_c, 1, 77, 0
6, 320700, Note_on_c, 1, 82, 52
6, 320744, Note_on_c, 1, 82, 0
6, 320760, Note_on_c, 1, 86, 52
6, 320849, Note_on_c, 1, 86, 0
6, 320880, Note_on_c, 1, 86, 52
6, 320999, Note_on_c, 1, 86, 0
6, 321000, Note_on_c, 1, 84, 52
6, 321104, Note_on_c, 1, 84, 0
6, 321120, Note_on_c, 1, 81, 52
6, 321209, Note_on_c, 1, 81, 0
6, 321240, Note_on_c, 1, 77, 52
6, 321479, Note_on_c, 1, 77, 0
6, 325080, Note_on_c, 1, 80, 52
6, 325184, Note_on_c, 1, 80, 0
6, 325200, Note_on_c, 1, 83, 52
6, 325319, Note_on_c, 1, 83, 0
6, 325320, Note_on_c, 1, 81, 52
6, 325424, Note_on_c, 1, 81, 0
6, 325440, Note_on_c, 1, 76, 52
6, 325529, Note_on_c, 1, 76, 0
6, 325560, Note_on_c, 1, 72, 52
6, 325799, Note_on_c, 1, 72, 0
6, 325800, Control_c, 1, 11, 64
6, 325920, Control_c, 1, 11, 64
6, 325920, Note_on_c, 1, 88, 84
6, 325920, Note_on_c, 1, 84, 84
6, 325966, Control_c, 1, 11, 65
6, 326011, Control_c, 1, 11, 66
6, 326057, Control_c, 1, 11, 67
6, 326103, Control_c, 1, 11, 68
6, 326149, Control_c, 1, 11, 69
6, 326194, Control_c, 1, 11, 70
6, 326240, Control_c, 1, 11, 71
6, 326286, Control_c, 1, 11, 72
6, 326331, Control_c, 1, 11, 73
6, 326377, Control_c, 1, 11, 74
6, 326423, Control_c, 1, 11, 75
6, 326469, Control_c, 1, 11, 76
6, 326514, Control_c, 1, 11, 77
6, 326560, Control_c, 1, 11, 78
6, 326606, Control_c, 1, 11, 79
6, 326624, Note_on_c, 1, 88, 0
6, 326624, Note_on_c, 1, 84, 0
6, 326640, Note_on_c, 1, 86, 84
6, 326640, Note_on_c, 1, 89, 84
6, 326651, Control_c, 1, 11, 80
6, 326697, Control_c, 1, 11, 81
6, 326743, Control_c, 1, 11, 82
6, 326789, Control_c, 1, 11, 83
6, 326834, Control_c, 1, 11, 84
6, 326880, Control_c, 1, 11, 85
6, 326926, Control_c, 1, 11, 86
6, 326971, Control_c, 1, 11, 87
6, 327017, Control_c, 1, 11, 88
6, 327063, Control_c, 1, 11, 89
6, 327109, Control_c, 1, 11, 90
6, 327154, Control_c, 1, 11, 91
6, 327200, Control_c, 1, 11, 92
6, 327246, Control_c, 1, 11, 93
6, 327291, Control_c, 1, 11, 94
6, 327337, Control_c, 1, 11, 95
6, 327344, Note_on_c, 1, 86, 0
6, 327344, Note_on_c, 1, 89, 0
6, 327360, Note_on_c, 1, 88, 84
6, 327360, Note_on_c, 1, 83, 84
6, 327383, Control_c, 1, 11, 96
6, 327429, Control_c, 1, 11, 97
6, 327474, Control_c, 1, 11, 98
6, 327520, Control_c, 1, 11, 99
6, 327566, Control_c, 1, 11, 100
6, 327611, Control_c, 1, 11, 101
6, 327657, Control_c, 1, 11, 102
6, 327703, Control_c, 1, 11, 103
6, 327749, Control_c, 1, 11, 104
6, 327794, Control_c, 1, 11, 105
6, 327840, Control_c, 1, 11, 106
6, 327886, Control_c, 1, 11, 107
6, 327931, Control_c, 1, 11, 108
6, 327977, Control_c, 1, 11, 109
6, 328023, Control_c, 1, 11, 110
6, 328064, Note_on_c, 1, 88, 0
6, 328064, Note_on_c, 1, 83, 0
6, 328069, Control_c, 1, 11, 111
6, 328080, Note_on_c, 1, 88, 84
6, 328080, Note_on_c, 1, 84, 84
6, 328114, Control_c, 1, 11, 112
6, 328160, Control_c, 1, 11, 113
6, 328206, Control_c, 1, 11, 114
6, 328251, Control_c, 1, 11, 115
6, 328297, Control_c, 1, 11, 116
6, 328343, Control_c, 1, 11, 117
6, 328389, Control_c, 1, 11, 118
6, 328434, Control_c, 1, 11, 119
6, 328480, Control_c, 1, 11, 120
6, 328526, Control_c, 1, 11, 121
6, 328571, Control_c, 1, 11, 122
6, 328617, Control_c, 1, 11, 123
6, 328663, Control_c, 1, 11, 124
6, 328709, Control_c, 1, 11, 125
6, 328754, Control_c, 1, 11, 127
6, 328784, Note_on_c, 1, 88, 0
6, 328784, Note_on_c, 1, 84, 0
6, 328800, Note_on_c, 1, 84, 84
6, 328800, Note_on_c, 1, 87, 84
6, 329504, Note_on_c, 1, 84, 0
6, 329504, Note_on_c, 1, 87, 0
6, 329520, Note_on_c, 1, 88, 84
6, 329520, Note_on_c, 1, 83, 84
6, 329984, Note_on_c, 1, 88, 0
6, 329984, Note_on_c, 1, 83, 0
6, 330000, Note_on_c, 1, 88, 84
6, 330000, Note_on_c, 1, 83, 84
6, 330104, Note_on_c, 1, 88, 0
6, 330104, Note_on_c, 1, 83, 0
6, 330120, Note_on_c, 1, 83, 84
6, 330120, Note_on_c, 1, 88, 84
6, 330224, Note_on_c, 1, 83, 0
6, 330224, Note_on_c, 1, 88, 0
6, 330240, Note_on_c, 1, 93, 84
6, 330240, Note_on_c, 1, 81, 84
6, 330359, Note_on_c, 1, 93, 0
6, 330359, Note_on_c, 1, 81, 0
6, 330480, Note_on_c, 1, 81, 84
6, 330480, Note_on_c, 1, 93, 84
6, 330584, Note_on_c, 1, 81, 0
6, 330584, Note_on_c, 1, 93, 0
6, 330600, Note_on_c, 1, 81, 84
6, 330600, Note_on_c, 1, 93, 84
6, 330719, Note_on_c, 1, 81, 0
6, 330719, Note_on_c, 1, 93, 0
6, 330840, Note_on_c, 1, 86, 84
6, 330840, Note_on_c, 1, 81, 84
6, 330944, Note_on_c, 1, 86, 0
6, 330944, Note_on_c, 1, 81, 0
6, 330960, Note_on_c, 1, 83, 52
6, 330960, Note_on_c, 1, 80, 52
6, 331199, Note_on_c, 1, 83, 0
6, 331199, Note_on_c, 1, 80, 0
6, 332640, Note_on_c, 1, 76, 52
6, 332744, Note_on_c, 1, 76, 0
6, 332760, Note_on_c, 1, 76, 52
6, 332931, Note_on_c, 1, 76, 0
6, 332940, Note_on_c, 1, 80, 52
6, 332984, Note_on_c, 1, 80, 0
6, 333000, Note_on_c, 1, 83, 52
6, 333081, Note_on_c, 1, 83, 0
6, 333090, Note_on_c, 1, 81, 52
6, 333119, Note_on_c, 1, 81, 0
6, 333120, Note_on_c, 1, 84, 52
6, 333299, Note_on_c, 1, 84, 0
6, 333360, Note_on_c, 1, 84, 52
6, 333449, Note_on_c, 1, 84, 0
6, 333480, Note_on_c, 1, 84, 52
6, 333644, Note_on_c, 1, 84, 0
6, 333660, Note_on_c, 1, 83, 52
6, 333704, Note_on_c, 1, 83, 0
6, 333720, Note_on_c, 1, 81, 52
6, 333809, Note_on_c, 1, 81, 0
6, 333838, Control_c, 1, 11, 80
6, 333840, Note_on_c, 1, 80, 76
6, 333840, Control_c, 1, 11, 80
6, 333880, Control_c, 1, 11, 83
6, 333920, Control_c, 1, 11, 85
6, 333960, Control_c, 1, 11, 88
6, 334000, Control_c, 1, 11, 90
6, 334040, Control_c, 1, 11, 93
6, 334079, Note_on_c, 1, 80, 0
6, 334080, Note_on_c, 1, 88, 76
6, 334080, Control_c, 1, 11, 96
6, 334120, Control_c, 1, 11, 98
6, 334160, Control_c, 1, 11, 101
6, 334200, Control_c, 1, 11, 104
6, 334240, Control_c, 1, 11, 106
6, 334280, Control_c, 1, 11, 109
6, 334320, Control_c, 1, 11, 111
6, 334360, Control_c, 1, 11, 114
6, 334400, Control_c, 1, 11, 117
6, 334439, Note_on_c, 1, 88, 0
6, 334440, Note_on_c, 1, 86, 76
6, 334440, Control_c, 1, 11, 119
6, 334480, Control_c, 1, 11, 122
6, 334520, Control_c, 1, 11, 124
6, 334544, Note_on_c, 1, 86, 0
6, 334558, Control_c, 1, 11, 127
6, 334560, Note_on_c, 1, 85, 76
6, 334784, Note_on_c, 1, 85, 0
6, 334800, Note_on_c, 1, 85, 76
6, 334904, Note_on_c, 1, 85, 0
6, 334920, Note_on_c, 1, 90, 76
6, 335144, Note_on_c, 1, 90, 0
6, 335160, Note_on_c, 1, 90, 76
6, 335264, Note_on_c, 1, 90, 0
6, 335280, Note_on_c, 1, 90, 76
6, 335399, Note_on_c, 1, 90, 0
6, 335400, Note_on_c, 1, 88, 76
6, 335984, Note_on_c, 1, 88, 0
6, 336000, Note_on_c, 1, 81, 76
6, 336224, Note_on_c, 1, 81, 0
6, 336240, Note_on_c, 1, 81, 76
6, 336344, Note_on_c, 1, 81, 0
6, 336360, Note_on_c, 1, 86, 76
6, 336584, Note_on_c, 1, 86, 0
6, 336600, Note_on_c, 1, 86, 76
6, 336704, Note_on_c, 1, 86, 0
6, 336720, Note_on_c, 1, 86, 76
6, 336839, Note_on_c, 1, 86, 0
6, 336840, Note_on_c, 1, 85, 76
6, 337424, Note_on_c, 1, 85, 0
6, 337440, Note_on_c, 1, 78, 76
6, 337664, Note_on_c, 1, 78, 0
6, 337680, Note_on_c, 1, 90, 76
6, 337680, Note_on_c, 1, 78, 76
6, 337784, Note_on_c, 1, 90, 0
6, 337784, Note_on_c, 1, 78, 0
6, 337800, Note_on_c, 1, 83, 76
6, 337800, Note_on_c, 1, 90, 76
6, 338024, Note_on_c, 1, 83, 0
6, 338024, Note_on_c, 1, 90, 0
6, 338040, Note_on_c, 1, 90, 76
6, 338040, Note_on_c, 1, 83, 76
6, 338144, Note_on_c, 1, 90, 0
6, 338144, Note_on_c, 1, 83, 0
6, 338160, Note_on_c, 1, 88, 76
6, 338160, Note_on_c, 1, 83, 76
6, 338264, Note_on_c, 1, 88, 0
6, 338264, Note_on_c, 1, 83, 0
6, 338280, Note_on_c, 1, 83, 76
6, 338280, Note_on_c, 1, 88, 76
6, 338399, Note_on_c, 1, 83, 0
6, 338399, Note_on_c, 1, 88, 0
6, 338520, Note_on_c, 1, 86, 76
6, 338520, Note_on_c, 1, 83, 76
6, 338624, Note_on_c, 1, 86, 0
6, 338624, Note_on_c, 1, 83, 0
6, 338640, Note_on_c, 1, 83, 76
6, 338640, Note_on_c, 1, 86, 76
6, 338759, Note_on_c, 1, 83, 0
6, 338759, Note_on_c, 1, 86, 0
6, 338880, Note_on_c, 1, 81, 76
6, 338880, Note_on_c, 1, 85, 76
6, 338984, Note_on_c, 1, 81, 0
6, 338984, Note_on_c, 1, 85, 0
6, 339000, Note_on_c, 1, 81, 76
6, 339000, Note_on_c, 1, 85, 76
6, 339119, Note_on_c, 1, 81, 0
6, 339119, Note_on_c, 1, 85, 0
6, 339240, Note_on_c, 1, 85, 76
6, 339240, Note_on_c, 1, 93, 76
6, 339344, Note_on_c, 1, 85, 0
6, 339344, Note_on_c, 1, 93, 0
6, 339360, Note_on_c, 1, 93, 76
6, 339360, Note_on_c, 1, 85, 76
6, 339479, Note_on_c, 1, 93, 0
6, 339479, Note_on_c, 1, 85, 0
6, 339600, Note_on_c, 1, 92, 76
6, 339600, Note_on_c, 1, 83, 76
6, 339704, Note_on_c, 1, 92, 0
6, 339704, Note_on_c, 1, 83, 0
6, 339720, Note_on_c, 1, 92, 76
6, 339720, Note_on_c, 1, 83, 76
6, 339839, Note_on_c, 1, 92, 0
6, 339839, Note_on_c, 1, 83, 0
6, 339960, Note_on_c, 1, 86, 76
6, 339960, Note_on_c, 1, 83, 76
6, 340064, Note_on_c, 1, 86, 0
6, 340064, Note_on_c, 1, 83, 0
6, 340080, Note_on_c, 1, 86, 76
6, 340080, Note_on_c, 1, 83, 76
6, 340199, Note_on_c, 1, 86, 0
6, 340199, Note_on_c, 1, 83, 0
6, 340320, Note_on_c, 1, 85, 76
6, 340320, Note_on_c, 1, 81, 76
6, 340424, Note_on_c, 1, 85, 0
6, 340424, Note_on_c, 1, 81, 0
6, 340440, Note_on_c, 1, 85, 76
6, 340440, Note_on_c, 1, 81, 76
6, 340559, Note_on_c, 1, 85, 0
6, 340559, Note_on_c, 1, 81, 0
6, 340680, Note_on_c, 1, 85, 76
6, 340680, Note_on_c, 1, 93, 76
6, 340784, Note_on_c, 1, 85, 0
6, 340784, Note_on_c, 1, 93, 0
6, 340800, Note_on_c, 1, 85, 76
6, 340800, Note_on_c, 1, 93, 76
6, 340919, Note_on_c, 1, 85, 0
6, 340919, Note_on_c, 1, 93, 0
6, 341760, Note_on_c, 1, 88, 52
6, 342359, Note_on_c, 1, 88, 0
6, 342360, Note_on_c, 1, 83, 52
6, 342464, Note_on_c, 1, 83, 0
6, 342480, Note_on_c, 1, 81, 48
6, 342824, Note_on_c, 1, 81, 0
6, 342840, Note_on_c, 1, 81, 48
6, 342840, Note_on_c, 1, 85, 48
6, 343011, Note_on_c, 1, 81, 0
6, 343011, Note_on_c, 1, 85, 0
6, 343020, Note_on_c, 1, 76, 48
6, 343020, Note_on_c, 1, 81, 48
6, 343071, Note_on_c, 1, 76, 0
6, 343071, Note_on_c, 1, 81, 0
6, 343080, Note_on_c, 1, 76, 48
6, 343080, Note_on_c, 1, 81, 48
6, 343184, Note_on_c, 1, 76, 0
6, 343184, Note_on_c, 1, 81, 0
6, 343200, Note_on_c, 1, 86, 48
6, 343200, Note_on_c, 1, 83, 48
6, 343371, Note_on_c, 1, 86, 0
6, 343371, Note_on_c, 1, 83, 0
6, 343380, Note_on_c, 1, 76, 48
6, 343380, Note_on_c, 1, 83, 48
6, 343431, Note_on_c, 1, 76, 0
6, 343431, Note_on_c, 1, 83, 0
6, 343440, Note_on_c, 1, 83, 48
6, 343440, Note_on_c, 1, 76, 48
6, 343544, Note_on_c, 1, 83, 0
6, 343544, Note_on_c, 1, 76, 0
6, 343560, Note_on_c, 1, 88, 48
6, 343560, Note_on_c, 1, 85, 48
6, 344451, Note_on_c, 1, 88, 0
6, 344451, Note_on_c, 1, 85, 0
6, 344460, Note_on_c, 1, 85, 48
6, 344460, Note_on_c, 1, 88, 48
6, 344511, Note_on_c, 1, 85, 0
6, 344511, Note_on_c, 1, 88, 0
6, 344520, Note_on_c, 1, 88, 48
6, 344520, Note_on_c, 1, 85, 48
6, 344624, Note_on_c, 1, 88, 0
6, 344624, Note_on_c, 1, 85, 0
6, 344640, Note_on_c, 1, 85, 48
6, 344640, Note_on_c, 1, 88, 48
6, 344811, Note_on_c, 1, 85, 0
6, 344811, Note_on_c, 1, 88, 0
6, 344820, Note_on_c, 1, 81, 48
6, 344820, Note_on_c, 1, 85, 48
6, 344871, Note_on_c, 1, 81, 0
6, 344871, Note_on_c, 1, 85, 0
6, 344880, Note_on_c, 1, 85, 48
6, 344880, Note_on_c, 1, 81, 48
6, 344984, Note_on_c, 1, 85, 0
6, 344984, Note_on_c, 1, 81, 0
6, 345000, Note_on_c, 1, 81, 48
6, 345000, Note_on_c, 1, 85, 48
6, 345119, Note_on_c, 1, 81, 0
6, 345119, Note_on_c, 1, 85, 0
6, 345120, Note_on_c, 1, 83, 48
6, 345120, Note_on_c, 1, 86, 48
6, 345224, Note_on_c, 1, 83, 0
6, 345224, Note_on_c, 1, 86, 0
6, 345240, Note_on_c, 1, 80, 48
6, 345240, Note_on_c, 1, 83, 48
6, 345329, Note_on_c, 1, 80, 0
6, 345329, Note_on_c, 1, 83, 0
6, 345360, Note_on_c, 1, 81, 84
6, 345464, Note_on_c, 1, 81, 0
6, 345480, Note_on_c, 1, 93, 84
6, 345480, Note_on_c, 1, 81, 84
6, 345584, Note_on_c, 1, 93, 0
6, 345584, Note_on_c, 1, 81, 0
6, 345600, Note_on_c, 1, 93, 84
6, 345600, Note_on_c, 1, 81, 84
6, 345704, Note_on_c, 1, 93, 0
6, 345704, Note_on_c, 1, 81, 0
6, 345720, Note_on_c, 1, 81, 84
6, 345720, Note_on_c, 1, 93, 84
6, 345824, Note_on_c, 1, 81, 0
6, 345824, Note_on_c, 1, 93, 0
6, 345840, Note_on_c, 1, 93, 84
6, 345840, Note_on_c, 1, 81, 84
6, 345944, Note_on_c, 1, 93, 0
6, 345944, Note_on_c, 1, 81, 0
6, 345960, Note_on_c, 1, 81, 84
6, 345960, Note_on_c, 1, 93, 84
6, 346064, Note_on_c, 1, 81, 0
6, 346064, Note_on_c, 1, 93, 0
6, 346080, Note_on_c, 1, 81, 84
6, 346080, Note_on_c, 1, 93, 84
6, 346184, Note_on_c, 1, 81, 0
6, 346184, Note_on_c, 1, 93, 0
6, 346200, Note_on_c, 1, 93, 84
6, 346200, Note_on_c, 1, 81, 84
6, 346304, Note_on_c, 1, 93, 0
6, 346304, Note_on_c, 1, 81, 0
6, 346320, Note_on_c, 1, 81, 84
6, 346320, Note_on_c, 1, 93, 84
6, 346424, Note_on_c, 1, 81, 0
6, 346424, Note_on_c, 1, 93, 0
6, 346440, Note_on_c, 1, 84, 84
6, 346440, Note_on_c, 1, 88, 84
6, 346544, Note_on_c, 1, 84, 0
6, 346544, Note_on_c, 1, 88, 0
6, 346560, Note_on_c, 1, 88, 84
6, 346560, Note_on_c, 1, 84, 84
6, 346664, Note_on_c, 1, 88, 0
6, 346664, Note_on_c, 1, 84, 0
6, 346680, Note_on_c, 1, 88, 84
6, 346680, Note_on_c, 1, 84, 84
6, 346784, Note_on_c, 1, 88, 0
6, 346784, Note_on_c, 1, 84, 0
6, 346800, Note_on_c, 1, 84, 84
6, 346800, Note_on_c, 1, 89, 84
6, 347039, Note_on_c, 1, 84, 0
6, 347039, Note_on_c, 1, 89, 0
6, 349500, Note_on_c, 1, 72, 52
6, 349551, Note_on_c, 1, 72, 0
6, 349560, Note_on_c, 1, 72, 52
6, 349664, Note_on_c, 1, 72, 0
6, 349680, Note_on_c, 1, 77, 52
6, 349919, Note_on_c, 1, 77, 0
6, 350400, Note_on_c, 1, 77, 44
6, 350639, Note_on_c, 1, 77, 0
6, 352080, Note_on_c, 1, 83, 44
6, 352139, Note_on_c, 1, 83, 0
6, 352140, Note_on_c, 1, 84, 44
6, 352199, Note_on_c, 1, 84, 0
6, 352200, Note_on_c, 1, 86, 44
6, 352289, Note_on_c, 1, 86, 0
6, 353520, Note_on_c, 1, 83, 44
6, 353579, Note_on_c, 1, 83, 0
6, 353580, Note_on_c, 1, 84, 44
6, 353639, Note_on_c, 1, 84, 0
6, 353640, Note_on_c, 1, 86, 44
6, 353729, Note_on_c, 1, 86, 0
6, 354240, Note_on_c, 1, 83, 46
6, 354299, Note_on_c, 1, 83, 0
6, 354300, Note_on_c, 1, 85, 46
6, 354359, Note_on_c, 1, 85, 0
6, 354360, Note_on_c, 1, 86, 47
6, 354449, Note_on_c, 1, 86, 0
6, 357840, Note_on_c, 1, 80, 79
6, 357899, Note_on_c, 1, 80, 0
6, 357900, Note_on_c, 1, 81, 80
6, 357959, Note_on_c, 1, 81, 0
6, 357960, Note_on_c, 1, 83, 80
6, 358049, Note_on_c, 1, 83, 0
6, 358200, Note_on_c, 1, 81, 82
6, 358259, Note_on_c, 1, 81, 0
6, 358260, Note_on_c, 1, 83, 83
6, 358319, Note_on_c, 1, 83, 0
6, 358320, Note_on_c, 1, 85, 84
6, 359384, Note_on_c, 1, 85, 0
6, 359400, Note_on_c, 1, 85, 84
6, 359400, Note_on_c, 1, 88, 84
6, 359571, Note_on_c, 1, 85, 0
6, 359571, Note_on_c, 1, 88, 0
6, 359580, Note_on_c, 1, 85, 84
6, 359580, Note_on_c, 1, 88, 84
6, 359631, Note_on_c, 1, 85, 0
6, 359631, Note_on_c, 1, 88, 0
6, 359640, Note_on_c, 1, 88, 84
6, 359640, Note_on_c, 1, 85, 84
6, 359744, Note_on_c, 1, 88, 0
6, 359744, Note_on_c, 1, 85, 0
6, 359760, Note_on_c, 1, 90, 84
6, 359760, Note_on_c, 1, 83, 84
6, 360824, Note_on_c, 1, 90, 0
6, 360824, Note_on_c, 1, 83, 0
6, 360840, Note_on_c, 1, 90, 84
6, 360840, Note_on_c, 1, 83, 84
6, 361011, Note_on_c, 1, 90, 0
6, 361011, Note_on_c, 1, 83, 0
6, 361020, Note_on_c, 1, 90, 84
6, 361020, Note_on_c, 1, 83, 84
6, 361071, Note_on_c, 1, 90, 0
6, 361071, Note_on_c, 1, 83, 0
6, 361080, Note_on_c, 1, 90, 84
6, 361080, Note_on_c, 1, 83, 84
6, 361199, Note_on_c, 1, 90, 0
6, 361199, Note_on_c, 1, 83, 0
6, 361320, Control_c, 1, 11, 48
6, 361560, Note_on_c, 1, 89, 84
6, 361919, Note_on_c, 1, 89, 0
6, 361920, Control_c, 1, 11, 48
6, 361920, Note_on_c, 1, 80, 84
6, 361960, Control_c, 1, 11, 52
6, 362000, Control_c, 1, 11, 57
6, 362040, Control_c, 1, 11, 61
6, 362080, Control_c, 1, 11, 66
6, 362120, Control_c, 1, 11, 70
6, 362160, Control_c, 1, 11, 74
6, 362200, Control_c, 1, 11, 79
6, 362240, Control_c, 1, 11, 83
6, 362279, Note_on_c, 1, 80, 0
6, 362280, Note_on_c, 1, 88, 84
6, 362280, Control_c, 1, 11, 88
6, 362320, Control_c, 1, 11, 92
6, 362360, Control_c, 1, 11, 96
6, 362400, Control_c, 1, 11, 101
6, 362440, Control_c, 1, 11, 105
6, 362480, Control_c, 1, 11, 109
6, 362520, Control_c, 1, 11, 114
6, 362560, Control_c, 1, 11, 118
6, 362600, Control_c, 1, 11, 123
6, 362624, Note_on_c, 1, 88, 0
6, 362638, Control_c, 1, 11, 127
6, 362640, Note_on_c, 1, 85, 84
6, 363704, Note_on_c, 1, 85, 0
6, 363720, Note_on_c, 1, 88, 84
6, 363720, Note_on_c, 1, 85, 84
6, 363891, Note_on_c, 1, 88, 0
6, 363891, Note_on_c, 1, 85, 0
6, 363900, Note_on_c, 1, 88, 84
6, 363900, Note_on_c, 1, 85, 84
6, 363951, Note_on_c, 1, 88, 0
6, 363951, Note_on_c, 1, 85, 0
6, 363960, Note_on_c, 1, 85, 84
6, 363960, Note_on_c, 1, 88, 84
6, 364064, Note_on_c, 1, 85, 0
6, 364064, Note_on_c, 1, 88, 0
6, 364080, Note_on_c, 1, 90, 84
6, 364080, Note_on_c, 1, 83, 84
6, 365144, Note_on_c, 1, 90, 0
6, 365144, Note_on_c, 1, 83, 0
6, 365160, Note_on_c, 1, 90, 84
6, 365160, Note_on_c, 1, 83, 84
6, 365331, Note_on_c, 1, 90, 0
6, 365331, Note_on_c, 1, 83, 0
6, 365340, Note_on_c, 1, 90, 84
6, 365340, Note_on_c, 1, 83, 84
6, 365391, Note_on_c, 1, 90, 0
6, 365391, Note_on_c, 1, 83, 0
6, 365400, Note_on_c, 1, 83, 84
6, 365400, Note_on_c, 1, 90, 84
6, 365519, Note_on_c, 1, 83, 0
6, 365519, Note_on_c, 1, 90, 0
6, 366120, Control_c, 1, 11, 64
6, 366240, Note_on_c, 1, 88, 84
6, 366240, Control_c, 1, 11, 64
6, 366280, Control_c, 1, 11, 68
6, 366320, Control_c, 1, 11, 71
6, 366360, Control_c, 1, 11, 75
6, 366400, Control_c, 1, 11, 78
6, 366440, Control_c, 1, 11, 82
6, 366480, Control_c, 1, 11, 85
6, 366520, Control_c, 1, 11, 89
6, 366560, Control_c, 1, 11, 92
6, 366599, Note_on_c, 1, 88, 0
6, 366600, Note_on_c, 1, 80, 84
6, 366600, Control_c, 1, 11, 96
6, 366640, Control_c, 1, 11, 99
6, 366680, Control_c, 1, 11, 103
6, 366720, Control_c, 1, 11, 106
6, 366760, Control_c, 1, 11, 110
6, 366800, Control_c, 1, 11, 113
6, 366839, Note_on_c, 1, 80, 0
6, 366840, Note_on_c, 1, 88, 84
6, 366840, Control_c, 1, 11, 117
6, 366880, Control_c, 1, 11, 120
6, 366920, Control_c, 1, 11, 124
6, 366944, Note_on_c, 1, 88, 0
6, 366958, Control_c, 1, 11, 127
6, 366960, Note_on_c, 1, 88, 84
6, 367491, Note_on_c, 1, 88, 0
6, 367500, Note_on_c, 1, 86, 84
6, 367544, Note_on_c, 1, 86, 0
6, 367560, Note_on_c, 1, 85, 84
6, 367641, Note_on_c, 1, 85, 0
6, 367650, Note_on_c, 1, 85, 84
6, 367679, Note_on_c, 1, 85, 0
6, 367680, Note_on_c, 1, 86, 92
6, 367740, Control_c, 1, 11, 112
6, 368211, Note_on_c, 1, 86, 0
6, 368220, Note_on_c, 1, 86, 92
6, 368220, Note_on_c, 1, 90, 92
6, 368264, Note_on_c, 1, 86, 0
6, 368264, Note_on_c, 1, 90, 0
6, 368280, Note_on_c, 1, 92, 92
6, 368280, Note_on_c, 1, 88, 92
6, 368369, Note_on_c, 1, 92, 0
6, 368369, Note_on_c, 1, 88, 0
6, 368400, Note_on_c, 1, 93, 92
6, 368400, Note_on_c, 1, 88, 92
6, 368639, Note_on_c, 1, 93, 0
6, 368639, Note_on_c, 1, 88, 0
6, 368758, Control_c, 1, 11, 127
6, 368760, Note_on_c, 1, 85, 84
6, 368999, Note_on_c, 1, 85, 0
6, 369120, Note_on_c, 1, 88, 84
6, 369359, Note_on_c, 1, 88, 0
6, 369660, Note_on_c, 1, 88, 84
6, 369711, Note_on_c, 1, 88, 0
6, 369720, Note_on_c, 1, 88, 84
6, 369824, Note_on_c, 1, 88, 0
6, 369840, Note_on_c, 1, 88, 92
6, 369900, Control_c, 1, 11, 112
6, 370064, Note_on_c, 1, 88, 0
6, 370080, Note_on_c, 1, 85, 92
6, 370161, Note_on_c, 1, 85, 0
6, 370170, Note_on_c, 1, 85, 92
6, 370199, Note_on_c, 1, 85, 0
6, 370200, Note_on_c, 1, 86, 92
6, 370371, Note_on_c, 1, 86, 0
6, 370380, Note_on_c, 1, 90, 92
6, 370380, Note_on_c, 1, 86, 92
6, 370424, Note_on_c, 1, 90, 0
6, 370424, Note_on_c, 1, 86, 0
6, 370440, Note_on_c, 1, 92, 92
6, 370440, Note_on_c, 1, 88, 92
6, 370529, Note_on_c, 1, 92, 0
6, 370529, Note_on_c, 1, 88, 0
6, 370560, Note_on_c, 1, 93, 92
6, 370560, Note_on_c, 1, 85, 92
6, 370799, Note_on_c, 1, 93, 0
6, 370799, Note_on_c, 1, 85, 0
6, 371040, Control_c, 1, 11, 127
6, 371100, Note_on_c, 1, 88, 84
6, 371151, Note_on_c, 1, 88, 0
6, 371160, Note_on_c, 1, 88, 84
6, 371264, Note_on_c, 1, 88, 0
6, 371280, Note_on_c, 1, 88, 92
6, 371340, Control_c, 1, 11, 112
6, 371504, Note_on_c, 1, 88, 0
6, 371520, Note_on_c, 1, 85, 92
6, 371601, Note_on_c, 1, 85, 0
6, 371610, Note_on_c, 1, 85, 92
6, 371639, Note_on_c, 1, 85, 0
6, 371640, Note_on_c, 1, 86, 92
6, 371811, Note_on_c, 1, 86, 0
6, 371820, Note_on_c, 1, 86, 92
6, 371820, Note_on_c, 1, 90, 92
6, 371864, Note_on_c, 1, 86, 0
6, 371864, Note_on_c, 1, 90, 0
6, 371880, Note_on_c, 1, 92, 92
6, 371880, Note_on_c, 1, 86, 92
6, 371969, Note_on_c, 1, 92, 0
6, 371969, Note_on_c, 1, 86, 0
6, 371998, Control_c, 1, 11, 127
6, 372000, Note_on_c, 1, 93, 84
6, 372000, Note_on_c, 1, 85, 84
6, 372119, Note_on_c, 1, 93, 0
6, 372119, Note_on_c, 1, 85, 0
6, 372240, Note_on_c, 1, 93, 84
6, 372240, Note_on_c, 1, 81, 84
6, 372359, Note_on_c, 1, 93, 0
6, 372359, Note_on_c, 1, 81, 0
6, 372600, Note_on_c, 1, 81, 84
6, 372600, Note_on_c, 1, 93, 84
6, 372719, Note_on_c, 1, 81, 0
6, 372719, Note_on_c, 1, 93, 0
6, 372960, Note_on_c, 1, 81, 84
6, 372960, Note_on_c, 1, 93, 84
6, 373079, Note_on_c, 1, 81, 0
6, 373079, Note_on_c, 1, 93, 0
6, 373320, Note_on_c, 1, 81, 84
6, 373320, Note_on_c, 1, 93, 84
6, 373439, Note_on_c, 1, 81, 0
6, 373439, Note_on_c, 1, 93, 0
6, 373680, Note_on_c, 1, 81, 84
6, 373680, Note_on_c, 1, 93, 84
6, 373799, Note_on_c, 1, 81, 0
6, 373799, Note_on_c, 1, 93, 0
6, 374040, Note_on_c, 1, 81, 84
6, 374040, Note_on_c, 1, 93, 84
6, 374159, Note_on_c, 1, 81, 0
6, 374159, Note_on_c, 1, 93, 0
6, 374400, Note_on_c, 1, 81, 84
6, 374400, Note_on_c, 1, 93, 84
6, 374519, Note_on_c, 1, 81, 0
6, 374519, Note_on_c, 1, 93, 0
6, 374760, Note_on_c, 1, 93, 84
6, 374760, Note_on_c, 1, 81, 84
6, 374879, Note_on_c, 1, 93, 0
6, 374879, Note_on_c, 1, 81, 0
6, 376560, Note_on_c, 1, 80, 52
6, 376679, Note_on_c, 1, 80, 0
6, 378480, Note_on_c, 1, 75, 44
6, 378480, Note_on_c, 1, 72, 44
6, 378651, Note_on_c, 1, 75, 0
6, 378651, Note_on_c, 1, 72, 0
6, 378660, Note_on_c, 1, 75, 44
6, 378660, Note_on_c, 1, 72, 44
6, 378719, Note_on_c, 1, 75, 0
6, 378719, Note_on_c, 1, 72, 0
6, 378720, Note_on_c, 1, 72, 44
6, 378720, Note_on_c, 1, 75, 44
6, 378824, Note_on_c, 1, 72, 0
6, 378824, Note_on_c, 1, 75, 0
6, 378840, Note_on_c, 1, 75, 44
6, 378840, Note_on_c, 1, 72, 44
6, 379011, Note_on_c, 1, 75, 0
6, 379011, Note_on_c, 1, 72, 0
6, 379020, Note_on_c, 1, 75, 44
6, 379020, Note_on_c, 1, 72, 44
6, 379079, Note_on_c, 1, 75, 0
6, 379079, Note_on_c, 1, 72, 0
6, 379080, Note_on_c, 1, 72, 44
6, 379080, Note_on_c, 1, 75, 44
6, 379184, Note_on_c, 1, 72, 0
6, 379184, Note_on_c, 1, 75, 0
6, 379200, Note_on_c, 1, 72, 44
6, 379200, Note_on_c, 1, 75, 44
6, 380624, Note_on_c, 1, 72, 0
6, 380624, Note_on_c, 1, 75, 0
6, 380640, Note_on_c, 1, 72, 44
6, 380640, Note_on_c, 1, 76, 44
6, 382079, Note_on_c, 1, 72, 0
6, 382079, Note_on_c, 1, 76, 0
6, 384240, Note_on_c, 1, 85, 44
6, 384779, Note_on_c, 1, 85, 0
6, 384780, Note_on_c, 1, 83, 44
6, 384839, Note_on_c, 1, 83, 0
6, 384840, Note_on_c, 1, 81, 44
6, 384944, Note_on_c, 1, 81, 0
6, 384960, Note_on_c, 1, 88, 44
6, 387839, Note_on_c, 1, 88, 0
6, 387840, Note_on_c, 1, 88, 44
6, 390944, Note_on_c, 1, 88, 0
6, 390958, Control_c, 1, 11, 49
6, 390960, Note_on_c, 1, 88, 84
6, 391049, Note_on_c, 1, 88, 0
6, 391080, Control_c, 1, 11, 50
6, 391080, Note_on_c, 1, 88, 84
6, 391260, Control_c, 1, 11, 51
6, 391440, Control_c, 1, 11, 52
6, 391620, Control_c, 1, 11, 53
6, 391800, Control_c, 1, 11, 54
6, 391980, Control_c, 1, 11, 55
6, 392160, Control_c, 1, 11, 56
6, 392340, Control_c, 1, 11, 57
6, 392384, Note_on_c, 1, 88, 0
6, 392400, Note_on_c, 1, 88, 84
6, 392489, Note_on_c, 1, 88, 0
6, 392520, Note_on_c, 1, 88, 84
6, 392520, Control_c, 1, 11, 58
6, 392700, Control_c, 1, 11, 59
6, 392880, Control_c, 1, 11, 60
6, 393060, Control_c, 1, 11, 61
6, 393240, Control_c, 1, 11, 62
6, 393420, Control_c, 1, 11, 63
6, 393600, Control_c, 1, 11, 64
6, 393780, Control_c, 1, 11, 65
6, 393824, Note_on_c, 1, 88, 0
6, 393840, Note_on_c, 1, 88, 84
6, 393944, Note_on_c, 1, 88, 0
6, 393960, Note_on_c, 1, 88, 84
6, 393960, Control_c, 1, 11, 66
6, 394140, Control_c, 1, 11, 67
6, 394169, Note_on_c, 1, 88, 0
6, 394200, Note_on_c, 1, 88, 84
6, 394289, Note_on_c, 1, 88, 0
6, 394320, Note_on_c, 1, 88, 84
6, 394320, Control_c, 1, 11, 68
6, 394500, Control_c, 1, 11, 69
6, 394529, Note_on_c, 1, 88, 0
6, 394560, Note_on_c, 1, 88, 84
6, 394664, Note_on_c, 1, 88, 0
6, 394680, Control_c, 1, 11, 70
6, 394680, Note_on_c, 1, 88, 84
6, 394860, Control_c, 1, 11, 71
6, 394889, Note_on_c, 1, 88, 0
6, 394920, Note_on_c, 1, 88, 84
6, 395009, Note_on_c, 1, 88, 0
6, 395040, Note_on_c, 1, 88, 84
6, 395040, Control_c, 1, 11, 72
6, 395220, Control_c, 1, 11, 73
6, 395249, Note_on_c, 1, 88, 0
6, 395280, Note_on_c, 1, 88, 84
6, 395384, Note_on_c, 1, 88, 0
6, 395400, Note_on_c, 1, 88, 84
6, 395400, Control_c, 1, 11, 74
6, 395580, Control_c, 1, 11, 75
6, 395609, Note_on_c, 1, 88, 0
6, 395640, Note_on_c, 1, 88, 84
6, 395729, Note_on_c, 1, 88, 0
6, 395760, Control_c, 1, 11, 76
6, 395760, Note_on_c, 1, 88, 84
6, 395940, Control_c, 1, 11, 77
6, 395969, Note_on_c, 1, 88, 0
6, 396000, Note_on_c, 1, 88, 84
6, 396104, Note_on_c, 1, 88, 0
6, 396120, Note_on_c, 1, 88, 84
6, 396120, Control_c, 1, 11, 78
6, 396300, Control_c, 1, 11, 79
6, 396329, Note_on_c, 1, 88, 0
6, 396360, Note_on_c, 1, 88, 84
6, 396449, Note_on_c, 1, 88, 0
6, 396480, Note_on_c, 1, 88, 84
6, 396480, Control_c, 1, 11, 80
6, 396584, Note_on_c, 1, 88, 0
6, 396600, Note_on_c, 1, 88, 84
6, 396660, Control_c, 1, 11, 81
6, 396704, Note_on_c, 1, 88, 0
6, 396720, Note_on_c, 1, 88, 84
6, 396824, Note_on_c, 1, 88, 0
6, 396840, Control_c, 1, 11, 82
6, 396840, Note_on_c, 1, 88, 84
6, 396944, Note_on_c, 1, 88, 0
6, 396960, Note_on_c, 1, 88, 84
6, 397020, Control_c, 1, 11, 83
6, 397064, Note_on_c, 1, 88, 0
6, 397080, Note_on_c, 1, 88, 84
6, 397184, Note_on_c, 1, 88, 0
6, 397200, Note_on_c, 1, 88, 84
6, 397200, Control_c, 1, 11, 84
6, 397304, Note_on_c, 1, 88, 0
6, 397320, Note_on_c, 1, 88, 84
6, 397380, Control_c, 1, 11, 85
6, 397424, Note_on_c, 1, 88, 0
6, 397440, Note_on_c, 1, 88, 84
6, 397544, Note_on_c, 1, 88, 0
6, 397560, Control_c, 1, 11, 86
6, 397560, Note_on_c, 1, 88, 84
6, 397664, Note_on_c, 1, 88, 0
6, 397680, Note_on_c, 1, 88, 84
6, 397740, Control_c, 1, 11, 87
6, 397784, Note_on_c, 1, 88, 0
6, 397800, Note_on_c, 1, 88, 84
6, 397904, Note_on_c, 1, 88, 0
6, 397920, Note_on_c, 1, 88, 84
6, 397920, Control_c, 1, 11, 88
6, 398024, Note_on_c, 1, 88, 0
6, 398040, Note_on_c, 1, 88, 84
6, 398100, Control_c, 1, 11, 89
6, 398144, Note_on_c, 1, 88, 0
6, 398160, Note_on_c, 1, 88, 84
6, 398264, Note_on_c, 1, 88, 0
6, 398280, Note_on_c, 1, 88, 84
6, 398280, Control_c, 1, 11, 90
6, 398384, Note_on_c, 1, 88, 0
6, 398400, Note_on_c, 1, 88, 84
6, 398460, Control_c, 1, 11, 91
6, 398504, Note_on_c, 1, 88, 0
6, 398520, Note_on_c, 1, 88, 84
6, 398624, Note_on_c, 1, 88, 0
6, 398640, Note_on_c, 1, 88, 84
6, 398640, Control_c, 1, 11, 92
6, 398744, Note_on_c, 1, 88, 0
6, 398760, Note_on_c, 1, 88, 84
6, 398820, Control_c, 1, 11, 93
6, 398864, Note_on_c, 1, 88, 0
6, 398880, Note_on_c, 1, 88, 84
6, 398984, Note_on_c, 1, 88, 0
6, 399000, Note_on_c, 1, 88, 84
6, 399000, Control_c, 1, 11, 94
6, 399104, Note_on_c, 1, 88, 0
6, 399120, Note_on_c, 1, 88, 84
6, 399180, Control_c, 1, 11, 96
6, 399224, Note_on_c, 1, 88, 0
6, 399240, Note_on_c, 1, 88, 84
6, 399344, Note_on_c, 1, 88, 0
6, 399360, Note_on_c, 1, 76, 84
6, 399360, Note_on_c, 1, 88, 84
6, 399360, Control_c, 1, 11, 96
6, 399406, Control_c, 1, 11, 97
6, 399453, Control_c, 1, 11, 98
6, 399464, Note_on_c, 1, 76, 0
6, 399464, Note_on_c, 1, 88, 0
6, 399480, Note_on_c, 1, 76, 84
6, 399480, Note_on_c, 1, 88, 84
6, 399499, Control_c, 1, 11, 99
6, 399546, Control_c, 1, 11, 100
6, 399584, Note_on_c, 1, 76, 0
6, 399584, Note_on_c, 1, 88, 0
6, 399592, Control_c, 1, 11, 101
6, 399600, Note_on_c, 1, 88, 84
6, 399600, Note_on_c, 1, 76, 84
6, 399639, Control_c, 1, 11, 102
6, 399685, Control_c, 1, 11, 103
6, 399704, Note_on_c, 1, 88, 0
6, 399704, Note_on_c, 1, 76, 0
6, 399720, Note_on_c, 1, 88, 84
6, 399720, Note_on_c, 1, 76, 84
6, 399732, Control_c, 1, 11, 104
6, 399778, Control_c, 1, 11, 105
6, 399824, Note_on_c, 1, 88, 0
6, 399824, Note_on_c, 1, 76, 0
6, 399825, Control_c, 1, 11, 106
6, 399840, Note_on_c, 1, 76, 84
6, 399840, Note_on_c, 1, 88, 84
6, 399871, Control_c, 1, 11, 107
6, 399917, Control_c, 1, 11, 108
6, 399944, Note_on_c, 1, 76, 0
6, 399944, Note_on_c, 1, 88, 0
6, 399960, Note_on_c, 1, 76, 84
6, 399960, Note_on_c, 1, 88, 84
6, 399964, Control_c, 1, 11, 109
6, 400010, Control_c, 1, 11, 110
6, 400057, Control_c, 1, 11, 111
6, 400064, Note_on_c, 1, 76, 0
6, 400064, Note_on_c, 1, 88, 0
6, 400080, Note_on_c, 1, 88, 84
6, 400080, Note_on_c, 1, 76, 84
6, 400103, Control_c, 1, 11, 112
6, 400150, Control_c, 1, 11, 113
6, 400184, Note_on_c, 1, 88, 0
6, 400184, Note_on_c, 1, 76, 0
6, 400196, Control_c, 1, 11, 114
6, 400200, Note_on_c, 1, 88, 84
6, 400200, Note_on_c, 1, 76, 84
6, 400243, Control_c, 1, 11, 115
6, 400289, Control_c, 1, 11, 116
6, 400304, Note_on_c, 1, 88, 0
6, 400304, Note_on_c, 1, 76, 0
6, 400320, Note_on_c, 1, 76, 84
6, 400320, Note_on_c, 1, 88, 84
6, 400335, Control_c, 1, 11, 117
6, 400382, Control_c, 1, 11, 118
6, 400424, Note_on_c, 1, 76, 0
6, 400424, Note_on_c, 1, 88, 0
6, 400428, Control_c, 1, 11, 119
6, 400440, Note_on_c, 1, 88, 84
6, 400440, Note_on_c, 1, 76, 84
6, 400475, Control_c, 1, 11, 120
6, 400521, Control_c, 1, 11, 121
6, 400544, Note_on_c, 1, 88, 0
6, 400544, Note_on_c, 1, 76, 0
6, 400560, Note_on_c, 1, 88, 84
6, 400560, Note_on_c, 1, 76, 84
6, 400568, Control_c, 1, 11, 122
6, 400614, Control_c, 1, 11, 123
6, 400661, Control_c, 1, 11, 124
6, 400664, Note_on_c, 1, 88, 0
6, 400664, Note_on_c, 1, 76, 0
6, 400680, Note_on_c, 1, 76, 84
6, 400680, Note_on_c, 1, 88, 84
6, 400707, Control_c, 1, 11, 125
6, 400754, Control_c, 1, 11, 127
6, 400784, Note_on_c, 1, 76, 0
6, 400784, Note_on_c, 1, 88, 0
6, 400800, Note_on_c, 1, 85, 84
6, 400800, Note_on_c, 1, 88, 84
6, 400971, Note_on_c, 1, 85, 0
6, 400971, Note_on_c, 1, 88, 0
6, 400980, Note_on_c, 1, 85, 84
6, 400980, Note_on_c, 1, 88, 84
6, 401031, Note_on_c, 1, 85, 0
6, 401031, Note_on_c, 1, 88, 0
6, 401040, Note_on_c, 1, 85, 84
6, 401040, Note_on_c, 1, 88, 84
6, 401144, Note_on_c, 1, 85, 0
6, 401144, Note_on_c, 1, 88, 0
6, 401160, Note_on_c, 1, 88, 84
6, 401160, Note_on_c, 1, 85, 84
6, 401331, Note_on_c, 1, 88, 0
6, 401331, Note_on_c, 1, 85, 0
6, 401340, Note_on_c, 1, 88, 84
6, 401340, Note_on_c, 1, 85, 84
6, 401391, Note_on_c, 1, 88, 0
6, 401391, Note_on_c, 1, 85, 0
6, 401400, Note_on_c, 1, 88, 84
6, 401400, Note_on_c, 1, 85, 84
6, 401504, Note_on_c, 1, 88, 0
6, 401504, Note_on_c, 1, 85, 0
6, 401520, Note_on_c, 1, 85, 84
6, 401520, Note_on_c, 1, 88, 84
6, 401691, Note_on_c, 1, 85, 0
6, 401691, Note_on_c, 1, 88, 0
6, 401700, Note_on_c, 1, 85, 84
6, 401700, Note_on_c, 1, 88, 84
6, 401751, Note_on_c, 1, 85, 0
6, 401751, Note_on_c, 1, 88, 0
6, 401760, Note_on_c, 1, 85, 84
6, 401760, Note_on_c, 1, 88, 84
6, 401864, Note_on_c, 1, 85, 0
6, 401864, Note_on_c, 1, 88, 0
6, 401880, Note_on_c, 1, 88, 84
6, 401880, Note_on_c, 1, 81, 84
6, 402051, Note_on_c, 1, 88, 0
6, 402051, Note_on_c, 1, 81, 0
6, 402060, Note_on_c, 1, 81, 84
6, 402060, Note_on_c, 1, 88, 84
6, 402111, Note_on_c, 1, 81, 0
6, 402111, Note_on_c, 1, 88, 0
6, 402120, Note_on_c, 1, 81, 84
6, 402120, Note_on_c, 1, 88, 84
6, 402224, Note_on_c, 1, 81, 0
6, 402224, Note_on_c, 1, 88, 0
6, 402240, Note_on_c, 1, 90, 84
6, 402240, Note_on_c, 1, 81, 84
6, 402411, Note_on_c, 1, 90, 0
6, 402411, Note_on_c, 1, 81, 0
6, 402420, Note_on_c, 1, 81, 84
6, 402420, Note_on_c, 1, 90, 84
6, 402471, Note_on_c, 1, 81, 0
6, 402471, Note_on_c, 1, 90, 0
6, 402480, Note_on_c, 1, 81, 84
6, 402480, Note_on_c, 1, 90, 84
6, 402584, Note_on_c, 1, 81, 0
6, 402584, Note_on_c, 1, 90, 0
6, 402600, Note_on_c, 1, 90, 84
6, 402600, Note_on_c, 1, 86, 84
6, 402771, Note_on_c, 1, 90, 0
6, 402771, Note_on_c, 1, 86, 0
6, 402780, Note_on_c, 1, 90, 84
6, 402780, Note_on_c, 1, 86, 84
6, 402831, Note_on_c, 1, 90, 0
6, 402831, Note_on_c, 1, 86, 0
6, 402840, Note_on_c, 1, 86, 84
6, 402840, Note_on_c, 1, 90, 84
6, 402944, Note_on_c, 1, 86, 0
6, 402944, Note_on_c, 1, 90, 0
6, 402960, Note_on_c, 1, 90, 84
6, 402960, Note_on_c, 1, 86, 84
6, 403131, Note_on_c, 1, 90, 0
6, 403131, Note_on_c, 1, 86, 0
6, 403140, Note_on_c, 1, 90, 84
6, 403140, Note_on_c, 1, 86, 84
6, 403191, Note_on_c, 1, 90, 0
6, 403191, Note_on_c, 1, 86, 0
6, 403200, Note_on_c, 1, 86, 84
6, 403200, Note_on_c, 1, 90, 84
6, 403304, Note_on_c, 1, 86, 0
6, 403304, Note_on_c, 1, 90, 0
6, 403320, Note_on_c, 1, 86, 84
6, 403320, Note_on_c, 1, 90, 84
6, 403491, Note_on_c, 1, 86, 0
6, 403491, Note_on_c, 1, 90, 0
6, 403500, Note_on_c, 1, 86, 84
6, 403500, Note_on_c, 1, 90, 84
6, 403551, Note_on_c, 1, 86, 0
6, 403551, Note_on_c, 1, 90, 0
6, 403560, Note_on_c, 1, 86, 84
6, 403560, Note_on_c, 1, 90, 84
6, 403664, Note_on_c, 1, 86, 0
6, 403664, Note_on_c, 1, 90, 0
6, 403680, Note_on_c, 1, 88, 84
6, 403680, Note_on_c, 1, 85, 84
6, 404384, Note_on_c, 1, 88, 0
6, 404384, Note_on_c, 1, 85, 0
6, 404400, Note_on_c, 1, 88, 84
6, 404400, Note_on_c, 1, 85, 84
6, 405104, Note_on_c, 1, 88, 0
6, 405104, Note_on_c, 1, 85, 0
6, 405120, Note_on_c, 1, 88, 84
6, 405120, Note_on_c, 1, 85, 84
6, 405824, Note_on_c, 1, 88, 0
6, 405824, Note_on_c, 1, 85, 0
6, 405840, Note_on_c, 1, 85, 84
6, 406184, Note_on_c, 1, 85, 0
6, 406200, Note_on_c, 1, 93, 84
6, 406200, Note_on_c, 1, 81, 84
6, 406559, Note_on_c, 1, 93, 0
6, 406559, Note_on_c, 1, 81, 0
6, 406560, Note_on_c, 1, 78, 84
6, 406560, Note_on_c, 1, 90, 84
6, 406919, Note_on_c, 1, 78, 0
6, 406919, Note_on_c, 1, 90, 0
6, 406920, Note_on_c, 1, 76, 84
6, 406920, Note_on_c, 1, 88, 84
6, 407264, Note_on_c, 1, 76, 0
6, 407264, Note_on_c, 1, 88, 0
6, 407280, Note_on_c, 1, 87, 84
6, 407280, Note_on_c, 1, 75, 84
6, 407399, Note_on_c, 1, 87, 0
6, 407399, Note_on_c, 1, 75, 0
6, 407460, Note_on_c, 1, 90, 84
6, 407460, Note_on_c, 1, 83, 84
6, 407511, Note_on_c, 1, 90, 0
6, 407511, Note_on_c, 1, 83, 0
6, 407520, Note_on_c, 1, 83, 84
6, 407520, Note_on_c, 1, 90, 84
6, 407624, Note_on_c, 1, 83, 0
6, 407624, Note_on_c, 1, 90, 0
6, 407640, Note_on_c, 1, 90, 84
6, 407640, Note_on_c, 1, 83, 84
6, 407879, Note_on_c, 1, 90, 0
6, 407879, Note_on_c, 1, 83, 0
6, 408180, Note_on_c, 1, 90, 84
6, 408180, Note_on_c, 1, 83, 84
6, 408231, Note_on_c, 1, 90, 0
6, 408231, Note_on_c, 1, 83, 0
6, 408240, Note_on_c, 1, 90, 84
6, 408240, Note_on_c, 1, 83, 84
6, 408344, Note_on_c, 1, 90, 0
6, 408344, Note_on_c, 1, 83, 0
6, 408360, Note_on_c, 1, 83, 84
6, 408360, Note_on_c, 1, 90, 84
6, 408599, Note_on_c, 1, 83, 0
6, 408599, Note_on_c, 1, 90, 0
6, 408900, Note_on_c, 1, 88, 84
6, 408900, Note_on_c, 1, 83, 84
6, 408951, Note_on_c, 1, 88, 0
6, 408951, Note_on_c, 1, 83, 0
6, 408960, Note_on_c, 1, 88, 84
6, 408960, Note_on_c, 1, 83, 84
6, 409064, Note_on_c, 1, 88, 0
6, 409064, Note_on_c, 1, 83, 0
6, 409080, Note_on_c, 1, 83, 84
6, 409080, Note_on_c, 1, 88, 84
6, 409319, Note_on_c, 1, 83, 0
6, 409319, Note_on_c, 1, 88, 0
6, 409620, Note_on_c, 1, 83, 84
6, 409620, Note_on_c, 1, 88, 84
6, 409671, Note_on_c, 1, 83, 0
6, 409671, Note_on_c, 1, 88, 0
6, 409680, Note_on_c, 1, 83, 84
6, 409680, Note_on_c, 1, 88, 84
6, 409784, Note_on_c, 1, 83, 0
6, 409784, Note_on_c, 1, 88, 0
6, 409800, Note_on_c, 1, 83, 84
6, 409800, Note_on_c, 1, 88, 84
6, 410039, Note_on_c, 1, 83, 0
6, 410039, Note_on_c, 1, 88, 0
6, 410340, Note_on_c, 1, 88, 84
6, 410340, Note_on_c, 1, 85, 84
6, 410391, Note_on_c, 1, 88, 0
6, 410391, Note_on_c, 1, 85, 0
6, 410400, Note_on_c, 1, 85, 84
6, 410400, Note_on_c, 1, 88, 84
6, 410504, Note_on_c, 1, 85, 0
6, 410504, Note_on_c, 1, 88, 0
6, 410520, Note_on_c, 1, 90, 84
6, 410520, Note_on_c, 1, 81, 84
6, 410759, Note_on_c, 1, 90, 0
6, 410759, Note_on_c, 1, 81, 0
6, 411060, Note_on_c, 1, 85, 84
6, 411060, Note_on_c, 1, 88, 84
6, 411111, Note_on_c, 1, 85, 0
6, 411111, Note_on_c, 1, 88, 0
6, 411120, Note_on_c, 1, 88, 84
6, 411120, Note_on_c, 1, 85, 84
6, 411224, Note_on_c, 1, 88, 0
6, 411224, Note_on_c, 1, 85, 0
6, 411240, Note_on_c, 1, 86, 84
6, 411240, Note_on_c, 1, 83, 84
6, 411479, Note_on_c, 1, 86, 0
6, 411479, Note_on_c, 1, 83, 0
6, 411600, Note_on_c, 1, 85, 84
6, 411600, Note_on_c, 1, 81, 84
6, 411719, Note_on_c, 1, 85, 0
6, 411719, Note_on_c, 1, 81, 0
6, 411780, Note_on_c, 1, 90, 84
6, 411780, Note_on_c, 1, 86, 84
6, 411831, Note_on_c, 1, 90, 0
6, 411831, Note_on_c, 1, 86, 0
6, 411840, Note_on_c, 1, 90, 84
6, 411840, Note_on_c, 1, 86, 84
6, 411944, Note_on_c, 1, 90, 0
6, 411944, Note_on_c, 1, 86, 0
6, 411960, Note_on_c, 1, 90, 84
6, 411960, Note_on_c, 1, 86, 84
6, 412079, Note_on_c, 1, 90, 0
6, 412079, Note_on_c, 1, 86, 0
6, 412140, Note_on_c, 1, 88, 84
6, 412140, Note_on_c, 1, 85, 84
6, 412191, Note_on_c, 1, 88, 0
6, 412191, Note_on_c, 1, 85, 0
6, 412200, Note_on_c, 1, 88, 84
6, 412200, Note_on_c, 1, 85, 84
6, 412304, Note_on_c, 1, 88, 0
6, 412304, Note_on_c, 1, 85, 0
6, 412320, Note_on_c, 1, 88, 84
6, 412320, Note_on_c, 1, 85, 84
6, 412439, Note_on_c, 1, 88, 0
6, 412439, Note_on_c, 1, 85, 0
6, 412500, Note_on_c, 1, 86, 84
6, 412500, Note_on_c, 1, 83, 84
6, 412551, Note_on_c, 1, 86, 0
6, 412551, Note_on_c, 1, 83, 0
6, 412560, Note_on_c, 1, 83, 84
6, 412560, Note_on_c, 1, 86, 84
6, 412664, Note_on_c, 1, 83, 0
6, 412664, Note_on_c, 1, 86, 0
6, 412680, Note_on_c, 1, 83, 84
6, 412680, Note_on_c, 1, 86, 84
6, 412799, Note_on_c, 1, 83, 0
6, 412799, Note_on_c, 1, 86, 0
6, 412860, Note_on_c, 1, 85, 84
6, 412860, Note_on_c, 1, 81, 84
6, 412911, Note_on_c, 1, 85, 0
6, 412911, Note_on_c, 1, 81, 0
6, 412920, Note_on_c, 1, 85, 84
6, 412920, Note_on_c, 1, 81, 84
6, 413024, Note_on_c, 1, 85, 0
6, 413024, Note_on_c, 1, 81, 0
6, 413040, Note_on_c, 1, 85, 84
6, 413040, Note_on_c, 1, 81, 84
6, 413159, Note_on_c, 1, 85, 0
6, 413159, Note_on_c, 1, 81, 0
6, 413220, Note_on_c, 1, 90, 84
6, 413220, Note_on_c, 1, 86, 84
6, 413271, Note_on_c, 1, 90, 0
6, 413271, Note_on_c, 1, 86, 0
6, 413280, Note_on_c, 1, 90, 84
6, 413280, Note_on_c, 1, 86, 84
6, 413384, Note_on_c, 1, 90, 0
6, 413384, Note_on_c, 1, 86, 0
6, 413400, Note_on_c, 1, 86, 84
6, 413400, Note_on_c, 1, 90, 84
6, 413519, Note_on_c, 1, 86, 0
6, 413519, Note_on_c, 1, 90, 0
6, 413580, Note_on_c, 1, 88, 84
6, 413580, Note_on_c, 1, 85, 84
6, 413631, Note_on_c, 1, 88, 0
6, 413631, Note_on_c, 1, 85, 0
6, 413640, Note_on_c, 1, 88, 84
6, 413640, Note_on_c, 1, 85, 84
6, 413744, Note_on_c, 1, 88, 0
6, 413744, Note_on_c, 1, 85, 0
6, 413760, Note_on_c, 1, 85, 84
6, 413760, Note_on_c, 1, 88, 84
6, 413879, Note_on_c, 1, 85, 0
6, 413879, Note_on_c, 1, 88, 0
6, 413940, Note_on_c, 1, 83, 84
6, 413940, Note_on_c, 1, 88, 84
6, 413991, Note_on_c, 1, 83, 0
6, 413991, Note_on_c, 1, 88, 0
6, 414000, Note_on_c, 1, 88, 84
6, 414000, Note_on_c, 1, 83, 84
6, 414104, Note_on_c, 1, 88, 0
6, 414104, Note_on_c, 1, 83, 0
6, 414120, Note_on_c, 1, 88, 84
6, 414120, Note_on_c, 1, 83, 84
6, 414239, Note_on_c, 1, 88, 0
6, 414239, Note_on_c, 1, 83, 0
6, 414300, Note_on_c, 1, 88, 84
6, 414300, Note_on_c, 1, 85, 84
6, 414351, Note_on_c, 1, 88, 0
6, 414351, Note_on_c, 1, 85, 0
6, 414360, Note_on_c, 1, 88, 84
6, 414360, Note_on_c, 1, 85, 84
6, 414464, Note_on_c, 1, 88, 0
6, 414464, Note_on_c, 1, 85, 0
6, 414480, Note_on_c, 1, 88, 84
6, 415011, Note_on_c, 1, 88, 0
6, 415020, Note_on_c, 1, 86, 84
6, 415064, Note_on_c, 1, 86, 0
6, 415080, Note_on_c, 1, 85, 84
6, 415169, Note_on_c, 1, 85, 0
6, 415200, Note_on_c, 1, 83, 84
6, 415319, Note_on_c, 1, 83, 0
6, 415380, Note_on_c, 1, 83, 84
6, 415431, Note_on_c, 1, 83, 0
6, 415440, Note_on_c, 1, 83, 84
6, 415544, Note_on_c, 1, 83, 0
6, 415560, Note_on_c, 1, 83, 84
6, 415679, Note_on_c, 1, 83, 0
6, 415740, Note_on_c, 1, 88, 84
6, 415791, Note_on_c, 1, 88, 0
6, 415800, Note_on_c, 1, 88, 84
6, 415904, Note_on_c, 1, 88, 0
6, 415920, Note_on_c, 1, 88, 84
6, 416451, Note_on_c, 1, 88, 0
6, 416460, Note_on_c, 1, 86, 84
6, 416504, Note_on_c, 1, 86, 0
6, 416520, Note_on_c, 1, 85, 84
6, 416609, Note_on_c, 1, 85, 0
6, 416640, Note_on_c, 1, 83, 84
6, 416759, Note_on_c, 1, 83, 0
6, 416820, Note_on_c, 1, 83, 84
6, 416871, Note_on_c, 1, 83, 0
6, 416880, Note_on_c, 1, 83, 84
6, 416984, Note_on_c, 1, 83, 0
6, 417000, Note_on_c, 1, 83, 84
6, 417119, Note_on_c, 1, 83, 0
6, 417180, Note_on_c, 1, 88, 84
6, 417231, Note_on_c, 1, 88, 0
6, 417240, Note_on_c, 1, 88, 84
6, 417344, Note_on_c, 1, 88, 0
6, 417360, Note_on_c, 1, 88, 84
6, 417479, Note_on_c, 1, 88, 0
6, 417540, Note_on_c, 1, 93, 84
6, 417540, Note_on_c, 1, 88, 84
6, 417591, Note_on_c, 1, 93, 0
6, 417591, Note_on_c, 1, 88, 0
6, 417600, Note_on_c, 1, 93, 84
6, 417600, Note_on_c, 1, 88, 84
6, 417704, Note_on_c, 1, 93, 0
6, 417704, Note_on_c, 1, 88, 0
6, 417720, Note_on_c, 1, 88, 84
6, 417720, Note_on_c, 1, 93, 84
6, 417839, Note_on_c, 1, 88, 0
6, 417839, Note_on_c, 1, 93, 0
6, 417900, Note_on_c, 1, 88, 84
6, 417900, Note_on_c, 1, 93, 84
6, 417951, Note_on_c, 1, 88, 0
6, 417951, Note_on_c, 1, 93, 0
6, 417960, Note_on_c, 1, 93, 84
6, 417960, Note_on_c, 1, 88, 84
6, 418064, Note_on_c, 1, 93, 0
6, 418064, Note_on_c, 1, 88, 0
6, 418080, Note_on_c, 1, 88, 84
6, 418080, Note_on_c, 1, 93, 84
6, 418199, Note_on_c, 1, 88, 0
6, 418199, Note_on_c, 1, 93, 0
6, 418260, Note_on_c, 1, 88, 84
6, 418260, Note_on_c, 1, 93, 84
6, 418311, Note_on_c, 1, 88, 0
6, 418311, Note_on_c, 1, 93, 0
6, 418320, Note_on_c, 1, 88, 84
6, 418320, Note_on_c, 1, 93, 84
6, 418424, Note_on_c, 1, 88, 0
6, 418424, Note_on_c, 1, 93, 0
6, 418440, Note_on_c, 1, 93, 84
6, 418440, Note_on_c, 1, 88, 84
6, 418559, Note_on_c, 1, 93, 0
6, 418559, Note_on_c, 1, 88, 0
6, 418620, Note_on_c, 1, 93, 84
6, 418620, Note_on_c, 1, 88, 84
6, 418671, Note_on_c, 1, 93, 0
6, 418671, Note_on_c, 1, 88, 0
6, 418680, Note_on_c, 1, 88, 84
6, 418680, Note_on_c, 1, 93, 84
6, 418784, Note_on_c, 1, 88, 0
6, 418784, Note_on_c, 1, 93, 0
6, 418800, Note_on_c, 1, 93, 84
6, 418800, Note_on_c, 1, 88, 84
6, 419039, Note_on_c, 1, 93, 0
6, 419039, Note_on_c, 1, 88, 0
6, 419520, Note_on_c, 1, 88, 84
6, 419759, Note_on_c, 1, 88, 0
6, 420240, Note_on_c, 1, 85, 84
6, 420479, Note_on_c, 1, 85, 0
6, 420479, End_track
7, 0, Start_track
7, 0, Title_t, "Oboe"
7, 0, MIDI_port, 0
7, 0, Program_c, 2, 68
7, 0, Control_c, 2, 7, 80
7, 0, Control_c, 2, 10, 70
7, 0, Control_c, 2, 11, 127
7, 0, Note_on_c, 2, 81, 76
7, 0, Note_on_c, 2, 73, 76
7, 60, Control_c, 2, 11, 80
7, 179, Note_on_c, 2, 73, 0
7, 479, Note_on_c, 2, 81, 0
7, 480, Note_on_c, 2, 76, 76
7, 959, Note_on_c, 2, 76, 0
7, 960, Note_on_c, 2, 73, 76
7, 1439, Note_on_c, 2, 73, 0
7, 1440, Note_on_c, 2, 78, 76
7, 1909, Note_on_c, 2, 78, 0
7, 1918, Control_c, 2, 11, 127
7, 1920, Note_on_c, 2, 76, 76
7, 1980, Control_c, 2, 11, 80
7, 3119, Note_on_c, 2, 76, 0
7, 3120, Note_on_c, 2, 78, 76
7, 3239, Note_on_c, 2, 78, 0
7, 3240, Note_on_c, 2, 76, 76
7, 3354, Note_on_c, 2, 76, 0
7, 3360, Note_on_c, 2, 76, 76
7, 3599, Note_on_c, 2, 76, 0
7, 3600, Note_on_c, 2, 78, 76
7, 3719, Note_on_c, 2, 78, 0
7, 3720, Note_on_c, 2, 76, 76
7, 3829, Note_on_c, 2, 76, 0
7, 3838, Control_c, 2, 11, 127
7, 3840, Note_on_c, 2, 76, 76
7, 3900, Control_c, 2, 11, 80
7, 4919, Note_on_c, 2, 76, 0
7, 4920, Note_on_c, 2, 74, 76
7, 5039, Note_on_c, 2, 74, 0
7, 5040, Note_on_c, 2, 73, 76
7, 5159, Note_on_c, 2, 73, 0
7, 5160, Note_on_c, 2, 74, 76
7, 5279, Note_on_c, 2, 74, 0
7, 5280, Note_on_c, 2, 76, 76
7, 5399, Note_on_c, 2, 76, 0
7, 5400, Note_on_c, 2, 78, 76
7, 5519, Note_on_c, 2, 78, 0
7, 5520, Note_on_c, 2, 79, 76
7, 5639, Note_on_c, 2, 79, 0
7, 5640, Note_on_c, 2, 76, 76
7, 5749, Note_on_c, 2, 76, 0
7, 5758, Control_c, 2, 11, 127
7, 5760, Note_on_c, 2, 74, 76
7, 5820, Control_c, 2, 11, 80
7, 6240, Note_on_c, 2, 69, 76
7, 6719, Note_on_c, 2, 69, 0
7, 6720, Note_on_c, 2, 71, 76
7, 7199, Note_on_c, 2, 74, 0
7, 7199, Note_on_c, 2, 71, 0
7, 7200, Note_on_c, 2, 76, 76
7, 7200, Note_on_c, 2, 72, 76
7, 7439, Note_on_c, 2, 76, 0
7, 7440, Note_on_c, 2, 79, 76
7, 7669, Note_on_c, 2, 72, 0
7, 7669, Note_on_c, 2, 79, 0
7, 7680, Note_on_c, 2, 81, 76
7, 7680, Control_c, 2, 11, 80
7, 7680, Note_on_c, 2, 72, 76
7, 7740, Control_c, 2, 11, 79
7, 7800, Control_c, 2, 11, 78
7, 7860, Control_c, 2, 11, 77
7, 7920, Control_c, 2, 11, 76
7, 7980, Control_c, 2, 11, 75
7, 8040, Control_c, 2, 11, 74
7, 8100, Control_c, 2, 11, 73
7, 8160, Control_c, 2, 11, 72
7, 8220, Control_c, 2, 11, 71
7, 8280, Control_c, 2, 11, 70
7, 8340, Control_c, 2, 11, 69
7, 8389, Note_on_c, 2, 81, 0
7, 8399, Note_on_c, 2, 72, 0
7, 8400, Note_on_c, 2, 81, 76
7, 8400, Note_on_c, 2, 69, 76
7, 8400, Control_c, 2, 11, 68
7, 8460, Control_c, 2, 11, 67
7, 8520, Control_c, 2, 11, 66
7, 8580, Control_c, 2, 11, 64
7, 8639, Note_on_c, 2, 81, 0
7, 8639, Note_on_c, 2, 69, 0
7, 8640, Note_on_c, 2, 76, 76
7, 8879, Note_on_c, 2, 76, 0
7, 12480, Control_c, 2, 11, 127
7, 12960, Note_on_c, 2, 80, 60
7, 13004, Note_on_c, 2, 80, 0
7, 13020, Note_on_c, 2, 81, 63
7, 13064, Note_on_c, 2, 81, 0
7, 13080, Note_on_c, 2, 83, 66
7, 13124, Note_on_c, 2, 83, 0
7, 13140, Note_on_c, 2, 85, 69
7, 13184, Note_on_c, 2, 85, 0
7, 13200, Note_on_c, 2, 83, 72
7, 13200, Note_on_c, 2, 86, 72
7, 13244, Note_on_c, 2, 83, 0
7, 13244, Note_on_c, 2, 86, 0
7, 13260, Note_on_c, 2, 86, 75
7, 13260, Note_on_c, 2, 83, 75
7, 13304, Note_on_c, 2, 86, 0
7, 13304, Note_on_c, 2, 83, 0
7, 13320, Note_on_c, 2, 86, 78
7, 13320, Note_on_c, 2, 83, 78
7, 13364, Note_on_c, 2, 86, 0
7, 13364, Note_on_c, 2, 83, 0
7, 13380, Note_on_c, 2, 83, 81
7, 13380, Note_on_c, 2, 86, 81
7, 13424, Note_on_c, 2, 83, 0
7, 13424, Note_on_c, 2, 86, 0
7, 13440, Note_on_c, 2, 85, 84
7, 13440, Note_on_c, 2, 81, 84
7, 14639, Note_on_c, 2, 85, 0
7, 14639, Note_on_c, 2, 81, 0
7, 15360, Note_on_c, 2, 76, 84
7, 15360, Note_on_c, 2, 83, 84
7, 16319, Note_on_c, 2, 83, 0
7, 16320, Note_on_c, 2, 81, 84
7, 16559, Note_on_c, 2, 76, 0
7, 16559, Note_on_c, 2, 81, 0
7, 17280, Note_on_c, 2, 74, 84
7, 17280, Note_on_c, 2, 86, 84
7, 18479, Note_on_c, 2, 74, 0
7, 18479, Note_on_c, 2, 86, 0
7, 19200, Note_on_c, 2, 79, 84
7, 19200, Note_on_c, 2, 83, 84
7, 20149, Note_on_c, 2, 79, 0
7, 20149, Note_on_c, 2, 83, 0
7, 20160, Note_on_c, 2, 79, 84
7, 20160, Note_on_c, 2, 84, 84
7, 20399, Note_on_c, 2, 79, 0
7, 20399, Note_on_c, 2, 84, 0
7, 20880, Note_on_c, 2, 72, 60
7, 20924, Note_on_c, 2, 72, 0
7, 20940, Note_on_c, 2, 72, 58
7, 20984, Note_on_c, 2, 72, 0
7, 21000, Note_on_c, 2, 74, 56
7, 21044, Note_on_c, 2, 74, 0
7, 21060, Note_on_c, 2, 76, 54
7, 21104, Note_on_c, 2, 76, 0
7, 21120, Note_on_c, 2, 77, 48
7, 21120, Note_on_c, 2, 71, 48
7, 21589, Note_on_c, 2, 71, 0
7, 21599, Note_on_c, 2, 77, 0
7, 21600, Note_on_c, 2, 71, 48
7, 21600, Note_on_c, 2, 79, 48
7, 21659, Note_on_c, 2, 79, 0
7, 21660, Note_on_c, 2, 77, 48
7, 21719, Note_on_c, 2, 77, 0
7, 21720, Note_on_c, 2, 76, 48
7, 21779, Note_on_c, 2, 76, 0
7, 21780, Note_on_c, 2, 77, 48
7, 21829, Note_on_c, 2, 71, 0
7, 21833, Note_on_c, 2, 77, 0
7, 21840, Note_on_c, 2, 71, 48
7, 21840, Note_on_c, 2, 79, 48
7, 21929, Note_on_c, 2, 71, 0
7, 21929, Note_on_c, 2, 79, 0
7, 21960, Note_on_c, 2, 77, 48
7, 21960, Note_on_c, 2, 71, 48
7, 22049, Note_on_c, 2, 77, 0
7, 22049, Note_on_c, 2, 71, 0
7, 22080, Note_on_c, 2, 72, 48
7, 22080, Note_on_c, 2, 76, 48
7, 22309, Note_on_c, 2, 72, 0
7, 22319, Note_on_c, 2, 76, 0
7, 22320, Note_on_c, 2, 72, 48
7, 22320, Note_on_c, 2, 79, 48
7, 22439, Note_on_c, 2, 72, 0
7, 22439, Note_on_c, 2, 79, 0
7, 22500, Note_on_c, 2, 72, 48
7, 22500, Note_on_c, 2, 79, 48
7, 22553, Note_on_c, 2, 72, 0
7, 22553, Note_on_c, 2, 79, 0
7, 22560, Note_on_c, 2, 84, 48
7, 22560, Note_on_c, 2, 72, 48
7, 22789, Note_on_c, 2, 72, 0
7, 22799, Note_on_c, 2, 84, 0
7, 22800, Note_on_c, 2, 72, 48
7, 22800, Note_on_c, 2, 79, 48
7, 22919, Note_on_c, 2, 72, 0
7, 22919, Note_on_c, 2, 79, 0
7, 22980, Note_on_c, 2, 72, 48
7, 22980, Note_on_c, 2, 79, 48
7, 23033, Note_on_c, 2, 72, 0
7, 23033, Note_on_c, 2, 79, 0
7, 23040, Note_on_c, 2, 71, 48
7, 23040, Note_on_c, 2, 77, 48
7, 23509, Note_on_c, 2, 71, 0
7, 23519, Note_on_c, 2, 77, 0
7, 23520, Note_on_c, 2, 71, 48
7, 23520, Note_on_c, 2, 79, 48
7, 23579, Note_on_c, 2, 79, 0
7, 23580, Note_on_c, 2, 77, 48
7, 23639, Note_on_c, 2, 77, 0
7, 23640, Note_on_c, 2, 76, 48
7, 23699, Note_on_c, 2, 76, 0
7, 23700, Note_on_c, 2, 77, 48
7, 23749, Note_on_c, 2, 71, 0
7, 23753, Note_on_c, 2, 77, 0
7, 23760, Note_on_c, 2, 71, 48
7, 23760, Note_on_c, 2, 79, 48
7, 23849, Note_on_c, 2, 71, 0
7, 23849, Note_on_c, 2, 79, 0
7, 23880, Note_on_c, 2, 77, 48
7, 23880, Note_on_c, 2, 71, 48
7, 23969, Note_on_c, 2, 77, 0
7, 23969, Note_on_c, 2, 71, 0
7, 24000, Note_on_c, 2, 76, 48
7, 24000, Note_on_c, 2, 72, 48
7, 24229, Note_on_c, 2, 72, 0
7, 24239, Note_on_c, 2, 76, 0
7, 24240, Note_on_c, 2, 79, 48
7, 24240, Note_on_c, 2, 72, 48
7, 24359, Note_on_c, 2, 79, 0
7, 24359, Note_on_c, 2, 72, 0
7, 24420, Note_on_c, 2, 79, 48
7, 24420, Note_on_c, 2, 72, 48
7, 24473, Note_on_c, 2, 79, 0
7, 24473, Note_on_c, 2, 72, 0
7, 24480, Note_on_c, 2, 72, 48
7, 24480, Note_on_c, 2, 84, 48
7, 24709, Note_on_c, 2, 72, 0
7, 24719, Note_on_c, 2, 84, 0
7, 24720, Note_on_c, 2, 72, 48
7, 24720, Note_on_c, 2, 79, 48
7, 24839, Note_on_c, 2, 72, 0
7, 24839, Note_on_c, 2, 79, 0
7, 24900, Note_on_c, 2, 72, 48
7, 24900, Note_on_c, 2, 79, 48
7, 24953, Note_on_c, 2, 72, 0
7, 24953, Note_on_c, 2, 79, 0
7, 24960, Note_on_c, 2, 72, 48
7, 24960, Note_on_c, 2, 81, 48
7, 25199, Note_on_c, 2, 72, 0
7, 25199, Note_on_c, 2, 81, 0
7, 25200, Note_on_c, 2, 69, 48
7, 25200, Note_on_c, 2, 77, 48
7, 25319, Note_on_c, 2, 69, 0
7, 25319, Note_on_c, 2, 77, 0
7, 25380, Note_on_c, 2, 77, 48
7, 25380, Note_on_c, 2, 69, 48
7, 25433, Note_on_c, 2, 77, 0
7, 25433, Note_on_c, 2, 69, 0
7, 25440, Note_on_c, 2, 84, 48
7, 25440, Note_on_c, 2, 81, 48
7, 25679, Note_on_c, 2, 84, 0
7, 25679, Note_on_c, 2, 81, 0
7, 25680, Note_on_c, 2, 77, 48
7, 25680, Note_on_c, 2, 81, 48
7, 25799, Note_on_c, 2, 77, 0
7, 25799, Note_on_c, 2, 81, 0
7, 25860, Note_on_c, 2, 77, 48
7, 25860, Note_on_c, 2, 81, 48
7, 25913, Note_on_c, 2, 77, 0
7, 25913, Note_on_c, 2, 81, 0
7, 25920, Note_on_c, 2, 76, 48
7, 25920, Note_on_c, 2, 79, 48
7, 26159, Note_on_c, 2, 76, 0
7, 26159, Note_on_c, 2, 79, 0
7, 26160, Note_on_c, 2, 76, 48
7, 26160, Note_on_c, 2, 72, 48
7, 26279, Note_on_c, 2, 76, 0
7, 26279, Note_on_c, 2, 72, 0
7, 26340, Note_on_c, 2, 76, 48
7, 26340, Note_on_c, 2, 72, 48
7, 26393, Note_on_c, 2, 76, 0
7, 26393, Note_on_c, 2, 72, 0
7, 26400, Note_on_c, 2, 74, 48
7, 26400, Note_on_c, 2, 79, 48
7, 26639, Note_on_c, 2, 74, 0
7, 26639, Note_on_c, 2, 79, 0
7, 26640, Note_on_c, 2, 74, 48
7, 26640, Note_on_c, 2, 71, 48
7, 26759, Note_on_c, 2, 74, 0
7, 26759, Note_on_c, 2, 71, 0
7, 26820, Note_on_c, 2, 79, 48
7, 26873, Note_on_c, 2, 79, 0
7, 26880, Note_on_c, 2, 79, 44
7, 27413, Note_on_c, 2, 79, 0
7, 27420, Note_on_c, 2, 79, 44
7, 27473, Note_on_c, 2, 79, 0
7, 27480, Note_on_c, 2, 79, 44
7, 27533, Note_on_c, 2, 79, 0
7, 27540, Note_on_c, 2, 79, 44
7, 27593, Note_on_c, 2, 79, 0
7, 27600, Note_on_c, 2, 79, 44
7, 27653, Note_on_c, 2, 79, 0
7, 27660, Note_on_c, 2, 79, 44
7, 27713, Note_on_c, 2, 79, 0
7, 27720, Note_on_c, 2, 79, 44
7, 27773, Note_on_c, 2, 79, 0
7, 27780, Note_on_c, 2, 79, 44
7, 27833, Note_on_c, 2, 79, 0
7, 27840, Note_on_c, 2, 79, 44
7, 28373, Note_on_c, 2, 79, 0
7, 28380, Note_on_c, 2, 79, 44
7, 28433, Note_on_c, 2, 79, 0
7, 28440, Note_on_c, 2, 79, 44
7, 28493, Note_on_c, 2, 79, 0
7, 28500, Note_on_c, 2, 79, 44
7, 28553, Note_on_c, 2, 79, 0
7, 28560, Note_on_c, 2, 79, 44
7, 28613, Note_on_c, 2, 79, 0
7, 28620, Note_on_c, 2, 79, 44
7, 28673, Note_on_c, 2, 79, 0
7, 28680, Note_on_c, 2, 79, 44
7, 28733, Note_on_c, 2, 79, 0
7, 28740, Note_on_c, 2, 79, 44
7, 28793, Note_on_c, 2, 79, 0
7, 28800, Note_on_c, 2, 79, 44
7, 29333, Note_on_c, 2, 79, 0
7, 29340, Note_on_c, 2, 79, 44
7, 29393, Note_on_c, 2, 79, 0
7, 29400, Note_on_c, 2, 79, 44
7, 29453, Note_on_c, 2, 79, 0
7, 29460, Note_on_c, 2, 79, 44
7, 29513, Note_on_c, 2, 79, 0
7, 29520, Note_on_c, 2, 79, 44
7, 29573, Note_on_c, 2, 79, 0
7, 29580, Note_on_c, 2, 79, 44
7, 29633, Note_on_c, 2, 79, 0
7, 29640, Note_on_c, 2, 79, 44
7, 29693, Note_on_c, 2, 79, 0
7, 29700, Note_on_c, 2, 79, 44
7, 29753, Note_on_c, 2, 79, 0
7, 29760, Note_on_c, 2, 79, 44
7, 30229, Note_on_c, 2, 79, 0
7, 30238, Control_c, 2, 11, 48
7, 30240, Control_c, 2, 11, 48
7, 30240, Note_on_c, 2, 72, 84
7, 30280, Control_c, 2, 11, 50
7, 30293, Note_on_c, 2, 72, 0
7, 30300, Note_on_c, 2, 72, 84
7, 30320, Control_c, 2, 11, 52
7, 30353, Note_on_c, 2, 72, 0
7, 30360, Control_c, 2, 11, 55
7, 30360, Note_on_c, 2, 72, 84
7, 30400, Control_c, 2, 11, 57
7, 30413, Note_on_c, 2, 72, 0
7, 30420, Note_on_c, 2, 72, 84
7, 30440, Control_c, 2, 11, 59
7, 30473, Note_on_c, 2, 72, 0
7, 30480, Control_c, 2, 11, 61
7, 30480, Note_on_c, 2, 72, 84
7, 30520, Control_c, 2, 11, 63
7, 30533, Note_on_c, 2, 72, 0
7, 30540, Note_on_c, 2, 72, 84
7, 30560, Control_c, 2, 11, 66
7, 30593, Note_on_c, 2, 72, 0
7, 30600, Control_c, 2, 11, 68
7, 30600, Note_on_c, 2, 72, 84
7, 30640, Control_c, 2, 11, 70
7, 30653, Note_on_c, 2, 72, 0
7, 30660, Note_on_c, 2, 72, 84
7, 30680, Control_c, 2, 11, 72
7, 30713, Note_on_c, 2, 72, 0
7, 30720, Note_on_c, 2, 72, 84
7, 30720, Control_c, 2, 11, 74
7, 30760, Control_c, 2, 11, 77
7, 30800, Control_c, 2, 11, 79
7, 30840, Control_c, 2, 11, 81
7, 30880, Control_c, 2, 11, 83
7, 30920, Control_c, 2, 11, 85
7, 30949, Note_on_c, 2, 72, 0
7, 30960, Control_c, 2, 11, 88
7, 30960, Note_on_c, 2, 74, 84
7, 31000, Control_c, 2, 11, 90
7, 31013, Note_on_c, 2, 74, 0
7, 31020, Note_on_c, 2, 74, 84
7, 31040, Control_c, 2, 11, 92
7, 31073, Note_on_c, 2, 74, 0
7, 31080, Control_c, 2, 11, 94
7, 31080, Note_on_c, 2, 74, 84
7, 31120, Control_c, 2, 11, 96
7, 31133, Note_on_c, 2, 74, 0
7, 31140, Note_on_c, 2, 74, 84
7, 31160, Control_c, 2, 11, 98
7, 31193, Note_on_c, 2, 74, 0
7, 31200, Note_on_c, 2, 74, 84
7, 31200, Control_c, 2, 11, 101
7, 31240, Control_c, 2, 11, 103
7, 31280, Control_c, 2, 11, 105
7, 31320, Control_c, 2, 11, 107
7, 31360, Control_c, 2, 11, 109
7, 31400, Control_c, 2, 11, 112
7, 31429, Note_on_c, 2, 74, 0
7, 31440, Control_c, 2, 11, 114
7, 31440, Note_on_c, 2, 74, 84
7, 31440, Note_on_c, 2, 83, 84
7, 31480, Control_c, 2, 11, 116
7, 31493, Note_on_c, 2, 74, 0
7, 31493, Note_on_c, 2, 83, 0
7, 31500, Note_on_c, 2, 74, 84
7, 31500, Note_on_c, 2, 83, 84
7, 31520, Control_c, 2, 11, 118
7, 31553, Note_on_c, 2, 74, 0
7, 31553, Note_on_c, 2, 83, 0
7, 31560, Note_on_c, 2, 83, 84
7, 31560, Control_c, 2, 11, 120
7, 31560, Note_on_c, 2, 74, 84
7, 31600, Control_c, 2, 11, 123
7, 31613, Note_on_c, 2, 83, 0
7, 31613, Note_on_c, 2, 74, 0
7, 31620, Note_on_c, 2, 83, 84
7, 31620, Note_on_c, 2, 74, 84
7, 31640, Control_c, 2, 11, 127
7, 31673, Note_on_c, 2, 83, 0
7, 31673, Note_on_c, 2, 74, 0
7, 31680, Note_on_c, 2, 83, 84
7, 31680, Note_on_c, 2, 76, 84
7, 32149, Note_on_c, 2, 83, 0
7, 32149, Note_on_c, 2, 76, 0
7, 32160, Note_on_c, 2, 76, 92
7, 32220, Control_c, 2, 11, 112
7, 32629, Note_on_c, 2, 76, 0
7, 32638, Control_c, 2, 11, 127
7, 32640, Note_on_c, 2, 71, 92
7, 32700, Control_c, 2, 11, 112
7, 33109, Note_on_c, 2, 71, 0
7, 33118, Control_c, 2, 11, 127
7, 33120, Note_on_c, 2, 64, 92
7, 33180, Control_c, 2, 11, 112
7, 33589, Note_on_c, 2, 64, 0
7, 33598, Control_c, 2, 11, 127
7, 33600, Note_on_c, 2, 76, 92
7, 33660, Control_c, 2, 11, 112
7, 34069, Note_on_c, 2, 76, 0
7, 34078, Control_c, 2, 11, 127
7, 34080, Note_on_c, 2, 78, 92
7, 34140, Control_c, 2, 11, 112
7, 34549, Note_on_c, 2, 78, 0
7, 34558, Control_c, 2, 11, 127
7, 34560, Note_on_c, 2, 73, 92
7, 34620, Control_c, 2, 11, 112
7, 35029, Note_on_c, 2, 73, 0
7, 35038, Control_c, 2, 11, 127
7, 35040, Note_on_c, 2, 64, 92
7, 35100, Control_c, 2, 11, 112
7, 35509, Note_on_c, 2, 64, 0
7, 35518, Control_c, 2, 11, 127
7, 35520, Note_on_c, 2, 76, 92
7, 35580, Control_c, 2, 11, 112
7, 35989, Note_on_c, 2, 76, 0
7, 35998, Control_c, 2, 11, 127
7, 36000, Note_on_c, 2, 79, 92
7, 36060, Control_c, 2, 11, 112
7, 36469, Note_on_c, 2, 79, 0
7, 36480, Note_on_c, 2, 76, 92
7, 36540, Control_c, 2, 11, 112
7, 36949, Note_on_c, 2, 76, 0
7, 36958, Control_c, 2, 11, 127
7, 36960, Note_on_c, 2, 64, 92
7, 37020, Control_c, 2, 11, 112
7, 37429, Note_on_c, 2, 64, 0
7, 37438, Control_c, 2, 11, 127
7, 37440, Note_on_c, 2, 76, 92
7, 37500, Control_c, 2, 11, 112
7, 37909, Note_on_c, 2, 76, 0
7, 37918, Control_c, 2, 11, 127
7, 37920, Note_on_c, 2, 79, 92
7, 37980, Control_c, 2, 11, 112
7, 38389, Note_on_c, 2, 79, 0
7, 38398, Control_c, 2, 11, 127
7, 38400, Note_on_c, 2, 76, 84
7, 38639, Note_on_c, 2, 76, 0
7, 38880, Note_on_c, 2, 72, 68
7, 38933, Note_on_c, 2, 72, 0
7, 38940, Note_on_c, 2, 74, 66
7, 38993, Note_on_c, 2, 74, 0
7, 39000, Note_on_c, 2, 76, 64
7, 39053, Note_on_c, 2, 76, 0
7, 39060, Note_on_c, 2, 77, 62
7, 39113, Note_on_c, 2, 77, 0
7, 39120, Note_on_c, 2, 79, 60
7, 39173, Note_on_c, 2, 79, 0
7, 39180, Note_on_c, 2, 79, 58
7, 39233, Note_on_c, 2, 79, 0
7, 39240, Note_on_c, 2, 79, 56
7, 39293, Note_on_c, 2, 79, 0
7, 39300, Note_on_c, 2, 79, 54
7, 39353, Note_on_c, 2, 79, 0
7, 39360, Note_on_c, 2, 72, 48
7, 39360, Note_on_c, 2, 79, 48
7, 39829, Note_on_c, 2, 72, 0
7, 39829, Note_on_c, 2, 79, 0
7, 39840, Note_on_c, 2, 72, 48
7, 39840, Note_on_c, 2, 79, 48
7, 40069, Note_on_c, 2, 72, 0
7, 40069, Note_on_c, 2, 79, 0
7, 40080, Note_on_c, 2, 79, 48
7, 40080, Note_on_c, 2, 72, 48
7, 40189, Note_on_c, 2, 79, 0
7, 40189, Note_on_c, 2, 72, 0
7, 40200, Note_on_c, 2, 79, 48
7, 40200, Note_on_c, 2, 72, 48
7, 40309, Note_on_c, 2, 79, 0
7, 40309, Note_on_c, 2, 72, 0
7, 40320, Note_on_c, 2, 72, 48
7, 40320, Note_on_c, 2, 77, 48
7, 40549, Note_on_c, 2, 72, 0
7, 40559, Note_on_c, 2, 77, 0
7, 40560, Note_on_c, 2, 72, 48
7, 40560, Note_on_c, 2, 81, 48
7, 40679, Note_on_c, 2, 72, 0
7, 40679, Note_on_c, 2, 81, 0
7, 40740, Note_on_c, 2, 72, 48
7, 40740, Note_on_c, 2, 81, 48
7, 40793, Note_on_c, 2, 72, 0
7, 40793, Note_on_c, 2, 81, 0
7, 40800, Note_on_c, 2, 81, 48
7, 40800, Note_on_c, 2, 72, 48
7, 41159, Note_on_c, 2, 81, 0
7, 41159, Note_on_c, 2, 72, 0
7, 41220, Note_on_c, 2, 72, 48
7, 41220, Note_on_c, 2, 81, 48
7, 41273, Note_on_c, 2, 72, 0
7, 41273, Note_on_c, 2, 81, 0
7, 41280, Note_on_c, 2, 79, 48
7, 41280, Note_on_c, 2, 72, 48
7, 41749, Note_on_c, 2, 79, 0
7, 41749, Note_on_c, 2, 72, 0
7, 41760, Note_on_c, 2, 79, 48
7, 41760, Note_on_c, 2, 72, 48
7, 41989, Note_on_c, 2, 79, 0
7, 41989, Note_on_c, 2, 72, 0
7, 42000, Note_on_c, 2, 79, 48
7, 42000, Note_on_c, 2, 72, 48
7, 42109, Note_on_c, 2, 79, 0
7, 42109, Note_on_c, 2, 72, 0
7, 42120, Note_on_c, 2, 72, 48
7, 42120, Note_on_c, 2, 79, 48
7, 42229, Note_on_c, 2, 72, 0
7, 42229, Note_on_c, 2, 79, 0
7, 42240, Note_on_c, 2, 77, 48
7, 42240, Note_on_c, 2, 72, 48
7, 42599, Note_on_c, 2, 77, 0
7, 42599, Note_on_c, 2, 72, 0
7, 42660, Note_on_c, 2, 77, 48
7, 42660, Note_on_c, 2, 72, 48
7, 42713, Note_on_c, 2, 77, 0
7, 42713, Note_on_c, 2, 72, 0
7, 42720, Note_on_c, 2, 72, 48
7, 42720, Note_on_c, 2, 77, 48
7, 43079, Note_on_c, 2, 72, 0
7, 43079, Note_on_c, 2, 77, 0
7, 43140, Note_on_c, 2, 77, 48
7, 43140, Note_on_c, 2, 72, 48
7, 43193, Note_on_c, 2, 77, 0
7, 43193, Note_on_c, 2, 72, 0
7, 43200, Note_on_c, 2, 74, 48
7, 43200, Note_on_c, 2, 77, 48
7, 43559, Note_on_c, 2, 74, 0
7, 43559, Note_on_c, 2, 77, 0
7, 43620, Note_on_c, 2, 74, 48
7, 43620, Note_on_c, 2, 77, 48
7, 43673, Note_on_c, 2, 74, 0
7, 43673, Note_on_c, 2, 77, 0
7, 43680, Note_on_c, 2, 77, 48
7, 43680, Note_on_c, 2, 74, 48
7, 44039, Note_on_c, 2, 77, 0
7, 44039, Note_on_c, 2, 74, 0
7, 44100, Note_on_c, 2, 74, 48
7, 44100, Note_on_c, 2, 77, 48
7, 44153, Note_on_c, 2, 74, 0
7, 44153, Note_on_c, 2, 77, 0
7, 44160, Note_on_c, 2, 81, 48
7, 44160, Note_on_c, 2, 72, 48
7, 44389, Note_on_c, 2, 72, 0
7, 44399, Note_on_c, 2, 81, 0
7, 44400, Note_on_c, 2, 77, 48
7, 44400, Note_on_c, 2, 72, 48
7, 44519, Note_on_c, 2, 77, 0
7, 44519, Note_on_c, 2, 72, 0
7, 44580, Note_on_c, 2, 72, 48
7, 44580, Note_on_c, 2, 77, 48
7, 44633, Note_on_c, 2, 72, 0
7, 44633, Note_on_c, 2, 77, 0
7, 44640, Note_on_c, 2, 79, 48
7, 44640, Note_on_c, 2, 72, 48
7, 44869, Note_on_c, 2, 72, 0
7, 44879, Note_on_c, 2, 79, 0
7, 44880, Note_on_c, 2, 76, 48
7, 44880, Note_on_c, 2, 72, 48
7, 44999, Note_on_c, 2, 76, 0
7, 44999, Note_on_c, 2, 72, 0
7, 45060, Note_on_c, 2, 72, 48
7, 45113, Note_on_c, 2, 72, 0
7, 45120, Note_on_c, 2, 72, 44
7, 45653, Note_on_c, 2, 72, 0
7, 45660, Note_on_c, 2, 72, 44
7, 45713, Note_on_c, 2, 72, 0
7, 45720, Note_on_c, 2, 72, 44
7, 45773, Note_on_c, 2, 72, 0
7, 45780, Note_on_c, 2, 72, 44
7, 45833, Note_on_c, 2, 72, 0
7, 45840, Note_on_c, 2, 72, 44
7, 45893, Note_on_c, 2, 72, 0
7, 45900, Note_on_c, 2, 72, 44
7, 45953, Note_on_c, 2, 72, 0
7, 45960, Note_on_c, 2, 72, 44
7, 46013, Note_on_c, 2, 72, 0
7, 46020, Note_on_c, 2, 72, 44
7, 46073, Note_on_c, 2, 72, 0
7, 46078, Control_c, 2, 11, 48
7, 46080, Note_on_c, 2, 72, 84
7, 46080, Control_c, 2, 11, 48
7, 46080, Note_on_c, 2, 69, 84
7, 46129, Control_c, 2, 11, 49
7, 46177, Control_c, 2, 11, 50
7, 46226, Control_c, 2, 11, 51
7, 46274, Control_c, 2, 11, 52
7, 46323, Control_c, 2, 11, 53
7, 46372, Control_c, 2, 11, 54
7, 46420, Control_c, 2, 11, 55
7, 46469, Control_c, 2, 11, 56
7, 46517, Control_c, 2, 11, 57
7, 46566, Control_c, 2, 11, 58
7, 46613, Note_on_c, 2, 72, 0
7, 46613, Note_on_c, 2, 69, 0
7, 46615, Control_c, 2, 11, 59
7, 46620, Note_on_c, 2, 69, 84
7, 46620, Note_on_c, 2, 72, 84
7, 46663, Control_c, 2, 11, 60
7, 46673, Note_on_c, 2, 69, 0
7, 46673, Note_on_c, 2, 72, 0
7, 46680, Note_on_c, 2, 72, 84
7, 46680, Note_on_c, 2, 69, 84
7, 46712, Control_c, 2, 11, 61
7, 46733, Note_on_c, 2, 72, 0
7, 46733, Note_on_c, 2, 69, 0
7, 46740, Note_on_c, 2, 69, 84
7, 46740, Note_on_c, 2, 72, 84
7, 46761, Control_c, 2, 11, 62
7, 46793, Note_on_c, 2, 69, 0
7, 46793, Note_on_c, 2, 72, 0
7, 46800, Note_on_c, 2, 72, 84
7, 46800, Note_on_c, 2, 69, 84
7, 46809, Control_c, 2, 11, 63
7, 46853, Note_on_c, 2, 72, 0
7, 46853, Note_on_c, 2, 69, 0
7, 46858, Control_c, 2, 11, 64
7, 46860, Note_on_c, 2, 72, 84
7, 46860, Note_on_c, 2, 69, 84
7, 46906, Control_c, 2, 11, 65
7, 46913, Note_on_c, 2, 72, 0
7, 46913, Note_on_c, 2, 69, 0
7, 46920, Note_on_c, 2, 72, 84
7, 46920, Note_on_c, 2, 69, 84
7, 46955, Control_c, 2, 11, 66
7, 46973, Note_on_c, 2, 72, 0
7, 46973, Note_on_c, 2, 69, 0
7, 46980, Note_on_c, 2, 69, 84
7, 46980, Note_on_c, 2, 72, 84
7, 47004, Control_c, 2, 11, 67
7, 47033, Note_on_c, 2, 69, 0
7, 47033, Note_on_c, 2, 72, 0
7, 47040, Note_on_c, 2, 69, 84
7, 47040, Note_on_c, 2, 72, 84
7, 47052, Control_c, 2, 11, 68
7, 47101, Control_c, 2, 11, 69
7, 47149, Control_c, 2, 11, 70
7, 47198, Control_c, 2, 11, 71
7, 47247, Control_c, 2, 11, 72
7, 47295, Control_c, 2, 11, 73
7, 47344, Control_c, 2, 11, 74
7, 47392, Control_c, 2, 11, 75
7, 47441, Control_c, 2, 11, 76
7, 47490, Control_c, 2, 11, 77
7, 47538, Control_c, 2, 11, 78
7, 47573, Note_on_c, 2, 69, 0
7, 47573, Note_on_c, 2, 72, 0
7, 47580, Note_on_c, 2, 72, 84
7, 47580, Note_on_c, 2, 69, 84
7, 47587, Control_c, 2, 11, 79
7, 47633, Note_on_c, 2, 72, 0
7, 47633, Note_on_c, 2, 69, 0
7, 47635, Control_c, 2, 11, 80
7, 47640, Note_on_c, 2, 69, 84
7, 47640, Note_on_c, 2, 72, 84
7, 47684, Control_c, 2, 11, 81
7, 47693, Note_on_c, 2, 69, 0
7, 47693, Note_on_c, 2, 72, 0
7, 47700, Note_on_c, 2, 72, 84
7, 47700, Note_on_c, 2, 69, 84
7, 47733, Control_c, 2, 11, 82
7, 47753, Note_on_c, 2, 72, 0
7, 47753, Note_on_c, 2, 69, 0
7, 47760, Note_on_c, 2, 72, 84
7, 47760, Note_on_c, 2, 69, 84
7, 47781, Control_c, 2, 11, 83
7, 47813, Note_on_c, 2, 72, 0
7, 47813, Note_on_c, 2, 69, 0
7, 47820, Note_on_c, 2, 69, 84
7, 47820, Note_on_c, 2, 72, 84
7, 47830, Control_c, 2, 11, 84
7, 47873, Note_on_c, 2, 69, 0
7, 47873, Note_on_c, 2, 72, 0
7, 47878, Control_c, 2, 11, 85
7, 47880, Note_on_c, 2, 72, 84
7, 47880, Note_on_c, 2, 69, 84
7, 47927, Control_c, 2, 11, 86
7, 47933, Note_on_c, 2, 72, 0
7, 47933, Note_on_c, 2, 69, 0
7, 47940, Note_on_c, 2, 72, 84
7, 47940, Note_on_c, 2, 69, 84
7, 47976, Control_c, 2, 11, 87
7, 47993, Note_on_c, 2, 72, 0
7, 47993, Note_on_c, 2, 69, 0
7, 48000, Note_on_c, 2, 69, 84
7, 48000, Note_on_c, 2, 72, 84
7, 48024, Control_c, 2, 11, 88
7, 48073, Control_c, 2, 11, 89
7, 48119, Note_on_c, 2, 69, 0
7, 48119, Note_on_c, 2, 72, 0
7, 48122, Control_c, 2, 11, 90
7, 48170, Control_c, 2, 11, 91
7, 48219, Control_c, 2, 11, 92
7, 48240, Note_on_c, 2, 69, 84
7, 48240, Note_on_c, 2, 72, 84
7, 48267, Control_c, 2, 11, 93
7, 48293, Note_on_c, 2, 69, 0
7, 48293, Note_on_c, 2, 72, 0
7, 48300, Note_on_c, 2, 69, 84
7, 48300, Note_on_c, 2, 72, 84
7, 48316, Control_c, 2, 11, 94
7, 48353, Note_on_c, 2, 69, 0
7, 48353, Note_on_c, 2, 72, 0
7, 48360, Note_on_c, 2, 72, 84
7, 48360, Note_on_c, 2, 69, 84
7, 48365, Control_c, 2, 11, 95
7, 48413, Note_on_c, 2, 72, 0
7, 48413, Note_on_c, 2, 69, 0
7, 48413, Control_c, 2, 11, 96
7, 48420, Note_on_c, 2, 72, 84
7, 48420, Note_on_c, 2, 69, 84
7, 48462, Control_c, 2, 11, 97
7, 48473, Note_on_c, 2, 72, 0
7, 48473, Note_on_c, 2, 69, 0
7, 48480, Note_on_c, 2, 69, 84
7, 48480, Note_on_c, 2, 72, 84
7, 48510, Control_c, 2, 11, 98
7, 48559, Control_c, 2, 11, 99
7, 48599, Note_on_c, 2, 69, 0
7, 48599, Note_on_c, 2, 72, 0
7, 48608, Control_c, 2, 11, 100
7, 48656, Control_c, 2, 11, 101
7, 48705, Control_c, 2, 11, 102
7, 48720, Note_on_c, 2, 72, 84
7, 48720, Note_on_c, 2, 69, 84
7, 48753, Control_c, 2, 11, 103
7, 48773, Note_on_c, 2, 72, 0
7, 48773, Note_on_c, 2, 69, 0
7, 48780, Note_on_c, 2, 72, 84
7, 48780, Note_on_c, 2, 69, 84
7, 48802, Control_c, 2, 11, 104
7, 48833, Note_on_c, 2, 72, 0
7, 48833, Note_on_c, 2, 69, 0
7, 48840, Note_on_c, 2, 69, 84
7, 48840, Note_on_c, 2, 72, 84
7, 48851, Control_c, 2, 11, 105
7, 48893, Note_on_c, 2, 69, 0
7, 48893, Note_on_c, 2, 72, 0
7, 48899, Control_c, 2, 11, 106
7, 48900, Note_on_c, 2, 72, 84
7, 48900, Note_on_c, 2, 69, 84
7, 48948, Control_c, 2, 11, 107
7, 48953, Note_on_c, 2, 72, 0
7, 48953, Note_on_c, 2, 69, 0
7, 48960, Control_c, 2, 11, 107
7, 48960, Note_on_c, 2, 72, 84
7, 48960, Note_on_c, 2, 69, 84
7, 48996, Control_c, 2, 11, 108
7, 49045, Control_c, 2, 11, 109
7, 49079, Note_on_c, 2, 72, 0
7, 49079, Note_on_c, 2, 69, 0
7, 49094, Control_c, 2, 11, 110
7, 49142, Control_c, 2, 11, 111
7, 49191, Control_c, 2, 11, 112
7, 49200, Note_on_c, 2, 69, 84
7, 49200, Note_on_c, 2, 72, 84
7, 49239, Control_c, 2, 11, 113
7, 49253, Note_on_c, 2, 69, 0
7, 49253, Note_on_c, 2, 72, 0
7, 49260, Note_on_c, 2, 69, 84
7, 49260, Note_on_c, 2, 72, 84
7, 49288, Control_c, 2, 11, 114
7, 49313, Note_on_c, 2, 69, 0
7, 49313, Note_on_c, 2, 72, 0
7, 49320, Note_on_c, 2, 72, 84
7, 49320, Note_on_c, 2, 69, 84
7, 49337, Control_c, 2, 11, 115
7, 49373, Note_on_c, 2, 72, 0
7, 49373, Note_on_c, 2, 69, 0
7, 49380, Note_on_c, 2, 72, 84
7, 49380, Note_on_c, 2, 69, 84
7, 49385, Control_c, 2, 11, 116
7, 49433, Note_on_c, 2, 72, 0
7, 49433, Note_on_c, 2, 69, 0
7, 49434, Control_c, 2, 11, 117
7, 49440, Note_on_c, 2, 69, 84
7, 49440, Note_on_c, 2, 72, 84
7, 49483, Control_c, 2, 11, 118
7, 49531, Control_c, 2, 11, 119
7, 49559, Note_on_c, 2, 69, 0
7, 49559, Note_on_c, 2, 72, 0
7, 49580, Control_c, 2, 11, 120
7, 49628, Control_c, 2, 11, 121
7, 49677, Control_c, 2, 11, 122
7, 49680, Note_on_c, 2, 72, 84
7, 49680, Note_on_c, 2, 84, 84
7, 49726, Control_c, 2, 11, 123
7, 49733, Note_on_c, 2, 72, 0
7, 49733, Note_on_c, 2, 84, 0
7, 49740, Note_on_c, 2, 72, 84
7, 49740, Note_on_c, 2, 84, 84
7, 49774, Control_c, 2, 11, 124
7, 49793, Note_on_c, 2, 72, 0
7, 49793, Note_on_c, 2, 84, 0
7, 49800, Note_on_c, 2, 81, 84
7, 49800, Note_on_c, 2, 69, 84
7, 49823, Control_c, 2, 11, 125
7, 49853, Note_on_c, 2, 81, 0
7, 49853, Note_on_c, 2, 69, 0
7, 49860, Note_on_c, 2, 69, 84
7, 49860, Note_on_c, 2, 81, 84
7, 49871, Control_c, 2, 11, 127
7, 49913, Note_on_c, 2, 69, 0
7, 49913, Note_on_c, 2, 81, 0
7, 49920, Note_on_c, 2, 64, 84
7, 49920, Note_on_c, 2, 76, 84
7, 50039, Note_on_c, 2, 64, 0
7, 50039, Note_on_c, 2, 76, 0
7, 51360, Note_on_c, 2, 76, 52
7, 51599, Note_on_c, 2, 76, 0
7, 51600, Note_on_c, 2, 80, 52
7, 51779, Note_on_c, 2, 80, 0
7, 51780, Note_on_c, 2, 78, 52
7, 51839, Note_on_c, 2, 78, 0
7, 51840, Note_on_c, 2, 76, 52
7, 51959, Note_on_c, 2, 76, 0
7, 53280, Note_on_c, 2, 76, 52
7, 53519, Note_on_c, 2, 76, 0
7, 53520, Note_on_c, 2, 80, 52
7, 53699, Note_on_c, 2, 80, 0
7, 53700, Note_on_c, 2, 78, 52
7, 53759, Note_on_c, 2, 78, 0
7, 53760, Note_on_c, 2, 76, 52
7, 53813, Note_on_c, 2, 76, 0
7, 53820, Note_on_c, 2, 76, 52
7, 53879, Note_on_c, 2, 76, 0
7, 53880, Note_on_c, 2, 76, 52
7, 53939, Note_on_c, 2, 76, 0
7, 53940, Note_on_c, 2, 76, 52
7, 53999, Note_on_c, 2, 76, 0
7, 54000, Note_on_c, 2, 76, 52
7, 54059, Note_on_c, 2, 76, 0
7, 54060, Note_on_c, 2, 76, 52
7, 54119, Note_on_c, 2, 76, 0
7, 54120, Note_on_c, 2, 76, 52
7, 54179, Note_on_c, 2, 76, 0
7, 54180, Note_on_c, 2, 76, 52
7, 54239, Note_on_c, 2, 76, 0
7, 54240, Note_on_c, 2, 76, 52
7, 54359, Note_on_c, 2, 76, 0
7, 54840, Note_on_c, 2, 76, 52
7, 54949, Note_on_c, 2, 76, 0
7, 54960, Note_on_c, 2, 76, 52
7, 55069, Note_on_c, 2, 76, 0
7, 55080, Note_on_c, 2, 76, 52
7, 55189, Note_on_c, 2, 76, 0
7, 55200, Note_on_c, 2, 76, 52
7, 55319, Note_on_c, 2, 76, 0
7, 56160, Note_on_c, 2, 76, 52
7, 56399, Note_on_c, 2, 76, 0
7, 57120, Note_on_c, 2, 76, 52
7, 57359, Note_on_c, 2, 76, 0
7, 57540, Note_on_c, 2, 76, 52
7, 57593, Note_on_c, 2, 76, 0
7, 57600, Note_on_c, 2, 76, 52
7, 57839, Note_on_c, 2, 76, 0
7, 58500, Note_on_c, 2, 76, 52
7, 58553, Note_on_c, 2, 76, 0
7, 58560, Note_on_c, 2, 76, 52
7, 58799, Note_on_c, 2, 76, 0
7, 59460, Note_on_c, 2, 76, 52
7, 59513, Note_on_c, 2, 76, 0
7, 59520, Note_on_c, 2, 76, 52
7, 59691, Note_on_c, 2, 76, 0
7, 59700, Note_on_c, 2, 76, 52
7, 59751, Note_on_c, 2, 76, 0
7, 59760, Note_on_c, 2, 76, 52
7, 59864, Note_on_c, 2, 76, 0
7, 59880, Note_on_c, 2, 76, 52
7, 60051, Note_on_c, 2, 76, 0
7, 60060, Note_on_c, 2, 76, 52
7, 60111, Note_on_c, 2, 76, 0
7, 60120, Note_on_c, 2, 76, 52
7, 60224, Note_on_c, 2, 76, 0
7, 60240, Note_on_c, 2, 76, 52
7, 60411, Note_on_c, 2, 76, 0
7, 60420, Note_on_c, 2, 76, 52
7, 60471, Note_on_c, 2, 76, 0
7, 60480, Note_on_c, 2, 76, 52
7, 60584, Note_on_c, 2, 76, 0
7, 60600, Note_on_c, 2, 76, 52
7, 60771, Note_on_c, 2, 76, 0
7, 60780, Note_on_c, 2, 76, 52
7, 60831, Note_on_c, 2, 76, 0
7, 60840, Note_on_c, 2, 76, 52
7, 60944, Note_on_c, 2, 76, 0
7, 60960, Note_on_c, 2, 76, 52
7, 61131, Note_on_c, 2, 76, 0
7, 61140, Note_on_c, 2, 76, 52
7, 61191, Note_on_c, 2, 76, 0
7, 61200, Note_on_c, 2, 76, 52
7, 61304, Note_on_c, 2, 76, 0
7, 61320, Note_on_c, 2, 76, 52
7, 61491, Note_on_c, 2, 76, 0
7, 61500, Note_on_c, 2, 76, 52
7, 61551, Note_on_c, 2, 76, 0
7, 61560, Note_on_c, 2, 76, 52
7, 61679, Note_on_c, 2, 76, 0
7, 62040, Note_on_c, 2, 76, 60
7, 62040, Note_on_c, 2, 64, 60
7, 62211, Note_on_c, 2, 76, 0
7, 62211, Note_on_c, 2, 64, 0
7, 62220, Note_on_c, 2, 76, 64
7, 62220, Note_on_c, 2, 64, 64
7, 62271, Note_on_c, 2, 76, 0
7, 62271, Note_on_c, 2, 64, 0
7, 62280, Note_on_c, 2, 76, 65
7, 62280, Note_on_c, 2, 64, 65
7, 62384, Note_on_c, 2, 76, 0
7, 62384, Note_on_c, 2, 64, 0
7, 62400, Note_on_c, 2, 64, 52
7, 62400, Note_on_c, 2, 76, 52
7, 65279, Note_on_c, 2, 64, 0
7, 65279, Note_on_c, 2, 76, 0
7, 65280, Note_on_c, 2, 64, 52
7, 65280, Note_on_c, 2, 76, 52
7, 66944, Note_on_c, 2, 64, 0
7, 66944, Note_on_c, 2, 76, 0
7, 66960, Note_on_c, 2, 64, 52
7, 66960, Note_on_c, 2, 76, 52
7, 67064, Note_on_c, 2, 64, 0
7, 67064, Note_on_c, 2, 76, 0
7, 67080, Note_on_c, 2, 76, 52
7, 67080, Note_on_c, 2, 64, 52
7, 67304, Note_on_c, 2, 76, 0
7, 67304, Note_on_c, 2, 64, 0
7, 67320, Note_on_c, 2, 64, 52
7, 67320, Note_on_c, 2, 76, 52
7, 67409, Note_on_c, 2, 64, 0
7, 67409, Note_on_c, 2, 76, 0
7, 67440, Note_on_c, 2, 76, 52
7, 67440, Note_on_c, 2, 64, 52
7, 67679, Note_on_c, 2, 76, 0
7, 67679, Note_on_c, 2, 64, 0
7, 68040, Note_on_c, 2, 69, 52
7, 68144, Note_on_c, 2, 69, 0
7, 68160, Note_on_c, 2, 69, 52
7, 68384, Note_on_c, 2, 69, 0
7, 68400, Note_on_c, 2, 69, 52
7, 68504, Note_on_c, 2, 69, 0
7, 68520, Note_on_c, 2, 69, 52
7, 68691, Note_on_c, 2, 69, 0
7, 68700, Note_on_c, 2, 74, 52
7, 68744, Note_on_c, 2, 74, 0
7, 68760, Note_on_c, 2, 78, 52
7, 68849, Note_on_c, 2, 78, 0
7, 68880, Note_on_c, 2, 78, 52
7, 68999, Note_on_c, 2, 78, 0
7, 69000, Note_on_c, 2, 76, 52
7, 69104, Note_on_c, 2, 76, 0
7, 69120, Note_on_c, 2, 73, 52
7, 69209, Note_on_c, 2, 73, 0
7, 69240, Note_on_c, 2, 69, 52
7, 69479, Note_on_c, 2, 69, 0
7, 70200, Note_on_c, 2, 69, 52
7, 70304, Note_on_c, 2, 69, 0
7, 70320, Note_on_c, 2, 69, 52
7, 70491, Note_on_c, 2, 69, 0
7, 70500, Note_on_c, 2, 74, 52
7, 70544, Note_on_c, 2, 74, 0
7, 70560, Note_on_c, 2, 69, 52
7, 70649, Note_on_c, 2, 69, 0
7, 70680, Note_on_c, 2, 69, 52
7, 70851, Note_on_c, 2, 69, 0
7, 70860, Note_on_c, 2, 74, 52
7, 70904, Note_on_c, 2, 74, 0
7, 70920, Note_on_c, 2, 78, 52
7, 71009, Note_on_c, 2, 78, 0
7, 71040, Note_on_c, 2, 78, 52
7, 71159, Note_on_c, 2, 78, 0
7, 71160, Note_on_c, 2, 76, 52
7, 71264, Note_on_c, 2, 76, 0
7, 71280, Note_on_c, 2, 73, 52
7, 71369, Note_on_c, 2, 73, 0
7, 71400, Note_on_c, 2, 69, 52
7, 71639, Note_on_c, 2, 69, 0
7, 72360, Note_on_c, 2, 73, 52
7, 72464, Note_on_c, 2, 73, 0
7, 72480, Note_on_c, 2, 71, 52
7, 72704, Note_on_c, 2, 71, 0
7, 72720, Note_on_c, 2, 64, 52
7, 72824, Note_on_c, 2, 64, 0
7, 72840, Note_on_c, 2, 64, 52
7, 73011, Note_on_c, 2, 64, 0
7, 73020, Note_on_c, 2, 73, 52
7, 73064, Note_on_c, 2, 73, 0
7, 73080, Note_on_c, 2, 69, 52
7, 73169, Note_on_c, 2, 69, 0
7, 73200, Control_c, 2, 11, 127
7, 73200, Note_on_c, 2, 76, 76
7, 73240, Control_c, 2, 11, 124
7, 73280, Control_c, 2, 11, 122
7, 73320, Control_c, 2, 11, 119
7, 73360, Control_c, 2, 11, 117
7, 73400, Control_c, 2, 11, 114
7, 73440, Control_c, 2, 11, 111
7, 73480, Control_c, 2, 11, 109
7, 73520, Control_c, 2, 11, 106
7, 73560, Control_c, 2, 11, 104
7, 73600, Control_c, 2, 11, 101
7, 73640, Control_c, 2, 11, 98
7, 73680, Control_c, 2, 11, 96
7, 73720, Control_c, 2, 11, 93
7, 73760, Control_c, 2, 11, 90
7, 73784, Note_on_c, 2, 76, 0
7, 73800, Control_c, 2, 11, 88
7, 73800, Note_on_c, 2, 73, 76
7, 73840, Control_c, 2, 11, 85
7, 73880, Control_c, 2, 11, 80
7, 73904, Note_on_c, 2, 73, 0
7, 73920, Note_on_c, 2, 71, 76
7, 74144, Note_on_c, 2, 71, 0
7, 74160, Note_on_c, 2, 64, 76
7, 74264, Note_on_c, 2, 64, 0
7, 74280, Note_on_c, 2, 64, 76
7, 74451, Note_on_c, 2, 64, 0
7, 74460, Note_on_c, 2, 73, 76
7, 74504, Note_on_c, 2, 73, 0
7, 74520, Note_on_c, 2, 69, 76
7, 74609, Note_on_c, 2, 69, 0
7, 74638, Control_c, 2, 11, 127
7, 74640, Note_on_c, 2, 64, 76
7, 74640, Note_on_c, 2, 76, 76
7, 75239, Note_on_c, 2, 64, 0
7, 75239, Note_on_c, 2, 76, 0
7, 75360, Note_on_c, 2, 64, 84
7, 75360, Note_on_c, 2, 76, 84
7, 75420, Control_c, 2, 11, 112
7, 75959, Note_on_c, 2, 64, 0
7, 75959, Note_on_c, 2, 76, 0
7, 76078, Control_c, 2, 11, 127
7, 76080, Note_on_c, 2, 76, 84
7, 76080, Note_on_c, 2, 64, 84
7, 76140, Control_c, 2, 11, 112
7, 76319, Note_on_c, 2, 76, 0
7, 76319, Note_on_c, 2, 64, 0
7, 76438, Control_c, 2, 11, 127
7, 76440, Note_on_c, 2, 76, 84
7, 76440, Note_on_c, 2, 64, 84
7, 76500, Control_c, 2, 11, 112
7, 76679, Note_on_c, 2, 76, 0
7, 76679, Note_on_c, 2, 64, 0
7, 76798, Control_c, 2, 11, 127
7, 76800, Note_on_c, 2, 64, 84
7, 76800, Note_on_c, 2, 76, 84
7, 76860, Control_c, 2, 11, 112
7, 77039, Note_on_c, 2, 64, 0
7, 77039, Note_on_c, 2, 76, 0
7, 77158, Control_c, 2, 11, 127
7, 77160, Note_on_c, 2, 86, 84
7, 77160, Note_on_c, 2, 74, 84
7, 77220, Control_c, 2, 11, 112
7, 77279, Note_on_c, 2, 86, 0
7, 77279, Note_on_c, 2, 74, 0
7, 77340, Note_on_c, 2, 83, 84
7, 77340, Note_on_c, 2, 71, 84
7, 77391, Note_on_c, 2, 83, 0
7, 77391, Note_on_c, 2, 71, 0
7, 77400, Note_on_c, 2, 80, 84
7, 77400, Note_on_c, 2, 68, 84
7, 77504, Note_on_c, 2, 80, 0
7, 77504, Note_on_c, 2, 68, 0
7, 77518, Control_c, 2, 11, 127
7, 77520, Note_on_c, 2, 83, 76
7, 77520, Note_on_c, 2, 74, 76
7, 77879, Note_on_c, 2, 83, 0
7, 77879, Note_on_c, 2, 74, 0
7, 78240, Note_on_c, 2, 73, 84
7, 78240, Note_on_c, 2, 76, 84
7, 78944, Note_on_c, 2, 73, 0
7, 78944, Note_on_c, 2, 76, 0
7, 78960, Note_on_c, 2, 74, 84
7, 78960, Note_on_c, 2, 78, 84
7, 79544, Note_on_c, 2, 74, 0
7, 79544, Note_on_c, 2, 78, 0
7, 79560, Note_on_c, 2, 80, 84
7, 79560, Note_on_c, 2, 71, 84
7, 79664, Note_on_c, 2, 80, 0
7, 79664, Note_on_c, 2, 71, 0
7, 79680, Note_on_c, 2, 81, 84
7, 79680, Note_on_c, 2, 73, 84
7, 80519, Note_on_c, 2, 81, 0
7, 80519, Note_on_c, 2, 73, 0
7, 80520, Note_on_c, 2, 71, 84
7, 80520, Note_on_c, 2, 80, 84
7, 80624, Note_on_c, 2, 71, 0
7, 80624, Note_on_c, 2, 80, 0
7, 80640, Note_on_c, 2, 69, 84
7, 80640, Note_on_c, 2, 78, 84
7, 80729, Note_on_c, 2, 69, 0
7, 80729, Note_on_c, 2, 78, 0
7, 80760, Note_on_c, 2, 76, 84
7, 80760, Note_on_c, 2, 68, 84
7, 80984, Note_on_c, 2, 76, 0
7, 80984, Note_on_c, 2, 68, 0
7, 81000, Note_on_c, 2, 64, 84
7, 81000, Note_on_c, 2, 76, 84
7, 81104, Note_on_c, 2, 64, 0
7, 81104, Note_on_c, 2, 76, 0
7, 81120, Note_on_c, 2, 73, 84
7, 81120, Note_on_c, 2, 76, 84
7, 81824, Note_on_c, 2, 73, 0
7, 81824, Note_on_c, 2, 76, 0
7, 81840, Note_on_c, 2, 74, 84
7, 81840, Note_on_c, 2, 78, 84
7, 82424, Note_on_c, 2, 74, 0
7, 82424, Note_on_c, 2, 78, 0
7, 82440, Note_on_c, 2, 80, 84
7, 82440, Note_on_c, 2, 71, 84
7, 82544, Note_on_c, 2, 80, 0
7, 82544, Note_on_c, 2, 71, 0
7, 82560, Note_on_c, 2, 73, 84
7, 82560, Note_on_c, 2, 81, 84
7, 82784, Note_on_c, 2, 73, 0
7, 82784, Note_on_c, 2, 81, 0
7, 82800, Note_on_c, 2, 81, 84
7, 82800, Note_on_c, 2, 73, 84
7, 82904, Note_on_c, 2, 81, 0
7, 82904, Note_on_c, 2, 73, 0
7, 82920, Note_on_c, 2, 81, 84
7, 82920, Note_on_c, 2, 73, 84
7, 83039, Note_on_c, 2, 81, 0
7, 83039, Note_on_c, 2, 73, 0
7, 83040, Note_on_c, 2, 76, 84
7, 83040, Note_on_c, 2, 85, 84
7, 83144, Note_on_c, 2, 76, 0
7, 83144, Note_on_c, 2, 85, 0
7, 83160, Note_on_c, 2, 74, 84
7, 83160, Note_on_c, 2, 83, 84
7, 83249, Note_on_c, 2, 74, 0
7, 83249, Note_on_c, 2, 83, 0
7, 83280, Note_on_c, 2, 81, 84
7, 83280, Note_on_c, 2, 73, 84
7, 83504, Note_on_c, 2, 81, 0
7, 83504, Note_on_c, 2, 73, 0
7, 83520, Note_on_c, 2, 81, 84
7, 83520, Note_on_c, 2, 69, 84
7, 83624, Note_on_c, 2, 81, 0
7, 83624, Note_on_c, 2, 69, 0
7, 83640, Note_on_c, 2, 81, 84
7, 83640, Note_on_c, 2, 69, 84
7, 83811, Note_on_c, 2, 81, 0
7, 83811, Note_on_c, 2, 69, 0
7, 83820, Note_on_c, 2, 69, 84
7, 83820, Note_on_c, 2, 81, 84
7, 83871, Note_on_c, 2, 69, 0
7, 83871, Note_on_c, 2, 81, 0
7, 83880, Note_on_c, 2, 69, 84
7, 83880, Note_on_c, 2, 81, 84
7, 83984, Note_on_c, 2, 69, 0
7, 83984, Note_on_c, 2, 81, 0
7, 84000, Note_on_c, 2, 69, 84
7, 84000, Note_on_c, 2, 81, 84
7, 84891, Note_on_c, 2, 69, 0
7, 84891, Note_on_c, 2, 81, 0
7, 84900, Note_on_c, 2, 81, 84
7, 84900, Note_on_c, 2, 69, 84
7, 84951, Note_on_c, 2, 81, 0
7, 84951, Note_on_c, 2, 69, 0
7, 84960, Note_on_c, 2, 69, 84
7, 84960, Note_on_c, 2, 81, 84
7, 85064, Note_on_c, 2, 69, 0
7, 85064, Note_on_c, 2, 81, 0
7, 85080, Note_on_c, 2, 69, 84
7, 85080, Note_on_c, 2, 81, 84
7, 85251, Note_on_c, 2, 69, 0
7, 85251, Note_on_c, 2, 81, 0
7, 85260, Note_on_c, 2, 69, 84
7, 85260, Note_on_c, 2, 81, 84
7, 85311, Note_on_c, 2, 69, 0
7, 85311, Note_on_c, 2, 81, 0
7, 85320, Note_on_c, 2, 69, 84
7, 85320, Note_on_c, 2, 81, 84
7, 85424, Note_on_c, 2, 69, 0
7, 85424, Note_on_c, 2, 81, 0
7, 85440, Note_on_c, 2, 81, 84
7, 85440, Note_on_c, 2, 69, 84
7, 86331, Note_on_c, 2, 81, 0
7, 86331, Note_on_c, 2, 69, 0
7, 86340, Note_on_c, 2, 81, 84
7, 86340, Note_on_c, 2, 69, 84
7, 86391, Note_on_c, 2, 81, 0
7, 86391, Note_on_c, 2, 69, 0
7, 86400, Note_on_c, 2, 81, 84
7, 86400, Note_on_c, 2, 69, 84
7, 86504, Note_on_c, 2, 81, 0
7, 86504, Note_on_c, 2, 69, 0
7, 86520, Note_on_c, 2, 81, 84
7, 86520, Note_on_c, 2, 69, 84
7, 86759, Note_on_c, 2, 81, 0
7, 86759, Note_on_c, 2, 69, 0
7, 87120, Note_on_c, 2, 76, 55
7, 87224, Note_on_c, 2, 76, 0
7, 87240, Note_on_c, 2, 78, 56
7, 87359, Note_on_c, 2, 78, 0
7, 87360, Note_on_c, 2, 76, 56
7, 87464, Note_on_c, 2, 76, 0
7, 87480, Note_on_c, 2, 73, 57
7, 87569, Note_on_c, 2, 73, 0
7, 87840, Note_on_c, 2, 78, 59
7, 87944, Note_on_c, 2, 78, 0
7, 87960, Note_on_c, 2, 79, 60
7, 88079, Note_on_c, 2, 79, 0
7, 88080, Note_on_c, 2, 78, 60
7, 88184, Note_on_c, 2, 78, 0
7, 88200, Note_on_c, 2, 74, 61
7, 88289, Note_on_c, 2, 74, 0
7, 88560, Note_on_c, 2, 74, 63
7, 88664, Note_on_c, 2, 74, 0
7, 88680, Note_on_c, 2, 76, 63
7, 88799, Note_on_c, 2, 76, 0
7, 88800, Note_on_c, 2, 74, 64
7, 88904, Note_on_c, 2, 74, 0
7, 88920, Note_on_c, 2, 71, 64
7, 89009, Note_on_c, 2, 71, 0
7, 89280, Note_on_c, 2, 76, 66
7, 89384, Note_on_c, 2, 76, 0
7, 89400, Note_on_c, 2, 78, 67
7, 89519, Note_on_c, 2, 78, 0
7, 89520, Note_on_c, 2, 76, 68
7, 89624, Note_on_c, 2, 76, 0
7, 89640, Note_on_c, 2, 73, 68
7, 89729, Note_on_c, 2, 73, 0
7, 90000, Note_on_c, 2, 76, 70
7, 90104, Note_on_c, 2, 76, 0
7, 90120, Note_on_c, 2, 78, 71
7, 90239, Note_on_c, 2, 78, 0
7, 90240, Note_on_c, 2, 76, 71
7, 90344, Note_on_c, 2, 76, 0
7, 90360, Note_on_c, 2, 73, 72
7, 90449, Note_on_c, 2, 73, 0
7, 90480, Note_on_c, 2, 79, 72
7, 90599, Note_on_c, 2, 79, 0
7, 90600, Note_on_c, 2, 78, 73
7, 90704, Note_on_c, 2, 78, 0
7, 90720, Note_on_c, 2, 74, 74
7, 90809, Note_on_c, 2, 74, 0
7, 90840, Note_on_c, 2, 79, 74
7, 90959, Note_on_c, 2, 79, 0
7, 90960, Note_on_c, 2, 78, 75
7, 91064, Note_on_c, 2, 78, 0
7, 91080, Note_on_c, 2, 74, 76
7, 91169, Note_on_c, 2, 74, 0
7, 91200, Note_on_c, 2, 81, 76
7, 91319, Note_on_c, 2, 81, 0
7, 91320, Note_on_c, 2, 80, 77
7, 91424, Note_on_c, 2, 80, 0
7, 91440, Note_on_c, 2, 76, 77
7, 91529, Note_on_c, 2, 76, 0
7, 91560, Note_on_c, 2, 81, 78
7, 91679, Note_on_c, 2, 81, 0
7, 91680, Note_on_c, 2, 80, 79
7, 91784, Note_on_c, 2, 80, 0
7, 91800, Note_on_c, 2, 76, 79
7, 91889, Note_on_c, 2, 76, 0
7, 91920, Note_on_c, 2, 83, 80
7, 92039, Note_on_c, 2, 83, 0
7, 92040, Note_on_c, 2, 81, 80
7, 92144, Note_on_c, 2, 81, 0
7, 92160, Note_on_c, 2, 76, 81
7, 92249, Note_on_c, 2, 76, 0
7, 92280, Note_on_c, 2, 74, 82
7, 92399, Note_on_c, 2, 74, 0
7, 92400, Note_on_c, 2, 73, 82
7, 92504, Note_on_c, 2, 73, 0
7, 92520, Note_on_c, 2, 69, 83
7, 92609, Note_on_c, 2, 69, 0
7, 92640, Note_on_c, 2, 76, 84
7, 93344, Note_on_c, 2, 76, 0
7, 93360, Note_on_c, 2, 75, 84
7, 93360, Note_on_c, 2, 78, 84
7, 93824, Note_on_c, 2, 75, 0
7, 93824, Note_on_c, 2, 78, 0
7, 93840, Note_on_c, 2, 78, 52
7, 93944, Note_on_c, 2, 78, 0
7, 93960, Note_on_c, 2, 78, 52
7, 94064, Note_on_c, 2, 78, 0
7, 94080, Note_on_c, 2, 78, 52
7, 94199, Note_on_c, 2, 78, 0
7, 94320, Note_on_c, 2, 78, 52
7, 94424, Note_on_c, 2, 78, 0
7, 94440, Note_on_c, 2, 78, 52
7, 94559, Note_on_c, 2, 78, 0
7, 94680, Note_on_c, 2, 78, 52
7, 94784, Note_on_c, 2, 78, 0
7, 94800, Note_on_c, 2, 80, 52
7, 95039, Note_on_c, 2, 80, 0
7, 96840, Control_c, 2, 11, 80
7, 96960, Note_on_c, 2, 76, 76
7, 96960, Control_c, 2, 11, 80
7, 97000, Control_c, 2, 11, 83
7, 97040, Control_c, 2, 11, 85
7, 97080, Control_c, 2, 11, 88
7, 97120, Control_c, 2, 11, 90
7, 97160, Control_c, 2, 11, 93
7, 97200, Control_c, 2, 11, 96
7, 97240, Control_c, 2, 11, 98
7, 97280, Control_c, 2, 11, 101
7, 97319, Note_on_c, 2, 76, 0
7, 97320, Note_on_c, 2, 73, 76
7, 97320, Control_c, 2, 11, 104
7, 97360, Control_c, 2, 11, 106
7, 97400, Control_c, 2, 11, 109
7, 97440, Control_c, 2, 11, 111
7, 97480, Control_c, 2, 11, 114
7, 97520, Control_c, 2, 11, 117
7, 97560, Control_c, 2, 11, 119
7, 97600, Control_c, 2, 11, 122
7, 97640, Control_c, 2, 11, 127
7, 97664, Note_on_c, 2, 73, 0
7, 97680, Note_on_c, 2, 70, 76
7, 97904, Note_on_c, 2, 70, 0
7, 97920, Note_on_c, 2, 63, 52
7, 98024, Note_on_c, 2, 63, 0
7, 98040, Note_on_c, 2, 63, 52
7, 98174, Note_on_c, 2, 63, 0
7, 98220, Note_on_c, 2, 67, 52
7, 98264, Note_on_c, 2, 67, 0
7, 98280, Note_on_c, 2, 70, 52
7, 98369, Note_on_c, 2, 70, 0
7, 98400, Note_on_c, 2, 71, 52
7, 98579, Note_on_c, 2, 71, 0
7, 98640, Note_on_c, 2, 71, 52
7, 98744, Note_on_c, 2, 71, 0
7, 98760, Note_on_c, 2, 71, 52
7, 98894, Note_on_c, 2, 71, 0
7, 98940, Note_on_c, 2, 70, 52
7, 98984, Note_on_c, 2, 70, 0
7, 99000, Note_on_c, 2, 68, 52
7, 99089, Note_on_c, 2, 68, 0
7, 99120, Note_on_c, 2, 67, 52
7, 99359, Note_on_c, 2, 67, 0
7, 99600, Control_c, 2, 11, 80
7, 99720, Note_on_c, 2, 70, 76
7, 99839, Note_on_c, 2, 70, 0
7, 99840, Control_c, 2, 11, 80
7, 99840, Note_on_c, 2, 71, 76
7, 99880, Control_c, 2, 11, 83
7, 99920, Control_c, 2, 11, 85
7, 99960, Control_c, 2, 11, 88
7, 100000, Control_c, 2, 11, 90
7, 100040, Control_c, 2, 11, 93
7, 100064, Note_on_c, 2, 71, 0
7, 100080, Control_c, 2, 11, 96
7, 100080, Note_on_c, 2, 83, 76
7, 100080, Note_on_c, 2, 71, 76
7, 100120, Control_c, 2, 11, 98
7, 100160, Control_c, 2, 11, 101
7, 100184, Note_on_c, 2, 83, 0
7, 100184, Note_on_c, 2, 71, 0
7, 100200, Control_c, 2, 11, 104
7, 100200, Note_on_c, 2, 83, 76
7, 100200, Note_on_c, 2, 71, 76
7, 100240, Control_c, 2, 11, 106
7, 100280, Control_c, 2, 11, 109
7, 100320, Control_c, 2, 11, 111
7, 100360, Control_c, 2, 11, 114
7, 100400, Control_c, 2, 11, 117
7, 100424, Note_on_c, 2, 83, 0
7, 100424, Note_on_c, 2, 71, 0
7, 100440, Note_on_c, 2, 71, 76
7, 100440, Control_c, 2, 11, 119
7, 100440, Note_on_c, 2, 83, 76
7, 100480, Control_c, 2, 11, 122
7, 100520, Control_c, 2, 11, 127
7, 100544, Note_on_c, 2, 71, 0
7, 100544, Note_on_c, 2, 83, 0
7, 100560, Note_on_c, 2, 83, 76
7, 100560, Note_on_c, 2, 71, 76
7, 101504, Note_on_c, 2, 83, 0
7, 101504, Note_on_c, 2, 71, 0
7, 101520, Note_on_c, 2, 71, 76
7, 101520, Note_on_c, 2, 83, 76
7, 101624, Note_on_c, 2, 71, 0
7, 101624, Note_on_c, 2, 83, 0
7, 101640, Note_on_c, 2, 71, 76
7, 101640, Note_on_c, 2, 83, 76
7, 101864, Note_on_c, 2, 71, 0
7, 101864, Note_on_c, 2, 83, 0
7, 101880, Note_on_c, 2, 83, 76
7, 101880, Note_on_c, 2, 71, 76
7, 101984, Note_on_c, 2, 83, 0
7, 101984, Note_on_c, 2, 71, 0
7, 102000, Note_on_c, 2, 83, 76
7, 102000, Note_on_c, 2, 71, 76
7, 102839, Note_on_c, 2, 83, 0
7, 102839, Note_on_c, 2, 71, 0
7, 102840, Note_on_c, 2, 81, 76
7, 102840, Note_on_c, 2, 69, 76
7, 102944, Note_on_c, 2, 81, 0
7, 102944, Note_on_c, 2, 69, 0
7, 102960, Note_on_c, 2, 81, 76
7, 102960, Note_on_c, 2, 69, 76
7, 103064, Note_on_c, 2, 81, 0
7, 103064, Note_on_c, 2, 69, 0
7, 103080, Note_on_c, 2, 81, 76
7, 103080, Note_on_c, 2, 76, 76
7, 103304, Note_on_c, 2, 81, 0
7, 103304, Note_on_c, 2, 76, 0
7, 103320, Note_on_c, 2, 81, 76
7, 103320, Note_on_c, 2, 76, 76
7, 103424, Note_on_c, 2, 81, 0
7, 103424, Note_on_c, 2, 76, 0
7, 103440, Note_on_c, 2, 78, 76
7, 103440, Note_on_c, 2, 81, 76
7, 103544, Note_on_c, 2, 78, 0
7, 103544, Note_on_c, 2, 81, 0
7, 103560, Note_on_c, 2, 81, 76
7, 103560, Note_on_c, 2, 78, 76
7, 103679, Note_on_c, 2, 81, 0
7, 103679, Note_on_c, 2, 78, 0
7, 103800, Note_on_c, 2, 78, 76
7, 103800, Note_on_c, 2, 81, 76
7, 103904, Note_on_c, 2, 78, 0
7, 103904, Note_on_c, 2, 81, 0
7, 103920, Note_on_c, 2, 78, 76
7, 103920, Note_on_c, 2, 81, 76
7, 104039, Note_on_c, 2, 78, 0
7, 104039, Note_on_c, 2, 81, 0
7, 104160, Note_on_c, 2, 76, 76
7, 104160, Note_on_c, 2, 80, 76
7, 104264, Note_on_c, 2, 76, 0
7, 104264, Note_on_c, 2, 80, 0
7, 104280, Note_on_c, 2, 76, 76
7, 104280, Note_on_c, 2, 80, 76
7, 104399, Note_on_c, 2, 76, 0
7, 104399, Note_on_c, 2, 80, 0
7, 104520, Note_on_c, 2, 80, 76
7, 104520, Note_on_c, 2, 76, 76
7, 104624, Note_on_c, 2, 80, 0
7, 104624, Note_on_c, 2, 76, 0
7, 104640, Note_on_c, 2, 80, 76
7, 104640, Note_on_c, 2, 76, 76
7, 104759, Note_on_c, 2, 80, 0
7, 104759, Note_on_c, 2, 76, 0
7, 104880, Note_on_c, 2, 81, 76
7, 104880, Note_on_c, 2, 78, 76
7, 104984, Note_on_c, 2, 81, 0
7, 104984, Note_on_c, 2, 78, 0
7, 105000, Note_on_c, 2, 78, 76
7, 105000, Note_on_c, 2, 81, 76
7, 105119, Note_on_c, 2, 78, 0
7, 105119, Note_on_c, 2, 81, 0
7, 105240, Note_on_c, 2, 78, 76
7, 105240, Note_on_c, 2, 81, 76
7, 105344, Note_on_c, 2, 78, 0
7, 105344, Note_on_c, 2, 81, 0
7, 105360, Note_on_c, 2, 81, 76
7, 105360, Note_on_c, 2, 78, 76
7, 105479, Note_on_c, 2, 81, 0
7, 105479, Note_on_c, 2, 78, 0
7, 105600, Note_on_c, 2, 80, 76
7, 105600, Note_on_c, 2, 76, 76
7, 105704, Note_on_c, 2, 80, 0
7, 105704, Note_on_c, 2, 76, 0
7, 105720, Note_on_c, 2, 80, 76
7, 105720, Note_on_c, 2, 76, 76
7, 105839, Note_on_c, 2, 80, 0
7, 105839, Note_on_c, 2, 76, 0
7, 105960, Note_on_c, 2, 80, 76
7, 105960, Note_on_c, 2, 76, 76
7, 106064, Note_on_c, 2, 80, 0
7, 106064, Note_on_c, 2, 76, 0
7, 106080, Note_on_c, 2, 80, 76
7, 106080, Note_on_c, 2, 76, 76
7, 106199, Note_on_c, 2, 80, 0
7, 106199, Note_on_c, 2, 76, 0
7, 107040, Note_on_c, 2, 83, 52
7, 107639, Note_on_c, 2, 83, 0
7, 107640, Note_on_c, 2, 78, 52
7, 107744, Note_on_c, 2, 78, 0
7, 107760, Note_on_c, 2, 76, 48
7, 108104, Note_on_c, 2, 76, 0
7, 108120, Note_on_c, 2, 80, 48
7, 108120, Note_on_c, 2, 76, 48
7, 108291, Note_on_c, 2, 80, 0
7, 108291, Note_on_c, 2, 76, 0
7, 108300, Note_on_c, 2, 76, 48
7, 108300, Note_on_c, 2, 71, 48
7, 108351, Note_on_c, 2, 76, 0
7, 108351, Note_on_c, 2, 71, 0
7, 108360, Note_on_c, 2, 76, 48
7, 108360, Note_on_c, 2, 71, 48
7, 108464, Note_on_c, 2, 76, 0
7, 108464, Note_on_c, 2, 71, 0
7, 108480, Note_on_c, 2, 81, 48
7, 108480, Note_on_c, 2, 78, 48
7, 108651, Note_on_c, 2, 81, 0
7, 108651, Note_on_c, 2, 78, 0
7, 108660, Note_on_c, 2, 71, 48
7, 108660, Note_on_c, 2, 78, 48
7, 108711, Note_on_c, 2, 71, 0
7, 108711, Note_on_c, 2, 78, 0
7, 108720, Note_on_c, 2, 71, 48
7, 108720, Note_on_c, 2, 78, 48
7, 108824, Note_on_c, 2, 71, 0
7, 108824, Note_on_c, 2, 78, 0
7, 108840, Note_on_c, 2, 83, 48
7, 108840, Note_on_c, 2, 80, 48
7, 109544, Note_on_c, 2, 83, 0
7, 109544, Note_on_c, 2, 80, 0
7, 109560, Note_on_c, 2, 83, 48
7, 109731, Note_on_c, 2, 83, 0
7, 109740, Note_on_c, 2, 80, 48
7, 109791, Note_on_c, 2, 80, 0
7, 109800, Note_on_c, 2, 80, 48
7, 109904, Note_on_c, 2, 80, 0
7, 109920, Note_on_c, 2, 80, 48
7, 110091, Note_on_c, 2, 80, 0
7, 110100, Note_on_c, 2, 76, 48
7, 110151, Note_on_c, 2, 76, 0
7, 110160, Note_on_c, 2, 76, 48
7, 110264, Note_on_c, 2, 76, 0
7, 110280, Note_on_c, 2, 76, 48
7, 110399, Note_on_c, 2, 76, 0
7, 110400, Note_on_c, 2, 78, 48
7, 110504, Note_on_c, 2, 78, 0
7, 110520, Note_on_c, 2, 75, 48
7, 110609, Note_on_c, 2, 75, 0
7, 110640, Note_on_c, 2, 76, 76
7, 110744, Note_on_c, 2, 76, 0
7, 110760, Note_on_c, 2, 76, 76
7, 110864, Note_on_c, 2, 76, 0
7, 110880, Note_on_c, 2, 76, 76
7, 110984, Note_on_c, 2, 76, 0
7, 111000, Note_on_c, 2, 76, 76
7, 111104, Note_on_c, 2, 76, 0
7, 111120, Note_on_c, 2, 76, 76
7, 111224, Note_on_c, 2, 76, 0
7, 111240, Note_on_c, 2, 76, 76
7, 111344, Note_on_c, 2, 76, 0
7, 111360, Note_on_c, 2, 76, 76
7, 111464, Note_on_c, 2, 76, 0
7, 111480, Note_on_c, 2, 76, 76
7, 111584, Note_on_c, 2, 76, 0
7, 111600, Note_on_c, 2, 76, 76
7, 111704, Note_on_c, 2, 76, 0
7, 111720, Note_on_c, 2, 79, 76
7, 111824, Note_on_c, 2, 79, 0
7, 111840, Note_on_c, 2, 79, 76
7, 111944, Note_on_c, 2, 79, 0
7, 111960, Note_on_c, 2, 79, 76
7, 112064, Note_on_c, 2, 79, 0
7, 112080, Note_on_c, 2, 72, 76
7, 112080, Note_on_c, 2, 84, 76
7, 112319, Note_on_c, 2, 72, 0
7, 112319, Note_on_c, 2, 84, 0
7, 114780, Note_on_c, 2, 67, 52
7, 114831, Note_on_c, 2, 67, 0
7, 114840, Note_on_c, 2, 67, 52
7, 114944, Note_on_c, 2, 67, 0
7, 114960, Note_on_c, 2, 72, 52
7, 115199, Note_on_c, 2, 72, 0
7, 115680, Note_on_c, 2, 72, 44
7, 115919, Note_on_c, 2, 72, 0
7, 117360, Note_on_c, 2, 78, 44
7, 117419, Note_on_c, 2, 78, 0
7, 117420, Note_on_c, 2, 79, 44
7, 117479, Note_on_c, 2, 79, 0
7, 117480, Note_on_c, 2, 81, 44
7, 117569, Note_on_c, 2, 81, 0
7, 118800, Note_on_c, 2, 78, 44
7, 118859, Note_on_c, 2, 78, 0
7, 118860, Note_on_c, 2, 79, 44
7, 118919, Note_on_c, 2, 79, 0
7, 118920, Note_on_c, 2, 81, 44
7, 119009, Note_on_c, 2, 81, 0
7, 119520, Note_on_c, 2, 78, 44
7, 119579, Note_on_c, 2, 78, 0
7, 119580, Note_on_c, 2, 80, 44
7, 119639, Note_on_c, 2, 80, 0
7, 119640, Note_on_c, 2, 81, 45
7, 119729, Note_on_c, 2, 81, 0
7, 121680, Note_on_c, 2, 71, 65
7, 121739, Note_on_c, 2, 71, 0
7, 121740, Note_on_c, 2, 73, 65
7, 121799, Note_on_c, 2, 73, 0
7, 121800, Note_on_c, 2, 75, 66
7, 121889, Note_on_c, 2, 75, 0
7, 123120, Note_on_c, 2, 75, 79
7, 123179, Note_on_c, 2, 75, 0
7, 123180, Note_on_c, 2, 76, 79
7, 123239, Note_on_c, 2, 76, 0
7, 123240, Note_on_c, 2, 78, 80
7, 123329, Note_on_c, 2, 78, 0
7, 123480, Note_on_c, 2, 76, 82
7, 123539, Note_on_c, 2, 76, 0
7, 123540, Note_on_c, 2, 78, 83
7, 123599, Note_on_c, 2, 78, 0
7, 123600, Note_on_c, 2, 76, 84
7, 123600, Note_on_c, 2, 80, 84
7, 124664, Note_on_c, 2, 76, 0
7, 124664, Note_on_c, 2, 80, 0
7, 124680, Note_on_c, 2, 76, 84
7, 124680, Note_on_c, 2, 80, 84
7, 124851, Note_on_c, 2, 76, 0
7, 124851, Note_on_c, 2, 80, 0
7, 124860, Note_on_c, 2, 76, 84
7, 124860, Note_on_c, 2, 80, 84
7, 124911, Note_on_c, 2, 76, 0
7, 124911, Note_on_c, 2, 80, 0
7, 124920, Note_on_c, 2, 76, 84
7, 124920, Note_on_c, 2, 80, 84
7, 125024, Note_on_c, 2, 76, 0
7, 125024, Note_on_c, 2, 80, 0
7, 125040, Note_on_c, 2, 78, 84
7, 125040, Note_on_c, 2, 76, 84
7, 126104, Note_on_c, 2, 78, 0
7, 126104, Note_on_c, 2, 76, 0
7, 126120, Note_on_c, 2, 76, 84
7, 126120, Note_on_c, 2, 78, 84
7, 126291, Note_on_c, 2, 76, 0
7, 126291, Note_on_c, 2, 78, 0
7, 126300, Note_on_c, 2, 76, 84
7, 126300, Note_on_c, 2, 78, 84
7, 126351, Note_on_c, 2, 76, 0
7, 126351, Note_on_c, 2, 78, 0
7, 126360, Note_on_c, 2, 76, 84
7, 126360, Note_on_c, 2, 78, 84
7, 126464, Note_on_c, 2, 76, 0
7, 126464, Note_on_c, 2, 78, 0
7, 126478, Control_c, 2, 11, 48
7, 126480, Note_on_c, 2, 77, 84
7, 126839, Note_on_c, 2, 77, 0
7, 126840, Note_on_c, 2, 72, 84
7, 127199, Note_on_c, 2, 72, 0
7, 127200, Control_c, 2, 11, 48
7, 127200, Note_on_c, 2, 63, 84
7, 127240, Control_c, 2, 11, 52
7, 127280, Control_c, 2, 11, 57
7, 127320, Control_c, 2, 11, 61
7, 127360, Control_c, 2, 11, 66
7, 127400, Control_c, 2, 11, 70
7, 127440, Control_c, 2, 11, 74
7, 127480, Control_c, 2, 11, 79
7, 127520, Control_c, 2, 11, 83
7, 127544, Note_on_c, 2, 63, 0
7, 127560, Control_c, 2, 11, 88
7, 127560, Note_on_c, 2, 71, 84
7, 127600, Control_c, 2, 11, 92
7, 127640, Control_c, 2, 11, 96
7, 127664, Note_on_c, 2, 71, 0
7, 127680, Control_c, 2, 11, 101
7, 127680, Note_on_c, 2, 73, 84
7, 127720, Control_c, 2, 11, 105
7, 127731, Note_on_c, 2, 73, 0
7, 127740, Note_on_c, 2, 75, 84
7, 127760, Control_c, 2, 11, 109
7, 127791, Note_on_c, 2, 75, 0
7, 127800, Note_on_c, 2, 76, 84
7, 127800, Control_c, 2, 11, 114
7, 127840, Control_c, 2, 11, 118
7, 127851, Note_on_c, 2, 76, 0
7, 127860, Note_on_c, 2, 78, 84
7, 127880, Control_c, 2, 11, 127
7, 127911, Note_on_c, 2, 78, 0
7, 127920, Note_on_c, 2, 80, 84
7, 127920, Note_on_c, 2, 76, 84
7, 128984, Note_on_c, 2, 80, 0
7, 128984, Note_on_c, 2, 76, 0
7, 129000, Note_on_c, 2, 80, 84
7, 129000, Note_on_c, 2, 76, 84
7, 129171, Note_on_c, 2, 80, 0
7, 129171, Note_on_c, 2, 76, 0
7, 129180, Note_on_c, 2, 76, 84
7, 129180, Note_on_c, 2, 80, 84
7, 129231, Note_on_c, 2, 76, 0
7, 129231, Note_on_c, 2, 80, 0
7, 129240, Note_on_c, 2, 80, 84
7, 129240, Note_on_c, 2, 76, 84
7, 129344, Note_on_c, 2, 80, 0
7, 129344, Note_on_c, 2, 76, 0
7, 129360, Note_on_c, 2, 78, 84
7, 129360, Note_on_c, 2, 76, 84
7, 130424, Note_on_c, 2, 78, 0
7, 130424, Note_on_c, 2, 76, 0
7, 130440, Note_on_c, 2, 76, 84
7, 130440, Note_on_c, 2, 78, 84
7, 130611, Note_on_c, 2, 76, 0
7, 130611, Note_on_c, 2, 78, 0
7, 130620, Note_on_c, 2, 78, 84
7, 130620, Note_on_c, 2, 76, 84
7, 130671, Note_on_c, 2, 78, 0
7, 130671, Note_on_c, 2, 76, 0
7, 130680, Note_on_c, 2, 76, 84
7, 130680, Note_on_c, 2, 78, 84
7, 130784, Note_on_c, 2, 76, 0
7, 130784, Note_on_c, 2, 78, 0
7, 130800, Control_c, 2, 11, 48
7, 131160, Note_on_c, 2, 77, 84
7, 131519, Note_on_c, 2, 77, 0
7, 131520, Note_on_c, 2, 75, 84
7, 131520, Control_c, 2, 11, 48
7, 131560, Control_c, 2, 11, 52
7, 131600, Control_c, 2, 11, 57
7, 131640, Control_c, 2, 11, 61
7, 131680, Control_c, 2, 11, 66
7, 131720, Control_c, 2, 11, 70
7, 131760, Control_c, 2, 11, 74
7, 131800, Control_c, 2, 11, 79
7, 131840, Control_c, 2, 11, 83
7, 131880, Control_c, 2, 11, 88
7, 131920, Control_c, 2, 11, 92
7, 131960, Control_c, 2, 11, 96
7, 132000, Control_c, 2, 11, 101
7, 132040, Control_c, 2, 11, 105
7, 132080, Control_c, 2, 11, 109
7, 132104, Note_on_c, 2, 75, 0
7, 132120, Note_on_c, 2, 71, 84
7, 132120, Control_c, 2, 11, 114
7, 132160, Control_c, 2, 11, 118
7, 132200, Control_c, 2, 11, 123
7, 132209, Note_on_c, 2, 71, 0
7, 132238, Control_c, 2, 11, 127
7, 132240, Note_on_c, 2, 83, 84
7, 132771, Note_on_c, 2, 83, 0
7, 132780, Note_on_c, 2, 81, 84
7, 132831, Note_on_c, 2, 81, 0
7, 132840, Note_on_c, 2, 80, 84
7, 132921, Note_on_c, 2, 80, 0
7, 132930, Note_on_c, 2, 80, 84
7, 132959, Note_on_c, 2, 80, 0
7, 132960, Note_on_c, 2, 81, 92
7, 133020, Control_c, 2, 11, 112
7, 133491, Note_on_c, 2, 81, 0
7, 133500, Note_on_c, 2, 73, 92
7, 133500, Note_on_c, 2, 69, 92
7, 133551, Note_on_c, 2, 73, 0
7, 133551, Note_on_c, 2, 69, 0
7, 133560, Note_on_c, 2, 69, 92
7, 133560, Note_on_c, 2, 75, 92
7, 133664, Note_on_c, 2, 69, 0
7, 133664, Note_on_c, 2, 75, 0
7, 133680, Note_on_c, 2, 68, 92
7, 133680, Note_on_c, 2, 76, 92
7, 133919, Note_on_c, 2, 68, 0
7, 133919, Note_on_c, 2, 76, 0
7, 134038, Control_c, 2, 11, 127
7, 134040, Note_on_c, 2, 80, 84
7, 134040, Note_on_c, 2, 68, 84
7, 134279, Note_on_c, 2, 80, 0
7, 134279, Note_on_c, 2, 68, 0
7, 134400, Note_on_c, 2, 71, 84
7, 134400, Note_on_c, 2, 83, 84
7, 134639, Note_on_c, 2, 71, 0
7, 134639, Note_on_c, 2, 83, 0
7, 134940, Note_on_c, 2, 71, 84
7, 134940, Note_on_c, 2, 83, 84
7, 134991, Note_on_c, 2, 71, 0
7, 134991, Note_on_c, 2, 83, 0
7, 135000, Note_on_c, 2, 83, 84
7, 135000, Note_on_c, 2, 71, 84
7, 135104, Note_on_c, 2, 83, 0
7, 135104, Note_on_c, 2, 71, 0
7, 135120, Note_on_c, 2, 71, 92
7, 135120, Note_on_c, 2, 83, 92
7, 135180, Control_c, 2, 11, 112
7, 135344, Note_on_c, 2, 71, 0
7, 135344, Note_on_c, 2, 83, 0
7, 135360, Note_on_c, 2, 80, 92
7, 135441, Note_on_c, 2, 80, 0
7, 135450, Note_on_c, 2, 80, 92
7, 135479, Note_on_c, 2, 80, 0
7, 135480, Note_on_c, 2, 81, 92
7, 135651, Note_on_c, 2, 81, 0
7, 135660, Note_on_c, 2, 73, 92
7, 135660, Note_on_c, 2, 81, 92
7, 135711, Note_on_c, 2, 73, 0
7, 135711, Note_on_c, 2, 81, 0
7, 135720, Note_on_c, 2, 81, 92
7, 135720, Note_on_c, 2, 75, 92
7, 135824, Note_on_c, 2, 81, 0
7, 135824, Note_on_c, 2, 75, 0
7, 135840, Note_on_c, 2, 80, 92
7, 135840, Note_on_c, 2, 76, 92
7, 136079, Note_on_c, 2, 80, 0
7, 136079, Note_on_c, 2, 76, 0
7, 136380, Note_on_c, 2, 71, 92
7, 136380, Note_on_c, 2, 83, 92
7, 136431, Note_on_c, 2, 71, 0
7, 136431, Note_on_c, 2, 83, 0
7, 136440, Note_on_c, 2, 83, 92
7, 136440, Note_on_c, 2, 71, 92
7, 136544, Note_on_c, 2, 83, 0
7, 136544, Note_on_c, 2, 71, 0
7, 136558, Control_c, 2, 11, 127
7, 136560, Note_on_c, 2, 83, 92
7, 136560, Note_on_c, 2, 71, 92
7, 136620, Control_c, 2, 11, 112
7, 136784, Note_on_c, 2, 83, 0
7, 136784, Note_on_c, 2, 71, 0
7, 136800, Note_on_c, 2, 80, 92
7, 136881, Note_on_c, 2, 80, 0
7, 136890, Note_on_c, 2, 80, 92
7, 136919, Note_on_c, 2, 80, 0
7, 136920, Note_on_c, 2, 81, 92
7, 137091, Note_on_c, 2, 81, 0
7, 137100, Note_on_c, 2, 81, 92
7, 137100, Note_on_c, 2, 73, 92
7, 137151, Note_on_c, 2, 81, 0
7, 137151, Note_on_c, 2, 73, 0
7, 137160, Note_on_c, 2, 81, 92
7, 137160, Note_on_c, 2, 75, 92
7, 137264, Note_on_c, 2, 81, 0
7, 137264, Note_on_c, 2, 75, 0
7, 137278, Control_c, 2, 11, 127
7, 137280, Note_on_c, 2, 76, 84
7, 137399, Note_on_c, 2, 76, 0
7, 137520, Note_on_c, 2, 76, 84
7, 137639, Note_on_c, 2, 76, 0
7, 137880, Note_on_c, 2, 76, 84
7, 137999, Note_on_c, 2, 76, 0
7, 138240, Note_on_c, 2, 76, 84
7, 138359, Note_on_c, 2, 76, 0
7, 138600, Note_on_c, 2, 76, 84
7, 138719, Note_on_c, 2, 76, 0
7, 138960, Note_on_c, 2, 76, 84
7, 139079, Note_on_c, 2, 76, 0
7, 139320, Note_on_c, 2, 76, 84
7, 139439, Note_on_c, 2, 76, 0
7, 139680, Note_on_c, 2, 76, 84
7, 139799, Note_on_c, 2, 76, 0
7, 140040, Note_on_c, 2, 76, 84
7, 140159, Note_on_c, 2, 76, 0
7, 141600, Note_on_c, 2, 76, 52
7, 141771, Note_on_c, 2, 76, 0
7, 141780, Note_on_c, 2, 76, 52
7, 141831, Note_on_c, 2, 76, 0
7, 141840, Note_on_c, 2, 76, 52
7, 141944, Note_on_c, 2, 76, 0
7, 141960, Note_on_c, 2, 76, 52
7, 142131, Note_on_c, 2, 76, 0
7, 142140, Note_on_c, 2, 76, 52
7, 142191, Note_on_c, 2, 76, 0
7, 142200, Note_on_c, 2, 76, 52
7, 142304, Note_on_c, 2, 76, 0
7, 142320, Note_on_c, 2, 76, 52
7, 142491, Note_on_c, 2, 76, 0
7, 142500, Note_on_c, 2, 76, 52
7, 142551, Note_on_c, 2, 76, 0
7, 142560, Note_on_c, 2, 76, 52
7, 142664, Note_on_c, 2, 76, 0
7, 142680, Note_on_c, 2, 76, 52
7, 142851, Note_on_c, 2, 76, 0
7, 142860, Note_on_c, 2, 76, 52
7, 142911, Note_on_c, 2, 76, 0
7, 142920, Note_on_c, 2, 76, 52
7, 143024, Note_on_c, 2, 76, 0
7, 143040, Note_on_c, 2, 76, 52
7, 143211, Note_on_c, 2, 76, 0
7, 143220, Note_on_c, 2, 76, 52
7, 143271, Note_on_c, 2, 76, 0
7, 143280, Note_on_c, 2, 76, 52
7, 143384, Note_on_c, 2, 76, 0
7, 143400, Note_on_c, 2, 76, 52
7, 143571, Note_on_c, 2, 76, 0
7, 143580, Note_on_c, 2, 76, 52
7, 143631, Note_on_c, 2, 76, 0
7, 143640, Note_on_c, 2, 76, 52
7, 143759, Note_on_c, 2, 76, 0
7, 144120, Note_on_c, 2, 76, 60
7, 144120, Note_on_c, 2, 64, 60
7, 144291, Note_on_c, 2, 76, 0
7, 144291, Note_on_c, 2, 64, 0
7, 144300, Note_on_c, 2, 76, 64
7, 144300, Note_on_c, 2, 64, 64
7, 144351, Note_on_c, 2, 76, 0
7, 144351, Note_on_c, 2, 64, 0
7, 144360, Note_on_c, 2, 64, 65
7, 144360, Note_on_c, 2, 76, 65
7, 144464, Note_on_c, 2, 64, 0
7, 144464, Note_on_c, 2, 76, 0
7, 144480, Note_on_c, 2, 76, 52
7, 144480, Note_on_c, 2, 64, 52
7, 147359, Note_on_c, 2, 76, 0
7, 147359, Note_on_c, 2, 64, 0
7, 147360, Note_on_c, 2, 76, 52
7, 147360, Note_on_c, 2, 64, 52
7, 149024, Note_on_c, 2, 76, 0
7, 149024, Note_on_c, 2, 64, 0
7, 149040, Note_on_c, 2, 76, 52
7, 149040, Note_on_c, 2, 64, 52
7, 149144, Note_on_c, 2, 76, 0
7, 149144, Note_on_c, 2, 64, 0
7, 149160, Note_on_c, 2, 76, 52
7, 149160, Note_on_c, 2, 64, 52
7, 149384, Note_on_c, 2, 76, 0
7, 149384, Note_on_c, 2, 64, 0
7, 149400, Note_on_c, 2, 64, 52
7, 149400, Note_on_c, 2, 76, 52
7, 149489, Note_on_c, 2, 64, 0
7, 149489, Note_on_c, 2, 76, 0
7, 149520, Note_on_c, 2, 76, 52
7, 149520, Note_on_c, 2, 64, 52
7, 149759, Note_on_c, 2, 76, 0
7, 149759, Note_on_c, 2, 64, 0
7, 150120, Note_on_c, 2, 69, 52
7, 150224, Note_on_c, 2, 69, 0
7, 150240, Note_on_c, 2, 69, 52
7, 150464, Note_on_c, 2, 69, 0
7, 150480, Note_on_c, 2, 69, 52
7, 150584, Note_on_c, 2, 69, 0
7, 150600, Note_on_c, 2, 69, 52
7, 150771, Note_on_c, 2, 69, 0
7, 150780, Note_on_c, 2, 74, 52
7, 150824, Note_on_c, 2, 74, 0
7, 150840, Note_on_c, 2, 78, 52
7, 150929, Note_on_c, 2, 78, 0
7, 150960, Note_on_c, 2, 78, 52
7, 151079, Note_on_c, 2, 78, 0
7, 151080, Note_on_c, 2, 76, 52
7, 151184, Note_on_c, 2, 76, 0
7, 151200, Note_on_c, 2, 73, 52
7, 151289, Note_on_c, 2, 73, 0
7, 151320, Note_on_c, 2, 69, 52
7, 151559, Note_on_c, 2, 69, 0
7, 152280, Note_on_c, 2, 69, 52
7, 152384, Note_on_c, 2, 69, 0
7, 152400, Note_on_c, 2, 69, 52
7, 152571, Note_on_c, 2, 69, 0
7, 152580, Note_on_c, 2, 74, 52
7, 152624, Note_on_c, 2, 74, 0
7, 152640, Note_on_c, 2, 69, 52
7, 152729, Note_on_c, 2, 69, 0
7, 152760, Note_on_c, 2, 69, 52
7, 152931, Note_on_c, 2, 69, 0
7, 152940, Note_on_c, 2, 74, 52
7, 152984, Note_on_c, 2, 74, 0
7, 153000, Note_on_c, 2, 78, 52
7, 153089, Note_on_c, 2, 78, 0
7, 153120, Note_on_c, 2, 78, 52
7, 153239, Note_on_c, 2, 78, 0
7, 153240, Note_on_c, 2, 76, 52
7, 153344, Note_on_c, 2, 76, 0
7, 153360, Note_on_c, 2, 73, 52
7, 153449, Note_on_c, 2, 73, 0
7, 153480, Note_on_c, 2, 69, 52
7, 153719, Note_on_c, 2, 69, 0
7, 154440, Note_on_c, 2, 73, 52
7, 154544, Note_on_c, 2, 73, 0
7, 154560, Note_on_c, 2, 71, 52
7, 154784, Note_on_c, 2, 71, 0
7, 154800, Note_on_c, 2, 64, 52
7, 154904, Note_on_c, 2, 64, 0
7, 154920, Note_on_c, 2, 64, 52
7, 155091, Note_on_c, 2, 64, 0
7, 155100, Note_on_c, 2, 73, 52
7, 155144, Note_on_c, 2, 73, 0
7, 155160, Note_on_c, 2, 69, 52
7, 155249, Note_on_c, 2, 69, 0
7, 155280, Note_on_c, 2, 76, 76
7, 155280, Control_c, 2, 11, 127
7, 155320, Control_c, 2, 11, 124
7, 155360, Control_c, 2, 11, 122
7, 155400, Control_c, 2, 11, 119
7, 155440, Control_c, 2, 11, 117
7, 155480, Control_c, 2, 11, 114
7, 155520, Control_c, 2, 11, 111
7, 155560, Control_c, 2, 11, 109
7, 155600, Control_c, 2, 11, 106
7, 155640, Control_c, 2, 11, 104
7, 155680, Control_c, 2, 11, 101
7, 155720, Control_c, 2, 11, 98
7, 155760, Control_c, 2, 11, 96
7, 155800, Control_c, 2, 11, 93
7, 155840, Control_c, 2, 11, 90
7, 155864, Note_on_c, 2, 76, 0
7, 155880, Control_c, 2, 11, 88
7, 155880, Note_on_c, 2, 73, 76
7, 155920, Control_c, 2, 11, 85
7, 155960, Control_c, 2, 11, 80
7, 155984, Note_on_c, 2, 73, 0
7, 156000, Note_on_c, 2, 71, 76
7, 156224, Note_on_c, 2, 71, 0
7, 156240, Note_on_c, 2, 64, 76
7, 156344, Note_on_c, 2, 64, 0
7, 156360, Note_on_c, 2, 64, 76
7, 156531, Note_on_c, 2, 64, 0
7, 156540, Note_on_c, 2, 73, 76
7, 156584, Note_on_c, 2, 73, 0
7, 156600, Note_on_c, 2, 69, 76
7, 156689, Note_on_c, 2, 69, 0
7, 156718, Control_c, 2, 11, 127
7, 156720, Note_on_c, 2, 64, 76
7, 156720, Note_on_c, 2, 76, 76
7, 157319, Note_on_c, 2, 64, 0
7, 157319, Note_on_c, 2, 76, 0
7, 157440, Note_on_c, 2, 76, 84
7, 157440, Note_on_c, 2, 64, 84
7, 157500, Control_c, 2, 11, 112
7, 158039, Note_on_c, 2, 76, 0
7, 158039, Note_on_c, 2, 64, 0
7, 158158, Control_c, 2, 11, 127
7, 158160, Note_on_c, 2, 64, 84
7, 158160, Note_on_c, 2, 76, 84
7, 158220, Control_c, 2, 11, 112
7, 158399, Note_on_c, 2, 64, 0
7, 158399, Note_on_c, 2, 76, 0
7, 158518, Control_c, 2, 11, 127
7, 158520, Note_on_c, 2, 76, 84
7, 158520, Note_on_c, 2, 64, 84
7, 158580, Control_c, 2, 11, 112
7, 158759, Note_on_c, 2, 76, 0
7, 158759, Note_on_c, 2, 64, 0
7, 158878, Control_c, 2, 11, 127
7, 158880, Note_on_c, 2, 76, 84
7, 158880, Note_on_c, 2, 64, 84
7, 158940, Control_c, 2, 11, 112
7, 159119, Note_on_c, 2, 76, 0
7, 159119, Note_on_c, 2, 64, 0
7, 159238, Control_c, 2, 11, 127
7, 159240, Note_on_c, 2, 86, 84
7, 159240, Note_on_c, 2, 74, 84
7, 159300, Control_c, 2, 11, 112
7, 159359, Note_on_c, 2, 86, 0
7, 159359, Note_on_c, 2, 74, 0
7, 159420, Note_on_c, 2, 83, 84
7, 159420, Note_on_c, 2, 71, 84
7, 159471, Note_on_c, 2, 83, 0
7, 159471, Note_on_c, 2, 71, 0
7, 159480, Note_on_c, 2, 80, 84
7, 159480, Note_on_c, 2, 68, 84
7, 159584, Note_on_c, 2, 80, 0
7, 159584, Note_on_c, 2, 68, 0
7, 159598, Control_c, 2, 11, 127
7, 159600, Note_on_c, 2, 74, 76
7, 159600, Note_on_c, 2, 83, 76
7, 159959, Note_on_c, 2, 74, 0
7, 159959, Note_on_c, 2, 83, 0
7, 160320, Note_on_c, 2, 73, 84
7, 160320, Note_on_c, 2, 76, 84
7, 161024, Note_on_c, 2, 73, 0
7, 161024, Note_on_c, 2, 76, 0
7, 161040, Note_on_c, 2, 74, 84
7, 161040, Note_on_c, 2, 78, 84
7, 161624, Note_on_c, 2, 74, 0
7, 161624, Note_on_c, 2, 78, 0
7, 161640, Note_on_c, 2, 80, 84
7, 161640, Note_on_c, 2, 71, 84
7, 161744, Note_on_c, 2, 80, 0
7, 161744, Note_on_c, 2, 71, 0
7, 161760, Note_on_c, 2, 73, 84
7, 161760, Note_on_c, 2, 81, 84
7, 162599, Note_on_c, 2, 73, 0
7, 162599, Note_on_c, 2, 81, 0
7, 162600, Note_on_c, 2, 71, 84
7, 162600, Note_on_c, 2, 80, 84
7, 162704, Note_on_c, 2, 71, 0
7, 162704, Note_on_c, 2, 80, 0
7, 162720, Note_on_c, 2, 69, 84
7, 162720, Note_on_c, 2, 78, 84
7, 162809, Note_on_c, 2, 69, 0
7, 162809, Note_on_c, 2, 78, 0
7, 162840, Note_on_c, 2, 76, 84
7, 162840, Note_on_c, 2, 68, 84
7, 163064, Note_on_c, 2, 76, 0
7, 163064, Note_on_c, 2, 68, 0
7, 163080, Note_on_c, 2, 64, 84
7, 163080, Note_on_c, 2, 76, 84
7, 163184, Note_on_c, 2, 64, 0
7, 163184, Note_on_c, 2, 76, 0
7, 163200, Note_on_c, 2, 76, 84
7, 163200, Note_on_c, 2, 73, 84
7, 163904, Note_on_c, 2, 76, 0
7, 163904, Note_on_c, 2, 73, 0
7, 163920, Note_on_c, 2, 74, 84
7, 163920, Note_on_c, 2, 78, 84
7, 164504, Note_on_c, 2, 74, 0
7, 164504, Note_on_c, 2, 78, 0
7, 164520, Note_on_c, 2, 71, 84
7, 164520, Note_on_c, 2, 80, 84
7, 164624, Note_on_c, 2, 71, 0
7, 164624, Note_on_c, 2, 80, 0
7, 164640, Note_on_c, 2, 73, 84
7, 164640, Note_on_c, 2, 81, 84
7, 164864, Note_on_c, 2, 73, 0
7, 164864, Note_on_c, 2, 81, 0
7, 164880, Note_on_c, 2, 73, 84
7, 164880, Note_on_c, 2, 81, 84
7, 164984, Note_on_c, 2, 73, 0
7, 164984, Note_on_c, 2, 81, 0
7, 165000, Note_on_c, 2, 73, 84
7, 165000, Note_on_c, 2, 81, 84
7, 165119, Note_on_c, 2, 73, 0
7, 165119, Note_on_c, 2, 81, 0
7, 165120, Note_on_c, 2, 85, 84
7, 165120, Note_on_c, 2, 76, 84
7, 165224, Note_on_c, 2, 85, 0
7, 165224, Note_on_c, 2, 76, 0
7, 165240, Note_on_c, 2, 74, 84
7, 165240, Note_on_c, 2, 83, 84
7, 165329, Note_on_c, 2, 74, 0
7, 165329, Note_on_c, 2, 83, 0
7, 165360, Note_on_c, 2, 73, 84
7, 165360, Note_on_c, 2, 81, 84
7, 165584, Note_on_c, 2, 73, 0
7, 165584, Note_on_c, 2, 81, 0
7, 165600, Note_on_c, 2, 69, 84
7, 165600, Note_on_c, 2, 81, 84
7, 165704, Note_on_c, 2, 69, 0
7, 165704, Note_on_c, 2, 81, 0
7, 165720, Note_on_c, 2, 81, 84
7, 165720, Note_on_c, 2, 69, 84
7, 165891, Note_on_c, 2, 81, 0
7, 165891, Note_on_c, 2, 69, 0
7, 165900, Note_on_c, 2, 81, 84
7, 165900, Note_on_c, 2, 69, 84
7, 165951, Note_on_c, 2, 81, 0
7, 165951, Note_on_c, 2, 69, 0
7, 165960, Note_on_c, 2, 81, 84
7, 165960, Note_on_c, 2, 69, 84
7, 166064, Note_on_c, 2, 81, 0
7, 166064, Note_on_c, 2, 69, 0
7, 166080, Note_on_c, 2, 69, 84
7, 166080, Note_on_c, 2, 81, 84
7, 166971, Note_on_c, 2, 69, 0
7, 166971, Note_on_c, 2, 81, 0
7, 166980, Note_on_c, 2, 69, 84
7, 166980, Note_on_c, 2, 81, 84
7, 167031, Note_on_c, 2, 69, 0
7, 167031, Note_on_c, 2, 81, 0
7, 167040, Note_on_c, 2, 69, 84
7, 167040, Note_on_c, 2, 81, 84
7, 167144, Note_on_c, 2, 69, 0
7, 167144, Note_on_c, 2, 81, 0
7, 167160, Note_on_c, 2, 81, 84
7, 167160, Note_on_c, 2, 69, 84
7, 167331, Note_on_c, 2, 81, 0
7, 167331, Note_on_c, 2, 69, 0
7, 167340, Note_on_c, 2, 81, 84
7, 167340, Note_on_c, 2, 69, 84
7, 167391, Note_on_c, 2, 81, 0
7, 167391, Note_on_c, 2, 69, 0
7, 167400, Note_on_c, 2, 69, 84
7, 167400, Note_on_c, 2, 81, 84
7, 167504, Note_on_c, 2, 69, 0
7, 167504, Note_on_c, 2, 81, 0
7, 167520, Note_on_c, 2, 81, 84
7, 167520, Note_on_c, 2, 69, 84
7, 168411, Note_on_c, 2, 81, 0
7, 168411, Note_on_c, 2, 69, 0
7, 168420, Note_on_c, 2, 69, 84
7, 168420, Note_on_c, 2, 81, 84
7, 168471, Note_on_c, 2, 69, 0
7, 168471, Note_on_c, 2, 81, 0
7, 168480, Note_on_c, 2, 69, 84
7, 168480, Note_on_c, 2, 81, 84
7, 168584, Note_on_c, 2, 69, 0
7, 168584, Note_on_c, 2, 81, 0
7, 168600, Note_on_c, 2, 81, 84
7, 168600, Note_on_c, 2, 69, 84
7, 168839, Note_on_c, 2, 81, 0
7, 168839, Note_on_c, 2, 69, 0
7, 169200, Note_on_c, 2, 76, 55
7, 169304, Note_on_c, 2, 76, 0
7, 169320, Note_on_c, 2, 78, 56
7, 169439, Note_on_c, 2, 78, 0
7, 169440, Note_on_c, 2, 76, 56
7, 169544, Note_on_c, 2, 76, 0
7, 169560, Note_on_c, 2, 73, 57
7, 169649, Note_on_c, 2, 73, 0
7, 169920, Note_on_c, 2, 78, 59
7, 170024, Note_on_c, 2, 78, 0
7, 170040, Note_on_c, 2, 79, 60
7, 170159, Note_on_c, 2, 79, 0
7, 170160, Note_on_c, 2, 78, 60
7, 170264, Note_on_c, 2, 78, 0
7, 170280, Note_on_c, 2, 74, 61
7, 170369, Note_on_c, 2, 74, 0
7, 170640, Note_on_c, 2, 74, 63
7, 170744, Note_on_c, 2, 74, 0
7, 170760, Note_on_c, 2, 76, 63
7, 170879, Note_on_c, 2, 76, 0
7, 170880, Note_on_c, 2, 74, 64
7, 170984, Note_on_c, 2, 74, 0
7, 171000, Note_on_c, 2, 71, 64
7, 171089, Note_on_c, 2, 71, 0
7, 171360, Note_on_c, 2, 76, 66
7, 171464, Note_on_c, 2, 76, 0
7, 171480, Note_on_c, 2, 78, 67
7, 171599, Note_on_c, 2, 78, 0
7, 171600, Note_on_c, 2, 76, 68
7, 171704, Note_on_c, 2, 76, 0
7, 171720, Note_on_c, 2, 73, 68
7, 171809, Note_on_c, 2, 73, 0
7, 172080, Note_on_c, 2, 76, 70
7, 172184, Note_on_c, 2, 76, 0
7, 172200, Note_on_c, 2, 78, 71
7, 172319, Note_on_c, 2, 78, 0
7, 172320, Note_on_c, 2, 76, 71
7, 172424, Note_on_c, 2, 76, 0
7, 172440, Note_on_c, 2, 73, 72
7, 172529, Note_on_c, 2, 73, 0
7, 172560, Note_on_c, 2, 79, 72
7, 172679, Note_on_c, 2, 79, 0
7, 172680, Note_on_c, 2, 78, 73
7, 172784, Note_on_c, 2, 78, 0
7, 172800, Note_on_c, 2, 74, 74
7, 172889, Note_on_c, 2, 74, 0
7, 172920, Note_on_c, 2, 79, 74
7, 173039, Note_on_c, 2, 79, 0
7, 173040, Note_on_c, 2, 78, 75
7, 173144, Note_on_c, 2, 78, 0
7, 173160, Note_on_c, 2, 74, 76
7, 173249, Note_on_c, 2, 74, 0
7, 173280, Note_on_c, 2, 81, 76
7, 173399, Note_on_c, 2, 81, 0
7, 173400, Note_on_c, 2, 80, 77
7, 173504, Note_on_c, 2, 80, 0
7, 173520, Note_on_c, 2, 76, 77
7, 173609, Note_on_c, 2, 76, 0
7, 173640, Note_on_c, 2, 81, 78
7, 173759, Note_on_c, 2, 81, 0
7, 173760, Note_on_c, 2, 80, 79
7, 173864, Note_on_c, 2, 80, 0
7, 173880, Note_on_c, 2, 76, 79
7, 173969, Note_on_c, 2, 76, 0
7, 174000, Note_on_c, 2, 83, 80
7, 174119, Note_on_c, 2, 83, 0
7, 174120, Note_on_c, 2, 81, 80
7, 174224, Note_on_c, 2, 81, 0
7, 174240, Note_on_c, 2, 76, 81
7, 174329, Note_on_c, 2, 76, 0
7, 174360, Note_on_c, 2, 74, 82
7, 174479, Note_on_c, 2, 74, 0
7, 174480, Note_on_c, 2, 73, 82
7, 174584, Note_on_c, 2, 73, 0
7, 174600, Note_on_c, 2, 69, 83
7, 174689, Note_on_c, 2, 69, 0
7, 174720, Note_on_c, 2, 76, 84
7, 175424, Note_on_c, 2, 76, 0
7, 175440, Note_on_c, 2, 75, 84
7, 175440, Note_on_c, 2, 78, 84
7, 175904, Note_on_c, 2, 75, 0
7, 175904, Note_on_c, 2, 78, 0
7, 175920, Note_on_c, 2, 78, 52
7, 176024, Note_on_c, 2, 78, 0
7, 176040, Note_on_c, 2, 78, 52
7, 176144, Note_on_c, 2, 78, 0
7, 176160, Note_on_c, 2, 78, 52
7, 176279, Note_on_c, 2, 78, 0
7, 176400, Note_on_c, 2, 78, 52
7, 176504, Note_on_c, 2, 78, 0
7, 176520, Note_on_c, 2, 78, 52
7, 176639, Note_on_c, 2, 78, 0
7, 176760, Note_on_c, 2, 78, 52
7, 176864, Note_on_c, 2, 78, 0
7, 176880, Note_on_c, 2, 80, 52
7, 177119, Note_on_c, 2, 80, 0
7, 178920, Control_c, 2, 11, 80
7, 179040, Note_on_c, 2, 76, 76
7, 179040, Control_c, 2, 11, 80
7, 179080, Control_c, 2, 11, 83
7, 179120, Control_c, 2, 11, 85
7, 179160, Control_c, 2, 11, 88
7, 179200, Control_c, 2, 11, 90
7, 179240, Control_c, 2, 11, 93
7, 179280, Control_c, 2, 11, 96
7, 179320, Control_c, 2, 11, 98
7, 179360, Control_c, 2, 11, 101
7, 179399, Note_on_c, 2, 76, 0
7, 179400, Note_on_c, 2, 73, 76
7, 179400, Control_c, 2, 11, 104
7, 179440, Control_c, 2, 11, 106
7, 179480, Control_c, 2, 11, 109
7, 179520, Control_c, 2, 11, 111
7, 179560, Control_c, 2, 11, 114
7, 179600, Control_c, 2, 11, 117
7, 179640, Control_c, 2, 11, 119
7, 179680, Control_c, 2, 11, 122
7, 179720, Control_c, 2, 11, 127
7, 179744, Note_on_c, 2, 73, 0
7, 179760, Note_on_c, 2, 70, 76
7, 179984, Note_on_c, 2, 70, 0
7, 180000, Note_on_c, 2, 63, 52
7, 180104, Note_on_c, 2, 63, 0
7, 180120, Note_on_c, 2, 63, 52
7, 180254, Note_on_c, 2, 63, 0
7, 180300, Note_on_c, 2, 67, 52
7, 180344, Note_on_c, 2, 67, 0
7, 180360, Note_on_c, 2, 70, 52
7, 180449, Note_on_c, 2, 70, 0
7, 180480, Note_on_c, 2, 71, 52
7, 180659, Note_on_c, 2, 71, 0
7, 180720, Note_on_c, 2, 71, 52
7, 180824, Note_on_c, 2, 71, 0
7, 180840, Note_on_c, 2, 71, 52
7, 180974, Note_on_c, 2, 71, 0
7, 181020, Note_on_c, 2, 70, 52
7, 181064, Note_on_c, 2, 70, 0
7, 181080, Note_on_c, 2, 68, 52
7, 181169, Note_on_c, 2, 68, 0
7, 181200, Note_on_c, 2, 67, 52
7, 181439, Note_on_c, 2, 67, 0
7, 181680, Control_c, 2, 11, 80
7, 181800, Note_on_c, 2, 70, 76
7, 181919, Note_on_c, 2, 70, 0
7, 181920, Note_on_c, 2, 71, 76
7, 181920, Control_c, 2, 11, 80
7, 181960, Control_c, 2, 11, 83
7, 182000, Control_c, 2, 11, 85
7, 182040, Control_c, 2, 11, 88
7, 182080, Control_c, 2, 11, 90
7, 182120, Control_c, 2, 11, 93
7, 182144, Note_on_c, 2, 71, 0
7, 182160, Note_on_c, 2, 83, 76
7, 182160, Note_on_c, 2, 71, 76
7, 182160, Control_c, 2, 11, 96
7, 182200, Control_c, 2, 11, 98
7, 182240, Control_c, 2, 11, 101
7, 182264, Note_on_c, 2, 83, 0
7, 182264, Note_on_c, 2, 71, 0
7, 182280, Control_c, 2, 11, 104
7, 182280, Note_on_c, 2, 71, 76
7, 182280, Note_on_c, 2, 83, 76
7, 182320, Control_c, 2, 11, 106
7, 182360, Control_c, 2, 11, 109
7, 182400, Control_c, 2, 11, 111
7, 182440, Control_c, 2, 11, 114
7, 182480, Control_c, 2, 11, 117
7, 182504, Note_on_c, 2, 71, 0
7, 182504, Note_on_c, 2, 83, 0
7, 182520, Control_c, 2, 11, 119
7, 182520, Note_on_c, 2, 71, 76
7, 182520, Note_on_c, 2, 83, 76
7, 182560, Control_c, 2, 11, 122
7, 182600, Control_c, 2, 11, 127
7, 182624, Note_on_c, 2, 71, 0
7, 182624, Note_on_c, 2, 83, 0
7, 182640, Note_on_c, 2, 71, 76
7, 182640, Note_on_c, 2, 83, 76
7, 183584, Note_on_c, 2, 71, 0
7, 183584, Note_on_c, 2, 83, 0
7, 183600, Note_on_c, 2, 71, 76
7, 183600, Note_on_c, 2, 83, 76
7, 183704, Note_on_c, 2, 71, 0
7, 183704, Note_on_c, 2, 83, 0
7, 183720, Note_on_c, 2, 83, 76
7, 183720, Note_on_c, 2, 71, 76
7, 183944, Note_on_c, 2, 83, 0
7, 183944, Note_on_c, 2, 71, 0
7, 183960, Note_on_c, 2, 71, 76
7, 183960, Note_on_c, 2, 83, 76
7, 184064, Note_on_c, 2, 71, 0
7, 184064, Note_on_c, 2, 83, 0
7, 184080, Note_on_c, 2, 83, 76
7, 184080, Note_on_c, 2, 71, 76
7, 184919, Note_on_c, 2, 83, 0
7, 184919, Note_on_c, 2, 71, 0
7, 184920, Note_on_c, 2, 69, 76
7, 184920, Note_on_c, 2, 81, 76
7, 185024, Note_on_c, 2, 69, 0
7, 185024, Note_on_c, 2, 81, 0
7, 185040, Note_on_c, 2, 81, 76
7, 185040, Note_on_c, 2, 69, 76
7, 185144, Note_on_c, 2, 81, 0
7, 185144, Note_on_c, 2, 69, 0
7, 185160, Note_on_c, 2, 81, 76
7, 185160, Note_on_c, 2, 76, 76
7, 185384, Note_on_c, 2, 81, 0
7, 185384, Note_on_c, 2, 76, 0
7, 185400, Note_on_c, 2, 81, 76
7, 185400, Note_on_c, 2, 76, 76
7, 185504, Note_on_c, 2, 81, 0
7, 185504, Note_on_c, 2, 76, 0
7, 185520, Note_on_c, 2, 81, 76
7, 185520, Note_on_c, 2, 78, 76
7, 185624, Note_on_c, 2, 81, 0
7, 185624, Note_on_c, 2, 78, 0
7, 185640, Note_on_c, 2, 78, 76
7, 185640, Note_on_c, 2, 81, 76
7, 185759, Note_on_c, 2, 78, 0
7, 185759, Note_on_c, 2, 81, 0
7, 185880, Note_on_c, 2, 81, 76
7, 185880, Note_on_c, 2, 78, 76
7, 185984, Note_on_c, 2, 81, 0
7, 185984, Note_on_c, 2, 78, 0
7, 186000, Note_on_c, 2, 81, 76
7, 186000, Note_on_c, 2, 78, 76
7, 186119, Note_on_c, 2, 81, 0
7, 186119, Note_on_c, 2, 78, 0
7, 186240, Note_on_c, 2, 76, 76
7, 186240, Note_on_c, 2, 80, 76
7, 186344, Note_on_c, 2, 76, 0
7, 186344, Note_on_c, 2, 80, 0
7, 186360, Note_on_c, 2, 76, 76
7, 186360, Note_on_c, 2, 80, 76
7, 186479, Note_on_c, 2, 76, 0
7, 186479, Note_on_c, 2, 80, 0
7, 186600, Note_on_c, 2, 76, 76
7, 186600, Note_on_c, 2, 80, 76
7, 186704, Note_on_c, 2, 76, 0
7, 186704, Note_on_c, 2, 80, 0
7, 186720, Note_on_c, 2, 76, 76
7, 186720, Note_on_c, 2, 80, 76
7, 186839, Note_on_c, 2, 76, 0
7, 186839, Note_on_c, 2, 80, 0
7, 186960, Note_on_c, 2, 78, 76
7, 186960, Note_on_c, 2, 81, 76
7, 187064, Note_on_c, 2, 78, 0
7, 187064, Note_on_c, 2, 81, 0
7, 187080, Note_on_c, 2, 81, 76
7, 187080, Note_on_c, 2, 78, 76
7, 187199, Note_on_c, 2, 81, 0
7, 187199, Note_on_c, 2, 78, 0
7, 187320, Note_on_c, 2, 78, 76
7, 187320, Note_on_c, 2, 81, 76
7, 187424, Note_on_c, 2, 78, 0
7, 187424, Note_on_c, 2, 81, 0
7, 187440, Note_on_c, 2, 78, 76
7, 187440, Note_on_c, 2, 81, 76
7, 187559, Note_on_c, 2, 78, 0
7, 187559, Note_on_c, 2, 81, 0
7, 187680, Note_on_c, 2, 80, 76
7, 187680, Note_on_c, 2, 76, 76
7, 187784, Note_on_c, 2, 80, 0
7, 187784, Note_on_c, 2, 76, 0
7, 187800, Note_on_c, 2, 76, 76
7, 187800, Note_on_c, 2, 80, 76
7, 187919, Note_on_c, 2, 76, 0
7, 187919, Note_on_c, 2, 80, 0
7, 188040, Note_on_c, 2, 80, 76
7, 188040, Note_on_c, 2, 76, 76
7, 188144, Note_on_c, 2, 80, 0
7, 188144, Note_on_c, 2, 76, 0
7, 188160, Note_on_c, 2, 76, 76
7, 188160, Note_on_c, 2, 80, 76
7, 188279, Note_on_c, 2, 76, 0
7, 188279, Note_on_c, 2, 80, 0
7, 189120, Note_on_c, 2, 83, 52
7, 189719, Note_on_c, 2, 83, 0
7, 189720, Note_on_c, 2, 78, 52
7, 189824, Note_on_c, 2, 78, 0
7, 189840, Note_on_c, 2, 76, 48
7, 190184, Note_on_c, 2, 76, 0
7, 190200, Note_on_c, 2, 80, 48
7, 190200, Note_on_c, 2, 76, 48
7, 190371, Note_on_c, 2, 80, 0
7, 190371, Note_on_c, 2, 76, 0
7, 190380, Note_on_c, 2, 71, 48
7, 190380, Note_on_c, 2, 76, 48
7, 190431, Note_on_c, 2, 71, 0
7, 190431, Note_on_c, 2, 76, 0
7, 190440, Note_on_c, 2, 76, 48
7, 190440, Note_on_c, 2, 71, 48
7, 190544, Note_on_c, 2, 76, 0
7, 190544, Note_on_c, 2, 71, 0
7, 190560, Note_on_c, 2, 81, 48
7, 190560, Note_on_c, 2, 78, 48
7, 190731, Note_on_c, 2, 81, 0
7, 190731, Note_on_c, 2, 78, 0
7, 190740, Note_on_c, 2, 78, 48
7, 190740, Note_on_c, 2, 71, 48
7, 190791, Note_on_c, 2, 78, 0
7, 190791, Note_on_c, 2, 71, 0
7, 190800, Note_on_c, 2, 71, 48
7, 190800, Note_on_c, 2, 78, 48
7, 190904, Note_on_c, 2, 71, 0
7, 190904, Note_on_c, 2, 78, 0
7, 190920, Note_on_c, 2, 80, 48
7, 190920, Note_on_c, 2, 83, 48
7, 191624, Note_on_c, 2, 80, 0
7, 191624, Note_on_c, 2, 83, 0
7, 191640, Note_on_c, 2, 83, 48
7, 191811, Note_on_c, 2, 83, 0
7, 191820, Note_on_c, 2, 80, 48
7, 191871, Note_on_c, 2, 80, 0
7, 191880, Note_on_c, 2, 80, 48
7, 191984, Note_on_c, 2, 80, 0
7, 192000, Note_on_c, 2, 80, 48
7, 192171, Note_on_c, 2, 80, 0
7, 192180, Note_on_c, 2, 76, 48
7, 192231, Note_on_c, 2, 76, 0
7, 192240, Note_on_c, 2, 76, 48
7, 192344, Note_on_c, 2, 76, 0
7, 192360, Note_on_c, 2, 76, 48
7, 192479, Note_on_c, 2, 76, 0
7, 192480, Note_on_c, 2, 78, 48
7, 192584, Note_on_c, 2, 78, 0
7, 192600, Note_on_c, 2, 75, 48
7, 192689, Note_on_c, 2, 75, 0
7, 192720, Note_on_c, 2, 76, 76
7, 192824, Note_on_c, 2, 76, 0
7, 192840, Note_on_c, 2, 76, 76
7, 192944, Note_on_c, 2, 76, 0
7, 192960, Note_on_c, 2, 76, 76
7, 193064, Note_on_c, 2, 76, 0
7, 193080, Note_on_c, 2, 76, 76
7, 193184, Note_on_c, 2, 76, 0
7, 193200, Note_on_c, 2, 76, 76
7, 193304, Note_on_c, 2, 76, 0
7, 193320, Note_on_c, 2, 76, 76
7, 193424, Note_on_c, 2, 76, 0
7, 193440, Note_on_c, 2, 76, 76
7, 193544, Note_on_c, 2, 76, 0
7, 193560, Note_on_c, 2, 76, 76
7, 193664, Note_on_c, 2, 76, 0
7, 193680, Note_on_c, 2, 76, 76
7, 193784, Note_on_c, 2, 76, 0
7, 193800, Note_on_c, 2, 79, 76
7, 193904, Note_on_c, 2, 79, 0
7, 193920, Note_on_c, 2, 79, 76
7, 194024, Note_on_c, 2, 79, 0
7, 194040, Note_on_c, 2, 79, 76
7, 194144, Note_on_c, 2, 79, 0
7, 194160, Note_on_c, 2, 72, 76
7, 194160, Note_on_c, 2, 84, 76
7, 194399, Note_on_c, 2, 72, 0
7, 194399, Note_on_c, 2, 84, 0
7, 196860, Note_on_c, 2, 67, 52
7, 196911, Note_on_c, 2, 67, 0
7, 196920, Note_on_c, 2, 67, 52
7, 197024, Note_on_c, 2, 67, 0
7, 197040, Note_on_c, 2, 72, 52
7, 197279, Note_on_c, 2, 72, 0
7, 197760, Note_on_c, 2, 72, 44
7, 197999, Note_on_c, 2, 72, 0
7, 199440, Note_on_c, 2, 78, 44
7, 199499, Note_on_c, 2, 78, 0
7, 199500, Note_on_c, 2, 79, 44
7, 199559, Note_on_c, 2, 79, 0
7, 199560, Note_on_c, 2, 81, 44
7, 199649, Note_on_c, 2, 81, 0
7, 200880, Note_on_c, 2, 78, 44
7, 200939, Note_on_c, 2, 78, 0
7, 200940, Note_on_c, 2, 79, 44
7, 200999, Note_on_c, 2, 79, 0
7, 201000, Note_on_c, 2, 81, 44
7, 201089, Note_on_c, 2, 81, 0
7, 201600, Note_on_c, 2, 78, 44
7, 201659, Note_on_c, 2, 78, 0
7, 201660, Note_on_c, 2, 80, 44
7, 201719, Note_on_c, 2, 80, 0
7, 201720, Note_on_c, 2, 81, 45
7, 201809, Note_on_c, 2, 81, 0
7, 203760, Note_on_c, 2, 71, 65
7, 203819, Note_on_c, 2, 71, 0
7, 203820, Note_on_c, 2, 73, 65
7, 203879, Note_on_c, 2, 73, 0
7, 203880, Note_on_c, 2, 75, 66
7, 203969, Note_on_c, 2, 75, 0
7, 205200, Note_on_c, 2, 75, 79
7, 205259, Note_on_c, 2, 75, 0
7, 205260, Note_on_c, 2, 76, 79
7, 205319, Note_on_c, 2, 76, 0
7, 205320, Note_on_c, 2, 78, 80
7, 205409, Note_on_c, 2, 78, 0
7, 205560, Note_on_c, 2, 76, 82
7, 205619, Note_on_c, 2, 76, 0
7, 205620, Note_on_c, 2, 78, 83
7, 205679, Note_on_c, 2, 78, 0
7, 205680, Note_on_c, 2, 80, 84
7, 205680, Note_on_c, 2, 76, 84
7, 206744, Note_on_c, 2, 80, 0
7, 206744, Note_on_c, 2, 76, 0
7, 206760, Note_on_c, 2, 76, 84
7, 206760, Note_on_c, 2, 80, 84
7, 206931, Note_on_c, 2, 76, 0
7, 206931, Note_on_c, 2, 80, 0
7, 206940, Note_on_c, 2, 80, 84
7, 206940, Note_on_c, 2, 76, 84
7, 206991, Note_on_c, 2, 80, 0
7, 206991, Note_on_c, 2, 76, 0
7, 207000, Note_on_c, 2, 80, 84
7, 207000, Note_on_c, 2, 76, 84
7, 207104, Note_on_c, 2, 80, 0
7, 207104, Note_on_c, 2, 76, 0
7, 207120, Note_on_c, 2, 78, 84
7, 207120, Note_on_c, 2, 76, 84
7, 208184, Note_on_c, 2, 78, 0
7, 208184, Note_on_c, 2, 76, 0
7, 208200, Note_on_c, 2, 78, 84
7, 208200, Note_on_c, 2, 76, 84
7, 208371, Note_on_c, 2, 78, 0
7, 208371, Note_on_c, 2, 76, 0
7, 208380, Note_on_c, 2, 78, 84
7, 208380, Note_on_c, 2, 76, 84
7, 208431, Note_on_c, 2, 78, 0
7, 208431, Note_on_c, 2, 76, 0
7, 208440, Note_on_c, 2, 78, 84
7, 208440, Note_on_c, 2, 76, 84
7, 208544, Note_on_c, 2, 78, 0
7, 208544, Note_on_c, 2, 76, 0
7, 208558, Control_c, 2, 11, 48
7, 208560, Note_on_c, 2, 77, 84
7, 208919, Note_on_c, 2, 77, 0
7, 208920, Note_on_c, 2, 72, 84
7, 209279, Note_on_c, 2, 72, 0
7, 209280, Note_on_c, 2, 63, 84
7, 209280, Control_c, 2, 11, 48
7, 209320, Control_c, 2, 11, 52
7, 209360, Control_c, 2, 11, 57
7, 209400, Control_c, 2, 11, 61
7, 209440, Control_c, 2, 11, 66
7, 209480, Control_c, 2, 11, 70
7, 209520, Control_c, 2, 11, 74
7, 209560, Control_c, 2, 11, 79
7, 209600, Control_c, 2, 11, 83
7, 209624, Note_on_c, 2, 63, 0
7, 209640, Control_c, 2, 11, 88
7, 209640, Note_on_c, 2, 71, 84
7, 209680, Control_c, 2, 11, 92
7, 209720, Control_c, 2, 11, 96
7, 209744, Note_on_c, 2, 71, 0
7, 209760, Control_c, 2, 11, 101
7, 209760, Note_on_c, 2, 73, 84
7, 209800, Control_c, 2, 11, 105
7, 209811, Note_on_c, 2, 73, 0
7, 209820, Note_on_c, 2, 75, 84
7, 209840, Control_c, 2, 11, 109
7, 209871, Note_on_c, 2, 75, 0
7, 209880, Control_c, 2, 11, 114
7, 209880, Note_on_c, 2, 76, 84
7, 209920, Control_c, 2, 11, 118
7, 209931, Note_on_c, 2, 76, 0
7, 209940, Note_on_c, 2, 78, 84
7, 209960, Control_c, 2, 11, 127
7, 209991, Note_on_c, 2, 78, 0
7, 210000, Note_on_c, 2, 76, 84
7, 210000, Note_on_c, 2, 80, 84
7, 211064, Note_on_c, 2, 76, 0
7, 211064, Note_on_c, 2, 80, 0
7, 211080, Note_on_c, 2, 76, 84
7, 211080, Note_on_c, 2, 80, 84
7, 211251, Note_on_c, 2, 76, 0
7, 211251, Note_on_c, 2, 80, 0
7, 211260, Note_on_c, 2, 80, 84
7, 211260, Note_on_c, 2, 76, 84
7, 211311, Note_on_c, 2, 80, 0
7, 211311, Note_on_c, 2, 76, 0
7, 211320, Note_on_c, 2, 76, 84
7, 211320, Note_on_c, 2, 80, 84
7, 211424, Note_on_c, 2, 76, 0
7, 211424, Note_on_c, 2, 80, 0
7, 211440, Note_on_c, 2, 76, 84
7, 211440, Note_on_c, 2, 78, 84
7, 212504, Note_on_c, 2, 76, 0
7, 212504, Note_on_c, 2, 78, 0
7, 212520, Note_on_c, 2, 76, 84
7, 212520, Note_on_c, 2, 78, 84
7, 212691, Note_on_c, 2, 76, 0
7, 212691, Note_on_c, 2, 78, 0
7, 212700, Note_on_c, 2, 76, 84
7, 212700, Note_on_c, 2, 78, 84
7, 212751, Note_on_c, 2, 76, 0
7, 212751, Note_on_c, 2, 78, 0
7, 212760, Note_on_c, 2, 78, 84
7, 212760, Note_on_c, 2, 76, 84
7, 212864, Note_on_c, 2, 78, 0
7, 212864, Note_on_c, 2, 76, 0
7, 212880, Control_c, 2, 11, 48
7, 213240, Note_on_c, 2, 77, 84
7, 213599, Note_on_c, 2, 77, 0
7, 213600, Note_on_c, 2, 75, 84
7, 213600, Control_c, 2, 11, 48
7, 213640, Control_c, 2, 11, 52
7, 213680, Control_c, 2, 11, 57
7, 213720, Control_c, 2, 11, 61
7, 213760, Control_c, 2, 11, 66
7, 213800, Control_c, 2, 11, 70
7, 213840, Control_c, 2, 11, 74
7, 213880, Control_c, 2, 11, 79
7, 213920, Control_c, 2, 11, 83
7, 213960, Control_c, 2, 11, 88
7, 214000, Control_c, 2, 11, 92
7, 214040, Control_c, 2, 11, 96
7, 214080, Control_c, 2, 11, 101
7, 214120, Control_c, 2, 11, 105
7, 214160, Control_c, 2, 11, 109
7, 214184, Note_on_c, 2, 75, 0
7, 214200, Control_c, 2, 11, 114
7, 214200, Note_on_c, 2, 71, 84
7, 214240, Control_c, 2, 11, 118
7, 214280, Control_c, 2, 11, 123
7, 214289, Note_on_c, 2, 71, 0
7, 214318, Control_c, 2, 11, 127
7, 214320, Note_on_c, 2, 83, 84
7, 214851, Note_on_c, 2, 83, 0
7, 214860, Note_on_c, 2, 81, 84
7, 214911, Note_on_c, 2, 81, 0
7, 214920, Note_on_c, 2, 80, 84
7, 215001, Note_on_c, 2, 80, 0
7, 215010, Note_on_c, 2, 80, 84
7, 215039, Note_on_c, 2, 80, 0
7, 215040, Note_on_c, 2, 81, 92
7, 215100, Control_c, 2, 11, 112
7, 215571, Note_on_c, 2, 81, 0
7, 215580, Note_on_c, 2, 73, 92
7, 215580, Note_on_c, 2, 69, 92
7, 215631, Note_on_c, 2, 73, 0
7, 215631, Note_on_c, 2, 69, 0
7, 215640, Note_on_c, 2, 69, 92
7, 215640, Note_on_c, 2, 75, 92
7, 215744, Note_on_c, 2, 69, 0
7, 215744, Note_on_c, 2, 75, 0
7, 215760, Note_on_c, 2, 76, 92
7, 215760, Note_on_c, 2, 68, 92
7, 215999, Note_on_c, 2, 76, 0
7, 215999, Note_on_c, 2, 68, 0
7, 216118, Control_c, 2, 11, 127
7, 216120, Note_on_c, 2, 80, 84
7, 216120, Note_on_c, 2, 68, 84
7, 216359, Note_on_c, 2, 80, 0
7, 216359, Note_on_c, 2, 68, 0
7, 216480, Note_on_c, 2, 71, 84
7, 216480, Note_on_c, 2, 83, 84
7, 216719, Note_on_c, 2, 71, 0
7, 216719, Note_on_c, 2, 83, 0
7, 217020, Note_on_c, 2, 83, 84
7, 217020, Note_on_c, 2, 71, 84
7, 217071, Note_on_c, 2, 83, 0
7, 217071, Note_on_c, 2, 71, 0
7, 217080, Note_on_c, 2, 83, 84
7, 217080, Note_on_c, 2, 71, 84
7, 217184, Note_on_c, 2, 83, 0
7, 217184, Note_on_c, 2, 71, 0
7, 217200, Note_on_c, 2, 71, 92
7, 217200, Note_on_c, 2, 83, 92
7, 217260, Control_c, 2, 11, 112
7, 217424, Note_on_c, 2, 71, 0
7, 217424, Note_on_c, 2, 83, 0
7, 217440, Note_on_c, 2, 80, 92
7, 217521, Note_on_c, 2, 80, 0
7, 217530, Note_on_c, 2, 80, 92
7, 217559, Note_on_c, 2, 80, 0
7, 217560, Note_on_c, 2, 81, 92
7, 217731, Note_on_c, 2, 81, 0
7, 217740, Note_on_c, 2, 73, 92
7, 217740, Note_on_c, 2, 81, 92
7, 217791, Note_on_c, 2, 73, 0
7, 217791, Note_on_c, 2, 81, 0
7, 217800, Note_on_c, 2, 81, 92
7, 217800, Note_on_c, 2, 75, 92
7, 217904, Note_on_c, 2, 81, 0
7, 217904, Note_on_c, 2, 75, 0
7, 217920, Note_on_c, 2, 80, 92
7, 217920, Note_on_c, 2, 76, 92
7, 218159, Note_on_c, 2, 80, 0
7, 218159, Note_on_c, 2, 76, 0
7, 218460, Note_on_c, 2, 83, 92
7, 218460, Note_on_c, 2, 71, 92
7, 218511, Note_on_c, 2, 83, 0
7, 218511, Note_on_c, 2, 71, 0
7, 218520, Note_on_c, 2, 71, 92
7, 218520, Note_on_c, 2, 83, 92
7, 218624, Note_on_c, 2, 71, 0
7, 218624, Note_on_c, 2, 83, 0
7, 218638, Control_c, 2, 11, 127
7, 218640, Note_on_c, 2, 71, 92
7, 218640, Note_on_c, 2, 83, 92
7, 218700, Control_c, 2, 11, 112
7, 218864, Note_on_c, 2, 71, 0
7, 218864, Note_on_c, 2, 83, 0
7, 218880, Note_on_c, 2, 80, 92
7, 218961, Note_on_c, 2, 80, 0
7, 218970, Note_on_c, 2, 80, 92
7, 218999, Note_on_c, 2, 80, 0
7, 219000, Note_on_c, 2, 81, 92
7, 219171, Note_on_c, 2, 81, 0
7, 219180, Note_on_c, 2, 73, 92
7, 219180, Note_on_c, 2, 81, 92
7, 219231, Note_on_c, 2, 73, 0
7, 219231, Note_on_c, 2, 81, 0
7, 219240, Note_on_c, 2, 75, 92
7, 219240, Note_on_c, 2, 81, 92
7, 219344, Note_on_c, 2, 75, 0
7, 219344, Note_on_c, 2, 81, 0
7, 219358, Control_c, 2, 11, 127
7, 219360, Note_on_c, 2, 76, 84
7, 219479, Note_on_c, 2, 76, 0
7, 219600, Note_on_c, 2, 76, 84
7, 219719, Note_on_c, 2, 76, 0
7, 219960, Note_on_c, 2, 76, 84
7, 220079, Note_on_c, 2, 76, 0
7, 220320, Note_on_c, 2, 76, 84
7, 220439, Note_on_c, 2, 76, 0
7, 220680, Note_on_c, 2, 76, 84
7, 220799, Note_on_c, 2, 76, 0
7, 221040, Note_on_c, 2, 76, 84
7, 221159, Note_on_c, 2, 76, 0
7, 221400, Note_on_c, 2, 76, 84
7, 221519, Note_on_c, 2, 76, 0
7, 221760, Note_on_c, 2, 76, 84
7, 221879, Note_on_c, 2, 76, 0
7, 222120, Note_on_c, 2, 76, 84
7, 222239, Note_on_c, 2, 76, 0
7, 223920, Note_on_c, 2, 79, 84
7, 224039, Note_on_c, 2, 79, 0
7, 224280, Note_on_c, 2, 79, 84
7, 224399, Note_on_c, 2, 79, 0
7, 224640, Note_on_c, 2, 79, 84
7, 224759, Note_on_c, 2, 79, 0
7, 225000, Note_on_c, 2, 79, 84
7, 225119, Note_on_c, 2, 79, 0
7, 233760, Note_on_c, 2, 67, 44
7, 234291, Note_on_c, 2, 67, 0
7, 234300, Note_on_c, 2, 65, 44
7, 234344, Note_on_c, 2, 65, 0
7, 234360, Note_on_c, 2, 64, 44
7, 234449, Note_on_c, 2, 64, 0
7, 234480, Note_on_c, 2, 65, 44
7, 234629, Note_on_c, 2, 65, 0
7, 234660, Note_on_c, 2, 67, 44
7, 234704, Note_on_c, 2, 67, 0
7, 234720, Note_on_c, 2, 69, 44
7, 234809, Note_on_c, 2, 69, 0
7, 234840, Note_on_c, 2, 71, 44
7, 234989, Note_on_c, 2, 71, 0
7, 235020, Note_on_c, 2, 72, 44
7, 235064, Note_on_c, 2, 72, 0
7, 235080, Note_on_c, 2, 74, 44
7, 235169, Note_on_c, 2, 74, 0
7, 235200, Note_on_c, 2, 76, 44
7, 235349, Note_on_c, 2, 76, 0
7, 235380, Note_on_c, 2, 77, 44
7, 235424, Note_on_c, 2, 77, 0
7, 235440, Note_on_c, 2, 79, 44
7, 235529, Note_on_c, 2, 79, 0
7, 235560, Note_on_c, 2, 81, 44
7, 235709, Note_on_c, 2, 81, 0
7, 235740, Note_on_c, 2, 83, 44
7, 235784, Note_on_c, 2, 83, 0
7, 235800, Note_on_c, 2, 84, 44
7, 235889, Note_on_c, 2, 84, 0
7, 235920, Note_on_c, 2, 86, 44
7, 236069, Note_on_c, 2, 86, 0
7, 236100, Note_on_c, 2, 84, 44
7, 236144, Note_on_c, 2, 84, 0
7, 236160, Note_on_c, 2, 83, 44
7, 236249, Note_on_c, 2, 83, 0
7, 236280, Note_on_c, 2, 81, 44
7, 236429, Note_on_c, 2, 81, 0
7, 236460, Note_on_c, 2, 79, 44
7, 236504, Note_on_c, 2, 79, 0
7, 236520, Note_on_c, 2, 77, 44
7, 236609, Note_on_c, 2, 77, 0
7, 236638, Control_c, 2, 11, 64
7, 236640, Note_on_c, 2, 76, 76
7, 236709, Control_c, 2, 11, 65
7, 236777, Control_c, 2, 11, 66
7, 236846, Control_c, 2, 11, 67
7, 236914, Control_c, 2, 11, 68
7, 236983, Control_c, 2, 11, 69
7, 237051, Control_c, 2, 11, 70
7, 237120, Control_c, 2, 11, 71
7, 237189, Control_c, 2, 11, 72
7, 237257, Control_c, 2, 11, 73
7, 237326, Control_c, 2, 11, 74
7, 237394, Control_c, 2, 11, 75
7, 237463, Control_c, 2, 11, 76
7, 237531, Control_c, 2, 11, 77
7, 237600, Control_c, 2, 11, 78
7, 237669, Control_c, 2, 11, 79
7, 237737, Control_c, 2, 11, 80
7, 237806, Control_c, 2, 11, 81
7, 237874, Control_c, 2, 11, 82
7, 237943, Control_c, 2, 11, 83
7, 238011, Control_c, 2, 11, 84
7, 238064, Note_on_c, 2, 76, 0
7, 238080, Note_on_c, 2, 75, 76
7, 238080, Control_c, 2, 11, 85
7, 238149, Control_c, 2, 11, 86
7, 238217, Control_c, 2, 11, 87
7, 238286, Control_c, 2, 11, 88
7, 238354, Control_c, 2, 11, 89
7, 238423, Control_c, 2, 11, 90
7, 238491, Control_c, 2, 11, 91
7, 238560, Control_c, 2, 11, 92
7, 238629, Control_c, 2, 11, 93
7, 238697, Control_c, 2, 11, 94
7, 238766, Control_c, 2, 11, 95
7, 238834, Control_c, 2, 11, 96
7, 238903, Control_c, 2, 11, 97
7, 238971, Control_c, 2, 11, 98
7, 239040, Control_c, 2, 11, 99
7, 239109, Control_c, 2, 11, 100
7, 239177, Control_c, 2, 11, 101
7, 239246, Control_c, 2, 11, 102
7, 239314, Control_c, 2, 11, 103
7, 239383, Control_c, 2, 11, 104
7, 239451, Control_c, 2, 11, 105
7, 239504, Note_on_c, 2, 75, 0
7, 239520, Note_on_c, 2, 74, 76
7, 239520, Control_c, 2, 11, 106
7, 239589, Control_c, 2, 11, 107
7, 239657, Control_c, 2, 11, 108
7, 239726, Control_c, 2, 11, 109
7, 239794, Control_c, 2, 11, 110
7, 239863, Control_c, 2, 11, 111
7, 239864, Note_on_c, 2, 74, 0
7, 239880, Note_on_c, 2, 79, 76
7, 239931, Control_c, 2, 11, 112
7, 240000, Control_c, 2, 11, 113
7, 240069, Control_c, 2, 11, 114
7, 240137, Control_c, 2, 11, 115
7, 240206, Control_c, 2, 11, 116
7, 240274, Control_c, 2, 11, 117
7, 240343, Control_c, 2, 11, 118
7, 240411, Control_c, 2, 11, 119
7, 240480, Control_c, 2, 11, 120
7, 240549, Control_c, 2, 11, 121
7, 240617, Control_c, 2, 11, 122
7, 240686, Control_c, 2, 11, 123
7, 240754, Control_c, 2, 11, 124
7, 240823, Control_c, 2, 11, 125
7, 240891, Control_c, 2, 11, 127
7, 240944, Note_on_c, 2, 79, 0
7, 240960, Note_on_c, 2, 79, 76
7, 240960, Note_on_c, 2, 84, 76
7, 243824, Note_on_c, 2, 79, 0
7, 243824, Note_on_c, 2, 84, 0
7, 243840, Note_on_c, 2, 79, 84
7, 243840, Note_on_c, 2, 83, 84
7, 244011, Note_on_c, 2, 79, 0
7, 244011, Note_on_c, 2, 83, 0
7, 244020, Note_on_c, 2, 79, 84
7, 244020, Note_on_c, 2, 83, 84
7, 244071, Note_on_c, 2, 79, 0
7, 244071, Note_on_c, 2, 83, 0
7, 244080, Note_on_c, 2, 83, 84
7, 244080, Note_on_c, 2, 79, 84
7, 244184, Note_on_c, 2, 83, 0
7, 244184, Note_on_c, 2, 79, 0
7, 244200, Note_on_c, 2, 83, 84
7, 244200, Note_on_c, 2, 79, 84
7, 244371, Note_on_c, 2, 83, 0
7, 244371, Note_on_c, 2, 79, 0
7, 244380, Note_on_c, 2, 79, 84
7, 244380, Note_on_c, 2, 83, 84
7, 244431, Note_on_c, 2, 79, 0
7, 244431, Note_on_c, 2, 83, 0
7, 244440, Note_on_c, 2, 79, 84
7, 244440, Note_on_c, 2, 83, 84
7, 244544, Note_on_c, 2, 79, 0
7, 244544, Note_on_c, 2, 83, 0
7, 244560, Note_on_c, 2, 79, 84
7, 244560, Note_on_c, 2, 83, 84
7, 244731, Note_on_c, 2, 79, 0
7, 244731, Note_on_c, 2, 83, 0
7, 244740, Note_on_c, 2, 83, 84
7, 244740, Note_on_c, 2, 79, 84
7, 244791, Note_on_c, 2, 83, 0
7, 244791, Note_on_c, 2, 79, 0
7, 244800, Note_on_c, 2, 79, 84
7, 244800, Note_on_c, 2, 83, 84
7, 244904, Note_on_c, 2, 79, 0
7, 244904, Note_on_c, 2, 83, 0
7, 244920, Note_on_c, 2, 79, 84
7, 244920, Note_on_c, 2, 83, 84
7, 245091, Note_on_c, 2, 79, 0
7, 245091, Note_on_c, 2, 83, 0
7, 245100, Note_on_c, 2, 79, 84
7, 245100, Note_on_c, 2, 83, 84
7, 245151, Note_on_c, 2, 79, 0
7, 245151, Note_on_c, 2, 83, 0
7, 245160, Note_on_c, 2, 79, 84
7, 245160, Note_on_c, 2, 83, 84
7, 245264, Note_on_c, 2, 79, 0
7, 245264, Note_on_c, 2, 83, 0
7, 245280, Note_on_c, 2, 77, 76
7, 245280, Note_on_c, 2, 83, 76
7, 248144, Note_on_c, 2, 77, 0
7, 248144, Note_on_c, 2, 83, 0
7, 248160, Note_on_c, 2, 83, 84
7, 248160, Note_on_c, 2, 76, 84
7, 248331, Note_on_c, 2, 83, 0
7, 248331, Note_on_c, 2, 76, 0
7, 248340, Note_on_c, 2, 80, 84
7, 248340, Note_on_c, 2, 76, 84
7, 248391, Note_on_c, 2, 80, 0
7, 248391, Note_on_c, 2, 76, 0
7, 248400, Note_on_c, 2, 80, 84
7, 248400, Note_on_c, 2, 76, 84
7, 248504, Note_on_c, 2, 80, 0
7, 248504, Note_on_c, 2, 76, 0
7, 248520, Note_on_c, 2, 76, 84
7, 248520, Note_on_c, 2, 80, 84
7, 248691, Note_on_c, 2, 76, 0
7, 248691, Note_on_c, 2, 80, 0
7, 248700, Note_on_c, 2, 80, 84
7, 248700, Note_on_c, 2, 76, 84
7, 248751, Note_on_c, 2, 80, 0
7, 248751, Note_on_c, 2, 76, 0
7, 248760, Note_on_c, 2, 80, 84
7, 248760, Note_on_c, 2, 76, 84
7, 248864, Note_on_c, 2, 80, 0
7, 248864, Note_on_c, 2, 76, 0
7, 248880, Note_on_c, 2, 76, 84
7, 248880, Note_on_c, 2, 80, 84
7, 249051, Note_on_c, 2, 76, 0
7, 249051, Note_on_c, 2, 80, 0
7, 249060, Note_on_c, 2, 80, 84
7, 249060, Note_on_c, 2, 76, 84
7, 249111, Note_on_c, 2, 80, 0
7, 249111, Note_on_c, 2, 76, 0
7, 249120, Note_on_c, 2, 76, 84
7, 249120, Note_on_c, 2, 80, 84
7, 249224, Note_on_c, 2, 76, 0
7, 249224, Note_on_c, 2, 80, 0
7, 249240, Note_on_c, 2, 80, 84
7, 249240, Note_on_c, 2, 76, 84
7, 249411, Note_on_c, 2, 80, 0
7, 249411, Note_on_c, 2, 76, 0
7, 249420, Note_on_c, 2, 80, 84
7, 249420, Note_on_c, 2, 76, 84
7, 249471, Note_on_c, 2, 80, 0
7, 249471, Note_on_c, 2, 76, 0
7, 249480, Note_on_c, 2, 76, 84
7, 249480, Note_on_c, 2, 80, 84
7, 249584, Note_on_c, 2, 76, 0
7, 249584, Note_on_c, 2, 80, 0
7, 249600, Note_on_c, 2, 80, 84
7, 249600, Note_on_c, 2, 76, 84
7, 252719, Note_on_c, 2, 80, 0
7, 252719, Note_on_c, 2, 76, 0
7, 252840, Note_on_c, 2, 76, 92
7, 252900, Control_c, 2, 11, 112
7, 253011, Note_on_c, 2, 76, 0
7, 253020, Note_on_c, 2, 76, 92
7, 253071, Note_on_c, 2, 76, 0
7, 253080, Note_on_c, 2, 76, 92
7, 253199, Note_on_c, 2, 76, 0
7, 253440, Control_c, 2, 11, 127
7, 253560, Note_on_c, 2, 77, 92
7, 253620, Control_c, 2, 11, 112
7, 253731, Note_on_c, 2, 77, 0
7, 253740, Note_on_c, 2, 77, 92
7, 253791, Note_on_c, 2, 77, 0
7, 253800, Note_on_c, 2, 77, 92
7, 253919, Note_on_c, 2, 77, 0
7, 254160, Control_c, 2, 11, 127
7, 254280, Note_on_c, 2, 77, 92
7, 254340, Control_c, 2, 11, 112
7, 254451, Note_on_c, 2, 77, 0
7, 254460, Note_on_c, 2, 77, 92
7, 254511, Note_on_c, 2, 77, 0
7, 254520, Note_on_c, 2, 77, 92
7, 254624, Note_on_c, 2, 77, 0
7, 254638, Control_c, 2, 11, 127
7, 254640, Note_on_c, 2, 77, 52
7, 256011, Note_on_c, 2, 77, 0
7, 256020, Note_on_c, 2, 81, 52
7, 256071, Note_on_c, 2, 81, 0
7, 256080, Note_on_c, 2, 81, 52
7, 256611, Note_on_c, 2, 81, 0
7, 256620, Note_on_c, 2, 79, 52
7, 256671, Note_on_c, 2, 79, 0
7, 256680, Note_on_c, 2, 77, 52
7, 256784, Note_on_c, 2, 77, 0
7, 256800, Note_on_c, 2, 79, 52
7, 257039, Note_on_c, 2, 79, 0
7, 257160, Note_on_c, 2, 77, 52
7, 257399, Note_on_c, 2, 77, 0
7, 257520, Note_on_c, 2, 70, 52
7, 257759, Note_on_c, 2, 70, 0
7, 257880, Note_on_c, 2, 69, 52
7, 258119, Note_on_c, 2, 69, 0
7, 260340, Note_on_c, 2, 74, 52
7, 260391, Note_on_c, 2, 74, 0
7, 260400, Note_on_c, 2, 74, 52
7, 260400, Note_on_c, 2, 70, 52
7, 260931, Note_on_c, 2, 74, 0
7, 260931, Note_on_c, 2, 70, 0
7, 260940, Note_on_c, 2, 74, 52
7, 260940, Note_on_c, 2, 69, 52
7, 260984, Note_on_c, 2, 74, 0
7, 260984, Note_on_c, 2, 69, 0
7, 261000, Note_on_c, 2, 67, 52
7, 261000, Note_on_c, 2, 74, 52
7, 261089, Note_on_c, 2, 67, 0
7, 261089, Note_on_c, 2, 74, 0
7, 261120, Note_on_c, 2, 62, 52
7, 261120, Note_on_c, 2, 74, 52
7, 261359, Note_on_c, 2, 62, 0
7, 261359, Note_on_c, 2, 74, 0
7, 261480, Note_on_c, 2, 67, 52
7, 261480, Note_on_c, 2, 74, 52
7, 261719, Note_on_c, 2, 67, 0
7, 261719, Note_on_c, 2, 74, 0
7, 261840, Note_on_c, 2, 72, 52
7, 261840, Note_on_c, 2, 62, 52
7, 262079, Note_on_c, 2, 72, 0
7, 262079, Note_on_c, 2, 62, 0
7, 262200, Note_on_c, 2, 70, 52
7, 262200, Note_on_c, 2, 62, 52
7, 262439, Note_on_c, 2, 70, 0
7, 262439, Note_on_c, 2, 62, 0
7, 262500, Note_on_c, 2, 81, 52
7, 262551, Note_on_c, 2, 81, 0
7, 262560, Note_on_c, 2, 81, 52
7, 263091, Note_on_c, 2, 81, 0
7, 263100, Note_on_c, 2, 79, 52
7, 263151, Note_on_c, 2, 79, 0
7, 263160, Note_on_c, 2, 77, 52
7, 263264, Note_on_c, 2, 77, 0
7, 263280, Note_on_c, 2, 79, 52
7, 263519, Note_on_c, 2, 79, 0
7, 263640, Note_on_c, 2, 77, 52
7, 263879, Note_on_c, 2, 77, 0
7, 264720, Note_on_c, 2, 79, 52
7, 264959, Note_on_c, 2, 79, 0
7, 265080, Note_on_c, 2, 77, 52
7, 265319, Note_on_c, 2, 77, 0
7, 267780, Note_on_c, 2, 82, 55
7, 267780, Note_on_c, 2, 70, 55
7, 267831, Note_on_c, 2, 82, 0
7, 267831, Note_on_c, 2, 70, 0
7, 267840, Note_on_c, 2, 70, 56
7, 267840, Note_on_c, 2, 82, 56
7, 267944, Note_on_c, 2, 70, 0
7, 267944, Note_on_c, 2, 82, 0
7, 267960, Note_on_c, 2, 82, 56
7, 267960, Note_on_c, 2, 70, 56
7, 268131, Note_on_c, 2, 82, 0
7, 268131, Note_on_c, 2, 70, 0
7, 268140, Note_on_c, 2, 70, 56
7, 268140, Note_on_c, 2, 82, 56
7, 268191, Note_on_c, 2, 70, 0
7, 268191, Note_on_c, 2, 82, 0
7, 268200, Note_on_c, 2, 70, 56
7, 268200, Note_on_c, 2, 82, 56
7, 268304, Note_on_c, 2, 70, 0
7, 268304, Note_on_c, 2, 82, 0
7, 268320, Note_on_c, 2, 70, 57
7, 268320, Note_on_c, 2, 82, 57
7, 268491, Note_on_c, 2, 70, 0
7, 268491, Note_on_c, 2, 82, 0
7, 268500, Note_on_c, 2, 70, 57
7, 268500, Note_on_c, 2, 82, 57
7, 268551, Note_on_c, 2, 70, 0
7, 268551, Note_on_c, 2, 82, 0
7, 268560, Note_on_c, 2, 82, 57
7, 268560, Note_on_c, 2, 70, 57
7, 268664, Note_on_c, 2, 82, 0
7, 268664, Note_on_c, 2, 70, 0
7, 268680, Note_on_c, 2, 70, 58
7, 268680, Note_on_c, 2, 82, 58
7, 268851, Note_on_c, 2, 70, 0
7, 268851, Note_on_c, 2, 82, 0
7, 268860, Note_on_c, 2, 70, 58
7, 268860, Note_on_c, 2, 82, 58
7, 268911, Note_on_c, 2, 70, 0
7, 268911, Note_on_c, 2, 82, 0
7, 268920, Note_on_c, 2, 70, 58
7, 268920, Note_on_c, 2, 82, 58
7, 269024, Note_on_c, 2, 70, 0
7, 269024, Note_on_c, 2, 82, 0
7, 269040, Note_on_c, 2, 70, 58
7, 269040, Note_on_c, 2, 82, 58
7, 269211, Note_on_c, 2, 70, 0
7, 269211, Note_on_c, 2, 82, 0
7, 269220, Note_on_c, 2, 70, 59
7, 269220, Note_on_c, 2, 82, 59
7, 269271, Note_on_c, 2, 70, 0
7, 269271, Note_on_c, 2, 82, 0
7, 269280, Note_on_c, 2, 82, 59
7, 269280, Note_on_c, 2, 70, 59
7, 269384, Note_on_c, 2, 82, 0
7, 269384, Note_on_c, 2, 70, 0
7, 269400, Note_on_c, 2, 82, 59
7, 269400, Note_on_c, 2, 70, 59
7, 269571, Note_on_c, 2, 82, 0
7, 269571, Note_on_c, 2, 70, 0
7, 269580, Note_on_c, 2, 82, 60
7, 269580, Note_on_c, 2, 70, 60
7, 269631, Note_on_c, 2, 82, 0
7, 269631, Note_on_c, 2, 70, 0
7, 269640, Note_on_c, 2, 70, 60
7, 269640, Note_on_c, 2, 82, 60
7, 269744, Note_on_c, 2, 70, 0
7, 269744, Note_on_c, 2, 82, 0
7, 269760, Note_on_c, 2, 70, 60
7, 269760, Note_on_c, 2, 82, 60
7, 269931, Note_on_c, 2, 70, 0
7, 269931, Note_on_c, 2, 82, 0
7, 269940, Note_on_c, 2, 70, 61
7, 269940, Note_on_c, 2, 82, 61
7, 269991, Note_on_c, 2, 70, 0
7, 269991, Note_on_c, 2, 82, 0
7, 270000, Note_on_c, 2, 82, 61
7, 270000, Note_on_c, 2, 70, 61
7, 270104, Note_on_c, 2, 82, 0
7, 270104, Note_on_c, 2, 70, 0
7, 270120, Note_on_c, 2, 70, 61
7, 270120, Note_on_c, 2, 82, 61
7, 270291, Note_on_c, 2, 70, 0
7, 270291, Note_on_c, 2, 82, 0
7, 270300, Note_on_c, 2, 70, 61
7, 270300, Note_on_c, 2, 82, 61
7, 270351, Note_on_c, 2, 70, 0
7, 270351, Note_on_c, 2, 82, 0
7, 270360, Note_on_c, 2, 82, 62
7, 270360, Note_on_c, 2, 70, 62
7, 270464, Note_on_c, 2, 82, 0
7, 270464, Note_on_c, 2, 70, 0
7, 270480, Note_on_c, 2, 82, 62
7, 270480, Note_on_c, 2, 70, 62
7, 270651, Note_on_c, 2, 82, 0
7, 270651, Note_on_c, 2, 70, 0
7, 270660, Note_on_c, 2, 72, 62
7, 270660, Note_on_c, 2, 82, 62
7, 270711, Note_on_c, 2, 72, 0
7, 270711, Note_on_c, 2, 82, 0
7, 270720, Note_on_c, 2, 72, 62
7, 270720, Note_on_c, 2, 82, 62
7, 270824, Note_on_c, 2, 72, 0
7, 270824, Note_on_c, 2, 82, 0
7, 270840, Note_on_c, 2, 82, 63
7, 270840, Note_on_c, 2, 72, 63
7, 271011, Note_on_c, 2, 82, 0
7, 271011, Note_on_c, 2, 72, 0
7, 271020, Note_on_c, 2, 72, 63
7, 271020, Note_on_c, 2, 82, 63
7, 271071, Note_on_c, 2, 72, 0
7, 271071, Note_on_c, 2, 82, 0
7, 271080, Note_on_c, 2, 82, 63
7, 271080, Note_on_c, 2, 72, 63
7, 271184, Note_on_c, 2, 82, 0
7, 271184, Note_on_c, 2, 72, 0
7, 271200, Note_on_c, 2, 82, 64
7, 271200, Note_on_c, 2, 72, 64
7, 271371, Note_on_c, 2, 82, 0
7, 271371, Note_on_c, 2, 72, 0
7, 271380, Note_on_c, 2, 82, 64
7, 271380, Note_on_c, 2, 72, 64
7, 271431, Note_on_c, 2, 82, 0
7, 271431, Note_on_c, 2, 72, 0
7, 271440, Note_on_c, 2, 72, 64
7, 271440, Note_on_c, 2, 82, 64
7, 271544, Note_on_c, 2, 72, 0
7, 271544, Note_on_c, 2, 82, 0
7, 271560, Note_on_c, 2, 82, 64
7, 271560, Note_on_c, 2, 72, 64
7, 271731, Note_on_c, 2, 82, 0
7, 271731, Note_on_c, 2, 72, 0
7, 271740, Note_on_c, 2, 72, 65
7, 271740, Note_on_c, 2, 82, 65
7, 271791, Note_on_c, 2, 72, 0
7, 271791, Note_on_c, 2, 82, 0
7, 271800, Note_on_c, 2, 82, 65
7, 271800, Note_on_c, 2, 72, 65
7, 271904, Note_on_c, 2, 82, 0
7, 271904, Note_on_c, 2, 72, 0
7, 271920, Note_on_c, 2, 82, 65
7, 271920, Note_on_c, 2, 72, 65
7, 272091, Note_on_c, 2, 82, 0
7, 272091, Note_on_c, 2, 72, 0
7, 272100, Note_on_c, 2, 72, 66
7, 272100, Note_on_c, 2, 82, 66
7, 272151, Note_on_c, 2, 72, 0
7, 272151, Note_on_c, 2, 82, 0
7, 272160, Note_on_c, 2, 82, 66
7, 272160, Note_on_c, 2, 72, 66
7, 272264, Note_on_c, 2, 82, 0
7, 272264, Note_on_c, 2, 72, 0
7, 272280, Note_on_c, 2, 82, 66
7, 272280, Note_on_c, 2, 72, 66
7, 272451, Note_on_c, 2, 82, 0
7, 272451, Note_on_c, 2, 72, 0
7, 272460, Note_on_c, 2, 72, 67
7, 272460, Note_on_c, 2, 82, 67
7, 272511, Note_on_c, 2, 72, 0
7, 272511, Note_on_c, 2, 82, 0
7, 272520, Note_on_c, 2, 72, 67
7, 272520, Note_on_c, 2, 82, 67
7, 272624, Note_on_c, 2, 72, 0
7, 272624, Note_on_c, 2, 82, 0
7, 272640, Note_on_c, 2, 72, 67
7, 272640, Note_on_c, 2, 82, 67
7, 272811, Note_on_c, 2, 72, 0
7, 272811, Note_on_c, 2, 82, 0
7, 272820, Note_on_c, 2, 82, 67
7, 272820, Note_on_c, 2, 72, 67
7, 272871, Note_on_c, 2, 82, 0
7, 272871, Note_on_c, 2, 72, 0
7, 272880, Note_on_c, 2, 82, 68
7, 272880, Note_on_c, 2, 72, 68
7, 272984, Note_on_c, 2, 82, 0
7, 272984, Note_on_c, 2, 72, 0
7, 273000, Note_on_c, 2, 72, 68
7, 273000, Note_on_c, 2, 82, 68
7, 273171, Note_on_c, 2, 72, 0
7, 273171, Note_on_c, 2, 82, 0
7, 273180, Note_on_c, 2, 82, 68
7, 273180, Note_on_c, 2, 72, 68
7, 273231, Note_on_c, 2, 82, 0
7, 273231, Note_on_c, 2, 72, 0
7, 273240, Note_on_c, 2, 72, 68
7, 273240, Note_on_c, 2, 82, 68
7, 273344, Note_on_c, 2, 72, 0
7, 273344, Note_on_c, 2, 82, 0
7, 273360, Note_on_c, 2, 72, 69
7, 273360, Note_on_c, 2, 84, 69
7, 273531, Note_on_c, 2, 72, 0
7, 273531, Note_on_c, 2, 84, 0
7, 273540, Note_on_c, 2, 84, 69
7, 273540, Note_on_c, 2, 74, 69
7, 273591, Note_on_c, 2, 84, 0
7, 273591, Note_on_c, 2, 74, 0
7, 273600, Note_on_c, 2, 84, 69
7, 273600, Note_on_c, 2, 74, 69
7, 273704, Note_on_c, 2, 84, 0
7, 273704, Note_on_c, 2, 74, 0
7, 273720, Note_on_c, 2, 74, 70
7, 273720, Note_on_c, 2, 84, 70
7, 273891, Note_on_c, 2, 74, 0
7, 273891, Note_on_c, 2, 84, 0
7, 273900, Note_on_c, 2, 74, 70
7, 273900, Note_on_c, 2, 84, 70
7, 273951, Note_on_c, 2, 74, 0
7, 273951, Note_on_c, 2, 84, 0
7, 273960, Note_on_c, 2, 74, 70
7, 273960, Note_on_c, 2, 84, 70
7, 274064, Note_on_c, 2, 74, 0
7, 274064, Note_on_c, 2, 84, 0
7, 274080, Note_on_c, 2, 84, 70
7, 274080, Note_on_c, 2, 74, 70
7, 274251, Note_on_c, 2, 84, 0
7, 274251, Note_on_c, 2, 74, 0
7, 274260, Note_on_c, 2, 84, 71
7, 274260, Note_on_c, 2, 74, 71
7, 274311, Note_on_c, 2, 84, 0
7, 274311, Note_on_c, 2, 74, 0
7, 274320, Note_on_c, 2, 84, 71
7, 274320, Note_on_c, 2, 74, 71
7, 274424, Note_on_c, 2, 84, 0
7, 274424, Note_on_c, 2, 74, 0
7, 274440, Note_on_c, 2, 84, 71
7, 274440, Note_on_c, 2, 74, 71
7, 274611, Note_on_c, 2, 84, 0
7, 274611, Note_on_c, 2, 74, 0
7, 274620, Note_on_c, 2, 84, 72
7, 274620, Note_on_c, 2, 74, 72
7, 274671, Note_on_c, 2, 84, 0
7, 274671, Note_on_c, 2, 74, 0
7, 274680, Note_on_c, 2, 84, 72
7, 274680, Note_on_c, 2, 74, 72
7, 274784, Note_on_c, 2, 84, 0
7, 274784, Note_on_c, 2, 74, 0
7, 274800, Note_on_c, 2, 84, 72
7, 274800, Note_on_c, 2, 74, 72
7, 274971, Note_on_c, 2, 84, 0
7, 274971, Note_on_c, 2, 74, 0
7, 274980, Note_on_c, 2, 74, 73
7, 274980, Note_on_c, 2, 84, 73
7, 275031, Note_on_c, 2, 74, 0
7, 275031, Note_on_c, 2, 84, 0
7, 275040, Note_on_c, 2, 74, 73
7, 275040, Note_on_c, 2, 84, 73
7, 275144, Note_on_c, 2, 74, 0
7, 275144, Note_on_c, 2, 84, 0
7, 275160, Note_on_c, 2, 84, 73
7, 275160, Note_on_c, 2, 74, 73
7, 275331, Note_on_c, 2, 84, 0
7, 275331, Note_on_c, 2, 74, 0
7, 275340, Note_on_c, 2, 84, 73
7, 275340, Note_on_c, 2, 74, 73
7, 275391, Note_on_c, 2, 84, 0
7, 275391, Note_on_c, 2, 74, 0
7, 275400, Note_on_c, 2, 84, 74
7, 275400, Note_on_c, 2, 74, 74
7, 275504, Note_on_c, 2, 84, 0
7, 275504, Note_on_c, 2, 74, 0
7, 275520, Note_on_c, 2, 74, 74
7, 275520, Note_on_c, 2, 84, 74
7, 275691, Note_on_c, 2, 74, 0
7, 275691, Note_on_c, 2, 84, 0
7, 275700, Note_on_c, 2, 74, 74
7, 275700, Note_on_c, 2, 84, 74
7, 275751, Note_on_c, 2, 74, 0
7, 275751, Note_on_c, 2, 84, 0
7, 275760, Note_on_c, 2, 84, 74
7, 275760, Note_on_c, 2, 74, 74
7, 275864, Note_on_c, 2, 84, 0
7, 275864, Note_on_c, 2, 74, 0
7, 275880, Note_on_c, 2, 84, 75
7, 275880, Note_on_c, 2, 74, 75
7, 276051, Note_on_c, 2, 84, 0
7, 276051, Note_on_c, 2, 74, 0
7, 276060, Note_on_c, 2, 74, 75
7, 276060, Note_on_c, 2, 84, 75
7, 276111, Note_on_c, 2, 74, 0
7, 276111, Note_on_c, 2, 84, 0
7, 276120, Note_on_c, 2, 74, 75
7, 276120, Note_on_c, 2, 84, 75
7, 276224, Note_on_c, 2, 74, 0
7, 276224, Note_on_c, 2, 84, 0
7, 276240, Note_on_c, 2, 74, 76
7, 276240, Note_on_c, 2, 86, 76
7, 276479, Note_on_c, 2, 74, 0
7, 276479, Note_on_c, 2, 86, 0
7, 276600, Note_on_c, 2, 74, 76
7, 276600, Note_on_c, 2, 79, 76
7, 276719, Note_on_c, 2, 74, 0
7, 276719, Note_on_c, 2, 79, 0
7, 276780, Note_on_c, 2, 79, 76
7, 276780, Note_on_c, 2, 74, 76
7, 276831, Note_on_c, 2, 79, 0
7, 276831, Note_on_c, 2, 74, 0
7, 276840, Note_on_c, 2, 79, 76
7, 276840, Note_on_c, 2, 73, 76
7, 276944, Note_on_c, 2, 79, 0
7, 276944, Note_on_c, 2, 73, 0
7, 276960, Note_on_c, 2, 79, 76
7, 276960, Note_on_c, 2, 74, 76
7, 277199, Note_on_c, 2, 79, 0
7, 277199, Note_on_c, 2, 74, 0
7, 277320, Note_on_c, 2, 74, 76
7, 277320, Note_on_c, 2, 79, 76
7, 277439, Note_on_c, 2, 74, 0
7, 277439, Note_on_c, 2, 79, 0
7, 277500, Note_on_c, 2, 79, 76
7, 277500, Note_on_c, 2, 74, 76
7, 277551, Note_on_c, 2, 79, 0
7, 277551, Note_on_c, 2, 74, 0
7, 277560, Note_on_c, 2, 75, 76
7, 277560, Note_on_c, 2, 79, 76
7, 277664, Note_on_c, 2, 75, 0
7, 277664, Note_on_c, 2, 79, 0
7, 277680, Note_on_c, 2, 76, 76
7, 277680, Note_on_c, 2, 79, 76
7, 277919, Note_on_c, 2, 76, 0
7, 277919, Note_on_c, 2, 79, 0
7, 278040, Note_on_c, 2, 76, 76
7, 278040, Note_on_c, 2, 79, 76
7, 278159, Note_on_c, 2, 76, 0
7, 278159, Note_on_c, 2, 79, 0
7, 278220, Note_on_c, 2, 76, 76
7, 278220, Note_on_c, 2, 79, 76
7, 278271, Note_on_c, 2, 76, 0
7, 278271, Note_on_c, 2, 79, 0
7, 278280, Note_on_c, 2, 79, 76
7, 278280, Note_on_c, 2, 75, 76
7, 278384, Note_on_c, 2, 79, 0
7, 278384, Note_on_c, 2, 75, 0
7, 278400, Note_on_c, 2, 76, 76
7, 278400, Note_on_c, 2, 79, 76
7, 278639, Note_on_c, 2, 76, 0
7, 278639, Note_on_c, 2, 79, 0
7, 278760, Note_on_c, 2, 76, 76
7, 278879, Note_on_c, 2, 76, 0
7, 278940, Note_on_c, 2, 76, 76
7, 278940, Note_on_c, 2, 81, 76
7, 278991, Note_on_c, 2, 76, 0
7, 278991, Note_on_c, 2, 81, 0
7, 279000, Note_on_c, 2, 76, 76
7, 279000, Note_on_c, 2, 81, 76
7, 279104, Note_on_c, 2, 76, 0
7, 279104, Note_on_c, 2, 81, 0
7, 279120, Note_on_c, 2, 81, 84
7, 279120, Note_on_c, 2, 77, 84
7, 279239, Note_on_c, 2, 81, 0
7, 279239, Note_on_c, 2, 77, 0
7, 279300, Note_on_c, 2, 69, 84
7, 279300, Note_on_c, 2, 81, 84
7, 279351, Note_on_c, 2, 69, 0
7, 279351, Note_on_c, 2, 81, 0
7, 279360, Note_on_c, 2, 69, 84
7, 279360, Note_on_c, 2, 81, 84
7, 279464, Note_on_c, 2, 69, 0
7, 279464, Note_on_c, 2, 81, 0
7, 279480, Note_on_c, 2, 81, 84
7, 279480, Note_on_c, 2, 69, 84
7, 279599, Note_on_c, 2, 81, 0
7, 279599, Note_on_c, 2, 69, 0
7, 279660, Note_on_c, 2, 81, 84
7, 279660, Note_on_c, 2, 69, 84
7, 279711, Note_on_c, 2, 81, 0
7, 279711, Note_on_c, 2, 69, 0
7, 279720, Note_on_c, 2, 69, 84
7, 279720, Note_on_c, 2, 81, 84
7, 279824, Note_on_c, 2, 69, 0
7, 279824, Note_on_c, 2, 81, 0
7, 279840, Note_on_c, 2, 81, 84
7, 279840, Note_on_c, 2, 69, 84
7, 279959, Note_on_c, 2, 81, 0
7, 279959, Note_on_c, 2, 69, 0
7, 280020, Note_on_c, 2, 69, 84
7, 280020, Note_on_c, 2, 81, 84
7, 280071, Note_on_c, 2, 69, 0
7, 280071, Note_on_c, 2, 81, 0
7, 280080, Note_on_c, 2, 81, 84
7, 280080, Note_on_c, 2, 69, 84
7, 280184, Note_on_c, 2, 81, 0
7, 280184, Note_on_c, 2, 69, 0
7, 280200, Note_on_c, 2, 81, 84
7, 280200, Note_on_c, 2, 69, 84
7, 280319, Note_on_c, 2, 81, 0
7, 280319, Note_on_c, 2, 69, 0
7, 280380, Note_on_c, 2, 81, 84
7, 280380, Note_on_c, 2, 69, 84
7, 280431, Note_on_c, 2, 81, 0
7, 280431, Note_on_c, 2, 69, 0
7, 280440, Note_on_c, 2, 81, 84
7, 280440, Note_on_c, 2, 69, 84
7, 280544, Note_on_c, 2, 81, 0
7, 280544, Note_on_c, 2, 69, 0
7, 280560, Note_on_c, 2, 69, 84
7, 280560, Note_on_c, 2, 81, 84
7, 280679, Note_on_c, 2, 69, 0
7, 280679, Note_on_c, 2, 81, 0
7, 280740, Note_on_c, 2, 65, 84
7, 280740, Note_on_c, 2, 77, 84
7, 280791, Note_on_c, 2, 65, 0
7, 280791, Note_on_c, 2, 77, 0
7, 280800, Note_on_c, 2, 67, 84
7, 280800, Note_on_c, 2, 79, 84
7, 280904, Note_on_c, 2, 67, 0
7, 280904, Note_on_c, 2, 79, 0
7, 280920, Note_on_c, 2, 81, 84
7, 280920, Note_on_c, 2, 69, 84
7, 281039, Note_on_c, 2, 81, 0
7, 281039, Note_on_c, 2, 69, 0
7, 281100, Note_on_c, 2, 62, 84
7, 281100, Note_on_c, 2, 74, 84
7, 281151, Note_on_c, 2, 62, 0
7, 281151, Note_on_c, 2, 74, 0
7, 281160, Note_on_c, 2, 76, 84
7, 281160, Note_on_c, 2, 64, 84
7, 281264, Note_on_c, 2, 76, 0
7, 281264, Note_on_c, 2, 64, 0
7, 281280, Note_on_c, 2, 65, 84
7, 281280, Note_on_c, 2, 77, 84
7, 281399, Note_on_c, 2, 65, 0
7, 281399, Note_on_c, 2, 77, 0
7, 281460, Note_on_c, 2, 65, 84
7, 281511, Note_on_c, 2, 65, 0
7, 281520, Note_on_c, 2, 67, 84
7, 281624, Note_on_c, 2, 67, 0
7, 281640, Note_on_c, 2, 69, 84
7, 281759, Note_on_c, 2, 69, 0
7, 281820, Note_on_c, 2, 81, 84
7, 281820, Note_on_c, 2, 69, 84
7, 281871, Note_on_c, 2, 81, 0
7, 281871, Note_on_c, 2, 69, 0
7, 281880, Note_on_c, 2, 81, 84
7, 281880, Note_on_c, 2, 69, 84
7, 281984, Note_on_c, 2, 81, 0
7, 281984, Note_on_c, 2, 69, 0
7, 282000, Note_on_c, 2, 81, 84
7, 282000, Note_on_c, 2, 69, 84
7, 282119, Note_on_c, 2, 81, 0
7, 282119, Note_on_c, 2, 69, 0
7, 282180, Note_on_c, 2, 81, 84
7, 282180, Note_on_c, 2, 69, 84
7, 282231, Note_on_c, 2, 81, 0
7, 282231, Note_on_c, 2, 69, 0
7, 282240, Note_on_c, 2, 81, 84
7, 282240, Note_on_c, 2, 69, 84
7, 282344, Note_on_c, 2, 81, 0
7, 282344, Note_on_c, 2, 69, 0
7, 282360, Note_on_c, 2, 81, 84
7, 282360, Note_on_c, 2, 69, 84
7, 282479, Note_on_c, 2, 81, 0
7, 282479, Note_on_c, 2, 69, 0
7, 282540, Note_on_c, 2, 81, 84
7, 282540, Note_on_c, 2, 69, 84
7, 282591, Note_on_c, 2, 81, 0
7, 282591, Note_on_c, 2, 69, 0
7, 282600, Note_on_c, 2, 81, 84
7, 282600, Note_on_c, 2, 69, 84
7, 282704, Note_on_c, 2, 81, 0
7, 282704, Note_on_c, 2, 69, 0
7, 282720, Note_on_c, 2, 69, 84
7, 282720, Note_on_c, 2, 81, 84
7, 282839, Note_on_c, 2, 69, 0
7, 282839, Note_on_c, 2, 81, 0
7, 282900, Note_on_c, 2, 81, 84
7, 282900, Note_on_c, 2, 69, 84
7, 282951, Note_on_c, 2, 81, 0
7, 282951, Note_on_c, 2, 69, 0
7, 282960, Note_on_c, 2, 81, 84
7, 282960, Note_on_c, 2, 69, 84
7, 283064, Note_on_c, 2, 81, 0
7, 283064, Note_on_c, 2, 69, 0
7, 283080, Note_on_c, 2, 69, 84
7, 283080, Note_on_c, 2, 81, 84
7, 283199, Note_on_c, 2, 69, 0
7, 283199, Note_on_c, 2, 81, 0
7, 283260, Note_on_c, 2, 81, 84
7, 283260, Note_on_c, 2, 69, 84
7, 283311, Note_on_c, 2, 81, 0
7, 283311, Note_on_c, 2, 69, 0
7, 283320, Note_on_c, 2, 81, 84
7, 283320, Note_on_c, 2, 69, 84
7, 283424, Note_on_c, 2, 81, 0
7, 283424, Note_on_c, 2, 69, 0
7, 283440, Note_on_c, 2, 69, 84
7, 283440, Note_on_c, 2, 81, 84
7, 283559, Note_on_c, 2, 69, 0
7, 283559, Note_on_c, 2, 81, 0
7, 283620, Note_on_c, 2, 72, 84
7, 283671, Note_on_c, 2, 72, 0
7, 283680, Note_on_c, 2, 74, 84
7, 283784, Note_on_c, 2, 74, 0
7, 283800, Note_on_c, 2, 76, 84
7, 283919, Note_on_c, 2, 76, 0
7, 283980, Note_on_c, 2, 69, 84
7, 283980, Note_on_c, 2, 81, 84
7, 284031, Note_on_c, 2, 69, 0
7, 284031, Note_on_c, 2, 81, 0
7, 284040, Note_on_c, 2, 83, 84
7, 284040, Note_on_c, 2, 71, 84
7, 284144, Note_on_c, 2, 83, 0
7, 284144, Note_on_c, 2, 71, 0
7, 284160, Note_on_c, 2, 72, 84
7, 284160, Note_on_c, 2, 84, 84
7, 284279, Note_on_c, 2, 72, 0
7, 284279, Note_on_c, 2, 84, 0
7, 284340, Note_on_c, 2, 72, 84
7, 284391, Note_on_c, 2, 72, 0
7, 284400, Note_on_c, 2, 74, 84
7, 284504, Note_on_c, 2, 74, 0
7, 284520, Note_on_c, 2, 76, 84
7, 284639, Note_on_c, 2, 76, 0
7, 284700, Note_on_c, 2, 76, 84
7, 284751, Note_on_c, 2, 76, 0
7, 284760, Note_on_c, 2, 76, 84
7, 284864, Note_on_c, 2, 76, 0
7, 284880, Note_on_c, 2, 74, 84
7, 284999, Note_on_c, 2, 74, 0
7, 285060, Note_on_c, 2, 74, 84
7, 285111, Note_on_c, 2, 74, 0
7, 285120, Note_on_c, 2, 73, 84
7, 285224, Note_on_c, 2, 73, 0
7, 285240, Note_on_c, 2, 74, 84
7, 285359, Note_on_c, 2, 74, 0
7, 285420, Note_on_c, 2, 74, 84
7, 285471, Note_on_c, 2, 74, 0
7, 285480, Note_on_c, 2, 73, 84
7, 285584, Note_on_c, 2, 73, 0
7, 285600, Note_on_c, 2, 74, 84
7, 285719, Note_on_c, 2, 74, 0
7, 285780, Note_on_c, 2, 74, 84
7, 285831, Note_on_c, 2, 74, 0
7, 285840, Note_on_c, 2, 73, 84
7, 285944, Note_on_c, 2, 73, 0
7, 285960, Note_on_c, 2, 74, 84
7, 286079, Note_on_c, 2, 74, 0
7, 286140, Note_on_c, 2, 74, 84
7, 286191, Note_on_c, 2, 74, 0
7, 286200, Note_on_c, 2, 73, 84
7, 286304, Note_on_c, 2, 73, 0
7, 286320, Note_on_c, 2, 74, 84
7, 286439, Note_on_c, 2, 74, 0
7, 286500, Note_on_c, 2, 74, 84
7, 286551, Note_on_c, 2, 74, 0
7, 286560, Note_on_c, 2, 76, 84
7, 286664, Note_on_c, 2, 76, 0
7, 286680, Note_on_c, 2, 77, 84
7, 286919, Note_on_c, 2, 77, 0
7, 287220, Note_on_c, 2, 71, 84
7, 287220, Note_on_c, 2, 83, 84
7, 287271, Note_on_c, 2, 71, 0
7, 287271, Note_on_c, 2, 83, 0
7, 287280, Note_on_c, 2, 84, 84
7, 287280, Note_on_c, 2, 72, 84
7, 287384, Note_on_c, 2, 84, 0
7, 287384, Note_on_c, 2, 72, 0
7, 287400, Note_on_c, 2, 86, 84
7, 287400, Note_on_c, 2, 74, 84
7, 287639, Note_on_c, 2, 86, 0
7, 287639, Note_on_c, 2, 74, 0
7, 287940, Note_on_c, 2, 80, 84
7, 287940, Note_on_c, 2, 68, 84
7, 287991, Note_on_c, 2, 80, 0
7, 287991, Note_on_c, 2, 68, 0
7, 288000, Note_on_c, 2, 69, 84
7, 288000, Note_on_c, 2, 81, 84
7, 288104, Note_on_c, 2, 69, 0
7, 288104, Note_on_c, 2, 81, 0
7, 288120, Note_on_c, 2, 71, 84
7, 288120, Note_on_c, 2, 83, 84
7, 288359, Note_on_c, 2, 71, 0
7, 288359, Note_on_c, 2, 83, 0
7, 288660, Note_on_c, 2, 71, 84
7, 288660, Note_on_c, 2, 83, 84
7, 288711, Note_on_c, 2, 71, 0
7, 288711, Note_on_c, 2, 83, 0
7, 288720, Note_on_c, 2, 84, 84
7, 288720, Note_on_c, 2, 72, 84
7, 288824, Note_on_c, 2, 84, 0
7, 288824, Note_on_c, 2, 72, 0
7, 288840, Note_on_c, 2, 86, 84
7, 288840, Note_on_c, 2, 74, 84
7, 289079, Note_on_c, 2, 86, 0
7, 289079, Note_on_c, 2, 74, 0
7, 294960, Note_on_c, 2, 85, 88
7, 294960, Note_on_c, 2, 73, 88
7, 295131, Note_on_c, 2, 85, 0
7, 295131, Note_on_c, 2, 73, 0
7, 295140, Note_on_c, 2, 73, 88
7, 295140, Note_on_c, 2, 85, 88
7, 295191, Note_on_c, 2, 73, 0
7, 295191, Note_on_c, 2, 85, 0
7, 295200, Note_on_c, 2, 73, 88
7, 295200, Note_on_c, 2, 85, 88
7, 295304, Note_on_c, 2, 73, 0
7, 295304, Note_on_c, 2, 85, 0
7, 295320, Note_on_c, 2, 73, 88
7, 295320, Note_on_c, 2, 85, 88
7, 295491, Note_on_c, 2, 73, 0
7, 295491, Note_on_c, 2, 85, 0
7, 295500, Note_on_c, 2, 85, 88
7, 295500, Note_on_c, 2, 73, 88
7, 295551, Note_on_c, 2, 85, 0
7, 295551, Note_on_c, 2, 73, 0
7, 295560, Note_on_c, 2, 73, 88
7, 295560, Note_on_c, 2, 85, 88
7, 295664, Note_on_c, 2, 73, 0
7, 295664, Note_on_c, 2, 85, 0
7, 295680, Note_on_c, 2, 85, 88
7, 295680, Note_on_c, 2, 73, 88
7, 295851, Note_on_c, 2, 85, 0
7, 295851, Note_on_c, 2, 73, 0
7, 295860, Note_on_c, 2, 85, 88
7, 295860, Note_on_c, 2, 73, 88
7, 295911, Note_on_c, 2, 85, 0
7, 295911, Note_on_c, 2, 73, 0
7, 295920, Note_on_c, 2, 85, 88
7, 295920, Note_on_c, 2, 73, 88
7, 296024, Note_on_c, 2, 85, 0
7, 296024, Note_on_c, 2, 73, 0
7, 296040, Note_on_c, 2, 85, 88
7, 296040, Note_on_c, 2, 73, 88
7, 296211, Note_on_c, 2, 85, 0
7, 296211, Note_on_c, 2, 73, 0
7, 296220, Note_on_c, 2, 85, 88
7, 296220, Note_on_c, 2, 73, 88
7, 296271, Note_on_c, 2, 85, 0
7, 296271, Note_on_c, 2, 73, 0
7, 296280, Note_on_c, 2, 85, 88
7, 296280, Note_on_c, 2, 73, 88
7, 296384, Note_on_c, 2, 85, 0
7, 296384, Note_on_c, 2, 73, 0
7, 296400, Note_on_c, 2, 85, 84
7, 296400, Note_on_c, 2, 73, 84
7, 296639, Note_on_c, 2, 85, 0
7, 296639, Note_on_c, 2, 73, 0
7, 297780, Note_on_c, 2, 73, 84
7, 297780, Note_on_c, 2, 85, 84
7, 297831, Note_on_c, 2, 73, 0
7, 297831, Note_on_c, 2, 85, 0
7, 297840, Note_on_c, 2, 73, 84
7, 297840, Note_on_c, 2, 85, 84
7, 298079, Note_on_c, 2, 73, 0
7, 298079, Note_on_c, 2, 85, 0
7, 299220, Note_on_c, 2, 85, 84
7, 299220, Note_on_c, 2, 73, 84
7, 299271, Note_on_c, 2, 85, 0
7, 299271, Note_on_c, 2, 73, 0
7, 299280, Note_on_c, 2, 73, 84
7, 299280, Note_on_c, 2, 85, 84
7, 299519, Note_on_c, 2, 73, 0
7, 299519, Note_on_c, 2, 85, 0
7, 300660, Note_on_c, 2, 81, 84
7, 300660, Note_on_c, 2, 73, 84
7, 300711, Note_on_c, 2, 81, 0
7, 300711, Note_on_c, 2, 73, 0
7, 300720, Note_on_c, 2, 81, 84
7, 300720, Note_on_c, 2, 73, 84
7, 300959, Note_on_c, 2, 81, 0
7, 300959, Note_on_c, 2, 73, 0
7, 301020, Note_on_c, 2, 73, 84
7, 301020, Note_on_c, 2, 81, 84
7, 301071, Note_on_c, 2, 73, 0
7, 301071, Note_on_c, 2, 81, 0
7, 301080, Note_on_c, 2, 81, 84
7, 301080, Note_on_c, 2, 73, 84
7, 301319, Note_on_c, 2, 81, 0
7, 301319, Note_on_c, 2, 73, 0
7, 301380, Note_on_c, 2, 80, 84
7, 301380, Note_on_c, 2, 71, 84
7, 301431, Note_on_c, 2, 80, 0
7, 301431, Note_on_c, 2, 71, 0
7, 301440, Note_on_c, 2, 73, 84
7, 301440, Note_on_c, 2, 81, 84
7, 301679, Note_on_c, 2, 73, 0
7, 301679, Note_on_c, 2, 81, 0
7, 301740, Note_on_c, 2, 78, 84
7, 301740, Note_on_c, 2, 86, 84
7, 301791, Note_on_c, 2, 78, 0
7, 301791, Note_on_c, 2, 86, 0
7, 301800, Note_on_c, 2, 86, 84
7, 301800, Note_on_c, 2, 78, 84
7, 302039, Note_on_c, 2, 86, 0
7, 302039, Note_on_c, 2, 78, 0
7, 302100, Note_on_c, 2, 78, 84
7, 302100, Note_on_c, 2, 86, 84
7, 302151, Note_on_c, 2, 78, 0
7, 302151, Note_on_c, 2, 86, 0
7, 302160, Note_on_c, 2, 86, 84
7, 302160, Note_on_c, 2, 78, 84
7, 302399, Note_on_c, 2, 86, 0
7, 302399, Note_on_c, 2, 78, 0
7, 303480, Note_on_c, 2, 76, 84
7, 303569, Note_on_c, 2, 76, 0
7, 303600, Note_on_c, 2, 78, 92
7, 303719, Note_on_c, 2, 78, 0
7, 303720, Note_on_c, 2, 76, 84
7, 303824, Note_on_c, 2, 76, 0
7, 303840, Note_on_c, 2, 73, 84
7, 303929, Note_on_c, 2, 73, 0
7, 303960, Note_on_c, 2, 69, 84
7, 304199, Note_on_c, 2, 69, 0
7, 304260, Note_on_c, 2, 76, 84
7, 304260, Note_on_c, 2, 85, 84
7, 304311, Note_on_c, 2, 76, 0
7, 304311, Note_on_c, 2, 85, 0
7, 304320, Note_on_c, 2, 78, 84
7, 304320, Note_on_c, 2, 86, 84
7, 304559, Note_on_c, 2, 78, 0
7, 304559, Note_on_c, 2, 86, 0
7, 305640, Note_on_c, 2, 76, 84
7, 305729, Note_on_c, 2, 76, 0
7, 305760, Note_on_c, 2, 78, 92
7, 305879, Note_on_c, 2, 78, 0
7, 305880, Note_on_c, 2, 76, 84
7, 305984, Note_on_c, 2, 76, 0
7, 306000, Note_on_c, 2, 73, 84
7, 306089, Note_on_c, 2, 73, 0
7, 306120, Note_on_c, 2, 69, 84
7, 306359, Note_on_c, 2, 69, 0
7, 306420, Note_on_c, 2, 76, 84
7, 306420, Note_on_c, 2, 81, 84
7, 306471, Note_on_c, 2, 76, 0
7, 306471, Note_on_c, 2, 81, 0
7, 306480, Note_on_c, 2, 80, 84
7, 306480, Note_on_c, 2, 76, 84
7, 306719, Note_on_c, 2, 80, 0
7, 306719, Note_on_c, 2, 76, 0
7, 307140, Note_on_c, 2, 81, 84
7, 307140, Note_on_c, 2, 76, 84
7, 307191, Note_on_c, 2, 81, 0
7, 307191, Note_on_c, 2, 76, 0
7, 307200, Note_on_c, 2, 80, 84
7, 307200, Note_on_c, 2, 76, 84
7, 307439, Note_on_c, 2, 80, 0
7, 307439, Note_on_c, 2, 76, 0
7, 307860, Note_on_c, 2, 81, 84
7, 307860, Note_on_c, 2, 76, 84
7, 307911, Note_on_c, 2, 81, 0
7, 307911, Note_on_c, 2, 76, 0
7, 307920, Note_on_c, 2, 80, 84
7, 307920, Note_on_c, 2, 76, 84
7, 308159, Note_on_c, 2, 80, 0
7, 308159, Note_on_c, 2, 76, 0
7, 308580, Note_on_c, 2, 81, 84
7, 308580, Note_on_c, 2, 76, 84
7, 308631, Note_on_c, 2, 81, 0
7, 308631, Note_on_c, 2, 76, 0
7, 308640, Note_on_c, 2, 80, 84
7, 308640, Note_on_c, 2, 76, 84
7, 308879, Note_on_c, 2, 80, 0
7, 308879, Note_on_c, 2, 76, 0
7, 309300, Note_on_c, 2, 81, 84
7, 309300, Note_on_c, 2, 76, 84
7, 309351, Note_on_c, 2, 81, 0
7, 309351, Note_on_c, 2, 76, 0
7, 309360, Note_on_c, 2, 76, 84
7, 309360, Note_on_c, 2, 81, 84
7, 309599, Note_on_c, 2, 76, 0
7, 309599, Note_on_c, 2, 81, 0
7, 310020, Note_on_c, 2, 76, 84
7, 310020, Note_on_c, 2, 82, 84
7, 310071, Note_on_c, 2, 76, 0
7, 310071, Note_on_c, 2, 82, 0
7, 310080, Note_on_c, 2, 76, 84
7, 310080, Note_on_c, 2, 83, 84
7, 310319, Note_on_c, 2, 76, 0
7, 310319, Note_on_c, 2, 83, 0
7, 310380, Note_on_c, 2, 76, 84
7, 310380, Note_on_c, 2, 83, 84
7, 310431, Note_on_c, 2, 76, 0
7, 310431, Note_on_c, 2, 83, 0
7, 310440, Note_on_c, 2, 76, 84
7, 310440, Note_on_c, 2, 83, 84
7, 310679, Note_on_c, 2, 76, 0
7, 310679, Note_on_c, 2, 83, 0
7, 310740, Note_on_c, 2, 76, 84
7, 310740, Note_on_c, 2, 83, 84
7, 310791, Note_on_c, 2, 76, 0
7, 310791, Note_on_c, 2, 83, 0
7, 310800, Note_on_c, 2, 76, 84
7, 310800, Note_on_c, 2, 83, 84
7, 311039, Note_on_c, 2, 76, 0
7, 311039, Note_on_c, 2, 83, 0
7, 311100, Note_on_c, 2, 76, 84
7, 311100, Note_on_c, 2, 83, 84
7, 311151, Note_on_c, 2, 76, 0
7, 311151, Note_on_c, 2, 83, 0
7, 311160, Note_on_c, 2, 83, 84
7, 311160, Note_on_c, 2, 76, 84
7, 311399, Note_on_c, 2, 83, 0
7, 311399, Note_on_c, 2, 76, 0
7, 311460, Note_on_c, 2, 86, 84
7, 311460, Note_on_c, 2, 83, 84
7, 311511, Note_on_c, 2, 86, 0
7, 311511, Note_on_c, 2, 83, 0
7, 311520, Note_on_c, 2, 83, 84
7, 311520, Note_on_c, 2, 86, 84
7, 311879, Note_on_c, 2, 83, 0
7, 311879, Note_on_c, 2, 86, 0
7, 312180, Note_on_c, 2, 76, 52
7, 312180, Note_on_c, 2, 79, 52
7, 312231, Note_on_c, 2, 76, 0
7, 312231, Note_on_c, 2, 79, 0
7, 312240, Note_on_c, 2, 79, 52
7, 312240, Note_on_c, 2, 76, 52
7, 312584, Note_on_c, 2, 79, 0
7, 312584, Note_on_c, 2, 76, 0
7, 312600, Note_on_c, 2, 69, 48
7, 312659, Note_on_c, 2, 69, 0
7, 312660, Note_on_c, 2, 71, 48
7, 312719, Note_on_c, 2, 71, 0
7, 312720, Note_on_c, 2, 73, 48
7, 312779, Note_on_c, 2, 73, 0
7, 312780, Note_on_c, 2, 74, 48
7, 312839, Note_on_c, 2, 74, 0
7, 312840, Note_on_c, 2, 76, 48
7, 312879, Note_on_c, 2, 76, 0
7, 312880, Note_on_c, 2, 78, 48
7, 312919, Note_on_c, 2, 78, 0
7, 312920, Note_on_c, 2, 79, 48
7, 312951, Note_on_c, 2, 79, 0
7, 312960, Note_on_c, 2, 81, 48
7, 313491, Note_on_c, 2, 81, 0
7, 313500, Note_on_c, 2, 79, 48
7, 313544, Note_on_c, 2, 79, 0
7, 313560, Note_on_c, 2, 78, 48
7, 313649, Note_on_c, 2, 78, 0
7, 313680, Note_on_c, 2, 79, 48
7, 314211, Note_on_c, 2, 79, 0
7, 314220, Note_on_c, 2, 71, 48
7, 314264, Note_on_c, 2, 71, 0
7, 314280, Note_on_c, 2, 73, 48
7, 314369, Note_on_c, 2, 73, 0
7, 314400, Note_on_c, 2, 74, 48
7, 314624, Note_on_c, 2, 74, 0
7, 314640, Note_on_c, 2, 74, 48
7, 314744, Note_on_c, 2, 74, 0
7, 314760, Note_on_c, 2, 74, 48
7, 314931, Note_on_c, 2, 74, 0
7, 314940, Note_on_c, 2, 76, 48
7, 314984, Note_on_c, 2, 76, 0
7, 315000, Note_on_c, 2, 78, 48
7, 315089, Note_on_c, 2, 78, 0
7, 315120, Note_on_c, 2, 78, 48
7, 315239, Note_on_c, 2, 78, 0
7, 315240, Note_on_c, 2, 76, 48
7, 315651, Note_on_c, 2, 76, 0
7, 315660, Note_on_c, 2, 78, 48
7, 315704, Note_on_c, 2, 78, 0
7, 315720, Note_on_c, 2, 79, 48
7, 315809, Note_on_c, 2, 79, 0
7, 315840, Note_on_c, 2, 81, 48
7, 316371, Note_on_c, 2, 81, 0
7, 316380, Note_on_c, 2, 79, 48
7, 316424, Note_on_c, 2, 79, 0
7, 316440, Note_on_c, 2, 77, 48
7, 316529, Note_on_c, 2, 77, 0
7, 316560, Note_on_c, 2, 79, 48
7, 317091, Note_on_c, 2, 79, 0
7, 317100, Note_on_c, 2, 71, 48
7, 317144, Note_on_c, 2, 71, 0
7, 317160, Note_on_c, 2, 73, 48
7, 317249, Note_on_c, 2, 73, 0
7, 317280, Note_on_c, 2, 74, 48
7, 317504, Note_on_c, 2, 74, 0
7, 317520, Note_on_c, 2, 74, 48
7, 317624, Note_on_c, 2, 74, 0
7, 317640, Note_on_c, 2, 74, 48
7, 317759, Note_on_c, 2, 74, 0
7, 317760, Note_on_c, 2, 77, 48
7, 317864, Note_on_c, 2, 77, 0
7, 317880, Note_on_c, 2, 76, 48
7, 317969, Note_on_c, 2, 76, 0
7, 318000, Note_on_c, 2, 74, 48
7, 318239, Note_on_c, 2, 74, 0
7, 318600, Note_on_c, 2, 74, 52
7, 318704, Note_on_c, 2, 74, 0
7, 318720, Note_on_c, 2, 74, 52
7, 318944, Note_on_c, 2, 74, 0
7, 318960, Note_on_c, 2, 74, 52
7, 319064, Note_on_c, 2, 74, 0
7, 319080, Note_on_c, 2, 74, 52
7, 319251, Note_on_c, 2, 74, 0
7, 319260, Note_on_c, 2, 79, 52
7, 319304, Note_on_c, 2, 79, 0
7, 319320, Note_on_c, 2, 82, 52
7, 319409, Note_on_c, 2, 82, 0
7, 319440, Note_on_c, 2, 82, 52
7, 319559, Note_on_c, 2, 82, 0
7, 319560, Note_on_c, 2, 81, 52
7, 319664, Note_on_c, 2, 81, 0
7, 319680, Note_on_c, 2, 77, 52
7, 319769, Note_on_c, 2, 77, 0
7, 319800, Note_on_c, 2, 74, 52
7, 320039, Note_on_c, 2, 74, 0
7, 324360, Note_on_c, 2, 77, 52
7, 324464, Note_on_c, 2, 77, 0
7, 324480, Note_on_c, 2, 81, 52
7, 324599, Note_on_c, 2, 81, 0
7, 324600, Note_on_c, 2, 80, 52
7, 324704, Note_on_c, 2, 80, 0
7, 324720, Note_on_c, 2, 74, 52
7, 324809, Note_on_c, 2, 74, 0
7, 324840, Note_on_c, 2, 71, 52
7, 325079, Note_on_c, 2, 71, 0
7, 325800, Control_c, 2, 11, 64
7, 325920, Note_on_c, 2, 72, 84
7, 325920, Note_on_c, 2, 76, 84
7, 325966, Control_c, 2, 11, 65
7, 326011, Control_c, 2, 11, 66
7, 326057, Control_c, 2, 11, 67
7, 326103, Control_c, 2, 11, 68
7, 326149, Control_c, 2, 11, 69
7, 326194, Control_c, 2, 11, 70
7, 326240, Control_c, 2, 11, 71
7, 326286, Control_c, 2, 11, 72
7, 326331, Control_c, 2, 11, 73
7, 326377, Control_c, 2, 11, 74
7, 326423, Control_c, 2, 11, 75
7, 326469, Control_c, 2, 11, 76
7, 326514, Control_c, 2, 11, 77
7, 326560, Control_c, 2, 11, 78
7, 326606, Control_c, 2, 11, 79
7, 326624, Note_on_c, 2, 72, 0
7, 326624, Note_on_c, 2, 76, 0
7, 326640, Note_on_c, 2, 77, 84
7, 326640, Note_on_c, 2, 74, 84
7, 326651, Control_c, 2, 11, 80
7, 326697, Control_c, 2, 11, 81
7, 326743, Control_c, 2, 11, 82
7, 326789, Control_c, 2, 11, 83
7, 326834, Control_c, 2, 11, 84
7, 326880, Control_c, 2, 11, 85
7, 326926, Control_c, 2, 11, 86
7, 326971, Control_c, 2, 11, 87
7, 327017, Control_c, 2, 11, 88
7, 327063, Control_c, 2, 11, 89
7, 327109, Control_c, 2, 11, 90
7, 327154, Control_c, 2, 11, 91
7, 327200, Control_c, 2, 11, 92
7, 327246, Control_c, 2, 11, 93
7, 327291, Control_c, 2, 11, 94
7, 327337, Control_c, 2, 11, 95
7, 327344, Note_on_c, 2, 77, 0
7, 327344, Note_on_c, 2, 74, 0
7, 327360, Note_on_c, 2, 80, 84
7, 327360, Note_on_c, 2, 71, 84
7, 327383, Control_c, 2, 11, 96
7, 327429, Control_c, 2, 11, 97
7, 327474, Control_c, 2, 11, 98
7, 327520, Control_c, 2, 11, 99
7, 327566, Control_c, 2, 11, 100
7, 327611, Control_c, 2, 11, 101
7, 327657, Control_c, 2, 11, 102
7, 327703, Control_c, 2, 11, 103
7, 327749, Control_c, 2, 11, 104
7, 327794, Control_c, 2, 11, 105
7, 327840, Control_c, 2, 11, 106
7, 327886, Control_c, 2, 11, 107
7, 327931, Control_c, 2, 11, 108
7, 327977, Control_c, 2, 11, 109
7, 328023, Control_c, 2, 11, 110
7, 328064, Note_on_c, 2, 80, 0
7, 328064, Note_on_c, 2, 71, 0
7, 328069, Control_c, 2, 11, 111
7, 328080, Note_on_c, 2, 72, 84
7, 328080, Note_on_c, 2, 81, 84
7, 328114, Control_c, 2, 11, 112
7, 328160, Control_c, 2, 11, 113
7, 328206, Control_c, 2, 11, 114
7, 328251, Control_c, 2, 11, 115
7, 328297, Control_c, 2, 11, 116
7, 328343, Control_c, 2, 11, 117
7, 328389, Control_c, 2, 11, 118
7, 328434, Control_c, 2, 11, 119
7, 328480, Control_c, 2, 11, 120
7, 328526, Control_c, 2, 11, 121
7, 328571, Control_c, 2, 11, 122
7, 328617, Control_c, 2, 11, 123
7, 328663, Control_c, 2, 11, 124
7, 328709, Control_c, 2, 11, 125
7, 328754, Control_c, 2, 11, 127
7, 328784, Note_on_c, 2, 72, 0
7, 328784, Note_on_c, 2, 81, 0
7, 328800, Note_on_c, 2, 84, 84
7, 328800, Note_on_c, 2, 75, 84
7, 329504, Note_on_c, 2, 84, 0
7, 329504, Note_on_c, 2, 75, 0
7, 329520, Note_on_c, 2, 76, 84
7, 329520, Note_on_c, 2, 83, 84
7, 329984, Note_on_c, 2, 76, 0
7, 329984, Note_on_c, 2, 83, 0
7, 330000, Note_on_c, 2, 76, 84
7, 330000, Note_on_c, 2, 83, 84
7, 330104, Note_on_c, 2, 76, 0
7, 330104, Note_on_c, 2, 83, 0
7, 330120, Note_on_c, 2, 76, 84
7, 330120, Note_on_c, 2, 83, 84
7, 330224, Note_on_c, 2, 76, 0
7, 330224, Note_on_c, 2, 83, 0
7, 330240, Note_on_c, 2, 69, 84
7, 330240, Note_on_c, 2, 81, 84
7, 330359, Note_on_c, 2, 69, 0
7, 330359, Note_on_c, 2, 81, 0
7, 330480, Note_on_c, 2, 86, 84
7, 330480, Note_on_c, 2, 81, 84
7, 330584, Note_on_c, 2, 86, 0
7, 330584, Note_on_c, 2, 81, 0
7, 330600, Note_on_c, 2, 86, 84
7, 330600, Note_on_c, 2, 81, 84
7, 330719, Note_on_c, 2, 86, 0
7, 330719, Note_on_c, 2, 81, 0
7, 330840, Note_on_c, 2, 74, 84
7, 330840, Note_on_c, 2, 81, 84
7, 330944, Note_on_c, 2, 74, 0
7, 330944, Note_on_c, 2, 81, 0
7, 330960, Note_on_c, 2, 80, 52
7, 330960, Note_on_c, 2, 71, 52
7, 331199, Note_on_c, 2, 80, 0
7, 331199, Note_on_c, 2, 71, 0
7, 334080, Note_on_c, 2, 76, 60
7, 334184, Note_on_c, 2, 76, 0
7, 334200, Note_on_c, 2, 76, 64
7, 334371, Note_on_c, 2, 76, 0
7, 334380, Note_on_c, 2, 80, 70
7, 334424, Note_on_c, 2, 80, 0
7, 334440, Note_on_c, 2, 83, 72
7, 334529, Note_on_c, 2, 83, 0
7, 334560, Note_on_c, 2, 85, 76
7, 334799, Note_on_c, 2, 85, 0
7, 334800, Note_on_c, 2, 76, 76
7, 334800, Note_on_c, 2, 85, 76
7, 334904, Note_on_c, 2, 76, 0
7, 334904, Note_on_c, 2, 85, 0
7, 334920, Note_on_c, 2, 76, 76
7, 334920, Note_on_c, 2, 85, 76
7, 335144, Note_on_c, 2, 76, 0
7, 335144, Note_on_c, 2, 85, 0
7, 335160, Note_on_c, 2, 85, 76
7, 335160, Note_on_c, 2, 76, 76
7, 335264, Note_on_c, 2, 85, 0
7, 335264, Note_on_c, 2, 76, 0
7, 335280, Note_on_c, 2, 76, 76
7, 335280, Note_on_c, 2, 83, 76
7, 335984, Note_on_c, 2, 76, 0
7, 335984, Note_on_c, 2, 83, 0
7, 336000, Note_on_c, 2, 81, 76
7, 336000, Note_on_c, 2, 76, 76
7, 336224, Note_on_c, 2, 81, 0
7, 336224, Note_on_c, 2, 76, 0
7, 336240, Note_on_c, 2, 76, 76
7, 336240, Note_on_c, 2, 81, 76
7, 336344, Note_on_c, 2, 76, 0
7, 336344, Note_on_c, 2, 81, 0
7, 336360, Note_on_c, 2, 76, 76
7, 336360, Note_on_c, 2, 81, 76
7, 336584, Note_on_c, 2, 76, 0
7, 336584, Note_on_c, 2, 81, 0
7, 336600, Note_on_c, 2, 76, 76
7, 336600, Note_on_c, 2, 81, 76
7, 336704, Note_on_c, 2, 76, 0
7, 336704, Note_on_c, 2, 81, 0
7, 336720, Note_on_c, 2, 76, 76
7, 336720, Note_on_c, 2, 80, 76
7, 337424, Note_on_c, 2, 76, 0
7, 337424, Note_on_c, 2, 80, 0
7, 337440, Note_on_c, 2, 78, 76
7, 337440, Note_on_c, 2, 66, 76
7, 337664, Note_on_c, 2, 78, 0
7, 337664, Note_on_c, 2, 66, 0
7, 337680, Note_on_c, 2, 78, 76
7, 337680, Note_on_c, 2, 83, 76
7, 337784, Note_on_c, 2, 78, 0
7, 337784, Note_on_c, 2, 83, 0
7, 337800, Note_on_c, 2, 83, 76
7, 337800, Note_on_c, 2, 78, 76
7, 338024, Note_on_c, 2, 83, 0
7, 338024, Note_on_c, 2, 78, 0
7, 338040, Note_on_c, 2, 78, 76
7, 338040, Note_on_c, 2, 81, 76
7, 338144, Note_on_c, 2, 78, 0
7, 338144, Note_on_c, 2, 81, 0
7, 338160, Note_on_c, 2, 80, 76
7, 338160, Note_on_c, 2, 76, 76
7, 338264, Note_on_c, 2, 80, 0
7, 338264, Note_on_c, 2, 76, 0
7, 338280, Note_on_c, 2, 76, 76
7, 338280, Note_on_c, 2, 80, 76
7, 338399, Note_on_c, 2, 76, 0
7, 338399, Note_on_c, 2, 80, 0
7, 338520, Note_on_c, 2, 86, 76
7, 338520, Note_on_c, 2, 83, 76
7, 338624, Note_on_c, 2, 86, 0
7, 338624, Note_on_c, 2, 83, 0
7, 338640, Note_on_c, 2, 83, 76
7, 338640, Note_on_c, 2, 86, 76
7, 338759, Note_on_c, 2, 83, 0
7, 338759, Note_on_c, 2, 86, 0
7, 338880, Note_on_c, 2, 85, 76
7, 338880, Note_on_c, 2, 81, 76
7, 338984, Note_on_c, 2, 85, 0
7, 338984, Note_on_c, 2, 81, 0
7, 339000, Note_on_c, 2, 81, 76
7, 339000, Note_on_c, 2, 85, 76
7, 339119, Note_on_c, 2, 81, 0
7, 339119, Note_on_c, 2, 85, 0
7, 339240, Note_on_c, 2, 85, 76
7, 339240, Note_on_c, 2, 81, 76
7, 339344, Note_on_c, 2, 85, 0
7, 339344, Note_on_c, 2, 81, 0
7, 339360, Note_on_c, 2, 81, 76
7, 339360, Note_on_c, 2, 85, 76
7, 339479, Note_on_c, 2, 81, 0
7, 339479, Note_on_c, 2, 85, 0
7, 339600, Note_on_c, 2, 80, 76
7, 339600, Note_on_c, 2, 83, 76
7, 339704, Note_on_c, 2, 80, 0
7, 339704, Note_on_c, 2, 83, 0
7, 339720, Note_on_c, 2, 83, 76
7, 339720, Note_on_c, 2, 80, 76
7, 339839, Note_on_c, 2, 83, 0
7, 339839, Note_on_c, 2, 80, 0
7, 339960, Note_on_c, 2, 83, 76
7, 339960, Note_on_c, 2, 86, 76
7, 340064, Note_on_c, 2, 83, 0
7, 340064, Note_on_c, 2, 86, 0
7, 340080, Note_on_c, 2, 86, 76
7, 340080, Note_on_c, 2, 83, 76
7, 340199, Note_on_c, 2, 86, 0
7, 340199, Note_on_c, 2, 83, 0
7, 340320, Note_on_c, 2, 81, 76
7, 340320, Note_on_c, 2, 85, 76
7, 340424, Note_on_c, 2, 81, 0
7, 340424, Note_on_c, 2, 85, 0
7, 340440, Note_on_c, 2, 81, 76
7, 340440, Note_on_c, 2, 85, 76
7, 340559, Note_on_c, 2, 81, 0
7, 340559, Note_on_c, 2, 85, 0
7, 340680, Note_on_c, 2, 85, 76
7, 340680, Note_on_c, 2, 81, 76
7, 340784, Note_on_c, 2, 85, 0
7, 340784, Note_on_c, 2, 81, 0
7, 340800, Note_on_c, 2, 81, 76
7, 340800, Note_on_c, 2, 85, 76
7, 340919, Note_on_c, 2, 81, 0
7, 340919, Note_on_c, 2, 85, 0
7, 345360, Note_on_c, 2, 81, 84
7, 345360, Note_on_c, 2, 69, 84
7, 345464, Note_on_c, 2, 81, 0
7, 345464, Note_on_c, 2, 69, 0
7, 345480, Note_on_c, 2, 81, 84
7, 345480, Note_on_c, 2, 69, 84
7, 345584, Note_on_c, 2, 81, 0
7, 345584, Note_on_c, 2, 69, 0
7, 345600, Note_on_c, 2, 81, 84
7, 345600, Note_on_c, 2, 69, 84
7, 345704, Note_on_c, 2, 81, 0
7, 345704, Note_on_c, 2, 69, 0
7, 345720, Note_on_c, 2, 81, 84
7, 345720, Note_on_c, 2, 69, 84
7, 345824, Note_on_c, 2, 81, 0
7, 345824, Note_on_c, 2, 69, 0
7, 345840, Note_on_c, 2, 81, 84
7, 345840, Note_on_c, 2, 69, 84
7, 345944, Note_on_c, 2, 81, 0
7, 345944, Note_on_c, 2, 69, 0
7, 345960, Note_on_c, 2, 81, 84
7, 345960, Note_on_c, 2, 69, 84
7, 346064, Note_on_c, 2, 81, 0
7, 346064, Note_on_c, 2, 69, 0
7, 346080, Note_on_c, 2, 81, 84
7, 346080, Note_on_c, 2, 69, 84
7, 346184, Note_on_c, 2, 81, 0
7, 346184, Note_on_c, 2, 69, 0
7, 346200, Note_on_c, 2, 69, 84
7, 346200, Note_on_c, 2, 81, 84
7, 346304, Note_on_c, 2, 69, 0
7, 346304, Note_on_c, 2, 81, 0
7, 346320, Note_on_c, 2, 81, 84
7, 346320, Note_on_c, 2, 69, 84
7, 346424, Note_on_c, 2, 81, 0
7, 346424, Note_on_c, 2, 69, 0
7, 346440, Note_on_c, 2, 76, 84
7, 346544, Note_on_c, 2, 76, 0
7, 346560, Note_on_c, 2, 84, 84
7, 346560, Note_on_c, 2, 72, 84
7, 346664, Note_on_c, 2, 84, 0
7, 346664, Note_on_c, 2, 72, 0
7, 346680, Note_on_c, 2, 72, 84
7, 346680, Note_on_c, 2, 82, 84
7, 346784, Note_on_c, 2, 72, 0
7, 346784, Note_on_c, 2, 82, 0
7, 346800, Note_on_c, 2, 81, 84
7, 346800, Note_on_c, 2, 72, 84
7, 347039, Note_on_c, 2, 81, 0
7, 347039, Note_on_c, 2, 72, 0
7, 354960, Note_on_c, 2, 73, 52
7, 355019, Note_on_c, 2, 73, 0
7, 355020, Note_on_c, 2, 74, 53
7, 355079, Note_on_c, 2, 74, 0
7, 355080, Note_on_c, 2, 76, 54
7, 355169, Note_on_c, 2, 76, 0
7, 357120, Note_on_c, 2, 78, 72
7, 357179, Note_on_c, 2, 78, 0
7, 357180, Note_on_c, 2, 80, 73
7, 357239, Note_on_c, 2, 80, 0
7, 357240, Note_on_c, 2, 81, 74
7, 357329, Note_on_c, 2, 81, 0
7, 358320, Note_on_c, 2, 76, 84
7, 358320, Note_on_c, 2, 81, 84
7, 359384, Note_on_c, 2, 76, 0
7, 359384, Note_on_c, 2, 81, 0
7, 359400, Note_on_c, 2, 76, 84
7, 359400, Note_on_c, 2, 81, 84
7, 359571, Note_on_c, 2, 76, 0
7, 359571, Note_on_c, 2, 81, 0
7, 359580, Note_on_c, 2, 76, 84
7, 359580, Note_on_c, 2, 81, 84
7, 359631, Note_on_c, 2, 76, 0
7, 359631, Note_on_c, 2, 81, 0
7, 359640, Note_on_c, 2, 81, 84
7, 359640, Note_on_c, 2, 76, 84
7, 359744, Note_on_c, 2, 81, 0
7, 359744, Note_on_c, 2, 76, 0
7, 359760, Note_on_c, 2, 81, 84
7, 359760, Note_on_c, 2, 78, 84
7, 360824, Note_on_c, 2, 81, 0
7, 360824, Note_on_c, 2, 78, 0
7, 360840, Note_on_c, 2, 78, 84
7, 360840, Note_on_c, 2, 81, 84
7, 361011, Note_on_c, 2, 78, 0
7, 361011, Note_on_c, 2, 81, 0
7, 361020, Note_on_c, 2, 81, 84
7, 361020, Note_on_c, 2, 78, 84
7, 361071, Note_on_c, 2, 81, 0
7, 361071, Note_on_c, 2, 78, 0
7, 361080, Note_on_c, 2, 81, 84
7, 361080, Note_on_c, 2, 78, 84
7, 361198, Control_c, 2, 11, 48
7, 361199, Note_on_c, 2, 81, 0
7, 361199, Note_on_c, 2, 78, 0
7, 361200, Note_on_c, 2, 82, 84
7, 361559, Note_on_c, 2, 82, 0
7, 361560, Note_on_c, 2, 77, 84
7, 361919, Note_on_c, 2, 77, 0
7, 361920, Note_on_c, 2, 76, 84
7, 361960, Control_c, 2, 11, 52
7, 362000, Control_c, 2, 11, 57
7, 362040, Control_c, 2, 11, 61
7, 362080, Control_c, 2, 11, 66
7, 362120, Control_c, 2, 11, 70
7, 362160, Control_c, 2, 11, 74
7, 362200, Control_c, 2, 11, 79
7, 362240, Control_c, 2, 11, 83
7, 362280, Control_c, 2, 11, 88
7, 362320, Control_c, 2, 11, 92
7, 362360, Control_c, 2, 11, 96
7, 362400, Control_c, 2, 11, 101
7, 362440, Control_c, 2, 11, 105
7, 362480, Control_c, 2, 11, 109
7, 362520, Control_c, 2, 11, 114
7, 362560, Control_c, 2, 11, 118
7, 362600, Control_c, 2, 11, 123
7, 362624, Note_on_c, 2, 76, 0
7, 362638, Control_c, 2, 11, 127
7, 362640, Note_on_c, 2, 81, 84
7, 362640, Note_on_c, 2, 76, 84
7, 363704, Note_on_c, 2, 81, 0
7, 363704, Note_on_c, 2, 76, 0
7, 363720, Note_on_c, 2, 76, 84
7, 363720, Note_on_c, 2, 81, 84
7, 363891, Note_on_c, 2, 76, 0
7, 363891, Note_on_c, 2, 81, 0
7, 363900, Note_on_c, 2, 76, 84
7, 363900, Note_on_c, 2, 81, 84
7, 363951, Note_on_c, 2, 76, 0
7, 363951, Note_on_c, 2, 81, 0
7, 363960, Note_on_c, 2, 81, 84
7, 363960, Note_on_c, 2, 76, 84
7, 364064, Note_on_c, 2, 81, 0
7, 364064, Note_on_c, 2, 76, 0
7, 364080, Note_on_c, 2, 81, 84
7, 364080, Note_on_c, 2, 78, 84
7, 365144, Note_on_c, 2, 81, 0
7, 365144, Note_on_c, 2, 78, 0
7, 365160, Note_on_c, 2, 81, 84
7, 365160, Note_on_c, 2, 78, 84
7, 365331, Note_on_c, 2, 81, 0
7, 365331, Note_on_c, 2, 78, 0
7, 365340, Note_on_c, 2, 81, 84
7, 365340, Note_on_c, 2, 78, 84
7, 365391, Note_on_c, 2, 81, 0
7, 365391, Note_on_c, 2, 78, 0
7, 365400, Note_on_c, 2, 81, 84
7, 365400, Note_on_c, 2, 78, 84
7, 365519, Note_on_c, 2, 81, 0
7, 365519, Note_on_c, 2, 78, 0
7, 366960, Note_on_c, 2, 76, 84
7, 367491, Note_on_c, 2, 76, 0
7, 367500, Note_on_c, 2, 74, 84
7, 367544, Note_on_c, 2, 74, 0
7, 367560, Note_on_c, 2, 73, 84
7, 367641, Note_on_c, 2, 73, 0
7, 367650, Note_on_c, 2, 73, 84
7, 367679, Note_on_c, 2, 73, 0
7, 367680, Note_on_c, 2, 74, 92
7, 367740, Control_c, 2, 11, 112
7, 368211, Note_on_c, 2, 74, 0
7, 368220, Note_on_c, 2, 78, 92
7, 368220, Note_on_c, 2, 74, 92
7, 368264, Note_on_c, 2, 78, 0
7, 368264, Note_on_c, 2, 74, 0
7, 368280, Note_on_c, 2, 74, 92
7, 368280, Note_on_c, 2, 80, 92
7, 368369, Note_on_c, 2, 74, 0
7, 368369, Note_on_c, 2, 80, 0
7, 368400, Note_on_c, 2, 81, 92
7, 368400, Note_on_c, 2, 73, 92
7, 368639, Note_on_c, 2, 81, 0
7, 368639, Note_on_c, 2, 73, 0
7, 368758, Control_c, 2, 11, 127
7, 368760, Note_on_c, 2, 85, 84
7, 368760, Note_on_c, 2, 73, 84
7, 368999, Note_on_c, 2, 85, 0
7, 368999, Note_on_c, 2, 73, 0
7, 369120, Note_on_c, 2, 76, 84
7, 369359, Note_on_c, 2, 76, 0
7, 369660, Note_on_c, 2, 76, 84
7, 369711, Note_on_c, 2, 76, 0
7, 369720, Note_on_c, 2, 76, 84
7, 369824, Note_on_c, 2, 76, 0
7, 369840, Note_on_c, 2, 76, 92
7, 369900, Control_c, 2, 11, 112
7, 370064, Note_on_c, 2, 76, 0
7, 370080, Note_on_c, 2, 73, 92
7, 370161, Note_on_c, 2, 73, 0
7, 370170, Note_on_c, 2, 73, 92
7, 370199, Note_on_c, 2, 73, 0
7, 370200, Note_on_c, 2, 74, 92
7, 370371, Note_on_c, 2, 74, 0
7, 370380, Note_on_c, 2, 74, 92
7, 370380, Note_on_c, 2, 78, 92
7, 370424, Note_on_c, 2, 74, 0
7, 370424, Note_on_c, 2, 78, 0
7, 370440, Note_on_c, 2, 80, 92
7, 370440, Note_on_c, 2, 76, 92
7, 370529, Note_on_c, 2, 80, 0
7, 370529, Note_on_c, 2, 76, 0
7, 370560, Note_on_c, 2, 73, 92
7, 370560, Note_on_c, 2, 81, 92
7, 370799, Note_on_c, 2, 73, 0
7, 370799, Note_on_c, 2, 81, 0
7, 371040, Control_c, 2, 11, 127
7, 371100, Note_on_c, 2, 76, 84
7, 371151, Note_on_c, 2, 76, 0
7, 371160, Note_on_c, 2, 76, 84
7, 371264, Note_on_c, 2, 76, 0
7, 371280, Note_on_c, 2, 76, 92
7, 371340, Control_c, 2, 11, 112
7, 371504, Note_on_c, 2, 76, 0
7, 371520, Note_on_c, 2, 73, 92
7, 371601, Note_on_c, 2, 73, 0
7, 371610, Note_on_c, 2, 73, 92
7, 371639, Note_on_c, 2, 73, 0
7, 371640, Note_on_c, 2, 74, 92
7, 371811, Note_on_c, 2, 74, 0
7, 371820, Note_on_c, 2, 78, 92
7, 371820, Note_on_c, 2, 74, 92
7, 371864, Note_on_c, 2, 78, 0
7, 371864, Note_on_c, 2, 74, 0
7, 371880, Note_on_c, 2, 74, 92
7, 371880, Note_on_c, 2, 80, 92
7, 371969, Note_on_c, 2, 74, 0
7, 371969, Note_on_c, 2, 80, 0
7, 371998, Control_c, 2, 11, 127
7, 372000, Note_on_c, 2, 81, 84
7, 372000, Note_on_c, 2, 73, 84
7, 372119, Note_on_c, 2, 81, 0
7, 372119, Note_on_c, 2, 73, 0
7, 372240, Note_on_c, 2, 81, 84
7, 372359, Note_on_c, 2, 81, 0
7, 372600, Note_on_c, 2, 81, 84
7, 372719, Note_on_c, 2, 81, 0
7, 372960, Note_on_c, 2, 81, 84
7, 373079, Note_on_c, 2, 81, 0
7, 373320, Note_on_c, 2, 81, 84
7, 373439, Note_on_c, 2, 81, 0
7, 373680, Note_on_c, 2, 81, 84
7, 373799, Note_on_c, 2, 81, 0
7, 374040, Note_on_c, 2, 81, 84
7, 374159, Note_on_c, 2, 81, 0
7, 374400, Note_on_c, 2, 81, 84
7, 374519, Note_on_c, 2, 81, 0
7, 374760, Note_on_c, 2, 81, 84
7, 374879, Note_on_c, 2, 81, 0
7, 376560, Note_on_c, 2, 80, 52
7, 376679, Note_on_c, 2, 80, 0
7, 381360, Note_on_c, 2, 72, 44
7, 381360, Note_on_c, 2, 76, 44
7, 381531, Note_on_c, 2, 72, 0
7, 381531, Note_on_c, 2, 76, 0
7, 381540, Note_on_c, 2, 76, 44
7, 381540, Note_on_c, 2, 72, 44
7, 381599, Note_on_c, 2, 76, 0
7, 381599, Note_on_c, 2, 72, 0
7, 381600, Note_on_c, 2, 72, 44
7, 381600, Note_on_c, 2, 76, 44
7, 381704, Note_on_c, 2, 72, 0
7, 381704, Note_on_c, 2, 76, 0
7, 381720, Note_on_c, 2, 72, 44
7, 381720, Note_on_c, 2, 76, 44
7, 381891, Note_on_c, 2, 72, 0
7, 381891, Note_on_c, 2, 76, 0
7, 381900, Note_on_c, 2, 76, 44
7, 381900, Note_on_c, 2, 72, 44
7, 381959, Note_on_c, 2, 76, 0
7, 381959, Note_on_c, 2, 72, 0
7, 381960, Note_on_c, 2, 72, 44
7, 381960, Note_on_c, 2, 76, 44
7, 382064, Note_on_c, 2, 72, 0
7, 382064, Note_on_c, 2, 76, 0
7, 382080, Note_on_c, 2, 81, 44
7, 382080, Note_on_c, 2, 72, 44
7, 383504, Note_on_c, 2, 81, 0
7, 383504, Note_on_c, 2, 72, 0
7, 383520, Note_on_c, 2, 81, 44
7, 383520, Note_on_c, 2, 73, 44
7, 384224, Note_on_c, 2, 81, 0
7, 384224, Note_on_c, 2, 73, 0
7, 384240, Note_on_c, 2, 81, 44
7, 384779, Note_on_c, 2, 81, 0
7, 384780, Note_on_c, 2, 76, 44
7, 384839, Note_on_c, 2, 76, 0
7, 384840, Note_on_c, 2, 73, 44
7, 384959, Note_on_c, 2, 73, 0
7, 399240, Control_c, 2, 11, 96
7, 399360, Note_on_c, 2, 76, 84
7, 399360, Note_on_c, 2, 64, 84
7, 399406, Control_c, 2, 11, 97
7, 399453, Control_c, 2, 11, 98
7, 399464, Note_on_c, 2, 76, 0
7, 399464, Note_on_c, 2, 64, 0
7, 399480, Note_on_c, 2, 76, 84
7, 399480, Note_on_c, 2, 64, 84
7, 399499, Control_c, 2, 11, 99
7, 399546, Control_c, 2, 11, 100
7, 399584, Note_on_c, 2, 76, 0
7, 399584, Note_on_c, 2, 64, 0
7, 399592, Control_c, 2, 11, 101
7, 399600, Note_on_c, 2, 76, 84
7, 399600, Note_on_c, 2, 64, 84
7, 399639, Control_c, 2, 11, 102
7, 399685, Control_c, 2, 11, 103
7, 399704, Note_on_c, 2, 76, 0
7, 399704, Note_on_c, 2, 64, 0
7, 399720, Note_on_c, 2, 64, 84
7, 399720, Note_on_c, 2, 76, 84
7, 399732, Control_c, 2, 11, 104
7, 399778, Control_c, 2, 11, 105
7, 399824, Note_on_c, 2, 64, 0
7, 399824, Note_on_c, 2, 76, 0
7, 399825, Control_c, 2, 11, 106
7, 399840, Note_on_c, 2, 64, 84
7, 399840, Note_on_c, 2, 76, 84
7, 399871, Control_c, 2, 11, 107
7, 399917, Control_c, 2, 11, 108
7, 399944, Note_on_c, 2, 64, 0
7, 399944, Note_on_c, 2, 76, 0
7, 399960, Note_on_c, 2, 76, 84
7, 399960, Note_on_c, 2, 64, 84
7, 399964, Control_c, 2, 11, 109
7, 400010, Control_c, 2, 11, 110
7, 400057, Control_c, 2, 11, 111
7, 400064, Note_on_c, 2, 76, 0
7, 400064, Note_on_c, 2, 64, 0
7, 400080, Note_on_c, 2, 64, 84
7, 400080, Note_on_c, 2, 76, 84
7, 400103, Control_c, 2, 11, 112
7, 400150, Control_c, 2, 11, 113
7, 400184, Note_on_c, 2, 64, 0
7, 400184, Note_on_c, 2, 76, 0
7, 400196, Control_c, 2, 11, 114
7, 400200, Note_on_c, 2, 64, 84
7, 400200, Note_on_c, 2, 76, 84
7, 400243, Control_c, 2, 11, 115
7, 400289, Control_c, 2, 11, 116
7, 400304, Note_on_c, 2, 64, 0
7, 400304, Note_on_c, 2, 76, 0
7, 400320, Note_on_c, 2, 76, 84
7, 400320, Note_on_c, 2, 64, 84
7, 400335, Control_c, 2, 11, 117
7, 400382, Control_c, 2, 11, 118
7, 400424, Note_on_c, 2, 76, 0
7, 400424, Note_on_c, 2, 64, 0
7, 400428, Control_c, 2, 11, 119
7, 400440, Note_on_c, 2, 64, 84
7, 400440, Note_on_c, 2, 76, 84
7, 400475, Control_c, 2, 11, 120
7, 400521, Control_c, 2, 11, 121
7, 400544, Note_on_c, 2, 64, 0
7, 400544, Note_on_c, 2, 76, 0
7, 400560, Note_on_c, 2, 76, 84
7, 400560, Note_on_c, 2, 64, 84
7, 400568, Control_c, 2, 11, 122
7, 400614, Control_c, 2, 11, 123
7, 400661, Control_c, 2, 11, 124
7, 400664, Note_on_c, 2, 76, 0
7, 400664, Note_on_c, 2, 64, 0
7, 400680, Note_on_c, 2, 64, 84
7, 400680, Note_on_c, 2, 76, 84
7, 400707, Control_c, 2, 11, 125
7, 400754, Control_c, 2, 11, 127
7, 400784, Note_on_c, 2, 64, 0
7, 400784, Note_on_c, 2, 76, 0
7, 400800, Note_on_c, 2, 81, 84
7, 400800, Note_on_c, 2, 76, 84
7, 400971, Note_on_c, 2, 81, 0
7, 400971, Note_on_c, 2, 76, 0
7, 400980, Note_on_c, 2, 76, 84
7, 400980, Note_on_c, 2, 81, 84
7, 401031, Note_on_c, 2, 76, 0
7, 401031, Note_on_c, 2, 81, 0
7, 401040, Note_on_c, 2, 76, 84
7, 401040, Note_on_c, 2, 81, 84
7, 401144, Note_on_c, 2, 76, 0
7, 401144, Note_on_c, 2, 81, 0
7, 401160, Note_on_c, 2, 76, 84
7, 401160, Note_on_c, 2, 81, 84
7, 401331, Note_on_c, 2, 76, 0
7, 401331, Note_on_c, 2, 81, 0
7, 401340, Note_on_c, 2, 81, 84
7, 401340, Note_on_c, 2, 76, 84
7, 401391, Note_on_c, 2, 81, 0
7, 401391, Note_on_c, 2, 76, 0
7, 401400, Note_on_c, 2, 76, 84
7, 401400, Note_on_c, 2, 81, 84
7, 401504, Note_on_c, 2, 76, 0
7, 401504, Note_on_c, 2, 81, 0
7, 401520, Note_on_c, 2, 76, 84
7, 401520, Note_on_c, 2, 81, 84
7, 401691, Note_on_c, 2, 76, 0
7, 401691, Note_on_c, 2, 81, 0
7, 401700, Note_on_c, 2, 76, 84
7, 401700, Note_on_c, 2, 81, 84
7, 401751, Note_on_c, 2, 76, 0
7, 401751, Note_on_c, 2, 81, 0
7, 401760, Note_on_c, 2, 81, 84
7, 401760, Note_on_c, 2, 76, 84
7, 401864, Note_on_c, 2, 81, 0
7, 401864, Note_on_c, 2, 76, 0
7, 401880, Note_on_c, 2, 76, 84
7, 401880, Note_on_c, 2, 81, 84
7, 402051, Note_on_c, 2, 76, 0
7, 402051, Note_on_c, 2, 81, 0
7, 402060, Note_on_c, 2, 81, 84
7, 402060, Note_on_c, 2, 76, 84
7, 402111, Note_on_c, 2, 81, 0
7, 402111, Note_on_c, 2, 76, 0
7, 402120, Note_on_c, 2, 76, 84
7, 402120, Note_on_c, 2, 81, 84
7, 402224, Note_on_c, 2, 76, 0
7, 402224, Note_on_c, 2, 81, 0
7, 402240, Note_on_c, 2, 78, 84
7, 402240, Note_on_c, 2, 81, 84
7, 402411, Note_on_c, 2, 78, 0
7, 402411, Note_on_c, 2, 81, 0
7, 402420, Note_on_c, 2, 78, 84
7, 402420, Note_on_c, 2, 81, 84
7, 402471, Note_on_c, 2, 78, 0
7, 402471, Note_on_c, 2, 81, 0
7, 402480, Note_on_c, 2, 81, 84
7, 402480, Note_on_c, 2, 78, 84
7, 402584, Note_on_c, 2, 81, 0
7, 402584, Note_on_c, 2, 78, 0
7, 402600, Note_on_c, 2, 81, 84
7, 402600, Note_on_c, 2, 78, 84
7, 402771, Note_on_c, 2, 81, 0
7, 402771, Note_on_c, 2, 78, 0
7, 402780, Note_on_c, 2, 81, 84
7, 402780, Note_on_c, 2, 78, 84
7, 402831, Note_on_c, 2, 81, 0
7, 402831, Note_on_c, 2, 78, 0
7, 402840, Note_on_c, 2, 81, 84
7, 402840, Note_on_c, 2, 78, 84
7, 402944, Note_on_c, 2, 81, 0
7, 402944, Note_on_c, 2, 78, 0
7, 402960, Note_on_c, 2, 78, 84
7, 402960, Note_on_c, 2, 81, 84
7, 403131, Note_on_c, 2, 78, 0
7, 403131, Note_on_c, 2, 81, 0
7, 403140, Note_on_c, 2, 78, 84
7, 403140, Note_on_c, 2, 81, 84
7, 403191, Note_on_c, 2, 78, 0
7, 403191, Note_on_c, 2, 81, 0
7, 403200, Note_on_c, 2, 81, 84
7, 403200, Note_on_c, 2, 78, 84
7, 403304, Note_on_c, 2, 81, 0
7, 403304, Note_on_c, 2, 78, 0
7, 403320, Note_on_c, 2, 78, 84
7, 403320, Note_on_c, 2, 81, 84
7, 403491, Note_on_c, 2, 78, 0
7, 403491, Note_on_c, 2, 81, 0
7, 403500, Note_on_c, 2, 78, 84
7, 403500, Note_on_c, 2, 81, 84
7, 403551, Note_on_c, 2, 78, 0
7, 403551, Note_on_c, 2, 81, 0
7, 403560, Note_on_c, 2, 78, 84
7, 403560, Note_on_c, 2, 81, 84
7, 403664, Note_on_c, 2, 78, 0
7, 403664, Note_on_c, 2, 81, 0
7, 403680, Note_on_c, 2, 81, 84
7, 403680, Note_on_c, 2, 76, 84
7, 404384, Note_on_c, 2, 81, 0
7, 404384, Note_on_c, 2, 76, 0
7, 404400, Note_on_c, 2, 76, 84
7, 404400, Note_on_c, 2, 81, 84
7, 405104, Note_on_c, 2, 76, 0
7, 405104, Note_on_c, 2, 81, 0
7, 405120, Note_on_c, 2, 76, 84
7, 405120, Note_on_c, 2, 81, 84
7, 405824, Note_on_c, 2, 76, 0
7, 405824, Note_on_c, 2, 81, 0
7, 405840, Note_on_c, 2, 73, 84
7, 405840, Note_on_c, 2, 85, 84
7, 406184, Note_on_c, 2, 73, 0
7, 406184, Note_on_c, 2, 85, 0
7, 406200, Note_on_c, 2, 81, 84
7, 406200, Note_on_c, 2, 69, 84
7, 406559, Note_on_c, 2, 81, 0
7, 406559, Note_on_c, 2, 69, 0
7, 406560, Note_on_c, 2, 78, 84
7, 406919, Note_on_c, 2, 78, 0
7, 406920, Note_on_c, 2, 76, 84
7, 407264, Note_on_c, 2, 76, 0
7, 407280, Note_on_c, 2, 75, 84
7, 407399, Note_on_c, 2, 75, 0
7, 407460, Note_on_c, 2, 78, 84
7, 407460, Note_on_c, 2, 81, 84
7, 407511, Note_on_c, 2, 78, 0
7, 407511, Note_on_c, 2, 81, 0
7, 407520, Note_on_c, 2, 78, 84
7, 407520, Note_on_c, 2, 81, 84
7, 407624, Note_on_c, 2, 78, 0
7, 407624, Note_on_c, 2, 81, 0
7, 407640, Note_on_c, 2, 78, 84
7, 407640, Note_on_c, 2, 81, 84
7, 407879, Note_on_c, 2, 78, 0
7, 407879, Note_on_c, 2, 81, 0
7, 408180, Note_on_c, 2, 81, 84
7, 408180, Note_on_c, 2, 78, 84
7, 408231, Note_on_c, 2, 81, 0
7, 408231, Note_on_c, 2, 78, 0
7, 408240, Note_on_c, 2, 78, 84
7, 408240, Note_on_c, 2, 81, 84
7, 408344, Note_on_c, 2, 78, 0
7, 408344, Note_on_c, 2, 81, 0
7, 408360, Note_on_c, 2, 81, 84
7, 408360, Note_on_c, 2, 78, 84
7, 408599, Note_on_c, 2, 81, 0
7, 408599, Note_on_c, 2, 78, 0
7, 408900, Note_on_c, 2, 80, 84
7, 408900, Note_on_c, 2, 76, 84
7, 408951, Note_on_c, 2, 80, 0
7, 408951, Note_on_c, 2, 76, 0
7, 408960, Note_on_c, 2, 76, 84
7, 408960, Note_on_c, 2, 80, 84
7, 409064, Note_on_c, 2, 76, 0
7, 409064, Note_on_c, 2, 80, 0
7, 409080, Note_on_c, 2, 76, 84
7, 409080, Note_on_c, 2, 80, 84
7, 409319, Note_on_c, 2, 76, 0
7, 409319, Note_on_c, 2, 80, 0
7, 409620, Note_on_c, 2, 76, 84
7, 409620, Note_on_c, 2, 80, 84
7, 409671, Note_on_c, 2, 76, 0
7, 409671, Note_on_c, 2, 80, 0
7, 409680, Note_on_c, 2, 80, 84
7, 409680, Note_on_c, 2, 76, 84
7, 409784, Note_on_c, 2, 80, 0
7, 409784, Note_on_c, 2, 76, 0
7, 409800, Note_on_c, 2, 76, 84
7, 409800, Note_on_c, 2, 80, 84
7, 410039, Note_on_c, 2, 76, 0
7, 410039, Note_on_c, 2, 80, 0
7, 410340, Note_on_c, 2, 76, 84
7, 410340, Note_on_c, 2, 81, 84
7, 410391, Note_on_c, 2, 76, 0
7, 410391, Note_on_c, 2, 81, 0
7, 410400, Note_on_c, 2, 81, 84
7, 410400, Note_on_c, 2, 76, 84
7, 410504, Note_on_c, 2, 81, 0
7, 410504, Note_on_c, 2, 76, 0
7, 410520, Note_on_c, 2, 78, 84
7, 410520, Note_on_c, 2, 74, 84
7, 410759, Note_on_c, 2, 78, 0
7, 410759, Note_on_c, 2, 74, 0
7, 411060, Note_on_c, 2, 76, 84
7, 411060, Note_on_c, 2, 73, 84
7, 411111, Note_on_c, 2, 76, 0
7, 411111, Note_on_c, 2, 73, 0
7, 411120, Note_on_c, 2, 73, 84
7, 411120, Note_on_c, 2, 76, 84
7, 411224, Note_on_c, 2, 73, 0
7, 411224, Note_on_c, 2, 76, 0
7, 411240, Note_on_c, 2, 71, 84
7, 411240, Note_on_c, 2, 74, 84
7, 411479, Note_on_c, 2, 71, 0
7, 411479, Note_on_c, 2, 74, 0
7, 411600, Note_on_c, 2, 73, 84
7, 411600, Note_on_c, 2, 81, 84
7, 411719, Note_on_c, 2, 73, 0
7, 411719, Note_on_c, 2, 81, 0
7, 411780, Note_on_c, 2, 86, 84
7, 411780, Note_on_c, 2, 78, 84
7, 411831, Note_on_c, 2, 86, 0
7, 411831, Note_on_c, 2, 78, 0
7, 411840, Note_on_c, 2, 78, 84
7, 411840, Note_on_c, 2, 86, 84
7, 411944, Note_on_c, 2, 78, 0
7, 411944, Note_on_c, 2, 86, 0
7, 411960, Note_on_c, 2, 78, 84
7, 411960, Note_on_c, 2, 86, 84
7, 412079, Note_on_c, 2, 78, 0
7, 412079, Note_on_c, 2, 86, 0
7, 412140, Note_on_c, 2, 76, 84
7, 412140, Note_on_c, 2, 85, 84
7, 412191, Note_on_c, 2, 76, 0
7, 412191, Note_on_c, 2, 85, 0
7, 412200, Note_on_c, 2, 85, 84
7, 412200, Note_on_c, 2, 76, 84
7, 412304, Note_on_c, 2, 85, 0
7, 412304, Note_on_c, 2, 76, 0
7, 412320, Note_on_c, 2, 76, 84
7, 412320, Note_on_c, 2, 85, 84
7, 412439, Note_on_c, 2, 76, 0
7, 412439, Note_on_c, 2, 85, 0
7, 412500, Note_on_c, 2, 74, 84
7, 412500, Note_on_c, 2, 83, 84
7, 412551, Note_on_c, 2, 74, 0
7, 412551, Note_on_c, 2, 83, 0
7, 412560, Note_on_c, 2, 83, 84
7, 412560, Note_on_c, 2, 74, 84
7, 412664, Note_on_c, 2, 83, 0
7, 412664, Note_on_c, 2, 74, 0
7, 412680, Note_on_c, 2, 74, 84
7, 412680, Note_on_c, 2, 83, 84
7, 412799, Note_on_c, 2, 74, 0
7, 412799, Note_on_c, 2, 83, 0
7, 412860, Note_on_c, 2, 73, 84
7, 412860, Note_on_c, 2, 81, 84
7, 412911, Note_on_c, 2, 73, 0
7, 412911, Note_on_c, 2, 81, 0
7, 412920, Note_on_c, 2, 73, 84
7, 412920, Note_on_c, 2, 81, 84
7, 413024, Note_on_c, 2, 73, 0
7, 413024, Note_on_c, 2, 81, 0
7, 413040, Note_on_c, 2, 73, 84
7, 413040, Note_on_c, 2, 81, 84
7, 413159, Note_on_c, 2, 73, 0
7, 413159, Note_on_c, 2, 81, 0
7, 413220, Note_on_c, 2, 86, 84
7, 413220, Note_on_c, 2, 78, 84
7, 413271, Note_on_c, 2, 86, 0
7, 413271, Note_on_c, 2, 78, 0
7, 413280, Note_on_c, 2, 78, 84
7, 413280, Note_on_c, 2, 86, 84
7, 413384, Note_on_c, 2, 78, 0
7, 413384, Note_on_c, 2, 86, 0
7, 413400, Note_on_c, 2, 78, 84
7, 413400, Note_on_c, 2, 86, 84
7, 413519, Note_on_c, 2, 78, 0
7, 413519, Note_on_c, 2, 86, 0
7, 413580, Note_on_c, 2, 76, 84
7, 413580, Note_on_c, 2, 85, 84
7, 413631, Note_on_c, 2, 76, 0
7, 413631, Note_on_c, 2, 85, 0
7, 413640, Note_on_c, 2, 76, 84
7, 413640, Note_on_c, 2, 85, 84
7, 413744, Note_on_c, 2, 76, 0
7, 413744, Note_on_c, 2, 85, 0
7, 413760, Note_on_c, 2, 76, 84
7, 413760, Note_on_c, 2, 85, 84
7, 413879, Note_on_c, 2, 76, 0
7, 413879, Note_on_c, 2, 85, 0
7, 413940, Note_on_c, 2, 83, 84
7, 413940, Note_on_c, 2, 80, 84
7, 413991, Note_on_c, 2, 83, 0
7, 413991, Note_on_c, 2, 80, 0
7, 414000, Note_on_c, 2, 83, 84
7, 414000, Note_on_c, 2, 80, 84
7, 414104, Note_on_c, 2, 83, 0
7, 414104, Note_on_c, 2, 80, 0
7, 414120, Note_on_c, 2, 83, 84
7, 414120, Note_on_c, 2, 80, 84
7, 414239, Note_on_c, 2, 83, 0
7, 414239, Note_on_c, 2, 80, 0
7, 414300, Note_on_c, 2, 81, 84
7, 414300, Note_on_c, 2, 85, 84
7, 414351, Note_on_c, 2, 81, 0
7, 414351, Note_on_c, 2, 85, 0
7, 414360, Note_on_c, 2, 85, 84
7, 414360, Note_on_c, 2, 81, 84
7, 414464, Note_on_c, 2, 85, 0
7, 414464, Note_on_c, 2, 81, 0
7, 414480, Note_on_c, 2, 85, 84
7, 415011, Note_on_c, 2, 85, 0
7, 415020, Note_on_c, 2, 83, 84
7, 415064, Note_on_c, 2, 83, 0
7, 415080, Note_on_c, 2, 81, 84
7, 415169, Note_on_c, 2, 81, 0
7, 415200, Note_on_c, 2, 80, 84
7, 415319, Note_on_c, 2, 80, 0
7, 415380, Note_on_c, 2, 80, 84
7, 415431, Note_on_c, 2, 80, 0
7, 415440, Note_on_c, 2, 80, 84
7, 415544, Note_on_c, 2, 80, 0
7, 415560, Note_on_c, 2, 80, 84
7, 415679, Note_on_c, 2, 80, 0
7, 415740, Note_on_c, 2, 85, 84
7, 415791, Note_on_c, 2, 85, 0
7, 415800, Note_on_c, 2, 85, 84
7, 415904, Note_on_c, 2, 85, 0
7, 415920, Note_on_c, 2, 85, 84
7, 416451, Note_on_c, 2, 85, 0
7, 416460, Note_on_c, 2, 83, 84
7, 416504, Note_on_c, 2, 83, 0
7, 416520, Note_on_c, 2, 81, 84
7, 416609, Note_on_c, 2, 81, 0
7, 416640, Note_on_c, 2, 80, 84
7, 416759, Note_on_c, 2, 80, 0
7, 416820, Note_on_c, 2, 80, 84
7, 416871, Note_on_c, 2, 80, 0
7, 416880, Note_on_c, 2, 80, 84
7, 416984, Note_on_c, 2, 80, 0
7, 417000, Note_on_c, 2, 80, 84
7, 417119, Note_on_c, 2, 80, 0
7, 417180, Note_on_c, 2, 85, 84
7, 417231, Note_on_c, 2, 85, 0
7, 417240, Note_on_c, 2, 85, 84
7, 417344, Note_on_c, 2, 85, 0
7, 417360, Note_on_c, 2, 85, 84
7, 417360, Note_on_c, 2, 81, 84
7, 417479, Note_on_c, 2, 85, 0
7, 417479, Note_on_c, 2, 81, 0
7, 417540, Note_on_c, 2, 81, 84
7, 417540, Note_on_c, 2, 85, 84
7, 417591, Note_on_c, 2, 81, 0
7, 417591, Note_on_c, 2, 85, 0
7, 417600, Note_on_c, 2, 85, 84
7, 417600, Note_on_c, 2, 81, 84
7, 417704, Note_on_c, 2, 85, 0
7, 417704, Note_on_c, 2, 81, 0
7, 417720, Note_on_c, 2, 81, 84
7, 417720, Note_on_c, 2, 85, 84
7, 417839, Note_on_c, 2, 81, 0
7, 417839, Note_on_c, 2, 85, 0
7, 417900, Note_on_c, 2, 85, 84
7, 417900, Note_on_c, 2, 81, 84
7, 417951, Note_on_c, 2, 85, 0
7, 417951, Note_on_c, 2, 81, 0
7, 417960, Note_on_c, 2, 81, 84
7, 417960, Note_on_c, 2, 85, 84
7, 418064, Note_on_c, 2, 81, 0
7, 418064, Note_on_c, 2, 85, 0
7, 418080, Note_on_c, 2, 85, 84
7, 418080, Note_on_c, 2, 81, 84
7, 418199, Note_on_c, 2, 85, 0
7, 418199, Note_on_c, 2, 81, 0
7, 418260, Note_on_c, 2, 85, 84
7, 418260, Note_on_c, 2, 81, 84
7, 418311, Note_on_c, 2, 85, 0
7, 418311, Note_on_c, 2, 81, 0
7, 418320, Note_on_c, 2, 85, 84
7, 418320, Note_on_c, 2, 81, 84
7, 418424, Note_on_c, 2, 85, 0
7, 418424, Note_on_c, 2, 81, 0
7, 418440, Note_on_c, 2, 85, 84
7, 418440, Note_on_c, 2, 81, 84
7, 418559, Note_on_c, 2, 85, 0
7, 418559, Note_on_c, 2, 81, 0
7, 418620, Note_on_c, 2, 85, 84
7, 418620, Note_on_c, 2, 81, 84
7, 418671, Note_on_c, 2, 85, 0
7, 418671, Note_on_c, 2, 81, 0
7, 418680, Note_on_c, 2, 81, 84
7, 418680, Note_on_c, 2, 85, 84
7, 418784, Note_on_c, 2, 81, 0
7, 418784, Note_on_c, 2, 85, 0
7, 418800, Note_on_c, 2, 85, 84
7, 418800, Note_on_c, 2, 76, 84
7, 419039, Note_on_c, 2, 85, 0
7, 419039, Note_on_c, 2, 76, 0
7, 419520, Note_on_c, 2, 76, 84
7, 419759, Note_on_c, 2, 76, 0
7, 420240, Note_on_c, 2, 73, 84
7, 420479, Note_on_c, 2, 73, 0
7, 420479, End_track
8, 0, Start_track
8, 0, Title_t, "Clarinet in A"
8, 0, MIDI_port, 0
8, 0, Program_c, 3, 71
8, 0, Control_c, 3, 7, 84
8, 0, Control_c, 3, 11, 127
8, 0, Control_c, 3, 10, 75
8, 0, Note_on_c, 3, 81, 76
8, 0, Note_on_c, 3, 73, 76
8, 60, Control_c, 3, 11, 80
8, 179, Note_on_c, 3, 81, 0
8, 179, Note_on_c, 3, 73, 0
8, 960, Note_on_c, 3, 76, 76
8, 1439, Note_on_c, 3, 76, 0
8, 1440, Note_on_c, 3, 71, 76
8, 1918, Control_c, 3, 11, 127
8, 1919, Note_on_c, 3, 71, 0
8, 1920, Note_on_c, 3, 64, 76
8, 1980, Control_c, 3, 11, 80
8, 2399, Note_on_c, 3, 64, 0
8, 2400, Note_on_c, 3, 74, 76
8, 2869, Note_on_c, 3, 74, 0
8, 2880, Note_on_c, 3, 73, 76
8, 3838, Control_c, 3, 11, 127
8, 3900, Control_c, 3, 11, 80
8, 3959, Note_on_c, 3, 73, 0
8, 3960, Note_on_c, 3, 71, 76
8, 4079, Note_on_c, 3, 71, 0
8, 4080, Note_on_c, 3, 69, 76
8, 4199, Note_on_c, 3, 69, 0
8, 4200, Note_on_c, 3, 71, 76
8, 4319, Note_on_c, 3, 71, 0
8, 4320, Note_on_c, 3, 73, 76
8, 4439, Note_on_c, 3, 73, 0
8, 4440, Note_on_c, 3, 74, 76
8, 4559, Note_on_c, 3, 74, 0
8, 4560, Note_on_c, 3, 69, 76
8, 4560, Note_on_c, 3, 76, 76
8, 4679, Note_on_c, 3, 76, 0
8, 4680, Note_on_c, 3, 73, 76
8, 4789, Note_on_c, 3, 69, 0
8, 4789, Note_on_c, 3, 73, 0
8, 4800, Note_on_c, 3, 74, 76
8, 4800, Note_on_c, 3, 69, 76
8, 5039, Note_on_c, 3, 74, 0
8, 5039, Note_on_c, 3, 69, 0
8, 5040, Note_on_c, 3, 62, 76
8, 5520, Note_on_c, 3, 57, 76
8, 5758, Control_c, 3, 11, 127
8, 5759, Note_on_c, 3, 57, 0
8, 5760, Note_on_c, 3, 59, 76
8, 5820, Control_c, 3, 11, 80
8, 6239, Note_on_c, 3, 62, 0
8, 6239, Note_on_c, 3, 59, 0
8, 6240, Note_on_c, 3, 64, 76
8, 6240, Note_on_c, 3, 60, 76
8, 6479, Note_on_c, 3, 64, 0
8, 6480, Note_on_c, 3, 67, 76
8, 6709, Note_on_c, 3, 60, 0
8, 6709, Note_on_c, 3, 67, 0
8, 6720, Note_on_c, 3, 69, 76
8, 6720, Note_on_c, 3, 60, 76
8, 7429, Note_on_c, 3, 69, 0
8, 7439, Note_on_c, 3, 60, 0
8, 7440, Note_on_c, 3, 57, 76
8, 7440, Note_on_c, 3, 69, 76
8, 7679, Note_on_c, 3, 57, 0
8, 7679, Note_on_c, 3, 69, 0
8, 7680, Control_c, 3, 11, 80
8, 7680, Note_on_c, 3, 64, 76
8, 7740, Control_c, 3, 11, 79
8, 7800, Control_c, 3, 11, 78
8, 7860, Control_c, 3, 11, 77
8, 7919, Note_on_c, 3, 64, 0
8, 7920, Control_c, 3, 11, 76
8, 7980, Control_c, 3, 11, 75
8, 8040, Control_c, 3, 11, 74
8, 8100, Control_c, 3, 11, 73
8, 8160, Control_c, 3, 11, 72
8, 8220, Control_c, 3, 11, 71
8, 8280, Control_c, 3, 11, 70
8, 8340, Control_c, 3, 11, 69
8, 8400, Control_c, 3, 11, 68
8, 8460, Control_c, 3, 11, 67
8, 8520, Control_c, 3, 11, 66
8, 8580, Control_c, 3, 11, 64
8, 9360, Control_c, 3, 11, 127
8, 9600, Note_on_c, 3, 69, 44
8, 9600, Note_on_c, 3, 73, 44
8, 10079, Note_on_c, 3, 69, 0
8, 10079, Note_on_c, 3, 73, 0
8, 10080, Note_on_c, 3, 69, 44
8, 10080, Note_on_c, 3, 64, 44
8, 10559, Note_on_c, 3, 69, 0
8, 10559, Note_on_c, 3, 64, 0
8, 10560, Note_on_c, 3, 61, 44
8, 10560, Note_on_c, 3, 64, 44
8, 10799, Note_on_c, 3, 61, 0
8, 10799, Note_on_c, 3, 64, 0
8, 11520, Note_on_c, 3, 74, 44
8, 11520, Note_on_c, 3, 71, 44
8, 11999, Note_on_c, 3, 74, 0
8, 11999, Note_on_c, 3, 71, 0
8, 12000, Note_on_c, 3, 68, 44
8, 12000, Note_on_c, 3, 71, 44
8, 12469, Note_on_c, 3, 68, 0
8, 12469, Note_on_c, 3, 71, 0
8, 12480, Note_on_c, 3, 68, 44
8, 12524, Note_on_c, 3, 68, 0
8, 12540, Note_on_c, 3, 68, 46
8, 12584, Note_on_c, 3, 68, 0
8, 12600, Note_on_c, 3, 69, 49
8, 12644, Note_on_c, 3, 69, 0
8, 12660, Note_on_c, 3, 71, 51
8, 12704, Note_on_c, 3, 71, 0
8, 12720, Note_on_c, 3, 73, 54
8, 12764, Note_on_c, 3, 73, 0
8, 12780, Note_on_c, 3, 74, 56
8, 12824, Note_on_c, 3, 74, 0
8, 12840, Note_on_c, 3, 76, 59
8, 12884, Note_on_c, 3, 76, 0
8, 12900, Note_on_c, 3, 78, 61
8, 12944, Note_on_c, 3, 78, 0
8, 12960, Note_on_c, 3, 80, 64
8, 12960, Note_on_c, 3, 71, 64
8, 13004, Note_on_c, 3, 80, 0
8, 13004, Note_on_c, 3, 71, 0
8, 13020, Note_on_c, 3, 74, 66
8, 13020, Note_on_c, 3, 71, 66
8, 13064, Note_on_c, 3, 74, 0
8, 13064, Note_on_c, 3, 71, 0
8, 13080, Note_on_c, 3, 71, 69
8, 13080, Note_on_c, 3, 74, 69
8, 13124, Note_on_c, 3, 71, 0
8, 13124, Note_on_c, 3, 74, 0
8, 13140, Note_on_c, 3, 71, 71
8, 13140, Note_on_c, 3, 74, 71
8, 13184, Note_on_c, 3, 71, 0
8, 13184, Note_on_c, 3, 74, 0
8, 13200, Note_on_c, 3, 74, 74
8, 13200, Note_on_c, 3, 71, 74
8, 13244, Note_on_c, 3, 74, 0
8, 13244, Note_on_c, 3, 71, 0
8, 13260, Note_on_c, 3, 71, 76
8, 13260, Note_on_c, 3, 74, 76
8, 13304, Note_on_c, 3, 71, 0
8, 13304, Note_on_c, 3, 74, 0
8, 13320, Note_on_c, 3, 74, 79
8, 13320, Note_on_c, 3, 71, 79
8, 13364, Note_on_c, 3, 74, 0
8, 13364, Note_on_c, 3, 71, 0
8, 13380, Note_on_c, 3, 71, 81
8, 13380, Note_on_c, 3, 74, 81
8, 13424, Note_on_c, 3, 71, 0
8, 13424, Note_on_c, 3, 74, 0
8, 13440, Note_on_c, 3, 69, 84
8, 13440, Note_on_c, 3, 73, 84
8, 14639, Note_on_c, 3, 69, 0
8, 14639, Note_on_c, 3, 73, 0
8, 15360, Note_on_c, 3, 76, 84
8, 15360, Note_on_c, 3, 71, 84
8, 16319, Note_on_c, 3, 71, 0
8, 16320, Note_on_c, 3, 73, 84
8, 16559, Note_on_c, 3, 76, 0
8, 16559, Note_on_c, 3, 73, 0
8, 17280, Note_on_c, 3, 69, 84
8, 17280, Note_on_c, 3, 81, 84
8, 18479, Note_on_c, 3, 69, 0
8, 18479, Note_on_c, 3, 81, 0
8, 19200, Note_on_c, 3, 74, 84
8, 19200, Note_on_c, 3, 71, 84
8, 20149, Note_on_c, 3, 74, 0
8, 20149, Note_on_c, 3, 71, 0
8, 20160, Note_on_c, 3, 76, 84
8, 20160, Note_on_c, 3, 72, 84
8, 20399, Note_on_c, 3, 76, 0
8, 20399, Note_on_c, 3, 72, 0
8, 21120, Note_on_c, 3, 67, 48
8, 21120, Note_on_c, 3, 62, 48
8, 21589, Note_on_c, 3, 67, 0
8, 21589, Note_on_c, 3, 62, 0
8, 21600, Note_on_c, 3, 67, 48
8, 21600, Note_on_c, 3, 62, 48
8, 21829, Note_on_c, 3, 67, 0
8, 21829, Note_on_c, 3, 62, 0
8, 21840, Note_on_c, 3, 67, 48
8, 21840, Note_on_c, 3, 62, 48
8, 21949, Note_on_c, 3, 67, 0
8, 21949, Note_on_c, 3, 62, 0
8, 21960, Note_on_c, 3, 62, 48
8, 21960, Note_on_c, 3, 67, 48
8, 22069, Note_on_c, 3, 62, 0
8, 22069, Note_on_c, 3, 67, 0
8, 22080, Note_on_c, 3, 67, 48
8, 22080, Note_on_c, 3, 64, 48
8, 22439, Note_on_c, 3, 67, 0
8, 22439, Note_on_c, 3, 64, 0
8, 22500, Note_on_c, 3, 64, 48
8, 22500, Note_on_c, 3, 67, 48
8, 22553, Note_on_c, 3, 64, 0
8, 22553, Note_on_c, 3, 67, 0
8, 22560, Note_on_c, 3, 67, 48
8, 22560, Note_on_c, 3, 64, 48
8, 22919, Note_on_c, 3, 67, 0
8, 22919, Note_on_c, 3, 64, 0
8, 22980, Note_on_c, 3, 64, 48
8, 22980, Note_on_c, 3, 67, 48
8, 23033, Note_on_c, 3, 64, 0
8, 23033, Note_on_c, 3, 67, 0
8, 23040, Note_on_c, 3, 67, 48
8, 23040, Note_on_c, 3, 62, 48
8, 23509, Note_on_c, 3, 67, 0
8, 23509, Note_on_c, 3, 62, 0
8, 23520, Note_on_c, 3, 67, 48
8, 23520, Note_on_c, 3, 62, 48
8, 23749, Note_on_c, 3, 67, 0
8, 23749, Note_on_c, 3, 62, 0
8, 23760, Note_on_c, 3, 62, 48
8, 23760, Note_on_c, 3, 67, 48
8, 23869, Note_on_c, 3, 62, 0
8, 23869, Note_on_c, 3, 67, 0
8, 23880, Note_on_c, 3, 67, 48
8, 23880, Note_on_c, 3, 62, 48
8, 23989, Note_on_c, 3, 67, 0
8, 23989, Note_on_c, 3, 62, 0
8, 24000, Note_on_c, 3, 67, 48
8, 24000, Note_on_c, 3, 64, 48
8, 24359, Note_on_c, 3, 67, 0
8, 24359, Note_on_c, 3, 64, 0
8, 24420, Note_on_c, 3, 64, 48
8, 24420, Note_on_c, 3, 67, 48
8, 24473, Note_on_c, 3, 64, 0
8, 24473, Note_on_c, 3, 67, 0
8, 24480, Note_on_c, 3, 67, 48
8, 24839, Note_on_c, 3, 67, 0
8, 24900, Note_on_c, 3, 67, 48
8, 24953, Note_on_c, 3, 67, 0
8, 24960, Note_on_c, 3, 65, 48
8, 24960, Note_on_c, 3, 69, 48
8, 25319, Note_on_c, 3, 65, 0
8, 25319, Note_on_c, 3, 69, 0
8, 25380, Note_on_c, 3, 69, 48
8, 25380, Note_on_c, 3, 65, 48
8, 25433, Note_on_c, 3, 69, 0
8, 25433, Note_on_c, 3, 65, 0
8, 25440, Note_on_c, 3, 69, 48
8, 25440, Note_on_c, 3, 65, 48
8, 25799, Note_on_c, 3, 69, 0
8, 25799, Note_on_c, 3, 65, 0
8, 25860, Note_on_c, 3, 65, 48
8, 25860, Note_on_c, 3, 69, 48
8, 25913, Note_on_c, 3, 65, 0
8, 25913, Note_on_c, 3, 69, 0
8, 25920, Note_on_c, 3, 64, 48
8, 25920, Note_on_c, 3, 67, 48
8, 26279, Note_on_c, 3, 64, 0
8, 26279, Note_on_c, 3, 67, 0
8, 26340, Note_on_c, 3, 67, 48
8, 26340, Note_on_c, 3, 64, 48
8, 26393, Note_on_c, 3, 67, 0
8, 26393, Note_on_c, 3, 64, 0
8, 26400, Note_on_c, 3, 62, 48
8, 26400, Note_on_c, 3, 67, 48
8, 26759, Note_on_c, 3, 62, 0
8, 26759, Note_on_c, 3, 67, 0
8, 31440, Note_on_c, 3, 62, 77
8, 31440, Note_on_c, 3, 71, 77
8, 31493, Note_on_c, 3, 62, 0
8, 31493, Note_on_c, 3, 71, 0
8, 31500, Note_on_c, 3, 71, 79
8, 31500, Note_on_c, 3, 62, 79
8, 31553, Note_on_c, 3, 71, 0
8, 31553, Note_on_c, 3, 62, 0
8, 31560, Note_on_c, 3, 62, 80
8, 31560, Note_on_c, 3, 71, 80
8, 31613, Note_on_c, 3, 62, 0
8, 31613, Note_on_c, 3, 71, 0
8, 31620, Note_on_c, 3, 62, 82
8, 31620, Note_on_c, 3, 71, 82
8, 31673, Note_on_c, 3, 62, 0
8, 31673, Note_on_c, 3, 71, 0
8, 31680, Note_on_c, 3, 71, 84
8, 31680, Note_on_c, 3, 64, 84
8, 32149, Note_on_c, 3, 71, 0
8, 32149, Note_on_c, 3, 64, 0
8, 32160, Note_on_c, 3, 76, 92
8, 32220, Control_c, 3, 11, 112
8, 32629, Note_on_c, 3, 76, 0
8, 32638, Control_c, 3, 11, 127
8, 32640, Note_on_c, 3, 71, 92
8, 32700, Control_c, 3, 11, 112
8, 33109, Note_on_c, 3, 71, 0
8, 33118, Control_c, 3, 11, 127
8, 33120, Note_on_c, 3, 64, 92
8, 33180, Control_c, 3, 11, 112
8, 33589, Note_on_c, 3, 64, 0
8, 33598, Control_c, 3, 11, 127
8, 33600, Note_on_c, 3, 76, 92
8, 33660, Control_c, 3, 11, 112
8, 34069, Note_on_c, 3, 76, 0
8, 34078, Control_c, 3, 11, 127
8, 34080, Note_on_c, 3, 78, 92
8, 34140, Control_c, 3, 11, 112
8, 34549, Note_on_c, 3, 78, 0
8, 34558, Control_c, 3, 11, 127
8, 34560, Note_on_c, 3, 73, 92
8, 34620, Control_c, 3, 11, 112
8, 35029, Note_on_c, 3, 73, 0
8, 35038, Control_c, 3, 11, 127
8, 35040, Note_on_c, 3, 64, 92
8, 35100, Control_c, 3, 11, 112
8, 35509, Note_on_c, 3, 64, 0
8, 35518, Control_c, 3, 11, 127
8, 35520, Note_on_c, 3, 76, 92
8, 35580, Control_c, 3, 11, 112
8, 35989, Note_on_c, 3, 76, 0
8, 35998, Control_c, 3, 11, 127
8, 36000, Note_on_c, 3, 79, 92
8, 36060, Control_c, 3, 11, 112
8, 36469, Note_on_c, 3, 79, 0
8, 36480, Note_on_c, 3, 76, 92
8, 36540, Control_c, 3, 11, 112
8, 36949, Note_on_c, 3, 76, 0
8, 36958, Control_c, 3, 11, 127
8, 36960, Note_on_c, 3, 64, 92
8, 37020, Control_c, 3, 11, 112
8, 37429, Note_on_c, 3, 64, 0
8, 37438, Control_c, 3, 11, 127
8, 37440, Note_on_c, 3, 76, 92
8, 37500, Control_c, 3, 11, 112
8, 37909, Note_on_c, 3, 76, 0
8, 37918, Control_c, 3, 11, 127
8, 37920, Note_on_c, 3, 79, 92
8, 37980, Control_c, 3, 11, 112
8, 38389, Note_on_c, 3, 79, 0
8, 38398, Control_c, 3, 11, 127
8, 38400, Note_on_c, 3, 76, 52
8, 38639, Note_on_c, 3, 76, 0
8, 39360, Note_on_c, 3, 70, 48
8, 39360, Note_on_c, 3, 67, 48
8, 39829, Note_on_c, 3, 70, 0
8, 39829, Note_on_c, 3, 67, 0
8, 39840, Note_on_c, 3, 70, 48
8, 39840, Note_on_c, 3, 67, 48
8, 40069, Note_on_c, 3, 70, 0
8, 40069, Note_on_c, 3, 67, 0
8, 40080, Note_on_c, 3, 67, 48
8, 40080, Note_on_c, 3, 70, 48
8, 40189, Note_on_c, 3, 67, 0
8, 40189, Note_on_c, 3, 70, 0
8, 40200, Note_on_c, 3, 70, 48
8, 40200, Note_on_c, 3, 67, 48
8, 40309, Note_on_c, 3, 70, 0
8, 40309, Note_on_c, 3, 67, 0
8, 40320, Note_on_c, 3, 69, 48
8, 40320, Note_on_c, 3, 65, 48
8, 40679, Note_on_c, 3, 69, 0
8, 40679, Note_on_c, 3, 65, 0
8, 40740, Note_on_c, 3, 65, 48
8, 40740, Note_on_c, 3, 69, 48
8, 40793, Note_on_c, 3, 65, 0
8, 40793, Note_on_c, 3, 69, 0
8, 40800, Note_on_c, 3, 69, 48
8, 40800, Note_on_c, 3, 65, 48
8, 41159, Note_on_c, 3, 69, 0
8, 41159, Note_on_c, 3, 65, 0
8, 41220, Note_on_c, 3, 69, 48
8, 41220, Note_on_c, 3, 65, 48
8, 41273, Note_on_c, 3, 69, 0
8, 41273, Note_on_c, 3, 65, 0
8, 41280, Note_on_c, 3, 67, 48
8, 41280, Note_on_c, 3, 70, 48
8, 41749, Note_on_c, 3, 67, 0
8, 41749, Note_on_c, 3, 70, 0
8, 41760, Note_on_c, 3, 70, 48
8, 41760, Note_on_c, 3, 67, 48
8, 41989, Note_on_c, 3, 70, 0
8, 41989, Note_on_c, 3, 67, 0
8, 42000, Note_on_c, 3, 67, 48
8, 42000, Note_on_c, 3, 70, 48
8, 42109, Note_on_c, 3, 67, 0
8, 42109, Note_on_c, 3, 70, 0
8, 42120, Note_on_c, 3, 67, 48
8, 42120, Note_on_c, 3, 70, 48
8, 42229, Note_on_c, 3, 67, 0
8, 42229, Note_on_c, 3, 70, 0
8, 42240, Note_on_c, 3, 65, 48
8, 42240, Note_on_c, 3, 69, 48
8, 42599, Note_on_c, 3, 65, 0
8, 42599, Note_on_c, 3, 69, 0
8, 42660, Note_on_c, 3, 69, 48
8, 42660, Note_on_c, 3, 65, 48
8, 42713, Note_on_c, 3, 69, 0
8, 42713, Note_on_c, 3, 65, 0
8, 42720, Note_on_c, 3, 69, 48
8, 42720, Note_on_c, 3, 65, 48
8, 43079, Note_on_c, 3, 69, 0
8, 43079, Note_on_c, 3, 65, 0
8, 43140, Note_on_c, 3, 69, 48
8, 43140, Note_on_c, 3, 65, 48
8, 43193, Note_on_c, 3, 69, 0
8, 43193, Note_on_c, 3, 65, 0
8, 43200, Note_on_c, 3, 67, 48
8, 43200, Note_on_c, 3, 65, 48
8, 43559, Note_on_c, 3, 67, 0
8, 43559, Note_on_c, 3, 65, 0
8, 43620, Note_on_c, 3, 65, 48
8, 43620, Note_on_c, 3, 67, 48
8, 43673, Note_on_c, 3, 65, 0
8, 43673, Note_on_c, 3, 67, 0
8, 43680, Note_on_c, 3, 67, 48
8, 43680, Note_on_c, 3, 65, 48
8, 44039, Note_on_c, 3, 67, 0
8, 44039, Note_on_c, 3, 65, 0
8, 44100, Note_on_c, 3, 65, 48
8, 44100, Note_on_c, 3, 67, 48
8, 44153, Note_on_c, 3, 65, 0
8, 44153, Note_on_c, 3, 67, 0
8, 44160, Note_on_c, 3, 69, 48
8, 44160, Note_on_c, 3, 65, 48
8, 44519, Note_on_c, 3, 69, 0
8, 44519, Note_on_c, 3, 65, 0
8, 44580, Note_on_c, 3, 65, 48
8, 44580, Note_on_c, 3, 69, 48
8, 44633, Note_on_c, 3, 65, 0
8, 44633, Note_on_c, 3, 69, 0
8, 44640, Note_on_c, 3, 67, 48
8, 44640, Note_on_c, 3, 64, 48
8, 44999, Note_on_c, 3, 67, 0
8, 44999, Note_on_c, 3, 64, 0
8, 48720, Control_c, 3, 11, 107
8, 48996, Control_c, 3, 11, 108
8, 49045, Control_c, 3, 11, 109
8, 49094, Control_c, 3, 11, 110
8, 49142, Control_c, 3, 11, 111
8, 49191, Control_c, 3, 11, 112
8, 49200, Note_on_c, 3, 81, 84
8, 49200, Note_on_c, 3, 72, 84
8, 49239, Control_c, 3, 11, 113
8, 49253, Note_on_c, 3, 81, 0
8, 49253, Note_on_c, 3, 72, 0
8, 49260, Note_on_c, 3, 72, 84
8, 49260, Note_on_c, 3, 81, 84
8, 49288, Control_c, 3, 11, 114
8, 49313, Note_on_c, 3, 72, 0
8, 49313, Note_on_c, 3, 81, 0
8, 49320, Note_on_c, 3, 72, 84
8, 49320, Note_on_c, 3, 81, 84
8, 49337, Control_c, 3, 11, 115
8, 49373, Note_on_c, 3, 72, 0
8, 49373, Note_on_c, 3, 81, 0
8, 49380, Note_on_c, 3, 72, 84
8, 49380, Note_on_c, 3, 81, 84
8, 49385, Control_c, 3, 11, 116
8, 49433, Note_on_c, 3, 72, 0
8, 49433, Note_on_c, 3, 81, 0
8, 49434, Control_c, 3, 11, 117
8, 49440, Note_on_c, 3, 81, 84
8, 49440, Note_on_c, 3, 72, 84
8, 49483, Control_c, 3, 11, 118
8, 49531, Control_c, 3, 11, 119
8, 49559, Note_on_c, 3, 81, 0
8, 49559, Note_on_c, 3, 72, 0
8, 49580, Control_c, 3, 11, 120
8, 49628, Control_c, 3, 11, 121
8, 49677, Control_c, 3, 11, 122
8, 49680, Note_on_c, 3, 81, 84
8, 49680, Note_on_c, 3, 72, 84
8, 49726, Control_c, 3, 11, 123
8, 49733, Note_on_c, 3, 81, 0
8, 49733, Note_on_c, 3, 72, 0
8, 49740, Note_on_c, 3, 72, 84
8, 49740, Note_on_c, 3, 81, 84
8, 49774, Control_c, 3, 11, 124
8, 49793, Note_on_c, 3, 72, 0
8, 49793, Note_on_c, 3, 81, 0
8, 49800, Note_on_c, 3, 69, 84
8, 49800, Note_on_c, 3, 81, 84
8, 49823, Control_c, 3, 11, 125
8, 49853, Note_on_c, 3, 69, 0
8, 49853, Note_on_c, 3, 81, 0
8, 49860, Note_on_c, 3, 81, 84
8, 49860, Note_on_c, 3, 69, 84
8, 49871, Control_c, 3, 11, 127
8, 49913, Note_on_c, 3, 81, 0
8, 49913, Note_on_c, 3, 69, 0
8, 49920, Note_on_c, 3, 64, 84
8, 49920, Note_on_c, 3, 76, 84
8, 50039, Note_on_c, 3, 64, 0
8, 50039, Note_on_c, 3, 76, 0
8, 50880, Note_on_c, 3, 68, 52
8, 51349, Note_on_c, 3, 68, 0
8, 51360, Note_on_c, 3, 68, 52
8, 51360, Note_on_c, 3, 64, 52
8, 51599, Note_on_c, 3, 68, 0
8, 51599, Note_on_c, 3, 64, 0
8, 51600, Note_on_c, 3, 71, 52
8, 51600, Note_on_c, 3, 68, 52
8, 51779, Note_on_c, 3, 71, 0
8, 51779, Note_on_c, 3, 68, 0
8, 51780, Note_on_c, 3, 69, 52
8, 51780, Note_on_c, 3, 66, 52
8, 51839, Note_on_c, 3, 69, 0
8, 51839, Note_on_c, 3, 66, 0
8, 51840, Note_on_c, 3, 68, 52
8, 51840, Note_on_c, 3, 64, 52
8, 51959, Note_on_c, 3, 68, 0
8, 51959, Note_on_c, 3, 64, 0
8, 52800, Note_on_c, 3, 68, 52
8, 53269, Note_on_c, 3, 68, 0
8, 53280, Note_on_c, 3, 64, 52
8, 53280, Note_on_c, 3, 68, 52
8, 53519, Note_on_c, 3, 64, 0
8, 53519, Note_on_c, 3, 68, 0
8, 53520, Note_on_c, 3, 71, 52
8, 53520, Note_on_c, 3, 68, 52
8, 53699, Note_on_c, 3, 71, 0
8, 53699, Note_on_c, 3, 68, 0
8, 53700, Note_on_c, 3, 66, 52
8, 53700, Note_on_c, 3, 69, 52
8, 53759, Note_on_c, 3, 66, 0
8, 53759, Note_on_c, 3, 69, 0
8, 53760, Note_on_c, 3, 64, 52
8, 53760, Note_on_c, 3, 68, 52
8, 53999, Note_on_c, 3, 64, 0
8, 53999, Note_on_c, 3, 68, 0
8, 62040, Note_on_c, 3, 73, 60
8, 62040, Note_on_c, 3, 76, 60
8, 62211, Note_on_c, 3, 73, 0
8, 62211, Note_on_c, 3, 76, 0
8, 62220, Note_on_c, 3, 76, 64
8, 62220, Note_on_c, 3, 73, 64
8, 62271, Note_on_c, 3, 76, 0
8, 62271, Note_on_c, 3, 73, 0
8, 62280, Note_on_c, 3, 73, 65
8, 62280, Note_on_c, 3, 76, 65
8, 62384, Note_on_c, 3, 73, 0
8, 62384, Note_on_c, 3, 76, 0
8, 62400, Note_on_c, 3, 73, 52
8, 62400, Note_on_c, 3, 76, 52
8, 63104, Note_on_c, 3, 73, 0
8, 63104, Note_on_c, 3, 76, 0
8, 63120, Note_on_c, 3, 71, 52
8, 63120, Note_on_c, 3, 74, 52
8, 63824, Note_on_c, 3, 71, 0
8, 63824, Note_on_c, 3, 74, 0
8, 63840, Note_on_c, 3, 73, 52
8, 63840, Note_on_c, 3, 69, 52
8, 64064, Note_on_c, 3, 73, 0
8, 64064, Note_on_c, 3, 69, 0
8, 64080, Note_on_c, 3, 73, 52
8, 64080, Note_on_c, 3, 76, 52
8, 64184, Note_on_c, 3, 73, 0
8, 64184, Note_on_c, 3, 76, 0
8, 64200, Note_on_c, 3, 76, 52
8, 64200, Note_on_c, 3, 73, 52
8, 64371, Note_on_c, 3, 76, 0
8, 64371, Note_on_c, 3, 73, 0
8, 64380, Note_on_c, 3, 71, 52
8, 64380, Note_on_c, 3, 74, 52
8, 64424, Note_on_c, 3, 71, 0
8, 64424, Note_on_c, 3, 74, 0
8, 64440, Note_on_c, 3, 73, 52
8, 64440, Note_on_c, 3, 69, 52
8, 64529, Note_on_c, 3, 73, 0
8, 64529, Note_on_c, 3, 69, 0
8, 64560, Note_on_c, 3, 69, 52
8, 64560, Note_on_c, 3, 73, 52
8, 64679, Note_on_c, 3, 69, 0
8, 64679, Note_on_c, 3, 73, 0
8, 64680, Note_on_c, 3, 68, 52
8, 64680, Note_on_c, 3, 71, 52
8, 65091, Note_on_c, 3, 68, 0
8, 65091, Note_on_c, 3, 71, 0
8, 65100, Note_on_c, 3, 69, 52
8, 65100, Note_on_c, 3, 73, 52
8, 65144, Note_on_c, 3, 69, 0
8, 65144, Note_on_c, 3, 73, 0
8, 65160, Note_on_c, 3, 71, 52
8, 65160, Note_on_c, 3, 74, 52
8, 65249, Note_on_c, 3, 71, 0
8, 65249, Note_on_c, 3, 74, 0
8, 65280, Note_on_c, 3, 76, 52
8, 65280, Note_on_c, 3, 73, 52
8, 65984, Note_on_c, 3, 76, 0
8, 65984, Note_on_c, 3, 73, 0
8, 66000, Note_on_c, 3, 71, 52
8, 66000, Note_on_c, 3, 74, 52
8, 66704, Note_on_c, 3, 71, 0
8, 66704, Note_on_c, 3, 74, 0
8, 66720, Note_on_c, 3, 69, 52
8, 66720, Note_on_c, 3, 73, 52
8, 66944, Note_on_c, 3, 69, 0
8, 66944, Note_on_c, 3, 73, 0
8, 66960, Note_on_c, 3, 73, 52
8, 66960, Note_on_c, 3, 69, 52
8, 67064, Note_on_c, 3, 73, 0
8, 67064, Note_on_c, 3, 69, 0
8, 67080, Note_on_c, 3, 73, 52
8, 67080, Note_on_c, 3, 69, 52
8, 67199, Note_on_c, 3, 73, 0
8, 67200, Note_on_c, 3, 76, 52
8, 67304, Note_on_c, 3, 69, 0
8, 67304, Note_on_c, 3, 76, 0
8, 67320, Note_on_c, 3, 68, 52
8, 67320, Note_on_c, 3, 74, 52
8, 67409, Note_on_c, 3, 68, 0
8, 67409, Note_on_c, 3, 74, 0
8, 67440, Note_on_c, 3, 73, 52
8, 67440, Note_on_c, 3, 69, 52
8, 67611, Note_on_c, 3, 73, 0
8, 67611, Note_on_c, 3, 69, 0
8, 67620, Note_on_c, 3, 71, 52
8, 67620, Note_on_c, 3, 74, 52
8, 67671, Note_on_c, 3, 71, 0
8, 67671, Note_on_c, 3, 74, 0
8, 67680, Note_on_c, 3, 76, 52
8, 67680, Note_on_c, 3, 73, 52
8, 67784, Note_on_c, 3, 76, 0
8, 67784, Note_on_c, 3, 73, 0
8, 67800, Note_on_c, 3, 74, 52
8, 67800, Note_on_c, 3, 78, 52
8, 67904, Note_on_c, 3, 74, 0
8, 67904, Note_on_c, 3, 78, 0
8, 67920, Note_on_c, 3, 74, 52
8, 67920, Note_on_c, 3, 78, 52
8, 68024, Note_on_c, 3, 74, 0
8, 68024, Note_on_c, 3, 78, 0
8, 68040, Note_on_c, 3, 78, 52
8, 68040, Note_on_c, 3, 74, 52
8, 68144, Note_on_c, 3, 78, 0
8, 68144, Note_on_c, 3, 74, 0
8, 68160, Note_on_c, 3, 78, 52
8, 68160, Note_on_c, 3, 74, 52
8, 68864, Note_on_c, 3, 78, 0
8, 68864, Note_on_c, 3, 74, 0
8, 68880, Note_on_c, 3, 73, 52
8, 68880, Note_on_c, 3, 76, 52
8, 70304, Note_on_c, 3, 73, 0
8, 70304, Note_on_c, 3, 76, 0
8, 70320, Note_on_c, 3, 78, 52
8, 70320, Note_on_c, 3, 74, 52
8, 71024, Note_on_c, 3, 78, 0
8, 71024, Note_on_c, 3, 74, 0
8, 71040, Note_on_c, 3, 73, 52
8, 71040, Note_on_c, 3, 76, 52
8, 72224, Note_on_c, 3, 73, 0
8, 72224, Note_on_c, 3, 76, 0
8, 72240, Note_on_c, 3, 69, 52
8, 72240, Note_on_c, 3, 73, 52
8, 72344, Note_on_c, 3, 69, 0
8, 72344, Note_on_c, 3, 73, 0
8, 72360, Note_on_c, 3, 69, 52
8, 72360, Note_on_c, 3, 73, 52
8, 72464, Note_on_c, 3, 69, 0
8, 72464, Note_on_c, 3, 73, 0
8, 72480, Note_on_c, 3, 71, 52
8, 72480, Note_on_c, 3, 68, 52
8, 72839, Note_on_c, 3, 71, 0
8, 72839, Note_on_c, 3, 68, 0
8, 72840, Note_on_c, 3, 73, 52
8, 72840, Note_on_c, 3, 69, 52
8, 73184, Note_on_c, 3, 73, 0
8, 73184, Note_on_c, 3, 69, 0
8, 73200, Note_on_c, 3, 71, 76
8, 73200, Note_on_c, 3, 68, 76
8, 73240, Control_c, 3, 11, 124
8, 73280, Control_c, 3, 11, 122
8, 73320, Control_c, 3, 11, 119
8, 73360, Control_c, 3, 11, 117
8, 73400, Control_c, 3, 11, 114
8, 73440, Control_c, 3, 11, 111
8, 73480, Control_c, 3, 11, 109
8, 73520, Control_c, 3, 11, 106
8, 73560, Control_c, 3, 11, 104
8, 73600, Control_c, 3, 11, 101
8, 73640, Control_c, 3, 11, 98
8, 73680, Control_c, 3, 11, 96
8, 73720, Control_c, 3, 11, 93
8, 73760, Control_c, 3, 11, 90
8, 73784, Note_on_c, 3, 71, 0
8, 73784, Note_on_c, 3, 68, 0
8, 73800, Control_c, 3, 11, 88
8, 73800, Note_on_c, 3, 69, 76
8, 73800, Note_on_c, 3, 73, 76
8, 73840, Control_c, 3, 11, 85
8, 73880, Control_c, 3, 11, 80
8, 73904, Note_on_c, 3, 69, 0
8, 73904, Note_on_c, 3, 73, 0
8, 73920, Note_on_c, 3, 68, 76
8, 73920, Note_on_c, 3, 71, 76
8, 74264, Note_on_c, 3, 68, 0
8, 74264, Note_on_c, 3, 71, 0
8, 74280, Note_on_c, 3, 69, 76
8, 74280, Note_on_c, 3, 73, 76
8, 74451, Note_on_c, 3, 69, 0
8, 74451, Note_on_c, 3, 73, 0
8, 74460, Note_on_c, 3, 73, 76
8, 74504, Note_on_c, 3, 73, 0
8, 74520, Note_on_c, 3, 69, 76
8, 74609, Note_on_c, 3, 69, 0
8, 74638, Control_c, 3, 11, 127
8, 74640, Note_on_c, 3, 76, 76
8, 75239, Note_on_c, 3, 76, 0
8, 75360, Note_on_c, 3, 76, 84
8, 75420, Control_c, 3, 11, 112
8, 75959, Note_on_c, 3, 76, 0
8, 76078, Control_c, 3, 11, 127
8, 76080, Note_on_c, 3, 76, 84
8, 76140, Control_c, 3, 11, 112
8, 76319, Note_on_c, 3, 76, 0
8, 76438, Control_c, 3, 11, 127
8, 76440, Note_on_c, 3, 76, 84
8, 76500, Control_c, 3, 11, 112
8, 76679, Note_on_c, 3, 76, 0
8, 76798, Control_c, 3, 11, 127
8, 76800, Note_on_c, 3, 76, 84
8, 76860, Control_c, 3, 11, 112
8, 77039, Note_on_c, 3, 76, 0
8, 77158, Control_c, 3, 11, 127
8, 77160, Note_on_c, 3, 74, 84
8, 77220, Control_c, 3, 11, 112
8, 77279, Note_on_c, 3, 74, 0
8, 77340, Note_on_c, 3, 71, 84
8, 77391, Note_on_c, 3, 71, 0
8, 77400, Note_on_c, 3, 68, 84
8, 77504, Note_on_c, 3, 68, 0
8, 77518, Control_c, 3, 11, 127
8, 77520, Note_on_c, 3, 71, 76
8, 77520, Note_on_c, 3, 74, 76
8, 77879, Note_on_c, 3, 71, 0
8, 77879, Note_on_c, 3, 74, 0
8, 78240, Note_on_c, 3, 61, 84
8, 78240, Note_on_c, 3, 64, 84
8, 78944, Note_on_c, 3, 61, 0
8, 78944, Note_on_c, 3, 64, 0
8, 78960, Note_on_c, 3, 62, 84
8, 78960, Note_on_c, 3, 66, 84
8, 79544, Note_on_c, 3, 62, 0
8, 79544, Note_on_c, 3, 66, 0
8, 79560, Note_on_c, 3, 68, 84
8, 79560, Note_on_c, 3, 59, 84
8, 79664, Note_on_c, 3, 68, 0
8, 79664, Note_on_c, 3, 59, 0
8, 79680, Note_on_c, 3, 69, 84
8, 79680, Note_on_c, 3, 61, 84
8, 80519, Note_on_c, 3, 69, 0
8, 80519, Note_on_c, 3, 61, 0
8, 80520, Note_on_c, 3, 68, 84
8, 80520, Note_on_c, 3, 59, 84
8, 80624, Note_on_c, 3, 68, 0
8, 80624, Note_on_c, 3, 59, 0
8, 80640, Note_on_c, 3, 69, 84
8, 80640, Note_on_c, 3, 66, 84
8, 80729, Note_on_c, 3, 69, 0
8, 80729, Note_on_c, 3, 66, 0
8, 80760, Note_on_c, 3, 68, 84
8, 80760, Note_on_c, 3, 64, 84
8, 80984, Note_on_c, 3, 68, 0
8, 80984, Note_on_c, 3, 64, 0
8, 81000, Note_on_c, 3, 76, 84
8, 81000, Note_on_c, 3, 64, 84
8, 81104, Note_on_c, 3, 76, 0
8, 81104, Note_on_c, 3, 64, 0
8, 81120, Note_on_c, 3, 73, 84
8, 81120, Note_on_c, 3, 76, 84
8, 81824, Note_on_c, 3, 73, 0
8, 81824, Note_on_c, 3, 76, 0
8, 81840, Note_on_c, 3, 78, 84
8, 81840, Note_on_c, 3, 74, 84
8, 82424, Note_on_c, 3, 78, 0
8, 82424, Note_on_c, 3, 74, 0
8, 82440, Note_on_c, 3, 71, 84
8, 82440, Note_on_c, 3, 74, 84
8, 82544, Note_on_c, 3, 71, 0
8, 82544, Note_on_c, 3, 74, 0
8, 82560, Note_on_c, 3, 73, 84
8, 82560, Note_on_c, 3, 69, 84
8, 82784, Note_on_c, 3, 73, 0
8, 82784, Note_on_c, 3, 69, 0
8, 82800, Note_on_c, 3, 73, 84
8, 82800, Note_on_c, 3, 69, 84
8, 82904, Note_on_c, 3, 73, 0
8, 82904, Note_on_c, 3, 69, 0
8, 82920, Note_on_c, 3, 73, 84
8, 82920, Note_on_c, 3, 69, 84
8, 83039, Note_on_c, 3, 73, 0
8, 83039, Note_on_c, 3, 69, 0
8, 83040, Note_on_c, 3, 73, 84
8, 83040, Note_on_c, 3, 76, 84
8, 83144, Note_on_c, 3, 73, 0
8, 83144, Note_on_c, 3, 76, 0
8, 83160, Note_on_c, 3, 74, 84
8, 83160, Note_on_c, 3, 71, 84
8, 83249, Note_on_c, 3, 74, 0
8, 83249, Note_on_c, 3, 71, 0
8, 83280, Note_on_c, 3, 73, 84
8, 83280, Note_on_c, 3, 69, 84
8, 83519, Note_on_c, 3, 73, 0
8, 83519, Note_on_c, 3, 69, 0
8, 83880, Note_on_c, 3, 69, 84
8, 83984, Note_on_c, 3, 69, 0
8, 84000, Note_on_c, 3, 69, 84
8, 84224, Note_on_c, 3, 69, 0
8, 84240, Note_on_c, 3, 69, 84
8, 84344, Note_on_c, 3, 69, 0
8, 84360, Note_on_c, 3, 69, 84
8, 84531, Note_on_c, 3, 69, 0
8, 84540, Note_on_c, 3, 74, 84
8, 84584, Note_on_c, 3, 74, 0
8, 84600, Note_on_c, 3, 78, 84
8, 84689, Note_on_c, 3, 78, 0
8, 84720, Note_on_c, 3, 78, 84
8, 84839, Note_on_c, 3, 78, 0
8, 84840, Note_on_c, 3, 76, 84
8, 84944, Note_on_c, 3, 76, 0
8, 84960, Note_on_c, 3, 73, 84
8, 85049, Note_on_c, 3, 73, 0
8, 85080, Note_on_c, 3, 69, 84
8, 85304, Note_on_c, 3, 69, 0
8, 85320, Note_on_c, 3, 69, 84
8, 85424, Note_on_c, 3, 69, 0
8, 85440, Note_on_c, 3, 69, 84
8, 85611, Note_on_c, 3, 69, 0
8, 85620, Note_on_c, 3, 74, 84
8, 85664, Note_on_c, 3, 74, 0
8, 85680, Note_on_c, 3, 69, 84
8, 85769, Note_on_c, 3, 69, 0
8, 85800, Note_on_c, 3, 69, 84
8, 85971, Note_on_c, 3, 69, 0
8, 85980, Note_on_c, 3, 74, 84
8, 86024, Note_on_c, 3, 74, 0
8, 86040, Note_on_c, 3, 78, 84
8, 86129, Note_on_c, 3, 78, 0
8, 86160, Note_on_c, 3, 78, 84
8, 86279, Note_on_c, 3, 78, 0
8, 86280, Note_on_c, 3, 76, 84
8, 86384, Note_on_c, 3, 76, 0
8, 86400, Note_on_c, 3, 73, 84
8, 86489, Note_on_c, 3, 73, 0
8, 86520, Note_on_c, 3, 69, 84
8, 86744, Note_on_c, 3, 69, 0
8, 86758, Control_c, 3, 11, 64
8, 86760, Note_on_c, 3, 64, 84
8, 86760, Note_on_c, 3, 61, 84
8, 86864, Note_on_c, 3, 64, 0
8, 86864, Note_on_c, 3, 61, 0
8, 86880, Note_on_c, 3, 61, 84
8, 86880, Note_on_c, 3, 64, 84
8, 86880, Control_c, 3, 11, 64
8, 86971, Control_c, 3, 11, 65
8, 87063, Control_c, 3, 11, 66
8, 87154, Control_c, 3, 11, 67
8, 87246, Control_c, 3, 11, 68
8, 87337, Control_c, 3, 11, 69
8, 87429, Control_c, 3, 11, 70
8, 87520, Control_c, 3, 11, 71
8, 87584, Note_on_c, 3, 61, 0
8, 87584, Note_on_c, 3, 64, 0
8, 87600, Note_on_c, 3, 62, 84
8, 87600, Note_on_c, 3, 66, 84
8, 87611, Control_c, 3, 11, 72
8, 87703, Control_c, 3, 11, 73
8, 87794, Control_c, 3, 11, 74
8, 87886, Control_c, 3, 11, 75
8, 87977, Control_c, 3, 11, 76
8, 88069, Control_c, 3, 11, 77
8, 88160, Control_c, 3, 11, 78
8, 88251, Control_c, 3, 11, 79
8, 88304, Note_on_c, 3, 62, 0
8, 88304, Note_on_c, 3, 66, 0
8, 88320, Note_on_c, 3, 68, 84
8, 88320, Note_on_c, 3, 59, 84
8, 88343, Control_c, 3, 11, 80
8, 88434, Control_c, 3, 11, 81
8, 88526, Control_c, 3, 11, 82
8, 88617, Control_c, 3, 11, 83
8, 88709, Control_c, 3, 11, 84
8, 88800, Control_c, 3, 11, 85
8, 88891, Control_c, 3, 11, 86
8, 88983, Control_c, 3, 11, 87
8, 89024, Note_on_c, 3, 68, 0
8, 89024, Note_on_c, 3, 59, 0
8, 89040, Note_on_c, 3, 69, 84
8, 89040, Note_on_c, 3, 61, 84
8, 89074, Control_c, 3, 11, 88
8, 89166, Control_c, 3, 11, 89
8, 89257, Control_c, 3, 11, 90
8, 89349, Control_c, 3, 11, 91
8, 89440, Control_c, 3, 11, 92
8, 89531, Control_c, 3, 11, 93
8, 89623, Control_c, 3, 11, 94
8, 89714, Control_c, 3, 11, 95
8, 89744, Note_on_c, 3, 69, 0
8, 89744, Note_on_c, 3, 61, 0
8, 89760, Note_on_c, 3, 64, 84
8, 89760, Note_on_c, 3, 73, 84
8, 89806, Control_c, 3, 11, 96
8, 89897, Control_c, 3, 11, 97
8, 89989, Control_c, 3, 11, 98
8, 90080, Control_c, 3, 11, 99
8, 90171, Control_c, 3, 11, 100
8, 90263, Control_c, 3, 11, 101
8, 90354, Control_c, 3, 11, 102
8, 90446, Control_c, 3, 11, 103
8, 90464, Note_on_c, 3, 64, 0
8, 90464, Note_on_c, 3, 73, 0
8, 90480, Note_on_c, 3, 74, 84
8, 90480, Note_on_c, 3, 66, 84
8, 90537, Control_c, 3, 11, 104
8, 90629, Control_c, 3, 11, 105
8, 90720, Control_c, 3, 11, 106
8, 90811, Control_c, 3, 11, 107
8, 90903, Control_c, 3, 11, 108
8, 90994, Control_c, 3, 11, 109
8, 91086, Control_c, 3, 11, 110
8, 91177, Control_c, 3, 11, 111
8, 91184, Note_on_c, 3, 74, 0
8, 91184, Note_on_c, 3, 66, 0
8, 91200, Note_on_c, 3, 68, 84
8, 91200, Note_on_c, 3, 71, 84
8, 91269, Control_c, 3, 11, 112
8, 91360, Control_c, 3, 11, 113
8, 91451, Control_c, 3, 11, 114
8, 91543, Control_c, 3, 11, 115
8, 91634, Control_c, 3, 11, 116
8, 91726, Control_c, 3, 11, 117
8, 91817, Control_c, 3, 11, 118
8, 91904, Note_on_c, 3, 68, 0
8, 91904, Note_on_c, 3, 71, 0
8, 91909, Control_c, 3, 11, 119
8, 91920, Note_on_c, 3, 73, 84
8, 91920, Note_on_c, 3, 69, 84
8, 92000, Control_c, 3, 11, 120
8, 92091, Control_c, 3, 11, 121
8, 92183, Control_c, 3, 11, 122
8, 92274, Control_c, 3, 11, 123
8, 92366, Control_c, 3, 11, 124
8, 92457, Control_c, 3, 11, 125
8, 92549, Control_c, 3, 11, 127
8, 92624, Note_on_c, 3, 73, 0
8, 92624, Note_on_c, 3, 69, 0
8, 92640, Note_on_c, 3, 70, 84
8, 92640, Note_on_c, 3, 76, 84
8, 93344, Note_on_c, 3, 70, 0
8, 93344, Note_on_c, 3, 76, 0
8, 93360, Note_on_c, 3, 75, 84
8, 93360, Note_on_c, 3, 71, 84
8, 93824, Note_on_c, 3, 75, 0
8, 93824, Note_on_c, 3, 71, 0
8, 93840, Note_on_c, 3, 75, 52
8, 93944, Note_on_c, 3, 75, 0
8, 93960, Note_on_c, 3, 75, 52
8, 94064, Note_on_c, 3, 75, 0
8, 94080, Note_on_c, 3, 73, 52
8, 94199, Note_on_c, 3, 73, 0
8, 94320, Note_on_c, 3, 73, 52
8, 94424, Note_on_c, 3, 73, 0
8, 94440, Note_on_c, 3, 73, 52
8, 94559, Note_on_c, 3, 73, 0
8, 94680, Note_on_c, 3, 73, 52
8, 94784, Note_on_c, 3, 73, 0
8, 94800, Note_on_c, 3, 75, 52
8, 95039, Note_on_c, 3, 75, 0
8, 96840, Control_c, 3, 11, 80
8, 96960, Control_c, 3, 11, 80
8, 96960, Note_on_c, 3, 68, 76
8, 97000, Control_c, 3, 11, 83
8, 97040, Control_c, 3, 11, 85
8, 97080, Control_c, 3, 11, 88
8, 97120, Control_c, 3, 11, 90
8, 97160, Control_c, 3, 11, 93
8, 97200, Control_c, 3, 11, 96
8, 97240, Control_c, 3, 11, 98
8, 97280, Control_c, 3, 11, 101
8, 97320, Control_c, 3, 11, 104
8, 97360, Control_c, 3, 11, 106
8, 97400, Control_c, 3, 11, 109
8, 97440, Control_c, 3, 11, 111
8, 97480, Control_c, 3, 11, 114
8, 97520, Control_c, 3, 11, 117
8, 97560, Control_c, 3, 11, 119
8, 97600, Control_c, 3, 11, 122
8, 97640, Control_c, 3, 11, 127
8, 97664, Note_on_c, 3, 68, 0
8, 97680, Note_on_c, 3, 67, 76
8, 97919, Note_on_c, 3, 67, 0
8, 100560, Note_on_c, 3, 81, 76
8, 100560, Note_on_c, 3, 69, 76
8, 100784, Note_on_c, 3, 81, 0
8, 100784, Note_on_c, 3, 69, 0
8, 100800, Note_on_c, 3, 81, 76
8, 100800, Note_on_c, 3, 69, 76
8, 100904, Note_on_c, 3, 81, 0
8, 100904, Note_on_c, 3, 69, 0
8, 100920, Note_on_c, 3, 81, 76
8, 100920, Note_on_c, 3, 69, 76
8, 101144, Note_on_c, 3, 81, 0
8, 101144, Note_on_c, 3, 69, 0
8, 101160, Note_on_c, 3, 69, 76
8, 101160, Note_on_c, 3, 81, 76
8, 101264, Note_on_c, 3, 69, 0
8, 101264, Note_on_c, 3, 81, 0
8, 101280, Note_on_c, 3, 68, 76
8, 101280, Note_on_c, 3, 80, 76
8, 101984, Note_on_c, 3, 68, 0
8, 101984, Note_on_c, 3, 80, 0
8, 102000, Note_on_c, 3, 66, 76
8, 102000, Note_on_c, 3, 78, 76
8, 102224, Note_on_c, 3, 66, 0
8, 102224, Note_on_c, 3, 78, 0
8, 102240, Note_on_c, 3, 78, 76
8, 102240, Note_on_c, 3, 66, 76
8, 102344, Note_on_c, 3, 78, 0
8, 102344, Note_on_c, 3, 66, 0
8, 102360, Note_on_c, 3, 78, 76
8, 102360, Note_on_c, 3, 66, 76
8, 102584, Note_on_c, 3, 78, 0
8, 102584, Note_on_c, 3, 66, 0
8, 102600, Note_on_c, 3, 78, 76
8, 102600, Note_on_c, 3, 66, 76
8, 102704, Note_on_c, 3, 78, 0
8, 102704, Note_on_c, 3, 66, 0
8, 102720, Note_on_c, 3, 76, 76
8, 102720, Note_on_c, 3, 64, 76
8, 102944, Note_on_c, 3, 76, 0
8, 102944, Note_on_c, 3, 64, 0
8, 102960, Note_on_c, 3, 64, 76
8, 102960, Note_on_c, 3, 69, 76
8, 103064, Note_on_c, 3, 64, 0
8, 103064, Note_on_c, 3, 69, 0
8, 103080, Note_on_c, 3, 69, 76
8, 103080, Note_on_c, 3, 64, 76
8, 103304, Note_on_c, 3, 69, 0
8, 103304, Note_on_c, 3, 64, 0
8, 103320, Note_on_c, 3, 64, 76
8, 103320, Note_on_c, 3, 69, 76
8, 103424, Note_on_c, 3, 64, 0
8, 103424, Note_on_c, 3, 69, 0
8, 103440, Note_on_c, 3, 69, 76
8, 103440, Note_on_c, 3, 66, 76
8, 103544, Note_on_c, 3, 69, 0
8, 103544, Note_on_c, 3, 66, 0
8, 103560, Note_on_c, 3, 69, 76
8, 103560, Note_on_c, 3, 66, 76
8, 103679, Note_on_c, 3, 69, 0
8, 103679, Note_on_c, 3, 66, 0
8, 103800, Note_on_c, 3, 66, 76
8, 103800, Note_on_c, 3, 69, 76
8, 103904, Note_on_c, 3, 66, 0
8, 103904, Note_on_c, 3, 69, 0
8, 103920, Note_on_c, 3, 69, 76
8, 103920, Note_on_c, 3, 66, 76
8, 104039, Note_on_c, 3, 69, 0
8, 104039, Note_on_c, 3, 66, 0
8, 104160, Note_on_c, 3, 64, 76
8, 104160, Note_on_c, 3, 68, 76
8, 104264, Note_on_c, 3, 64, 0
8, 104264, Note_on_c, 3, 68, 0
8, 104280, Note_on_c, 3, 68, 76
8, 104280, Note_on_c, 3, 64, 76
8, 104399, Note_on_c, 3, 68, 0
8, 104399, Note_on_c, 3, 64, 0
8, 104520, Note_on_c, 3, 68, 76
8, 104520, Note_on_c, 3, 64, 76
8, 104624, Note_on_c, 3, 68, 0
8, 104624, Note_on_c, 3, 64, 0
8, 104640, Note_on_c, 3, 64, 76
8, 104640, Note_on_c, 3, 68, 76
8, 104759, Note_on_c, 3, 64, 0
8, 104759, Note_on_c, 3, 68, 0
8, 104880, Note_on_c, 3, 66, 76
8, 104880, Note_on_c, 3, 69, 76
8, 104984, Note_on_c, 3, 66, 0
8, 104984, Note_on_c, 3, 69, 0
8, 105000, Note_on_c, 3, 69, 76
8, 105000, Note_on_c, 3, 66, 76
8, 105119, Note_on_c, 3, 69, 0
8, 105119, Note_on_c, 3, 66, 0
8, 105240, Note_on_c, 3, 69, 76
8, 105240, Note_on_c, 3, 66, 76
8, 105344, Note_on_c, 3, 69, 0
8, 105344, Note_on_c, 3, 66, 0
8, 105360, Note_on_c, 3, 69, 76
8, 105360, Note_on_c, 3, 66, 76
8, 105479, Note_on_c, 3, 69, 0
8, 105479, Note_on_c, 3, 66, 0
8, 105600, Note_on_c, 3, 68, 76
8, 105600, Note_on_c, 3, 64, 76
8, 105704, Note_on_c, 3, 68, 0
8, 105704, Note_on_c, 3, 64, 0
8, 105720, Note_on_c, 3, 64, 76
8, 105720, Note_on_c, 3, 68, 76
8, 105839, Note_on_c, 3, 64, 0
8, 105839, Note_on_c, 3, 68, 0
8, 105960, Note_on_c, 3, 68, 76
8, 105960, Note_on_c, 3, 64, 76
8, 106064, Note_on_c, 3, 68, 0
8, 106064, Note_on_c, 3, 64, 0
8, 106080, Note_on_c, 3, 64, 76
8, 106080, Note_on_c, 3, 68, 76
8, 106199, Note_on_c, 3, 64, 0
8, 106199, Note_on_c, 3, 68, 0
8, 107040, Note_on_c, 3, 71, 52
8, 107639, Note_on_c, 3, 71, 0
8, 107640, Note_on_c, 3, 66, 52
8, 107744, Note_on_c, 3, 66, 0
8, 107760, Note_on_c, 3, 64, 48
8, 108104, Note_on_c, 3, 64, 0
8, 108120, Note_on_c, 3, 64, 48
8, 108120, Note_on_c, 3, 68, 48
8, 108291, Note_on_c, 3, 64, 0
8, 108291, Note_on_c, 3, 68, 0
8, 108300, Note_on_c, 3, 59, 48
8, 108300, Note_on_c, 3, 64, 48
8, 108351, Note_on_c, 3, 59, 0
8, 108351, Note_on_c, 3, 64, 0
8, 108360, Note_on_c, 3, 59, 48
8, 108360, Note_on_c, 3, 64, 48
8, 108464, Note_on_c, 3, 59, 0
8, 108464, Note_on_c, 3, 64, 0
8, 108480, Note_on_c, 3, 69, 48
8, 108480, Note_on_c, 3, 66, 48
8, 108651, Note_on_c, 3, 69, 0
8, 108651, Note_on_c, 3, 66, 0
8, 108660, Note_on_c, 3, 66, 48
8, 108660, Note_on_c, 3, 59, 48
8, 108711, Note_on_c, 3, 66, 0
8, 108711, Note_on_c, 3, 59, 0
8, 108720, Note_on_c, 3, 59, 48
8, 108720, Note_on_c, 3, 66, 48
8, 108824, Note_on_c, 3, 59, 0
8, 108824, Note_on_c, 3, 66, 0
8, 108840, Note_on_c, 3, 71, 48
8, 108840, Note_on_c, 3, 68, 48
8, 109544, Note_on_c, 3, 71, 0
8, 109544, Note_on_c, 3, 68, 0
8, 109560, Note_on_c, 3, 71, 48
8, 109560, Note_on_c, 3, 76, 48
8, 109731, Note_on_c, 3, 71, 0
8, 109731, Note_on_c, 3, 76, 0
8, 109740, Note_on_c, 3, 71, 48
8, 109740, Note_on_c, 3, 68, 48
8, 109791, Note_on_c, 3, 71, 0
8, 109791, Note_on_c, 3, 68, 0
8, 109800, Note_on_c, 3, 68, 48
8, 109800, Note_on_c, 3, 71, 48
8, 109904, Note_on_c, 3, 68, 0
8, 109904, Note_on_c, 3, 71, 0
8, 109920, Note_on_c, 3, 71, 48
8, 109920, Note_on_c, 3, 68, 48
8, 110091, Note_on_c, 3, 71, 0
8, 110091, Note_on_c, 3, 68, 0
8, 110100, Note_on_c, 3, 68, 48
8, 110100, Note_on_c, 3, 64, 48
8, 110151, Note_on_c, 3, 68, 0
8, 110151, Note_on_c, 3, 64, 0
8, 110160, Note_on_c, 3, 64, 48
8, 110160, Note_on_c, 3, 68, 48
8, 110264, Note_on_c, 3, 64, 0
8, 110264, Note_on_c, 3, 68, 0
8, 110280, Note_on_c, 3, 68, 48
8, 110280, Note_on_c, 3, 64, 48
8, 110399, Note_on_c, 3, 68, 0
8, 110399, Note_on_c, 3, 64, 0
8, 110400, Note_on_c, 3, 69, 48
8, 110400, Note_on_c, 3, 66, 48
8, 110504, Note_on_c, 3, 69, 0
8, 110504, Note_on_c, 3, 66, 0
8, 110520, Note_on_c, 3, 66, 48
8, 110520, Note_on_c, 3, 63, 48
8, 110609, Note_on_c, 3, 66, 0
8, 110609, Note_on_c, 3, 63, 0
8, 110640, Note_on_c, 3, 64, 76
8, 110744, Note_on_c, 3, 64, 0
8, 110760, Note_on_c, 3, 64, 76
8, 110760, Note_on_c, 3, 76, 76
8, 110864, Note_on_c, 3, 64, 0
8, 110864, Note_on_c, 3, 76, 0
8, 110880, Note_on_c, 3, 64, 76
8, 110880, Note_on_c, 3, 76, 76
8, 110984, Note_on_c, 3, 64, 0
8, 110984, Note_on_c, 3, 76, 0
8, 111000, Note_on_c, 3, 76, 76
8, 111000, Note_on_c, 3, 64, 76
8, 111104, Note_on_c, 3, 76, 0
8, 111104, Note_on_c, 3, 64, 0
8, 111120, Note_on_c, 3, 64, 76
8, 111120, Note_on_c, 3, 76, 76
8, 111224, Note_on_c, 3, 64, 0
8, 111224, Note_on_c, 3, 76, 0
8, 111240, Note_on_c, 3, 64, 76
8, 111240, Note_on_c, 3, 76, 76
8, 111344, Note_on_c, 3, 64, 0
8, 111344, Note_on_c, 3, 76, 0
8, 111360, Note_on_c, 3, 76, 76
8, 111360, Note_on_c, 3, 64, 76
8, 111464, Note_on_c, 3, 76, 0
8, 111464, Note_on_c, 3, 64, 0
8, 111480, Note_on_c, 3, 76, 76
8, 111480, Note_on_c, 3, 64, 76
8, 111584, Note_on_c, 3, 76, 0
8, 111584, Note_on_c, 3, 64, 0
8, 111600, Note_on_c, 3, 76, 76
8, 111600, Note_on_c, 3, 64, 76
8, 111704, Note_on_c, 3, 76, 0
8, 111704, Note_on_c, 3, 64, 0
8, 111720, Note_on_c, 3, 67, 76
8, 111720, Note_on_c, 3, 79, 76
8, 111824, Note_on_c, 3, 67, 0
8, 111824, Note_on_c, 3, 79, 0
8, 111840, Note_on_c, 3, 79, 76
8, 111840, Note_on_c, 3, 67, 76
8, 111944, Note_on_c, 3, 79, 0
8, 111944, Note_on_c, 3, 67, 0
8, 111960, Note_on_c, 3, 79, 76
8, 111960, Note_on_c, 3, 67, 76
8, 112064, Note_on_c, 3, 79, 0
8, 112064, Note_on_c, 3, 67, 0
8, 112080, Note_on_c, 3, 72, 76
8, 112319, Note_on_c, 3, 72, 0
8, 120240, Note_on_c, 3, 68, 54
8, 120299, Note_on_c, 3, 68, 0
8, 120300, Note_on_c, 3, 69, 54
8, 120359, Note_on_c, 3, 69, 0
8, 120360, Note_on_c, 3, 71, 55
8, 120539, Note_on_c, 3, 71, 0
8, 123600, Note_on_c, 3, 68, 84
8, 123600, Note_on_c, 3, 76, 84
8, 124664, Note_on_c, 3, 68, 0
8, 124664, Note_on_c, 3, 76, 0
8, 124680, Note_on_c, 3, 68, 84
8, 124680, Note_on_c, 3, 76, 84
8, 124851, Note_on_c, 3, 68, 0
8, 124851, Note_on_c, 3, 76, 0
8, 124860, Note_on_c, 3, 76, 84
8, 124860, Note_on_c, 3, 68, 84
8, 124911, Note_on_c, 3, 76, 0
8, 124911, Note_on_c, 3, 68, 0
8, 124920, Note_on_c, 3, 68, 84
8, 124920, Note_on_c, 3, 76, 84
8, 125024, Note_on_c, 3, 68, 0
8, 125024, Note_on_c, 3, 76, 0
8, 125040, Note_on_c, 3, 76, 84
8, 125040, Note_on_c, 3, 66, 84
8, 126104, Note_on_c, 3, 76, 0
8, 126104, Note_on_c, 3, 66, 0
8, 126120, Note_on_c, 3, 76, 84
8, 126120, Note_on_c, 3, 66, 84
8, 126291, Note_on_c, 3, 76, 0
8, 126291, Note_on_c, 3, 66, 0
8, 126300, Note_on_c, 3, 66, 84
8, 126300, Note_on_c, 3, 76, 84
8, 126351, Note_on_c, 3, 66, 0
8, 126351, Note_on_c, 3, 76, 0
8, 126360, Note_on_c, 3, 76, 84
8, 126360, Note_on_c, 3, 66, 84
8, 126464, Note_on_c, 3, 76, 0
8, 126464, Note_on_c, 3, 66, 0
8, 127920, Note_on_c, 3, 68, 84
8, 127920, Note_on_c, 3, 76, 84
8, 128984, Note_on_c, 3, 68, 0
8, 128984, Note_on_c, 3, 76, 0
8, 129000, Note_on_c, 3, 68, 84
8, 129000, Note_on_c, 3, 76, 84
8, 129171, Note_on_c, 3, 68, 0
8, 129171, Note_on_c, 3, 76, 0
8, 129180, Note_on_c, 3, 76, 84
8, 129180, Note_on_c, 3, 68, 84
8, 129231, Note_on_c, 3, 76, 0
8, 129231, Note_on_c, 3, 68, 0
8, 129240, Note_on_c, 3, 68, 84
8, 129240, Note_on_c, 3, 76, 84
8, 129344, Note_on_c, 3, 68, 0
8, 129344, Note_on_c, 3, 76, 0
8, 129360, Note_on_c, 3, 76, 84
8, 129360, Note_on_c, 3, 66, 84
8, 130424, Note_on_c, 3, 76, 0
8, 130424, Note_on_c, 3, 66, 0
8, 130440, Note_on_c, 3, 76, 84
8, 130440, Note_on_c, 3, 66, 84
8, 130611, Note_on_c, 3, 76, 0
8, 130611, Note_on_c, 3, 66, 0
8, 130620, Note_on_c, 3, 76, 84
8, 130620, Note_on_c, 3, 66, 84
8, 130671, Note_on_c, 3, 76, 0
8, 130671, Note_on_c, 3, 66, 0
8, 130680, Note_on_c, 3, 76, 84
8, 130680, Note_on_c, 3, 66, 84
8, 130784, Note_on_c, 3, 76, 0
8, 130784, Note_on_c, 3, 66, 0
8, 132240, Note_on_c, 3, 71, 84
8, 132771, Note_on_c, 3, 71, 0
8, 132780, Note_on_c, 3, 69, 84
8, 132831, Note_on_c, 3, 69, 0
8, 132840, Note_on_c, 3, 68, 84
8, 132921, Note_on_c, 3, 68, 0
8, 132930, Note_on_c, 3, 68, 84
8, 132959, Note_on_c, 3, 68, 0
8, 132960, Note_on_c, 3, 69, 92
8, 133020, Control_c, 3, 11, 112
8, 133491, Note_on_c, 3, 69, 0
8, 133500, Note_on_c, 3, 61, 92
8, 133500, Note_on_c, 3, 69, 92
8, 133551, Note_on_c, 3, 61, 0
8, 133551, Note_on_c, 3, 69, 0
8, 133560, Note_on_c, 3, 63, 92
8, 133560, Note_on_c, 3, 69, 92
8, 133664, Note_on_c, 3, 63, 0
8, 133664, Note_on_c, 3, 69, 0
8, 133680, Note_on_c, 3, 68, 92
8, 133680, Note_on_c, 3, 64, 92
8, 133919, Note_on_c, 3, 68, 0
8, 133919, Note_on_c, 3, 64, 0
8, 134038, Control_c, 3, 11, 127
8, 134040, Note_on_c, 3, 68, 84
8, 134279, Note_on_c, 3, 68, 0
8, 134400, Note_on_c, 3, 71, 84
8, 134639, Note_on_c, 3, 71, 0
8, 134940, Note_on_c, 3, 71, 84
8, 134991, Note_on_c, 3, 71, 0
8, 135000, Note_on_c, 3, 71, 84
8, 135104, Note_on_c, 3, 71, 0
8, 135120, Note_on_c, 3, 71, 92
8, 135180, Control_c, 3, 11, 112
8, 135344, Note_on_c, 3, 71, 0
8, 135360, Note_on_c, 3, 68, 92
8, 135441, Note_on_c, 3, 68, 0
8, 135450, Note_on_c, 3, 68, 92
8, 135479, Note_on_c, 3, 68, 0
8, 135480, Note_on_c, 3, 69, 92
8, 135651, Note_on_c, 3, 69, 0
8, 135660, Note_on_c, 3, 69, 92
8, 135660, Note_on_c, 3, 61, 92
8, 135711, Note_on_c, 3, 69, 0
8, 135711, Note_on_c, 3, 61, 0
8, 135720, Note_on_c, 3, 63, 92
8, 135720, Note_on_c, 3, 69, 92
8, 135824, Note_on_c, 3, 63, 0
8, 135824, Note_on_c, 3, 69, 0
8, 135840, Note_on_c, 3, 68, 92
8, 135840, Note_on_c, 3, 64, 92
8, 136079, Note_on_c, 3, 68, 0
8, 136079, Note_on_c, 3, 64, 0
8, 136380, Note_on_c, 3, 71, 92
8, 136431, Note_on_c, 3, 71, 0
8, 136440, Note_on_c, 3, 71, 92
8, 136544, Note_on_c, 3, 71, 0
8, 136558, Control_c, 3, 11, 127
8, 136560, Note_on_c, 3, 71, 92
8, 136620, Control_c, 3, 11, 112
8, 136784, Note_on_c, 3, 71, 0
8, 136800, Note_on_c, 3, 68, 92
8, 136881, Note_on_c, 3, 68, 0
8, 136890, Note_on_c, 3, 68, 92
8, 136919, Note_on_c, 3, 68, 0
8, 136920, Note_on_c, 3, 69, 92
8, 137091, Note_on_c, 3, 69, 0
8, 137100, Note_on_c, 3, 69, 92
8, 137100, Note_on_c, 3, 61, 92
8, 137151, Note_on_c, 3, 69, 0
8, 137151, Note_on_c, 3, 61, 0
8, 137160, Note_on_c, 3, 63, 92
8, 137160, Note_on_c, 3, 69, 92
8, 137264, Note_on_c, 3, 63, 0
8, 137264, Note_on_c, 3, 69, 0
8, 137278, Control_c, 3, 11, 127
8, 137280, Note_on_c, 3, 64, 84
8, 137399, Note_on_c, 3, 64, 0
8, 137520, Note_on_c, 3, 76, 84
8, 137520, Note_on_c, 3, 64, 84
8, 137639, Note_on_c, 3, 76, 0
8, 137639, Note_on_c, 3, 64, 0
8, 137880, Note_on_c, 3, 76, 84
8, 137880, Note_on_c, 3, 64, 84
8, 137999, Note_on_c, 3, 76, 0
8, 137999, Note_on_c, 3, 64, 0
8, 138240, Note_on_c, 3, 76, 84
8, 138240, Note_on_c, 3, 64, 84
8, 138359, Note_on_c, 3, 76, 0
8, 138359, Note_on_c, 3, 64, 0
8, 138600, Note_on_c, 3, 64, 84
8, 138600, Note_on_c, 3, 76, 84
8, 138719, Note_on_c, 3, 64, 0
8, 138719, Note_on_c, 3, 76, 0
8, 138960, Note_on_c, 3, 64, 84
8, 138960, Note_on_c, 3, 76, 84
8, 139079, Note_on_c, 3, 64, 0
8, 139079, Note_on_c, 3, 76, 0
8, 139320, Note_on_c, 3, 64, 84
8, 139320, Note_on_c, 3, 76, 84
8, 139439, Note_on_c, 3, 64, 0
8, 139439, Note_on_c, 3, 76, 0
8, 139680, Note_on_c, 3, 64, 84
8, 139680, Note_on_c, 3, 76, 84
8, 139799, Note_on_c, 3, 64, 0
8, 139799, Note_on_c, 3, 76, 0
8, 140040, Note_on_c, 3, 64, 84
8, 140040, Note_on_c, 3, 76, 84
8, 140159, Note_on_c, 3, 64, 0
8, 140159, Note_on_c, 3, 76, 0
8, 144120, Note_on_c, 3, 73, 60
8, 144120, Note_on_c, 3, 76, 60
8, 144291, Note_on_c, 3, 73, 0
8, 144291, Note_on_c, 3, 76, 0
8, 144300, Note_on_c, 3, 76, 64
8, 144300, Note_on_c, 3, 73, 64
8, 144351, Note_on_c, 3, 76, 0
8, 144351, Note_on_c, 3, 73, 0
8, 144360, Note_on_c, 3, 73, 65
8, 144360, Note_on_c, 3, 76, 65
8, 144464, Note_on_c, 3, 73, 0
8, 144464, Note_on_c, 3, 76, 0
8, 144480, Note_on_c, 3, 76, 52
8, 144480, Note_on_c, 3, 73, 52
8, 145184, Note_on_c, 3, 76, 0
8, 145184, Note_on_c, 3, 73, 0
8, 145200, Note_on_c, 3, 74, 52
8, 145200, Note_on_c, 3, 71, 52
8, 145904, Note_on_c, 3, 74, 0
8, 145904, Note_on_c, 3, 71, 0
8, 145920, Note_on_c, 3, 69, 52
8, 145920, Note_on_c, 3, 73, 52
8, 146144, Note_on_c, 3, 69, 0
8, 146144, Note_on_c, 3, 73, 0
8, 146160, Note_on_c, 3, 76, 52
8, 146160, Note_on_c, 3, 73, 52
8, 146264, Note_on_c, 3, 76, 0
8, 146264, Note_on_c, 3, 73, 0
8, 146280, Note_on_c, 3, 73, 52
8, 146280, Note_on_c, 3, 76, 52
8, 146451, Note_on_c, 3, 73, 0
8, 146451, Note_on_c, 3, 76, 0
8, 146460, Note_on_c, 3, 71, 52
8, 146460, Note_on_c, 3, 74, 52
8, 146504, Note_on_c, 3, 71, 0
8, 146504, Note_on_c, 3, 74, 0
8, 146520, Note_on_c, 3, 73, 52
8, 146520, Note_on_c, 3, 69, 52
8, 146609, Note_on_c, 3, 73, 0
8, 146609, Note_on_c, 3, 69, 0
8, 146640, Note_on_c, 3, 69, 52
8, 146640, Note_on_c, 3, 73, 52
8, 146759, Note_on_c, 3, 69, 0
8, 146759, Note_on_c, 3, 73, 0
8, 146760, Note_on_c, 3, 71, 52
8, 146760, Note_on_c, 3, 68, 52
8, 147171, Note_on_c, 3, 71, 0
8, 147171, Note_on_c, 3, 68, 0
8, 147180, Note_on_c, 3, 69, 52
8, 147180, Note_on_c, 3, 73, 52
8, 147224, Note_on_c, 3, 69, 0
8, 147224, Note_on_c, 3, 73, 0
8, 147240, Note_on_c, 3, 74, 52
8, 147240, Note_on_c, 3, 71, 52
8, 147329, Note_on_c, 3, 74, 0
8, 147329, Note_on_c, 3, 71, 0
8, 147360, Note_on_c, 3, 76, 52
8, 147360, Note_on_c, 3, 73, 52
8, 148064, Note_on_c, 3, 76, 0
8, 148064, Note_on_c, 3, 73, 0
8, 148080, Note_on_c, 3, 74, 52
8, 148080, Note_on_c, 3, 71, 52
8, 148784, Note_on_c, 3, 74, 0
8, 148784, Note_on_c, 3, 71, 0
8, 148800, Note_on_c, 3, 73, 52
8, 148800, Note_on_c, 3, 69, 52
8, 149024, Note_on_c, 3, 73, 0
8, 149024, Note_on_c, 3, 69, 0
8, 149040, Note_on_c, 3, 69, 52
8, 149040, Note_on_c, 3, 73, 52
8, 149144, Note_on_c, 3, 69, 0
8, 149144, Note_on_c, 3, 73, 0
8, 149160, Note_on_c, 3, 69, 52
8, 149160, Note_on_c, 3, 73, 52
8, 149279, Note_on_c, 3, 73, 0
8, 149280, Note_on_c, 3, 76, 52
8, 149384, Note_on_c, 3, 69, 0
8, 149384, Note_on_c, 3, 76, 0
8, 149400, Note_on_c, 3, 68, 52
8, 149400, Note_on_c, 3, 74, 52
8, 149489, Note_on_c, 3, 68, 0
8, 149489, Note_on_c, 3, 74, 0
8, 149520, Note_on_c, 3, 69, 52
8, 149520, Note_on_c, 3, 73, 52
8, 149691, Note_on_c, 3, 69, 0
8, 149691, Note_on_c, 3, 73, 0
8, 149700, Note_on_c, 3, 74, 52
8, 149700, Note_on_c, 3, 71, 52
8, 149751, Note_on_c, 3, 74, 0
8, 149751, Note_on_c, 3, 71, 0
8, 149760, Note_on_c, 3, 76, 52
8, 149760, Note_on_c, 3, 73, 52
8, 149864, Note_on_c, 3, 76, 0
8, 149864, Note_on_c, 3, 73, 0
8, 149880, Note_on_c, 3, 74, 52
8, 149880, Note_on_c, 3, 78, 52
8, 149984, Note_on_c, 3, 74, 0
8, 149984, Note_on_c, 3, 78, 0
8, 150000, Note_on_c, 3, 78, 52
8, 150000, Note_on_c, 3, 74, 52
8, 150104, Note_on_c, 3, 78, 0
8, 150104, Note_on_c, 3, 74, 0
8, 150120, Note_on_c, 3, 74, 52
8, 150120, Note_on_c, 3, 78, 52
8, 150224, Note_on_c, 3, 74, 0
8, 150224, Note_on_c, 3, 78, 0
8, 150240, Note_on_c, 3, 78, 52
8, 150240, Note_on_c, 3, 74, 52
8, 150944, Note_on_c, 3, 78, 0
8, 150944, Note_on_c, 3, 74, 0
8, 150960, Note_on_c, 3, 73, 52
8, 150960, Note_on_c, 3, 76, 52
8, 152384, Note_on_c, 3, 73, 0
8, 152384, Note_on_c, 3, 76, 0
8, 152400, Note_on_c, 3, 78, 52
8, 152400, Note_on_c, 3, 74, 52
8, 153104, Note_on_c, 3, 78, 0
8, 153104, Note_on_c, 3, 74, 0
8, 153120, Note_on_c, 3, 73, 52
8, 153120, Note_on_c, 3, 76, 52
8, 154304, Note_on_c, 3, 73, 0
8, 154304, Note_on_c, 3, 76, 0
8, 154320, Note_on_c, 3, 73, 52
8, 154320, Note_on_c, 3, 69, 52
8, 154424, Note_on_c, 3, 73, 0
8, 154424, Note_on_c, 3, 69, 0
8, 154440, Note_on_c, 3, 73, 52
8, 154440, Note_on_c, 3, 69, 52
8, 154544, Note_on_c, 3, 73, 0
8, 154544, Note_on_c, 3, 69, 0
8, 154560, Note_on_c, 3, 71, 52
8, 154560, Note_on_c, 3, 68, 52
8, 154919, Note_on_c, 3, 71, 0
8, 154919, Note_on_c, 3, 68, 0
8, 154920, Note_on_c, 3, 73, 52
8, 154920, Note_on_c, 3, 69, 52
8, 155264, Note_on_c, 3, 73, 0
8, 155264, Note_on_c, 3, 69, 0
8, 155280, Note_on_c, 3, 68, 76
8, 155280, Note_on_c, 3, 71, 76
8, 155320, Control_c, 3, 11, 124
8, 155360, Control_c, 3, 11, 122
8, 155400, Control_c, 3, 11, 119
8, 155440, Control_c, 3, 11, 117
8, 155480, Control_c, 3, 11, 114
8, 155520, Control_c, 3, 11, 111
8, 155560, Control_c, 3, 11, 109
8, 155600, Control_c, 3, 11, 106
8, 155640, Control_c, 3, 11, 104
8, 155680, Control_c, 3, 11, 101
8, 155720, Control_c, 3, 11, 98
8, 155760, Control_c, 3, 11, 96
8, 155800, Control_c, 3, 11, 93
8, 155840, Control_c, 3, 11, 90
8, 155864, Note_on_c, 3, 68, 0
8, 155864, Note_on_c, 3, 71, 0
8, 155880, Note_on_c, 3, 69, 76
8, 155880, Note_on_c, 3, 73, 76
8, 155880, Control_c, 3, 11, 88
8, 155920, Control_c, 3, 11, 85
8, 155960, Control_c, 3, 11, 80
8, 155984, Note_on_c, 3, 69, 0
8, 155984, Note_on_c, 3, 73, 0
8, 156000, Note_on_c, 3, 68, 76
8, 156000, Note_on_c, 3, 71, 76
8, 156344, Note_on_c, 3, 68, 0
8, 156344, Note_on_c, 3, 71, 0
8, 156360, Note_on_c, 3, 69, 76
8, 156360, Note_on_c, 3, 73, 76
8, 156531, Note_on_c, 3, 69, 0
8, 156531, Note_on_c, 3, 73, 0
8, 156540, Note_on_c, 3, 73, 76
8, 156584, Note_on_c, 3, 73, 0
8, 156600, Note_on_c, 3, 69, 76
8, 156689, Note_on_c, 3, 69, 0
8, 156718, Control_c, 3, 11, 127
8, 156720, Note_on_c, 3, 76, 76
8, 157319, Note_on_c, 3, 76, 0
8, 157440, Note_on_c, 3, 76, 84
8, 157500, Control_c, 3, 11, 112
8, 158039, Note_on_c, 3, 76, 0
8, 158158, Control_c, 3, 11, 127
8, 158160, Note_on_c, 3, 76, 84
8, 158220, Control_c, 3, 11, 112
8, 158399, Note_on_c, 3, 76, 0
8, 158518, Control_c, 3, 11, 127
8, 158520, Note_on_c, 3, 76, 84
8, 158580, Control_c, 3, 11, 112
8, 158759, Note_on_c, 3, 76, 0
8, 158878, Control_c, 3, 11, 127
8, 158880, Note_on_c, 3, 76, 84
8, 158940, Control_c, 3, 11, 112
8, 159119, Note_on_c, 3, 76, 0
8, 159238, Control_c, 3, 11, 127
8, 159240, Note_on_c, 3, 74, 84
8, 159300, Control_c, 3, 11, 112
8, 159359, Note_on_c, 3, 74, 0
8, 159420, Note_on_c, 3, 71, 84
8, 159471, Note_on_c, 3, 71, 0
8, 159480, Note_on_c, 3, 68, 84
8, 159584, Note_on_c, 3, 68, 0
8, 159598, Control_c, 3, 11, 127
8, 159600, Note_on_c, 3, 74, 76
8, 159600, Note_on_c, 3, 71, 76
8, 159959, Note_on_c, 3, 74, 0
8, 159959, Note_on_c, 3, 71, 0
8, 160320, Note_on_c, 3, 64, 84
8, 160320, Note_on_c, 3, 61, 84
8, 161024, Note_on_c, 3, 64, 0
8, 161024, Note_on_c, 3, 61, 0
8, 161040, Note_on_c, 3, 62, 84
8, 161040, Note_on_c, 3, 66, 84
8, 161624, Note_on_c, 3, 62, 0
8, 161624, Note_on_c, 3, 66, 0
8, 161640, Note_on_c, 3, 68, 84
8, 161640, Note_on_c, 3, 59, 84
8, 161744, Note_on_c, 3, 68, 0
8, 161744, Note_on_c, 3, 59, 0
8, 161760, Note_on_c, 3, 69, 84
8, 161760, Note_on_c, 3, 61, 84
8, 162599, Note_on_c, 3, 69, 0
8, 162599, Note_on_c, 3, 61, 0
8, 162600, Note_on_c, 3, 68, 84
8, 162600, Note_on_c, 3, 59, 84
8, 162704, Note_on_c, 3, 68, 0
8, 162704, Note_on_c, 3, 59, 0
8, 162720, Note_on_c, 3, 69, 84
8, 162720, Note_on_c, 3, 66, 84
8, 162809, Note_on_c, 3, 69, 0
8, 162809, Note_on_c, 3, 66, 0
8, 162840, Note_on_c, 3, 64, 84
8, 162840, Note_on_c, 3, 68, 84
8, 163064, Note_on_c, 3, 64, 0
8, 163064, Note_on_c, 3, 68, 0
8, 163080, Note_on_c, 3, 64, 84
8, 163080, Note_on_c, 3, 76, 84
8, 163184, Note_on_c, 3, 64, 0
8, 163184, Note_on_c, 3, 76, 0
8, 163200, Note_on_c, 3, 73, 84
8, 163200, Note_on_c, 3, 76, 84
8, 163904, Note_on_c, 3, 73, 0
8, 163904, Note_on_c, 3, 76, 0
8, 163920, Note_on_c, 3, 74, 84
8, 163920, Note_on_c, 3, 78, 84
8, 164504, Note_on_c, 3, 74, 0
8, 164504, Note_on_c, 3, 78, 0
8, 164520, Note_on_c, 3, 74, 84
8, 164520, Note_on_c, 3, 71, 84
8, 164624, Note_on_c, 3, 74, 0
8, 164624, Note_on_c, 3, 71, 0
8, 164640, Note_on_c, 3, 73, 84
8, 164640, Note_on_c, 3, 69, 84
8, 164864, Note_on_c, 3, 73, 0
8, 164864, Note_on_c, 3, 69, 0
8, 164880, Note_on_c, 3, 69, 84
8, 164880, Note_on_c, 3, 73, 84
8, 164984, Note_on_c, 3, 69, 0
8, 164984, Note_on_c, 3, 73, 0
8, 165000, Note_on_c, 3, 69, 84
8, 165000, Note_on_c, 3, 73, 84
8, 165119, Note_on_c, 3, 69, 0
8, 165119, Note_on_c, 3, 73, 0
8, 165120, Note_on_c, 3, 76, 84
8, 165120, Note_on_c, 3, 73, 84
8, 165224, Note_on_c, 3, 76, 0
8, 165224, Note_on_c, 3, 73, 0
8, 165240, Note_on_c, 3, 74, 84
8, 165240, Note_on_c, 3, 71, 84
8, 165329, Note_on_c, 3, 74, 0
8, 165329, Note_on_c, 3, 71, 0
8, 165360, Note_on_c, 3, 69, 84
8, 165360, Note_on_c, 3, 73, 84
8, 165599, Note_on_c, 3, 69, 0
8, 165599, Note_on_c, 3, 73, 0
8, 165960, Note_on_c, 3, 69, 84
8, 166064, Note_on_c, 3, 69, 0
8, 166080, Note_on_c, 3, 69, 84
8, 166304, Note_on_c, 3, 69, 0
8, 166320, Note_on_c, 3, 69, 84
8, 166424, Note_on_c, 3, 69, 0
8, 166440, Note_on_c, 3, 69, 84
8, 166611, Note_on_c, 3, 69, 0
8, 166620, Note_on_c, 3, 74, 84
8, 166664, Note_on_c, 3, 74, 0
8, 166680, Note_on_c, 3, 78, 84
8, 166769, Note_on_c, 3, 78, 0
8, 166800, Note_on_c, 3, 78, 84
8, 166919, Note_on_c, 3, 78, 0
8, 166920, Note_on_c, 3, 76, 84
8, 167024, Note_on_c, 3, 76, 0
8, 167040, Note_on_c, 3, 73, 84
8, 167129, Note_on_c, 3, 73, 0
8, 167160, Note_on_c, 3, 69, 84
8, 167384, Note_on_c, 3, 69, 0
8, 167400, Note_on_c, 3, 69, 84
8, 167504, Note_on_c, 3, 69, 0
8, 167520, Note_on_c, 3, 69, 84
8, 167691, Note_on_c, 3, 69, 0
8, 167700, Note_on_c, 3, 74, 84
8, 167744, Note_on_c, 3, 74, 0
8, 167760, Note_on_c, 3, 69, 84
8, 167849, Note_on_c, 3, 69, 0
8, 167880, Note_on_c, 3, 69, 84
8, 168051, Note_on_c, 3, 69, 0
8, 168060, Note_on_c, 3, 74, 84
8, 168104, Note_on_c, 3, 74, 0
8, 168120, Note_on_c, 3, 78, 84
8, 168209, Note_on_c, 3, 78, 0
8, 168240, Note_on_c, 3, 78, 84
8, 168359, Note_on_c, 3, 78, 0
8, 168360, Note_on_c, 3, 76, 84
8, 168464, Note_on_c, 3, 76, 0
8, 168480, Note_on_c, 3, 73, 84
8, 168569, Note_on_c, 3, 73, 0
8, 168600, Note_on_c, 3, 69, 84
8, 168824, Note_on_c, 3, 69, 0
8, 168838, Control_c, 3, 11, 64
8, 168840, Note_on_c, 3, 61, 84
8, 168840, Note_on_c, 3, 64, 84
8, 168944, Note_on_c, 3, 61, 0
8, 168944, Note_on_c, 3, 64, 0
8, 168960, Control_c, 3, 11, 64
8, 168960, Note_on_c, 3, 61, 84
8, 168960, Note_on_c, 3, 64, 84
8, 169051, Control_c, 3, 11, 65
8, 169143, Control_c, 3, 11, 66
8, 169234, Control_c, 3, 11, 67
8, 169326, Control_c, 3, 11, 68
8, 169417, Control_c, 3, 11, 69
8, 169509, Control_c, 3, 11, 70
8, 169600, Control_c, 3, 11, 71
8, 169664, Note_on_c, 3, 61, 0
8, 169664, Note_on_c, 3, 64, 0
8, 169680, Note_on_c, 3, 62, 84
8, 169680, Note_on_c, 3, 66, 84
8, 169691, Control_c, 3, 11, 72
8, 169783, Control_c, 3, 11, 73
8, 169874, Control_c, 3, 11, 74
8, 169966, Control_c, 3, 11, 75
8, 170057, Control_c, 3, 11, 76
8, 170149, Control_c, 3, 11, 77
8, 170240, Control_c, 3, 11, 78
8, 170331, Control_c, 3, 11, 79
8, 170384, Note_on_c, 3, 62, 0
8, 170384, Note_on_c, 3, 66, 0
8, 170400, Note_on_c, 3, 59, 84
8, 170400, Note_on_c, 3, 68, 84
8, 170423, Control_c, 3, 11, 80
8, 170514, Control_c, 3, 11, 81
8, 170606, Control_c, 3, 11, 82
8, 170697, Control_c, 3, 11, 83
8, 170789, Control_c, 3, 11, 84
8, 170880, Control_c, 3, 11, 85
8, 170971, Control_c, 3, 11, 86
8, 171063, Control_c, 3, 11, 87
8, 171104, Note_on_c, 3, 59, 0
8, 171104, Note_on_c, 3, 68, 0
8, 171120, Note_on_c, 3, 69, 84
8, 171120, Note_on_c, 3, 61, 84
8, 171154, Control_c, 3, 11, 88
8, 171246, Control_c, 3, 11, 89
8, 171337, Control_c, 3, 11, 90
8, 171429, Control_c, 3, 11, 91
8, 171520, Control_c, 3, 11, 92
8, 171611, Control_c, 3, 11, 93
8, 171703, Control_c, 3, 11, 94
8, 171794, Control_c, 3, 11, 95
8, 171824, Note_on_c, 3, 69, 0
8, 171824, Note_on_c, 3, 61, 0
8, 171840, Note_on_c, 3, 73, 84
8, 171840, Note_on_c, 3, 64, 84
8, 171886, Control_c, 3, 11, 96
8, 171977, Control_c, 3, 11, 97
8, 172069, Control_c, 3, 11, 98
8, 172160, Control_c, 3, 11, 99
8, 172251, Control_c, 3, 11, 100
8, 172343, Control_c, 3, 11, 101
8, 172434, Control_c, 3, 11, 102
8, 172526, Control_c, 3, 11, 103
8, 172544, Note_on_c, 3, 73, 0
8, 172544, Note_on_c, 3, 64, 0
8, 172560, Note_on_c, 3, 66, 84
8, 172560, Note_on_c, 3, 74, 84
8, 172617, Control_c, 3, 11, 104
8, 172709, Control_c, 3, 11, 105
8, 172800, Control_c, 3, 11, 106
8, 172891, Control_c, 3, 11, 107
8, 172983, Control_c, 3, 11, 108
8, 173074, Control_c, 3, 11, 109
8, 173166, Control_c, 3, 11, 110
8, 173257, Control_c, 3, 11, 111
8, 173264, Note_on_c, 3, 66, 0
8, 173264, Note_on_c, 3, 74, 0
8, 173280, Note_on_c, 3, 71, 84
8, 173280, Note_on_c, 3, 68, 84
8, 173349, Control_c, 3, 11, 112
8, 173440, Control_c, 3, 11, 113
8, 173531, Control_c, 3, 11, 114
8, 173623, Control_c, 3, 11, 115
8, 173714, Control_c, 3, 11, 116
8, 173806, Control_c, 3, 11, 117
8, 173897, Control_c, 3, 11, 118
8, 173984, Note_on_c, 3, 71, 0
8, 173984, Note_on_c, 3, 68, 0
8, 173989, Control_c, 3, 11, 119
8, 174000, Note_on_c, 3, 69, 84
8, 174000, Note_on_c, 3, 73, 84
8, 174080, Control_c, 3, 11, 120
8, 174171, Control_c, 3, 11, 121
8, 174263, Control_c, 3, 11, 122
8, 174354, Control_c, 3, 11, 123
8, 174446, Control_c, 3, 11, 124
8, 174537, Control_c, 3, 11, 125
8, 174629, Control_c, 3, 11, 127
8, 174704, Note_on_c, 3, 69, 0
8, 174704, Note_on_c, 3, 73, 0
8, 174720, Note_on_c, 3, 76, 84
8, 174720, Note_on_c, 3, 70, 84
8, 175424, Note_on_c, 3, 76, 0
8, 175424, Note_on_c, 3, 70, 0
8, 175440, Note_on_c, 3, 71, 84
8, 175440, Note_on_c, 3, 75, 84
8, 175904, Note_on_c, 3, 71, 0
8, 175904, Note_on_c, 3, 75, 0
8, 175920, Note_on_c, 3, 75, 52
8, 176024, Note_on_c, 3, 75, 0
8, 176040, Note_on_c, 3, 75, 52
8, 176144, Note_on_c, 3, 75, 0
8, 176160, Note_on_c, 3, 73, 52
8, 176279, Note_on_c, 3, 73, 0
8, 176400, Note_on_c, 3, 73, 52
8, 176504, Note_on_c, 3, 73, 0
8, 176520, Note_on_c, 3, 73, 52
8, 176639, Note_on_c, 3, 73, 0
8, 176760, Note_on_c, 3, 73, 52
8, 176864, Note_on_c, 3, 73, 0
8, 176880, Note_on_c, 3, 75, 52
8, 177119, Note_on_c, 3, 75, 0
8, 178920, Control_c, 3, 11, 80
8, 179040, Control_c, 3, 11, 80
8, 179040, Note_on_c, 3, 68, 76
8, 179080, Control_c, 3, 11, 83
8, 179120, Control_c, 3, 11, 85
8, 179160, Control_c, 3, 11, 88
8, 179200, Control_c, 3, 11, 90
8, 179240, Control_c, 3, 11, 93
8, 179280, Control_c, 3, 11, 96
8, 179320, Control_c, 3, 11, 98
8, 179360, Control_c, 3, 11, 101
8, 179400, Control_c, 3, 11, 104
8, 179440, Control_c, 3, 11, 106
8, 179480, Control_c, 3, 11, 109
8, 179520, Control_c, 3, 11, 111
8, 179560, Control_c, 3, 11, 114
8, 179600, Control_c, 3, 11, 117
8, 179640, Control_c, 3, 11, 119
8, 179680, Control_c, 3, 11, 122
8, 179720, Control_c, 3, 11, 127
8, 179744, Note_on_c, 3, 68, 0
8, 179760, Note_on_c, 3, 67, 76
8, 179999, Note_on_c, 3, 67, 0
8, 182640, Note_on_c, 3, 69, 76
8, 182640, Note_on_c, 3, 81, 76
8, 182864, Note_on_c, 3, 69, 0
8, 182864, Note_on_c, 3, 81, 0
8, 182880, Note_on_c, 3, 69, 76
8, 182880, Note_on_c, 3, 81, 76
8, 182984, Note_on_c, 3, 69, 0
8, 182984, Note_on_c, 3, 81, 0
8, 183000, Note_on_c, 3, 81, 76
8, 183000, Note_on_c, 3, 69, 76
8, 183224, Note_on_c, 3, 81, 0
8, 183224, Note_on_c, 3, 69, 0
8, 183240, Note_on_c, 3, 81, 76
8, 183240, Note_on_c, 3, 69, 76
8, 183344, Note_on_c, 3, 81, 0
8, 183344, Note_on_c, 3, 69, 0
8, 183360, Note_on_c, 3, 80, 76
8, 183360, Note_on_c, 3, 68, 76
8, 184064, Note_on_c, 3, 80, 0
8, 184064, Note_on_c, 3, 68, 0
8, 184080, Note_on_c, 3, 78, 76
8, 184080, Note_on_c, 3, 66, 76
8, 184304, Note_on_c, 3, 78, 0
8, 184304, Note_on_c, 3, 66, 0
8, 184320, Note_on_c, 3, 78, 76
8, 184320, Note_on_c, 3, 66, 76
8, 184424, Note_on_c, 3, 78, 0
8, 184424, Note_on_c, 3, 66, 0
8, 184440, Note_on_c, 3, 78, 76
8, 184440, Note_on_c, 3, 66, 76
8, 184664, Note_on_c, 3, 78, 0
8, 184664, Note_on_c, 3, 66, 0
8, 184680, Note_on_c, 3, 78, 76
8, 184680, Note_on_c, 3, 66, 76
8, 184784, Note_on_c, 3, 78, 0
8, 184784, Note_on_c, 3, 66, 0
8, 184800, Note_on_c, 3, 64, 76
8, 184800, Note_on_c, 3, 76, 76
8, 185024, Note_on_c, 3, 64, 0
8, 185024, Note_on_c, 3, 76, 0
8, 185040, Note_on_c, 3, 64, 76
8, 185040, Note_on_c, 3, 69, 76
8, 185144, Note_on_c, 3, 64, 0
8, 185144, Note_on_c, 3, 69, 0
8, 185160, Note_on_c, 3, 64, 76
8, 185160, Note_on_c, 3, 69, 76
8, 185384, Note_on_c, 3, 64, 0
8, 185384, Note_on_c, 3, 69, 0
8, 185400, Note_on_c, 3, 64, 76
8, 185400, Note_on_c, 3, 69, 76
8, 185504, Note_on_c, 3, 64, 0
8, 185504, Note_on_c, 3, 69, 0
8, 185520, Note_on_c, 3, 66, 76
8, 185520, Note_on_c, 3, 69, 76
8, 185624, Note_on_c, 3, 66, 0
8, 185624, Note_on_c, 3, 69, 0
8, 185640, Note_on_c, 3, 66, 76
8, 185640, Note_on_c, 3, 69, 76
8, 185759, Note_on_c, 3, 66, 0
8, 185759, Note_on_c, 3, 69, 0
8, 185880, Note_on_c, 3, 66, 76
8, 185880, Note_on_c, 3, 69, 76
8, 185984, Note_on_c, 3, 66, 0
8, 185984, Note_on_c, 3, 69, 0
8, 186000, Note_on_c, 3, 66, 76
8, 186000, Note_on_c, 3, 69, 76
8, 186119, Note_on_c, 3, 66, 0
8, 186119, Note_on_c, 3, 69, 0
8, 186240, Note_on_c, 3, 64, 76
8, 186240, Note_on_c, 3, 68, 76
8, 186344, Note_on_c, 3, 64, 0
8, 186344, Note_on_c, 3, 68, 0
8, 186360, Note_on_c, 3, 64, 76
8, 186360, Note_on_c, 3, 68, 76
8, 186479, Note_on_c, 3, 64, 0
8, 186479, Note_on_c, 3, 68, 0
8, 186600, Note_on_c, 3, 68, 76
8, 186600, Note_on_c, 3, 64, 76
8, 186704, Note_on_c, 3, 68, 0
8, 186704, Note_on_c, 3, 64, 0
8, 186720, Note_on_c, 3, 68, 76
8, 186720, Note_on_c, 3, 64, 76
8, 186839, Note_on_c, 3, 68, 0
8, 186839, Note_on_c, 3, 64, 0
8, 186960, Note_on_c, 3, 66, 76
8, 186960, Note_on_c, 3, 69, 76
8, 187064, Note_on_c, 3, 66, 0
8, 187064, Note_on_c, 3, 69, 0
8, 187080, Note_on_c, 3, 69, 76
8, 187080, Note_on_c, 3, 66, 76
8, 187199, Note_on_c, 3, 69, 0
8, 187199, Note_on_c, 3, 66, 0
8, 187320, Note_on_c, 3, 66, 76
8, 187320, Note_on_c, 3, 69, 76
8, 187424, Note_on_c, 3, 66, 0
8, 187424, Note_on_c, 3, 69, 0
8, 187440, Note_on_c, 3, 66, 76
8, 187440, Note_on_c, 3, 69, 76
8, 187559, Note_on_c, 3, 66, 0
8, 187559, Note_on_c, 3, 69, 0
8, 187680, Note_on_c, 3, 68, 76
8, 187680, Note_on_c, 3, 64, 76
8, 187784, Note_on_c, 3, 68, 0
8, 187784, Note_on_c, 3, 64, 0
8, 187800, Note_on_c, 3, 64, 76
8, 187800, Note_on_c, 3, 68, 76
8, 187919, Note_on_c, 3, 64, 0
8, 187919, Note_on_c, 3, 68, 0
8, 188040, Note_on_c, 3, 68, 76
8, 188040, Note_on_c, 3, 64, 76
8, 188144, Note_on_c, 3, 68, 0
8, 188144, Note_on_c, 3, 64, 0
8, 188160, Note_on_c, 3, 68, 76
8, 188160, Note_on_c, 3, 64, 76
8, 188279, Note_on_c, 3, 68, 0
8, 188279, Note_on_c, 3, 64, 0
8, 189120, Note_on_c, 3, 71, 52
8, 189719, Note_on_c, 3, 71, 0
8, 189720, Note_on_c, 3, 66, 52
8, 189824, Note_on_c, 3, 66, 0
8, 189840, Note_on_c, 3, 64, 48
8, 190184, Note_on_c, 3, 64, 0
8, 190200, Note_on_c, 3, 64, 48
8, 190200, Note_on_c, 3, 68, 48
8, 190371, Note_on_c, 3, 64, 0
8, 190371, Note_on_c, 3, 68, 0
8, 190380, Note_on_c, 3, 59, 48
8, 190380, Note_on_c, 3, 64, 48
8, 190431, Note_on_c, 3, 59, 0
8, 190431, Note_on_c, 3, 64, 0
8, 190440, Note_on_c, 3, 64, 48
8, 190440, Note_on_c, 3, 59, 48
8, 190544, Note_on_c, 3, 64, 0
8, 190544, Note_on_c, 3, 59, 0
8, 190560, Note_on_c, 3, 66, 48
8, 190560, Note_on_c, 3, 69, 48
8, 190731, Note_on_c, 3, 66, 0
8, 190731, Note_on_c, 3, 69, 0
8, 190740, Note_on_c, 3, 66, 48
8, 190740, Note_on_c, 3, 59, 48
8, 190791, Note_on_c, 3, 66, 0
8, 190791, Note_on_c, 3, 59, 0
8, 190800, Note_on_c, 3, 59, 48
8, 190800, Note_on_c, 3, 66, 48
8, 190904, Note_on_c, 3, 59, 0
8, 190904, Note_on_c, 3, 66, 0
8, 190920, Note_on_c, 3, 71, 48
8, 190920, Note_on_c, 3, 68, 48
8, 191624, Note_on_c, 3, 71, 0
8, 191624, Note_on_c, 3, 68, 0
8, 191640, Note_on_c, 3, 76, 48
8, 191640, Note_on_c, 3, 71, 48
8, 191811, Note_on_c, 3, 76, 0
8, 191811, Note_on_c, 3, 71, 0
8, 191820, Note_on_c, 3, 68, 48
8, 191820, Note_on_c, 3, 71, 48
8, 191871, Note_on_c, 3, 68, 0
8, 191871, Note_on_c, 3, 71, 0
8, 191880, Note_on_c, 3, 68, 48
8, 191880, Note_on_c, 3, 71, 48
8, 191984, Note_on_c, 3, 68, 0
8, 191984, Note_on_c, 3, 71, 0
8, 192000, Note_on_c, 3, 71, 48
8, 192000, Note_on_c, 3, 68, 48
8, 192171, Note_on_c, 3, 71, 0
8, 192171, Note_on_c, 3, 68, 0
8, 192180, Note_on_c, 3, 64, 48
8, 192180, Note_on_c, 3, 68, 48
8, 192231, Note_on_c, 3, 64, 0
8, 192231, Note_on_c, 3, 68, 0
8, 192240, Note_on_c, 3, 68, 48
8, 192240, Note_on_c, 3, 64, 48
8, 192344, Note_on_c, 3, 68, 0
8, 192344, Note_on_c, 3, 64, 0
8, 192360, Note_on_c, 3, 68, 48
8, 192360, Note_on_c, 3, 64, 48
8, 192479, Note_on_c, 3, 68, 0
8, 192479, Note_on_c, 3, 64, 0
8, 192480, Note_on_c, 3, 69, 48
8, 192480, Note_on_c, 3, 66, 48
8, 192584, Note_on_c, 3, 69, 0
8, 192584, Note_on_c, 3, 66, 0
8, 192600, Note_on_c, 3, 66, 48
8, 192600, Note_on_c, 3, 63, 48
8, 192689, Note_on_c, 3, 66, 0
8, 192689, Note_on_c, 3, 63, 0
8, 192720, Note_on_c, 3, 64, 76
8, 192824, Note_on_c, 3, 64, 0
8, 192840, Note_on_c, 3, 76, 76
8, 192840, Note_on_c, 3, 64, 76
8, 192944, Note_on_c, 3, 76, 0
8, 192944, Note_on_c, 3, 64, 0
8, 192960, Note_on_c, 3, 76, 76
8, 192960, Note_on_c, 3, 64, 76
8, 193064, Note_on_c, 3, 76, 0
8, 193064, Note_on_c, 3, 64, 0
8, 193080, Note_on_c, 3, 64, 76
8, 193080, Note_on_c, 3, 76, 76
8, 193184, Note_on_c, 3, 64, 0
8, 193184, Note_on_c, 3, 76, 0
8, 193200, Note_on_c, 3, 64, 76
8, 193200, Note_on_c, 3, 76, 76
8, 193304, Note_on_c, 3, 64, 0
8, 193304, Note_on_c, 3, 76, 0
8, 193320, Note_on_c, 3, 76, 76
8, 193320, Note_on_c, 3, 64, 76
8, 193424, Note_on_c, 3, 76, 0
8, 193424, Note_on_c, 3, 64, 0
8, 193440, Note_on_c, 3, 64, 76
8, 193440, Note_on_c, 3, 76, 76
8, 193544, Note_on_c, 3, 64, 0
8, 193544, Note_on_c, 3, 76, 0
8, 193560, Note_on_c, 3, 76, 76
8, 193560, Note_on_c, 3, 64, 76
8, 193664, Note_on_c, 3, 76, 0
8, 193664, Note_on_c, 3, 64, 0
8, 193680, Note_on_c, 3, 76, 76
8, 193680, Note_on_c, 3, 64, 76
8, 193784, Note_on_c, 3, 76, 0
8, 193784, Note_on_c, 3, 64, 0
8, 193800, Note_on_c, 3, 79, 76
8, 193800, Note_on_c, 3, 67, 76
8, 193904, Note_on_c, 3, 79, 0
8, 193904, Note_on_c, 3, 67, 0
8, 193920, Note_on_c, 3, 67, 76
8, 193920, Note_on_c, 3, 79, 76
8, 194024, Note_on_c, 3, 67, 0
8, 194024, Note_on_c, 3, 79, 0
8, 194040, Note_on_c, 3, 67, 76
8, 194040, Note_on_c, 3, 79, 76
8, 194144, Note_on_c, 3, 67, 0
8, 194144, Note_on_c, 3, 79, 0
8, 194160, Note_on_c, 3, 72, 76
8, 194399, Note_on_c, 3, 72, 0
8, 202320, Note_on_c, 3, 68, 54
8, 202379, Note_on_c, 3, 68, 0
8, 202380, Note_on_c, 3, 69, 54
8, 202439, Note_on_c, 3, 69, 0
8, 202440, Note_on_c, 3, 71, 55
8, 202619, Note_on_c, 3, 71, 0
8, 205680, Note_on_c, 3, 76, 84
8, 205680, Note_on_c, 3, 68, 84
8, 206744, Note_on_c, 3, 76, 0
8, 206744, Note_on_c, 3, 68, 0
8, 206760, Note_on_c, 3, 76, 84
8, 206760, Note_on_c, 3, 68, 84
8, 206931, Note_on_c, 3, 76, 0
8, 206931, Note_on_c, 3, 68, 0
8, 206940, Note_on_c, 3, 68, 84
8, 206940, Note_on_c, 3, 76, 84
8, 206991, Note_on_c, 3, 68, 0
8, 206991, Note_on_c, 3, 76, 0
8, 207000, Note_on_c, 3, 76, 84
8, 207000, Note_on_c, 3, 68, 84
8, 207104, Note_on_c, 3, 76, 0
8, 207104, Note_on_c, 3, 68, 0
8, 207120, Note_on_c, 3, 76, 84
8, 207120, Note_on_c, 3, 66, 84
8, 208184, Note_on_c, 3, 76, 0
8, 208184, Note_on_c, 3, 66, 0
8, 208200, Note_on_c, 3, 66, 84
8, 208200, Note_on_c, 3, 76, 84
8, 208371, Note_on_c, 3, 66, 0
8, 208371, Note_on_c, 3, 76, 0
8, 208380, Note_on_c, 3, 66, 84
8, 208380, Note_on_c, 3, 76, 84
8, 208431, Note_on_c, 3, 66, 0
8, 208431, Note_on_c, 3, 76, 0
8, 208440, Note_on_c, 3, 76, 84
8, 208440, Note_on_c, 3, 66, 84
8, 208544, Note_on_c, 3, 76, 0
8, 208544, Note_on_c, 3, 66, 0
8, 210000, Note_on_c, 3, 76, 84
8, 210000, Note_on_c, 3, 68, 84
8, 211064, Note_on_c, 3, 76, 0
8, 211064, Note_on_c, 3, 68, 0
8, 211080, Note_on_c, 3, 76, 84
8, 211080, Note_on_c, 3, 68, 84
8, 211251, Note_on_c, 3, 76, 0
8, 211251, Note_on_c, 3, 68, 0
8, 211260, Note_on_c, 3, 68, 84
8, 211260, Note_on_c, 3, 76, 84
8, 211311, Note_on_c, 3, 68, 0
8, 211311, Note_on_c, 3, 76, 0
8, 211320, Note_on_c, 3, 68, 84
8, 211320, Note_on_c, 3, 76, 84
8, 211424, Note_on_c, 3, 68, 0
8, 211424, Note_on_c, 3, 76, 0
8, 211440, Note_on_c, 3, 76, 84
8, 211440, Note_on_c, 3, 66, 84
8, 212504, Note_on_c, 3, 76, 0
8, 212504, Note_on_c, 3, 66, 0
8, 212520, Note_on_c, 3, 66, 84
8, 212520, Note_on_c, 3, 76, 84
8, 212691, Note_on_c, 3, 66, 0
8, 212691, Note_on_c, 3, 76, 0
8, 212700, Note_on_c, 3, 66, 84
8, 212700, Note_on_c, 3, 76, 84
8, 212751, Note_on_c, 3, 66, 0
8, 212751, Note_on_c, 3, 76, 0
8, 212760, Note_on_c, 3, 66, 84
8, 212760, Note_on_c, 3, 76, 84
8, 212864, Note_on_c, 3, 66, 0
8, 212864, Note_on_c, 3, 76, 0
8, 214320, Note_on_c, 3, 71, 84
8, 214851, Note_on_c, 3, 71, 0
8, 214860, Note_on_c, 3, 69, 84
8, 214911, Note_on_c, 3, 69, 0
8, 214920, Note_on_c, 3, 68, 84
8, 215001, Note_on_c, 3, 68, 0
8, 215010, Note_on_c, 3, 68, 84
8, 215039, Note_on_c, 3, 68, 0
8, 215040, Note_on_c, 3, 69, 92
8, 215100, Control_c, 3, 11, 112
8, 215571, Note_on_c, 3, 69, 0
8, 215580, Note_on_c, 3, 61, 92
8, 215580, Note_on_c, 3, 69, 92
8, 215631, Note_on_c, 3, 61, 0
8, 215631, Note_on_c, 3, 69, 0
8, 215640, Note_on_c, 3, 63, 92
8, 215640, Note_on_c, 3, 69, 92
8, 215744, Note_on_c, 3, 63, 0
8, 215744, Note_on_c, 3, 69, 0
8, 215760, Note_on_c, 3, 68, 92
8, 215760, Note_on_c, 3, 64, 92
8, 215999, Note_on_c, 3, 68, 0
8, 215999, Note_on_c, 3, 64, 0
8, 216118, Control_c, 3, 11, 127
8, 216120, Note_on_c, 3, 68, 84
8, 216359, Note_on_c, 3, 68, 0
8, 216480, Note_on_c, 3, 71, 84
8, 216719, Note_on_c, 3, 71, 0
8, 217020, Note_on_c, 3, 71, 84
8, 217071, Note_on_c, 3, 71, 0
8, 217080, Note_on_c, 3, 71, 84
8, 217184, Note_on_c, 3, 71, 0
8, 217200, Note_on_c, 3, 71, 92
8, 217260, Control_c, 3, 11, 112
8, 217424, Note_on_c, 3, 71, 0
8, 217440, Note_on_c, 3, 68, 92
8, 217521, Note_on_c, 3, 68, 0
8, 217530, Note_on_c, 3, 68, 92
8, 217559, Note_on_c, 3, 68, 0
8, 217560, Note_on_c, 3, 69, 92
8, 217731, Note_on_c, 3, 69, 0
8, 217740, Note_on_c, 3, 61, 92
8, 217740, Note_on_c, 3, 69, 92
8, 217791, Note_on_c, 3, 61, 0
8, 217791, Note_on_c, 3, 69, 0
8, 217800, Note_on_c, 3, 63, 92
8, 217800, Note_on_c, 3, 69, 92
8, 217904, Note_on_c, 3, 63, 0
8, 217904, Note_on_c, 3, 69, 0
8, 217920, Note_on_c, 3, 64, 92
8, 217920, Note_on_c, 3, 68, 92
8, 218159, Note_on_c, 3, 64, 0
8, 218159, Note_on_c, 3, 68, 0
8, 218460, Note_on_c, 3, 71, 92
8, 218511, Note_on_c, 3, 71, 0
8, 218520, Note_on_c, 3, 71, 92
8, 218624, Note_on_c, 3, 71, 0
8, 218638, Control_c, 3, 11, 127
8, 218640, Note_on_c, 3, 71, 92
8, 218700, Control_c, 3, 11, 112
8, 218864, Note_on_c, 3, 71, 0
8, 218880, Note_on_c, 3, 68, 92
8, 218961, Note_on_c, 3, 68, 0
8, 218970, Note_on_c, 3, 68, 92
8, 218999, Note_on_c, 3, 68, 0
8, 219000, Note_on_c, 3, 69, 92
8, 219171, Note_on_c, 3, 69, 0
8, 219180, Note_on_c, 3, 61, 92
8, 219180, Note_on_c, 3, 69, 92
8, 219231, Note_on_c, 3, 61, 0
8, 219231, Note_on_c, 3, 69, 0
8, 219240, Note_on_c, 3, 69, 92
8, 219240, Note_on_c, 3, 63, 92
8, 219344, Note_on_c, 3, 69, 0
8, 219344, Note_on_c, 3, 63, 0
8, 219358, Control_c, 3, 11, 127
8, 219360, Note_on_c, 3, 64, 84
8, 219479, Note_on_c, 3, 64, 0
8, 219600, Note_on_c, 3, 64, 84
8, 219600, Note_on_c, 3, 76, 84
8, 219719, Note_on_c, 3, 64, 0
8, 219719, Note_on_c, 3, 76, 0
8, 219960, Note_on_c, 3, 76, 84
8, 219960, Note_on_c, 3, 64, 84
8, 220079, Note_on_c, 3, 76, 0
8, 220079, Note_on_c, 3, 64, 0
8, 220320, Note_on_c, 3, 64, 84
8, 220320, Note_on_c, 3, 76, 84
8, 220439, Note_on_c, 3, 64, 0
8, 220439, Note_on_c, 3, 76, 0
8, 220680, Note_on_c, 3, 76, 84
8, 220680, Note_on_c, 3, 64, 84
8, 220799, Note_on_c, 3, 76, 0
8, 220799, Note_on_c, 3, 64, 0
8, 221040, Note_on_c, 3, 64, 84
8, 221040, Note_on_c, 3, 76, 84
8, 221159, Note_on_c, 3, 64, 0
8, 221159, Note_on_c, 3, 76, 0
8, 221400, Note_on_c, 3, 76, 84
8, 221400, Note_on_c, 3, 64, 84
8, 221519, Note_on_c, 3, 76, 0
8, 221519, Note_on_c, 3, 64, 0
8, 221760, Note_on_c, 3, 76, 84
8, 221760, Note_on_c, 3, 64, 84
8, 221879, Note_on_c, 3, 76, 0
8, 221879, Note_on_c, 3, 64, 0
8, 222120, Note_on_c, 3, 76, 84
8, 222120, Note_on_c, 3, 64, 84
8, 222239, Note_on_c, 3, 76, 0
8, 222239, Note_on_c, 3, 64, 0
8, 223920, Note_on_c, 3, 79, 84
8, 223920, Note_on_c, 3, 67, 84
8, 224039, Note_on_c, 3, 79, 0
8, 224039, Note_on_c, 3, 67, 0
8, 224280, Note_on_c, 3, 79, 84
8, 224280, Note_on_c, 3, 67, 84
8, 224399, Note_on_c, 3, 79, 0
8, 224399, Note_on_c, 3, 67, 0
8, 224640, Note_on_c, 3, 79, 84
8, 224640, Note_on_c, 3, 67, 84
8, 224759, Note_on_c, 3, 79, 0
8, 224759, Note_on_c, 3, 67, 0
8, 225000, Note_on_c, 3, 79, 84
8, 225000, Note_on_c, 3, 67, 84
8, 225119, Note_on_c, 3, 79, 0
8, 225119, Note_on_c, 3, 67, 0
8, 240960, Note_on_c, 3, 72, 76
8, 240960, Note_on_c, 3, 76, 76
8, 243824, Note_on_c, 3, 72, 0
8, 243824, Note_on_c, 3, 76, 0
8, 243840, Note_on_c, 3, 77, 84
8, 243840, Note_on_c, 3, 74, 84
8, 244011, Note_on_c, 3, 77, 0
8, 244011, Note_on_c, 3, 74, 0
8, 244020, Note_on_c, 3, 77, 84
8, 244020, Note_on_c, 3, 74, 84
8, 244071, Note_on_c, 3, 77, 0
8, 244071, Note_on_c, 3, 74, 0
8, 244080, Note_on_c, 3, 77, 84
8, 244080, Note_on_c, 3, 74, 84
8, 244184, Note_on_c, 3, 77, 0
8, 244184, Note_on_c, 3, 74, 0
8, 244200, Note_on_c, 3, 77, 84
8, 244200, Note_on_c, 3, 74, 84
8, 244371, Note_on_c, 3, 77, 0
8, 244371, Note_on_c, 3, 74, 0
8, 244380, Note_on_c, 3, 77, 84
8, 244380, Note_on_c, 3, 74, 84
8, 244431, Note_on_c, 3, 77, 0
8, 244431, Note_on_c, 3, 74, 0
8, 244440, Note_on_c, 3, 74, 84
8, 244440, Note_on_c, 3, 77, 84
8, 244544, Note_on_c, 3, 74, 0
8, 244544, Note_on_c, 3, 77, 0
8, 244560, Note_on_c, 3, 77, 84
8, 244560, Note_on_c, 3, 74, 84
8, 244731, Note_on_c, 3, 77, 0
8, 244731, Note_on_c, 3, 74, 0
8, 244740, Note_on_c, 3, 77, 84
8, 244740, Note_on_c, 3, 74, 84
8, 244791, Note_on_c, 3, 77, 0
8, 244791, Note_on_c, 3, 74, 0
8, 244800, Note_on_c, 3, 77, 84
8, 244800, Note_on_c, 3, 74, 84
8, 244904, Note_on_c, 3, 77, 0
8, 244904, Note_on_c, 3, 74, 0
8, 244920, Note_on_c, 3, 77, 84
8, 244920, Note_on_c, 3, 74, 84
8, 245091, Note_on_c, 3, 77, 0
8, 245091, Note_on_c, 3, 74, 0
8, 245100, Note_on_c, 3, 74, 84
8, 245100, Note_on_c, 3, 77, 84
8, 245151, Note_on_c, 3, 74, 0
8, 245151, Note_on_c, 3, 77, 0
8, 245160, Note_on_c, 3, 77, 84
8, 245160, Note_on_c, 3, 74, 84
8, 245264, Note_on_c, 3, 77, 0
8, 245264, Note_on_c, 3, 74, 0
8, 245280, Note_on_c, 3, 74, 76
8, 245280, Note_on_c, 3, 77, 76
8, 248144, Note_on_c, 3, 74, 0
8, 248144, Note_on_c, 3, 77, 0
8, 248160, Note_on_c, 3, 71, 84
8, 248160, Note_on_c, 3, 76, 84
8, 248331, Note_on_c, 3, 71, 0
8, 248331, Note_on_c, 3, 76, 0
8, 248340, Note_on_c, 3, 68, 84
8, 248340, Note_on_c, 3, 71, 84
8, 248391, Note_on_c, 3, 68, 0
8, 248391, Note_on_c, 3, 71, 0
8, 248400, Note_on_c, 3, 71, 84
8, 248400, Note_on_c, 3, 68, 84
8, 248504, Note_on_c, 3, 71, 0
8, 248504, Note_on_c, 3, 68, 0
8, 248520, Note_on_c, 3, 68, 84
8, 248520, Note_on_c, 3, 71, 84
8, 248691, Note_on_c, 3, 68, 0
8, 248691, Note_on_c, 3, 71, 0
8, 248700, Note_on_c, 3, 68, 84
8, 248700, Note_on_c, 3, 71, 84
8, 248751, Note_on_c, 3, 68, 0
8, 248751, Note_on_c, 3, 71, 0
8, 248760, Note_on_c, 3, 68, 84
8, 248760, Note_on_c, 3, 71, 84
8, 248864, Note_on_c, 3, 68, 0
8, 248864, Note_on_c, 3, 71, 0
8, 248880, Note_on_c, 3, 71, 84
8, 248880, Note_on_c, 3, 68, 84
8, 249051, Note_on_c, 3, 71, 0
8, 249051, Note_on_c, 3, 68, 0
8, 249060, Note_on_c, 3, 71, 84
8, 249060, Note_on_c, 3, 68, 84
8, 249111, Note_on_c, 3, 71, 0
8, 249111, Note_on_c, 3, 68, 0
8, 249120, Note_on_c, 3, 68, 84
8, 249120, Note_on_c, 3, 71, 84
8, 249224, Note_on_c, 3, 68, 0
8, 249224, Note_on_c, 3, 71, 0
8, 249240, Note_on_c, 3, 71, 84
8, 249240, Note_on_c, 3, 68, 84
8, 249411, Note_on_c, 3, 71, 0
8, 249411, Note_on_c, 3, 68, 0
8, 249420, Note_on_c, 3, 68, 84
8, 249420, Note_on_c, 3, 71, 84
8, 249471, Note_on_c, 3, 68, 0
8, 249471, Note_on_c, 3, 71, 0
8, 249480, Note_on_c, 3, 68, 84
8, 249480, Note_on_c, 3, 71, 84
8, 249584, Note_on_c, 3, 68, 0
8, 249584, Note_on_c, 3, 71, 0
8, 249600, Note_on_c, 3, 71, 84
8, 249600, Note_on_c, 3, 68, 84
8, 252719, Note_on_c, 3, 71, 0
8, 252719, Note_on_c, 3, 68, 0
8, 252840, Note_on_c, 3, 64, 92
8, 252840, Note_on_c, 3, 76, 92
8, 252900, Control_c, 3, 11, 112
8, 253011, Note_on_c, 3, 64, 0
8, 253011, Note_on_c, 3, 76, 0
8, 253020, Note_on_c, 3, 64, 92
8, 253020, Note_on_c, 3, 76, 92
8, 253071, Note_on_c, 3, 64, 0
8, 253071, Note_on_c, 3, 76, 0
8, 253080, Note_on_c, 3, 76, 92
8, 253080, Note_on_c, 3, 64, 92
8, 253199, Note_on_c, 3, 76, 0
8, 253199, Note_on_c, 3, 64, 0
8, 253440, Control_c, 3, 11, 127
8, 253560, Note_on_c, 3, 77, 92
8, 253560, Note_on_c, 3, 65, 92
8, 253620, Control_c, 3, 11, 112
8, 253731, Note_on_c, 3, 77, 0
8, 253731, Note_on_c, 3, 65, 0
8, 253740, Note_on_c, 3, 77, 92
8, 253740, Note_on_c, 3, 65, 92
8, 253791, Note_on_c, 3, 77, 0
8, 253791, Note_on_c, 3, 65, 0
8, 253800, Note_on_c, 3, 65, 92
8, 253800, Note_on_c, 3, 77, 92
8, 253919, Note_on_c, 3, 65, 0
8, 253919, Note_on_c, 3, 77, 0
8, 254160, Control_c, 3, 11, 127
8, 254280, Note_on_c, 3, 77, 92
8, 254280, Note_on_c, 3, 65, 92
8, 254340, Control_c, 3, 11, 112
8, 254451, Note_on_c, 3, 77, 0
8, 254451, Note_on_c, 3, 65, 0
8, 254460, Note_on_c, 3, 77, 92
8, 254460, Note_on_c, 3, 65, 92
8, 254511, Note_on_c, 3, 77, 0
8, 254511, Note_on_c, 3, 65, 0
8, 254520, Note_on_c, 3, 65, 92
8, 254520, Note_on_c, 3, 77, 92
8, 254624, Note_on_c, 3, 65, 0
8, 254624, Note_on_c, 3, 77, 0
8, 254638, Control_c, 3, 11, 127
8, 258180, Note_on_c, 3, 67, 52
8, 258180, Note_on_c, 3, 79, 52
8, 258231, Note_on_c, 3, 67, 0
8, 258231, Note_on_c, 3, 79, 0
8, 258240, Note_on_c, 3, 67, 52
8, 258240, Note_on_c, 3, 79, 52
8, 258771, Note_on_c, 3, 67, 0
8, 258771, Note_on_c, 3, 79, 0
8, 258780, Note_on_c, 3, 77, 52
8, 258780, Note_on_c, 3, 67, 52
8, 258824, Note_on_c, 3, 77, 0
8, 258824, Note_on_c, 3, 67, 0
8, 258840, Note_on_c, 3, 67, 52
8, 258840, Note_on_c, 3, 76, 52
8, 258929, Note_on_c, 3, 67, 0
8, 258929, Note_on_c, 3, 76, 0
8, 258960, Note_on_c, 3, 77, 52
8, 258960, Note_on_c, 3, 67, 52
8, 259199, Note_on_c, 3, 77, 0
8, 259199, Note_on_c, 3, 67, 0
8, 259320, Note_on_c, 3, 67, 52
8, 259320, Note_on_c, 3, 76, 52
8, 259559, Note_on_c, 3, 67, 0
8, 259559, Note_on_c, 3, 76, 0
8, 259680, Note_on_c, 3, 74, 52
8, 259680, Note_on_c, 3, 67, 52
8, 259919, Note_on_c, 3, 74, 0
8, 259919, Note_on_c, 3, 67, 0
8, 260040, Note_on_c, 3, 67, 52
8, 260040, Note_on_c, 3, 72, 52
8, 260279, Note_on_c, 3, 67, 0
8, 260279, Note_on_c, 3, 72, 0
8, 262500, Note_on_c, 3, 69, 52
8, 262551, Note_on_c, 3, 69, 0
8, 262560, Note_on_c, 3, 69, 52
8, 263091, Note_on_c, 3, 69, 0
8, 263100, Note_on_c, 3, 69, 52
8, 263151, Note_on_c, 3, 69, 0
8, 263160, Note_on_c, 3, 69, 52
8, 263264, Note_on_c, 3, 69, 0
8, 263280, Note_on_c, 3, 69, 52
8, 263519, Note_on_c, 3, 69, 0
8, 263640, Note_on_c, 3, 69, 52
8, 263879, Note_on_c, 3, 69, 0
8, 264000, Note_on_c, 3, 76, 52
8, 264000, Note_on_c, 3, 79, 52
8, 264239, Note_on_c, 3, 76, 0
8, 264239, Note_on_c, 3, 79, 0
8, 264360, Note_on_c, 3, 77, 52
8, 264360, Note_on_c, 3, 74, 52
8, 264599, Note_on_c, 3, 77, 0
8, 264599, Note_on_c, 3, 74, 0
8, 264720, Note_on_c, 3, 69, 52
8, 264959, Note_on_c, 3, 69, 0
8, 265080, Note_on_c, 3, 69, 52
8, 265319, Note_on_c, 3, 69, 0
8, 265440, Note_on_c, 3, 76, 52
8, 265440, Note_on_c, 3, 79, 52
8, 265679, Note_on_c, 3, 76, 0
8, 265679, Note_on_c, 3, 79, 0
8, 265800, Note_on_c, 3, 74, 52
8, 265800, Note_on_c, 3, 77, 52
8, 266039, Note_on_c, 3, 74, 0
8, 266039, Note_on_c, 3, 77, 0
8, 266160, Note_on_c, 3, 76, 52
8, 266160, Note_on_c, 3, 73, 52
8, 266331, Note_on_c, 3, 76, 0
8, 266331, Note_on_c, 3, 73, 0
8, 266340, Note_on_c, 3, 81, 52
8, 266340, Note_on_c, 3, 69, 52
8, 266391, Note_on_c, 3, 81, 0
8, 266391, Note_on_c, 3, 69, 0
8, 266400, Note_on_c, 3, 81, 52
8, 266400, Note_on_c, 3, 69, 52
8, 266504, Note_on_c, 3, 81, 0
8, 266504, Note_on_c, 3, 69, 0
8, 266520, Note_on_c, 3, 81, 52
8, 266520, Note_on_c, 3, 69, 52
8, 266691, Note_on_c, 3, 81, 0
8, 266691, Note_on_c, 3, 69, 0
8, 266700, Note_on_c, 3, 81, 53
8, 266700, Note_on_c, 3, 69, 53
8, 266751, Note_on_c, 3, 81, 0
8, 266751, Note_on_c, 3, 69, 0
8, 266760, Note_on_c, 3, 69, 53
8, 266760, Note_on_c, 3, 81, 53
8, 266864, Note_on_c, 3, 69, 0
8, 266864, Note_on_c, 3, 81, 0
8, 266880, Note_on_c, 3, 81, 53
8, 266880, Note_on_c, 3, 69, 53
8, 267051, Note_on_c, 3, 81, 0
8, 267051, Note_on_c, 3, 69, 0
8, 267060, Note_on_c, 3, 69, 54
8, 267060, Note_on_c, 3, 81, 54
8, 267111, Note_on_c, 3, 69, 0
8, 267111, Note_on_c, 3, 81, 0
8, 267120, Note_on_c, 3, 69, 54
8, 267120, Note_on_c, 3, 81, 54
8, 267224, Note_on_c, 3, 69, 0
8, 267224, Note_on_c, 3, 81, 0
8, 267240, Note_on_c, 3, 69, 54
8, 267240, Note_on_c, 3, 81, 54
8, 267411, Note_on_c, 3, 69, 0
8, 267411, Note_on_c, 3, 81, 0
8, 267420, Note_on_c, 3, 81, 55
8, 267420, Note_on_c, 3, 69, 55
8, 267471, Note_on_c, 3, 81, 0
8, 267471, Note_on_c, 3, 69, 0
8, 267480, Note_on_c, 3, 81, 55
8, 267480, Note_on_c, 3, 69, 55
8, 267584, Note_on_c, 3, 81, 0
8, 267584, Note_on_c, 3, 69, 0
8, 267600, Note_on_c, 3, 69, 55
8, 267600, Note_on_c, 3, 81, 55
8, 267771, Note_on_c, 3, 69, 0
8, 267771, Note_on_c, 3, 81, 0
8, 267780, Note_on_c, 3, 81, 55
8, 267780, Note_on_c, 3, 69, 55
8, 267831, Note_on_c, 3, 81, 0
8, 267831, Note_on_c, 3, 69, 0
8, 267840, Note_on_c, 3, 69, 56
8, 267840, Note_on_c, 3, 81, 56
8, 267944, Note_on_c, 3, 69, 0
8, 267944, Note_on_c, 3, 81, 0
8, 267960, Note_on_c, 3, 69, 56
8, 267960, Note_on_c, 3, 81, 56
8, 268131, Note_on_c, 3, 69, 0
8, 268131, Note_on_c, 3, 81, 0
8, 268140, Note_on_c, 3, 81, 56
8, 268140, Note_on_c, 3, 69, 56
8, 268191, Note_on_c, 3, 81, 0
8, 268191, Note_on_c, 3, 69, 0
8, 268200, Note_on_c, 3, 69, 56
8, 268200, Note_on_c, 3, 81, 56
8, 268304, Note_on_c, 3, 69, 0
8, 268304, Note_on_c, 3, 81, 0
8, 268320, Note_on_c, 3, 69, 57
8, 268320, Note_on_c, 3, 81, 57
8, 268491, Note_on_c, 3, 69, 0
8, 268491, Note_on_c, 3, 81, 0
8, 268500, Note_on_c, 3, 81, 57
8, 268500, Note_on_c, 3, 69, 57
8, 268551, Note_on_c, 3, 81, 0
8, 268551, Note_on_c, 3, 69, 0
8, 268560, Note_on_c, 3, 81, 57
8, 268560, Note_on_c, 3, 69, 57
8, 268664, Note_on_c, 3, 81, 0
8, 268664, Note_on_c, 3, 69, 0
8, 268680, Note_on_c, 3, 81, 58
8, 268680, Note_on_c, 3, 69, 58
8, 268851, Note_on_c, 3, 81, 0
8, 268851, Note_on_c, 3, 69, 0
8, 268860, Note_on_c, 3, 81, 58
8, 268860, Note_on_c, 3, 69, 58
8, 268911, Note_on_c, 3, 81, 0
8, 268911, Note_on_c, 3, 69, 0
8, 268920, Note_on_c, 3, 69, 58
8, 268920, Note_on_c, 3, 81, 58
8, 269024, Note_on_c, 3, 69, 0
8, 269024, Note_on_c, 3, 81, 0
8, 269040, Note_on_c, 3, 69, 58
8, 269040, Note_on_c, 3, 81, 58
8, 269211, Note_on_c, 3, 69, 0
8, 269211, Note_on_c, 3, 81, 0
8, 269220, Note_on_c, 3, 69, 59
8, 269220, Note_on_c, 3, 81, 59
8, 269271, Note_on_c, 3, 69, 0
8, 269271, Note_on_c, 3, 81, 0
8, 269280, Note_on_c, 3, 69, 59
8, 269280, Note_on_c, 3, 81, 59
8, 269384, Note_on_c, 3, 69, 0
8, 269384, Note_on_c, 3, 81, 0
8, 269400, Note_on_c, 3, 81, 59
8, 269400, Note_on_c, 3, 69, 59
8, 269571, Note_on_c, 3, 81, 0
8, 269571, Note_on_c, 3, 69, 0
8, 269580, Note_on_c, 3, 81, 60
8, 269580, Note_on_c, 3, 69, 60
8, 269631, Note_on_c, 3, 81, 0
8, 269631, Note_on_c, 3, 69, 0
8, 269640, Note_on_c, 3, 81, 60
8, 269640, Note_on_c, 3, 69, 60
8, 269744, Note_on_c, 3, 81, 0
8, 269744, Note_on_c, 3, 69, 0
8, 269760, Note_on_c, 3, 81, 60
8, 269760, Note_on_c, 3, 69, 60
8, 269931, Note_on_c, 3, 81, 0
8, 269931, Note_on_c, 3, 69, 0
8, 269940, Note_on_c, 3, 81, 61
8, 269940, Note_on_c, 3, 69, 61
8, 269991, Note_on_c, 3, 81, 0
8, 269991, Note_on_c, 3, 69, 0
8, 270000, Note_on_c, 3, 81, 61
8, 270000, Note_on_c, 3, 69, 61
8, 270104, Note_on_c, 3, 81, 0
8, 270104, Note_on_c, 3, 69, 0
8, 270120, Note_on_c, 3, 69, 61
8, 270120, Note_on_c, 3, 81, 61
8, 270291, Note_on_c, 3, 69, 0
8, 270291, Note_on_c, 3, 81, 0
8, 270300, Note_on_c, 3, 69, 61
8, 270300, Note_on_c, 3, 81, 61
8, 270351, Note_on_c, 3, 69, 0
8, 270351, Note_on_c, 3, 81, 0
8, 270360, Note_on_c, 3, 81, 62
8, 270360, Note_on_c, 3, 69, 62
8, 270464, Note_on_c, 3, 81, 0
8, 270464, Note_on_c, 3, 69, 0
8, 270480, Note_on_c, 3, 70, 62
8, 270480, Note_on_c, 3, 82, 62
8, 270651, Note_on_c, 3, 70, 0
8, 270651, Note_on_c, 3, 82, 0
8, 270660, Note_on_c, 3, 70, 62
8, 270660, Note_on_c, 3, 72, 62
8, 270711, Note_on_c, 3, 70, 0
8, 270711, Note_on_c, 3, 72, 0
8, 270720, Note_on_c, 3, 72, 62
8, 270720, Note_on_c, 3, 70, 62
8, 270824, Note_on_c, 3, 72, 0
8, 270824, Note_on_c, 3, 70, 0
8, 270840, Note_on_c, 3, 72, 63
8, 270840, Note_on_c, 3, 70, 63
8, 271011, Note_on_c, 3, 72, 0
8, 271011, Note_on_c, 3, 70, 0
8, 271020, Note_on_c, 3, 70, 63
8, 271020, Note_on_c, 3, 72, 63
8, 271071, Note_on_c, 3, 70, 0
8, 271071, Note_on_c, 3, 72, 0
8, 271080, Note_on_c, 3, 70, 63
8, 271080, Note_on_c, 3, 72, 63
8, 271184, Note_on_c, 3, 70, 0
8, 271184, Note_on_c, 3, 72, 0
8, 271200, Note_on_c, 3, 70, 64
8, 271200, Note_on_c, 3, 72, 64
8, 271371, Note_on_c, 3, 70, 0
8, 271371, Note_on_c, 3, 72, 0
8, 271380, Note_on_c, 3, 70, 64
8, 271380, Note_on_c, 3, 72, 64
8, 271431, Note_on_c, 3, 70, 0
8, 271431, Note_on_c, 3, 72, 0
8, 271440, Note_on_c, 3, 70, 64
8, 271440, Note_on_c, 3, 72, 64
8, 271544, Note_on_c, 3, 70, 0
8, 271544, Note_on_c, 3, 72, 0
8, 271560, Note_on_c, 3, 72, 64
8, 271560, Note_on_c, 3, 70, 64
8, 271731, Note_on_c, 3, 72, 0
8, 271731, Note_on_c, 3, 70, 0
8, 271740, Note_on_c, 3, 72, 65
8, 271740, Note_on_c, 3, 70, 65
8, 271791, Note_on_c, 3, 72, 0
8, 271791, Note_on_c, 3, 70, 0
8, 271800, Note_on_c, 3, 70, 65
8, 271800, Note_on_c, 3, 72, 65
8, 271904, Note_on_c, 3, 70, 0
8, 271904, Note_on_c, 3, 72, 0
8, 271920, Note_on_c, 3, 70, 65
8, 271920, Note_on_c, 3, 72, 65
8, 272091, Note_on_c, 3, 70, 0
8, 272091, Note_on_c, 3, 72, 0
8, 272100, Note_on_c, 3, 72, 66
8, 272100, Note_on_c, 3, 70, 66
8, 272151, Note_on_c, 3, 72, 0
8, 272151, Note_on_c, 3, 70, 0
8, 272160, Note_on_c, 3, 70, 66
8, 272160, Note_on_c, 3, 72, 66
8, 272264, Note_on_c, 3, 70, 0
8, 272264, Note_on_c, 3, 72, 0
8, 272280, Note_on_c, 3, 70, 66
8, 272280, Note_on_c, 3, 72, 66
8, 272451, Note_on_c, 3, 70, 0
8, 272451, Note_on_c, 3, 72, 0
8, 272460, Note_on_c, 3, 70, 67
8, 272460, Note_on_c, 3, 72, 67
8, 272511, Note_on_c, 3, 70, 0
8, 272511, Note_on_c, 3, 72, 0
8, 272520, Note_on_c, 3, 72, 67
8, 272520, Note_on_c, 3, 70, 67
8, 272624, Note_on_c, 3, 72, 0
8, 272624, Note_on_c, 3, 70, 0
8, 272640, Note_on_c, 3, 70, 67
8, 272640, Note_on_c, 3, 72, 67
8, 272811, Note_on_c, 3, 70, 0
8, 272811, Note_on_c, 3, 72, 0
8, 272820, Note_on_c, 3, 72, 67
8, 272820, Note_on_c, 3, 70, 67
8, 272871, Note_on_c, 3, 72, 0
8, 272871, Note_on_c, 3, 70, 0
8, 272880, Note_on_c, 3, 72, 68
8, 272880, Note_on_c, 3, 70, 68
8, 272984, Note_on_c, 3, 72, 0
8, 272984, Note_on_c, 3, 70, 0
8, 273000, Note_on_c, 3, 72, 68
8, 273000, Note_on_c, 3, 70, 68
8, 273171, Note_on_c, 3, 72, 0
8, 273171, Note_on_c, 3, 70, 0
8, 273180, Note_on_c, 3, 70, 68
8, 273180, Note_on_c, 3, 72, 68
8, 273231, Note_on_c, 3, 70, 0
8, 273231, Note_on_c, 3, 72, 0
8, 273240, Note_on_c, 3, 70, 68
8, 273240, Note_on_c, 3, 72, 68
8, 273344, Note_on_c, 3, 70, 0
8, 273344, Note_on_c, 3, 72, 0
8, 273360, Note_on_c, 3, 72, 69
8, 273531, Note_on_c, 3, 72, 0
8, 273540, Note_on_c, 3, 74, 69
8, 273540, Note_on_c, 3, 72, 69
8, 273591, Note_on_c, 3, 74, 0
8, 273591, Note_on_c, 3, 72, 0
8, 273600, Note_on_c, 3, 72, 69
8, 273600, Note_on_c, 3, 74, 69
8, 273704, Note_on_c, 3, 72, 0
8, 273704, Note_on_c, 3, 74, 0
8, 273720, Note_on_c, 3, 72, 70
8, 273720, Note_on_c, 3, 74, 70
8, 273891, Note_on_c, 3, 72, 0
8, 273891, Note_on_c, 3, 74, 0
8, 273900, Note_on_c, 3, 74, 70
8, 273900, Note_on_c, 3, 72, 70
8, 273951, Note_on_c, 3, 74, 0
8, 273951, Note_on_c, 3, 72, 0
8, 273960, Note_on_c, 3, 72, 70
8, 273960, Note_on_c, 3, 74, 70
8, 274064, Note_on_c, 3, 72, 0
8, 274064, Note_on_c, 3, 74, 0
8, 274080, Note_on_c, 3, 74, 70
8, 274080, Note_on_c, 3, 72, 70
8, 274251, Note_on_c, 3, 74, 0
8, 274251, Note_on_c, 3, 72, 0
8, 274260, Note_on_c, 3, 72, 71
8, 274260, Note_on_c, 3, 74, 71
8, 274311, Note_on_c, 3, 72, 0
8, 274311, Note_on_c, 3, 74, 0
8, 274320, Note_on_c, 3, 74, 71
8, 274320, Note_on_c, 3, 72, 71
8, 274424, Note_on_c, 3, 74, 0
8, 274424, Note_on_c, 3, 72, 0
8, 274440, Note_on_c, 3, 74, 71
8, 274440, Note_on_c, 3, 72, 71
8, 274611, Note_on_c, 3, 74, 0
8, 274611, Note_on_c, 3, 72, 0
8, 274620, Note_on_c, 3, 74, 72
8, 274620, Note_on_c, 3, 72, 72
8, 274671, Note_on_c, 3, 74, 0
8, 274671, Note_on_c, 3, 72, 0
8, 274680, Note_on_c, 3, 72, 72
8, 274680, Note_on_c, 3, 74, 72
8, 274784, Note_on_c, 3, 72, 0
8, 274784, Note_on_c, 3, 74, 0
8, 274800, Note_on_c, 3, 72, 72
8, 274800, Note_on_c, 3, 74, 72
8, 274971, Note_on_c, 3, 72, 0
8, 274971, Note_on_c, 3, 74, 0
8, 274980, Note_on_c, 3, 74, 73
8, 274980, Note_on_c, 3, 72, 73
8, 275031, Note_on_c, 3, 74, 0
8, 275031, Note_on_c, 3, 72, 0
8, 275040, Note_on_c, 3, 72, 73
8, 275040, Note_on_c, 3, 74, 73
8, 275144, Note_on_c, 3, 72, 0
8, 275144, Note_on_c, 3, 74, 0
8, 275160, Note_on_c, 3, 74, 73
8, 275160, Note_on_c, 3, 72, 73
8, 275331, Note_on_c, 3, 74, 0
8, 275331, Note_on_c, 3, 72, 0
8, 275340, Note_on_c, 3, 72, 73
8, 275340, Note_on_c, 3, 74, 73
8, 275391, Note_on_c, 3, 72, 0
8, 275391, Note_on_c, 3, 74, 0
8, 275400, Note_on_c, 3, 74, 74
8, 275400, Note_on_c, 3, 72, 74
8, 275504, Note_on_c, 3, 74, 0
8, 275504, Note_on_c, 3, 72, 0
8, 275520, Note_on_c, 3, 72, 74
8, 275520, Note_on_c, 3, 74, 74
8, 275691, Note_on_c, 3, 72, 0
8, 275691, Note_on_c, 3, 74, 0
8, 275700, Note_on_c, 3, 74, 74
8, 275700, Note_on_c, 3, 72, 74
8, 275751, Note_on_c, 3, 74, 0
8, 275751, Note_on_c, 3, 72, 0
8, 275760, Note_on_c, 3, 72, 74
8, 275760, Note_on_c, 3, 74, 74
8, 275864, Note_on_c, 3, 72, 0
8, 275864, Note_on_c, 3, 74, 0
8, 275880, Note_on_c, 3, 74, 75
8, 275880, Note_on_c, 3, 72, 75
8, 276051, Note_on_c, 3, 74, 0
8, 276051, Note_on_c, 3, 72, 0
8, 276060, Note_on_c, 3, 72, 75
8, 276060, Note_on_c, 3, 74, 75
8, 276111, Note_on_c, 3, 72, 0
8, 276111, Note_on_c, 3, 74, 0
8, 276120, Note_on_c, 3, 72, 75
8, 276120, Note_on_c, 3, 74, 75
8, 276224, Note_on_c, 3, 72, 0
8, 276224, Note_on_c, 3, 74, 0
8, 276240, Note_on_c, 3, 74, 76
8, 276479, Note_on_c, 3, 74, 0
8, 276600, Note_on_c, 3, 62, 76
8, 276600, Note_on_c, 3, 74, 76
8, 276719, Note_on_c, 3, 62, 0
8, 276719, Note_on_c, 3, 74, 0
8, 276780, Note_on_c, 3, 74, 76
8, 276780, Note_on_c, 3, 62, 76
8, 276831, Note_on_c, 3, 74, 0
8, 276831, Note_on_c, 3, 62, 0
8, 276840, Note_on_c, 3, 61, 76
8, 276840, Note_on_c, 3, 73, 76
8, 276944, Note_on_c, 3, 61, 0
8, 276944, Note_on_c, 3, 73, 0
8, 276960, Note_on_c, 3, 74, 76
8, 276960, Note_on_c, 3, 62, 76
8, 277199, Note_on_c, 3, 74, 0
8, 277199, Note_on_c, 3, 62, 0
8, 277320, Note_on_c, 3, 62, 76
8, 277320, Note_on_c, 3, 74, 76
8, 277439, Note_on_c, 3, 62, 0
8, 277439, Note_on_c, 3, 74, 0
8, 277500, Note_on_c, 3, 74, 76
8, 277500, Note_on_c, 3, 62, 76
8, 277551, Note_on_c, 3, 74, 0
8, 277551, Note_on_c, 3, 62, 0
8, 277560, Note_on_c, 3, 63, 76
8, 277560, Note_on_c, 3, 75, 76
8, 277664, Note_on_c, 3, 63, 0
8, 277664, Note_on_c, 3, 75, 0
8, 277680, Note_on_c, 3, 76, 76
8, 277680, Note_on_c, 3, 64, 76
8, 277919, Note_on_c, 3, 76, 0
8, 277919, Note_on_c, 3, 64, 0
8, 278040, Note_on_c, 3, 64, 76
8, 278040, Note_on_c, 3, 76, 76
8, 278159, Note_on_c, 3, 64, 0
8, 278159, Note_on_c, 3, 76, 0
8, 278220, Note_on_c, 3, 76, 76
8, 278220, Note_on_c, 3, 64, 76
8, 278271, Note_on_c, 3, 76, 0
8, 278271, Note_on_c, 3, 64, 0
8, 278280, Note_on_c, 3, 63, 76
8, 278280, Note_on_c, 3, 75, 76
8, 278384, Note_on_c, 3, 63, 0
8, 278384, Note_on_c, 3, 75, 0
8, 278400, Note_on_c, 3, 64, 76
8, 278400, Note_on_c, 3, 76, 76
8, 278639, Note_on_c, 3, 64, 0
8, 278639, Note_on_c, 3, 76, 0
8, 278760, Note_on_c, 3, 76, 76
8, 278760, Note_on_c, 3, 64, 76
8, 278879, Note_on_c, 3, 76, 0
8, 278879, Note_on_c, 3, 64, 0
8, 278940, Note_on_c, 3, 64, 76
8, 278940, Note_on_c, 3, 76, 76
8, 278991, Note_on_c, 3, 64, 0
8, 278991, Note_on_c, 3, 76, 0
8, 279000, Note_on_c, 3, 76, 76
8, 279000, Note_on_c, 3, 64, 76
8, 279104, Note_on_c, 3, 76, 0
8, 279104, Note_on_c, 3, 64, 0
8, 279120, Note_on_c, 3, 77, 84
8, 279120, Note_on_c, 3, 65, 84
8, 279239, Note_on_c, 3, 77, 0
8, 279239, Note_on_c, 3, 65, 0
8, 279300, Note_on_c, 3, 69, 84
8, 279300, Note_on_c, 3, 81, 84
8, 279351, Note_on_c, 3, 69, 0
8, 279351, Note_on_c, 3, 81, 0
8, 279360, Note_on_c, 3, 81, 84
8, 279360, Note_on_c, 3, 69, 84
8, 279464, Note_on_c, 3, 81, 0
8, 279464, Note_on_c, 3, 69, 0
8, 279480, Note_on_c, 3, 69, 84
8, 279480, Note_on_c, 3, 81, 84
8, 279599, Note_on_c, 3, 69, 0
8, 279599, Note_on_c, 3, 81, 0
8, 279660, Note_on_c, 3, 69, 84
8, 279660, Note_on_c, 3, 81, 84
8, 279711, Note_on_c, 3, 69, 0
8, 279711, Note_on_c, 3, 81, 0
8, 279720, Note_on_c, 3, 69, 84
8, 279720, Note_on_c, 3, 81, 84
8, 279824, Note_on_c, 3, 69, 0
8, 279824, Note_on_c, 3, 81, 0
8, 279840, Note_on_c, 3, 81, 84
8, 279840, Note_on_c, 3, 69, 84
8, 279959, Note_on_c, 3, 81, 0
8, 279959, Note_on_c, 3, 69, 0
8, 280020, Note_on_c, 3, 69, 84
8, 280020, Note_on_c, 3, 81, 84
8, 280071, Note_on_c, 3, 69, 0
8, 280071, Note_on_c, 3, 81, 0
8, 280080, Note_on_c, 3, 69, 84
8, 280080, Note_on_c, 3, 81, 84
8, 280184, Note_on_c, 3, 69, 0
8, 280184, Note_on_c, 3, 81, 0
8, 280200, Note_on_c, 3, 81, 84
8, 280200, Note_on_c, 3, 69, 84
8, 280319, Note_on_c, 3, 81, 0
8, 280319, Note_on_c, 3, 69, 0
8, 280380, Note_on_c, 3, 81, 84
8, 280380, Note_on_c, 3, 69, 84
8, 280431, Note_on_c, 3, 81, 0
8, 280431, Note_on_c, 3, 69, 0
8, 280440, Note_on_c, 3, 69, 84
8, 280440, Note_on_c, 3, 81, 84
8, 280544, Note_on_c, 3, 69, 0
8, 280544, Note_on_c, 3, 81, 0
8, 280560, Note_on_c, 3, 69, 84
8, 280560, Note_on_c, 3, 81, 84
8, 280679, Note_on_c, 3, 69, 0
8, 280679, Note_on_c, 3, 81, 0
8, 280740, Note_on_c, 3, 77, 84
8, 280740, Note_on_c, 3, 65, 84
8, 280791, Note_on_c, 3, 77, 0
8, 280791, Note_on_c, 3, 65, 0
8, 280800, Note_on_c, 3, 79, 84
8, 280800, Note_on_c, 3, 67, 84
8, 280904, Note_on_c, 3, 79, 0
8, 280904, Note_on_c, 3, 67, 0
8, 280920, Note_on_c, 3, 69, 84
8, 280920, Note_on_c, 3, 81, 84
8, 281039, Note_on_c, 3, 69, 0
8, 281039, Note_on_c, 3, 81, 0
8, 281100, Note_on_c, 3, 74, 84
8, 281100, Note_on_c, 3, 62, 84
8, 281151, Note_on_c, 3, 74, 0
8, 281151, Note_on_c, 3, 62, 0
8, 281160, Note_on_c, 3, 76, 84
8, 281160, Note_on_c, 3, 64, 84
8, 281264, Note_on_c, 3, 76, 0
8, 281264, Note_on_c, 3, 64, 0
8, 281280, Note_on_c, 3, 77, 84
8, 281280, Note_on_c, 3, 65, 84
8, 281399, Note_on_c, 3, 77, 0
8, 281399, Note_on_c, 3, 65, 0
8, 281460, Note_on_c, 3, 65, 84
8, 281511, Note_on_c, 3, 65, 0
8, 281520, Note_on_c, 3, 67, 84
8, 281624, Note_on_c, 3, 67, 0
8, 281640, Note_on_c, 3, 69, 84
8, 281759, Note_on_c, 3, 69, 0
8, 281820, Note_on_c, 3, 69, 84
8, 281820, Note_on_c, 3, 81, 84
8, 281871, Note_on_c, 3, 69, 0
8, 281871, Note_on_c, 3, 81, 0
8, 281880, Note_on_c, 3, 81, 84
8, 281880, Note_on_c, 3, 69, 84
8, 281984, Note_on_c, 3, 81, 0
8, 281984, Note_on_c, 3, 69, 0
8, 282000, Note_on_c, 3, 69, 84
8, 282000, Note_on_c, 3, 81, 84
8, 282119, Note_on_c, 3, 69, 0
8, 282119, Note_on_c, 3, 81, 0
8, 282180, Note_on_c, 3, 69, 84
8, 282180, Note_on_c, 3, 81, 84
8, 282231, Note_on_c, 3, 69, 0
8, 282231, Note_on_c, 3, 81, 0
8, 282240, Note_on_c, 3, 81, 84
8, 282240, Note_on_c, 3, 69, 84
8, 282344, Note_on_c, 3, 81, 0
8, 282344, Note_on_c, 3, 69, 0
8, 282360, Note_on_c, 3, 81, 84
8, 282360, Note_on_c, 3, 69, 84
8, 282479, Note_on_c, 3, 81, 0
8, 282479, Note_on_c, 3, 69, 0
8, 282540, Note_on_c, 3, 81, 84
8, 282540, Note_on_c, 3, 69, 84
8, 282591, Note_on_c, 3, 81, 0
8, 282591, Note_on_c, 3, 69, 0
8, 282600, Note_on_c, 3, 69, 84
8, 282600, Note_on_c, 3, 81, 84
8, 282704, Note_on_c, 3, 69, 0
8, 282704, Note_on_c, 3, 81, 0
8, 282720, Note_on_c, 3, 69, 84
8, 282720, Note_on_c, 3, 81, 84
8, 282839, Note_on_c, 3, 69, 0
8, 282839, Note_on_c, 3, 81, 0
8, 282900, Note_on_c, 3, 69, 84
8, 282900, Note_on_c, 3, 81, 84
8, 282951, Note_on_c, 3, 69, 0
8, 282951, Note_on_c, 3, 81, 0
8, 282960, Note_on_c, 3, 81, 84
8, 282960, Note_on_c, 3, 69, 84
8, 283064, Note_on_c, 3, 81, 0
8, 283064, Note_on_c, 3, 69, 0
8, 283080, Note_on_c, 3, 69, 84
8, 283080, Note_on_c, 3, 81, 84
8, 283199, Note_on_c, 3, 69, 0
8, 283199, Note_on_c, 3, 81, 0
8, 283260, Note_on_c, 3, 69, 84
8, 283260, Note_on_c, 3, 81, 84
8, 283311, Note_on_c, 3, 69, 0
8, 283311, Note_on_c, 3, 81, 0
8, 283320, Note_on_c, 3, 69, 84
8, 283320, Note_on_c, 3, 81, 84
8, 283424, Note_on_c, 3, 69, 0
8, 283424, Note_on_c, 3, 81, 0
8, 283440, Note_on_c, 3, 81, 84
8, 283440, Note_on_c, 3, 69, 84
8, 283559, Note_on_c, 3, 81, 0
8, 283559, Note_on_c, 3, 69, 0
8, 283620, Note_on_c, 3, 72, 84
8, 283671, Note_on_c, 3, 72, 0
8, 283680, Note_on_c, 3, 74, 84
8, 283784, Note_on_c, 3, 74, 0
8, 283800, Note_on_c, 3, 76, 84
8, 283919, Note_on_c, 3, 76, 0
8, 283980, Note_on_c, 3, 69, 84
8, 284031, Note_on_c, 3, 69, 0
8, 284040, Note_on_c, 3, 71, 84
8, 284144, Note_on_c, 3, 71, 0
8, 284160, Note_on_c, 3, 72, 84
8, 284279, Note_on_c, 3, 72, 0
8, 284340, Note_on_c, 3, 72, 84
8, 284391, Note_on_c, 3, 72, 0
8, 284400, Note_on_c, 3, 74, 84
8, 284504, Note_on_c, 3, 74, 0
8, 284520, Note_on_c, 3, 76, 84
8, 284639, Note_on_c, 3, 76, 0
8, 284700, Note_on_c, 3, 76, 84
8, 284751, Note_on_c, 3, 76, 0
8, 284760, Note_on_c, 3, 76, 84
8, 284864, Note_on_c, 3, 76, 0
8, 284880, Note_on_c, 3, 74, 84
8, 284999, Note_on_c, 3, 74, 0
8, 285060, Note_on_c, 3, 74, 84
8, 285111, Note_on_c, 3, 74, 0
8, 285120, Note_on_c, 3, 73, 84
8, 285224, Note_on_c, 3, 73, 0
8, 285240, Note_on_c, 3, 74, 84
8, 285359, Note_on_c, 3, 74, 0
8, 285420, Note_on_c, 3, 74, 84
8, 285471, Note_on_c, 3, 74, 0
8, 285480, Note_on_c, 3, 73, 84
8, 285584, Note_on_c, 3, 73, 0
8, 285600, Note_on_c, 3, 74, 84
8, 285719, Note_on_c, 3, 74, 0
8, 285780, Note_on_c, 3, 74, 84
8, 285831, Note_on_c, 3, 74, 0
8, 285840, Note_on_c, 3, 73, 84
8, 285944, Note_on_c, 3, 73, 0
8, 285960, Note_on_c, 3, 74, 84
8, 286079, Note_on_c, 3, 74, 0
8, 286140, Note_on_c, 3, 74, 84
8, 286191, Note_on_c, 3, 74, 0
8, 286200, Note_on_c, 3, 73, 84
8, 286304, Note_on_c, 3, 73, 0
8, 286320, Note_on_c, 3, 74, 84
8, 286439, Note_on_c, 3, 74, 0
8, 286500, Note_on_c, 3, 62, 84
8, 286500, Note_on_c, 3, 74, 84
8, 286551, Note_on_c, 3, 62, 0
8, 286551, Note_on_c, 3, 74, 0
8, 286560, Note_on_c, 3, 76, 84
8, 286560, Note_on_c, 3, 64, 84
8, 286664, Note_on_c, 3, 76, 0
8, 286664, Note_on_c, 3, 64, 0
8, 286680, Note_on_c, 3, 65, 84
8, 286680, Note_on_c, 3, 77, 84
8, 286919, Note_on_c, 3, 65, 0
8, 286919, Note_on_c, 3, 77, 0
8, 287220, Note_on_c, 3, 71, 84
8, 287271, Note_on_c, 3, 71, 0
8, 287280, Note_on_c, 3, 72, 84
8, 287384, Note_on_c, 3, 72, 0
8, 287400, Note_on_c, 3, 74, 84
8, 287639, Note_on_c, 3, 74, 0
8, 287940, Note_on_c, 3, 68, 84
8, 287991, Note_on_c, 3, 68, 0
8, 288000, Note_on_c, 3, 69, 84
8, 288104, Note_on_c, 3, 69, 0
8, 288120, Note_on_c, 3, 71, 84
8, 288359, Note_on_c, 3, 71, 0
8, 288660, Note_on_c, 3, 71, 84
8, 288711, Note_on_c, 3, 71, 0
8, 288720, Note_on_c, 3, 72, 84
8, 288824, Note_on_c, 3, 72, 0
8, 288840, Note_on_c, 3, 74, 84
8, 289079, Note_on_c, 3, 74, 0
8, 292260, Note_on_c, 3, 73, 84
8, 292311, Note_on_c, 3, 73, 0
8, 292320, Note_on_c, 3, 74, 84
8, 292424, Note_on_c, 3, 74, 0
8, 292440, Note_on_c, 3, 76, 84
8, 292559, Note_on_c, 3, 76, 0
8, 292620, Note_on_c, 3, 73, 84
8, 292671, Note_on_c, 3, 73, 0
8, 292680, Note_on_c, 3, 74, 84
8, 292784, Note_on_c, 3, 74, 0
8, 292800, Note_on_c, 3, 76, 84
8, 292919, Note_on_c, 3, 76, 0
8, 292980, Note_on_c, 3, 73, 84
8, 293031, Note_on_c, 3, 73, 0
8, 293040, Note_on_c, 3, 74, 84
8, 293144, Note_on_c, 3, 74, 0
8, 293160, Note_on_c, 3, 76, 84
8, 293279, Note_on_c, 3, 76, 0
8, 293340, Note_on_c, 3, 73, 84
8, 293391, Note_on_c, 3, 73, 0
8, 293400, Note_on_c, 3, 74, 84
8, 293504, Note_on_c, 3, 74, 0
8, 293520, Note_on_c, 3, 76, 88
8, 293520, Note_on_c, 3, 64, 88
8, 293691, Note_on_c, 3, 76, 0
8, 293691, Note_on_c, 3, 64, 0
8, 293700, Note_on_c, 3, 76, 88
8, 293700, Note_on_c, 3, 64, 88
8, 293751, Note_on_c, 3, 76, 0
8, 293751, Note_on_c, 3, 64, 0
8, 293760, Note_on_c, 3, 64, 88
8, 293760, Note_on_c, 3, 76, 88
8, 293864, Note_on_c, 3, 64, 0
8, 293864, Note_on_c, 3, 76, 0
8, 293880, Note_on_c, 3, 64, 88
8, 293880, Note_on_c, 3, 76, 88
8, 294051, Note_on_c, 3, 64, 0
8, 294051, Note_on_c, 3, 76, 0
8, 294060, Note_on_c, 3, 76, 88
8, 294060, Note_on_c, 3, 64, 88
8, 294111, Note_on_c, 3, 76, 0
8, 294111, Note_on_c, 3, 64, 0
8, 294120, Note_on_c, 3, 76, 88
8, 294120, Note_on_c, 3, 64, 88
8, 294224, Note_on_c, 3, 76, 0
8, 294224, Note_on_c, 3, 64, 0
8, 294240, Note_on_c, 3, 76, 88
8, 294240, Note_on_c, 3, 64, 88
8, 294411, Note_on_c, 3, 76, 0
8, 294411, Note_on_c, 3, 64, 0
8, 294420, Note_on_c, 3, 64, 88
8, 294420, Note_on_c, 3, 76, 88
8, 294471, Note_on_c, 3, 64, 0
8, 294471, Note_on_c, 3, 76, 0
8, 294480, Note_on_c, 3, 76, 88
8, 294480, Note_on_c, 3, 64, 88
8, 294584, Note_on_c, 3, 76, 0
8, 294584, Note_on_c, 3, 64, 0
8, 294600, Note_on_c, 3, 64, 88
8, 294600, Note_on_c, 3, 76, 88
8, 294771, Note_on_c, 3, 64, 0
8, 294771, Note_on_c, 3, 76, 0
8, 294780, Note_on_c, 3, 76, 88
8, 294780, Note_on_c, 3, 64, 88
8, 294831, Note_on_c, 3, 76, 0
8, 294831, Note_on_c, 3, 64, 0
8, 294840, Note_on_c, 3, 64, 88
8, 294840, Note_on_c, 3, 76, 88
8, 294944, Note_on_c, 3, 64, 0
8, 294944, Note_on_c, 3, 76, 0
8, 294960, Note_on_c, 3, 64, 88
8, 294960, Note_on_c, 3, 76, 88
8, 295131, Note_on_c, 3, 64, 0
8, 295131, Note_on_c, 3, 76, 0
8, 295140, Note_on_c, 3, 64, 88
8, 295140, Note_on_c, 3, 76, 88
8, 295191, Note_on_c, 3, 64, 0
8, 295191, Note_on_c, 3, 76, 0
8, 295200, Note_on_c, 3, 76, 88
8, 295200, Note_on_c, 3, 64, 88
8, 295304, Note_on_c, 3, 76, 0
8, 295304, Note_on_c, 3, 64, 0
8, 295320, Note_on_c, 3, 64, 88
8, 295320, Note_on_c, 3, 76, 88
8, 295491, Note_on_c, 3, 64, 0
8, 295491, Note_on_c, 3, 76, 0
8, 295500, Note_on_c, 3, 64, 88
8, 295500, Note_on_c, 3, 76, 88
8, 295551, Note_on_c, 3, 64, 0
8, 295551, Note_on_c, 3, 76, 0
8, 295560, Note_on_c, 3, 64, 88
8, 295560, Note_on_c, 3, 76, 88
8, 295664, Note_on_c, 3, 64, 0
8, 295664, Note_on_c, 3, 76, 0
8, 295680, Note_on_c, 3, 76, 88
8, 295680, Note_on_c, 3, 64, 88
8, 295851, Note_on_c, 3, 76, 0
8, 295851, Note_on_c, 3, 64, 0
8, 295860, Note_on_c, 3, 64, 88
8, 295860, Note_on_c, 3, 76, 88
8, 295911, Note_on_c, 3, 64, 0
8, 295911, Note_on_c, 3, 76, 0
8, 295920, Note_on_c, 3, 64, 88
8, 295920, Note_on_c, 3, 76, 88
8, 296024, Note_on_c, 3, 64, 0
8, 296024, Note_on_c, 3, 76, 0
8, 296040, Note_on_c, 3, 64, 88
8, 296040, Note_on_c, 3, 76, 88
8, 296211, Note_on_c, 3, 64, 0
8, 296211, Note_on_c, 3, 76, 0
8, 296220, Note_on_c, 3, 76, 88
8, 296220, Note_on_c, 3, 64, 88
8, 296271, Note_on_c, 3, 76, 0
8, 296271, Note_on_c, 3, 64, 0
8, 296280, Note_on_c, 3, 64, 88
8, 296280, Note_on_c, 3, 76, 88
8, 296384, Note_on_c, 3, 64, 0
8, 296384, Note_on_c, 3, 76, 0
8, 296400, Note_on_c, 3, 76, 84
8, 296400, Note_on_c, 3, 64, 84
8, 296639, Note_on_c, 3, 76, 0
8, 296639, Note_on_c, 3, 64, 0
8, 297780, Note_on_c, 3, 76, 84
8, 297780, Note_on_c, 3, 64, 84
8, 297831, Note_on_c, 3, 76, 0
8, 297831, Note_on_c, 3, 64, 0
8, 297840, Note_on_c, 3, 64, 84
8, 297840, Note_on_c, 3, 76, 84
8, 298079, Note_on_c, 3, 64, 0
8, 298079, Note_on_c, 3, 76, 0
8, 299220, Note_on_c, 3, 64, 84
8, 299220, Note_on_c, 3, 76, 84
8, 299271, Note_on_c, 3, 64, 0
8, 299271, Note_on_c, 3, 76, 0
8, 299280, Note_on_c, 3, 76, 84
8, 299280, Note_on_c, 3, 64, 84
8, 299519, Note_on_c, 3, 76, 0
8, 299519, Note_on_c, 3, 64, 0
8, 300660, Note_on_c, 3, 69, 84
8, 300660, Note_on_c, 3, 73, 84
8, 300711, Note_on_c, 3, 69, 0
8, 300711, Note_on_c, 3, 73, 0
8, 300720, Note_on_c, 3, 69, 84
8, 300720, Note_on_c, 3, 73, 84
8, 300959, Note_on_c, 3, 69, 0
8, 300959, Note_on_c, 3, 73, 0
8, 301020, Note_on_c, 3, 73, 84
8, 301020, Note_on_c, 3, 69, 84
8, 301071, Note_on_c, 3, 73, 0
8, 301071, Note_on_c, 3, 69, 0
8, 301080, Note_on_c, 3, 73, 84
8, 301080, Note_on_c, 3, 69, 84
8, 301319, Note_on_c, 3, 73, 0
8, 301319, Note_on_c, 3, 69, 0
8, 301380, Note_on_c, 3, 68, 84
8, 301380, Note_on_c, 3, 71, 84
8, 301431, Note_on_c, 3, 68, 0
8, 301431, Note_on_c, 3, 71, 0
8, 301440, Note_on_c, 3, 73, 84
8, 301440, Note_on_c, 3, 69, 84
8, 301679, Note_on_c, 3, 73, 0
8, 301679, Note_on_c, 3, 69, 0
8, 301740, Note_on_c, 3, 74, 84
8, 301740, Note_on_c, 3, 78, 84
8, 301791, Note_on_c, 3, 74, 0
8, 301791, Note_on_c, 3, 78, 0
8, 301800, Note_on_c, 3, 74, 84
8, 301800, Note_on_c, 3, 78, 84
8, 302039, Note_on_c, 3, 74, 0
8, 302039, Note_on_c, 3, 78, 0
8, 302100, Note_on_c, 3, 74, 84
8, 302100, Note_on_c, 3, 78, 84
8, 302151, Note_on_c, 3, 74, 0
8, 302151, Note_on_c, 3, 78, 0
8, 302160, Note_on_c, 3, 78, 84
8, 302160, Note_on_c, 3, 74, 84
8, 302399, Note_on_c, 3, 78, 0
8, 302399, Note_on_c, 3, 74, 0
8, 303480, Note_on_c, 3, 76, 84
8, 303480, Note_on_c, 3, 64, 84
8, 303569, Note_on_c, 3, 76, 0
8, 303569, Note_on_c, 3, 64, 0
8, 303600, Note_on_c, 3, 66, 92
8, 303600, Note_on_c, 3, 78, 92
8, 303719, Note_on_c, 3, 66, 0
8, 303719, Note_on_c, 3, 78, 0
8, 303720, Note_on_c, 3, 64, 84
8, 303720, Note_on_c, 3, 76, 84
8, 303824, Note_on_c, 3, 64, 0
8, 303824, Note_on_c, 3, 76, 0
8, 303840, Note_on_c, 3, 61, 84
8, 303840, Note_on_c, 3, 73, 84
8, 303929, Note_on_c, 3, 61, 0
8, 303929, Note_on_c, 3, 73, 0
8, 303960, Note_on_c, 3, 69, 84
8, 303960, Note_on_c, 3, 57, 84
8, 304199, Note_on_c, 3, 69, 0
8, 304199, Note_on_c, 3, 57, 0
8, 304260, Note_on_c, 3, 76, 84
8, 304260, Note_on_c, 3, 73, 84
8, 304311, Note_on_c, 3, 76, 0
8, 304311, Note_on_c, 3, 73, 0
8, 304320, Note_on_c, 3, 78, 84
8, 304320, Note_on_c, 3, 74, 84
8, 304559, Note_on_c, 3, 78, 0
8, 304559, Note_on_c, 3, 74, 0
8, 305640, Note_on_c, 3, 76, 84
8, 305640, Note_on_c, 3, 64, 84
8, 305729, Note_on_c, 3, 76, 0
8, 305729, Note_on_c, 3, 64, 0
8, 305760, Note_on_c, 3, 78, 92
8, 305760, Note_on_c, 3, 66, 92
8, 305879, Note_on_c, 3, 78, 0
8, 305879, Note_on_c, 3, 66, 0
8, 305880, Note_on_c, 3, 64, 84
8, 305880, Note_on_c, 3, 76, 84
8, 305984, Note_on_c, 3, 64, 0
8, 305984, Note_on_c, 3, 76, 0
8, 306000, Note_on_c, 3, 61, 84
8, 306000, Note_on_c, 3, 73, 84
8, 306089, Note_on_c, 3, 61, 0
8, 306089, Note_on_c, 3, 73, 0
8, 306120, Note_on_c, 3, 57, 84
8, 306120, Note_on_c, 3, 69, 84
8, 306359, Note_on_c, 3, 57, 0
8, 306359, Note_on_c, 3, 69, 0
8, 306420, Note_on_c, 3, 73, 84
8, 306420, Note_on_c, 3, 69, 84
8, 306471, Note_on_c, 3, 73, 0
8, 306471, Note_on_c, 3, 69, 0
8, 306480, Note_on_c, 3, 68, 84
8, 306480, Note_on_c, 3, 71, 84
8, 306719, Note_on_c, 3, 68, 0
8, 306719, Note_on_c, 3, 71, 0
8, 307140, Note_on_c, 3, 73, 84
8, 307140, Note_on_c, 3, 69, 84
8, 307191, Note_on_c, 3, 73, 0
8, 307191, Note_on_c, 3, 69, 0
8, 307200, Note_on_c, 3, 71, 84
8, 307200, Note_on_c, 3, 68, 84
8, 307439, Note_on_c, 3, 71, 0
8, 307439, Note_on_c, 3, 68, 0
8, 307860, Note_on_c, 3, 73, 84
8, 307860, Note_on_c, 3, 69, 84
8, 307911, Note_on_c, 3, 73, 0
8, 307911, Note_on_c, 3, 69, 0
8, 307920, Note_on_c, 3, 71, 84
8, 307920, Note_on_c, 3, 68, 84
8, 308159, Note_on_c, 3, 71, 0
8, 308159, Note_on_c, 3, 68, 0
8, 308580, Note_on_c, 3, 69, 84
8, 308580, Note_on_c, 3, 73, 84
8, 308631, Note_on_c, 3, 69, 0
8, 308631, Note_on_c, 3, 73, 0
8, 308640, Note_on_c, 3, 68, 84
8, 308640, Note_on_c, 3, 71, 84
8, 308879, Note_on_c, 3, 68, 0
8, 308879, Note_on_c, 3, 71, 0
8, 309300, Note_on_c, 3, 73, 84
8, 309300, Note_on_c, 3, 69, 84
8, 309351, Note_on_c, 3, 73, 0
8, 309351, Note_on_c, 3, 69, 0
8, 309360, Note_on_c, 3, 69, 84
8, 309360, Note_on_c, 3, 73, 84
8, 309599, Note_on_c, 3, 69, 0
8, 309599, Note_on_c, 3, 73, 0
8, 310020, Note_on_c, 3, 73, 84
8, 310020, Note_on_c, 3, 70, 84
8, 310071, Note_on_c, 3, 73, 0
8, 310071, Note_on_c, 3, 70, 0
8, 310080, Note_on_c, 3, 74, 84
8, 310080, Note_on_c, 3, 71, 84
8, 310319, Note_on_c, 3, 74, 0
8, 310319, Note_on_c, 3, 71, 0
8, 310380, Note_on_c, 3, 71, 84
8, 310380, Note_on_c, 3, 74, 84
8, 310431, Note_on_c, 3, 71, 0
8, 310431, Note_on_c, 3, 74, 0
8, 310440, Note_on_c, 3, 74, 84
8, 310440, Note_on_c, 3, 71, 84
8, 310679, Note_on_c, 3, 74, 0
8, 310679, Note_on_c, 3, 71, 0
8, 310740, Note_on_c, 3, 74, 84
8, 310740, Note_on_c, 3, 71, 84
8, 310791, Note_on_c, 3, 74, 0
8, 310791, Note_on_c, 3, 71, 0
8, 310800, Note_on_c, 3, 71, 84
8, 310800, Note_on_c, 3, 74, 84
8, 311039, Note_on_c, 3, 71, 0
8, 311039, Note_on_c, 3, 74, 0
8, 311100, Note_on_c, 3, 71, 84
8, 311100, Note_on_c, 3, 74, 84
8, 311151, Note_on_c, 3, 71, 0
8, 311151, Note_on_c, 3, 74, 0
8, 311160, Note_on_c, 3, 71, 84
8, 311160, Note_on_c, 3, 74, 84
8, 311399, Note_on_c, 3, 71, 0
8, 311399, Note_on_c, 3, 74, 0
8, 311460, Note_on_c, 3, 71, 84
8, 311460, Note_on_c, 3, 80, 84
8, 311511, Note_on_c, 3, 71, 0
8, 311511, Note_on_c, 3, 80, 0
8, 311520, Note_on_c, 3, 80, 84
8, 311520, Note_on_c, 3, 71, 84
8, 311879, Note_on_c, 3, 80, 0
8, 311879, Note_on_c, 3, 71, 0
8, 312180, Note_on_c, 3, 67, 52
8, 312180, Note_on_c, 3, 73, 52
8, 312231, Note_on_c, 3, 67, 0
8, 312231, Note_on_c, 3, 73, 0
8, 312240, Note_on_c, 3, 67, 52
8, 312240, Note_on_c, 3, 73, 52
8, 312599, Note_on_c, 3, 67, 0
8, 312599, Note_on_c, 3, 73, 0
8, 314400, Note_on_c, 3, 78, 52
8, 314931, Note_on_c, 3, 78, 0
8, 314940, Note_on_c, 3, 76, 52
8, 314984, Note_on_c, 3, 76, 0
8, 315000, Note_on_c, 3, 74, 52
8, 315089, Note_on_c, 3, 74, 0
8, 315120, Note_on_c, 3, 73, 52
8, 315291, Note_on_c, 3, 73, 0
8, 315300, Note_on_c, 3, 71, 52
8, 315351, Note_on_c, 3, 71, 0
8, 315360, Note_on_c, 3, 69, 52
8, 315464, Note_on_c, 3, 69, 0
8, 315480, Note_on_c, 3, 67, 52
8, 315651, Note_on_c, 3, 67, 0
8, 315660, Note_on_c, 3, 66, 52
8, 315711, Note_on_c, 3, 66, 0
8, 315720, Note_on_c, 3, 64, 52
8, 315824, Note_on_c, 3, 64, 0
8, 315840, Note_on_c, 3, 62, 52
8, 316079, Note_on_c, 3, 62, 0
8, 317280, Note_on_c, 3, 77, 52
8, 317811, Note_on_c, 3, 77, 0
8, 317820, Note_on_c, 3, 74, 52
8, 317871, Note_on_c, 3, 74, 0
8, 317880, Note_on_c, 3, 73, 52
8, 317984, Note_on_c, 3, 73, 0
8, 318000, Note_on_c, 3, 74, 52
8, 318171, Note_on_c, 3, 74, 0
8, 318180, Note_on_c, 3, 69, 52
8, 318231, Note_on_c, 3, 69, 0
8, 318240, Note_on_c, 3, 65, 52
8, 318344, Note_on_c, 3, 65, 0
8, 318360, Note_on_c, 3, 62, 52
8, 318599, Note_on_c, 3, 62, 0
8, 321480, Note_on_c, 3, 69, 52
8, 321584, Note_on_c, 3, 69, 0
8, 321600, Note_on_c, 3, 69, 52
8, 321824, Note_on_c, 3, 69, 0
8, 321840, Note_on_c, 3, 69, 52
8, 321944, Note_on_c, 3, 69, 0
8, 321960, Note_on_c, 3, 69, 52
8, 322131, Note_on_c, 3, 69, 0
8, 322140, Note_on_c, 3, 74, 52
8, 322184, Note_on_c, 3, 74, 0
8, 322200, Note_on_c, 3, 77, 52
8, 322289, Note_on_c, 3, 77, 0
8, 322320, Note_on_c, 3, 77, 52
8, 322439, Note_on_c, 3, 77, 0
8, 322440, Note_on_c, 3, 76, 52
8, 322544, Note_on_c, 3, 76, 0
8, 322560, Note_on_c, 3, 72, 52
8, 322649, Note_on_c, 3, 72, 0
8, 322680, Note_on_c, 3, 69, 52
8, 322919, Note_on_c, 3, 69, 0
8, 323640, Note_on_c, 3, 76, 52
8, 323744, Note_on_c, 3, 76, 0
8, 323760, Note_on_c, 3, 79, 52
8, 323879, Note_on_c, 3, 79, 0
8, 323880, Note_on_c, 3, 77, 52
8, 323984, Note_on_c, 3, 77, 0
8, 324000, Note_on_c, 3, 74, 52
8, 324089, Note_on_c, 3, 74, 0
8, 324120, Note_on_c, 3, 69, 52
8, 324359, Note_on_c, 3, 69, 0
8, 327240, Control_c, 3, 11, 95
8, 327360, Note_on_c, 3, 71, 84
8, 327360, Note_on_c, 3, 68, 84
8, 327383, Control_c, 3, 11, 96
8, 327429, Control_c, 3, 11, 97
8, 327474, Control_c, 3, 11, 98
8, 327520, Control_c, 3, 11, 99
8, 327566, Control_c, 3, 11, 100
8, 327611, Control_c, 3, 11, 101
8, 327657, Control_c, 3, 11, 102
8, 327703, Control_c, 3, 11, 103
8, 327749, Control_c, 3, 11, 104
8, 327794, Control_c, 3, 11, 105
8, 327840, Control_c, 3, 11, 106
8, 327886, Control_c, 3, 11, 107
8, 327931, Control_c, 3, 11, 108
8, 327977, Control_c, 3, 11, 109
8, 328023, Control_c, 3, 11, 110
8, 328064, Note_on_c, 3, 71, 0
8, 328064, Note_on_c, 3, 68, 0
8, 328069, Control_c, 3, 11, 111
8, 328080, Note_on_c, 3, 69, 84
8, 328080, Note_on_c, 3, 72, 84
8, 328114, Control_c, 3, 11, 112
8, 328160, Control_c, 3, 11, 113
8, 328206, Control_c, 3, 11, 114
8, 328251, Control_c, 3, 11, 115
8, 328297, Control_c, 3, 11, 116
8, 328343, Control_c, 3, 11, 117
8, 328389, Control_c, 3, 11, 118
8, 328434, Control_c, 3, 11, 119
8, 328480, Control_c, 3, 11, 120
8, 328526, Control_c, 3, 11, 121
8, 328571, Control_c, 3, 11, 122
8, 328617, Control_c, 3, 11, 123
8, 328663, Control_c, 3, 11, 124
8, 328709, Control_c, 3, 11, 125
8, 328754, Control_c, 3, 11, 127
8, 328784, Note_on_c, 3, 69, 0
8, 328784, Note_on_c, 3, 72, 0
8, 328800, Note_on_c, 3, 72, 84
8, 328800, Note_on_c, 3, 63, 84
8, 329504, Note_on_c, 3, 72, 0
8, 329504, Note_on_c, 3, 63, 0
8, 329520, Note_on_c, 3, 64, 84
8, 329520, Note_on_c, 3, 71, 84
8, 329984, Note_on_c, 3, 64, 0
8, 329984, Note_on_c, 3, 71, 0
8, 330000, Note_on_c, 3, 64, 84
8, 330000, Note_on_c, 3, 71, 84
8, 330104, Note_on_c, 3, 64, 0
8, 330104, Note_on_c, 3, 71, 0
8, 330120, Note_on_c, 3, 71, 84
8, 330120, Note_on_c, 3, 64, 84
8, 330224, Note_on_c, 3, 71, 0
8, 330224, Note_on_c, 3, 64, 0
8, 330240, Note_on_c, 3, 65, 84
8, 330240, Note_on_c, 3, 69, 84
8, 330359, Note_on_c, 3, 65, 0
8, 330359, Note_on_c, 3, 69, 0
8, 330480, Note_on_c, 3, 74, 84
8, 330480, Note_on_c, 3, 69, 84
8, 330584, Note_on_c, 3, 74, 0
8, 330584, Note_on_c, 3, 69, 0
8, 330600, Note_on_c, 3, 69, 84
8, 330600, Note_on_c, 3, 74, 84
8, 330719, Note_on_c, 3, 69, 0
8, 330719, Note_on_c, 3, 74, 0
8, 330840, Note_on_c, 3, 69, 84
8, 330840, Note_on_c, 3, 74, 84
8, 330944, Note_on_c, 3, 69, 0
8, 330944, Note_on_c, 3, 74, 0
8, 330960, Note_on_c, 3, 68, 52
8, 330960, Note_on_c, 3, 71, 52
8, 331199, Note_on_c, 3, 68, 0
8, 331199, Note_on_c, 3, 71, 0
8, 332640, Note_on_c, 3, 64, 52
8, 332744, Note_on_c, 3, 64, 0
8, 332760, Note_on_c, 3, 64, 52
8, 332931, Note_on_c, 3, 64, 0
8, 332940, Note_on_c, 3, 68, 52
8, 332984, Note_on_c, 3, 68, 0
8, 333000, Note_on_c, 3, 71, 52
8, 333081, Note_on_c, 3, 71, 0
8, 333090, Note_on_c, 3, 69, 52
8, 333119, Note_on_c, 3, 69, 0
8, 333120, Note_on_c, 3, 72, 52
8, 333299, Note_on_c, 3, 72, 0
8, 333360, Note_on_c, 3, 72, 52
8, 333449, Note_on_c, 3, 72, 0
8, 333480, Note_on_c, 3, 72, 52
8, 333644, Note_on_c, 3, 72, 0
8, 333660, Note_on_c, 3, 71, 52
8, 333704, Note_on_c, 3, 71, 0
8, 333720, Note_on_c, 3, 69, 52
8, 333809, Note_on_c, 3, 69, 0
8, 333838, Control_c, 3, 11, 80
8, 333840, Note_on_c, 3, 68, 76
8, 333880, Control_c, 3, 11, 83
8, 333920, Control_c, 3, 11, 85
8, 333960, Control_c, 3, 11, 88
8, 334000, Control_c, 3, 11, 90
8, 334040, Control_c, 3, 11, 93
8, 334079, Note_on_c, 3, 68, 0
8, 334080, Note_on_c, 3, 76, 76
8, 334080, Control_c, 3, 11, 96
8, 334080, Note_on_c, 3, 64, 76
8, 334120, Control_c, 3, 11, 98
8, 334160, Control_c, 3, 11, 101
8, 334184, Note_on_c, 3, 64, 0
8, 334200, Note_on_c, 3, 64, 76
8, 334200, Control_c, 3, 11, 104
8, 334240, Control_c, 3, 11, 106
8, 334280, Control_c, 3, 11, 109
8, 334320, Control_c, 3, 11, 111
8, 334360, Control_c, 3, 11, 114
8, 334371, Note_on_c, 3, 64, 0
8, 334380, Note_on_c, 3, 68, 76
8, 334400, Control_c, 3, 11, 117
8, 334431, Note_on_c, 3, 68, 0
8, 334439, Note_on_c, 3, 76, 0
8, 334440, Note_on_c, 3, 71, 76
8, 334440, Note_on_c, 3, 74, 76
8, 334440, Control_c, 3, 11, 119
8, 334480, Control_c, 3, 11, 122
8, 334520, Control_c, 3, 11, 124
8, 334544, Note_on_c, 3, 71, 0
8, 334544, Note_on_c, 3, 74, 0
8, 334558, Control_c, 3, 11, 127
8, 334560, Note_on_c, 3, 73, 76
8, 334799, Note_on_c, 3, 73, 0
8, 334800, Note_on_c, 3, 73, 76
8, 334919, Note_on_c, 3, 73, 0
8, 334920, Note_on_c, 3, 73, 76
8, 335159, Note_on_c, 3, 73, 0
8, 335160, Note_on_c, 3, 73, 76
8, 335279, Note_on_c, 3, 73, 0
8, 335280, Note_on_c, 3, 71, 76
8, 335280, Note_on_c, 3, 64, 76
8, 335984, Note_on_c, 3, 71, 0
8, 335984, Note_on_c, 3, 64, 0
8, 336000, Note_on_c, 3, 69, 76
8, 336000, Note_on_c, 3, 64, 76
8, 336224, Note_on_c, 3, 69, 0
8, 336224, Note_on_c, 3, 64, 0
8, 336240, Note_on_c, 3, 69, 76
8, 336240, Note_on_c, 3, 64, 76
8, 336344, Note_on_c, 3, 69, 0
8, 336344, Note_on_c, 3, 64, 0
8, 336360, Note_on_c, 3, 69, 76
8, 336360, Note_on_c, 3, 64, 76
8, 336584, Note_on_c, 3, 69, 0
8, 336584, Note_on_c, 3, 64, 0
8, 336600, Note_on_c, 3, 69, 76
8, 336600, Note_on_c, 3, 64, 76
8, 336704, Note_on_c, 3, 69, 0
8, 336704, Note_on_c, 3, 64, 0
8, 336720, Note_on_c, 3, 64, 76
8, 336720, Note_on_c, 3, 68, 76
8, 337424, Note_on_c, 3, 64, 0
8, 337424, Note_on_c, 3, 68, 0
8, 337440, Note_on_c, 3, 66, 76
8, 337664, Note_on_c, 3, 66, 0
8, 337680, Note_on_c, 3, 71, 76
8, 337680, Note_on_c, 3, 66, 76
8, 337784, Note_on_c, 3, 71, 0
8, 337784, Note_on_c, 3, 66, 0
8, 337800, Note_on_c, 3, 71, 76
8, 337800, Note_on_c, 3, 66, 76
8, 338024, Note_on_c, 3, 71, 0
8, 338024, Note_on_c, 3, 66, 0
8, 338040, Note_on_c, 3, 66, 76
8, 338040, Note_on_c, 3, 69, 76
8, 338144, Note_on_c, 3, 66, 0
8, 338144, Note_on_c, 3, 69, 0
8, 338160, Note_on_c, 3, 64, 76
8, 338160, Note_on_c, 3, 68, 76
8, 338264, Note_on_c, 3, 64, 0
8, 338264, Note_on_c, 3, 68, 0
8, 338280, Note_on_c, 3, 68, 76
8, 338280, Note_on_c, 3, 64, 76
8, 338399, Note_on_c, 3, 68, 0
8, 338399, Note_on_c, 3, 64, 0
8, 338520, Note_on_c, 3, 74, 76
8, 338520, Note_on_c, 3, 71, 76
8, 338624, Note_on_c, 3, 74, 0
8, 338624, Note_on_c, 3, 71, 0
8, 338640, Note_on_c, 3, 71, 76
8, 338640, Note_on_c, 3, 74, 76
8, 338759, Note_on_c, 3, 71, 0
8, 338759, Note_on_c, 3, 74, 0
8, 338880, Note_on_c, 3, 73, 76
8, 338880, Note_on_c, 3, 69, 76
8, 338984, Note_on_c, 3, 73, 0
8, 338984, Note_on_c, 3, 69, 0
8, 339000, Note_on_c, 3, 73, 76
8, 339000, Note_on_c, 3, 69, 76
8, 339119, Note_on_c, 3, 73, 0
8, 339119, Note_on_c, 3, 69, 0
8, 339240, Note_on_c, 3, 73, 76
8, 339240, Note_on_c, 3, 81, 76
8, 339344, Note_on_c, 3, 73, 0
8, 339344, Note_on_c, 3, 81, 0
8, 339360, Note_on_c, 3, 81, 76
8, 339360, Note_on_c, 3, 73, 76
8, 339479, Note_on_c, 3, 81, 0
8, 339479, Note_on_c, 3, 73, 0
8, 339600, Note_on_c, 3, 80, 76
8, 339600, Note_on_c, 3, 71, 76
8, 339704, Note_on_c, 3, 80, 0
8, 339704, Note_on_c, 3, 71, 0
8, 339720, Note_on_c, 3, 80, 76
8, 339720, Note_on_c, 3, 71, 76
8, 339839, Note_on_c, 3, 80, 0
8, 339839, Note_on_c, 3, 71, 0
8, 339960, Note_on_c, 3, 74, 76
8, 339960, Note_on_c, 3, 71, 76
8, 340064, Note_on_c, 3, 74, 0
8, 340064, Note_on_c, 3, 71, 0
8, 340080, Note_on_c, 3, 71, 76
8, 340080, Note_on_c, 3, 74, 76
8, 340199, Note_on_c, 3, 71, 0
8, 340199, Note_on_c, 3, 74, 0
8, 340320, Note_on_c, 3, 73, 76
8, 340320, Note_on_c, 3, 69, 76
8, 340424, Note_on_c, 3, 73, 0
8, 340424, Note_on_c, 3, 69, 0
8, 340440, Note_on_c, 3, 69, 76
8, 340440, Note_on_c, 3, 73, 76
8, 340559, Note_on_c, 3, 69, 0
8, 340559, Note_on_c, 3, 73, 0
8, 340680, Note_on_c, 3, 81, 76
8, 340680, Note_on_c, 3, 73, 76
8, 340784, Note_on_c, 3, 81, 0
8, 340784, Note_on_c, 3, 73, 0
8, 340800, Note_on_c, 3, 73, 76
8, 340800, Note_on_c, 3, 81, 76
8, 340919, Note_on_c, 3, 73, 0
8, 340919, Note_on_c, 3, 81, 0
8, 341760, Note_on_c, 3, 76, 52
8, 342359, Note_on_c, 3, 76, 0
8, 342360, Note_on_c, 3, 71, 52
8, 342464, Note_on_c, 3, 71, 0
8, 342480, Note_on_c, 3, 69, 48
8, 342824, Note_on_c, 3, 69, 0
8, 342840, Note_on_c, 3, 73, 48
8, 342840, Note_on_c, 3, 69, 48
8, 343011, Note_on_c, 3, 73, 0
8, 343011, Note_on_c, 3, 69, 0
8, 343020, Note_on_c, 3, 64, 48
8, 343020, Note_on_c, 3, 69, 48
8, 343071, Note_on_c, 3, 64, 0
8, 343071, Note_on_c, 3, 69, 0
8, 343080, Note_on_c, 3, 64, 48
8, 343080, Note_on_c, 3, 69, 48
8, 343184, Note_on_c, 3, 64, 0
8, 343184, Note_on_c, 3, 69, 0
8, 343200, Note_on_c, 3, 71, 48
8, 343200, Note_on_c, 3, 74, 48
8, 343371, Note_on_c, 3, 71, 0
8, 343371, Note_on_c, 3, 74, 0
8, 343380, Note_on_c, 3, 64, 48
8, 343380, Note_on_c, 3, 71, 48
8, 343431, Note_on_c, 3, 64, 0
8, 343431, Note_on_c, 3, 71, 0
8, 343440, Note_on_c, 3, 71, 48
8, 343440, Note_on_c, 3, 64, 48
8, 343544, Note_on_c, 3, 71, 0
8, 343544, Note_on_c, 3, 64, 0
8, 343560, Note_on_c, 3, 76, 48
8, 343560, Note_on_c, 3, 73, 48
8, 344264, Note_on_c, 3, 76, 0
8, 344264, Note_on_c, 3, 73, 0
8, 344280, Note_on_c, 3, 81, 48
8, 344280, Note_on_c, 3, 76, 48
8, 344451, Note_on_c, 3, 81, 0
8, 344451, Note_on_c, 3, 76, 0
8, 344460, Note_on_c, 3, 73, 48
8, 344460, Note_on_c, 3, 76, 48
8, 344511, Note_on_c, 3, 73, 0
8, 344511, Note_on_c, 3, 76, 0
8, 344520, Note_on_c, 3, 73, 48
8, 344520, Note_on_c, 3, 76, 48
8, 344624, Note_on_c, 3, 73, 0
8, 344624, Note_on_c, 3, 76, 0
8, 344640, Note_on_c, 3, 76, 48
8, 344640, Note_on_c, 3, 73, 48
8, 344811, Note_on_c, 3, 76, 0
8, 344811, Note_on_c, 3, 73, 0
8, 344820, Note_on_c, 3, 69, 48
8, 344820, Note_on_c, 3, 73, 48
8, 344871, Note_on_c, 3, 69, 0
8, 344871, Note_on_c, 3, 73, 0
8, 344880, Note_on_c, 3, 69, 48
8, 344880, Note_on_c, 3, 73, 48
8, 344984, Note_on_c, 3, 69, 0
8, 344984, Note_on_c, 3, 73, 0
8, 345000, Note_on_c, 3, 73, 48
8, 345000, Note_on_c, 3, 69, 48
8, 345119, Note_on_c, 3, 73, 0
8, 345119, Note_on_c, 3, 69, 0
8, 345120, Note_on_c, 3, 74, 48
8, 345120, Note_on_c, 3, 71, 48
8, 345224, Note_on_c, 3, 74, 0
8, 345224, Note_on_c, 3, 71, 0
8, 345240, Note_on_c, 3, 71, 48
8, 345240, Note_on_c, 3, 68, 48
8, 345329, Note_on_c, 3, 71, 0
8, 345329, Note_on_c, 3, 68, 0
8, 345360, Note_on_c, 3, 69, 84
8, 345464, Note_on_c, 3, 69, 0
8, 345480, Note_on_c, 3, 69, 84
8, 345480, Note_on_c, 3, 81, 84
8, 345584, Note_on_c, 3, 69, 0
8, 345584, Note_on_c, 3, 81, 0
8, 345600, Note_on_c, 3, 81, 84
8, 345600, Note_on_c, 3, 69, 84
8, 345704, Note_on_c, 3, 81, 0
8, 345704, Note_on_c, 3, 69, 0
8, 345720, Note_on_c, 3, 69, 84
8, 345720, Note_on_c, 3, 81, 84
8, 345824, Note_on_c, 3, 69, 0
8, 345824, Note_on_c, 3, 81, 0
8, 345840, Note_on_c, 3, 69, 84
8, 345840, Note_on_c, 3, 81, 84
8, 345944, Note_on_c, 3, 69, 0
8, 345944, Note_on_c, 3, 81, 0
8, 345960, Note_on_c, 3, 69, 84
8, 345960, Note_on_c, 3, 81, 84
8, 346064, Note_on_c, 3, 69, 0
8, 346064, Note_on_c, 3, 81, 0
8, 346080, Note_on_c, 3, 69, 84
8, 346080, Note_on_c, 3, 81, 84
8, 346184, Note_on_c, 3, 69, 0
8, 346184, Note_on_c, 3, 81, 0
8, 346200, Note_on_c, 3, 69, 84
8, 346200, Note_on_c, 3, 81, 84
8, 346304, Note_on_c, 3, 69, 0
8, 346304, Note_on_c, 3, 81, 0
8, 346320, Note_on_c, 3, 69, 84
8, 346320, Note_on_c, 3, 81, 84
8, 346424, Note_on_c, 3, 69, 0
8, 346424, Note_on_c, 3, 81, 0
8, 346440, Note_on_c, 3, 81, 84
8, 346440, Note_on_c, 3, 69, 84
8, 346544, Note_on_c, 3, 81, 0
8, 346544, Note_on_c, 3, 69, 0
8, 346560, Note_on_c, 3, 76, 84
8, 346560, Note_on_c, 3, 64, 84
8, 346664, Note_on_c, 3, 76, 0
8, 346664, Note_on_c, 3, 64, 0
8, 346680, Note_on_c, 3, 64, 84
8, 346680, Note_on_c, 3, 76, 84
8, 346784, Note_on_c, 3, 64, 0
8, 346784, Note_on_c, 3, 76, 0
8, 346800, Note_on_c, 3, 77, 84
8, 346800, Note_on_c, 3, 65, 84
8, 347039, Note_on_c, 3, 77, 0
8, 347039, Note_on_c, 3, 65, 0
8, 356400, Note_on_c, 3, 76, 66
8, 356459, Note_on_c, 3, 76, 0
8, 356460, Note_on_c, 3, 78, 66
8, 356519, Note_on_c, 3, 78, 0
8, 356520, Note_on_c, 3, 80, 67
8, 356699, Note_on_c, 3, 80, 0
8, 358200, Note_on_c, 3, 69, 82
8, 358259, Note_on_c, 3, 69, 0
8, 358260, Note_on_c, 3, 71, 83
8, 358319, Note_on_c, 3, 71, 0
8, 358320, Note_on_c, 3, 69, 84
8, 358320, Note_on_c, 3, 73, 84
8, 359384, Note_on_c, 3, 69, 0
8, 359384, Note_on_c, 3, 73, 0
8, 359400, Note_on_c, 3, 73, 84
8, 359400, Note_on_c, 3, 69, 84
8, 359571, Note_on_c, 3, 73, 0
8, 359571, Note_on_c, 3, 69, 0
8, 359580, Note_on_c, 3, 73, 84
8, 359580, Note_on_c, 3, 69, 84
8, 359631, Note_on_c, 3, 73, 0
8, 359631, Note_on_c, 3, 69, 0
8, 359640, Note_on_c, 3, 73, 84
8, 359640, Note_on_c, 3, 69, 84
8, 359744, Note_on_c, 3, 73, 0
8, 359744, Note_on_c, 3, 69, 0
8, 359760, Note_on_c, 3, 71, 84
8, 359760, Note_on_c, 3, 69, 84
8, 360824, Note_on_c, 3, 71, 0
8, 360824, Note_on_c, 3, 69, 0
8, 360840, Note_on_c, 3, 71, 84
8, 360840, Note_on_c, 3, 69, 84
8, 361011, Note_on_c, 3, 71, 0
8, 361011, Note_on_c, 3, 69, 0
8, 361020, Note_on_c, 3, 69, 84
8, 361020, Note_on_c, 3, 71, 84
8, 361071, Note_on_c, 3, 69, 0
8, 361071, Note_on_c, 3, 71, 0
8, 361080, Note_on_c, 3, 71, 84
8, 361080, Note_on_c, 3, 69, 84
8, 361199, Note_on_c, 3, 71, 0
8, 361199, Note_on_c, 3, 69, 0
8, 361200, Note_on_c, 3, 70, 84
8, 361320, Control_c, 3, 11, 48
8, 361559, Note_on_c, 3, 70, 0
8, 361560, Note_on_c, 3, 65, 84
8, 361919, Note_on_c, 3, 65, 0
8, 361920, Control_c, 3, 11, 48
8, 361920, Note_on_c, 3, 68, 84
8, 361960, Control_c, 3, 11, 52
8, 362000, Control_c, 3, 11, 57
8, 362040, Control_c, 3, 11, 61
8, 362080, Control_c, 3, 11, 66
8, 362120, Control_c, 3, 11, 70
8, 362160, Control_c, 3, 11, 74
8, 362200, Control_c, 3, 11, 79
8, 362240, Control_c, 3, 11, 83
8, 362279, Note_on_c, 3, 68, 0
8, 362280, Control_c, 3, 11, 88
8, 362280, Note_on_c, 3, 76, 84
8, 362320, Control_c, 3, 11, 92
8, 362360, Control_c, 3, 11, 96
8, 362400, Control_c, 3, 11, 101
8, 362440, Control_c, 3, 11, 105
8, 362480, Control_c, 3, 11, 109
8, 362520, Control_c, 3, 11, 114
8, 362560, Control_c, 3, 11, 118
8, 362600, Control_c, 3, 11, 123
8, 362624, Note_on_c, 3, 76, 0
8, 362638, Control_c, 3, 11, 127
8, 362640, Note_on_c, 3, 69, 84
8, 362640, Note_on_c, 3, 73, 84
8, 363704, Note_on_c, 3, 69, 0
8, 363704, Note_on_c, 3, 73, 0
8, 363720, Note_on_c, 3, 69, 84
8, 363720, Note_on_c, 3, 73, 84
8, 363891, Note_on_c, 3, 69, 0
8, 363891, Note_on_c, 3, 73, 0
8, 363900, Note_on_c, 3, 69, 84
8, 363900, Note_on_c, 3, 73, 84
8, 363951, Note_on_c, 3, 69, 0
8, 363951, Note_on_c, 3, 73, 0
8, 363960, Note_on_c, 3, 69, 84
8, 363960, Note_on_c, 3, 73, 84
8, 364064, Note_on_c, 3, 69, 0
8, 364064, Note_on_c, 3, 73, 0
8, 364080, Note_on_c, 3, 69, 84
8, 364080, Note_on_c, 3, 71, 84
8, 365144, Note_on_c, 3, 69, 0
8, 365144, Note_on_c, 3, 71, 0
8, 365160, Note_on_c, 3, 71, 84
8, 365160, Note_on_c, 3, 69, 84
8, 365331, Note_on_c, 3, 71, 0
8, 365331, Note_on_c, 3, 69, 0
8, 365340, Note_on_c, 3, 69, 84
8, 365340, Note_on_c, 3, 71, 84
8, 365391, Note_on_c, 3, 69, 0
8, 365391, Note_on_c, 3, 71, 0
8, 365400, Note_on_c, 3, 69, 84
8, 365400, Note_on_c, 3, 71, 84
8, 365519, Note_on_c, 3, 69, 0
8, 365519, Note_on_c, 3, 71, 0
8, 366120, Control_c, 3, 11, 64
8, 366240, Control_c, 3, 11, 64
8, 366240, Note_on_c, 3, 76, 84
8, 366280, Control_c, 3, 11, 68
8, 366320, Control_c, 3, 11, 71
8, 366360, Control_c, 3, 11, 75
8, 366400, Control_c, 3, 11, 78
8, 366440, Control_c, 3, 11, 82
8, 366480, Control_c, 3, 11, 85
8, 366520, Control_c, 3, 11, 89
8, 366560, Control_c, 3, 11, 92
8, 366599, Note_on_c, 3, 76, 0
8, 366600, Control_c, 3, 11, 96
8, 366600, Note_on_c, 3, 68, 84
8, 366640, Control_c, 3, 11, 99
8, 366680, Control_c, 3, 11, 103
8, 366720, Control_c, 3, 11, 106
8, 366760, Control_c, 3, 11, 110
8, 366800, Control_c, 3, 11, 113
8, 366839, Note_on_c, 3, 68, 0
8, 366840, Control_c, 3, 11, 117
8, 366840, Note_on_c, 3, 76, 84
8, 366880, Control_c, 3, 11, 120
8, 366920, Control_c, 3, 11, 124
8, 366944, Note_on_c, 3, 76, 0
8, 366958, Control_c, 3, 11, 127
8, 366960, Note_on_c, 3, 76, 84
8, 367491, Note_on_c, 3, 76, 0
8, 367500, Note_on_c, 3, 74, 84
8, 367544, Note_on_c, 3, 74, 0
8, 367560, Note_on_c, 3, 73, 84
8, 367641, Note_on_c, 3, 73, 0
8, 367650, Note_on_c, 3, 73, 84
8, 367679, Note_on_c, 3, 73, 0
8, 367680, Note_on_c, 3, 74, 92
8, 367740, Control_c, 3, 11, 112
8, 368211, Note_on_c, 3, 74, 0
8, 368220, Note_on_c, 3, 66, 92
8, 368220, Note_on_c, 3, 74, 92
8, 368264, Note_on_c, 3, 66, 0
8, 368264, Note_on_c, 3, 74, 0
8, 368280, Note_on_c, 3, 68, 92
8, 368280, Note_on_c, 3, 74, 92
8, 368369, Note_on_c, 3, 68, 0
8, 368369, Note_on_c, 3, 74, 0
8, 368400, Note_on_c, 3, 73, 92
8, 368400, Note_on_c, 3, 69, 92
8, 368639, Note_on_c, 3, 73, 0
8, 368639, Note_on_c, 3, 69, 0
8, 368758, Control_c, 3, 11, 127
8, 368760, Note_on_c, 3, 73, 84
8, 368999, Note_on_c, 3, 73, 0
8, 369120, Note_on_c, 3, 76, 84
8, 369359, Note_on_c, 3, 76, 0
8, 369660, Note_on_c, 3, 76, 84
8, 369711, Note_on_c, 3, 76, 0
8, 369720, Note_on_c, 3, 76, 84
8, 369824, Note_on_c, 3, 76, 0
8, 369840, Note_on_c, 3, 76, 92
8, 369900, Control_c, 3, 11, 112
8, 370064, Note_on_c, 3, 76, 0
8, 370080, Note_on_c, 3, 73, 92
8, 370161, Note_on_c, 3, 73, 0
8, 370170, Note_on_c, 3, 73, 92
8, 370199, Note_on_c, 3, 73, 0
8, 370200, Note_on_c, 3, 74, 92
8, 370371, Note_on_c, 3, 74, 0
8, 370380, Note_on_c, 3, 66, 92
8, 370380, Note_on_c, 3, 74, 92
8, 370424, Note_on_c, 3, 66, 0
8, 370424, Note_on_c, 3, 74, 0
8, 370440, Note_on_c, 3, 74, 92
8, 370440, Note_on_c, 3, 68, 92
8, 370529, Note_on_c, 3, 74, 0
8, 370529, Note_on_c, 3, 68, 0
8, 370560, Note_on_c, 3, 69, 92
8, 370560, Note_on_c, 3, 73, 92
8, 370799, Note_on_c, 3, 69, 0
8, 370799, Note_on_c, 3, 73, 0
8, 371040, Control_c, 3, 11, 127
8, 371100, Note_on_c, 3, 76, 84
8, 371151, Note_on_c, 3, 76, 0
8, 371160, Note_on_c, 3, 76, 84
8, 371264, Note_on_c, 3, 76, 0
8, 371280, Note_on_c, 3, 76, 92
8, 371340, Control_c, 3, 11, 112
8, 371504, Note_on_c, 3, 76, 0
8, 371520, Note_on_c, 3, 73, 92
8, 371601, Note_on_c, 3, 73, 0
8, 371610, Note_on_c, 3, 73, 92
8, 371639, Note_on_c, 3, 73, 0
8, 371640, Note_on_c, 3, 74, 92
8, 371811, Note_on_c, 3, 74, 0
8, 371820, Note_on_c, 3, 66, 92
8, 371820, Note_on_c, 3, 74, 92
8, 371864, Note_on_c, 3, 66, 0
8, 371864, Note_on_c, 3, 74, 0
8, 371880, Note_on_c, 3, 68, 92
8, 371880, Note_on_c, 3, 74, 92
8, 371969, Note_on_c, 3, 68, 0
8, 371969, Note_on_c, 3, 74, 0
8, 371998, Control_c, 3, 11, 127
8, 372000, Note_on_c, 3, 69, 84
8, 372000, Note_on_c, 3, 73, 84
8, 372119, Note_on_c, 3, 69, 0
8, 372119, Note_on_c, 3, 73, 0
8, 372240, Note_on_c, 3, 69, 84
8, 372240, Note_on_c, 3, 81, 84
8, 372359, Note_on_c, 3, 69, 0
8, 372359, Note_on_c, 3, 81, 0
8, 372600, Note_on_c, 3, 69, 84
8, 372600, Note_on_c, 3, 81, 84
8, 372719, Note_on_c, 3, 69, 0
8, 372719, Note_on_c, 3, 81, 0
8, 372960, Note_on_c, 3, 69, 84
8, 372960, Note_on_c, 3, 81, 84
8, 373079, Note_on_c, 3, 69, 0
8, 373079, Note_on_c, 3, 81, 0
8, 373320, Note_on_c, 3, 81, 84
8, 373320, Note_on_c, 3, 69, 84
8, 373439, Note_on_c, 3, 81, 0
8, 373439, Note_on_c, 3, 69, 0
8, 373680, Note_on_c, 3, 69, 84
8, 373680, Note_on_c, 3, 81, 84
8, 373799, Note_on_c, 3, 69, 0
8, 373799, Note_on_c, 3, 81, 0
8, 374040, Note_on_c, 3, 81, 84
8, 374040, Note_on_c, 3, 69, 84
8, 374159, Note_on_c, 3, 81, 0
8, 374159, Note_on_c, 3, 69, 0
8, 374400, Note_on_c, 3, 81, 84
8, 374400, Note_on_c, 3, 69, 84
8, 374519, Note_on_c, 3, 81, 0
8, 374519, Note_on_c, 3, 69, 0
8, 374760, Note_on_c, 3, 69, 84
8, 374760, Note_on_c, 3, 81, 84
8, 374879, Note_on_c, 3, 69, 0
8, 374879, Note_on_c, 3, 81, 0
8, 376560, Note_on_c, 3, 68, 52
8, 376679, Note_on_c, 3, 68, 0
8, 381360, Note_on_c, 3, 60, 44
8, 381360, Note_on_c, 3, 64, 44
8, 381531, Note_on_c, 3, 60, 0
8, 381531, Note_on_c, 3, 64, 0
8, 381540, Note_on_c, 3, 64, 44
8, 381540, Note_on_c, 3, 60, 44
8, 381599, Note_on_c, 3, 64, 0
8, 381599, Note_on_c, 3, 60, 0
8, 381600, Note_on_c, 3, 60, 44
8, 381600, Note_on_c, 3, 64, 44
8, 381704, Note_on_c, 3, 60, 0
8, 381704, Note_on_c, 3, 64, 0
8, 381720, Note_on_c, 3, 64, 44
8, 381720, Note_on_c, 3, 60, 44
8, 381891, Note_on_c, 3, 64, 0
8, 381891, Note_on_c, 3, 60, 0
8, 381900, Note_on_c, 3, 64, 44
8, 381900, Note_on_c, 3, 60, 44
8, 381959, Note_on_c, 3, 64, 0
8, 381959, Note_on_c, 3, 60, 0
8, 381960, Note_on_c, 3, 64, 44
8, 381960, Note_on_c, 3, 60, 44
8, 382064, Note_on_c, 3, 64, 0
8, 382064, Note_on_c, 3, 60, 0
8, 382080, Note_on_c, 3, 69, 44
8, 382080, Note_on_c, 3, 60, 44
8, 383504, Note_on_c, 3, 69, 0
8, 383504, Note_on_c, 3, 60, 0
8, 383520, Note_on_c, 3, 69, 44
8, 383520, Note_on_c, 3, 61, 44
8, 384224, Note_on_c, 3, 69, 0
8, 384224, Note_on_c, 3, 61, 0
8, 384240, Note_on_c, 3, 73, 44
8, 384240, Note_on_c, 3, 69, 44
8, 384779, Note_on_c, 3, 73, 0
8, 384779, Note_on_c, 3, 69, 0
8, 384780, Note_on_c, 3, 71, 44
8, 384780, Note_on_c, 3, 64, 44
8, 384839, Note_on_c, 3, 71, 0
8, 384839, Note_on_c, 3, 64, 0
8, 384840, Note_on_c, 3, 69, 44
8, 384840, Note_on_c, 3, 61, 44
8, 384959, Note_on_c, 3, 69, 0
8, 384959, Note_on_c, 3, 61, 0
8, 384960, Note_on_c, 3, 64, 44
8, 384960, Note_on_c, 3, 76, 44
8, 387839, Note_on_c, 3, 64, 0
8, 387839, Note_on_c, 3, 76, 0
8, 387840, Note_on_c, 3, 64, 44
8, 387840, Note_on_c, 3, 76, 44
8, 390944, Note_on_c, 3, 64, 0
8, 390944, Note_on_c, 3, 76, 0
8, 390958, Control_c, 3, 11, 49
8, 390960, Note_on_c, 3, 64, 84
8, 390960, Note_on_c, 3, 76, 84
8, 391049, Note_on_c, 3, 64, 0
8, 391049, Note_on_c, 3, 76, 0
8, 391080, Control_c, 3, 11, 50
8, 391080, Note_on_c, 3, 64, 84
8, 391080, Note_on_c, 3, 76, 84
8, 391260, Control_c, 3, 11, 51
8, 391440, Control_c, 3, 11, 52
8, 391620, Control_c, 3, 11, 53
8, 391800, Control_c, 3, 11, 54
8, 391980, Control_c, 3, 11, 55
8, 392160, Control_c, 3, 11, 56
8, 392340, Control_c, 3, 11, 57
8, 392384, Note_on_c, 3, 64, 0
8, 392384, Note_on_c, 3, 76, 0
8, 392400, Note_on_c, 3, 64, 84
8, 392400, Note_on_c, 3, 76, 84
8, 392489, Note_on_c, 3, 64, 0
8, 392489, Note_on_c, 3, 76, 0
8, 392520, Note_on_c, 3, 76, 84
8, 392520, Note_on_c, 3, 64, 84
8, 392520, Control_c, 3, 11, 58
8, 392700, Control_c, 3, 11, 59
8, 392880, Control_c, 3, 11, 60
8, 393060, Control_c, 3, 11, 61
8, 393240, Control_c, 3, 11, 62
8, 393420, Control_c, 3, 11, 63
8, 393600, Control_c, 3, 11, 64
8, 393780, Control_c, 3, 11, 65
8, 393824, Note_on_c, 3, 76, 0
8, 393824, Note_on_c, 3, 64, 0
8, 393840, Note_on_c, 3, 76, 84
8, 393840, Note_on_c, 3, 64, 84
8, 393944, Note_on_c, 3, 76, 0
8, 393944, Note_on_c, 3, 64, 0
8, 393960, Control_c, 3, 11, 66
8, 393960, Note_on_c, 3, 76, 84
8, 393960, Note_on_c, 3, 64, 84
8, 394140, Control_c, 3, 11, 67
8, 394169, Note_on_c, 3, 76, 0
8, 394169, Note_on_c, 3, 64, 0
8, 394200, Note_on_c, 3, 76, 84
8, 394200, Note_on_c, 3, 64, 84
8, 394289, Note_on_c, 3, 76, 0
8, 394289, Note_on_c, 3, 64, 0
8, 394320, Note_on_c, 3, 76, 84
8, 394320, Control_c, 3, 11, 68
8, 394320, Note_on_c, 3, 64, 84
8, 394500, Control_c, 3, 11, 69
8, 394529, Note_on_c, 3, 76, 0
8, 394529, Note_on_c, 3, 64, 0
8, 394560, Note_on_c, 3, 64, 84
8, 394560, Note_on_c, 3, 76, 84
8, 394664, Note_on_c, 3, 64, 0
8, 394664, Note_on_c, 3, 76, 0
8, 394680, Note_on_c, 3, 64, 84
8, 394680, Control_c, 3, 11, 70
8, 394680, Note_on_c, 3, 76, 84
8, 394860, Control_c, 3, 11, 71
8, 394889, Note_on_c, 3, 64, 0
8, 394889, Note_on_c, 3, 76, 0
8, 394920, Note_on_c, 3, 64, 84
8, 394920, Note_on_c, 3, 76, 84
8, 395009, Note_on_c, 3, 64, 0
8, 395009, Note_on_c, 3, 76, 0
8, 395040, Control_c, 3, 11, 72
8, 395040, Note_on_c, 3, 64, 84
8, 395040, Note_on_c, 3, 76, 84
8, 395220, Control_c, 3, 11, 73
8, 395249, Note_on_c, 3, 64, 0
8, 395249, Note_on_c, 3, 76, 0
8, 395280, Note_on_c, 3, 76, 84
8, 395280, Note_on_c, 3, 64, 84
8, 395384, Note_on_c, 3, 76, 0
8, 395384, Note_on_c, 3, 64, 0
8, 395400, Note_on_c, 3, 76, 84
8, 395400, Note_on_c, 3, 64, 84
8, 395400, Control_c, 3, 11, 74
8, 395580, Control_c, 3, 11, 75
8, 395609, Note_on_c, 3, 76, 0
8, 395609, Note_on_c, 3, 64, 0
8, 395640, Note_on_c, 3, 64, 84
8, 395640, Note_on_c, 3, 76, 84
8, 395729, Note_on_c, 3, 64, 0
8, 395729, Note_on_c, 3, 76, 0
8, 395760, Note_on_c, 3, 64, 84
8, 395760, Note_on_c, 3, 76, 84
8, 395760, Control_c, 3, 11, 76
8, 395940, Control_c, 3, 11, 77
8, 395969, Note_on_c, 3, 64, 0
8, 395969, Note_on_c, 3, 76, 0
8, 396000, Note_on_c, 3, 64, 84
8, 396000, Note_on_c, 3, 76, 84
8, 396104, Note_on_c, 3, 64, 0
8, 396104, Note_on_c, 3, 76, 0
8, 396120, Control_c, 3, 11, 78
8, 396120, Note_on_c, 3, 64, 84
8, 396120, Note_on_c, 3, 76, 84
8, 396300, Control_c, 3, 11, 79
8, 396329, Note_on_c, 3, 64, 0
8, 396329, Note_on_c, 3, 76, 0
8, 396360, Note_on_c, 3, 64, 84
8, 396360, Note_on_c, 3, 76, 84
8, 396449, Note_on_c, 3, 64, 0
8, 396449, Note_on_c, 3, 76, 0
8, 396480, Note_on_c, 3, 64, 84
8, 396480, Control_c, 3, 11, 80
8, 396480, Note_on_c, 3, 76, 84
8, 396584, Note_on_c, 3, 64, 0
8, 396584, Note_on_c, 3, 76, 0
8, 396600, Note_on_c, 3, 76, 84
8, 396600, Note_on_c, 3, 64, 84
8, 396660, Control_c, 3, 11, 81
8, 396704, Note_on_c, 3, 76, 0
8, 396704, Note_on_c, 3, 64, 0
8, 396720, Note_on_c, 3, 64, 84
8, 396720, Note_on_c, 3, 76, 84
8, 396824, Note_on_c, 3, 64, 0
8, 396824, Note_on_c, 3, 76, 0
8, 396840, Note_on_c, 3, 76, 84
8, 396840, Control_c, 3, 11, 82
8, 396840, Note_on_c, 3, 64, 84
8, 396944, Note_on_c, 3, 76, 0
8, 396944, Note_on_c, 3, 64, 0
8, 396960, Note_on_c, 3, 76, 84
8, 396960, Note_on_c, 3, 64, 84
8, 397020, Control_c, 3, 11, 83
8, 397064, Note_on_c, 3, 76, 0
8, 397064, Note_on_c, 3, 64, 0
8, 397080, Note_on_c, 3, 64, 84
8, 397080, Note_on_c, 3, 76, 84
8, 397184, Note_on_c, 3, 64, 0
8, 397184, Note_on_c, 3, 76, 0
8, 397200, Control_c, 3, 11, 84
8, 397200, Note_on_c, 3, 76, 84
8, 397200, Note_on_c, 3, 64, 84
8, 397304, Note_on_c, 3, 76, 0
8, 397304, Note_on_c, 3, 64, 0
8, 397320, Note_on_c, 3, 76, 84
8, 397320, Note_on_c, 3, 64, 84
8, 397380, Control_c, 3, 11, 85
8, 397424, Note_on_c, 3, 76, 0
8, 397424, Note_on_c, 3, 64, 0
8, 397440, Note_on_c, 3, 64, 84
8, 397440, Note_on_c, 3, 76, 84
8, 397544, Note_on_c, 3, 64, 0
8, 397544, Note_on_c, 3, 76, 0
8, 397560, Note_on_c, 3, 76, 84
8, 397560, Note_on_c, 3, 64, 84
8, 397560, Control_c, 3, 11, 86
8, 397664, Note_on_c, 3, 76, 0
8, 397664, Note_on_c, 3, 64, 0
8, 397680, Note_on_c, 3, 64, 84
8, 397680, Note_on_c, 3, 76, 84
8, 397740, Control_c, 3, 11, 87
8, 397784, Note_on_c, 3, 64, 0
8, 397784, Note_on_c, 3, 76, 0
8, 397800, Note_on_c, 3, 76, 84
8, 397800, Note_on_c, 3, 64, 84
8, 397904, Note_on_c, 3, 76, 0
8, 397904, Note_on_c, 3, 64, 0
8, 397920, Note_on_c, 3, 64, 84
8, 397920, Note_on_c, 3, 76, 84
8, 397920, Control_c, 3, 11, 88
8, 398024, Note_on_c, 3, 64, 0
8, 398024, Note_on_c, 3, 76, 0
8, 398040, Note_on_c, 3, 64, 84
8, 398040, Note_on_c, 3, 76, 84
8, 398100, Control_c, 3, 11, 89
8, 398144, Note_on_c, 3, 64, 0
8, 398144, Note_on_c, 3, 76, 0
8, 398160, Note_on_c, 3, 64, 84
8, 398160, Note_on_c, 3, 76, 84
8, 398264, Note_on_c, 3, 64, 0
8, 398264, Note_on_c, 3, 76, 0
8, 398280, Control_c, 3, 11, 90
8, 398280, Note_on_c, 3, 64, 84
8, 398280, Note_on_c, 3, 76, 84
8, 398384, Note_on_c, 3, 64, 0
8, 398384, Note_on_c, 3, 76, 0
8, 398400, Note_on_c, 3, 64, 84
8, 398400, Note_on_c, 3, 76, 84
8, 398460, Control_c, 3, 11, 91
8, 398504, Note_on_c, 3, 64, 0
8, 398504, Note_on_c, 3, 76, 0
8, 398520, Note_on_c, 3, 64, 84
8, 398520, Note_on_c, 3, 76, 84
8, 398624, Note_on_c, 3, 64, 0
8, 398624, Note_on_c, 3, 76, 0
8, 398640, Note_on_c, 3, 76, 84
8, 398640, Control_c, 3, 11, 92
8, 398640, Note_on_c, 3, 64, 84
8, 398744, Note_on_c, 3, 76, 0
8, 398744, Note_on_c, 3, 64, 0
8, 398760, Note_on_c, 3, 76, 84
8, 398760, Note_on_c, 3, 64, 84
8, 398820, Control_c, 3, 11, 93
8, 398864, Note_on_c, 3, 76, 0
8, 398864, Note_on_c, 3, 64, 0
8, 398880, Note_on_c, 3, 64, 84
8, 398880, Note_on_c, 3, 76, 84
8, 398984, Note_on_c, 3, 64, 0
8, 398984, Note_on_c, 3, 76, 0
8, 399000, Control_c, 3, 11, 94
8, 399000, Note_on_c, 3, 76, 84
8, 399000, Note_on_c, 3, 64, 84
8, 399104, Note_on_c, 3, 76, 0
8, 399104, Note_on_c, 3, 64, 0
8, 399120, Note_on_c, 3, 76, 84
8, 399120, Note_on_c, 3, 64, 84
8, 399180, Control_c, 3, 11, 96
8, 399224, Note_on_c, 3, 76, 0
8, 399224, Note_on_c, 3, 64, 0
8, 399240, Note_on_c, 3, 64, 84
8, 399240, Note_on_c, 3, 76, 84
8, 399344, Note_on_c, 3, 64, 0
8, 399344, Note_on_c, 3, 76, 0
8, 399360, Note_on_c, 3, 64, 84
8, 399360, Note_on_c, 3, 76, 84
8, 399360, Control_c, 3, 11, 96
8, 399406, Control_c, 3, 11, 97
8, 399453, Control_c, 3, 11, 98
8, 399464, Note_on_c, 3, 64, 0
8, 399464, Note_on_c, 3, 76, 0
8, 399480, Note_on_c, 3, 76, 84
8, 399480, Note_on_c, 3, 64, 84
8, 399499, Control_c, 3, 11, 99
8, 399546, Control_c, 3, 11, 100
8, 399584, Note_on_c, 3, 76, 0
8, 399584, Note_on_c, 3, 64, 0
8, 399592, Control_c, 3, 11, 101
8, 399600, Note_on_c, 3, 76, 84
8, 399600, Note_on_c, 3, 64, 84
8, 399639, Control_c, 3, 11, 102
8, 399685, Control_c, 3, 11, 103
8, 399704, Note_on_c, 3, 76, 0
8, 399704, Note_on_c, 3, 64, 0
8, 399720, Note_on_c, 3, 76, 84
8, 399720, Note_on_c, 3, 64, 84
8, 399732, Control_c, 3, 11, 104
8, 399778, Control_c, 3, 11, 105
8, 399824, Note_on_c, 3, 76, 0
8, 399824, Note_on_c, 3, 64, 0
8, 399825, Control_c, 3, 11, 106
8, 399840, Note_on_c, 3, 64, 84
8, 399840, Note_on_c, 3, 76, 84
8, 399871, Control_c, 3, 11, 107
8, 399917, Control_c, 3, 11, 108
8, 399944, Note_on_c, 3, 64, 0
8, 399944, Note_on_c, 3, 76, 0
8, 399960, Note_on_c, 3, 64, 84
8, 399960, Note_on_c, 3, 76, 84
8, 399964, Control_c, 3, 11, 109
8, 400010, Control_c, 3, 11, 110
8, 400057, Control_c, 3, 11, 111
8, 400064, Note_on_c, 3, 64, 0
8, 400064, Note_on_c, 3, 76, 0
8, 400080, Note_on_c, 3, 64, 84
8, 400080, Note_on_c, 3, 76, 84
8, 400103, Control_c, 3, 11, 112
8, 400150, Control_c, 3, 11, 113
8, 400184, Note_on_c, 3, 64, 0
8, 400184, Note_on_c, 3, 76, 0
8, 400196, Control_c, 3, 11, 114
8, 400200, Note_on_c, 3, 64, 84
8, 400200, Note_on_c, 3, 76, 84
8, 400243, Control_c, 3, 11, 115
8, 400289, Control_c, 3, 11, 116
8, 400304, Note_on_c, 3, 64, 0
8, 400304, Note_on_c, 3, 76, 0
8, 400320, Note_on_c, 3, 64, 84
8, 400320, Note_on_c, 3, 76, 84
8, 400335, Control_c, 3, 11, 117
8, 400382, Control_c, 3, 11, 118
8, 400424, Note_on_c, 3, 64, 0
8, 400424, Note_on_c, 3, 76, 0
8, 400428, Control_c, 3, 11, 119
8, 400440, Note_on_c, 3, 64, 84
8, 400440, Note_on_c, 3, 76, 84
8, 400475, Control_c, 3, 11, 120
8, 400521, Control_c, 3, 11, 121
8, 400544, Note_on_c, 3, 64, 0
8, 400544, Note_on_c, 3, 76, 0
8, 400560, Note_on_c, 3, 76, 84
8, 400560, Note_on_c, 3, 64, 84
8, 400568, Control_c, 3, 11, 122
8, 400614, Control_c, 3, 11, 123
8, 400661, Control_c, 3, 11, 124
8, 400664, Note_on_c, 3, 76, 0
8, 400664, Note_on_c, 3, 64, 0
8, 400680, Note_on_c, 3, 64, 84
8, 400680, Note_on_c, 3, 76, 84
8, 400707, Control_c, 3, 11, 125
8, 400754, Control_c, 3, 11, 127
8, 400784, Note_on_c, 3, 64, 0
8, 400784, Note_on_c, 3, 76, 0
8, 400800, Note_on_c, 3, 76, 84
8, 400800, Note_on_c, 3, 73, 84
8, 400971, Note_on_c, 3, 76, 0
8, 400971, Note_on_c, 3, 73, 0
8, 400980, Note_on_c, 3, 76, 84
8, 400980, Note_on_c, 3, 73, 84
8, 401031, Note_on_c, 3, 76, 0
8, 401031, Note_on_c, 3, 73, 0
8, 401040, Note_on_c, 3, 73, 84
8, 401040, Note_on_c, 3, 76, 84
8, 401144, Note_on_c, 3, 73, 0
8, 401144, Note_on_c, 3, 76, 0
8, 401160, Note_on_c, 3, 76, 84
8, 401160, Note_on_c, 3, 73, 84
8, 401331, Note_on_c, 3, 76, 0
8, 401331, Note_on_c, 3, 73, 0
8, 401340, Note_on_c, 3, 76, 84
8, 401340, Note_on_c, 3, 73, 84
8, 401391, Note_on_c, 3, 76, 0
8, 401391, Note_on_c, 3, 73, 0
8, 401400, Note_on_c, 3, 76, 84
8, 401400, Note_on_c, 3, 73, 84
8, 401504, Note_on_c, 3, 76, 0
8, 401504, Note_on_c, 3, 73, 0
8, 401520, Note_on_c, 3, 76, 84
8, 401520, Note_on_c, 3, 73, 84
8, 401691, Note_on_c, 3, 76, 0
8, 401691, Note_on_c, 3, 73, 0
8, 401700, Note_on_c, 3, 73, 84
8, 401700, Note_on_c, 3, 76, 84
8, 401751, Note_on_c, 3, 73, 0
8, 401751, Note_on_c, 3, 76, 0
8, 401760, Note_on_c, 3, 76, 84
8, 401760, Note_on_c, 3, 73, 84
8, 401864, Note_on_c, 3, 76, 0
8, 401864, Note_on_c, 3, 73, 0
8, 401880, Note_on_c, 3, 76, 84
8, 401880, Note_on_c, 3, 69, 84
8, 402051, Note_on_c, 3, 76, 0
8, 402051, Note_on_c, 3, 69, 0
8, 402060, Note_on_c, 3, 69, 84
8, 402060, Note_on_c, 3, 76, 84
8, 402111, Note_on_c, 3, 69, 0
8, 402111, Note_on_c, 3, 76, 0
8, 402120, Note_on_c, 3, 76, 84
8, 402120, Note_on_c, 3, 69, 84
8, 402224, Note_on_c, 3, 76, 0
8, 402224, Note_on_c, 3, 69, 0
8, 402240, Note_on_c, 3, 78, 84
8, 402240, Note_on_c, 3, 69, 84
8, 402411, Note_on_c, 3, 78, 0
8, 402411, Note_on_c, 3, 69, 0
8, 402420, Note_on_c, 3, 69, 84
8, 402420, Note_on_c, 3, 78, 84
8, 402471, Note_on_c, 3, 69, 0
8, 402471, Note_on_c, 3, 78, 0
8, 402480, Note_on_c, 3, 78, 84
8, 402480, Note_on_c, 3, 69, 84
8, 402584, Note_on_c, 3, 78, 0
8, 402584, Note_on_c, 3, 69, 0
8, 402600, Note_on_c, 3, 74, 84
8, 402600, Note_on_c, 3, 78, 84
8, 402771, Note_on_c, 3, 74, 0
8, 402771, Note_on_c, 3, 78, 0
8, 402780, Note_on_c, 3, 78, 84
8, 402780, Note_on_c, 3, 74, 84
8, 402831, Note_on_c, 3, 78, 0
8, 402831, Note_on_c, 3, 74, 0
8, 402840, Note_on_c, 3, 78, 84
8, 402840, Note_on_c, 3, 74, 84
8, 402944, Note_on_c, 3, 78, 0
8, 402944, Note_on_c, 3, 74, 0
8, 402960, Note_on_c, 3, 78, 84
8, 402960, Note_on_c, 3, 74, 84
8, 403131, Note_on_c, 3, 78, 0
8, 403131, Note_on_c, 3, 74, 0
8, 403140, Note_on_c, 3, 78, 84
8, 403140, Note_on_c, 3, 74, 84
8, 403191, Note_on_c, 3, 78, 0
8, 403191, Note_on_c, 3, 74, 0
8, 403200, Note_on_c, 3, 78, 84
8, 403200, Note_on_c, 3, 74, 84
8, 403304, Note_on_c, 3, 78, 0
8, 403304, Note_on_c, 3, 74, 0
8, 403320, Note_on_c, 3, 74, 84
8, 403320, Note_on_c, 3, 78, 84
8, 403491, Note_on_c, 3, 74, 0
8, 403491, Note_on_c, 3, 78, 0
8, 403500, Note_on_c, 3, 78, 84
8, 403500, Note_on_c, 3, 74, 84
8, 403551, Note_on_c, 3, 78, 0
8, 403551, Note_on_c, 3, 74, 0
8, 403560, Note_on_c, 3, 74, 84
8, 403560, Note_on_c, 3, 78, 84
8, 403664, Note_on_c, 3, 74, 0
8, 403664, Note_on_c, 3, 78, 0
8, 403680, Note_on_c, 3, 76, 84
8, 403680, Note_on_c, 3, 73, 84
8, 404384, Note_on_c, 3, 76, 0
8, 404384, Note_on_c, 3, 73, 0
8, 404400, Note_on_c, 3, 73, 84
8, 404400, Note_on_c, 3, 76, 84
8, 405104, Note_on_c, 3, 73, 0
8, 405104, Note_on_c, 3, 76, 0
8, 405120, Note_on_c, 3, 73, 84
8, 405120, Note_on_c, 3, 76, 84
8, 405824, Note_on_c, 3, 73, 0
8, 405824, Note_on_c, 3, 76, 0
8, 405840, Note_on_c, 3, 73, 84
8, 405840, Note_on_c, 3, 76, 84
8, 406184, Note_on_c, 3, 73, 0
8, 406184, Note_on_c, 3, 76, 0
8, 406200, Note_on_c, 3, 69, 84
8, 406200, Note_on_c, 3, 81, 84
8, 406559, Note_on_c, 3, 69, 0
8, 406559, Note_on_c, 3, 81, 0
8, 406560, Note_on_c, 3, 66, 84
8, 406560, Note_on_c, 3, 78, 84
8, 406919, Note_on_c, 3, 66, 0
8, 406919, Note_on_c, 3, 78, 0
8, 406920, Note_on_c, 3, 64, 84
8, 406920, Note_on_c, 3, 76, 84
8, 407264, Note_on_c, 3, 64, 0
8, 407264, Note_on_c, 3, 76, 0
8, 407280, Note_on_c, 3, 63, 84
8, 407280, Note_on_c, 3, 75, 84
8, 407399, Note_on_c, 3, 63, 0
8, 407399, Note_on_c, 3, 75, 0
8, 407460, Note_on_c, 3, 78, 84
8, 407460, Note_on_c, 3, 71, 84
8, 407511, Note_on_c, 3, 78, 0
8, 407511, Note_on_c, 3, 71, 0
8, 407520, Note_on_c, 3, 71, 84
8, 407520, Note_on_c, 3, 78, 84
8, 407624, Note_on_c, 3, 71, 0
8, 407624, Note_on_c, 3, 78, 0
8, 407640, Note_on_c, 3, 78, 84
8, 407640, Note_on_c, 3, 71, 84
8, 407879, Note_on_c, 3, 78, 0
8, 407879, Note_on_c, 3, 71, 0
8, 408180, Note_on_c, 3, 78, 84
8, 408180, Note_on_c, 3, 71, 84
8, 408231, Note_on_c, 3, 78, 0
8, 408231, Note_on_c, 3, 71, 0
8, 408240, Note_on_c, 3, 71, 84
8, 408240, Note_on_c, 3, 78, 84
8, 408344, Note_on_c, 3, 71, 0
8, 408344, Note_on_c, 3, 78, 0
8, 408360, Note_on_c, 3, 78, 84
8, 408360, Note_on_c, 3, 71, 84
8, 408599, Note_on_c, 3, 78, 0
8, 408599, Note_on_c, 3, 71, 0
8, 408900, Note_on_c, 3, 71, 84
8, 408900, Note_on_c, 3, 76, 84
8, 408951, Note_on_c, 3, 71, 0
8, 408951, Note_on_c, 3, 76, 0
8, 408960, Note_on_c, 3, 76, 84
8, 408960, Note_on_c, 3, 71, 84
8, 409064, Note_on_c, 3, 76, 0
8, 409064, Note_on_c, 3, 71, 0
8, 409080, Note_on_c, 3, 76, 84
8, 409080, Note_on_c, 3, 71, 84
8, 409319, Note_on_c, 3, 76, 0
8, 409319, Note_on_c, 3, 71, 0
8, 409620, Note_on_c, 3, 71, 84
8, 409620, Note_on_c, 3, 76, 84
8, 409671, Note_on_c, 3, 71, 0
8, 409671, Note_on_c, 3, 76, 0
8, 409680, Note_on_c, 3, 71, 84
8, 409680, Note_on_c, 3, 76, 84
8, 409784, Note_on_c, 3, 71, 0
8, 409784, Note_on_c, 3, 76, 0
8, 409800, Note_on_c, 3, 76, 84
8, 409800, Note_on_c, 3, 71, 84
8, 410039, Note_on_c, 3, 76, 0
8, 410039, Note_on_c, 3, 71, 0
8, 410340, Note_on_c, 3, 76, 84
8, 410340, Note_on_c, 3, 73, 84
8, 410391, Note_on_c, 3, 76, 0
8, 410391, Note_on_c, 3, 73, 0
8, 410400, Note_on_c, 3, 69, 84
8, 410400, Note_on_c, 3, 76, 84
8, 410504, Note_on_c, 3, 69, 0
8, 410504, Note_on_c, 3, 76, 0
8, 410520, Note_on_c, 3, 69, 84
8, 410520, Note_on_c, 3, 78, 84
8, 410759, Note_on_c, 3, 69, 0
8, 410759, Note_on_c, 3, 78, 0
8, 411060, Note_on_c, 3, 73, 84
8, 411060, Note_on_c, 3, 76, 84
8, 411111, Note_on_c, 3, 73, 0
8, 411111, Note_on_c, 3, 76, 0
8, 411120, Note_on_c, 3, 73, 84
8, 411120, Note_on_c, 3, 76, 84
8, 411224, Note_on_c, 3, 73, 0
8, 411224, Note_on_c, 3, 76, 0
8, 411240, Note_on_c, 3, 74, 84
8, 411240, Note_on_c, 3, 71, 84
8, 411479, Note_on_c, 3, 74, 0
8, 411479, Note_on_c, 3, 71, 0
8, 411600, Note_on_c, 3, 73, 84
8, 411600, Note_on_c, 3, 69, 84
8, 411719, Note_on_c, 3, 73, 0
8, 411719, Note_on_c, 3, 69, 0
8, 411780, Note_on_c, 3, 78, 84
8, 411780, Note_on_c, 3, 74, 84
8, 411831, Note_on_c, 3, 78, 0
8, 411831, Note_on_c, 3, 74, 0
8, 411840, Note_on_c, 3, 74, 84
8, 411840, Note_on_c, 3, 78, 84
8, 411944, Note_on_c, 3, 74, 0
8, 411944, Note_on_c, 3, 78, 0
8, 411960, Note_on_c, 3, 78, 84
8, 411960, Note_on_c, 3, 74, 84
8, 412079, Note_on_c, 3, 78, 0
8, 412079, Note_on_c, 3, 74, 0
8, 412140, Note_on_c, 3, 76, 84
8, 412140, Note_on_c, 3, 73, 84
8, 412191, Note_on_c, 3, 76, 0
8, 412191, Note_on_c, 3, 73, 0
8, 412200, Note_on_c, 3, 73, 84
8, 412200, Note_on_c, 3, 76, 84
8, 412304, Note_on_c, 3, 73, 0
8, 412304, Note_on_c, 3, 76, 0
8, 412320, Note_on_c, 3, 73, 84
8, 412320, Note_on_c, 3, 76, 84
8, 412439, Note_on_c, 3, 73, 0
8, 412439, Note_on_c, 3, 76, 0
8, 412500, Note_on_c, 3, 74, 84
8, 412500, Note_on_c, 3, 71, 84
8, 412551, Note_on_c, 3, 74, 0
8, 412551, Note_on_c, 3, 71, 0
8, 412560, Note_on_c, 3, 71, 84
8, 412560, Note_on_c, 3, 74, 84
8, 412664, Note_on_c, 3, 71, 0
8, 412664, Note_on_c, 3, 74, 0
8, 412680, Note_on_c, 3, 74, 84
8, 412680, Note_on_c, 3, 71, 84
8, 412799, Note_on_c, 3, 74, 0
8, 412799, Note_on_c, 3, 71, 0
8, 412860, Note_on_c, 3, 69, 84
8, 412860, Note_on_c, 3, 73, 84
8, 412911, Note_on_c, 3, 69, 0
8, 412911, Note_on_c, 3, 73, 0
8, 412920, Note_on_c, 3, 73, 84
8, 412920, Note_on_c, 3, 69, 84
8, 413024, Note_on_c, 3, 73, 0
8, 413024, Note_on_c, 3, 69, 0
8, 413040, Note_on_c, 3, 73, 84
8, 413040, Note_on_c, 3, 69, 84
8, 413159, Note_on_c, 3, 73, 0
8, 413159, Note_on_c, 3, 69, 0
8, 413220, Note_on_c, 3, 74, 84
8, 413220, Note_on_c, 3, 78, 84
8, 413271, Note_on_c, 3, 74, 0
8, 413271, Note_on_c, 3, 78, 0
8, 413280, Note_on_c, 3, 74, 84
8, 413280, Note_on_c, 3, 78, 84
8, 413384, Note_on_c, 3, 74, 0
8, 413384, Note_on_c, 3, 78, 0
8, 413400, Note_on_c, 3, 78, 84
8, 413400, Note_on_c, 3, 74, 84
8, 413519, Note_on_c, 3, 78, 0
8, 413519, Note_on_c, 3, 74, 0
8, 413580, Note_on_c, 3, 73, 84
8, 413580, Note_on_c, 3, 76, 84
8, 413631, Note_on_c, 3, 73, 0
8, 413631, Note_on_c, 3, 76, 0
8, 413640, Note_on_c, 3, 76, 84
8, 413640, Note_on_c, 3, 73, 84
8, 413744, Note_on_c, 3, 76, 0
8, 413744, Note_on_c, 3, 73, 0
8, 413760, Note_on_c, 3, 73, 84
8, 413760, Note_on_c, 3, 76, 84
8, 413879, Note_on_c, 3, 73, 0
8, 413879, Note_on_c, 3, 76, 0
8, 413940, Note_on_c, 3, 71, 84
8, 413940, Note_on_c, 3, 68, 84
8, 413991, Note_on_c, 3, 71, 0
8, 413991, Note_on_c, 3, 68, 0
8, 414000, Note_on_c, 3, 68, 84
8, 414000, Note_on_c, 3, 71, 84
8, 414104, Note_on_c, 3, 68, 0
8, 414104, Note_on_c, 3, 71, 0
8, 414120, Note_on_c, 3, 71, 84
8, 414120, Note_on_c, 3, 68, 84
8, 414239, Note_on_c, 3, 71, 0
8, 414239, Note_on_c, 3, 68, 0
8, 414300, Note_on_c, 3, 73, 84
8, 414300, Note_on_c, 3, 69, 84
8, 414351, Note_on_c, 3, 73, 0
8, 414351, Note_on_c, 3, 69, 0
8, 414360, Note_on_c, 3, 73, 84
8, 414360, Note_on_c, 3, 69, 84
8, 414464, Note_on_c, 3, 73, 0
8, 414464, Note_on_c, 3, 69, 0
8, 414480, Note_on_c, 3, 73, 84
8, 414480, Note_on_c, 3, 76, 84
8, 415011, Note_on_c, 3, 73, 0
8, 415011, Note_on_c, 3, 76, 0
8, 415020, Note_on_c, 3, 71, 84
8, 415020, Note_on_c, 3, 74, 84
8, 415064, Note_on_c, 3, 71, 0
8, 415064, Note_on_c, 3, 74, 0
8, 415080, Note_on_c, 3, 69, 84
8, 415080, Note_on_c, 3, 73, 84
8, 415169, Note_on_c, 3, 69, 0
8, 415169, Note_on_c, 3, 73, 0
8, 415200, Note_on_c, 3, 68, 84
8, 415200, Note_on_c, 3, 71, 84
8, 415319, Note_on_c, 3, 68, 0
8, 415319, Note_on_c, 3, 71, 0
8, 415380, Note_on_c, 3, 68, 84
8, 415380, Note_on_c, 3, 71, 84
8, 415431, Note_on_c, 3, 68, 0
8, 415431, Note_on_c, 3, 71, 0
8, 415440, Note_on_c, 3, 68, 84
8, 415440, Note_on_c, 3, 71, 84
8, 415544, Note_on_c, 3, 68, 0
8, 415544, Note_on_c, 3, 71, 0
8, 415560, Note_on_c, 3, 68, 84
8, 415560, Note_on_c, 3, 71, 84
8, 415679, Note_on_c, 3, 68, 0
8, 415679, Note_on_c, 3, 71, 0
8, 415740, Note_on_c, 3, 73, 84
8, 415740, Note_on_c, 3, 76, 84
8, 415791, Note_on_c, 3, 73, 0
8, 415791, Note_on_c, 3, 76, 0
8, 415800, Note_on_c, 3, 73, 84
8, 415800, Note_on_c, 3, 76, 84
8, 415904, Note_on_c, 3, 73, 0
8, 415904, Note_on_c, 3, 76, 0
8, 415920, Note_on_c, 3, 73, 84
8, 415920, Note_on_c, 3, 76, 84
8, 416451, Note_on_c, 3, 73, 0
8, 416451, Note_on_c, 3, 76, 0
8, 416460, Note_on_c, 3, 71, 84
8, 416460, Note_on_c, 3, 74, 84
8, 416504, Note_on_c, 3, 71, 0
8, 416504, Note_on_c, 3, 74, 0
8, 416520, Note_on_c, 3, 69, 84
8, 416520, Note_on_c, 3, 73, 84
8, 416609, Note_on_c, 3, 69, 0
8, 416609, Note_on_c, 3, 73, 0
8, 416640, Note_on_c, 3, 68, 84
8, 416640, Note_on_c, 3, 71, 84
8, 416759, Note_on_c, 3, 68, 0
8, 416759, Note_on_c, 3, 71, 0
8, 416820, Note_on_c, 3, 68, 84
8, 416820, Note_on_c, 3, 71, 84
8, 416871, Note_on_c, 3, 68, 0
8, 416871, Note_on_c, 3, 71, 0
8, 416880, Note_on_c, 3, 68, 84
8, 416880, Note_on_c, 3, 71, 84
8, 416984, Note_on_c, 3, 68, 0
8, 416984, Note_on_c, 3, 71, 0
8, 417000, Note_on_c, 3, 68, 84
8, 417000, Note_on_c, 3, 71, 84
8, 417119, Note_on_c, 3, 68, 0
8, 417119, Note_on_c, 3, 71, 0
8, 417180, Note_on_c, 3, 73, 84
8, 417180, Note_on_c, 3, 76, 84
8, 417231, Note_on_c, 3, 73, 0
8, 417231, Note_on_c, 3, 76, 0
8, 417240, Note_on_c, 3, 73, 84
8, 417240, Note_on_c, 3, 76, 84
8, 417344, Note_on_c, 3, 73, 0
8, 417344, Note_on_c, 3, 76, 0
8, 417360, Note_on_c, 3, 73, 84
8, 417360, Note_on_c, 3, 76, 84
8, 417479, Note_on_c, 3, 73, 0
8, 417479, Note_on_c, 3, 76, 0
8, 417540, Note_on_c, 3, 81, 84
8, 417540, Note_on_c, 3, 73, 84
8, 417591, Note_on_c, 3, 81, 0
8, 417591, Note_on_c, 3, 73, 0
8, 417600, Note_on_c, 3, 81, 84
8, 417600, Note_on_c, 3, 73, 84
8, 417704, Note_on_c, 3, 81, 0
8, 417704, Note_on_c, 3, 73, 0
8, 417720, Note_on_c, 3, 81, 84
8, 417720, Note_on_c, 3, 73, 84
8, 417839, Note_on_c, 3, 81, 0
8, 417839, Note_on_c, 3, 73, 0
8, 417900, Note_on_c, 3, 81, 84
8, 417900, Note_on_c, 3, 73, 84
8, 417951, Note_on_c, 3, 81, 0
8, 417951, Note_on_c, 3, 73, 0
8, 417960, Note_on_c, 3, 81, 84
8, 417960, Note_on_c, 3, 73, 84
8, 418064, Note_on_c, 3, 81, 0
8, 418064, Note_on_c, 3, 73, 0
8, 418080, Note_on_c, 3, 73, 84
8, 418080, Note_on_c, 3, 81, 84
8, 418199, Note_on_c, 3, 73, 0
8, 418199, Note_on_c, 3, 81, 0
8, 418260, Note_on_c, 3, 73, 84
8, 418260, Note_on_c, 3, 81, 84
8, 418311, Note_on_c, 3, 73, 0
8, 418311, Note_on_c, 3, 81, 0
8, 418320, Note_on_c, 3, 73, 84
8, 418320, Note_on_c, 3, 81, 84
8, 418424, Note_on_c, 3, 73, 0
8, 418424, Note_on_c, 3, 81, 0
8, 418440, Note_on_c, 3, 73, 84
8, 418440, Note_on_c, 3, 81, 84
8, 418559, Note_on_c, 3, 73, 0
8, 418559, Note_on_c, 3, 81, 0
8, 418620, Note_on_c, 3, 73, 84
8, 418620, Note_on_c, 3, 81, 84
8, 418671, Note_on_c, 3, 73, 0
8, 418671, Note_on_c, 3, 81, 0
8, 418680, Note_on_c, 3, 81, 84
8, 418680, Note_on_c, 3, 73, 84
8, 418784, Note_on_c, 3, 81, 0
8, 418784, Note_on_c, 3, 73, 0
8, 418800, Note_on_c, 3, 73, 84
8, 418800, Note_on_c, 3, 81, 84
8, 419039, Note_on_c, 3, 73, 0
8, 419039, Note_on_c, 3, 81, 0
8, 419520, Note_on_c, 3, 76, 84
8, 419759, Note_on_c, 3, 76, 0
8, 420240, Note_on_c, 3, 73, 84
8, 420479, Note_on_c, 3, 73, 0
8, 420479, End_track
9, 0, Start_track
9, 0, Title_t, "Bassoon"
9, 0, MIDI_port, 0
9, 0, Program_c, 4, 70
9, 0, Control_c, 4, 7, 96
9, 0, Control_c, 4, 11, 127
9, 0, Control_c, 4, 10, 65
9, 0, Note_on_c, 4, 61, 76
9, 0, Note_on_c, 4, 57, 76
9, 179, Note_on_c, 4, 61, 0
9, 179, Note_on_c, 4, 57, 0
9, 1920, Note_on_c, 4, 59, 76
9, 1920, Note_on_c, 4, 56, 76
9, 2099, Note_on_c, 4, 59, 0
9, 2099, Note_on_c, 4, 56, 0
9, 3840, Note_on_c, 4, 55, 76
9, 3840, Note_on_c, 4, 43, 76
9, 4019, Note_on_c, 4, 55, 0
9, 4019, Note_on_c, 4, 43, 0
9, 5760, Note_on_c, 4, 62, 76
9, 5760, Note_on_c, 4, 50, 76
9, 5820, Control_c, 4, 11, 80
9, 6239, Note_on_c, 4, 62, 0
9, 6239, Note_on_c, 4, 50, 0
9, 6240, Note_on_c, 4, 45, 76
9, 6240, Note_on_c, 4, 57, 76
9, 6719, Note_on_c, 4, 45, 0
9, 6719, Note_on_c, 4, 57, 0
9, 6720, Note_on_c, 4, 50, 76
9, 6720, Note_on_c, 4, 41, 76
9, 7199, Note_on_c, 4, 50, 0
9, 7199, Note_on_c, 4, 41, 0
9, 7200, Note_on_c, 4, 40, 76
9, 7200, Note_on_c, 4, 55, 76
9, 7669, Note_on_c, 4, 40, 0
9, 7669, Note_on_c, 4, 55, 0
9, 7680, Control_c, 4, 11, 80
9, 7680, Note_on_c, 4, 41, 76
9, 7680, Note_on_c, 4, 53, 76
9, 7740, Control_c, 4, 11, 79
9, 7800, Control_c, 4, 11, 78
9, 7860, Control_c, 4, 11, 77
9, 7920, Control_c, 4, 11, 76
9, 7980, Control_c, 4, 11, 75
9, 8040, Control_c, 4, 11, 74
9, 8100, Control_c, 4, 11, 73
9, 8160, Control_c, 4, 11, 72
9, 8220, Control_c, 4, 11, 71
9, 8280, Control_c, 4, 11, 70
9, 8340, Control_c, 4, 11, 69
9, 8389, Note_on_c, 4, 41, 0
9, 8389, Note_on_c, 4, 53, 0
9, 8400, Control_c, 4, 11, 68
9, 8400, Note_on_c, 4, 41, 76
9, 8400, Note_on_c, 4, 53, 76
9, 8460, Control_c, 4, 11, 67
9, 8520, Control_c, 4, 11, 66
9, 8580, Control_c, 4, 11, 64
9, 8629, Note_on_c, 4, 41, 0
9, 8629, Note_on_c, 4, 53, 0
9, 8640, Note_on_c, 4, 52, 76
9, 8640, Note_on_c, 4, 40, 76
9, 8879, Note_on_c, 4, 52, 0
9, 8879, Note_on_c, 4, 40, 0
9, 9360, Control_c, 4, 11, 127
9, 9600, Note_on_c, 4, 57, 44
9, 9600, Note_on_c, 4, 61, 44
9, 10079, Note_on_c, 4, 57, 0
9, 10079, Note_on_c, 4, 61, 0
9, 10080, Note_on_c, 4, 57, 44
9, 10080, Note_on_c, 4, 52, 44
9, 10559, Note_on_c, 4, 57, 0
9, 10559, Note_on_c, 4, 52, 0
9, 10560, Note_on_c, 4, 49, 44
9, 10560, Note_on_c, 4, 52, 44
9, 10799, Note_on_c, 4, 49, 0
9, 10799, Note_on_c, 4, 52, 0
9, 11520, Note_on_c, 4, 59, 44
9, 11520, Note_on_c, 4, 62, 44
9, 11999, Note_on_c, 4, 59, 0
9, 11999, Note_on_c, 4, 62, 0
9, 12000, Note_on_c, 4, 56, 44
9, 12000, Note_on_c, 4, 59, 44
9, 12469, Note_on_c, 4, 56, 0
9, 12469, Note_on_c, 4, 59, 0
9, 12478, Control_c, 4, 11, 48
9, 12480, Control_c, 4, 11, 48
9, 12480, Note_on_c, 4, 59, 84
9, 12480, Note_on_c, 4, 62, 84
9, 12520, Control_c, 4, 11, 51
9, 12560, Control_c, 4, 11, 55
9, 12600, Control_c, 4, 11, 58
9, 12640, Control_c, 4, 11, 61
9, 12680, Control_c, 4, 11, 64
9, 12720, Control_c, 4, 11, 68
9, 12760, Control_c, 4, 11, 71
9, 12800, Control_c, 4, 11, 74
9, 12840, Control_c, 4, 11, 78
9, 12880, Control_c, 4, 11, 81
9, 12920, Control_c, 4, 11, 84
9, 12949, Note_on_c, 4, 59, 0
9, 12949, Note_on_c, 4, 62, 0
9, 12960, Note_on_c, 4, 62, 84
9, 12960, Control_c, 4, 11, 88
9, 12960, Note_on_c, 4, 59, 84
9, 13000, Control_c, 4, 11, 91
9, 13004, Note_on_c, 4, 62, 0
9, 13004, Note_on_c, 4, 59, 0
9, 13020, Note_on_c, 4, 59, 84
9, 13020, Note_on_c, 4, 62, 84
9, 13040, Control_c, 4, 11, 94
9, 13064, Note_on_c, 4, 59, 0
9, 13064, Note_on_c, 4, 62, 0
9, 13080, Control_c, 4, 11, 97
9, 13080, Note_on_c, 4, 59, 84
9, 13080, Note_on_c, 4, 62, 84
9, 13120, Control_c, 4, 11, 101
9, 13124, Note_on_c, 4, 59, 0
9, 13124, Note_on_c, 4, 62, 0
9, 13140, Note_on_c, 4, 59, 84
9, 13140, Note_on_c, 4, 62, 84
9, 13160, Control_c, 4, 11, 104
9, 13184, Note_on_c, 4, 59, 0
9, 13184, Note_on_c, 4, 62, 0
9, 13200, Note_on_c, 4, 59, 84
9, 13200, Note_on_c, 4, 62, 84
9, 13200, Control_c, 4, 11, 107
9, 13240, Control_c, 4, 11, 111
9, 13244, Note_on_c, 4, 59, 0
9, 13244, Note_on_c, 4, 62, 0
9, 13260, Note_on_c, 4, 59, 84
9, 13260, Note_on_c, 4, 62, 84
9, 13280, Control_c, 4, 11, 114
9, 13304, Note_on_c, 4, 59, 0
9, 13304, Note_on_c, 4, 62, 0
9, 13320, Note_on_c, 4, 59, 84
9, 13320, Note_on_c, 4, 62, 84
9, 13320, Control_c, 4, 11, 117
9, 13360, Control_c, 4, 11, 120
9, 13364, Note_on_c, 4, 59, 0
9, 13364, Note_on_c, 4, 62, 0
9, 13380, Note_on_c, 4, 59, 84
9, 13380, Note_on_c, 4, 62, 84
9, 13400, Control_c, 4, 11, 124
9, 13424, Note_on_c, 4, 59, 0
9, 13424, Note_on_c, 4, 62, 0
9, 13438, Control_c, 4, 11, 127
9, 13440, Note_on_c, 4, 61, 84
9, 13440, Note_on_c, 4, 57, 84
9, 14639, Note_on_c, 4, 61, 0
9, 14639, Note_on_c, 4, 57, 0
9, 15360, Note_on_c, 4, 56, 84
9, 16319, Note_on_c, 4, 56, 0
9, 16320, Note_on_c, 4, 55, 84
9, 16559, Note_on_c, 4, 55, 0
9, 17280, Note_on_c, 4, 42, 84
9, 17280, Note_on_c, 4, 54, 84
9, 18239, Note_on_c, 4, 42, 0
9, 18239, Note_on_c, 4, 54, 0
9, 18240, Note_on_c, 4, 53, 84
9, 18240, Note_on_c, 4, 41, 84
9, 18479, Note_on_c, 4, 53, 0
9, 18479, Note_on_c, 4, 41, 0
9, 19200, Note_on_c, 4, 41, 84
9, 19200, Note_on_c, 4, 53, 84
9, 20149, Note_on_c, 4, 41, 0
9, 20149, Note_on_c, 4, 53, 0
9, 20160, Note_on_c, 4, 40, 84
9, 20160, Note_on_c, 4, 52, 84
9, 20204, Note_on_c, 4, 52, 0
9, 20220, Note_on_c, 4, 48, 82
9, 20264, Note_on_c, 4, 48, 0
9, 20280, Note_on_c, 4, 50, 80
9, 20324, Note_on_c, 4, 50, 0
9, 20340, Note_on_c, 4, 52, 78
9, 20384, Note_on_c, 4, 52, 0
9, 20389, Note_on_c, 4, 40, 0
9, 20400, Note_on_c, 4, 53, 76
9, 20444, Note_on_c, 4, 53, 0
9, 20460, Note_on_c, 4, 55, 74
9, 20504, Note_on_c, 4, 55, 0
9, 20520, Note_on_c, 4, 57, 72
9, 20564, Note_on_c, 4, 57, 0
9, 20580, Note_on_c, 4, 59, 70
9, 20624, Note_on_c, 4, 59, 0
9, 20640, Note_on_c, 4, 60, 68
9, 20684, Note_on_c, 4, 60, 0
9, 20700, Note_on_c, 4, 62, 66
9, 20744, Note_on_c, 4, 62, 0
9, 20760, Note_on_c, 4, 64, 64
9, 20804, Note_on_c, 4, 64, 0
9, 20820, Note_on_c, 4, 65, 62
9, 20864, Note_on_c, 4, 65, 0
9, 20880, Note_on_c, 4, 67, 60
9, 20924, Note_on_c, 4, 67, 0
9, 20940, Note_on_c, 4, 64, 58
9, 20984, Note_on_c, 4, 64, 0
9, 21000, Note_on_c, 4, 62, 56
9, 21044, Note_on_c, 4, 62, 0
9, 21060, Note_on_c, 4, 60, 54
9, 21104, Note_on_c, 4, 60, 0
9, 21120, Note_on_c, 4, 59, 48
9, 21120, Note_on_c, 4, 55, 48
9, 21589, Note_on_c, 4, 59, 0
9, 21589, Note_on_c, 4, 55, 0
9, 21600, Note_on_c, 4, 59, 48
9, 21600, Note_on_c, 4, 55, 48
9, 21829, Note_on_c, 4, 59, 0
9, 21829, Note_on_c, 4, 55, 0
9, 21840, Note_on_c, 4, 55, 48
9, 21840, Note_on_c, 4, 59, 48
9, 21949, Note_on_c, 4, 55, 0
9, 21949, Note_on_c, 4, 59, 0
9, 21960, Note_on_c, 4, 55, 48
9, 21960, Note_on_c, 4, 59, 48
9, 22069, Note_on_c, 4, 55, 0
9, 22069, Note_on_c, 4, 59, 0
9, 22080, Note_on_c, 4, 48, 48
9, 22080, Note_on_c, 4, 60, 48
9, 22439, Note_on_c, 4, 48, 0
9, 22439, Note_on_c, 4, 60, 0
9, 22500, Note_on_c, 4, 48, 48
9, 22500, Note_on_c, 4, 60, 48
9, 22553, Note_on_c, 4, 48, 0
9, 22553, Note_on_c, 4, 60, 0
9, 22560, Note_on_c, 4, 52, 48
9, 22560, Note_on_c, 4, 60, 48
9, 22919, Note_on_c, 4, 52, 0
9, 22919, Note_on_c, 4, 60, 0
9, 22980, Note_on_c, 4, 52, 48
9, 22980, Note_on_c, 4, 60, 48
9, 23033, Note_on_c, 4, 52, 0
9, 23033, Note_on_c, 4, 60, 0
9, 23040, Note_on_c, 4, 59, 48
9, 23040, Note_on_c, 4, 55, 48
9, 23509, Note_on_c, 4, 59, 0
9, 23509, Note_on_c, 4, 55, 0
9, 23520, Note_on_c, 4, 55, 48
9, 23520, Note_on_c, 4, 59, 48
9, 23749, Note_on_c, 4, 55, 0
9, 23749, Note_on_c, 4, 59, 0
9, 23760, Note_on_c, 4, 55, 48
9, 23760, Note_on_c, 4, 59, 48
9, 23869, Note_on_c, 4, 55, 0
9, 23869, Note_on_c, 4, 59, 0
9, 23880, Note_on_c, 4, 59, 48
9, 23880, Note_on_c, 4, 55, 48
9, 23989, Note_on_c, 4, 59, 0
9, 23989, Note_on_c, 4, 55, 0
9, 24000, Note_on_c, 4, 60, 48
9, 24000, Note_on_c, 4, 48, 48
9, 24359, Note_on_c, 4, 60, 0
9, 24359, Note_on_c, 4, 48, 0
9, 24420, Note_on_c, 4, 60, 48
9, 24420, Note_on_c, 4, 48, 48
9, 24473, Note_on_c, 4, 60, 0
9, 24473, Note_on_c, 4, 48, 0
9, 24480, Note_on_c, 4, 52, 48
9, 24480, Note_on_c, 4, 60, 48
9, 24839, Note_on_c, 4, 52, 0
9, 24839, Note_on_c, 4, 60, 0
9, 24900, Note_on_c, 4, 60, 48
9, 24900, Note_on_c, 4, 52, 48
9, 24953, Note_on_c, 4, 60, 0
9, 24953, Note_on_c, 4, 52, 0
9, 24960, Note_on_c, 4, 60, 48
9, 24960, Note_on_c, 4, 53, 48
9, 25319, Note_on_c, 4, 60, 0
9, 25319, Note_on_c, 4, 53, 0
9, 25380, Note_on_c, 4, 60, 48
9, 25380, Note_on_c, 4, 53, 48
9, 25433, Note_on_c, 4, 60, 0
9, 25433, Note_on_c, 4, 53, 0
9, 25440, Note_on_c, 4, 53, 48
9, 25440, Note_on_c, 4, 60, 48
9, 25799, Note_on_c, 4, 53, 0
9, 25799, Note_on_c, 4, 60, 0
9, 25860, Note_on_c, 4, 60, 48
9, 25860, Note_on_c, 4, 53, 48
9, 25913, Note_on_c, 4, 60, 0
9, 25913, Note_on_c, 4, 53, 0
9, 25920, Note_on_c, 4, 55, 48
9, 25920, Note_on_c, 4, 60, 48
9, 26279, Note_on_c, 4, 55, 0
9, 26279, Note_on_c, 4, 60, 0
9, 26340, Note_on_c, 4, 55, 48
9, 26340, Note_on_c, 4, 60, 48
9, 26393, Note_on_c, 4, 55, 0
9, 26393, Note_on_c, 4, 60, 0
9, 26400, Note_on_c, 4, 59, 48
9, 26400, Note_on_c, 4, 55, 48
9, 26759, Note_on_c, 4, 59, 0
9, 26759, Note_on_c, 4, 55, 0
9, 26820, Note_on_c, 4, 67, 48
9, 26873, Note_on_c, 4, 67, 0
9, 26880, Note_on_c, 4, 67, 44
9, 27413, Note_on_c, 4, 67, 0
9, 27420, Note_on_c, 4, 67, 44
9, 27473, Note_on_c, 4, 67, 0
9, 27480, Note_on_c, 4, 67, 44
9, 27533, Note_on_c, 4, 67, 0
9, 27540, Note_on_c, 4, 67, 44
9, 27593, Note_on_c, 4, 67, 0
9, 27600, Note_on_c, 4, 67, 44
9, 27653, Note_on_c, 4, 67, 0
9, 27660, Note_on_c, 4, 67, 44
9, 27713, Note_on_c, 4, 67, 0
9, 27720, Note_on_c, 4, 67, 44
9, 27773, Note_on_c, 4, 67, 0
9, 27780, Note_on_c, 4, 67, 44
9, 27833, Note_on_c, 4, 67, 0
9, 27840, Note_on_c, 4, 67, 44
9, 28373, Note_on_c, 4, 67, 0
9, 28380, Note_on_c, 4, 67, 44
9, 28433, Note_on_c, 4, 67, 0
9, 28440, Note_on_c, 4, 67, 44
9, 28493, Note_on_c, 4, 67, 0
9, 28500, Note_on_c, 4, 67, 44
9, 28553, Note_on_c, 4, 67, 0
9, 28560, Note_on_c, 4, 67, 44
9, 28613, Note_on_c, 4, 67, 0
9, 28620, Note_on_c, 4, 67, 44
9, 28673, Note_on_c, 4, 67, 0
9, 28680, Note_on_c, 4, 67, 44
9, 28733, Note_on_c, 4, 67, 0
9, 28740, Note_on_c, 4, 67, 44
9, 28793, Note_on_c, 4, 67, 0
9, 28800, Note_on_c, 4, 67, 44
9, 29333, Note_on_c, 4, 67, 0
9, 29340, Note_on_c, 4, 67, 44
9, 29393, Note_on_c, 4, 67, 0
9, 29400, Note_on_c, 4, 67, 44
9, 29453, Note_on_c, 4, 67, 0
9, 29460, Note_on_c, 4, 67, 44
9, 29513, Note_on_c, 4, 67, 0
9, 29520, Note_on_c, 4, 67, 44
9, 29573, Note_on_c, 4, 67, 0
9, 29580, Note_on_c, 4, 67, 44
9, 29633, Note_on_c, 4, 67, 0
9, 29640, Note_on_c, 4, 67, 44
9, 29693, Note_on_c, 4, 67, 0
9, 29700, Note_on_c, 4, 67, 44
9, 29753, Note_on_c, 4, 67, 0
9, 29760, Note_on_c, 4, 67, 44
9, 30229, Note_on_c, 4, 67, 0
9, 30238, Control_c, 4, 11, 48
9, 30240, Note_on_c, 4, 60, 84
9, 30240, Control_c, 4, 11, 48
9, 30280, Control_c, 4, 11, 50
9, 30293, Note_on_c, 4, 60, 0
9, 30300, Note_on_c, 4, 60, 84
9, 30320, Control_c, 4, 11, 52
9, 30353, Note_on_c, 4, 60, 0
9, 30360, Control_c, 4, 11, 55
9, 30360, Note_on_c, 4, 60, 84
9, 30400, Control_c, 4, 11, 57
9, 30413, Note_on_c, 4, 60, 0
9, 30420, Note_on_c, 4, 60, 84
9, 30440, Control_c, 4, 11, 59
9, 30473, Note_on_c, 4, 60, 0
9, 30480, Note_on_c, 4, 60, 84
9, 30480, Control_c, 4, 11, 61
9, 30520, Control_c, 4, 11, 63
9, 30533, Note_on_c, 4, 60, 0
9, 30540, Note_on_c, 4, 60, 84
9, 30560, Control_c, 4, 11, 66
9, 30593, Note_on_c, 4, 60, 0
9, 30600, Note_on_c, 4, 60, 84
9, 30600, Control_c, 4, 11, 68
9, 30640, Control_c, 4, 11, 70
9, 30653, Note_on_c, 4, 60, 0
9, 30660, Note_on_c, 4, 60, 84
9, 30680, Control_c, 4, 11, 72
9, 30713, Note_on_c, 4, 60, 0
9, 30720, Note_on_c, 4, 60, 84
9, 30720, Control_c, 4, 11, 74
9, 30760, Control_c, 4, 11, 77
9, 30800, Control_c, 4, 11, 79
9, 30840, Control_c, 4, 11, 81
9, 30880, Control_c, 4, 11, 83
9, 30920, Control_c, 4, 11, 85
9, 30949, Note_on_c, 4, 60, 0
9, 30960, Note_on_c, 4, 62, 84
9, 30960, Control_c, 4, 11, 88
9, 31000, Control_c, 4, 11, 90
9, 31013, Note_on_c, 4, 62, 0
9, 31020, Note_on_c, 4, 62, 84
9, 31040, Control_c, 4, 11, 92
9, 31073, Note_on_c, 4, 62, 0
9, 31080, Control_c, 4, 11, 94
9, 31080, Note_on_c, 4, 62, 84
9, 31120, Control_c, 4, 11, 96
9, 31133, Note_on_c, 4, 62, 0
9, 31140, Note_on_c, 4, 62, 84
9, 31160, Control_c, 4, 11, 98
9, 31193, Note_on_c, 4, 62, 0
9, 31200, Note_on_c, 4, 62, 84
9, 31200, Control_c, 4, 11, 101
9, 31240, Control_c, 4, 11, 103
9, 31280, Control_c, 4, 11, 105
9, 31320, Control_c, 4, 11, 107
9, 31360, Control_c, 4, 11, 109
9, 31400, Control_c, 4, 11, 112
9, 31429, Note_on_c, 4, 62, 0
9, 31440, Note_on_c, 4, 59, 84
9, 31440, Note_on_c, 4, 55, 84
9, 31440, Control_c, 4, 11, 114
9, 31480, Control_c, 4, 11, 116
9, 31493, Note_on_c, 4, 59, 0
9, 31493, Note_on_c, 4, 55, 0
9, 31500, Note_on_c, 4, 55, 84
9, 31500, Note_on_c, 4, 59, 84
9, 31520, Control_c, 4, 11, 118
9, 31553, Note_on_c, 4, 55, 0
9, 31553, Note_on_c, 4, 59, 0
9, 31560, Control_c, 4, 11, 120
9, 31560, Note_on_c, 4, 59, 84
9, 31560, Note_on_c, 4, 55, 84
9, 31600, Control_c, 4, 11, 123
9, 31613, Note_on_c, 4, 59, 0
9, 31613, Note_on_c, 4, 55, 0
9, 31620, Note_on_c, 4, 59, 84
9, 31620, Note_on_c, 4, 55, 84
9, 31640, Control_c, 4, 11, 127
9, 31673, Note_on_c, 4, 59, 0
9, 31673, Note_on_c, 4, 55, 0
9, 31680, Note_on_c, 4, 59, 84
9, 31680, Note_on_c, 4, 56, 84
9, 32149, Note_on_c, 4, 59, 0
9, 32149, Note_on_c, 4, 56, 0
9, 32160, Note_on_c, 4, 64, 92
9, 32220, Control_c, 4, 11, 112
9, 32629, Note_on_c, 4, 64, 0
9, 32638, Control_c, 4, 11, 127
9, 32640, Note_on_c, 4, 59, 92
9, 32700, Control_c, 4, 11, 112
9, 33109, Note_on_c, 4, 59, 0
9, 33118, Control_c, 4, 11, 127
9, 33120, Note_on_c, 4, 52, 92
9, 33180, Control_c, 4, 11, 112
9, 33589, Note_on_c, 4, 52, 0
9, 33598, Control_c, 4, 11, 127
9, 33600, Note_on_c, 4, 64, 92
9, 33660, Control_c, 4, 11, 112
9, 34069, Note_on_c, 4, 64, 0
9, 34078, Control_c, 4, 11, 127
9, 34080, Note_on_c, 4, 66, 92
9, 34140, Control_c, 4, 11, 112
9, 34549, Note_on_c, 4, 66, 0
9, 34558, Control_c, 4, 11, 127
9, 34560, Note_on_c, 4, 61, 92
9, 34620, Control_c, 4, 11, 112
9, 35029, Note_on_c, 4, 61, 0
9, 35038, Control_c, 4, 11, 127
9, 35040, Note_on_c, 4, 52, 92
9, 35100, Control_c, 4, 11, 112
9, 35509, Note_on_c, 4, 52, 0
9, 35518, Control_c, 4, 11, 127
9, 35520, Note_on_c, 4, 64, 92
9, 35580, Control_c, 4, 11, 112
9, 35989, Note_on_c, 4, 64, 0
9, 35998, Control_c, 4, 11, 127
9, 36000, Note_on_c, 4, 67, 92
9, 36060, Control_c, 4, 11, 112
9, 36469, Note_on_c, 4, 67, 0
9, 36480, Note_on_c, 4, 64, 92
9, 36540, Control_c, 4, 11, 112
9, 36949, Note_on_c, 4, 64, 0
9, 36958, Control_c, 4, 11, 127
9, 36960, Note_on_c, 4, 52, 92
9, 37020, Control_c, 4, 11, 112
9, 37429, Note_on_c, 4, 52, 0
9, 37438, Control_c, 4, 11, 127
9, 37440, Note_on_c, 4, 64, 92
9, 37500, Control_c, 4, 11, 112
9, 37909, Note_on_c, 4, 64, 0
9, 37918, Control_c, 4, 11, 127
9, 37920, Note_on_c, 4, 67, 92
9, 37980, Control_c, 4, 11, 112
9, 38389, Note_on_c, 4, 67, 0
9, 38398, Control_c, 4, 11, 127
9, 38400, Note_on_c, 4, 64, 84
9, 38460, Note_on_c, 4, 48, 82
9, 38513, Note_on_c, 4, 48, 0
9, 38520, Note_on_c, 4, 50, 80
9, 38573, Note_on_c, 4, 50, 0
9, 38580, Note_on_c, 4, 52, 78
9, 38633, Note_on_c, 4, 52, 0
9, 38639, Note_on_c, 4, 64, 0
9, 38640, Note_on_c, 4, 53, 76
9, 38693, Note_on_c, 4, 53, 0
9, 38700, Note_on_c, 4, 55, 74
9, 38753, Note_on_c, 4, 55, 0
9, 38760, Note_on_c, 4, 57, 72
9, 38813, Note_on_c, 4, 57, 0
9, 38820, Note_on_c, 4, 59, 70
9, 38873, Note_on_c, 4, 59, 0
9, 38880, Note_on_c, 4, 60, 68
9, 38933, Note_on_c, 4, 60, 0
9, 38940, Note_on_c, 4, 62, 66
9, 38993, Note_on_c, 4, 62, 0
9, 39000, Note_on_c, 4, 64, 64
9, 39053, Note_on_c, 4, 64, 0
9, 39060, Note_on_c, 4, 65, 62
9, 39113, Note_on_c, 4, 65, 0
9, 39120, Note_on_c, 4, 67, 60
9, 39173, Note_on_c, 4, 67, 0
9, 39180, Note_on_c, 4, 64, 58
9, 39233, Note_on_c, 4, 64, 0
9, 39240, Note_on_c, 4, 62, 56
9, 39293, Note_on_c, 4, 62, 0
9, 39300, Note_on_c, 4, 60, 54
9, 39353, Note_on_c, 4, 60, 0
9, 39360, Note_on_c, 4, 60, 48
9, 39360, Note_on_c, 4, 48, 48
9, 39829, Note_on_c, 4, 60, 0
9, 39829, Note_on_c, 4, 48, 0
9, 39840, Note_on_c, 4, 60, 48
9, 39840, Note_on_c, 4, 48, 48
9, 40069, Note_on_c, 4, 60, 0
9, 40069, Note_on_c, 4, 48, 0
9, 40080, Note_on_c, 4, 48, 48
9, 40080, Note_on_c, 4, 60, 48
9, 40189, Note_on_c, 4, 48, 0
9, 40189, Note_on_c, 4, 60, 0
9, 40200, Note_on_c, 4, 48, 48
9, 40200, Note_on_c, 4, 60, 48
9, 40309, Note_on_c, 4, 48, 0
9, 40309, Note_on_c, 4, 60, 0
9, 40320, Note_on_c, 4, 48, 48
9, 40320, Note_on_c, 4, 60, 48
9, 40679, Note_on_c, 4, 48, 0
9, 40679, Note_on_c, 4, 60, 0
9, 40740, Note_on_c, 4, 48, 48
9, 40740, Note_on_c, 4, 60, 48
9, 40793, Note_on_c, 4, 48, 0
9, 40793, Note_on_c, 4, 60, 0
9, 40800, Note_on_c, 4, 48, 48
9, 40800, Note_on_c, 4, 60, 48
9, 41159, Note_on_c, 4, 48, 0
9, 41159, Note_on_c, 4, 60, 0
9, 41220, Note_on_c, 4, 48, 48
9, 41220, Note_on_c, 4, 60, 48
9, 41273, Note_on_c, 4, 48, 0
9, 41273, Note_on_c, 4, 60, 0
9, 41280, Note_on_c, 4, 60, 48
9, 41280, Note_on_c, 4, 48, 48
9, 41749, Note_on_c, 4, 60, 0
9, 41749, Note_on_c, 4, 48, 0
9, 41760, Note_on_c, 4, 48, 48
9, 41760, Note_on_c, 4, 60, 48
9, 41989, Note_on_c, 4, 48, 0
9, 41989, Note_on_c, 4, 60, 0
9, 42000, Note_on_c, 4, 60, 48
9, 42000, Note_on_c, 4, 48, 48
9, 42109, Note_on_c, 4, 60, 0
9, 42109, Note_on_c, 4, 48, 0
9, 42120, Note_on_c, 4, 48, 48
9, 42120, Note_on_c, 4, 60, 48
9, 42229, Note_on_c, 4, 48, 0
9, 42229, Note_on_c, 4, 60, 0
9, 42240, Note_on_c, 4, 48, 48
9, 42240, Note_on_c, 4, 60, 48
9, 42479, Note_on_c, 4, 48, 0
9, 42479, Note_on_c, 4, 60, 0
9, 42480, Note_on_c, 4, 45, 48
9, 42480, Note_on_c, 4, 57, 48
9, 42599, Note_on_c, 4, 45, 0
9, 42599, Note_on_c, 4, 57, 0
9, 42660, Note_on_c, 4, 57, 48
9, 42660, Note_on_c, 4, 45, 48
9, 42713, Note_on_c, 4, 57, 0
9, 42713, Note_on_c, 4, 45, 0
9, 42720, Note_on_c, 4, 45, 48
9, 42720, Note_on_c, 4, 57, 48
9, 43079, Note_on_c, 4, 45, 0
9, 43079, Note_on_c, 4, 57, 0
9, 43140, Note_on_c, 4, 45, 48
9, 43140, Note_on_c, 4, 57, 48
9, 43193, Note_on_c, 4, 45, 0
9, 43193, Note_on_c, 4, 57, 0
9, 43200, Note_on_c, 4, 46, 48
9, 43200, Note_on_c, 4, 58, 48
9, 43559, Note_on_c, 4, 46, 0
9, 43559, Note_on_c, 4, 58, 0
9, 43620, Note_on_c, 4, 46, 48
9, 43620, Note_on_c, 4, 58, 48
9, 43673, Note_on_c, 4, 46, 0
9, 43673, Note_on_c, 4, 58, 0
9, 43680, Note_on_c, 4, 46, 48
9, 43680, Note_on_c, 4, 58, 48
9, 44039, Note_on_c, 4, 46, 0
9, 44039, Note_on_c, 4, 58, 0
9, 44100, Note_on_c, 4, 58, 48
9, 44100, Note_on_c, 4, 46, 48
9, 44153, Note_on_c, 4, 58, 0
9, 44153, Note_on_c, 4, 46, 0
9, 44160, Note_on_c, 4, 60, 48
9, 44160, Note_on_c, 4, 48, 48
9, 44519, Note_on_c, 4, 60, 0
9, 44519, Note_on_c, 4, 48, 0
9, 44580, Note_on_c, 4, 60, 48
9, 44580, Note_on_c, 4, 48, 48
9, 44633, Note_on_c, 4, 60, 0
9, 44633, Note_on_c, 4, 48, 0
9, 44640, Note_on_c, 4, 48, 48
9, 44640, Note_on_c, 4, 60, 48
9, 44999, Note_on_c, 4, 48, 0
9, 44999, Note_on_c, 4, 60, 0
9, 45120, Note_on_c, 4, 60, 44
9, 45653, Note_on_c, 4, 60, 0
9, 45660, Note_on_c, 4, 60, 44
9, 45713, Note_on_c, 4, 60, 0
9, 45720, Note_on_c, 4, 60, 44
9, 45773, Note_on_c, 4, 60, 0
9, 45780, Note_on_c, 4, 60, 44
9, 45833, Note_on_c, 4, 60, 0
9, 45840, Note_on_c, 4, 60, 44
9, 45893, Note_on_c, 4, 60, 0
9, 45900, Note_on_c, 4, 60, 44
9, 45953, Note_on_c, 4, 60, 0
9, 45960, Note_on_c, 4, 60, 44
9, 46013, Note_on_c, 4, 60, 0
9, 46020, Note_on_c, 4, 60, 44
9, 46073, Note_on_c, 4, 60, 0
9, 46078, Control_c, 4, 11, 48
9, 46080, Note_on_c, 4, 57, 84
9, 46080, Control_c, 4, 11, 48
9, 46080, Note_on_c, 4, 60, 84
9, 46129, Control_c, 4, 11, 49
9, 46177, Control_c, 4, 11, 50
9, 46226, Control_c, 4, 11, 51
9, 46274, Control_c, 4, 11, 52
9, 46323, Control_c, 4, 11, 53
9, 46372, Control_c, 4, 11, 54
9, 46420, Control_c, 4, 11, 55
9, 46469, Control_c, 4, 11, 56
9, 46517, Control_c, 4, 11, 57
9, 46566, Control_c, 4, 11, 58
9, 46613, Note_on_c, 4, 57, 0
9, 46613, Note_on_c, 4, 60, 0
9, 46615, Control_c, 4, 11, 59
9, 46620, Note_on_c, 4, 57, 84
9, 46620, Note_on_c, 4, 60, 84
9, 46663, Control_c, 4, 11, 60
9, 46673, Note_on_c, 4, 57, 0
9, 46673, Note_on_c, 4, 60, 0
9, 46680, Note_on_c, 4, 60, 84
9, 46680, Note_on_c, 4, 57, 84
9, 46712, Control_c, 4, 11, 61
9, 46733, Note_on_c, 4, 60, 0
9, 46733, Note_on_c, 4, 57, 0
9, 46740, Note_on_c, 4, 60, 84
9, 46740, Note_on_c, 4, 57, 84
9, 46761, Control_c, 4, 11, 62
9, 46793, Note_on_c, 4, 60, 0
9, 46793, Note_on_c, 4, 57, 0
9, 46800, Note_on_c, 4, 57, 84
9, 46800, Note_on_c, 4, 60, 84
9, 46809, Control_c, 4, 11, 63
9, 46853, Note_on_c, 4, 57, 0
9, 46853, Note_on_c, 4, 60, 0
9, 46858, Control_c, 4, 11, 64
9, 46860, Note_on_c, 4, 60, 84
9, 46860, Note_on_c, 4, 57, 84
9, 46906, Control_c, 4, 11, 65
9, 46913, Note_on_c, 4, 60, 0
9, 46913, Note_on_c, 4, 57, 0
9, 46920, Note_on_c, 4, 57, 84
9, 46920, Note_on_c, 4, 60, 84
9, 46955, Control_c, 4, 11, 66
9, 46973, Note_on_c, 4, 57, 0
9, 46973, Note_on_c, 4, 60, 0
9, 46980, Note_on_c, 4, 60, 84
9, 46980, Note_on_c, 4, 57, 84
9, 47004, Control_c, 4, 11, 67
9, 47033, Note_on_c, 4, 60, 0
9, 47033, Note_on_c, 4, 57, 0
9, 47040, Note_on_c, 4, 60, 84
9, 47040, Note_on_c, 4, 57, 84
9, 47052, Control_c, 4, 11, 68
9, 47101, Control_c, 4, 11, 69
9, 47149, Control_c, 4, 11, 70
9, 47198, Control_c, 4, 11, 71
9, 47247, Control_c, 4, 11, 72
9, 47295, Control_c, 4, 11, 73
9, 47344, Control_c, 4, 11, 74
9, 47392, Control_c, 4, 11, 75
9, 47441, Control_c, 4, 11, 76
9, 47490, Control_c, 4, 11, 77
9, 47538, Control_c, 4, 11, 78
9, 47573, Note_on_c, 4, 60, 0
9, 47573, Note_on_c, 4, 57, 0
9, 47580, Note_on_c, 4, 57, 84
9, 47580, Note_on_c, 4, 60, 84
9, 47587, Control_c, 4, 11, 79
9, 47633, Note_on_c, 4, 57, 0
9, 47633, Note_on_c, 4, 60, 0
9, 47635, Control_c, 4, 11, 80
9, 47640, Note_on_c, 4, 57, 84
9, 47640, Note_on_c, 4, 60, 84
9, 47684, Control_c, 4, 11, 81
9, 47693, Note_on_c, 4, 57, 0
9, 47693, Note_on_c, 4, 60, 0
9, 47700, Note_on_c, 4, 57, 84
9, 47700, Note_on_c, 4, 60, 84
9, 47733, Control_c, 4, 11, 82
9, 47753, Note_on_c, 4, 57, 0
9, 47753, Note_on_c, 4, 60, 0
9, 47760, Note_on_c, 4, 60, 84
9, 47760, Note_on_c, 4, 57, 84
9, 47781, Control_c, 4, 11, 83
9, 47813, Note_on_c, 4, 60, 0
9, 47813, Note_on_c, 4, 57, 0
9, 47820, Note_on_c, 4, 60, 84
9, 47820, Note_on_c, 4, 57, 84
9, 47830, Control_c, 4, 11, 84
9, 47873, Note_on_c, 4, 60, 0
9, 47873, Note_on_c, 4, 57, 0
9, 47878, Control_c, 4, 11, 85
9, 47880, Note_on_c, 4, 60, 84
9, 47880, Note_on_c, 4, 57, 84
9, 47927, Control_c, 4, 11, 86
9, 47933, Note_on_c, 4, 60, 0
9, 47933, Note_on_c, 4, 57, 0
9, 47940, Note_on_c, 4, 60, 84
9, 47940, Note_on_c, 4, 57, 84
9, 47976, Control_c, 4, 11, 87
9, 47993, Note_on_c, 4, 60, 0
9, 47993, Note_on_c, 4, 57, 0
9, 48000, Note_on_c, 4, 60, 84
9, 48000, Note_on_c, 4, 57, 84
9, 48024, Control_c, 4, 11, 88
9, 48073, Control_c, 4, 11, 89
9, 48119, Note_on_c, 4, 60, 0
9, 48119, Note_on_c, 4, 57, 0
9, 48122, Control_c, 4, 11, 90
9, 48170, Control_c, 4, 11, 91
9, 48219, Control_c, 4, 11, 92
9, 48240, Note_on_c, 4, 60, 84
9, 48240, Note_on_c, 4, 57, 84
9, 48267, Control_c, 4, 11, 93
9, 48293, Note_on_c, 4, 60, 0
9, 48293, Note_on_c, 4, 57, 0
9, 48300, Note_on_c, 4, 57, 84
9, 48300, Note_on_c, 4, 60, 84
9, 48316, Control_c, 4, 11, 94
9, 48353, Note_on_c, 4, 57, 0
9, 48353, Note_on_c, 4, 60, 0
9, 48360, Note_on_c, 4, 57, 84
9, 48360, Note_on_c, 4, 60, 84
9, 48365, Control_c, 4, 11, 95
9, 48413, Note_on_c, 4, 57, 0
9, 48413, Note_on_c, 4, 60, 0
9, 48413, Control_c, 4, 11, 96
9, 48420, Note_on_c, 4, 57, 84
9, 48420, Note_on_c, 4, 60, 84
9, 48462, Control_c, 4, 11, 97
9, 48473, Note_on_c, 4, 57, 0
9, 48473, Note_on_c, 4, 60, 0
9, 48480, Note_on_c, 4, 57, 84
9, 48480, Note_on_c, 4, 60, 84
9, 48510, Control_c, 4, 11, 98
9, 48559, Control_c, 4, 11, 99
9, 48599, Note_on_c, 4, 57, 0
9, 48599, Note_on_c, 4, 60, 0
9, 48608, Control_c, 4, 11, 100
9, 48656, Control_c, 4, 11, 101
9, 48705, Control_c, 4, 11, 102
9, 48720, Note_on_c, 4, 60, 84
9, 48720, Note_on_c, 4, 57, 84
9, 48753, Control_c, 4, 11, 103
9, 48773, Note_on_c, 4, 60, 0
9, 48773, Note_on_c, 4, 57, 0
9, 48780, Note_on_c, 4, 60, 84
9, 48780, Note_on_c, 4, 57, 84
9, 48802, Control_c, 4, 11, 104
9, 48833, Note_on_c, 4, 60, 0
9, 48833, Note_on_c, 4, 57, 0
9, 48840, Note_on_c, 4, 57, 84
9, 48840, Note_on_c, 4, 60, 84
9, 48851, Control_c, 4, 11, 105
9, 48893, Note_on_c, 4, 57, 0
9, 48893, Note_on_c, 4, 60, 0
9, 48899, Control_c, 4, 11, 106
9, 48900, Note_on_c, 4, 60, 84
9, 48900, Note_on_c, 4, 57, 84
9, 48948, Control_c, 4, 11, 107
9, 48953, Note_on_c, 4, 60, 0
9, 48953, Note_on_c, 4, 57, 0
9, 48960, Note_on_c, 4, 60, 84
9, 48960, Note_on_c, 4, 57, 84
9, 48960, Control_c, 4, 11, 107
9, 48996, Control_c, 4, 11, 108
9, 49045, Control_c, 4, 11, 109
9, 49079, Note_on_c, 4, 60, 0
9, 49079, Note_on_c, 4, 57, 0
9, 49094, Control_c, 4, 11, 110
9, 49142, Control_c, 4, 11, 111
9, 49191, Control_c, 4, 11, 112
9, 49200, Note_on_c, 4, 60, 84
9, 49200, Note_on_c, 4, 57, 84
9, 49239, Control_c, 4, 11, 113
9, 49253, Note_on_c, 4, 60, 0
9, 49253, Note_on_c, 4, 57, 0
9, 49260, Note_on_c, 4, 57, 84
9, 49260, Note_on_c, 4, 60, 84
9, 49288, Control_c, 4, 11, 114
9, 49313, Note_on_c, 4, 57, 0
9, 49313, Note_on_c, 4, 60, 0
9, 49320, Note_on_c, 4, 57, 84
9, 49320, Note_on_c, 4, 60, 84
9, 49337, Control_c, 4, 11, 115
9, 49373, Note_on_c, 4, 57, 0
9, 49373, Note_on_c, 4, 60, 0
9, 49380, Note_on_c, 4, 57, 84
9, 49380, Note_on_c, 4, 60, 84
9, 49385, Control_c, 4, 11, 116
9, 49433, Note_on_c, 4, 57, 0
9, 49433, Note_on_c, 4, 60, 0
9, 49434, Control_c, 4, 11, 117
9, 49440, Note_on_c, 4, 57, 84
9, 49440, Note_on_c, 4, 60, 84
9, 49483, Control_c, 4, 11, 118
9, 49531, Control_c, 4, 11, 119
9, 49559, Note_on_c, 4, 57, 0
9, 49559, Note_on_c, 4, 60, 0
9, 49580, Control_c, 4, 11, 120
9, 49628, Control_c, 4, 11, 121
9, 49677, Control_c, 4, 11, 122
9, 49680, Note_on_c, 4, 60, 84
9, 49680, Note_on_c, 4, 57, 84
9, 49726, Control_c, 4, 11, 123
9, 49733, Note_on_c, 4, 60, 0
9, 49733, Note_on_c, 4, 57, 0
9, 49740, Note_on_c, 4, 60, 84
9, 49740, Note_on_c, 4, 57, 84
9, 49774, Control_c, 4, 11, 124
9, 49793, Note_on_c, 4, 60, 0
9, 49793, Note_on_c, 4, 57, 0
9, 49800, Note_on_c, 4, 57, 84
9, 49800, Note_on_c, 4, 53, 84
9, 49823, Control_c, 4, 11, 125
9, 49853, Note_on_c, 4, 57, 0
9, 49853, Note_on_c, 4, 53, 0
9, 49860, Note_on_c, 4, 53, 84
9, 49860, Note_on_c, 4, 57, 84
9, 49871, Control_c, 4, 11, 127
9, 49913, Note_on_c, 4, 53, 0
9, 49913, Note_on_c, 4, 57, 0
9, 49920, Note_on_c, 4, 52, 84
9, 50039, Note_on_c, 4, 52, 0
9, 50880, Note_on_c, 4, 64, 52
9, 51119, Note_on_c, 4, 64, 0
9, 51120, Note_on_c, 4, 59, 52
9, 51359, Note_on_c, 4, 59, 0
9, 51360, Note_on_c, 4, 52, 52
9, 51599, Note_on_c, 4, 52, 0
9, 51600, Note_on_c, 4, 64, 52
9, 51840, Note_on_c, 4, 52, 84
9, 51959, Note_on_c, 4, 64, 0
9, 51959, Note_on_c, 4, 52, 0
9, 52800, Note_on_c, 4, 64, 52
9, 53039, Note_on_c, 4, 64, 0
9, 53040, Note_on_c, 4, 59, 52
9, 53279, Note_on_c, 4, 59, 0
9, 53280, Note_on_c, 4, 52, 52
9, 53519, Note_on_c, 4, 52, 0
9, 53520, Note_on_c, 4, 64, 52
9, 53879, Note_on_c, 4, 64, 0
9, 60960, Note_on_c, 4, 64, 52
9, 61131, Note_on_c, 4, 64, 0
9, 61140, Note_on_c, 4, 64, 52
9, 61191, Note_on_c, 4, 64, 0
9, 61200, Note_on_c, 4, 64, 52
9, 61304, Note_on_c, 4, 64, 0
9, 61320, Note_on_c, 4, 64, 52
9, 61491, Note_on_c, 4, 64, 0
9, 61500, Note_on_c, 4, 64, 52
9, 61551, Note_on_c, 4, 64, 0
9, 61560, Note_on_c, 4, 64, 52
9, 61664, Note_on_c, 4, 64, 0
9, 61680, Note_on_c, 4, 64, 52
9, 61680, Note_on_c, 4, 61, 52
9, 61851, Note_on_c, 4, 64, 0
9, 61851, Note_on_c, 4, 61, 0
9, 61860, Note_on_c, 4, 61, 56
9, 61860, Note_on_c, 4, 64, 56
9, 61911, Note_on_c, 4, 61, 0
9, 61911, Note_on_c, 4, 64, 0
9, 61920, Note_on_c, 4, 64, 57
9, 61920, Note_on_c, 4, 61, 57
9, 62024, Note_on_c, 4, 64, 0
9, 62024, Note_on_c, 4, 61, 0
9, 62040, Note_on_c, 4, 61, 60
9, 62040, Note_on_c, 4, 64, 60
9, 62211, Note_on_c, 4, 61, 0
9, 62211, Note_on_c, 4, 64, 0
9, 62220, Note_on_c, 4, 61, 64
9, 62220, Note_on_c, 4, 64, 64
9, 62271, Note_on_c, 4, 61, 0
9, 62271, Note_on_c, 4, 64, 0
9, 62280, Note_on_c, 4, 64, 65
9, 62280, Note_on_c, 4, 61, 65
9, 62384, Note_on_c, 4, 64, 0
9, 62384, Note_on_c, 4, 61, 0
9, 62400, Note_on_c, 4, 61, 52
9, 62400, Note_on_c, 4, 64, 52
9, 63104, Note_on_c, 4, 61, 0
9, 63104, Note_on_c, 4, 64, 0
9, 63120, Note_on_c, 4, 59, 52
9, 63120, Note_on_c, 4, 62, 52
9, 63824, Note_on_c, 4, 59, 0
9, 63824, Note_on_c, 4, 62, 0
9, 63840, Note_on_c, 4, 57, 52
9, 63840, Note_on_c, 4, 61, 52
9, 64064, Note_on_c, 4, 57, 0
9, 64064, Note_on_c, 4, 61, 0
9, 64080, Note_on_c, 4, 64, 52
9, 64080, Note_on_c, 4, 61, 52
9, 64184, Note_on_c, 4, 64, 0
9, 64184, Note_on_c, 4, 61, 0
9, 64200, Note_on_c, 4, 61, 52
9, 64200, Note_on_c, 4, 64, 52
9, 64371, Note_on_c, 4, 61, 0
9, 64371, Note_on_c, 4, 64, 0
9, 64380, Note_on_c, 4, 62, 52
9, 64380, Note_on_c, 4, 59, 52
9, 64424, Note_on_c, 4, 62, 0
9, 64424, Note_on_c, 4, 59, 0
9, 64440, Note_on_c, 4, 61, 52
9, 64440, Note_on_c, 4, 57, 52
9, 64529, Note_on_c, 4, 61, 0
9, 64529, Note_on_c, 4, 57, 0
9, 64560, Note_on_c, 4, 61, 52
9, 64560, Note_on_c, 4, 57, 52
9, 64679, Note_on_c, 4, 61, 0
9, 64679, Note_on_c, 4, 57, 0
9, 64680, Note_on_c, 4, 56, 52
9, 64680, Note_on_c, 4, 59, 52
9, 65091, Note_on_c, 4, 56, 0
9, 65091, Note_on_c, 4, 59, 0
9, 65100, Note_on_c, 4, 57, 52
9, 65100, Note_on_c, 4, 61, 52
9, 65144, Note_on_c, 4, 57, 0
9, 65144, Note_on_c, 4, 61, 0
9, 65160, Note_on_c, 4, 62, 52
9, 65160, Note_on_c, 4, 59, 52
9, 65249, Note_on_c, 4, 62, 0
9, 65249, Note_on_c, 4, 59, 0
9, 65280, Note_on_c, 4, 64, 52
9, 65280, Note_on_c, 4, 61, 52
9, 65984, Note_on_c, 4, 64, 0
9, 65984, Note_on_c, 4, 61, 0
9, 66000, Note_on_c, 4, 59, 52
9, 66000, Note_on_c, 4, 62, 52
9, 66704, Note_on_c, 4, 59, 0
9, 66704, Note_on_c, 4, 62, 0
9, 66720, Note_on_c, 4, 61, 52
9, 66720, Note_on_c, 4, 57, 52
9, 66944, Note_on_c, 4, 61, 0
9, 66944, Note_on_c, 4, 57, 0
9, 66960, Note_on_c, 4, 61, 52
9, 66960, Note_on_c, 4, 57, 52
9, 67064, Note_on_c, 4, 61, 0
9, 67064, Note_on_c, 4, 57, 0
9, 67080, Note_on_c, 4, 57, 52
9, 67080, Note_on_c, 4, 61, 52
9, 67199, Note_on_c, 4, 61, 0
9, 67200, Note_on_c, 4, 64, 52
9, 67304, Note_on_c, 4, 57, 0
9, 67304, Note_on_c, 4, 64, 0
9, 67320, Note_on_c, 4, 56, 52
9, 67320, Note_on_c, 4, 62, 52
9, 67409, Note_on_c, 4, 56, 0
9, 67409, Note_on_c, 4, 62, 0
9, 67440, Note_on_c, 4, 61, 52
9, 67440, Note_on_c, 4, 57, 52
9, 67611, Note_on_c, 4, 61, 0
9, 67611, Note_on_c, 4, 57, 0
9, 67620, Note_on_c, 4, 62, 52
9, 67620, Note_on_c, 4, 59, 52
9, 67671, Note_on_c, 4, 62, 0
9, 67671, Note_on_c, 4, 59, 0
9, 67680, Note_on_c, 4, 61, 52
9, 67680, Note_on_c, 4, 64, 52
9, 67784, Note_on_c, 4, 61, 0
9, 67784, Note_on_c, 4, 64, 0
9, 67800, Note_on_c, 4, 62, 52
9, 67800, Note_on_c, 4, 66, 52
9, 67904, Note_on_c, 4, 62, 0
9, 67904, Note_on_c, 4, 66, 0
9, 67920, Note_on_c, 4, 50, 52
9, 67920, Note_on_c, 4, 54, 52
9, 68024, Note_on_c, 4, 50, 0
9, 68024, Note_on_c, 4, 54, 0
9, 68040, Note_on_c, 4, 54, 52
9, 68040, Note_on_c, 4, 50, 52
9, 68144, Note_on_c, 4, 54, 0
9, 68144, Note_on_c, 4, 50, 0
9, 68160, Note_on_c, 4, 54, 52
9, 68160, Note_on_c, 4, 50, 52
9, 68864, Note_on_c, 4, 54, 0
9, 68864, Note_on_c, 4, 50, 0
9, 68880, Note_on_c, 4, 52, 52
9, 68880, Note_on_c, 4, 49, 52
9, 70304, Note_on_c, 4, 52, 0
9, 70304, Note_on_c, 4, 49, 0
9, 70320, Note_on_c, 4, 54, 52
9, 70320, Note_on_c, 4, 50, 52
9, 71024, Note_on_c, 4, 54, 0
9, 71024, Note_on_c, 4, 50, 0
9, 71040, Note_on_c, 4, 49, 52
9, 71040, Note_on_c, 4, 52, 52
9, 72224, Note_on_c, 4, 49, 0
9, 72224, Note_on_c, 4, 52, 0
9, 72240, Note_on_c, 4, 61, 52
9, 72240, Note_on_c, 4, 57, 52
9, 72344, Note_on_c, 4, 61, 0
9, 72344, Note_on_c, 4, 57, 0
9, 72360, Note_on_c, 4, 61, 52
9, 72360, Note_on_c, 4, 57, 52
9, 72464, Note_on_c, 4, 61, 0
9, 72464, Note_on_c, 4, 57, 0
9, 72480, Note_on_c, 4, 56, 52
9, 72480, Note_on_c, 4, 59, 52
9, 72839, Note_on_c, 4, 56, 0
9, 72839, Note_on_c, 4, 59, 0
9, 72840, Note_on_c, 4, 61, 52
9, 72840, Note_on_c, 4, 57, 52
9, 73184, Note_on_c, 4, 61, 0
9, 73184, Note_on_c, 4, 57, 0
9, 73200, Note_on_c, 4, 56, 76
9, 73200, Note_on_c, 4, 59, 76
9, 73240, Control_c, 4, 11, 124
9, 73280, Control_c, 4, 11, 122
9, 73320, Control_c, 4, 11, 119
9, 73360, Control_c, 4, 11, 117
9, 73400, Control_c, 4, 11, 114
9, 73440, Control_c, 4, 11, 111
9, 73480, Control_c, 4, 11, 109
9, 73520, Control_c, 4, 11, 106
9, 73560, Control_c, 4, 11, 104
9, 73600, Control_c, 4, 11, 101
9, 73640, Control_c, 4, 11, 98
9, 73680, Control_c, 4, 11, 96
9, 73720, Control_c, 4, 11, 93
9, 73760, Control_c, 4, 11, 90
9, 73784, Note_on_c, 4, 56, 0
9, 73784, Note_on_c, 4, 59, 0
9, 73800, Control_c, 4, 11, 88
9, 73800, Note_on_c, 4, 57, 76
9, 73800, Note_on_c, 4, 61, 76
9, 73840, Control_c, 4, 11, 85
9, 73880, Control_c, 4, 11, 80
9, 73904, Note_on_c, 4, 57, 0
9, 73904, Note_on_c, 4, 61, 0
9, 73920, Note_on_c, 4, 59, 76
9, 73920, Note_on_c, 4, 56, 76
9, 74264, Note_on_c, 4, 59, 0
9, 74264, Note_on_c, 4, 56, 0
9, 74280, Note_on_c, 4, 61, 76
9, 74280, Note_on_c, 4, 57, 76
9, 74451, Note_on_c, 4, 61, 0
9, 74451, Note_on_c, 4, 57, 0
9, 74460, Note_on_c, 4, 61, 76
9, 74504, Note_on_c, 4, 61, 0
9, 74520, Note_on_c, 4, 57, 76
9, 74609, Note_on_c, 4, 57, 0
9, 74638, Control_c, 4, 11, 127
9, 74640, Note_on_c, 4, 52, 76
9, 75171, Note_on_c, 4, 52, 0
9, 75180, Note_on_c, 4, 49, 76
9, 75224, Note_on_c, 4, 49, 0
9, 75240, Note_on_c, 4, 45, 76
9, 75329, Note_on_c, 4, 45, 0
9, 75360, Note_on_c, 4, 52, 84
9, 75420, Control_c, 4, 11, 112
9, 75891, Note_on_c, 4, 52, 0
9, 75900, Note_on_c, 4, 49, 84
9, 75944, Note_on_c, 4, 49, 0
9, 75960, Note_on_c, 4, 46, 84
9, 76049, Note_on_c, 4, 46, 0
9, 76078, Control_c, 4, 11, 127
9, 76080, Note_on_c, 4, 52, 84
9, 76140, Control_c, 4, 11, 112
9, 76199, Note_on_c, 4, 52, 0
9, 76260, Note_on_c, 4, 50, 84
9, 76311, Note_on_c, 4, 50, 0
9, 76320, Note_on_c, 4, 47, 84
9, 76424, Note_on_c, 4, 47, 0
9, 76438, Control_c, 4, 11, 127
9, 76440, Note_on_c, 4, 56, 84
9, 76500, Control_c, 4, 11, 112
9, 76559, Note_on_c, 4, 56, 0
9, 76620, Note_on_c, 4, 52, 84
9, 76671, Note_on_c, 4, 52, 0
9, 76680, Note_on_c, 4, 50, 84
9, 76784, Note_on_c, 4, 50, 0
9, 76798, Control_c, 4, 11, 127
9, 76800, Note_on_c, 4, 59, 84
9, 76860, Control_c, 4, 11, 112
9, 76919, Note_on_c, 4, 59, 0
9, 76980, Note_on_c, 4, 56, 84
9, 77031, Note_on_c, 4, 56, 0
9, 77040, Note_on_c, 4, 52, 84
9, 77144, Note_on_c, 4, 52, 0
9, 77158, Control_c, 4, 11, 127
9, 77160, Note_on_c, 4, 62, 84
9, 77220, Control_c, 4, 11, 112
9, 77279, Note_on_c, 4, 62, 0
9, 77340, Note_on_c, 4, 59, 84
9, 77391, Note_on_c, 4, 59, 0
9, 77400, Note_on_c, 4, 56, 84
9, 77504, Note_on_c, 4, 56, 0
9, 77518, Control_c, 4, 11, 127
9, 77520, Note_on_c, 4, 62, 76
9, 77520, Note_on_c, 4, 59, 76
9, 77879, Note_on_c, 4, 62, 0
9, 77879, Note_on_c, 4, 59, 0
9, 78240, Note_on_c, 4, 49, 84
9, 78240, Note_on_c, 4, 52, 84
9, 78944, Note_on_c, 4, 49, 0
9, 78944, Note_on_c, 4, 52, 0
9, 78960, Note_on_c, 4, 54, 84
9, 78960, Note_on_c, 4, 50, 84
9, 79544, Note_on_c, 4, 54, 0
9, 79544, Note_on_c, 4, 50, 0
9, 79560, Note_on_c, 4, 47, 84
9, 79560, Note_on_c, 4, 56, 84
9, 79664, Note_on_c, 4, 47, 0
9, 79664, Note_on_c, 4, 56, 0
9, 79680, Note_on_c, 4, 49, 84
9, 79680, Note_on_c, 4, 57, 84
9, 79904, Note_on_c, 4, 49, 0
9, 79904, Note_on_c, 4, 57, 0
9, 79920, Note_on_c, 4, 49, 84
9, 79920, Note_on_c, 4, 57, 84
9, 80024, Note_on_c, 4, 49, 0
9, 80024, Note_on_c, 4, 57, 0
9, 80040, Note_on_c, 4, 57, 84
9, 80040, Note_on_c, 4, 49, 84
9, 80211, Note_on_c, 4, 57, 0
9, 80211, Note_on_c, 4, 49, 0
9, 80220, Note_on_c, 4, 59, 84
9, 80220, Note_on_c, 4, 52, 84
9, 80264, Note_on_c, 4, 59, 0
9, 80264, Note_on_c, 4, 52, 0
9, 80280, Note_on_c, 4, 61, 84
9, 80280, Note_on_c, 4, 57, 84
9, 80369, Note_on_c, 4, 61, 0
9, 80369, Note_on_c, 4, 57, 0
9, 80400, Note_on_c, 4, 61, 84
9, 80400, Note_on_c, 4, 57, 84
9, 80519, Note_on_c, 4, 61, 0
9, 80519, Note_on_c, 4, 57, 0
9, 80520, Note_on_c, 4, 52, 84
9, 80520, Note_on_c, 4, 59, 84
9, 80931, Note_on_c, 4, 52, 0
9, 80931, Note_on_c, 4, 59, 0
9, 80940, Note_on_c, 4, 61, 84
9, 80940, Note_on_c, 4, 57, 84
9, 80984, Note_on_c, 4, 61, 0
9, 80984, Note_on_c, 4, 57, 0
9, 81000, Note_on_c, 4, 59, 84
9, 81000, Note_on_c, 4, 62, 84
9, 81089, Note_on_c, 4, 59, 0
9, 81089, Note_on_c, 4, 62, 0
9, 81120, Note_on_c, 4, 64, 84
9, 81120, Note_on_c, 4, 61, 84
9, 81824, Note_on_c, 4, 64, 0
9, 81824, Note_on_c, 4, 61, 0
9, 81840, Note_on_c, 4, 62, 84
9, 81840, Note_on_c, 4, 66, 84
9, 82424, Note_on_c, 4, 62, 0
9, 82424, Note_on_c, 4, 66, 0
9, 82440, Note_on_c, 4, 62, 84
9, 82440, Note_on_c, 4, 59, 84
9, 82544, Note_on_c, 4, 62, 0
9, 82544, Note_on_c, 4, 59, 0
9, 82560, Note_on_c, 4, 57, 84
9, 82560, Note_on_c, 4, 61, 84
9, 82784, Note_on_c, 4, 57, 0
9, 82784, Note_on_c, 4, 61, 0
9, 82800, Note_on_c, 4, 57, 84
9, 82800, Note_on_c, 4, 61, 84
9, 82904, Note_on_c, 4, 57, 0
9, 82904, Note_on_c, 4, 61, 0
9, 82920, Note_on_c, 4, 61, 84
9, 82920, Note_on_c, 4, 57, 84
9, 83144, Note_on_c, 4, 61, 0
9, 83144, Note_on_c, 4, 57, 0
9, 83160, Note_on_c, 4, 62, 84
9, 83160, Note_on_c, 4, 56, 84
9, 83249, Note_on_c, 4, 62, 0
9, 83249, Note_on_c, 4, 56, 0
9, 83280, Note_on_c, 4, 61, 84
9, 83280, Note_on_c, 4, 57, 84
9, 83519, Note_on_c, 4, 61, 0
9, 83519, Note_on_c, 4, 57, 0
9, 83880, Note_on_c, 4, 57, 84
9, 83984, Note_on_c, 4, 57, 0
9, 84000, Note_on_c, 4, 57, 84
9, 84224, Note_on_c, 4, 57, 0
9, 84240, Note_on_c, 4, 57, 84
9, 84344, Note_on_c, 4, 57, 0
9, 84360, Note_on_c, 4, 57, 84
9, 84531, Note_on_c, 4, 57, 0
9, 84540, Note_on_c, 4, 62, 84
9, 84584, Note_on_c, 4, 62, 0
9, 84600, Note_on_c, 4, 66, 84
9, 84689, Note_on_c, 4, 66, 0
9, 84720, Note_on_c, 4, 66, 84
9, 84839, Note_on_c, 4, 66, 0
9, 84840, Note_on_c, 4, 64, 84
9, 84944, Note_on_c, 4, 64, 0
9, 84960, Note_on_c, 4, 61, 84
9, 85049, Note_on_c, 4, 61, 0
9, 85080, Note_on_c, 4, 57, 84
9, 85304, Note_on_c, 4, 57, 0
9, 85320, Note_on_c, 4, 57, 84
9, 85424, Note_on_c, 4, 57, 0
9, 85440, Note_on_c, 4, 57, 84
9, 85611, Note_on_c, 4, 57, 0
9, 85620, Note_on_c, 4, 62, 84
9, 85664, Note_on_c, 4, 62, 0
9, 85680, Note_on_c, 4, 57, 84
9, 85769, Note_on_c, 4, 57, 0
9, 85800, Note_on_c, 4, 57, 84
9, 85971, Note_on_c, 4, 57, 0
9, 85980, Note_on_c, 4, 62, 84
9, 86024, Note_on_c, 4, 62, 0
9, 86040, Note_on_c, 4, 66, 84
9, 86129, Note_on_c, 4, 66, 0
9, 86160, Note_on_c, 4, 66, 84
9, 86279, Note_on_c, 4, 66, 0
9, 86280, Note_on_c, 4, 64, 84
9, 86384, Note_on_c, 4, 64, 0
9, 86400, Note_on_c, 4, 61, 84
9, 86489, Note_on_c, 4, 61, 0
9, 86520, Note_on_c, 4, 57, 84
9, 86744, Note_on_c, 4, 57, 0
9, 87120, Note_on_c, 4, 64, 55
9, 87224, Note_on_c, 4, 64, 0
9, 87240, Note_on_c, 4, 66, 56
9, 87359, Note_on_c, 4, 66, 0
9, 87360, Note_on_c, 4, 64, 56
9, 87464, Note_on_c, 4, 64, 0
9, 87480, Note_on_c, 4, 61, 57
9, 87569, Note_on_c, 4, 61, 0
9, 87840, Note_on_c, 4, 66, 59
9, 87944, Note_on_c, 4, 66, 0
9, 87960, Note_on_c, 4, 67, 60
9, 88079, Note_on_c, 4, 67, 0
9, 88080, Note_on_c, 4, 66, 60
9, 88184, Note_on_c, 4, 66, 0
9, 88200, Note_on_c, 4, 62, 61
9, 88289, Note_on_c, 4, 62, 0
9, 88560, Note_on_c, 4, 62, 63
9, 88664, Note_on_c, 4, 62, 0
9, 88680, Note_on_c, 4, 64, 63
9, 88799, Note_on_c, 4, 64, 0
9, 88800, Note_on_c, 4, 62, 64
9, 88904, Note_on_c, 4, 62, 0
9, 88920, Note_on_c, 4, 59, 64
9, 89009, Note_on_c, 4, 59, 0
9, 89280, Note_on_c, 4, 64, 66
9, 89384, Note_on_c, 4, 64, 0
9, 89400, Note_on_c, 4, 66, 67
9, 89519, Note_on_c, 4, 66, 0
9, 89520, Note_on_c, 4, 64, 68
9, 89624, Note_on_c, 4, 64, 0
9, 89640, Note_on_c, 4, 61, 68
9, 89729, Note_on_c, 4, 61, 0
9, 90000, Note_on_c, 4, 64, 70
9, 90104, Note_on_c, 4, 64, 0
9, 90120, Note_on_c, 4, 66, 71
9, 90239, Note_on_c, 4, 66, 0
9, 90240, Note_on_c, 4, 64, 71
9, 90344, Note_on_c, 4, 64, 0
9, 90360, Note_on_c, 4, 61, 72
9, 90449, Note_on_c, 4, 61, 0
9, 90480, Note_on_c, 4, 67, 72
9, 90599, Note_on_c, 4, 67, 0
9, 90600, Note_on_c, 4, 66, 73
9, 90704, Note_on_c, 4, 66, 0
9, 90720, Note_on_c, 4, 62, 74
9, 90809, Note_on_c, 4, 62, 0
9, 90840, Note_on_c, 4, 67, 74
9, 90959, Note_on_c, 4, 67, 0
9, 90960, Note_on_c, 4, 66, 75
9, 91064, Note_on_c, 4, 66, 0
9, 91080, Note_on_c, 4, 62, 76
9, 91169, Note_on_c, 4, 62, 0
9, 91200, Note_on_c, 4, 61, 76
9, 91319, Note_on_c, 4, 61, 0
9, 91320, Note_on_c, 4, 59, 77
9, 91424, Note_on_c, 4, 59, 0
9, 91440, Note_on_c, 4, 56, 77
9, 91529, Note_on_c, 4, 56, 0
9, 91560, Note_on_c, 4, 61, 78
9, 91679, Note_on_c, 4, 61, 0
9, 91680, Note_on_c, 4, 59, 79
9, 91784, Note_on_c, 4, 59, 0
9, 91800, Note_on_c, 4, 56, 79
9, 91889, Note_on_c, 4, 56, 0
9, 91920, Note_on_c, 4, 62, 80
9, 92039, Note_on_c, 4, 62, 0
9, 92040, Note_on_c, 4, 61, 80
9, 92144, Note_on_c, 4, 61, 0
9, 92160, Note_on_c, 4, 57, 81
9, 92249, Note_on_c, 4, 57, 0
9, 92280, Note_on_c, 4, 62, 82
9, 92399, Note_on_c, 4, 62, 0
9, 92400, Note_on_c, 4, 61, 82
9, 92504, Note_on_c, 4, 61, 0
9, 92520, Note_on_c, 4, 57, 83
9, 92609, Note_on_c, 4, 57, 0
9, 92640, Note_on_c, 4, 64, 84
9, 92640, Note_on_c, 4, 61, 84
9, 93344, Note_on_c, 4, 64, 0
9, 93344, Note_on_c, 4, 61, 0
9, 93360, Note_on_c, 4, 63, 84
9, 93360, Note_on_c, 4, 59, 84
9, 93824, Note_on_c, 4, 63, 0
9, 93824, Note_on_c, 4, 59, 0
9, 93840, Note_on_c, 4, 59, 52
9, 93840, Note_on_c, 4, 63, 52
9, 93944, Note_on_c, 4, 59, 0
9, 93944, Note_on_c, 4, 63, 0
9, 93960, Note_on_c, 4, 63, 52
9, 93960, Note_on_c, 4, 59, 52
9, 94064, Note_on_c, 4, 63, 0
9, 94064, Note_on_c, 4, 59, 0
9, 94080, Note_on_c, 4, 61, 52
9, 94080, Note_on_c, 4, 57, 52
9, 94199, Note_on_c, 4, 61, 0
9, 94199, Note_on_c, 4, 57, 0
9, 94320, Note_on_c, 4, 57, 52
9, 94320, Note_on_c, 4, 61, 52
9, 94424, Note_on_c, 4, 57, 0
9, 94424, Note_on_c, 4, 61, 0
9, 94440, Note_on_c, 4, 61, 52
9, 94440, Note_on_c, 4, 57, 52
9, 94559, Note_on_c, 4, 61, 0
9, 94559, Note_on_c, 4, 57, 0
9, 94680, Note_on_c, 4, 57, 52
9, 94680, Note_on_c, 4, 61, 52
9, 94784, Note_on_c, 4, 57, 0
9, 94784, Note_on_c, 4, 61, 0
9, 94800, Note_on_c, 4, 56, 52
9, 95039, Note_on_c, 4, 56, 0
9, 96840, Control_c, 4, 11, 80
9, 96960, Control_c, 4, 11, 80
9, 96960, Note_on_c, 4, 56, 76
9, 96960, Note_on_c, 4, 64, 76
9, 97000, Control_c, 4, 11, 83
9, 97040, Control_c, 4, 11, 85
9, 97080, Control_c, 4, 11, 88
9, 97120, Control_c, 4, 11, 90
9, 97160, Control_c, 4, 11, 93
9, 97200, Control_c, 4, 11, 96
9, 97240, Control_c, 4, 11, 98
9, 97280, Control_c, 4, 11, 101
9, 97319, Note_on_c, 4, 64, 0
9, 97320, Control_c, 4, 11, 104
9, 97320, Note_on_c, 4, 61, 76
9, 97360, Control_c, 4, 11, 106
9, 97400, Control_c, 4, 11, 109
9, 97440, Control_c, 4, 11, 111
9, 97480, Control_c, 4, 11, 114
9, 97520, Control_c, 4, 11, 117
9, 97560, Control_c, 4, 11, 119
9, 97600, Control_c, 4, 11, 122
9, 97640, Control_c, 4, 11, 127
9, 97664, Note_on_c, 4, 56, 0
9, 97664, Note_on_c, 4, 61, 0
9, 97680, Note_on_c, 4, 58, 76
9, 97680, Note_on_c, 4, 55, 76
9, 97904, Note_on_c, 4, 58, 0
9, 97904, Note_on_c, 4, 55, 0
9, 97920, Note_on_c, 4, 51, 52
9, 98024, Note_on_c, 4, 51, 0
9, 98040, Note_on_c, 4, 51, 52
9, 98174, Note_on_c, 4, 51, 0
9, 98220, Note_on_c, 4, 55, 52
9, 98264, Note_on_c, 4, 55, 0
9, 98280, Note_on_c, 4, 58, 52
9, 98369, Note_on_c, 4, 58, 0
9, 98400, Note_on_c, 4, 59, 52
9, 98579, Note_on_c, 4, 59, 0
9, 98640, Note_on_c, 4, 59, 52
9, 98744, Note_on_c, 4, 59, 0
9, 98760, Note_on_c, 4, 59, 52
9, 98894, Note_on_c, 4, 59, 0
9, 98940, Note_on_c, 4, 58, 52
9, 98984, Note_on_c, 4, 58, 0
9, 99000, Note_on_c, 4, 56, 52
9, 99089, Note_on_c, 4, 56, 0
9, 99120, Note_on_c, 4, 55, 52
9, 99359, Note_on_c, 4, 55, 0
9, 99600, Control_c, 4, 11, 80
9, 99720, Note_on_c, 4, 58, 76
9, 99839, Note_on_c, 4, 58, 0
9, 99840, Note_on_c, 4, 47, 76
9, 99840, Control_c, 4, 11, 80
9, 99840, Note_on_c, 4, 59, 76
9, 99880, Control_c, 4, 11, 83
9, 99920, Control_c, 4, 11, 85
9, 99960, Control_c, 4, 11, 88
9, 100000, Control_c, 4, 11, 90
9, 100040, Control_c, 4, 11, 93
9, 100064, Note_on_c, 4, 47, 0
9, 100064, Note_on_c, 4, 59, 0
9, 100080, Control_c, 4, 11, 96
9, 100080, Note_on_c, 4, 47, 76
9, 100080, Note_on_c, 4, 59, 76
9, 100120, Control_c, 4, 11, 98
9, 100160, Control_c, 4, 11, 101
9, 100184, Note_on_c, 4, 47, 0
9, 100184, Note_on_c, 4, 59, 0
9, 100200, Note_on_c, 4, 59, 76
9, 100200, Control_c, 4, 11, 104
9, 100200, Note_on_c, 4, 47, 76
9, 100240, Control_c, 4, 11, 106
9, 100280, Control_c, 4, 11, 109
9, 100320, Control_c, 4, 11, 111
9, 100360, Control_c, 4, 11, 114
9, 100400, Control_c, 4, 11, 117
9, 100424, Note_on_c, 4, 59, 0
9, 100424, Note_on_c, 4, 47, 0
9, 100440, Note_on_c, 4, 47, 76
9, 100440, Note_on_c, 4, 59, 76
9, 100440, Control_c, 4, 11, 119
9, 100480, Control_c, 4, 11, 122
9, 100520, Control_c, 4, 11, 127
9, 100544, Note_on_c, 4, 47, 0
9, 100544, Note_on_c, 4, 59, 0
9, 100560, Note_on_c, 4, 47, 76
9, 100560, Note_on_c, 4, 59, 76
9, 101504, Note_on_c, 4, 47, 0
9, 101504, Note_on_c, 4, 59, 0
9, 101520, Note_on_c, 4, 59, 76
9, 101520, Note_on_c, 4, 47, 76
9, 101624, Note_on_c, 4, 59, 0
9, 101624, Note_on_c, 4, 47, 0
9, 101640, Note_on_c, 4, 47, 76
9, 101640, Note_on_c, 4, 59, 76
9, 101864, Note_on_c, 4, 47, 0
9, 101864, Note_on_c, 4, 59, 0
9, 101880, Note_on_c, 4, 47, 76
9, 101880, Note_on_c, 4, 59, 76
9, 101984, Note_on_c, 4, 47, 0
9, 101984, Note_on_c, 4, 59, 0
9, 102000, Note_on_c, 4, 47, 76
9, 102000, Note_on_c, 4, 59, 76
9, 102839, Note_on_c, 4, 47, 0
9, 102839, Note_on_c, 4, 59, 0
9, 102840, Note_on_c, 4, 49, 76
9, 102840, Note_on_c, 4, 57, 76
9, 103304, Note_on_c, 4, 49, 0
9, 103304, Note_on_c, 4, 57, 0
9, 103320, Note_on_c, 4, 48, 76
9, 103320, Note_on_c, 4, 60, 76
9, 103424, Note_on_c, 4, 48, 0
9, 103424, Note_on_c, 4, 60, 0
9, 103440, Note_on_c, 4, 47, 76
9, 103440, Note_on_c, 4, 59, 76
9, 103544, Note_on_c, 4, 47, 0
9, 103544, Note_on_c, 4, 59, 0
9, 103560, Note_on_c, 4, 54, 76
9, 103560, Note_on_c, 4, 57, 76
9, 103679, Note_on_c, 4, 54, 0
9, 103679, Note_on_c, 4, 57, 0
9, 103800, Note_on_c, 4, 57, 76
9, 103800, Note_on_c, 4, 54, 76
9, 103904, Note_on_c, 4, 57, 0
9, 103904, Note_on_c, 4, 54, 0
9, 103920, Note_on_c, 4, 54, 76
9, 103920, Note_on_c, 4, 57, 76
9, 104039, Note_on_c, 4, 54, 0
9, 104039, Note_on_c, 4, 57, 0
9, 104160, Note_on_c, 4, 52, 76
9, 104160, Note_on_c, 4, 56, 76
9, 104264, Note_on_c, 4, 52, 0
9, 104264, Note_on_c, 4, 56, 0
9, 104280, Note_on_c, 4, 56, 76
9, 104280, Note_on_c, 4, 52, 76
9, 104399, Note_on_c, 4, 56, 0
9, 104399, Note_on_c, 4, 52, 0
9, 104520, Note_on_c, 4, 52, 76
9, 104520, Note_on_c, 4, 56, 76
9, 104624, Note_on_c, 4, 52, 0
9, 104624, Note_on_c, 4, 56, 0
9, 104640, Note_on_c, 4, 56, 76
9, 104640, Note_on_c, 4, 52, 76
9, 104759, Note_on_c, 4, 56, 0
9, 104759, Note_on_c, 4, 52, 0
9, 104880, Note_on_c, 4, 57, 76
9, 104880, Note_on_c, 4, 54, 76
9, 104984, Note_on_c, 4, 57, 0
9, 104984, Note_on_c, 4, 54, 0
9, 105000, Note_on_c, 4, 57, 76
9, 105000, Note_on_c, 4, 54, 76
9, 105119, Note_on_c, 4, 57, 0
9, 105119, Note_on_c, 4, 54, 0
9, 105240, Note_on_c, 4, 54, 76
9, 105240, Note_on_c, 4, 57, 76
9, 105344, Note_on_c, 4, 54, 0
9, 105344, Note_on_c, 4, 57, 0
9, 105360, Note_on_c, 4, 54, 76
9, 105360, Note_on_c, 4, 57, 76
9, 105479, Note_on_c, 4, 54, 0
9, 105479, Note_on_c, 4, 57, 0
9, 105600, Note_on_c, 4, 56, 76
9, 105600, Note_on_c, 4, 52, 76
9, 105704, Note_on_c, 4, 56, 0
9, 105704, Note_on_c, 4, 52, 0
9, 105720, Note_on_c, 4, 56, 76
9, 105720, Note_on_c, 4, 52, 76
9, 105839, Note_on_c, 4, 56, 0
9, 105839, Note_on_c, 4, 52, 0
9, 105960, Note_on_c, 4, 52, 76
9, 105960, Note_on_c, 4, 56, 76
9, 106064, Note_on_c, 4, 52, 0
9, 106064, Note_on_c, 4, 56, 0
9, 106080, Note_on_c, 4, 52, 76
9, 106080, Note_on_c, 4, 56, 76
9, 106199, Note_on_c, 4, 52, 0
9, 106199, Note_on_c, 4, 56, 0
9, 107040, Note_on_c, 4, 59, 52
9, 107639, Note_on_c, 4, 59, 0
9, 107640, Note_on_c, 4, 54, 52
9, 107744, Note_on_c, 4, 54, 0
9, 107760, Note_on_c, 4, 52, 48
9, 108104, Note_on_c, 4, 52, 0
9, 108120, Note_on_c, 4, 56, 48
9, 108120, Note_on_c, 4, 52, 48
9, 108291, Note_on_c, 4, 56, 0
9, 108291, Note_on_c, 4, 52, 0
9, 108300, Note_on_c, 4, 47, 48
9, 108300, Note_on_c, 4, 52, 48
9, 108351, Note_on_c, 4, 47, 0
9, 108351, Note_on_c, 4, 52, 0
9, 108360, Note_on_c, 4, 52, 48
9, 108360, Note_on_c, 4, 47, 48
9, 108464, Note_on_c, 4, 52, 0
9, 108464, Note_on_c, 4, 47, 0
9, 108480, Note_on_c, 4, 57, 48
9, 108480, Note_on_c, 4, 54, 48
9, 108651, Note_on_c, 4, 57, 0
9, 108651, Note_on_c, 4, 54, 0
9, 108660, Note_on_c, 4, 47, 48
9, 108660, Note_on_c, 4, 54, 48
9, 108711, Note_on_c, 4, 47, 0
9, 108711, Note_on_c, 4, 54, 0
9, 108720, Note_on_c, 4, 47, 48
9, 108720, Note_on_c, 4, 54, 48
9, 108824, Note_on_c, 4, 47, 0
9, 108824, Note_on_c, 4, 54, 0
9, 108840, Note_on_c, 4, 56, 48
9, 108840, Note_on_c, 4, 59, 48
9, 109544, Note_on_c, 4, 56, 0
9, 109544, Note_on_c, 4, 59, 0
9, 109560, Note_on_c, 4, 64, 48
9, 109560, Note_on_c, 4, 59, 48
9, 109731, Note_on_c, 4, 64, 0
9, 109731, Note_on_c, 4, 59, 0
9, 109740, Note_on_c, 4, 59, 48
9, 109740, Note_on_c, 4, 56, 48
9, 109791, Note_on_c, 4, 59, 0
9, 109791, Note_on_c, 4, 56, 0
9, 109800, Note_on_c, 4, 59, 48
9, 109800, Note_on_c, 4, 56, 48
9, 109904, Note_on_c, 4, 59, 0
9, 109904, Note_on_c, 4, 56, 0
9, 109920, Note_on_c, 4, 56, 48
9, 109920, Note_on_c, 4, 59, 48
9, 110091, Note_on_c, 4, 56, 0
9, 110091, Note_on_c, 4, 59, 0
9, 110100, Note_on_c, 4, 52, 48
9, 110100, Note_on_c, 4, 56, 48
9, 110151, Note_on_c, 4, 52, 0
9, 110151, Note_on_c, 4, 56, 0
9, 110160, Note_on_c, 4, 52, 48
9, 110160, Note_on_c, 4, 56, 48
9, 110264, Note_on_c, 4, 52, 0
9, 110264, Note_on_c, 4, 56, 0
9, 110280, Note_on_c, 4, 56, 48
9, 110280, Note_on_c, 4, 52, 48
9, 110399, Note_on_c, 4, 56, 0
9, 110399, Note_on_c, 4, 52, 0
9, 110400, Note_on_c, 4, 57, 48
9, 110400, Note_on_c, 4, 54, 48
9, 110504, Note_on_c, 4, 57, 0
9, 110504, Note_on_c, 4, 54, 0
9, 110520, Note_on_c, 4, 51, 48
9, 110520, Note_on_c, 4, 54, 48
9, 110609, Note_on_c, 4, 51, 0
9, 110609, Note_on_c, 4, 54, 0
9, 110640, Note_on_c, 4, 64, 76
9, 110640, Note_on_c, 4, 52, 76
9, 110744, Note_on_c, 4, 64, 0
9, 110744, Note_on_c, 4, 52, 0
9, 110760, Note_on_c, 4, 52, 76
9, 110760, Note_on_c, 4, 64, 76
9, 110864, Note_on_c, 4, 52, 0
9, 110864, Note_on_c, 4, 64, 0
9, 110880, Note_on_c, 4, 64, 76
9, 110880, Note_on_c, 4, 52, 76
9, 110984, Note_on_c, 4, 64, 0
9, 110984, Note_on_c, 4, 52, 0
9, 111000, Note_on_c, 4, 52, 76
9, 111000, Note_on_c, 4, 64, 76
9, 111104, Note_on_c, 4, 52, 0
9, 111104, Note_on_c, 4, 64, 0
9, 111120, Note_on_c, 4, 64, 76
9, 111120, Note_on_c, 4, 52, 76
9, 111224, Note_on_c, 4, 64, 0
9, 111224, Note_on_c, 4, 52, 0
9, 111240, Note_on_c, 4, 52, 76
9, 111240, Note_on_c, 4, 64, 76
9, 111344, Note_on_c, 4, 52, 0
9, 111344, Note_on_c, 4, 64, 0
9, 111360, Note_on_c, 4, 64, 76
9, 111360, Note_on_c, 4, 52, 76
9, 111464, Note_on_c, 4, 64, 0
9, 111464, Note_on_c, 4, 52, 0
9, 111480, Note_on_c, 4, 64, 76
9, 111480, Note_on_c, 4, 52, 76
9, 111584, Note_on_c, 4, 64, 0
9, 111584, Note_on_c, 4, 52, 0
9, 111600, Note_on_c, 4, 52, 76
9, 111600, Note_on_c, 4, 64, 76
9, 111704, Note_on_c, 4, 52, 0
9, 111704, Note_on_c, 4, 64, 0
9, 111720, Note_on_c, 4, 67, 76
9, 111720, Note_on_c, 4, 55, 76
9, 111824, Note_on_c, 4, 67, 0
9, 111824, Note_on_c, 4, 55, 0
9, 111840, Note_on_c, 4, 55, 76
9, 111840, Note_on_c, 4, 67, 76
9, 111944, Note_on_c, 4, 55, 0
9, 111944, Note_on_c, 4, 67, 0
9, 111960, Note_on_c, 4, 67, 76
9, 111960, Note_on_c, 4, 55, 76
9, 112064, Note_on_c, 4, 67, 0
9, 112064, Note_on_c, 4, 55, 0
9, 112080, Note_on_c, 4, 60, 76
9, 112080, Note_on_c, 4, 48, 76
9, 112319, Note_on_c, 4, 60, 0
9, 112319, Note_on_c, 4, 48, 0
9, 114780, Note_on_c, 4, 55, 52
9, 114831, Note_on_c, 4, 55, 0
9, 114840, Note_on_c, 4, 55, 52
9, 114944, Note_on_c, 4, 55, 0
9, 114960, Note_on_c, 4, 60, 52
9, 115199, Note_on_c, 4, 60, 0
9, 115680, Note_on_c, 4, 60, 44
9, 115919, Note_on_c, 4, 60, 0
9, 120960, Note_on_c, 4, 57, 54
9, 121019, Note_on_c, 4, 57, 0
9, 121020, Note_on_c, 4, 59, 55
9, 121079, Note_on_c, 4, 59, 0
9, 121080, Note_on_c, 4, 61, 56
9, 121319, Note_on_c, 4, 61, 0
9, 123120, Note_on_c, 4, 63, 78
9, 123179, Note_on_c, 4, 63, 0
9, 123180, Note_on_c, 4, 64, 79
9, 123239, Note_on_c, 4, 64, 0
9, 123240, Note_on_c, 4, 66, 80
9, 123329, Note_on_c, 4, 66, 0
9, 123480, Note_on_c, 4, 61, 82
9, 123480, Note_on_c, 4, 64, 82
9, 123539, Note_on_c, 4, 61, 0
9, 123539, Note_on_c, 4, 64, 0
9, 123540, Note_on_c, 4, 66, 83
9, 123540, Note_on_c, 4, 63, 83
9, 123599, Note_on_c, 4, 66, 0
9, 123599, Note_on_c, 4, 63, 0
9, 123600, Note_on_c, 4, 68, 84
9, 123600, Note_on_c, 4, 64, 84
9, 124664, Note_on_c, 4, 68, 0
9, 124664, Note_on_c, 4, 64, 0
9, 124680, Note_on_c, 4, 68, 84
9, 124680, Note_on_c, 4, 64, 84
9, 124851, Note_on_c, 4, 68, 0
9, 124851, Note_on_c, 4, 64, 0
9, 124860, Note_on_c, 4, 68, 84
9, 124860, Note_on_c, 4, 64, 84
9, 124911, Note_on_c, 4, 68, 0
9, 124911, Note_on_c, 4, 64, 0
9, 124920, Note_on_c, 4, 64, 84
9, 124920, Note_on_c, 4, 68, 84
9, 125024, Note_on_c, 4, 64, 0
9, 125024, Note_on_c, 4, 68, 0
9, 125040, Note_on_c, 4, 66, 84
9, 125040, Note_on_c, 4, 64, 84
9, 126104, Note_on_c, 4, 66, 0
9, 126104, Note_on_c, 4, 64, 0
9, 126120, Note_on_c, 4, 66, 84
9, 126120, Note_on_c, 4, 64, 84
9, 126291, Note_on_c, 4, 66, 0
9, 126291, Note_on_c, 4, 64, 0
9, 126300, Note_on_c, 4, 66, 84
9, 126300, Note_on_c, 4, 64, 84
9, 126351, Note_on_c, 4, 66, 0
9, 126351, Note_on_c, 4, 64, 0
9, 126360, Note_on_c, 4, 66, 84
9, 126360, Note_on_c, 4, 64, 84
9, 126464, Note_on_c, 4, 66, 0
9, 126464, Note_on_c, 4, 64, 0
9, 126478, Control_c, 4, 11, 48
9, 126480, Note_on_c, 4, 65, 84
9, 126839, Note_on_c, 4, 65, 0
9, 126840, Note_on_c, 4, 60, 84
9, 127199, Note_on_c, 4, 60, 0
9, 127200, Control_c, 4, 11, 48
9, 127200, Note_on_c, 4, 51, 84
9, 127240, Control_c, 4, 11, 52
9, 127280, Control_c, 4, 11, 57
9, 127320, Control_c, 4, 11, 61
9, 127360, Control_c, 4, 11, 66
9, 127400, Control_c, 4, 11, 70
9, 127440, Control_c, 4, 11, 74
9, 127480, Control_c, 4, 11, 79
9, 127520, Control_c, 4, 11, 83
9, 127544, Note_on_c, 4, 51, 0
9, 127560, Note_on_c, 4, 59, 84
9, 127560, Control_c, 4, 11, 88
9, 127600, Control_c, 4, 11, 92
9, 127640, Control_c, 4, 11, 96
9, 127664, Note_on_c, 4, 59, 0
9, 127680, Control_c, 4, 11, 101
9, 127680, Note_on_c, 4, 61, 84
9, 127720, Control_c, 4, 11, 105
9, 127731, Note_on_c, 4, 61, 0
9, 127740, Note_on_c, 4, 63, 84
9, 127760, Control_c, 4, 11, 109
9, 127791, Note_on_c, 4, 63, 0
9, 127800, Note_on_c, 4, 64, 84
9, 127800, Control_c, 4, 11, 114
9, 127840, Control_c, 4, 11, 118
9, 127851, Note_on_c, 4, 64, 0
9, 127860, Note_on_c, 4, 66, 84
9, 127880, Control_c, 4, 11, 127
9, 127911, Note_on_c, 4, 66, 0
9, 127920, Note_on_c, 4, 64, 84
9, 127920, Note_on_c, 4, 68, 84
9, 128984, Note_on_c, 4, 64, 0
9, 128984, Note_on_c, 4, 68, 0
9, 129000, Note_on_c, 4, 64, 84
9, 129000, Note_on_c, 4, 68, 84
9, 129171, Note_on_c, 4, 64, 0
9, 129171, Note_on_c, 4, 68, 0
9, 129180, Note_on_c, 4, 64, 84
9, 129180, Note_on_c, 4, 68, 84
9, 129231, Note_on_c, 4, 64, 0
9, 129231, Note_on_c, 4, 68, 0
9, 129240, Note_on_c, 4, 64, 84
9, 129240, Note_on_c, 4, 68, 84
9, 129344, Note_on_c, 4, 64, 0
9, 129344, Note_on_c, 4, 68, 0
9, 129360, Note_on_c, 4, 66, 84
9, 129360, Note_on_c, 4, 64, 84
9, 130424, Note_on_c, 4, 66, 0
9, 130424, Note_on_c, 4, 64, 0
9, 130440, Note_on_c, 4, 64, 84
9, 130440, Note_on_c, 4, 66, 84
9, 130611, Note_on_c, 4, 64, 0
9, 130611, Note_on_c, 4, 66, 0
9, 130620, Note_on_c, 4, 66, 84
9, 130620, Note_on_c, 4, 64, 84
9, 130671, Note_on_c, 4, 66, 0
9, 130671, Note_on_c, 4, 64, 0
9, 130680, Note_on_c, 4, 64, 84
9, 130680, Note_on_c, 4, 66, 84
9, 130784, Note_on_c, 4, 64, 0
9, 130784, Note_on_c, 4, 66, 0
9, 130800, Control_c, 4, 11, 48
9, 131160, Note_on_c, 4, 65, 84
9, 131519, Note_on_c, 4, 65, 0
9, 131520, Note_on_c, 4, 63, 84
9, 131520, Control_c, 4, 11, 48
9, 131560, Control_c, 4, 11, 52
9, 131600, Control_c, 4, 11, 57
9, 131640, Control_c, 4, 11, 61
9, 131680, Control_c, 4, 11, 66
9, 131720, Control_c, 4, 11, 70
9, 131760, Control_c, 4, 11, 74
9, 131800, Control_c, 4, 11, 79
9, 131840, Control_c, 4, 11, 83
9, 131880, Control_c, 4, 11, 88
9, 131920, Control_c, 4, 11, 92
9, 131960, Control_c, 4, 11, 96
9, 132000, Control_c, 4, 11, 101
9, 132040, Control_c, 4, 11, 105
9, 132080, Control_c, 4, 11, 109
9, 132104, Note_on_c, 4, 63, 0
9, 132120, Note_on_c, 4, 59, 84
9, 132120, Control_c, 4, 11, 114
9, 132160, Control_c, 4, 11, 118
9, 132200, Control_c, 4, 11, 123
9, 132209, Note_on_c, 4, 59, 0
9, 132238, Control_c, 4, 11, 127
9, 132240, Note_on_c, 4, 59, 84
9, 132771, Note_on_c, 4, 59, 0
9, 132780, Note_on_c, 4, 57, 84
9, 132831, Note_on_c, 4, 57, 0
9, 132840, Note_on_c, 4, 56, 84
9, 132921, Note_on_c, 4, 56, 0
9, 132930, Note_on_c, 4, 56, 84
9, 132959, Note_on_c, 4, 56, 0
9, 132960, Note_on_c, 4, 57, 92
9, 133020, Control_c, 4, 11, 112
9, 133491, Note_on_c, 4, 57, 0
9, 133500, Note_on_c, 4, 57, 92
9, 133500, Note_on_c, 4, 54, 92
9, 133551, Note_on_c, 4, 57, 0
9, 133551, Note_on_c, 4, 54, 0
9, 133560, Note_on_c, 4, 57, 92
9, 133560, Note_on_c, 4, 54, 92
9, 133664, Note_on_c, 4, 57, 0
9, 133664, Note_on_c, 4, 54, 0
9, 133680, Note_on_c, 4, 52, 92
9, 133680, Note_on_c, 4, 56, 92
9, 133919, Note_on_c, 4, 52, 0
9, 133919, Note_on_c, 4, 56, 0
9, 134038, Control_c, 4, 11, 127
9, 134040, Note_on_c, 4, 56, 84
9, 134279, Note_on_c, 4, 56, 0
9, 134400, Note_on_c, 4, 59, 84
9, 134639, Note_on_c, 4, 59, 0
9, 134940, Note_on_c, 4, 59, 84
9, 134991, Note_on_c, 4, 59, 0
9, 135000, Note_on_c, 4, 59, 84
9, 135104, Note_on_c, 4, 59, 0
9, 135120, Note_on_c, 4, 59, 92
9, 135180, Control_c, 4, 11, 112
9, 135344, Note_on_c, 4, 59, 0
9, 135360, Note_on_c, 4, 56, 92
9, 135441, Note_on_c, 4, 56, 0
9, 135450, Note_on_c, 4, 56, 92
9, 135479, Note_on_c, 4, 56, 0
9, 135480, Note_on_c, 4, 57, 92
9, 135651, Note_on_c, 4, 57, 0
9, 135660, Note_on_c, 4, 54, 92
9, 135660, Note_on_c, 4, 57, 92
9, 135711, Note_on_c, 4, 54, 0
9, 135711, Note_on_c, 4, 57, 0
9, 135720, Note_on_c, 4, 54, 92
9, 135720, Note_on_c, 4, 57, 92
9, 135824, Note_on_c, 4, 54, 0
9, 135824, Note_on_c, 4, 57, 0
9, 135840, Note_on_c, 4, 52, 92
9, 135840, Note_on_c, 4, 56, 92
9, 136079, Note_on_c, 4, 52, 0
9, 136079, Note_on_c, 4, 56, 0
9, 136380, Note_on_c, 4, 59, 92
9, 136431, Note_on_c, 4, 59, 0
9, 136440, Note_on_c, 4, 59, 92
9, 136544, Note_on_c, 4, 59, 0
9, 136558, Control_c, 4, 11, 127
9, 136560, Note_on_c, 4, 59, 92
9, 136620, Control_c, 4, 11, 112
9, 136784, Note_on_c, 4, 59, 0
9, 136800, Note_on_c, 4, 56, 92
9, 136881, Note_on_c, 4, 56, 0
9, 136890, Note_on_c, 4, 56, 92
9, 136919, Note_on_c, 4, 56, 0
9, 136920, Note_on_c, 4, 57, 92
9, 137091, Note_on_c, 4, 57, 0
9, 137100, Note_on_c, 4, 57, 92
9, 137100, Note_on_c, 4, 54, 92
9, 137151, Note_on_c, 4, 57, 0
9, 137151, Note_on_c, 4, 54, 0
9, 137160, Note_on_c, 4, 57, 92
9, 137160, Note_on_c, 4, 54, 92
9, 137264, Note_on_c, 4, 57, 0
9, 137264, Note_on_c, 4, 54, 0
9, 137278, Control_c, 4, 11, 127
9, 137280, Note_on_c, 4, 52, 84
9, 137399, Note_on_c, 4, 52, 0
9, 137520, Note_on_c, 4, 64, 84
9, 137520, Note_on_c, 4, 52, 84
9, 137639, Note_on_c, 4, 64, 0
9, 137639, Note_on_c, 4, 52, 0
9, 137880, Note_on_c, 4, 52, 84
9, 137880, Note_on_c, 4, 64, 84
9, 137999, Note_on_c, 4, 52, 0
9, 137999, Note_on_c, 4, 64, 0
9, 138240, Note_on_c, 4, 64, 84
9, 138240, Note_on_c, 4, 52, 84
9, 138359, Note_on_c, 4, 64, 0
9, 138359, Note_on_c, 4, 52, 0
9, 138600, Note_on_c, 4, 52, 84
9, 138600, Note_on_c, 4, 64, 84
9, 138719, Note_on_c, 4, 52, 0
9, 138719, Note_on_c, 4, 64, 0
9, 138960, Note_on_c, 4, 52, 84
9, 138960, Note_on_c, 4, 64, 84
9, 139079, Note_on_c, 4, 52, 0
9, 139079, Note_on_c, 4, 64, 0
9, 139320, Note_on_c, 4, 52, 84
9, 139320, Note_on_c, 4, 64, 84
9, 139439, Note_on_c, 4, 52, 0
9, 139439, Note_on_c, 4, 64, 0
9, 139680, Note_on_c, 4, 52, 84
9, 139680, Note_on_c, 4, 64, 84
9, 139799, Note_on_c, 4, 52, 0
9, 139799, Note_on_c, 4, 64, 0
9, 140040, Note_on_c, 4, 52, 84
9, 140040, Note_on_c, 4, 64, 84
9, 140159, Note_on_c, 4, 52, 0
9, 140159, Note_on_c, 4, 64, 0
9, 143040, Note_on_c, 4, 64, 52
9, 143211, Note_on_c, 4, 64, 0
9, 143220, Note_on_c, 4, 64, 52
9, 143271, Note_on_c, 4, 64, 0
9, 143280, Note_on_c, 4, 64, 52
9, 143384, Note_on_c, 4, 64, 0
9, 143400, Note_on_c, 4, 64, 52
9, 143571, Note_on_c, 4, 64, 0
9, 143580, Note_on_c, 4, 64, 52
9, 143631, Note_on_c, 4, 64, 0
9, 143640, Note_on_c, 4, 64, 52
9, 143744, Note_on_c, 4, 64, 0
9, 143760, Note_on_c, 4, 64, 52
9, 143760, Note_on_c, 4, 61, 52
9, 143931, Note_on_c, 4, 64, 0
9, 143931, Note_on_c, 4, 61, 0
9, 143940, Note_on_c, 4, 64, 56
9, 143940, Note_on_c, 4, 61, 56
9, 143991, Note_on_c, 4, 64, 0
9, 143991, Note_on_c, 4, 61, 0
9, 144000, Note_on_c, 4, 64, 57
9, 144000, Note_on_c, 4, 61, 57
9, 144104, Note_on_c, 4, 64, 0
9, 144104, Note_on_c, 4, 61, 0
9, 144120, Note_on_c, 4, 61, 60
9, 144120, Note_on_c, 4, 64, 60
9, 144291, Note_on_c, 4, 61, 0
9, 144291, Note_on_c, 4, 64, 0
9, 144300, Note_on_c, 4, 61, 64
9, 144300, Note_on_c, 4, 64, 64
9, 144351, Note_on_c, 4, 61, 0
9, 144351, Note_on_c, 4, 64, 0
9, 144360, Note_on_c, 4, 61, 65
9, 144360, Note_on_c, 4, 64, 65
9, 144464, Note_on_c, 4, 61, 0
9, 144464, Note_on_c, 4, 64, 0
9, 144480, Note_on_c, 4, 61, 52
9, 144480, Note_on_c, 4, 64, 52
9, 145184, Note_on_c, 4, 61, 0
9, 145184, Note_on_c, 4, 64, 0
9, 145200, Note_on_c, 4, 62, 52
9, 145200, Note_on_c, 4, 59, 52
9, 145904, Note_on_c, 4, 62, 0
9, 145904, Note_on_c, 4, 59, 0
9, 145920, Note_on_c, 4, 57, 52
9, 145920, Note_on_c, 4, 61, 52
9, 146144, Note_on_c, 4, 57, 0
9, 146144, Note_on_c, 4, 61, 0
9, 146160, Note_on_c, 4, 64, 52
9, 146160, Note_on_c, 4, 61, 52
9, 146264, Note_on_c, 4, 64, 0
9, 146264, Note_on_c, 4, 61, 0
9, 146280, Note_on_c, 4, 64, 52
9, 146280, Note_on_c, 4, 61, 52
9, 146451, Note_on_c, 4, 64, 0
9, 146451, Note_on_c, 4, 61, 0
9, 146460, Note_on_c, 4, 59, 52
9, 146460, Note_on_c, 4, 62, 52
9, 146504, Note_on_c, 4, 59, 0
9, 146504, Note_on_c, 4, 62, 0
9, 146520, Note_on_c, 4, 57, 52
9, 146520, Note_on_c, 4, 61, 52
9, 146609, Note_on_c, 4, 57, 0
9, 146609, Note_on_c, 4, 61, 0
9, 146640, Note_on_c, 4, 57, 52
9, 146640, Note_on_c, 4, 61, 52
9, 146759, Note_on_c, 4, 57, 0
9, 146759, Note_on_c, 4, 61, 0
9, 146760, Note_on_c, 4, 59, 52
9, 146760, Note_on_c, 4, 56, 52
9, 147171, Note_on_c, 4, 59, 0
9, 147171, Note_on_c, 4, 56, 0
9, 147180, Note_on_c, 4, 57, 52
9, 147180, Note_on_c, 4, 61, 52
9, 147224, Note_on_c, 4, 57, 0
9, 147224, Note_on_c, 4, 61, 0
9, 147240, Note_on_c, 4, 62, 52
9, 147240, Note_on_c, 4, 59, 52
9, 147329, Note_on_c, 4, 62, 0
9, 147329, Note_on_c, 4, 59, 0
9, 147360, Note_on_c, 4, 64, 52
9, 147360, Note_on_c, 4, 61, 52
9, 148064, Note_on_c, 4, 64, 0
9, 148064, Note_on_c, 4, 61, 0
9, 148080, Note_on_c, 4, 59, 52
9, 148080, Note_on_c, 4, 62, 52
9, 148784, Note_on_c, 4, 59, 0
9, 148784, Note_on_c, 4, 62, 0
9, 148800, Note_on_c, 4, 61, 52
9, 148800, Note_on_c, 4, 57, 52
9, 149024, Note_on_c, 4, 61, 0
9, 149024, Note_on_c, 4, 57, 0
9, 149040, Note_on_c, 4, 61, 52
9, 149040, Note_on_c, 4, 57, 52
9, 149144, Note_on_c, 4, 61, 0
9, 149144, Note_on_c, 4, 57, 0
9, 149160, Note_on_c, 4, 61, 52
9, 149160, Note_on_c, 4, 57, 52
9, 149279, Note_on_c, 4, 61, 0
9, 149280, Note_on_c, 4, 64, 52
9, 149384, Note_on_c, 4, 57, 0
9, 149384, Note_on_c, 4, 64, 0
9, 149400, Note_on_c, 4, 56, 52
9, 149400, Note_on_c, 4, 62, 52
9, 149489, Note_on_c, 4, 56, 0
9, 149489, Note_on_c, 4, 62, 0
9, 149520, Note_on_c, 4, 61, 52
9, 149520, Note_on_c, 4, 57, 52
9, 149691, Note_on_c, 4, 61, 0
9, 149691, Note_on_c, 4, 57, 0
9, 149700, Note_on_c, 4, 59, 52
9, 149700, Note_on_c, 4, 62, 52
9, 149751, Note_on_c, 4, 59, 0
9, 149751, Note_on_c, 4, 62, 0
9, 149760, Note_on_c, 4, 61, 52
9, 149760, Note_on_c, 4, 64, 52
9, 149864, Note_on_c, 4, 61, 0
9, 149864, Note_on_c, 4, 64, 0
9, 149880, Note_on_c, 4, 66, 52
9, 149880, Note_on_c, 4, 62, 52
9, 149984, Note_on_c, 4, 66, 0
9, 149984, Note_on_c, 4, 62, 0
9, 150000, Note_on_c, 4, 54, 52
9, 150000, Note_on_c, 4, 50, 52
9, 150104, Note_on_c, 4, 54, 0
9, 150104, Note_on_c, 4, 50, 0
9, 150120, Note_on_c, 4, 50, 52
9, 150120, Note_on_c, 4, 54, 52
9, 150224, Note_on_c, 4, 50, 0
9, 150224, Note_on_c, 4, 54, 0
9, 150240, Note_on_c, 4, 50, 52
9, 150240, Note_on_c, 4, 54, 52
9, 150944, Note_on_c, 4, 50, 0
9, 150944, Note_on_c, 4, 54, 0
9, 150960, Note_on_c, 4, 52, 52
9, 150960, Note_on_c, 4, 49, 52
9, 152384, Note_on_c, 4, 52, 0
9, 152384, Note_on_c, 4, 49, 0
9, 152400, Note_on_c, 4, 54, 52
9, 152400, Note_on_c, 4, 50, 52
9, 153104, Note_on_c, 4, 54, 0
9, 153104, Note_on_c, 4, 50, 0
9, 153120, Note_on_c, 4, 52, 52
9, 153120, Note_on_c, 4, 49, 52
9, 154304, Note_on_c, 4, 52, 0
9, 154304, Note_on_c, 4, 49, 0
9, 154320, Note_on_c, 4, 61, 52
9, 154320, Note_on_c, 4, 57, 52
9, 154424, Note_on_c, 4, 61, 0
9, 154424, Note_on_c, 4, 57, 0
9, 154440, Note_on_c, 4, 61, 52
9, 154440, Note_on_c, 4, 57, 52
9, 154544, Note_on_c, 4, 61, 0
9, 154544, Note_on_c, 4, 57, 0
9, 154560, Note_on_c, 4, 59, 52
9, 154560, Note_on_c, 4, 56, 52
9, 154919, Note_on_c, 4, 59, 0
9, 154919, Note_on_c, 4, 56, 0
9, 154920, Note_on_c, 4, 61, 52
9, 154920, Note_on_c, 4, 57, 52
9, 155264, Note_on_c, 4, 61, 0
9, 155264, Note_on_c, 4, 57, 0
9, 155280, Note_on_c, 4, 59, 76
9, 155280, Note_on_c, 4, 56, 76
9, 155320, Control_c, 4, 11, 124
9, 155360, Control_c, 4, 11, 122
9, 155400, Control_c, 4, 11, 119
9, 155440, Control_c, 4, 11, 117
9, 155480, Control_c, 4, 11, 114
9, 155520, Control_c, 4, 11, 111
9, 155560, Control_c, 4, 11, 109
9, 155600, Control_c, 4, 11, 106
9, 155640, Control_c, 4, 11, 104
9, 155680, Control_c, 4, 11, 101
9, 155720, Control_c, 4, 11, 98
9, 155760, Control_c, 4, 11, 96
9, 155800, Control_c, 4, 11, 93
9, 155840, Control_c, 4, 11, 90
9, 155864, Note_on_c, 4, 59, 0
9, 155864, Note_on_c, 4, 56, 0
9, 155880, Note_on_c, 4, 57, 76
9, 155880, Control_c, 4, 11, 88
9, 155880, Note_on_c, 4, 61, 76
9, 155920, Control_c, 4, 11, 85
9, 155960, Control_c, 4, 11, 80
9, 155984, Note_on_c, 4, 57, 0
9, 155984, Note_on_c, 4, 61, 0
9, 156000, Note_on_c, 4, 59, 76
9, 156000, Note_on_c, 4, 56, 76
9, 156344, Note_on_c, 4, 59, 0
9, 156344, Note_on_c, 4, 56, 0
9, 156360, Note_on_c, 4, 57, 76
9, 156360, Note_on_c, 4, 61, 76
9, 156531, Note_on_c, 4, 57, 0
9, 156531, Note_on_c, 4, 61, 0
9, 156540, Note_on_c, 4, 61, 76
9, 156584, Note_on_c, 4, 61, 0
9, 156600, Note_on_c, 4, 57, 76
9, 156689, Note_on_c, 4, 57, 0
9, 156718, Control_c, 4, 11, 127
9, 156720, Note_on_c, 4, 52, 76
9, 157251, Note_on_c, 4, 52, 0
9, 157260, Note_on_c, 4, 49, 76
9, 157304, Note_on_c, 4, 49, 0
9, 157320, Note_on_c, 4, 45, 76
9, 157409, Note_on_c, 4, 45, 0
9, 157440, Note_on_c, 4, 52, 84
9, 157500, Control_c, 4, 11, 112
9, 157971, Note_on_c, 4, 52, 0
9, 157980, Note_on_c, 4, 49, 84
9, 158024, Note_on_c, 4, 49, 0
9, 158040, Note_on_c, 4, 46, 84
9, 158129, Note_on_c, 4, 46, 0
9, 158158, Control_c, 4, 11, 127
9, 158160, Note_on_c, 4, 52, 84
9, 158220, Control_c, 4, 11, 112
9, 158279, Note_on_c, 4, 52, 0
9, 158340, Note_on_c, 4, 50, 84
9, 158391, Note_on_c, 4, 50, 0
9, 158400, Note_on_c, 4, 47, 84
9, 158504, Note_on_c, 4, 47, 0
9, 158518, Control_c, 4, 11, 127
9, 158520, Note_on_c, 4, 56, 84
9, 158580, Control_c, 4, 11, 112
9, 158639, Note_on_c, 4, 56, 0
9, 158700, Note_on_c, 4, 52, 84
9, 158751, Note_on_c, 4, 52, 0
9, 158760, Note_on_c, 4, 50, 84
9, 158864, Note_on_c, 4, 50, 0
9, 158878, Control_c, 4, 11, 127
9, 158880, Note_on_c, 4, 59, 84
9, 158940, Control_c, 4, 11, 112
9, 158999, Note_on_c, 4, 59, 0
9, 159060, Note_on_c, 4, 56, 84
9, 159111, Note_on_c, 4, 56, 0
9, 159120, Note_on_c, 4, 52, 84
9, 159224, Note_on_c, 4, 52, 0
9, 159238, Control_c, 4, 11, 127
9, 159240, Note_on_c, 4, 62, 84
9, 159300, Control_c, 4, 11, 112
9, 159359, Note_on_c, 4, 62, 0
9, 159420, Note_on_c, 4, 59, 84
9, 159471, Note_on_c, 4, 59, 0
9, 159480, Note_on_c, 4, 56, 84
9, 159584, Note_on_c, 4, 56, 0
9, 159598, Control_c, 4, 11, 127
9, 159600, Note_on_c, 4, 59, 76
9, 159600, Note_on_c, 4, 62, 76
9, 159959, Note_on_c, 4, 59, 0
9, 159959, Note_on_c, 4, 62, 0
9, 160320, Note_on_c, 4, 52, 84
9, 160320, Note_on_c, 4, 49, 84
9, 161024, Note_on_c, 4, 52, 0
9, 161024, Note_on_c, 4, 49, 0
9, 161040, Note_on_c, 4, 50, 84
9, 161040, Note_on_c, 4, 54, 84
9, 161624, Note_on_c, 4, 50, 0
9, 161624, Note_on_c, 4, 54, 0
9, 161640, Note_on_c, 4, 56, 84
9, 161640, Note_on_c, 4, 47, 84
9, 161744, Note_on_c, 4, 56, 0
9, 161744, Note_on_c, 4, 47, 0
9, 161760, Note_on_c, 4, 57, 84
9, 161760, Note_on_c, 4, 49, 84
9, 161984, Note_on_c, 4, 57, 0
9, 161984, Note_on_c, 4, 49, 0
9, 162000, Note_on_c, 4, 57, 84
9, 162000, Note_on_c, 4, 49, 84
9, 162104, Note_on_c, 4, 57, 0
9, 162104, Note_on_c, 4, 49, 0
9, 162120, Note_on_c, 4, 49, 84
9, 162120, Note_on_c, 4, 57, 84
9, 162291, Note_on_c, 4, 49, 0
9, 162291, Note_on_c, 4, 57, 0
9, 162300, Note_on_c, 4, 52, 84
9, 162300, Note_on_c, 4, 59, 84
9, 162344, Note_on_c, 4, 52, 0
9, 162344, Note_on_c, 4, 59, 0
9, 162360, Note_on_c, 4, 57, 84
9, 162360, Note_on_c, 4, 61, 84
9, 162449, Note_on_c, 4, 57, 0
9, 162449, Note_on_c, 4, 61, 0
9, 162480, Note_on_c, 4, 61, 84
9, 162480, Note_on_c, 4, 57, 84
9, 162599, Note_on_c, 4, 61, 0
9, 162599, Note_on_c, 4, 57, 0
9, 162600, Note_on_c, 4, 59, 84
9, 162600, Note_on_c, 4, 52, 84
9, 163011, Note_on_c, 4, 59, 0
9, 163011, Note_on_c, 4, 52, 0
9, 163020, Note_on_c, 4, 57, 84
9, 163020, Note_on_c, 4, 61, 84
9, 163064, Note_on_c, 4, 57, 0
9, 163064, Note_on_c, 4, 61, 0
9, 163080, Note_on_c, 4, 62, 84
9, 163080, Note_on_c, 4, 59, 84
9, 163169, Note_on_c, 4, 62, 0
9, 163169, Note_on_c, 4, 59, 0
9, 163200, Note_on_c, 4, 64, 84
9, 163200, Note_on_c, 4, 61, 84
9, 163904, Note_on_c, 4, 64, 0
9, 163904, Note_on_c, 4, 61, 0
9, 163920, Note_on_c, 4, 62, 84
9, 163920, Note_on_c, 4, 66, 84
9, 164504, Note_on_c, 4, 62, 0
9, 164504, Note_on_c, 4, 66, 0
9, 164520, Note_on_c, 4, 59, 84
9, 164520, Note_on_c, 4, 62, 84
9, 164624, Note_on_c, 4, 59, 0
9, 164624, Note_on_c, 4, 62, 0
9, 164640, Note_on_c, 4, 61, 84
9, 164640, Note_on_c, 4, 57, 84
9, 164864, Note_on_c, 4, 61, 0
9, 164864, Note_on_c, 4, 57, 0
9, 164880, Note_on_c, 4, 61, 84
9, 164880, Note_on_c, 4, 57, 84
9, 164984, Note_on_c, 4, 61, 0
9, 164984, Note_on_c, 4, 57, 0
9, 165000, Note_on_c, 4, 57, 84
9, 165000, Note_on_c, 4, 61, 84
9, 165224, Note_on_c, 4, 57, 0
9, 165224, Note_on_c, 4, 61, 0
9, 165240, Note_on_c, 4, 62, 84
9, 165240, Note_on_c, 4, 56, 84
9, 165329, Note_on_c, 4, 62, 0
9, 165329, Note_on_c, 4, 56, 0
9, 165360, Note_on_c, 4, 61, 84
9, 165360, Note_on_c, 4, 57, 84
9, 165599, Note_on_c, 4, 61, 0
9, 165599, Note_on_c, 4, 57, 0
9, 165960, Note_on_c, 4, 57, 84
9, 166064, Note_on_c, 4, 57, 0
9, 166080, Note_on_c, 4, 57, 84
9, 166304, Note_on_c, 4, 57, 0
9, 166320, Note_on_c, 4, 57, 84
9, 166424, Note_on_c, 4, 57, 0
9, 166440, Note_on_c, 4, 57, 84
9, 166611, Note_on_c, 4, 57, 0
9, 166620, Note_on_c, 4, 62, 84
9, 166664, Note_on_c, 4, 62, 0
9, 166680, Note_on_c, 4, 66, 84
9, 166769, Note_on_c, 4, 66, 0
9, 166800, Note_on_c, 4, 66, 84
9, 166919, Note_on_c, 4, 66, 0
9, 166920, Note_on_c, 4, 64, 84
9, 167024, Note_on_c, 4, 64, 0
9, 167040, Note_on_c, 4, 61, 84
9, 167129, Note_on_c, 4, 61, 0
9, 167160, Note_on_c, 4, 57, 84
9, 167384, Note_on_c, 4, 57, 0
9, 167400, Note_on_c, 4, 57, 84
9, 167504, Note_on_c, 4, 57, 0
9, 167520, Note_on_c, 4, 57, 84
9, 167691, Note_on_c, 4, 57, 0
9, 167700, Note_on_c, 4, 62, 84
9, 167744, Note_on_c, 4, 62, 0
9, 167760, Note_on_c, 4, 57, 84
9, 167849, Note_on_c, 4, 57, 0
9, 167880, Note_on_c, 4, 57, 84
9, 168051, Note_on_c, 4, 57, 0
9, 168060, Note_on_c, 4, 62, 84
9, 168104, Note_on_c, 4, 62, 0
9, 168120, Note_on_c, 4, 66, 84
9, 168209, Note_on_c, 4, 66, 0
9, 168240, Note_on_c, 4, 66, 84
9, 168359, Note_on_c, 4, 66, 0
9, 168360, Note_on_c, 4, 64, 84
9, 168464, Note_on_c, 4, 64, 0
9, 168480, Note_on_c, 4, 61, 84
9, 168569, Note_on_c, 4, 61, 0
9, 168600, Note_on_c, 4, 57, 84
9, 168824, Note_on_c, 4, 57, 0
9, 169200, Note_on_c, 4, 64, 55
9, 169304, Note_on_c, 4, 64, 0
9, 169320, Note_on_c, 4, 66, 56
9, 169439, Note_on_c, 4, 66, 0
9, 169440, Note_on_c, 4, 64, 56
9, 169544, Note_on_c, 4, 64, 0
9, 169560, Note_on_c, 4, 61, 57
9, 169649, Note_on_c, 4, 61, 0
9, 169920, Note_on_c, 4, 66, 59
9, 170024, Note_on_c, 4, 66, 0
9, 170040, Note_on_c, 4, 67, 60
9, 170159, Note_on_c, 4, 67, 0
9, 170160, Note_on_c, 4, 66, 60
9, 170264, Note_on_c, 4, 66, 0
9, 170280, Note_on_c, 4, 62, 61
9, 170369, Note_on_c, 4, 62, 0
9, 170640, Note_on_c, 4, 62, 63
9, 170744, Note_on_c, 4, 62, 0
9, 170760, Note_on_c, 4, 64, 63
9, 170879, Note_on_c, 4, 64, 0
9, 170880, Note_on_c, 4, 62, 64
9, 170984, Note_on_c, 4, 62, 0
9, 171000, Note_on_c, 4, 59, 64
9, 171089, Note_on_c, 4, 59, 0
9, 171360, Note_on_c, 4, 64, 66
9, 171464, Note_on_c, 4, 64, 0
9, 171480, Note_on_c, 4, 66, 67
9, 171599, Note_on_c, 4, 66, 0
9, 171600, Note_on_c, 4, 64, 68
9, 171704, Note_on_c, 4, 64, 0
9, 171720, Note_on_c, 4, 61, 68
9, 171809, Note_on_c, 4, 61, 0
9, 172080, Note_on_c, 4, 64, 70
9, 172184, Note_on_c, 4, 64, 0
9, 172200, Note_on_c, 4, 66, 71
9, 172319, Note_on_c, 4, 66, 0
9, 172320, Note_on_c, 4, 64, 71
9, 172424, Note_on_c, 4, 64, 0
9, 172440, Note_on_c, 4, 61, 72
9, 172529, Note_on_c, 4, 61, 0
9, 172560, Note_on_c, 4, 67, 72
9, 172679, Note_on_c, 4, 67, 0
9, 172680, Note_on_c, 4, 66, 73
9, 172784, Note_on_c, 4, 66, 0
9, 172800, Note_on_c, 4, 62, 74
9, 172889, Note_on_c, 4, 62, 0
9, 172920, Note_on_c, 4, 67, 74
9, 173039, Note_on_c, 4, 67, 0
9, 173040, Note_on_c, 4, 66, 75
9, 173144, Note_on_c, 4, 66, 0
9, 173160, Note_on_c, 4, 62, 76
9, 173249, Note_on_c, 4, 62, 0
9, 173280, Note_on_c, 4, 61, 76
9, 173399, Note_on_c, 4, 61, 0
9, 173400, Note_on_c, 4, 59, 77
9, 173504, Note_on_c, 4, 59, 0
9, 173520, Note_on_c, 4, 56, 77
9, 173609, Note_on_c, 4, 56, 0
9, 173640, Note_on_c, 4, 61, 78
9, 173759, Note_on_c, 4, 61, 0
9, 173760, Note_on_c, 4, 59, 79
9, 173864, Note_on_c, 4, 59, 0
9, 173880, Note_on_c, 4, 56, 79
9, 173969, Note_on_c, 4, 56, 0
9, 174000, Note_on_c, 4, 62, 80
9, 174119, Note_on_c, 4, 62, 0
9, 174120, Note_on_c, 4, 61, 80
9, 174224, Note_on_c, 4, 61, 0
9, 174240, Note_on_c, 4, 57, 81
9, 174329, Note_on_c, 4, 57, 0
9, 174360, Note_on_c, 4, 62, 82
9, 174479, Note_on_c, 4, 62, 0
9, 174480, Note_on_c, 4, 61, 82
9, 174584, Note_on_c, 4, 61, 0
9, 174600, Note_on_c, 4, 57, 83
9, 174689, Note_on_c, 4, 57, 0
9, 174720, Note_on_c, 4, 64, 84
9, 174720, Note_on_c, 4, 61, 84
9, 175424, Note_on_c, 4, 64, 0
9, 175424, Note_on_c, 4, 61, 0
9, 175440, Note_on_c, 4, 59, 84
9, 175440, Note_on_c, 4, 63, 84
9, 175904, Note_on_c, 4, 59, 0
9, 175904, Note_on_c, 4, 63, 0
9, 175920, Note_on_c, 4, 59, 52
9, 175920, Note_on_c, 4, 63, 52
9, 176024, Note_on_c, 4, 59, 0
9, 176024, Note_on_c, 4, 63, 0
9, 176040, Note_on_c, 4, 63, 52
9, 176040, Note_on_c, 4, 59, 52
9, 176144, Note_on_c, 4, 63, 0
9, 176144, Note_on_c, 4, 59, 0
9, 176160, Note_on_c, 4, 61, 52
9, 176160, Note_on_c, 4, 57, 52
9, 176279, Note_on_c, 4, 61, 0
9, 176279, Note_on_c, 4, 57, 0
9, 176400, Note_on_c, 4, 61, 52
9, 176400, Note_on_c, 4, 57, 52
9, 176504, Note_on_c, 4, 61, 0
9, 176504, Note_on_c, 4, 57, 0
9, 176520, Note_on_c, 4, 57, 52
9, 176520, Note_on_c, 4, 61, 52
9, 176639, Note_on_c, 4, 57, 0
9, 176639, Note_on_c, 4, 61, 0
9, 176760, Note_on_c, 4, 61, 52
9, 176760, Note_on_c, 4, 57, 52
9, 176864, Note_on_c, 4, 61, 0
9, 176864, Note_on_c, 4, 57, 0
9, 176880, Note_on_c, 4, 56, 52
9, 177119, Note_on_c, 4, 56, 0
9, 178920, Control_c, 4, 11, 80
9, 179040, Note_on_c, 4, 64, 76
9, 179040, Note_on_c, 4, 56, 76
9, 179040, Control_c, 4, 11, 80
9, 179080, Control_c, 4, 11, 83
9, 179120, Control_c, 4, 11, 85
9, 179160, Control_c, 4, 11, 88
9, 179200, Control_c, 4, 11, 90
9, 179240, Control_c, 4, 11, 93
9, 179280, Control_c, 4, 11, 96
9, 179320, Control_c, 4, 11, 98
9, 179360, Control_c, 4, 11, 101
9, 179399, Note_on_c, 4, 64, 0
9, 179400, Note_on_c, 4, 61, 76
9, 179400, Control_c, 4, 11, 104
9, 179440, Control_c, 4, 11, 106
9, 179480, Control_c, 4, 11, 109
9, 179520, Control_c, 4, 11, 111
9, 179560, Control_c, 4, 11, 114
9, 179600, Control_c, 4, 11, 117
9, 179640, Control_c, 4, 11, 119
9, 179680, Control_c, 4, 11, 122
9, 179720, Control_c, 4, 11, 127
9, 179744, Note_on_c, 4, 56, 0
9, 179744, Note_on_c, 4, 61, 0
9, 179760, Note_on_c, 4, 58, 76
9, 179760, Note_on_c, 4, 55, 76
9, 179984, Note_on_c, 4, 58, 0
9, 179984, Note_on_c, 4, 55, 0
9, 180000, Note_on_c, 4, 51, 52
9, 180104, Note_on_c, 4, 51, 0
9, 180120, Note_on_c, 4, 51, 52
9, 180254, Note_on_c, 4, 51, 0
9, 180300, Note_on_c, 4, 55, 52
9, 180344, Note_on_c, 4, 55, 0
9, 180360, Note_on_c, 4, 58, 52
9, 180449, Note_on_c, 4, 58, 0
9, 180480, Note_on_c, 4, 59, 52
9, 180659, Note_on_c, 4, 59, 0
9, 180720, Note_on_c, 4, 59, 52
9, 180824, Note_on_c, 4, 59, 0
9, 180840, Note_on_c, 4, 59, 52
9, 180974, Note_on_c, 4, 59, 0
9, 181020, Note_on_c, 4, 58, 52
9, 181064, Note_on_c, 4, 58, 0
9, 181080, Note_on_c, 4, 56, 52
9, 181169, Note_on_c, 4, 56, 0
9, 181200, Note_on_c, 4, 55, 52
9, 181439, Note_on_c, 4, 55, 0
9, 181680, Control_c, 4, 11, 80
9, 181800, Note_on_c, 4, 58, 76
9, 181919, Note_on_c, 4, 58, 0
9, 181920, Control_c, 4, 11, 80
9, 181920, Note_on_c, 4, 47, 76
9, 181920, Note_on_c, 4, 59, 76
9, 181960, Control_c, 4, 11, 83
9, 182000, Control_c, 4, 11, 85
9, 182040, Control_c, 4, 11, 88
9, 182080, Control_c, 4, 11, 90
9, 182120, Control_c, 4, 11, 93
9, 182144, Note_on_c, 4, 47, 0
9, 182144, Note_on_c, 4, 59, 0
9, 182160, Note_on_c, 4, 59, 76
9, 182160, Control_c, 4, 11, 96
9, 182160, Note_on_c, 4, 47, 76
9, 182200, Control_c, 4, 11, 98
9, 182240, Control_c, 4, 11, 101
9, 182264, Note_on_c, 4, 59, 0
9, 182264, Note_on_c, 4, 47, 0
9, 182280, Note_on_c, 4, 47, 76
9, 182280, Control_c, 4, 11, 104
9, 182280, Note_on_c, 4, 59, 76
9, 182320, Control_c, 4, 11, 106
9, 182360, Control_c, 4, 11, 109
9, 182400, Control_c, 4, 11, 111
9, 182440, Control_c, 4, 11, 114
9, 182480, Control_c, 4, 11, 117
9, 182504, Note_on_c, 4, 47, 0
9, 182504, Note_on_c, 4, 59, 0
9, 182520, Control_c, 4, 11, 119
9, 182520, Note_on_c, 4, 59, 76
9, 182520, Note_on_c, 4, 47, 76
9, 182560, Control_c, 4, 11, 122
9, 182600, Control_c, 4, 11, 127
9, 182624, Note_on_c, 4, 59, 0
9, 182624, Note_on_c, 4, 47, 0
9, 182640, Note_on_c, 4, 47, 76
9, 182640, Note_on_c, 4, 59, 76
9, 183584, Note_on_c, 4, 47, 0
9, 183584, Note_on_c, 4, 59, 0
9, 183600, Note_on_c, 4, 47, 76
9, 183600, Note_on_c, 4, 59, 76
9, 183704, Note_on_c, 4, 47, 0
9, 183704, Note_on_c, 4, 59, 0
9, 183720, Note_on_c, 4, 47, 76
9, 183720, Note_on_c, 4, 59, 76
9, 183944, Note_on_c, 4, 47, 0
9, 183944, Note_on_c, 4, 59, 0
9, 183960, Note_on_c, 4, 47, 76
9, 183960, Note_on_c, 4, 59, 76
9, 184064, Note_on_c, 4, 47, 0
9, 184064, Note_on_c, 4, 59, 0
9, 184080, Note_on_c, 4, 47, 76
9, 184080, Note_on_c, 4, 59, 76
9, 184919, Note_on_c, 4, 47, 0
9, 184919, Note_on_c, 4, 59, 0
9, 184920, Note_on_c, 4, 57, 76
9, 184920, Note_on_c, 4, 49, 76
9, 185384, Note_on_c, 4, 57, 0
9, 185384, Note_on_c, 4, 49, 0
9, 185400, Note_on_c, 4, 48, 76
9, 185400, Note_on_c, 4, 60, 76
9, 185504, Note_on_c, 4, 48, 0
9, 185504, Note_on_c, 4, 60, 0
9, 185520, Note_on_c, 4, 59, 76
9, 185520, Note_on_c, 4, 47, 76
9, 185624, Note_on_c, 4, 59, 0
9, 185624, Note_on_c, 4, 47, 0
9, 185640, Note_on_c, 4, 57, 76
9, 185640, Note_on_c, 4, 54, 76
9, 185759, Note_on_c, 4, 57, 0
9, 185759, Note_on_c, 4, 54, 0
9, 185880, Note_on_c, 4, 54, 76
9, 185880, Note_on_c, 4, 57, 76
9, 185984, Note_on_c, 4, 54, 0
9, 185984, Note_on_c, 4, 57, 0
9, 186000, Note_on_c, 4, 57, 76
9, 186000, Note_on_c, 4, 54, 76
9, 186119, Note_on_c, 4, 57, 0
9, 186119, Note_on_c, 4, 54, 0
9, 186240, Note_on_c, 4, 56, 76
9, 186240, Note_on_c, 4, 52, 76
9, 186344, Note_on_c, 4, 56, 0
9, 186344, Note_on_c, 4, 52, 0
9, 186360, Note_on_c, 4, 56, 76
9, 186360, Note_on_c, 4, 52, 76
9, 186479, Note_on_c, 4, 56, 0
9, 186479, Note_on_c, 4, 52, 0
9, 186600, Note_on_c, 4, 56, 76
9, 186600, Note_on_c, 4, 52, 76
9, 186704, Note_on_c, 4, 56, 0
9, 186704, Note_on_c, 4, 52, 0
9, 186720, Note_on_c, 4, 56, 76
9, 186720, Note_on_c, 4, 52, 76
9, 186839, Note_on_c, 4, 56, 0
9, 186839, Note_on_c, 4, 52, 0
9, 186960, Note_on_c, 4, 57, 76
9, 186960, Note_on_c, 4, 54, 76
9, 187064, Note_on_c, 4, 57, 0
9, 187064, Note_on_c, 4, 54, 0
9, 187080, Note_on_c, 4, 54, 76
9, 187080, Note_on_c, 4, 57, 76
9, 187199, Note_on_c, 4, 54, 0
9, 187199, Note_on_c, 4, 57, 0
9, 187320, Note_on_c, 4, 54, 76
9, 187320, Note_on_c, 4, 57, 76
9, 187424, Note_on_c, 4, 54, 0
9, 187424, Note_on_c, 4, 57, 0
9, 187440, Note_on_c, 4, 57, 76
9, 187440, Note_on_c, 4, 54, 76
9, 187559, Note_on_c, 4, 57, 0
9, 187559, Note_on_c, 4, 54, 0
9, 187680, Note_on_c, 4, 52, 76
9, 187680, Note_on_c, 4, 56, 76
9, 187784, Note_on_c, 4, 52, 0
9, 187784, Note_on_c, 4, 56, 0
9, 187800, Note_on_c, 4, 56, 76
9, 187800, Note_on_c, 4, 52, 76
9, 187919, Note_on_c, 4, 56, 0
9, 187919, Note_on_c, 4, 52, 0
9, 188040, Note_on_c, 4, 56, 76
9, 188040, Note_on_c, 4, 52, 76
9, 188144, Note_on_c, 4, 56, 0
9, 188144, Note_on_c, 4, 52, 0
9, 188160, Note_on_c, 4, 56, 76
9, 188160, Note_on_c, 4, 52, 76
9, 188279, Note_on_c, 4, 56, 0
9, 188279, Note_on_c, 4, 52, 0
9, 189120, Note_on_c, 4, 59, 52
9, 189719, Note_on_c, 4, 59, 0
9, 189720, Note_on_c, 4, 54, 52
9, 189824, Note_on_c, 4, 54, 0
9, 189840, Note_on_c, 4, 52, 48
9, 190184, Note_on_c, 4, 52, 0
9, 190200, Note_on_c, 4, 56, 48
9, 190200, Note_on_c, 4, 52, 48
9, 190371, Note_on_c, 4, 56, 0
9, 190371, Note_on_c, 4, 52, 0
9, 190380, Note_on_c, 4, 47, 48
9, 190380, Note_on_c, 4, 52, 48
9, 190431, Note_on_c, 4, 47, 0
9, 190431, Note_on_c, 4, 52, 0
9, 190440, Note_on_c, 4, 52, 48
9, 190440, Note_on_c, 4, 47, 48
9, 190544, Note_on_c, 4, 52, 0
9, 190544, Note_on_c, 4, 47, 0
9, 190560, Note_on_c, 4, 54, 48
9, 190560, Note_on_c, 4, 57, 48
9, 190731, Note_on_c, 4, 54, 0
9, 190731, Note_on_c, 4, 57, 0
9, 190740, Note_on_c, 4, 54, 48
9, 190740, Note_on_c, 4, 47, 48
9, 190791, Note_on_c, 4, 54, 0
9, 190791, Note_on_c, 4, 47, 0
9, 190800, Note_on_c, 4, 47, 48
9, 190800, Note_on_c, 4, 54, 48
9, 190904, Note_on_c, 4, 47, 0
9, 190904, Note_on_c, 4, 54, 0
9, 190920, Note_on_c, 4, 59, 48
9, 190920, Note_on_c, 4, 56, 48
9, 191624, Note_on_c, 4, 59, 0
9, 191624, Note_on_c, 4, 56, 0
9, 191640, Note_on_c, 4, 64, 48
9, 191640, Note_on_c, 4, 59, 48
9, 191811, Note_on_c, 4, 64, 0
9, 191811, Note_on_c, 4, 59, 0
9, 191820, Note_on_c, 4, 56, 48
9, 191820, Note_on_c, 4, 59, 48
9, 191871, Note_on_c, 4, 56, 0
9, 191871, Note_on_c, 4, 59, 0
9, 191880, Note_on_c, 4, 56, 48
9, 191880, Note_on_c, 4, 59, 48
9, 191984, Note_on_c, 4, 56, 0
9, 191984, Note_on_c, 4, 59, 0
9, 192000, Note_on_c, 4, 56, 48
9, 192000, Note_on_c, 4, 59, 48
9, 192171, Note_on_c, 4, 56, 0
9, 192171, Note_on_c, 4, 59, 0
9, 192180, Note_on_c, 4, 52, 48
9, 192180, Note_on_c, 4, 56, 48
9, 192231, Note_on_c, 4, 52, 0
9, 192231, Note_on_c, 4, 56, 0
9, 192240, Note_on_c, 4, 52, 48
9, 192240, Note_on_c, 4, 56, 48
9, 192344, Note_on_c, 4, 52, 0
9, 192344, Note_on_c, 4, 56, 0
9, 192360, Note_on_c, 4, 52, 48
9, 192360, Note_on_c, 4, 56, 48
9, 192479, Note_on_c, 4, 52, 0
9, 192479, Note_on_c, 4, 56, 0
9, 192480, Note_on_c, 4, 54, 48
9, 192480, Note_on_c, 4, 57, 48
9, 192584, Note_on_c, 4, 54, 0
9, 192584, Note_on_c, 4, 57, 0
9, 192600, Note_on_c, 4, 54, 48
9, 192600, Note_on_c, 4, 51, 48
9, 192689, Note_on_c, 4, 54, 0
9, 192689, Note_on_c, 4, 51, 0
9, 192720, Note_on_c, 4, 52, 76
9, 192720, Note_on_c, 4, 64, 76
9, 192824, Note_on_c, 4, 52, 0
9, 192824, Note_on_c, 4, 64, 0
9, 192840, Note_on_c, 4, 52, 76
9, 192840, Note_on_c, 4, 64, 76
9, 192944, Note_on_c, 4, 52, 0
9, 192944, Note_on_c, 4, 64, 0
9, 192960, Note_on_c, 4, 52, 76
9, 192960, Note_on_c, 4, 64, 76
9, 193064, Note_on_c, 4, 52, 0
9, 193064, Note_on_c, 4, 64, 0
9, 193080, Note_on_c, 4, 52, 76
9, 193080, Note_on_c, 4, 64, 76
9, 193184, Note_on_c, 4, 52, 0
9, 193184, Note_on_c, 4, 64, 0
9, 193200, Note_on_c, 4, 64, 76
9, 193200, Note_on_c, 4, 52, 76
9, 193304, Note_on_c, 4, 64, 0
9, 193304, Note_on_c, 4, 52, 0
9, 193320, Note_on_c, 4, 52, 76
9, 193320, Note_on_c, 4, 64, 76
9, 193424, Note_on_c, 4, 52, 0
9, 193424, Note_on_c, 4, 64, 0
9, 193440, Note_on_c, 4, 64, 76
9, 193440, Note_on_c, 4, 52, 76
9, 193544, Note_on_c, 4, 64, 0
9, 193544, Note_on_c, 4, 52, 0
9, 193560, Note_on_c, 4, 52, 76
9, 193560, Note_on_c, 4, 64, 76
9, 193664, Note_on_c, 4, 52, 0
9, 193664, Note_on_c, 4, 64, 0
9, 193680, Note_on_c, 4, 52, 76
9, 193680, Note_on_c, 4, 64, 76
9, 193784, Note_on_c, 4, 52, 0
9, 193784, Note_on_c, 4, 64, 0
9, 193800, Note_on_c, 4, 67, 76
9, 193800, Note_on_c, 4, 55, 76
9, 193904, Note_on_c, 4, 67, 0
9, 193904, Note_on_c, 4, 55, 0
9, 193920, Note_on_c, 4, 67, 76
9, 193920, Note_on_c, 4, 55, 76
9, 194024, Note_on_c, 4, 67, 0
9, 194024, Note_on_c, 4, 55, 0
9, 194040, Note_on_c, 4, 67, 76
9, 194040, Note_on_c, 4, 55, 76
9, 194144, Note_on_c, 4, 67, 0
9, 194144, Note_on_c, 4, 55, 0
9, 194160, Note_on_c, 4, 48, 76
9, 194160, Note_on_c, 4, 60, 76
9, 194399, Note_on_c, 4, 48, 0
9, 194399, Note_on_c, 4, 60, 0
9, 196860, Note_on_c, 4, 55, 52
9, 196911, Note_on_c, 4, 55, 0
9, 196920, Note_on_c, 4, 55, 52
9, 197024, Note_on_c, 4, 55, 0
9, 197040, Note_on_c, 4, 60, 52
9, 197279, Note_on_c, 4, 60, 0
9, 197760, Note_on_c, 4, 60, 44
9, 197999, Note_on_c, 4, 60, 0
9, 203040, Note_on_c, 4, 57, 54
9, 203099, Note_on_c, 4, 57, 0
9, 203100, Note_on_c, 4, 59, 55
9, 203159, Note_on_c, 4, 59, 0
9, 203160, Note_on_c, 4, 61, 56
9, 203399, Note_on_c, 4, 61, 0
9, 205200, Note_on_c, 4, 63, 78
9, 205259, Note_on_c, 4, 63, 0
9, 205260, Note_on_c, 4, 64, 79
9, 205319, Note_on_c, 4, 64, 0
9, 205320, Note_on_c, 4, 66, 80
9, 205409, Note_on_c, 4, 66, 0
9, 205560, Note_on_c, 4, 64, 82
9, 205560, Note_on_c, 4, 61, 82
9, 205619, Note_on_c, 4, 64, 0
9, 205619, Note_on_c, 4, 61, 0
9, 205620, Note_on_c, 4, 66, 83
9, 205620, Note_on_c, 4, 63, 83
9, 205679, Note_on_c, 4, 66, 0
9, 205679, Note_on_c, 4, 63, 0
9, 205680, Note_on_c, 4, 68, 84
9, 205680, Note_on_c, 4, 64, 84
9, 206744, Note_on_c, 4, 68, 0
9, 206744, Note_on_c, 4, 64, 0
9, 206760, Note_on_c, 4, 68, 84
9, 206760, Note_on_c, 4, 64, 84
9, 206931, Note_on_c, 4, 68, 0
9, 206931, Note_on_c, 4, 64, 0
9, 206940, Note_on_c, 4, 64, 84
9, 206940, Note_on_c, 4, 68, 84
9, 206991, Note_on_c, 4, 64, 0
9, 206991, Note_on_c, 4, 68, 0
9, 207000, Note_on_c, 4, 64, 84
9, 207000, Note_on_c, 4, 68, 84
9, 207104, Note_on_c, 4, 64, 0
9, 207104, Note_on_c, 4, 68, 0
9, 207120, Note_on_c, 4, 64, 84
9, 207120, Note_on_c, 4, 66, 84
9, 208184, Note_on_c, 4, 64, 0
9, 208184, Note_on_c, 4, 66, 0
9, 208200, Note_on_c, 4, 66, 84
9, 208200, Note_on_c, 4, 64, 84
9, 208371, Note_on_c, 4, 66, 0
9, 208371, Note_on_c, 4, 64, 0
9, 208380, Note_on_c, 4, 66, 84
9, 208380, Note_on_c, 4, 64, 84
9, 208431, Note_on_c, 4, 66, 0
9, 208431, Note_on_c, 4, 64, 0
9, 208440, Note_on_c, 4, 64, 84
9, 208440, Note_on_c, 4, 66, 84
9, 208544, Note_on_c, 4, 64, 0
9, 208544, Note_on_c, 4, 66, 0
9, 208558, Control_c, 4, 11, 48
9, 208560, Note_on_c, 4, 65, 84
9, 208919, Note_on_c, 4, 65, 0
9, 208920, Note_on_c, 4, 60, 84
9, 209279, Note_on_c, 4, 60, 0
9, 209280, Control_c, 4, 11, 48
9, 209280, Note_on_c, 4, 51, 84
9, 209320, Control_c, 4, 11, 52
9, 209360, Control_c, 4, 11, 57
9, 209400, Control_c, 4, 11, 61
9, 209440, Control_c, 4, 11, 66
9, 209480, Control_c, 4, 11, 70
9, 209520, Control_c, 4, 11, 74
9, 209560, Control_c, 4, 11, 79
9, 209600, Control_c, 4, 11, 83
9, 209624, Note_on_c, 4, 51, 0
9, 209640, Note_on_c, 4, 59, 84
9, 209640, Control_c, 4, 11, 88
9, 209680, Control_c, 4, 11, 92
9, 209720, Control_c, 4, 11, 96
9, 209744, Note_on_c, 4, 59, 0
9, 209760, Note_on_c, 4, 61, 84
9, 209760, Control_c, 4, 11, 101
9, 209800, Control_c, 4, 11, 105
9, 209811, Note_on_c, 4, 61, 0
9, 209820, Note_on_c, 4, 63, 84
9, 209840, Control_c, 4, 11, 109
9, 209871, Note_on_c, 4, 63, 0
9, 209880, Control_c, 4, 11, 114
9, 209880, Note_on_c, 4, 64, 84
9, 209920, Control_c, 4, 11, 118
9, 209931, Note_on_c, 4, 64, 0
9, 209940, Note_on_c, 4, 66, 84
9, 209960, Control_c, 4, 11, 127
9, 209991, Note_on_c, 4, 66, 0
9, 210000, Note_on_c, 4, 68, 84
9, 210000, Note_on_c, 4, 64, 84
9, 211064, Note_on_c, 4, 68, 0
9, 211064, Note_on_c, 4, 64, 0
9, 211080, Note_on_c, 4, 68, 84
9, 211080, Note_on_c, 4, 64, 84
9, 211251, Note_on_c, 4, 68, 0
9, 211251, Note_on_c, 4, 64, 0
9, 211260, Note_on_c, 4, 68, 84
9, 211260, Note_on_c, 4, 64, 84
9, 211311, Note_on_c, 4, 68, 0
9, 211311, Note_on_c, 4, 64, 0
9, 211320, Note_on_c, 4, 68, 84
9, 211320, Note_on_c, 4, 64, 84
9, 211424, Note_on_c, 4, 68, 0
9, 211424, Note_on_c, 4, 64, 0
9, 211440, Note_on_c, 4, 64, 84
9, 211440, Note_on_c, 4, 66, 84
9, 212504, Note_on_c, 4, 64, 0
9, 212504, Note_on_c, 4, 66, 0
9, 212520, Note_on_c, 4, 64, 84
9, 212520, Note_on_c, 4, 66, 84
9, 212691, Note_on_c, 4, 64, 0
9, 212691, Note_on_c, 4, 66, 0
9, 212700, Note_on_c, 4, 66, 84
9, 212700, Note_on_c, 4, 64, 84
9, 212751, Note_on_c, 4, 66, 0
9, 212751, Note_on_c, 4, 64, 0
9, 212760, Note_on_c, 4, 66, 84
9, 212760, Note_on_c, 4, 64, 84
9, 212864, Note_on_c, 4, 66, 0
9, 212864, Note_on_c, 4, 64, 0
9, 212880, Control_c, 4, 11, 48
9, 213240, Note_on_c, 4, 65, 84
9, 213599, Note_on_c, 4, 65, 0
9, 213600, Note_on_c, 4, 63, 84
9, 213600, Control_c, 4, 11, 48
9, 213640, Control_c, 4, 11, 52
9, 213680, Control_c, 4, 11, 57
9, 213720, Control_c, 4, 11, 61
9, 213760, Control_c, 4, 11, 66
9, 213800, Control_c, 4, 11, 70
9, 213840, Control_c, 4, 11, 74
9, 213880, Control_c, 4, 11, 79
9, 213920, Control_c, 4, 11, 83
9, 213960, Control_c, 4, 11, 88
9, 214000, Control_c, 4, 11, 92
9, 214040, Control_c, 4, 11, 96
9, 214080, Control_c, 4, 11, 101
9, 214120, Control_c, 4, 11, 105
9, 214160, Control_c, 4, 11, 109
9, 214184, Note_on_c, 4, 63, 0
9, 214200, Note_on_c, 4, 59, 84
9, 214200, Control_c, 4, 11, 114
9, 214240, Control_c, 4, 11, 118
9, 214280, Control_c, 4, 11, 123
9, 214289, Note_on_c, 4, 59, 0
9, 214318, Control_c, 4, 11, 127
9, 214320, Note_on_c, 4, 59, 84
9, 214851, Note_on_c, 4, 59, 0
9, 214860, Note_on_c, 4, 57, 84
9, 214911, Note_on_c, 4, 57, 0
9, 214920, Note_on_c, 4, 56, 84
9, 215001, Note_on_c, 4, 56, 0
9, 215010, Note_on_c, 4, 56, 84
9, 215039, Note_on_c, 4, 56, 0
9, 215040, Note_on_c, 4, 57, 92
9, 215100, Control_c, 4, 11, 112
9, 215571, Note_on_c, 4, 57, 0
9, 215580, Note_on_c, 4, 57, 92
9, 215580, Note_on_c, 4, 54, 92
9, 215631, Note_on_c, 4, 57, 0
9, 215631, Note_on_c, 4, 54, 0
9, 215640, Note_on_c, 4, 57, 92
9, 215640, Note_on_c, 4, 54, 92
9, 215744, Note_on_c, 4, 57, 0
9, 215744, Note_on_c, 4, 54, 0
9, 215760, Note_on_c, 4, 56, 92
9, 215760, Note_on_c, 4, 52, 92
9, 215999, Note_on_c, 4, 56, 0
9, 215999, Note_on_c, 4, 52, 0
9, 216118, Control_c, 4, 11, 127
9, 216120, Note_on_c, 4, 56, 84
9, 216359, Note_on_c, 4, 56, 0
9, 216480, Note_on_c, 4, 59, 84
9, 216719, Note_on_c, 4, 59, 0
9, 217020, Note_on_c, 4, 59, 84
9, 217071, Note_on_c, 4, 59, 0
9, 217080, Note_on_c, 4, 59, 84
9, 217184, Note_on_c, 4, 59, 0
9, 217200, Note_on_c, 4, 59, 92
9, 217260, Control_c, 4, 11, 112
9, 217424, Note_on_c, 4, 59, 0
9, 217440, Note_on_c, 4, 56, 92
9, 217521, Note_on_c, 4, 56, 0
9, 217530, Note_on_c, 4, 56, 92
9, 217559, Note_on_c, 4, 56, 0
9, 217560, Note_on_c, 4, 57, 92
9, 217731, Note_on_c, 4, 57, 0
9, 217740, Note_on_c, 4, 57, 92
9, 217740, Note_on_c, 4, 54, 92
9, 217791, Note_on_c, 4, 57, 0
9, 217791, Note_on_c, 4, 54, 0
9, 217800, Note_on_c, 4, 57, 92
9, 217800, Note_on_c, 4, 54, 92
9, 217904, Note_on_c, 4, 57, 0
9, 217904, Note_on_c, 4, 54, 0
9, 217920, Note_on_c, 4, 52, 92
9, 217920, Note_on_c, 4, 56, 92
9, 218159, Note_on_c, 4, 52, 0
9, 218159, Note_on_c, 4, 56, 0
9, 218460, Note_on_c, 4, 59, 92
9, 218511, Note_on_c, 4, 59, 0
9, 218520, Note_on_c, 4, 59, 92
9, 218624, Note_on_c, 4, 59, 0
9, 218638, Control_c, 4, 11, 127
9, 218640, Note_on_c, 4, 59, 92
9, 218700, Control_c, 4, 11, 112
9, 218864, Note_on_c, 4, 59, 0
9, 218880, Note_on_c, 4, 56, 92
9, 218961, Note_on_c, 4, 56, 0
9, 218970, Note_on_c, 4, 56, 92
9, 218999, Note_on_c, 4, 56, 0
9, 219000, Note_on_c, 4, 57, 92
9, 219171, Note_on_c, 4, 57, 0
9, 219180, Note_on_c, 4, 54, 92
9, 219180, Note_on_c, 4, 57, 92
9, 219231, Note_on_c, 4, 54, 0
9, 219231, Note_on_c, 4, 57, 0
9, 219240, Note_on_c, 4, 57, 92
9, 219240, Note_on_c, 4, 54, 92
9, 219344, Note_on_c, 4, 57, 0
9, 219344, Note_on_c, 4, 54, 0
9, 219358, Control_c, 4, 11, 127
9, 219360, Note_on_c, 4, 52, 84
9, 219479, Note_on_c, 4, 52, 0
9, 219600, Note_on_c, 4, 64, 84
9, 219600, Note_on_c, 4, 52, 84
9, 219719, Note_on_c, 4, 64, 0
9, 219719, Note_on_c, 4, 52, 0
9, 219960, Note_on_c, 4, 64, 84
9, 219960, Note_on_c, 4, 52, 84
9, 220079, Note_on_c, 4, 64, 0
9, 220079, Note_on_c, 4, 52, 0
9, 220320, Note_on_c, 4, 64, 84
9, 220320, Note_on_c, 4, 52, 84
9, 220439, Note_on_c, 4, 64, 0
9, 220439, Note_on_c, 4, 52, 0
9, 220680, Note_on_c, 4, 52, 84
9, 220680, Note_on_c, 4, 64, 84
9, 220799, Note_on_c, 4, 52, 0
9, 220799, Note_on_c, 4, 64, 0
9, 221040, Note_on_c, 4, 52, 84
9, 221040, Note_on_c, 4, 64, 84
9, 221159, Note_on_c, 4, 52, 0
9, 221159, Note_on_c, 4, 64, 0
9, 221400, Note_on_c, 4, 64, 84
9, 221400, Note_on_c, 4, 52, 84
9, 221519, Note_on_c, 4, 64, 0
9, 221519, Note_on_c, 4, 52, 0
9, 221760, Note_on_c, 4, 64, 84
9, 221760, Note_on_c, 4, 52, 84
9, 221879, Note_on_c, 4, 64, 0
9, 221879, Note_on_c, 4, 52, 0
9, 222120, Note_on_c, 4, 64, 84
9, 222120, Note_on_c, 4, 52, 84
9, 222239, Note_on_c, 4, 64, 0
9, 222239, Note_on_c, 4, 52, 0
9, 223920, Note_on_c, 4, 55, 84
9, 223920, Note_on_c, 4, 67, 84
9, 224039, Note_on_c, 4, 55, 0
9, 224039, Note_on_c, 4, 67, 0
9, 224280, Note_on_c, 4, 55, 84
9, 224280, Note_on_c, 4, 67, 84
9, 224399, Note_on_c, 4, 55, 0
9, 224399, Note_on_c, 4, 67, 0
9, 224640, Note_on_c, 4, 67, 84
9, 224640, Note_on_c, 4, 55, 84
9, 224759, Note_on_c, 4, 67, 0
9, 224759, Note_on_c, 4, 55, 0
9, 225000, Note_on_c, 4, 55, 84
9, 225000, Note_on_c, 4, 67, 84
9, 225119, Note_on_c, 4, 55, 0
9, 225119, Note_on_c, 4, 67, 0
9, 228720, Note_on_c, 4, 60, 44
9, 228891, Note_on_c, 4, 60, 0
9, 228900, Note_on_c, 4, 60, 44
9, 228951, Note_on_c, 4, 60, 0
9, 228960, Note_on_c, 4, 60, 44
9, 229064, Note_on_c, 4, 60, 0
9, 229080, Note_on_c, 4, 60, 44
9, 229251, Note_on_c, 4, 60, 0
9, 229260, Note_on_c, 4, 60, 44
9, 229311, Note_on_c, 4, 60, 0
9, 229320, Note_on_c, 4, 60, 44
9, 229424, Note_on_c, 4, 60, 0
9, 229440, Note_on_c, 4, 60, 44
9, 231584, Note_on_c, 4, 60, 0
9, 231600, Note_on_c, 4, 59, 44
9, 232304, Note_on_c, 4, 59, 0
9, 232320, Note_on_c, 4, 60, 44
9, 232559, Note_on_c, 4, 60, 0
9, 235200, Note_on_c, 4, 55, 44
9, 235731, Note_on_c, 4, 55, 0
9, 235740, Note_on_c, 4, 53, 44
9, 235784, Note_on_c, 4, 53, 0
9, 235800, Note_on_c, 4, 52, 44
9, 235889, Note_on_c, 4, 52, 0
9, 235920, Note_on_c, 4, 53, 44
9, 236069, Note_on_c, 4, 53, 0
9, 236100, Note_on_c, 4, 55, 44
9, 236144, Note_on_c, 4, 55, 0
9, 236160, Note_on_c, 4, 57, 44
9, 236249, Note_on_c, 4, 57, 0
9, 236280, Note_on_c, 4, 59, 44
9, 236429, Note_on_c, 4, 59, 0
9, 236460, Note_on_c, 4, 60, 44
9, 236504, Note_on_c, 4, 60, 0
9, 236520, Note_on_c, 4, 62, 44
9, 236609, Note_on_c, 4, 62, 0
9, 236638, Control_c, 4, 11, 64
9, 236640, Note_on_c, 4, 64, 76
9, 236709, Control_c, 4, 11, 65
9, 236777, Control_c, 4, 11, 66
9, 236846, Control_c, 4, 11, 67
9, 236914, Control_c, 4, 11, 68
9, 236983, Control_c, 4, 11, 69
9, 237051, Control_c, 4, 11, 70
9, 237120, Control_c, 4, 11, 71
9, 237189, Control_c, 4, 11, 72
9, 237257, Control_c, 4, 11, 73
9, 237326, Control_c, 4, 11, 74
9, 237394, Control_c, 4, 11, 75
9, 237463, Control_c, 4, 11, 76
9, 237531, Control_c, 4, 11, 77
9, 237600, Control_c, 4, 11, 78
9, 237669, Control_c, 4, 11, 79
9, 237737, Control_c, 4, 11, 80
9, 237806, Control_c, 4, 11, 81
9, 237874, Control_c, 4, 11, 82
9, 237943, Control_c, 4, 11, 83
9, 238011, Control_c, 4, 11, 84
9, 238064, Note_on_c, 4, 64, 0
9, 238080, Note_on_c, 4, 63, 76
9, 238080, Control_c, 4, 11, 85
9, 238149, Control_c, 4, 11, 86
9, 238217, Control_c, 4, 11, 87
9, 238286, Control_c, 4, 11, 88
9, 238354, Control_c, 4, 11, 89
9, 238423, Control_c, 4, 11, 90
9, 238491, Control_c, 4, 11, 91
9, 238560, Control_c, 4, 11, 92
9, 238629, Control_c, 4, 11, 93
9, 238697, Control_c, 4, 11, 94
9, 238766, Control_c, 4, 11, 95
9, 238834, Control_c, 4, 11, 96
9, 238903, Control_c, 4, 11, 97
9, 238971, Control_c, 4, 11, 98
9, 239040, Control_c, 4, 11, 99
9, 239109, Control_c, 4, 11, 100
9, 239177, Control_c, 4, 11, 101
9, 239246, Control_c, 4, 11, 102
9, 239314, Control_c, 4, 11, 103
9, 239383, Control_c, 4, 11, 104
9, 239451, Control_c, 4, 11, 105
9, 239504, Note_on_c, 4, 63, 0
9, 239520, Control_c, 4, 11, 106
9, 239520, Note_on_c, 4, 62, 76
9, 239589, Control_c, 4, 11, 107
9, 239657, Control_c, 4, 11, 108
9, 239726, Control_c, 4, 11, 109
9, 239794, Control_c, 4, 11, 110
9, 239863, Control_c, 4, 11, 111
9, 239864, Note_on_c, 4, 62, 0
9, 239880, Note_on_c, 4, 67, 76
9, 239931, Control_c, 4, 11, 112
9, 240000, Control_c, 4, 11, 113
9, 240069, Control_c, 4, 11, 114
9, 240137, Control_c, 4, 11, 115
9, 240206, Control_c, 4, 11, 116
9, 240274, Control_c, 4, 11, 117
9, 240343, Control_c, 4, 11, 118
9, 240411, Control_c, 4, 11, 119
9, 240480, Control_c, 4, 11, 120
9, 240549, Control_c, 4, 11, 121
9, 240617, Control_c, 4, 11, 122
9, 240686, Control_c, 4, 11, 123
9, 240754, Control_c, 4, 11, 124
9, 240823, Control_c, 4, 11, 125
9, 240891, Control_c, 4, 11, 127
9, 240944, Note_on_c, 4, 67, 0
9, 240960, Note_on_c, 4, 64, 76
9, 240960, Note_on_c, 4, 60, 76
9, 243824, Note_on_c, 4, 64, 0
9, 243824, Note_on_c, 4, 60, 0
9, 243840, Note_on_c, 4, 65, 84
9, 243840, Note_on_c, 4, 62, 84
9, 244011, Note_on_c, 4, 65, 0
9, 244011, Note_on_c, 4, 62, 0
9, 244020, Note_on_c, 4, 65, 84
9, 244020, Note_on_c, 4, 62, 84
9, 244071, Note_on_c, 4, 65, 0
9, 244071, Note_on_c, 4, 62, 0
9, 244080, Note_on_c, 4, 65, 84
9, 244080, Note_on_c, 4, 62, 84
9, 244184, Note_on_c, 4, 65, 0
9, 244184, Note_on_c, 4, 62, 0
9, 244200, Note_on_c, 4, 62, 84
9, 244200, Note_on_c, 4, 65, 84
9, 244371, Note_on_c, 4, 62, 0
9, 244371, Note_on_c, 4, 65, 0
9, 244380, Note_on_c, 4, 65, 84
9, 244380, Note_on_c, 4, 62, 84
9, 244431, Note_on_c, 4, 65, 0
9, 244431, Note_on_c, 4, 62, 0
9, 244440, Note_on_c, 4, 62, 84
9, 244440, Note_on_c, 4, 65, 84
9, 244544, Note_on_c, 4, 62, 0
9, 244544, Note_on_c, 4, 65, 0
9, 244560, Note_on_c, 4, 65, 84
9, 244560, Note_on_c, 4, 62, 84
9, 244731, Note_on_c, 4, 65, 0
9, 244731, Note_on_c, 4, 62, 0
9, 244740, Note_on_c, 4, 65, 84
9, 244740, Note_on_c, 4, 62, 84
9, 244791, Note_on_c, 4, 65, 0
9, 244791, Note_on_c, 4, 62, 0
9, 244800, Note_on_c, 4, 65, 84
9, 244800, Note_on_c, 4, 62, 84
9, 244904, Note_on_c, 4, 65, 0
9, 244904, Note_on_c, 4, 62, 0
9, 244920, Note_on_c, 4, 65, 84
9, 244920, Note_on_c, 4, 62, 84
9, 245091, Note_on_c, 4, 65, 0
9, 245091, Note_on_c, 4, 62, 0
9, 245100, Note_on_c, 4, 65, 84
9, 245100, Note_on_c, 4, 62, 84
9, 245151, Note_on_c, 4, 65, 0
9, 245151, Note_on_c, 4, 62, 0
9, 245160, Note_on_c, 4, 65, 84
9, 245160, Note_on_c, 4, 62, 84
9, 245264, Note_on_c, 4, 65, 0
9, 245264, Note_on_c, 4, 62, 0
9, 245280, Note_on_c, 4, 65, 76
9, 245280, Note_on_c, 4, 62, 76
9, 248144, Note_on_c, 4, 65, 0
9, 248144, Note_on_c, 4, 62, 0
9, 248160, Note_on_c, 4, 64, 84
9, 248160, Note_on_c, 4, 59, 84
9, 248331, Note_on_c, 4, 64, 0
9, 248331, Note_on_c, 4, 59, 0
9, 248340, Note_on_c, 4, 56, 84
9, 248340, Note_on_c, 4, 59, 84
9, 248391, Note_on_c, 4, 56, 0
9, 248391, Note_on_c, 4, 59, 0
9, 248400, Note_on_c, 4, 59, 84
9, 248400, Note_on_c, 4, 56, 84
9, 248504, Note_on_c, 4, 59, 0
9, 248504, Note_on_c, 4, 56, 0
9, 248520, Note_on_c, 4, 56, 84
9, 248520, Note_on_c, 4, 59, 84
9, 248691, Note_on_c, 4, 56, 0
9, 248691, Note_on_c, 4, 59, 0
9, 248700, Note_on_c, 4, 59, 84
9, 248700, Note_on_c, 4, 56, 84
9, 248751, Note_on_c, 4, 59, 0
9, 248751, Note_on_c, 4, 56, 0
9, 248760, Note_on_c, 4, 56, 84
9, 248760, Note_on_c, 4, 59, 84
9, 248864, Note_on_c, 4, 56, 0
9, 248864, Note_on_c, 4, 59, 0
9, 248880, Note_on_c, 4, 59, 84
9, 248880, Note_on_c, 4, 56, 84
9, 249051, Note_on_c, 4, 59, 0
9, 249051, Note_on_c, 4, 56, 0
9, 249060, Note_on_c, 4, 59, 84
9, 249060, Note_on_c, 4, 56, 84
9, 249111, Note_on_c, 4, 59, 0
9, 249111, Note_on_c, 4, 56, 0
9, 249120, Note_on_c, 4, 59, 84
9, 249120, Note_on_c, 4, 56, 84
9, 249224, Note_on_c, 4, 59, 0
9, 249224, Note_on_c, 4, 56, 0
9, 249240, Note_on_c, 4, 59, 84
9, 249240, Note_on_c, 4, 56, 84
9, 249411, Note_on_c, 4, 59, 0
9, 249411, Note_on_c, 4, 56, 0
9, 249420, Note_on_c, 4, 56, 84
9, 249420, Note_on_c, 4, 59, 84
9, 249471, Note_on_c, 4, 56, 0
9, 249471, Note_on_c, 4, 59, 0
9, 249480, Note_on_c, 4, 59, 84
9, 249480, Note_on_c, 4, 56, 84
9, 249584, Note_on_c, 4, 59, 0
9, 249584, Note_on_c, 4, 56, 0
9, 249600, Note_on_c, 4, 56, 84
9, 249600, Note_on_c, 4, 59, 84
9, 252719, Note_on_c, 4, 56, 0
9, 252719, Note_on_c, 4, 59, 0
9, 252840, Note_on_c, 4, 64, 92
9, 252900, Control_c, 4, 11, 112
9, 253011, Note_on_c, 4, 64, 0
9, 253020, Note_on_c, 4, 64, 92
9, 253071, Note_on_c, 4, 64, 0
9, 253080, Note_on_c, 4, 64, 92
9, 253199, Note_on_c, 4, 64, 0
9, 253440, Control_c, 4, 11, 127
9, 253560, Note_on_c, 4, 65, 92
9, 253620, Control_c, 4, 11, 112
9, 253731, Note_on_c, 4, 65, 0
9, 253740, Note_on_c, 4, 65, 92
9, 253791, Note_on_c, 4, 65, 0
9, 253800, Note_on_c, 4, 65, 92
9, 253919, Note_on_c, 4, 65, 0
9, 254160, Control_c, 4, 11, 127
9, 254280, Note_on_c, 4, 65, 92
9, 254340, Control_c, 4, 11, 112
9, 254451, Note_on_c, 4, 65, 0
9, 254460, Note_on_c, 4, 65, 92
9, 254511, Note_on_c, 4, 65, 0
9, 254520, Note_on_c, 4, 65, 92
9, 254624, Note_on_c, 4, 65, 0
9, 254638, Control_c, 4, 11, 127
9, 254640, Note_on_c, 4, 61, 52
9, 255344, Note_on_c, 4, 61, 0
9, 255360, Note_on_c, 4, 60, 52
9, 256064, Note_on_c, 4, 60, 0
9, 256080, Note_on_c, 4, 53, 52
9, 256080, Note_on_c, 4, 60, 52
9, 256784, Note_on_c, 4, 53, 0
9, 256784, Note_on_c, 4, 60, 0
9, 256800, Note_on_c, 4, 60, 52
9, 257039, Note_on_c, 4, 60, 0
9, 257160, Note_on_c, 4, 65, 52
9, 257399, Note_on_c, 4, 65, 0
9, 257520, Note_on_c, 4, 60, 52
9, 257520, Note_on_c, 4, 48, 52
9, 257759, Note_on_c, 4, 60, 0
9, 257759, Note_on_c, 4, 48, 0
9, 257880, Note_on_c, 4, 60, 52
9, 257880, Note_on_c, 4, 53, 52
9, 258119, Note_on_c, 4, 60, 0
9, 258119, Note_on_c, 4, 53, 0
9, 258240, Note_on_c, 4, 64, 52
9, 258771, Note_on_c, 4, 64, 0
9, 258780, Note_on_c, 4, 62, 52
9, 258824, Note_on_c, 4, 62, 0
9, 258840, Note_on_c, 4, 60, 52
9, 258929, Note_on_c, 4, 60, 0
9, 258960, Note_on_c, 4, 67, 52
9, 259199, Note_on_c, 4, 67, 0
9, 259320, Note_on_c, 4, 60, 52
9, 259559, Note_on_c, 4, 60, 0
9, 259680, Note_on_c, 4, 55, 52
9, 259680, Note_on_c, 4, 65, 52
9, 259919, Note_on_c, 4, 55, 0
9, 259919, Note_on_c, 4, 65, 0
9, 260040, Note_on_c, 4, 64, 52
9, 260040, Note_on_c, 4, 48, 52
9, 260279, Note_on_c, 4, 64, 0
9, 260279, Note_on_c, 4, 48, 0
9, 262560, Note_on_c, 4, 65, 52
9, 263091, Note_on_c, 4, 65, 0
9, 263100, Note_on_c, 4, 64, 52
9, 263151, Note_on_c, 4, 64, 0
9, 263160, Note_on_c, 4, 62, 52
9, 263264, Note_on_c, 4, 62, 0
9, 263280, Note_on_c, 4, 57, 52
9, 263519, Note_on_c, 4, 57, 0
9, 263640, Note_on_c, 4, 62, 52
9, 263879, Note_on_c, 4, 62, 0
9, 264000, Note_on_c, 4, 67, 52
9, 264000, Note_on_c, 4, 64, 52
9, 264239, Note_on_c, 4, 67, 0
9, 264239, Note_on_c, 4, 64, 0
9, 264360, Note_on_c, 4, 62, 52
9, 264360, Note_on_c, 4, 65, 52
9, 264599, Note_on_c, 4, 62, 0
9, 264599, Note_on_c, 4, 65, 0
9, 264720, Note_on_c, 4, 57, 52
9, 264959, Note_on_c, 4, 57, 0
9, 265080, Note_on_c, 4, 62, 52
9, 265319, Note_on_c, 4, 62, 0
9, 265440, Note_on_c, 4, 67, 52
9, 265440, Note_on_c, 4, 64, 52
9, 265679, Note_on_c, 4, 67, 0
9, 265679, Note_on_c, 4, 64, 0
9, 265800, Note_on_c, 4, 65, 52
9, 265800, Note_on_c, 4, 62, 52
9, 266039, Note_on_c, 4, 65, 0
9, 266039, Note_on_c, 4, 62, 0
9, 267780, Note_on_c, 4, 58, 55
9, 267780, Note_on_c, 4, 57, 55
9, 267831, Note_on_c, 4, 58, 0
9, 267831, Note_on_c, 4, 57, 0
9, 267840, Note_on_c, 4, 57, 56
9, 267840, Note_on_c, 4, 58, 56
9, 267944, Note_on_c, 4, 57, 0
9, 267944, Note_on_c, 4, 58, 0
9, 267960, Note_on_c, 4, 58, 56
9, 267960, Note_on_c, 4, 57, 56
9, 268131, Note_on_c, 4, 58, 0
9, 268131, Note_on_c, 4, 57, 0
9, 268140, Note_on_c, 4, 57, 56
9, 268140, Note_on_c, 4, 58, 56
9, 268191, Note_on_c, 4, 57, 0
9, 268191, Note_on_c, 4, 58, 0
9, 268200, Note_on_c, 4, 57, 56
9, 268200, Note_on_c, 4, 58, 56
9, 268304, Note_on_c, 4, 57, 0
9, 268304, Note_on_c, 4, 58, 0
9, 268320, Note_on_c, 4, 57, 57
9, 268320, Note_on_c, 4, 58, 57
9, 268491, Note_on_c, 4, 57, 0
9, 268491, Note_on_c, 4, 58, 0
9, 268500, Note_on_c, 4, 57, 57
9, 268500, Note_on_c, 4, 58, 57
9, 268551, Note_on_c, 4, 57, 0
9, 268551, Note_on_c, 4, 58, 0
9, 268560, Note_on_c, 4, 58, 57
9, 268560, Note_on_c, 4, 57, 57
9, 268664, Note_on_c, 4, 58, 0
9, 268664, Note_on_c, 4, 57, 0
9, 268680, Note_on_c, 4, 58, 58
9, 268680, Note_on_c, 4, 57, 58
9, 268851, Note_on_c, 4, 58, 0
9, 268851, Note_on_c, 4, 57, 0
9, 268860, Note_on_c, 4, 58, 58
9, 268860, Note_on_c, 4, 57, 58
9, 268911, Note_on_c, 4, 58, 0
9, 268911, Note_on_c, 4, 57, 0
9, 268920, Note_on_c, 4, 58, 58
9, 268920, Note_on_c, 4, 57, 58
9, 269024, Note_on_c, 4, 58, 0
9, 269024, Note_on_c, 4, 57, 0
9, 269040, Note_on_c, 4, 57, 58
9, 269040, Note_on_c, 4, 58, 58
9, 269211, Note_on_c, 4, 57, 0
9, 269211, Note_on_c, 4, 58, 0
9, 269220, Note_on_c, 4, 58, 59
9, 269220, Note_on_c, 4, 57, 59
9, 269271, Note_on_c, 4, 58, 0
9, 269271, Note_on_c, 4, 57, 0
9, 269280, Note_on_c, 4, 58, 59
9, 269280, Note_on_c, 4, 57, 59
9, 269384, Note_on_c, 4, 58, 0
9, 269384, Note_on_c, 4, 57, 0
9, 269400, Note_on_c, 4, 58, 59
9, 269400, Note_on_c, 4, 57, 59
9, 269571, Note_on_c, 4, 58, 0
9, 269571, Note_on_c, 4, 57, 0
9, 269580, Note_on_c, 4, 58, 60
9, 269580, Note_on_c, 4, 57, 60
9, 269631, Note_on_c, 4, 58, 0
9, 269631, Note_on_c, 4, 57, 0
9, 269640, Note_on_c, 4, 57, 60
9, 269640, Note_on_c, 4, 58, 60
9, 269744, Note_on_c, 4, 57, 0
9, 269744, Note_on_c, 4, 58, 0
9, 269760, Note_on_c, 4, 57, 60
9, 269760, Note_on_c, 4, 58, 60
9, 269931, Note_on_c, 4, 57, 0
9, 269931, Note_on_c, 4, 58, 0
9, 269940, Note_on_c, 4, 58, 61
9, 269940, Note_on_c, 4, 57, 61
9, 269991, Note_on_c, 4, 58, 0
9, 269991, Note_on_c, 4, 57, 0
9, 270000, Note_on_c, 4, 57, 61
9, 270000, Note_on_c, 4, 58, 61
9, 270104, Note_on_c, 4, 57, 0
9, 270104, Note_on_c, 4, 58, 0
9, 270120, Note_on_c, 4, 57, 61
9, 270120, Note_on_c, 4, 58, 61
9, 270291, Note_on_c, 4, 57, 0
9, 270291, Note_on_c, 4, 58, 0
9, 270300, Note_on_c, 4, 58, 61
9, 270300, Note_on_c, 4, 57, 61
9, 270351, Note_on_c, 4, 58, 0
9, 270351, Note_on_c, 4, 57, 0
9, 270360, Note_on_c, 4, 57, 62
9, 270360, Note_on_c, 4, 58, 62
9, 270464, Note_on_c, 4, 57, 0
9, 270464, Note_on_c, 4, 58, 0
9, 270480, Note_on_c, 4, 58, 62
9, 270651, Note_on_c, 4, 58, 0
9, 270660, Note_on_c, 4, 60, 62
9, 270660, Note_on_c, 4, 58, 62
9, 270711, Note_on_c, 4, 60, 0
9, 270711, Note_on_c, 4, 58, 0
9, 270720, Note_on_c, 4, 60, 62
9, 270720, Note_on_c, 4, 58, 62
9, 270824, Note_on_c, 4, 60, 0
9, 270824, Note_on_c, 4, 58, 0
9, 270840, Note_on_c, 4, 58, 63
9, 270840, Note_on_c, 4, 60, 63
9, 271011, Note_on_c, 4, 58, 0
9, 271011, Note_on_c, 4, 60, 0
9, 271020, Note_on_c, 4, 58, 63
9, 271020, Note_on_c, 4, 60, 63
9, 271071, Note_on_c, 4, 58, 0
9, 271071, Note_on_c, 4, 60, 0
9, 271080, Note_on_c, 4, 58, 63
9, 271080, Note_on_c, 4, 60, 63
9, 271184, Note_on_c, 4, 58, 0
9, 271184, Note_on_c, 4, 60, 0
9, 271200, Note_on_c, 4, 60, 64
9, 271200, Note_on_c, 4, 58, 64
9, 271371, Note_on_c, 4, 60, 0
9, 271371, Note_on_c, 4, 58, 0
9, 271380, Note_on_c, 4, 60, 64
9, 271380, Note_on_c, 4, 58, 64
9, 271431, Note_on_c, 4, 60, 0
9, 271431, Note_on_c, 4, 58, 0
9, 271440, Note_on_c, 4, 58, 64
9, 271440, Note_on_c, 4, 60, 64
9, 271544, Note_on_c, 4, 58, 0
9, 271544, Note_on_c, 4, 60, 0
9, 271560, Note_on_c, 4, 60, 64
9, 271560, Note_on_c, 4, 58, 64
9, 271731, Note_on_c, 4, 60, 0
9, 271731, Note_on_c, 4, 58, 0
9, 271740, Note_on_c, 4, 58, 65
9, 271740, Note_on_c, 4, 60, 65
9, 271791, Note_on_c, 4, 58, 0
9, 271791, Note_on_c, 4, 60, 0
9, 271800, Note_on_c, 4, 60, 65
9, 271800, Note_on_c, 4, 58, 65
9, 271904, Note_on_c, 4, 60, 0
9, 271904, Note_on_c, 4, 58, 0
9, 271920, Note_on_c, 4, 60, 65
9, 271920, Note_on_c, 4, 58, 65
9, 272091, Note_on_c, 4, 60, 0
9, 272091, Note_on_c, 4, 58, 0
9, 272100, Note_on_c, 4, 58, 66
9, 272100, Note_on_c, 4, 60, 66
9, 272151, Note_on_c, 4, 58, 0
9, 272151, Note_on_c, 4, 60, 0
9, 272160, Note_on_c, 4, 60, 66
9, 272160, Note_on_c, 4, 58, 66
9, 272264, Note_on_c, 4, 60, 0
9, 272264, Note_on_c, 4, 58, 0
9, 272280, Note_on_c, 4, 58, 66
9, 272280, Note_on_c, 4, 60, 66
9, 272451, Note_on_c, 4, 58, 0
9, 272451, Note_on_c, 4, 60, 0
9, 272460, Note_on_c, 4, 60, 67
9, 272460, Note_on_c, 4, 58, 67
9, 272511, Note_on_c, 4, 60, 0
9, 272511, Note_on_c, 4, 58, 0
9, 272520, Note_on_c, 4, 60, 67
9, 272520, Note_on_c, 4, 58, 67
9, 272624, Note_on_c, 4, 60, 0
9, 272624, Note_on_c, 4, 58, 0
9, 272640, Note_on_c, 4, 58, 67
9, 272640, Note_on_c, 4, 60, 67
9, 272811, Note_on_c, 4, 58, 0
9, 272811, Note_on_c, 4, 60, 0
9, 272820, Note_on_c, 4, 58, 67
9, 272820, Note_on_c, 4, 60, 67
9, 272871, Note_on_c, 4, 58, 0
9, 272871, Note_on_c, 4, 60, 0
9, 272880, Note_on_c, 4, 60, 68
9, 272880, Note_on_c, 4, 58, 68
9, 272984, Note_on_c, 4, 60, 0
9, 272984, Note_on_c, 4, 58, 0
9, 273000, Note_on_c, 4, 60, 68
9, 273000, Note_on_c, 4, 58, 68
9, 273171, Note_on_c, 4, 60, 0
9, 273171, Note_on_c, 4, 58, 0
9, 273180, Note_on_c, 4, 60, 68
9, 273180, Note_on_c, 4, 58, 68
9, 273231, Note_on_c, 4, 60, 0
9, 273231, Note_on_c, 4, 58, 0
9, 273240, Note_on_c, 4, 60, 68
9, 273240, Note_on_c, 4, 58, 68
9, 273344, Note_on_c, 4, 60, 0
9, 273344, Note_on_c, 4, 58, 0
9, 273360, Note_on_c, 4, 60, 69
9, 273531, Note_on_c, 4, 60, 0
9, 273540, Note_on_c, 4, 62, 69
9, 273540, Note_on_c, 4, 60, 69
9, 273591, Note_on_c, 4, 62, 0
9, 273591, Note_on_c, 4, 60, 0
9, 273600, Note_on_c, 4, 60, 69
9, 273600, Note_on_c, 4, 62, 69
9, 273704, Note_on_c, 4, 60, 0
9, 273704, Note_on_c, 4, 62, 0
9, 273720, Note_on_c, 4, 60, 70
9, 273720, Note_on_c, 4, 62, 70
9, 273891, Note_on_c, 4, 60, 0
9, 273891, Note_on_c, 4, 62, 0
9, 273900, Note_on_c, 4, 60, 70
9, 273900, Note_on_c, 4, 62, 70
9, 273951, Note_on_c, 4, 60, 0
9, 273951, Note_on_c, 4, 62, 0
9, 273960, Note_on_c, 4, 62, 70
9, 273960, Note_on_c, 4, 60, 70
9, 274064, Note_on_c, 4, 62, 0
9, 274064, Note_on_c, 4, 60, 0
9, 274080, Note_on_c, 4, 62, 70
9, 274080, Note_on_c, 4, 60, 70
9, 274251, Note_on_c, 4, 62, 0
9, 274251, Note_on_c, 4, 60, 0
9, 274260, Note_on_c, 4, 62, 71
9, 274260, Note_on_c, 4, 60, 71
9, 274311, Note_on_c, 4, 62, 0
9, 274311, Note_on_c, 4, 60, 0
9, 274320, Note_on_c, 4, 60, 71
9, 274320, Note_on_c, 4, 62, 71
9, 274424, Note_on_c, 4, 60, 0
9, 274424, Note_on_c, 4, 62, 0
9, 274440, Note_on_c, 4, 62, 71
9, 274440, Note_on_c, 4, 60, 71
9, 274611, Note_on_c, 4, 62, 0
9, 274611, Note_on_c, 4, 60, 0
9, 274620, Note_on_c, 4, 62, 72
9, 274620, Note_on_c, 4, 60, 72
9, 274671, Note_on_c, 4, 62, 0
9, 274671, Note_on_c, 4, 60, 0
9, 274680, Note_on_c, 4, 60, 72
9, 274680, Note_on_c, 4, 62, 72
9, 274784, Note_on_c, 4, 60, 0
9, 274784, Note_on_c, 4, 62, 0
9, 274800, Note_on_c, 4, 60, 72
9, 274800, Note_on_c, 4, 62, 72
9, 274971, Note_on_c, 4, 60, 0
9, 274971, Note_on_c, 4, 62, 0
9, 274980, Note_on_c, 4, 60, 73
9, 274980, Note_on_c, 4, 62, 73
9, 275031, Note_on_c, 4, 60, 0
9, 275031, Note_on_c, 4, 62, 0
9, 275040, Note_on_c, 4, 62, 73
9, 275040, Note_on_c, 4, 60, 73
9, 275144, Note_on_c, 4, 62, 0
9, 275144, Note_on_c, 4, 60, 0
9, 275160, Note_on_c, 4, 62, 73
9, 275160, Note_on_c, 4, 60, 73
9, 275331, Note_on_c, 4, 62, 0
9, 275331, Note_on_c, 4, 60, 0
9, 275340, Note_on_c, 4, 60, 73
9, 275340, Note_on_c, 4, 62, 73
9, 275391, Note_on_c, 4, 60, 0
9, 275391, Note_on_c, 4, 62, 0
9, 275400, Note_on_c, 4, 60, 74
9, 275400, Note_on_c, 4, 62, 74
9, 275504, Note_on_c, 4, 60, 0
9, 275504, Note_on_c, 4, 62, 0
9, 275520, Note_on_c, 4, 60, 74
9, 275520, Note_on_c, 4, 62, 74
9, 275691, Note_on_c, 4, 60, 0
9, 275691, Note_on_c, 4, 62, 0
9, 275700, Note_on_c, 4, 62, 74
9, 275700, Note_on_c, 4, 60, 74
9, 275751, Note_on_c, 4, 62, 0
9, 275751, Note_on_c, 4, 60, 0
9, 275760, Note_on_c, 4, 60, 74
9, 275760, Note_on_c, 4, 62, 74
9, 275864, Note_on_c, 4, 60, 0
9, 275864, Note_on_c, 4, 62, 0
9, 275880, Note_on_c, 4, 62, 75
9, 275880, Note_on_c, 4, 60, 75
9, 276051, Note_on_c, 4, 62, 0
9, 276051, Note_on_c, 4, 60, 0
9, 276060, Note_on_c, 4, 62, 75
9, 276060, Note_on_c, 4, 60, 75
9, 276111, Note_on_c, 4, 62, 0
9, 276111, Note_on_c, 4, 60, 0
9, 276120, Note_on_c, 4, 60, 75
9, 276120, Note_on_c, 4, 62, 75
9, 276224, Note_on_c, 4, 60, 0
9, 276224, Note_on_c, 4, 62, 0
9, 276240, Note_on_c, 4, 62, 76
9, 276240, Note_on_c, 4, 58, 76
9, 276479, Note_on_c, 4, 62, 0
9, 276479, Note_on_c, 4, 58, 0
9, 276600, Note_on_c, 4, 46, 76
9, 276600, Note_on_c, 4, 58, 76
9, 276719, Note_on_c, 4, 46, 0
9, 276719, Note_on_c, 4, 58, 0
9, 276780, Note_on_c, 4, 58, 76
9, 276780, Note_on_c, 4, 46, 76
9, 276831, Note_on_c, 4, 58, 0
9, 276831, Note_on_c, 4, 46, 0
9, 276840, Note_on_c, 4, 45, 76
9, 276840, Note_on_c, 4, 57, 76
9, 276944, Note_on_c, 4, 45, 0
9, 276944, Note_on_c, 4, 57, 0
9, 276960, Note_on_c, 4, 47, 76
9, 276960, Note_on_c, 4, 59, 76
9, 277199, Note_on_c, 4, 47, 0
9, 277199, Note_on_c, 4, 59, 0
9, 277320, Note_on_c, 4, 59, 76
9, 277320, Note_on_c, 4, 47, 76
9, 277439, Note_on_c, 4, 59, 0
9, 277439, Note_on_c, 4, 47, 0
9, 277500, Note_on_c, 4, 47, 76
9, 277500, Note_on_c, 4, 59, 76
9, 277551, Note_on_c, 4, 47, 0
9, 277551, Note_on_c, 4, 59, 0
9, 277560, Note_on_c, 4, 47, 76
9, 277560, Note_on_c, 4, 59, 76
9, 277664, Note_on_c, 4, 47, 0
9, 277664, Note_on_c, 4, 59, 0
9, 277680, Note_on_c, 4, 60, 76
9, 277680, Note_on_c, 4, 48, 76
9, 277919, Note_on_c, 4, 60, 0
9, 277919, Note_on_c, 4, 48, 0
9, 278040, Note_on_c, 4, 60, 76
9, 278040, Note_on_c, 4, 48, 76
9, 278159, Note_on_c, 4, 60, 0
9, 278159, Note_on_c, 4, 48, 0
9, 278220, Note_on_c, 4, 60, 76
9, 278220, Note_on_c, 4, 48, 76
9, 278271, Note_on_c, 4, 60, 0
9, 278271, Note_on_c, 4, 48, 0
9, 278280, Note_on_c, 4, 47, 76
9, 278280, Note_on_c, 4, 59, 76
9, 278384, Note_on_c, 4, 47, 0
9, 278384, Note_on_c, 4, 59, 0
9, 278400, Note_on_c, 4, 49, 76
9, 278400, Note_on_c, 4, 61, 76
9, 278639, Note_on_c, 4, 49, 0
9, 278639, Note_on_c, 4, 61, 0
9, 278760, Note_on_c, 4, 61, 76
9, 278760, Note_on_c, 4, 49, 76
9, 278879, Note_on_c, 4, 61, 0
9, 278879, Note_on_c, 4, 49, 0
9, 278940, Note_on_c, 4, 49, 76
9, 278940, Note_on_c, 4, 61, 76
9, 278991, Note_on_c, 4, 49, 0
9, 278991, Note_on_c, 4, 61, 0
9, 279000, Note_on_c, 4, 61, 76
9, 279000, Note_on_c, 4, 49, 76
9, 279104, Note_on_c, 4, 61, 0
9, 279104, Note_on_c, 4, 49, 0
9, 279120, Note_on_c, 4, 50, 84
9, 279120, Note_on_c, 4, 62, 84
9, 279239, Note_on_c, 4, 50, 0
9, 279239, Note_on_c, 4, 62, 0
9, 279300, Note_on_c, 4, 50, 84
9, 279351, Note_on_c, 4, 50, 0
9, 279360, Note_on_c, 4, 49, 84
9, 279464, Note_on_c, 4, 49, 0
9, 279480, Note_on_c, 4, 50, 84
9, 279599, Note_on_c, 4, 50, 0
9, 279660, Note_on_c, 4, 50, 84
9, 279711, Note_on_c, 4, 50, 0
9, 279720, Note_on_c, 4, 49, 84
9, 279824, Note_on_c, 4, 49, 0
9, 279840, Note_on_c, 4, 50, 84
9, 279959, Note_on_c, 4, 50, 0
9, 280020, Note_on_c, 4, 50, 84
9, 280071, Note_on_c, 4, 50, 0
9, 280080, Note_on_c, 4, 49, 84
9, 280184, Note_on_c, 4, 49, 0
9, 280200, Note_on_c, 4, 50, 84
9, 280319, Note_on_c, 4, 50, 0
9, 280380, Note_on_c, 4, 50, 84
9, 280431, Note_on_c, 4, 50, 0
9, 280440, Note_on_c, 4, 49, 84
9, 280544, Note_on_c, 4, 49, 0
9, 280560, Note_on_c, 4, 50, 84
9, 280679, Note_on_c, 4, 50, 0
9, 280740, Note_on_c, 4, 65, 84
9, 280791, Note_on_c, 4, 65, 0
9, 280800, Note_on_c, 4, 67, 84
9, 280904, Note_on_c, 4, 67, 0
9, 280920, Note_on_c, 4, 69, 84
9, 281039, Note_on_c, 4, 69, 0
9, 281100, Note_on_c, 4, 62, 84
9, 281151, Note_on_c, 4, 62, 0
9, 281160, Note_on_c, 4, 64, 84
9, 281264, Note_on_c, 4, 64, 0
9, 281280, Note_on_c, 4, 65, 84
9, 281399, Note_on_c, 4, 65, 0
9, 281460, Note_on_c, 4, 53, 84
9, 281511, Note_on_c, 4, 53, 0
9, 281520, Note_on_c, 4, 55, 84
9, 281624, Note_on_c, 4, 55, 0
9, 281640, Note_on_c, 4, 57, 84
9, 281879, Note_on_c, 4, 57, 0
9, 282000, Note_on_c, 4, 48, 84
9, 282119, Note_on_c, 4, 48, 0
9, 282180, Note_on_c, 4, 48, 84
9, 282231, Note_on_c, 4, 48, 0
9, 282240, Note_on_c, 4, 47, 84
9, 282344, Note_on_c, 4, 47, 0
9, 282360, Note_on_c, 4, 48, 84
9, 282479, Note_on_c, 4, 48, 0
9, 282540, Note_on_c, 4, 48, 84
9, 282591, Note_on_c, 4, 48, 0
9, 282600, Note_on_c, 4, 47, 84
9, 282704, Note_on_c, 4, 47, 0
9, 282720, Note_on_c, 4, 48, 84
9, 282839, Note_on_c, 4, 48, 0
9, 282900, Note_on_c, 4, 48, 84
9, 282951, Note_on_c, 4, 48, 0
9, 282960, Note_on_c, 4, 47, 84
9, 283064, Note_on_c, 4, 47, 0
9, 283080, Note_on_c, 4, 48, 84
9, 283199, Note_on_c, 4, 48, 0
9, 283260, Note_on_c, 4, 48, 84
9, 283311, Note_on_c, 4, 48, 0
9, 283320, Note_on_c, 4, 47, 84
9, 283424, Note_on_c, 4, 47, 0
9, 283440, Note_on_c, 4, 48, 84
9, 283559, Note_on_c, 4, 48, 0
9, 283620, Note_on_c, 4, 60, 84
9, 283671, Note_on_c, 4, 60, 0
9, 283680, Note_on_c, 4, 62, 84
9, 283784, Note_on_c, 4, 62, 0
9, 283800, Note_on_c, 4, 64, 84
9, 283919, Note_on_c, 4, 64, 0
9, 283980, Note_on_c, 4, 57, 84
9, 284031, Note_on_c, 4, 57, 0
9, 284040, Note_on_c, 4, 59, 84
9, 284144, Note_on_c, 4, 59, 0
9, 284160, Note_on_c, 4, 60, 84
9, 284279, Note_on_c, 4, 60, 0
9, 284340, Note_on_c, 4, 60, 84
9, 284391, Note_on_c, 4, 60, 0
9, 284400, Note_on_c, 4, 62, 84
9, 284504, Note_on_c, 4, 62, 0
9, 284520, Note_on_c, 4, 64, 84
9, 284639, Note_on_c, 4, 64, 0
9, 284700, Note_on_c, 4, 64, 84
9, 284751, Note_on_c, 4, 64, 0
9, 284760, Note_on_c, 4, 64, 84
9, 284864, Note_on_c, 4, 64, 0
9, 284880, Note_on_c, 4, 47, 84
9, 284999, Note_on_c, 4, 47, 0
9, 285060, Note_on_c, 4, 47, 84
9, 285111, Note_on_c, 4, 47, 0
9, 285120, Note_on_c, 4, 46, 84
9, 285224, Note_on_c, 4, 46, 0
9, 285240, Note_on_c, 4, 47, 84
9, 285359, Note_on_c, 4, 47, 0
9, 285420, Note_on_c, 4, 47, 84
9, 285471, Note_on_c, 4, 47, 0
9, 285480, Note_on_c, 4, 46, 84
9, 285584, Note_on_c, 4, 46, 0
9, 285600, Note_on_c, 4, 47, 84
9, 285719, Note_on_c, 4, 47, 0
9, 285780, Note_on_c, 4, 47, 84
9, 285831, Note_on_c, 4, 47, 0
9, 285840, Note_on_c, 4, 46, 84
9, 285944, Note_on_c, 4, 46, 0
9, 285960, Note_on_c, 4, 47, 84
9, 286079, Note_on_c, 4, 47, 0
9, 286140, Note_on_c, 4, 47, 84
9, 286191, Note_on_c, 4, 47, 0
9, 286200, Note_on_c, 4, 46, 84
9, 286304, Note_on_c, 4, 46, 0
9, 286320, Note_on_c, 4, 47, 84
9, 286439, Note_on_c, 4, 47, 0
9, 286500, Note_on_c, 4, 62, 84
9, 286551, Note_on_c, 4, 62, 0
9, 286560, Note_on_c, 4, 64, 84
9, 286664, Note_on_c, 4, 64, 0
9, 286680, Note_on_c, 4, 65, 84
9, 286919, Note_on_c, 4, 65, 0
9, 287220, Note_on_c, 4, 59, 84
9, 287271, Note_on_c, 4, 59, 0
9, 287280, Note_on_c, 4, 60, 84
9, 287384, Note_on_c, 4, 60, 0
9, 287400, Note_on_c, 4, 62, 84
9, 287639, Note_on_c, 4, 62, 0
9, 287940, Note_on_c, 4, 56, 84
9, 287991, Note_on_c, 4, 56, 0
9, 288000, Note_on_c, 4, 57, 84
9, 288104, Note_on_c, 4, 57, 0
9, 288120, Note_on_c, 4, 59, 84
9, 288359, Note_on_c, 4, 59, 0
9, 288660, Note_on_c, 4, 59, 84
9, 288711, Note_on_c, 4, 59, 0
9, 288720, Note_on_c, 4, 60, 84
9, 288824, Note_on_c, 4, 60, 0
9, 288840, Note_on_c, 4, 62, 84
9, 289079, Note_on_c, 4, 62, 0
9, 294960, Note_on_c, 4, 61, 88
9, 294960, Note_on_c, 4, 49, 88
9, 295131, Note_on_c, 4, 61, 0
9, 295131, Note_on_c, 4, 49, 0
9, 295140, Note_on_c, 4, 61, 88
9, 295140, Note_on_c, 4, 49, 88
9, 295191, Note_on_c, 4, 61, 0
9, 295191, Note_on_c, 4, 49, 0
9, 295200, Note_on_c, 4, 49, 88
9, 295200, Note_on_c, 4, 61, 88
9, 295304, Note_on_c, 4, 49, 0
9, 295304, Note_on_c, 4, 61, 0
9, 295320, Note_on_c, 4, 61, 88
9, 295320, Note_on_c, 4, 49, 88
9, 295491, Note_on_c, 4, 61, 0
9, 295491, Note_on_c, 4, 49, 0
9, 295500, Note_on_c, 4, 49, 88
9, 295500, Note_on_c, 4, 61, 88
9, 295551, Note_on_c, 4, 49, 0
9, 295551, Note_on_c, 4, 61, 0
9, 295560, Note_on_c, 4, 49, 88
9, 295560, Note_on_c, 4, 61, 88
9, 295664, Note_on_c, 4, 49, 0
9, 295664, Note_on_c, 4, 61, 0
9, 295680, Note_on_c, 4, 61, 88
9, 295680, Note_on_c, 4, 49, 88
9, 295851, Note_on_c, 4, 61, 0
9, 295851, Note_on_c, 4, 49, 0
9, 295860, Note_on_c, 4, 61, 88
9, 295860, Note_on_c, 4, 49, 88
9, 295911, Note_on_c, 4, 61, 0
9, 295911, Note_on_c, 4, 49, 0
9, 295920, Note_on_c, 4, 49, 88
9, 295920, Note_on_c, 4, 61, 88
9, 296024, Note_on_c, 4, 49, 0
9, 296024, Note_on_c, 4, 61, 0
9, 296040, Note_on_c, 4, 61, 88
9, 296040, Note_on_c, 4, 49, 88
9, 296211, Note_on_c, 4, 61, 0
9, 296211, Note_on_c, 4, 49, 0
9, 296220, Note_on_c, 4, 49, 88
9, 296220, Note_on_c, 4, 61, 88
9, 296271, Note_on_c, 4, 49, 0
9, 296271, Note_on_c, 4, 61, 0
9, 296280, Note_on_c, 4, 61, 88
9, 296280, Note_on_c, 4, 49, 88
9, 296384, Note_on_c, 4, 61, 0
9, 296384, Note_on_c, 4, 49, 0
9, 296400, Note_on_c, 4, 49, 84
9, 296400, Note_on_c, 4, 61, 84
9, 296639, Note_on_c, 4, 49, 0
9, 296639, Note_on_c, 4, 61, 0
9, 297780, Note_on_c, 4, 61, 84
9, 297780, Note_on_c, 4, 49, 84
9, 297831, Note_on_c, 4, 61, 0
9, 297831, Note_on_c, 4, 49, 0
9, 297840, Note_on_c, 4, 49, 84
9, 297840, Note_on_c, 4, 61, 84
9, 298079, Note_on_c, 4, 49, 0
9, 298079, Note_on_c, 4, 61, 0
9, 299220, Note_on_c, 4, 49, 84
9, 299220, Note_on_c, 4, 61, 84
9, 299271, Note_on_c, 4, 49, 0
9, 299271, Note_on_c, 4, 61, 0
9, 299280, Note_on_c, 4, 49, 84
9, 299280, Note_on_c, 4, 61, 84
9, 299519, Note_on_c, 4, 49, 0
9, 299519, Note_on_c, 4, 61, 0
9, 300660, Note_on_c, 4, 61, 84
9, 300660, Note_on_c, 4, 57, 84
9, 300711, Note_on_c, 4, 61, 0
9, 300711, Note_on_c, 4, 57, 0
9, 300720, Note_on_c, 4, 57, 84
9, 300720, Note_on_c, 4, 61, 84
9, 300959, Note_on_c, 4, 57, 0
9, 300959, Note_on_c, 4, 61, 0
9, 301020, Note_on_c, 4, 57, 84
9, 301020, Note_on_c, 4, 61, 84
9, 301071, Note_on_c, 4, 57, 0
9, 301071, Note_on_c, 4, 61, 0
9, 301080, Note_on_c, 4, 61, 84
9, 301080, Note_on_c, 4, 57, 84
9, 301319, Note_on_c, 4, 61, 0
9, 301319, Note_on_c, 4, 57, 0
9, 301380, Note_on_c, 4, 59, 84
9, 301380, Note_on_c, 4, 56, 84
9, 301431, Note_on_c, 4, 59, 0
9, 301431, Note_on_c, 4, 56, 0
9, 301440, Note_on_c, 4, 61, 84
9, 301440, Note_on_c, 4, 57, 84
9, 301679, Note_on_c, 4, 61, 0
9, 301679, Note_on_c, 4, 57, 0
9, 301740, Note_on_c, 4, 62, 84
9, 301740, Note_on_c, 4, 54, 84
9, 301791, Note_on_c, 4, 62, 0
9, 301791, Note_on_c, 4, 54, 0
9, 301800, Note_on_c, 4, 62, 84
9, 301800, Note_on_c, 4, 54, 84
9, 302039, Note_on_c, 4, 62, 0
9, 302039, Note_on_c, 4, 54, 0
9, 302100, Note_on_c, 4, 54, 84
9, 302100, Note_on_c, 4, 62, 84
9, 302151, Note_on_c, 4, 54, 0
9, 302151, Note_on_c, 4, 62, 0
9, 302160, Note_on_c, 4, 62, 84
9, 302160, Note_on_c, 4, 54, 84
9, 302399, Note_on_c, 4, 62, 0
9, 302399, Note_on_c, 4, 54, 0
9, 303480, Note_on_c, 4, 64, 84
9, 303480, Note_on_c, 4, 52, 84
9, 303569, Note_on_c, 4, 64, 0
9, 303569, Note_on_c, 4, 52, 0
9, 303600, Note_on_c, 4, 66, 92
9, 303600, Note_on_c, 4, 54, 92
9, 303719, Note_on_c, 4, 66, 0
9, 303719, Note_on_c, 4, 54, 0
9, 303720, Note_on_c, 4, 52, 84
9, 303720, Note_on_c, 4, 64, 84
9, 303824, Note_on_c, 4, 52, 0
9, 303824, Note_on_c, 4, 64, 0
9, 303840, Note_on_c, 4, 49, 84
9, 303840, Note_on_c, 4, 61, 84
9, 303929, Note_on_c, 4, 49, 0
9, 303929, Note_on_c, 4, 61, 0
9, 303960, Note_on_c, 4, 57, 84
9, 303960, Note_on_c, 4, 45, 84
9, 304199, Note_on_c, 4, 57, 0
9, 304199, Note_on_c, 4, 45, 0
9, 304260, Note_on_c, 4, 52, 84
9, 304260, Note_on_c, 4, 61, 84
9, 304311, Note_on_c, 4, 52, 0
9, 304311, Note_on_c, 4, 61, 0
9, 304320, Note_on_c, 4, 54, 84
9, 304320, Note_on_c, 4, 62, 84
9, 304559, Note_on_c, 4, 54, 0
9, 304559, Note_on_c, 4, 62, 0
9, 305640, Note_on_c, 4, 52, 84
9, 305640, Note_on_c, 4, 64, 84
9, 305729, Note_on_c, 4, 52, 0
9, 305729, Note_on_c, 4, 64, 0
9, 305760, Note_on_c, 4, 54, 92
9, 305760, Note_on_c, 4, 66, 92
9, 305879, Note_on_c, 4, 54, 0
9, 305879, Note_on_c, 4, 66, 0
9, 305880, Note_on_c, 4, 52, 84
9, 305880, Note_on_c, 4, 64, 84
9, 305984, Note_on_c, 4, 52, 0
9, 305984, Note_on_c, 4, 64, 0
9, 306000, Note_on_c, 4, 49, 84
9, 306000, Note_on_c, 4, 61, 84
9, 306089, Note_on_c, 4, 49, 0
9, 306089, Note_on_c, 4, 61, 0
9, 306120, Note_on_c, 4, 45, 84
9, 306120, Note_on_c, 4, 57, 84
9, 306359, Note_on_c, 4, 45, 0
9, 306359, Note_on_c, 4, 57, 0
9, 306420, Note_on_c, 4, 61, 84
9, 306420, Note_on_c, 4, 57, 84
9, 306471, Note_on_c, 4, 61, 0
9, 306471, Note_on_c, 4, 57, 0
9, 306480, Note_on_c, 4, 56, 84
9, 306480, Note_on_c, 4, 59, 84
9, 306719, Note_on_c, 4, 56, 0
9, 306719, Note_on_c, 4, 59, 0
9, 307140, Note_on_c, 4, 57, 84
9, 307140, Note_on_c, 4, 61, 84
9, 307191, Note_on_c, 4, 57, 0
9, 307191, Note_on_c, 4, 61, 0
9, 307200, Note_on_c, 4, 59, 84
9, 307200, Note_on_c, 4, 56, 84
9, 307439, Note_on_c, 4, 59, 0
9, 307439, Note_on_c, 4, 56, 0
9, 307860, Note_on_c, 4, 61, 84
9, 307860, Note_on_c, 4, 57, 84
9, 307911, Note_on_c, 4, 61, 0
9, 307911, Note_on_c, 4, 57, 0
9, 307920, Note_on_c, 4, 56, 84
9, 307920, Note_on_c, 4, 59, 84
9, 308159, Note_on_c, 4, 56, 0
9, 308159, Note_on_c, 4, 59, 0
9, 308580, Note_on_c, 4, 61, 84
9, 308580, Note_on_c, 4, 57, 84
9, 308631, Note_on_c, 4, 61, 0
9, 308631, Note_on_c, 4, 57, 0
9, 308640, Note_on_c, 4, 59, 84
9, 308640, Note_on_c, 4, 56, 84
9, 308879, Note_on_c, 4, 59, 0
9, 308879, Note_on_c, 4, 56, 0
9, 309300, Note_on_c, 4, 61, 84
9, 309300, Note_on_c, 4, 57, 84
9, 309351, Note_on_c, 4, 61, 0
9, 309351, Note_on_c, 4, 57, 0
9, 309360, Note_on_c, 4, 57, 84
9, 309360, Note_on_c, 4, 61, 84
9, 309599, Note_on_c, 4, 57, 0
9, 309599, Note_on_c, 4, 61, 0
9, 310020, Note_on_c, 4, 61, 84
9, 310020, Note_on_c, 4, 58, 84
9, 310071, Note_on_c, 4, 61, 0
9, 310071, Note_on_c, 4, 58, 0
9, 310080, Note_on_c, 4, 59, 84
9, 310080, Note_on_c, 4, 62, 84
9, 310319, Note_on_c, 4, 59, 0
9, 310319, Note_on_c, 4, 62, 0
9, 310380, Note_on_c, 4, 59, 84
9, 310380, Note_on_c, 4, 62, 84
9, 310431, Note_on_c, 4, 59, 0
9, 310431, Note_on_c, 4, 62, 0
9, 310440, Note_on_c, 4, 59, 84
9, 310440, Note_on_c, 4, 62, 84
9, 310679, Note_on_c, 4, 59, 0
9, 310679, Note_on_c, 4, 62, 0
9, 310740, Note_on_c, 4, 59, 84
9, 310740, Note_on_c, 4, 62, 84
9, 310791, Note_on_c, 4, 59, 0
9, 310791, Note_on_c, 4, 62, 0
9, 310800, Note_on_c, 4, 59, 84
9, 310800, Note_on_c, 4, 62, 84
9, 311039, Note_on_c, 4, 59, 0
9, 311039, Note_on_c, 4, 62, 0
9, 311100, Note_on_c, 4, 59, 84
9, 311100, Note_on_c, 4, 62, 84
9, 311151, Note_on_c, 4, 59, 0
9, 311151, Note_on_c, 4, 62, 0
9, 311160, Note_on_c, 4, 62, 84
9, 311160, Note_on_c, 4, 59, 84
9, 311399, Note_on_c, 4, 62, 0
9, 311399, Note_on_c, 4, 59, 0
9, 311460, Note_on_c, 4, 62, 84
9, 311460, Note_on_c, 4, 59, 84
9, 311511, Note_on_c, 4, 62, 0
9, 311511, Note_on_c, 4, 59, 0
9, 311520, Note_on_c, 4, 59, 84
9, 311520, Note_on_c, 4, 62, 84
9, 311879, Note_on_c, 4, 59, 0
9, 311879, Note_on_c, 4, 62, 0
9, 312180, Note_on_c, 4, 64, 52
9, 312180, Note_on_c, 4, 61, 52
9, 312231, Note_on_c, 4, 64, 0
9, 312231, Note_on_c, 4, 61, 0
9, 312240, Note_on_c, 4, 61, 52
9, 312240, Note_on_c, 4, 64, 52
9, 312599, Note_on_c, 4, 61, 0
9, 312599, Note_on_c, 4, 64, 0
9, 314400, Note_on_c, 4, 66, 52
9, 314931, Note_on_c, 4, 66, 0
9, 314940, Note_on_c, 4, 64, 52
9, 314984, Note_on_c, 4, 64, 0
9, 315000, Note_on_c, 4, 62, 52
9, 315089, Note_on_c, 4, 62, 0
9, 315120, Note_on_c, 4, 61, 52
9, 315291, Note_on_c, 4, 61, 0
9, 315300, Note_on_c, 4, 59, 52
9, 315351, Note_on_c, 4, 59, 0
9, 315360, Note_on_c, 4, 57, 52
9, 315464, Note_on_c, 4, 57, 0
9, 315480, Note_on_c, 4, 55, 52
9, 315651, Note_on_c, 4, 55, 0
9, 315660, Note_on_c, 4, 54, 52
9, 315711, Note_on_c, 4, 54, 0
9, 315720, Note_on_c, 4, 52, 52
9, 315824, Note_on_c, 4, 52, 0
9, 315840, Note_on_c, 4, 50, 52
9, 316079, Note_on_c, 4, 50, 0
9, 317280, Note_on_c, 4, 65, 52
9, 317811, Note_on_c, 4, 65, 0
9, 317820, Note_on_c, 4, 62, 52
9, 317871, Note_on_c, 4, 62, 0
9, 317880, Note_on_c, 4, 61, 52
9, 317984, Note_on_c, 4, 61, 0
9, 318000, Note_on_c, 4, 62, 52
9, 318171, Note_on_c, 4, 62, 0
9, 318180, Note_on_c, 4, 57, 52
9, 318231, Note_on_c, 4, 57, 0
9, 318240, Note_on_c, 4, 53, 52
9, 318344, Note_on_c, 4, 53, 0
9, 318360, Note_on_c, 4, 50, 52
9, 318599, Note_on_c, 4, 50, 0
9, 322920, Note_on_c, 4, 64, 52
9, 323024, Note_on_c, 4, 64, 0
9, 323040, Note_on_c, 4, 65, 52
9, 323159, Note_on_c, 4, 65, 0
9, 323160, Note_on_c, 4, 64, 52
9, 323264, Note_on_c, 4, 64, 0
9, 323280, Note_on_c, 4, 60, 52
9, 323369, Note_on_c, 4, 60, 0
9, 323400, Note_on_c, 4, 57, 52
9, 323639, Note_on_c, 4, 57, 0
9, 325800, Control_c, 4, 11, 64
9, 325920, Note_on_c, 4, 60, 84
9, 325920, Note_on_c, 4, 64, 84
9, 325966, Control_c, 4, 11, 65
9, 326011, Control_c, 4, 11, 66
9, 326057, Control_c, 4, 11, 67
9, 326103, Control_c, 4, 11, 68
9, 326149, Control_c, 4, 11, 69
9, 326194, Control_c, 4, 11, 70
9, 326240, Control_c, 4, 11, 71
9, 326286, Control_c, 4, 11, 72
9, 326331, Control_c, 4, 11, 73
9, 326377, Control_c, 4, 11, 74
9, 326423, Control_c, 4, 11, 75
9, 326469, Control_c, 4, 11, 76
9, 326514, Control_c, 4, 11, 77
9, 326560, Control_c, 4, 11, 78
9, 326606, Control_c, 4, 11, 79
9, 326624, Note_on_c, 4, 60, 0
9, 326624, Note_on_c, 4, 64, 0
9, 326640, Note_on_c, 4, 62, 84
9, 326640, Note_on_c, 4, 65, 84
9, 326651, Control_c, 4, 11, 80
9, 326697, Control_c, 4, 11, 81
9, 326743, Control_c, 4, 11, 82
9, 326789, Control_c, 4, 11, 83
9, 326834, Control_c, 4, 11, 84
9, 326880, Control_c, 4, 11, 85
9, 326926, Control_c, 4, 11, 86
9, 326971, Control_c, 4, 11, 87
9, 327017, Control_c, 4, 11, 88
9, 327063, Control_c, 4, 11, 89
9, 327109, Control_c, 4, 11, 90
9, 327154, Control_c, 4, 11, 91
9, 327200, Control_c, 4, 11, 92
9, 327246, Control_c, 4, 11, 93
9, 327291, Control_c, 4, 11, 94
9, 327337, Control_c, 4, 11, 95
9, 327344, Note_on_c, 4, 62, 0
9, 327344, Note_on_c, 4, 65, 0
9, 327360, Note_on_c, 4, 62, 84
9, 327360, Note_on_c, 4, 59, 84
9, 327383, Control_c, 4, 11, 96
9, 327429, Control_c, 4, 11, 97
9, 327474, Control_c, 4, 11, 98
9, 327520, Control_c, 4, 11, 99
9, 327566, Control_c, 4, 11, 100
9, 327611, Control_c, 4, 11, 101
9, 327657, Control_c, 4, 11, 102
9, 327703, Control_c, 4, 11, 103
9, 327749, Control_c, 4, 11, 104
9, 327794, Control_c, 4, 11, 105
9, 327840, Control_c, 4, 11, 106
9, 327886, Control_c, 4, 11, 107
9, 327931, Control_c, 4, 11, 108
9, 327977, Control_c, 4, 11, 109
9, 328023, Control_c, 4, 11, 110
9, 328064, Note_on_c, 4, 62, 0
9, 328064, Note_on_c, 4, 59, 0
9, 328069, Control_c, 4, 11, 111
9, 328080, Note_on_c, 4, 64, 84
9, 328080, Note_on_c, 4, 60, 84
9, 328114, Control_c, 4, 11, 112
9, 328160, Control_c, 4, 11, 113
9, 328206, Control_c, 4, 11, 114
9, 328251, Control_c, 4, 11, 115
9, 328297, Control_c, 4, 11, 116
9, 328343, Control_c, 4, 11, 117
9, 328389, Control_c, 4, 11, 118
9, 328434, Control_c, 4, 11, 119
9, 328480, Control_c, 4, 11, 120
9, 328526, Control_c, 4, 11, 121
9, 328571, Control_c, 4, 11, 122
9, 328617, Control_c, 4, 11, 123
9, 328663, Control_c, 4, 11, 124
9, 328709, Control_c, 4, 11, 125
9, 328754, Control_c, 4, 11, 127
9, 328784, Note_on_c, 4, 64, 0
9, 328784, Note_on_c, 4, 60, 0
9, 328800, Note_on_c, 4, 57, 84
9, 328800, Note_on_c, 4, 60, 84
9, 329504, Note_on_c, 4, 57, 0
9, 329504, Note_on_c, 4, 60, 0
9, 329520, Note_on_c, 4, 59, 84
9, 329520, Note_on_c, 4, 55, 84
9, 329984, Note_on_c, 4, 59, 0
9, 329984, Note_on_c, 4, 55, 0
9, 330000, Note_on_c, 4, 55, 84
9, 330000, Note_on_c, 4, 59, 84
9, 330104, Note_on_c, 4, 55, 0
9, 330104, Note_on_c, 4, 59, 0
9, 330120, Note_on_c, 4, 59, 84
9, 330120, Note_on_c, 4, 55, 84
9, 330224, Note_on_c, 4, 59, 0
9, 330224, Note_on_c, 4, 55, 0
9, 330240, Note_on_c, 4, 53, 84
9, 330240, Note_on_c, 4, 57, 84
9, 330359, Note_on_c, 4, 53, 0
9, 330359, Note_on_c, 4, 57, 0
9, 330480, Note_on_c, 4, 53, 84
9, 330480, Note_on_c, 4, 62, 84
9, 330584, Note_on_c, 4, 53, 0
9, 330584, Note_on_c, 4, 62, 0
9, 330600, Note_on_c, 4, 62, 84
9, 330600, Note_on_c, 4, 53, 84
9, 330719, Note_on_c, 4, 62, 0
9, 330719, Note_on_c, 4, 53, 0
9, 330840, Note_on_c, 4, 53, 84
9, 330840, Note_on_c, 4, 62, 84
9, 330944, Note_on_c, 4, 53, 0
9, 330944, Note_on_c, 4, 62, 0
9, 330960, Note_on_c, 4, 59, 52
9, 330960, Note_on_c, 4, 52, 52
9, 331199, Note_on_c, 4, 59, 0
9, 331199, Note_on_c, 4, 52, 0
9, 332640, Note_on_c, 4, 52, 52
9, 332744, Note_on_c, 4, 52, 0
9, 332760, Note_on_c, 4, 52, 52
9, 332931, Note_on_c, 4, 52, 0
9, 332940, Note_on_c, 4, 56, 52
9, 332984, Note_on_c, 4, 56, 0
9, 333000, Note_on_c, 4, 59, 52
9, 333081, Note_on_c, 4, 59, 0
9, 333090, Note_on_c, 4, 57, 52
9, 333119, Note_on_c, 4, 57, 0
9, 333120, Note_on_c, 4, 60, 52
9, 333299, Note_on_c, 4, 60, 0
9, 333360, Note_on_c, 4, 60, 52
9, 333449, Note_on_c, 4, 60, 0
9, 333480, Note_on_c, 4, 60, 52
9, 333644, Note_on_c, 4, 60, 0
9, 333660, Note_on_c, 4, 59, 52
9, 333704, Note_on_c, 4, 59, 0
9, 333720, Note_on_c, 4, 57, 52
9, 333809, Note_on_c, 4, 57, 0
9, 333838, Control_c, 4, 11, 80
9, 333840, Note_on_c, 4, 56, 76
9, 333880, Control_c, 4, 11, 83
9, 333920, Control_c, 4, 11, 85
9, 333960, Control_c, 4, 11, 88
9, 334000, Control_c, 4, 11, 90
9, 334019, Note_on_c, 4, 56, 0
9, 334040, Control_c, 4, 11, 93
9, 334080, Control_c, 4, 11, 96
9, 334080, Note_on_c, 4, 52, 76
9, 334120, Control_c, 4, 11, 98
9, 334160, Control_c, 4, 11, 101
9, 334169, Note_on_c, 4, 52, 0
9, 334200, Control_c, 4, 11, 104
9, 334200, Note_on_c, 4, 52, 76
9, 334240, Control_c, 4, 11, 106
9, 334280, Control_c, 4, 11, 109
9, 334320, Control_c, 4, 11, 111
9, 334360, Control_c, 4, 11, 114
9, 334371, Note_on_c, 4, 52, 0
9, 334380, Note_on_c, 4, 56, 76
9, 334400, Control_c, 4, 11, 117
9, 334424, Note_on_c, 4, 56, 0
9, 334440, Note_on_c, 4, 59, 76
9, 334440, Control_c, 4, 11, 119
9, 334480, Control_c, 4, 11, 122
9, 334520, Control_c, 4, 11, 124
9, 334529, Note_on_c, 4, 59, 0
9, 334558, Control_c, 4, 11, 127
9, 334560, Note_on_c, 4, 61, 76
9, 334560, Note_on_c, 4, 57, 76
9, 334799, Note_on_c, 4, 61, 0
9, 334799, Note_on_c, 4, 57, 0
9, 334800, Note_on_c, 4, 61, 76
9, 334800, Note_on_c, 4, 57, 76
9, 334919, Note_on_c, 4, 61, 0
9, 334919, Note_on_c, 4, 57, 0
9, 334920, Note_on_c, 4, 61, 76
9, 334920, Note_on_c, 4, 57, 76
9, 335159, Note_on_c, 4, 61, 0
9, 335159, Note_on_c, 4, 57, 0
9, 335160, Note_on_c, 4, 61, 76
9, 335160, Note_on_c, 4, 57, 76
9, 335279, Note_on_c, 4, 61, 0
9, 335279, Note_on_c, 4, 57, 0
9, 335280, Note_on_c, 4, 59, 76
9, 335280, Note_on_c, 4, 56, 76
9, 335984, Note_on_c, 4, 59, 0
9, 335984, Note_on_c, 4, 56, 0
9, 336000, Note_on_c, 4, 54, 76
9, 336000, Note_on_c, 4, 57, 76
9, 336224, Note_on_c, 4, 54, 0
9, 336224, Note_on_c, 4, 57, 0
9, 336240, Note_on_c, 4, 57, 76
9, 336240, Note_on_c, 4, 54, 76
9, 336344, Note_on_c, 4, 57, 0
9, 336344, Note_on_c, 4, 54, 0
9, 336360, Note_on_c, 4, 54, 76
9, 336360, Note_on_c, 4, 57, 76
9, 336584, Note_on_c, 4, 54, 0
9, 336584, Note_on_c, 4, 57, 0
9, 336600, Note_on_c, 4, 57, 76
9, 336600, Note_on_c, 4, 54, 76
9, 336704, Note_on_c, 4, 57, 0
9, 336704, Note_on_c, 4, 54, 0
9, 336720, Note_on_c, 4, 52, 76
9, 336720, Note_on_c, 4, 56, 76
9, 337424, Note_on_c, 4, 52, 0
9, 337424, Note_on_c, 4, 56, 0
9, 337440, Note_on_c, 4, 54, 76
9, 337440, Note_on_c, 4, 50, 76
9, 337664, Note_on_c, 4, 54, 0
9, 337664, Note_on_c, 4, 50, 0
9, 337680, Note_on_c, 4, 54, 76
9, 337680, Note_on_c, 4, 50, 76
9, 337784, Note_on_c, 4, 54, 0
9, 337784, Note_on_c, 4, 50, 0
9, 337800, Note_on_c, 4, 51, 76
9, 337800, Note_on_c, 4, 54, 76
9, 338024, Note_on_c, 4, 51, 0
9, 338024, Note_on_c, 4, 54, 0
9, 338040, Note_on_c, 4, 54, 76
9, 338040, Note_on_c, 4, 51, 76
9, 338144, Note_on_c, 4, 54, 0
9, 338144, Note_on_c, 4, 51, 0
9, 338160, Note_on_c, 4, 52, 76
9, 338160, Note_on_c, 4, 56, 76
9, 338264, Note_on_c, 4, 52, 0
9, 338264, Note_on_c, 4, 56, 0
9, 338280, Note_on_c, 4, 56, 76
9, 338280, Note_on_c, 4, 52, 76
9, 338399, Note_on_c, 4, 56, 0
9, 338399, Note_on_c, 4, 52, 0
9, 338520, Note_on_c, 4, 59, 76
9, 338520, Note_on_c, 4, 62, 76
9, 338624, Note_on_c, 4, 59, 0
9, 338624, Note_on_c, 4, 62, 0
9, 338640, Note_on_c, 4, 59, 76
9, 338640, Note_on_c, 4, 62, 76
9, 338759, Note_on_c, 4, 59, 0
9, 338759, Note_on_c, 4, 62, 0
9, 338880, Note_on_c, 4, 61, 76
9, 338880, Note_on_c, 4, 57, 76
9, 338984, Note_on_c, 4, 61, 0
9, 338984, Note_on_c, 4, 57, 0
9, 339000, Note_on_c, 4, 57, 76
9, 339000, Note_on_c, 4, 61, 76
9, 339119, Note_on_c, 4, 57, 0
9, 339119, Note_on_c, 4, 61, 0
9, 339240, Note_on_c, 4, 57, 76
9, 339240, Note_on_c, 4, 61, 76
9, 339344, Note_on_c, 4, 57, 0
9, 339344, Note_on_c, 4, 61, 0
9, 339360, Note_on_c, 4, 61, 76
9, 339360, Note_on_c, 4, 57, 76
9, 339479, Note_on_c, 4, 61, 0
9, 339479, Note_on_c, 4, 57, 0
9, 339600, Note_on_c, 4, 59, 76
9, 339600, Note_on_c, 4, 56, 76
9, 339704, Note_on_c, 4, 59, 0
9, 339704, Note_on_c, 4, 56, 0
9, 339720, Note_on_c, 4, 59, 76
9, 339720, Note_on_c, 4, 56, 76
9, 339839, Note_on_c, 4, 59, 0
9, 339839, Note_on_c, 4, 56, 0
9, 339960, Note_on_c, 4, 59, 76
9, 339960, Note_on_c, 4, 62, 76
9, 340064, Note_on_c, 4, 59, 0
9, 340064, Note_on_c, 4, 62, 0
9, 340080, Note_on_c, 4, 62, 76
9, 340080, Note_on_c, 4, 59, 76
9, 340199, Note_on_c, 4, 62, 0
9, 340199, Note_on_c, 4, 59, 0
9, 340320, Note_on_c, 4, 57, 76
9, 340320, Note_on_c, 4, 61, 76
9, 340424, Note_on_c, 4, 57, 0
9, 340424, Note_on_c, 4, 61, 0
9, 340440, Note_on_c, 4, 57, 76
9, 340440, Note_on_c, 4, 61, 76
9, 340559, Note_on_c, 4, 57, 0
9, 340559, Note_on_c, 4, 61, 0
9, 340680, Note_on_c, 4, 57, 76
9, 340680, Note_on_c, 4, 61, 76
9, 340784, Note_on_c, 4, 57, 0
9, 340784, Note_on_c, 4, 61, 0
9, 340800, Note_on_c, 4, 57, 76
9, 340800, Note_on_c, 4, 61, 76
9, 340919, Note_on_c, 4, 57, 0
9, 340919, Note_on_c, 4, 61, 0
9, 341760, Note_on_c, 4, 64, 52
9, 342359, Note_on_c, 4, 64, 0
9, 342360, Note_on_c, 4, 59, 52
9, 342464, Note_on_c, 4, 59, 0
9, 342480, Note_on_c, 4, 57, 48
9, 342824, Note_on_c, 4, 57, 0
9, 342840, Note_on_c, 4, 61, 48
9, 342840, Note_on_c, 4, 57, 48
9, 343011, Note_on_c, 4, 61, 0
9, 343011, Note_on_c, 4, 57, 0
9, 343020, Note_on_c, 4, 57, 48
9, 343020, Note_on_c, 4, 52, 48
9, 343071, Note_on_c, 4, 57, 0
9, 343071, Note_on_c, 4, 52, 0
9, 343080, Note_on_c, 4, 52, 48
9, 343080, Note_on_c, 4, 57, 48
9, 343184, Note_on_c, 4, 52, 0
9, 343184, Note_on_c, 4, 57, 0
9, 343200, Note_on_c, 4, 62, 48
9, 343200, Note_on_c, 4, 59, 48
9, 343371, Note_on_c, 4, 62, 0
9, 343371, Note_on_c, 4, 59, 0
9, 343380, Note_on_c, 4, 52, 48
9, 343380, Note_on_c, 4, 59, 48
9, 343431, Note_on_c, 4, 52, 0
9, 343431, Note_on_c, 4, 59, 0
9, 343440, Note_on_c, 4, 52, 48
9, 343440, Note_on_c, 4, 59, 48
9, 343544, Note_on_c, 4, 52, 0
9, 343544, Note_on_c, 4, 59, 0
9, 343560, Note_on_c, 4, 61, 48
9, 343560, Note_on_c, 4, 64, 48
9, 344264, Note_on_c, 4, 61, 0
9, 344264, Note_on_c, 4, 64, 0
9, 344280, Note_on_c, 4, 64, 48
9, 344280, Note_on_c, 4, 61, 48
9, 344451, Note_on_c, 4, 64, 0
9, 344451, Note_on_c, 4, 61, 0
9, 344460, Note_on_c, 4, 61, 48
9, 344460, Note_on_c, 4, 64, 48
9, 344511, Note_on_c, 4, 61, 0
9, 344511, Note_on_c, 4, 64, 0
9, 344520, Note_on_c, 4, 64, 48
9, 344520, Note_on_c, 4, 61, 48
9, 344624, Note_on_c, 4, 64, 0
9, 344624, Note_on_c, 4, 61, 0
9, 344640, Note_on_c, 4, 61, 48
9, 344640, Note_on_c, 4, 64, 48
9, 344811, Note_on_c, 4, 61, 0
9, 344811, Note_on_c, 4, 64, 0
9, 344820, Note_on_c, 4, 61, 48
9, 344820, Note_on_c, 4, 57, 48
9, 344871, Note_on_c, 4, 61, 0
9, 344871, Note_on_c, 4, 57, 0
9, 344880, Note_on_c, 4, 61, 48
9, 344880, Note_on_c, 4, 57, 48
9, 344984, Note_on_c, 4, 61, 0
9, 344984, Note_on_c, 4, 57, 0
9, 345000, Note_on_c, 4, 57, 48
9, 345000, Note_on_c, 4, 61, 48
9, 345119, Note_on_c, 4, 57, 0
9, 345119, Note_on_c, 4, 61, 0
9, 345120, Note_on_c, 4, 59, 48
9, 345120, Note_on_c, 4, 62, 48
9, 345224, Note_on_c, 4, 59, 0
9, 345224, Note_on_c, 4, 62, 0
9, 345240, Note_on_c, 4, 56, 48
9, 345240, Note_on_c, 4, 59, 48
9, 345329, Note_on_c, 4, 56, 0
9, 345329, Note_on_c, 4, 59, 0
9, 345360, Note_on_c, 4, 57, 84
9, 345464, Note_on_c, 4, 57, 0
9, 345480, Note_on_c, 4, 57, 84
9, 345584, Note_on_c, 4, 57, 0
9, 345600, Note_on_c, 4, 57, 84
9, 345704, Note_on_c, 4, 57, 0
9, 345720, Note_on_c, 4, 57, 84
9, 345824, Note_on_c, 4, 57, 0
9, 345840, Note_on_c, 4, 57, 84
9, 345944, Note_on_c, 4, 57, 0
9, 345960, Note_on_c, 4, 57, 84
9, 346064, Note_on_c, 4, 57, 0
9, 346080, Note_on_c, 4, 57, 84
9, 346184, Note_on_c, 4, 57, 0
9, 346200, Note_on_c, 4, 57, 84
9, 346304, Note_on_c, 4, 57, 0
9, 346320, Note_on_c, 4, 57, 84
9, 346424, Note_on_c, 4, 57, 0
9, 346440, Note_on_c, 4, 57, 84
9, 346544, Note_on_c, 4, 57, 0
9, 346560, Note_on_c, 4, 60, 84
9, 346560, Note_on_c, 4, 57, 84
9, 346664, Note_on_c, 4, 60, 0
9, 346664, Note_on_c, 4, 57, 0
9, 346680, Note_on_c, 4, 58, 84
9, 346680, Note_on_c, 4, 55, 84
9, 346784, Note_on_c, 4, 58, 0
9, 346784, Note_on_c, 4, 55, 0
9, 346800, Note_on_c, 4, 57, 84
9, 346800, Note_on_c, 4, 53, 84
9, 347039, Note_on_c, 4, 57, 0
9, 347039, Note_on_c, 4, 53, 0
9, 349500, Note_on_c, 4, 60, 52
9, 349551, Note_on_c, 4, 60, 0
9, 349560, Note_on_c, 4, 60, 52
9, 349664, Note_on_c, 4, 60, 0
9, 349680, Note_on_c, 4, 65, 52
9, 349919, Note_on_c, 4, 65, 0
9, 350400, Note_on_c, 4, 65, 44
9, 350639, Note_on_c, 4, 65, 0
9, 355680, Note_on_c, 4, 62, 59
9, 355739, Note_on_c, 4, 62, 0
9, 355740, Note_on_c, 4, 64, 60
9, 355799, Note_on_c, 4, 64, 0
9, 355800, Note_on_c, 4, 66, 60
9, 355979, Note_on_c, 4, 66, 0
9, 358200, Note_on_c, 4, 57, 82
9, 358200, Note_on_c, 4, 54, 82
9, 358259, Note_on_c, 4, 57, 0
9, 358259, Note_on_c, 4, 54, 0
9, 358260, Note_on_c, 4, 59, 83
9, 358260, Note_on_c, 4, 56, 83
9, 358319, Note_on_c, 4, 59, 0
9, 358319, Note_on_c, 4, 56, 0
9, 358320, Note_on_c, 4, 61, 84
9, 358320, Note_on_c, 4, 57, 84
9, 359384, Note_on_c, 4, 61, 0
9, 359384, Note_on_c, 4, 57, 0
9, 359400, Note_on_c, 4, 57, 84
9, 359400, Note_on_c, 4, 61, 84
9, 359571, Note_on_c, 4, 57, 0
9, 359571, Note_on_c, 4, 61, 0
9, 359580, Note_on_c, 4, 57, 84
9, 359580, Note_on_c, 4, 61, 84
9, 359631, Note_on_c, 4, 57, 0
9, 359631, Note_on_c, 4, 61, 0
9, 359640, Note_on_c, 4, 61, 84
9, 359640, Note_on_c, 4, 57, 84
9, 359744, Note_on_c, 4, 61, 0
9, 359744, Note_on_c, 4, 57, 0
9, 359760, Note_on_c, 4, 57, 84
9, 359760, Note_on_c, 4, 59, 84
9, 360824, Note_on_c, 4, 57, 0
9, 360824, Note_on_c, 4, 59, 0
9, 360840, Note_on_c, 4, 57, 84
9, 360840, Note_on_c, 4, 59, 84
9, 361011, Note_on_c, 4, 57, 0
9, 361011, Note_on_c, 4, 59, 0
9, 361020, Note_on_c, 4, 59, 84
9, 361020, Note_on_c, 4, 57, 84
9, 361071, Note_on_c, 4, 59, 0
9, 361071, Note_on_c, 4, 57, 0
9, 361080, Note_on_c, 4, 57, 84
9, 361080, Note_on_c, 4, 59, 84
9, 361199, Note_on_c, 4, 57, 0
9, 361199, Note_on_c, 4, 59, 0
9, 361200, Note_on_c, 4, 58, 84
9, 361320, Control_c, 4, 11, 48
9, 361559, Note_on_c, 4, 58, 0
9, 361560, Note_on_c, 4, 53, 84
9, 361919, Note_on_c, 4, 53, 0
9, 361920, Control_c, 4, 11, 48
9, 361920, Note_on_c, 4, 56, 84
9, 361960, Control_c, 4, 11, 52
9, 362000, Control_c, 4, 11, 57
9, 362040, Control_c, 4, 11, 61
9, 362080, Control_c, 4, 11, 66
9, 362120, Control_c, 4, 11, 70
9, 362160, Control_c, 4, 11, 74
9, 362200, Control_c, 4, 11, 79
9, 362240, Control_c, 4, 11, 83
9, 362279, Note_on_c, 4, 56, 0
9, 362280, Control_c, 4, 11, 88
9, 362280, Note_on_c, 4, 64, 84
9, 362320, Control_c, 4, 11, 92
9, 362360, Control_c, 4, 11, 96
9, 362400, Control_c, 4, 11, 101
9, 362440, Control_c, 4, 11, 105
9, 362480, Control_c, 4, 11, 109
9, 362520, Control_c, 4, 11, 114
9, 362560, Control_c, 4, 11, 118
9, 362600, Control_c, 4, 11, 123
9, 362624, Note_on_c, 4, 64, 0
9, 362638, Control_c, 4, 11, 127
9, 362640, Note_on_c, 4, 61, 84
9, 362640, Note_on_c, 4, 57, 84
9, 363704, Note_on_c, 4, 61, 0
9, 363704, Note_on_c, 4, 57, 0
9, 363720, Note_on_c, 4, 61, 84
9, 363720, Note_on_c, 4, 57, 84
9, 363891, Note_on_c, 4, 61, 0
9, 363891, Note_on_c, 4, 57, 0
9, 363900, Note_on_c, 4, 61, 84
9, 363900, Note_on_c, 4, 57, 84
9, 363951, Note_on_c, 4, 61, 0
9, 363951, Note_on_c, 4, 57, 0
9, 363960, Note_on_c, 4, 57, 84
9, 363960, Note_on_c, 4, 61, 84
9, 364064, Note_on_c, 4, 57, 0
9, 364064, Note_on_c, 4, 61, 0
9, 364080, Note_on_c, 4, 57, 84
9, 364080, Note_on_c, 4, 59, 84
9, 365144, Note_on_c, 4, 57, 0
9, 365144, Note_on_c, 4, 59, 0
9, 365160, Note_on_c, 4, 57, 84
9, 365160, Note_on_c, 4, 59, 84
9, 365331, Note_on_c, 4, 57, 0
9, 365331, Note_on_c, 4, 59, 0
9, 365340, Note_on_c, 4, 59, 84
9, 365340, Note_on_c, 4, 57, 84
9, 365391, Note_on_c, 4, 59, 0
9, 365391, Note_on_c, 4, 57, 0
9, 365400, Note_on_c, 4, 59, 84
9, 365400, Note_on_c, 4, 57, 84
9, 365519, Note_on_c, 4, 59, 0
9, 365519, Note_on_c, 4, 57, 0
9, 366120, Control_c, 4, 11, 64
9, 366240, Control_c, 4, 11, 64
9, 366240, Note_on_c, 4, 64, 84
9, 366280, Control_c, 4, 11, 68
9, 366320, Control_c, 4, 11, 71
9, 366360, Control_c, 4, 11, 75
9, 366400, Control_c, 4, 11, 78
9, 366440, Control_c, 4, 11, 82
9, 366480, Control_c, 4, 11, 85
9, 366520, Control_c, 4, 11, 89
9, 366560, Control_c, 4, 11, 92
9, 366599, Note_on_c, 4, 64, 0
9, 366600, Control_c, 4, 11, 96
9, 366600, Note_on_c, 4, 56, 84
9, 366640, Control_c, 4, 11, 99
9, 366680, Control_c, 4, 11, 103
9, 366720, Control_c, 4, 11, 106
9, 366760, Control_c, 4, 11, 110
9, 366800, Control_c, 4, 11, 113
9, 366839, Note_on_c, 4, 56, 0
9, 366840, Note_on_c, 4, 64, 84
9, 366840, Control_c, 4, 11, 117
9, 366880, Control_c, 4, 11, 120
9, 366920, Control_c, 4, 11, 124
9, 366944, Note_on_c, 4, 64, 0
9, 366958, Control_c, 4, 11, 127
9, 366960, Note_on_c, 4, 64, 84
9, 367491, Note_on_c, 4, 64, 0
9, 367500, Note_on_c, 4, 62, 84
9, 367544, Note_on_c, 4, 62, 0
9, 367560, Note_on_c, 4, 61, 84
9, 367641, Note_on_c, 4, 61, 0
9, 367650, Note_on_c, 4, 61, 84
9, 367679, Note_on_c, 4, 61, 0
9, 367680, Note_on_c, 4, 62, 92
9, 367740, Control_c, 4, 11, 112
9, 368211, Note_on_c, 4, 62, 0
9, 368220, Note_on_c, 4, 62, 92
9, 368220, Note_on_c, 4, 59, 92
9, 368264, Note_on_c, 4, 62, 0
9, 368264, Note_on_c, 4, 59, 0
9, 368280, Note_on_c, 4, 62, 92
9, 368280, Note_on_c, 4, 59, 92
9, 368369, Note_on_c, 4, 62, 0
9, 368369, Note_on_c, 4, 59, 0
9, 368400, Note_on_c, 4, 61, 92
9, 368400, Note_on_c, 4, 57, 92
9, 368639, Note_on_c, 4, 61, 0
9, 368639, Note_on_c, 4, 57, 0
9, 368758, Control_c, 4, 11, 127
9, 368760, Note_on_c, 4, 61, 84
9, 368999, Note_on_c, 4, 61, 0
9, 369120, Note_on_c, 4, 64, 84
9, 369359, Note_on_c, 4, 64, 0
9, 369660, Note_on_c, 4, 64, 84
9, 369711, Note_on_c, 4, 64, 0
9, 369720, Note_on_c, 4, 64, 84
9, 369824, Note_on_c, 4, 64, 0
9, 369840, Note_on_c, 4, 64, 92
9, 369900, Control_c, 4, 11, 112
9, 370064, Note_on_c, 4, 64, 0
9, 370080, Note_on_c, 4, 61, 92
9, 370161, Note_on_c, 4, 61, 0
9, 370170, Note_on_c, 4, 61, 92
9, 370199, Note_on_c, 4, 61, 0
9, 370200, Note_on_c, 4, 62, 92
9, 370371, Note_on_c, 4, 62, 0
9, 370380, Note_on_c, 4, 59, 92
9, 370380, Note_on_c, 4, 62, 92
9, 370424, Note_on_c, 4, 59, 0
9, 370424, Note_on_c, 4, 62, 0
9, 370440, Note_on_c, 4, 59, 92
9, 370440, Note_on_c, 4, 62, 92
9, 370529, Note_on_c, 4, 59, 0
9, 370529, Note_on_c, 4, 62, 0
9, 370560, Note_on_c, 4, 61, 92
9, 370799, Note_on_c, 4, 61, 0
9, 371040, Control_c, 4, 11, 127
9, 371100, Note_on_c, 4, 64, 84
9, 371151, Note_on_c, 4, 64, 0
9, 371160, Note_on_c, 4, 64, 84
9, 371264, Note_on_c, 4, 64, 0
9, 371280, Note_on_c, 4, 64, 92
9, 371340, Control_c, 4, 11, 112
9, 371504, Note_on_c, 4, 64, 0
9, 371520, Note_on_c, 4, 61, 92
9, 371601, Note_on_c, 4, 61, 0
9, 371610, Note_on_c, 4, 61, 92
9, 371639, Note_on_c, 4, 61, 0
9, 371640, Note_on_c, 4, 62, 92
9, 371811, Note_on_c, 4, 62, 0
9, 371820, Note_on_c, 4, 62, 92
9, 371820, Note_on_c, 4, 59, 92
9, 371864, Note_on_c, 4, 62, 0
9, 371864, Note_on_c, 4, 59, 0
9, 371880, Note_on_c, 4, 59, 92
9, 371880, Note_on_c, 4, 62, 92
9, 371969, Note_on_c, 4, 59, 0
9, 371969, Note_on_c, 4, 62, 0
9, 371998, Control_c, 4, 11, 127
9, 372000, Note_on_c, 4, 61, 84
9, 372000, Note_on_c, 4, 57, 84
9, 372119, Note_on_c, 4, 61, 0
9, 372119, Note_on_c, 4, 57, 0
9, 372330, Note_on_c, 4, 45, 84
9, 372359, Note_on_c, 4, 45, 0
9, 372360, Note_on_c, 4, 47, 84
9, 372599, Note_on_c, 4, 47, 0
9, 372690, Note_on_c, 4, 47, 84
9, 372719, Note_on_c, 4, 47, 0
9, 372720, Note_on_c, 4, 49, 84
9, 372959, Note_on_c, 4, 49, 0
9, 373050, Note_on_c, 4, 49, 84
9, 373079, Note_on_c, 4, 49, 0
9, 373080, Note_on_c, 4, 50, 84
9, 373319, Note_on_c, 4, 50, 0
9, 373410, Note_on_c, 4, 50, 84
9, 373439, Note_on_c, 4, 50, 0
9, 373440, Note_on_c, 4, 52, 84
9, 373679, Note_on_c, 4, 52, 0
9, 373770, Note_on_c, 4, 52, 84
9, 373799, Note_on_c, 4, 52, 0
9, 373800, Note_on_c, 4, 54, 84
9, 374039, Note_on_c, 4, 54, 0
9, 374130, Note_on_c, 4, 54, 84
9, 374159, Note_on_c, 4, 54, 0
9, 374160, Note_on_c, 4, 56, 84
9, 374399, Note_on_c, 4, 56, 0
9, 374490, Note_on_c, 4, 56, 84
9, 374519, Note_on_c, 4, 56, 0
9, 374520, Note_on_c, 4, 57, 84
9, 374759, Note_on_c, 4, 57, 0
9, 376560, Note_on_c, 4, 56, 52
9, 376679, Note_on_c, 4, 56, 0
9, 378480, Note_on_c, 4, 60, 44
9, 378480, Note_on_c, 4, 63, 44
9, 378651, Note_on_c, 4, 60, 0
9, 378651, Note_on_c, 4, 63, 0
9, 378660, Note_on_c, 4, 60, 44
9, 378660, Note_on_c, 4, 63, 44
9, 378719, Note_on_c, 4, 60, 0
9, 378719, Note_on_c, 4, 63, 0
9, 378720, Note_on_c, 4, 60, 44
9, 378720, Note_on_c, 4, 63, 44
9, 378824, Note_on_c, 4, 60, 0
9, 378824, Note_on_c, 4, 63, 0
9, 378840, Note_on_c, 4, 60, 44
9, 378840, Note_on_c, 4, 63, 44
9, 379011, Note_on_c, 4, 60, 0
9, 379011, Note_on_c, 4, 63, 0
9, 379020, Note_on_c, 4, 63, 44
9, 379020, Note_on_c, 4, 60, 44
9, 379079, Note_on_c, 4, 63, 0
9, 379079, Note_on_c, 4, 60, 0
9, 379080, Note_on_c, 4, 60, 44
9, 379080, Note_on_c, 4, 63, 44
9, 379184, Note_on_c, 4, 60, 0
9, 379184, Note_on_c, 4, 63, 0
9, 379200, Note_on_c, 4, 63, 44
9, 379200, Note_on_c, 4, 60, 44
9, 380624, Note_on_c, 4, 63, 0
9, 380624, Note_on_c, 4, 60, 0
9, 380640, Note_on_c, 4, 60, 44
9, 380640, Note_on_c, 4, 64, 44
9, 382079, Note_on_c, 4, 60, 0
9, 382079, Note_on_c, 4, 64, 0
9, 384240, Note_on_c, 4, 61, 44
9, 384240, Note_on_c, 4, 57, 44
9, 384779, Note_on_c, 4, 61, 0
9, 384779, Note_on_c, 4, 57, 0
9, 384780, Note_on_c, 4, 59, 44
9, 384780, Note_on_c, 4, 52, 44
9, 384839, Note_on_c, 4, 59, 0
9, 384839, Note_on_c, 4, 52, 0
9, 384840, Note_on_c, 4, 57, 44
9, 384840, Note_on_c, 4, 49, 44
9, 384959, Note_on_c, 4, 57, 0
9, 384959, Note_on_c, 4, 49, 0
9, 384960, Note_on_c, 4, 52, 44
9, 384960, Note_on_c, 4, 64, 44
9, 387839, Note_on_c, 4, 52, 0
9, 387839, Note_on_c, 4, 64, 0
9, 387840, Note_on_c, 4, 64, 44
9, 387840, Note_on_c, 4, 52, 44
9, 390944, Note_on_c, 4, 64, 0
9, 390944, Note_on_c, 4, 52, 0
9, 390958, Control_c, 4, 11, 49
9, 390960, Note_on_c, 4, 52, 84
9, 390960, Note_on_c, 4, 64, 84
9, 391049, Note_on_c, 4, 52, 0
9, 391049, Note_on_c, 4, 64, 0
9, 391080, Note_on_c, 4, 64, 84
9, 391080, Control_c, 4, 11, 50
9, 391080, Note_on_c, 4, 52, 84
9, 391260, Control_c, 4, 11, 51
9, 391440, Control_c, 4, 11, 52
9, 391620, Control_c, 4, 11, 53
9, 391800, Control_c, 4, 11, 54
9, 391980, Control_c, 4, 11, 55
9, 392160, Control_c, 4, 11, 56
9, 392340, Control_c, 4, 11, 57
9, 392384, Note_on_c, 4, 64, 0
9, 392384, Note_on_c, 4, 52, 0
9, 392400, Note_on_c, 4, 64, 84
9, 392400, Note_on_c, 4, 52, 84
9, 392489, Note_on_c, 4, 64, 0
9, 392489, Note_on_c, 4, 52, 0
9, 392520, Control_c, 4, 11, 58
9, 392520, Note_on_c, 4, 64, 84
9, 392520, Note_on_c, 4, 52, 84
9, 392700, Control_c, 4, 11, 59
9, 392880, Control_c, 4, 11, 60
9, 393060, Control_c, 4, 11, 61
9, 393240, Control_c, 4, 11, 62
9, 393420, Control_c, 4, 11, 63
9, 393600, Control_c, 4, 11, 64
9, 393780, Control_c, 4, 11, 65
9, 393824, Note_on_c, 4, 64, 0
9, 393824, Note_on_c, 4, 52, 0
9, 393840, Note_on_c, 4, 52, 84
9, 393840, Note_on_c, 4, 64, 84
9, 393944, Note_on_c, 4, 52, 0
9, 393944, Note_on_c, 4, 64, 0
9, 393960, Note_on_c, 4, 52, 84
9, 393960, Control_c, 4, 11, 66
9, 393960, Note_on_c, 4, 64, 84
9, 394140, Control_c, 4, 11, 67
9, 394169, Note_on_c, 4, 52, 0
9, 394169, Note_on_c, 4, 64, 0
9, 394200, Note_on_c, 4, 52, 84
9, 394200, Note_on_c, 4, 64, 84
9, 394289, Note_on_c, 4, 52, 0
9, 394289, Note_on_c, 4, 64, 0
9, 394320, Note_on_c, 4, 64, 84
9, 394320, Control_c, 4, 11, 68
9, 394320, Note_on_c, 4, 52, 84
9, 394500, Control_c, 4, 11, 69
9, 394529, Note_on_c, 4, 64, 0
9, 394529, Note_on_c, 4, 52, 0
9, 394560, Note_on_c, 4, 52, 84
9, 394560, Note_on_c, 4, 64, 84
9, 394664, Note_on_c, 4, 52, 0
9, 394664, Note_on_c, 4, 64, 0
9, 394680, Note_on_c, 4, 52, 84
9, 394680, Control_c, 4, 11, 70
9, 394680, Note_on_c, 4, 64, 84
9, 394860, Control_c, 4, 11, 71
9, 394889, Note_on_c, 4, 52, 0
9, 394889, Note_on_c, 4, 64, 0
9, 394920, Note_on_c, 4, 52, 84
9, 394920, Note_on_c, 4, 64, 84
9, 395009, Note_on_c, 4, 52, 0
9, 395009, Note_on_c, 4, 64, 0
9, 395040, Control_c, 4, 11, 72
9, 395040, Note_on_c, 4, 64, 84
9, 395040, Note_on_c, 4, 52, 84
9, 395220, Control_c, 4, 11, 73
9, 395249, Note_on_c, 4, 64, 0
9, 395249, Note_on_c, 4, 52, 0
9, 395280, Note_on_c, 4, 64, 84
9, 395280, Note_on_c, 4, 52, 84
9, 395384, Note_on_c, 4, 64, 0
9, 395384, Note_on_c, 4, 52, 0
9, 395400, Note_on_c, 4, 64, 84
9, 395400, Control_c, 4, 11, 74
9, 395400, Note_on_c, 4, 52, 84
9, 395580, Control_c, 4, 11, 75
9, 395609, Note_on_c, 4, 64, 0
9, 395609, Note_on_c, 4, 52, 0
9, 395640, Note_on_c, 4, 52, 84
9, 395640, Note_on_c, 4, 64, 84
9, 395729, Note_on_c, 4, 52, 0
9, 395729, Note_on_c, 4, 64, 0
9, 395760, Note_on_c, 4, 52, 84
9, 395760, Control_c, 4, 11, 76
9, 395760, Note_on_c, 4, 64, 84
9, 395940, Control_c, 4, 11, 77
9, 395969, Note_on_c, 4, 52, 0
9, 395969, Note_on_c, 4, 64, 0
9, 396000, Note_on_c, 4, 64, 84
9, 396000, Note_on_c, 4, 52, 84
9, 396104, Note_on_c, 4, 64, 0
9, 396104, Note_on_c, 4, 52, 0
9, 396120, Note_on_c, 4, 64, 84
9, 396120, Control_c, 4, 11, 78
9, 396120, Note_on_c, 4, 52, 84
9, 396300, Control_c, 4, 11, 79
9, 396329, Note_on_c, 4, 64, 0
9, 396329, Note_on_c, 4, 52, 0
9, 396360, Note_on_c, 4, 52, 84
9, 396360, Note_on_c, 4, 64, 84
9, 396449, Note_on_c, 4, 52, 0
9, 396449, Note_on_c, 4, 64, 0
9, 396480, Note_on_c, 4, 52, 84
9, 396480, Control_c, 4, 11, 80
9, 396480, Note_on_c, 4, 64, 84
9, 396584, Note_on_c, 4, 52, 0
9, 396584, Note_on_c, 4, 64, 0
9, 396600, Note_on_c, 4, 64, 84
9, 396600, Note_on_c, 4, 52, 84
9, 396660, Control_c, 4, 11, 81
9, 396704, Note_on_c, 4, 64, 0
9, 396704, Note_on_c, 4, 52, 0
9, 396720, Note_on_c, 4, 52, 84
9, 396720, Note_on_c, 4, 64, 84
9, 396824, Note_on_c, 4, 52, 0
9, 396824, Note_on_c, 4, 64, 0
9, 396840, Control_c, 4, 11, 82
9, 396840, Note_on_c, 4, 52, 84
9, 396840, Note_on_c, 4, 64, 84
9, 396944, Note_on_c, 4, 52, 0
9, 396944, Note_on_c, 4, 64, 0
9, 396960, Note_on_c, 4, 52, 84
9, 396960, Note_on_c, 4, 64, 84
9, 397020, Control_c, 4, 11, 83
9, 397064, Note_on_c, 4, 52, 0
9, 397064, Note_on_c, 4, 64, 0
9, 397080, Note_on_c, 4, 64, 84
9, 397080, Note_on_c, 4, 52, 84
9, 397184, Note_on_c, 4, 64, 0
9, 397184, Note_on_c, 4, 52, 0
9, 397200, Note_on_c, 4, 52, 84
9, 397200, Control_c, 4, 11, 84
9, 397200, Note_on_c, 4, 64, 84
9, 397304, Note_on_c, 4, 52, 0
9, 397304, Note_on_c, 4, 64, 0
9, 397320, Note_on_c, 4, 52, 84
9, 397320, Note_on_c, 4, 64, 84
9, 397380, Control_c, 4, 11, 85
9, 397424, Note_on_c, 4, 52, 0
9, 397424, Note_on_c, 4, 64, 0
9, 397440, Note_on_c, 4, 52, 84
9, 397440, Note_on_c, 4, 64, 84
9, 397544, Note_on_c, 4, 52, 0
9, 397544, Note_on_c, 4, 64, 0
9, 397560, Note_on_c, 4, 64, 84
9, 397560, Note_on_c, 4, 52, 84
9, 397560, Control_c, 4, 11, 86
9, 397664, Note_on_c, 4, 64, 0
9, 397664, Note_on_c, 4, 52, 0
9, 397680, Note_on_c, 4, 52, 84
9, 397680, Note_on_c, 4, 64, 84
9, 397740, Control_c, 4, 11, 87
9, 397784, Note_on_c, 4, 52, 0
9, 397784, Note_on_c, 4, 64, 0
9, 397800, Note_on_c, 4, 64, 84
9, 397800, Note_on_c, 4, 52, 84
9, 397904, Note_on_c, 4, 64, 0
9, 397904, Note_on_c, 4, 52, 0
9, 397920, Note_on_c, 4, 64, 84
9, 397920, Control_c, 4, 11, 88
9, 397920, Note_on_c, 4, 52, 84
9, 398024, Note_on_c, 4, 64, 0
9, 398024, Note_on_c, 4, 52, 0
9, 398040, Note_on_c, 4, 64, 84
9, 398040, Note_on_c, 4, 52, 84
9, 398100, Control_c, 4, 11, 89
9, 398144, Note_on_c, 4, 64, 0
9, 398144, Note_on_c, 4, 52, 0
9, 398160, Note_on_c, 4, 64, 84
9, 398160, Note_on_c, 4, 52, 84
9, 398264, Note_on_c, 4, 64, 0
9, 398264, Note_on_c, 4, 52, 0
9, 398280, Note_on_c, 4, 64, 84
9, 398280, Note_on_c, 4, 52, 84
9, 398280, Control_c, 4, 11, 90
9, 398384, Note_on_c, 4, 64, 0
9, 398384, Note_on_c, 4, 52, 0
9, 398400, Note_on_c, 4, 64, 84
9, 398400, Note_on_c, 4, 52, 84
9, 398460, Control_c, 4, 11, 91
9, 398504, Note_on_c, 4, 64, 0
9, 398504, Note_on_c, 4, 52, 0
9, 398520, Note_on_c, 4, 64, 84
9, 398520, Note_on_c, 4, 52, 84
9, 398624, Note_on_c, 4, 64, 0
9, 398624, Note_on_c, 4, 52, 0
9, 398640, Note_on_c, 4, 52, 84
9, 398640, Note_on_c, 4, 64, 84
9, 398640, Control_c, 4, 11, 92
9, 398744, Note_on_c, 4, 52, 0
9, 398744, Note_on_c, 4, 64, 0
9, 398760, Note_on_c, 4, 64, 84
9, 398760, Note_on_c, 4, 52, 84
9, 398820, Control_c, 4, 11, 93
9, 398864, Note_on_c, 4, 64, 0
9, 398864, Note_on_c, 4, 52, 0
9, 398880, Note_on_c, 4, 52, 84
9, 398880, Note_on_c, 4, 64, 84
9, 398984, Note_on_c, 4, 52, 0
9, 398984, Note_on_c, 4, 64, 0
9, 399000, Note_on_c, 4, 64, 84
9, 399000, Note_on_c, 4, 52, 84
9, 399000, Control_c, 4, 11, 94
9, 399104, Note_on_c, 4, 64, 0
9, 399104, Note_on_c, 4, 52, 0
9, 399120, Note_on_c, 4, 52, 84
9, 399120, Note_on_c, 4, 64, 84
9, 399180, Control_c, 4, 11, 96
9, 399224, Note_on_c, 4, 52, 0
9, 399224, Note_on_c, 4, 64, 0
9, 399240, Note_on_c, 4, 64, 84
9, 399240, Note_on_c, 4, 52, 84
9, 399344, Note_on_c, 4, 64, 0
9, 399344, Note_on_c, 4, 52, 0
9, 399360, Control_c, 4, 11, 96
9, 399360, Note_on_c, 4, 64, 84
9, 399360, Note_on_c, 4, 52, 84
9, 399406, Control_c, 4, 11, 97
9, 399453, Control_c, 4, 11, 98
9, 399464, Note_on_c, 4, 64, 0
9, 399464, Note_on_c, 4, 52, 0
9, 399480, Note_on_c, 4, 64, 84
9, 399480, Note_on_c, 4, 52, 84
9, 399499, Control_c, 4, 11, 99
9, 399546, Control_c, 4, 11, 100
9, 399584, Note_on_c, 4, 64, 0
9, 399584, Note_on_c, 4, 52, 0
9, 399592, Control_c, 4, 11, 101
9, 399600, Note_on_c, 4, 64, 84
9, 399600, Note_on_c, 4, 52, 84
9, 399639, Control_c, 4, 11, 102
9, 399685, Control_c, 4, 11, 103
9, 399704, Note_on_c, 4, 64, 0
9, 399704, Note_on_c, 4, 52, 0
9, 399720, Note_on_c, 4, 64, 84
9, 399720, Note_on_c, 4, 52, 84
9, 399732, Control_c, 4, 11, 104
9, 399778, Control_c, 4, 11, 105
9, 399824, Note_on_c, 4, 64, 0
9, 399824, Note_on_c, 4, 52, 0
9, 399825, Control_c, 4, 11, 106
9, 399840, Note_on_c, 4, 52, 84
9, 399840, Note_on_c, 4, 64, 84
9, 399871, Control_c, 4, 11, 107
9, 399917, Control_c, 4, 11, 108
9, 399944, Note_on_c, 4, 52, 0
9, 399944, Note_on_c, 4, 64, 0
9, 399960, Note_on_c, 4, 52, 84
9, 399960, Note_on_c, 4, 64, 84
9, 399964, Control_c, 4, 11, 109
9, 400010, Control_c, 4, 11, 110
9, 400057, Control_c, 4, 11, 111
9, 400064, Note_on_c, 4, 52, 0
9, 400064, Note_on_c, 4, 64, 0
9, 400080, Note_on_c, 4, 52, 84
9, 400080, Note_on_c, 4, 64, 84
9, 400103, Control_c, 4, 11, 112
9, 400150, Control_c, 4, 11, 113
9, 400184, Note_on_c, 4, 52, 0
9, 400184, Note_on_c, 4, 64, 0
9, 400196, Control_c, 4, 11, 114
9, 400200, Note_on_c, 4, 52, 84
9, 400200, Note_on_c, 4, 64, 84
9, 400243, Control_c, 4, 11, 115
9, 400289, Control_c, 4, 11, 116
9, 400304, Note_on_c, 4, 52, 0
9, 400304, Note_on_c, 4, 64, 0
9, 400320, Note_on_c, 4, 52, 84
9, 400320, Note_on_c, 4, 64, 84
9, 400335, Control_c, 4, 11, 117
9, 400382, Control_c, 4, 11, 118
9, 400424, Note_on_c, 4, 52, 0
9, 400424, Note_on_c, 4, 64, 0
9, 400428, Control_c, 4, 11, 119
9, 400440, Note_on_c, 4, 52, 84
9, 400440, Note_on_c, 4, 64, 84
9, 400475, Control_c, 4, 11, 120
9, 400521, Control_c, 4, 11, 121
9, 400544, Note_on_c, 4, 52, 0
9, 400544, Note_on_c, 4, 64, 0
9, 400560, Note_on_c, 4, 52, 84
9, 400560, Note_on_c, 4, 64, 84
9, 400568, Control_c, 4, 11, 122
9, 400614, Control_c, 4, 11, 123
9, 400661, Control_c, 4, 11, 124
9, 400664, Note_on_c, 4, 52, 0
9, 400664, Note_on_c, 4, 64, 0
9, 400680, Note_on_c, 4, 52, 84
9, 400680, Note_on_c, 4, 64, 84
9, 400707, Control_c, 4, 11, 125
9, 400754, Control_c, 4, 11, 127
9, 400784, Note_on_c, 4, 52, 0
9, 400784, Note_on_c, 4, 64, 0
9, 400800, Note_on_c, 4, 61, 84
9, 400800, Note_on_c, 4, 64, 84
9, 400971, Note_on_c, 4, 61, 0
9, 400971, Note_on_c, 4, 64, 0
9, 400980, Note_on_c, 4, 64, 84
9, 400980, Note_on_c, 4, 61, 84
9, 401031, Note_on_c, 4, 64, 0
9, 401031, Note_on_c, 4, 61, 0
9, 401040, Note_on_c, 4, 61, 84
9, 401040, Note_on_c, 4, 64, 84
9, 401144, Note_on_c, 4, 61, 0
9, 401144, Note_on_c, 4, 64, 0
9, 401160, Note_on_c, 4, 61, 84
9, 401160, Note_on_c, 4, 64, 84
9, 401331, Note_on_c, 4, 61, 0
9, 401331, Note_on_c, 4, 64, 0
9, 401340, Note_on_c, 4, 64, 84
9, 401340, Note_on_c, 4, 61, 84
9, 401391, Note_on_c, 4, 64, 0
9, 401391, Note_on_c, 4, 61, 0
9, 401400, Note_on_c, 4, 64, 84
9, 401400, Note_on_c, 4, 61, 84
9, 401504, Note_on_c, 4, 64, 0
9, 401504, Note_on_c, 4, 61, 0
9, 401520, Note_on_c, 4, 61, 84
9, 401520, Note_on_c, 4, 64, 84
9, 401691, Note_on_c, 4, 61, 0
9, 401691, Note_on_c, 4, 64, 0
9, 401700, Note_on_c, 4, 61, 84
9, 401700, Note_on_c, 4, 64, 84
9, 401751, Note_on_c, 4, 61, 0
9, 401751, Note_on_c, 4, 64, 0
9, 401760, Note_on_c, 4, 64, 84
9, 401760, Note_on_c, 4, 61, 84
9, 401864, Note_on_c, 4, 64, 0
9, 401864, Note_on_c, 4, 61, 0
9, 401880, Note_on_c, 4, 64, 84
9, 401880, Note_on_c, 4, 61, 84
9, 402051, Note_on_c, 4, 64, 0
9, 402051, Note_on_c, 4, 61, 0
9, 402060, Note_on_c, 4, 61, 84
9, 402060, Note_on_c, 4, 64, 84
9, 402111, Note_on_c, 4, 61, 0
9, 402111, Note_on_c, 4, 64, 0
9, 402120, Note_on_c, 4, 64, 84
9, 402120, Note_on_c, 4, 61, 84
9, 402224, Note_on_c, 4, 64, 0
9, 402224, Note_on_c, 4, 61, 0
9, 402240, Note_on_c, 4, 66, 84
9, 402240, Note_on_c, 4, 62, 84
9, 402411, Note_on_c, 4, 66, 0
9, 402411, Note_on_c, 4, 62, 0
9, 402420, Note_on_c, 4, 62, 84
9, 402420, Note_on_c, 4, 66, 84
9, 402471, Note_on_c, 4, 62, 0
9, 402471, Note_on_c, 4, 66, 0
9, 402480, Note_on_c, 4, 66, 84
9, 402480, Note_on_c, 4, 62, 84
9, 402584, Note_on_c, 4, 66, 0
9, 402584, Note_on_c, 4, 62, 0
9, 402600, Note_on_c, 4, 66, 84
9, 402600, Note_on_c, 4, 62, 84
9, 402771, Note_on_c, 4, 66, 0
9, 402771, Note_on_c, 4, 62, 0
9, 402780, Note_on_c, 4, 62, 84
9, 402780, Note_on_c, 4, 66, 84
9, 402831, Note_on_c, 4, 62, 0
9, 402831, Note_on_c, 4, 66, 0
9, 402840, Note_on_c, 4, 66, 84
9, 402840, Note_on_c, 4, 62, 84
9, 402944, Note_on_c, 4, 66, 0
9, 402944, Note_on_c, 4, 62, 0
9, 402960, Note_on_c, 4, 62, 84
9, 402960, Note_on_c, 4, 66, 84
9, 403131, Note_on_c, 4, 62, 0
9, 403131, Note_on_c, 4, 66, 0
9, 403140, Note_on_c, 4, 62, 84
9, 403140, Note_on_c, 4, 66, 84
9, 403191, Note_on_c, 4, 62, 0
9, 403191, Note_on_c, 4, 66, 0
9, 403200, Note_on_c, 4, 66, 84
9, 403200, Note_on_c, 4, 62, 84
9, 403304, Note_on_c, 4, 66, 0
9, 403304, Note_on_c, 4, 62, 0
9, 403320, Note_on_c, 4, 66, 84
9, 403320, Note_on_c, 4, 62, 84
9, 403491, Note_on_c, 4, 66, 0
9, 403491, Note_on_c, 4, 62, 0
9, 403500, Note_on_c, 4, 66, 84
9, 403500, Note_on_c, 4, 62, 84
9, 403551, Note_on_c, 4, 66, 0
9, 403551, Note_on_c, 4, 62, 0
9, 403560, Note_on_c, 4, 62, 84
9, 403560, Note_on_c, 4, 66, 84
9, 403664, Note_on_c, 4, 62, 0
9, 403664, Note_on_c, 4, 66, 0
9, 403680, Note_on_c, 4, 61, 84
9, 403680, Note_on_c, 4, 57, 84
9, 404384, Note_on_c, 4, 61, 0
9, 404384, Note_on_c, 4, 57, 0
9, 404400, Note_on_c, 4, 61, 84
9, 404400, Note_on_c, 4, 57, 84
9, 405104, Note_on_c, 4, 61, 0
9, 405104, Note_on_c, 4, 57, 0
9, 405120, Note_on_c, 4, 61, 84
9, 405120, Note_on_c, 4, 57, 84
9, 405824, Note_on_c, 4, 61, 0
9, 405824, Note_on_c, 4, 57, 0
9, 405840, Note_on_c, 4, 57, 84
9, 405840, Note_on_c, 4, 61, 84
9, 406184, Note_on_c, 4, 57, 0
9, 406184, Note_on_c, 4, 61, 0
9, 406200, Note_on_c, 4, 57, 84
9, 406200, Note_on_c, 4, 69, 84
9, 406559, Note_on_c, 4, 57, 0
9, 406559, Note_on_c, 4, 69, 0
9, 406560, Note_on_c, 4, 54, 84
9, 406560, Note_on_c, 4, 66, 84
9, 406919, Note_on_c, 4, 54, 0
9, 406919, Note_on_c, 4, 66, 0
9, 406920, Note_on_c, 4, 64, 84
9, 406920, Note_on_c, 4, 52, 84
9, 407264, Note_on_c, 4, 64, 0
9, 407264, Note_on_c, 4, 52, 0
9, 407280, Note_on_c, 4, 63, 84
9, 407280, Note_on_c, 4, 51, 84
9, 407399, Note_on_c, 4, 63, 0
9, 407399, Note_on_c, 4, 51, 0
9, 407460, Note_on_c, 4, 66, 84
9, 407460, Note_on_c, 4, 63, 84
9, 407511, Note_on_c, 4, 66, 0
9, 407511, Note_on_c, 4, 63, 0
9, 407520, Note_on_c, 4, 63, 84
9, 407520, Note_on_c, 4, 66, 84
9, 407624, Note_on_c, 4, 63, 0
9, 407624, Note_on_c, 4, 66, 0
9, 407640, Note_on_c, 4, 63, 84
9, 407640, Note_on_c, 4, 66, 84
9, 407879, Note_on_c, 4, 63, 0
9, 407879, Note_on_c, 4, 66, 0
9, 408180, Note_on_c, 4, 66, 84
9, 408180, Note_on_c, 4, 63, 84
9, 408231, Note_on_c, 4, 66, 0
9, 408231, Note_on_c, 4, 63, 0
9, 408240, Note_on_c, 4, 66, 84
9, 408240, Note_on_c, 4, 63, 84
9, 408344, Note_on_c, 4, 66, 0
9, 408344, Note_on_c, 4, 63, 0
9, 408360, Note_on_c, 4, 63, 84
9, 408360, Note_on_c, 4, 66, 84
9, 408599, Note_on_c, 4, 63, 0
9, 408599, Note_on_c, 4, 66, 0
9, 408900, Note_on_c, 4, 62, 84
9, 408900, Note_on_c, 4, 64, 84
9, 408951, Note_on_c, 4, 62, 0
9, 408951, Note_on_c, 4, 64, 0
9, 408960, Note_on_c, 4, 64, 84
9, 408960, Note_on_c, 4, 62, 84
9, 409064, Note_on_c, 4, 64, 0
9, 409064, Note_on_c, 4, 62, 0
9, 409080, Note_on_c, 4, 64, 84
9, 409080, Note_on_c, 4, 62, 84
9, 409319, Note_on_c, 4, 64, 0
9, 409319, Note_on_c, 4, 62, 0
9, 409620, Note_on_c, 4, 62, 84
9, 409620, Note_on_c, 4, 64, 84
9, 409671, Note_on_c, 4, 62, 0
9, 409671, Note_on_c, 4, 64, 0
9, 409680, Note_on_c, 4, 64, 84
9, 409680, Note_on_c, 4, 62, 84
9, 409784, Note_on_c, 4, 64, 0
9, 409784, Note_on_c, 4, 62, 0
9, 409800, Note_on_c, 4, 62, 84
9, 409800, Note_on_c, 4, 64, 84
9, 410039, Note_on_c, 4, 62, 0
9, 410039, Note_on_c, 4, 64, 0
9, 410340, Note_on_c, 4, 64, 84
9, 410340, Note_on_c, 4, 61, 84
9, 410391, Note_on_c, 4, 64, 0
9, 410391, Note_on_c, 4, 61, 0
9, 410400, Note_on_c, 4, 61, 84
9, 410400, Note_on_c, 4, 64, 84
9, 410504, Note_on_c, 4, 61, 0
9, 410504, Note_on_c, 4, 64, 0
9, 410520, Note_on_c, 4, 62, 84
9, 410520, Note_on_c, 4, 66, 84
9, 410759, Note_on_c, 4, 62, 0
9, 410759, Note_on_c, 4, 66, 0
9, 411060, Note_on_c, 4, 61, 84
9, 411060, Note_on_c, 4, 64, 84
9, 411111, Note_on_c, 4, 61, 0
9, 411111, Note_on_c, 4, 64, 0
9, 411120, Note_on_c, 4, 64, 84
9, 411120, Note_on_c, 4, 61, 84
9, 411224, Note_on_c, 4, 64, 0
9, 411224, Note_on_c, 4, 61, 0
9, 411240, Note_on_c, 4, 62, 84
9, 411240, Note_on_c, 4, 59, 84
9, 411479, Note_on_c, 4, 62, 0
9, 411479, Note_on_c, 4, 59, 0
9, 411600, Note_on_c, 4, 61, 84
9, 411600, Note_on_c, 4, 57, 84
9, 411719, Note_on_c, 4, 61, 0
9, 411719, Note_on_c, 4, 57, 0
9, 411780, Note_on_c, 4, 62, 84
9, 411780, Note_on_c, 4, 66, 84
9, 411831, Note_on_c, 4, 62, 0
9, 411831, Note_on_c, 4, 66, 0
9, 411840, Note_on_c, 4, 62, 84
9, 411840, Note_on_c, 4, 66, 84
9, 411944, Note_on_c, 4, 62, 0
9, 411944, Note_on_c, 4, 66, 0
9, 411960, Note_on_c, 4, 66, 84
9, 411960, Note_on_c, 4, 62, 84
9, 412079, Note_on_c, 4, 66, 0
9, 412079, Note_on_c, 4, 62, 0
9, 412140, Note_on_c, 4, 64, 84
9, 412140, Note_on_c, 4, 61, 84
9, 412191, Note_on_c, 4, 64, 0
9, 412191, Note_on_c, 4, 61, 0
9, 412200, Note_on_c, 4, 64, 84
9, 412200, Note_on_c, 4, 61, 84
9, 412304, Note_on_c, 4, 64, 0
9, 412304, Note_on_c, 4, 61, 0
9, 412320, Note_on_c, 4, 61, 84
9, 412320, Note_on_c, 4, 64, 84
9, 412439, Note_on_c, 4, 61, 0
9, 412439, Note_on_c, 4, 64, 0
9, 412500, Note_on_c, 4, 62, 84
9, 412500, Note_on_c, 4, 59, 84
9, 412551, Note_on_c, 4, 62, 0
9, 412551, Note_on_c, 4, 59, 0
9, 412560, Note_on_c, 4, 62, 84
9, 412560, Note_on_c, 4, 59, 84
9, 412664, Note_on_c, 4, 62, 0
9, 412664, Note_on_c, 4, 59, 0
9, 412680, Note_on_c, 4, 62, 84
9, 412680, Note_on_c, 4, 59, 84
9, 412799, Note_on_c, 4, 62, 0
9, 412799, Note_on_c, 4, 59, 0
9, 412860, Note_on_c, 4, 61, 84
9, 412860, Note_on_c, 4, 57, 84
9, 412911, Note_on_c, 4, 61, 0
9, 412911, Note_on_c, 4, 57, 0
9, 412920, Note_on_c, 4, 61, 84
9, 412920, Note_on_c, 4, 57, 84
9, 413024, Note_on_c, 4, 61, 0
9, 413024, Note_on_c, 4, 57, 0
9, 413040, Note_on_c, 4, 57, 84
9, 413040, Note_on_c, 4, 61, 84
9, 413159, Note_on_c, 4, 57, 0
9, 413159, Note_on_c, 4, 61, 0
9, 413220, Note_on_c, 4, 66, 84
9, 413220, Note_on_c, 4, 62, 84
9, 413271, Note_on_c, 4, 66, 0
9, 413271, Note_on_c, 4, 62, 0
9, 413280, Note_on_c, 4, 62, 84
9, 413280, Note_on_c, 4, 66, 84
9, 413384, Note_on_c, 4, 62, 0
9, 413384, Note_on_c, 4, 66, 0
9, 413400, Note_on_c, 4, 62, 84
9, 413400, Note_on_c, 4, 66, 84
9, 413519, Note_on_c, 4, 62, 0
9, 413519, Note_on_c, 4, 66, 0
9, 413580, Note_on_c, 4, 64, 84
9, 413580, Note_on_c, 4, 61, 84
9, 413631, Note_on_c, 4, 64, 0
9, 413631, Note_on_c, 4, 61, 0
9, 413640, Note_on_c, 4, 61, 84
9, 413640, Note_on_c, 4, 64, 84
9, 413744, Note_on_c, 4, 61, 0
9, 413744, Note_on_c, 4, 64, 0
9, 413760, Note_on_c, 4, 64, 84
9, 413760, Note_on_c, 4, 61, 84
9, 413879, Note_on_c, 4, 64, 0
9, 413879, Note_on_c, 4, 61, 0
9, 413940, Note_on_c, 4, 59, 84
9, 413940, Note_on_c, 4, 56, 84
9, 413991, Note_on_c, 4, 59, 0
9, 413991, Note_on_c, 4, 56, 0
9, 414000, Note_on_c, 4, 59, 84
9, 414000, Note_on_c, 4, 56, 84
9, 414104, Note_on_c, 4, 59, 0
9, 414104, Note_on_c, 4, 56, 0
9, 414120, Note_on_c, 4, 59, 84
9, 414120, Note_on_c, 4, 56, 84
9, 414239, Note_on_c, 4, 59, 0
9, 414239, Note_on_c, 4, 56, 0
9, 414300, Note_on_c, 4, 61, 84
9, 414300, Note_on_c, 4, 57, 84
9, 414351, Note_on_c, 4, 61, 0
9, 414351, Note_on_c, 4, 57, 0
9, 414360, Note_on_c, 4, 57, 84
9, 414360, Note_on_c, 4, 61, 84
9, 414464, Note_on_c, 4, 57, 0
9, 414464, Note_on_c, 4, 61, 0
9, 414480, Note_on_c, 4, 64, 84
9, 414480, Note_on_c, 4, 61, 84
9, 415011, Note_on_c, 4, 64, 0
9, 415011, Note_on_c, 4, 61, 0
9, 415020, Note_on_c, 4, 59, 84
9, 415020, Note_on_c, 4, 62, 84
9, 415064, Note_on_c, 4, 59, 0
9, 415064, Note_on_c, 4, 62, 0
9, 415080, Note_on_c, 4, 57, 84
9, 415080, Note_on_c, 4, 61, 84
9, 415169, Note_on_c, 4, 57, 0
9, 415169, Note_on_c, 4, 61, 0
9, 415200, Note_on_c, 4, 59, 84
9, 415200, Note_on_c, 4, 56, 84
9, 415319, Note_on_c, 4, 59, 0
9, 415319, Note_on_c, 4, 56, 0
9, 415380, Note_on_c, 4, 59, 84
9, 415380, Note_on_c, 4, 56, 84
9, 415431, Note_on_c, 4, 59, 0
9, 415431, Note_on_c, 4, 56, 0
9, 415440, Note_on_c, 4, 56, 84
9, 415440, Note_on_c, 4, 59, 84
9, 415544, Note_on_c, 4, 56, 0
9, 415544, Note_on_c, 4, 59, 0
9, 415560, Note_on_c, 4, 59, 84
9, 415560, Note_on_c, 4, 56, 84
9, 415679, Note_on_c, 4, 59, 0
9, 415679, Note_on_c, 4, 56, 0
9, 415740, Note_on_c, 4, 64, 84
9, 415740, Note_on_c, 4, 61, 84
9, 415791, Note_on_c, 4, 64, 0
9, 415791, Note_on_c, 4, 61, 0
9, 415800, Note_on_c, 4, 61, 84
9, 415800, Note_on_c, 4, 64, 84
9, 415904, Note_on_c, 4, 61, 0
9, 415904, Note_on_c, 4, 64, 0
9, 415920, Note_on_c, 4, 64, 84
9, 415920, Note_on_c, 4, 61, 84
9, 416451, Note_on_c, 4, 64, 0
9, 416451, Note_on_c, 4, 61, 0
9, 416460, Note_on_c, 4, 59, 84
9, 416460, Note_on_c, 4, 62, 84
9, 416504, Note_on_c, 4, 59, 0
9, 416504, Note_on_c, 4, 62, 0
9, 416520, Note_on_c, 4, 61, 84
9, 416520, Note_on_c, 4, 57, 84
9, 416609, Note_on_c, 4, 61, 0
9, 416609, Note_on_c, 4, 57, 0
9, 416640, Note_on_c, 4, 56, 84
9, 416640, Note_on_c, 4, 59, 84
9, 416759, Note_on_c, 4, 56, 0
9, 416759, Note_on_c, 4, 59, 0
9, 416820, Note_on_c, 4, 56, 84
9, 416820, Note_on_c, 4, 59, 84
9, 416871, Note_on_c, 4, 56, 0
9, 416871, Note_on_c, 4, 59, 0
9, 416880, Note_on_c, 4, 56, 84
9, 416880, Note_on_c, 4, 59, 84
9, 416984, Note_on_c, 4, 56, 0
9, 416984, Note_on_c, 4, 59, 0
9, 417000, Note_on_c, 4, 56, 84
9, 417000, Note_on_c, 4, 59, 84
9, 417119, Note_on_c, 4, 56, 0
9, 417119, Note_on_c, 4, 59, 0
9, 417180, Note_on_c, 4, 61, 84
9, 417180, Note_on_c, 4, 64, 84
9, 417231, Note_on_c, 4, 61, 0
9, 417231, Note_on_c, 4, 64, 0
9, 417240, Note_on_c, 4, 64, 84
9, 417240, Note_on_c, 4, 61, 84
9, 417344, Note_on_c, 4, 64, 0
9, 417344, Note_on_c, 4, 61, 0
9, 417360, Note_on_c, 4, 64, 84
9, 417360, Note_on_c, 4, 61, 84
9, 417479, Note_on_c, 4, 64, 0
9, 417479, Note_on_c, 4, 61, 0
9, 417540, Note_on_c, 4, 57, 84
9, 417540, Note_on_c, 4, 61, 84
9, 417591, Note_on_c, 4, 57, 0
9, 417591, Note_on_c, 4, 61, 0
9, 417600, Note_on_c, 4, 61, 84
9, 417600, Note_on_c, 4, 57, 84
9, 417704, Note_on_c, 4, 61, 0
9, 417704, Note_on_c, 4, 57, 0
9, 417720, Note_on_c, 4, 57, 84
9, 417720, Note_on_c, 4, 61, 84
9, 417839, Note_on_c, 4, 57, 0
9, 417839, Note_on_c, 4, 61, 0
9, 417900, Note_on_c, 4, 57, 84
9, 417900, Note_on_c, 4, 61, 84
9, 417951, Note_on_c, 4, 57, 0
9, 417951, Note_on_c, 4, 61, 0
9, 417960, Note_on_c, 4, 61, 84
9, 417960, Note_on_c, 4, 57, 84
9, 418064, Note_on_c, 4, 61, 0
9, 418064, Note_on_c, 4, 57, 0
9, 418080, Note_on_c, 4, 57, 84
9, 418080, Note_on_c, 4, 61, 84
9, 418199, Note_on_c, 4, 57, 0
9, 418199, Note_on_c, 4, 61, 0
9, 418260, Note_on_c, 4, 61, 84
9, 418260, Note_on_c, 4, 57, 84
9, 418311, Note_on_c, 4, 61, 0
9, 418311, Note_on_c, 4, 57, 0
9, 418320, Note_on_c, 4, 61, 84
9, 418320, Note_on_c, 4, 57, 84
9, 418424, Note_on_c, 4, 61, 0
9, 418424, Note_on_c, 4, 57, 0
9, 418440, Note_on_c, 4, 61, 84
9, 418440, Note_on_c, 4, 57, 84
9, 418559, Note_on_c, 4, 61, 0
9, 418559, Note_on_c, 4, 57, 0
9, 418620, Note_on_c, 4, 61, 84
9, 418620, Note_on_c, 4, 57, 84
9, 418671, Note_on_c, 4, 61, 0
9, 418671, Note_on_c, 4, 57, 0
9, 418680, Note_on_c, 4, 61, 84
9, 418680, Note_on_c, 4, 57, 84
9, 418784, Note_on_c, 4, 61, 0
9, 418784, Note_on_c, 4, 57, 0
9, 418800, Note_on_c, 4, 57, 84
9, 418800, Note_on_c, 4, 61, 84
9, 419039, Note_on_c, 4, 57, 0
9, 419039, Note_on_c, 4, 61, 0
9, 419520, Note_on_c, 4, 64, 84
9, 419759, Note_on_c, 4, 64, 0
9, 420240, Note_on_c, 4, 61, 84
9, 420479, Note_on_c, 4, 61, 0
9, 420479, End_track
10, 0, Start_track
10, 0, Title_t, "French Horn in A"
10, 0, MIDI_port, 0
10, 0, Program_c, 5, 60
10, 0, Control_c, 5, 7, 104
10, 0, Control_c, 5, 10, 45
10, 0, Control_c, 5, 11, 127
10, 0, Note_on_c, 5, 69, 76
10, 0, Note_on_c, 5, 57, 76
10, 179, Note_on_c, 5, 69, 0
10, 179, Note_on_c, 5, 57, 0
10, 1920, Note_on_c, 5, 64, 76
10, 1920, Note_on_c, 5, 52, 76
10, 2099, Note_on_c, 5, 64, 0
10, 2099, Note_on_c, 5, 52, 0
10, 3840, Note_on_c, 5, 69, 76
10, 3900, Control_c, 5, 11, 80
10, 4319, Note_on_c, 5, 69, 0
10, 4320, Note_on_c, 5, 64, 76
10, 4799, Note_on_c, 5, 64, 0
10, 4800, Note_on_c, 5, 57, 76
10, 5279, Note_on_c, 5, 57, 0
10, 5280, Note_on_c, 5, 69, 76
10, 5749, Note_on_c, 5, 69, 0
10, 5758, Control_c, 5, 11, 127
10, 5760, Note_on_c, 5, 69, 76
10, 5820, Control_c, 5, 11, 80
10, 6709, Note_on_c, 5, 69, 0
10, 6720, Note_on_c, 5, 67, 76
10, 7189, Note_on_c, 5, 67, 0
10, 7200, Note_on_c, 5, 67, 76
10, 7669, Note_on_c, 5, 67, 0
10, 7680, Note_on_c, 5, 69, 76
10, 7680, Control_c, 5, 11, 80
10, 7740, Control_c, 5, 11, 79
10, 7800, Control_c, 5, 11, 78
10, 7860, Control_c, 5, 11, 77
10, 7909, Note_on_c, 5, 69, 0
10, 7920, Control_c, 5, 11, 76
10, 7920, Note_on_c, 5, 57, 76
10, 7920, Note_on_c, 5, 45, 76
10, 7980, Control_c, 5, 11, 75
10, 8040, Control_c, 5, 11, 74
10, 8100, Control_c, 5, 11, 73
10, 8160, Control_c, 5, 11, 72
10, 8220, Control_c, 5, 11, 71
10, 8280, Control_c, 5, 11, 70
10, 8340, Control_c, 5, 11, 69
10, 8389, Note_on_c, 5, 57, 0
10, 8389, Note_on_c, 5, 45, 0
10, 8400, Control_c, 5, 11, 68
10, 8400, Note_on_c, 5, 57, 76
10, 8400, Note_on_c, 5, 45, 76
10, 8460, Control_c, 5, 11, 67
10, 8520, Control_c, 5, 11, 66
10, 8580, Control_c, 5, 11, 64
10, 8629, Note_on_c, 5, 57, 0
10, 8629, Note_on_c, 5, 45, 0
10, 8640, Note_on_c, 5, 64, 76
10, 8640, Note_on_c, 5, 52, 76
10, 8879, Note_on_c, 5, 64, 0
10, 8879, Note_on_c, 5, 52, 0
10, 12960, Note_on_c, 5, 64, 52
10, 12960, Note_on_c, 5, 52, 52
10, 13004, Note_on_c, 5, 64, 0
10, 13004, Note_on_c, 5, 52, 0
10, 13020, Note_on_c, 5, 64, 56
10, 13020, Note_on_c, 5, 52, 56
10, 13064, Note_on_c, 5, 64, 0
10, 13064, Note_on_c, 5, 52, 0
10, 13080, Note_on_c, 5, 52, 60
10, 13080, Note_on_c, 5, 64, 60
10, 13124, Note_on_c, 5, 52, 0
10, 13124, Note_on_c, 5, 64, 0
10, 13140, Note_on_c, 5, 52, 64
10, 13140, Note_on_c, 5, 64, 64
10, 13184, Note_on_c, 5, 52, 0
10, 13184, Note_on_c, 5, 64, 0
10, 13200, Note_on_c, 5, 52, 68
10, 13200, Note_on_c, 5, 64, 68
10, 13244, Note_on_c, 5, 52, 0
10, 13244, Note_on_c, 5, 64, 0
10, 13260, Note_on_c, 5, 64, 72
10, 13260, Note_on_c, 5, 52, 72
10, 13304, Note_on_c, 5, 64, 0
10, 13304, Note_on_c, 5, 52, 0
10, 13320, Note_on_c, 5, 52, 76
10, 13320, Note_on_c, 5, 64, 76
10, 13364, Note_on_c, 5, 52, 0
10, 13364, Note_on_c, 5, 64, 0
10, 13380, Note_on_c, 5, 52, 80
10, 13380, Note_on_c, 5, 64, 80
10, 13424, Note_on_c, 5, 52, 0
10, 13424, Note_on_c, 5, 64, 0
10, 13440, Note_on_c, 5, 69, 84
10, 13440, Note_on_c, 5, 57, 84
10, 14639, Note_on_c, 5, 69, 0
10, 14639, Note_on_c, 5, 57, 0
10, 15360, Note_on_c, 5, 64, 84
10, 15360, Note_on_c, 5, 52, 84
10, 16559, Note_on_c, 5, 64, 0
10, 16559, Note_on_c, 5, 52, 0
10, 17280, Note_on_c, 5, 69, 84
10, 17280, Note_on_c, 5, 57, 84
10, 18479, Note_on_c, 5, 69, 0
10, 18479, Note_on_c, 5, 57, 0
10, 19200, Note_on_c, 5, 67, 84
10, 20159, Note_on_c, 5, 67, 0
10, 20160, Note_on_c, 5, 67, 52
10, 20399, Note_on_c, 5, 67, 0
10, 31680, Note_on_c, 5, 64, 84
10, 31680, Note_on_c, 5, 52, 84
10, 32149, Note_on_c, 5, 64, 0
10, 32149, Note_on_c, 5, 52, 0
10, 32160, Note_on_c, 5, 52, 92
10, 32160, Note_on_c, 5, 64, 92
10, 32220, Control_c, 5, 11, 112
10, 32629, Note_on_c, 5, 52, 0
10, 32629, Note_on_c, 5, 64, 0
10, 32638, Control_c, 5, 11, 127
10, 32640, Note_on_c, 5, 52, 92
10, 32640, Note_on_c, 5, 64, 92
10, 32700, Control_c, 5, 11, 112
10, 33109, Note_on_c, 5, 52, 0
10, 33109, Note_on_c, 5, 64, 0
10, 33118, Control_c, 5, 11, 127
10, 33120, Note_on_c, 5, 64, 92
10, 33120, Note_on_c, 5, 52, 92
10, 33180, Control_c, 5, 11, 112
10, 33589, Note_on_c, 5, 64, 0
10, 33589, Note_on_c, 5, 52, 0
10, 33598, Control_c, 5, 11, 127
10, 33600, Note_on_c, 5, 64, 92
10, 33600, Note_on_c, 5, 52, 92
10, 33660, Control_c, 5, 11, 112
10, 34069, Note_on_c, 5, 64, 0
10, 34069, Note_on_c, 5, 52, 0
10, 34078, Control_c, 5, 11, 127
10, 34080, Note_on_c, 5, 64, 92
10, 34080, Note_on_c, 5, 52, 92
10, 34140, Control_c, 5, 11, 112
10, 34549, Note_on_c, 5, 64, 0
10, 34549, Note_on_c, 5, 52, 0
10, 34558, Control_c, 5, 11, 127
10, 34560, Note_on_c, 5, 52, 92
10, 34560, Note_on_c, 5, 64, 92
10, 34620, Control_c, 5, 11, 112
10, 35029, Note_on_c, 5, 52, 0
10, 35029, Note_on_c, 5, 64, 0
10, 35038, Control_c, 5, 11, 127
10, 35040, Note_on_c, 5, 64, 92
10, 35040, Note_on_c, 5, 52, 92
10, 35100, Control_c, 5, 11, 112
10, 35509, Note_on_c, 5, 64, 0
10, 35509, Note_on_c, 5, 52, 0
10, 35518, Control_c, 5, 11, 127
10, 35520, Note_on_c, 5, 64, 92
10, 35520, Note_on_c, 5, 52, 92
10, 35580, Control_c, 5, 11, 112
10, 35989, Note_on_c, 5, 64, 0
10, 35989, Note_on_c, 5, 52, 0
10, 35998, Control_c, 5, 11, 127
10, 36000, Note_on_c, 5, 52, 92
10, 36000, Note_on_c, 5, 64, 92
10, 36060, Control_c, 5, 11, 112
10, 36469, Note_on_c, 5, 52, 0
10, 36469, Note_on_c, 5, 64, 0
10, 36480, Note_on_c, 5, 64, 92
10, 36480, Note_on_c, 5, 52, 92
10, 36540, Control_c, 5, 11, 112
10, 36949, Note_on_c, 5, 64, 0
10, 36949, Note_on_c, 5, 52, 0
10, 36958, Control_c, 5, 11, 127
10, 36960, Note_on_c, 5, 52, 92
10, 36960, Note_on_c, 5, 64, 92
10, 37020, Control_c, 5, 11, 112
10, 37429, Note_on_c, 5, 52, 0
10, 37429, Note_on_c, 5, 64, 0
10, 37438, Control_c, 5, 11, 127
10, 37440, Note_on_c, 5, 64, 92
10, 37440, Note_on_c, 5, 52, 92
10, 37500, Control_c, 5, 11, 112
10, 37909, Note_on_c, 5, 64, 0
10, 37909, Note_on_c, 5, 52, 0
10, 37918, Control_c, 5, 11, 127
10, 37920, Note_on_c, 5, 52, 92
10, 37920, Note_on_c, 5, 64, 92
10, 37980, Control_c, 5, 11, 112
10, 38389, Note_on_c, 5, 52, 0
10, 38389, Note_on_c, 5, 64, 0
10, 38398, Control_c, 5, 11, 127
10, 38400, Note_on_c, 5, 64, 84
10, 38400, Note_on_c, 5, 52, 84
10, 38400, Control_c, 5, 11, 127
10, 38440, Control_c, 5, 11, 124
10, 38480, Control_c, 5, 11, 122
10, 38520, Control_c, 5, 11, 119
10, 38560, Control_c, 5, 11, 117
10, 38600, Control_c, 5, 11, 114
10, 38640, Control_c, 5, 11, 111
10, 38680, Control_c, 5, 11, 109
10, 38720, Control_c, 5, 11, 106
10, 38760, Control_c, 5, 11, 103
10, 38800, Control_c, 5, 11, 101
10, 38840, Control_c, 5, 11, 98
10, 38869, Note_on_c, 5, 64, 0
10, 38869, Note_on_c, 5, 52, 0
10, 38880, Control_c, 5, 11, 96
10, 38880, Note_on_c, 5, 64, 84
10, 38880, Note_on_c, 5, 52, 84
10, 38920, Control_c, 5, 11, 93
10, 38960, Control_c, 5, 11, 90
10, 39000, Control_c, 5, 11, 88
10, 39040, Control_c, 5, 11, 85
10, 39080, Control_c, 5, 11, 82
10, 39120, Control_c, 5, 11, 80
10, 39160, Control_c, 5, 11, 77
10, 39200, Control_c, 5, 11, 75
10, 39240, Control_c, 5, 11, 72
10, 39280, Control_c, 5, 11, 69
10, 39320, Control_c, 5, 11, 67
10, 39349, Note_on_c, 5, 64, 0
10, 39349, Note_on_c, 5, 52, 0
10, 39358, Control_c, 5, 11, 64
10, 39360, Note_on_c, 5, 52, 84
10, 39360, Note_on_c, 5, 64, 84
10, 39599, Note_on_c, 5, 52, 0
10, 39599, Note_on_c, 5, 64, 0
10, 49440, Control_c, 5, 11, 127
10, 49680, Note_on_c, 5, 57, 81
10, 49733, Note_on_c, 5, 57, 0
10, 49740, Note_on_c, 5, 57, 82
10, 49793, Note_on_c, 5, 57, 0
10, 49800, Note_on_c, 5, 57, 82
10, 49853, Note_on_c, 5, 57, 0
10, 49860, Note_on_c, 5, 57, 83
10, 49913, Note_on_c, 5, 57, 0
10, 49920, Note_on_c, 5, 64, 84
10, 50039, Note_on_c, 5, 64, 0
10, 51840, Note_on_c, 5, 64, 84
10, 51959, Note_on_c, 5, 64, 0
10, 62040, Note_on_c, 5, 57, 60
10, 62040, Note_on_c, 5, 45, 60
10, 62211, Note_on_c, 5, 57, 0
10, 62211, Note_on_c, 5, 45, 0
10, 62220, Note_on_c, 5, 45, 64
10, 62220, Note_on_c, 5, 57, 64
10, 62271, Note_on_c, 5, 45, 0
10, 62271, Note_on_c, 5, 57, 0
10, 62280, Note_on_c, 5, 57, 65
10, 62280, Note_on_c, 5, 45, 65
10, 62384, Note_on_c, 5, 57, 0
10, 62384, Note_on_c, 5, 45, 0
10, 62400, Note_on_c, 5, 57, 52
10, 62400, Note_on_c, 5, 45, 52
10, 65279, Note_on_c, 5, 57, 0
10, 65279, Note_on_c, 5, 45, 0
10, 65280, Note_on_c, 5, 45, 52
10, 65280, Note_on_c, 5, 57, 52
10, 66824, Note_on_c, 5, 45, 0
10, 66824, Note_on_c, 5, 57, 0
10, 66840, Note_on_c, 5, 52, 52
10, 66840, Note_on_c, 5, 57, 52
10, 66944, Note_on_c, 5, 52, 0
10, 66944, Note_on_c, 5, 57, 0
10, 66960, Note_on_c, 5, 52, 52
10, 66960, Note_on_c, 5, 61, 52
10, 67064, Note_on_c, 5, 52, 0
10, 67064, Note_on_c, 5, 61, 0
10, 67080, Note_on_c, 5, 52, 52
10, 67080, Note_on_c, 5, 64, 52
10, 67184, Note_on_c, 5, 52, 0
10, 67184, Note_on_c, 5, 64, 0
10, 67200, Note_on_c, 5, 64, 52
10, 67200, Note_on_c, 5, 52, 52
10, 67304, Note_on_c, 5, 64, 0
10, 67304, Note_on_c, 5, 52, 0
10, 67320, Note_on_c, 5, 52, 52
10, 67320, Note_on_c, 5, 64, 52
10, 67424, Note_on_c, 5, 52, 0
10, 67424, Note_on_c, 5, 64, 0
10, 67440, Note_on_c, 5, 57, 52
10, 67440, Note_on_c, 5, 45, 52
10, 70319, Note_on_c, 5, 57, 0
10, 70319, Note_on_c, 5, 45, 0
10, 70320, Note_on_c, 5, 45, 52
10, 70320, Note_on_c, 5, 57, 52
10, 72224, Note_on_c, 5, 45, 0
10, 72224, Note_on_c, 5, 57, 0
10, 72240, Note_on_c, 5, 64, 52
10, 72240, Note_on_c, 5, 52, 52
10, 72344, Note_on_c, 5, 64, 0
10, 72344, Note_on_c, 5, 52, 0
10, 72360, Note_on_c, 5, 64, 52
10, 72360, Note_on_c, 5, 52, 52
10, 72464, Note_on_c, 5, 64, 0
10, 72464, Note_on_c, 5, 52, 0
10, 72480, Note_on_c, 5, 52, 52
10, 72480, Note_on_c, 5, 64, 52
10, 73199, Note_on_c, 5, 52, 0
10, 73199, Note_on_c, 5, 64, 0
10, 73200, Note_on_c, 5, 64, 76
10, 73200, Control_c, 5, 11, 127
10, 73200, Note_on_c, 5, 52, 76
10, 73240, Control_c, 5, 11, 124
10, 73280, Control_c, 5, 11, 122
10, 73320, Control_c, 5, 11, 119
10, 73360, Control_c, 5, 11, 117
10, 73400, Control_c, 5, 11, 114
10, 73440, Control_c, 5, 11, 111
10, 73480, Control_c, 5, 11, 109
10, 73520, Control_c, 5, 11, 106
10, 73560, Control_c, 5, 11, 104
10, 73600, Control_c, 5, 11, 101
10, 73640, Control_c, 5, 11, 98
10, 73680, Control_c, 5, 11, 96
10, 73720, Control_c, 5, 11, 93
10, 73760, Control_c, 5, 11, 90
10, 73800, Control_c, 5, 11, 88
10, 73840, Control_c, 5, 11, 85
10, 73918, Control_c, 5, 11, 127
10, 74624, Note_on_c, 5, 64, 0
10, 74624, Note_on_c, 5, 52, 0
10, 74640, Note_on_c, 5, 64, 76
10, 74640, Note_on_c, 5, 52, 76
10, 75239, Note_on_c, 5, 64, 0
10, 75239, Note_on_c, 5, 52, 0
10, 75360, Note_on_c, 5, 64, 84
10, 75360, Note_on_c, 5, 52, 84
10, 75420, Control_c, 5, 11, 112
10, 75959, Note_on_c, 5, 64, 0
10, 75959, Note_on_c, 5, 52, 0
10, 76078, Control_c, 5, 11, 127
10, 76080, Note_on_c, 5, 52, 84
10, 76080, Note_on_c, 5, 64, 84
10, 76140, Control_c, 5, 11, 112
10, 76319, Note_on_c, 5, 52, 0
10, 76319, Note_on_c, 5, 64, 0
10, 76438, Control_c, 5, 11, 127
10, 76440, Note_on_c, 5, 52, 84
10, 76440, Note_on_c, 5, 64, 84
10, 76500, Control_c, 5, 11, 112
10, 76679, Note_on_c, 5, 52, 0
10, 76679, Note_on_c, 5, 64, 0
10, 76798, Control_c, 5, 11, 127
10, 76800, Note_on_c, 5, 64, 84
10, 76800, Note_on_c, 5, 52, 84
10, 76860, Control_c, 5, 11, 112
10, 77039, Note_on_c, 5, 64, 0
10, 77039, Note_on_c, 5, 52, 0
10, 77158, Control_c, 5, 11, 127
10, 77160, Note_on_c, 5, 52, 84
10, 77160, Note_on_c, 5, 64, 84
10, 77220, Control_c, 5, 11, 112
10, 77279, Note_on_c, 5, 52, 0
10, 77279, Note_on_c, 5, 64, 0
10, 77340, Note_on_c, 5, 64, 84
10, 77340, Note_on_c, 5, 52, 84
10, 77391, Note_on_c, 5, 64, 0
10, 77391, Note_on_c, 5, 52, 0
10, 77400, Note_on_c, 5, 52, 84
10, 77400, Note_on_c, 5, 64, 84
10, 77504, Note_on_c, 5, 52, 0
10, 77504, Note_on_c, 5, 64, 0
10, 77518, Control_c, 5, 11, 127
10, 77520, Note_on_c, 5, 64, 76
10, 77520, Note_on_c, 5, 52, 76
10, 77879, Note_on_c, 5, 64, 0
10, 77879, Note_on_c, 5, 52, 0
10, 78240, Note_on_c, 5, 76, 84
10, 78240, Note_on_c, 5, 73, 84
10, 78771, Note_on_c, 5, 76, 0
10, 78771, Note_on_c, 5, 73, 0
10, 78780, Note_on_c, 5, 71, 84
10, 78780, Note_on_c, 5, 74, 84
10, 78831, Note_on_c, 5, 71, 0
10, 78831, Note_on_c, 5, 74, 0
10, 78840, Note_on_c, 5, 73, 84
10, 78840, Note_on_c, 5, 69, 84
10, 78944, Note_on_c, 5, 73, 0
10, 78944, Note_on_c, 5, 69, 0
10, 78960, Note_on_c, 5, 69, 84
10, 78960, Note_on_c, 5, 74, 84
10, 79544, Note_on_c, 5, 69, 0
10, 79544, Note_on_c, 5, 74, 0
10, 79560, Note_on_c, 5, 64, 84
10, 79560, Note_on_c, 5, 71, 84
10, 79664, Note_on_c, 5, 64, 0
10, 79664, Note_on_c, 5, 71, 0
10, 79680, Note_on_c, 5, 61, 84
10, 79680, Note_on_c, 5, 69, 84
10, 79904, Note_on_c, 5, 61, 0
10, 79904, Note_on_c, 5, 69, 0
10, 79920, Note_on_c, 5, 69, 84
10, 79920, Note_on_c, 5, 61, 84
10, 80024, Note_on_c, 5, 69, 0
10, 80024, Note_on_c, 5, 61, 0
10, 80040, Note_on_c, 5, 69, 84
10, 80040, Note_on_c, 5, 61, 84
10, 80211, Note_on_c, 5, 69, 0
10, 80211, Note_on_c, 5, 61, 0
10, 80220, Note_on_c, 5, 71, 84
10, 80220, Note_on_c, 5, 64, 84
10, 80264, Note_on_c, 5, 71, 0
10, 80264, Note_on_c, 5, 64, 0
10, 80280, Note_on_c, 5, 73, 84
10, 80280, Note_on_c, 5, 69, 84
10, 80369, Note_on_c, 5, 73, 0
10, 80369, Note_on_c, 5, 69, 0
10, 80400, Note_on_c, 5, 73, 84
10, 80400, Note_on_c, 5, 69, 84
10, 80519, Note_on_c, 5, 73, 0
10, 80519, Note_on_c, 5, 69, 0
10, 80520, Note_on_c, 5, 71, 84
10, 80520, Note_on_c, 5, 64, 84
10, 80931, Note_on_c, 5, 71, 0
10, 80931, Note_on_c, 5, 64, 0
10, 80940, Note_on_c, 5, 73, 84
10, 80940, Note_on_c, 5, 69, 84
10, 80984, Note_on_c, 5, 73, 0
10, 80984, Note_on_c, 5, 69, 0
10, 81000, Note_on_c, 5, 71, 84
10, 81000, Note_on_c, 5, 74, 84
10, 81089, Note_on_c, 5, 71, 0
10, 81089, Note_on_c, 5, 74, 0
10, 81120, Note_on_c, 5, 73, 84
10, 81120, Note_on_c, 5, 76, 84
10, 81651, Note_on_c, 5, 73, 0
10, 81651, Note_on_c, 5, 76, 0
10, 81660, Note_on_c, 5, 74, 84
10, 81660, Note_on_c, 5, 71, 84
10, 81711, Note_on_c, 5, 74, 0
10, 81711, Note_on_c, 5, 71, 0
10, 81720, Note_on_c, 5, 69, 84
10, 81720, Note_on_c, 5, 73, 84
10, 81824, Note_on_c, 5, 69, 0
10, 81824, Note_on_c, 5, 73, 0
10, 81840, Note_on_c, 5, 74, 84
10, 81840, Note_on_c, 5, 69, 84
10, 82424, Note_on_c, 5, 74, 0
10, 82424, Note_on_c, 5, 69, 0
10, 82440, Note_on_c, 5, 71, 84
10, 82440, Note_on_c, 5, 64, 84
10, 82544, Note_on_c, 5, 71, 0
10, 82544, Note_on_c, 5, 64, 0
10, 82560, Note_on_c, 5, 61, 84
10, 82560, Note_on_c, 5, 69, 84
10, 82784, Note_on_c, 5, 61, 0
10, 82784, Note_on_c, 5, 69, 0
10, 82800, Note_on_c, 5, 69, 84
10, 82800, Note_on_c, 5, 61, 84
10, 82904, Note_on_c, 5, 69, 0
10, 82904, Note_on_c, 5, 61, 0
10, 82920, Note_on_c, 5, 61, 84
10, 82920, Note_on_c, 5, 69, 84
10, 83039, Note_on_c, 5, 61, 0
10, 83039, Note_on_c, 5, 69, 0
10, 83040, Note_on_c, 5, 69, 84
10, 83040, Note_on_c, 5, 73, 84
10, 83144, Note_on_c, 5, 69, 0
10, 83144, Note_on_c, 5, 73, 0
10, 83160, Note_on_c, 5, 71, 84
10, 83160, Note_on_c, 5, 64, 84
10, 83249, Note_on_c, 5, 71, 0
10, 83249, Note_on_c, 5, 64, 0
10, 83280, Note_on_c, 5, 61, 84
10, 83280, Note_on_c, 5, 69, 84
10, 83519, Note_on_c, 5, 61, 0
10, 83519, Note_on_c, 5, 69, 0
10, 83880, Note_on_c, 5, 57, 84
10, 83880, Note_on_c, 5, 69, 84
10, 83984, Note_on_c, 5, 57, 0
10, 83984, Note_on_c, 5, 69, 0
10, 84000, Note_on_c, 5, 57, 84
10, 84000, Note_on_c, 5, 69, 84
10, 84224, Note_on_c, 5, 57, 0
10, 84224, Note_on_c, 5, 69, 0
10, 84240, Note_on_c, 5, 69, 84
10, 84240, Note_on_c, 5, 57, 84
10, 84344, Note_on_c, 5, 69, 0
10, 84344, Note_on_c, 5, 57, 0
10, 84360, Note_on_c, 5, 57, 84
10, 84360, Note_on_c, 5, 69, 84
10, 84531, Note_on_c, 5, 57, 0
10, 84531, Note_on_c, 5, 69, 0
10, 84540, Note_on_c, 5, 69, 84
10, 84540, Note_on_c, 5, 57, 84
10, 84584, Note_on_c, 5, 69, 0
10, 84584, Note_on_c, 5, 57, 0
10, 84600, Note_on_c, 5, 57, 84
10, 84600, Note_on_c, 5, 69, 84
10, 84689, Note_on_c, 5, 57, 0
10, 84689, Note_on_c, 5, 69, 0
10, 84720, Note_on_c, 5, 69, 84
10, 84720, Note_on_c, 5, 57, 84
10, 84839, Note_on_c, 5, 69, 0
10, 84839, Note_on_c, 5, 57, 0
10, 84840, Note_on_c, 5, 76, 84
10, 84840, Note_on_c, 5, 64, 84
10, 84944, Note_on_c, 5, 76, 0
10, 84944, Note_on_c, 5, 64, 0
10, 84960, Note_on_c, 5, 73, 84
10, 84960, Note_on_c, 5, 61, 84
10, 85049, Note_on_c, 5, 73, 0
10, 85049, Note_on_c, 5, 61, 0
10, 85080, Note_on_c, 5, 57, 84
10, 85080, Note_on_c, 5, 69, 84
10, 85304, Note_on_c, 5, 57, 0
10, 85304, Note_on_c, 5, 69, 0
10, 85320, Note_on_c, 5, 57, 84
10, 85320, Note_on_c, 5, 69, 84
10, 85424, Note_on_c, 5, 57, 0
10, 85424, Note_on_c, 5, 69, 0
10, 85440, Note_on_c, 5, 69, 84
10, 85440, Note_on_c, 5, 57, 84
10, 85611, Note_on_c, 5, 69, 0
10, 85611, Note_on_c, 5, 57, 0
10, 85620, Note_on_c, 5, 57, 84
10, 85620, Note_on_c, 5, 69, 84
10, 85664, Note_on_c, 5, 57, 0
10, 85664, Note_on_c, 5, 69, 0
10, 85680, Note_on_c, 5, 57, 84
10, 85680, Note_on_c, 5, 69, 84
10, 85769, Note_on_c, 5, 57, 0
10, 85769, Note_on_c, 5, 69, 0
10, 85800, Note_on_c, 5, 57, 84
10, 85800, Note_on_c, 5, 69, 84
10, 85971, Note_on_c, 5, 57, 0
10, 85971, Note_on_c, 5, 69, 0
10, 85980, Note_on_c, 5, 69, 84
10, 85980, Note_on_c, 5, 57, 84
10, 86024, Note_on_c, 5, 69, 0
10, 86024, Note_on_c, 5, 57, 0
10, 86040, Note_on_c, 5, 57, 84
10, 86040, Note_on_c, 5, 69, 84
10, 86129, Note_on_c, 5, 57, 0
10, 86129, Note_on_c, 5, 69, 0
10, 86160, Note_on_c, 5, 57, 84
10, 86160, Note_on_c, 5, 69, 84
10, 86279, Note_on_c, 5, 57, 0
10, 86279, Note_on_c, 5, 69, 0
10, 86280, Note_on_c, 5, 76, 84
10, 86280, Note_on_c, 5, 64, 84
10, 86384, Note_on_c, 5, 76, 0
10, 86384, Note_on_c, 5, 64, 0
10, 86400, Note_on_c, 5, 61, 84
10, 86400, Note_on_c, 5, 73, 84
10, 86489, Note_on_c, 5, 61, 0
10, 86489, Note_on_c, 5, 73, 0
10, 86520, Note_on_c, 5, 69, 84
10, 86520, Note_on_c, 5, 57, 84
10, 86609, Note_on_c, 5, 69, 0
10, 86609, Note_on_c, 5, 57, 0
10, 86640, Note_on_c, 5, 52, 84
10, 86640, Note_on_c, 5, 64, 84
10, 86729, Note_on_c, 5, 52, 0
10, 86729, Note_on_c, 5, 64, 0
10, 86758, Control_c, 5, 11, 64
10, 86760, Note_on_c, 5, 57, 84
10, 86760, Note_on_c, 5, 45, 84
10, 86864, Note_on_c, 5, 57, 0
10, 86864, Note_on_c, 5, 45, 0
10, 86880, Note_on_c, 5, 45, 84
10, 86880, Control_c, 5, 11, 64
10, 86880, Note_on_c, 5, 57, 84
10, 86971, Control_c, 5, 11, 65
10, 87063, Control_c, 5, 11, 66
10, 87154, Control_c, 5, 11, 67
10, 87246, Control_c, 5, 11, 68
10, 87337, Control_c, 5, 11, 69
10, 87429, Control_c, 5, 11, 70
10, 87520, Control_c, 5, 11, 71
10, 87611, Control_c, 5, 11, 72
10, 87703, Control_c, 5, 11, 73
10, 87794, Control_c, 5, 11, 74
10, 87886, Control_c, 5, 11, 75
10, 87977, Control_c, 5, 11, 76
10, 88069, Control_c, 5, 11, 77
10, 88160, Control_c, 5, 11, 78
10, 88251, Control_c, 5, 11, 79
10, 88343, Control_c, 5, 11, 80
10, 88434, Control_c, 5, 11, 81
10, 88526, Control_c, 5, 11, 82
10, 88617, Control_c, 5, 11, 83
10, 88709, Control_c, 5, 11, 84
10, 88800, Control_c, 5, 11, 85
10, 88891, Control_c, 5, 11, 86
10, 88983, Control_c, 5, 11, 87
10, 89074, Control_c, 5, 11, 88
10, 89166, Control_c, 5, 11, 89
10, 89257, Control_c, 5, 11, 90
10, 89349, Control_c, 5, 11, 91
10, 89440, Control_c, 5, 11, 92
10, 89531, Control_c, 5, 11, 93
10, 89623, Control_c, 5, 11, 94
10, 89714, Control_c, 5, 11, 95
10, 89759, Note_on_c, 5, 45, 0
10, 89759, Note_on_c, 5, 57, 0
10, 89760, Note_on_c, 5, 45, 84
10, 89760, Note_on_c, 5, 57, 84
10, 89806, Control_c, 5, 11, 96
10, 89897, Control_c, 5, 11, 97
10, 89989, Control_c, 5, 11, 98
10, 90080, Control_c, 5, 11, 99
10, 90171, Control_c, 5, 11, 100
10, 90263, Control_c, 5, 11, 101
10, 90354, Control_c, 5, 11, 102
10, 90446, Control_c, 5, 11, 103
10, 90537, Control_c, 5, 11, 104
10, 90629, Control_c, 5, 11, 105
10, 90720, Control_c, 5, 11, 106
10, 90811, Control_c, 5, 11, 107
10, 90903, Control_c, 5, 11, 108
10, 90994, Control_c, 5, 11, 109
10, 91086, Control_c, 5, 11, 110
10, 91177, Control_c, 5, 11, 111
10, 91269, Control_c, 5, 11, 112
10, 91360, Control_c, 5, 11, 113
10, 91451, Control_c, 5, 11, 114
10, 91543, Control_c, 5, 11, 115
10, 91634, Control_c, 5, 11, 116
10, 91726, Control_c, 5, 11, 117
10, 91817, Control_c, 5, 11, 118
10, 91909, Control_c, 5, 11, 119
10, 92000, Control_c, 5, 11, 120
10, 92091, Control_c, 5, 11, 121
10, 92183, Control_c, 5, 11, 122
10, 92274, Control_c, 5, 11, 123
10, 92366, Control_c, 5, 11, 124
10, 92457, Control_c, 5, 11, 125
10, 92549, Control_c, 5, 11, 127
10, 92624, Note_on_c, 5, 45, 0
10, 92624, Note_on_c, 5, 57, 0
10, 92640, Note_on_c, 5, 64, 84
10, 92640, Note_on_c, 5, 52, 84
10, 93344, Note_on_c, 5, 64, 0
10, 93344, Note_on_c, 5, 52, 0
10, 93360, Note_on_c, 5, 71, 84
10, 93839, Note_on_c, 5, 71, 0
10, 100560, Note_on_c, 5, 57, 76
10, 100560, Note_on_c, 5, 69, 76
10, 100784, Note_on_c, 5, 57, 0
10, 100784, Note_on_c, 5, 69, 0
10, 100800, Note_on_c, 5, 57, 76
10, 100800, Note_on_c, 5, 69, 76
10, 100904, Note_on_c, 5, 57, 0
10, 100904, Note_on_c, 5, 69, 0
10, 100920, Note_on_c, 5, 69, 76
10, 100920, Note_on_c, 5, 57, 76
10, 101144, Note_on_c, 5, 69, 0
10, 101144, Note_on_c, 5, 57, 0
10, 101160, Note_on_c, 5, 57, 76
10, 101160, Note_on_c, 5, 69, 76
10, 101264, Note_on_c, 5, 57, 0
10, 101264, Note_on_c, 5, 69, 0
10, 101280, Note_on_c, 5, 64, 76
10, 101280, Note_on_c, 5, 52, 76
10, 101984, Note_on_c, 5, 64, 0
10, 101984, Note_on_c, 5, 52, 0
10, 102720, Note_on_c, 5, 64, 76
10, 102720, Note_on_c, 5, 52, 76
10, 102944, Note_on_c, 5, 64, 0
10, 102944, Note_on_c, 5, 52, 0
10, 102960, Note_on_c, 5, 52, 76
10, 102960, Note_on_c, 5, 64, 76
10, 103064, Note_on_c, 5, 52, 0
10, 103064, Note_on_c, 5, 64, 0
10, 103080, Note_on_c, 5, 69, 76
10, 103080, Note_on_c, 5, 57, 76
10, 103304, Note_on_c, 5, 69, 0
10, 103304, Note_on_c, 5, 57, 0
10, 103320, Note_on_c, 5, 69, 76
10, 103320, Note_on_c, 5, 57, 76
10, 103424, Note_on_c, 5, 69, 0
10, 103424, Note_on_c, 5, 57, 0
10, 103440, Note_on_c, 5, 71, 76
10, 103544, Note_on_c, 5, 71, 0
10, 103560, Note_on_c, 5, 71, 76
10, 103679, Note_on_c, 5, 71, 0
10, 103800, Note_on_c, 5, 71, 76
10, 103904, Note_on_c, 5, 71, 0
10, 103920, Note_on_c, 5, 71, 76
10, 104039, Note_on_c, 5, 71, 0
10, 104160, Note_on_c, 5, 71, 76
10, 104264, Note_on_c, 5, 71, 0
10, 104280, Note_on_c, 5, 71, 76
10, 104399, Note_on_c, 5, 71, 0
10, 104520, Note_on_c, 5, 71, 76
10, 104624, Note_on_c, 5, 71, 0
10, 104640, Note_on_c, 5, 71, 76
10, 104759, Note_on_c, 5, 71, 0
10, 104880, Note_on_c, 5, 71, 76
10, 104984, Note_on_c, 5, 71, 0
10, 105000, Note_on_c, 5, 71, 76
10, 105119, Note_on_c, 5, 71, 0
10, 105240, Note_on_c, 5, 71, 76
10, 105344, Note_on_c, 5, 71, 0
10, 105360, Note_on_c, 5, 71, 76
10, 105479, Note_on_c, 5, 71, 0
10, 105600, Note_on_c, 5, 71, 76
10, 105704, Note_on_c, 5, 71, 0
10, 105720, Note_on_c, 5, 71, 76
10, 105839, Note_on_c, 5, 71, 0
10, 105960, Note_on_c, 5, 71, 76
10, 106064, Note_on_c, 5, 71, 0
10, 106080, Note_on_c, 5, 71, 76
10, 106199, Note_on_c, 5, 71, 0
10, 107760, Note_on_c, 5, 64, 48
10, 107760, Note_on_c, 5, 52, 48
10, 109304, Note_on_c, 5, 64, 0
10, 109304, Note_on_c, 5, 52, 0
10, 109320, Note_on_c, 5, 71, 48
10, 109424, Note_on_c, 5, 71, 0
10, 109440, Note_on_c, 5, 71, 48
10, 109544, Note_on_c, 5, 71, 0
10, 109560, Note_on_c, 5, 71, 48
10, 109664, Note_on_c, 5, 71, 0
10, 109680, Note_on_c, 5, 71, 48
10, 109784, Note_on_c, 5, 71, 0
10, 109800, Note_on_c, 5, 71, 48
10, 109904, Note_on_c, 5, 71, 0
10, 109920, Note_on_c, 5, 71, 48
10, 110024, Note_on_c, 5, 71, 0
10, 110040, Note_on_c, 5, 71, 48
10, 110144, Note_on_c, 5, 71, 0
10, 110160, Note_on_c, 5, 71, 48
10, 110264, Note_on_c, 5, 71, 0
10, 110280, Note_on_c, 5, 71, 48
10, 110384, Note_on_c, 5, 71, 0
10, 110400, Note_on_c, 5, 71, 48
10, 110504, Note_on_c, 5, 71, 0
10, 110520, Note_on_c, 5, 71, 48
10, 110624, Note_on_c, 5, 71, 0
10, 110640, Note_on_c, 5, 64, 84
10, 110640, Note_on_c, 5, 52, 84
10, 110744, Note_on_c, 5, 64, 0
10, 110744, Note_on_c, 5, 52, 0
10, 110760, Note_on_c, 5, 64, 84
10, 110760, Note_on_c, 5, 52, 84
10, 110864, Note_on_c, 5, 64, 0
10, 110864, Note_on_c, 5, 52, 0
10, 110880, Note_on_c, 5, 52, 84
10, 110880, Note_on_c, 5, 64, 84
10, 110984, Note_on_c, 5, 52, 0
10, 110984, Note_on_c, 5, 64, 0
10, 111000, Note_on_c, 5, 52, 84
10, 111000, Note_on_c, 5, 64, 84
10, 111104, Note_on_c, 5, 52, 0
10, 111104, Note_on_c, 5, 64, 0
10, 111120, Note_on_c, 5, 52, 84
10, 111120, Note_on_c, 5, 64, 84
10, 111224, Note_on_c, 5, 52, 0
10, 111224, Note_on_c, 5, 64, 0
10, 111240, Note_on_c, 5, 52, 84
10, 111240, Note_on_c, 5, 64, 84
10, 111344, Note_on_c, 5, 52, 0
10, 111344, Note_on_c, 5, 64, 0
10, 111360, Note_on_c, 5, 64, 84
10, 111360, Note_on_c, 5, 52, 84
10, 111464, Note_on_c, 5, 64, 0
10, 111464, Note_on_c, 5, 52, 0
10, 111480, Note_on_c, 5, 52, 84
10, 111480, Note_on_c, 5, 64, 84
10, 111584, Note_on_c, 5, 52, 0
10, 111584, Note_on_c, 5, 64, 0
10, 111600, Note_on_c, 5, 64, 84
10, 111600, Note_on_c, 5, 52, 84
10, 111704, Note_on_c, 5, 64, 0
10, 111704, Note_on_c, 5, 52, 0
10, 111720, Note_on_c, 5, 71, 84
10, 111824, Note_on_c, 5, 71, 0
10, 111840, Note_on_c, 5, 71, 84
10, 111944, Note_on_c, 5, 71, 0
10, 111960, Note_on_c, 5, 71, 84
10, 112064, Note_on_c, 5, 71, 0
10, 112080, Note_on_c, 5, 52, 84
10, 112080, Note_on_c, 5, 64, 84
10, 112319, Note_on_c, 5, 52, 0
10, 112319, Note_on_c, 5, 64, 0
10, 123600, Note_on_c, 5, 64, 84
10, 123600, Note_on_c, 5, 52, 84
10, 124664, Note_on_c, 5, 64, 0
10, 124664, Note_on_c, 5, 52, 0
10, 124680, Note_on_c, 5, 52, 84
10, 124680, Note_on_c, 5, 64, 84
10, 124851, Note_on_c, 5, 52, 0
10, 124851, Note_on_c, 5, 64, 0
10, 124860, Note_on_c, 5, 64, 84
10, 124860, Note_on_c, 5, 52, 84
10, 124911, Note_on_c, 5, 64, 0
10, 124911, Note_on_c, 5, 52, 0
10, 124920, Note_on_c, 5, 52, 84
10, 124920, Note_on_c, 5, 64, 84
10, 125024, Note_on_c, 5, 52, 0
10, 125024, Note_on_c, 5, 64, 0
10, 125040, Note_on_c, 5, 52, 84
10, 125040, Note_on_c, 5, 64, 84
10, 126104, Note_on_c, 5, 52, 0
10, 126104, Note_on_c, 5, 64, 0
10, 126120, Note_on_c, 5, 64, 84
10, 126120, Note_on_c, 5, 52, 84
10, 126291, Note_on_c, 5, 64, 0
10, 126291, Note_on_c, 5, 52, 0
10, 126300, Note_on_c, 5, 52, 84
10, 126300, Note_on_c, 5, 64, 84
10, 126351, Note_on_c, 5, 52, 0
10, 126351, Note_on_c, 5, 64, 0
10, 126360, Note_on_c, 5, 64, 84
10, 126360, Note_on_c, 5, 52, 84
10, 126464, Note_on_c, 5, 64, 0
10, 126464, Note_on_c, 5, 52, 0
10, 127920, Note_on_c, 5, 52, 84
10, 127920, Note_on_c, 5, 64, 84
10, 128984, Note_on_c, 5, 52, 0
10, 128984, Note_on_c, 5, 64, 0
10, 129000, Note_on_c, 5, 52, 84
10, 129000, Note_on_c, 5, 64, 84
10, 129171, Note_on_c, 5, 52, 0
10, 129171, Note_on_c, 5, 64, 0
10, 129180, Note_on_c, 5, 52, 84
10, 129180, Note_on_c, 5, 64, 84
10, 129231, Note_on_c, 5, 52, 0
10, 129231, Note_on_c, 5, 64, 0
10, 129240, Note_on_c, 5, 64, 84
10, 129240, Note_on_c, 5, 52, 84
10, 129344, Note_on_c, 5, 64, 0
10, 129344, Note_on_c, 5, 52, 0
10, 129360, Note_on_c, 5, 64, 84
10, 129360, Note_on_c, 5, 52, 84
10, 130424, Note_on_c, 5, 64, 0
10, 130424, Note_on_c, 5, 52, 0
10, 130440, Note_on_c, 5, 64, 84
10, 130440, Note_on_c, 5, 52, 84
10, 130611, Note_on_c, 5, 64, 0
10, 130611, Note_on_c, 5, 52, 0
10, 130620, Note_on_c, 5, 64, 84
10, 130620, Note_on_c, 5, 52, 84
10, 130671, Note_on_c, 5, 64, 0
10, 130671, Note_on_c, 5, 52, 0
10, 130680, Note_on_c, 5, 52, 84
10, 130680, Note_on_c, 5, 64, 84
10, 130784, Note_on_c, 5, 52, 0
10, 130784, Note_on_c, 5, 64, 0
10, 132240, Note_on_c, 5, 64, 84
10, 132240, Note_on_c, 5, 52, 84
10, 132479, Note_on_c, 5, 64, 0
10, 132479, Note_on_c, 5, 52, 0
10, 132600, Note_on_c, 5, 52, 84
10, 132600, Note_on_c, 5, 64, 84
10, 132839, Note_on_c, 5, 52, 0
10, 132839, Note_on_c, 5, 64, 0
10, 132960, Note_on_c, 5, 71, 84
10, 133199, Note_on_c, 5, 71, 0
10, 133680, Note_on_c, 5, 71, 84
10, 133919, Note_on_c, 5, 71, 0
10, 134400, Note_on_c, 5, 71, 84
10, 134639, Note_on_c, 5, 71, 0
10, 135120, Note_on_c, 5, 64, 84
10, 135120, Note_on_c, 5, 52, 84
10, 135359, Note_on_c, 5, 64, 0
10, 135359, Note_on_c, 5, 52, 0
10, 135480, Note_on_c, 5, 71, 84
10, 135719, Note_on_c, 5, 71, 0
10, 135840, Note_on_c, 5, 71, 84
10, 136079, Note_on_c, 5, 71, 0
10, 136560, Note_on_c, 5, 52, 84
10, 136560, Note_on_c, 5, 64, 84
10, 136799, Note_on_c, 5, 52, 0
10, 136799, Note_on_c, 5, 64, 0
10, 136920, Note_on_c, 5, 71, 84
10, 137159, Note_on_c, 5, 71, 0
10, 137280, Note_on_c, 5, 64, 84
10, 137280, Note_on_c, 5, 52, 84
10, 137399, Note_on_c, 5, 64, 0
10, 137399, Note_on_c, 5, 52, 0
10, 137520, Note_on_c, 5, 64, 84
10, 137520, Note_on_c, 5, 52, 84
10, 137639, Note_on_c, 5, 64, 0
10, 137639, Note_on_c, 5, 52, 0
10, 137880, Note_on_c, 5, 52, 84
10, 137880, Note_on_c, 5, 64, 84
10, 137999, Note_on_c, 5, 52, 0
10, 137999, Note_on_c, 5, 64, 0
10, 138240, Note_on_c, 5, 52, 84
10, 138240, Note_on_c, 5, 64, 84
10, 138359, Note_on_c, 5, 52, 0
10, 138359, Note_on_c, 5, 64, 0
10, 138600, Note_on_c, 5, 52, 84
10, 138600, Note_on_c, 5, 64, 84
10, 138719, Note_on_c, 5, 52, 0
10, 138719, Note_on_c, 5, 64, 0
10, 138960, Note_on_c, 5, 64, 84
10, 138960, Note_on_c, 5, 52, 84
10, 139079, Note_on_c, 5, 64, 0
10, 139079, Note_on_c, 5, 52, 0
10, 139320, Note_on_c, 5, 52, 84
10, 139320, Note_on_c, 5, 64, 84
10, 139439, Note_on_c, 5, 52, 0
10, 139439, Note_on_c, 5, 64, 0
10, 139680, Note_on_c, 5, 52, 84
10, 139680, Note_on_c, 5, 64, 84
10, 139799, Note_on_c, 5, 52, 0
10, 139799, Note_on_c, 5, 64, 0
10, 140040, Note_on_c, 5, 64, 84
10, 140040, Note_on_c, 5, 52, 84
10, 140159, Note_on_c, 5, 64, 0
10, 140159, Note_on_c, 5, 52, 0
10, 144120, Note_on_c, 5, 45, 60
10, 144120, Note_on_c, 5, 57, 60
10, 144291, Note_on_c, 5, 45, 0
10, 144291, Note_on_c, 5, 57, 0
10, 144300, Note_on_c, 5, 45, 64
10, 144300, Note_on_c, 5, 57, 64
10, 144351, Note_on_c, 5, 45, 0
10, 144351, Note_on_c, 5, 57, 0
10, 144360, Note_on_c, 5, 57, 65
10, 144360, Note_on_c, 5, 45, 65
10, 144464, Note_on_c, 5, 57, 0
10, 144464, Note_on_c, 5, 45, 0
10, 144480, Note_on_c, 5, 45, 52
10, 144480, Note_on_c, 5, 57, 52
10, 147359, Note_on_c, 5, 45, 0
10, 147359, Note_on_c, 5, 57, 0
10, 147360, Note_on_c, 5, 57, 52
10, 147360, Note_on_c, 5, 45, 52
10, 148904, Note_on_c, 5, 57, 0
10, 148904, Note_on_c, 5, 45, 0
10, 148920, Note_on_c, 5, 57, 52
10, 148920, Note_on_c, 5, 52, 52
10, 149024, Note_on_c, 5, 57, 0
10, 149024, Note_on_c, 5, 52, 0
10, 149040, Note_on_c, 5, 52, 52
10, 149040, Note_on_c, 5, 61, 52
10, 149144, Note_on_c, 5, 52, 0
10, 149144, Note_on_c, 5, 61, 0
10, 149160, Note_on_c, 5, 52, 52
10, 149160, Note_on_c, 5, 64, 52
10, 149264, Note_on_c, 5, 52, 0
10, 149264, Note_on_c, 5, 64, 0
10, 149280, Note_on_c, 5, 64, 52
10, 149280, Note_on_c, 5, 52, 52
10, 149384, Note_on_c, 5, 64, 0
10, 149384, Note_on_c, 5, 52, 0
10, 149400, Note_on_c, 5, 52, 52
10, 149400, Note_on_c, 5, 64, 52
10, 149504, Note_on_c, 5, 52, 0
10, 149504, Note_on_c, 5, 64, 0
10, 149520, Note_on_c, 5, 57, 52
10, 149520, Note_on_c, 5, 45, 52
10, 152399, Note_on_c, 5, 57, 0
10, 152399, Note_on_c, 5, 45, 0
10, 152400, Note_on_c, 5, 45, 52
10, 152400, Note_on_c, 5, 57, 52
10, 154304, Note_on_c, 5, 45, 0
10, 154304, Note_on_c, 5, 57, 0
10, 154320, Note_on_c, 5, 52, 52
10, 154320, Note_on_c, 5, 64, 52
10, 154424, Note_on_c, 5, 52, 0
10, 154424, Note_on_c, 5, 64, 0
10, 154440, Note_on_c, 5, 64, 52
10, 154440, Note_on_c, 5, 52, 52
10, 154544, Note_on_c, 5, 64, 0
10, 154544, Note_on_c, 5, 52, 0
10, 154560, Note_on_c, 5, 64, 52
10, 154560, Note_on_c, 5, 52, 52
10, 155279, Note_on_c, 5, 64, 0
10, 155279, Note_on_c, 5, 52, 0
10, 155280, Control_c, 5, 11, 127
10, 155280, Note_on_c, 5, 64, 76
10, 155280, Note_on_c, 5, 52, 76
10, 155320, Control_c, 5, 11, 124
10, 155360, Control_c, 5, 11, 122
10, 155400, Control_c, 5, 11, 119
10, 155440, Control_c, 5, 11, 117
10, 155480, Control_c, 5, 11, 114
10, 155520, Control_c, 5, 11, 111
10, 155560, Control_c, 5, 11, 109
10, 155600, Control_c, 5, 11, 106
10, 155640, Control_c, 5, 11, 104
10, 155680, Control_c, 5, 11, 101
10, 155720, Control_c, 5, 11, 98
10, 155760, Control_c, 5, 11, 96
10, 155800, Control_c, 5, 11, 93
10, 155840, Control_c, 5, 11, 90
10, 155880, Control_c, 5, 11, 88
10, 155920, Control_c, 5, 11, 85
10, 155998, Control_c, 5, 11, 127
10, 156704, Note_on_c, 5, 64, 0
10, 156704, Note_on_c, 5, 52, 0
10, 156720, Note_on_c, 5, 52, 76
10, 156720, Note_on_c, 5, 64, 76
10, 157319, Note_on_c, 5, 52, 0
10, 157319, Note_on_c, 5, 64, 0
10, 157440, Note_on_c, 5, 64, 84
10, 157440, Note_on_c, 5, 52, 84
10, 157500, Control_c, 5, 11, 112
10, 158039, Note_on_c, 5, 64, 0
10, 158039, Note_on_c, 5, 52, 0
10, 158158, Control_c, 5, 11, 127
10, 158160, Note_on_c, 5, 52, 84
10, 158160, Note_on_c, 5, 64, 84
10, 158220, Control_c, 5, 11, 112
10, 158399, Note_on_c, 5, 52, 0
10, 158399, Note_on_c, 5, 64, 0
10, 158518, Control_c, 5, 11, 127
10, 158520, Note_on_c, 5, 52, 84
10, 158520, Note_on_c, 5, 64, 84
10, 158580, Control_c, 5, 11, 112
10, 158759, Note_on_c, 5, 52, 0
10, 158759, Note_on_c, 5, 64, 0
10, 158878, Control_c, 5, 11, 127
10, 158880, Note_on_c, 5, 64, 84
10, 158880, Note_on_c, 5, 52, 84
10, 158940, Control_c, 5, 11, 112
10, 159119, Note_on_c, 5, 64, 0
10, 159119, Note_on_c, 5, 52, 0
10, 159238, Control_c, 5, 11, 127
10, 159240, Note_on_c, 5, 64, 84
10, 159240, Note_on_c, 5, 52, 84
10, 159300, Control_c, 5, 11, 112
10, 159359, Note_on_c, 5, 64, 0
10, 159359, Note_on_c, 5, 52, 0
10, 159420, Note_on_c, 5, 52, 84
10, 159420, Note_on_c, 5, 64, 84
10, 159471, Note_on_c, 5, 52, 0
10, 159471, Note_on_c, 5, 64, 0
10, 159480, Note_on_c, 5, 64, 84
10, 159480, Note_on_c, 5, 52, 84
10, 159584, Note_on_c, 5, 64, 0
10, 159584, Note_on_c, 5, 52, 0
10, 159598, Control_c, 5, 11, 127
10, 159600, Note_on_c, 5, 52, 76
10, 159600, Note_on_c, 5, 64, 76
10, 159959, Note_on_c, 5, 52, 0
10, 159959, Note_on_c, 5, 64, 0
10, 160320, Note_on_c, 5, 73, 84
10, 160320, Note_on_c, 5, 76, 84
10, 160851, Note_on_c, 5, 73, 0
10, 160851, Note_on_c, 5, 76, 0
10, 160860, Note_on_c, 5, 74, 84
10, 160860, Note_on_c, 5, 71, 84
10, 160911, Note_on_c, 5, 74, 0
10, 160911, Note_on_c, 5, 71, 0
10, 160920, Note_on_c, 5, 69, 84
10, 160920, Note_on_c, 5, 73, 84
10, 161024, Note_on_c, 5, 69, 0
10, 161024, Note_on_c, 5, 73, 0
10, 161040, Note_on_c, 5, 69, 84
10, 161040, Note_on_c, 5, 74, 84
10, 161624, Note_on_c, 5, 69, 0
10, 161624, Note_on_c, 5, 74, 0
10, 161640, Note_on_c, 5, 64, 84
10, 161640, Note_on_c, 5, 71, 84
10, 161744, Note_on_c, 5, 64, 0
10, 161744, Note_on_c, 5, 71, 0
10, 161760, Note_on_c, 5, 61, 84
10, 161760, Note_on_c, 5, 69, 84
10, 161984, Note_on_c, 5, 61, 0
10, 161984, Note_on_c, 5, 69, 0
10, 162000, Note_on_c, 5, 69, 84
10, 162000, Note_on_c, 5, 61, 84
10, 162104, Note_on_c, 5, 69, 0
10, 162104, Note_on_c, 5, 61, 0
10, 162120, Note_on_c, 5, 61, 84
10, 162120, Note_on_c, 5, 69, 84
10, 162291, Note_on_c, 5, 61, 0
10, 162291, Note_on_c, 5, 69, 0
10, 162300, Note_on_c, 5, 71, 84
10, 162300, Note_on_c, 5, 64, 84
10, 162344, Note_on_c, 5, 71, 0
10, 162344, Note_on_c, 5, 64, 0
10, 162360, Note_on_c, 5, 69, 84
10, 162360, Note_on_c, 5, 73, 84
10, 162449, Note_on_c, 5, 69, 0
10, 162449, Note_on_c, 5, 73, 0
10, 162480, Note_on_c, 5, 69, 84
10, 162480, Note_on_c, 5, 73, 84
10, 162599, Note_on_c, 5, 69, 0
10, 162599, Note_on_c, 5, 73, 0
10, 162600, Note_on_c, 5, 64, 84
10, 162600, Note_on_c, 5, 71, 84
10, 163011, Note_on_c, 5, 64, 0
10, 163011, Note_on_c, 5, 71, 0
10, 163020, Note_on_c, 5, 73, 84
10, 163020, Note_on_c, 5, 69, 84
10, 163064, Note_on_c, 5, 73, 0
10, 163064, Note_on_c, 5, 69, 0
10, 163080, Note_on_c, 5, 74, 84
10, 163080, Note_on_c, 5, 71, 84
10, 163169, Note_on_c, 5, 74, 0
10, 163169, Note_on_c, 5, 71, 0
10, 163200, Note_on_c, 5, 73, 84
10, 163200, Note_on_c, 5, 76, 84
10, 163731, Note_on_c, 5, 73, 0
10, 163731, Note_on_c, 5, 76, 0
10, 163740, Note_on_c, 5, 74, 84
10, 163740, Note_on_c, 5, 71, 84
10, 163791, Note_on_c, 5, 74, 0
10, 163791, Note_on_c, 5, 71, 0
10, 163800, Note_on_c, 5, 69, 84
10, 163800, Note_on_c, 5, 73, 84
10, 163904, Note_on_c, 5, 69, 0
10, 163904, Note_on_c, 5, 73, 0
10, 163920, Note_on_c, 5, 74, 84
10, 163920, Note_on_c, 5, 69, 84
10, 164504, Note_on_c, 5, 74, 0
10, 164504, Note_on_c, 5, 69, 0
10, 164520, Note_on_c, 5, 64, 84
10, 164520, Note_on_c, 5, 71, 84
10, 164624, Note_on_c, 5, 64, 0
10, 164624, Note_on_c, 5, 71, 0
10, 164640, Note_on_c, 5, 61, 84
10, 164640, Note_on_c, 5, 69, 84
10, 164864, Note_on_c, 5, 61, 0
10, 164864, Note_on_c, 5, 69, 0
10, 164880, Note_on_c, 5, 61, 84
10, 164880, Note_on_c, 5, 69, 84
10, 164984, Note_on_c, 5, 61, 0
10, 164984, Note_on_c, 5, 69, 0
10, 165000, Note_on_c, 5, 61, 84
10, 165000, Note_on_c, 5, 69, 84
10, 165119, Note_on_c, 5, 61, 0
10, 165119, Note_on_c, 5, 69, 0
10, 165120, Note_on_c, 5, 69, 84
10, 165120, Note_on_c, 5, 73, 84
10, 165224, Note_on_c, 5, 69, 0
10, 165224, Note_on_c, 5, 73, 0
10, 165240, Note_on_c, 5, 71, 84
10, 165240, Note_on_c, 5, 64, 84
10, 165329, Note_on_c, 5, 71, 0
10, 165329, Note_on_c, 5, 64, 0
10, 165360, Note_on_c, 5, 61, 84
10, 165360, Note_on_c, 5, 69, 84
10, 165599, Note_on_c, 5, 61, 0
10, 165599, Note_on_c, 5, 69, 0
10, 165960, Note_on_c, 5, 69, 84
10, 165960, Note_on_c, 5, 57, 84
10, 166064, Note_on_c, 5, 69, 0
10, 166064, Note_on_c, 5, 57, 0
10, 166080, Note_on_c, 5, 69, 84
10, 166080, Note_on_c, 5, 57, 84
10, 166304, Note_on_c, 5, 69, 0
10, 166304, Note_on_c, 5, 57, 0
10, 166320, Note_on_c, 5, 57, 84
10, 166320, Note_on_c, 5, 69, 84
10, 166424, Note_on_c, 5, 57, 0
10, 166424, Note_on_c, 5, 69, 0
10, 166440, Note_on_c, 5, 69, 84
10, 166440, Note_on_c, 5, 57, 84
10, 166611, Note_on_c, 5, 69, 0
10, 166611, Note_on_c, 5, 57, 0
10, 166620, Note_on_c, 5, 69, 84
10, 166620, Note_on_c, 5, 57, 84
10, 166664, Note_on_c, 5, 69, 0
10, 166664, Note_on_c, 5, 57, 0
10, 166680, Note_on_c, 5, 69, 84
10, 166680, Note_on_c, 5, 57, 84
10, 166769, Note_on_c, 5, 69, 0
10, 166769, Note_on_c, 5, 57, 0
10, 166800, Note_on_c, 5, 57, 84
10, 166800, Note_on_c, 5, 69, 84
10, 166919, Note_on_c, 5, 57, 0
10, 166919, Note_on_c, 5, 69, 0
10, 166920, Note_on_c, 5, 76, 84
10, 166920, Note_on_c, 5, 64, 84
10, 167024, Note_on_c, 5, 76, 0
10, 167024, Note_on_c, 5, 64, 0
10, 167040, Note_on_c, 5, 73, 84
10, 167040, Note_on_c, 5, 61, 84
10, 167129, Note_on_c, 5, 73, 0
10, 167129, Note_on_c, 5, 61, 0
10, 167160, Note_on_c, 5, 69, 84
10, 167160, Note_on_c, 5, 57, 84
10, 167384, Note_on_c, 5, 69, 0
10, 167384, Note_on_c, 5, 57, 0
10, 167400, Note_on_c, 5, 69, 84
10, 167400, Note_on_c, 5, 57, 84
10, 167504, Note_on_c, 5, 69, 0
10, 167504, Note_on_c, 5, 57, 0
10, 167520, Note_on_c, 5, 57, 84
10, 167520, Note_on_c, 5, 69, 84
10, 167691, Note_on_c, 5, 57, 0
10, 167691, Note_on_c, 5, 69, 0
10, 167700, Note_on_c, 5, 57, 84
10, 167700, Note_on_c, 5, 69, 84
10, 167744, Note_on_c, 5, 57, 0
10, 167744, Note_on_c, 5, 69, 0
10, 167760, Note_on_c, 5, 57, 84
10, 167760, Note_on_c, 5, 69, 84
10, 167849, Note_on_c, 5, 57, 0
10, 167849, Note_on_c, 5, 69, 0
10, 167880, Note_on_c, 5, 69, 84
10, 167880, Note_on_c, 5, 57, 84
10, 168051, Note_on_c, 5, 69, 0
10, 168051, Note_on_c, 5, 57, 0
10, 168060, Note_on_c, 5, 69, 84
10, 168060, Note_on_c, 5, 57, 84
10, 168104, Note_on_c, 5, 69, 0
10, 168104, Note_on_c, 5, 57, 0
10, 168120, Note_on_c, 5, 69, 84
10, 168120, Note_on_c, 5, 57, 84
10, 168209, Note_on_c, 5, 69, 0
10, 168209, Note_on_c, 5, 57, 0
10, 168240, Note_on_c, 5, 57, 84
10, 168240, Note_on_c, 5, 69, 84
10, 168359, Note_on_c, 5, 57, 0
10, 168359, Note_on_c, 5, 69, 0
10, 168360, Note_on_c, 5, 76, 84
10, 168360, Note_on_c, 5, 64, 84
10, 168464, Note_on_c, 5, 76, 0
10, 168464, Note_on_c, 5, 64, 0
10, 168480, Note_on_c, 5, 73, 84
10, 168480, Note_on_c, 5, 61, 84
10, 168569, Note_on_c, 5, 73, 0
10, 168569, Note_on_c, 5, 61, 0
10, 168600, Note_on_c, 5, 57, 84
10, 168600, Note_on_c, 5, 69, 84
10, 168689, Note_on_c, 5, 57, 0
10, 168689, Note_on_c, 5, 69, 0
10, 168720, Note_on_c, 5, 52, 84
10, 168720, Note_on_c, 5, 64, 84
10, 168809, Note_on_c, 5, 52, 0
10, 168809, Note_on_c, 5, 64, 0
10, 168838, Control_c, 5, 11, 64
10, 168840, Note_on_c, 5, 45, 84
10, 168840, Note_on_c, 5, 57, 84
10, 168944, Note_on_c, 5, 45, 0
10, 168944, Note_on_c, 5, 57, 0
10, 168960, Control_c, 5, 11, 64
10, 168960, Note_on_c, 5, 57, 84
10, 168960, Note_on_c, 5, 45, 84
10, 169051, Control_c, 5, 11, 65
10, 169143, Control_c, 5, 11, 66
10, 169234, Control_c, 5, 11, 67
10, 169326, Control_c, 5, 11, 68
10, 169417, Control_c, 5, 11, 69
10, 169509, Control_c, 5, 11, 70
10, 169600, Control_c, 5, 11, 71
10, 169691, Control_c, 5, 11, 72
10, 169783, Control_c, 5, 11, 73
10, 169874, Control_c, 5, 11, 74
10, 169966, Control_c, 5, 11, 75
10, 170057, Control_c, 5, 11, 76
10, 170149, Control_c, 5, 11, 77
10, 170240, Control_c, 5, 11, 78
10, 170331, Control_c, 5, 11, 79
10, 170423, Control_c, 5, 11, 80
10, 170514, Control_c, 5, 11, 81
10, 170606, Control_c, 5, 11, 82
10, 170697, Control_c, 5, 11, 83
10, 170789, Control_c, 5, 11, 84
10, 170880, Control_c, 5, 11, 85
10, 170971, Control_c, 5, 11, 86
10, 171063, Control_c, 5, 11, 87
10, 171154, Control_c, 5, 11, 88
10, 171246, Control_c, 5, 11, 89
10, 171337, Control_c, 5, 11, 90
10, 171429, Control_c, 5, 11, 91
10, 171520, Control_c, 5, 11, 92
10, 171611, Control_c, 5, 11, 93
10, 171703, Control_c, 5, 11, 94
10, 171794, Control_c, 5, 11, 95
10, 171839, Note_on_c, 5, 57, 0
10, 171839, Note_on_c, 5, 45, 0
10, 171840, Note_on_c, 5, 57, 84
10, 171840, Note_on_c, 5, 45, 84
10, 171886, Control_c, 5, 11, 96
10, 171977, Control_c, 5, 11, 97
10, 172069, Control_c, 5, 11, 98
10, 172160, Control_c, 5, 11, 99
10, 172251, Control_c, 5, 11, 100
10, 172343, Control_c, 5, 11, 101
10, 172434, Control_c, 5, 11, 102
10, 172526, Control_c, 5, 11, 103
10, 172617, Control_c, 5, 11, 104
10, 172709, Control_c, 5, 11, 105
10, 172800, Control_c, 5, 11, 106
10, 172891, Control_c, 5, 11, 107
10, 172983, Control_c, 5, 11, 108
10, 173074, Control_c, 5, 11, 109
10, 173166, Control_c, 5, 11, 110
10, 173257, Control_c, 5, 11, 111
10, 173349, Control_c, 5, 11, 112
10, 173440, Control_c, 5, 11, 113
10, 173531, Control_c, 5, 11, 114
10, 173623, Control_c, 5, 11, 115
10, 173714, Control_c, 5, 11, 116
10, 173806, Control_c, 5, 11, 117
10, 173897, Control_c, 5, 11, 118
10, 173989, Control_c, 5, 11, 119
10, 174080, Control_c, 5, 11, 120
10, 174171, Control_c, 5, 11, 121
10, 174263, Control_c, 5, 11, 122
10, 174354, Control_c, 5, 11, 123
10, 174446, Control_c, 5, 11, 124
10, 174537, Control_c, 5, 11, 125
10, 174629, Control_c, 5, 11, 127
10, 174704, Note_on_c, 5, 57, 0
10, 174704, Note_on_c, 5, 45, 0
10, 174720, Note_on_c, 5, 52, 84
10, 174720, Note_on_c, 5, 64, 84
10, 175424, Note_on_c, 5, 52, 0
10, 175424, Note_on_c, 5, 64, 0
10, 175440, Note_on_c, 5, 71, 84
10, 175919, Note_on_c, 5, 71, 0
10, 182640, Note_on_c, 5, 57, 76
10, 182640, Note_on_c, 5, 69, 76
10, 182864, Note_on_c, 5, 57, 0
10, 182864, Note_on_c, 5, 69, 0
10, 182880, Note_on_c, 5, 57, 76
10, 182880, Note_on_c, 5, 69, 76
10, 182984, Note_on_c, 5, 57, 0
10, 182984, Note_on_c, 5, 69, 0
10, 183000, Note_on_c, 5, 69, 76
10, 183000, Note_on_c, 5, 57, 76
10, 183224, Note_on_c, 5, 69, 0
10, 183224, Note_on_c, 5, 57, 0
10, 183240, Note_on_c, 5, 57, 76
10, 183240, Note_on_c, 5, 69, 76
10, 183344, Note_on_c, 5, 57, 0
10, 183344, Note_on_c, 5, 69, 0
10, 183360, Note_on_c, 5, 64, 76
10, 183360, Note_on_c, 5, 52, 76
10, 184064, Note_on_c, 5, 64, 0
10, 184064, Note_on_c, 5, 52, 0
10, 184800, Note_on_c, 5, 52, 76
10, 184800, Note_on_c, 5, 64, 76
10, 185024, Note_on_c, 5, 52, 0
10, 185024, Note_on_c, 5, 64, 0
10, 185040, Note_on_c, 5, 64, 76
10, 185040, Note_on_c, 5, 52, 76
10, 185144, Note_on_c, 5, 64, 0
10, 185144, Note_on_c, 5, 52, 0
10, 185160, Note_on_c, 5, 69, 76
10, 185160, Note_on_c, 5, 57, 76
10, 185384, Note_on_c, 5, 69, 0
10, 185384, Note_on_c, 5, 57, 0
10, 185400, Note_on_c, 5, 57, 76
10, 185400, Note_on_c, 5, 69, 76
10, 185504, Note_on_c, 5, 57, 0
10, 185504, Note_on_c, 5, 69, 0
10, 185520, Note_on_c, 5, 71, 76
10, 185624, Note_on_c, 5, 71, 0
10, 185640, Note_on_c, 5, 71, 76
10, 185759, Note_on_c, 5, 71, 0
10, 185880, Note_on_c, 5, 71, 76
10, 185984, Note_on_c, 5, 71, 0
10, 186000, Note_on_c, 5, 71, 76
10, 186119, Note_on_c, 5, 71, 0
10, 186240, Note_on_c, 5, 71, 76
10, 186344, Note_on_c, 5, 71, 0
10, 186360, Note_on_c, 5, 71, 76
10, 186479, Note_on_c, 5, 71, 0
10, 186600, Note_on_c, 5, 71, 76
10, 186704, Note_on_c, 5, 71, 0
10, 186720, Note_on_c, 5, 71, 76
10, 186839, Note_on_c, 5, 71, 0
10, 186960, Note_on_c, 5, 71, 76
10, 187064, Note_on_c, 5, 71, 0
10, 187080, Note_on_c, 5, 71, 76
10, 187199, Note_on_c, 5, 71, 0
10, 187320, Note_on_c, 5, 71, 76
10, 187424, Note_on_c, 5, 71, 0
10, 187440, Note_on_c, 5, 71, 76
10, 187559, Note_on_c, 5, 71, 0
10, 187680, Note_on_c, 5, 71, 76
10, 187784, Note_on_c, 5, 71, 0
10, 187800, Note_on_c, 5, 71, 76
10, 187919, Note_on_c, 5, 71, 0
10, 188040, Note_on_c, 5, 71, 76
10, 188144, Note_on_c, 5, 71, 0
10, 188160, Note_on_c, 5, 71, 76
10, 188279, Note_on_c, 5, 71, 0
10, 189840, Note_on_c, 5, 52, 48
10, 189840, Note_on_c, 5, 64, 48
10, 191384, Note_on_c, 5, 52, 0
10, 191384, Note_on_c, 5, 64, 0
10, 191400, Note_on_c, 5, 71, 48
10, 191504, Note_on_c, 5, 71, 0
10, 191520, Note_on_c, 5, 71, 48
10, 191624, Note_on_c, 5, 71, 0
10, 191640, Note_on_c, 5, 71, 48
10, 191744, Note_on_c, 5, 71, 0
10, 191760, Note_on_c, 5, 71, 48
10, 191864, Note_on_c, 5, 71, 0
10, 191880, Note_on_c, 5, 71, 48
10, 191984, Note_on_c, 5, 71, 0
10, 192000, Note_on_c, 5, 71, 48
10, 192104, Note_on_c, 5, 71, 0
10, 192120, Note_on_c, 5, 71, 48
10, 192224, Note_on_c, 5, 71, 0
10, 192240, Note_on_c, 5, 71, 48
10, 192344, Note_on_c, 5, 71, 0
10, 192360, Note_on_c, 5, 71, 48
10, 192464, Note_on_c, 5, 71, 0
10, 192480, Note_on_c, 5, 71, 48
10, 192584, Note_on_c, 5, 71, 0
10, 192600, Note_on_c, 5, 71, 48
10, 192704, Note_on_c, 5, 71, 0
10, 192720, Note_on_c, 5, 52, 84
10, 192720, Note_on_c, 5, 64, 84
10, 192824, Note_on_c, 5, 52, 0
10, 192824, Note_on_c, 5, 64, 0
10, 192840, Note_on_c, 5, 52, 84
10, 192840, Note_on_c, 5, 64, 84
10, 192944, Note_on_c, 5, 52, 0
10, 192944, Note_on_c, 5, 64, 0
10, 192960, Note_on_c, 5, 64, 84
10, 192960, Note_on_c, 5, 52, 84
10, 193064, Note_on_c, 5, 64, 0
10, 193064, Note_on_c, 5, 52, 0
10, 193080, Note_on_c, 5, 52, 84
10, 193080, Note_on_c, 5, 64, 84
10, 193184, Note_on_c, 5, 52, 0
10, 193184, Note_on_c, 5, 64, 0
10, 193200, Note_on_c, 5, 52, 84
10, 193200, Note_on_c, 5, 64, 84
10, 193304, Note_on_c, 5, 52, 0
10, 193304, Note_on_c, 5, 64, 0
10, 193320, Note_on_c, 5, 64, 84
10, 193320, Note_on_c, 5, 52, 84
10, 193424, Note_on_c, 5, 64, 0
10, 193424, Note_on_c, 5, 52, 0
10, 193440, Note_on_c, 5, 52, 84
10, 193440, Note_on_c, 5, 64, 84
10, 193544, Note_on_c, 5, 52, 0
10, 193544, Note_on_c, 5, 64, 0
10, 193560, Note_on_c, 5, 52, 84
10, 193560, Note_on_c, 5, 64, 84
10, 193664, Note_on_c, 5, 52, 0
10, 193664, Note_on_c, 5, 64, 0
10, 193680, Note_on_c, 5, 52, 84
10, 193680, Note_on_c, 5, 64, 84
10, 193784, Note_on_c, 5, 52, 0
10, 193784, Note_on_c, 5, 64, 0
10, 193800, Note_on_c, 5, 71, 84
10, 193904, Note_on_c, 5, 71, 0
10, 193920, Note_on_c, 5, 71, 84
10, 194024, Note_on_c, 5, 71, 0
10, 194040, Note_on_c, 5, 71, 84
10, 194144, Note_on_c, 5, 71, 0
10, 194160, Note_on_c, 5, 64, 84
10, 194160, Note_on_c, 5, 52, 84
10, 194399, Note_on_c, 5, 64, 0
10, 194399, Note_on_c, 5, 52, 0
10, 205680, Note_on_c, 5, 64, 84
10, 205680, Note_on_c, 5, 52, 84
10, 206744, Note_on_c, 5, 64, 0
10, 206744, Note_on_c, 5, 52, 0
10, 206760, Note_on_c, 5, 52, 84
10, 206760, Note_on_c, 5, 64, 84
10, 206931, Note_on_c, 5, 52, 0
10, 206931, Note_on_c, 5, 64, 0
10, 206940, Note_on_c, 5, 64, 84
10, 206940, Note_on_c, 5, 52, 84
10, 206991, Note_on_c, 5, 64, 0
10, 206991, Note_on_c, 5, 52, 0
10, 207000, Note_on_c, 5, 52, 84
10, 207000, Note_on_c, 5, 64, 84
10, 207104, Note_on_c, 5, 52, 0
10, 207104, Note_on_c, 5, 64, 0
10, 207120, Note_on_c, 5, 64, 84
10, 207120, Note_on_c, 5, 52, 84
10, 208184, Note_on_c, 5, 64, 0
10, 208184, Note_on_c, 5, 52, 0
10, 208200, Note_on_c, 5, 64, 84
10, 208200, Note_on_c, 5, 52, 84
10, 208371, Note_on_c, 5, 64, 0
10, 208371, Note_on_c, 5, 52, 0
10, 208380, Note_on_c, 5, 52, 84
10, 208380, Note_on_c, 5, 64, 84
10, 208431, Note_on_c, 5, 52, 0
10, 208431, Note_on_c, 5, 64, 0
10, 208440, Note_on_c, 5, 52, 84
10, 208440, Note_on_c, 5, 64, 84
10, 208544, Note_on_c, 5, 52, 0
10, 208544, Note_on_c, 5, 64, 0
10, 210000, Note_on_c, 5, 52, 84
10, 210000, Note_on_c, 5, 64, 84
10, 211064, Note_on_c, 5, 52, 0
10, 211064, Note_on_c, 5, 64, 0
10, 211080, Note_on_c, 5, 52, 84
10, 211080, Note_on_c, 5, 64, 84
10, 211251, Note_on_c, 5, 52, 0
10, 211251, Note_on_c, 5, 64, 0
10, 211260, Note_on_c, 5, 52, 84
10, 211260, Note_on_c, 5, 64, 84
10, 211311, Note_on_c, 5, 52, 0
10, 211311, Note_on_c, 5, 64, 0
10, 211320, Note_on_c, 5, 64, 84
10, 211320, Note_on_c, 5, 52, 84
10, 211424, Note_on_c, 5, 64, 0
10, 211424, Note_on_c, 5, 52, 0
10, 211440, Note_on_c, 5, 52, 84
10, 211440, Note_on_c, 5, 64, 84
10, 212504, Note_on_c, 5, 52, 0
10, 212504, Note_on_c, 5, 64, 0
10, 212520, Note_on_c, 5, 64, 84
10, 212520, Note_on_c, 5, 52, 84
10, 212691, Note_on_c, 5, 64, 0
10, 212691, Note_on_c, 5, 52, 0
10, 212700, Note_on_c, 5, 52, 84
10, 212700, Note_on_c, 5, 64, 84
10, 212751, Note_on_c, 5, 52, 0
10, 212751, Note_on_c, 5, 64, 0
10, 212760, Note_on_c, 5, 52, 84
10, 212760, Note_on_c, 5, 64, 84
10, 212864, Note_on_c, 5, 52, 0
10, 212864, Note_on_c, 5, 64, 0
10, 214320, Note_on_c, 5, 64, 84
10, 214320, Note_on_c, 5, 52, 84
10, 214559, Note_on_c, 5, 64, 0
10, 214559, Note_on_c, 5, 52, 0
10, 214680, Note_on_c, 5, 52, 84
10, 214680, Note_on_c, 5, 64, 84
10, 214919, Note_on_c, 5, 52, 0
10, 214919, Note_on_c, 5, 64, 0
10, 215040, Note_on_c, 5, 71, 84
10, 215279, Note_on_c, 5, 71, 0
10, 215760, Note_on_c, 5, 71, 84
10, 215999, Note_on_c, 5, 71, 0
10, 216480, Note_on_c, 5, 71, 84
10, 216719, Note_on_c, 5, 71, 0
10, 217200, Note_on_c, 5, 52, 84
10, 217200, Note_on_c, 5, 64, 84
10, 217439, Note_on_c, 5, 52, 0
10, 217439, Note_on_c, 5, 64, 0
10, 217560, Note_on_c, 5, 71, 84
10, 217799, Note_on_c, 5, 71, 0
10, 217920, Note_on_c, 5, 71, 84
10, 218159, Note_on_c, 5, 71, 0
10, 218640, Note_on_c, 5, 52, 84
10, 218640, Note_on_c, 5, 64, 84
10, 218879, Note_on_c, 5, 52, 0
10, 218879, Note_on_c, 5, 64, 0
10, 219000, Note_on_c, 5, 71, 84
10, 219239, Note_on_c, 5, 71, 0
10, 219360, Note_on_c, 5, 52, 84
10, 219360, Note_on_c, 5, 64, 84
10, 219479, Note_on_c, 5, 52, 0
10, 219479, Note_on_c, 5, 64, 0
10, 219600, Note_on_c, 5, 64, 84
10, 219600, Note_on_c, 5, 52, 84
10, 219719, Note_on_c, 5, 64, 0
10, 219719, Note_on_c, 5, 52, 0
10, 219960, Note_on_c, 5, 52, 84
10, 219960, Note_on_c, 5, 64, 84
10, 220079, Note_on_c, 5, 52, 0
10, 220079, Note_on_c, 5, 64, 0
10, 220320, Note_on_c, 5, 64, 84
10, 220320, Note_on_c, 5, 52, 84
10, 220439, Note_on_c, 5, 64, 0
10, 220439, Note_on_c, 5, 52, 0
10, 220680, Note_on_c, 5, 64, 84
10, 220680, Note_on_c, 5, 52, 84
10, 220799, Note_on_c, 5, 64, 0
10, 220799, Note_on_c, 5, 52, 0
10, 221040, Note_on_c, 5, 64, 84
10, 221040, Note_on_c, 5, 52, 84
10, 221159, Note_on_c, 5, 64, 0
10, 221159, Note_on_c, 5, 52, 0
10, 221400, Note_on_c, 5, 64, 84
10, 221400, Note_on_c, 5, 52, 84
10, 221519, Note_on_c, 5, 64, 0
10, 221519, Note_on_c, 5, 52, 0
10, 221760, Note_on_c, 5, 52, 84
10, 221760, Note_on_c, 5, 64, 84
10, 221879, Note_on_c, 5, 52, 0
10, 221879, Note_on_c, 5, 64, 0
10, 222120, Note_on_c, 5, 52, 84
10, 222120, Note_on_c, 5, 64, 84
10, 222239, Note_on_c, 5, 52, 0
10, 222239, Note_on_c, 5, 64, 0
10, 223920, Note_on_c, 5, 67, 84
10, 224039, Note_on_c, 5, 67, 0
10, 224280, Note_on_c, 5, 67, 84
10, 224399, Note_on_c, 5, 67, 0
10, 224640, Note_on_c, 5, 67, 84
10, 224759, Note_on_c, 5, 67, 0
10, 225000, Note_on_c, 5, 67, 84
10, 225119, Note_on_c, 5, 67, 0
10, 240960, Note_on_c, 5, 67, 76
10, 243824, Note_on_c, 5, 67, 0
10, 243840, Note_on_c, 5, 67, 84
10, 244011, Note_on_c, 5, 67, 0
10, 244020, Note_on_c, 5, 67, 84
10, 244071, Note_on_c, 5, 67, 0
10, 244080, Note_on_c, 5, 67, 84
10, 244184, Note_on_c, 5, 67, 0
10, 244200, Note_on_c, 5, 67, 84
10, 244371, Note_on_c, 5, 67, 0
10, 244380, Note_on_c, 5, 67, 84
10, 244431, Note_on_c, 5, 67, 0
10, 244440, Note_on_c, 5, 67, 84
10, 244544, Note_on_c, 5, 67, 0
10, 244560, Note_on_c, 5, 67, 84
10, 244731, Note_on_c, 5, 67, 0
10, 244740, Note_on_c, 5, 67, 84
10, 244791, Note_on_c, 5, 67, 0
10, 244800, Note_on_c, 5, 67, 84
10, 244904, Note_on_c, 5, 67, 0
10, 244920, Note_on_c, 5, 67, 84
10, 245091, Note_on_c, 5, 67, 0
10, 245100, Note_on_c, 5, 67, 84
10, 245151, Note_on_c, 5, 67, 0
10, 245160, Note_on_c, 5, 67, 84
10, 245264, Note_on_c, 5, 67, 0
10, 245280, Note_on_c, 5, 67, 76
10, 248144, Note_on_c, 5, 67, 0
10, 248160, Note_on_c, 5, 52, 84
10, 248160, Note_on_c, 5, 64, 84
10, 248331, Note_on_c, 5, 52, 0
10, 248331, Note_on_c, 5, 64, 0
10, 248340, Note_on_c, 5, 64, 84
10, 248340, Note_on_c, 5, 52, 84
10, 248391, Note_on_c, 5, 64, 0
10, 248391, Note_on_c, 5, 52, 0
10, 248400, Note_on_c, 5, 52, 84
10, 248400, Note_on_c, 5, 64, 84
10, 248504, Note_on_c, 5, 52, 0
10, 248504, Note_on_c, 5, 64, 0
10, 248520, Note_on_c, 5, 64, 84
10, 248520, Note_on_c, 5, 52, 84
10, 248691, Note_on_c, 5, 64, 0
10, 248691, Note_on_c, 5, 52, 0
10, 248700, Note_on_c, 5, 64, 84
10, 248700, Note_on_c, 5, 52, 84
10, 248751, Note_on_c, 5, 64, 0
10, 248751, Note_on_c, 5, 52, 0
10, 248760, Note_on_c, 5, 52, 84
10, 248760, Note_on_c, 5, 64, 84
10, 248864, Note_on_c, 5, 52, 0
10, 248864, Note_on_c, 5, 64, 0
10, 248880, Note_on_c, 5, 64, 84
10, 248880, Note_on_c, 5, 52, 84
10, 249051, Note_on_c, 5, 64, 0
10, 249051, Note_on_c, 5, 52, 0
10, 249060, Note_on_c, 5, 52, 84
10, 249060, Note_on_c, 5, 64, 84
10, 249111, Note_on_c, 5, 52, 0
10, 249111, Note_on_c, 5, 64, 0
10, 249120, Note_on_c, 5, 64, 84
10, 249120, Note_on_c, 5, 52, 84
10, 249224, Note_on_c, 5, 64, 0
10, 249224, Note_on_c, 5, 52, 0
10, 249240, Note_on_c, 5, 52, 84
10, 249240, Note_on_c, 5, 64, 84
10, 249411, Note_on_c, 5, 52, 0
10, 249411, Note_on_c, 5, 64, 0
10, 249420, Note_on_c, 5, 64, 84
10, 249420, Note_on_c, 5, 52, 84
10, 249471, Note_on_c, 5, 64, 0
10, 249471, Note_on_c, 5, 52, 0
10, 249480, Note_on_c, 5, 52, 84
10, 249480, Note_on_c, 5, 64, 84
10, 249584, Note_on_c, 5, 52, 0
10, 249584, Note_on_c, 5, 64, 0
10, 249600, Note_on_c, 5, 52, 84
10, 249600, Note_on_c, 5, 64, 84
10, 252719, Note_on_c, 5, 52, 0
10, 252719, Note_on_c, 5, 64, 0
10, 265440, Note_on_c, 5, 69, 52
10, 265440, Note_on_c, 5, 57, 52
10, 265679, Note_on_c, 5, 69, 0
10, 265679, Note_on_c, 5, 57, 0
10, 265800, Note_on_c, 5, 57, 52
10, 265800, Note_on_c, 5, 69, 52
10, 266039, Note_on_c, 5, 57, 0
10, 266039, Note_on_c, 5, 69, 0
10, 266160, Note_on_c, 5, 57, 52
10, 266160, Note_on_c, 5, 69, 52
10, 266331, Note_on_c, 5, 57, 0
10, 266331, Note_on_c, 5, 69, 0
10, 266340, Note_on_c, 5, 69, 52
10, 266340, Note_on_c, 5, 57, 52
10, 266391, Note_on_c, 5, 69, 0
10, 266391, Note_on_c, 5, 57, 0
10, 266400, Note_on_c, 5, 69, 52
10, 266400, Note_on_c, 5, 57, 52
10, 266504, Note_on_c, 5, 69, 0
10, 266504, Note_on_c, 5, 57, 0
10, 266520, Note_on_c, 5, 69, 52
10, 266520, Note_on_c, 5, 57, 52
10, 266691, Note_on_c, 5, 69, 0
10, 266691, Note_on_c, 5, 57, 0
10, 266700, Note_on_c, 5, 69, 53
10, 266700, Note_on_c, 5, 57, 53
10, 266751, Note_on_c, 5, 69, 0
10, 266751, Note_on_c, 5, 57, 0
10, 266760, Note_on_c, 5, 69, 53
10, 266760, Note_on_c, 5, 57, 53
10, 266864, Note_on_c, 5, 69, 0
10, 266864, Note_on_c, 5, 57, 0
10, 266880, Note_on_c, 5, 57, 53
10, 266880, Note_on_c, 5, 69, 53
10, 267051, Note_on_c, 5, 57, 0
10, 267051, Note_on_c, 5, 69, 0
10, 267060, Note_on_c, 5, 69, 54
10, 267060, Note_on_c, 5, 57, 54
10, 267111, Note_on_c, 5, 69, 0
10, 267111, Note_on_c, 5, 57, 0
10, 267120, Note_on_c, 5, 57, 54
10, 267120, Note_on_c, 5, 69, 54
10, 267224, Note_on_c, 5, 57, 0
10, 267224, Note_on_c, 5, 69, 0
10, 267240, Note_on_c, 5, 69, 54
10, 267240, Note_on_c, 5, 57, 54
10, 267411, Note_on_c, 5, 69, 0
10, 267411, Note_on_c, 5, 57, 0
10, 267420, Note_on_c, 5, 69, 55
10, 267420, Note_on_c, 5, 57, 55
10, 267471, Note_on_c, 5, 69, 0
10, 267471, Note_on_c, 5, 57, 0
10, 267480, Note_on_c, 5, 69, 55
10, 267480, Note_on_c, 5, 57, 55
10, 267584, Note_on_c, 5, 69, 0
10, 267584, Note_on_c, 5, 57, 0
10, 267600, Note_on_c, 5, 57, 55
10, 267600, Note_on_c, 5, 69, 55
10, 267771, Note_on_c, 5, 57, 0
10, 267771, Note_on_c, 5, 69, 0
10, 267780, Note_on_c, 5, 69, 55
10, 267780, Note_on_c, 5, 57, 55
10, 267831, Note_on_c, 5, 69, 0
10, 267831, Note_on_c, 5, 57, 0
10, 267840, Note_on_c, 5, 57, 56
10, 267840, Note_on_c, 5, 69, 56
10, 267944, Note_on_c, 5, 57, 0
10, 267944, Note_on_c, 5, 69, 0
10, 267960, Note_on_c, 5, 69, 56
10, 267960, Note_on_c, 5, 57, 56
10, 268131, Note_on_c, 5, 69, 0
10, 268131, Note_on_c, 5, 57, 0
10, 268140, Note_on_c, 5, 69, 56
10, 268140, Note_on_c, 5, 57, 56
10, 268191, Note_on_c, 5, 69, 0
10, 268191, Note_on_c, 5, 57, 0
10, 268200, Note_on_c, 5, 57, 56
10, 268200, Note_on_c, 5, 69, 56
10, 268304, Note_on_c, 5, 57, 0
10, 268304, Note_on_c, 5, 69, 0
10, 268320, Note_on_c, 5, 69, 57
10, 268320, Note_on_c, 5, 57, 57
10, 268491, Note_on_c, 5, 69, 0
10, 268491, Note_on_c, 5, 57, 0
10, 268500, Note_on_c, 5, 57, 57
10, 268500, Note_on_c, 5, 69, 57
10, 268551, Note_on_c, 5, 57, 0
10, 268551, Note_on_c, 5, 69, 0
10, 268560, Note_on_c, 5, 69, 57
10, 268560, Note_on_c, 5, 57, 57
10, 268664, Note_on_c, 5, 69, 0
10, 268664, Note_on_c, 5, 57, 0
10, 268680, Note_on_c, 5, 57, 58
10, 268680, Note_on_c, 5, 69, 58
10, 268851, Note_on_c, 5, 57, 0
10, 268851, Note_on_c, 5, 69, 0
10, 268860, Note_on_c, 5, 57, 58
10, 268860, Note_on_c, 5, 69, 58
10, 268911, Note_on_c, 5, 57, 0
10, 268911, Note_on_c, 5, 69, 0
10, 268920, Note_on_c, 5, 69, 58
10, 268920, Note_on_c, 5, 57, 58
10, 269024, Note_on_c, 5, 69, 0
10, 269024, Note_on_c, 5, 57, 0
10, 269040, Note_on_c, 5, 69, 58
10, 269040, Note_on_c, 5, 57, 58
10, 269211, Note_on_c, 5, 69, 0
10, 269211, Note_on_c, 5, 57, 0
10, 269220, Note_on_c, 5, 69, 59
10, 269220, Note_on_c, 5, 57, 59
10, 269271, Note_on_c, 5, 69, 0
10, 269271, Note_on_c, 5, 57, 0
10, 269280, Note_on_c, 5, 69, 59
10, 269280, Note_on_c, 5, 57, 59
10, 269384, Note_on_c, 5, 69, 0
10, 269384, Note_on_c, 5, 57, 0
10, 269400, Note_on_c, 5, 69, 59
10, 269400, Note_on_c, 5, 57, 59
10, 269571, Note_on_c, 5, 69, 0
10, 269571, Note_on_c, 5, 57, 0
10, 269580, Note_on_c, 5, 69, 60
10, 269580, Note_on_c, 5, 57, 60
10, 269631, Note_on_c, 5, 69, 0
10, 269631, Note_on_c, 5, 57, 0
10, 269640, Note_on_c, 5, 69, 60
10, 269640, Note_on_c, 5, 57, 60
10, 269744, Note_on_c, 5, 69, 0
10, 269744, Note_on_c, 5, 57, 0
10, 269760, Note_on_c, 5, 57, 60
10, 269760, Note_on_c, 5, 69, 60
10, 269931, Note_on_c, 5, 57, 0
10, 269931, Note_on_c, 5, 69, 0
10, 269940, Note_on_c, 5, 57, 61
10, 269940, Note_on_c, 5, 69, 61
10, 269991, Note_on_c, 5, 57, 0
10, 269991, Note_on_c, 5, 69, 0
10, 270000, Note_on_c, 5, 69, 61
10, 270000, Note_on_c, 5, 57, 61
10, 270104, Note_on_c, 5, 69, 0
10, 270104, Note_on_c, 5, 57, 0
10, 270120, Note_on_c, 5, 69, 61
10, 270120, Note_on_c, 5, 57, 61
10, 270291, Note_on_c, 5, 69, 0
10, 270291, Note_on_c, 5, 57, 0
10, 270300, Note_on_c, 5, 57, 61
10, 270300, Note_on_c, 5, 69, 61
10, 270351, Note_on_c, 5, 57, 0
10, 270351, Note_on_c, 5, 69, 0
10, 270360, Note_on_c, 5, 57, 62
10, 270360, Note_on_c, 5, 69, 62
10, 270464, Note_on_c, 5, 57, 0
10, 270464, Note_on_c, 5, 69, 0
10, 270480, Note_on_c, 5, 67, 62
10, 270599, Note_on_c, 5, 67, 0
10, 276600, Note_on_c, 5, 67, 76
10, 276719, Note_on_c, 5, 67, 0
10, 276780, Note_on_c, 5, 67, 76
10, 276831, Note_on_c, 5, 67, 0
10, 276840, Note_on_c, 5, 67, 76
10, 276944, Note_on_c, 5, 67, 0
10, 276960, Note_on_c, 5, 67, 76
10, 277199, Note_on_c, 5, 67, 0
10, 277320, Note_on_c, 5, 67, 76
10, 277439, Note_on_c, 5, 67, 0
10, 277500, Note_on_c, 5, 67, 76
10, 277551, Note_on_c, 5, 67, 0
10, 277560, Note_on_c, 5, 67, 76
10, 277664, Note_on_c, 5, 67, 0
10, 277680, Note_on_c, 5, 67, 76
10, 277919, Note_on_c, 5, 67, 0
10, 278040, Note_on_c, 5, 67, 76
10, 278159, Note_on_c, 5, 67, 0
10, 278220, Note_on_c, 5, 67, 76
10, 278271, Note_on_c, 5, 67, 0
10, 278280, Note_on_c, 5, 67, 76
10, 278384, Note_on_c, 5, 67, 0
10, 278400, Note_on_c, 5, 67, 76
10, 278639, Note_on_c, 5, 67, 0
10, 278760, Note_on_c, 5, 69, 76
10, 278760, Note_on_c, 5, 57, 76
10, 278879, Note_on_c, 5, 69, 0
10, 278879, Note_on_c, 5, 57, 0
10, 278940, Note_on_c, 5, 69, 76
10, 278940, Note_on_c, 5, 57, 76
10, 278991, Note_on_c, 5, 69, 0
10, 278991, Note_on_c, 5, 57, 0
10, 279000, Note_on_c, 5, 69, 76
10, 279000, Note_on_c, 5, 57, 76
10, 279104, Note_on_c, 5, 69, 0
10, 279104, Note_on_c, 5, 57, 0
10, 279120, Note_on_c, 5, 57, 84
10, 279120, Note_on_c, 5, 69, 84
10, 279239, Note_on_c, 5, 57, 0
10, 279239, Note_on_c, 5, 69, 0
10, 279300, Note_on_c, 5, 69, 84
10, 279300, Note_on_c, 5, 57, 84
10, 279351, Note_on_c, 5, 69, 0
10, 279351, Note_on_c, 5, 57, 0
10, 279360, Note_on_c, 5, 57, 84
10, 279360, Note_on_c, 5, 69, 84
10, 279464, Note_on_c, 5, 57, 0
10, 279464, Note_on_c, 5, 69, 0
10, 279480, Note_on_c, 5, 69, 84
10, 279480, Note_on_c, 5, 57, 84
10, 279599, Note_on_c, 5, 69, 0
10, 279599, Note_on_c, 5, 57, 0
10, 279660, Note_on_c, 5, 69, 84
10, 279660, Note_on_c, 5, 57, 84
10, 279711, Note_on_c, 5, 69, 0
10, 279711, Note_on_c, 5, 57, 0
10, 279720, Note_on_c, 5, 69, 84
10, 279720, Note_on_c, 5, 57, 84
10, 279824, Note_on_c, 5, 69, 0
10, 279824, Note_on_c, 5, 57, 0
10, 279840, Note_on_c, 5, 57, 84
10, 279840, Note_on_c, 5, 69, 84
10, 279959, Note_on_c, 5, 57, 0
10, 279959, Note_on_c, 5, 69, 0
10, 280020, Note_on_c, 5, 69, 84
10, 280020, Note_on_c, 5, 57, 84
10, 280071, Note_on_c, 5, 69, 0
10, 280071, Note_on_c, 5, 57, 0
10, 280080, Note_on_c, 5, 69, 84
10, 280080, Note_on_c, 5, 57, 84
10, 280184, Note_on_c, 5, 69, 0
10, 280184, Note_on_c, 5, 57, 0
10, 280200, Note_on_c, 5, 57, 84
10, 280200, Note_on_c, 5, 69, 84
10, 280319, Note_on_c, 5, 57, 0
10, 280319, Note_on_c, 5, 69, 0
10, 280380, Note_on_c, 5, 69, 84
10, 280380, Note_on_c, 5, 57, 84
10, 280431, Note_on_c, 5, 69, 0
10, 280431, Note_on_c, 5, 57, 0
10, 280440, Note_on_c, 5, 69, 84
10, 280440, Note_on_c, 5, 57, 84
10, 280544, Note_on_c, 5, 69, 0
10, 280544, Note_on_c, 5, 57, 0
10, 280560, Note_on_c, 5, 69, 84
10, 280560, Note_on_c, 5, 57, 84
10, 281984, Note_on_c, 5, 69, 0
10, 281984, Note_on_c, 5, 57, 0
10, 282000, Note_on_c, 5, 69, 84
10, 282000, Note_on_c, 5, 57, 84
10, 282119, Note_on_c, 5, 69, 0
10, 282119, Note_on_c, 5, 57, 0
10, 282180, Note_on_c, 5, 57, 84
10, 282180, Note_on_c, 5, 69, 84
10, 282231, Note_on_c, 5, 57, 0
10, 282231, Note_on_c, 5, 69, 0
10, 282240, Note_on_c, 5, 57, 84
10, 282240, Note_on_c, 5, 69, 84
10, 282344, Note_on_c, 5, 57, 0
10, 282344, Note_on_c, 5, 69, 0
10, 282360, Note_on_c, 5, 57, 84
10, 282360, Note_on_c, 5, 69, 84
10, 282479, Note_on_c, 5, 57, 0
10, 282479, Note_on_c, 5, 69, 0
10, 282540, Note_on_c, 5, 69, 84
10, 282540, Note_on_c, 5, 57, 84
10, 282591, Note_on_c, 5, 69, 0
10, 282591, Note_on_c, 5, 57, 0
10, 282600, Note_on_c, 5, 57, 84
10, 282600, Note_on_c, 5, 69, 84
10, 282704, Note_on_c, 5, 57, 0
10, 282704, Note_on_c, 5, 69, 0
10, 282720, Note_on_c, 5, 57, 84
10, 282720, Note_on_c, 5, 69, 84
10, 282839, Note_on_c, 5, 57, 0
10, 282839, Note_on_c, 5, 69, 0
10, 282900, Note_on_c, 5, 69, 84
10, 282900, Note_on_c, 5, 57, 84
10, 282951, Note_on_c, 5, 69, 0
10, 282951, Note_on_c, 5, 57, 0
10, 282960, Note_on_c, 5, 69, 84
10, 282960, Note_on_c, 5, 57, 84
10, 283064, Note_on_c, 5, 69, 0
10, 283064, Note_on_c, 5, 57, 0
10, 283080, Note_on_c, 5, 69, 84
10, 283080, Note_on_c, 5, 57, 84
10, 283199, Note_on_c, 5, 69, 0
10, 283199, Note_on_c, 5, 57, 0
10, 283260, Note_on_c, 5, 69, 84
10, 283260, Note_on_c, 5, 57, 84
10, 283311, Note_on_c, 5, 69, 0
10, 283311, Note_on_c, 5, 57, 0
10, 283320, Note_on_c, 5, 57, 84
10, 283320, Note_on_c, 5, 69, 84
10, 283424, Note_on_c, 5, 57, 0
10, 283424, Note_on_c, 5, 69, 0
10, 283440, Note_on_c, 5, 57, 84
10, 283440, Note_on_c, 5, 69, 84
10, 284864, Note_on_c, 5, 57, 0
10, 284864, Note_on_c, 5, 69, 0
10, 284880, Note_on_c, 5, 52, 84
10, 284880, Note_on_c, 5, 64, 84
10, 284999, Note_on_c, 5, 52, 0
10, 284999, Note_on_c, 5, 64, 0
10, 285060, Note_on_c, 5, 52, 84
10, 285060, Note_on_c, 5, 64, 84
10, 285111, Note_on_c, 5, 52, 0
10, 285111, Note_on_c, 5, 64, 0
10, 285120, Note_on_c, 5, 52, 84
10, 285120, Note_on_c, 5, 64, 84
10, 285224, Note_on_c, 5, 52, 0
10, 285224, Note_on_c, 5, 64, 0
10, 285240, Note_on_c, 5, 64, 84
10, 285240, Note_on_c, 5, 52, 84
10, 285359, Note_on_c, 5, 64, 0
10, 285359, Note_on_c, 5, 52, 0
10, 285420, Note_on_c, 5, 52, 84
10, 285420, Note_on_c, 5, 64, 84
10, 285471, Note_on_c, 5, 52, 0
10, 285471, Note_on_c, 5, 64, 0
10, 285480, Note_on_c, 5, 52, 84
10, 285480, Note_on_c, 5, 64, 84
10, 285584, Note_on_c, 5, 52, 0
10, 285584, Note_on_c, 5, 64, 0
10, 285600, Note_on_c, 5, 64, 84
10, 285600, Note_on_c, 5, 52, 84
10, 285719, Note_on_c, 5, 64, 0
10, 285719, Note_on_c, 5, 52, 0
10, 285780, Note_on_c, 5, 64, 84
10, 285780, Note_on_c, 5, 52, 84
10, 285831, Note_on_c, 5, 64, 0
10, 285831, Note_on_c, 5, 52, 0
10, 285840, Note_on_c, 5, 52, 84
10, 285840, Note_on_c, 5, 64, 84
10, 285944, Note_on_c, 5, 52, 0
10, 285944, Note_on_c, 5, 64, 0
10, 285960, Note_on_c, 5, 64, 84
10, 285960, Note_on_c, 5, 52, 84
10, 286079, Note_on_c, 5, 64, 0
10, 286079, Note_on_c, 5, 52, 0
10, 286140, Note_on_c, 5, 64, 84
10, 286140, Note_on_c, 5, 52, 84
10, 286191, Note_on_c, 5, 64, 0
10, 286191, Note_on_c, 5, 52, 0
10, 286200, Note_on_c, 5, 52, 84
10, 286200, Note_on_c, 5, 64, 84
10, 286304, Note_on_c, 5, 52, 0
10, 286304, Note_on_c, 5, 64, 0
10, 286320, Note_on_c, 5, 52, 84
10, 286320, Note_on_c, 5, 64, 84
10, 286559, Note_on_c, 5, 52, 0
10, 286559, Note_on_c, 5, 64, 0
10, 292260, Note_on_c, 5, 52, 84
10, 292260, Note_on_c, 5, 64, 84
10, 292311, Note_on_c, 5, 52, 0
10, 292311, Note_on_c, 5, 64, 0
10, 292320, Note_on_c, 5, 64, 84
10, 292320, Note_on_c, 5, 52, 84
10, 292424, Note_on_c, 5, 64, 0
10, 292424, Note_on_c, 5, 52, 0
10, 292440, Note_on_c, 5, 52, 84
10, 292440, Note_on_c, 5, 64, 84
10, 292559, Note_on_c, 5, 52, 0
10, 292559, Note_on_c, 5, 64, 0
10, 292620, Note_on_c, 5, 64, 84
10, 292620, Note_on_c, 5, 52, 84
10, 292671, Note_on_c, 5, 64, 0
10, 292671, Note_on_c, 5, 52, 0
10, 292680, Note_on_c, 5, 52, 84
10, 292680, Note_on_c, 5, 64, 84
10, 292784, Note_on_c, 5, 52, 0
10, 292784, Note_on_c, 5, 64, 0
10, 292800, Note_on_c, 5, 52, 84
10, 292800, Note_on_c, 5, 64, 84
10, 292919, Note_on_c, 5, 52, 0
10, 292919, Note_on_c, 5, 64, 0
10, 292980, Note_on_c, 5, 64, 84
10, 292980, Note_on_c, 5, 52, 84
10, 293031, Note_on_c, 5, 64, 0
10, 293031, Note_on_c, 5, 52, 0
10, 293040, Note_on_c, 5, 52, 84
10, 293040, Note_on_c, 5, 64, 84
10, 293144, Note_on_c, 5, 52, 0
10, 293144, Note_on_c, 5, 64, 0
10, 293160, Note_on_c, 5, 52, 84
10, 293160, Note_on_c, 5, 64, 84
10, 293279, Note_on_c, 5, 52, 0
10, 293279, Note_on_c, 5, 64, 0
10, 293340, Note_on_c, 5, 64, 84
10, 293340, Note_on_c, 5, 52, 84
10, 293391, Note_on_c, 5, 64, 0
10, 293391, Note_on_c, 5, 52, 0
10, 293400, Note_on_c, 5, 64, 84
10, 293400, Note_on_c, 5, 52, 84
10, 293504, Note_on_c, 5, 64, 0
10, 293504, Note_on_c, 5, 52, 0
10, 293520, Note_on_c, 5, 52, 88
10, 293520, Note_on_c, 5, 64, 88
10, 293691, Note_on_c, 5, 52, 0
10, 293691, Note_on_c, 5, 64, 0
10, 293700, Note_on_c, 5, 52, 88
10, 293700, Note_on_c, 5, 64, 88
10, 293751, Note_on_c, 5, 52, 0
10, 293751, Note_on_c, 5, 64, 0
10, 293760, Note_on_c, 5, 52, 88
10, 293760, Note_on_c, 5, 64, 88
10, 293864, Note_on_c, 5, 52, 0
10, 293864, Note_on_c, 5, 64, 0
10, 293880, Note_on_c, 5, 64, 88
10, 293880, Note_on_c, 5, 52, 88
10, 294051, Note_on_c, 5, 64, 0
10, 294051, Note_on_c, 5, 52, 0
10, 294060, Note_on_c, 5, 52, 88
10, 294060, Note_on_c, 5, 64, 88
10, 294111, Note_on_c, 5, 52, 0
10, 294111, Note_on_c, 5, 64, 0
10, 294120, Note_on_c, 5, 52, 88
10, 294120, Note_on_c, 5, 64, 88
10, 294224, Note_on_c, 5, 52, 0
10, 294224, Note_on_c, 5, 64, 0
10, 294240, Note_on_c, 5, 64, 88
10, 294240, Note_on_c, 5, 52, 88
10, 294411, Note_on_c, 5, 64, 0
10, 294411, Note_on_c, 5, 52, 0
10, 294420, Note_on_c, 5, 52, 88
10, 294420, Note_on_c, 5, 64, 88
10, 294471, Note_on_c, 5, 52, 0
10, 294471, Note_on_c, 5, 64, 0
10, 294480, Note_on_c, 5, 64, 88
10, 294480, Note_on_c, 5, 52, 88
10, 294584, Note_on_c, 5, 64, 0
10, 294584, Note_on_c, 5, 52, 0
10, 294600, Note_on_c, 5, 52, 88
10, 294600, Note_on_c, 5, 64, 88
10, 294771, Note_on_c, 5, 52, 0
10, 294771, Note_on_c, 5, 64, 0
10, 294780, Note_on_c, 5, 64, 88
10, 294780, Note_on_c, 5, 52, 88
10, 294831, Note_on_c, 5, 64, 0
10, 294831, Note_on_c, 5, 52, 0
10, 294840, Note_on_c, 5, 64, 88
10, 294840, Note_on_c, 5, 52, 88
10, 294944, Note_on_c, 5, 64, 0
10, 294944, Note_on_c, 5, 52, 0
10, 294960, Note_on_c, 5, 52, 88
10, 294960, Note_on_c, 5, 64, 88
10, 295131, Note_on_c, 5, 52, 0
10, 295131, Note_on_c, 5, 64, 0
10, 295140, Note_on_c, 5, 64, 88
10, 295140, Note_on_c, 5, 52, 88
10, 295191, Note_on_c, 5, 64, 0
10, 295191, Note_on_c, 5, 52, 0
10, 295200, Note_on_c, 5, 64, 88
10, 295200, Note_on_c, 5, 52, 88
10, 295304, Note_on_c, 5, 64, 0
10, 295304, Note_on_c, 5, 52, 0
10, 295320, Note_on_c, 5, 64, 88
10, 295320, Note_on_c, 5, 52, 88
10, 295491, Note_on_c, 5, 64, 0
10, 295491, Note_on_c, 5, 52, 0
10, 295500, Note_on_c, 5, 52, 88
10, 295500, Note_on_c, 5, 64, 88
10, 295551, Note_on_c, 5, 52, 0
10, 295551, Note_on_c, 5, 64, 0
10, 295560, Note_on_c, 5, 52, 88
10, 295560, Note_on_c, 5, 64, 88
10, 295664, Note_on_c, 5, 52, 0
10, 295664, Note_on_c, 5, 64, 0
10, 295680, Note_on_c, 5, 64, 88
10, 295680, Note_on_c, 5, 52, 88
10, 295851, Note_on_c, 5, 64, 0
10, 295851, Note_on_c, 5, 52, 0
10, 295860, Note_on_c, 5, 52, 88
10, 295860, Note_on_c, 5, 64, 88
10, 295911, Note_on_c, 5, 52, 0
10, 295911, Note_on_c, 5, 64, 0
10, 295920, Note_on_c, 5, 64, 88
10, 295920, Note_on_c, 5, 52, 88
10, 296024, Note_on_c, 5, 64, 0
10, 296024, Note_on_c, 5, 52, 0
10, 296040, Note_on_c, 5, 52, 88
10, 296040, Note_on_c, 5, 64, 88
10, 296211, Note_on_c, 5, 52, 0
10, 296211, Note_on_c, 5, 64, 0
10, 296220, Note_on_c, 5, 52, 88
10, 296220, Note_on_c, 5, 64, 88
10, 296271, Note_on_c, 5, 52, 0
10, 296271, Note_on_c, 5, 64, 0
10, 296280, Note_on_c, 5, 64, 88
10, 296280, Note_on_c, 5, 52, 88
10, 296384, Note_on_c, 5, 64, 0
10, 296384, Note_on_c, 5, 52, 0
10, 296400, Note_on_c, 5, 52, 84
10, 296400, Note_on_c, 5, 64, 84
10, 296639, Note_on_c, 5, 52, 0
10, 296639, Note_on_c, 5, 64, 0
10, 297780, Note_on_c, 5, 64, 84
10, 297780, Note_on_c, 5, 52, 84
10, 297831, Note_on_c, 5, 64, 0
10, 297831, Note_on_c, 5, 52, 0
10, 297840, Note_on_c, 5, 64, 84
10, 297840, Note_on_c, 5, 52, 84
10, 298079, Note_on_c, 5, 64, 0
10, 298079, Note_on_c, 5, 52, 0
10, 299220, Note_on_c, 5, 52, 84
10, 299220, Note_on_c, 5, 64, 84
10, 299271, Note_on_c, 5, 52, 0
10, 299271, Note_on_c, 5, 64, 0
10, 299280, Note_on_c, 5, 52, 84
10, 299280, Note_on_c, 5, 64, 84
10, 299519, Note_on_c, 5, 52, 0
10, 299519, Note_on_c, 5, 64, 0
10, 300660, Note_on_c, 5, 52, 84
10, 300660, Note_on_c, 5, 64, 84
10, 300711, Note_on_c, 5, 52, 0
10, 300711, Note_on_c, 5, 64, 0
10, 300720, Note_on_c, 5, 52, 84
10, 300720, Note_on_c, 5, 64, 84
10, 300959, Note_on_c, 5, 52, 0
10, 300959, Note_on_c, 5, 64, 0
10, 301020, Note_on_c, 5, 52, 84
10, 301020, Note_on_c, 5, 64, 84
10, 301071, Note_on_c, 5, 52, 0
10, 301071, Note_on_c, 5, 64, 0
10, 301080, Note_on_c, 5, 52, 84
10, 301080, Note_on_c, 5, 64, 84
10, 301319, Note_on_c, 5, 52, 0
10, 301319, Note_on_c, 5, 64, 0
10, 301380, Note_on_c, 5, 52, 84
10, 301380, Note_on_c, 5, 64, 84
10, 301431, Note_on_c, 5, 52, 0
10, 301431, Note_on_c, 5, 64, 0
10, 301440, Note_on_c, 5, 57, 84
10, 301440, Note_on_c, 5, 64, 84
10, 301679, Note_on_c, 5, 57, 0
10, 301679, Note_on_c, 5, 64, 0
10, 301740, Note_on_c, 5, 69, 84
10, 301740, Note_on_c, 5, 57, 84
10, 301791, Note_on_c, 5, 69, 0
10, 301791, Note_on_c, 5, 57, 0
10, 301800, Note_on_c, 5, 57, 84
10, 301800, Note_on_c, 5, 69, 84
10, 302039, Note_on_c, 5, 57, 0
10, 302039, Note_on_c, 5, 69, 0
10, 302100, Note_on_c, 5, 69, 84
10, 302100, Note_on_c, 5, 57, 84
10, 302151, Note_on_c, 5, 69, 0
10, 302151, Note_on_c, 5, 57, 0
10, 302160, Note_on_c, 5, 69, 84
10, 302160, Note_on_c, 5, 57, 84
10, 302399, Note_on_c, 5, 69, 0
10, 302399, Note_on_c, 5, 57, 0
10, 304260, Note_on_c, 5, 57, 84
10, 304260, Note_on_c, 5, 69, 84
10, 304311, Note_on_c, 5, 57, 0
10, 304311, Note_on_c, 5, 69, 0
10, 304320, Note_on_c, 5, 69, 84
10, 304320, Note_on_c, 5, 57, 84
10, 304559, Note_on_c, 5, 69, 0
10, 304559, Note_on_c, 5, 57, 0
10, 306420, Note_on_c, 5, 52, 84
10, 306420, Note_on_c, 5, 64, 84
10, 306471, Note_on_c, 5, 52, 0
10, 306471, Note_on_c, 5, 64, 0
10, 306480, Note_on_c, 5, 52, 84
10, 306480, Note_on_c, 5, 64, 84
10, 306719, Note_on_c, 5, 52, 0
10, 306719, Note_on_c, 5, 64, 0
10, 307140, Note_on_c, 5, 64, 84
10, 307140, Note_on_c, 5, 52, 84
10, 307191, Note_on_c, 5, 64, 0
10, 307191, Note_on_c, 5, 52, 0
10, 307200, Note_on_c, 5, 52, 84
10, 307200, Note_on_c, 5, 64, 84
10, 307439, Note_on_c, 5, 52, 0
10, 307439, Note_on_c, 5, 64, 0
10, 307860, Note_on_c, 5, 64, 84
10, 307860, Note_on_c, 5, 52, 84
10, 307911, Note_on_c, 5, 64, 0
10, 307911, Note_on_c, 5, 52, 0
10, 307920, Note_on_c, 5, 52, 84
10, 307920, Note_on_c, 5, 64, 84
10, 308159, Note_on_c, 5, 52, 0
10, 308159, Note_on_c, 5, 64, 0
10, 308580, Note_on_c, 5, 52, 84
10, 308580, Note_on_c, 5, 64, 84
10, 308631, Note_on_c, 5, 52, 0
10, 308631, Note_on_c, 5, 64, 0
10, 308640, Note_on_c, 5, 52, 84
10, 308640, Note_on_c, 5, 64, 84
10, 308879, Note_on_c, 5, 52, 0
10, 308879, Note_on_c, 5, 64, 0
10, 309300, Note_on_c, 5, 52, 84
10, 309300, Note_on_c, 5, 64, 84
10, 309351, Note_on_c, 5, 52, 0
10, 309351, Note_on_c, 5, 64, 0
10, 309360, Note_on_c, 5, 52, 84
10, 309360, Note_on_c, 5, 64, 84
10, 309599, Note_on_c, 5, 52, 0
10, 309599, Note_on_c, 5, 64, 0
10, 310020, Note_on_c, 5, 64, 84
10, 310020, Note_on_c, 5, 52, 84
10, 310071, Note_on_c, 5, 64, 0
10, 310071, Note_on_c, 5, 52, 0
10, 310080, Note_on_c, 5, 64, 84
10, 310080, Note_on_c, 5, 52, 84
10, 310319, Note_on_c, 5, 64, 0
10, 310319, Note_on_c, 5, 52, 0
10, 310380, Note_on_c, 5, 64, 84
10, 310380, Note_on_c, 5, 52, 84
10, 310431, Note_on_c, 5, 64, 0
10, 310431, Note_on_c, 5, 52, 0
10, 310440, Note_on_c, 5, 64, 84
10, 310440, Note_on_c, 5, 52, 84
10, 310679, Note_on_c, 5, 64, 0
10, 310679, Note_on_c, 5, 52, 0
10, 310740, Note_on_c, 5, 64, 84
10, 310740, Note_on_c, 5, 52, 84
10, 310791, Note_on_c, 5, 64, 0
10, 310791, Note_on_c, 5, 52, 0
10, 310800, Note_on_c, 5, 64, 84
10, 310800, Note_on_c, 5, 52, 84
10, 311039, Note_on_c, 5, 64, 0
10, 311039, Note_on_c, 5, 52, 0
10, 311100, Note_on_c, 5, 64, 84
10, 311100, Note_on_c, 5, 52, 84
10, 311151, Note_on_c, 5, 64, 0
10, 311151, Note_on_c, 5, 52, 0
10, 311160, Note_on_c, 5, 64, 84
10, 311160, Note_on_c, 5, 52, 84
10, 311399, Note_on_c, 5, 64, 0
10, 311399, Note_on_c, 5, 52, 0
10, 311460, Note_on_c, 5, 52, 84
10, 311460, Note_on_c, 5, 64, 84
10, 311511, Note_on_c, 5, 52, 0
10, 311511, Note_on_c, 5, 64, 0
10, 311520, Note_on_c, 5, 52, 84
10, 311520, Note_on_c, 5, 64, 84
10, 311879, Note_on_c, 5, 52, 0
10, 311879, Note_on_c, 5, 64, 0
10, 312180, Note_on_c, 5, 57, 52
10, 312180, Note_on_c, 5, 45, 52
10, 312231, Note_on_c, 5, 57, 0
10, 312231, Note_on_c, 5, 45, 0
10, 312240, Note_on_c, 5, 45, 52
10, 312240, Note_on_c, 5, 57, 52
10, 312599, Note_on_c, 5, 45, 0
10, 312599, Note_on_c, 5, 57, 0
10, 312960, Note_on_c, 5, 57, 52
10, 312960, Note_on_c, 5, 69, 52
10, 315839, Note_on_c, 5, 57, 0
10, 315839, Note_on_c, 5, 69, 0
10, 315840, Note_on_c, 5, 69, 52
10, 315840, Note_on_c, 5, 57, 52
10, 318239, Note_on_c, 5, 69, 0
10, 318239, Note_on_c, 5, 57, 0
10, 325200, Control_c, 5, 11, 64
10, 325920, Note_on_c, 5, 57, 84
10, 325920, Note_on_c, 5, 45, 84
10, 325966, Control_c, 5, 11, 65
10, 326011, Control_c, 5, 11, 66
10, 326057, Control_c, 5, 11, 67
10, 326103, Control_c, 5, 11, 68
10, 326149, Control_c, 5, 11, 69
10, 326194, Control_c, 5, 11, 70
10, 326240, Control_c, 5, 11, 71
10, 326286, Control_c, 5, 11, 72
10, 326331, Control_c, 5, 11, 73
10, 326377, Control_c, 5, 11, 74
10, 326423, Control_c, 5, 11, 75
10, 326469, Control_c, 5, 11, 76
10, 326514, Control_c, 5, 11, 77
10, 326560, Control_c, 5, 11, 78
10, 326606, Control_c, 5, 11, 79
10, 326651, Control_c, 5, 11, 80
10, 326697, Control_c, 5, 11, 81
10, 326743, Control_c, 5, 11, 82
10, 326789, Control_c, 5, 11, 83
10, 326834, Control_c, 5, 11, 84
10, 326880, Control_c, 5, 11, 85
10, 326926, Control_c, 5, 11, 86
10, 326971, Control_c, 5, 11, 87
10, 327017, Control_c, 5, 11, 88
10, 327063, Control_c, 5, 11, 89
10, 327109, Control_c, 5, 11, 90
10, 327154, Control_c, 5, 11, 91
10, 327200, Control_c, 5, 11, 92
10, 327246, Control_c, 5, 11, 93
10, 327291, Control_c, 5, 11, 94
10, 327337, Control_c, 5, 11, 95
10, 327383, Control_c, 5, 11, 96
10, 327429, Control_c, 5, 11, 97
10, 327474, Control_c, 5, 11, 98
10, 327520, Control_c, 5, 11, 99
10, 327566, Control_c, 5, 11, 100
10, 327611, Control_c, 5, 11, 101
10, 327657, Control_c, 5, 11, 102
10, 327703, Control_c, 5, 11, 103
10, 327749, Control_c, 5, 11, 104
10, 327794, Control_c, 5, 11, 105
10, 327840, Control_c, 5, 11, 106
10, 327886, Control_c, 5, 11, 107
10, 327931, Control_c, 5, 11, 108
10, 327977, Control_c, 5, 11, 109
10, 328023, Control_c, 5, 11, 110
10, 328069, Control_c, 5, 11, 111
10, 328114, Control_c, 5, 11, 112
10, 328160, Control_c, 5, 11, 113
10, 328206, Control_c, 5, 11, 114
10, 328251, Control_c, 5, 11, 115
10, 328297, Control_c, 5, 11, 116
10, 328343, Control_c, 5, 11, 117
10, 328389, Control_c, 5, 11, 118
10, 328434, Control_c, 5, 11, 119
10, 328480, Control_c, 5, 11, 120
10, 328526, Control_c, 5, 11, 121
10, 328571, Control_c, 5, 11, 122
10, 328617, Control_c, 5, 11, 123
10, 328663, Control_c, 5, 11, 124
10, 328709, Control_c, 5, 11, 125
10, 328754, Control_c, 5, 11, 127
10, 328784, Note_on_c, 5, 57, 0
10, 328784, Note_on_c, 5, 45, 0
10, 328800, Note_on_c, 5, 69, 84
10, 328800, Note_on_c, 5, 57, 84
10, 329504, Note_on_c, 5, 69, 0
10, 329504, Note_on_c, 5, 57, 0
10, 329520, Note_on_c, 5, 76, 84
10, 329520, Note_on_c, 5, 64, 84
10, 329984, Note_on_c, 5, 76, 0
10, 329984, Note_on_c, 5, 64, 0
10, 330000, Note_on_c, 5, 52, 84
10, 330000, Note_on_c, 5, 64, 84
10, 330104, Note_on_c, 5, 52, 0
10, 330104, Note_on_c, 5, 64, 0
10, 330120, Note_on_c, 5, 64, 84
10, 330120, Note_on_c, 5, 52, 84
10, 330224, Note_on_c, 5, 64, 0
10, 330224, Note_on_c, 5, 52, 0
10, 330240, Note_on_c, 5, 69, 84
10, 330240, Note_on_c, 5, 57, 84
10, 330359, Note_on_c, 5, 69, 0
10, 330359, Note_on_c, 5, 57, 0
10, 330480, Note_on_c, 5, 57, 84
10, 330480, Note_on_c, 5, 69, 84
10, 330584, Note_on_c, 5, 57, 0
10, 330584, Note_on_c, 5, 69, 0
10, 330600, Note_on_c, 5, 57, 84
10, 330600, Note_on_c, 5, 69, 84
10, 330719, Note_on_c, 5, 57, 0
10, 330719, Note_on_c, 5, 69, 0
10, 330840, Note_on_c, 5, 57, 84
10, 330840, Note_on_c, 5, 69, 84
10, 330944, Note_on_c, 5, 57, 0
10, 330944, Note_on_c, 5, 69, 0
10, 330960, Note_on_c, 5, 64, 52
10, 331079, Note_on_c, 5, 64, 0
10, 334560, Note_on_c, 5, 64, 76
10, 334560, Note_on_c, 5, 52, 76
10, 334784, Note_on_c, 5, 64, 0
10, 334784, Note_on_c, 5, 52, 0
10, 334800, Note_on_c, 5, 52, 76
10, 334800, Note_on_c, 5, 64, 76
10, 334904, Note_on_c, 5, 52, 0
10, 334904, Note_on_c, 5, 64, 0
10, 334920, Note_on_c, 5, 52, 76
10, 334920, Note_on_c, 5, 64, 76
10, 335144, Note_on_c, 5, 52, 0
10, 335144, Note_on_c, 5, 64, 0
10, 335160, Note_on_c, 5, 52, 76
10, 335160, Note_on_c, 5, 64, 76
10, 335264, Note_on_c, 5, 52, 0
10, 335264, Note_on_c, 5, 64, 0
10, 335280, Note_on_c, 5, 64, 76
10, 335280, Note_on_c, 5, 52, 76
10, 335984, Note_on_c, 5, 64, 0
10, 335984, Note_on_c, 5, 52, 0
10, 336000, Note_on_c, 5, 52, 76
10, 336000, Note_on_c, 5, 64, 76
10, 336224, Note_on_c, 5, 52, 0
10, 336224, Note_on_c, 5, 64, 0
10, 336240, Note_on_c, 5, 52, 76
10, 336240, Note_on_c, 5, 64, 76
10, 336344, Note_on_c, 5, 52, 0
10, 336344, Note_on_c, 5, 64, 0
10, 336360, Note_on_c, 5, 52, 76
10, 336360, Note_on_c, 5, 64, 76
10, 336584, Note_on_c, 5, 52, 0
10, 336584, Note_on_c, 5, 64, 0
10, 336600, Note_on_c, 5, 52, 76
10, 336600, Note_on_c, 5, 64, 76
10, 336704, Note_on_c, 5, 52, 0
10, 336704, Note_on_c, 5, 64, 0
10, 336720, Note_on_c, 5, 52, 76
10, 336720, Note_on_c, 5, 64, 76
10, 337424, Note_on_c, 5, 52, 0
10, 337424, Note_on_c, 5, 64, 0
10, 337440, Note_on_c, 5, 69, 76
10, 337440, Note_on_c, 5, 57, 76
10, 337664, Note_on_c, 5, 69, 0
10, 337664, Note_on_c, 5, 57, 0
10, 337680, Note_on_c, 5, 71, 76
10, 337784, Note_on_c, 5, 71, 0
10, 337800, Note_on_c, 5, 71, 76
10, 338024, Note_on_c, 5, 71, 0
10, 338040, Note_on_c, 5, 71, 76
10, 338144, Note_on_c, 5, 71, 0
10, 338160, Note_on_c, 5, 71, 76
10, 338160, Note_on_c, 5, 64, 76
10, 338264, Note_on_c, 5, 71, 0
10, 338264, Note_on_c, 5, 64, 0
10, 338280, Note_on_c, 5, 64, 76
10, 338280, Note_on_c, 5, 71, 76
10, 338399, Note_on_c, 5, 64, 0
10, 338399, Note_on_c, 5, 71, 0
10, 338520, Note_on_c, 5, 71, 76
10, 338520, Note_on_c, 5, 64, 76
10, 338624, Note_on_c, 5, 71, 0
10, 338624, Note_on_c, 5, 64, 0
10, 338640, Note_on_c, 5, 71, 76
10, 338640, Note_on_c, 5, 64, 76
10, 338759, Note_on_c, 5, 71, 0
10, 338759, Note_on_c, 5, 64, 0
10, 338880, Note_on_c, 5, 73, 76
10, 338880, Note_on_c, 5, 69, 76
10, 338984, Note_on_c, 5, 73, 0
10, 338984, Note_on_c, 5, 69, 0
10, 339000, Note_on_c, 5, 73, 76
10, 339000, Note_on_c, 5, 69, 76
10, 339119, Note_on_c, 5, 73, 0
10, 339119, Note_on_c, 5, 69, 0
10, 339240, Note_on_c, 5, 73, 76
10, 339240, Note_on_c, 5, 69, 76
10, 339344, Note_on_c, 5, 73, 0
10, 339344, Note_on_c, 5, 69, 0
10, 339360, Note_on_c, 5, 73, 76
10, 339360, Note_on_c, 5, 69, 76
10, 339479, Note_on_c, 5, 73, 0
10, 339479, Note_on_c, 5, 69, 0
10, 339600, Note_on_c, 5, 71, 76
10, 339600, Note_on_c, 5, 64, 76
10, 339704, Note_on_c, 5, 71, 0
10, 339704, Note_on_c, 5, 64, 0
10, 339720, Note_on_c, 5, 71, 76
10, 339720, Note_on_c, 5, 64, 76
10, 339839, Note_on_c, 5, 71, 0
10, 339839, Note_on_c, 5, 64, 0
10, 339960, Note_on_c, 5, 64, 76
10, 339960, Note_on_c, 5, 71, 76
10, 340064, Note_on_c, 5, 64, 0
10, 340064, Note_on_c, 5, 71, 0
10, 340080, Note_on_c, 5, 64, 76
10, 340080, Note_on_c, 5, 71, 76
10, 340199, Note_on_c, 5, 64, 0
10, 340199, Note_on_c, 5, 71, 0
10, 340320, Note_on_c, 5, 73, 76
10, 340320, Note_on_c, 5, 69, 76
10, 340424, Note_on_c, 5, 73, 0
10, 340424, Note_on_c, 5, 69, 0
10, 340440, Note_on_c, 5, 69, 76
10, 340440, Note_on_c, 5, 73, 76
10, 340559, Note_on_c, 5, 69, 0
10, 340559, Note_on_c, 5, 73, 0
10, 340680, Note_on_c, 5, 69, 76
10, 340680, Note_on_c, 5, 73, 76
10, 340784, Note_on_c, 5, 69, 0
10, 340784, Note_on_c, 5, 73, 0
10, 340800, Note_on_c, 5, 73, 76
10, 340800, Note_on_c, 5, 69, 76
10, 340919, Note_on_c, 5, 73, 0
10, 340919, Note_on_c, 5, 69, 0
10, 342480, Note_on_c, 5, 57, 48
10, 342480, Note_on_c, 5, 69, 48
10, 344024, Note_on_c, 5, 57, 0
10, 344024, Note_on_c, 5, 69, 0
10, 344040, Note_on_c, 5, 61, 48
10, 344040, Note_on_c, 5, 73, 48
10, 344144, Note_on_c, 5, 61, 0
10, 344144, Note_on_c, 5, 73, 0
10, 344160, Note_on_c, 5, 61, 48
10, 344160, Note_on_c, 5, 73, 48
10, 344264, Note_on_c, 5, 61, 0
10, 344264, Note_on_c, 5, 73, 0
10, 344280, Note_on_c, 5, 61, 48
10, 344280, Note_on_c, 5, 73, 48
10, 344384, Note_on_c, 5, 61, 0
10, 344384, Note_on_c, 5, 73, 0
10, 344400, Note_on_c, 5, 76, 48
10, 344400, Note_on_c, 5, 64, 48
10, 344504, Note_on_c, 5, 76, 0
10, 344504, Note_on_c, 5, 64, 0
10, 344520, Note_on_c, 5, 64, 48
10, 344520, Note_on_c, 5, 76, 48
10, 344624, Note_on_c, 5, 64, 0
10, 344624, Note_on_c, 5, 76, 0
10, 344640, Note_on_c, 5, 76, 48
10, 344640, Note_on_c, 5, 64, 48
10, 344744, Note_on_c, 5, 76, 0
10, 344744, Note_on_c, 5, 64, 0
10, 344760, Note_on_c, 5, 52, 48
10, 344760, Note_on_c, 5, 64, 48
10, 344864, Note_on_c, 5, 52, 0
10, 344864, Note_on_c, 5, 64, 0
10, 344880, Note_on_c, 5, 52, 48
10, 344880, Note_on_c, 5, 64, 48
10, 344984, Note_on_c, 5, 52, 0
10, 344984, Note_on_c, 5, 64, 0
10, 345000, Note_on_c, 5, 52, 48
10, 345000, Note_on_c, 5, 64, 48
10, 345104, Note_on_c, 5, 52, 0
10, 345104, Note_on_c, 5, 64, 0
10, 345120, Note_on_c, 5, 52, 48
10, 345120, Note_on_c, 5, 64, 48
10, 345224, Note_on_c, 5, 52, 0
10, 345224, Note_on_c, 5, 64, 0
10, 345240, Note_on_c, 5, 52, 48
10, 345240, Note_on_c, 5, 64, 48
10, 345344, Note_on_c, 5, 52, 0
10, 345344, Note_on_c, 5, 64, 0
10, 345360, Note_on_c, 5, 57, 84
10, 345360, Note_on_c, 5, 69, 84
10, 345599, Note_on_c, 5, 57, 0
10, 345599, Note_on_c, 5, 69, 0
10, 345720, Note_on_c, 5, 69, 84
10, 345720, Note_on_c, 5, 57, 84
10, 345959, Note_on_c, 5, 69, 0
10, 345959, Note_on_c, 5, 57, 0
10, 346080, Note_on_c, 5, 69, 84
10, 346080, Note_on_c, 5, 57, 84
10, 346319, Note_on_c, 5, 69, 0
10, 346319, Note_on_c, 5, 57, 0
10, 346440, Note_on_c, 5, 57, 84
10, 346440, Note_on_c, 5, 69, 84
10, 346664, Note_on_c, 5, 57, 0
10, 346664, Note_on_c, 5, 69, 0
10, 346680, Note_on_c, 5, 52, 84
10, 346680, Note_on_c, 5, 64, 84
10, 346784, Note_on_c, 5, 52, 0
10, 346784, Note_on_c, 5, 64, 0
10, 346800, Note_on_c, 5, 57, 84
10, 346800, Note_on_c, 5, 69, 84
10, 347039, Note_on_c, 5, 57, 0
10, 347039, Note_on_c, 5, 69, 0
10, 358320, Note_on_c, 5, 69, 84
10, 358320, Note_on_c, 5, 57, 84
10, 359384, Note_on_c, 5, 69, 0
10, 359384, Note_on_c, 5, 57, 0
10, 359400, Note_on_c, 5, 57, 84
10, 359400, Note_on_c, 5, 69, 84
10, 359571, Note_on_c, 5, 57, 0
10, 359571, Note_on_c, 5, 69, 0
10, 359580, Note_on_c, 5, 69, 84
10, 359580, Note_on_c, 5, 57, 84
10, 359631, Note_on_c, 5, 69, 0
10, 359631, Note_on_c, 5, 57, 0
10, 359640, Note_on_c, 5, 57, 84
10, 359640, Note_on_c, 5, 69, 84
10, 359744, Note_on_c, 5, 57, 0
10, 359744, Note_on_c, 5, 69, 0
10, 359760, Note_on_c, 5, 69, 84
10, 359760, Note_on_c, 5, 57, 84
10, 360824, Note_on_c, 5, 69, 0
10, 360824, Note_on_c, 5, 57, 0
10, 360840, Note_on_c, 5, 57, 84
10, 360840, Note_on_c, 5, 69, 84
10, 361011, Note_on_c, 5, 57, 0
10, 361011, Note_on_c, 5, 69, 0
10, 361020, Note_on_c, 5, 69, 84
10, 361020, Note_on_c, 5, 57, 84
10, 361071, Note_on_c, 5, 69, 0
10, 361071, Note_on_c, 5, 57, 0
10, 361080, Note_on_c, 5, 69, 84
10, 361080, Note_on_c, 5, 57, 84
10, 361199, Note_on_c, 5, 69, 0
10, 361199, Note_on_c, 5, 57, 0
10, 361800, Control_c, 5, 11, 48
10, 361920, Note_on_c, 5, 64, 84
10, 361920, Note_on_c, 5, 52, 84
10, 361960, Control_c, 5, 11, 52
10, 362000, Control_c, 5, 11, 57
10, 362040, Control_c, 5, 11, 61
10, 362080, Control_c, 5, 11, 66
10, 362120, Control_c, 5, 11, 70
10, 362160, Control_c, 5, 11, 74
10, 362200, Control_c, 5, 11, 79
10, 362240, Control_c, 5, 11, 83
10, 362280, Control_c, 5, 11, 88
10, 362320, Control_c, 5, 11, 92
10, 362360, Control_c, 5, 11, 96
10, 362400, Control_c, 5, 11, 101
10, 362440, Control_c, 5, 11, 105
10, 362480, Control_c, 5, 11, 109
10, 362520, Control_c, 5, 11, 114
10, 362560, Control_c, 5, 11, 118
10, 362600, Control_c, 5, 11, 123
10, 362624, Note_on_c, 5, 64, 0
10, 362624, Note_on_c, 5, 52, 0
10, 362638, Control_c, 5, 11, 127
10, 362640, Note_on_c, 5, 57, 84
10, 362640, Note_on_c, 5, 69, 84
10, 363704, Note_on_c, 5, 57, 0
10, 363704, Note_on_c, 5, 69, 0
10, 363720, Note_on_c, 5, 57, 84
10, 363720, Note_on_c, 5, 69, 84
10, 363891, Note_on_c, 5, 57, 0
10, 363891, Note_on_c, 5, 69, 0
10, 363900, Note_on_c, 5, 69, 84
10, 363900, Note_on_c, 5, 57, 84
10, 363951, Note_on_c, 5, 69, 0
10, 363951, Note_on_c, 5, 57, 0
10, 363960, Note_on_c, 5, 57, 84
10, 363960, Note_on_c, 5, 69, 84
10, 364064, Note_on_c, 5, 57, 0
10, 364064, Note_on_c, 5, 69, 0
10, 364080, Note_on_c, 5, 57, 84
10, 364080, Note_on_c, 5, 69, 84
10, 365144, Note_on_c, 5, 57, 0
10, 365144, Note_on_c, 5, 69, 0
10, 365160, Note_on_c, 5, 57, 84
10, 365160, Note_on_c, 5, 69, 84
10, 365331, Note_on_c, 5, 57, 0
10, 365331, Note_on_c, 5, 69, 0
10, 365340, Note_on_c, 5, 69, 84
10, 365340, Note_on_c, 5, 57, 84
10, 365391, Note_on_c, 5, 69, 0
10, 365391, Note_on_c, 5, 57, 0
10, 365400, Note_on_c, 5, 69, 84
10, 365400, Note_on_c, 5, 57, 84
10, 365519, Note_on_c, 5, 69, 0
10, 365519, Note_on_c, 5, 57, 0
10, 366960, Note_on_c, 5, 52, 84
10, 366960, Note_on_c, 5, 64, 84
10, 367664, Note_on_c, 5, 52, 0
10, 367664, Note_on_c, 5, 64, 0
10, 367680, Note_on_c, 5, 52, 84
10, 367680, Note_on_c, 5, 64, 84
10, 368211, Note_on_c, 5, 52, 0
10, 368211, Note_on_c, 5, 64, 0
10, 368220, Note_on_c, 5, 52, 84
10, 368220, Note_on_c, 5, 64, 84
10, 368271, Note_on_c, 5, 52, 0
10, 368271, Note_on_c, 5, 64, 0
10, 368280, Note_on_c, 5, 52, 84
10, 368280, Note_on_c, 5, 64, 84
10, 368384, Note_on_c, 5, 52, 0
10, 368384, Note_on_c, 5, 64, 0
10, 368400, Note_on_c, 5, 52, 84
10, 368400, Note_on_c, 5, 64, 84
10, 368639, Note_on_c, 5, 52, 0
10, 368639, Note_on_c, 5, 64, 0
10, 368760, Note_on_c, 5, 52, 84
10, 368760, Note_on_c, 5, 64, 84
10, 368999, Note_on_c, 5, 52, 0
10, 368999, Note_on_c, 5, 64, 0
10, 369120, Note_on_c, 5, 52, 84
10, 369120, Note_on_c, 5, 64, 84
10, 369359, Note_on_c, 5, 52, 0
10, 369359, Note_on_c, 5, 64, 0
10, 369660, Note_on_c, 5, 52, 84
10, 369660, Note_on_c, 5, 64, 84
10, 369711, Note_on_c, 5, 52, 0
10, 369711, Note_on_c, 5, 64, 0
10, 369720, Note_on_c, 5, 64, 84
10, 369720, Note_on_c, 5, 52, 84
10, 369824, Note_on_c, 5, 64, 0
10, 369824, Note_on_c, 5, 52, 0
10, 369840, Note_on_c, 5, 52, 84
10, 369840, Note_on_c, 5, 64, 84
10, 370371, Note_on_c, 5, 52, 0
10, 370371, Note_on_c, 5, 64, 0
10, 370380, Note_on_c, 5, 64, 84
10, 370380, Note_on_c, 5, 52, 84
10, 370431, Note_on_c, 5, 64, 0
10, 370431, Note_on_c, 5, 52, 0
10, 370440, Note_on_c, 5, 64, 84
10, 370440, Note_on_c, 5, 52, 84
10, 370544, Note_on_c, 5, 64, 0
10, 370544, Note_on_c, 5, 52, 0
10, 370560, Note_on_c, 5, 64, 84
10, 370560, Note_on_c, 5, 52, 84
10, 371091, Note_on_c, 5, 64, 0
10, 371091, Note_on_c, 5, 52, 0
10, 371100, Note_on_c, 5, 52, 84
10, 371100, Note_on_c, 5, 64, 84
10, 371151, Note_on_c, 5, 52, 0
10, 371151, Note_on_c, 5, 64, 0
10, 371160, Note_on_c, 5, 52, 84
10, 371160, Note_on_c, 5, 64, 84
10, 371264, Note_on_c, 5, 52, 0
10, 371264, Note_on_c, 5, 64, 0
10, 371280, Note_on_c, 5, 52, 84
10, 371280, Note_on_c, 5, 64, 84
10, 371811, Note_on_c, 5, 52, 0
10, 371811, Note_on_c, 5, 64, 0
10, 371820, Note_on_c, 5, 52, 84
10, 371820, Note_on_c, 5, 64, 84
10, 371871, Note_on_c, 5, 52, 0
10, 371871, Note_on_c, 5, 64, 0
10, 371880, Note_on_c, 5, 52, 84
10, 371880, Note_on_c, 5, 64, 84
10, 371984, Note_on_c, 5, 52, 0
10, 371984, Note_on_c, 5, 64, 0
10, 372000, Note_on_c, 5, 57, 84
10, 372000, Note_on_c, 5, 69, 84
10, 372119, Note_on_c, 5, 57, 0
10, 372119, Note_on_c, 5, 69, 0
10, 372240, Note_on_c, 5, 57, 84
10, 372240, Note_on_c, 5, 69, 84
10, 372359, Note_on_c, 5, 57, 0
10, 372359, Note_on_c, 5, 69, 0
10, 372600, Note_on_c, 5, 69, 84
10, 372600, Note_on_c, 5, 57, 84
10, 372719, Note_on_c, 5, 69, 0
10, 372719, Note_on_c, 5, 57, 0
10, 372960, Note_on_c, 5, 69, 84
10, 372960, Note_on_c, 5, 57, 84
10, 373079, Note_on_c, 5, 69, 0
10, 373079, Note_on_c, 5, 57, 0
10, 373320, Note_on_c, 5, 69, 84
10, 373320, Note_on_c, 5, 57, 84
10, 373439, Note_on_c, 5, 69, 0
10, 373439, Note_on_c, 5, 57, 0
10, 373680, Note_on_c, 5, 57, 84
10, 373680, Note_on_c, 5, 69, 84
10, 373799, Note_on_c, 5, 57, 0
10, 373799, Note_on_c, 5, 69, 0
10, 374040, Note_on_c, 5, 69, 84
10, 374040, Note_on_c, 5, 57, 84
10, 374159, Note_on_c, 5, 69, 0
10, 374159, Note_on_c, 5, 57, 0
10, 374400, Note_on_c, 5, 69, 84
10, 374400, Note_on_c, 5, 57, 84
10, 374519, Note_on_c, 5, 69, 0
10, 374519, Note_on_c, 5, 57, 0
10, 374760, Note_on_c, 5, 69, 84
10, 374760, Note_on_c, 5, 57, 84
10, 374879, Note_on_c, 5, 69, 0
10, 374879, Note_on_c, 5, 57, 0
10, 383520, Note_on_c, 5, 69, 44
10, 383520, Note_on_c, 5, 73, 44
10, 384059, Note_on_c, 5, 69, 0
10, 384059, Note_on_c, 5, 73, 0
10, 384060, Note_on_c, 5, 71, 44
10, 384060, Note_on_c, 5, 64, 44
10, 384119, Note_on_c, 5, 71, 0
10, 384119, Note_on_c, 5, 64, 0
10, 384120, Note_on_c, 5, 69, 44
10, 384120, Note_on_c, 5, 61, 44
10, 384239, Note_on_c, 5, 69, 0
10, 384239, Note_on_c, 5, 61, 0
10, 384960, Note_on_c, 5, 40, 44
10, 387839, Note_on_c, 5, 40, 0
10, 387840, Note_on_c, 5, 40, 44
10, 390715, Note_on_c, 5, 40, 0
10, 390718, Control_c, 5, 11, 48
10, 390720, Note_on_c, 5, 40, 84
10, 390720, Control_c, 5, 11, 48
10, 390900, Control_c, 5, 11, 49
10, 391080, Control_c, 5, 11, 50
10, 391080, Note_on_c, 5, 64, 92
10, 391260, Control_c, 5, 11, 51
10, 391319, Note_on_c, 5, 64, 0
10, 391440, Control_c, 5, 11, 52
10, 391620, Control_c, 5, 11, 53
10, 391800, Control_c, 5, 11, 54
10, 391980, Control_c, 5, 11, 55
10, 392160, Control_c, 5, 11, 56
10, 392340, Control_c, 5, 11, 57
10, 392520, Note_on_c, 5, 64, 88
10, 392520, Control_c, 5, 11, 58
10, 392700, Control_c, 5, 11, 59
10, 392759, Note_on_c, 5, 64, 0
10, 392880, Control_c, 5, 11, 60
10, 393060, Control_c, 5, 11, 61
10, 393240, Control_c, 5, 11, 62
10, 393420, Control_c, 5, 11, 63
10, 393599, Note_on_c, 5, 40, 0
10, 393600, Note_on_c, 5, 40, 84
10, 393600, Control_c, 5, 11, 64
10, 393780, Control_c, 5, 11, 65
10, 393960, Control_c, 5, 11, 66
10, 393960, Note_on_c, 5, 64, 84
10, 394140, Control_c, 5, 11, 67
10, 394199, Note_on_c, 5, 64, 0
10, 394320, Control_c, 5, 11, 68
10, 394500, Control_c, 5, 11, 69
10, 394680, Control_c, 5, 11, 70
10, 394860, Control_c, 5, 11, 71
10, 395040, Control_c, 5, 11, 72
10, 395220, Control_c, 5, 11, 73
10, 395400, Note_on_c, 5, 64, 84
10, 395400, Control_c, 5, 11, 74
10, 395580, Control_c, 5, 11, 75
10, 395639, Note_on_c, 5, 64, 0
10, 395760, Control_c, 5, 11, 76
10, 395940, Control_c, 5, 11, 77
10, 396120, Control_c, 5, 11, 78
10, 396300, Control_c, 5, 11, 79
10, 396479, Note_on_c, 5, 40, 0
10, 396480, Note_on_c, 5, 40, 84
10, 396480, Control_c, 5, 11, 80
10, 396660, Control_c, 5, 11, 81
10, 396840, Control_c, 5, 11, 82
10, 396840, Note_on_c, 5, 64, 84
10, 397020, Control_c, 5, 11, 83
10, 397079, Note_on_c, 5, 64, 0
10, 397200, Control_c, 5, 11, 84
10, 397380, Control_c, 5, 11, 85
10, 397560, Control_c, 5, 11, 86
10, 397740, Control_c, 5, 11, 87
10, 397920, Control_c, 5, 11, 88
10, 398100, Control_c, 5, 11, 89
10, 398280, Note_on_c, 5, 64, 84
10, 398280, Control_c, 5, 11, 90
10, 398460, Control_c, 5, 11, 91
10, 398519, Note_on_c, 5, 64, 0
10, 398640, Control_c, 5, 11, 92
10, 398820, Control_c, 5, 11, 93
10, 399000, Control_c, 5, 11, 94
10, 399180, Control_c, 5, 11, 95
10, 399359, Note_on_c, 5, 40, 0
10, 399360, Control_c, 5, 11, 96
10, 399360, Note_on_c, 5, 40, 84
10, 399406, Control_c, 5, 11, 97
10, 399453, Control_c, 5, 11, 98
10, 399480, Note_on_c, 5, 64, 84
10, 399499, Control_c, 5, 11, 99
10, 399546, Control_c, 5, 11, 100
10, 399584, Note_on_c, 5, 64, 0
10, 399592, Control_c, 5, 11, 101
10, 399600, Note_on_c, 5, 64, 84
10, 399639, Control_c, 5, 11, 102
10, 399685, Control_c, 5, 11, 103
10, 399704, Note_on_c, 5, 64, 0
10, 399720, Note_on_c, 5, 64, 84
10, 399732, Control_c, 5, 11, 104
10, 399778, Control_c, 5, 11, 105
10, 399824, Note_on_c, 5, 64, 0
10, 399825, Control_c, 5, 11, 106
10, 399840, Note_on_c, 5, 64, 84
10, 399871, Control_c, 5, 11, 107
10, 399917, Control_c, 5, 11, 108
10, 399944, Note_on_c, 5, 64, 0
10, 399960, Note_on_c, 5, 64, 84
10, 399964, Control_c, 5, 11, 109
10, 400010, Control_c, 5, 11, 110
10, 400057, Control_c, 5, 11, 111
10, 400064, Note_on_c, 5, 64, 0
10, 400080, Note_on_c, 5, 64, 84
10, 400103, Control_c, 5, 11, 112
10, 400150, Control_c, 5, 11, 113
10, 400184, Note_on_c, 5, 64, 0
10, 400196, Control_c, 5, 11, 114
10, 400200, Note_on_c, 5, 64, 84
10, 400243, Control_c, 5, 11, 115
10, 400289, Control_c, 5, 11, 116
10, 400304, Note_on_c, 5, 64, 0
10, 400320, Note_on_c, 5, 64, 84
10, 400335, Control_c, 5, 11, 117
10, 400382, Control_c, 5, 11, 118
10, 400424, Note_on_c, 5, 64, 0
10, 400428, Control_c, 5, 11, 119
10, 400440, Note_on_c, 5, 64, 84
10, 400475, Control_c, 5, 11, 120
10, 400521, Control_c, 5, 11, 121
10, 400544, Note_on_c, 5, 64, 0
10, 400560, Note_on_c, 5, 64, 84
10, 400568, Control_c, 5, 11, 122
10, 400614, Control_c, 5, 11, 123
10, 400661, Control_c, 5, 11, 124
10, 400664, Note_on_c, 5, 64, 0
10, 400680, Note_on_c, 5, 64, 84
10, 400707, Control_c, 5, 11, 125
10, 400754, Control_c, 5, 11, 127
10, 400784, Note_on_c, 5, 40, 0
10, 400784, Note_on_c, 5, 64, 0
10, 400800, Note_on_c, 5, 57, 84
10, 400800, Note_on_c, 5, 64, 84
10, 400971, Note_on_c, 5, 57, 0
10, 400971, Note_on_c, 5, 64, 0
10, 400980, Note_on_c, 5, 64, 84
10, 400980, Note_on_c, 5, 57, 84
10, 401031, Note_on_c, 5, 64, 0
10, 401031, Note_on_c, 5, 57, 0
10, 401040, Note_on_c, 5, 64, 84
10, 401040, Note_on_c, 5, 57, 84
10, 401144, Note_on_c, 5, 64, 0
10, 401144, Note_on_c, 5, 57, 0
10, 401160, Note_on_c, 5, 57, 84
10, 401160, Note_on_c, 5, 64, 84
10, 401331, Note_on_c, 5, 57, 0
10, 401331, Note_on_c, 5, 64, 0
10, 401340, Note_on_c, 5, 64, 84
10, 401340, Note_on_c, 5, 57, 84
10, 401391, Note_on_c, 5, 64, 0
10, 401391, Note_on_c, 5, 57, 0
10, 401400, Note_on_c, 5, 57, 84
10, 401400, Note_on_c, 5, 64, 84
10, 401504, Note_on_c, 5, 57, 0
10, 401504, Note_on_c, 5, 64, 0
10, 401520, Note_on_c, 5, 64, 84
10, 401520, Note_on_c, 5, 57, 84
10, 401691, Note_on_c, 5, 64, 0
10, 401691, Note_on_c, 5, 57, 0
10, 401700, Note_on_c, 5, 57, 84
10, 401700, Note_on_c, 5, 64, 84
10, 401751, Note_on_c, 5, 57, 0
10, 401751, Note_on_c, 5, 64, 0
10, 401760, Note_on_c, 5, 57, 84
10, 401760, Note_on_c, 5, 64, 84
10, 401864, Note_on_c, 5, 57, 0
10, 401864, Note_on_c, 5, 64, 0
10, 401880, Note_on_c, 5, 57, 84
10, 401880, Note_on_c, 5, 64, 84
10, 402051, Note_on_c, 5, 57, 0
10, 402051, Note_on_c, 5, 64, 0
10, 402060, Note_on_c, 5, 57, 84
10, 402060, Note_on_c, 5, 64, 84
10, 402111, Note_on_c, 5, 57, 0
10, 402111, Note_on_c, 5, 64, 0
10, 402120, Note_on_c, 5, 57, 84
10, 402120, Note_on_c, 5, 64, 84
10, 402224, Note_on_c, 5, 57, 0
10, 402224, Note_on_c, 5, 64, 0
10, 402240, Note_on_c, 5, 69, 84
10, 402240, Note_on_c, 5, 57, 84
10, 402411, Note_on_c, 5, 69, 0
10, 402411, Note_on_c, 5, 57, 0
10, 402420, Note_on_c, 5, 57, 84
10, 402420, Note_on_c, 5, 69, 84
10, 402471, Note_on_c, 5, 57, 0
10, 402471, Note_on_c, 5, 69, 0
10, 402480, Note_on_c, 5, 57, 84
10, 402480, Note_on_c, 5, 69, 84
10, 402584, Note_on_c, 5, 57, 0
10, 402584, Note_on_c, 5, 69, 0
10, 402600, Note_on_c, 5, 69, 84
10, 402600, Note_on_c, 5, 57, 84
10, 402771, Note_on_c, 5, 69, 0
10, 402771, Note_on_c, 5, 57, 0
10, 402780, Note_on_c, 5, 69, 84
10, 402780, Note_on_c, 5, 57, 84
10, 402831, Note_on_c, 5, 69, 0
10, 402831, Note_on_c, 5, 57, 0
10, 402840, Note_on_c, 5, 69, 84
10, 402840, Note_on_c, 5, 57, 84
10, 402944, Note_on_c, 5, 69, 0
10, 402944, Note_on_c, 5, 57, 0
10, 402960, Note_on_c, 5, 69, 84
10, 402960, Note_on_c, 5, 57, 84
10, 403131, Note_on_c, 5, 69, 0
10, 403131, Note_on_c, 5, 57, 0
10, 403140, Note_on_c, 5, 69, 84
10, 403140, Note_on_c, 5, 57, 84
10, 403191, Note_on_c, 5, 69, 0
10, 403191, Note_on_c, 5, 57, 0
10, 403200, Note_on_c, 5, 69, 84
10, 403200, Note_on_c, 5, 57, 84
10, 403304, Note_on_c, 5, 69, 0
10, 403304, Note_on_c, 5, 57, 0
10, 403320, Note_on_c, 5, 57, 84
10, 403320, Note_on_c, 5, 69, 84
10, 403491, Note_on_c, 5, 57, 0
10, 403491, Note_on_c, 5, 69, 0
10, 403500, Note_on_c, 5, 57, 84
10, 403500, Note_on_c, 5, 69, 84
10, 403551, Note_on_c, 5, 57, 0
10, 403551, Note_on_c, 5, 69, 0
10, 403560, Note_on_c, 5, 57, 84
10, 403560, Note_on_c, 5, 69, 84
10, 403664, Note_on_c, 5, 57, 0
10, 403664, Note_on_c, 5, 69, 0
10, 403680, Note_on_c, 5, 64, 84
10, 403680, Note_on_c, 5, 52, 84
10, 404384, Note_on_c, 5, 64, 0
10, 404384, Note_on_c, 5, 52, 0
10, 404400, Note_on_c, 5, 64, 84
10, 404400, Note_on_c, 5, 52, 84
10, 405104, Note_on_c, 5, 64, 0
10, 405104, Note_on_c, 5, 52, 0
10, 405120, Note_on_c, 5, 64, 84
10, 405120, Note_on_c, 5, 52, 84
10, 405824, Note_on_c, 5, 64, 0
10, 405824, Note_on_c, 5, 52, 0
10, 405840, Note_on_c, 5, 64, 84
10, 405840, Note_on_c, 5, 52, 84
10, 406184, Note_on_c, 5, 64, 0
10, 406184, Note_on_c, 5, 52, 0
10, 406200, Note_on_c, 5, 57, 84
10, 406200, Note_on_c, 5, 69, 84
10, 406544, Note_on_c, 5, 57, 0
10, 406544, Note_on_c, 5, 69, 0
10, 406560, Note_on_c, 5, 69, 84
10, 406560, Note_on_c, 5, 57, 84
10, 406904, Note_on_c, 5, 69, 0
10, 406904, Note_on_c, 5, 57, 0
10, 406920, Note_on_c, 5, 69, 84
10, 406920, Note_on_c, 5, 57, 84
10, 407264, Note_on_c, 5, 69, 0
10, 407264, Note_on_c, 5, 57, 0
10, 407280, Note_on_c, 5, 57, 84
10, 407280, Note_on_c, 5, 69, 84
10, 407399, Note_on_c, 5, 57, 0
10, 407399, Note_on_c, 5, 69, 0
10, 407460, Note_on_c, 5, 69, 84
10, 407460, Note_on_c, 5, 71, 84
10, 407511, Note_on_c, 5, 69, 0
10, 407511, Note_on_c, 5, 71, 0
10, 407520, Note_on_c, 5, 71, 84
10, 407520, Note_on_c, 5, 69, 84
10, 407624, Note_on_c, 5, 71, 0
10, 407624, Note_on_c, 5, 69, 0
10, 407640, Note_on_c, 5, 69, 84
10, 407640, Note_on_c, 5, 71, 84
10, 407879, Note_on_c, 5, 69, 0
10, 407879, Note_on_c, 5, 71, 0
10, 408180, Note_on_c, 5, 69, 84
10, 408180, Note_on_c, 5, 71, 84
10, 408231, Note_on_c, 5, 69, 0
10, 408231, Note_on_c, 5, 71, 0
10, 408240, Note_on_c, 5, 69, 84
10, 408240, Note_on_c, 5, 71, 84
10, 408344, Note_on_c, 5, 69, 0
10, 408344, Note_on_c, 5, 71, 0
10, 408360, Note_on_c, 5, 69, 84
10, 408360, Note_on_c, 5, 71, 84
10, 408599, Note_on_c, 5, 69, 0
10, 408599, Note_on_c, 5, 71, 0
10, 408900, Note_on_c, 5, 64, 84
10, 408900, Note_on_c, 5, 71, 84
10, 408951, Note_on_c, 5, 64, 0
10, 408951, Note_on_c, 5, 71, 0
10, 408960, Note_on_c, 5, 71, 84
10, 408960, Note_on_c, 5, 64, 84
10, 409064, Note_on_c, 5, 71, 0
10, 409064, Note_on_c, 5, 64, 0
10, 409080, Note_on_c, 5, 64, 84
10, 409080, Note_on_c, 5, 71, 84
10, 409319, Note_on_c, 5, 64, 0
10, 409319, Note_on_c, 5, 71, 0
10, 409620, Note_on_c, 5, 71, 84
10, 409620, Note_on_c, 5, 64, 84
10, 409671, Note_on_c, 5, 71, 0
10, 409671, Note_on_c, 5, 64, 0
10, 409680, Note_on_c, 5, 64, 84
10, 409680, Note_on_c, 5, 71, 84
10, 409784, Note_on_c, 5, 64, 0
10, 409784, Note_on_c, 5, 71, 0
10, 409800, Note_on_c, 5, 64, 84
10, 409800, Note_on_c, 5, 71, 84
10, 410039, Note_on_c, 5, 64, 0
10, 410039, Note_on_c, 5, 71, 0
10, 410340, Note_on_c, 5, 69, 84
10, 410391, Note_on_c, 5, 69, 0
10, 410400, Note_on_c, 5, 69, 84
10, 410504, Note_on_c, 5, 69, 0
10, 410520, Note_on_c, 5, 69, 84
10, 410759, Note_on_c, 5, 69, 0
10, 411060, Note_on_c, 5, 64, 84
10, 411111, Note_on_c, 5, 64, 0
10, 411120, Note_on_c, 5, 64, 84
10, 411224, Note_on_c, 5, 64, 0
10, 411240, Note_on_c, 5, 71, 84
10, 411479, Note_on_c, 5, 71, 0
10, 411600, Note_on_c, 5, 69, 84
10, 411719, Note_on_c, 5, 69, 0
10, 411780, Note_on_c, 5, 69, 84
10, 411831, Note_on_c, 5, 69, 0
10, 411840, Note_on_c, 5, 69, 84
10, 411944, Note_on_c, 5, 69, 0
10, 411960, Note_on_c, 5, 69, 84
10, 412079, Note_on_c, 5, 69, 0
10, 412140, Note_on_c, 5, 64, 84
10, 412191, Note_on_c, 5, 64, 0
10, 412200, Note_on_c, 5, 64, 84
10, 412304, Note_on_c, 5, 64, 0
10, 412320, Note_on_c, 5, 64, 84
10, 412439, Note_on_c, 5, 64, 0
10, 412500, Note_on_c, 5, 71, 84
10, 412551, Note_on_c, 5, 71, 0
10, 412560, Note_on_c, 5, 71, 84
10, 412664, Note_on_c, 5, 71, 0
10, 412680, Note_on_c, 5, 71, 84
10, 412799, Note_on_c, 5, 71, 0
10, 412860, Note_on_c, 5, 69, 84
10, 412911, Note_on_c, 5, 69, 0
10, 412920, Note_on_c, 5, 69, 84
10, 413024, Note_on_c, 5, 69, 0
10, 413040, Note_on_c, 5, 69, 84
10, 413040, Note_on_c, 5, 57, 84
10, 413159, Note_on_c, 5, 69, 0
10, 413159, Note_on_c, 5, 57, 0
10, 413220, Note_on_c, 5, 57, 84
10, 413220, Note_on_c, 5, 69, 84
10, 413271, Note_on_c, 5, 57, 0
10, 413271, Note_on_c, 5, 69, 0
10, 413280, Note_on_c, 5, 57, 84
10, 413280, Note_on_c, 5, 69, 84
10, 413384, Note_on_c, 5, 57, 0
10, 413384, Note_on_c, 5, 69, 0
10, 413400, Note_on_c, 5, 69, 84
10, 413400, Note_on_c, 5, 57, 84
10, 413519, Note_on_c, 5, 69, 0
10, 413519, Note_on_c, 5, 57, 0
10, 413580, Note_on_c, 5, 73, 84
10, 413580, Note_on_c, 5, 69, 84
10, 413631, Note_on_c, 5, 73, 0
10, 413631, Note_on_c, 5, 69, 0
10, 413640, Note_on_c, 5, 73, 84
10, 413640, Note_on_c, 5, 69, 84
10, 413744, Note_on_c, 5, 73, 0
10, 413744, Note_on_c, 5, 69, 0
10, 413760, Note_on_c, 5, 73, 84
10, 413760, Note_on_c, 5, 69, 84
10, 413879, Note_on_c, 5, 73, 0
10, 413879, Note_on_c, 5, 69, 0
10, 413940, Note_on_c, 5, 71, 84
10, 413940, Note_on_c, 5, 64, 84
10, 413991, Note_on_c, 5, 71, 0
10, 413991, Note_on_c, 5, 64, 0
10, 414000, Note_on_c, 5, 71, 84
10, 414000, Note_on_c, 5, 64, 84
10, 414104, Note_on_c, 5, 71, 0
10, 414104, Note_on_c, 5, 64, 0
10, 414120, Note_on_c, 5, 64, 84
10, 414120, Note_on_c, 5, 71, 84
10, 414239, Note_on_c, 5, 64, 0
10, 414239, Note_on_c, 5, 71, 0
10, 414300, Note_on_c, 5, 73, 84
10, 414300, Note_on_c, 5, 76, 84
10, 414351, Note_on_c, 5, 73, 0
10, 414351, Note_on_c, 5, 76, 0
10, 414360, Note_on_c, 5, 76, 84
10, 414360, Note_on_c, 5, 73, 84
10, 414464, Note_on_c, 5, 76, 0
10, 414464, Note_on_c, 5, 73, 0
10, 414480, Note_on_c, 5, 76, 84
10, 414480, Note_on_c, 5, 73, 84
10, 415011, Note_on_c, 5, 76, 0
10, 415011, Note_on_c, 5, 73, 0
10, 415020, Note_on_c, 5, 71, 84
10, 415020, Note_on_c, 5, 74, 84
10, 415064, Note_on_c, 5, 71, 0
10, 415064, Note_on_c, 5, 74, 0
10, 415080, Note_on_c, 5, 73, 84
10, 415080, Note_on_c, 5, 69, 84
10, 415169, Note_on_c, 5, 73, 0
10, 415169, Note_on_c, 5, 69, 0
10, 415200, Note_on_c, 5, 64, 84
10, 415200, Note_on_c, 5, 71, 84
10, 415319, Note_on_c, 5, 64, 0
10, 415319, Note_on_c, 5, 71, 0
10, 415380, Note_on_c, 5, 64, 84
10, 415380, Note_on_c, 5, 71, 84
10, 415431, Note_on_c, 5, 64, 0
10, 415431, Note_on_c, 5, 71, 0
10, 415440, Note_on_c, 5, 71, 84
10, 415440, Note_on_c, 5, 64, 84
10, 415544, Note_on_c, 5, 71, 0
10, 415544, Note_on_c, 5, 64, 0
10, 415560, Note_on_c, 5, 71, 84
10, 415560, Note_on_c, 5, 64, 84
10, 415679, Note_on_c, 5, 71, 0
10, 415679, Note_on_c, 5, 64, 0
10, 415740, Note_on_c, 5, 76, 84
10, 415740, Note_on_c, 5, 73, 84
10, 415791, Note_on_c, 5, 76, 0
10, 415791, Note_on_c, 5, 73, 0
10, 415800, Note_on_c, 5, 73, 84
10, 415800, Note_on_c, 5, 76, 84
10, 415904, Note_on_c, 5, 73, 0
10, 415904, Note_on_c, 5, 76, 0
10, 415920, Note_on_c, 5, 76, 84
10, 415920, Note_on_c, 5, 73, 84
10, 416451, Note_on_c, 5, 76, 0
10, 416451, Note_on_c, 5, 73, 0
10, 416460, Note_on_c, 5, 74, 84
10, 416460, Note_on_c, 5, 71, 84
10, 416504, Note_on_c, 5, 74, 0
10, 416504, Note_on_c, 5, 71, 0
10, 416520, Note_on_c, 5, 73, 84
10, 416520, Note_on_c, 5, 69, 84
10, 416609, Note_on_c, 5, 73, 0
10, 416609, Note_on_c, 5, 69, 0
10, 416640, Note_on_c, 5, 71, 84
10, 416640, Note_on_c, 5, 64, 84
10, 416759, Note_on_c, 5, 71, 0
10, 416759, Note_on_c, 5, 64, 0
10, 416820, Note_on_c, 5, 64, 84
10, 416820, Note_on_c, 5, 71, 84
10, 416871, Note_on_c, 5, 64, 0
10, 416871, Note_on_c, 5, 71, 0
10, 416880, Note_on_c, 5, 71, 84
10, 416880, Note_on_c, 5, 64, 84
10, 416984, Note_on_c, 5, 71, 0
10, 416984, Note_on_c, 5, 64, 0
10, 417000, Note_on_c, 5, 71, 84
10, 417000, Note_on_c, 5, 64, 84
10, 417119, Note_on_c, 5, 71, 0
10, 417119, Note_on_c, 5, 64, 0
10, 417180, Note_on_c, 5, 73, 84
10, 417180, Note_on_c, 5, 76, 84
10, 417231, Note_on_c, 5, 73, 0
10, 417231, Note_on_c, 5, 76, 0
10, 417240, Note_on_c, 5, 73, 84
10, 417240, Note_on_c, 5, 76, 84
10, 417344, Note_on_c, 5, 73, 0
10, 417344, Note_on_c, 5, 76, 0
10, 417360, Note_on_c, 5, 76, 84
10, 417360, Note_on_c, 5, 73, 84
10, 417479, Note_on_c, 5, 76, 0
10, 417479, Note_on_c, 5, 73, 0
10, 417540, Note_on_c, 5, 69, 84
10, 417540, Note_on_c, 5, 73, 84
10, 417591, Note_on_c, 5, 69, 0
10, 417591, Note_on_c, 5, 73, 0
10, 417600, Note_on_c, 5, 73, 84
10, 417600, Note_on_c, 5, 69, 84
10, 417704, Note_on_c, 5, 73, 0
10, 417704, Note_on_c, 5, 69, 0
10, 417720, Note_on_c, 5, 69, 84
10, 417720, Note_on_c, 5, 73, 84
10, 417839, Note_on_c, 5, 69, 0
10, 417839, Note_on_c, 5, 73, 0
10, 417900, Note_on_c, 5, 69, 84
10, 417900, Note_on_c, 5, 64, 84
10, 417951, Note_on_c, 5, 69, 0
10, 417951, Note_on_c, 5, 64, 0
10, 417960, Note_on_c, 5, 69, 84
10, 417960, Note_on_c, 5, 64, 84
10, 418064, Note_on_c, 5, 69, 0
10, 418064, Note_on_c, 5, 64, 0
10, 418080, Note_on_c, 5, 64, 84
10, 418080, Note_on_c, 5, 69, 84
10, 418199, Note_on_c, 5, 64, 0
10, 418199, Note_on_c, 5, 69, 0
10, 418260, Note_on_c, 5, 61, 84
10, 418260, Note_on_c, 5, 64, 84
10, 418311, Note_on_c, 5, 61, 0
10, 418311, Note_on_c, 5, 64, 0
10, 418320, Note_on_c, 5, 64, 84
10, 418320, Note_on_c, 5, 61, 84
10, 418424, Note_on_c, 5, 64, 0
10, 418424, Note_on_c, 5, 61, 0
10, 418440, Note_on_c, 5, 64, 84
10, 418440, Note_on_c, 5, 61, 84
10, 418559, Note_on_c, 5, 64, 0
10, 418559, Note_on_c, 5, 61, 0
10, 418620, Note_on_c, 5, 61, 84
10, 418620, Note_on_c, 5, 57, 84
10, 418671, Note_on_c, 5, 61, 0
10, 418671, Note_on_c, 5, 57, 0
10, 418680, Note_on_c, 5, 57, 84
10, 418680, Note_on_c, 5, 61, 84
10, 418784, Note_on_c, 5, 57, 0
10, 418784, Note_on_c, 5, 61, 0
10, 418800, Note_on_c, 5, 57, 84
10, 418800, Note_on_c, 5, 61, 84
10, 419039, Note_on_c, 5, 57, 0
10, 419039, Note_on_c, 5, 61, 0
10, 419520, Note_on_c, 5, 64, 84
10, 419520, Note_on_c, 5, 76, 84
10, 419759, Note_on_c, 5, 64, 0
10, 419759, Note_on_c, 5, 76, 0
10, 420240, Note_on_c, 5, 69, 84
10, 420240, Note_on_c, 5, 73, 84
10, 420479, Note_on_c, 5, 69, 0
10, 420479, Note_on_c, 5, 73, 0
10, 420479, End_track
11, 0, Start_track
11, 0, Title_t, "Trumpet in D"
11, 0, MIDI_port, 0
11, 0, Program_c, 6, 56
11, 0, Control_c, 6, 7, 112
11, 0, Control_c, 6, 10, 60
11, 0, Control_c, 6, 11, 127
11, 0, Note_on_c, 6, 81, 76
11, 0, Note_on_c, 6, 69, 76
11, 179, Note_on_c, 6, 81, 0
11, 179, Note_on_c, 6, 69, 0
11, 1920, Note_on_c, 6, 76, 76
11, 2099, Note_on_c, 6, 76, 0
11, 3840, Note_on_c, 6, 81, 76
11, 3840, Note_on_c, 6, 69, 76
11, 4019, Note_on_c, 6, 81, 0
11, 4019, Note_on_c, 6, 69, 0
11, 5760, Note_on_c, 6, 69, 76
11, 5760, Note_on_c, 6, 81, 76
11, 5939, Note_on_c, 6, 69, 0
11, 5939, Note_on_c, 6, 81, 0
11, 13440, Note_on_c, 6, 69, 84
11, 13440, Note_on_c, 6, 81, 84
11, 14639, Note_on_c, 6, 69, 0
11, 14639, Note_on_c, 6, 81, 0
11, 15360, Note_on_c, 6, 76, 84
11, 16559, Note_on_c, 6, 76, 0
11, 17280, Note_on_c, 6, 74, 84
11, 17280, Note_on_c, 6, 62, 84
11, 18229, Note_on_c, 6, 74, 0
11, 18229, Note_on_c, 6, 62, 0
11, 18240, Note_on_c, 6, 69, 84
11, 18240, Note_on_c, 6, 57, 84
11, 18479, Note_on_c, 6, 69, 0
11, 18479, Note_on_c, 6, 57, 0
11, 19200, Note_on_c, 6, 79, 84
11, 20159, Note_on_c, 6, 79, 0
11, 20160, Note_on_c, 6, 79, 52
11, 20399, Note_on_c, 6, 79, 0
11, 31680, Note_on_c, 6, 76, 84
11, 32149, Note_on_c, 6, 76, 0
11, 32160, Note_on_c, 6, 76, 92
11, 32220, Control_c, 6, 11, 112
11, 32629, Note_on_c, 6, 76, 0
11, 32638, Control_c, 6, 11, 127
11, 32640, Note_on_c, 6, 76, 92
11, 32700, Control_c, 6, 11, 112
11, 33109, Note_on_c, 6, 76, 0
11, 33118, Control_c, 6, 11, 127
11, 33120, Note_on_c, 6, 76, 92
11, 33180, Control_c, 6, 11, 112
11, 33589, Note_on_c, 6, 76, 0
11, 33598, Control_c, 6, 11, 127
11, 33600, Note_on_c, 6, 76, 92
11, 33660, Control_c, 6, 11, 112
11, 34069, Note_on_c, 6, 76, 0
11, 34078, Control_c, 6, 11, 127
11, 34080, Note_on_c, 6, 64, 92
11, 34080, Note_on_c, 6, 76, 92
11, 34140, Control_c, 6, 11, 112
11, 34549, Note_on_c, 6, 64, 0
11, 34549, Note_on_c, 6, 76, 0
11, 34558, Control_c, 6, 11, 127
11, 34560, Note_on_c, 6, 64, 92
11, 34560, Note_on_c, 6, 76, 92
11, 34620, Control_c, 6, 11, 112
11, 35029, Note_on_c, 6, 64, 0
11, 35029, Note_on_c, 6, 76, 0
11, 35038, Control_c, 6, 11, 127
11, 35040, Note_on_c, 6, 76, 92
11, 35040, Note_on_c, 6, 64, 92
11, 35100, Control_c, 6, 11, 112
11, 35509, Note_on_c, 6, 76, 0
11, 35509, Note_on_c, 6, 64, 0
11, 35518, Control_c, 6, 11, 127
11, 35520, Note_on_c, 6, 76, 92
11, 35580, Control_c, 6, 11, 112
11, 35989, Note_on_c, 6, 76, 0
11, 35998, Control_c, 6, 11, 127
11, 36000, Note_on_c, 6, 76, 92
11, 36000, Note_on_c, 6, 79, 92
11, 36060, Control_c, 6, 11, 112
11, 36469, Note_on_c, 6, 76, 0
11, 36469, Note_on_c, 6, 79, 0
11, 36480, Note_on_c, 6, 76, 92
11, 36480, Note_on_c, 6, 79, 92
11, 36540, Control_c, 6, 11, 112
11, 36949, Note_on_c, 6, 76, 0
11, 36949, Note_on_c, 6, 79, 0
11, 36958, Control_c, 6, 11, 127
11, 36960, Note_on_c, 6, 76, 92
11, 36960, Note_on_c, 6, 79, 92
11, 37020, Control_c, 6, 11, 112
11, 37429, Note_on_c, 6, 76, 0
11, 37429, Note_on_c, 6, 79, 0
11, 37438, Control_c, 6, 11, 127
11, 37440, Note_on_c, 6, 76, 92
11, 37500, Control_c, 6, 11, 112
11, 37909, Note_on_c, 6, 76, 0
11, 37918, Control_c, 6, 11, 127
11, 37920, Note_on_c, 6, 79, 92
11, 37920, Note_on_c, 6, 76, 92
11, 37980, Control_c, 6, 11, 112
11, 38389, Note_on_c, 6, 79, 0
11, 38389, Note_on_c, 6, 76, 0
11, 38398, Control_c, 6, 11, 127
11, 38400, Control_c, 6, 11, 127
11, 38400, Note_on_c, 6, 76, 84
11, 38440, Control_c, 6, 11, 124
11, 38480, Control_c, 6, 11, 122
11, 38520, Control_c, 6, 11, 119
11, 38560, Control_c, 6, 11, 117
11, 38600, Control_c, 6, 11, 114
11, 38640, Control_c, 6, 11, 111
11, 38680, Control_c, 6, 11, 109
11, 38720, Control_c, 6, 11, 106
11, 38760, Control_c, 6, 11, 103
11, 38800, Control_c, 6, 11, 101
11, 38840, Control_c, 6, 11, 98
11, 38869, Note_on_c, 6, 76, 0
11, 38880, Note_on_c, 6, 76, 84
11, 38880, Control_c, 6, 11, 96
11, 38920, Control_c, 6, 11, 93
11, 38960, Control_c, 6, 11, 90
11, 39000, Control_c, 6, 11, 88
11, 39040, Control_c, 6, 11, 85
11, 39080, Control_c, 6, 11, 82
11, 39120, Control_c, 6, 11, 80
11, 39160, Control_c, 6, 11, 77
11, 39200, Control_c, 6, 11, 75
11, 39240, Control_c, 6, 11, 72
11, 39280, Control_c, 6, 11, 69
11, 39320, Control_c, 6, 11, 67
11, 39349, Note_on_c, 6, 76, 0
11, 39358, Control_c, 6, 11, 64
11, 49440, Control_c, 6, 11, 127
11, 49920, Note_on_c, 6, 76, 84
11, 50039, Note_on_c, 6, 76, 0
11, 51840, Note_on_c, 6, 76, 84
11, 51959, Note_on_c, 6, 76, 0
11, 78240, Note_on_c, 6, 69, 84
11, 78240, Note_on_c, 6, 57, 84
11, 78411, Note_on_c, 6, 69, 0
11, 78411, Note_on_c, 6, 57, 0
11, 78420, Note_on_c, 6, 57, 84
11, 78420, Note_on_c, 6, 69, 84
11, 78471, Note_on_c, 6, 57, 0
11, 78471, Note_on_c, 6, 69, 0
11, 78480, Note_on_c, 6, 57, 84
11, 78480, Note_on_c, 6, 69, 84
11, 78584, Note_on_c, 6, 57, 0
11, 78584, Note_on_c, 6, 69, 0
11, 78600, Note_on_c, 6, 57, 84
11, 78600, Note_on_c, 6, 69, 84
11, 78771, Note_on_c, 6, 57, 0
11, 78771, Note_on_c, 6, 69, 0
11, 78780, Note_on_c, 6, 69, 84
11, 78780, Note_on_c, 6, 57, 84
11, 78831, Note_on_c, 6, 69, 0
11, 78831, Note_on_c, 6, 57, 0
11, 78840, Note_on_c, 6, 69, 84
11, 78840, Note_on_c, 6, 57, 84
11, 78944, Note_on_c, 6, 69, 0
11, 78944, Note_on_c, 6, 57, 0
11, 78960, Note_on_c, 6, 69, 84
11, 78960, Note_on_c, 6, 57, 84
11, 79131, Note_on_c, 6, 69, 0
11, 79131, Note_on_c, 6, 57, 0
11, 79140, Note_on_c, 6, 69, 84
11, 79140, Note_on_c, 6, 57, 84
11, 79191, Note_on_c, 6, 69, 0
11, 79191, Note_on_c, 6, 57, 0
11, 79200, Note_on_c, 6, 57, 84
11, 79200, Note_on_c, 6, 69, 84
11, 79304, Note_on_c, 6, 57, 0
11, 79304, Note_on_c, 6, 69, 0
11, 79320, Note_on_c, 6, 57, 84
11, 79320, Note_on_c, 6, 69, 84
11, 79491, Note_on_c, 6, 57, 0
11, 79491, Note_on_c, 6, 69, 0
11, 79500, Note_on_c, 6, 69, 84
11, 79500, Note_on_c, 6, 57, 84
11, 79551, Note_on_c, 6, 69, 0
11, 79551, Note_on_c, 6, 57, 0
11, 79560, Note_on_c, 6, 57, 84
11, 79560, Note_on_c, 6, 69, 84
11, 79664, Note_on_c, 6, 57, 0
11, 79664, Note_on_c, 6, 69, 0
11, 79680, Note_on_c, 6, 57, 84
11, 79680, Note_on_c, 6, 69, 84
11, 79851, Note_on_c, 6, 57, 0
11, 79851, Note_on_c, 6, 69, 0
11, 79860, Note_on_c, 6, 57, 84
11, 79860, Note_on_c, 6, 69, 84
11, 79911, Note_on_c, 6, 57, 0
11, 79911, Note_on_c, 6, 69, 0
11, 79920, Note_on_c, 6, 57, 84
11, 79920, Note_on_c, 6, 69, 84
11, 80024, Note_on_c, 6, 57, 0
11, 80024, Note_on_c, 6, 69, 0
11, 80040, Note_on_c, 6, 69, 84
11, 80040, Note_on_c, 6, 57, 84
11, 80211, Note_on_c, 6, 69, 0
11, 80211, Note_on_c, 6, 57, 0
11, 80220, Note_on_c, 6, 69, 84
11, 80220, Note_on_c, 6, 57, 84
11, 80271, Note_on_c, 6, 69, 0
11, 80271, Note_on_c, 6, 57, 0
11, 80280, Note_on_c, 6, 69, 84
11, 80280, Note_on_c, 6, 57, 84
11, 80384, Note_on_c, 6, 69, 0
11, 80384, Note_on_c, 6, 57, 0
11, 80400, Note_on_c, 6, 69, 84
11, 80400, Note_on_c, 6, 57, 84
11, 80571, Note_on_c, 6, 69, 0
11, 80571, Note_on_c, 6, 57, 0
11, 80580, Note_on_c, 6, 57, 84
11, 80580, Note_on_c, 6, 69, 84
11, 80631, Note_on_c, 6, 57, 0
11, 80631, Note_on_c, 6, 69, 0
11, 80640, Note_on_c, 6, 57, 84
11, 80640, Note_on_c, 6, 69, 84
11, 80744, Note_on_c, 6, 57, 0
11, 80744, Note_on_c, 6, 69, 0
11, 80760, Note_on_c, 6, 69, 84
11, 80760, Note_on_c, 6, 57, 84
11, 80931, Note_on_c, 6, 69, 0
11, 80931, Note_on_c, 6, 57, 0
11, 80940, Note_on_c, 6, 69, 84
11, 80940, Note_on_c, 6, 57, 84
11, 80991, Note_on_c, 6, 69, 0
11, 80991, Note_on_c, 6, 57, 0
11, 81000, Note_on_c, 6, 69, 84
11, 81000, Note_on_c, 6, 57, 84
11, 81104, Note_on_c, 6, 69, 0
11, 81104, Note_on_c, 6, 57, 0
11, 81120, Note_on_c, 6, 57, 84
11, 81120, Note_on_c, 6, 69, 84
11, 81291, Note_on_c, 6, 57, 0
11, 81291, Note_on_c, 6, 69, 0
11, 81300, Note_on_c, 6, 69, 84
11, 81300, Note_on_c, 6, 57, 84
11, 81351, Note_on_c, 6, 69, 0
11, 81351, Note_on_c, 6, 57, 0
11, 81360, Note_on_c, 6, 69, 84
11, 81360, Note_on_c, 6, 57, 84
11, 81464, Note_on_c, 6, 69, 0
11, 81464, Note_on_c, 6, 57, 0
11, 81480, Note_on_c, 6, 57, 84
11, 81480, Note_on_c, 6, 69, 84
11, 81651, Note_on_c, 6, 57, 0
11, 81651, Note_on_c, 6, 69, 0
11, 81660, Note_on_c, 6, 57, 84
11, 81660, Note_on_c, 6, 69, 84
11, 81711, Note_on_c, 6, 57, 0
11, 81711, Note_on_c, 6, 69, 0
11, 81720, Note_on_c, 6, 57, 84
11, 81720, Note_on_c, 6, 69, 84
11, 81824, Note_on_c, 6, 57, 0
11, 81824, Note_on_c, 6, 69, 0
11, 81840, Note_on_c, 6, 69, 84
11, 81840, Note_on_c, 6, 57, 84
11, 82011, Note_on_c, 6, 69, 0
11, 82011, Note_on_c, 6, 57, 0
11, 82020, Note_on_c, 6, 69, 84
11, 82020, Note_on_c, 6, 57, 84
11, 82071, Note_on_c, 6, 69, 0
11, 82071, Note_on_c, 6, 57, 0
11, 82080, Note_on_c, 6, 69, 84
11, 82080, Note_on_c, 6, 57, 84
11, 82184, Note_on_c, 6, 69, 0
11, 82184, Note_on_c, 6, 57, 0
11, 82200, Note_on_c, 6, 69, 84
11, 82200, Note_on_c, 6, 57, 84
11, 82371, Note_on_c, 6, 69, 0
11, 82371, Note_on_c, 6, 57, 0
11, 82380, Note_on_c, 6, 57, 84
11, 82380, Note_on_c, 6, 69, 84
11, 82431, Note_on_c, 6, 57, 0
11, 82431, Note_on_c, 6, 69, 0
11, 82440, Note_on_c, 6, 69, 84
11, 82440, Note_on_c, 6, 57, 84
11, 82544, Note_on_c, 6, 69, 0
11, 82544, Note_on_c, 6, 57, 0
11, 82560, Note_on_c, 6, 57, 84
11, 82560, Note_on_c, 6, 69, 84
11, 82731, Note_on_c, 6, 57, 0
11, 82731, Note_on_c, 6, 69, 0
11, 82740, Note_on_c, 6, 57, 84
11, 82740, Note_on_c, 6, 69, 84
11, 82791, Note_on_c, 6, 57, 0
11, 82791, Note_on_c, 6, 69, 0
11, 82800, Note_on_c, 6, 57, 84
11, 82800, Note_on_c, 6, 69, 84
11, 82904, Note_on_c, 6, 57, 0
11, 82904, Note_on_c, 6, 69, 0
11, 82920, Note_on_c, 6, 76, 84
11, 83091, Note_on_c, 6, 76, 0
11, 83100, Note_on_c, 6, 76, 84
11, 83151, Note_on_c, 6, 76, 0
11, 83160, Note_on_c, 6, 76, 84
11, 83264, Note_on_c, 6, 76, 0
11, 83280, Note_on_c, 6, 69, 84
11, 83280, Note_on_c, 6, 57, 84
11, 83451, Note_on_c, 6, 69, 0
11, 83451, Note_on_c, 6, 57, 0
11, 83460, Note_on_c, 6, 57, 84
11, 83460, Note_on_c, 6, 69, 84
11, 83511, Note_on_c, 6, 57, 0
11, 83511, Note_on_c, 6, 69, 0
11, 83520, Note_on_c, 6, 57, 84
11, 83520, Note_on_c, 6, 69, 84
11, 83624, Note_on_c, 6, 57, 0
11, 83624, Note_on_c, 6, 69, 0
11, 83640, Note_on_c, 6, 69, 84
11, 83640, Note_on_c, 6, 57, 84
11, 83811, Note_on_c, 6, 69, 0
11, 83811, Note_on_c, 6, 57, 0
11, 83820, Note_on_c, 6, 69, 84
11, 83820, Note_on_c, 6, 57, 84
11, 83871, Note_on_c, 6, 69, 0
11, 83871, Note_on_c, 6, 57, 0
11, 83880, Note_on_c, 6, 69, 84
11, 83880, Note_on_c, 6, 57, 84
11, 83984, Note_on_c, 6, 69, 0
11, 83984, Note_on_c, 6, 57, 0
11, 84000, Note_on_c, 6, 69, 84
11, 84000, Note_on_c, 6, 57, 84
11, 84239, Note_on_c, 6, 69, 0
11, 84239, Note_on_c, 6, 57, 0
11, 84720, Note_on_c, 6, 69, 84
11, 84720, Note_on_c, 6, 57, 84
11, 84891, Note_on_c, 6, 69, 0
11, 84891, Note_on_c, 6, 57, 0
11, 84900, Note_on_c, 6, 69, 84
11, 84900, Note_on_c, 6, 57, 84
11, 84951, Note_on_c, 6, 69, 0
11, 84951, Note_on_c, 6, 57, 0
11, 84960, Note_on_c, 6, 69, 84
11, 84960, Note_on_c, 6, 57, 84
11, 85064, Note_on_c, 6, 69, 0
11, 85064, Note_on_c, 6, 57, 0
11, 85080, Note_on_c, 6, 57, 84
11, 85080, Note_on_c, 6, 69, 84
11, 85251, Note_on_c, 6, 57, 0
11, 85251, Note_on_c, 6, 69, 0
11, 85260, Note_on_c, 6, 57, 84
11, 85260, Note_on_c, 6, 69, 84
11, 85311, Note_on_c, 6, 57, 0
11, 85311, Note_on_c, 6, 69, 0
11, 85320, Note_on_c, 6, 57, 84
11, 85320, Note_on_c, 6, 69, 84
11, 85424, Note_on_c, 6, 57, 0
11, 85424, Note_on_c, 6, 69, 0
11, 85440, Note_on_c, 6, 57, 84
11, 85440, Note_on_c, 6, 69, 84
11, 85679, Note_on_c, 6, 57, 0
11, 85679, Note_on_c, 6, 69, 0
11, 86160, Note_on_c, 6, 69, 84
11, 86160, Note_on_c, 6, 57, 84
11, 86331, Note_on_c, 6, 69, 0
11, 86331, Note_on_c, 6, 57, 0
11, 86340, Note_on_c, 6, 57, 84
11, 86340, Note_on_c, 6, 69, 84
11, 86391, Note_on_c, 6, 57, 0
11, 86391, Note_on_c, 6, 69, 0
11, 86400, Note_on_c, 6, 57, 84
11, 86400, Note_on_c, 6, 69, 84
11, 86504, Note_on_c, 6, 57, 0
11, 86504, Note_on_c, 6, 69, 0
11, 86520, Note_on_c, 6, 57, 84
11, 86520, Note_on_c, 6, 69, 84
11, 86759, Note_on_c, 6, 57, 0
11, 86759, Note_on_c, 6, 69, 0
11, 87180, Note_on_c, 6, 57, 52
11, 87180, Note_on_c, 6, 69, 52
11, 87231, Note_on_c, 6, 57, 0
11, 87231, Note_on_c, 6, 69, 0
11, 87240, Note_on_c, 6, 57, 52
11, 87240, Note_on_c, 6, 69, 52
11, 87479, Note_on_c, 6, 57, 0
11, 87479, Note_on_c, 6, 69, 0
11, 87900, Note_on_c, 6, 69, 56
11, 87900, Note_on_c, 6, 57, 56
11, 87951, Note_on_c, 6, 69, 0
11, 87951, Note_on_c, 6, 57, 0
11, 87960, Note_on_c, 6, 69, 56
11, 87960, Note_on_c, 6, 57, 56
11, 88199, Note_on_c, 6, 69, 0
11, 88199, Note_on_c, 6, 57, 0
11, 88620, Note_on_c, 6, 57, 60
11, 88620, Note_on_c, 6, 69, 60
11, 88671, Note_on_c, 6, 57, 0
11, 88671, Note_on_c, 6, 69, 0
11, 88680, Note_on_c, 6, 57, 61
11, 88680, Note_on_c, 6, 69, 61
11, 88919, Note_on_c, 6, 57, 0
11, 88919, Note_on_c, 6, 69, 0
11, 89340, Note_on_c, 6, 57, 64
11, 89340, Note_on_c, 6, 69, 64
11, 89391, Note_on_c, 6, 57, 0
11, 89391, Note_on_c, 6, 69, 0
11, 89400, Note_on_c, 6, 57, 65
11, 89400, Note_on_c, 6, 69, 65
11, 89639, Note_on_c, 6, 57, 0
11, 89639, Note_on_c, 6, 69, 0
11, 90060, Note_on_c, 6, 57, 69
11, 90060, Note_on_c, 6, 69, 69
11, 90111, Note_on_c, 6, 57, 0
11, 90111, Note_on_c, 6, 69, 0
11, 90120, Note_on_c, 6, 57, 69
11, 90120, Note_on_c, 6, 69, 69
11, 90359, Note_on_c, 6, 57, 0
11, 90359, Note_on_c, 6, 69, 0
11, 90420, Note_on_c, 6, 69, 71
11, 90420, Note_on_c, 6, 57, 71
11, 90471, Note_on_c, 6, 69, 0
11, 90471, Note_on_c, 6, 57, 0
11, 90480, Note_on_c, 6, 57, 71
11, 90480, Note_on_c, 6, 69, 71
11, 90719, Note_on_c, 6, 57, 0
11, 90719, Note_on_c, 6, 69, 0
11, 90780, Note_on_c, 6, 57, 73
11, 90780, Note_on_c, 6, 69, 73
11, 90831, Note_on_c, 6, 57, 0
11, 90831, Note_on_c, 6, 69, 0
11, 90840, Note_on_c, 6, 69, 73
11, 90840, Note_on_c, 6, 57, 73
11, 91079, Note_on_c, 6, 69, 0
11, 91079, Note_on_c, 6, 57, 0
11, 91140, Note_on_c, 6, 69, 75
11, 91140, Note_on_c, 6, 57, 75
11, 91191, Note_on_c, 6, 69, 0
11, 91191, Note_on_c, 6, 57, 0
11, 91200, Note_on_c, 6, 57, 75
11, 91200, Note_on_c, 6, 69, 75
11, 91439, Note_on_c, 6, 57, 0
11, 91439, Note_on_c, 6, 69, 0
11, 91500, Note_on_c, 6, 69, 77
11, 91500, Note_on_c, 6, 57, 77
11, 91551, Note_on_c, 6, 69, 0
11, 91551, Note_on_c, 6, 57, 0
11, 91560, Note_on_c, 6, 57, 77
11, 91560, Note_on_c, 6, 69, 77
11, 91799, Note_on_c, 6, 57, 0
11, 91799, Note_on_c, 6, 69, 0
11, 91860, Note_on_c, 6, 69, 79
11, 91860, Note_on_c, 6, 57, 79
11, 91911, Note_on_c, 6, 69, 0
11, 91911, Note_on_c, 6, 57, 0
11, 91920, Note_on_c, 6, 69, 79
11, 91920, Note_on_c, 6, 57, 79
11, 92159, Note_on_c, 6, 69, 0
11, 92159, Note_on_c, 6, 57, 0
11, 92220, Note_on_c, 6, 69, 81
11, 92220, Note_on_c, 6, 57, 81
11, 92271, Note_on_c, 6, 69, 0
11, 92271, Note_on_c, 6, 57, 0
11, 92280, Note_on_c, 6, 57, 81
11, 92280, Note_on_c, 6, 69, 81
11, 92519, Note_on_c, 6, 57, 0
11, 92519, Note_on_c, 6, 69, 0
11, 92580, Note_on_c, 6, 57, 83
11, 92580, Note_on_c, 6, 69, 83
11, 92631, Note_on_c, 6, 57, 0
11, 92631, Note_on_c, 6, 69, 0
11, 92640, Note_on_c, 6, 76, 84
11, 93344, Note_on_c, 6, 76, 0
11, 93360, Note_on_c, 6, 57, 84
11, 93360, Note_on_c, 6, 69, 84
11, 93599, Note_on_c, 6, 57, 0
11, 93599, Note_on_c, 6, 69, 0
11, 93720, Note_on_c, 6, 69, 84
11, 93720, Note_on_c, 6, 57, 84
11, 93839, Note_on_c, 6, 69, 0
11, 93839, Note_on_c, 6, 57, 0
11, 102000, Note_on_c, 6, 66, 76
11, 102000, Note_on_c, 6, 78, 76
11, 102224, Note_on_c, 6, 66, 0
11, 102224, Note_on_c, 6, 78, 0
11, 102240, Note_on_c, 6, 66, 76
11, 102240, Note_on_c, 6, 78, 76
11, 102344, Note_on_c, 6, 66, 0
11, 102344, Note_on_c, 6, 78, 0
11, 102360, Note_on_c, 6, 78, 76
11, 102360, Note_on_c, 6, 66, 76
11, 102584, Note_on_c, 6, 78, 0
11, 102584, Note_on_c, 6, 66, 0
11, 102600, Note_on_c, 6, 66, 76
11, 102600, Note_on_c, 6, 78, 76
11, 102704, Note_on_c, 6, 66, 0
11, 102704, Note_on_c, 6, 78, 0
11, 102720, Note_on_c, 6, 76, 76
11, 103304, Note_on_c, 6, 76, 0
11, 103320, Note_on_c, 6, 69, 76
11, 103424, Note_on_c, 6, 69, 0
11, 103440, Note_on_c, 6, 69, 76
11, 103440, Note_on_c, 6, 66, 76
11, 103544, Note_on_c, 6, 69, 0
11, 103544, Note_on_c, 6, 66, 0
11, 103560, Note_on_c, 6, 66, 76
11, 103560, Note_on_c, 6, 69, 76
11, 103679, Note_on_c, 6, 66, 0
11, 103679, Note_on_c, 6, 69, 0
11, 103800, Note_on_c, 6, 69, 76
11, 103800, Note_on_c, 6, 66, 76
11, 103904, Note_on_c, 6, 69, 0
11, 103904, Note_on_c, 6, 66, 0
11, 103920, Note_on_c, 6, 66, 76
11, 103920, Note_on_c, 6, 69, 76
11, 104039, Note_on_c, 6, 66, 0
11, 104039, Note_on_c, 6, 69, 0
11, 104880, Note_on_c, 6, 69, 76
11, 104880, Note_on_c, 6, 66, 76
11, 104984, Note_on_c, 6, 69, 0
11, 104984, Note_on_c, 6, 66, 0
11, 105000, Note_on_c, 6, 69, 76
11, 105000, Note_on_c, 6, 66, 76
11, 105119, Note_on_c, 6, 69, 0
11, 105119, Note_on_c, 6, 66, 0
11, 105240, Note_on_c, 6, 69, 76
11, 105240, Note_on_c, 6, 66, 76
11, 105344, Note_on_c, 6, 69, 0
11, 105344, Note_on_c, 6, 66, 0
11, 105360, Note_on_c, 6, 66, 76
11, 105360, Note_on_c, 6, 69, 76
11, 105479, Note_on_c, 6, 66, 0
11, 105479, Note_on_c, 6, 69, 0
11, 110640, Note_on_c, 6, 76, 76
11, 110879, Note_on_c, 6, 76, 0
11, 111000, Note_on_c, 6, 76, 76
11, 111239, Note_on_c, 6, 76, 0
11, 111360, Note_on_c, 6, 76, 76
11, 111599, Note_on_c, 6, 76, 0
11, 111720, Note_on_c, 6, 76, 76
11, 111959, Note_on_c, 6, 76, 0
11, 112080, Note_on_c, 6, 76, 76
11, 112319, Note_on_c, 6, 76, 0
11, 123600, Note_on_c, 6, 76, 84
11, 123839, Note_on_c, 6, 76, 0
11, 124680, Note_on_c, 6, 76, 84
11, 124851, Note_on_c, 6, 76, 0
11, 124860, Note_on_c, 6, 76, 84
11, 124911, Note_on_c, 6, 76, 0
11, 124920, Note_on_c, 6, 76, 84
11, 125024, Note_on_c, 6, 76, 0
11, 125040, Note_on_c, 6, 69, 84
11, 125040, Note_on_c, 6, 57, 84
11, 125279, Note_on_c, 6, 69, 0
11, 125279, Note_on_c, 6, 57, 0
11, 126120, Note_on_c, 6, 69, 84
11, 126120, Note_on_c, 6, 57, 84
11, 126291, Note_on_c, 6, 69, 0
11, 126291, Note_on_c, 6, 57, 0
11, 126300, Note_on_c, 6, 69, 84
11, 126300, Note_on_c, 6, 57, 84
11, 126351, Note_on_c, 6, 69, 0
11, 126351, Note_on_c, 6, 57, 0
11, 126360, Note_on_c, 6, 57, 84
11, 126360, Note_on_c, 6, 69, 84
11, 126464, Note_on_c, 6, 57, 0
11, 126464, Note_on_c, 6, 69, 0
11, 127920, Note_on_c, 6, 76, 84
11, 128159, Note_on_c, 6, 76, 0
11, 129000, Note_on_c, 6, 76, 84
11, 129171, Note_on_c, 6, 76, 0
11, 129180, Note_on_c, 6, 76, 84
11, 129231, Note_on_c, 6, 76, 0
11, 129240, Note_on_c, 6, 76, 84
11, 129344, Note_on_c, 6, 76, 0
11, 129360, Note_on_c, 6, 57, 84
11, 129360, Note_on_c, 6, 69, 84
11, 129599, Note_on_c, 6, 57, 0
11, 129599, Note_on_c, 6, 69, 0
11, 130440, Note_on_c, 6, 57, 84
11, 130440, Note_on_c, 6, 69, 84
11, 130611, Note_on_c, 6, 57, 0
11, 130611, Note_on_c, 6, 69, 0
11, 130620, Note_on_c, 6, 57, 84
11, 130620, Note_on_c, 6, 69, 84
11, 130671, Note_on_c, 6, 57, 0
11, 130671, Note_on_c, 6, 69, 0
11, 130680, Note_on_c, 6, 57, 84
11, 130680, Note_on_c, 6, 69, 84
11, 130784, Note_on_c, 6, 57, 0
11, 130784, Note_on_c, 6, 69, 0
11, 132240, Note_on_c, 6, 76, 84
11, 132479, Note_on_c, 6, 76, 0
11, 135120, Note_on_c, 6, 76, 84
11, 135359, Note_on_c, 6, 76, 0
11, 136560, Note_on_c, 6, 76, 84
11, 136799, Note_on_c, 6, 76, 0
11, 137280, Note_on_c, 6, 76, 84
11, 137399, Note_on_c, 6, 76, 0
11, 137520, Note_on_c, 6, 76, 84
11, 137639, Note_on_c, 6, 76, 0
11, 137880, Note_on_c, 6, 76, 84
11, 137999, Note_on_c, 6, 76, 0
11, 138240, Note_on_c, 6, 76, 84
11, 138359, Note_on_c, 6, 76, 0
11, 138600, Note_on_c, 6, 76, 84
11, 138719, Note_on_c, 6, 76, 0
11, 138960, Note_on_c, 6, 76, 84
11, 139079, Note_on_c, 6, 76, 0
11, 139320, Note_on_c, 6, 76, 84
11, 139439, Note_on_c, 6, 76, 0
11, 139680, Note_on_c, 6, 76, 84
11, 139799, Note_on_c, 6, 76, 0
11, 140040, Note_on_c, 6, 76, 84
11, 140159, Note_on_c, 6, 76, 0
11, 160320, Note_on_c, 6, 69, 84
11, 160320, Note_on_c, 6, 57, 84
11, 160491, Note_on_c, 6, 69, 0
11, 160491, Note_on_c, 6, 57, 0
11, 160500, Note_on_c, 6, 69, 84
11, 160500, Note_on_c, 6, 57, 84
11, 160551, Note_on_c, 6, 69, 0
11, 160551, Note_on_c, 6, 57, 0
11, 160560, Note_on_c, 6, 69, 84
11, 160560, Note_on_c, 6, 57, 84
11, 160664, Note_on_c, 6, 69, 0
11, 160664, Note_on_c, 6, 57, 0
11, 160680, Note_on_c, 6, 69, 84
11, 160680, Note_on_c, 6, 57, 84
11, 160851, Note_on_c, 6, 69, 0
11, 160851, Note_on_c, 6, 57, 0
11, 160860, Note_on_c, 6, 57, 84
11, 160860, Note_on_c, 6, 69, 84
11, 160911, Note_on_c, 6, 57, 0
11, 160911, Note_on_c, 6, 69, 0
11, 160920, Note_on_c, 6, 69, 84
11, 160920, Note_on_c, 6, 57, 84
11, 161024, Note_on_c, 6, 69, 0
11, 161024, Note_on_c, 6, 57, 0
11, 161040, Note_on_c, 6, 57, 84
11, 161040, Note_on_c, 6, 69, 84
11, 161211, Note_on_c, 6, 57, 0
11, 161211, Note_on_c, 6, 69, 0
11, 161220, Note_on_c, 6, 57, 84
11, 161220, Note_on_c, 6, 69, 84
11, 161271, Note_on_c, 6, 57, 0
11, 161271, Note_on_c, 6, 69, 0
11, 161280, Note_on_c, 6, 57, 84
11, 161280, Note_on_c, 6, 69, 84
11, 161384, Note_on_c, 6, 57, 0
11, 161384, Note_on_c, 6, 69, 0
11, 161400, Note_on_c, 6, 57, 84
11, 161400, Note_on_c, 6, 69, 84
11, 161571, Note_on_c, 6, 57, 0
11, 161571, Note_on_c, 6, 69, 0
11, 161580, Note_on_c, 6, 57, 84
11, 161580, Note_on_c, 6, 69, 84
11, 161631, Note_on_c, 6, 57, 0
11, 161631, Note_on_c, 6, 69, 0
11, 161640, Note_on_c, 6, 57, 84
11, 161640, Note_on_c, 6, 69, 84
11, 161744, Note_on_c, 6, 57, 0
11, 161744, Note_on_c, 6, 69, 0
11, 161760, Note_on_c, 6, 69, 84
11, 161760, Note_on_c, 6, 57, 84
11, 161931, Note_on_c, 6, 69, 0
11, 161931, Note_on_c, 6, 57, 0
11, 161940, Note_on_c, 6, 57, 84
11, 161940, Note_on_c, 6, 69, 84
11, 161991, Note_on_c, 6, 57, 0
11, 161991, Note_on_c, 6, 69, 0
11, 162000, Note_on_c, 6, 69, 84
11, 162000, Note_on_c, 6, 57, 84
11, 162104, Note_on_c, 6, 69, 0
11, 162104, Note_on_c, 6, 57, 0
11, 162120, Note_on_c, 6, 57, 84
11, 162120, Note_on_c, 6, 69, 84
11, 162291, Note_on_c, 6, 57, 0
11, 162291, Note_on_c, 6, 69, 0
11, 162300, Note_on_c, 6, 57, 84
11, 162300, Note_on_c, 6, 69, 84
11, 162351, Note_on_c, 6, 57, 0
11, 162351, Note_on_c, 6, 69, 0
11, 162360, Note_on_c, 6, 69, 84
11, 162360, Note_on_c, 6, 57, 84
11, 162464, Note_on_c, 6, 69, 0
11, 162464, Note_on_c, 6, 57, 0
11, 162480, Note_on_c, 6, 57, 84
11, 162480, Note_on_c, 6, 69, 84
11, 162651, Note_on_c, 6, 57, 0
11, 162651, Note_on_c, 6, 69, 0
11, 162660, Note_on_c, 6, 57, 84
11, 162660, Note_on_c, 6, 69, 84
11, 162711, Note_on_c, 6, 57, 0
11, 162711, Note_on_c, 6, 69, 0
11, 162720, Note_on_c, 6, 69, 84
11, 162720, Note_on_c, 6, 57, 84
11, 162824, Note_on_c, 6, 69, 0
11, 162824, Note_on_c, 6, 57, 0
11, 162840, Note_on_c, 6, 69, 84
11, 162840, Note_on_c, 6, 57, 84
11, 163011, Note_on_c, 6, 69, 0
11, 163011, Note_on_c, 6, 57, 0
11, 163020, Note_on_c, 6, 69, 84
11, 163020, Note_on_c, 6, 57, 84
11, 163071, Note_on_c, 6, 69, 0
11, 163071, Note_on_c, 6, 57, 0
11, 163080, Note_on_c, 6, 57, 84
11, 163080, Note_on_c, 6, 69, 84
11, 163184, Note_on_c, 6, 57, 0
11, 163184, Note_on_c, 6, 69, 0
11, 163200, Note_on_c, 6, 57, 84
11, 163200, Note_on_c, 6, 69, 84
11, 163371, Note_on_c, 6, 57, 0
11, 163371, Note_on_c, 6, 69, 0
11, 163380, Note_on_c, 6, 57, 84
11, 163380, Note_on_c, 6, 69, 84
11, 163431, Note_on_c, 6, 57, 0
11, 163431, Note_on_c, 6, 69, 0
11, 163440, Note_on_c, 6, 69, 84
11, 163440, Note_on_c, 6, 57, 84
11, 163544, Note_on_c, 6, 69, 0
11, 163544, Note_on_c, 6, 57, 0
11, 163560, Note_on_c, 6, 69, 84
11, 163560, Note_on_c, 6, 57, 84
11, 163731, Note_on_c, 6, 69, 0
11, 163731, Note_on_c, 6, 57, 0
11, 163740, Note_on_c, 6, 69, 84
11, 163740, Note_on_c, 6, 57, 84
11, 163791, Note_on_c, 6, 69, 0
11, 163791, Note_on_c, 6, 57, 0
11, 163800, Note_on_c, 6, 69, 84
11, 163800, Note_on_c, 6, 57, 84
11, 163904, Note_on_c, 6, 69, 0
11, 163904, Note_on_c, 6, 57, 0
11, 163920, Note_on_c, 6, 69, 84
11, 163920, Note_on_c, 6, 57, 84
11, 164091, Note_on_c, 6, 69, 0
11, 164091, Note_on_c, 6, 57, 0
11, 164100, Note_on_c, 6, 57, 84
11, 164100, Note_on_c, 6, 69, 84
11, 164151, Note_on_c, 6, 57, 0
11, 164151, Note_on_c, 6, 69, 0
11, 164160, Note_on_c, 6, 57, 84
11, 164160, Note_on_c, 6, 69, 84
11, 164264, Note_on_c, 6, 57, 0
11, 164264, Note_on_c, 6, 69, 0
11, 164280, Note_on_c, 6, 57, 84
11, 164280, Note_on_c, 6, 69, 84
11, 164451, Note_on_c, 6, 57, 0
11, 164451, Note_on_c, 6, 69, 0
11, 164460, Note_on_c, 6, 57, 84
11, 164460, Note_on_c, 6, 69, 84
11, 164511, Note_on_c, 6, 57, 0
11, 164511, Note_on_c, 6, 69, 0
11, 164520, Note_on_c, 6, 57, 84
11, 164520, Note_on_c, 6, 69, 84
11, 164624, Note_on_c, 6, 57, 0
11, 164624, Note_on_c, 6, 69, 0
11, 164640, Note_on_c, 6, 69, 84
11, 164640, Note_on_c, 6, 57, 84
11, 164811, Note_on_c, 6, 69, 0
11, 164811, Note_on_c, 6, 57, 0
11, 164820, Note_on_c, 6, 57, 84
11, 164820, Note_on_c, 6, 69, 84
11, 164871, Note_on_c, 6, 57, 0
11, 164871, Note_on_c, 6, 69, 0
11, 164880, Note_on_c, 6, 57, 84
11, 164880, Note_on_c, 6, 69, 84
11, 164984, Note_on_c, 6, 57, 0
11, 164984, Note_on_c, 6, 69, 0
11, 165000, Note_on_c, 6, 76, 84
11, 165171, Note_on_c, 6, 76, 0
11, 165180, Note_on_c, 6, 76, 84
11, 165231, Note_on_c, 6, 76, 0
11, 165240, Note_on_c, 6, 76, 84
11, 165344, Note_on_c, 6, 76, 0
11, 165360, Note_on_c, 6, 57, 84
11, 165360, Note_on_c, 6, 69, 84
11, 165531, Note_on_c, 6, 57, 0
11, 165531, Note_on_c, 6, 69, 0
11, 165540, Note_on_c, 6, 57, 84
11, 165540, Note_on_c, 6, 69, 84
11, 165591, Note_on_c, 6, 57, 0
11, 165591, Note_on_c, 6, 69, 0
11, 165600, Note_on_c, 6, 57, 84
11, 165600, Note_on_c, 6, 69, 84
11, 165704, Note_on_c, 6, 57, 0
11, 165704, Note_on_c, 6, 69, 0
11, 165720, Note_on_c, 6, 57, 84
11, 165720, Note_on_c, 6, 69, 84
11, 165891, Note_on_c, 6, 57, 0
11, 165891, Note_on_c, 6, 69, 0
11, 165900, Note_on_c, 6, 69, 84
11, 165900, Note_on_c, 6, 57, 84
11, 165951, Note_on_c, 6, 69, 0
11, 165951, Note_on_c, 6, 57, 0
11, 165960, Note_on_c, 6, 69, 84
11, 165960, Note_on_c, 6, 57, 84
11, 166064, Note_on_c, 6, 69, 0
11, 166064, Note_on_c, 6, 57, 0
11, 166080, Note_on_c, 6, 69, 84
11, 166080, Note_on_c, 6, 57, 84
11, 166319, Note_on_c, 6, 69, 0
11, 166319, Note_on_c, 6, 57, 0
11, 166800, Note_on_c, 6, 57, 84
11, 166800, Note_on_c, 6, 69, 84
11, 166971, Note_on_c, 6, 57, 0
11, 166971, Note_on_c, 6, 69, 0
11, 166980, Note_on_c, 6, 69, 84
11, 166980, Note_on_c, 6, 57, 84
11, 167031, Note_on_c, 6, 69, 0
11, 167031, Note_on_c, 6, 57, 0
11, 167040, Note_on_c, 6, 57, 84
11, 167040, Note_on_c, 6, 69, 84
11, 167144, Note_on_c, 6, 57, 0
11, 167144, Note_on_c, 6, 69, 0
11, 167160, Note_on_c, 6, 57, 84
11, 167160, Note_on_c, 6, 69, 84
11, 167331, Note_on_c, 6, 57, 0
11, 167331, Note_on_c, 6, 69, 0
11, 167340, Note_on_c, 6, 57, 84
11, 167340, Note_on_c, 6, 69, 84
11, 167391, Note_on_c, 6, 57, 0
11, 167391, Note_on_c, 6, 69, 0
11, 167400, Note_on_c, 6, 57, 84
11, 167400, Note_on_c, 6, 69, 84
11, 167504, Note_on_c, 6, 57, 0
11, 167504, Note_on_c, 6, 69, 0
11, 167520, Note_on_c, 6, 57, 84
11, 167520, Note_on_c, 6, 69, 84
11, 167759, Note_on_c, 6, 57, 0
11, 167759, Note_on_c, 6, 69, 0
11, 168240, Note_on_c, 6, 69, 84
11, 168240, Note_on_c, 6, 57, 84
11, 168411, Note_on_c, 6, 69, 0
11, 168411, Note_on_c, 6, 57, 0
11, 168420, Note_on_c, 6, 57, 84
11, 168420, Note_on_c, 6, 69, 84
11, 168471, Note_on_c, 6, 57, 0
11, 168471, Note_on_c, 6, 69, 0
11, 168480, Note_on_c, 6, 69, 84
11, 168480, Note_on_c, 6, 57, 84
11, 168584, Note_on_c, 6, 69, 0
11, 168584, Note_on_c, 6, 57, 0
11, 168600, Note_on_c, 6, 69, 84
11, 168600, Note_on_c, 6, 57, 84
11, 168839, Note_on_c, 6, 69, 0
11, 168839, Note_on_c, 6, 57, 0
11, 169260, Note_on_c, 6, 57, 52
11, 169260, Note_on_c, 6, 69, 52
11, 169311, Note_on_c, 6, 57, 0
11, 169311, Note_on_c, 6, 69, 0
11, 169320, Note_on_c, 6, 57, 52
11, 169320, Note_on_c, 6, 69, 52
11, 169559, Note_on_c, 6, 57, 0
11, 169559, Note_on_c, 6, 69, 0
11, 169980, Note_on_c, 6, 69, 56
11, 169980, Note_on_c, 6, 57, 56
11, 170031, Note_on_c, 6, 69, 0
11, 170031, Note_on_c, 6, 57, 0
11, 170040, Note_on_c, 6, 57, 56
11, 170040, Note_on_c, 6, 69, 56
11, 170279, Note_on_c, 6, 57, 0
11, 170279, Note_on_c, 6, 69, 0
11, 170700, Note_on_c, 6, 69, 60
11, 170700, Note_on_c, 6, 57, 60
11, 170751, Note_on_c, 6, 69, 0
11, 170751, Note_on_c, 6, 57, 0
11, 170760, Note_on_c, 6, 57, 61
11, 170760, Note_on_c, 6, 69, 61
11, 170999, Note_on_c, 6, 57, 0
11, 170999, Note_on_c, 6, 69, 0
11, 171420, Note_on_c, 6, 57, 64
11, 171420, Note_on_c, 6, 69, 64
11, 171471, Note_on_c, 6, 57, 0
11, 171471, Note_on_c, 6, 69, 0
11, 171480, Note_on_c, 6, 69, 65
11, 171480, Note_on_c, 6, 57, 65
11, 171719, Note_on_c, 6, 69, 0
11, 171719, Note_on_c, 6, 57, 0
11, 172140, Note_on_c, 6, 69, 69
11, 172140, Note_on_c, 6, 57, 69
11, 172191, Note_on_c, 6, 69, 0
11, 172191, Note_on_c, 6, 57, 0
11, 172200, Note_on_c, 6, 69, 69
11, 172200, Note_on_c, 6, 57, 69
11, 172439, Note_on_c, 6, 69, 0
11, 172439, Note_on_c, 6, 57, 0
11, 172500, Note_on_c, 6, 57, 71
11, 172500, Note_on_c, 6, 69, 71
11, 172551, Note_on_c, 6, 57, 0
11, 172551, Note_on_c, 6, 69, 0
11, 172560, Note_on_c, 6, 57, 71
11, 172560, Note_on_c, 6, 69, 71
11, 172799, Note_on_c, 6, 57, 0
11, 172799, Note_on_c, 6, 69, 0
11, 172860, Note_on_c, 6, 69, 73
11, 172860, Note_on_c, 6, 57, 73
11, 172911, Note_on_c, 6, 69, 0
11, 172911, Note_on_c, 6, 57, 0
11, 172920, Note_on_c, 6, 57, 73
11, 172920, Note_on_c, 6, 69, 73
11, 173159, Note_on_c, 6, 57, 0
11, 173159, Note_on_c, 6, 69, 0
11, 173220, Note_on_c, 6, 57, 75
11, 173220, Note_on_c, 6, 69, 75
11, 173271, Note_on_c, 6, 57, 0
11, 173271, Note_on_c, 6, 69, 0
11, 173280, Note_on_c, 6, 69, 75
11, 173280, Note_on_c, 6, 57, 75
11, 173519, Note_on_c, 6, 69, 0
11, 173519, Note_on_c, 6, 57, 0
11, 173580, Note_on_c, 6, 69, 77
11, 173580, Note_on_c, 6, 57, 77
11, 173631, Note_on_c, 6, 69, 0
11, 173631, Note_on_c, 6, 57, 0
11, 173640, Note_on_c, 6, 57, 77
11, 173640, Note_on_c, 6, 69, 77
11, 173879, Note_on_c, 6, 57, 0
11, 173879, Note_on_c, 6, 69, 0
11, 173940, Note_on_c, 6, 57, 79
11, 173940, Note_on_c, 6, 69, 79
11, 173991, Note_on_c, 6, 57, 0
11, 173991, Note_on_c, 6, 69, 0
11, 174000, Note_on_c, 6, 57, 79
11, 174000, Note_on_c, 6, 69, 79
11, 174239, Note_on_c, 6, 57, 0
11, 174239, Note_on_c, 6, 69, 0
11, 174300, Note_on_c, 6, 57, 81
11, 174300, Note_on_c, 6, 69, 81
11, 174351, Note_on_c, 6, 57, 0
11, 174351, Note_on_c, 6, 69, 0
11, 174360, Note_on_c, 6, 57, 81
11, 174360, Note_on_c, 6, 69, 81
11, 174599, Note_on_c, 6, 57, 0
11, 174599, Note_on_c, 6, 69, 0
11, 174660, Note_on_c, 6, 69, 83
11, 174660, Note_on_c, 6, 57, 83
11, 174711, Note_on_c, 6, 69, 0
11, 174711, Note_on_c, 6, 57, 0
11, 174720, Note_on_c, 6, 76, 84
11, 175424, Note_on_c, 6, 76, 0
11, 175440, Note_on_c, 6, 57, 84
11, 175440, Note_on_c, 6, 69, 84
11, 175679, Note_on_c, 6, 57, 0
11, 175679, Note_on_c, 6, 69, 0
11, 175800, Note_on_c, 6, 57, 84
11, 175800, Note_on_c, 6, 69, 84
11, 175919, Note_on_c, 6, 57, 0
11, 175919, Note_on_c, 6, 69, 0
11, 184080, Note_on_c, 6, 78, 76
11, 184080, Note_on_c, 6, 66, 76
11, 184304, Note_on_c, 6, 78, 0
11, 184304, Note_on_c, 6, 66, 0
11, 184320, Note_on_c, 6, 78, 76
11, 184320, Note_on_c, 6, 66, 76
11, 184424, Note_on_c, 6, 78, 0
11, 184424, Note_on_c, 6, 66, 0
11, 184440, Note_on_c, 6, 78, 76
11, 184440, Note_on_c, 6, 66, 76
11, 184664, Note_on_c, 6, 78, 0
11, 184664, Note_on_c, 6, 66, 0
11, 184680, Note_on_c, 6, 78, 76
11, 184680, Note_on_c, 6, 66, 76
11, 184784, Note_on_c, 6, 78, 0
11, 184784, Note_on_c, 6, 66, 0
11, 184800, Note_on_c, 6, 76, 76
11, 185384, Note_on_c, 6, 76, 0
11, 185400, Note_on_c, 6, 69, 76
11, 185504, Note_on_c, 6, 69, 0
11, 185520, Note_on_c, 6, 69, 76
11, 185520, Note_on_c, 6, 66, 76
11, 185624, Note_on_c, 6, 69, 0
11, 185624, Note_on_c, 6, 66, 0
11, 185640, Note_on_c, 6, 66, 76
11, 185640, Note_on_c, 6, 69, 76
11, 185759, Note_on_c, 6, 66, 0
11, 185759, Note_on_c, 6, 69, 0
11, 185880, Note_on_c, 6, 69, 76
11, 185880, Note_on_c, 6, 66, 76
11, 185984, Note_on_c, 6, 69, 0
11, 185984, Note_on_c, 6, 66, 0
11, 186000, Note_on_c, 6, 66, 76
11, 186000, Note_on_c, 6, 69, 76
11, 186119, Note_on_c, 6, 66, 0
11, 186119, Note_on_c, 6, 69, 0
11, 186960, Note_on_c, 6, 69, 76
11, 186960, Note_on_c, 6, 66, 76
11, 187064, Note_on_c, 6, 69, 0
11, 187064, Note_on_c, 6, 66, 0
11, 187080, Note_on_c, 6, 69, 76
11, 187080, Note_on_c, 6, 66, 76
11, 187199, Note_on_c, 6, 69, 0
11, 187199, Note_on_c, 6, 66, 0
11, 187320, Note_on_c, 6, 66, 76
11, 187320, Note_on_c, 6, 69, 76
11, 187424, Note_on_c, 6, 66, 0
11, 187424, Note_on_c, 6, 69, 0
11, 187440, Note_on_c, 6, 66, 76
11, 187440, Note_on_c, 6, 69, 76
11, 187559, Note_on_c, 6, 66, 0
11, 187559, Note_on_c, 6, 69, 0
11, 192720, Note_on_c, 6, 76, 76
11, 192959, Note_on_c, 6, 76, 0
11, 193080, Note_on_c, 6, 76, 76
11, 193319, Note_on_c, 6, 76, 0
11, 193440, Note_on_c, 6, 76, 76
11, 193679, Note_on_c, 6, 76, 0
11, 193800, Note_on_c, 6, 76, 76
11, 194039, Note_on_c, 6, 76, 0
11, 194160, Note_on_c, 6, 76, 76
11, 194399, Note_on_c, 6, 76, 0
11, 205680, Note_on_c, 6, 76, 84
11, 205919, Note_on_c, 6, 76, 0
11, 206760, Note_on_c, 6, 76, 84
11, 206931, Note_on_c, 6, 76, 0
11, 206940, Note_on_c, 6, 76, 84
11, 206991, Note_on_c, 6, 76, 0
11, 207000, Note_on_c, 6, 76, 84
11, 207104, Note_on_c, 6, 76, 0
11, 207120, Note_on_c, 6, 69, 84
11, 207120, Note_on_c, 6, 57, 84
11, 207359, Note_on_c, 6, 69, 0
11, 207359, Note_on_c, 6, 57, 0
11, 208200, Note_on_c, 6, 69, 84
11, 208200, Note_on_c, 6, 57, 84
11, 208371, Note_on_c, 6, 69, 0
11, 208371, Note_on_c, 6, 57, 0
11, 208380, Note_on_c, 6, 57, 84
11, 208380, Note_on_c, 6, 69, 84
11, 208431, Note_on_c, 6, 57, 0
11, 208431, Note_on_c, 6, 69, 0
11, 208440, Note_on_c, 6, 57, 84
11, 208440, Note_on_c, 6, 69, 84
11, 208544, Note_on_c, 6, 57, 0
11, 208544, Note_on_c, 6, 69, 0
11, 210000, Note_on_c, 6, 76, 84
11, 210239, Note_on_c, 6, 76, 0
11, 211080, Note_on_c, 6, 76, 84
11, 211251, Note_on_c, 6, 76, 0
11, 211260, Note_on_c, 6, 76, 84
11, 211311, Note_on_c, 6, 76, 0
11, 211320, Note_on_c, 6, 76, 84
11, 211424, Note_on_c, 6, 76, 0
11, 211440, Note_on_c, 6, 57, 84
11, 211440, Note_on_c, 6, 69, 84
11, 211679, Note_on_c, 6, 57, 0
11, 211679, Note_on_c, 6, 69, 0
11, 212520, Note_on_c, 6, 57, 84
11, 212520, Note_on_c, 6, 69, 84
11, 212691, Note_on_c, 6, 57, 0
11, 212691, Note_on_c, 6, 69, 0
11, 212700, Note_on_c, 6, 69, 84
11, 212700, Note_on_c, 6, 57, 84
11, 212751, Note_on_c, 6, 69, 0
11, 212751, Note_on_c, 6, 57, 0
11, 212760, Note_on_c, 6, 69, 84
11, 212760, Note_on_c, 6, 57, 84
11, 212864, Note_on_c, 6, 69, 0
11, 212864, Note_on_c, 6, 57, 0
11, 214320, Note_on_c, 6, 76, 84
11, 214559, Note_on_c, 6, 76, 0
11, 217200, Note_on_c, 6, 76, 84
11, 217439, Note_on_c, 6, 76, 0
11, 218640, Note_on_c, 6, 76, 84
11, 218879, Note_on_c, 6, 76, 0
11, 219360, Note_on_c, 6, 76, 84
11, 219479, Note_on_c, 6, 76, 0
11, 219600, Note_on_c, 6, 76, 84
11, 219719, Note_on_c, 6, 76, 0
11, 219960, Note_on_c, 6, 76, 84
11, 220079, Note_on_c, 6, 76, 0
11, 220320, Note_on_c, 6, 76, 84
11, 220439, Note_on_c, 6, 76, 0
11, 220680, Note_on_c, 6, 76, 84
11, 220799, Note_on_c, 6, 76, 0
11, 221040, Note_on_c, 6, 76, 84
11, 221159, Note_on_c, 6, 76, 0
11, 221400, Note_on_c, 6, 76, 84
11, 221519, Note_on_c, 6, 76, 0
11, 221760, Note_on_c, 6, 76, 84
11, 221879, Note_on_c, 6, 76, 0
11, 222120, Note_on_c, 6, 76, 84
11, 222239, Note_on_c, 6, 76, 0
11, 240960, Note_on_c, 6, 76, 76
11, 241199, Note_on_c, 6, 76, 0
11, 241680, Note_on_c, 6, 76, 76
11, 241919, Note_on_c, 6, 76, 0
11, 242400, Note_on_c, 6, 76, 76
11, 242639, Note_on_c, 6, 76, 0
11, 242760, Note_on_c, 6, 76, 76
11, 242999, Note_on_c, 6, 76, 0
11, 243120, Note_on_c, 6, 76, 76
11, 243359, Note_on_c, 6, 76, 0
11, 243480, Note_on_c, 6, 76, 76
11, 243719, Note_on_c, 6, 76, 0
11, 245280, Note_on_c, 6, 74, 84
11, 245280, Note_on_c, 6, 62, 84
11, 248144, Note_on_c, 6, 74, 0
11, 248144, Note_on_c, 6, 62, 0
11, 248160, Note_on_c, 6, 76, 84
11, 248399, Note_on_c, 6, 76, 0
11, 249600, Note_on_c, 6, 76, 84
11, 252719, Note_on_c, 6, 76, 0
11, 279120, Note_on_c, 6, 69, 84
11, 279120, Note_on_c, 6, 81, 84
11, 279239, Note_on_c, 6, 69, 0
11, 279239, Note_on_c, 6, 81, 0
11, 279300, Note_on_c, 6, 81, 84
11, 279300, Note_on_c, 6, 69, 84
11, 279351, Note_on_c, 6, 81, 0
11, 279351, Note_on_c, 6, 69, 0
11, 279360, Note_on_c, 6, 69, 84
11, 279360, Note_on_c, 6, 81, 84
11, 279464, Note_on_c, 6, 69, 0
11, 279464, Note_on_c, 6, 81, 0
11, 279480, Note_on_c, 6, 81, 84
11, 279480, Note_on_c, 6, 69, 84
11, 279599, Note_on_c, 6, 81, 0
11, 279599, Note_on_c, 6, 69, 0
11, 279660, Note_on_c, 6, 69, 84
11, 279660, Note_on_c, 6, 81, 84
11, 279711, Note_on_c, 6, 69, 0
11, 279711, Note_on_c, 6, 81, 0
11, 279720, Note_on_c, 6, 81, 84
11, 279720, Note_on_c, 6, 69, 84
11, 279824, Note_on_c, 6, 81, 0
11, 279824, Note_on_c, 6, 69, 0
11, 279840, Note_on_c, 6, 69, 84
11, 279840, Note_on_c, 6, 81, 84
11, 279959, Note_on_c, 6, 69, 0
11, 279959, Note_on_c, 6, 81, 0
11, 280020, Note_on_c, 6, 69, 84
11, 280020, Note_on_c, 6, 81, 84
11, 280071, Note_on_c, 6, 69, 0
11, 280071, Note_on_c, 6, 81, 0
11, 280080, Note_on_c, 6, 69, 84
11, 280080, Note_on_c, 6, 81, 84
11, 280184, Note_on_c, 6, 69, 0
11, 280184, Note_on_c, 6, 81, 0
11, 280200, Note_on_c, 6, 81, 84
11, 280200, Note_on_c, 6, 69, 84
11, 280319, Note_on_c, 6, 81, 0
11, 280319, Note_on_c, 6, 69, 0
11, 280380, Note_on_c, 6, 81, 84
11, 280380, Note_on_c, 6, 69, 84
11, 280431, Note_on_c, 6, 81, 0
11, 280431, Note_on_c, 6, 69, 0
11, 280440, Note_on_c, 6, 81, 84
11, 280440, Note_on_c, 6, 69, 84
11, 280544, Note_on_c, 6, 81, 0
11, 280544, Note_on_c, 6, 69, 0
11, 280560, Note_on_c, 6, 81, 84
11, 280560, Note_on_c, 6, 69, 84
11, 281984, Note_on_c, 6, 81, 0
11, 281984, Note_on_c, 6, 69, 0
11, 282000, Note_on_c, 6, 69, 84
11, 282000, Note_on_c, 6, 81, 84
11, 282119, Note_on_c, 6, 69, 0
11, 282119, Note_on_c, 6, 81, 0
11, 282180, Note_on_c, 6, 69, 84
11, 282180, Note_on_c, 6, 81, 84
11, 282231, Note_on_c, 6, 69, 0
11, 282231, Note_on_c, 6, 81, 0
11, 282240, Note_on_c, 6, 81, 84
11, 282240, Note_on_c, 6, 69, 84
11, 282344, Note_on_c, 6, 81, 0
11, 282344, Note_on_c, 6, 69, 0
11, 282360, Note_on_c, 6, 69, 84
11, 282360, Note_on_c, 6, 81, 84
11, 282479, Note_on_c, 6, 69, 0
11, 282479, Note_on_c, 6, 81, 0
11, 282540, Note_on_c, 6, 81, 84
11, 282540, Note_on_c, 6, 69, 84
11, 282591, Note_on_c, 6, 81, 0
11, 282591, Note_on_c, 6, 69, 0
11, 282600, Note_on_c, 6, 81, 84
11, 282600, Note_on_c, 6, 69, 84
11, 282704, Note_on_c, 6, 81, 0
11, 282704, Note_on_c, 6, 69, 0
11, 282720, Note_on_c, 6, 81, 84
11, 282720, Note_on_c, 6, 69, 84
11, 282839, Note_on_c, 6, 81, 0
11, 282839, Note_on_c, 6, 69, 0
11, 282900, Note_on_c, 6, 69, 84
11, 282900, Note_on_c, 6, 81, 84
11, 282951, Note_on_c, 6, 69, 0
11, 282951, Note_on_c, 6, 81, 0
11, 282960, Note_on_c, 6, 81, 84
11, 282960, Note_on_c, 6, 69, 84
11, 283064, Note_on_c, 6, 81, 0
11, 283064, Note_on_c, 6, 69, 0
11, 283080, Note_on_c, 6, 69, 84
11, 283080, Note_on_c, 6, 81, 84
11, 283199, Note_on_c, 6, 69, 0
11, 283199, Note_on_c, 6, 81, 0
11, 283260, Note_on_c, 6, 81, 84
11, 283260, Note_on_c, 6, 69, 84
11, 283311, Note_on_c, 6, 81, 0
11, 283311, Note_on_c, 6, 69, 0
11, 283320, Note_on_c, 6, 81, 84
11, 283320, Note_on_c, 6, 69, 84
11, 283424, Note_on_c, 6, 81, 0
11, 283424, Note_on_c, 6, 69, 0
11, 283440, Note_on_c, 6, 69, 84
11, 283440, Note_on_c, 6, 81, 84
11, 284864, Note_on_c, 6, 69, 0
11, 284864, Note_on_c, 6, 81, 0
11, 284880, Note_on_c, 6, 76, 84
11, 284999, Note_on_c, 6, 76, 0
11, 285060, Note_on_c, 6, 76, 84
11, 285111, Note_on_c, 6, 76, 0
11, 285120, Note_on_c, 6, 76, 84
11, 285224, Note_on_c, 6, 76, 0
11, 285240, Note_on_c, 6, 76, 84
11, 285359, Note_on_c, 6, 76, 0
11, 285420, Note_on_c, 6, 76, 84
11, 285471, Note_on_c, 6, 76, 0
11, 285480, Note_on_c, 6, 76, 84
11, 285584, Note_on_c, 6, 76, 0
11, 285600, Note_on_c, 6, 76, 84
11, 285719, Note_on_c, 6, 76, 0
11, 285780, Note_on_c, 6, 76, 84
11, 285831, Note_on_c, 6, 76, 0
11, 285840, Note_on_c, 6, 76, 84
11, 285944, Note_on_c, 6, 76, 0
11, 285960, Note_on_c, 6, 76, 84
11, 286079, Note_on_c, 6, 76, 0
11, 286140, Note_on_c, 6, 76, 84
11, 286191, Note_on_c, 6, 76, 0
11, 286200, Note_on_c, 6, 76, 84
11, 286304, Note_on_c, 6, 76, 0
11, 286320, Note_on_c, 6, 76, 84
11, 286559, Note_on_c, 6, 76, 0
11, 295680, Note_on_c, 6, 57, 76
11, 295680, Note_on_c, 6, 69, 76
11, 295851, Note_on_c, 6, 57, 0
11, 295851, Note_on_c, 6, 69, 0
11, 295860, Note_on_c, 6, 69, 76
11, 295860, Note_on_c, 6, 57, 76
11, 295911, Note_on_c, 6, 69, 0
11, 295911, Note_on_c, 6, 57, 0
11, 295920, Note_on_c, 6, 57, 76
11, 295920, Note_on_c, 6, 69, 76
11, 296024, Note_on_c, 6, 57, 0
11, 296024, Note_on_c, 6, 69, 0
11, 296040, Note_on_c, 6, 69, 80
11, 296040, Note_on_c, 6, 57, 80
11, 296211, Note_on_c, 6, 69, 0
11, 296211, Note_on_c, 6, 57, 0
11, 296220, Note_on_c, 6, 57, 80
11, 296220, Note_on_c, 6, 69, 80
11, 296271, Note_on_c, 6, 57, 0
11, 296271, Note_on_c, 6, 69, 0
11, 296280, Note_on_c, 6, 69, 80
11, 296280, Note_on_c, 6, 57, 80
11, 296384, Note_on_c, 6, 69, 0
11, 296384, Note_on_c, 6, 57, 0
11, 296400, Note_on_c, 6, 69, 84
11, 296400, Note_on_c, 6, 57, 84
11, 296639, Note_on_c, 6, 69, 0
11, 296639, Note_on_c, 6, 57, 0
11, 297780, Note_on_c, 6, 57, 84
11, 297780, Note_on_c, 6, 69, 84
11, 297831, Note_on_c, 6, 57, 0
11, 297831, Note_on_c, 6, 69, 0
11, 297840, Note_on_c, 6, 57, 84
11, 297840, Note_on_c, 6, 69, 84
11, 298079, Note_on_c, 6, 57, 0
11, 298079, Note_on_c, 6, 69, 0
11, 299220, Note_on_c, 6, 57, 84
11, 299220, Note_on_c, 6, 69, 84
11, 299271, Note_on_c, 6, 57, 0
11, 299271, Note_on_c, 6, 69, 0
11, 299280, Note_on_c, 6, 57, 84
11, 299280, Note_on_c, 6, 69, 84
11, 299519, Note_on_c, 6, 57, 0
11, 299519, Note_on_c, 6, 69, 0
11, 300660, Note_on_c, 6, 69, 84
11, 300660, Note_on_c, 6, 57, 84
11, 300711, Note_on_c, 6, 69, 0
11, 300711, Note_on_c, 6, 57, 0
11, 300720, Note_on_c, 6, 57, 84
11, 300720, Note_on_c, 6, 69, 84
11, 300959, Note_on_c, 6, 57, 0
11, 300959, Note_on_c, 6, 69, 0
11, 301020, Note_on_c, 6, 69, 84
11, 301020, Note_on_c, 6, 57, 84
11, 301071, Note_on_c, 6, 69, 0
11, 301071, Note_on_c, 6, 57, 0
11, 301080, Note_on_c, 6, 76, 84
11, 301319, Note_on_c, 6, 76, 0
11, 301380, Note_on_c, 6, 76, 84
11, 301431, Note_on_c, 6, 76, 0
11, 301440, Note_on_c, 6, 69, 84
11, 301679, Note_on_c, 6, 69, 0
11, 301740, Note_on_c, 6, 74, 84
11, 301740, Note_on_c, 6, 66, 84
11, 301791, Note_on_c, 6, 74, 0
11, 301791, Note_on_c, 6, 66, 0
11, 301800, Note_on_c, 6, 66, 84
11, 301800, Note_on_c, 6, 74, 84
11, 302039, Note_on_c, 6, 66, 0
11, 302039, Note_on_c, 6, 74, 0
11, 302100, Note_on_c, 6, 66, 84
11, 302100, Note_on_c, 6, 74, 84
11, 302151, Note_on_c, 6, 66, 0
11, 302151, Note_on_c, 6, 74, 0
11, 302160, Note_on_c, 6, 74, 84
11, 302160, Note_on_c, 6, 66, 84
11, 302399, Note_on_c, 6, 74, 0
11, 302399, Note_on_c, 6, 66, 0
11, 304260, Note_on_c, 6, 69, 84
11, 304311, Note_on_c, 6, 69, 0
11, 304320, Note_on_c, 6, 66, 84
11, 304320, Note_on_c, 6, 74, 84
11, 304559, Note_on_c, 6, 66, 0
11, 304559, Note_on_c, 6, 74, 0
11, 306420, Note_on_c, 6, 76, 84
11, 306471, Note_on_c, 6, 76, 0
11, 306480, Note_on_c, 6, 76, 84
11, 306719, Note_on_c, 6, 76, 0
11, 307140, Note_on_c, 6, 76, 84
11, 307191, Note_on_c, 6, 76, 0
11, 307200, Note_on_c, 6, 76, 84
11, 307439, Note_on_c, 6, 76, 0
11, 307860, Note_on_c, 6, 76, 84
11, 307911, Note_on_c, 6, 76, 0
11, 307920, Note_on_c, 6, 76, 84
11, 308159, Note_on_c, 6, 76, 0
11, 308580, Note_on_c, 6, 76, 84
11, 308631, Note_on_c, 6, 76, 0
11, 308640, Note_on_c, 6, 76, 84
11, 308879, Note_on_c, 6, 76, 0
11, 309300, Note_on_c, 6, 76, 84
11, 309351, Note_on_c, 6, 76, 0
11, 309360, Note_on_c, 6, 76, 84
11, 309599, Note_on_c, 6, 76, 0
11, 310020, Note_on_c, 6, 76, 84
11, 310071, Note_on_c, 6, 76, 0
11, 310080, Note_on_c, 6, 76, 84
11, 310319, Note_on_c, 6, 76, 0
11, 310380, Note_on_c, 6, 76, 84
11, 310431, Note_on_c, 6, 76, 0
11, 310440, Note_on_c, 6, 76, 84
11, 310679, Note_on_c, 6, 76, 0
11, 310740, Note_on_c, 6, 76, 84
11, 310791, Note_on_c, 6, 76, 0
11, 310800, Note_on_c, 6, 76, 84
11, 311039, Note_on_c, 6, 76, 0
11, 311100, Note_on_c, 6, 76, 84
11, 311151, Note_on_c, 6, 76, 0
11, 311160, Note_on_c, 6, 76, 84
11, 311399, Note_on_c, 6, 76, 0
11, 311460, Note_on_c, 6, 76, 84
11, 311511, Note_on_c, 6, 76, 0
11, 311520, Note_on_c, 6, 76, 84
11, 311879, Note_on_c, 6, 76, 0
11, 328800, Note_on_c, 6, 66, 84
11, 328800, Note_on_c, 6, 78, 84
11, 329504, Note_on_c, 6, 66, 0
11, 329504, Note_on_c, 6, 78, 0
11, 329520, Note_on_c, 6, 76, 84
11, 329520, Note_on_c, 6, 79, 84
11, 329984, Note_on_c, 6, 76, 0
11, 329984, Note_on_c, 6, 79, 0
11, 330000, Note_on_c, 6, 76, 84
11, 330104, Note_on_c, 6, 76, 0
11, 330120, Note_on_c, 6, 76, 84
11, 330224, Note_on_c, 6, 76, 0
11, 330240, Note_on_c, 6, 81, 84
11, 330240, Note_on_c, 6, 69, 84
11, 330359, Note_on_c, 6, 81, 0
11, 330359, Note_on_c, 6, 69, 0
11, 330480, Note_on_c, 6, 81, 84
11, 330480, Note_on_c, 6, 69, 84
11, 330584, Note_on_c, 6, 81, 0
11, 330584, Note_on_c, 6, 69, 0
11, 330600, Note_on_c, 6, 81, 84
11, 330600, Note_on_c, 6, 69, 84
11, 330719, Note_on_c, 6, 81, 0
11, 330719, Note_on_c, 6, 69, 0
11, 330840, Note_on_c, 6, 69, 84
11, 330840, Note_on_c, 6, 81, 84
11, 330944, Note_on_c, 6, 69, 0
11, 330944, Note_on_c, 6, 81, 0
11, 330960, Note_on_c, 6, 76, 52
11, 331079, Note_on_c, 6, 76, 0
11, 334560, Note_on_c, 6, 57, 76
11, 334560, Note_on_c, 6, 69, 76
11, 334784, Note_on_c, 6, 57, 0
11, 334784, Note_on_c, 6, 69, 0
11, 335280, Note_on_c, 6, 76, 76
11, 335504, Note_on_c, 6, 76, 0
11, 335520, Note_on_c, 6, 76, 76
11, 335624, Note_on_c, 6, 76, 0
11, 335640, Note_on_c, 6, 76, 76
11, 335864, Note_on_c, 6, 76, 0
11, 335880, Note_on_c, 6, 76, 76
11, 335984, Note_on_c, 6, 76, 0
11, 336000, Note_on_c, 6, 76, 76
11, 336704, Note_on_c, 6, 76, 0
11, 336720, Note_on_c, 6, 76, 76
11, 336944, Note_on_c, 6, 76, 0
11, 336960, Note_on_c, 6, 76, 76
11, 337064, Note_on_c, 6, 76, 0
11, 337080, Note_on_c, 6, 76, 76
11, 337304, Note_on_c, 6, 76, 0
11, 337320, Note_on_c, 6, 76, 76
11, 337424, Note_on_c, 6, 76, 0
11, 337440, Note_on_c, 6, 66, 76
11, 337440, Note_on_c, 6, 78, 76
11, 337664, Note_on_c, 6, 66, 0
11, 337664, Note_on_c, 6, 78, 0
11, 337680, Note_on_c, 6, 66, 76
11, 337680, Note_on_c, 6, 78, 76
11, 337784, Note_on_c, 6, 66, 0
11, 337784, Note_on_c, 6, 78, 0
11, 337800, Note_on_c, 6, 66, 76
11, 337800, Note_on_c, 6, 78, 76
11, 338024, Note_on_c, 6, 66, 0
11, 338024, Note_on_c, 6, 78, 0
11, 338040, Note_on_c, 6, 66, 76
11, 338040, Note_on_c, 6, 78, 76
11, 338144, Note_on_c, 6, 66, 0
11, 338144, Note_on_c, 6, 78, 0
11, 338160, Note_on_c, 6, 76, 76
11, 338264, Note_on_c, 6, 76, 0
11, 338280, Note_on_c, 6, 76, 76
11, 338399, Note_on_c, 6, 76, 0
11, 338520, Note_on_c, 6, 76, 76
11, 338624, Note_on_c, 6, 76, 0
11, 338640, Note_on_c, 6, 76, 76
11, 338759, Note_on_c, 6, 76, 0
11, 338880, Note_on_c, 6, 76, 76
11, 338984, Note_on_c, 6, 76, 0
11, 339000, Note_on_c, 6, 76, 76
11, 339119, Note_on_c, 6, 76, 0
11, 339240, Note_on_c, 6, 76, 76
11, 339344, Note_on_c, 6, 76, 0
11, 339360, Note_on_c, 6, 76, 76
11, 339479, Note_on_c, 6, 76, 0
11, 339600, Note_on_c, 6, 76, 76
11, 339704, Note_on_c, 6, 76, 0
11, 339720, Note_on_c, 6, 76, 76
11, 339839, Note_on_c, 6, 76, 0
11, 339960, Note_on_c, 6, 76, 76
11, 340064, Note_on_c, 6, 76, 0
11, 340080, Note_on_c, 6, 76, 76
11, 340199, Note_on_c, 6, 76, 0
11, 340320, Note_on_c, 6, 76, 76
11, 340424, Note_on_c, 6, 76, 0
11, 340440, Note_on_c, 6, 76, 76
11, 340559, Note_on_c, 6, 76, 0
11, 340680, Note_on_c, 6, 76, 76
11, 340784, Note_on_c, 6, 76, 0
11, 340800, Note_on_c, 6, 76, 76
11, 340919, Note_on_c, 6, 76, 0
11, 345360, Note_on_c, 6, 69, 84
11, 345704, Note_on_c, 6, 69, 0
11, 345720, Note_on_c, 6, 69, 84
11, 345720, Note_on_c, 6, 81, 84
11, 345959, Note_on_c, 6, 69, 0
11, 345959, Note_on_c, 6, 81, 0
11, 346080, Note_on_c, 6, 69, 84
11, 346080, Note_on_c, 6, 81, 84
11, 346319, Note_on_c, 6, 69, 0
11, 346319, Note_on_c, 6, 81, 0
11, 346440, Note_on_c, 6, 81, 84
11, 346440, Note_on_c, 6, 69, 84
11, 346664, Note_on_c, 6, 81, 0
11, 346664, Note_on_c, 6, 69, 0
11, 346680, Note_on_c, 6, 76, 84
11, 346784, Note_on_c, 6, 76, 0
11, 346800, Note_on_c, 6, 81, 84
11, 346800, Note_on_c, 6, 69, 84
11, 347039, Note_on_c, 6, 81, 0
11, 347039, Note_on_c, 6, 69, 0
11, 358320, Note_on_c, 6, 69, 84
11, 358559, Note_on_c, 6, 69, 0
11, 359400, Note_on_c, 6, 69, 84
11, 359571, Note_on_c, 6, 69, 0
11, 359580, Note_on_c, 6, 69, 84
11, 359631, Note_on_c, 6, 69, 0
11, 359640, Note_on_c, 6, 69, 84
11, 359744, Note_on_c, 6, 69, 0
11, 359760, Note_on_c, 6, 66, 84
11, 359760, Note_on_c, 6, 78, 84
11, 360824, Note_on_c, 6, 66, 0
11, 360824, Note_on_c, 6, 78, 0
11, 360840, Note_on_c, 6, 78, 84
11, 360840, Note_on_c, 6, 66, 84
11, 361011, Note_on_c, 6, 78, 0
11, 361011, Note_on_c, 6, 66, 0
11, 361020, Note_on_c, 6, 66, 84
11, 361020, Note_on_c, 6, 78, 84
11, 361071, Note_on_c, 6, 66, 0
11, 361071, Note_on_c, 6, 78, 0
11, 361080, Note_on_c, 6, 66, 84
11, 361080, Note_on_c, 6, 78, 84
11, 361199, Note_on_c, 6, 66, 0
11, 361199, Note_on_c, 6, 78, 0
11, 362640, Note_on_c, 6, 69, 84
11, 362879, Note_on_c, 6, 69, 0
11, 363720, Note_on_c, 6, 69, 84
11, 363891, Note_on_c, 6, 69, 0
11, 363900, Note_on_c, 6, 69, 84
11, 363951, Note_on_c, 6, 69, 0
11, 363960, Note_on_c, 6, 69, 84
11, 364064, Note_on_c, 6, 69, 0
11, 364080, Note_on_c, 6, 66, 84
11, 364080, Note_on_c, 6, 78, 84
11, 365144, Note_on_c, 6, 66, 0
11, 365144, Note_on_c, 6, 78, 0
11, 365160, Note_on_c, 6, 66, 84
11, 365160, Note_on_c, 6, 78, 84
11, 365331, Note_on_c, 6, 66, 0
11, 365331, Note_on_c, 6, 78, 0
11, 365340, Note_on_c, 6, 78, 84
11, 365340, Note_on_c, 6, 66, 84
11, 365391, Note_on_c, 6, 78, 0
11, 365391, Note_on_c, 6, 66, 0
11, 365400, Note_on_c, 6, 78, 84
11, 365400, Note_on_c, 6, 66, 84
11, 365519, Note_on_c, 6, 78, 0
11, 365519, Note_on_c, 6, 66, 0
11, 366960, Note_on_c, 6, 69, 84
11, 366960, Note_on_c, 6, 57, 84
11, 367199, Note_on_c, 6, 69, 0
11, 367199, Note_on_c, 6, 57, 0
11, 367320, Note_on_c, 6, 69, 84
11, 367320, Note_on_c, 6, 57, 84
11, 367559, Note_on_c, 6, 69, 0
11, 367559, Note_on_c, 6, 57, 0
11, 367680, Note_on_c, 6, 76, 84
11, 367919, Note_on_c, 6, 76, 0
11, 368400, Note_on_c, 6, 76, 84
11, 368639, Note_on_c, 6, 76, 0
11, 368760, Note_on_c, 6, 76, 84
11, 368999, Note_on_c, 6, 76, 0
11, 369120, Note_on_c, 6, 76, 84
11, 369359, Note_on_c, 6, 76, 0
11, 369840, Note_on_c, 6, 69, 84
11, 369840, Note_on_c, 6, 57, 84
11, 370079, Note_on_c, 6, 69, 0
11, 370079, Note_on_c, 6, 57, 0
11, 370200, Note_on_c, 6, 76, 84
11, 370439, Note_on_c, 6, 76, 0
11, 370560, Note_on_c, 6, 76, 84
11, 370799, Note_on_c, 6, 76, 0
11, 371280, Note_on_c, 6, 57, 84
11, 371280, Note_on_c, 6, 69, 84
11, 371519, Note_on_c, 6, 57, 0
11, 371519, Note_on_c, 6, 69, 0
11, 371640, Note_on_c, 6, 76, 84
11, 371879, Note_on_c, 6, 76, 0
11, 372000, Note_on_c, 6, 69, 84
11, 372000, Note_on_c, 6, 57, 84
11, 372119, Note_on_c, 6, 69, 0
11, 372119, Note_on_c, 6, 57, 0
11, 372240, Note_on_c, 6, 69, 84
11, 372240, Note_on_c, 6, 81, 84
11, 372359, Note_on_c, 6, 69, 0
11, 372359, Note_on_c, 6, 81, 0
11, 372600, Note_on_c, 6, 81, 84
11, 372600, Note_on_c, 6, 69, 84
11, 372719, Note_on_c, 6, 81, 0
11, 372719, Note_on_c, 6, 69, 0
11, 372960, Note_on_c, 6, 81, 84
11, 372960, Note_on_c, 6, 69, 84
11, 373079, Note_on_c, 6, 81, 0
11, 373079, Note_on_c, 6, 69, 0
11, 373320, Note_on_c, 6, 69, 84
11, 373320, Note_on_c, 6, 81, 84
11, 373439, Note_on_c, 6, 69, 0
11, 373439, Note_on_c, 6, 81, 0
11, 373680, Note_on_c, 6, 81, 84
11, 373680, Note_on_c, 6, 69, 84
11, 373799, Note_on_c, 6, 81, 0
11, 373799, Note_on_c, 6, 69, 0
11, 374040, Note_on_c, 6, 81, 84
11, 374040, Note_on_c, 6, 69, 84
11, 374159, Note_on_c, 6, 81, 0
11, 374159, Note_on_c, 6, 69, 0
11, 374400, Note_on_c, 6, 81, 84
11, 374400, Note_on_c, 6, 69, 84
11, 374519, Note_on_c, 6, 81, 0
11, 374519, Note_on_c, 6, 69, 0
11, 374760, Note_on_c, 6, 81, 84
11, 374760, Note_on_c, 6, 69, 84
11, 374879, Note_on_c, 6, 81, 0
11, 374879, Note_on_c, 6, 69, 0
11, 391080, Note_on_c, 6, 76, 52
11, 391319, Note_on_c, 6, 76, 0
11, 392520, Note_on_c, 6, 76, 52
11, 392759, Note_on_c, 6, 76, 0
11, 393960, Note_on_c, 6, 76, 52
11, 394199, Note_on_c, 6, 76, 0
11, 395400, Note_on_c, 6, 76, 55
11, 395639, Note_on_c, 6, 76, 0
11, 396840, Note_on_c, 6, 76, 58
11, 397079, Note_on_c, 6, 76, 0
11, 398280, Note_on_c, 6, 76, 61
11, 398519, Note_on_c, 6, 76, 0
11, 399480, Note_on_c, 6, 76, 69
11, 399584, Note_on_c, 6, 76, 0
11, 399600, Note_on_c, 6, 76, 70
11, 399704, Note_on_c, 6, 76, 0
11, 399720, Note_on_c, 6, 76, 72
11, 399824, Note_on_c, 6, 76, 0
11, 399840, Note_on_c, 6, 76, 73
11, 399944, Note_on_c, 6, 76, 0
11, 399960, Note_on_c, 6, 76, 74
11, 400064, Note_on_c, 6, 76, 0
11, 400080, Note_on_c, 6, 76, 76
11, 400184, Note_on_c, 6, 76, 0
11, 400200, Note_on_c, 6, 76, 77
11, 400304, Note_on_c, 6, 76, 0
11, 400320, Note_on_c, 6, 76, 78
11, 400424, Note_on_c, 6, 76, 0
11, 400440, Note_on_c, 6, 76, 80
11, 400544, Note_on_c, 6, 76, 0
11, 400560, Note_on_c, 6, 76, 81
11, 400664, Note_on_c, 6, 76, 0
11, 400680, Note_on_c, 6, 76, 82
11, 400784, Note_on_c, 6, 76, 0
11, 400800, Note_on_c, 6, 69, 84
11, 400971, Note_on_c, 6, 69, 0
11, 400980, Note_on_c, 6, 69, 84
11, 401031, Note_on_c, 6, 69, 0
11, 401040, Note_on_c, 6, 69, 84
11, 401144, Note_on_c, 6, 69, 0
11, 401160, Note_on_c, 6, 69, 84
11, 401331, Note_on_c, 6, 69, 0
11, 401340, Note_on_c, 6, 69, 84
11, 401391, Note_on_c, 6, 69, 0
11, 401400, Note_on_c, 6, 69, 84
11, 401504, Note_on_c, 6, 69, 0
11, 401520, Note_on_c, 6, 69, 84
11, 401691, Note_on_c, 6, 69, 0
11, 401700, Note_on_c, 6, 69, 84
11, 401751, Note_on_c, 6, 69, 0
11, 401760, Note_on_c, 6, 69, 84
11, 401864, Note_on_c, 6, 69, 0
11, 401880, Note_on_c, 6, 69, 84
11, 402051, Note_on_c, 6, 69, 0
11, 402060, Note_on_c, 6, 69, 84
11, 402111, Note_on_c, 6, 69, 0
11, 402120, Note_on_c, 6, 69, 84
11, 402224, Note_on_c, 6, 69, 0
11, 402240, Note_on_c, 6, 62, 84
11, 402240, Note_on_c, 6, 74, 84
11, 402411, Note_on_c, 6, 62, 0
11, 402411, Note_on_c, 6, 74, 0
11, 402420, Note_on_c, 6, 62, 84
11, 402420, Note_on_c, 6, 74, 84
11, 402471, Note_on_c, 6, 62, 0
11, 402471, Note_on_c, 6, 74, 0
11, 402480, Note_on_c, 6, 74, 84
11, 402480, Note_on_c, 6, 62, 84
11, 402584, Note_on_c, 6, 74, 0
11, 402584, Note_on_c, 6, 62, 0
11, 402600, Note_on_c, 6, 62, 84
11, 402600, Note_on_c, 6, 74, 84
11, 402771, Note_on_c, 6, 62, 0
11, 402771, Note_on_c, 6, 74, 0
11, 402780, Note_on_c, 6, 62, 84
11, 402780, Note_on_c, 6, 74, 84
11, 402831, Note_on_c, 6, 62, 0
11, 402831, Note_on_c, 6, 74, 0
11, 402840, Note_on_c, 6, 62, 84
11, 402840, Note_on_c, 6, 74, 84
11, 402944, Note_on_c, 6, 62, 0
11, 402944, Note_on_c, 6, 74, 0
11, 402960, Note_on_c, 6, 62, 84
11, 402960, Note_on_c, 6, 74, 84
11, 403131, Note_on_c, 6, 62, 0
11, 403131, Note_on_c, 6, 74, 0
11, 403140, Note_on_c, 6, 62, 84
11, 403140, Note_on_c, 6, 74, 84
11, 403191, Note_on_c, 6, 62, 0
11, 403191, Note_on_c, 6, 74, 0
11, 403200, Note_on_c, 6, 74, 84
11, 403200, Note_on_c, 6, 62, 84
11, 403304, Note_on_c, 6, 74, 0
11, 403304, Note_on_c, 6, 62, 0
11, 403320, Note_on_c, 6, 62, 84
11, 403320, Note_on_c, 6, 74, 84
11, 403491, Note_on_c, 6, 62, 0
11, 403491, Note_on_c, 6, 74, 0
11, 403500, Note_on_c, 6, 74, 84
11, 403500, Note_on_c, 6, 62, 84
11, 403551, Note_on_c, 6, 74, 0
11, 403551, Note_on_c, 6, 62, 0
11, 403560, Note_on_c, 6, 62, 84
11, 403560, Note_on_c, 6, 74, 84
11, 403664, Note_on_c, 6, 62, 0
11, 403664, Note_on_c, 6, 74, 0
11, 403680, Note_on_c, 6, 76, 84
11, 403919, Note_on_c, 6, 76, 0
11, 404400, Note_on_c, 6, 76, 84
11, 404639, Note_on_c, 6, 76, 0
11, 405120, Note_on_c, 6, 76, 84
11, 405359, Note_on_c, 6, 76, 0
11, 405840, Note_on_c, 6, 81, 84
11, 405840, Note_on_c, 6, 69, 84
11, 406079, Note_on_c, 6, 81, 0
11, 406079, Note_on_c, 6, 69, 0
11, 406200, Note_on_c, 6, 81, 84
11, 406200, Note_on_c, 6, 69, 84
11, 406439, Note_on_c, 6, 81, 0
11, 406439, Note_on_c, 6, 69, 0
11, 406560, Note_on_c, 6, 69, 84
11, 406560, Note_on_c, 6, 81, 84
11, 406799, Note_on_c, 6, 69, 0
11, 406799, Note_on_c, 6, 81, 0
11, 406920, Note_on_c, 6, 81, 84
11, 406920, Note_on_c, 6, 69, 84
11, 407159, Note_on_c, 6, 81, 0
11, 407159, Note_on_c, 6, 69, 0
11, 407280, Note_on_c, 6, 69, 84
11, 407280, Note_on_c, 6, 81, 84
11, 407519, Note_on_c, 6, 69, 0
11, 407519, Note_on_c, 6, 81, 0
11, 408000, Note_on_c, 6, 81, 84
11, 408000, Note_on_c, 6, 69, 84
11, 408239, Note_on_c, 6, 81, 0
11, 408239, Note_on_c, 6, 69, 0
11, 408720, Note_on_c, 6, 76, 84
11, 408959, Note_on_c, 6, 76, 0
11, 409440, Note_on_c, 6, 76, 84
11, 409679, Note_on_c, 6, 76, 0
11, 410160, Note_on_c, 6, 69, 84
11, 410160, Note_on_c, 6, 81, 84
11, 410399, Note_on_c, 6, 69, 0
11, 410399, Note_on_c, 6, 81, 0
11, 410880, Note_on_c, 6, 76, 84
11, 411119, Note_on_c, 6, 76, 0
11, 411600, Note_on_c, 6, 81, 84
11, 411600, Note_on_c, 6, 69, 84
11, 411839, Note_on_c, 6, 81, 0
11, 411839, Note_on_c, 6, 69, 0
11, 411960, Note_on_c, 6, 62, 84
11, 411960, Note_on_c, 6, 74, 84
11, 412199, Note_on_c, 6, 62, 0
11, 412199, Note_on_c, 6, 74, 0
11, 412320, Note_on_c, 6, 76, 84
11, 412559, Note_on_c, 6, 76, 0
11, 412680, Note_on_c, 6, 69, 84
11, 412680, Note_on_c, 6, 81, 84
11, 412919, Note_on_c, 6, 69, 0
11, 412919, Note_on_c, 6, 81, 0
11, 413040, Note_on_c, 6, 81, 84
11, 413040, Note_on_c, 6, 69, 84
11, 413159, Note_on_c, 6, 81, 0
11, 413159, Note_on_c, 6, 69, 0
11, 413220, Note_on_c, 6, 69, 84
11, 413220, Note_on_c, 6, 81, 84
11, 413271, Note_on_c, 6, 69, 0
11, 413271, Note_on_c, 6, 81, 0
11, 413280, Note_on_c, 6, 69, 84
11, 413280, Note_on_c, 6, 81, 84
11, 413384, Note_on_c, 6, 69, 0
11, 413384, Note_on_c, 6, 81, 0
11, 413400, Note_on_c, 6, 69, 84
11, 413400, Note_on_c, 6, 81, 84
11, 413519, Note_on_c, 6, 69, 0
11, 413519, Note_on_c, 6, 81, 0
11, 413580, Note_on_c, 6, 76, 84
11, 413631, Note_on_c, 6, 76, 0
11, 413640, Note_on_c, 6, 76, 84
11, 413744, Note_on_c, 6, 76, 0
11, 413760, Note_on_c, 6, 76, 84
11, 413879, Note_on_c, 6, 76, 0
11, 413940, Note_on_c, 6, 76, 84
11, 413991, Note_on_c, 6, 76, 0
11, 414000, Note_on_c, 6, 76, 84
11, 414104, Note_on_c, 6, 76, 0
11, 414120, Note_on_c, 6, 76, 84
11, 414239, Note_on_c, 6, 76, 0
11, 414300, Note_on_c, 6, 69, 84
11, 414300, Note_on_c, 6, 57, 84
11, 414351, Note_on_c, 6, 69, 0
11, 414351, Note_on_c, 6, 57, 0
11, 414360, Note_on_c, 6, 57, 84
11, 414360, Note_on_c, 6, 69, 84
11, 414464, Note_on_c, 6, 57, 0
11, 414464, Note_on_c, 6, 69, 0
11, 414480, Note_on_c, 6, 69, 84
11, 414480, Note_on_c, 6, 57, 84
11, 414719, Note_on_c, 6, 69, 0
11, 414719, Note_on_c, 6, 57, 0
11, 415200, Note_on_c, 6, 76, 84
11, 415319, Note_on_c, 6, 76, 0
11, 415380, Note_on_c, 6, 76, 84
11, 415431, Note_on_c, 6, 76, 0
11, 415440, Note_on_c, 6, 76, 84
11, 415544, Note_on_c, 6, 76, 0
11, 415560, Note_on_c, 6, 76, 84
11, 415679, Note_on_c, 6, 76, 0
11, 415740, Note_on_c, 6, 76, 84
11, 415791, Note_on_c, 6, 76, 0
11, 415800, Note_on_c, 6, 76, 84
11, 415904, Note_on_c, 6, 76, 0
11, 415920, Note_on_c, 6, 69, 84
11, 415920, Note_on_c, 6, 57, 84
11, 416159, Note_on_c, 6, 69, 0
11, 416159, Note_on_c, 6, 57, 0
11, 416640, Note_on_c, 6, 76, 84
11, 416759, Note_on_c, 6, 76, 0
11, 416820, Note_on_c, 6, 76, 84
11, 416871, Note_on_c, 6, 76, 0
11, 416880, Note_on_c, 6, 76, 84
11, 416984, Note_on_c, 6, 76, 0
11, 417000, Note_on_c, 6, 76, 84
11, 417119, Note_on_c, 6, 76, 0
11, 417180, Note_on_c, 6, 76, 84
11, 417231, Note_on_c, 6, 76, 0
11, 417240, Note_on_c, 6, 76, 84
11, 417344, Note_on_c, 6, 76, 0
11, 417360, Note_on_c, 6, 69, 84
11, 417360, Note_on_c, 6, 76, 84
11, 417479, Note_on_c, 6, 69, 0
11, 417479, Note_on_c, 6, 76, 0
11, 417540, Note_on_c, 6, 81, 84
11, 417540, Note_on_c, 6, 69, 84
11, 417591, Note_on_c, 6, 81, 0
11, 417591, Note_on_c, 6, 69, 0
11, 417600, Note_on_c, 6, 81, 84
11, 417600, Note_on_c, 6, 69, 84
11, 417704, Note_on_c, 6, 81, 0
11, 417704, Note_on_c, 6, 69, 0
11, 417720, Note_on_c, 6, 69, 84
11, 417720, Note_on_c, 6, 81, 84
11, 417839, Note_on_c, 6, 69, 0
11, 417839, Note_on_c, 6, 81, 0
11, 417900, Note_on_c, 6, 69, 84
11, 417900, Note_on_c, 6, 81, 84
11, 417951, Note_on_c, 6, 69, 0
11, 417951, Note_on_c, 6, 81, 0
11, 417960, Note_on_c, 6, 81, 84
11, 417960, Note_on_c, 6, 69, 84
11, 418064, Note_on_c, 6, 81, 0
11, 418064, Note_on_c, 6, 69, 0
11, 418080, Note_on_c, 6, 81, 84
11, 418080, Note_on_c, 6, 69, 84
11, 418199, Note_on_c, 6, 81, 0
11, 418199, Note_on_c, 6, 69, 0
11, 418260, Note_on_c, 6, 69, 84
11, 418260, Note_on_c, 6, 81, 84
11, 418311, Note_on_c, 6, 69, 0
11, 418311, Note_on_c, 6, 81, 0
11, 418320, Note_on_c, 6, 81, 84
11, 418320, Note_on_c, 6, 69, 84
11, 418424, Note_on_c, 6, 81, 0
11, 418424, Note_on_c, 6, 69, 0
11, 418440, Note_on_c, 6, 69, 84
11, 418440, Note_on_c, 6, 81, 84
11, 418559, Note_on_c, 6, 69, 0
11, 418559, Note_on_c, 6, 81, 0
11, 418620, Note_on_c, 6, 81, 84
11, 418620, Note_on_c, 6, 69, 84
11, 418671, Note_on_c, 6, 81, 0
11, 418671, Note_on_c, 6, 69, 0
11, 418680, Note_on_c, 6, 69, 84
11, 418680, Note_on_c, 6, 81, 84
11, 418784, Note_on_c, 6, 69, 0
11, 418784, Note_on_c, 6, 81, 0
11, 418800, Note_on_c, 6, 69, 84
11, 418800, Note_on_c, 6, 81, 84
11, 419039, Note_on_c, 6, 69, 0
11, 419039, Note_on_c, 6, 81, 0
11, 419520, Note_on_c, 6, 76, 84
11, 419759, Note_on_c, 6, 76, 0
11, 420240, Note_on_c, 6, 69, 84
11, 420479, Note_on_c, 6, 69, 0
11, 420479, End_track
12, 0, Start_track
12, 0, Title_t, "Timpani"
12, 0, MIDI_port, 0
12, 0, Program_c, 8, 47
12, 0, Control_c, 8, 7, 96
12, 0, Control_c, 8, 10, 25
12, 0, Control_c, 8, 11, 127
12, 0, Note_on_c, 8, 45, 76
12, 179, Note_on_c, 8, 45, 0
12, 1920, Note_on_c, 8, 52, 76
12, 2099, Note_on_c, 8, 52, 0
12, 3840, Note_on_c, 8, 45, 76
12, 4019, Note_on_c, 8, 45, 0
12, 5760, Note_on_c, 8, 45, 76
12, 5939, Note_on_c, 8, 45, 0
12, 13440, Note_on_c, 8, 45, 84
12, 13679, Note_on_c, 8, 45, 0
12, 14400, Note_on_c, 8, 45, 84
12, 14639, Note_on_c, 8, 45, 0
12, 15360, Note_on_c, 8, 52, 84
12, 15599, Note_on_c, 8, 52, 0
12, 16320, Note_on_c, 8, 52, 84
12, 16559, Note_on_c, 8, 52, 0
12, 17280, Note_on_c, 8, 45, 84
12, 17519, Note_on_c, 8, 45, 0
12, 18240, Note_on_c, 8, 45, 84
12, 18479, Note_on_c, 8, 45, 0
12, 20160, Note_on_c, 8, 52, 52
12, 20399, Note_on_c, 8, 52, 0
12, 31680, Note_on_c, 8, 52, 84
12, 31919, Note_on_c, 8, 52, 0
12, 32160, Note_on_c, 8, 52, 84
12, 32399, Note_on_c, 8, 52, 0
12, 32640, Note_on_c, 8, 52, 84
12, 32879, Note_on_c, 8, 52, 0
12, 33120, Note_on_c, 8, 52, 84
12, 33359, Note_on_c, 8, 52, 0
12, 33600, Note_on_c, 8, 52, 84
12, 33839, Note_on_c, 8, 52, 0
12, 34080, Note_on_c, 8, 52, 84
12, 34319, Note_on_c, 8, 52, 0
12, 34560, Note_on_c, 8, 52, 84
12, 34799, Note_on_c, 8, 52, 0
12, 35040, Note_on_c, 8, 52, 84
12, 35279, Note_on_c, 8, 52, 0
12, 35520, Note_on_c, 8, 52, 84
12, 35759, Note_on_c, 8, 52, 0
12, 36000, Note_on_c, 8, 52, 84
12, 36239, Note_on_c, 8, 52, 0
12, 36480, Note_on_c, 8, 52, 84
12, 36719, Note_on_c, 8, 52, 0
12, 36960, Note_on_c, 8, 52, 84
12, 37199, Note_on_c, 8, 52, 0
12, 37440, Note_on_c, 8, 52, 84
12, 37679, Note_on_c, 8, 52, 0
12, 37920, Note_on_c, 8, 52, 84
12, 38159, Note_on_c, 8, 52, 0
12, 38400, Note_on_c, 8, 52, 84
12, 38639, Note_on_c, 8, 52, 0
12, 38880, Note_on_c, 8, 52, 68
12, 39119, Note_on_c, 8, 52, 0
12, 49920, Note_on_c, 8, 52, 84
12, 50039, Note_on_c, 8, 52, 0
12, 51840, Note_on_c, 8, 52, 84
12, 51959, Note_on_c, 8, 52, 0
12, 78240, Note_on_c, 8, 45, 84
12, 78419, Note_on_c, 8, 45, 0
12, 78420, Note_on_c, 8, 45, 84
12, 78479, Note_on_c, 8, 45, 0
12, 78480, Note_on_c, 8, 45, 84
12, 78599, Note_on_c, 8, 45, 0
12, 78600, Note_on_c, 8, 45, 84
12, 78779, Note_on_c, 8, 45, 0
12, 78780, Note_on_c, 8, 45, 84
12, 78839, Note_on_c, 8, 45, 0
12, 78840, Note_on_c, 8, 45, 84
12, 78959, Note_on_c, 8, 45, 0
12, 78960, Note_on_c, 8, 45, 84
12, 79139, Note_on_c, 8, 45, 0
12, 79140, Note_on_c, 8, 45, 84
12, 79199, Note_on_c, 8, 45, 0
12, 79200, Note_on_c, 8, 45, 84
12, 79319, Note_on_c, 8, 45, 0
12, 79320, Note_on_c, 8, 45, 84
12, 79499, Note_on_c, 8, 45, 0
12, 79500, Note_on_c, 8, 45, 84
12, 79559, Note_on_c, 8, 45, 0
12, 79560, Note_on_c, 8, 45, 84
12, 79679, Note_on_c, 8, 45, 0
12, 79680, Note_on_c, 8, 45, 84
12, 79859, Note_on_c, 8, 45, 0
12, 79860, Note_on_c, 8, 45, 84
12, 79919, Note_on_c, 8, 45, 0
12, 79920, Note_on_c, 8, 45, 84
12, 80039, Note_on_c, 8, 45, 0
12, 80040, Note_on_c, 8, 45, 84
12, 80219, Note_on_c, 8, 45, 0
12, 80220, Note_on_c, 8, 45, 84
12, 80279, Note_on_c, 8, 45, 0
12, 80280, Note_on_c, 8, 45, 84
12, 80399, Note_on_c, 8, 45, 0
12, 80400, Note_on_c, 8, 45, 84
12, 80579, Note_on_c, 8, 45, 0
12, 80580, Note_on_c, 8, 45, 84
12, 80639, Note_on_c, 8, 45, 0
12, 80640, Note_on_c, 8, 45, 84
12, 80759, Note_on_c, 8, 45, 0
12, 80760, Note_on_c, 8, 45, 84
12, 80939, Note_on_c, 8, 45, 0
12, 80940, Note_on_c, 8, 45, 84
12, 80999, Note_on_c, 8, 45, 0
12, 81000, Note_on_c, 8, 45, 84
12, 81119, Note_on_c, 8, 45, 0
12, 81120, Note_on_c, 8, 45, 84
12, 81299, Note_on_c, 8, 45, 0
12, 81300, Note_on_c, 8, 45, 84
12, 81359, Note_on_c, 8, 45, 0
12, 81360, Note_on_c, 8, 45, 84
12, 81479, Note_on_c, 8, 45, 0
12, 81480, Note_on_c, 8, 45, 84
12, 81659, Note_on_c, 8, 45, 0
12, 81660, Note_on_c, 8, 45, 84
12, 81719, Note_on_c, 8, 45, 0
12, 81720, Note_on_c, 8, 45, 84
12, 81839, Note_on_c, 8, 45, 0
12, 81840, Note_on_c, 8, 45, 84
12, 82019, Note_on_c, 8, 45, 0
12, 82020, Note_on_c, 8, 45, 84
12, 82079, Note_on_c, 8, 45, 0
12, 82080, Note_on_c, 8, 45, 84
12, 82199, Note_on_c, 8, 45, 0
12, 82200, Note_on_c, 8, 45, 84
12, 82379, Note_on_c, 8, 45, 0
12, 82380, Note_on_c, 8, 45, 84
12, 82439, Note_on_c, 8, 45, 0
12, 82440, Note_on_c, 8, 45, 84
12, 82559, Note_on_c, 8, 45, 0
12, 82560, Note_on_c, 8, 45, 84
12, 82739, Note_on_c, 8, 45, 0
12, 82740, Note_on_c, 8, 45, 84
12, 82799, Note_on_c, 8, 45, 0
12, 82800, Note_on_c, 8, 45, 84
12, 82919, Note_on_c, 8, 45, 0
12, 82920, Note_on_c, 8, 52, 84
12, 83099, Note_on_c, 8, 52, 0
12, 83100, Note_on_c, 8, 52, 84
12, 83159, Note_on_c, 8, 52, 0
12, 83160, Note_on_c, 8, 52, 84
12, 83279, Note_on_c, 8, 52, 0
12, 83280, Note_on_c, 8, 45, 84
12, 83459, Note_on_c, 8, 45, 0
12, 83460, Note_on_c, 8, 45, 84
12, 83519, Note_on_c, 8, 45, 0
12, 83520, Note_on_c, 8, 45, 84
12, 83639, Note_on_c, 8, 45, 0
12, 83640, Note_on_c, 8, 45, 84
12, 83819, Note_on_c, 8, 45, 0
12, 83820, Note_on_c, 8, 45, 84
12, 83879, Note_on_c, 8, 45, 0
12, 83880, Note_on_c, 8, 45, 84
12, 83999, Note_on_c, 8, 45, 0
12, 84000, Note_on_c, 8, 45, 84
12, 84239, Note_on_c, 8, 45, 0
12, 84720, Note_on_c, 8, 45, 84
12, 84899, Note_on_c, 8, 45, 0
12, 84900, Note_on_c, 8, 45, 84
12, 84959, Note_on_c, 8, 45, 0
12, 84960, Note_on_c, 8, 45, 84
12, 85079, Note_on_c, 8, 45, 0
12, 85080, Note_on_c, 8, 45, 84
12, 85259, Note_on_c, 8, 45, 0
12, 85260, Note_on_c, 8, 45, 84
12, 85319, Note_on_c, 8, 45, 0
12, 85320, Note_on_c, 8, 45, 84
12, 85439, Note_on_c, 8, 45, 0
12, 85440, Note_on_c, 8, 45, 84
12, 85679, Note_on_c, 8, 45, 0
12, 86160, Note_on_c, 8, 45, 84
12, 86339, Note_on_c, 8, 45, 0
12, 86340, Note_on_c, 8, 45, 84
12, 86399, Note_on_c, 8, 45, 0
12, 86400, Note_on_c, 8, 45, 84
12, 86519, Note_on_c, 8, 45, 0
12, 86520, Note_on_c, 8, 45, 84
12, 86759, Note_on_c, 8, 45, 0
12, 87180, Note_on_c, 8, 45, 52
12, 87239, Note_on_c, 8, 45, 0
12, 87240, Note_on_c, 8, 45, 52
12, 87479, Note_on_c, 8, 45, 0
12, 87900, Note_on_c, 8, 45, 56
12, 87959, Note_on_c, 8, 45, 0
12, 87960, Note_on_c, 8, 45, 56
12, 88199, Note_on_c, 8, 45, 0
12, 88620, Note_on_c, 8, 45, 60
12, 88679, Note_on_c, 8, 45, 0
12, 88680, Note_on_c, 8, 45, 61
12, 88919, Note_on_c, 8, 45, 0
12, 89340, Note_on_c, 8, 45, 64
12, 89399, Note_on_c, 8, 45, 0
12, 89400, Note_on_c, 8, 45, 65
12, 89639, Note_on_c, 8, 45, 0
12, 90060, Note_on_c, 8, 45, 69
12, 90119, Note_on_c, 8, 45, 0
12, 90120, Note_on_c, 8, 45, 69
12, 90359, Note_on_c, 8, 45, 0
12, 90420, Note_on_c, 8, 45, 71
12, 90479, Note_on_c, 8, 45, 0
12, 90480, Note_on_c, 8, 45, 71
12, 90719, Note_on_c, 8, 45, 0
12, 90780, Note_on_c, 8, 45, 73
12, 90839, Note_on_c, 8, 45, 0
12, 90840, Note_on_c, 8, 45, 73
12, 91079, Note_on_c, 8, 45, 0
12, 91140, Note_on_c, 8, 45, 75
12, 91199, Note_on_c, 8, 45, 0
12, 91200, Note_on_c, 8, 45, 75
12, 91439, Note_on_c, 8, 45, 0
12, 91500, Note_on_c, 8, 45, 77
12, 91559, Note_on_c, 8, 45, 0
12, 91560, Note_on_c, 8, 45, 77
12, 91799, Note_on_c, 8, 45, 0
12, 91860, Note_on_c, 8, 45, 79
12, 91919, Note_on_c, 8, 45, 0
12, 91920, Note_on_c, 8, 45, 79
12, 92159, Note_on_c, 8, 45, 0
12, 92220, Note_on_c, 8, 45, 81
12, 92279, Note_on_c, 8, 45, 0
12, 92280, Note_on_c, 8, 45, 81
12, 92519, Note_on_c, 8, 45, 0
12, 92580, Note_on_c, 8, 45, 83
12, 92639, Note_on_c, 8, 45, 0
12, 92640, Note_on_c, 8, 52, 87
12, 92679, Note_on_c, 8, 52, 0
12, 92680, Note_on_c, 8, 52, 83
12, 92719, Note_on_c, 8, 52, 0
12, 92720, Note_on_c, 8, 52, 80
12, 92759, Note_on_c, 8, 52, 0
12, 92760, Note_on_c, 8, 52, 80
12, 92799, Note_on_c, 8, 52, 0
12, 92800, Note_on_c, 8, 52, 80
12, 92839, Note_on_c, 8, 52, 0
12, 92840, Note_on_c, 8, 52, 83
12, 92879, Note_on_c, 8, 52, 0
12, 92880, Note_on_c, 8, 52, 84
12, 92919, Note_on_c, 8, 52, 0
12, 92920, Note_on_c, 8, 52, 84
12, 92959, Note_on_c, 8, 52, 0
12, 92960, Note_on_c, 8, 52, 84
12, 92999, Note_on_c, 8, 52, 0
12, 93000, Note_on_c, 8, 52, 84
12, 93039, Note_on_c, 8, 52, 0
12, 93040, Note_on_c, 8, 52, 81
12, 93079, Note_on_c, 8, 52, 0
12, 93080, Note_on_c, 8, 52, 85
12, 93119, Note_on_c, 8, 52, 0
12, 93120, Note_on_c, 8, 52, 83
12, 93159, Note_on_c, 8, 52, 0
12, 93160, Note_on_c, 8, 52, 82
12, 93199, Note_on_c, 8, 52, 0
12, 93200, Note_on_c, 8, 52, 80
12, 93239, Note_on_c, 8, 52, 0
12, 93240, Note_on_c, 8, 52, 84
12, 93359, Note_on_c, 8, 52, 0
12, 93360, Note_on_c, 8, 45, 84
12, 93599, Note_on_c, 8, 45, 0
12, 93720, Note_on_c, 8, 45, 84
12, 93839, Note_on_c, 8, 45, 0
12, 110640, Note_on_c, 8, 52, 76
12, 110879, Note_on_c, 8, 52, 0
12, 111000, Note_on_c, 8, 52, 76
12, 111239, Note_on_c, 8, 52, 0
12, 111360, Note_on_c, 8, 52, 76
12, 111599, Note_on_c, 8, 52, 0
12, 111720, Note_on_c, 8, 52, 76
12, 111959, Note_on_c, 8, 52, 0
12, 112080, Note_on_c, 8, 52, 76
12, 112319, Note_on_c, 8, 52, 0
12, 123600, Note_on_c, 8, 52, 84
12, 123839, Note_on_c, 8, 52, 0
12, 124680, Note_on_c, 8, 52, 84
12, 124851, Note_on_c, 8, 52, 0
12, 124860, Note_on_c, 8, 52, 84
12, 124911, Note_on_c, 8, 52, 0
12, 124920, Note_on_c, 8, 52, 84
12, 125024, Note_on_c, 8, 52, 0
12, 125040, Note_on_c, 8, 45, 84
12, 125279, Note_on_c, 8, 45, 0
12, 126120, Note_on_c, 8, 45, 84
12, 126291, Note_on_c, 8, 45, 0
12, 126300, Note_on_c, 8, 45, 84
12, 126351, Note_on_c, 8, 45, 0
12, 126360, Note_on_c, 8, 45, 84
12, 126464, Note_on_c, 8, 45, 0
12, 127920, Note_on_c, 8, 52, 84
12, 128159, Note_on_c, 8, 52, 0
12, 129000, Note_on_c, 8, 52, 84
12, 129171, Note_on_c, 8, 52, 0
12, 129180, Note_on_c, 8, 52, 84
12, 129231, Note_on_c, 8, 52, 0
12, 129240, Note_on_c, 8, 52, 84
12, 129344, Note_on_c, 8, 52, 0
12, 129360, Note_on_c, 8, 45, 84
12, 129599, Note_on_c, 8, 45, 0
12, 130440, Note_on_c, 8, 45, 84
12, 130611, Note_on_c, 8, 45, 0
12, 130620, Note_on_c, 8, 45, 84
12, 130671, Note_on_c, 8, 45, 0
12, 130680, Note_on_c, 8, 45, 84
12, 130784, Note_on_c, 8, 45, 0
12, 132240, Note_on_c, 8, 52, 84
12, 132479, Note_on_c, 8, 52, 0
12, 132600, Note_on_c, 8, 52, 84
12, 132839, Note_on_c, 8, 52, 0
12, 135120, Note_on_c, 8, 52, 84
12, 135359, Note_on_c, 8, 52, 0
12, 136560, Note_on_c, 8, 52, 84
12, 136799, Note_on_c, 8, 52, 0
12, 137280, Note_on_c, 8, 52, 84
12, 137399, Note_on_c, 8, 52, 0
12, 137520, Note_on_c, 8, 52, 84
12, 137639, Note_on_c, 8, 52, 0
12, 137880, Note_on_c, 8, 52, 84
12, 137999, Note_on_c, 8, 52, 0
12, 138240, Note_on_c, 8, 52, 84
12, 138359, Note_on_c, 8, 52, 0
12, 138600, Note_on_c, 8, 52, 84
12, 138719, Note_on_c, 8, 52, 0
12, 138960, Note_on_c, 8, 52, 84
12, 139079, Note_on_c, 8, 52, 0
12, 139320, Note_on_c, 8, 52, 84
12, 139439, Note_on_c, 8, 52, 0
12, 139680, Note_on_c, 8, 52, 84
12, 139799, Note_on_c, 8, 52, 0
12, 140040, Note_on_c, 8, 52, 84
12, 140159, Note_on_c, 8, 52, 0
12, 160320, Note_on_c, 8, 45, 84
12, 160499, Note_on_c, 8, 45, 0
12, 160500, Note_on_c, 8, 45, 84
12, 160559, Note_on_c, 8, 45, 0
12, 160560, Note_on_c, 8, 45, 84
12, 160679, Note_on_c, 8, 45, 0
12, 160680, Note_on_c, 8, 45, 84
12, 160859, Note_on_c, 8, 45, 0
12, 160860, Note_on_c, 8, 45, 84
12, 160919, Note_on_c, 8, 45, 0
12, 160920, Note_on_c, 8, 45, 84
12, 161039, Note_on_c, 8, 45, 0
12, 161040, Note_on_c, 8, 45, 84
12, 161219, Note_on_c, 8, 45, 0
12, 161220, Note_on_c, 8, 45, 84
12, 161279, Note_on_c, 8, 45, 0
12, 161280, Note_on_c, 8, 45, 84
12, 161399, Note_on_c, 8, 45, 0
12, 161400, Note_on_c, 8, 45, 84
12, 161579, Note_on_c, 8, 45, 0
12, 161580, Note_on_c, 8, 45, 84
12, 161639, Note_on_c, 8, 45, 0
12, 161640, Note_on_c, 8, 45, 84
12, 161759, Note_on_c, 8, 45, 0
12, 161760, Note_on_c, 8, 45, 84
12, 161939, Note_on_c, 8, 45, 0
12, 161940, Note_on_c, 8, 45, 84
12, 161999, Note_on_c, 8, 45, 0
12, 162000, Note_on_c, 8, 45, 84
12, 162119, Note_on_c, 8, 45, 0
12, 162120, Note_on_c, 8, 45, 84
12, 162299, Note_on_c, 8, 45, 0
12, 162300, Note_on_c, 8, 45, 84
12, 162359, Note_on_c, 8, 45, 0
12, 162360, Note_on_c, 8, 45, 84
12, 162479, Note_on_c, 8, 45, 0
12, 162480, Note_on_c, 8, 45, 84
12, 162659, Note_on_c, 8, 45, 0
12, 162660, Note_on_c, 8, 45, 84
12, 162719, Note_on_c, 8, 45, 0
12, 162720, Note_on_c, 8, 45, 84
12, 162839, Note_on_c, 8, 45, 0
12, 162840, Note_on_c, 8, 45, 84
12, 163019, Note_on_c, 8, 45, 0
12, 163020, Note_on_c, 8, 45, 84
12, 163079, Note_on_c, 8, 45, 0
12, 163080, Note_on_c, 8, 45, 84
12, 163199, Note_on_c, 8, 45, 0
12, 163200, Note_on_c, 8, 45, 84
12, 163379, Note_on_c, 8, 45, 0
12, 163380, Note_on_c, 8, 45, 84
12, 163439, Note_on_c, 8, 45, 0
12, 163440, Note_on_c, 8, 45, 84
12, 163559, Note_on_c, 8, 45, 0
12, 163560, Note_on_c, 8, 45, 84
12, 163739, Note_on_c, 8, 45, 0
12, 163740, Note_on_c, 8, 45, 84
12, 163799, Note_on_c, 8, 45, 0
12, 163800, Note_on_c, 8, 45, 84
12, 163919, Note_on_c, 8, 45, 0
12, 163920, Note_on_c, 8, 45, 84
12, 164099, Note_on_c, 8, 45, 0
12, 164100, Note_on_c, 8, 45, 84
12, 164159, Note_on_c, 8, 45, 0
12, 164160, Note_on_c, 8, 45, 84
12, 164279, Note_on_c, 8, 45, 0
12, 164280, Note_on_c, 8, 45, 84
12, 164459, Note_on_c, 8, 45, 0
12, 164460, Note_on_c, 8, 45, 84
12, 164519, Note_on_c, 8, 45, 0
12, 164520, Note_on_c, 8, 45, 84
12, 164639, Note_on_c, 8, 45, 0
12, 164640, Note_on_c, 8, 45, 84
12, 164819, Note_on_c, 8, 45, 0
12, 164820, Note_on_c, 8, 45, 84
12, 164879, Note_on_c, 8, 45, 0
12, 164880, Note_on_c, 8, 45, 84
12, 164999, Note_on_c, 8, 45, 0
12, 165000, Note_on_c, 8, 52, 84
12, 165179, Note_on_c, 8, 52, 0
12, 165180, Note_on_c, 8, 52, 84
12, 165239, Note_on_c, 8, 52, 0
12, 165240, Note_on_c, 8, 52, 84
12, 165359, Note_on_c, 8, 52, 0
12, 165360, Note_on_c, 8, 45, 84
12, 165539, Note_on_c, 8, 45, 0
12, 165540, Note_on_c, 8, 45, 84
12, 165599, Note_on_c, 8, 45, 0
12, 165600, Note_on_c, 8, 45, 84
12, 165719, Note_on_c, 8, 45, 0
12, 165720, Note_on_c, 8, 45, 84
12, 165899, Note_on_c, 8, 45, 0
12, 165900, Note_on_c, 8, 45, 84
12, 165959, Note_on_c, 8, 45, 0
12, 165960, Note_on_c, 8, 45, 84
12, 166079, Note_on_c, 8, 45, 0
12, 166080, Note_on_c, 8, 45, 84
12, 166319, Note_on_c, 8, 45, 0
12, 166800, Note_on_c, 8, 45, 84
12, 166979, Note_on_c, 8, 45, 0
12, 166980, Note_on_c, 8, 45, 84
12, 167039, Note_on_c, 8, 45, 0
12, 167040, Note_on_c, 8, 45, 84
12, 167159, Note_on_c, 8, 45, 0
12, 167160, Note_on_c, 8, 45, 84
12, 167339, Note_on_c, 8, 45, 0
12, 167340, Note_on_c, 8, 45, 84
12, 167399, Note_on_c, 8, 45, 0
12, 167400, Note_on_c, 8, 45, 84
12, 167519, Note_on_c, 8, 45, 0
12, 167520, Note_on_c, 8, 45, 84
12, 167759, Note_on_c, 8, 45, 0
12, 168240, Note_on_c, 8, 45, 84
12, 168419, Note_on_c, 8, 45, 0
12, 168420, Note_on_c, 8, 45, 84
12, 168479, Note_on_c, 8, 45, 0
12, 168480, Note_on_c, 8, 45, 84
12, 168599, Note_on_c, 8, 45, 0
12, 168600, Note_on_c, 8, 45, 84
12, 168839, Note_on_c, 8, 45, 0
12, 169260, Note_on_c, 8, 45, 52
12, 169319, Note_on_c, 8, 45, 0
12, 169320, Note_on_c, 8, 45, 52
12, 169559, Note_on_c, 8, 45, 0
12, 169980, Note_on_c, 8, 45, 56
12, 170039, Note_on_c, 8, 45, 0
12, 170040, Note_on_c, 8, 45, 56
12, 170279, Note_on_c, 8, 45, 0
12, 170700, Note_on_c, 8, 45, 60
12, 170759, Note_on_c, 8, 45, 0
12, 170760, Note_on_c, 8, 45, 61
12, 170999, Note_on_c, 8, 45, 0
12, 171420, Note_on_c, 8, 45, 64
12, 171479, Note_on_c, 8, 45, 0
12, 171480, Note_on_c, 8, 45, 65
12, 171719, Note_on_c, 8, 45, 0
12, 172140, Note_on_c, 8, 45, 69
12, 172199, Note_on_c, 8, 45, 0
12, 172200, Note_on_c, 8, 45, 69
12, 172439, Note_on_c, 8, 45, 0
12, 172500, Note_on_c, 8, 45, 71
12, 172559, Note_on_c, 8, 45, 0
12, 172560, Note_on_c, 8, 45, 71
12, 172799, Note_on_c, 8, 45, 0
12, 172860, Note_on_c, 8, 45, 73
12, 172919, Note_on_c, 8, 45, 0
12, 172920, Note_on_c, 8, 45, 73
12, 173159, Note_on_c, 8, 45, 0
12, 173220, Note_on_c, 8, 45, 75
12, 173279, Note_on_c, 8, 45, 0
12, 173280, Note_on_c, 8, 45, 75
12, 173519, Note_on_c, 8, 45, 0
12, 173580, Note_on_c, 8, 45, 77
12, 173639, Note_on_c, 8, 45, 0
12, 173640, Note_on_c, 8, 45, 77
12, 173879, Note_on_c, 8, 45, 0
12, 173940, Note_on_c, 8, 45, 79
12, 173999, Note_on_c, 8, 45, 0
12, 174000, Note_on_c, 8, 45, 79
12, 174239, Note_on_c, 8, 45, 0
12, 174300, Note_on_c, 8, 45, 81
12, 174359, Note_on_c, 8, 45, 0
12, 174360, Note_on_c, 8, 45, 81
12, 174599, Note_on_c, 8, 45, 0
12, 174660, Note_on_c, 8, 45, 83
12, 174719, Note_on_c, 8, 45, 0
12, 174720, Note_on_c, 8, 52, 87
12, 174759, Note_on_c, 8, 52, 0
12, 174760, Note_on_c, 8, 52, 83
12, 174799, Note_on_c, 8, 52, 0
12, 174800, Note_on_c, 8, 52, 80
12, 174839, Note_on_c, 8, 52, 0
12, 174840, Note_on_c, 8, 52, 80
12, 174879, Note_on_c, 8, 52, 0
12, 174880, Note_on_c, 8, 52, 80
12, 174919, Note_on_c, 8, 52, 0
12, 174920, Note_on_c, 8, 52, 83
12, 174959, Note_on_c, 8, 52, 0
12, 174960, Note_on_c, 8, 52, 84
12, 174999, Note_on_c, 8, 52, 0
12, 175000, Note_on_c, 8, 52, 84
12, 175039, Note_on_c, 8, 52, 0
12, 175040, Note_on_c, 8, 52, 84
12, 175079, Note_on_c, 8, 52, 0
12, 175080, Note_on_c, 8, 52, 84
12, 175119, Note_on_c, 8, 52, 0
12, 175120, Note_on_c, 8, 52, 81
12, 175159, Note_on_c, 8, 52, 0
12, 175160, Note_on_c, 8, 52, 85
12, 175199, Note_on_c, 8, 52, 0
12, 175200, Note_on_c, 8, 52, 83
12, 175239, Note_on_c, 8, 52, 0
12, 175240, Note_on_c, 8, 52, 82
12, 175279, Note_on_c, 8, 52, 0
12, 175280, Note_on_c, 8, 52, 80
12, 175319, Note_on_c, 8, 52, 0
12, 175320, Note_on_c, 8, 52, 84
12, 175439, Note_on_c, 8, 52, 0
12, 175440, Note_on_c, 8, 45, 84
12, 175679, Note_on_c, 8, 45, 0
12, 175800, Note_on_c, 8, 45, 84
12, 175919, Note_on_c, 8, 45, 0
12, 192720, Note_on_c, 8, 52, 76
12, 192959, Note_on_c, 8, 52, 0
12, 193080, Note_on_c, 8, 52, 76
12, 193319, Note_on_c, 8, 52, 0
12, 193440, Note_on_c, 8, 52, 76
12, 193679, Note_on_c, 8, 52, 0
12, 193800, Note_on_c, 8, 52, 76
12, 194039, Note_on_c, 8, 52, 0
12, 194160, Note_on_c, 8, 52, 76
12, 194399, Note_on_c, 8, 52, 0
12, 205680, Note_on_c, 8, 52, 84
12, 205919, Note_on_c, 8, 52, 0
12, 206760, Note_on_c, 8, 52, 84
12, 206931, Note_on_c, 8, 52, 0
12, 206940, Note_on_c, 8, 52, 84
12, 206991, Note_on_c, 8, 52, 0
12, 207000, Note_on_c, 8, 52, 84
12, 207104, Note_on_c, 8, 52, 0
12, 207120, Note_on_c, 8, 45, 84
12, 207359, Note_on_c, 8, 45, 0
12, 208200, Note_on_c, 8, 45, 84
12, 208371, Note_on_c, 8, 45, 0
12, 208380, Note_on_c, 8, 45, 84
12, 208431, Note_on_c, 8, 45, 0
12, 208440, Note_on_c, 8, 45, 84
12, 208544, Note_on_c, 8, 45, 0
12, 210000, Note_on_c, 8, 52, 84
12, 210239, Note_on_c, 8, 52, 0
12, 211080, Note_on_c, 8, 52, 84
12, 211251, Note_on_c, 8, 52, 0
12, 211260, Note_on_c, 8, 52, 84
12, 211311, Note_on_c, 8, 52, 0
12, 211320, Note_on_c, 8, 52, 84
12, 211424, Note_on_c, 8, 52, 0
12, 211440, Note_on_c, 8, 45, 84
12, 211679, Note_on_c, 8, 45, 0
12, 212520, Note_on_c, 8, 45, 84
12, 212691, Note_on_c, 8, 45, 0
12, 212700, Note_on_c, 8, 45, 84
12, 212751, Note_on_c, 8, 45, 0
12, 212760, Note_on_c, 8, 45, 84
12, 212864, Note_on_c, 8, 45, 0
12, 214320, Note_on_c, 8, 52, 84
12, 214559, Note_on_c, 8, 52, 0
12, 214680, Note_on_c, 8, 52, 84
12, 214919, Note_on_c, 8, 52, 0
12, 217200, Note_on_c, 8, 52, 84
12, 217439, Note_on_c, 8, 52, 0
12, 218640, Note_on_c, 8, 52, 84
12, 218879, Note_on_c, 8, 52, 0
12, 219360, Note_on_c, 8, 52, 84
12, 219479, Note_on_c, 8, 52, 0
12, 219600, Note_on_c, 8, 52, 84
12, 219719, Note_on_c, 8, 52, 0
12, 219960, Note_on_c, 8, 52, 84
12, 220079, Note_on_c, 8, 52, 0
12, 220320, Note_on_c, 8, 52, 84
12, 220439, Note_on_c, 8, 52, 0
12, 220680, Note_on_c, 8, 52, 84
12, 220799, Note_on_c, 8, 52, 0
12, 221040, Note_on_c, 8, 52, 84
12, 221159, Note_on_c, 8, 52, 0
12, 221400, Note_on_c, 8, 52, 84
12, 221519, Note_on_c, 8, 52, 0
12, 221760, Note_on_c, 8, 52, 84
12, 221879, Note_on_c, 8, 52, 0
12, 222120, Note_on_c, 8, 52, 84
12, 222239, Note_on_c, 8, 52, 0
12, 240960, Note_on_c, 8, 52, 76
12, 241199, Note_on_c, 8, 52, 0
12, 241680, Note_on_c, 8, 52, 76
12, 241919, Note_on_c, 8, 52, 0
12, 242400, Note_on_c, 8, 52, 76
12, 242639, Note_on_c, 8, 52, 0
12, 242760, Note_on_c, 8, 52, 76
12, 242999, Note_on_c, 8, 52, 0
12, 243120, Note_on_c, 8, 52, 76
12, 243359, Note_on_c, 8, 52, 0
12, 243480, Note_on_c, 8, 52, 76
12, 243719, Note_on_c, 8, 52, 0
12, 248160, Note_on_c, 8, 52, 84
12, 248399, Note_on_c, 8, 52, 0
12, 249600, Note_on_c, 8, 52, 84
12, 249839, Note_on_c, 8, 52, 0
12, 250320, Note_on_c, 8, 52, 84
12, 250559, Note_on_c, 8, 52, 0
12, 251040, Note_on_c, 8, 52, 84
12, 251279, Note_on_c, 8, 52, 0
12, 251400, Note_on_c, 8, 52, 84
12, 251639, Note_on_c, 8, 52, 0
12, 251760, Note_on_c, 8, 52, 84
12, 251999, Note_on_c, 8, 52, 0
12, 252120, Note_on_c, 8, 52, 84
12, 252359, Note_on_c, 8, 52, 0
12, 252480, Note_on_c, 8, 52, 84
12, 252719, Note_on_c, 8, 52, 0
12, 279120, Note_on_c, 8, 45, 84
12, 279239, Note_on_c, 8, 45, 0
12, 279300, Note_on_c, 8, 45, 84
12, 279359, Note_on_c, 8, 45, 0
12, 279360, Note_on_c, 8, 45, 84
12, 279479, Note_on_c, 8, 45, 0
12, 279480, Note_on_c, 8, 45, 84
12, 279599, Note_on_c, 8, 45, 0
12, 279660, Note_on_c, 8, 45, 84
12, 279719, Note_on_c, 8, 45, 0
12, 279720, Note_on_c, 8, 45, 84
12, 279839, Note_on_c, 8, 45, 0
12, 279840, Note_on_c, 8, 45, 84
12, 279959, Note_on_c, 8, 45, 0
12, 280020, Note_on_c, 8, 45, 84
12, 280079, Note_on_c, 8, 45, 0
12, 280080, Note_on_c, 8, 45, 84
12, 280199, Note_on_c, 8, 45, 0
12, 280200, Note_on_c, 8, 45, 84
12, 280319, Note_on_c, 8, 45, 0
12, 280380, Note_on_c, 8, 45, 84
12, 280439, Note_on_c, 8, 45, 0
12, 280440, Note_on_c, 8, 45, 84
12, 280559, Note_on_c, 8, 45, 0
12, 280560, Note_on_c, 8, 45, 80
12, 280599, Note_on_c, 8, 45, 0
12, 280600, Note_on_c, 8, 45, 84
12, 280639, Note_on_c, 8, 45, 0
12, 280640, Note_on_c, 8, 45, 81
12, 280679, Note_on_c, 8, 45, 0
12, 280680, Note_on_c, 8, 45, 86
12, 280719, Note_on_c, 8, 45, 0
12, 280720, Note_on_c, 8, 45, 84
12, 280759, Note_on_c, 8, 45, 0
12, 280760, Note_on_c, 8, 45, 83
12, 280799, Note_on_c, 8, 45, 0
12, 280800, Note_on_c, 8, 45, 82
12, 280839, Note_on_c, 8, 45, 0
12, 280840, Note_on_c, 8, 45, 87
12, 280879, Note_on_c, 8, 45, 0
12, 280880, Note_on_c, 8, 45, 86
12, 280919, Note_on_c, 8, 45, 0
12, 280920, Note_on_c, 8, 45, 85
12, 280959, Note_on_c, 8, 45, 0
12, 280960, Note_on_c, 8, 45, 81
12, 280999, Note_on_c, 8, 45, 0
12, 281000, Note_on_c, 8, 45, 86
12, 281039, Note_on_c, 8, 45, 0
12, 281040, Note_on_c, 8, 45, 85
12, 281079, Note_on_c, 8, 45, 0
12, 281080, Note_on_c, 8, 45, 84
12, 281119, Note_on_c, 8, 45, 0
12, 281120, Note_on_c, 8, 45, 82
12, 281159, Note_on_c, 8, 45, 0
12, 281160, Note_on_c, 8, 45, 80
12, 281199, Note_on_c, 8, 45, 0
12, 281200, Note_on_c, 8, 45, 80
12, 281239, Note_on_c, 8, 45, 0
12, 281240, Note_on_c, 8, 45, 82
12, 281279, Note_on_c, 8, 45, 0
12, 281280, Note_on_c, 8, 45, 81
12, 281319, Note_on_c, 8, 45, 0
12, 281320, Note_on_c, 8, 45, 81
12, 281359, Note_on_c, 8, 45, 0
12, 281360, Note_on_c, 8, 45, 87
12, 281399, Note_on_c, 8, 45, 0
12, 281400, Note_on_c, 8, 45, 83
12, 281439, Note_on_c, 8, 45, 0
12, 281440, Note_on_c, 8, 45, 80
12, 281479, Note_on_c, 8, 45, 0
12, 281480, Note_on_c, 8, 45, 80
12, 281519, Note_on_c, 8, 45, 0
12, 281520, Note_on_c, 8, 45, 80
12, 281559, Note_on_c, 8, 45, 0
12, 281560, Note_on_c, 8, 45, 83
12, 281599, Note_on_c, 8, 45, 0
12, 281600, Note_on_c, 8, 45, 84
12, 281639, Note_on_c, 8, 45, 0
12, 281640, Note_on_c, 8, 45, 84
12, 281679, Note_on_c, 8, 45, 0
12, 281680, Note_on_c, 8, 45, 84
12, 281719, Note_on_c, 8, 45, 0
12, 281720, Note_on_c, 8, 45, 84
12, 281759, Note_on_c, 8, 45, 0
12, 281760, Note_on_c, 8, 45, 81
12, 281799, Note_on_c, 8, 45, 0
12, 281800, Note_on_c, 8, 45, 85
12, 281839, Note_on_c, 8, 45, 0
12, 281840, Note_on_c, 8, 45, 83
12, 281879, Note_on_c, 8, 45, 0
12, 281880, Note_on_c, 8, 45, 82
12, 281919, Note_on_c, 8, 45, 0
12, 281920, Note_on_c, 8, 45, 80
12, 281959, Note_on_c, 8, 45, 0
12, 281960, Note_on_c, 8, 45, 84
12, 281999, Note_on_c, 8, 45, 0
12, 282000, Note_on_c, 8, 45, 84
12, 282119, Note_on_c, 8, 45, 0
12, 282180, Note_on_c, 8, 45, 84
12, 282239, Note_on_c, 8, 45, 0
12, 282240, Note_on_c, 8, 45, 84
12, 282359, Note_on_c, 8, 45, 0
12, 282360, Note_on_c, 8, 45, 84
12, 282479, Note_on_c, 8, 45, 0
12, 282540, Note_on_c, 8, 45, 84
12, 282599, Note_on_c, 8, 45, 0
12, 282600, Note_on_c, 8, 45, 84
12, 282719, Note_on_c, 8, 45, 0
12, 282720, Note_on_c, 8, 45, 84
12, 282839, Note_on_c, 8, 45, 0
12, 282900, Note_on_c, 8, 45, 84
12, 282959, Note_on_c, 8, 45, 0
12, 282960, Note_on_c, 8, 45, 84
12, 283079, Note_on_c, 8, 45, 0
12, 283080, Note_on_c, 8, 45, 84
12, 283199, Note_on_c, 8, 45, 0
12, 283260, Note_on_c, 8, 45, 84
12, 283319, Note_on_c, 8, 45, 0
12, 283320, Note_on_c, 8, 45, 84
12, 283439, Note_on_c, 8, 45, 0
12, 283440, Note_on_c, 8, 45, 86
12, 283479, Note_on_c, 8, 45, 0
12, 283480, Note_on_c, 8, 45, 86
12, 283519, Note_on_c, 8, 45, 0
12, 283520, Note_on_c, 8, 45, 84
12, 283559, Note_on_c, 8, 45, 0
12, 283560, Note_on_c, 8, 45, 82
12, 283599, Note_on_c, 8, 45, 0
12, 283600, Note_on_c, 8, 45, 87
12, 283639, Note_on_c, 8, 45, 0
12, 283640, Note_on_c, 8, 45, 85
12, 283679, Note_on_c, 8, 45, 0
12, 283680, Note_on_c, 8, 45, 87
12, 283719, Note_on_c, 8, 45, 0
12, 283720, Note_on_c, 8, 45, 87
12, 283759, Note_on_c, 8, 45, 0
12, 283760, Note_on_c, 8, 45, 84
12, 283799, Note_on_c, 8, 45, 0
12, 283800, Note_on_c, 8, 45, 81
12, 283839, Note_on_c, 8, 45, 0
12, 283840, Note_on_c, 8, 45, 83
12, 283879, Note_on_c, 8, 45, 0
12, 283880, Note_on_c, 8, 45, 81
12, 283919, Note_on_c, 8, 45, 0
12, 283920, Note_on_c, 8, 45, 86
12, 283959, Note_on_c, 8, 45, 0
12, 283960, Note_on_c, 8, 45, 81
12, 283999, Note_on_c, 8, 45, 0
12, 284000, Note_on_c, 8, 45, 86
12, 284039, Note_on_c, 8, 45, 0
12, 284040, Note_on_c, 8, 45, 86
12, 284079, Note_on_c, 8, 45, 0
12, 284080, Note_on_c, 8, 45, 87
12, 284119, Note_on_c, 8, 45, 0
12, 284120, Note_on_c, 8, 45, 87
12, 284159, Note_on_c, 8, 45, 0
12, 284160, Note_on_c, 8, 45, 84
12, 284199, Note_on_c, 8, 45, 0
12, 284200, Note_on_c, 8, 45, 83
12, 284239, Note_on_c, 8, 45, 0
12, 284240, Note_on_c, 8, 45, 82
12, 284279, Note_on_c, 8, 45, 0
12, 284280, Note_on_c, 8, 45, 82
12, 284319, Note_on_c, 8, 45, 0
12, 284320, Note_on_c, 8, 45, 86
12, 284359, Note_on_c, 8, 45, 0
12, 284360, Note_on_c, 8, 45, 80
12, 284399, Note_on_c, 8, 45, 0
12, 284400, Note_on_c, 8, 45, 83
12, 284439, Note_on_c, 8, 45, 0
12, 284440, Note_on_c, 8, 45, 80
12, 284479, Note_on_c, 8, 45, 0
12, 284480, Note_on_c, 8, 45, 85
12, 284519, Note_on_c, 8, 45, 0
12, 284520, Note_on_c, 8, 45, 80
12, 284559, Note_on_c, 8, 45, 0
12, 284560, Note_on_c, 8, 45, 80
12, 284599, Note_on_c, 8, 45, 0
12, 284600, Note_on_c, 8, 45, 87
12, 284639, Note_on_c, 8, 45, 0
12, 284640, Note_on_c, 8, 45, 82
12, 284679, Note_on_c, 8, 45, 0
12, 284680, Note_on_c, 8, 45, 82
12, 284719, Note_on_c, 8, 45, 0
12, 284720, Note_on_c, 8, 45, 84
12, 284759, Note_on_c, 8, 45, 0
12, 284760, Note_on_c, 8, 45, 85
12, 284799, Note_on_c, 8, 45, 0
12, 284800, Note_on_c, 8, 45, 86
12, 284839, Note_on_c, 8, 45, 0
12, 284840, Note_on_c, 8, 45, 85
12, 284879, Note_on_c, 8, 45, 0
12, 284880, Note_on_c, 8, 52, 84
12, 284999, Note_on_c, 8, 52, 0
12, 285060, Note_on_c, 8, 52, 84
12, 285119, Note_on_c, 8, 52, 0
12, 285120, Note_on_c, 8, 52, 84
12, 285239, Note_on_c, 8, 52, 0
12, 285240, Note_on_c, 8, 52, 84
12, 285359, Note_on_c, 8, 52, 0
12, 285420, Note_on_c, 8, 52, 84
12, 285479, Note_on_c, 8, 52, 0
12, 285480, Note_on_c, 8, 52, 84
12, 285599, Note_on_c, 8, 52, 0
12, 285600, Note_on_c, 8, 52, 84
12, 285719, Note_on_c, 8, 52, 0
12, 285780, Note_on_c, 8, 52, 84
12, 285839, Note_on_c, 8, 52, 0
12, 285840, Note_on_c, 8, 52, 84
12, 285959, Note_on_c, 8, 52, 0
12, 285960, Note_on_c, 8, 52, 84
12, 286079, Note_on_c, 8, 52, 0
12, 286140, Note_on_c, 8, 52, 84
12, 286199, Note_on_c, 8, 52, 0
12, 286200, Note_on_c, 8, 52, 84
12, 286319, Note_on_c, 8, 52, 0
12, 286320, Note_on_c, 8, 52, 84
12, 286559, Note_on_c, 8, 52, 0
12, 295680, Note_on_c, 8, 45, 76
12, 295799, Note_on_c, 8, 45, 0
12, 295860, Note_on_c, 8, 45, 76
12, 295919, Note_on_c, 8, 45, 0
12, 295920, Note_on_c, 8, 45, 76
12, 296039, Note_on_c, 8, 45, 0
12, 296040, Note_on_c, 8, 45, 80
12, 296159, Note_on_c, 8, 45, 0
12, 296220, Note_on_c, 8, 45, 80
12, 296279, Note_on_c, 8, 45, 0
12, 296280, Note_on_c, 8, 45, 80
12, 296399, Note_on_c, 8, 45, 0
12, 296400, Note_on_c, 8, 45, 84
12, 296639, Note_on_c, 8, 45, 0
12, 297780, Note_on_c, 8, 45, 84
12, 297839, Note_on_c, 8, 45, 0
12, 297840, Note_on_c, 8, 45, 84
12, 298079, Note_on_c, 8, 45, 0
12, 299220, Note_on_c, 8, 45, 84
12, 299279, Note_on_c, 8, 45, 0
12, 299280, Note_on_c, 8, 45, 84
12, 299519, Note_on_c, 8, 45, 0
12, 300660, Note_on_c, 8, 45, 84
12, 300719, Note_on_c, 8, 45, 0
12, 300720, Note_on_c, 8, 45, 84
12, 300959, Note_on_c, 8, 45, 0
12, 301020, Note_on_c, 8, 45, 84
12, 301079, Note_on_c, 8, 45, 0
12, 301080, Note_on_c, 8, 52, 84
12, 301319, Note_on_c, 8, 52, 0
12, 301380, Note_on_c, 8, 52, 84
12, 301439, Note_on_c, 8, 52, 0
12, 301440, Note_on_c, 8, 45, 84
12, 301679, Note_on_c, 8, 45, 0
12, 301740, Note_on_c, 8, 45, 84
12, 301799, Note_on_c, 8, 45, 0
12, 301800, Note_on_c, 8, 45, 84
12, 302039, Note_on_c, 8, 45, 0
12, 302100, Note_on_c, 8, 45, 84
12, 302159, Note_on_c, 8, 45, 0
12, 302160, Note_on_c, 8, 45, 84
12, 302399, Note_on_c, 8, 45, 0
12, 304260, Note_on_c, 8, 45, 84
12, 304319, Note_on_c, 8, 45, 0
12, 304320, Note_on_c, 8, 45, 84
12, 304559, Note_on_c, 8, 45, 0
12, 306420, Note_on_c, 8, 52, 84
12, 306479, Note_on_c, 8, 52, 0
12, 306480, Note_on_c, 8, 52, 84
12, 306719, Note_on_c, 8, 52, 0
12, 307140, Note_on_c, 8, 52, 84
12, 307199, Note_on_c, 8, 52, 0
12, 307200, Note_on_c, 8, 52, 84
12, 307439, Note_on_c, 8, 52, 0
12, 307860, Note_on_c, 8, 52, 84
12, 307919, Note_on_c, 8, 52, 0
12, 307920, Note_on_c, 8, 52, 84
12, 308159, Note_on_c, 8, 52, 0
12, 308580, Note_on_c, 8, 52, 84
12, 308639, Note_on_c, 8, 52, 0
12, 308640, Note_on_c, 8, 52, 84
12, 308879, Note_on_c, 8, 52, 0
12, 309300, Note_on_c, 8, 52, 84
12, 309359, Note_on_c, 8, 52, 0
12, 309360, Note_on_c, 8, 52, 84
12, 309599, Note_on_c, 8, 52, 0
12, 310020, Note_on_c, 8, 52, 84
12, 310079, Note_on_c, 8, 52, 0
12, 310080, Note_on_c, 8, 52, 84
12, 310319, Note_on_c, 8, 52, 0
12, 310380, Note_on_c, 8, 52, 84
12, 310439, Note_on_c, 8, 52, 0
12, 310440, Note_on_c, 8, 52, 84
12, 310679, Note_on_c, 8, 52, 0
12, 310740, Note_on_c, 8, 52, 84
12, 310799, Note_on_c, 8, 52, 0
12, 310800, Note_on_c, 8, 52, 84
12, 311039, Note_on_c, 8, 52, 0
12, 311100, Note_on_c, 8, 52, 84
12, 311159, Note_on_c, 8, 52, 0
12, 311160, Note_on_c, 8, 52, 84
12, 311399, Note_on_c, 8, 52, 0
12, 311460, Note_on_c, 8, 52, 84
12, 311519, Note_on_c, 8, 52, 0
12, 311520, Note_on_c, 8, 52, 84
12, 311759, Note_on_c, 8, 52, 0
12, 323040, Note_on_c, 8, 45, 44
12, 323219, Note_on_c, 8, 45, 0
12, 323220, Note_on_c, 8, 45, 44
12, 323279, Note_on_c, 8, 45, 0
12, 323280, Note_on_c, 8, 45, 44
12, 323399, Note_on_c, 8, 45, 0
12, 323400, Note_on_c, 8, 45, 44
12, 323579, Note_on_c, 8, 45, 0
12, 323580, Note_on_c, 8, 45, 44
12, 323639, Note_on_c, 8, 45, 0
12, 323640, Note_on_c, 8, 45, 44
12, 323759, Note_on_c, 8, 45, 0
12, 323760, Note_on_c, 8, 45, 44
12, 323939, Note_on_c, 8, 45, 0
12, 323940, Note_on_c, 8, 45, 44
12, 323999, Note_on_c, 8, 45, 0
12, 324000, Note_on_c, 8, 45, 44
12, 324119, Note_on_c, 8, 45, 0
12, 324120, Note_on_c, 8, 45, 44
12, 324299, Note_on_c, 8, 45, 0
12, 324300, Note_on_c, 8, 45, 44
12, 324359, Note_on_c, 8, 45, 0
12, 324360, Note_on_c, 8, 45, 44
12, 324479, Note_on_c, 8, 45, 0
12, 324480, Note_on_c, 8, 45, 44
12, 324659, Note_on_c, 8, 45, 0
12, 324660, Note_on_c, 8, 45, 44
12, 324719, Note_on_c, 8, 45, 0
12, 324720, Note_on_c, 8, 45, 44
12, 324839, Note_on_c, 8, 45, 0
12, 324840, Note_on_c, 8, 45, 44
12, 325019, Note_on_c, 8, 45, 0
12, 325020, Note_on_c, 8, 45, 44
12, 325079, Note_on_c, 8, 45, 0
12, 325080, Note_on_c, 8, 45, 44
12, 325199, Note_on_c, 8, 45, 0
12, 325200, Note_on_c, 8, 45, 44
12, 325379, Note_on_c, 8, 45, 0
12, 325380, Note_on_c, 8, 45, 44
12, 325439, Note_on_c, 8, 45, 0
12, 325440, Note_on_c, 8, 45, 44
12, 325559, Note_on_c, 8, 45, 0
12, 325560, Note_on_c, 8, 45, 44
12, 325739, Note_on_c, 8, 45, 0
12, 325740, Note_on_c, 8, 45, 44
12, 325799, Note_on_c, 8, 45, 0
12, 325800, Note_on_c, 8, 45, 44
12, 325919, Note_on_c, 8, 45, 0
12, 325920, Note_on_c, 8, 45, 44
12, 325979, Note_on_c, 8, 45, 0
12, 325980, Note_on_c, 8, 45, 44
12, 326039, Note_on_c, 8, 45, 0
12, 326040, Note_on_c, 8, 45, 45
12, 326099, Note_on_c, 8, 45, 0
12, 326100, Note_on_c, 8, 45, 46
12, 326159, Note_on_c, 8, 45, 0
12, 326160, Note_on_c, 8, 45, 47
12, 326219, Note_on_c, 8, 45, 0
12, 326220, Note_on_c, 8, 45, 48
12, 326279, Note_on_c, 8, 45, 0
12, 326280, Note_on_c, 8, 45, 49
12, 326339, Note_on_c, 8, 45, 0
12, 326340, Note_on_c, 8, 45, 49
12, 326399, Note_on_c, 8, 45, 0
12, 326400, Note_on_c, 8, 45, 50
12, 326459, Note_on_c, 8, 45, 0
12, 326460, Note_on_c, 8, 45, 51
12, 326519, Note_on_c, 8, 45, 0
12, 326520, Note_on_c, 8, 45, 52
12, 326579, Note_on_c, 8, 45, 0
12, 326580, Note_on_c, 8, 45, 53
12, 326639, Note_on_c, 8, 45, 0
12, 326640, Note_on_c, 8, 45, 54
12, 326699, Note_on_c, 8, 45, 0
12, 326700, Note_on_c, 8, 45, 54
12, 326759, Note_on_c, 8, 45, 0
12, 326760, Note_on_c, 8, 45, 55
12, 326819, Note_on_c, 8, 45, 0
12, 326820, Note_on_c, 8, 45, 56
12, 326879, Note_on_c, 8, 45, 0
12, 326880, Note_on_c, 8, 45, 57
12, 326939, Note_on_c, 8, 45, 0
12, 326940, Note_on_c, 8, 45, 58
12, 326999, Note_on_c, 8, 45, 0
12, 327000, Note_on_c, 8, 45, 59
12, 327059, Note_on_c, 8, 45, 0
12, 327060, Note_on_c, 8, 45, 59
12, 327119, Note_on_c, 8, 45, 0
12, 327120, Note_on_c, 8, 45, 60
12, 327179, Note_on_c, 8, 45, 0
12, 327180, Note_on_c, 8, 45, 61
12, 327239, Note_on_c, 8, 45, 0
12, 327240, Note_on_c, 8, 45, 62
12, 327299, Note_on_c, 8, 45, 0
12, 327300, Note_on_c, 8, 45, 63
12, 327359, Note_on_c, 8, 45, 0
12, 327360, Note_on_c, 8, 45, 64
12, 327419, Note_on_c, 8, 45, 0
12, 327420, Note_on_c, 8, 45, 64
12, 327479, Note_on_c, 8, 45, 0
12, 327480, Note_on_c, 8, 45, 65
12, 327539, Note_on_c, 8, 45, 0
12, 327540, Note_on_c, 8, 45, 66
12, 327599, Note_on_c, 8, 45, 0
12, 327600, Note_on_c, 8, 45, 67
12, 327659, Note_on_c, 8, 45, 0
12, 327660, Note_on_c, 8, 45, 68
12, 327719, Note_on_c, 8, 45, 0
12, 327720, Note_on_c, 8, 45, 69
12, 327779, Note_on_c, 8, 45, 0
12, 327780, Note_on_c, 8, 45, 69
12, 327839, Note_on_c, 8, 45, 0
12, 327840, Note_on_c, 8, 45, 70
12, 327899, Note_on_c, 8, 45, 0
12, 327900, Note_on_c, 8, 45, 71
12, 327959, Note_on_c, 8, 45, 0
12, 327960, Note_on_c, 8, 45, 72
12, 328019, Note_on_c, 8, 45, 0
12, 328020, Note_on_c, 8, 45, 73
12, 328079, Note_on_c, 8, 45, 0
12, 328080, Note_on_c, 8, 45, 74
12, 328139, Note_on_c, 8, 45, 0
12, 328140, Note_on_c, 8, 45, 74
12, 328199, Note_on_c, 8, 45, 0
12, 328200, Note_on_c, 8, 45, 75
12, 328259, Note_on_c, 8, 45, 0
12, 328260, Note_on_c, 8, 45, 76
12, 328319, Note_on_c, 8, 45, 0
12, 328320, Note_on_c, 8, 45, 77
12, 328379, Note_on_c, 8, 45, 0
12, 328380, Note_on_c, 8, 45, 78
12, 328439, Note_on_c, 8, 45, 0
12, 328440, Note_on_c, 8, 45, 79
12, 328499, Note_on_c, 8, 45, 0
12, 328500, Note_on_c, 8, 45, 79
12, 328559, Note_on_c, 8, 45, 0
12, 328560, Note_on_c, 8, 45, 80
12, 328619, Note_on_c, 8, 45, 0
12, 328620, Note_on_c, 8, 45, 81
12, 328679, Note_on_c, 8, 45, 0
12, 328680, Note_on_c, 8, 45, 82
12, 328739, Note_on_c, 8, 45, 0
12, 328740, Note_on_c, 8, 45, 83
12, 328799, Note_on_c, 8, 45, 0
12, 328800, Note_on_c, 8, 45, 80
12, 328839, Note_on_c, 8, 45, 0
12, 328840, Note_on_c, 8, 45, 84
12, 328879, Note_on_c, 8, 45, 0
12, 328880, Note_on_c, 8, 45, 81
12, 328919, Note_on_c, 8, 45, 0
12, 328920, Note_on_c, 8, 45, 86
12, 328959, Note_on_c, 8, 45, 0
12, 328960, Note_on_c, 8, 45, 84
12, 328999, Note_on_c, 8, 45, 0
12, 329000, Note_on_c, 8, 45, 83
12, 329039, Note_on_c, 8, 45, 0
12, 329040, Note_on_c, 8, 45, 82
12, 329079, Note_on_c, 8, 45, 0
12, 329080, Note_on_c, 8, 45, 87
12, 329119, Note_on_c, 8, 45, 0
12, 329120, Note_on_c, 8, 45, 86
12, 329159, Note_on_c, 8, 45, 0
12, 329160, Note_on_c, 8, 45, 85
12, 329199, Note_on_c, 8, 45, 0
12, 329200, Note_on_c, 8, 45, 81
12, 329239, Note_on_c, 8, 45, 0
12, 329240, Note_on_c, 8, 45, 86
12, 329279, Note_on_c, 8, 45, 0
12, 329280, Note_on_c, 8, 45, 85
12, 329319, Note_on_c, 8, 45, 0
12, 329320, Note_on_c, 8, 45, 84
12, 329359, Note_on_c, 8, 45, 0
12, 329360, Note_on_c, 8, 45, 82
12, 329399, Note_on_c, 8, 45, 0
12, 329400, Note_on_c, 8, 45, 80
12, 329439, Note_on_c, 8, 45, 0
12, 329440, Note_on_c, 8, 45, 80
12, 329479, Note_on_c, 8, 45, 0
12, 329480, Note_on_c, 8, 45, 82
12, 329519, Note_on_c, 8, 45, 0
12, 329520, Note_on_c, 8, 52, 81
12, 329559, Note_on_c, 8, 52, 0
12, 329560, Note_on_c, 8, 52, 81
12, 329599, Note_on_c, 8, 52, 0
12, 329600, Note_on_c, 8, 52, 87
12, 329639, Note_on_c, 8, 52, 0
12, 329640, Note_on_c, 8, 52, 83
12, 329679, Note_on_c, 8, 52, 0
12, 329680, Note_on_c, 8, 52, 80
12, 329719, Note_on_c, 8, 52, 0
12, 329720, Note_on_c, 8, 52, 80
12, 329759, Note_on_c, 8, 52, 0
12, 329760, Note_on_c, 8, 52, 80
12, 329799, Note_on_c, 8, 52, 0
12, 329800, Note_on_c, 8, 52, 83
12, 329839, Note_on_c, 8, 52, 0
12, 329840, Note_on_c, 8, 52, 84
12, 329879, Note_on_c, 8, 52, 0
12, 329880, Note_on_c, 8, 52, 84
12, 329999, Note_on_c, 8, 52, 0
12, 330000, Note_on_c, 8, 52, 84
12, 330119, Note_on_c, 8, 52, 0
12, 330120, Note_on_c, 8, 52, 84
12, 330239, Note_on_c, 8, 52, 0
12, 330240, Note_on_c, 8, 45, 84
12, 330359, Note_on_c, 8, 45, 0
12, 330480, Note_on_c, 8, 45, 84
12, 330599, Note_on_c, 8, 45, 0
12, 330600, Note_on_c, 8, 45, 84
12, 330719, Note_on_c, 8, 45, 0
12, 330840, Note_on_c, 8, 45, 84
12, 330959, Note_on_c, 8, 45, 0
12, 330960, Note_on_c, 8, 52, 52
12, 331079, Note_on_c, 8, 52, 0
12, 334560, Note_on_c, 8, 45, 76
12, 334799, Note_on_c, 8, 45, 0
12, 335280, Note_on_c, 8, 52, 76
12, 335519, Note_on_c, 8, 52, 0
12, 335520, Note_on_c, 8, 52, 76
12, 335639, Note_on_c, 8, 52, 0
12, 335640, Note_on_c, 8, 52, 76
12, 335879, Note_on_c, 8, 52, 0
12, 335880, Note_on_c, 8, 52, 76
12, 335999, Note_on_c, 8, 52, 0
12, 336000, Note_on_c, 8, 52, 76
12, 336239, Note_on_c, 8, 52, 0
12, 336720, Note_on_c, 8, 52, 76
12, 336959, Note_on_c, 8, 52, 0
12, 336960, Note_on_c, 8, 52, 76
12, 337079, Note_on_c, 8, 52, 0
12, 337080, Note_on_c, 8, 52, 76
12, 337319, Note_on_c, 8, 52, 0
12, 337320, Note_on_c, 8, 52, 76
12, 337439, Note_on_c, 8, 52, 0
12, 337440, Note_on_c, 8, 45, 76
12, 337679, Note_on_c, 8, 45, 0
12, 337680, Note_on_c, 8, 45, 76
12, 337799, Note_on_c, 8, 45, 0
12, 337800, Note_on_c, 8, 45, 76
12, 338039, Note_on_c, 8, 45, 0
12, 338040, Note_on_c, 8, 45, 76
12, 338159, Note_on_c, 8, 45, 0
12, 338160, Note_on_c, 8, 52, 76
12, 338279, Note_on_c, 8, 52, 0
12, 338280, Note_on_c, 8, 52, 76
12, 338399, Note_on_c, 8, 52, 0
12, 338520, Note_on_c, 8, 52, 76
12, 338639, Note_on_c, 8, 52, 0
12, 338640, Note_on_c, 8, 52, 76
12, 338759, Note_on_c, 8, 52, 0
12, 338880, Note_on_c, 8, 52, 76
12, 338999, Note_on_c, 8, 52, 0
12, 339000, Note_on_c, 8, 52, 76
12, 339119, Note_on_c, 8, 52, 0
12, 339240, Note_on_c, 8, 52, 76
12, 339359, Note_on_c, 8, 52, 0
12, 339360, Note_on_c, 8, 52, 76
12, 339479, Note_on_c, 8, 52, 0
12, 339600, Note_on_c, 8, 52, 76
12, 339719, Note_on_c, 8, 52, 0
12, 339720, Note_on_c, 8, 52, 76
12, 339839, Note_on_c, 8, 52, 0
12, 339960, Note_on_c, 8, 52, 76
12, 340079, Note_on_c, 8, 52, 0
12, 340080, Note_on_c, 8, 52, 76
12, 340199, Note_on_c, 8, 52, 0
12, 340320, Note_on_c, 8, 52, 76
12, 340439, Note_on_c, 8, 52, 0
12, 340440, Note_on_c, 8, 52, 76
12, 340559, Note_on_c, 8, 52, 0
12, 340680, Note_on_c, 8, 52, 76
12, 340799, Note_on_c, 8, 52, 0
12, 340800, Note_on_c, 8, 52, 76
12, 340919, Note_on_c, 8, 52, 0
12, 345360, Note_on_c, 8, 45, 84
12, 345599, Note_on_c, 8, 45, 0
12, 345720, Note_on_c, 8, 45, 84
12, 345959, Note_on_c, 8, 45, 0
12, 346080, Note_on_c, 8, 45, 84
12, 346319, Note_on_c, 8, 45, 0
12, 346440, Note_on_c, 8, 45, 84
12, 346679, Note_on_c, 8, 45, 0
12, 346680, Note_on_c, 8, 52, 84
12, 346799, Note_on_c, 8, 52, 0
12, 346800, Note_on_c, 8, 45, 84
12, 347039, Note_on_c, 8, 45, 0
12, 358320, Note_on_c, 8, 45, 84
12, 358559, Note_on_c, 8, 45, 0
12, 359400, Note_on_c, 8, 45, 84
12, 359579, Note_on_c, 8, 45, 0
12, 359580, Note_on_c, 8, 45, 84
12, 359639, Note_on_c, 8, 45, 0
12, 359640, Note_on_c, 8, 45, 84
12, 359759, Note_on_c, 8, 45, 0
12, 359760, Note_on_c, 8, 45, 84
12, 359999, Note_on_c, 8, 45, 0
12, 360840, Note_on_c, 8, 45, 84
12, 361019, Note_on_c, 8, 45, 0
12, 361020, Note_on_c, 8, 45, 84
12, 361079, Note_on_c, 8, 45, 0
12, 361080, Note_on_c, 8, 45, 84
12, 361199, Note_on_c, 8, 45, 0
12, 362640, Note_on_c, 8, 45, 84
12, 362879, Note_on_c, 8, 45, 0
12, 363720, Note_on_c, 8, 45, 84
12, 363899, Note_on_c, 8, 45, 0
12, 363900, Note_on_c, 8, 45, 84
12, 363959, Note_on_c, 8, 45, 0
12, 363960, Note_on_c, 8, 45, 84
12, 364079, Note_on_c, 8, 45, 0
12, 364080, Note_on_c, 8, 45, 84
12, 364319, Note_on_c, 8, 45, 0
12, 365160, Note_on_c, 8, 45, 84
12, 365339, Note_on_c, 8, 45, 0
12, 365340, Note_on_c, 8, 45, 84
12, 365399, Note_on_c, 8, 45, 0
12, 365400, Note_on_c, 8, 45, 84
12, 365519, Note_on_c, 8, 45, 0
12, 366960, Note_on_c, 8, 45, 84
12, 367199, Note_on_c, 8, 45, 0
12, 367320, Note_on_c, 8, 45, 84
12, 367559, Note_on_c, 8, 45, 0
12, 367680, Note_on_c, 8, 52, 84
12, 367919, Note_on_c, 8, 52, 0
12, 368400, Note_on_c, 8, 52, 84
12, 368639, Note_on_c, 8, 52, 0
12, 368760, Note_on_c, 8, 52, 84
12, 368999, Note_on_c, 8, 52, 0
12, 369120, Note_on_c, 8, 52, 84
12, 369359, Note_on_c, 8, 52, 0
12, 369840, Note_on_c, 8, 45, 84
12, 370079, Note_on_c, 8, 45, 0
12, 370200, Note_on_c, 8, 52, 84
12, 370439, Note_on_c, 8, 52, 0
12, 370560, Note_on_c, 8, 52, 84
12, 370799, Note_on_c, 8, 52, 0
12, 371280, Note_on_c, 8, 45, 84
12, 371519, Note_on_c, 8, 45, 0
12, 371640, Note_on_c, 8, 52, 84
12, 371879, Note_on_c, 8, 52, 0
12, 372000, Note_on_c, 8, 45, 84
12, 372119, Note_on_c, 8, 45, 0
12, 372240, Note_on_c, 8, 45, 84
12, 372359, Note_on_c, 8, 45, 0
12, 372600, Note_on_c, 8, 45, 84
12, 372719, Note_on_c, 8, 45, 0
12, 372960, Note_on_c, 8, 45, 84
12, 373079, Note_on_c, 8, 45, 0
12, 373320, Note_on_c, 8, 45, 84
12, 373439, Note_on_c, 8, 45, 0
12, 373680, Note_on_c, 8, 45, 84
12, 373799, Note_on_c, 8, 45, 0
12, 374040, Note_on_c, 8, 45, 84
12, 374159, Note_on_c, 8, 45, 0
12, 374400, Note_on_c, 8, 45, 84
12, 374519, Note_on_c, 8, 45, 0
12, 374760, Note_on_c, 8, 45, 84
12, 374879, Note_on_c, 8, 45, 0
12, 391080, Note_on_c, 8, 52, 52
12, 391319, Note_on_c, 8, 52, 0
12, 392520, Note_on_c, 8, 52, 52
12, 392759, Note_on_c, 8, 52, 0
12, 393960, Note_on_c, 8, 52, 45
12, 394199, Note_on_c, 8, 52, 0
12, 395400, Note_on_c, 8, 52, 51
12, 395639, Note_on_c, 8, 52, 0
12, 396840, Note_on_c, 8, 52, 57
12, 397079, Note_on_c, 8, 52, 0
12, 398280, Note_on_c, 8, 52, 63
12, 398519, Note_on_c, 8, 52, 0
12, 399480, Note_on_c, 8, 52, 69
12, 399599, Note_on_c, 8, 52, 0
12, 399600, Note_on_c, 8, 52, 70
12, 399719, Note_on_c, 8, 52, 0
12, 399720, Note_on_c, 8, 52, 72
12, 399839, Note_on_c, 8, 52, 0
12, 399840, Note_on_c, 8, 52, 73
12, 399959, Note_on_c, 8, 52, 0
12, 399960, Note_on_c, 8, 52, 74
12, 400079, Note_on_c, 8, 52, 0
12, 400080, Note_on_c, 8, 52, 76
12, 400199, Note_on_c, 8, 52, 0
12, 400200, Note_on_c, 8, 52, 77
12, 400319, Note_on_c, 8, 52, 0
12, 400320, Note_on_c, 8, 52, 78
12, 400439, Note_on_c, 8, 52, 0
12, 400440, Note_on_c, 8, 52, 80
12, 400559, Note_on_c, 8, 52, 0
12, 400560, Note_on_c, 8, 52, 81
12, 400679, Note_on_c, 8, 52, 0
12, 400680, Note_on_c, 8, 52, 82
12, 400799, Note_on_c, 8, 52, 0
12, 400800, Note_on_c, 8, 45, 84
12, 400979, Note_on_c, 8, 45, 0
12, 400980, Note_on_c, 8, 45, 84
12, 401039, Note_on_c, 8, 45, 0
12, 401040, Note_on_c, 8, 45, 84
12, 401159, Note_on_c, 8, 45, 0
12, 401160, Note_on_c, 8, 45, 84
12, 401339, Note_on_c, 8, 45, 0
12, 401340, Note_on_c, 8, 45, 84
12, 401399, Note_on_c, 8, 45, 0
12, 401400, Note_on_c, 8, 45, 84
12, 401519, Note_on_c, 8, 45, 0
12, 401520, Note_on_c, 8, 45, 84
12, 401699, Note_on_c, 8, 45, 0
12, 401700, Note_on_c, 8, 45, 84
12, 401759, Note_on_c, 8, 45, 0
12, 401760, Note_on_c, 8, 45, 84
12, 401879, Note_on_c, 8, 45, 0
12, 401880, Note_on_c, 8, 45, 84
12, 402059, Note_on_c, 8, 45, 0
12, 402060, Note_on_c, 8, 45, 84
12, 402119, Note_on_c, 8, 45, 0
12, 402120, Note_on_c, 8, 45, 84
12, 402239, Note_on_c, 8, 45, 0
12, 402240, Note_on_c, 8, 45, 84
12, 402419, Note_on_c, 8, 45, 0
12, 402420, Note_on_c, 8, 45, 84
12, 402479, Note_on_c, 8, 45, 0
12, 402480, Note_on_c, 8, 45, 84
12, 402599, Note_on_c, 8, 45, 0
12, 402600, Note_on_c, 8, 45, 84
12, 402779, Note_on_c, 8, 45, 0
12, 402780, Note_on_c, 8, 45, 84
12, 402839, Note_on_c, 8, 45, 0
12, 402840, Note_on_c, 8, 45, 84
12, 402959, Note_on_c, 8, 45, 0
12, 402960, Note_on_c, 8, 45, 84
12, 403139, Note_on_c, 8, 45, 0
12, 403140, Note_on_c, 8, 45, 84
12, 403199, Note_on_c, 8, 45, 0
12, 403200, Note_on_c, 8, 45, 84
12, 403319, Note_on_c, 8, 45, 0
12, 403320, Note_on_c, 8, 45, 84
12, 403499, Note_on_c, 8, 45, 0
12, 403500, Note_on_c, 8, 45, 84
12, 403559, Note_on_c, 8, 45, 0
12, 403560, Note_on_c, 8, 45, 84
12, 403679, Note_on_c, 8, 45, 0
12, 403680, Note_on_c, 8, 52, 84
12, 403919, Note_on_c, 8, 52, 0
12, 404400, Note_on_c, 8, 52, 84
12, 404639, Note_on_c, 8, 52, 0
12, 405120, Note_on_c, 8, 52, 84
12, 405359, Note_on_c, 8, 52, 0
12, 405840, Note_on_c, 8, 45, 84
12, 406079, Note_on_c, 8, 45, 0
12, 406200, Note_on_c, 8, 45, 84
12, 406439, Note_on_c, 8, 45, 0
12, 406560, Note_on_c, 8, 45, 84
12, 406799, Note_on_c, 8, 45, 0
12, 406920, Note_on_c, 8, 45, 84
12, 407159, Note_on_c, 8, 45, 0
12, 407280, Note_on_c, 8, 45, 84
12, 407519, Note_on_c, 8, 45, 0
12, 408000, Note_on_c, 8, 45, 84
12, 408239, Note_on_c, 8, 45, 0
12, 408720, Note_on_c, 8, 52, 84
12, 408959, Note_on_c, 8, 52, 0
12, 409440, Note_on_c, 8, 52, 84
12, 409679, Note_on_c, 8, 52, 0
12, 410160, Note_on_c, 8, 45, 84
12, 410399, Note_on_c, 8, 45, 0
12, 410880, Note_on_c, 8, 52, 84
12, 411119, Note_on_c, 8, 52, 0
12, 411600, Note_on_c, 8, 45, 84
12, 411839, Note_on_c, 8, 45, 0
12, 411960, Note_on_c, 8, 45, 84
12, 412199, Note_on_c, 8, 45, 0
12, 412320, Note_on_c, 8, 52, 84
12, 412559, Note_on_c, 8, 52, 0
12, 412680, Note_on_c, 8, 45, 84
12, 412919, Note_on_c, 8, 45, 0
12, 413040, Note_on_c, 8, 45, 84
12, 413159, Note_on_c, 8, 45, 0
12, 413220, Note_on_c, 8, 45, 84
12, 413279, Note_on_c, 8, 45, 0
12, 413280, Note_on_c, 8, 45, 84
12, 413399, Note_on_c, 8, 45, 0
12, 413400, Note_on_c, 8, 45, 84
12, 413519, Note_on_c, 8, 45, 0
12, 413580, Note_on_c, 8, 52, 84
12, 413639, Note_on_c, 8, 52, 0
12, 413640, Note_on_c, 8, 52, 84
12, 413759, Note_on_c, 8, 52, 0
12, 413760, Note_on_c, 8, 52, 84
12, 413879, Note_on_c, 8, 52, 0
12, 413940, Note_on_c, 8, 52, 84
12, 413999, Note_on_c, 8, 52, 0
12, 414000, Note_on_c, 8, 52, 84
12, 414119, Note_on_c, 8, 52, 0
12, 414120, Note_on_c, 8, 52, 84
12, 414239, Note_on_c, 8, 52, 0
12, 414300, Note_on_c, 8, 45, 84
12, 414359, Note_on_c, 8, 45, 0
12, 414360, Note_on_c, 8, 45, 84
12, 414479, Note_on_c, 8, 45, 0
12, 414480, Note_on_c, 8, 45, 84
12, 414719, Note_on_c, 8, 45, 0
12, 415200, Note_on_c, 8, 52, 84
12, 415319, Note_on_c, 8, 52, 0
12, 415380, Note_on_c, 8, 52, 84
12, 415439, Note_on_c, 8, 52, 0
12, 415440, Note_on_c, 8, 52, 84
12, 415559, Note_on_c, 8, 52, 0
12, 415560, Note_on_c, 8, 52, 84
12, 415679, Note_on_c, 8, 52, 0
12, 415740, Note_on_c, 8, 52, 84
12, 415799, Note_on_c, 8, 52, 0
12, 415800, Note_on_c, 8, 52, 84
12, 415919, Note_on_c, 8, 52, 0
12, 415920, Note_on_c, 8, 45, 84
12, 416159, Note_on_c, 8, 45, 0
12, 416640, Note_on_c, 8, 52, 84
12, 416759, Note_on_c, 8, 52, 0
12, 416820, Note_on_c, 8, 52, 84
12, 416879, Note_on_c, 8, 52, 0
12, 416880, Note_on_c, 8, 52, 84
12, 416999, Note_on_c, 8, 52, 0
12, 417000, Note_on_c, 8, 52, 84
12, 417119, Note_on_c, 8, 52, 0
12, 417180, Note_on_c, 8, 52, 84
12, 417239, Note_on_c, 8, 52, 0
12, 417240, Note_on_c, 8, 52, 84
12, 417359, Note_on_c, 8, 52, 0
12, 417360, Note_on_c, 8, 45, 84
12, 417479, Note_on_c, 8, 45, 0
12, 417540, Note_on_c, 8, 45, 84
12, 417599, Note_on_c, 8, 45, 0
12, 417600, Note_on_c, 8, 45, 84
12, 417719, Note_on_c, 8, 45, 0
12, 417720, Note_on_c, 8, 45, 84
12, 417839, Note_on_c, 8, 45, 0
12, 417900, Note_on_c, 8, 45, 84
12, 417959, Note_on_c, 8, 45, 0
12, 417960, Note_on_c, 8, 45, 84
12, 418079, Note_on_c, 8, 45, 0
12, 418080, Note_on_c, 8, 45, 84
12, 418199, Note_on_c, 8, 45, 0
12, 418260, Note_on_c, 8, 45, 84
12, 418319, Note_on_c, 8, 45, 0
12, 418320, Note_on_c, 8, 45, 84
12, 418439, Note_on_c, 8, 45, 0
12, 418440, Note_on_c, 8, 45, 84
12, 418559, Note_on_c, 8, 45, 0
12, 418620, Note_on_c, 8, 45, 84
12, 418679, Note_on_c, 8, 45, 0
12, 418680, Note_on_c, 8, 45, 84
12, 418799, Note_on_c, 8, 45, 0
12, 418800, Note_on_c, 8, 45, 84
12, 419039, Note_on_c, 8, 45, 0
12, 419520, Note_on_c, 8, 52, 84
12, 419759, Note_on_c, 8, 52, 0
12, 420240, Note_on_c, 8, 45, 84
12, 420479, Note_on_c, 8, 45, 0
12, 420479, End_track
13, 0, Start_track
13, 0, Title_t, "Violin I"
13, 0, MIDI_port, 0
13, 0, Program_c, 10, 48
13, 0, Control_c, 10, 7, 96
13, 0, Control_c, 10, 10, 48
13, 0, Control_c, 10, 11, 127
13, 0, Note_on_c, 10, 81, 76
13, 0, Note_on_c, 10, 73, 76
13, 0, Note_on_c, 10, 64, 76
13, 0, Note_on_c, 10, 57, 76
13, 179, Note_on_c, 10, 81, 0
13, 179, Note_on_c, 10, 73, 0
13, 179, Note_on_c, 10, 64, 0
13, 179, Note_on_c, 10, 57, 0
13, 1920, Note_on_c, 10, 76, 76
13, 1920, Note_on_c, 10, 64, 76
13, 1920, Note_on_c, 10, 71, 76
13, 2099, Note_on_c, 10, 76, 0
13, 2099, Note_on_c, 10, 64, 0
13, 2099, Note_on_c, 10, 71, 0
13, 3840, Note_on_c, 10, 64, 76
13, 3840, Note_on_c, 10, 57, 76
13, 3840, Note_on_c, 10, 81, 76
13, 3840, Note_on_c, 10, 73, 76
13, 4019, Note_on_c, 10, 64, 0
13, 4019, Note_on_c, 10, 57, 0
13, 4019, Note_on_c, 10, 81, 0
13, 4019, Note_on_c, 10, 73, 0
13, 5760, Note_on_c, 10, 69, 76
13, 5760, Note_on_c, 10, 62, 76
13, 5760, Note_on_c, 10, 81, 76
13, 5939, Note_on_c, 10, 69, 0
13, 5939, Note_on_c, 10, 62, 0
13, 5939, Note_on_c, 10, 81, 0
13, 6240, Note_on_c, 10, 69, 52
13, 6479, Note_on_c, 10, 69, 0
13, 6720, Note_on_c, 10, 71, 52
13, 6959, Note_on_c, 10, 71, 0
13, 7200, Note_on_c, 10, 72, 52
13, 7439, Note_on_c, 10, 72, 0
13, 7680, Note_on_c, 10, 72, 52
13, 7680, Control_c, 10, 11, 127
13, 7744, Control_c, 10, 11, 126
13, 7808, Control_c, 10, 11, 125
13, 7872, Control_c, 10, 11, 124
13, 7919, Note_on_c, 10, 72, 0
13, 7936, Control_c, 10, 11, 123
13, 8000, Control_c, 10, 11, 122
13, 8064, Control_c, 10, 11, 121
13, 8128, Control_c, 10, 11, 120
13, 8192, Control_c, 10, 11, 119
13, 8256, Control_c, 10, 11, 118
13, 8320, Control_c, 10, 11, 117
13, 8384, Control_c, 10, 11, 116
13, 8400, Note_on_c, 10, 69, 52
13, 8448, Control_c, 10, 11, 115
13, 8453, Note_on_c, 10, 69, 0
13, 8460, Note_on_c, 10, 69, 52
13, 8512, Control_c, 10, 11, 114
13, 8513, Note_on_c, 10, 69, 0
13, 8520, Note_on_c, 10, 69, 52
13, 8573, Note_on_c, 10, 69, 0
13, 8576, Control_c, 10, 11, 112
13, 8580, Note_on_c, 10, 69, 52
13, 8633, Note_on_c, 10, 69, 0
13, 8640, Note_on_c, 10, 64, 52
13, 8684, Note_on_c, 10, 64, 0
13, 8700, Note_on_c, 10, 59, 52
13, 8744, Note_on_c, 10, 59, 0
13, 8760, Note_on_c, 10, 61, 52
13, 8804, Note_on_c, 10, 61, 0
13, 8820, Note_on_c, 10, 62, 52
13, 8864, Note_on_c, 10, 62, 0
13, 8880, Note_on_c, 10, 64, 52
13, 8924, Note_on_c, 10, 64, 0
13, 8940, Note_on_c, 10, 66, 52
13, 8984, Note_on_c, 10, 66, 0
13, 9000, Note_on_c, 10, 68, 52
13, 9044, Note_on_c, 10, 68, 0
13, 9060, Note_on_c, 10, 69, 52
13, 9104, Note_on_c, 10, 69, 0
13, 9120, Note_on_c, 10, 71, 52
13, 9164, Note_on_c, 10, 71, 0
13, 9180, Note_on_c, 10, 73, 52
13, 9224, Note_on_c, 10, 73, 0
13, 9240, Note_on_c, 10, 74, 52
13, 9284, Note_on_c, 10, 74, 0
13, 9300, Note_on_c, 10, 76, 52
13, 9344, Note_on_c, 10, 76, 0
13, 9360, Note_on_c, 10, 78, 52
13, 9404, Note_on_c, 10, 78, 0
13, 9420, Note_on_c, 10, 80, 52
13, 9464, Note_on_c, 10, 80, 0
13, 9480, Note_on_c, 10, 81, 52
13, 9524, Note_on_c, 10, 81, 0
13, 9540, Note_on_c, 10, 83, 52
13, 9584, Note_on_c, 10, 83, 0
13, 9600, Note_on_c, 10, 85, 52
13, 9839, Note_on_c, 10, 85, 0
13, 10320, Control_c, 10, 11, 127
13, 10560, Note_on_c, 10, 61, 44
13, 10604, Note_on_c, 10, 61, 0
13, 10620, Note_on_c, 10, 61, 44
13, 10664, Note_on_c, 10, 61, 0
13, 10680, Note_on_c, 10, 62, 44
13, 10724, Note_on_c, 10, 62, 0
13, 10740, Note_on_c, 10, 64, 44
13, 10784, Note_on_c, 10, 64, 0
13, 10800, Note_on_c, 10, 66, 44
13, 10844, Note_on_c, 10, 66, 0
13, 10860, Note_on_c, 10, 68, 44
13, 10904, Note_on_c, 10, 68, 0
13, 10920, Note_on_c, 10, 69, 44
13, 10964, Note_on_c, 10, 69, 0
13, 10980, Note_on_c, 10, 71, 44
13, 11024, Note_on_c, 10, 71, 0
13, 11040, Note_on_c, 10, 73, 44
13, 11084, Note_on_c, 10, 73, 0
13, 11100, Note_on_c, 10, 74, 44
13, 11144, Note_on_c, 10, 74, 0
13, 11160, Note_on_c, 10, 76, 44
13, 11204, Note_on_c, 10, 76, 0
13, 11220, Note_on_c, 10, 78, 44
13, 11264, Note_on_c, 10, 78, 0
13, 11280, Note_on_c, 10, 80, 44
13, 11324, Note_on_c, 10, 80, 0
13, 11340, Note_on_c, 10, 81, 44
13, 11384, Note_on_c, 10, 81, 0
13, 11400, Note_on_c, 10, 83, 44
13, 11444, Note_on_c, 10, 83, 0
13, 11460, Note_on_c, 10, 85, 44
13, 11504, Note_on_c, 10, 85, 0
13, 11520, Note_on_c, 10, 86, 44
13, 11759, Note_on_c, 10, 86, 0
13, 12480, Note_on_c, 10, 62, 44
13, 12524, Note_on_c, 10, 62, 0
13, 12540, Note_on_c, 10, 62, 46
13, 12584, Note_on_c, 10, 62, 0
13, 12600, Note_on_c, 10, 64, 49
13, 12644, Note_on_c, 10, 64, 0
13, 12660, Note_on_c, 10, 66, 51
13, 12704, Note_on_c, 10, 66, 0
13, 12720, Note_on_c, 10, 68, 54
13, 12764, Note_on_c, 10, 68, 0
13, 12780, Note_on_c, 10, 69, 56
13, 12824, Note_on_c, 10, 69, 0
13, 12840, Note_on_c, 10, 71, 59
13, 12884, Note_on_c, 10, 71, 0
13, 12900, Note_on_c, 10, 73, 61
13, 12944, Note_on_c, 10, 73, 0
13, 12960, Note_on_c, 10, 74, 64
13, 13004, Note_on_c, 10, 74, 0
13, 13020, Note_on_c, 10, 76, 66
13, 13064, Note_on_c, 10, 76, 0
13, 13080, Note_on_c, 10, 78, 69
13, 13124, Note_on_c, 10, 78, 0
13, 13140, Note_on_c, 10, 80, 71
13, 13184, Note_on_c, 10, 80, 0
13, 13200, Note_on_c, 10, 81, 74
13, 13244, Note_on_c, 10, 81, 0
13, 13260, Note_on_c, 10, 83, 76
13, 13304, Note_on_c, 10, 83, 0
13, 13320, Note_on_c, 10, 85, 79
13, 13364, Note_on_c, 10, 85, 0
13, 13380, Note_on_c, 10, 86, 81
13, 13424, Note_on_c, 10, 86, 0
13, 13440, Note_on_c, 10, 85, 84
13, 13440, Note_on_c, 10, 69, 84
13, 13679, Note_on_c, 10, 85, 0
13, 13679, Note_on_c, 10, 69, 0
13, 14400, Note_on_c, 10, 57, 84
13, 14453, Note_on_c, 10, 57, 0
13, 14460, Note_on_c, 10, 64, 84
13, 14513, Note_on_c, 10, 64, 0
13, 14520, Note_on_c, 10, 66, 84
13, 14573, Note_on_c, 10, 66, 0
13, 14580, Note_on_c, 10, 68, 84
13, 14633, Note_on_c, 10, 68, 0
13, 14640, Note_on_c, 10, 69, 84
13, 14693, Note_on_c, 10, 69, 0
13, 14700, Note_on_c, 10, 71, 84
13, 14753, Note_on_c, 10, 71, 0
13, 14760, Note_on_c, 10, 73, 84
13, 14813, Note_on_c, 10, 73, 0
13, 14820, Note_on_c, 10, 74, 84
13, 14873, Note_on_c, 10, 74, 0
13, 14880, Note_on_c, 10, 76, 84
13, 14933, Note_on_c, 10, 76, 0
13, 14940, Note_on_c, 10, 78, 84
13, 14993, Note_on_c, 10, 78, 0
13, 15000, Note_on_c, 10, 80, 84
13, 15053, Note_on_c, 10, 80, 0
13, 15060, Note_on_c, 10, 81, 84
13, 15113, Note_on_c, 10, 81, 0
13, 15120, Note_on_c, 10, 83, 84
13, 15173, Note_on_c, 10, 83, 0
13, 15180, Note_on_c, 10, 85, 84
13, 15233, Note_on_c, 10, 85, 0
13, 15240, Note_on_c, 10, 86, 84
13, 15293, Note_on_c, 10, 86, 0
13, 15300, Note_on_c, 10, 88, 84
13, 15353, Note_on_c, 10, 88, 0
13, 15360, Note_on_c, 10, 76, 84
13, 15360, Note_on_c, 10, 88, 84
13, 15599, Note_on_c, 10, 76, 0
13, 15829, Note_on_c, 10, 88, 0
13, 15840, Note_on_c, 10, 83, 92
13, 15899, Note_on_c, 10, 83, 0
13, 15900, Note_on_c, 10, 83, 84
13, 16309, Note_on_c, 10, 83, 0
13, 16320, Note_on_c, 10, 76, 92
13, 16379, Note_on_c, 10, 76, 0
13, 16380, Note_on_c, 10, 76, 84
13, 16789, Note_on_c, 10, 76, 0
13, 16800, Note_on_c, 10, 88, 92
13, 16859, Note_on_c, 10, 88, 0
13, 16860, Note_on_c, 10, 88, 84
13, 17269, Note_on_c, 10, 88, 0
13, 17280, Note_on_c, 10, 86, 84
13, 17519, Note_on_c, 10, 86, 0
13, 18240, Note_on_c, 10, 62, 84
13, 18293, Note_on_c, 10, 62, 0
13, 18300, Note_on_c, 10, 62, 84
13, 18353, Note_on_c, 10, 62, 0
13, 18360, Note_on_c, 10, 64, 84
13, 18413, Note_on_c, 10, 64, 0
13, 18420, Note_on_c, 10, 65, 84
13, 18473, Note_on_c, 10, 65, 0
13, 18480, Note_on_c, 10, 67, 84
13, 18533, Note_on_c, 10, 67, 0
13, 18540, Note_on_c, 10, 69, 84
13, 18593, Note_on_c, 10, 69, 0
13, 18600, Note_on_c, 10, 71, 84
13, 18653, Note_on_c, 10, 71, 0
13, 18660, Note_on_c, 10, 73, 84
13, 18713, Note_on_c, 10, 73, 0
13, 18720, Note_on_c, 10, 74, 84
13, 18773, Note_on_c, 10, 74, 0
13, 18780, Note_on_c, 10, 76, 84
13, 18833, Note_on_c, 10, 76, 0
13, 18840, Note_on_c, 10, 77, 84
13, 18893, Note_on_c, 10, 77, 0
13, 18900, Note_on_c, 10, 79, 84
13, 18953, Note_on_c, 10, 79, 0
13, 18960, Note_on_c, 10, 81, 84
13, 19013, Note_on_c, 10, 81, 0
13, 19020, Note_on_c, 10, 83, 84
13, 19073, Note_on_c, 10, 83, 0
13, 19080, Note_on_c, 10, 85, 84
13, 19133, Note_on_c, 10, 85, 0
13, 19140, Note_on_c, 10, 86, 84
13, 19193, Note_on_c, 10, 86, 0
13, 19200, Note_on_c, 10, 62, 84
13, 19200, Note_on_c, 10, 55, 84
13, 19200, Note_on_c, 10, 86, 84
13, 19200, Note_on_c, 10, 74, 84
13, 19439, Note_on_c, 10, 62, 0
13, 19439, Note_on_c, 10, 55, 0
13, 19439, Note_on_c, 10, 74, 0
13, 19669, Note_on_c, 10, 86, 0
13, 19680, Note_on_c, 10, 79, 92
13, 19739, Note_on_c, 10, 79, 0
13, 19740, Note_on_c, 10, 79, 84
13, 20149, Note_on_c, 10, 79, 0
13, 20160, Control_c, 10, 11, 127
13, 20160, Note_on_c, 10, 72, 84
13, 20200, Control_c, 10, 11, 124
13, 20240, Control_c, 10, 11, 122
13, 20280, Control_c, 10, 11, 119
13, 20320, Control_c, 10, 11, 117
13, 20360, Control_c, 10, 11, 114
13, 20400, Control_c, 10, 11, 111
13, 20440, Control_c, 10, 11, 109
13, 20480, Control_c, 10, 11, 106
13, 20520, Control_c, 10, 11, 103
13, 20560, Control_c, 10, 11, 101
13, 20600, Control_c, 10, 11, 98
13, 20629, Note_on_c, 10, 72, 0
13, 20640, Note_on_c, 10, 84, 84
13, 20640, Control_c, 10, 11, 96
13, 20680, Control_c, 10, 11, 93
13, 20720, Control_c, 10, 11, 90
13, 20760, Control_c, 10, 11, 88
13, 20800, Control_c, 10, 11, 85
13, 20840, Control_c, 10, 11, 82
13, 20880, Control_c, 10, 11, 80
13, 20920, Control_c, 10, 11, 77
13, 20960, Control_c, 10, 11, 75
13, 21000, Control_c, 10, 11, 72
13, 21040, Control_c, 10, 11, 69
13, 21080, Control_c, 10, 11, 67
13, 21109, Note_on_c, 10, 84, 0
13, 21118, Control_c, 10, 11, 64
13, 21120, Note_on_c, 10, 83, 84
13, 21359, Note_on_c, 10, 83, 0
13, 22800, Control_c, 10, 11, 127
13, 23040, Note_on_c, 10, 79, 52
13, 24239, Note_on_c, 10, 79, 0
13, 24720, Note_on_c, 10, 79, 52
13, 24739, Note_on_c, 10, 79, 0
13, 24740, Note_on_c, 10, 81, 52
13, 24759, Note_on_c, 10, 81, 0
13, 24760, Note_on_c, 10, 79, 52
13, 24779, Note_on_c, 10, 79, 0
13, 24780, Note_on_c, 10, 81, 52
13, 24799, Note_on_c, 10, 81, 0
13, 24800, Note_on_c, 10, 79, 52
13, 24819, Note_on_c, 10, 79, 0
13, 24820, Note_on_c, 10, 81, 52
13, 24839, Note_on_c, 10, 81, 0
13, 24840, Note_on_c, 10, 79, 52
13, 24859, Note_on_c, 10, 79, 0
13, 24860, Note_on_c, 10, 81, 52
13, 24879, Note_on_c, 10, 81, 0
13, 24880, Note_on_c, 10, 79, 52
13, 24899, Note_on_c, 10, 79, 0
13, 24900, Note_on_c, 10, 81, 52
13, 24919, Note_on_c, 10, 81, 0
13, 24920, Note_on_c, 10, 77, 52
13, 24939, Note_on_c, 10, 77, 0
13, 24940, Note_on_c, 10, 79, 52
13, 24959, Note_on_c, 10, 79, 0
13, 24960, Note_on_c, 10, 81, 52
13, 25199, Note_on_c, 10, 81, 0
13, 25680, Note_on_c, 10, 81, 52
13, 25699, Note_on_c, 10, 81, 0
13, 25700, Note_on_c, 10, 83, 52
13, 25719, Note_on_c, 10, 83, 0
13, 25720, Note_on_c, 10, 81, 52
13, 25739, Note_on_c, 10, 81, 0
13, 25740, Note_on_c, 10, 83, 52
13, 25759, Note_on_c, 10, 83, 0
13, 25760, Note_on_c, 10, 80, 52
13, 25779, Note_on_c, 10, 80, 0
13, 25780, Note_on_c, 10, 81, 52
13, 25799, Note_on_c, 10, 81, 0
13, 25800, Note_on_c, 10, 83, 52
13, 25859, Note_on_c, 10, 83, 0
13, 25860, Note_on_c, 10, 84, 52
13, 25913, Note_on_c, 10, 84, 0
13, 25920, Note_on_c, 10, 84, 52
13, 26039, Note_on_c, 10, 84, 0
13, 26040, Note_on_c, 10, 79, 52
13, 26159, Note_on_c, 10, 79, 0
13, 26640, Note_on_c, 10, 77, 52
13, 26699, Note_on_c, 10, 77, 0
13, 26700, Note_on_c, 10, 74, 52
13, 26759, Note_on_c, 10, 74, 0
13, 26760, Note_on_c, 10, 71, 52
13, 26819, Note_on_c, 10, 71, 0
13, 26820, Note_on_c, 10, 67, 52
13, 26873, Note_on_c, 10, 67, 0
13, 26880, Note_on_c, 10, 65, 44
13, 27359, Note_on_c, 10, 65, 0
13, 27360, Note_on_c, 10, 67, 44
13, 27419, Note_on_c, 10, 67, 0
13, 27420, Note_on_c, 10, 65, 44
13, 27479, Note_on_c, 10, 65, 0
13, 27480, Note_on_c, 10, 64, 44
13, 27539, Note_on_c, 10, 64, 0
13, 27540, Note_on_c, 10, 65, 44
13, 27599, Note_on_c, 10, 65, 0
13, 27600, Note_on_c, 10, 67, 44
13, 27719, Note_on_c, 10, 67, 0
13, 27720, Note_on_c, 10, 65, 44
13, 27829, Note_on_c, 10, 65, 0
13, 27840, Note_on_c, 10, 64, 44
13, 28079, Note_on_c, 10, 64, 0
13, 28080, Note_on_c, 10, 67, 44
13, 28199, Note_on_c, 10, 67, 0
13, 28260, Note_on_c, 10, 67, 44
13, 28313, Note_on_c, 10, 67, 0
13, 28320, Note_on_c, 10, 72, 44
13, 28559, Note_on_c, 10, 72, 0
13, 28560, Note_on_c, 10, 67, 44
13, 28679, Note_on_c, 10, 67, 0
13, 28740, Note_on_c, 10, 67, 44
13, 28793, Note_on_c, 10, 67, 0
13, 28800, Note_on_c, 10, 65, 44
13, 29279, Note_on_c, 10, 65, 0
13, 29280, Note_on_c, 10, 67, 44
13, 29339, Note_on_c, 10, 67, 0
13, 29340, Note_on_c, 10, 65, 44
13, 29399, Note_on_c, 10, 65, 0
13, 29400, Note_on_c, 10, 64, 44
13, 29459, Note_on_c, 10, 64, 0
13, 29460, Note_on_c, 10, 65, 44
13, 29519, Note_on_c, 10, 65, 0
13, 29520, Note_on_c, 10, 67, 44
13, 29639, Note_on_c, 10, 67, 0
13, 29640, Note_on_c, 10, 65, 44
13, 29749, Note_on_c, 10, 65, 0
13, 29758, Control_c, 10, 11, 48
13, 29760, Note_on_c, 10, 64, 84
13, 29999, Note_on_c, 10, 64, 0
13, 30000, Note_on_c, 10, 67, 84
13, 30119, Note_on_c, 10, 67, 0
13, 30180, Note_on_c, 10, 67, 84
13, 30233, Note_on_c, 10, 67, 0
13, 30240, Control_c, 10, 11, 48
13, 30240, Note_on_c, 10, 72, 84
13, 30280, Control_c, 10, 11, 50
13, 30320, Control_c, 10, 11, 52
13, 30360, Control_c, 10, 11, 55
13, 30400, Control_c, 10, 11, 57
13, 30440, Control_c, 10, 11, 59
13, 30479, Note_on_c, 10, 72, 0
13, 30480, Control_c, 10, 11, 61
13, 30480, Note_on_c, 10, 68, 84
13, 30520, Control_c, 10, 11, 63
13, 30560, Control_c, 10, 11, 66
13, 30599, Note_on_c, 10, 68, 0
13, 30600, Control_c, 10, 11, 68
13, 30640, Control_c, 10, 11, 70
13, 30660, Note_on_c, 10, 68, 84
13, 30680, Control_c, 10, 11, 72
13, 30713, Note_on_c, 10, 68, 0
13, 30720, Control_c, 10, 11, 74
13, 30720, Note_on_c, 10, 72, 84
13, 30760, Control_c, 10, 11, 77
13, 30800, Control_c, 10, 11, 79
13, 30840, Control_c, 10, 11, 81
13, 30880, Control_c, 10, 11, 83
13, 30920, Control_c, 10, 11, 85
13, 30959, Note_on_c, 10, 72, 0
13, 30960, Note_on_c, 10, 69, 84
13, 30960, Control_c, 10, 11, 88
13, 31000, Control_c, 10, 11, 90
13, 31040, Control_c, 10, 11, 92
13, 31079, Note_on_c, 10, 69, 0
13, 31080, Control_c, 10, 11, 94
13, 31120, Control_c, 10, 11, 96
13, 31140, Note_on_c, 10, 69, 84
13, 31160, Control_c, 10, 11, 98
13, 31193, Note_on_c, 10, 69, 0
13, 31200, Control_c, 10, 11, 101
13, 31200, Note_on_c, 10, 74, 84
13, 31240, Control_c, 10, 11, 103
13, 31280, Control_c, 10, 11, 105
13, 31320, Control_c, 10, 11, 107
13, 31360, Control_c, 10, 11, 109
13, 31400, Control_c, 10, 11, 112
13, 31439, Note_on_c, 10, 74, 0
13, 31440, Note_on_c, 10, 71, 84
13, 31440, Control_c, 10, 11, 114
13, 31480, Control_c, 10, 11, 116
13, 31520, Control_c, 10, 11, 118
13, 31559, Note_on_c, 10, 71, 0
13, 31560, Control_c, 10, 11, 120
13, 31600, Control_c, 10, 11, 123
13, 31620, Note_on_c, 10, 71, 84
13, 31640, Control_c, 10, 11, 125
13, 31673, Note_on_c, 10, 71, 0
13, 31678, Control_c, 10, 11, 127
13, 31680, Note_on_c, 10, 76, 84
13, 31680, Note_on_c, 10, 64, 84
13, 31680, Note_on_c, 10, 71, 84
13, 31919, Note_on_c, 10, 64, 0
13, 31919, Note_on_c, 10, 71, 0
13, 32149, Note_on_c, 10, 76, 0
13, 32160, Note_on_c, 10, 71, 92
13, 32219, Note_on_c, 10, 71, 0
13, 32220, Note_on_c, 10, 71, 84
13, 32629, Note_on_c, 10, 71, 0
13, 32640, Note_on_c, 10, 64, 92
13, 32699, Note_on_c, 10, 64, 0
13, 32700, Note_on_c, 10, 64, 84
13, 33109, Note_on_c, 10, 64, 0
13, 33120, Note_on_c, 10, 76, 92
13, 33179, Note_on_c, 10, 76, 0
13, 33180, Note_on_c, 10, 76, 84
13, 33589, Note_on_c, 10, 76, 0
13, 33600, Note_on_c, 10, 78, 84
13, 33600, Note_on_c, 10, 66, 84
13, 33600, Note_on_c, 10, 73, 84
13, 33839, Note_on_c, 10, 66, 0
13, 33839, Note_on_c, 10, 73, 0
13, 34069, Note_on_c, 10, 78, 0
13, 34080, Note_on_c, 10, 73, 92
13, 34139, Note_on_c, 10, 73, 0
13, 34140, Note_on_c, 10, 73, 84
13, 34549, Note_on_c, 10, 73, 0
13, 34560, Note_on_c, 10, 66, 92
13, 34619, Note_on_c, 10, 66, 0
13, 34620, Note_on_c, 10, 66, 84
13, 35029, Note_on_c, 10, 66, 0
13, 35040, Note_on_c, 10, 78, 92
13, 35099, Note_on_c, 10, 78, 0
13, 35100, Note_on_c, 10, 78, 84
13, 35509, Note_on_c, 10, 78, 0
13, 35520, Note_on_c, 10, 71, 84
13, 35520, Note_on_c, 10, 64, 84
13, 35520, Note_on_c, 10, 79, 84
13, 35759, Note_on_c, 10, 71, 0
13, 35759, Note_on_c, 10, 64, 0
13, 35989, Note_on_c, 10, 79, 0
13, 36000, Note_on_c, 10, 76, 92
13, 36059, Note_on_c, 10, 76, 0
13, 36060, Note_on_c, 10, 76, 84
13, 36469, Note_on_c, 10, 76, 0
13, 36480, Note_on_c, 10, 67, 92
13, 36539, Note_on_c, 10, 67, 0
13, 36540, Note_on_c, 10, 67, 84
13, 36949, Note_on_c, 10, 67, 0
13, 36960, Note_on_c, 10, 79, 92
13, 37019, Note_on_c, 10, 79, 0
13, 37020, Note_on_c, 10, 79, 84
13, 37429, Note_on_c, 10, 79, 0
13, 37440, Note_on_c, 10, 55, 84
13, 37440, Note_on_c, 10, 64, 84
13, 37440, Note_on_c, 10, 72, 84
13, 37440, Note_on_c, 10, 79, 84
13, 37679, Note_on_c, 10, 55, 0
13, 37679, Note_on_c, 10, 64, 0
13, 37679, Note_on_c, 10, 72, 0
13, 37909, Note_on_c, 10, 79, 0
13, 37920, Note_on_c, 10, 76, 92
13, 37979, Note_on_c, 10, 76, 0
13, 37980, Note_on_c, 10, 76, 84
13, 38389, Note_on_c, 10, 76, 0
13, 38400, Control_c, 10, 11, 127
13, 38400, Note_on_c, 10, 72, 84
13, 38440, Control_c, 10, 11, 124
13, 38480, Control_c, 10, 11, 122
13, 38520, Control_c, 10, 11, 119
13, 38560, Control_c, 10, 11, 117
13, 38600, Control_c, 10, 11, 114
13, 38640, Control_c, 10, 11, 111
13, 38680, Control_c, 10, 11, 109
13, 38720, Control_c, 10, 11, 106
13, 38760, Control_c, 10, 11, 103
13, 38800, Control_c, 10, 11, 101
13, 38840, Control_c, 10, 11, 98
13, 38869, Note_on_c, 10, 72, 0
13, 38880, Note_on_c, 10, 79, 84
13, 38880, Control_c, 10, 11, 96
13, 38920, Control_c, 10, 11, 93
13, 38960, Control_c, 10, 11, 90
13, 39000, Control_c, 10, 11, 88
13, 39040, Control_c, 10, 11, 85
13, 39080, Control_c, 10, 11, 82
13, 39120, Control_c, 10, 11, 80
13, 39160, Control_c, 10, 11, 77
13, 39200, Control_c, 10, 11, 75
13, 39240, Control_c, 10, 11, 72
13, 39280, Control_c, 10, 11, 69
13, 39320, Control_c, 10, 11, 67
13, 39349, Note_on_c, 10, 79, 0
13, 39358, Control_c, 10, 11, 64
13, 39360, Note_on_c, 10, 70, 84
13, 39599, Note_on_c, 10, 70, 0
13, 41040, Control_c, 10, 11, 127
13, 41280, Note_on_c, 10, 84, 52
13, 42479, Note_on_c, 10, 84, 0
13, 42960, Note_on_c, 10, 84, 52
13, 42979, Note_on_c, 10, 84, 0
13, 42980, Note_on_c, 10, 86, 52
13, 42999, Note_on_c, 10, 86, 0
13, 43000, Note_on_c, 10, 84, 52
13, 43019, Note_on_c, 10, 84, 0
13, 43020, Note_on_c, 10, 86, 52
13, 43039, Note_on_c, 10, 86, 0
13, 43040, Note_on_c, 10, 84, 52
13, 43059, Note_on_c, 10, 84, 0
13, 43060, Note_on_c, 10, 86, 52
13, 43079, Note_on_c, 10, 86, 0
13, 43080, Note_on_c, 10, 84, 52
13, 43099, Note_on_c, 10, 84, 0
13, 43100, Note_on_c, 10, 86, 52
13, 43119, Note_on_c, 10, 86, 0
13, 43120, Note_on_c, 10, 84, 52
13, 43139, Note_on_c, 10, 84, 0
13, 43140, Note_on_c, 10, 86, 52
13, 43159, Note_on_c, 10, 86, 0
13, 43160, Note_on_c, 10, 82, 52
13, 43179, Note_on_c, 10, 82, 0
13, 43180, Note_on_c, 10, 84, 52
13, 43199, Note_on_c, 10, 84, 0
13, 43200, Note_on_c, 10, 86, 52
13, 43439, Note_on_c, 10, 86, 0
13, 43920, Note_on_c, 10, 74, 52
13, 43939, Note_on_c, 10, 74, 0
13, 43940, Note_on_c, 10, 76, 52
13, 43959, Note_on_c, 10, 76, 0
13, 43960, Note_on_c, 10, 74, 52
13, 43979, Note_on_c, 10, 74, 0
13, 43980, Note_on_c, 10, 76, 52
13, 43999, Note_on_c, 10, 76, 0
13, 44000, Note_on_c, 10, 72, 52
13, 44019, Note_on_c, 10, 72, 0
13, 44020, Note_on_c, 10, 74, 52
13, 44039, Note_on_c, 10, 74, 0
13, 44040, Note_on_c, 10, 76, 52
13, 44099, Note_on_c, 10, 76, 0
13, 44100, Note_on_c, 10, 77, 52
13, 44153, Note_on_c, 10, 77, 0
13, 44160, Note_on_c, 10, 77, 52
13, 44279, Note_on_c, 10, 77, 0
13, 44280, Note_on_c, 10, 72, 52
13, 44399, Note_on_c, 10, 72, 0
13, 44880, Note_on_c, 10, 82, 52
13, 44939, Note_on_c, 10, 82, 0
13, 44940, Note_on_c, 10, 79, 52
13, 44999, Note_on_c, 10, 79, 0
13, 45000, Note_on_c, 10, 76, 52
13, 45059, Note_on_c, 10, 76, 0
13, 45060, Note_on_c, 10, 72, 52
13, 45113, Note_on_c, 10, 72, 0
13, 45120, Note_on_c, 10, 70, 44
13, 45599, Note_on_c, 10, 70, 0
13, 45600, Note_on_c, 10, 72, 44
13, 45659, Note_on_c, 10, 72, 0
13, 45660, Note_on_c, 10, 70, 44
13, 45719, Note_on_c, 10, 70, 0
13, 45720, Note_on_c, 10, 69, 44
13, 45779, Note_on_c, 10, 69, 0
13, 45780, Note_on_c, 10, 70, 44
13, 45839, Note_on_c, 10, 70, 0
13, 45840, Note_on_c, 10, 72, 44
13, 45959, Note_on_c, 10, 72, 0
13, 45960, Note_on_c, 10, 70, 44
13, 46069, Note_on_c, 10, 70, 0
13, 46078, Control_c, 10, 11, 48
13, 46080, Note_on_c, 10, 69, 84
13, 46129, Control_c, 10, 11, 49
13, 46177, Control_c, 10, 11, 50
13, 46226, Control_c, 10, 11, 51
13, 46274, Control_c, 10, 11, 52
13, 46319, Note_on_c, 10, 69, 0
13, 46320, Note_on_c, 10, 72, 84
13, 46323, Control_c, 10, 11, 53
13, 46372, Control_c, 10, 11, 54
13, 46420, Control_c, 10, 11, 55
13, 46439, Note_on_c, 10, 72, 0
13, 46469, Control_c, 10, 11, 56
13, 46500, Note_on_c, 10, 72, 84
13, 46517, Control_c, 10, 11, 57
13, 46553, Note_on_c, 10, 72, 0
13, 46560, Note_on_c, 10, 77, 84
13, 46566, Control_c, 10, 11, 58
13, 46615, Control_c, 10, 11, 59
13, 46663, Control_c, 10, 11, 60
13, 46712, Control_c, 10, 11, 61
13, 46761, Control_c, 10, 11, 62
13, 46799, Note_on_c, 10, 77, 0
13, 46800, Note_on_c, 10, 72, 84
13, 46809, Control_c, 10, 11, 63
13, 46858, Control_c, 10, 11, 64
13, 46906, Control_c, 10, 11, 65
13, 46919, Note_on_c, 10, 72, 0
13, 46955, Control_c, 10, 11, 66
13, 46980, Note_on_c, 10, 72, 84
13, 47004, Control_c, 10, 11, 67
13, 47033, Note_on_c, 10, 72, 0
13, 47040, Note_on_c, 10, 69, 84
13, 47052, Control_c, 10, 11, 68
13, 47101, Control_c, 10, 11, 69
13, 47149, Control_c, 10, 11, 70
13, 47198, Control_c, 10, 11, 71
13, 47247, Control_c, 10, 11, 72
13, 47279, Note_on_c, 10, 69, 0
13, 47280, Note_on_c, 10, 72, 84
13, 47295, Control_c, 10, 11, 73
13, 47344, Control_c, 10, 11, 74
13, 47392, Control_c, 10, 11, 75
13, 47399, Note_on_c, 10, 72, 0
13, 47441, Control_c, 10, 11, 76
13, 47460, Note_on_c, 10, 72, 84
13, 47490, Control_c, 10, 11, 77
13, 47513, Note_on_c, 10, 72, 0
13, 47520, Note_on_c, 10, 81, 84
13, 47538, Control_c, 10, 11, 78
13, 47587, Control_c, 10, 11, 79
13, 47635, Control_c, 10, 11, 80
13, 47684, Control_c, 10, 11, 81
13, 47733, Control_c, 10, 11, 82
13, 47759, Note_on_c, 10, 81, 0
13, 47760, Note_on_c, 10, 72, 84
13, 47781, Control_c, 10, 11, 83
13, 47830, Control_c, 10, 11, 84
13, 47878, Control_c, 10, 11, 85
13, 47879, Note_on_c, 10, 72, 0
13, 47927, Control_c, 10, 11, 86
13, 47940, Note_on_c, 10, 72, 84
13, 47976, Control_c, 10, 11, 87
13, 47993, Note_on_c, 10, 72, 0
13, 48000, Note_on_c, 10, 69, 84
13, 48024, Control_c, 10, 11, 88
13, 48073, Control_c, 10, 11, 89
13, 48122, Control_c, 10, 11, 90
13, 48170, Control_c, 10, 11, 91
13, 48219, Control_c, 10, 11, 92
13, 48239, Note_on_c, 10, 69, 0
13, 48240, Note_on_c, 10, 72, 84
13, 48267, Control_c, 10, 11, 93
13, 48316, Control_c, 10, 11, 94
13, 48359, Note_on_c, 10, 72, 0
13, 48365, Control_c, 10, 11, 95
13, 48413, Control_c, 10, 11, 96
13, 48420, Note_on_c, 10, 72, 84
13, 48462, Control_c, 10, 11, 97
13, 48473, Note_on_c, 10, 72, 0
13, 48480, Note_on_c, 10, 81, 84
13, 48510, Control_c, 10, 11, 98
13, 48559, Control_c, 10, 11, 99
13, 48608, Control_c, 10, 11, 100
13, 48656, Control_c, 10, 11, 101
13, 48705, Control_c, 10, 11, 102
13, 48719, Note_on_c, 10, 81, 0
13, 48720, Note_on_c, 10, 72, 84
13, 48753, Control_c, 10, 11, 103
13, 48802, Control_c, 10, 11, 104
13, 48839, Note_on_c, 10, 72, 0
13, 48851, Control_c, 10, 11, 105
13, 48899, Control_c, 10, 11, 106
13, 48900, Note_on_c, 10, 72, 84
13, 48948, Control_c, 10, 11, 107
13, 48953, Note_on_c, 10, 72, 0
13, 48960, Note_on_c, 10, 72, 84
13, 48996, Control_c, 10, 11, 108
13, 49045, Control_c, 10, 11, 109
13, 49094, Control_c, 10, 11, 110
13, 49142, Control_c, 10, 11, 111
13, 49191, Control_c, 10, 11, 112
13, 49199, Note_on_c, 10, 72, 0
13, 49200, Note_on_c, 10, 81, 84
13, 49239, Control_c, 10, 11, 113
13, 49288, Control_c, 10, 11, 114
13, 49319, Note_on_c, 10, 81, 0
13, 49337, Control_c, 10, 11, 115
13, 49380, Note_on_c, 10, 81, 84
13, 49385, Control_c, 10, 11, 116
13, 49433, Note_on_c, 10, 81, 0
13, 49434, Control_c, 10, 11, 117
13, 49440, Note_on_c, 10, 84, 84
13, 49483, Control_c, 10, 11, 118
13, 49531, Control_c, 10, 11, 119
13, 49580, Control_c, 10, 11, 120
13, 49628, Control_c, 10, 11, 121
13, 49677, Control_c, 10, 11, 122
13, 49679, Note_on_c, 10, 84, 0
13, 49680, Note_on_c, 10, 81, 84
13, 49726, Control_c, 10, 11, 123
13, 49774, Control_c, 10, 11, 124
13, 49799, Note_on_c, 10, 81, 0
13, 49823, Control_c, 10, 11, 125
13, 49860, Note_on_c, 10, 81, 84
13, 49871, Control_c, 10, 11, 127
13, 49913, Note_on_c, 10, 81, 0
13, 49920, Note_on_c, 10, 88, 84
13, 50039, Note_on_c, 10, 88, 0
13, 50400, Note_on_c, 10, 88, 76
13, 50453, Note_on_c, 10, 88, 0
13, 50460, Note_on_c, 10, 64, 52
13, 50513, Note_on_c, 10, 64, 0
13, 50520, Note_on_c, 10, 64, 52
13, 50573, Note_on_c, 10, 64, 0
13, 50580, Note_on_c, 10, 64, 52
13, 50633, Note_on_c, 10, 64, 0
13, 50640, Note_on_c, 10, 64, 52
13, 50693, Note_on_c, 10, 64, 0
13, 50700, Note_on_c, 10, 64, 52
13, 50753, Note_on_c, 10, 64, 0
13, 50760, Note_on_c, 10, 64, 52
13, 50813, Note_on_c, 10, 64, 0
13, 50820, Note_on_c, 10, 64, 52
13, 50873, Note_on_c, 10, 64, 0
13, 50880, Note_on_c, 10, 64, 52
13, 50999, Note_on_c, 10, 64, 0
13, 52320, Note_on_c, 10, 88, 76
13, 52373, Note_on_c, 10, 88, 0
13, 52380, Note_on_c, 10, 64, 52
13, 52433, Note_on_c, 10, 64, 0
13, 52440, Note_on_c, 10, 64, 52
13, 52493, Note_on_c, 10, 64, 0
13, 52500, Note_on_c, 10, 64, 52
13, 52553, Note_on_c, 10, 64, 0
13, 52560, Note_on_c, 10, 64, 52
13, 52613, Note_on_c, 10, 64, 0
13, 52620, Note_on_c, 10, 64, 52
13, 52673, Note_on_c, 10, 64, 0
13, 52680, Note_on_c, 10, 64, 52
13, 52733, Note_on_c, 10, 64, 0
13, 52740, Note_on_c, 10, 64, 52
13, 52793, Note_on_c, 10, 64, 0
13, 52800, Note_on_c, 10, 64, 52
13, 52919, Note_on_c, 10, 64, 0
13, 54300, Note_on_c, 10, 76, 52
13, 54353, Note_on_c, 10, 76, 0
13, 54360, Note_on_c, 10, 76, 52
13, 54413, Note_on_c, 10, 76, 0
13, 54420, Note_on_c, 10, 76, 52
13, 54473, Note_on_c, 10, 76, 0
13, 54480, Note_on_c, 10, 76, 52
13, 54533, Note_on_c, 10, 76, 0
13, 54540, Note_on_c, 10, 76, 52
13, 54593, Note_on_c, 10, 76, 0
13, 54600, Note_on_c, 10, 76, 52
13, 54653, Note_on_c, 10, 76, 0
13, 54660, Note_on_c, 10, 76, 52
13, 54713, Note_on_c, 10, 76, 0
13, 54720, Note_on_c, 10, 76, 52
13, 54959, Note_on_c, 10, 76, 0
13, 55320, Note_on_c, 10, 76, 52
13, 55429, Note_on_c, 10, 76, 0
13, 55440, Note_on_c, 10, 76, 52
13, 55549, Note_on_c, 10, 76, 0
13, 55560, Note_on_c, 10, 76, 52
13, 55669, Note_on_c, 10, 76, 0
13, 55680, Note_on_c, 10, 76, 52
13, 55919, Note_on_c, 10, 76, 0
13, 56640, Note_on_c, 10, 76, 52
13, 56879, Note_on_c, 10, 76, 0
13, 58020, Note_on_c, 10, 76, 52
13, 58073, Note_on_c, 10, 76, 0
13, 58080, Note_on_c, 10, 76, 52
13, 58319, Note_on_c, 10, 76, 0
13, 58980, Note_on_c, 10, 76, 52
13, 59033, Note_on_c, 10, 76, 0
13, 59040, Note_on_c, 10, 76, 52
13, 59279, Note_on_c, 10, 76, 0
13, 62340, Note_on_c, 10, 57, 52
13, 62391, Note_on_c, 10, 57, 0
13, 62400, Note_on_c, 10, 57, 52
13, 62639, Note_on_c, 10, 57, 0
13, 63780, Note_on_c, 10, 57, 52
13, 63831, Note_on_c, 10, 57, 0
13, 63840, Note_on_c, 10, 57, 52
13, 64079, Note_on_c, 10, 57, 0
13, 65220, Note_on_c, 10, 57, 52
13, 65271, Note_on_c, 10, 57, 0
13, 65280, Note_on_c, 10, 57, 52
13, 65519, Note_on_c, 10, 57, 0
13, 66660, Note_on_c, 10, 57, 52
13, 66711, Note_on_c, 10, 57, 0
13, 66720, Note_on_c, 10, 57, 52
13, 66839, Note_on_c, 10, 57, 0
13, 66960, Note_on_c, 10, 61, 52
13, 67064, Note_on_c, 10, 61, 0
13, 67080, Note_on_c, 10, 64, 52
13, 67199, Note_on_c, 10, 64, 0
13, 67320, Note_on_c, 10, 64, 52
13, 67424, Note_on_c, 10, 64, 0
13, 67440, Note_on_c, 10, 57, 52
13, 67679, Note_on_c, 10, 57, 0
13, 68820, Note_on_c, 10, 57, 52
13, 68871, Note_on_c, 10, 57, 0
13, 68880, Note_on_c, 10, 57, 52
13, 69119, Note_on_c, 10, 57, 0
13, 69480, Note_on_c, 10, 64, 52
13, 69584, Note_on_c, 10, 64, 0
13, 69600, Note_on_c, 10, 66, 68
13, 69719, Note_on_c, 10, 66, 0
13, 69720, Note_on_c, 10, 64, 52
13, 69824, Note_on_c, 10, 64, 0
13, 69840, Note_on_c, 10, 61, 52
13, 69929, Note_on_c, 10, 61, 0
13, 69960, Note_on_c, 10, 57, 52
13, 70199, Note_on_c, 10, 57, 0
13, 70980, Note_on_c, 10, 57, 52
13, 71031, Note_on_c, 10, 57, 0
13, 71040, Note_on_c, 10, 57, 52
13, 71279, Note_on_c, 10, 57, 0
13, 71640, Note_on_c, 10, 64, 52
13, 71744, Note_on_c, 10, 64, 0
13, 71760, Note_on_c, 10, 66, 68
13, 71879, Note_on_c, 10, 66, 0
13, 71880, Note_on_c, 10, 64, 52
13, 71984, Note_on_c, 10, 64, 0
13, 72000, Note_on_c, 10, 61, 52
13, 72089, Note_on_c, 10, 61, 0
13, 72120, Note_on_c, 10, 57, 52
13, 72359, Note_on_c, 10, 57, 0
13, 73140, Note_on_c, 10, 76, 52
13, 73140, Note_on_c, 10, 64, 52
13, 73191, Note_on_c, 10, 76, 0
13, 73191, Note_on_c, 10, 64, 0
13, 73200, Note_on_c, 10, 76, 76
13, 73200, Note_on_c, 10, 64, 76
13, 73240, Control_c, 10, 11, 123
13, 73280, Control_c, 10, 11, 119
13, 73320, Control_c, 10, 11, 115
13, 73360, Control_c, 10, 11, 111
13, 73400, Control_c, 10, 11, 107
13, 73440, Control_c, 10, 11, 104
13, 73480, Control_c, 10, 11, 100
13, 73520, Control_c, 10, 11, 96
13, 73560, Control_c, 10, 11, 92
13, 73600, Control_c, 10, 11, 88
13, 73640, Control_c, 10, 11, 84
13, 73680, Control_c, 10, 11, 80
13, 73799, Note_on_c, 10, 76, 0
13, 73799, Note_on_c, 10, 64, 0
13, 74280, Control_c, 10, 11, 127
13, 74580, Note_on_c, 10, 64, 52
13, 74580, Note_on_c, 10, 76, 52
13, 74631, Note_on_c, 10, 64, 0
13, 74631, Note_on_c, 10, 76, 0
13, 74640, Note_on_c, 10, 64, 76
13, 74640, Note_on_c, 10, 76, 76
13, 75171, Note_on_c, 10, 64, 0
13, 75171, Note_on_c, 10, 76, 0
13, 75180, Note_on_c, 10, 73, 76
13, 75224, Note_on_c, 10, 73, 0
13, 75240, Note_on_c, 10, 69, 76
13, 75329, Note_on_c, 10, 69, 0
13, 75360, Note_on_c, 10, 64, 84
13, 75360, Note_on_c, 10, 76, 84
13, 75419, Note_on_c, 10, 64, 0
13, 75419, Note_on_c, 10, 76, 0
13, 75420, Note_on_c, 10, 64, 76
13, 75420, Note_on_c, 10, 76, 76
13, 75891, Note_on_c, 10, 64, 0
13, 75891, Note_on_c, 10, 76, 0
13, 75900, Note_on_c, 10, 73, 76
13, 75944, Note_on_c, 10, 73, 0
13, 75960, Note_on_c, 10, 70, 76
13, 76049, Note_on_c, 10, 70, 0
13, 76080, Note_on_c, 10, 76, 84
13, 76139, Note_on_c, 10, 76, 0
13, 76140, Note_on_c, 10, 76, 76
13, 76199, Note_on_c, 10, 76, 0
13, 76260, Note_on_c, 10, 74, 76
13, 76304, Note_on_c, 10, 74, 0
13, 76320, Note_on_c, 10, 71, 76
13, 76409, Note_on_c, 10, 71, 0
13, 76440, Note_on_c, 10, 80, 84
13, 76499, Note_on_c, 10, 80, 0
13, 76500, Note_on_c, 10, 80, 76
13, 76559, Note_on_c, 10, 80, 0
13, 76620, Note_on_c, 10, 76, 76
13, 76664, Note_on_c, 10, 76, 0
13, 76680, Note_on_c, 10, 74, 76
13, 76769, Note_on_c, 10, 74, 0
13, 76800, Note_on_c, 10, 83, 84
13, 76859, Note_on_c, 10, 83, 0
13, 76860, Note_on_c, 10, 83, 76
13, 76919, Note_on_c, 10, 83, 0
13, 76980, Note_on_c, 10, 80, 76
13, 77024, Note_on_c, 10, 80, 0
13, 77040, Note_on_c, 10, 76, 76
13, 77129, Note_on_c, 10, 76, 0
13, 77160, Note_on_c, 10, 86, 84
13, 77219, Note_on_c, 10, 86, 0
13, 77220, Note_on_c, 10, 86, 76
13, 77279, Note_on_c, 10, 86, 0
13, 77340, Note_on_c, 10, 83, 76
13, 77384, Note_on_c, 10, 83, 0
13, 77400, Note_on_c, 10, 80, 76
13, 77489, Note_on_c, 10, 80, 0
13, 77520, Note_on_c, 10, 86, 76
13, 77864, Note_on_c, 10, 86, 0
13, 77880, Note_on_c, 10, 76, 84
13, 77939, Note_on_c, 10, 76, 0
13, 77940, Note_on_c, 10, 78, 84
13, 77999, Note_on_c, 10, 78, 0
13, 78000, Note_on_c, 10, 80, 84
13, 78059, Note_on_c, 10, 80, 0
13, 78060, Note_on_c, 10, 81, 84
13, 78119, Note_on_c, 10, 81, 0
13, 78120, Note_on_c, 10, 83, 84
13, 78159, Note_on_c, 10, 83, 0
13, 78160, Note_on_c, 10, 85, 84
13, 78199, Note_on_c, 10, 85, 0
13, 78200, Note_on_c, 10, 86, 84
13, 78231, Note_on_c, 10, 86, 0
13, 78240, Note_on_c, 10, 88, 92
13, 78299, Note_on_c, 10, 88, 0
13, 78300, Note_on_c, 10, 88, 84
13, 78771, Note_on_c, 10, 88, 0
13, 78780, Note_on_c, 10, 86, 84
13, 78824, Note_on_c, 10, 86, 0
13, 78840, Note_on_c, 10, 85, 84
13, 78921, Note_on_c, 10, 85, 0
13, 78930, Note_on_c, 10, 85, 84
13, 78959, Note_on_c, 10, 85, 0
13, 78960, Note_on_c, 10, 86, 84
13, 79491, Note_on_c, 10, 86, 0
13, 79500, Note_on_c, 10, 78, 84
13, 79544, Note_on_c, 10, 78, 0
13, 79560, Note_on_c, 10, 80, 84
13, 79649, Note_on_c, 10, 80, 0
13, 79680, Note_on_c, 10, 81, 84
13, 79904, Note_on_c, 10, 81, 0
13, 79920, Note_on_c, 10, 81, 84
13, 80024, Note_on_c, 10, 81, 0
13, 80040, Note_on_c, 10, 81, 84
13, 80211, Note_on_c, 10, 81, 0
13, 80220, Note_on_c, 10, 83, 84
13, 80264, Note_on_c, 10, 83, 0
13, 80280, Note_on_c, 10, 85, 84
13, 80369, Note_on_c, 10, 85, 0
13, 80400, Note_on_c, 10, 85, 84
13, 80519, Note_on_c, 10, 85, 0
13, 80520, Note_on_c, 10, 83, 84
13, 80931, Note_on_c, 10, 83, 0
13, 80940, Note_on_c, 10, 85, 84
13, 80984, Note_on_c, 10, 85, 0
13, 81000, Note_on_c, 10, 86, 84
13, 81081, Note_on_c, 10, 86, 0
13, 81090, Note_on_c, 10, 87, 84
13, 81119, Note_on_c, 10, 87, 0
13, 81120, Note_on_c, 10, 88, 84
13, 81651, Note_on_c, 10, 88, 0
13, 81660, Note_on_c, 10, 86, 84
13, 81704, Note_on_c, 10, 86, 0
13, 81720, Note_on_c, 10, 85, 84
13, 81801, Note_on_c, 10, 85, 0
13, 81810, Note_on_c, 10, 85, 84
13, 81839, Note_on_c, 10, 85, 0
13, 81840, Note_on_c, 10, 86, 84
13, 82371, Note_on_c, 10, 86, 0
13, 82380, Note_on_c, 10, 78, 84
13, 82424, Note_on_c, 10, 78, 0
13, 82440, Note_on_c, 10, 80, 84
13, 82529, Note_on_c, 10, 80, 0
13, 82560, Note_on_c, 10, 81, 84
13, 82784, Note_on_c, 10, 81, 0
13, 82800, Note_on_c, 10, 81, 84
13, 82904, Note_on_c, 10, 81, 0
13, 82920, Note_on_c, 10, 81, 84
13, 83091, Note_on_c, 10, 81, 0
13, 83100, Note_on_c, 10, 85, 84
13, 83144, Note_on_c, 10, 85, 0
13, 83160, Note_on_c, 10, 83, 84
13, 83249, Note_on_c, 10, 83, 0
13, 83280, Note_on_c, 10, 81, 84
13, 83519, Note_on_c, 10, 81, 0
13, 83880, Note_on_c, 10, 81, 84
13, 83984, Note_on_c, 10, 81, 0
13, 84000, Note_on_c, 10, 81, 84
13, 84224, Note_on_c, 10, 81, 0
13, 84240, Note_on_c, 10, 81, 84
13, 84344, Note_on_c, 10, 81, 0
13, 84360, Note_on_c, 10, 81, 84
13, 84531, Note_on_c, 10, 81, 0
13, 84540, Note_on_c, 10, 86, 84
13, 84584, Note_on_c, 10, 86, 0
13, 84600, Note_on_c, 10, 90, 84
13, 84689, Note_on_c, 10, 90, 0
13, 84720, Note_on_c, 10, 90, 84
13, 84839, Note_on_c, 10, 90, 0
13, 84840, Note_on_c, 10, 88, 84
13, 84944, Note_on_c, 10, 88, 0
13, 84960, Note_on_c, 10, 85, 84
13, 85049, Note_on_c, 10, 85, 0
13, 85080, Note_on_c, 10, 81, 84
13, 85304, Note_on_c, 10, 81, 0
13, 85320, Note_on_c, 10, 81, 84
13, 85424, Note_on_c, 10, 81, 0
13, 85440, Note_on_c, 10, 81, 84
13, 85611, Note_on_c, 10, 81, 0
13, 85620, Note_on_c, 10, 86, 84
13, 85664, Note_on_c, 10, 86, 0
13, 85680, Note_on_c, 10, 81, 84
13, 85769, Note_on_c, 10, 81, 0
13, 85800, Note_on_c, 10, 81, 84
13, 85971, Note_on_c, 10, 81, 0
13, 85980, Note_on_c, 10, 86, 84
13, 86024, Note_on_c, 10, 86, 0
13, 86040, Note_on_c, 10, 90, 84
13, 86129, Note_on_c, 10, 90, 0
13, 86160, Note_on_c, 10, 90, 84
13, 86279, Note_on_c, 10, 90, 0
13, 86280, Note_on_c, 10, 88, 84
13, 86384, Note_on_c, 10, 88, 0
13, 86400, Note_on_c, 10, 85, 84
13, 86489, Note_on_c, 10, 85, 0
13, 86520, Note_on_c, 10, 81, 84
13, 86744, Note_on_c, 10, 81, 0
13, 86758, Control_c, 10, 11, 64
13, 86760, Note_on_c, 10, 76, 84
13, 86864, Note_on_c, 10, 76, 0
13, 86880, Control_c, 10, 11, 64
13, 86880, Note_on_c, 10, 78, 84
13, 86971, Control_c, 10, 11, 65
13, 86999, Note_on_c, 10, 78, 0
13, 87000, Note_on_c, 10, 76, 84
13, 87063, Control_c, 10, 11, 66
13, 87104, Note_on_c, 10, 76, 0
13, 87120, Note_on_c, 10, 73, 84
13, 87154, Control_c, 10, 11, 67
13, 87209, Note_on_c, 10, 73, 0
13, 87240, Note_on_c, 10, 69, 84
13, 87246, Control_c, 10, 11, 68
13, 87337, Control_c, 10, 11, 69
13, 87429, Control_c, 10, 11, 70
13, 87464, Note_on_c, 10, 69, 0
13, 87480, Note_on_c, 10, 76, 84
13, 87520, Control_c, 10, 11, 71
13, 87584, Note_on_c, 10, 76, 0
13, 87600, Note_on_c, 10, 79, 84
13, 87611, Control_c, 10, 11, 72
13, 87703, Control_c, 10, 11, 73
13, 87719, Note_on_c, 10, 79, 0
13, 87720, Note_on_c, 10, 78, 84
13, 87794, Control_c, 10, 11, 74
13, 87824, Note_on_c, 10, 78, 0
13, 87840, Note_on_c, 10, 74, 84
13, 87886, Control_c, 10, 11, 75
13, 87929, Note_on_c, 10, 74, 0
13, 87960, Note_on_c, 10, 69, 84
13, 87977, Control_c, 10, 11, 76
13, 88069, Control_c, 10, 11, 77
13, 88160, Control_c, 10, 11, 78
13, 88184, Note_on_c, 10, 69, 0
13, 88200, Note_on_c, 10, 78, 84
13, 88251, Control_c, 10, 11, 79
13, 88304, Note_on_c, 10, 78, 0
13, 88320, Note_on_c, 10, 81, 84
13, 88343, Control_c, 10, 11, 80
13, 88434, Control_c, 10, 11, 81
13, 88439, Note_on_c, 10, 81, 0
13, 88440, Note_on_c, 10, 80, 84
13, 88526, Control_c, 10, 11, 82
13, 88544, Note_on_c, 10, 80, 0
13, 88560, Note_on_c, 10, 74, 84
13, 88617, Control_c, 10, 11, 83
13, 88649, Note_on_c, 10, 74, 0
13, 88680, Note_on_c, 10, 71, 84
13, 88709, Control_c, 10, 11, 84
13, 88800, Control_c, 10, 11, 85
13, 88891, Control_c, 10, 11, 86
13, 88904, Note_on_c, 10, 71, 0
13, 88920, Note_on_c, 10, 80, 84
13, 88983, Control_c, 10, 11, 87
13, 89024, Note_on_c, 10, 80, 0
13, 89040, Note_on_c, 10, 83, 84
13, 89074, Control_c, 10, 11, 88
13, 89159, Note_on_c, 10, 83, 0
13, 89160, Note_on_c, 10, 81, 84
13, 89166, Control_c, 10, 11, 89
13, 89257, Control_c, 10, 11, 90
13, 89264, Note_on_c, 10, 81, 0
13, 89280, Note_on_c, 10, 76, 84
13, 89349, Control_c, 10, 11, 91
13, 89369, Note_on_c, 10, 76, 0
13, 89400, Note_on_c, 10, 73, 84
13, 89440, Control_c, 10, 11, 92
13, 89531, Control_c, 10, 11, 93
13, 89623, Control_c, 10, 11, 94
13, 89624, Note_on_c, 10, 73, 0
13, 89640, Note_on_c, 10, 76, 84
13, 89714, Control_c, 10, 11, 95
13, 89744, Note_on_c, 10, 76, 0
13, 89760, Note_on_c, 10, 78, 84
13, 89806, Control_c, 10, 11, 96
13, 89879, Note_on_c, 10, 78, 0
13, 89880, Note_on_c, 10, 76, 84
13, 89897, Control_c, 10, 11, 97
13, 89984, Note_on_c, 10, 76, 0
13, 89989, Control_c, 10, 11, 98
13, 90000, Note_on_c, 10, 73, 84
13, 90080, Control_c, 10, 11, 99
13, 90089, Note_on_c, 10, 73, 0
13, 90120, Note_on_c, 10, 78, 84
13, 90171, Control_c, 10, 11, 100
13, 90239, Note_on_c, 10, 78, 0
13, 90240, Note_on_c, 10, 76, 84
13, 90263, Control_c, 10, 11, 101
13, 90344, Note_on_c, 10, 76, 0
13, 90354, Control_c, 10, 11, 102
13, 90360, Note_on_c, 10, 73, 84
13, 90446, Control_c, 10, 11, 103
13, 90449, Note_on_c, 10, 73, 0
13, 90480, Note_on_c, 10, 79, 84
13, 90537, Control_c, 10, 11, 104
13, 90599, Note_on_c, 10, 79, 0
13, 90600, Note_on_c, 10, 78, 84
13, 90629, Control_c, 10, 11, 105
13, 90704, Note_on_c, 10, 78, 0
13, 90720, Note_on_c, 10, 74, 84
13, 90720, Control_c, 10, 11, 106
13, 90809, Note_on_c, 10, 74, 0
13, 90811, Control_c, 10, 11, 107
13, 90840, Note_on_c, 10, 79, 84
13, 90903, Control_c, 10, 11, 108
13, 90959, Note_on_c, 10, 79, 0
13, 90960, Note_on_c, 10, 78, 84
13, 90994, Control_c, 10, 11, 109
13, 91064, Note_on_c, 10, 78, 0
13, 91080, Note_on_c, 10, 74, 84
13, 91086, Control_c, 10, 11, 110
13, 91169, Note_on_c, 10, 74, 0
13, 91177, Control_c, 10, 11, 111
13, 91200, Note_on_c, 10, 81, 84
13, 91269, Control_c, 10, 11, 112
13, 91319, Note_on_c, 10, 81, 0
13, 91320, Note_on_c, 10, 80, 84
13, 91360, Control_c, 10, 11, 113
13, 91424, Note_on_c, 10, 80, 0
13, 91440, Note_on_c, 10, 76, 84
13, 91451, Control_c, 10, 11, 114
13, 91529, Note_on_c, 10, 76, 0
13, 91543, Control_c, 10, 11, 115
13, 91560, Note_on_c, 10, 81, 84
13, 91634, Control_c, 10, 11, 116
13, 91679, Note_on_c, 10, 81, 0
13, 91680, Note_on_c, 10, 80, 84
13, 91726, Control_c, 10, 11, 117
13, 91784, Note_on_c, 10, 80, 0
13, 91800, Note_on_c, 10, 76, 84
13, 91817, Control_c, 10, 11, 118
13, 91889, Note_on_c, 10, 76, 0
13, 91909, Control_c, 10, 11, 119
13, 91920, Note_on_c, 10, 83, 84
13, 92000, Control_c, 10, 11, 120
13, 92039, Note_on_c, 10, 83, 0
13, 92040, Note_on_c, 10, 81, 84
13, 92091, Control_c, 10, 11, 121
13, 92144, Note_on_c, 10, 81, 0
13, 92160, Note_on_c, 10, 76, 84
13, 92183, Control_c, 10, 11, 122
13, 92249, Note_on_c, 10, 76, 0
13, 92274, Control_c, 10, 11, 123
13, 92280, Note_on_c, 10, 86, 84
13, 92366, Control_c, 10, 11, 124
13, 92399, Note_on_c, 10, 86, 0
13, 92400, Note_on_c, 10, 85, 84
13, 92457, Control_c, 10, 11, 125
13, 92504, Note_on_c, 10, 85, 0
13, 92520, Note_on_c, 10, 81, 84
13, 92549, Control_c, 10, 11, 127
13, 92609, Note_on_c, 10, 81, 0
13, 92640, Note_on_c, 10, 88, 84
13, 93171, Note_on_c, 10, 88, 0
13, 93180, Note_on_c, 10, 87, 84
13, 93224, Note_on_c, 10, 87, 0
13, 93240, Note_on_c, 10, 85, 84
13, 93321, Note_on_c, 10, 85, 0
13, 93330, Note_on_c, 10, 85, 84
13, 93359, Note_on_c, 10, 85, 0
13, 93360, Note_on_c, 10, 87, 84
13, 93824, Note_on_c, 10, 87, 0
13, 93840, Note_on_c, 10, 69, 52
13, 93929, Note_on_c, 10, 69, 0
13, 93960, Note_on_c, 10, 71, 52
13, 94049, Note_on_c, 10, 71, 0
13, 94080, Note_on_c, 10, 73, 52
13, 94304, Note_on_c, 10, 73, 0
13, 94320, Note_on_c, 10, 73, 52
13, 94424, Note_on_c, 10, 73, 0
13, 94440, Note_on_c, 10, 73, 52
13, 94611, Note_on_c, 10, 73, 0
13, 94620, Note_on_c, 10, 75, 52
13, 94664, Note_on_c, 10, 75, 0
13, 94680, Note_on_c, 10, 73, 52
13, 94769, Note_on_c, 10, 73, 0
13, 94800, Note_on_c, 10, 72, 52
13, 95024, Note_on_c, 10, 72, 0
13, 95040, Note_on_c, 10, 68, 52
13, 95144, Note_on_c, 10, 68, 0
13, 95160, Note_on_c, 10, 68, 52
13, 95331, Note_on_c, 10, 68, 0
13, 95340, Note_on_c, 10, 72, 52
13, 95384, Note_on_c, 10, 72, 0
13, 95400, Note_on_c, 10, 75, 52
13, 95481, Note_on_c, 10, 75, 0
13, 95490, Note_on_c, 10, 73, 52
13, 95519, Note_on_c, 10, 73, 0
13, 95520, Note_on_c, 10, 76, 52
13, 95744, Note_on_c, 10, 76, 0
13, 95760, Note_on_c, 10, 76, 52
13, 95864, Note_on_c, 10, 76, 0
13, 95880, Note_on_c, 10, 76, 52
13, 96051, Note_on_c, 10, 76, 0
13, 96060, Note_on_c, 10, 75, 52
13, 96104, Note_on_c, 10, 75, 0
13, 96120, Note_on_c, 10, 73, 52
13, 96209, Note_on_c, 10, 73, 0
13, 96240, Note_on_c, 10, 72, 52
13, 96464, Note_on_c, 10, 72, 0
13, 96480, Note_on_c, 10, 68, 52
13, 96584, Note_on_c, 10, 68, 0
13, 96600, Note_on_c, 10, 68, 52
13, 96771, Note_on_c, 10, 68, 0
13, 96780, Note_on_c, 10, 72, 52
13, 96824, Note_on_c, 10, 72, 0
13, 96840, Note_on_c, 10, 75, 52
13, 96929, Note_on_c, 10, 75, 0
13, 96958, Control_c, 10, 11, 80
13, 96960, Note_on_c, 10, 76, 76
13, 96960, Control_c, 10, 11, 80
13, 97000, Control_c, 10, 11, 83
13, 97040, Control_c, 10, 11, 85
13, 97080, Control_c, 10, 11, 88
13, 97120, Control_c, 10, 11, 90
13, 97160, Control_c, 10, 11, 93
13, 97199, Note_on_c, 10, 76, 0
13, 97200, Control_c, 10, 11, 96
13, 97200, Note_on_c, 10, 76, 76
13, 97240, Control_c, 10, 11, 98
13, 97280, Control_c, 10, 11, 101
13, 97319, Note_on_c, 10, 76, 0
13, 97320, Note_on_c, 10, 80, 76
13, 97320, Control_c, 10, 11, 104
13, 97360, Control_c, 10, 11, 106
13, 97400, Control_c, 10, 11, 109
13, 97440, Control_c, 10, 11, 111
13, 97480, Control_c, 10, 11, 114
13, 97520, Control_c, 10, 11, 117
13, 97559, Note_on_c, 10, 80, 0
13, 97560, Control_c, 10, 11, 119
13, 97560, Note_on_c, 10, 80, 76
13, 97600, Control_c, 10, 11, 122
13, 97640, Control_c, 10, 11, 127
13, 97679, Note_on_c, 10, 80, 0
13, 97680, Note_on_c, 10, 79, 76
13, 97919, Note_on_c, 10, 79, 0
13, 99360, Note_on_c, 10, 75, 52
13, 99464, Note_on_c, 10, 75, 0
13, 99480, Note_on_c, 10, 75, 52
13, 99651, Note_on_c, 10, 75, 0
13, 99660, Note_on_c, 10, 79, 52
13, 99704, Note_on_c, 10, 79, 0
13, 99720, Note_on_c, 10, 82, 52
13, 99809, Note_on_c, 10, 82, 0
13, 99838, Control_c, 10, 11, 80
13, 99840, Note_on_c, 10, 83, 76
13, 99840, Control_c, 10, 11, 80
13, 99880, Control_c, 10, 11, 83
13, 99920, Control_c, 10, 11, 85
13, 99960, Control_c, 10, 11, 88
13, 100000, Control_c, 10, 11, 90
13, 100040, Control_c, 10, 11, 93
13, 100064, Note_on_c, 10, 83, 0
13, 100080, Note_on_c, 10, 83, 76
13, 100080, Control_c, 10, 11, 96
13, 100120, Control_c, 10, 11, 98
13, 100160, Control_c, 10, 11, 101
13, 100184, Note_on_c, 10, 83, 0
13, 100200, Note_on_c, 10, 88, 76
13, 100200, Control_c, 10, 11, 104
13, 100240, Control_c, 10, 11, 106
13, 100280, Control_c, 10, 11, 109
13, 100320, Control_c, 10, 11, 111
13, 100360, Control_c, 10, 11, 114
13, 100400, Control_c, 10, 11, 117
13, 100424, Note_on_c, 10, 88, 0
13, 100440, Control_c, 10, 11, 119
13, 100440, Note_on_c, 10, 88, 76
13, 100480, Control_c, 10, 11, 122
13, 100520, Control_c, 10, 11, 127
13, 100544, Note_on_c, 10, 88, 0
13, 100560, Note_on_c, 10, 88, 76
13, 100679, Note_on_c, 10, 88, 0
13, 100680, Note_on_c, 10, 87, 76
13, 101144, Note_on_c, 10, 87, 0
13, 101160, Note_on_c, 10, 81, 76
13, 101264, Note_on_c, 10, 81, 0
13, 101280, Note_on_c, 10, 80, 76
13, 101504, Note_on_c, 10, 80, 0
13, 101520, Note_on_c, 10, 80, 76
13, 101624, Note_on_c, 10, 80, 0
13, 101640, Note_on_c, 10, 85, 76
13, 101864, Note_on_c, 10, 85, 0
13, 101880, Note_on_c, 10, 85, 76
13, 101984, Note_on_c, 10, 85, 0
13, 102000, Note_on_c, 10, 85, 84
13, 102119, Note_on_c, 10, 85, 0
13, 102120, Note_on_c, 10, 83, 76
13, 102584, Note_on_c, 10, 83, 0
13, 102600, Note_on_c, 10, 78, 76
13, 102704, Note_on_c, 10, 78, 0
13, 102720, Note_on_c, 10, 76, 76
13, 102944, Note_on_c, 10, 76, 0
13, 102960, Note_on_c, 10, 76, 76
13, 103064, Note_on_c, 10, 76, 0
13, 103080, Note_on_c, 10, 81, 76
13, 103080, Note_on_c, 10, 69, 76
13, 103304, Note_on_c, 10, 81, 0
13, 103304, Note_on_c, 10, 69, 0
13, 103320, Note_on_c, 10, 81, 76
13, 103320, Note_on_c, 10, 69, 76
13, 103424, Note_on_c, 10, 81, 0
13, 103424, Note_on_c, 10, 69, 0
13, 103440, Note_on_c, 10, 69, 76
13, 103440, Note_on_c, 10, 81, 76
13, 103619, Note_on_c, 10, 69, 0
13, 103619, Note_on_c, 10, 81, 0
13, 103800, Note_on_c, 10, 69, 76
13, 103800, Note_on_c, 10, 81, 76
13, 103979, Note_on_c, 10, 69, 0
13, 103979, Note_on_c, 10, 81, 0
13, 104160, Note_on_c, 10, 80, 76
13, 104160, Note_on_c, 10, 71, 76
13, 104339, Note_on_c, 10, 80, 0
13, 104339, Note_on_c, 10, 71, 0
13, 104520, Note_on_c, 10, 88, 76
13, 104520, Note_on_c, 10, 80, 76
13, 104699, Note_on_c, 10, 88, 0
13, 104699, Note_on_c, 10, 80, 0
13, 104880, Note_on_c, 10, 78, 76
13, 104880, Note_on_c, 10, 87, 76
13, 105059, Note_on_c, 10, 78, 0
13, 105059, Note_on_c, 10, 87, 0
13, 105240, Note_on_c, 10, 81, 76
13, 105240, Note_on_c, 10, 69, 76
13, 105419, Note_on_c, 10, 81, 0
13, 105419, Note_on_c, 10, 69, 0
13, 105600, Note_on_c, 10, 80, 76
13, 105600, Note_on_c, 10, 71, 76
13, 105779, Note_on_c, 10, 80, 0
13, 105779, Note_on_c, 10, 71, 0
13, 105960, Note_on_c, 10, 88, 76
13, 105960, Note_on_c, 10, 76, 76
13, 106139, Note_on_c, 10, 88, 0
13, 106139, Note_on_c, 10, 76, 0
13, 106320, Note_on_c, 10, 61, 84
13, 106380, Control_c, 10, 11, 112
13, 106417, Control_c, 10, 11, 109
13, 106453, Control_c, 10, 11, 107
13, 106490, Control_c, 10, 11, 104
13, 106527, Control_c, 10, 11, 101
13, 106563, Control_c, 10, 11, 99
13, 106600, Control_c, 10, 11, 96
13, 106637, Control_c, 10, 11, 93
13, 106673, Control_c, 10, 11, 91
13, 106710, Control_c, 10, 11, 88
13, 106747, Control_c, 10, 11, 85
13, 106783, Control_c, 10, 11, 83
13, 106820, Control_c, 10, 11, 80
13, 106857, Control_c, 10, 11, 77
13, 106893, Control_c, 10, 11, 75
13, 106919, Note_on_c, 10, 61, 0
13, 106920, Note_on_c, 10, 60, 84
13, 106930, Control_c, 10, 11, 72
13, 106967, Control_c, 10, 11, 69
13, 107003, Control_c, 10, 11, 64
13, 107024, Note_on_c, 10, 60, 0
13, 107040, Note_on_c, 10, 59, 84
13, 107639, Note_on_c, 10, 59, 0
13, 107640, Note_on_c, 10, 61, 84
13, 107699, Note_on_c, 10, 61, 0
13, 107700, Note_on_c, 10, 63, 84
13, 107759, Note_on_c, 10, 63, 0
13, 107760, Note_on_c, 10, 64, 84
13, 107999, Note_on_c, 10, 64, 0
13, 109080, Control_c, 10, 11, 127
13, 109200, Note_on_c, 10, 64, 48
13, 109559, Note_on_c, 10, 64, 0
13, 109560, Note_on_c, 10, 68, 48
13, 109919, Note_on_c, 10, 68, 0
13, 109920, Note_on_c, 10, 71, 48
13, 110279, Note_on_c, 10, 71, 0
13, 110280, Note_on_c, 10, 59, 48
13, 110624, Note_on_c, 10, 59, 0
13, 110640, Note_on_c, 10, 71, 76
13, 110640, Note_on_c, 10, 76, 76
13, 110640, Note_on_c, 10, 64, 76
13, 110879, Note_on_c, 10, 71, 0
13, 110879, Note_on_c, 10, 64, 0
13, 110984, Note_on_c, 10, 76, 0
13, 111000, Note_on_c, 10, 80, 76
13, 111171, Note_on_c, 10, 80, 0
13, 111180, Note_on_c, 10, 76, 76
13, 111231, Note_on_c, 10, 76, 0
13, 111240, Note_on_c, 10, 76, 76
13, 111344, Note_on_c, 10, 76, 0
13, 111360, Note_on_c, 10, 81, 76
13, 111531, Note_on_c, 10, 81, 0
13, 111540, Note_on_c, 10, 78, 76
13, 111591, Note_on_c, 10, 78, 0
13, 111600, Note_on_c, 10, 78, 76
13, 111704, Note_on_c, 10, 78, 0
13, 111720, Note_on_c, 10, 83, 76
13, 111891, Note_on_c, 10, 83, 0
13, 111900, Note_on_c, 10, 83, 76
13, 111951, Note_on_c, 10, 83, 0
13, 111960, Note_on_c, 10, 83, 76
13, 112064, Note_on_c, 10, 83, 0
13, 112080, Note_on_c, 10, 84, 76
13, 112251, Note_on_c, 10, 84, 0
13, 112260, Note_on_c, 10, 84, 76
13, 112311, Note_on_c, 10, 84, 0
13, 112320, Note_on_c, 10, 79, 76
13, 112424, Note_on_c, 10, 79, 0
13, 112440, Note_on_c, 10, 76, 76
13, 112611, Note_on_c, 10, 76, 0
13, 112620, Note_on_c, 10, 76, 76
13, 112671, Note_on_c, 10, 76, 0
13, 112680, Note_on_c, 10, 72, 76
13, 112784, Note_on_c, 10, 72, 0
13, 112800, Note_on_c, 10, 67, 76
13, 112971, Note_on_c, 10, 67, 0
13, 112980, Note_on_c, 10, 67, 76
13, 113031, Note_on_c, 10, 67, 0
13, 113040, Note_on_c, 10, 64, 76
13, 113144, Note_on_c, 10, 64, 0
13, 113160, Note_on_c, 10, 60, 76
13, 113331, Note_on_c, 10, 60, 0
13, 113340, Note_on_c, 10, 60, 76
13, 113391, Note_on_c, 10, 60, 0
13, 113400, Note_on_c, 10, 55, 76
13, 113504, Note_on_c, 10, 55, 0
13, 113520, Note_on_c, 10, 60, 76
13, 113759, Note_on_c, 10, 60, 0
13, 114060, Note_on_c, 10, 55, 75
13, 114111, Note_on_c, 10, 55, 0
13, 114120, Note_on_c, 10, 55, 73
13, 114224, Note_on_c, 10, 55, 0
13, 114240, Note_on_c, 10, 60, 70
13, 114479, Note_on_c, 10, 60, 0
13, 114780, Note_on_c, 10, 55, 57
13, 114831, Note_on_c, 10, 55, 0
13, 114840, Note_on_c, 10, 55, 55
13, 114944, Note_on_c, 10, 55, 0
13, 114960, Note_on_c, 10, 60, 52
13, 115199, Note_on_c, 10, 60, 0
13, 115680, Note_on_c, 10, 60, 44
13, 115919, Note_on_c, 10, 60, 0
13, 116400, Note_on_c, 10, 81, 44
13, 116939, Note_on_c, 10, 81, 0
13, 116940, Note_on_c, 10, 79, 44
13, 116999, Note_on_c, 10, 79, 0
13, 117000, Note_on_c, 10, 78, 44
13, 117104, Note_on_c, 10, 78, 0
13, 117120, Note_on_c, 10, 81, 44
13, 117659, Note_on_c, 10, 81, 0
13, 117660, Note_on_c, 10, 79, 44
13, 117719, Note_on_c, 10, 79, 0
13, 117720, Note_on_c, 10, 78, 44
13, 117824, Note_on_c, 10, 78, 0
13, 117840, Note_on_c, 10, 81, 44
13, 118379, Note_on_c, 10, 81, 0
13, 118380, Note_on_c, 10, 79, 44
13, 118439, Note_on_c, 10, 79, 0
13, 118440, Note_on_c, 10, 78, 44
13, 118544, Note_on_c, 10, 78, 0
13, 118560, Note_on_c, 10, 81, 44
13, 119099, Note_on_c, 10, 81, 0
13, 119100, Note_on_c, 10, 79, 44
13, 119159, Note_on_c, 10, 79, 0
13, 119160, Note_on_c, 10, 78, 44
13, 119264, Note_on_c, 10, 78, 0
13, 119278, Control_c, 10, 11, 48
13, 119280, Note_on_c, 10, 81, 84
13, 119370, Control_c, 10, 11, 50
13, 119460, Control_c, 10, 11, 51
13, 119550, Control_c, 10, 11, 53
13, 119640, Control_c, 10, 11, 55
13, 119730, Control_c, 10, 11, 56
13, 119819, Note_on_c, 10, 81, 0
13, 119820, Note_on_c, 10, 80, 84
13, 119820, Control_c, 10, 11, 58
13, 119879, Note_on_c, 10, 80, 0
13, 119880, Note_on_c, 10, 78, 84
13, 119910, Control_c, 10, 11, 60
13, 119984, Note_on_c, 10, 78, 0
13, 120000, Control_c, 10, 11, 61
13, 120000, Note_on_c, 10, 83, 84
13, 120090, Control_c, 10, 11, 63
13, 120180, Control_c, 10, 11, 64
13, 120270, Control_c, 10, 11, 66
13, 120360, Control_c, 10, 11, 68
13, 120450, Control_c, 10, 11, 69
13, 120539, Note_on_c, 10, 83, 0
13, 120540, Control_c, 10, 11, 71
13, 120540, Note_on_c, 10, 81, 84
13, 120599, Note_on_c, 10, 81, 0
13, 120600, Note_on_c, 10, 80, 84
13, 120630, Control_c, 10, 11, 73
13, 120704, Note_on_c, 10, 80, 0
13, 120720, Control_c, 10, 11, 74
13, 120720, Note_on_c, 10, 85, 84
13, 120810, Control_c, 10, 11, 76
13, 120900, Control_c, 10, 11, 78
13, 120990, Control_c, 10, 11, 79
13, 121080, Control_c, 10, 11, 81
13, 121170, Control_c, 10, 11, 83
13, 121259, Note_on_c, 10, 85, 0
13, 121260, Note_on_c, 10, 83, 84
13, 121260, Control_c, 10, 11, 84
13, 121319, Note_on_c, 10, 83, 0
13, 121320, Note_on_c, 10, 81, 84
13, 121350, Control_c, 10, 11, 86
13, 121424, Note_on_c, 10, 81, 0
13, 121440, Control_c, 10, 11, 88
13, 121440, Note_on_c, 10, 87, 84
13, 121530, Control_c, 10, 11, 89
13, 121620, Control_c, 10, 11, 91
13, 121710, Control_c, 10, 11, 92
13, 121800, Control_c, 10, 11, 94
13, 121890, Control_c, 10, 11, 96
13, 121979, Note_on_c, 10, 87, 0
13, 121980, Control_c, 10, 11, 97
13, 121980, Note_on_c, 10, 85, 84
13, 122039, Note_on_c, 10, 85, 0
13, 122040, Note_on_c, 10, 83, 84
13, 122070, Control_c, 10, 11, 99
13, 122144, Note_on_c, 10, 83, 0
13, 122160, Note_on_c, 10, 88, 84
13, 122160, Control_c, 10, 11, 101
13, 122250, Control_c, 10, 11, 102
13, 122340, Control_c, 10, 11, 104
13, 122430, Control_c, 10, 11, 106
13, 122520, Control_c, 10, 11, 107
13, 122610, Control_c, 10, 11, 109
13, 122699, Note_on_c, 10, 88, 0
13, 122700, Control_c, 10, 11, 111
13, 122700, Note_on_c, 10, 87, 84
13, 122759, Note_on_c, 10, 87, 0
13, 122760, Note_on_c, 10, 85, 84
13, 122790, Control_c, 10, 11, 112
13, 122864, Note_on_c, 10, 85, 0
13, 122880, Note_on_c, 10, 90, 84
13, 122880, Control_c, 10, 11, 114
13, 122970, Control_c, 10, 11, 115
13, 123060, Control_c, 10, 11, 117
13, 123150, Control_c, 10, 11, 119
13, 123240, Control_c, 10, 11, 120
13, 123330, Control_c, 10, 11, 122
13, 123419, Note_on_c, 10, 90, 0
13, 123420, Control_c, 10, 11, 124
13, 123420, Note_on_c, 10, 88, 84
13, 123479, Note_on_c, 10, 88, 0
13, 123480, Note_on_c, 10, 87, 84
13, 123510, Control_c, 10, 11, 127
13, 123584, Note_on_c, 10, 87, 0
13, 123600, Note_on_c, 10, 92, 84
13, 123651, Note_on_c, 10, 92, 0
13, 123660, Note_on_c, 10, 92, 84
13, 123711, Note_on_c, 10, 92, 0
13, 123720, Note_on_c, 10, 92, 84
13, 123771, Note_on_c, 10, 92, 0
13, 123780, Note_on_c, 10, 92, 84
13, 123831, Note_on_c, 10, 92, 0
13, 123840, Note_on_c, 10, 92, 84
13, 123891, Note_on_c, 10, 92, 0
13, 123900, Note_on_c, 10, 92, 84
13, 123951, Note_on_c, 10, 92, 0
13, 123960, Note_on_c, 10, 92, 84
13, 124011, Note_on_c, 10, 92, 0
13, 124020, Note_on_c, 10, 92, 84
13, 124071, Note_on_c, 10, 92, 0
13, 124080, Note_on_c, 10, 92, 84
13, 124131, Note_on_c, 10, 92, 0
13, 124140, Note_on_c, 10, 92, 84
13, 124191, Note_on_c, 10, 92, 0
13, 124200, Note_on_c, 10, 92, 84
13, 124251, Note_on_c, 10, 92, 0
13, 124260, Note_on_c, 10, 92, 84
13, 124311, Note_on_c, 10, 92, 0
13, 124320, Note_on_c, 10, 92, 84
13, 124371, Note_on_c, 10, 92, 0
13, 124380, Note_on_c, 10, 92, 84
13, 124431, Note_on_c, 10, 92, 0
13, 124440, Note_on_c, 10, 92, 84
13, 124491, Note_on_c, 10, 92, 0
13, 124500, Note_on_c, 10, 92, 84
13, 124551, Note_on_c, 10, 92, 0
13, 124560, Note_on_c, 10, 92, 84
13, 124611, Note_on_c, 10, 92, 0
13, 124620, Note_on_c, 10, 92, 84
13, 124671, Note_on_c, 10, 92, 0
13, 124680, Note_on_c, 10, 92, 84
13, 124731, Note_on_c, 10, 92, 0
13, 124740, Note_on_c, 10, 92, 84
13, 124791, Note_on_c, 10, 92, 0
13, 124800, Note_on_c, 10, 92, 84
13, 124851, Note_on_c, 10, 92, 0
13, 124860, Note_on_c, 10, 92, 84
13, 124911, Note_on_c, 10, 92, 0
13, 124920, Note_on_c, 10, 92, 84
13, 124971, Note_on_c, 10, 92, 0
13, 124980, Note_on_c, 10, 92, 84
13, 125031, Note_on_c, 10, 92, 0
13, 125040, Note_on_c, 10, 90, 84
13, 125091, Note_on_c, 10, 90, 0
13, 125100, Note_on_c, 10, 90, 84
13, 125151, Note_on_c, 10, 90, 0
13, 125160, Note_on_c, 10, 90, 84
13, 125211, Note_on_c, 10, 90, 0
13, 125220, Note_on_c, 10, 90, 84
13, 125271, Note_on_c, 10, 90, 0
13, 125280, Note_on_c, 10, 90, 84
13, 125331, Note_on_c, 10, 90, 0
13, 125340, Note_on_c, 10, 90, 84
13, 125391, Note_on_c, 10, 90, 0
13, 125400, Note_on_c, 10, 90, 84
13, 125451, Note_on_c, 10, 90, 0
13, 125460, Note_on_c, 10, 90, 84
13, 125511, Note_on_c, 10, 90, 0
13, 125520, Note_on_c, 10, 90, 84
13, 125571, Note_on_c, 10, 90, 0
13, 125580, Note_on_c, 10, 90, 84
13, 125631, Note_on_c, 10, 90, 0
13, 125640, Note_on_c, 10, 90, 84
13, 125691, Note_on_c, 10, 90, 0
13, 125700, Note_on_c, 10, 90, 84
13, 125751, Note_on_c, 10, 90, 0
13, 125760, Note_on_c, 10, 90, 84
13, 125811, Note_on_c, 10, 90, 0
13, 125820, Note_on_c, 10, 90, 84
13, 125871, Note_on_c, 10, 90, 0
13, 125880, Note_on_c, 10, 90, 84
13, 125931, Note_on_c, 10, 90, 0
13, 125940, Note_on_c, 10, 90, 84
13, 125991, Note_on_c, 10, 90, 0
13, 126000, Note_on_c, 10, 90, 84
13, 126051, Note_on_c, 10, 90, 0
13, 126060, Note_on_c, 10, 90, 84
13, 126111, Note_on_c, 10, 90, 0
13, 126120, Note_on_c, 10, 90, 84
13, 126171, Note_on_c, 10, 90, 0
13, 126180, Note_on_c, 10, 90, 84
13, 126231, Note_on_c, 10, 90, 0
13, 126240, Note_on_c, 10, 90, 84
13, 126291, Note_on_c, 10, 90, 0
13, 126300, Note_on_c, 10, 90, 84
13, 126351, Note_on_c, 10, 90, 0
13, 126360, Note_on_c, 10, 90, 84
13, 126411, Note_on_c, 10, 90, 0
13, 126420, Note_on_c, 10, 90, 84
13, 126471, Note_on_c, 10, 90, 0
13, 126480, Note_on_c, 10, 65, 44
13, 126531, Note_on_c, 10, 65, 0
13, 126540, Note_on_c, 10, 65, 44
13, 126591, Note_on_c, 10, 65, 0
13, 126600, Note_on_c, 10, 65, 44
13, 126651, Note_on_c, 10, 65, 0
13, 126660, Note_on_c, 10, 65, 44
13, 126711, Note_on_c, 10, 65, 0
13, 126720, Note_on_c, 10, 65, 44
13, 126771, Note_on_c, 10, 65, 0
13, 126780, Note_on_c, 10, 65, 44
13, 126831, Note_on_c, 10, 65, 0
13, 126840, Note_on_c, 10, 65, 44
13, 126891, Note_on_c, 10, 65, 0
13, 126900, Note_on_c, 10, 65, 44
13, 126951, Note_on_c, 10, 65, 0
13, 126960, Note_on_c, 10, 65, 44
13, 127011, Note_on_c, 10, 65, 0
13, 127020, Note_on_c, 10, 65, 44
13, 127071, Note_on_c, 10, 65, 0
13, 127080, Note_on_c, 10, 65, 44
13, 127131, Note_on_c, 10, 65, 0
13, 127140, Note_on_c, 10, 65, 44
13, 127191, Note_on_c, 10, 65, 0
13, 127200, Note_on_c, 10, 63, 44
13, 127251, Note_on_c, 10, 63, 0
13, 127260, Note_on_c, 10, 83, 47
13, 127311, Note_on_c, 10, 83, 0
13, 127320, Note_on_c, 10, 83, 50
13, 127371, Note_on_c, 10, 83, 0
13, 127380, Note_on_c, 10, 83, 54
13, 127431, Note_on_c, 10, 83, 0
13, 127440, Note_on_c, 10, 83, 57
13, 127491, Note_on_c, 10, 83, 0
13, 127500, Note_on_c, 10, 83, 60
13, 127551, Note_on_c, 10, 83, 0
13, 127560, Note_on_c, 10, 83, 64
13, 127611, Note_on_c, 10, 83, 0
13, 127620, Note_on_c, 10, 83, 67
13, 127671, Note_on_c, 10, 83, 0
13, 127680, Note_on_c, 10, 85, 70
13, 127731, Note_on_c, 10, 85, 0
13, 127740, Note_on_c, 10, 87, 74
13, 127791, Note_on_c, 10, 87, 0
13, 127800, Note_on_c, 10, 88, 77
13, 127851, Note_on_c, 10, 88, 0
13, 127860, Note_on_c, 10, 90, 80
13, 127911, Note_on_c, 10, 90, 0
13, 127920, Note_on_c, 10, 92, 84
13, 127971, Note_on_c, 10, 92, 0
13, 127980, Note_on_c, 10, 92, 84
13, 128031, Note_on_c, 10, 92, 0
13, 128040, Note_on_c, 10, 92, 84
13, 128091, Note_on_c, 10, 92, 0
13, 128100, Note_on_c, 10, 92, 84
13, 128151, Note_on_c, 10, 92, 0
13, 128160, Note_on_c, 10, 92, 84
13, 128211, Note_on_c, 10, 92, 0
13, 128220, Note_on_c, 10, 92, 84
13, 128271, Note_on_c, 10, 92, 0
13, 128280, Note_on_c, 10, 92, 84
13, 128331, Note_on_c, 10, 92, 0
13, 128340, Note_on_c, 10, 92, 84
13, 128391, Note_on_c, 10, 92, 0
13, 128400, Note_on_c, 10, 92, 84
13, 128451, Note_on_c, 10, 92, 0
13, 128460, Note_on_c, 10, 92, 84
13, 128511, Note_on_c, 10, 92, 0
13, 128520, Note_on_c, 10, 92, 84
13, 128571, Note_on_c, 10, 92, 0
13, 128580, Note_on_c, 10, 92, 84
13, 128631, Note_on_c, 10, 92, 0
13, 128640, Note_on_c, 10, 92, 84
13, 128691, Note_on_c, 10, 92, 0
13, 128700, Note_on_c, 10, 92, 84
13, 128751, Note_on_c, 10, 92, 0
13, 128760, Note_on_c, 10, 92, 84
13, 128811, Note_on_c, 10, 92, 0
13, 128820, Note_on_c, 10, 92, 84
13, 128871, Note_on_c, 10, 92, 0
13, 128880, Note_on_c, 10, 92, 84
13, 128931, Note_on_c, 10, 92, 0
13, 128940, Note_on_c, 10, 92, 84
13, 128991, Note_on_c, 10, 92, 0
13, 129000, Note_on_c, 10, 92, 84
13, 129051, Note_on_c, 10, 92, 0
13, 129060, Note_on_c, 10, 92, 84
13, 129111, Note_on_c, 10, 92, 0
13, 129120, Note_on_c, 10, 92, 84
13, 129171, Note_on_c, 10, 92, 0
13, 129180, Note_on_c, 10, 92, 84
13, 129231, Note_on_c, 10, 92, 0
13, 129240, Note_on_c, 10, 92, 84
13, 129291, Note_on_c, 10, 92, 0
13, 129300, Note_on_c, 10, 92, 84
13, 129351, Note_on_c, 10, 92, 0
13, 129360, Note_on_c, 10, 90, 84
13, 129411, Note_on_c, 10, 90, 0
13, 129420, Note_on_c, 10, 90, 84
13, 129471, Note_on_c, 10, 90, 0
13, 129480, Note_on_c, 10, 90, 84
13, 129531, Note_on_c, 10, 90, 0
13, 129540, Note_on_c, 10, 90, 84
13, 129591, Note_on_c, 10, 90, 0
13, 129600, Note_on_c, 10, 90, 84
13, 129651, Note_on_c, 10, 90, 0
13, 129660, Note_on_c, 10, 90, 84
13, 129711, Note_on_c, 10, 90, 0
13, 129720, Note_on_c, 10, 90, 84
13, 129771, Note_on_c, 10, 90, 0
13, 129780, Note_on_c, 10, 90, 84
13, 129831, Note_on_c, 10, 90, 0
13, 129840, Note_on_c, 10, 90, 84
13, 129891, Note_on_c, 10, 90, 0
13, 129900, Note_on_c, 10, 90, 84
13, 129951, Note_on_c, 10, 90, 0
13, 129960, Note_on_c, 10, 90, 84
13, 130011, Note_on_c, 10, 90, 0
13, 130020, Note_on_c, 10, 90, 84
13, 130071, Note_on_c, 10, 90, 0
13, 130080, Note_on_c, 10, 90, 84
13, 130131, Note_on_c, 10, 90, 0
13, 130140, Note_on_c, 10, 90, 84
13, 130191, Note_on_c, 10, 90, 0
13, 130200, Note_on_c, 10, 90, 84
13, 130251, Note_on_c, 10, 90, 0
13, 130260, Note_on_c, 10, 90, 84
13, 130311, Note_on_c, 10, 90, 0
13, 130320, Note_on_c, 10, 90, 84
13, 130371, Note_on_c, 10, 90, 0
13, 130380, Note_on_c, 10, 90, 84
13, 130431, Note_on_c, 10, 90, 0
13, 130440, Note_on_c, 10, 90, 84
13, 130491, Note_on_c, 10, 90, 0
13, 130500, Note_on_c, 10, 90, 84
13, 130551, Note_on_c, 10, 90, 0
13, 130560, Note_on_c, 10, 90, 84
13, 130611, Note_on_c, 10, 90, 0
13, 130620, Note_on_c, 10, 90, 84
13, 130671, Note_on_c, 10, 90, 0
13, 130680, Note_on_c, 10, 90, 84
13, 130731, Note_on_c, 10, 90, 0
13, 130740, Note_on_c, 10, 90, 84
13, 130791, Note_on_c, 10, 90, 0
13, 130798, Control_c, 10, 11, 48
13, 130800, Note_on_c, 10, 89, 84
13, 131159, Note_on_c, 10, 89, 0
13, 131160, Note_on_c, 10, 84, 84
13, 131519, Note_on_c, 10, 84, 0
13, 131520, Note_on_c, 10, 75, 84
13, 131520, Control_c, 10, 11, 48
13, 131560, Control_c, 10, 11, 52
13, 131600, Control_c, 10, 11, 57
13, 131640, Control_c, 10, 11, 61
13, 131680, Control_c, 10, 11, 66
13, 131720, Control_c, 10, 11, 70
13, 131760, Control_c, 10, 11, 74
13, 131800, Control_c, 10, 11, 79
13, 131840, Control_c, 10, 11, 83
13, 131879, Note_on_c, 10, 75, 0
13, 131880, Control_c, 10, 11, 88
13, 131880, Note_on_c, 10, 83, 84
13, 131920, Control_c, 10, 11, 92
13, 131960, Control_c, 10, 11, 96
13, 132000, Control_c, 10, 11, 101
13, 132040, Control_c, 10, 11, 105
13, 132080, Control_c, 10, 11, 109
13, 132104, Note_on_c, 10, 83, 0
13, 132120, Note_on_c, 10, 83, 84
13, 132120, Control_c, 10, 11, 114
13, 132160, Control_c, 10, 11, 118
13, 132200, Control_c, 10, 11, 123
13, 132209, Note_on_c, 10, 83, 0
13, 132238, Control_c, 10, 11, 127
13, 132240, Note_on_c, 10, 83, 84
13, 132771, Note_on_c, 10, 83, 0
13, 132780, Note_on_c, 10, 81, 84
13, 132824, Note_on_c, 10, 81, 0
13, 132840, Note_on_c, 10, 80, 84
13, 132921, Note_on_c, 10, 80, 0
13, 132930, Note_on_c, 10, 80, 84
13, 132959, Note_on_c, 10, 80, 0
13, 132960, Note_on_c, 10, 81, 92
13, 133019, Note_on_c, 10, 81, 0
13, 133020, Note_on_c, 10, 81, 84
13, 133484, Note_on_c, 10, 81, 0
13, 133500, Note_on_c, 10, 73, 84
13, 133544, Note_on_c, 10, 73, 0
13, 133560, Note_on_c, 10, 75, 84
13, 133649, Note_on_c, 10, 75, 0
13, 133680, Note_on_c, 10, 76, 84
13, 133919, Note_on_c, 10, 76, 0
13, 134040, Note_on_c, 10, 71, 84
13, 134040, Note_on_c, 10, 80, 84
13, 134279, Note_on_c, 10, 71, 0
13, 134279, Note_on_c, 10, 80, 0
13, 134400, Note_on_c, 10, 83, 84
13, 134400, Note_on_c, 10, 71, 84
13, 134639, Note_on_c, 10, 83, 0
13, 134639, Note_on_c, 10, 71, 0
13, 134940, Note_on_c, 10, 83, 84
13, 134991, Note_on_c, 10, 83, 0
13, 135000, Note_on_c, 10, 83, 84
13, 135104, Note_on_c, 10, 83, 0
13, 135120, Note_on_c, 10, 83, 92
13, 135179, Note_on_c, 10, 83, 0
13, 135180, Note_on_c, 10, 83, 84
13, 135351, Note_on_c, 10, 83, 0
13, 135360, Note_on_c, 10, 80, 84
13, 135441, Note_on_c, 10, 80, 0
13, 135450, Note_on_c, 10, 80, 84
13, 135479, Note_on_c, 10, 80, 0
13, 135480, Note_on_c, 10, 81, 84
13, 135651, Note_on_c, 10, 81, 0
13, 135660, Note_on_c, 10, 73, 84
13, 135704, Note_on_c, 10, 73, 0
13, 135720, Note_on_c, 10, 75, 84
13, 135809, Note_on_c, 10, 75, 0
13, 135840, Note_on_c, 10, 76, 84
13, 136079, Note_on_c, 10, 76, 0
13, 136380, Note_on_c, 10, 83, 84
13, 136424, Note_on_c, 10, 83, 0
13, 136440, Note_on_c, 10, 83, 84
13, 136529, Note_on_c, 10, 83, 0
13, 136560, Note_on_c, 10, 83, 92
13, 136619, Note_on_c, 10, 83, 0
13, 136620, Note_on_c, 10, 83, 84
13, 136784, Note_on_c, 10, 83, 0
13, 136800, Note_on_c, 10, 80, 84
13, 136881, Note_on_c, 10, 80, 0
13, 136890, Note_on_c, 10, 80, 84
13, 136919, Note_on_c, 10, 80, 0
13, 136920, Note_on_c, 10, 81, 84
13, 137091, Note_on_c, 10, 81, 0
13, 137100, Note_on_c, 10, 73, 84
13, 137144, Note_on_c, 10, 73, 0
13, 137160, Note_on_c, 10, 75, 84
13, 137241, Note_on_c, 10, 75, 0
13, 137250, Note_on_c, 10, 75, 84
13, 137279, Note_on_c, 10, 75, 0
13, 137280, Note_on_c, 10, 76, 84
13, 137459, Note_on_c, 10, 76, 0
13, 137610, Note_on_c, 10, 76, 84
13, 137639, Note_on_c, 10, 76, 0
13, 137640, Note_on_c, 10, 78, 84
13, 137819, Note_on_c, 10, 78, 0
13, 137970, Note_on_c, 10, 78, 84
13, 137999, Note_on_c, 10, 78, 0
13, 138000, Note_on_c, 10, 80, 84
13, 138179, Note_on_c, 10, 80, 0
13, 138330, Note_on_c, 10, 80, 84
13, 138359, Note_on_c, 10, 80, 0
13, 138360, Note_on_c, 10, 81, 84
13, 138539, Note_on_c, 10, 81, 0
13, 138690, Note_on_c, 10, 81, 84
13, 138719, Note_on_c, 10, 81, 0
13, 138720, Note_on_c, 10, 83, 84
13, 138899, Note_on_c, 10, 83, 0
13, 139050, Note_on_c, 10, 83, 84
13, 139079, Note_on_c, 10, 83, 0
13, 139080, Note_on_c, 10, 85, 84
13, 139259, Note_on_c, 10, 85, 0
13, 139410, Note_on_c, 10, 85, 84
13, 139439, Note_on_c, 10, 85, 0
13, 139440, Note_on_c, 10, 86, 84
13, 139619, Note_on_c, 10, 86, 0
13, 139800, Note_on_c, 10, 87, 84
13, 139979, Note_on_c, 10, 87, 0
13, 144420, Note_on_c, 10, 57, 52
13, 144471, Note_on_c, 10, 57, 0
13, 144480, Note_on_c, 10, 57, 52
13, 144719, Note_on_c, 10, 57, 0
13, 145860, Note_on_c, 10, 57, 52
13, 145911, Note_on_c, 10, 57, 0
13, 145920, Note_on_c, 10, 57, 52
13, 146159, Note_on_c, 10, 57, 0
13, 147300, Note_on_c, 10, 57, 52
13, 147351, Note_on_c, 10, 57, 0
13, 147360, Note_on_c, 10, 57, 52
13, 147599, Note_on_c, 10, 57, 0
13, 148740, Note_on_c, 10, 57, 52
13, 148791, Note_on_c, 10, 57, 0
13, 148800, Note_on_c, 10, 57, 52
13, 148919, Note_on_c, 10, 57, 0
13, 149040, Note_on_c, 10, 61, 52
13, 149144, Note_on_c, 10, 61, 0
13, 149160, Note_on_c, 10, 64, 52
13, 149279, Note_on_c, 10, 64, 0
13, 149400, Note_on_c, 10, 64, 52
13, 149504, Note_on_c, 10, 64, 0
13, 149520, Note_on_c, 10, 57, 52
13, 149759, Note_on_c, 10, 57, 0
13, 150900, Note_on_c, 10, 57, 52
13, 150951, Note_on_c, 10, 57, 0
13, 150960, Note_on_c, 10, 57, 52
13, 151199, Note_on_c, 10, 57, 0
13, 151560, Note_on_c, 10, 64, 52
13, 151664, Note_on_c, 10, 64, 0
13, 151680, Note_on_c, 10, 66, 68
13, 151799, Note_on_c, 10, 66, 0
13, 151800, Note_on_c, 10, 64, 52
13, 151904, Note_on_c, 10, 64, 0
13, 151920, Note_on_c, 10, 61, 52
13, 152009, Note_on_c, 10, 61, 0
13, 152040, Note_on_c, 10, 57, 52
13, 152279, Note_on_c, 10, 57, 0
13, 153060, Note_on_c, 10, 57, 52
13, 153111, Note_on_c, 10, 57, 0
13, 153120, Note_on_c, 10, 57, 52
13, 153359, Note_on_c, 10, 57, 0
13, 153720, Note_on_c, 10, 64, 52
13, 153824, Note_on_c, 10, 64, 0
13, 153840, Note_on_c, 10, 66, 68
13, 153959, Note_on_c, 10, 66, 0
13, 153960, Note_on_c, 10, 64, 52
13, 154064, Note_on_c, 10, 64, 0
13, 154080, Note_on_c, 10, 61, 52
13, 154169, Note_on_c, 10, 61, 0
13, 154200, Note_on_c, 10, 57, 52
13, 154439, Note_on_c, 10, 57, 0
13, 155220, Note_on_c, 10, 64, 52
13, 155220, Note_on_c, 10, 76, 52
13, 155271, Note_on_c, 10, 64, 0
13, 155271, Note_on_c, 10, 76, 0
13, 155280, Note_on_c, 10, 76, 76
13, 155280, Note_on_c, 10, 64, 76
13, 155320, Control_c, 10, 11, 123
13, 155360, Control_c, 10, 11, 119
13, 155400, Control_c, 10, 11, 115
13, 155440, Control_c, 10, 11, 111
13, 155480, Control_c, 10, 11, 107
13, 155520, Control_c, 10, 11, 104
13, 155560, Control_c, 10, 11, 100
13, 155600, Control_c, 10, 11, 96
13, 155640, Control_c, 10, 11, 92
13, 155680, Control_c, 10, 11, 88
13, 155720, Control_c, 10, 11, 84
13, 155760, Control_c, 10, 11, 80
13, 155879, Note_on_c, 10, 76, 0
13, 155879, Note_on_c, 10, 64, 0
13, 156360, Control_c, 10, 11, 127
13, 156660, Note_on_c, 10, 64, 52
13, 156660, Note_on_c, 10, 76, 52
13, 156711, Note_on_c, 10, 64, 0
13, 156711, Note_on_c, 10, 76, 0
13, 156720, Note_on_c, 10, 76, 76
13, 156720, Note_on_c, 10, 64, 76
13, 157251, Note_on_c, 10, 76, 0
13, 157251, Note_on_c, 10, 64, 0
13, 157260, Note_on_c, 10, 73, 76
13, 157304, Note_on_c, 10, 73, 0
13, 157320, Note_on_c, 10, 69, 76
13, 157409, Note_on_c, 10, 69, 0
13, 157440, Note_on_c, 10, 76, 84
13, 157440, Note_on_c, 10, 64, 84
13, 157499, Note_on_c, 10, 76, 0
13, 157499, Note_on_c, 10, 64, 0
13, 157500, Note_on_c, 10, 76, 76
13, 157500, Note_on_c, 10, 64, 76
13, 157971, Note_on_c, 10, 76, 0
13, 157971, Note_on_c, 10, 64, 0
13, 157980, Note_on_c, 10, 73, 76
13, 158024, Note_on_c, 10, 73, 0
13, 158040, Note_on_c, 10, 70, 76
13, 158129, Note_on_c, 10, 70, 0
13, 158160, Note_on_c, 10, 76, 84
13, 158219, Note_on_c, 10, 76, 0
13, 158220, Note_on_c, 10, 76, 76
13, 158279, Note_on_c, 10, 76, 0
13, 158340, Note_on_c, 10, 74, 76
13, 158384, Note_on_c, 10, 74, 0
13, 158400, Note_on_c, 10, 71, 76
13, 158489, Note_on_c, 10, 71, 0
13, 158520, Note_on_c, 10, 80, 84
13, 158579, Note_on_c, 10, 80, 0
13, 158580, Note_on_c, 10, 80, 76
13, 158639, Note_on_c, 10, 80, 0
13, 158700, Note_on_c, 10, 76, 76
13, 158744, Note_on_c, 10, 76, 0
13, 158760, Note_on_c, 10, 74, 76
13, 158849, Note_on_c, 10, 74, 0
13, 158880, Note_on_c, 10, 83, 84
13, 158939, Note_on_c, 10, 83, 0
13, 158940, Note_on_c, 10, 83, 76
13, 158999, Note_on_c, 10, 83, 0
13, 159060, Note_on_c, 10, 80, 76
13, 159104, Note_on_c, 10, 80, 0
13, 159120, Note_on_c, 10, 76, 76
13, 159209, Note_on_c, 10, 76, 0
13, 159240, Note_on_c, 10, 86, 84
13, 159299, Note_on_c, 10, 86, 0
13, 159300, Note_on_c, 10, 86, 76
13, 159359, Note_on_c, 10, 86, 0
13, 159420, Note_on_c, 10, 83, 76
13, 159464, Note_on_c, 10, 83, 0
13, 159480, Note_on_c, 10, 80, 76
13, 159569, Note_on_c, 10, 80, 0
13, 159600, Note_on_c, 10, 86, 76
13, 159944, Note_on_c, 10, 86, 0
13, 159960, Note_on_c, 10, 76, 84
13, 160019, Note_on_c, 10, 76, 0
13, 160020, Note_on_c, 10, 78, 84
13, 160079, Note_on_c, 10, 78, 0
13, 160080, Note_on_c, 10, 80, 84
13, 160139, Note_on_c, 10, 80, 0
13, 160140, Note_on_c, 10, 81, 84
13, 160199, Note_on_c, 10, 81, 0
13, 160200, Note_on_c, 10, 83, 84
13, 160239, Note_on_c, 10, 83, 0
13, 160240, Note_on_c, 10, 85, 84
13, 160279, Note_on_c, 10, 85, 0
13, 160280, Note_on_c, 10, 86, 84
13, 160311, Note_on_c, 10, 86, 0
13, 160320, Note_on_c, 10, 88, 92
13, 160379, Note_on_c, 10, 88, 0
13, 160380, Note_on_c, 10, 88, 84
13, 160851, Note_on_c, 10, 88, 0
13, 160860, Note_on_c, 10, 86, 84
13, 160904, Note_on_c, 10, 86, 0
13, 160920, Note_on_c, 10, 85, 84
13, 161001, Note_on_c, 10, 85, 0
13, 161010, Note_on_c, 10, 85, 84
13, 161039, Note_on_c, 10, 85, 0
13, 161040, Note_on_c, 10, 86, 84
13, 161571, Note_on_c, 10, 86, 0
13, 161580, Note_on_c, 10, 78, 84
13, 161624, Note_on_c, 10, 78, 0
13, 161640, Note_on_c, 10, 80, 84
13, 161729, Note_on_c, 10, 80, 0
13, 161760, Note_on_c, 10, 81, 84
13, 161984, Note_on_c, 10, 81, 0
13, 162000, Note_on_c, 10, 81, 84
13, 162104, Note_on_c, 10, 81, 0
13, 162120, Note_on_c, 10, 81, 84
13, 162291, Note_on_c, 10, 81, 0
13, 162300, Note_on_c, 10, 83, 84
13, 162344, Note_on_c, 10, 83, 0
13, 162360, Note_on_c, 10, 85, 84
13, 162449, Note_on_c, 10, 85, 0
13, 162480, Note_on_c, 10, 85, 84
13, 162599, Note_on_c, 10, 85, 0
13, 162600, Note_on_c, 10, 83, 84
13, 163011, Note_on_c, 10, 83, 0
13, 163020, Note_on_c, 10, 85, 84
13, 163064, Note_on_c, 10, 85, 0
13, 163080, Note_on_c, 10, 86, 84
13, 163161, Note_on_c, 10, 86, 0
13, 163170, Note_on_c, 10, 87, 84
13, 163199, Note_on_c, 10, 87, 0
13, 163200, Note_on_c, 10, 88, 84
13, 163731, Note_on_c, 10, 88, 0
13, 163740, Note_on_c, 10, 86, 84
13, 163784, Note_on_c, 10, 86, 0
13, 163800, Note_on_c, 10, 85, 84
13, 163881, Note_on_c, 10, 85, 0
13, 163890, Note_on_c, 10, 85, 84
13, 163919, Note_on_c, 10, 85, 0
13, 163920, Note_on_c, 10, 86, 84
13, 164451, Note_on_c, 10, 86, 0
13, 164460, Note_on_c, 10, 78, 84
13, 164504, Note_on_c, 10, 78, 0
13, 164520, Note_on_c, 10, 80, 84
13, 164609, Note_on_c, 10, 80, 0
13, 164640, Note_on_c, 10, 81, 84
13, 164864, Note_on_c, 10, 81, 0
13, 164880, Note_on_c, 10, 81, 84
13, 164984, Note_on_c, 10, 81, 0
13, 165000, Note_on_c, 10, 81, 84
13, 165171, Note_on_c, 10, 81, 0
13, 165180, Note_on_c, 10, 85, 84
13, 165224, Note_on_c, 10, 85, 0
13, 165240, Note_on_c, 10, 83, 84
13, 165329, Note_on_c, 10, 83, 0
13, 165360, Note_on_c, 10, 81, 84
13, 165599, Note_on_c, 10, 81, 0
13, 165960, Note_on_c, 10, 81, 84
13, 166064, Note_on_c, 10, 81, 0
13, 166080, Note_on_c, 10, 81, 84
13, 166304, Note_on_c, 10, 81, 0
13, 166320, Note_on_c, 10, 81, 84
13, 166424, Note_on_c, 10, 81, 0
13, 166440, Note_on_c, 10, 81, 84
13, 166611, Note_on_c, 10, 81, 0
13, 166620, Note_on_c, 10, 86, 84
13, 166664, Note_on_c, 10, 86, 0
13, 166680, Note_on_c, 10, 90, 84
13, 166769, Note_on_c, 10, 90, 0
13, 166800, Note_on_c, 10, 90, 84
13, 166919, Note_on_c, 10, 90, 0
13, 166920, Note_on_c, 10, 88, 84
13, 167024, Note_on_c, 10, 88, 0
13, 167040, Note_on_c, 10, 85, 84
13, 167129, Note_on_c, 10, 85, 0
13, 167160, Note_on_c, 10, 81, 84
13, 167384, Note_on_c, 10, 81, 0
13, 167400, Note_on_c, 10, 81, 84
13, 167504, Note_on_c, 10, 81, 0
13, 167520, Note_on_c, 10, 81, 84
13, 167691, Note_on_c, 10, 81, 0
13, 167700, Note_on_c, 10, 86, 84
13, 167744, Note_on_c, 10, 86, 0
13, 167760, Note_on_c, 10, 81, 84
13, 167849, Note_on_c, 10, 81, 0
13, 167880, Note_on_c, 10, 81, 84
13, 168051, Note_on_c, 10, 81, 0
13, 168060, Note_on_c, 10, 86, 84
13, 168104, Note_on_c, 10, 86, 0
13, 168120, Note_on_c, 10, 90, 84
13, 168209, Note_on_c, 10, 90, 0
13, 168240, Note_on_c, 10, 90, 84
13, 168359, Note_on_c, 10, 90, 0
13, 168360, Note_on_c, 10, 88, 84
13, 168464, Note_on_c, 10, 88, 0
13, 168480, Note_on_c, 10, 85, 84
13, 168569, Note_on_c, 10, 85, 0
13, 168600, Note_on_c, 10, 81, 84
13, 168824, Note_on_c, 10, 81, 0
13, 168838, Control_c, 10, 11, 64
13, 168840, Note_on_c, 10, 76, 84
13, 168944, Note_on_c, 10, 76, 0
13, 168960, Control_c, 10, 11, 64
13, 168960, Note_on_c, 10, 78, 84
13, 169051, Control_c, 10, 11, 65
13, 169079, Note_on_c, 10, 78, 0
13, 169080, Note_on_c, 10, 76, 84
13, 169143, Control_c, 10, 11, 66
13, 169184, Note_on_c, 10, 76, 0
13, 169200, Note_on_c, 10, 73, 84
13, 169234, Control_c, 10, 11, 67
13, 169289, Note_on_c, 10, 73, 0
13, 169320, Note_on_c, 10, 69, 84
13, 169326, Control_c, 10, 11, 68
13, 169417, Control_c, 10, 11, 69
13, 169509, Control_c, 10, 11, 70
13, 169544, Note_on_c, 10, 69, 0
13, 169560, Note_on_c, 10, 76, 84
13, 169600, Control_c, 10, 11, 71
13, 169664, Note_on_c, 10, 76, 0
13, 169680, Note_on_c, 10, 79, 84
13, 169691, Control_c, 10, 11, 72
13, 169783, Control_c, 10, 11, 73
13, 169799, Note_on_c, 10, 79, 0
13, 169800, Note_on_c, 10, 78, 84
13, 169874, Control_c, 10, 11, 74
13, 169904, Note_on_c, 10, 78, 0
13, 169920, Note_on_c, 10, 74, 84
13, 169966, Control_c, 10, 11, 75
13, 170009, Note_on_c, 10, 74, 0
13, 170040, Note_on_c, 10, 69, 84
13, 170057, Control_c, 10, 11, 76
13, 170149, Control_c, 10, 11, 77
13, 170240, Control_c, 10, 11, 78
13, 170264, Note_on_c, 10, 69, 0
13, 170280, Note_on_c, 10, 78, 84
13, 170331, Control_c, 10, 11, 79
13, 170384, Note_on_c, 10, 78, 0
13, 170400, Note_on_c, 10, 81, 84
13, 170423, Control_c, 10, 11, 80
13, 170514, Control_c, 10, 11, 81
13, 170519, Note_on_c, 10, 81, 0
13, 170520, Note_on_c, 10, 80, 84
13, 170606, Control_c, 10, 11, 82
13, 170624, Note_on_c, 10, 80, 0
13, 170640, Note_on_c, 10, 74, 84
13, 170697, Control_c, 10, 11, 83
13, 170729, Note_on_c, 10, 74, 0
13, 170760, Note_on_c, 10, 71, 84
13, 170789, Control_c, 10, 11, 84
13, 170880, Control_c, 10, 11, 85
13, 170971, Control_c, 10, 11, 86
13, 170984, Note_on_c, 10, 71, 0
13, 171000, Note_on_c, 10, 80, 84
13, 171063, Control_c, 10, 11, 87
13, 171104, Note_on_c, 10, 80, 0
13, 171120, Note_on_c, 10, 83, 84
13, 171154, Control_c, 10, 11, 88
13, 171239, Note_on_c, 10, 83, 0
13, 171240, Note_on_c, 10, 81, 84
13, 171246, Control_c, 10, 11, 89
13, 171337, Control_c, 10, 11, 90
13, 171344, Note_on_c, 10, 81, 0
13, 171360, Note_on_c, 10, 76, 84
13, 171429, Control_c, 10, 11, 91
13, 171449, Note_on_c, 10, 76, 0
13, 171480, Note_on_c, 10, 73, 84
13, 171520, Control_c, 10, 11, 92
13, 171611, Control_c, 10, 11, 93
13, 171703, Control_c, 10, 11, 94
13, 171704, Note_on_c, 10, 73, 0
13, 171720, Note_on_c, 10, 76, 84
13, 171794, Control_c, 10, 11, 95
13, 171824, Note_on_c, 10, 76, 0
13, 171840, Note_on_c, 10, 78, 84
13, 171886, Control_c, 10, 11, 96
13, 171959, Note_on_c, 10, 78, 0
13, 171960, Note_on_c, 10, 76, 84
13, 171977, Control_c, 10, 11, 97
13, 172064, Note_on_c, 10, 76, 0
13, 172069, Control_c, 10, 11, 98
13, 172080, Note_on_c, 10, 73, 84
13, 172160, Control_c, 10, 11, 99
13, 172169, Note_on_c, 10, 73, 0
13, 172200, Note_on_c, 10, 78, 84
13, 172251, Control_c, 10, 11, 100
13, 172319, Note_on_c, 10, 78, 0
13, 172320, Note_on_c, 10, 76, 84
13, 172343, Control_c, 10, 11, 101
13, 172424, Note_on_c, 10, 76, 0
13, 172434, Control_c, 10, 11, 102
13, 172440, Note_on_c, 10, 73, 84
13, 172526, Control_c, 10, 11, 103
13, 172529, Note_on_c, 10, 73, 0
13, 172560, Note_on_c, 10, 79, 84
13, 172617, Control_c, 10, 11, 104
13, 172679, Note_on_c, 10, 79, 0
13, 172680, Note_on_c, 10, 78, 84
13, 172709, Control_c, 10, 11, 105
13, 172784, Note_on_c, 10, 78, 0
13, 172800, Control_c, 10, 11, 106
13, 172800, Note_on_c, 10, 74, 84
13, 172889, Note_on_c, 10, 74, 0
13, 172891, Control_c, 10, 11, 107
13, 172920, Note_on_c, 10, 79, 84
13, 172983, Control_c, 10, 11, 108
13, 173039, Note_on_c, 10, 79, 0
13, 173040, Note_on_c, 10, 78, 84
13, 173074, Control_c, 10, 11, 109
13, 173144, Note_on_c, 10, 78, 0
13, 173160, Note_on_c, 10, 74, 84
13, 173166, Control_c, 10, 11, 110
13, 173249, Note_on_c, 10, 74, 0
13, 173257, Control_c, 10, 11, 111
13, 173280, Note_on_c, 10, 81, 84
13, 173349, Control_c, 10, 11, 112
13, 173399, Note_on_c, 10, 81, 0
13, 173400, Note_on_c, 10, 80, 84
13, 173440, Control_c, 10, 11, 113
13, 173504, Note_on_c, 10, 80, 0
13, 173520, Note_on_c, 10, 76, 84
13, 173531, Control_c, 10, 11, 114
13, 173609, Note_on_c, 10, 76, 0
13, 173623, Control_c, 10, 11, 115
13, 173640, Note_on_c, 10, 81, 84
13, 173714, Control_c, 10, 11, 116
13, 173759, Note_on_c, 10, 81, 0
13, 173760, Note_on_c, 10, 80, 84
13, 173806, Control_c, 10, 11, 117
13, 173864, Note_on_c, 10, 80, 0
13, 173880, Note_on_c, 10, 76, 84
13, 173897, Control_c, 10, 11, 118
13, 173969, Note_on_c, 10, 76, 0
13, 173989, Control_c, 10, 11, 119
13, 174000, Note_on_c, 10, 83, 84
13, 174080, Control_c, 10, 11, 120
13, 174119, Note_on_c, 10, 83, 0
13, 174120, Note_on_c, 10, 81, 84
13, 174171, Control_c, 10, 11, 121
13, 174224, Note_on_c, 10, 81, 0
13, 174240, Note_on_c, 10, 76, 84
13, 174263, Control_c, 10, 11, 122
13, 174329, Note_on_c, 10, 76, 0
13, 174354, Control_c, 10, 11, 123
13, 174360, Note_on_c, 10, 86, 84
13, 174446, Control_c, 10, 11, 124
13, 174479, Note_on_c, 10, 86, 0
13, 174480, Note_on_c, 10, 85, 84
13, 174537, Control_c, 10, 11, 125
13, 174584, Note_on_c, 10, 85, 0
13, 174600, Note_on_c, 10, 81, 84
13, 174629, Control_c, 10, 11, 127
13, 174689, Note_on_c, 10, 81, 0
13, 174720, Note_on_c, 10, 88, 84
13, 175251, Note_on_c, 10, 88, 0
13, 175260, Note_on_c, 10, 87, 84
13, 175304, Note_on_c, 10, 87, 0
13, 175320, Note_on_c, 10, 85, 84
13, 175401, Note_on_c, 10, 85, 0
13, 175410, Note_on_c, 10, 85, 84
13, 175439, Note_on_c, 10, 85, 0
13, 175440, Note_on_c, 10, 87, 84
13, 175904, Note_on_c, 10, 87, 0
13, 175920, Note_on_c, 10, 69, 52
13, 176009, Note_on_c, 10, 69, 0
13, 176040, Note_on_c, 10, 71, 52
13, 176129, Note_on_c, 10, 71, 0
13, 176160, Note_on_c, 10, 73, 52
13, 176384, Note_on_c, 10, 73, 0
13, 176400, Note_on_c, 10, 73, 52
13, 176504, Note_on_c, 10, 73, 0
13, 176520, Note_on_c, 10, 73, 52
13, 176691, Note_on_c, 10, 73, 0
13, 176700, Note_on_c, 10, 75, 52
13, 176744, Note_on_c, 10, 75, 0
13, 176760, Note_on_c, 10, 73, 52
13, 176849, Note_on_c, 10, 73, 0
13, 176880, Note_on_c, 10, 72, 52
13, 177104, Note_on_c, 10, 72, 0
13, 177120, Note_on_c, 10, 68, 52
13, 177224, Note_on_c, 10, 68, 0
13, 177240, Note_on_c, 10, 68, 52
13, 177411, Note_on_c, 10, 68, 0
13, 177420, Note_on_c, 10, 72, 52
13, 177464, Note_on_c, 10, 72, 0
13, 177480, Note_on_c, 10, 75, 52
13, 177561, Note_on_c, 10, 75, 0
13, 177570, Note_on_c, 10, 73, 52
13, 177599, Note_on_c, 10, 73, 0
13, 177600, Note_on_c, 10, 76, 52
13, 177824, Note_on_c, 10, 76, 0
13, 177840, Note_on_c, 10, 76, 52
13, 177944, Note_on_c, 10, 76, 0
13, 177960, Note_on_c, 10, 76, 52
13, 178131, Note_on_c, 10, 76, 0
13, 178140, Note_on_c, 10, 75, 52
13, 178184, Note_on_c, 10, 75, 0
13, 178200, Note_on_c, 10, 73, 52
13, 178289, Note_on_c, 10, 73, 0
13, 178320, Note_on_c, 10, 72, 52
13, 178544, Note_on_c, 10, 72, 0
13, 178560, Note_on_c, 10, 68, 52
13, 178664, Note_on_c, 10, 68, 0
13, 178680, Note_on_c, 10, 68, 52
13, 178851, Note_on_c, 10, 68, 0
13, 178860, Note_on_c, 10, 72, 52
13, 178904, Note_on_c, 10, 72, 0
13, 178920, Note_on_c, 10, 75, 52
13, 179009, Note_on_c, 10, 75, 0
13, 179038, Control_c, 10, 11, 80
13, 179040, Note_on_c, 10, 76, 76
13, 179040, Control_c, 10, 11, 80
13, 179080, Control_c, 10, 11, 83
13, 179120, Control_c, 10, 11, 85
13, 179160, Control_c, 10, 11, 88
13, 179200, Control_c, 10, 11, 90
13, 179240, Control_c, 10, 11, 93
13, 179279, Note_on_c, 10, 76, 0
13, 179280, Note_on_c, 10, 76, 76
13, 179280, Control_c, 10, 11, 96
13, 179320, Control_c, 10, 11, 98
13, 179360, Control_c, 10, 11, 101
13, 179399, Note_on_c, 10, 76, 0
13, 179400, Note_on_c, 10, 80, 76
13, 179400, Control_c, 10, 11, 104
13, 179440, Control_c, 10, 11, 106
13, 179480, Control_c, 10, 11, 109
13, 179520, Control_c, 10, 11, 111
13, 179560, Control_c, 10, 11, 114
13, 179600, Control_c, 10, 11, 117
13, 179639, Note_on_c, 10, 80, 0
13, 179640, Note_on_c, 10, 80, 76
13, 179640, Control_c, 10, 11, 119
13, 179680, Control_c, 10, 11, 122
13, 179720, Control_c, 10, 11, 127
13, 179759, Note_on_c, 10, 80, 0
13, 179760, Note_on_c, 10, 79, 76
13, 179999, Note_on_c, 10, 79, 0
13, 181440, Note_on_c, 10, 75, 52
13, 181544, Note_on_c, 10, 75, 0
13, 181560, Note_on_c, 10, 75, 52
13, 181731, Note_on_c, 10, 75, 0
13, 181740, Note_on_c, 10, 79, 52
13, 181784, Note_on_c, 10, 79, 0
13, 181800, Note_on_c, 10, 82, 52
13, 181889, Note_on_c, 10, 82, 0
13, 181918, Control_c, 10, 11, 80
13, 181920, Control_c, 10, 11, 80
13, 181920, Note_on_c, 10, 83, 76
13, 181960, Control_c, 10, 11, 83
13, 182000, Control_c, 10, 11, 85
13, 182040, Control_c, 10, 11, 88
13, 182080, Control_c, 10, 11, 90
13, 182120, Control_c, 10, 11, 93
13, 182144, Note_on_c, 10, 83, 0
13, 182160, Note_on_c, 10, 83, 76
13, 182160, Control_c, 10, 11, 96
13, 182200, Control_c, 10, 11, 98
13, 182240, Control_c, 10, 11, 101
13, 182264, Note_on_c, 10, 83, 0
13, 182280, Note_on_c, 10, 88, 76
13, 182280, Control_c, 10, 11, 104
13, 182320, Control_c, 10, 11, 106
13, 182360, Control_c, 10, 11, 109
13, 182400, Control_c, 10, 11, 111
13, 182440, Control_c, 10, 11, 114
13, 182480, Control_c, 10, 11, 117
13, 182504, Note_on_c, 10, 88, 0
13, 182520, Control_c, 10, 11, 119
13, 182520, Note_on_c, 10, 88, 76
13, 182560, Control_c, 10, 11, 122
13, 182600, Control_c, 10, 11, 127
13, 182624, Note_on_c, 10, 88, 0
13, 182640, Note_on_c, 10, 88, 76
13, 182759, Note_on_c, 10, 88, 0
13, 182760, Note_on_c, 10, 87, 76
13, 183224, Note_on_c, 10, 87, 0
13, 183240, Note_on_c, 10, 81, 76
13, 183344, Note_on_c, 10, 81, 0
13, 183360, Note_on_c, 10, 80, 76
13, 183584, Note_on_c, 10, 80, 0
13, 183600, Note_on_c, 10, 80, 76
13, 183704, Note_on_c, 10, 80, 0
13, 183720, Note_on_c, 10, 85, 76
13, 183944, Note_on_c, 10, 85, 0
13, 183960, Note_on_c, 10, 85, 76
13, 184064, Note_on_c, 10, 85, 0
13, 184080, Note_on_c, 10, 85, 84
13, 184199, Note_on_c, 10, 85, 0
13, 184200, Note_on_c, 10, 83, 76
13, 184664, Note_on_c, 10, 83, 0
13, 184680, Note_on_c, 10, 78, 76
13, 184784, Note_on_c, 10, 78, 0
13, 184800, Note_on_c, 10, 76, 76
13, 185024, Note_on_c, 10, 76, 0
13, 185040, Note_on_c, 10, 76, 76
13, 185144, Note_on_c, 10, 76, 0
13, 185160, Note_on_c, 10, 69, 76
13, 185160, Note_on_c, 10, 81, 76
13, 185384, Note_on_c, 10, 69, 0
13, 185384, Note_on_c, 10, 81, 0
13, 185400, Note_on_c, 10, 81, 76
13, 185400, Note_on_c, 10, 69, 76
13, 185504, Note_on_c, 10, 81, 0
13, 185504, Note_on_c, 10, 69, 0
13, 185520, Note_on_c, 10, 69, 76
13, 185520, Note_on_c, 10, 81, 76
13, 185699, Note_on_c, 10, 69, 0
13, 185699, Note_on_c, 10, 81, 0
13, 185880, Note_on_c, 10, 69, 76
13, 185880, Note_on_c, 10, 81, 76
13, 186059, Note_on_c, 10, 69, 0
13, 186059, Note_on_c, 10, 81, 0
13, 186240, Note_on_c, 10, 71, 76
13, 186240, Note_on_c, 10, 80, 76
13, 186419, Note_on_c, 10, 71, 0
13, 186419, Note_on_c, 10, 80, 0
13, 186600, Note_on_c, 10, 80, 76
13, 186600, Note_on_c, 10, 88, 76
13, 186779, Note_on_c, 10, 80, 0
13, 186779, Note_on_c, 10, 88, 0
13, 186960, Note_on_c, 10, 87, 76
13, 186960, Note_on_c, 10, 78, 76
13, 187139, Note_on_c, 10, 87, 0
13, 187139, Note_on_c, 10, 78, 0
13, 187320, Note_on_c, 10, 81, 76
13, 187320, Note_on_c, 10, 69, 76
13, 187499, Note_on_c, 10, 81, 0
13, 187499, Note_on_c, 10, 69, 0
13, 187680, Note_on_c, 10, 71, 76
13, 187680, Note_on_c, 10, 80, 76
13, 187859, Note_on_c, 10, 71, 0
13, 187859, Note_on_c, 10, 80, 0
13, 188040, Note_on_c, 10, 76, 76
13, 188040, Note_on_c, 10, 88, 76
13, 188219, Note_on_c, 10, 76, 0
13, 188219, Note_on_c, 10, 88, 0
13, 188400, Note_on_c, 10, 61, 84
13, 188460, Control_c, 10, 11, 112
13, 188497, Control_c, 10, 11, 109
13, 188533, Control_c, 10, 11, 107
13, 188570, Control_c, 10, 11, 104
13, 188607, Control_c, 10, 11, 101
13, 188643, Control_c, 10, 11, 99
13, 188680, Control_c, 10, 11, 96
13, 188717, Control_c, 10, 11, 93
13, 188753, Control_c, 10, 11, 91
13, 188790, Control_c, 10, 11, 88
13, 188827, Control_c, 10, 11, 85
13, 188863, Control_c, 10, 11, 83
13, 188900, Control_c, 10, 11, 80
13, 188937, Control_c, 10, 11, 77
13, 188973, Control_c, 10, 11, 75
13, 188999, Note_on_c, 10, 61, 0
13, 189000, Note_on_c, 10, 60, 84
13, 189010, Control_c, 10, 11, 72
13, 189047, Control_c, 10, 11, 69
13, 189083, Control_c, 10, 11, 64
13, 189104, Note_on_c, 10, 60, 0
13, 189120, Note_on_c, 10, 59, 84
13, 189719, Note_on_c, 10, 59, 0
13, 189720, Note_on_c, 10, 61, 84
13, 189779, Note_on_c, 10, 61, 0
13, 189780, Note_on_c, 10, 63, 84
13, 189839, Note_on_c, 10, 63, 0
13, 189840, Note_on_c, 10, 64, 84
13, 190079, Note_on_c, 10, 64, 0
13, 191160, Control_c, 10, 11, 127
13, 191280, Note_on_c, 10, 64, 48
13, 191639, Note_on_c, 10, 64, 0
13, 191640, Note_on_c, 10, 68, 48
13, 191999, Note_on_c, 10, 68, 0
13, 192000, Note_on_c, 10, 71, 48
13, 192359, Note_on_c, 10, 71, 0
13, 192360, Note_on_c, 10, 59, 48
13, 192704, Note_on_c, 10, 59, 0
13, 192720, Note_on_c, 10, 71, 76
13, 192720, Note_on_c, 10, 64, 76
13, 192720, Note_on_c, 10, 76, 76
13, 192959, Note_on_c, 10, 71, 0
13, 192959, Note_on_c, 10, 64, 0
13, 193064, Note_on_c, 10, 76, 0
13, 193080, Note_on_c, 10, 80, 76
13, 193251, Note_on_c, 10, 80, 0
13, 193260, Note_on_c, 10, 76, 76
13, 193311, Note_on_c, 10, 76, 0
13, 193320, Note_on_c, 10, 76, 76
13, 193424, Note_on_c, 10, 76, 0
13, 193440, Note_on_c, 10, 81, 76
13, 193611, Note_on_c, 10, 81, 0
13, 193620, Note_on_c, 10, 78, 76
13, 193671, Note_on_c, 10, 78, 0
13, 193680, Note_on_c, 10, 78, 76
13, 193784, Note_on_c, 10, 78, 0
13, 193800, Note_on_c, 10, 83, 76
13, 193971, Note_on_c, 10, 83, 0
13, 193980, Note_on_c, 10, 83, 76
13, 194031, Note_on_c, 10, 83, 0
13, 194040, Note_on_c, 10, 83, 76
13, 194144, Note_on_c, 10, 83, 0
13, 194160, Note_on_c, 10, 84, 76
13, 194331, Note_on_c, 10, 84, 0
13, 194340, Note_on_c, 10, 84, 76
13, 194391, Note_on_c, 10, 84, 0
13, 194400, Note_on_c, 10, 79, 76
13, 194504, Note_on_c, 10, 79, 0
13, 194520, Note_on_c, 10, 76, 76
13, 194691, Note_on_c, 10, 76, 0
13, 194700, Note_on_c, 10, 76, 76
13, 194751, Note_on_c, 10, 76, 0
13, 194760, Note_on_c, 10, 72, 76
13, 194864, Note_on_c, 10, 72, 0
13, 194880, Note_on_c, 10, 67, 76
13, 195051, Note_on_c, 10, 67, 0
13, 195060, Note_on_c, 10, 67, 76
13, 195111, Note_on_c, 10, 67, 0
13, 195120, Note_on_c, 10, 64, 76
13, 195224, Note_on_c, 10, 64, 0
13, 195240, Note_on_c, 10, 60, 76
13, 195411, Note_on_c, 10, 60, 0
13, 195420, Note_on_c, 10, 60, 76
13, 195471, Note_on_c, 10, 60, 0
13, 195480, Note_on_c, 10, 55, 76
13, 195584, Note_on_c, 10, 55, 0
13, 195600, Note_on_c, 10, 60, 76
13, 195839, Note_on_c, 10, 60, 0
13, 196140, Note_on_c, 10, 55, 75
13, 196191, Note_on_c, 10, 55, 0
13, 196200, Note_on_c, 10, 55, 73
13, 196304, Note_on_c, 10, 55, 0
13, 196320, Note_on_c, 10, 60, 70
13, 196559, Note_on_c, 10, 60, 0
13, 196860, Note_on_c, 10, 55, 57
13, 196911, Note_on_c, 10, 55, 0
13, 196920, Note_on_c, 10, 55, 55
13, 197024, Note_on_c, 10, 55, 0
13, 197040, Note_on_c, 10, 60, 52
13, 197279, Note_on_c, 10, 60, 0
13, 197760, Note_on_c, 10, 60, 44
13, 197999, Note_on_c, 10, 60, 0
13, 198480, Note_on_c, 10, 81, 44
13, 199019, Note_on_c, 10, 81, 0
13, 199020, Note_on_c, 10, 79, 44
13, 199079, Note_on_c, 10, 79, 0
13, 199080, Note_on_c, 10, 78, 44
13, 199184, Note_on_c, 10, 78, 0
13, 199200, Note_on_c, 10, 81, 44
13, 199739, Note_on_c, 10, 81, 0
13, 199740, Note_on_c, 10, 79, 44
13, 199799, Note_on_c, 10, 79, 0
13, 199800, Note_on_c, 10, 78, 44
13, 199904, Note_on_c, 10, 78, 0
13, 199920, Note_on_c, 10, 81, 44
13, 200459, Note_on_c, 10, 81, 0
13, 200460, Note_on_c, 10, 79, 44
13, 200519, Note_on_c, 10, 79, 0
13, 200520, Note_on_c, 10, 78, 44
13, 200624, Note_on_c, 10, 78, 0
13, 200640, Note_on_c, 10, 81, 44
13, 201179, Note_on_c, 10, 81, 0
13, 201180, Note_on_c, 10, 79, 44
13, 201239, Note_on_c, 10, 79, 0
13, 201240, Note_on_c, 10, 78, 44
13, 201344, Note_on_c, 10, 78, 0
13, 201358, Control_c, 10, 11, 48
13, 201360, Note_on_c, 10, 81, 84
13, 201450, Control_c, 10, 11, 50
13, 201540, Control_c, 10, 11, 51
13, 201630, Control_c, 10, 11, 53
13, 201720, Control_c, 10, 11, 55
13, 201810, Control_c, 10, 11, 56
13, 201899, Note_on_c, 10, 81, 0
13, 201900, Note_on_c, 10, 80, 84
13, 201900, Control_c, 10, 11, 58
13, 201959, Note_on_c, 10, 80, 0
13, 201960, Note_on_c, 10, 78, 84
13, 201990, Control_c, 10, 11, 60
13, 202064, Note_on_c, 10, 78, 0
13, 202080, Note_on_c, 10, 83, 84
13, 202080, Control_c, 10, 11, 61
13, 202170, Control_c, 10, 11, 63
13, 202260, Control_c, 10, 11, 64
13, 202350, Control_c, 10, 11, 66
13, 202440, Control_c, 10, 11, 68
13, 202530, Control_c, 10, 11, 69
13, 202619, Note_on_c, 10, 83, 0
13, 202620, Control_c, 10, 11, 71
13, 202620, Note_on_c, 10, 81, 84
13, 202679, Note_on_c, 10, 81, 0
13, 202680, Note_on_c, 10, 80, 84
13, 202710, Control_c, 10, 11, 73
13, 202784, Note_on_c, 10, 80, 0
13, 202800, Note_on_c, 10, 85, 84
13, 202800, Control_c, 10, 11, 74
13, 202890, Control_c, 10, 11, 76
13, 202980, Control_c, 10, 11, 78
13, 203070, Control_c, 10, 11, 79
13, 203160, Control_c, 10, 11, 81
13, 203250, Control_c, 10, 11, 83
13, 203339, Note_on_c, 10, 85, 0
13, 203340, Control_c, 10, 11, 84
13, 203340, Note_on_c, 10, 83, 84
13, 203399, Note_on_c, 10, 83, 0
13, 203400, Note_on_c, 10, 81, 84
13, 203430, Control_c, 10, 11, 86
13, 203504, Note_on_c, 10, 81, 0
13, 203520, Note_on_c, 10, 87, 84
13, 203520, Control_c, 10, 11, 88
13, 203610, Control_c, 10, 11, 89
13, 203700, Control_c, 10, 11, 91
13, 203790, Control_c, 10, 11, 92
13, 203880, Control_c, 10, 11, 94
13, 203970, Control_c, 10, 11, 96
13, 204059, Note_on_c, 10, 87, 0
13, 204060, Control_c, 10, 11, 97
13, 204060, Note_on_c, 10, 85, 84
13, 204119, Note_on_c, 10, 85, 0
13, 204120, Note_on_c, 10, 83, 84
13, 204150, Control_c, 10, 11, 99
13, 204224, Note_on_c, 10, 83, 0
13, 204240, Note_on_c, 10, 88, 84
13, 204240, Control_c, 10, 11, 101
13, 204330, Control_c, 10, 11, 102
13, 204420, Control_c, 10, 11, 104
13, 204510, Control_c, 10, 11, 106
13, 204600, Control_c, 10, 11, 107
13, 204690, Control_c, 10, 11, 109
13, 204779, Note_on_c, 10, 88, 0
13, 204780, Control_c, 10, 11, 111
13, 204780, Note_on_c, 10, 87, 84
13, 204839, Note_on_c, 10, 87, 0
13, 204840, Note_on_c, 10, 85, 84
13, 204870, Control_c, 10, 11, 112
13, 204944, Note_on_c, 10, 85, 0
13, 204960, Control_c, 10, 11, 114
13, 204960, Note_on_c, 10, 90, 84
13, 205050, Control_c, 10, 11, 115
13, 205140, Control_c, 10, 11, 117
13, 205230, Control_c, 10, 11, 119
13, 205320, Control_c, 10, 11, 120
13, 205410, Control_c, 10, 11, 122
13, 205499, Note_on_c, 10, 90, 0
13, 205500, Control_c, 10, 11, 124
13, 205500, Note_on_c, 10, 88, 84
13, 205559, Note_on_c, 10, 88, 0
13, 205560, Note_on_c, 10, 87, 84
13, 205590, Control_c, 10, 11, 127
13, 205664, Note_on_c, 10, 87, 0
13, 205680, Note_on_c, 10, 92, 84
13, 205731, Note_on_c, 10, 92, 0
13, 205740, Note_on_c, 10, 92, 84
13, 205791, Note_on_c, 10, 92, 0
13, 205800, Note_on_c, 10, 92, 84
13, 205851, Note_on_c, 10, 92, 0
13, 205860, Note_on_c, 10, 92, 84
13, 205911, Note_on_c, 10, 92, 0
13, 205920, Note_on_c, 10, 92, 84
13, 205971, Note_on_c, 10, 92, 0
13, 205980, Note_on_c, 10, 92, 84
13, 206031, Note_on_c, 10, 92, 0
13, 206040, Note_on_c, 10, 92, 84
13, 206091, Note_on_c, 10, 92, 0
13, 206100, Note_on_c, 10, 92, 84
13, 206151, Note_on_c, 10, 92, 0
13, 206160, Note_on_c, 10, 92, 84
13, 206211, Note_on_c, 10, 92, 0
13, 206220, Note_on_c, 10, 92, 84
13, 206271, Note_on_c, 10, 92, 0
13, 206280, Note_on_c, 10, 92, 84
13, 206331, Note_on_c, 10, 92, 0
13, 206340, Note_on_c, 10, 92, 84
13, 206391, Note_on_c, 10, 92, 0
13, 206400, Note_on_c, 10, 92, 84
13, 206451, Note_on_c, 10, 92, 0
13, 206460, Note_on_c, 10, 92, 84
13, 206511, Note_on_c, 10, 92, 0
13, 206520, Note_on_c, 10, 92, 84
13, 206571, Note_on_c, 10, 92, 0
13, 206580, Note_on_c, 10, 92, 84
13, 206631, Note_on_c, 10, 92, 0
13, 206640, Note_on_c, 10, 92, 84
13, 206691, Note_on_c, 10, 92, 0
13, 206700, Note_on_c, 10, 92, 84
13, 206751, Note_on_c, 10, 92, 0
13, 206760, Note_on_c, 10, 92, 84
13, 206811, Note_on_c, 10, 92, 0
13, 206820, Note_on_c, 10, 92, 84
13, 206871, Note_on_c, 10, 92, 0
13, 206880, Note_on_c, 10, 92, 84
13, 206931, Note_on_c, 10, 92, 0
13, 206940, Note_on_c, 10, 92, 84
13, 206991, Note_on_c, 10, 92, 0
13, 207000, Note_on_c, 10, 92, 84
13, 207051, Note_on_c, 10, 92, 0
13, 207060, Note_on_c, 10, 92, 84
13, 207111, Note_on_c, 10, 92, 0
13, 207120, Note_on_c, 10, 90, 84
13, 207171, Note_on_c, 10, 90, 0
13, 207180, Note_on_c, 10, 90, 84
13, 207231, Note_on_c, 10, 90, 0
13, 207240, Note_on_c, 10, 90, 84
13, 207291, Note_on_c, 10, 90, 0
13, 207300, Note_on_c, 10, 90, 84
13, 207351, Note_on_c, 10, 90, 0
13, 207360, Note_on_c, 10, 90, 84
13, 207411, Note_on_c, 10, 90, 0
13, 207420, Note_on_c, 10, 90, 84
13, 207471, Note_on_c, 10, 90, 0
13, 207480, Note_on_c, 10, 90, 84
13, 207531, Note_on_c, 10, 90, 0
13, 207540, Note_on_c, 10, 90, 84
13, 207591, Note_on_c, 10, 90, 0
13, 207600, Note_on_c, 10, 90, 84
13, 207651, Note_on_c, 10, 90, 0
13, 207660, Note_on_c, 10, 90, 84
13, 207711, Note_on_c, 10, 90, 0
13, 207720, Note_on_c, 10, 90, 84
13, 207771, Note_on_c, 10, 90, 0
13, 207780, Note_on_c, 10, 90, 84
13, 207831, Note_on_c, 10, 90, 0
13, 207840, Note_on_c, 10, 90, 84
13, 207891, Note_on_c, 10, 90, 0
13, 207900, Note_on_c, 10, 90, 84
13, 207951, Note_on_c, 10, 90, 0
13, 207960, Note_on_c, 10, 90, 84
13, 208011, Note_on_c, 10, 90, 0
13, 208020, Note_on_c, 10, 90, 84
13, 208071, Note_on_c, 10, 90, 0
13, 208080, Note_on_c, 10, 90, 84
13, 208131, Note_on_c, 10, 90, 0
13, 208140, Note_on_c, 10, 90, 84
13, 208191, Note_on_c, 10, 90, 0
13, 208200, Note_on_c, 10, 90, 84
13, 208251, Note_on_c, 10, 90, 0
13, 208260, Note_on_c, 10, 90, 84
13, 208311, Note_on_c, 10, 90, 0
13, 208320, Note_on_c, 10, 90, 84
13, 208371, Note_on_c, 10, 90, 0
13, 208380, Note_on_c, 10, 90, 84
13, 208431, Note_on_c, 10, 90, 0
13, 208440, Note_on_c, 10, 90, 84
13, 208491, Note_on_c, 10, 90, 0
13, 208500, Note_on_c, 10, 90, 84
13, 208551, Note_on_c, 10, 90, 0
13, 208560, Note_on_c, 10, 65, 44
13, 208611, Note_on_c, 10, 65, 0
13, 208620, Note_on_c, 10, 65, 44
13, 208671, Note_on_c, 10, 65, 0
13, 208680, Note_on_c, 10, 65, 44
13, 208731, Note_on_c, 10, 65, 0
13, 208740, Note_on_c, 10, 65, 44
13, 208791, Note_on_c, 10, 65, 0
13, 208800, Note_on_c, 10, 65, 44
13, 208851, Note_on_c, 10, 65, 0
13, 208860, Note_on_c, 10, 65, 44
13, 208911, Note_on_c, 10, 65, 0
13, 208920, Note_on_c, 10, 65, 44
13, 208971, Note_on_c, 10, 65, 0
13, 208980, Note_on_c, 10, 65, 44
13, 209031, Note_on_c, 10, 65, 0
13, 209040, Note_on_c, 10, 65, 44
13, 209091, Note_on_c, 10, 65, 0
13, 209100, Note_on_c, 10, 65, 44
13, 209151, Note_on_c, 10, 65, 0
13, 209160, Note_on_c, 10, 65, 44
13, 209211, Note_on_c, 10, 65, 0
13, 209220, Note_on_c, 10, 65, 44
13, 209271, Note_on_c, 10, 65, 0
13, 209280, Note_on_c, 10, 63, 44
13, 209331, Note_on_c, 10, 63, 0
13, 209340, Note_on_c, 10, 83, 47
13, 209391, Note_on_c, 10, 83, 0
13, 209400, Note_on_c, 10, 83, 50
13, 209451, Note_on_c, 10, 83, 0
13, 209460, Note_on_c, 10, 83, 54
13, 209511, Note_on_c, 10, 83, 0
13, 209520, Note_on_c, 10, 83, 57
13, 209571, Note_on_c, 10, 83, 0
13, 209580, Note_on_c, 10, 83, 60
13, 209631, Note_on_c, 10, 83, 0
13, 209640, Note_on_c, 10, 83, 64
13, 209691, Note_on_c, 10, 83, 0
13, 209700, Note_on_c, 10, 83, 67
13, 209751, Note_on_c, 10, 83, 0
13, 209760, Note_on_c, 10, 85, 70
13, 209811, Note_on_c, 10, 85, 0
13, 209820, Note_on_c, 10, 87, 74
13, 209871, Note_on_c, 10, 87, 0
13, 209880, Note_on_c, 10, 88, 77
13, 209931, Note_on_c, 10, 88, 0
13, 209940, Note_on_c, 10, 90, 80
13, 209991, Note_on_c, 10, 90, 0
13, 210000, Note_on_c, 10, 92, 84
13, 210051, Note_on_c, 10, 92, 0
13, 210060, Note_on_c, 10, 92, 84
13, 210111, Note_on_c, 10, 92, 0
13, 210120, Note_on_c, 10, 92, 84
13, 210171, Note_on_c, 10, 92, 0
13, 210180, Note_on_c, 10, 92, 84
13, 210231, Note_on_c, 10, 92, 0
13, 210240, Note_on_c, 10, 92, 84
13, 210291, Note_on_c, 10, 92, 0
13, 210300, Note_on_c, 10, 92, 84
13, 210351, Note_on_c, 10, 92, 0
13, 210360, Note_on_c, 10, 92, 84
13, 210411, Note_on_c, 10, 92, 0
13, 210420, Note_on_c, 10, 92, 84
13, 210471, Note_on_c, 10, 92, 0
13, 210480, Note_on_c, 10, 92, 84
13, 210531, Note_on_c, 10, 92, 0
13, 210540, Note_on_c, 10, 92, 84
13, 210591, Note_on_c, 10, 92, 0
13, 210600, Note_on_c, 10, 92, 84
13, 210651, Note_on_c, 10, 92, 0
13, 210660, Note_on_c, 10, 92, 84
13, 210711, Note_on_c, 10, 92, 0
13, 210720, Note_on_c, 10, 92, 84
13, 210771, Note_on_c, 10, 92, 0
13, 210780, Note_on_c, 10, 92, 84
13, 210831, Note_on_c, 10, 92, 0
13, 210840, Note_on_c, 10, 92, 84
13, 210891, Note_on_c, 10, 92, 0
13, 210900, Note_on_c, 10, 92, 84
13, 210951, Note_on_c, 10, 92, 0
13, 210960, Note_on_c, 10, 92, 84
13, 211011, Note_on_c, 10, 92, 0
13, 211020, Note_on_c, 10, 92, 84
13, 211071, Note_on_c, 10, 92, 0
13, 211080, Note_on_c, 10, 92, 84
13, 211131, Note_on_c, 10, 92, 0
13, 211140, Note_on_c, 10, 92, 84
13, 211191, Note_on_c, 10, 92, 0
13, 211200, Note_on_c, 10, 92, 84
13, 211251, Note_on_c, 10, 92, 0
13, 211260, Note_on_c, 10, 92, 84
13, 211311, Note_on_c, 10, 92, 0
13, 211320, Note_on_c, 10, 92, 84
13, 211371, Note_on_c, 10, 92, 0
13, 211380, Note_on_c, 10, 92, 84
13, 211431, Note_on_c, 10, 92, 0
13, 211440, Note_on_c, 10, 90, 84
13, 211491, Note_on_c, 10, 90, 0
13, 211500, Note_on_c, 10, 90, 84
13, 211551, Note_on_c, 10, 90, 0
13, 211560, Note_on_c, 10, 90, 84
13, 211611, Note_on_c, 10, 90, 0
13, 211620, Note_on_c, 10, 90, 84
13, 211671, Note_on_c, 10, 90, 0
13, 211680, Note_on_c, 10, 90, 84
13, 211731, Note_on_c, 10, 90, 0
13, 211740, Note_on_c, 10, 90, 84
13, 211791, Note_on_c, 10, 90, 0
13, 211800, Note_on_c, 10, 90, 84
13, 211851, Note_on_c, 10, 90, 0
13, 211860, Note_on_c, 10, 90, 84
13, 211911, Note_on_c, 10, 90, 0
13, 211920, Note_on_c, 10, 90, 84
13, 211971, Note_on_c, 10, 90, 0
13, 211980, Note_on_c, 10, 90, 84
13, 212031, Note_on_c, 10, 90, 0
13, 212040, Note_on_c, 10, 90, 84
13, 212091, Note_on_c, 10, 90, 0
13, 212100, Note_on_c, 10, 90, 84
13, 212151, Note_on_c, 10, 90, 0
13, 212160, Note_on_c, 10, 90, 84
13, 212211, Note_on_c, 10, 90, 0
13, 212220, Note_on_c, 10, 90, 84
13, 212271, Note_on_c, 10, 90, 0
13, 212280, Note_on_c, 10, 90, 84
13, 212331, Note_on_c, 10, 90, 0
13, 212340, Note_on_c, 10, 90, 84
13, 212391, Note_on_c, 10, 90, 0
13, 212400, Note_on_c, 10, 90, 84
13, 212451, Note_on_c, 10, 90, 0
13, 212460, Note_on_c, 10, 90, 84
13, 212511, Note_on_c, 10, 90, 0
13, 212520, Note_on_c, 10, 90, 84
13, 212571, Note_on_c, 10, 90, 0
13, 212580, Note_on_c, 10, 90, 84
13, 212631, Note_on_c, 10, 90, 0
13, 212640, Note_on_c, 10, 90, 84
13, 212691, Note_on_c, 10, 90, 0
13, 212700, Note_on_c, 10, 90, 84
13, 212751, Note_on_c, 10, 90, 0
13, 212760, Note_on_c, 10, 90, 84
13, 212811, Note_on_c, 10, 90, 0
13, 212820, Note_on_c, 10, 90, 84
13, 212871, Note_on_c, 10, 90, 0
13, 212878, Control_c, 10, 11, 48
13, 212880, Note_on_c, 10, 89, 84
13, 213239, Note_on_c, 10, 89, 0
13, 213240, Note_on_c, 10, 84, 84
13, 213599, Note_on_c, 10, 84, 0
13, 213600, Note_on_c, 10, 75, 84
13, 213600, Control_c, 10, 11, 48
13, 213640, Control_c, 10, 11, 52
13, 213680, Control_c, 10, 11, 57
13, 213720, Control_c, 10, 11, 61
13, 213760, Control_c, 10, 11, 66
13, 213800, Control_c, 10, 11, 70
13, 213840, Control_c, 10, 11, 74
13, 213880, Control_c, 10, 11, 79
13, 213920, Control_c, 10, 11, 83
13, 213959, Note_on_c, 10, 75, 0
13, 213960, Control_c, 10, 11, 88
13, 213960, Note_on_c, 10, 83, 84
13, 214000, Control_c, 10, 11, 92
13, 214040, Control_c, 10, 11, 96
13, 214080, Control_c, 10, 11, 101
13, 214120, Control_c, 10, 11, 105
13, 214160, Control_c, 10, 11, 109
13, 214184, Note_on_c, 10, 83, 0
13, 214200, Control_c, 10, 11, 114
13, 214200, Note_on_c, 10, 83, 84
13, 214240, Control_c, 10, 11, 118
13, 214280, Control_c, 10, 11, 123
13, 214289, Note_on_c, 10, 83, 0
13, 214318, Control_c, 10, 11, 127
13, 214320, Note_on_c, 10, 83, 84
13, 214851, Note_on_c, 10, 83, 0
13, 214860, Note_on_c, 10, 81, 84
13, 214904, Note_on_c, 10, 81, 0
13, 214920, Note_on_c, 10, 80, 84
13, 215001, Note_on_c, 10, 80, 0
13, 215010, Note_on_c, 10, 80, 84
13, 215039, Note_on_c, 10, 80, 0
13, 215040, Note_on_c, 10, 81, 92
13, 215099, Note_on_c, 10, 81, 0
13, 215100, Note_on_c, 10, 81, 84
13, 215564, Note_on_c, 10, 81, 0
13, 215580, Note_on_c, 10, 73, 84
13, 215624, Note_on_c, 10, 73, 0
13, 215640, Note_on_c, 10, 75, 84
13, 215729, Note_on_c, 10, 75, 0
13, 215760, Note_on_c, 10, 76, 84
13, 215999, Note_on_c, 10, 76, 0
13, 216120, Note_on_c, 10, 80, 84
13, 216120, Note_on_c, 10, 71, 84
13, 216359, Note_on_c, 10, 80, 0
13, 216359, Note_on_c, 10, 71, 0
13, 216480, Note_on_c, 10, 83, 84
13, 216480, Note_on_c, 10, 71, 84
13, 216719, Note_on_c, 10, 83, 0
13, 216719, Note_on_c, 10, 71, 0
13, 217020, Note_on_c, 10, 83, 84
13, 217071, Note_on_c, 10, 83, 0
13, 217080, Note_on_c, 10, 83, 84
13, 217184, Note_on_c, 10, 83, 0
13, 217200, Note_on_c, 10, 83, 92
13, 217259, Note_on_c, 10, 83, 0
13, 217260, Note_on_c, 10, 83, 84
13, 217431, Note_on_c, 10, 83, 0
13, 217440, Note_on_c, 10, 80, 84
13, 217521, Note_on_c, 10, 80, 0
13, 217530, Note_on_c, 10, 80, 84
13, 217559, Note_on_c, 10, 80, 0
13, 217560, Note_on_c, 10, 81, 84
13, 217731, Note_on_c, 10, 81, 0
13, 217740, Note_on_c, 10, 73, 84
13, 217784, Note_on_c, 10, 73, 0
13, 217800, Note_on_c, 10, 75, 84
13, 217889, Note_on_c, 10, 75, 0
13, 217920, Note_on_c, 10, 76, 84
13, 218159, Note_on_c, 10, 76, 0
13, 218460, Note_on_c, 10, 83, 84
13, 218504, Note_on_c, 10, 83, 0
13, 218520, Note_on_c, 10, 83, 84
13, 218609, Note_on_c, 10, 83, 0
13, 218640, Note_on_c, 10, 83, 92
13, 218699, Note_on_c, 10, 83, 0
13, 218700, Note_on_c, 10, 83, 84
13, 218864, Note_on_c, 10, 83, 0
13, 218880, Note_on_c, 10, 80, 84
13, 218961, Note_on_c, 10, 80, 0
13, 218970, Note_on_c, 10, 80, 84
13, 218999, Note_on_c, 10, 80, 0
13, 219000, Note_on_c, 10, 81, 84
13, 219171, Note_on_c, 10, 81, 0
13, 219180, Note_on_c, 10, 73, 84
13, 219224, Note_on_c, 10, 73, 0
13, 219240, Note_on_c, 10, 75, 84
13, 219321, Note_on_c, 10, 75, 0
13, 219330, Note_on_c, 10, 75, 84
13, 219359, Note_on_c, 10, 75, 0
13, 219360, Note_on_c, 10, 76, 84
13, 219539, Note_on_c, 10, 76, 0
13, 219690, Note_on_c, 10, 76, 84
13, 219719, Note_on_c, 10, 76, 0
13, 219720, Note_on_c, 10, 78, 84
13, 219899, Note_on_c, 10, 78, 0
13, 220050, Note_on_c, 10, 78, 84
13, 220079, Note_on_c, 10, 78, 0
13, 220080, Note_on_c, 10, 80, 84
13, 220259, Note_on_c, 10, 80, 0
13, 220410, Note_on_c, 10, 80, 84
13, 220439, Note_on_c, 10, 80, 0
13, 220440, Note_on_c, 10, 81, 84
13, 220619, Note_on_c, 10, 81, 0
13, 220770, Note_on_c, 10, 81, 84
13, 220799, Note_on_c, 10, 81, 0
13, 220800, Note_on_c, 10, 83, 84
13, 220979, Note_on_c, 10, 83, 0
13, 221130, Note_on_c, 10, 83, 84
13, 221159, Note_on_c, 10, 83, 0
13, 221160, Note_on_c, 10, 85, 84
13, 221339, Note_on_c, 10, 85, 0
13, 221490, Note_on_c, 10, 85, 84
13, 221519, Note_on_c, 10, 85, 0
13, 221520, Note_on_c, 10, 86, 84
13, 221699, Note_on_c, 10, 86, 0
13, 221880, Note_on_c, 10, 87, 84
13, 222059, Note_on_c, 10, 87, 0
13, 223650, Note_on_c, 10, 75, 84
13, 223679, Note_on_c, 10, 75, 0
13, 223680, Note_on_c, 10, 76, 84
13, 223859, Note_on_c, 10, 76, 0
13, 224010, Note_on_c, 10, 76, 84
13, 224039, Note_on_c, 10, 76, 0
13, 224040, Note_on_c, 10, 77, 84
13, 224219, Note_on_c, 10, 77, 0
13, 224370, Note_on_c, 10, 77, 84
13, 224399, Note_on_c, 10, 77, 0
13, 224400, Note_on_c, 10, 78, 84
13, 224579, Note_on_c, 10, 78, 0
13, 224730, Note_on_c, 10, 78, 84
13, 224759, Note_on_c, 10, 78, 0
13, 224760, Note_on_c, 10, 79, 84
13, 224939, Note_on_c, 10, 79, 0
13, 226560, Note_on_c, 10, 67, 44
13, 226731, Note_on_c, 10, 67, 0
13, 226740, Note_on_c, 10, 67, 44
13, 226791, Note_on_c, 10, 67, 0
13, 226800, Note_on_c, 10, 67, 44
13, 226904, Note_on_c, 10, 67, 0
13, 226920, Note_on_c, 10, 67, 44
13, 227091, Note_on_c, 10, 67, 0
13, 227100, Note_on_c, 10, 67, 44
13, 227151, Note_on_c, 10, 67, 0
13, 227160, Note_on_c, 10, 67, 44
13, 227264, Note_on_c, 10, 67, 0
13, 227280, Note_on_c, 10, 67, 44
13, 227451, Note_on_c, 10, 67, 0
13, 227460, Note_on_c, 10, 67, 44
13, 227511, Note_on_c, 10, 67, 0
13, 227520, Note_on_c, 10, 67, 44
13, 227624, Note_on_c, 10, 67, 0
13, 227640, Note_on_c, 10, 67, 44
13, 227811, Note_on_c, 10, 67, 0
13, 227820, Note_on_c, 10, 67, 44
13, 227871, Note_on_c, 10, 67, 0
13, 227880, Note_on_c, 10, 67, 44
13, 227984, Note_on_c, 10, 67, 0
13, 228000, Note_on_c, 10, 67, 44
13, 228171, Note_on_c, 10, 67, 0
13, 228180, Note_on_c, 10, 67, 44
13, 228231, Note_on_c, 10, 67, 0
13, 228240, Note_on_c, 10, 67, 44
13, 228344, Note_on_c, 10, 67, 0
13, 228360, Note_on_c, 10, 67, 44
13, 228531, Note_on_c, 10, 67, 0
13, 228540, Note_on_c, 10, 67, 44
13, 228591, Note_on_c, 10, 67, 0
13, 228600, Note_on_c, 10, 67, 44
13, 228704, Note_on_c, 10, 67, 0
13, 228720, Note_on_c, 10, 67, 44
13, 228891, Note_on_c, 10, 67, 0
13, 228900, Note_on_c, 10, 67, 44
13, 228951, Note_on_c, 10, 67, 0
13, 228960, Note_on_c, 10, 67, 44
13, 229064, Note_on_c, 10, 67, 0
13, 229080, Note_on_c, 10, 67, 44
13, 229251, Note_on_c, 10, 67, 0
13, 229260, Note_on_c, 10, 67, 44
13, 229311, Note_on_c, 10, 67, 0
13, 229320, Note_on_c, 10, 67, 44
13, 229424, Note_on_c, 10, 67, 0
13, 229440, Note_on_c, 10, 67, 44
13, 230159, Note_on_c, 10, 67, 0
13, 230160, Note_on_c, 10, 67, 44
13, 230864, Note_on_c, 10, 67, 0
13, 230880, Note_on_c, 10, 67, 44
13, 231411, Note_on_c, 10, 67, 0
13, 231420, Note_on_c, 10, 65, 44
13, 231464, Note_on_c, 10, 65, 0
13, 231480, Note_on_c, 10, 64, 44
13, 231569, Note_on_c, 10, 64, 0
13, 231600, Note_on_c, 10, 65, 44
13, 231771, Note_on_c, 10, 65, 0
13, 231780, Note_on_c, 10, 67, 44
13, 231824, Note_on_c, 10, 67, 0
13, 231840, Note_on_c, 10, 69, 44
13, 231929, Note_on_c, 10, 69, 0
13, 231960, Note_on_c, 10, 71, 44
13, 232131, Note_on_c, 10, 71, 0
13, 232140, Note_on_c, 10, 72, 44
13, 232184, Note_on_c, 10, 72, 0
13, 232200, Note_on_c, 10, 74, 44
13, 232289, Note_on_c, 10, 74, 0
13, 232320, Note_on_c, 10, 76, 44
13, 232491, Note_on_c, 10, 76, 0
13, 232500, Note_on_c, 10, 77, 44
13, 232544, Note_on_c, 10, 77, 0
13, 232560, Note_on_c, 10, 79, 44
13, 232649, Note_on_c, 10, 79, 0
13, 232680, Note_on_c, 10, 81, 44
13, 232851, Note_on_c, 10, 81, 0
13, 232860, Note_on_c, 10, 83, 44
13, 232904, Note_on_c, 10, 83, 0
13, 232920, Note_on_c, 10, 84, 44
13, 233009, Note_on_c, 10, 84, 0
13, 233040, Note_on_c, 10, 86, 44
13, 233211, Note_on_c, 10, 86, 0
13, 233220, Note_on_c, 10, 84, 44
13, 233264, Note_on_c, 10, 84, 0
13, 233280, Note_on_c, 10, 83, 44
13, 233369, Note_on_c, 10, 83, 0
13, 233400, Note_on_c, 10, 81, 44
13, 233571, Note_on_c, 10, 81, 0
13, 233580, Note_on_c, 10, 79, 44
13, 233624, Note_on_c, 10, 79, 0
13, 233640, Note_on_c, 10, 77, 44
13, 233729, Note_on_c, 10, 77, 0
13, 233760, Note_on_c, 10, 76, 44
13, 233931, Note_on_c, 10, 76, 0
13, 233940, Note_on_c, 10, 74, 44
13, 233984, Note_on_c, 10, 74, 0
13, 234000, Note_on_c, 10, 72, 44
13, 234089, Note_on_c, 10, 72, 0
13, 234120, Note_on_c, 10, 72, 44
13, 234359, Note_on_c, 10, 72, 0
13, 234480, Note_on_c, 10, 71, 44
13, 234651, Note_on_c, 10, 71, 0
13, 234660, Note_on_c, 10, 69, 44
13, 234704, Note_on_c, 10, 69, 0
13, 234720, Note_on_c, 10, 67, 44
13, 234809, Note_on_c, 10, 67, 0
13, 234840, Note_on_c, 10, 67, 44
13, 235079, Note_on_c, 10, 67, 0
13, 235200, Note_on_c, 10, 67, 44
13, 235371, Note_on_c, 10, 67, 0
13, 235380, Note_on_c, 10, 79, 44
13, 235424, Note_on_c, 10, 79, 0
13, 235440, Note_on_c, 10, 79, 44
13, 235529, Note_on_c, 10, 79, 0
13, 235560, Note_on_c, 10, 79, 44
13, 235799, Note_on_c, 10, 79, 0
13, 236100, Note_on_c, 10, 79, 44
13, 236144, Note_on_c, 10, 79, 0
13, 236160, Note_on_c, 10, 79, 44
13, 236249, Note_on_c, 10, 79, 0
13, 236280, Note_on_c, 10, 79, 44
13, 236519, Note_on_c, 10, 79, 0
13, 236640, Note_on_c, 10, 79, 44
13, 236811, Note_on_c, 10, 79, 0
13, 236820, Note_on_c, 10, 79, 45
13, 236864, Note_on_c, 10, 79, 0
13, 236880, Note_on_c, 10, 79, 45
13, 236969, Note_on_c, 10, 79, 0
13, 237000, Note_on_c, 10, 79, 46
13, 237171, Note_on_c, 10, 79, 0
13, 237180, Note_on_c, 10, 79, 48
13, 237224, Note_on_c, 10, 79, 0
13, 237240, Note_on_c, 10, 79, 48
13, 237329, Note_on_c, 10, 79, 0
13, 237360, Note_on_c, 10, 79, 49
13, 237531, Note_on_c, 10, 79, 0
13, 237540, Note_on_c, 10, 79, 50
13, 237584, Note_on_c, 10, 79, 0
13, 237600, Note_on_c, 10, 79, 51
13, 237689, Note_on_c, 10, 79, 0
13, 237720, Note_on_c, 10, 79, 52
13, 237891, Note_on_c, 10, 79, 0
13, 237900, Note_on_c, 10, 79, 53
13, 237944, Note_on_c, 10, 79, 0
13, 237960, Note_on_c, 10, 79, 53
13, 238049, Note_on_c, 10, 79, 0
13, 238080, Note_on_c, 10, 81, 54
13, 238251, Note_on_c, 10, 81, 0
13, 238260, Note_on_c, 10, 81, 56
13, 238304, Note_on_c, 10, 81, 0
13, 238320, Note_on_c, 10, 81, 56
13, 238409, Note_on_c, 10, 81, 0
13, 238440, Note_on_c, 10, 81, 57
13, 238611, Note_on_c, 10, 81, 0
13, 238620, Note_on_c, 10, 81, 58
13, 238664, Note_on_c, 10, 81, 0
13, 238680, Note_on_c, 10, 81, 59
13, 238769, Note_on_c, 10, 81, 0
13, 238800, Note_on_c, 10, 81, 60
13, 238971, Note_on_c, 10, 81, 0
13, 238980, Note_on_c, 10, 81, 61
13, 239024, Note_on_c, 10, 81, 0
13, 239040, Note_on_c, 10, 81, 61
13, 239129, Note_on_c, 10, 81, 0
13, 239160, Note_on_c, 10, 81, 62
13, 239331, Note_on_c, 10, 81, 0
13, 239340, Note_on_c, 10, 81, 64
13, 239384, Note_on_c, 10, 81, 0
13, 239400, Note_on_c, 10, 81, 64
13, 239489, Note_on_c, 10, 81, 0
13, 239520, Note_on_c, 10, 83, 65
13, 239691, Note_on_c, 10, 83, 0
13, 239700, Note_on_c, 10, 83, 66
13, 239744, Note_on_c, 10, 83, 0
13, 239760, Note_on_c, 10, 83, 67
13, 239849, Note_on_c, 10, 83, 0
13, 239880, Note_on_c, 10, 83, 68
13, 240051, Note_on_c, 10, 83, 0
13, 240060, Note_on_c, 10, 83, 69
13, 240104, Note_on_c, 10, 83, 0
13, 240120, Note_on_c, 10, 83, 69
13, 240209, Note_on_c, 10, 83, 0
13, 240240, Note_on_c, 10, 83, 70
13, 240411, Note_on_c, 10, 83, 0
13, 240420, Note_on_c, 10, 83, 72
13, 240464, Note_on_c, 10, 83, 0
13, 240480, Note_on_c, 10, 83, 72
13, 240569, Note_on_c, 10, 83, 0
13, 240600, Note_on_c, 10, 83, 73
13, 240771, Note_on_c, 10, 83, 0
13, 240780, Note_on_c, 10, 83, 74
13, 240824, Note_on_c, 10, 83, 0
13, 240840, Note_on_c, 10, 83, 75
13, 240929, Note_on_c, 10, 83, 0
13, 240960, Note_on_c, 10, 84, 76
13, 241131, Note_on_c, 10, 84, 0
13, 241140, Note_on_c, 10, 84, 76
13, 241184, Note_on_c, 10, 84, 0
13, 241200, Note_on_c, 10, 79, 76
13, 241289, Note_on_c, 10, 79, 0
13, 241320, Note_on_c, 10, 79, 76
13, 241851, Note_on_c, 10, 79, 0
13, 241860, Note_on_c, 10, 79, 76
13, 241904, Note_on_c, 10, 79, 0
13, 241920, Note_on_c, 10, 76, 76
13, 242009, Note_on_c, 10, 76, 0
13, 242040, Note_on_c, 10, 76, 76
13, 242571, Note_on_c, 10, 76, 0
13, 242580, Note_on_c, 10, 76, 76
13, 242624, Note_on_c, 10, 76, 0
13, 242640, Note_on_c, 10, 72, 76
13, 242931, Note_on_c, 10, 72, 0
13, 242940, Note_on_c, 10, 72, 76
13, 242984, Note_on_c, 10, 72, 0
13, 243000, Note_on_c, 10, 67, 76
13, 243291, Note_on_c, 10, 67, 0
13, 243300, Note_on_c, 10, 67, 76
13, 243344, Note_on_c, 10, 67, 0
13, 243360, Note_on_c, 10, 64, 76
13, 243651, Note_on_c, 10, 64, 0
13, 243660, Note_on_c, 10, 64, 76
13, 243704, Note_on_c, 10, 64, 0
13, 243720, Note_on_c, 10, 60, 76
13, 243809, Note_on_c, 10, 60, 0
13, 243840, Note_on_c, 10, 59, 84
13, 244079, Note_on_c, 10, 59, 0
13, 245280, Note_on_c, 10, 59, 84
13, 245451, Note_on_c, 10, 59, 0
13, 245460, Note_on_c, 10, 77, 84
13, 245511, Note_on_c, 10, 77, 0
13, 245520, Note_on_c, 10, 74, 84
13, 245624, Note_on_c, 10, 74, 0
13, 245640, Note_on_c, 10, 74, 84
13, 246171, Note_on_c, 10, 74, 0
13, 246180, Note_on_c, 10, 86, 84
13, 246231, Note_on_c, 10, 86, 0
13, 246240, Note_on_c, 10, 83, 84
13, 246344, Note_on_c, 10, 83, 0
13, 246360, Note_on_c, 10, 83, 84
13, 246891, Note_on_c, 10, 83, 0
13, 246900, Note_on_c, 10, 79, 84
13, 246951, Note_on_c, 10, 79, 0
13, 246960, Note_on_c, 10, 77, 84
13, 247251, Note_on_c, 10, 77, 0
13, 247260, Note_on_c, 10, 77, 84
13, 247311, Note_on_c, 10, 77, 0
13, 247320, Note_on_c, 10, 74, 84
13, 247611, Note_on_c, 10, 74, 0
13, 247620, Note_on_c, 10, 74, 84
13, 247671, Note_on_c, 10, 74, 0
13, 247680, Note_on_c, 10, 71, 84
13, 247971, Note_on_c, 10, 71, 0
13, 247980, Note_on_c, 10, 67, 84
13, 248031, Note_on_c, 10, 67, 0
13, 248040, Note_on_c, 10, 65, 84
13, 248144, Note_on_c, 10, 65, 0
13, 248160, Note_on_c, 10, 71, 84
13, 248160, Note_on_c, 10, 64, 84
13, 248160, Note_on_c, 10, 76, 84
13, 248399, Note_on_c, 10, 71, 0
13, 248399, Note_on_c, 10, 64, 0
13, 248399, Note_on_c, 10, 76, 0
13, 249600, Note_on_c, 10, 76, 84
13, 249600, Note_on_c, 10, 71, 84
13, 249600, Note_on_c, 10, 64, 84
13, 249719, Note_on_c, 10, 71, 0
13, 249719, Note_on_c, 10, 64, 0
13, 249771, Note_on_c, 10, 76, 0
13, 249780, Note_on_c, 10, 88, 84
13, 249831, Note_on_c, 10, 88, 0
13, 249840, Note_on_c, 10, 83, 84
13, 249944, Note_on_c, 10, 83, 0
13, 249960, Note_on_c, 10, 83, 84
13, 250491, Note_on_c, 10, 83, 0
13, 250500, Note_on_c, 10, 83, 84
13, 250551, Note_on_c, 10, 83, 0
13, 250560, Note_on_c, 10, 80, 84
13, 250664, Note_on_c, 10, 80, 0
13, 250680, Note_on_c, 10, 80, 84
13, 251211, Note_on_c, 10, 80, 0
13, 251220, Note_on_c, 10, 80, 84
13, 251271, Note_on_c, 10, 80, 0
13, 251280, Note_on_c, 10, 76, 84
13, 251571, Note_on_c, 10, 76, 0
13, 251580, Note_on_c, 10, 76, 84
13, 251631, Note_on_c, 10, 76, 0
13, 251640, Note_on_c, 10, 71, 84
13, 251931, Note_on_c, 10, 71, 0
13, 251940, Note_on_c, 10, 71, 84
13, 251991, Note_on_c, 10, 71, 0
13, 252000, Note_on_c, 10, 68, 84
13, 252291, Note_on_c, 10, 68, 0
13, 252300, Note_on_c, 10, 68, 84
13, 252351, Note_on_c, 10, 68, 0
13, 252360, Note_on_c, 10, 64, 84
13, 252464, Note_on_c, 10, 64, 0
13, 252480, Note_on_c, 10, 64, 84
13, 252651, Note_on_c, 10, 64, 0
13, 252660, Note_on_c, 10, 64, 84
13, 252711, Note_on_c, 10, 64, 0
13, 252720, Note_on_c, 10, 64, 84
13, 252839, Note_on_c, 10, 64, 0
13, 253200, Note_on_c, 10, 61, 92
13, 253259, Note_on_c, 10, 61, 0
13, 253260, Note_on_c, 10, 61, 84
13, 253371, Note_on_c, 10, 61, 0
13, 253380, Note_on_c, 10, 61, 84
13, 253431, Note_on_c, 10, 61, 0
13, 253440, Note_on_c, 10, 61, 84
13, 253559, Note_on_c, 10, 61, 0
13, 253920, Note_on_c, 10, 61, 92
13, 253979, Note_on_c, 10, 61, 0
13, 253980, Note_on_c, 10, 61, 84
13, 254091, Note_on_c, 10, 61, 0
13, 254100, Note_on_c, 10, 61, 84
13, 254151, Note_on_c, 10, 61, 0
13, 254160, Note_on_c, 10, 61, 84
13, 254279, Note_on_c, 10, 61, 0
13, 256980, Note_on_c, 10, 74, 44
13, 257031, Note_on_c, 10, 74, 0
13, 257040, Note_on_c, 10, 76, 44
13, 257144, Note_on_c, 10, 76, 0
13, 257160, Note_on_c, 10, 77, 44
13, 257279, Note_on_c, 10, 77, 0
13, 257340, Note_on_c, 10, 69, 44
13, 257391, Note_on_c, 10, 69, 0
13, 257400, Note_on_c, 10, 71, 44
13, 257504, Note_on_c, 10, 71, 0
13, 257520, Note_on_c, 10, 72, 44
13, 257759, Note_on_c, 10, 72, 0
13, 259140, Note_on_c, 10, 69, 44
13, 259191, Note_on_c, 10, 69, 0
13, 259200, Note_on_c, 10, 71, 44
13, 259304, Note_on_c, 10, 71, 0
13, 259320, Note_on_c, 10, 72, 44
13, 259439, Note_on_c, 10, 72, 0
13, 259500, Note_on_c, 10, 64, 44
13, 259551, Note_on_c, 10, 64, 0
13, 259560, Note_on_c, 10, 66, 44
13, 259664, Note_on_c, 10, 66, 0
13, 259680, Note_on_c, 10, 67, 44
13, 259919, Note_on_c, 10, 67, 0
13, 261300, Note_on_c, 10, 76, 44
13, 261351, Note_on_c, 10, 76, 0
13, 261360, Note_on_c, 10, 78, 44
13, 261464, Note_on_c, 10, 78, 0
13, 261480, Note_on_c, 10, 79, 44
13, 261599, Note_on_c, 10, 79, 0
13, 261660, Note_on_c, 10, 70, 44
13, 261711, Note_on_c, 10, 70, 0
13, 261720, Note_on_c, 10, 72, 44
13, 261824, Note_on_c, 10, 72, 0
13, 261840, Note_on_c, 10, 74, 44
13, 262079, Note_on_c, 10, 74, 0
13, 263460, Note_on_c, 10, 71, 44
13, 263511, Note_on_c, 10, 71, 0
13, 263520, Note_on_c, 10, 73, 44
13, 263624, Note_on_c, 10, 73, 0
13, 263640, Note_on_c, 10, 74, 44
13, 263759, Note_on_c, 10, 74, 0
13, 263820, Note_on_c, 10, 65, 44
13, 263871, Note_on_c, 10, 65, 0
13, 263880, Note_on_c, 10, 67, 44
13, 263984, Note_on_c, 10, 67, 0
13, 264000, Note_on_c, 10, 69, 44
13, 264239, Note_on_c, 10, 69, 0
13, 264900, Note_on_c, 10, 71, 44
13, 264951, Note_on_c, 10, 71, 0
13, 264960, Note_on_c, 10, 73, 44
13, 265064, Note_on_c, 10, 73, 0
13, 265080, Note_on_c, 10, 74, 44
13, 265199, Note_on_c, 10, 74, 0
13, 265260, Note_on_c, 10, 65, 44
13, 265311, Note_on_c, 10, 65, 0
13, 265320, Note_on_c, 10, 67, 44
13, 265424, Note_on_c, 10, 67, 0
13, 265440, Note_on_c, 10, 69, 44
13, 265679, Note_on_c, 10, 69, 0
13, 266880, Control_c, 10, 11, 72
13, 267600, Control_c, 10, 11, 73
13, 267600, Note_on_c, 10, 74, 76
13, 267719, Note_on_c, 10, 74, 0
13, 267760, Control_c, 10, 11, 74
13, 267780, Note_on_c, 10, 74, 76
13, 267831, Note_on_c, 10, 74, 0
13, 267840, Note_on_c, 10, 76, 76
13, 267920, Control_c, 10, 11, 75
13, 267944, Note_on_c, 10, 76, 0
13, 267960, Note_on_c, 10, 77, 76
13, 268079, Note_on_c, 10, 77, 0
13, 268080, Control_c, 10, 11, 76
13, 268140, Note_on_c, 10, 76, 76
13, 268191, Note_on_c, 10, 76, 0
13, 268200, Note_on_c, 10, 77, 76
13, 268240, Control_c, 10, 11, 77
13, 268304, Note_on_c, 10, 77, 0
13, 268320, Note_on_c, 10, 79, 76
13, 268400, Control_c, 10, 11, 78
13, 268439, Note_on_c, 10, 79, 0
13, 268500, Note_on_c, 10, 77, 76
13, 268551, Note_on_c, 10, 77, 0
13, 268560, Control_c, 10, 11, 79
13, 268560, Note_on_c, 10, 79, 76
13, 268664, Note_on_c, 10, 79, 0
13, 268680, Note_on_c, 10, 81, 76
13, 268720, Control_c, 10, 11, 80
13, 268799, Note_on_c, 10, 81, 0
13, 268860, Note_on_c, 10, 79, 76
13, 268880, Control_c, 10, 11, 81
13, 268911, Note_on_c, 10, 79, 0
13, 268920, Note_on_c, 10, 81, 76
13, 269024, Note_on_c, 10, 81, 0
13, 269040, Control_c, 10, 11, 82
13, 269040, Note_on_c, 10, 82, 76
13, 269200, Control_c, 10, 11, 83
13, 269360, Control_c, 10, 11, 84
13, 269520, Control_c, 10, 11, 85
13, 269680, Control_c, 10, 11, 86
13, 269759, Note_on_c, 10, 82, 0
13, 269760, Note_on_c, 10, 82, 76
13, 269840, Control_c, 10, 11, 87
13, 270000, Control_c, 10, 11, 88
13, 270160, Control_c, 10, 11, 89
13, 270320, Control_c, 10, 11, 90
13, 270480, Control_c, 10, 11, 91
13, 270584, Note_on_c, 10, 82, 0
13, 270640, Control_c, 10, 11, 92
13, 270660, Note_on_c, 10, 76, 76
13, 270711, Note_on_c, 10, 76, 0
13, 270720, Note_on_c, 10, 77, 76
13, 270800, Control_c, 10, 11, 93
13, 270824, Note_on_c, 10, 77, 0
13, 270840, Note_on_c, 10, 79, 76
13, 270959, Note_on_c, 10, 79, 0
13, 270960, Control_c, 10, 11, 94
13, 271020, Note_on_c, 10, 77, 76
13, 271071, Note_on_c, 10, 77, 0
13, 271080, Note_on_c, 10, 79, 76
13, 271120, Control_c, 10, 11, 95
13, 271184, Note_on_c, 10, 79, 0
13, 271200, Note_on_c, 10, 81, 76
13, 271280, Control_c, 10, 11, 96
13, 271319, Note_on_c, 10, 81, 0
13, 271380, Note_on_c, 10, 79, 76
13, 271431, Note_on_c, 10, 79, 0
13, 271440, Note_on_c, 10, 81, 76
13, 271440, Control_c, 10, 11, 97
13, 271544, Note_on_c, 10, 81, 0
13, 271560, Note_on_c, 10, 82, 76
13, 271600, Control_c, 10, 11, 98
13, 271679, Note_on_c, 10, 82, 0
13, 271740, Note_on_c, 10, 81, 76
13, 271760, Control_c, 10, 11, 99
13, 271791, Note_on_c, 10, 81, 0
13, 271800, Note_on_c, 10, 82, 76
13, 271904, Note_on_c, 10, 82, 0
13, 271920, Note_on_c, 10, 84, 76
13, 271920, Control_c, 10, 11, 100
13, 272080, Control_c, 10, 11, 101
13, 272240, Control_c, 10, 11, 102
13, 272400, Control_c, 10, 11, 103
13, 272560, Control_c, 10, 11, 104
13, 272639, Note_on_c, 10, 84, 0
13, 272640, Note_on_c, 10, 84, 76
13, 272720, Control_c, 10, 11, 105
13, 272880, Control_c, 10, 11, 106
13, 273040, Control_c, 10, 11, 107
13, 273200, Control_c, 10, 11, 108
13, 273360, Control_c, 10, 11, 109
13, 273464, Note_on_c, 10, 84, 0
13, 273520, Control_c, 10, 11, 110
13, 273540, Note_on_c, 10, 78, 76
13, 273591, Note_on_c, 10, 78, 0
13, 273600, Note_on_c, 10, 79, 76
13, 273680, Control_c, 10, 11, 111
13, 273704, Note_on_c, 10, 79, 0
13, 273720, Note_on_c, 10, 81, 76
13, 273839, Note_on_c, 10, 81, 0
13, 273840, Control_c, 10, 11, 112
13, 273900, Note_on_c, 10, 79, 76
13, 273951, Note_on_c, 10, 79, 0
13, 273960, Note_on_c, 10, 81, 76
13, 274000, Control_c, 10, 11, 113
13, 274064, Note_on_c, 10, 81, 0
13, 274080, Note_on_c, 10, 82, 76
13, 274160, Control_c, 10, 11, 114
13, 274199, Note_on_c, 10, 82, 0
13, 274260, Note_on_c, 10, 81, 76
13, 274311, Note_on_c, 10, 81, 0
13, 274320, Note_on_c, 10, 82, 76
13, 274320, Control_c, 10, 11, 115
13, 274424, Note_on_c, 10, 82, 0
13, 274440, Note_on_c, 10, 84, 76
13, 274480, Control_c, 10, 11, 116
13, 274559, Note_on_c, 10, 84, 0
13, 274620, Note_on_c, 10, 82, 76
13, 274640, Control_c, 10, 11, 117
13, 274671, Note_on_c, 10, 82, 0
13, 274680, Note_on_c, 10, 84, 76
13, 274784, Note_on_c, 10, 84, 0
13, 274800, Control_c, 10, 11, 118
13, 274800, Note_on_c, 10, 86, 76
13, 274960, Control_c, 10, 11, 119
13, 275120, Control_c, 10, 11, 120
13, 275280, Control_c, 10, 11, 121
13, 275440, Control_c, 10, 11, 122
13, 275519, Note_on_c, 10, 86, 0
13, 275520, Note_on_c, 10, 86, 76
13, 275600, Control_c, 10, 11, 123
13, 275760, Control_c, 10, 11, 124
13, 275920, Control_c, 10, 11, 125
13, 276080, Control_c, 10, 11, 127
13, 276404, Note_on_c, 10, 86, 0
13, 276420, Note_on_c, 10, 74, 76
13, 276471, Note_on_c, 10, 74, 0
13, 276480, Note_on_c, 10, 73, 76
13, 276584, Note_on_c, 10, 73, 0
13, 276600, Note_on_c, 10, 74, 76
13, 276839, Note_on_c, 10, 74, 0
13, 276960, Note_on_c, 10, 74, 76
13, 277079, Note_on_c, 10, 74, 0
13, 277140, Note_on_c, 10, 74, 76
13, 277191, Note_on_c, 10, 74, 0
13, 277200, Note_on_c, 10, 73, 76
13, 277304, Note_on_c, 10, 73, 0
13, 277320, Note_on_c, 10, 74, 76
13, 277559, Note_on_c, 10, 74, 0
13, 277680, Note_on_c, 10, 76, 76
13, 277799, Note_on_c, 10, 76, 0
13, 277860, Note_on_c, 10, 76, 76
13, 277911, Note_on_c, 10, 76, 0
13, 277920, Note_on_c, 10, 75, 76
13, 278024, Note_on_c, 10, 75, 0
13, 278040, Note_on_c, 10, 76, 76
13, 278279, Note_on_c, 10, 76, 0
13, 278400, Note_on_c, 10, 76, 76
13, 278519, Note_on_c, 10, 76, 0
13, 278580, Note_on_c, 10, 76, 76
13, 278631, Note_on_c, 10, 76, 0
13, 278640, Note_on_c, 10, 75, 76
13, 278744, Note_on_c, 10, 75, 0
13, 278760, Note_on_c, 10, 76, 76
13, 278999, Note_on_c, 10, 76, 0
13, 279120, Note_on_c, 10, 77, 84
13, 279239, Note_on_c, 10, 77, 0
13, 279300, Note_on_c, 10, 77, 84
13, 279351, Note_on_c, 10, 77, 0
13, 279360, Note_on_c, 10, 76, 84
13, 279464, Note_on_c, 10, 76, 0
13, 279480, Note_on_c, 10, 77, 84
13, 279599, Note_on_c, 10, 77, 0
13, 279660, Note_on_c, 10, 77, 84
13, 279711, Note_on_c, 10, 77, 0
13, 279720, Note_on_c, 10, 76, 84
13, 279824, Note_on_c, 10, 76, 0
13, 279840, Note_on_c, 10, 77, 84
13, 279959, Note_on_c, 10, 77, 0
13, 280020, Note_on_c, 10, 77, 84
13, 280071, Note_on_c, 10, 77, 0
13, 280080, Note_on_c, 10, 76, 84
13, 280184, Note_on_c, 10, 76, 0
13, 280200, Note_on_c, 10, 77, 84
13, 280319, Note_on_c, 10, 77, 0
13, 280380, Note_on_c, 10, 77, 84
13, 280431, Note_on_c, 10, 77, 0
13, 280440, Note_on_c, 10, 76, 84
13, 280544, Note_on_c, 10, 76, 0
13, 280560, Note_on_c, 10, 77, 84
13, 280679, Note_on_c, 10, 77, 0
13, 280740, Note_on_c, 10, 76, 84
13, 280791, Note_on_c, 10, 76, 0
13, 280800, Note_on_c, 10, 74, 84
13, 280904, Note_on_c, 10, 74, 0
13, 280920, Note_on_c, 10, 74, 84
13, 281519, Note_on_c, 10, 74, 0
13, 282000, Note_on_c, 10, 76, 84
13, 282119, Note_on_c, 10, 76, 0
13, 282180, Note_on_c, 10, 76, 84
13, 282231, Note_on_c, 10, 76, 0
13, 282240, Note_on_c, 10, 75, 84
13, 282344, Note_on_c, 10, 75, 0
13, 282360, Note_on_c, 10, 76, 84
13, 282479, Note_on_c, 10, 76, 0
13, 282540, Note_on_c, 10, 76, 84
13, 282591, Note_on_c, 10, 76, 0
13, 282600, Note_on_c, 10, 75, 84
13, 282704, Note_on_c, 10, 75, 0
13, 282720, Note_on_c, 10, 76, 84
13, 282839, Note_on_c, 10, 76, 0
13, 282900, Note_on_c, 10, 76, 84
13, 282951, Note_on_c, 10, 76, 0
13, 282960, Note_on_c, 10, 75, 84
13, 283064, Note_on_c, 10, 75, 0
13, 283080, Note_on_c, 10, 76, 84
13, 283199, Note_on_c, 10, 76, 0
13, 283260, Note_on_c, 10, 76, 84
13, 283311, Note_on_c, 10, 76, 0
13, 283320, Note_on_c, 10, 75, 84
13, 283424, Note_on_c, 10, 75, 0
13, 283440, Note_on_c, 10, 76, 84
13, 283559, Note_on_c, 10, 76, 0
13, 283620, Note_on_c, 10, 74, 84
13, 283671, Note_on_c, 10, 74, 0
13, 283680, Note_on_c, 10, 72, 84
13, 283784, Note_on_c, 10, 72, 0
13, 283800, Note_on_c, 10, 72, 84
13, 284399, Note_on_c, 10, 72, 0
13, 284880, Note_on_c, 10, 74, 84
13, 284999, Note_on_c, 10, 74, 0
13, 285060, Note_on_c, 10, 74, 84
13, 285111, Note_on_c, 10, 74, 0
13, 285120, Note_on_c, 10, 73, 84
13, 285224, Note_on_c, 10, 73, 0
13, 285240, Note_on_c, 10, 74, 84
13, 285359, Note_on_c, 10, 74, 0
13, 285420, Note_on_c, 10, 74, 84
13, 285471, Note_on_c, 10, 74, 0
13, 285480, Note_on_c, 10, 73, 84
13, 285584, Note_on_c, 10, 73, 0
13, 285600, Note_on_c, 10, 74, 84
13, 285719, Note_on_c, 10, 74, 0
13, 285780, Note_on_c, 10, 74, 84
13, 285831, Note_on_c, 10, 74, 0
13, 285840, Note_on_c, 10, 73, 84
13, 285944, Note_on_c, 10, 73, 0
13, 285960, Note_on_c, 10, 74, 84
13, 286079, Note_on_c, 10, 74, 0
13, 286140, Note_on_c, 10, 74, 84
13, 286191, Note_on_c, 10, 74, 0
13, 286200, Note_on_c, 10, 73, 84
13, 286304, Note_on_c, 10, 73, 0
13, 286320, Note_on_c, 10, 74, 84
13, 286559, Note_on_c, 10, 74, 0
13, 286860, Note_on_c, 10, 83, 84
13, 286911, Note_on_c, 10, 83, 0
13, 286920, Note_on_c, 10, 84, 84
13, 287024, Note_on_c, 10, 84, 0
13, 287040, Note_on_c, 10, 86, 84
13, 287279, Note_on_c, 10, 86, 0
13, 287580, Note_on_c, 10, 80, 84
13, 287631, Note_on_c, 10, 80, 0
13, 287640, Note_on_c, 10, 81, 84
13, 287744, Note_on_c, 10, 81, 0
13, 287760, Note_on_c, 10, 83, 84
13, 287999, Note_on_c, 10, 83, 0
13, 288300, Note_on_c, 10, 74, 84
13, 288351, Note_on_c, 10, 74, 0
13, 288360, Note_on_c, 10, 76, 84
13, 288464, Note_on_c, 10, 76, 0
13, 288480, Note_on_c, 10, 77, 84
13, 288719, Note_on_c, 10, 77, 0
13, 289020, Note_on_c, 10, 68, 84
13, 289071, Note_on_c, 10, 68, 0
13, 289080, Note_on_c, 10, 69, 84
13, 289184, Note_on_c, 10, 69, 0
13, 289200, Note_on_c, 10, 71, 84
13, 289319, Note_on_c, 10, 71, 0
13, 289380, Note_on_c, 10, 68, 84
13, 289431, Note_on_c, 10, 68, 0
13, 289440, Note_on_c, 10, 69, 84
13, 289544, Note_on_c, 10, 69, 0
13, 289560, Note_on_c, 10, 71, 84
13, 289679, Note_on_c, 10, 71, 0
13, 289740, Note_on_c, 10, 69, 84
13, 289791, Note_on_c, 10, 69, 0
13, 289800, Note_on_c, 10, 71, 84
13, 289904, Note_on_c, 10, 71, 0
13, 289920, Note_on_c, 10, 72, 84
13, 290039, Note_on_c, 10, 72, 0
13, 290100, Note_on_c, 10, 69, 84
13, 290151, Note_on_c, 10, 69, 0
13, 290160, Note_on_c, 10, 71, 84
13, 290264, Note_on_c, 10, 71, 0
13, 290280, Note_on_c, 10, 72, 84
13, 290399, Note_on_c, 10, 72, 0
13, 290460, Note_on_c, 10, 71, 84
13, 290511, Note_on_c, 10, 71, 0
13, 290520, Note_on_c, 10, 73, 84
13, 290624, Note_on_c, 10, 73, 0
13, 290640, Note_on_c, 10, 74, 84
13, 290759, Note_on_c, 10, 74, 0
13, 290820, Note_on_c, 10, 71, 84
13, 290871, Note_on_c, 10, 71, 0
13, 290880, Note_on_c, 10, 73, 84
13, 290984, Note_on_c, 10, 73, 0
13, 291000, Note_on_c, 10, 74, 84
13, 291119, Note_on_c, 10, 74, 0
13, 291180, Note_on_c, 10, 73, 84
13, 291231, Note_on_c, 10, 73, 0
13, 291240, Note_on_c, 10, 75, 84
13, 291344, Note_on_c, 10, 75, 0
13, 291360, Note_on_c, 10, 76, 84
13, 291479, Note_on_c, 10, 76, 0
13, 291540, Note_on_c, 10, 73, 84
13, 291591, Note_on_c, 10, 73, 0
13, 291600, Note_on_c, 10, 75, 84
13, 291704, Note_on_c, 10, 75, 0
13, 291720, Note_on_c, 10, 76, 84
13, 291839, Note_on_c, 10, 76, 0
13, 291900, Note_on_c, 10, 73, 84
13, 291951, Note_on_c, 10, 73, 0
13, 291960, Note_on_c, 10, 75, 84
13, 292064, Note_on_c, 10, 75, 0
13, 292080, Note_on_c, 10, 76, 84
13, 292199, Note_on_c, 10, 76, 0
13, 292260, Note_on_c, 10, 73, 84
13, 292311, Note_on_c, 10, 73, 0
13, 292320, Note_on_c, 10, 74, 84
13, 292424, Note_on_c, 10, 74, 0
13, 292440, Note_on_c, 10, 76, 84
13, 292559, Note_on_c, 10, 76, 0
13, 292620, Note_on_c, 10, 73, 84
13, 292671, Note_on_c, 10, 73, 0
13, 292680, Note_on_c, 10, 74, 84
13, 292784, Note_on_c, 10, 74, 0
13, 292800, Note_on_c, 10, 76, 84
13, 292919, Note_on_c, 10, 76, 0
13, 292980, Note_on_c, 10, 73, 84
13, 293031, Note_on_c, 10, 73, 0
13, 293040, Note_on_c, 10, 74, 84
13, 293144, Note_on_c, 10, 74, 0
13, 293160, Note_on_c, 10, 76, 84
13, 293279, Note_on_c, 10, 76, 0
13, 293340, Note_on_c, 10, 73, 84
13, 293391, Note_on_c, 10, 73, 0
13, 293400, Note_on_c, 10, 74, 84
13, 293504, Note_on_c, 10, 74, 0
13, 293520, Note_on_c, 10, 76, 84
13, 293759, Note_on_c, 10, 76, 0
13, 294600, Note_on_c, 10, 64, 88
13, 294659, Note_on_c, 10, 64, 0
13, 294660, Note_on_c, 10, 66, 88
13, 294719, Note_on_c, 10, 66, 0
13, 294720, Note_on_c, 10, 68, 88
13, 294779, Note_on_c, 10, 68, 0
13, 294780, Note_on_c, 10, 69, 88
13, 294839, Note_on_c, 10, 69, 0
13, 294840, Note_on_c, 10, 71, 88
13, 294879, Note_on_c, 10, 71, 0
13, 294880, Note_on_c, 10, 73, 88
13, 294919, Note_on_c, 10, 73, 0
13, 294920, Note_on_c, 10, 74, 88
13, 294951, Note_on_c, 10, 74, 0
13, 294960, Note_on_c, 10, 76, 88
13, 295199, Note_on_c, 10, 76, 0
13, 296040, Note_on_c, 10, 64, 88
13, 296099, Note_on_c, 10, 64, 0
13, 296100, Note_on_c, 10, 66, 88
13, 296159, Note_on_c, 10, 66, 0
13, 296160, Note_on_c, 10, 68, 88
13, 296219, Note_on_c, 10, 68, 0
13, 296220, Note_on_c, 10, 69, 88
13, 296279, Note_on_c, 10, 69, 0
13, 296280, Note_on_c, 10, 71, 88
13, 296319, Note_on_c, 10, 71, 0
13, 296320, Note_on_c, 10, 73, 88
13, 296359, Note_on_c, 10, 73, 0
13, 296360, Note_on_c, 10, 74, 88
13, 296391, Note_on_c, 10, 74, 0
13, 296400, Note_on_c, 10, 76, 84
13, 296931, Note_on_c, 10, 76, 0
13, 296940, Note_on_c, 10, 74, 84
13, 296991, Note_on_c, 10, 74, 0
13, 297000, Note_on_c, 10, 73, 84
13, 297081, Note_on_c, 10, 73, 0
13, 297090, Note_on_c, 10, 73, 84
13, 297119, Note_on_c, 10, 73, 0
13, 297120, Note_on_c, 10, 74, 84
13, 297651, Note_on_c, 10, 74, 0
13, 297660, Note_on_c, 10, 66, 84
13, 297711, Note_on_c, 10, 66, 0
13, 297720, Note_on_c, 10, 68, 84
13, 297824, Note_on_c, 10, 68, 0
13, 297840, Note_on_c, 10, 69, 84
13, 298064, Note_on_c, 10, 69, 0
13, 298080, Note_on_c, 10, 69, 84
13, 298184, Note_on_c, 10, 69, 0
13, 298200, Note_on_c, 10, 69, 84
13, 298371, Note_on_c, 10, 69, 0
13, 298380, Note_on_c, 10, 71, 84
13, 298431, Note_on_c, 10, 71, 0
13, 298440, Note_on_c, 10, 73, 84
13, 298544, Note_on_c, 10, 73, 0
13, 298560, Note_on_c, 10, 73, 84
13, 298679, Note_on_c, 10, 73, 0
13, 298680, Note_on_c, 10, 71, 84
13, 299091, Note_on_c, 10, 71, 0
13, 299100, Note_on_c, 10, 73, 84
13, 299151, Note_on_c, 10, 73, 0
13, 299160, Note_on_c, 10, 74, 84
13, 299241, Note_on_c, 10, 74, 0
13, 299250, Note_on_c, 10, 75, 84
13, 299279, Note_on_c, 10, 75, 0
13, 299280, Note_on_c, 10, 76, 84
13, 299811, Note_on_c, 10, 76, 0
13, 299820, Note_on_c, 10, 74, 84
13, 299871, Note_on_c, 10, 74, 0
13, 299880, Note_on_c, 10, 73, 84
13, 299961, Note_on_c, 10, 73, 0
13, 299970, Note_on_c, 10, 73, 84
13, 299999, Note_on_c, 10, 73, 0
13, 300000, Note_on_c, 10, 74, 84
13, 300531, Note_on_c, 10, 74, 0
13, 300540, Note_on_c, 10, 66, 84
13, 300591, Note_on_c, 10, 66, 0
13, 300600, Note_on_c, 10, 68, 84
13, 300704, Note_on_c, 10, 68, 0
13, 300720, Note_on_c, 10, 69, 84
13, 300944, Note_on_c, 10, 69, 0
13, 300960, Note_on_c, 10, 69, 84
13, 301064, Note_on_c, 10, 69, 0
13, 301080, Note_on_c, 10, 69, 84
13, 301199, Note_on_c, 10, 69, 0
13, 301200, Note_on_c, 10, 73, 84
13, 301304, Note_on_c, 10, 73, 0
13, 301320, Note_on_c, 10, 71, 84
13, 301409, Note_on_c, 10, 71, 0
13, 301440, Note_on_c, 10, 69, 84
13, 301679, Note_on_c, 10, 69, 0
13, 302040, Note_on_c, 10, 69, 84
13, 302144, Note_on_c, 10, 69, 0
13, 302160, Note_on_c, 10, 69, 84
13, 302384, Note_on_c, 10, 69, 0
13, 302400, Note_on_c, 10, 69, 84
13, 302504, Note_on_c, 10, 69, 0
13, 302520, Note_on_c, 10, 69, 84
13, 302691, Note_on_c, 10, 69, 0
13, 302700, Note_on_c, 10, 74, 84
13, 302751, Note_on_c, 10, 74, 0
13, 302760, Note_on_c, 10, 78, 84
13, 302864, Note_on_c, 10, 78, 0
13, 302880, Note_on_c, 10, 78, 84
13, 302999, Note_on_c, 10, 78, 0
13, 303000, Note_on_c, 10, 76, 84
13, 303104, Note_on_c, 10, 76, 0
13, 303120, Note_on_c, 10, 73, 84
13, 303209, Note_on_c, 10, 73, 0
13, 303240, Note_on_c, 10, 69, 84
13, 303479, Note_on_c, 10, 69, 0
13, 304200, Note_on_c, 10, 69, 84
13, 304304, Note_on_c, 10, 69, 0
13, 304320, Note_on_c, 10, 69, 84
13, 304491, Note_on_c, 10, 69, 0
13, 304500, Note_on_c, 10, 74, 84
13, 304551, Note_on_c, 10, 74, 0
13, 304560, Note_on_c, 10, 69, 84
13, 304664, Note_on_c, 10, 69, 0
13, 304680, Note_on_c, 10, 69, 84
13, 304851, Note_on_c, 10, 69, 0
13, 304860, Note_on_c, 10, 74, 84
13, 304911, Note_on_c, 10, 74, 0
13, 304920, Note_on_c, 10, 78, 84
13, 305024, Note_on_c, 10, 78, 0
13, 305040, Note_on_c, 10, 78, 84
13, 305159, Note_on_c, 10, 78, 0
13, 305160, Note_on_c, 10, 76, 84
13, 305264, Note_on_c, 10, 76, 0
13, 305280, Note_on_c, 10, 73, 84
13, 305369, Note_on_c, 10, 73, 0
13, 305400, Note_on_c, 10, 69, 84
13, 305639, Note_on_c, 10, 69, 0
13, 306360, Note_on_c, 10, 73, 84
13, 306464, Note_on_c, 10, 73, 0
13, 306480, Note_on_c, 10, 71, 84
13, 306704, Note_on_c, 10, 71, 0
13, 306720, Note_on_c, 10, 64, 84
13, 306824, Note_on_c, 10, 64, 0
13, 306840, Note_on_c, 10, 64, 84
13, 307011, Note_on_c, 10, 64, 0
13, 307020, Note_on_c, 10, 73, 84
13, 307071, Note_on_c, 10, 73, 0
13, 307080, Note_on_c, 10, 69, 84
13, 307184, Note_on_c, 10, 69, 0
13, 307200, Note_on_c, 10, 76, 84
13, 307784, Note_on_c, 10, 76, 0
13, 307800, Note_on_c, 10, 73, 84
13, 307904, Note_on_c, 10, 73, 0
13, 307920, Note_on_c, 10, 71, 84
13, 308144, Note_on_c, 10, 71, 0
13, 308160, Note_on_c, 10, 64, 84
13, 308264, Note_on_c, 10, 64, 0
13, 308280, Note_on_c, 10, 64, 84
13, 308451, Note_on_c, 10, 64, 0
13, 308460, Note_on_c, 10, 73, 84
13, 308511, Note_on_c, 10, 73, 0
13, 308520, Note_on_c, 10, 69, 84
13, 308624, Note_on_c, 10, 69, 0
13, 308640, Note_on_c, 10, 76, 84
13, 309171, Note_on_c, 10, 76, 0
13, 309180, Note_on_c, 10, 73, 84
13, 309231, Note_on_c, 10, 73, 0
13, 309240, Note_on_c, 10, 69, 84
13, 309344, Note_on_c, 10, 69, 0
13, 309360, Note_on_c, 10, 76, 84
13, 309891, Note_on_c, 10, 76, 0
13, 309900, Note_on_c, 10, 73, 84
13, 309951, Note_on_c, 10, 73, 0
13, 309960, Note_on_c, 10, 70, 84
13, 310064, Note_on_c, 10, 70, 0
13, 310080, Note_on_c, 10, 76, 84
13, 310199, Note_on_c, 10, 76, 0
13, 310260, Note_on_c, 10, 74, 84
13, 310311, Note_on_c, 10, 74, 0
13, 310320, Note_on_c, 10, 71, 84
13, 310424, Note_on_c, 10, 71, 0
13, 310440, Note_on_c, 10, 80, 84
13, 310559, Note_on_c, 10, 80, 0
13, 310620, Note_on_c, 10, 76, 84
13, 310671, Note_on_c, 10, 76, 0
13, 310680, Note_on_c, 10, 74, 84
13, 310784, Note_on_c, 10, 74, 0
13, 310800, Note_on_c, 10, 83, 84
13, 310919, Note_on_c, 10, 83, 0
13, 310980, Note_on_c, 10, 80, 84
13, 311031, Note_on_c, 10, 80, 0
13, 311040, Note_on_c, 10, 76, 84
13, 311144, Note_on_c, 10, 76, 0
13, 311160, Note_on_c, 10, 86, 84
13, 311279, Note_on_c, 10, 86, 0
13, 311340, Note_on_c, 10, 83, 84
13, 311391, Note_on_c, 10, 83, 0
13, 311400, Note_on_c, 10, 80, 84
13, 311504, Note_on_c, 10, 80, 0
13, 311520, Note_on_c, 10, 86, 84
13, 311879, Note_on_c, 10, 86, 0
13, 312120, Program_c, 10, 45
13, 312240, Note_on_c, 10, 67, 60
13, 312240, Note_on_c, 10, 57, 60
13, 312479, Note_on_c, 10, 67, 0
13, 312479, Note_on_c, 10, 57, 0
13, 312840, Program_c, 10, 48
13, 312960, Note_on_c, 10, 81, 52
13, 313131, Note_on_c, 10, 81, 0
13, 313140, Note_on_c, 10, 81, 52
13, 313191, Note_on_c, 10, 81, 0
13, 313200, Note_on_c, 10, 81, 52
13, 313304, Note_on_c, 10, 81, 0
13, 313320, Note_on_c, 10, 81, 52
13, 313491, Note_on_c, 10, 81, 0
13, 313500, Note_on_c, 10, 81, 52
13, 313551, Note_on_c, 10, 81, 0
13, 313560, Note_on_c, 10, 81, 52
13, 313664, Note_on_c, 10, 81, 0
13, 313680, Note_on_c, 10, 81, 52
13, 313851, Note_on_c, 10, 81, 0
13, 313860, Note_on_c, 10, 81, 52
13, 313911, Note_on_c, 10, 81, 0
13, 313920, Note_on_c, 10, 81, 52
13, 314024, Note_on_c, 10, 81, 0
13, 314040, Note_on_c, 10, 81, 52
13, 314211, Note_on_c, 10, 81, 0
13, 314220, Note_on_c, 10, 81, 52
13, 314271, Note_on_c, 10, 81, 0
13, 314280, Note_on_c, 10, 81, 52
13, 314384, Note_on_c, 10, 81, 0
13, 314400, Note_on_c, 10, 81, 52
13, 314571, Note_on_c, 10, 81, 0
13, 314580, Note_on_c, 10, 81, 52
13, 314631, Note_on_c, 10, 81, 0
13, 314640, Note_on_c, 10, 81, 52
13, 314744, Note_on_c, 10, 81, 0
13, 314760, Note_on_c, 10, 81, 52
13, 314931, Note_on_c, 10, 81, 0
13, 314940, Note_on_c, 10, 81, 52
13, 314991, Note_on_c, 10, 81, 0
13, 315000, Note_on_c, 10, 81, 52
13, 315104, Note_on_c, 10, 81, 0
13, 315120, Note_on_c, 10, 81, 52
13, 315291, Note_on_c, 10, 81, 0
13, 315300, Note_on_c, 10, 81, 52
13, 315351, Note_on_c, 10, 81, 0
13, 315360, Note_on_c, 10, 81, 52
13, 315464, Note_on_c, 10, 81, 0
13, 315480, Note_on_c, 10, 81, 52
13, 315651, Note_on_c, 10, 81, 0
13, 315660, Note_on_c, 10, 81, 52
13, 315711, Note_on_c, 10, 81, 0
13, 315720, Note_on_c, 10, 81, 52
13, 315824, Note_on_c, 10, 81, 0
13, 315840, Note_on_c, 10, 81, 52
13, 316011, Note_on_c, 10, 81, 0
13, 316020, Note_on_c, 10, 81, 52
13, 316071, Note_on_c, 10, 81, 0
13, 316080, Note_on_c, 10, 81, 52
13, 316184, Note_on_c, 10, 81, 0
13, 316200, Note_on_c, 10, 81, 52
13, 316371, Note_on_c, 10, 81, 0
13, 316380, Note_on_c, 10, 81, 52
13, 316431, Note_on_c, 10, 81, 0
13, 316440, Note_on_c, 10, 81, 52
13, 316544, Note_on_c, 10, 81, 0
13, 316560, Note_on_c, 10, 81, 52
13, 316731, Note_on_c, 10, 81, 0
13, 316740, Note_on_c, 10, 81, 52
13, 316791, Note_on_c, 10, 81, 0
13, 316800, Note_on_c, 10, 81, 52
13, 316904, Note_on_c, 10, 81, 0
13, 316920, Note_on_c, 10, 81, 52
13, 317091, Note_on_c, 10, 81, 0
13, 317100, Note_on_c, 10, 81, 52
13, 317151, Note_on_c, 10, 81, 0
13, 317160, Note_on_c, 10, 81, 52
13, 317264, Note_on_c, 10, 81, 0
13, 317280, Note_on_c, 10, 81, 52
13, 317451, Note_on_c, 10, 81, 0
13, 317460, Note_on_c, 10, 81, 52
13, 317511, Note_on_c, 10, 81, 0
13, 317520, Note_on_c, 10, 81, 52
13, 317624, Note_on_c, 10, 81, 0
13, 317640, Note_on_c, 10, 81, 52
13, 317811, Note_on_c, 10, 81, 0
13, 317820, Note_on_c, 10, 81, 52
13, 317871, Note_on_c, 10, 81, 0
13, 317880, Note_on_c, 10, 81, 52
13, 317984, Note_on_c, 10, 81, 0
13, 318000, Note_on_c, 10, 81, 52
13, 318171, Note_on_c, 10, 81, 0
13, 318180, Note_on_c, 10, 81, 52
13, 318231, Note_on_c, 10, 81, 0
13, 318240, Note_on_c, 10, 81, 52
13, 318344, Note_on_c, 10, 81, 0
13, 318360, Note_on_c, 10, 82, 52
13, 318531, Note_on_c, 10, 82, 0
13, 318540, Note_on_c, 10, 70, 52
13, 318591, Note_on_c, 10, 70, 0
13, 318600, Note_on_c, 10, 70, 52
13, 318704, Note_on_c, 10, 70, 0
13, 318720, Note_on_c, 10, 70, 44
13, 319439, Note_on_c, 10, 70, 0
13, 319440, Note_on_c, 10, 69, 44
13, 320159, Note_on_c, 10, 69, 0
13, 320160, Note_on_c, 10, 74, 44
13, 320879, Note_on_c, 10, 74, 0
13, 320880, Note_on_c, 10, 72, 44
13, 321599, Note_on_c, 10, 72, 0
13, 321600, Note_on_c, 10, 77, 44
13, 322304, Note_on_c, 10, 77, 0
13, 322320, Note_on_c, 10, 76, 44
13, 323039, Note_on_c, 10, 76, 0
13, 323040, Note_on_c, 10, 76, 44
13, 323744, Note_on_c, 10, 76, 0
13, 323760, Note_on_c, 10, 77, 44
13, 324479, Note_on_c, 10, 77, 0
13, 324480, Note_on_c, 10, 80, 44
13, 325199, Note_on_c, 10, 80, 0
13, 325200, Note_on_c, 10, 81, 44
13, 325799, Note_on_c, 10, 81, 0
13, 325800, Note_on_c, 10, 76, 44
13, 325904, Note_on_c, 10, 76, 0
13, 325920, Note_on_c, 10, 77, 44
13, 326039, Note_on_c, 10, 77, 0
13, 326040, Note_on_c, 10, 76, 45
13, 326144, Note_on_c, 10, 76, 0
13, 326160, Note_on_c, 10, 72, 47
13, 326249, Note_on_c, 10, 72, 0
13, 326280, Note_on_c, 10, 77, 49
13, 326399, Note_on_c, 10, 77, 0
13, 326400, Note_on_c, 10, 76, 50
13, 326504, Note_on_c, 10, 76, 0
13, 326520, Note_on_c, 10, 72, 52
13, 326609, Note_on_c, 10, 72, 0
13, 326640, Note_on_c, 10, 79, 54
13, 326759, Note_on_c, 10, 79, 0
13, 326760, Note_on_c, 10, 77, 55
13, 326864, Note_on_c, 10, 77, 0
13, 326880, Note_on_c, 10, 74, 57
13, 326969, Note_on_c, 10, 74, 0
13, 327000, Note_on_c, 10, 79, 59
13, 327119, Note_on_c, 10, 79, 0
13, 327120, Note_on_c, 10, 77, 60
13, 327224, Note_on_c, 10, 77, 0
13, 327240, Note_on_c, 10, 74, 62
13, 327329, Note_on_c, 10, 74, 0
13, 327360, Note_on_c, 10, 81, 64
13, 327479, Note_on_c, 10, 81, 0
13, 327480, Note_on_c, 10, 80, 65
13, 327584, Note_on_c, 10, 80, 0
13, 327600, Note_on_c, 10, 76, 67
13, 327689, Note_on_c, 10, 76, 0
13, 327720, Note_on_c, 10, 81, 69
13, 327839, Note_on_c, 10, 81, 0
13, 327840, Note_on_c, 10, 80, 70
13, 327944, Note_on_c, 10, 80, 0
13, 327960, Note_on_c, 10, 76, 72
13, 328049, Note_on_c, 10, 76, 0
13, 328080, Note_on_c, 10, 83, 74
13, 328199, Note_on_c, 10, 83, 0
13, 328200, Note_on_c, 10, 81, 75
13, 328304, Note_on_c, 10, 81, 0
13, 328320, Note_on_c, 10, 76, 77
13, 328409, Note_on_c, 10, 76, 0
13, 328440, Note_on_c, 10, 86, 79
13, 328559, Note_on_c, 10, 86, 0
13, 328560, Note_on_c, 10, 84, 80
13, 328664, Note_on_c, 10, 84, 0
13, 328680, Note_on_c, 10, 81, 82
13, 328769, Note_on_c, 10, 81, 0
13, 328800, Note_on_c, 10, 84, 84
13, 329331, Note_on_c, 10, 84, 0
13, 329340, Note_on_c, 10, 83, 84
13, 329391, Note_on_c, 10, 83, 0
13, 329400, Note_on_c, 10, 81, 84
13, 329481, Note_on_c, 10, 81, 0
13, 329490, Note_on_c, 10, 81, 84
13, 329519, Note_on_c, 10, 81, 0
13, 329520, Note_on_c, 10, 83, 84
13, 329991, Note_on_c, 10, 83, 0
13, 330000, Note_on_c, 10, 65, 84
13, 330089, Note_on_c, 10, 65, 0
13, 330120, Note_on_c, 10, 67, 84
13, 330209, Note_on_c, 10, 67, 0
13, 330240, Note_on_c, 10, 69, 84
13, 330464, Note_on_c, 10, 69, 0
13, 330480, Note_on_c, 10, 69, 84
13, 330584, Note_on_c, 10, 69, 0
13, 330600, Note_on_c, 10, 69, 84
13, 330771, Note_on_c, 10, 69, 0
13, 330780, Note_on_c, 10, 71, 84
13, 330831, Note_on_c, 10, 71, 0
13, 330840, Note_on_c, 10, 69, 84
13, 330944, Note_on_c, 10, 69, 0
13, 330960, Note_on_c, 10, 68, 52
13, 331184, Note_on_c, 10, 68, 0
13, 331200, Note_on_c, 10, 64, 52
13, 331304, Note_on_c, 10, 64, 0
13, 331320, Note_on_c, 10, 64, 52
13, 331491, Note_on_c, 10, 64, 0
13, 331500, Note_on_c, 10, 68, 52
13, 331544, Note_on_c, 10, 68, 0
13, 331560, Note_on_c, 10, 71, 52
13, 331641, Note_on_c, 10, 71, 0
13, 331650, Note_on_c, 10, 69, 52
13, 331679, Note_on_c, 10, 69, 0
13, 331680, Note_on_c, 10, 72, 52
13, 331859, Note_on_c, 10, 72, 0
13, 331920, Note_on_c, 10, 72, 52
13, 332009, Note_on_c, 10, 72, 0
13, 332040, Note_on_c, 10, 72, 52
13, 332211, Note_on_c, 10, 72, 0
13, 332220, Note_on_c, 10, 71, 52
13, 332264, Note_on_c, 10, 71, 0
13, 332280, Note_on_c, 10, 69, 52
13, 332369, Note_on_c, 10, 69, 0
13, 332400, Note_on_c, 10, 68, 52
13, 332519, Note_on_c, 10, 68, 0
13, 332640, Note_on_c, 10, 76, 52
13, 332759, Note_on_c, 10, 76, 0
13, 333000, Note_on_c, 10, 76, 52
13, 333119, Note_on_c, 10, 76, 0
13, 333360, Note_on_c, 10, 76, 52
13, 333479, Note_on_c, 10, 76, 0
13, 333720, Note_on_c, 10, 76, 52
13, 333839, Note_on_c, 10, 76, 0
13, 334080, Note_on_c, 10, 76, 60
13, 334184, Note_on_c, 10, 76, 0
13, 334200, Note_on_c, 10, 76, 64
13, 334371, Note_on_c, 10, 76, 0
13, 334380, Note_on_c, 10, 80, 70
13, 334424, Note_on_c, 10, 80, 0
13, 334440, Note_on_c, 10, 83, 72
13, 334529, Note_on_c, 10, 83, 0
13, 334560, Note_on_c, 10, 85, 76
13, 334784, Note_on_c, 10, 85, 0
13, 334800, Note_on_c, 10, 85, 76
13, 334904, Note_on_c, 10, 85, 0
13, 334920, Note_on_c, 10, 90, 76
13, 335144, Note_on_c, 10, 90, 0
13, 335160, Note_on_c, 10, 90, 76
13, 335264, Note_on_c, 10, 90, 0
13, 335280, Note_on_c, 10, 90, 76
13, 335399, Note_on_c, 10, 90, 0
13, 335400, Note_on_c, 10, 88, 76
13, 335984, Note_on_c, 10, 88, 0
13, 336000, Note_on_c, 10, 81, 76
13, 336224, Note_on_c, 10, 81, 0
13, 336240, Note_on_c, 10, 81, 76
13, 336344, Note_on_c, 10, 81, 0
13, 336360, Note_on_c, 10, 86, 76
13, 336584, Note_on_c, 10, 86, 0
13, 336600, Note_on_c, 10, 86, 76
13, 336704, Note_on_c, 10, 86, 0
13, 336720, Note_on_c, 10, 86, 76
13, 336839, Note_on_c, 10, 86, 0
13, 336840, Note_on_c, 10, 85, 76
13, 337424, Note_on_c, 10, 85, 0
13, 337440, Note_on_c, 10, 78, 76
13, 337664, Note_on_c, 10, 78, 0
13, 337680, Note_on_c, 10, 78, 76
13, 337784, Note_on_c, 10, 78, 0
13, 337800, Note_on_c, 10, 83, 76
13, 338024, Note_on_c, 10, 83, 0
13, 338040, Note_on_c, 10, 81, 76
13, 338144, Note_on_c, 10, 81, 0
13, 338160, Note_on_c, 10, 71, 76
13, 338160, Note_on_c, 10, 80, 76
13, 338399, Note_on_c, 10, 71, 0
13, 338399, Note_on_c, 10, 80, 0
13, 338520, Note_on_c, 10, 76, 76
13, 338520, Note_on_c, 10, 86, 76
13, 338759, Note_on_c, 10, 76, 0
13, 338759, Note_on_c, 10, 86, 0
13, 338880, Note_on_c, 10, 76, 76
13, 338880, Note_on_c, 10, 85, 76
13, 339119, Note_on_c, 10, 76, 0
13, 339119, Note_on_c, 10, 85, 0
13, 339240, Note_on_c, 10, 64, 76
13, 339240, Note_on_c, 10, 73, 76
13, 339240, Note_on_c, 10, 81, 76
13, 339479, Note_on_c, 10, 64, 0
13, 339479, Note_on_c, 10, 73, 0
13, 339479, Note_on_c, 10, 81, 0
13, 339600, Note_on_c, 10, 64, 76
13, 339600, Note_on_c, 10, 71, 76
13, 339600, Note_on_c, 10, 80, 76
13, 339839, Note_on_c, 10, 64, 0
13, 339839, Note_on_c, 10, 71, 0
13, 339839, Note_on_c, 10, 80, 0
13, 339960, Note_on_c, 10, 76, 76
13, 339960, Note_on_c, 10, 86, 76
13, 340199, Note_on_c, 10, 76, 0
13, 340199, Note_on_c, 10, 86, 0
13, 340320, Note_on_c, 10, 76, 76
13, 340320, Note_on_c, 10, 85, 76
13, 340559, Note_on_c, 10, 76, 0
13, 340559, Note_on_c, 10, 85, 0
13, 340680, Note_on_c, 10, 81, 76
13, 340680, Note_on_c, 10, 64, 76
13, 340680, Note_on_c, 10, 73, 76
13, 340919, Note_on_c, 10, 81, 0
13, 340919, Note_on_c, 10, 64, 0
13, 340919, Note_on_c, 10, 73, 0
13, 341040, Note_on_c, 10, 66, 84
13, 341099, Note_on_c, 10, 66, 0
13, 341100, Note_on_c, 10, 66, 76
13, 341120, Control_c, 10, 11, 122
13, 341160, Control_c, 10, 11, 119
13, 341200, Control_c, 10, 11, 117
13, 341240, Control_c, 10, 11, 114
13, 341280, Control_c, 10, 11, 111
13, 341320, Control_c, 10, 11, 109
13, 341360, Control_c, 10, 11, 106
13, 341400, Control_c, 10, 11, 104
13, 341440, Control_c, 10, 11, 101
13, 341480, Control_c, 10, 11, 98
13, 341520, Control_c, 10, 11, 96
13, 341560, Control_c, 10, 11, 93
13, 341600, Control_c, 10, 11, 90
13, 341639, Note_on_c, 10, 66, 0
13, 341640, Control_c, 10, 11, 88
13, 341640, Note_on_c, 10, 65, 76
13, 341680, Control_c, 10, 11, 85
13, 341720, Control_c, 10, 11, 80
13, 341744, Note_on_c, 10, 65, 0
13, 341760, Note_on_c, 10, 64, 76
13, 342359, Note_on_c, 10, 64, 0
13, 342360, Note_on_c, 10, 66, 76
13, 342419, Note_on_c, 10, 66, 0
13, 342420, Note_on_c, 10, 68, 76
13, 342479, Note_on_c, 10, 68, 0
13, 342480, Note_on_c, 10, 69, 76
13, 342719, Note_on_c, 10, 69, 0
13, 343200, Control_c, 10, 11, 127
13, 343920, Note_on_c, 10, 69, 48
13, 344279, Note_on_c, 10, 69, 0
13, 344280, Note_on_c, 10, 73, 48
13, 344639, Note_on_c, 10, 73, 0
13, 344640, Note_on_c, 10, 76, 48
13, 344999, Note_on_c, 10, 76, 0
13, 345000, Note_on_c, 10, 64, 48
13, 345344, Note_on_c, 10, 64, 0
13, 345360, Note_on_c, 10, 81, 84
13, 345360, Note_on_c, 10, 69, 84
13, 345704, Note_on_c, 10, 81, 0
13, 345704, Note_on_c, 10, 69, 0
13, 345720, Note_on_c, 10, 85, 84
13, 345891, Note_on_c, 10, 85, 0
13, 345900, Note_on_c, 10, 81, 84
13, 345951, Note_on_c, 10, 81, 0
13, 345960, Note_on_c, 10, 81, 84
13, 346064, Note_on_c, 10, 81, 0
13, 346080, Note_on_c, 10, 86, 84
13, 346251, Note_on_c, 10, 86, 0
13, 346260, Note_on_c, 10, 83, 84
13, 346311, Note_on_c, 10, 83, 0
13, 346320, Note_on_c, 10, 83, 84
13, 346424, Note_on_c, 10, 83, 0
13, 346440, Note_on_c, 10, 88, 84
13, 346611, Note_on_c, 10, 88, 0
13, 346620, Note_on_c, 10, 88, 84
13, 346671, Note_on_c, 10, 88, 0
13, 346680, Note_on_c, 10, 88, 84
13, 346784, Note_on_c, 10, 88, 0
13, 346800, Note_on_c, 10, 89, 84
13, 346971, Note_on_c, 10, 89, 0
13, 346980, Note_on_c, 10, 89, 84
13, 347031, Note_on_c, 10, 89, 0
13, 347040, Note_on_c, 10, 84, 84
13, 347144, Note_on_c, 10, 84, 0
13, 347160, Note_on_c, 10, 81, 84
13, 347331, Note_on_c, 10, 81, 0
13, 347340, Note_on_c, 10, 81, 84
13, 347391, Note_on_c, 10, 81, 0
13, 347400, Note_on_c, 10, 77, 84
13, 347504, Note_on_c, 10, 77, 0
13, 347520, Note_on_c, 10, 72, 84
13, 347691, Note_on_c, 10, 72, 0
13, 347700, Note_on_c, 10, 72, 84
13, 347751, Note_on_c, 10, 72, 0
13, 347760, Note_on_c, 10, 69, 84
13, 347864, Note_on_c, 10, 69, 0
13, 347880, Note_on_c, 10, 65, 84
13, 348051, Note_on_c, 10, 65, 0
13, 348060, Note_on_c, 10, 65, 84
13, 348111, Note_on_c, 10, 65, 0
13, 348120, Note_on_c, 10, 60, 84
13, 348224, Note_on_c, 10, 60, 0
13, 348240, Note_on_c, 10, 65, 84
13, 348479, Note_on_c, 10, 65, 0
13, 348780, Note_on_c, 10, 60, 82
13, 348831, Note_on_c, 10, 60, 0
13, 348840, Note_on_c, 10, 60, 80
13, 348944, Note_on_c, 10, 60, 0
13, 348960, Note_on_c, 10, 65, 76
13, 349199, Note_on_c, 10, 65, 0
13, 349500, Note_on_c, 10, 60, 58
13, 349551, Note_on_c, 10, 60, 0
13, 349560, Note_on_c, 10, 60, 56
13, 349664, Note_on_c, 10, 60, 0
13, 349680, Note_on_c, 10, 65, 52
13, 349919, Note_on_c, 10, 65, 0
13, 350400, Note_on_c, 10, 65, 44
13, 350639, Note_on_c, 10, 65, 0
13, 351120, Note_on_c, 10, 74, 44
13, 351659, Note_on_c, 10, 74, 0
13, 351660, Note_on_c, 10, 72, 44
13, 351719, Note_on_c, 10, 72, 0
13, 351720, Note_on_c, 10, 71, 44
13, 351824, Note_on_c, 10, 71, 0
13, 351840, Note_on_c, 10, 74, 44
13, 352379, Note_on_c, 10, 74, 0
13, 352380, Note_on_c, 10, 72, 44
13, 352439, Note_on_c, 10, 72, 0
13, 352440, Note_on_c, 10, 71, 44
13, 352544, Note_on_c, 10, 71, 0
13, 352560, Note_on_c, 10, 74, 44
13, 353099, Note_on_c, 10, 74, 0
13, 353100, Note_on_c, 10, 72, 44
13, 353159, Note_on_c, 10, 72, 0
13, 353160, Note_on_c, 10, 71, 44
13, 353264, Note_on_c, 10, 71, 0
13, 353280, Note_on_c, 10, 74, 44
13, 353819, Note_on_c, 10, 74, 0
13, 353820, Note_on_c, 10, 72, 44
13, 353879, Note_on_c, 10, 72, 0
13, 353880, Note_on_c, 10, 71, 44
13, 353984, Note_on_c, 10, 71, 0
13, 353998, Control_c, 10, 11, 48
13, 354000, Control_c, 10, 11, 48
13, 354000, Note_on_c, 10, 74, 84
13, 354055, Control_c, 10, 11, 49
13, 354109, Control_c, 10, 11, 50
13, 354164, Control_c, 10, 11, 51
13, 354219, Control_c, 10, 11, 52
13, 354273, Control_c, 10, 11, 53
13, 354328, Control_c, 10, 11, 54
13, 354383, Control_c, 10, 11, 55
13, 354437, Control_c, 10, 11, 56
13, 354492, Control_c, 10, 11, 57
13, 354539, Note_on_c, 10, 74, 0
13, 354540, Note_on_c, 10, 73, 84
13, 354547, Control_c, 10, 11, 58
13, 354599, Note_on_c, 10, 73, 0
13, 354600, Note_on_c, 10, 71, 84
13, 354602, Control_c, 10, 11, 59
13, 354656, Control_c, 10, 11, 60
13, 354704, Note_on_c, 10, 71, 0
13, 354711, Control_c, 10, 11, 61
13, 354720, Note_on_c, 10, 76, 84
13, 354766, Control_c, 10, 11, 62
13, 354820, Control_c, 10, 11, 63
13, 354875, Control_c, 10, 11, 64
13, 354930, Control_c, 10, 11, 65
13, 354984, Control_c, 10, 11, 66
13, 355039, Control_c, 10, 11, 67
13, 355094, Control_c, 10, 11, 68
13, 355148, Control_c, 10, 11, 69
13, 355203, Control_c, 10, 11, 70
13, 355258, Control_c, 10, 11, 71
13, 355259, Note_on_c, 10, 76, 0
13, 355260, Note_on_c, 10, 74, 84
13, 355312, Control_c, 10, 11, 72
13, 355319, Note_on_c, 10, 74, 0
13, 355320, Note_on_c, 10, 73, 84
13, 355367, Control_c, 10, 11, 73
13, 355422, Control_c, 10, 11, 74
13, 355424, Note_on_c, 10, 73, 0
13, 355440, Note_on_c, 10, 78, 84
13, 355476, Control_c, 10, 11, 75
13, 355531, Control_c, 10, 11, 76
13, 355586, Control_c, 10, 11, 77
13, 355641, Control_c, 10, 11, 78
13, 355695, Control_c, 10, 11, 79
13, 355750, Control_c, 10, 11, 80
13, 355805, Control_c, 10, 11, 81
13, 355859, Control_c, 10, 11, 82
13, 355914, Control_c, 10, 11, 83
13, 355969, Control_c, 10, 11, 84
13, 355979, Note_on_c, 10, 78, 0
13, 355980, Note_on_c, 10, 76, 84
13, 356023, Control_c, 10, 11, 85
13, 356039, Note_on_c, 10, 76, 0
13, 356040, Note_on_c, 10, 74, 84
13, 356078, Control_c, 10, 11, 86
13, 356133, Control_c, 10, 11, 87
13, 356144, Note_on_c, 10, 74, 0
13, 356160, Note_on_c, 10, 80, 84
13, 356187, Control_c, 10, 11, 88
13, 356242, Control_c, 10, 11, 89
13, 356297, Control_c, 10, 11, 90
13, 356351, Control_c, 10, 11, 91
13, 356406, Control_c, 10, 11, 92
13, 356461, Control_c, 10, 11, 93
13, 356515, Control_c, 10, 11, 94
13, 356570, Control_c, 10, 11, 95
13, 356625, Control_c, 10, 11, 96
13, 356679, Control_c, 10, 11, 97
13, 356699, Note_on_c, 10, 80, 0
13, 356700, Note_on_c, 10, 78, 84
13, 356734, Control_c, 10, 11, 98
13, 356759, Note_on_c, 10, 78, 0
13, 356760, Note_on_c, 10, 76, 84
13, 356789, Control_c, 10, 11, 99
13, 356844, Control_c, 10, 11, 100
13, 356864, Note_on_c, 10, 76, 0
13, 356880, Note_on_c, 10, 81, 84
13, 356898, Control_c, 10, 11, 101
13, 356953, Control_c, 10, 11, 102
13, 357008, Control_c, 10, 11, 103
13, 357062, Control_c, 10, 11, 104
13, 357117, Control_c, 10, 11, 105
13, 357172, Control_c, 10, 11, 106
13, 357226, Control_c, 10, 11, 107
13, 357281, Control_c, 10, 11, 108
13, 357336, Control_c, 10, 11, 109
13, 357390, Control_c, 10, 11, 110
13, 357419, Note_on_c, 10, 81, 0
13, 357420, Note_on_c, 10, 80, 84
13, 357445, Control_c, 10, 11, 111
13, 357479, Note_on_c, 10, 80, 0
13, 357480, Note_on_c, 10, 78, 84
13, 357500, Control_c, 10, 11, 112
13, 357554, Control_c, 10, 11, 113
13, 357584, Note_on_c, 10, 78, 0
13, 357600, Note_on_c, 10, 83, 84
13, 357609, Control_c, 10, 11, 114
13, 357664, Control_c, 10, 11, 115
13, 357718, Control_c, 10, 11, 116
13, 357773, Control_c, 10, 11, 117
13, 357828, Control_c, 10, 11, 118
13, 357883, Control_c, 10, 11, 119
13, 357937, Control_c, 10, 11, 120
13, 357992, Control_c, 10, 11, 121
13, 358047, Control_c, 10, 11, 122
13, 358101, Control_c, 10, 11, 123
13, 358139, Note_on_c, 10, 83, 0
13, 358140, Note_on_c, 10, 81, 84
13, 358156, Control_c, 10, 11, 124
13, 358199, Note_on_c, 10, 81, 0
13, 358200, Note_on_c, 10, 80, 84
13, 358211, Control_c, 10, 11, 125
13, 358265, Control_c, 10, 11, 127
13, 358304, Note_on_c, 10, 80, 0
13, 358320, Note_on_c, 10, 85, 84
13, 358371, Note_on_c, 10, 85, 0
13, 358380, Note_on_c, 10, 85, 84
13, 358431, Note_on_c, 10, 85, 0
13, 358440, Note_on_c, 10, 85, 84
13, 358491, Note_on_c, 10, 85, 0
13, 358500, Note_on_c, 10, 85, 84
13, 358551, Note_on_c, 10, 85, 0
13, 358560, Note_on_c, 10, 85, 84
13, 358611, Note_on_c, 10, 85, 0
13, 358620, Note_on_c, 10, 85, 84
13, 358671, Note_on_c, 10, 85, 0
13, 358680, Note_on_c, 10, 85, 84
13, 358731, Note_on_c, 10, 85, 0
13, 358740, Note_on_c, 10, 85, 84
13, 358791, Note_on_c, 10, 85, 0
13, 358800, Note_on_c, 10, 85, 84
13, 358851, Note_on_c, 10, 85, 0
13, 358860, Note_on_c, 10, 85, 84
13, 358911, Note_on_c, 10, 85, 0
13, 358920, Note_on_c, 10, 85, 84
13, 358971, Note_on_c, 10, 85, 0
13, 358980, Note_on_c, 10, 85, 84
13, 359031, Note_on_c, 10, 85, 0
13, 359040, Note_on_c, 10, 85, 84
13, 359091, Note_on_c, 10, 85, 0
13, 359100, Note_on_c, 10, 85, 84
13, 359151, Note_on_c, 10, 85, 0
13, 359160, Note_on_c, 10, 85, 84
13, 359211, Note_on_c, 10, 85, 0
13, 359220, Note_on_c, 10, 85, 84
13, 359271, Note_on_c, 10, 85, 0
13, 359280, Note_on_c, 10, 85, 84
13, 359331, Note_on_c, 10, 85, 0
13, 359340, Note_on_c, 10, 85, 84
13, 359391, Note_on_c, 10, 85, 0
13, 359400, Note_on_c, 10, 85, 84
13, 359451, Note_on_c, 10, 85, 0
13, 359460, Note_on_c, 10, 85, 84
13, 359511, Note_on_c, 10, 85, 0
13, 359520, Note_on_c, 10, 85, 84
13, 359571, Note_on_c, 10, 85, 0
13, 359580, Note_on_c, 10, 85, 84
13, 359631, Note_on_c, 10, 85, 0
13, 359640, Note_on_c, 10, 85, 84
13, 359691, Note_on_c, 10, 85, 0
13, 359700, Note_on_c, 10, 85, 84
13, 359751, Note_on_c, 10, 85, 0
13, 359760, Note_on_c, 10, 83, 84
13, 359811, Note_on_c, 10, 83, 0
13, 359820, Note_on_c, 10, 83, 84
13, 359871, Note_on_c, 10, 83, 0
13, 359880, Note_on_c, 10, 83, 84
13, 359931, Note_on_c, 10, 83, 0
13, 359940, Note_on_c, 10, 83, 84
13, 359991, Note_on_c, 10, 83, 0
13, 360000, Note_on_c, 10, 83, 84
13, 360051, Note_on_c, 10, 83, 0
13, 360060, Note_on_c, 10, 83, 84
13, 360111, Note_on_c, 10, 83, 0
13, 360120, Note_on_c, 10, 83, 84
13, 360171, Note_on_c, 10, 83, 0
13, 360180, Note_on_c, 10, 83, 84
13, 360231, Note_on_c, 10, 83, 0
13, 360240, Note_on_c, 10, 83, 84
13, 360291, Note_on_c, 10, 83, 0
13, 360300, Note_on_c, 10, 83, 84
13, 360351, Note_on_c, 10, 83, 0
13, 360360, Note_on_c, 10, 83, 84
13, 360411, Note_on_c, 10, 83, 0
13, 360420, Note_on_c, 10, 83, 84
13, 360471, Note_on_c, 10, 83, 0
13, 360480, Note_on_c, 10, 83, 84
13, 360531, Note_on_c, 10, 83, 0
13, 360540, Note_on_c, 10, 83, 84
13, 360591, Note_on_c, 10, 83, 0
13, 360600, Note_on_c, 10, 83, 84
13, 360651, Note_on_c, 10, 83, 0
13, 360660, Note_on_c, 10, 83, 84
13, 360711, Note_on_c, 10, 83, 0
13, 360720, Note_on_c, 10, 83, 84
13, 360771, Note_on_c, 10, 83, 0
13, 360780, Note_on_c, 10, 83, 84
13, 360831, Note_on_c, 10, 83, 0
13, 360840, Note_on_c, 10, 83, 84
13, 360891, Note_on_c, 10, 83, 0
13, 360900, Note_on_c, 10, 83, 84
13, 360951, Note_on_c, 10, 83, 0
13, 360960, Note_on_c, 10, 83, 84
13, 361011, Note_on_c, 10, 83, 0
13, 361020, Note_on_c, 10, 83, 84
13, 361071, Note_on_c, 10, 83, 0
13, 361080, Note_on_c, 10, 83, 84
13, 361131, Note_on_c, 10, 83, 0
13, 361140, Note_on_c, 10, 83, 84
13, 361191, Note_on_c, 10, 83, 0
13, 361200, Note_on_c, 10, 58, 44
13, 361251, Note_on_c, 10, 58, 0
13, 361260, Note_on_c, 10, 58, 44
13, 361311, Note_on_c, 10, 58, 0
13, 361320, Note_on_c, 10, 58, 44
13, 361371, Note_on_c, 10, 58, 0
13, 361380, Note_on_c, 10, 58, 44
13, 361431, Note_on_c, 10, 58, 0
13, 361440, Note_on_c, 10, 58, 44
13, 361491, Note_on_c, 10, 58, 0
13, 361500, Note_on_c, 10, 58, 44
13, 361551, Note_on_c, 10, 58, 0
13, 361560, Note_on_c, 10, 58, 44
13, 361611, Note_on_c, 10, 58, 0
13, 361620, Note_on_c, 10, 58, 44
13, 361671, Note_on_c, 10, 58, 0
13, 361680, Note_on_c, 10, 58, 44
13, 361731, Note_on_c, 10, 58, 0
13, 361740, Note_on_c, 10, 58, 44
13, 361791, Note_on_c, 10, 58, 0
13, 361800, Note_on_c, 10, 58, 44
13, 361851, Note_on_c, 10, 58, 0
13, 361860, Note_on_c, 10, 58, 44
13, 361911, Note_on_c, 10, 58, 0
13, 361920, Note_on_c, 10, 56, 44
13, 361971, Note_on_c, 10, 56, 0
13, 361980, Note_on_c, 10, 64, 47
13, 362031, Note_on_c, 10, 64, 0
13, 362040, Note_on_c, 10, 76, 50
13, 362091, Note_on_c, 10, 76, 0
13, 362100, Note_on_c, 10, 76, 54
13, 362151, Note_on_c, 10, 76, 0
13, 362160, Note_on_c, 10, 76, 57
13, 362211, Note_on_c, 10, 76, 0
13, 362220, Note_on_c, 10, 76, 60
13, 362271, Note_on_c, 10, 76, 0
13, 362280, Note_on_c, 10, 76, 64
13, 362331, Note_on_c, 10, 76, 0
13, 362340, Note_on_c, 10, 76, 67
13, 362391, Note_on_c, 10, 76, 0
13, 362400, Note_on_c, 10, 78, 70
13, 362451, Note_on_c, 10, 78, 0
13, 362460, Note_on_c, 10, 80, 74
13, 362511, Note_on_c, 10, 80, 0
13, 362520, Note_on_c, 10, 81, 77
13, 362571, Note_on_c, 10, 81, 0
13, 362580, Note_on_c, 10, 83, 80
13, 362631, Note_on_c, 10, 83, 0
13, 362640, Note_on_c, 10, 85, 84
13, 362691, Note_on_c, 10, 85, 0
13, 362700, Note_on_c, 10, 85, 84
13, 362751, Note_on_c, 10, 85, 0
13, 362760, Note_on_c, 10, 85, 84
13, 362811, Note_on_c, 10, 85, 0
13, 362820, Note_on_c, 10, 85, 84
13, 362871, Note_on_c, 10, 85, 0
13, 362880, Note_on_c, 10, 85, 84
13, 362931, Note_on_c, 10, 85, 0
13, 362940, Note_on_c, 10, 85, 84
13, 362991, Note_on_c, 10, 85, 0
13, 363000, Note_on_c, 10, 85, 84
13, 363051, Note_on_c, 10, 85, 0
13, 363060, Note_on_c, 10, 85, 84
13, 363111, Note_on_c, 10, 85, 0
13, 363120, Note_on_c, 10, 85, 84
13, 363171, Note_on_c, 10, 85, 0
13, 363180, Note_on_c, 10, 85, 84
13, 363231, Note_on_c, 10, 85, 0
13, 363240, Note_on_c, 10, 85, 84
13, 363291, Note_on_c, 10, 85, 0
13, 363300, Note_on_c, 10, 85, 84
13, 363351, Note_on_c, 10, 85, 0
13, 363360, Note_on_c, 10, 85, 84
13, 363411, Note_on_c, 10, 85, 0
13, 363420, Note_on_c, 10, 85, 84
13, 363471, Note_on_c, 10, 85, 0
13, 363480, Note_on_c, 10, 85, 84
13, 363531, Note_on_c, 10, 85, 0
13, 363540, Note_on_c, 10, 85, 84
13, 363591, Note_on_c, 10, 85, 0
13, 363600, Note_on_c, 10, 85, 84
13, 363651, Note_on_c, 10, 85, 0
13, 363660, Note_on_c, 10, 85, 84
13, 363711, Note_on_c, 10, 85, 0
13, 363720, Note_on_c, 10, 85, 84
13, 363771, Note_on_c, 10, 85, 0
13, 363780, Note_on_c, 10, 85, 84
13, 363831, Note_on_c, 10, 85, 0
13, 363840, Note_on_c, 10, 85, 84
13, 363891, Note_on_c, 10, 85, 0
13, 363900, Note_on_c, 10, 85, 84
13, 363951, Note_on_c, 10, 85, 0
13, 363960, Note_on_c, 10, 85, 84
13, 364011, Note_on_c, 10, 85, 0
13, 364020, Note_on_c, 10, 85, 84
13, 364071, Note_on_c, 10, 85, 0
13, 364080, Note_on_c, 10, 83, 84
13, 364131, Note_on_c, 10, 83, 0
13, 364140, Note_on_c, 10, 83, 84
13, 364191, Note_on_c, 10, 83, 0
13, 364200, Note_on_c, 10, 83, 84
13, 364251, Note_on_c, 10, 83, 0
13, 364260, Note_on_c, 10, 83, 84
13, 364311, Note_on_c, 10, 83, 0
13, 364320, Note_on_c, 10, 83, 84
13, 364371, Note_on_c, 10, 83, 0
13, 364380, Note_on_c, 10, 83, 84
13, 364431, Note_on_c, 10, 83, 0
13, 364440, Note_on_c, 10, 83, 84
13, 364491, Note_on_c, 10, 83, 0
13, 364500, Note_on_c, 10, 83, 84
13, 364551, Note_on_c, 10, 83, 0
13, 364560, Note_on_c, 10, 83, 84
13, 364611, Note_on_c, 10, 83, 0
13, 364620, Note_on_c, 10, 83, 84
13, 364671, Note_on_c, 10, 83, 0
13, 364680, Note_on_c, 10, 83, 84
13, 364731, Note_on_c, 10, 83, 0
13, 364740, Note_on_c, 10, 83, 84
13, 364791, Note_on_c, 10, 83, 0
13, 364800, Note_on_c, 10, 83, 84
13, 364851, Note_on_c, 10, 83, 0
13, 364860, Note_on_c, 10, 83, 84
13, 364911, Note_on_c, 10, 83, 0
13, 364920, Note_on_c, 10, 83, 84
13, 364971, Note_on_c, 10, 83, 0
13, 364980, Note_on_c, 10, 83, 84
13, 365031, Note_on_c, 10, 83, 0
13, 365040, Note_on_c, 10, 83, 84
13, 365091, Note_on_c, 10, 83, 0
13, 365100, Note_on_c, 10, 83, 84
13, 365151, Note_on_c, 10, 83, 0
13, 365160, Note_on_c, 10, 83, 84
13, 365211, Note_on_c, 10, 83, 0
13, 365220, Note_on_c, 10, 83, 84
13, 365271, Note_on_c, 10, 83, 0
13, 365280, Note_on_c, 10, 83, 84
13, 365331, Note_on_c, 10, 83, 0
13, 365340, Note_on_c, 10, 83, 84
13, 365391, Note_on_c, 10, 83, 0
13, 365400, Note_on_c, 10, 83, 84
13, 365451, Note_on_c, 10, 83, 0
13, 365460, Note_on_c, 10, 83, 84
13, 365511, Note_on_c, 10, 83, 0
13, 365518, Control_c, 10, 11, 48
13, 365520, Note_on_c, 10, 82, 84
13, 365879, Note_on_c, 10, 82, 0
13, 365880, Note_on_c, 10, 77, 84
13, 366239, Note_on_c, 10, 77, 0
13, 366240, Note_on_c, 10, 68, 84
13, 366280, Control_c, 10, 11, 52
13, 366320, Control_c, 10, 11, 57
13, 366360, Control_c, 10, 11, 61
13, 366400, Control_c, 10, 11, 66
13, 366440, Control_c, 10, 11, 70
13, 366480, Control_c, 10, 11, 74
13, 366520, Control_c, 10, 11, 79
13, 366560, Control_c, 10, 11, 83
13, 366584, Note_on_c, 10, 68, 0
13, 366600, Control_c, 10, 11, 88
13, 366600, Note_on_c, 10, 76, 84
13, 366640, Control_c, 10, 11, 92
13, 366680, Control_c, 10, 11, 96
13, 366720, Control_c, 10, 11, 101
13, 366760, Control_c, 10, 11, 105
13, 366800, Control_c, 10, 11, 109
13, 366839, Note_on_c, 10, 76, 0
13, 366840, Note_on_c, 10, 88, 84
13, 366840, Control_c, 10, 11, 114
13, 366880, Control_c, 10, 11, 118
13, 366920, Control_c, 10, 11, 123
13, 366944, Note_on_c, 10, 88, 0
13, 366958, Control_c, 10, 11, 127
13, 366960, Note_on_c, 10, 88, 84
13, 367491, Note_on_c, 10, 88, 0
13, 367500, Note_on_c, 10, 86, 84
13, 367544, Note_on_c, 10, 86, 0
13, 367560, Note_on_c, 10, 85, 84
13, 367641, Note_on_c, 10, 85, 0
13, 367650, Note_on_c, 10, 85, 84
13, 367679, Note_on_c, 10, 85, 0
13, 367680, Note_on_c, 10, 86, 92
13, 367739, Note_on_c, 10, 86, 0
13, 367740, Note_on_c, 10, 86, 84
13, 368211, Note_on_c, 10, 86, 0
13, 368220, Note_on_c, 10, 78, 84
13, 368264, Note_on_c, 10, 78, 0
13, 368280, Note_on_c, 10, 80, 84
13, 368369, Note_on_c, 10, 80, 0
13, 368400, Note_on_c, 10, 69, 84
13, 368400, Note_on_c, 10, 81, 84
13, 368639, Note_on_c, 10, 69, 0
13, 368639, Note_on_c, 10, 81, 0
13, 368760, Note_on_c, 10, 85, 84
13, 368760, Note_on_c, 10, 69, 84
13, 368999, Note_on_c, 10, 85, 0
13, 368999, Note_on_c, 10, 69, 0
13, 369120, Note_on_c, 10, 88, 84
13, 369359, Note_on_c, 10, 88, 0
13, 369660, Note_on_c, 10, 88, 84
13, 369711, Note_on_c, 10, 88, 0
13, 369720, Note_on_c, 10, 88, 84
13, 369824, Note_on_c, 10, 88, 0
13, 369840, Note_on_c, 10, 88, 92
13, 369899, Note_on_c, 10, 88, 0
13, 369900, Note_on_c, 10, 88, 84
13, 370071, Note_on_c, 10, 88, 0
13, 370080, Note_on_c, 10, 85, 84
13, 370161, Note_on_c, 10, 85, 0
13, 370170, Note_on_c, 10, 85, 84
13, 370199, Note_on_c, 10, 85, 0
13, 370200, Note_on_c, 10, 86, 84
13, 370371, Note_on_c, 10, 86, 0
13, 370380, Note_on_c, 10, 78, 84
13, 370424, Note_on_c, 10, 78, 0
13, 370440, Note_on_c, 10, 80, 84
13, 370529, Note_on_c, 10, 80, 0
13, 370560, Note_on_c, 10, 69, 84
13, 370560, Note_on_c, 10, 81, 84
13, 370799, Note_on_c, 10, 69, 0
13, 370799, Note_on_c, 10, 81, 0
13, 371100, Note_on_c, 10, 88, 84
13, 371151, Note_on_c, 10, 88, 0
13, 371160, Note_on_c, 10, 88, 84
13, 371264, Note_on_c, 10, 88, 0
13, 371280, Note_on_c, 10, 88, 92
13, 371339, Note_on_c, 10, 88, 0
13, 371340, Note_on_c, 10, 88, 84
13, 371511, Note_on_c, 10, 88, 0
13, 371520, Note_on_c, 10, 85, 84
13, 371601, Note_on_c, 10, 85, 0
13, 371610, Note_on_c, 10, 85, 84
13, 371639, Note_on_c, 10, 85, 0
13, 371640, Note_on_c, 10, 86, 84
13, 371811, Note_on_c, 10, 86, 0
13, 371820, Note_on_c, 10, 78, 84
13, 371864, Note_on_c, 10, 78, 0
13, 371880, Note_on_c, 10, 80, 84
13, 371961, Note_on_c, 10, 80, 0
13, 371970, Note_on_c, 10, 80, 84
13, 371999, Note_on_c, 10, 80, 0
13, 372000, Note_on_c, 10, 81, 84
13, 372239, Note_on_c, 10, 81, 0
13, 372330, Note_on_c, 10, 69, 84
13, 372359, Note_on_c, 10, 69, 0
13, 372360, Note_on_c, 10, 71, 84
13, 372599, Note_on_c, 10, 71, 0
13, 372690, Note_on_c, 10, 71, 84
13, 372719, Note_on_c, 10, 71, 0
13, 372720, Note_on_c, 10, 73, 84
13, 372959, Note_on_c, 10, 73, 0
13, 373050, Note_on_c, 10, 73, 84
13, 373079, Note_on_c, 10, 73, 0
13, 373080, Note_on_c, 10, 74, 84
13, 373319, Note_on_c, 10, 74, 0
13, 373410, Note_on_c, 10, 74, 84
13, 373439, Note_on_c, 10, 74, 0
13, 373440, Note_on_c, 10, 76, 84
13, 373679, Note_on_c, 10, 76, 0
13, 373770, Note_on_c, 10, 76, 84
13, 373799, Note_on_c, 10, 76, 0
13, 373800, Note_on_c, 10, 78, 84
13, 374039, Note_on_c, 10, 78, 0
13, 374130, Note_on_c, 10, 78, 84
13, 374159, Note_on_c, 10, 78, 0
13, 374160, Note_on_c, 10, 80, 84
13, 374399, Note_on_c, 10, 80, 0
13, 374490, Note_on_c, 10, 80, 84
13, 374519, Note_on_c, 10, 80, 0
13, 374520, Note_on_c, 10, 81, 84
13, 374759, Note_on_c, 10, 81, 0
13, 376290, Note_on_c, 10, 79, 52
13, 376319, Note_on_c, 10, 79, 0
13, 376320, Note_on_c, 10, 80, 52
13, 376559, Note_on_c, 10, 80, 0
13, 379920, Note_on_c, 10, 75, 44
13, 380459, Note_on_c, 10, 75, 0
13, 380460, Note_on_c, 10, 73, 44
13, 380519, Note_on_c, 10, 73, 0
13, 380520, Note_on_c, 10, 72, 44
13, 380639, Note_on_c, 10, 72, 0
13, 381360, Note_on_c, 10, 76, 44
13, 381899, Note_on_c, 10, 76, 0
13, 381900, Note_on_c, 10, 74, 44
13, 381959, Note_on_c, 10, 74, 0
13, 381960, Note_on_c, 10, 72, 44
13, 382079, Note_on_c, 10, 72, 0
13, 382800, Note_on_c, 10, 81, 44
13, 383339, Note_on_c, 10, 81, 0
13, 383340, Note_on_c, 10, 79, 44
13, 383399, Note_on_c, 10, 79, 0
13, 383400, Note_on_c, 10, 77, 44
13, 383519, Note_on_c, 10, 77, 0
13, 384240, Control_c, 10, 11, 96
13, 384840, Note_on_c, 10, 76, 60
13, 384944, Note_on_c, 10, 76, 0
13, 384960, Note_on_c, 10, 76, 60
13, 385679, Note_on_c, 10, 76, 0
13, 385680, Note_on_c, 10, 76, 60
13, 386039, Note_on_c, 10, 76, 0
13, 386040, Note_on_c, 10, 81, 60
13, 386279, Note_on_c, 10, 81, 0
13, 386280, Note_on_c, 10, 76, 60
13, 386384, Note_on_c, 10, 76, 0
13, 386400, Note_on_c, 10, 76, 60
13, 387119, Note_on_c, 10, 76, 0
13, 387120, Control_c, 10, 11, 96
13, 387120, Note_on_c, 10, 76, 60
13, 387160, Control_c, 10, 11, 99
13, 387200, Control_c, 10, 11, 103
13, 387240, Control_c, 10, 11, 106
13, 387280, Control_c, 10, 11, 110
13, 387320, Control_c, 10, 11, 113
13, 387360, Control_c, 10, 11, 117
13, 387400, Control_c, 10, 11, 120
13, 387440, Control_c, 10, 11, 127
13, 387479, Note_on_c, 10, 76, 0
13, 387480, Control_c, 10, 11, 127
13, 387480, Note_on_c, 10, 85, 60
13, 387520, Control_c, 10, 11, 124
13, 387560, Control_c, 10, 11, 120
13, 387600, Control_c, 10, 11, 117
13, 387640, Control_c, 10, 11, 113
13, 387680, Control_c, 10, 11, 110
13, 387719, Note_on_c, 10, 85, 0
13, 387720, Note_on_c, 10, 81, 60
13, 387720, Control_c, 10, 11, 106
13, 387760, Control_c, 10, 11, 103
13, 387800, Control_c, 10, 11, 96
13, 387824, Note_on_c, 10, 81, 0
13, 387840, Note_on_c, 10, 76, 60
13, 388559, Note_on_c, 10, 76, 0
13, 388560, Note_on_c, 10, 76, 60
13, 388799, Note_on_c, 10, 76, 0
13, 388800, Note_on_c, 10, 81, 60
13, 388904, Note_on_c, 10, 81, 0
13, 388920, Note_on_c, 10, 81, 60
13, 389159, Note_on_c, 10, 81, 0
13, 389160, Note_on_c, 10, 76, 60
13, 389264, Note_on_c, 10, 76, 0
13, 389280, Note_on_c, 10, 76, 60
13, 389999, Note_on_c, 10, 76, 0
13, 390000, Note_on_c, 10, 76, 60
13, 390040, Control_c, 10, 11, 99
13, 390080, Control_c, 10, 11, 103
13, 390120, Control_c, 10, 11, 106
13, 390160, Control_c, 10, 11, 110
13, 390200, Control_c, 10, 11, 113
13, 390239, Note_on_c, 10, 76, 0
13, 390240, Note_on_c, 10, 85, 60
13, 390240, Control_c, 10, 11, 117
13, 390280, Control_c, 10, 11, 120
13, 390320, Control_c, 10, 11, 127
13, 390344, Note_on_c, 10, 85, 0
13, 390360, Note_on_c, 10, 85, 60
13, 390360, Control_c, 10, 11, 127
13, 390400, Control_c, 10, 11, 124
13, 390440, Control_c, 10, 11, 120
13, 390479, Note_on_c, 10, 85, 0
13, 390480, Note_on_c, 10, 83, 60
13, 390480, Control_c, 10, 11, 117
13, 390520, Control_c, 10, 11, 113
13, 390560, Control_c, 10, 11, 110
13, 390584, Note_on_c, 10, 83, 0
13, 390600, Note_on_c, 10, 81, 60
13, 390600, Control_c, 10, 11, 106
13, 390640, Control_c, 10, 11, 103
13, 390680, Control_c, 10, 11, 96
13, 390689, Note_on_c, 10, 81, 0
13, 390720, Control_c, 10, 11, 80
13, 390904, Control_c, 10, 11, 81
13, 390960, Note_on_c, 10, 76, 68
13, 391049, Note_on_c, 10, 76, 0
13, 391080, Note_on_c, 10, 76, 68
13, 391088, Control_c, 10, 11, 82
13, 391271, Control_c, 10, 11, 83
13, 391455, Control_c, 10, 11, 84
13, 391639, Control_c, 10, 11, 85
13, 391664, Note_on_c, 10, 76, 0
13, 391680, Note_on_c, 10, 81, 68
13, 391769, Note_on_c, 10, 81, 0
13, 391800, Note_on_c, 10, 76, 68
13, 391823, Control_c, 10, 11, 86
13, 392007, Control_c, 10, 11, 87
13, 392159, Note_on_c, 10, 76, 0
13, 392191, Control_c, 10, 11, 88
13, 392374, Control_c, 10, 11, 89
13, 392400, Note_on_c, 10, 76, 68
13, 392489, Note_on_c, 10, 76, 0
13, 392520, Note_on_c, 10, 76, 68
13, 392558, Control_c, 10, 11, 90
13, 392742, Control_c, 10, 11, 91
13, 392926, Control_c, 10, 11, 92
13, 393104, Note_on_c, 10, 76, 0
13, 393110, Control_c, 10, 11, 93
13, 393120, Note_on_c, 10, 85, 68
13, 393209, Note_on_c, 10, 85, 0
13, 393240, Note_on_c, 10, 81, 68
13, 393294, Control_c, 10, 11, 94
13, 393477, Control_c, 10, 11, 95
13, 393584, Note_on_c, 10, 81, 0
13, 393600, Note_on_c, 10, 76, 68
13, 393661, Control_c, 10, 11, 96
13, 393809, Note_on_c, 10, 76, 0
13, 393840, Note_on_c, 10, 76, 68
13, 393845, Control_c, 10, 11, 97
13, 393944, Note_on_c, 10, 76, 0
13, 393960, Note_on_c, 10, 76, 68
13, 394029, Control_c, 10, 11, 98
13, 394169, Note_on_c, 10, 76, 0
13, 394200, Note_on_c, 10, 76, 68
13, 394213, Control_c, 10, 11, 99
13, 394289, Note_on_c, 10, 76, 0
13, 394320, Note_on_c, 10, 76, 68
13, 394397, Control_c, 10, 11, 100
13, 394529, Note_on_c, 10, 76, 0
13, 394560, Note_on_c, 10, 81, 68
13, 394580, Control_c, 10, 11, 101
13, 394664, Note_on_c, 10, 81, 0
13, 394680, Note_on_c, 10, 76, 68
13, 394764, Control_c, 10, 11, 102
13, 394889, Note_on_c, 10, 76, 0
13, 394920, Note_on_c, 10, 76, 68
13, 394948, Control_c, 10, 11, 103
13, 395009, Note_on_c, 10, 76, 0
13, 395040, Note_on_c, 10, 76, 68
13, 395132, Control_c, 10, 11, 104
13, 395249, Note_on_c, 10, 76, 0
13, 395280, Note_on_c, 10, 76, 68
13, 395316, Control_c, 10, 11, 105
13, 395384, Note_on_c, 10, 76, 0
13, 395400, Note_on_c, 10, 76, 68
13, 395500, Control_c, 10, 11, 106
13, 395609, Note_on_c, 10, 76, 0
13, 395640, Note_on_c, 10, 76, 68
13, 395683, Control_c, 10, 11, 107
13, 395729, Note_on_c, 10, 76, 0
13, 395760, Note_on_c, 10, 76, 68
13, 395867, Control_c, 10, 11, 108
13, 395969, Note_on_c, 10, 76, 0
13, 396000, Note_on_c, 10, 85, 68
13, 396051, Control_c, 10, 11, 109
13, 396104, Note_on_c, 10, 85, 0
13, 396120, Note_on_c, 10, 81, 68
13, 396235, Control_c, 10, 11, 110
13, 396329, Note_on_c, 10, 81, 0
13, 396360, Note_on_c, 10, 81, 68
13, 396419, Control_c, 10, 11, 111
13, 396449, Note_on_c, 10, 81, 0
13, 396480, Note_on_c, 10, 76, 68
13, 396584, Note_on_c, 10, 76, 0
13, 396600, Note_on_c, 10, 76, 68
13, 396603, Control_c, 10, 11, 112
13, 396704, Note_on_c, 10, 76, 0
13, 396720, Note_on_c, 10, 76, 68
13, 396786, Control_c, 10, 11, 113
13, 396824, Note_on_c, 10, 76, 0
13, 396840, Note_on_c, 10, 76, 68
13, 396944, Note_on_c, 10, 76, 0
13, 396960, Note_on_c, 10, 76, 68
13, 396970, Control_c, 10, 11, 114
13, 397064, Note_on_c, 10, 76, 0
13, 397080, Note_on_c, 10, 76, 68
13, 397154, Control_c, 10, 11, 115
13, 397184, Note_on_c, 10, 76, 0
13, 397200, Note_on_c, 10, 76, 68
13, 397304, Note_on_c, 10, 76, 0
13, 397320, Note_on_c, 10, 81, 68
13, 397338, Control_c, 10, 11, 116
13, 397424, Note_on_c, 10, 81, 0
13, 397440, Note_on_c, 10, 81, 68
13, 397522, Control_c, 10, 11, 117
13, 397544, Note_on_c, 10, 81, 0
13, 397560, Note_on_c, 10, 81, 68
13, 397664, Note_on_c, 10, 81, 0
13, 397680, Note_on_c, 10, 76, 68
13, 397706, Control_c, 10, 11, 118
13, 397784, Note_on_c, 10, 76, 0
13, 397800, Note_on_c, 10, 76, 68
13, 397889, Control_c, 10, 11, 119
13, 397904, Note_on_c, 10, 76, 0
13, 397920, Note_on_c, 10, 76, 68
13, 398024, Note_on_c, 10, 76, 0
13, 398040, Note_on_c, 10, 76, 68
13, 398073, Control_c, 10, 11, 120
13, 398144, Note_on_c, 10, 76, 0
13, 398160, Note_on_c, 10, 76, 68
13, 398257, Control_c, 10, 11, 121
13, 398264, Note_on_c, 10, 76, 0
13, 398280, Note_on_c, 10, 76, 68
13, 398384, Note_on_c, 10, 76, 0
13, 398400, Note_on_c, 10, 76, 68
13, 398441, Control_c, 10, 11, 122
13, 398504, Note_on_c, 10, 76, 0
13, 398520, Note_on_c, 10, 76, 68
13, 398624, Note_on_c, 10, 76, 0
13, 398625, Control_c, 10, 11, 123
13, 398640, Note_on_c, 10, 76, 68
13, 398744, Note_on_c, 10, 76, 0
13, 398760, Note_on_c, 10, 85, 68
13, 398809, Control_c, 10, 11, 124
13, 398864, Note_on_c, 10, 85, 0
13, 398880, Note_on_c, 10, 85, 68
13, 398984, Note_on_c, 10, 85, 0
13, 398992, Control_c, 10, 11, 125
13, 399000, Note_on_c, 10, 85, 68
13, 399104, Note_on_c, 10, 85, 0
13, 399120, Note_on_c, 10, 81, 68
13, 399176, Control_c, 10, 11, 127
13, 399224, Note_on_c, 10, 81, 0
13, 399240, Note_on_c, 10, 81, 68
13, 399344, Note_on_c, 10, 81, 0
13, 399360, Note_on_c, 10, 76, 68
13, 399411, Note_on_c, 10, 76, 0
13, 399420, Note_on_c, 10, 76, 68
13, 399471, Note_on_c, 10, 76, 0
13, 399480, Note_on_c, 10, 76, 69
13, 399531, Note_on_c, 10, 76, 0
13, 399540, Note_on_c, 10, 76, 70
13, 399591, Note_on_c, 10, 76, 0
13, 399600, Note_on_c, 10, 76, 70
13, 399651, Note_on_c, 10, 76, 0
13, 399660, Note_on_c, 10, 76, 71
13, 399711, Note_on_c, 10, 76, 0
13, 399720, Note_on_c, 10, 76, 72
13, 399771, Note_on_c, 10, 76, 0
13, 399780, Note_on_c, 10, 88, 72
13, 399831, Note_on_c, 10, 88, 0
13, 399840, Note_on_c, 10, 88, 73
13, 399891, Note_on_c, 10, 88, 0
13, 399900, Note_on_c, 10, 88, 74
13, 399951, Note_on_c, 10, 88, 0
13, 399960, Note_on_c, 10, 88, 74
13, 400011, Note_on_c, 10, 88, 0
13, 400020, Note_on_c, 10, 88, 75
13, 400071, Note_on_c, 10, 88, 0
13, 400080, Note_on_c, 10, 88, 76
13, 400131, Note_on_c, 10, 88, 0
13, 400140, Note_on_c, 10, 88, 76
13, 400191, Note_on_c, 10, 88, 0
13, 400200, Note_on_c, 10, 88, 77
13, 400251, Note_on_c, 10, 88, 0
13, 400260, Note_on_c, 10, 88, 78
13, 400311, Note_on_c, 10, 88, 0
13, 400320, Note_on_c, 10, 88, 78
13, 400371, Note_on_c, 10, 88, 0
13, 400380, Note_on_c, 10, 88, 79
13, 400431, Note_on_c, 10, 88, 0
13, 400440, Note_on_c, 10, 88, 80
13, 400491, Note_on_c, 10, 88, 0
13, 400500, Note_on_c, 10, 88, 80
13, 400551, Note_on_c, 10, 88, 0
13, 400560, Note_on_c, 10, 88, 81
13, 400611, Note_on_c, 10, 88, 0
13, 400620, Note_on_c, 10, 88, 82
13, 400671, Note_on_c, 10, 88, 0
13, 400680, Note_on_c, 10, 88, 82
13, 400731, Note_on_c, 10, 88, 0
13, 400740, Note_on_c, 10, 88, 83
13, 400791, Note_on_c, 10, 88, 0
13, 400800, Note_on_c, 10, 88, 84
13, 400971, Note_on_c, 10, 88, 0
13, 400980, Note_on_c, 10, 76, 84
13, 401031, Note_on_c, 10, 76, 0
13, 401040, Note_on_c, 10, 76, 84
13, 401144, Note_on_c, 10, 76, 0
13, 401160, Note_on_c, 10, 81, 84
13, 401331, Note_on_c, 10, 81, 0
13, 401340, Note_on_c, 10, 81, 84
13, 401391, Note_on_c, 10, 81, 0
13, 401400, Note_on_c, 10, 81, 84
13, 401504, Note_on_c, 10, 81, 0
13, 401520, Note_on_c, 10, 85, 84
13, 401691, Note_on_c, 10, 85, 0
13, 401700, Note_on_c, 10, 85, 84
13, 401751, Note_on_c, 10, 85, 0
13, 401760, Note_on_c, 10, 85, 84
13, 401864, Note_on_c, 10, 85, 0
13, 401880, Note_on_c, 10, 88, 84
13, 402051, Note_on_c, 10, 88, 0
13, 402060, Note_on_c, 10, 88, 84
13, 402111, Note_on_c, 10, 88, 0
13, 402120, Note_on_c, 10, 88, 84
13, 402224, Note_on_c, 10, 88, 0
13, 402240, Note_on_c, 10, 78, 84
13, 402411, Note_on_c, 10, 78, 0
13, 402420, Note_on_c, 10, 78, 84
13, 402471, Note_on_c, 10, 78, 0
13, 402480, Note_on_c, 10, 78, 84
13, 402584, Note_on_c, 10, 78, 0
13, 402600, Note_on_c, 10, 81, 84
13, 402771, Note_on_c, 10, 81, 0
13, 402780, Note_on_c, 10, 81, 84
13, 402831, Note_on_c, 10, 81, 0
13, 402840, Note_on_c, 10, 81, 84
13, 402944, Note_on_c, 10, 81, 0
13, 402960, Note_on_c, 10, 86, 84
13, 403131, Note_on_c, 10, 86, 0
13, 403140, Note_on_c, 10, 86, 84
13, 403191, Note_on_c, 10, 86, 0
13, 403200, Note_on_c, 10, 86, 84
13, 403304, Note_on_c, 10, 86, 0
13, 403320, Note_on_c, 10, 90, 84
13, 403491, Note_on_c, 10, 90, 0
13, 403500, Note_on_c, 10, 90, 84
13, 403551, Note_on_c, 10, 90, 0
13, 403560, Note_on_c, 10, 90, 84
13, 403664, Note_on_c, 10, 90, 0
13, 403680, Note_on_c, 10, 88, 84
13, 403851, Note_on_c, 10, 88, 0
13, 403860, Note_on_c, 10, 93, 84
13, 403904, Note_on_c, 10, 93, 0
13, 403920, Note_on_c, 10, 88, 84
13, 404024, Note_on_c, 10, 88, 0
13, 404040, Note_on_c, 10, 88, 84
13, 404571, Note_on_c, 10, 88, 0
13, 404580, Note_on_c, 10, 88, 84
13, 404624, Note_on_c, 10, 88, 0
13, 404640, Note_on_c, 10, 85, 84
13, 404744, Note_on_c, 10, 85, 0
13, 404760, Note_on_c, 10, 85, 84
13, 405291, Note_on_c, 10, 85, 0
13, 405300, Note_on_c, 10, 85, 84
13, 405351, Note_on_c, 10, 85, 0
13, 405360, Note_on_c, 10, 81, 84
13, 405651, Note_on_c, 10, 81, 0
13, 405660, Note_on_c, 10, 81, 84
13, 405711, Note_on_c, 10, 81, 0
13, 405720, Note_on_c, 10, 76, 84
13, 406011, Note_on_c, 10, 76, 0
13, 406020, Note_on_c, 10, 76, 84
13, 406071, Note_on_c, 10, 76, 0
13, 406080, Note_on_c, 10, 73, 84
13, 406371, Note_on_c, 10, 73, 0
13, 406380, Note_on_c, 10, 73, 84
13, 406431, Note_on_c, 10, 73, 0
13, 406440, Note_on_c, 10, 69, 84
13, 406731, Note_on_c, 10, 69, 0
13, 406740, Note_on_c, 10, 69, 84
13, 406791, Note_on_c, 10, 69, 0
13, 406800, Note_on_c, 10, 66, 84
13, 407091, Note_on_c, 10, 66, 0
13, 407100, Note_on_c, 10, 66, 84
13, 407151, Note_on_c, 10, 66, 0
13, 407160, Note_on_c, 10, 64, 84
13, 407264, Note_on_c, 10, 64, 0
13, 407280, Note_on_c, 10, 63, 84
13, 407519, Note_on_c, 10, 63, 0
13, 407820, Note_on_c, 10, 63, 84
13, 407871, Note_on_c, 10, 63, 0
13, 407880, Note_on_c, 10, 63, 84
13, 407984, Note_on_c, 10, 63, 0
13, 408000, Note_on_c, 10, 63, 84
13, 408239, Note_on_c, 10, 63, 0
13, 408540, Note_on_c, 10, 63, 84
13, 408591, Note_on_c, 10, 63, 0
13, 408600, Note_on_c, 10, 63, 84
13, 408704, Note_on_c, 10, 63, 0
13, 408720, Note_on_c, 10, 62, 84
13, 408959, Note_on_c, 10, 62, 0
13, 409260, Note_on_c, 10, 62, 84
13, 409311, Note_on_c, 10, 62, 0
13, 409320, Note_on_c, 10, 62, 84
13, 409424, Note_on_c, 10, 62, 0
13, 409440, Note_on_c, 10, 62, 84
13, 409679, Note_on_c, 10, 62, 0
13, 409980, Note_on_c, 10, 62, 84
13, 410031, Note_on_c, 10, 62, 0
13, 410040, Note_on_c, 10, 62, 84
13, 410144, Note_on_c, 10, 62, 0
13, 410160, Note_on_c, 10, 61, 84
13, 410399, Note_on_c, 10, 61, 0
13, 410700, Note_on_c, 10, 62, 84
13, 410751, Note_on_c, 10, 62, 0
13, 410760, Note_on_c, 10, 62, 84
13, 410864, Note_on_c, 10, 62, 0
13, 410880, Note_on_c, 10, 64, 84
13, 411119, Note_on_c, 10, 64, 0
13, 411420, Note_on_c, 10, 65, 84
13, 411471, Note_on_c, 10, 65, 0
13, 411480, Note_on_c, 10, 65, 84
13, 411584, Note_on_c, 10, 65, 0
13, 411600, Note_on_c, 10, 66, 84
13, 411719, Note_on_c, 10, 66, 0
13, 411780, Note_on_c, 10, 62, 84
13, 411831, Note_on_c, 10, 62, 0
13, 411840, Note_on_c, 10, 62, 84
13, 411944, Note_on_c, 10, 62, 0
13, 411960, Note_on_c, 10, 62, 84
13, 412079, Note_on_c, 10, 62, 0
13, 412140, Note_on_c, 10, 64, 84
13, 412191, Note_on_c, 10, 64, 0
13, 412200, Note_on_c, 10, 64, 84
13, 412304, Note_on_c, 10, 64, 0
13, 412320, Note_on_c, 10, 64, 84
13, 412439, Note_on_c, 10, 64, 0
13, 412500, Note_on_c, 10, 65, 84
13, 412551, Note_on_c, 10, 65, 0
13, 412560, Note_on_c, 10, 65, 84
13, 412664, Note_on_c, 10, 65, 0
13, 412680, Note_on_c, 10, 65, 84
13, 412799, Note_on_c, 10, 65, 0
13, 412860, Note_on_c, 10, 66, 84
13, 412911, Note_on_c, 10, 66, 0
13, 412920, Note_on_c, 10, 66, 84
13, 413024, Note_on_c, 10, 66, 0
13, 413040, Note_on_c, 10, 66, 84
13, 413159, Note_on_c, 10, 66, 0
13, 413220, Note_on_c, 10, 78, 84
13, 413271, Note_on_c, 10, 78, 0
13, 413280, Note_on_c, 10, 78, 84
13, 413384, Note_on_c, 10, 78, 0
13, 413400, Note_on_c, 10, 78, 84
13, 413519, Note_on_c, 10, 78, 0
13, 413580, Note_on_c, 10, 76, 84
13, 413631, Note_on_c, 10, 76, 0
13, 413640, Note_on_c, 10, 76, 84
13, 413744, Note_on_c, 10, 76, 0
13, 413760, Note_on_c, 10, 76, 84
13, 413879, Note_on_c, 10, 76, 0
13, 413940, Note_on_c, 10, 80, 84
13, 413991, Note_on_c, 10, 80, 0
13, 414000, Note_on_c, 10, 80, 84
13, 414104, Note_on_c, 10, 80, 0
13, 414120, Note_on_c, 10, 80, 84
13, 414239, Note_on_c, 10, 80, 0
13, 414300, Note_on_c, 10, 81, 84
13, 414351, Note_on_c, 10, 81, 0
13, 414360, Note_on_c, 10, 81, 84
13, 414464, Note_on_c, 10, 81, 0
13, 414480, Note_on_c, 10, 81, 84
13, 414599, Note_on_c, 10, 81, 0
13, 414660, Note_on_c, 10, 88, 84
13, 414711, Note_on_c, 10, 88, 0
13, 414720, Note_on_c, 10, 88, 84
13, 414824, Note_on_c, 10, 88, 0
13, 414840, Note_on_c, 10, 88, 84
13, 414959, Note_on_c, 10, 88, 0
13, 415020, Note_on_c, 10, 88, 84
13, 415071, Note_on_c, 10, 88, 0
13, 415080, Note_on_c, 10, 88, 84
13, 415184, Note_on_c, 10, 88, 0
13, 415200, Note_on_c, 10, 88, 84
13, 415319, Note_on_c, 10, 88, 0
13, 415380, Note_on_c, 10, 88, 84
13, 415431, Note_on_c, 10, 88, 0
13, 415440, Note_on_c, 10, 88, 84
13, 415544, Note_on_c, 10, 88, 0
13, 415560, Note_on_c, 10, 88, 84
13, 415679, Note_on_c, 10, 88, 0
13, 415740, Note_on_c, 10, 88, 84
13, 415791, Note_on_c, 10, 88, 0
13, 415800, Note_on_c, 10, 88, 84
13, 415904, Note_on_c, 10, 88, 0
13, 415920, Note_on_c, 10, 88, 84
13, 416039, Note_on_c, 10, 88, 0
13, 416100, Note_on_c, 10, 88, 84
13, 416151, Note_on_c, 10, 88, 0
13, 416160, Note_on_c, 10, 88, 84
13, 416264, Note_on_c, 10, 88, 0
13, 416280, Note_on_c, 10, 88, 84
13, 416399, Note_on_c, 10, 88, 0
13, 416460, Note_on_c, 10, 88, 84
13, 416511, Note_on_c, 10, 88, 0
13, 416520, Note_on_c, 10, 88, 84
13, 416624, Note_on_c, 10, 88, 0
13, 416640, Note_on_c, 10, 88, 84
13, 416759, Note_on_c, 10, 88, 0
13, 416820, Note_on_c, 10, 88, 84
13, 416871, Note_on_c, 10, 88, 0
13, 416880, Note_on_c, 10, 88, 84
13, 416984, Note_on_c, 10, 88, 0
13, 417000, Note_on_c, 10, 88, 84
13, 417119, Note_on_c, 10, 88, 0
13, 417180, Note_on_c, 10, 88, 84
13, 417231, Note_on_c, 10, 88, 0
13, 417240, Note_on_c, 10, 88, 84
13, 417344, Note_on_c, 10, 88, 0
13, 417360, Note_on_c, 10, 88, 84
13, 417479, Note_on_c, 10, 88, 0
13, 417540, Note_on_c, 10, 93, 84
13, 417591, Note_on_c, 10, 93, 0
13, 417600, Note_on_c, 10, 93, 84
13, 417704, Note_on_c, 10, 93, 0
13, 417720, Note_on_c, 10, 93, 84
13, 417839, Note_on_c, 10, 93, 0
13, 417900, Note_on_c, 10, 81, 84
13, 417951, Note_on_c, 10, 81, 0
13, 417960, Note_on_c, 10, 81, 84
13, 418064, Note_on_c, 10, 81, 0
13, 418080, Note_on_c, 10, 81, 84
13, 418199, Note_on_c, 10, 81, 0
13, 418260, Note_on_c, 10, 69, 84
13, 418311, Note_on_c, 10, 69, 0
13, 418320, Note_on_c, 10, 69, 84
13, 418424, Note_on_c, 10, 69, 0
13, 418440, Note_on_c, 10, 69, 84
13, 418559, Note_on_c, 10, 69, 0
13, 418620, Note_on_c, 10, 57, 84
13, 418671, Note_on_c, 10, 57, 0
13, 418680, Note_on_c, 10, 57, 84
13, 418784, Note_on_c, 10, 57, 0
13, 418800, Note_on_c, 10, 57, 84
13, 419039, Note_on_c, 10, 57, 0
13, 419520, Note_on_c, 10, 88, 84
13, 419520, Note_on_c, 10, 76, 84
13, 419759, Note_on_c, 10, 88, 0
13, 419759, Note_on_c, 10, 76, 0
13, 420240, Note_on_c, 10, 85, 84
13, 420240, Note_on_c, 10, 76, 84
13, 420240, Note_on_c, 10, 69, 84
13, 420479, Note_on_c, 10, 85, 0
13, 420479, Note_on_c, 10, 76, 0
13, 420479, Note_on_c, 10, 69, 0
13, 420479, End_track
14, 0, Start_track
14, 0, Title_t, "Violin II"
14, 0, MIDI_port, 0
14, 0, Program_c, 11, 48
14, 0, Control_c, 11, 7, 96
14, 0, Control_c, 11, 10, 24
14, 0, Control_c, 11, 11, 127
14, 0, Note_on_c, 11, 81, 76
14, 0, Note_on_c, 11, 73, 76
14, 0, Note_on_c, 11, 64, 76
14, 0, Note_on_c, 11, 57, 76
14, 179, Note_on_c, 11, 81, 0
14, 179, Note_on_c, 11, 73, 0
14, 179, Note_on_c, 11, 64, 0
14, 179, Note_on_c, 11, 57, 0
14, 960, Note_on_c, 11, 61, 52
14, 1909, Note_on_c, 11, 61, 0
14, 1920, Note_on_c, 11, 64, 76
14, 1920, Note_on_c, 11, 76, 76
14, 1920, Note_on_c, 11, 71, 76
14, 2099, Note_on_c, 11, 64, 0
14, 2099, Note_on_c, 11, 76, 0
14, 2099, Note_on_c, 11, 71, 0
14, 2880, Note_on_c, 11, 59, 52
14, 3829, Note_on_c, 11, 59, 0
14, 3840, Note_on_c, 11, 81, 76
14, 3840, Note_on_c, 11, 57, 76
14, 3840, Note_on_c, 11, 64, 76
14, 3840, Note_on_c, 11, 73, 76
14, 4019, Note_on_c, 11, 81, 0
14, 4019, Note_on_c, 11, 57, 0
14, 4019, Note_on_c, 11, 64, 0
14, 4019, Note_on_c, 11, 73, 0
14, 4800, Note_on_c, 11, 64, 52
14, 4800, Note_on_c, 11, 57, 52
14, 5749, Note_on_c, 11, 64, 0
14, 5749, Note_on_c, 11, 57, 0
14, 5760, Note_on_c, 11, 62, 76
14, 5760, Note_on_c, 11, 81, 76
14, 5760, Note_on_c, 11, 69, 76
14, 5939, Note_on_c, 11, 62, 0
14, 5939, Note_on_c, 11, 81, 0
14, 5939, Note_on_c, 11, 69, 0
14, 6240, Note_on_c, 11, 62, 52
14, 6479, Note_on_c, 11, 62, 0
14, 6720, Note_on_c, 11, 62, 52
14, 6959, Note_on_c, 11, 62, 0
14, 7200, Note_on_c, 11, 60, 52
14, 7439, Note_on_c, 11, 60, 0
14, 7680, Control_c, 11, 11, 127
14, 7680, Note_on_c, 11, 60, 52
14, 7744, Control_c, 11, 11, 126
14, 7808, Control_c, 11, 11, 125
14, 7872, Control_c, 11, 11, 124
14, 7919, Note_on_c, 11, 60, 0
14, 7936, Control_c, 11, 11, 123
14, 8000, Control_c, 11, 11, 122
14, 8064, Control_c, 11, 11, 121
14, 8128, Control_c, 11, 11, 120
14, 8192, Control_c, 11, 11, 119
14, 8256, Control_c, 11, 11, 118
14, 8320, Control_c, 11, 11, 117
14, 8384, Control_c, 11, 11, 116
14, 8400, Note_on_c, 11, 57, 52
14, 8448, Control_c, 11, 11, 115
14, 8453, Note_on_c, 11, 57, 0
14, 8460, Note_on_c, 11, 57, 52
14, 8512, Control_c, 11, 11, 114
14, 8513, Note_on_c, 11, 57, 0
14, 8520, Note_on_c, 11, 57, 52
14, 8573, Note_on_c, 11, 57, 0
14, 8576, Control_c, 11, 11, 112
14, 8580, Note_on_c, 11, 57, 52
14, 8633, Note_on_c, 11, 57, 0
14, 8640, Note_on_c, 11, 64, 52
14, 8684, Note_on_c, 11, 64, 0
14, 8700, Note_on_c, 11, 56, 52
14, 8744, Note_on_c, 11, 56, 0
14, 8760, Note_on_c, 11, 57, 52
14, 8804, Note_on_c, 11, 57, 0
14, 8820, Note_on_c, 11, 59, 52
14, 8864, Note_on_c, 11, 59, 0
14, 8880, Note_on_c, 11, 61, 52
14, 8924, Note_on_c, 11, 61, 0
14, 8940, Note_on_c, 11, 62, 52
14, 8984, Note_on_c, 11, 62, 0
14, 9000, Note_on_c, 11, 64, 52
14, 9044, Note_on_c, 11, 64, 0
14, 9060, Note_on_c, 11, 66, 52
14, 9104, Note_on_c, 11, 66, 0
14, 9120, Note_on_c, 11, 68, 52
14, 9164, Note_on_c, 11, 68, 0
14, 9180, Note_on_c, 11, 68, 52
14, 9224, Note_on_c, 11, 68, 0
14, 9240, Note_on_c, 11, 69, 52
14, 9284, Note_on_c, 11, 69, 0
14, 9300, Note_on_c, 11, 71, 52
14, 9344, Note_on_c, 11, 71, 0
14, 9360, Note_on_c, 11, 73, 52
14, 9404, Note_on_c, 11, 73, 0
14, 9420, Note_on_c, 11, 74, 52
14, 9464, Note_on_c, 11, 74, 0
14, 9480, Note_on_c, 11, 76, 52
14, 9524, Note_on_c, 11, 76, 0
14, 9540, Note_on_c, 11, 74, 52
14, 9584, Note_on_c, 11, 74, 0
14, 9600, Note_on_c, 11, 73, 52
14, 9839, Note_on_c, 11, 73, 0
14, 10320, Control_c, 11, 11, 127
14, 10560, Note_on_c, 11, 57, 44
14, 10604, Note_on_c, 11, 57, 0
14, 10620, Note_on_c, 11, 57, 44
14, 10664, Note_on_c, 11, 57, 0
14, 10680, Note_on_c, 11, 59, 44
14, 10724, Note_on_c, 11, 59, 0
14, 10740, Note_on_c, 11, 61, 44
14, 10784, Note_on_c, 11, 61, 0
14, 10800, Note_on_c, 11, 62, 44
14, 10844, Note_on_c, 11, 62, 0
14, 10860, Note_on_c, 11, 64, 44
14, 10904, Note_on_c, 11, 64, 0
14, 10920, Note_on_c, 11, 66, 44
14, 10964, Note_on_c, 11, 66, 0
14, 10980, Note_on_c, 11, 68, 44
14, 11024, Note_on_c, 11, 68, 0
14, 11040, Note_on_c, 11, 69, 44
14, 11084, Note_on_c, 11, 69, 0
14, 11100, Note_on_c, 11, 69, 44
14, 11144, Note_on_c, 11, 69, 0
14, 11160, Note_on_c, 11, 71, 44
14, 11204, Note_on_c, 11, 71, 0
14, 11220, Note_on_c, 11, 73, 44
14, 11264, Note_on_c, 11, 73, 0
14, 11280, Note_on_c, 11, 74, 44
14, 11324, Note_on_c, 11, 74, 0
14, 11340, Note_on_c, 11, 76, 44
14, 11384, Note_on_c, 11, 76, 0
14, 11400, Note_on_c, 11, 76, 44
14, 11444, Note_on_c, 11, 76, 0
14, 11460, Note_on_c, 11, 76, 44
14, 11504, Note_on_c, 11, 76, 0
14, 11520, Note_on_c, 11, 76, 44
14, 11759, Note_on_c, 11, 76, 0
14, 12480, Note_on_c, 11, 59, 44
14, 12524, Note_on_c, 11, 59, 0
14, 12540, Note_on_c, 11, 59, 46
14, 12584, Note_on_c, 11, 59, 0
14, 12600, Note_on_c, 11, 61, 49
14, 12644, Note_on_c, 11, 61, 0
14, 12660, Note_on_c, 11, 62, 51
14, 12704, Note_on_c, 11, 62, 0
14, 12720, Note_on_c, 11, 64, 54
14, 12764, Note_on_c, 11, 64, 0
14, 12780, Note_on_c, 11, 66, 56
14, 12824, Note_on_c, 11, 66, 0
14, 12840, Note_on_c, 11, 68, 59
14, 12884, Note_on_c, 11, 68, 0
14, 12900, Note_on_c, 11, 69, 61
14, 12944, Note_on_c, 11, 69, 0
14, 12960, Note_on_c, 11, 71, 64
14, 13004, Note_on_c, 11, 71, 0
14, 13020, Note_on_c, 11, 73, 66
14, 13064, Note_on_c, 11, 73, 0
14, 13080, Note_on_c, 11, 74, 69
14, 13124, Note_on_c, 11, 74, 0
14, 13140, Note_on_c, 11, 76, 71
14, 13184, Note_on_c, 11, 76, 0
14, 13200, Note_on_c, 11, 78, 74
14, 13244, Note_on_c, 11, 78, 0
14, 13260, Note_on_c, 11, 80, 76
14, 13304, Note_on_c, 11, 80, 0
14, 13320, Note_on_c, 11, 81, 79
14, 13364, Note_on_c, 11, 81, 0
14, 13380, Note_on_c, 11, 83, 81
14, 13424, Note_on_c, 11, 83, 0
14, 13440, Note_on_c, 11, 81, 84
14, 13440, Note_on_c, 11, 57, 84
14, 13440, Note_on_c, 11, 64, 84
14, 13440, Note_on_c, 11, 73, 84
14, 13679, Note_on_c, 11, 57, 0
14, 13679, Note_on_c, 11, 64, 0
14, 13679, Note_on_c, 11, 73, 0
14, 13909, Note_on_c, 11, 81, 0
14, 13920, Note_on_c, 11, 76, 92
14, 13979, Note_on_c, 11, 76, 0
14, 13980, Note_on_c, 11, 76, 84
14, 14389, Note_on_c, 11, 76, 0
14, 14400, Note_on_c, 11, 73, 92
14, 14459, Note_on_c, 11, 73, 0
14, 14460, Note_on_c, 11, 73, 84
14, 14869, Note_on_c, 11, 73, 0
14, 14880, Note_on_c, 11, 78, 92
14, 14939, Note_on_c, 11, 78, 0
14, 14940, Note_on_c, 11, 78, 84
14, 15349, Note_on_c, 11, 78, 0
14, 15360, Note_on_c, 11, 64, 84
14, 15360, Note_on_c, 11, 76, 84
14, 15360, Note_on_c, 11, 71, 84
14, 15599, Note_on_c, 11, 64, 0
14, 15599, Note_on_c, 11, 76, 0
14, 15599, Note_on_c, 11, 71, 0
14, 16320, Note_on_c, 11, 64, 84
14, 16373, Note_on_c, 11, 64, 0
14, 16380, Note_on_c, 11, 61, 84
14, 16433, Note_on_c, 11, 61, 0
14, 16440, Note_on_c, 11, 62, 84
14, 16493, Note_on_c, 11, 62, 0
14, 16500, Note_on_c, 11, 64, 84
14, 16553, Note_on_c, 11, 64, 0
14, 16560, Note_on_c, 11, 66, 84
14, 16613, Note_on_c, 11, 66, 0
14, 16620, Note_on_c, 11, 67, 84
14, 16673, Note_on_c, 11, 67, 0
14, 16680, Note_on_c, 11, 69, 84
14, 16733, Note_on_c, 11, 69, 0
14, 16740, Note_on_c, 11, 71, 84
14, 16793, Note_on_c, 11, 71, 0
14, 16800, Note_on_c, 11, 73, 84
14, 16853, Note_on_c, 11, 73, 0
14, 16860, Note_on_c, 11, 74, 84
14, 16913, Note_on_c, 11, 74, 0
14, 16920, Note_on_c, 11, 76, 84
14, 16973, Note_on_c, 11, 76, 0
14, 16980, Note_on_c, 11, 78, 84
14, 17033, Note_on_c, 11, 78, 0
14, 17040, Note_on_c, 11, 79, 84
14, 17093, Note_on_c, 11, 79, 0
14, 17100, Note_on_c, 11, 80, 84
14, 17153, Note_on_c, 11, 80, 0
14, 17160, Note_on_c, 11, 81, 84
14, 17213, Note_on_c, 11, 81, 0
14, 17220, Note_on_c, 11, 81, 84
14, 17273, Note_on_c, 11, 81, 0
14, 17280, Note_on_c, 11, 69, 84
14, 17280, Note_on_c, 11, 62, 84
14, 17280, Note_on_c, 11, 81, 84
14, 17280, Note_on_c, 11, 57, 84
14, 17519, Note_on_c, 11, 69, 0
14, 17519, Note_on_c, 11, 62, 0
14, 17519, Note_on_c, 11, 57, 0
14, 17749, Note_on_c, 11, 81, 0
14, 17760, Note_on_c, 11, 74, 92
14, 17819, Note_on_c, 11, 74, 0
14, 17820, Note_on_c, 11, 74, 84
14, 18229, Note_on_c, 11, 74, 0
14, 18240, Note_on_c, 11, 69, 92
14, 18299, Note_on_c, 11, 69, 0
14, 18300, Note_on_c, 11, 69, 84
14, 18709, Note_on_c, 11, 69, 0
14, 18720, Note_on_c, 11, 81, 92
14, 18779, Note_on_c, 11, 81, 0
14, 18780, Note_on_c, 11, 81, 84
14, 19189, Note_on_c, 11, 81, 0
14, 19200, Note_on_c, 11, 62, 84
14, 19200, Note_on_c, 11, 79, 84
14, 19200, Note_on_c, 11, 71, 84
14, 19200, Note_on_c, 11, 55, 84
14, 19439, Note_on_c, 11, 62, 0
14, 19439, Note_on_c, 11, 79, 0
14, 19439, Note_on_c, 11, 71, 0
14, 19439, Note_on_c, 11, 55, 0
14, 20160, Note_on_c, 11, 67, 84
14, 20213, Note_on_c, 11, 67, 0
14, 20220, Note_on_c, 11, 60, 82
14, 20273, Note_on_c, 11, 60, 0
14, 20280, Note_on_c, 11, 62, 80
14, 20333, Note_on_c, 11, 62, 0
14, 20340, Note_on_c, 11, 64, 78
14, 20393, Note_on_c, 11, 64, 0
14, 20400, Note_on_c, 11, 65, 76
14, 20453, Note_on_c, 11, 65, 0
14, 20460, Note_on_c, 11, 67, 74
14, 20513, Note_on_c, 11, 67, 0
14, 20520, Note_on_c, 11, 69, 72
14, 20573, Note_on_c, 11, 69, 0
14, 20580, Note_on_c, 11, 71, 70
14, 20633, Note_on_c, 11, 71, 0
14, 20640, Note_on_c, 11, 72, 68
14, 20693, Note_on_c, 11, 72, 0
14, 20700, Note_on_c, 11, 74, 66
14, 20753, Note_on_c, 11, 74, 0
14, 20760, Note_on_c, 11, 76, 64
14, 20813, Note_on_c, 11, 76, 0
14, 20820, Note_on_c, 11, 77, 62
14, 20873, Note_on_c, 11, 77, 0
14, 20880, Note_on_c, 11, 79, 60
14, 20933, Note_on_c, 11, 79, 0
14, 20940, Note_on_c, 11, 76, 58
14, 20993, Note_on_c, 11, 76, 0
14, 21000, Note_on_c, 11, 74, 56
14, 21053, Note_on_c, 11, 74, 0
14, 21060, Note_on_c, 11, 72, 54
14, 21113, Note_on_c, 11, 72, 0
14, 21120, Note_on_c, 11, 71, 52
14, 21359, Note_on_c, 11, 71, 0
14, 23040, Note_on_c, 11, 67, 52
14, 24239, Note_on_c, 11, 67, 0
14, 24720, Note_on_c, 11, 67, 52
14, 24739, Note_on_c, 11, 67, 0
14, 24740, Note_on_c, 11, 69, 52
14, 24759, Note_on_c, 11, 69, 0
14, 24760, Note_on_c, 11, 67, 52
14, 24779, Note_on_c, 11, 67, 0
14, 24780, Note_on_c, 11, 69, 52
14, 24799, Note_on_c, 11, 69, 0
14, 24800, Note_on_c, 11, 67, 52
14, 24819, Note_on_c, 11, 67, 0
14, 24820, Note_on_c, 11, 69, 52
14, 24839, Note_on_c, 11, 69, 0
14, 24840, Note_on_c, 11, 67, 52
14, 24859, Note_on_c, 11, 67, 0
14, 24860, Note_on_c, 11, 69, 52
14, 24879, Note_on_c, 11, 69, 0
14, 24880, Note_on_c, 11, 67, 52
14, 24899, Note_on_c, 11, 67, 0
14, 24900, Note_on_c, 11, 69, 52
14, 24919, Note_on_c, 11, 69, 0
14, 24920, Note_on_c, 11, 65, 52
14, 24939, Note_on_c, 11, 65, 0
14, 24940, Note_on_c, 11, 67, 52
14, 24959, Note_on_c, 11, 67, 0
14, 24960, Note_on_c, 11, 69, 52
14, 25199, Note_on_c, 11, 69, 0
14, 25680, Note_on_c, 11, 69, 52
14, 25699, Note_on_c, 11, 69, 0
14, 25700, Note_on_c, 11, 71, 52
14, 25719, Note_on_c, 11, 71, 0
14, 25720, Note_on_c, 11, 69, 52
14, 25739, Note_on_c, 11, 69, 0
14, 25740, Note_on_c, 11, 71, 52
14, 25759, Note_on_c, 11, 71, 0
14, 25760, Note_on_c, 11, 68, 52
14, 25779, Note_on_c, 11, 68, 0
14, 25780, Note_on_c, 11, 69, 52
14, 25799, Note_on_c, 11, 69, 0
14, 25800, Note_on_c, 11, 71, 52
14, 25859, Note_on_c, 11, 71, 0
14, 25860, Note_on_c, 11, 72, 52
14, 25913, Note_on_c, 11, 72, 0
14, 25920, Note_on_c, 11, 72, 52
14, 26039, Note_on_c, 11, 72, 0
14, 26040, Note_on_c, 11, 67, 52
14, 26159, Note_on_c, 11, 67, 0
14, 26640, Note_on_c, 11, 65, 52
14, 26699, Note_on_c, 11, 65, 0
14, 26700, Note_on_c, 11, 62, 52
14, 26759, Note_on_c, 11, 62, 0
14, 26760, Note_on_c, 11, 59, 52
14, 26819, Note_on_c, 11, 59, 0
14, 26820, Note_on_c, 11, 55, 52
14, 26873, Note_on_c, 11, 55, 0
14, 26880, Note_on_c, 11, 55, 44
14, 27119, Note_on_c, 11, 55, 0
14, 27120, Note_on_c, 11, 62, 44
14, 27599, Note_on_c, 11, 62, 0
14, 27600, Note_on_c, 11, 55, 44
14, 27829, Note_on_c, 11, 55, 0
14, 27840, Note_on_c, 11, 55, 44
14, 28079, Note_on_c, 11, 55, 0
14, 28080, Note_on_c, 11, 60, 44
14, 28199, Note_on_c, 11, 60, 0
14, 28260, Note_on_c, 11, 60, 44
14, 28313, Note_on_c, 11, 60, 0
14, 28320, Note_on_c, 11, 60, 44
14, 28559, Note_on_c, 11, 60, 0
14, 28560, Note_on_c, 11, 64, 44
14, 28679, Note_on_c, 11, 64, 0
14, 28740, Note_on_c, 11, 55, 44
14, 28793, Note_on_c, 11, 55, 0
14, 28800, Note_on_c, 11, 55, 44
14, 29039, Note_on_c, 11, 55, 0
14, 29040, Note_on_c, 11, 62, 44
14, 29519, Note_on_c, 11, 62, 0
14, 29520, Note_on_c, 11, 55, 44
14, 29749, Note_on_c, 11, 55, 0
14, 29758, Control_c, 11, 11, 48
14, 29760, Note_on_c, 11, 55, 84
14, 29999, Note_on_c, 11, 55, 0
14, 30000, Note_on_c, 11, 60, 84
14, 30119, Note_on_c, 11, 60, 0
14, 30180, Note_on_c, 11, 60, 84
14, 30233, Note_on_c, 11, 60, 0
14, 30240, Note_on_c, 11, 67, 84
14, 30240, Control_c, 11, 11, 48
14, 30280, Control_c, 11, 11, 50
14, 30320, Control_c, 11, 11, 52
14, 30360, Control_c, 11, 11, 55
14, 30400, Control_c, 11, 11, 57
14, 30440, Control_c, 11, 11, 59
14, 30479, Note_on_c, 11, 67, 0
14, 30480, Control_c, 11, 11, 61
14, 30480, Note_on_c, 11, 60, 84
14, 30520, Control_c, 11, 11, 63
14, 30560, Control_c, 11, 11, 66
14, 30599, Note_on_c, 11, 60, 0
14, 30600, Control_c, 11, 11, 68
14, 30640, Control_c, 11, 11, 70
14, 30660, Note_on_c, 11, 60, 84
14, 30680, Control_c, 11, 11, 72
14, 30713, Note_on_c, 11, 60, 0
14, 30720, Control_c, 11, 11, 74
14, 30720, Note_on_c, 11, 69, 84
14, 30760, Control_c, 11, 11, 77
14, 30800, Control_c, 11, 11, 79
14, 30840, Control_c, 11, 11, 81
14, 30880, Control_c, 11, 11, 83
14, 30920, Control_c, 11, 11, 85
14, 30959, Note_on_c, 11, 69, 0
14, 30960, Note_on_c, 11, 60, 84
14, 30960, Control_c, 11, 11, 88
14, 31000, Control_c, 11, 11, 90
14, 31040, Control_c, 11, 11, 92
14, 31079, Note_on_c, 11, 60, 0
14, 31080, Control_c, 11, 11, 94
14, 31120, Control_c, 11, 11, 96
14, 31140, Note_on_c, 11, 60, 84
14, 31160, Control_c, 11, 11, 98
14, 31193, Note_on_c, 11, 60, 0
14, 31200, Control_c, 11, 11, 101
14, 31200, Note_on_c, 11, 69, 84
14, 31240, Control_c, 11, 11, 103
14, 31280, Control_c, 11, 11, 105
14, 31320, Control_c, 11, 11, 107
14, 31360, Control_c, 11, 11, 109
14, 31400, Control_c, 11, 11, 112
14, 31439, Note_on_c, 11, 69, 0
14, 31440, Note_on_c, 11, 62, 84
14, 31440, Control_c, 11, 11, 114
14, 31480, Control_c, 11, 11, 116
14, 31520, Control_c, 11, 11, 118
14, 31559, Note_on_c, 11, 62, 0
14, 31560, Control_c, 11, 11, 120
14, 31600, Control_c, 11, 11, 123
14, 31620, Note_on_c, 11, 59, 84
14, 31640, Control_c, 11, 11, 125
14, 31673, Note_on_c, 11, 59, 0
14, 31678, Control_c, 11, 11, 127
14, 31680, Note_on_c, 11, 64, 84
14, 31680, Note_on_c, 11, 59, 84
14, 32149, Note_on_c, 11, 64, 0
14, 32149, Note_on_c, 11, 59, 0
14, 32160, Note_on_c, 11, 59, 92
14, 32219, Note_on_c, 11, 59, 0
14, 32220, Note_on_c, 11, 59, 84
14, 32629, Note_on_c, 11, 59, 0
14, 32640, Note_on_c, 11, 56, 84
14, 32693, Note_on_c, 11, 56, 0
14, 32700, Note_on_c, 11, 64, 84
14, 32753, Note_on_c, 11, 64, 0
14, 32760, Note_on_c, 11, 66, 84
14, 32813, Note_on_c, 11, 66, 0
14, 32820, Note_on_c, 11, 68, 84
14, 32873, Note_on_c, 11, 68, 0
14, 32880, Note_on_c, 11, 69, 84
14, 32933, Note_on_c, 11, 69, 0
14, 32940, Note_on_c, 11, 71, 84
14, 32993, Note_on_c, 11, 71, 0
14, 33000, Note_on_c, 11, 73, 84
14, 33053, Note_on_c, 11, 73, 0
14, 33060, Note_on_c, 11, 74, 84
14, 33113, Note_on_c, 11, 74, 0
14, 33120, Note_on_c, 11, 76, 84
14, 33173, Note_on_c, 11, 76, 0
14, 33180, Note_on_c, 11, 78, 84
14, 33233, Note_on_c, 11, 78, 0
14, 33240, Note_on_c, 11, 80, 84
14, 33293, Note_on_c, 11, 80, 0
14, 33300, Note_on_c, 11, 81, 84
14, 33353, Note_on_c, 11, 81, 0
14, 33360, Note_on_c, 11, 83, 84
14, 33413, Note_on_c, 11, 83, 0
14, 33420, Note_on_c, 11, 85, 84
14, 33473, Note_on_c, 11, 85, 0
14, 33480, Note_on_c, 11, 86, 84
14, 33533, Note_on_c, 11, 86, 0
14, 33540, Note_on_c, 11, 88, 84
14, 33593, Note_on_c, 11, 88, 0
14, 33600, Note_on_c, 11, 66, 84
14, 34069, Note_on_c, 11, 66, 0
14, 34080, Note_on_c, 11, 61, 92
14, 34139, Note_on_c, 11, 61, 0
14, 34140, Note_on_c, 11, 61, 84
14, 34549, Note_on_c, 11, 61, 0
14, 34560, Note_on_c, 11, 58, 84
14, 34613, Note_on_c, 11, 58, 0
14, 34620, Note_on_c, 11, 64, 84
14, 34673, Note_on_c, 11, 64, 0
14, 34680, Note_on_c, 11, 66, 84
14, 34733, Note_on_c, 11, 66, 0
14, 34740, Note_on_c, 11, 68, 84
14, 34793, Note_on_c, 11, 68, 0
14, 34800, Note_on_c, 11, 70, 84
14, 34853, Note_on_c, 11, 70, 0
14, 34860, Note_on_c, 11, 71, 84
14, 34913, Note_on_c, 11, 71, 0
14, 34920, Note_on_c, 11, 73, 84
14, 34973, Note_on_c, 11, 73, 0
14, 34980, Note_on_c, 11, 74, 84
14, 35033, Note_on_c, 11, 74, 0
14, 35040, Note_on_c, 11, 76, 84
14, 35093, Note_on_c, 11, 76, 0
14, 35100, Note_on_c, 11, 78, 84
14, 35153, Note_on_c, 11, 78, 0
14, 35160, Note_on_c, 11, 80, 84
14, 35213, Note_on_c, 11, 80, 0
14, 35220, Note_on_c, 11, 82, 84
14, 35273, Note_on_c, 11, 82, 0
14, 35280, Note_on_c, 11, 83, 84
14, 35333, Note_on_c, 11, 83, 0
14, 35340, Note_on_c, 11, 85, 84
14, 35393, Note_on_c, 11, 85, 0
14, 35400, Note_on_c, 11, 86, 84
14, 35453, Note_on_c, 11, 86, 0
14, 35460, Note_on_c, 11, 88, 84
14, 35513, Note_on_c, 11, 88, 0
14, 35520, Note_on_c, 11, 55, 84
14, 35520, Note_on_c, 11, 67, 84
14, 35989, Note_on_c, 11, 55, 0
14, 35989, Note_on_c, 11, 67, 0
14, 36000, Note_on_c, 11, 64, 92
14, 36059, Note_on_c, 11, 64, 0
14, 36060, Note_on_c, 11, 64, 84
14, 36469, Note_on_c, 11, 64, 0
14, 36480, Note_on_c, 11, 55, 84
14, 36533, Note_on_c, 11, 55, 0
14, 36540, Note_on_c, 11, 64, 84
14, 36593, Note_on_c, 11, 64, 0
14, 36600, Note_on_c, 11, 66, 84
14, 36653, Note_on_c, 11, 66, 0
14, 36660, Note_on_c, 11, 67, 84
14, 36713, Note_on_c, 11, 67, 0
14, 36720, Note_on_c, 11, 69, 84
14, 36773, Note_on_c, 11, 69, 0
14, 36780, Note_on_c, 11, 71, 84
14, 36833, Note_on_c, 11, 71, 0
14, 36840, Note_on_c, 11, 73, 84
14, 36893, Note_on_c, 11, 73, 0
14, 36900, Note_on_c, 11, 75, 84
14, 36953, Note_on_c, 11, 75, 0
14, 36960, Note_on_c, 11, 76, 84
14, 37013, Note_on_c, 11, 76, 0
14, 37020, Note_on_c, 11, 78, 84
14, 37073, Note_on_c, 11, 78, 0
14, 37080, Note_on_c, 11, 79, 84
14, 37133, Note_on_c, 11, 79, 0
14, 37140, Note_on_c, 11, 81, 84
14, 37193, Note_on_c, 11, 81, 0
14, 37200, Note_on_c, 11, 83, 84
14, 37253, Note_on_c, 11, 83, 0
14, 37260, Note_on_c, 11, 85, 84
14, 37313, Note_on_c, 11, 85, 0
14, 37320, Note_on_c, 11, 87, 84
14, 37373, Note_on_c, 11, 87, 0
14, 37380, Note_on_c, 11, 88, 84
14, 37433, Note_on_c, 11, 88, 0
14, 37440, Note_on_c, 11, 67, 84
14, 37440, Note_on_c, 11, 55, 84
14, 37909, Note_on_c, 11, 67, 0
14, 37909, Note_on_c, 11, 55, 0
14, 37920, Note_on_c, 11, 64, 92
14, 37979, Note_on_c, 11, 64, 0
14, 37980, Note_on_c, 11, 64, 84
14, 38389, Note_on_c, 11, 64, 0
14, 38400, Note_on_c, 11, 60, 84
14, 38453, Note_on_c, 11, 60, 0
14, 38460, Note_on_c, 11, 60, 82
14, 38513, Note_on_c, 11, 60, 0
14, 38520, Note_on_c, 11, 62, 80
14, 38573, Note_on_c, 11, 62, 0
14, 38580, Note_on_c, 11, 64, 78
14, 38633, Note_on_c, 11, 64, 0
14, 38640, Note_on_c, 11, 65, 76
14, 38693, Note_on_c, 11, 65, 0
14, 38700, Note_on_c, 11, 67, 74
14, 38753, Note_on_c, 11, 67, 0
14, 38760, Note_on_c, 11, 69, 72
14, 38813, Note_on_c, 11, 69, 0
14, 38820, Note_on_c, 11, 71, 70
14, 38873, Note_on_c, 11, 71, 0
14, 38880, Note_on_c, 11, 72, 68
14, 38933, Note_on_c, 11, 72, 0
14, 38940, Note_on_c, 11, 74, 66
14, 38993, Note_on_c, 11, 74, 0
14, 39000, Note_on_c, 11, 76, 64
14, 39053, Note_on_c, 11, 76, 0
14, 39060, Note_on_c, 11, 77, 62
14, 39113, Note_on_c, 11, 77, 0
14, 39120, Note_on_c, 11, 79, 60
14, 39173, Note_on_c, 11, 79, 0
14, 39180, Note_on_c, 11, 64, 58
14, 39233, Note_on_c, 11, 64, 0
14, 39240, Note_on_c, 11, 64, 56
14, 39293, Note_on_c, 11, 64, 0
14, 39300, Note_on_c, 11, 64, 54
14, 39353, Note_on_c, 11, 64, 0
14, 39360, Note_on_c, 11, 67, 52
14, 39599, Note_on_c, 11, 67, 0
14, 41280, Note_on_c, 11, 72, 52
14, 42479, Note_on_c, 11, 72, 0
14, 42960, Note_on_c, 11, 72, 52
14, 42979, Note_on_c, 11, 72, 0
14, 42980, Note_on_c, 11, 74, 52
14, 42999, Note_on_c, 11, 74, 0
14, 43000, Note_on_c, 11, 72, 52
14, 43019, Note_on_c, 11, 72, 0
14, 43020, Note_on_c, 11, 74, 52
14, 43039, Note_on_c, 11, 74, 0
14, 43040, Note_on_c, 11, 72, 52
14, 43059, Note_on_c, 11, 72, 0
14, 43060, Note_on_c, 11, 74, 52
14, 43079, Note_on_c, 11, 74, 0
14, 43080, Note_on_c, 11, 72, 52
14, 43099, Note_on_c, 11, 72, 0
14, 43100, Note_on_c, 11, 74, 52
14, 43119, Note_on_c, 11, 74, 0
14, 43120, Note_on_c, 11, 72, 52
14, 43139, Note_on_c, 11, 72, 0
14, 43140, Note_on_c, 11, 74, 52
14, 43159, Note_on_c, 11, 74, 0
14, 43160, Note_on_c, 11, 70, 52
14, 43179, Note_on_c, 11, 70, 0
14, 43180, Note_on_c, 11, 72, 52
14, 43199, Note_on_c, 11, 72, 0
14, 43200, Note_on_c, 11, 74, 52
14, 43439, Note_on_c, 11, 74, 0
14, 43920, Note_on_c, 11, 62, 52
14, 43939, Note_on_c, 11, 62, 0
14, 43940, Note_on_c, 11, 64, 52
14, 43959, Note_on_c, 11, 64, 0
14, 43960, Note_on_c, 11, 62, 52
14, 43979, Note_on_c, 11, 62, 0
14, 43980, Note_on_c, 11, 64, 52
14, 43999, Note_on_c, 11, 64, 0
14, 44000, Note_on_c, 11, 60, 52
14, 44019, Note_on_c, 11, 60, 0
14, 44020, Note_on_c, 11, 62, 52
14, 44039, Note_on_c, 11, 62, 0
14, 44040, Note_on_c, 11, 64, 52
14, 44099, Note_on_c, 11, 64, 0
14, 44100, Note_on_c, 11, 65, 52
14, 44153, Note_on_c, 11, 65, 0
14, 44160, Note_on_c, 11, 65, 52
14, 44279, Note_on_c, 11, 65, 0
14, 44280, Note_on_c, 11, 60, 52
14, 44399, Note_on_c, 11, 60, 0
14, 44880, Note_on_c, 11, 70, 52
14, 44939, Note_on_c, 11, 70, 0
14, 44940, Note_on_c, 11, 67, 52
14, 44999, Note_on_c, 11, 67, 0
14, 45000, Note_on_c, 11, 64, 52
14, 45059, Note_on_c, 11, 64, 0
14, 45060, Note_on_c, 11, 60, 52
14, 45113, Note_on_c, 11, 60, 0
14, 45120, Note_on_c, 11, 60, 52
14, 45359, Note_on_c, 11, 60, 0
14, 45360, Note_on_c, 11, 67, 52
14, 45839, Note_on_c, 11, 67, 0
14, 45840, Note_on_c, 11, 60, 52
14, 46069, Note_on_c, 11, 60, 0
14, 46078, Control_c, 11, 11, 48
14, 46080, Note_on_c, 11, 60, 84
14, 46129, Control_c, 11, 11, 49
14, 46177, Control_c, 11, 11, 50
14, 46226, Control_c, 11, 11, 51
14, 46274, Control_c, 11, 11, 52
14, 46319, Note_on_c, 11, 60, 0
14, 46320, Note_on_c, 11, 69, 84
14, 46323, Control_c, 11, 11, 53
14, 46372, Control_c, 11, 11, 54
14, 46420, Control_c, 11, 11, 55
14, 46439, Note_on_c, 11, 69, 0
14, 46469, Control_c, 11, 11, 56
14, 46500, Note_on_c, 11, 69, 84
14, 46517, Control_c, 11, 11, 57
14, 46553, Note_on_c, 11, 69, 0
14, 46560, Note_on_c, 11, 69, 84
14, 46566, Control_c, 11, 11, 58
14, 46615, Control_c, 11, 11, 59
14, 46663, Control_c, 11, 11, 60
14, 46712, Control_c, 11, 11, 61
14, 46761, Control_c, 11, 11, 62
14, 46809, Control_c, 11, 11, 63
14, 46858, Control_c, 11, 11, 64
14, 46906, Control_c, 11, 11, 65
14, 46919, Note_on_c, 11, 69, 0
14, 46955, Control_c, 11, 11, 66
14, 46980, Note_on_c, 11, 69, 84
14, 47004, Control_c, 11, 11, 67
14, 47033, Note_on_c, 11, 69, 0
14, 47040, Note_on_c, 11, 60, 84
14, 47052, Control_c, 11, 11, 68
14, 47101, Control_c, 11, 11, 69
14, 47149, Control_c, 11, 11, 70
14, 47198, Control_c, 11, 11, 71
14, 47247, Control_c, 11, 11, 72
14, 47279, Note_on_c, 11, 60, 0
14, 47280, Note_on_c, 11, 69, 84
14, 47295, Control_c, 11, 11, 73
14, 47344, Control_c, 11, 11, 74
14, 47392, Control_c, 11, 11, 75
14, 47399, Note_on_c, 11, 69, 0
14, 47441, Control_c, 11, 11, 76
14, 47460, Note_on_c, 11, 69, 84
14, 47490, Control_c, 11, 11, 77
14, 47513, Note_on_c, 11, 69, 0
14, 47520, Note_on_c, 11, 69, 84
14, 47538, Control_c, 11, 11, 78
14, 47587, Control_c, 11, 11, 79
14, 47635, Control_c, 11, 11, 80
14, 47684, Control_c, 11, 11, 81
14, 47733, Control_c, 11, 11, 82
14, 47781, Control_c, 11, 11, 83
14, 47830, Control_c, 11, 11, 84
14, 47878, Control_c, 11, 11, 85
14, 47879, Note_on_c, 11, 69, 0
14, 47927, Control_c, 11, 11, 86
14, 47940, Note_on_c, 11, 69, 84
14, 47976, Control_c, 11, 11, 87
14, 47993, Note_on_c, 11, 69, 0
14, 48000, Note_on_c, 11, 65, 84
14, 48024, Control_c, 11, 11, 88
14, 48073, Control_c, 11, 11, 89
14, 48122, Control_c, 11, 11, 90
14, 48170, Control_c, 11, 11, 91
14, 48219, Control_c, 11, 11, 92
14, 48239, Note_on_c, 11, 65, 0
14, 48240, Note_on_c, 11, 69, 84
14, 48267, Control_c, 11, 11, 93
14, 48316, Control_c, 11, 11, 94
14, 48359, Note_on_c, 11, 69, 0
14, 48365, Control_c, 11, 11, 95
14, 48413, Control_c, 11, 11, 96
14, 48420, Note_on_c, 11, 69, 84
14, 48462, Control_c, 11, 11, 97
14, 48473, Note_on_c, 11, 69, 0
14, 48480, Note_on_c, 11, 72, 84
14, 48510, Control_c, 11, 11, 98
14, 48559, Control_c, 11, 11, 99
14, 48608, Control_c, 11, 11, 100
14, 48656, Control_c, 11, 11, 101
14, 48705, Control_c, 11, 11, 102
14, 48719, Note_on_c, 11, 72, 0
14, 48720, Note_on_c, 11, 69, 84
14, 48753, Control_c, 11, 11, 103
14, 48802, Control_c, 11, 11, 104
14, 48839, Note_on_c, 11, 69, 0
14, 48851, Control_c, 11, 11, 105
14, 48899, Control_c, 11, 11, 106
14, 48900, Note_on_c, 11, 69, 84
14, 48948, Control_c, 11, 11, 107
14, 48953, Note_on_c, 11, 69, 0
14, 48960, Note_on_c, 11, 69, 84
14, 48996, Control_c, 11, 11, 108
14, 49045, Control_c, 11, 11, 109
14, 49094, Control_c, 11, 11, 110
14, 49142, Control_c, 11, 11, 111
14, 49191, Control_c, 11, 11, 112
14, 49199, Note_on_c, 11, 69, 0
14, 49200, Note_on_c, 11, 72, 84
14, 49239, Control_c, 11, 11, 113
14, 49288, Control_c, 11, 11, 114
14, 49319, Note_on_c, 11, 72, 0
14, 49337, Control_c, 11, 11, 115
14, 49380, Note_on_c, 11, 72, 84
14, 49385, Control_c, 11, 11, 116
14, 49433, Note_on_c, 11, 72, 0
14, 49434, Control_c, 11, 11, 117
14, 49440, Note_on_c, 11, 72, 84
14, 49483, Control_c, 11, 11, 118
14, 49531, Control_c, 11, 11, 119
14, 49580, Control_c, 11, 11, 120
14, 49628, Control_c, 11, 11, 121
14, 49677, Control_c, 11, 11, 122
14, 49679, Note_on_c, 11, 72, 0
14, 49680, Note_on_c, 11, 69, 84
14, 49726, Control_c, 11, 11, 123
14, 49774, Control_c, 11, 11, 124
14, 49799, Note_on_c, 11, 69, 0
14, 49823, Control_c, 11, 11, 125
14, 49860, Note_on_c, 11, 69, 84
14, 49871, Control_c, 11, 11, 127
14, 49913, Note_on_c, 11, 69, 0
14, 49920, Note_on_c, 11, 76, 84
14, 50039, Note_on_c, 11, 76, 0
14, 50400, Note_on_c, 11, 76, 76
14, 50453, Note_on_c, 11, 76, 0
14, 50460, Note_on_c, 11, 64, 52
14, 50513, Note_on_c, 11, 64, 0
14, 50520, Note_on_c, 11, 64, 52
14, 50573, Note_on_c, 11, 64, 0
14, 50580, Note_on_c, 11, 64, 52
14, 50633, Note_on_c, 11, 64, 0
14, 50640, Note_on_c, 11, 64, 52
14, 50693, Note_on_c, 11, 64, 0
14, 50700, Note_on_c, 11, 64, 52
14, 50753, Note_on_c, 11, 64, 0
14, 50760, Note_on_c, 11, 64, 52
14, 50813, Note_on_c, 11, 64, 0
14, 50820, Note_on_c, 11, 64, 52
14, 50873, Note_on_c, 11, 64, 0
14, 50880, Note_on_c, 11, 64, 52
14, 50999, Note_on_c, 11, 64, 0
14, 52320, Note_on_c, 11, 76, 76
14, 52373, Note_on_c, 11, 76, 0
14, 52380, Note_on_c, 11, 64, 52
14, 52433, Note_on_c, 11, 64, 0
14, 52440, Note_on_c, 11, 64, 52
14, 52493, Note_on_c, 11, 64, 0
14, 52500, Note_on_c, 11, 64, 52
14, 52553, Note_on_c, 11, 64, 0
14, 52560, Note_on_c, 11, 64, 52
14, 52613, Note_on_c, 11, 64, 0
14, 52620, Note_on_c, 11, 64, 52
14, 52673, Note_on_c, 11, 64, 0
14, 52680, Note_on_c, 11, 64, 52
14, 52733, Note_on_c, 11, 64, 0
14, 52740, Note_on_c, 11, 64, 52
14, 52793, Note_on_c, 11, 64, 0
14, 52800, Note_on_c, 11, 64, 52
14, 52919, Note_on_c, 11, 64, 0
14, 54300, Note_on_c, 11, 64, 52
14, 54353, Note_on_c, 11, 64, 0
14, 54360, Note_on_c, 11, 64, 52
14, 54413, Note_on_c, 11, 64, 0
14, 54420, Note_on_c, 11, 64, 52
14, 54473, Note_on_c, 11, 64, 0
14, 54480, Note_on_c, 11, 64, 52
14, 54533, Note_on_c, 11, 64, 0
14, 54540, Note_on_c, 11, 64, 52
14, 54593, Note_on_c, 11, 64, 0
14, 54600, Note_on_c, 11, 64, 52
14, 54653, Note_on_c, 11, 64, 0
14, 54660, Note_on_c, 11, 64, 52
14, 54713, Note_on_c, 11, 64, 0
14, 54720, Note_on_c, 11, 64, 52
14, 54959, Note_on_c, 11, 64, 0
14, 55320, Note_on_c, 11, 64, 52
14, 55429, Note_on_c, 11, 64, 0
14, 55440, Note_on_c, 11, 64, 52
14, 55549, Note_on_c, 11, 64, 0
14, 55560, Note_on_c, 11, 64, 52
14, 55669, Note_on_c, 11, 64, 0
14, 55680, Note_on_c, 11, 64, 52
14, 55919, Note_on_c, 11, 64, 0
14, 56640, Note_on_c, 11, 64, 52
14, 56879, Note_on_c, 11, 64, 0
14, 58020, Note_on_c, 11, 64, 52
14, 58073, Note_on_c, 11, 64, 0
14, 58080, Note_on_c, 11, 64, 52
14, 58319, Note_on_c, 11, 64, 0
14, 58980, Note_on_c, 11, 64, 52
14, 59033, Note_on_c, 11, 64, 0
14, 59040, Note_on_c, 11, 64, 52
14, 59279, Note_on_c, 11, 64, 0
14, 62340, Note_on_c, 11, 57, 52
14, 62391, Note_on_c, 11, 57, 0
14, 62400, Note_on_c, 11, 57, 52
14, 62639, Note_on_c, 11, 57, 0
14, 63780, Note_on_c, 11, 57, 52
14, 63831, Note_on_c, 11, 57, 0
14, 63840, Note_on_c, 11, 57, 52
14, 64079, Note_on_c, 11, 57, 0
14, 65220, Note_on_c, 11, 57, 52
14, 65271, Note_on_c, 11, 57, 0
14, 65280, Note_on_c, 11, 57, 52
14, 65519, Note_on_c, 11, 57, 0
14, 66660, Note_on_c, 11, 57, 52
14, 66711, Note_on_c, 11, 57, 0
14, 66720, Note_on_c, 11, 57, 52
14, 66839, Note_on_c, 11, 57, 0
14, 66960, Note_on_c, 11, 61, 52
14, 67064, Note_on_c, 11, 61, 0
14, 67080, Note_on_c, 11, 64, 52
14, 67199, Note_on_c, 11, 64, 0
14, 67320, Note_on_c, 11, 64, 52
14, 67424, Note_on_c, 11, 64, 0
14, 67440, Note_on_c, 11, 57, 52
14, 67679, Note_on_c, 11, 57, 0
14, 68820, Note_on_c, 11, 57, 52
14, 68871, Note_on_c, 11, 57, 0
14, 68880, Note_on_c, 11, 57, 52
14, 69119, Note_on_c, 11, 57, 0
14, 69480, Note_on_c, 11, 64, 52
14, 69584, Note_on_c, 11, 64, 0
14, 69600, Note_on_c, 11, 66, 68
14, 69719, Note_on_c, 11, 66, 0
14, 69720, Note_on_c, 11, 64, 52
14, 69824, Note_on_c, 11, 64, 0
14, 69840, Note_on_c, 11, 61, 52
14, 69929, Note_on_c, 11, 61, 0
14, 69960, Note_on_c, 11, 57, 52
14, 70199, Note_on_c, 11, 57, 0
14, 70980, Note_on_c, 11, 57, 52
14, 71031, Note_on_c, 11, 57, 0
14, 71040, Note_on_c, 11, 57, 52
14, 71279, Note_on_c, 11, 57, 0
14, 71640, Note_on_c, 11, 64, 52
14, 71744, Note_on_c, 11, 64, 0
14, 71760, Note_on_c, 11, 66, 68
14, 71879, Note_on_c, 11, 66, 0
14, 71880, Note_on_c, 11, 64, 52
14, 71984, Note_on_c, 11, 64, 0
14, 72000, Note_on_c, 11, 61, 52
14, 72089, Note_on_c, 11, 61, 0
14, 72120, Note_on_c, 11, 57, 52
14, 72359, Note_on_c, 11, 57, 0
14, 73140, Note_on_c, 11, 76, 52
14, 73140, Note_on_c, 11, 64, 52
14, 73191, Note_on_c, 11, 76, 0
14, 73191, Note_on_c, 11, 64, 0
14, 73200, Note_on_c, 11, 64, 76
14, 73200, Note_on_c, 11, 76, 76
14, 73240, Control_c, 11, 11, 123
14, 73280, Control_c, 11, 11, 119
14, 73320, Control_c, 11, 11, 115
14, 73360, Control_c, 11, 11, 111
14, 73400, Control_c, 11, 11, 107
14, 73440, Control_c, 11, 11, 104
14, 73480, Control_c, 11, 11, 100
14, 73520, Control_c, 11, 11, 96
14, 73560, Control_c, 11, 11, 92
14, 73600, Control_c, 11, 11, 88
14, 73640, Control_c, 11, 11, 84
14, 73680, Control_c, 11, 11, 80
14, 73799, Note_on_c, 11, 64, 0
14, 73799, Note_on_c, 11, 76, 0
14, 74280, Control_c, 11, 11, 127
14, 74580, Note_on_c, 11, 76, 52
14, 74580, Note_on_c, 11, 64, 52
14, 74631, Note_on_c, 11, 76, 0
14, 74631, Note_on_c, 11, 64, 0
14, 74640, Note_on_c, 11, 64, 76
14, 74640, Note_on_c, 11, 76, 76
14, 75171, Note_on_c, 11, 64, 0
14, 75171, Note_on_c, 11, 76, 0
14, 75180, Note_on_c, 11, 61, 76
14, 75224, Note_on_c, 11, 61, 0
14, 75240, Note_on_c, 11, 57, 76
14, 75329, Note_on_c, 11, 57, 0
14, 75360, Note_on_c, 11, 64, 84
14, 75360, Note_on_c, 11, 76, 84
14, 75419, Note_on_c, 11, 64, 0
14, 75419, Note_on_c, 11, 76, 0
14, 75420, Note_on_c, 11, 76, 76
14, 75420, Note_on_c, 11, 64, 76
14, 75891, Note_on_c, 11, 76, 0
14, 75891, Note_on_c, 11, 64, 0
14, 75900, Note_on_c, 11, 61, 76
14, 75944, Note_on_c, 11, 61, 0
14, 75960, Note_on_c, 11, 58, 76
14, 76049, Note_on_c, 11, 58, 0
14, 76080, Note_on_c, 11, 64, 84
14, 76139, Note_on_c, 11, 64, 0
14, 76140, Note_on_c, 11, 64, 76
14, 76199, Note_on_c, 11, 64, 0
14, 76260, Note_on_c, 11, 62, 76
14, 76304, Note_on_c, 11, 62, 0
14, 76320, Note_on_c, 11, 59, 76
14, 76409, Note_on_c, 11, 59, 0
14, 76440, Note_on_c, 11, 68, 84
14, 76499, Note_on_c, 11, 68, 0
14, 76500, Note_on_c, 11, 68, 76
14, 76559, Note_on_c, 11, 68, 0
14, 76620, Note_on_c, 11, 64, 76
14, 76664, Note_on_c, 11, 64, 0
14, 76680, Note_on_c, 11, 62, 76
14, 76769, Note_on_c, 11, 62, 0
14, 76800, Note_on_c, 11, 71, 84
14, 76859, Note_on_c, 11, 71, 0
14, 76860, Note_on_c, 11, 71, 76
14, 76919, Note_on_c, 11, 71, 0
14, 76980, Note_on_c, 11, 68, 76
14, 77024, Note_on_c, 11, 68, 0
14, 77040, Note_on_c, 11, 64, 76
14, 77129, Note_on_c, 11, 64, 0
14, 77160, Note_on_c, 11, 74, 84
14, 77219, Note_on_c, 11, 74, 0
14, 77220, Note_on_c, 11, 74, 76
14, 77279, Note_on_c, 11, 74, 0
14, 77340, Note_on_c, 11, 71, 76
14, 77384, Note_on_c, 11, 71, 0
14, 77400, Note_on_c, 11, 68, 76
14, 77489, Note_on_c, 11, 68, 0
14, 77520, Note_on_c, 11, 71, 76
14, 77520, Note_on_c, 11, 80, 76
14, 77864, Note_on_c, 11, 71, 0
14, 77864, Note_on_c, 11, 80, 0
14, 77880, Note_on_c, 11, 64, 84
14, 77939, Note_on_c, 11, 64, 0
14, 77940, Note_on_c, 11, 66, 84
14, 77999, Note_on_c, 11, 66, 0
14, 78000, Note_on_c, 11, 68, 84
14, 78059, Note_on_c, 11, 68, 0
14, 78060, Note_on_c, 11, 69, 84
14, 78119, Note_on_c, 11, 69, 0
14, 78120, Note_on_c, 11, 71, 84
14, 78159, Note_on_c, 11, 71, 0
14, 78160, Note_on_c, 11, 73, 84
14, 78199, Note_on_c, 11, 73, 0
14, 78200, Note_on_c, 11, 74, 84
14, 78231, Note_on_c, 11, 74, 0
14, 78240, Note_on_c, 11, 76, 92
14, 78291, Note_on_c, 11, 76, 0
14, 78300, Note_on_c, 11, 61, 84
14, 78351, Note_on_c, 11, 61, 0
14, 78360, Note_on_c, 11, 62, 84
14, 78411, Note_on_c, 11, 62, 0
14, 78420, Note_on_c, 11, 64, 84
14, 78471, Note_on_c, 11, 64, 0
14, 78480, Note_on_c, 11, 64, 84
14, 78531, Note_on_c, 11, 64, 0
14, 78540, Note_on_c, 11, 64, 84
14, 78591, Note_on_c, 11, 64, 0
14, 78600, Note_on_c, 11, 61, 84
14, 78659, Note_on_c, 11, 61, 0
14, 78660, Note_on_c, 11, 62, 84
14, 78711, Note_on_c, 11, 62, 0
14, 78720, Note_on_c, 11, 64, 84
14, 78771, Note_on_c, 11, 64, 0
14, 78780, Note_on_c, 11, 64, 84
14, 78831, Note_on_c, 11, 64, 0
14, 78840, Note_on_c, 11, 64, 84
14, 78891, Note_on_c, 11, 64, 0
14, 78900, Note_on_c, 11, 64, 84
14, 78951, Note_on_c, 11, 64, 0
14, 78960, Note_on_c, 11, 62, 84
14, 79019, Note_on_c, 11, 62, 0
14, 79020, Note_on_c, 11, 64, 84
14, 79071, Note_on_c, 11, 64, 0
14, 79080, Note_on_c, 11, 66, 84
14, 79131, Note_on_c, 11, 66, 0
14, 79140, Note_on_c, 11, 66, 84
14, 79191, Note_on_c, 11, 66, 0
14, 79200, Note_on_c, 11, 66, 84
14, 79251, Note_on_c, 11, 66, 0
14, 79260, Note_on_c, 11, 66, 84
14, 79311, Note_on_c, 11, 66, 0
14, 79320, Note_on_c, 11, 62, 84
14, 79379, Note_on_c, 11, 62, 0
14, 79380, Note_on_c, 11, 64, 84
14, 79431, Note_on_c, 11, 64, 0
14, 79440, Note_on_c, 11, 66, 84
14, 79491, Note_on_c, 11, 66, 0
14, 79500, Note_on_c, 11, 62, 84
14, 79551, Note_on_c, 11, 62, 0
14, 79560, Note_on_c, 11, 62, 84
14, 79611, Note_on_c, 11, 62, 0
14, 79620, Note_on_c, 11, 62, 84
14, 79671, Note_on_c, 11, 62, 0
14, 79680, Note_on_c, 11, 61, 84
14, 79739, Note_on_c, 11, 61, 0
14, 79740, Note_on_c, 11, 62, 84
14, 79791, Note_on_c, 11, 62, 0
14, 79800, Note_on_c, 11, 64, 84
14, 79851, Note_on_c, 11, 64, 0
14, 79860, Note_on_c, 11, 64, 84
14, 79911, Note_on_c, 11, 64, 0
14, 79920, Note_on_c, 11, 64, 84
14, 79971, Note_on_c, 11, 64, 0
14, 79980, Note_on_c, 11, 64, 84
14, 80031, Note_on_c, 11, 64, 0
14, 80040, Note_on_c, 11, 57, 84
14, 80099, Note_on_c, 11, 57, 0
14, 80100, Note_on_c, 11, 59, 84
14, 80151, Note_on_c, 11, 59, 0
14, 80160, Note_on_c, 11, 61, 84
14, 80211, Note_on_c, 11, 61, 0
14, 80220, Note_on_c, 11, 61, 84
14, 80271, Note_on_c, 11, 61, 0
14, 80280, Note_on_c, 11, 61, 84
14, 80331, Note_on_c, 11, 61, 0
14, 80340, Note_on_c, 11, 61, 84
14, 80391, Note_on_c, 11, 61, 0
14, 80400, Note_on_c, 11, 59, 84
14, 80459, Note_on_c, 11, 59, 0
14, 80460, Note_on_c, 11, 61, 84
14, 80511, Note_on_c, 11, 61, 0
14, 80520, Note_on_c, 11, 62, 84
14, 80571, Note_on_c, 11, 62, 0
14, 80580, Note_on_c, 11, 62, 84
14, 80631, Note_on_c, 11, 62, 0
14, 80640, Note_on_c, 11, 62, 84
14, 80691, Note_on_c, 11, 62, 0
14, 80700, Note_on_c, 11, 62, 84
14, 80751, Note_on_c, 11, 62, 0
14, 80760, Note_on_c, 11, 68, 84
14, 80819, Note_on_c, 11, 68, 0
14, 80820, Note_on_c, 11, 69, 84
14, 80871, Note_on_c, 11, 69, 0
14, 80880, Note_on_c, 11, 71, 84
14, 80931, Note_on_c, 11, 71, 0
14, 80940, Note_on_c, 11, 71, 84
14, 80991, Note_on_c, 11, 71, 0
14, 81000, Note_on_c, 11, 71, 84
14, 81051, Note_on_c, 11, 71, 0
14, 81060, Note_on_c, 11, 71, 84
14, 81111, Note_on_c, 11, 71, 0
14, 81120, Note_on_c, 11, 69, 84
14, 81179, Note_on_c, 11, 69, 0
14, 81180, Note_on_c, 11, 71, 84
14, 81231, Note_on_c, 11, 71, 0
14, 81240, Note_on_c, 11, 73, 84
14, 81291, Note_on_c, 11, 73, 0
14, 81300, Note_on_c, 11, 73, 84
14, 81351, Note_on_c, 11, 73, 0
14, 81360, Note_on_c, 11, 73, 84
14, 81411, Note_on_c, 11, 73, 0
14, 81420, Note_on_c, 11, 73, 84
14, 81471, Note_on_c, 11, 73, 0
14, 81480, Note_on_c, 11, 69, 84
14, 81539, Note_on_c, 11, 69, 0
14, 81540, Note_on_c, 11, 71, 84
14, 81591, Note_on_c, 11, 71, 0
14, 81600, Note_on_c, 11, 73, 84
14, 81651, Note_on_c, 11, 73, 0
14, 81660, Note_on_c, 11, 73, 84
14, 81711, Note_on_c, 11, 73, 0
14, 81720, Note_on_c, 11, 73, 84
14, 81771, Note_on_c, 11, 73, 0
14, 81780, Note_on_c, 11, 73, 84
14, 81831, Note_on_c, 11, 73, 0
14, 81840, Note_on_c, 11, 74, 84
14, 81899, Note_on_c, 11, 74, 0
14, 81900, Note_on_c, 11, 76, 84
14, 81951, Note_on_c, 11, 76, 0
14, 81960, Note_on_c, 11, 78, 84
14, 82011, Note_on_c, 11, 78, 0
14, 82020, Note_on_c, 11, 78, 84
14, 82071, Note_on_c, 11, 78, 0
14, 82080, Note_on_c, 11, 78, 84
14, 82131, Note_on_c, 11, 78, 0
14, 82140, Note_on_c, 11, 78, 84
14, 82191, Note_on_c, 11, 78, 0
14, 82200, Note_on_c, 11, 66, 84
14, 82259, Note_on_c, 11, 66, 0
14, 82260, Note_on_c, 11, 67, 84
14, 82311, Note_on_c, 11, 67, 0
14, 82320, Note_on_c, 11, 69, 84
14, 82371, Note_on_c, 11, 69, 0
14, 82380, Note_on_c, 11, 69, 84
14, 82431, Note_on_c, 11, 69, 0
14, 82440, Note_on_c, 11, 71, 84
14, 82491, Note_on_c, 11, 71, 0
14, 82500, Note_on_c, 11, 71, 84
14, 82551, Note_on_c, 11, 71, 0
14, 82560, Note_on_c, 11, 69, 84
14, 82619, Note_on_c, 11, 69, 0
14, 82620, Note_on_c, 11, 71, 84
14, 82671, Note_on_c, 11, 71, 0
14, 82680, Note_on_c, 11, 73, 84
14, 82731, Note_on_c, 11, 73, 0
14, 82740, Note_on_c, 11, 73, 84
14, 82791, Note_on_c, 11, 73, 0
14, 82800, Note_on_c, 11, 73, 84
14, 82851, Note_on_c, 11, 73, 0
14, 82860, Note_on_c, 11, 73, 84
14, 82911, Note_on_c, 11, 73, 0
14, 82920, Note_on_c, 11, 69, 84
14, 82979, Note_on_c, 11, 69, 0
14, 82980, Note_on_c, 11, 71, 84
14, 83031, Note_on_c, 11, 71, 0
14, 83040, Note_on_c, 11, 73, 84
14, 83091, Note_on_c, 11, 73, 0
14, 83100, Note_on_c, 11, 73, 84
14, 83151, Note_on_c, 11, 73, 0
14, 83160, Note_on_c, 11, 71, 84
14, 83211, Note_on_c, 11, 71, 0
14, 83220, Note_on_c, 11, 71, 84
14, 83271, Note_on_c, 11, 71, 0
14, 83280, Note_on_c, 11, 69, 84
14, 83339, Note_on_c, 11, 69, 0
14, 83340, Note_on_c, 11, 71, 84
14, 83391, Note_on_c, 11, 71, 0
14, 83400, Note_on_c, 11, 73, 84
14, 83451, Note_on_c, 11, 73, 0
14, 83460, Note_on_c, 11, 61, 84
14, 83511, Note_on_c, 11, 61, 0
14, 83520, Note_on_c, 11, 62, 84
14, 83571, Note_on_c, 11, 62, 0
14, 83580, Note_on_c, 11, 64, 84
14, 83631, Note_on_c, 11, 64, 0
14, 83640, Note_on_c, 11, 66, 84
14, 83691, Note_on_c, 11, 66, 0
14, 83700, Note_on_c, 11, 66, 84
14, 83751, Note_on_c, 11, 66, 0
14, 83760, Note_on_c, 11, 66, 84
14, 83811, Note_on_c, 11, 66, 0
14, 83820, Note_on_c, 11, 66, 84
14, 83871, Note_on_c, 11, 66, 0
14, 83880, Note_on_c, 11, 66, 84
14, 83931, Note_on_c, 11, 66, 0
14, 83940, Note_on_c, 11, 66, 84
14, 83991, Note_on_c, 11, 66, 0
14, 84000, Note_on_c, 11, 66, 84
14, 84059, Note_on_c, 11, 66, 0
14, 84060, Note_on_c, 11, 67, 84
14, 84111, Note_on_c, 11, 67, 0
14, 84120, Note_on_c, 11, 69, 84
14, 84171, Note_on_c, 11, 69, 0
14, 84180, Note_on_c, 11, 69, 84
14, 84231, Note_on_c, 11, 69, 0
14, 84240, Note_on_c, 11, 69, 84
14, 84291, Note_on_c, 11, 69, 0
14, 84300, Note_on_c, 11, 69, 84
14, 84351, Note_on_c, 11, 69, 0
14, 84360, Note_on_c, 11, 62, 84
14, 84419, Note_on_c, 11, 62, 0
14, 84420, Note_on_c, 11, 64, 84
14, 84471, Note_on_c, 11, 64, 0
14, 84480, Note_on_c, 11, 66, 84
14, 84531, Note_on_c, 11, 66, 0
14, 84540, Note_on_c, 11, 66, 84
14, 84591, Note_on_c, 11, 66, 0
14, 84600, Note_on_c, 11, 66, 84
14, 84651, Note_on_c, 11, 66, 0
14, 84660, Note_on_c, 11, 66, 84
14, 84711, Note_on_c, 11, 66, 0
14, 84720, Note_on_c, 11, 61, 84
14, 84779, Note_on_c, 11, 61, 0
14, 84780, Note_on_c, 11, 62, 84
14, 84831, Note_on_c, 11, 62, 0
14, 84840, Note_on_c, 11, 64, 84
14, 84891, Note_on_c, 11, 64, 0
14, 84900, Note_on_c, 11, 64, 84
14, 84951, Note_on_c, 11, 64, 0
14, 84960, Note_on_c, 11, 64, 84
14, 85011, Note_on_c, 11, 64, 0
14, 85020, Note_on_c, 11, 64, 84
14, 85071, Note_on_c, 11, 64, 0
14, 85080, Note_on_c, 11, 69, 84
14, 85139, Note_on_c, 11, 69, 0
14, 85140, Note_on_c, 11, 71, 84
14, 85191, Note_on_c, 11, 71, 0
14, 85200, Note_on_c, 11, 73, 84
14, 85251, Note_on_c, 11, 73, 0
14, 85260, Note_on_c, 11, 73, 84
14, 85311, Note_on_c, 11, 73, 0
14, 85320, Note_on_c, 11, 73, 84
14, 85371, Note_on_c, 11, 73, 0
14, 85380, Note_on_c, 11, 73, 84
14, 85431, Note_on_c, 11, 73, 0
14, 85440, Note_on_c, 11, 69, 84
14, 85499, Note_on_c, 11, 69, 0
14, 85500, Note_on_c, 11, 73, 84
14, 85551, Note_on_c, 11, 73, 0
14, 85560, Note_on_c, 11, 74, 84
14, 85611, Note_on_c, 11, 74, 0
14, 85620, Note_on_c, 11, 74, 84
14, 85671, Note_on_c, 11, 74, 0
14, 85680, Note_on_c, 11, 74, 84
14, 85731, Note_on_c, 11, 74, 0
14, 85740, Note_on_c, 11, 74, 84
14, 85791, Note_on_c, 11, 74, 0
14, 85800, Note_on_c, 11, 66, 84
14, 85859, Note_on_c, 11, 66, 0
14, 85860, Note_on_c, 11, 67, 84
14, 85911, Note_on_c, 11, 67, 0
14, 85920, Note_on_c, 11, 69, 84
14, 85971, Note_on_c, 11, 69, 0
14, 85980, Note_on_c, 11, 69, 84
14, 86031, Note_on_c, 11, 69, 0
14, 86040, Note_on_c, 11, 69, 84
14, 86091, Note_on_c, 11, 69, 0
14, 86100, Note_on_c, 11, 69, 84
14, 86151, Note_on_c, 11, 69, 0
14, 86160, Note_on_c, 11, 61, 84
14, 86219, Note_on_c, 11, 61, 0
14, 86220, Note_on_c, 11, 62, 84
14, 86271, Note_on_c, 11, 62, 0
14, 86280, Note_on_c, 11, 64, 84
14, 86331, Note_on_c, 11, 64, 0
14, 86340, Note_on_c, 11, 64, 84
14, 86391, Note_on_c, 11, 64, 0
14, 86400, Note_on_c, 11, 64, 84
14, 86451, Note_on_c, 11, 64, 0
14, 86460, Note_on_c, 11, 64, 84
14, 86511, Note_on_c, 11, 64, 0
14, 86520, Note_on_c, 11, 61, 84
14, 86579, Note_on_c, 11, 61, 0
14, 86580, Note_on_c, 11, 62, 84
14, 86631, Note_on_c, 11, 62, 0
14, 86640, Note_on_c, 11, 64, 84
14, 86691, Note_on_c, 11, 64, 0
14, 86700, Note_on_c, 11, 64, 84
14, 86751, Note_on_c, 11, 64, 0
14, 86760, Note_on_c, 11, 64, 52
14, 86811, Note_on_c, 11, 64, 0
14, 86820, Note_on_c, 11, 64, 52
14, 86871, Note_on_c, 11, 64, 0
14, 86880, Note_on_c, 11, 61, 52
14, 86939, Note_on_c, 11, 61, 0
14, 86940, Note_on_c, 11, 62, 52
14, 86991, Note_on_c, 11, 62, 0
14, 87000, Note_on_c, 11, 64, 52
14, 87051, Note_on_c, 11, 64, 0
14, 87060, Note_on_c, 11, 64, 53
14, 87111, Note_on_c, 11, 64, 0
14, 87120, Note_on_c, 11, 64, 53
14, 87171, Note_on_c, 11, 64, 0
14, 87180, Note_on_c, 11, 64, 53
14, 87231, Note_on_c, 11, 64, 0
14, 87240, Note_on_c, 11, 64, 54
14, 87291, Note_on_c, 11, 64, 0
14, 87300, Note_on_c, 11, 64, 54
14, 87351, Note_on_c, 11, 64, 0
14, 87360, Note_on_c, 11, 64, 54
14, 87411, Note_on_c, 11, 64, 0
14, 87420, Note_on_c, 11, 64, 55
14, 87471, Note_on_c, 11, 64, 0
14, 87480, Note_on_c, 11, 64, 55
14, 87531, Note_on_c, 11, 64, 0
14, 87540, Note_on_c, 11, 64, 55
14, 87591, Note_on_c, 11, 64, 0
14, 87600, Note_on_c, 11, 66, 56
14, 87659, Note_on_c, 11, 66, 0
14, 87660, Note_on_c, 11, 67, 56
14, 87711, Note_on_c, 11, 67, 0
14, 87720, Note_on_c, 11, 69, 56
14, 87771, Note_on_c, 11, 69, 0
14, 87780, Note_on_c, 11, 69, 57
14, 87831, Note_on_c, 11, 69, 0
14, 87840, Note_on_c, 11, 69, 57
14, 87891, Note_on_c, 11, 69, 0
14, 87900, Note_on_c, 11, 69, 57
14, 87951, Note_on_c, 11, 69, 0
14, 87960, Note_on_c, 11, 69, 58
14, 88011, Note_on_c, 11, 69, 0
14, 88020, Note_on_c, 11, 69, 58
14, 88071, Note_on_c, 11, 69, 0
14, 88080, Note_on_c, 11, 69, 58
14, 88131, Note_on_c, 11, 69, 0
14, 88140, Note_on_c, 11, 69, 59
14, 88191, Note_on_c, 11, 69, 0
14, 88200, Note_on_c, 11, 69, 59
14, 88251, Note_on_c, 11, 69, 0
14, 88260, Note_on_c, 11, 69, 59
14, 88311, Note_on_c, 11, 69, 0
14, 88320, Note_on_c, 11, 68, 60
14, 88379, Note_on_c, 11, 68, 0
14, 88380, Note_on_c, 11, 69, 60
14, 88431, Note_on_c, 11, 69, 0
14, 88440, Note_on_c, 11, 68, 60
14, 88491, Note_on_c, 11, 68, 0
14, 88500, Note_on_c, 11, 71, 61
14, 88551, Note_on_c, 11, 71, 0
14, 88560, Note_on_c, 11, 71, 61
14, 88611, Note_on_c, 11, 71, 0
14, 88620, Note_on_c, 11, 71, 61
14, 88671, Note_on_c, 11, 71, 0
14, 88680, Note_on_c, 11, 71, 62
14, 88731, Note_on_c, 11, 71, 0
14, 88740, Note_on_c, 11, 71, 62
14, 88791, Note_on_c, 11, 71, 0
14, 88800, Note_on_c, 11, 71, 62
14, 88851, Note_on_c, 11, 71, 0
14, 88860, Note_on_c, 11, 71, 63
14, 88911, Note_on_c, 11, 71, 0
14, 88920, Note_on_c, 11, 71, 63
14, 88971, Note_on_c, 11, 71, 0
14, 88980, Note_on_c, 11, 71, 63
14, 89031, Note_on_c, 11, 71, 0
14, 89040, Note_on_c, 11, 69, 64
14, 89099, Note_on_c, 11, 69, 0
14, 89100, Note_on_c, 11, 71, 64
14, 89151, Note_on_c, 11, 71, 0
14, 89160, Note_on_c, 11, 69, 64
14, 89211, Note_on_c, 11, 69, 0
14, 89220, Note_on_c, 11, 73, 65
14, 89271, Note_on_c, 11, 73, 0
14, 89280, Note_on_c, 11, 73, 65
14, 89331, Note_on_c, 11, 73, 0
14, 89340, Note_on_c, 11, 73, 65
14, 89391, Note_on_c, 11, 73, 0
14, 89400, Note_on_c, 11, 73, 66
14, 89451, Note_on_c, 11, 73, 0
14, 89460, Note_on_c, 11, 73, 66
14, 89511, Note_on_c, 11, 73, 0
14, 89520, Note_on_c, 11, 73, 66
14, 89571, Note_on_c, 11, 73, 0
14, 89580, Note_on_c, 11, 73, 67
14, 89631, Note_on_c, 11, 73, 0
14, 89640, Note_on_c, 11, 73, 67
14, 89691, Note_on_c, 11, 73, 0
14, 89700, Note_on_c, 11, 73, 67
14, 89751, Note_on_c, 11, 73, 0
14, 89760, Note_on_c, 11, 69, 68
14, 89819, Note_on_c, 11, 69, 0
14, 89820, Note_on_c, 11, 71, 68
14, 89871, Note_on_c, 11, 71, 0
14, 89880, Note_on_c, 11, 69, 68
14, 89931, Note_on_c, 11, 69, 0
14, 89940, Note_on_c, 11, 73, 69
14, 89991, Note_on_c, 11, 73, 0
14, 90000, Note_on_c, 11, 73, 69
14, 90051, Note_on_c, 11, 73, 0
14, 90060, Note_on_c, 11, 73, 69
14, 90111, Note_on_c, 11, 73, 0
14, 90120, Note_on_c, 11, 73, 70
14, 90171, Note_on_c, 11, 73, 0
14, 90180, Note_on_c, 11, 73, 70
14, 90231, Note_on_c, 11, 73, 0
14, 90240, Note_on_c, 11, 73, 70
14, 90291, Note_on_c, 11, 73, 0
14, 90300, Note_on_c, 11, 73, 71
14, 90351, Note_on_c, 11, 73, 0
14, 90360, Note_on_c, 11, 73, 71
14, 90411, Note_on_c, 11, 73, 0
14, 90420, Note_on_c, 11, 73, 71
14, 90471, Note_on_c, 11, 73, 0
14, 90480, Note_on_c, 11, 74, 72
14, 90539, Note_on_c, 11, 74, 0
14, 90540, Note_on_c, 11, 76, 72
14, 90591, Note_on_c, 11, 76, 0
14, 90600, Note_on_c, 11, 78, 72
14, 90651, Note_on_c, 11, 78, 0
14, 90660, Note_on_c, 11, 78, 73
14, 90711, Note_on_c, 11, 78, 0
14, 90720, Note_on_c, 11, 78, 73
14, 90771, Note_on_c, 11, 78, 0
14, 90780, Note_on_c, 11, 78, 73
14, 90831, Note_on_c, 11, 78, 0
14, 90840, Note_on_c, 11, 78, 74
14, 90891, Note_on_c, 11, 78, 0
14, 90900, Note_on_c, 11, 78, 74
14, 90951, Note_on_c, 11, 78, 0
14, 90960, Note_on_c, 11, 78, 74
14, 91011, Note_on_c, 11, 78, 0
14, 91020, Note_on_c, 11, 78, 75
14, 91071, Note_on_c, 11, 78, 0
14, 91080, Note_on_c, 11, 78, 75
14, 91131, Note_on_c, 11, 78, 0
14, 91140, Note_on_c, 11, 78, 75
14, 91191, Note_on_c, 11, 78, 0
14, 91200, Note_on_c, 11, 71, 76
14, 91259, Note_on_c, 11, 71, 0
14, 91260, Note_on_c, 11, 73, 76
14, 91311, Note_on_c, 11, 73, 0
14, 91320, Note_on_c, 11, 74, 76
14, 91371, Note_on_c, 11, 74, 0
14, 91380, Note_on_c, 11, 74, 77
14, 91431, Note_on_c, 11, 74, 0
14, 91440, Note_on_c, 11, 74, 77
14, 91491, Note_on_c, 11, 74, 0
14, 91500, Note_on_c, 11, 74, 77
14, 91551, Note_on_c, 11, 74, 0
14, 91560, Note_on_c, 11, 74, 78
14, 91611, Note_on_c, 11, 74, 0
14, 91620, Note_on_c, 11, 74, 78
14, 91671, Note_on_c, 11, 74, 0
14, 91680, Note_on_c, 11, 74, 78
14, 91731, Note_on_c, 11, 74, 0
14, 91740, Note_on_c, 11, 74, 79
14, 91791, Note_on_c, 11, 74, 0
14, 91800, Note_on_c, 11, 74, 79
14, 91851, Note_on_c, 11, 74, 0
14, 91860, Note_on_c, 11, 74, 79
14, 91911, Note_on_c, 11, 74, 0
14, 91920, Note_on_c, 11, 73, 80
14, 91979, Note_on_c, 11, 73, 0
14, 91980, Note_on_c, 11, 74, 80
14, 92031, Note_on_c, 11, 74, 0
14, 92040, Note_on_c, 11, 76, 80
14, 92091, Note_on_c, 11, 76, 0
14, 92100, Note_on_c, 11, 76, 81
14, 92151, Note_on_c, 11, 76, 0
14, 92160, Note_on_c, 11, 76, 81
14, 92211, Note_on_c, 11, 76, 0
14, 92220, Note_on_c, 11, 76, 81
14, 92271, Note_on_c, 11, 76, 0
14, 92280, Note_on_c, 11, 76, 82
14, 92331, Note_on_c, 11, 76, 0
14, 92340, Note_on_c, 11, 76, 82
14, 92391, Note_on_c, 11, 76, 0
14, 92400, Note_on_c, 11, 76, 82
14, 92451, Note_on_c, 11, 76, 0
14, 92460, Note_on_c, 11, 76, 83
14, 92511, Note_on_c, 11, 76, 0
14, 92520, Note_on_c, 11, 76, 83
14, 92571, Note_on_c, 11, 76, 0
14, 92580, Note_on_c, 11, 76, 83
14, 92631, Note_on_c, 11, 76, 0
14, 92640, Note_on_c, 11, 76, 84
14, 92691, Note_on_c, 11, 76, 0
14, 92700, Note_on_c, 11, 76, 84
14, 92751, Note_on_c, 11, 76, 0
14, 92760, Note_on_c, 11, 76, 84
14, 92811, Note_on_c, 11, 76, 0
14, 92820, Note_on_c, 11, 76, 84
14, 92871, Note_on_c, 11, 76, 0
14, 92880, Note_on_c, 11, 76, 84
14, 92931, Note_on_c, 11, 76, 0
14, 92940, Note_on_c, 11, 76, 84
14, 92991, Note_on_c, 11, 76, 0
14, 93000, Note_on_c, 11, 76, 84
14, 93051, Note_on_c, 11, 76, 0
14, 93060, Note_on_c, 11, 76, 84
14, 93111, Note_on_c, 11, 76, 0
14, 93120, Note_on_c, 11, 76, 84
14, 93171, Note_on_c, 11, 76, 0
14, 93180, Note_on_c, 11, 76, 84
14, 93231, Note_on_c, 11, 76, 0
14, 93240, Note_on_c, 11, 76, 84
14, 93291, Note_on_c, 11, 76, 0
14, 93300, Note_on_c, 11, 76, 84
14, 93351, Note_on_c, 11, 76, 0
14, 93360, Note_on_c, 11, 75, 84
14, 93411, Note_on_c, 11, 75, 0
14, 93420, Note_on_c, 11, 75, 84
14, 93471, Note_on_c, 11, 75, 0
14, 93480, Note_on_c, 11, 75, 84
14, 93531, Note_on_c, 11, 75, 0
14, 93540, Note_on_c, 11, 75, 84
14, 93591, Note_on_c, 11, 75, 0
14, 93600, Note_on_c, 11, 75, 84
14, 93651, Note_on_c, 11, 75, 0
14, 93660, Note_on_c, 11, 75, 84
14, 93711, Note_on_c, 11, 75, 0
14, 93720, Note_on_c, 11, 75, 84
14, 93771, Note_on_c, 11, 75, 0
14, 93780, Note_on_c, 11, 75, 84
14, 93831, Note_on_c, 11, 75, 0
14, 93840, Note_on_c, 11, 66, 52
14, 93891, Note_on_c, 11, 66, 0
14, 93900, Note_on_c, 11, 66, 52
14, 93951, Note_on_c, 11, 66, 0
14, 93960, Note_on_c, 11, 66, 52
14, 94011, Note_on_c, 11, 66, 0
14, 94020, Note_on_c, 11, 66, 52
14, 94071, Note_on_c, 11, 66, 0
14, 94080, Note_on_c, 11, 66, 52
14, 94131, Note_on_c, 11, 66, 0
14, 94140, Note_on_c, 11, 66, 52
14, 94191, Note_on_c, 11, 66, 0
14, 94200, Note_on_c, 11, 66, 52
14, 94251, Note_on_c, 11, 66, 0
14, 94260, Note_on_c, 11, 66, 52
14, 94311, Note_on_c, 11, 66, 0
14, 94320, Note_on_c, 11, 66, 52
14, 94371, Note_on_c, 11, 66, 0
14, 94380, Note_on_c, 11, 66, 52
14, 94431, Note_on_c, 11, 66, 0
14, 94440, Note_on_c, 11, 66, 52
14, 94491, Note_on_c, 11, 66, 0
14, 94500, Note_on_c, 11, 66, 52
14, 94551, Note_on_c, 11, 66, 0
14, 94560, Note_on_c, 11, 66, 52
14, 94611, Note_on_c, 11, 66, 0
14, 94620, Note_on_c, 11, 66, 52
14, 94671, Note_on_c, 11, 66, 0
14, 94680, Note_on_c, 11, 66, 52
14, 94731, Note_on_c, 11, 66, 0
14, 94740, Note_on_c, 11, 66, 52
14, 94791, Note_on_c, 11, 66, 0
14, 94800, Note_on_c, 11, 68, 52
14, 94919, Note_on_c, 11, 68, 0
14, 95040, Note_on_c, 11, 63, 52
14, 95159, Note_on_c, 11, 63, 0
14, 95400, Note_on_c, 11, 63, 52
14, 95519, Note_on_c, 11, 63, 0
14, 95760, Note_on_c, 11, 64, 52
14, 95760, Note_on_c, 11, 56, 52
14, 95879, Note_on_c, 11, 64, 0
14, 95879, Note_on_c, 11, 56, 0
14, 96120, Note_on_c, 11, 56, 52
14, 96120, Note_on_c, 11, 64, 52
14, 96239, Note_on_c, 11, 56, 0
14, 96239, Note_on_c, 11, 64, 0
14, 96480, Note_on_c, 11, 56, 52
14, 96480, Note_on_c, 11, 63, 52
14, 96599, Note_on_c, 11, 56, 0
14, 96599, Note_on_c, 11, 63, 0
14, 96840, Note_on_c, 11, 56, 52
14, 96840, Note_on_c, 11, 63, 52
14, 96959, Note_on_c, 11, 56, 0
14, 96959, Note_on_c, 11, 63, 0
14, 96960, Note_on_c, 11, 64, 52
14, 97011, Note_on_c, 11, 64, 0
14, 97020, Note_on_c, 11, 64, 54
14, 97071, Note_on_c, 11, 64, 0
14, 97080, Note_on_c, 11, 64, 56
14, 97131, Note_on_c, 11, 64, 0
14, 97140, Note_on_c, 11, 64, 58
14, 97191, Note_on_c, 11, 64, 0
14, 97200, Note_on_c, 11, 64, 60
14, 97251, Note_on_c, 11, 64, 0
14, 97260, Note_on_c, 11, 64, 62
14, 97311, Note_on_c, 11, 64, 0
14, 97320, Note_on_c, 11, 61, 64
14, 97371, Note_on_c, 11, 61, 0
14, 97380, Note_on_c, 11, 61, 66
14, 97431, Note_on_c, 11, 61, 0
14, 97440, Note_on_c, 11, 61, 68
14, 97491, Note_on_c, 11, 61, 0
14, 97500, Note_on_c, 11, 61, 70
14, 97551, Note_on_c, 11, 61, 0
14, 97560, Note_on_c, 11, 61, 72
14, 97611, Note_on_c, 11, 61, 0
14, 97620, Note_on_c, 11, 61, 74
14, 97671, Note_on_c, 11, 61, 0
14, 97680, Note_on_c, 11, 58, 76
14, 97799, Note_on_c, 11, 58, 0
14, 97920, Note_on_c, 11, 58, 52
14, 97920, Note_on_c, 11, 63, 52
14, 98039, Note_on_c, 11, 58, 0
14, 98039, Note_on_c, 11, 63, 0
14, 98280, Note_on_c, 11, 63, 52
14, 98280, Note_on_c, 11, 58, 52
14, 98399, Note_on_c, 11, 63, 0
14, 98399, Note_on_c, 11, 58, 0
14, 98640, Note_on_c, 11, 59, 52
14, 98640, Note_on_c, 11, 63, 52
14, 98759, Note_on_c, 11, 59, 0
14, 98759, Note_on_c, 11, 63, 0
14, 99000, Note_on_c, 11, 59, 52
14, 99000, Note_on_c, 11, 63, 52
14, 99119, Note_on_c, 11, 59, 0
14, 99119, Note_on_c, 11, 63, 0
14, 99360, Note_on_c, 11, 63, 52
14, 99360, Note_on_c, 11, 58, 52
14, 99479, Note_on_c, 11, 63, 0
14, 99479, Note_on_c, 11, 58, 0
14, 99720, Note_on_c, 11, 58, 52
14, 99720, Note_on_c, 11, 63, 52
14, 99824, Note_on_c, 11, 58, 0
14, 99824, Note_on_c, 11, 63, 0
14, 99840, Note_on_c, 11, 59, 52
14, 99891, Note_on_c, 11, 59, 0
14, 99900, Note_on_c, 11, 71, 54
14, 99951, Note_on_c, 11, 71, 0
14, 99960, Note_on_c, 11, 71, 56
14, 100011, Note_on_c, 11, 71, 0
14, 100020, Note_on_c, 11, 71, 58
14, 100071, Note_on_c, 11, 71, 0
14, 100080, Note_on_c, 11, 71, 60
14, 100131, Note_on_c, 11, 71, 0
14, 100140, Note_on_c, 11, 71, 62
14, 100191, Note_on_c, 11, 71, 0
14, 100200, Note_on_c, 11, 71, 64
14, 100251, Note_on_c, 11, 71, 0
14, 100260, Note_on_c, 11, 83, 66
14, 100311, Note_on_c, 11, 83, 0
14, 100320, Note_on_c, 11, 83, 68
14, 100371, Note_on_c, 11, 83, 0
14, 100380, Note_on_c, 11, 83, 70
14, 100431, Note_on_c, 11, 83, 0
14, 100440, Note_on_c, 11, 83, 72
14, 100491, Note_on_c, 11, 83, 0
14, 100500, Note_on_c, 11, 83, 74
14, 100551, Note_on_c, 11, 83, 0
14, 100560, Note_on_c, 11, 81, 76
14, 100739, Note_on_c, 11, 81, 0
14, 100740, Note_on_c, 11, 80, 76
14, 100799, Note_on_c, 11, 80, 0
14, 100800, Note_on_c, 11, 78, 76
14, 100859, Note_on_c, 11, 78, 0
14, 100860, Note_on_c, 11, 76, 76
14, 100919, Note_on_c, 11, 76, 0
14, 100920, Note_on_c, 11, 75, 76
14, 100979, Note_on_c, 11, 75, 0
14, 100980, Note_on_c, 11, 76, 76
14, 101039, Note_on_c, 11, 76, 0
14, 101040, Note_on_c, 11, 75, 76
14, 101099, Note_on_c, 11, 75, 0
14, 101100, Note_on_c, 11, 73, 76
14, 101159, Note_on_c, 11, 73, 0
14, 101160, Note_on_c, 11, 71, 76
14, 101219, Note_on_c, 11, 71, 0
14, 101220, Note_on_c, 11, 69, 76
14, 101271, Note_on_c, 11, 69, 0
14, 101280, Note_on_c, 11, 68, 76
14, 101331, Note_on_c, 11, 68, 0
14, 101340, Note_on_c, 11, 68, 76
14, 101391, Note_on_c, 11, 68, 0
14, 101400, Note_on_c, 11, 68, 76
14, 101451, Note_on_c, 11, 68, 0
14, 101460, Note_on_c, 11, 68, 76
14, 101511, Note_on_c, 11, 68, 0
14, 101520, Note_on_c, 11, 68, 76
14, 101571, Note_on_c, 11, 68, 0
14, 101580, Note_on_c, 11, 68, 76
14, 101631, Note_on_c, 11, 68, 0
14, 101640, Note_on_c, 11, 68, 76
14, 101691, Note_on_c, 11, 68, 0
14, 101700, Note_on_c, 11, 80, 76
14, 101751, Note_on_c, 11, 80, 0
14, 101760, Note_on_c, 11, 80, 76
14, 101811, Note_on_c, 11, 80, 0
14, 101820, Note_on_c, 11, 80, 76
14, 101871, Note_on_c, 11, 80, 0
14, 101880, Note_on_c, 11, 80, 76
14, 101931, Note_on_c, 11, 80, 0
14, 101940, Note_on_c, 11, 80, 76
14, 101991, Note_on_c, 11, 80, 0
14, 102000, Note_on_c, 11, 78, 84
14, 102059, Note_on_c, 11, 78, 0
14, 102060, Note_on_c, 11, 78, 76
14, 102179, Note_on_c, 11, 78, 0
14, 102180, Note_on_c, 11, 76, 76
14, 102239, Note_on_c, 11, 76, 0
14, 102240, Note_on_c, 11, 75, 76
14, 102299, Note_on_c, 11, 75, 0
14, 102300, Note_on_c, 11, 73, 76
14, 102359, Note_on_c, 11, 73, 0
14, 102360, Note_on_c, 11, 71, 76
14, 102419, Note_on_c, 11, 71, 0
14, 102420, Note_on_c, 11, 73, 76
14, 102479, Note_on_c, 11, 73, 0
14, 102480, Note_on_c, 11, 71, 76
14, 102539, Note_on_c, 11, 71, 0
14, 102540, Note_on_c, 11, 70, 76
14, 102599, Note_on_c, 11, 70, 0
14, 102600, Note_on_c, 11, 68, 76
14, 102659, Note_on_c, 11, 68, 0
14, 102660, Note_on_c, 11, 66, 76
14, 102711, Note_on_c, 11, 66, 0
14, 102720, Note_on_c, 11, 64, 76
14, 102771, Note_on_c, 11, 64, 0
14, 102780, Note_on_c, 11, 69, 76
14, 102831, Note_on_c, 11, 69, 0
14, 102840, Note_on_c, 11, 69, 76
14, 102891, Note_on_c, 11, 69, 0
14, 102900, Note_on_c, 11, 69, 76
14, 102951, Note_on_c, 11, 69, 0
14, 102960, Note_on_c, 11, 69, 76
14, 103011, Note_on_c, 11, 69, 0
14, 103020, Note_on_c, 11, 69, 76
14, 103071, Note_on_c, 11, 69, 0
14, 103080, Note_on_c, 11, 76, 76
14, 103131, Note_on_c, 11, 76, 0
14, 103140, Note_on_c, 11, 64, 76
14, 103191, Note_on_c, 11, 64, 0
14, 103200, Note_on_c, 11, 64, 76
14, 103251, Note_on_c, 11, 64, 0
14, 103260, Note_on_c, 11, 64, 76
14, 103311, Note_on_c, 11, 64, 0
14, 103320, Note_on_c, 11, 64, 76
14, 103371, Note_on_c, 11, 64, 0
14, 103380, Note_on_c, 11, 64, 76
14, 103431, Note_on_c, 11, 64, 0
14, 103440, Note_on_c, 11, 63, 76
14, 103619, Note_on_c, 11, 63, 0
14, 103800, Note_on_c, 11, 71, 76
14, 103800, Note_on_c, 11, 78, 76
14, 103979, Note_on_c, 11, 71, 0
14, 103979, Note_on_c, 11, 78, 0
14, 104160, Note_on_c, 11, 71, 76
14, 104160, Note_on_c, 11, 76, 76
14, 104339, Note_on_c, 11, 71, 0
14, 104339, Note_on_c, 11, 76, 0
14, 104520, Note_on_c, 11, 71, 76
14, 104520, Note_on_c, 11, 80, 76
14, 104699, Note_on_c, 11, 71, 0
14, 104699, Note_on_c, 11, 80, 0
14, 104880, Note_on_c, 11, 78, 76
14, 104880, Note_on_c, 11, 71, 76
14, 105059, Note_on_c, 11, 78, 0
14, 105059, Note_on_c, 11, 71, 0
14, 105240, Note_on_c, 11, 78, 76
14, 105240, Note_on_c, 11, 71, 76
14, 105419, Note_on_c, 11, 78, 0
14, 105419, Note_on_c, 11, 71, 0
14, 105600, Note_on_c, 11, 71, 76
14, 105600, Note_on_c, 11, 76, 76
14, 105779, Note_on_c, 11, 71, 0
14, 105779, Note_on_c, 11, 76, 0
14, 105960, Note_on_c, 11, 71, 76
14, 105960, Note_on_c, 11, 80, 76
14, 106139, Note_on_c, 11, 71, 0
14, 106139, Note_on_c, 11, 80, 0
14, 106320, Note_on_c, 11, 61, 84
14, 106380, Control_c, 11, 11, 112
14, 106417, Control_c, 11, 11, 109
14, 106453, Control_c, 11, 11, 107
14, 106490, Control_c, 11, 11, 104
14, 106527, Control_c, 11, 11, 101
14, 106563, Control_c, 11, 11, 99
14, 106600, Control_c, 11, 11, 96
14, 106637, Control_c, 11, 11, 93
14, 106673, Control_c, 11, 11, 91
14, 106710, Control_c, 11, 11, 88
14, 106747, Control_c, 11, 11, 85
14, 106783, Control_c, 11, 11, 83
14, 106820, Control_c, 11, 11, 80
14, 106857, Control_c, 11, 11, 77
14, 106893, Control_c, 11, 11, 75
14, 106919, Note_on_c, 11, 61, 0
14, 106920, Note_on_c, 11, 60, 84
14, 106930, Control_c, 11, 11, 72
14, 106967, Control_c, 11, 11, 69
14, 107003, Control_c, 11, 11, 64
14, 107024, Note_on_c, 11, 60, 0
14, 107040, Note_on_c, 11, 59, 84
14, 107639, Note_on_c, 11, 59, 0
14, 107640, Note_on_c, 11, 61, 84
14, 107699, Note_on_c, 11, 61, 0
14, 107700, Note_on_c, 11, 63, 84
14, 107759, Note_on_c, 11, 63, 0
14, 107760, Note_on_c, 11, 64, 84
14, 107999, Note_on_c, 11, 64, 0
14, 109080, Control_c, 11, 11, 127
14, 109200, Note_on_c, 11, 64, 48
14, 109559, Note_on_c, 11, 64, 0
14, 109560, Note_on_c, 11, 68, 48
14, 109919, Note_on_c, 11, 68, 0
14, 109920, Note_on_c, 11, 71, 48
14, 110279, Note_on_c, 11, 71, 0
14, 110280, Note_on_c, 11, 59, 48
14, 110624, Note_on_c, 11, 59, 0
14, 110640, Note_on_c, 11, 76, 76
14, 110640, Note_on_c, 11, 71, 76
14, 110640, Note_on_c, 11, 64, 76
14, 110879, Note_on_c, 11, 71, 0
14, 110879, Note_on_c, 11, 64, 0
14, 110984, Note_on_c, 11, 76, 0
14, 111000, Note_on_c, 11, 68, 76
14, 111171, Note_on_c, 11, 68, 0
14, 111180, Note_on_c, 11, 64, 76
14, 111231, Note_on_c, 11, 64, 0
14, 111240, Note_on_c, 11, 64, 76
14, 111344, Note_on_c, 11, 64, 0
14, 111360, Note_on_c, 11, 69, 76
14, 111531, Note_on_c, 11, 69, 0
14, 111540, Note_on_c, 11, 66, 76
14, 111591, Note_on_c, 11, 66, 0
14, 111600, Note_on_c, 11, 66, 76
14, 111704, Note_on_c, 11, 66, 0
14, 111720, Note_on_c, 11, 71, 76
14, 111891, Note_on_c, 11, 71, 0
14, 111900, Note_on_c, 11, 71, 76
14, 111951, Note_on_c, 11, 71, 0
14, 111960, Note_on_c, 11, 71, 76
14, 112064, Note_on_c, 11, 71, 0
14, 112080, Note_on_c, 11, 72, 76
14, 112251, Note_on_c, 11, 72, 0
14, 112260, Note_on_c, 11, 72, 76
14, 112311, Note_on_c, 11, 72, 0
14, 112320, Note_on_c, 11, 67, 76
14, 112424, Note_on_c, 11, 67, 0
14, 112440, Note_on_c, 11, 64, 76
14, 112611, Note_on_c, 11, 64, 0
14, 112620, Note_on_c, 11, 64, 76
14, 112671, Note_on_c, 11, 64, 0
14, 112680, Note_on_c, 11, 60, 76
14, 112784, Note_on_c, 11, 60, 0
14, 112800, Note_on_c, 11, 55, 76
14, 112971, Note_on_c, 11, 55, 0
14, 112980, Note_on_c, 11, 67, 76
14, 113031, Note_on_c, 11, 67, 0
14, 113040, Note_on_c, 11, 64, 76
14, 113144, Note_on_c, 11, 64, 0
14, 113160, Note_on_c, 11, 60, 76
14, 113331, Note_on_c, 11, 60, 0
14, 113340, Note_on_c, 11, 60, 76
14, 113391, Note_on_c, 11, 60, 0
14, 113400, Note_on_c, 11, 55, 76
14, 113504, Note_on_c, 11, 55, 0
14, 113520, Note_on_c, 11, 60, 76
14, 113759, Note_on_c, 11, 60, 0
14, 114060, Note_on_c, 11, 55, 75
14, 114111, Note_on_c, 11, 55, 0
14, 114120, Note_on_c, 11, 55, 73
14, 114224, Note_on_c, 11, 55, 0
14, 114240, Note_on_c, 11, 60, 70
14, 114479, Note_on_c, 11, 60, 0
14, 114780, Note_on_c, 11, 55, 57
14, 114831, Note_on_c, 11, 55, 0
14, 114840, Note_on_c, 11, 55, 55
14, 114944, Note_on_c, 11, 55, 0
14, 114960, Note_on_c, 11, 60, 52
14, 115199, Note_on_c, 11, 60, 0
14, 115680, Note_on_c, 11, 60, 44
14, 115919, Note_on_c, 11, 60, 0
14, 116400, Note_on_c, 11, 60, 44
14, 116400, Note_on_c, 11, 69, 44
14, 116451, Note_on_c, 11, 60, 0
14, 116451, Note_on_c, 11, 69, 0
14, 116460, Note_on_c, 11, 60, 44
14, 116460, Note_on_c, 11, 69, 44
14, 116511, Note_on_c, 11, 60, 0
14, 116511, Note_on_c, 11, 69, 0
14, 116520, Note_on_c, 11, 69, 44
14, 116520, Note_on_c, 11, 60, 44
14, 116571, Note_on_c, 11, 69, 0
14, 116571, Note_on_c, 11, 60, 0
14, 116580, Note_on_c, 11, 69, 44
14, 116580, Note_on_c, 11, 60, 44
14, 116631, Note_on_c, 11, 69, 0
14, 116631, Note_on_c, 11, 60, 0
14, 116640, Note_on_c, 11, 69, 44
14, 116640, Note_on_c, 11, 60, 44
14, 116691, Note_on_c, 11, 69, 0
14, 116691, Note_on_c, 11, 60, 0
14, 116700, Note_on_c, 11, 60, 44
14, 116700, Note_on_c, 11, 69, 44
14, 116751, Note_on_c, 11, 60, 0
14, 116751, Note_on_c, 11, 69, 0
14, 116760, Note_on_c, 11, 69, 44
14, 116760, Note_on_c, 11, 60, 44
14, 116811, Note_on_c, 11, 69, 0
14, 116811, Note_on_c, 11, 60, 0
14, 116820, Note_on_c, 11, 60, 44
14, 116820, Note_on_c, 11, 69, 44
14, 116871, Note_on_c, 11, 60, 0
14, 116871, Note_on_c, 11, 69, 0
14, 116880, Note_on_c, 11, 69, 44
14, 116880, Note_on_c, 11, 60, 44
14, 116931, Note_on_c, 11, 69, 0
14, 116931, Note_on_c, 11, 60, 0
14, 116940, Note_on_c, 11, 69, 44
14, 116940, Note_on_c, 11, 60, 44
14, 116991, Note_on_c, 11, 69, 0
14, 116991, Note_on_c, 11, 60, 0
14, 117000, Note_on_c, 11, 69, 44
14, 117000, Note_on_c, 11, 60, 44
14, 117051, Note_on_c, 11, 69, 0
14, 117051, Note_on_c, 11, 60, 0
14, 117060, Note_on_c, 11, 60, 44
14, 117060, Note_on_c, 11, 69, 44
14, 117111, Note_on_c, 11, 60, 0
14, 117111, Note_on_c, 11, 69, 0
14, 117120, Note_on_c, 11, 60, 44
14, 117120, Note_on_c, 11, 69, 44
14, 117171, Note_on_c, 11, 60, 0
14, 117171, Note_on_c, 11, 69, 0
14, 117180, Note_on_c, 11, 60, 44
14, 117180, Note_on_c, 11, 69, 44
14, 117231, Note_on_c, 11, 60, 0
14, 117231, Note_on_c, 11, 69, 0
14, 117240, Note_on_c, 11, 69, 44
14, 117240, Note_on_c, 11, 60, 44
14, 117291, Note_on_c, 11, 69, 0
14, 117291, Note_on_c, 11, 60, 0
14, 117300, Note_on_c, 11, 60, 44
14, 117300, Note_on_c, 11, 69, 44
14, 117351, Note_on_c, 11, 60, 0
14, 117351, Note_on_c, 11, 69, 0
14, 117360, Note_on_c, 11, 69, 44
14, 117360, Note_on_c, 11, 60, 44
14, 117411, Note_on_c, 11, 69, 0
14, 117411, Note_on_c, 11, 60, 0
14, 117420, Note_on_c, 11, 69, 44
14, 117420, Note_on_c, 11, 60, 44
14, 117471, Note_on_c, 11, 69, 0
14, 117471, Note_on_c, 11, 60, 0
14, 117480, Note_on_c, 11, 60, 44
14, 117480, Note_on_c, 11, 69, 44
14, 117531, Note_on_c, 11, 60, 0
14, 117531, Note_on_c, 11, 69, 0
14, 117540, Note_on_c, 11, 60, 44
14, 117540, Note_on_c, 11, 69, 44
14, 117591, Note_on_c, 11, 60, 0
14, 117591, Note_on_c, 11, 69, 0
14, 117600, Note_on_c, 11, 69, 44
14, 117600, Note_on_c, 11, 60, 44
14, 117651, Note_on_c, 11, 69, 0
14, 117651, Note_on_c, 11, 60, 0
14, 117660, Note_on_c, 11, 60, 44
14, 117660, Note_on_c, 11, 69, 44
14, 117711, Note_on_c, 11, 60, 0
14, 117711, Note_on_c, 11, 69, 0
14, 117720, Note_on_c, 11, 60, 44
14, 117720, Note_on_c, 11, 69, 44
14, 117771, Note_on_c, 11, 60, 0
14, 117771, Note_on_c, 11, 69, 0
14, 117780, Note_on_c, 11, 60, 44
14, 117780, Note_on_c, 11, 69, 44
14, 117831, Note_on_c, 11, 60, 0
14, 117831, Note_on_c, 11, 69, 0
14, 117840, Note_on_c, 11, 60, 44
14, 117840, Note_on_c, 11, 69, 44
14, 117891, Note_on_c, 11, 60, 0
14, 117891, Note_on_c, 11, 69, 0
14, 117900, Note_on_c, 11, 60, 44
14, 117900, Note_on_c, 11, 69, 44
14, 117951, Note_on_c, 11, 60, 0
14, 117951, Note_on_c, 11, 69, 0
14, 117960, Note_on_c, 11, 60, 44
14, 117960, Note_on_c, 11, 69, 44
14, 118011, Note_on_c, 11, 60, 0
14, 118011, Note_on_c, 11, 69, 0
14, 118020, Note_on_c, 11, 69, 44
14, 118020, Note_on_c, 11, 60, 44
14, 118071, Note_on_c, 11, 69, 0
14, 118071, Note_on_c, 11, 60, 0
14, 118080, Note_on_c, 11, 69, 44
14, 118080, Note_on_c, 11, 60, 44
14, 118131, Note_on_c, 11, 69, 0
14, 118131, Note_on_c, 11, 60, 0
14, 118140, Note_on_c, 11, 69, 44
14, 118140, Note_on_c, 11, 60, 44
14, 118191, Note_on_c, 11, 69, 0
14, 118191, Note_on_c, 11, 60, 0
14, 118200, Note_on_c, 11, 60, 44
14, 118200, Note_on_c, 11, 69, 44
14, 118251, Note_on_c, 11, 60, 0
14, 118251, Note_on_c, 11, 69, 0
14, 118260, Note_on_c, 11, 69, 44
14, 118260, Note_on_c, 11, 60, 44
14, 118311, Note_on_c, 11, 69, 0
14, 118311, Note_on_c, 11, 60, 0
14, 118320, Note_on_c, 11, 60, 44
14, 118320, Note_on_c, 11, 69, 44
14, 118371, Note_on_c, 11, 60, 0
14, 118371, Note_on_c, 11, 69, 0
14, 118380, Note_on_c, 11, 69, 44
14, 118380, Note_on_c, 11, 60, 44
14, 118431, Note_on_c, 11, 69, 0
14, 118431, Note_on_c, 11, 60, 0
14, 118440, Note_on_c, 11, 60, 44
14, 118440, Note_on_c, 11, 69, 44
14, 118491, Note_on_c, 11, 60, 0
14, 118491, Note_on_c, 11, 69, 0
14, 118500, Note_on_c, 11, 69, 44
14, 118500, Note_on_c, 11, 60, 44
14, 118551, Note_on_c, 11, 69, 0
14, 118551, Note_on_c, 11, 60, 0
14, 118560, Note_on_c, 11, 69, 44
14, 118560, Note_on_c, 11, 60, 44
14, 118611, Note_on_c, 11, 69, 0
14, 118611, Note_on_c, 11, 60, 0
14, 118620, Note_on_c, 11, 69, 44
14, 118620, Note_on_c, 11, 60, 44
14, 118671, Note_on_c, 11, 69, 0
14, 118671, Note_on_c, 11, 60, 0
14, 118680, Note_on_c, 11, 60, 44
14, 118680, Note_on_c, 11, 69, 44
14, 118731, Note_on_c, 11, 60, 0
14, 118731, Note_on_c, 11, 69, 0
14, 118740, Note_on_c, 11, 69, 44
14, 118740, Note_on_c, 11, 60, 44
14, 118791, Note_on_c, 11, 69, 0
14, 118791, Note_on_c, 11, 60, 0
14, 118800, Note_on_c, 11, 60, 44
14, 118800, Note_on_c, 11, 69, 44
14, 118851, Note_on_c, 11, 60, 0
14, 118851, Note_on_c, 11, 69, 0
14, 118860, Note_on_c, 11, 69, 44
14, 118860, Note_on_c, 11, 60, 44
14, 118911, Note_on_c, 11, 69, 0
14, 118911, Note_on_c, 11, 60, 0
14, 118920, Note_on_c, 11, 69, 44
14, 118920, Note_on_c, 11, 60, 44
14, 118971, Note_on_c, 11, 69, 0
14, 118971, Note_on_c, 11, 60, 0
14, 118980, Note_on_c, 11, 60, 44
14, 118980, Note_on_c, 11, 69, 44
14, 119031, Note_on_c, 11, 60, 0
14, 119031, Note_on_c, 11, 69, 0
14, 119040, Note_on_c, 11, 60, 44
14, 119040, Note_on_c, 11, 69, 44
14, 119091, Note_on_c, 11, 60, 0
14, 119091, Note_on_c, 11, 69, 0
14, 119100, Note_on_c, 11, 60, 44
14, 119100, Note_on_c, 11, 69, 44
14, 119151, Note_on_c, 11, 60, 0
14, 119151, Note_on_c, 11, 69, 0
14, 119160, Note_on_c, 11, 69, 44
14, 119160, Note_on_c, 11, 60, 44
14, 119211, Note_on_c, 11, 69, 0
14, 119211, Note_on_c, 11, 60, 0
14, 119220, Note_on_c, 11, 60, 44
14, 119220, Note_on_c, 11, 69, 44
14, 119271, Note_on_c, 11, 60, 0
14, 119271, Note_on_c, 11, 69, 0
14, 119280, Note_on_c, 11, 59, 44
14, 119280, Note_on_c, 11, 69, 44
14, 119331, Note_on_c, 11, 59, 0
14, 119331, Note_on_c, 11, 69, 0
14, 119340, Note_on_c, 11, 59, 44
14, 119391, Note_on_c, 11, 59, 0
14, 119400, Note_on_c, 11, 59, 45
14, 119451, Note_on_c, 11, 59, 0
14, 119460, Note_on_c, 11, 59, 45
14, 119511, Note_on_c, 11, 59, 0
14, 119520, Note_on_c, 11, 59, 46
14, 119571, Note_on_c, 11, 59, 0
14, 119580, Note_on_c, 11, 59, 46
14, 119631, Note_on_c, 11, 59, 0
14, 119640, Note_on_c, 11, 59, 47
14, 119691, Note_on_c, 11, 59, 0
14, 119700, Note_on_c, 11, 69, 47
14, 119751, Note_on_c, 11, 69, 0
14, 119760, Note_on_c, 11, 69, 48
14, 119811, Note_on_c, 11, 69, 0
14, 119820, Note_on_c, 11, 69, 49
14, 119871, Note_on_c, 11, 69, 0
14, 119880, Note_on_c, 11, 68, 49
14, 119931, Note_on_c, 11, 68, 0
14, 119940, Note_on_c, 11, 69, 50
14, 119991, Note_on_c, 11, 69, 0
14, 120000, Note_on_c, 11, 71, 50
14, 120051, Note_on_c, 11, 71, 0
14, 120060, Note_on_c, 11, 59, 51
14, 120111, Note_on_c, 11, 59, 0
14, 120120, Note_on_c, 11, 59, 51
14, 120171, Note_on_c, 11, 59, 0
14, 120180, Note_on_c, 11, 59, 52
14, 120231, Note_on_c, 11, 59, 0
14, 120240, Note_on_c, 11, 59, 52
14, 120291, Note_on_c, 11, 59, 0
14, 120300, Note_on_c, 11, 59, 53
14, 120351, Note_on_c, 11, 59, 0
14, 120360, Note_on_c, 11, 59, 54
14, 120411, Note_on_c, 11, 59, 0
14, 120420, Note_on_c, 11, 71, 54
14, 120471, Note_on_c, 11, 71, 0
14, 120480, Note_on_c, 11, 71, 55
14, 120531, Note_on_c, 11, 71, 0
14, 120540, Note_on_c, 11, 71, 55
14, 120591, Note_on_c, 11, 71, 0
14, 120600, Note_on_c, 11, 69, 56
14, 120651, Note_on_c, 11, 69, 0
14, 120660, Note_on_c, 11, 71, 56
14, 120711, Note_on_c, 11, 71, 0
14, 120720, Note_on_c, 11, 73, 57
14, 120771, Note_on_c, 11, 73, 0
14, 120780, Note_on_c, 11, 61, 57
14, 120831, Note_on_c, 11, 61, 0
14, 120840, Note_on_c, 11, 61, 58
14, 120891, Note_on_c, 11, 61, 0
14, 120900, Note_on_c, 11, 61, 59
14, 120951, Note_on_c, 11, 61, 0
14, 120960, Note_on_c, 11, 61, 59
14, 121011, Note_on_c, 11, 61, 0
14, 121020, Note_on_c, 11, 61, 60
14, 121071, Note_on_c, 11, 61, 0
14, 121080, Note_on_c, 11, 61, 60
14, 121131, Note_on_c, 11, 61, 0
14, 121140, Note_on_c, 11, 73, 61
14, 121191, Note_on_c, 11, 73, 0
14, 121200, Note_on_c, 11, 73, 61
14, 121251, Note_on_c, 11, 73, 0
14, 121260, Note_on_c, 11, 73, 62
14, 121311, Note_on_c, 11, 73, 0
14, 121320, Note_on_c, 11, 71, 62
14, 121371, Note_on_c, 11, 71, 0
14, 121380, Note_on_c, 11, 73, 63
14, 121431, Note_on_c, 11, 73, 0
14, 121440, Note_on_c, 11, 75, 64
14, 121491, Note_on_c, 11, 75, 0
14, 121500, Note_on_c, 11, 63, 64
14, 121551, Note_on_c, 11, 63, 0
14, 121560, Note_on_c, 11, 63, 65
14, 121611, Note_on_c, 11, 63, 0
14, 121620, Note_on_c, 11, 63, 65
14, 121671, Note_on_c, 11, 63, 0
14, 121680, Note_on_c, 11, 63, 66
14, 121731, Note_on_c, 11, 63, 0
14, 121740, Note_on_c, 11, 63, 66
14, 121791, Note_on_c, 11, 63, 0
14, 121800, Note_on_c, 11, 63, 67
14, 121851, Note_on_c, 11, 63, 0
14, 121860, Note_on_c, 11, 75, 67
14, 121911, Note_on_c, 11, 75, 0
14, 121920, Note_on_c, 11, 75, 68
14, 121971, Note_on_c, 11, 75, 0
14, 121980, Note_on_c, 11, 75, 69
14, 122031, Note_on_c, 11, 75, 0
14, 122040, Note_on_c, 11, 73, 69
14, 122091, Note_on_c, 11, 73, 0
14, 122100, Note_on_c, 11, 75, 70
14, 122151, Note_on_c, 11, 75, 0
14, 122160, Note_on_c, 11, 76, 70
14, 122211, Note_on_c, 11, 76, 0
14, 122220, Note_on_c, 11, 64, 71
14, 122271, Note_on_c, 11, 64, 0
14, 122280, Note_on_c, 11, 64, 71
14, 122331, Note_on_c, 11, 64, 0
14, 122340, Note_on_c, 11, 64, 72
14, 122391, Note_on_c, 11, 64, 0
14, 122400, Note_on_c, 11, 64, 72
14, 122451, Note_on_c, 11, 64, 0
14, 122460, Note_on_c, 11, 64, 73
14, 122511, Note_on_c, 11, 64, 0
14, 122520, Note_on_c, 11, 64, 74
14, 122571, Note_on_c, 11, 64, 0
14, 122580, Note_on_c, 11, 76, 74
14, 122631, Note_on_c, 11, 76, 0
14, 122640, Note_on_c, 11, 76, 75
14, 122691, Note_on_c, 11, 76, 0
14, 122700, Note_on_c, 11, 76, 75
14, 122751, Note_on_c, 11, 76, 0
14, 122760, Note_on_c, 11, 75, 76
14, 122811, Note_on_c, 11, 75, 0
14, 122820, Note_on_c, 11, 76, 76
14, 122871, Note_on_c, 11, 76, 0
14, 122880, Note_on_c, 11, 78, 77
14, 122931, Note_on_c, 11, 78, 0
14, 122940, Note_on_c, 11, 66, 77
14, 122991, Note_on_c, 11, 66, 0
14, 123000, Note_on_c, 11, 66, 78
14, 123051, Note_on_c, 11, 66, 0
14, 123060, Note_on_c, 11, 66, 79
14, 123111, Note_on_c, 11, 66, 0
14, 123120, Note_on_c, 11, 66, 79
14, 123171, Note_on_c, 11, 66, 0
14, 123180, Note_on_c, 11, 66, 80
14, 123231, Note_on_c, 11, 66, 0
14, 123240, Note_on_c, 11, 66, 80
14, 123291, Note_on_c, 11, 66, 0
14, 123300, Note_on_c, 11, 78, 81
14, 123351, Note_on_c, 11, 78, 0
14, 123360, Note_on_c, 11, 78, 81
14, 123411, Note_on_c, 11, 78, 0
14, 123420, Note_on_c, 11, 78, 82
14, 123471, Note_on_c, 11, 78, 0
14, 123480, Note_on_c, 11, 76, 82
14, 123531, Note_on_c, 11, 76, 0
14, 123540, Note_on_c, 11, 78, 83
14, 123591, Note_on_c, 11, 78, 0
14, 123600, Note_on_c, 11, 80, 84
14, 123651, Note_on_c, 11, 80, 0
14, 123660, Note_on_c, 11, 88, 84
14, 123660, Note_on_c, 11, 76, 84
14, 123711, Note_on_c, 11, 88, 0
14, 123711, Note_on_c, 11, 76, 0
14, 123720, Note_on_c, 11, 88, 84
14, 123720, Note_on_c, 11, 76, 84
14, 123771, Note_on_c, 11, 88, 0
14, 123771, Note_on_c, 11, 76, 0
14, 123780, Note_on_c, 11, 76, 84
14, 123780, Note_on_c, 11, 88, 84
14, 123831, Note_on_c, 11, 76, 0
14, 123831, Note_on_c, 11, 88, 0
14, 123840, Note_on_c, 11, 76, 84
14, 123840, Note_on_c, 11, 88, 84
14, 123891, Note_on_c, 11, 76, 0
14, 123891, Note_on_c, 11, 88, 0
14, 123900, Note_on_c, 11, 88, 84
14, 123900, Note_on_c, 11, 76, 84
14, 123951, Note_on_c, 11, 88, 0
14, 123951, Note_on_c, 11, 76, 0
14, 123960, Note_on_c, 11, 76, 84
14, 123960, Note_on_c, 11, 88, 84
14, 124011, Note_on_c, 11, 76, 0
14, 124011, Note_on_c, 11, 88, 0
14, 124020, Note_on_c, 11, 88, 84
14, 124020, Note_on_c, 11, 76, 84
14, 124071, Note_on_c, 11, 88, 0
14, 124071, Note_on_c, 11, 76, 0
14, 124080, Note_on_c, 11, 76, 84
14, 124080, Note_on_c, 11, 88, 84
14, 124131, Note_on_c, 11, 76, 0
14, 124131, Note_on_c, 11, 88, 0
14, 124140, Note_on_c, 11, 76, 84
14, 124140, Note_on_c, 11, 88, 84
14, 124191, Note_on_c, 11, 76, 0
14, 124191, Note_on_c, 11, 88, 0
14, 124200, Note_on_c, 11, 76, 84
14, 124200, Note_on_c, 11, 88, 84
14, 124251, Note_on_c, 11, 76, 0
14, 124251, Note_on_c, 11, 88, 0
14, 124260, Note_on_c, 11, 76, 84
14, 124260, Note_on_c, 11, 88, 84
14, 124311, Note_on_c, 11, 76, 0
14, 124311, Note_on_c, 11, 88, 0
14, 124320, Note_on_c, 11, 76, 84
14, 124320, Note_on_c, 11, 88, 84
14, 124371, Note_on_c, 11, 76, 0
14, 124371, Note_on_c, 11, 88, 0
14, 124380, Note_on_c, 11, 88, 84
14, 124380, Note_on_c, 11, 76, 84
14, 124431, Note_on_c, 11, 88, 0
14, 124431, Note_on_c, 11, 76, 0
14, 124440, Note_on_c, 11, 76, 84
14, 124440, Note_on_c, 11, 88, 84
14, 124491, Note_on_c, 11, 76, 0
14, 124491, Note_on_c, 11, 88, 0
14, 124500, Note_on_c, 11, 88, 84
14, 124500, Note_on_c, 11, 76, 84
14, 124551, Note_on_c, 11, 88, 0
14, 124551, Note_on_c, 11, 76, 0
14, 124560, Note_on_c, 11, 88, 84
14, 124560, Note_on_c, 11, 76, 84
14, 124611, Note_on_c, 11, 88, 0
14, 124611, Note_on_c, 11, 76, 0
14, 124620, Note_on_c, 11, 88, 84
14, 124620, Note_on_c, 11, 76, 84
14, 124671, Note_on_c, 11, 88, 0
14, 124671, Note_on_c, 11, 76, 0
14, 124680, Note_on_c, 11, 88, 84
14, 124680, Note_on_c, 11, 76, 84
14, 124731, Note_on_c, 11, 88, 0
14, 124731, Note_on_c, 11, 76, 0
14, 124740, Note_on_c, 11, 88, 84
14, 124740, Note_on_c, 11, 76, 84
14, 124791, Note_on_c, 11, 88, 0
14, 124791, Note_on_c, 11, 76, 0
14, 124800, Note_on_c, 11, 76, 84
14, 124800, Note_on_c, 11, 88, 84
14, 124851, Note_on_c, 11, 76, 0
14, 124851, Note_on_c, 11, 88, 0
14, 124860, Note_on_c, 11, 76, 84
14, 124860, Note_on_c, 11, 88, 84
14, 124911, Note_on_c, 11, 76, 0
14, 124911, Note_on_c, 11, 88, 0
14, 124920, Note_on_c, 11, 76, 84
14, 124920, Note_on_c, 11, 88, 84
14, 124971, Note_on_c, 11, 76, 0
14, 124971, Note_on_c, 11, 88, 0
14, 124980, Note_on_c, 11, 76, 84
14, 124980, Note_on_c, 11, 88, 84
14, 125031, Note_on_c, 11, 76, 0
14, 125031, Note_on_c, 11, 88, 0
14, 125040, Note_on_c, 11, 88, 84
14, 125040, Note_on_c, 11, 76, 84
14, 125091, Note_on_c, 11, 88, 0
14, 125091, Note_on_c, 11, 76, 0
14, 125100, Note_on_c, 11, 76, 84
14, 125100, Note_on_c, 11, 88, 84
14, 125151, Note_on_c, 11, 76, 0
14, 125151, Note_on_c, 11, 88, 0
14, 125160, Note_on_c, 11, 88, 84
14, 125160, Note_on_c, 11, 76, 84
14, 125211, Note_on_c, 11, 88, 0
14, 125211, Note_on_c, 11, 76, 0
14, 125220, Note_on_c, 11, 76, 84
14, 125220, Note_on_c, 11, 88, 84
14, 125271, Note_on_c, 11, 76, 0
14, 125271, Note_on_c, 11, 88, 0
14, 125280, Note_on_c, 11, 76, 84
14, 125280, Note_on_c, 11, 88, 84
14, 125331, Note_on_c, 11, 76, 0
14, 125331, Note_on_c, 11, 88, 0
14, 125340, Note_on_c, 11, 76, 84
14, 125340, Note_on_c, 11, 88, 84
14, 125391, Note_on_c, 11, 76, 0
14, 125391, Note_on_c, 11, 88, 0
14, 125400, Note_on_c, 11, 76, 84
14, 125400, Note_on_c, 11, 88, 84
14, 125451, Note_on_c, 11, 76, 0
14, 125451, Note_on_c, 11, 88, 0
14, 125460, Note_on_c, 11, 88, 84
14, 125460, Note_on_c, 11, 76, 84
14, 125511, Note_on_c, 11, 88, 0
14, 125511, Note_on_c, 11, 76, 0
14, 125520, Note_on_c, 11, 88, 84
14, 125520, Note_on_c, 11, 76, 84
14, 125571, Note_on_c, 11, 88, 0
14, 125571, Note_on_c, 11, 76, 0
14, 125580, Note_on_c, 11, 76, 84
14, 125580, Note_on_c, 11, 88, 84
14, 125631, Note_on_c, 11, 76, 0
14, 125631, Note_on_c, 11, 88, 0
14, 125640, Note_on_c, 11, 76, 84
14, 125640, Note_on_c, 11, 88, 84
14, 125691, Note_on_c, 11, 76, 0
14, 125691, Note_on_c, 11, 88, 0
14, 125700, Note_on_c, 11, 76, 84
14, 125700, Note_on_c, 11, 88, 84
14, 125751, Note_on_c, 11, 76, 0
14, 125751, Note_on_c, 11, 88, 0
14, 125760, Note_on_c, 11, 88, 84
14, 125760, Note_on_c, 11, 76, 84
14, 125811, Note_on_c, 11, 88, 0
14, 125811, Note_on_c, 11, 76, 0
14, 125820, Note_on_c, 11, 76, 84
14, 125820, Note_on_c, 11, 88, 84
14, 125871, Note_on_c, 11, 76, 0
14, 125871, Note_on_c, 11, 88, 0
14, 125880, Note_on_c, 11, 88, 84
14, 125880, Note_on_c, 11, 76, 84
14, 125931, Note_on_c, 11, 88, 0
14, 125931, Note_on_c, 11, 76, 0
14, 125940, Note_on_c, 11, 88, 84
14, 125940, Note_on_c, 11, 76, 84
14, 125991, Note_on_c, 11, 88, 0
14, 125991, Note_on_c, 11, 76, 0
14, 126000, Note_on_c, 11, 88, 84
14, 126000, Note_on_c, 11, 76, 84
14, 126051, Note_on_c, 11, 88, 0
14, 126051, Note_on_c, 11, 76, 0
14, 126060, Note_on_c, 11, 88, 84
14, 126060, Note_on_c, 11, 76, 84
14, 126111, Note_on_c, 11, 88, 0
14, 126111, Note_on_c, 11, 76, 0
14, 126120, Note_on_c, 11, 76, 84
14, 126120, Note_on_c, 11, 88, 84
14, 126171, Note_on_c, 11, 76, 0
14, 126171, Note_on_c, 11, 88, 0
14, 126180, Note_on_c, 11, 88, 84
14, 126180, Note_on_c, 11, 76, 84
14, 126231, Note_on_c, 11, 88, 0
14, 126231, Note_on_c, 11, 76, 0
14, 126240, Note_on_c, 11, 88, 84
14, 126240, Note_on_c, 11, 76, 84
14, 126291, Note_on_c, 11, 88, 0
14, 126291, Note_on_c, 11, 76, 0
14, 126300, Note_on_c, 11, 88, 84
14, 126300, Note_on_c, 11, 76, 84
14, 126351, Note_on_c, 11, 88, 0
14, 126351, Note_on_c, 11, 76, 0
14, 126360, Note_on_c, 11, 76, 84
14, 126360, Note_on_c, 11, 88, 84
14, 126411, Note_on_c, 11, 76, 0
14, 126411, Note_on_c, 11, 88, 0
14, 126420, Note_on_c, 11, 76, 84
14, 126420, Note_on_c, 11, 88, 84
14, 126471, Note_on_c, 11, 76, 0
14, 126471, Note_on_c, 11, 88, 0
14, 126840, Note_on_c, 11, 60, 44
14, 126891, Note_on_c, 11, 60, 0
14, 126900, Note_on_c, 11, 60, 44
14, 126951, Note_on_c, 11, 60, 0
14, 126960, Note_on_c, 11, 60, 44
14, 127011, Note_on_c, 11, 60, 0
14, 127020, Note_on_c, 11, 60, 44
14, 127071, Note_on_c, 11, 60, 0
14, 127080, Note_on_c, 11, 60, 44
14, 127131, Note_on_c, 11, 60, 0
14, 127140, Note_on_c, 11, 60, 44
14, 127191, Note_on_c, 11, 60, 0
14, 127200, Note_on_c, 11, 59, 44
14, 127251, Note_on_c, 11, 59, 0
14, 127260, Note_on_c, 11, 63, 47
14, 127311, Note_on_c, 11, 63, 0
14, 127320, Note_on_c, 11, 63, 50
14, 127371, Note_on_c, 11, 63, 0
14, 127380, Note_on_c, 11, 71, 54
14, 127431, Note_on_c, 11, 71, 0
14, 127440, Note_on_c, 11, 71, 57
14, 127491, Note_on_c, 11, 71, 0
14, 127500, Note_on_c, 11, 71, 60
14, 127551, Note_on_c, 11, 71, 0
14, 127560, Note_on_c, 11, 71, 64
14, 127611, Note_on_c, 11, 71, 0
14, 127620, Note_on_c, 11, 71, 67
14, 127671, Note_on_c, 11, 71, 0
14, 127680, Note_on_c, 11, 71, 70
14, 127731, Note_on_c, 11, 71, 0
14, 127740, Note_on_c, 11, 71, 74
14, 127791, Note_on_c, 11, 71, 0
14, 127800, Note_on_c, 11, 73, 77
14, 127851, Note_on_c, 11, 73, 0
14, 127860, Note_on_c, 11, 75, 80
14, 127911, Note_on_c, 11, 75, 0
14, 127920, Note_on_c, 11, 76, 84
14, 127971, Note_on_c, 11, 76, 0
14, 127980, Note_on_c, 11, 88, 84
14, 127980, Note_on_c, 11, 76, 84
14, 128031, Note_on_c, 11, 88, 0
14, 128031, Note_on_c, 11, 76, 0
14, 128040, Note_on_c, 11, 76, 84
14, 128040, Note_on_c, 11, 88, 84
14, 128091, Note_on_c, 11, 76, 0
14, 128091, Note_on_c, 11, 88, 0
14, 128100, Note_on_c, 11, 88, 84
14, 128100, Note_on_c, 11, 76, 84
14, 128151, Note_on_c, 11, 88, 0
14, 128151, Note_on_c, 11, 76, 0
14, 128160, Note_on_c, 11, 88, 84
14, 128160, Note_on_c, 11, 76, 84
14, 128211, Note_on_c, 11, 88, 0
14, 128211, Note_on_c, 11, 76, 0
14, 128220, Note_on_c, 11, 88, 84
14, 128220, Note_on_c, 11, 76, 84
14, 128271, Note_on_c, 11, 88, 0
14, 128271, Note_on_c, 11, 76, 0
14, 128280, Note_on_c, 11, 88, 84
14, 128280, Note_on_c, 11, 76, 84
14, 128331, Note_on_c, 11, 88, 0
14, 128331, Note_on_c, 11, 76, 0
14, 128340, Note_on_c, 11, 76, 84
14, 128340, Note_on_c, 11, 88, 84
14, 128391, Note_on_c, 11, 76, 0
14, 128391, Note_on_c, 11, 88, 0
14, 128400, Note_on_c, 11, 88, 84
14, 128400, Note_on_c, 11, 76, 84
14, 128451, Note_on_c, 11, 88, 0
14, 128451, Note_on_c, 11, 76, 0
14, 128460, Note_on_c, 11, 88, 84
14, 128460, Note_on_c, 11, 76, 84
14, 128511, Note_on_c, 11, 88, 0
14, 128511, Note_on_c, 11, 76, 0
14, 128520, Note_on_c, 11, 76, 84
14, 128520, Note_on_c, 11, 88, 84
14, 128571, Note_on_c, 11, 76, 0
14, 128571, Note_on_c, 11, 88, 0
14, 128580, Note_on_c, 11, 76, 84
14, 128580, Note_on_c, 11, 88, 84
14, 128631, Note_on_c, 11, 76, 0
14, 128631, Note_on_c, 11, 88, 0
14, 128640, Note_on_c, 11, 76, 84
14, 128640, Note_on_c, 11, 88, 84
14, 128691, Note_on_c, 11, 76, 0
14, 128691, Note_on_c, 11, 88, 0
14, 128700, Note_on_c, 11, 76, 84
14, 128700, Note_on_c, 11, 88, 84
14, 128751, Note_on_c, 11, 76, 0
14, 128751, Note_on_c, 11, 88, 0
14, 128760, Note_on_c, 11, 88, 84
14, 128760, Note_on_c, 11, 76, 84
14, 128811, Note_on_c, 11, 88, 0
14, 128811, Note_on_c, 11, 76, 0
14, 128820, Note_on_c, 11, 76, 84
14, 128820, Note_on_c, 11, 88, 84
14, 128871, Note_on_c, 11, 76, 0
14, 128871, Note_on_c, 11, 88, 0
14, 128880, Note_on_c, 11, 88, 84
14, 128880, Note_on_c, 11, 76, 84
14, 128931, Note_on_c, 11, 88, 0
14, 128931, Note_on_c, 11, 76, 0
14, 128940, Note_on_c, 11, 88, 84
14, 128940, Note_on_c, 11, 76, 84
14, 128991, Note_on_c, 11, 88, 0
14, 128991, Note_on_c, 11, 76, 0
14, 129000, Note_on_c, 11, 88, 84
14, 129000, Note_on_c, 11, 76, 84
14, 129051, Note_on_c, 11, 88, 0
14, 129051, Note_on_c, 11, 76, 0
14, 129060, Note_on_c, 11, 88, 84
14, 129060, Note_on_c, 11, 76, 84
14, 129111, Note_on_c, 11, 88, 0
14, 129111, Note_on_c, 11, 76, 0
14, 129120, Note_on_c, 11, 88, 84
14, 129120, Note_on_c, 11, 76, 84
14, 129171, Note_on_c, 11, 88, 0
14, 129171, Note_on_c, 11, 76, 0
14, 129180, Note_on_c, 11, 76, 84
14, 129180, Note_on_c, 11, 88, 84
14, 129231, Note_on_c, 11, 76, 0
14, 129231, Note_on_c, 11, 88, 0
14, 129240, Note_on_c, 11, 88, 84
14, 129240, Note_on_c, 11, 76, 84
14, 129291, Note_on_c, 11, 88, 0
14, 129291, Note_on_c, 11, 76, 0
14, 129300, Note_on_c, 11, 88, 84
14, 129300, Note_on_c, 11, 76, 84
14, 129351, Note_on_c, 11, 88, 0
14, 129351, Note_on_c, 11, 76, 0
14, 129360, Note_on_c, 11, 76, 84
14, 129360, Note_on_c, 11, 88, 84
14, 129411, Note_on_c, 11, 76, 0
14, 129411, Note_on_c, 11, 88, 0
14, 129420, Note_on_c, 11, 88, 84
14, 129420, Note_on_c, 11, 76, 84
14, 129471, Note_on_c, 11, 88, 0
14, 129471, Note_on_c, 11, 76, 0
14, 129480, Note_on_c, 11, 88, 84
14, 129480, Note_on_c, 11, 76, 84
14, 129531, Note_on_c, 11, 88, 0
14, 129531, Note_on_c, 11, 76, 0
14, 129540, Note_on_c, 11, 88, 84
14, 129540, Note_on_c, 11, 76, 84
14, 129591, Note_on_c, 11, 88, 0
14, 129591, Note_on_c, 11, 76, 0
14, 129600, Note_on_c, 11, 76, 84
14, 129600, Note_on_c, 11, 88, 84
14, 129651, Note_on_c, 11, 76, 0
14, 129651, Note_on_c, 11, 88, 0
14, 129660, Note_on_c, 11, 88, 84
14, 129660, Note_on_c, 11, 76, 84
14, 129711, Note_on_c, 11, 88, 0
14, 129711, Note_on_c, 11, 76, 0
14, 129720, Note_on_c, 11, 88, 84
14, 129720, Note_on_c, 11, 76, 84
14, 129771, Note_on_c, 11, 88, 0
14, 129771, Note_on_c, 11, 76, 0
14, 129780, Note_on_c, 11, 88, 84
14, 129780, Note_on_c, 11, 76, 84
14, 129831, Note_on_c, 11, 88, 0
14, 129831, Note_on_c, 11, 76, 0
14, 129840, Note_on_c, 11, 88, 84
14, 129840, Note_on_c, 11, 76, 84
14, 129891, Note_on_c, 11, 88, 0
14, 129891, Note_on_c, 11, 76, 0
14, 129900, Note_on_c, 11, 88, 84
14, 129900, Note_on_c, 11, 76, 84
14, 129951, Note_on_c, 11, 88, 0
14, 129951, Note_on_c, 11, 76, 0
14, 129960, Note_on_c, 11, 76, 84
14, 129960, Note_on_c, 11, 88, 84
14, 130011, Note_on_c, 11, 76, 0
14, 130011, Note_on_c, 11, 88, 0
14, 130020, Note_on_c, 11, 88, 84
14, 130020, Note_on_c, 11, 76, 84
14, 130071, Note_on_c, 11, 88, 0
14, 130071, Note_on_c, 11, 76, 0
14, 130080, Note_on_c, 11, 76, 84
14, 130080, Note_on_c, 11, 88, 84
14, 130131, Note_on_c, 11, 76, 0
14, 130131, Note_on_c, 11, 88, 0
14, 130140, Note_on_c, 11, 76, 84
14, 130140, Note_on_c, 11, 88, 84
14, 130191, Note_on_c, 11, 76, 0
14, 130191, Note_on_c, 11, 88, 0
14, 130200, Note_on_c, 11, 76, 84
14, 130200, Note_on_c, 11, 88, 84
14, 130251, Note_on_c, 11, 76, 0
14, 130251, Note_on_c, 11, 88, 0
14, 130260, Note_on_c, 11, 76, 84
14, 130260, Note_on_c, 11, 88, 84
14, 130311, Note_on_c, 11, 76, 0
14, 130311, Note_on_c, 11, 88, 0
14, 130320, Note_on_c, 11, 88, 84
14, 130320, Note_on_c, 11, 76, 84
14, 130371, Note_on_c, 11, 88, 0
14, 130371, Note_on_c, 11, 76, 0
14, 130380, Note_on_c, 11, 88, 84
14, 130380, Note_on_c, 11, 76, 84
14, 130431, Note_on_c, 11, 88, 0
14, 130431, Note_on_c, 11, 76, 0
14, 130440, Note_on_c, 11, 88, 84
14, 130440, Note_on_c, 11, 76, 84
14, 130491, Note_on_c, 11, 88, 0
14, 130491, Note_on_c, 11, 76, 0
14, 130500, Note_on_c, 11, 88, 84
14, 130500, Note_on_c, 11, 76, 84
14, 130551, Note_on_c, 11, 88, 0
14, 130551, Note_on_c, 11, 76, 0
14, 130560, Note_on_c, 11, 88, 84
14, 130560, Note_on_c, 11, 76, 84
14, 130611, Note_on_c, 11, 88, 0
14, 130611, Note_on_c, 11, 76, 0
14, 130620, Note_on_c, 11, 76, 84
14, 130620, Note_on_c, 11, 88, 84
14, 130671, Note_on_c, 11, 76, 0
14, 130671, Note_on_c, 11, 88, 0
14, 130680, Note_on_c, 11, 88, 84
14, 130680, Note_on_c, 11, 76, 84
14, 130731, Note_on_c, 11, 88, 0
14, 130731, Note_on_c, 11, 76, 0
14, 130740, Note_on_c, 11, 76, 84
14, 130740, Note_on_c, 11, 88, 84
14, 130791, Note_on_c, 11, 76, 0
14, 130791, Note_on_c, 11, 88, 0
14, 130798, Control_c, 11, 11, 48
14, 130800, Note_on_c, 11, 77, 84
14, 131159, Note_on_c, 11, 77, 0
14, 131160, Note_on_c, 11, 72, 84
14, 131519, Note_on_c, 11, 72, 0
14, 131520, Control_c, 11, 11, 48
14, 131520, Note_on_c, 11, 63, 84
14, 131560, Control_c, 11, 11, 52
14, 131600, Control_c, 11, 11, 57
14, 131640, Control_c, 11, 11, 61
14, 131680, Control_c, 11, 11, 66
14, 131720, Control_c, 11, 11, 70
14, 131760, Control_c, 11, 11, 74
14, 131800, Control_c, 11, 11, 79
14, 131840, Control_c, 11, 11, 83
14, 131880, Control_c, 11, 11, 88
14, 131920, Control_c, 11, 11, 92
14, 131960, Control_c, 11, 11, 96
14, 131999, Note_on_c, 11, 63, 0
14, 132000, Control_c, 11, 11, 101
14, 132000, Note_on_c, 11, 71, 84
14, 132040, Control_c, 11, 11, 105
14, 132080, Control_c, 11, 11, 109
14, 132104, Note_on_c, 11, 71, 0
14, 132120, Control_c, 11, 11, 114
14, 132120, Note_on_c, 11, 71, 84
14, 132160, Control_c, 11, 11, 118
14, 132200, Control_c, 11, 11, 123
14, 132209, Note_on_c, 11, 71, 0
14, 132238, Control_c, 11, 11, 127
14, 132240, Note_on_c, 11, 71, 84
14, 132344, Note_on_c, 11, 71, 0
14, 132360, Note_on_c, 11, 59, 84
14, 132411, Note_on_c, 11, 59, 0
14, 132420, Note_on_c, 11, 59, 84
14, 132471, Note_on_c, 11, 59, 0
14, 132480, Note_on_c, 11, 59, 84
14, 132531, Note_on_c, 11, 59, 0
14, 132540, Note_on_c, 11, 59, 84
14, 132591, Note_on_c, 11, 59, 0
14, 132600, Note_on_c, 11, 59, 84
14, 132704, Note_on_c, 11, 59, 0
14, 132720, Note_on_c, 11, 59, 84
14, 132771, Note_on_c, 11, 59, 0
14, 132780, Note_on_c, 11, 59, 84
14, 132831, Note_on_c, 11, 59, 0
14, 132840, Note_on_c, 11, 59, 84
14, 132891, Note_on_c, 11, 59, 0
14, 132900, Note_on_c, 11, 59, 84
14, 132951, Note_on_c, 11, 59, 0
14, 132960, Note_on_c, 11, 59, 84
14, 133064, Note_on_c, 11, 59, 0
14, 133080, Note_on_c, 11, 59, 84
14, 133131, Note_on_c, 11, 59, 0
14, 133140, Note_on_c, 11, 59, 84
14, 133191, Note_on_c, 11, 59, 0
14, 133200, Note_on_c, 11, 59, 84
14, 133251, Note_on_c, 11, 59, 0
14, 133260, Note_on_c, 11, 59, 84
14, 133311, Note_on_c, 11, 59, 0
14, 133320, Note_on_c, 11, 59, 84
14, 133424, Note_on_c, 11, 59, 0
14, 133440, Note_on_c, 11, 59, 84
14, 133491, Note_on_c, 11, 59, 0
14, 133500, Note_on_c, 11, 59, 84
14, 133551, Note_on_c, 11, 59, 0
14, 133560, Note_on_c, 11, 59, 84
14, 133611, Note_on_c, 11, 59, 0
14, 133620, Note_on_c, 11, 59, 84
14, 133671, Note_on_c, 11, 59, 0
14, 133680, Note_on_c, 11, 59, 84
14, 133784, Note_on_c, 11, 59, 0
14, 133800, Note_on_c, 11, 59, 84
14, 133851, Note_on_c, 11, 59, 0
14, 133860, Note_on_c, 11, 59, 84
14, 133911, Note_on_c, 11, 59, 0
14, 133920, Note_on_c, 11, 59, 84
14, 133971, Note_on_c, 11, 59, 0
14, 133980, Note_on_c, 11, 59, 84
14, 134031, Note_on_c, 11, 59, 0
14, 134040, Note_on_c, 11, 59, 84
14, 134144, Note_on_c, 11, 59, 0
14, 134160, Note_on_c, 11, 59, 84
14, 134211, Note_on_c, 11, 59, 0
14, 134220, Note_on_c, 11, 59, 84
14, 134271, Note_on_c, 11, 59, 0
14, 134280, Note_on_c, 11, 59, 84
14, 134331, Note_on_c, 11, 59, 0
14, 134340, Note_on_c, 11, 59, 84
14, 134391, Note_on_c, 11, 59, 0
14, 134400, Note_on_c, 11, 59, 84
14, 134504, Note_on_c, 11, 59, 0
14, 134520, Note_on_c, 11, 59, 84
14, 134571, Note_on_c, 11, 59, 0
14, 134580, Note_on_c, 11, 59, 84
14, 134631, Note_on_c, 11, 59, 0
14, 134640, Note_on_c, 11, 59, 84
14, 134691, Note_on_c, 11, 59, 0
14, 134700, Note_on_c, 11, 59, 84
14, 134751, Note_on_c, 11, 59, 0
14, 134760, Note_on_c, 11, 59, 84
14, 134864, Note_on_c, 11, 59, 0
14, 134880, Note_on_c, 11, 59, 84
14, 134931, Note_on_c, 11, 59, 0
14, 134940, Note_on_c, 11, 59, 84
14, 134991, Note_on_c, 11, 59, 0
14, 135000, Note_on_c, 11, 59, 84
14, 135051, Note_on_c, 11, 59, 0
14, 135060, Note_on_c, 11, 59, 84
14, 135111, Note_on_c, 11, 59, 0
14, 135120, Note_on_c, 11, 59, 84
14, 135224, Note_on_c, 11, 59, 0
14, 135240, Note_on_c, 11, 59, 84
14, 135291, Note_on_c, 11, 59, 0
14, 135300, Note_on_c, 11, 59, 84
14, 135351, Note_on_c, 11, 59, 0
14, 135360, Note_on_c, 11, 59, 84
14, 135411, Note_on_c, 11, 59, 0
14, 135420, Note_on_c, 11, 59, 84
14, 135471, Note_on_c, 11, 59, 0
14, 135480, Note_on_c, 11, 59, 84
14, 135584, Note_on_c, 11, 59, 0
14, 135600, Note_on_c, 11, 59, 84
14, 135651, Note_on_c, 11, 59, 0
14, 135660, Note_on_c, 11, 59, 84
14, 135711, Note_on_c, 11, 59, 0
14, 135720, Note_on_c, 11, 59, 84
14, 135771, Note_on_c, 11, 59, 0
14, 135780, Note_on_c, 11, 59, 84
14, 135831, Note_on_c, 11, 59, 0
14, 135840, Note_on_c, 11, 59, 84
14, 135944, Note_on_c, 11, 59, 0
14, 135960, Note_on_c, 11, 59, 84
14, 136011, Note_on_c, 11, 59, 0
14, 136020, Note_on_c, 11, 59, 84
14, 136071, Note_on_c, 11, 59, 0
14, 136080, Note_on_c, 11, 59, 84
14, 136131, Note_on_c, 11, 59, 0
14, 136140, Note_on_c, 11, 59, 84
14, 136191, Note_on_c, 11, 59, 0
14, 136200, Note_on_c, 11, 59, 84
14, 136304, Note_on_c, 11, 59, 0
14, 136320, Note_on_c, 11, 59, 84
14, 136371, Note_on_c, 11, 59, 0
14, 136380, Note_on_c, 11, 59, 84
14, 136431, Note_on_c, 11, 59, 0
14, 136440, Note_on_c, 11, 59, 84
14, 136491, Note_on_c, 11, 59, 0
14, 136500, Note_on_c, 11, 59, 84
14, 136551, Note_on_c, 11, 59, 0
14, 136560, Note_on_c, 11, 59, 84
14, 136664, Note_on_c, 11, 59, 0
14, 136680, Note_on_c, 11, 59, 84
14, 136731, Note_on_c, 11, 59, 0
14, 136740, Note_on_c, 11, 59, 84
14, 136791, Note_on_c, 11, 59, 0
14, 136800, Note_on_c, 11, 59, 84
14, 136851, Note_on_c, 11, 59, 0
14, 136860, Note_on_c, 11, 59, 84
14, 136911, Note_on_c, 11, 59, 0
14, 136920, Note_on_c, 11, 59, 84
14, 137024, Note_on_c, 11, 59, 0
14, 137040, Note_on_c, 11, 59, 84
14, 137091, Note_on_c, 11, 59, 0
14, 137100, Note_on_c, 11, 59, 84
14, 137151, Note_on_c, 11, 59, 0
14, 137160, Note_on_c, 11, 59, 84
14, 137211, Note_on_c, 11, 59, 0
14, 137220, Note_on_c, 11, 59, 84
14, 137241, Note_on_c, 11, 59, 0
14, 137250, Note_on_c, 11, 63, 84
14, 137279, Note_on_c, 11, 63, 0
14, 137280, Note_on_c, 11, 64, 84
14, 137459, Note_on_c, 11, 64, 0
14, 137610, Note_on_c, 11, 64, 84
14, 137639, Note_on_c, 11, 64, 0
14, 137640, Note_on_c, 11, 66, 84
14, 137819, Note_on_c, 11, 66, 0
14, 137970, Note_on_c, 11, 66, 84
14, 137999, Note_on_c, 11, 66, 0
14, 138000, Note_on_c, 11, 68, 84
14, 138179, Note_on_c, 11, 68, 0
14, 138330, Note_on_c, 11, 68, 84
14, 138359, Note_on_c, 11, 68, 0
14, 138360, Note_on_c, 11, 69, 84
14, 138539, Note_on_c, 11, 69, 0
14, 138690, Note_on_c, 11, 69, 84
14, 138719, Note_on_c, 11, 69, 0
14, 138720, Note_on_c, 11, 71, 84
14, 138899, Note_on_c, 11, 71, 0
14, 139050, Note_on_c, 11, 71, 84
14, 139079, Note_on_c, 11, 71, 0
14, 139080, Note_on_c, 11, 73, 84
14, 139259, Note_on_c, 11, 73, 0
14, 139410, Note_on_c, 11, 73, 84
14, 139439, Note_on_c, 11, 73, 0
14, 139440, Note_on_c, 11, 74, 84
14, 139619, Note_on_c, 11, 74, 0
14, 139800, Note_on_c, 11, 75, 84
14, 139979, Note_on_c, 11, 75, 0
14, 144420, Note_on_c, 11, 57, 52
14, 144471, Note_on_c, 11, 57, 0
14, 144480, Note_on_c, 11, 57, 52
14, 144719, Note_on_c, 11, 57, 0
14, 145860, Note_on_c, 11, 57, 52
14, 145911, Note_on_c, 11, 57, 0
14, 145920, Note_on_c, 11, 57, 52
14, 146159, Note_on_c, 11, 57, 0
14, 147300, Note_on_c, 11, 57, 52
14, 147351, Note_on_c, 11, 57, 0
14, 147360, Note_on_c, 11, 57, 52
14, 147599, Note_on_c, 11, 57, 0
14, 148740, Note_on_c, 11, 57, 52
14, 148791, Note_on_c, 11, 57, 0
14, 148800, Note_on_c, 11, 57, 52
14, 148919, Note_on_c, 11, 57, 0
14, 149040, Note_on_c, 11, 61, 52
14, 149144, Note_on_c, 11, 61, 0
14, 149160, Note_on_c, 11, 64, 52
14, 149279, Note_on_c, 11, 64, 0
14, 149400, Note_on_c, 11, 64, 52
14, 149504, Note_on_c, 11, 64, 0
14, 149520, Note_on_c, 11, 57, 52
14, 149759, Note_on_c, 11, 57, 0
14, 150900, Note_on_c, 11, 57, 52
14, 150951, Note_on_c, 11, 57, 0
14, 150960, Note_on_c, 11, 57, 52
14, 151199, Note_on_c, 11, 57, 0
14, 151560, Note_on_c, 11, 64, 52
14, 151664, Note_on_c, 11, 64, 0
14, 151680, Note_on_c, 11, 66, 68
14, 151799, Note_on_c, 11, 66, 0
14, 151800, Note_on_c, 11, 64, 52
14, 151904, Note_on_c, 11, 64, 0
14, 151920, Note_on_c, 11, 61, 52
14, 152009, Note_on_c, 11, 61, 0
14, 152040, Note_on_c, 11, 57, 52
14, 152279, Note_on_c, 11, 57, 0
14, 153060, Note_on_c, 11, 57, 52
14, 153111, Note_on_c, 11, 57, 0
14, 153120, Note_on_c, 11, 57, 52
14, 153359, Note_on_c, 11, 57, 0
14, 153720, Note_on_c, 11, 64, 52
14, 153824, Note_on_c, 11, 64, 0
14, 153840, Note_on_c, 11, 66, 68
14, 153959, Note_on_c, 11, 66, 0
14, 153960, Note_on_c, 11, 64, 52
14, 154064, Note_on_c, 11, 64, 0
14, 154080, Note_on_c, 11, 61, 52
14, 154169, Note_on_c, 11, 61, 0
14, 154200, Note_on_c, 11, 57, 52
14, 154439, Note_on_c, 11, 57, 0
14, 155220, Note_on_c, 11, 76, 52
14, 155220, Note_on_c, 11, 64, 52
14, 155271, Note_on_c, 11, 76, 0
14, 155271, Note_on_c, 11, 64, 0
14, 155280, Note_on_c, 11, 76, 76
14, 155280, Note_on_c, 11, 64, 76
14, 155320, Control_c, 11, 11, 123
14, 155360, Control_c, 11, 11, 119
14, 155400, Control_c, 11, 11, 115
14, 155440, Control_c, 11, 11, 111
14, 155480, Control_c, 11, 11, 107
14, 155520, Control_c, 11, 11, 104
14, 155560, Control_c, 11, 11, 100
14, 155600, Control_c, 11, 11, 96
14, 155640, Control_c, 11, 11, 92
14, 155680, Control_c, 11, 11, 88
14, 155720, Control_c, 11, 11, 84
14, 155760, Control_c, 11, 11, 80
14, 155879, Note_on_c, 11, 76, 0
14, 155879, Note_on_c, 11, 64, 0
14, 156360, Control_c, 11, 11, 127
14, 156660, Note_on_c, 11, 64, 52
14, 156660, Note_on_c, 11, 76, 52
14, 156711, Note_on_c, 11, 64, 0
14, 156711, Note_on_c, 11, 76, 0
14, 156720, Note_on_c, 11, 76, 76
14, 156720, Note_on_c, 11, 64, 76
14, 157251, Note_on_c, 11, 76, 0
14, 157251, Note_on_c, 11, 64, 0
14, 157260, Note_on_c, 11, 61, 76
14, 157304, Note_on_c, 11, 61, 0
14, 157320, Note_on_c, 11, 57, 76
14, 157409, Note_on_c, 11, 57, 0
14, 157440, Note_on_c, 11, 64, 84
14, 157440, Note_on_c, 11, 76, 84
14, 157499, Note_on_c, 11, 64, 0
14, 157499, Note_on_c, 11, 76, 0
14, 157500, Note_on_c, 11, 76, 76
14, 157500, Note_on_c, 11, 64, 76
14, 157971, Note_on_c, 11, 76, 0
14, 157971, Note_on_c, 11, 64, 0
14, 157980, Note_on_c, 11, 61, 76
14, 158024, Note_on_c, 11, 61, 0
14, 158040, Note_on_c, 11, 58, 76
14, 158129, Note_on_c, 11, 58, 0
14, 158160, Note_on_c, 11, 64, 84
14, 158219, Note_on_c, 11, 64, 0
14, 158220, Note_on_c, 11, 64, 76
14, 158279, Note_on_c, 11, 64, 0
14, 158340, Note_on_c, 11, 62, 76
14, 158384, Note_on_c, 11, 62, 0
14, 158400, Note_on_c, 11, 59, 76
14, 158489, Note_on_c, 11, 59, 0
14, 158520, Note_on_c, 11, 68, 84
14, 158579, Note_on_c, 11, 68, 0
14, 158580, Note_on_c, 11, 68, 76
14, 158639, Note_on_c, 11, 68, 0
14, 158700, Note_on_c, 11, 64, 76
14, 158744, Note_on_c, 11, 64, 0
14, 158760, Note_on_c, 11, 62, 76
14, 158849, Note_on_c, 11, 62, 0
14, 158880, Note_on_c, 11, 71, 84
14, 158939, Note_on_c, 11, 71, 0
14, 158940, Note_on_c, 11, 71, 76
14, 158999, Note_on_c, 11, 71, 0
14, 159060, Note_on_c, 11, 68, 76
14, 159104, Note_on_c, 11, 68, 0
14, 159120, Note_on_c, 11, 64, 76
14, 159209, Note_on_c, 11, 64, 0
14, 159240, Note_on_c, 11, 74, 84
14, 159299, Note_on_c, 11, 74, 0
14, 159300, Note_on_c, 11, 74, 76
14, 159359, Note_on_c, 11, 74, 0
14, 159420, Note_on_c, 11, 71, 76
14, 159464, Note_on_c, 11, 71, 0
14, 159480, Note_on_c, 11, 68, 76
14, 159569, Note_on_c, 11, 68, 0
14, 159600, Note_on_c, 11, 80, 76
14, 159600, Note_on_c, 11, 71, 76
14, 159944, Note_on_c, 11, 80, 0
14, 159944, Note_on_c, 11, 71, 0
14, 159960, Note_on_c, 11, 64, 84
14, 160019, Note_on_c, 11, 64, 0
14, 160020, Note_on_c, 11, 66, 84
14, 160079, Note_on_c, 11, 66, 0
14, 160080, Note_on_c, 11, 68, 84
14, 160139, Note_on_c, 11, 68, 0
14, 160140, Note_on_c, 11, 69, 84
14, 160199, Note_on_c, 11, 69, 0
14, 160200, Note_on_c, 11, 71, 84
14, 160239, Note_on_c, 11, 71, 0
14, 160240, Note_on_c, 11, 73, 84
14, 160279, Note_on_c, 11, 73, 0
14, 160280, Note_on_c, 11, 74, 84
14, 160311, Note_on_c, 11, 74, 0
14, 160320, Note_on_c, 11, 76, 92
14, 160371, Note_on_c, 11, 76, 0
14, 160380, Note_on_c, 11, 61, 84
14, 160431, Note_on_c, 11, 61, 0
14, 160440, Note_on_c, 11, 62, 84
14, 160491, Note_on_c, 11, 62, 0
14, 160500, Note_on_c, 11, 64, 84
14, 160551, Note_on_c, 11, 64, 0
14, 160560, Note_on_c, 11, 64, 84
14, 160611, Note_on_c, 11, 64, 0
14, 160620, Note_on_c, 11, 64, 84
14, 160671, Note_on_c, 11, 64, 0
14, 160680, Note_on_c, 11, 61, 84
14, 160739, Note_on_c, 11, 61, 0
14, 160740, Note_on_c, 11, 62, 84
14, 160791, Note_on_c, 11, 62, 0
14, 160800, Note_on_c, 11, 64, 84
14, 160851, Note_on_c, 11, 64, 0
14, 160860, Note_on_c, 11, 64, 84
14, 160911, Note_on_c, 11, 64, 0
14, 160920, Note_on_c, 11, 64, 84
14, 160971, Note_on_c, 11, 64, 0
14, 160980, Note_on_c, 11, 64, 84
14, 161031, Note_on_c, 11, 64, 0
14, 161040, Note_on_c, 11, 62, 84
14, 161099, Note_on_c, 11, 62, 0
14, 161100, Note_on_c, 11, 64, 84
14, 161151, Note_on_c, 11, 64, 0
14, 161160, Note_on_c, 11, 66, 84
14, 161211, Note_on_c, 11, 66, 0
14, 161220, Note_on_c, 11, 66, 84
14, 161271, Note_on_c, 11, 66, 0
14, 161280, Note_on_c, 11, 66, 84
14, 161331, Note_on_c, 11, 66, 0
14, 161340, Note_on_c, 11, 66, 84
14, 161391, Note_on_c, 11, 66, 0
14, 161400, Note_on_c, 11, 62, 84
14, 161459, Note_on_c, 11, 62, 0
14, 161460, Note_on_c, 11, 64, 84
14, 161511, Note_on_c, 11, 64, 0
14, 161520, Note_on_c, 11, 66, 84
14, 161571, Note_on_c, 11, 66, 0
14, 161580, Note_on_c, 11, 62, 84
14, 161631, Note_on_c, 11, 62, 0
14, 161640, Note_on_c, 11, 62, 84
14, 161691, Note_on_c, 11, 62, 0
14, 161700, Note_on_c, 11, 62, 84
14, 161751, Note_on_c, 11, 62, 0
14, 161760, Note_on_c, 11, 61, 84
14, 161819, Note_on_c, 11, 61, 0
14, 161820, Note_on_c, 11, 62, 84
14, 161871, Note_on_c, 11, 62, 0
14, 161880, Note_on_c, 11, 64, 84
14, 161931, Note_on_c, 11, 64, 0
14, 161940, Note_on_c, 11, 64, 84
14, 161991, Note_on_c, 11, 64, 0
14, 162000, Note_on_c, 11, 64, 84
14, 162051, Note_on_c, 11, 64, 0
14, 162060, Note_on_c, 11, 64, 84
14, 162111, Note_on_c, 11, 64, 0
14, 162120, Note_on_c, 11, 57, 84
14, 162179, Note_on_c, 11, 57, 0
14, 162180, Note_on_c, 11, 59, 84
14, 162231, Note_on_c, 11, 59, 0
14, 162240, Note_on_c, 11, 61, 84
14, 162291, Note_on_c, 11, 61, 0
14, 162300, Note_on_c, 11, 61, 84
14, 162351, Note_on_c, 11, 61, 0
14, 162360, Note_on_c, 11, 61, 84
14, 162411, Note_on_c, 11, 61, 0
14, 162420, Note_on_c, 11, 61, 84
14, 162471, Note_on_c, 11, 61, 0
14, 162480, Note_on_c, 11, 59, 84
14, 162539, Note_on_c, 11, 59, 0
14, 162540, Note_on_c, 11, 61, 84
14, 162591, Note_on_c, 11, 61, 0
14, 162600, Note_on_c, 11, 62, 84
14, 162651, Note_on_c, 11, 62, 0
14, 162660, Note_on_c, 11, 62, 84
14, 162711, Note_on_c, 11, 62, 0
14, 162720, Note_on_c, 11, 62, 84
14, 162771, Note_on_c, 11, 62, 0
14, 162780, Note_on_c, 11, 62, 84
14, 162831, Note_on_c, 11, 62, 0
14, 162840, Note_on_c, 11, 68, 84
14, 162899, Note_on_c, 11, 68, 0
14, 162900, Note_on_c, 11, 69, 84
14, 162951, Note_on_c, 11, 69, 0
14, 162960, Note_on_c, 11, 71, 84
14, 163011, Note_on_c, 11, 71, 0
14, 163020, Note_on_c, 11, 71, 84
14, 163071, Note_on_c, 11, 71, 0
14, 163080, Note_on_c, 11, 71, 84
14, 163131, Note_on_c, 11, 71, 0
14, 163140, Note_on_c, 11, 71, 84
14, 163191, Note_on_c, 11, 71, 0
14, 163200, Note_on_c, 11, 69, 84
14, 163259, Note_on_c, 11, 69, 0
14, 163260, Note_on_c, 11, 71, 84
14, 163311, Note_on_c, 11, 71, 0
14, 163320, Note_on_c, 11, 73, 84
14, 163371, Note_on_c, 11, 73, 0
14, 163380, Note_on_c, 11, 73, 84
14, 163431, Note_on_c, 11, 73, 0
14, 163440, Note_on_c, 11, 73, 84
14, 163491, Note_on_c, 11, 73, 0
14, 163500, Note_on_c, 11, 73, 84
14, 163551, Note_on_c, 11, 73, 0
14, 163560, Note_on_c, 11, 69, 84
14, 163619, Note_on_c, 11, 69, 0
14, 163620, Note_on_c, 11, 71, 84
14, 163671, Note_on_c, 11, 71, 0
14, 163680, Note_on_c, 11, 73, 84
14, 163731, Note_on_c, 11, 73, 0
14, 163740, Note_on_c, 11, 73, 84
14, 163791, Note_on_c, 11, 73, 0
14, 163800, Note_on_c, 11, 73, 84
14, 163851, Note_on_c, 11, 73, 0
14, 163860, Note_on_c, 11, 73, 84
14, 163911, Note_on_c, 11, 73, 0
14, 163920, Note_on_c, 11, 74, 84
14, 163979, Note_on_c, 11, 74, 0
14, 163980, Note_on_c, 11, 76, 84
14, 164031, Note_on_c, 11, 76, 0
14, 164040, Note_on_c, 11, 78, 84
14, 164091, Note_on_c, 11, 78, 0
14, 164100, Note_on_c, 11, 78, 84
14, 164151, Note_on_c, 11, 78, 0
14, 164160, Note_on_c, 11, 78, 84
14, 164211, Note_on_c, 11, 78, 0
14, 164220, Note_on_c, 11, 78, 84
14, 164271, Note_on_c, 11, 78, 0
14, 164280, Note_on_c, 11, 66, 84
14, 164339, Note_on_c, 11, 66, 0
14, 164340, Note_on_c, 11, 67, 84
14, 164391, Note_on_c, 11, 67, 0
14, 164400, Note_on_c, 11, 69, 84
14, 164451, Note_on_c, 11, 69, 0
14, 164460, Note_on_c, 11, 69, 84
14, 164511, Note_on_c, 11, 69, 0
14, 164520, Note_on_c, 11, 71, 84
14, 164571, Note_on_c, 11, 71, 0
14, 164580, Note_on_c, 11, 71, 84
14, 164631, Note_on_c, 11, 71, 0
14, 164640, Note_on_c, 11, 69, 84
14, 164699, Note_on_c, 11, 69, 0
14, 164700, Note_on_c, 11, 71, 84
14, 164751, Note_on_c, 11, 71, 0
14, 164760, Note_on_c, 11, 73, 84
14, 164811, Note_on_c, 11, 73, 0
14, 164820, Note_on_c, 11, 73, 84
14, 164871, Note_on_c, 11, 73, 0
14, 164880, Note_on_c, 11, 73, 84
14, 164931, Note_on_c, 11, 73, 0
14, 164940, Note_on_c, 11, 73, 84
14, 164991, Note_on_c, 11, 73, 0
14, 165000, Note_on_c, 11, 69, 84
14, 165059, Note_on_c, 11, 69, 0
14, 165060, Note_on_c, 11, 71, 84
14, 165111, Note_on_c, 11, 71, 0
14, 165120, Note_on_c, 11, 73, 84
14, 165171, Note_on_c, 11, 73, 0
14, 165180, Note_on_c, 11, 73, 84
14, 165231, Note_on_c, 11, 73, 0
14, 165240, Note_on_c, 11, 71, 84
14, 165291, Note_on_c, 11, 71, 0
14, 165300, Note_on_c, 11, 71, 84
14, 165351, Note_on_c, 11, 71, 0
14, 165360, Note_on_c, 11, 69, 84
14, 165419, Note_on_c, 11, 69, 0
14, 165420, Note_on_c, 11, 71, 84
14, 165471, Note_on_c, 11, 71, 0
14, 165480, Note_on_c, 11, 73, 84
14, 165531, Note_on_c, 11, 73, 0
14, 165540, Note_on_c, 11, 61, 84
14, 165591, Note_on_c, 11, 61, 0
14, 165600, Note_on_c, 11, 62, 84
14, 165651, Note_on_c, 11, 62, 0
14, 165660, Note_on_c, 11, 64, 84
14, 165711, Note_on_c, 11, 64, 0
14, 165720, Note_on_c, 11, 66, 84
14, 165771, Note_on_c, 11, 66, 0
14, 165780, Note_on_c, 11, 66, 84
14, 165831, Note_on_c, 11, 66, 0
14, 165840, Note_on_c, 11, 66, 84
14, 165891, Note_on_c, 11, 66, 0
14, 165900, Note_on_c, 11, 66, 84
14, 165951, Note_on_c, 11, 66, 0
14, 165960, Note_on_c, 11, 66, 84
14, 166011, Note_on_c, 11, 66, 0
14, 166020, Note_on_c, 11, 66, 84
14, 166071, Note_on_c, 11, 66, 0
14, 166080, Note_on_c, 11, 66, 84
14, 166139, Note_on_c, 11, 66, 0
14, 166140, Note_on_c, 11, 67, 84
14, 166191, Note_on_c, 11, 67, 0
14, 166200, Note_on_c, 11, 69, 84
14, 166251, Note_on_c, 11, 69, 0
14, 166260, Note_on_c, 11, 69, 84
14, 166311, Note_on_c, 11, 69, 0
14, 166320, Note_on_c, 11, 69, 84
14, 166371, Note_on_c, 11, 69, 0
14, 166380, Note_on_c, 11, 69, 84
14, 166431, Note_on_c, 11, 69, 0
14, 166440, Note_on_c, 11, 62, 84
14, 166499, Note_on_c, 11, 62, 0
14, 166500, Note_on_c, 11, 64, 84
14, 166551, Note_on_c, 11, 64, 0
14, 166560, Note_on_c, 11, 66, 84
14, 166611, Note_on_c, 11, 66, 0
14, 166620, Note_on_c, 11, 66, 84
14, 166671, Note_on_c, 11, 66, 0
14, 166680, Note_on_c, 11, 66, 84
14, 166731, Note_on_c, 11, 66, 0
14, 166740, Note_on_c, 11, 66, 84
14, 166791, Note_on_c, 11, 66, 0
14, 166800, Note_on_c, 11, 61, 84
14, 166859, Note_on_c, 11, 61, 0
14, 166860, Note_on_c, 11, 62, 84
14, 166911, Note_on_c, 11, 62, 0
14, 166920, Note_on_c, 11, 64, 84
14, 166971, Note_on_c, 11, 64, 0
14, 166980, Note_on_c, 11, 64, 84
14, 167031, Note_on_c, 11, 64, 0
14, 167040, Note_on_c, 11, 64, 84
14, 167091, Note_on_c, 11, 64, 0
14, 167100, Note_on_c, 11, 64, 84
14, 167151, Note_on_c, 11, 64, 0
14, 167160, Note_on_c, 11, 69, 84
14, 167219, Note_on_c, 11, 69, 0
14, 167220, Note_on_c, 11, 71, 84
14, 167271, Note_on_c, 11, 71, 0
14, 167280, Note_on_c, 11, 73, 84
14, 167331, Note_on_c, 11, 73, 0
14, 167340, Note_on_c, 11, 73, 84
14, 167391, Note_on_c, 11, 73, 0
14, 167400, Note_on_c, 11, 73, 84
14, 167451, Note_on_c, 11, 73, 0
14, 167460, Note_on_c, 11, 73, 84
14, 167511, Note_on_c, 11, 73, 0
14, 167520, Note_on_c, 11, 69, 84
14, 167579, Note_on_c, 11, 69, 0
14, 167580, Note_on_c, 11, 73, 84
14, 167631, Note_on_c, 11, 73, 0
14, 167640, Note_on_c, 11, 74, 84
14, 167691, Note_on_c, 11, 74, 0
14, 167700, Note_on_c, 11, 74, 84
14, 167751, Note_on_c, 11, 74, 0
14, 167760, Note_on_c, 11, 74, 84
14, 167811, Note_on_c, 11, 74, 0
14, 167820, Note_on_c, 11, 74, 84
14, 167871, Note_on_c, 11, 74, 0
14, 167880, Note_on_c, 11, 66, 84
14, 167939, Note_on_c, 11, 66, 0
14, 167940, Note_on_c, 11, 67, 84
14, 167991, Note_on_c, 11, 67, 0
14, 168000, Note_on_c, 11, 69, 84
14, 168051, Note_on_c, 11, 69, 0
14, 168060, Note_on_c, 11, 69, 84
14, 168111, Note_on_c, 11, 69, 0
14, 168120, Note_on_c, 11, 69, 84
14, 168171, Note_on_c, 11, 69, 0
14, 168180, Note_on_c, 11, 69, 84
14, 168231, Note_on_c, 11, 69, 0
14, 168240, Note_on_c, 11, 61, 84
14, 168299, Note_on_c, 11, 61, 0
14, 168300, Note_on_c, 11, 62, 84
14, 168351, Note_on_c, 11, 62, 0
14, 168360, Note_on_c, 11, 64, 84
14, 168411, Note_on_c, 11, 64, 0
14, 168420, Note_on_c, 11, 64, 84
14, 168471, Note_on_c, 11, 64, 0
14, 168480, Note_on_c, 11, 64, 84
14, 168531, Note_on_c, 11, 64, 0
14, 168540, Note_on_c, 11, 64, 84
14, 168591, Note_on_c, 11, 64, 0
14, 168600, Note_on_c, 11, 61, 84
14, 168659, Note_on_c, 11, 61, 0
14, 168660, Note_on_c, 11, 62, 84
14, 168711, Note_on_c, 11, 62, 0
14, 168720, Note_on_c, 11, 64, 84
14, 168771, Note_on_c, 11, 64, 0
14, 168780, Note_on_c, 11, 64, 84
14, 168831, Note_on_c, 11, 64, 0
14, 168840, Note_on_c, 11, 64, 52
14, 168891, Note_on_c, 11, 64, 0
14, 168900, Note_on_c, 11, 64, 52
14, 168951, Note_on_c, 11, 64, 0
14, 168960, Note_on_c, 11, 61, 52
14, 169019, Note_on_c, 11, 61, 0
14, 169020, Note_on_c, 11, 62, 52
14, 169071, Note_on_c, 11, 62, 0
14, 169080, Note_on_c, 11, 64, 52
14, 169131, Note_on_c, 11, 64, 0
14, 169140, Note_on_c, 11, 64, 53
14, 169191, Note_on_c, 11, 64, 0
14, 169200, Note_on_c, 11, 64, 53
14, 169251, Note_on_c, 11, 64, 0
14, 169260, Note_on_c, 11, 64, 53
14, 169311, Note_on_c, 11, 64, 0
14, 169320, Note_on_c, 11, 64, 54
14, 169371, Note_on_c, 11, 64, 0
14, 169380, Note_on_c, 11, 64, 54
14, 169431, Note_on_c, 11, 64, 0
14, 169440, Note_on_c, 11, 64, 54
14, 169491, Note_on_c, 11, 64, 0
14, 169500, Note_on_c, 11, 64, 55
14, 169551, Note_on_c, 11, 64, 0
14, 169560, Note_on_c, 11, 64, 55
14, 169611, Note_on_c, 11, 64, 0
14, 169620, Note_on_c, 11, 64, 55
14, 169671, Note_on_c, 11, 64, 0
14, 169680, Note_on_c, 11, 66, 56
14, 169739, Note_on_c, 11, 66, 0
14, 169740, Note_on_c, 11, 67, 56
14, 169791, Note_on_c, 11, 67, 0
14, 169800, Note_on_c, 11, 69, 56
14, 169851, Note_on_c, 11, 69, 0
14, 169860, Note_on_c, 11, 69, 57
14, 169911, Note_on_c, 11, 69, 0
14, 169920, Note_on_c, 11, 69, 57
14, 169971, Note_on_c, 11, 69, 0
14, 169980, Note_on_c, 11, 69, 57
14, 170031, Note_on_c, 11, 69, 0
14, 170040, Note_on_c, 11, 69, 58
14, 170091, Note_on_c, 11, 69, 0
14, 170100, Note_on_c, 11, 69, 58
14, 170151, Note_on_c, 11, 69, 0
14, 170160, Note_on_c, 11, 69, 58
14, 170211, Note_on_c, 11, 69, 0
14, 170220, Note_on_c, 11, 69, 59
14, 170271, Note_on_c, 11, 69, 0
14, 170280, Note_on_c, 11, 69, 59
14, 170331, Note_on_c, 11, 69, 0
14, 170340, Note_on_c, 11, 69, 59
14, 170391, Note_on_c, 11, 69, 0
14, 170400, Note_on_c, 11, 68, 60
14, 170459, Note_on_c, 11, 68, 0
14, 170460, Note_on_c, 11, 69, 60
14, 170511, Note_on_c, 11, 69, 0
14, 170520, Note_on_c, 11, 68, 60
14, 170571, Note_on_c, 11, 68, 0
14, 170580, Note_on_c, 11, 71, 61
14, 170631, Note_on_c, 11, 71, 0
14, 170640, Note_on_c, 11, 71, 61
14, 170691, Note_on_c, 11, 71, 0
14, 170700, Note_on_c, 11, 71, 61
14, 170751, Note_on_c, 11, 71, 0
14, 170760, Note_on_c, 11, 71, 62
14, 170811, Note_on_c, 11, 71, 0
14, 170820, Note_on_c, 11, 71, 62
14, 170871, Note_on_c, 11, 71, 0
14, 170880, Note_on_c, 11, 71, 62
14, 170931, Note_on_c, 11, 71, 0
14, 170940, Note_on_c, 11, 71, 63
14, 170991, Note_on_c, 11, 71, 0
14, 171000, Note_on_c, 11, 71, 63
14, 171051, Note_on_c, 11, 71, 0
14, 171060, Note_on_c, 11, 71, 63
14, 171111, Note_on_c, 11, 71, 0
14, 171120, Note_on_c, 11, 69, 64
14, 171179, Note_on_c, 11, 69, 0
14, 171180, Note_on_c, 11, 71, 64
14, 171231, Note_on_c, 11, 71, 0
14, 171240, Note_on_c, 11, 69, 64
14, 171291, Note_on_c, 11, 69, 0
14, 171300, Note_on_c, 11, 73, 65
14, 171351, Note_on_c, 11, 73, 0
14, 171360, Note_on_c, 11, 73, 65
14, 171411, Note_on_c, 11, 73, 0
14, 171420, Note_on_c, 11, 73, 65
14, 171471, Note_on_c, 11, 73, 0
14, 171480, Note_on_c, 11, 73, 66
14, 171531, Note_on_c, 11, 73, 0
14, 171540, Note_on_c, 11, 73, 66
14, 171591, Note_on_c, 11, 73, 0
14, 171600, Note_on_c, 11, 73, 66
14, 171651, Note_on_c, 11, 73, 0
14, 171660, Note_on_c, 11, 73, 67
14, 171711, Note_on_c, 11, 73, 0
14, 171720, Note_on_c, 11, 73, 67
14, 171771, Note_on_c, 11, 73, 0
14, 171780, Note_on_c, 11, 73, 67
14, 171831, Note_on_c, 11, 73, 0
14, 171840, Note_on_c, 11, 69, 68
14, 171899, Note_on_c, 11, 69, 0
14, 171900, Note_on_c, 11, 71, 68
14, 171951, Note_on_c, 11, 71, 0
14, 171960, Note_on_c, 11, 69, 68
14, 172011, Note_on_c, 11, 69, 0
14, 172020, Note_on_c, 11, 73, 69
14, 172071, Note_on_c, 11, 73, 0
14, 172080, Note_on_c, 11, 73, 69
14, 172131, Note_on_c, 11, 73, 0
14, 172140, Note_on_c, 11, 73, 69
14, 172191, Note_on_c, 11, 73, 0
14, 172200, Note_on_c, 11, 73, 70
14, 172251, Note_on_c, 11, 73, 0
14, 172260, Note_on_c, 11, 73, 70
14, 172311, Note_on_c, 11, 73, 0
14, 172320, Note_on_c, 11, 73, 70
14, 172371, Note_on_c, 11, 73, 0
14, 172380, Note_on_c, 11, 73, 71
14, 172431, Note_on_c, 11, 73, 0
14, 172440, Note_on_c, 11, 73, 71
14, 172491, Note_on_c, 11, 73, 0
14, 172500, Note_on_c, 11, 73, 71
14, 172551, Note_on_c, 11, 73, 0
14, 172560, Note_on_c, 11, 74, 72
14, 172619, Note_on_c, 11, 74, 0
14, 172620, Note_on_c, 11, 76, 72
14, 172671, Note_on_c, 11, 76, 0
14, 172680, Note_on_c, 11, 78, 72
14, 172731, Note_on_c, 11, 78, 0
14, 172740, Note_on_c, 11, 78, 73
14, 172791, Note_on_c, 11, 78, 0
14, 172800, Note_on_c, 11, 78, 73
14, 172851, Note_on_c, 11, 78, 0
14, 172860, Note_on_c, 11, 78, 73
14, 172911, Note_on_c, 11, 78, 0
14, 172920, Note_on_c, 11, 78, 74
14, 172971, Note_on_c, 11, 78, 0
14, 172980, Note_on_c, 11, 78, 74
14, 173031, Note_on_c, 11, 78, 0
14, 173040, Note_on_c, 11, 78, 74
14, 173091, Note_on_c, 11, 78, 0
14, 173100, Note_on_c, 11, 78, 75
14, 173151, Note_on_c, 11, 78, 0
14, 173160, Note_on_c, 11, 78, 75
14, 173211, Note_on_c, 11, 78, 0
14, 173220, Note_on_c, 11, 78, 75
14, 173271, Note_on_c, 11, 78, 0
14, 173280, Note_on_c, 11, 71, 76
14, 173339, Note_on_c, 11, 71, 0
14, 173340, Note_on_c, 11, 73, 76
14, 173391, Note_on_c, 11, 73, 0
14, 173400, Note_on_c, 11, 74, 76
14, 173451, Note_on_c, 11, 74, 0
14, 173460, Note_on_c, 11, 74, 77
14, 173511, Note_on_c, 11, 74, 0
14, 173520, Note_on_c, 11, 74, 77
14, 173571, Note_on_c, 11, 74, 0
14, 173580, Note_on_c, 11, 74, 77
14, 173631, Note_on_c, 11, 74, 0
14, 173640, Note_on_c, 11, 74, 78
14, 173691, Note_on_c, 11, 74, 0
14, 173700, Note_on_c, 11, 74, 78
14, 173751, Note_on_c, 11, 74, 0
14, 173760, Note_on_c, 11, 74, 78
14, 173811, Note_on_c, 11, 74, 0
14, 173820, Note_on_c, 11, 74, 79
14, 173871, Note_on_c, 11, 74, 0
14, 173880, Note_on_c, 11, 74, 79
14, 173931, Note_on_c, 11, 74, 0
14, 173940, Note_on_c, 11, 74, 79
14, 173991, Note_on_c, 11, 74, 0
14, 174000, Note_on_c, 11, 73, 80
14, 174059, Note_on_c, 11, 73, 0
14, 174060, Note_on_c, 11, 74, 80
14, 174111, Note_on_c, 11, 74, 0
14, 174120, Note_on_c, 11, 76, 80
14, 174171, Note_on_c, 11, 76, 0
14, 174180, Note_on_c, 11, 76, 81
14, 174231, Note_on_c, 11, 76, 0
14, 174240, Note_on_c, 11, 76, 81
14, 174291, Note_on_c, 11, 76, 0
14, 174300, Note_on_c, 11, 76, 81
14, 174351, Note_on_c, 11, 76, 0
14, 174360, Note_on_c, 11, 76, 82
14, 174411, Note_on_c, 11, 76, 0
14, 174420, Note_on_c, 11, 76, 82
14, 174471, Note_on_c, 11, 76, 0
14, 174480, Note_on_c, 11, 76, 82
14, 174531, Note_on_c, 11, 76, 0
14, 174540, Note_on_c, 11, 76, 83
14, 174591, Note_on_c, 11, 76, 0
14, 174600, Note_on_c, 11, 76, 83
14, 174651, Note_on_c, 11, 76, 0
14, 174660, Note_on_c, 11, 76, 83
14, 174711, Note_on_c, 11, 76, 0
14, 174720, Note_on_c, 11, 76, 84
14, 174771, Note_on_c, 11, 76, 0
14, 174780, Note_on_c, 11, 76, 84
14, 174831, Note_on_c, 11, 76, 0
14, 174840, Note_on_c, 11, 76, 84
14, 174891, Note_on_c, 11, 76, 0
14, 174900, Note_on_c, 11, 76, 84
14, 174951, Note_on_c, 11, 76, 0
14, 174960, Note_on_c, 11, 76, 84
14, 175011, Note_on_c, 11, 76, 0
14, 175020, Note_on_c, 11, 76, 84
14, 175071, Note_on_c, 11, 76, 0
14, 175080, Note_on_c, 11, 76, 84
14, 175131, Note_on_c, 11, 76, 0
14, 175140, Note_on_c, 11, 76, 84
14, 175191, Note_on_c, 11, 76, 0
14, 175200, Note_on_c, 11, 76, 84
14, 175251, Note_on_c, 11, 76, 0
14, 175260, Note_on_c, 11, 76, 84
14, 175311, Note_on_c, 11, 76, 0
14, 175320, Note_on_c, 11, 76, 84
14, 175371, Note_on_c, 11, 76, 0
14, 175380, Note_on_c, 11, 76, 84
14, 175431, Note_on_c, 11, 76, 0
14, 175440, Note_on_c, 11, 75, 84
14, 175491, Note_on_c, 11, 75, 0
14, 175500, Note_on_c, 11, 75, 84
14, 175551, Note_on_c, 11, 75, 0
14, 175560, Note_on_c, 11, 75, 84
14, 175611, Note_on_c, 11, 75, 0
14, 175620, Note_on_c, 11, 75, 84
14, 175671, Note_on_c, 11, 75, 0
14, 175680, Note_on_c, 11, 75, 84
14, 175731, Note_on_c, 11, 75, 0
14, 175740, Note_on_c, 11, 75, 84
14, 175791, Note_on_c, 11, 75, 0
14, 175800, Note_on_c, 11, 75, 84
14, 175851, Note_on_c, 11, 75, 0
14, 175860, Note_on_c, 11, 75, 84
14, 175911, Note_on_c, 11, 75, 0
14, 175920, Note_on_c, 11, 66, 52
14, 175971, Note_on_c, 11, 66, 0
14, 175980, Note_on_c, 11, 66, 52
14, 176031, Note_on_c, 11, 66, 0
14, 176040, Note_on_c, 11, 66, 52
14, 176091, Note_on_c, 11, 66, 0
14, 176100, Note_on_c, 11, 66, 52
14, 176151, Note_on_c, 11, 66, 0
14, 176160, Note_on_c, 11, 66, 52
14, 176211, Note_on_c, 11, 66, 0
14, 176220, Note_on_c, 11, 66, 52
14, 176271, Note_on_c, 11, 66, 0
14, 176280, Note_on_c, 11, 66, 52
14, 176331, Note_on_c, 11, 66, 0
14, 176340, Note_on_c, 11, 66, 52
14, 176391, Note_on_c, 11, 66, 0
14, 176400, Note_on_c, 11, 66, 52
14, 176451, Note_on_c, 11, 66, 0
14, 176460, Note_on_c, 11, 66, 52
14, 176511, Note_on_c, 11, 66, 0
14, 176520, Note_on_c, 11, 66, 52
14, 176571, Note_on_c, 11, 66, 0
14, 176580, Note_on_c, 11, 66, 52
14, 176631, Note_on_c, 11, 66, 0
14, 176640, Note_on_c, 11, 66, 52
14, 176691, Note_on_c, 11, 66, 0
14, 176700, Note_on_c, 11, 66, 52
14, 176751, Note_on_c, 11, 66, 0
14, 176760, Note_on_c, 11, 66, 52
14, 176811, Note_on_c, 11, 66, 0
14, 176820, Note_on_c, 11, 66, 52
14, 176871, Note_on_c, 11, 66, 0
14, 176880, Note_on_c, 11, 68, 52
14, 176999, Note_on_c, 11, 68, 0
14, 177120, Note_on_c, 11, 63, 52
14, 177239, Note_on_c, 11, 63, 0
14, 177480, Note_on_c, 11, 63, 52
14, 177599, Note_on_c, 11, 63, 0
14, 177840, Note_on_c, 11, 56, 52
14, 177840, Note_on_c, 11, 64, 52
14, 177959, Note_on_c, 11, 56, 0
14, 177959, Note_on_c, 11, 64, 0
14, 178200, Note_on_c, 11, 64, 52
14, 178200, Note_on_c, 11, 56, 52
14, 178319, Note_on_c, 11, 64, 0
14, 178319, Note_on_c, 11, 56, 0
14, 178560, Note_on_c, 11, 56, 52
14, 178560, Note_on_c, 11, 63, 52
14, 178679, Note_on_c, 11, 56, 0
14, 178679, Note_on_c, 11, 63, 0
14, 178920, Note_on_c, 11, 63, 52
14, 178920, Note_on_c, 11, 56, 52
14, 179039, Note_on_c, 11, 63, 0
14, 179039, Note_on_c, 11, 56, 0
14, 179040, Note_on_c, 11, 64, 52
14, 179091, Note_on_c, 11, 64, 0
14, 179100, Note_on_c, 11, 64, 54
14, 179151, Note_on_c, 11, 64, 0
14, 179160, Note_on_c, 11, 64, 56
14, 179211, Note_on_c, 11, 64, 0
14, 179220, Note_on_c, 11, 64, 58
14, 179271, Note_on_c, 11, 64, 0
14, 179280, Note_on_c, 11, 64, 60
14, 179331, Note_on_c, 11, 64, 0
14, 179340, Note_on_c, 11, 64, 62
14, 179391, Note_on_c, 11, 64, 0
14, 179400, Note_on_c, 11, 61, 64
14, 179451, Note_on_c, 11, 61, 0
14, 179460, Note_on_c, 11, 61, 66
14, 179511, Note_on_c, 11, 61, 0
14, 179520, Note_on_c, 11, 61, 68
14, 179571, Note_on_c, 11, 61, 0
14, 179580, Note_on_c, 11, 61, 70
14, 179631, Note_on_c, 11, 61, 0
14, 179640, Note_on_c, 11, 61, 72
14, 179691, Note_on_c, 11, 61, 0
14, 179700, Note_on_c, 11, 61, 74
14, 179751, Note_on_c, 11, 61, 0
14, 179760, Note_on_c, 11, 58, 76
14, 179879, Note_on_c, 11, 58, 0
14, 180000, Note_on_c, 11, 63, 52
14, 180000, Note_on_c, 11, 58, 52
14, 180119, Note_on_c, 11, 63, 0
14, 180119, Note_on_c, 11, 58, 0
14, 180360, Note_on_c, 11, 63, 52
14, 180360, Note_on_c, 11, 58, 52
14, 180479, Note_on_c, 11, 63, 0
14, 180479, Note_on_c, 11, 58, 0
14, 180720, Note_on_c, 11, 59, 52
14, 180720, Note_on_c, 11, 63, 52
14, 180839, Note_on_c, 11, 59, 0
14, 180839, Note_on_c, 11, 63, 0
14, 181080, Note_on_c, 11, 63, 52
14, 181080, Note_on_c, 11, 59, 52
14, 181199, Note_on_c, 11, 63, 0
14, 181199, Note_on_c, 11, 59, 0
14, 181440, Note_on_c, 11, 58, 52
14, 181440, Note_on_c, 11, 63, 52
14, 181559, Note_on_c, 11, 58, 0
14, 181559, Note_on_c, 11, 63, 0
14, 181800, Note_on_c, 11, 58, 52
14, 181800, Note_on_c, 11, 63, 52
14, 181904, Note_on_c, 11, 58, 0
14, 181904, Note_on_c, 11, 63, 0
14, 181920, Note_on_c, 11, 59, 52
14, 181971, Note_on_c, 11, 59, 0
14, 181980, Note_on_c, 11, 71, 54
14, 182031, Note_on_c, 11, 71, 0
14, 182040, Note_on_c, 11, 71, 56
14, 182091, Note_on_c, 11, 71, 0
14, 182100, Note_on_c, 11, 71, 58
14, 182151, Note_on_c, 11, 71, 0
14, 182160, Note_on_c, 11, 71, 60
14, 182211, Note_on_c, 11, 71, 0
14, 182220, Note_on_c, 11, 71, 62
14, 182271, Note_on_c, 11, 71, 0
14, 182280, Note_on_c, 11, 71, 64
14, 182331, Note_on_c, 11, 71, 0
14, 182340, Note_on_c, 11, 83, 66
14, 182391, Note_on_c, 11, 83, 0
14, 182400, Note_on_c, 11, 83, 68
14, 182451, Note_on_c, 11, 83, 0
14, 182460, Note_on_c, 11, 83, 70
14, 182511, Note_on_c, 11, 83, 0
14, 182520, Note_on_c, 11, 83, 72
14, 182571, Note_on_c, 11, 83, 0
14, 182580, Note_on_c, 11, 83, 74
14, 182631, Note_on_c, 11, 83, 0
14, 182640, Note_on_c, 11, 81, 76
14, 182819, Note_on_c, 11, 81, 0
14, 182820, Note_on_c, 11, 80, 76
14, 182879, Note_on_c, 11, 80, 0
14, 182880, Note_on_c, 11, 78, 76
14, 182939, Note_on_c, 11, 78, 0
14, 182940, Note_on_c, 11, 76, 76
14, 182999, Note_on_c, 11, 76, 0
14, 183000, Note_on_c, 11, 75, 76
14, 183059, Note_on_c, 11, 75, 0
14, 183060, Note_on_c, 11, 76, 76
14, 183119, Note_on_c, 11, 76, 0
14, 183120, Note_on_c, 11, 75, 76
14, 183179, Note_on_c, 11, 75, 0
14, 183180, Note_on_c, 11, 73, 76
14, 183239, Note_on_c, 11, 73, 0
14, 183240, Note_on_c, 11, 71, 76
14, 183299, Note_on_c, 11, 71, 0
14, 183300, Note_on_c, 11, 69, 76
14, 183351, Note_on_c, 11, 69, 0
14, 183360, Note_on_c, 11, 68, 76
14, 183411, Note_on_c, 11, 68, 0
14, 183420, Note_on_c, 11, 68, 76
14, 183471, Note_on_c, 11, 68, 0
14, 183480, Note_on_c, 11, 68, 76
14, 183531, Note_on_c, 11, 68, 0
14, 183540, Note_on_c, 11, 68, 76
14, 183591, Note_on_c, 11, 68, 0
14, 183600, Note_on_c, 11, 68, 76
14, 183651, Note_on_c, 11, 68, 0
14, 183660, Note_on_c, 11, 68, 76
14, 183711, Note_on_c, 11, 68, 0
14, 183720, Note_on_c, 11, 68, 76
14, 183771, Note_on_c, 11, 68, 0
14, 183780, Note_on_c, 11, 80, 76
14, 183831, Note_on_c, 11, 80, 0
14, 183840, Note_on_c, 11, 80, 76
14, 183891, Note_on_c, 11, 80, 0
14, 183900, Note_on_c, 11, 80, 76
14, 183951, Note_on_c, 11, 80, 0
14, 183960, Note_on_c, 11, 80, 76
14, 184011, Note_on_c, 11, 80, 0
14, 184020, Note_on_c, 11, 80, 76
14, 184071, Note_on_c, 11, 80, 0
14, 184080, Note_on_c, 11, 78, 84
14, 184139, Note_on_c, 11, 78, 0
14, 184140, Note_on_c, 11, 78, 76
14, 184259, Note_on_c, 11, 78, 0
14, 184260, Note_on_c, 11, 76, 76
14, 184319, Note_on_c, 11, 76, 0
14, 184320, Note_on_c, 11, 75, 76
14, 184379, Note_on_c, 11, 75, 0
14, 184380, Note_on_c, 11, 73, 76
14, 184439, Note_on_c, 11, 73, 0
14, 184440, Note_on_c, 11, 71, 76
14, 184499, Note_on_c, 11, 71, 0
14, 184500, Note_on_c, 11, 73, 76
14, 184559, Note_on_c, 11, 73, 0
14, 184560, Note_on_c, 11, 71, 76
14, 184619, Note_on_c, 11, 71, 0
14, 184620, Note_on_c, 11, 70, 76
14, 184679, Note_on_c, 11, 70, 0
14, 184680, Note_on_c, 11, 68, 76
14, 184739, Note_on_c, 11, 68, 0
14, 184740, Note_on_c, 11, 66, 76
14, 184791, Note_on_c, 11, 66, 0
14, 184800, Note_on_c, 11, 64, 76
14, 184851, Note_on_c, 11, 64, 0
14, 184860, Note_on_c, 11, 69, 76
14, 184911, Note_on_c, 11, 69, 0
14, 184920, Note_on_c, 11, 69, 76
14, 184971, Note_on_c, 11, 69, 0
14, 184980, Note_on_c, 11, 69, 76
14, 185031, Note_on_c, 11, 69, 0
14, 185040, Note_on_c, 11, 69, 76
14, 185091, Note_on_c, 11, 69, 0
14, 185100, Note_on_c, 11, 69, 76
14, 185151, Note_on_c, 11, 69, 0
14, 185160, Note_on_c, 11, 76, 76
14, 185211, Note_on_c, 11, 76, 0
14, 185220, Note_on_c, 11, 64, 76
14, 185271, Note_on_c, 11, 64, 0
14, 185280, Note_on_c, 11, 64, 76
14, 185331, Note_on_c, 11, 64, 0
14, 185340, Note_on_c, 11, 64, 76
14, 185391, Note_on_c, 11, 64, 0
14, 185400, Note_on_c, 11, 64, 76
14, 185451, Note_on_c, 11, 64, 0
14, 185460, Note_on_c, 11, 64, 76
14, 185511, Note_on_c, 11, 64, 0
14, 185520, Note_on_c, 11, 63, 76
14, 185699, Note_on_c, 11, 63, 0
14, 185880, Note_on_c, 11, 78, 76
14, 185880, Note_on_c, 11, 71, 76
14, 186059, Note_on_c, 11, 78, 0
14, 186059, Note_on_c, 11, 71, 0
14, 186240, Note_on_c, 11, 71, 76
14, 186240, Note_on_c, 11, 76, 76
14, 186419, Note_on_c, 11, 71, 0
14, 186419, Note_on_c, 11, 76, 0
14, 186600, Note_on_c, 11, 71, 76
14, 186600, Note_on_c, 11, 80, 76
14, 186779, Note_on_c, 11, 71, 0
14, 186779, Note_on_c, 11, 80, 0
14, 186960, Note_on_c, 11, 78, 76
14, 186960, Note_on_c, 11, 71, 76
14, 187139, Note_on_c, 11, 78, 0
14, 187139, Note_on_c, 11, 71, 0
14, 187320, Note_on_c, 11, 71, 76
14, 187320, Note_on_c, 11, 78, 76
14, 187499, Note_on_c, 11, 71, 0
14, 187499, Note_on_c, 11, 78, 0
14, 187680, Note_on_c, 11, 71, 76
14, 187680, Note_on_c, 11, 76, 76
14, 187859, Note_on_c, 11, 71, 0
14, 187859, Note_on_c, 11, 76, 0
14, 188040, Note_on_c, 11, 80, 76
14, 188040, Note_on_c, 11, 71, 76
14, 188219, Note_on_c, 11, 80, 0
14, 188219, Note_on_c, 11, 71, 0
14, 188400, Note_on_c, 11, 61, 84
14, 188460, Control_c, 11, 11, 112
14, 188497, Control_c, 11, 11, 109
14, 188533, Control_c, 11, 11, 107
14, 188570, Control_c, 11, 11, 104
14, 188607, Control_c, 11, 11, 101
14, 188643, Control_c, 11, 11, 99
14, 188680, Control_c, 11, 11, 96
14, 188717, Control_c, 11, 11, 93
14, 188753, Control_c, 11, 11, 91
14, 188790, Control_c, 11, 11, 88
14, 188827, Control_c, 11, 11, 85
14, 188863, Control_c, 11, 11, 83
14, 188900, Control_c, 11, 11, 80
14, 188937, Control_c, 11, 11, 77
14, 188973, Control_c, 11, 11, 75
14, 188999, Note_on_c, 11, 61, 0
14, 189000, Note_on_c, 11, 60, 84
14, 189010, Control_c, 11, 11, 72
14, 189047, Control_c, 11, 11, 69
14, 189083, Control_c, 11, 11, 64
14, 189104, Note_on_c, 11, 60, 0
14, 189120, Note_on_c, 11, 59, 84
14, 189719, Note_on_c, 11, 59, 0
14, 189720, Note_on_c, 11, 61, 84
14, 189779, Note_on_c, 11, 61, 0
14, 189780, Note_on_c, 11, 63, 84
14, 189839, Note_on_c, 11, 63, 0
14, 189840, Note_on_c, 11, 64, 84
14, 190079, Note_on_c, 11, 64, 0
14, 191160, Control_c, 11, 11, 127
14, 191280, Note_on_c, 11, 64, 48
14, 191639, Note_on_c, 11, 64, 0
14, 191640, Note_on_c, 11, 68, 48
14, 191999, Note_on_c, 11, 68, 0
14, 192000, Note_on_c, 11, 71, 48
14, 192359, Note_on_c, 11, 71, 0
14, 192360, Note_on_c, 11, 59, 48
14, 192704, Note_on_c, 11, 59, 0
14, 192720, Note_on_c, 11, 64, 76
14, 192720, Note_on_c, 11, 76, 76
14, 192720, Note_on_c, 11, 71, 76
14, 192959, Note_on_c, 11, 64, 0
14, 192959, Note_on_c, 11, 71, 0
14, 193064, Note_on_c, 11, 76, 0
14, 193080, Note_on_c, 11, 68, 76
14, 193251, Note_on_c, 11, 68, 0
14, 193260, Note_on_c, 11, 64, 76
14, 193311, Note_on_c, 11, 64, 0
14, 193320, Note_on_c, 11, 64, 76
14, 193424, Note_on_c, 11, 64, 0
14, 193440, Note_on_c, 11, 69, 76
14, 193611, Note_on_c, 11, 69, 0
14, 193620, Note_on_c, 11, 66, 76
14, 193671, Note_on_c, 11, 66, 0
14, 193680, Note_on_c, 11, 66, 76
14, 193784, Note_on_c, 11, 66, 0
14, 193800, Note_on_c, 11, 71, 76
14, 193971, Note_on_c, 11, 71, 0
14, 193980, Note_on_c, 11, 71, 76
14, 194031, Note_on_c, 11, 71, 0
14, 194040, Note_on_c, 11, 71, 76
14, 194144, Note_on_c, 11, 71, 0
14, 194160, Note_on_c, 11, 72, 76
14, 194331, Note_on_c, 11, 72, 0
14, 194340, Note_on_c, 11, 72, 76
14, 194391, Note_on_c, 11, 72, 0
14, 194400, Note_on_c, 11, 67, 76
14, 194504, Note_on_c, 11, 67, 0
14, 194520, Note_on_c, 11, 64, 76
14, 194691, Note_on_c, 11, 64, 0
14, 194700, Note_on_c, 11, 64, 76
14, 194751, Note_on_c, 11, 64, 0
14, 194760, Note_on_c, 11, 60, 76
14, 194864, Note_on_c, 11, 60, 0
14, 194880, Note_on_c, 11, 55, 76
14, 195051, Note_on_c, 11, 55, 0
14, 195060, Note_on_c, 11, 67, 76
14, 195111, Note_on_c, 11, 67, 0
14, 195120, Note_on_c, 11, 64, 76
14, 195224, Note_on_c, 11, 64, 0
14, 195240, Note_on_c, 11, 60, 76
14, 195411, Note_on_c, 11, 60, 0
14, 195420, Note_on_c, 11, 60, 76
14, 195471, Note_on_c, 11, 60, 0
14, 195480, Note_on_c, 11, 55, 76
14, 195584, Note_on_c, 11, 55, 0
14, 195600, Note_on_c, 11, 60, 76
14, 195839, Note_on_c, 11, 60, 0
14, 196140, Note_on_c, 11, 55, 75
14, 196191, Note_on_c, 11, 55, 0
14, 196200, Note_on_c, 11, 55, 73
14, 196304, Note_on_c, 11, 55, 0
14, 196320, Note_on_c, 11, 60, 70
14, 196559, Note_on_c, 11, 60, 0
14, 196860, Note_on_c, 11, 55, 57
14, 196911, Note_on_c, 11, 55, 0
14, 196920, Note_on_c, 11, 55, 55
14, 197024, Note_on_c, 11, 55, 0
14, 197040, Note_on_c, 11, 60, 52
14, 197279, Note_on_c, 11, 60, 0
14, 197760, Note_on_c, 11, 60, 44
14, 197999, Note_on_c, 11, 60, 0
14, 198480, Note_on_c, 11, 60, 44
14, 198480, Note_on_c, 11, 69, 44
14, 198531, Note_on_c, 11, 60, 0
14, 198531, Note_on_c, 11, 69, 0
14, 198540, Note_on_c, 11, 60, 44
14, 198540, Note_on_c, 11, 69, 44
14, 198591, Note_on_c, 11, 60, 0
14, 198591, Note_on_c, 11, 69, 0
14, 198600, Note_on_c, 11, 69, 44
14, 198600, Note_on_c, 11, 60, 44
14, 198651, Note_on_c, 11, 69, 0
14, 198651, Note_on_c, 11, 60, 0
14, 198660, Note_on_c, 11, 69, 44
14, 198660, Note_on_c, 11, 60, 44
14, 198711, Note_on_c, 11, 69, 0
14, 198711, Note_on_c, 11, 60, 0
14, 198720, Note_on_c, 11, 60, 44
14, 198720, Note_on_c, 11, 69, 44
14, 198771, Note_on_c, 11, 60, 0
14, 198771, Note_on_c, 11, 69, 0
14, 198780, Note_on_c, 11, 69, 44
14, 198780, Note_on_c, 11, 60, 44
14, 198831, Note_on_c, 11, 69, 0
14, 198831, Note_on_c, 11, 60, 0
14, 198840, Note_on_c, 11, 69, 44
14, 198840, Note_on_c, 11, 60, 44
14, 198891, Note_on_c, 11, 69, 0
14, 198891, Note_on_c, 11, 60, 0
14, 198900, Note_on_c, 11, 69, 44
14, 198900, Note_on_c, 11, 60, 44
14, 198951, Note_on_c, 11, 69, 0
14, 198951, Note_on_c, 11, 60, 0
14, 198960, Note_on_c, 11, 69, 44
14, 198960, Note_on_c, 11, 60, 44
14, 199011, Note_on_c, 11, 69, 0
14, 199011, Note_on_c, 11, 60, 0
14, 199020, Note_on_c, 11, 60, 44
14, 199020, Note_on_c, 11, 69, 44
14, 199071, Note_on_c, 11, 60, 0
14, 199071, Note_on_c, 11, 69, 0
14, 199080, Note_on_c, 11, 60, 44
14, 199080, Note_on_c, 11, 69, 44
14, 199131, Note_on_c, 11, 60, 0
14, 199131, Note_on_c, 11, 69, 0
14, 199140, Note_on_c, 11, 60, 44
14, 199140, Note_on_c, 11, 69, 44
14, 199191, Note_on_c, 11, 60, 0
14, 199191, Note_on_c, 11, 69, 0
14, 199200, Note_on_c, 11, 69, 44
14, 199200, Note_on_c, 11, 60, 44
14, 199251, Note_on_c, 11, 69, 0
14, 199251, Note_on_c, 11, 60, 0
14, 199260, Note_on_c, 11, 69, 44
14, 199260, Note_on_c, 11, 60, 44
14, 199311, Note_on_c, 11, 69, 0
14, 199311, Note_on_c, 11, 60, 0
14, 199320, Note_on_c, 11, 60, 44
14, 199320, Note_on_c, 11, 69, 44
14, 199371, Note_on_c, 11, 60, 0
14, 199371, Note_on_c, 11, 69, 0
14, 199380, Note_on_c, 11, 60, 44
14, 199380, Note_on_c, 11, 69, 44
14, 199431, Note_on_c, 11, 60, 0
14, 199431, Note_on_c, 11, 69, 0
14, 199440, Note_on_c, 11, 69, 44
14, 199440, Note_on_c, 11, 60, 44
14, 199491, Note_on_c, 11, 69, 0
14, 199491, Note_on_c, 11, 60, 0
14, 199500, Note_on_c, 11, 60, 44
14, 199500, Note_on_c, 11, 69, 44
14, 199551, Note_on_c, 11, 60, 0
14, 199551, Note_on_c, 11, 69, 0
14, 199560, Note_on_c, 11, 69, 44
14, 199560, Note_on_c, 11, 60, 44
14, 199611, Note_on_c, 11, 69, 0
14, 199611, Note_on_c, 11, 60, 0
14, 199620, Note_on_c, 11, 69, 44
14, 199620, Note_on_c, 11, 60, 44
14, 199671, Note_on_c, 11, 69, 0
14, 199671, Note_on_c, 11, 60, 0
14, 199680, Note_on_c, 11, 69, 44
14, 199680, Note_on_c, 11, 60, 44
14, 199731, Note_on_c, 11, 69, 0
14, 199731, Note_on_c, 11, 60, 0
14, 199740, Note_on_c, 11, 60, 44
14, 199740, Note_on_c, 11, 69, 44
14, 199791, Note_on_c, 11, 60, 0
14, 199791, Note_on_c, 11, 69, 0
14, 199800, Note_on_c, 11, 60, 44
14, 199800, Note_on_c, 11, 69, 44
14, 199851, Note_on_c, 11, 60, 0
14, 199851, Note_on_c, 11, 69, 0
14, 199860, Note_on_c, 11, 60, 44
14, 199860, Note_on_c, 11, 69, 44
14, 199911, Note_on_c, 11, 60, 0
14, 199911, Note_on_c, 11, 69, 0
14, 199920, Note_on_c, 11, 60, 44
14, 199920, Note_on_c, 11, 69, 44
14, 199971, Note_on_c, 11, 60, 0
14, 199971, Note_on_c, 11, 69, 0
14, 199980, Note_on_c, 11, 69, 44
14, 199980, Note_on_c, 11, 60, 44
14, 200031, Note_on_c, 11, 69, 0
14, 200031, Note_on_c, 11, 60, 0
14, 200040, Note_on_c, 11, 60, 44
14, 200040, Note_on_c, 11, 69, 44
14, 200091, Note_on_c, 11, 60, 0
14, 200091, Note_on_c, 11, 69, 0
14, 200100, Note_on_c, 11, 69, 44
14, 200100, Note_on_c, 11, 60, 44
14, 200151, Note_on_c, 11, 69, 0
14, 200151, Note_on_c, 11, 60, 0
14, 200160, Note_on_c, 11, 60, 44
14, 200160, Note_on_c, 11, 69, 44
14, 200211, Note_on_c, 11, 60, 0
14, 200211, Note_on_c, 11, 69, 0
14, 200220, Note_on_c, 11, 60, 44
14, 200220, Note_on_c, 11, 69, 44
14, 200271, Note_on_c, 11, 60, 0
14, 200271, Note_on_c, 11, 69, 0
14, 200280, Note_on_c, 11, 69, 44
14, 200280, Note_on_c, 11, 60, 44
14, 200331, Note_on_c, 11, 69, 0
14, 200331, Note_on_c, 11, 60, 0
14, 200340, Note_on_c, 11, 69, 44
14, 200340, Note_on_c, 11, 60, 44
14, 200391, Note_on_c, 11, 69, 0
14, 200391, Note_on_c, 11, 60, 0
14, 200400, Note_on_c, 11, 69, 44
14, 200400, Note_on_c, 11, 60, 44
14, 200451, Note_on_c, 11, 69, 0
14, 200451, Note_on_c, 11, 60, 0
14, 200460, Note_on_c, 11, 60, 44
14, 200460, Note_on_c, 11, 69, 44
14, 200511, Note_on_c, 11, 60, 0
14, 200511, Note_on_c, 11, 69, 0
14, 200520, Note_on_c, 11, 60, 44
14, 200520, Note_on_c, 11, 69, 44
14, 200571, Note_on_c, 11, 60, 0
14, 200571, Note_on_c, 11, 69, 0
14, 200580, Note_on_c, 11, 60, 44
14, 200580, Note_on_c, 11, 69, 44
14, 200631, Note_on_c, 11, 60, 0
14, 200631, Note_on_c, 11, 69, 0
14, 200640, Note_on_c, 11, 60, 44
14, 200640, Note_on_c, 11, 69, 44
14, 200691, Note_on_c, 11, 60, 0
14, 200691, Note_on_c, 11, 69, 0
14, 200700, Note_on_c, 11, 60, 44
14, 200700, Note_on_c, 11, 69, 44
14, 200751, Note_on_c, 11, 60, 0
14, 200751, Note_on_c, 11, 69, 0
14, 200760, Note_on_c, 11, 69, 44
14, 200760, Note_on_c, 11, 60, 44
14, 200811, Note_on_c, 11, 69, 0
14, 200811, Note_on_c, 11, 60, 0
14, 200820, Note_on_c, 11, 60, 44
14, 200820, Note_on_c, 11, 69, 44
14, 200871, Note_on_c, 11, 60, 0
14, 200871, Note_on_c, 11, 69, 0
14, 200880, Note_on_c, 11, 60, 44
14, 200880, Note_on_c, 11, 69, 44
14, 200931, Note_on_c, 11, 60, 0
14, 200931, Note_on_c, 11, 69, 0
14, 200940, Note_on_c, 11, 60, 44
14, 200940, Note_on_c, 11, 69, 44
14, 200991, Note_on_c, 11, 60, 0
14, 200991, Note_on_c, 11, 69, 0
14, 201000, Note_on_c, 11, 69, 44
14, 201000, Note_on_c, 11, 60, 44
14, 201051, Note_on_c, 11, 69, 0
14, 201051, Note_on_c, 11, 60, 0
14, 201060, Note_on_c, 11, 69, 44
14, 201060, Note_on_c, 11, 60, 44
14, 201111, Note_on_c, 11, 69, 0
14, 201111, Note_on_c, 11, 60, 0
14, 201120, Note_on_c, 11, 60, 44
14, 201120, Note_on_c, 11, 69, 44
14, 201171, Note_on_c, 11, 60, 0
14, 201171, Note_on_c, 11, 69, 0
14, 201180, Note_on_c, 11, 60, 44
14, 201180, Note_on_c, 11, 69, 44
14, 201231, Note_on_c, 11, 60, 0
14, 201231, Note_on_c, 11, 69, 0
14, 201240, Note_on_c, 11, 60, 44
14, 201240, Note_on_c, 11, 69, 44
14, 201291, Note_on_c, 11, 60, 0
14, 201291, Note_on_c, 11, 69, 0
14, 201300, Note_on_c, 11, 69, 44
14, 201300, Note_on_c, 11, 60, 44
14, 201351, Note_on_c, 11, 69, 0
14, 201351, Note_on_c, 11, 60, 0
14, 201360, Note_on_c, 11, 59, 44
14, 201360, Note_on_c, 11, 69, 44
14, 201411, Note_on_c, 11, 59, 0
14, 201411, Note_on_c, 11, 69, 0
14, 201420, Note_on_c, 11, 59, 44
14, 201471, Note_on_c, 11, 59, 0
14, 201480, Note_on_c, 11, 59, 45
14, 201531, Note_on_c, 11, 59, 0
14, 201540, Note_on_c, 11, 59, 45
14, 201591, Note_on_c, 11, 59, 0
14, 201600, Note_on_c, 11, 59, 46
14, 201651, Note_on_c, 11, 59, 0
14, 201660, Note_on_c, 11, 59, 46
14, 201711, Note_on_c, 11, 59, 0
14, 201720, Note_on_c, 11, 59, 47
14, 201771, Note_on_c, 11, 59, 0
14, 201780, Note_on_c, 11, 69, 47
14, 201831, Note_on_c, 11, 69, 0
14, 201840, Note_on_c, 11, 69, 48
14, 201891, Note_on_c, 11, 69, 0
14, 201900, Note_on_c, 11, 69, 49
14, 201951, Note_on_c, 11, 69, 0
14, 201960, Note_on_c, 11, 68, 49
14, 202011, Note_on_c, 11, 68, 0
14, 202020, Note_on_c, 11, 69, 50
14, 202071, Note_on_c, 11, 69, 0
14, 202080, Note_on_c, 11, 71, 50
14, 202131, Note_on_c, 11, 71, 0
14, 202140, Note_on_c, 11, 59, 51
14, 202191, Note_on_c, 11, 59, 0
14, 202200, Note_on_c, 11, 59, 51
14, 202251, Note_on_c, 11, 59, 0
14, 202260, Note_on_c, 11, 59, 52
14, 202311, Note_on_c, 11, 59, 0
14, 202320, Note_on_c, 11, 59, 52
14, 202371, Note_on_c, 11, 59, 0
14, 202380, Note_on_c, 11, 59, 53
14, 202431, Note_on_c, 11, 59, 0
14, 202440, Note_on_c, 11, 59, 54
14, 202491, Note_on_c, 11, 59, 0
14, 202500, Note_on_c, 11, 71, 54
14, 202551, Note_on_c, 11, 71, 0
14, 202560, Note_on_c, 11, 71, 55
14, 202611, Note_on_c, 11, 71, 0
14, 202620, Note_on_c, 11, 71, 55
14, 202671, Note_on_c, 11, 71, 0
14, 202680, Note_on_c, 11, 69, 56
14, 202731, Note_on_c, 11, 69, 0
14, 202740, Note_on_c, 11, 71, 56
14, 202791, Note_on_c, 11, 71, 0
14, 202800, Note_on_c, 11, 73, 57
14, 202851, Note_on_c, 11, 73, 0
14, 202860, Note_on_c, 11, 61, 57
14, 202911, Note_on_c, 11, 61, 0
14, 202920, Note_on_c, 11, 61, 58
14, 202971, Note_on_c, 11, 61, 0
14, 202980, Note_on_c, 11, 61, 59
14, 203031, Note_on_c, 11, 61, 0
14, 203040, Note_on_c, 11, 61, 59
14, 203091, Note_on_c, 11, 61, 0
14, 203100, Note_on_c, 11, 61, 60
14, 203151, Note_on_c, 11, 61, 0
14, 203160, Note_on_c, 11, 61, 60
14, 203211, Note_on_c, 11, 61, 0
14, 203220, Note_on_c, 11, 73, 61
14, 203271, Note_on_c, 11, 73, 0
14, 203280, Note_on_c, 11, 73, 61
14, 203331, Note_on_c, 11, 73, 0
14, 203340, Note_on_c, 11, 73, 62
14, 203391, Note_on_c, 11, 73, 0
14, 203400, Note_on_c, 11, 71, 62
14, 203451, Note_on_c, 11, 71, 0
14, 203460, Note_on_c, 11, 73, 63
14, 203511, Note_on_c, 11, 73, 0
14, 203520, Note_on_c, 11, 75, 64
14, 203571, Note_on_c, 11, 75, 0
14, 203580, Note_on_c, 11, 63, 64
14, 203631, Note_on_c, 11, 63, 0
14, 203640, Note_on_c, 11, 63, 65
14, 203691, Note_on_c, 11, 63, 0
14, 203700, Note_on_c, 11, 63, 65
14, 203751, Note_on_c, 11, 63, 0
14, 203760, Note_on_c, 11, 63, 66
14, 203811, Note_on_c, 11, 63, 0
14, 203820, Note_on_c, 11, 63, 66
14, 203871, Note_on_c, 11, 63, 0
14, 203880, Note_on_c, 11, 63, 67
14, 203931, Note_on_c, 11, 63, 0
14, 203940, Note_on_c, 11, 75, 67
14, 203991, Note_on_c, 11, 75, 0
14, 204000, Note_on_c, 11, 75, 68
14, 204051, Note_on_c, 11, 75, 0
14, 204060, Note_on_c, 11, 75, 69
14, 204111, Note_on_c, 11, 75, 0
14, 204120, Note_on_c, 11, 73, 69
14, 204171, Note_on_c, 11, 73, 0
14, 204180, Note_on_c, 11, 75, 70
14, 204231, Note_on_c, 11, 75, 0
14, 204240, Note_on_c, 11, 76, 70
14, 204291, Note_on_c, 11, 76, 0
14, 204300, Note_on_c, 11, 64, 71
14, 204351, Note_on_c, 11, 64, 0
14, 204360, Note_on_c, 11, 64, 71
14, 204411, Note_on_c, 11, 64, 0
14, 204420, Note_on_c, 11, 64, 72
14, 204471, Note_on_c, 11, 64, 0
14, 204480, Note_on_c, 11, 64, 72
14, 204531, Note_on_c, 11, 64, 0
14, 204540, Note_on_c, 11, 64, 73
14, 204591, Note_on_c, 11, 64, 0
14, 204600, Note_on_c, 11, 64, 74
14, 204651, Note_on_c, 11, 64, 0
14, 204660, Note_on_c, 11, 76, 74
14, 204711, Note_on_c, 11, 76, 0
14, 204720, Note_on_c, 11, 76, 75
14, 204771, Note_on_c, 11, 76, 0
14, 204780, Note_on_c, 11, 76, 75
14, 204831, Note_on_c, 11, 76, 0
14, 204840, Note_on_c, 11, 75, 76
14, 204891, Note_on_c, 11, 75, 0
14, 204900, Note_on_c, 11, 76, 76
14, 204951, Note_on_c, 11, 76, 0
14, 204960, Note_on_c, 11, 78, 77
14, 205011, Note_on_c, 11, 78, 0
14, 205020, Note_on_c, 11, 66, 77
14, 205071, Note_on_c, 11, 66, 0
14, 205080, Note_on_c, 11, 66, 78
14, 205131, Note_on_c, 11, 66, 0
14, 205140, Note_on_c, 11, 66, 79
14, 205191, Note_on_c, 11, 66, 0
14, 205200, Note_on_c, 11, 66, 79
14, 205251, Note_on_c, 11, 66, 0
14, 205260, Note_on_c, 11, 66, 80
14, 205311, Note_on_c, 11, 66, 0
14, 205320, Note_on_c, 11, 66, 80
14, 205371, Note_on_c, 11, 66, 0
14, 205380, Note_on_c, 11, 78, 81
14, 205431, Note_on_c, 11, 78, 0
14, 205440, Note_on_c, 11, 78, 81
14, 205491, Note_on_c, 11, 78, 0
14, 205500, Note_on_c, 11, 78, 82
14, 205551, Note_on_c, 11, 78, 0
14, 205560, Note_on_c, 11, 76, 82
14, 205611, Note_on_c, 11, 76, 0
14, 205620, Note_on_c, 11, 78, 83
14, 205671, Note_on_c, 11, 78, 0
14, 205680, Note_on_c, 11, 80, 84
14, 205731, Note_on_c, 11, 80, 0
14, 205740, Note_on_c, 11, 76, 84
14, 205740, Note_on_c, 11, 88, 84
14, 205791, Note_on_c, 11, 76, 0
14, 205791, Note_on_c, 11, 88, 0
14, 205800, Note_on_c, 11, 76, 84
14, 205800, Note_on_c, 11, 88, 84
14, 205851, Note_on_c, 11, 76, 0
14, 205851, Note_on_c, 11, 88, 0
14, 205860, Note_on_c, 11, 88, 84
14, 205860, Note_on_c, 11, 76, 84
14, 205911, Note_on_c, 11, 88, 0
14, 205911, Note_on_c, 11, 76, 0
14, 205920, Note_on_c, 11, 76, 84
14, 205920, Note_on_c, 11, 88, 84
14, 205971, Note_on_c, 11, 76, 0
14, 205971, Note_on_c, 11, 88, 0
14, 205980, Note_on_c, 11, 76, 84
14, 205980, Note_on_c, 11, 88, 84
14, 206031, Note_on_c, 11, 76, 0
14, 206031, Note_on_c, 11, 88, 0
14, 206040, Note_on_c, 11, 76, 84
14, 206040, Note_on_c, 11, 88, 84
14, 206091, Note_on_c, 11, 76, 0
14, 206091, Note_on_c, 11, 88, 0
14, 206100, Note_on_c, 11, 88, 84
14, 206100, Note_on_c, 11, 76, 84
14, 206151, Note_on_c, 11, 88, 0
14, 206151, Note_on_c, 11, 76, 0
14, 206160, Note_on_c, 11, 76, 84
14, 206160, Note_on_c, 11, 88, 84
14, 206211, Note_on_c, 11, 76, 0
14, 206211, Note_on_c, 11, 88, 0
14, 206220, Note_on_c, 11, 76, 84
14, 206220, Note_on_c, 11, 88, 84
14, 206271, Note_on_c, 11, 76, 0
14, 206271, Note_on_c, 11, 88, 0
14, 206280, Note_on_c, 11, 76, 84
14, 206280, Note_on_c, 11, 88, 84
14, 206331, Note_on_c, 11, 76, 0
14, 206331, Note_on_c, 11, 88, 0
14, 206340, Note_on_c, 11, 76, 84
14, 206340, Note_on_c, 11, 88, 84
14, 206391, Note_on_c, 11, 76, 0
14, 206391, Note_on_c, 11, 88, 0
14, 206400, Note_on_c, 11, 76, 84
14, 206400, Note_on_c, 11, 88, 84
14, 206451, Note_on_c, 11, 76, 0
14, 206451, Note_on_c, 11, 88, 0
14, 206460, Note_on_c, 11, 76, 84
14, 206460, Note_on_c, 11, 88, 84
14, 206511, Note_on_c, 11, 76, 0
14, 206511, Note_on_c, 11, 88, 0
14, 206520, Note_on_c, 11, 76, 84
14, 206520, Note_on_c, 11, 88, 84
14, 206571, Note_on_c, 11, 76, 0
14, 206571, Note_on_c, 11, 88, 0
14, 206580, Note_on_c, 11, 76, 84
14, 206580, Note_on_c, 11, 88, 84
14, 206631, Note_on_c, 11, 76, 0
14, 206631, Note_on_c, 11, 88, 0
14, 206640, Note_on_c, 11, 88, 84
14, 206640, Note_on_c, 11, 76, 84
14, 206691, Note_on_c, 11, 88, 0
14, 206691, Note_on_c, 11, 76, 0
14, 206700, Note_on_c, 11, 88, 84
14, 206700, Note_on_c, 11, 76, 84
14, 206751, Note_on_c, 11, 88, 0
14, 206751, Note_on_c, 11, 76, 0
14, 206760, Note_on_c, 11, 76, 84
14, 206760, Note_on_c, 11, 88, 84
14, 206811, Note_on_c, 11, 76, 0
14, 206811, Note_on_c, 11, 88, 0
14, 206820, Note_on_c, 11, 88, 84
14, 206820, Note_on_c, 11, 76, 84
14, 206871, Note_on_c, 11, 88, 0
14, 206871, Note_on_c, 11, 76, 0
14, 206880, Note_on_c, 11, 88, 84
14, 206880, Note_on_c, 11, 76, 84
14, 206931, Note_on_c, 11, 88, 0
14, 206931, Note_on_c, 11, 76, 0
14, 206940, Note_on_c, 11, 76, 84
14, 206940, Note_on_c, 11, 88, 84
14, 206991, Note_on_c, 11, 76, 0
14, 206991, Note_on_c, 11, 88, 0
14, 207000, Note_on_c, 11, 88, 84
14, 207000, Note_on_c, 11, 76, 84
14, 207051, Note_on_c, 11, 88, 0
14, 207051, Note_on_c, 11, 76, 0
14, 207060, Note_on_c, 11, 88, 84
14, 207060, Note_on_c, 11, 76, 84
14, 207111, Note_on_c, 11, 88, 0
14, 207111, Note_on_c, 11, 76, 0
14, 207120, Note_on_c, 11, 88, 84
14, 207120, Note_on_c, 11, 76, 84
14, 207171, Note_on_c, 11, 88, 0
14, 207171, Note_on_c, 11, 76, 0
14, 207180, Note_on_c, 11, 76, 84
14, 207180, Note_on_c, 11, 88, 84
14, 207231, Note_on_c, 11, 76, 0
14, 207231, Note_on_c, 11, 88, 0
14, 207240, Note_on_c, 11, 76, 84
14, 207240, Note_on_c, 11, 88, 84
14, 207291, Note_on_c, 11, 76, 0
14, 207291, Note_on_c, 11, 88, 0
14, 207300, Note_on_c, 11, 76, 84
14, 207300, Note_on_c, 11, 88, 84
14, 207351, Note_on_c, 11, 76, 0
14, 207351, Note_on_c, 11, 88, 0
14, 207360, Note_on_c, 11, 88, 84
14, 207360, Note_on_c, 11, 76, 84
14, 207411, Note_on_c, 11, 88, 0
14, 207411, Note_on_c, 11, 76, 0
14, 207420, Note_on_c, 11, 88, 84
14, 207420, Note_on_c, 11, 76, 84
14, 207471, Note_on_c, 11, 88, 0
14, 207471, Note_on_c, 11, 76, 0
14, 207480, Note_on_c, 11, 76, 84
14, 207480, Note_on_c, 11, 88, 84
14, 207531, Note_on_c, 11, 76, 0
14, 207531, Note_on_c, 11, 88, 0
14, 207540, Note_on_c, 11, 88, 84
14, 207540, Note_on_c, 11, 76, 84
14, 207591, Note_on_c, 11, 88, 0
14, 207591, Note_on_c, 11, 76, 0
14, 207600, Note_on_c, 11, 76, 84
14, 207600, Note_on_c, 11, 88, 84
14, 207651, Note_on_c, 11, 76, 0
14, 207651, Note_on_c, 11, 88, 0
14, 207660, Note_on_c, 11, 76, 84
14, 207660, Note_on_c, 11, 88, 84
14, 207711, Note_on_c, 11, 76, 0
14, 207711, Note_on_c, 11, 88, 0
14, 207720, Note_on_c, 11, 76, 84
14, 207720, Note_on_c, 11, 88, 84
14, 207771, Note_on_c, 11, 76, 0
14, 207771, Note_on_c, 11, 88, 0
14, 207780, Note_on_c, 11, 88, 84
14, 207780, Note_on_c, 11, 76, 84
14, 207831, Note_on_c, 11, 88, 0
14, 207831, Note_on_c, 11, 76, 0
14, 207840, Note_on_c, 11, 76, 84
14, 207840, Note_on_c, 11, 88, 84
14, 207891, Note_on_c, 11, 76, 0
14, 207891, Note_on_c, 11, 88, 0
14, 207900, Note_on_c, 11, 88, 84
14, 207900, Note_on_c, 11, 76, 84
14, 207951, Note_on_c, 11, 88, 0
14, 207951, Note_on_c, 11, 76, 0
14, 207960, Note_on_c, 11, 76, 84
14, 207960, Note_on_c, 11, 88, 84
14, 208011, Note_on_c, 11, 76, 0
14, 208011, Note_on_c, 11, 88, 0
14, 208020, Note_on_c, 11, 88, 84
14, 208020, Note_on_c, 11, 76, 84
14, 208071, Note_on_c, 11, 88, 0
14, 208071, Note_on_c, 11, 76, 0
14, 208080, Note_on_c, 11, 88, 84
14, 208080, Note_on_c, 11, 76, 84
14, 208131, Note_on_c, 11, 88, 0
14, 208131, Note_on_c, 11, 76, 0
14, 208140, Note_on_c, 11, 88, 84
14, 208140, Note_on_c, 11, 76, 84
14, 208191, Note_on_c, 11, 88, 0
14, 208191, Note_on_c, 11, 76, 0
14, 208200, Note_on_c, 11, 76, 84
14, 208200, Note_on_c, 11, 88, 84
14, 208251, Note_on_c, 11, 76, 0
14, 208251, Note_on_c, 11, 88, 0
14, 208260, Note_on_c, 11, 76, 84
14, 208260, Note_on_c, 11, 88, 84
14, 208311, Note_on_c, 11, 76, 0
14, 208311, Note_on_c, 11, 88, 0
14, 208320, Note_on_c, 11, 88, 84
14, 208320, Note_on_c, 11, 76, 84
14, 208371, Note_on_c, 11, 88, 0
14, 208371, Note_on_c, 11, 76, 0
14, 208380, Note_on_c, 11, 76, 84
14, 208380, Note_on_c, 11, 88, 84
14, 208431, Note_on_c, 11, 76, 0
14, 208431, Note_on_c, 11, 88, 0
14, 208440, Note_on_c, 11, 88, 84
14, 208440, Note_on_c, 11, 76, 84
14, 208491, Note_on_c, 11, 88, 0
14, 208491, Note_on_c, 11, 76, 0
14, 208500, Note_on_c, 11, 88, 84
14, 208500, Note_on_c, 11, 76, 84
14, 208551, Note_on_c, 11, 88, 0
14, 208551, Note_on_c, 11, 76, 0
14, 208920, Note_on_c, 11, 60, 44
14, 208971, Note_on_c, 11, 60, 0
14, 208980, Note_on_c, 11, 60, 44
14, 209031, Note_on_c, 11, 60, 0
14, 209040, Note_on_c, 11, 60, 44
14, 209091, Note_on_c, 11, 60, 0
14, 209100, Note_on_c, 11, 60, 44
14, 209151, Note_on_c, 11, 60, 0
14, 209160, Note_on_c, 11, 60, 44
14, 209211, Note_on_c, 11, 60, 0
14, 209220, Note_on_c, 11, 60, 44
14, 209271, Note_on_c, 11, 60, 0
14, 209280, Note_on_c, 11, 59, 44
14, 209331, Note_on_c, 11, 59, 0
14, 209340, Note_on_c, 11, 63, 47
14, 209391, Note_on_c, 11, 63, 0
14, 209400, Note_on_c, 11, 63, 50
14, 209451, Note_on_c, 11, 63, 0
14, 209460, Note_on_c, 11, 71, 54
14, 209511, Note_on_c, 11, 71, 0
14, 209520, Note_on_c, 11, 71, 57
14, 209571, Note_on_c, 11, 71, 0
14, 209580, Note_on_c, 11, 71, 60
14, 209631, Note_on_c, 11, 71, 0
14, 209640, Note_on_c, 11, 71, 64
14, 209691, Note_on_c, 11, 71, 0
14, 209700, Note_on_c, 11, 71, 67
14, 209751, Note_on_c, 11, 71, 0
14, 209760, Note_on_c, 11, 71, 70
14, 209811, Note_on_c, 11, 71, 0
14, 209820, Note_on_c, 11, 71, 74
14, 209871, Note_on_c, 11, 71, 0
14, 209880, Note_on_c, 11, 73, 77
14, 209931, Note_on_c, 11, 73, 0
14, 209940, Note_on_c, 11, 75, 80
14, 209991, Note_on_c, 11, 75, 0
14, 210000, Note_on_c, 11, 76, 84
14, 210051, Note_on_c, 11, 76, 0
14, 210060, Note_on_c, 11, 88, 84
14, 210060, Note_on_c, 11, 76, 84
14, 210111, Note_on_c, 11, 88, 0
14, 210111, Note_on_c, 11, 76, 0
14, 210120, Note_on_c, 11, 76, 84
14, 210120, Note_on_c, 11, 88, 84
14, 210171, Note_on_c, 11, 76, 0
14, 210171, Note_on_c, 11, 88, 0
14, 210180, Note_on_c, 11, 76, 84
14, 210180, Note_on_c, 11, 88, 84
14, 210231, Note_on_c, 11, 76, 0
14, 210231, Note_on_c, 11, 88, 0
14, 210240, Note_on_c, 11, 88, 84
14, 210240, Note_on_c, 11, 76, 84
14, 210291, Note_on_c, 11, 88, 0
14, 210291, Note_on_c, 11, 76, 0
14, 210300, Note_on_c, 11, 88, 84
14, 210300, Note_on_c, 11, 76, 84
14, 210351, Note_on_c, 11, 88, 0
14, 210351, Note_on_c, 11, 76, 0
14, 210360, Note_on_c, 11, 88, 84
14, 210360, Note_on_c, 11, 76, 84
14, 210411, Note_on_c, 11, 88, 0
14, 210411, Note_on_c, 11, 76, 0
14, 210420, Note_on_c, 11, 88, 84
14, 210420, Note_on_c, 11, 76, 84
14, 210471, Note_on_c, 11, 88, 0
14, 210471, Note_on_c, 11, 76, 0
14, 210480, Note_on_c, 11, 88, 84
14, 210480, Note_on_c, 11, 76, 84
14, 210531, Note_on_c, 11, 88, 0
14, 210531, Note_on_c, 11, 76, 0
14, 210540, Note_on_c, 11, 88, 84
14, 210540, Note_on_c, 11, 76, 84
14, 210591, Note_on_c, 11, 88, 0
14, 210591, Note_on_c, 11, 76, 0
14, 210600, Note_on_c, 11, 88, 84
14, 210600, Note_on_c, 11, 76, 84
14, 210651, Note_on_c, 11, 88, 0
14, 210651, Note_on_c, 11, 76, 0
14, 210660, Note_on_c, 11, 76, 84
14, 210660, Note_on_c, 11, 88, 84
14, 210711, Note_on_c, 11, 76, 0
14, 210711, Note_on_c, 11, 88, 0
14, 210720, Note_on_c, 11, 88, 84
14, 210720, Note_on_c, 11, 76, 84
14, 210771, Note_on_c, 11, 88, 0
14, 210771, Note_on_c, 11, 76, 0
14, 210780, Note_on_c, 11, 88, 84
14, 210780, Note_on_c, 11, 76, 84
14, 210831, Note_on_c, 11, 88, 0
14, 210831, Note_on_c, 11, 76, 0
14, 210840, Note_on_c, 11, 88, 84
14, 210840, Note_on_c, 11, 76, 84
14, 210891, Note_on_c, 11, 88, 0
14, 210891, Note_on_c, 11, 76, 0
14, 210900, Note_on_c, 11, 76, 84
14, 210900, Note_on_c, 11, 88, 84
14, 210951, Note_on_c, 11, 76, 0
14, 210951, Note_on_c, 11, 88, 0
14, 210960, Note_on_c, 11, 88, 84
14, 210960, Note_on_c, 11, 76, 84
14, 211011, Note_on_c, 11, 88, 0
14, 211011, Note_on_c, 11, 76, 0
14, 211020, Note_on_c, 11, 76, 84
14, 211020, Note_on_c, 11, 88, 84
14, 211071, Note_on_c, 11, 76, 0
14, 211071, Note_on_c, 11, 88, 0
14, 211080, Note_on_c, 11, 76, 84
14, 211080, Note_on_c, 11, 88, 84
14, 211131, Note_on_c, 11, 76, 0
14, 211131, Note_on_c, 11, 88, 0
14, 211140, Note_on_c, 11, 76, 84
14, 211140, Note_on_c, 11, 88, 84
14, 211191, Note_on_c, 11, 76, 0
14, 211191, Note_on_c, 11, 88, 0
14, 211200, Note_on_c, 11, 76, 84
14, 211200, Note_on_c, 11, 88, 84
14, 211251, Note_on_c, 11, 76, 0
14, 211251, Note_on_c, 11, 88, 0
14, 211260, Note_on_c, 11, 88, 84
14, 211260, Note_on_c, 11, 76, 84
14, 211311, Note_on_c, 11, 88, 0
14, 211311, Note_on_c, 11, 76, 0
14, 211320, Note_on_c, 11, 88, 84
14, 211320, Note_on_c, 11, 76, 84
14, 211371, Note_on_c, 11, 88, 0
14, 211371, Note_on_c, 11, 76, 0
14, 211380, Note_on_c, 11, 76, 84
14, 211380, Note_on_c, 11, 88, 84
14, 211431, Note_on_c, 11, 76, 0
14, 211431, Note_on_c, 11, 88, 0
14, 211440, Note_on_c, 11, 76, 84
14, 211440, Note_on_c, 11, 88, 84
14, 211491, Note_on_c, 11, 76, 0
14, 211491, Note_on_c, 11, 88, 0
14, 211500, Note_on_c, 11, 76, 84
14, 211500, Note_on_c, 11, 88, 84
14, 211551, Note_on_c, 11, 76, 0
14, 211551, Note_on_c, 11, 88, 0
14, 211560, Note_on_c, 11, 76, 84
14, 211560, Note_on_c, 11, 88, 84
14, 211611, Note_on_c, 11, 76, 0
14, 211611, Note_on_c, 11, 88, 0
14, 211620, Note_on_c, 11, 76, 84
14, 211620, Note_on_c, 11, 88, 84
14, 211671, Note_on_c, 11, 76, 0
14, 211671, Note_on_c, 11, 88, 0
14, 211680, Note_on_c, 11, 88, 84
14, 211680, Note_on_c, 11, 76, 84
14, 211731, Note_on_c, 11, 88, 0
14, 211731, Note_on_c, 11, 76, 0
14, 211740, Note_on_c, 11, 76, 84
14, 211740, Note_on_c, 11, 88, 84
14, 211791, Note_on_c, 11, 76, 0
14, 211791, Note_on_c, 11, 88, 0
14, 211800, Note_on_c, 11, 76, 84
14, 211800, Note_on_c, 11, 88, 84
14, 211851, Note_on_c, 11, 76, 0
14, 211851, Note_on_c, 11, 88, 0
14, 211860, Note_on_c, 11, 88, 84
14, 211860, Note_on_c, 11, 76, 84
14, 211911, Note_on_c, 11, 88, 0
14, 211911, Note_on_c, 11, 76, 0
14, 211920, Note_on_c, 11, 76, 84
14, 211920, Note_on_c, 11, 88, 84
14, 211971, Note_on_c, 11, 76, 0
14, 211971, Note_on_c, 11, 88, 0
14, 211980, Note_on_c, 11, 88, 84
14, 211980, Note_on_c, 11, 76, 84
14, 212031, Note_on_c, 11, 88, 0
14, 212031, Note_on_c, 11, 76, 0
14, 212040, Note_on_c, 11, 88, 84
14, 212040, Note_on_c, 11, 76, 84
14, 212091, Note_on_c, 11, 88, 0
14, 212091, Note_on_c, 11, 76, 0
14, 212100, Note_on_c, 11, 88, 84
14, 212100, Note_on_c, 11, 76, 84
14, 212151, Note_on_c, 11, 88, 0
14, 212151, Note_on_c, 11, 76, 0
14, 212160, Note_on_c, 11, 76, 84
14, 212160, Note_on_c, 11, 88, 84
14, 212211, Note_on_c, 11, 76, 0
14, 212211, Note_on_c, 11, 88, 0
14, 212220, Note_on_c, 11, 88, 84
14, 212220, Note_on_c, 11, 76, 84
14, 212271, Note_on_c, 11, 88, 0
14, 212271, Note_on_c, 11, 76, 0
14, 212280, Note_on_c, 11, 76, 84
14, 212280, Note_on_c, 11, 88, 84
14, 212331, Note_on_c, 11, 76, 0
14, 212331, Note_on_c, 11, 88, 0
14, 212340, Note_on_c, 11, 76, 84
14, 212340, Note_on_c, 11, 88, 84
14, 212391, Note_on_c, 11, 76, 0
14, 212391, Note_on_c, 11, 88, 0
14, 212400, Note_on_c, 11, 76, 84
14, 212400, Note_on_c, 11, 88, 84
14, 212451, Note_on_c, 11, 76, 0
14, 212451, Note_on_c, 11, 88, 0
14, 212460, Note_on_c, 11, 88, 84
14, 212460, Note_on_c, 11, 76, 84
14, 212511, Note_on_c, 11, 88, 0
14, 212511, Note_on_c, 11, 76, 0
14, 212520, Note_on_c, 11, 88, 84
14, 212520, Note_on_c, 11, 76, 84
14, 212571, Note_on_c, 11, 88, 0
14, 212571, Note_on_c, 11, 76, 0
14, 212580, Note_on_c, 11, 76, 84
14, 212580, Note_on_c, 11, 88, 84
14, 212631, Note_on_c, 11, 76, 0
14, 212631, Note_on_c, 11, 88, 0
14, 212640, Note_on_c, 11, 88, 84
14, 212640, Note_on_c, 11, 76, 84
14, 212691, Note_on_c, 11, 88, 0
14, 212691, Note_on_c, 11, 76, 0
14, 212700, Note_on_c, 11, 76, 84
14, 212700, Note_on_c, 11, 88, 84
14, 212751, Note_on_c, 11, 76, 0
14, 212751, Note_on_c, 11, 88, 0
14, 212760, Note_on_c, 11, 88, 84
14, 212760, Note_on_c, 11, 76, 84
14, 212811, Note_on_c, 11, 88, 0
14, 212811, Note_on_c, 11, 76, 0
14, 212820, Note_on_c, 11, 88, 84
14, 212820, Note_on_c, 11, 76, 84
14, 212871, Note_on_c, 11, 88, 0
14, 212871, Note_on_c, 11, 76, 0
14, 212878, Control_c, 11, 11, 48
14, 212880, Note_on_c, 11, 77, 84
14, 213239, Note_on_c, 11, 77, 0
14, 213240, Note_on_c, 11, 72, 84
14, 213599, Note_on_c, 11, 72, 0
14, 213600, Control_c, 11, 11, 48
14, 213600, Note_on_c, 11, 63, 84
14, 213640, Control_c, 11, 11, 52
14, 213680, Control_c, 11, 11, 57
14, 213720, Control_c, 11, 11, 61
14, 213760, Control_c, 11, 11, 66
14, 213800, Control_c, 11, 11, 70
14, 213840, Control_c, 11, 11, 74
14, 213880, Control_c, 11, 11, 79
14, 213920, Control_c, 11, 11, 83
14, 213960, Control_c, 11, 11, 88
14, 214000, Control_c, 11, 11, 92
14, 214040, Control_c, 11, 11, 96
14, 214079, Note_on_c, 11, 63, 0
14, 214080, Note_on_c, 11, 71, 84
14, 214080, Control_c, 11, 11, 101
14, 214120, Control_c, 11, 11, 105
14, 214160, Control_c, 11, 11, 109
14, 214184, Note_on_c, 11, 71, 0
14, 214200, Control_c, 11, 11, 114
14, 214200, Note_on_c, 11, 71, 84
14, 214240, Control_c, 11, 11, 118
14, 214280, Control_c, 11, 11, 123
14, 214289, Note_on_c, 11, 71, 0
14, 214318, Control_c, 11, 11, 127
14, 214320, Note_on_c, 11, 71, 84
14, 214424, Note_on_c, 11, 71, 0
14, 214440, Note_on_c, 11, 59, 84
14, 214491, Note_on_c, 11, 59, 0
14, 214500, Note_on_c, 11, 59, 84
14, 214551, Note_on_c, 11, 59, 0
14, 214560, Note_on_c, 11, 59, 84
14, 214611, Note_on_c, 11, 59, 0
14, 214620, Note_on_c, 11, 59, 84
14, 214671, Note_on_c, 11, 59, 0
14, 214680, Note_on_c, 11, 59, 84
14, 214784, Note_on_c, 11, 59, 0
14, 214800, Note_on_c, 11, 59, 84
14, 214851, Note_on_c, 11, 59, 0
14, 214860, Note_on_c, 11, 59, 84
14, 214911, Note_on_c, 11, 59, 0
14, 214920, Note_on_c, 11, 59, 84
14, 214971, Note_on_c, 11, 59, 0
14, 214980, Note_on_c, 11, 59, 84
14, 215031, Note_on_c, 11, 59, 0
14, 215040, Note_on_c, 11, 59, 84
14, 215144, Note_on_c, 11, 59, 0
14, 215160, Note_on_c, 11, 59, 84
14, 215211, Note_on_c, 11, 59, 0
14, 215220, Note_on_c, 11, 59, 84
14, 215271, Note_on_c, 11, 59, 0
14, 215280, Note_on_c, 11, 59, 84
14, 215331, Note_on_c, 11, 59, 0
14, 215340, Note_on_c, 11, 59, 84
14, 215391, Note_on_c, 11, 59, 0
14, 215400, Note_on_c, 11, 59, 84
14, 215504, Note_on_c, 11, 59, 0
14, 215520, Note_on_c, 11, 59, 84
14, 215571, Note_on_c, 11, 59, 0
14, 215580, Note_on_c, 11, 59, 84
14, 215631, Note_on_c, 11, 59, 0
14, 215640, Note_on_c, 11, 59, 84
14, 215691, Note_on_c, 11, 59, 0
14, 215700, Note_on_c, 11, 59, 84
14, 215751, Note_on_c, 11, 59, 0
14, 215760, Note_on_c, 11, 59, 84
14, 215864, Note_on_c, 11, 59, 0
14, 215880, Note_on_c, 11, 59, 84
14, 215931, Note_on_c, 11, 59, 0
14, 215940, Note_on_c, 11, 59, 84
14, 215991, Note_on_c, 11, 59, 0
14, 216000, Note_on_c, 11, 59, 84
14, 216051, Note_on_c, 11, 59, 0
14, 216060, Note_on_c, 11, 59, 84
14, 216111, Note_on_c, 11, 59, 0
14, 216120, Note_on_c, 11, 59, 84
14, 216224, Note_on_c, 11, 59, 0
14, 216240, Note_on_c, 11, 59, 84
14, 216291, Note_on_c, 11, 59, 0
14, 216300, Note_on_c, 11, 59, 84
14, 216351, Note_on_c, 11, 59, 0
14, 216360, Note_on_c, 11, 59, 84
14, 216411, Note_on_c, 11, 59, 0
14, 216420, Note_on_c, 11, 59, 84
14, 216471, Note_on_c, 11, 59, 0
14, 216480, Note_on_c, 11, 59, 84
14, 216584, Note_on_c, 11, 59, 0
14, 216600, Note_on_c, 11, 59, 84
14, 216651, Note_on_c, 11, 59, 0
14, 216660, Note_on_c, 11, 59, 84
14, 216711, Note_on_c, 11, 59, 0
14, 216720, Note_on_c, 11, 59, 84
14, 216771, Note_on_c, 11, 59, 0
14, 216780, Note_on_c, 11, 59, 84
14, 216831, Note_on_c, 11, 59, 0
14, 216840, Note_on_c, 11, 59, 84
14, 216944, Note_on_c, 11, 59, 0
14, 216960, Note_on_c, 11, 59, 84
14, 217011, Note_on_c, 11, 59, 0
14, 217020, Note_on_c, 11, 59, 84
14, 217071, Note_on_c, 11, 59, 0
14, 217080, Note_on_c, 11, 59, 84
14, 217131, Note_on_c, 11, 59, 0
14, 217140, Note_on_c, 11, 59, 84
14, 217191, Note_on_c, 11, 59, 0
14, 217200, Note_on_c, 11, 59, 84
14, 217304, Note_on_c, 11, 59, 0
14, 217320, Note_on_c, 11, 59, 84
14, 217371, Note_on_c, 11, 59, 0
14, 217380, Note_on_c, 11, 59, 84
14, 217431, Note_on_c, 11, 59, 0
14, 217440, Note_on_c, 11, 59, 84
14, 217491, Note_on_c, 11, 59, 0
14, 217500, Note_on_c, 11, 59, 84
14, 217551, Note_on_c, 11, 59, 0
14, 217560, Note_on_c, 11, 59, 84
14, 217664, Note_on_c, 11, 59, 0
14, 217680, Note_on_c, 11, 59, 84
14, 217731, Note_on_c, 11, 59, 0
14, 217740, Note_on_c, 11, 59, 84
14, 217791, Note_on_c, 11, 59, 0
14, 217800, Note_on_c, 11, 59, 84
14, 217851, Note_on_c, 11, 59, 0
14, 217860, Note_on_c, 11, 59, 84
14, 217911, Note_on_c, 11, 59, 0
14, 217920, Note_on_c, 11, 59, 84
14, 218024, Note_on_c, 11, 59, 0
14, 218040, Note_on_c, 11, 59, 84
14, 218091, Note_on_c, 11, 59, 0
14, 218100, Note_on_c, 11, 59, 84
14, 218151, Note_on_c, 11, 59, 0
14, 218160, Note_on_c, 11, 59, 84
14, 218211, Note_on_c, 11, 59, 0
14, 218220, Note_on_c, 11, 59, 84
14, 218271, Note_on_c, 11, 59, 0
14, 218280, Note_on_c, 11, 59, 84
14, 218384, Note_on_c, 11, 59, 0
14, 218400, Note_on_c, 11, 59, 84
14, 218451, Note_on_c, 11, 59, 0
14, 218460, Note_on_c, 11, 59, 84
14, 218511, Note_on_c, 11, 59, 0
14, 218520, Note_on_c, 11, 59, 84
14, 218571, Note_on_c, 11, 59, 0
14, 218580, Note_on_c, 11, 59, 84
14, 218631, Note_on_c, 11, 59, 0
14, 218640, Note_on_c, 11, 59, 84
14, 218744, Note_on_c, 11, 59, 0
14, 218760, Note_on_c, 11, 59, 84
14, 218811, Note_on_c, 11, 59, 0
14, 218820, Note_on_c, 11, 59, 84
14, 218871, Note_on_c, 11, 59, 0
14, 218880, Note_on_c, 11, 59, 84
14, 218931, Note_on_c, 11, 59, 0
14, 218940, Note_on_c, 11, 59, 84
14, 218991, Note_on_c, 11, 59, 0
14, 219000, Note_on_c, 11, 59, 84
14, 219104, Note_on_c, 11, 59, 0
14, 219120, Note_on_c, 11, 59, 84
14, 219171, Note_on_c, 11, 59, 0
14, 219180, Note_on_c, 11, 59, 84
14, 219231, Note_on_c, 11, 59, 0
14, 219240, Note_on_c, 11, 59, 84
14, 219291, Note_on_c, 11, 59, 0
14, 219300, Note_on_c, 11, 59, 84
14, 219321, Note_on_c, 11, 59, 0
14, 219330, Note_on_c, 11, 63, 84
14, 219359, Note_on_c, 11, 63, 0
14, 219360, Note_on_c, 11, 64, 84
14, 219539, Note_on_c, 11, 64, 0
14, 219690, Note_on_c, 11, 64, 84
14, 219719, Note_on_c, 11, 64, 0
14, 219720, Note_on_c, 11, 66, 84
14, 219899, Note_on_c, 11, 66, 0
14, 220050, Note_on_c, 11, 66, 84
14, 220079, Note_on_c, 11, 66, 0
14, 220080, Note_on_c, 11, 68, 84
14, 220259, Note_on_c, 11, 68, 0
14, 220410, Note_on_c, 11, 68, 84
14, 220439, Note_on_c, 11, 68, 0
14, 220440, Note_on_c, 11, 69, 84
14, 220619, Note_on_c, 11, 69, 0
14, 220770, Note_on_c, 11, 69, 84
14, 220799, Note_on_c, 11, 69, 0
14, 220800, Note_on_c, 11, 71, 84
14, 220979, Note_on_c, 11, 71, 0
14, 221130, Note_on_c, 11, 71, 84
14, 221159, Note_on_c, 11, 71, 0
14, 221160, Note_on_c, 11, 73, 84
14, 221339, Note_on_c, 11, 73, 0
14, 221490, Note_on_c, 11, 73, 84
14, 221519, Note_on_c, 11, 73, 0
14, 221520, Note_on_c, 11, 74, 84
14, 221699, Note_on_c, 11, 74, 0
14, 221880, Note_on_c, 11, 75, 84
14, 222059, Note_on_c, 11, 75, 0
14, 223650, Note_on_c, 11, 63, 84
14, 223679, Note_on_c, 11, 63, 0
14, 223680, Note_on_c, 11, 64, 84
14, 223859, Note_on_c, 11, 64, 0
14, 224010, Note_on_c, 11, 64, 84
14, 224039, Note_on_c, 11, 64, 0
14, 224040, Note_on_c, 11, 65, 84
14, 224219, Note_on_c, 11, 65, 0
14, 224370, Note_on_c, 11, 65, 84
14, 224399, Note_on_c, 11, 65, 0
14, 224400, Note_on_c, 11, 66, 84
14, 224579, Note_on_c, 11, 66, 0
14, 224730, Note_on_c, 11, 66, 84
14, 224759, Note_on_c, 11, 66, 0
14, 224760, Note_on_c, 11, 67, 84
14, 224939, Note_on_c, 11, 67, 0
14, 228000, Note_on_c, 11, 64, 44
14, 228171, Note_on_c, 11, 64, 0
14, 228180, Note_on_c, 11, 64, 44
14, 228231, Note_on_c, 11, 64, 0
14, 228240, Note_on_c, 11, 64, 44
14, 228344, Note_on_c, 11, 64, 0
14, 228360, Note_on_c, 11, 64, 44
14, 228531, Note_on_c, 11, 64, 0
14, 228540, Note_on_c, 11, 64, 44
14, 228591, Note_on_c, 11, 64, 0
14, 228600, Note_on_c, 11, 64, 44
14, 228704, Note_on_c, 11, 64, 0
14, 228720, Note_on_c, 11, 64, 44
14, 228891, Note_on_c, 11, 64, 0
14, 228900, Note_on_c, 11, 64, 44
14, 228951, Note_on_c, 11, 64, 0
14, 228960, Note_on_c, 11, 64, 44
14, 229064, Note_on_c, 11, 64, 0
14, 229080, Note_on_c, 11, 64, 44
14, 229251, Note_on_c, 11, 64, 0
14, 229260, Note_on_c, 11, 64, 44
14, 229311, Note_on_c, 11, 64, 0
14, 229320, Note_on_c, 11, 64, 44
14, 229424, Note_on_c, 11, 64, 0
14, 229440, Note_on_c, 11, 64, 44
14, 230159, Note_on_c, 11, 64, 0
14, 230160, Note_on_c, 11, 64, 44
14, 230879, Note_on_c, 11, 64, 0
14, 230880, Note_on_c, 11, 64, 44
14, 231584, Note_on_c, 11, 64, 0
14, 231600, Note_on_c, 11, 65, 44
14, 232304, Note_on_c, 11, 65, 0
14, 232320, Note_on_c, 11, 67, 44
14, 232851, Note_on_c, 11, 67, 0
14, 232860, Note_on_c, 11, 65, 44
14, 232904, Note_on_c, 11, 65, 0
14, 232920, Note_on_c, 11, 64, 44
14, 233009, Note_on_c, 11, 64, 0
14, 233040, Note_on_c, 11, 65, 44
14, 233211, Note_on_c, 11, 65, 0
14, 233220, Note_on_c, 11, 67, 44
14, 233264, Note_on_c, 11, 67, 0
14, 233280, Note_on_c, 11, 69, 44
14, 233369, Note_on_c, 11, 69, 0
14, 233400, Note_on_c, 11, 71, 44
14, 233571, Note_on_c, 11, 71, 0
14, 233580, Note_on_c, 11, 72, 44
14, 233624, Note_on_c, 11, 72, 0
14, 233640, Note_on_c, 11, 74, 44
14, 233729, Note_on_c, 11, 74, 0
14, 233760, Note_on_c, 11, 76, 44
14, 233931, Note_on_c, 11, 76, 0
14, 233940, Note_on_c, 11, 77, 44
14, 233984, Note_on_c, 11, 77, 0
14, 234000, Note_on_c, 11, 79, 44
14, 234089, Note_on_c, 11, 79, 0
14, 234120, Note_on_c, 11, 81, 44
14, 234291, Note_on_c, 11, 81, 0
14, 234300, Note_on_c, 11, 83, 44
14, 234344, Note_on_c, 11, 83, 0
14, 234360, Note_on_c, 11, 84, 44
14, 234449, Note_on_c, 11, 84, 0
14, 234480, Note_on_c, 11, 86, 44
14, 234651, Note_on_c, 11, 86, 0
14, 234660, Note_on_c, 11, 84, 44
14, 234704, Note_on_c, 11, 84, 0
14, 234720, Note_on_c, 11, 83, 44
14, 234809, Note_on_c, 11, 83, 0
14, 234840, Note_on_c, 11, 81, 44
14, 235011, Note_on_c, 11, 81, 0
14, 235020, Note_on_c, 11, 79, 44
14, 235064, Note_on_c, 11, 79, 0
14, 235080, Note_on_c, 11, 77, 44
14, 235169, Note_on_c, 11, 77, 0
14, 235200, Note_on_c, 11, 76, 44
14, 235371, Note_on_c, 11, 76, 0
14, 235380, Note_on_c, 11, 74, 44
14, 235424, Note_on_c, 11, 74, 0
14, 235440, Note_on_c, 11, 72, 44
14, 235529, Note_on_c, 11, 72, 0
14, 235560, Note_on_c, 11, 72, 44
14, 235799, Note_on_c, 11, 72, 0
14, 235920, Note_on_c, 11, 71, 44
14, 236091, Note_on_c, 11, 71, 0
14, 236100, Note_on_c, 11, 69, 44
14, 236144, Note_on_c, 11, 69, 0
14, 236160, Note_on_c, 11, 67, 44
14, 236249, Note_on_c, 11, 67, 0
14, 236280, Note_on_c, 11, 67, 44
14, 236519, Note_on_c, 11, 67, 0
14, 236640, Note_on_c, 11, 76, 44
14, 236811, Note_on_c, 11, 76, 0
14, 236820, Note_on_c, 11, 76, 45
14, 236864, Note_on_c, 11, 76, 0
14, 236880, Note_on_c, 11, 76, 45
14, 236969, Note_on_c, 11, 76, 0
14, 237000, Note_on_c, 11, 76, 46
14, 237171, Note_on_c, 11, 76, 0
14, 237180, Note_on_c, 11, 76, 48
14, 237224, Note_on_c, 11, 76, 0
14, 237240, Note_on_c, 11, 76, 48
14, 237329, Note_on_c, 11, 76, 0
14, 237360, Note_on_c, 11, 76, 49
14, 237531, Note_on_c, 11, 76, 0
14, 237540, Note_on_c, 11, 76, 50
14, 237584, Note_on_c, 11, 76, 0
14, 237600, Note_on_c, 11, 76, 51
14, 237689, Note_on_c, 11, 76, 0
14, 237720, Note_on_c, 11, 76, 52
14, 237891, Note_on_c, 11, 76, 0
14, 237900, Note_on_c, 11, 76, 53
14, 237944, Note_on_c, 11, 76, 0
14, 237960, Note_on_c, 11, 76, 53
14, 238049, Note_on_c, 11, 76, 0
14, 238080, Note_on_c, 11, 75, 54
14, 238251, Note_on_c, 11, 75, 0
14, 238260, Note_on_c, 11, 75, 56
14, 238304, Note_on_c, 11, 75, 0
14, 238320, Note_on_c, 11, 75, 56
14, 238409, Note_on_c, 11, 75, 0
14, 238440, Note_on_c, 11, 75, 57
14, 238611, Note_on_c, 11, 75, 0
14, 238620, Note_on_c, 11, 75, 58
14, 238664, Note_on_c, 11, 75, 0
14, 238680, Note_on_c, 11, 75, 59
14, 238769, Note_on_c, 11, 75, 0
14, 238800, Note_on_c, 11, 75, 60
14, 238971, Note_on_c, 11, 75, 0
14, 238980, Note_on_c, 11, 75, 61
14, 239024, Note_on_c, 11, 75, 0
14, 239040, Note_on_c, 11, 75, 61
14, 239129, Note_on_c, 11, 75, 0
14, 239160, Note_on_c, 11, 75, 62
14, 239331, Note_on_c, 11, 75, 0
14, 239340, Note_on_c, 11, 75, 64
14, 239384, Note_on_c, 11, 75, 0
14, 239400, Note_on_c, 11, 75, 64
14, 239489, Note_on_c, 11, 75, 0
14, 239520, Note_on_c, 11, 74, 65
14, 239691, Note_on_c, 11, 74, 0
14, 239700, Note_on_c, 11, 74, 66
14, 239744, Note_on_c, 11, 74, 0
14, 239760, Note_on_c, 11, 74, 67
14, 239849, Note_on_c, 11, 74, 0
14, 239880, Note_on_c, 11, 74, 68
14, 240051, Note_on_c, 11, 74, 0
14, 240060, Note_on_c, 11, 74, 69
14, 240104, Note_on_c, 11, 74, 0
14, 240120, Note_on_c, 11, 74, 69
14, 240209, Note_on_c, 11, 74, 0
14, 240240, Note_on_c, 11, 74, 70
14, 240411, Note_on_c, 11, 74, 0
14, 240420, Note_on_c, 11, 74, 72
14, 240464, Note_on_c, 11, 74, 0
14, 240480, Note_on_c, 11, 74, 72
14, 240569, Note_on_c, 11, 74, 0
14, 240600, Note_on_c, 11, 74, 73
14, 240771, Note_on_c, 11, 74, 0
14, 240780, Note_on_c, 11, 74, 74
14, 240824, Note_on_c, 11, 74, 0
14, 240840, Note_on_c, 11, 74, 75
14, 240929, Note_on_c, 11, 74, 0
14, 240960, Note_on_c, 11, 76, 76
14, 241064, Note_on_c, 11, 76, 0
14, 241080, Note_on_c, 11, 55, 76
14, 241080, Note_on_c, 11, 64, 76
14, 241131, Note_on_c, 11, 55, 0
14, 241131, Note_on_c, 11, 64, 0
14, 241140, Note_on_c, 11, 64, 76
14, 241140, Note_on_c, 11, 55, 76
14, 241191, Note_on_c, 11, 64, 0
14, 241191, Note_on_c, 11, 55, 0
14, 241200, Note_on_c, 11, 64, 76
14, 241200, Note_on_c, 11, 55, 76
14, 241251, Note_on_c, 11, 64, 0
14, 241251, Note_on_c, 11, 55, 0
14, 241260, Note_on_c, 11, 55, 76
14, 241260, Note_on_c, 11, 64, 76
14, 241311, Note_on_c, 11, 55, 0
14, 241311, Note_on_c, 11, 64, 0
14, 241320, Note_on_c, 11, 64, 76
14, 241320, Note_on_c, 11, 55, 76
14, 241424, Note_on_c, 11, 64, 0
14, 241424, Note_on_c, 11, 55, 0
14, 241440, Note_on_c, 11, 55, 76
14, 241440, Note_on_c, 11, 64, 76
14, 241491, Note_on_c, 11, 55, 0
14, 241491, Note_on_c, 11, 64, 0
14, 241500, Note_on_c, 11, 64, 76
14, 241500, Note_on_c, 11, 55, 76
14, 241551, Note_on_c, 11, 64, 0
14, 241551, Note_on_c, 11, 55, 0
14, 241560, Note_on_c, 11, 64, 76
14, 241560, Note_on_c, 11, 55, 76
14, 241611, Note_on_c, 11, 64, 0
14, 241611, Note_on_c, 11, 55, 0
14, 241620, Note_on_c, 11, 64, 76
14, 241620, Note_on_c, 11, 55, 76
14, 241671, Note_on_c, 11, 64, 0
14, 241671, Note_on_c, 11, 55, 0
14, 241680, Note_on_c, 11, 64, 76
14, 241680, Note_on_c, 11, 55, 76
14, 241784, Note_on_c, 11, 64, 0
14, 241784, Note_on_c, 11, 55, 0
14, 241800, Note_on_c, 11, 64, 76
14, 241800, Note_on_c, 11, 55, 76
14, 241851, Note_on_c, 11, 64, 0
14, 241851, Note_on_c, 11, 55, 0
14, 241860, Note_on_c, 11, 55, 76
14, 241860, Note_on_c, 11, 64, 76
14, 241911, Note_on_c, 11, 55, 0
14, 241911, Note_on_c, 11, 64, 0
14, 241920, Note_on_c, 11, 55, 76
14, 241920, Note_on_c, 11, 64, 76
14, 241971, Note_on_c, 11, 55, 0
14, 241971, Note_on_c, 11, 64, 0
14, 241980, Note_on_c, 11, 64, 76
14, 241980, Note_on_c, 11, 55, 76
14, 242031, Note_on_c, 11, 64, 0
14, 242031, Note_on_c, 11, 55, 0
14, 242040, Note_on_c, 11, 64, 76
14, 242040, Note_on_c, 11, 55, 76
14, 242144, Note_on_c, 11, 64, 0
14, 242144, Note_on_c, 11, 55, 0
14, 242160, Note_on_c, 11, 55, 76
14, 242160, Note_on_c, 11, 64, 76
14, 242211, Note_on_c, 11, 55, 0
14, 242211, Note_on_c, 11, 64, 0
14, 242220, Note_on_c, 11, 64, 76
14, 242220, Note_on_c, 11, 55, 76
14, 242271, Note_on_c, 11, 64, 0
14, 242271, Note_on_c, 11, 55, 0
14, 242280, Note_on_c, 11, 64, 76
14, 242280, Note_on_c, 11, 55, 76
14, 242331, Note_on_c, 11, 64, 0
14, 242331, Note_on_c, 11, 55, 0
14, 242340, Note_on_c, 11, 55, 76
14, 242340, Note_on_c, 11, 64, 76
14, 242391, Note_on_c, 11, 55, 0
14, 242391, Note_on_c, 11, 64, 0
14, 242400, Note_on_c, 11, 55, 76
14, 242400, Note_on_c, 11, 64, 76
14, 242504, Note_on_c, 11, 55, 0
14, 242504, Note_on_c, 11, 64, 0
14, 242520, Note_on_c, 11, 55, 76
14, 242520, Note_on_c, 11, 64, 76
14, 242571, Note_on_c, 11, 55, 0
14, 242571, Note_on_c, 11, 64, 0
14, 242580, Note_on_c, 11, 55, 76
14, 242580, Note_on_c, 11, 64, 76
14, 242631, Note_on_c, 11, 55, 0
14, 242631, Note_on_c, 11, 64, 0
14, 242640, Note_on_c, 11, 64, 76
14, 242640, Note_on_c, 11, 55, 76
14, 242691, Note_on_c, 11, 64, 0
14, 242691, Note_on_c, 11, 55, 0
14, 242700, Note_on_c, 11, 55, 76
14, 242700, Note_on_c, 11, 64, 76
14, 242751, Note_on_c, 11, 55, 0
14, 242751, Note_on_c, 11, 64, 0
14, 242760, Note_on_c, 11, 55, 76
14, 242760, Note_on_c, 11, 64, 76
14, 242864, Note_on_c, 11, 55, 0
14, 242864, Note_on_c, 11, 64, 0
14, 242880, Note_on_c, 11, 55, 76
14, 242880, Note_on_c, 11, 64, 76
14, 242931, Note_on_c, 11, 55, 0
14, 242931, Note_on_c, 11, 64, 0
14, 242940, Note_on_c, 11, 55, 76
14, 242940, Note_on_c, 11, 64, 76
14, 242991, Note_on_c, 11, 55, 0
14, 242991, Note_on_c, 11, 64, 0
14, 243000, Note_on_c, 11, 64, 76
14, 243000, Note_on_c, 11, 55, 76
14, 243051, Note_on_c, 11, 64, 0
14, 243051, Note_on_c, 11, 55, 0
14, 243060, Note_on_c, 11, 55, 76
14, 243060, Note_on_c, 11, 64, 76
14, 243111, Note_on_c, 11, 55, 0
14, 243111, Note_on_c, 11, 64, 0
14, 243120, Note_on_c, 11, 64, 76
14, 243120, Note_on_c, 11, 55, 76
14, 243224, Note_on_c, 11, 64, 0
14, 243224, Note_on_c, 11, 55, 0
14, 243240, Note_on_c, 11, 64, 76
14, 243240, Note_on_c, 11, 55, 76
14, 243291, Note_on_c, 11, 64, 0
14, 243291, Note_on_c, 11, 55, 0
14, 243300, Note_on_c, 11, 64, 76
14, 243300, Note_on_c, 11, 55, 76
14, 243351, Note_on_c, 11, 64, 0
14, 243351, Note_on_c, 11, 55, 0
14, 243360, Note_on_c, 11, 64, 76
14, 243360, Note_on_c, 11, 55, 76
14, 243411, Note_on_c, 11, 64, 0
14, 243411, Note_on_c, 11, 55, 0
14, 243420, Note_on_c, 11, 55, 76
14, 243420, Note_on_c, 11, 64, 76
14, 243471, Note_on_c, 11, 55, 0
14, 243471, Note_on_c, 11, 64, 0
14, 243480, Note_on_c, 11, 55, 76
14, 243480, Note_on_c, 11, 64, 76
14, 243584, Note_on_c, 11, 55, 0
14, 243584, Note_on_c, 11, 64, 0
14, 243600, Note_on_c, 11, 64, 76
14, 243600, Note_on_c, 11, 55, 76
14, 243651, Note_on_c, 11, 64, 0
14, 243651, Note_on_c, 11, 55, 0
14, 243660, Note_on_c, 11, 55, 76
14, 243660, Note_on_c, 11, 64, 76
14, 243711, Note_on_c, 11, 55, 0
14, 243711, Note_on_c, 11, 64, 0
14, 243720, Note_on_c, 11, 55, 76
14, 243720, Note_on_c, 11, 64, 76
14, 243771, Note_on_c, 11, 55, 0
14, 243771, Note_on_c, 11, 64, 0
14, 243780, Note_on_c, 11, 55, 76
14, 243780, Note_on_c, 11, 64, 76
14, 243831, Note_on_c, 11, 55, 0
14, 243831, Note_on_c, 11, 64, 0
14, 243840, Note_on_c, 11, 65, 84
14, 243840, Note_on_c, 11, 55, 84
14, 243944, Note_on_c, 11, 65, 0
14, 243944, Note_on_c, 11, 55, 0
14, 243960, Note_on_c, 11, 65, 84
14, 243960, Note_on_c, 11, 55, 84
14, 244011, Note_on_c, 11, 65, 0
14, 244011, Note_on_c, 11, 55, 0
14, 244020, Note_on_c, 11, 55, 84
14, 244020, Note_on_c, 11, 65, 84
14, 244071, Note_on_c, 11, 55, 0
14, 244071, Note_on_c, 11, 65, 0
14, 244080, Note_on_c, 11, 55, 84
14, 244080, Note_on_c, 11, 65, 84
14, 244131, Note_on_c, 11, 55, 0
14, 244131, Note_on_c, 11, 65, 0
14, 244140, Note_on_c, 11, 55, 84
14, 244140, Note_on_c, 11, 65, 84
14, 244191, Note_on_c, 11, 55, 0
14, 244191, Note_on_c, 11, 65, 0
14, 244200, Note_on_c, 11, 55, 84
14, 244200, Note_on_c, 11, 65, 84
14, 244304, Note_on_c, 11, 55, 0
14, 244304, Note_on_c, 11, 65, 0
14, 244320, Note_on_c, 11, 65, 84
14, 244320, Note_on_c, 11, 55, 84
14, 244371, Note_on_c, 11, 65, 0
14, 244371, Note_on_c, 11, 55, 0
14, 244380, Note_on_c, 11, 55, 84
14, 244380, Note_on_c, 11, 65, 84
14, 244431, Note_on_c, 11, 55, 0
14, 244431, Note_on_c, 11, 65, 0
14, 244440, Note_on_c, 11, 55, 84
14, 244440, Note_on_c, 11, 65, 84
14, 244491, Note_on_c, 11, 55, 0
14, 244491, Note_on_c, 11, 65, 0
14, 244500, Note_on_c, 11, 65, 84
14, 244500, Note_on_c, 11, 55, 84
14, 244551, Note_on_c, 11, 65, 0
14, 244551, Note_on_c, 11, 55, 0
14, 244560, Note_on_c, 11, 55, 84
14, 244560, Note_on_c, 11, 65, 84
14, 244664, Note_on_c, 11, 55, 0
14, 244664, Note_on_c, 11, 65, 0
14, 244680, Note_on_c, 11, 65, 84
14, 244680, Note_on_c, 11, 55, 84
14, 244731, Note_on_c, 11, 65, 0
14, 244731, Note_on_c, 11, 55, 0
14, 244740, Note_on_c, 11, 55, 84
14, 244740, Note_on_c, 11, 65, 84
14, 244791, Note_on_c, 11, 55, 0
14, 244791, Note_on_c, 11, 65, 0
14, 244800, Note_on_c, 11, 65, 84
14, 244800, Note_on_c, 11, 55, 84
14, 244851, Note_on_c, 11, 65, 0
14, 244851, Note_on_c, 11, 55, 0
14, 244860, Note_on_c, 11, 65, 84
14, 244860, Note_on_c, 11, 55, 84
14, 244911, Note_on_c, 11, 65, 0
14, 244911, Note_on_c, 11, 55, 0
14, 244920, Note_on_c, 11, 65, 84
14, 244920, Note_on_c, 11, 55, 84
14, 245024, Note_on_c, 11, 65, 0
14, 245024, Note_on_c, 11, 55, 0
14, 245040, Note_on_c, 11, 65, 84
14, 245040, Note_on_c, 11, 55, 84
14, 245091, Note_on_c, 11, 65, 0
14, 245091, Note_on_c, 11, 55, 0
14, 245100, Note_on_c, 11, 55, 84
14, 245100, Note_on_c, 11, 65, 84
14, 245151, Note_on_c, 11, 55, 0
14, 245151, Note_on_c, 11, 65, 0
14, 245160, Note_on_c, 11, 65, 84
14, 245160, Note_on_c, 11, 55, 84
14, 245211, Note_on_c, 11, 65, 0
14, 245211, Note_on_c, 11, 55, 0
14, 245220, Note_on_c, 11, 55, 84
14, 245220, Note_on_c, 11, 65, 84
14, 245271, Note_on_c, 11, 55, 0
14, 245271, Note_on_c, 11, 65, 0
14, 245280, Note_on_c, 11, 65, 84
14, 245280, Note_on_c, 11, 55, 84
14, 245384, Note_on_c, 11, 65, 0
14, 245384, Note_on_c, 11, 55, 0
14, 245400, Note_on_c, 11, 65, 84
14, 245400, Note_on_c, 11, 55, 84
14, 245451, Note_on_c, 11, 65, 0
14, 245451, Note_on_c, 11, 55, 0
14, 245460, Note_on_c, 11, 55, 84
14, 245460, Note_on_c, 11, 65, 84
14, 245511, Note_on_c, 11, 55, 0
14, 245511, Note_on_c, 11, 65, 0
14, 245520, Note_on_c, 11, 65, 84
14, 245520, Note_on_c, 11, 55, 84
14, 245571, Note_on_c, 11, 65, 0
14, 245571, Note_on_c, 11, 55, 0
14, 245580, Note_on_c, 11, 65, 84
14, 245580, Note_on_c, 11, 55, 84
14, 245631, Note_on_c, 11, 65, 0
14, 245631, Note_on_c, 11, 55, 0
14, 245640, Note_on_c, 11, 65, 84
14, 245640, Note_on_c, 11, 55, 84
14, 245744, Note_on_c, 11, 65, 0
14, 245744, Note_on_c, 11, 55, 0
14, 245760, Note_on_c, 11, 55, 84
14, 245760, Note_on_c, 11, 65, 84
14, 245811, Note_on_c, 11, 55, 0
14, 245811, Note_on_c, 11, 65, 0
14, 245820, Note_on_c, 11, 55, 84
14, 245820, Note_on_c, 11, 65, 84
14, 245871, Note_on_c, 11, 55, 0
14, 245871, Note_on_c, 11, 65, 0
14, 245880, Note_on_c, 11, 65, 84
14, 245880, Note_on_c, 11, 55, 84
14, 245931, Note_on_c, 11, 65, 0
14, 245931, Note_on_c, 11, 55, 0
14, 245940, Note_on_c, 11, 55, 84
14, 245940, Note_on_c, 11, 65, 84
14, 245991, Note_on_c, 11, 55, 0
14, 245991, Note_on_c, 11, 65, 0
14, 246000, Note_on_c, 11, 55, 84
14, 246000, Note_on_c, 11, 65, 84
14, 246104, Note_on_c, 11, 55, 0
14, 246104, Note_on_c, 11, 65, 0
14, 246120, Note_on_c, 11, 65, 84
14, 246120, Note_on_c, 11, 55, 84
14, 246171, Note_on_c, 11, 65, 0
14, 246171, Note_on_c, 11, 55, 0
14, 246180, Note_on_c, 11, 65, 84
14, 246180, Note_on_c, 11, 55, 84
14, 246231, Note_on_c, 11, 65, 0
14, 246231, Note_on_c, 11, 55, 0
14, 246240, Note_on_c, 11, 65, 84
14, 246240, Note_on_c, 11, 55, 84
14, 246291, Note_on_c, 11, 65, 0
14, 246291, Note_on_c, 11, 55, 0
14, 246300, Note_on_c, 11, 55, 84
14, 246300, Note_on_c, 11, 65, 84
14, 246351, Note_on_c, 11, 55, 0
14, 246351, Note_on_c, 11, 65, 0
14, 246360, Note_on_c, 11, 55, 84
14, 246360, Note_on_c, 11, 65, 84
14, 246464, Note_on_c, 11, 55, 0
14, 246464, Note_on_c, 11, 65, 0
14, 246480, Note_on_c, 11, 65, 84
14, 246480, Note_on_c, 11, 55, 84
14, 246531, Note_on_c, 11, 65, 0
14, 246531, Note_on_c, 11, 55, 0
14, 246540, Note_on_c, 11, 65, 84
14, 246540, Note_on_c, 11, 55, 84
14, 246591, Note_on_c, 11, 65, 0
14, 246591, Note_on_c, 11, 55, 0
14, 246600, Note_on_c, 11, 55, 84
14, 246600, Note_on_c, 11, 65, 84
14, 246651, Note_on_c, 11, 55, 0
14, 246651, Note_on_c, 11, 65, 0
14, 246660, Note_on_c, 11, 65, 84
14, 246660, Note_on_c, 11, 55, 84
14, 246711, Note_on_c, 11, 65, 0
14, 246711, Note_on_c, 11, 55, 0
14, 246720, Note_on_c, 11, 65, 84
14, 246720, Note_on_c, 11, 55, 84
14, 246824, Note_on_c, 11, 65, 0
14, 246824, Note_on_c, 11, 55, 0
14, 246840, Note_on_c, 11, 65, 84
14, 246840, Note_on_c, 11, 55, 84
14, 246891, Note_on_c, 11, 65, 0
14, 246891, Note_on_c, 11, 55, 0
14, 246900, Note_on_c, 11, 65, 84
14, 246900, Note_on_c, 11, 55, 84
14, 246951, Note_on_c, 11, 65, 0
14, 246951, Note_on_c, 11, 55, 0
14, 246960, Note_on_c, 11, 55, 84
14, 246960, Note_on_c, 11, 65, 84
14, 247011, Note_on_c, 11, 55, 0
14, 247011, Note_on_c, 11, 65, 0
14, 247020, Note_on_c, 11, 65, 84
14, 247020, Note_on_c, 11, 55, 84
14, 247071, Note_on_c, 11, 65, 0
14, 247071, Note_on_c, 11, 55, 0
14, 247080, Note_on_c, 11, 65, 84
14, 247080, Note_on_c, 11, 55, 84
14, 247184, Note_on_c, 11, 65, 0
14, 247184, Note_on_c, 11, 55, 0
14, 247200, Note_on_c, 11, 55, 84
14, 247200, Note_on_c, 11, 65, 84
14, 247251, Note_on_c, 11, 55, 0
14, 247251, Note_on_c, 11, 65, 0
14, 247260, Note_on_c, 11, 55, 84
14, 247260, Note_on_c, 11, 65, 84
14, 247311, Note_on_c, 11, 55, 0
14, 247311, Note_on_c, 11, 65, 0
14, 247320, Note_on_c, 11, 55, 84
14, 247320, Note_on_c, 11, 65, 84
14, 247371, Note_on_c, 11, 55, 0
14, 247371, Note_on_c, 11, 65, 0
14, 247380, Note_on_c, 11, 55, 84
14, 247380, Note_on_c, 11, 65, 84
14, 247431, Note_on_c, 11, 55, 0
14, 247431, Note_on_c, 11, 65, 0
14, 247440, Note_on_c, 11, 65, 84
14, 247440, Note_on_c, 11, 55, 84
14, 247544, Note_on_c, 11, 65, 0
14, 247544, Note_on_c, 11, 55, 0
14, 247560, Note_on_c, 11, 65, 84
14, 247560, Note_on_c, 11, 55, 84
14, 247611, Note_on_c, 11, 65, 0
14, 247611, Note_on_c, 11, 55, 0
14, 247620, Note_on_c, 11, 65, 84
14, 247620, Note_on_c, 11, 55, 84
14, 247671, Note_on_c, 11, 65, 0
14, 247671, Note_on_c, 11, 55, 0
14, 247680, Note_on_c, 11, 55, 84
14, 247680, Note_on_c, 11, 65, 84
14, 247731, Note_on_c, 11, 55, 0
14, 247731, Note_on_c, 11, 65, 0
14, 247740, Note_on_c, 11, 55, 84
14, 247740, Note_on_c, 11, 65, 84
14, 247791, Note_on_c, 11, 55, 0
14, 247791, Note_on_c, 11, 65, 0
14, 247800, Note_on_c, 11, 65, 84
14, 247800, Note_on_c, 11, 55, 84
14, 247904, Note_on_c, 11, 65, 0
14, 247904, Note_on_c, 11, 55, 0
14, 247920, Note_on_c, 11, 65, 84
14, 247920, Note_on_c, 11, 55, 84
14, 247971, Note_on_c, 11, 65, 0
14, 247971, Note_on_c, 11, 55, 0
14, 247980, Note_on_c, 11, 65, 84
14, 247980, Note_on_c, 11, 55, 84
14, 248031, Note_on_c, 11, 65, 0
14, 248031, Note_on_c, 11, 55, 0
14, 248040, Note_on_c, 11, 65, 84
14, 248040, Note_on_c, 11, 55, 84
14, 248091, Note_on_c, 11, 65, 0
14, 248091, Note_on_c, 11, 55, 0
14, 248100, Note_on_c, 11, 55, 84
14, 248100, Note_on_c, 11, 65, 84
14, 248151, Note_on_c, 11, 55, 0
14, 248151, Note_on_c, 11, 65, 0
14, 248160, Note_on_c, 11, 56, 84
14, 248160, Note_on_c, 11, 64, 84
14, 248399, Note_on_c, 11, 56, 0
14, 248399, Note_on_c, 11, 64, 0
14, 249600, Note_on_c, 11, 64, 84
14, 249600, Note_on_c, 11, 56, 84
14, 249704, Note_on_c, 11, 64, 0
14, 249704, Note_on_c, 11, 56, 0
14, 249720, Note_on_c, 11, 64, 84
14, 249720, Note_on_c, 11, 56, 84
14, 249771, Note_on_c, 11, 64, 0
14, 249771, Note_on_c, 11, 56, 0
14, 249780, Note_on_c, 11, 56, 84
14, 249780, Note_on_c, 11, 64, 84
14, 249831, Note_on_c, 11, 56, 0
14, 249831, Note_on_c, 11, 64, 0
14, 249840, Note_on_c, 11, 64, 84
14, 249840, Note_on_c, 11, 56, 84
14, 249891, Note_on_c, 11, 64, 0
14, 249891, Note_on_c, 11, 56, 0
14, 249900, Note_on_c, 11, 64, 84
14, 249900, Note_on_c, 11, 56, 84
14, 249951, Note_on_c, 11, 64, 0
14, 249951, Note_on_c, 11, 56, 0
14, 249960, Note_on_c, 11, 56, 84
14, 249960, Note_on_c, 11, 64, 84
14, 250064, Note_on_c, 11, 56, 0
14, 250064, Note_on_c, 11, 64, 0
14, 250080, Note_on_c, 11, 64, 84
14, 250080, Note_on_c, 11, 56, 84
14, 250131, Note_on_c, 11, 64, 0
14, 250131, Note_on_c, 11, 56, 0
14, 250140, Note_on_c, 11, 56, 84
14, 250140, Note_on_c, 11, 64, 84
14, 250191, Note_on_c, 11, 56, 0
14, 250191, Note_on_c, 11, 64, 0
14, 250200, Note_on_c, 11, 56, 84
14, 250200, Note_on_c, 11, 64, 84
14, 250251, Note_on_c, 11, 56, 0
14, 250251, Note_on_c, 11, 64, 0
14, 250260, Note_on_c, 11, 56, 84
14, 250260, Note_on_c, 11, 64, 84
14, 250311, Note_on_c, 11, 56, 0
14, 250311, Note_on_c, 11, 64, 0
14, 250320, Note_on_c, 11, 64, 84
14, 250320, Note_on_c, 11, 56, 84
14, 250424, Note_on_c, 11, 64, 0
14, 250424, Note_on_c, 11, 56, 0
14, 250440, Note_on_c, 11, 56, 84
14, 250440, Note_on_c, 11, 64, 84
14, 250491, Note_on_c, 11, 56, 0
14, 250491, Note_on_c, 11, 64, 0
14, 250500, Note_on_c, 11, 56, 84
14, 250500, Note_on_c, 11, 64, 84
14, 250551, Note_on_c, 11, 56, 0
14, 250551, Note_on_c, 11, 64, 0
14, 250560, Note_on_c, 11, 56, 84
14, 250560, Note_on_c, 11, 64, 84
14, 250611, Note_on_c, 11, 56, 0
14, 250611, Note_on_c, 11, 64, 0
14, 250620, Note_on_c, 11, 56, 84
14, 250620, Note_on_c, 11, 64, 84
14, 250671, Note_on_c, 11, 56, 0
14, 250671, Note_on_c, 11, 64, 0
14, 250680, Note_on_c, 11, 56, 84
14, 250680, Note_on_c, 11, 64, 84
14, 250784, Note_on_c, 11, 56, 0
14, 250784, Note_on_c, 11, 64, 0
14, 250800, Note_on_c, 11, 64, 84
14, 250800, Note_on_c, 11, 56, 84
14, 250851, Note_on_c, 11, 64, 0
14, 250851, Note_on_c, 11, 56, 0
14, 250860, Note_on_c, 11, 56, 84
14, 250860, Note_on_c, 11, 64, 84
14, 250911, Note_on_c, 11, 56, 0
14, 250911, Note_on_c, 11, 64, 0
14, 250920, Note_on_c, 11, 56, 84
14, 250920, Note_on_c, 11, 64, 84
14, 250971, Note_on_c, 11, 56, 0
14, 250971, Note_on_c, 11, 64, 0
14, 250980, Note_on_c, 11, 56, 84
14, 250980, Note_on_c, 11, 64, 84
14, 251031, Note_on_c, 11, 56, 0
14, 251031, Note_on_c, 11, 64, 0
14, 251040, Note_on_c, 11, 64, 84
14, 251040, Note_on_c, 11, 56, 84
14, 251144, Note_on_c, 11, 64, 0
14, 251144, Note_on_c, 11, 56, 0
14, 251160, Note_on_c, 11, 64, 84
14, 251160, Note_on_c, 11, 56, 84
14, 251211, Note_on_c, 11, 64, 0
14, 251211, Note_on_c, 11, 56, 0
14, 251220, Note_on_c, 11, 56, 84
14, 251220, Note_on_c, 11, 64, 84
14, 251271, Note_on_c, 11, 56, 0
14, 251271, Note_on_c, 11, 64, 0
14, 251280, Note_on_c, 11, 64, 84
14, 251280, Note_on_c, 11, 56, 84
14, 251331, Note_on_c, 11, 64, 0
14, 251331, Note_on_c, 11, 56, 0
14, 251340, Note_on_c, 11, 56, 84
14, 251340, Note_on_c, 11, 64, 84
14, 251391, Note_on_c, 11, 56, 0
14, 251391, Note_on_c, 11, 64, 0
14, 251400, Note_on_c, 11, 56, 84
14, 251400, Note_on_c, 11, 64, 84
14, 251504, Note_on_c, 11, 56, 0
14, 251504, Note_on_c, 11, 64, 0
14, 251520, Note_on_c, 11, 64, 84
14, 251520, Note_on_c, 11, 56, 84
14, 251571, Note_on_c, 11, 64, 0
14, 251571, Note_on_c, 11, 56, 0
14, 251580, Note_on_c, 11, 64, 84
14, 251580, Note_on_c, 11, 56, 84
14, 251631, Note_on_c, 11, 64, 0
14, 251631, Note_on_c, 11, 56, 0
14, 251640, Note_on_c, 11, 56, 84
14, 251640, Note_on_c, 11, 64, 84
14, 251691, Note_on_c, 11, 56, 0
14, 251691, Note_on_c, 11, 64, 0
14, 251700, Note_on_c, 11, 64, 84
14, 251700, Note_on_c, 11, 56, 84
14, 251751, Note_on_c, 11, 64, 0
14, 251751, Note_on_c, 11, 56, 0
14, 251760, Note_on_c, 11, 56, 84
14, 251760, Note_on_c, 11, 64, 84
14, 251864, Note_on_c, 11, 56, 0
14, 251864, Note_on_c, 11, 64, 0
14, 251880, Note_on_c, 11, 64, 84
14, 251880, Note_on_c, 11, 56, 84
14, 251931, Note_on_c, 11, 64, 0
14, 251931, Note_on_c, 11, 56, 0
14, 251940, Note_on_c, 11, 56, 84
14, 251940, Note_on_c, 11, 64, 84
14, 251991, Note_on_c, 11, 56, 0
14, 251991, Note_on_c, 11, 64, 0
14, 252000, Note_on_c, 11, 64, 84
14, 252000, Note_on_c, 11, 56, 84
14, 252051, Note_on_c, 11, 64, 0
14, 252051, Note_on_c, 11, 56, 0
14, 252060, Note_on_c, 11, 56, 84
14, 252060, Note_on_c, 11, 64, 84
14, 252111, Note_on_c, 11, 56, 0
14, 252111, Note_on_c, 11, 64, 0
14, 252120, Note_on_c, 11, 64, 84
14, 252120, Note_on_c, 11, 56, 84
14, 252224, Note_on_c, 11, 64, 0
14, 252224, Note_on_c, 11, 56, 0
14, 252240, Note_on_c, 11, 56, 84
14, 252240, Note_on_c, 11, 64, 84
14, 252291, Note_on_c, 11, 56, 0
14, 252291, Note_on_c, 11, 64, 0
14, 252300, Note_on_c, 11, 64, 84
14, 252300, Note_on_c, 11, 56, 84
14, 252351, Note_on_c, 11, 64, 0
14, 252351, Note_on_c, 11, 56, 0
14, 252360, Note_on_c, 11, 64, 84
14, 252360, Note_on_c, 11, 56, 84
14, 252411, Note_on_c, 11, 64, 0
14, 252411, Note_on_c, 11, 56, 0
14, 252420, Note_on_c, 11, 64, 84
14, 252420, Note_on_c, 11, 56, 84
14, 252471, Note_on_c, 11, 64, 0
14, 252471, Note_on_c, 11, 56, 0
14, 252480, Note_on_c, 11, 64, 84
14, 252651, Note_on_c, 11, 64, 0
14, 252660, Note_on_c, 11, 64, 84
14, 252711, Note_on_c, 11, 64, 0
14, 252720, Note_on_c, 11, 64, 84
14, 252839, Note_on_c, 11, 64, 0
14, 253200, Note_on_c, 11, 61, 92
14, 253259, Note_on_c, 11, 61, 0
14, 253260, Note_on_c, 11, 61, 84
14, 253371, Note_on_c, 11, 61, 0
14, 253380, Note_on_c, 11, 61, 84
14, 253431, Note_on_c, 11, 61, 0
14, 253440, Note_on_c, 11, 61, 84
14, 253559, Note_on_c, 11, 61, 0
14, 253920, Note_on_c, 11, 61, 92
14, 253979, Note_on_c, 11, 61, 0
14, 253980, Note_on_c, 11, 61, 84
14, 254091, Note_on_c, 11, 61, 0
14, 254100, Note_on_c, 11, 61, 84
14, 254151, Note_on_c, 11, 61, 0
14, 254160, Note_on_c, 11, 61, 84
14, 254279, Note_on_c, 11, 61, 0
14, 256980, Note_on_c, 11, 70, 44
14, 257031, Note_on_c, 11, 70, 0
14, 257040, Note_on_c, 11, 70, 44
14, 257144, Note_on_c, 11, 70, 0
14, 257160, Note_on_c, 11, 69, 44
14, 257279, Note_on_c, 11, 69, 0
14, 257340, Note_on_c, 11, 65, 44
14, 257391, Note_on_c, 11, 65, 0
14, 257400, Note_on_c, 11, 65, 44
14, 257504, Note_on_c, 11, 65, 0
14, 257520, Note_on_c, 11, 64, 44
14, 257759, Note_on_c, 11, 64, 0
14, 258240, Note_on_c, 11, 67, 44
14, 258411, Note_on_c, 11, 67, 0
14, 258420, Note_on_c, 11, 69, 44
14, 258471, Note_on_c, 11, 69, 0
14, 258480, Note_on_c, 11, 71, 44
14, 258584, Note_on_c, 11, 71, 0
14, 258600, Note_on_c, 11, 72, 44
14, 258771, Note_on_c, 11, 72, 0
14, 258780, Note_on_c, 11, 71, 44
14, 258831, Note_on_c, 11, 71, 0
14, 258840, Note_on_c, 11, 72, 44
14, 258944, Note_on_c, 11, 72, 0
14, 258960, Note_on_c, 11, 74, 44
14, 259131, Note_on_c, 11, 74, 0
14, 259140, Note_on_c, 11, 62, 44
14, 259191, Note_on_c, 11, 62, 0
14, 259200, Note_on_c, 11, 62, 44
14, 259304, Note_on_c, 11, 62, 0
14, 259320, Note_on_c, 11, 60, 44
14, 259439, Note_on_c, 11, 60, 0
14, 259500, Note_on_c, 11, 55, 44
14, 259551, Note_on_c, 11, 55, 0
14, 259560, Note_on_c, 11, 55, 44
14, 259664, Note_on_c, 11, 55, 0
14, 259680, Note_on_c, 11, 55, 44
14, 259799, Note_on_c, 11, 55, 0
14, 259860, Note_on_c, 11, 65, 44
14, 259911, Note_on_c, 11, 65, 0
14, 259920, Note_on_c, 11, 65, 44
14, 260024, Note_on_c, 11, 65, 0
14, 260040, Note_on_c, 11, 64, 44
14, 260159, Note_on_c, 11, 64, 0
14, 260220, Note_on_c, 11, 60, 44
14, 260271, Note_on_c, 11, 60, 0
14, 260280, Note_on_c, 11, 60, 44
14, 260384, Note_on_c, 11, 60, 0
14, 260400, Note_on_c, 11, 58, 44
14, 260639, Note_on_c, 11, 58, 0
14, 261300, Note_on_c, 11, 72, 44
14, 261351, Note_on_c, 11, 72, 0
14, 261360, Note_on_c, 11, 72, 44
14, 261464, Note_on_c, 11, 72, 0
14, 261480, Note_on_c, 11, 70, 44
14, 261599, Note_on_c, 11, 70, 0
14, 261660, Note_on_c, 11, 67, 44
14, 261711, Note_on_c, 11, 67, 0
14, 261720, Note_on_c, 11, 67, 44
14, 261824, Note_on_c, 11, 67, 0
14, 261840, Note_on_c, 11, 66, 44
14, 262079, Note_on_c, 11, 66, 0
14, 262560, Note_on_c, 11, 69, 44
14, 262731, Note_on_c, 11, 69, 0
14, 262740, Note_on_c, 11, 71, 44
14, 262791, Note_on_c, 11, 71, 0
14, 262800, Note_on_c, 11, 73, 44
14, 262904, Note_on_c, 11, 73, 0
14, 262920, Note_on_c, 11, 74, 44
14, 263091, Note_on_c, 11, 74, 0
14, 263100, Note_on_c, 11, 73, 44
14, 263151, Note_on_c, 11, 73, 0
14, 263160, Note_on_c, 11, 74, 44
14, 263264, Note_on_c, 11, 74, 0
14, 263280, Note_on_c, 11, 76, 44
14, 263451, Note_on_c, 11, 76, 0
14, 263460, Note_on_c, 11, 64, 44
14, 263511, Note_on_c, 11, 64, 0
14, 263520, Note_on_c, 11, 64, 44
14, 263624, Note_on_c, 11, 64, 0
14, 263640, Note_on_c, 11, 62, 44
14, 263759, Note_on_c, 11, 62, 0
14, 263820, Note_on_c, 11, 62, 44
14, 263871, Note_on_c, 11, 62, 0
14, 263880, Note_on_c, 11, 62, 44
14, 263984, Note_on_c, 11, 62, 0
14, 264000, Note_on_c, 11, 61, 44
14, 264239, Note_on_c, 11, 61, 0
14, 264900, Note_on_c, 11, 64, 44
14, 264951, Note_on_c, 11, 64, 0
14, 264960, Note_on_c, 11, 64, 44
14, 265064, Note_on_c, 11, 64, 0
14, 265080, Note_on_c, 11, 62, 44
14, 265199, Note_on_c, 11, 62, 0
14, 265260, Note_on_c, 11, 62, 44
14, 265311, Note_on_c, 11, 62, 0
14, 265320, Note_on_c, 11, 62, 44
14, 265424, Note_on_c, 11, 62, 0
14, 265440, Note_on_c, 11, 61, 44
14, 265679, Note_on_c, 11, 61, 0
14, 266880, Control_c, 11, 11, 72
14, 267600, Control_c, 11, 11, 73
14, 267600, Note_on_c, 11, 62, 76
14, 267719, Note_on_c, 11, 62, 0
14, 267760, Control_c, 11, 11, 74
14, 267780, Note_on_c, 11, 62, 76
14, 267831, Note_on_c, 11, 62, 0
14, 267840, Note_on_c, 11, 64, 76
14, 267920, Control_c, 11, 11, 75
14, 267944, Note_on_c, 11, 64, 0
14, 267960, Note_on_c, 11, 65, 76
14, 268079, Note_on_c, 11, 65, 0
14, 268080, Control_c, 11, 11, 76
14, 268140, Note_on_c, 11, 64, 76
14, 268191, Note_on_c, 11, 64, 0
14, 268200, Note_on_c, 11, 65, 76
14, 268240, Control_c, 11, 11, 77
14, 268304, Note_on_c, 11, 65, 0
14, 268320, Note_on_c, 11, 67, 76
14, 268400, Control_c, 11, 11, 78
14, 268439, Note_on_c, 11, 67, 0
14, 268500, Note_on_c, 11, 65, 76
14, 268551, Note_on_c, 11, 65, 0
14, 268560, Control_c, 11, 11, 79
14, 268560, Note_on_c, 11, 67, 76
14, 268664, Note_on_c, 11, 67, 0
14, 268680, Note_on_c, 11, 69, 76
14, 268720, Control_c, 11, 11, 80
14, 268799, Note_on_c, 11, 69, 0
14, 268860, Note_on_c, 11, 67, 76
14, 268880, Control_c, 11, 11, 81
14, 268911, Note_on_c, 11, 67, 0
14, 268920, Note_on_c, 11, 69, 76
14, 269024, Note_on_c, 11, 69, 0
14, 269040, Control_c, 11, 11, 82
14, 269040, Note_on_c, 11, 70, 76
14, 269200, Control_c, 11, 11, 83
14, 269360, Control_c, 11, 11, 84
14, 269520, Control_c, 11, 11, 85
14, 269680, Control_c, 11, 11, 86
14, 269759, Note_on_c, 11, 70, 0
14, 269760, Note_on_c, 11, 70, 76
14, 269840, Control_c, 11, 11, 87
14, 270000, Control_c, 11, 11, 88
14, 270160, Control_c, 11, 11, 89
14, 270320, Control_c, 11, 11, 90
14, 270480, Control_c, 11, 11, 91
14, 270584, Note_on_c, 11, 70, 0
14, 270640, Control_c, 11, 11, 92
14, 270660, Note_on_c, 11, 64, 76
14, 270711, Note_on_c, 11, 64, 0
14, 270720, Note_on_c, 11, 65, 76
14, 270800, Control_c, 11, 11, 93
14, 270824, Note_on_c, 11, 65, 0
14, 270840, Note_on_c, 11, 67, 76
14, 270959, Note_on_c, 11, 67, 0
14, 270960, Control_c, 11, 11, 94
14, 271020, Note_on_c, 11, 65, 76
14, 271071, Note_on_c, 11, 65, 0
14, 271080, Note_on_c, 11, 67, 76
14, 271120, Control_c, 11, 11, 95
14, 271184, Note_on_c, 11, 67, 0
14, 271200, Note_on_c, 11, 69, 76
14, 271280, Control_c, 11, 11, 96
14, 271319, Note_on_c, 11, 69, 0
14, 271380, Note_on_c, 11, 67, 76
14, 271431, Note_on_c, 11, 67, 0
14, 271440, Control_c, 11, 11, 97
14, 271440, Note_on_c, 11, 69, 76
14, 271544, Note_on_c, 11, 69, 0
14, 271560, Note_on_c, 11, 70, 76
14, 271600, Control_c, 11, 11, 98
14, 271679, Note_on_c, 11, 70, 0
14, 271740, Note_on_c, 11, 69, 76
14, 271760, Control_c, 11, 11, 99
14, 271791, Note_on_c, 11, 69, 0
14, 271800, Note_on_c, 11, 70, 76
14, 271904, Note_on_c, 11, 70, 0
14, 271920, Note_on_c, 11, 72, 76
14, 271920, Control_c, 11, 11, 100
14, 272080, Control_c, 11, 11, 101
14, 272240, Control_c, 11, 11, 102
14, 272400, Control_c, 11, 11, 103
14, 272560, Control_c, 11, 11, 104
14, 272639, Note_on_c, 11, 72, 0
14, 272640, Note_on_c, 11, 72, 76
14, 272720, Control_c, 11, 11, 105
14, 272880, Control_c, 11, 11, 106
14, 273040, Control_c, 11, 11, 107
14, 273200, Control_c, 11, 11, 108
14, 273360, Control_c, 11, 11, 109
14, 273464, Note_on_c, 11, 72, 0
14, 273520, Control_c, 11, 11, 110
14, 273540, Note_on_c, 11, 66, 76
14, 273591, Note_on_c, 11, 66, 0
14, 273600, Note_on_c, 11, 67, 76
14, 273680, Control_c, 11, 11, 111
14, 273704, Note_on_c, 11, 67, 0
14, 273720, Note_on_c, 11, 69, 76
14, 273839, Note_on_c, 11, 69, 0
14, 273840, Control_c, 11, 11, 112
14, 273900, Note_on_c, 11, 67, 76
14, 273951, Note_on_c, 11, 67, 0
14, 273960, Note_on_c, 11, 69, 76
14, 274000, Control_c, 11, 11, 113
14, 274064, Note_on_c, 11, 69, 0
14, 274080, Note_on_c, 11, 70, 76
14, 274160, Control_c, 11, 11, 114
14, 274199, Note_on_c, 11, 70, 0
14, 274260, Note_on_c, 11, 69, 76
14, 274311, Note_on_c, 11, 69, 0
14, 274320, Control_c, 11, 11, 115
14, 274320, Note_on_c, 11, 70, 76
14, 274424, Note_on_c, 11, 70, 0
14, 274440, Note_on_c, 11, 72, 76
14, 274480, Control_c, 11, 11, 116
14, 274559, Note_on_c, 11, 72, 0
14, 274620, Note_on_c, 11, 70, 76
14, 274640, Control_c, 11, 11, 117
14, 274671, Note_on_c, 11, 70, 0
14, 274680, Note_on_c, 11, 72, 76
14, 274784, Note_on_c, 11, 72, 0
14, 274800, Control_c, 11, 11, 118
14, 274800, Note_on_c, 11, 74, 76
14, 274960, Control_c, 11, 11, 119
14, 275120, Control_c, 11, 11, 120
14, 275280, Control_c, 11, 11, 121
14, 275440, Control_c, 11, 11, 122
14, 275519, Note_on_c, 11, 74, 0
14, 275520, Note_on_c, 11, 74, 76
14, 275600, Control_c, 11, 11, 123
14, 275760, Control_c, 11, 11, 124
14, 275920, Control_c, 11, 11, 125
14, 276080, Control_c, 11, 11, 127
14, 276404, Note_on_c, 11, 74, 0
14, 276420, Note_on_c, 11, 62, 76
14, 276471, Note_on_c, 11, 62, 0
14, 276480, Note_on_c, 11, 61, 76
14, 276584, Note_on_c, 11, 61, 0
14, 276600, Note_on_c, 11, 62, 76
14, 276839, Note_on_c, 11, 62, 0
14, 276960, Note_on_c, 11, 62, 76
14, 277079, Note_on_c, 11, 62, 0
14, 277140, Note_on_c, 11, 62, 76
14, 277191, Note_on_c, 11, 62, 0
14, 277200, Note_on_c, 11, 61, 76
14, 277304, Note_on_c, 11, 61, 0
14, 277320, Note_on_c, 11, 62, 76
14, 277559, Note_on_c, 11, 62, 0
14, 277680, Note_on_c, 11, 64, 76
14, 277799, Note_on_c, 11, 64, 0
14, 277860, Note_on_c, 11, 64, 76
14, 277911, Note_on_c, 11, 64, 0
14, 277920, Note_on_c, 11, 63, 76
14, 278024, Note_on_c, 11, 63, 0
14, 278040, Note_on_c, 11, 64, 76
14, 278279, Note_on_c, 11, 64, 0
14, 278400, Note_on_c, 11, 64, 76
14, 278519, Note_on_c, 11, 64, 0
14, 278580, Note_on_c, 11, 64, 76
14, 278631, Note_on_c, 11, 64, 0
14, 278640, Note_on_c, 11, 63, 76
14, 278744, Note_on_c, 11, 63, 0
14, 278760, Note_on_c, 11, 64, 76
14, 278999, Note_on_c, 11, 64, 0
14, 279120, Note_on_c, 11, 65, 84
14, 279239, Note_on_c, 11, 65, 0
14, 279300, Note_on_c, 11, 65, 84
14, 279351, Note_on_c, 11, 65, 0
14, 279360, Note_on_c, 11, 64, 84
14, 279464, Note_on_c, 11, 64, 0
14, 279480, Note_on_c, 11, 65, 84
14, 279599, Note_on_c, 11, 65, 0
14, 279660, Note_on_c, 11, 65, 84
14, 279711, Note_on_c, 11, 65, 0
14, 279720, Note_on_c, 11, 64, 84
14, 279824, Note_on_c, 11, 64, 0
14, 279840, Note_on_c, 11, 65, 84
14, 279959, Note_on_c, 11, 65, 0
14, 280020, Note_on_c, 11, 65, 84
14, 280071, Note_on_c, 11, 65, 0
14, 280080, Note_on_c, 11, 64, 84
14, 280184, Note_on_c, 11, 64, 0
14, 280200, Note_on_c, 11, 65, 84
14, 280319, Note_on_c, 11, 65, 0
14, 280380, Note_on_c, 11, 65, 84
14, 280431, Note_on_c, 11, 65, 0
14, 280440, Note_on_c, 11, 64, 84
14, 280544, Note_on_c, 11, 64, 0
14, 280560, Note_on_c, 11, 65, 84
14, 280799, Note_on_c, 11, 65, 0
14, 280920, Note_on_c, 11, 65, 84
14, 281091, Note_on_c, 11, 65, 0
14, 281100, Note_on_c, 11, 64, 84
14, 281151, Note_on_c, 11, 64, 0
14, 281160, Note_on_c, 11, 62, 84
14, 281264, Note_on_c, 11, 62, 0
14, 281280, Note_on_c, 11, 62, 84
14, 281879, Note_on_c, 11, 62, 0
14, 282000, Note_on_c, 11, 64, 84
14, 282119, Note_on_c, 11, 64, 0
14, 282180, Note_on_c, 11, 64, 84
14, 282231, Note_on_c, 11, 64, 0
14, 282240, Note_on_c, 11, 63, 84
14, 282344, Note_on_c, 11, 63, 0
14, 282360, Note_on_c, 11, 64, 84
14, 282479, Note_on_c, 11, 64, 0
14, 282540, Note_on_c, 11, 64, 84
14, 282591, Note_on_c, 11, 64, 0
14, 282600, Note_on_c, 11, 63, 84
14, 282704, Note_on_c, 11, 63, 0
14, 282720, Note_on_c, 11, 64, 84
14, 282839, Note_on_c, 11, 64, 0
14, 282900, Note_on_c, 11, 64, 84
14, 282951, Note_on_c, 11, 64, 0
14, 282960, Note_on_c, 11, 63, 84
14, 283064, Note_on_c, 11, 63, 0
14, 283080, Note_on_c, 11, 64, 84
14, 283199, Note_on_c, 11, 64, 0
14, 283260, Note_on_c, 11, 64, 84
14, 283311, Note_on_c, 11, 64, 0
14, 283320, Note_on_c, 11, 63, 84
14, 283424, Note_on_c, 11, 63, 0
14, 283440, Note_on_c, 11, 64, 84
14, 283679, Note_on_c, 11, 64, 0
14, 283800, Note_on_c, 11, 64, 84
14, 283971, Note_on_c, 11, 64, 0
14, 283980, Note_on_c, 11, 62, 84
14, 284031, Note_on_c, 11, 62, 0
14, 284040, Note_on_c, 11, 60, 84
14, 284144, Note_on_c, 11, 60, 0
14, 284160, Note_on_c, 11, 60, 84
14, 284759, Note_on_c, 11, 60, 0
14, 284880, Note_on_c, 11, 62, 84
14, 284999, Note_on_c, 11, 62, 0
14, 285060, Note_on_c, 11, 62, 84
14, 285111, Note_on_c, 11, 62, 0
14, 285120, Note_on_c, 11, 61, 84
14, 285224, Note_on_c, 11, 61, 0
14, 285240, Note_on_c, 11, 62, 84
14, 285359, Note_on_c, 11, 62, 0
14, 285420, Note_on_c, 11, 62, 84
14, 285471, Note_on_c, 11, 62, 0
14, 285480, Note_on_c, 11, 61, 84
14, 285584, Note_on_c, 11, 61, 0
14, 285600, Note_on_c, 11, 62, 84
14, 285719, Note_on_c, 11, 62, 0
14, 285780, Note_on_c, 11, 62, 84
14, 285831, Note_on_c, 11, 62, 0
14, 285840, Note_on_c, 11, 61, 84
14, 285944, Note_on_c, 11, 61, 0
14, 285960, Note_on_c, 11, 62, 84
14, 286079, Note_on_c, 11, 62, 0
14, 286140, Note_on_c, 11, 62, 84
14, 286191, Note_on_c, 11, 62, 0
14, 286200, Note_on_c, 11, 61, 84
14, 286304, Note_on_c, 11, 61, 0
14, 286320, Note_on_c, 11, 62, 84
14, 286559, Note_on_c, 11, 62, 0
14, 286860, Note_on_c, 11, 71, 84
14, 286911, Note_on_c, 11, 71, 0
14, 286920, Note_on_c, 11, 72, 84
14, 287024, Note_on_c, 11, 72, 0
14, 287040, Note_on_c, 11, 74, 84
14, 287279, Note_on_c, 11, 74, 0
14, 287580, Note_on_c, 11, 68, 84
14, 287631, Note_on_c, 11, 68, 0
14, 287640, Note_on_c, 11, 69, 84
14, 287744, Note_on_c, 11, 69, 0
14, 287760, Note_on_c, 11, 71, 84
14, 287999, Note_on_c, 11, 71, 0
14, 288300, Note_on_c, 11, 62, 84
14, 288351, Note_on_c, 11, 62, 0
14, 288360, Note_on_c, 11, 64, 84
14, 288464, Note_on_c, 11, 64, 0
14, 288480, Note_on_c, 11, 65, 84
14, 288719, Note_on_c, 11, 65, 0
14, 289020, Note_on_c, 11, 56, 84
14, 289071, Note_on_c, 11, 56, 0
14, 289080, Note_on_c, 11, 57, 84
14, 289184, Note_on_c, 11, 57, 0
14, 289200, Note_on_c, 11, 59, 84
14, 289319, Note_on_c, 11, 59, 0
14, 289380, Note_on_c, 11, 56, 84
14, 289431, Note_on_c, 11, 56, 0
14, 289440, Note_on_c, 11, 57, 84
14, 289544, Note_on_c, 11, 57, 0
14, 289560, Note_on_c, 11, 59, 84
14, 289679, Note_on_c, 11, 59, 0
14, 289740, Note_on_c, 11, 57, 84
14, 289791, Note_on_c, 11, 57, 0
14, 289800, Note_on_c, 11, 59, 84
14, 289904, Note_on_c, 11, 59, 0
14, 289920, Note_on_c, 11, 60, 84
14, 290039, Note_on_c, 11, 60, 0
14, 290100, Note_on_c, 11, 57, 84
14, 290151, Note_on_c, 11, 57, 0
14, 290160, Note_on_c, 11, 59, 84
14, 290264, Note_on_c, 11, 59, 0
14, 290280, Note_on_c, 11, 60, 84
14, 290399, Note_on_c, 11, 60, 0
14, 290460, Note_on_c, 11, 59, 84
14, 290511, Note_on_c, 11, 59, 0
14, 290520, Note_on_c, 11, 61, 84
14, 290624, Note_on_c, 11, 61, 0
14, 290640, Note_on_c, 11, 62, 84
14, 290759, Note_on_c, 11, 62, 0
14, 290820, Note_on_c, 11, 59, 84
14, 290871, Note_on_c, 11, 59, 0
14, 290880, Note_on_c, 11, 61, 84
14, 290984, Note_on_c, 11, 61, 0
14, 291000, Note_on_c, 11, 62, 84
14, 291119, Note_on_c, 11, 62, 0
14, 291180, Note_on_c, 11, 61, 84
14, 291231, Note_on_c, 11, 61, 0
14, 291240, Note_on_c, 11, 63, 84
14, 291344, Note_on_c, 11, 63, 0
14, 291360, Note_on_c, 11, 64, 84
14, 291479, Note_on_c, 11, 64, 0
14, 291540, Note_on_c, 11, 61, 84
14, 291591, Note_on_c, 11, 61, 0
14, 291600, Note_on_c, 11, 63, 84
14, 291704, Note_on_c, 11, 63, 0
14, 291720, Note_on_c, 11, 64, 84
14, 291839, Note_on_c, 11, 64, 0
14, 291900, Note_on_c, 11, 61, 84
14, 291951, Note_on_c, 11, 61, 0
14, 291960, Note_on_c, 11, 63, 84
14, 292064, Note_on_c, 11, 63, 0
14, 292080, Note_on_c, 11, 64, 84
14, 292199, Note_on_c, 11, 64, 0
14, 292260, Note_on_c, 11, 61, 84
14, 292311, Note_on_c, 11, 61, 0
14, 292320, Note_on_c, 11, 62, 84
14, 292424, Note_on_c, 11, 62, 0
14, 292440, Note_on_c, 11, 64, 84
14, 292559, Note_on_c, 11, 64, 0
14, 292620, Note_on_c, 11, 61, 84
14, 292671, Note_on_c, 11, 61, 0
14, 292680, Note_on_c, 11, 62, 84
14, 292784, Note_on_c, 11, 62, 0
14, 292800, Note_on_c, 11, 64, 84
14, 292919, Note_on_c, 11, 64, 0
14, 292980, Note_on_c, 11, 61, 84
14, 293031, Note_on_c, 11, 61, 0
14, 293040, Note_on_c, 11, 62, 84
14, 293144, Note_on_c, 11, 62, 0
14, 293160, Note_on_c, 11, 64, 84
14, 293279, Note_on_c, 11, 64, 0
14, 293340, Note_on_c, 11, 61, 84
14, 293391, Note_on_c, 11, 61, 0
14, 293400, Note_on_c, 11, 62, 84
14, 293504, Note_on_c, 11, 62, 0
14, 293520, Note_on_c, 11, 64, 84
14, 293759, Note_on_c, 11, 64, 0
14, 294600, Note_on_c, 11, 64, 88
14, 294659, Note_on_c, 11, 64, 0
14, 294660, Note_on_c, 11, 66, 88
14, 294719, Note_on_c, 11, 66, 0
14, 294720, Note_on_c, 11, 68, 88
14, 294779, Note_on_c, 11, 68, 0
14, 294780, Note_on_c, 11, 69, 88
14, 294839, Note_on_c, 11, 69, 0
14, 294840, Note_on_c, 11, 71, 88
14, 294879, Note_on_c, 11, 71, 0
14, 294880, Note_on_c, 11, 73, 88
14, 294919, Note_on_c, 11, 73, 0
14, 294920, Note_on_c, 11, 74, 88
14, 294951, Note_on_c, 11, 74, 0
14, 294960, Note_on_c, 11, 76, 88
14, 295199, Note_on_c, 11, 76, 0
14, 296040, Note_on_c, 11, 64, 88
14, 296099, Note_on_c, 11, 64, 0
14, 296100, Note_on_c, 11, 66, 88
14, 296159, Note_on_c, 11, 66, 0
14, 296160, Note_on_c, 11, 68, 88
14, 296219, Note_on_c, 11, 68, 0
14, 296220, Note_on_c, 11, 69, 88
14, 296279, Note_on_c, 11, 69, 0
14, 296280, Note_on_c, 11, 71, 88
14, 296319, Note_on_c, 11, 71, 0
14, 296320, Note_on_c, 11, 73, 88
14, 296359, Note_on_c, 11, 73, 0
14, 296360, Note_on_c, 11, 74, 88
14, 296391, Note_on_c, 11, 74, 0
14, 296400, Note_on_c, 11, 76, 84
14, 296451, Note_on_c, 11, 76, 0
14, 296460, Note_on_c, 11, 61, 84
14, 296511, Note_on_c, 11, 61, 0
14, 296520, Note_on_c, 11, 61, 84
14, 296571, Note_on_c, 11, 61, 0
14, 296580, Note_on_c, 11, 61, 84
14, 296631, Note_on_c, 11, 61, 0
14, 296640, Note_on_c, 11, 61, 84
14, 296691, Note_on_c, 11, 61, 0
14, 296700, Note_on_c, 11, 61, 84
14, 296751, Note_on_c, 11, 61, 0
14, 296760, Note_on_c, 11, 61, 84
14, 296811, Note_on_c, 11, 61, 0
14, 296820, Note_on_c, 11, 61, 84
14, 296871, Note_on_c, 11, 61, 0
14, 296880, Note_on_c, 11, 62, 84
14, 296931, Note_on_c, 11, 62, 0
14, 296940, Note_on_c, 11, 62, 84
14, 296991, Note_on_c, 11, 62, 0
14, 297000, Note_on_c, 11, 64, 84
14, 297051, Note_on_c, 11, 64, 0
14, 297060, Note_on_c, 11, 64, 84
14, 297111, Note_on_c, 11, 64, 0
14, 297120, Note_on_c, 11, 62, 84
14, 297171, Note_on_c, 11, 62, 0
14, 297180, Note_on_c, 11, 62, 84
14, 297231, Note_on_c, 11, 62, 0
14, 297240, Note_on_c, 11, 64, 84
14, 297291, Note_on_c, 11, 64, 0
14, 297300, Note_on_c, 11, 64, 84
14, 297351, Note_on_c, 11, 64, 0
14, 297360, Note_on_c, 11, 66, 84
14, 297411, Note_on_c, 11, 66, 0
14, 297420, Note_on_c, 11, 66, 84
14, 297471, Note_on_c, 11, 66, 0
14, 297480, Note_on_c, 11, 59, 84
14, 297531, Note_on_c, 11, 59, 0
14, 297540, Note_on_c, 11, 71, 84
14, 297591, Note_on_c, 11, 71, 0
14, 297600, Note_on_c, 11, 71, 84
14, 297651, Note_on_c, 11, 71, 0
14, 297660, Note_on_c, 11, 71, 84
14, 297711, Note_on_c, 11, 71, 0
14, 297720, Note_on_c, 11, 64, 84
14, 297771, Note_on_c, 11, 64, 0
14, 297780, Note_on_c, 11, 64, 84
14, 297831, Note_on_c, 11, 64, 0
14, 297840, Note_on_c, 11, 64, 84
14, 297891, Note_on_c, 11, 64, 0
14, 297900, Note_on_c, 11, 64, 84
14, 297951, Note_on_c, 11, 64, 0
14, 297960, Note_on_c, 11, 76, 84
14, 298011, Note_on_c, 11, 76, 0
14, 298020, Note_on_c, 11, 76, 84
14, 298071, Note_on_c, 11, 76, 0
14, 298080, Note_on_c, 11, 64, 84
14, 298131, Note_on_c, 11, 64, 0
14, 298140, Note_on_c, 11, 64, 84
14, 298191, Note_on_c, 11, 64, 0
14, 298200, Note_on_c, 11, 64, 84
14, 298251, Note_on_c, 11, 64, 0
14, 298260, Note_on_c, 11, 64, 84
14, 298311, Note_on_c, 11, 64, 0
14, 298320, Note_on_c, 11, 76, 84
14, 298371, Note_on_c, 11, 76, 0
14, 298380, Note_on_c, 11, 76, 84
14, 298431, Note_on_c, 11, 76, 0
14, 298440, Note_on_c, 11, 64, 84
14, 298491, Note_on_c, 11, 64, 0
14, 298500, Note_on_c, 11, 64, 84
14, 298551, Note_on_c, 11, 64, 0
14, 298560, Note_on_c, 11, 64, 84
14, 298611, Note_on_c, 11, 64, 0
14, 298620, Note_on_c, 11, 64, 84
14, 298671, Note_on_c, 11, 64, 0
14, 298680, Note_on_c, 11, 76, 84
14, 298731, Note_on_c, 11, 76, 0
14, 298740, Note_on_c, 11, 76, 84
14, 298791, Note_on_c, 11, 76, 0
14, 298800, Note_on_c, 11, 64, 84
14, 298851, Note_on_c, 11, 64, 0
14, 298860, Note_on_c, 11, 64, 84
14, 298911, Note_on_c, 11, 64, 0
14, 298920, Note_on_c, 11, 64, 84
14, 298971, Note_on_c, 11, 64, 0
14, 298980, Note_on_c, 11, 76, 84
14, 299031, Note_on_c, 11, 76, 0
14, 299040, Note_on_c, 11, 64, 84
14, 299091, Note_on_c, 11, 64, 0
14, 299100, Note_on_c, 11, 64, 84
14, 299151, Note_on_c, 11, 64, 0
14, 299160, Note_on_c, 11, 62, 84
14, 299211, Note_on_c, 11, 62, 0
14, 299220, Note_on_c, 11, 62, 84
14, 299271, Note_on_c, 11, 62, 0
14, 299280, Note_on_c, 11, 61, 84
14, 299331, Note_on_c, 11, 61, 0
14, 299340, Note_on_c, 11, 61, 84
14, 299391, Note_on_c, 11, 61, 0
14, 299400, Note_on_c, 11, 61, 84
14, 299451, Note_on_c, 11, 61, 0
14, 299460, Note_on_c, 11, 61, 84
14, 299511, Note_on_c, 11, 61, 0
14, 299520, Note_on_c, 11, 59, 84
14, 299571, Note_on_c, 11, 59, 0
14, 299580, Note_on_c, 11, 59, 84
14, 299631, Note_on_c, 11, 59, 0
14, 299640, Note_on_c, 11, 61, 84
14, 299691, Note_on_c, 11, 61, 0
14, 299700, Note_on_c, 11, 61, 84
14, 299751, Note_on_c, 11, 61, 0
14, 299760, Note_on_c, 11, 62, 84
14, 299811, Note_on_c, 11, 62, 0
14, 299820, Note_on_c, 11, 62, 84
14, 299871, Note_on_c, 11, 62, 0
14, 299880, Note_on_c, 11, 64, 84
14, 299931, Note_on_c, 11, 64, 0
14, 299940, Note_on_c, 11, 64, 84
14, 299991, Note_on_c, 11, 64, 0
14, 300000, Note_on_c, 11, 62, 84
14, 300051, Note_on_c, 11, 62, 0
14, 300060, Note_on_c, 11, 62, 84
14, 300111, Note_on_c, 11, 62, 0
14, 300120, Note_on_c, 11, 64, 84
14, 300171, Note_on_c, 11, 64, 0
14, 300180, Note_on_c, 11, 64, 84
14, 300231, Note_on_c, 11, 64, 0
14, 300240, Note_on_c, 11, 66, 84
14, 300291, Note_on_c, 11, 66, 0
14, 300300, Note_on_c, 11, 66, 84
14, 300351, Note_on_c, 11, 66, 0
14, 300360, Note_on_c, 11, 59, 84
14, 300411, Note_on_c, 11, 59, 0
14, 300420, Note_on_c, 11, 59, 84
14, 300471, Note_on_c, 11, 59, 0
14, 300480, Note_on_c, 11, 71, 84
14, 300531, Note_on_c, 11, 71, 0
14, 300540, Note_on_c, 11, 71, 84
14, 300591, Note_on_c, 11, 71, 0
14, 300600, Note_on_c, 11, 64, 84
14, 300651, Note_on_c, 11, 64, 0
14, 300660, Note_on_c, 11, 64, 84
14, 300711, Note_on_c, 11, 64, 0
14, 300720, Note_on_c, 11, 64, 84
14, 300771, Note_on_c, 11, 64, 0
14, 300780, Note_on_c, 11, 64, 84
14, 300831, Note_on_c, 11, 64, 0
14, 300840, Note_on_c, 11, 62, 84
14, 300891, Note_on_c, 11, 62, 0
14, 300900, Note_on_c, 11, 62, 84
14, 300951, Note_on_c, 11, 62, 0
14, 300960, Note_on_c, 11, 61, 84
14, 301011, Note_on_c, 11, 61, 0
14, 301020, Note_on_c, 11, 61, 84
14, 301071, Note_on_c, 11, 61, 0
14, 301080, Note_on_c, 11, 61, 84
14, 301131, Note_on_c, 11, 61, 0
14, 301140, Note_on_c, 11, 61, 84
14, 301191, Note_on_c, 11, 61, 0
14, 301200, Note_on_c, 11, 64, 84
14, 301251, Note_on_c, 11, 64, 0
14, 301260, Note_on_c, 11, 64, 84
14, 301311, Note_on_c, 11, 64, 0
14, 301320, Note_on_c, 11, 62, 84
14, 301371, Note_on_c, 11, 62, 0
14, 301380, Note_on_c, 11, 62, 84
14, 301431, Note_on_c, 11, 62, 0
14, 301440, Note_on_c, 11, 61, 84
14, 301491, Note_on_c, 11, 61, 0
14, 301500, Note_on_c, 11, 61, 84
14, 301551, Note_on_c, 11, 61, 0
14, 301560, Note_on_c, 11, 64, 84
14, 301611, Note_on_c, 11, 64, 0
14, 301620, Note_on_c, 11, 64, 84
14, 301671, Note_on_c, 11, 64, 0
14, 301680, Note_on_c, 11, 61, 84
14, 301731, Note_on_c, 11, 61, 0
14, 301740, Note_on_c, 11, 61, 84
14, 301791, Note_on_c, 11, 61, 0
14, 301800, Note_on_c, 11, 61, 84
14, 301851, Note_on_c, 11, 61, 0
14, 301860, Note_on_c, 11, 61, 84
14, 301911, Note_on_c, 11, 61, 0
14, 301920, Note_on_c, 11, 64, 84
14, 301971, Note_on_c, 11, 64, 0
14, 301980, Note_on_c, 11, 64, 84
14, 302031, Note_on_c, 11, 64, 0
14, 302040, Note_on_c, 11, 61, 84
14, 302091, Note_on_c, 11, 61, 0
14, 302100, Note_on_c, 11, 61, 84
14, 302151, Note_on_c, 11, 61, 0
14, 302160, Note_on_c, 11, 62, 84
14, 302211, Note_on_c, 11, 62, 0
14, 302220, Note_on_c, 11, 66, 84
14, 302271, Note_on_c, 11, 66, 0
14, 302280, Note_on_c, 11, 66, 84
14, 302331, Note_on_c, 11, 66, 0
14, 302340, Note_on_c, 11, 66, 84
14, 302391, Note_on_c, 11, 66, 0
14, 302400, Note_on_c, 11, 66, 84
14, 302451, Note_on_c, 11, 66, 0
14, 302460, Note_on_c, 11, 66, 84
14, 302511, Note_on_c, 11, 66, 0
14, 302520, Note_on_c, 11, 62, 84
14, 302571, Note_on_c, 11, 62, 0
14, 302580, Note_on_c, 11, 66, 84
14, 302631, Note_on_c, 11, 66, 0
14, 302640, Note_on_c, 11, 66, 84
14, 302691, Note_on_c, 11, 66, 0
14, 302700, Note_on_c, 11, 66, 84
14, 302751, Note_on_c, 11, 66, 0
14, 302760, Note_on_c, 11, 66, 84
14, 302811, Note_on_c, 11, 66, 0
14, 302820, Note_on_c, 11, 66, 84
14, 302871, Note_on_c, 11, 66, 0
14, 302880, Note_on_c, 11, 61, 84
14, 302931, Note_on_c, 11, 61, 0
14, 302940, Note_on_c, 11, 64, 84
14, 302991, Note_on_c, 11, 64, 0
14, 303000, Note_on_c, 11, 64, 84
14, 303051, Note_on_c, 11, 64, 0
14, 303060, Note_on_c, 11, 64, 84
14, 303111, Note_on_c, 11, 64, 0
14, 303120, Note_on_c, 11, 64, 84
14, 303171, Note_on_c, 11, 64, 0
14, 303180, Note_on_c, 11, 64, 84
14, 303231, Note_on_c, 11, 64, 0
14, 303240, Note_on_c, 11, 61, 84
14, 303291, Note_on_c, 11, 61, 0
14, 303300, Note_on_c, 11, 64, 84
14, 303351, Note_on_c, 11, 64, 0
14, 303360, Note_on_c, 11, 64, 84
14, 303411, Note_on_c, 11, 64, 0
14, 303420, Note_on_c, 11, 64, 84
14, 303471, Note_on_c, 11, 64, 0
14, 303480, Note_on_c, 11, 64, 84
14, 303531, Note_on_c, 11, 64, 0
14, 303540, Note_on_c, 11, 64, 84
14, 303591, Note_on_c, 11, 64, 0
14, 303600, Note_on_c, 11, 61, 84
14, 303651, Note_on_c, 11, 61, 0
14, 303660, Note_on_c, 11, 64, 84
14, 303711, Note_on_c, 11, 64, 0
14, 303720, Note_on_c, 11, 64, 84
14, 303771, Note_on_c, 11, 64, 0
14, 303780, Note_on_c, 11, 64, 84
14, 303831, Note_on_c, 11, 64, 0
14, 303840, Note_on_c, 11, 64, 84
14, 303891, Note_on_c, 11, 64, 0
14, 303900, Note_on_c, 11, 64, 84
14, 303951, Note_on_c, 11, 64, 0
14, 303960, Note_on_c, 11, 61, 84
14, 304011, Note_on_c, 11, 61, 0
14, 304020, Note_on_c, 11, 64, 84
14, 304071, Note_on_c, 11, 64, 0
14, 304080, Note_on_c, 11, 64, 84
14, 304131, Note_on_c, 11, 64, 0
14, 304140, Note_on_c, 11, 64, 84
14, 304191, Note_on_c, 11, 64, 0
14, 304200, Note_on_c, 11, 64, 84
14, 304251, Note_on_c, 11, 64, 0
14, 304260, Note_on_c, 11, 64, 84
14, 304311, Note_on_c, 11, 64, 0
14, 304320, Note_on_c, 11, 62, 84
14, 304371, Note_on_c, 11, 62, 0
14, 304380, Note_on_c, 11, 66, 84
14, 304431, Note_on_c, 11, 66, 0
14, 304440, Note_on_c, 11, 66, 84
14, 304491, Note_on_c, 11, 66, 0
14, 304500, Note_on_c, 11, 66, 84
14, 304551, Note_on_c, 11, 66, 0
14, 304560, Note_on_c, 11, 66, 84
14, 304611, Note_on_c, 11, 66, 0
14, 304620, Note_on_c, 11, 66, 84
14, 304671, Note_on_c, 11, 66, 0
14, 304680, Note_on_c, 11, 62, 84
14, 304731, Note_on_c, 11, 62, 0
14, 304740, Note_on_c, 11, 66, 84
14, 304791, Note_on_c, 11, 66, 0
14, 304800, Note_on_c, 11, 66, 84
14, 304851, Note_on_c, 11, 66, 0
14, 304860, Note_on_c, 11, 66, 84
14, 304911, Note_on_c, 11, 66, 0
14, 304920, Note_on_c, 11, 66, 84
14, 304971, Note_on_c, 11, 66, 0
14, 304980, Note_on_c, 11, 66, 84
14, 305031, Note_on_c, 11, 66, 0
14, 305040, Note_on_c, 11, 61, 84
14, 305091, Note_on_c, 11, 61, 0
14, 305100, Note_on_c, 11, 64, 84
14, 305151, Note_on_c, 11, 64, 0
14, 305160, Note_on_c, 11, 64, 84
14, 305211, Note_on_c, 11, 64, 0
14, 305220, Note_on_c, 11, 64, 84
14, 305271, Note_on_c, 11, 64, 0
14, 305280, Note_on_c, 11, 64, 84
14, 305331, Note_on_c, 11, 64, 0
14, 305340, Note_on_c, 11, 64, 84
14, 305391, Note_on_c, 11, 64, 0
14, 305400, Note_on_c, 11, 61, 84
14, 305451, Note_on_c, 11, 61, 0
14, 305460, Note_on_c, 11, 64, 84
14, 305511, Note_on_c, 11, 64, 0
14, 305520, Note_on_c, 11, 64, 84
14, 305571, Note_on_c, 11, 64, 0
14, 305580, Note_on_c, 11, 64, 84
14, 305631, Note_on_c, 11, 64, 0
14, 305640, Note_on_c, 11, 64, 84
14, 305691, Note_on_c, 11, 64, 0
14, 305700, Note_on_c, 11, 64, 84
14, 305751, Note_on_c, 11, 64, 0
14, 305760, Note_on_c, 11, 61, 84
14, 305811, Note_on_c, 11, 61, 0
14, 305820, Note_on_c, 11, 64, 84
14, 305871, Note_on_c, 11, 64, 0
14, 305880, Note_on_c, 11, 64, 84
14, 305931, Note_on_c, 11, 64, 0
14, 305940, Note_on_c, 11, 64, 84
14, 305991, Note_on_c, 11, 64, 0
14, 306000, Note_on_c, 11, 64, 84
14, 306051, Note_on_c, 11, 64, 0
14, 306060, Note_on_c, 11, 64, 84
14, 306111, Note_on_c, 11, 64, 0
14, 306120, Note_on_c, 11, 61, 84
14, 306171, Note_on_c, 11, 61, 0
14, 306180, Note_on_c, 11, 64, 84
14, 306231, Note_on_c, 11, 64, 0
14, 306240, Note_on_c, 11, 64, 84
14, 306291, Note_on_c, 11, 64, 0
14, 306300, Note_on_c, 11, 64, 84
14, 306351, Note_on_c, 11, 64, 0
14, 306360, Note_on_c, 11, 64, 84
14, 306411, Note_on_c, 11, 64, 0
14, 306420, Note_on_c, 11, 64, 84
14, 306471, Note_on_c, 11, 64, 0
14, 306480, Note_on_c, 11, 59, 84
14, 306531, Note_on_c, 11, 59, 0
14, 306540, Note_on_c, 11, 64, 84
14, 306591, Note_on_c, 11, 64, 0
14, 306600, Note_on_c, 11, 64, 84
14, 306651, Note_on_c, 11, 64, 0
14, 306660, Note_on_c, 11, 64, 84
14, 306711, Note_on_c, 11, 64, 0
14, 306720, Note_on_c, 11, 64, 84
14, 306771, Note_on_c, 11, 64, 0
14, 306780, Note_on_c, 11, 64, 84
14, 306831, Note_on_c, 11, 64, 0
14, 306840, Note_on_c, 11, 61, 84
14, 306891, Note_on_c, 11, 61, 0
14, 306900, Note_on_c, 11, 64, 84
14, 306951, Note_on_c, 11, 64, 0
14, 306960, Note_on_c, 11, 64, 84
14, 307011, Note_on_c, 11, 64, 0
14, 307020, Note_on_c, 11, 64, 84
14, 307071, Note_on_c, 11, 64, 0
14, 307080, Note_on_c, 11, 64, 84
14, 307131, Note_on_c, 11, 64, 0
14, 307140, Note_on_c, 11, 64, 84
14, 307191, Note_on_c, 11, 64, 0
14, 307200, Note_on_c, 11, 64, 84
14, 307251, Note_on_c, 11, 64, 0
14, 307260, Note_on_c, 11, 76, 84
14, 307311, Note_on_c, 11, 76, 0
14, 307320, Note_on_c, 11, 76, 84
14, 307371, Note_on_c, 11, 76, 0
14, 307380, Note_on_c, 11, 76, 84
14, 307431, Note_on_c, 11, 76, 0
14, 307440, Note_on_c, 11, 76, 84
14, 307491, Note_on_c, 11, 76, 0
14, 307500, Note_on_c, 11, 76, 84
14, 307551, Note_on_c, 11, 76, 0
14, 307560, Note_on_c, 11, 76, 84
14, 307611, Note_on_c, 11, 76, 0
14, 307620, Note_on_c, 11, 76, 84
14, 307671, Note_on_c, 11, 76, 0
14, 307680, Note_on_c, 11, 76, 84
14, 307731, Note_on_c, 11, 76, 0
14, 307740, Note_on_c, 11, 76, 84
14, 307791, Note_on_c, 11, 76, 0
14, 307800, Note_on_c, 11, 76, 84
14, 307851, Note_on_c, 11, 76, 0
14, 307860, Note_on_c, 11, 76, 84
14, 307911, Note_on_c, 11, 76, 0
14, 307920, Note_on_c, 11, 59, 84
14, 307971, Note_on_c, 11, 59, 0
14, 307980, Note_on_c, 11, 64, 84
14, 308031, Note_on_c, 11, 64, 0
14, 308040, Note_on_c, 11, 64, 84
14, 308091, Note_on_c, 11, 64, 0
14, 308100, Note_on_c, 11, 64, 84
14, 308151, Note_on_c, 11, 64, 0
14, 308160, Note_on_c, 11, 64, 84
14, 308211, Note_on_c, 11, 64, 0
14, 308220, Note_on_c, 11, 64, 84
14, 308271, Note_on_c, 11, 64, 0
14, 308280, Note_on_c, 11, 61, 84
14, 308331, Note_on_c, 11, 61, 0
14, 308340, Note_on_c, 11, 64, 84
14, 308391, Note_on_c, 11, 64, 0
14, 308400, Note_on_c, 11, 64, 84
14, 308451, Note_on_c, 11, 64, 0
14, 308460, Note_on_c, 11, 64, 84
14, 308511, Note_on_c, 11, 64, 0
14, 308520, Note_on_c, 11, 64, 84
14, 308571, Note_on_c, 11, 64, 0
14, 308580, Note_on_c, 11, 64, 84
14, 308631, Note_on_c, 11, 64, 0
14, 308640, Note_on_c, 11, 64, 84
14, 308691, Note_on_c, 11, 64, 0
14, 308700, Note_on_c, 11, 76, 84
14, 308751, Note_on_c, 11, 76, 0
14, 308760, Note_on_c, 11, 76, 84
14, 308811, Note_on_c, 11, 76, 0
14, 308820, Note_on_c, 11, 76, 84
14, 308871, Note_on_c, 11, 76, 0
14, 308880, Note_on_c, 11, 76, 84
14, 308931, Note_on_c, 11, 76, 0
14, 308940, Note_on_c, 11, 76, 84
14, 308991, Note_on_c, 11, 76, 0
14, 309000, Note_on_c, 11, 76, 84
14, 309051, Note_on_c, 11, 76, 0
14, 309060, Note_on_c, 11, 76, 84
14, 309111, Note_on_c, 11, 76, 0
14, 309120, Note_on_c, 11, 76, 84
14, 309171, Note_on_c, 11, 76, 0
14, 309180, Note_on_c, 11, 76, 84
14, 309231, Note_on_c, 11, 76, 0
14, 309240, Note_on_c, 11, 76, 84
14, 309291, Note_on_c, 11, 76, 0
14, 309300, Note_on_c, 11, 76, 84
14, 309351, Note_on_c, 11, 76, 0
14, 309360, Note_on_c, 11, 64, 84
14, 309411, Note_on_c, 11, 64, 0
14, 309420, Note_on_c, 11, 76, 84
14, 309471, Note_on_c, 11, 76, 0
14, 309480, Note_on_c, 11, 76, 84
14, 309531, Note_on_c, 11, 76, 0
14, 309540, Note_on_c, 11, 76, 84
14, 309591, Note_on_c, 11, 76, 0
14, 309600, Note_on_c, 11, 76, 84
14, 309651, Note_on_c, 11, 76, 0
14, 309660, Note_on_c, 11, 76, 84
14, 309711, Note_on_c, 11, 76, 0
14, 309720, Note_on_c, 11, 76, 84
14, 309771, Note_on_c, 11, 76, 0
14, 309780, Note_on_c, 11, 76, 84
14, 309831, Note_on_c, 11, 76, 0
14, 309840, Note_on_c, 11, 76, 84
14, 309891, Note_on_c, 11, 76, 0
14, 309900, Note_on_c, 11, 76, 84
14, 309951, Note_on_c, 11, 76, 0
14, 309960, Note_on_c, 11, 76, 84
14, 310011, Note_on_c, 11, 76, 0
14, 310020, Note_on_c, 11, 76, 84
14, 310071, Note_on_c, 11, 76, 0
14, 310080, Note_on_c, 11, 64, 84
14, 310131, Note_on_c, 11, 64, 0
14, 310140, Note_on_c, 11, 68, 84
14, 310191, Note_on_c, 11, 68, 0
14, 310200, Note_on_c, 11, 68, 84
14, 310251, Note_on_c, 11, 68, 0
14, 310260, Note_on_c, 11, 68, 84
14, 310311, Note_on_c, 11, 68, 0
14, 310320, Note_on_c, 11, 68, 84
14, 310371, Note_on_c, 11, 68, 0
14, 310380, Note_on_c, 11, 68, 84
14, 310431, Note_on_c, 11, 68, 0
14, 310440, Note_on_c, 11, 68, 84
14, 310491, Note_on_c, 11, 68, 0
14, 310500, Note_on_c, 11, 71, 84
14, 310551, Note_on_c, 11, 71, 0
14, 310560, Note_on_c, 11, 71, 84
14, 310611, Note_on_c, 11, 71, 0
14, 310620, Note_on_c, 11, 71, 84
14, 310671, Note_on_c, 11, 71, 0
14, 310680, Note_on_c, 11, 71, 84
14, 310731, Note_on_c, 11, 71, 0
14, 310740, Note_on_c, 11, 71, 84
14, 310791, Note_on_c, 11, 71, 0
14, 310800, Note_on_c, 11, 71, 84
14, 310851, Note_on_c, 11, 71, 0
14, 310860, Note_on_c, 11, 74, 84
14, 310911, Note_on_c, 11, 74, 0
14, 310920, Note_on_c, 11, 74, 84
14, 310971, Note_on_c, 11, 74, 0
14, 310980, Note_on_c, 11, 74, 84
14, 311031, Note_on_c, 11, 74, 0
14, 311040, Note_on_c, 11, 74, 84
14, 311091, Note_on_c, 11, 74, 0
14, 311100, Note_on_c, 11, 74, 84
14, 311151, Note_on_c, 11, 74, 0
14, 311160, Note_on_c, 11, 74, 84
14, 311211, Note_on_c, 11, 74, 0
14, 311220, Note_on_c, 11, 74, 84
14, 311271, Note_on_c, 11, 74, 0
14, 311280, Note_on_c, 11, 74, 84
14, 311331, Note_on_c, 11, 74, 0
14, 311340, Note_on_c, 11, 74, 84
14, 311391, Note_on_c, 11, 74, 0
14, 311400, Note_on_c, 11, 74, 84
14, 311451, Note_on_c, 11, 74, 0
14, 311460, Note_on_c, 11, 74, 84
14, 311511, Note_on_c, 11, 74, 0
14, 311520, Note_on_c, 11, 74, 84
14, 311879, Note_on_c, 11, 74, 0
14, 312120, Program_c, 11, 45
14, 312240, Note_on_c, 11, 61, 60
14, 312240, Note_on_c, 11, 64, 60
14, 312479, Note_on_c, 11, 61, 0
14, 312479, Note_on_c, 11, 64, 0
14, 312840, Program_c, 11, 48
14, 312960, Note_on_c, 11, 69, 52
14, 313131, Note_on_c, 11, 69, 0
14, 313140, Note_on_c, 11, 69, 52
14, 313191, Note_on_c, 11, 69, 0
14, 313200, Note_on_c, 11, 69, 52
14, 313304, Note_on_c, 11, 69, 0
14, 313320, Note_on_c, 11, 69, 52
14, 313491, Note_on_c, 11, 69, 0
14, 313500, Note_on_c, 11, 69, 52
14, 313551, Note_on_c, 11, 69, 0
14, 313560, Note_on_c, 11, 69, 52
14, 313664, Note_on_c, 11, 69, 0
14, 313680, Note_on_c, 11, 69, 52
14, 313851, Note_on_c, 11, 69, 0
14, 313860, Note_on_c, 11, 69, 52
14, 313911, Note_on_c, 11, 69, 0
14, 313920, Note_on_c, 11, 69, 52
14, 314024, Note_on_c, 11, 69, 0
14, 314040, Note_on_c, 11, 69, 52
14, 314211, Note_on_c, 11, 69, 0
14, 314220, Note_on_c, 11, 69, 52
14, 314271, Note_on_c, 11, 69, 0
14, 314280, Note_on_c, 11, 69, 52
14, 314384, Note_on_c, 11, 69, 0
14, 314400, Note_on_c, 11, 69, 52
14, 314571, Note_on_c, 11, 69, 0
14, 314580, Note_on_c, 11, 69, 52
14, 314631, Note_on_c, 11, 69, 0
14, 314640, Note_on_c, 11, 69, 52
14, 314744, Note_on_c, 11, 69, 0
14, 314760, Note_on_c, 11, 69, 52
14, 314931, Note_on_c, 11, 69, 0
14, 314940, Note_on_c, 11, 69, 52
14, 314991, Note_on_c, 11, 69, 0
14, 315000, Note_on_c, 11, 69, 52
14, 315104, Note_on_c, 11, 69, 0
14, 315120, Note_on_c, 11, 69, 52
14, 315291, Note_on_c, 11, 69, 0
14, 315300, Note_on_c, 11, 69, 52
14, 315351, Note_on_c, 11, 69, 0
14, 315360, Note_on_c, 11, 69, 52
14, 315464, Note_on_c, 11, 69, 0
14, 315480, Note_on_c, 11, 69, 52
14, 315651, Note_on_c, 11, 69, 0
14, 315660, Note_on_c, 11, 69, 52
14, 315711, Note_on_c, 11, 69, 0
14, 315720, Note_on_c, 11, 69, 52
14, 315824, Note_on_c, 11, 69, 0
14, 315840, Note_on_c, 11, 69, 52
14, 316011, Note_on_c, 11, 69, 0
14, 316020, Note_on_c, 11, 69, 52
14, 316071, Note_on_c, 11, 69, 0
14, 316080, Note_on_c, 11, 69, 52
14, 316184, Note_on_c, 11, 69, 0
14, 316200, Note_on_c, 11, 69, 52
14, 316371, Note_on_c, 11, 69, 0
14, 316380, Note_on_c, 11, 69, 52
14, 316431, Note_on_c, 11, 69, 0
14, 316440, Note_on_c, 11, 69, 52
14, 316544, Note_on_c, 11, 69, 0
14, 316560, Note_on_c, 11, 69, 52
14, 316731, Note_on_c, 11, 69, 0
14, 316740, Note_on_c, 11, 69, 52
14, 316791, Note_on_c, 11, 69, 0
14, 316800, Note_on_c, 11, 69, 52
14, 316904, Note_on_c, 11, 69, 0
14, 316920, Note_on_c, 11, 69, 52
14, 317091, Note_on_c, 11, 69, 0
14, 317100, Note_on_c, 11, 69, 52
14, 317151, Note_on_c, 11, 69, 0
14, 317160, Note_on_c, 11, 69, 52
14, 317264, Note_on_c, 11, 69, 0
14, 317280, Note_on_c, 11, 69, 52
14, 317451, Note_on_c, 11, 69, 0
14, 317460, Note_on_c, 11, 69, 52
14, 317511, Note_on_c, 11, 69, 0
14, 317520, Note_on_c, 11, 69, 52
14, 317624, Note_on_c, 11, 69, 0
14, 317640, Note_on_c, 11, 69, 52
14, 317811, Note_on_c, 11, 69, 0
14, 317820, Note_on_c, 11, 69, 52
14, 317871, Note_on_c, 11, 69, 0
14, 317880, Note_on_c, 11, 69, 52
14, 317984, Note_on_c, 11, 69, 0
14, 318000, Note_on_c, 11, 69, 52
14, 318171, Note_on_c, 11, 69, 0
14, 318180, Note_on_c, 11, 69, 52
14, 318231, Note_on_c, 11, 69, 0
14, 318240, Note_on_c, 11, 69, 52
14, 318344, Note_on_c, 11, 69, 0
14, 318360, Note_on_c, 11, 70, 52
14, 318531, Note_on_c, 11, 70, 0
14, 318540, Note_on_c, 11, 67, 52
14, 318591, Note_on_c, 11, 67, 0
14, 318600, Note_on_c, 11, 67, 52
14, 318704, Note_on_c, 11, 67, 0
14, 318720, Note_on_c, 11, 67, 44
14, 319439, Note_on_c, 11, 67, 0
14, 319440, Note_on_c, 11, 65, 44
14, 320159, Note_on_c, 11, 65, 0
14, 320160, Note_on_c, 11, 70, 44
14, 320879, Note_on_c, 11, 70, 0
14, 320880, Note_on_c, 11, 69, 44
14, 321599, Note_on_c, 11, 69, 0
14, 321600, Note_on_c, 11, 74, 44
14, 322304, Note_on_c, 11, 74, 0
14, 322320, Note_on_c, 11, 72, 44
14, 323039, Note_on_c, 11, 72, 0
14, 323040, Note_on_c, 11, 72, 44
14, 323744, Note_on_c, 11, 72, 0
14, 323760, Note_on_c, 11, 74, 44
14, 324479, Note_on_c, 11, 74, 0
14, 324480, Note_on_c, 11, 71, 44
14, 325199, Note_on_c, 11, 71, 0
14, 325200, Note_on_c, 11, 72, 44
14, 325799, Note_on_c, 11, 72, 0
14, 325800, Note_on_c, 11, 72, 44
14, 325904, Note_on_c, 11, 72, 0
14, 325920, Note_on_c, 11, 74, 44
14, 326039, Note_on_c, 11, 74, 0
14, 326040, Note_on_c, 11, 72, 45
14, 326144, Note_on_c, 11, 72, 0
14, 326160, Note_on_c, 11, 69, 47
14, 326249, Note_on_c, 11, 69, 0
14, 326280, Note_on_c, 11, 74, 49
14, 326399, Note_on_c, 11, 74, 0
14, 326400, Note_on_c, 11, 72, 50
14, 326504, Note_on_c, 11, 72, 0
14, 326520, Note_on_c, 11, 69, 52
14, 326609, Note_on_c, 11, 69, 0
14, 326640, Note_on_c, 11, 76, 54
14, 326759, Note_on_c, 11, 76, 0
14, 326760, Note_on_c, 11, 74, 55
14, 326864, Note_on_c, 11, 74, 0
14, 326880, Note_on_c, 11, 69, 57
14, 326969, Note_on_c, 11, 69, 0
14, 327000, Note_on_c, 11, 76, 59
14, 327119, Note_on_c, 11, 76, 0
14, 327120, Note_on_c, 11, 74, 60
14, 327224, Note_on_c, 11, 74, 0
14, 327240, Note_on_c, 11, 69, 62
14, 327329, Note_on_c, 11, 69, 0
14, 327360, Note_on_c, 11, 69, 64
14, 327479, Note_on_c, 11, 69, 0
14, 327480, Note_on_c, 11, 68, 65
14, 327584, Note_on_c, 11, 68, 0
14, 327600, Note_on_c, 11, 64, 67
14, 327689, Note_on_c, 11, 64, 0
14, 327720, Note_on_c, 11, 69, 69
14, 327839, Note_on_c, 11, 69, 0
14, 327840, Note_on_c, 11, 68, 70
14, 327944, Note_on_c, 11, 68, 0
14, 327960, Note_on_c, 11, 64, 72
14, 328049, Note_on_c, 11, 64, 0
14, 328080, Note_on_c, 11, 71, 74
14, 328199, Note_on_c, 11, 71, 0
14, 328200, Note_on_c, 11, 69, 75
14, 328304, Note_on_c, 11, 69, 0
14, 328320, Note_on_c, 11, 64, 77
14, 328409, Note_on_c, 11, 64, 0
14, 328440, Note_on_c, 11, 74, 79
14, 328559, Note_on_c, 11, 74, 0
14, 328560, Note_on_c, 11, 72, 80
14, 328664, Note_on_c, 11, 72, 0
14, 328680, Note_on_c, 11, 69, 82
14, 328769, Note_on_c, 11, 69, 0
14, 328800, Note_on_c, 11, 63, 84
14, 328800, Note_on_c, 11, 72, 84
14, 328851, Note_on_c, 11, 63, 0
14, 328851, Note_on_c, 11, 72, 0
14, 328860, Note_on_c, 11, 63, 84
14, 328860, Note_on_c, 11, 72, 84
14, 328911, Note_on_c, 11, 63, 0
14, 328911, Note_on_c, 11, 72, 0
14, 328920, Note_on_c, 11, 63, 84
14, 328920, Note_on_c, 11, 72, 84
14, 328971, Note_on_c, 11, 63, 0
14, 328971, Note_on_c, 11, 72, 0
14, 328980, Note_on_c, 11, 72, 84
14, 328980, Note_on_c, 11, 63, 84
14, 329031, Note_on_c, 11, 72, 0
14, 329031, Note_on_c, 11, 63, 0
14, 329040, Note_on_c, 11, 72, 84
14, 329040, Note_on_c, 11, 63, 84
14, 329091, Note_on_c, 11, 72, 0
14, 329091, Note_on_c, 11, 63, 0
14, 329100, Note_on_c, 11, 72, 84
14, 329100, Note_on_c, 11, 63, 84
14, 329151, Note_on_c, 11, 72, 0
14, 329151, Note_on_c, 11, 63, 0
14, 329160, Note_on_c, 11, 63, 84
14, 329160, Note_on_c, 11, 72, 84
14, 329211, Note_on_c, 11, 63, 0
14, 329211, Note_on_c, 11, 72, 0
14, 329220, Note_on_c, 11, 72, 84
14, 329220, Note_on_c, 11, 63, 84
14, 329271, Note_on_c, 11, 72, 0
14, 329271, Note_on_c, 11, 63, 0
14, 329280, Note_on_c, 11, 63, 84
14, 329280, Note_on_c, 11, 72, 84
14, 329331, Note_on_c, 11, 63, 0
14, 329331, Note_on_c, 11, 72, 0
14, 329340, Note_on_c, 11, 63, 84
14, 329340, Note_on_c, 11, 72, 84
14, 329391, Note_on_c, 11, 63, 0
14, 329391, Note_on_c, 11, 72, 0
14, 329400, Note_on_c, 11, 63, 84
14, 329400, Note_on_c, 11, 72, 84
14, 329451, Note_on_c, 11, 63, 0
14, 329451, Note_on_c, 11, 72, 0
14, 329460, Note_on_c, 11, 72, 84
14, 329460, Note_on_c, 11, 63, 84
14, 329511, Note_on_c, 11, 72, 0
14, 329511, Note_on_c, 11, 63, 0
14, 329520, Note_on_c, 11, 71, 84
14, 329520, Note_on_c, 11, 64, 84
14, 329571, Note_on_c, 11, 71, 0
14, 329571, Note_on_c, 11, 64, 0
14, 329580, Note_on_c, 11, 64, 84
14, 329580, Note_on_c, 11, 71, 84
14, 329631, Note_on_c, 11, 64, 0
14, 329631, Note_on_c, 11, 71, 0
14, 329640, Note_on_c, 11, 71, 84
14, 329640, Note_on_c, 11, 64, 84
14, 329691, Note_on_c, 11, 71, 0
14, 329691, Note_on_c, 11, 64, 0
14, 329700, Note_on_c, 11, 71, 84
14, 329700, Note_on_c, 11, 64, 84
14, 329751, Note_on_c, 11, 71, 0
14, 329751, Note_on_c, 11, 64, 0
14, 329760, Note_on_c, 11, 64, 84
14, 329760, Note_on_c, 11, 71, 84
14, 329811, Note_on_c, 11, 64, 0
14, 329811, Note_on_c, 11, 71, 0
14, 329820, Note_on_c, 11, 64, 84
14, 329820, Note_on_c, 11, 71, 84
14, 329871, Note_on_c, 11, 64, 0
14, 329871, Note_on_c, 11, 71, 0
14, 329880, Note_on_c, 11, 71, 84
14, 329880, Note_on_c, 11, 64, 84
14, 329931, Note_on_c, 11, 71, 0
14, 329931, Note_on_c, 11, 64, 0
14, 329940, Note_on_c, 11, 59, 84
14, 329991, Note_on_c, 11, 59, 0
14, 330000, Note_on_c, 11, 59, 84
14, 330051, Note_on_c, 11, 59, 0
14, 330060, Note_on_c, 11, 59, 84
14, 330111, Note_on_c, 11, 59, 0
14, 330120, Note_on_c, 11, 59, 84
14, 330171, Note_on_c, 11, 59, 0
14, 330180, Note_on_c, 11, 59, 84
14, 330231, Note_on_c, 11, 59, 0
14, 330240, Note_on_c, 11, 57, 84
14, 330291, Note_on_c, 11, 57, 0
14, 330300, Note_on_c, 11, 62, 84
14, 330351, Note_on_c, 11, 62, 0
14, 330360, Note_on_c, 11, 62, 84
14, 330411, Note_on_c, 11, 62, 0
14, 330420, Note_on_c, 11, 62, 84
14, 330471, Note_on_c, 11, 62, 0
14, 330480, Note_on_c, 11, 62, 84
14, 330531, Note_on_c, 11, 62, 0
14, 330540, Note_on_c, 11, 62, 84
14, 330591, Note_on_c, 11, 62, 0
14, 330600, Note_on_c, 11, 62, 84
14, 330651, Note_on_c, 11, 62, 0
14, 330660, Note_on_c, 11, 62, 84
14, 330711, Note_on_c, 11, 62, 0
14, 330720, Note_on_c, 11, 62, 84
14, 330771, Note_on_c, 11, 62, 0
14, 330780, Note_on_c, 11, 62, 84
14, 330831, Note_on_c, 11, 62, 0
14, 330840, Note_on_c, 11, 62, 84
14, 330891, Note_on_c, 11, 62, 0
14, 330900, Note_on_c, 11, 62, 84
14, 330951, Note_on_c, 11, 62, 0
14, 330960, Note_on_c, 11, 64, 52
14, 331079, Note_on_c, 11, 64, 0
14, 331200, Note_on_c, 11, 64, 52
14, 331200, Note_on_c, 11, 59, 52
14, 331319, Note_on_c, 11, 64, 0
14, 331319, Note_on_c, 11, 59, 0
14, 331560, Note_on_c, 11, 59, 52
14, 331560, Note_on_c, 11, 64, 52
14, 331679, Note_on_c, 11, 59, 0
14, 331679, Note_on_c, 11, 64, 0
14, 331920, Note_on_c, 11, 60, 52
14, 331920, Note_on_c, 11, 64, 52
14, 332039, Note_on_c, 11, 60, 0
14, 332039, Note_on_c, 11, 64, 0
14, 332280, Note_on_c, 11, 60, 52
14, 332280, Note_on_c, 11, 64, 52
14, 332399, Note_on_c, 11, 60, 0
14, 332399, Note_on_c, 11, 64, 0
14, 332640, Note_on_c, 11, 64, 52
14, 332640, Note_on_c, 11, 59, 52
14, 332759, Note_on_c, 11, 64, 0
14, 332759, Note_on_c, 11, 59, 0
14, 333000, Note_on_c, 11, 59, 52
14, 333000, Note_on_c, 11, 64, 52
14, 333119, Note_on_c, 11, 59, 0
14, 333119, Note_on_c, 11, 64, 0
14, 333360, Note_on_c, 11, 60, 52
14, 333360, Note_on_c, 11, 64, 52
14, 333479, Note_on_c, 11, 60, 0
14, 333479, Note_on_c, 11, 64, 0
14, 333720, Note_on_c, 11, 60, 52
14, 333720, Note_on_c, 11, 64, 52
14, 333839, Note_on_c, 11, 60, 0
14, 333839, Note_on_c, 11, 64, 0
14, 334080, Note_on_c, 11, 59, 60
14, 334080, Note_on_c, 11, 64, 60
14, 334199, Note_on_c, 11, 59, 0
14, 334199, Note_on_c, 11, 64, 0
14, 334440, Note_on_c, 11, 64, 72
14, 334440, Note_on_c, 11, 59, 72
14, 334544, Note_on_c, 11, 64, 0
14, 334544, Note_on_c, 11, 59, 0
14, 334560, Note_on_c, 11, 61, 76
14, 334611, Note_on_c, 11, 61, 0
14, 334620, Note_on_c, 11, 61, 76
14, 334671, Note_on_c, 11, 61, 0
14, 334680, Note_on_c, 11, 61, 76
14, 334731, Note_on_c, 11, 61, 0
14, 334740, Note_on_c, 11, 61, 76
14, 334791, Note_on_c, 11, 61, 0
14, 334800, Note_on_c, 11, 61, 76
14, 334851, Note_on_c, 11, 61, 0
14, 334860, Note_on_c, 11, 61, 76
14, 334911, Note_on_c, 11, 61, 0
14, 334920, Note_on_c, 11, 61, 76
14, 334971, Note_on_c, 11, 61, 0
14, 334980, Note_on_c, 11, 61, 76
14, 335031, Note_on_c, 11, 61, 0
14, 335040, Note_on_c, 11, 61, 76
14, 335091, Note_on_c, 11, 61, 0
14, 335100, Note_on_c, 11, 61, 76
14, 335151, Note_on_c, 11, 61, 0
14, 335160, Note_on_c, 11, 61, 76
14, 335211, Note_on_c, 11, 61, 0
14, 335220, Note_on_c, 11, 61, 76
14, 335271, Note_on_c, 11, 61, 0
14, 335280, Note_on_c, 11, 59, 76
14, 335384, Note_on_c, 11, 59, 0
14, 335400, Note_on_c, 11, 83, 76
14, 335459, Note_on_c, 11, 83, 0
14, 335460, Note_on_c, 11, 81, 76
14, 335519, Note_on_c, 11, 81, 0
14, 335520, Note_on_c, 11, 80, 76
14, 335579, Note_on_c, 11, 80, 0
14, 335580, Note_on_c, 11, 78, 76
14, 335639, Note_on_c, 11, 78, 0
14, 335640, Note_on_c, 11, 76, 76
14, 335699, Note_on_c, 11, 76, 0
14, 335700, Note_on_c, 11, 75, 76
14, 335759, Note_on_c, 11, 75, 0
14, 335760, Note_on_c, 11, 76, 76
14, 335819, Note_on_c, 11, 76, 0
14, 335820, Note_on_c, 11, 74, 76
14, 335879, Note_on_c, 11, 74, 0
14, 335880, Note_on_c, 11, 73, 76
14, 335939, Note_on_c, 11, 73, 0
14, 335940, Note_on_c, 11, 71, 76
14, 335991, Note_on_c, 11, 71, 0
14, 336000, Note_on_c, 11, 69, 76
14, 336051, Note_on_c, 11, 69, 0
14, 336060, Note_on_c, 11, 57, 76
14, 336111, Note_on_c, 11, 57, 0
14, 336120, Note_on_c, 11, 57, 76
14, 336171, Note_on_c, 11, 57, 0
14, 336180, Note_on_c, 11, 57, 76
14, 336231, Note_on_c, 11, 57, 0
14, 336240, Note_on_c, 11, 57, 76
14, 336291, Note_on_c, 11, 57, 0
14, 336300, Note_on_c, 11, 57, 76
14, 336351, Note_on_c, 11, 57, 0
14, 336360, Note_on_c, 11, 57, 76
14, 336411, Note_on_c, 11, 57, 0
14, 336420, Note_on_c, 11, 57, 76
14, 336471, Note_on_c, 11, 57, 0
14, 336480, Note_on_c, 11, 57, 76
14, 336531, Note_on_c, 11, 57, 0
14, 336540, Note_on_c, 11, 57, 76
14, 336591, Note_on_c, 11, 57, 0
14, 336600, Note_on_c, 11, 57, 76
14, 336651, Note_on_c, 11, 57, 0
14, 336660, Note_on_c, 11, 57, 76
14, 336711, Note_on_c, 11, 57, 0
14, 336720, Note_on_c, 11, 56, 76
14, 336824, Note_on_c, 11, 56, 0
14, 336840, Note_on_c, 11, 80, 76
14, 336899, Note_on_c, 11, 80, 0
14, 336900, Note_on_c, 11, 78, 76
14, 336959, Note_on_c, 11, 78, 0
14, 336960, Note_on_c, 11, 76, 76
14, 337019, Note_on_c, 11, 76, 0
14, 337020, Note_on_c, 11, 74, 76
14, 337079, Note_on_c, 11, 74, 0
14, 337080, Note_on_c, 11, 73, 76
14, 337139, Note_on_c, 11, 73, 0
14, 337140, Note_on_c, 11, 72, 76
14, 337199, Note_on_c, 11, 72, 0
14, 337200, Note_on_c, 11, 73, 76
14, 337259, Note_on_c, 11, 73, 0
14, 337260, Note_on_c, 11, 71, 76
14, 337319, Note_on_c, 11, 71, 0
14, 337320, Note_on_c, 11, 69, 76
14, 337379, Note_on_c, 11, 69, 0
14, 337380, Note_on_c, 11, 68, 76
14, 337431, Note_on_c, 11, 68, 0
14, 337440, Note_on_c, 11, 66, 76
14, 337491, Note_on_c, 11, 66, 0
14, 337500, Note_on_c, 11, 66, 76
14, 337551, Note_on_c, 11, 66, 0
14, 337560, Note_on_c, 11, 66, 76
14, 337611, Note_on_c, 11, 66, 0
14, 337620, Note_on_c, 11, 66, 76
14, 337671, Note_on_c, 11, 66, 0
14, 337680, Note_on_c, 11, 66, 76
14, 337731, Note_on_c, 11, 66, 0
14, 337740, Note_on_c, 11, 66, 76
14, 337791, Note_on_c, 11, 66, 0
14, 337800, Note_on_c, 11, 66, 76
14, 337851, Note_on_c, 11, 66, 0
14, 337860, Note_on_c, 11, 66, 76
14, 337911, Note_on_c, 11, 66, 0
14, 337920, Note_on_c, 11, 66, 76
14, 337971, Note_on_c, 11, 66, 0
14, 337980, Note_on_c, 11, 66, 76
14, 338031, Note_on_c, 11, 66, 0
14, 338040, Note_on_c, 11, 66, 76
14, 338091, Note_on_c, 11, 66, 0
14, 338100, Note_on_c, 11, 66, 76
14, 338151, Note_on_c, 11, 66, 0
14, 338160, Note_on_c, 11, 68, 76
14, 338399, Note_on_c, 11, 68, 0
14, 338520, Note_on_c, 11, 83, 76
14, 338520, Note_on_c, 11, 64, 76
14, 338520, Note_on_c, 11, 74, 76
14, 338759, Note_on_c, 11, 83, 0
14, 338759, Note_on_c, 11, 64, 0
14, 338759, Note_on_c, 11, 74, 0
14, 338880, Note_on_c, 11, 81, 76
14, 338880, Note_on_c, 11, 64, 76
14, 338880, Note_on_c, 11, 73, 76
14, 339119, Note_on_c, 11, 81, 0
14, 339119, Note_on_c, 11, 64, 0
14, 339119, Note_on_c, 11, 73, 0
14, 339240, Note_on_c, 11, 73, 76
14, 339240, Note_on_c, 11, 81, 76
14, 339240, Note_on_c, 11, 64, 76
14, 339479, Note_on_c, 11, 73, 0
14, 339479, Note_on_c, 11, 81, 0
14, 339479, Note_on_c, 11, 64, 0
14, 339600, Note_on_c, 11, 71, 76
14, 339600, Note_on_c, 11, 80, 76
14, 339600, Note_on_c, 11, 64, 76
14, 339839, Note_on_c, 11, 71, 0
14, 339839, Note_on_c, 11, 80, 0
14, 339839, Note_on_c, 11, 64, 0
14, 339960, Note_on_c, 11, 83, 76
14, 339960, Note_on_c, 11, 64, 76
14, 339960, Note_on_c, 11, 74, 76
14, 340199, Note_on_c, 11, 83, 0
14, 340199, Note_on_c, 11, 64, 0
14, 340199, Note_on_c, 11, 74, 0
14, 340320, Note_on_c, 11, 81, 76
14, 340320, Note_on_c, 11, 73, 76
14, 340320, Note_on_c, 11, 64, 76
14, 340559, Note_on_c, 11, 81, 0
14, 340559, Note_on_c, 11, 73, 0
14, 340559, Note_on_c, 11, 64, 0
14, 340680, Note_on_c, 11, 64, 76
14, 340680, Note_on_c, 11, 81, 76
14, 340680, Note_on_c, 11, 73, 76
14, 340919, Note_on_c, 11, 64, 0
14, 340919, Note_on_c, 11, 81, 0
14, 340919, Note_on_c, 11, 73, 0
14, 341040, Note_on_c, 11, 66, 84
14, 341099, Note_on_c, 11, 66, 0
14, 341100, Note_on_c, 11, 66, 76
14, 341120, Control_c, 11, 11, 122
14, 341160, Control_c, 11, 11, 119
14, 341200, Control_c, 11, 11, 117
14, 341240, Control_c, 11, 11, 114
14, 341280, Control_c, 11, 11, 111
14, 341320, Control_c, 11, 11, 109
14, 341360, Control_c, 11, 11, 106
14, 341400, Control_c, 11, 11, 104
14, 341440, Control_c, 11, 11, 101
14, 341480, Control_c, 11, 11, 98
14, 341520, Control_c, 11, 11, 96
14, 341560, Control_c, 11, 11, 93
14, 341600, Control_c, 11, 11, 90
14, 341639, Note_on_c, 11, 66, 0
14, 341640, Note_on_c, 11, 65, 76
14, 341640, Control_c, 11, 11, 88
14, 341680, Control_c, 11, 11, 85
14, 341720, Control_c, 11, 11, 80
14, 341744, Note_on_c, 11, 65, 0
14, 341760, Note_on_c, 11, 64, 76
14, 342359, Note_on_c, 11, 64, 0
14, 342360, Note_on_c, 11, 66, 76
14, 342419, Note_on_c, 11, 66, 0
14, 342420, Note_on_c, 11, 68, 76
14, 342479, Note_on_c, 11, 68, 0
14, 342480, Note_on_c, 11, 69, 76
14, 342719, Note_on_c, 11, 69, 0
14, 343200, Control_c, 11, 11, 127
14, 343920, Note_on_c, 11, 57, 48
14, 344279, Note_on_c, 11, 57, 0
14, 344280, Note_on_c, 11, 61, 48
14, 344639, Note_on_c, 11, 61, 0
14, 344640, Note_on_c, 11, 64, 48
14, 344999, Note_on_c, 11, 64, 0
14, 345000, Note_on_c, 11, 64, 48
14, 345344, Note_on_c, 11, 64, 0
14, 345360, Note_on_c, 11, 81, 84
14, 345360, Note_on_c, 11, 69, 84
14, 345704, Note_on_c, 11, 81, 0
14, 345704, Note_on_c, 11, 69, 0
14, 345720, Note_on_c, 11, 73, 84
14, 345891, Note_on_c, 11, 73, 0
14, 345900, Note_on_c, 11, 69, 84
14, 345951, Note_on_c, 11, 69, 0
14, 345960, Note_on_c, 11, 69, 84
14, 346064, Note_on_c, 11, 69, 0
14, 346080, Note_on_c, 11, 74, 84
14, 346251, Note_on_c, 11, 74, 0
14, 346260, Note_on_c, 11, 71, 84
14, 346311, Note_on_c, 11, 71, 0
14, 346320, Note_on_c, 11, 71, 84
14, 346424, Note_on_c, 11, 71, 0
14, 346440, Note_on_c, 11, 72, 84
14, 346440, Note_on_c, 11, 76, 84
14, 346611, Note_on_c, 11, 72, 0
14, 346611, Note_on_c, 11, 76, 0
14, 346620, Note_on_c, 11, 76, 84
14, 346620, Note_on_c, 11, 72, 84
14, 346671, Note_on_c, 11, 76, 0
14, 346671, Note_on_c, 11, 72, 0
14, 346680, Note_on_c, 11, 70, 84
14, 346680, Note_on_c, 11, 76, 84
14, 346784, Note_on_c, 11, 70, 0
14, 346784, Note_on_c, 11, 76, 0
14, 346800, Note_on_c, 11, 69, 84
14, 346800, Note_on_c, 11, 77, 84
14, 346971, Note_on_c, 11, 69, 0
14, 346971, Note_on_c, 11, 77, 0
14, 346980, Note_on_c, 11, 77, 84
14, 347031, Note_on_c, 11, 77, 0
14, 347040, Note_on_c, 11, 72, 84
14, 347144, Note_on_c, 11, 72, 0
14, 347160, Note_on_c, 11, 69, 84
14, 347331, Note_on_c, 11, 69, 0
14, 347340, Note_on_c, 11, 81, 84
14, 347391, Note_on_c, 11, 81, 0
14, 347400, Note_on_c, 11, 77, 84
14, 347504, Note_on_c, 11, 77, 0
14, 347520, Note_on_c, 11, 72, 84
14, 347691, Note_on_c, 11, 72, 0
14, 347700, Note_on_c, 11, 72, 84
14, 347751, Note_on_c, 11, 72, 0
14, 347760, Note_on_c, 11, 69, 84
14, 347864, Note_on_c, 11, 69, 0
14, 347880, Note_on_c, 11, 65, 84
14, 348051, Note_on_c, 11, 65, 0
14, 348060, Note_on_c, 11, 65, 84
14, 348111, Note_on_c, 11, 65, 0
14, 348120, Note_on_c, 11, 60, 84
14, 348224, Note_on_c, 11, 60, 0
14, 348240, Note_on_c, 11, 65, 84
14, 348479, Note_on_c, 11, 65, 0
14, 348780, Note_on_c, 11, 60, 82
14, 348831, Note_on_c, 11, 60, 0
14, 348840, Note_on_c, 11, 60, 80
14, 348944, Note_on_c, 11, 60, 0
14, 348960, Note_on_c, 11, 65, 76
14, 349199, Note_on_c, 11, 65, 0
14, 349500, Note_on_c, 11, 60, 58
14, 349551, Note_on_c, 11, 60, 0
14, 349560, Note_on_c, 11, 60, 56
14, 349664, Note_on_c, 11, 60, 0
14, 349680, Note_on_c, 11, 65, 52
14, 349919, Note_on_c, 11, 65, 0
14, 350400, Note_on_c, 11, 65, 44
14, 350639, Note_on_c, 11, 65, 0
14, 351120, Note_on_c, 11, 65, 44
14, 351120, Note_on_c, 11, 56, 44
14, 351171, Note_on_c, 11, 65, 0
14, 351171, Note_on_c, 11, 56, 0
14, 351180, Note_on_c, 11, 56, 44
14, 351180, Note_on_c, 11, 65, 44
14, 351231, Note_on_c, 11, 56, 0
14, 351231, Note_on_c, 11, 65, 0
14, 351240, Note_on_c, 11, 65, 44
14, 351240, Note_on_c, 11, 56, 44
14, 351291, Note_on_c, 11, 65, 0
14, 351291, Note_on_c, 11, 56, 0
14, 351300, Note_on_c, 11, 65, 44
14, 351300, Note_on_c, 11, 56, 44
14, 351351, Note_on_c, 11, 65, 0
14, 351351, Note_on_c, 11, 56, 0
14, 351360, Note_on_c, 11, 65, 44
14, 351360, Note_on_c, 11, 56, 44
14, 351411, Note_on_c, 11, 65, 0
14, 351411, Note_on_c, 11, 56, 0
14, 351420, Note_on_c, 11, 56, 44
14, 351420, Note_on_c, 11, 65, 44
14, 351471, Note_on_c, 11, 56, 0
14, 351471, Note_on_c, 11, 65, 0
14, 351480, Note_on_c, 11, 56, 44
14, 351480, Note_on_c, 11, 65, 44
14, 351531, Note_on_c, 11, 56, 0
14, 351531, Note_on_c, 11, 65, 0
14, 351540, Note_on_c, 11, 65, 44
14, 351540, Note_on_c, 11, 56, 44
14, 351591, Note_on_c, 11, 65, 0
14, 351591, Note_on_c, 11, 56, 0
14, 351600, Note_on_c, 11, 65, 44
14, 351600, Note_on_c, 11, 56, 44
14, 351651, Note_on_c, 11, 65, 0
14, 351651, Note_on_c, 11, 56, 0
14, 351660, Note_on_c, 11, 65, 44
14, 351660, Note_on_c, 11, 56, 44
14, 351711, Note_on_c, 11, 65, 0
14, 351711, Note_on_c, 11, 56, 0
14, 351720, Note_on_c, 11, 65, 44
14, 351720, Note_on_c, 11, 56, 44
14, 351771, Note_on_c, 11, 65, 0
14, 351771, Note_on_c, 11, 56, 0
14, 351780, Note_on_c, 11, 56, 44
14, 351780, Note_on_c, 11, 65, 44
14, 351831, Note_on_c, 11, 56, 0
14, 351831, Note_on_c, 11, 65, 0
14, 351840, Note_on_c, 11, 56, 44
14, 351840, Note_on_c, 11, 65, 44
14, 351891, Note_on_c, 11, 56, 0
14, 351891, Note_on_c, 11, 65, 0
14, 351900, Note_on_c, 11, 65, 44
14, 351900, Note_on_c, 11, 56, 44
14, 351951, Note_on_c, 11, 65, 0
14, 351951, Note_on_c, 11, 56, 0
14, 351960, Note_on_c, 11, 65, 44
14, 351960, Note_on_c, 11, 56, 44
14, 352011, Note_on_c, 11, 65, 0
14, 352011, Note_on_c, 11, 56, 0
14, 352020, Note_on_c, 11, 65, 44
14, 352020, Note_on_c, 11, 56, 44
14, 352071, Note_on_c, 11, 65, 0
14, 352071, Note_on_c, 11, 56, 0
14, 352080, Note_on_c, 11, 65, 44
14, 352080, Note_on_c, 11, 56, 44
14, 352131, Note_on_c, 11, 65, 0
14, 352131, Note_on_c, 11, 56, 0
14, 352140, Note_on_c, 11, 56, 44
14, 352140, Note_on_c, 11, 65, 44
14, 352191, Note_on_c, 11, 56, 0
14, 352191, Note_on_c, 11, 65, 0
14, 352200, Note_on_c, 11, 65, 44
14, 352200, Note_on_c, 11, 56, 44
14, 352251, Note_on_c, 11, 65, 0
14, 352251, Note_on_c, 11, 56, 0
14, 352260, Note_on_c, 11, 65, 44
14, 352260, Note_on_c, 11, 56, 44
14, 352311, Note_on_c, 11, 65, 0
14, 352311, Note_on_c, 11, 56, 0
14, 352320, Note_on_c, 11, 56, 44
14, 352320, Note_on_c, 11, 65, 44
14, 352371, Note_on_c, 11, 56, 0
14, 352371, Note_on_c, 11, 65, 0
14, 352380, Note_on_c, 11, 56, 44
14, 352380, Note_on_c, 11, 65, 44
14, 352431, Note_on_c, 11, 56, 0
14, 352431, Note_on_c, 11, 65, 0
14, 352440, Note_on_c, 11, 65, 44
14, 352440, Note_on_c, 11, 56, 44
14, 352491, Note_on_c, 11, 65, 0
14, 352491, Note_on_c, 11, 56, 0
14, 352500, Note_on_c, 11, 65, 44
14, 352500, Note_on_c, 11, 56, 44
14, 352551, Note_on_c, 11, 65, 0
14, 352551, Note_on_c, 11, 56, 0
14, 352560, Note_on_c, 11, 65, 44
14, 352560, Note_on_c, 11, 56, 44
14, 352611, Note_on_c, 11, 65, 0
14, 352611, Note_on_c, 11, 56, 0
14, 352620, Note_on_c, 11, 65, 44
14, 352620, Note_on_c, 11, 56, 44
14, 352671, Note_on_c, 11, 65, 0
14, 352671, Note_on_c, 11, 56, 0
14, 352680, Note_on_c, 11, 65, 44
14, 352680, Note_on_c, 11, 56, 44
14, 352731, Note_on_c, 11, 65, 0
14, 352731, Note_on_c, 11, 56, 0
14, 352740, Note_on_c, 11, 56, 44
14, 352740, Note_on_c, 11, 65, 44
14, 352791, Note_on_c, 11, 56, 0
14, 352791, Note_on_c, 11, 65, 0
14, 352800, Note_on_c, 11, 56, 44
14, 352800, Note_on_c, 11, 65, 44
14, 352851, Note_on_c, 11, 56, 0
14, 352851, Note_on_c, 11, 65, 0
14, 352860, Note_on_c, 11, 65, 44
14, 352860, Note_on_c, 11, 56, 44
14, 352911, Note_on_c, 11, 65, 0
14, 352911, Note_on_c, 11, 56, 0
14, 352920, Note_on_c, 11, 65, 44
14, 352920, Note_on_c, 11, 56, 44
14, 352971, Note_on_c, 11, 65, 0
14, 352971, Note_on_c, 11, 56, 0
14, 352980, Note_on_c, 11, 56, 44
14, 352980, Note_on_c, 11, 65, 44
14, 353031, Note_on_c, 11, 56, 0
14, 353031, Note_on_c, 11, 65, 0
14, 353040, Note_on_c, 11, 65, 44
14, 353040, Note_on_c, 11, 56, 44
14, 353091, Note_on_c, 11, 65, 0
14, 353091, Note_on_c, 11, 56, 0
14, 353100, Note_on_c, 11, 65, 44
14, 353100, Note_on_c, 11, 56, 44
14, 353151, Note_on_c, 11, 65, 0
14, 353151, Note_on_c, 11, 56, 0
14, 353160, Note_on_c, 11, 56, 44
14, 353160, Note_on_c, 11, 65, 44
14, 353211, Note_on_c, 11, 56, 0
14, 353211, Note_on_c, 11, 65, 0
14, 353220, Note_on_c, 11, 56, 44
14, 353220, Note_on_c, 11, 65, 44
14, 353271, Note_on_c, 11, 56, 0
14, 353271, Note_on_c, 11, 65, 0
14, 353280, Note_on_c, 11, 65, 44
14, 353280, Note_on_c, 11, 56, 44
14, 353331, Note_on_c, 11, 65, 0
14, 353331, Note_on_c, 11, 56, 0
14, 353340, Note_on_c, 11, 65, 44
14, 353340, Note_on_c, 11, 56, 44
14, 353391, Note_on_c, 11, 65, 0
14, 353391, Note_on_c, 11, 56, 0
14, 353400, Note_on_c, 11, 56, 44
14, 353400, Note_on_c, 11, 65, 44
14, 353451, Note_on_c, 11, 56, 0
14, 353451, Note_on_c, 11, 65, 0
14, 353460, Note_on_c, 11, 56, 44
14, 353460, Note_on_c, 11, 65, 44
14, 353511, Note_on_c, 11, 56, 0
14, 353511, Note_on_c, 11, 65, 0
14, 353520, Note_on_c, 11, 56, 44
14, 353520, Note_on_c, 11, 65, 44
14, 353571, Note_on_c, 11, 56, 0
14, 353571, Note_on_c, 11, 65, 0
14, 353580, Note_on_c, 11, 56, 44
14, 353580, Note_on_c, 11, 65, 44
14, 353631, Note_on_c, 11, 56, 0
14, 353631, Note_on_c, 11, 65, 0
14, 353640, Note_on_c, 11, 56, 44
14, 353640, Note_on_c, 11, 65, 44
14, 353691, Note_on_c, 11, 56, 0
14, 353691, Note_on_c, 11, 65, 0
14, 353700, Note_on_c, 11, 56, 44
14, 353700, Note_on_c, 11, 65, 44
14, 353751, Note_on_c, 11, 56, 0
14, 353751, Note_on_c, 11, 65, 0
14, 353760, Note_on_c, 11, 56, 44
14, 353760, Note_on_c, 11, 65, 44
14, 353811, Note_on_c, 11, 56, 0
14, 353811, Note_on_c, 11, 65, 0
14, 353820, Note_on_c, 11, 65, 44
14, 353820, Note_on_c, 11, 56, 44
14, 353871, Note_on_c, 11, 65, 0
14, 353871, Note_on_c, 11, 56, 0
14, 353880, Note_on_c, 11, 65, 44
14, 353880, Note_on_c, 11, 56, 44
14, 353931, Note_on_c, 11, 65, 0
14, 353931, Note_on_c, 11, 56, 0
14, 353940, Note_on_c, 11, 65, 44
14, 353940, Note_on_c, 11, 56, 44
14, 353991, Note_on_c, 11, 65, 0
14, 353991, Note_on_c, 11, 56, 0
14, 354000, Note_on_c, 11, 64, 44
14, 354000, Note_on_c, 11, 56, 44
14, 354051, Note_on_c, 11, 64, 0
14, 354051, Note_on_c, 11, 56, 0
14, 354060, Note_on_c, 11, 64, 44
14, 354111, Note_on_c, 11, 64, 0
14, 354120, Note_on_c, 11, 64, 45
14, 354171, Note_on_c, 11, 64, 0
14, 354180, Note_on_c, 11, 64, 45
14, 354231, Note_on_c, 11, 64, 0
14, 354240, Note_on_c, 11, 64, 46
14, 354291, Note_on_c, 11, 64, 0
14, 354300, Note_on_c, 11, 64, 46
14, 354351, Note_on_c, 11, 64, 0
14, 354360, Note_on_c, 11, 64, 47
14, 354411, Note_on_c, 11, 64, 0
14, 354420, Note_on_c, 11, 74, 47
14, 354471, Note_on_c, 11, 74, 0
14, 354480, Note_on_c, 11, 74, 48
14, 354531, Note_on_c, 11, 74, 0
14, 354540, Note_on_c, 11, 74, 49
14, 354591, Note_on_c, 11, 74, 0
14, 354600, Note_on_c, 11, 73, 49
14, 354651, Note_on_c, 11, 73, 0
14, 354660, Note_on_c, 11, 74, 50
14, 354711, Note_on_c, 11, 74, 0
14, 354720, Note_on_c, 11, 76, 50
14, 354771, Note_on_c, 11, 76, 0
14, 354780, Note_on_c, 11, 64, 51
14, 354831, Note_on_c, 11, 64, 0
14, 354840, Note_on_c, 11, 64, 51
14, 354891, Note_on_c, 11, 64, 0
14, 354900, Note_on_c, 11, 64, 52
14, 354951, Note_on_c, 11, 64, 0
14, 354960, Note_on_c, 11, 64, 52
14, 355011, Note_on_c, 11, 64, 0
14, 355020, Note_on_c, 11, 64, 53
14, 355071, Note_on_c, 11, 64, 0
14, 355080, Note_on_c, 11, 64, 54
14, 355131, Note_on_c, 11, 64, 0
14, 355140, Note_on_c, 11, 76, 54
14, 355191, Note_on_c, 11, 76, 0
14, 355200, Note_on_c, 11, 76, 55
14, 355251, Note_on_c, 11, 76, 0
14, 355260, Note_on_c, 11, 76, 55
14, 355311, Note_on_c, 11, 76, 0
14, 355320, Note_on_c, 11, 74, 56
14, 355371, Note_on_c, 11, 74, 0
14, 355380, Note_on_c, 11, 76, 56
14, 355431, Note_on_c, 11, 76, 0
14, 355440, Note_on_c, 11, 78, 57
14, 355491, Note_on_c, 11, 78, 0
14, 355500, Note_on_c, 11, 66, 57
14, 355551, Note_on_c, 11, 66, 0
14, 355560, Note_on_c, 11, 66, 58
14, 355611, Note_on_c, 11, 66, 0
14, 355620, Note_on_c, 11, 66, 59
14, 355671, Note_on_c, 11, 66, 0
14, 355680, Note_on_c, 11, 66, 59
14, 355731, Note_on_c, 11, 66, 0
14, 355740, Note_on_c, 11, 66, 60
14, 355791, Note_on_c, 11, 66, 0
14, 355800, Note_on_c, 11, 66, 60
14, 355851, Note_on_c, 11, 66, 0
14, 355860, Note_on_c, 11, 78, 61
14, 355911, Note_on_c, 11, 78, 0
14, 355920, Note_on_c, 11, 78, 61
14, 355971, Note_on_c, 11, 78, 0
14, 355980, Note_on_c, 11, 78, 62
14, 356031, Note_on_c, 11, 78, 0
14, 356040, Note_on_c, 11, 76, 62
14, 356091, Note_on_c, 11, 76, 0
14, 356100, Note_on_c, 11, 78, 63
14, 356151, Note_on_c, 11, 78, 0
14, 356160, Note_on_c, 11, 80, 64
14, 356211, Note_on_c, 11, 80, 0
14, 356220, Note_on_c, 11, 68, 64
14, 356271, Note_on_c, 11, 68, 0
14, 356280, Note_on_c, 11, 68, 65
14, 356331, Note_on_c, 11, 68, 0
14, 356340, Note_on_c, 11, 68, 65
14, 356391, Note_on_c, 11, 68, 0
14, 356400, Note_on_c, 11, 68, 66
14, 356451, Note_on_c, 11, 68, 0
14, 356460, Note_on_c, 11, 68, 66
14, 356511, Note_on_c, 11, 68, 0
14, 356520, Note_on_c, 11, 68, 67
14, 356571, Note_on_c, 11, 68, 0
14, 356580, Note_on_c, 11, 80, 67
14, 356631, Note_on_c, 11, 80, 0
14, 356640, Note_on_c, 11, 80, 68
14, 356691, Note_on_c, 11, 80, 0
14, 356700, Note_on_c, 11, 80, 69
14, 356751, Note_on_c, 11, 80, 0
14, 356760, Note_on_c, 11, 78, 69
14, 356811, Note_on_c, 11, 78, 0
14, 356820, Note_on_c, 11, 80, 70
14, 356871, Note_on_c, 11, 80, 0
14, 356880, Note_on_c, 11, 81, 70
14, 356931, Note_on_c, 11, 81, 0
14, 356940, Note_on_c, 11, 69, 71
14, 356991, Note_on_c, 11, 69, 0
14, 357000, Note_on_c, 11, 69, 71
14, 357051, Note_on_c, 11, 69, 0
14, 357060, Note_on_c, 11, 69, 72
14, 357111, Note_on_c, 11, 69, 0
14, 357120, Note_on_c, 11, 69, 72
14, 357171, Note_on_c, 11, 69, 0
14, 357180, Note_on_c, 11, 69, 73
14, 357231, Note_on_c, 11, 69, 0
14, 357240, Note_on_c, 11, 69, 74
14, 357291, Note_on_c, 11, 69, 0
14, 357300, Note_on_c, 11, 81, 74
14, 357351, Note_on_c, 11, 81, 0
14, 357360, Note_on_c, 11, 81, 75
14, 357411, Note_on_c, 11, 81, 0
14, 357420, Note_on_c, 11, 81, 75
14, 357471, Note_on_c, 11, 81, 0
14, 357480, Note_on_c, 11, 80, 76
14, 357531, Note_on_c, 11, 80, 0
14, 357540, Note_on_c, 11, 81, 76
14, 357591, Note_on_c, 11, 81, 0
14, 357600, Note_on_c, 11, 83, 77
14, 357651, Note_on_c, 11, 83, 0
14, 357660, Note_on_c, 11, 71, 77
14, 357711, Note_on_c, 11, 71, 0
14, 357720, Note_on_c, 11, 71, 78
14, 357771, Note_on_c, 11, 71, 0
14, 357780, Note_on_c, 11, 71, 79
14, 357831, Note_on_c, 11, 71, 0
14, 357840, Note_on_c, 11, 71, 79
14, 357891, Note_on_c, 11, 71, 0
14, 357900, Note_on_c, 11, 71, 80
14, 357951, Note_on_c, 11, 71, 0
14, 357960, Note_on_c, 11, 71, 80
14, 358011, Note_on_c, 11, 71, 0
14, 358020, Note_on_c, 11, 83, 81
14, 358071, Note_on_c, 11, 83, 0
14, 358080, Note_on_c, 11, 83, 81
14, 358131, Note_on_c, 11, 83, 0
14, 358140, Note_on_c, 11, 83, 82
14, 358191, Note_on_c, 11, 83, 0
14, 358200, Note_on_c, 11, 81, 82
14, 358251, Note_on_c, 11, 81, 0
14, 358260, Note_on_c, 11, 83, 83
14, 358311, Note_on_c, 11, 83, 0
14, 358320, Note_on_c, 11, 85, 84
14, 358371, Note_on_c, 11, 85, 0
14, 358380, Note_on_c, 11, 73, 84
14, 358380, Note_on_c, 11, 81, 84
14, 358431, Note_on_c, 11, 73, 0
14, 358431, Note_on_c, 11, 81, 0
14, 358440, Note_on_c, 11, 81, 84
14, 358440, Note_on_c, 11, 73, 84
14, 358491, Note_on_c, 11, 81, 0
14, 358491, Note_on_c, 11, 73, 0
14, 358500, Note_on_c, 11, 81, 84
14, 358500, Note_on_c, 11, 73, 84
14, 358551, Note_on_c, 11, 81, 0
14, 358551, Note_on_c, 11, 73, 0
14, 358560, Note_on_c, 11, 73, 84
14, 358560, Note_on_c, 11, 81, 84
14, 358611, Note_on_c, 11, 73, 0
14, 358611, Note_on_c, 11, 81, 0
14, 358620, Note_on_c, 11, 73, 84
14, 358620, Note_on_c, 11, 81, 84
14, 358671, Note_on_c, 11, 73, 0
14, 358671, Note_on_c, 11, 81, 0
14, 358680, Note_on_c, 11, 73, 84
14, 358680, Note_on_c, 11, 81, 84
14, 358731, Note_on_c, 11, 73, 0
14, 358731, Note_on_c, 11, 81, 0
14, 358740, Note_on_c, 11, 73, 84
14, 358740, Note_on_c, 11, 81, 84
14, 358791, Note_on_c, 11, 73, 0
14, 358791, Note_on_c, 11, 81, 0
14, 358800, Note_on_c, 11, 73, 84
14, 358800, Note_on_c, 11, 81, 84
14, 358851, Note_on_c, 11, 73, 0
14, 358851, Note_on_c, 11, 81, 0
14, 358860, Note_on_c, 11, 73, 84
14, 358860, Note_on_c, 11, 81, 84
14, 358911, Note_on_c, 11, 73, 0
14, 358911, Note_on_c, 11, 81, 0
14, 358920, Note_on_c, 11, 81, 84
14, 358920, Note_on_c, 11, 73, 84
14, 358971, Note_on_c, 11, 81, 0
14, 358971, Note_on_c, 11, 73, 0
14, 358980, Note_on_c, 11, 81, 84
14, 358980, Note_on_c, 11, 73, 84
14, 359031, Note_on_c, 11, 81, 0
14, 359031, Note_on_c, 11, 73, 0
14, 359040, Note_on_c, 11, 81, 84
14, 359040, Note_on_c, 11, 73, 84
14, 359091, Note_on_c, 11, 81, 0
14, 359091, Note_on_c, 11, 73, 0
14, 359100, Note_on_c, 11, 73, 84
14, 359100, Note_on_c, 11, 81, 84
14, 359151, Note_on_c, 11, 73, 0
14, 359151, Note_on_c, 11, 81, 0
14, 359160, Note_on_c, 11, 81, 84
14, 359160, Note_on_c, 11, 73, 84
14, 359211, Note_on_c, 11, 81, 0
14, 359211, Note_on_c, 11, 73, 0
14, 359220, Note_on_c, 11, 81, 84
14, 359220, Note_on_c, 11, 73, 84
14, 359271, Note_on_c, 11, 81, 0
14, 359271, Note_on_c, 11, 73, 0
14, 359280, Note_on_c, 11, 81, 84
14, 359280, Note_on_c, 11, 73, 84
14, 359331, Note_on_c, 11, 81, 0
14, 359331, Note_on_c, 11, 73, 0
14, 359340, Note_on_c, 11, 81, 84
14, 359340, Note_on_c, 11, 73, 84
14, 359391, Note_on_c, 11, 81, 0
14, 359391, Note_on_c, 11, 73, 0
14, 359400, Note_on_c, 11, 81, 84
14, 359400, Note_on_c, 11, 73, 84
14, 359451, Note_on_c, 11, 81, 0
14, 359451, Note_on_c, 11, 73, 0
14, 359460, Note_on_c, 11, 81, 84
14, 359460, Note_on_c, 11, 73, 84
14, 359511, Note_on_c, 11, 81, 0
14, 359511, Note_on_c, 11, 73, 0
14, 359520, Note_on_c, 11, 81, 84
14, 359520, Note_on_c, 11, 73, 84
14, 359571, Note_on_c, 11, 81, 0
14, 359571, Note_on_c, 11, 73, 0
14, 359580, Note_on_c, 11, 81, 84
14, 359580, Note_on_c, 11, 73, 84
14, 359631, Note_on_c, 11, 81, 0
14, 359631, Note_on_c, 11, 73, 0
14, 359640, Note_on_c, 11, 81, 84
14, 359640, Note_on_c, 11, 73, 84
14, 359691, Note_on_c, 11, 81, 0
14, 359691, Note_on_c, 11, 73, 0
14, 359700, Note_on_c, 11, 73, 84
14, 359700, Note_on_c, 11, 81, 84
14, 359751, Note_on_c, 11, 73, 0
14, 359751, Note_on_c, 11, 81, 0
14, 359760, Note_on_c, 11, 71, 84
14, 359760, Note_on_c, 11, 81, 84
14, 359811, Note_on_c, 11, 71, 0
14, 359811, Note_on_c, 11, 81, 0
14, 359820, Note_on_c, 11, 81, 84
14, 359820, Note_on_c, 11, 71, 84
14, 359871, Note_on_c, 11, 81, 0
14, 359871, Note_on_c, 11, 71, 0
14, 359880, Note_on_c, 11, 71, 84
14, 359880, Note_on_c, 11, 81, 84
14, 359931, Note_on_c, 11, 71, 0
14, 359931, Note_on_c, 11, 81, 0
14, 359940, Note_on_c, 11, 81, 84
14, 359940, Note_on_c, 11, 71, 84
14, 359991, Note_on_c, 11, 81, 0
14, 359991, Note_on_c, 11, 71, 0
14, 360000, Note_on_c, 11, 81, 84
14, 360000, Note_on_c, 11, 71, 84
14, 360051, Note_on_c, 11, 81, 0
14, 360051, Note_on_c, 11, 71, 0
14, 360060, Note_on_c, 11, 71, 84
14, 360060, Note_on_c, 11, 81, 84
14, 360111, Note_on_c, 11, 71, 0
14, 360111, Note_on_c, 11, 81, 0
14, 360120, Note_on_c, 11, 81, 84
14, 360120, Note_on_c, 11, 71, 84
14, 360171, Note_on_c, 11, 81, 0
14, 360171, Note_on_c, 11, 71, 0
14, 360180, Note_on_c, 11, 81, 84
14, 360180, Note_on_c, 11, 71, 84
14, 360231, Note_on_c, 11, 81, 0
14, 360231, Note_on_c, 11, 71, 0
14, 360240, Note_on_c, 11, 71, 84
14, 360240, Note_on_c, 11, 81, 84
14, 360291, Note_on_c, 11, 71, 0
14, 360291, Note_on_c, 11, 81, 0
14, 360300, Note_on_c, 11, 81, 84
14, 360300, Note_on_c, 11, 71, 84
14, 360351, Note_on_c, 11, 81, 0
14, 360351, Note_on_c, 11, 71, 0
14, 360360, Note_on_c, 11, 71, 84
14, 360360, Note_on_c, 11, 81, 84
14, 360411, Note_on_c, 11, 71, 0
14, 360411, Note_on_c, 11, 81, 0
14, 360420, Note_on_c, 11, 81, 84
14, 360420, Note_on_c, 11, 71, 84
14, 360471, Note_on_c, 11, 81, 0
14, 360471, Note_on_c, 11, 71, 0
14, 360480, Note_on_c, 11, 81, 84
14, 360480, Note_on_c, 11, 71, 84
14, 360531, Note_on_c, 11, 81, 0
14, 360531, Note_on_c, 11, 71, 0
14, 360540, Note_on_c, 11, 71, 84
14, 360540, Note_on_c, 11, 81, 84
14, 360591, Note_on_c, 11, 71, 0
14, 360591, Note_on_c, 11, 81, 0
14, 360600, Note_on_c, 11, 81, 84
14, 360600, Note_on_c, 11, 71, 84
14, 360651, Note_on_c, 11, 81, 0
14, 360651, Note_on_c, 11, 71, 0
14, 360660, Note_on_c, 11, 81, 84
14, 360660, Note_on_c, 11, 71, 84
14, 360711, Note_on_c, 11, 81, 0
14, 360711, Note_on_c, 11, 71, 0
14, 360720, Note_on_c, 11, 81, 84
14, 360720, Note_on_c, 11, 71, 84
14, 360771, Note_on_c, 11, 81, 0
14, 360771, Note_on_c, 11, 71, 0
14, 360780, Note_on_c, 11, 71, 84
14, 360780, Note_on_c, 11, 81, 84
14, 360831, Note_on_c, 11, 71, 0
14, 360831, Note_on_c, 11, 81, 0
14, 360840, Note_on_c, 11, 81, 84
14, 360840, Note_on_c, 11, 71, 84
14, 360891, Note_on_c, 11, 81, 0
14, 360891, Note_on_c, 11, 71, 0
14, 360900, Note_on_c, 11, 71, 84
14, 360900, Note_on_c, 11, 81, 84
14, 360951, Note_on_c, 11, 71, 0
14, 360951, Note_on_c, 11, 81, 0
14, 360960, Note_on_c, 11, 71, 84
14, 360960, Note_on_c, 11, 81, 84
14, 361011, Note_on_c, 11, 71, 0
14, 361011, Note_on_c, 11, 81, 0
14, 361020, Note_on_c, 11, 71, 84
14, 361020, Note_on_c, 11, 81, 84
14, 361071, Note_on_c, 11, 71, 0
14, 361071, Note_on_c, 11, 81, 0
14, 361080, Note_on_c, 11, 71, 84
14, 361080, Note_on_c, 11, 81, 84
14, 361131, Note_on_c, 11, 71, 0
14, 361131, Note_on_c, 11, 81, 0
14, 361140, Note_on_c, 11, 81, 84
14, 361140, Note_on_c, 11, 71, 84
14, 361199, Note_on_c, 11, 81, 0
14, 361199, Note_on_c, 11, 71, 0
14, 362040, Note_on_c, 11, 64, 50
14, 362091, Note_on_c, 11, 64, 0
14, 362100, Note_on_c, 11, 64, 54
14, 362151, Note_on_c, 11, 64, 0
14, 362160, Note_on_c, 11, 64, 57
14, 362211, Note_on_c, 11, 64, 0
14, 362220, Note_on_c, 11, 64, 60
14, 362271, Note_on_c, 11, 64, 0
14, 362280, Note_on_c, 11, 64, 64
14, 362331, Note_on_c, 11, 64, 0
14, 362340, Note_on_c, 11, 64, 67
14, 362391, Note_on_c, 11, 64, 0
14, 362400, Note_on_c, 11, 66, 70
14, 362451, Note_on_c, 11, 66, 0
14, 362460, Note_on_c, 11, 68, 74
14, 362511, Note_on_c, 11, 68, 0
14, 362520, Note_on_c, 11, 69, 77
14, 362571, Note_on_c, 11, 69, 0
14, 362580, Note_on_c, 11, 71, 80
14, 362631, Note_on_c, 11, 71, 0
14, 362640, Note_on_c, 11, 73, 84
14, 362691, Note_on_c, 11, 73, 0
14, 362700, Note_on_c, 11, 81, 84
14, 362700, Note_on_c, 11, 73, 84
14, 362751, Note_on_c, 11, 81, 0
14, 362751, Note_on_c, 11, 73, 0
14, 362760, Note_on_c, 11, 81, 84
14, 362760, Note_on_c, 11, 73, 84
14, 362811, Note_on_c, 11, 81, 0
14, 362811, Note_on_c, 11, 73, 0
14, 362820, Note_on_c, 11, 73, 84
14, 362820, Note_on_c, 11, 81, 84
14, 362871, Note_on_c, 11, 73, 0
14, 362871, Note_on_c, 11, 81, 0
14, 362880, Note_on_c, 11, 81, 84
14, 362880, Note_on_c, 11, 73, 84
14, 362931, Note_on_c, 11, 81, 0
14, 362931, Note_on_c, 11, 73, 0
14, 362940, Note_on_c, 11, 81, 84
14, 362940, Note_on_c, 11, 73, 84
14, 362991, Note_on_c, 11, 81, 0
14, 362991, Note_on_c, 11, 73, 0
14, 363000, Note_on_c, 11, 73, 84
14, 363000, Note_on_c, 11, 81, 84
14, 363051, Note_on_c, 11, 73, 0
14, 363051, Note_on_c, 11, 81, 0
14, 363060, Note_on_c, 11, 81, 84
14, 363060, Note_on_c, 11, 73, 84
14, 363111, Note_on_c, 11, 81, 0
14, 363111, Note_on_c, 11, 73, 0
14, 363120, Note_on_c, 11, 81, 84
14, 363120, Note_on_c, 11, 73, 84
14, 363171, Note_on_c, 11, 81, 0
14, 363171, Note_on_c, 11, 73, 0
14, 363180, Note_on_c, 11, 73, 84
14, 363180, Note_on_c, 11, 81, 84
14, 363231, Note_on_c, 11, 73, 0
14, 363231, Note_on_c, 11, 81, 0
14, 363240, Note_on_c, 11, 81, 84
14, 363240, Note_on_c, 11, 73, 84
14, 363291, Note_on_c, 11, 81, 0
14, 363291, Note_on_c, 11, 73, 0
14, 363300, Note_on_c, 11, 81, 84
14, 363300, Note_on_c, 11, 73, 84
14, 363351, Note_on_c, 11, 81, 0
14, 363351, Note_on_c, 11, 73, 0
14, 363360, Note_on_c, 11, 73, 84
14, 363360, Note_on_c, 11, 81, 84
14, 363411, Note_on_c, 11, 73, 0
14, 363411, Note_on_c, 11, 81, 0
14, 363420, Note_on_c, 11, 73, 84
14, 363420, Note_on_c, 11, 81, 84
14, 363471, Note_on_c, 11, 73, 0
14, 363471, Note_on_c, 11, 81, 0
14, 363480, Note_on_c, 11, 81, 84
14, 363480, Note_on_c, 11, 73, 84
14, 363531, Note_on_c, 11, 81, 0
14, 363531, Note_on_c, 11, 73, 0
14, 363540, Note_on_c, 11, 81, 84
14, 363540, Note_on_c, 11, 73, 84
14, 363591, Note_on_c, 11, 81, 0
14, 363591, Note_on_c, 11, 73, 0
14, 363600, Note_on_c, 11, 81, 84
14, 363600, Note_on_c, 11, 73, 84
14, 363651, Note_on_c, 11, 81, 0
14, 363651, Note_on_c, 11, 73, 0
14, 363660, Note_on_c, 11, 81, 84
14, 363660, Note_on_c, 11, 73, 84
14, 363711, Note_on_c, 11, 81, 0
14, 363711, Note_on_c, 11, 73, 0
14, 363720, Note_on_c, 11, 81, 84
14, 363720, Note_on_c, 11, 73, 84
14, 363771, Note_on_c, 11, 81, 0
14, 363771, Note_on_c, 11, 73, 0
14, 363780, Note_on_c, 11, 81, 84
14, 363780, Note_on_c, 11, 73, 84
14, 363831, Note_on_c, 11, 81, 0
14, 363831, Note_on_c, 11, 73, 0
14, 363840, Note_on_c, 11, 81, 84
14, 363840, Note_on_c, 11, 73, 84
14, 363891, Note_on_c, 11, 81, 0
14, 363891, Note_on_c, 11, 73, 0
14, 363900, Note_on_c, 11, 73, 84
14, 363900, Note_on_c, 11, 81, 84
14, 363951, Note_on_c, 11, 73, 0
14, 363951, Note_on_c, 11, 81, 0
14, 363960, Note_on_c, 11, 73, 84
14, 363960, Note_on_c, 11, 81, 84
14, 364011, Note_on_c, 11, 73, 0
14, 364011, Note_on_c, 11, 81, 0
14, 364020, Note_on_c, 11, 73, 84
14, 364020, Note_on_c, 11, 81, 84
14, 364071, Note_on_c, 11, 73, 0
14, 364071, Note_on_c, 11, 81, 0
14, 364080, Note_on_c, 11, 71, 84
14, 364080, Note_on_c, 11, 81, 84
14, 364131, Note_on_c, 11, 71, 0
14, 364131, Note_on_c, 11, 81, 0
14, 364140, Note_on_c, 11, 71, 84
14, 364140, Note_on_c, 11, 81, 84
14, 364191, Note_on_c, 11, 71, 0
14, 364191, Note_on_c, 11, 81, 0
14, 364200, Note_on_c, 11, 81, 84
14, 364200, Note_on_c, 11, 71, 84
14, 364251, Note_on_c, 11, 81, 0
14, 364251, Note_on_c, 11, 71, 0
14, 364260, Note_on_c, 11, 81, 84
14, 364260, Note_on_c, 11, 71, 84
14, 364311, Note_on_c, 11, 81, 0
14, 364311, Note_on_c, 11, 71, 0
14, 364320, Note_on_c, 11, 81, 84
14, 364320, Note_on_c, 11, 71, 84
14, 364371, Note_on_c, 11, 81, 0
14, 364371, Note_on_c, 11, 71, 0
14, 364380, Note_on_c, 11, 81, 84
14, 364380, Note_on_c, 11, 71, 84
14, 364431, Note_on_c, 11, 81, 0
14, 364431, Note_on_c, 11, 71, 0
14, 364440, Note_on_c, 11, 71, 84
14, 364440, Note_on_c, 11, 81, 84
14, 364491, Note_on_c, 11, 71, 0
14, 364491, Note_on_c, 11, 81, 0
14, 364500, Note_on_c, 11, 71, 84
14, 364500, Note_on_c, 11, 81, 84
14, 364551, Note_on_c, 11, 71, 0
14, 364551, Note_on_c, 11, 81, 0
14, 364560, Note_on_c, 11, 81, 84
14, 364560, Note_on_c, 11, 71, 84
14, 364611, Note_on_c, 11, 81, 0
14, 364611, Note_on_c, 11, 71, 0
14, 364620, Note_on_c, 11, 81, 84
14, 364620, Note_on_c, 11, 71, 84
14, 364671, Note_on_c, 11, 81, 0
14, 364671, Note_on_c, 11, 71, 0
14, 364680, Note_on_c, 11, 81, 84
14, 364680, Note_on_c, 11, 71, 84
14, 364731, Note_on_c, 11, 81, 0
14, 364731, Note_on_c, 11, 71, 0
14, 364740, Note_on_c, 11, 81, 84
14, 364740, Note_on_c, 11, 71, 84
14, 364791, Note_on_c, 11, 81, 0
14, 364791, Note_on_c, 11, 71, 0
14, 364800, Note_on_c, 11, 71, 84
14, 364800, Note_on_c, 11, 81, 84
14, 364851, Note_on_c, 11, 71, 0
14, 364851, Note_on_c, 11, 81, 0
14, 364860, Note_on_c, 11, 71, 84
14, 364860, Note_on_c, 11, 81, 84
14, 364911, Note_on_c, 11, 71, 0
14, 364911, Note_on_c, 11, 81, 0
14, 364920, Note_on_c, 11, 71, 84
14, 364920, Note_on_c, 11, 81, 84
14, 364971, Note_on_c, 11, 71, 0
14, 364971, Note_on_c, 11, 81, 0
14, 364980, Note_on_c, 11, 71, 84
14, 364980, Note_on_c, 11, 81, 84
14, 365031, Note_on_c, 11, 71, 0
14, 365031, Note_on_c, 11, 81, 0
14, 365040, Note_on_c, 11, 81, 84
14, 365040, Note_on_c, 11, 71, 84
14, 365091, Note_on_c, 11, 81, 0
14, 365091, Note_on_c, 11, 71, 0
14, 365100, Note_on_c, 11, 71, 84
14, 365100, Note_on_c, 11, 81, 84
14, 365151, Note_on_c, 11, 71, 0
14, 365151, Note_on_c, 11, 81, 0
14, 365160, Note_on_c, 11, 81, 84
14, 365160, Note_on_c, 11, 71, 84
14, 365211, Note_on_c, 11, 81, 0
14, 365211, Note_on_c, 11, 71, 0
14, 365220, Note_on_c, 11, 71, 84
14, 365220, Note_on_c, 11, 81, 84
14, 365271, Note_on_c, 11, 71, 0
14, 365271, Note_on_c, 11, 81, 0
14, 365280, Note_on_c, 11, 81, 84
14, 365280, Note_on_c, 11, 71, 84
14, 365331, Note_on_c, 11, 81, 0
14, 365331, Note_on_c, 11, 71, 0
14, 365340, Note_on_c, 11, 71, 84
14, 365340, Note_on_c, 11, 81, 84
14, 365391, Note_on_c, 11, 71, 0
14, 365391, Note_on_c, 11, 81, 0
14, 365400, Note_on_c, 11, 81, 84
14, 365400, Note_on_c, 11, 71, 84
14, 365451, Note_on_c, 11, 81, 0
14, 365451, Note_on_c, 11, 71, 0
14, 365460, Note_on_c, 11, 81, 84
14, 365460, Note_on_c, 11, 71, 84
14, 365511, Note_on_c, 11, 81, 0
14, 365511, Note_on_c, 11, 71, 0
14, 365518, Control_c, 11, 11, 48
14, 365520, Note_on_c, 11, 70, 84
14, 365879, Note_on_c, 11, 70, 0
14, 365880, Note_on_c, 11, 65, 84
14, 366239, Note_on_c, 11, 65, 0
14, 366240, Note_on_c, 11, 56, 84
14, 366280, Control_c, 11, 11, 52
14, 366320, Control_c, 11, 11, 57
14, 366360, Control_c, 11, 11, 61
14, 366400, Control_c, 11, 11, 66
14, 366440, Control_c, 11, 11, 70
14, 366480, Control_c, 11, 11, 74
14, 366520, Control_c, 11, 11, 79
14, 366560, Control_c, 11, 11, 83
14, 366584, Note_on_c, 11, 56, 0
14, 366600, Control_c, 11, 11, 88
14, 366600, Note_on_c, 11, 64, 84
14, 366640, Control_c, 11, 11, 92
14, 366680, Control_c, 11, 11, 96
14, 366720, Control_c, 11, 11, 101
14, 366760, Control_c, 11, 11, 105
14, 366800, Control_c, 11, 11, 109
14, 366839, Note_on_c, 11, 64, 0
14, 366840, Note_on_c, 11, 76, 84
14, 366840, Control_c, 11, 11, 114
14, 366880, Control_c, 11, 11, 118
14, 366920, Control_c, 11, 11, 123
14, 366944, Note_on_c, 11, 76, 0
14, 366958, Control_c, 11, 11, 127
14, 366960, Note_on_c, 11, 76, 84
14, 367064, Note_on_c, 11, 76, 0
14, 367080, Note_on_c, 11, 61, 84
14, 367080, Note_on_c, 11, 64, 84
14, 367131, Note_on_c, 11, 61, 0
14, 367131, Note_on_c, 11, 64, 0
14, 367140, Note_on_c, 11, 64, 84
14, 367140, Note_on_c, 11, 61, 84
14, 367191, Note_on_c, 11, 64, 0
14, 367191, Note_on_c, 11, 61, 0
14, 367200, Note_on_c, 11, 61, 84
14, 367200, Note_on_c, 11, 64, 84
14, 367251, Note_on_c, 11, 61, 0
14, 367251, Note_on_c, 11, 64, 0
14, 367260, Note_on_c, 11, 61, 84
14, 367260, Note_on_c, 11, 64, 84
14, 367311, Note_on_c, 11, 61, 0
14, 367311, Note_on_c, 11, 64, 0
14, 367320, Note_on_c, 11, 61, 84
14, 367320, Note_on_c, 11, 64, 84
14, 367424, Note_on_c, 11, 61, 0
14, 367424, Note_on_c, 11, 64, 0
14, 367440, Note_on_c, 11, 64, 84
14, 367440, Note_on_c, 11, 61, 84
14, 367491, Note_on_c, 11, 64, 0
14, 367491, Note_on_c, 11, 61, 0
14, 367500, Note_on_c, 11, 61, 84
14, 367500, Note_on_c, 11, 64, 84
14, 367551, Note_on_c, 11, 61, 0
14, 367551, Note_on_c, 11, 64, 0
14, 367560, Note_on_c, 11, 61, 84
14, 367560, Note_on_c, 11, 64, 84
14, 367611, Note_on_c, 11, 61, 0
14, 367611, Note_on_c, 11, 64, 0
14, 367620, Note_on_c, 11, 64, 84
14, 367620, Note_on_c, 11, 61, 84
14, 367671, Note_on_c, 11, 64, 0
14, 367671, Note_on_c, 11, 61, 0
14, 367680, Note_on_c, 11, 64, 84
14, 367680, Note_on_c, 11, 62, 84
14, 367784, Note_on_c, 11, 64, 0
14, 367784, Note_on_c, 11, 62, 0
14, 367800, Note_on_c, 11, 64, 84
14, 367800, Note_on_c, 11, 62, 84
14, 367851, Note_on_c, 11, 64, 0
14, 367851, Note_on_c, 11, 62, 0
14, 367860, Note_on_c, 11, 64, 84
14, 367860, Note_on_c, 11, 62, 84
14, 367911, Note_on_c, 11, 64, 0
14, 367911, Note_on_c, 11, 62, 0
14, 367920, Note_on_c, 11, 62, 84
14, 367920, Note_on_c, 11, 64, 84
14, 367971, Note_on_c, 11, 62, 0
14, 367971, Note_on_c, 11, 64, 0
14, 367980, Note_on_c, 11, 62, 84
14, 367980, Note_on_c, 11, 64, 84
14, 368031, Note_on_c, 11, 62, 0
14, 368031, Note_on_c, 11, 64, 0
14, 368040, Note_on_c, 11, 64, 84
14, 368040, Note_on_c, 11, 62, 84
14, 368144, Note_on_c, 11, 64, 0
14, 368144, Note_on_c, 11, 62, 0
14, 368160, Note_on_c, 11, 64, 84
14, 368160, Note_on_c, 11, 62, 84
14, 368211, Note_on_c, 11, 64, 0
14, 368211, Note_on_c, 11, 62, 0
14, 368220, Note_on_c, 11, 62, 84
14, 368220, Note_on_c, 11, 64, 84
14, 368271, Note_on_c, 11, 62, 0
14, 368271, Note_on_c, 11, 64, 0
14, 368280, Note_on_c, 11, 64, 84
14, 368280, Note_on_c, 11, 62, 84
14, 368331, Note_on_c, 11, 64, 0
14, 368331, Note_on_c, 11, 62, 0
14, 368340, Note_on_c, 11, 64, 84
14, 368340, Note_on_c, 11, 62, 84
14, 368391, Note_on_c, 11, 64, 0
14, 368391, Note_on_c, 11, 62, 0
14, 368400, Note_on_c, 11, 64, 84
14, 368400, Note_on_c, 11, 61, 84
14, 368504, Note_on_c, 11, 64, 0
14, 368504, Note_on_c, 11, 61, 0
14, 368520, Note_on_c, 11, 61, 84
14, 368520, Note_on_c, 11, 64, 84
14, 368571, Note_on_c, 11, 61, 0
14, 368571, Note_on_c, 11, 64, 0
14, 368580, Note_on_c, 11, 61, 84
14, 368580, Note_on_c, 11, 64, 84
14, 368631, Note_on_c, 11, 61, 0
14, 368631, Note_on_c, 11, 64, 0
14, 368640, Note_on_c, 11, 61, 84
14, 368640, Note_on_c, 11, 64, 84
14, 368691, Note_on_c, 11, 61, 0
14, 368691, Note_on_c, 11, 64, 0
14, 368700, Note_on_c, 11, 61, 84
14, 368700, Note_on_c, 11, 64, 84
14, 368751, Note_on_c, 11, 61, 0
14, 368751, Note_on_c, 11, 64, 0
14, 368760, Note_on_c, 11, 64, 84
14, 368760, Note_on_c, 11, 61, 84
14, 368864, Note_on_c, 11, 64, 0
14, 368864, Note_on_c, 11, 61, 0
14, 368880, Note_on_c, 11, 64, 84
14, 368880, Note_on_c, 11, 61, 84
14, 368931, Note_on_c, 11, 64, 0
14, 368931, Note_on_c, 11, 61, 0
14, 368940, Note_on_c, 11, 61, 84
14, 368940, Note_on_c, 11, 64, 84
14, 368991, Note_on_c, 11, 61, 0
14, 368991, Note_on_c, 11, 64, 0
14, 369000, Note_on_c, 11, 64, 84
14, 369000, Note_on_c, 11, 61, 84
14, 369051, Note_on_c, 11, 64, 0
14, 369051, Note_on_c, 11, 61, 0
14, 369060, Note_on_c, 11, 64, 84
14, 369060, Note_on_c, 11, 61, 84
14, 369111, Note_on_c, 11, 64, 0
14, 369111, Note_on_c, 11, 61, 0
14, 369120, Note_on_c, 11, 62, 84
14, 369120, Note_on_c, 11, 64, 84
14, 369224, Note_on_c, 11, 62, 0
14, 369224, Note_on_c, 11, 64, 0
14, 369240, Note_on_c, 11, 62, 84
14, 369240, Note_on_c, 11, 64, 84
14, 369291, Note_on_c, 11, 62, 0
14, 369291, Note_on_c, 11, 64, 0
14, 369300, Note_on_c, 11, 64, 84
14, 369300, Note_on_c, 11, 62, 84
14, 369351, Note_on_c, 11, 64, 0
14, 369351, Note_on_c, 11, 62, 0
14, 369360, Note_on_c, 11, 62, 84
14, 369360, Note_on_c, 11, 64, 84
14, 369411, Note_on_c, 11, 62, 0
14, 369411, Note_on_c, 11, 64, 0
14, 369420, Note_on_c, 11, 64, 84
14, 369420, Note_on_c, 11, 62, 84
14, 369471, Note_on_c, 11, 64, 0
14, 369471, Note_on_c, 11, 62, 0
14, 369480, Note_on_c, 11, 62, 84
14, 369480, Note_on_c, 11, 64, 84
14, 369584, Note_on_c, 11, 62, 0
14, 369584, Note_on_c, 11, 64, 0
14, 369600, Note_on_c, 11, 64, 84
14, 369600, Note_on_c, 11, 62, 84
14, 369651, Note_on_c, 11, 64, 0
14, 369651, Note_on_c, 11, 62, 0
14, 369660, Note_on_c, 11, 62, 84
14, 369660, Note_on_c, 11, 64, 84
14, 369711, Note_on_c, 11, 62, 0
14, 369711, Note_on_c, 11, 64, 0
14, 369720, Note_on_c, 11, 64, 84
14, 369720, Note_on_c, 11, 62, 84
14, 369771, Note_on_c, 11, 64, 0
14, 369771, Note_on_c, 11, 62, 0
14, 369780, Note_on_c, 11, 64, 84
14, 369780, Note_on_c, 11, 62, 84
14, 369831, Note_on_c, 11, 64, 0
14, 369831, Note_on_c, 11, 62, 0
14, 369840, Note_on_c, 11, 64, 84
14, 369840, Note_on_c, 11, 61, 84
14, 369944, Note_on_c, 11, 64, 0
14, 369944, Note_on_c, 11, 61, 0
14, 369960, Note_on_c, 11, 61, 84
14, 369960, Note_on_c, 11, 64, 84
14, 370011, Note_on_c, 11, 61, 0
14, 370011, Note_on_c, 11, 64, 0
14, 370020, Note_on_c, 11, 61, 84
14, 370020, Note_on_c, 11, 64, 84
14, 370071, Note_on_c, 11, 61, 0
14, 370071, Note_on_c, 11, 64, 0
14, 370080, Note_on_c, 11, 64, 84
14, 370080, Note_on_c, 11, 61, 84
14, 370131, Note_on_c, 11, 64, 0
14, 370131, Note_on_c, 11, 61, 0
14, 370140, Note_on_c, 11, 61, 84
14, 370140, Note_on_c, 11, 64, 84
14, 370191, Note_on_c, 11, 61, 0
14, 370191, Note_on_c, 11, 64, 0
14, 370200, Note_on_c, 11, 62, 84
14, 370200, Note_on_c, 11, 64, 84
14, 370304, Note_on_c, 11, 62, 0
14, 370304, Note_on_c, 11, 64, 0
14, 370320, Note_on_c, 11, 64, 84
14, 370320, Note_on_c, 11, 62, 84
14, 370371, Note_on_c, 11, 64, 0
14, 370371, Note_on_c, 11, 62, 0
14, 370380, Note_on_c, 11, 62, 84
14, 370380, Note_on_c, 11, 64, 84
14, 370431, Note_on_c, 11, 62, 0
14, 370431, Note_on_c, 11, 64, 0
14, 370440, Note_on_c, 11, 62, 84
14, 370440, Note_on_c, 11, 64, 84
14, 370491, Note_on_c, 11, 62, 0
14, 370491, Note_on_c, 11, 64, 0
14, 370500, Note_on_c, 11, 62, 84
14, 370500, Note_on_c, 11, 64, 84
14, 370551, Note_on_c, 11, 62, 0
14, 370551, Note_on_c, 11, 64, 0
14, 370560, Note_on_c, 11, 64, 84
14, 370560, Note_on_c, 11, 61, 84
14, 370664, Note_on_c, 11, 64, 0
14, 370664, Note_on_c, 11, 61, 0
14, 370680, Note_on_c, 11, 61, 84
14, 370680, Note_on_c, 11, 64, 84
14, 370731, Note_on_c, 11, 61, 0
14, 370731, Note_on_c, 11, 64, 0
14, 370740, Note_on_c, 11, 64, 84
14, 370740, Note_on_c, 11, 61, 84
14, 370791, Note_on_c, 11, 64, 0
14, 370791, Note_on_c, 11, 61, 0
14, 370800, Note_on_c, 11, 61, 84
14, 370800, Note_on_c, 11, 64, 84
14, 370851, Note_on_c, 11, 61, 0
14, 370851, Note_on_c, 11, 64, 0
14, 370860, Note_on_c, 11, 61, 84
14, 370860, Note_on_c, 11, 64, 84
14, 370911, Note_on_c, 11, 61, 0
14, 370911, Note_on_c, 11, 64, 0
14, 370920, Note_on_c, 11, 64, 84
14, 370920, Note_on_c, 11, 62, 84
14, 371024, Note_on_c, 11, 64, 0
14, 371024, Note_on_c, 11, 62, 0
14, 371040, Note_on_c, 11, 64, 84
14, 371040, Note_on_c, 11, 62, 84
14, 371091, Note_on_c, 11, 64, 0
14, 371091, Note_on_c, 11, 62, 0
14, 371100, Note_on_c, 11, 62, 84
14, 371100, Note_on_c, 11, 64, 84
14, 371151, Note_on_c, 11, 62, 0
14, 371151, Note_on_c, 11, 64, 0
14, 371160, Note_on_c, 11, 64, 84
14, 371160, Note_on_c, 11, 62, 84
14, 371211, Note_on_c, 11, 64, 0
14, 371211, Note_on_c, 11, 62, 0
14, 371220, Note_on_c, 11, 64, 84
14, 371220, Note_on_c, 11, 62, 84
14, 371271, Note_on_c, 11, 64, 0
14, 371271, Note_on_c, 11, 62, 0
14, 371280, Note_on_c, 11, 61, 84
14, 371280, Note_on_c, 11, 64, 84
14, 371384, Note_on_c, 11, 61, 0
14, 371384, Note_on_c, 11, 64, 0
14, 371400, Note_on_c, 11, 61, 84
14, 371400, Note_on_c, 11, 64, 84
14, 371451, Note_on_c, 11, 61, 0
14, 371451, Note_on_c, 11, 64, 0
14, 371460, Note_on_c, 11, 64, 84
14, 371460, Note_on_c, 11, 61, 84
14, 371511, Note_on_c, 11, 64, 0
14, 371511, Note_on_c, 11, 61, 0
14, 371520, Note_on_c, 11, 61, 84
14, 371520, Note_on_c, 11, 64, 84
14, 371571, Note_on_c, 11, 61, 0
14, 371571, Note_on_c, 11, 64, 0
14, 371580, Note_on_c, 11, 64, 84
14, 371580, Note_on_c, 11, 61, 84
14, 371631, Note_on_c, 11, 64, 0
14, 371631, Note_on_c, 11, 61, 0
14, 371640, Note_on_c, 11, 62, 84
14, 371640, Note_on_c, 11, 64, 84
14, 371744, Note_on_c, 11, 62, 0
14, 371744, Note_on_c, 11, 64, 0
14, 371760, Note_on_c, 11, 64, 84
14, 371760, Note_on_c, 11, 62, 84
14, 371811, Note_on_c, 11, 64, 0
14, 371811, Note_on_c, 11, 62, 0
14, 371820, Note_on_c, 11, 64, 84
14, 371820, Note_on_c, 11, 62, 84
14, 371871, Note_on_c, 11, 64, 0
14, 371871, Note_on_c, 11, 62, 0
14, 371880, Note_on_c, 11, 64, 84
14, 371880, Note_on_c, 11, 62, 84
14, 371931, Note_on_c, 11, 64, 0
14, 371931, Note_on_c, 11, 62, 0
14, 371940, Note_on_c, 11, 62, 84
14, 371940, Note_on_c, 11, 64, 84
14, 371961, Note_on_c, 11, 62, 0
14, 371961, Note_on_c, 11, 64, 0
14, 371970, Note_on_c, 11, 68, 84
14, 371999, Note_on_c, 11, 68, 0
14, 372000, Note_on_c, 11, 69, 84
14, 372239, Note_on_c, 11, 69, 0
14, 372330, Note_on_c, 11, 69, 84
14, 372359, Note_on_c, 11, 69, 0
14, 372360, Note_on_c, 11, 71, 84
14, 372599, Note_on_c, 11, 71, 0
14, 372690, Note_on_c, 11, 71, 84
14, 372719, Note_on_c, 11, 71, 0
14, 372720, Note_on_c, 11, 73, 84
14, 372959, Note_on_c, 11, 73, 0
14, 373050, Note_on_c, 11, 73, 84
14, 373079, Note_on_c, 11, 73, 0
14, 373080, Note_on_c, 11, 74, 84
14, 373319, Note_on_c, 11, 74, 0
14, 373410, Note_on_c, 11, 74, 84
14, 373439, Note_on_c, 11, 74, 0
14, 373440, Note_on_c, 11, 76, 84
14, 373679, Note_on_c, 11, 76, 0
14, 373770, Note_on_c, 11, 76, 84
14, 373799, Note_on_c, 11, 76, 0
14, 373800, Note_on_c, 11, 78, 84
14, 374039, Note_on_c, 11, 78, 0
14, 374130, Note_on_c, 11, 78, 84
14, 374159, Note_on_c, 11, 78, 0
14, 374160, Note_on_c, 11, 80, 84
14, 374399, Note_on_c, 11, 80, 0
14, 374490, Note_on_c, 11, 80, 84
14, 374519, Note_on_c, 11, 80, 0
14, 374520, Note_on_c, 11, 81, 84
14, 374759, Note_on_c, 11, 81, 0
14, 376290, Note_on_c, 11, 67, 52
14, 376319, Note_on_c, 11, 67, 0
14, 376320, Note_on_c, 11, 68, 52
14, 376559, Note_on_c, 11, 68, 0
14, 379200, Note_on_c, 11, 63, 44
14, 379739, Note_on_c, 11, 63, 0
14, 379740, Note_on_c, 11, 61, 44
14, 379799, Note_on_c, 11, 61, 0
14, 379800, Note_on_c, 11, 60, 44
14, 379919, Note_on_c, 11, 60, 0
14, 380640, Note_on_c, 11, 64, 44
14, 381179, Note_on_c, 11, 64, 0
14, 381180, Note_on_c, 11, 62, 44
14, 381239, Note_on_c, 11, 62, 0
14, 381240, Note_on_c, 11, 60, 44
14, 381359, Note_on_c, 11, 60, 0
14, 382080, Note_on_c, 11, 69, 44
14, 382619, Note_on_c, 11, 69, 0
14, 382620, Note_on_c, 11, 67, 44
14, 382679, Note_on_c, 11, 67, 0
14, 382680, Note_on_c, 11, 65, 44
14, 382799, Note_on_c, 11, 65, 0
14, 384240, Control_c, 11, 11, 96
14, 384840, Note_on_c, 11, 64, 60
14, 384944, Note_on_c, 11, 64, 0
14, 384960, Note_on_c, 11, 64, 60
14, 385679, Note_on_c, 11, 64, 0
14, 385680, Note_on_c, 11, 64, 60
14, 386039, Note_on_c, 11, 64, 0
14, 386040, Note_on_c, 11, 69, 60
14, 386279, Note_on_c, 11, 69, 0
14, 386280, Note_on_c, 11, 64, 60
14, 386384, Note_on_c, 11, 64, 0
14, 386400, Note_on_c, 11, 64, 60
14, 387119, Note_on_c, 11, 64, 0
14, 387120, Note_on_c, 11, 64, 60
14, 387120, Control_c, 11, 11, 96
14, 387160, Control_c, 11, 11, 99
14, 387200, Control_c, 11, 11, 103
14, 387240, Control_c, 11, 11, 106
14, 387280, Control_c, 11, 11, 110
14, 387320, Control_c, 11, 11, 113
14, 387360, Control_c, 11, 11, 117
14, 387400, Control_c, 11, 11, 120
14, 387440, Control_c, 11, 11, 127
14, 387479, Note_on_c, 11, 64, 0
14, 387480, Control_c, 11, 11, 127
14, 387480, Note_on_c, 11, 73, 60
14, 387520, Control_c, 11, 11, 124
14, 387560, Control_c, 11, 11, 120
14, 387600, Control_c, 11, 11, 117
14, 387640, Control_c, 11, 11, 113
14, 387680, Control_c, 11, 11, 110
14, 387719, Note_on_c, 11, 73, 0
14, 387720, Note_on_c, 11, 69, 60
14, 387720, Control_c, 11, 11, 106
14, 387760, Control_c, 11, 11, 103
14, 387800, Control_c, 11, 11, 96
14, 387824, Note_on_c, 11, 69, 0
14, 387840, Note_on_c, 11, 64, 60
14, 388559, Note_on_c, 11, 64, 0
14, 388560, Note_on_c, 11, 64, 60
14, 388799, Note_on_c, 11, 64, 0
14, 388800, Note_on_c, 11, 69, 60
14, 388904, Note_on_c, 11, 69, 0
14, 388920, Note_on_c, 11, 69, 60
14, 389159, Note_on_c, 11, 69, 0
14, 389160, Note_on_c, 11, 64, 60
14, 389264, Note_on_c, 11, 64, 0
14, 389280, Note_on_c, 11, 64, 60
14, 389999, Note_on_c, 11, 64, 0
14, 390000, Note_on_c, 11, 64, 60
14, 390040, Control_c, 11, 11, 99
14, 390080, Control_c, 11, 11, 103
14, 390120, Control_c, 11, 11, 106
14, 390160, Control_c, 11, 11, 110
14, 390200, Control_c, 11, 11, 113
14, 390239, Note_on_c, 11, 64, 0
14, 390240, Note_on_c, 11, 73, 60
14, 390240, Control_c, 11, 11, 117
14, 390280, Control_c, 11, 11, 120
14, 390320, Control_c, 11, 11, 127
14, 390344, Note_on_c, 11, 73, 0
14, 390360, Note_on_c, 11, 73, 60
14, 390360, Control_c, 11, 11, 127
14, 390400, Control_c, 11, 11, 124
14, 390440, Control_c, 11, 11, 120
14, 390479, Note_on_c, 11, 73, 0
14, 390480, Note_on_c, 11, 71, 60
14, 390480, Control_c, 11, 11, 117
14, 390520, Control_c, 11, 11, 113
14, 390560, Control_c, 11, 11, 110
14, 390584, Note_on_c, 11, 71, 0
14, 390600, Control_c, 11, 11, 106
14, 390600, Note_on_c, 11, 69, 60
14, 390640, Control_c, 11, 11, 103
14, 390680, Control_c, 11, 11, 96
14, 390689, Note_on_c, 11, 69, 0
14, 390720, Control_c, 11, 11, 80
14, 390904, Control_c, 11, 11, 81
14, 390960, Note_on_c, 11, 64, 68
14, 391049, Note_on_c, 11, 64, 0
14, 391080, Note_on_c, 11, 64, 68
14, 391088, Control_c, 11, 11, 82
14, 391271, Control_c, 11, 11, 83
14, 391455, Control_c, 11, 11, 84
14, 391639, Control_c, 11, 11, 85
14, 391664, Note_on_c, 11, 64, 0
14, 391680, Note_on_c, 11, 69, 68
14, 391769, Note_on_c, 11, 69, 0
14, 391800, Note_on_c, 11, 64, 68
14, 391823, Control_c, 11, 11, 86
14, 392007, Control_c, 11, 11, 87
14, 392159, Note_on_c, 11, 64, 0
14, 392191, Control_c, 11, 11, 88
14, 392374, Control_c, 11, 11, 89
14, 392400, Note_on_c, 11, 64, 68
14, 392489, Note_on_c, 11, 64, 0
14, 392520, Note_on_c, 11, 64, 68
14, 392558, Control_c, 11, 11, 90
14, 392742, Control_c, 11, 11, 91
14, 392926, Control_c, 11, 11, 92
14, 393104, Note_on_c, 11, 64, 0
14, 393110, Control_c, 11, 11, 93
14, 393120, Note_on_c, 11, 73, 68
14, 393209, Note_on_c, 11, 73, 0
14, 393240, Note_on_c, 11, 69, 68
14, 393294, Control_c, 11, 11, 94
14, 393477, Control_c, 11, 11, 95
14, 393584, Note_on_c, 11, 69, 0
14, 393600, Note_on_c, 11, 64, 68
14, 393661, Control_c, 11, 11, 96
14, 393809, Note_on_c, 11, 64, 0
14, 393840, Note_on_c, 11, 64, 68
14, 393845, Control_c, 11, 11, 97
14, 393944, Note_on_c, 11, 64, 0
14, 393960, Note_on_c, 11, 64, 68
14, 394029, Control_c, 11, 11, 98
14, 394169, Note_on_c, 11, 64, 0
14, 394200, Note_on_c, 11, 64, 68
14, 394213, Control_c, 11, 11, 99
14, 394289, Note_on_c, 11, 64, 0
14, 394320, Note_on_c, 11, 64, 68
14, 394397, Control_c, 11, 11, 100
14, 394529, Note_on_c, 11, 64, 0
14, 394560, Note_on_c, 11, 69, 68
14, 394580, Control_c, 11, 11, 101
14, 394664, Note_on_c, 11, 69, 0
14, 394680, Note_on_c, 11, 64, 68
14, 394764, Control_c, 11, 11, 102
14, 394889, Note_on_c, 11, 64, 0
14, 394920, Note_on_c, 11, 64, 68
14, 394948, Control_c, 11, 11, 103
14, 395009, Note_on_c, 11, 64, 0
14, 395040, Note_on_c, 11, 64, 68
14, 395132, Control_c, 11, 11, 104
14, 395249, Note_on_c, 11, 64, 0
14, 395280, Note_on_c, 11, 64, 68
14, 395316, Control_c, 11, 11, 105
14, 395384, Note_on_c, 11, 64, 0
14, 395400, Note_on_c, 11, 64, 68
14, 395500, Control_c, 11, 11, 106
14, 395609, Note_on_c, 11, 64, 0
14, 395640, Note_on_c, 11, 64, 68
14, 395683, Control_c, 11, 11, 107
14, 395729, Note_on_c, 11, 64, 0
14, 395760, Note_on_c, 11, 64, 68
14, 395867, Control_c, 11, 11, 108
14, 395969, Note_on_c, 11, 64, 0
14, 396000, Note_on_c, 11, 73, 68
14, 396051, Control_c, 11, 11, 109
14, 396104, Note_on_c, 11, 73, 0
14, 396120, Note_on_c, 11, 69, 68
14, 396235, Control_c, 11, 11, 110
14, 396329, Note_on_c, 11, 69, 0
14, 396360, Note_on_c, 11, 69, 68
14, 396419, Control_c, 11, 11, 111
14, 396449, Note_on_c, 11, 69, 0
14, 396480, Note_on_c, 11, 64, 68
14, 396584, Note_on_c, 11, 64, 0
14, 396600, Note_on_c, 11, 64, 68
14, 396603, Control_c, 11, 11, 112
14, 396704, Note_on_c, 11, 64, 0
14, 396720, Note_on_c, 11, 64, 68
14, 396786, Control_c, 11, 11, 113
14, 396824, Note_on_c, 11, 64, 0
14, 396840, Note_on_c, 11, 64, 68
14, 396944, Note_on_c, 11, 64, 0
14, 396960, Note_on_c, 11, 64, 68
14, 396970, Control_c, 11, 11, 114
14, 397064, Note_on_c, 11, 64, 0
14, 397080, Note_on_c, 11, 64, 68
14, 397154, Control_c, 11, 11, 115
14, 397184, Note_on_c, 11, 64, 0
14, 397200, Note_on_c, 11, 64, 68
14, 397304, Note_on_c, 11, 64, 0
14, 397320, Note_on_c, 11, 69, 68
14, 397338, Control_c, 11, 11, 116
14, 397424, Note_on_c, 11, 69, 0
14, 397440, Note_on_c, 11, 69, 68
14, 397522, Control_c, 11, 11, 117
14, 397544, Note_on_c, 11, 69, 0
14, 397560, Note_on_c, 11, 69, 68
14, 397664, Note_on_c, 11, 69, 0
14, 397680, Note_on_c, 11, 64, 68
14, 397706, Control_c, 11, 11, 118
14, 397784, Note_on_c, 11, 64, 0
14, 397800, Note_on_c, 11, 64, 68
14, 397889, Control_c, 11, 11, 119
14, 397904, Note_on_c, 11, 64, 0
14, 397920, Note_on_c, 11, 64, 68
14, 398024, Note_on_c, 11, 64, 0
14, 398040, Note_on_c, 11, 64, 68
14, 398073, Control_c, 11, 11, 120
14, 398144, Note_on_c, 11, 64, 0
14, 398160, Note_on_c, 11, 64, 68
14, 398257, Control_c, 11, 11, 121
14, 398264, Note_on_c, 11, 64, 0
14, 398280, Note_on_c, 11, 64, 68
14, 398384, Note_on_c, 11, 64, 0
14, 398400, Note_on_c, 11, 64, 68
14, 398441, Control_c, 11, 11, 122
14, 398504, Note_on_c, 11, 64, 0
14, 398520, Note_on_c, 11, 64, 68
14, 398624, Note_on_c, 11, 64, 0
14, 398625, Control_c, 11, 11, 123
14, 398640, Note_on_c, 11, 64, 68
14, 398744, Note_on_c, 11, 64, 0
14, 398760, Note_on_c, 11, 73, 68
14, 398809, Control_c, 11, 11, 124
14, 398864, Note_on_c, 11, 73, 0
14, 398880, Note_on_c, 11, 73, 68
14, 398984, Note_on_c, 11, 73, 0
14, 398992, Control_c, 11, 11, 125
14, 399000, Note_on_c, 11, 73, 68
14, 399104, Note_on_c, 11, 73, 0
14, 399120, Note_on_c, 11, 69, 68
14, 399176, Control_c, 11, 11, 127
14, 399224, Note_on_c, 11, 69, 0
14, 399240, Note_on_c, 11, 69, 68
14, 399344, Note_on_c, 11, 69, 0
14, 399360, Note_on_c, 11, 64, 68
14, 399411, Note_on_c, 11, 64, 0
14, 399420, Note_on_c, 11, 64, 68
14, 399471, Note_on_c, 11, 64, 0
14, 399480, Note_on_c, 11, 64, 69
14, 399531, Note_on_c, 11, 64, 0
14, 399540, Note_on_c, 11, 64, 70
14, 399591, Note_on_c, 11, 64, 0
14, 399600, Note_on_c, 11, 64, 70
14, 399651, Note_on_c, 11, 64, 0
14, 399660, Note_on_c, 11, 64, 71
14, 399711, Note_on_c, 11, 64, 0
14, 399720, Note_on_c, 11, 64, 72
14, 399771, Note_on_c, 11, 64, 0
14, 399780, Note_on_c, 11, 76, 72
14, 399831, Note_on_c, 11, 76, 0
14, 399840, Note_on_c, 11, 76, 73
14, 399891, Note_on_c, 11, 76, 0
14, 399900, Note_on_c, 11, 76, 74
14, 399951, Note_on_c, 11, 76, 0
14, 399960, Note_on_c, 11, 76, 74
14, 400011, Note_on_c, 11, 76, 0
14, 400020, Note_on_c, 11, 76, 75
14, 400071, Note_on_c, 11, 76, 0
14, 400080, Note_on_c, 11, 76, 76
14, 400131, Note_on_c, 11, 76, 0
14, 400140, Note_on_c, 11, 76, 76
14, 400191, Note_on_c, 11, 76, 0
14, 400200, Note_on_c, 11, 76, 77
14, 400251, Note_on_c, 11, 76, 0
14, 400260, Note_on_c, 11, 76, 78
14, 400311, Note_on_c, 11, 76, 0
14, 400320, Note_on_c, 11, 76, 78
14, 400371, Note_on_c, 11, 76, 0
14, 400380, Note_on_c, 11, 76, 79
14, 400431, Note_on_c, 11, 76, 0
14, 400440, Note_on_c, 11, 76, 80
14, 400491, Note_on_c, 11, 76, 0
14, 400500, Note_on_c, 11, 76, 80
14, 400551, Note_on_c, 11, 76, 0
14, 400560, Note_on_c, 11, 76, 81
14, 400611, Note_on_c, 11, 76, 0
14, 400620, Note_on_c, 11, 76, 82
14, 400671, Note_on_c, 11, 76, 0
14, 400680, Note_on_c, 11, 76, 82
14, 400731, Note_on_c, 11, 76, 0
14, 400740, Note_on_c, 11, 76, 83
14, 400791, Note_on_c, 11, 76, 0
14, 400800, Note_on_c, 11, 76, 84
14, 400971, Note_on_c, 11, 76, 0
14, 400980, Note_on_c, 11, 64, 84
14, 401031, Note_on_c, 11, 64, 0
14, 401040, Note_on_c, 11, 64, 84
14, 401144, Note_on_c, 11, 64, 0
14, 401160, Note_on_c, 11, 69, 84
14, 401331, Note_on_c, 11, 69, 0
14, 401340, Note_on_c, 11, 69, 84
14, 401391, Note_on_c, 11, 69, 0
14, 401400, Note_on_c, 11, 69, 84
14, 401504, Note_on_c, 11, 69, 0
14, 401520, Note_on_c, 11, 73, 84
14, 401691, Note_on_c, 11, 73, 0
14, 401700, Note_on_c, 11, 73, 84
14, 401751, Note_on_c, 11, 73, 0
14, 401760, Note_on_c, 11, 73, 84
14, 401864, Note_on_c, 11, 73, 0
14, 401880, Note_on_c, 11, 76, 84
14, 402051, Note_on_c, 11, 76, 0
14, 402060, Note_on_c, 11, 76, 84
14, 402111, Note_on_c, 11, 76, 0
14, 402120, Note_on_c, 11, 76, 84
14, 402224, Note_on_c, 11, 76, 0
14, 402240, Note_on_c, 11, 66, 84
14, 402411, Note_on_c, 11, 66, 0
14, 402420, Note_on_c, 11, 66, 84
14, 402471, Note_on_c, 11, 66, 0
14, 402480, Note_on_c, 11, 66, 84
14, 402584, Note_on_c, 11, 66, 0
14, 402600, Note_on_c, 11, 69, 84
14, 402771, Note_on_c, 11, 69, 0
14, 402780, Note_on_c, 11, 69, 84
14, 402831, Note_on_c, 11, 69, 0
14, 402840, Note_on_c, 11, 69, 84
14, 402944, Note_on_c, 11, 69, 0
14, 402960, Note_on_c, 11, 74, 84
14, 403131, Note_on_c, 11, 74, 0
14, 403140, Note_on_c, 11, 74, 84
14, 403191, Note_on_c, 11, 74, 0
14, 403200, Note_on_c, 11, 74, 84
14, 403304, Note_on_c, 11, 74, 0
14, 403320, Note_on_c, 11, 78, 84
14, 403491, Note_on_c, 11, 78, 0
14, 403500, Note_on_c, 11, 78, 84
14, 403551, Note_on_c, 11, 78, 0
14, 403560, Note_on_c, 11, 78, 84
14, 403664, Note_on_c, 11, 78, 0
14, 403680, Note_on_c, 11, 76, 84
14, 403851, Note_on_c, 11, 76, 0
14, 403860, Note_on_c, 11, 81, 84
14, 403904, Note_on_c, 11, 81, 0
14, 403920, Note_on_c, 11, 76, 84
14, 404024, Note_on_c, 11, 76, 0
14, 404040, Note_on_c, 11, 76, 84
14, 404571, Note_on_c, 11, 76, 0
14, 404580, Note_on_c, 11, 76, 84
14, 404624, Note_on_c, 11, 76, 0
14, 404640, Note_on_c, 11, 73, 84
14, 404744, Note_on_c, 11, 73, 0
14, 404760, Note_on_c, 11, 73, 84
14, 405291, Note_on_c, 11, 73, 0
14, 405300, Note_on_c, 11, 73, 84
14, 405351, Note_on_c, 11, 73, 0
14, 405360, Note_on_c, 11, 69, 84
14, 405651, Note_on_c, 11, 69, 0
14, 405660, Note_on_c, 11, 69, 84
14, 405711, Note_on_c, 11, 69, 0
14, 405720, Note_on_c, 11, 64, 84
14, 406011, Note_on_c, 11, 64, 0
14, 406020, Note_on_c, 11, 64, 84
14, 406071, Note_on_c, 11, 64, 0
14, 406080, Note_on_c, 11, 61, 84
14, 406371, Note_on_c, 11, 61, 0
14, 406380, Note_on_c, 11, 61, 84
14, 406431, Note_on_c, 11, 61, 0
14, 406440, Note_on_c, 11, 57, 84
14, 406731, Note_on_c, 11, 57, 0
14, 406740, Note_on_c, 11, 69, 84
14, 406791, Note_on_c, 11, 69, 0
14, 406800, Note_on_c, 11, 66, 84
14, 407091, Note_on_c, 11, 66, 0
14, 407100, Note_on_c, 11, 66, 84
14, 407151, Note_on_c, 11, 66, 0
14, 407160, Note_on_c, 11, 64, 84
14, 407264, Note_on_c, 11, 64, 0
14, 407280, Note_on_c, 11, 63, 84
14, 407519, Note_on_c, 11, 63, 0
14, 407820, Note_on_c, 11, 63, 84
14, 407871, Note_on_c, 11, 63, 0
14, 407880, Note_on_c, 11, 63, 84
14, 407984, Note_on_c, 11, 63, 0
14, 408000, Note_on_c, 11, 63, 84
14, 408239, Note_on_c, 11, 63, 0
14, 408540, Note_on_c, 11, 63, 84
14, 408591, Note_on_c, 11, 63, 0
14, 408600, Note_on_c, 11, 63, 84
14, 408704, Note_on_c, 11, 63, 0
14, 408720, Note_on_c, 11, 62, 84
14, 408959, Note_on_c, 11, 62, 0
14, 409260, Note_on_c, 11, 62, 84
14, 409311, Note_on_c, 11, 62, 0
14, 409320, Note_on_c, 11, 62, 84
14, 409424, Note_on_c, 11, 62, 0
14, 409440, Note_on_c, 11, 62, 84
14, 409679, Note_on_c, 11, 62, 0
14, 409980, Note_on_c, 11, 62, 84
14, 410031, Note_on_c, 11, 62, 0
14, 410040, Note_on_c, 11, 62, 84
14, 410144, Note_on_c, 11, 62, 0
14, 410160, Note_on_c, 11, 61, 84
14, 410399, Note_on_c, 11, 61, 0
14, 410700, Note_on_c, 11, 62, 84
14, 410751, Note_on_c, 11, 62, 0
14, 410760, Note_on_c, 11, 62, 84
14, 410864, Note_on_c, 11, 62, 0
14, 410880, Note_on_c, 11, 64, 84
14, 411119, Note_on_c, 11, 64, 0
14, 411420, Note_on_c, 11, 65, 84
14, 411471, Note_on_c, 11, 65, 0
14, 411480, Note_on_c, 11, 65, 84
14, 411584, Note_on_c, 11, 65, 0
14, 411600, Note_on_c, 11, 66, 84
14, 411719, Note_on_c, 11, 66, 0
14, 411780, Note_on_c, 11, 62, 84
14, 411831, Note_on_c, 11, 62, 0
14, 411840, Note_on_c, 11, 62, 84
14, 411944, Note_on_c, 11, 62, 0
14, 411960, Note_on_c, 11, 62, 84
14, 412079, Note_on_c, 11, 62, 0
14, 412140, Note_on_c, 11, 64, 84
14, 412191, Note_on_c, 11, 64, 0
14, 412200, Note_on_c, 11, 64, 84
14, 412304, Note_on_c, 11, 64, 0
14, 412320, Note_on_c, 11, 64, 84
14, 412439, Note_on_c, 11, 64, 0
14, 412500, Note_on_c, 11, 65, 84
14, 412551, Note_on_c, 11, 65, 0
14, 412560, Note_on_c, 11, 65, 84
14, 412664, Note_on_c, 11, 65, 0
14, 412680, Note_on_c, 11, 65, 84
14, 412799, Note_on_c, 11, 65, 0
14, 412860, Note_on_c, 11, 66, 84
14, 412911, Note_on_c, 11, 66, 0
14, 412920, Note_on_c, 11, 66, 84
14, 413024, Note_on_c, 11, 66, 0
14, 413040, Note_on_c, 11, 66, 84
14, 413159, Note_on_c, 11, 66, 0
14, 413220, Note_on_c, 11, 74, 84
14, 413271, Note_on_c, 11, 74, 0
14, 413280, Note_on_c, 11, 74, 84
14, 413384, Note_on_c, 11, 74, 0
14, 413400, Note_on_c, 11, 74, 84
14, 413519, Note_on_c, 11, 74, 0
14, 413580, Note_on_c, 11, 73, 84
14, 413631, Note_on_c, 11, 73, 0
14, 413640, Note_on_c, 11, 73, 84
14, 413744, Note_on_c, 11, 73, 0
14, 413760, Note_on_c, 11, 73, 84
14, 413879, Note_on_c, 11, 73, 0
14, 413940, Note_on_c, 11, 71, 84
14, 413991, Note_on_c, 11, 71, 0
14, 414000, Note_on_c, 11, 71, 84
14, 414104, Note_on_c, 11, 71, 0
14, 414120, Note_on_c, 11, 71, 84
14, 414239, Note_on_c, 11, 71, 0
14, 414300, Note_on_c, 11, 73, 84
14, 414351, Note_on_c, 11, 73, 0
14, 414360, Note_on_c, 11, 73, 84
14, 414464, Note_on_c, 11, 73, 0
14, 414480, Note_on_c, 11, 73, 84
14, 414599, Note_on_c, 11, 73, 0
14, 414660, Note_on_c, 11, 76, 84
14, 414711, Note_on_c, 11, 76, 0
14, 414720, Note_on_c, 11, 76, 84
14, 414824, Note_on_c, 11, 76, 0
14, 414840, Note_on_c, 11, 76, 84
14, 414959, Note_on_c, 11, 76, 0
14, 415020, Note_on_c, 11, 76, 84
14, 415071, Note_on_c, 11, 76, 0
14, 415080, Note_on_c, 11, 76, 84
14, 415184, Note_on_c, 11, 76, 0
14, 415200, Note_on_c, 11, 76, 84
14, 415319, Note_on_c, 11, 76, 0
14, 415380, Note_on_c, 11, 76, 84
14, 415431, Note_on_c, 11, 76, 0
14, 415440, Note_on_c, 11, 76, 84
14, 415544, Note_on_c, 11, 76, 0
14, 415560, Note_on_c, 11, 76, 84
14, 415679, Note_on_c, 11, 76, 0
14, 415740, Note_on_c, 11, 76, 84
14, 415791, Note_on_c, 11, 76, 0
14, 415800, Note_on_c, 11, 76, 84
14, 415904, Note_on_c, 11, 76, 0
14, 415920, Note_on_c, 11, 76, 84
14, 416039, Note_on_c, 11, 76, 0
14, 416100, Note_on_c, 11, 76, 84
14, 416151, Note_on_c, 11, 76, 0
14, 416160, Note_on_c, 11, 76, 84
14, 416264, Note_on_c, 11, 76, 0
14, 416280, Note_on_c, 11, 76, 84
14, 416399, Note_on_c, 11, 76, 0
14, 416460, Note_on_c, 11, 76, 84
14, 416511, Note_on_c, 11, 76, 0
14, 416520, Note_on_c, 11, 76, 84
14, 416624, Note_on_c, 11, 76, 0
14, 416640, Note_on_c, 11, 76, 84
14, 416759, Note_on_c, 11, 76, 0
14, 416820, Note_on_c, 11, 76, 84
14, 416871, Note_on_c, 11, 76, 0
14, 416880, Note_on_c, 11, 76, 84
14, 416984, Note_on_c, 11, 76, 0
14, 417000, Note_on_c, 11, 76, 84
14, 417119, Note_on_c, 11, 76, 0
14, 417180, Note_on_c, 11, 76, 84
14, 417231, Note_on_c, 11, 76, 0
14, 417240, Note_on_c, 11, 76, 84
14, 417344, Note_on_c, 11, 76, 0
14, 417360, Note_on_c, 11, 76, 84
14, 417479, Note_on_c, 11, 76, 0
14, 417540, Note_on_c, 11, 81, 84
14, 417591, Note_on_c, 11, 81, 0
14, 417600, Note_on_c, 11, 81, 84
14, 417704, Note_on_c, 11, 81, 0
14, 417720, Note_on_c, 11, 81, 84
14, 417839, Note_on_c, 11, 81, 0
14, 417900, Note_on_c, 11, 81, 84
14, 417951, Note_on_c, 11, 81, 0
14, 417960, Note_on_c, 11, 81, 84
14, 418064, Note_on_c, 11, 81, 0
14, 418080, Note_on_c, 11, 81, 84
14, 418199, Note_on_c, 11, 81, 0
14, 418260, Note_on_c, 11, 69, 84
14, 418311, Note_on_c, 11, 69, 0
14, 418320, Note_on_c, 11, 69, 84
14, 418424, Note_on_c, 11, 69, 0
14, 418440, Note_on_c, 11, 69, 84
14, 418559, Note_on_c, 11, 69, 0
14, 418620, Note_on_c, 11, 57, 84
14, 418671, Note_on_c, 11, 57, 0
14, 418680, Note_on_c, 11, 57, 84
14, 418784, Note_on_c, 11, 57, 0
14, 418800, Note_on_c, 11, 57, 84
14, 419039, Note_on_c, 11, 57, 0
14, 419520, Note_on_c, 11, 76, 84
14, 419520, Note_on_c, 11, 88, 84
14, 419759, Note_on_c, 11, 76, 0
14, 419759, Note_on_c, 11, 88, 0
14, 420240, Note_on_c, 11, 85, 84
14, 420240, Note_on_c, 11, 76, 84
14, 420240, Note_on_c, 11, 69, 84
14, 420479, Note_on_c, 11, 85, 0
14, 420479, Note_on_c, 11, 76, 0
14, 420479, Note_on_c, 11, 69, 0
14, 420479, End_track
15, 0, Start_track
15, 0, Title_t, "Viola "
15, 0, MIDI_port, 0
15, 0, Program_c, 12, 48
15, 0, Control_c, 12, 11, 127
15, 0, Control_c, 12, 10, 70
15, 0, Control_c, 12, 7, 96
15, 0, Note_on_c, 12, 69, 76
15, 0, Note_on_c, 12, 64, 76
15, 0, Note_on_c, 12, 57, 76
15, 179, Note_on_c, 12, 69, 0
15, 179, Note_on_c, 12, 64, 0
15, 179, Note_on_c, 12, 57, 0
15, 960, Note_on_c, 12, 57, 52
15, 1909, Note_on_c, 12, 57, 0
15, 1920, Note_on_c, 12, 56, 76
15, 1920, Note_on_c, 12, 59, 76
15, 1920, Note_on_c, 12, 64, 76
15, 2099, Note_on_c, 12, 56, 0
15, 2099, Note_on_c, 12, 59, 0
15, 2099, Note_on_c, 12, 64, 0
15, 2880, Note_on_c, 12, 56, 52
15, 3829, Note_on_c, 12, 56, 0
15, 3840, Note_on_c, 12, 64, 76
15, 3840, Note_on_c, 12, 55, 76
15, 3840, Note_on_c, 12, 69, 76
15, 4019, Note_on_c, 12, 64, 0
15, 4019, Note_on_c, 12, 55, 0
15, 4019, Note_on_c, 12, 69, 0
15, 4800, Note_on_c, 12, 55, 52
15, 5749, Note_on_c, 12, 55, 0
15, 5760, Note_on_c, 12, 54, 76
15, 5760, Note_on_c, 12, 57, 76
15, 5760, Note_on_c, 12, 62, 76
15, 5939, Note_on_c, 12, 54, 0
15, 5939, Note_on_c, 12, 57, 0
15, 5939, Note_on_c, 12, 62, 0
15, 6240, Note_on_c, 12, 57, 52
15, 6479, Note_on_c, 12, 57, 0
15, 6720, Note_on_c, 12, 55, 52
15, 6959, Note_on_c, 12, 55, 0
15, 7200, Note_on_c, 12, 55, 52
15, 7439, Note_on_c, 12, 55, 0
15, 7680, Control_c, 12, 11, 127
15, 7680, Note_on_c, 12, 57, 52
15, 7744, Control_c, 12, 11, 126
15, 7808, Control_c, 12, 11, 125
15, 7872, Control_c, 12, 11, 124
15, 7919, Note_on_c, 12, 57, 0
15, 7936, Control_c, 12, 11, 123
15, 8000, Control_c, 12, 11, 122
15, 8064, Control_c, 12, 11, 121
15, 8128, Control_c, 12, 11, 120
15, 8192, Control_c, 12, 11, 119
15, 8256, Control_c, 12, 11, 118
15, 8320, Control_c, 12, 11, 117
15, 8384, Control_c, 12, 11, 116
15, 8400, Note_on_c, 12, 53, 52
15, 8448, Control_c, 12, 11, 115
15, 8453, Note_on_c, 12, 53, 0
15, 8460, Note_on_c, 12, 53, 52
15, 8512, Control_c, 12, 11, 114
15, 8513, Note_on_c, 12, 53, 0
15, 8520, Note_on_c, 12, 53, 52
15, 8573, Note_on_c, 12, 53, 0
15, 8576, Control_c, 12, 11, 112
15, 8580, Note_on_c, 12, 53, 52
15, 8633, Note_on_c, 12, 53, 0
15, 8640, Note_on_c, 12, 52, 52
15, 8879, Note_on_c, 12, 52, 0
15, 9118, Control_c, 12, 11, 127
15, 9120, Note_on_c, 12, 62, 44
15, 9164, Note_on_c, 12, 62, 0
15, 9180, Note_on_c, 12, 64, 44
15, 9224, Note_on_c, 12, 64, 0
15, 9240, Note_on_c, 12, 66, 44
15, 9284, Note_on_c, 12, 66, 0
15, 9300, Note_on_c, 12, 68, 44
15, 9344, Note_on_c, 12, 68, 0
15, 9360, Note_on_c, 12, 69, 44
15, 9404, Note_on_c, 12, 69, 0
15, 9420, Note_on_c, 12, 71, 44
15, 9464, Note_on_c, 12, 71, 0
15, 9480, Note_on_c, 12, 73, 44
15, 9524, Note_on_c, 12, 73, 0
15, 9540, Note_on_c, 12, 71, 44
15, 9584, Note_on_c, 12, 71, 0
15, 9600, Note_on_c, 12, 69, 44
15, 9839, Note_on_c, 12, 69, 0
15, 10560, Note_on_c, 12, 52, 44
15, 10799, Note_on_c, 12, 52, 0
15, 11040, Note_on_c, 12, 64, 44
15, 11084, Note_on_c, 12, 64, 0
15, 11100, Note_on_c, 12, 66, 44
15, 11144, Note_on_c, 12, 66, 0
15, 11160, Note_on_c, 12, 68, 44
15, 11204, Note_on_c, 12, 68, 0
15, 11220, Note_on_c, 12, 69, 44
15, 11264, Note_on_c, 12, 69, 0
15, 11280, Note_on_c, 12, 71, 44
15, 11324, Note_on_c, 12, 71, 0
15, 11340, Note_on_c, 12, 73, 44
15, 11384, Note_on_c, 12, 73, 0
15, 11400, Note_on_c, 12, 74, 44
15, 11444, Note_on_c, 12, 74, 0
15, 11460, Note_on_c, 12, 73, 44
15, 11504, Note_on_c, 12, 73, 0
15, 11520, Note_on_c, 12, 71, 44
15, 11759, Note_on_c, 12, 71, 0
15, 12240, Control_c, 12, 11, 48
15, 12480, Control_c, 12, 11, 48
15, 12480, Note_on_c, 12, 52, 84
15, 12520, Control_c, 12, 11, 51
15, 12560, Control_c, 12, 11, 55
15, 12600, Control_c, 12, 11, 58
15, 12640, Control_c, 12, 11, 61
15, 12680, Control_c, 12, 11, 64
15, 12719, Note_on_c, 12, 52, 0
15, 12720, Control_c, 12, 11, 68
15, 12760, Control_c, 12, 11, 71
15, 12800, Control_c, 12, 11, 74
15, 12840, Control_c, 12, 11, 78
15, 12880, Control_c, 12, 11, 81
15, 12920, Control_c, 12, 11, 84
15, 12960, Control_c, 12, 11, 88
15, 12960, Note_on_c, 12, 62, 84
15, 12960, Note_on_c, 12, 59, 84
15, 13000, Control_c, 12, 11, 91
15, 13004, Note_on_c, 12, 62, 0
15, 13004, Note_on_c, 12, 59, 0
15, 13020, Note_on_c, 12, 64, 84
15, 13020, Note_on_c, 12, 61, 84
15, 13040, Control_c, 12, 11, 94
15, 13064, Note_on_c, 12, 64, 0
15, 13064, Note_on_c, 12, 61, 0
15, 13080, Note_on_c, 12, 66, 84
15, 13080, Control_c, 12, 11, 97
15, 13080, Note_on_c, 12, 62, 84
15, 13120, Control_c, 12, 11, 101
15, 13124, Note_on_c, 12, 66, 0
15, 13124, Note_on_c, 12, 62, 0
15, 13140, Note_on_c, 12, 68, 84
15, 13140, Note_on_c, 12, 64, 84
15, 13160, Control_c, 12, 11, 104
15, 13184, Note_on_c, 12, 68, 0
15, 13184, Note_on_c, 12, 64, 0
15, 13200, Control_c, 12, 11, 107
15, 13200, Note_on_c, 12, 66, 84
15, 13200, Note_on_c, 12, 69, 84
15, 13240, Control_c, 12, 11, 111
15, 13244, Note_on_c, 12, 66, 0
15, 13244, Note_on_c, 12, 69, 0
15, 13260, Note_on_c, 12, 71, 84
15, 13260, Note_on_c, 12, 68, 84
15, 13280, Control_c, 12, 11, 114
15, 13304, Note_on_c, 12, 71, 0
15, 13304, Note_on_c, 12, 68, 0
15, 13320, Note_on_c, 12, 69, 84
15, 13320, Control_c, 12, 11, 117
15, 13320, Note_on_c, 12, 73, 84
15, 13360, Control_c, 12, 11, 120
15, 13364, Note_on_c, 12, 69, 0
15, 13364, Note_on_c, 12, 73, 0
15, 13380, Note_on_c, 12, 71, 84
15, 13380, Note_on_c, 12, 74, 84
15, 13400, Control_c, 12, 11, 124
15, 13424, Note_on_c, 12, 71, 0
15, 13424, Note_on_c, 12, 74, 0
15, 13438, Control_c, 12, 11, 127
15, 13440, Note_on_c, 12, 73, 84
15, 13440, Note_on_c, 12, 69, 84
15, 13493, Note_on_c, 12, 73, 0
15, 13493, Note_on_c, 12, 69, 0
15, 13500, Note_on_c, 12, 61, 84
15, 13500, Note_on_c, 12, 57, 84
15, 13553, Note_on_c, 12, 61, 0
15, 13553, Note_on_c, 12, 57, 0
15, 13560, Note_on_c, 12, 57, 84
15, 13560, Note_on_c, 12, 61, 84
15, 13613, Note_on_c, 12, 57, 0
15, 13613, Note_on_c, 12, 61, 0
15, 13620, Note_on_c, 12, 57, 84
15, 13620, Note_on_c, 12, 61, 84
15, 13673, Note_on_c, 12, 57, 0
15, 13673, Note_on_c, 12, 61, 0
15, 13680, Note_on_c, 12, 61, 84
15, 13680, Note_on_c, 12, 57, 84
15, 13733, Note_on_c, 12, 61, 0
15, 13733, Note_on_c, 12, 57, 0
15, 13740, Note_on_c, 12, 61, 84
15, 13740, Note_on_c, 12, 57, 84
15, 13793, Note_on_c, 12, 61, 0
15, 13793, Note_on_c, 12, 57, 0
15, 13800, Note_on_c, 12, 61, 84
15, 13800, Note_on_c, 12, 57, 84
15, 13853, Note_on_c, 12, 61, 0
15, 13853, Note_on_c, 12, 57, 0
15, 13860, Note_on_c, 12, 57, 84
15, 13860, Note_on_c, 12, 61, 84
15, 13913, Note_on_c, 12, 57, 0
15, 13913, Note_on_c, 12, 61, 0
15, 13920, Note_on_c, 12, 57, 84
15, 13920, Note_on_c, 12, 61, 84
15, 13973, Note_on_c, 12, 57, 0
15, 13973, Note_on_c, 12, 61, 0
15, 13980, Note_on_c, 12, 57, 84
15, 13980, Note_on_c, 12, 61, 84
15, 14033, Note_on_c, 12, 57, 0
15, 14033, Note_on_c, 12, 61, 0
15, 14040, Note_on_c, 12, 57, 84
15, 14040, Note_on_c, 12, 61, 84
15, 14093, Note_on_c, 12, 57, 0
15, 14093, Note_on_c, 12, 61, 0
15, 14100, Note_on_c, 12, 57, 84
15, 14100, Note_on_c, 12, 61, 84
15, 14153, Note_on_c, 12, 57, 0
15, 14153, Note_on_c, 12, 61, 0
15, 14160, Note_on_c, 12, 61, 84
15, 14160, Note_on_c, 12, 57, 84
15, 14213, Note_on_c, 12, 61, 0
15, 14213, Note_on_c, 12, 57, 0
15, 14220, Note_on_c, 12, 61, 84
15, 14220, Note_on_c, 12, 57, 84
15, 14273, Note_on_c, 12, 61, 0
15, 14273, Note_on_c, 12, 57, 0
15, 14280, Note_on_c, 12, 61, 84
15, 14280, Note_on_c, 12, 57, 84
15, 14333, Note_on_c, 12, 61, 0
15, 14333, Note_on_c, 12, 57, 0
15, 14340, Note_on_c, 12, 61, 84
15, 14340, Note_on_c, 12, 57, 84
15, 14393, Note_on_c, 12, 61, 0
15, 14393, Note_on_c, 12, 57, 0
15, 14400, Note_on_c, 12, 57, 84
15, 14400, Note_on_c, 12, 61, 84
15, 14453, Note_on_c, 12, 57, 0
15, 14453, Note_on_c, 12, 61, 0
15, 14460, Note_on_c, 12, 61, 84
15, 14460, Note_on_c, 12, 57, 84
15, 14513, Note_on_c, 12, 61, 0
15, 14513, Note_on_c, 12, 57, 0
15, 14520, Note_on_c, 12, 57, 84
15, 14520, Note_on_c, 12, 61, 84
15, 14573, Note_on_c, 12, 57, 0
15, 14573, Note_on_c, 12, 61, 0
15, 14580, Note_on_c, 12, 57, 84
15, 14580, Note_on_c, 12, 61, 84
15, 14633, Note_on_c, 12, 57, 0
15, 14633, Note_on_c, 12, 61, 0
15, 14640, Note_on_c, 12, 61, 84
15, 14640, Note_on_c, 12, 57, 84
15, 14693, Note_on_c, 12, 61, 0
15, 14693, Note_on_c, 12, 57, 0
15, 14700, Note_on_c, 12, 61, 84
15, 14700, Note_on_c, 12, 57, 84
15, 14753, Note_on_c, 12, 61, 0
15, 14753, Note_on_c, 12, 57, 0
15, 14760, Note_on_c, 12, 57, 84
15, 14760, Note_on_c, 12, 61, 84
15, 14813, Note_on_c, 12, 57, 0
15, 14813, Note_on_c, 12, 61, 0
15, 14820, Note_on_c, 12, 57, 84
15, 14820, Note_on_c, 12, 61, 84
15, 14873, Note_on_c, 12, 57, 0
15, 14873, Note_on_c, 12, 61, 0
15, 14880, Note_on_c, 12, 61, 84
15, 14880, Note_on_c, 12, 57, 84
15, 14933, Note_on_c, 12, 61, 0
15, 14933, Note_on_c, 12, 57, 0
15, 14940, Note_on_c, 12, 57, 84
15, 14940, Note_on_c, 12, 61, 84
15, 14993, Note_on_c, 12, 57, 0
15, 14993, Note_on_c, 12, 61, 0
15, 15000, Note_on_c, 12, 61, 84
15, 15000, Note_on_c, 12, 57, 84
15, 15053, Note_on_c, 12, 61, 0
15, 15053, Note_on_c, 12, 57, 0
15, 15060, Note_on_c, 12, 57, 84
15, 15060, Note_on_c, 12, 61, 84
15, 15113, Note_on_c, 12, 57, 0
15, 15113, Note_on_c, 12, 61, 0
15, 15120, Note_on_c, 12, 61, 84
15, 15120, Note_on_c, 12, 57, 84
15, 15173, Note_on_c, 12, 61, 0
15, 15173, Note_on_c, 12, 57, 0
15, 15180, Note_on_c, 12, 57, 84
15, 15180, Note_on_c, 12, 61, 84
15, 15233, Note_on_c, 12, 57, 0
15, 15233, Note_on_c, 12, 61, 0
15, 15240, Note_on_c, 12, 57, 84
15, 15240, Note_on_c, 12, 61, 84
15, 15293, Note_on_c, 12, 57, 0
15, 15293, Note_on_c, 12, 61, 0
15, 15300, Note_on_c, 12, 57, 84
15, 15300, Note_on_c, 12, 61, 84
15, 15353, Note_on_c, 12, 57, 0
15, 15353, Note_on_c, 12, 61, 0
15, 15360, Note_on_c, 12, 71, 84
15, 15360, Note_on_c, 12, 68, 84
15, 15413, Note_on_c, 12, 71, 0
15, 15413, Note_on_c, 12, 68, 0
15, 15420, Note_on_c, 12, 56, 84
15, 15420, Note_on_c, 12, 59, 84
15, 15473, Note_on_c, 12, 56, 0
15, 15473, Note_on_c, 12, 59, 0
15, 15480, Note_on_c, 12, 59, 84
15, 15480, Note_on_c, 12, 56, 84
15, 15533, Note_on_c, 12, 59, 0
15, 15533, Note_on_c, 12, 56, 0
15, 15540, Note_on_c, 12, 56, 84
15, 15540, Note_on_c, 12, 59, 84
15, 15593, Note_on_c, 12, 56, 0
15, 15593, Note_on_c, 12, 59, 0
15, 15600, Note_on_c, 12, 59, 84
15, 15600, Note_on_c, 12, 56, 84
15, 15653, Note_on_c, 12, 59, 0
15, 15653, Note_on_c, 12, 56, 0
15, 15660, Note_on_c, 12, 56, 84
15, 15660, Note_on_c, 12, 59, 84
15, 15713, Note_on_c, 12, 56, 0
15, 15713, Note_on_c, 12, 59, 0
15, 15720, Note_on_c, 12, 56, 84
15, 15720, Note_on_c, 12, 59, 84
15, 15773, Note_on_c, 12, 56, 0
15, 15773, Note_on_c, 12, 59, 0
15, 15780, Note_on_c, 12, 59, 84
15, 15780, Note_on_c, 12, 56, 84
15, 15833, Note_on_c, 12, 59, 0
15, 15833, Note_on_c, 12, 56, 0
15, 15840, Note_on_c, 12, 56, 84
15, 15840, Note_on_c, 12, 59, 84
15, 15893, Note_on_c, 12, 56, 0
15, 15893, Note_on_c, 12, 59, 0
15, 15900, Note_on_c, 12, 56, 84
15, 15900, Note_on_c, 12, 59, 84
15, 15953, Note_on_c, 12, 56, 0
15, 15953, Note_on_c, 12, 59, 0
15, 15960, Note_on_c, 12, 56, 84
15, 15960, Note_on_c, 12, 59, 84
15, 16013, Note_on_c, 12, 56, 0
15, 16013, Note_on_c, 12, 59, 0
15, 16020, Note_on_c, 12, 56, 84
15, 16020, Note_on_c, 12, 59, 84
15, 16073, Note_on_c, 12, 56, 0
15, 16073, Note_on_c, 12, 59, 0
15, 16080, Note_on_c, 12, 59, 84
15, 16080, Note_on_c, 12, 56, 84
15, 16133, Note_on_c, 12, 59, 0
15, 16133, Note_on_c, 12, 56, 0
15, 16140, Note_on_c, 12, 59, 84
15, 16140, Note_on_c, 12, 56, 84
15, 16193, Note_on_c, 12, 59, 0
15, 16193, Note_on_c, 12, 56, 0
15, 16200, Note_on_c, 12, 59, 84
15, 16200, Note_on_c, 12, 56, 84
15, 16253, Note_on_c, 12, 59, 0
15, 16253, Note_on_c, 12, 56, 0
15, 16260, Note_on_c, 12, 59, 84
15, 16260, Note_on_c, 12, 56, 84
15, 16313, Note_on_c, 12, 59, 0
15, 16313, Note_on_c, 12, 56, 0
15, 16320, Note_on_c, 12, 57, 84
15, 16320, Note_on_c, 12, 55, 84
15, 16373, Note_on_c, 12, 57, 0
15, 16373, Note_on_c, 12, 55, 0
15, 16380, Note_on_c, 12, 55, 84
15, 16380, Note_on_c, 12, 57, 84
15, 16433, Note_on_c, 12, 55, 0
15, 16433, Note_on_c, 12, 57, 0
15, 16440, Note_on_c, 12, 55, 84
15, 16440, Note_on_c, 12, 57, 84
15, 16493, Note_on_c, 12, 55, 0
15, 16493, Note_on_c, 12, 57, 0
15, 16500, Note_on_c, 12, 57, 84
15, 16500, Note_on_c, 12, 55, 84
15, 16553, Note_on_c, 12, 57, 0
15, 16553, Note_on_c, 12, 55, 0
15, 16560, Note_on_c, 12, 55, 84
15, 16560, Note_on_c, 12, 57, 84
15, 16613, Note_on_c, 12, 55, 0
15, 16613, Note_on_c, 12, 57, 0
15, 16620, Note_on_c, 12, 57, 84
15, 16620, Note_on_c, 12, 55, 84
15, 16673, Note_on_c, 12, 57, 0
15, 16673, Note_on_c, 12, 55, 0
15, 16680, Note_on_c, 12, 55, 84
15, 16680, Note_on_c, 12, 57, 84
15, 16733, Note_on_c, 12, 55, 0
15, 16733, Note_on_c, 12, 57, 0
15, 16740, Note_on_c, 12, 55, 84
15, 16740, Note_on_c, 12, 57, 84
15, 16793, Note_on_c, 12, 55, 0
15, 16793, Note_on_c, 12, 57, 0
15, 16800, Note_on_c, 12, 55, 84
15, 16800, Note_on_c, 12, 57, 84
15, 16853, Note_on_c, 12, 55, 0
15, 16853, Note_on_c, 12, 57, 0
15, 16860, Note_on_c, 12, 57, 84
15, 16860, Note_on_c, 12, 55, 84
15, 16913, Note_on_c, 12, 57, 0
15, 16913, Note_on_c, 12, 55, 0
15, 16920, Note_on_c, 12, 57, 84
15, 16920, Note_on_c, 12, 55, 84
15, 16973, Note_on_c, 12, 57, 0
15, 16973, Note_on_c, 12, 55, 0
15, 16980, Note_on_c, 12, 55, 84
15, 16980, Note_on_c, 12, 57, 84
15, 17033, Note_on_c, 12, 55, 0
15, 17033, Note_on_c, 12, 57, 0
15, 17040, Note_on_c, 12, 55, 84
15, 17040, Note_on_c, 12, 57, 84
15, 17093, Note_on_c, 12, 55, 0
15, 17093, Note_on_c, 12, 57, 0
15, 17100, Note_on_c, 12, 57, 84
15, 17100, Note_on_c, 12, 55, 84
15, 17153, Note_on_c, 12, 57, 0
15, 17153, Note_on_c, 12, 55, 0
15, 17160, Note_on_c, 12, 57, 84
15, 17160, Note_on_c, 12, 55, 84
15, 17213, Note_on_c, 12, 57, 0
15, 17213, Note_on_c, 12, 55, 0
15, 17220, Note_on_c, 12, 55, 84
15, 17220, Note_on_c, 12, 57, 84
15, 17273, Note_on_c, 12, 55, 0
15, 17273, Note_on_c, 12, 57, 0
15, 17280, Note_on_c, 12, 66, 84
15, 17280, Note_on_c, 12, 69, 84
15, 17333, Note_on_c, 12, 66, 0
15, 17333, Note_on_c, 12, 69, 0
15, 17340, Note_on_c, 12, 54, 84
15, 17340, Note_on_c, 12, 57, 84
15, 17393, Note_on_c, 12, 54, 0
15, 17393, Note_on_c, 12, 57, 0
15, 17400, Note_on_c, 12, 57, 84
15, 17400, Note_on_c, 12, 54, 84
15, 17453, Note_on_c, 12, 57, 0
15, 17453, Note_on_c, 12, 54, 0
15, 17460, Note_on_c, 12, 54, 84
15, 17460, Note_on_c, 12, 57, 84
15, 17513, Note_on_c, 12, 54, 0
15, 17513, Note_on_c, 12, 57, 0
15, 17520, Note_on_c, 12, 57, 84
15, 17520, Note_on_c, 12, 54, 84
15, 17573, Note_on_c, 12, 57, 0
15, 17573, Note_on_c, 12, 54, 0
15, 17580, Note_on_c, 12, 54, 84
15, 17580, Note_on_c, 12, 57, 84
15, 17633, Note_on_c, 12, 54, 0
15, 17633, Note_on_c, 12, 57, 0
15, 17640, Note_on_c, 12, 54, 84
15, 17640, Note_on_c, 12, 57, 84
15, 17693, Note_on_c, 12, 54, 0
15, 17693, Note_on_c, 12, 57, 0
15, 17700, Note_on_c, 12, 57, 84
15, 17700, Note_on_c, 12, 54, 84
15, 17753, Note_on_c, 12, 57, 0
15, 17753, Note_on_c, 12, 54, 0
15, 17760, Note_on_c, 12, 54, 84
15, 17760, Note_on_c, 12, 57, 84
15, 17813, Note_on_c, 12, 54, 0
15, 17813, Note_on_c, 12, 57, 0
15, 17820, Note_on_c, 12, 57, 84
15, 17820, Note_on_c, 12, 54, 84
15, 17873, Note_on_c, 12, 57, 0
15, 17873, Note_on_c, 12, 54, 0
15, 17880, Note_on_c, 12, 54, 84
15, 17880, Note_on_c, 12, 57, 84
15, 17933, Note_on_c, 12, 54, 0
15, 17933, Note_on_c, 12, 57, 0
15, 17940, Note_on_c, 12, 57, 84
15, 17940, Note_on_c, 12, 54, 84
15, 17993, Note_on_c, 12, 57, 0
15, 17993, Note_on_c, 12, 54, 0
15, 18000, Note_on_c, 12, 54, 84
15, 18000, Note_on_c, 12, 57, 84
15, 18053, Note_on_c, 12, 54, 0
15, 18053, Note_on_c, 12, 57, 0
15, 18060, Note_on_c, 12, 54, 84
15, 18060, Note_on_c, 12, 57, 84
15, 18113, Note_on_c, 12, 54, 0
15, 18113, Note_on_c, 12, 57, 0
15, 18120, Note_on_c, 12, 57, 84
15, 18120, Note_on_c, 12, 54, 84
15, 18173, Note_on_c, 12, 57, 0
15, 18173, Note_on_c, 12, 54, 0
15, 18180, Note_on_c, 12, 57, 84
15, 18180, Note_on_c, 12, 54, 84
15, 18233, Note_on_c, 12, 57, 0
15, 18233, Note_on_c, 12, 54, 0
15, 18240, Note_on_c, 12, 57, 84
15, 18240, Note_on_c, 12, 53, 84
15, 18293, Note_on_c, 12, 57, 0
15, 18293, Note_on_c, 12, 53, 0
15, 18300, Note_on_c, 12, 53, 84
15, 18300, Note_on_c, 12, 57, 84
15, 18353, Note_on_c, 12, 53, 0
15, 18353, Note_on_c, 12, 57, 0
15, 18360, Note_on_c, 12, 53, 84
15, 18360, Note_on_c, 12, 57, 84
15, 18413, Note_on_c, 12, 53, 0
15, 18413, Note_on_c, 12, 57, 0
15, 18420, Note_on_c, 12, 53, 84
15, 18420, Note_on_c, 12, 57, 84
15, 18473, Note_on_c, 12, 53, 0
15, 18473, Note_on_c, 12, 57, 0
15, 18480, Note_on_c, 12, 53, 84
15, 18480, Note_on_c, 12, 57, 84
15, 18533, Note_on_c, 12, 53, 0
15, 18533, Note_on_c, 12, 57, 0
15, 18540, Note_on_c, 12, 53, 84
15, 18540, Note_on_c, 12, 57, 84
15, 18593, Note_on_c, 12, 53, 0
15, 18593, Note_on_c, 12, 57, 0
15, 18600, Note_on_c, 12, 53, 84
15, 18600, Note_on_c, 12, 57, 84
15, 18653, Note_on_c, 12, 53, 0
15, 18653, Note_on_c, 12, 57, 0
15, 18660, Note_on_c, 12, 53, 84
15, 18660, Note_on_c, 12, 57, 84
15, 18713, Note_on_c, 12, 53, 0
15, 18713, Note_on_c, 12, 57, 0
15, 18720, Note_on_c, 12, 53, 84
15, 18720, Note_on_c, 12, 57, 84
15, 18773, Note_on_c, 12, 53, 0
15, 18773, Note_on_c, 12, 57, 0
15, 18780, Note_on_c, 12, 53, 84
15, 18780, Note_on_c, 12, 57, 84
15, 18833, Note_on_c, 12, 53, 0
15, 18833, Note_on_c, 12, 57, 0
15, 18840, Note_on_c, 12, 53, 84
15, 18840, Note_on_c, 12, 57, 84
15, 18893, Note_on_c, 12, 53, 0
15, 18893, Note_on_c, 12, 57, 0
15, 18900, Note_on_c, 12, 57, 84
15, 18900, Note_on_c, 12, 53, 84
15, 18953, Note_on_c, 12, 57, 0
15, 18953, Note_on_c, 12, 53, 0
15, 18960, Note_on_c, 12, 57, 84
15, 18960, Note_on_c, 12, 53, 84
15, 19013, Note_on_c, 12, 57, 0
15, 19013, Note_on_c, 12, 53, 0
15, 19020, Note_on_c, 12, 57, 84
15, 19020, Note_on_c, 12, 53, 84
15, 19073, Note_on_c, 12, 57, 0
15, 19073, Note_on_c, 12, 53, 0
15, 19080, Note_on_c, 12, 57, 84
15, 19080, Note_on_c, 12, 53, 84
15, 19133, Note_on_c, 12, 57, 0
15, 19133, Note_on_c, 12, 53, 0
15, 19140, Note_on_c, 12, 57, 84
15, 19140, Note_on_c, 12, 53, 84
15, 19193, Note_on_c, 12, 57, 0
15, 19193, Note_on_c, 12, 53, 0
15, 19200, Note_on_c, 12, 53, 84
15, 19200, Note_on_c, 12, 55, 84
15, 19253, Note_on_c, 12, 53, 0
15, 19253, Note_on_c, 12, 55, 0
15, 19260, Note_on_c, 12, 53, 84
15, 19260, Note_on_c, 12, 55, 84
15, 19313, Note_on_c, 12, 53, 0
15, 19313, Note_on_c, 12, 55, 0
15, 19320, Note_on_c, 12, 55, 84
15, 19320, Note_on_c, 12, 53, 84
15, 19373, Note_on_c, 12, 55, 0
15, 19373, Note_on_c, 12, 53, 0
15, 19380, Note_on_c, 12, 53, 84
15, 19380, Note_on_c, 12, 55, 84
15, 19433, Note_on_c, 12, 53, 0
15, 19433, Note_on_c, 12, 55, 0
15, 19440, Note_on_c, 12, 53, 84
15, 19440, Note_on_c, 12, 55, 84
15, 19493, Note_on_c, 12, 53, 0
15, 19493, Note_on_c, 12, 55, 0
15, 19500, Note_on_c, 12, 55, 84
15, 19500, Note_on_c, 12, 53, 84
15, 19553, Note_on_c, 12, 55, 0
15, 19553, Note_on_c, 12, 53, 0
15, 19560, Note_on_c, 12, 53, 84
15, 19560, Note_on_c, 12, 55, 84
15, 19613, Note_on_c, 12, 53, 0
15, 19613, Note_on_c, 12, 55, 0
15, 19620, Note_on_c, 12, 55, 84
15, 19620, Note_on_c, 12, 53, 84
15, 19673, Note_on_c, 12, 55, 0
15, 19673, Note_on_c, 12, 53, 0
15, 19680, Note_on_c, 12, 55, 84
15, 19680, Note_on_c, 12, 53, 84
15, 19733, Note_on_c, 12, 55, 0
15, 19733, Note_on_c, 12, 53, 0
15, 19740, Note_on_c, 12, 53, 84
15, 19740, Note_on_c, 12, 55, 84
15, 19793, Note_on_c, 12, 53, 0
15, 19793, Note_on_c, 12, 55, 0
15, 19800, Note_on_c, 12, 53, 84
15, 19800, Note_on_c, 12, 55, 84
15, 19853, Note_on_c, 12, 53, 0
15, 19853, Note_on_c, 12, 55, 0
15, 19860, Note_on_c, 12, 53, 84
15, 19860, Note_on_c, 12, 55, 84
15, 19913, Note_on_c, 12, 53, 0
15, 19913, Note_on_c, 12, 55, 0
15, 19920, Note_on_c, 12, 53, 84
15, 19920, Note_on_c, 12, 55, 84
15, 19973, Note_on_c, 12, 53, 0
15, 19973, Note_on_c, 12, 55, 0
15, 19980, Note_on_c, 12, 53, 84
15, 19980, Note_on_c, 12, 55, 84
15, 20033, Note_on_c, 12, 53, 0
15, 20033, Note_on_c, 12, 55, 0
15, 20040, Note_on_c, 12, 55, 84
15, 20040, Note_on_c, 12, 53, 84
15, 20093, Note_on_c, 12, 55, 0
15, 20093, Note_on_c, 12, 53, 0
15, 20100, Note_on_c, 12, 53, 84
15, 20100, Note_on_c, 12, 55, 84
15, 20153, Note_on_c, 12, 53, 0
15, 20153, Note_on_c, 12, 55, 0
15, 20160, Note_on_c, 12, 55, 84
15, 20160, Note_on_c, 12, 52, 84
15, 20213, Note_on_c, 12, 55, 0
15, 20213, Note_on_c, 12, 52, 0
15, 20220, Note_on_c, 12, 55, 82
15, 20220, Note_on_c, 12, 52, 82
15, 20273, Note_on_c, 12, 55, 0
15, 20273, Note_on_c, 12, 52, 0
15, 20280, Note_on_c, 12, 55, 80
15, 20280, Note_on_c, 12, 52, 80
15, 20333, Note_on_c, 12, 55, 0
15, 20333, Note_on_c, 12, 52, 0
15, 20340, Note_on_c, 12, 55, 78
15, 20340, Note_on_c, 12, 52, 78
15, 20393, Note_on_c, 12, 55, 0
15, 20393, Note_on_c, 12, 52, 0
15, 20400, Note_on_c, 12, 55, 76
15, 20400, Note_on_c, 12, 52, 76
15, 20453, Note_on_c, 12, 55, 0
15, 20453, Note_on_c, 12, 52, 0
15, 20460, Note_on_c, 12, 55, 74
15, 20460, Note_on_c, 12, 52, 74
15, 20513, Note_on_c, 12, 55, 0
15, 20513, Note_on_c, 12, 52, 0
15, 20520, Note_on_c, 12, 52, 72
15, 20520, Note_on_c, 12, 55, 72
15, 20573, Note_on_c, 12, 52, 0
15, 20573, Note_on_c, 12, 55, 0
15, 20580, Note_on_c, 12, 55, 70
15, 20580, Note_on_c, 12, 52, 70
15, 20633, Note_on_c, 12, 55, 0
15, 20633, Note_on_c, 12, 52, 0
15, 20640, Note_on_c, 12, 52, 68
15, 20640, Note_on_c, 12, 55, 68
15, 20693, Note_on_c, 12, 52, 0
15, 20693, Note_on_c, 12, 55, 0
15, 20700, Note_on_c, 12, 55, 66
15, 20700, Note_on_c, 12, 52, 66
15, 20753, Note_on_c, 12, 55, 0
15, 20753, Note_on_c, 12, 52, 0
15, 20760, Note_on_c, 12, 52, 64
15, 20760, Note_on_c, 12, 55, 64
15, 20813, Note_on_c, 12, 52, 0
15, 20813, Note_on_c, 12, 55, 0
15, 20820, Note_on_c, 12, 55, 62
15, 20820, Note_on_c, 12, 52, 62
15, 20873, Note_on_c, 12, 55, 0
15, 20873, Note_on_c, 12, 52, 0
15, 20880, Note_on_c, 12, 55, 60
15, 20880, Note_on_c, 12, 52, 60
15, 20933, Note_on_c, 12, 55, 0
15, 20933, Note_on_c, 12, 52, 0
15, 20940, Note_on_c, 12, 52, 58
15, 20940, Note_on_c, 12, 55, 58
15, 20993, Note_on_c, 12, 52, 0
15, 20993, Note_on_c, 12, 55, 0
15, 21000, Note_on_c, 12, 52, 56
15, 21000, Note_on_c, 12, 55, 56
15, 21053, Note_on_c, 12, 52, 0
15, 21053, Note_on_c, 12, 55, 0
15, 21060, Note_on_c, 12, 55, 54
15, 21060, Note_on_c, 12, 52, 54
15, 21113, Note_on_c, 12, 55, 0
15, 21113, Note_on_c, 12, 52, 0
15, 21120, Note_on_c, 12, 50, 52
15, 21120, Note_on_c, 12, 55, 52
15, 21359, Note_on_c, 12, 50, 0
15, 21359, Note_on_c, 12, 55, 0
15, 22080, Note_on_c, 12, 55, 52
15, 22439, Note_on_c, 12, 55, 0
15, 22500, Note_on_c, 12, 55, 52
15, 22553, Note_on_c, 12, 55, 0
15, 22560, Note_on_c, 12, 55, 52
15, 22919, Note_on_c, 12, 55, 0
15, 22980, Note_on_c, 12, 55, 52
15, 23033, Note_on_c, 12, 55, 0
15, 23040, Note_on_c, 12, 55, 52
15, 23279, Note_on_c, 12, 55, 0
15, 24000, Note_on_c, 12, 55, 52
15, 24359, Note_on_c, 12, 55, 0
15, 24420, Note_on_c, 12, 55, 52
15, 24473, Note_on_c, 12, 55, 0
15, 24480, Note_on_c, 12, 55, 52
15, 24839, Note_on_c, 12, 55, 0
15, 24900, Note_on_c, 12, 55, 52
15, 24953, Note_on_c, 12, 55, 0
15, 24960, Note_on_c, 12, 53, 52
15, 25199, Note_on_c, 12, 53, 0
15, 26880, Note_on_c, 12, 50, 44
15, 27829, Note_on_c, 12, 50, 0
15, 27840, Note_on_c, 12, 52, 44
15, 28199, Note_on_c, 12, 52, 0
15, 28260, Note_on_c, 12, 52, 44
15, 28313, Note_on_c, 12, 52, 0
15, 28320, Note_on_c, 12, 52, 44
15, 28559, Note_on_c, 12, 52, 0
15, 28560, Note_on_c, 12, 55, 44
15, 28679, Note_on_c, 12, 55, 0
15, 28740, Note_on_c, 12, 52, 44
15, 28793, Note_on_c, 12, 52, 0
15, 28800, Note_on_c, 12, 50, 44
15, 29749, Note_on_c, 12, 50, 0
15, 29758, Control_c, 12, 11, 48
15, 29760, Note_on_c, 12, 52, 84
15, 30119, Note_on_c, 12, 52, 0
15, 30180, Note_on_c, 12, 52, 84
15, 30233, Note_on_c, 12, 52, 0
15, 30240, Note_on_c, 12, 48, 84
15, 30240, Control_c, 12, 11, 48
15, 30280, Control_c, 12, 11, 50
15, 30320, Control_c, 12, 11, 52
15, 30360, Control_c, 12, 11, 55
15, 30400, Control_c, 12, 11, 57
15, 30440, Control_c, 12, 11, 59
15, 30479, Note_on_c, 12, 48, 0
15, 30480, Note_on_c, 12, 52, 84
15, 30480, Control_c, 12, 11, 61
15, 30520, Control_c, 12, 11, 63
15, 30560, Control_c, 12, 11, 66
15, 30599, Note_on_c, 12, 52, 0
15, 30600, Control_c, 12, 11, 68
15, 30640, Control_c, 12, 11, 70
15, 30660, Note_on_c, 12, 52, 84
15, 30680, Control_c, 12, 11, 72
15, 30713, Note_on_c, 12, 52, 0
15, 30720, Control_c, 12, 11, 74
15, 30720, Note_on_c, 12, 48, 84
15, 30760, Control_c, 12, 11, 77
15, 30800, Control_c, 12, 11, 79
15, 30840, Control_c, 12, 11, 81
15, 30880, Control_c, 12, 11, 83
15, 30920, Control_c, 12, 11, 85
15, 30959, Note_on_c, 12, 48, 0
15, 30960, Control_c, 12, 11, 88
15, 30960, Note_on_c, 12, 54, 84
15, 31000, Control_c, 12, 11, 90
15, 31040, Control_c, 12, 11, 92
15, 31079, Note_on_c, 12, 54, 0
15, 31080, Control_c, 12, 11, 94
15, 31120, Control_c, 12, 11, 96
15, 31140, Note_on_c, 12, 54, 84
15, 31160, Control_c, 12, 11, 98
15, 31193, Note_on_c, 12, 54, 0
15, 31200, Note_on_c, 12, 50, 84
15, 31200, Control_c, 12, 11, 101
15, 31240, Control_c, 12, 11, 103
15, 31280, Control_c, 12, 11, 105
15, 31320, Control_c, 12, 11, 107
15, 31360, Control_c, 12, 11, 109
15, 31400, Control_c, 12, 11, 112
15, 31439, Note_on_c, 12, 50, 0
15, 31440, Note_on_c, 12, 55, 84
15, 31440, Control_c, 12, 11, 114
15, 31480, Control_c, 12, 11, 116
15, 31520, Control_c, 12, 11, 118
15, 31559, Note_on_c, 12, 55, 0
15, 31560, Control_c, 12, 11, 120
15, 31600, Control_c, 12, 11, 123
15, 31620, Note_on_c, 12, 59, 84
15, 31640, Control_c, 12, 11, 125
15, 31673, Note_on_c, 12, 59, 0
15, 31678, Control_c, 12, 11, 127
15, 31680, Note_on_c, 12, 68, 84
15, 31680, Note_on_c, 12, 71, 84
15, 31733, Note_on_c, 12, 68, 0
15, 31733, Note_on_c, 12, 71, 0
15, 31740, Note_on_c, 12, 59, 84
15, 31740, Note_on_c, 12, 56, 84
15, 31793, Note_on_c, 12, 59, 0
15, 31793, Note_on_c, 12, 56, 0
15, 31800, Note_on_c, 12, 59, 84
15, 31800, Note_on_c, 12, 56, 84
15, 31853, Note_on_c, 12, 59, 0
15, 31853, Note_on_c, 12, 56, 0
15, 31860, Note_on_c, 12, 56, 84
15, 31860, Note_on_c, 12, 59, 84
15, 31913, Note_on_c, 12, 56, 0
15, 31913, Note_on_c, 12, 59, 0
15, 31920, Note_on_c, 12, 56, 84
15, 31920, Note_on_c, 12, 59, 84
15, 31973, Note_on_c, 12, 56, 0
15, 31973, Note_on_c, 12, 59, 0
15, 31980, Note_on_c, 12, 59, 84
15, 31980, Note_on_c, 12, 56, 84
15, 32033, Note_on_c, 12, 59, 0
15, 32033, Note_on_c, 12, 56, 0
15, 32040, Note_on_c, 12, 56, 84
15, 32040, Note_on_c, 12, 59, 84
15, 32093, Note_on_c, 12, 56, 0
15, 32093, Note_on_c, 12, 59, 0
15, 32100, Note_on_c, 12, 56, 84
15, 32100, Note_on_c, 12, 59, 84
15, 32153, Note_on_c, 12, 56, 0
15, 32153, Note_on_c, 12, 59, 0
15, 32160, Note_on_c, 12, 56, 84
15, 32160, Note_on_c, 12, 59, 84
15, 32213, Note_on_c, 12, 56, 0
15, 32213, Note_on_c, 12, 59, 0
15, 32220, Note_on_c, 12, 59, 84
15, 32220, Note_on_c, 12, 56, 84
15, 32273, Note_on_c, 12, 59, 0
15, 32273, Note_on_c, 12, 56, 0
15, 32280, Note_on_c, 12, 56, 84
15, 32280, Note_on_c, 12, 59, 84
15, 32333, Note_on_c, 12, 56, 0
15, 32333, Note_on_c, 12, 59, 0
15, 32340, Note_on_c, 12, 56, 84
15, 32340, Note_on_c, 12, 59, 84
15, 32393, Note_on_c, 12, 56, 0
15, 32393, Note_on_c, 12, 59, 0
15, 32400, Note_on_c, 12, 56, 84
15, 32400, Note_on_c, 12, 59, 84
15, 32453, Note_on_c, 12, 56, 0
15, 32453, Note_on_c, 12, 59, 0
15, 32460, Note_on_c, 12, 59, 84
15, 32460, Note_on_c, 12, 56, 84
15, 32513, Note_on_c, 12, 59, 0
15, 32513, Note_on_c, 12, 56, 0
15, 32520, Note_on_c, 12, 56, 84
15, 32520, Note_on_c, 12, 59, 84
15, 32573, Note_on_c, 12, 56, 0
15, 32573, Note_on_c, 12, 59, 0
15, 32580, Note_on_c, 12, 56, 84
15, 32580, Note_on_c, 12, 59, 84
15, 32633, Note_on_c, 12, 56, 0
15, 32633, Note_on_c, 12, 59, 0
15, 32640, Note_on_c, 12, 56, 84
15, 32640, Note_on_c, 12, 59, 84
15, 32693, Note_on_c, 12, 56, 0
15, 32693, Note_on_c, 12, 59, 0
15, 32700, Note_on_c, 12, 56, 84
15, 32700, Note_on_c, 12, 59, 84
15, 32753, Note_on_c, 12, 56, 0
15, 32753, Note_on_c, 12, 59, 0
15, 32760, Note_on_c, 12, 59, 84
15, 32760, Note_on_c, 12, 56, 84
15, 32813, Note_on_c, 12, 59, 0
15, 32813, Note_on_c, 12, 56, 0
15, 32820, Note_on_c, 12, 59, 84
15, 32820, Note_on_c, 12, 56, 84
15, 32873, Note_on_c, 12, 59, 0
15, 32873, Note_on_c, 12, 56, 0
15, 32880, Note_on_c, 12, 56, 84
15, 32880, Note_on_c, 12, 59, 84
15, 32933, Note_on_c, 12, 56, 0
15, 32933, Note_on_c, 12, 59, 0
15, 32940, Note_on_c, 12, 56, 84
15, 32940, Note_on_c, 12, 59, 84
15, 32993, Note_on_c, 12, 56, 0
15, 32993, Note_on_c, 12, 59, 0
15, 33000, Note_on_c, 12, 59, 84
15, 33000, Note_on_c, 12, 56, 84
15, 33053, Note_on_c, 12, 59, 0
15, 33053, Note_on_c, 12, 56, 0
15, 33060, Note_on_c, 12, 59, 84
15, 33060, Note_on_c, 12, 56, 84
15, 33113, Note_on_c, 12, 59, 0
15, 33113, Note_on_c, 12, 56, 0
15, 33120, Note_on_c, 12, 56, 84
15, 33120, Note_on_c, 12, 59, 84
15, 33173, Note_on_c, 12, 56, 0
15, 33173, Note_on_c, 12, 59, 0
15, 33180, Note_on_c, 12, 59, 84
15, 33180, Note_on_c, 12, 56, 84
15, 33233, Note_on_c, 12, 59, 0
15, 33233, Note_on_c, 12, 56, 0
15, 33240, Note_on_c, 12, 56, 84
15, 33240, Note_on_c, 12, 59, 84
15, 33293, Note_on_c, 12, 56, 0
15, 33293, Note_on_c, 12, 59, 0
15, 33300, Note_on_c, 12, 56, 84
15, 33300, Note_on_c, 12, 59, 84
15, 33353, Note_on_c, 12, 56, 0
15, 33353, Note_on_c, 12, 59, 0
15, 33360, Note_on_c, 12, 56, 84
15, 33360, Note_on_c, 12, 59, 84
15, 33413, Note_on_c, 12, 56, 0
15, 33413, Note_on_c, 12, 59, 0
15, 33420, Note_on_c, 12, 59, 84
15, 33420, Note_on_c, 12, 56, 84
15, 33473, Note_on_c, 12, 59, 0
15, 33473, Note_on_c, 12, 56, 0
15, 33480, Note_on_c, 12, 56, 84
15, 33480, Note_on_c, 12, 59, 84
15, 33533, Note_on_c, 12, 56, 0
15, 33533, Note_on_c, 12, 59, 0
15, 33540, Note_on_c, 12, 59, 84
15, 33540, Note_on_c, 12, 56, 84
15, 33593, Note_on_c, 12, 59, 0
15, 33593, Note_on_c, 12, 56, 0
15, 33600, Note_on_c, 12, 73, 84
15, 33600, Note_on_c, 12, 70, 84
15, 33653, Note_on_c, 12, 73, 0
15, 33653, Note_on_c, 12, 70, 0
15, 33660, Note_on_c, 12, 61, 84
15, 33660, Note_on_c, 12, 58, 84
15, 33713, Note_on_c, 12, 61, 0
15, 33713, Note_on_c, 12, 58, 0
15, 33720, Note_on_c, 12, 61, 84
15, 33720, Note_on_c, 12, 58, 84
15, 33773, Note_on_c, 12, 61, 0
15, 33773, Note_on_c, 12, 58, 0
15, 33780, Note_on_c, 12, 58, 84
15, 33780, Note_on_c, 12, 61, 84
15, 33833, Note_on_c, 12, 58, 0
15, 33833, Note_on_c, 12, 61, 0
15, 33840, Note_on_c, 12, 58, 84
15, 33840, Note_on_c, 12, 61, 84
15, 33893, Note_on_c, 12, 58, 0
15, 33893, Note_on_c, 12, 61, 0
15, 33900, Note_on_c, 12, 58, 84
15, 33900, Note_on_c, 12, 61, 84
15, 33953, Note_on_c, 12, 58, 0
15, 33953, Note_on_c, 12, 61, 0
15, 33960, Note_on_c, 12, 61, 84
15, 33960, Note_on_c, 12, 58, 84
15, 34013, Note_on_c, 12, 61, 0
15, 34013, Note_on_c, 12, 58, 0
15, 34020, Note_on_c, 12, 61, 84
15, 34020, Note_on_c, 12, 58, 84
15, 34073, Note_on_c, 12, 61, 0
15, 34073, Note_on_c, 12, 58, 0
15, 34080, Note_on_c, 12, 61, 84
15, 34080, Note_on_c, 12, 58, 84
15, 34133, Note_on_c, 12, 61, 0
15, 34133, Note_on_c, 12, 58, 0
15, 34140, Note_on_c, 12, 61, 84
15, 34140, Note_on_c, 12, 58, 84
15, 34193, Note_on_c, 12, 61, 0
15, 34193, Note_on_c, 12, 58, 0
15, 34200, Note_on_c, 12, 61, 84
15, 34200, Note_on_c, 12, 58, 84
15, 34253, Note_on_c, 12, 61, 0
15, 34253, Note_on_c, 12, 58, 0
15, 34260, Note_on_c, 12, 58, 84
15, 34260, Note_on_c, 12, 61, 84
15, 34313, Note_on_c, 12, 58, 0
15, 34313, Note_on_c, 12, 61, 0
15, 34320, Note_on_c, 12, 61, 84
15, 34320, Note_on_c, 12, 58, 84
15, 34373, Note_on_c, 12, 61, 0
15, 34373, Note_on_c, 12, 58, 0
15, 34380, Note_on_c, 12, 61, 84
15, 34380, Note_on_c, 12, 58, 84
15, 34433, Note_on_c, 12, 61, 0
15, 34433, Note_on_c, 12, 58, 0
15, 34440, Note_on_c, 12, 61, 84
15, 34440, Note_on_c, 12, 58, 84
15, 34493, Note_on_c, 12, 61, 0
15, 34493, Note_on_c, 12, 58, 0
15, 34500, Note_on_c, 12, 61, 84
15, 34500, Note_on_c, 12, 58, 84
15, 34553, Note_on_c, 12, 61, 0
15, 34553, Note_on_c, 12, 58, 0
15, 34560, Note_on_c, 12, 58, 84
15, 34560, Note_on_c, 12, 61, 84
15, 34613, Note_on_c, 12, 58, 0
15, 34613, Note_on_c, 12, 61, 0
15, 34620, Note_on_c, 12, 61, 84
15, 34620, Note_on_c, 12, 58, 84
15, 34673, Note_on_c, 12, 61, 0
15, 34673, Note_on_c, 12, 58, 0
15, 34680, Note_on_c, 12, 58, 84
15, 34680, Note_on_c, 12, 61, 84
15, 34733, Note_on_c, 12, 58, 0
15, 34733, Note_on_c, 12, 61, 0
15, 34740, Note_on_c, 12, 58, 84
15, 34740, Note_on_c, 12, 61, 84
15, 34793, Note_on_c, 12, 58, 0
15, 34793, Note_on_c, 12, 61, 0
15, 34800, Note_on_c, 12, 58, 84
15, 34800, Note_on_c, 12, 61, 84
15, 34853, Note_on_c, 12, 58, 0
15, 34853, Note_on_c, 12, 61, 0
15, 34860, Note_on_c, 12, 61, 84
15, 34860, Note_on_c, 12, 58, 84
15, 34913, Note_on_c, 12, 61, 0
15, 34913, Note_on_c, 12, 58, 0
15, 34920, Note_on_c, 12, 61, 84
15, 34920, Note_on_c, 12, 58, 84
15, 34973, Note_on_c, 12, 61, 0
15, 34973, Note_on_c, 12, 58, 0
15, 34980, Note_on_c, 12, 58, 84
15, 34980, Note_on_c, 12, 61, 84
15, 35033, Note_on_c, 12, 58, 0
15, 35033, Note_on_c, 12, 61, 0
15, 35040, Note_on_c, 12, 61, 84
15, 35040, Note_on_c, 12, 58, 84
15, 35093, Note_on_c, 12, 61, 0
15, 35093, Note_on_c, 12, 58, 0
15, 35100, Note_on_c, 12, 58, 84
15, 35100, Note_on_c, 12, 61, 84
15, 35153, Note_on_c, 12, 58, 0
15, 35153, Note_on_c, 12, 61, 0
15, 35160, Note_on_c, 12, 58, 84
15, 35160, Note_on_c, 12, 61, 84
15, 35213, Note_on_c, 12, 58, 0
15, 35213, Note_on_c, 12, 61, 0
15, 35220, Note_on_c, 12, 61, 84
15, 35220, Note_on_c, 12, 58, 84
15, 35273, Note_on_c, 12, 61, 0
15, 35273, Note_on_c, 12, 58, 0
15, 35280, Note_on_c, 12, 61, 84
15, 35280, Note_on_c, 12, 58, 84
15, 35333, Note_on_c, 12, 61, 0
15, 35333, Note_on_c, 12, 58, 0
15, 35340, Note_on_c, 12, 58, 84
15, 35340, Note_on_c, 12, 61, 84
15, 35393, Note_on_c, 12, 58, 0
15, 35393, Note_on_c, 12, 61, 0
15, 35400, Note_on_c, 12, 61, 84
15, 35400, Note_on_c, 12, 58, 84
15, 35453, Note_on_c, 12, 61, 0
15, 35453, Note_on_c, 12, 58, 0
15, 35460, Note_on_c, 12, 61, 84
15, 35460, Note_on_c, 12, 58, 84
15, 35513, Note_on_c, 12, 61, 0
15, 35513, Note_on_c, 12, 58, 0
15, 35520, Note_on_c, 12, 59, 84
15, 35520, Note_on_c, 12, 71, 84
15, 35573, Note_on_c, 12, 59, 0
15, 35573, Note_on_c, 12, 71, 0
15, 35580, Note_on_c, 12, 55, 84
15, 35580, Note_on_c, 12, 52, 84
15, 35633, Note_on_c, 12, 55, 0
15, 35633, Note_on_c, 12, 52, 0
15, 35640, Note_on_c, 12, 55, 84
15, 35640, Note_on_c, 12, 52, 84
15, 35693, Note_on_c, 12, 55, 0
15, 35693, Note_on_c, 12, 52, 0
15, 35700, Note_on_c, 12, 52, 84
15, 35700, Note_on_c, 12, 55, 84
15, 35753, Note_on_c, 12, 52, 0
15, 35753, Note_on_c, 12, 55, 0
15, 35760, Note_on_c, 12, 55, 84
15, 35760, Note_on_c, 12, 52, 84
15, 35813, Note_on_c, 12, 55, 0
15, 35813, Note_on_c, 12, 52, 0
15, 35820, Note_on_c, 12, 55, 84
15, 35820, Note_on_c, 12, 52, 84
15, 35873, Note_on_c, 12, 55, 0
15, 35873, Note_on_c, 12, 52, 0
15, 35880, Note_on_c, 12, 55, 84
15, 35880, Note_on_c, 12, 52, 84
15, 35933, Note_on_c, 12, 55, 0
15, 35933, Note_on_c, 12, 52, 0
15, 35940, Note_on_c, 12, 52, 84
15, 35940, Note_on_c, 12, 55, 84
15, 35993, Note_on_c, 12, 52, 0
15, 35993, Note_on_c, 12, 55, 0
15, 36000, Note_on_c, 12, 55, 84
15, 36000, Note_on_c, 12, 52, 84
15, 36053, Note_on_c, 12, 55, 0
15, 36053, Note_on_c, 12, 52, 0
15, 36060, Note_on_c, 12, 52, 84
15, 36060, Note_on_c, 12, 55, 84
15, 36113, Note_on_c, 12, 52, 0
15, 36113, Note_on_c, 12, 55, 0
15, 36120, Note_on_c, 12, 55, 84
15, 36120, Note_on_c, 12, 52, 84
15, 36173, Note_on_c, 12, 55, 0
15, 36173, Note_on_c, 12, 52, 0
15, 36180, Note_on_c, 12, 55, 84
15, 36180, Note_on_c, 12, 52, 84
15, 36233, Note_on_c, 12, 55, 0
15, 36233, Note_on_c, 12, 52, 0
15, 36240, Note_on_c, 12, 55, 84
15, 36240, Note_on_c, 12, 52, 84
15, 36293, Note_on_c, 12, 55, 0
15, 36293, Note_on_c, 12, 52, 0
15, 36300, Note_on_c, 12, 55, 84
15, 36300, Note_on_c, 12, 52, 84
15, 36353, Note_on_c, 12, 55, 0
15, 36353, Note_on_c, 12, 52, 0
15, 36360, Note_on_c, 12, 55, 84
15, 36360, Note_on_c, 12, 52, 84
15, 36413, Note_on_c, 12, 55, 0
15, 36413, Note_on_c, 12, 52, 0
15, 36420, Note_on_c, 12, 52, 84
15, 36420, Note_on_c, 12, 55, 84
15, 36473, Note_on_c, 12, 52, 0
15, 36473, Note_on_c, 12, 55, 0
15, 36480, Note_on_c, 12, 55, 84
15, 36480, Note_on_c, 12, 52, 84
15, 36533, Note_on_c, 12, 55, 0
15, 36533, Note_on_c, 12, 52, 0
15, 36540, Note_on_c, 12, 52, 84
15, 36540, Note_on_c, 12, 55, 84
15, 36593, Note_on_c, 12, 52, 0
15, 36593, Note_on_c, 12, 55, 0
15, 36600, Note_on_c, 12, 55, 84
15, 36600, Note_on_c, 12, 52, 84
15, 36653, Note_on_c, 12, 55, 0
15, 36653, Note_on_c, 12, 52, 0
15, 36660, Note_on_c, 12, 55, 84
15, 36660, Note_on_c, 12, 52, 84
15, 36713, Note_on_c, 12, 55, 0
15, 36713, Note_on_c, 12, 52, 0
15, 36720, Note_on_c, 12, 55, 84
15, 36720, Note_on_c, 12, 52, 84
15, 36773, Note_on_c, 12, 55, 0
15, 36773, Note_on_c, 12, 52, 0
15, 36780, Note_on_c, 12, 55, 84
15, 36780, Note_on_c, 12, 52, 84
15, 36833, Note_on_c, 12, 55, 0
15, 36833, Note_on_c, 12, 52, 0
15, 36840, Note_on_c, 12, 52, 84
15, 36840, Note_on_c, 12, 55, 84
15, 36893, Note_on_c, 12, 52, 0
15, 36893, Note_on_c, 12, 55, 0
15, 36900, Note_on_c, 12, 52, 84
15, 36900, Note_on_c, 12, 55, 84
15, 36953, Note_on_c, 12, 52, 0
15, 36953, Note_on_c, 12, 55, 0
15, 36960, Note_on_c, 12, 55, 84
15, 36960, Note_on_c, 12, 52, 84
15, 37013, Note_on_c, 12, 55, 0
15, 37013, Note_on_c, 12, 52, 0
15, 37020, Note_on_c, 12, 52, 84
15, 37020, Note_on_c, 12, 55, 84
15, 37073, Note_on_c, 12, 52, 0
15, 37073, Note_on_c, 12, 55, 0
15, 37080, Note_on_c, 12, 52, 84
15, 37080, Note_on_c, 12, 55, 84
15, 37133, Note_on_c, 12, 52, 0
15, 37133, Note_on_c, 12, 55, 0
15, 37140, Note_on_c, 12, 52, 84
15, 37140, Note_on_c, 12, 55, 84
15, 37193, Note_on_c, 12, 52, 0
15, 37193, Note_on_c, 12, 55, 0
15, 37200, Note_on_c, 12, 55, 84
15, 37200, Note_on_c, 12, 52, 84
15, 37253, Note_on_c, 12, 55, 0
15, 37253, Note_on_c, 12, 52, 0
15, 37260, Note_on_c, 12, 52, 84
15, 37260, Note_on_c, 12, 55, 84
15, 37313, Note_on_c, 12, 52, 0
15, 37313, Note_on_c, 12, 55, 0
15, 37320, Note_on_c, 12, 55, 84
15, 37320, Note_on_c, 12, 52, 84
15, 37373, Note_on_c, 12, 55, 0
15, 37373, Note_on_c, 12, 52, 0
15, 37380, Note_on_c, 12, 52, 84
15, 37380, Note_on_c, 12, 55, 84
15, 37433, Note_on_c, 12, 52, 0
15, 37433, Note_on_c, 12, 55, 0
15, 37440, Note_on_c, 12, 67, 84
15, 37440, Note_on_c, 12, 64, 84
15, 37493, Note_on_c, 12, 67, 0
15, 37493, Note_on_c, 12, 64, 0
15, 37500, Note_on_c, 12, 55, 84
15, 37500, Note_on_c, 12, 52, 84
15, 37553, Note_on_c, 12, 55, 0
15, 37553, Note_on_c, 12, 52, 0
15, 37560, Note_on_c, 12, 55, 84
15, 37560, Note_on_c, 12, 52, 84
15, 37613, Note_on_c, 12, 55, 0
15, 37613, Note_on_c, 12, 52, 0
15, 37620, Note_on_c, 12, 55, 84
15, 37620, Note_on_c, 12, 52, 84
15, 37673, Note_on_c, 12, 55, 0
15, 37673, Note_on_c, 12, 52, 0
15, 37680, Note_on_c, 12, 55, 84
15, 37680, Note_on_c, 12, 52, 84
15, 37733, Note_on_c, 12, 55, 0
15, 37733, Note_on_c, 12, 52, 0
15, 37740, Note_on_c, 12, 52, 84
15, 37740, Note_on_c, 12, 55, 84
15, 37793, Note_on_c, 12, 52, 0
15, 37793, Note_on_c, 12, 55, 0
15, 37800, Note_on_c, 12, 52, 84
15, 37800, Note_on_c, 12, 55, 84
15, 37853, Note_on_c, 12, 52, 0
15, 37853, Note_on_c, 12, 55, 0
15, 37860, Note_on_c, 12, 55, 84
15, 37860, Note_on_c, 12, 52, 84
15, 37913, Note_on_c, 12, 55, 0
15, 37913, Note_on_c, 12, 52, 0
15, 37920, Note_on_c, 12, 52, 84
15, 37920, Note_on_c, 12, 55, 84
15, 37973, Note_on_c, 12, 52, 0
15, 37973, Note_on_c, 12, 55, 0
15, 37980, Note_on_c, 12, 52, 84
15, 37980, Note_on_c, 12, 55, 84
15, 38033, Note_on_c, 12, 52, 0
15, 38033, Note_on_c, 12, 55, 0
15, 38040, Note_on_c, 12, 55, 84
15, 38040, Note_on_c, 12, 52, 84
15, 38093, Note_on_c, 12, 55, 0
15, 38093, Note_on_c, 12, 52, 0
15, 38100, Note_on_c, 12, 52, 84
15, 38100, Note_on_c, 12, 55, 84
15, 38153, Note_on_c, 12, 52, 0
15, 38153, Note_on_c, 12, 55, 0
15, 38160, Note_on_c, 12, 55, 84
15, 38160, Note_on_c, 12, 52, 84
15, 38213, Note_on_c, 12, 55, 0
15, 38213, Note_on_c, 12, 52, 0
15, 38220, Note_on_c, 12, 52, 84
15, 38220, Note_on_c, 12, 55, 84
15, 38273, Note_on_c, 12, 52, 0
15, 38273, Note_on_c, 12, 55, 0
15, 38280, Note_on_c, 12, 55, 84
15, 38280, Note_on_c, 12, 52, 84
15, 38333, Note_on_c, 12, 55, 0
15, 38333, Note_on_c, 12, 52, 0
15, 38340, Note_on_c, 12, 55, 84
15, 38340, Note_on_c, 12, 52, 84
15, 38393, Note_on_c, 12, 55, 0
15, 38393, Note_on_c, 12, 52, 0
15, 38400, Note_on_c, 12, 52, 84
15, 38400, Note_on_c, 12, 55, 84
15, 38453, Note_on_c, 12, 52, 0
15, 38453, Note_on_c, 12, 55, 0
15, 38460, Note_on_c, 12, 55, 82
15, 38460, Note_on_c, 12, 52, 82
15, 38513, Note_on_c, 12, 55, 0
15, 38513, Note_on_c, 12, 52, 0
15, 38520, Note_on_c, 12, 52, 80
15, 38520, Note_on_c, 12, 55, 80
15, 38573, Note_on_c, 12, 52, 0
15, 38573, Note_on_c, 12, 55, 0
15, 38580, Note_on_c, 12, 55, 78
15, 38580, Note_on_c, 12, 52, 78
15, 38633, Note_on_c, 12, 55, 0
15, 38633, Note_on_c, 12, 52, 0
15, 38640, Note_on_c, 12, 52, 76
15, 38640, Note_on_c, 12, 55, 76
15, 38693, Note_on_c, 12, 52, 0
15, 38693, Note_on_c, 12, 55, 0
15, 38700, Note_on_c, 12, 52, 74
15, 38700, Note_on_c, 12, 55, 74
15, 38753, Note_on_c, 12, 52, 0
15, 38753, Note_on_c, 12, 55, 0
15, 38760, Note_on_c, 12, 52, 72
15, 38760, Note_on_c, 12, 55, 72
15, 38813, Note_on_c, 12, 52, 0
15, 38813, Note_on_c, 12, 55, 0
15, 38820, Note_on_c, 12, 55, 70
15, 38820, Note_on_c, 12, 52, 70
15, 38873, Note_on_c, 12, 55, 0
15, 38873, Note_on_c, 12, 52, 0
15, 38880, Note_on_c, 12, 52, 68
15, 38880, Note_on_c, 12, 55, 68
15, 38933, Note_on_c, 12, 52, 0
15, 38933, Note_on_c, 12, 55, 0
15, 38940, Note_on_c, 12, 55, 66
15, 38940, Note_on_c, 12, 52, 66
15, 38993, Note_on_c, 12, 55, 0
15, 38993, Note_on_c, 12, 52, 0
15, 39000, Note_on_c, 12, 52, 64
15, 39000, Note_on_c, 12, 55, 64
15, 39053, Note_on_c, 12, 52, 0
15, 39053, Note_on_c, 12, 55, 0
15, 39060, Note_on_c, 12, 52, 62
15, 39060, Note_on_c, 12, 55, 62
15, 39113, Note_on_c, 12, 52, 0
15, 39113, Note_on_c, 12, 55, 0
15, 39120, Note_on_c, 12, 55, 60
15, 39120, Note_on_c, 12, 52, 60
15, 39173, Note_on_c, 12, 55, 0
15, 39173, Note_on_c, 12, 52, 0
15, 39180, Note_on_c, 12, 55, 58
15, 39180, Note_on_c, 12, 52, 58
15, 39233, Note_on_c, 12, 55, 0
15, 39233, Note_on_c, 12, 52, 0
15, 39240, Note_on_c, 12, 55, 56
15, 39240, Note_on_c, 12, 52, 56
15, 39293, Note_on_c, 12, 55, 0
15, 39293, Note_on_c, 12, 52, 0
15, 39300, Note_on_c, 12, 55, 54
15, 39300, Note_on_c, 12, 52, 54
15, 39353, Note_on_c, 12, 55, 0
15, 39353, Note_on_c, 12, 52, 0
15, 39360, Note_on_c, 12, 55, 52
15, 39360, Note_on_c, 12, 52, 52
15, 40309, Note_on_c, 12, 55, 0
15, 40309, Note_on_c, 12, 52, 0
15, 40320, Note_on_c, 12, 53, 52
15, 40320, Note_on_c, 12, 57, 52
15, 40679, Note_on_c, 12, 53, 0
15, 40679, Note_on_c, 12, 57, 0
15, 40740, Note_on_c, 12, 53, 52
15, 40740, Note_on_c, 12, 57, 52
15, 40793, Note_on_c, 12, 53, 0
15, 40793, Note_on_c, 12, 57, 0
15, 40800, Note_on_c, 12, 53, 52
15, 40800, Note_on_c, 12, 57, 52
15, 41159, Note_on_c, 12, 53, 0
15, 41159, Note_on_c, 12, 57, 0
15, 41220, Note_on_c, 12, 53, 52
15, 41220, Note_on_c, 12, 57, 52
15, 41273, Note_on_c, 12, 53, 0
15, 41273, Note_on_c, 12, 57, 0
15, 41280, Note_on_c, 12, 55, 52
15, 41280, Note_on_c, 12, 52, 52
15, 42229, Note_on_c, 12, 55, 0
15, 42229, Note_on_c, 12, 52, 0
15, 42240, Note_on_c, 12, 57, 52
15, 42240, Note_on_c, 12, 53, 52
15, 42599, Note_on_c, 12, 57, 0
15, 42599, Note_on_c, 12, 53, 0
15, 42660, Note_on_c, 12, 53, 52
15, 42660, Note_on_c, 12, 57, 52
15, 42713, Note_on_c, 12, 53, 0
15, 42713, Note_on_c, 12, 57, 0
15, 42720, Note_on_c, 12, 57, 52
15, 42720, Note_on_c, 12, 53, 52
15, 43079, Note_on_c, 12, 57, 0
15, 43079, Note_on_c, 12, 53, 0
15, 43140, Note_on_c, 12, 53, 52
15, 43140, Note_on_c, 12, 57, 52
15, 43193, Note_on_c, 12, 53, 0
15, 43193, Note_on_c, 12, 57, 0
15, 43200, Note_on_c, 12, 53, 52
15, 43200, Note_on_c, 12, 55, 52
15, 43559, Note_on_c, 12, 53, 0
15, 43559, Note_on_c, 12, 55, 0
15, 43620, Note_on_c, 12, 55, 52
15, 43620, Note_on_c, 12, 53, 52
15, 43673, Note_on_c, 12, 55, 0
15, 43673, Note_on_c, 12, 53, 0
15, 43680, Note_on_c, 12, 53, 52
15, 43680, Note_on_c, 12, 55, 52
15, 44039, Note_on_c, 12, 53, 0
15, 44039, Note_on_c, 12, 55, 0
15, 44100, Note_on_c, 12, 53, 52
15, 44100, Note_on_c, 12, 55, 52
15, 44153, Note_on_c, 12, 53, 0
15, 44153, Note_on_c, 12, 55, 0
15, 44160, Note_on_c, 12, 53, 52
15, 44160, Note_on_c, 12, 57, 52
15, 44519, Note_on_c, 12, 53, 0
15, 44519, Note_on_c, 12, 57, 0
15, 44580, Note_on_c, 12, 53, 52
15, 44580, Note_on_c, 12, 57, 52
15, 44633, Note_on_c, 12, 53, 0
15, 44633, Note_on_c, 12, 57, 0
15, 44640, Note_on_c, 12, 55, 52
15, 44640, Note_on_c, 12, 52, 52
15, 44999, Note_on_c, 12, 55, 0
15, 44999, Note_on_c, 12, 52, 0
15, 45120, Note_on_c, 12, 55, 44
15, 46069, Note_on_c, 12, 55, 0
15, 46078, Control_c, 12, 11, 48
15, 46080, Note_on_c, 12, 57, 84
15, 46129, Control_c, 12, 11, 49
15, 46177, Control_c, 12, 11, 50
15, 46226, Control_c, 12, 11, 51
15, 46274, Control_c, 12, 11, 52
15, 46319, Note_on_c, 12, 57, 0
15, 46320, Note_on_c, 12, 53, 84
15, 46323, Control_c, 12, 11, 53
15, 46372, Control_c, 12, 11, 54
15, 46420, Control_c, 12, 11, 55
15, 46439, Note_on_c, 12, 53, 0
15, 46469, Control_c, 12, 11, 56
15, 46500, Note_on_c, 12, 53, 84
15, 46517, Control_c, 12, 11, 57
15, 46553, Note_on_c, 12, 53, 0
15, 46560, Note_on_c, 12, 48, 84
15, 46566, Control_c, 12, 11, 58
15, 46615, Control_c, 12, 11, 59
15, 46663, Control_c, 12, 11, 60
15, 46712, Control_c, 12, 11, 61
15, 46761, Control_c, 12, 11, 62
15, 46799, Note_on_c, 12, 48, 0
15, 46800, Note_on_c, 12, 53, 84
15, 46809, Control_c, 12, 11, 63
15, 46858, Control_c, 12, 11, 64
15, 46906, Control_c, 12, 11, 65
15, 46919, Note_on_c, 12, 53, 0
15, 46955, Control_c, 12, 11, 66
15, 46980, Note_on_c, 12, 53, 84
15, 47004, Control_c, 12, 11, 67
15, 47033, Note_on_c, 12, 53, 0
15, 47040, Note_on_c, 12, 57, 84
15, 47052, Control_c, 12, 11, 68
15, 47101, Control_c, 12, 11, 69
15, 47149, Control_c, 12, 11, 70
15, 47198, Control_c, 12, 11, 71
15, 47247, Control_c, 12, 11, 72
15, 47279, Note_on_c, 12, 57, 0
15, 47280, Note_on_c, 12, 53, 84
15, 47295, Control_c, 12, 11, 73
15, 47344, Control_c, 12, 11, 74
15, 47392, Control_c, 12, 11, 75
15, 47399, Note_on_c, 12, 53, 0
15, 47441, Control_c, 12, 11, 76
15, 47460, Note_on_c, 12, 53, 84
15, 47490, Control_c, 12, 11, 77
15, 47513, Note_on_c, 12, 53, 0
15, 47520, Note_on_c, 12, 48, 84
15, 47538, Control_c, 12, 11, 78
15, 47587, Control_c, 12, 11, 79
15, 47635, Control_c, 12, 11, 80
15, 47684, Control_c, 12, 11, 81
15, 47733, Control_c, 12, 11, 82
15, 47759, Note_on_c, 12, 48, 0
15, 47760, Note_on_c, 12, 53, 84
15, 47781, Control_c, 12, 11, 83
15, 47830, Control_c, 12, 11, 84
15, 47878, Control_c, 12, 11, 85
15, 47879, Note_on_c, 12, 53, 0
15, 47927, Control_c, 12, 11, 86
15, 47940, Note_on_c, 12, 53, 84
15, 47976, Control_c, 12, 11, 87
15, 47993, Note_on_c, 12, 53, 0
15, 48000, Note_on_c, 12, 60, 84
15, 48024, Control_c, 12, 11, 88
15, 48073, Control_c, 12, 11, 89
15, 48122, Control_c, 12, 11, 90
15, 48170, Control_c, 12, 11, 91
15, 48219, Control_c, 12, 11, 92
15, 48239, Note_on_c, 12, 60, 0
15, 48240, Note_on_c, 12, 57, 84
15, 48267, Control_c, 12, 11, 93
15, 48316, Control_c, 12, 11, 94
15, 48359, Note_on_c, 12, 57, 0
15, 48365, Control_c, 12, 11, 95
15, 48413, Control_c, 12, 11, 96
15, 48420, Note_on_c, 12, 57, 84
15, 48462, Control_c, 12, 11, 97
15, 48473, Note_on_c, 12, 57, 0
15, 48480, Note_on_c, 12, 53, 84
15, 48510, Control_c, 12, 11, 98
15, 48559, Control_c, 12, 11, 99
15, 48608, Control_c, 12, 11, 100
15, 48656, Control_c, 12, 11, 101
15, 48705, Control_c, 12, 11, 102
15, 48719, Note_on_c, 12, 53, 0
15, 48720, Note_on_c, 12, 57, 84
15, 48753, Control_c, 12, 11, 103
15, 48802, Control_c, 12, 11, 104
15, 48839, Note_on_c, 12, 57, 0
15, 48851, Control_c, 12, 11, 105
15, 48899, Control_c, 12, 11, 106
15, 48900, Note_on_c, 12, 57, 84
15, 48948, Control_c, 12, 11, 107
15, 48953, Note_on_c, 12, 57, 0
15, 48960, Note_on_c, 12, 65, 84
15, 48996, Control_c, 12, 11, 108
15, 49045, Control_c, 12, 11, 109
15, 49094, Control_c, 12, 11, 110
15, 49142, Control_c, 12, 11, 111
15, 49191, Control_c, 12, 11, 112
15, 49199, Note_on_c, 12, 65, 0
15, 49200, Note_on_c, 12, 60, 84
15, 49239, Control_c, 12, 11, 113
15, 49288, Control_c, 12, 11, 114
15, 49319, Note_on_c, 12, 60, 0
15, 49337, Control_c, 12, 11, 115
15, 49380, Note_on_c, 12, 60, 84
15, 49385, Control_c, 12, 11, 116
15, 49433, Note_on_c, 12, 60, 0
15, 49434, Control_c, 12, 11, 117
15, 49440, Note_on_c, 12, 57, 84
15, 49483, Control_c, 12, 11, 118
15, 49531, Control_c, 12, 11, 119
15, 49580, Control_c, 12, 11, 120
15, 49628, Control_c, 12, 11, 121
15, 49677, Control_c, 12, 11, 122
15, 49679, Note_on_c, 12, 57, 0
15, 49680, Note_on_c, 12, 53, 84
15, 49726, Control_c, 12, 11, 123
15, 49774, Control_c, 12, 11, 124
15, 49799, Note_on_c, 12, 53, 0
15, 49823, Control_c, 12, 11, 125
15, 49860, Note_on_c, 12, 53, 84
15, 49871, Control_c, 12, 11, 127
15, 49913, Note_on_c, 12, 53, 0
15, 49920, Note_on_c, 12, 52, 84
15, 50039, Note_on_c, 12, 52, 0
15, 51360, Note_on_c, 12, 64, 52
15, 51599, Note_on_c, 12, 64, 0
15, 51600, Note_on_c, 12, 59, 52
15, 51829, Note_on_c, 12, 59, 0
15, 51840, Note_on_c, 12, 52, 76
15, 51893, Note_on_c, 12, 52, 0
15, 51900, Note_on_c, 12, 64, 52
15, 51953, Note_on_c, 12, 64, 0
15, 51960, Note_on_c, 12, 52, 52
15, 52013, Note_on_c, 12, 52, 0
15, 52020, Note_on_c, 12, 52, 52
15, 52073, Note_on_c, 12, 52, 0
15, 52080, Note_on_c, 12, 52, 52
15, 52133, Note_on_c, 12, 52, 0
15, 52140, Note_on_c, 12, 52, 52
15, 52193, Note_on_c, 12, 52, 0
15, 52200, Note_on_c, 12, 52, 52
15, 52253, Note_on_c, 12, 52, 0
15, 52260, Note_on_c, 12, 52, 52
15, 52313, Note_on_c, 12, 52, 0
15, 52320, Note_on_c, 12, 52, 52
15, 52439, Note_on_c, 12, 52, 0
15, 53280, Note_on_c, 12, 64, 52
15, 53519, Note_on_c, 12, 64, 0
15, 53520, Note_on_c, 12, 59, 52
15, 53759, Note_on_c, 12, 59, 0
15, 53760, Note_on_c, 12, 52, 52
15, 53999, Note_on_c, 12, 52, 0
15, 62340, Note_on_c, 12, 57, 52
15, 62391, Note_on_c, 12, 57, 0
15, 62400, Note_on_c, 12, 57, 52
15, 62639, Note_on_c, 12, 57, 0
15, 63780, Note_on_c, 12, 57, 52
15, 63831, Note_on_c, 12, 57, 0
15, 63840, Note_on_c, 12, 57, 52
15, 64079, Note_on_c, 12, 57, 0
15, 65220, Note_on_c, 12, 57, 52
15, 65271, Note_on_c, 12, 57, 0
15, 65280, Note_on_c, 12, 57, 52
15, 65519, Note_on_c, 12, 57, 0
15, 66660, Note_on_c, 12, 57, 52
15, 66711, Note_on_c, 12, 57, 0
15, 66720, Note_on_c, 12, 57, 52
15, 66839, Note_on_c, 12, 57, 0
15, 66960, Note_on_c, 12, 49, 52
15, 67064, Note_on_c, 12, 49, 0
15, 67080, Note_on_c, 12, 52, 52
15, 67199, Note_on_c, 12, 52, 0
15, 67320, Note_on_c, 12, 52, 52
15, 67424, Note_on_c, 12, 52, 0
15, 67440, Note_on_c, 12, 57, 52
15, 67679, Note_on_c, 12, 57, 0
15, 68820, Note_on_c, 12, 57, 52
15, 68871, Note_on_c, 12, 57, 0
15, 68880, Note_on_c, 12, 57, 52
15, 69119, Note_on_c, 12, 57, 0
15, 69480, Note_on_c, 12, 52, 52
15, 69584, Note_on_c, 12, 52, 0
15, 69600, Note_on_c, 12, 54, 68
15, 69719, Note_on_c, 12, 54, 0
15, 69720, Note_on_c, 12, 52, 52
15, 69824, Note_on_c, 12, 52, 0
15, 69840, Note_on_c, 12, 49, 52
15, 69929, Note_on_c, 12, 49, 0
15, 69960, Note_on_c, 12, 57, 52
15, 70199, Note_on_c, 12, 57, 0
15, 70980, Note_on_c, 12, 57, 52
15, 71031, Note_on_c, 12, 57, 0
15, 71040, Note_on_c, 12, 57, 52
15, 71279, Note_on_c, 12, 57, 0
15, 71640, Note_on_c, 12, 52, 52
15, 71744, Note_on_c, 12, 52, 0
15, 71760, Note_on_c, 12, 54, 68
15, 71879, Note_on_c, 12, 54, 0
15, 71880, Note_on_c, 12, 52, 52
15, 71984, Note_on_c, 12, 52, 0
15, 72000, Note_on_c, 12, 49, 52
15, 72089, Note_on_c, 12, 49, 0
15, 72120, Note_on_c, 12, 57, 52
15, 72359, Note_on_c, 12, 57, 0
15, 73140, Note_on_c, 12, 52, 52
15, 73191, Note_on_c, 12, 52, 0
15, 73200, Note_on_c, 12, 52, 76
15, 73240, Control_c, 12, 11, 123
15, 73280, Control_c, 12, 11, 119
15, 73320, Control_c, 12, 11, 115
15, 73360, Control_c, 12, 11, 111
15, 73400, Control_c, 12, 11, 107
15, 73440, Control_c, 12, 11, 104
15, 73480, Control_c, 12, 11, 100
15, 73520, Control_c, 12, 11, 96
15, 73560, Control_c, 12, 11, 92
15, 73600, Control_c, 12, 11, 88
15, 73640, Control_c, 12, 11, 84
15, 73680, Control_c, 12, 11, 80
15, 73799, Note_on_c, 12, 52, 0
15, 74280, Control_c, 12, 11, 127
15, 74580, Note_on_c, 12, 52, 52
15, 74631, Note_on_c, 12, 52, 0
15, 74640, Note_on_c, 12, 52, 76
15, 75171, Note_on_c, 12, 52, 0
15, 75180, Note_on_c, 12, 61, 76
15, 75224, Note_on_c, 12, 61, 0
15, 75240, Note_on_c, 12, 57, 76
15, 75329, Note_on_c, 12, 57, 0
15, 75360, Note_on_c, 12, 64, 84
15, 75419, Note_on_c, 12, 64, 0
15, 75420, Note_on_c, 12, 64, 76
15, 75891, Note_on_c, 12, 64, 0
15, 75900, Note_on_c, 12, 61, 76
15, 75944, Note_on_c, 12, 61, 0
15, 75960, Note_on_c, 12, 58, 76
15, 76049, Note_on_c, 12, 58, 0
15, 76080, Note_on_c, 12, 64, 84
15, 76139, Note_on_c, 12, 64, 0
15, 76140, Note_on_c, 12, 64, 76
15, 76199, Note_on_c, 12, 64, 0
15, 76260, Note_on_c, 12, 62, 76
15, 76304, Note_on_c, 12, 62, 0
15, 76320, Note_on_c, 12, 59, 76
15, 76409, Note_on_c, 12, 59, 0
15, 76440, Note_on_c, 12, 68, 84
15, 76499, Note_on_c, 12, 68, 0
15, 76500, Note_on_c, 12, 68, 76
15, 76559, Note_on_c, 12, 68, 0
15, 76620, Note_on_c, 12, 64, 76
15, 76664, Note_on_c, 12, 64, 0
15, 76680, Note_on_c, 12, 62, 76
15, 76769, Note_on_c, 12, 62, 0
15, 76800, Note_on_c, 12, 71, 84
15, 76859, Note_on_c, 12, 71, 0
15, 76860, Note_on_c, 12, 71, 76
15, 76919, Note_on_c, 12, 71, 0
15, 76980, Note_on_c, 12, 68, 76
15, 77024, Note_on_c, 12, 68, 0
15, 77040, Note_on_c, 12, 64, 76
15, 77129, Note_on_c, 12, 64, 0
15, 77160, Note_on_c, 12, 74, 84
15, 77219, Note_on_c, 12, 74, 0
15, 77220, Note_on_c, 12, 74, 76
15, 77279, Note_on_c, 12, 74, 0
15, 77340, Note_on_c, 12, 71, 76
15, 77384, Note_on_c, 12, 71, 0
15, 77400, Note_on_c, 12, 68, 76
15, 77489, Note_on_c, 12, 68, 0
15, 77520, Note_on_c, 12, 68, 76
15, 77520, Note_on_c, 12, 59, 76
15, 77864, Note_on_c, 12, 68, 0
15, 77864, Note_on_c, 12, 59, 0
15, 77880, Note_on_c, 12, 52, 84
15, 77939, Note_on_c, 12, 52, 0
15, 77940, Note_on_c, 12, 54, 84
15, 77999, Note_on_c, 12, 54, 0
15, 78000, Note_on_c, 12, 56, 84
15, 78059, Note_on_c, 12, 56, 0
15, 78060, Note_on_c, 12, 57, 84
15, 78119, Note_on_c, 12, 57, 0
15, 78120, Note_on_c, 12, 59, 84
15, 78159, Note_on_c, 12, 59, 0
15, 78160, Note_on_c, 12, 61, 84
15, 78199, Note_on_c, 12, 61, 0
15, 78200, Note_on_c, 12, 62, 84
15, 78231, Note_on_c, 12, 62, 0
15, 78240, Note_on_c, 12, 64, 92
15, 78291, Note_on_c, 12, 64, 0
15, 78300, Note_on_c, 12, 57, 84
15, 78351, Note_on_c, 12, 57, 0
15, 78360, Note_on_c, 12, 59, 84
15, 78411, Note_on_c, 12, 59, 0
15, 78420, Note_on_c, 12, 61, 84
15, 78471, Note_on_c, 12, 61, 0
15, 78480, Note_on_c, 12, 61, 84
15, 78531, Note_on_c, 12, 61, 0
15, 78540, Note_on_c, 12, 61, 84
15, 78591, Note_on_c, 12, 61, 0
15, 78600, Note_on_c, 12, 57, 84
15, 78659, Note_on_c, 12, 57, 0
15, 78660, Note_on_c, 12, 59, 84
15, 78711, Note_on_c, 12, 59, 0
15, 78720, Note_on_c, 12, 61, 84
15, 78771, Note_on_c, 12, 61, 0
15, 78780, Note_on_c, 12, 61, 84
15, 78831, Note_on_c, 12, 61, 0
15, 78840, Note_on_c, 12, 61, 84
15, 78891, Note_on_c, 12, 61, 0
15, 78900, Note_on_c, 12, 61, 84
15, 78951, Note_on_c, 12, 61, 0
15, 78960, Note_on_c, 12, 54, 84
15, 79019, Note_on_c, 12, 54, 0
15, 79020, Note_on_c, 12, 55, 84
15, 79071, Note_on_c, 12, 55, 0
15, 79080, Note_on_c, 12, 57, 84
15, 79131, Note_on_c, 12, 57, 0
15, 79140, Note_on_c, 12, 57, 84
15, 79191, Note_on_c, 12, 57, 0
15, 79200, Note_on_c, 12, 57, 84
15, 79251, Note_on_c, 12, 57, 0
15, 79260, Note_on_c, 12, 57, 84
15, 79311, Note_on_c, 12, 57, 0
15, 79320, Note_on_c, 12, 54, 84
15, 79379, Note_on_c, 12, 54, 0
15, 79380, Note_on_c, 12, 55, 84
15, 79431, Note_on_c, 12, 55, 0
15, 79440, Note_on_c, 12, 57, 84
15, 79491, Note_on_c, 12, 57, 0
15, 79500, Note_on_c, 12, 57, 84
15, 79551, Note_on_c, 12, 57, 0
15, 79560, Note_on_c, 12, 59, 84
15, 79611, Note_on_c, 12, 59, 0
15, 79620, Note_on_c, 12, 59, 84
15, 79671, Note_on_c, 12, 59, 0
15, 79680, Note_on_c, 12, 57, 84
15, 79739, Note_on_c, 12, 57, 0
15, 79740, Note_on_c, 12, 59, 84
15, 79791, Note_on_c, 12, 59, 0
15, 79800, Note_on_c, 12, 61, 84
15, 79851, Note_on_c, 12, 61, 0
15, 79860, Note_on_c, 12, 61, 84
15, 79911, Note_on_c, 12, 61, 0
15, 79920, Note_on_c, 12, 61, 84
15, 79971, Note_on_c, 12, 61, 0
15, 79980, Note_on_c, 12, 61, 84
15, 80031, Note_on_c, 12, 61, 0
15, 80040, Note_on_c, 12, 49, 84
15, 80099, Note_on_c, 12, 49, 0
15, 80100, Note_on_c, 12, 52, 84
15, 80151, Note_on_c, 12, 52, 0
15, 80160, Note_on_c, 12, 57, 84
15, 80211, Note_on_c, 12, 57, 0
15, 80220, Note_on_c, 12, 57, 84
15, 80271, Note_on_c, 12, 57, 0
15, 80280, Note_on_c, 12, 57, 84
15, 80331, Note_on_c, 12, 57, 0
15, 80340, Note_on_c, 12, 57, 84
15, 80391, Note_on_c, 12, 57, 0
15, 80400, Note_on_c, 12, 52, 84
15, 80459, Note_on_c, 12, 52, 0
15, 80460, Note_on_c, 12, 57, 84
15, 80511, Note_on_c, 12, 57, 0
15, 80520, Note_on_c, 12, 59, 84
15, 80571, Note_on_c, 12, 59, 0
15, 80580, Note_on_c, 12, 59, 84
15, 80631, Note_on_c, 12, 59, 0
15, 80640, Note_on_c, 12, 59, 84
15, 80691, Note_on_c, 12, 59, 0
15, 80700, Note_on_c, 12, 59, 84
15, 80751, Note_on_c, 12, 59, 0
15, 80760, Note_on_c, 12, 59, 84
15, 80819, Note_on_c, 12, 59, 0
15, 80820, Note_on_c, 12, 61, 84
15, 80871, Note_on_c, 12, 61, 0
15, 80880, Note_on_c, 12, 62, 84
15, 80931, Note_on_c, 12, 62, 0
15, 80940, Note_on_c, 12, 62, 84
15, 80991, Note_on_c, 12, 62, 0
15, 81000, Note_on_c, 12, 62, 84
15, 81051, Note_on_c, 12, 62, 0
15, 81060, Note_on_c, 12, 62, 84
15, 81111, Note_on_c, 12, 62, 0
15, 81120, Note_on_c, 12, 61, 84
15, 81179, Note_on_c, 12, 61, 0
15, 81180, Note_on_c, 12, 62, 84
15, 81231, Note_on_c, 12, 62, 0
15, 81240, Note_on_c, 12, 64, 84
15, 81291, Note_on_c, 12, 64, 0
15, 81300, Note_on_c, 12, 64, 84
15, 81351, Note_on_c, 12, 64, 0
15, 81360, Note_on_c, 12, 64, 84
15, 81411, Note_on_c, 12, 64, 0
15, 81420, Note_on_c, 12, 64, 84
15, 81471, Note_on_c, 12, 64, 0
15, 81480, Note_on_c, 12, 61, 84
15, 81539, Note_on_c, 12, 61, 0
15, 81540, Note_on_c, 12, 62, 84
15, 81591, Note_on_c, 12, 62, 0
15, 81600, Note_on_c, 12, 64, 84
15, 81651, Note_on_c, 12, 64, 0
15, 81660, Note_on_c, 12, 64, 84
15, 81711, Note_on_c, 12, 64, 0
15, 81720, Note_on_c, 12, 64, 84
15, 81771, Note_on_c, 12, 64, 0
15, 81780, Note_on_c, 12, 64, 84
15, 81831, Note_on_c, 12, 64, 0
15, 81840, Note_on_c, 12, 66, 84
15, 81899, Note_on_c, 12, 66, 0
15, 81900, Note_on_c, 12, 67, 84
15, 81951, Note_on_c, 12, 67, 0
15, 81960, Note_on_c, 12, 69, 84
15, 82011, Note_on_c, 12, 69, 0
15, 82020, Note_on_c, 12, 69, 84
15, 82071, Note_on_c, 12, 69, 0
15, 82080, Note_on_c, 12, 69, 84
15, 82131, Note_on_c, 12, 69, 0
15, 82140, Note_on_c, 12, 69, 84
15, 82191, Note_on_c, 12, 69, 0
15, 82200, Note_on_c, 12, 62, 84
15, 82259, Note_on_c, 12, 62, 0
15, 82260, Note_on_c, 12, 64, 84
15, 82311, Note_on_c, 12, 64, 0
15, 82320, Note_on_c, 12, 66, 84
15, 82371, Note_on_c, 12, 66, 0
15, 82380, Note_on_c, 12, 66, 84
15, 82431, Note_on_c, 12, 66, 0
15, 82440, Note_on_c, 12, 62, 84
15, 82491, Note_on_c, 12, 62, 0
15, 82500, Note_on_c, 12, 62, 84
15, 82551, Note_on_c, 12, 62, 0
15, 82560, Note_on_c, 12, 61, 84
15, 82619, Note_on_c, 12, 61, 0
15, 82620, Note_on_c, 12, 62, 84
15, 82671, Note_on_c, 12, 62, 0
15, 82680, Note_on_c, 12, 64, 84
15, 82731, Note_on_c, 12, 64, 0
15, 82740, Note_on_c, 12, 64, 84
15, 82791, Note_on_c, 12, 64, 0
15, 82800, Note_on_c, 12, 64, 84
15, 82851, Note_on_c, 12, 64, 0
15, 82860, Note_on_c, 12, 64, 84
15, 82911, Note_on_c, 12, 64, 0
15, 82920, Note_on_c, 12, 61, 84
15, 82979, Note_on_c, 12, 61, 0
15, 82980, Note_on_c, 12, 62, 84
15, 83031, Note_on_c, 12, 62, 0
15, 83040, Note_on_c, 12, 64, 84
15, 83091, Note_on_c, 12, 64, 0
15, 83100, Note_on_c, 12, 64, 84
15, 83151, Note_on_c, 12, 64, 0
15, 83160, Note_on_c, 12, 62, 84
15, 83211, Note_on_c, 12, 62, 0
15, 83220, Note_on_c, 12, 62, 84
15, 83271, Note_on_c, 12, 62, 0
15, 83280, Note_on_c, 12, 61, 84
15, 83339, Note_on_c, 12, 61, 0
15, 83340, Note_on_c, 12, 62, 84
15, 83391, Note_on_c, 12, 62, 0
15, 83400, Note_on_c, 12, 64, 84
15, 83451, Note_on_c, 12, 64, 0
15, 83460, Note_on_c, 12, 57, 84
15, 83511, Note_on_c, 12, 57, 0
15, 83520, Note_on_c, 12, 59, 84
15, 83571, Note_on_c, 12, 59, 0
15, 83580, Note_on_c, 12, 61, 84
15, 83631, Note_on_c, 12, 61, 0
15, 83640, Note_on_c, 12, 62, 84
15, 83691, Note_on_c, 12, 62, 0
15, 83700, Note_on_c, 12, 62, 84
15, 83751, Note_on_c, 12, 62, 0
15, 83760, Note_on_c, 12, 62, 84
15, 83811, Note_on_c, 12, 62, 0
15, 83820, Note_on_c, 12, 62, 84
15, 83871, Note_on_c, 12, 62, 0
15, 83880, Note_on_c, 12, 62, 84
15, 83931, Note_on_c, 12, 62, 0
15, 83940, Note_on_c, 12, 62, 84
15, 83991, Note_on_c, 12, 62, 0
15, 84000, Note_on_c, 12, 62, 84
15, 84059, Note_on_c, 12, 62, 0
15, 84060, Note_on_c, 12, 64, 84
15, 84111, Note_on_c, 12, 64, 0
15, 84120, Note_on_c, 12, 66, 84
15, 84171, Note_on_c, 12, 66, 0
15, 84180, Note_on_c, 12, 66, 84
15, 84231, Note_on_c, 12, 66, 0
15, 84240, Note_on_c, 12, 66, 84
15, 84291, Note_on_c, 12, 66, 0
15, 84300, Note_on_c, 12, 66, 84
15, 84351, Note_on_c, 12, 66, 0
15, 84360, Note_on_c, 12, 54, 84
15, 84419, Note_on_c, 12, 54, 0
15, 84420, Note_on_c, 12, 57, 84
15, 84471, Note_on_c, 12, 57, 0
15, 84480, Note_on_c, 12, 62, 84
15, 84531, Note_on_c, 12, 62, 0
15, 84540, Note_on_c, 12, 62, 84
15, 84591, Note_on_c, 12, 62, 0
15, 84600, Note_on_c, 12, 62, 84
15, 84651, Note_on_c, 12, 62, 0
15, 84660, Note_on_c, 12, 62, 84
15, 84711, Note_on_c, 12, 62, 0
15, 84720, Note_on_c, 12, 57, 84
15, 84779, Note_on_c, 12, 57, 0
15, 84780, Note_on_c, 12, 59, 84
15, 84831, Note_on_c, 12, 59, 0
15, 84840, Note_on_c, 12, 61, 84
15, 84891, Note_on_c, 12, 61, 0
15, 84900, Note_on_c, 12, 61, 84
15, 84951, Note_on_c, 12, 61, 0
15, 84960, Note_on_c, 12, 61, 84
15, 85011, Note_on_c, 12, 61, 0
15, 85020, Note_on_c, 12, 61, 84
15, 85071, Note_on_c, 12, 61, 0
15, 85080, Note_on_c, 12, 61, 84
15, 85139, Note_on_c, 12, 61, 0
15, 85140, Note_on_c, 12, 62, 84
15, 85191, Note_on_c, 12, 62, 0
15, 85200, Note_on_c, 12, 64, 84
15, 85251, Note_on_c, 12, 64, 0
15, 85260, Note_on_c, 12, 64, 84
15, 85311, Note_on_c, 12, 64, 0
15, 85320, Note_on_c, 12, 64, 84
15, 85371, Note_on_c, 12, 64, 0
15, 85380, Note_on_c, 12, 64, 84
15, 85431, Note_on_c, 12, 64, 0
15, 85440, Note_on_c, 12, 62, 84
15, 85499, Note_on_c, 12, 62, 0
15, 85500, Note_on_c, 12, 64, 84
15, 85551, Note_on_c, 12, 64, 0
15, 85560, Note_on_c, 12, 66, 84
15, 85611, Note_on_c, 12, 66, 0
15, 85620, Note_on_c, 12, 66, 84
15, 85671, Note_on_c, 12, 66, 0
15, 85680, Note_on_c, 12, 66, 84
15, 85731, Note_on_c, 12, 66, 0
15, 85740, Note_on_c, 12, 66, 84
15, 85791, Note_on_c, 12, 66, 0
15, 85800, Note_on_c, 12, 62, 84
15, 85859, Note_on_c, 12, 62, 0
15, 85860, Note_on_c, 12, 64, 84
15, 85911, Note_on_c, 12, 64, 0
15, 85920, Note_on_c, 12, 66, 84
15, 85971, Note_on_c, 12, 66, 0
15, 85980, Note_on_c, 12, 66, 84
15, 86031, Note_on_c, 12, 66, 0
15, 86040, Note_on_c, 12, 66, 84
15, 86091, Note_on_c, 12, 66, 0
15, 86100, Note_on_c, 12, 66, 84
15, 86151, Note_on_c, 12, 66, 0
15, 86160, Note_on_c, 12, 57, 84
15, 86219, Note_on_c, 12, 57, 0
15, 86220, Note_on_c, 12, 59, 84
15, 86271, Note_on_c, 12, 59, 0
15, 86280, Note_on_c, 12, 61, 84
15, 86331, Note_on_c, 12, 61, 0
15, 86340, Note_on_c, 12, 61, 84
15, 86391, Note_on_c, 12, 61, 0
15, 86400, Note_on_c, 12, 61, 84
15, 86451, Note_on_c, 12, 61, 0
15, 86460, Note_on_c, 12, 61, 84
15, 86511, Note_on_c, 12, 61, 0
15, 86520, Note_on_c, 12, 57, 84
15, 86579, Note_on_c, 12, 57, 0
15, 86580, Note_on_c, 12, 59, 84
15, 86631, Note_on_c, 12, 59, 0
15, 86640, Note_on_c, 12, 61, 84
15, 86691, Note_on_c, 12, 61, 0
15, 86700, Note_on_c, 12, 61, 84
15, 86751, Note_on_c, 12, 61, 0
15, 86760, Note_on_c, 12, 61, 52
15, 86811, Note_on_c, 12, 61, 0
15, 86820, Note_on_c, 12, 61, 52
15, 86871, Note_on_c, 12, 61, 0
15, 86880, Note_on_c, 12, 57, 52
15, 86939, Note_on_c, 12, 57, 0
15, 86940, Note_on_c, 12, 59, 52
15, 86991, Note_on_c, 12, 59, 0
15, 87000, Note_on_c, 12, 61, 52
15, 87051, Note_on_c, 12, 61, 0
15, 87060, Note_on_c, 12, 61, 53
15, 87111, Note_on_c, 12, 61, 0
15, 87120, Note_on_c, 12, 61, 53
15, 87171, Note_on_c, 12, 61, 0
15, 87180, Note_on_c, 12, 61, 53
15, 87231, Note_on_c, 12, 61, 0
15, 87240, Note_on_c, 12, 61, 54
15, 87291, Note_on_c, 12, 61, 0
15, 87300, Note_on_c, 12, 61, 54
15, 87351, Note_on_c, 12, 61, 0
15, 87360, Note_on_c, 12, 61, 54
15, 87411, Note_on_c, 12, 61, 0
15, 87420, Note_on_c, 12, 61, 55
15, 87471, Note_on_c, 12, 61, 0
15, 87480, Note_on_c, 12, 61, 55
15, 87531, Note_on_c, 12, 61, 0
15, 87540, Note_on_c, 12, 61, 55
15, 87591, Note_on_c, 12, 61, 0
15, 87600, Note_on_c, 12, 62, 56
15, 87659, Note_on_c, 12, 62, 0
15, 87660, Note_on_c, 12, 64, 56
15, 87711, Note_on_c, 12, 64, 0
15, 87720, Note_on_c, 12, 66, 56
15, 87771, Note_on_c, 12, 66, 0
15, 87780, Note_on_c, 12, 66, 57
15, 87831, Note_on_c, 12, 66, 0
15, 87840, Note_on_c, 12, 66, 57
15, 87891, Note_on_c, 12, 66, 0
15, 87900, Note_on_c, 12, 66, 57
15, 87951, Note_on_c, 12, 66, 0
15, 87960, Note_on_c, 12, 66, 58
15, 88011, Note_on_c, 12, 66, 0
15, 88020, Note_on_c, 12, 66, 58
15, 88071, Note_on_c, 12, 66, 0
15, 88080, Note_on_c, 12, 66, 58
15, 88131, Note_on_c, 12, 66, 0
15, 88140, Note_on_c, 12, 66, 59
15, 88191, Note_on_c, 12, 66, 0
15, 88200, Note_on_c, 12, 66, 59
15, 88251, Note_on_c, 12, 66, 0
15, 88260, Note_on_c, 12, 66, 59
15, 88311, Note_on_c, 12, 66, 0
15, 88320, Note_on_c, 12, 59, 60
15, 88379, Note_on_c, 12, 59, 0
15, 88380, Note_on_c, 12, 61, 60
15, 88431, Note_on_c, 12, 61, 0
15, 88440, Note_on_c, 12, 59, 60
15, 88491, Note_on_c, 12, 59, 0
15, 88500, Note_on_c, 12, 62, 61
15, 88551, Note_on_c, 12, 62, 0
15, 88560, Note_on_c, 12, 62, 61
15, 88611, Note_on_c, 12, 62, 0
15, 88620, Note_on_c, 12, 62, 61
15, 88671, Note_on_c, 12, 62, 0
15, 88680, Note_on_c, 12, 62, 62
15, 88731, Note_on_c, 12, 62, 0
15, 88740, Note_on_c, 12, 62, 62
15, 88791, Note_on_c, 12, 62, 0
15, 88800, Note_on_c, 12, 62, 62
15, 88851, Note_on_c, 12, 62, 0
15, 88860, Note_on_c, 12, 62, 63
15, 88911, Note_on_c, 12, 62, 0
15, 88920, Note_on_c, 12, 62, 63
15, 88971, Note_on_c, 12, 62, 0
15, 88980, Note_on_c, 12, 62, 63
15, 89031, Note_on_c, 12, 62, 0
15, 89040, Note_on_c, 12, 61, 64
15, 89099, Note_on_c, 12, 61, 0
15, 89100, Note_on_c, 12, 62, 64
15, 89151, Note_on_c, 12, 62, 0
15, 89160, Note_on_c, 12, 61, 64
15, 89211, Note_on_c, 12, 61, 0
15, 89220, Note_on_c, 12, 64, 65
15, 89271, Note_on_c, 12, 64, 0
15, 89280, Note_on_c, 12, 64, 65
15, 89331, Note_on_c, 12, 64, 0
15, 89340, Note_on_c, 12, 64, 65
15, 89391, Note_on_c, 12, 64, 0
15, 89400, Note_on_c, 12, 64, 66
15, 89451, Note_on_c, 12, 64, 0
15, 89460, Note_on_c, 12, 64, 66
15, 89511, Note_on_c, 12, 64, 0
15, 89520, Note_on_c, 12, 64, 66
15, 89571, Note_on_c, 12, 64, 0
15, 89580, Note_on_c, 12, 64, 67
15, 89631, Note_on_c, 12, 64, 0
15, 89640, Note_on_c, 12, 64, 67
15, 89691, Note_on_c, 12, 64, 0
15, 89700, Note_on_c, 12, 64, 67
15, 89751, Note_on_c, 12, 64, 0
15, 89760, Note_on_c, 12, 61, 68
15, 89819, Note_on_c, 12, 61, 0
15, 89820, Note_on_c, 12, 62, 68
15, 89871, Note_on_c, 12, 62, 0
15, 89880, Note_on_c, 12, 61, 68
15, 89931, Note_on_c, 12, 61, 0
15, 89940, Note_on_c, 12, 64, 69
15, 89991, Note_on_c, 12, 64, 0
15, 90000, Note_on_c, 12, 64, 69
15, 90051, Note_on_c, 12, 64, 0
15, 90060, Note_on_c, 12, 64, 69
15, 90111, Note_on_c, 12, 64, 0
15, 90120, Note_on_c, 12, 64, 70
15, 90171, Note_on_c, 12, 64, 0
15, 90180, Note_on_c, 12, 64, 70
15, 90231, Note_on_c, 12, 64, 0
15, 90240, Note_on_c, 12, 64, 70
15, 90291, Note_on_c, 12, 64, 0
15, 90300, Note_on_c, 12, 64, 71
15, 90351, Note_on_c, 12, 64, 0
15, 90360, Note_on_c, 12, 64, 71
15, 90411, Note_on_c, 12, 64, 0
15, 90420, Note_on_c, 12, 64, 71
15, 90471, Note_on_c, 12, 64, 0
15, 90480, Note_on_c, 12, 66, 72
15, 90539, Note_on_c, 12, 66, 0
15, 90540, Note_on_c, 12, 67, 72
15, 90591, Note_on_c, 12, 67, 0
15, 90600, Note_on_c, 12, 69, 72
15, 90651, Note_on_c, 12, 69, 0
15, 90660, Note_on_c, 12, 69, 73
15, 90711, Note_on_c, 12, 69, 0
15, 90720, Note_on_c, 12, 69, 73
15, 90771, Note_on_c, 12, 69, 0
15, 90780, Note_on_c, 12, 69, 73
15, 90831, Note_on_c, 12, 69, 0
15, 90840, Note_on_c, 12, 69, 74
15, 90891, Note_on_c, 12, 69, 0
15, 90900, Note_on_c, 12, 69, 74
15, 90951, Note_on_c, 12, 69, 0
15, 90960, Note_on_c, 12, 69, 74
15, 91011, Note_on_c, 12, 69, 0
15, 91020, Note_on_c, 12, 69, 75
15, 91071, Note_on_c, 12, 69, 0
15, 91080, Note_on_c, 12, 69, 75
15, 91131, Note_on_c, 12, 69, 0
15, 91140, Note_on_c, 12, 69, 75
15, 91191, Note_on_c, 12, 69, 0
15, 91200, Note_on_c, 12, 68, 76
15, 91259, Note_on_c, 12, 68, 0
15, 91260, Note_on_c, 12, 69, 76
15, 91311, Note_on_c, 12, 69, 0
15, 91320, Note_on_c, 12, 68, 76
15, 91371, Note_on_c, 12, 68, 0
15, 91380, Note_on_c, 12, 71, 77
15, 91431, Note_on_c, 12, 71, 0
15, 91440, Note_on_c, 12, 71, 77
15, 91491, Note_on_c, 12, 71, 0
15, 91500, Note_on_c, 12, 71, 77
15, 91551, Note_on_c, 12, 71, 0
15, 91560, Note_on_c, 12, 71, 78
15, 91611, Note_on_c, 12, 71, 0
15, 91620, Note_on_c, 12, 71, 78
15, 91671, Note_on_c, 12, 71, 0
15, 91680, Note_on_c, 12, 71, 78
15, 91731, Note_on_c, 12, 71, 0
15, 91740, Note_on_c, 12, 71, 79
15, 91791, Note_on_c, 12, 71, 0
15, 91800, Note_on_c, 12, 71, 79
15, 91851, Note_on_c, 12, 71, 0
15, 91860, Note_on_c, 12, 71, 79
15, 91911, Note_on_c, 12, 71, 0
15, 91920, Note_on_c, 12, 69, 80
15, 91979, Note_on_c, 12, 69, 0
15, 91980, Note_on_c, 12, 71, 80
15, 92031, Note_on_c, 12, 71, 0
15, 92040, Note_on_c, 12, 69, 80
15, 92091, Note_on_c, 12, 69, 0
15, 92100, Note_on_c, 12, 73, 81
15, 92151, Note_on_c, 12, 73, 0
15, 92160, Note_on_c, 12, 73, 81
15, 92211, Note_on_c, 12, 73, 0
15, 92220, Note_on_c, 12, 73, 81
15, 92271, Note_on_c, 12, 73, 0
15, 92280, Note_on_c, 12, 73, 82
15, 92331, Note_on_c, 12, 73, 0
15, 92340, Note_on_c, 12, 73, 82
15, 92391, Note_on_c, 12, 73, 0
15, 92400, Note_on_c, 12, 73, 82
15, 92451, Note_on_c, 12, 73, 0
15, 92460, Note_on_c, 12, 73, 83
15, 92511, Note_on_c, 12, 73, 0
15, 92520, Note_on_c, 12, 73, 83
15, 92571, Note_on_c, 12, 73, 0
15, 92580, Note_on_c, 12, 73, 83
15, 92631, Note_on_c, 12, 73, 0
15, 92640, Note_on_c, 12, 70, 84
15, 92691, Note_on_c, 12, 70, 0
15, 92700, Note_on_c, 12, 70, 84
15, 92751, Note_on_c, 12, 70, 0
15, 92760, Note_on_c, 12, 70, 84
15, 92811, Note_on_c, 12, 70, 0
15, 92820, Note_on_c, 12, 70, 84
15, 92871, Note_on_c, 12, 70, 0
15, 92880, Note_on_c, 12, 70, 84
15, 92931, Note_on_c, 12, 70, 0
15, 92940, Note_on_c, 12, 70, 84
15, 92991, Note_on_c, 12, 70, 0
15, 93000, Note_on_c, 12, 70, 84
15, 93051, Note_on_c, 12, 70, 0
15, 93060, Note_on_c, 12, 70, 84
15, 93111, Note_on_c, 12, 70, 0
15, 93120, Note_on_c, 12, 70, 84
15, 93171, Note_on_c, 12, 70, 0
15, 93180, Note_on_c, 12, 70, 84
15, 93231, Note_on_c, 12, 70, 0
15, 93240, Note_on_c, 12, 70, 84
15, 93291, Note_on_c, 12, 70, 0
15, 93300, Note_on_c, 12, 70, 84
15, 93351, Note_on_c, 12, 70, 0
15, 93360, Note_on_c, 12, 71, 84
15, 93411, Note_on_c, 12, 71, 0
15, 93420, Note_on_c, 12, 71, 84
15, 93471, Note_on_c, 12, 71, 0
15, 93480, Note_on_c, 12, 71, 84
15, 93531, Note_on_c, 12, 71, 0
15, 93540, Note_on_c, 12, 71, 84
15, 93591, Note_on_c, 12, 71, 0
15, 93600, Note_on_c, 12, 71, 84
15, 93651, Note_on_c, 12, 71, 0
15, 93660, Note_on_c, 12, 71, 84
15, 93711, Note_on_c, 12, 71, 0
15, 93720, Note_on_c, 12, 71, 84
15, 93771, Note_on_c, 12, 71, 0
15, 93780, Note_on_c, 12, 71, 84
15, 93831, Note_on_c, 12, 71, 0
15, 93840, Note_on_c, 12, 63, 52
15, 93891, Note_on_c, 12, 63, 0
15, 93900, Note_on_c, 12, 63, 52
15, 93951, Note_on_c, 12, 63, 0
15, 93960, Note_on_c, 12, 63, 52
15, 94011, Note_on_c, 12, 63, 0
15, 94020, Note_on_c, 12, 63, 52
15, 94071, Note_on_c, 12, 63, 0
15, 94080, Note_on_c, 12, 61, 52
15, 94131, Note_on_c, 12, 61, 0
15, 94140, Note_on_c, 12, 61, 52
15, 94191, Note_on_c, 12, 61, 0
15, 94200, Note_on_c, 12, 61, 52
15, 94251, Note_on_c, 12, 61, 0
15, 94260, Note_on_c, 12, 61, 52
15, 94311, Note_on_c, 12, 61, 0
15, 94320, Note_on_c, 12, 61, 52
15, 94371, Note_on_c, 12, 61, 0
15, 94380, Note_on_c, 12, 61, 52
15, 94431, Note_on_c, 12, 61, 0
15, 94440, Note_on_c, 12, 61, 52
15, 94491, Note_on_c, 12, 61, 0
15, 94500, Note_on_c, 12, 61, 52
15, 94551, Note_on_c, 12, 61, 0
15, 94560, Note_on_c, 12, 61, 52
15, 94611, Note_on_c, 12, 61, 0
15, 94620, Note_on_c, 12, 61, 52
15, 94671, Note_on_c, 12, 61, 0
15, 94680, Note_on_c, 12, 61, 52
15, 94731, Note_on_c, 12, 61, 0
15, 94740, Note_on_c, 12, 61, 52
15, 94791, Note_on_c, 12, 61, 0
15, 94800, Note_on_c, 12, 63, 52
15, 94919, Note_on_c, 12, 63, 0
15, 95040, Note_on_c, 12, 60, 52
15, 95159, Note_on_c, 12, 60, 0
15, 95400, Note_on_c, 12, 60, 52
15, 95519, Note_on_c, 12, 60, 0
15, 95760, Note_on_c, 12, 61, 52
15, 95879, Note_on_c, 12, 61, 0
15, 96120, Note_on_c, 12, 61, 52
15, 96239, Note_on_c, 12, 61, 0
15, 96480, Note_on_c, 12, 60, 52
15, 96599, Note_on_c, 12, 60, 0
15, 96840, Note_on_c, 12, 60, 52
15, 96959, Note_on_c, 12, 60, 0
15, 96960, Note_on_c, 12, 61, 52
15, 97011, Note_on_c, 12, 61, 0
15, 97020, Note_on_c, 12, 61, 54
15, 97071, Note_on_c, 12, 61, 0
15, 97080, Note_on_c, 12, 61, 56
15, 97131, Note_on_c, 12, 61, 0
15, 97140, Note_on_c, 12, 61, 58
15, 97191, Note_on_c, 12, 61, 0
15, 97200, Note_on_c, 12, 61, 60
15, 97251, Note_on_c, 12, 61, 0
15, 97260, Note_on_c, 12, 61, 62
15, 97311, Note_on_c, 12, 61, 0
15, 97320, Note_on_c, 12, 56, 64
15, 97371, Note_on_c, 12, 56, 0
15, 97380, Note_on_c, 12, 56, 66
15, 97431, Note_on_c, 12, 56, 0
15, 97440, Note_on_c, 12, 56, 68
15, 97491, Note_on_c, 12, 56, 0
15, 97500, Note_on_c, 12, 56, 70
15, 97551, Note_on_c, 12, 56, 0
15, 97560, Note_on_c, 12, 56, 72
15, 97611, Note_on_c, 12, 56, 0
15, 97620, Note_on_c, 12, 56, 74
15, 97671, Note_on_c, 12, 56, 0
15, 97680, Note_on_c, 12, 55, 76
15, 97799, Note_on_c, 12, 55, 0
15, 97920, Note_on_c, 12, 51, 52
15, 97920, Note_on_c, 12, 55, 52
15, 98039, Note_on_c, 12, 51, 0
15, 98039, Note_on_c, 12, 55, 0
15, 98280, Note_on_c, 12, 55, 52
15, 98280, Note_on_c, 12, 51, 52
15, 98399, Note_on_c, 12, 55, 0
15, 98399, Note_on_c, 12, 51, 0
15, 98640, Note_on_c, 12, 56, 52
15, 98640, Note_on_c, 12, 51, 52
15, 98759, Note_on_c, 12, 56, 0
15, 98759, Note_on_c, 12, 51, 0
15, 99000, Note_on_c, 12, 51, 52
15, 99000, Note_on_c, 12, 56, 52
15, 99119, Note_on_c, 12, 51, 0
15, 99119, Note_on_c, 12, 56, 0
15, 99360, Note_on_c, 12, 55, 52
15, 99360, Note_on_c, 12, 51, 52
15, 99479, Note_on_c, 12, 55, 0
15, 99479, Note_on_c, 12, 51, 0
15, 99720, Note_on_c, 12, 51, 52
15, 99720, Note_on_c, 12, 55, 52
15, 99824, Note_on_c, 12, 51, 0
15, 99824, Note_on_c, 12, 55, 0
15, 99840, Note_on_c, 12, 59, 52
15, 99891, Note_on_c, 12, 59, 0
15, 99900, Note_on_c, 12, 59, 54
15, 99951, Note_on_c, 12, 59, 0
15, 99960, Note_on_c, 12, 59, 56
15, 100011, Note_on_c, 12, 59, 0
15, 100020, Note_on_c, 12, 59, 58
15, 100071, Note_on_c, 12, 59, 0
15, 100080, Note_on_c, 12, 59, 60
15, 100131, Note_on_c, 12, 59, 0
15, 100140, Note_on_c, 12, 59, 62
15, 100191, Note_on_c, 12, 59, 0
15, 100200, Note_on_c, 12, 59, 64
15, 100251, Note_on_c, 12, 59, 0
15, 100260, Note_on_c, 12, 71, 66
15, 100311, Note_on_c, 12, 71, 0
15, 100320, Note_on_c, 12, 71, 68
15, 100371, Note_on_c, 12, 71, 0
15, 100380, Note_on_c, 12, 71, 70
15, 100431, Note_on_c, 12, 71, 0
15, 100440, Note_on_c, 12, 71, 72
15, 100491, Note_on_c, 12, 71, 0
15, 100500, Note_on_c, 12, 71, 74
15, 100551, Note_on_c, 12, 71, 0
15, 100560, Note_on_c, 12, 69, 76
15, 100739, Note_on_c, 12, 69, 0
15, 100740, Note_on_c, 12, 68, 76
15, 100799, Note_on_c, 12, 68, 0
15, 100800, Note_on_c, 12, 66, 76
15, 100859, Note_on_c, 12, 66, 0
15, 100860, Note_on_c, 12, 64, 76
15, 100919, Note_on_c, 12, 64, 0
15, 100920, Note_on_c, 12, 63, 76
15, 100979, Note_on_c, 12, 63, 0
15, 100980, Note_on_c, 12, 64, 76
15, 101039, Note_on_c, 12, 64, 0
15, 101040, Note_on_c, 12, 63, 76
15, 101099, Note_on_c, 12, 63, 0
15, 101100, Note_on_c, 12, 61, 76
15, 101159, Note_on_c, 12, 61, 0
15, 101160, Note_on_c, 12, 59, 76
15, 101219, Note_on_c, 12, 59, 0
15, 101220, Note_on_c, 12, 57, 76
15, 101271, Note_on_c, 12, 57, 0
15, 101280, Note_on_c, 12, 56, 76
15, 101331, Note_on_c, 12, 56, 0
15, 101340, Note_on_c, 12, 56, 76
15, 101391, Note_on_c, 12, 56, 0
15, 101400, Note_on_c, 12, 56, 76
15, 101451, Note_on_c, 12, 56, 0
15, 101460, Note_on_c, 12, 56, 76
15, 101511, Note_on_c, 12, 56, 0
15, 101520, Note_on_c, 12, 56, 76
15, 101571, Note_on_c, 12, 56, 0
15, 101580, Note_on_c, 12, 56, 76
15, 101631, Note_on_c, 12, 56, 0
15, 101640, Note_on_c, 12, 56, 76
15, 101691, Note_on_c, 12, 56, 0
15, 101700, Note_on_c, 12, 68, 76
15, 101751, Note_on_c, 12, 68, 0
15, 101760, Note_on_c, 12, 68, 76
15, 101811, Note_on_c, 12, 68, 0
15, 101820, Note_on_c, 12, 68, 76
15, 101871, Note_on_c, 12, 68, 0
15, 101880, Note_on_c, 12, 68, 76
15, 101931, Note_on_c, 12, 68, 0
15, 101940, Note_on_c, 12, 68, 76
15, 101991, Note_on_c, 12, 68, 0
15, 102000, Note_on_c, 12, 66, 84
15, 102059, Note_on_c, 12, 66, 0
15, 102060, Note_on_c, 12, 66, 76
15, 102179, Note_on_c, 12, 66, 0
15, 102180, Note_on_c, 12, 64, 76
15, 102239, Note_on_c, 12, 64, 0
15, 102240, Note_on_c, 12, 63, 76
15, 102299, Note_on_c, 12, 63, 0
15, 102300, Note_on_c, 12, 61, 76
15, 102359, Note_on_c, 12, 61, 0
15, 102360, Note_on_c, 12, 59, 76
15, 102419, Note_on_c, 12, 59, 0
15, 102420, Note_on_c, 12, 61, 76
15, 102479, Note_on_c, 12, 61, 0
15, 102480, Note_on_c, 12, 59, 76
15, 102539, Note_on_c, 12, 59, 0
15, 102540, Note_on_c, 12, 58, 76
15, 102599, Note_on_c, 12, 58, 0
15, 102600, Note_on_c, 12, 56, 76
15, 102659, Note_on_c, 12, 56, 0
15, 102660, Note_on_c, 12, 54, 76
15, 102711, Note_on_c, 12, 54, 0
15, 102720, Note_on_c, 12, 52, 76
15, 102771, Note_on_c, 12, 52, 0
15, 102780, Note_on_c, 12, 57, 76
15, 102831, Note_on_c, 12, 57, 0
15, 102840, Note_on_c, 12, 57, 76
15, 102891, Note_on_c, 12, 57, 0
15, 102900, Note_on_c, 12, 57, 76
15, 102951, Note_on_c, 12, 57, 0
15, 102960, Note_on_c, 12, 57, 76
15, 103011, Note_on_c, 12, 57, 0
15, 103020, Note_on_c, 12, 57, 76
15, 103071, Note_on_c, 12, 57, 0
15, 103080, Note_on_c, 12, 64, 76
15, 103131, Note_on_c, 12, 64, 0
15, 103140, Note_on_c, 12, 52, 76
15, 103191, Note_on_c, 12, 52, 0
15, 103200, Note_on_c, 12, 52, 76
15, 103251, Note_on_c, 12, 52, 0
15, 103260, Note_on_c, 12, 52, 76
15, 103311, Note_on_c, 12, 52, 0
15, 103320, Note_on_c, 12, 52, 76
15, 103371, Note_on_c, 12, 52, 0
15, 103380, Note_on_c, 12, 52, 76
15, 103431, Note_on_c, 12, 52, 0
15, 103440, Note_on_c, 12, 51, 76
15, 103619, Note_on_c, 12, 51, 0
15, 103800, Note_on_c, 12, 59, 76
15, 103979, Note_on_c, 12, 59, 0
15, 104160, Note_on_c, 12, 59, 76
15, 104339, Note_on_c, 12, 59, 0
15, 104520, Note_on_c, 12, 59, 76
15, 104699, Note_on_c, 12, 59, 0
15, 104880, Note_on_c, 12, 59, 76
15, 105059, Note_on_c, 12, 59, 0
15, 105240, Note_on_c, 12, 59, 76
15, 105419, Note_on_c, 12, 59, 0
15, 105600, Note_on_c, 12, 59, 76
15, 105779, Note_on_c, 12, 59, 0
15, 105960, Note_on_c, 12, 59, 76
15, 106139, Note_on_c, 12, 59, 0
15, 106320, Note_on_c, 12, 49, 84
15, 106380, Control_c, 12, 11, 112
15, 106417, Control_c, 12, 11, 109
15, 106453, Control_c, 12, 11, 107
15, 106490, Control_c, 12, 11, 104
15, 106527, Control_c, 12, 11, 101
15, 106563, Control_c, 12, 11, 99
15, 106600, Control_c, 12, 11, 96
15, 106637, Control_c, 12, 11, 93
15, 106673, Control_c, 12, 11, 91
15, 106710, Control_c, 12, 11, 88
15, 106747, Control_c, 12, 11, 85
15, 106783, Control_c, 12, 11, 83
15, 106820, Control_c, 12, 11, 80
15, 106857, Control_c, 12, 11, 77
15, 106893, Control_c, 12, 11, 75
15, 106919, Note_on_c, 12, 49, 0
15, 106920, Note_on_c, 12, 48, 84
15, 106930, Control_c, 12, 11, 72
15, 106967, Control_c, 12, 11, 69
15, 107003, Control_c, 12, 11, 64
15, 107024, Note_on_c, 12, 48, 0
15, 107040, Note_on_c, 12, 59, 84
15, 107639, Note_on_c, 12, 59, 0
15, 107640, Note_on_c, 12, 61, 84
15, 107699, Note_on_c, 12, 61, 0
15, 107700, Note_on_c, 12, 63, 84
15, 107759, Note_on_c, 12, 63, 0
15, 107760, Note_on_c, 12, 64, 84
15, 107999, Note_on_c, 12, 64, 0
15, 109080, Control_c, 12, 11, 127
15, 109200, Note_on_c, 12, 52, 48
15, 109559, Note_on_c, 12, 52, 0
15, 109560, Note_on_c, 12, 56, 48
15, 109919, Note_on_c, 12, 56, 0
15, 109920, Note_on_c, 12, 59, 48
15, 110279, Note_on_c, 12, 59, 0
15, 110280, Note_on_c, 12, 59, 48
15, 110624, Note_on_c, 12, 59, 0
15, 110640, Note_on_c, 12, 52, 76
15, 110984, Note_on_c, 12, 52, 0
15, 111000, Note_on_c, 12, 64, 76
15, 111171, Note_on_c, 12, 64, 0
15, 111180, Note_on_c, 12, 59, 76
15, 111231, Note_on_c, 12, 59, 0
15, 111240, Note_on_c, 12, 59, 76
15, 111344, Note_on_c, 12, 59, 0
15, 111360, Note_on_c, 12, 66, 76
15, 111531, Note_on_c, 12, 66, 0
15, 111540, Note_on_c, 12, 59, 76
15, 111591, Note_on_c, 12, 59, 0
15, 111600, Note_on_c, 12, 59, 76
15, 111704, Note_on_c, 12, 59, 0
15, 111720, Note_on_c, 12, 67, 76
15, 111891, Note_on_c, 12, 67, 0
15, 111900, Note_on_c, 12, 55, 76
15, 111951, Note_on_c, 12, 55, 0
15, 111960, Note_on_c, 12, 53, 76
15, 111960, Note_on_c, 12, 55, 76
15, 112064, Note_on_c, 12, 53, 0
15, 112064, Note_on_c, 12, 55, 0
15, 112080, Note_on_c, 12, 55, 76
15, 112080, Note_on_c, 12, 52, 76
15, 112251, Note_on_c, 12, 55, 0
15, 112251, Note_on_c, 12, 52, 0
15, 112260, Note_on_c, 12, 72, 76
15, 112311, Note_on_c, 12, 72, 0
15, 112320, Note_on_c, 12, 67, 76
15, 112424, Note_on_c, 12, 67, 0
15, 112440, Note_on_c, 12, 64, 76
15, 112611, Note_on_c, 12, 64, 0
15, 112620, Note_on_c, 12, 64, 76
15, 112671, Note_on_c, 12, 64, 0
15, 112680, Note_on_c, 12, 60, 76
15, 112784, Note_on_c, 12, 60, 0
15, 112800, Note_on_c, 12, 55, 76
15, 112971, Note_on_c, 12, 55, 0
15, 112980, Note_on_c, 12, 55, 76
15, 113031, Note_on_c, 12, 55, 0
15, 113040, Note_on_c, 12, 52, 76
15, 113144, Note_on_c, 12, 52, 0
15, 113160, Note_on_c, 12, 48, 76
15, 113331, Note_on_c, 12, 48, 0
15, 113340, Note_on_c, 12, 48, 76
15, 113391, Note_on_c, 12, 48, 0
15, 113400, Note_on_c, 12, 55, 76
15, 113504, Note_on_c, 12, 55, 0
15, 113520, Note_on_c, 12, 48, 76
15, 113759, Note_on_c, 12, 48, 0
15, 114060, Note_on_c, 12, 55, 75
15, 114111, Note_on_c, 12, 55, 0
15, 114120, Note_on_c, 12, 55, 73
15, 114224, Note_on_c, 12, 55, 0
15, 114240, Note_on_c, 12, 48, 70
15, 114479, Note_on_c, 12, 48, 0
15, 114780, Note_on_c, 12, 55, 57
15, 114831, Note_on_c, 12, 55, 0
15, 114840, Note_on_c, 12, 55, 55
15, 114944, Note_on_c, 12, 55, 0
15, 114960, Note_on_c, 12, 48, 52
15, 115199, Note_on_c, 12, 48, 0
15, 115680, Note_on_c, 12, 48, 44
15, 115919, Note_on_c, 12, 48, 0
15, 116400, Note_on_c, 12, 63, 44
15, 116400, Note_on_c, 12, 66, 44
15, 116451, Note_on_c, 12, 63, 0
15, 116451, Note_on_c, 12, 66, 0
15, 116460, Note_on_c, 12, 66, 44
15, 116460, Note_on_c, 12, 63, 44
15, 116511, Note_on_c, 12, 66, 0
15, 116511, Note_on_c, 12, 63, 0
15, 116520, Note_on_c, 12, 63, 44
15, 116520, Note_on_c, 12, 66, 44
15, 116571, Note_on_c, 12, 63, 0
15, 116571, Note_on_c, 12, 66, 0
15, 116580, Note_on_c, 12, 63, 44
15, 116580, Note_on_c, 12, 66, 44
15, 116631, Note_on_c, 12, 63, 0
15, 116631, Note_on_c, 12, 66, 0
15, 116640, Note_on_c, 12, 66, 44
15, 116640, Note_on_c, 12, 63, 44
15, 116691, Note_on_c, 12, 66, 0
15, 116691, Note_on_c, 12, 63, 0
15, 116700, Note_on_c, 12, 63, 44
15, 116700, Note_on_c, 12, 66, 44
15, 116751, Note_on_c, 12, 63, 0
15, 116751, Note_on_c, 12, 66, 0
15, 116760, Note_on_c, 12, 63, 44
15, 116760, Note_on_c, 12, 66, 44
15, 116811, Note_on_c, 12, 63, 0
15, 116811, Note_on_c, 12, 66, 0
15, 116820, Note_on_c, 12, 66, 44
15, 116820, Note_on_c, 12, 63, 44
15, 116871, Note_on_c, 12, 66, 0
15, 116871, Note_on_c, 12, 63, 0
15, 116880, Note_on_c, 12, 63, 44
15, 116880, Note_on_c, 12, 66, 44
15, 116931, Note_on_c, 12, 63, 0
15, 116931, Note_on_c, 12, 66, 0
15, 116940, Note_on_c, 12, 63, 44
15, 116940, Note_on_c, 12, 66, 44
15, 116991, Note_on_c, 12, 63, 0
15, 116991, Note_on_c, 12, 66, 0
15, 117000, Note_on_c, 12, 66, 44
15, 117000, Note_on_c, 12, 63, 44
15, 117051, Note_on_c, 12, 66, 0
15, 117051, Note_on_c, 12, 63, 0
15, 117060, Note_on_c, 12, 66, 44
15, 117060, Note_on_c, 12, 63, 44
15, 117111, Note_on_c, 12, 66, 0
15, 117111, Note_on_c, 12, 63, 0
15, 117120, Note_on_c, 12, 63, 44
15, 117120, Note_on_c, 12, 66, 44
15, 117171, Note_on_c, 12, 63, 0
15, 117171, Note_on_c, 12, 66, 0
15, 117180, Note_on_c, 12, 63, 44
15, 117180, Note_on_c, 12, 66, 44
15, 117231, Note_on_c, 12, 63, 0
15, 117231, Note_on_c, 12, 66, 0
15, 117240, Note_on_c, 12, 66, 44
15, 117240, Note_on_c, 12, 63, 44
15, 117291, Note_on_c, 12, 66, 0
15, 117291, Note_on_c, 12, 63, 0
15, 117300, Note_on_c, 12, 63, 44
15, 117300, Note_on_c, 12, 66, 44
15, 117351, Note_on_c, 12, 63, 0
15, 117351, Note_on_c, 12, 66, 0
15, 117360, Note_on_c, 12, 63, 44
15, 117360, Note_on_c, 12, 66, 44
15, 117411, Note_on_c, 12, 63, 0
15, 117411, Note_on_c, 12, 66, 0
15, 117420, Note_on_c, 12, 63, 44
15, 117420, Note_on_c, 12, 66, 44
15, 117471, Note_on_c, 12, 63, 0
15, 117471, Note_on_c, 12, 66, 0
15, 117480, Note_on_c, 12, 63, 44
15, 117480, Note_on_c, 12, 66, 44
15, 117531, Note_on_c, 12, 63, 0
15, 117531, Note_on_c, 12, 66, 0
15, 117540, Note_on_c, 12, 66, 44
15, 117540, Note_on_c, 12, 63, 44
15, 117591, Note_on_c, 12, 66, 0
15, 117591, Note_on_c, 12, 63, 0
15, 117600, Note_on_c, 12, 66, 44
15, 117600, Note_on_c, 12, 63, 44
15, 117651, Note_on_c, 12, 66, 0
15, 117651, Note_on_c, 12, 63, 0
15, 117660, Note_on_c, 12, 66, 44
15, 117660, Note_on_c, 12, 63, 44
15, 117711, Note_on_c, 12, 66, 0
15, 117711, Note_on_c, 12, 63, 0
15, 117720, Note_on_c, 12, 66, 44
15, 117720, Note_on_c, 12, 63, 44
15, 117771, Note_on_c, 12, 66, 0
15, 117771, Note_on_c, 12, 63, 0
15, 117780, Note_on_c, 12, 63, 44
15, 117780, Note_on_c, 12, 66, 44
15, 117831, Note_on_c, 12, 63, 0
15, 117831, Note_on_c, 12, 66, 0
15, 117840, Note_on_c, 12, 63, 44
15, 117840, Note_on_c, 12, 66, 44
15, 117891, Note_on_c, 12, 63, 0
15, 117891, Note_on_c, 12, 66, 0
15, 117900, Note_on_c, 12, 66, 44
15, 117900, Note_on_c, 12, 63, 44
15, 117951, Note_on_c, 12, 66, 0
15, 117951, Note_on_c, 12, 63, 0
15, 117960, Note_on_c, 12, 66, 44
15, 117960, Note_on_c, 12, 63, 44
15, 118011, Note_on_c, 12, 66, 0
15, 118011, Note_on_c, 12, 63, 0
15, 118020, Note_on_c, 12, 66, 44
15, 118020, Note_on_c, 12, 63, 44
15, 118071, Note_on_c, 12, 66, 0
15, 118071, Note_on_c, 12, 63, 0
15, 118080, Note_on_c, 12, 66, 44
15, 118080, Note_on_c, 12, 63, 44
15, 118131, Note_on_c, 12, 66, 0
15, 118131, Note_on_c, 12, 63, 0
15, 118140, Note_on_c, 12, 66, 44
15, 118140, Note_on_c, 12, 63, 44
15, 118191, Note_on_c, 12, 66, 0
15, 118191, Note_on_c, 12, 63, 0
15, 118200, Note_on_c, 12, 66, 44
15, 118200, Note_on_c, 12, 63, 44
15, 118251, Note_on_c, 12, 66, 0
15, 118251, Note_on_c, 12, 63, 0
15, 118260, Note_on_c, 12, 66, 44
15, 118260, Note_on_c, 12, 63, 44
15, 118311, Note_on_c, 12, 66, 0
15, 118311, Note_on_c, 12, 63, 0
15, 118320, Note_on_c, 12, 66, 44
15, 118320, Note_on_c, 12, 63, 44
15, 118371, Note_on_c, 12, 66, 0
15, 118371, Note_on_c, 12, 63, 0
15, 118380, Note_on_c, 12, 66, 44
15, 118380, Note_on_c, 12, 63, 44
15, 118431, Note_on_c, 12, 66, 0
15, 118431, Note_on_c, 12, 63, 0
15, 118440, Note_on_c, 12, 66, 44
15, 118440, Note_on_c, 12, 63, 44
15, 118491, Note_on_c, 12, 66, 0
15, 118491, Note_on_c, 12, 63, 0
15, 118500, Note_on_c, 12, 66, 44
15, 118500, Note_on_c, 12, 63, 44
15, 118551, Note_on_c, 12, 66, 0
15, 118551, Note_on_c, 12, 63, 0
15, 118560, Note_on_c, 12, 63, 44
15, 118560, Note_on_c, 12, 66, 44
15, 118611, Note_on_c, 12, 63, 0
15, 118611, Note_on_c, 12, 66, 0
15, 118620, Note_on_c, 12, 63, 44
15, 118620, Note_on_c, 12, 66, 44
15, 118671, Note_on_c, 12, 63, 0
15, 118671, Note_on_c, 12, 66, 0
15, 118680, Note_on_c, 12, 63, 44
15, 118680, Note_on_c, 12, 66, 44
15, 118731, Note_on_c, 12, 63, 0
15, 118731, Note_on_c, 12, 66, 0
15, 118740, Note_on_c, 12, 63, 44
15, 118740, Note_on_c, 12, 66, 44
15, 118791, Note_on_c, 12, 63, 0
15, 118791, Note_on_c, 12, 66, 0
15, 118800, Note_on_c, 12, 63, 44
15, 118800, Note_on_c, 12, 66, 44
15, 118851, Note_on_c, 12, 63, 0
15, 118851, Note_on_c, 12, 66, 0
15, 118860, Note_on_c, 12, 66, 44
15, 118860, Note_on_c, 12, 63, 44
15, 118911, Note_on_c, 12, 66, 0
15, 118911, Note_on_c, 12, 63, 0
15, 118920, Note_on_c, 12, 63, 44
15, 118920, Note_on_c, 12, 66, 44
15, 118971, Note_on_c, 12, 63, 0
15, 118971, Note_on_c, 12, 66, 0
15, 118980, Note_on_c, 12, 63, 44
15, 118980, Note_on_c, 12, 66, 44
15, 119031, Note_on_c, 12, 63, 0
15, 119031, Note_on_c, 12, 66, 0
15, 119040, Note_on_c, 12, 63, 44
15, 119040, Note_on_c, 12, 66, 44
15, 119091, Note_on_c, 12, 63, 0
15, 119091, Note_on_c, 12, 66, 0
15, 119100, Note_on_c, 12, 66, 44
15, 119100, Note_on_c, 12, 63, 44
15, 119151, Note_on_c, 12, 66, 0
15, 119151, Note_on_c, 12, 63, 0
15, 119160, Note_on_c, 12, 63, 44
15, 119160, Note_on_c, 12, 66, 44
15, 119211, Note_on_c, 12, 63, 0
15, 119211, Note_on_c, 12, 66, 0
15, 119220, Note_on_c, 12, 63, 44
15, 119220, Note_on_c, 12, 66, 44
15, 119271, Note_on_c, 12, 63, 0
15, 119271, Note_on_c, 12, 66, 0
15, 119280, Note_on_c, 12, 66, 44
15, 119280, Note_on_c, 12, 63, 44
15, 119331, Note_on_c, 12, 66, 0
15, 119331, Note_on_c, 12, 63, 0
15, 119340, Note_on_c, 12, 57, 44
15, 119391, Note_on_c, 12, 57, 0
15, 119400, Note_on_c, 12, 57, 45
15, 119451, Note_on_c, 12, 57, 0
15, 119460, Note_on_c, 12, 57, 45
15, 119511, Note_on_c, 12, 57, 0
15, 119520, Note_on_c, 12, 54, 46
15, 119571, Note_on_c, 12, 54, 0
15, 119580, Note_on_c, 12, 56, 46
15, 119631, Note_on_c, 12, 56, 0
15, 119640, Note_on_c, 12, 57, 47
15, 119691, Note_on_c, 12, 57, 0
15, 119700, Note_on_c, 12, 57, 47
15, 119751, Note_on_c, 12, 57, 0
15, 119760, Note_on_c, 12, 57, 48
15, 119811, Note_on_c, 12, 57, 0
15, 119820, Note_on_c, 12, 57, 49
15, 119871, Note_on_c, 12, 57, 0
15, 119880, Note_on_c, 12, 57, 49
15, 119931, Note_on_c, 12, 57, 0
15, 119940, Note_on_c, 12, 57, 50
15, 119991, Note_on_c, 12, 57, 0
15, 120000, Note_on_c, 12, 57, 50
15, 120051, Note_on_c, 12, 57, 0
15, 120060, Note_on_c, 12, 56, 51
15, 120111, Note_on_c, 12, 56, 0
15, 120120, Note_on_c, 12, 56, 51
15, 120171, Note_on_c, 12, 56, 0
15, 120180, Note_on_c, 12, 56, 52
15, 120231, Note_on_c, 12, 56, 0
15, 120240, Note_on_c, 12, 56, 52
15, 120291, Note_on_c, 12, 56, 0
15, 120300, Note_on_c, 12, 57, 53
15, 120351, Note_on_c, 12, 57, 0
15, 120360, Note_on_c, 12, 59, 54
15, 120411, Note_on_c, 12, 59, 0
15, 120420, Note_on_c, 12, 59, 54
15, 120471, Note_on_c, 12, 59, 0
15, 120480, Note_on_c, 12, 59, 55
15, 120531, Note_on_c, 12, 59, 0
15, 120540, Note_on_c, 12, 59, 55
15, 120591, Note_on_c, 12, 59, 0
15, 120600, Note_on_c, 12, 59, 56
15, 120651, Note_on_c, 12, 59, 0
15, 120660, Note_on_c, 12, 59, 56
15, 120711, Note_on_c, 12, 59, 0
15, 120720, Note_on_c, 12, 59, 57
15, 120771, Note_on_c, 12, 59, 0
15, 120780, Note_on_c, 12, 57, 57
15, 120831, Note_on_c, 12, 57, 0
15, 120840, Note_on_c, 12, 57, 58
15, 120891, Note_on_c, 12, 57, 0
15, 120900, Note_on_c, 12, 57, 59
15, 120951, Note_on_c, 12, 57, 0
15, 120960, Note_on_c, 12, 57, 59
15, 121011, Note_on_c, 12, 57, 0
15, 121020, Note_on_c, 12, 59, 60
15, 121071, Note_on_c, 12, 59, 0
15, 121080, Note_on_c, 12, 61, 60
15, 121131, Note_on_c, 12, 61, 0
15, 121140, Note_on_c, 12, 61, 61
15, 121191, Note_on_c, 12, 61, 0
15, 121200, Note_on_c, 12, 61, 61
15, 121251, Note_on_c, 12, 61, 0
15, 121260, Note_on_c, 12, 61, 62
15, 121311, Note_on_c, 12, 61, 0
15, 121320, Note_on_c, 12, 61, 62
15, 121371, Note_on_c, 12, 61, 0
15, 121380, Note_on_c, 12, 61, 63
15, 121431, Note_on_c, 12, 61, 0
15, 121440, Note_on_c, 12, 61, 64
15, 121491, Note_on_c, 12, 61, 0
15, 121500, Note_on_c, 12, 59, 64
15, 121551, Note_on_c, 12, 59, 0
15, 121560, Note_on_c, 12, 59, 65
15, 121611, Note_on_c, 12, 59, 0
15, 121620, Note_on_c, 12, 59, 65
15, 121671, Note_on_c, 12, 59, 0
15, 121680, Note_on_c, 12, 59, 66
15, 121731, Note_on_c, 12, 59, 0
15, 121740, Note_on_c, 12, 61, 66
15, 121791, Note_on_c, 12, 61, 0
15, 121800, Note_on_c, 12, 63, 67
15, 121851, Note_on_c, 12, 63, 0
15, 121860, Note_on_c, 12, 63, 67
15, 121911, Note_on_c, 12, 63, 0
15, 121920, Note_on_c, 12, 63, 68
15, 121971, Note_on_c, 12, 63, 0
15, 121980, Note_on_c, 12, 63, 69
15, 122031, Note_on_c, 12, 63, 0
15, 122040, Note_on_c, 12, 63, 69
15, 122091, Note_on_c, 12, 63, 0
15, 122100, Note_on_c, 12, 63, 70
15, 122151, Note_on_c, 12, 63, 0
15, 122160, Note_on_c, 12, 63, 70
15, 122211, Note_on_c, 12, 63, 0
15, 122220, Note_on_c, 12, 61, 71
15, 122271, Note_on_c, 12, 61, 0
15, 122280, Note_on_c, 12, 61, 71
15, 122331, Note_on_c, 12, 61, 0
15, 122340, Note_on_c, 12, 61, 72
15, 122391, Note_on_c, 12, 61, 0
15, 122400, Note_on_c, 12, 61, 72
15, 122451, Note_on_c, 12, 61, 0
15, 122460, Note_on_c, 12, 63, 73
15, 122511, Note_on_c, 12, 63, 0
15, 122520, Note_on_c, 12, 64, 74
15, 122571, Note_on_c, 12, 64, 0
15, 122580, Note_on_c, 12, 64, 74
15, 122631, Note_on_c, 12, 64, 0
15, 122640, Note_on_c, 12, 64, 75
15, 122691, Note_on_c, 12, 64, 0
15, 122700, Note_on_c, 12, 64, 75
15, 122751, Note_on_c, 12, 64, 0
15, 122760, Note_on_c, 12, 64, 76
15, 122811, Note_on_c, 12, 64, 0
15, 122820, Note_on_c, 12, 64, 76
15, 122871, Note_on_c, 12, 64, 0
15, 122880, Note_on_c, 12, 64, 77
15, 122931, Note_on_c, 12, 64, 0
15, 122940, Note_on_c, 12, 63, 77
15, 122991, Note_on_c, 12, 63, 0
15, 123000, Note_on_c, 12, 63, 78
15, 123051, Note_on_c, 12, 63, 0
15, 123060, Note_on_c, 12, 63, 79
15, 123111, Note_on_c, 12, 63, 0
15, 123120, Note_on_c, 12, 63, 79
15, 123171, Note_on_c, 12, 63, 0
15, 123180, Note_on_c, 12, 64, 80
15, 123231, Note_on_c, 12, 64, 0
15, 123240, Note_on_c, 12, 66, 80
15, 123291, Note_on_c, 12, 66, 0
15, 123300, Note_on_c, 12, 66, 81
15, 123351, Note_on_c, 12, 66, 0
15, 123360, Note_on_c, 12, 66, 81
15, 123411, Note_on_c, 12, 66, 0
15, 123420, Note_on_c, 12, 66, 82
15, 123471, Note_on_c, 12, 66, 0
15, 123480, Note_on_c, 12, 66, 82
15, 123531, Note_on_c, 12, 66, 0
15, 123540, Note_on_c, 12, 66, 83
15, 123591, Note_on_c, 12, 66, 0
15, 123600, Note_on_c, 12, 68, 84
15, 123651, Note_on_c, 12, 68, 0
15, 123660, Note_on_c, 12, 71, 84
15, 123660, Note_on_c, 12, 68, 84
15, 123711, Note_on_c, 12, 71, 0
15, 123711, Note_on_c, 12, 68, 0
15, 123720, Note_on_c, 12, 71, 84
15, 123720, Note_on_c, 12, 68, 84
15, 123771, Note_on_c, 12, 71, 0
15, 123771, Note_on_c, 12, 68, 0
15, 123780, Note_on_c, 12, 71, 84
15, 123780, Note_on_c, 12, 68, 84
15, 123831, Note_on_c, 12, 71, 0
15, 123831, Note_on_c, 12, 68, 0
15, 123840, Note_on_c, 12, 71, 84
15, 123840, Note_on_c, 12, 68, 84
15, 123891, Note_on_c, 12, 71, 0
15, 123891, Note_on_c, 12, 68, 0
15, 123900, Note_on_c, 12, 68, 84
15, 123900, Note_on_c, 12, 71, 84
15, 123951, Note_on_c, 12, 68, 0
15, 123951, Note_on_c, 12, 71, 0
15, 123960, Note_on_c, 12, 68, 84
15, 123960, Note_on_c, 12, 71, 84
15, 124011, Note_on_c, 12, 68, 0
15, 124011, Note_on_c, 12, 71, 0
15, 124020, Note_on_c, 12, 68, 84
15, 124020, Note_on_c, 12, 71, 84
15, 124071, Note_on_c, 12, 68, 0
15, 124071, Note_on_c, 12, 71, 0
15, 124080, Note_on_c, 12, 68, 84
15, 124080, Note_on_c, 12, 71, 84
15, 124131, Note_on_c, 12, 68, 0
15, 124131, Note_on_c, 12, 71, 0
15, 124140, Note_on_c, 12, 68, 84
15, 124140, Note_on_c, 12, 71, 84
15, 124191, Note_on_c, 12, 68, 0
15, 124191, Note_on_c, 12, 71, 0
15, 124200, Note_on_c, 12, 68, 84
15, 124200, Note_on_c, 12, 71, 84
15, 124251, Note_on_c, 12, 68, 0
15, 124251, Note_on_c, 12, 71, 0
15, 124260, Note_on_c, 12, 71, 84
15, 124260, Note_on_c, 12, 68, 84
15, 124311, Note_on_c, 12, 71, 0
15, 124311, Note_on_c, 12, 68, 0
15, 124320, Note_on_c, 12, 71, 84
15, 124320, Note_on_c, 12, 68, 84
15, 124371, Note_on_c, 12, 71, 0
15, 124371, Note_on_c, 12, 68, 0
15, 124380, Note_on_c, 12, 71, 84
15, 124380, Note_on_c, 12, 68, 84
15, 124431, Note_on_c, 12, 71, 0
15, 124431, Note_on_c, 12, 68, 0
15, 124440, Note_on_c, 12, 68, 84
15, 124440, Note_on_c, 12, 71, 84
15, 124491, Note_on_c, 12, 68, 0
15, 124491, Note_on_c, 12, 71, 0
15, 124500, Note_on_c, 12, 68, 84
15, 124500, Note_on_c, 12, 71, 84
15, 124551, Note_on_c, 12, 68, 0
15, 124551, Note_on_c, 12, 71, 0
15, 124560, Note_on_c, 12, 68, 84
15, 124560, Note_on_c, 12, 71, 84
15, 124611, Note_on_c, 12, 68, 0
15, 124611, Note_on_c, 12, 71, 0
15, 124620, Note_on_c, 12, 68, 84
15, 124620, Note_on_c, 12, 71, 84
15, 124671, Note_on_c, 12, 68, 0
15, 124671, Note_on_c, 12, 71, 0
15, 124680, Note_on_c, 12, 71, 84
15, 124680, Note_on_c, 12, 68, 84
15, 124731, Note_on_c, 12, 71, 0
15, 124731, Note_on_c, 12, 68, 0
15, 124740, Note_on_c, 12, 68, 84
15, 124740, Note_on_c, 12, 71, 84
15, 124791, Note_on_c, 12, 68, 0
15, 124791, Note_on_c, 12, 71, 0
15, 124800, Note_on_c, 12, 71, 84
15, 124800, Note_on_c, 12, 68, 84
15, 124851, Note_on_c, 12, 71, 0
15, 124851, Note_on_c, 12, 68, 0
15, 124860, Note_on_c, 12, 71, 84
15, 124860, Note_on_c, 12, 68, 84
15, 124911, Note_on_c, 12, 71, 0
15, 124911, Note_on_c, 12, 68, 0
15, 124920, Note_on_c, 12, 71, 84
15, 124920, Note_on_c, 12, 68, 84
15, 124971, Note_on_c, 12, 71, 0
15, 124971, Note_on_c, 12, 68, 0
15, 124980, Note_on_c, 12, 71, 84
15, 124980, Note_on_c, 12, 68, 84
15, 125031, Note_on_c, 12, 71, 0
15, 125031, Note_on_c, 12, 68, 0
15, 125040, Note_on_c, 12, 69, 84
15, 125040, Note_on_c, 12, 73, 84
15, 125091, Note_on_c, 12, 69, 0
15, 125091, Note_on_c, 12, 73, 0
15, 125100, Note_on_c, 12, 73, 84
15, 125100, Note_on_c, 12, 69, 84
15, 125151, Note_on_c, 12, 73, 0
15, 125151, Note_on_c, 12, 69, 0
15, 125160, Note_on_c, 12, 73, 84
15, 125160, Note_on_c, 12, 69, 84
15, 125211, Note_on_c, 12, 73, 0
15, 125211, Note_on_c, 12, 69, 0
15, 125220, Note_on_c, 12, 69, 84
15, 125220, Note_on_c, 12, 73, 84
15, 125271, Note_on_c, 12, 69, 0
15, 125271, Note_on_c, 12, 73, 0
15, 125280, Note_on_c, 12, 69, 84
15, 125280, Note_on_c, 12, 73, 84
15, 125331, Note_on_c, 12, 69, 0
15, 125331, Note_on_c, 12, 73, 0
15, 125340, Note_on_c, 12, 69, 84
15, 125340, Note_on_c, 12, 73, 84
15, 125391, Note_on_c, 12, 69, 0
15, 125391, Note_on_c, 12, 73, 0
15, 125400, Note_on_c, 12, 73, 84
15, 125400, Note_on_c, 12, 69, 84
15, 125451, Note_on_c, 12, 73, 0
15, 125451, Note_on_c, 12, 69, 0
15, 125460, Note_on_c, 12, 73, 84
15, 125460, Note_on_c, 12, 69, 84
15, 125511, Note_on_c, 12, 73, 0
15, 125511, Note_on_c, 12, 69, 0
15, 125520, Note_on_c, 12, 73, 84
15, 125520, Note_on_c, 12, 69, 84
15, 125571, Note_on_c, 12, 73, 0
15, 125571, Note_on_c, 12, 69, 0
15, 125580, Note_on_c, 12, 73, 84
15, 125580, Note_on_c, 12, 69, 84
15, 125631, Note_on_c, 12, 73, 0
15, 125631, Note_on_c, 12, 69, 0
15, 125640, Note_on_c, 12, 69, 84
15, 125640, Note_on_c, 12, 73, 84
15, 125691, Note_on_c, 12, 69, 0
15, 125691, Note_on_c, 12, 73, 0
15, 125700, Note_on_c, 12, 73, 84
15, 125700, Note_on_c, 12, 69, 84
15, 125751, Note_on_c, 12, 73, 0
15, 125751, Note_on_c, 12, 69, 0
15, 125760, Note_on_c, 12, 73, 84
15, 125760, Note_on_c, 12, 69, 84
15, 125811, Note_on_c, 12, 73, 0
15, 125811, Note_on_c, 12, 69, 0
15, 125820, Note_on_c, 12, 69, 84
15, 125820, Note_on_c, 12, 73, 84
15, 125871, Note_on_c, 12, 69, 0
15, 125871, Note_on_c, 12, 73, 0
15, 125880, Note_on_c, 12, 69, 84
15, 125880, Note_on_c, 12, 73, 84
15, 125931, Note_on_c, 12, 69, 0
15, 125931, Note_on_c, 12, 73, 0
15, 125940, Note_on_c, 12, 69, 84
15, 125940, Note_on_c, 12, 73, 84
15, 125991, Note_on_c, 12, 69, 0
15, 125991, Note_on_c, 12, 73, 0
15, 126000, Note_on_c, 12, 69, 84
15, 126000, Note_on_c, 12, 73, 84
15, 126051, Note_on_c, 12, 69, 0
15, 126051, Note_on_c, 12, 73, 0
15, 126060, Note_on_c, 12, 73, 84
15, 126060, Note_on_c, 12, 69, 84
15, 126111, Note_on_c, 12, 73, 0
15, 126111, Note_on_c, 12, 69, 0
15, 126120, Note_on_c, 12, 69, 84
15, 126120, Note_on_c, 12, 73, 84
15, 126171, Note_on_c, 12, 69, 0
15, 126171, Note_on_c, 12, 73, 0
15, 126180, Note_on_c, 12, 73, 84
15, 126180, Note_on_c, 12, 69, 84
15, 126231, Note_on_c, 12, 73, 0
15, 126231, Note_on_c, 12, 69, 0
15, 126240, Note_on_c, 12, 69, 84
15, 126240, Note_on_c, 12, 73, 84
15, 126291, Note_on_c, 12, 69, 0
15, 126291, Note_on_c, 12, 73, 0
15, 126300, Note_on_c, 12, 69, 84
15, 126300, Note_on_c, 12, 73, 84
15, 126351, Note_on_c, 12, 69, 0
15, 126351, Note_on_c, 12, 73, 0
15, 126360, Note_on_c, 12, 73, 84
15, 126360, Note_on_c, 12, 69, 84
15, 126411, Note_on_c, 12, 73, 0
15, 126411, Note_on_c, 12, 69, 0
15, 126420, Note_on_c, 12, 69, 84
15, 126420, Note_on_c, 12, 73, 84
15, 126471, Note_on_c, 12, 69, 0
15, 126471, Note_on_c, 12, 73, 0
15, 126480, Note_on_c, 12, 48, 44
15, 126531, Note_on_c, 12, 48, 0
15, 126540, Note_on_c, 12, 48, 44
15, 126591, Note_on_c, 12, 48, 0
15, 126600, Note_on_c, 12, 48, 44
15, 126651, Note_on_c, 12, 48, 0
15, 126660, Note_on_c, 12, 48, 44
15, 126711, Note_on_c, 12, 48, 0
15, 126720, Note_on_c, 12, 48, 44
15, 126771, Note_on_c, 12, 48, 0
15, 126780, Note_on_c, 12, 48, 44
15, 126831, Note_on_c, 12, 48, 0
15, 126840, Note_on_c, 12, 48, 44
15, 126891, Note_on_c, 12, 48, 0
15, 126900, Note_on_c, 12, 48, 44
15, 126951, Note_on_c, 12, 48, 0
15, 126960, Note_on_c, 12, 48, 44
15, 127011, Note_on_c, 12, 48, 0
15, 127020, Note_on_c, 12, 48, 44
15, 127071, Note_on_c, 12, 48, 0
15, 127080, Note_on_c, 12, 48, 44
15, 127131, Note_on_c, 12, 48, 0
15, 127140, Note_on_c, 12, 48, 44
15, 127191, Note_on_c, 12, 48, 0
15, 127200, Note_on_c, 12, 54, 44
15, 127251, Note_on_c, 12, 54, 0
15, 127260, Note_on_c, 12, 54, 47
15, 127311, Note_on_c, 12, 54, 0
15, 127320, Note_on_c, 12, 54, 50
15, 127371, Note_on_c, 12, 54, 0
15, 127380, Note_on_c, 12, 59, 54
15, 127431, Note_on_c, 12, 59, 0
15, 127440, Note_on_c, 12, 59, 57
15, 127491, Note_on_c, 12, 59, 0
15, 127500, Note_on_c, 12, 59, 60
15, 127551, Note_on_c, 12, 59, 0
15, 127560, Note_on_c, 12, 59, 64
15, 127611, Note_on_c, 12, 59, 0
15, 127620, Note_on_c, 12, 59, 67
15, 127671, Note_on_c, 12, 59, 0
15, 127680, Note_on_c, 12, 59, 70
15, 127731, Note_on_c, 12, 59, 0
15, 127740, Note_on_c, 12, 57, 74
15, 127791, Note_on_c, 12, 57, 0
15, 127800, Note_on_c, 12, 56, 77
15, 127851, Note_on_c, 12, 56, 0
15, 127860, Note_on_c, 12, 54, 80
15, 127911, Note_on_c, 12, 54, 0
15, 127920, Note_on_c, 12, 52, 84
15, 127971, Note_on_c, 12, 52, 0
15, 127980, Note_on_c, 12, 71, 84
15, 127980, Note_on_c, 12, 68, 84
15, 128031, Note_on_c, 12, 71, 0
15, 128031, Note_on_c, 12, 68, 0
15, 128040, Note_on_c, 12, 71, 84
15, 128040, Note_on_c, 12, 68, 84
15, 128091, Note_on_c, 12, 71, 0
15, 128091, Note_on_c, 12, 68, 0
15, 128100, Note_on_c, 12, 71, 84
15, 128100, Note_on_c, 12, 68, 84
15, 128151, Note_on_c, 12, 71, 0
15, 128151, Note_on_c, 12, 68, 0
15, 128160, Note_on_c, 12, 68, 84
15, 128160, Note_on_c, 12, 71, 84
15, 128211, Note_on_c, 12, 68, 0
15, 128211, Note_on_c, 12, 71, 0
15, 128220, Note_on_c, 12, 71, 84
15, 128220, Note_on_c, 12, 68, 84
15, 128271, Note_on_c, 12, 71, 0
15, 128271, Note_on_c, 12, 68, 0
15, 128280, Note_on_c, 12, 71, 84
15, 128280, Note_on_c, 12, 68, 84
15, 128331, Note_on_c, 12, 71, 0
15, 128331, Note_on_c, 12, 68, 0
15, 128340, Note_on_c, 12, 71, 84
15, 128340, Note_on_c, 12, 68, 84
15, 128391, Note_on_c, 12, 71, 0
15, 128391, Note_on_c, 12, 68, 0
15, 128400, Note_on_c, 12, 71, 84
15, 128400, Note_on_c, 12, 68, 84
15, 128451, Note_on_c, 12, 71, 0
15, 128451, Note_on_c, 12, 68, 0
15, 128460, Note_on_c, 12, 71, 84
15, 128460, Note_on_c, 12, 68, 84
15, 128511, Note_on_c, 12, 71, 0
15, 128511, Note_on_c, 12, 68, 0
15, 128520, Note_on_c, 12, 71, 84
15, 128520, Note_on_c, 12, 68, 84
15, 128571, Note_on_c, 12, 71, 0
15, 128571, Note_on_c, 12, 68, 0
15, 128580, Note_on_c, 12, 71, 84
15, 128580, Note_on_c, 12, 68, 84
15, 128631, Note_on_c, 12, 71, 0
15, 128631, Note_on_c, 12, 68, 0
15, 128640, Note_on_c, 12, 68, 84
15, 128640, Note_on_c, 12, 71, 84
15, 128691, Note_on_c, 12, 68, 0
15, 128691, Note_on_c, 12, 71, 0
15, 128700, Note_on_c, 12, 71, 84
15, 128700, Note_on_c, 12, 68, 84
15, 128751, Note_on_c, 12, 71, 0
15, 128751, Note_on_c, 12, 68, 0
15, 128760, Note_on_c, 12, 71, 84
15, 128760, Note_on_c, 12, 68, 84
15, 128811, Note_on_c, 12, 71, 0
15, 128811, Note_on_c, 12, 68, 0
15, 128820, Note_on_c, 12, 71, 84
15, 128820, Note_on_c, 12, 68, 84
15, 128871, Note_on_c, 12, 71, 0
15, 128871, Note_on_c, 12, 68, 0
15, 128880, Note_on_c, 12, 71, 84
15, 128880, Note_on_c, 12, 68, 84
15, 128931, Note_on_c, 12, 71, 0
15, 128931, Note_on_c, 12, 68, 0
15, 128940, Note_on_c, 12, 71, 84
15, 128940, Note_on_c, 12, 68, 84
15, 128991, Note_on_c, 12, 71, 0
15, 128991, Note_on_c, 12, 68, 0
15, 129000, Note_on_c, 12, 71, 84
15, 129000, Note_on_c, 12, 68, 84
15, 129051, Note_on_c, 12, 71, 0
15, 129051, Note_on_c, 12, 68, 0
15, 129060, Note_on_c, 12, 68, 84
15, 129060, Note_on_c, 12, 71, 84
15, 129111, Note_on_c, 12, 68, 0
15, 129111, Note_on_c, 12, 71, 0
15, 129120, Note_on_c, 12, 71, 84
15, 129120, Note_on_c, 12, 68, 84
15, 129171, Note_on_c, 12, 71, 0
15, 129171, Note_on_c, 12, 68, 0
15, 129180, Note_on_c, 12, 68, 84
15, 129180, Note_on_c, 12, 71, 84
15, 129231, Note_on_c, 12, 68, 0
15, 129231, Note_on_c, 12, 71, 0
15, 129240, Note_on_c, 12, 71, 84
15, 129240, Note_on_c, 12, 68, 84
15, 129291, Note_on_c, 12, 71, 0
15, 129291, Note_on_c, 12, 68, 0
15, 129300, Note_on_c, 12, 68, 84
15, 129300, Note_on_c, 12, 71, 84
15, 129351, Note_on_c, 12, 68, 0
15, 129351, Note_on_c, 12, 71, 0
15, 129360, Note_on_c, 12, 69, 84
15, 129360, Note_on_c, 12, 73, 84
15, 129411, Note_on_c, 12, 69, 0
15, 129411, Note_on_c, 12, 73, 0
15, 129420, Note_on_c, 12, 69, 84
15, 129420, Note_on_c, 12, 73, 84
15, 129471, Note_on_c, 12, 69, 0
15, 129471, Note_on_c, 12, 73, 0
15, 129480, Note_on_c, 12, 69, 84
15, 129480, Note_on_c, 12, 73, 84
15, 129531, Note_on_c, 12, 69, 0
15, 129531, Note_on_c, 12, 73, 0
15, 129540, Note_on_c, 12, 69, 84
15, 129540, Note_on_c, 12, 73, 84
15, 129591, Note_on_c, 12, 69, 0
15, 129591, Note_on_c, 12, 73, 0
15, 129600, Note_on_c, 12, 73, 84
15, 129600, Note_on_c, 12, 69, 84
15, 129651, Note_on_c, 12, 73, 0
15, 129651, Note_on_c, 12, 69, 0
15, 129660, Note_on_c, 12, 73, 84
15, 129660, Note_on_c, 12, 69, 84
15, 129711, Note_on_c, 12, 73, 0
15, 129711, Note_on_c, 12, 69, 0
15, 129720, Note_on_c, 12, 69, 84
15, 129720, Note_on_c, 12, 73, 84
15, 129771, Note_on_c, 12, 69, 0
15, 129771, Note_on_c, 12, 73, 0
15, 129780, Note_on_c, 12, 69, 84
15, 129780, Note_on_c, 12, 73, 84
15, 129831, Note_on_c, 12, 69, 0
15, 129831, Note_on_c, 12, 73, 0
15, 129840, Note_on_c, 12, 69, 84
15, 129840, Note_on_c, 12, 73, 84
15, 129891, Note_on_c, 12, 69, 0
15, 129891, Note_on_c, 12, 73, 0
15, 129900, Note_on_c, 12, 69, 84
15, 129900, Note_on_c, 12, 73, 84
15, 129951, Note_on_c, 12, 69, 0
15, 129951, Note_on_c, 12, 73, 0
15, 129960, Note_on_c, 12, 69, 84
15, 129960, Note_on_c, 12, 73, 84
15, 130011, Note_on_c, 12, 69, 0
15, 130011, Note_on_c, 12, 73, 0
15, 130020, Note_on_c, 12, 69, 84
15, 130020, Note_on_c, 12, 73, 84
15, 130071, Note_on_c, 12, 69, 0
15, 130071, Note_on_c, 12, 73, 0
15, 130080, Note_on_c, 12, 73, 84
15, 130080, Note_on_c, 12, 69, 84
15, 130131, Note_on_c, 12, 73, 0
15, 130131, Note_on_c, 12, 69, 0
15, 130140, Note_on_c, 12, 73, 84
15, 130140, Note_on_c, 12, 69, 84
15, 130191, Note_on_c, 12, 73, 0
15, 130191, Note_on_c, 12, 69, 0
15, 130200, Note_on_c, 12, 73, 84
15, 130200, Note_on_c, 12, 69, 84
15, 130251, Note_on_c, 12, 73, 0
15, 130251, Note_on_c, 12, 69, 0
15, 130260, Note_on_c, 12, 73, 84
15, 130260, Note_on_c, 12, 69, 84
15, 130311, Note_on_c, 12, 73, 0
15, 130311, Note_on_c, 12, 69, 0
15, 130320, Note_on_c, 12, 73, 84
15, 130320, Note_on_c, 12, 69, 84
15, 130371, Note_on_c, 12, 73, 0
15, 130371, Note_on_c, 12, 69, 0
15, 130380, Note_on_c, 12, 69, 84
15, 130380, Note_on_c, 12, 73, 84
15, 130431, Note_on_c, 12, 69, 0
15, 130431, Note_on_c, 12, 73, 0
15, 130440, Note_on_c, 12, 69, 84
15, 130440, Note_on_c, 12, 73, 84
15, 130491, Note_on_c, 12, 69, 0
15, 130491, Note_on_c, 12, 73, 0
15, 130500, Note_on_c, 12, 69, 84
15, 130500, Note_on_c, 12, 73, 84
15, 130551, Note_on_c, 12, 69, 0
15, 130551, Note_on_c, 12, 73, 0
15, 130560, Note_on_c, 12, 73, 84
15, 130560, Note_on_c, 12, 69, 84
15, 130611, Note_on_c, 12, 73, 0
15, 130611, Note_on_c, 12, 69, 0
15, 130620, Note_on_c, 12, 73, 84
15, 130620, Note_on_c, 12, 69, 84
15, 130671, Note_on_c, 12, 73, 0
15, 130671, Note_on_c, 12, 69, 0
15, 130680, Note_on_c, 12, 73, 84
15, 130680, Note_on_c, 12, 69, 84
15, 130731, Note_on_c, 12, 73, 0
15, 130731, Note_on_c, 12, 69, 0
15, 130740, Note_on_c, 12, 73, 84
15, 130740, Note_on_c, 12, 69, 84
15, 130791, Note_on_c, 12, 73, 0
15, 130791, Note_on_c, 12, 69, 0
15, 130798, Control_c, 12, 11, 48
15, 130800, Note_on_c, 12, 65, 84
15, 131159, Note_on_c, 12, 65, 0
15, 131160, Note_on_c, 12, 60, 84
15, 131519, Note_on_c, 12, 60, 0
15, 131520, Note_on_c, 12, 51, 84
15, 131520, Control_c, 12, 11, 48
15, 131560, Control_c, 12, 11, 52
15, 131600, Control_c, 12, 11, 57
15, 131640, Control_c, 12, 11, 61
15, 131680, Control_c, 12, 11, 66
15, 131720, Control_c, 12, 11, 70
15, 131760, Control_c, 12, 11, 74
15, 131800, Control_c, 12, 11, 79
15, 131840, Control_c, 12, 11, 83
15, 131880, Control_c, 12, 11, 88
15, 131920, Control_c, 12, 11, 92
15, 131960, Control_c, 12, 11, 96
15, 131999, Note_on_c, 12, 51, 0
15, 132000, Control_c, 12, 11, 101
15, 132000, Note_on_c, 12, 59, 84
15, 132040, Control_c, 12, 11, 105
15, 132080, Control_c, 12, 11, 109
15, 132104, Note_on_c, 12, 59, 0
15, 132120, Control_c, 12, 11, 114
15, 132120, Note_on_c, 12, 59, 84
15, 132160, Control_c, 12, 11, 118
15, 132200, Control_c, 12, 11, 123
15, 132209, Note_on_c, 12, 59, 0
15, 132238, Control_c, 12, 11, 127
15, 132240, Note_on_c, 12, 59, 84
15, 132344, Note_on_c, 12, 59, 0
15, 132360, Note_on_c, 12, 52, 84
15, 132360, Note_on_c, 12, 56, 84
15, 132411, Note_on_c, 12, 52, 0
15, 132411, Note_on_c, 12, 56, 0
15, 132420, Note_on_c, 12, 56, 84
15, 132420, Note_on_c, 12, 52, 84
15, 132471, Note_on_c, 12, 56, 0
15, 132471, Note_on_c, 12, 52, 0
15, 132480, Note_on_c, 12, 56, 84
15, 132480, Note_on_c, 12, 52, 84
15, 132531, Note_on_c, 12, 56, 0
15, 132531, Note_on_c, 12, 52, 0
15, 132540, Note_on_c, 12, 52, 84
15, 132540, Note_on_c, 12, 56, 84
15, 132591, Note_on_c, 12, 52, 0
15, 132591, Note_on_c, 12, 56, 0
15, 132600, Note_on_c, 12, 56, 84
15, 132600, Note_on_c, 12, 52, 84
15, 132704, Note_on_c, 12, 56, 0
15, 132704, Note_on_c, 12, 52, 0
15, 132720, Note_on_c, 12, 52, 84
15, 132720, Note_on_c, 12, 56, 84
15, 132771, Note_on_c, 12, 52, 0
15, 132771, Note_on_c, 12, 56, 0
15, 132780, Note_on_c, 12, 52, 84
15, 132780, Note_on_c, 12, 56, 84
15, 132831, Note_on_c, 12, 52, 0
15, 132831, Note_on_c, 12, 56, 0
15, 132840, Note_on_c, 12, 56, 84
15, 132840, Note_on_c, 12, 52, 84
15, 132891, Note_on_c, 12, 56, 0
15, 132891, Note_on_c, 12, 52, 0
15, 132900, Note_on_c, 12, 56, 84
15, 132900, Note_on_c, 12, 52, 84
15, 132951, Note_on_c, 12, 56, 0
15, 132951, Note_on_c, 12, 52, 0
15, 132960, Note_on_c, 12, 57, 84
15, 132960, Note_on_c, 12, 54, 84
15, 133064, Note_on_c, 12, 57, 0
15, 133064, Note_on_c, 12, 54, 0
15, 133080, Note_on_c, 12, 54, 84
15, 133080, Note_on_c, 12, 57, 84
15, 133131, Note_on_c, 12, 54, 0
15, 133131, Note_on_c, 12, 57, 0
15, 133140, Note_on_c, 12, 57, 84
15, 133140, Note_on_c, 12, 54, 84
15, 133191, Note_on_c, 12, 57, 0
15, 133191, Note_on_c, 12, 54, 0
15, 133200, Note_on_c, 12, 54, 84
15, 133200, Note_on_c, 12, 57, 84
15, 133251, Note_on_c, 12, 54, 0
15, 133251, Note_on_c, 12, 57, 0
15, 133260, Note_on_c, 12, 54, 84
15, 133260, Note_on_c, 12, 57, 84
15, 133311, Note_on_c, 12, 54, 0
15, 133311, Note_on_c, 12, 57, 0
15, 133320, Note_on_c, 12, 54, 84
15, 133320, Note_on_c, 12, 57, 84
15, 133424, Note_on_c, 12, 54, 0
15, 133424, Note_on_c, 12, 57, 0
15, 133440, Note_on_c, 12, 54, 84
15, 133440, Note_on_c, 12, 57, 84
15, 133491, Note_on_c, 12, 54, 0
15, 133491, Note_on_c, 12, 57, 0
15, 133500, Note_on_c, 12, 57, 84
15, 133500, Note_on_c, 12, 54, 84
15, 133551, Note_on_c, 12, 57, 0
15, 133551, Note_on_c, 12, 54, 0
15, 133560, Note_on_c, 12, 54, 84
15, 133560, Note_on_c, 12, 57, 84
15, 133611, Note_on_c, 12, 54, 0
15, 133611, Note_on_c, 12, 57, 0
15, 133620, Note_on_c, 12, 54, 84
15, 133620, Note_on_c, 12, 57, 84
15, 133671, Note_on_c, 12, 54, 0
15, 133671, Note_on_c, 12, 57, 0
15, 133680, Note_on_c, 12, 56, 84
15, 133680, Note_on_c, 12, 52, 84
15, 133784, Note_on_c, 12, 56, 0
15, 133784, Note_on_c, 12, 52, 0
15, 133800, Note_on_c, 12, 56, 84
15, 133800, Note_on_c, 12, 52, 84
15, 133851, Note_on_c, 12, 56, 0
15, 133851, Note_on_c, 12, 52, 0
15, 133860, Note_on_c, 12, 52, 84
15, 133860, Note_on_c, 12, 56, 84
15, 133911, Note_on_c, 12, 52, 0
15, 133911, Note_on_c, 12, 56, 0
15, 133920, Note_on_c, 12, 56, 84
15, 133920, Note_on_c, 12, 52, 84
15, 133971, Note_on_c, 12, 56, 0
15, 133971, Note_on_c, 12, 52, 0
15, 133980, Note_on_c, 12, 56, 84
15, 133980, Note_on_c, 12, 52, 84
15, 134031, Note_on_c, 12, 56, 0
15, 134031, Note_on_c, 12, 52, 0
15, 134040, Note_on_c, 12, 52, 84
15, 134040, Note_on_c, 12, 56, 84
15, 134144, Note_on_c, 12, 52, 0
15, 134144, Note_on_c, 12, 56, 0
15, 134160, Note_on_c, 12, 56, 84
15, 134160, Note_on_c, 12, 52, 84
15, 134211, Note_on_c, 12, 56, 0
15, 134211, Note_on_c, 12, 52, 0
15, 134220, Note_on_c, 12, 52, 84
15, 134220, Note_on_c, 12, 56, 84
15, 134271, Note_on_c, 12, 52, 0
15, 134271, Note_on_c, 12, 56, 0
15, 134280, Note_on_c, 12, 56, 84
15, 134280, Note_on_c, 12, 52, 84
15, 134331, Note_on_c, 12, 56, 0
15, 134331, Note_on_c, 12, 52, 0
15, 134340, Note_on_c, 12, 52, 84
15, 134340, Note_on_c, 12, 56, 84
15, 134391, Note_on_c, 12, 52, 0
15, 134391, Note_on_c, 12, 56, 0
15, 134400, Note_on_c, 12, 54, 84
15, 134400, Note_on_c, 12, 57, 84
15, 134504, Note_on_c, 12, 54, 0
15, 134504, Note_on_c, 12, 57, 0
15, 134520, Note_on_c, 12, 54, 84
15, 134520, Note_on_c, 12, 57, 84
15, 134571, Note_on_c, 12, 54, 0
15, 134571, Note_on_c, 12, 57, 0
15, 134580, Note_on_c, 12, 57, 84
15, 134580, Note_on_c, 12, 54, 84
15, 134631, Note_on_c, 12, 57, 0
15, 134631, Note_on_c, 12, 54, 0
15, 134640, Note_on_c, 12, 54, 84
15, 134640, Note_on_c, 12, 57, 84
15, 134691, Note_on_c, 12, 54, 0
15, 134691, Note_on_c, 12, 57, 0
15, 134700, Note_on_c, 12, 54, 84
15, 134700, Note_on_c, 12, 57, 84
15, 134751, Note_on_c, 12, 54, 0
15, 134751, Note_on_c, 12, 57, 0
15, 134760, Note_on_c, 12, 54, 84
15, 134760, Note_on_c, 12, 57, 84
15, 134864, Note_on_c, 12, 54, 0
15, 134864, Note_on_c, 12, 57, 0
15, 134880, Note_on_c, 12, 54, 84
15, 134880, Note_on_c, 12, 57, 84
15, 134931, Note_on_c, 12, 54, 0
15, 134931, Note_on_c, 12, 57, 0
15, 134940, Note_on_c, 12, 57, 84
15, 134940, Note_on_c, 12, 54, 84
15, 134991, Note_on_c, 12, 57, 0
15, 134991, Note_on_c, 12, 54, 0
15, 135000, Note_on_c, 12, 54, 84
15, 135000, Note_on_c, 12, 57, 84
15, 135051, Note_on_c, 12, 54, 0
15, 135051, Note_on_c, 12, 57, 0
15, 135060, Note_on_c, 12, 57, 84
15, 135060, Note_on_c, 12, 54, 84
15, 135111, Note_on_c, 12, 57, 0
15, 135111, Note_on_c, 12, 54, 0
15, 135120, Note_on_c, 12, 52, 84
15, 135120, Note_on_c, 12, 56, 84
15, 135224, Note_on_c, 12, 52, 0
15, 135224, Note_on_c, 12, 56, 0
15, 135240, Note_on_c, 12, 56, 84
15, 135240, Note_on_c, 12, 52, 84
15, 135291, Note_on_c, 12, 56, 0
15, 135291, Note_on_c, 12, 52, 0
15, 135300, Note_on_c, 12, 56, 84
15, 135300, Note_on_c, 12, 52, 84
15, 135351, Note_on_c, 12, 56, 0
15, 135351, Note_on_c, 12, 52, 0
15, 135360, Note_on_c, 12, 52, 84
15, 135360, Note_on_c, 12, 56, 84
15, 135411, Note_on_c, 12, 52, 0
15, 135411, Note_on_c, 12, 56, 0
15, 135420, Note_on_c, 12, 56, 84
15, 135420, Note_on_c, 12, 52, 84
15, 135471, Note_on_c, 12, 56, 0
15, 135471, Note_on_c, 12, 52, 0
15, 135480, Note_on_c, 12, 57, 84
15, 135480, Note_on_c, 12, 54, 84
15, 135584, Note_on_c, 12, 57, 0
15, 135584, Note_on_c, 12, 54, 0
15, 135600, Note_on_c, 12, 57, 84
15, 135600, Note_on_c, 12, 54, 84
15, 135651, Note_on_c, 12, 57, 0
15, 135651, Note_on_c, 12, 54, 0
15, 135660, Note_on_c, 12, 54, 84
15, 135660, Note_on_c, 12, 57, 84
15, 135711, Note_on_c, 12, 54, 0
15, 135711, Note_on_c, 12, 57, 0
15, 135720, Note_on_c, 12, 54, 84
15, 135720, Note_on_c, 12, 57, 84
15, 135771, Note_on_c, 12, 54, 0
15, 135771, Note_on_c, 12, 57, 0
15, 135780, Note_on_c, 12, 54, 84
15, 135780, Note_on_c, 12, 57, 84
15, 135831, Note_on_c, 12, 54, 0
15, 135831, Note_on_c, 12, 57, 0
15, 135840, Note_on_c, 12, 52, 84
15, 135840, Note_on_c, 12, 56, 84
15, 135944, Note_on_c, 12, 52, 0
15, 135944, Note_on_c, 12, 56, 0
15, 135960, Note_on_c, 12, 56, 84
15, 135960, Note_on_c, 12, 52, 84
15, 136011, Note_on_c, 12, 56, 0
15, 136011, Note_on_c, 12, 52, 0
15, 136020, Note_on_c, 12, 52, 84
15, 136020, Note_on_c, 12, 56, 84
15, 136071, Note_on_c, 12, 52, 0
15, 136071, Note_on_c, 12, 56, 0
15, 136080, Note_on_c, 12, 52, 84
15, 136080, Note_on_c, 12, 56, 84
15, 136131, Note_on_c, 12, 52, 0
15, 136131, Note_on_c, 12, 56, 0
15, 136140, Note_on_c, 12, 52, 84
15, 136140, Note_on_c, 12, 56, 84
15, 136191, Note_on_c, 12, 52, 0
15, 136191, Note_on_c, 12, 56, 0
15, 136200, Note_on_c, 12, 57, 84
15, 136200, Note_on_c, 12, 54, 84
15, 136304, Note_on_c, 12, 57, 0
15, 136304, Note_on_c, 12, 54, 0
15, 136320, Note_on_c, 12, 57, 84
15, 136320, Note_on_c, 12, 54, 84
15, 136371, Note_on_c, 12, 57, 0
15, 136371, Note_on_c, 12, 54, 0
15, 136380, Note_on_c, 12, 57, 84
15, 136380, Note_on_c, 12, 54, 84
15, 136431, Note_on_c, 12, 57, 0
15, 136431, Note_on_c, 12, 54, 0
15, 136440, Note_on_c, 12, 54, 84
15, 136440, Note_on_c, 12, 57, 84
15, 136491, Note_on_c, 12, 54, 0
15, 136491, Note_on_c, 12, 57, 0
15, 136500, Note_on_c, 12, 57, 84
15, 136500, Note_on_c, 12, 54, 84
15, 136551, Note_on_c, 12, 57, 0
15, 136551, Note_on_c, 12, 54, 0
15, 136560, Note_on_c, 12, 52, 84
15, 136560, Note_on_c, 12, 56, 84
15, 136664, Note_on_c, 12, 52, 0
15, 136664, Note_on_c, 12, 56, 0
15, 136680, Note_on_c, 12, 52, 84
15, 136680, Note_on_c, 12, 56, 84
15, 136731, Note_on_c, 12, 52, 0
15, 136731, Note_on_c, 12, 56, 0
15, 136740, Note_on_c, 12, 52, 84
15, 136740, Note_on_c, 12, 56, 84
15, 136791, Note_on_c, 12, 52, 0
15, 136791, Note_on_c, 12, 56, 0
15, 136800, Note_on_c, 12, 56, 84
15, 136800, Note_on_c, 12, 52, 84
15, 136851, Note_on_c, 12, 56, 0
15, 136851, Note_on_c, 12, 52, 0
15, 136860, Note_on_c, 12, 52, 84
15, 136860, Note_on_c, 12, 56, 84
15, 136911, Note_on_c, 12, 52, 0
15, 136911, Note_on_c, 12, 56, 0
15, 136920, Note_on_c, 12, 54, 84
15, 136920, Note_on_c, 12, 57, 84
15, 137024, Note_on_c, 12, 54, 0
15, 137024, Note_on_c, 12, 57, 0
15, 137040, Note_on_c, 12, 57, 84
15, 137040, Note_on_c, 12, 54, 84
15, 137091, Note_on_c, 12, 57, 0
15, 137091, Note_on_c, 12, 54, 0
15, 137100, Note_on_c, 12, 54, 84
15, 137100, Note_on_c, 12, 57, 84
15, 137151, Note_on_c, 12, 54, 0
15, 137151, Note_on_c, 12, 57, 0
15, 137160, Note_on_c, 12, 57, 84
15, 137160, Note_on_c, 12, 54, 84
15, 137211, Note_on_c, 12, 57, 0
15, 137211, Note_on_c, 12, 54, 0
15, 137220, Note_on_c, 12, 54, 84
15, 137220, Note_on_c, 12, 57, 84
15, 137241, Note_on_c, 12, 54, 0
15, 137250, Note_on_c, 12, 51, 84
15, 137271, Note_on_c, 12, 57, 0
15, 137279, Note_on_c, 12, 51, 0
15, 137280, Note_on_c, 12, 52, 84
15, 137459, Note_on_c, 12, 52, 0
15, 137610, Note_on_c, 12, 52, 84
15, 137639, Note_on_c, 12, 52, 0
15, 137640, Note_on_c, 12, 54, 84
15, 137819, Note_on_c, 12, 54, 0
15, 137970, Note_on_c, 12, 54, 84
15, 137999, Note_on_c, 12, 54, 0
15, 138000, Note_on_c, 12, 56, 84
15, 138179, Note_on_c, 12, 56, 0
15, 138330, Note_on_c, 12, 56, 84
15, 138359, Note_on_c, 12, 56, 0
15, 138360, Note_on_c, 12, 57, 84
15, 138539, Note_on_c, 12, 57, 0
15, 138690, Note_on_c, 12, 57, 84
15, 138719, Note_on_c, 12, 57, 0
15, 138720, Note_on_c, 12, 59, 84
15, 138899, Note_on_c, 12, 59, 0
15, 139050, Note_on_c, 12, 59, 84
15, 139079, Note_on_c, 12, 59, 0
15, 139080, Note_on_c, 12, 61, 84
15, 139259, Note_on_c, 12, 61, 0
15, 139410, Note_on_c, 12, 61, 84
15, 139439, Note_on_c, 12, 61, 0
15, 139440, Note_on_c, 12, 62, 84
15, 139619, Note_on_c, 12, 62, 0
15, 139800, Note_on_c, 12, 63, 84
15, 139979, Note_on_c, 12, 63, 0
15, 144420, Note_on_c, 12, 57, 52
15, 144471, Note_on_c, 12, 57, 0
15, 144480, Note_on_c, 12, 57, 52
15, 144719, Note_on_c, 12, 57, 0
15, 145860, Note_on_c, 12, 57, 52
15, 145911, Note_on_c, 12, 57, 0
15, 145920, Note_on_c, 12, 57, 52
15, 146159, Note_on_c, 12, 57, 0
15, 147300, Note_on_c, 12, 57, 52
15, 147351, Note_on_c, 12, 57, 0
15, 147360, Note_on_c, 12, 57, 52
15, 147599, Note_on_c, 12, 57, 0
15, 148740, Note_on_c, 12, 57, 52
15, 148791, Note_on_c, 12, 57, 0
15, 148800, Note_on_c, 12, 57, 52
15, 148919, Note_on_c, 12, 57, 0
15, 149040, Note_on_c, 12, 49, 52
15, 149144, Note_on_c, 12, 49, 0
15, 149160, Note_on_c, 12, 52, 52
15, 149279, Note_on_c, 12, 52, 0
15, 149400, Note_on_c, 12, 52, 52
15, 149504, Note_on_c, 12, 52, 0
15, 149520, Note_on_c, 12, 57, 52
15, 149759, Note_on_c, 12, 57, 0
15, 150900, Note_on_c, 12, 57, 52
15, 150951, Note_on_c, 12, 57, 0
15, 150960, Note_on_c, 12, 57, 52
15, 151199, Note_on_c, 12, 57, 0
15, 151560, Note_on_c, 12, 52, 52
15, 151664, Note_on_c, 12, 52, 0
15, 151680, Note_on_c, 12, 54, 68
15, 151799, Note_on_c, 12, 54, 0
15, 151800, Note_on_c, 12, 52, 52
15, 151904, Note_on_c, 12, 52, 0
15, 151920, Note_on_c, 12, 49, 52
15, 152009, Note_on_c, 12, 49, 0
15, 152040, Note_on_c, 12, 57, 52
15, 152279, Note_on_c, 12, 57, 0
15, 153060, Note_on_c, 12, 57, 52
15, 153111, Note_on_c, 12, 57, 0
15, 153120, Note_on_c, 12, 57, 52
15, 153359, Note_on_c, 12, 57, 0
15, 153720, Note_on_c, 12, 52, 52
15, 153824, Note_on_c, 12, 52, 0
15, 153840, Note_on_c, 12, 54, 68
15, 153959, Note_on_c, 12, 54, 0
15, 153960, Note_on_c, 12, 52, 52
15, 154064, Note_on_c, 12, 52, 0
15, 154080, Note_on_c, 12, 49, 52
15, 154169, Note_on_c, 12, 49, 0
15, 154200, Note_on_c, 12, 57, 52
15, 154439, Note_on_c, 12, 57, 0
15, 155220, Note_on_c, 12, 52, 52
15, 155271, Note_on_c, 12, 52, 0
15, 155280, Note_on_c, 12, 52, 76
15, 155320, Control_c, 12, 11, 123
15, 155360, Control_c, 12, 11, 119
15, 155400, Control_c, 12, 11, 115
15, 155440, Control_c, 12, 11, 111
15, 155480, Control_c, 12, 11, 107
15, 155520, Control_c, 12, 11, 104
15, 155560, Control_c, 12, 11, 100
15, 155600, Control_c, 12, 11, 96
15, 155640, Control_c, 12, 11, 92
15, 155680, Control_c, 12, 11, 88
15, 155720, Control_c, 12, 11, 84
15, 155760, Control_c, 12, 11, 80
15, 155879, Note_on_c, 12, 52, 0
15, 156360, Control_c, 12, 11, 127
15, 156660, Note_on_c, 12, 52, 52
15, 156711, Note_on_c, 12, 52, 0
15, 156720, Note_on_c, 12, 52, 76
15, 157251, Note_on_c, 12, 52, 0
15, 157260, Note_on_c, 12, 61, 76
15, 157304, Note_on_c, 12, 61, 0
15, 157320, Note_on_c, 12, 57, 76
15, 157409, Note_on_c, 12, 57, 0
15, 157440, Note_on_c, 12, 64, 84
15, 157499, Note_on_c, 12, 64, 0
15, 157500, Note_on_c, 12, 64, 76
15, 157971, Note_on_c, 12, 64, 0
15, 157980, Note_on_c, 12, 61, 76
15, 158024, Note_on_c, 12, 61, 0
15, 158040, Note_on_c, 12, 58, 76
15, 158129, Note_on_c, 12, 58, 0
15, 158160, Note_on_c, 12, 64, 84
15, 158219, Note_on_c, 12, 64, 0
15, 158220, Note_on_c, 12, 64, 76
15, 158279, Note_on_c, 12, 64, 0
15, 158340, Note_on_c, 12, 62, 76
15, 158384, Note_on_c, 12, 62, 0
15, 158400, Note_on_c, 12, 59, 76
15, 158489, Note_on_c, 12, 59, 0
15, 158520, Note_on_c, 12, 68, 84
15, 158579, Note_on_c, 12, 68, 0
15, 158580, Note_on_c, 12, 68, 76
15, 158639, Note_on_c, 12, 68, 0
15, 158700, Note_on_c, 12, 64, 76
15, 158744, Note_on_c, 12, 64, 0
15, 158760, Note_on_c, 12, 62, 76
15, 158849, Note_on_c, 12, 62, 0
15, 158880, Note_on_c, 12, 71, 84
15, 158939, Note_on_c, 12, 71, 0
15, 158940, Note_on_c, 12, 71, 76
15, 158999, Note_on_c, 12, 71, 0
15, 159060, Note_on_c, 12, 68, 76
15, 159104, Note_on_c, 12, 68, 0
15, 159120, Note_on_c, 12, 64, 76
15, 159209, Note_on_c, 12, 64, 0
15, 159240, Note_on_c, 12, 74, 84
15, 159299, Note_on_c, 12, 74, 0
15, 159300, Note_on_c, 12, 74, 76
15, 159359, Note_on_c, 12, 74, 0
15, 159420, Note_on_c, 12, 71, 76
15, 159464, Note_on_c, 12, 71, 0
15, 159480, Note_on_c, 12, 68, 76
15, 159569, Note_on_c, 12, 68, 0
15, 159600, Note_on_c, 12, 59, 76
15, 159600, Note_on_c, 12, 68, 76
15, 159944, Note_on_c, 12, 59, 0
15, 159944, Note_on_c, 12, 68, 0
15, 159960, Note_on_c, 12, 52, 84
15, 160019, Note_on_c, 12, 52, 0
15, 160020, Note_on_c, 12, 54, 84
15, 160079, Note_on_c, 12, 54, 0
15, 160080, Note_on_c, 12, 56, 84
15, 160139, Note_on_c, 12, 56, 0
15, 160140, Note_on_c, 12, 57, 84
15, 160199, Note_on_c, 12, 57, 0
15, 160200, Note_on_c, 12, 59, 84
15, 160239, Note_on_c, 12, 59, 0
15, 160240, Note_on_c, 12, 61, 84
15, 160279, Note_on_c, 12, 61, 0
15, 160280, Note_on_c, 12, 62, 84
15, 160311, Note_on_c, 12, 62, 0
15, 160320, Note_on_c, 12, 64, 92
15, 160371, Note_on_c, 12, 64, 0
15, 160380, Note_on_c, 12, 57, 84
15, 160431, Note_on_c, 12, 57, 0
15, 160440, Note_on_c, 12, 59, 84
15, 160491, Note_on_c, 12, 59, 0
15, 160500, Note_on_c, 12, 61, 84
15, 160551, Note_on_c, 12, 61, 0
15, 160560, Note_on_c, 12, 61, 84
15, 160611, Note_on_c, 12, 61, 0
15, 160620, Note_on_c, 12, 61, 84
15, 160671, Note_on_c, 12, 61, 0
15, 160680, Note_on_c, 12, 57, 84
15, 160739, Note_on_c, 12, 57, 0
15, 160740, Note_on_c, 12, 59, 84
15, 160791, Note_on_c, 12, 59, 0
15, 160800, Note_on_c, 12, 61, 84
15, 160851, Note_on_c, 12, 61, 0
15, 160860, Note_on_c, 12, 61, 84
15, 160911, Note_on_c, 12, 61, 0
15, 160920, Note_on_c, 12, 61, 84
15, 160971, Note_on_c, 12, 61, 0
15, 160980, Note_on_c, 12, 61, 84
15, 161031, Note_on_c, 12, 61, 0
15, 161040, Note_on_c, 12, 54, 84
15, 161099, Note_on_c, 12, 54, 0
15, 161100, Note_on_c, 12, 55, 84
15, 161151, Note_on_c, 12, 55, 0
15, 161160, Note_on_c, 12, 57, 84
15, 161211, Note_on_c, 12, 57, 0
15, 161220, Note_on_c, 12, 57, 84
15, 161271, Note_on_c, 12, 57, 0
15, 161280, Note_on_c, 12, 57, 84
15, 161331, Note_on_c, 12, 57, 0
15, 161340, Note_on_c, 12, 57, 84
15, 161391, Note_on_c, 12, 57, 0
15, 161400, Note_on_c, 12, 54, 84
15, 161459, Note_on_c, 12, 54, 0
15, 161460, Note_on_c, 12, 55, 84
15, 161511, Note_on_c, 12, 55, 0
15, 161520, Note_on_c, 12, 57, 84
15, 161571, Note_on_c, 12, 57, 0
15, 161580, Note_on_c, 12, 57, 84
15, 161631, Note_on_c, 12, 57, 0
15, 161640, Note_on_c, 12, 59, 84
15, 161691, Note_on_c, 12, 59, 0
15, 161700, Note_on_c, 12, 59, 84
15, 161751, Note_on_c, 12, 59, 0
15, 161760, Note_on_c, 12, 57, 84
15, 161819, Note_on_c, 12, 57, 0
15, 161820, Note_on_c, 12, 59, 84
15, 161871, Note_on_c, 12, 59, 0
15, 161880, Note_on_c, 12, 61, 84
15, 161931, Note_on_c, 12, 61, 0
15, 161940, Note_on_c, 12, 61, 84
15, 161991, Note_on_c, 12, 61, 0
15, 162000, Note_on_c, 12, 61, 84
15, 162051, Note_on_c, 12, 61, 0
15, 162060, Note_on_c, 12, 61, 84
15, 162111, Note_on_c, 12, 61, 0
15, 162120, Note_on_c, 12, 49, 84
15, 162179, Note_on_c, 12, 49, 0
15, 162180, Note_on_c, 12, 52, 84
15, 162231, Note_on_c, 12, 52, 0
15, 162240, Note_on_c, 12, 57, 84
15, 162291, Note_on_c, 12, 57, 0
15, 162300, Note_on_c, 12, 57, 84
15, 162351, Note_on_c, 12, 57, 0
15, 162360, Note_on_c, 12, 57, 84
15, 162411, Note_on_c, 12, 57, 0
15, 162420, Note_on_c, 12, 57, 84
15, 162471, Note_on_c, 12, 57, 0
15, 162480, Note_on_c, 12, 52, 84
15, 162539, Note_on_c, 12, 52, 0
15, 162540, Note_on_c, 12, 57, 84
15, 162591, Note_on_c, 12, 57, 0
15, 162600, Note_on_c, 12, 59, 84
15, 162651, Note_on_c, 12, 59, 0
15, 162660, Note_on_c, 12, 59, 84
15, 162711, Note_on_c, 12, 59, 0
15, 162720, Note_on_c, 12, 59, 84
15, 162771, Note_on_c, 12, 59, 0
15, 162780, Note_on_c, 12, 59, 84
15, 162831, Note_on_c, 12, 59, 0
15, 162840, Note_on_c, 12, 59, 84
15, 162899, Note_on_c, 12, 59, 0
15, 162900, Note_on_c, 12, 61, 84
15, 162951, Note_on_c, 12, 61, 0
15, 162960, Note_on_c, 12, 62, 84
15, 163011, Note_on_c, 12, 62, 0
15, 163020, Note_on_c, 12, 62, 84
15, 163071, Note_on_c, 12, 62, 0
15, 163080, Note_on_c, 12, 62, 84
15, 163131, Note_on_c, 12, 62, 0
15, 163140, Note_on_c, 12, 62, 84
15, 163191, Note_on_c, 12, 62, 0
15, 163200, Note_on_c, 12, 61, 84
15, 163259, Note_on_c, 12, 61, 0
15, 163260, Note_on_c, 12, 62, 84
15, 163311, Note_on_c, 12, 62, 0
15, 163320, Note_on_c, 12, 64, 84
15, 163371, Note_on_c, 12, 64, 0
15, 163380, Note_on_c, 12, 64, 84
15, 163431, Note_on_c, 12, 64, 0
15, 163440, Note_on_c, 12, 64, 84
15, 163491, Note_on_c, 12, 64, 0
15, 163500, Note_on_c, 12, 64, 84
15, 163551, Note_on_c, 12, 64, 0
15, 163560, Note_on_c, 12, 61, 84
15, 163619, Note_on_c, 12, 61, 0
15, 163620, Note_on_c, 12, 62, 84
15, 163671, Note_on_c, 12, 62, 0
15, 163680, Note_on_c, 12, 64, 84
15, 163731, Note_on_c, 12, 64, 0
15, 163740, Note_on_c, 12, 64, 84
15, 163791, Note_on_c, 12, 64, 0
15, 163800, Note_on_c, 12, 64, 84
15, 163851, Note_on_c, 12, 64, 0
15, 163860, Note_on_c, 12, 64, 84
15, 163911, Note_on_c, 12, 64, 0
15, 163920, Note_on_c, 12, 66, 84
15, 163979, Note_on_c, 12, 66, 0
15, 163980, Note_on_c, 12, 67, 84
15, 164031, Note_on_c, 12, 67, 0
15, 164040, Note_on_c, 12, 69, 84
15, 164091, Note_on_c, 12, 69, 0
15, 164100, Note_on_c, 12, 69, 84
15, 164151, Note_on_c, 12, 69, 0
15, 164160, Note_on_c, 12, 69, 84
15, 164211, Note_on_c, 12, 69, 0
15, 164220, Note_on_c, 12, 69, 84
15, 164271, Note_on_c, 12, 69, 0
15, 164280, Note_on_c, 12, 62, 84
15, 164339, Note_on_c, 12, 62, 0
15, 164340, Note_on_c, 12, 64, 84
15, 164391, Note_on_c, 12, 64, 0
15, 164400, Note_on_c, 12, 66, 84
15, 164451, Note_on_c, 12, 66, 0
15, 164460, Note_on_c, 12, 66, 84
15, 164511, Note_on_c, 12, 66, 0
15, 164520, Note_on_c, 12, 62, 84
15, 164571, Note_on_c, 12, 62, 0
15, 164580, Note_on_c, 12, 62, 84
15, 164631, Note_on_c, 12, 62, 0
15, 164640, Note_on_c, 12, 61, 84
15, 164699, Note_on_c, 12, 61, 0
15, 164700, Note_on_c, 12, 62, 84
15, 164751, Note_on_c, 12, 62, 0
15, 164760, Note_on_c, 12, 64, 84
15, 164811, Note_on_c, 12, 64, 0
15, 164820, Note_on_c, 12, 64, 84
15, 164871, Note_on_c, 12, 64, 0
15, 164880, Note_on_c, 12, 64, 84
15, 164931, Note_on_c, 12, 64, 0
15, 164940, Note_on_c, 12, 64, 84
15, 164991, Note_on_c, 12, 64, 0
15, 165000, Note_on_c, 12, 61, 84
15, 165059, Note_on_c, 12, 61, 0
15, 165060, Note_on_c, 12, 62, 84
15, 165111, Note_on_c, 12, 62, 0
15, 165120, Note_on_c, 12, 64, 84
15, 165171, Note_on_c, 12, 64, 0
15, 165180, Note_on_c, 12, 64, 84
15, 165231, Note_on_c, 12, 64, 0
15, 165240, Note_on_c, 12, 62, 84
15, 165291, Note_on_c, 12, 62, 0
15, 165300, Note_on_c, 12, 62, 84
15, 165351, Note_on_c, 12, 62, 0
15, 165360, Note_on_c, 12, 61, 84
15, 165419, Note_on_c, 12, 61, 0
15, 165420, Note_on_c, 12, 62, 84
15, 165471, Note_on_c, 12, 62, 0
15, 165480, Note_on_c, 12, 64, 84
15, 165531, Note_on_c, 12, 64, 0
15, 165540, Note_on_c, 12, 57, 84
15, 165591, Note_on_c, 12, 57, 0
15, 165600, Note_on_c, 12, 59, 84
15, 165651, Note_on_c, 12, 59, 0
15, 165660, Note_on_c, 12, 61, 84
15, 165711, Note_on_c, 12, 61, 0
15, 165720, Note_on_c, 12, 62, 84
15, 165771, Note_on_c, 12, 62, 0
15, 165780, Note_on_c, 12, 62, 84
15, 165831, Note_on_c, 12, 62, 0
15, 165840, Note_on_c, 12, 62, 84
15, 165891, Note_on_c, 12, 62, 0
15, 165900, Note_on_c, 12, 62, 84
15, 165951, Note_on_c, 12, 62, 0
15, 165960, Note_on_c, 12, 62, 84
15, 166011, Note_on_c, 12, 62, 0
15, 166020, Note_on_c, 12, 62, 84
15, 166071, Note_on_c, 12, 62, 0
15, 166080, Note_on_c, 12, 62, 84
15, 166139, Note_on_c, 12, 62, 0
15, 166140, Note_on_c, 12, 64, 84
15, 166191, Note_on_c, 12, 64, 0
15, 166200, Note_on_c, 12, 66, 84
15, 166251, Note_on_c, 12, 66, 0
15, 166260, Note_on_c, 12, 66, 84
15, 166311, Note_on_c, 12, 66, 0
15, 166320, Note_on_c, 12, 66, 84
15, 166371, Note_on_c, 12, 66, 0
15, 166380, Note_on_c, 12, 66, 84
15, 166431, Note_on_c, 12, 66, 0
15, 166440, Note_on_c, 12, 54, 84
15, 166499, Note_on_c, 12, 54, 0
15, 166500, Note_on_c, 12, 57, 84
15, 166551, Note_on_c, 12, 57, 0
15, 166560, Note_on_c, 12, 62, 84
15, 166611, Note_on_c, 12, 62, 0
15, 166620, Note_on_c, 12, 62, 84
15, 166671, Note_on_c, 12, 62, 0
15, 166680, Note_on_c, 12, 62, 84
15, 166731, Note_on_c, 12, 62, 0
15, 166740, Note_on_c, 12, 62, 84
15, 166791, Note_on_c, 12, 62, 0
15, 166800, Note_on_c, 12, 57, 84
15, 166859, Note_on_c, 12, 57, 0
15, 166860, Note_on_c, 12, 59, 84
15, 166911, Note_on_c, 12, 59, 0
15, 166920, Note_on_c, 12, 61, 84
15, 166971, Note_on_c, 12, 61, 0
15, 166980, Note_on_c, 12, 61, 84
15, 167031, Note_on_c, 12, 61, 0
15, 167040, Note_on_c, 12, 61, 84
15, 167091, Note_on_c, 12, 61, 0
15, 167100, Note_on_c, 12, 61, 84
15, 167151, Note_on_c, 12, 61, 0
15, 167160, Note_on_c, 12, 61, 84
15, 167219, Note_on_c, 12, 61, 0
15, 167220, Note_on_c, 12, 62, 84
15, 167271, Note_on_c, 12, 62, 0
15, 167280, Note_on_c, 12, 64, 84
15, 167331, Note_on_c, 12, 64, 0
15, 167340, Note_on_c, 12, 64, 84
15, 167391, Note_on_c, 12, 64, 0
15, 167400, Note_on_c, 12, 64, 84
15, 167451, Note_on_c, 12, 64, 0
15, 167460, Note_on_c, 12, 64, 84
15, 167511, Note_on_c, 12, 64, 0
15, 167520, Note_on_c, 12, 62, 84
15, 167579, Note_on_c, 12, 62, 0
15, 167580, Note_on_c, 12, 64, 84
15, 167631, Note_on_c, 12, 64, 0
15, 167640, Note_on_c, 12, 66, 84
15, 167691, Note_on_c, 12, 66, 0
15, 167700, Note_on_c, 12, 66, 84
15, 167751, Note_on_c, 12, 66, 0
15, 167760, Note_on_c, 12, 66, 84
15, 167811, Note_on_c, 12, 66, 0
15, 167820, Note_on_c, 12, 66, 84
15, 167871, Note_on_c, 12, 66, 0
15, 167880, Note_on_c, 12, 62, 84
15, 167939, Note_on_c, 12, 62, 0
15, 167940, Note_on_c, 12, 64, 84
15, 167991, Note_on_c, 12, 64, 0
15, 168000, Note_on_c, 12, 66, 84
15, 168051, Note_on_c, 12, 66, 0
15, 168060, Note_on_c, 12, 66, 84
15, 168111, Note_on_c, 12, 66, 0
15, 168120, Note_on_c, 12, 66, 84
15, 168171, Note_on_c, 12, 66, 0
15, 168180, Note_on_c, 12, 66, 84
15, 168231, Note_on_c, 12, 66, 0
15, 168240, Note_on_c, 12, 57, 84
15, 168299, Note_on_c, 12, 57, 0
15, 168300, Note_on_c, 12, 59, 84
15, 168351, Note_on_c, 12, 59, 0
15, 168360, Note_on_c, 12, 61, 84
15, 168411, Note_on_c, 12, 61, 0
15, 168420, Note_on_c, 12, 61, 84
15, 168471, Note_on_c, 12, 61, 0
15, 168480, Note_on_c, 12, 61, 84
15, 168531, Note_on_c, 12, 61, 0
15, 168540, Note_on_c, 12, 61, 84
15, 168591, Note_on_c, 12, 61, 0
15, 168600, Note_on_c, 12, 57, 84
15, 168659, Note_on_c, 12, 57, 0
15, 168660, Note_on_c, 12, 59, 84
15, 168711, Note_on_c, 12, 59, 0
15, 168720, Note_on_c, 12, 61, 84
15, 168771, Note_on_c, 12, 61, 0
15, 168780, Note_on_c, 12, 61, 84
15, 168831, Note_on_c, 12, 61, 0
15, 168840, Note_on_c, 12, 61, 52
15, 168891, Note_on_c, 12, 61, 0
15, 168900, Note_on_c, 12, 61, 52
15, 168951, Note_on_c, 12, 61, 0
15, 168960, Note_on_c, 12, 57, 52
15, 169019, Note_on_c, 12, 57, 0
15, 169020, Note_on_c, 12, 59, 52
15, 169071, Note_on_c, 12, 59, 0
15, 169080, Note_on_c, 12, 61, 52
15, 169131, Note_on_c, 12, 61, 0
15, 169140, Note_on_c, 12, 61, 53
15, 169191, Note_on_c, 12, 61, 0
15, 169200, Note_on_c, 12, 61, 53
15, 169251, Note_on_c, 12, 61, 0
15, 169260, Note_on_c, 12, 61, 53
15, 169311, Note_on_c, 12, 61, 0
15, 169320, Note_on_c, 12, 61, 54
15, 169371, Note_on_c, 12, 61, 0
15, 169380, Note_on_c, 12, 61, 54
15, 169431, Note_on_c, 12, 61, 0
15, 169440, Note_on_c, 12, 61, 54
15, 169491, Note_on_c, 12, 61, 0
15, 169500, Note_on_c, 12, 61, 55
15, 169551, Note_on_c, 12, 61, 0
15, 169560, Note_on_c, 12, 61, 55
15, 169611, Note_on_c, 12, 61, 0
15, 169620, Note_on_c, 12, 61, 55
15, 169671, Note_on_c, 12, 61, 0
15, 169680, Note_on_c, 12, 62, 56
15, 169739, Note_on_c, 12, 62, 0
15, 169740, Note_on_c, 12, 64, 56
15, 169791, Note_on_c, 12, 64, 0
15, 169800, Note_on_c, 12, 66, 56
15, 169851, Note_on_c, 12, 66, 0
15, 169860, Note_on_c, 12, 66, 57
15, 169911, Note_on_c, 12, 66, 0
15, 169920, Note_on_c, 12, 66, 57
15, 169971, Note_on_c, 12, 66, 0
15, 169980, Note_on_c, 12, 66, 57
15, 170031, Note_on_c, 12, 66, 0
15, 170040, Note_on_c, 12, 66, 58
15, 170091, Note_on_c, 12, 66, 0
15, 170100, Note_on_c, 12, 66, 58
15, 170151, Note_on_c, 12, 66, 0
15, 170160, Note_on_c, 12, 66, 58
15, 170211, Note_on_c, 12, 66, 0
15, 170220, Note_on_c, 12, 66, 59
15, 170271, Note_on_c, 12, 66, 0
15, 170280, Note_on_c, 12, 66, 59
15, 170331, Note_on_c, 12, 66, 0
15, 170340, Note_on_c, 12, 66, 59
15, 170391, Note_on_c, 12, 66, 0
15, 170400, Note_on_c, 12, 59, 60
15, 170459, Note_on_c, 12, 59, 0
15, 170460, Note_on_c, 12, 61, 60
15, 170511, Note_on_c, 12, 61, 0
15, 170520, Note_on_c, 12, 59, 60
15, 170571, Note_on_c, 12, 59, 0
15, 170580, Note_on_c, 12, 62, 61
15, 170631, Note_on_c, 12, 62, 0
15, 170640, Note_on_c, 12, 62, 61
15, 170691, Note_on_c, 12, 62, 0
15, 170700, Note_on_c, 12, 62, 61
15, 170751, Note_on_c, 12, 62, 0
15, 170760, Note_on_c, 12, 62, 62
15, 170811, Note_on_c, 12, 62, 0
15, 170820, Note_on_c, 12, 62, 62
15, 170871, Note_on_c, 12, 62, 0
15, 170880, Note_on_c, 12, 62, 62
15, 170931, Note_on_c, 12, 62, 0
15, 170940, Note_on_c, 12, 62, 63
15, 170991, Note_on_c, 12, 62, 0
15, 171000, Note_on_c, 12, 62, 63
15, 171051, Note_on_c, 12, 62, 0
15, 171060, Note_on_c, 12, 62, 63
15, 171111, Note_on_c, 12, 62, 0
15, 171120, Note_on_c, 12, 61, 64
15, 171179, Note_on_c, 12, 61, 0
15, 171180, Note_on_c, 12, 62, 64
15, 171231, Note_on_c, 12, 62, 0
15, 171240, Note_on_c, 12, 61, 64
15, 171291, Note_on_c, 12, 61, 0
15, 171300, Note_on_c, 12, 64, 65
15, 171351, Note_on_c, 12, 64, 0
15, 171360, Note_on_c, 12, 64, 65
15, 171411, Note_on_c, 12, 64, 0
15, 171420, Note_on_c, 12, 64, 65
15, 171471, Note_on_c, 12, 64, 0
15, 171480, Note_on_c, 12, 64, 66
15, 171531, Note_on_c, 12, 64, 0
15, 171540, Note_on_c, 12, 64, 66
15, 171591, Note_on_c, 12, 64, 0
15, 171600, Note_on_c, 12, 64, 66
15, 171651, Note_on_c, 12, 64, 0
15, 171660, Note_on_c, 12, 64, 67
15, 171711, Note_on_c, 12, 64, 0
15, 171720, Note_on_c, 12, 64, 67
15, 171771, Note_on_c, 12, 64, 0
15, 171780, Note_on_c, 12, 64, 67
15, 171831, Note_on_c, 12, 64, 0
15, 171840, Note_on_c, 12, 61, 68
15, 171899, Note_on_c, 12, 61, 0
15, 171900, Note_on_c, 12, 62, 68
15, 171951, Note_on_c, 12, 62, 0
15, 171960, Note_on_c, 12, 61, 68
15, 172011, Note_on_c, 12, 61, 0
15, 172020, Note_on_c, 12, 64, 69
15, 172071, Note_on_c, 12, 64, 0
15, 172080, Note_on_c, 12, 64, 69
15, 172131, Note_on_c, 12, 64, 0
15, 172140, Note_on_c, 12, 64, 69
15, 172191, Note_on_c, 12, 64, 0
15, 172200, Note_on_c, 12, 64, 70
15, 172251, Note_on_c, 12, 64, 0
15, 172260, Note_on_c, 12, 64, 70
15, 172311, Note_on_c, 12, 64, 0
15, 172320, Note_on_c, 12, 64, 70
15, 172371, Note_on_c, 12, 64, 0
15, 172380, Note_on_c, 12, 64, 71
15, 172431, Note_on_c, 12, 64, 0
15, 172440, Note_on_c, 12, 64, 71
15, 172491, Note_on_c, 12, 64, 0
15, 172500, Note_on_c, 12, 64, 71
15, 172551, Note_on_c, 12, 64, 0
15, 172560, Note_on_c, 12, 66, 72
15, 172619, Note_on_c, 12, 66, 0
15, 172620, Note_on_c, 12, 67, 72
15, 172671, Note_on_c, 12, 67, 0
15, 172680, Note_on_c, 12, 69, 72
15, 172731, Note_on_c, 12, 69, 0
15, 172740, Note_on_c, 12, 69, 73
15, 172791, Note_on_c, 12, 69, 0
15, 172800, Note_on_c, 12, 69, 73
15, 172851, Note_on_c, 12, 69, 0
15, 172860, Note_on_c, 12, 69, 73
15, 172911, Note_on_c, 12, 69, 0
15, 172920, Note_on_c, 12, 69, 74
15, 172971, Note_on_c, 12, 69, 0
15, 172980, Note_on_c, 12, 69, 74
15, 173031, Note_on_c, 12, 69, 0
15, 173040, Note_on_c, 12, 69, 74
15, 173091, Note_on_c, 12, 69, 0
15, 173100, Note_on_c, 12, 69, 75
15, 173151, Note_on_c, 12, 69, 0
15, 173160, Note_on_c, 12, 69, 75
15, 173211, Note_on_c, 12, 69, 0
15, 173220, Note_on_c, 12, 69, 75
15, 173271, Note_on_c, 12, 69, 0
15, 173280, Note_on_c, 12, 68, 76
15, 173339, Note_on_c, 12, 68, 0
15, 173340, Note_on_c, 12, 69, 76
15, 173391, Note_on_c, 12, 69, 0
15, 173400, Note_on_c, 12, 68, 76
15, 173451, Note_on_c, 12, 68, 0
15, 173460, Note_on_c, 12, 71, 77
15, 173511, Note_on_c, 12, 71, 0
15, 173520, Note_on_c, 12, 71, 77
15, 173571, Note_on_c, 12, 71, 0
15, 173580, Note_on_c, 12, 71, 77
15, 173631, Note_on_c, 12, 71, 0
15, 173640, Note_on_c, 12, 71, 78
15, 173691, Note_on_c, 12, 71, 0
15, 173700, Note_on_c, 12, 71, 78
15, 173751, Note_on_c, 12, 71, 0
15, 173760, Note_on_c, 12, 71, 78
15, 173811, Note_on_c, 12, 71, 0
15, 173820, Note_on_c, 12, 71, 79
15, 173871, Note_on_c, 12, 71, 0
15, 173880, Note_on_c, 12, 71, 79
15, 173931, Note_on_c, 12, 71, 0
15, 173940, Note_on_c, 12, 71, 79
15, 173991, Note_on_c, 12, 71, 0
15, 174000, Note_on_c, 12, 69, 80
15, 174059, Note_on_c, 12, 69, 0
15, 174060, Note_on_c, 12, 71, 80
15, 174111, Note_on_c, 12, 71, 0
15, 174120, Note_on_c, 12, 69, 80
15, 174171, Note_on_c, 12, 69, 0
15, 174180, Note_on_c, 12, 73, 81
15, 174231, Note_on_c, 12, 73, 0
15, 174240, Note_on_c, 12, 73, 81
15, 174291, Note_on_c, 12, 73, 0
15, 174300, Note_on_c, 12, 73, 81
15, 174351, Note_on_c, 12, 73, 0
15, 174360, Note_on_c, 12, 73, 82
15, 174411, Note_on_c, 12, 73, 0
15, 174420, Note_on_c, 12, 73, 82
15, 174471, Note_on_c, 12, 73, 0
15, 174480, Note_on_c, 12, 73, 82
15, 174531, Note_on_c, 12, 73, 0
15, 174540, Note_on_c, 12, 73, 83
15, 174591, Note_on_c, 12, 73, 0
15, 174600, Note_on_c, 12, 73, 83
15, 174651, Note_on_c, 12, 73, 0
15, 174660, Note_on_c, 12, 73, 83
15, 174711, Note_on_c, 12, 73, 0
15, 174720, Note_on_c, 12, 70, 84
15, 174771, Note_on_c, 12, 70, 0
15, 174780, Note_on_c, 12, 70, 84
15, 174831, Note_on_c, 12, 70, 0
15, 174840, Note_on_c, 12, 70, 84
15, 174891, Note_on_c, 12, 70, 0
15, 174900, Note_on_c, 12, 70, 84
15, 174951, Note_on_c, 12, 70, 0
15, 174960, Note_on_c, 12, 70, 84
15, 175011, Note_on_c, 12, 70, 0
15, 175020, Note_on_c, 12, 70, 84
15, 175071, Note_on_c, 12, 70, 0
15, 175080, Note_on_c, 12, 70, 84
15, 175131, Note_on_c, 12, 70, 0
15, 175140, Note_on_c, 12, 70, 84
15, 175191, Note_on_c, 12, 70, 0
15, 175200, Note_on_c, 12, 70, 84
15, 175251, Note_on_c, 12, 70, 0
15, 175260, Note_on_c, 12, 70, 84
15, 175311, Note_on_c, 12, 70, 0
15, 175320, Note_on_c, 12, 70, 84
15, 175371, Note_on_c, 12, 70, 0
15, 175380, Note_on_c, 12, 70, 84
15, 175431, Note_on_c, 12, 70, 0
15, 175440, Note_on_c, 12, 71, 84
15, 175491, Note_on_c, 12, 71, 0
15, 175500, Note_on_c, 12, 71, 84
15, 175551, Note_on_c, 12, 71, 0
15, 175560, Note_on_c, 12, 71, 84
15, 175611, Note_on_c, 12, 71, 0
15, 175620, Note_on_c, 12, 71, 84
15, 175671, Note_on_c, 12, 71, 0
15, 175680, Note_on_c, 12, 71, 84
15, 175731, Note_on_c, 12, 71, 0
15, 175740, Note_on_c, 12, 71, 84
15, 175791, Note_on_c, 12, 71, 0
15, 175800, Note_on_c, 12, 71, 84
15, 175851, Note_on_c, 12, 71, 0
15, 175860, Note_on_c, 12, 71, 84
15, 175911, Note_on_c, 12, 71, 0
15, 175920, Note_on_c, 12, 63, 52
15, 175971, Note_on_c, 12, 63, 0
15, 175980, Note_on_c, 12, 63, 52
15, 176031, Note_on_c, 12, 63, 0
15, 176040, Note_on_c, 12, 63, 52
15, 176091, Note_on_c, 12, 63, 0
15, 176100, Note_on_c, 12, 63, 52
15, 176151, Note_on_c, 12, 63, 0
15, 176160, Note_on_c, 12, 61, 52
15, 176211, Note_on_c, 12, 61, 0
15, 176220, Note_on_c, 12, 61, 52
15, 176271, Note_on_c, 12, 61, 0
15, 176280, Note_on_c, 12, 61, 52
15, 176331, Note_on_c, 12, 61, 0
15, 176340, Note_on_c, 12, 61, 52
15, 176391, Note_on_c, 12, 61, 0
15, 176400, Note_on_c, 12, 61, 52
15, 176451, Note_on_c, 12, 61, 0
15, 176460, Note_on_c, 12, 61, 52
15, 176511, Note_on_c, 12, 61, 0
15, 176520, Note_on_c, 12, 61, 52
15, 176571, Note_on_c, 12, 61, 0
15, 176580, Note_on_c, 12, 61, 52
15, 176631, Note_on_c, 12, 61, 0
15, 176640, Note_on_c, 12, 61, 52
15, 176691, Note_on_c, 12, 61, 0
15, 176700, Note_on_c, 12, 61, 52
15, 176751, Note_on_c, 12, 61, 0
15, 176760, Note_on_c, 12, 61, 52
15, 176811, Note_on_c, 12, 61, 0
15, 176820, Note_on_c, 12, 61, 52
15, 176871, Note_on_c, 12, 61, 0
15, 176880, Note_on_c, 12, 63, 52
15, 176999, Note_on_c, 12, 63, 0
15, 177120, Note_on_c, 12, 60, 52
15, 177239, Note_on_c, 12, 60, 0
15, 177480, Note_on_c, 12, 60, 52
15, 177599, Note_on_c, 12, 60, 0
15, 177840, Note_on_c, 12, 61, 52
15, 177959, Note_on_c, 12, 61, 0
15, 178200, Note_on_c, 12, 61, 52
15, 178319, Note_on_c, 12, 61, 0
15, 178560, Note_on_c, 12, 60, 52
15, 178679, Note_on_c, 12, 60, 0
15, 178920, Note_on_c, 12, 60, 52
15, 179039, Note_on_c, 12, 60, 0
15, 179040, Note_on_c, 12, 61, 52
15, 179091, Note_on_c, 12, 61, 0
15, 179100, Note_on_c, 12, 61, 54
15, 179151, Note_on_c, 12, 61, 0
15, 179160, Note_on_c, 12, 61, 56
15, 179211, Note_on_c, 12, 61, 0
15, 179220, Note_on_c, 12, 61, 58
15, 179271, Note_on_c, 12, 61, 0
15, 179280, Note_on_c, 12, 61, 60
15, 179331, Note_on_c, 12, 61, 0
15, 179340, Note_on_c, 12, 61, 62
15, 179391, Note_on_c, 12, 61, 0
15, 179400, Note_on_c, 12, 56, 64
15, 179451, Note_on_c, 12, 56, 0
15, 179460, Note_on_c, 12, 56, 66
15, 179511, Note_on_c, 12, 56, 0
15, 179520, Note_on_c, 12, 56, 68
15, 179571, Note_on_c, 12, 56, 0
15, 179580, Note_on_c, 12, 56, 70
15, 179631, Note_on_c, 12, 56, 0
15, 179640, Note_on_c, 12, 56, 72
15, 179691, Note_on_c, 12, 56, 0
15, 179700, Note_on_c, 12, 56, 74
15, 179751, Note_on_c, 12, 56, 0
15, 179760, Note_on_c, 12, 55, 76
15, 179879, Note_on_c, 12, 55, 0
15, 180000, Note_on_c, 12, 51, 52
15, 180000, Note_on_c, 12, 55, 52
15, 180119, Note_on_c, 12, 51, 0
15, 180119, Note_on_c, 12, 55, 0
15, 180360, Note_on_c, 12, 55, 52
15, 180360, Note_on_c, 12, 51, 52
15, 180479, Note_on_c, 12, 55, 0
15, 180479, Note_on_c, 12, 51, 0
15, 180720, Note_on_c, 12, 51, 52
15, 180720, Note_on_c, 12, 56, 52
15, 180839, Note_on_c, 12, 51, 0
15, 180839, Note_on_c, 12, 56, 0
15, 181080, Note_on_c, 12, 51, 52
15, 181080, Note_on_c, 12, 56, 52
15, 181199, Note_on_c, 12, 51, 0
15, 181199, Note_on_c, 12, 56, 0
15, 181440, Note_on_c, 12, 55, 52
15, 181440, Note_on_c, 12, 51, 52
15, 181559, Note_on_c, 12, 55, 0
15, 181559, Note_on_c, 12, 51, 0
15, 181800, Note_on_c, 12, 55, 52
15, 181800, Note_on_c, 12, 51, 52
15, 181904, Note_on_c, 12, 55, 0
15, 181904, Note_on_c, 12, 51, 0
15, 181920, Note_on_c, 12, 59, 52
15, 181971, Note_on_c, 12, 59, 0
15, 181980, Note_on_c, 12, 59, 54
15, 182031, Note_on_c, 12, 59, 0
15, 182040, Note_on_c, 12, 59, 56
15, 182091, Note_on_c, 12, 59, 0
15, 182100, Note_on_c, 12, 59, 58
15, 182151, Note_on_c, 12, 59, 0
15, 182160, Note_on_c, 12, 59, 60
15, 182211, Note_on_c, 12, 59, 0
15, 182220, Note_on_c, 12, 59, 62
15, 182271, Note_on_c, 12, 59, 0
15, 182280, Note_on_c, 12, 59, 64
15, 182331, Note_on_c, 12, 59, 0
15, 182340, Note_on_c, 12, 71, 66
15, 182391, Note_on_c, 12, 71, 0
15, 182400, Note_on_c, 12, 71, 68
15, 182451, Note_on_c, 12, 71, 0
15, 182460, Note_on_c, 12, 71, 70
15, 182511, Note_on_c, 12, 71, 0
15, 182520, Note_on_c, 12, 71, 72
15, 182571, Note_on_c, 12, 71, 0
15, 182580, Note_on_c, 12, 71, 74
15, 182631, Note_on_c, 12, 71, 0
15, 182640, Note_on_c, 12, 69, 76
15, 182819, Note_on_c, 12, 69, 0
15, 182820, Note_on_c, 12, 68, 76
15, 182879, Note_on_c, 12, 68, 0
15, 182880, Note_on_c, 12, 66, 76
15, 182939, Note_on_c, 12, 66, 0
15, 182940, Note_on_c, 12, 64, 76
15, 182999, Note_on_c, 12, 64, 0
15, 183000, Note_on_c, 12, 63, 76
15, 183059, Note_on_c, 12, 63, 0
15, 183060, Note_on_c, 12, 64, 76
15, 183119, Note_on_c, 12, 64, 0
15, 183120, Note_on_c, 12, 63, 76
15, 183179, Note_on_c, 12, 63, 0
15, 183180, Note_on_c, 12, 61, 76
15, 183239, Note_on_c, 12, 61, 0
15, 183240, Note_on_c, 12, 59, 76
15, 183299, Note_on_c, 12, 59, 0
15, 183300, Note_on_c, 12, 57, 76
15, 183351, Note_on_c, 12, 57, 0
15, 183360, Note_on_c, 12, 56, 76
15, 183411, Note_on_c, 12, 56, 0
15, 183420, Note_on_c, 12, 56, 76
15, 183471, Note_on_c, 12, 56, 0
15, 183480, Note_on_c, 12, 56, 76
15, 183531, Note_on_c, 12, 56, 0
15, 183540, Note_on_c, 12, 56, 76
15, 183591, Note_on_c, 12, 56, 0
15, 183600, Note_on_c, 12, 56, 76
15, 183651, Note_on_c, 12, 56, 0
15, 183660, Note_on_c, 12, 56, 76
15, 183711, Note_on_c, 12, 56, 0
15, 183720, Note_on_c, 12, 56, 76
15, 183771, Note_on_c, 12, 56, 0
15, 183780, Note_on_c, 12, 68, 76
15, 183831, Note_on_c, 12, 68, 0
15, 183840, Note_on_c, 12, 68, 76
15, 183891, Note_on_c, 12, 68, 0
15, 183900, Note_on_c, 12, 68, 76
15, 183951, Note_on_c, 12, 68, 0
15, 183960, Note_on_c, 12, 68, 76
15, 184011, Note_on_c, 12, 68, 0
15, 184020, Note_on_c, 12, 68, 76
15, 184071, Note_on_c, 12, 68, 0
15, 184080, Note_on_c, 12, 66, 84
15, 184139, Note_on_c, 12, 66, 0
15, 184140, Note_on_c, 12, 66, 76
15, 184259, Note_on_c, 12, 66, 0
15, 184260, Note_on_c, 12, 64, 76
15, 184319, Note_on_c, 12, 64, 0
15, 184320, Note_on_c, 12, 63, 76
15, 184379, Note_on_c, 12, 63, 0
15, 184380, Note_on_c, 12, 61, 76
15, 184439, Note_on_c, 12, 61, 0
15, 184440, Note_on_c, 12, 59, 76
15, 184499, Note_on_c, 12, 59, 0
15, 184500, Note_on_c, 12, 61, 76
15, 184559, Note_on_c, 12, 61, 0
15, 184560, Note_on_c, 12, 59, 76
15, 184619, Note_on_c, 12, 59, 0
15, 184620, Note_on_c, 12, 58, 76
15, 184679, Note_on_c, 12, 58, 0
15, 184680, Note_on_c, 12, 56, 76
15, 184739, Note_on_c, 12, 56, 0
15, 184740, Note_on_c, 12, 54, 76
15, 184791, Note_on_c, 12, 54, 0
15, 184800, Note_on_c, 12, 52, 76
15, 184851, Note_on_c, 12, 52, 0
15, 184860, Note_on_c, 12, 57, 76
15, 184911, Note_on_c, 12, 57, 0
15, 184920, Note_on_c, 12, 57, 76
15, 184971, Note_on_c, 12, 57, 0
15, 184980, Note_on_c, 12, 57, 76
15, 185031, Note_on_c, 12, 57, 0
15, 185040, Note_on_c, 12, 57, 76
15, 185091, Note_on_c, 12, 57, 0
15, 185100, Note_on_c, 12, 57, 76
15, 185151, Note_on_c, 12, 57, 0
15, 185160, Note_on_c, 12, 64, 76
15, 185211, Note_on_c, 12, 64, 0
15, 185220, Note_on_c, 12, 52, 76
15, 185271, Note_on_c, 12, 52, 0
15, 185280, Note_on_c, 12, 52, 76
15, 185331, Note_on_c, 12, 52, 0
15, 185340, Note_on_c, 12, 52, 76
15, 185391, Note_on_c, 12, 52, 0
15, 185400, Note_on_c, 12, 52, 76
15, 185451, Note_on_c, 12, 52, 0
15, 185460, Note_on_c, 12, 52, 76
15, 185511, Note_on_c, 12, 52, 0
15, 185520, Note_on_c, 12, 51, 76
15, 185699, Note_on_c, 12, 51, 0
15, 185880, Note_on_c, 12, 59, 76
15, 186059, Note_on_c, 12, 59, 0
15, 186240, Note_on_c, 12, 59, 76
15, 186419, Note_on_c, 12, 59, 0
15, 186600, Note_on_c, 12, 59, 76
15, 186779, Note_on_c, 12, 59, 0
15, 186960, Note_on_c, 12, 59, 76
15, 187139, Note_on_c, 12, 59, 0
15, 187320, Note_on_c, 12, 59, 76
15, 187499, Note_on_c, 12, 59, 0
15, 187680, Note_on_c, 12, 59, 76
15, 187859, Note_on_c, 12, 59, 0
15, 188040, Note_on_c, 12, 59, 76
15, 188219, Note_on_c, 12, 59, 0
15, 188400, Note_on_c, 12, 49, 84
15, 188460, Control_c, 12, 11, 112
15, 188497, Control_c, 12, 11, 109
15, 188533, Control_c, 12, 11, 107
15, 188570, Control_c, 12, 11, 104
15, 188607, Control_c, 12, 11, 101
15, 188643, Control_c, 12, 11, 99
15, 188680, Control_c, 12, 11, 96
15, 188717, Control_c, 12, 11, 93
15, 188753, Control_c, 12, 11, 91
15, 188790, Control_c, 12, 11, 88
15, 188827, Control_c, 12, 11, 85
15, 188863, Control_c, 12, 11, 83
15, 188900, Control_c, 12, 11, 80
15, 188937, Control_c, 12, 11, 77
15, 188973, Control_c, 12, 11, 75
15, 188999, Note_on_c, 12, 49, 0
15, 189000, Note_on_c, 12, 48, 84
15, 189010, Control_c, 12, 11, 72
15, 189047, Control_c, 12, 11, 69
15, 189083, Control_c, 12, 11, 64
15, 189104, Note_on_c, 12, 48, 0
15, 189120, Note_on_c, 12, 59, 84
15, 189719, Note_on_c, 12, 59, 0
15, 189720, Note_on_c, 12, 61, 84
15, 189779, Note_on_c, 12, 61, 0
15, 189780, Note_on_c, 12, 63, 84
15, 189839, Note_on_c, 12, 63, 0
15, 189840, Note_on_c, 12, 64, 84
15, 190079, Note_on_c, 12, 64, 0
15, 191160, Control_c, 12, 11, 127
15, 191280, Note_on_c, 12, 52, 48
15, 191639, Note_on_c, 12, 52, 0
15, 191640, Note_on_c, 12, 56, 48
15, 191999, Note_on_c, 12, 56, 0
15, 192000, Note_on_c, 12, 59, 48
15, 192359, Note_on_c, 12, 59, 0
15, 192360, Note_on_c, 12, 59, 48
15, 192704, Note_on_c, 12, 59, 0
15, 192720, Note_on_c, 12, 52, 76
15, 193064, Note_on_c, 12, 52, 0
15, 193080, Note_on_c, 12, 64, 76
15, 193251, Note_on_c, 12, 64, 0
15, 193260, Note_on_c, 12, 59, 76
15, 193311, Note_on_c, 12, 59, 0
15, 193320, Note_on_c, 12, 59, 76
15, 193424, Note_on_c, 12, 59, 0
15, 193440, Note_on_c, 12, 66, 76
15, 193611, Note_on_c, 12, 66, 0
15, 193620, Note_on_c, 12, 59, 76
15, 193671, Note_on_c, 12, 59, 0
15, 193680, Note_on_c, 12, 59, 76
15, 193784, Note_on_c, 12, 59, 0
15, 193800, Note_on_c, 12, 67, 76
15, 193971, Note_on_c, 12, 67, 0
15, 193980, Note_on_c, 12, 55, 76
15, 194031, Note_on_c, 12, 55, 0
15, 194040, Note_on_c, 12, 55, 76
15, 194040, Note_on_c, 12, 53, 76
15, 194144, Note_on_c, 12, 55, 0
15, 194144, Note_on_c, 12, 53, 0
15, 194160, Note_on_c, 12, 52, 76
15, 194160, Note_on_c, 12, 55, 76
15, 194331, Note_on_c, 12, 52, 0
15, 194331, Note_on_c, 12, 55, 0
15, 194340, Note_on_c, 12, 72, 76
15, 194391, Note_on_c, 12, 72, 0
15, 194400, Note_on_c, 12, 67, 76
15, 194504, Note_on_c, 12, 67, 0
15, 194520, Note_on_c, 12, 64, 76
15, 194691, Note_on_c, 12, 64, 0
15, 194700, Note_on_c, 12, 64, 76
15, 194751, Note_on_c, 12, 64, 0
15, 194760, Note_on_c, 12, 60, 76
15, 194864, Note_on_c, 12, 60, 0
15, 194880, Note_on_c, 12, 55, 76
15, 195051, Note_on_c, 12, 55, 0
15, 195060, Note_on_c, 12, 55, 76
15, 195111, Note_on_c, 12, 55, 0
15, 195120, Note_on_c, 12, 52, 76
15, 195224, Note_on_c, 12, 52, 0
15, 195240, Note_on_c, 12, 48, 76
15, 195411, Note_on_c, 12, 48, 0
15, 195420, Note_on_c, 12, 48, 76
15, 195471, Note_on_c, 12, 48, 0
15, 195480, Note_on_c, 12, 55, 76
15, 195584, Note_on_c, 12, 55, 0
15, 195600, Note_on_c, 12, 48, 76
15, 195839, Note_on_c, 12, 48, 0
15, 196140, Note_on_c, 12, 55, 75
15, 196191, Note_on_c, 12, 55, 0
15, 196200, Note_on_c, 12, 55, 73
15, 196304, Note_on_c, 12, 55, 0
15, 196320, Note_on_c, 12, 48, 70
15, 196559, Note_on_c, 12, 48, 0
15, 196860, Note_on_c, 12, 55, 57
15, 196911, Note_on_c, 12, 55, 0
15, 196920, Note_on_c, 12, 55, 55
15, 197024, Note_on_c, 12, 55, 0
15, 197040, Note_on_c, 12, 48, 52
15, 197279, Note_on_c, 12, 48, 0
15, 197760, Note_on_c, 12, 48, 44
15, 197999, Note_on_c, 12, 48, 0
15, 198480, Note_on_c, 12, 66, 44
15, 198480, Note_on_c, 12, 63, 44
15, 198531, Note_on_c, 12, 66, 0
15, 198531, Note_on_c, 12, 63, 0
15, 198540, Note_on_c, 12, 66, 44
15, 198540, Note_on_c, 12, 63, 44
15, 198591, Note_on_c, 12, 66, 0
15, 198591, Note_on_c, 12, 63, 0
15, 198600, Note_on_c, 12, 63, 44
15, 198600, Note_on_c, 12, 66, 44
15, 198651, Note_on_c, 12, 63, 0
15, 198651, Note_on_c, 12, 66, 0
15, 198660, Note_on_c, 12, 66, 44
15, 198660, Note_on_c, 12, 63, 44
15, 198711, Note_on_c, 12, 66, 0
15, 198711, Note_on_c, 12, 63, 0
15, 198720, Note_on_c, 12, 63, 44
15, 198720, Note_on_c, 12, 66, 44
15, 198771, Note_on_c, 12, 63, 0
15, 198771, Note_on_c, 12, 66, 0
15, 198780, Note_on_c, 12, 66, 44
15, 198780, Note_on_c, 12, 63, 44
15, 198831, Note_on_c, 12, 66, 0
15, 198831, Note_on_c, 12, 63, 0
15, 198840, Note_on_c, 12, 63, 44
15, 198840, Note_on_c, 12, 66, 44
15, 198891, Note_on_c, 12, 63, 0
15, 198891, Note_on_c, 12, 66, 0
15, 198900, Note_on_c, 12, 63, 44
15, 198900, Note_on_c, 12, 66, 44
15, 198951, Note_on_c, 12, 63, 0
15, 198951, Note_on_c, 12, 66, 0
15, 198960, Note_on_c, 12, 63, 44
15, 198960, Note_on_c, 12, 66, 44
15, 199011, Note_on_c, 12, 63, 0
15, 199011, Note_on_c, 12, 66, 0
15, 199020, Note_on_c, 12, 66, 44
15, 199020, Note_on_c, 12, 63, 44
15, 199071, Note_on_c, 12, 66, 0
15, 199071, Note_on_c, 12, 63, 0
15, 199080, Note_on_c, 12, 66, 44
15, 199080, Note_on_c, 12, 63, 44
15, 199131, Note_on_c, 12, 66, 0
15, 199131, Note_on_c, 12, 63, 0
15, 199140, Note_on_c, 12, 63, 44
15, 199140, Note_on_c, 12, 66, 44
15, 199191, Note_on_c, 12, 63, 0
15, 199191, Note_on_c, 12, 66, 0
15, 199200, Note_on_c, 12, 66, 44
15, 199200, Note_on_c, 12, 63, 44
15, 199251, Note_on_c, 12, 66, 0
15, 199251, Note_on_c, 12, 63, 0
15, 199260, Note_on_c, 12, 66, 44
15, 199260, Note_on_c, 12, 63, 44
15, 199311, Note_on_c, 12, 66, 0
15, 199311, Note_on_c, 12, 63, 0
15, 199320, Note_on_c, 12, 66, 44
15, 199320, Note_on_c, 12, 63, 44
15, 199371, Note_on_c, 12, 66, 0
15, 199371, Note_on_c, 12, 63, 0
15, 199380, Note_on_c, 12, 66, 44
15, 199380, Note_on_c, 12, 63, 44
15, 199431, Note_on_c, 12, 66, 0
15, 199431, Note_on_c, 12, 63, 0
15, 199440, Note_on_c, 12, 63, 44
15, 199440, Note_on_c, 12, 66, 44
15, 199491, Note_on_c, 12, 63, 0
15, 199491, Note_on_c, 12, 66, 0
15, 199500, Note_on_c, 12, 66, 44
15, 199500, Note_on_c, 12, 63, 44
15, 199551, Note_on_c, 12, 66, 0
15, 199551, Note_on_c, 12, 63, 0
15, 199560, Note_on_c, 12, 63, 44
15, 199560, Note_on_c, 12, 66, 44
15, 199611, Note_on_c, 12, 63, 0
15, 199611, Note_on_c, 12, 66, 0
15, 199620, Note_on_c, 12, 63, 44
15, 199620, Note_on_c, 12, 66, 44
15, 199671, Note_on_c, 12, 63, 0
15, 199671, Note_on_c, 12, 66, 0
15, 199680, Note_on_c, 12, 63, 44
15, 199680, Note_on_c, 12, 66, 44
15, 199731, Note_on_c, 12, 63, 0
15, 199731, Note_on_c, 12, 66, 0
15, 199740, Note_on_c, 12, 66, 44
15, 199740, Note_on_c, 12, 63, 44
15, 199791, Note_on_c, 12, 66, 0
15, 199791, Note_on_c, 12, 63, 0
15, 199800, Note_on_c, 12, 63, 44
15, 199800, Note_on_c, 12, 66, 44
15, 199851, Note_on_c, 12, 63, 0
15, 199851, Note_on_c, 12, 66, 0
15, 199860, Note_on_c, 12, 63, 44
15, 199860, Note_on_c, 12, 66, 44
15, 199911, Note_on_c, 12, 63, 0
15, 199911, Note_on_c, 12, 66, 0
15, 199920, Note_on_c, 12, 66, 44
15, 199920, Note_on_c, 12, 63, 44
15, 199971, Note_on_c, 12, 66, 0
15, 199971, Note_on_c, 12, 63, 0
15, 199980, Note_on_c, 12, 63, 44
15, 199980, Note_on_c, 12, 66, 44
15, 200031, Note_on_c, 12, 63, 0
15, 200031, Note_on_c, 12, 66, 0
15, 200040, Note_on_c, 12, 63, 44
15, 200040, Note_on_c, 12, 66, 44
15, 200091, Note_on_c, 12, 63, 0
15, 200091, Note_on_c, 12, 66, 0
15, 200100, Note_on_c, 12, 66, 44
15, 200100, Note_on_c, 12, 63, 44
15, 200151, Note_on_c, 12, 66, 0
15, 200151, Note_on_c, 12, 63, 0
15, 200160, Note_on_c, 12, 63, 44
15, 200160, Note_on_c, 12, 66, 44
15, 200211, Note_on_c, 12, 63, 0
15, 200211, Note_on_c, 12, 66, 0
15, 200220, Note_on_c, 12, 63, 44
15, 200220, Note_on_c, 12, 66, 44
15, 200271, Note_on_c, 12, 63, 0
15, 200271, Note_on_c, 12, 66, 0
15, 200280, Note_on_c, 12, 66, 44
15, 200280, Note_on_c, 12, 63, 44
15, 200331, Note_on_c, 12, 66, 0
15, 200331, Note_on_c, 12, 63, 0
15, 200340, Note_on_c, 12, 66, 44
15, 200340, Note_on_c, 12, 63, 44
15, 200391, Note_on_c, 12, 66, 0
15, 200391, Note_on_c, 12, 63, 0
15, 200400, Note_on_c, 12, 66, 44
15, 200400, Note_on_c, 12, 63, 44
15, 200451, Note_on_c, 12, 66, 0
15, 200451, Note_on_c, 12, 63, 0
15, 200460, Note_on_c, 12, 63, 44
15, 200460, Note_on_c, 12, 66, 44
15, 200511, Note_on_c, 12, 63, 0
15, 200511, Note_on_c, 12, 66, 0
15, 200520, Note_on_c, 12, 63, 44
15, 200520, Note_on_c, 12, 66, 44
15, 200571, Note_on_c, 12, 63, 0
15, 200571, Note_on_c, 12, 66, 0
15, 200580, Note_on_c, 12, 63, 44
15, 200580, Note_on_c, 12, 66, 44
15, 200631, Note_on_c, 12, 63, 0
15, 200631, Note_on_c, 12, 66, 0
15, 200640, Note_on_c, 12, 66, 44
15, 200640, Note_on_c, 12, 63, 44
15, 200691, Note_on_c, 12, 66, 0
15, 200691, Note_on_c, 12, 63, 0
15, 200700, Note_on_c, 12, 66, 44
15, 200700, Note_on_c, 12, 63, 44
15, 200751, Note_on_c, 12, 66, 0
15, 200751, Note_on_c, 12, 63, 0
15, 200760, Note_on_c, 12, 63, 44
15, 200760, Note_on_c, 12, 66, 44
15, 200811, Note_on_c, 12, 63, 0
15, 200811, Note_on_c, 12, 66, 0
15, 200820, Note_on_c, 12, 63, 44
15, 200820, Note_on_c, 12, 66, 44
15, 200871, Note_on_c, 12, 63, 0
15, 200871, Note_on_c, 12, 66, 0
15, 200880, Note_on_c, 12, 66, 44
15, 200880, Note_on_c, 12, 63, 44
15, 200931, Note_on_c, 12, 66, 0
15, 200931, Note_on_c, 12, 63, 0
15, 200940, Note_on_c, 12, 66, 44
15, 200940, Note_on_c, 12, 63, 44
15, 200991, Note_on_c, 12, 66, 0
15, 200991, Note_on_c, 12, 63, 0
15, 201000, Note_on_c, 12, 63, 44
15, 201000, Note_on_c, 12, 66, 44
15, 201051, Note_on_c, 12, 63, 0
15, 201051, Note_on_c, 12, 66, 0
15, 201060, Note_on_c, 12, 66, 44
15, 201060, Note_on_c, 12, 63, 44
15, 201111, Note_on_c, 12, 66, 0
15, 201111, Note_on_c, 12, 63, 0
15, 201120, Note_on_c, 12, 63, 44
15, 201120, Note_on_c, 12, 66, 44
15, 201171, Note_on_c, 12, 63, 0
15, 201171, Note_on_c, 12, 66, 0
15, 201180, Note_on_c, 12, 63, 44
15, 201180, Note_on_c, 12, 66, 44
15, 201231, Note_on_c, 12, 63, 0
15, 201231, Note_on_c, 12, 66, 0
15, 201240, Note_on_c, 12, 63, 44
15, 201240, Note_on_c, 12, 66, 44
15, 201291, Note_on_c, 12, 63, 0
15, 201291, Note_on_c, 12, 66, 0
15, 201300, Note_on_c, 12, 66, 44
15, 201300, Note_on_c, 12, 63, 44
15, 201351, Note_on_c, 12, 66, 0
15, 201351, Note_on_c, 12, 63, 0
15, 201360, Note_on_c, 12, 66, 44
15, 201360, Note_on_c, 12, 63, 44
15, 201411, Note_on_c, 12, 66, 0
15, 201411, Note_on_c, 12, 63, 0
15, 201420, Note_on_c, 12, 57, 44
15, 201471, Note_on_c, 12, 57, 0
15, 201480, Note_on_c, 12, 57, 45
15, 201531, Note_on_c, 12, 57, 0
15, 201540, Note_on_c, 12, 57, 45
15, 201591, Note_on_c, 12, 57, 0
15, 201600, Note_on_c, 12, 54, 46
15, 201651, Note_on_c, 12, 54, 0
15, 201660, Note_on_c, 12, 56, 46
15, 201711, Note_on_c, 12, 56, 0
15, 201720, Note_on_c, 12, 57, 47
15, 201771, Note_on_c, 12, 57, 0
15, 201780, Note_on_c, 12, 57, 47
15, 201831, Note_on_c, 12, 57, 0
15, 201840, Note_on_c, 12, 57, 48
15, 201891, Note_on_c, 12, 57, 0
15, 201900, Note_on_c, 12, 57, 49
15, 201951, Note_on_c, 12, 57, 0
15, 201960, Note_on_c, 12, 57, 49
15, 202011, Note_on_c, 12, 57, 0
15, 202020, Note_on_c, 12, 57, 50
15, 202071, Note_on_c, 12, 57, 0
15, 202080, Note_on_c, 12, 57, 50
15, 202131, Note_on_c, 12, 57, 0
15, 202140, Note_on_c, 12, 56, 51
15, 202191, Note_on_c, 12, 56, 0
15, 202200, Note_on_c, 12, 56, 51
15, 202251, Note_on_c, 12, 56, 0
15, 202260, Note_on_c, 12, 56, 52
15, 202311, Note_on_c, 12, 56, 0
15, 202320, Note_on_c, 12, 56, 52
15, 202371, Note_on_c, 12, 56, 0
15, 202380, Note_on_c, 12, 57, 53
15, 202431, Note_on_c, 12, 57, 0
15, 202440, Note_on_c, 12, 59, 54
15, 202491, Note_on_c, 12, 59, 0
15, 202500, Note_on_c, 12, 59, 54
15, 202551, Note_on_c, 12, 59, 0
15, 202560, Note_on_c, 12, 59, 55
15, 202611, Note_on_c, 12, 59, 0
15, 202620, Note_on_c, 12, 59, 55
15, 202671, Note_on_c, 12, 59, 0
15, 202680, Note_on_c, 12, 59, 56
15, 202731, Note_on_c, 12, 59, 0
15, 202740, Note_on_c, 12, 59, 56
15, 202791, Note_on_c, 12, 59, 0
15, 202800, Note_on_c, 12, 59, 57
15, 202851, Note_on_c, 12, 59, 0
15, 202860, Note_on_c, 12, 57, 57
15, 202911, Note_on_c, 12, 57, 0
15, 202920, Note_on_c, 12, 57, 58
15, 202971, Note_on_c, 12, 57, 0
15, 202980, Note_on_c, 12, 57, 59
15, 203031, Note_on_c, 12, 57, 0
15, 203040, Note_on_c, 12, 57, 59
15, 203091, Note_on_c, 12, 57, 0
15, 203100, Note_on_c, 12, 59, 60
15, 203151, Note_on_c, 12, 59, 0
15, 203160, Note_on_c, 12, 61, 60
15, 203211, Note_on_c, 12, 61, 0
15, 203220, Note_on_c, 12, 61, 61
15, 203271, Note_on_c, 12, 61, 0
15, 203280, Note_on_c, 12, 61, 61
15, 203331, Note_on_c, 12, 61, 0
15, 203340, Note_on_c, 12, 61, 62
15, 203391, Note_on_c, 12, 61, 0
15, 203400, Note_on_c, 12, 61, 62
15, 203451, Note_on_c, 12, 61, 0
15, 203460, Note_on_c, 12, 61, 63
15, 203511, Note_on_c, 12, 61, 0
15, 203520, Note_on_c, 12, 61, 64
15, 203571, Note_on_c, 12, 61, 0
15, 203580, Note_on_c, 12, 59, 64
15, 203631, Note_on_c, 12, 59, 0
15, 203640, Note_on_c, 12, 59, 65
15, 203691, Note_on_c, 12, 59, 0
15, 203700, Note_on_c, 12, 59, 65
15, 203751, Note_on_c, 12, 59, 0
15, 203760, Note_on_c, 12, 59, 66
15, 203811, Note_on_c, 12, 59, 0
15, 203820, Note_on_c, 12, 61, 66
15, 203871, Note_on_c, 12, 61, 0
15, 203880, Note_on_c, 12, 63, 67
15, 203931, Note_on_c, 12, 63, 0
15, 203940, Note_on_c, 12, 63, 67
15, 203991, Note_on_c, 12, 63, 0
15, 204000, Note_on_c, 12, 63, 68
15, 204051, Note_on_c, 12, 63, 0
15, 204060, Note_on_c, 12, 63, 69
15, 204111, Note_on_c, 12, 63, 0
15, 204120, Note_on_c, 12, 63, 69
15, 204171, Note_on_c, 12, 63, 0
15, 204180, Note_on_c, 12, 63, 70
15, 204231, Note_on_c, 12, 63, 0
15, 204240, Note_on_c, 12, 63, 70
15, 204291, Note_on_c, 12, 63, 0
15, 204300, Note_on_c, 12, 61, 71
15, 204351, Note_on_c, 12, 61, 0
15, 204360, Note_on_c, 12, 61, 71
15, 204411, Note_on_c, 12, 61, 0
15, 204420, Note_on_c, 12, 61, 72
15, 204471, Note_on_c, 12, 61, 0
15, 204480, Note_on_c, 12, 61, 72
15, 204531, Note_on_c, 12, 61, 0
15, 204540, Note_on_c, 12, 63, 73
15, 204591, Note_on_c, 12, 63, 0
15, 204600, Note_on_c, 12, 64, 74
15, 204651, Note_on_c, 12, 64, 0
15, 204660, Note_on_c, 12, 64, 74
15, 204711, Note_on_c, 12, 64, 0
15, 204720, Note_on_c, 12, 64, 75
15, 204771, Note_on_c, 12, 64, 0
15, 204780, Note_on_c, 12, 64, 75
15, 204831, Note_on_c, 12, 64, 0
15, 204840, Note_on_c, 12, 64, 76
15, 204891, Note_on_c, 12, 64, 0
15, 204900, Note_on_c, 12, 64, 76
15, 204951, Note_on_c, 12, 64, 0
15, 204960, Note_on_c, 12, 64, 77
15, 205011, Note_on_c, 12, 64, 0
15, 205020, Note_on_c, 12, 63, 77
15, 205071, Note_on_c, 12, 63, 0
15, 205080, Note_on_c, 12, 63, 78
15, 205131, Note_on_c, 12, 63, 0
15, 205140, Note_on_c, 12, 63, 79
15, 205191, Note_on_c, 12, 63, 0
15, 205200, Note_on_c, 12, 63, 79
15, 205251, Note_on_c, 12, 63, 0
15, 205260, Note_on_c, 12, 64, 80
15, 205311, Note_on_c, 12, 64, 0
15, 205320, Note_on_c, 12, 66, 80
15, 205371, Note_on_c, 12, 66, 0
15, 205380, Note_on_c, 12, 66, 81
15, 205431, Note_on_c, 12, 66, 0
15, 205440, Note_on_c, 12, 66, 81
15, 205491, Note_on_c, 12, 66, 0
15, 205500, Note_on_c, 12, 66, 82
15, 205551, Note_on_c, 12, 66, 0
15, 205560, Note_on_c, 12, 66, 82
15, 205611, Note_on_c, 12, 66, 0
15, 205620, Note_on_c, 12, 66, 83
15, 205671, Note_on_c, 12, 66, 0
15, 205680, Note_on_c, 12, 68, 84
15, 205731, Note_on_c, 12, 68, 0
15, 205740, Note_on_c, 12, 71, 84
15, 205740, Note_on_c, 12, 68, 84
15, 205791, Note_on_c, 12, 71, 0
15, 205791, Note_on_c, 12, 68, 0
15, 205800, Note_on_c, 12, 71, 84
15, 205800, Note_on_c, 12, 68, 84
15, 205851, Note_on_c, 12, 71, 0
15, 205851, Note_on_c, 12, 68, 0
15, 205860, Note_on_c, 12, 71, 84
15, 205860, Note_on_c, 12, 68, 84
15, 205911, Note_on_c, 12, 71, 0
15, 205911, Note_on_c, 12, 68, 0
15, 205920, Note_on_c, 12, 71, 84
15, 205920, Note_on_c, 12, 68, 84
15, 205971, Note_on_c, 12, 71, 0
15, 205971, Note_on_c, 12, 68, 0
15, 205980, Note_on_c, 12, 68, 84
15, 205980, Note_on_c, 12, 71, 84
15, 206031, Note_on_c, 12, 68, 0
15, 206031, Note_on_c, 12, 71, 0
15, 206040, Note_on_c, 12, 71, 84
15, 206040, Note_on_c, 12, 68, 84
15, 206091, Note_on_c, 12, 71, 0
15, 206091, Note_on_c, 12, 68, 0
15, 206100, Note_on_c, 12, 71, 84
15, 206100, Note_on_c, 12, 68, 84
15, 206151, Note_on_c, 12, 71, 0
15, 206151, Note_on_c, 12, 68, 0
15, 206160, Note_on_c, 12, 71, 84
15, 206160, Note_on_c, 12, 68, 84
15, 206211, Note_on_c, 12, 71, 0
15, 206211, Note_on_c, 12, 68, 0
15, 206220, Note_on_c, 12, 68, 84
15, 206220, Note_on_c, 12, 71, 84
15, 206271, Note_on_c, 12, 68, 0
15, 206271, Note_on_c, 12, 71, 0
15, 206280, Note_on_c, 12, 71, 84
15, 206280, Note_on_c, 12, 68, 84
15, 206331, Note_on_c, 12, 71, 0
15, 206331, Note_on_c, 12, 68, 0
15, 206340, Note_on_c, 12, 71, 84
15, 206340, Note_on_c, 12, 68, 84
15, 206391, Note_on_c, 12, 71, 0
15, 206391, Note_on_c, 12, 68, 0
15, 206400, Note_on_c, 12, 71, 84
15, 206400, Note_on_c, 12, 68, 84
15, 206451, Note_on_c, 12, 71, 0
15, 206451, Note_on_c, 12, 68, 0
15, 206460, Note_on_c, 12, 68, 84
15, 206460, Note_on_c, 12, 71, 84
15, 206511, Note_on_c, 12, 68, 0
15, 206511, Note_on_c, 12, 71, 0
15, 206520, Note_on_c, 12, 71, 84
15, 206520, Note_on_c, 12, 68, 84
15, 206571, Note_on_c, 12, 71, 0
15, 206571, Note_on_c, 12, 68, 0
15, 206580, Note_on_c, 12, 71, 84
15, 206580, Note_on_c, 12, 68, 84
15, 206631, Note_on_c, 12, 71, 0
15, 206631, Note_on_c, 12, 68, 0
15, 206640, Note_on_c, 12, 68, 84
15, 206640, Note_on_c, 12, 71, 84
15, 206691, Note_on_c, 12, 68, 0
15, 206691, Note_on_c, 12, 71, 0
15, 206700, Note_on_c, 12, 68, 84
15, 206700, Note_on_c, 12, 71, 84
15, 206751, Note_on_c, 12, 68, 0
15, 206751, Note_on_c, 12, 71, 0
15, 206760, Note_on_c, 12, 68, 84
15, 206760, Note_on_c, 12, 71, 84
15, 206811, Note_on_c, 12, 68, 0
15, 206811, Note_on_c, 12, 71, 0
15, 206820, Note_on_c, 12, 68, 84
15, 206820, Note_on_c, 12, 71, 84
15, 206871, Note_on_c, 12, 68, 0
15, 206871, Note_on_c, 12, 71, 0
15, 206880, Note_on_c, 12, 68, 84
15, 206880, Note_on_c, 12, 71, 84
15, 206931, Note_on_c, 12, 68, 0
15, 206931, Note_on_c, 12, 71, 0
15, 206940, Note_on_c, 12, 71, 84
15, 206940, Note_on_c, 12, 68, 84
15, 206991, Note_on_c, 12, 71, 0
15, 206991, Note_on_c, 12, 68, 0
15, 207000, Note_on_c, 12, 68, 84
15, 207000, Note_on_c, 12, 71, 84
15, 207051, Note_on_c, 12, 68, 0
15, 207051, Note_on_c, 12, 71, 0
15, 207060, Note_on_c, 12, 71, 84
15, 207060, Note_on_c, 12, 68, 84
15, 207111, Note_on_c, 12, 71, 0
15, 207111, Note_on_c, 12, 68, 0
15, 207120, Note_on_c, 12, 69, 84
15, 207120, Note_on_c, 12, 73, 84
15, 207171, Note_on_c, 12, 69, 0
15, 207171, Note_on_c, 12, 73, 0
15, 207180, Note_on_c, 12, 69, 84
15, 207180, Note_on_c, 12, 73, 84
15, 207231, Note_on_c, 12, 69, 0
15, 207231, Note_on_c, 12, 73, 0
15, 207240, Note_on_c, 12, 69, 84
15, 207240, Note_on_c, 12, 73, 84
15, 207291, Note_on_c, 12, 69, 0
15, 207291, Note_on_c, 12, 73, 0
15, 207300, Note_on_c, 12, 73, 84
15, 207300, Note_on_c, 12, 69, 84
15, 207351, Note_on_c, 12, 73, 0
15, 207351, Note_on_c, 12, 69, 0
15, 207360, Note_on_c, 12, 69, 84
15, 207360, Note_on_c, 12, 73, 84
15, 207411, Note_on_c, 12, 69, 0
15, 207411, Note_on_c, 12, 73, 0
15, 207420, Note_on_c, 12, 69, 84
15, 207420, Note_on_c, 12, 73, 84
15, 207471, Note_on_c, 12, 69, 0
15, 207471, Note_on_c, 12, 73, 0
15, 207480, Note_on_c, 12, 69, 84
15, 207480, Note_on_c, 12, 73, 84
15, 207531, Note_on_c, 12, 69, 0
15, 207531, Note_on_c, 12, 73, 0
15, 207540, Note_on_c, 12, 73, 84
15, 207540, Note_on_c, 12, 69, 84
15, 207591, Note_on_c, 12, 73, 0
15, 207591, Note_on_c, 12, 69, 0
15, 207600, Note_on_c, 12, 69, 84
15, 207600, Note_on_c, 12, 73, 84
15, 207651, Note_on_c, 12, 69, 0
15, 207651, Note_on_c, 12, 73, 0
15, 207660, Note_on_c, 12, 73, 84
15, 207660, Note_on_c, 12, 69, 84
15, 207711, Note_on_c, 12, 73, 0
15, 207711, Note_on_c, 12, 69, 0
15, 207720, Note_on_c, 12, 69, 84
15, 207720, Note_on_c, 12, 73, 84
15, 207771, Note_on_c, 12, 69, 0
15, 207771, Note_on_c, 12, 73, 0
15, 207780, Note_on_c, 12, 69, 84
15, 207780, Note_on_c, 12, 73, 84
15, 207831, Note_on_c, 12, 69, 0
15, 207831, Note_on_c, 12, 73, 0
15, 207840, Note_on_c, 12, 73, 84
15, 207840, Note_on_c, 12, 69, 84
15, 207891, Note_on_c, 12, 73, 0
15, 207891, Note_on_c, 12, 69, 0
15, 207900, Note_on_c, 12, 69, 84
15, 207900, Note_on_c, 12, 73, 84
15, 207951, Note_on_c, 12, 69, 0
15, 207951, Note_on_c, 12, 73, 0
15, 207960, Note_on_c, 12, 73, 84
15, 207960, Note_on_c, 12, 69, 84
15, 208011, Note_on_c, 12, 73, 0
15, 208011, Note_on_c, 12, 69, 0
15, 208020, Note_on_c, 12, 73, 84
15, 208020, Note_on_c, 12, 69, 84
15, 208071, Note_on_c, 12, 73, 0
15, 208071, Note_on_c, 12, 69, 0
15, 208080, Note_on_c, 12, 69, 84
15, 208080, Note_on_c, 12, 73, 84
15, 208131, Note_on_c, 12, 69, 0
15, 208131, Note_on_c, 12, 73, 0
15, 208140, Note_on_c, 12, 69, 84
15, 208140, Note_on_c, 12, 73, 84
15, 208191, Note_on_c, 12, 69, 0
15, 208191, Note_on_c, 12, 73, 0
15, 208200, Note_on_c, 12, 69, 84
15, 208200, Note_on_c, 12, 73, 84
15, 208251, Note_on_c, 12, 69, 0
15, 208251, Note_on_c, 12, 73, 0
15, 208260, Note_on_c, 12, 69, 84
15, 208260, Note_on_c, 12, 73, 84
15, 208311, Note_on_c, 12, 69, 0
15, 208311, Note_on_c, 12, 73, 0
15, 208320, Note_on_c, 12, 73, 84
15, 208320, Note_on_c, 12, 69, 84
15, 208371, Note_on_c, 12, 73, 0
15, 208371, Note_on_c, 12, 69, 0
15, 208380, Note_on_c, 12, 73, 84
15, 208380, Note_on_c, 12, 69, 84
15, 208431, Note_on_c, 12, 73, 0
15, 208431, Note_on_c, 12, 69, 0
15, 208440, Note_on_c, 12, 69, 84
15, 208440, Note_on_c, 12, 73, 84
15, 208491, Note_on_c, 12, 69, 0
15, 208491, Note_on_c, 12, 73, 0
15, 208500, Note_on_c, 12, 69, 84
15, 208500, Note_on_c, 12, 73, 84
15, 208551, Note_on_c, 12, 69, 0
15, 208551, Note_on_c, 12, 73, 0
15, 208560, Note_on_c, 12, 48, 44
15, 208611, Note_on_c, 12, 48, 0
15, 208620, Note_on_c, 12, 48, 44
15, 208671, Note_on_c, 12, 48, 0
15, 208680, Note_on_c, 12, 48, 44
15, 208731, Note_on_c, 12, 48, 0
15, 208740, Note_on_c, 12, 48, 44
15, 208791, Note_on_c, 12, 48, 0
15, 208800, Note_on_c, 12, 48, 44
15, 208851, Note_on_c, 12, 48, 0
15, 208860, Note_on_c, 12, 48, 44
15, 208911, Note_on_c, 12, 48, 0
15, 208920, Note_on_c, 12, 48, 44
15, 208971, Note_on_c, 12, 48, 0
15, 208980, Note_on_c, 12, 48, 44
15, 209031, Note_on_c, 12, 48, 0
15, 209040, Note_on_c, 12, 48, 44
15, 209091, Note_on_c, 12, 48, 0
15, 209100, Note_on_c, 12, 48, 44
15, 209151, Note_on_c, 12, 48, 0
15, 209160, Note_on_c, 12, 48, 44
15, 209211, Note_on_c, 12, 48, 0
15, 209220, Note_on_c, 12, 48, 44
15, 209271, Note_on_c, 12, 48, 0
15, 209280, Note_on_c, 12, 54, 44
15, 209331, Note_on_c, 12, 54, 0
15, 209340, Note_on_c, 12, 54, 47
15, 209391, Note_on_c, 12, 54, 0
15, 209400, Note_on_c, 12, 54, 50
15, 209451, Note_on_c, 12, 54, 0
15, 209460, Note_on_c, 12, 59, 54
15, 209511, Note_on_c, 12, 59, 0
15, 209520, Note_on_c, 12, 59, 57
15, 209571, Note_on_c, 12, 59, 0
15, 209580, Note_on_c, 12, 59, 60
15, 209631, Note_on_c, 12, 59, 0
15, 209640, Note_on_c, 12, 59, 64
15, 209691, Note_on_c, 12, 59, 0
15, 209700, Note_on_c, 12, 59, 67
15, 209751, Note_on_c, 12, 59, 0
15, 209760, Note_on_c, 12, 59, 70
15, 209811, Note_on_c, 12, 59, 0
15, 209820, Note_on_c, 12, 57, 74
15, 209871, Note_on_c, 12, 57, 0
15, 209880, Note_on_c, 12, 56, 77
15, 209931, Note_on_c, 12, 56, 0
15, 209940, Note_on_c, 12, 54, 80
15, 209991, Note_on_c, 12, 54, 0
15, 210000, Note_on_c, 12, 52, 84
15, 210051, Note_on_c, 12, 52, 0
15, 210060, Note_on_c, 12, 71, 84
15, 210060, Note_on_c, 12, 68, 84
15, 210111, Note_on_c, 12, 71, 0
15, 210111, Note_on_c, 12, 68, 0
15, 210120, Note_on_c, 12, 71, 84
15, 210120, Note_on_c, 12, 68, 84
15, 210171, Note_on_c, 12, 71, 0
15, 210171, Note_on_c, 12, 68, 0
15, 210180, Note_on_c, 12, 68, 84
15, 210180, Note_on_c, 12, 71, 84
15, 210231, Note_on_c, 12, 68, 0
15, 210231, Note_on_c, 12, 71, 0
15, 210240, Note_on_c, 12, 68, 84
15, 210240, Note_on_c, 12, 71, 84
15, 210291, Note_on_c, 12, 68, 0
15, 210291, Note_on_c, 12, 71, 0
15, 210300, Note_on_c, 12, 68, 84
15, 210300, Note_on_c, 12, 71, 84
15, 210351, Note_on_c, 12, 68, 0
15, 210351, Note_on_c, 12, 71, 0
15, 210360, Note_on_c, 12, 68, 84
15, 210360, Note_on_c, 12, 71, 84
15, 210411, Note_on_c, 12, 68, 0
15, 210411, Note_on_c, 12, 71, 0
15, 210420, Note_on_c, 12, 68, 84
15, 210420, Note_on_c, 12, 71, 84
15, 210471, Note_on_c, 12, 68, 0
15, 210471, Note_on_c, 12, 71, 0
15, 210480, Note_on_c, 12, 71, 84
15, 210480, Note_on_c, 12, 68, 84
15, 210531, Note_on_c, 12, 71, 0
15, 210531, Note_on_c, 12, 68, 0
15, 210540, Note_on_c, 12, 68, 84
15, 210540, Note_on_c, 12, 71, 84
15, 210591, Note_on_c, 12, 68, 0
15, 210591, Note_on_c, 12, 71, 0
15, 210600, Note_on_c, 12, 71, 84
15, 210600, Note_on_c, 12, 68, 84
15, 210651, Note_on_c, 12, 71, 0
15, 210651, Note_on_c, 12, 68, 0
15, 210660, Note_on_c, 12, 71, 84
15, 210660, Note_on_c, 12, 68, 84
15, 210711, Note_on_c, 12, 71, 0
15, 210711, Note_on_c, 12, 68, 0
15, 210720, Note_on_c, 12, 71, 84
15, 210720, Note_on_c, 12, 68, 84
15, 210771, Note_on_c, 12, 71, 0
15, 210771, Note_on_c, 12, 68, 0
15, 210780, Note_on_c, 12, 68, 84
15, 210780, Note_on_c, 12, 71, 84
15, 210831, Note_on_c, 12, 68, 0
15, 210831, Note_on_c, 12, 71, 0
15, 210840, Note_on_c, 12, 68, 84
15, 210840, Note_on_c, 12, 71, 84
15, 210891, Note_on_c, 12, 68, 0
15, 210891, Note_on_c, 12, 71, 0
15, 210900, Note_on_c, 12, 71, 84
15, 210900, Note_on_c, 12, 68, 84
15, 210951, Note_on_c, 12, 71, 0
15, 210951, Note_on_c, 12, 68, 0
15, 210960, Note_on_c, 12, 71, 84
15, 210960, Note_on_c, 12, 68, 84
15, 211011, Note_on_c, 12, 71, 0
15, 211011, Note_on_c, 12, 68, 0
15, 211020, Note_on_c, 12, 68, 84
15, 211020, Note_on_c, 12, 71, 84
15, 211071, Note_on_c, 12, 68, 0
15, 211071, Note_on_c, 12, 71, 0
15, 211080, Note_on_c, 12, 68, 84
15, 211080, Note_on_c, 12, 71, 84
15, 211131, Note_on_c, 12, 68, 0
15, 211131, Note_on_c, 12, 71, 0
15, 211140, Note_on_c, 12, 71, 84
15, 211140, Note_on_c, 12, 68, 84
15, 211191, Note_on_c, 12, 71, 0
15, 211191, Note_on_c, 12, 68, 0
15, 211200, Note_on_c, 12, 68, 84
15, 211200, Note_on_c, 12, 71, 84
15, 211251, Note_on_c, 12, 68, 0
15, 211251, Note_on_c, 12, 71, 0
15, 211260, Note_on_c, 12, 68, 84
15, 211260, Note_on_c, 12, 71, 84
15, 211311, Note_on_c, 12, 68, 0
15, 211311, Note_on_c, 12, 71, 0
15, 211320, Note_on_c, 12, 68, 84
15, 211320, Note_on_c, 12, 71, 84
15, 211371, Note_on_c, 12, 68, 0
15, 211371, Note_on_c, 12, 71, 0
15, 211380, Note_on_c, 12, 68, 84
15, 211380, Note_on_c, 12, 71, 84
15, 211431, Note_on_c, 12, 68, 0
15, 211431, Note_on_c, 12, 71, 0
15, 211440, Note_on_c, 12, 69, 84
15, 211440, Note_on_c, 12, 73, 84
15, 211491, Note_on_c, 12, 69, 0
15, 211491, Note_on_c, 12, 73, 0
15, 211500, Note_on_c, 12, 73, 84
15, 211500, Note_on_c, 12, 69, 84
15, 211551, Note_on_c, 12, 73, 0
15, 211551, Note_on_c, 12, 69, 0
15, 211560, Note_on_c, 12, 73, 84
15, 211560, Note_on_c, 12, 69, 84
15, 211611, Note_on_c, 12, 73, 0
15, 211611, Note_on_c, 12, 69, 0
15, 211620, Note_on_c, 12, 69, 84
15, 211620, Note_on_c, 12, 73, 84
15, 211671, Note_on_c, 12, 69, 0
15, 211671, Note_on_c, 12, 73, 0
15, 211680, Note_on_c, 12, 69, 84
15, 211680, Note_on_c, 12, 73, 84
15, 211731, Note_on_c, 12, 69, 0
15, 211731, Note_on_c, 12, 73, 0
15, 211740, Note_on_c, 12, 69, 84
15, 211740, Note_on_c, 12, 73, 84
15, 211791, Note_on_c, 12, 69, 0
15, 211791, Note_on_c, 12, 73, 0
15, 211800, Note_on_c, 12, 69, 84
15, 211800, Note_on_c, 12, 73, 84
15, 211851, Note_on_c, 12, 69, 0
15, 211851, Note_on_c, 12, 73, 0
15, 211860, Note_on_c, 12, 69, 84
15, 211860, Note_on_c, 12, 73, 84
15, 211911, Note_on_c, 12, 69, 0
15, 211911, Note_on_c, 12, 73, 0
15, 211920, Note_on_c, 12, 73, 84
15, 211920, Note_on_c, 12, 69, 84
15, 211971, Note_on_c, 12, 73, 0
15, 211971, Note_on_c, 12, 69, 0
15, 211980, Note_on_c, 12, 73, 84
15, 211980, Note_on_c, 12, 69, 84
15, 212031, Note_on_c, 12, 73, 0
15, 212031, Note_on_c, 12, 69, 0
15, 212040, Note_on_c, 12, 69, 84
15, 212040, Note_on_c, 12, 73, 84
15, 212091, Note_on_c, 12, 69, 0
15, 212091, Note_on_c, 12, 73, 0
15, 212100, Note_on_c, 12, 73, 84
15, 212100, Note_on_c, 12, 69, 84
15, 212151, Note_on_c, 12, 73, 0
15, 212151, Note_on_c, 12, 69, 0
15, 212160, Note_on_c, 12, 69, 84
15, 212160, Note_on_c, 12, 73, 84
15, 212211, Note_on_c, 12, 69, 0
15, 212211, Note_on_c, 12, 73, 0
15, 212220, Note_on_c, 12, 73, 84
15, 212220, Note_on_c, 12, 69, 84
15, 212271, Note_on_c, 12, 73, 0
15, 212271, Note_on_c, 12, 69, 0
15, 212280, Note_on_c, 12, 69, 84
15, 212280, Note_on_c, 12, 73, 84
15, 212331, Note_on_c, 12, 69, 0
15, 212331, Note_on_c, 12, 73, 0
15, 212340, Note_on_c, 12, 73, 84
15, 212340, Note_on_c, 12, 69, 84
15, 212391, Note_on_c, 12, 73, 0
15, 212391, Note_on_c, 12, 69, 0
15, 212400, Note_on_c, 12, 69, 84
15, 212400, Note_on_c, 12, 73, 84
15, 212451, Note_on_c, 12, 69, 0
15, 212451, Note_on_c, 12, 73, 0
15, 212460, Note_on_c, 12, 73, 84
15, 212460, Note_on_c, 12, 69, 84
15, 212511, Note_on_c, 12, 73, 0
15, 212511, Note_on_c, 12, 69, 0
15, 212520, Note_on_c, 12, 69, 84
15, 212520, Note_on_c, 12, 73, 84
15, 212571, Note_on_c, 12, 69, 0
15, 212571, Note_on_c, 12, 73, 0
15, 212580, Note_on_c, 12, 73, 84
15, 212580, Note_on_c, 12, 69, 84
15, 212631, Note_on_c, 12, 73, 0
15, 212631, Note_on_c, 12, 69, 0
15, 212640, Note_on_c, 12, 73, 84
15, 212640, Note_on_c, 12, 69, 84
15, 212691, Note_on_c, 12, 73, 0
15, 212691, Note_on_c, 12, 69, 0
15, 212700, Note_on_c, 12, 73, 84
15, 212700, Note_on_c, 12, 69, 84
15, 212751, Note_on_c, 12, 73, 0
15, 212751, Note_on_c, 12, 69, 0
15, 212760, Note_on_c, 12, 73, 84
15, 212760, Note_on_c, 12, 69, 84
15, 212811, Note_on_c, 12, 73, 0
15, 212811, Note_on_c, 12, 69, 0
15, 212820, Note_on_c, 12, 73, 84
15, 212820, Note_on_c, 12, 69, 84
15, 212871, Note_on_c, 12, 73, 0
15, 212871, Note_on_c, 12, 69, 0
15, 212878, Control_c, 12, 11, 48
15, 212880, Note_on_c, 12, 65, 84
15, 213239, Note_on_c, 12, 65, 0
15, 213240, Note_on_c, 12, 60, 84
15, 213599, Note_on_c, 12, 60, 0
15, 213600, Control_c, 12, 11, 48
15, 213600, Note_on_c, 12, 51, 84
15, 213640, Control_c, 12, 11, 52
15, 213680, Control_c, 12, 11, 57
15, 213720, Control_c, 12, 11, 61
15, 213760, Control_c, 12, 11, 66
15, 213800, Control_c, 12, 11, 70
15, 213840, Control_c, 12, 11, 74
15, 213880, Control_c, 12, 11, 79
15, 213920, Control_c, 12, 11, 83
15, 213960, Control_c, 12, 11, 88
15, 214000, Control_c, 12, 11, 92
15, 214040, Control_c, 12, 11, 96
15, 214079, Note_on_c, 12, 51, 0
15, 214080, Note_on_c, 12, 59, 84
15, 214080, Control_c, 12, 11, 101
15, 214120, Control_c, 12, 11, 105
15, 214160, Control_c, 12, 11, 109
15, 214184, Note_on_c, 12, 59, 0
15, 214200, Note_on_c, 12, 59, 84
15, 214200, Control_c, 12, 11, 114
15, 214240, Control_c, 12, 11, 118
15, 214280, Control_c, 12, 11, 123
15, 214289, Note_on_c, 12, 59, 0
15, 214318, Control_c, 12, 11, 127
15, 214320, Note_on_c, 12, 59, 84
15, 214424, Note_on_c, 12, 59, 0
15, 214440, Note_on_c, 12, 56, 84
15, 214440, Note_on_c, 12, 52, 84
15, 214491, Note_on_c, 12, 56, 0
15, 214491, Note_on_c, 12, 52, 0
15, 214500, Note_on_c, 12, 52, 84
15, 214500, Note_on_c, 12, 56, 84
15, 214551, Note_on_c, 12, 52, 0
15, 214551, Note_on_c, 12, 56, 0
15, 214560, Note_on_c, 12, 52, 84
15, 214560, Note_on_c, 12, 56, 84
15, 214611, Note_on_c, 12, 52, 0
15, 214611, Note_on_c, 12, 56, 0
15, 214620, Note_on_c, 12, 52, 84
15, 214620, Note_on_c, 12, 56, 84
15, 214671, Note_on_c, 12, 52, 0
15, 214671, Note_on_c, 12, 56, 0
15, 214680, Note_on_c, 12, 52, 84
15, 214680, Note_on_c, 12, 56, 84
15, 214784, Note_on_c, 12, 52, 0
15, 214784, Note_on_c, 12, 56, 0
15, 214800, Note_on_c, 12, 56, 84
15, 214800, Note_on_c, 12, 52, 84
15, 214851, Note_on_c, 12, 56, 0
15, 214851, Note_on_c, 12, 52, 0
15, 214860, Note_on_c, 12, 52, 84
15, 214860, Note_on_c, 12, 56, 84
15, 214911, Note_on_c, 12, 52, 0
15, 214911, Note_on_c, 12, 56, 0
15, 214920, Note_on_c, 12, 52, 84
15, 214920, Note_on_c, 12, 56, 84
15, 214971, Note_on_c, 12, 52, 0
15, 214971, Note_on_c, 12, 56, 0
15, 214980, Note_on_c, 12, 56, 84
15, 214980, Note_on_c, 12, 52, 84
15, 215031, Note_on_c, 12, 56, 0
15, 215031, Note_on_c, 12, 52, 0
15, 215040, Note_on_c, 12, 54, 84
15, 215040, Note_on_c, 12, 57, 84
15, 215144, Note_on_c, 12, 54, 0
15, 215144, Note_on_c, 12, 57, 0
15, 215160, Note_on_c, 12, 54, 84
15, 215160, Note_on_c, 12, 57, 84
15, 215211, Note_on_c, 12, 54, 0
15, 215211, Note_on_c, 12, 57, 0
15, 215220, Note_on_c, 12, 54, 84
15, 215220, Note_on_c, 12, 57, 84
15, 215271, Note_on_c, 12, 54, 0
15, 215271, Note_on_c, 12, 57, 0
15, 215280, Note_on_c, 12, 54, 84
15, 215280, Note_on_c, 12, 57, 84
15, 215331, Note_on_c, 12, 54, 0
15, 215331, Note_on_c, 12, 57, 0
15, 215340, Note_on_c, 12, 57, 84
15, 215340, Note_on_c, 12, 54, 84
15, 215391, Note_on_c, 12, 57, 0
15, 215391, Note_on_c, 12, 54, 0
15, 215400, Note_on_c, 12, 57, 84
15, 215400, Note_on_c, 12, 54, 84
15, 215504, Note_on_c, 12, 57, 0
15, 215504, Note_on_c, 12, 54, 0
15, 215520, Note_on_c, 12, 57, 84
15, 215520, Note_on_c, 12, 54, 84
15, 215571, Note_on_c, 12, 57, 0
15, 215571, Note_on_c, 12, 54, 0
15, 215580, Note_on_c, 12, 54, 84
15, 215580, Note_on_c, 12, 57, 84
15, 215631, Note_on_c, 12, 54, 0
15, 215631, Note_on_c, 12, 57, 0
15, 215640, Note_on_c, 12, 57, 84
15, 215640, Note_on_c, 12, 54, 84
15, 215691, Note_on_c, 12, 57, 0
15, 215691, Note_on_c, 12, 54, 0
15, 215700, Note_on_c, 12, 57, 84
15, 215700, Note_on_c, 12, 54, 84
15, 215751, Note_on_c, 12, 57, 0
15, 215751, Note_on_c, 12, 54, 0
15, 215760, Note_on_c, 12, 52, 84
15, 215760, Note_on_c, 12, 56, 84
15, 215864, Note_on_c, 12, 52, 0
15, 215864, Note_on_c, 12, 56, 0
15, 215880, Note_on_c, 12, 56, 84
15, 215880, Note_on_c, 12, 52, 84
15, 215931, Note_on_c, 12, 56, 0
15, 215931, Note_on_c, 12, 52, 0
15, 215940, Note_on_c, 12, 56, 84
15, 215940, Note_on_c, 12, 52, 84
15, 215991, Note_on_c, 12, 56, 0
15, 215991, Note_on_c, 12, 52, 0
15, 216000, Note_on_c, 12, 56, 84
15, 216000, Note_on_c, 12, 52, 84
15, 216051, Note_on_c, 12, 56, 0
15, 216051, Note_on_c, 12, 52, 0
15, 216060, Note_on_c, 12, 56, 84
15, 216060, Note_on_c, 12, 52, 84
15, 216111, Note_on_c, 12, 56, 0
15, 216111, Note_on_c, 12, 52, 0
15, 216120, Note_on_c, 12, 56, 84
15, 216120, Note_on_c, 12, 52, 84
15, 216224, Note_on_c, 12, 56, 0
15, 216224, Note_on_c, 12, 52, 0
15, 216240, Note_on_c, 12, 56, 84
15, 216240, Note_on_c, 12, 52, 84
15, 216291, Note_on_c, 12, 56, 0
15, 216291, Note_on_c, 12, 52, 0
15, 216300, Note_on_c, 12, 56, 84
15, 216300, Note_on_c, 12, 52, 84
15, 216351, Note_on_c, 12, 56, 0
15, 216351, Note_on_c, 12, 52, 0
15, 216360, Note_on_c, 12, 52, 84
15, 216360, Note_on_c, 12, 56, 84
15, 216411, Note_on_c, 12, 52, 0
15, 216411, Note_on_c, 12, 56, 0
15, 216420, Note_on_c, 12, 56, 84
15, 216420, Note_on_c, 12, 52, 84
15, 216471, Note_on_c, 12, 56, 0
15, 216471, Note_on_c, 12, 52, 0
15, 216480, Note_on_c, 12, 54, 84
15, 216480, Note_on_c, 12, 57, 84
15, 216584, Note_on_c, 12, 54, 0
15, 216584, Note_on_c, 12, 57, 0
15, 216600, Note_on_c, 12, 57, 84
15, 216600, Note_on_c, 12, 54, 84
15, 216651, Note_on_c, 12, 57, 0
15, 216651, Note_on_c, 12, 54, 0
15, 216660, Note_on_c, 12, 54, 84
15, 216660, Note_on_c, 12, 57, 84
15, 216711, Note_on_c, 12, 54, 0
15, 216711, Note_on_c, 12, 57, 0
15, 216720, Note_on_c, 12, 54, 84
15, 216720, Note_on_c, 12, 57, 84
15, 216771, Note_on_c, 12, 54, 0
15, 216771, Note_on_c, 12, 57, 0
15, 216780, Note_on_c, 12, 54, 84
15, 216780, Note_on_c, 12, 57, 84
15, 216831, Note_on_c, 12, 54, 0
15, 216831, Note_on_c, 12, 57, 0
15, 216840, Note_on_c, 12, 54, 84
15, 216840, Note_on_c, 12, 57, 84
15, 216944, Note_on_c, 12, 54, 0
15, 216944, Note_on_c, 12, 57, 0
15, 216960, Note_on_c, 12, 57, 84
15, 216960, Note_on_c, 12, 54, 84
15, 217011, Note_on_c, 12, 57, 0
15, 217011, Note_on_c, 12, 54, 0
15, 217020, Note_on_c, 12, 54, 84
15, 217020, Note_on_c, 12, 57, 84
15, 217071, Note_on_c, 12, 54, 0
15, 217071, Note_on_c, 12, 57, 0
15, 217080, Note_on_c, 12, 54, 84
15, 217080, Note_on_c, 12, 57, 84
15, 217131, Note_on_c, 12, 54, 0
15, 217131, Note_on_c, 12, 57, 0
15, 217140, Note_on_c, 12, 57, 84
15, 217140, Note_on_c, 12, 54, 84
15, 217191, Note_on_c, 12, 57, 0
15, 217191, Note_on_c, 12, 54, 0
15, 217200, Note_on_c, 12, 56, 84
15, 217200, Note_on_c, 12, 52, 84
15, 217304, Note_on_c, 12, 56, 0
15, 217304, Note_on_c, 12, 52, 0
15, 217320, Note_on_c, 12, 52, 84
15, 217320, Note_on_c, 12, 56, 84
15, 217371, Note_on_c, 12, 52, 0
15, 217371, Note_on_c, 12, 56, 0
15, 217380, Note_on_c, 12, 52, 84
15, 217380, Note_on_c, 12, 56, 84
15, 217431, Note_on_c, 12, 52, 0
15, 217431, Note_on_c, 12, 56, 0
15, 217440, Note_on_c, 12, 56, 84
15, 217440, Note_on_c, 12, 52, 84
15, 217491, Note_on_c, 12, 56, 0
15, 217491, Note_on_c, 12, 52, 0
15, 217500, Note_on_c, 12, 56, 84
15, 217500, Note_on_c, 12, 52, 84
15, 217551, Note_on_c, 12, 56, 0
15, 217551, Note_on_c, 12, 52, 0
15, 217560, Note_on_c, 12, 57, 84
15, 217560, Note_on_c, 12, 54, 84
15, 217664, Note_on_c, 12, 57, 0
15, 217664, Note_on_c, 12, 54, 0
15, 217680, Note_on_c, 12, 54, 84
15, 217680, Note_on_c, 12, 57, 84
15, 217731, Note_on_c, 12, 54, 0
15, 217731, Note_on_c, 12, 57, 0
15, 217740, Note_on_c, 12, 57, 84
15, 217740, Note_on_c, 12, 54, 84
15, 217791, Note_on_c, 12, 57, 0
15, 217791, Note_on_c, 12, 54, 0
15, 217800, Note_on_c, 12, 54, 84
15, 217800, Note_on_c, 12, 57, 84
15, 217851, Note_on_c, 12, 54, 0
15, 217851, Note_on_c, 12, 57, 0
15, 217860, Note_on_c, 12, 54, 84
15, 217860, Note_on_c, 12, 57, 84
15, 217911, Note_on_c, 12, 54, 0
15, 217911, Note_on_c, 12, 57, 0
15, 217920, Note_on_c, 12, 56, 84
15, 217920, Note_on_c, 12, 52, 84
15, 218024, Note_on_c, 12, 56, 0
15, 218024, Note_on_c, 12, 52, 0
15, 218040, Note_on_c, 12, 52, 84
15, 218040, Note_on_c, 12, 56, 84
15, 218091, Note_on_c, 12, 52, 0
15, 218091, Note_on_c, 12, 56, 0
15, 218100, Note_on_c, 12, 56, 84
15, 218100, Note_on_c, 12, 52, 84
15, 218151, Note_on_c, 12, 56, 0
15, 218151, Note_on_c, 12, 52, 0
15, 218160, Note_on_c, 12, 56, 84
15, 218160, Note_on_c, 12, 52, 84
15, 218211, Note_on_c, 12, 56, 0
15, 218211, Note_on_c, 12, 52, 0
15, 218220, Note_on_c, 12, 52, 84
15, 218220, Note_on_c, 12, 56, 84
15, 218271, Note_on_c, 12, 52, 0
15, 218271, Note_on_c, 12, 56, 0
15, 218280, Note_on_c, 12, 57, 84
15, 218280, Note_on_c, 12, 54, 84
15, 218384, Note_on_c, 12, 57, 0
15, 218384, Note_on_c, 12, 54, 0
15, 218400, Note_on_c, 12, 57, 84
15, 218400, Note_on_c, 12, 54, 84
15, 218451, Note_on_c, 12, 57, 0
15, 218451, Note_on_c, 12, 54, 0
15, 218460, Note_on_c, 12, 57, 84
15, 218460, Note_on_c, 12, 54, 84
15, 218511, Note_on_c, 12, 57, 0
15, 218511, Note_on_c, 12, 54, 0
15, 218520, Note_on_c, 12, 54, 84
15, 218520, Note_on_c, 12, 57, 84
15, 218571, Note_on_c, 12, 54, 0
15, 218571, Note_on_c, 12, 57, 0
15, 218580, Note_on_c, 12, 54, 84
15, 218580, Note_on_c, 12, 57, 84
15, 218631, Note_on_c, 12, 54, 0
15, 218631, Note_on_c, 12, 57, 0
15, 218640, Note_on_c, 12, 52, 84
15, 218640, Note_on_c, 12, 56, 84
15, 218744, Note_on_c, 12, 52, 0
15, 218744, Note_on_c, 12, 56, 0
15, 218760, Note_on_c, 12, 56, 84
15, 218760, Note_on_c, 12, 52, 84
15, 218811, Note_on_c, 12, 56, 0
15, 218811, Note_on_c, 12, 52, 0
15, 218820, Note_on_c, 12, 52, 84
15, 218820, Note_on_c, 12, 56, 84
15, 218871, Note_on_c, 12, 52, 0
15, 218871, Note_on_c, 12, 56, 0
15, 218880, Note_on_c, 12, 52, 84
15, 218880, Note_on_c, 12, 56, 84
15, 218931, Note_on_c, 12, 52, 0
15, 218931, Note_on_c, 12, 56, 0
15, 218940, Note_on_c, 12, 52, 84
15, 218940, Note_on_c, 12, 56, 84
15, 218991, Note_on_c, 12, 52, 0
15, 218991, Note_on_c, 12, 56, 0
15, 219000, Note_on_c, 12, 57, 84
15, 219000, Note_on_c, 12, 54, 84
15, 219104, Note_on_c, 12, 57, 0
15, 219104, Note_on_c, 12, 54, 0
15, 219120, Note_on_c, 12, 57, 84
15, 219120, Note_on_c, 12, 54, 84
15, 219171, Note_on_c, 12, 57, 0
15, 219171, Note_on_c, 12, 54, 0
15, 219180, Note_on_c, 12, 54, 84
15, 219180, Note_on_c, 12, 57, 84
15, 219231, Note_on_c, 12, 54, 0
15, 219231, Note_on_c, 12, 57, 0
15, 219240, Note_on_c, 12, 57, 84
15, 219240, Note_on_c, 12, 54, 84
15, 219291, Note_on_c, 12, 57, 0
15, 219291, Note_on_c, 12, 54, 0
15, 219300, Note_on_c, 12, 54, 84
15, 219300, Note_on_c, 12, 57, 84
15, 219321, Note_on_c, 12, 54, 0
15, 219330, Note_on_c, 12, 51, 84
15, 219351, Note_on_c, 12, 57, 0
15, 219359, Note_on_c, 12, 51, 0
15, 219360, Note_on_c, 12, 52, 84
15, 219539, Note_on_c, 12, 52, 0
15, 219690, Note_on_c, 12, 52, 84
15, 219719, Note_on_c, 12, 52, 0
15, 219720, Note_on_c, 12, 54, 84
15, 219899, Note_on_c, 12, 54, 0
15, 220050, Note_on_c, 12, 54, 84
15, 220079, Note_on_c, 12, 54, 0
15, 220080, Note_on_c, 12, 56, 84
15, 220259, Note_on_c, 12, 56, 0
15, 220410, Note_on_c, 12, 56, 84
15, 220439, Note_on_c, 12, 56, 0
15, 220440, Note_on_c, 12, 57, 84
15, 220619, Note_on_c, 12, 57, 0
15, 220770, Note_on_c, 12, 57, 84
15, 220799, Note_on_c, 12, 57, 0
15, 220800, Note_on_c, 12, 59, 84
15, 220979, Note_on_c, 12, 59, 0
15, 221130, Note_on_c, 12, 59, 84
15, 221159, Note_on_c, 12, 59, 0
15, 221160, Note_on_c, 12, 61, 84
15, 221339, Note_on_c, 12, 61, 0
15, 221490, Note_on_c, 12, 61, 84
15, 221519, Note_on_c, 12, 61, 0
15, 221520, Note_on_c, 12, 62, 84
15, 221699, Note_on_c, 12, 62, 0
15, 221880, Note_on_c, 12, 63, 84
15, 222059, Note_on_c, 12, 63, 0
15, 223650, Note_on_c, 12, 51, 84
15, 223679, Note_on_c, 12, 51, 0
15, 223680, Note_on_c, 12, 52, 84
15, 223859, Note_on_c, 12, 52, 0
15, 224010, Note_on_c, 12, 52, 84
15, 224039, Note_on_c, 12, 52, 0
15, 224040, Note_on_c, 12, 53, 84
15, 224219, Note_on_c, 12, 53, 0
15, 224370, Note_on_c, 12, 53, 84
15, 224399, Note_on_c, 12, 53, 0
15, 224400, Note_on_c, 12, 54, 84
15, 224579, Note_on_c, 12, 54, 0
15, 224730, Note_on_c, 12, 54, 84
15, 224759, Note_on_c, 12, 54, 0
15, 224760, Note_on_c, 12, 55, 84
15, 224939, Note_on_c, 12, 55, 0
15, 229080, Note_on_c, 12, 55, 44
15, 229080, Note_on_c, 12, 52, 44
15, 229251, Note_on_c, 12, 55, 0
15, 229251, Note_on_c, 12, 52, 0
15, 229260, Note_on_c, 12, 55, 44
15, 229260, Note_on_c, 12, 52, 44
15, 229311, Note_on_c, 12, 55, 0
15, 229311, Note_on_c, 12, 52, 0
15, 229320, Note_on_c, 12, 52, 44
15, 229320, Note_on_c, 12, 55, 44
15, 229424, Note_on_c, 12, 52, 0
15, 229424, Note_on_c, 12, 55, 0
15, 229440, Note_on_c, 12, 55, 44
15, 229440, Note_on_c, 12, 52, 44
15, 230159, Note_on_c, 12, 55, 0
15, 230159, Note_on_c, 12, 52, 0
15, 230160, Note_on_c, 12, 55, 44
15, 230160, Note_on_c, 12, 52, 44
15, 230879, Note_on_c, 12, 55, 0
15, 230879, Note_on_c, 12, 52, 0
15, 230880, Note_on_c, 12, 52, 44
15, 230880, Note_on_c, 12, 55, 44
15, 231584, Note_on_c, 12, 52, 0
15, 231584, Note_on_c, 12, 55, 0
15, 231600, Note_on_c, 12, 55, 44
15, 231600, Note_on_c, 12, 53, 44
15, 232304, Note_on_c, 12, 55, 0
15, 232304, Note_on_c, 12, 53, 0
15, 232320, Note_on_c, 12, 55, 44
15, 232851, Note_on_c, 12, 55, 0
15, 232860, Note_on_c, 12, 53, 44
15, 232904, Note_on_c, 12, 53, 0
15, 232920, Note_on_c, 12, 52, 44
15, 233009, Note_on_c, 12, 52, 0
15, 233040, Note_on_c, 12, 53, 44
15, 233211, Note_on_c, 12, 53, 0
15, 233220, Note_on_c, 12, 55, 44
15, 233264, Note_on_c, 12, 55, 0
15, 233280, Note_on_c, 12, 57, 44
15, 233369, Note_on_c, 12, 57, 0
15, 233400, Note_on_c, 12, 59, 44
15, 233571, Note_on_c, 12, 59, 0
15, 233580, Note_on_c, 12, 60, 44
15, 233624, Note_on_c, 12, 60, 0
15, 233640, Note_on_c, 12, 62, 44
15, 233729, Note_on_c, 12, 62, 0
15, 233760, Note_on_c, 12, 64, 44
15, 233931, Note_on_c, 12, 64, 0
15, 233940, Note_on_c, 12, 65, 44
15, 233984, Note_on_c, 12, 65, 0
15, 234000, Note_on_c, 12, 67, 44
15, 234089, Note_on_c, 12, 67, 0
15, 234120, Note_on_c, 12, 69, 44
15, 234291, Note_on_c, 12, 69, 0
15, 234300, Note_on_c, 12, 71, 44
15, 234344, Note_on_c, 12, 71, 0
15, 234360, Note_on_c, 12, 72, 44
15, 234449, Note_on_c, 12, 72, 0
15, 234480, Note_on_c, 12, 74, 44
15, 234651, Note_on_c, 12, 74, 0
15, 234660, Note_on_c, 12, 72, 44
15, 234704, Note_on_c, 12, 72, 0
15, 234720, Note_on_c, 12, 71, 44
15, 234809, Note_on_c, 12, 71, 0
15, 234840, Note_on_c, 12, 69, 44
15, 235011, Note_on_c, 12, 69, 0
15, 235020, Note_on_c, 12, 67, 44
15, 235064, Note_on_c, 12, 67, 0
15, 235080, Note_on_c, 12, 65, 44
15, 235169, Note_on_c, 12, 65, 0
15, 235200, Note_on_c, 12, 64, 44
15, 235371, Note_on_c, 12, 64, 0
15, 235380, Note_on_c, 12, 62, 44
15, 235424, Note_on_c, 12, 62, 0
15, 235440, Note_on_c, 12, 60, 44
15, 235529, Note_on_c, 12, 60, 0
15, 235560, Note_on_c, 12, 60, 44
15, 235799, Note_on_c, 12, 60, 0
15, 235920, Note_on_c, 12, 59, 44
15, 236091, Note_on_c, 12, 59, 0
15, 236100, Note_on_c, 12, 57, 44
15, 236144, Note_on_c, 12, 57, 0
15, 236160, Note_on_c, 12, 55, 44
15, 236249, Note_on_c, 12, 55, 0
15, 236280, Note_on_c, 12, 55, 44
15, 236519, Note_on_c, 12, 55, 0
15, 236640, Note_on_c, 12, 60, 44
15, 236811, Note_on_c, 12, 60, 0
15, 236820, Note_on_c, 12, 67, 45
15, 236864, Note_on_c, 12, 67, 0
15, 236880, Note_on_c, 12, 67, 45
15, 236969, Note_on_c, 12, 67, 0
15, 237000, Note_on_c, 12, 67, 46
15, 237171, Note_on_c, 12, 67, 0
15, 237180, Note_on_c, 12, 67, 48
15, 237224, Note_on_c, 12, 67, 0
15, 237240, Note_on_c, 12, 67, 48
15, 237329, Note_on_c, 12, 67, 0
15, 237360, Note_on_c, 12, 67, 49
15, 237531, Note_on_c, 12, 67, 0
15, 237540, Note_on_c, 12, 67, 50
15, 237584, Note_on_c, 12, 67, 0
15, 237600, Note_on_c, 12, 67, 51
15, 237689, Note_on_c, 12, 67, 0
15, 237720, Note_on_c, 12, 67, 52
15, 237891, Note_on_c, 12, 67, 0
15, 237900, Note_on_c, 12, 67, 53
15, 237944, Note_on_c, 12, 67, 0
15, 237960, Note_on_c, 12, 67, 53
15, 238049, Note_on_c, 12, 67, 0
15, 238080, Note_on_c, 12, 66, 54
15, 238251, Note_on_c, 12, 66, 0
15, 238260, Note_on_c, 12, 66, 56
15, 238304, Note_on_c, 12, 66, 0
15, 238320, Note_on_c, 12, 66, 56
15, 238409, Note_on_c, 12, 66, 0
15, 238440, Note_on_c, 12, 66, 57
15, 238611, Note_on_c, 12, 66, 0
15, 238620, Note_on_c, 12, 66, 58
15, 238664, Note_on_c, 12, 66, 0
15, 238680, Note_on_c, 12, 66, 59
15, 238769, Note_on_c, 12, 66, 0
15, 238800, Note_on_c, 12, 66, 60
15, 238971, Note_on_c, 12, 66, 0
15, 238980, Note_on_c, 12, 66, 61
15, 239024, Note_on_c, 12, 66, 0
15, 239040, Note_on_c, 12, 66, 61
15, 239129, Note_on_c, 12, 66, 0
15, 239160, Note_on_c, 12, 66, 62
15, 239331, Note_on_c, 12, 66, 0
15, 239340, Note_on_c, 12, 66, 64
15, 239384, Note_on_c, 12, 66, 0
15, 239400, Note_on_c, 12, 66, 64
15, 239489, Note_on_c, 12, 66, 0
15, 239520, Note_on_c, 12, 65, 65
15, 239691, Note_on_c, 12, 65, 0
15, 239700, Note_on_c, 12, 65, 66
15, 239744, Note_on_c, 12, 65, 0
15, 239760, Note_on_c, 12, 65, 67
15, 239849, Note_on_c, 12, 65, 0
15, 239880, Note_on_c, 12, 65, 68
15, 240051, Note_on_c, 12, 65, 0
15, 240060, Note_on_c, 12, 65, 69
15, 240104, Note_on_c, 12, 65, 0
15, 240120, Note_on_c, 12, 65, 69
15, 240209, Note_on_c, 12, 65, 0
15, 240240, Note_on_c, 12, 65, 70
15, 240411, Note_on_c, 12, 65, 0
15, 240420, Note_on_c, 12, 65, 72
15, 240464, Note_on_c, 12, 65, 0
15, 240480, Note_on_c, 12, 65, 72
15, 240569, Note_on_c, 12, 65, 0
15, 240600, Note_on_c, 12, 65, 73
15, 240771, Note_on_c, 12, 65, 0
15, 240780, Note_on_c, 12, 65, 74
15, 240824, Note_on_c, 12, 65, 0
15, 240840, Note_on_c, 12, 65, 75
15, 240929, Note_on_c, 12, 65, 0
15, 240960, Note_on_c, 12, 64, 76
15, 241131, Note_on_c, 12, 64, 0
15, 241140, Note_on_c, 12, 72, 76
15, 241184, Note_on_c, 12, 72, 0
15, 241200, Note_on_c, 12, 67, 76
15, 241289, Note_on_c, 12, 67, 0
15, 241320, Note_on_c, 12, 67, 76
15, 241851, Note_on_c, 12, 67, 0
15, 241860, Note_on_c, 12, 67, 76
15, 241904, Note_on_c, 12, 67, 0
15, 241920, Note_on_c, 12, 64, 76
15, 242009, Note_on_c, 12, 64, 0
15, 242040, Note_on_c, 12, 64, 76
15, 242571, Note_on_c, 12, 64, 0
15, 242580, Note_on_c, 12, 64, 76
15, 242624, Note_on_c, 12, 64, 0
15, 242640, Note_on_c, 12, 60, 76
15, 242931, Note_on_c, 12, 60, 0
15, 242940, Note_on_c, 12, 60, 76
15, 242984, Note_on_c, 12, 60, 0
15, 243000, Note_on_c, 12, 55, 76
15, 243291, Note_on_c, 12, 55, 0
15, 243300, Note_on_c, 12, 55, 76
15, 243344, Note_on_c, 12, 55, 0
15, 243360, Note_on_c, 12, 52, 76
15, 243651, Note_on_c, 12, 52, 0
15, 243660, Note_on_c, 12, 52, 76
15, 243704, Note_on_c, 12, 52, 0
15, 243720, Note_on_c, 12, 48, 76
15, 243809, Note_on_c, 12, 48, 0
15, 243840, Note_on_c, 12, 59, 84
15, 244079, Note_on_c, 12, 59, 0
15, 245280, Note_on_c, 12, 59, 84
15, 245451, Note_on_c, 12, 59, 0
15, 245460, Note_on_c, 12, 65, 84
15, 245511, Note_on_c, 12, 65, 0
15, 245520, Note_on_c, 12, 62, 84
15, 245624, Note_on_c, 12, 62, 0
15, 245640, Note_on_c, 12, 62, 84
15, 246171, Note_on_c, 12, 62, 0
15, 246180, Note_on_c, 12, 74, 84
15, 246231, Note_on_c, 12, 74, 0
15, 246240, Note_on_c, 12, 71, 84
15, 246344, Note_on_c, 12, 71, 0
15, 246360, Note_on_c, 12, 71, 84
15, 246891, Note_on_c, 12, 71, 0
15, 246900, Note_on_c, 12, 67, 84
15, 246951, Note_on_c, 12, 67, 0
15, 246960, Note_on_c, 12, 65, 84
15, 247251, Note_on_c, 12, 65, 0
15, 247260, Note_on_c, 12, 65, 84
15, 247311, Note_on_c, 12, 65, 0
15, 247320, Note_on_c, 12, 62, 84
15, 247611, Note_on_c, 12, 62, 0
15, 247620, Note_on_c, 12, 62, 84
15, 247671, Note_on_c, 12, 62, 0
15, 247680, Note_on_c, 12, 59, 84
15, 247971, Note_on_c, 12, 59, 0
15, 247980, Note_on_c, 12, 55, 84
15, 248031, Note_on_c, 12, 55, 0
15, 248040, Note_on_c, 12, 53, 84
15, 248144, Note_on_c, 12, 53, 0
15, 248160, Note_on_c, 12, 52, 84
15, 248399, Note_on_c, 12, 52, 0
15, 249600, Note_on_c, 12, 52, 84
15, 249600, Note_on_c, 12, 59, 84
15, 249600, Note_on_c, 12, 64, 84
15, 249719, Note_on_c, 12, 52, 0
15, 249719, Note_on_c, 12, 59, 0
15, 249771, Note_on_c, 12, 64, 0
15, 249780, Note_on_c, 12, 76, 84
15, 249831, Note_on_c, 12, 76, 0
15, 249840, Note_on_c, 12, 71, 84
15, 249944, Note_on_c, 12, 71, 0
15, 249960, Note_on_c, 12, 71, 84
15, 250491, Note_on_c, 12, 71, 0
15, 250500, Note_on_c, 12, 71, 84
15, 250551, Note_on_c, 12, 71, 0
15, 250560, Note_on_c, 12, 68, 84
15, 250664, Note_on_c, 12, 68, 0
15, 250680, Note_on_c, 12, 68, 84
15, 251211, Note_on_c, 12, 68, 0
15, 251220, Note_on_c, 12, 68, 84
15, 251271, Note_on_c, 12, 68, 0
15, 251280, Note_on_c, 12, 64, 84
15, 251571, Note_on_c, 12, 64, 0
15, 251580, Note_on_c, 12, 64, 84
15, 251631, Note_on_c, 12, 64, 0
15, 251640, Note_on_c, 12, 59, 84
15, 251931, Note_on_c, 12, 59, 0
15, 251940, Note_on_c, 12, 59, 84
15, 251991, Note_on_c, 12, 59, 0
15, 252000, Note_on_c, 12, 56, 84
15, 252291, Note_on_c, 12, 56, 0
15, 252300, Note_on_c, 12, 56, 84
15, 252351, Note_on_c, 12, 56, 0
15, 252360, Note_on_c, 12, 52, 84
15, 252464, Note_on_c, 12, 52, 0
15, 252480, Note_on_c, 12, 52, 84
15, 252651, Note_on_c, 12, 52, 0
15, 252660, Note_on_c, 12, 52, 84
15, 252711, Note_on_c, 12, 52, 0
15, 252720, Note_on_c, 12, 52, 84
15, 252839, Note_on_c, 12, 52, 0
15, 253200, Note_on_c, 12, 49, 92
15, 253259, Note_on_c, 12, 49, 0
15, 253260, Note_on_c, 12, 49, 84
15, 253371, Note_on_c, 12, 49, 0
15, 253380, Note_on_c, 12, 49, 84
15, 253431, Note_on_c, 12, 49, 0
15, 253440, Note_on_c, 12, 49, 84
15, 253559, Note_on_c, 12, 49, 0
15, 253920, Note_on_c, 12, 49, 92
15, 253979, Note_on_c, 12, 49, 0
15, 253980, Note_on_c, 12, 49, 84
15, 254091, Note_on_c, 12, 49, 0
15, 254100, Note_on_c, 12, 49, 84
15, 254151, Note_on_c, 12, 49, 0
15, 254160, Note_on_c, 12, 49, 84
15, 254279, Note_on_c, 12, 49, 0
15, 256080, Note_on_c, 12, 60, 44
15, 256251, Note_on_c, 12, 60, 0
15, 256260, Note_on_c, 12, 62, 44
15, 256311, Note_on_c, 12, 62, 0
15, 256320, Note_on_c, 12, 64, 44
15, 256424, Note_on_c, 12, 64, 0
15, 256440, Note_on_c, 12, 65, 44
15, 256611, Note_on_c, 12, 65, 0
15, 256620, Note_on_c, 12, 64, 44
15, 256671, Note_on_c, 12, 64, 0
15, 256680, Note_on_c, 12, 65, 44
15, 256784, Note_on_c, 12, 65, 0
15, 256800, Note_on_c, 12, 67, 44
15, 256971, Note_on_c, 12, 67, 0
15, 256980, Note_on_c, 12, 67, 44
15, 257031, Note_on_c, 12, 67, 0
15, 257040, Note_on_c, 12, 67, 44
15, 257144, Note_on_c, 12, 67, 0
15, 257160, Note_on_c, 12, 65, 44
15, 257279, Note_on_c, 12, 65, 0
15, 257340, Note_on_c, 12, 62, 44
15, 257391, Note_on_c, 12, 62, 0
15, 257400, Note_on_c, 12, 62, 44
15, 257504, Note_on_c, 12, 62, 0
15, 257520, Note_on_c, 12, 60, 44
15, 257639, Note_on_c, 12, 60, 0
15, 257700, Note_on_c, 12, 58, 44
15, 257751, Note_on_c, 12, 58, 0
15, 257760, Note_on_c, 12, 58, 44
15, 257864, Note_on_c, 12, 58, 0
15, 257880, Note_on_c, 12, 57, 44
15, 257999, Note_on_c, 12, 57, 0
15, 258060, Note_on_c, 12, 53, 44
15, 258111, Note_on_c, 12, 53, 0
15, 258120, Note_on_c, 12, 53, 44
15, 258224, Note_on_c, 12, 53, 0
15, 258240, Note_on_c, 12, 52, 44
15, 258479, Note_on_c, 12, 52, 0
15, 259140, Note_on_c, 12, 65, 44
15, 259191, Note_on_c, 12, 65, 0
15, 259200, Note_on_c, 12, 65, 44
15, 259304, Note_on_c, 12, 65, 0
15, 259320, Note_on_c, 12, 64, 44
15, 259439, Note_on_c, 12, 64, 0
15, 259500, Note_on_c, 12, 60, 44
15, 259551, Note_on_c, 12, 60, 0
15, 259560, Note_on_c, 12, 60, 44
15, 259664, Note_on_c, 12, 60, 0
15, 259680, Note_on_c, 12, 59, 44
15, 259919, Note_on_c, 12, 59, 0
15, 260400, Note_on_c, 12, 62, 44
15, 260571, Note_on_c, 12, 62, 0
15, 260580, Note_on_c, 12, 64, 44
15, 260631, Note_on_c, 12, 64, 0
15, 260640, Note_on_c, 12, 66, 44
15, 260744, Note_on_c, 12, 66, 0
15, 260760, Note_on_c, 12, 67, 44
15, 260931, Note_on_c, 12, 67, 0
15, 260940, Note_on_c, 12, 66, 44
15, 260991, Note_on_c, 12, 66, 0
15, 261000, Note_on_c, 12, 67, 44
15, 261104, Note_on_c, 12, 67, 0
15, 261120, Note_on_c, 12, 69, 44
15, 261291, Note_on_c, 12, 69, 0
15, 261300, Note_on_c, 12, 69, 44
15, 261351, Note_on_c, 12, 69, 0
15, 261360, Note_on_c, 12, 69, 44
15, 261464, Note_on_c, 12, 69, 0
15, 261480, Note_on_c, 12, 67, 44
15, 261599, Note_on_c, 12, 67, 0
15, 261660, Note_on_c, 12, 62, 44
15, 261711, Note_on_c, 12, 62, 0
15, 261720, Note_on_c, 12, 62, 44
15, 261824, Note_on_c, 12, 62, 0
15, 261840, Note_on_c, 12, 62, 44
15, 261959, Note_on_c, 12, 62, 0
15, 262020, Note_on_c, 12, 60, 44
15, 262071, Note_on_c, 12, 60, 0
15, 262080, Note_on_c, 12, 60, 44
15, 262184, Note_on_c, 12, 60, 0
15, 262200, Note_on_c, 12, 58, 44
15, 262319, Note_on_c, 12, 58, 0
15, 262380, Note_on_c, 12, 55, 44
15, 262431, Note_on_c, 12, 55, 0
15, 262440, Note_on_c, 12, 55, 44
15, 262544, Note_on_c, 12, 55, 0
15, 262560, Note_on_c, 12, 53, 44
15, 262799, Note_on_c, 12, 53, 0
15, 263460, Note_on_c, 12, 67, 44
15, 263511, Note_on_c, 12, 67, 0
15, 263520, Note_on_c, 12, 67, 44
15, 263624, Note_on_c, 12, 67, 0
15, 263640, Note_on_c, 12, 65, 44
15, 263759, Note_on_c, 12, 65, 0
15, 263820, Note_on_c, 12, 65, 44
15, 263871, Note_on_c, 12, 65, 0
15, 263880, Note_on_c, 12, 65, 44
15, 263984, Note_on_c, 12, 65, 0
15, 264000, Note_on_c, 12, 64, 44
15, 264119, Note_on_c, 12, 64, 0
15, 264180, Note_on_c, 12, 55, 44
15, 264231, Note_on_c, 12, 55, 0
15, 264240, Note_on_c, 12, 55, 44
15, 264344, Note_on_c, 12, 55, 0
15, 264360, Note_on_c, 12, 53, 44
15, 264479, Note_on_c, 12, 53, 0
15, 264540, Note_on_c, 12, 50, 44
15, 264591, Note_on_c, 12, 50, 0
15, 264600, Note_on_c, 12, 50, 44
15, 264704, Note_on_c, 12, 50, 0
15, 264720, Note_on_c, 12, 49, 44
15, 264839, Note_on_c, 12, 49, 0
15, 264900, Note_on_c, 12, 67, 44
15, 264951, Note_on_c, 12, 67, 0
15, 264960, Note_on_c, 12, 67, 44
15, 265064, Note_on_c, 12, 67, 0
15, 265080, Note_on_c, 12, 65, 44
15, 265199, Note_on_c, 12, 65, 0
15, 265260, Note_on_c, 12, 65, 44
15, 265311, Note_on_c, 12, 65, 0
15, 265320, Note_on_c, 12, 65, 44
15, 265424, Note_on_c, 12, 65, 0
15, 265440, Note_on_c, 12, 64, 44
15, 265559, Note_on_c, 12, 64, 0
15, 265618, Control_c, 12, 11, 64
15, 265620, Note_on_c, 12, 55, 76
15, 265671, Note_on_c, 12, 55, 0
15, 265680, Note_on_c, 12, 55, 76
15, 265784, Note_on_c, 12, 55, 0
15, 265800, Note_on_c, 12, 53, 76
15, 265919, Note_on_c, 12, 53, 0
15, 265980, Note_on_c, 12, 50, 76
15, 266031, Note_on_c, 12, 50, 0
15, 266040, Note_on_c, 12, 50, 76
15, 266144, Note_on_c, 12, 50, 0
15, 266160, Note_on_c, 12, 49, 76
15, 266279, Note_on_c, 12, 49, 0
15, 266320, Control_c, 12, 11, 65
15, 266340, Note_on_c, 12, 49, 76
15, 266391, Note_on_c, 12, 49, 0
15, 266400, Note_on_c, 12, 50, 76
15, 266480, Control_c, 12, 11, 66
15, 266504, Note_on_c, 12, 50, 0
15, 266520, Note_on_c, 12, 52, 76
15, 266639, Note_on_c, 12, 52, 0
15, 266640, Control_c, 12, 11, 67
15, 266700, Note_on_c, 12, 50, 76
15, 266751, Note_on_c, 12, 50, 0
15, 266760, Note_on_c, 12, 52, 76
15, 266800, Control_c, 12, 11, 68
15, 266864, Note_on_c, 12, 52, 0
15, 266880, Note_on_c, 12, 53, 76
15, 266960, Control_c, 12, 11, 69
15, 266999, Note_on_c, 12, 53, 0
15, 267060, Note_on_c, 12, 52, 76
15, 267111, Note_on_c, 12, 52, 0
15, 267120, Note_on_c, 12, 53, 76
15, 267120, Control_c, 12, 11, 70
15, 267224, Note_on_c, 12, 53, 0
15, 267240, Note_on_c, 12, 55, 76
15, 267280, Control_c, 12, 11, 71
15, 267359, Note_on_c, 12, 55, 0
15, 267420, Note_on_c, 12, 53, 76
15, 267440, Control_c, 12, 11, 72
15, 267471, Note_on_c, 12, 53, 0
15, 267480, Note_on_c, 12, 55, 76
15, 267584, Note_on_c, 12, 55, 0
15, 267600, Control_c, 12, 11, 73
15, 267600, Note_on_c, 12, 57, 76
15, 267760, Control_c, 12, 11, 74
15, 267920, Control_c, 12, 11, 75
15, 268080, Control_c, 12, 11, 76
15, 268240, Control_c, 12, 11, 77
15, 268319, Note_on_c, 12, 57, 0
15, 268320, Note_on_c, 12, 57, 76
15, 268400, Control_c, 12, 11, 78
15, 268560, Control_c, 12, 11, 79
15, 268720, Control_c, 12, 11, 80
15, 268880, Control_c, 12, 11, 81
15, 269040, Control_c, 12, 11, 82
15, 269159, Note_on_c, 12, 57, 0
15, 269200, Control_c, 12, 11, 83
15, 269220, Note_on_c, 12, 50, 76
15, 269271, Note_on_c, 12, 50, 0
15, 269280, Note_on_c, 12, 52, 76
15, 269360, Control_c, 12, 11, 84
15, 269384, Note_on_c, 12, 52, 0
15, 269400, Note_on_c, 12, 53, 76
15, 269519, Note_on_c, 12, 53, 0
15, 269520, Control_c, 12, 11, 85
15, 269580, Note_on_c, 12, 52, 76
15, 269631, Note_on_c, 12, 52, 0
15, 269640, Note_on_c, 12, 53, 76
15, 269680, Control_c, 12, 11, 86
15, 269744, Note_on_c, 12, 53, 0
15, 269760, Note_on_c, 12, 55, 76
15, 269840, Control_c, 12, 11, 87
15, 269879, Note_on_c, 12, 55, 0
15, 269940, Note_on_c, 12, 53, 76
15, 269991, Note_on_c, 12, 53, 0
15, 270000, Control_c, 12, 11, 88
15, 270000, Note_on_c, 12, 55, 76
15, 270104, Note_on_c, 12, 55, 0
15, 270120, Note_on_c, 12, 57, 76
15, 270160, Control_c, 12, 11, 89
15, 270239, Note_on_c, 12, 57, 0
15, 270300, Note_on_c, 12, 55, 76
15, 270320, Control_c, 12, 11, 90
15, 270351, Note_on_c, 12, 55, 0
15, 270360, Note_on_c, 12, 57, 76
15, 270464, Note_on_c, 12, 57, 0
15, 270480, Note_on_c, 12, 58, 76
15, 270480, Control_c, 12, 11, 91
15, 270640, Control_c, 12, 11, 92
15, 270800, Control_c, 12, 11, 93
15, 270960, Control_c, 12, 11, 94
15, 271120, Control_c, 12, 11, 95
15, 271199, Note_on_c, 12, 58, 0
15, 271200, Note_on_c, 12, 58, 76
15, 271280, Control_c, 12, 11, 96
15, 271440, Control_c, 12, 11, 97
15, 271600, Control_c, 12, 11, 98
15, 271760, Control_c, 12, 11, 99
15, 271920, Control_c, 12, 11, 100
15, 272039, Note_on_c, 12, 58, 0
15, 272080, Control_c, 12, 11, 101
15, 272100, Note_on_c, 12, 52, 76
15, 272151, Note_on_c, 12, 52, 0
15, 272160, Note_on_c, 12, 53, 76
15, 272240, Control_c, 12, 11, 102
15, 272264, Note_on_c, 12, 53, 0
15, 272280, Note_on_c, 12, 55, 76
15, 272399, Note_on_c, 12, 55, 0
15, 272400, Control_c, 12, 11, 103
15, 272460, Note_on_c, 12, 53, 76
15, 272511, Note_on_c, 12, 53, 0
15, 272520, Note_on_c, 12, 55, 76
15, 272560, Control_c, 12, 11, 104
15, 272624, Note_on_c, 12, 55, 0
15, 272640, Note_on_c, 12, 57, 76
15, 272720, Control_c, 12, 11, 105
15, 272759, Note_on_c, 12, 57, 0
15, 272820, Note_on_c, 12, 55, 76
15, 272871, Note_on_c, 12, 55, 0
15, 272880, Control_c, 12, 11, 106
15, 272880, Note_on_c, 12, 57, 76
15, 272984, Note_on_c, 12, 57, 0
15, 273000, Note_on_c, 12, 58, 76
15, 273040, Control_c, 12, 11, 107
15, 273119, Note_on_c, 12, 58, 0
15, 273180, Note_on_c, 12, 57, 76
15, 273200, Control_c, 12, 11, 108
15, 273231, Note_on_c, 12, 57, 0
15, 273240, Note_on_c, 12, 58, 76
15, 273344, Note_on_c, 12, 58, 0
15, 273360, Control_c, 12, 11, 109
15, 273360, Note_on_c, 12, 60, 76
15, 273520, Control_c, 12, 11, 110
15, 273680, Control_c, 12, 11, 111
15, 273840, Control_c, 12, 11, 112
15, 274000, Control_c, 12, 11, 113
15, 274079, Note_on_c, 12, 60, 0
15, 274080, Note_on_c, 12, 60, 76
15, 274160, Control_c, 12, 11, 114
15, 274320, Control_c, 12, 11, 115
15, 274480, Control_c, 12, 11, 116
15, 274640, Control_c, 12, 11, 117
15, 274800, Control_c, 12, 11, 118
15, 274904, Note_on_c, 12, 60, 0
15, 274960, Control_c, 12, 11, 119
15, 274980, Note_on_c, 12, 54, 76
15, 275031, Note_on_c, 12, 54, 0
15, 275040, Note_on_c, 12, 55, 76
15, 275120, Control_c, 12, 11, 120
15, 275144, Note_on_c, 12, 55, 0
15, 275160, Note_on_c, 12, 57, 76
15, 275279, Note_on_c, 12, 57, 0
15, 275280, Control_c, 12, 11, 121
15, 275340, Note_on_c, 12, 55, 76
15, 275391, Note_on_c, 12, 55, 0
15, 275400, Note_on_c, 12, 57, 76
15, 275440, Control_c, 12, 11, 122
15, 275504, Note_on_c, 12, 57, 0
15, 275520, Note_on_c, 12, 58, 76
15, 275600, Control_c, 12, 11, 123
15, 275639, Note_on_c, 12, 58, 0
15, 275700, Note_on_c, 12, 57, 76
15, 275751, Note_on_c, 12, 57, 0
15, 275760, Note_on_c, 12, 58, 76
15, 275760, Control_c, 12, 11, 124
15, 275864, Note_on_c, 12, 58, 0
15, 275880, Note_on_c, 12, 60, 76
15, 275920, Control_c, 12, 11, 125
15, 275999, Note_on_c, 12, 60, 0
15, 276060, Note_on_c, 12, 58, 76
15, 276080, Control_c, 12, 11, 127
15, 276111, Note_on_c, 12, 58, 0
15, 276120, Note_on_c, 12, 60, 76
15, 276224, Note_on_c, 12, 60, 0
15, 276240, Note_on_c, 12, 62, 76
15, 276411, Note_on_c, 12, 62, 0
15, 276420, Note_on_c, 12, 55, 76
15, 276420, Note_on_c, 12, 67, 76
15, 276471, Note_on_c, 12, 55, 0
15, 276471, Note_on_c, 12, 67, 0
15, 276480, Note_on_c, 12, 55, 76
15, 276480, Note_on_c, 12, 67, 76
15, 276584, Note_on_c, 12, 55, 0
15, 276584, Note_on_c, 12, 67, 0
15, 276600, Note_on_c, 12, 55, 76
15, 276600, Note_on_c, 12, 67, 76
15, 276839, Note_on_c, 12, 55, 0
15, 276839, Note_on_c, 12, 67, 0
15, 276960, Note_on_c, 12, 67, 76
15, 276960, Note_on_c, 12, 55, 76
15, 277079, Note_on_c, 12, 67, 0
15, 277079, Note_on_c, 12, 55, 0
15, 277140, Note_on_c, 12, 67, 76
15, 277140, Note_on_c, 12, 55, 76
15, 277191, Note_on_c, 12, 67, 0
15, 277191, Note_on_c, 12, 55, 0
15, 277200, Note_on_c, 12, 55, 76
15, 277200, Note_on_c, 12, 67, 76
15, 277304, Note_on_c, 12, 55, 0
15, 277304, Note_on_c, 12, 67, 0
15, 277320, Note_on_c, 12, 67, 76
15, 277320, Note_on_c, 12, 55, 76
15, 277559, Note_on_c, 12, 67, 0
15, 277559, Note_on_c, 12, 55, 0
15, 277680, Note_on_c, 12, 55, 76
15, 277680, Note_on_c, 12, 67, 76
15, 277799, Note_on_c, 12, 55, 0
15, 277799, Note_on_c, 12, 67, 0
15, 277860, Note_on_c, 12, 67, 76
15, 277860, Note_on_c, 12, 55, 76
15, 277911, Note_on_c, 12, 67, 0
15, 277911, Note_on_c, 12, 55, 0
15, 277920, Note_on_c, 12, 55, 76
15, 277920, Note_on_c, 12, 67, 76
15, 278024, Note_on_c, 12, 55, 0
15, 278024, Note_on_c, 12, 67, 0
15, 278040, Note_on_c, 12, 67, 76
15, 278040, Note_on_c, 12, 55, 76
15, 278279, Note_on_c, 12, 67, 0
15, 278279, Note_on_c, 12, 55, 0
15, 278400, Note_on_c, 12, 57, 76
15, 278400, Note_on_c, 12, 69, 76
15, 278519, Note_on_c, 12, 57, 0
15, 278519, Note_on_c, 12, 69, 0
15, 278580, Note_on_c, 12, 69, 76
15, 278580, Note_on_c, 12, 57, 76
15, 278631, Note_on_c, 12, 69, 0
15, 278631, Note_on_c, 12, 57, 0
15, 278640, Note_on_c, 12, 57, 76
15, 278640, Note_on_c, 12, 69, 76
15, 278744, Note_on_c, 12, 57, 0
15, 278744, Note_on_c, 12, 69, 0
15, 278760, Note_on_c, 12, 69, 76
15, 278760, Note_on_c, 12, 57, 76
15, 278999, Note_on_c, 12, 69, 0
15, 278999, Note_on_c, 12, 57, 0
15, 279120, Note_on_c, 12, 62, 84
15, 279239, Note_on_c, 12, 62, 0
15, 279300, Note_on_c, 12, 62, 84
15, 279351, Note_on_c, 12, 62, 0
15, 279360, Note_on_c, 12, 61, 84
15, 279464, Note_on_c, 12, 61, 0
15, 279480, Note_on_c, 12, 62, 84
15, 279599, Note_on_c, 12, 62, 0
15, 279660, Note_on_c, 12, 62, 84
15, 279711, Note_on_c, 12, 62, 0
15, 279720, Note_on_c, 12, 61, 84
15, 279824, Note_on_c, 12, 61, 0
15, 279840, Note_on_c, 12, 62, 84
15, 279959, Note_on_c, 12, 62, 0
15, 280020, Note_on_c, 12, 62, 84
15, 280071, Note_on_c, 12, 62, 0
15, 280080, Note_on_c, 12, 61, 84
15, 280184, Note_on_c, 12, 61, 0
15, 280200, Note_on_c, 12, 62, 84
15, 280319, Note_on_c, 12, 62, 0
15, 280380, Note_on_c, 12, 62, 84
15, 280431, Note_on_c, 12, 62, 0
15, 280440, Note_on_c, 12, 61, 84
15, 280544, Note_on_c, 12, 61, 0
15, 280560, Note_on_c, 12, 62, 84
15, 280799, Note_on_c, 12, 62, 0
15, 281280, Note_on_c, 12, 53, 84
15, 281451, Note_on_c, 12, 53, 0
15, 281460, Note_on_c, 12, 52, 84
15, 281511, Note_on_c, 12, 52, 0
15, 281520, Note_on_c, 12, 50, 84
15, 281624, Note_on_c, 12, 50, 0
15, 281640, Note_on_c, 12, 50, 84
15, 281984, Note_on_c, 12, 50, 0
15, 282000, Note_on_c, 12, 48, 84
15, 282000, Note_on_c, 12, 60, 84
15, 282119, Note_on_c, 12, 48, 0
15, 282119, Note_on_c, 12, 60, 0
15, 282180, Note_on_c, 12, 60, 84
15, 282231, Note_on_c, 12, 60, 0
15, 282240, Note_on_c, 12, 59, 84
15, 282344, Note_on_c, 12, 59, 0
15, 282360, Note_on_c, 12, 60, 84
15, 282479, Note_on_c, 12, 60, 0
15, 282540, Note_on_c, 12, 60, 84
15, 282591, Note_on_c, 12, 60, 0
15, 282600, Note_on_c, 12, 59, 84
15, 282704, Note_on_c, 12, 59, 0
15, 282720, Note_on_c, 12, 60, 84
15, 282839, Note_on_c, 12, 60, 0
15, 282900, Note_on_c, 12, 60, 84
15, 282951, Note_on_c, 12, 60, 0
15, 282960, Note_on_c, 12, 59, 84
15, 283064, Note_on_c, 12, 59, 0
15, 283080, Note_on_c, 12, 60, 84
15, 283199, Note_on_c, 12, 60, 0
15, 283260, Note_on_c, 12, 60, 84
15, 283311, Note_on_c, 12, 60, 0
15, 283320, Note_on_c, 12, 59, 84
15, 283424, Note_on_c, 12, 59, 0
15, 283440, Note_on_c, 12, 60, 84
15, 283440, Note_on_c, 12, 48, 84
15, 283679, Note_on_c, 12, 60, 0
15, 283679, Note_on_c, 12, 48, 0
15, 284160, Note_on_c, 12, 52, 84
15, 284331, Note_on_c, 12, 52, 0
15, 284340, Note_on_c, 12, 50, 84
15, 284391, Note_on_c, 12, 50, 0
15, 284400, Note_on_c, 12, 48, 84
15, 284504, Note_on_c, 12, 48, 0
15, 284520, Note_on_c, 12, 48, 84
15, 284864, Note_on_c, 12, 48, 0
15, 284880, Note_on_c, 12, 59, 84
15, 284999, Note_on_c, 12, 59, 0
15, 285060, Note_on_c, 12, 59, 84
15, 285111, Note_on_c, 12, 59, 0
15, 285120, Note_on_c, 12, 58, 84
15, 285224, Note_on_c, 12, 58, 0
15, 285240, Note_on_c, 12, 59, 84
15, 285359, Note_on_c, 12, 59, 0
15, 285420, Note_on_c, 12, 59, 84
15, 285471, Note_on_c, 12, 59, 0
15, 285480, Note_on_c, 12, 58, 84
15, 285584, Note_on_c, 12, 58, 0
15, 285600, Note_on_c, 12, 59, 84
15, 285719, Note_on_c, 12, 59, 0
15, 285780, Note_on_c, 12, 59, 84
15, 285831, Note_on_c, 12, 59, 0
15, 285840, Note_on_c, 12, 58, 84
15, 285944, Note_on_c, 12, 58, 0
15, 285960, Note_on_c, 12, 59, 84
15, 286079, Note_on_c, 12, 59, 0
15, 286140, Note_on_c, 12, 59, 84
15, 286191, Note_on_c, 12, 59, 0
15, 286200, Note_on_c, 12, 58, 84
15, 286304, Note_on_c, 12, 58, 0
15, 286320, Note_on_c, 12, 59, 84
15, 286559, Note_on_c, 12, 59, 0
15, 286860, Note_on_c, 12, 71, 84
15, 286911, Note_on_c, 12, 71, 0
15, 286920, Note_on_c, 12, 72, 84
15, 287024, Note_on_c, 12, 72, 0
15, 287040, Note_on_c, 12, 74, 84
15, 287279, Note_on_c, 12, 74, 0
15, 287580, Note_on_c, 12, 68, 84
15, 287631, Note_on_c, 12, 68, 0
15, 287640, Note_on_c, 12, 69, 84
15, 287744, Note_on_c, 12, 69, 0
15, 287760, Note_on_c, 12, 71, 84
15, 287999, Note_on_c, 12, 71, 0
15, 288300, Note_on_c, 12, 62, 84
15, 288351, Note_on_c, 12, 62, 0
15, 288360, Note_on_c, 12, 64, 84
15, 288464, Note_on_c, 12, 64, 0
15, 288480, Note_on_c, 12, 65, 84
15, 288719, Note_on_c, 12, 65, 0
15, 289020, Note_on_c, 12, 56, 84
15, 289071, Note_on_c, 12, 56, 0
15, 289080, Note_on_c, 12, 57, 84
15, 289184, Note_on_c, 12, 57, 0
15, 289200, Note_on_c, 12, 59, 84
15, 289319, Note_on_c, 12, 59, 0
15, 289380, Note_on_c, 12, 56, 84
15, 289431, Note_on_c, 12, 56, 0
15, 289440, Note_on_c, 12, 57, 84
15, 289544, Note_on_c, 12, 57, 0
15, 289560, Note_on_c, 12, 59, 84
15, 289679, Note_on_c, 12, 59, 0
15, 289740, Note_on_c, 12, 57, 84
15, 289791, Note_on_c, 12, 57, 0
15, 289800, Note_on_c, 12, 59, 84
15, 289904, Note_on_c, 12, 59, 0
15, 289920, Note_on_c, 12, 60, 84
15, 290039, Note_on_c, 12, 60, 0
15, 290100, Note_on_c, 12, 57, 84
15, 290151, Note_on_c, 12, 57, 0
15, 290160, Note_on_c, 12, 59, 84
15, 290264, Note_on_c, 12, 59, 0
15, 290280, Note_on_c, 12, 60, 84
15, 290399, Note_on_c, 12, 60, 0
15, 290460, Note_on_c, 12, 59, 84
15, 290511, Note_on_c, 12, 59, 0
15, 290520, Note_on_c, 12, 61, 84
15, 290624, Note_on_c, 12, 61, 0
15, 290640, Note_on_c, 12, 62, 84
15, 290759, Note_on_c, 12, 62, 0
15, 290820, Note_on_c, 12, 59, 84
15, 290871, Note_on_c, 12, 59, 0
15, 290880, Note_on_c, 12, 61, 84
15, 290984, Note_on_c, 12, 61, 0
15, 291000, Note_on_c, 12, 62, 84
15, 291119, Note_on_c, 12, 62, 0
15, 291180, Note_on_c, 12, 61, 84
15, 291231, Note_on_c, 12, 61, 0
15, 291240, Note_on_c, 12, 63, 84
15, 291344, Note_on_c, 12, 63, 0
15, 291360, Note_on_c, 12, 64, 84
15, 291479, Note_on_c, 12, 64, 0
15, 291540, Note_on_c, 12, 61, 84
15, 291591, Note_on_c, 12, 61, 0
15, 291600, Note_on_c, 12, 63, 84
15, 291704, Note_on_c, 12, 63, 0
15, 291720, Note_on_c, 12, 64, 84
15, 291839, Note_on_c, 12, 64, 0
15, 291900, Note_on_c, 12, 61, 84
15, 291951, Note_on_c, 12, 61, 0
15, 291960, Note_on_c, 12, 63, 84
15, 292064, Note_on_c, 12, 63, 0
15, 292080, Note_on_c, 12, 64, 84
15, 292199, Note_on_c, 12, 64, 0
15, 292260, Note_on_c, 12, 61, 84
15, 292311, Note_on_c, 12, 61, 0
15, 292320, Note_on_c, 12, 62, 84
15, 292424, Note_on_c, 12, 62, 0
15, 292440, Note_on_c, 12, 64, 84
15, 292559, Note_on_c, 12, 64, 0
15, 292620, Note_on_c, 12, 61, 84
15, 292671, Note_on_c, 12, 61, 0
15, 292680, Note_on_c, 12, 62, 84
15, 292784, Note_on_c, 12, 62, 0
15, 292800, Note_on_c, 12, 64, 84
15, 292919, Note_on_c, 12, 64, 0
15, 292980, Note_on_c, 12, 61, 84
15, 293031, Note_on_c, 12, 61, 0
15, 293040, Note_on_c, 12, 62, 84
15, 293144, Note_on_c, 12, 62, 0
15, 293160, Note_on_c, 12, 64, 84
15, 293279, Note_on_c, 12, 64, 0
15, 293340, Note_on_c, 12, 61, 84
15, 293391, Note_on_c, 12, 61, 0
15, 293400, Note_on_c, 12, 62, 84
15, 293504, Note_on_c, 12, 62, 0
15, 293520, Note_on_c, 12, 64, 84
15, 293759, Note_on_c, 12, 64, 0
15, 294600, Note_on_c, 12, 52, 88
15, 294659, Note_on_c, 12, 52, 0
15, 294660, Note_on_c, 12, 54, 88
15, 294719, Note_on_c, 12, 54, 0
15, 294720, Note_on_c, 12, 56, 88
15, 294779, Note_on_c, 12, 56, 0
15, 294780, Note_on_c, 12, 57, 88
15, 294839, Note_on_c, 12, 57, 0
15, 294840, Note_on_c, 12, 59, 88
15, 294879, Note_on_c, 12, 59, 0
15, 294880, Note_on_c, 12, 61, 88
15, 294919, Note_on_c, 12, 61, 0
15, 294920, Note_on_c, 12, 62, 88
15, 294951, Note_on_c, 12, 62, 0
15, 294960, Note_on_c, 12, 64, 88
15, 295199, Note_on_c, 12, 64, 0
15, 296040, Note_on_c, 12, 52, 88
15, 296099, Note_on_c, 12, 52, 0
15, 296100, Note_on_c, 12, 54, 88
15, 296159, Note_on_c, 12, 54, 0
15, 296160, Note_on_c, 12, 56, 88
15, 296219, Note_on_c, 12, 56, 0
15, 296220, Note_on_c, 12, 57, 88
15, 296279, Note_on_c, 12, 57, 0
15, 296280, Note_on_c, 12, 59, 88
15, 296319, Note_on_c, 12, 59, 0
15, 296320, Note_on_c, 12, 61, 88
15, 296359, Note_on_c, 12, 61, 0
15, 296360, Note_on_c, 12, 62, 88
15, 296391, Note_on_c, 12, 62, 0
15, 296400, Note_on_c, 12, 64, 84
15, 296451, Note_on_c, 12, 64, 0
15, 296460, Note_on_c, 12, 52, 84
15, 296511, Note_on_c, 12, 52, 0
15, 296520, Note_on_c, 12, 52, 84
15, 296571, Note_on_c, 12, 52, 0
15, 296580, Note_on_c, 12, 52, 84
15, 296631, Note_on_c, 12, 52, 0
15, 296640, Note_on_c, 12, 52, 84
15, 296691, Note_on_c, 12, 52, 0
15, 296700, Note_on_c, 12, 52, 84
15, 296751, Note_on_c, 12, 52, 0
15, 296760, Note_on_c, 12, 52, 84
15, 296811, Note_on_c, 12, 52, 0
15, 296820, Note_on_c, 12, 52, 84
15, 296871, Note_on_c, 12, 52, 0
15, 296880, Note_on_c, 12, 50, 84
15, 296931, Note_on_c, 12, 50, 0
15, 296940, Note_on_c, 12, 50, 84
15, 296991, Note_on_c, 12, 50, 0
15, 297000, Note_on_c, 12, 52, 84
15, 297051, Note_on_c, 12, 52, 0
15, 297060, Note_on_c, 12, 52, 84
15, 297111, Note_on_c, 12, 52, 0
15, 297120, Note_on_c, 12, 50, 84
15, 297171, Note_on_c, 12, 50, 0
15, 297180, Note_on_c, 12, 50, 84
15, 297231, Note_on_c, 12, 50, 0
15, 297240, Note_on_c, 12, 52, 84
15, 297291, Note_on_c, 12, 52, 0
15, 297300, Note_on_c, 12, 52, 84
15, 297351, Note_on_c, 12, 52, 0
15, 297360, Note_on_c, 12, 54, 84
15, 297411, Note_on_c, 12, 54, 0
15, 297420, Note_on_c, 12, 54, 84
15, 297471, Note_on_c, 12, 54, 0
15, 297480, Note_on_c, 12, 52, 84
15, 297531, Note_on_c, 12, 52, 0
15, 297540, Note_on_c, 12, 59, 84
15, 297591, Note_on_c, 12, 59, 0
15, 297600, Note_on_c, 12, 59, 84
15, 297651, Note_on_c, 12, 59, 0
15, 297660, Note_on_c, 12, 59, 84
15, 297711, Note_on_c, 12, 59, 0
15, 297720, Note_on_c, 12, 52, 84
15, 297771, Note_on_c, 12, 52, 0
15, 297780, Note_on_c, 12, 52, 84
15, 297831, Note_on_c, 12, 52, 0
15, 297840, Note_on_c, 12, 52, 84
15, 297891, Note_on_c, 12, 52, 0
15, 297900, Note_on_c, 12, 52, 84
15, 297951, Note_on_c, 12, 52, 0
15, 297960, Note_on_c, 12, 64, 84
15, 298011, Note_on_c, 12, 64, 0
15, 298020, Note_on_c, 12, 64, 84
15, 298071, Note_on_c, 12, 64, 0
15, 298080, Note_on_c, 12, 52, 84
15, 298131, Note_on_c, 12, 52, 0
15, 298140, Note_on_c, 12, 52, 84
15, 298191, Note_on_c, 12, 52, 0
15, 298200, Note_on_c, 12, 52, 84
15, 298251, Note_on_c, 12, 52, 0
15, 298260, Note_on_c, 12, 52, 84
15, 298311, Note_on_c, 12, 52, 0
15, 298320, Note_on_c, 12, 64, 84
15, 298371, Note_on_c, 12, 64, 0
15, 298380, Note_on_c, 12, 64, 84
15, 298431, Note_on_c, 12, 64, 0
15, 298440, Note_on_c, 12, 52, 84
15, 298491, Note_on_c, 12, 52, 0
15, 298500, Note_on_c, 12, 52, 84
15, 298551, Note_on_c, 12, 52, 0
15, 298560, Note_on_c, 12, 52, 84
15, 298611, Note_on_c, 12, 52, 0
15, 298620, Note_on_c, 12, 52, 84
15, 298671, Note_on_c, 12, 52, 0
15, 298680, Note_on_c, 12, 64, 84
15, 298731, Note_on_c, 12, 64, 0
15, 298740, Note_on_c, 12, 64, 84
15, 298791, Note_on_c, 12, 64, 0
15, 298800, Note_on_c, 12, 52, 84
15, 298851, Note_on_c, 12, 52, 0
15, 298860, Note_on_c, 12, 52, 84
15, 298911, Note_on_c, 12, 52, 0
15, 298920, Note_on_c, 12, 52, 84
15, 298971, Note_on_c, 12, 52, 0
15, 298980, Note_on_c, 12, 64, 84
15, 299031, Note_on_c, 12, 64, 0
15, 299040, Note_on_c, 12, 52, 84
15, 299091, Note_on_c, 12, 52, 0
15, 299100, Note_on_c, 12, 52, 84
15, 299151, Note_on_c, 12, 52, 0
15, 299160, Note_on_c, 12, 50, 84
15, 299211, Note_on_c, 12, 50, 0
15, 299220, Note_on_c, 12, 50, 84
15, 299271, Note_on_c, 12, 50, 0
15, 299280, Note_on_c, 12, 49, 84
15, 299331, Note_on_c, 12, 49, 0
15, 299340, Note_on_c, 12, 52, 84
15, 299391, Note_on_c, 12, 52, 0
15, 299400, Note_on_c, 12, 52, 84
15, 299451, Note_on_c, 12, 52, 0
15, 299460, Note_on_c, 12, 52, 84
15, 299511, Note_on_c, 12, 52, 0
15, 299520, Note_on_c, 12, 50, 84
15, 299571, Note_on_c, 12, 50, 0
15, 299580, Note_on_c, 12, 50, 84
15, 299631, Note_on_c, 12, 50, 0
15, 299640, Note_on_c, 12, 49, 84
15, 299691, Note_on_c, 12, 49, 0
15, 299700, Note_on_c, 12, 49, 84
15, 299751, Note_on_c, 12, 49, 0
15, 299760, Note_on_c, 12, 50, 84
15, 299811, Note_on_c, 12, 50, 0
15, 299820, Note_on_c, 12, 50, 84
15, 299871, Note_on_c, 12, 50, 0
15, 299880, Note_on_c, 12, 52, 84
15, 299931, Note_on_c, 12, 52, 0
15, 299940, Note_on_c, 12, 52, 84
15, 299991, Note_on_c, 12, 52, 0
15, 300000, Note_on_c, 12, 50, 84
15, 300051, Note_on_c, 12, 50, 0
15, 300060, Note_on_c, 12, 50, 84
15, 300111, Note_on_c, 12, 50, 0
15, 300120, Note_on_c, 12, 52, 84
15, 300171, Note_on_c, 12, 52, 0
15, 300180, Note_on_c, 12, 52, 84
15, 300231, Note_on_c, 12, 52, 0
15, 300240, Note_on_c, 12, 54, 84
15, 300291, Note_on_c, 12, 54, 0
15, 300300, Note_on_c, 12, 54, 84
15, 300351, Note_on_c, 12, 54, 0
15, 300360, Note_on_c, 12, 52, 84
15, 300411, Note_on_c, 12, 52, 0
15, 300420, Note_on_c, 12, 52, 84
15, 300471, Note_on_c, 12, 52, 0
15, 300480, Note_on_c, 12, 59, 84
15, 300531, Note_on_c, 12, 59, 0
15, 300540, Note_on_c, 12, 59, 84
15, 300591, Note_on_c, 12, 59, 0
15, 300600, Note_on_c, 12, 52, 84
15, 300651, Note_on_c, 12, 52, 0
15, 300660, Note_on_c, 12, 52, 84
15, 300711, Note_on_c, 12, 52, 0
15, 300720, Note_on_c, 12, 52, 84
15, 300771, Note_on_c, 12, 52, 0
15, 300780, Note_on_c, 12, 52, 84
15, 300831, Note_on_c, 12, 52, 0
15, 300840, Note_on_c, 12, 50, 84
15, 300891, Note_on_c, 12, 50, 0
15, 300900, Note_on_c, 12, 50, 84
15, 300951, Note_on_c, 12, 50, 0
15, 300960, Note_on_c, 12, 49, 84
15, 301011, Note_on_c, 12, 49, 0
15, 301020, Note_on_c, 12, 49, 84
15, 301071, Note_on_c, 12, 49, 0
15, 301080, Note_on_c, 12, 49, 84
15, 301131, Note_on_c, 12, 49, 0
15, 301140, Note_on_c, 12, 49, 84
15, 301191, Note_on_c, 12, 49, 0
15, 301200, Note_on_c, 12, 52, 84
15, 301251, Note_on_c, 12, 52, 0
15, 301260, Note_on_c, 12, 52, 84
15, 301311, Note_on_c, 12, 52, 0
15, 301320, Note_on_c, 12, 50, 84
15, 301371, Note_on_c, 12, 50, 0
15, 301380, Note_on_c, 12, 50, 84
15, 301431, Note_on_c, 12, 50, 0
15, 301440, Note_on_c, 12, 49, 84
15, 301491, Note_on_c, 12, 49, 0
15, 301500, Note_on_c, 12, 49, 84
15, 301551, Note_on_c, 12, 49, 0
15, 301560, Note_on_c, 12, 52, 84
15, 301611, Note_on_c, 12, 52, 0
15, 301620, Note_on_c, 12, 52, 84
15, 301671, Note_on_c, 12, 52, 0
15, 301680, Note_on_c, 12, 57, 84
15, 301731, Note_on_c, 12, 57, 0
15, 301740, Note_on_c, 12, 57, 84
15, 301791, Note_on_c, 12, 57, 0
15, 301800, Note_on_c, 12, 57, 84
15, 301851, Note_on_c, 12, 57, 0
15, 301860, Note_on_c, 12, 57, 84
15, 301911, Note_on_c, 12, 57, 0
15, 301920, Note_on_c, 12, 61, 84
15, 301971, Note_on_c, 12, 61, 0
15, 301980, Note_on_c, 12, 61, 84
15, 302031, Note_on_c, 12, 61, 0
15, 302040, Note_on_c, 12, 57, 84
15, 302091, Note_on_c, 12, 57, 0
15, 302100, Note_on_c, 12, 57, 84
15, 302151, Note_on_c, 12, 57, 0
15, 302160, Note_on_c, 12, 57, 84
15, 302211, Note_on_c, 12, 57, 0
15, 302220, Note_on_c, 12, 62, 84
15, 302271, Note_on_c, 12, 62, 0
15, 302280, Note_on_c, 12, 62, 84
15, 302331, Note_on_c, 12, 62, 0
15, 302340, Note_on_c, 12, 62, 84
15, 302391, Note_on_c, 12, 62, 0
15, 302400, Note_on_c, 12, 62, 84
15, 302451, Note_on_c, 12, 62, 0
15, 302460, Note_on_c, 12, 62, 84
15, 302511, Note_on_c, 12, 62, 0
15, 302520, Note_on_c, 12, 57, 84
15, 302571, Note_on_c, 12, 57, 0
15, 302580, Note_on_c, 12, 62, 84
15, 302631, Note_on_c, 12, 62, 0
15, 302640, Note_on_c, 12, 62, 84
15, 302691, Note_on_c, 12, 62, 0
15, 302700, Note_on_c, 12, 62, 84
15, 302751, Note_on_c, 12, 62, 0
15, 302760, Note_on_c, 12, 62, 84
15, 302811, Note_on_c, 12, 62, 0
15, 302820, Note_on_c, 12, 62, 84
15, 302871, Note_on_c, 12, 62, 0
15, 302880, Note_on_c, 12, 57, 84
15, 302931, Note_on_c, 12, 57, 0
15, 302940, Note_on_c, 12, 61, 84
15, 302991, Note_on_c, 12, 61, 0
15, 303000, Note_on_c, 12, 61, 84
15, 303051, Note_on_c, 12, 61, 0
15, 303060, Note_on_c, 12, 61, 84
15, 303111, Note_on_c, 12, 61, 0
15, 303120, Note_on_c, 12, 61, 84
15, 303171, Note_on_c, 12, 61, 0
15, 303180, Note_on_c, 12, 61, 84
15, 303231, Note_on_c, 12, 61, 0
15, 303240, Note_on_c, 12, 57, 84
15, 303291, Note_on_c, 12, 57, 0
15, 303300, Note_on_c, 12, 61, 84
15, 303351, Note_on_c, 12, 61, 0
15, 303360, Note_on_c, 12, 61, 84
15, 303411, Note_on_c, 12, 61, 0
15, 303420, Note_on_c, 12, 61, 84
15, 303471, Note_on_c, 12, 61, 0
15, 303480, Note_on_c, 12, 61, 84
15, 303531, Note_on_c, 12, 61, 0
15, 303540, Note_on_c, 12, 61, 84
15, 303591, Note_on_c, 12, 61, 0
15, 303600, Note_on_c, 12, 57, 84
15, 303651, Note_on_c, 12, 57, 0
15, 303660, Note_on_c, 12, 61, 84
15, 303711, Note_on_c, 12, 61, 0
15, 303720, Note_on_c, 12, 61, 84
15, 303771, Note_on_c, 12, 61, 0
15, 303780, Note_on_c, 12, 61, 84
15, 303831, Note_on_c, 12, 61, 0
15, 303840, Note_on_c, 12, 61, 84
15, 303891, Note_on_c, 12, 61, 0
15, 303900, Note_on_c, 12, 61, 84
15, 303951, Note_on_c, 12, 61, 0
15, 303960, Note_on_c, 12, 57, 84
15, 304011, Note_on_c, 12, 57, 0
15, 304020, Note_on_c, 12, 61, 84
15, 304071, Note_on_c, 12, 61, 0
15, 304080, Note_on_c, 12, 61, 84
15, 304131, Note_on_c, 12, 61, 0
15, 304140, Note_on_c, 12, 61, 84
15, 304191, Note_on_c, 12, 61, 0
15, 304200, Note_on_c, 12, 61, 84
15, 304251, Note_on_c, 12, 61, 0
15, 304260, Note_on_c, 12, 61, 84
15, 304311, Note_on_c, 12, 61, 0
15, 304320, Note_on_c, 12, 57, 84
15, 304371, Note_on_c, 12, 57, 0
15, 304380, Note_on_c, 12, 62, 84
15, 304431, Note_on_c, 12, 62, 0
15, 304440, Note_on_c, 12, 62, 84
15, 304491, Note_on_c, 12, 62, 0
15, 304500, Note_on_c, 12, 62, 84
15, 304551, Note_on_c, 12, 62, 0
15, 304560, Note_on_c, 12, 62, 84
15, 304611, Note_on_c, 12, 62, 0
15, 304620, Note_on_c, 12, 62, 84
15, 304671, Note_on_c, 12, 62, 0
15, 304680, Note_on_c, 12, 57, 84
15, 304731, Note_on_c, 12, 57, 0
15, 304740, Note_on_c, 12, 62, 84
15, 304791, Note_on_c, 12, 62, 0
15, 304800, Note_on_c, 12, 62, 84
15, 304851, Note_on_c, 12, 62, 0
15, 304860, Note_on_c, 12, 62, 84
15, 304911, Note_on_c, 12, 62, 0
15, 304920, Note_on_c, 12, 62, 84
15, 304971, Note_on_c, 12, 62, 0
15, 304980, Note_on_c, 12, 62, 84
15, 305031, Note_on_c, 12, 62, 0
15, 305040, Note_on_c, 12, 57, 84
15, 305091, Note_on_c, 12, 57, 0
15, 305100, Note_on_c, 12, 61, 84
15, 305151, Note_on_c, 12, 61, 0
15, 305160, Note_on_c, 12, 61, 84
15, 305211, Note_on_c, 12, 61, 0
15, 305220, Note_on_c, 12, 61, 84
15, 305271, Note_on_c, 12, 61, 0
15, 305280, Note_on_c, 12, 61, 84
15, 305331, Note_on_c, 12, 61, 0
15, 305340, Note_on_c, 12, 61, 84
15, 305391, Note_on_c, 12, 61, 0
15, 305400, Note_on_c, 12, 57, 84
15, 305451, Note_on_c, 12, 57, 0
15, 305460, Note_on_c, 12, 61, 84
15, 305511, Note_on_c, 12, 61, 0
15, 305520, Note_on_c, 12, 61, 84
15, 305571, Note_on_c, 12, 61, 0
15, 305580, Note_on_c, 12, 61, 84
15, 305631, Note_on_c, 12, 61, 0
15, 305640, Note_on_c, 12, 61, 84
15, 305691, Note_on_c, 12, 61, 0
15, 305700, Note_on_c, 12, 61, 84
15, 305751, Note_on_c, 12, 61, 0
15, 305760, Note_on_c, 12, 57, 84
15, 305811, Note_on_c, 12, 57, 0
15, 305820, Note_on_c, 12, 61, 84
15, 305871, Note_on_c, 12, 61, 0
15, 305880, Note_on_c, 12, 61, 84
15, 305931, Note_on_c, 12, 61, 0
15, 305940, Note_on_c, 12, 61, 84
15, 305991, Note_on_c, 12, 61, 0
15, 306000, Note_on_c, 12, 61, 84
15, 306051, Note_on_c, 12, 61, 0
15, 306060, Note_on_c, 12, 61, 84
15, 306111, Note_on_c, 12, 61, 0
15, 306120, Note_on_c, 12, 57, 84
15, 306171, Note_on_c, 12, 57, 0
15, 306180, Note_on_c, 12, 61, 84
15, 306231, Note_on_c, 12, 61, 0
15, 306240, Note_on_c, 12, 61, 84
15, 306291, Note_on_c, 12, 61, 0
15, 306300, Note_on_c, 12, 61, 84
15, 306351, Note_on_c, 12, 61, 0
15, 306360, Note_on_c, 12, 61, 84
15, 306411, Note_on_c, 12, 61, 0
15, 306420, Note_on_c, 12, 61, 84
15, 306471, Note_on_c, 12, 61, 0
15, 306480, Note_on_c, 12, 56, 84
15, 306531, Note_on_c, 12, 56, 0
15, 306540, Note_on_c, 12, 59, 84
15, 306591, Note_on_c, 12, 59, 0
15, 306600, Note_on_c, 12, 59, 84
15, 306651, Note_on_c, 12, 59, 0
15, 306660, Note_on_c, 12, 59, 84
15, 306711, Note_on_c, 12, 59, 0
15, 306720, Note_on_c, 12, 59, 84
15, 306771, Note_on_c, 12, 59, 0
15, 306780, Note_on_c, 12, 59, 84
15, 306831, Note_on_c, 12, 59, 0
15, 306840, Note_on_c, 12, 57, 84
15, 306891, Note_on_c, 12, 57, 0
15, 306900, Note_on_c, 12, 61, 84
15, 306951, Note_on_c, 12, 61, 0
15, 306960, Note_on_c, 12, 61, 84
15, 307011, Note_on_c, 12, 61, 0
15, 307020, Note_on_c, 12, 61, 84
15, 307071, Note_on_c, 12, 61, 0
15, 307080, Note_on_c, 12, 61, 84
15, 307131, Note_on_c, 12, 61, 0
15, 307140, Note_on_c, 12, 61, 84
15, 307191, Note_on_c, 12, 61, 0
15, 307200, Note_on_c, 12, 52, 84
15, 307251, Note_on_c, 12, 52, 0
15, 307260, Note_on_c, 12, 64, 84
15, 307311, Note_on_c, 12, 64, 0
15, 307320, Note_on_c, 12, 64, 84
15, 307371, Note_on_c, 12, 64, 0
15, 307380, Note_on_c, 12, 64, 84
15, 307431, Note_on_c, 12, 64, 0
15, 307440, Note_on_c, 12, 64, 84
15, 307491, Note_on_c, 12, 64, 0
15, 307500, Note_on_c, 12, 64, 84
15, 307551, Note_on_c, 12, 64, 0
15, 307560, Note_on_c, 12, 64, 84
15, 307611, Note_on_c, 12, 64, 0
15, 307620, Note_on_c, 12, 64, 84
15, 307671, Note_on_c, 12, 64, 0
15, 307680, Note_on_c, 12, 64, 84
15, 307731, Note_on_c, 12, 64, 0
15, 307740, Note_on_c, 12, 64, 84
15, 307791, Note_on_c, 12, 64, 0
15, 307800, Note_on_c, 12, 64, 84
15, 307851, Note_on_c, 12, 64, 0
15, 307860, Note_on_c, 12, 64, 84
15, 307911, Note_on_c, 12, 64, 0
15, 307920, Note_on_c, 12, 56, 84
15, 307971, Note_on_c, 12, 56, 0
15, 307980, Note_on_c, 12, 59, 84
15, 308031, Note_on_c, 12, 59, 0
15, 308040, Note_on_c, 12, 59, 84
15, 308091, Note_on_c, 12, 59, 0
15, 308100, Note_on_c, 12, 59, 84
15, 308151, Note_on_c, 12, 59, 0
15, 308160, Note_on_c, 12, 59, 84
15, 308211, Note_on_c, 12, 59, 0
15, 308220, Note_on_c, 12, 59, 84
15, 308271, Note_on_c, 12, 59, 0
15, 308280, Note_on_c, 12, 57, 84
15, 308331, Note_on_c, 12, 57, 0
15, 308340, Note_on_c, 12, 61, 84
15, 308391, Note_on_c, 12, 61, 0
15, 308400, Note_on_c, 12, 61, 84
15, 308451, Note_on_c, 12, 61, 0
15, 308460, Note_on_c, 12, 61, 84
15, 308511, Note_on_c, 12, 61, 0
15, 308520, Note_on_c, 12, 61, 84
15, 308571, Note_on_c, 12, 61, 0
15, 308580, Note_on_c, 12, 61, 84
15, 308631, Note_on_c, 12, 61, 0
15, 308640, Note_on_c, 12, 52, 84
15, 308691, Note_on_c, 12, 52, 0
15, 308700, Note_on_c, 12, 64, 84
15, 308751, Note_on_c, 12, 64, 0
15, 308760, Note_on_c, 12, 64, 84
15, 308811, Note_on_c, 12, 64, 0
15, 308820, Note_on_c, 12, 64, 84
15, 308871, Note_on_c, 12, 64, 0
15, 308880, Note_on_c, 12, 64, 84
15, 308931, Note_on_c, 12, 64, 0
15, 308940, Note_on_c, 12, 64, 84
15, 308991, Note_on_c, 12, 64, 0
15, 309000, Note_on_c, 12, 64, 84
15, 309051, Note_on_c, 12, 64, 0
15, 309060, Note_on_c, 12, 64, 84
15, 309111, Note_on_c, 12, 64, 0
15, 309120, Note_on_c, 12, 64, 84
15, 309171, Note_on_c, 12, 64, 0
15, 309180, Note_on_c, 12, 64, 84
15, 309231, Note_on_c, 12, 64, 0
15, 309240, Note_on_c, 12, 64, 84
15, 309291, Note_on_c, 12, 64, 0
15, 309300, Note_on_c, 12, 64, 84
15, 309351, Note_on_c, 12, 64, 0
15, 309360, Note_on_c, 12, 52, 84
15, 309411, Note_on_c, 12, 52, 0
15, 309420, Note_on_c, 12, 64, 84
15, 309471, Note_on_c, 12, 64, 0
15, 309480, Note_on_c, 12, 64, 84
15, 309531, Note_on_c, 12, 64, 0
15, 309540, Note_on_c, 12, 64, 84
15, 309591, Note_on_c, 12, 64, 0
15, 309600, Note_on_c, 12, 64, 84
15, 309651, Note_on_c, 12, 64, 0
15, 309660, Note_on_c, 12, 64, 84
15, 309711, Note_on_c, 12, 64, 0
15, 309720, Note_on_c, 12, 64, 84
15, 309771, Note_on_c, 12, 64, 0
15, 309780, Note_on_c, 12, 64, 84
15, 309831, Note_on_c, 12, 64, 0
15, 309840, Note_on_c, 12, 64, 84
15, 309891, Note_on_c, 12, 64, 0
15, 309900, Note_on_c, 12, 64, 84
15, 309951, Note_on_c, 12, 64, 0
15, 309960, Note_on_c, 12, 64, 84
15, 310011, Note_on_c, 12, 64, 0
15, 310020, Note_on_c, 12, 64, 84
15, 310071, Note_on_c, 12, 64, 0
15, 310080, Note_on_c, 12, 52, 84
15, 310131, Note_on_c, 12, 52, 0
15, 310140, Note_on_c, 12, 56, 84
15, 310191, Note_on_c, 12, 56, 0
15, 310200, Note_on_c, 12, 56, 84
15, 310251, Note_on_c, 12, 56, 0
15, 310260, Note_on_c, 12, 56, 84
15, 310311, Note_on_c, 12, 56, 0
15, 310320, Note_on_c, 12, 56, 84
15, 310371, Note_on_c, 12, 56, 0
15, 310380, Note_on_c, 12, 56, 84
15, 310431, Note_on_c, 12, 56, 0
15, 310440, Note_on_c, 12, 56, 84
15, 310491, Note_on_c, 12, 56, 0
15, 310500, Note_on_c, 12, 59, 84
15, 310551, Note_on_c, 12, 59, 0
15, 310560, Note_on_c, 12, 59, 84
15, 310611, Note_on_c, 12, 59, 0
15, 310620, Note_on_c, 12, 59, 84
15, 310671, Note_on_c, 12, 59, 0
15, 310680, Note_on_c, 12, 59, 84
15, 310731, Note_on_c, 12, 59, 0
15, 310740, Note_on_c, 12, 59, 84
15, 310791, Note_on_c, 12, 59, 0
15, 310800, Note_on_c, 12, 59, 84
15, 310851, Note_on_c, 12, 59, 0
15, 310860, Note_on_c, 12, 62, 84
15, 310911, Note_on_c, 12, 62, 0
15, 310920, Note_on_c, 12, 62, 84
15, 310971, Note_on_c, 12, 62, 0
15, 310980, Note_on_c, 12, 71, 84
15, 311031, Note_on_c, 12, 71, 0
15, 311040, Note_on_c, 12, 71, 84
15, 311091, Note_on_c, 12, 71, 0
15, 311100, Note_on_c, 12, 71, 84
15, 311151, Note_on_c, 12, 71, 0
15, 311160, Note_on_c, 12, 71, 84
15, 311211, Note_on_c, 12, 71, 0
15, 311220, Note_on_c, 12, 71, 84
15, 311271, Note_on_c, 12, 71, 0
15, 311280, Note_on_c, 12, 71, 84
15, 311331, Note_on_c, 12, 71, 0
15, 311340, Note_on_c, 12, 71, 84
15, 311391, Note_on_c, 12, 71, 0
15, 311400, Note_on_c, 12, 71, 84
15, 311451, Note_on_c, 12, 71, 0
15, 311460, Note_on_c, 12, 71, 84
15, 311511, Note_on_c, 12, 71, 0
15, 311520, Note_on_c, 12, 71, 84
15, 311879, Note_on_c, 12, 71, 0
15, 312120, Program_c, 12, 45
15, 312240, Note_on_c, 12, 57, 60
15, 312479, Note_on_c, 12, 57, 0
15, 312840, Program_c, 12, 48
15, 312960, Note_on_c, 12, 50, 52
15, 312960, Note_on_c, 12, 54, 52
15, 313664, Note_on_c, 12, 50, 0
15, 313664, Note_on_c, 12, 54, 0
15, 313680, Note_on_c, 12, 52, 52
15, 313680, Note_on_c, 12, 55, 52
15, 314384, Note_on_c, 12, 52, 0
15, 314384, Note_on_c, 12, 55, 0
15, 314400, Note_on_c, 12, 54, 52
15, 314400, Note_on_c, 12, 50, 52
15, 315104, Note_on_c, 12, 54, 0
15, 315104, Note_on_c, 12, 50, 0
15, 315120, Note_on_c, 12, 55, 52
15, 315120, Note_on_c, 12, 52, 52
15, 315824, Note_on_c, 12, 55, 0
15, 315824, Note_on_c, 12, 52, 0
15, 315840, Note_on_c, 12, 50, 52
15, 315840, Note_on_c, 12, 53, 52
15, 316544, Note_on_c, 12, 50, 0
15, 316544, Note_on_c, 12, 53, 0
15, 316560, Note_on_c, 12, 55, 52
15, 316560, Note_on_c, 12, 52, 52
15, 317264, Note_on_c, 12, 55, 0
15, 317264, Note_on_c, 12, 52, 0
15, 317280, Note_on_c, 12, 50, 52
15, 317280, Note_on_c, 12, 53, 52
15, 317864, Note_on_c, 12, 50, 0
15, 317864, Note_on_c, 12, 53, 0
15, 317880, Note_on_c, 12, 52, 52
15, 317880, Note_on_c, 12, 55, 52
15, 317984, Note_on_c, 12, 52, 0
15, 317984, Note_on_c, 12, 55, 0
15, 318000, Note_on_c, 12, 50, 52
15, 318000, Note_on_c, 12, 53, 52
15, 318171, Note_on_c, 12, 50, 0
15, 318171, Note_on_c, 12, 53, 0
15, 318180, Note_on_c, 12, 55, 52
15, 318180, Note_on_c, 12, 52, 52
15, 318231, Note_on_c, 12, 55, 0
15, 318231, Note_on_c, 12, 52, 0
15, 318240, Note_on_c, 12, 53, 52
15, 318240, Note_on_c, 12, 57, 52
15, 318344, Note_on_c, 12, 53, 0
15, 318344, Note_on_c, 12, 57, 0
15, 318360, Note_on_c, 12, 55, 52
15, 318360, Note_on_c, 12, 58, 52
15, 318531, Note_on_c, 12, 55, 0
15, 318531, Note_on_c, 12, 58, 0
15, 318540, Note_on_c, 12, 58, 52
15, 318540, Note_on_c, 12, 55, 52
15, 318591, Note_on_c, 12, 58, 0
15, 318591, Note_on_c, 12, 55, 0
15, 318600, Note_on_c, 12, 55, 52
15, 318600, Note_on_c, 12, 58, 52
15, 318704, Note_on_c, 12, 55, 0
15, 318704, Note_on_c, 12, 58, 0
15, 318720, Note_on_c, 12, 58, 44
15, 318720, Note_on_c, 12, 55, 44
15, 319439, Note_on_c, 12, 58, 0
15, 319439, Note_on_c, 12, 55, 0
15, 319440, Note_on_c, 12, 53, 44
15, 319440, Note_on_c, 12, 57, 44
15, 320159, Note_on_c, 12, 53, 0
15, 320159, Note_on_c, 12, 57, 0
15, 320160, Note_on_c, 12, 62, 44
15, 320160, Note_on_c, 12, 58, 44
15, 320879, Note_on_c, 12, 62, 0
15, 320879, Note_on_c, 12, 58, 0
15, 320880, Note_on_c, 12, 60, 44
15, 320880, Note_on_c, 12, 57, 44
15, 321599, Note_on_c, 12, 60, 0
15, 321599, Note_on_c, 12, 57, 0
15, 321600, Note_on_c, 12, 62, 44
15, 321600, Note_on_c, 12, 65, 44
15, 322304, Note_on_c, 12, 62, 0
15, 322304, Note_on_c, 12, 65, 0
15, 322320, Note_on_c, 12, 60, 44
15, 322320, Note_on_c, 12, 64, 44
15, 323039, Note_on_c, 12, 60, 0
15, 323039, Note_on_c, 12, 64, 0
15, 323040, Note_on_c, 12, 64, 44
15, 323040, Note_on_c, 12, 60, 44
15, 323744, Note_on_c, 12, 64, 0
15, 323744, Note_on_c, 12, 60, 0
15, 323760, Note_on_c, 12, 62, 44
15, 323760, Note_on_c, 12, 65, 44
15, 324464, Note_on_c, 12, 62, 0
15, 324464, Note_on_c, 12, 65, 0
15, 324480, Note_on_c, 12, 65, 44
15, 324480, Note_on_c, 12, 62, 44
15, 325184, Note_on_c, 12, 65, 0
15, 325184, Note_on_c, 12, 62, 0
15, 325200, Note_on_c, 12, 60, 44
15, 325200, Note_on_c, 12, 64, 44
15, 325784, Note_on_c, 12, 60, 0
15, 325784, Note_on_c, 12, 64, 0
15, 325800, Note_on_c, 12, 60, 44
15, 325800, Note_on_c, 12, 64, 44
15, 325904, Note_on_c, 12, 60, 0
15, 325904, Note_on_c, 12, 64, 0
15, 325920, Note_on_c, 12, 62, 44
15, 325920, Note_on_c, 12, 65, 44
15, 326039, Note_on_c, 12, 62, 0
15, 326039, Note_on_c, 12, 65, 0
15, 326040, Note_on_c, 12, 64, 45
15, 326040, Note_on_c, 12, 60, 45
15, 326144, Note_on_c, 12, 64, 0
15, 326144, Note_on_c, 12, 60, 0
15, 326160, Note_on_c, 12, 57, 47
15, 326160, Note_on_c, 12, 60, 47
15, 326249, Note_on_c, 12, 57, 0
15, 326249, Note_on_c, 12, 60, 0
15, 326280, Note_on_c, 12, 62, 49
15, 326280, Note_on_c, 12, 65, 49
15, 326399, Note_on_c, 12, 62, 0
15, 326399, Note_on_c, 12, 65, 0
15, 326400, Note_on_c, 12, 60, 50
15, 326400, Note_on_c, 12, 64, 50
15, 326504, Note_on_c, 12, 60, 0
15, 326504, Note_on_c, 12, 64, 0
15, 326520, Note_on_c, 12, 60, 52
15, 326520, Note_on_c, 12, 57, 52
15, 326609, Note_on_c, 12, 60, 0
15, 326609, Note_on_c, 12, 57, 0
15, 326640, Note_on_c, 12, 67, 54
15, 326640, Note_on_c, 12, 64, 54
15, 326759, Note_on_c, 12, 67, 0
15, 326759, Note_on_c, 12, 64, 0
15, 326760, Note_on_c, 12, 62, 55
15, 326760, Note_on_c, 12, 65, 55
15, 326864, Note_on_c, 12, 62, 0
15, 326864, Note_on_c, 12, 65, 0
15, 326880, Note_on_c, 12, 57, 57
15, 326880, Note_on_c, 12, 62, 57
15, 326969, Note_on_c, 12, 57, 0
15, 326969, Note_on_c, 12, 62, 0
15, 327000, Note_on_c, 12, 67, 59
15, 327000, Note_on_c, 12, 64, 59
15, 327119, Note_on_c, 12, 67, 0
15, 327119, Note_on_c, 12, 64, 0
15, 327120, Note_on_c, 12, 65, 60
15, 327120, Note_on_c, 12, 62, 60
15, 327224, Note_on_c, 12, 65, 0
15, 327224, Note_on_c, 12, 62, 0
15, 327240, Note_on_c, 12, 57, 62
15, 327240, Note_on_c, 12, 62, 62
15, 327329, Note_on_c, 12, 57, 0
15, 327329, Note_on_c, 12, 62, 0
15, 327360, Note_on_c, 12, 59, 64
15, 327360, Note_on_c, 12, 62, 64
15, 327479, Note_on_c, 12, 59, 0
15, 327479, Note_on_c, 12, 62, 0
15, 327480, Note_on_c, 12, 62, 65
15, 327480, Note_on_c, 12, 64, 65
15, 327584, Note_on_c, 12, 62, 0
15, 327584, Note_on_c, 12, 64, 0
15, 327600, Note_on_c, 12, 62, 67
15, 327600, Note_on_c, 12, 64, 67
15, 327689, Note_on_c, 12, 62, 0
15, 327689, Note_on_c, 12, 64, 0
15, 327720, Note_on_c, 12, 59, 69
15, 327720, Note_on_c, 12, 62, 69
15, 327839, Note_on_c, 12, 59, 0
15, 327839, Note_on_c, 12, 62, 0
15, 327840, Note_on_c, 12, 64, 70
15, 327840, Note_on_c, 12, 62, 70
15, 327944, Note_on_c, 12, 64, 0
15, 327944, Note_on_c, 12, 62, 0
15, 327960, Note_on_c, 12, 64, 72
15, 327960, Note_on_c, 12, 62, 72
15, 328049, Note_on_c, 12, 64, 0
15, 328049, Note_on_c, 12, 62, 0
15, 328080, Note_on_c, 12, 60, 74
15, 328080, Note_on_c, 12, 57, 74
15, 328199, Note_on_c, 12, 60, 0
15, 328199, Note_on_c, 12, 57, 0
15, 328200, Note_on_c, 12, 64, 75
15, 328200, Note_on_c, 12, 60, 75
15, 328304, Note_on_c, 12, 64, 0
15, 328304, Note_on_c, 12, 60, 0
15, 328320, Note_on_c, 12, 60, 77
15, 328320, Note_on_c, 12, 64, 77
15, 328409, Note_on_c, 12, 60, 0
15, 328409, Note_on_c, 12, 64, 0
15, 328440, Note_on_c, 12, 57, 79
15, 328440, Note_on_c, 12, 60, 79
15, 328559, Note_on_c, 12, 57, 0
15, 328559, Note_on_c, 12, 60, 0
15, 328560, Note_on_c, 12, 60, 80
15, 328560, Note_on_c, 12, 64, 80
15, 328664, Note_on_c, 12, 60, 0
15, 328664, Note_on_c, 12, 64, 0
15, 328680, Note_on_c, 12, 64, 82
15, 328680, Note_on_c, 12, 60, 82
15, 328769, Note_on_c, 12, 64, 0
15, 328769, Note_on_c, 12, 60, 0
15, 328800, Note_on_c, 12, 66, 84
15, 328851, Note_on_c, 12, 66, 0
15, 328860, Note_on_c, 12, 66, 84
15, 328911, Note_on_c, 12, 66, 0
15, 328920, Note_on_c, 12, 66, 84
15, 328971, Note_on_c, 12, 66, 0
15, 328980, Note_on_c, 12, 66, 84
15, 329031, Note_on_c, 12, 66, 0
15, 329040, Note_on_c, 12, 66, 84
15, 329091, Note_on_c, 12, 66, 0
15, 329100, Note_on_c, 12, 66, 84
15, 329151, Note_on_c, 12, 66, 0
15, 329160, Note_on_c, 12, 66, 84
15, 329211, Note_on_c, 12, 66, 0
15, 329220, Note_on_c, 12, 66, 84
15, 329271, Note_on_c, 12, 66, 0
15, 329280, Note_on_c, 12, 66, 84
15, 329331, Note_on_c, 12, 66, 0
15, 329340, Note_on_c, 12, 66, 84
15, 329391, Note_on_c, 12, 66, 0
15, 329400, Note_on_c, 12, 66, 84
15, 329451, Note_on_c, 12, 66, 0
15, 329460, Note_on_c, 12, 66, 84
15, 329511, Note_on_c, 12, 66, 0
15, 329520, Note_on_c, 12, 67, 84
15, 329571, Note_on_c, 12, 67, 0
15, 329580, Note_on_c, 12, 67, 84
15, 329631, Note_on_c, 12, 67, 0
15, 329640, Note_on_c, 12, 67, 84
15, 329691, Note_on_c, 12, 67, 0
15, 329700, Note_on_c, 12, 67, 84
15, 329751, Note_on_c, 12, 67, 0
15, 329760, Note_on_c, 12, 67, 84
15, 329811, Note_on_c, 12, 67, 0
15, 329820, Note_on_c, 12, 67, 84
15, 329871, Note_on_c, 12, 67, 0
15, 329880, Note_on_c, 12, 67, 84
15, 329931, Note_on_c, 12, 67, 0
15, 329940, Note_on_c, 12, 55, 84
15, 329991, Note_on_c, 12, 55, 0
15, 330000, Note_on_c, 12, 55, 84
15, 330051, Note_on_c, 12, 55, 0
15, 330060, Note_on_c, 12, 55, 84
15, 330111, Note_on_c, 12, 55, 0
15, 330120, Note_on_c, 12, 55, 84
15, 330171, Note_on_c, 12, 55, 0
15, 330180, Note_on_c, 12, 55, 84
15, 330231, Note_on_c, 12, 55, 0
15, 330240, Note_on_c, 12, 53, 84
15, 330291, Note_on_c, 12, 53, 0
15, 330300, Note_on_c, 12, 57, 84
15, 330351, Note_on_c, 12, 57, 0
15, 330360, Note_on_c, 12, 57, 84
15, 330411, Note_on_c, 12, 57, 0
15, 330420, Note_on_c, 12, 57, 84
15, 330471, Note_on_c, 12, 57, 0
15, 330480, Note_on_c, 12, 57, 84
15, 330531, Note_on_c, 12, 57, 0
15, 330540, Note_on_c, 12, 57, 84
15, 330591, Note_on_c, 12, 57, 0
15, 330600, Note_on_c, 12, 57, 84
15, 330651, Note_on_c, 12, 57, 0
15, 330660, Note_on_c, 12, 57, 84
15, 330711, Note_on_c, 12, 57, 0
15, 330720, Note_on_c, 12, 57, 84
15, 330771, Note_on_c, 12, 57, 0
15, 330780, Note_on_c, 12, 57, 84
15, 330831, Note_on_c, 12, 57, 0
15, 330840, Note_on_c, 12, 57, 84
15, 330891, Note_on_c, 12, 57, 0
15, 330900, Note_on_c, 12, 57, 84
15, 330951, Note_on_c, 12, 57, 0
15, 330960, Note_on_c, 12, 59, 52
15, 331079, Note_on_c, 12, 59, 0
15, 331200, Note_on_c, 12, 52, 52
15, 331200, Note_on_c, 12, 56, 52
15, 331319, Note_on_c, 12, 52, 0
15, 331319, Note_on_c, 12, 56, 0
15, 331560, Note_on_c, 12, 52, 52
15, 331560, Note_on_c, 12, 56, 52
15, 331679, Note_on_c, 12, 52, 0
15, 331679, Note_on_c, 12, 56, 0
15, 331920, Note_on_c, 12, 52, 52
15, 331920, Note_on_c, 12, 57, 52
15, 332039, Note_on_c, 12, 52, 0
15, 332039, Note_on_c, 12, 57, 0
15, 332280, Note_on_c, 12, 57, 52
15, 332280, Note_on_c, 12, 52, 52
15, 332399, Note_on_c, 12, 57, 0
15, 332399, Note_on_c, 12, 52, 0
15, 332640, Note_on_c, 12, 56, 52
15, 332640, Note_on_c, 12, 52, 52
15, 332759, Note_on_c, 12, 56, 0
15, 332759, Note_on_c, 12, 52, 0
15, 333000, Note_on_c, 12, 56, 52
15, 333000, Note_on_c, 12, 52, 52
15, 333119, Note_on_c, 12, 56, 0
15, 333119, Note_on_c, 12, 52, 0
15, 333360, Note_on_c, 12, 52, 52
15, 333360, Note_on_c, 12, 57, 52
15, 333479, Note_on_c, 12, 52, 0
15, 333479, Note_on_c, 12, 57, 0
15, 333720, Note_on_c, 12, 57, 52
15, 333720, Note_on_c, 12, 52, 52
15, 333839, Note_on_c, 12, 57, 0
15, 333839, Note_on_c, 12, 52, 0
15, 334080, Note_on_c, 12, 52, 60
15, 334080, Note_on_c, 12, 56, 60
15, 334199, Note_on_c, 12, 52, 0
15, 334199, Note_on_c, 12, 56, 0
15, 334440, Note_on_c, 12, 52, 72
15, 334440, Note_on_c, 12, 56, 72
15, 334544, Note_on_c, 12, 52, 0
15, 334544, Note_on_c, 12, 56, 0
15, 334560, Note_on_c, 12, 57, 76
15, 334611, Note_on_c, 12, 57, 0
15, 334620, Note_on_c, 12, 57, 76
15, 334671, Note_on_c, 12, 57, 0
15, 334680, Note_on_c, 12, 57, 76
15, 334731, Note_on_c, 12, 57, 0
15, 334740, Note_on_c, 12, 57, 76
15, 334791, Note_on_c, 12, 57, 0
15, 334800, Note_on_c, 12, 57, 76
15, 334851, Note_on_c, 12, 57, 0
15, 334860, Note_on_c, 12, 57, 76
15, 334911, Note_on_c, 12, 57, 0
15, 334920, Note_on_c, 12, 57, 76
15, 334971, Note_on_c, 12, 57, 0
15, 334980, Note_on_c, 12, 57, 76
15, 335031, Note_on_c, 12, 57, 0
15, 335040, Note_on_c, 12, 57, 76
15, 335091, Note_on_c, 12, 57, 0
15, 335100, Note_on_c, 12, 57, 76
15, 335151, Note_on_c, 12, 57, 0
15, 335160, Note_on_c, 12, 57, 76
15, 335211, Note_on_c, 12, 57, 0
15, 335220, Note_on_c, 12, 57, 76
15, 335271, Note_on_c, 12, 57, 0
15, 335280, Note_on_c, 12, 56, 76
15, 335384, Note_on_c, 12, 56, 0
15, 335400, Note_on_c, 12, 71, 76
15, 335459, Note_on_c, 12, 71, 0
15, 335460, Note_on_c, 12, 69, 76
15, 335519, Note_on_c, 12, 69, 0
15, 335520, Note_on_c, 12, 68, 76
15, 335579, Note_on_c, 12, 68, 0
15, 335580, Note_on_c, 12, 66, 76
15, 335639, Note_on_c, 12, 66, 0
15, 335640, Note_on_c, 12, 64, 76
15, 335699, Note_on_c, 12, 64, 0
15, 335700, Note_on_c, 12, 63, 76
15, 335759, Note_on_c, 12, 63, 0
15, 335760, Note_on_c, 12, 64, 76
15, 335819, Note_on_c, 12, 64, 0
15, 335820, Note_on_c, 12, 62, 76
15, 335879, Note_on_c, 12, 62, 0
15, 335880, Note_on_c, 12, 61, 76
15, 335939, Note_on_c, 12, 61, 0
15, 335940, Note_on_c, 12, 59, 76
15, 335991, Note_on_c, 12, 59, 0
15, 336000, Note_on_c, 12, 57, 76
15, 336051, Note_on_c, 12, 57, 0
15, 336060, Note_on_c, 12, 54, 76
15, 336111, Note_on_c, 12, 54, 0
15, 336120, Note_on_c, 12, 54, 76
15, 336171, Note_on_c, 12, 54, 0
15, 336180, Note_on_c, 12, 54, 76
15, 336231, Note_on_c, 12, 54, 0
15, 336240, Note_on_c, 12, 54, 76
15, 336291, Note_on_c, 12, 54, 0
15, 336300, Note_on_c, 12, 54, 76
15, 336351, Note_on_c, 12, 54, 0
15, 336360, Note_on_c, 12, 54, 76
15, 336411, Note_on_c, 12, 54, 0
15, 336420, Note_on_c, 12, 54, 76
15, 336471, Note_on_c, 12, 54, 0
15, 336480, Note_on_c, 12, 54, 76
15, 336531, Note_on_c, 12, 54, 0
15, 336540, Note_on_c, 12, 54, 76
15, 336591, Note_on_c, 12, 54, 0
15, 336600, Note_on_c, 12, 54, 76
15, 336651, Note_on_c, 12, 54, 0
15, 336660, Note_on_c, 12, 54, 76
15, 336711, Note_on_c, 12, 54, 0
15, 336720, Note_on_c, 12, 52, 76
15, 336824, Note_on_c, 12, 52, 0
15, 336840, Note_on_c, 12, 68, 76
15, 336899, Note_on_c, 12, 68, 0
15, 336900, Note_on_c, 12, 66, 76
15, 336959, Note_on_c, 12, 66, 0
15, 336960, Note_on_c, 12, 64, 76
15, 337019, Note_on_c, 12, 64, 0
15, 337020, Note_on_c, 12, 62, 76
15, 337079, Note_on_c, 12, 62, 0
15, 337080, Note_on_c, 12, 61, 76
15, 337139, Note_on_c, 12, 61, 0
15, 337140, Note_on_c, 12, 60, 76
15, 337199, Note_on_c, 12, 60, 0
15, 337200, Note_on_c, 12, 61, 76
15, 337259, Note_on_c, 12, 61, 0
15, 337260, Note_on_c, 12, 59, 76
15, 337319, Note_on_c, 12, 59, 0
15, 337320, Note_on_c, 12, 57, 76
15, 337379, Note_on_c, 12, 57, 0
15, 337380, Note_on_c, 12, 56, 76
15, 337431, Note_on_c, 12, 56, 0
15, 337440, Note_on_c, 12, 54, 76
15, 337491, Note_on_c, 12, 54, 0
15, 337500, Note_on_c, 12, 54, 76
15, 337551, Note_on_c, 12, 54, 0
15, 337560, Note_on_c, 12, 54, 76
15, 337611, Note_on_c, 12, 54, 0
15, 337620, Note_on_c, 12, 54, 76
15, 337671, Note_on_c, 12, 54, 0
15, 337680, Note_on_c, 12, 54, 76
15, 337731, Note_on_c, 12, 54, 0
15, 337740, Note_on_c, 12, 54, 76
15, 337791, Note_on_c, 12, 54, 0
15, 337800, Note_on_c, 12, 54, 76
15, 337851, Note_on_c, 12, 54, 0
15, 337860, Note_on_c, 12, 59, 76
15, 337911, Note_on_c, 12, 59, 0
15, 337920, Note_on_c, 12, 59, 76
15, 337971, Note_on_c, 12, 59, 0
15, 337980, Note_on_c, 12, 59, 76
15, 338031, Note_on_c, 12, 59, 0
15, 338040, Note_on_c, 12, 59, 76
15, 338091, Note_on_c, 12, 59, 0
15, 338100, Note_on_c, 12, 59, 76
15, 338151, Note_on_c, 12, 59, 0
15, 338160, Note_on_c, 12, 59, 76
15, 338399, Note_on_c, 12, 59, 0
15, 338520, Note_on_c, 12, 71, 76
15, 338520, Note_on_c, 12, 64, 76
15, 338759, Note_on_c, 12, 71, 0
15, 338759, Note_on_c, 12, 64, 0
15, 338880, Note_on_c, 12, 64, 76
15, 338880, Note_on_c, 12, 69, 76
15, 339119, Note_on_c, 12, 64, 0
15, 339119, Note_on_c, 12, 69, 0
15, 339240, Note_on_c, 12, 64, 76
15, 339240, Note_on_c, 12, 61, 76
15, 339479, Note_on_c, 12, 64, 0
15, 339479, Note_on_c, 12, 61, 0
15, 339600, Note_on_c, 12, 64, 76
15, 339600, Note_on_c, 12, 59, 76
15, 339839, Note_on_c, 12, 64, 0
15, 339839, Note_on_c, 12, 59, 0
15, 339960, Note_on_c, 12, 71, 76
15, 339960, Note_on_c, 12, 64, 76
15, 340199, Note_on_c, 12, 71, 0
15, 340199, Note_on_c, 12, 64, 0
15, 340320, Note_on_c, 12, 64, 76
15, 340320, Note_on_c, 12, 69, 76
15, 340559, Note_on_c, 12, 64, 0
15, 340559, Note_on_c, 12, 69, 0
15, 340680, Note_on_c, 12, 64, 76
15, 340680, Note_on_c, 12, 61, 76
15, 340919, Note_on_c, 12, 64, 0
15, 340919, Note_on_c, 12, 61, 0
15, 341040, Note_on_c, 12, 54, 84
15, 341099, Note_on_c, 12, 54, 0
15, 341100, Note_on_c, 12, 54, 76
15, 341120, Control_c, 12, 11, 122
15, 341160, Control_c, 12, 11, 119
15, 341200, Control_c, 12, 11, 117
15, 341240, Control_c, 12, 11, 114
15, 341280, Control_c, 12, 11, 111
15, 341320, Control_c, 12, 11, 109
15, 341360, Control_c, 12, 11, 106
15, 341400, Control_c, 12, 11, 104
15, 341440, Control_c, 12, 11, 101
15, 341480, Control_c, 12, 11, 98
15, 341520, Control_c, 12, 11, 96
15, 341560, Control_c, 12, 11, 93
15, 341600, Control_c, 12, 11, 90
15, 341639, Note_on_c, 12, 54, 0
15, 341640, Note_on_c, 12, 53, 76
15, 341640, Control_c, 12, 11, 88
15, 341680, Control_c, 12, 11, 85
15, 341720, Control_c, 12, 11, 80
15, 341744, Note_on_c, 12, 53, 0
15, 341760, Note_on_c, 12, 52, 76
15, 342359, Note_on_c, 12, 52, 0
15, 342360, Note_on_c, 12, 54, 76
15, 342419, Note_on_c, 12, 54, 0
15, 342420, Note_on_c, 12, 56, 76
15, 342479, Note_on_c, 12, 56, 0
15, 342480, Note_on_c, 12, 57, 76
15, 342719, Note_on_c, 12, 57, 0
15, 343200, Control_c, 12, 11, 127
15, 343920, Note_on_c, 12, 57, 48
15, 344279, Note_on_c, 12, 57, 0
15, 344280, Note_on_c, 12, 61, 48
15, 344639, Note_on_c, 12, 61, 0
15, 344640, Note_on_c, 12, 64, 48
15, 344999, Note_on_c, 12, 64, 0
15, 345000, Note_on_c, 12, 52, 48
15, 345344, Note_on_c, 12, 52, 0
15, 345360, Note_on_c, 12, 69, 84
15, 345360, Note_on_c, 12, 57, 84
15, 345704, Note_on_c, 12, 69, 0
15, 345704, Note_on_c, 12, 57, 0
15, 345720, Note_on_c, 12, 57, 84
15, 345720, Note_on_c, 12, 61, 84
15, 345891, Note_on_c, 12, 57, 0
15, 345891, Note_on_c, 12, 61, 0
15, 345900, Note_on_c, 12, 52, 84
15, 345900, Note_on_c, 12, 57, 84
15, 345951, Note_on_c, 12, 52, 0
15, 345951, Note_on_c, 12, 57, 0
15, 345960, Note_on_c, 12, 52, 84
15, 345960, Note_on_c, 12, 57, 84
15, 346064, Note_on_c, 12, 52, 0
15, 346064, Note_on_c, 12, 57, 0
15, 346080, Note_on_c, 12, 59, 84
15, 346080, Note_on_c, 12, 62, 84
15, 346251, Note_on_c, 12, 59, 0
15, 346251, Note_on_c, 12, 62, 0
15, 346260, Note_on_c, 12, 52, 84
15, 346260, Note_on_c, 12, 59, 84
15, 346311, Note_on_c, 12, 52, 0
15, 346311, Note_on_c, 12, 59, 0
15, 346320, Note_on_c, 12, 52, 84
15, 346320, Note_on_c, 12, 59, 84
15, 346424, Note_on_c, 12, 52, 0
15, 346424, Note_on_c, 12, 59, 0
15, 346440, Note_on_c, 12, 64, 84
15, 346440, Note_on_c, 12, 60, 84
15, 346611, Note_on_c, 12, 64, 0
15, 346611, Note_on_c, 12, 60, 0
15, 346620, Note_on_c, 12, 48, 84
15, 346620, Note_on_c, 12, 60, 84
15, 346671, Note_on_c, 12, 48, 0
15, 346671, Note_on_c, 12, 60, 0
15, 346680, Note_on_c, 12, 60, 84
15, 346680, Note_on_c, 12, 48, 84
15, 346784, Note_on_c, 12, 60, 0
15, 346784, Note_on_c, 12, 48, 0
15, 346800, Note_on_c, 12, 65, 84
15, 346800, Note_on_c, 12, 57, 84
15, 346971, Note_on_c, 12, 65, 0
15, 346971, Note_on_c, 12, 57, 0
15, 346980, Note_on_c, 12, 65, 84
15, 347031, Note_on_c, 12, 65, 0
15, 347040, Note_on_c, 12, 60, 84
15, 347144, Note_on_c, 12, 60, 0
15, 347160, Note_on_c, 12, 57, 84
15, 347331, Note_on_c, 12, 57, 0
15, 347340, Note_on_c, 12, 69, 84
15, 347391, Note_on_c, 12, 69, 0
15, 347400, Note_on_c, 12, 65, 84
15, 347504, Note_on_c, 12, 65, 0
15, 347520, Note_on_c, 12, 60, 84
15, 347691, Note_on_c, 12, 60, 0
15, 347700, Note_on_c, 12, 60, 84
15, 347751, Note_on_c, 12, 60, 0
15, 347760, Note_on_c, 12, 57, 84
15, 347864, Note_on_c, 12, 57, 0
15, 347880, Note_on_c, 12, 53, 84
15, 348051, Note_on_c, 12, 53, 0
15, 348060, Note_on_c, 12, 53, 84
15, 348111, Note_on_c, 12, 53, 0
15, 348120, Note_on_c, 12, 48, 84
15, 348224, Note_on_c, 12, 48, 0
15, 348240, Note_on_c, 12, 53, 84
15, 348479, Note_on_c, 12, 53, 0
15, 348780, Note_on_c, 12, 48, 82
15, 348831, Note_on_c, 12, 48, 0
15, 348840, Note_on_c, 12, 48, 80
15, 348944, Note_on_c, 12, 48, 0
15, 348960, Note_on_c, 12, 53, 76
15, 349199, Note_on_c, 12, 53, 0
15, 349500, Note_on_c, 12, 48, 58
15, 349551, Note_on_c, 12, 48, 0
15, 349560, Note_on_c, 12, 48, 56
15, 349664, Note_on_c, 12, 48, 0
15, 349680, Note_on_c, 12, 53, 52
15, 349919, Note_on_c, 12, 53, 0
15, 350400, Note_on_c, 12, 53, 44
15, 350639, Note_on_c, 12, 53, 0
15, 351120, Note_on_c, 12, 62, 44
15, 351120, Note_on_c, 12, 59, 44
15, 351171, Note_on_c, 12, 62, 0
15, 351171, Note_on_c, 12, 59, 0
15, 351180, Note_on_c, 12, 62, 44
15, 351180, Note_on_c, 12, 59, 44
15, 351231, Note_on_c, 12, 62, 0
15, 351231, Note_on_c, 12, 59, 0
15, 351240, Note_on_c, 12, 59, 44
15, 351240, Note_on_c, 12, 62, 44
15, 351291, Note_on_c, 12, 59, 0
15, 351291, Note_on_c, 12, 62, 0
15, 351300, Note_on_c, 12, 59, 44
15, 351300, Note_on_c, 12, 62, 44
15, 351351, Note_on_c, 12, 59, 0
15, 351351, Note_on_c, 12, 62, 0
15, 351360, Note_on_c, 12, 62, 44
15, 351360, Note_on_c, 12, 59, 44
15, 351411, Note_on_c, 12, 62, 0
15, 351411, Note_on_c, 12, 59, 0
15, 351420, Note_on_c, 12, 62, 44
15, 351420, Note_on_c, 12, 59, 44
15, 351471, Note_on_c, 12, 62, 0
15, 351471, Note_on_c, 12, 59, 0
15, 351480, Note_on_c, 12, 62, 44
15, 351480, Note_on_c, 12, 59, 44
15, 351531, Note_on_c, 12, 62, 0
15, 351531, Note_on_c, 12, 59, 0
15, 351540, Note_on_c, 12, 62, 44
15, 351540, Note_on_c, 12, 59, 44
15, 351591, Note_on_c, 12, 62, 0
15, 351591, Note_on_c, 12, 59, 0
15, 351600, Note_on_c, 12, 59, 44
15, 351600, Note_on_c, 12, 62, 44
15, 351651, Note_on_c, 12, 59, 0
15, 351651, Note_on_c, 12, 62, 0
15, 351660, Note_on_c, 12, 62, 44
15, 351660, Note_on_c, 12, 59, 44
15, 351711, Note_on_c, 12, 62, 0
15, 351711, Note_on_c, 12, 59, 0
15, 351720, Note_on_c, 12, 59, 44
15, 351720, Note_on_c, 12, 62, 44
15, 351771, Note_on_c, 12, 59, 0
15, 351771, Note_on_c, 12, 62, 0
15, 351780, Note_on_c, 12, 59, 44
15, 351780, Note_on_c, 12, 62, 44
15, 351831, Note_on_c, 12, 59, 0
15, 351831, Note_on_c, 12, 62, 0
15, 351840, Note_on_c, 12, 62, 44
15, 351840, Note_on_c, 12, 59, 44
15, 351891, Note_on_c, 12, 62, 0
15, 351891, Note_on_c, 12, 59, 0
15, 351900, Note_on_c, 12, 59, 44
15, 351900, Note_on_c, 12, 62, 44
15, 351951, Note_on_c, 12, 59, 0
15, 351951, Note_on_c, 12, 62, 0
15, 351960, Note_on_c, 12, 62, 44
15, 351960, Note_on_c, 12, 59, 44
15, 352011, Note_on_c, 12, 62, 0
15, 352011, Note_on_c, 12, 59, 0
15, 352020, Note_on_c, 12, 62, 44
15, 352020, Note_on_c, 12, 59, 44
15, 352071, Note_on_c, 12, 62, 0
15, 352071, Note_on_c, 12, 59, 0
15, 352080, Note_on_c, 12, 62, 44
15, 352080, Note_on_c, 12, 59, 44
15, 352131, Note_on_c, 12, 62, 0
15, 352131, Note_on_c, 12, 59, 0
15, 352140, Note_on_c, 12, 62, 44
15, 352140, Note_on_c, 12, 59, 44
15, 352191, Note_on_c, 12, 62, 0
15, 352191, Note_on_c, 12, 59, 0
15, 352200, Note_on_c, 12, 59, 44
15, 352200, Note_on_c, 12, 62, 44
15, 352251, Note_on_c, 12, 59, 0
15, 352251, Note_on_c, 12, 62, 0
15, 352260, Note_on_c, 12, 59, 44
15, 352260, Note_on_c, 12, 62, 44
15, 352311, Note_on_c, 12, 59, 0
15, 352311, Note_on_c, 12, 62, 0
15, 352320, Note_on_c, 12, 59, 44
15, 352320, Note_on_c, 12, 62, 44
15, 352371, Note_on_c, 12, 59, 0
15, 352371, Note_on_c, 12, 62, 0
15, 352380, Note_on_c, 12, 59, 44
15, 352380, Note_on_c, 12, 62, 44
15, 352431, Note_on_c, 12, 59, 0
15, 352431, Note_on_c, 12, 62, 0
15, 352440, Note_on_c, 12, 62, 44
15, 352440, Note_on_c, 12, 59, 44
15, 352491, Note_on_c, 12, 62, 0
15, 352491, Note_on_c, 12, 59, 0
15, 352500, Note_on_c, 12, 62, 44
15, 352500, Note_on_c, 12, 59, 44
15, 352551, Note_on_c, 12, 62, 0
15, 352551, Note_on_c, 12, 59, 0
15, 352560, Note_on_c, 12, 62, 44
15, 352560, Note_on_c, 12, 59, 44
15, 352611, Note_on_c, 12, 62, 0
15, 352611, Note_on_c, 12, 59, 0
15, 352620, Note_on_c, 12, 62, 44
15, 352620, Note_on_c, 12, 59, 44
15, 352671, Note_on_c, 12, 62, 0
15, 352671, Note_on_c, 12, 59, 0
15, 352680, Note_on_c, 12, 59, 44
15, 352680, Note_on_c, 12, 62, 44
15, 352731, Note_on_c, 12, 59, 0
15, 352731, Note_on_c, 12, 62, 0
15, 352740, Note_on_c, 12, 59, 44
15, 352740, Note_on_c, 12, 62, 44
15, 352791, Note_on_c, 12, 59, 0
15, 352791, Note_on_c, 12, 62, 0
15, 352800, Note_on_c, 12, 59, 44
15, 352800, Note_on_c, 12, 62, 44
15, 352851, Note_on_c, 12, 59, 0
15, 352851, Note_on_c, 12, 62, 0
15, 352860, Note_on_c, 12, 59, 44
15, 352860, Note_on_c, 12, 62, 44
15, 352911, Note_on_c, 12, 59, 0
15, 352911, Note_on_c, 12, 62, 0
15, 352920, Note_on_c, 12, 62, 44
15, 352920, Note_on_c, 12, 59, 44
15, 352971, Note_on_c, 12, 62, 0
15, 352971, Note_on_c, 12, 59, 0
15, 352980, Note_on_c, 12, 62, 44
15, 352980, Note_on_c, 12, 59, 44
15, 353031, Note_on_c, 12, 62, 0
15, 353031, Note_on_c, 12, 59, 0
15, 353040, Note_on_c, 12, 59, 44
15, 353040, Note_on_c, 12, 62, 44
15, 353091, Note_on_c, 12, 59, 0
15, 353091, Note_on_c, 12, 62, 0
15, 353100, Note_on_c, 12, 62, 44
15, 353100, Note_on_c, 12, 59, 44
15, 353151, Note_on_c, 12, 62, 0
15, 353151, Note_on_c, 12, 59, 0
15, 353160, Note_on_c, 12, 62, 44
15, 353160, Note_on_c, 12, 59, 44
15, 353211, Note_on_c, 12, 62, 0
15, 353211, Note_on_c, 12, 59, 0
15, 353220, Note_on_c, 12, 62, 44
15, 353220, Note_on_c, 12, 59, 44
15, 353271, Note_on_c, 12, 62, 0
15, 353271, Note_on_c, 12, 59, 0
15, 353280, Note_on_c, 12, 62, 44
15, 353280, Note_on_c, 12, 59, 44
15, 353331, Note_on_c, 12, 62, 0
15, 353331, Note_on_c, 12, 59, 0
15, 353340, Note_on_c, 12, 62, 44
15, 353340, Note_on_c, 12, 59, 44
15, 353391, Note_on_c, 12, 62, 0
15, 353391, Note_on_c, 12, 59, 0
15, 353400, Note_on_c, 12, 59, 44
15, 353400, Note_on_c, 12, 62, 44
15, 353451, Note_on_c, 12, 59, 0
15, 353451, Note_on_c, 12, 62, 0
15, 353460, Note_on_c, 12, 62, 44
15, 353460, Note_on_c, 12, 59, 44
15, 353511, Note_on_c, 12, 62, 0
15, 353511, Note_on_c, 12, 59, 0
15, 353520, Note_on_c, 12, 59, 44
15, 353520, Note_on_c, 12, 62, 44
15, 353571, Note_on_c, 12, 59, 0
15, 353571, Note_on_c, 12, 62, 0
15, 353580, Note_on_c, 12, 59, 44
15, 353580, Note_on_c, 12, 62, 44
15, 353631, Note_on_c, 12, 59, 0
15, 353631, Note_on_c, 12, 62, 0
15, 353640, Note_on_c, 12, 59, 44
15, 353640, Note_on_c, 12, 62, 44
15, 353691, Note_on_c, 12, 59, 0
15, 353691, Note_on_c, 12, 62, 0
15, 353700, Note_on_c, 12, 62, 44
15, 353700, Note_on_c, 12, 59, 44
15, 353751, Note_on_c, 12, 62, 0
15, 353751, Note_on_c, 12, 59, 0
15, 353760, Note_on_c, 12, 62, 44
15, 353760, Note_on_c, 12, 59, 44
15, 353811, Note_on_c, 12, 62, 0
15, 353811, Note_on_c, 12, 59, 0
15, 353820, Note_on_c, 12, 62, 44
15, 353820, Note_on_c, 12, 59, 44
15, 353871, Note_on_c, 12, 62, 0
15, 353871, Note_on_c, 12, 59, 0
15, 353880, Note_on_c, 12, 62, 44
15, 353880, Note_on_c, 12, 59, 44
15, 353931, Note_on_c, 12, 62, 0
15, 353931, Note_on_c, 12, 59, 0
15, 353940, Note_on_c, 12, 62, 44
15, 353940, Note_on_c, 12, 59, 44
15, 353991, Note_on_c, 12, 62, 0
15, 353991, Note_on_c, 12, 59, 0
15, 354000, Note_on_c, 12, 59, 44
15, 354000, Note_on_c, 12, 62, 44
15, 354051, Note_on_c, 12, 59, 0
15, 354051, Note_on_c, 12, 62, 0
15, 354060, Note_on_c, 12, 62, 44
15, 354111, Note_on_c, 12, 62, 0
15, 354120, Note_on_c, 12, 62, 45
15, 354171, Note_on_c, 12, 62, 0
15, 354180, Note_on_c, 12, 62, 45
15, 354231, Note_on_c, 12, 62, 0
15, 354240, Note_on_c, 12, 59, 46
15, 354291, Note_on_c, 12, 59, 0
15, 354300, Note_on_c, 12, 61, 46
15, 354351, Note_on_c, 12, 61, 0
15, 354360, Note_on_c, 12, 62, 47
15, 354411, Note_on_c, 12, 62, 0
15, 354420, Note_on_c, 12, 62, 47
15, 354471, Note_on_c, 12, 62, 0
15, 354480, Note_on_c, 12, 62, 48
15, 354531, Note_on_c, 12, 62, 0
15, 354540, Note_on_c, 12, 62, 49
15, 354591, Note_on_c, 12, 62, 0
15, 354600, Note_on_c, 12, 62, 49
15, 354651, Note_on_c, 12, 62, 0
15, 354660, Note_on_c, 12, 62, 50
15, 354711, Note_on_c, 12, 62, 0
15, 354720, Note_on_c, 12, 62, 50
15, 354771, Note_on_c, 12, 62, 0
15, 354780, Note_on_c, 12, 61, 51
15, 354831, Note_on_c, 12, 61, 0
15, 354840, Note_on_c, 12, 61, 51
15, 354891, Note_on_c, 12, 61, 0
15, 354900, Note_on_c, 12, 61, 52
15, 354951, Note_on_c, 12, 61, 0
15, 354960, Note_on_c, 12, 61, 52
15, 355011, Note_on_c, 12, 61, 0
15, 355020, Note_on_c, 12, 62, 53
15, 355071, Note_on_c, 12, 62, 0
15, 355080, Note_on_c, 12, 64, 54
15, 355131, Note_on_c, 12, 64, 0
15, 355140, Note_on_c, 12, 64, 54
15, 355191, Note_on_c, 12, 64, 0
15, 355200, Note_on_c, 12, 64, 55
15, 355251, Note_on_c, 12, 64, 0
15, 355260, Note_on_c, 12, 64, 55
15, 355311, Note_on_c, 12, 64, 0
15, 355320, Note_on_c, 12, 64, 56
15, 355371, Note_on_c, 12, 64, 0
15, 355380, Note_on_c, 12, 64, 56
15, 355431, Note_on_c, 12, 64, 0
15, 355440, Note_on_c, 12, 64, 57
15, 355491, Note_on_c, 12, 64, 0
15, 355500, Note_on_c, 12, 62, 57
15, 355551, Note_on_c, 12, 62, 0
15, 355560, Note_on_c, 12, 62, 58
15, 355611, Note_on_c, 12, 62, 0
15, 355620, Note_on_c, 12, 62, 59
15, 355671, Note_on_c, 12, 62, 0
15, 355680, Note_on_c, 12, 62, 59
15, 355731, Note_on_c, 12, 62, 0
15, 355740, Note_on_c, 12, 64, 60
15, 355791, Note_on_c, 12, 64, 0
15, 355800, Note_on_c, 12, 66, 60
15, 355851, Note_on_c, 12, 66, 0
15, 355860, Note_on_c, 12, 66, 61
15, 355911, Note_on_c, 12, 66, 0
15, 355920, Note_on_c, 12, 66, 61
15, 355971, Note_on_c, 12, 66, 0
15, 355980, Note_on_c, 12, 66, 62
15, 356031, Note_on_c, 12, 66, 0
15, 356040, Note_on_c, 12, 66, 62
15, 356091, Note_on_c, 12, 66, 0
15, 356100, Note_on_c, 12, 66, 63
15, 356151, Note_on_c, 12, 66, 0
15, 356160, Note_on_c, 12, 66, 64
15, 356211, Note_on_c, 12, 66, 0
15, 356220, Note_on_c, 12, 64, 64
15, 356271, Note_on_c, 12, 64, 0
15, 356280, Note_on_c, 12, 64, 65
15, 356331, Note_on_c, 12, 64, 0
15, 356340, Note_on_c, 12, 64, 65
15, 356391, Note_on_c, 12, 64, 0
15, 356400, Note_on_c, 12, 64, 66
15, 356451, Note_on_c, 12, 64, 0
15, 356460, Note_on_c, 12, 66, 66
15, 356511, Note_on_c, 12, 66, 0
15, 356520, Note_on_c, 12, 68, 67
15, 356571, Note_on_c, 12, 68, 0
15, 356580, Note_on_c, 12, 68, 67
15, 356631, Note_on_c, 12, 68, 0
15, 356640, Note_on_c, 12, 68, 68
15, 356691, Note_on_c, 12, 68, 0
15, 356700, Note_on_c, 12, 68, 69
15, 356751, Note_on_c, 12, 68, 0
15, 356760, Note_on_c, 12, 68, 69
15, 356811, Note_on_c, 12, 68, 0
15, 356820, Note_on_c, 12, 68, 70
15, 356871, Note_on_c, 12, 68, 0
15, 356880, Note_on_c, 12, 68, 70
15, 356931, Note_on_c, 12, 68, 0
15, 356940, Note_on_c, 12, 66, 71
15, 356991, Note_on_c, 12, 66, 0
15, 357000, Note_on_c, 12, 66, 71
15, 357051, Note_on_c, 12, 66, 0
15, 357060, Note_on_c, 12, 66, 72
15, 357111, Note_on_c, 12, 66, 0
15, 357120, Note_on_c, 12, 66, 72
15, 357171, Note_on_c, 12, 66, 0
15, 357180, Note_on_c, 12, 68, 73
15, 357231, Note_on_c, 12, 68, 0
15, 357240, Note_on_c, 12, 69, 74
15, 357291, Note_on_c, 12, 69, 0
15, 357300, Note_on_c, 12, 69, 74
15, 357351, Note_on_c, 12, 69, 0
15, 357360, Note_on_c, 12, 69, 75
15, 357411, Note_on_c, 12, 69, 0
15, 357420, Note_on_c, 12, 69, 75
15, 357471, Note_on_c, 12, 69, 0
15, 357480, Note_on_c, 12, 69, 76
15, 357531, Note_on_c, 12, 69, 0
15, 357540, Note_on_c, 12, 69, 76
15, 357591, Note_on_c, 12, 69, 0
15, 357600, Note_on_c, 12, 69, 77
15, 357651, Note_on_c, 12, 69, 0
15, 357660, Note_on_c, 12, 68, 77
15, 357711, Note_on_c, 12, 68, 0
15, 357720, Note_on_c, 12, 68, 78
15, 357771, Note_on_c, 12, 68, 0
15, 357780, Note_on_c, 12, 68, 79
15, 357831, Note_on_c, 12, 68, 0
15, 357840, Note_on_c, 12, 68, 79
15, 357891, Note_on_c, 12, 68, 0
15, 357900, Note_on_c, 12, 69, 80
15, 357951, Note_on_c, 12, 69, 0
15, 357960, Note_on_c, 12, 71, 80
15, 358011, Note_on_c, 12, 71, 0
15, 358020, Note_on_c, 12, 71, 81
15, 358071, Note_on_c, 12, 71, 0
15, 358080, Note_on_c, 12, 71, 81
15, 358131, Note_on_c, 12, 71, 0
15, 358140, Note_on_c, 12, 71, 82
15, 358191, Note_on_c, 12, 71, 0
15, 358200, Note_on_c, 12, 71, 82
15, 358251, Note_on_c, 12, 71, 0
15, 358260, Note_on_c, 12, 71, 83
15, 358311, Note_on_c, 12, 71, 0
15, 358320, Note_on_c, 12, 69, 84
15, 358371, Note_on_c, 12, 69, 0
15, 358380, Note_on_c, 12, 73, 84
15, 358380, Note_on_c, 12, 69, 84
15, 358431, Note_on_c, 12, 73, 0
15, 358431, Note_on_c, 12, 69, 0
15, 358440, Note_on_c, 12, 69, 84
15, 358440, Note_on_c, 12, 73, 84
15, 358491, Note_on_c, 12, 69, 0
15, 358491, Note_on_c, 12, 73, 0
15, 358500, Note_on_c, 12, 73, 84
15, 358500, Note_on_c, 12, 69, 84
15, 358551, Note_on_c, 12, 73, 0
15, 358551, Note_on_c, 12, 69, 0
15, 358560, Note_on_c, 12, 73, 84
15, 358560, Note_on_c, 12, 69, 84
15, 358611, Note_on_c, 12, 73, 0
15, 358611, Note_on_c, 12, 69, 0
15, 358620, Note_on_c, 12, 69, 84
15, 358620, Note_on_c, 12, 73, 84
15, 358671, Note_on_c, 12, 69, 0
15, 358671, Note_on_c, 12, 73, 0
15, 358680, Note_on_c, 12, 69, 84
15, 358680, Note_on_c, 12, 73, 84
15, 358731, Note_on_c, 12, 69, 0
15, 358731, Note_on_c, 12, 73, 0
15, 358740, Note_on_c, 12, 69, 84
15, 358740, Note_on_c, 12, 73, 84
15, 358791, Note_on_c, 12, 69, 0
15, 358791, Note_on_c, 12, 73, 0
15, 358800, Note_on_c, 12, 69, 84
15, 358800, Note_on_c, 12, 73, 84
15, 358851, Note_on_c, 12, 69, 0
15, 358851, Note_on_c, 12, 73, 0
15, 358860, Note_on_c, 12, 73, 84
15, 358860, Note_on_c, 12, 69, 84
15, 358911, Note_on_c, 12, 73, 0
15, 358911, Note_on_c, 12, 69, 0
15, 358920, Note_on_c, 12, 69, 84
15, 358920, Note_on_c, 12, 73, 84
15, 358971, Note_on_c, 12, 69, 0
15, 358971, Note_on_c, 12, 73, 0
15, 358980, Note_on_c, 12, 69, 84
15, 358980, Note_on_c, 12, 73, 84
15, 359031, Note_on_c, 12, 69, 0
15, 359031, Note_on_c, 12, 73, 0
15, 359040, Note_on_c, 12, 73, 84
15, 359040, Note_on_c, 12, 69, 84
15, 359091, Note_on_c, 12, 73, 0
15, 359091, Note_on_c, 12, 69, 0
15, 359100, Note_on_c, 12, 69, 84
15, 359100, Note_on_c, 12, 73, 84
15, 359151, Note_on_c, 12, 69, 0
15, 359151, Note_on_c, 12, 73, 0
15, 359160, Note_on_c, 12, 73, 84
15, 359160, Note_on_c, 12, 69, 84
15, 359211, Note_on_c, 12, 73, 0
15, 359211, Note_on_c, 12, 69, 0
15, 359220, Note_on_c, 12, 73, 84
15, 359220, Note_on_c, 12, 69, 84
15, 359271, Note_on_c, 12, 73, 0
15, 359271, Note_on_c, 12, 69, 0
15, 359280, Note_on_c, 12, 73, 84
15, 359280, Note_on_c, 12, 69, 84
15, 359331, Note_on_c, 12, 73, 0
15, 359331, Note_on_c, 12, 69, 0
15, 359340, Note_on_c, 12, 73, 84
15, 359340, Note_on_c, 12, 69, 84
15, 359391, Note_on_c, 12, 73, 0
15, 359391, Note_on_c, 12, 69, 0
15, 359400, Note_on_c, 12, 73, 84
15, 359400, Note_on_c, 12, 69, 84
15, 359451, Note_on_c, 12, 73, 0
15, 359451, Note_on_c, 12, 69, 0
15, 359460, Note_on_c, 12, 69, 84
15, 359460, Note_on_c, 12, 73, 84
15, 359511, Note_on_c, 12, 69, 0
15, 359511, Note_on_c, 12, 73, 0
15, 359520, Note_on_c, 12, 73, 84
15, 359520, Note_on_c, 12, 69, 84
15, 359571, Note_on_c, 12, 73, 0
15, 359571, Note_on_c, 12, 69, 0
15, 359580, Note_on_c, 12, 69, 84
15, 359580, Note_on_c, 12, 73, 84
15, 359631, Note_on_c, 12, 69, 0
15, 359631, Note_on_c, 12, 73, 0
15, 359640, Note_on_c, 12, 69, 84
15, 359640, Note_on_c, 12, 73, 84
15, 359691, Note_on_c, 12, 69, 0
15, 359691, Note_on_c, 12, 73, 0
15, 359700, Note_on_c, 12, 73, 84
15, 359700, Note_on_c, 12, 69, 84
15, 359751, Note_on_c, 12, 73, 0
15, 359751, Note_on_c, 12, 69, 0
15, 359760, Note_on_c, 12, 74, 84
15, 359760, Note_on_c, 12, 66, 84
15, 359811, Note_on_c, 12, 74, 0
15, 359811, Note_on_c, 12, 66, 0
15, 359820, Note_on_c, 12, 69, 84
15, 359820, Note_on_c, 12, 66, 84
15, 359871, Note_on_c, 12, 69, 0
15, 359871, Note_on_c, 12, 66, 0
15, 359880, Note_on_c, 12, 66, 84
15, 359880, Note_on_c, 12, 69, 84
15, 359931, Note_on_c, 12, 66, 0
15, 359931, Note_on_c, 12, 69, 0
15, 359940, Note_on_c, 12, 66, 84
15, 359940, Note_on_c, 12, 69, 84
15, 359991, Note_on_c, 12, 66, 0
15, 359991, Note_on_c, 12, 69, 0
15, 360000, Note_on_c, 12, 69, 84
15, 360000, Note_on_c, 12, 66, 84
15, 360051, Note_on_c, 12, 69, 0
15, 360051, Note_on_c, 12, 66, 0
15, 360060, Note_on_c, 12, 69, 84
15, 360060, Note_on_c, 12, 66, 84
15, 360111, Note_on_c, 12, 69, 0
15, 360111, Note_on_c, 12, 66, 0
15, 360120, Note_on_c, 12, 69, 84
15, 360120, Note_on_c, 12, 66, 84
15, 360171, Note_on_c, 12, 69, 0
15, 360171, Note_on_c, 12, 66, 0
15, 360180, Note_on_c, 12, 66, 84
15, 360180, Note_on_c, 12, 69, 84
15, 360231, Note_on_c, 12, 66, 0
15, 360231, Note_on_c, 12, 69, 0
15, 360240, Note_on_c, 12, 69, 84
15, 360240, Note_on_c, 12, 66, 84
15, 360291, Note_on_c, 12, 69, 0
15, 360291, Note_on_c, 12, 66, 0
15, 360300, Note_on_c, 12, 66, 84
15, 360300, Note_on_c, 12, 69, 84
15, 360351, Note_on_c, 12, 66, 0
15, 360351, Note_on_c, 12, 69, 0
15, 360360, Note_on_c, 12, 66, 84
15, 360360, Note_on_c, 12, 69, 84
15, 360411, Note_on_c, 12, 66, 0
15, 360411, Note_on_c, 12, 69, 0
15, 360420, Note_on_c, 12, 69, 84
15, 360420, Note_on_c, 12, 66, 84
15, 360471, Note_on_c, 12, 69, 0
15, 360471, Note_on_c, 12, 66, 0
15, 360480, Note_on_c, 12, 69, 84
15, 360480, Note_on_c, 12, 66, 84
15, 360531, Note_on_c, 12, 69, 0
15, 360531, Note_on_c, 12, 66, 0
15, 360540, Note_on_c, 12, 66, 84
15, 360540, Note_on_c, 12, 69, 84
15, 360591, Note_on_c, 12, 66, 0
15, 360591, Note_on_c, 12, 69, 0
15, 360600, Note_on_c, 12, 69, 84
15, 360600, Note_on_c, 12, 66, 84
15, 360651, Note_on_c, 12, 69, 0
15, 360651, Note_on_c, 12, 66, 0
15, 360660, Note_on_c, 12, 69, 84
15, 360660, Note_on_c, 12, 66, 84
15, 360711, Note_on_c, 12, 69, 0
15, 360711, Note_on_c, 12, 66, 0
15, 360720, Note_on_c, 12, 69, 84
15, 360720, Note_on_c, 12, 66, 84
15, 360771, Note_on_c, 12, 69, 0
15, 360771, Note_on_c, 12, 66, 0
15, 360780, Note_on_c, 12, 69, 84
15, 360780, Note_on_c, 12, 66, 84
15, 360831, Note_on_c, 12, 69, 0
15, 360831, Note_on_c, 12, 66, 0
15, 360840, Note_on_c, 12, 66, 84
15, 360840, Note_on_c, 12, 69, 84
15, 360891, Note_on_c, 12, 66, 0
15, 360891, Note_on_c, 12, 69, 0
15, 360900, Note_on_c, 12, 69, 84
15, 360900, Note_on_c, 12, 66, 84
15, 360951, Note_on_c, 12, 69, 0
15, 360951, Note_on_c, 12, 66, 0
15, 360960, Note_on_c, 12, 69, 84
15, 360960, Note_on_c, 12, 66, 84
15, 361011, Note_on_c, 12, 69, 0
15, 361011, Note_on_c, 12, 66, 0
15, 361020, Note_on_c, 12, 66, 84
15, 361020, Note_on_c, 12, 69, 84
15, 361071, Note_on_c, 12, 66, 0
15, 361071, Note_on_c, 12, 69, 0
15, 361080, Note_on_c, 12, 69, 84
15, 361080, Note_on_c, 12, 66, 84
15, 361131, Note_on_c, 12, 69, 0
15, 361131, Note_on_c, 12, 66, 0
15, 361140, Note_on_c, 12, 66, 84
15, 361140, Note_on_c, 12, 69, 84
15, 361199, Note_on_c, 12, 66, 0
15, 361199, Note_on_c, 12, 69, 0
15, 361200, Note_on_c, 12, 53, 44
15, 361251, Note_on_c, 12, 53, 0
15, 361260, Note_on_c, 12, 53, 44
15, 361311, Note_on_c, 12, 53, 0
15, 361320, Note_on_c, 12, 53, 44
15, 361371, Note_on_c, 12, 53, 0
15, 361380, Note_on_c, 12, 53, 44
15, 361431, Note_on_c, 12, 53, 0
15, 361440, Note_on_c, 12, 53, 44
15, 361491, Note_on_c, 12, 53, 0
15, 361500, Note_on_c, 12, 53, 44
15, 361551, Note_on_c, 12, 53, 0
15, 361560, Note_on_c, 12, 53, 44
15, 361611, Note_on_c, 12, 53, 0
15, 361620, Note_on_c, 12, 53, 44
15, 361671, Note_on_c, 12, 53, 0
15, 361680, Note_on_c, 12, 53, 44
15, 361731, Note_on_c, 12, 53, 0
15, 361740, Note_on_c, 12, 53, 44
15, 361791, Note_on_c, 12, 53, 0
15, 361800, Note_on_c, 12, 53, 44
15, 361851, Note_on_c, 12, 53, 0
15, 361860, Note_on_c, 12, 53, 44
15, 361919, Note_on_c, 12, 53, 0
15, 361920, Note_on_c, 12, 52, 44
15, 361971, Note_on_c, 12, 52, 0
15, 361980, Note_on_c, 12, 56, 47
15, 362031, Note_on_c, 12, 56, 0
15, 362040, Note_on_c, 12, 56, 50
15, 362091, Note_on_c, 12, 56, 0
15, 362100, Note_on_c, 12, 56, 54
15, 362151, Note_on_c, 12, 56, 0
15, 362160, Note_on_c, 12, 56, 57
15, 362211, Note_on_c, 12, 56, 0
15, 362220, Note_on_c, 12, 56, 60
15, 362271, Note_on_c, 12, 56, 0
15, 362280, Note_on_c, 12, 56, 64
15, 362331, Note_on_c, 12, 56, 0
15, 362340, Note_on_c, 12, 56, 67
15, 362391, Note_on_c, 12, 56, 0
15, 362400, Note_on_c, 12, 57, 70
15, 362451, Note_on_c, 12, 57, 0
15, 362460, Note_on_c, 12, 59, 74
15, 362511, Note_on_c, 12, 59, 0
15, 362520, Note_on_c, 12, 61, 77
15, 362571, Note_on_c, 12, 61, 0
15, 362580, Note_on_c, 12, 62, 80
15, 362631, Note_on_c, 12, 62, 0
15, 362640, Note_on_c, 12, 64, 84
15, 362691, Note_on_c, 12, 64, 0
15, 362700, Note_on_c, 12, 64, 84
15, 362700, Note_on_c, 12, 69, 84
15, 362751, Note_on_c, 12, 64, 0
15, 362751, Note_on_c, 12, 69, 0
15, 362760, Note_on_c, 12, 69, 84
15, 362760, Note_on_c, 12, 64, 84
15, 362811, Note_on_c, 12, 69, 0
15, 362811, Note_on_c, 12, 64, 0
15, 362820, Note_on_c, 12, 64, 84
15, 362820, Note_on_c, 12, 69, 84
15, 362871, Note_on_c, 12, 64, 0
15, 362871, Note_on_c, 12, 69, 0
15, 362880, Note_on_c, 12, 64, 84
15, 362880, Note_on_c, 12, 69, 84
15, 362931, Note_on_c, 12, 64, 0
15, 362931, Note_on_c, 12, 69, 0
15, 362940, Note_on_c, 12, 64, 84
15, 362940, Note_on_c, 12, 69, 84
15, 362991, Note_on_c, 12, 64, 0
15, 362991, Note_on_c, 12, 69, 0
15, 363000, Note_on_c, 12, 64, 84
15, 363000, Note_on_c, 12, 69, 84
15, 363051, Note_on_c, 12, 64, 0
15, 363051, Note_on_c, 12, 69, 0
15, 363060, Note_on_c, 12, 64, 84
15, 363060, Note_on_c, 12, 69, 84
15, 363111, Note_on_c, 12, 64, 0
15, 363111, Note_on_c, 12, 69, 0
15, 363120, Note_on_c, 12, 69, 84
15, 363120, Note_on_c, 12, 64, 84
15, 363171, Note_on_c, 12, 69, 0
15, 363171, Note_on_c, 12, 64, 0
15, 363180, Note_on_c, 12, 64, 84
15, 363180, Note_on_c, 12, 69, 84
15, 363231, Note_on_c, 12, 64, 0
15, 363231, Note_on_c, 12, 69, 0
15, 363240, Note_on_c, 12, 69, 84
15, 363240, Note_on_c, 12, 64, 84
15, 363291, Note_on_c, 12, 69, 0
15, 363291, Note_on_c, 12, 64, 0
15, 363300, Note_on_c, 12, 69, 84
15, 363300, Note_on_c, 12, 64, 84
15, 363351, Note_on_c, 12, 69, 0
15, 363351, Note_on_c, 12, 64, 0
15, 363360, Note_on_c, 12, 64, 84
15, 363360, Note_on_c, 12, 69, 84
15, 363411, Note_on_c, 12, 64, 0
15, 363411, Note_on_c, 12, 69, 0
15, 363420, Note_on_c, 12, 64, 84
15, 363420, Note_on_c, 12, 69, 84
15, 363471, Note_on_c, 12, 64, 0
15, 363471, Note_on_c, 12, 69, 0
15, 363480, Note_on_c, 12, 69, 84
15, 363480, Note_on_c, 12, 64, 84
15, 363531, Note_on_c, 12, 69, 0
15, 363531, Note_on_c, 12, 64, 0
15, 363540, Note_on_c, 12, 69, 84
15, 363540, Note_on_c, 12, 64, 84
15, 363591, Note_on_c, 12, 69, 0
15, 363591, Note_on_c, 12, 64, 0
15, 363600, Note_on_c, 12, 64, 84
15, 363600, Note_on_c, 12, 69, 84
15, 363651, Note_on_c, 12, 64, 0
15, 363651, Note_on_c, 12, 69, 0
15, 363660, Note_on_c, 12, 69, 84
15, 363660, Note_on_c, 12, 64, 84
15, 363711, Note_on_c, 12, 69, 0
15, 363711, Note_on_c, 12, 64, 0
15, 363720, Note_on_c, 12, 69, 84
15, 363720, Note_on_c, 12, 64, 84
15, 363771, Note_on_c, 12, 69, 0
15, 363771, Note_on_c, 12, 64, 0
15, 363780, Note_on_c, 12, 69, 84
15, 363780, Note_on_c, 12, 64, 84
15, 363831, Note_on_c, 12, 69, 0
15, 363831, Note_on_c, 12, 64, 0
15, 363840, Note_on_c, 12, 64, 84
15, 363840, Note_on_c, 12, 69, 84
15, 363891, Note_on_c, 12, 64, 0
15, 363891, Note_on_c, 12, 69, 0
15, 363900, Note_on_c, 12, 64, 84
15, 363900, Note_on_c, 12, 69, 84
15, 363951, Note_on_c, 12, 64, 0
15, 363951, Note_on_c, 12, 69, 0
15, 363960, Note_on_c, 12, 69, 84
15, 363960, Note_on_c, 12, 64, 84
15, 364011, Note_on_c, 12, 69, 0
15, 364011, Note_on_c, 12, 64, 0
15, 364020, Note_on_c, 12, 64, 84
15, 364020, Note_on_c, 12, 69, 84
15, 364071, Note_on_c, 12, 64, 0
15, 364071, Note_on_c, 12, 69, 0
15, 364080, Note_on_c, 12, 69, 84
15, 364080, Note_on_c, 12, 66, 84
15, 364131, Note_on_c, 12, 69, 0
15, 364131, Note_on_c, 12, 66, 0
15, 364140, Note_on_c, 12, 69, 84
15, 364140, Note_on_c, 12, 66, 84
15, 364191, Note_on_c, 12, 69, 0
15, 364191, Note_on_c, 12, 66, 0
15, 364200, Note_on_c, 12, 69, 84
15, 364200, Note_on_c, 12, 66, 84
15, 364251, Note_on_c, 12, 69, 0
15, 364251, Note_on_c, 12, 66, 0
15, 364260, Note_on_c, 12, 69, 84
15, 364260, Note_on_c, 12, 66, 84
15, 364311, Note_on_c, 12, 69, 0
15, 364311, Note_on_c, 12, 66, 0
15, 364320, Note_on_c, 12, 69, 84
15, 364320, Note_on_c, 12, 66, 84
15, 364371, Note_on_c, 12, 69, 0
15, 364371, Note_on_c, 12, 66, 0
15, 364380, Note_on_c, 12, 66, 84
15, 364380, Note_on_c, 12, 69, 84
15, 364431, Note_on_c, 12, 66, 0
15, 364431, Note_on_c, 12, 69, 0
15, 364440, Note_on_c, 12, 69, 84
15, 364440, Note_on_c, 12, 66, 84
15, 364491, Note_on_c, 12, 69, 0
15, 364491, Note_on_c, 12, 66, 0
15, 364500, Note_on_c, 12, 66, 84
15, 364500, Note_on_c, 12, 69, 84
15, 364551, Note_on_c, 12, 66, 0
15, 364551, Note_on_c, 12, 69, 0
15, 364560, Note_on_c, 12, 69, 84
15, 364560, Note_on_c, 12, 66, 84
15, 364611, Note_on_c, 12, 69, 0
15, 364611, Note_on_c, 12, 66, 0
15, 364620, Note_on_c, 12, 69, 84
15, 364620, Note_on_c, 12, 66, 84
15, 364671, Note_on_c, 12, 69, 0
15, 364671, Note_on_c, 12, 66, 0
15, 364680, Note_on_c, 12, 66, 84
15, 364680, Note_on_c, 12, 69, 84
15, 364731, Note_on_c, 12, 66, 0
15, 364731, Note_on_c, 12, 69, 0
15, 364740, Note_on_c, 12, 69, 84
15, 364740, Note_on_c, 12, 66, 84
15, 364791, Note_on_c, 12, 69, 0
15, 364791, Note_on_c, 12, 66, 0
15, 364800, Note_on_c, 12, 69, 84
15, 364800, Note_on_c, 12, 66, 84
15, 364851, Note_on_c, 12, 69, 0
15, 364851, Note_on_c, 12, 66, 0
15, 364860, Note_on_c, 12, 66, 84
15, 364860, Note_on_c, 12, 69, 84
15, 364911, Note_on_c, 12, 66, 0
15, 364911, Note_on_c, 12, 69, 0
15, 364920, Note_on_c, 12, 66, 84
15, 364920, Note_on_c, 12, 69, 84
15, 364971, Note_on_c, 12, 66, 0
15, 364971, Note_on_c, 12, 69, 0
15, 364980, Note_on_c, 12, 69, 84
15, 364980, Note_on_c, 12, 66, 84
15, 365031, Note_on_c, 12, 69, 0
15, 365031, Note_on_c, 12, 66, 0
15, 365040, Note_on_c, 12, 69, 84
15, 365040, Note_on_c, 12, 66, 84
15, 365091, Note_on_c, 12, 69, 0
15, 365091, Note_on_c, 12, 66, 0
15, 365100, Note_on_c, 12, 66, 84
15, 365100, Note_on_c, 12, 69, 84
15, 365151, Note_on_c, 12, 66, 0
15, 365151, Note_on_c, 12, 69, 0
15, 365160, Note_on_c, 12, 66, 84
15, 365160, Note_on_c, 12, 69, 84
15, 365211, Note_on_c, 12, 66, 0
15, 365211, Note_on_c, 12, 69, 0
15, 365220, Note_on_c, 12, 69, 84
15, 365220, Note_on_c, 12, 66, 84
15, 365271, Note_on_c, 12, 69, 0
15, 365271, Note_on_c, 12, 66, 0
15, 365280, Note_on_c, 12, 66, 84
15, 365280, Note_on_c, 12, 69, 84
15, 365331, Note_on_c, 12, 66, 0
15, 365331, Note_on_c, 12, 69, 0
15, 365340, Note_on_c, 12, 66, 84
15, 365340, Note_on_c, 12, 69, 84
15, 365391, Note_on_c, 12, 66, 0
15, 365391, Note_on_c, 12, 69, 0
15, 365400, Note_on_c, 12, 66, 84
15, 365400, Note_on_c, 12, 69, 84
15, 365451, Note_on_c, 12, 66, 0
15, 365451, Note_on_c, 12, 69, 0
15, 365460, Note_on_c, 12, 66, 84
15, 365460, Note_on_c, 12, 69, 84
15, 365511, Note_on_c, 12, 66, 0
15, 365511, Note_on_c, 12, 69, 0
15, 365518, Control_c, 12, 11, 48
15, 365520, Note_on_c, 12, 58, 84
15, 365879, Note_on_c, 12, 58, 0
15, 365880, Note_on_c, 12, 53, 84
15, 366239, Note_on_c, 12, 53, 0
15, 366240, Note_on_c, 12, 56, 84
15, 366280, Control_c, 12, 11, 52
15, 366320, Control_c, 12, 11, 57
15, 366360, Control_c, 12, 11, 61
15, 366400, Control_c, 12, 11, 66
15, 366440, Control_c, 12, 11, 70
15, 366480, Control_c, 12, 11, 74
15, 366520, Control_c, 12, 11, 79
15, 366560, Control_c, 12, 11, 83
15, 366600, Control_c, 12, 11, 88
15, 366640, Control_c, 12, 11, 92
15, 366680, Control_c, 12, 11, 96
15, 366720, Control_c, 12, 11, 101
15, 366760, Control_c, 12, 11, 105
15, 366800, Control_c, 12, 11, 109
15, 366824, Note_on_c, 12, 56, 0
15, 366840, Control_c, 12, 11, 114
15, 366840, Note_on_c, 12, 64, 84
15, 366880, Control_c, 12, 11, 118
15, 366920, Control_c, 12, 11, 123
15, 366944, Note_on_c, 12, 64, 0
15, 366958, Control_c, 12, 11, 127
15, 366960, Note_on_c, 12, 64, 84
15, 367064, Note_on_c, 12, 64, 0
15, 367080, Note_on_c, 12, 57, 84
15, 367080, Note_on_c, 12, 52, 84
15, 367131, Note_on_c, 12, 57, 0
15, 367131, Note_on_c, 12, 52, 0
15, 367140, Note_on_c, 12, 52, 84
15, 367140, Note_on_c, 12, 57, 84
15, 367191, Note_on_c, 12, 52, 0
15, 367191, Note_on_c, 12, 57, 0
15, 367200, Note_on_c, 12, 52, 84
15, 367200, Note_on_c, 12, 57, 84
15, 367251, Note_on_c, 12, 52, 0
15, 367251, Note_on_c, 12, 57, 0
15, 367260, Note_on_c, 12, 52, 84
15, 367260, Note_on_c, 12, 57, 84
15, 367311, Note_on_c, 12, 52, 0
15, 367311, Note_on_c, 12, 57, 0
15, 367320, Note_on_c, 12, 57, 84
15, 367320, Note_on_c, 12, 52, 84
15, 367424, Note_on_c, 12, 57, 0
15, 367424, Note_on_c, 12, 52, 0
15, 367440, Note_on_c, 12, 52, 84
15, 367440, Note_on_c, 12, 57, 84
15, 367491, Note_on_c, 12, 52, 0
15, 367491, Note_on_c, 12, 57, 0
15, 367500, Note_on_c, 12, 57, 84
15, 367500, Note_on_c, 12, 52, 84
15, 367551, Note_on_c, 12, 57, 0
15, 367551, Note_on_c, 12, 52, 0
15, 367560, Note_on_c, 12, 52, 84
15, 367560, Note_on_c, 12, 57, 84
15, 367611, Note_on_c, 12, 52, 0
15, 367611, Note_on_c, 12, 57, 0
15, 367620, Note_on_c, 12, 52, 84
15, 367620, Note_on_c, 12, 57, 84
15, 367671, Note_on_c, 12, 52, 0
15, 367671, Note_on_c, 12, 57, 0
15, 367680, Note_on_c, 12, 52, 84
15, 367680, Note_on_c, 12, 59, 84
15, 367784, Note_on_c, 12, 52, 0
15, 367784, Note_on_c, 12, 59, 0
15, 367800, Note_on_c, 12, 52, 84
15, 367800, Note_on_c, 12, 59, 84
15, 367851, Note_on_c, 12, 52, 0
15, 367851, Note_on_c, 12, 59, 0
15, 367860, Note_on_c, 12, 59, 84
15, 367860, Note_on_c, 12, 52, 84
15, 367911, Note_on_c, 12, 59, 0
15, 367911, Note_on_c, 12, 52, 0
15, 367920, Note_on_c, 12, 59, 84
15, 367920, Note_on_c, 12, 52, 84
15, 367971, Note_on_c, 12, 59, 0
15, 367971, Note_on_c, 12, 52, 0
15, 367980, Note_on_c, 12, 52, 84
15, 367980, Note_on_c, 12, 59, 84
15, 368031, Note_on_c, 12, 52, 0
15, 368031, Note_on_c, 12, 59, 0
15, 368040, Note_on_c, 12, 52, 84
15, 368040, Note_on_c, 12, 59, 84
15, 368144, Note_on_c, 12, 52, 0
15, 368144, Note_on_c, 12, 59, 0
15, 368160, Note_on_c, 12, 59, 84
15, 368160, Note_on_c, 12, 52, 84
15, 368211, Note_on_c, 12, 59, 0
15, 368211, Note_on_c, 12, 52, 0
15, 368220, Note_on_c, 12, 59, 84
15, 368220, Note_on_c, 12, 52, 84
15, 368271, Note_on_c, 12, 59, 0
15, 368271, Note_on_c, 12, 52, 0
15, 368280, Note_on_c, 12, 59, 84
15, 368280, Note_on_c, 12, 52, 84
15, 368331, Note_on_c, 12, 59, 0
15, 368331, Note_on_c, 12, 52, 0
15, 368340, Note_on_c, 12, 52, 84
15, 368340, Note_on_c, 12, 59, 84
15, 368391, Note_on_c, 12, 52, 0
15, 368391, Note_on_c, 12, 59, 0
15, 368400, Note_on_c, 12, 57, 84
15, 368400, Note_on_c, 12, 52, 84
15, 368504, Note_on_c, 12, 57, 0
15, 368504, Note_on_c, 12, 52, 0
15, 368520, Note_on_c, 12, 57, 84
15, 368520, Note_on_c, 12, 52, 84
15, 368571, Note_on_c, 12, 57, 0
15, 368571, Note_on_c, 12, 52, 0
15, 368580, Note_on_c, 12, 52, 84
15, 368580, Note_on_c, 12, 57, 84
15, 368631, Note_on_c, 12, 52, 0
15, 368631, Note_on_c, 12, 57, 0
15, 368640, Note_on_c, 12, 57, 84
15, 368640, Note_on_c, 12, 52, 84
15, 368691, Note_on_c, 12, 57, 0
15, 368691, Note_on_c, 12, 52, 0
15, 368700, Note_on_c, 12, 57, 84
15, 368700, Note_on_c, 12, 52, 84
15, 368751, Note_on_c, 12, 57, 0
15, 368751, Note_on_c, 12, 52, 0
15, 368760, Note_on_c, 12, 52, 84
15, 368760, Note_on_c, 12, 57, 84
15, 368864, Note_on_c, 12, 52, 0
15, 368864, Note_on_c, 12, 57, 0
15, 368880, Note_on_c, 12, 52, 84
15, 368880, Note_on_c, 12, 57, 84
15, 368931, Note_on_c, 12, 52, 0
15, 368931, Note_on_c, 12, 57, 0
15, 368940, Note_on_c, 12, 57, 84
15, 368940, Note_on_c, 12, 52, 84
15, 368991, Note_on_c, 12, 57, 0
15, 368991, Note_on_c, 12, 52, 0
15, 369000, Note_on_c, 12, 52, 84
15, 369000, Note_on_c, 12, 57, 84
15, 369051, Note_on_c, 12, 52, 0
15, 369051, Note_on_c, 12, 57, 0
15, 369060, Note_on_c, 12, 52, 84
15, 369060, Note_on_c, 12, 57, 84
15, 369111, Note_on_c, 12, 52, 0
15, 369111, Note_on_c, 12, 57, 0
15, 369120, Note_on_c, 12, 59, 84
15, 369120, Note_on_c, 12, 52, 84
15, 369224, Note_on_c, 12, 59, 0
15, 369224, Note_on_c, 12, 52, 0
15, 369240, Note_on_c, 12, 59, 84
15, 369240, Note_on_c, 12, 52, 84
15, 369291, Note_on_c, 12, 59, 0
15, 369291, Note_on_c, 12, 52, 0
15, 369300, Note_on_c, 12, 52, 84
15, 369300, Note_on_c, 12, 59, 84
15, 369351, Note_on_c, 12, 52, 0
15, 369351, Note_on_c, 12, 59, 0
15, 369360, Note_on_c, 12, 52, 84
15, 369360, Note_on_c, 12, 59, 84
15, 369411, Note_on_c, 12, 52, 0
15, 369411, Note_on_c, 12, 59, 0
15, 369420, Note_on_c, 12, 59, 84
15, 369420, Note_on_c, 12, 52, 84
15, 369471, Note_on_c, 12, 59, 0
15, 369471, Note_on_c, 12, 52, 0
15, 369480, Note_on_c, 12, 52, 84
15, 369480, Note_on_c, 12, 59, 84
15, 369584, Note_on_c, 12, 52, 0
15, 369584, Note_on_c, 12, 59, 0
15, 369600, Note_on_c, 12, 59, 84
15, 369600, Note_on_c, 12, 52, 84
15, 369651, Note_on_c, 12, 59, 0
15, 369651, Note_on_c, 12, 52, 0
15, 369660, Note_on_c, 12, 52, 84
15, 369660, Note_on_c, 12, 59, 84
15, 369711, Note_on_c, 12, 52, 0
15, 369711, Note_on_c, 12, 59, 0
15, 369720, Note_on_c, 12, 59, 84
15, 369720, Note_on_c, 12, 52, 84
15, 369771, Note_on_c, 12, 59, 0
15, 369771, Note_on_c, 12, 52, 0
15, 369780, Note_on_c, 12, 59, 84
15, 369780, Note_on_c, 12, 52, 84
15, 369831, Note_on_c, 12, 59, 0
15, 369831, Note_on_c, 12, 52, 0
15, 369840, Note_on_c, 12, 52, 84
15, 369840, Note_on_c, 12, 57, 84
15, 369944, Note_on_c, 12, 52, 0
15, 369944, Note_on_c, 12, 57, 0
15, 369960, Note_on_c, 12, 52, 84
15, 369960, Note_on_c, 12, 57, 84
15, 370011, Note_on_c, 12, 52, 0
15, 370011, Note_on_c, 12, 57, 0
15, 370020, Note_on_c, 12, 52, 84
15, 370020, Note_on_c, 12, 57, 84
15, 370071, Note_on_c, 12, 52, 0
15, 370071, Note_on_c, 12, 57, 0
15, 370080, Note_on_c, 12, 57, 84
15, 370080, Note_on_c, 12, 52, 84
15, 370131, Note_on_c, 12, 57, 0
15, 370131, Note_on_c, 12, 52, 0
15, 370140, Note_on_c, 12, 52, 84
15, 370140, Note_on_c, 12, 57, 84
15, 370191, Note_on_c, 12, 52, 0
15, 370191, Note_on_c, 12, 57, 0
15, 370200, Note_on_c, 12, 59, 84
15, 370200, Note_on_c, 12, 52, 84
15, 370304, Note_on_c, 12, 59, 0
15, 370304, Note_on_c, 12, 52, 0
15, 370320, Note_on_c, 12, 52, 84
15, 370320, Note_on_c, 12, 59, 84
15, 370371, Note_on_c, 12, 52, 0
15, 370371, Note_on_c, 12, 59, 0
15, 370380, Note_on_c, 12, 52, 84
15, 370380, Note_on_c, 12, 59, 84
15, 370431, Note_on_c, 12, 52, 0
15, 370431, Note_on_c, 12, 59, 0
15, 370440, Note_on_c, 12, 52, 84
15, 370440, Note_on_c, 12, 59, 84
15, 370491, Note_on_c, 12, 52, 0
15, 370491, Note_on_c, 12, 59, 0
15, 370500, Note_on_c, 12, 52, 84
15, 370500, Note_on_c, 12, 59, 84
15, 370551, Note_on_c, 12, 52, 0
15, 370551, Note_on_c, 12, 59, 0
15, 370560, Note_on_c, 12, 52, 84
15, 370560, Note_on_c, 12, 57, 84
15, 370664, Note_on_c, 12, 52, 0
15, 370664, Note_on_c, 12, 57, 0
15, 370680, Note_on_c, 12, 52, 84
15, 370680, Note_on_c, 12, 57, 84
15, 370731, Note_on_c, 12, 52, 0
15, 370731, Note_on_c, 12, 57, 0
15, 370740, Note_on_c, 12, 57, 84
15, 370740, Note_on_c, 12, 52, 84
15, 370791, Note_on_c, 12, 57, 0
15, 370791, Note_on_c, 12, 52, 0
15, 370800, Note_on_c, 12, 57, 84
15, 370800, Note_on_c, 12, 52, 84
15, 370851, Note_on_c, 12, 57, 0
15, 370851, Note_on_c, 12, 52, 0
15, 370860, Note_on_c, 12, 57, 84
15, 370860, Note_on_c, 12, 52, 84
15, 370911, Note_on_c, 12, 57, 0
15, 370911, Note_on_c, 12, 52, 0
15, 370920, Note_on_c, 12, 59, 84
15, 370920, Note_on_c, 12, 52, 84
15, 371024, Note_on_c, 12, 59, 0
15, 371024, Note_on_c, 12, 52, 0
15, 371040, Note_on_c, 12, 52, 84
15, 371040, Note_on_c, 12, 59, 84
15, 371091, Note_on_c, 12, 52, 0
15, 371091, Note_on_c, 12, 59, 0
15, 371100, Note_on_c, 12, 59, 84
15, 371100, Note_on_c, 12, 52, 84
15, 371151, Note_on_c, 12, 59, 0
15, 371151, Note_on_c, 12, 52, 0
15, 371160, Note_on_c, 12, 52, 84
15, 371160, Note_on_c, 12, 59, 84
15, 371211, Note_on_c, 12, 52, 0
15, 371211, Note_on_c, 12, 59, 0
15, 371220, Note_on_c, 12, 59, 84
15, 371220, Note_on_c, 12, 52, 84
15, 371271, Note_on_c, 12, 59, 0
15, 371271, Note_on_c, 12, 52, 0
15, 371280, Note_on_c, 12, 57, 84
15, 371280, Note_on_c, 12, 52, 84
15, 371384, Note_on_c, 12, 57, 0
15, 371384, Note_on_c, 12, 52, 0
15, 371400, Note_on_c, 12, 52, 84
15, 371400, Note_on_c, 12, 57, 84
15, 371451, Note_on_c, 12, 52, 0
15, 371451, Note_on_c, 12, 57, 0
15, 371460, Note_on_c, 12, 52, 84
15, 371460, Note_on_c, 12, 57, 84
15, 371511, Note_on_c, 12, 52, 0
15, 371511, Note_on_c, 12, 57, 0
15, 371520, Note_on_c, 12, 52, 84
15, 371520, Note_on_c, 12, 57, 84
15, 371571, Note_on_c, 12, 52, 0
15, 371571, Note_on_c, 12, 57, 0
15, 371580, Note_on_c, 12, 57, 84
15, 371580, Note_on_c, 12, 52, 84
15, 371631, Note_on_c, 12, 57, 0
15, 371631, Note_on_c, 12, 52, 0
15, 371640, Note_on_c, 12, 59, 84
15, 371640, Note_on_c, 12, 52, 84
15, 371744, Note_on_c, 12, 59, 0
15, 371744, Note_on_c, 12, 52, 0
15, 371760, Note_on_c, 12, 52, 84
15, 371760, Note_on_c, 12, 59, 84
15, 371811, Note_on_c, 12, 52, 0
15, 371811, Note_on_c, 12, 59, 0
15, 371820, Note_on_c, 12, 59, 84
15, 371820, Note_on_c, 12, 52, 84
15, 371871, Note_on_c, 12, 59, 0
15, 371871, Note_on_c, 12, 52, 0
15, 371880, Note_on_c, 12, 59, 84
15, 371880, Note_on_c, 12, 52, 84
15, 371931, Note_on_c, 12, 59, 0
15, 371931, Note_on_c, 12, 52, 0
15, 371940, Note_on_c, 12, 52, 84
15, 371940, Note_on_c, 12, 59, 84
15, 371961, Note_on_c, 12, 59, 0
15, 371970, Note_on_c, 12, 56, 84
15, 371999, Note_on_c, 12, 52, 0
15, 371999, Note_on_c, 12, 56, 0
15, 372000, Note_on_c, 12, 57, 84
15, 372239, Note_on_c, 12, 57, 0
15, 372330, Note_on_c, 12, 57, 84
15, 372359, Note_on_c, 12, 57, 0
15, 372360, Note_on_c, 12, 59, 84
15, 372599, Note_on_c, 12, 59, 0
15, 372690, Note_on_c, 12, 59, 84
15, 372719, Note_on_c, 12, 59, 0
15, 372720, Note_on_c, 12, 61, 84
15, 372959, Note_on_c, 12, 61, 0
15, 373050, Note_on_c, 12, 49, 84
15, 373079, Note_on_c, 12, 49, 0
15, 373080, Note_on_c, 12, 50, 84
15, 373319, Note_on_c, 12, 50, 0
15, 373410, Note_on_c, 12, 50, 84
15, 373439, Note_on_c, 12, 50, 0
15, 373440, Note_on_c, 12, 52, 84
15, 373679, Note_on_c, 12, 52, 0
15, 373770, Note_on_c, 12, 52, 84
15, 373799, Note_on_c, 12, 52, 0
15, 373800, Note_on_c, 12, 54, 84
15, 374039, Note_on_c, 12, 54, 0
15, 374130, Note_on_c, 12, 54, 84
15, 374159, Note_on_c, 12, 54, 0
15, 374160, Note_on_c, 12, 56, 84
15, 374399, Note_on_c, 12, 56, 0
15, 374490, Note_on_c, 12, 56, 84
15, 374519, Note_on_c, 12, 56, 0
15, 374520, Note_on_c, 12, 57, 84
15, 374759, Note_on_c, 12, 57, 0
15, 376290, Note_on_c, 12, 55, 52
15, 376319, Note_on_c, 12, 55, 0
15, 376320, Note_on_c, 12, 56, 52
15, 376559, Note_on_c, 12, 56, 0
15, 384960, Note_on_c, 12, 50, 44
15, 385439, Note_on_c, 12, 50, 0
15, 385440, Note_on_c, 12, 49, 44
15, 385559, Note_on_c, 12, 49, 0
15, 385560, Note_on_c, 12, 48, 44
15, 385664, Note_on_c, 12, 48, 0
15, 385680, Note_on_c, 12, 48, 44
15, 385799, Note_on_c, 12, 48, 0
15, 385800, Note_on_c, 12, 49, 44
15, 386384, Note_on_c, 12, 49, 0
15, 386400, Note_on_c, 12, 50, 44
15, 386879, Note_on_c, 12, 50, 0
15, 386880, Note_on_c, 12, 49, 44
15, 386999, Note_on_c, 12, 49, 0
15, 387000, Note_on_c, 12, 48, 44
15, 387104, Note_on_c, 12, 48, 0
15, 387120, Note_on_c, 12, 48, 44
15, 387239, Note_on_c, 12, 48, 0
15, 387240, Note_on_c, 12, 49, 44
15, 387824, Note_on_c, 12, 49, 0
15, 387840, Note_on_c, 12, 50, 44
15, 388319, Note_on_c, 12, 50, 0
15, 388320, Note_on_c, 12, 49, 44
15, 388439, Note_on_c, 12, 49, 0
15, 388440, Note_on_c, 12, 48, 44
15, 388544, Note_on_c, 12, 48, 0
15, 388560, Note_on_c, 12, 48, 44
15, 388679, Note_on_c, 12, 48, 0
15, 388680, Note_on_c, 12, 49, 44
15, 389264, Note_on_c, 12, 49, 0
15, 389280, Note_on_c, 12, 50, 44
15, 389759, Note_on_c, 12, 50, 0
15, 389760, Note_on_c, 12, 49, 44
15, 389879, Note_on_c, 12, 49, 0
15, 389880, Note_on_c, 12, 48, 44
15, 389984, Note_on_c, 12, 48, 0
15, 390000, Note_on_c, 12, 48, 44
15, 390119, Note_on_c, 12, 48, 0
15, 390120, Note_on_c, 12, 49, 44
15, 390704, Note_on_c, 12, 49, 0
15, 390718, Control_c, 12, 11, 44
15, 390720, Control_c, 12, 11, 44
15, 390720, Note_on_c, 12, 50, 84
15, 390886, Control_c, 12, 11, 45
15, 391052, Control_c, 12, 11, 46
15, 391199, Note_on_c, 12, 50, 0
15, 391200, Note_on_c, 12, 49, 84
15, 391218, Control_c, 12, 11, 47
15, 391319, Note_on_c, 12, 49, 0
15, 391320, Note_on_c, 12, 48, 84
15, 391385, Control_c, 12, 11, 48
15, 391424, Note_on_c, 12, 48, 0
15, 391440, Note_on_c, 12, 48, 84
15, 391551, Control_c, 12, 11, 49
15, 391559, Note_on_c, 12, 48, 0
15, 391560, Note_on_c, 12, 49, 84
15, 391717, Control_c, 12, 11, 50
15, 391883, Control_c, 12, 11, 51
15, 392049, Control_c, 12, 11, 52
15, 392144, Note_on_c, 12, 49, 0
15, 392160, Note_on_c, 12, 50, 84
15, 392215, Control_c, 12, 11, 53
15, 392382, Control_c, 12, 11, 54
15, 392548, Control_c, 12, 11, 55
15, 392639, Note_on_c, 12, 50, 0
15, 392640, Note_on_c, 12, 49, 84
15, 392714, Control_c, 12, 11, 56
15, 392759, Note_on_c, 12, 49, 0
15, 392760, Note_on_c, 12, 48, 84
15, 392864, Note_on_c, 12, 48, 0
15, 392880, Note_on_c, 12, 48, 84
15, 392880, Control_c, 12, 11, 57
15, 392999, Note_on_c, 12, 48, 0
15, 393000, Note_on_c, 12, 49, 84
15, 393046, Control_c, 12, 11, 58
15, 393212, Control_c, 12, 11, 59
15, 393378, Control_c, 12, 11, 60
15, 393545, Control_c, 12, 11, 61
15, 393584, Note_on_c, 12, 49, 0
15, 393600, Note_on_c, 12, 50, 84
15, 393711, Control_c, 12, 11, 62
15, 393877, Control_c, 12, 11, 63
15, 394043, Control_c, 12, 11, 64
15, 394079, Note_on_c, 12, 50, 0
15, 394080, Note_on_c, 12, 49, 84
15, 394199, Note_on_c, 12, 49, 0
15, 394200, Note_on_c, 12, 48, 84
15, 394209, Control_c, 12, 11, 65
15, 394304, Note_on_c, 12, 48, 0
15, 394320, Note_on_c, 12, 48, 84
15, 394375, Control_c, 12, 11, 66
15, 394439, Note_on_c, 12, 48, 0
15, 394440, Note_on_c, 12, 49, 84
15, 394542, Control_c, 12, 11, 67
15, 394708, Control_c, 12, 11, 68
15, 394874, Control_c, 12, 11, 69
15, 395024, Note_on_c, 12, 49, 0
15, 395040, Note_on_c, 12, 50, 84
15, 395040, Control_c, 12, 11, 70
15, 395206, Control_c, 12, 11, 71
15, 395372, Control_c, 12, 11, 72
15, 395519, Note_on_c, 12, 50, 0
15, 395520, Note_on_c, 12, 49, 84
15, 395538, Control_c, 12, 11, 73
15, 395639, Note_on_c, 12, 49, 0
15, 395640, Note_on_c, 12, 48, 84
15, 395705, Control_c, 12, 11, 74
15, 395744, Note_on_c, 12, 48, 0
15, 395760, Note_on_c, 12, 48, 84
15, 395871, Control_c, 12, 11, 75
15, 395879, Note_on_c, 12, 48, 0
15, 395880, Note_on_c, 12, 49, 84
15, 396037, Control_c, 12, 11, 76
15, 396203, Control_c, 12, 11, 77
15, 396369, Control_c, 12, 11, 78
15, 396464, Note_on_c, 12, 49, 0
15, 396480, Note_on_c, 12, 50, 84
15, 396535, Control_c, 12, 11, 79
15, 396702, Control_c, 12, 11, 80
15, 396868, Control_c, 12, 11, 81
15, 396959, Note_on_c, 12, 50, 0
15, 396960, Note_on_c, 12, 49, 84
15, 397034, Control_c, 12, 11, 82
15, 397079, Note_on_c, 12, 49, 0
15, 397080, Note_on_c, 12, 48, 84
15, 397184, Note_on_c, 12, 48, 0
15, 397200, Note_on_c, 12, 48, 84
15, 397200, Control_c, 12, 11, 83
15, 397319, Note_on_c, 12, 48, 0
15, 397320, Note_on_c, 12, 49, 84
15, 397366, Control_c, 12, 11, 84
15, 397532, Control_c, 12, 11, 85
15, 397698, Control_c, 12, 11, 86
15, 397865, Control_c, 12, 11, 87
15, 397904, Note_on_c, 12, 49, 0
15, 397920, Note_on_c, 12, 50, 84
15, 398031, Control_c, 12, 11, 88
15, 398197, Control_c, 12, 11, 89
15, 398363, Control_c, 12, 11, 90
15, 398399, Note_on_c, 12, 50, 0
15, 398400, Note_on_c, 12, 49, 84
15, 398519, Note_on_c, 12, 49, 0
15, 398520, Note_on_c, 12, 48, 84
15, 398529, Control_c, 12, 11, 91
15, 398624, Note_on_c, 12, 48, 0
15, 398640, Note_on_c, 12, 48, 84
15, 398695, Control_c, 12, 11, 92
15, 398759, Note_on_c, 12, 48, 0
15, 398760, Note_on_c, 12, 49, 84
15, 398862, Control_c, 12, 11, 93
15, 399028, Control_c, 12, 11, 94
15, 399194, Control_c, 12, 11, 95
15, 399344, Note_on_c, 12, 49, 0
15, 399360, Control_c, 12, 11, 96
15, 399360, Note_on_c, 12, 50, 84
15, 399406, Control_c, 12, 11, 97
15, 399453, Control_c, 12, 11, 98
15, 399499, Control_c, 12, 11, 99
15, 399546, Control_c, 12, 11, 100
15, 399592, Control_c, 12, 11, 101
15, 399639, Control_c, 12, 11, 102
15, 399685, Control_c, 12, 11, 103
15, 399732, Control_c, 12, 11, 104
15, 399778, Control_c, 12, 11, 105
15, 399825, Control_c, 12, 11, 106
15, 399839, Note_on_c, 12, 50, 0
15, 399840, Note_on_c, 12, 49, 84
15, 399871, Control_c, 12, 11, 107
15, 399917, Control_c, 12, 11, 108
15, 399959, Note_on_c, 12, 49, 0
15, 399960, Note_on_c, 12, 48, 84
15, 399964, Control_c, 12, 11, 109
15, 400010, Control_c, 12, 11, 110
15, 400057, Control_c, 12, 11, 111
15, 400064, Note_on_c, 12, 48, 0
15, 400080, Note_on_c, 12, 50, 84
15, 400103, Control_c, 12, 11, 112
15, 400150, Control_c, 12, 11, 113
15, 400196, Control_c, 12, 11, 114
15, 400199, Note_on_c, 12, 50, 0
15, 400200, Note_on_c, 12, 49, 84
15, 400243, Control_c, 12, 11, 115
15, 400289, Control_c, 12, 11, 116
15, 400319, Note_on_c, 12, 49, 0
15, 400320, Note_on_c, 12, 48, 84
15, 400335, Control_c, 12, 11, 117
15, 400382, Control_c, 12, 11, 118
15, 400428, Control_c, 12, 11, 119
15, 400439, Note_on_c, 12, 48, 0
15, 400440, Note_on_c, 12, 50, 84
15, 400475, Control_c, 12, 11, 120
15, 400521, Control_c, 12, 11, 121
15, 400559, Note_on_c, 12, 50, 0
15, 400560, Note_on_c, 12, 49, 84
15, 400568, Control_c, 12, 11, 122
15, 400614, Control_c, 12, 11, 123
15, 400661, Control_c, 12, 11, 124
15, 400679, Note_on_c, 12, 49, 0
15, 400680, Note_on_c, 12, 48, 84
15, 400707, Control_c, 12, 11, 125
15, 400754, Control_c, 12, 11, 127
15, 400784, Note_on_c, 12, 48, 0
15, 400800, Note_on_c, 12, 49, 84
15, 400971, Note_on_c, 12, 49, 0
15, 400980, Note_on_c, 12, 61, 84
15, 401031, Note_on_c, 12, 61, 0
15, 401040, Note_on_c, 12, 61, 84
15, 401144, Note_on_c, 12, 61, 0
15, 401160, Note_on_c, 12, 61, 84
15, 401331, Note_on_c, 12, 61, 0
15, 401340, Note_on_c, 12, 61, 84
15, 401391, Note_on_c, 12, 61, 0
15, 401400, Note_on_c, 12, 61, 84
15, 401504, Note_on_c, 12, 61, 0
15, 401520, Note_on_c, 12, 61, 84
15, 401691, Note_on_c, 12, 61, 0
15, 401700, Note_on_c, 12, 61, 84
15, 401751, Note_on_c, 12, 61, 0
15, 401760, Note_on_c, 12, 61, 84
15, 401864, Note_on_c, 12, 61, 0
15, 401880, Note_on_c, 12, 61, 84
15, 402051, Note_on_c, 12, 61, 0
15, 402060, Note_on_c, 12, 61, 84
15, 402111, Note_on_c, 12, 61, 0
15, 402120, Note_on_c, 12, 61, 84
15, 402224, Note_on_c, 12, 61, 0
15, 402240, Note_on_c, 12, 50, 84
15, 402411, Note_on_c, 12, 50, 0
15, 402420, Note_on_c, 12, 62, 84
15, 402471, Note_on_c, 12, 62, 0
15, 402480, Note_on_c, 12, 62, 84
15, 402584, Note_on_c, 12, 62, 0
15, 402600, Note_on_c, 12, 62, 84
15, 402771, Note_on_c, 12, 62, 0
15, 402780, Note_on_c, 12, 62, 84
15, 402831, Note_on_c, 12, 62, 0
15, 402840, Note_on_c, 12, 62, 84
15, 402944, Note_on_c, 12, 62, 0
15, 402960, Note_on_c, 12, 62, 84
15, 403131, Note_on_c, 12, 62, 0
15, 403140, Note_on_c, 12, 62, 84
15, 403191, Note_on_c, 12, 62, 0
15, 403200, Note_on_c, 12, 62, 84
15, 403304, Note_on_c, 12, 62, 0
15, 403320, Note_on_c, 12, 62, 84
15, 403491, Note_on_c, 12, 62, 0
15, 403500, Note_on_c, 12, 62, 84
15, 403551, Note_on_c, 12, 62, 0
15, 403560, Note_on_c, 12, 62, 84
15, 403664, Note_on_c, 12, 62, 0
15, 403680, Note_on_c, 12, 64, 84
15, 403919, Note_on_c, 12, 64, 0
15, 404220, Note_on_c, 12, 69, 84
15, 404264, Note_on_c, 12, 69, 0
15, 404280, Note_on_c, 12, 64, 84
15, 404369, Note_on_c, 12, 64, 0
15, 404400, Note_on_c, 12, 64, 84
15, 404639, Note_on_c, 12, 64, 0
15, 404940, Note_on_c, 12, 76, 84
15, 404984, Note_on_c, 12, 76, 0
15, 405000, Note_on_c, 12, 73, 84
15, 405089, Note_on_c, 12, 73, 0
15, 405120, Note_on_c, 12, 73, 84
15, 405299, Note_on_c, 12, 73, 0
15, 405420, Note_on_c, 12, 69, 84
15, 405471, Note_on_c, 12, 69, 0
15, 405480, Note_on_c, 12, 64, 84
15, 405659, Note_on_c, 12, 64, 0
15, 405780, Note_on_c, 12, 64, 84
15, 405831, Note_on_c, 12, 64, 0
15, 405840, Note_on_c, 12, 61, 84
15, 406019, Note_on_c, 12, 61, 0
15, 406140, Note_on_c, 12, 61, 84
15, 406191, Note_on_c, 12, 61, 0
15, 406200, Note_on_c, 12, 57, 84
15, 406379, Note_on_c, 12, 57, 0
15, 406500, Note_on_c, 12, 57, 84
15, 406551, Note_on_c, 12, 57, 0
15, 406560, Note_on_c, 12, 54, 84
15, 406739, Note_on_c, 12, 54, 0
15, 406860, Note_on_c, 12, 54, 84
15, 406911, Note_on_c, 12, 54, 0
15, 406920, Note_on_c, 12, 52, 84
15, 407099, Note_on_c, 12, 52, 0
15, 407220, Note_on_c, 12, 52, 84
15, 407271, Note_on_c, 12, 52, 0
15, 407280, Note_on_c, 12, 51, 84
15, 407519, Note_on_c, 12, 51, 0
15, 407820, Note_on_c, 12, 51, 84
15, 407871, Note_on_c, 12, 51, 0
15, 407880, Note_on_c, 12, 51, 84
15, 407984, Note_on_c, 12, 51, 0
15, 408000, Note_on_c, 12, 51, 84
15, 408239, Note_on_c, 12, 51, 0
15, 408540, Note_on_c, 12, 51, 84
15, 408591, Note_on_c, 12, 51, 0
15, 408600, Note_on_c, 12, 51, 84
15, 408704, Note_on_c, 12, 51, 0
15, 408720, Note_on_c, 12, 50, 84
15, 408959, Note_on_c, 12, 50, 0
15, 409260, Note_on_c, 12, 50, 84
15, 409311, Note_on_c, 12, 50, 0
15, 409320, Note_on_c, 12, 50, 84
15, 409424, Note_on_c, 12, 50, 0
15, 409440, Note_on_c, 12, 50, 84
15, 409679, Note_on_c, 12, 50, 0
15, 409980, Note_on_c, 12, 50, 84
15, 410031, Note_on_c, 12, 50, 0
15, 410040, Note_on_c, 12, 50, 84
15, 410144, Note_on_c, 12, 50, 0
15, 410160, Note_on_c, 12, 49, 84
15, 410399, Note_on_c, 12, 49, 0
15, 410700, Note_on_c, 12, 50, 84
15, 410751, Note_on_c, 12, 50, 0
15, 410760, Note_on_c, 12, 50, 84
15, 410864, Note_on_c, 12, 50, 0
15, 410880, Note_on_c, 12, 52, 84
15, 411119, Note_on_c, 12, 52, 0
15, 411420, Note_on_c, 12, 53, 84
15, 411471, Note_on_c, 12, 53, 0
15, 411480, Note_on_c, 12, 53, 84
15, 411584, Note_on_c, 12, 53, 0
15, 411600, Note_on_c, 12, 54, 84
15, 411719, Note_on_c, 12, 54, 0
15, 411780, Note_on_c, 12, 50, 84
15, 411831, Note_on_c, 12, 50, 0
15, 411840, Note_on_c, 12, 50, 84
15, 411944, Note_on_c, 12, 50, 0
15, 411960, Note_on_c, 12, 50, 84
15, 412079, Note_on_c, 12, 50, 0
15, 412140, Note_on_c, 12, 52, 84
15, 412191, Note_on_c, 12, 52, 0
15, 412200, Note_on_c, 12, 52, 84
15, 412304, Note_on_c, 12, 52, 0
15, 412320, Note_on_c, 12, 52, 84
15, 412439, Note_on_c, 12, 52, 0
15, 412500, Note_on_c, 12, 53, 84
15, 412551, Note_on_c, 12, 53, 0
15, 412560, Note_on_c, 12, 53, 84
15, 412664, Note_on_c, 12, 53, 0
15, 412680, Note_on_c, 12, 53, 84
15, 412799, Note_on_c, 12, 53, 0
15, 412860, Note_on_c, 12, 54, 84
15, 412911, Note_on_c, 12, 54, 0
15, 412920, Note_on_c, 12, 54, 84
15, 413024, Note_on_c, 12, 54, 0
15, 413040, Note_on_c, 12, 54, 84
15, 413159, Note_on_c, 12, 54, 0
15, 413220, Note_on_c, 12, 50, 84
15, 413271, Note_on_c, 12, 50, 0
15, 413280, Note_on_c, 12, 50, 84
15, 413384, Note_on_c, 12, 50, 0
15, 413400, Note_on_c, 12, 50, 84
15, 413519, Note_on_c, 12, 50, 0
15, 413580, Note_on_c, 12, 52, 84
15, 413631, Note_on_c, 12, 52, 0
15, 413640, Note_on_c, 12, 52, 84
15, 413744, Note_on_c, 12, 52, 0
15, 413760, Note_on_c, 12, 52, 84
15, 413879, Note_on_c, 12, 52, 0
15, 413940, Note_on_c, 12, 64, 84
15, 413991, Note_on_c, 12, 64, 0
15, 414000, Note_on_c, 12, 64, 84
15, 414104, Note_on_c, 12, 64, 0
15, 414120, Note_on_c, 12, 64, 84
15, 414239, Note_on_c, 12, 64, 0
15, 414300, Note_on_c, 12, 57, 84
15, 414351, Note_on_c, 12, 57, 0
15, 414360, Note_on_c, 12, 57, 84
15, 414464, Note_on_c, 12, 57, 0
15, 414480, Note_on_c, 12, 57, 84
15, 414719, Note_on_c, 12, 57, 0
15, 415200, Note_on_c, 12, 64, 84
15, 415319, Note_on_c, 12, 64, 0
15, 415380, Note_on_c, 12, 64, 84
15, 415431, Note_on_c, 12, 64, 0
15, 415440, Note_on_c, 12, 64, 84
15, 415544, Note_on_c, 12, 64, 0
15, 415560, Note_on_c, 12, 64, 84
15, 415679, Note_on_c, 12, 64, 0
15, 415740, Note_on_c, 12, 64, 84
15, 415791, Note_on_c, 12, 64, 0
15, 415800, Note_on_c, 12, 64, 84
15, 415904, Note_on_c, 12, 64, 0
15, 415920, Note_on_c, 12, 57, 84
15, 416159, Note_on_c, 12, 57, 0
15, 416640, Note_on_c, 12, 64, 84
15, 416759, Note_on_c, 12, 64, 0
15, 416820, Note_on_c, 12, 64, 84
15, 416871, Note_on_c, 12, 64, 0
15, 416880, Note_on_c, 12, 64, 84
15, 416984, Note_on_c, 12, 64, 0
15, 417000, Note_on_c, 12, 64, 84
15, 417119, Note_on_c, 12, 64, 0
15, 417180, Note_on_c, 12, 64, 84
15, 417231, Note_on_c, 12, 64, 0
15, 417240, Note_on_c, 12, 64, 84
15, 417344, Note_on_c, 12, 64, 0
15, 417360, Note_on_c, 12, 57, 84
15, 417479, Note_on_c, 12, 57, 0
15, 417540, Note_on_c, 12, 69, 84
15, 417591, Note_on_c, 12, 69, 0
15, 417600, Note_on_c, 12, 69, 84
15, 417704, Note_on_c, 12, 69, 0
15, 417720, Note_on_c, 12, 69, 84
15, 417839, Note_on_c, 12, 69, 0
15, 417900, Note_on_c, 12, 57, 84
15, 417951, Note_on_c, 12, 57, 0
15, 417960, Note_on_c, 12, 57, 84
15, 418064, Note_on_c, 12, 57, 0
15, 418080, Note_on_c, 12, 57, 84
15, 418199, Note_on_c, 12, 57, 0
15, 418260, Note_on_c, 12, 57, 84
15, 418311, Note_on_c, 12, 57, 0
15, 418320, Note_on_c, 12, 57, 84
15, 418424, Note_on_c, 12, 57, 0
15, 418440, Note_on_c, 12, 57, 84
15, 418559, Note_on_c, 12, 57, 0
15, 418620, Note_on_c, 12, 57, 84
15, 418671, Note_on_c, 12, 57, 0
15, 418680, Note_on_c, 12, 57, 84
15, 418784, Note_on_c, 12, 57, 0
15, 418800, Note_on_c, 12, 57, 84
15, 419039, Note_on_c, 12, 57, 0
15, 419520, Note_on_c, 12, 64, 84
15, 419520, Note_on_c, 12, 76, 84
15, 419759, Note_on_c, 12, 64, 0
15, 419759, Note_on_c, 12, 76, 0
15, 420240, Note_on_c, 12, 73, 84
15, 420240, Note_on_c, 12, 57, 84
15, 420240, Note_on_c, 12, 64, 84
15, 420479, Note_on_c, 12, 73, 0
15, 420479, Note_on_c, 12, 57, 0
15, 420479, Note_on_c, 12, 64, 0
15, 420479, End_track
16, 0, Start_track
16, 0, Title_t, "Cello"
16, 0, MIDI_port, 0
16, 0, Control_c, 14, 7, 96
16, 0, Control_c, 14, 10, 90
16, 0, Program_c, 14, 48
16, 0, Control_c, 14, 11, 127
16, 0, Note_on_c, 14, 45, 76
16, 179, Note_on_c, 14, 45, 0
16, 1920, Note_on_c, 14, 44, 76
16, 2099, Note_on_c, 14, 44, 0
16, 3840, Note_on_c, 14, 43, 76
16, 4019, Note_on_c, 14, 43, 0
16, 5760, Note_on_c, 14, 42, 76
16, 5939, Note_on_c, 14, 42, 0
16, 6240, Note_on_c, 14, 54, 52
16, 6479, Note_on_c, 14, 54, 0
16, 6720, Note_on_c, 14, 53, 52
16, 6959, Note_on_c, 14, 53, 0
16, 7200, Note_on_c, 14, 52, 52
16, 7439, Note_on_c, 14, 52, 0
16, 7680, Note_on_c, 14, 53, 52
16, 7680, Control_c, 14, 11, 127
16, 7744, Control_c, 14, 11, 126
16, 7808, Control_c, 14, 11, 125
16, 7872, Control_c, 14, 11, 124
16, 7919, Note_on_c, 14, 53, 0
16, 7936, Control_c, 14, 11, 123
16, 8000, Control_c, 14, 11, 122
16, 8064, Control_c, 14, 11, 121
16, 8128, Control_c, 14, 11, 120
16, 8192, Control_c, 14, 11, 119
16, 8256, Control_c, 14, 11, 118
16, 8320, Control_c, 14, 11, 117
16, 8384, Control_c, 14, 11, 116
16, 8400, Note_on_c, 14, 53, 52
16, 8448, Control_c, 14, 11, 115
16, 8453, Note_on_c, 14, 53, 0
16, 8460, Note_on_c, 14, 53, 52
16, 8512, Control_c, 14, 11, 114
16, 8513, Note_on_c, 14, 53, 0
16, 8520, Note_on_c, 14, 53, 52
16, 8573, Note_on_c, 14, 53, 0
16, 8576, Control_c, 14, 11, 113
16, 8580, Note_on_c, 14, 53, 52
16, 8633, Note_on_c, 14, 53, 0
16, 8638, Control_c, 14, 11, 112
16, 8640, Note_on_c, 14, 52, 52
16, 8693, Note_on_c, 14, 52, 0
16, 8700, Note_on_c, 14, 52, 52
16, 8753, Note_on_c, 14, 52, 0
16, 8760, Note_on_c, 14, 52, 52
16, 8813, Note_on_c, 14, 52, 0
16, 8820, Note_on_c, 14, 52, 52
16, 8873, Note_on_c, 14, 52, 0
16, 8880, Note_on_c, 14, 52, 52
16, 8933, Note_on_c, 14, 52, 0
16, 8940, Note_on_c, 14, 52, 52
16, 8993, Note_on_c, 14, 52, 0
16, 9000, Note_on_c, 14, 52, 52
16, 9053, Note_on_c, 14, 52, 0
16, 9060, Note_on_c, 14, 52, 52
16, 9113, Note_on_c, 14, 52, 0
16, 9120, Note_on_c, 14, 52, 52
16, 9173, Note_on_c, 14, 52, 0
16, 9180, Note_on_c, 14, 52, 52
16, 9233, Note_on_c, 14, 52, 0
16, 9240, Note_on_c, 14, 52, 52
16, 9293, Note_on_c, 14, 52, 0
16, 9300, Note_on_c, 14, 52, 52
16, 9353, Note_on_c, 14, 52, 0
16, 9360, Note_on_c, 14, 52, 52
16, 9413, Note_on_c, 14, 52, 0
16, 9420, Note_on_c, 14, 52, 52
16, 9473, Note_on_c, 14, 52, 0
16, 9480, Note_on_c, 14, 52, 52
16, 9533, Note_on_c, 14, 52, 0
16, 9540, Note_on_c, 14, 52, 52
16, 9593, Note_on_c, 14, 52, 0
16, 9600, Note_on_c, 14, 52, 52
16, 9839, Note_on_c, 14, 52, 0
16, 10320, Control_c, 14, 11, 127
16, 10560, Note_on_c, 14, 52, 44
16, 10613, Note_on_c, 14, 52, 0
16, 10620, Note_on_c, 14, 52, 44
16, 10673, Note_on_c, 14, 52, 0
16, 10680, Note_on_c, 14, 52, 44
16, 10733, Note_on_c, 14, 52, 0
16, 10740, Note_on_c, 14, 52, 44
16, 10793, Note_on_c, 14, 52, 0
16, 10800, Note_on_c, 14, 52, 44
16, 10853, Note_on_c, 14, 52, 0
16, 10860, Note_on_c, 14, 52, 44
16, 10913, Note_on_c, 14, 52, 0
16, 10920, Note_on_c, 14, 52, 44
16, 10973, Note_on_c, 14, 52, 0
16, 10980, Note_on_c, 14, 52, 44
16, 11033, Note_on_c, 14, 52, 0
16, 11040, Note_on_c, 14, 52, 44
16, 11093, Note_on_c, 14, 52, 0
16, 11100, Note_on_c, 14, 52, 44
16, 11153, Note_on_c, 14, 52, 0
16, 11160, Note_on_c, 14, 52, 44
16, 11213, Note_on_c, 14, 52, 0
16, 11220, Note_on_c, 14, 52, 44
16, 11273, Note_on_c, 14, 52, 0
16, 11280, Note_on_c, 14, 52, 44
16, 11333, Note_on_c, 14, 52, 0
16, 11340, Note_on_c, 14, 52, 44
16, 11393, Note_on_c, 14, 52, 0
16, 11400, Note_on_c, 14, 52, 44
16, 11453, Note_on_c, 14, 52, 0
16, 11460, Note_on_c, 14, 52, 44
16, 11513, Note_on_c, 14, 52, 0
16, 11520, Note_on_c, 14, 52, 44
16, 11759, Note_on_c, 14, 52, 0
16, 12480, Note_on_c, 14, 52, 44
16, 12533, Note_on_c, 14, 52, 0
16, 12540, Note_on_c, 14, 52, 46
16, 12593, Note_on_c, 14, 52, 0
16, 12600, Note_on_c, 14, 52, 49
16, 12653, Note_on_c, 14, 52, 0
16, 12660, Note_on_c, 14, 52, 51
16, 12713, Note_on_c, 14, 52, 0
16, 12720, Note_on_c, 14, 52, 54
16, 12773, Note_on_c, 14, 52, 0
16, 12780, Note_on_c, 14, 52, 56
16, 12833, Note_on_c, 14, 52, 0
16, 12840, Note_on_c, 14, 52, 59
16, 12893, Note_on_c, 14, 52, 0
16, 12900, Note_on_c, 14, 52, 61
16, 12953, Note_on_c, 14, 52, 0
16, 12960, Note_on_c, 14, 52, 64
16, 13013, Note_on_c, 14, 52, 0
16, 13020, Note_on_c, 14, 52, 66
16, 13073, Note_on_c, 14, 52, 0
16, 13080, Note_on_c, 14, 52, 69
16, 13133, Note_on_c, 14, 52, 0
16, 13140, Note_on_c, 14, 52, 71
16, 13193, Note_on_c, 14, 52, 0
16, 13200, Note_on_c, 14, 52, 74
16, 13253, Note_on_c, 14, 52, 0
16, 13260, Note_on_c, 14, 52, 76
16, 13313, Note_on_c, 14, 52, 0
16, 13320, Note_on_c, 14, 52, 79
16, 13373, Note_on_c, 14, 52, 0
16, 13380, Note_on_c, 14, 52, 81
16, 13433, Note_on_c, 14, 52, 0
16, 13440, Note_on_c, 14, 45, 84
16, 13493, Note_on_c, 14, 45, 0
16, 13500, Note_on_c, 14, 45, 84
16, 13553, Note_on_c, 14, 45, 0
16, 13560, Note_on_c, 14, 47, 84
16, 13613, Note_on_c, 14, 47, 0
16, 13620, Note_on_c, 14, 49, 84
16, 13673, Note_on_c, 14, 49, 0
16, 13680, Note_on_c, 14, 50, 84
16, 13733, Note_on_c, 14, 50, 0
16, 13740, Note_on_c, 14, 52, 84
16, 13793, Note_on_c, 14, 52, 0
16, 13800, Note_on_c, 14, 54, 84
16, 13853, Note_on_c, 14, 54, 0
16, 13860, Note_on_c, 14, 56, 84
16, 13913, Note_on_c, 14, 56, 0
16, 13920, Note_on_c, 14, 57, 84
16, 13973, Note_on_c, 14, 57, 0
16, 13980, Note_on_c, 14, 59, 84
16, 14033, Note_on_c, 14, 59, 0
16, 14040, Note_on_c, 14, 61, 84
16, 14093, Note_on_c, 14, 61, 0
16, 14100, Note_on_c, 14, 62, 84
16, 14153, Note_on_c, 14, 62, 0
16, 14160, Note_on_c, 14, 64, 84
16, 14213, Note_on_c, 14, 64, 0
16, 14220, Note_on_c, 14, 66, 84
16, 14273, Note_on_c, 14, 66, 0
16, 14280, Note_on_c, 14, 68, 84
16, 14333, Note_on_c, 14, 68, 0
16, 14340, Note_on_c, 14, 69, 84
16, 14393, Note_on_c, 14, 69, 0
16, 14400, Note_on_c, 14, 45, 84
16, 14639, Note_on_c, 14, 45, 0
16, 15360, Note_on_c, 14, 44, 84
16, 15413, Note_on_c, 14, 44, 0
16, 15420, Note_on_c, 14, 44, 84
16, 15473, Note_on_c, 14, 44, 0
16, 15480, Note_on_c, 14, 45, 84
16, 15533, Note_on_c, 14, 45, 0
16, 15540, Note_on_c, 14, 47, 84
16, 15593, Note_on_c, 14, 47, 0
16, 15600, Note_on_c, 14, 49, 84
16, 15653, Note_on_c, 14, 49, 0
16, 15660, Note_on_c, 14, 50, 84
16, 15713, Note_on_c, 14, 50, 0
16, 15720, Note_on_c, 14, 52, 84
16, 15773, Note_on_c, 14, 52, 0
16, 15780, Note_on_c, 14, 54, 84
16, 15833, Note_on_c, 14, 54, 0
16, 15840, Note_on_c, 14, 56, 84
16, 15893, Note_on_c, 14, 56, 0
16, 15900, Note_on_c, 14, 57, 84
16, 15953, Note_on_c, 14, 57, 0
16, 15960, Note_on_c, 14, 59, 84
16, 16013, Note_on_c, 14, 59, 0
16, 16020, Note_on_c, 14, 61, 84
16, 16073, Note_on_c, 14, 61, 0
16, 16080, Note_on_c, 14, 62, 84
16, 16133, Note_on_c, 14, 62, 0
16, 16140, Note_on_c, 14, 64, 84
16, 16193, Note_on_c, 14, 64, 0
16, 16200, Note_on_c, 14, 66, 84
16, 16253, Note_on_c, 14, 66, 0
16, 16260, Note_on_c, 14, 68, 84
16, 16313, Note_on_c, 14, 68, 0
16, 16320, Note_on_c, 14, 43, 84
16, 16559, Note_on_c, 14, 43, 0
16, 17280, Note_on_c, 14, 42, 84
16, 17333, Note_on_c, 14, 42, 0
16, 17340, Note_on_c, 14, 42, 84
16, 17393, Note_on_c, 14, 42, 0
16, 17400, Note_on_c, 14, 43, 84
16, 17453, Note_on_c, 14, 43, 0
16, 17460, Note_on_c, 14, 45, 84
16, 17513, Note_on_c, 14, 45, 0
16, 17520, Note_on_c, 14, 47, 84
16, 17573, Note_on_c, 14, 47, 0
16, 17580, Note_on_c, 14, 49, 84
16, 17633, Note_on_c, 14, 49, 0
16, 17640, Note_on_c, 14, 50, 84
16, 17693, Note_on_c, 14, 50, 0
16, 17700, Note_on_c, 14, 52, 84
16, 17753, Note_on_c, 14, 52, 0
16, 17760, Note_on_c, 14, 54, 84
16, 17813, Note_on_c, 14, 54, 0
16, 17820, Note_on_c, 14, 55, 84
16, 17873, Note_on_c, 14, 55, 0
16, 17880, Note_on_c, 14, 57, 84
16, 17933, Note_on_c, 14, 57, 0
16, 17940, Note_on_c, 14, 59, 84
16, 17993, Note_on_c, 14, 59, 0
16, 18000, Note_on_c, 14, 61, 84
16, 18053, Note_on_c, 14, 61, 0
16, 18060, Note_on_c, 14, 62, 84
16, 18113, Note_on_c, 14, 62, 0
16, 18120, Note_on_c, 14, 64, 84
16, 18173, Note_on_c, 14, 64, 0
16, 18180, Note_on_c, 14, 66, 84
16, 18233, Note_on_c, 14, 66, 0
16, 18240, Note_on_c, 14, 41, 84
16, 18479, Note_on_c, 14, 41, 0
16, 19200, Note_on_c, 14, 41, 84
16, 19253, Note_on_c, 14, 41, 0
16, 19260, Note_on_c, 14, 41, 84
16, 19313, Note_on_c, 14, 41, 0
16, 19320, Note_on_c, 14, 43, 84
16, 19373, Note_on_c, 14, 43, 0
16, 19380, Note_on_c, 14, 45, 84
16, 19433, Note_on_c, 14, 45, 0
16, 19440, Note_on_c, 14, 47, 84
16, 19493, Note_on_c, 14, 47, 0
16, 19500, Note_on_c, 14, 48, 84
16, 19553, Note_on_c, 14, 48, 0
16, 19560, Note_on_c, 14, 50, 84
16, 19613, Note_on_c, 14, 50, 0
16, 19620, Note_on_c, 14, 52, 84
16, 19673, Note_on_c, 14, 52, 0
16, 19680, Note_on_c, 14, 53, 84
16, 19733, Note_on_c, 14, 53, 0
16, 19740, Note_on_c, 14, 55, 84
16, 19793, Note_on_c, 14, 55, 0
16, 19800, Note_on_c, 14, 57, 84
16, 19853, Note_on_c, 14, 57, 0
16, 19860, Note_on_c, 14, 59, 84
16, 19913, Note_on_c, 14, 59, 0
16, 19920, Note_on_c, 14, 60, 84
16, 19973, Note_on_c, 14, 60, 0
16, 19980, Note_on_c, 14, 62, 84
16, 20033, Note_on_c, 14, 62, 0
16, 20040, Note_on_c, 14, 64, 84
16, 20093, Note_on_c, 14, 64, 0
16, 20100, Note_on_c, 14, 65, 84
16, 20153, Note_on_c, 14, 65, 0
16, 20160, Note_on_c, 14, 40, 84
16, 20160, Control_c, 14, 11, 127
16, 20200, Control_c, 14, 11, 124
16, 20240, Control_c, 14, 11, 122
16, 20280, Control_c, 14, 11, 119
16, 20320, Control_c, 14, 11, 117
16, 20360, Control_c, 14, 11, 114
16, 20399, Note_on_c, 14, 40, 0
16, 20400, Control_c, 14, 11, 111
16, 20440, Control_c, 14, 11, 109
16, 20480, Control_c, 14, 11, 106
16, 20520, Control_c, 14, 11, 103
16, 20560, Control_c, 14, 11, 101
16, 20600, Control_c, 14, 11, 98
16, 20640, Control_c, 14, 11, 96
16, 20640, Note_on_c, 14, 48, 84
16, 20680, Control_c, 14, 11, 93
16, 20693, Note_on_c, 14, 48, 0
16, 20700, Note_on_c, 14, 48, 84
16, 20720, Control_c, 14, 11, 90
16, 20753, Note_on_c, 14, 48, 0
16, 20760, Note_on_c, 14, 48, 84
16, 20760, Control_c, 14, 11, 88
16, 20800, Control_c, 14, 11, 85
16, 20813, Note_on_c, 14, 48, 0
16, 20820, Note_on_c, 14, 48, 84
16, 20840, Control_c, 14, 11, 82
16, 20873, Note_on_c, 14, 48, 0
16, 20880, Note_on_c, 14, 52, 84
16, 20880, Control_c, 14, 11, 80
16, 20920, Control_c, 14, 11, 77
16, 20933, Note_on_c, 14, 52, 0
16, 20940, Note_on_c, 14, 52, 84
16, 20960, Control_c, 14, 11, 75
16, 20993, Note_on_c, 14, 52, 0
16, 21000, Note_on_c, 14, 52, 84
16, 21000, Control_c, 14, 11, 72
16, 21040, Control_c, 14, 11, 69
16, 21053, Note_on_c, 14, 52, 0
16, 21060, Note_on_c, 14, 52, 84
16, 21080, Control_c, 14, 11, 67
16, 21113, Note_on_c, 14, 52, 0
16, 21118, Control_c, 14, 11, 64
16, 21120, Note_on_c, 14, 55, 84
16, 21359, Note_on_c, 14, 55, 0
16, 26640, Control_c, 14, 11, 127
16, 26880, Note_on_c, 14, 47, 44
16, 26933, Note_on_c, 14, 47, 0
16, 26940, Note_on_c, 14, 47, 44
16, 26993, Note_on_c, 14, 47, 0
16, 27000, Note_on_c, 14, 47, 44
16, 27053, Note_on_c, 14, 47, 0
16, 27060, Note_on_c, 14, 47, 44
16, 27113, Note_on_c, 14, 47, 0
16, 27120, Note_on_c, 14, 47, 44
16, 27173, Note_on_c, 14, 47, 0
16, 27180, Note_on_c, 14, 47, 44
16, 27233, Note_on_c, 14, 47, 0
16, 27240, Note_on_c, 14, 47, 44
16, 27293, Note_on_c, 14, 47, 0
16, 27300, Note_on_c, 14, 47, 44
16, 27353, Note_on_c, 14, 47, 0
16, 27360, Note_on_c, 14, 47, 44
16, 27479, Note_on_c, 14, 47, 0
16, 27840, Note_on_c, 14, 36, 44
16, 27893, Note_on_c, 14, 36, 0
16, 27900, Note_on_c, 14, 36, 44
16, 27953, Note_on_c, 14, 36, 0
16, 27960, Note_on_c, 14, 36, 44
16, 28013, Note_on_c, 14, 36, 0
16, 28020, Note_on_c, 14, 36, 44
16, 28073, Note_on_c, 14, 36, 0
16, 28080, Note_on_c, 14, 36, 44
16, 28133, Note_on_c, 14, 36, 0
16, 28140, Note_on_c, 14, 36, 44
16, 28193, Note_on_c, 14, 36, 0
16, 28200, Note_on_c, 14, 36, 44
16, 28253, Note_on_c, 14, 36, 0
16, 28260, Note_on_c, 14, 36, 44
16, 28313, Note_on_c, 14, 36, 0
16, 28320, Note_on_c, 14, 36, 44
16, 28439, Note_on_c, 14, 36, 0
16, 28800, Note_on_c, 14, 47, 44
16, 28853, Note_on_c, 14, 47, 0
16, 28860, Note_on_c, 14, 47, 44
16, 28913, Note_on_c, 14, 47, 0
16, 28920, Note_on_c, 14, 47, 44
16, 28973, Note_on_c, 14, 47, 0
16, 28980, Note_on_c, 14, 47, 44
16, 29033, Note_on_c, 14, 47, 0
16, 29040, Note_on_c, 14, 47, 44
16, 29093, Note_on_c, 14, 47, 0
16, 29100, Note_on_c, 14, 47, 44
16, 29153, Note_on_c, 14, 47, 0
16, 29160, Note_on_c, 14, 47, 44
16, 29213, Note_on_c, 14, 47, 0
16, 29220, Note_on_c, 14, 47, 44
16, 29273, Note_on_c, 14, 47, 0
16, 29280, Note_on_c, 14, 47, 44
16, 29399, Note_on_c, 14, 47, 0
16, 29760, Note_on_c, 14, 36, 44
16, 29813, Note_on_c, 14, 36, 0
16, 29820, Note_on_c, 14, 36, 44
16, 29873, Note_on_c, 14, 36, 0
16, 29880, Note_on_c, 14, 36, 44
16, 29933, Note_on_c, 14, 36, 0
16, 29940, Note_on_c, 14, 36, 44
16, 29993, Note_on_c, 14, 36, 0
16, 30000, Note_on_c, 14, 36, 44
16, 30053, Note_on_c, 14, 36, 0
16, 30060, Note_on_c, 14, 36, 44
16, 30113, Note_on_c, 14, 36, 0
16, 30120, Note_on_c, 14, 36, 44
16, 30173, Note_on_c, 14, 36, 0
16, 30180, Note_on_c, 14, 36, 44
16, 30233, Note_on_c, 14, 36, 0
16, 30240, Note_on_c, 14, 40, 44
16, 30359, Note_on_c, 14, 40, 0
16, 30720, Note_on_c, 14, 41, 57
16, 30773, Note_on_c, 14, 41, 0
16, 30780, Note_on_c, 14, 41, 59
16, 30833, Note_on_c, 14, 41, 0
16, 30840, Note_on_c, 14, 41, 60
16, 30893, Note_on_c, 14, 41, 0
16, 30900, Note_on_c, 14, 41, 62
16, 30953, Note_on_c, 14, 41, 0
16, 30960, Note_on_c, 14, 42, 64
16, 31079, Note_on_c, 14, 42, 0
16, 31200, Note_on_c, 14, 42, 70
16, 31253, Note_on_c, 14, 42, 0
16, 31260, Note_on_c, 14, 42, 72
16, 31313, Note_on_c, 14, 42, 0
16, 31320, Note_on_c, 14, 42, 74
16, 31373, Note_on_c, 14, 42, 0
16, 31380, Note_on_c, 14, 42, 75
16, 31433, Note_on_c, 14, 42, 0
16, 31440, Note_on_c, 14, 43, 77
16, 31559, Note_on_c, 14, 43, 0
16, 31680, Note_on_c, 14, 44, 84
16, 31733, Note_on_c, 14, 44, 0
16, 31740, Note_on_c, 14, 44, 84
16, 31793, Note_on_c, 14, 44, 0
16, 31800, Note_on_c, 14, 45, 84
16, 31853, Note_on_c, 14, 45, 0
16, 31860, Note_on_c, 14, 47, 84
16, 31913, Note_on_c, 14, 47, 0
16, 31920, Note_on_c, 14, 49, 84
16, 31973, Note_on_c, 14, 49, 0
16, 31980, Note_on_c, 14, 50, 84
16, 32033, Note_on_c, 14, 50, 0
16, 32040, Note_on_c, 14, 52, 84
16, 32093, Note_on_c, 14, 52, 0
16, 32100, Note_on_c, 14, 54, 84
16, 32153, Note_on_c, 14, 54, 0
16, 32160, Note_on_c, 14, 56, 84
16, 32213, Note_on_c, 14, 56, 0
16, 32220, Note_on_c, 14, 57, 84
16, 32273, Note_on_c, 14, 57, 0
16, 32280, Note_on_c, 14, 59, 84
16, 32333, Note_on_c, 14, 59, 0
16, 32340, Note_on_c, 14, 61, 84
16, 32393, Note_on_c, 14, 61, 0
16, 32400, Note_on_c, 14, 62, 84
16, 32453, Note_on_c, 14, 62, 0
16, 32460, Note_on_c, 14, 64, 84
16, 32513, Note_on_c, 14, 64, 0
16, 32520, Note_on_c, 14, 66, 84
16, 32573, Note_on_c, 14, 66, 0
16, 32580, Note_on_c, 14, 68, 84
16, 32633, Note_on_c, 14, 68, 0
16, 32640, Note_on_c, 14, 44, 84
16, 32879, Note_on_c, 14, 44, 0
16, 33600, Note_on_c, 14, 46, 84
16, 33653, Note_on_c, 14, 46, 0
16, 33660, Note_on_c, 14, 46, 84
16, 33713, Note_on_c, 14, 46, 0
16, 33720, Note_on_c, 14, 47, 84
16, 33773, Note_on_c, 14, 47, 0
16, 33780, Note_on_c, 14, 49, 84
16, 33833, Note_on_c, 14, 49, 0
16, 33840, Note_on_c, 14, 50, 84
16, 33893, Note_on_c, 14, 50, 0
16, 33900, Note_on_c, 14, 52, 84
16, 33953, Note_on_c, 14, 52, 0
16, 33960, Note_on_c, 14, 54, 84
16, 34013, Note_on_c, 14, 54, 0
16, 34020, Note_on_c, 14, 56, 84
16, 34073, Note_on_c, 14, 56, 0
16, 34080, Note_on_c, 14, 58, 84
16, 34133, Note_on_c, 14, 58, 0
16, 34140, Note_on_c, 14, 59, 84
16, 34193, Note_on_c, 14, 59, 0
16, 34200, Note_on_c, 14, 61, 84
16, 34253, Note_on_c, 14, 61, 0
16, 34260, Note_on_c, 14, 62, 84
16, 34313, Note_on_c, 14, 62, 0
16, 34320, Note_on_c, 14, 64, 84
16, 34373, Note_on_c, 14, 64, 0
16, 34380, Note_on_c, 14, 52, 84
16, 34433, Note_on_c, 14, 52, 0
16, 34440, Note_on_c, 14, 54, 84
16, 34493, Note_on_c, 14, 54, 0
16, 34500, Note_on_c, 14, 56, 84
16, 34553, Note_on_c, 14, 56, 0
16, 34560, Note_on_c, 14, 58, 84
16, 34799, Note_on_c, 14, 58, 0
16, 35520, Note_on_c, 14, 47, 84
16, 35573, Note_on_c, 14, 47, 0
16, 35580, Note_on_c, 14, 47, 84
16, 35633, Note_on_c, 14, 47, 0
16, 35640, Note_on_c, 14, 49, 84
16, 35693, Note_on_c, 14, 49, 0
16, 35700, Note_on_c, 14, 51, 84
16, 35753, Note_on_c, 14, 51, 0
16, 35760, Note_on_c, 14, 52, 84
16, 35813, Note_on_c, 14, 52, 0
16, 35820, Note_on_c, 14, 54, 84
16, 35873, Note_on_c, 14, 54, 0
16, 35880, Note_on_c, 14, 55, 84
16, 35933, Note_on_c, 14, 55, 0
16, 35940, Note_on_c, 14, 57, 84
16, 35993, Note_on_c, 14, 57, 0
16, 36000, Note_on_c, 14, 59, 84
16, 36053, Note_on_c, 14, 59, 0
16, 36060, Note_on_c, 14, 59, 84
16, 36113, Note_on_c, 14, 59, 0
16, 36120, Note_on_c, 14, 61, 84
16, 36173, Note_on_c, 14, 61, 0
16, 36180, Note_on_c, 14, 63, 84
16, 36233, Note_on_c, 14, 63, 0
16, 36240, Note_on_c, 14, 64, 84
16, 36293, Note_on_c, 14, 64, 0
16, 36300, Note_on_c, 14, 54, 84
16, 36353, Note_on_c, 14, 54, 0
16, 36360, Note_on_c, 14, 55, 84
16, 36413, Note_on_c, 14, 55, 0
16, 36420, Note_on_c, 14, 57, 84
16, 36473, Note_on_c, 14, 57, 0
16, 36480, Note_on_c, 14, 59, 84
16, 36719, Note_on_c, 14, 59, 0
16, 37440, Note_on_c, 14, 36, 84
16, 37493, Note_on_c, 14, 36, 0
16, 37500, Note_on_c, 14, 36, 84
16, 37553, Note_on_c, 14, 36, 0
16, 37560, Note_on_c, 14, 38, 84
16, 37613, Note_on_c, 14, 38, 0
16, 37620, Note_on_c, 14, 40, 84
16, 37673, Note_on_c, 14, 40, 0
16, 37680, Note_on_c, 14, 41, 84
16, 37733, Note_on_c, 14, 41, 0
16, 37740, Note_on_c, 14, 43, 84
16, 37793, Note_on_c, 14, 43, 0
16, 37800, Note_on_c, 14, 45, 84
16, 37853, Note_on_c, 14, 45, 0
16, 37860, Note_on_c, 14, 47, 84
16, 37913, Note_on_c, 14, 47, 0
16, 37920, Note_on_c, 14, 48, 84
16, 37973, Note_on_c, 14, 48, 0
16, 37980, Note_on_c, 14, 50, 84
16, 38033, Note_on_c, 14, 50, 0
16, 38040, Note_on_c, 14, 52, 84
16, 38093, Note_on_c, 14, 52, 0
16, 38100, Note_on_c, 14, 53, 84
16, 38153, Note_on_c, 14, 53, 0
16, 38160, Note_on_c, 14, 55, 84
16, 38213, Note_on_c, 14, 55, 0
16, 38220, Note_on_c, 14, 57, 84
16, 38273, Note_on_c, 14, 57, 0
16, 38280, Note_on_c, 14, 59, 84
16, 38333, Note_on_c, 14, 59, 0
16, 38340, Note_on_c, 14, 60, 84
16, 38393, Note_on_c, 14, 60, 0
16, 38400, Note_on_c, 14, 36, 84
16, 38400, Control_c, 14, 11, 127
16, 38440, Control_c, 14, 11, 124
16, 38480, Control_c, 14, 11, 122
16, 38520, Control_c, 14, 11, 119
16, 38560, Control_c, 14, 11, 117
16, 38600, Control_c, 14, 11, 114
16, 38639, Note_on_c, 14, 36, 0
16, 38640, Control_c, 14, 11, 111
16, 38680, Control_c, 14, 11, 109
16, 38720, Control_c, 14, 11, 106
16, 38760, Control_c, 14, 11, 103
16, 38800, Control_c, 14, 11, 101
16, 38840, Control_c, 14, 11, 98
16, 38880, Note_on_c, 14, 48, 84
16, 38880, Control_c, 14, 11, 96
16, 38920, Control_c, 14, 11, 93
16, 38933, Note_on_c, 14, 48, 0
16, 38940, Note_on_c, 14, 48, 84
16, 38960, Control_c, 14, 11, 90
16, 38993, Note_on_c, 14, 48, 0
16, 39000, Note_on_c, 14, 48, 84
16, 39000, Control_c, 14, 11, 88
16, 39040, Control_c, 14, 11, 85
16, 39053, Note_on_c, 14, 48, 0
16, 39060, Note_on_c, 14, 48, 84
16, 39080, Control_c, 14, 11, 82
16, 39113, Note_on_c, 14, 48, 0
16, 39120, Control_c, 14, 11, 80
16, 39120, Note_on_c, 14, 60, 84
16, 39160, Control_c, 14, 11, 77
16, 39173, Note_on_c, 14, 60, 0
16, 39180, Note_on_c, 14, 60, 84
16, 39200, Control_c, 14, 11, 75
16, 39233, Note_on_c, 14, 60, 0
16, 39240, Control_c, 14, 11, 72
16, 39240, Note_on_c, 14, 60, 84
16, 39280, Control_c, 14, 11, 69
16, 39293, Note_on_c, 14, 60, 0
16, 39300, Note_on_c, 14, 60, 84
16, 39320, Control_c, 14, 11, 67
16, 39353, Note_on_c, 14, 60, 0
16, 39358, Control_c, 14, 11, 64
16, 39360, Note_on_c, 14, 60, 84
16, 39599, Note_on_c, 14, 60, 0
16, 40080, Program_c, 14, 45
16, 40080, Control_c, 14, 11, 127
16, 40320, Note_on_c, 14, 53, 48
16, 40559, Note_on_c, 14, 53, 0
16, 40800, Note_on_c, 14, 57, 48
16, 41039, Note_on_c, 14, 57, 0
16, 41280, Note_on_c, 14, 60, 48
16, 41519, Note_on_c, 14, 60, 0
16, 42240, Note_on_c, 14, 53, 48
16, 42479, Note_on_c, 14, 53, 0
16, 42720, Note_on_c, 14, 57, 48
16, 42959, Note_on_c, 14, 57, 0
16, 43200, Note_on_c, 14, 46, 48
16, 43439, Note_on_c, 14, 46, 0
16, 43680, Note_on_c, 14, 58, 48
16, 43919, Note_on_c, 14, 58, 0
16, 44160, Note_on_c, 14, 48, 48
16, 44399, Note_on_c, 14, 48, 0
16, 44640, Note_on_c, 14, 48, 48
16, 44879, Note_on_c, 14, 48, 0
16, 44880, Program_c, 14, 48
16, 45120, Note_on_c, 14, 40, 44
16, 45173, Note_on_c, 14, 40, 0
16, 45180, Note_on_c, 14, 40, 44
16, 45233, Note_on_c, 14, 40, 0
16, 45240, Note_on_c, 14, 40, 44
16, 45293, Note_on_c, 14, 40, 0
16, 45300, Note_on_c, 14, 40, 44
16, 45353, Note_on_c, 14, 40, 0
16, 45360, Note_on_c, 14, 40, 44
16, 45413, Note_on_c, 14, 40, 0
16, 45420, Note_on_c, 14, 40, 44
16, 45473, Note_on_c, 14, 40, 0
16, 45480, Note_on_c, 14, 40, 44
16, 45533, Note_on_c, 14, 40, 0
16, 45540, Note_on_c, 14, 40, 44
16, 45593, Note_on_c, 14, 40, 0
16, 45600, Note_on_c, 14, 40, 44
16, 45719, Note_on_c, 14, 40, 0
16, 46080, Note_on_c, 14, 41, 44
16, 46133, Note_on_c, 14, 41, 0
16, 46140, Note_on_c, 14, 41, 44
16, 46193, Note_on_c, 14, 41, 0
16, 46200, Note_on_c, 14, 41, 45
16, 46253, Note_on_c, 14, 41, 0
16, 46260, Note_on_c, 14, 41, 45
16, 46313, Note_on_c, 14, 41, 0
16, 46320, Note_on_c, 14, 41, 46
16, 46373, Note_on_c, 14, 41, 0
16, 46380, Note_on_c, 14, 41, 47
16, 46433, Note_on_c, 14, 41, 0
16, 46440, Note_on_c, 14, 41, 47
16, 46493, Note_on_c, 14, 41, 0
16, 46500, Note_on_c, 14, 41, 48
16, 46553, Note_on_c, 14, 41, 0
16, 46560, Note_on_c, 14, 41, 49
16, 46679, Note_on_c, 14, 41, 0
16, 47040, Note_on_c, 14, 41, 54
16, 47093, Note_on_c, 14, 41, 0
16, 47100, Note_on_c, 14, 41, 54
16, 47153, Note_on_c, 14, 41, 0
16, 47160, Note_on_c, 14, 41, 55
16, 47213, Note_on_c, 14, 41, 0
16, 47220, Note_on_c, 14, 41, 55
16, 47273, Note_on_c, 14, 41, 0
16, 47280, Note_on_c, 14, 41, 56
16, 47333, Note_on_c, 14, 41, 0
16, 47340, Note_on_c, 14, 41, 57
16, 47393, Note_on_c, 14, 41, 0
16, 47400, Note_on_c, 14, 41, 57
16, 47453, Note_on_c, 14, 41, 0
16, 47460, Note_on_c, 14, 41, 58
16, 47513, Note_on_c, 14, 41, 0
16, 47520, Note_on_c, 14, 41, 59
16, 47639, Note_on_c, 14, 41, 0
16, 48000, Note_on_c, 14, 41, 64
16, 48053, Note_on_c, 14, 41, 0
16, 48060, Note_on_c, 14, 41, 64
16, 48113, Note_on_c, 14, 41, 0
16, 48120, Note_on_c, 14, 41, 65
16, 48173, Note_on_c, 14, 41, 0
16, 48180, Note_on_c, 14, 41, 65
16, 48233, Note_on_c, 14, 41, 0
16, 48240, Note_on_c, 14, 41, 66
16, 48359, Note_on_c, 14, 41, 0
16, 48480, Note_on_c, 14, 41, 69
16, 48533, Note_on_c, 14, 41, 0
16, 48540, Note_on_c, 14, 41, 69
16, 48593, Note_on_c, 14, 41, 0
16, 48600, Note_on_c, 14, 41, 70
16, 48653, Note_on_c, 14, 41, 0
16, 48660, Note_on_c, 14, 41, 70
16, 48713, Note_on_c, 14, 41, 0
16, 48720, Note_on_c, 14, 41, 71
16, 48839, Note_on_c, 14, 41, 0
16, 48960, Note_on_c, 14, 41, 74
16, 49013, Note_on_c, 14, 41, 0
16, 49020, Note_on_c, 14, 41, 74
16, 49073, Note_on_c, 14, 41, 0
16, 49080, Note_on_c, 14, 41, 75
16, 49133, Note_on_c, 14, 41, 0
16, 49140, Note_on_c, 14, 41, 75
16, 49193, Note_on_c, 14, 41, 0
16, 49200, Note_on_c, 14, 41, 76
16, 49319, Note_on_c, 14, 41, 0
16, 49440, Note_on_c, 14, 41, 79
16, 49493, Note_on_c, 14, 41, 0
16, 49500, Note_on_c, 14, 41, 79
16, 49553, Note_on_c, 14, 41, 0
16, 49560, Note_on_c, 14, 41, 80
16, 49613, Note_on_c, 14, 41, 0
16, 49620, Note_on_c, 14, 41, 80
16, 49673, Note_on_c, 14, 41, 0
16, 49680, Note_on_c, 14, 41, 81
16, 49799, Note_on_c, 14, 41, 0
16, 49920, Note_on_c, 14, 64, 84
16, 49973, Note_on_c, 14, 64, 0
16, 49980, Note_on_c, 14, 40, 52
16, 50033, Note_on_c, 14, 40, 0
16, 50040, Note_on_c, 14, 40, 52
16, 50093, Note_on_c, 14, 40, 0
16, 50100, Note_on_c, 14, 40, 52
16, 50153, Note_on_c, 14, 40, 0
16, 50160, Note_on_c, 14, 40, 52
16, 50213, Note_on_c, 14, 40, 0
16, 50220, Note_on_c, 14, 40, 52
16, 50273, Note_on_c, 14, 40, 0
16, 50280, Note_on_c, 14, 40, 52
16, 50333, Note_on_c, 14, 40, 0
16, 50340, Note_on_c, 14, 40, 52
16, 50393, Note_on_c, 14, 40, 0
16, 50400, Note_on_c, 14, 40, 52
16, 50519, Note_on_c, 14, 40, 0
16, 51360, Note_on_c, 14, 52, 52
16, 51599, Note_on_c, 14, 52, 0
16, 51600, Note_on_c, 14, 47, 52
16, 51829, Note_on_c, 14, 47, 0
16, 51840, Note_on_c, 14, 64, 76
16, 51893, Note_on_c, 14, 64, 0
16, 51900, Note_on_c, 14, 40, 52
16, 51953, Note_on_c, 14, 40, 0
16, 51960, Note_on_c, 14, 40, 52
16, 52013, Note_on_c, 14, 40, 0
16, 52020, Note_on_c, 14, 40, 52
16, 52073, Note_on_c, 14, 40, 0
16, 52080, Note_on_c, 14, 40, 52
16, 52133, Note_on_c, 14, 40, 0
16, 52140, Note_on_c, 14, 40, 52
16, 52193, Note_on_c, 14, 40, 0
16, 52200, Note_on_c, 14, 40, 52
16, 52253, Note_on_c, 14, 40, 0
16, 52260, Note_on_c, 14, 40, 52
16, 52313, Note_on_c, 14, 40, 0
16, 52320, Note_on_c, 14, 40, 52
16, 52439, Note_on_c, 14, 40, 0
16, 53280, Note_on_c, 14, 52, 52
16, 53519, Note_on_c, 14, 52, 0
16, 53520, Note_on_c, 14, 47, 52
16, 53759, Note_on_c, 14, 47, 0
16, 53760, Note_on_c, 14, 40, 52
16, 53999, Note_on_c, 14, 40, 0
16, 62340, Note_on_c, 14, 45, 52
16, 62391, Note_on_c, 14, 45, 0
16, 62400, Note_on_c, 14, 45, 52
16, 62639, Note_on_c, 14, 45, 0
16, 63780, Note_on_c, 14, 45, 52
16, 63831, Note_on_c, 14, 45, 0
16, 63840, Note_on_c, 14, 45, 52
16, 64079, Note_on_c, 14, 45, 0
16, 65220, Note_on_c, 14, 45, 52
16, 65271, Note_on_c, 14, 45, 0
16, 65280, Note_on_c, 14, 45, 52
16, 65519, Note_on_c, 14, 45, 0
16, 66660, Note_on_c, 14, 45, 52
16, 66711, Note_on_c, 14, 45, 0
16, 66720, Note_on_c, 14, 45, 52
16, 66839, Note_on_c, 14, 45, 0
16, 66960, Note_on_c, 14, 49, 52
16, 67064, Note_on_c, 14, 49, 0
16, 67080, Note_on_c, 14, 52, 52
16, 67199, Note_on_c, 14, 52, 0
16, 67320, Note_on_c, 14, 52, 52
16, 67424, Note_on_c, 14, 52, 0
16, 67440, Note_on_c, 14, 45, 52
16, 67679, Note_on_c, 14, 45, 0
16, 68820, Note_on_c, 14, 45, 52
16, 68871, Note_on_c, 14, 45, 0
16, 68880, Note_on_c, 14, 45, 52
16, 69119, Note_on_c, 14, 45, 0
16, 69480, Note_on_c, 14, 52, 52
16, 69584, Note_on_c, 14, 52, 0
16, 69600, Note_on_c, 14, 54, 68
16, 69719, Note_on_c, 14, 54, 0
16, 69720, Note_on_c, 14, 52, 52
16, 69824, Note_on_c, 14, 52, 0
16, 69840, Note_on_c, 14, 49, 52
16, 69929, Note_on_c, 14, 49, 0
16, 69960, Note_on_c, 14, 45, 52
16, 70199, Note_on_c, 14, 45, 0
16, 70980, Note_on_c, 14, 45, 52
16, 71031, Note_on_c, 14, 45, 0
16, 71040, Note_on_c, 14, 45, 52
16, 71279, Note_on_c, 14, 45, 0
16, 71640, Note_on_c, 14, 52, 52
16, 71744, Note_on_c, 14, 52, 0
16, 71760, Note_on_c, 14, 54, 68
16, 71879, Note_on_c, 14, 54, 0
16, 71880, Note_on_c, 14, 52, 52
16, 71984, Note_on_c, 14, 52, 0
16, 72000, Note_on_c, 14, 49, 52
16, 72089, Note_on_c, 14, 49, 0
16, 72120, Note_on_c, 14, 45, 52
16, 72359, Note_on_c, 14, 45, 0
16, 73140, Note_on_c, 14, 52, 52
16, 73191, Note_on_c, 14, 52, 0
16, 73200, Note_on_c, 14, 52, 76
16, 73240, Control_c, 14, 11, 123
16, 73280, Control_c, 14, 11, 119
16, 73320, Control_c, 14, 11, 115
16, 73360, Control_c, 14, 11, 111
16, 73400, Control_c, 14, 11, 107
16, 73440, Control_c, 14, 11, 104
16, 73480, Control_c, 14, 11, 100
16, 73520, Control_c, 14, 11, 96
16, 73560, Control_c, 14, 11, 92
16, 73600, Control_c, 14, 11, 88
16, 73640, Control_c, 14, 11, 84
16, 73680, Control_c, 14, 11, 80
16, 73799, Note_on_c, 14, 52, 0
16, 74280, Control_c, 14, 11, 127
16, 74580, Note_on_c, 14, 52, 52
16, 74631, Note_on_c, 14, 52, 0
16, 74640, Note_on_c, 14, 52, 76
16, 75171, Note_on_c, 14, 52, 0
16, 75180, Note_on_c, 14, 49, 76
16, 75224, Note_on_c, 14, 49, 0
16, 75240, Note_on_c, 14, 45, 76
16, 75329, Note_on_c, 14, 45, 0
16, 75360, Note_on_c, 14, 52, 84
16, 75419, Note_on_c, 14, 52, 0
16, 75420, Note_on_c, 14, 52, 76
16, 75891, Note_on_c, 14, 52, 0
16, 75900, Note_on_c, 14, 49, 76
16, 75944, Note_on_c, 14, 49, 0
16, 75960, Note_on_c, 14, 46, 76
16, 76049, Note_on_c, 14, 46, 0
16, 76080, Note_on_c, 14, 52, 84
16, 76139, Note_on_c, 14, 52, 0
16, 76140, Note_on_c, 14, 52, 76
16, 76199, Note_on_c, 14, 52, 0
16, 76260, Note_on_c, 14, 50, 76
16, 76304, Note_on_c, 14, 50, 0
16, 76320, Note_on_c, 14, 47, 76
16, 76409, Note_on_c, 14, 47, 0
16, 76440, Note_on_c, 14, 56, 84
16, 76499, Note_on_c, 14, 56, 0
16, 76500, Note_on_c, 14, 56, 76
16, 76559, Note_on_c, 14, 56, 0
16, 76620, Note_on_c, 14, 52, 76
16, 76664, Note_on_c, 14, 52, 0
16, 76680, Note_on_c, 14, 50, 76
16, 76769, Note_on_c, 14, 50, 0
16, 76800, Note_on_c, 14, 59, 84
16, 76859, Note_on_c, 14, 59, 0
16, 76860, Note_on_c, 14, 59, 76
16, 76919, Note_on_c, 14, 59, 0
16, 76980, Note_on_c, 14, 56, 76
16, 77024, Note_on_c, 14, 56, 0
16, 77040, Note_on_c, 14, 52, 76
16, 77129, Note_on_c, 14, 52, 0
16, 77160, Note_on_c, 14, 62, 84
16, 77219, Note_on_c, 14, 62, 0
16, 77220, Note_on_c, 14, 62, 76
16, 77279, Note_on_c, 14, 62, 0
16, 77340, Note_on_c, 14, 59, 76
16, 77384, Note_on_c, 14, 59, 0
16, 77400, Note_on_c, 14, 56, 76
16, 77489, Note_on_c, 14, 56, 0
16, 77520, Note_on_c, 14, 52, 76
16, 77864, Note_on_c, 14, 52, 0
16, 78240, Note_on_c, 14, 45, 84
16, 78411, Note_on_c, 14, 45, 0
16, 78420, Note_on_c, 14, 45, 84
16, 78471, Note_on_c, 14, 45, 0
16, 78480, Note_on_c, 14, 45, 84
16, 78584, Note_on_c, 14, 45, 0
16, 78600, Note_on_c, 14, 45, 84
16, 78771, Note_on_c, 14, 45, 0
16, 78780, Note_on_c, 14, 45, 84
16, 78831, Note_on_c, 14, 45, 0
16, 78840, Note_on_c, 14, 45, 84
16, 78944, Note_on_c, 14, 45, 0
16, 78960, Note_on_c, 14, 45, 84
16, 79131, Note_on_c, 14, 45, 0
16, 79140, Note_on_c, 14, 45, 84
16, 79191, Note_on_c, 14, 45, 0
16, 79200, Note_on_c, 14, 45, 84
16, 79304, Note_on_c, 14, 45, 0
16, 79320, Note_on_c, 14, 45, 84
16, 79491, Note_on_c, 14, 45, 0
16, 79500, Note_on_c, 14, 45, 84
16, 79551, Note_on_c, 14, 45, 0
16, 79560, Note_on_c, 14, 45, 84
16, 79664, Note_on_c, 14, 45, 0
16, 79680, Note_on_c, 14, 45, 84
16, 79851, Note_on_c, 14, 45, 0
16, 79860, Note_on_c, 14, 45, 84
16, 79911, Note_on_c, 14, 45, 0
16, 79920, Note_on_c, 14, 45, 84
16, 80024, Note_on_c, 14, 45, 0
16, 80040, Note_on_c, 14, 45, 84
16, 80211, Note_on_c, 14, 45, 0
16, 80220, Note_on_c, 14, 45, 84
16, 80271, Note_on_c, 14, 45, 0
16, 80280, Note_on_c, 14, 45, 84
16, 80384, Note_on_c, 14, 45, 0
16, 80400, Note_on_c, 14, 45, 84
16, 80571, Note_on_c, 14, 45, 0
16, 80580, Note_on_c, 14, 45, 84
16, 80631, Note_on_c, 14, 45, 0
16, 80640, Note_on_c, 14, 45, 84
16, 80744, Note_on_c, 14, 45, 0
16, 80760, Note_on_c, 14, 45, 84
16, 80931, Note_on_c, 14, 45, 0
16, 80940, Note_on_c, 14, 45, 84
16, 80991, Note_on_c, 14, 45, 0
16, 81000, Note_on_c, 14, 45, 84
16, 81104, Note_on_c, 14, 45, 0
16, 81120, Note_on_c, 14, 45, 84
16, 81291, Note_on_c, 14, 45, 0
16, 81300, Note_on_c, 14, 45, 84
16, 81351, Note_on_c, 14, 45, 0
16, 81360, Note_on_c, 14, 45, 84
16, 81464, Note_on_c, 14, 45, 0
16, 81480, Note_on_c, 14, 45, 84
16, 81651, Note_on_c, 14, 45, 0
16, 81660, Note_on_c, 14, 45, 84
16, 81711, Note_on_c, 14, 45, 0
16, 81720, Note_on_c, 14, 45, 84
16, 81824, Note_on_c, 14, 45, 0
16, 81840, Note_on_c, 14, 45, 84
16, 82011, Note_on_c, 14, 45, 0
16, 82020, Note_on_c, 14, 45, 84
16, 82071, Note_on_c, 14, 45, 0
16, 82080, Note_on_c, 14, 45, 84
16, 82184, Note_on_c, 14, 45, 0
16, 82200, Note_on_c, 14, 45, 84
16, 82371, Note_on_c, 14, 45, 0
16, 82380, Note_on_c, 14, 45, 84
16, 82431, Note_on_c, 14, 45, 0
16, 82440, Note_on_c, 14, 45, 84
16, 82544, Note_on_c, 14, 45, 0
16, 82560, Note_on_c, 14, 45, 84
16, 82731, Note_on_c, 14, 45, 0
16, 82740, Note_on_c, 14, 45, 84
16, 82791, Note_on_c, 14, 45, 0
16, 82800, Note_on_c, 14, 49, 84
16, 82904, Note_on_c, 14, 49, 0
16, 82920, Note_on_c, 14, 52, 84
16, 83091, Note_on_c, 14, 52, 0
16, 83100, Note_on_c, 14, 52, 84
16, 83151, Note_on_c, 14, 52, 0
16, 83160, Note_on_c, 14, 40, 84
16, 83264, Note_on_c, 14, 40, 0
16, 83280, Note_on_c, 14, 45, 84
16, 83451, Note_on_c, 14, 45, 0
16, 83460, Note_on_c, 14, 45, 84
16, 83511, Note_on_c, 14, 45, 0
16, 83520, Note_on_c, 14, 45, 84
16, 83624, Note_on_c, 14, 45, 0
16, 83640, Note_on_c, 14, 45, 84
16, 83811, Note_on_c, 14, 45, 0
16, 83820, Note_on_c, 14, 45, 84
16, 83871, Note_on_c, 14, 45, 0
16, 83880, Note_on_c, 14, 45, 84
16, 83984, Note_on_c, 14, 45, 0
16, 84000, Note_on_c, 14, 45, 84
16, 84239, Note_on_c, 14, 45, 0
16, 84600, Note_on_c, 14, 45, 84
16, 84704, Note_on_c, 14, 45, 0
16, 84720, Note_on_c, 14, 45, 84
16, 84944, Note_on_c, 14, 45, 0
16, 84960, Note_on_c, 14, 45, 84
16, 85064, Note_on_c, 14, 45, 0
16, 85080, Note_on_c, 14, 45, 84
16, 85251, Note_on_c, 14, 45, 0
16, 85260, Note_on_c, 14, 49, 84
16, 85304, Note_on_c, 14, 49, 0
16, 85320, Note_on_c, 14, 52, 84
16, 85409, Note_on_c, 14, 52, 0
16, 85440, Note_on_c, 14, 55, 84
16, 85559, Note_on_c, 14, 55, 0
16, 85560, Note_on_c, 14, 54, 84
16, 85664, Note_on_c, 14, 54, 0
16, 85680, Note_on_c, 14, 50, 84
16, 85769, Note_on_c, 14, 50, 0
16, 85800, Note_on_c, 14, 45, 84
16, 86024, Note_on_c, 14, 45, 0
16, 86040, Note_on_c, 14, 45, 84
16, 86144, Note_on_c, 14, 45, 0
16, 86160, Note_on_c, 14, 45, 84
16, 86384, Note_on_c, 14, 45, 0
16, 86400, Note_on_c, 14, 45, 84
16, 86504, Note_on_c, 14, 45, 0
16, 86520, Note_on_c, 14, 45, 84
16, 86691, Note_on_c, 14, 45, 0
16, 86700, Note_on_c, 14, 49, 84
16, 86744, Note_on_c, 14, 49, 0
16, 86760, Note_on_c, 14, 52, 52
16, 86849, Note_on_c, 14, 52, 0
16, 86880, Note_on_c, 14, 57, 52
16, 86999, Note_on_c, 14, 57, 0
16, 87000, Note_on_c, 14, 61, 52
16, 87104, Note_on_c, 14, 61, 0
16, 87120, Note_on_c, 14, 64, 53
16, 87209, Note_on_c, 14, 64, 0
16, 87240, Note_on_c, 14, 45, 54
16, 87411, Note_on_c, 14, 45, 0
16, 87420, Note_on_c, 14, 49, 55
16, 87464, Note_on_c, 14, 49, 0
16, 87480, Note_on_c, 14, 52, 55
16, 87569, Note_on_c, 14, 52, 0
16, 87600, Note_on_c, 14, 57, 56
16, 87719, Note_on_c, 14, 57, 0
16, 87720, Note_on_c, 14, 62, 56
16, 87824, Note_on_c, 14, 62, 0
16, 87840, Note_on_c, 14, 66, 57
16, 87929, Note_on_c, 14, 66, 0
16, 87960, Note_on_c, 14, 45, 58
16, 88131, Note_on_c, 14, 45, 0
16, 88140, Note_on_c, 14, 50, 59
16, 88184, Note_on_c, 14, 50, 0
16, 88200, Note_on_c, 14, 54, 59
16, 88289, Note_on_c, 14, 54, 0
16, 88320, Note_on_c, 14, 57, 60
16, 88439, Note_on_c, 14, 57, 0
16, 88440, Note_on_c, 14, 59, 60
16, 88544, Note_on_c, 14, 59, 0
16, 88560, Note_on_c, 14, 62, 61
16, 88649, Note_on_c, 14, 62, 0
16, 88680, Note_on_c, 14, 45, 62
16, 88851, Note_on_c, 14, 45, 0
16, 88860, Note_on_c, 14, 47, 63
16, 88904, Note_on_c, 14, 47, 0
16, 88920, Note_on_c, 14, 50, 63
16, 89009, Note_on_c, 14, 50, 0
16, 89040, Note_on_c, 14, 57, 64
16, 89159, Note_on_c, 14, 57, 0
16, 89160, Note_on_c, 14, 61, 64
16, 89264, Note_on_c, 14, 61, 0
16, 89280, Note_on_c, 14, 64, 65
16, 89369, Note_on_c, 14, 64, 0
16, 89400, Note_on_c, 14, 45, 66
16, 89571, Note_on_c, 14, 45, 0
16, 89580, Note_on_c, 14, 49, 67
16, 89624, Note_on_c, 14, 49, 0
16, 89640, Note_on_c, 14, 52, 67
16, 89729, Note_on_c, 14, 52, 0
16, 89760, Note_on_c, 14, 57, 68
16, 89849, Note_on_c, 14, 57, 0
16, 89880, Note_on_c, 14, 61, 68
16, 89969, Note_on_c, 14, 61, 0
16, 90000, Note_on_c, 14, 64, 69
16, 90089, Note_on_c, 14, 64, 0
16, 90120, Note_on_c, 14, 45, 70
16, 90209, Note_on_c, 14, 45, 0
16, 90240, Note_on_c, 14, 49, 70
16, 90329, Note_on_c, 14, 49, 0
16, 90360, Note_on_c, 14, 52, 71
16, 90449, Note_on_c, 14, 52, 0
16, 90480, Note_on_c, 14, 57, 72
16, 90569, Note_on_c, 14, 57, 0
16, 90600, Note_on_c, 14, 62, 72
16, 90689, Note_on_c, 14, 62, 0
16, 90720, Note_on_c, 14, 66, 73
16, 90809, Note_on_c, 14, 66, 0
16, 90840, Note_on_c, 14, 45, 74
16, 90929, Note_on_c, 14, 45, 0
16, 90960, Note_on_c, 14, 50, 74
16, 91049, Note_on_c, 14, 50, 0
16, 91080, Note_on_c, 14, 54, 75
16, 91169, Note_on_c, 14, 54, 0
16, 91200, Note_on_c, 14, 57, 76
16, 91289, Note_on_c, 14, 57, 0
16, 91320, Note_on_c, 14, 59, 76
16, 91409, Note_on_c, 14, 59, 0
16, 91440, Note_on_c, 14, 62, 77
16, 91529, Note_on_c, 14, 62, 0
16, 91560, Note_on_c, 14, 45, 78
16, 91649, Note_on_c, 14, 45, 0
16, 91680, Note_on_c, 14, 47, 78
16, 91769, Note_on_c, 14, 47, 0
16, 91800, Note_on_c, 14, 50, 79
16, 91889, Note_on_c, 14, 50, 0
16, 91920, Note_on_c, 14, 57, 80
16, 92009, Note_on_c, 14, 57, 0
16, 92040, Note_on_c, 14, 61, 80
16, 92129, Note_on_c, 14, 61, 0
16, 92160, Note_on_c, 14, 64, 81
16, 92249, Note_on_c, 14, 64, 0
16, 92280, Note_on_c, 14, 45, 82
16, 92369, Note_on_c, 14, 45, 0
16, 92400, Note_on_c, 14, 49, 82
16, 92489, Note_on_c, 14, 49, 0
16, 92520, Note_on_c, 14, 52, 83
16, 92609, Note_on_c, 14, 52, 0
16, 92640, Note_on_c, 14, 48, 84
16, 92691, Note_on_c, 14, 48, 0
16, 92700, Note_on_c, 14, 60, 84
16, 92751, Note_on_c, 14, 60, 0
16, 92760, Note_on_c, 14, 60, 84
16, 92811, Note_on_c, 14, 60, 0
16, 92820, Note_on_c, 14, 60, 84
16, 92871, Note_on_c, 14, 60, 0
16, 92880, Note_on_c, 14, 60, 84
16, 92931, Note_on_c, 14, 60, 0
16, 92940, Note_on_c, 14, 60, 84
16, 92991, Note_on_c, 14, 60, 0
16, 93000, Note_on_c, 14, 60, 84
16, 93051, Note_on_c, 14, 60, 0
16, 93060, Note_on_c, 14, 60, 84
16, 93111, Note_on_c, 14, 60, 0
16, 93120, Note_on_c, 14, 60, 84
16, 93171, Note_on_c, 14, 60, 0
16, 93180, Note_on_c, 14, 60, 84
16, 93231, Note_on_c, 14, 60, 0
16, 93240, Note_on_c, 14, 60, 84
16, 93291, Note_on_c, 14, 60, 0
16, 93300, Note_on_c, 14, 60, 84
16, 93351, Note_on_c, 14, 60, 0
16, 93360, Note_on_c, 14, 59, 84
16, 93411, Note_on_c, 14, 59, 0
16, 93420, Note_on_c, 14, 59, 84
16, 93471, Note_on_c, 14, 59, 0
16, 93480, Note_on_c, 14, 59, 84
16, 93531, Note_on_c, 14, 59, 0
16, 93540, Note_on_c, 14, 59, 84
16, 93591, Note_on_c, 14, 59, 0
16, 93600, Note_on_c, 14, 59, 84
16, 93651, Note_on_c, 14, 59, 0
16, 93660, Note_on_c, 14, 59, 84
16, 93711, Note_on_c, 14, 59, 0
16, 93720, Note_on_c, 14, 59, 84
16, 93771, Note_on_c, 14, 59, 0
16, 93780, Note_on_c, 14, 59, 84
16, 93831, Note_on_c, 14, 59, 0
16, 93840, Note_on_c, 14, 59, 52
16, 93891, Note_on_c, 14, 59, 0
16, 93900, Note_on_c, 14, 59, 52
16, 93951, Note_on_c, 14, 59, 0
16, 93960, Note_on_c, 14, 59, 52
16, 94011, Note_on_c, 14, 59, 0
16, 94020, Note_on_c, 14, 59, 52
16, 94071, Note_on_c, 14, 59, 0
16, 94080, Note_on_c, 14, 57, 52
16, 94131, Note_on_c, 14, 57, 0
16, 94140, Note_on_c, 14, 57, 52
16, 94191, Note_on_c, 14, 57, 0
16, 94200, Note_on_c, 14, 57, 52
16, 94251, Note_on_c, 14, 57, 0
16, 94260, Note_on_c, 14, 57, 52
16, 94311, Note_on_c, 14, 57, 0
16, 94320, Note_on_c, 14, 57, 52
16, 94371, Note_on_c, 14, 57, 0
16, 94380, Note_on_c, 14, 57, 52
16, 94431, Note_on_c, 14, 57, 0
16, 94440, Note_on_c, 14, 57, 52
16, 94491, Note_on_c, 14, 57, 0
16, 94500, Note_on_c, 14, 57, 52
16, 94551, Note_on_c, 14, 57, 0
16, 94560, Note_on_c, 14, 57, 52
16, 94611, Note_on_c, 14, 57, 0
16, 94620, Note_on_c, 14, 57, 52
16, 94671, Note_on_c, 14, 57, 0
16, 94680, Note_on_c, 14, 57, 52
16, 94731, Note_on_c, 14, 57, 0
16, 94740, Note_on_c, 14, 57, 52
16, 94791, Note_on_c, 14, 57, 0
16, 94800, Note_on_c, 14, 56, 52
16, 95039, Note_on_c, 14, 56, 0
16, 95160, Note_on_c, 14, 56, 52
16, 95399, Note_on_c, 14, 56, 0
16, 95520, Note_on_c, 14, 56, 52
16, 95759, Note_on_c, 14, 56, 0
16, 95880, Note_on_c, 14, 56, 52
16, 96119, Note_on_c, 14, 56, 0
16, 96240, Note_on_c, 14, 56, 52
16, 96479, Note_on_c, 14, 56, 0
16, 96600, Note_on_c, 14, 56, 52
16, 96839, Note_on_c, 14, 56, 0
16, 96960, Note_on_c, 14, 49, 52
16, 97011, Note_on_c, 14, 49, 0
16, 97020, Note_on_c, 14, 49, 54
16, 97071, Note_on_c, 14, 49, 0
16, 97080, Note_on_c, 14, 49, 56
16, 97131, Note_on_c, 14, 49, 0
16, 97140, Note_on_c, 14, 49, 58
16, 97191, Note_on_c, 14, 49, 0
16, 97200, Note_on_c, 14, 49, 60
16, 97251, Note_on_c, 14, 49, 0
16, 97260, Note_on_c, 14, 49, 62
16, 97311, Note_on_c, 14, 49, 0
16, 97320, Note_on_c, 14, 52, 64
16, 97371, Note_on_c, 14, 52, 0
16, 97380, Note_on_c, 14, 52, 66
16, 97431, Note_on_c, 14, 52, 0
16, 97440, Note_on_c, 14, 52, 68
16, 97491, Note_on_c, 14, 52, 0
16, 97500, Note_on_c, 14, 52, 70
16, 97551, Note_on_c, 14, 52, 0
16, 97560, Note_on_c, 14, 52, 72
16, 97611, Note_on_c, 14, 52, 0
16, 97620, Note_on_c, 14, 52, 74
16, 97671, Note_on_c, 14, 52, 0
16, 97680, Note_on_c, 14, 51, 76
16, 97919, Note_on_c, 14, 51, 0
16, 98040, Note_on_c, 14, 51, 52
16, 98279, Note_on_c, 14, 51, 0
16, 98400, Note_on_c, 14, 51, 52
16, 98639, Note_on_c, 14, 51, 0
16, 98760, Note_on_c, 14, 51, 52
16, 98999, Note_on_c, 14, 51, 0
16, 99120, Note_on_c, 14, 51, 52
16, 99359, Note_on_c, 14, 51, 0
16, 99480, Note_on_c, 14, 51, 52
16, 99719, Note_on_c, 14, 51, 0
16, 99838, Control_c, 14, 11, 80
16, 99840, Note_on_c, 14, 56, 76
16, 99840, Control_c, 14, 11, 80
16, 99880, Control_c, 14, 11, 83
16, 99920, Control_c, 14, 11, 85
16, 99960, Control_c, 14, 11, 88
16, 100000, Control_c, 14, 11, 90
16, 100040, Control_c, 14, 11, 93
16, 100080, Control_c, 14, 11, 96
16, 100120, Control_c, 14, 11, 98
16, 100160, Control_c, 14, 11, 101
16, 100200, Control_c, 14, 11, 104
16, 100240, Control_c, 14, 11, 106
16, 100280, Control_c, 14, 11, 109
16, 100320, Control_c, 14, 11, 111
16, 100360, Control_c, 14, 11, 114
16, 100400, Control_c, 14, 11, 117
16, 100440, Control_c, 14, 11, 119
16, 100480, Control_c, 14, 11, 122
16, 100520, Control_c, 14, 11, 127
16, 100544, Note_on_c, 14, 56, 0
16, 100560, Note_on_c, 14, 42, 76
16, 100784, Note_on_c, 14, 42, 0
16, 100800, Note_on_c, 14, 42, 76
16, 100904, Note_on_c, 14, 42, 0
16, 100920, Note_on_c, 14, 54, 76
16, 101144, Note_on_c, 14, 54, 0
16, 101160, Note_on_c, 14, 54, 76
16, 101264, Note_on_c, 14, 54, 0
16, 101280, Note_on_c, 14, 54, 76
16, 101399, Note_on_c, 14, 54, 0
16, 101400, Note_on_c, 14, 52, 76
16, 101984, Note_on_c, 14, 52, 0
16, 102000, Note_on_c, 14, 39, 76
16, 102224, Note_on_c, 14, 39, 0
16, 102240, Note_on_c, 14, 39, 76
16, 102344, Note_on_c, 14, 39, 0
16, 102360, Note_on_c, 14, 51, 76
16, 102584, Note_on_c, 14, 51, 0
16, 102600, Note_on_c, 14, 51, 76
16, 102704, Note_on_c, 14, 51, 0
16, 102720, Note_on_c, 14, 51, 76
16, 102839, Note_on_c, 14, 51, 0
16, 102840, Note_on_c, 14, 49, 76
16, 103304, Note_on_c, 14, 49, 0
16, 103320, Note_on_c, 14, 48, 76
16, 103424, Note_on_c, 14, 48, 0
16, 103440, Note_on_c, 14, 47, 76
16, 103619, Note_on_c, 14, 47, 0
16, 103800, Note_on_c, 14, 47, 76
16, 103979, Note_on_c, 14, 47, 0
16, 104160, Note_on_c, 14, 47, 76
16, 104339, Note_on_c, 14, 47, 0
16, 104520, Note_on_c, 14, 47, 76
16, 104699, Note_on_c, 14, 47, 0
16, 104880, Note_on_c, 14, 47, 76
16, 105059, Note_on_c, 14, 47, 0
16, 105240, Note_on_c, 14, 47, 76
16, 105419, Note_on_c, 14, 47, 0
16, 105600, Note_on_c, 14, 47, 76
16, 105779, Note_on_c, 14, 47, 0
16, 105960, Note_on_c, 14, 47, 76
16, 106139, Note_on_c, 14, 47, 0
16, 106320, Note_on_c, 14, 49, 84
16, 106380, Control_c, 14, 11, 112
16, 106417, Control_c, 14, 11, 109
16, 106453, Control_c, 14, 11, 107
16, 106490, Control_c, 14, 11, 104
16, 106527, Control_c, 14, 11, 101
16, 106563, Control_c, 14, 11, 99
16, 106600, Control_c, 14, 11, 96
16, 106637, Control_c, 14, 11, 93
16, 106673, Control_c, 14, 11, 91
16, 106710, Control_c, 14, 11, 88
16, 106747, Control_c, 14, 11, 85
16, 106783, Control_c, 14, 11, 83
16, 106820, Control_c, 14, 11, 80
16, 106857, Control_c, 14, 11, 77
16, 106893, Control_c, 14, 11, 75
16, 106919, Note_on_c, 14, 49, 0
16, 106920, Note_on_c, 14, 48, 84
16, 106930, Control_c, 14, 11, 72
16, 106967, Control_c, 14, 11, 69
16, 107003, Control_c, 14, 11, 64
16, 107024, Note_on_c, 14, 48, 0
16, 107040, Note_on_c, 14, 47, 84
16, 107639, Note_on_c, 14, 47, 0
16, 107640, Note_on_c, 14, 49, 84
16, 107699, Note_on_c, 14, 49, 0
16, 107700, Note_on_c, 14, 51, 84
16, 107759, Note_on_c, 14, 51, 0
16, 107760, Note_on_c, 14, 52, 84
16, 107999, Note_on_c, 14, 52, 0
16, 109080, Control_c, 14, 11, 127
16, 109200, Note_on_c, 14, 52, 48
16, 109559, Note_on_c, 14, 52, 0
16, 109560, Note_on_c, 14, 56, 48
16, 109919, Note_on_c, 14, 56, 0
16, 109920, Note_on_c, 14, 59, 48
16, 110279, Note_on_c, 14, 59, 0
16, 110280, Note_on_c, 14, 47, 48
16, 110624, Note_on_c, 14, 47, 0
16, 110640, Note_on_c, 14, 52, 76
16, 110984, Note_on_c, 14, 52, 0
16, 111000, Note_on_c, 14, 52, 76
16, 111171, Note_on_c, 14, 52, 0
16, 111180, Note_on_c, 14, 52, 76
16, 111231, Note_on_c, 14, 52, 0
16, 111240, Note_on_c, 14, 52, 76
16, 111344, Note_on_c, 14, 52, 0
16, 111360, Note_on_c, 14, 52, 76
16, 111531, Note_on_c, 14, 52, 0
16, 111540, Note_on_c, 14, 52, 76
16, 111591, Note_on_c, 14, 52, 0
16, 111600, Note_on_c, 14, 52, 76
16, 111704, Note_on_c, 14, 52, 0
16, 111720, Note_on_c, 14, 52, 76
16, 111891, Note_on_c, 14, 52, 0
16, 111900, Note_on_c, 14, 52, 76
16, 111951, Note_on_c, 14, 52, 0
16, 111960, Note_on_c, 14, 50, 76
16, 112064, Note_on_c, 14, 50, 0
16, 112080, Note_on_c, 14, 48, 76
16, 112251, Note_on_c, 14, 48, 0
16, 112260, Note_on_c, 14, 60, 76
16, 112311, Note_on_c, 14, 60, 0
16, 112320, Note_on_c, 14, 55, 76
16, 112424, Note_on_c, 14, 55, 0
16, 112440, Note_on_c, 14, 52, 76
16, 112611, Note_on_c, 14, 52, 0
16, 112620, Note_on_c, 14, 52, 76
16, 112671, Note_on_c, 14, 52, 0
16, 112680, Note_on_c, 14, 48, 76
16, 112784, Note_on_c, 14, 48, 0
16, 112800, Note_on_c, 14, 43, 76
16, 112971, Note_on_c, 14, 43, 0
16, 112980, Note_on_c, 14, 43, 76
16, 113031, Note_on_c, 14, 43, 0
16, 113040, Note_on_c, 14, 40, 76
16, 113144, Note_on_c, 14, 40, 0
16, 113160, Note_on_c, 14, 36, 76
16, 113331, Note_on_c, 14, 36, 0
16, 113340, Note_on_c, 14, 48, 76
16, 113391, Note_on_c, 14, 48, 0
16, 113400, Note_on_c, 14, 43, 76
16, 113504, Note_on_c, 14, 43, 0
16, 113520, Note_on_c, 14, 48, 76
16, 113759, Note_on_c, 14, 48, 0
16, 114060, Note_on_c, 14, 43, 75
16, 114111, Note_on_c, 14, 43, 0
16, 114120, Note_on_c, 14, 43, 73
16, 114224, Note_on_c, 14, 43, 0
16, 114240, Note_on_c, 14, 48, 70
16, 114479, Note_on_c, 14, 48, 0
16, 114780, Note_on_c, 14, 43, 57
16, 114831, Note_on_c, 14, 43, 0
16, 114840, Note_on_c, 14, 43, 55
16, 114944, Note_on_c, 14, 43, 0
16, 114960, Note_on_c, 14, 48, 52
16, 115199, Note_on_c, 14, 48, 0
16, 115680, Note_on_c, 14, 48, 44
16, 115919, Note_on_c, 14, 48, 0
16, 116640, Note_on_c, 14, 39, 44
16, 116699, Note_on_c, 14, 39, 0
16, 116700, Note_on_c, 14, 40, 44
16, 116759, Note_on_c, 14, 40, 0
16, 116760, Note_on_c, 14, 42, 44
16, 116939, Note_on_c, 14, 42, 0
16, 118080, Note_on_c, 14, 39, 44
16, 118139, Note_on_c, 14, 39, 0
16, 118140, Note_on_c, 14, 40, 44
16, 118199, Note_on_c, 14, 40, 0
16, 118200, Note_on_c, 14, 42, 44
16, 118379, Note_on_c, 14, 42, 0
16, 119520, Note_on_c, 14, 39, 46
16, 119579, Note_on_c, 14, 39, 0
16, 119580, Note_on_c, 14, 40, 46
16, 119639, Note_on_c, 14, 40, 0
16, 119640, Note_on_c, 14, 42, 47
16, 119759, Note_on_c, 14, 42, 0
16, 119880, Note_on_c, 14, 40, 49
16, 119939, Note_on_c, 14, 40, 0
16, 119940, Note_on_c, 14, 42, 50
16, 119999, Note_on_c, 14, 42, 0
16, 120000, Note_on_c, 14, 44, 50
16, 120119, Note_on_c, 14, 44, 0
16, 120240, Note_on_c, 14, 40, 52
16, 120299, Note_on_c, 14, 40, 0
16, 120300, Note_on_c, 14, 42, 53
16, 120359, Note_on_c, 14, 42, 0
16, 120360, Note_on_c, 14, 44, 54
16, 120479, Note_on_c, 14, 44, 0
16, 120600, Note_on_c, 14, 42, 56
16, 120659, Note_on_c, 14, 42, 0
16, 120660, Note_on_c, 14, 44, 56
16, 120719, Note_on_c, 14, 44, 0
16, 120720, Note_on_c, 14, 45, 57
16, 120839, Note_on_c, 14, 45, 0
16, 120960, Note_on_c, 14, 42, 59
16, 121019, Note_on_c, 14, 42, 0
16, 121020, Note_on_c, 14, 44, 60
16, 121079, Note_on_c, 14, 44, 0
16, 121080, Note_on_c, 14, 45, 60
16, 121199, Note_on_c, 14, 45, 0
16, 121320, Note_on_c, 14, 44, 62
16, 121379, Note_on_c, 14, 44, 0
16, 121380, Note_on_c, 14, 45, 63
16, 121439, Note_on_c, 14, 45, 0
16, 121440, Note_on_c, 14, 47, 64
16, 121559, Note_on_c, 14, 47, 0
16, 121680, Note_on_c, 14, 44, 66
16, 121739, Note_on_c, 14, 44, 0
16, 121740, Note_on_c, 14, 45, 66
16, 121799, Note_on_c, 14, 45, 0
16, 121800, Note_on_c, 14, 47, 67
16, 121919, Note_on_c, 14, 47, 0
16, 122040, Note_on_c, 14, 45, 69
16, 122099, Note_on_c, 14, 45, 0
16, 122100, Note_on_c, 14, 47, 70
16, 122159, Note_on_c, 14, 47, 0
16, 122160, Note_on_c, 14, 49, 70
16, 122279, Note_on_c, 14, 49, 0
16, 122400, Note_on_c, 14, 45, 72
16, 122459, Note_on_c, 14, 45, 0
16, 122460, Note_on_c, 14, 47, 73
16, 122519, Note_on_c, 14, 47, 0
16, 122520, Note_on_c, 14, 49, 74
16, 122639, Note_on_c, 14, 49, 0
16, 122760, Note_on_c, 14, 47, 76
16, 122819, Note_on_c, 14, 47, 0
16, 122820, Note_on_c, 14, 49, 76
16, 122879, Note_on_c, 14, 49, 0
16, 122880, Note_on_c, 14, 51, 77
16, 122999, Note_on_c, 14, 51, 0
16, 123120, Note_on_c, 14, 47, 79
16, 123179, Note_on_c, 14, 47, 0
16, 123180, Note_on_c, 14, 49, 80
16, 123239, Note_on_c, 14, 49, 0
16, 123240, Note_on_c, 14, 51, 80
16, 123359, Note_on_c, 14, 51, 0
16, 123480, Note_on_c, 14, 49, 82
16, 123539, Note_on_c, 14, 49, 0
16, 123540, Note_on_c, 14, 51, 83
16, 123599, Note_on_c, 14, 51, 0
16, 123600, Note_on_c, 14, 52, 84
16, 123771, Note_on_c, 14, 52, 0
16, 123780, Note_on_c, 14, 64, 84
16, 123831, Note_on_c, 14, 64, 0
16, 123840, Note_on_c, 14, 59, 84
16, 123944, Note_on_c, 14, 59, 0
16, 123960, Note_on_c, 14, 56, 84
16, 124131, Note_on_c, 14, 56, 0
16, 124140, Note_on_c, 14, 56, 84
16, 124191, Note_on_c, 14, 56, 0
16, 124200, Note_on_c, 14, 52, 84
16, 124304, Note_on_c, 14, 52, 0
16, 124320, Note_on_c, 14, 47, 84
16, 124491, Note_on_c, 14, 47, 0
16, 124500, Note_on_c, 14, 47, 84
16, 124551, Note_on_c, 14, 47, 0
16, 124560, Note_on_c, 14, 44, 84
16, 124664, Note_on_c, 14, 44, 0
16, 124680, Note_on_c, 14, 40, 84
16, 124919, Note_on_c, 14, 40, 0
16, 125040, Note_on_c, 14, 69, 84
16, 125211, Note_on_c, 14, 69, 0
16, 125220, Note_on_c, 14, 69, 84
16, 125271, Note_on_c, 14, 69, 0
16, 125280, Note_on_c, 14, 66, 84
16, 125384, Note_on_c, 14, 66, 0
16, 125400, Note_on_c, 14, 61, 84
16, 125571, Note_on_c, 14, 61, 0
16, 125580, Note_on_c, 14, 61, 84
16, 125631, Note_on_c, 14, 61, 0
16, 125640, Note_on_c, 14, 57, 84
16, 125744, Note_on_c, 14, 57, 0
16, 125760, Note_on_c, 14, 54, 84
16, 125931, Note_on_c, 14, 54, 0
16, 125940, Note_on_c, 14, 54, 84
16, 125991, Note_on_c, 14, 54, 0
16, 126000, Note_on_c, 14, 49, 84
16, 126104, Note_on_c, 14, 49, 0
16, 126120, Note_on_c, 14, 45, 84
16, 126359, Note_on_c, 14, 45, 0
16, 126480, Note_on_c, 14, 45, 44
16, 126531, Note_on_c, 14, 45, 0
16, 126540, Note_on_c, 14, 45, 44
16, 126591, Note_on_c, 14, 45, 0
16, 126600, Note_on_c, 14, 45, 44
16, 126651, Note_on_c, 14, 45, 0
16, 126660, Note_on_c, 14, 45, 44
16, 126711, Note_on_c, 14, 45, 0
16, 126720, Note_on_c, 14, 45, 44
16, 126771, Note_on_c, 14, 45, 0
16, 126780, Note_on_c, 14, 45, 44
16, 126831, Note_on_c, 14, 45, 0
16, 126840, Note_on_c, 14, 45, 44
16, 126891, Note_on_c, 14, 45, 0
16, 126900, Note_on_c, 14, 45, 44
16, 126951, Note_on_c, 14, 45, 0
16, 126960, Note_on_c, 14, 45, 44
16, 127011, Note_on_c, 14, 45, 0
16, 127020, Note_on_c, 14, 45, 44
16, 127071, Note_on_c, 14, 45, 0
16, 127080, Note_on_c, 14, 45, 44
16, 127131, Note_on_c, 14, 45, 0
16, 127140, Note_on_c, 14, 45, 44
16, 127191, Note_on_c, 14, 45, 0
16, 127200, Note_on_c, 14, 47, 44
16, 127251, Note_on_c, 14, 47, 0
16, 127260, Note_on_c, 14, 47, 47
16, 127311, Note_on_c, 14, 47, 0
16, 127320, Note_on_c, 14, 47, 50
16, 127371, Note_on_c, 14, 47, 0
16, 127380, Note_on_c, 14, 47, 54
16, 127431, Note_on_c, 14, 47, 0
16, 127440, Note_on_c, 14, 47, 57
16, 127491, Note_on_c, 14, 47, 0
16, 127500, Note_on_c, 14, 47, 60
16, 127551, Note_on_c, 14, 47, 0
16, 127560, Note_on_c, 14, 47, 64
16, 127611, Note_on_c, 14, 47, 0
16, 127620, Note_on_c, 14, 47, 67
16, 127671, Note_on_c, 14, 47, 0
16, 127680, Note_on_c, 14, 47, 70
16, 127731, Note_on_c, 14, 47, 0
16, 127740, Note_on_c, 14, 45, 74
16, 127791, Note_on_c, 14, 45, 0
16, 127800, Note_on_c, 14, 44, 77
16, 127851, Note_on_c, 14, 44, 0
16, 127860, Note_on_c, 14, 42, 80
16, 127911, Note_on_c, 14, 42, 0
16, 127920, Note_on_c, 14, 40, 84
16, 128091, Note_on_c, 14, 40, 0
16, 128100, Note_on_c, 14, 64, 84
16, 128151, Note_on_c, 14, 64, 0
16, 128160, Note_on_c, 14, 59, 84
16, 128264, Note_on_c, 14, 59, 0
16, 128280, Note_on_c, 14, 56, 84
16, 128451, Note_on_c, 14, 56, 0
16, 128460, Note_on_c, 14, 56, 84
16, 128511, Note_on_c, 14, 56, 0
16, 128520, Note_on_c, 14, 52, 84
16, 128624, Note_on_c, 14, 52, 0
16, 128640, Note_on_c, 14, 47, 84
16, 128811, Note_on_c, 14, 47, 0
16, 128820, Note_on_c, 14, 47, 84
16, 128871, Note_on_c, 14, 47, 0
16, 128880, Note_on_c, 14, 44, 84
16, 128984, Note_on_c, 14, 44, 0
16, 129000, Note_on_c, 14, 40, 84
16, 129239, Note_on_c, 14, 40, 0
16, 129360, Note_on_c, 14, 69, 84
16, 129531, Note_on_c, 14, 69, 0
16, 129540, Note_on_c, 14, 69, 84
16, 129591, Note_on_c, 14, 69, 0
16, 129600, Note_on_c, 14, 66, 84
16, 129704, Note_on_c, 14, 66, 0
16, 129720, Note_on_c, 14, 61, 84
16, 129891, Note_on_c, 14, 61, 0
16, 129900, Note_on_c, 14, 61, 84
16, 129951, Note_on_c, 14, 61, 0
16, 129960, Note_on_c, 14, 57, 84
16, 130064, Note_on_c, 14, 57, 0
16, 130080, Note_on_c, 14, 54, 84
16, 130251, Note_on_c, 14, 54, 0
16, 130260, Note_on_c, 14, 54, 84
16, 130311, Note_on_c, 14, 54, 0
16, 130320, Note_on_c, 14, 49, 84
16, 130424, Note_on_c, 14, 49, 0
16, 130440, Note_on_c, 14, 45, 84
16, 130679, Note_on_c, 14, 45, 0
16, 130800, Note_on_c, 14, 45, 44
16, 131504, Note_on_c, 14, 45, 0
16, 131518, Control_c, 14, 11, 48
16, 131520, Note_on_c, 14, 47, 84
16, 131560, Control_c, 14, 11, 52
16, 131600, Control_c, 14, 11, 57
16, 131640, Control_c, 14, 11, 61
16, 131680, Control_c, 14, 11, 66
16, 131720, Control_c, 14, 11, 70
16, 131760, Control_c, 14, 11, 74
16, 131800, Control_c, 14, 11, 79
16, 131840, Control_c, 14, 11, 83
16, 131880, Control_c, 14, 11, 88
16, 131920, Control_c, 14, 11, 92
16, 131960, Control_c, 14, 11, 96
16, 132000, Control_c, 14, 11, 101
16, 132040, Control_c, 14, 11, 105
16, 132080, Control_c, 14, 11, 109
16, 132120, Control_c, 14, 11, 114
16, 132160, Control_c, 14, 11, 118
16, 132200, Control_c, 14, 11, 123
16, 132224, Note_on_c, 14, 47, 0
16, 132238, Control_c, 14, 11, 127
16, 132240, Note_on_c, 14, 52, 84
16, 132479, Note_on_c, 14, 52, 0
16, 132600, Note_on_c, 14, 56, 84
16, 132839, Note_on_c, 14, 56, 0
16, 132960, Note_on_c, 14, 59, 84
16, 133199, Note_on_c, 14, 59, 0
16, 133500, Note_on_c, 14, 59, 84
16, 133551, Note_on_c, 14, 59, 0
16, 133560, Note_on_c, 14, 59, 84
16, 133664, Note_on_c, 14, 59, 0
16, 133680, Note_on_c, 14, 59, 92
16, 133739, Note_on_c, 14, 59, 0
16, 133740, Note_on_c, 14, 59, 84
16, 134211, Note_on_c, 14, 59, 0
16, 134220, Note_on_c, 14, 57, 84
16, 134264, Note_on_c, 14, 57, 0
16, 134280, Note_on_c, 14, 56, 84
16, 134361, Note_on_c, 14, 56, 0
16, 134370, Note_on_c, 14, 56, 84
16, 134399, Note_on_c, 14, 56, 0
16, 134400, Note_on_c, 14, 57, 92
16, 134459, Note_on_c, 14, 57, 0
16, 134460, Note_on_c, 14, 57, 84
16, 134931, Note_on_c, 14, 57, 0
16, 134940, Note_on_c, 14, 49, 84
16, 134984, Note_on_c, 14, 49, 0
16, 135000, Note_on_c, 14, 51, 84
16, 135089, Note_on_c, 14, 51, 0
16, 135120, Note_on_c, 14, 52, 84
16, 135359, Note_on_c, 14, 52, 0
16, 135660, Note_on_c, 14, 59, 84
16, 135711, Note_on_c, 14, 59, 0
16, 135720, Note_on_c, 14, 59, 84
16, 135824, Note_on_c, 14, 59, 0
16, 135840, Note_on_c, 14, 59, 92
16, 135899, Note_on_c, 14, 59, 0
16, 135900, Note_on_c, 14, 59, 84
16, 136071, Note_on_c, 14, 59, 0
16, 136080, Note_on_c, 14, 56, 84
16, 136161, Note_on_c, 14, 56, 0
16, 136170, Note_on_c, 14, 56, 84
16, 136199, Note_on_c, 14, 56, 0
16, 136200, Note_on_c, 14, 57, 84
16, 136371, Note_on_c, 14, 57, 0
16, 136380, Note_on_c, 14, 49, 84
16, 136424, Note_on_c, 14, 49, 0
16, 136440, Note_on_c, 14, 51, 84
16, 136529, Note_on_c, 14, 51, 0
16, 136560, Note_on_c, 14, 52, 84
16, 136799, Note_on_c, 14, 52, 0
16, 137100, Note_on_c, 14, 59, 84
16, 137151, Note_on_c, 14, 59, 0
16, 137160, Note_on_c, 14, 59, 84
16, 137241, Note_on_c, 14, 59, 0
16, 137250, Note_on_c, 14, 51, 84
16, 137279, Note_on_c, 14, 51, 0
16, 137280, Note_on_c, 14, 52, 84
16, 137459, Note_on_c, 14, 52, 0
16, 137610, Note_on_c, 14, 40, 84
16, 137639, Note_on_c, 14, 40, 0
16, 137640, Note_on_c, 14, 42, 84
16, 137819, Note_on_c, 14, 42, 0
16, 137970, Note_on_c, 14, 42, 84
16, 137999, Note_on_c, 14, 42, 0
16, 138000, Note_on_c, 14, 44, 84
16, 138179, Note_on_c, 14, 44, 0
16, 138330, Note_on_c, 14, 44, 84
16, 138359, Note_on_c, 14, 44, 0
16, 138360, Note_on_c, 14, 45, 84
16, 138539, Note_on_c, 14, 45, 0
16, 138690, Note_on_c, 14, 45, 84
16, 138719, Note_on_c, 14, 45, 0
16, 138720, Note_on_c, 14, 47, 84
16, 138899, Note_on_c, 14, 47, 0
16, 139050, Note_on_c, 14, 47, 84
16, 139079, Note_on_c, 14, 47, 0
16, 139080, Note_on_c, 14, 49, 84
16, 139259, Note_on_c, 14, 49, 0
16, 139410, Note_on_c, 14, 49, 84
16, 139439, Note_on_c, 14, 49, 0
16, 139440, Note_on_c, 14, 50, 84
16, 139619, Note_on_c, 14, 50, 0
16, 139800, Note_on_c, 14, 51, 84
16, 139979, Note_on_c, 14, 51, 0
16, 144420, Note_on_c, 14, 45, 52
16, 144471, Note_on_c, 14, 45, 0
16, 144480, Note_on_c, 14, 45, 52
16, 144719, Note_on_c, 14, 45, 0
16, 145860, Note_on_c, 14, 45, 52
16, 145911, Note_on_c, 14, 45, 0
16, 145920, Note_on_c, 14, 45, 52
16, 146159, Note_on_c, 14, 45, 0
16, 147300, Note_on_c, 14, 45, 52
16, 147351, Note_on_c, 14, 45, 0
16, 147360, Note_on_c, 14, 45, 52
16, 147599, Note_on_c, 14, 45, 0
16, 148740, Note_on_c, 14, 45, 52
16, 148791, Note_on_c, 14, 45, 0
16, 148800, Note_on_c, 14, 45, 52
16, 148919, Note_on_c, 14, 45, 0
16, 149040, Note_on_c, 14, 49, 52
16, 149144, Note_on_c, 14, 49, 0
16, 149160, Note_on_c, 14, 52, 52
16, 149279, Note_on_c, 14, 52, 0
16, 149400, Note_on_c, 14, 52, 52
16, 149504, Note_on_c, 14, 52, 0
16, 149520, Note_on_c, 14, 45, 52
16, 149759, Note_on_c, 14, 45, 0
16, 150900, Note_on_c, 14, 45, 52
16, 150951, Note_on_c, 14, 45, 0
16, 150960, Note_on_c, 14, 45, 52
16, 151199, Note_on_c, 14, 45, 0
16, 151560, Note_on_c, 14, 52, 52
16, 151664, Note_on_c, 14, 52, 0
16, 151680, Note_on_c, 14, 54, 68
16, 151799, Note_on_c, 14, 54, 0
16, 151800, Note_on_c, 14, 52, 52
16, 151904, Note_on_c, 14, 52, 0
16, 151920, Note_on_c, 14, 49, 52
16, 152009, Note_on_c, 14, 49, 0
16, 152040, Note_on_c, 14, 45, 52
16, 152279, Note_on_c, 14, 45, 0
16, 153060, Note_on_c, 14, 45, 52
16, 153111, Note_on_c, 14, 45, 0
16, 153120, Note_on_c, 14, 45, 52
16, 153359, Note_on_c, 14, 45, 0
16, 153720, Note_on_c, 14, 52, 52
16, 153824, Note_on_c, 14, 52, 0
16, 153840, Note_on_c, 14, 54, 68
16, 153959, Note_on_c, 14, 54, 0
16, 153960, Note_on_c, 14, 52, 52
16, 154064, Note_on_c, 14, 52, 0
16, 154080, Note_on_c, 14, 49, 52
16, 154169, Note_on_c, 14, 49, 0
16, 154200, Note_on_c, 14, 45, 52
16, 154439, Note_on_c, 14, 45, 0
16, 155220, Note_on_c, 14, 52, 52
16, 155271, Note_on_c, 14, 52, 0
16, 155280, Note_on_c, 14, 52, 76
16, 155320, Control_c, 14, 11, 123
16, 155360, Control_c, 14, 11, 119
16, 155400, Control_c, 14, 11, 115
16, 155440, Control_c, 14, 11, 111
16, 155480, Control_c, 14, 11, 107
16, 155520, Control_c, 14, 11, 104
16, 155560, Control_c, 14, 11, 100
16, 155600, Control_c, 14, 11, 96
16, 155640, Control_c, 14, 11, 92
16, 155680, Control_c, 14, 11, 88
16, 155720, Control_c, 14, 11, 84
16, 155760, Control_c, 14, 11, 80
16, 155879, Note_on_c, 14, 52, 0
16, 156360, Control_c, 14, 11, 127
16, 156660, Note_on_c, 14, 52, 52
16, 156711, Note_on_c, 14, 52, 0
16, 156720, Note_on_c, 14, 52, 76
16, 157251, Note_on_c, 14, 52, 0
16, 157260, Note_on_c, 14, 49, 76
16, 157304, Note_on_c, 14, 49, 0
16, 157320, Note_on_c, 14, 45, 76
16, 157409, Note_on_c, 14, 45, 0
16, 157440, Note_on_c, 14, 52, 84
16, 157499, Note_on_c, 14, 52, 0
16, 157500, Note_on_c, 14, 52, 76
16, 157971, Note_on_c, 14, 52, 0
16, 157980, Note_on_c, 14, 49, 76
16, 158024, Note_on_c, 14, 49, 0
16, 158040, Note_on_c, 14, 46, 76
16, 158129, Note_on_c, 14, 46, 0
16, 158160, Note_on_c, 14, 52, 84
16, 158219, Note_on_c, 14, 52, 0
16, 158220, Note_on_c, 14, 52, 76
16, 158279, Note_on_c, 14, 52, 0
16, 158340, Note_on_c, 14, 50, 76
16, 158384, Note_on_c, 14, 50, 0
16, 158400, Note_on_c, 14, 47, 76
16, 158489, Note_on_c, 14, 47, 0
16, 158520, Note_on_c, 14, 56, 84
16, 158579, Note_on_c, 14, 56, 0
16, 158580, Note_on_c, 14, 56, 76
16, 158639, Note_on_c, 14, 56, 0
16, 158700, Note_on_c, 14, 52, 76
16, 158744, Note_on_c, 14, 52, 0
16, 158760, Note_on_c, 14, 50, 76
16, 158849, Note_on_c, 14, 50, 0
16, 158880, Note_on_c, 14, 59, 84
16, 158939, Note_on_c, 14, 59, 0
16, 158940, Note_on_c, 14, 59, 76
16, 158999, Note_on_c, 14, 59, 0
16, 159060, Note_on_c, 14, 56, 76
16, 159104, Note_on_c, 14, 56, 0
16, 159120, Note_on_c, 14, 52, 76
16, 159209, Note_on_c, 14, 52, 0
16, 159240, Note_on_c, 14, 62, 84
16, 159299, Note_on_c, 14, 62, 0
16, 159300, Note_on_c, 14, 62, 76
16, 159359, Note_on_c, 14, 62, 0
16, 159420, Note_on_c, 14, 59, 76
16, 159464, Note_on_c, 14, 59, 0
16, 159480, Note_on_c, 14, 56, 76
16, 159569, Note_on_c, 14, 56, 0
16, 159600, Note_on_c, 14, 52, 76
16, 159944, Note_on_c, 14, 52, 0
16, 160320, Note_on_c, 14, 45, 84
16, 160491, Note_on_c, 14, 45, 0
16, 160500, Note_on_c, 14, 45, 84
16, 160551, Note_on_c, 14, 45, 0
16, 160560, Note_on_c, 14, 45, 84
16, 160664, Note_on_c, 14, 45, 0
16, 160680, Note_on_c, 14, 45, 84
16, 160851, Note_on_c, 14, 45, 0
16, 160860, Note_on_c, 14, 45, 84
16, 160911, Note_on_c, 14, 45, 0
16, 160920, Note_on_c, 14, 45, 84
16, 161024, Note_on_c, 14, 45, 0
16, 161040, Note_on_c, 14, 45, 84
16, 161211, Note_on_c, 14, 45, 0
16, 161220, Note_on_c, 14, 45, 84
16, 161271, Note_on_c, 14, 45, 0
16, 161280, Note_on_c, 14, 45, 84
16, 161384, Note_on_c, 14, 45, 0
16, 161400, Note_on_c, 14, 45, 84
16, 161571, Note_on_c, 14, 45, 0
16, 161580, Note_on_c, 14, 45, 84
16, 161631, Note_on_c, 14, 45, 0
16, 161640, Note_on_c, 14, 45, 84
16, 161744, Note_on_c, 14, 45, 0
16, 161760, Note_on_c, 14, 45, 84
16, 161931, Note_on_c, 14, 45, 0
16, 161940, Note_on_c, 14, 45, 84
16, 161991, Note_on_c, 14, 45, 0
16, 162000, Note_on_c, 14, 45, 84
16, 162104, Note_on_c, 14, 45, 0
16, 162120, Note_on_c, 14, 45, 84
16, 162291, Note_on_c, 14, 45, 0
16, 162300, Note_on_c, 14, 45, 84
16, 162351, Note_on_c, 14, 45, 0
16, 162360, Note_on_c, 14, 45, 84
16, 162464, Note_on_c, 14, 45, 0
16, 162480, Note_on_c, 14, 45, 84
16, 162651, Note_on_c, 14, 45, 0
16, 162660, Note_on_c, 14, 45, 84
16, 162711, Note_on_c, 14, 45, 0
16, 162720, Note_on_c, 14, 45, 84
16, 162824, Note_on_c, 14, 45, 0
16, 162840, Note_on_c, 14, 45, 84
16, 163011, Note_on_c, 14, 45, 0
16, 163020, Note_on_c, 14, 45, 84
16, 163071, Note_on_c, 14, 45, 0
16, 163080, Note_on_c, 14, 45, 84
16, 163184, Note_on_c, 14, 45, 0
16, 163200, Note_on_c, 14, 45, 84
16, 163371, Note_on_c, 14, 45, 0
16, 163380, Note_on_c, 14, 45, 84
16, 163431, Note_on_c, 14, 45, 0
16, 163440, Note_on_c, 14, 45, 84
16, 163544, Note_on_c, 14, 45, 0
16, 163560, Note_on_c, 14, 45, 84
16, 163731, Note_on_c, 14, 45, 0
16, 163740, Note_on_c, 14, 45, 84
16, 163791, Note_on_c, 14, 45, 0
16, 163800, Note_on_c, 14, 45, 84
16, 163904, Note_on_c, 14, 45, 0
16, 163920, Note_on_c, 14, 45, 84
16, 164091, Note_on_c, 14, 45, 0
16, 164100, Note_on_c, 14, 45, 84
16, 164151, Note_on_c, 14, 45, 0
16, 164160, Note_on_c, 14, 45, 84
16, 164264, Note_on_c, 14, 45, 0
16, 164280, Note_on_c, 14, 45, 84
16, 164451, Note_on_c, 14, 45, 0
16, 164460, Note_on_c, 14, 45, 84
16, 164511, Note_on_c, 14, 45, 0
16, 164520, Note_on_c, 14, 45, 84
16, 164624, Note_on_c, 14, 45, 0
16, 164640, Note_on_c, 14, 45, 84
16, 164811, Note_on_c, 14, 45, 0
16, 164820, Note_on_c, 14, 45, 84
16, 164871, Note_on_c, 14, 45, 0
16, 164880, Note_on_c, 14, 49, 84
16, 164984, Note_on_c, 14, 49, 0
16, 165000, Note_on_c, 14, 52, 84
16, 165171, Note_on_c, 14, 52, 0
16, 165180, Note_on_c, 14, 52, 84
16, 165231, Note_on_c, 14, 52, 0
16, 165240, Note_on_c, 14, 40, 84
16, 165344, Note_on_c, 14, 40, 0
16, 165360, Note_on_c, 14, 45, 84
16, 165531, Note_on_c, 14, 45, 0
16, 165540, Note_on_c, 14, 45, 84
16, 165591, Note_on_c, 14, 45, 0
16, 165600, Note_on_c, 14, 45, 84
16, 165704, Note_on_c, 14, 45, 0
16, 165720, Note_on_c, 14, 45, 84
16, 165891, Note_on_c, 14, 45, 0
16, 165900, Note_on_c, 14, 45, 84
16, 165951, Note_on_c, 14, 45, 0
16, 165960, Note_on_c, 14, 45, 84
16, 166064, Note_on_c, 14, 45, 0
16, 166080, Note_on_c, 14, 45, 84
16, 166319, Note_on_c, 14, 45, 0
16, 166680, Note_on_c, 14, 45, 84
16, 166784, Note_on_c, 14, 45, 0
16, 166800, Note_on_c, 14, 45, 84
16, 167024, Note_on_c, 14, 45, 0
16, 167040, Note_on_c, 14, 45, 84
16, 167144, Note_on_c, 14, 45, 0
16, 167160, Note_on_c, 14, 45, 84
16, 167331, Note_on_c, 14, 45, 0
16, 167340, Note_on_c, 14, 49, 84
16, 167384, Note_on_c, 14, 49, 0
16, 167400, Note_on_c, 14, 52, 84
16, 167489, Note_on_c, 14, 52, 0
16, 167520, Note_on_c, 14, 55, 84
16, 167639, Note_on_c, 14, 55, 0
16, 167640, Note_on_c, 14, 54, 84
16, 167744, Note_on_c, 14, 54, 0
16, 167760, Note_on_c, 14, 50, 84
16, 167849, Note_on_c, 14, 50, 0
16, 167880, Note_on_c, 14, 45, 84
16, 168104, Note_on_c, 14, 45, 0
16, 168120, Note_on_c, 14, 45, 84
16, 168224, Note_on_c, 14, 45, 0
16, 168240, Note_on_c, 14, 45, 84
16, 168464, Note_on_c, 14, 45, 0
16, 168480, Note_on_c, 14, 45, 84
16, 168584, Note_on_c, 14, 45, 0
16, 168600, Note_on_c, 14, 45, 84
16, 168771, Note_on_c, 14, 45, 0
16, 168780, Note_on_c, 14, 49, 84
16, 168824, Note_on_c, 14, 49, 0
16, 168840, Note_on_c, 14, 52, 52
16, 168929, Note_on_c, 14, 52, 0
16, 168960, Note_on_c, 14, 57, 52
16, 169079, Note_on_c, 14, 57, 0
16, 169080, Note_on_c, 14, 61, 52
16, 169184, Note_on_c, 14, 61, 0
16, 169200, Note_on_c, 14, 64, 53
16, 169289, Note_on_c, 14, 64, 0
16, 169320, Note_on_c, 14, 45, 54
16, 169491, Note_on_c, 14, 45, 0
16, 169500, Note_on_c, 14, 49, 55
16, 169544, Note_on_c, 14, 49, 0
16, 169560, Note_on_c, 14, 52, 55
16, 169649, Note_on_c, 14, 52, 0
16, 169680, Note_on_c, 14, 57, 56
16, 169799, Note_on_c, 14, 57, 0
16, 169800, Note_on_c, 14, 62, 56
16, 169904, Note_on_c, 14, 62, 0
16, 169920, Note_on_c, 14, 66, 57
16, 170009, Note_on_c, 14, 66, 0
16, 170040, Note_on_c, 14, 45, 58
16, 170211, Note_on_c, 14, 45, 0
16, 170220, Note_on_c, 14, 50, 59
16, 170264, Note_on_c, 14, 50, 0
16, 170280, Note_on_c, 14, 54, 59
16, 170369, Note_on_c, 14, 54, 0
16, 170400, Note_on_c, 14, 57, 60
16, 170519, Note_on_c, 14, 57, 0
16, 170520, Note_on_c, 14, 59, 60
16, 170624, Note_on_c, 14, 59, 0
16, 170640, Note_on_c, 14, 62, 61
16, 170729, Note_on_c, 14, 62, 0
16, 170760, Note_on_c, 14, 45, 62
16, 170931, Note_on_c, 14, 45, 0
16, 170940, Note_on_c, 14, 47, 63
16, 170984, Note_on_c, 14, 47, 0
16, 171000, Note_on_c, 14, 50, 63
16, 171089, Note_on_c, 14, 50, 0
16, 171120, Note_on_c, 14, 57, 64
16, 171239, Note_on_c, 14, 57, 0
16, 171240, Note_on_c, 14, 61, 64
16, 171344, Note_on_c, 14, 61, 0
16, 171360, Note_on_c, 14, 64, 65
16, 171449, Note_on_c, 14, 64, 0
16, 171480, Note_on_c, 14, 45, 66
16, 171651, Note_on_c, 14, 45, 0
16, 171660, Note_on_c, 14, 49, 67
16, 171704, Note_on_c, 14, 49, 0
16, 171720, Note_on_c, 14, 52, 67
16, 171809, Note_on_c, 14, 52, 0
16, 171840, Note_on_c, 14, 57, 68
16, 171929, Note_on_c, 14, 57, 0
16, 171960, Note_on_c, 14, 61, 68
16, 172049, Note_on_c, 14, 61, 0
16, 172080, Note_on_c, 14, 64, 69
16, 172169, Note_on_c, 14, 64, 0
16, 172200, Note_on_c, 14, 45, 70
16, 172289, Note_on_c, 14, 45, 0
16, 172320, Note_on_c, 14, 49, 70
16, 172409, Note_on_c, 14, 49, 0
16, 172440, Note_on_c, 14, 52, 71
16, 172529, Note_on_c, 14, 52, 0
16, 172560, Note_on_c, 14, 57, 72
16, 172649, Note_on_c, 14, 57, 0
16, 172680, Note_on_c, 14, 62, 72
16, 172769, Note_on_c, 14, 62, 0
16, 172800, Note_on_c, 14, 66, 73
16, 172889, Note_on_c, 14, 66, 0
16, 172920, Note_on_c, 14, 45, 74
16, 173009, Note_on_c, 14, 45, 0
16, 173040, Note_on_c, 14, 50, 74
16, 173129, Note_on_c, 14, 50, 0
16, 173160, Note_on_c, 14, 54, 75
16, 173249, Note_on_c, 14, 54, 0
16, 173280, Note_on_c, 14, 57, 76
16, 173369, Note_on_c, 14, 57, 0
16, 173400, Note_on_c, 14, 59, 76
16, 173489, Note_on_c, 14, 59, 0
16, 173520, Note_on_c, 14, 62, 77
16, 173609, Note_on_c, 14, 62, 0
16, 173640, Note_on_c, 14, 45, 78
16, 173729, Note_on_c, 14, 45, 0
16, 173760, Note_on_c, 14, 47, 78
16, 173849, Note_on_c, 14, 47, 0
16, 173880, Note_on_c, 14, 50, 79
16, 173969, Note_on_c, 14, 50, 0
16, 174000, Note_on_c, 14, 57, 80
16, 174089, Note_on_c, 14, 57, 0
16, 174120, Note_on_c, 14, 61, 80
16, 174209, Note_on_c, 14, 61, 0
16, 174240, Note_on_c, 14, 64, 81
16, 174329, Note_on_c, 14, 64, 0
16, 174360, Note_on_c, 14, 45, 82
16, 174449, Note_on_c, 14, 45, 0
16, 174480, Note_on_c, 14, 49, 82
16, 174569, Note_on_c, 14, 49, 0
16, 174600, Note_on_c, 14, 52, 83
16, 174689, Note_on_c, 14, 52, 0
16, 174720, Note_on_c, 14, 48, 84
16, 174771, Note_on_c, 14, 48, 0
16, 174780, Note_on_c, 14, 60, 84
16, 174831, Note_on_c, 14, 60, 0
16, 174840, Note_on_c, 14, 60, 84
16, 174891, Note_on_c, 14, 60, 0
16, 174900, Note_on_c, 14, 60, 84
16, 174951, Note_on_c, 14, 60, 0
16, 174960, Note_on_c, 14, 60, 84
16, 175011, Note_on_c, 14, 60, 0
16, 175020, Note_on_c, 14, 60, 84
16, 175071, Note_on_c, 14, 60, 0
16, 175080, Note_on_c, 14, 60, 84
16, 175131, Note_on_c, 14, 60, 0
16, 175140, Note_on_c, 14, 60, 84
16, 175191, Note_on_c, 14, 60, 0
16, 175200, Note_on_c, 14, 60, 84
16, 175251, Note_on_c, 14, 60, 0
16, 175260, Note_on_c, 14, 60, 84
16, 175311, Note_on_c, 14, 60, 0
16, 175320, Note_on_c, 14, 60, 84
16, 175371, Note_on_c, 14, 60, 0
16, 175380, Note_on_c, 14, 60, 84
16, 175431, Note_on_c, 14, 60, 0
16, 175440, Note_on_c, 14, 59, 84
16, 175491, Note_on_c, 14, 59, 0
16, 175500, Note_on_c, 14, 59, 84
16, 175551, Note_on_c, 14, 59, 0
16, 175560, Note_on_c, 14, 59, 84
16, 175611, Note_on_c, 14, 59, 0
16, 175620, Note_on_c, 14, 59, 84
16, 175671, Note_on_c, 14, 59, 0
16, 175680, Note_on_c, 14, 59, 84
16, 175731, Note_on_c, 14, 59, 0
16, 175740, Note_on_c, 14, 59, 84
16, 175791, Note_on_c, 14, 59, 0
16, 175800, Note_on_c, 14, 59, 84
16, 175851, Note_on_c, 14, 59, 0
16, 175860, Note_on_c, 14, 59, 84
16, 175911, Note_on_c, 14, 59, 0
16, 175920, Note_on_c, 14, 59, 52
16, 175971, Note_on_c, 14, 59, 0
16, 175980, Note_on_c, 14, 59, 52
16, 176031, Note_on_c, 14, 59, 0
16, 176040, Note_on_c, 14, 59, 52
16, 176091, Note_on_c, 14, 59, 0
16, 176100, Note_on_c, 14, 59, 52
16, 176151, Note_on_c, 14, 59, 0
16, 176160, Note_on_c, 14, 57, 52
16, 176211, Note_on_c, 14, 57, 0
16, 176220, Note_on_c, 14, 57, 52
16, 176271, Note_on_c, 14, 57, 0
16, 176280, Note_on_c, 14, 57, 52
16, 176331, Note_on_c, 14, 57, 0
16, 176340, Note_on_c, 14, 57, 52
16, 176391, Note_on_c, 14, 57, 0
16, 176400, Note_on_c, 14, 57, 52
16, 176451, Note_on_c, 14, 57, 0
16, 176460, Note_on_c, 14, 57, 52
16, 176511, Note_on_c, 14, 57, 0
16, 176520, Note_on_c, 14, 57, 52
16, 176571, Note_on_c, 14, 57, 0
16, 176580, Note_on_c, 14, 57, 52
16, 176631, Note_on_c, 14, 57, 0
16, 176640, Note_on_c, 14, 57, 52
16, 176691, Note_on_c, 14, 57, 0
16, 176700, Note_on_c, 14, 57, 52
16, 176751, Note_on_c, 14, 57, 0
16, 176760, Note_on_c, 14, 57, 52
16, 176811, Note_on_c, 14, 57, 0
16, 176820, Note_on_c, 14, 57, 52
16, 176871, Note_on_c, 14, 57, 0
16, 176880, Note_on_c, 14, 56, 52
16, 177119, Note_on_c, 14, 56, 0
16, 177240, Note_on_c, 14, 56, 52
16, 177479, Note_on_c, 14, 56, 0
16, 177600, Note_on_c, 14, 56, 52
16, 177839, Note_on_c, 14, 56, 0
16, 177960, Note_on_c, 14, 56, 52
16, 178199, Note_on_c, 14, 56, 0
16, 178320, Note_on_c, 14, 56, 52
16, 178559, Note_on_c, 14, 56, 0
16, 178680, Note_on_c, 14, 56, 52
16, 178919, Note_on_c, 14, 56, 0
16, 179040, Note_on_c, 14, 49, 52
16, 179091, Note_on_c, 14, 49, 0
16, 179100, Note_on_c, 14, 49, 54
16, 179151, Note_on_c, 14, 49, 0
16, 179160, Note_on_c, 14, 49, 56
16, 179211, Note_on_c, 14, 49, 0
16, 179220, Note_on_c, 14, 49, 58
16, 179271, Note_on_c, 14, 49, 0
16, 179280, Note_on_c, 14, 49, 60
16, 179331, Note_on_c, 14, 49, 0
16, 179340, Note_on_c, 14, 49, 62
16, 179391, Note_on_c, 14, 49, 0
16, 179400, Note_on_c, 14, 52, 64
16, 179451, Note_on_c, 14, 52, 0
16, 179460, Note_on_c, 14, 52, 66
16, 179511, Note_on_c, 14, 52, 0
16, 179520, Note_on_c, 14, 52, 68
16, 179571, Note_on_c, 14, 52, 0
16, 179580, Note_on_c, 14, 52, 70
16, 179631, Note_on_c, 14, 52, 0
16, 179640, Note_on_c, 14, 52, 72
16, 179691, Note_on_c, 14, 52, 0
16, 179700, Note_on_c, 14, 52, 74
16, 179751, Note_on_c, 14, 52, 0
16, 179760, Note_on_c, 14, 51, 76
16, 179999, Note_on_c, 14, 51, 0
16, 180120, Note_on_c, 14, 51, 52
16, 180359, Note_on_c, 14, 51, 0
16, 180480, Note_on_c, 14, 51, 52
16, 180719, Note_on_c, 14, 51, 0
16, 180840, Note_on_c, 14, 51, 52
16, 181079, Note_on_c, 14, 51, 0
16, 181200, Note_on_c, 14, 51, 52
16, 181439, Note_on_c, 14, 51, 0
16, 181560, Note_on_c, 14, 51, 52
16, 181799, Note_on_c, 14, 51, 0
16, 181918, Control_c, 14, 11, 80
16, 181920, Note_on_c, 14, 56, 76
16, 181920, Control_c, 14, 11, 80
16, 181960, Control_c, 14, 11, 83
16, 182000, Control_c, 14, 11, 85
16, 182040, Control_c, 14, 11, 88
16, 182080, Control_c, 14, 11, 90
16, 182120, Control_c, 14, 11, 93
16, 182160, Control_c, 14, 11, 96
16, 182200, Control_c, 14, 11, 98
16, 182240, Control_c, 14, 11, 101
16, 182280, Control_c, 14, 11, 104
16, 182320, Control_c, 14, 11, 106
16, 182360, Control_c, 14, 11, 109
16, 182400, Control_c, 14, 11, 111
16, 182440, Control_c, 14, 11, 114
16, 182480, Control_c, 14, 11, 117
16, 182520, Control_c, 14, 11, 119
16, 182560, Control_c, 14, 11, 122
16, 182600, Control_c, 14, 11, 127
16, 182624, Note_on_c, 14, 56, 0
16, 182640, Note_on_c, 14, 42, 76
16, 182864, Note_on_c, 14, 42, 0
16, 182880, Note_on_c, 14, 42, 76
16, 182984, Note_on_c, 14, 42, 0
16, 183000, Note_on_c, 14, 54, 76
16, 183224, Note_on_c, 14, 54, 0
16, 183240, Note_on_c, 14, 54, 76
16, 183344, Note_on_c, 14, 54, 0
16, 183360, Note_on_c, 14, 54, 76
16, 183479, Note_on_c, 14, 54, 0
16, 183480, Note_on_c, 14, 52, 76
16, 184064, Note_on_c, 14, 52, 0
16, 184080, Note_on_c, 14, 39, 76
16, 184304, Note_on_c, 14, 39, 0
16, 184320, Note_on_c, 14, 39, 76
16, 184424, Note_on_c, 14, 39, 0
16, 184440, Note_on_c, 14, 51, 76
16, 184664, Note_on_c, 14, 51, 0
16, 184680, Note_on_c, 14, 51, 76
16, 184784, Note_on_c, 14, 51, 0
16, 184800, Note_on_c, 14, 51, 76
16, 184919, Note_on_c, 14, 51, 0
16, 184920, Note_on_c, 14, 49, 76
16, 185384, Note_on_c, 14, 49, 0
16, 185400, Note_on_c, 14, 48, 76
16, 185504, Note_on_c, 14, 48, 0
16, 185520, Note_on_c, 14, 47, 76
16, 185699, Note_on_c, 14, 47, 0
16, 185880, Note_on_c, 14, 47, 76
16, 186059, Note_on_c, 14, 47, 0
16, 186240, Note_on_c, 14, 47, 76
16, 186419, Note_on_c, 14, 47, 0
16, 186600, Note_on_c, 14, 47, 76
16, 186779, Note_on_c, 14, 47, 0
16, 186960, Note_on_c, 14, 47, 76
16, 187139, Note_on_c, 14, 47, 0
16, 187320, Note_on_c, 14, 47, 76
16, 187499, Note_on_c, 14, 47, 0
16, 187680, Note_on_c, 14, 47, 76
16, 187859, Note_on_c, 14, 47, 0
16, 188040, Note_on_c, 14, 47, 76
16, 188219, Note_on_c, 14, 47, 0
16, 188400, Note_on_c, 14, 49, 84
16, 188460, Control_c, 14, 11, 112
16, 188497, Control_c, 14, 11, 109
16, 188533, Control_c, 14, 11, 107
16, 188570, Control_c, 14, 11, 104
16, 188607, Control_c, 14, 11, 101
16, 188643, Control_c, 14, 11, 99
16, 188680, Control_c, 14, 11, 96
16, 188717, Control_c, 14, 11, 93
16, 188753, Control_c, 14, 11, 91
16, 188790, Control_c, 14, 11, 88
16, 188827, Control_c, 14, 11, 85
16, 188863, Control_c, 14, 11, 83
16, 188900, Control_c, 14, 11, 80
16, 188937, Control_c, 14, 11, 77
16, 188973, Control_c, 14, 11, 75
16, 188999, Note_on_c, 14, 49, 0
16, 189000, Note_on_c, 14, 48, 84
16, 189010, Control_c, 14, 11, 72
16, 189047, Control_c, 14, 11, 69
16, 189083, Control_c, 14, 11, 64
16, 189104, Note_on_c, 14, 48, 0
16, 189120, Note_on_c, 14, 47, 84
16, 189719, Note_on_c, 14, 47, 0
16, 189720, Note_on_c, 14, 49, 84
16, 189779, Note_on_c, 14, 49, 0
16, 189780, Note_on_c, 14, 51, 84
16, 189839, Note_on_c, 14, 51, 0
16, 189840, Note_on_c, 14, 52, 84
16, 190079, Note_on_c, 14, 52, 0
16, 191160, Control_c, 14, 11, 127
16, 191280, Note_on_c, 14, 52, 48
16, 191639, Note_on_c, 14, 52, 0
16, 191640, Note_on_c, 14, 56, 48
16, 191999, Note_on_c, 14, 56, 0
16, 192000, Note_on_c, 14, 59, 48
16, 192359, Note_on_c, 14, 59, 0
16, 192360, Note_on_c, 14, 47, 48
16, 192704, Note_on_c, 14, 47, 0
16, 192720, Note_on_c, 14, 52, 76
16, 193064, Note_on_c, 14, 52, 0
16, 193080, Note_on_c, 14, 52, 76
16, 193251, Note_on_c, 14, 52, 0
16, 193260, Note_on_c, 14, 52, 76
16, 193311, Note_on_c, 14, 52, 0
16, 193320, Note_on_c, 14, 52, 76
16, 193424, Note_on_c, 14, 52, 0
16, 193440, Note_on_c, 14, 52, 76
16, 193611, Note_on_c, 14, 52, 0
16, 193620, Note_on_c, 14, 52, 76
16, 193671, Note_on_c, 14, 52, 0
16, 193680, Note_on_c, 14, 52, 76
16, 193784, Note_on_c, 14, 52, 0
16, 193800, Note_on_c, 14, 52, 76
16, 193971, Note_on_c, 14, 52, 0
16, 193980, Note_on_c, 14, 52, 76
16, 194031, Note_on_c, 14, 52, 0
16, 194040, Note_on_c, 14, 50, 76
16, 194144, Note_on_c, 14, 50, 0
16, 194160, Note_on_c, 14, 48, 76
16, 194331, Note_on_c, 14, 48, 0
16, 194340, Note_on_c, 14, 60, 76
16, 194391, Note_on_c, 14, 60, 0
16, 194400, Note_on_c, 14, 55, 76
16, 194504, Note_on_c, 14, 55, 0
16, 194520, Note_on_c, 14, 52, 76
16, 194691, Note_on_c, 14, 52, 0
16, 194700, Note_on_c, 14, 52, 76
16, 194751, Note_on_c, 14, 52, 0
16, 194760, Note_on_c, 14, 48, 76
16, 194864, Note_on_c, 14, 48, 0
16, 194880, Note_on_c, 14, 43, 76
16, 195051, Note_on_c, 14, 43, 0
16, 195060, Note_on_c, 14, 43, 76
16, 195111, Note_on_c, 14, 43, 0
16, 195120, Note_on_c, 14, 40, 76
16, 195224, Note_on_c, 14, 40, 0
16, 195240, Note_on_c, 14, 36, 76
16, 195411, Note_on_c, 14, 36, 0
16, 195420, Note_on_c, 14, 48, 76
16, 195471, Note_on_c, 14, 48, 0
16, 195480, Note_on_c, 14, 43, 76
16, 195584, Note_on_c, 14, 43, 0
16, 195600, Note_on_c, 14, 48, 76
16, 195839, Note_on_c, 14, 48, 0
16, 196140, Note_on_c, 14, 43, 75
16, 196191, Note_on_c, 14, 43, 0
16, 196200, Note_on_c, 14, 43, 73
16, 196304, Note_on_c, 14, 43, 0
16, 196320, Note_on_c, 14, 48, 70
16, 196559, Note_on_c, 14, 48, 0
16, 196860, Note_on_c, 14, 43, 57
16, 196911, Note_on_c, 14, 43, 0
16, 196920, Note_on_c, 14, 43, 55
16, 197024, Note_on_c, 14, 43, 0
16, 197040, Note_on_c, 14, 48, 52
16, 197279, Note_on_c, 14, 48, 0
16, 197760, Note_on_c, 14, 48, 44
16, 197999, Note_on_c, 14, 48, 0
16, 198720, Note_on_c, 14, 39, 44
16, 198779, Note_on_c, 14, 39, 0
16, 198780, Note_on_c, 14, 40, 44
16, 198839, Note_on_c, 14, 40, 0
16, 198840, Note_on_c, 14, 42, 44
16, 199019, Note_on_c, 14, 42, 0
16, 200160, Note_on_c, 14, 39, 44
16, 200219, Note_on_c, 14, 39, 0
16, 200220, Note_on_c, 14, 40, 44
16, 200279, Note_on_c, 14, 40, 0
16, 200280, Note_on_c, 14, 42, 44
16, 200459, Note_on_c, 14, 42, 0
16, 201600, Note_on_c, 14, 39, 46
16, 201659, Note_on_c, 14, 39, 0
16, 201660, Note_on_c, 14, 40, 46
16, 201719, Note_on_c, 14, 40, 0
16, 201720, Note_on_c, 14, 42, 47
16, 201839, Note_on_c, 14, 42, 0
16, 201960, Note_on_c, 14, 40, 49
16, 202019, Note_on_c, 14, 40, 0
16, 202020, Note_on_c, 14, 42, 50
16, 202079, Note_on_c, 14, 42, 0
16, 202080, Note_on_c, 14, 44, 50
16, 202199, Note_on_c, 14, 44, 0
16, 202320, Note_on_c, 14, 40, 52
16, 202379, Note_on_c, 14, 40, 0
16, 202380, Note_on_c, 14, 42, 53
16, 202439, Note_on_c, 14, 42, 0
16, 202440, Note_on_c, 14, 44, 54
16, 202559, Note_on_c, 14, 44, 0
16, 202680, Note_on_c, 14, 42, 56
16, 202739, Note_on_c, 14, 42, 0
16, 202740, Note_on_c, 14, 44, 56
16, 202799, Note_on_c, 14, 44, 0
16, 202800, Note_on_c, 14, 45, 57
16, 202919, Note_on_c, 14, 45, 0
16, 203040, Note_on_c, 14, 42, 59
16, 203099, Note_on_c, 14, 42, 0
16, 203100, Note_on_c, 14, 44, 60
16, 203159, Note_on_c, 14, 44, 0
16, 203160, Note_on_c, 14, 45, 60
16, 203279, Note_on_c, 14, 45, 0
16, 203400, Note_on_c, 14, 44, 62
16, 203459, Note_on_c, 14, 44, 0
16, 203460, Note_on_c, 14, 45, 63
16, 203519, Note_on_c, 14, 45, 0
16, 203520, Note_on_c, 14, 47, 64
16, 203639, Note_on_c, 14, 47, 0
16, 203760, Note_on_c, 14, 44, 66
16, 203819, Note_on_c, 14, 44, 0
16, 203820, Note_on_c, 14, 45, 66
16, 203879, Note_on_c, 14, 45, 0
16, 203880, Note_on_c, 14, 47, 67
16, 203999, Note_on_c, 14, 47, 0
16, 204120, Note_on_c, 14, 45, 69
16, 204179, Note_on_c, 14, 45, 0
16, 204180, Note_on_c, 14, 47, 70
16, 204239, Note_on_c, 14, 47, 0
16, 204240, Note_on_c, 14, 49, 70
16, 204359, Note_on_c, 14, 49, 0
16, 204480, Note_on_c, 14, 45, 72
16, 204539, Note_on_c, 14, 45, 0
16, 204540, Note_on_c, 14, 47, 73
16, 204599, Note_on_c, 14, 47, 0
16, 204600, Note_on_c, 14, 49, 74
16, 204719, Note_on_c, 14, 49, 0
16, 204840, Note_on_c, 14, 47, 76
16, 204899, Note_on_c, 14, 47, 0
16, 204900, Note_on_c, 14, 49, 76
16, 204959, Note_on_c, 14, 49, 0
16, 204960, Note_on_c, 14, 51, 77
16, 205079, Note_on_c, 14, 51, 0
16, 205200, Note_on_c, 14, 47, 79
16, 205259, Note_on_c, 14, 47, 0
16, 205260, Note_on_c, 14, 49, 80
16, 205319, Note_on_c, 14, 49, 0
16, 205320, Note_on_c, 14, 51, 80
16, 205439, Note_on_c, 14, 51, 0
16, 205560, Note_on_c, 14, 49, 82
16, 205619, Note_on_c, 14, 49, 0
16, 205620, Note_on_c, 14, 51, 83
16, 205679, Note_on_c, 14, 51, 0
16, 205680, Note_on_c, 14, 52, 84
16, 205851, Note_on_c, 14, 52, 0
16, 205860, Note_on_c, 14, 64, 84
16, 205911, Note_on_c, 14, 64, 0
16, 205920, Note_on_c, 14, 59, 84
16, 206024, Note_on_c, 14, 59, 0
16, 206040, Note_on_c, 14, 56, 84
16, 206211, Note_on_c, 14, 56, 0
16, 206220, Note_on_c, 14, 56, 84
16, 206271, Note_on_c, 14, 56, 0
16, 206280, Note_on_c, 14, 52, 84
16, 206384, Note_on_c, 14, 52, 0
16, 206400, Note_on_c, 14, 47, 84
16, 206571, Note_on_c, 14, 47, 0
16, 206580, Note_on_c, 14, 47, 84
16, 206631, Note_on_c, 14, 47, 0
16, 206640, Note_on_c, 14, 44, 84
16, 206744, Note_on_c, 14, 44, 0
16, 206760, Note_on_c, 14, 40, 84
16, 206999, Note_on_c, 14, 40, 0
16, 207120, Note_on_c, 14, 69, 84
16, 207291, Note_on_c, 14, 69, 0
16, 207300, Note_on_c, 14, 69, 84
16, 207351, Note_on_c, 14, 69, 0
16, 207360, Note_on_c, 14, 66, 84
16, 207464, Note_on_c, 14, 66, 0
16, 207480, Note_on_c, 14, 61, 84
16, 207651, Note_on_c, 14, 61, 0
16, 207660, Note_on_c, 14, 61, 84
16, 207711, Note_on_c, 14, 61, 0
16, 207720, Note_on_c, 14, 57, 84
16, 207824, Note_on_c, 14, 57, 0
16, 207840, Note_on_c, 14, 54, 84
16, 208011, Note_on_c, 14, 54, 0
16, 208020, Note_on_c, 14, 54, 84
16, 208071, Note_on_c, 14, 54, 0
16, 208080, Note_on_c, 14, 49, 84
16, 208184, Note_on_c, 14, 49, 0
16, 208200, Note_on_c, 14, 45, 84
16, 208439, Note_on_c, 14, 45, 0
16, 208560, Note_on_c, 14, 45, 44
16, 208611, Note_on_c, 14, 45, 0
16, 208620, Note_on_c, 14, 45, 44
16, 208671, Note_on_c, 14, 45, 0
16, 208680, Note_on_c, 14, 45, 44
16, 208731, Note_on_c, 14, 45, 0
16, 208740, Note_on_c, 14, 45, 44
16, 208791, Note_on_c, 14, 45, 0
16, 208800, Note_on_c, 14, 45, 44
16, 208851, Note_on_c, 14, 45, 0
16, 208860, Note_on_c, 14, 45, 44
16, 208911, Note_on_c, 14, 45, 0
16, 208920, Note_on_c, 14, 45, 44
16, 208971, Note_on_c, 14, 45, 0
16, 208980, Note_on_c, 14, 45, 44
16, 209031, Note_on_c, 14, 45, 0
16, 209040, Note_on_c, 14, 45, 44
16, 209091, Note_on_c, 14, 45, 0
16, 209100, Note_on_c, 14, 45, 44
16, 209151, Note_on_c, 14, 45, 0
16, 209160, Note_on_c, 14, 45, 44
16, 209211, Note_on_c, 14, 45, 0
16, 209220, Note_on_c, 14, 45, 44
16, 209271, Note_on_c, 14, 45, 0
16, 209280, Note_on_c, 14, 47, 44
16, 209331, Note_on_c, 14, 47, 0
16, 209340, Note_on_c, 14, 47, 47
16, 209391, Note_on_c, 14, 47, 0
16, 209400, Note_on_c, 14, 47, 50
16, 209451, Note_on_c, 14, 47, 0
16, 209460, Note_on_c, 14, 47, 54
16, 209511, Note_on_c, 14, 47, 0
16, 209520, Note_on_c, 14, 47, 57
16, 209571, Note_on_c, 14, 47, 0
16, 209580, Note_on_c, 14, 47, 60
16, 209631, Note_on_c, 14, 47, 0
16, 209640, Note_on_c, 14, 47, 64
16, 209691, Note_on_c, 14, 47, 0
16, 209700, Note_on_c, 14, 47, 67
16, 209751, Note_on_c, 14, 47, 0
16, 209760, Note_on_c, 14, 47, 70
16, 209811, Note_on_c, 14, 47, 0
16, 209820, Note_on_c, 14, 45, 74
16, 209871, Note_on_c, 14, 45, 0
16, 209880, Note_on_c, 14, 44, 77
16, 209931, Note_on_c, 14, 44, 0
16, 209940, Note_on_c, 14, 42, 80
16, 209991, Note_on_c, 14, 42, 0
16, 210000, Note_on_c, 14, 40, 84
16, 210171, Note_on_c, 14, 40, 0
16, 210180, Note_on_c, 14, 64, 84
16, 210231, Note_on_c, 14, 64, 0
16, 210240, Note_on_c, 14, 59, 84
16, 210344, Note_on_c, 14, 59, 0
16, 210360, Note_on_c, 14, 56, 84
16, 210531, Note_on_c, 14, 56, 0
16, 210540, Note_on_c, 14, 56, 84
16, 210591, Note_on_c, 14, 56, 0
16, 210600, Note_on_c, 14, 52, 84
16, 210704, Note_on_c, 14, 52, 0
16, 210720, Note_on_c, 14, 47, 84
16, 210891, Note_on_c, 14, 47, 0
16, 210900, Note_on_c, 14, 47, 84
16, 210951, Note_on_c, 14, 47, 0
16, 210960, Note_on_c, 14, 44, 84
16, 211064, Note_on_c, 14, 44, 0
16, 211080, Note_on_c, 14, 40, 84
16, 211319, Note_on_c, 14, 40, 0
16, 211440, Note_on_c, 14, 69, 84
16, 211611, Note_on_c, 14, 69, 0
16, 211620, Note_on_c, 14, 69, 84
16, 211671, Note_on_c, 14, 69, 0
16, 211680, Note_on_c, 14, 66, 84
16, 211784, Note_on_c, 14, 66, 0
16, 211800, Note_on_c, 14, 61, 84
16, 211971, Note_on_c, 14, 61, 0
16, 211980, Note_on_c, 14, 61, 84
16, 212031, Note_on_c, 14, 61, 0
16, 212040, Note_on_c, 14, 57, 84
16, 212144, Note_on_c, 14, 57, 0
16, 212160, Note_on_c, 14, 54, 84
16, 212331, Note_on_c, 14, 54, 0
16, 212340, Note_on_c, 14, 54, 84
16, 212391, Note_on_c, 14, 54, 0
16, 212400, Note_on_c, 14, 49, 84
16, 212504, Note_on_c, 14, 49, 0
16, 212520, Note_on_c, 14, 45, 84
16, 212759, Note_on_c, 14, 45, 0
16, 212880, Note_on_c, 14, 45, 44
16, 213584, Note_on_c, 14, 45, 0
16, 213598, Control_c, 14, 11, 48
16, 213600, Note_on_c, 14, 47, 84
16, 213640, Control_c, 14, 11, 52
16, 213680, Control_c, 14, 11, 57
16, 213720, Control_c, 14, 11, 61
16, 213760, Control_c, 14, 11, 66
16, 213800, Control_c, 14, 11, 70
16, 213840, Control_c, 14, 11, 74
16, 213880, Control_c, 14, 11, 79
16, 213920, Control_c, 14, 11, 83
16, 213960, Control_c, 14, 11, 88
16, 214000, Control_c, 14, 11, 92
16, 214040, Control_c, 14, 11, 96
16, 214080, Control_c, 14, 11, 101
16, 214120, Control_c, 14, 11, 105
16, 214160, Control_c, 14, 11, 109
16, 214200, Control_c, 14, 11, 114
16, 214240, Control_c, 14, 11, 118
16, 214280, Control_c, 14, 11, 123
16, 214304, Note_on_c, 14, 47, 0
16, 214318, Control_c, 14, 11, 127
16, 214320, Note_on_c, 14, 52, 84
16, 214559, Note_on_c, 14, 52, 0
16, 214680, Note_on_c, 14, 56, 84
16, 214919, Note_on_c, 14, 56, 0
16, 215040, Note_on_c, 14, 59, 84
16, 215279, Note_on_c, 14, 59, 0
16, 215580, Note_on_c, 14, 59, 84
16, 215631, Note_on_c, 14, 59, 0
16, 215640, Note_on_c, 14, 59, 84
16, 215744, Note_on_c, 14, 59, 0
16, 215760, Note_on_c, 14, 59, 92
16, 215819, Note_on_c, 14, 59, 0
16, 215820, Note_on_c, 14, 59, 84
16, 216291, Note_on_c, 14, 59, 0
16, 216300, Note_on_c, 14, 57, 84
16, 216344, Note_on_c, 14, 57, 0
16, 216360, Note_on_c, 14, 56, 84
16, 216441, Note_on_c, 14, 56, 0
16, 216450, Note_on_c, 14, 56, 84
16, 216479, Note_on_c, 14, 56, 0
16, 216480, Note_on_c, 14, 57, 92
16, 216539, Note_on_c, 14, 57, 0
16, 216540, Note_on_c, 14, 57, 84
16, 217011, Note_on_c, 14, 57, 0
16, 217020, Note_on_c, 14, 49, 84
16, 217064, Note_on_c, 14, 49, 0
16, 217080, Note_on_c, 14, 51, 84
16, 217169, Note_on_c, 14, 51, 0
16, 217200, Note_on_c, 14, 52, 84
16, 217439, Note_on_c, 14, 52, 0
16, 217740, Note_on_c, 14, 59, 84
16, 217791, Note_on_c, 14, 59, 0
16, 217800, Note_on_c, 14, 59, 84
16, 217904, Note_on_c, 14, 59, 0
16, 217920, Note_on_c, 14, 59, 92
16, 217979, Note_on_c, 14, 59, 0
16, 217980, Note_on_c, 14, 59, 84
16, 218151, Note_on_c, 14, 59, 0
16, 218160, Note_on_c, 14, 56, 84
16, 218241, Note_on_c, 14, 56, 0
16, 218250, Note_on_c, 14, 56, 84
16, 218279, Note_on_c, 14, 56, 0
16, 218280, Note_on_c, 14, 57, 84
16, 218451, Note_on_c, 14, 57, 0
16, 218460, Note_on_c, 14, 49, 84
16, 218504, Note_on_c, 14, 49, 0
16, 218520, Note_on_c, 14, 51, 84
16, 218609, Note_on_c, 14, 51, 0
16, 218640, Note_on_c, 14, 52, 84
16, 218879, Note_on_c, 14, 52, 0
16, 219180, Note_on_c, 14, 59, 84
16, 219231, Note_on_c, 14, 59, 0
16, 219240, Note_on_c, 14, 59, 84
16, 219321, Note_on_c, 14, 59, 0
16, 219330, Note_on_c, 14, 51, 84
16, 219359, Note_on_c, 14, 51, 0
16, 219360, Note_on_c, 14, 52, 84
16, 219539, Note_on_c, 14, 52, 0
16, 219690, Note_on_c, 14, 40, 84
16, 219719, Note_on_c, 14, 40, 0
16, 219720, Note_on_c, 14, 42, 84
16, 219899, Note_on_c, 14, 42, 0
16, 220050, Note_on_c, 14, 42, 84
16, 220079, Note_on_c, 14, 42, 0
16, 220080, Note_on_c, 14, 44, 84
16, 220259, Note_on_c, 14, 44, 0
16, 220410, Note_on_c, 14, 44, 84
16, 220439, Note_on_c, 14, 44, 0
16, 220440, Note_on_c, 14, 45, 84
16, 220619, Note_on_c, 14, 45, 0
16, 220770, Note_on_c, 14, 45, 84
16, 220799, Note_on_c, 14, 45, 0
16, 220800, Note_on_c, 14, 47, 84
16, 220979, Note_on_c, 14, 47, 0
16, 221130, Note_on_c, 14, 47, 84
16, 221159, Note_on_c, 14, 47, 0
16, 221160, Note_on_c, 14, 49, 84
16, 221339, Note_on_c, 14, 49, 0
16, 221490, Note_on_c, 14, 49, 84
16, 221519, Note_on_c, 14, 49, 0
16, 221520, Note_on_c, 14, 50, 84
16, 221699, Note_on_c, 14, 50, 0
16, 221880, Note_on_c, 14, 51, 84
16, 222059, Note_on_c, 14, 51, 0
16, 223650, Note_on_c, 14, 39, 84
16, 223679, Note_on_c, 14, 39, 0
16, 223680, Note_on_c, 14, 40, 84
16, 223859, Note_on_c, 14, 40, 0
16, 224010, Note_on_c, 14, 40, 84
16, 224039, Note_on_c, 14, 40, 0
16, 224040, Note_on_c, 14, 41, 84
16, 224219, Note_on_c, 14, 41, 0
16, 224370, Note_on_c, 14, 41, 84
16, 224399, Note_on_c, 14, 41, 0
16, 224400, Note_on_c, 14, 42, 84
16, 224579, Note_on_c, 14, 42, 0
16, 224730, Note_on_c, 14, 42, 84
16, 224759, Note_on_c, 14, 42, 0
16, 224760, Note_on_c, 14, 43, 84
16, 224939, Note_on_c, 14, 43, 0
16, 229080, Note_on_c, 14, 43, 44
16, 229251, Note_on_c, 14, 43, 0
16, 229260, Note_on_c, 14, 43, 44
16, 229311, Note_on_c, 14, 43, 0
16, 229320, Note_on_c, 14, 43, 44
16, 229424, Note_on_c, 14, 43, 0
16, 229440, Note_on_c, 14, 43, 44
16, 229971, Note_on_c, 14, 43, 0
16, 229980, Note_on_c, 14, 41, 44
16, 230024, Note_on_c, 14, 41, 0
16, 230040, Note_on_c, 14, 40, 44
16, 230129, Note_on_c, 14, 40, 0
16, 230160, Note_on_c, 14, 41, 44
16, 230331, Note_on_c, 14, 41, 0
16, 230340, Note_on_c, 14, 43, 44
16, 230384, Note_on_c, 14, 43, 0
16, 230400, Note_on_c, 14, 45, 44
16, 230489, Note_on_c, 14, 45, 0
16, 230520, Note_on_c, 14, 47, 44
16, 230691, Note_on_c, 14, 47, 0
16, 230700, Note_on_c, 14, 48, 44
16, 230744, Note_on_c, 14, 48, 0
16, 230760, Note_on_c, 14, 50, 44
16, 230849, Note_on_c, 14, 50, 0
16, 230880, Note_on_c, 14, 52, 44
16, 231051, Note_on_c, 14, 52, 0
16, 231060, Note_on_c, 14, 53, 44
16, 231104, Note_on_c, 14, 53, 0
16, 231120, Note_on_c, 14, 55, 44
16, 231209, Note_on_c, 14, 55, 0
16, 231240, Note_on_c, 14, 57, 44
16, 231411, Note_on_c, 14, 57, 0
16, 231420, Note_on_c, 14, 59, 44
16, 231464, Note_on_c, 14, 59, 0
16, 231480, Note_on_c, 14, 60, 44
16, 231569, Note_on_c, 14, 60, 0
16, 231600, Note_on_c, 14, 62, 44
16, 231771, Note_on_c, 14, 62, 0
16, 231780, Note_on_c, 14, 60, 44
16, 231824, Note_on_c, 14, 60, 0
16, 231840, Note_on_c, 14, 59, 44
16, 231929, Note_on_c, 14, 59, 0
16, 231960, Note_on_c, 14, 57, 44
16, 232131, Note_on_c, 14, 57, 0
16, 232140, Note_on_c, 14, 55, 44
16, 232184, Note_on_c, 14, 55, 0
16, 232200, Note_on_c, 14, 53, 44
16, 232289, Note_on_c, 14, 53, 0
16, 232320, Note_on_c, 14, 52, 44
16, 232491, Note_on_c, 14, 52, 0
16, 232500, Note_on_c, 14, 50, 44
16, 232544, Note_on_c, 14, 50, 0
16, 232560, Note_on_c, 14, 48, 44
16, 232649, Note_on_c, 14, 48, 0
16, 232680, Note_on_c, 14, 48, 44
16, 232919, Note_on_c, 14, 48, 0
16, 233040, Note_on_c, 14, 47, 44
16, 233211, Note_on_c, 14, 47, 0
16, 233220, Note_on_c, 14, 45, 44
16, 233264, Note_on_c, 14, 45, 0
16, 233280, Note_on_c, 14, 43, 44
16, 233369, Note_on_c, 14, 43, 0
16, 233400, Note_on_c, 14, 43, 44
16, 233639, Note_on_c, 14, 43, 0
16, 233760, Note_on_c, 14, 48, 44
16, 233999, Note_on_c, 14, 48, 0
16, 234300, Note_on_c, 14, 48, 44
16, 234351, Note_on_c, 14, 48, 0
16, 234360, Note_on_c, 14, 48, 44
16, 234464, Note_on_c, 14, 48, 0
16, 234480, Note_on_c, 14, 48, 44
16, 234719, Note_on_c, 14, 48, 0
16, 235020, Note_on_c, 14, 48, 44
16, 235071, Note_on_c, 14, 48, 0
16, 235080, Note_on_c, 14, 48, 44
16, 235184, Note_on_c, 14, 48, 0
16, 235200, Note_on_c, 14, 48, 44
16, 235439, Note_on_c, 14, 48, 0
16, 235740, Note_on_c, 14, 48, 44
16, 235791, Note_on_c, 14, 48, 0
16, 235800, Note_on_c, 14, 48, 44
16, 235904, Note_on_c, 14, 48, 0
16, 235920, Note_on_c, 14, 48, 44
16, 236159, Note_on_c, 14, 48, 0
16, 236460, Note_on_c, 14, 48, 44
16, 236511, Note_on_c, 14, 48, 0
16, 236520, Note_on_c, 14, 48, 44
16, 236624, Note_on_c, 14, 48, 0
16, 236640, Note_on_c, 14, 48, 44
16, 236811, Note_on_c, 14, 48, 0
16, 236820, Note_on_c, 14, 48, 45
16, 236864, Note_on_c, 14, 48, 0
16, 236880, Note_on_c, 14, 48, 45
16, 236969, Note_on_c, 14, 48, 0
16, 237000, Note_on_c, 14, 48, 46
16, 237171, Note_on_c, 14, 48, 0
16, 237180, Note_on_c, 14, 48, 48
16, 237224, Note_on_c, 14, 48, 0
16, 237240, Note_on_c, 14, 48, 48
16, 237329, Note_on_c, 14, 48, 0
16, 237360, Note_on_c, 14, 48, 49
16, 237531, Note_on_c, 14, 48, 0
16, 237540, Note_on_c, 14, 48, 50
16, 237584, Note_on_c, 14, 48, 0
16, 237600, Note_on_c, 14, 48, 51
16, 237689, Note_on_c, 14, 48, 0
16, 237720, Note_on_c, 14, 48, 52
16, 237891, Note_on_c, 14, 48, 0
16, 237900, Note_on_c, 14, 48, 53
16, 237944, Note_on_c, 14, 48, 0
16, 237960, Note_on_c, 14, 48, 53
16, 238049, Note_on_c, 14, 48, 0
16, 238080, Note_on_c, 14, 48, 54
16, 238251, Note_on_c, 14, 48, 0
16, 238260, Note_on_c, 14, 48, 56
16, 238304, Note_on_c, 14, 48, 0
16, 238320, Note_on_c, 14, 48, 56
16, 238409, Note_on_c, 14, 48, 0
16, 238440, Note_on_c, 14, 48, 57
16, 238611, Note_on_c, 14, 48, 0
16, 238620, Note_on_c, 14, 48, 58
16, 238664, Note_on_c, 14, 48, 0
16, 238680, Note_on_c, 14, 48, 59
16, 238769, Note_on_c, 14, 48, 0
16, 238800, Note_on_c, 14, 48, 60
16, 238971, Note_on_c, 14, 48, 0
16, 238980, Note_on_c, 14, 48, 61
16, 239024, Note_on_c, 14, 48, 0
16, 239040, Note_on_c, 14, 48, 61
16, 239129, Note_on_c, 14, 48, 0
16, 239160, Note_on_c, 14, 48, 62
16, 239331, Note_on_c, 14, 48, 0
16, 239340, Note_on_c, 14, 48, 64
16, 239384, Note_on_c, 14, 48, 0
16, 239400, Note_on_c, 14, 48, 64
16, 239489, Note_on_c, 14, 48, 0
16, 239520, Note_on_c, 14, 48, 65
16, 239691, Note_on_c, 14, 48, 0
16, 239700, Note_on_c, 14, 48, 66
16, 239744, Note_on_c, 14, 48, 0
16, 239760, Note_on_c, 14, 48, 67
16, 239849, Note_on_c, 14, 48, 0
16, 239880, Note_on_c, 14, 48, 68
16, 240051, Note_on_c, 14, 48, 0
16, 240060, Note_on_c, 14, 48, 69
16, 240104, Note_on_c, 14, 48, 0
16, 240120, Note_on_c, 14, 48, 69
16, 240209, Note_on_c, 14, 48, 0
16, 240240, Note_on_c, 14, 48, 70
16, 240411, Note_on_c, 14, 48, 0
16, 240420, Note_on_c, 14, 48, 72
16, 240464, Note_on_c, 14, 48, 0
16, 240480, Note_on_c, 14, 48, 72
16, 240569, Note_on_c, 14, 48, 0
16, 240600, Note_on_c, 14, 48, 73
16, 240771, Note_on_c, 14, 48, 0
16, 240780, Note_on_c, 14, 48, 74
16, 240824, Note_on_c, 14, 48, 0
16, 240840, Note_on_c, 14, 48, 75
16, 240929, Note_on_c, 14, 48, 0
16, 240960, Note_on_c, 14, 48, 76
16, 241199, Note_on_c, 14, 48, 0
16, 241320, Note_on_c, 14, 60, 76
16, 241491, Note_on_c, 14, 60, 0
16, 241500, Note_on_c, 14, 60, 76
16, 241544, Note_on_c, 14, 60, 0
16, 241560, Note_on_c, 14, 55, 76
16, 241649, Note_on_c, 14, 55, 0
16, 241680, Note_on_c, 14, 55, 76
16, 242211, Note_on_c, 14, 55, 0
16, 242220, Note_on_c, 14, 55, 76
16, 242264, Note_on_c, 14, 55, 0
16, 242280, Note_on_c, 14, 52, 76
16, 242369, Note_on_c, 14, 52, 0
16, 242400, Note_on_c, 14, 52, 76
16, 242639, Note_on_c, 14, 52, 0
16, 242700, Note_on_c, 14, 60, 76
16, 242751, Note_on_c, 14, 60, 0
16, 242760, Note_on_c, 14, 55, 76
16, 242999, Note_on_c, 14, 55, 0
16, 243060, Note_on_c, 14, 55, 76
16, 243111, Note_on_c, 14, 55, 0
16, 243120, Note_on_c, 14, 52, 76
16, 243359, Note_on_c, 14, 52, 0
16, 243420, Note_on_c, 14, 52, 76
16, 243471, Note_on_c, 14, 52, 0
16, 243480, Note_on_c, 14, 48, 76
16, 243719, Note_on_c, 14, 48, 0
16, 243780, Note_on_c, 14, 48, 76
16, 243831, Note_on_c, 14, 48, 0
16, 243840, Note_on_c, 14, 43, 84
16, 244079, Note_on_c, 14, 43, 0
16, 245280, Note_on_c, 14, 43, 84
16, 245519, Note_on_c, 14, 43, 0
16, 245640, Note_on_c, 14, 43, 84
16, 245811, Note_on_c, 14, 43, 0
16, 245820, Note_on_c, 14, 65, 84
16, 245871, Note_on_c, 14, 65, 0
16, 245880, Note_on_c, 14, 62, 84
16, 245984, Note_on_c, 14, 62, 0
16, 246000, Note_on_c, 14, 62, 84
16, 246531, Note_on_c, 14, 62, 0
16, 246540, Note_on_c, 14, 62, 84
16, 246591, Note_on_c, 14, 62, 0
16, 246600, Note_on_c, 14, 59, 84
16, 246704, Note_on_c, 14, 59, 0
16, 246720, Note_on_c, 14, 59, 84
16, 246959, Note_on_c, 14, 59, 0
16, 247020, Note_on_c, 14, 65, 84
16, 247071, Note_on_c, 14, 65, 0
16, 247080, Note_on_c, 14, 62, 84
16, 247319, Note_on_c, 14, 62, 0
16, 247380, Note_on_c, 14, 62, 84
16, 247431, Note_on_c, 14, 62, 0
16, 247440, Note_on_c, 14, 59, 84
16, 247679, Note_on_c, 14, 59, 0
16, 247740, Note_on_c, 14, 59, 84
16, 247791, Note_on_c, 14, 59, 0
16, 247800, Note_on_c, 14, 55, 84
16, 248039, Note_on_c, 14, 55, 0
16, 248100, Note_on_c, 14, 43, 84
16, 248151, Note_on_c, 14, 43, 0
16, 248160, Note_on_c, 14, 44, 84
16, 248399, Note_on_c, 14, 44, 0
16, 249600, Note_on_c, 14, 44, 84
16, 249839, Note_on_c, 14, 44, 0
16, 249960, Note_on_c, 14, 56, 84
16, 250131, Note_on_c, 14, 56, 0
16, 250140, Note_on_c, 14, 64, 84
16, 250191, Note_on_c, 14, 64, 0
16, 250200, Note_on_c, 14, 59, 84
16, 250304, Note_on_c, 14, 59, 0
16, 250320, Note_on_c, 14, 59, 84
16, 250851, Note_on_c, 14, 59, 0
16, 250860, Note_on_c, 14, 59, 84
16, 250911, Note_on_c, 14, 59, 0
16, 250920, Note_on_c, 14, 56, 84
16, 251024, Note_on_c, 14, 56, 0
16, 251040, Note_on_c, 14, 56, 84
16, 251279, Note_on_c, 14, 56, 0
16, 251340, Note_on_c, 14, 64, 84
16, 251391, Note_on_c, 14, 64, 0
16, 251400, Note_on_c, 14, 59, 84
16, 251639, Note_on_c, 14, 59, 0
16, 251700, Note_on_c, 14, 59, 84
16, 251751, Note_on_c, 14, 59, 0
16, 251760, Note_on_c, 14, 56, 84
16, 251999, Note_on_c, 14, 56, 0
16, 252060, Note_on_c, 14, 56, 84
16, 252111, Note_on_c, 14, 56, 0
16, 252120, Note_on_c, 14, 52, 84
16, 252359, Note_on_c, 14, 52, 0
16, 252420, Note_on_c, 14, 52, 84
16, 252471, Note_on_c, 14, 52, 0
16, 252480, Note_on_c, 14, 52, 84
16, 252651, Note_on_c, 14, 52, 0
16, 252660, Note_on_c, 14, 52, 84
16, 252711, Note_on_c, 14, 52, 0
16, 252720, Note_on_c, 14, 52, 84
16, 252839, Note_on_c, 14, 52, 0
16, 253200, Note_on_c, 14, 37, 92
16, 253259, Note_on_c, 14, 37, 0
16, 253260, Note_on_c, 14, 37, 84
16, 253371, Note_on_c, 14, 37, 0
16, 253380, Note_on_c, 14, 37, 84
16, 253431, Note_on_c, 14, 37, 0
16, 253440, Note_on_c, 14, 37, 84
16, 253559, Note_on_c, 14, 37, 0
16, 253920, Note_on_c, 14, 37, 92
16, 253979, Note_on_c, 14, 37, 0
16, 253980, Note_on_c, 14, 37, 84
16, 254091, Note_on_c, 14, 37, 0
16, 254100, Note_on_c, 14, 37, 84
16, 254151, Note_on_c, 14, 37, 0
16, 254160, Note_on_c, 14, 37, 84
16, 254279, Note_on_c, 14, 37, 0
16, 257700, Note_on_c, 14, 50, 44
16, 257751, Note_on_c, 14, 50, 0
16, 257760, Note_on_c, 14, 52, 44
16, 257864, Note_on_c, 14, 52, 0
16, 257880, Note_on_c, 14, 53, 44
16, 257999, Note_on_c, 14, 53, 0
16, 258060, Note_on_c, 14, 45, 44
16, 258111, Note_on_c, 14, 45, 0
16, 258120, Note_on_c, 14, 47, 44
16, 258224, Note_on_c, 14, 47, 0
16, 258240, Note_on_c, 14, 48, 44
16, 258479, Note_on_c, 14, 48, 0
16, 259860, Note_on_c, 14, 45, 44
16, 259911, Note_on_c, 14, 45, 0
16, 259920, Note_on_c, 14, 47, 44
16, 260024, Note_on_c, 14, 47, 0
16, 260040, Note_on_c, 14, 48, 44
16, 260159, Note_on_c, 14, 48, 0
16, 260220, Note_on_c, 14, 52, 44
16, 260271, Note_on_c, 14, 52, 0
16, 260280, Note_on_c, 14, 54, 44
16, 260384, Note_on_c, 14, 54, 0
16, 260400, Note_on_c, 14, 55, 44
16, 260639, Note_on_c, 14, 55, 0
16, 262020, Note_on_c, 14, 52, 44
16, 262071, Note_on_c, 14, 52, 0
16, 262080, Note_on_c, 14, 54, 44
16, 262184, Note_on_c, 14, 54, 0
16, 262200, Note_on_c, 14, 55, 44
16, 262319, Note_on_c, 14, 55, 0
16, 262380, Note_on_c, 14, 46, 44
16, 262431, Note_on_c, 14, 46, 0
16, 262440, Note_on_c, 14, 48, 44
16, 262544, Note_on_c, 14, 48, 0
16, 262560, Note_on_c, 14, 50, 44
16, 262799, Note_on_c, 14, 50, 0
16, 264180, Note_on_c, 14, 47, 44
16, 264231, Note_on_c, 14, 47, 0
16, 264240, Note_on_c, 14, 49, 44
16, 264344, Note_on_c, 14, 49, 0
16, 264360, Note_on_c, 14, 50, 44
16, 264479, Note_on_c, 14, 50, 0
16, 264540, Note_on_c, 14, 41, 44
16, 264591, Note_on_c, 14, 41, 0
16, 264600, Note_on_c, 14, 43, 44
16, 264704, Note_on_c, 14, 43, 0
16, 264720, Note_on_c, 14, 45, 44
16, 264959, Note_on_c, 14, 45, 0
16, 265618, Control_c, 14, 11, 64
16, 265620, Note_on_c, 14, 47, 76
16, 265671, Note_on_c, 14, 47, 0
16, 265680, Note_on_c, 14, 49, 76
16, 265784, Note_on_c, 14, 49, 0
16, 265800, Note_on_c, 14, 50, 76
16, 265919, Note_on_c, 14, 50, 0
16, 265980, Note_on_c, 14, 41, 76
16, 266031, Note_on_c, 14, 41, 0
16, 266040, Note_on_c, 14, 43, 76
16, 266144, Note_on_c, 14, 43, 0
16, 266160, Note_on_c, 14, 45, 76
16, 266279, Note_on_c, 14, 45, 0
16, 266320, Control_c, 14, 11, 65
16, 266340, Note_on_c, 14, 45, 76
16, 266391, Note_on_c, 14, 45, 0
16, 266400, Note_on_c, 14, 47, 76
16, 266480, Control_c, 14, 11, 66
16, 266504, Note_on_c, 14, 47, 0
16, 266520, Note_on_c, 14, 49, 76
16, 266639, Note_on_c, 14, 49, 0
16, 266640, Control_c, 14, 11, 67
16, 266700, Note_on_c, 14, 47, 76
16, 266751, Note_on_c, 14, 47, 0
16, 266760, Note_on_c, 14, 49, 76
16, 266800, Control_c, 14, 11, 68
16, 266864, Note_on_c, 14, 49, 0
16, 266880, Note_on_c, 14, 50, 76
16, 266960, Control_c, 14, 11, 69
16, 266999, Note_on_c, 14, 50, 0
16, 267060, Note_on_c, 14, 49, 76
16, 267111, Note_on_c, 14, 49, 0
16, 267120, Note_on_c, 14, 50, 76
16, 267120, Control_c, 14, 11, 70
16, 267224, Note_on_c, 14, 50, 0
16, 267240, Note_on_c, 14, 52, 76
16, 267280, Control_c, 14, 11, 71
16, 267359, Note_on_c, 14, 52, 0
16, 267420, Note_on_c, 14, 50, 76
16, 267440, Control_c, 14, 11, 72
16, 267471, Note_on_c, 14, 50, 0
16, 267480, Note_on_c, 14, 52, 76
16, 267584, Note_on_c, 14, 52, 0
16, 267600, Note_on_c, 14, 53, 76
16, 267600, Control_c, 14, 11, 73
16, 267760, Control_c, 14, 11, 74
16, 267920, Control_c, 14, 11, 75
16, 268080, Control_c, 14, 11, 76
16, 268240, Control_c, 14, 11, 77
16, 268319, Note_on_c, 14, 53, 0
16, 268320, Note_on_c, 14, 53, 76
16, 268400, Control_c, 14, 11, 78
16, 268560, Control_c, 14, 11, 79
16, 268720, Control_c, 14, 11, 80
16, 268880, Control_c, 14, 11, 81
16, 269040, Control_c, 14, 11, 82
16, 269159, Note_on_c, 14, 53, 0
16, 269200, Control_c, 14, 11, 83
16, 269220, Note_on_c, 14, 46, 76
16, 269271, Note_on_c, 14, 46, 0
16, 269280, Note_on_c, 14, 48, 76
16, 269360, Control_c, 14, 11, 84
16, 269384, Note_on_c, 14, 48, 0
16, 269400, Note_on_c, 14, 50, 76
16, 269519, Note_on_c, 14, 50, 0
16, 269520, Control_c, 14, 11, 85
16, 269580, Note_on_c, 14, 48, 76
16, 269631, Note_on_c, 14, 48, 0
16, 269640, Note_on_c, 14, 50, 76
16, 269680, Control_c, 14, 11, 86
16, 269744, Note_on_c, 14, 50, 0
16, 269760, Note_on_c, 14, 52, 76
16, 269840, Control_c, 14, 11, 87
16, 269879, Note_on_c, 14, 52, 0
16, 269940, Note_on_c, 14, 50, 76
16, 269991, Note_on_c, 14, 50, 0
16, 270000, Control_c, 14, 11, 88
16, 270000, Note_on_c, 14, 52, 76
16, 270104, Note_on_c, 14, 52, 0
16, 270120, Note_on_c, 14, 53, 76
16, 270160, Control_c, 14, 11, 89
16, 270239, Note_on_c, 14, 53, 0
16, 270300, Note_on_c, 14, 52, 76
16, 270320, Control_c, 14, 11, 90
16, 270351, Note_on_c, 14, 52, 0
16, 270360, Note_on_c, 14, 53, 76
16, 270464, Note_on_c, 14, 53, 0
16, 270480, Note_on_c, 14, 55, 76
16, 270480, Control_c, 14, 11, 91
16, 270640, Control_c, 14, 11, 92
16, 270800, Control_c, 14, 11, 93
16, 270960, Control_c, 14, 11, 94
16, 271120, Control_c, 14, 11, 95
16, 271199, Note_on_c, 14, 55, 0
16, 271200, Note_on_c, 14, 55, 76
16, 271280, Control_c, 14, 11, 96
16, 271440, Control_c, 14, 11, 97
16, 271600, Control_c, 14, 11, 98
16, 271760, Control_c, 14, 11, 99
16, 271920, Control_c, 14, 11, 100
16, 272039, Note_on_c, 14, 55, 0
16, 272080, Control_c, 14, 11, 101
16, 272100, Note_on_c, 14, 48, 76
16, 272151, Note_on_c, 14, 48, 0
16, 272160, Note_on_c, 14, 50, 76
16, 272240, Control_c, 14, 11, 102
16, 272264, Note_on_c, 14, 50, 0
16, 272280, Note_on_c, 14, 52, 76
16, 272399, Note_on_c, 14, 52, 0
16, 272400, Control_c, 14, 11, 103
16, 272460, Note_on_c, 14, 50, 76
16, 272511, Note_on_c, 14, 50, 0
16, 272520, Note_on_c, 14, 52, 76
16, 272560, Control_c, 14, 11, 104
16, 272624, Note_on_c, 14, 52, 0
16, 272640, Note_on_c, 14, 53, 76
16, 272720, Control_c, 14, 11, 105
16, 272759, Note_on_c, 14, 53, 0
16, 272820, Note_on_c, 14, 52, 76
16, 272871, Note_on_c, 14, 52, 0
16, 272880, Control_c, 14, 11, 106
16, 272880, Note_on_c, 14, 53, 76
16, 272984, Note_on_c, 14, 53, 0
16, 273000, Note_on_c, 14, 55, 76
16, 273040, Control_c, 14, 11, 107
16, 273119, Note_on_c, 14, 55, 0
16, 273180, Note_on_c, 14, 53, 76
16, 273200, Control_c, 14, 11, 108
16, 273231, Note_on_c, 14, 53, 0
16, 273240, Note_on_c, 14, 55, 76
16, 273344, Note_on_c, 14, 55, 0
16, 273360, Note_on_c, 14, 57, 76
16, 273360, Control_c, 14, 11, 109
16, 273520, Control_c, 14, 11, 110
16, 273680, Control_c, 14, 11, 111
16, 273840, Control_c, 14, 11, 112
16, 274000, Control_c, 14, 11, 113
16, 274079, Note_on_c, 14, 57, 0
16, 274080, Note_on_c, 14, 57, 76
16, 274160, Control_c, 14, 11, 114
16, 274320, Control_c, 14, 11, 115
16, 274480, Control_c, 14, 11, 116
16, 274640, Control_c, 14, 11, 117
16, 274800, Control_c, 14, 11, 118
16, 274904, Note_on_c, 14, 57, 0
16, 274960, Control_c, 14, 11, 119
16, 274980, Note_on_c, 14, 50, 76
16, 275031, Note_on_c, 14, 50, 0
16, 275040, Note_on_c, 14, 52, 76
16, 275120, Control_c, 14, 11, 120
16, 275144, Note_on_c, 14, 52, 0
16, 275160, Note_on_c, 14, 54, 76
16, 275279, Note_on_c, 14, 54, 0
16, 275280, Control_c, 14, 11, 121
16, 275340, Note_on_c, 14, 52, 76
16, 275391, Note_on_c, 14, 52, 0
16, 275400, Note_on_c, 14, 54, 76
16, 275440, Control_c, 14, 11, 122
16, 275504, Note_on_c, 14, 54, 0
16, 275520, Note_on_c, 14, 55, 76
16, 275600, Control_c, 14, 11, 123
16, 275639, Note_on_c, 14, 55, 0
16, 275700, Note_on_c, 14, 54, 76
16, 275751, Note_on_c, 14, 54, 0
16, 275760, Note_on_c, 14, 55, 76
16, 275760, Control_c, 14, 11, 124
16, 275864, Note_on_c, 14, 55, 0
16, 275880, Note_on_c, 14, 57, 76
16, 275920, Control_c, 14, 11, 125
16, 275999, Note_on_c, 14, 57, 0
16, 276060, Note_on_c, 14, 55, 76
16, 276080, Control_c, 14, 11, 127
16, 276111, Note_on_c, 14, 55, 0
16, 276120, Note_on_c, 14, 57, 76
16, 276224, Note_on_c, 14, 57, 0
16, 276240, Note_on_c, 14, 58, 76
16, 276411, Note_on_c, 14, 58, 0
16, 276420, Note_on_c, 14, 58, 76
16, 276471, Note_on_c, 14, 58, 0
16, 276480, Note_on_c, 14, 57, 76
16, 276584, Note_on_c, 14, 57, 0
16, 276600, Note_on_c, 14, 58, 76
16, 276839, Note_on_c, 14, 58, 0
16, 276960, Note_on_c, 14, 59, 76
16, 277079, Note_on_c, 14, 59, 0
16, 277140, Note_on_c, 14, 59, 76
16, 277191, Note_on_c, 14, 59, 0
16, 277200, Note_on_c, 14, 58, 76
16, 277304, Note_on_c, 14, 58, 0
16, 277320, Note_on_c, 14, 59, 76
16, 277559, Note_on_c, 14, 59, 0
16, 277680, Note_on_c, 14, 60, 76
16, 277799, Note_on_c, 14, 60, 0
16, 277860, Note_on_c, 14, 60, 76
16, 277911, Note_on_c, 14, 60, 0
16, 277920, Note_on_c, 14, 59, 76
16, 278024, Note_on_c, 14, 59, 0
16, 278040, Note_on_c, 14, 60, 76
16, 278279, Note_on_c, 14, 60, 0
16, 278400, Note_on_c, 14, 61, 76
16, 278519, Note_on_c, 14, 61, 0
16, 278580, Note_on_c, 14, 61, 76
16, 278631, Note_on_c, 14, 61, 0
16, 278640, Note_on_c, 14, 60, 76
16, 278744, Note_on_c, 14, 60, 0
16, 278760, Note_on_c, 14, 61, 76
16, 278999, Note_on_c, 14, 61, 0
16, 279120, Note_on_c, 14, 50, 84
16, 279239, Note_on_c, 14, 50, 0
16, 279300, Note_on_c, 14, 50, 84
16, 279351, Note_on_c, 14, 50, 0
16, 279360, Note_on_c, 14, 49, 84
16, 279464, Note_on_c, 14, 49, 0
16, 279480, Note_on_c, 14, 50, 84
16, 279599, Note_on_c, 14, 50, 0
16, 279660, Note_on_c, 14, 50, 84
16, 279711, Note_on_c, 14, 50, 0
16, 279720, Note_on_c, 14, 49, 84
16, 279824, Note_on_c, 14, 49, 0
16, 279840, Note_on_c, 14, 50, 84
16, 279959, Note_on_c, 14, 50, 0
16, 280020, Note_on_c, 14, 50, 84
16, 280071, Note_on_c, 14, 50, 0
16, 280080, Note_on_c, 14, 49, 84
16, 280184, Note_on_c, 14, 49, 0
16, 280200, Note_on_c, 14, 50, 84
16, 280319, Note_on_c, 14, 50, 0
16, 280380, Note_on_c, 14, 50, 84
16, 280431, Note_on_c, 14, 50, 0
16, 280440, Note_on_c, 14, 49, 84
16, 280544, Note_on_c, 14, 49, 0
16, 280560, Note_on_c, 14, 50, 84
16, 281279, Note_on_c, 14, 50, 0
16, 281280, Note_on_c, 14, 50, 84
16, 281624, Note_on_c, 14, 50, 0
16, 281640, Note_on_c, 14, 50, 84
16, 281811, Note_on_c, 14, 50, 0
16, 281820, Note_on_c, 14, 48, 84
16, 281871, Note_on_c, 14, 48, 0
16, 281880, Note_on_c, 14, 47, 84
16, 281984, Note_on_c, 14, 47, 0
16, 282000, Note_on_c, 14, 48, 84
16, 282119, Note_on_c, 14, 48, 0
16, 282180, Note_on_c, 14, 48, 84
16, 282231, Note_on_c, 14, 48, 0
16, 282240, Note_on_c, 14, 47, 84
16, 282344, Note_on_c, 14, 47, 0
16, 282360, Note_on_c, 14, 48, 84
16, 282479, Note_on_c, 14, 48, 0
16, 282540, Note_on_c, 14, 48, 84
16, 282591, Note_on_c, 14, 48, 0
16, 282600, Note_on_c, 14, 47, 84
16, 282704, Note_on_c, 14, 47, 0
16, 282720, Note_on_c, 14, 48, 84
16, 282839, Note_on_c, 14, 48, 0
16, 282900, Note_on_c, 14, 48, 84
16, 282951, Note_on_c, 14, 48, 0
16, 282960, Note_on_c, 14, 47, 84
16, 283064, Note_on_c, 14, 47, 0
16, 283080, Note_on_c, 14, 48, 84
16, 283199, Note_on_c, 14, 48, 0
16, 283260, Note_on_c, 14, 48, 84
16, 283311, Note_on_c, 14, 48, 0
16, 283320, Note_on_c, 14, 47, 84
16, 283424, Note_on_c, 14, 47, 0
16, 283440, Note_on_c, 14, 48, 84
16, 284159, Note_on_c, 14, 48, 0
16, 284160, Note_on_c, 14, 48, 84
16, 284504, Note_on_c, 14, 48, 0
16, 284520, Note_on_c, 14, 48, 84
16, 284691, Note_on_c, 14, 48, 0
16, 284700, Note_on_c, 14, 47, 84
16, 284751, Note_on_c, 14, 47, 0
16, 284760, Note_on_c, 14, 45, 84
16, 284864, Note_on_c, 14, 45, 0
16, 284880, Note_on_c, 14, 47, 84
16, 284999, Note_on_c, 14, 47, 0
16, 285060, Note_on_c, 14, 47, 84
16, 285111, Note_on_c, 14, 47, 0
16, 285120, Note_on_c, 14, 46, 84
16, 285224, Note_on_c, 14, 46, 0
16, 285240, Note_on_c, 14, 47, 84
16, 285359, Note_on_c, 14, 47, 0
16, 285420, Note_on_c, 14, 47, 84
16, 285471, Note_on_c, 14, 47, 0
16, 285480, Note_on_c, 14, 46, 84
16, 285584, Note_on_c, 14, 46, 0
16, 285600, Note_on_c, 14, 47, 84
16, 285719, Note_on_c, 14, 47, 0
16, 285780, Note_on_c, 14, 47, 84
16, 285831, Note_on_c, 14, 47, 0
16, 285840, Note_on_c, 14, 46, 84
16, 285944, Note_on_c, 14, 46, 0
16, 285960, Note_on_c, 14, 47, 84
16, 286079, Note_on_c, 14, 47, 0
16, 286140, Note_on_c, 14, 47, 84
16, 286191, Note_on_c, 14, 47, 0
16, 286200, Note_on_c, 14, 46, 84
16, 286304, Note_on_c, 14, 46, 0
16, 286320, Note_on_c, 14, 47, 84
16, 286559, Note_on_c, 14, 47, 0
16, 286860, Note_on_c, 14, 59, 84
16, 286911, Note_on_c, 14, 59, 0
16, 286920, Note_on_c, 14, 60, 84
16, 287024, Note_on_c, 14, 60, 0
16, 287040, Note_on_c, 14, 62, 84
16, 287279, Note_on_c, 14, 62, 0
16, 287580, Note_on_c, 14, 56, 84
16, 287631, Note_on_c, 14, 56, 0
16, 287640, Note_on_c, 14, 57, 84
16, 287744, Note_on_c, 14, 57, 0
16, 287760, Note_on_c, 14, 59, 84
16, 287999, Note_on_c, 14, 59, 0
16, 288300, Note_on_c, 14, 50, 84
16, 288351, Note_on_c, 14, 50, 0
16, 288360, Note_on_c, 14, 52, 84
16, 288464, Note_on_c, 14, 52, 0
16, 288480, Note_on_c, 14, 53, 84
16, 288719, Note_on_c, 14, 53, 0
16, 289020, Note_on_c, 14, 44, 84
16, 289071, Note_on_c, 14, 44, 0
16, 289080, Note_on_c, 14, 45, 84
16, 289184, Note_on_c, 14, 45, 0
16, 289200, Note_on_c, 14, 47, 84
16, 289319, Note_on_c, 14, 47, 0
16, 289380, Note_on_c, 14, 44, 84
16, 289431, Note_on_c, 14, 44, 0
16, 289440, Note_on_c, 14, 45, 84
16, 289544, Note_on_c, 14, 45, 0
16, 289560, Note_on_c, 14, 47, 84
16, 289679, Note_on_c, 14, 47, 0
16, 289740, Note_on_c, 14, 45, 84
16, 289791, Note_on_c, 14, 45, 0
16, 289800, Note_on_c, 14, 47, 84
16, 289904, Note_on_c, 14, 47, 0
16, 289920, Note_on_c, 14, 48, 84
16, 290039, Note_on_c, 14, 48, 0
16, 290100, Note_on_c, 14, 45, 84
16, 290151, Note_on_c, 14, 45, 0
16, 290160, Note_on_c, 14, 47, 84
16, 290264, Note_on_c, 14, 47, 0
16, 290280, Note_on_c, 14, 48, 84
16, 290399, Note_on_c, 14, 48, 0
16, 290460, Note_on_c, 14, 47, 84
16, 290511, Note_on_c, 14, 47, 0
16, 290520, Note_on_c, 14, 49, 84
16, 290624, Note_on_c, 14, 49, 0
16, 290640, Note_on_c, 14, 50, 84
16, 290759, Note_on_c, 14, 50, 0
16, 290820, Note_on_c, 14, 47, 84
16, 290871, Note_on_c, 14, 47, 0
16, 290880, Note_on_c, 14, 49, 84
16, 290984, Note_on_c, 14, 49, 0
16, 291000, Note_on_c, 14, 50, 84
16, 291119, Note_on_c, 14, 50, 0
16, 291180, Note_on_c, 14, 49, 84
16, 291231, Note_on_c, 14, 49, 0
16, 291240, Note_on_c, 14, 51, 84
16, 291344, Note_on_c, 14, 51, 0
16, 291360, Note_on_c, 14, 52, 84
16, 291479, Note_on_c, 14, 52, 0
16, 291540, Note_on_c, 14, 49, 84
16, 291591, Note_on_c, 14, 49, 0
16, 291600, Note_on_c, 14, 51, 84
16, 291704, Note_on_c, 14, 51, 0
16, 291720, Note_on_c, 14, 52, 84
16, 291839, Note_on_c, 14, 52, 0
16, 291900, Note_on_c, 14, 49, 84
16, 291951, Note_on_c, 14, 49, 0
16, 291960, Note_on_c, 14, 51, 84
16, 292064, Note_on_c, 14, 51, 0
16, 292080, Note_on_c, 14, 52, 84
16, 292199, Note_on_c, 14, 52, 0
16, 292260, Note_on_c, 14, 49, 84
16, 292311, Note_on_c, 14, 49, 0
16, 292320, Note_on_c, 14, 50, 84
16, 292424, Note_on_c, 14, 50, 0
16, 292440, Note_on_c, 14, 52, 84
16, 292559, Note_on_c, 14, 52, 0
16, 292620, Note_on_c, 14, 49, 84
16, 292671, Note_on_c, 14, 49, 0
16, 292680, Note_on_c, 14, 50, 84
16, 292784, Note_on_c, 14, 50, 0
16, 292800, Note_on_c, 14, 52, 84
16, 292919, Note_on_c, 14, 52, 0
16, 292980, Note_on_c, 14, 49, 84
16, 293031, Note_on_c, 14, 49, 0
16, 293040, Note_on_c, 14, 50, 84
16, 293144, Note_on_c, 14, 50, 0
16, 293160, Note_on_c, 14, 52, 84
16, 293279, Note_on_c, 14, 52, 0
16, 293340, Note_on_c, 14, 49, 84
16, 293391, Note_on_c, 14, 49, 0
16, 293400, Note_on_c, 14, 50, 84
16, 293504, Note_on_c, 14, 50, 0
16, 293520, Note_on_c, 14, 52, 84
16, 293759, Note_on_c, 14, 52, 0
16, 294600, Note_on_c, 14, 52, 88
16, 294659, Note_on_c, 14, 52, 0
16, 294660, Note_on_c, 14, 54, 88
16, 294719, Note_on_c, 14, 54, 0
16, 294720, Note_on_c, 14, 56, 88
16, 294779, Note_on_c, 14, 56, 0
16, 294780, Note_on_c, 14, 57, 88
16, 294839, Note_on_c, 14, 57, 0
16, 294840, Note_on_c, 14, 59, 88
16, 294879, Note_on_c, 14, 59, 0
16, 294880, Note_on_c, 14, 61, 88
16, 294919, Note_on_c, 14, 61, 0
16, 294920, Note_on_c, 14, 62, 88
16, 294951, Note_on_c, 14, 62, 0
16, 294960, Note_on_c, 14, 64, 88
16, 295199, Note_on_c, 14, 64, 0
16, 296040, Note_on_c, 14, 52, 88
16, 296099, Note_on_c, 14, 52, 0
16, 296100, Note_on_c, 14, 54, 88
16, 296159, Note_on_c, 14, 54, 0
16, 296160, Note_on_c, 14, 56, 88
16, 296219, Note_on_c, 14, 56, 0
16, 296220, Note_on_c, 14, 57, 88
16, 296279, Note_on_c, 14, 57, 0
16, 296280, Note_on_c, 14, 59, 88
16, 296319, Note_on_c, 14, 59, 0
16, 296320, Note_on_c, 14, 61, 88
16, 296359, Note_on_c, 14, 61, 0
16, 296360, Note_on_c, 14, 62, 88
16, 296391, Note_on_c, 14, 62, 0
16, 296400, Note_on_c, 14, 64, 84
16, 296519, Note_on_c, 14, 64, 0
16, 296580, Note_on_c, 14, 45, 84
16, 296631, Note_on_c, 14, 45, 0
16, 296640, Note_on_c, 14, 45, 84
16, 296744, Note_on_c, 14, 45, 0
16, 296760, Note_on_c, 14, 45, 84
16, 296879, Note_on_c, 14, 45, 0
16, 296940, Note_on_c, 14, 47, 84
16, 296991, Note_on_c, 14, 47, 0
16, 297000, Note_on_c, 14, 49, 84
16, 297104, Note_on_c, 14, 49, 0
16, 297120, Note_on_c, 14, 47, 84
16, 297239, Note_on_c, 14, 47, 0
16, 297300, Note_on_c, 14, 49, 84
16, 297351, Note_on_c, 14, 49, 0
16, 297360, Note_on_c, 14, 50, 84
16, 297464, Note_on_c, 14, 50, 0
16, 297480, Note_on_c, 14, 52, 84
16, 297599, Note_on_c, 14, 52, 0
16, 297660, Note_on_c, 14, 52, 84
16, 297711, Note_on_c, 14, 52, 0
16, 297720, Note_on_c, 14, 50, 84
16, 297824, Note_on_c, 14, 50, 0
16, 297840, Note_on_c, 14, 49, 84
16, 297959, Note_on_c, 14, 49, 0
16, 298020, Note_on_c, 14, 52, 84
16, 298071, Note_on_c, 14, 52, 0
16, 298080, Note_on_c, 14, 50, 84
16, 298184, Note_on_c, 14, 50, 0
16, 298200, Note_on_c, 14, 49, 84
16, 298319, Note_on_c, 14, 49, 0
16, 298380, Note_on_c, 14, 47, 84
16, 298431, Note_on_c, 14, 47, 0
16, 298440, Note_on_c, 14, 45, 84
16, 298544, Note_on_c, 14, 45, 0
16, 298560, Note_on_c, 14, 44, 84
16, 298679, Note_on_c, 14, 44, 0
16, 298740, Note_on_c, 14, 42, 84
16, 298791, Note_on_c, 14, 42, 0
16, 298800, Note_on_c, 14, 40, 84
16, 298904, Note_on_c, 14, 40, 0
16, 298920, Note_on_c, 14, 50, 84
16, 299039, Note_on_c, 14, 50, 0
16, 299100, Note_on_c, 14, 49, 84
16, 299151, Note_on_c, 14, 49, 0
16, 299160, Note_on_c, 14, 47, 84
16, 299264, Note_on_c, 14, 47, 0
16, 299280, Note_on_c, 14, 45, 84
16, 299399, Note_on_c, 14, 45, 0
16, 299460, Note_on_c, 14, 45, 84
16, 299511, Note_on_c, 14, 45, 0
16, 299520, Note_on_c, 14, 44, 84
16, 299624, Note_on_c, 14, 44, 0
16, 299640, Note_on_c, 14, 45, 84
16, 299759, Note_on_c, 14, 45, 0
16, 299820, Note_on_c, 14, 47, 84
16, 299871, Note_on_c, 14, 47, 0
16, 299880, Note_on_c, 14, 49, 84
16, 299984, Note_on_c, 14, 49, 0
16, 300000, Note_on_c, 14, 47, 84
16, 300119, Note_on_c, 14, 47, 0
16, 300180, Note_on_c, 14, 49, 84
16, 300231, Note_on_c, 14, 49, 0
16, 300240, Note_on_c, 14, 50, 84
16, 300344, Note_on_c, 14, 50, 0
16, 300360, Note_on_c, 14, 52, 84
16, 300479, Note_on_c, 14, 52, 0
16, 300540, Note_on_c, 14, 52, 84
16, 300591, Note_on_c, 14, 52, 0
16, 300600, Note_on_c, 14, 50, 84
16, 300704, Note_on_c, 14, 50, 0
16, 300720, Note_on_c, 14, 49, 84
16, 300839, Note_on_c, 14, 49, 0
16, 300900, Note_on_c, 14, 47, 84
16, 300951, Note_on_c, 14, 47, 0
16, 300960, Note_on_c, 14, 45, 84
16, 301064, Note_on_c, 14, 45, 0
16, 301080, Note_on_c, 14, 52, 84
16, 301199, Note_on_c, 14, 52, 0
16, 301260, Note_on_c, 14, 40, 84
16, 301311, Note_on_c, 14, 40, 0
16, 301320, Note_on_c, 14, 40, 84
16, 301424, Note_on_c, 14, 40, 0
16, 301440, Note_on_c, 14, 45, 84
16, 301559, Note_on_c, 14, 45, 0
16, 301620, Note_on_c, 14, 49, 84
16, 301671, Note_on_c, 14, 49, 0
16, 301680, Note_on_c, 14, 52, 84
16, 301784, Note_on_c, 14, 52, 0
16, 301800, Note_on_c, 14, 57, 84
16, 301919, Note_on_c, 14, 57, 0
16, 301980, Note_on_c, 14, 61, 84
16, 302031, Note_on_c, 14, 61, 0
16, 302040, Note_on_c, 14, 64, 84
16, 302144, Note_on_c, 14, 64, 0
16, 302160, Note_on_c, 14, 66, 84
16, 302279, Note_on_c, 14, 66, 0
16, 302340, Note_on_c, 14, 62, 84
16, 302391, Note_on_c, 14, 62, 0
16, 302400, Note_on_c, 14, 57, 84
16, 302504, Note_on_c, 14, 57, 0
16, 302520, Note_on_c, 14, 54, 84
16, 302639, Note_on_c, 14, 54, 0
16, 302700, Note_on_c, 14, 50, 84
16, 302751, Note_on_c, 14, 50, 0
16, 302760, Note_on_c, 14, 45, 84
16, 302864, Note_on_c, 14, 45, 0
16, 302880, Note_on_c, 14, 45, 84
16, 302999, Note_on_c, 14, 45, 0
16, 303060, Note_on_c, 14, 49, 84
16, 303111, Note_on_c, 14, 49, 0
16, 303120, Note_on_c, 14, 52, 84
16, 303224, Note_on_c, 14, 52, 0
16, 303240, Note_on_c, 14, 57, 84
16, 303359, Note_on_c, 14, 57, 0
16, 303420, Note_on_c, 14, 61, 84
16, 303471, Note_on_c, 14, 61, 0
16, 303480, Note_on_c, 14, 64, 84
16, 303584, Note_on_c, 14, 64, 0
16, 303600, Note_on_c, 14, 45, 84
16, 303719, Note_on_c, 14, 45, 0
16, 303780, Note_on_c, 14, 52, 84
16, 303831, Note_on_c, 14, 52, 0
16, 303840, Note_on_c, 14, 55, 84
16, 303944, Note_on_c, 14, 55, 0
16, 303960, Note_on_c, 14, 61, 84
16, 304079, Note_on_c, 14, 61, 0
16, 304140, Note_on_c, 14, 64, 84
16, 304191, Note_on_c, 14, 64, 0
16, 304200, Note_on_c, 14, 67, 84
16, 304304, Note_on_c, 14, 67, 0
16, 304320, Note_on_c, 14, 66, 84
16, 304439, Note_on_c, 14, 66, 0
16, 304500, Note_on_c, 14, 62, 84
16, 304551, Note_on_c, 14, 62, 0
16, 304560, Note_on_c, 14, 57, 84
16, 304664, Note_on_c, 14, 57, 0
16, 304680, Note_on_c, 14, 54, 84
16, 304799, Note_on_c, 14, 54, 0
16, 304860, Note_on_c, 14, 50, 84
16, 304911, Note_on_c, 14, 50, 0
16, 304920, Note_on_c, 14, 45, 84
16, 305024, Note_on_c, 14, 45, 0
16, 305040, Note_on_c, 14, 45, 84
16, 305159, Note_on_c, 14, 45, 0
16, 305220, Note_on_c, 14, 49, 84
16, 305271, Note_on_c, 14, 49, 0
16, 305280, Note_on_c, 14, 52, 84
16, 305384, Note_on_c, 14, 52, 0
16, 305400, Note_on_c, 14, 57, 84
16, 305519, Note_on_c, 14, 57, 0
16, 305580, Note_on_c, 14, 61, 84
16, 305631, Note_on_c, 14, 61, 0
16, 305640, Note_on_c, 14, 64, 84
16, 305744, Note_on_c, 14, 64, 0
16, 305760, Note_on_c, 14, 45, 84
16, 305879, Note_on_c, 14, 45, 0
16, 305940, Note_on_c, 14, 49, 84
16, 305991, Note_on_c, 14, 49, 0
16, 306000, Note_on_c, 14, 52, 84
16, 306104, Note_on_c, 14, 52, 0
16, 306120, Note_on_c, 14, 57, 84
16, 306239, Note_on_c, 14, 57, 0
16, 306300, Note_on_c, 14, 59, 84
16, 306351, Note_on_c, 14, 59, 0
16, 306360, Note_on_c, 14, 61, 84
16, 306464, Note_on_c, 14, 61, 0
16, 306480, Note_on_c, 14, 62, 84
16, 306599, Note_on_c, 14, 62, 0
16, 306660, Note_on_c, 14, 59, 84
16, 306711, Note_on_c, 14, 59, 0
16, 306720, Note_on_c, 14, 56, 84
16, 306824, Note_on_c, 14, 56, 0
16, 306840, Note_on_c, 14, 61, 84
16, 306959, Note_on_c, 14, 61, 0
16, 307020, Note_on_c, 14, 57, 84
16, 307071, Note_on_c, 14, 57, 0
16, 307080, Note_on_c, 14, 52, 84
16, 307184, Note_on_c, 14, 52, 0
16, 307200, Note_on_c, 14, 52, 84
16, 307319, Note_on_c, 14, 52, 0
16, 307380, Note_on_c, 14, 56, 84
16, 307431, Note_on_c, 14, 56, 0
16, 307440, Note_on_c, 14, 59, 84
16, 307544, Note_on_c, 14, 59, 0
16, 307560, Note_on_c, 14, 52, 84
16, 307679, Note_on_c, 14, 52, 0
16, 307740, Note_on_c, 14, 57, 84
16, 307791, Note_on_c, 14, 57, 0
16, 307800, Note_on_c, 14, 61, 84
16, 307904, Note_on_c, 14, 61, 0
16, 307920, Note_on_c, 14, 62, 84
16, 308039, Note_on_c, 14, 62, 0
16, 308100, Note_on_c, 14, 59, 84
16, 308151, Note_on_c, 14, 59, 0
16, 308160, Note_on_c, 14, 56, 84
16, 308264, Note_on_c, 14, 56, 0
16, 308280, Note_on_c, 14, 61, 84
16, 308399, Note_on_c, 14, 61, 0
16, 308460, Note_on_c, 14, 57, 84
16, 308511, Note_on_c, 14, 57, 0
16, 308520, Note_on_c, 14, 52, 84
16, 308624, Note_on_c, 14, 52, 0
16, 308640, Note_on_c, 14, 52, 84
16, 308759, Note_on_c, 14, 52, 0
16, 308820, Note_on_c, 14, 56, 84
16, 308871, Note_on_c, 14, 56, 0
16, 308880, Note_on_c, 14, 59, 84
16, 308984, Note_on_c, 14, 59, 0
16, 309000, Note_on_c, 14, 52, 84
16, 309119, Note_on_c, 14, 52, 0
16, 309180, Note_on_c, 14, 57, 84
16, 309231, Note_on_c, 14, 57, 0
16, 309240, Note_on_c, 14, 61, 84
16, 309344, Note_on_c, 14, 61, 0
16, 309360, Note_on_c, 14, 52, 84
16, 309479, Note_on_c, 14, 52, 0
16, 309540, Note_on_c, 14, 57, 84
16, 309591, Note_on_c, 14, 57, 0
16, 309600, Note_on_c, 14, 61, 84
16, 309704, Note_on_c, 14, 61, 0
16, 309720, Note_on_c, 14, 52, 84
16, 309839, Note_on_c, 14, 52, 0
16, 309900, Note_on_c, 14, 58, 84
16, 309951, Note_on_c, 14, 58, 0
16, 309960, Note_on_c, 14, 61, 84
16, 310064, Note_on_c, 14, 61, 0
16, 310080, Note_on_c, 14, 52, 84
16, 310199, Note_on_c, 14, 52, 0
16, 310260, Note_on_c, 14, 59, 84
16, 310311, Note_on_c, 14, 59, 0
16, 310320, Note_on_c, 14, 62, 84
16, 310424, Note_on_c, 14, 62, 0
16, 310440, Note_on_c, 14, 52, 84
16, 310559, Note_on_c, 14, 52, 0
16, 310620, Note_on_c, 14, 56, 84
16, 310671, Note_on_c, 14, 56, 0
16, 310680, Note_on_c, 14, 59, 84
16, 310784, Note_on_c, 14, 59, 0
16, 310800, Note_on_c, 14, 47, 84
16, 310919, Note_on_c, 14, 47, 0
16, 310980, Note_on_c, 14, 52, 84
16, 311031, Note_on_c, 14, 52, 0
16, 311040, Note_on_c, 14, 56, 84
16, 311144, Note_on_c, 14, 56, 0
16, 311160, Note_on_c, 14, 44, 84
16, 311279, Note_on_c, 14, 44, 0
16, 311340, Note_on_c, 14, 47, 84
16, 311391, Note_on_c, 14, 47, 0
16, 311400, Note_on_c, 14, 52, 84
16, 311504, Note_on_c, 14, 52, 0
16, 311520, Note_on_c, 14, 40, 84
16, 311879, Note_on_c, 14, 40, 0
16, 312120, Program_c, 14, 45
16, 312240, Note_on_c, 14, 45, 60
16, 312479, Note_on_c, 14, 45, 0
16, 312840, Program_c, 14, 48
16, 312960, Note_on_c, 14, 38, 52
16, 312960, Note_on_c, 14, 45, 52
16, 313679, Note_on_c, 14, 38, 0
16, 313679, Note_on_c, 14, 45, 0
16, 313680, Note_on_c, 14, 45, 52
16, 313680, Note_on_c, 14, 38, 52
16, 314399, Note_on_c, 14, 45, 0
16, 314399, Note_on_c, 14, 38, 0
16, 314400, Note_on_c, 14, 38, 52
16, 314400, Note_on_c, 14, 45, 52
16, 315119, Note_on_c, 14, 38, 0
16, 315119, Note_on_c, 14, 45, 0
16, 315120, Note_on_c, 14, 38, 52
16, 315120, Note_on_c, 14, 45, 52
16, 315839, Note_on_c, 14, 38, 0
16, 315839, Note_on_c, 14, 45, 0
16, 315840, Note_on_c, 14, 45, 52
16, 315840, Note_on_c, 14, 38, 52
16, 316559, Note_on_c, 14, 45, 0
16, 316559, Note_on_c, 14, 38, 0
16, 316560, Note_on_c, 14, 45, 52
16, 316560, Note_on_c, 14, 38, 52
16, 317504, Note_on_c, 14, 45, 0
16, 317504, Note_on_c, 14, 38, 0
16, 317520, Note_on_c, 14, 41, 52
16, 317624, Note_on_c, 14, 41, 0
16, 317640, Note_on_c, 14, 45, 52
16, 317864, Note_on_c, 14, 45, 0
16, 317880, Note_on_c, 14, 45, 52
16, 317984, Note_on_c, 14, 45, 0
16, 318000, Note_on_c, 14, 38, 52
16, 318344, Note_on_c, 14, 38, 0
16, 318360, Note_on_c, 14, 43, 52
16, 318704, Note_on_c, 14, 43, 0
16, 318720, Note_on_c, 14, 43, 44
16, 319439, Note_on_c, 14, 43, 0
16, 319440, Note_on_c, 14, 50, 44
16, 320159, Note_on_c, 14, 50, 0
16, 320160, Note_on_c, 14, 46, 44
16, 320879, Note_on_c, 14, 46, 0
16, 320880, Note_on_c, 14, 53, 44
16, 321599, Note_on_c, 14, 53, 0
16, 321600, Note_on_c, 14, 50, 44
16, 322304, Note_on_c, 14, 50, 0
16, 322320, Note_on_c, 14, 57, 44
16, 323039, Note_on_c, 14, 57, 0
16, 323040, Note_on_c, 14, 57, 44
16, 323759, Note_on_c, 14, 57, 0
16, 323760, Note_on_c, 14, 57, 44
16, 324479, Note_on_c, 14, 57, 0
16, 324480, Note_on_c, 14, 57, 44
16, 325199, Note_on_c, 14, 57, 0
16, 325200, Note_on_c, 14, 57, 44
16, 325784, Note_on_c, 14, 57, 0
16, 325800, Note_on_c, 14, 57, 44
16, 325904, Note_on_c, 14, 57, 0
16, 325920, Note_on_c, 14, 45, 44
16, 326039, Note_on_c, 14, 45, 0
16, 326040, Note_on_c, 14, 57, 45
16, 326144, Note_on_c, 14, 57, 0
16, 326160, Note_on_c, 14, 57, 47
16, 326249, Note_on_c, 14, 57, 0
16, 326280, Note_on_c, 14, 45, 49
16, 326399, Note_on_c, 14, 45, 0
16, 326400, Note_on_c, 14, 57, 50
16, 326504, Note_on_c, 14, 57, 0
16, 326520, Note_on_c, 14, 57, 52
16, 326609, Note_on_c, 14, 57, 0
16, 326640, Note_on_c, 14, 45, 54
16, 326759, Note_on_c, 14, 45, 0
16, 326760, Note_on_c, 14, 57, 55
16, 326864, Note_on_c, 14, 57, 0
16, 326880, Note_on_c, 14, 57, 57
16, 326969, Note_on_c, 14, 57, 0
16, 327000, Note_on_c, 14, 45, 59
16, 327119, Note_on_c, 14, 45, 0
16, 327120, Note_on_c, 14, 57, 60
16, 327224, Note_on_c, 14, 57, 0
16, 327240, Note_on_c, 14, 57, 62
16, 327329, Note_on_c, 14, 57, 0
16, 327360, Note_on_c, 14, 45, 64
16, 327479, Note_on_c, 14, 45, 0
16, 327480, Note_on_c, 14, 57, 65
16, 327584, Note_on_c, 14, 57, 0
16, 327600, Note_on_c, 14, 57, 67
16, 327689, Note_on_c, 14, 57, 0
16, 327720, Note_on_c, 14, 45, 69
16, 327839, Note_on_c, 14, 45, 0
16, 327840, Note_on_c, 14, 57, 70
16, 327944, Note_on_c, 14, 57, 0
16, 327960, Note_on_c, 14, 57, 72
16, 328049, Note_on_c, 14, 57, 0
16, 328080, Note_on_c, 14, 45, 74
16, 328199, Note_on_c, 14, 45, 0
16, 328200, Note_on_c, 14, 57, 75
16, 328304, Note_on_c, 14, 57, 0
16, 328320, Note_on_c, 14, 57, 77
16, 328409, Note_on_c, 14, 57, 0
16, 328440, Note_on_c, 14, 45, 79
16, 328559, Note_on_c, 14, 45, 0
16, 328560, Note_on_c, 14, 57, 80
16, 328664, Note_on_c, 14, 57, 0
16, 328680, Note_on_c, 14, 57, 82
16, 328769, Note_on_c, 14, 57, 0
16, 328800, Note_on_c, 14, 45, 84
16, 328851, Note_on_c, 14, 45, 0
16, 328860, Note_on_c, 14, 57, 84
16, 328911, Note_on_c, 14, 57, 0
16, 328920, Note_on_c, 14, 57, 84
16, 328971, Note_on_c, 14, 57, 0
16, 328980, Note_on_c, 14, 57, 84
16, 329031, Note_on_c, 14, 57, 0
16, 329040, Note_on_c, 14, 57, 84
16, 329091, Note_on_c, 14, 57, 0
16, 329100, Note_on_c, 14, 57, 84
16, 329151, Note_on_c, 14, 57, 0
16, 329160, Note_on_c, 14, 57, 84
16, 329211, Note_on_c, 14, 57, 0
16, 329220, Note_on_c, 14, 57, 84
16, 329271, Note_on_c, 14, 57, 0
16, 329280, Note_on_c, 14, 57, 84
16, 329331, Note_on_c, 14, 57, 0
16, 329340, Note_on_c, 14, 57, 84
16, 329391, Note_on_c, 14, 57, 0
16, 329400, Note_on_c, 14, 57, 84
16, 329451, Note_on_c, 14, 57, 0
16, 329460, Note_on_c, 14, 57, 84
16, 329511, Note_on_c, 14, 57, 0
16, 329520, Note_on_c, 14, 55, 84
16, 329571, Note_on_c, 14, 55, 0
16, 329580, Note_on_c, 14, 55, 84
16, 329631, Note_on_c, 14, 55, 0
16, 329640, Note_on_c, 14, 55, 84
16, 329691, Note_on_c, 14, 55, 0
16, 329700, Note_on_c, 14, 55, 84
16, 329751, Note_on_c, 14, 55, 0
16, 329760, Note_on_c, 14, 55, 84
16, 329811, Note_on_c, 14, 55, 0
16, 329820, Note_on_c, 14, 55, 84
16, 329871, Note_on_c, 14, 55, 0
16, 329880, Note_on_c, 14, 55, 84
16, 329931, Note_on_c, 14, 55, 0
16, 329940, Note_on_c, 14, 55, 84
16, 329991, Note_on_c, 14, 55, 0
16, 330000, Note_on_c, 14, 55, 84
16, 330051, Note_on_c, 14, 55, 0
16, 330060, Note_on_c, 14, 55, 84
16, 330111, Note_on_c, 14, 55, 0
16, 330120, Note_on_c, 14, 55, 84
16, 330171, Note_on_c, 14, 55, 0
16, 330180, Note_on_c, 14, 55, 84
16, 330231, Note_on_c, 14, 55, 0
16, 330240, Note_on_c, 14, 53, 84
16, 330291, Note_on_c, 14, 53, 0
16, 330300, Note_on_c, 14, 53, 84
16, 330351, Note_on_c, 14, 53, 0
16, 330360, Note_on_c, 14, 53, 84
16, 330411, Note_on_c, 14, 53, 0
16, 330420, Note_on_c, 14, 53, 84
16, 330471, Note_on_c, 14, 53, 0
16, 330480, Note_on_c, 14, 53, 84
16, 330531, Note_on_c, 14, 53, 0
16, 330540, Note_on_c, 14, 53, 84
16, 330591, Note_on_c, 14, 53, 0
16, 330600, Note_on_c, 14, 53, 84
16, 330651, Note_on_c, 14, 53, 0
16, 330660, Note_on_c, 14, 53, 84
16, 330711, Note_on_c, 14, 53, 0
16, 330720, Note_on_c, 14, 53, 84
16, 330771, Note_on_c, 14, 53, 0
16, 330780, Note_on_c, 14, 53, 84
16, 330831, Note_on_c, 14, 53, 0
16, 330840, Note_on_c, 14, 53, 84
16, 330891, Note_on_c, 14, 53, 0
16, 330900, Note_on_c, 14, 53, 84
16, 330951, Note_on_c, 14, 53, 0
16, 330960, Note_on_c, 14, 52, 52
16, 331199, Note_on_c, 14, 52, 0
16, 331320, Note_on_c, 14, 52, 52
16, 331559, Note_on_c, 14, 52, 0
16, 331680, Note_on_c, 14, 52, 52
16, 331919, Note_on_c, 14, 52, 0
16, 332040, Note_on_c, 14, 52, 52
16, 332279, Note_on_c, 14, 52, 0
16, 332400, Note_on_c, 14, 52, 52
16, 332639, Note_on_c, 14, 52, 0
16, 332760, Note_on_c, 14, 52, 52
16, 332999, Note_on_c, 14, 52, 0
16, 333120, Note_on_c, 14, 52, 52
16, 333359, Note_on_c, 14, 52, 0
16, 333480, Note_on_c, 14, 52, 52
16, 333719, Note_on_c, 14, 52, 0
16, 333838, Control_c, 14, 11, 80
16, 333840, Note_on_c, 14, 52, 76
16, 333880, Control_c, 14, 11, 83
16, 333920, Control_c, 14, 11, 85
16, 333960, Control_c, 14, 11, 88
16, 334000, Control_c, 14, 11, 90
16, 334040, Control_c, 14, 11, 93
16, 334079, Note_on_c, 14, 52, 0
16, 334080, Control_c, 14, 11, 96
16, 334120, Control_c, 14, 11, 98
16, 334160, Control_c, 14, 11, 101
16, 334200, Note_on_c, 14, 52, 76
16, 334200, Control_c, 14, 11, 104
16, 334240, Control_c, 14, 11, 106
16, 334280, Control_c, 14, 11, 109
16, 334320, Control_c, 14, 11, 111
16, 334360, Control_c, 14, 11, 114
16, 334400, Control_c, 14, 11, 117
16, 334439, Note_on_c, 14, 52, 0
16, 334440, Control_c, 14, 11, 119
16, 334480, Control_c, 14, 11, 122
16, 334520, Control_c, 14, 11, 124
16, 334558, Control_c, 14, 11, 127
16, 334560, Note_on_c, 14, 45, 76
16, 335144, Note_on_c, 14, 45, 0
16, 335160, Note_on_c, 14, 45, 76
16, 335264, Note_on_c, 14, 45, 0
16, 335280, Note_on_c, 14, 44, 76
16, 335504, Note_on_c, 14, 44, 0
16, 335520, Note_on_c, 14, 44, 76
16, 335624, Note_on_c, 14, 44, 0
16, 335640, Note_on_c, 14, 56, 76
16, 335864, Note_on_c, 14, 56, 0
16, 335880, Note_on_c, 14, 56, 76
16, 335984, Note_on_c, 14, 56, 0
16, 336000, Note_on_c, 14, 56, 76
16, 336119, Note_on_c, 14, 56, 0
16, 336120, Note_on_c, 14, 54, 76
16, 336584, Note_on_c, 14, 54, 0
16, 336600, Note_on_c, 14, 42, 76
16, 336704, Note_on_c, 14, 42, 0
16, 336720, Note_on_c, 14, 40, 76
16, 336944, Note_on_c, 14, 40, 0
16, 336960, Note_on_c, 14, 40, 76
16, 337064, Note_on_c, 14, 40, 0
16, 337080, Note_on_c, 14, 52, 76
16, 337304, Note_on_c, 14, 52, 0
16, 337320, Note_on_c, 14, 52, 76
16, 337424, Note_on_c, 14, 52, 0
16, 337440, Note_on_c, 14, 52, 76
16, 337559, Note_on_c, 14, 52, 0
16, 337560, Note_on_c, 14, 50, 76
16, 337664, Note_on_c, 14, 50, 0
16, 337680, Note_on_c, 14, 50, 76
16, 337769, Note_on_c, 14, 50, 0
16, 337800, Note_on_c, 14, 51, 76
16, 337904, Note_on_c, 14, 51, 0
16, 337920, Note_on_c, 14, 51, 76
16, 338024, Note_on_c, 14, 51, 0
16, 338040, Note_on_c, 14, 51, 76
16, 338144, Note_on_c, 14, 51, 0
16, 338160, Note_on_c, 14, 52, 76
16, 338399, Note_on_c, 14, 52, 0
16, 338520, Note_on_c, 14, 52, 76
16, 338759, Note_on_c, 14, 52, 0
16, 338880, Note_on_c, 14, 52, 76
16, 339119, Note_on_c, 14, 52, 0
16, 339240, Note_on_c, 14, 52, 76
16, 339479, Note_on_c, 14, 52, 0
16, 339600, Note_on_c, 14, 52, 76
16, 339839, Note_on_c, 14, 52, 0
16, 339960, Note_on_c, 14, 52, 76
16, 340199, Note_on_c, 14, 52, 0
16, 340320, Note_on_c, 14, 52, 76
16, 340559, Note_on_c, 14, 52, 0
16, 340680, Note_on_c, 14, 52, 76
16, 340919, Note_on_c, 14, 52, 0
16, 341040, Note_on_c, 14, 42, 84
16, 341099, Note_on_c, 14, 42, 0
16, 341100, Note_on_c, 14, 42, 76
16, 341120, Control_c, 14, 11, 122
16, 341160, Control_c, 14, 11, 119
16, 341200, Control_c, 14, 11, 117
16, 341240, Control_c, 14, 11, 114
16, 341280, Control_c, 14, 11, 111
16, 341320, Control_c, 14, 11, 109
16, 341360, Control_c, 14, 11, 106
16, 341400, Control_c, 14, 11, 104
16, 341440, Control_c, 14, 11, 101
16, 341480, Control_c, 14, 11, 98
16, 341520, Control_c, 14, 11, 96
16, 341560, Control_c, 14, 11, 93
16, 341600, Control_c, 14, 11, 90
16, 341639, Note_on_c, 14, 42, 0
16, 341640, Note_on_c, 14, 41, 76
16, 341640, Control_c, 14, 11, 88
16, 341680, Control_c, 14, 11, 85
16, 341720, Control_c, 14, 11, 80
16, 341744, Note_on_c, 14, 41, 0
16, 341760, Note_on_c, 14, 40, 76
16, 342359, Note_on_c, 14, 40, 0
16, 342360, Note_on_c, 14, 42, 76
16, 342419, Note_on_c, 14, 42, 0
16, 342420, Note_on_c, 14, 44, 76
16, 342479, Note_on_c, 14, 44, 0
16, 342480, Note_on_c, 14, 45, 76
16, 342719, Note_on_c, 14, 45, 0
16, 343200, Control_c, 14, 11, 127
16, 343920, Note_on_c, 14, 45, 48
16, 344279, Note_on_c, 14, 45, 0
16, 344280, Note_on_c, 14, 49, 48
16, 344639, Note_on_c, 14, 49, 0
16, 344640, Note_on_c, 14, 52, 48
16, 344999, Note_on_c, 14, 52, 0
16, 345000, Note_on_c, 14, 40, 48
16, 345344, Note_on_c, 14, 40, 0
16, 345360, Note_on_c, 14, 45, 84
16, 345704, Note_on_c, 14, 45, 0
16, 345720, Note_on_c, 14, 57, 84
16, 345891, Note_on_c, 14, 57, 0
16, 345900, Note_on_c, 14, 57, 84
16, 345951, Note_on_c, 14, 57, 0
16, 345960, Note_on_c, 14, 57, 84
16, 346064, Note_on_c, 14, 57, 0
16, 346080, Note_on_c, 14, 57, 84
16, 346251, Note_on_c, 14, 57, 0
16, 346260, Note_on_c, 14, 57, 84
16, 346311, Note_on_c, 14, 57, 0
16, 346320, Note_on_c, 14, 57, 84
16, 346424, Note_on_c, 14, 57, 0
16, 346440, Note_on_c, 14, 57, 84
16, 346611, Note_on_c, 14, 57, 0
16, 346620, Note_on_c, 14, 57, 84
16, 346671, Note_on_c, 14, 57, 0
16, 346680, Note_on_c, 14, 55, 84
16, 346784, Note_on_c, 14, 55, 0
16, 346800, Note_on_c, 14, 53, 84
16, 346971, Note_on_c, 14, 53, 0
16, 346980, Note_on_c, 14, 65, 84
16, 347031, Note_on_c, 14, 65, 0
16, 347040, Note_on_c, 14, 60, 84
16, 347144, Note_on_c, 14, 60, 0
16, 347160, Note_on_c, 14, 57, 84
16, 347331, Note_on_c, 14, 57, 0
16, 347340, Note_on_c, 14, 57, 84
16, 347391, Note_on_c, 14, 57, 0
16, 347400, Note_on_c, 14, 53, 84
16, 347504, Note_on_c, 14, 53, 0
16, 347520, Note_on_c, 14, 48, 84
16, 347691, Note_on_c, 14, 48, 0
16, 347700, Note_on_c, 14, 48, 84
16, 347751, Note_on_c, 14, 48, 0
16, 347760, Note_on_c, 14, 45, 84
16, 347864, Note_on_c, 14, 45, 0
16, 347880, Note_on_c, 14, 41, 84
16, 348051, Note_on_c, 14, 41, 0
16, 348060, Note_on_c, 14, 41, 84
16, 348111, Note_on_c, 14, 41, 0
16, 348120, Note_on_c, 14, 36, 84
16, 348224, Note_on_c, 14, 36, 0
16, 348240, Note_on_c, 14, 41, 84
16, 348479, Note_on_c, 14, 41, 0
16, 348780, Note_on_c, 14, 36, 82
16, 348831, Note_on_c, 14, 36, 0
16, 348840, Note_on_c, 14, 36, 80
16, 348944, Note_on_c, 14, 36, 0
16, 348960, Note_on_c, 14, 41, 76
16, 349199, Note_on_c, 14, 41, 0
16, 349500, Note_on_c, 14, 36, 58
16, 349551, Note_on_c, 14, 36, 0
16, 349560, Note_on_c, 14, 36, 56
16, 349664, Note_on_c, 14, 36, 0
16, 349680, Note_on_c, 14, 41, 52
16, 349919, Note_on_c, 14, 41, 0
16, 350400, Note_on_c, 14, 41, 44
16, 350639, Note_on_c, 14, 41, 0
16, 351360, Note_on_c, 14, 44, 44
16, 351419, Note_on_c, 14, 44, 0
16, 351420, Note_on_c, 14, 45, 44
16, 351479, Note_on_c, 14, 45, 0
16, 351480, Note_on_c, 14, 47, 44
16, 351659, Note_on_c, 14, 47, 0
16, 352800, Note_on_c, 14, 44, 44
16, 352859, Note_on_c, 14, 44, 0
16, 352860, Note_on_c, 14, 45, 44
16, 352919, Note_on_c, 14, 45, 0
16, 352920, Note_on_c, 14, 47, 44
16, 353099, Note_on_c, 14, 47, 0
16, 354240, Note_on_c, 14, 44, 46
16, 354299, Note_on_c, 14, 44, 0
16, 354300, Note_on_c, 14, 45, 46
16, 354359, Note_on_c, 14, 45, 0
16, 354360, Note_on_c, 14, 47, 47
16, 354449, Note_on_c, 14, 47, 0
16, 354600, Note_on_c, 14, 45, 49
16, 354659, Note_on_c, 14, 45, 0
16, 354660, Note_on_c, 14, 47, 50
16, 354719, Note_on_c, 14, 47, 0
16, 354720, Note_on_c, 14, 49, 50
16, 354809, Note_on_c, 14, 49, 0
16, 354960, Note_on_c, 14, 45, 52
16, 355019, Note_on_c, 14, 45, 0
16, 355020, Note_on_c, 14, 47, 53
16, 355079, Note_on_c, 14, 47, 0
16, 355080, Note_on_c, 14, 49, 54
16, 355169, Note_on_c, 14, 49, 0
16, 355320, Note_on_c, 14, 47, 56
16, 355379, Note_on_c, 14, 47, 0
16, 355380, Note_on_c, 14, 49, 56
16, 355439, Note_on_c, 14, 49, 0
16, 355440, Note_on_c, 14, 50, 57
16, 355529, Note_on_c, 14, 50, 0
16, 355680, Note_on_c, 14, 47, 59
16, 355739, Note_on_c, 14, 47, 0
16, 355740, Note_on_c, 14, 49, 60
16, 355799, Note_on_c, 14, 49, 0
16, 355800, Note_on_c, 14, 50, 60
16, 355889, Note_on_c, 14, 50, 0
16, 356040, Note_on_c, 14, 49, 62
16, 356099, Note_on_c, 14, 49, 0
16, 356100, Note_on_c, 14, 50, 63
16, 356159, Note_on_c, 14, 50, 0
16, 356160, Note_on_c, 14, 52, 64
16, 356249, Note_on_c, 14, 52, 0
16, 356400, Note_on_c, 14, 49, 66
16, 356459, Note_on_c, 14, 49, 0
16, 356460, Note_on_c, 14, 50, 66
16, 356519, Note_on_c, 14, 50, 0
16, 356520, Note_on_c, 14, 52, 67
16, 356609, Note_on_c, 14, 52, 0
16, 356760, Note_on_c, 14, 50, 69
16, 356819, Note_on_c, 14, 50, 0
16, 356820, Note_on_c, 14, 52, 70
16, 356879, Note_on_c, 14, 52, 0
16, 356880, Note_on_c, 14, 54, 70
16, 356969, Note_on_c, 14, 54, 0
16, 357120, Note_on_c, 14, 50, 72
16, 357179, Note_on_c, 14, 50, 0
16, 357180, Note_on_c, 14, 52, 73
16, 357239, Note_on_c, 14, 52, 0
16, 357240, Note_on_c, 14, 54, 74
16, 357329, Note_on_c, 14, 54, 0
16, 357480, Note_on_c, 14, 52, 76
16, 357539, Note_on_c, 14, 52, 0
16, 357540, Note_on_c, 14, 54, 76
16, 357599, Note_on_c, 14, 54, 0
16, 357600, Note_on_c, 14, 56, 77
16, 357689, Note_on_c, 14, 56, 0
16, 357840, Note_on_c, 14, 52, 79
16, 357899, Note_on_c, 14, 52, 0
16, 357900, Note_on_c, 14, 54, 80
16, 357959, Note_on_c, 14, 54, 0
16, 357960, Note_on_c, 14, 56, 80
16, 358049, Note_on_c, 14, 56, 0
16, 358200, Note_on_c, 14, 54, 82
16, 358259, Note_on_c, 14, 54, 0
16, 358260, Note_on_c, 14, 56, 83
16, 358319, Note_on_c, 14, 56, 0
16, 358320, Note_on_c, 14, 57, 84
16, 358491, Note_on_c, 14, 57, 0
16, 358500, Note_on_c, 14, 69, 84
16, 358551, Note_on_c, 14, 69, 0
16, 358560, Note_on_c, 14, 64, 84
16, 358664, Note_on_c, 14, 64, 0
16, 358680, Note_on_c, 14, 61, 84
16, 358851, Note_on_c, 14, 61, 0
16, 358860, Note_on_c, 14, 61, 84
16, 358911, Note_on_c, 14, 61, 0
16, 358920, Note_on_c, 14, 57, 84
16, 359024, Note_on_c, 14, 57, 0
16, 359040, Note_on_c, 14, 52, 84
16, 359211, Note_on_c, 14, 52, 0
16, 359220, Note_on_c, 14, 52, 84
16, 359271, Note_on_c, 14, 52, 0
16, 359280, Note_on_c, 14, 49, 84
16, 359384, Note_on_c, 14, 49, 0
16, 359400, Note_on_c, 14, 45, 84
16, 359639, Note_on_c, 14, 45, 0
16, 359760, Note_on_c, 14, 38, 84
16, 359931, Note_on_c, 14, 38, 0
16, 359940, Note_on_c, 14, 62, 84
16, 359991, Note_on_c, 14, 62, 0
16, 360000, Note_on_c, 14, 57, 84
16, 360104, Note_on_c, 14, 57, 0
16, 360120, Note_on_c, 14, 54, 84
16, 360291, Note_on_c, 14, 54, 0
16, 360300, Note_on_c, 14, 54, 84
16, 360351, Note_on_c, 14, 54, 0
16, 360360, Note_on_c, 14, 50, 84
16, 360464, Note_on_c, 14, 50, 0
16, 360480, Note_on_c, 14, 45, 84
16, 360651, Note_on_c, 14, 45, 0
16, 360660, Note_on_c, 14, 45, 84
16, 360711, Note_on_c, 14, 45, 0
16, 360720, Note_on_c, 14, 42, 84
16, 360824, Note_on_c, 14, 42, 0
16, 360840, Note_on_c, 14, 38, 84
16, 361079, Note_on_c, 14, 38, 0
16, 361200, Note_on_c, 14, 38, 44
16, 361251, Note_on_c, 14, 38, 0
16, 361260, Note_on_c, 14, 38, 44
16, 361311, Note_on_c, 14, 38, 0
16, 361320, Note_on_c, 14, 38, 44
16, 361371, Note_on_c, 14, 38, 0
16, 361380, Note_on_c, 14, 38, 44
16, 361431, Note_on_c, 14, 38, 0
16, 361440, Note_on_c, 14, 38, 44
16, 361491, Note_on_c, 14, 38, 0
16, 361500, Note_on_c, 14, 38, 44
16, 361551, Note_on_c, 14, 38, 0
16, 361560, Note_on_c, 14, 38, 44
16, 361611, Note_on_c, 14, 38, 0
16, 361620, Note_on_c, 14, 38, 44
16, 361671, Note_on_c, 14, 38, 0
16, 361680, Note_on_c, 14, 38, 44
16, 361731, Note_on_c, 14, 38, 0
16, 361740, Note_on_c, 14, 38, 44
16, 361791, Note_on_c, 14, 38, 0
16, 361800, Note_on_c, 14, 38, 44
16, 361851, Note_on_c, 14, 38, 0
16, 361860, Note_on_c, 14, 38, 44
16, 361911, Note_on_c, 14, 38, 0
16, 361920, Note_on_c, 14, 40, 44
16, 361971, Note_on_c, 14, 40, 0
16, 361980, Note_on_c, 14, 40, 47
16, 362031, Note_on_c, 14, 40, 0
16, 362040, Note_on_c, 14, 40, 50
16, 362091, Note_on_c, 14, 40, 0
16, 362100, Note_on_c, 14, 40, 54
16, 362151, Note_on_c, 14, 40, 0
16, 362160, Note_on_c, 14, 40, 57
16, 362211, Note_on_c, 14, 40, 0
16, 362220, Note_on_c, 14, 40, 60
16, 362271, Note_on_c, 14, 40, 0
16, 362280, Note_on_c, 14, 40, 64
16, 362331, Note_on_c, 14, 40, 0
16, 362340, Note_on_c, 14, 52, 67
16, 362391, Note_on_c, 14, 52, 0
16, 362400, Note_on_c, 14, 52, 70
16, 362451, Note_on_c, 14, 52, 0
16, 362460, Note_on_c, 14, 50, 74
16, 362511, Note_on_c, 14, 50, 0
16, 362520, Note_on_c, 14, 49, 77
16, 362571, Note_on_c, 14, 49, 0
16, 362580, Note_on_c, 14, 47, 80
16, 362631, Note_on_c, 14, 47, 0
16, 362640, Note_on_c, 14, 45, 84
16, 362811, Note_on_c, 14, 45, 0
16, 362820, Note_on_c, 14, 69, 84
16, 362871, Note_on_c, 14, 69, 0
16, 362880, Note_on_c, 14, 64, 84
16, 362984, Note_on_c, 14, 64, 0
16, 363000, Note_on_c, 14, 61, 84
16, 363171, Note_on_c, 14, 61, 0
16, 363180, Note_on_c, 14, 61, 84
16, 363231, Note_on_c, 14, 61, 0
16, 363240, Note_on_c, 14, 57, 84
16, 363344, Note_on_c, 14, 57, 0
16, 363360, Note_on_c, 14, 52, 84
16, 363531, Note_on_c, 14, 52, 0
16, 363540, Note_on_c, 14, 52, 84
16, 363591, Note_on_c, 14, 52, 0
16, 363600, Note_on_c, 14, 49, 84
16, 363704, Note_on_c, 14, 49, 0
16, 363720, Note_on_c, 14, 45, 84
16, 363959, Note_on_c, 14, 45, 0
16, 364080, Note_on_c, 14, 62, 84
16, 364251, Note_on_c, 14, 62, 0
16, 364260, Note_on_c, 14, 62, 84
16, 364311, Note_on_c, 14, 62, 0
16, 364320, Note_on_c, 14, 57, 84
16, 364424, Note_on_c, 14, 57, 0
16, 364440, Note_on_c, 14, 54, 84
16, 364611, Note_on_c, 14, 54, 0
16, 364620, Note_on_c, 14, 54, 84
16, 364671, Note_on_c, 14, 54, 0
16, 364680, Note_on_c, 14, 50, 84
16, 364784, Note_on_c, 14, 50, 0
16, 364800, Note_on_c, 14, 45, 84
16, 364971, Note_on_c, 14, 45, 0
16, 364980, Note_on_c, 14, 45, 84
16, 365031, Note_on_c, 14, 45, 0
16, 365040, Note_on_c, 14, 42, 84
16, 365144, Note_on_c, 14, 42, 0
16, 365160, Note_on_c, 14, 38, 84
16, 365399, Note_on_c, 14, 38, 0
16, 365518, Control_c, 14, 11, 48
16, 365520, Note_on_c, 14, 38, 84
16, 366224, Note_on_c, 14, 38, 0
16, 366240, Note_on_c, 14, 40, 84
16, 366280, Control_c, 14, 11, 52
16, 366320, Control_c, 14, 11, 57
16, 366360, Control_c, 14, 11, 61
16, 366400, Control_c, 14, 11, 66
16, 366440, Control_c, 14, 11, 70
16, 366480, Control_c, 14, 11, 74
16, 366520, Control_c, 14, 11, 79
16, 366560, Control_c, 14, 11, 83
16, 366600, Control_c, 14, 11, 88
16, 366640, Control_c, 14, 11, 92
16, 366680, Control_c, 14, 11, 96
16, 366720, Control_c, 14, 11, 101
16, 366760, Control_c, 14, 11, 105
16, 366800, Control_c, 14, 11, 109
16, 366840, Control_c, 14, 11, 114
16, 366880, Control_c, 14, 11, 118
16, 366920, Control_c, 14, 11, 123
16, 366944, Note_on_c, 14, 40, 0
16, 366958, Control_c, 14, 11, 127
16, 366960, Note_on_c, 14, 45, 84
16, 367199, Note_on_c, 14, 45, 0
16, 367320, Note_on_c, 14, 49, 84
16, 367559, Note_on_c, 14, 49, 0
16, 367680, Note_on_c, 14, 52, 84
16, 367919, Note_on_c, 14, 52, 0
16, 368220, Note_on_c, 14, 52, 84
16, 368271, Note_on_c, 14, 52, 0
16, 368280, Note_on_c, 14, 52, 84
16, 368384, Note_on_c, 14, 52, 0
16, 368400, Note_on_c, 14, 52, 92
16, 368459, Note_on_c, 14, 52, 0
16, 368460, Note_on_c, 14, 52, 84
16, 368931, Note_on_c, 14, 52, 0
16, 368940, Note_on_c, 14, 50, 84
16, 368984, Note_on_c, 14, 50, 0
16, 369000, Note_on_c, 14, 49, 84
16, 369081, Note_on_c, 14, 49, 0
16, 369090, Note_on_c, 14, 49, 84
16, 369119, Note_on_c, 14, 49, 0
16, 369120, Note_on_c, 14, 50, 92
16, 369179, Note_on_c, 14, 50, 0
16, 369180, Note_on_c, 14, 50, 84
16, 369651, Note_on_c, 14, 50, 0
16, 369660, Note_on_c, 14, 42, 84
16, 369704, Note_on_c, 14, 42, 0
16, 369720, Note_on_c, 14, 44, 84
16, 369801, Note_on_c, 14, 44, 0
16, 369840, Note_on_c, 14, 45, 84
16, 370079, Note_on_c, 14, 45, 0
16, 370380, Note_on_c, 14, 52, 84
16, 370431, Note_on_c, 14, 52, 0
16, 370440, Note_on_c, 14, 52, 84
16, 370544, Note_on_c, 14, 52, 0
16, 370560, Note_on_c, 14, 52, 92
16, 370619, Note_on_c, 14, 52, 0
16, 370620, Note_on_c, 14, 52, 84
16, 370791, Note_on_c, 14, 52, 0
16, 370800, Note_on_c, 14, 49, 84
16, 370881, Note_on_c, 14, 49, 0
16, 370890, Note_on_c, 14, 49, 84
16, 370919, Note_on_c, 14, 49, 0
16, 370920, Note_on_c, 14, 50, 84
16, 371091, Note_on_c, 14, 50, 0
16, 371100, Note_on_c, 14, 42, 84
16, 371144, Note_on_c, 14, 42, 0
16, 371160, Note_on_c, 14, 44, 84
16, 371249, Note_on_c, 14, 44, 0
16, 371280, Note_on_c, 14, 45, 84
16, 371519, Note_on_c, 14, 45, 0
16, 371820, Note_on_c, 14, 52, 84
16, 371871, Note_on_c, 14, 52, 0
16, 371880, Note_on_c, 14, 52, 84
16, 371961, Note_on_c, 14, 52, 0
16, 371970, Note_on_c, 14, 44, 84
16, 371999, Note_on_c, 14, 44, 0
16, 372000, Note_on_c, 14, 45, 84
16, 372239, Note_on_c, 14, 45, 0
16, 372330, Note_on_c, 14, 45, 84
16, 372359, Note_on_c, 14, 45, 0
16, 372360, Note_on_c, 14, 47, 84
16, 372599, Note_on_c, 14, 47, 0
16, 372690, Note_on_c, 14, 47, 84
16, 372719, Note_on_c, 14, 47, 0
16, 372720, Note_on_c, 14, 49, 84
16, 372959, Note_on_c, 14, 49, 0
16, 373050, Note_on_c, 14, 49, 84
16, 373079, Note_on_c, 14, 49, 0
16, 373080, Note_on_c, 14, 50, 84
16, 373319, Note_on_c, 14, 50, 0
16, 373410, Note_on_c, 14, 50, 84
16, 373439, Note_on_c, 14, 50, 0
16, 373440, Note_on_c, 14, 52, 84
16, 373679, Note_on_c, 14, 52, 0
16, 373770, Note_on_c, 14, 52, 84
16, 373799, Note_on_c, 14, 52, 0
16, 373800, Note_on_c, 14, 54, 84
16, 374039, Note_on_c, 14, 54, 0
16, 374130, Note_on_c, 14, 54, 84
16, 374159, Note_on_c, 14, 54, 0
16, 374160, Note_on_c, 14, 56, 84
16, 374399, Note_on_c, 14, 56, 0
16, 374490, Note_on_c, 14, 56, 84
16, 374519, Note_on_c, 14, 56, 0
16, 374520, Note_on_c, 14, 57, 84
16, 374759, Note_on_c, 14, 57, 0
16, 376290, Note_on_c, 14, 55, 52
16, 376319, Note_on_c, 14, 55, 0
16, 376320, Note_on_c, 14, 56, 52
16, 376559, Note_on_c, 14, 56, 0
16, 377760, Note_on_c, 14, 44, 44
16, 377931, Note_on_c, 14, 44, 0
16, 377940, Note_on_c, 14, 44, 44
16, 377991, Note_on_c, 14, 44, 0
16, 378000, Note_on_c, 14, 44, 44
16, 378104, Note_on_c, 14, 44, 0
16, 378120, Note_on_c, 14, 44, 44
16, 378291, Note_on_c, 14, 44, 0
16, 378300, Note_on_c, 14, 44, 44
16, 378351, Note_on_c, 14, 44, 0
16, 378360, Note_on_c, 14, 44, 44
16, 378464, Note_on_c, 14, 44, 0
16, 378480, Note_on_c, 14, 44, 44
16, 378651, Note_on_c, 14, 44, 0
16, 378660, Note_on_c, 14, 44, 44
16, 378711, Note_on_c, 14, 44, 0
16, 378720, Note_on_c, 14, 44, 44
16, 378824, Note_on_c, 14, 44, 0
16, 378840, Note_on_c, 14, 44, 44
16, 379011, Note_on_c, 14, 44, 0
16, 379020, Note_on_c, 14, 44, 44
16, 379071, Note_on_c, 14, 44, 0
16, 379080, Note_on_c, 14, 44, 44
16, 379184, Note_on_c, 14, 44, 0
16, 379200, Note_on_c, 14, 44, 44
16, 379371, Note_on_c, 14, 44, 0
16, 379380, Note_on_c, 14, 44, 44
16, 379431, Note_on_c, 14, 44, 0
16, 379440, Note_on_c, 14, 44, 44
16, 379544, Note_on_c, 14, 44, 0
16, 379560, Note_on_c, 14, 44, 44
16, 379731, Note_on_c, 14, 44, 0
16, 379740, Note_on_c, 14, 44, 44
16, 379791, Note_on_c, 14, 44, 0
16, 379800, Note_on_c, 14, 44, 44
16, 379904, Note_on_c, 14, 44, 0
16, 379920, Note_on_c, 14, 44, 44
16, 380091, Note_on_c, 14, 44, 0
16, 380100, Note_on_c, 14, 44, 44
16, 380151, Note_on_c, 14, 44, 0
16, 380160, Note_on_c, 14, 44, 44
16, 380264, Note_on_c, 14, 44, 0
16, 380280, Note_on_c, 14, 44, 44
16, 380451, Note_on_c, 14, 44, 0
16, 380460, Note_on_c, 14, 44, 44
16, 380511, Note_on_c, 14, 44, 0
16, 380520, Note_on_c, 14, 44, 44
16, 380624, Note_on_c, 14, 44, 0
16, 380640, Note_on_c, 14, 43, 44
16, 380811, Note_on_c, 14, 43, 0
16, 380820, Note_on_c, 14, 43, 44
16, 380871, Note_on_c, 14, 43, 0
16, 380880, Note_on_c, 14, 43, 44
16, 380984, Note_on_c, 14, 43, 0
16, 381000, Note_on_c, 14, 43, 44
16, 381171, Note_on_c, 14, 43, 0
16, 381180, Note_on_c, 14, 43, 44
16, 381231, Note_on_c, 14, 43, 0
16, 381240, Note_on_c, 14, 43, 44
16, 381344, Note_on_c, 14, 43, 0
16, 381360, Note_on_c, 14, 43, 44
16, 381531, Note_on_c, 14, 43, 0
16, 381540, Note_on_c, 14, 43, 44
16, 381591, Note_on_c, 14, 43, 0
16, 381600, Note_on_c, 14, 43, 44
16, 381704, Note_on_c, 14, 43, 0
16, 381720, Note_on_c, 14, 43, 44
16, 381891, Note_on_c, 14, 43, 0
16, 381900, Note_on_c, 14, 43, 44
16, 381951, Note_on_c, 14, 43, 0
16, 381960, Note_on_c, 14, 43, 44
16, 382064, Note_on_c, 14, 43, 0
16, 382080, Note_on_c, 14, 41, 44
16, 382251, Note_on_c, 14, 41, 0
16, 382260, Note_on_c, 14, 41, 44
16, 382311, Note_on_c, 14, 41, 0
16, 382320, Note_on_c, 14, 41, 44
16, 382424, Note_on_c, 14, 41, 0
16, 382440, Note_on_c, 14, 41, 44
16, 382611, Note_on_c, 14, 41, 0
16, 382620, Note_on_c, 14, 41, 44
16, 382671, Note_on_c, 14, 41, 0
16, 382680, Note_on_c, 14, 41, 44
16, 382784, Note_on_c, 14, 41, 0
16, 382800, Note_on_c, 14, 41, 44
16, 382971, Note_on_c, 14, 41, 0
16, 382980, Note_on_c, 14, 41, 44
16, 383031, Note_on_c, 14, 41, 0
16, 383040, Note_on_c, 14, 41, 44
16, 383144, Note_on_c, 14, 41, 0
16, 383160, Note_on_c, 14, 41, 44
16, 383331, Note_on_c, 14, 41, 0
16, 383340, Note_on_c, 14, 41, 44
16, 383391, Note_on_c, 14, 41, 0
16, 383400, Note_on_c, 14, 41, 44
16, 383504, Note_on_c, 14, 41, 0
16, 383520, Note_on_c, 14, 40, 44
16, 383691, Note_on_c, 14, 40, 0
16, 383700, Note_on_c, 14, 40, 44
16, 383751, Note_on_c, 14, 40, 0
16, 383760, Note_on_c, 14, 40, 44
16, 383864, Note_on_c, 14, 40, 0
16, 383880, Note_on_c, 14, 40, 44
16, 384051, Note_on_c, 14, 40, 0
16, 384060, Note_on_c, 14, 40, 44
16, 384111, Note_on_c, 14, 40, 0
16, 384120, Note_on_c, 14, 40, 44
16, 384224, Note_on_c, 14, 40, 0
16, 384240, Note_on_c, 14, 40, 44
16, 384411, Note_on_c, 14, 40, 0
16, 384420, Note_on_c, 14, 40, 44
16, 384471, Note_on_c, 14, 40, 0
16, 384480, Note_on_c, 14, 40, 44
16, 384584, Note_on_c, 14, 40, 0
16, 384600, Note_on_c, 14, 40, 44
16, 384771, Note_on_c, 14, 40, 0
16, 384780, Note_on_c, 14, 40, 44
16, 384831, Note_on_c, 14, 40, 0
16, 384840, Note_on_c, 14, 40, 44
16, 384944, Note_on_c, 14, 40, 0
16, 384960, Note_on_c, 14, 38, 44
16, 385439, Note_on_c, 14, 38, 0
16, 385440, Note_on_c, 14, 37, 44
16, 385559, Note_on_c, 14, 37, 0
16, 385560, Note_on_c, 14, 36, 44
16, 385664, Note_on_c, 14, 36, 0
16, 385680, Note_on_c, 14, 36, 44
16, 385799, Note_on_c, 14, 36, 0
16, 385800, Note_on_c, 14, 37, 44
16, 386384, Note_on_c, 14, 37, 0
16, 386400, Note_on_c, 14, 38, 44
16, 386879, Note_on_c, 14, 38, 0
16, 386880, Note_on_c, 14, 37, 44
16, 386999, Note_on_c, 14, 37, 0
16, 387000, Note_on_c, 14, 36, 44
16, 387104, Note_on_c, 14, 36, 0
16, 387120, Note_on_c, 14, 36, 44
16, 387239, Note_on_c, 14, 36, 0
16, 387240, Note_on_c, 14, 37, 44
16, 387824, Note_on_c, 14, 37, 0
16, 387840, Note_on_c, 14, 38, 44
16, 388319, Note_on_c, 14, 38, 0
16, 388320, Note_on_c, 14, 37, 44
16, 388439, Note_on_c, 14, 37, 0
16, 388440, Note_on_c, 14, 36, 44
16, 388544, Note_on_c, 14, 36, 0
16, 388560, Note_on_c, 14, 36, 44
16, 388679, Note_on_c, 14, 36, 0
16, 388680, Note_on_c, 14, 37, 44
16, 389264, Note_on_c, 14, 37, 0
16, 389280, Note_on_c, 14, 38, 44
16, 389759, Note_on_c, 14, 38, 0
16, 389760, Note_on_c, 14, 37, 44
16, 389879, Note_on_c, 14, 37, 0
16, 389880, Note_on_c, 14, 36, 44
16, 389984, Note_on_c, 14, 36, 0
16, 390000, Note_on_c, 14, 36, 44
16, 390119, Note_on_c, 14, 36, 0
16, 390120, Note_on_c, 14, 37, 44
16, 390704, Note_on_c, 14, 37, 0
16, 390718, Control_c, 14, 11, 44
16, 390720, Note_on_c, 14, 38, 84
16, 390886, Control_c, 14, 11, 45
16, 391052, Control_c, 14, 11, 46
16, 391199, Note_on_c, 14, 38, 0
16, 391200, Note_on_c, 14, 37, 84
16, 391218, Control_c, 14, 11, 47
16, 391319, Note_on_c, 14, 37, 0
16, 391320, Note_on_c, 14, 36, 84
16, 391385, Control_c, 14, 11, 48
16, 391424, Note_on_c, 14, 36, 0
16, 391440, Note_on_c, 14, 36, 84
16, 391551, Control_c, 14, 11, 49
16, 391559, Note_on_c, 14, 36, 0
16, 391560, Note_on_c, 14, 37, 84
16, 391717, Control_c, 14, 11, 50
16, 391883, Control_c, 14, 11, 51
16, 392049, Control_c, 14, 11, 52
16, 392144, Note_on_c, 14, 37, 0
16, 392160, Note_on_c, 14, 38, 84
16, 392215, Control_c, 14, 11, 53
16, 392382, Control_c, 14, 11, 54
16, 392548, Control_c, 14, 11, 55
16, 392639, Note_on_c, 14, 38, 0
16, 392640, Note_on_c, 14, 37, 84
16, 392714, Control_c, 14, 11, 56
16, 392759, Note_on_c, 14, 37, 0
16, 392760, Note_on_c, 14, 36, 84
16, 392864, Note_on_c, 14, 36, 0
16, 392880, Note_on_c, 14, 36, 84
16, 392880, Control_c, 14, 11, 57
16, 392999, Note_on_c, 14, 36, 0
16, 393000, Note_on_c, 14, 37, 84
16, 393046, Control_c, 14, 11, 58
16, 393212, Control_c, 14, 11, 59
16, 393378, Control_c, 14, 11, 60
16, 393545, Control_c, 14, 11, 61
16, 393584, Note_on_c, 14, 37, 0
16, 393600, Note_on_c, 14, 38, 84
16, 393711, Control_c, 14, 11, 62
16, 393877, Control_c, 14, 11, 63
16, 394043, Control_c, 14, 11, 64
16, 394079, Note_on_c, 14, 38, 0
16, 394080, Note_on_c, 14, 37, 84
16, 394199, Note_on_c, 14, 37, 0
16, 394200, Note_on_c, 14, 36, 84
16, 394209, Control_c, 14, 11, 65
16, 394304, Note_on_c, 14, 36, 0
16, 394320, Note_on_c, 14, 36, 84
16, 394375, Control_c, 14, 11, 66
16, 394439, Note_on_c, 14, 36, 0
16, 394440, Note_on_c, 14, 37, 84
16, 394542, Control_c, 14, 11, 67
16, 394708, Control_c, 14, 11, 68
16, 394874, Control_c, 14, 11, 69
16, 395024, Note_on_c, 14, 37, 0
16, 395040, Note_on_c, 14, 38, 84
16, 395040, Control_c, 14, 11, 70
16, 395206, Control_c, 14, 11, 71
16, 395372, Control_c, 14, 11, 72
16, 395519, Note_on_c, 14, 38, 0
16, 395520, Note_on_c, 14, 37, 84
16, 395538, Control_c, 14, 11, 73
16, 395639, Note_on_c, 14, 37, 0
16, 395640, Note_on_c, 14, 36, 84
16, 395705, Control_c, 14, 11, 74
16, 395744, Note_on_c, 14, 36, 0
16, 395760, Note_on_c, 14, 36, 84
16, 395871, Control_c, 14, 11, 75
16, 395879, Note_on_c, 14, 36, 0
16, 395880, Note_on_c, 14, 37, 84
16, 396037, Control_c, 14, 11, 76
16, 396203, Control_c, 14, 11, 77
16, 396369, Control_c, 14, 11, 78
16, 396464, Note_on_c, 14, 37, 0
16, 396480, Note_on_c, 14, 38, 84
16, 396535, Control_c, 14, 11, 79
16, 396702, Control_c, 14, 11, 80
16, 396868, Control_c, 14, 11, 81
16, 396959, Note_on_c, 14, 38, 0
16, 396960, Note_on_c, 14, 37, 84
16, 397034, Control_c, 14, 11, 82
16, 397079, Note_on_c, 14, 37, 0
16, 397080, Note_on_c, 14, 36, 84
16, 397184, Note_on_c, 14, 36, 0
16, 397200, Control_c, 14, 11, 83
16, 397200, Note_on_c, 14, 36, 84
16, 397319, Note_on_c, 14, 36, 0
16, 397320, Note_on_c, 14, 37, 84
16, 397366, Control_c, 14, 11, 84
16, 397532, Control_c, 14, 11, 85
16, 397698, Control_c, 14, 11, 86
16, 397865, Control_c, 14, 11, 87
16, 397904, Note_on_c, 14, 37, 0
16, 397920, Note_on_c, 14, 38, 84
16, 398031, Control_c, 14, 11, 88
16, 398197, Control_c, 14, 11, 89
16, 398363, Control_c, 14, 11, 90
16, 398399, Note_on_c, 14, 38, 0
16, 398400, Note_on_c, 14, 37, 84
16, 398519, Note_on_c, 14, 37, 0
16, 398520, Note_on_c, 14, 36, 84
16, 398529, Control_c, 14, 11, 91
16, 398624, Note_on_c, 14, 36, 0
16, 398640, Note_on_c, 14, 36, 84
16, 398695, Control_c, 14, 11, 92
16, 398759, Note_on_c, 14, 36, 0
16, 398760, Note_on_c, 14, 37, 84
16, 398862, Control_c, 14, 11, 93
16, 399028, Control_c, 14, 11, 94
16, 399194, Control_c, 14, 11, 95
16, 399344, Note_on_c, 14, 37, 0
16, 399360, Control_c, 14, 11, 96
16, 399360, Note_on_c, 14, 38, 84
16, 399406, Control_c, 14, 11, 97
16, 399453, Control_c, 14, 11, 98
16, 399499, Control_c, 14, 11, 99
16, 399546, Control_c, 14, 11, 100
16, 399592, Control_c, 14, 11, 101
16, 399639, Control_c, 14, 11, 102
16, 399685, Control_c, 14, 11, 103
16, 399732, Control_c, 14, 11, 104
16, 399778, Control_c, 14, 11, 105
16, 399825, Control_c, 14, 11, 106
16, 399839, Note_on_c, 14, 38, 0
16, 399840, Note_on_c, 14, 37, 84
16, 399871, Control_c, 14, 11, 107
16, 399917, Control_c, 14, 11, 108
16, 399959, Note_on_c, 14, 37, 0
16, 399960, Note_on_c, 14, 36, 84
16, 399964, Control_c, 14, 11, 109
16, 400010, Control_c, 14, 11, 110
16, 400057, Control_c, 14, 11, 111
16, 400064, Note_on_c, 14, 36, 0
16, 400080, Note_on_c, 14, 38, 84
16, 400103, Control_c, 14, 11, 112
16, 400150, Control_c, 14, 11, 113
16, 400196, Control_c, 14, 11, 114
16, 400199, Note_on_c, 14, 38, 0
16, 400200, Note_on_c, 14, 37, 84
16, 400243, Control_c, 14, 11, 115
16, 400289, Control_c, 14, 11, 116
16, 400319, Note_on_c, 14, 37, 0
16, 400320, Note_on_c, 14, 36, 84
16, 400335, Control_c, 14, 11, 117
16, 400382, Control_c, 14, 11, 118
16, 400428, Control_c, 14, 11, 119
16, 400439, Note_on_c, 14, 36, 0
16, 400440, Note_on_c, 14, 38, 84
16, 400475, Control_c, 14, 11, 120
16, 400521, Control_c, 14, 11, 121
16, 400559, Note_on_c, 14, 38, 0
16, 400560, Note_on_c, 14, 37, 84
16, 400568, Control_c, 14, 11, 122
16, 400614, Control_c, 14, 11, 123
16, 400661, Control_c, 14, 11, 124
16, 400679, Note_on_c, 14, 37, 0
16, 400680, Note_on_c, 14, 36, 84
16, 400707, Control_c, 14, 11, 125
16, 400754, Control_c, 14, 11, 127
16, 400784, Note_on_c, 14, 36, 0
16, 400800, Note_on_c, 14, 37, 84
16, 400971, Note_on_c, 14, 37, 0
16, 400980, Note_on_c, 14, 49, 84
16, 401031, Note_on_c, 14, 49, 0
16, 401040, Note_on_c, 14, 49, 84
16, 401144, Note_on_c, 14, 49, 0
16, 401160, Note_on_c, 14, 49, 84
16, 401331, Note_on_c, 14, 49, 0
16, 401340, Note_on_c, 14, 49, 84
16, 401391, Note_on_c, 14, 49, 0
16, 401400, Note_on_c, 14, 49, 84
16, 401504, Note_on_c, 14, 49, 0
16, 401520, Note_on_c, 14, 49, 84
16, 401691, Note_on_c, 14, 49, 0
16, 401700, Note_on_c, 14, 49, 84
16, 401751, Note_on_c, 14, 49, 0
16, 401760, Note_on_c, 14, 49, 84
16, 401864, Note_on_c, 14, 49, 0
16, 401880, Note_on_c, 14, 49, 84
16, 402051, Note_on_c, 14, 49, 0
16, 402060, Note_on_c, 14, 49, 84
16, 402111, Note_on_c, 14, 49, 0
16, 402120, Note_on_c, 14, 49, 84
16, 402224, Note_on_c, 14, 49, 0
16, 402240, Note_on_c, 14, 38, 84
16, 402411, Note_on_c, 14, 38, 0
16, 402420, Note_on_c, 14, 50, 84
16, 402471, Note_on_c, 14, 50, 0
16, 402480, Note_on_c, 14, 50, 84
16, 402584, Note_on_c, 14, 50, 0
16, 402600, Note_on_c, 14, 50, 84
16, 402771, Note_on_c, 14, 50, 0
16, 402780, Note_on_c, 14, 50, 84
16, 402831, Note_on_c, 14, 50, 0
16, 402840, Note_on_c, 14, 50, 84
16, 402944, Note_on_c, 14, 50, 0
16, 402960, Note_on_c, 14, 50, 84
16, 403131, Note_on_c, 14, 50, 0
16, 403140, Note_on_c, 14, 50, 84
16, 403191, Note_on_c, 14, 50, 0
16, 403200, Note_on_c, 14, 50, 84
16, 403304, Note_on_c, 14, 50, 0
16, 403320, Note_on_c, 14, 50, 84
16, 403491, Note_on_c, 14, 50, 0
16, 403500, Note_on_c, 14, 50, 84
16, 403551, Note_on_c, 14, 50, 0
16, 403560, Note_on_c, 14, 50, 84
16, 403664, Note_on_c, 14, 50, 0
16, 403680, Note_on_c, 14, 52, 84
16, 403919, Note_on_c, 14, 52, 0
16, 404220, Note_on_c, 14, 45, 84
16, 404264, Note_on_c, 14, 45, 0
16, 404280, Note_on_c, 14, 40, 84
16, 404369, Note_on_c, 14, 40, 0
16, 404400, Note_on_c, 14, 40, 84
16, 404639, Note_on_c, 14, 40, 0
16, 404940, Note_on_c, 14, 52, 84
16, 404984, Note_on_c, 14, 52, 0
16, 405000, Note_on_c, 14, 49, 84
16, 405089, Note_on_c, 14, 49, 0
16, 405120, Note_on_c, 14, 49, 84
16, 405299, Note_on_c, 14, 49, 0
16, 405420, Note_on_c, 14, 57, 84
16, 405471, Note_on_c, 14, 57, 0
16, 405480, Note_on_c, 14, 52, 84
16, 405659, Note_on_c, 14, 52, 0
16, 405780, Note_on_c, 14, 52, 84
16, 405831, Note_on_c, 14, 52, 0
16, 405840, Note_on_c, 14, 49, 84
16, 406019, Note_on_c, 14, 49, 0
16, 406140, Note_on_c, 14, 49, 84
16, 406191, Note_on_c, 14, 49, 0
16, 406200, Note_on_c, 14, 45, 84
16, 406379, Note_on_c, 14, 45, 0
16, 406500, Note_on_c, 14, 45, 84
16, 406551, Note_on_c, 14, 45, 0
16, 406560, Note_on_c, 14, 42, 84
16, 406739, Note_on_c, 14, 42, 0
16, 406860, Note_on_c, 14, 42, 84
16, 406911, Note_on_c, 14, 42, 0
16, 406920, Note_on_c, 14, 40, 84
16, 407099, Note_on_c, 14, 40, 0
16, 407220, Note_on_c, 14, 40, 84
16, 407271, Note_on_c, 14, 40, 0
16, 407280, Note_on_c, 14, 39, 84
16, 407519, Note_on_c, 14, 39, 0
16, 407820, Note_on_c, 14, 39, 84
16, 407871, Note_on_c, 14, 39, 0
16, 407880, Note_on_c, 14, 39, 84
16, 407984, Note_on_c, 14, 39, 0
16, 408000, Note_on_c, 14, 39, 84
16, 408239, Note_on_c, 14, 39, 0
16, 408540, Note_on_c, 14, 39, 84
16, 408591, Note_on_c, 14, 39, 0
16, 408600, Note_on_c, 14, 39, 84
16, 408704, Note_on_c, 14, 39, 0
16, 408720, Note_on_c, 14, 38, 84
16, 408959, Note_on_c, 14, 38, 0
16, 409260, Note_on_c, 14, 38, 84
16, 409311, Note_on_c, 14, 38, 0
16, 409320, Note_on_c, 14, 38, 84
16, 409424, Note_on_c, 14, 38, 0
16, 409440, Note_on_c, 14, 38, 84
16, 409679, Note_on_c, 14, 38, 0
16, 409980, Note_on_c, 14, 38, 84
16, 410031, Note_on_c, 14, 38, 0
16, 410040, Note_on_c, 14, 38, 84
16, 410144, Note_on_c, 14, 38, 0
16, 410160, Note_on_c, 14, 37, 84
16, 410399, Note_on_c, 14, 37, 0
16, 410700, Note_on_c, 14, 38, 84
16, 410751, Note_on_c, 14, 38, 0
16, 410760, Note_on_c, 14, 38, 84
16, 410864, Note_on_c, 14, 38, 0
16, 410880, Note_on_c, 14, 40, 84
16, 411119, Note_on_c, 14, 40, 0
16, 411420, Note_on_c, 14, 41, 84
16, 411471, Note_on_c, 14, 41, 0
16, 411480, Note_on_c, 14, 41, 84
16, 411584, Note_on_c, 14, 41, 0
16, 411600, Note_on_c, 14, 42, 84
16, 411719, Note_on_c, 14, 42, 0
16, 411780, Note_on_c, 14, 38, 84
16, 411831, Note_on_c, 14, 38, 0
16, 411840, Note_on_c, 14, 38, 84
16, 411944, Note_on_c, 14, 38, 0
16, 411960, Note_on_c, 14, 38, 84
16, 412079, Note_on_c, 14, 38, 0
16, 412140, Note_on_c, 14, 40, 84
16, 412191, Note_on_c, 14, 40, 0
16, 412200, Note_on_c, 14, 40, 84
16, 412304, Note_on_c, 14, 40, 0
16, 412320, Note_on_c, 14, 40, 84
16, 412439, Note_on_c, 14, 40, 0
16, 412500, Note_on_c, 14, 41, 84
16, 412551, Note_on_c, 14, 41, 0
16, 412560, Note_on_c, 14, 41, 84
16, 412664, Note_on_c, 14, 41, 0
16, 412680, Note_on_c, 14, 41, 84
16, 412799, Note_on_c, 14, 41, 0
16, 412860, Note_on_c, 14, 42, 84
16, 412911, Note_on_c, 14, 42, 0
16, 412920, Note_on_c, 14, 42, 84
16, 413024, Note_on_c, 14, 42, 0
16, 413040, Note_on_c, 14, 42, 84
16, 413159, Note_on_c, 14, 42, 0
16, 413220, Note_on_c, 14, 38, 84
16, 413271, Note_on_c, 14, 38, 0
16, 413280, Note_on_c, 14, 38, 84
16, 413384, Note_on_c, 14, 38, 0
16, 413400, Note_on_c, 14, 38, 84
16, 413519, Note_on_c, 14, 38, 0
16, 413580, Note_on_c, 14, 40, 84
16, 413631, Note_on_c, 14, 40, 0
16, 413640, Note_on_c, 14, 40, 84
16, 413744, Note_on_c, 14, 40, 0
16, 413760, Note_on_c, 14, 40, 84
16, 413879, Note_on_c, 14, 40, 0
16, 413940, Note_on_c, 14, 52, 84
16, 413991, Note_on_c, 14, 52, 0
16, 414000, Note_on_c, 14, 52, 84
16, 414104, Note_on_c, 14, 52, 0
16, 414120, Note_on_c, 14, 52, 84
16, 414239, Note_on_c, 14, 52, 0
16, 414300, Note_on_c, 14, 45, 84
16, 414351, Note_on_c, 14, 45, 0
16, 414360, Note_on_c, 14, 45, 84
16, 414464, Note_on_c, 14, 45, 0
16, 414480, Note_on_c, 14, 45, 84
16, 414719, Note_on_c, 14, 45, 0
16, 415200, Note_on_c, 14, 52, 84
16, 415319, Note_on_c, 14, 52, 0
16, 415380, Note_on_c, 14, 52, 84
16, 415431, Note_on_c, 14, 52, 0
16, 415440, Note_on_c, 14, 52, 84
16, 415544, Note_on_c, 14, 52, 0
16, 415560, Note_on_c, 14, 52, 84
16, 415679, Note_on_c, 14, 52, 0
16, 415740, Note_on_c, 14, 52, 84
16, 415791, Note_on_c, 14, 52, 0
16, 415800, Note_on_c, 14, 52, 84
16, 415904, Note_on_c, 14, 52, 0
16, 415920, Note_on_c, 14, 45, 84
16, 416159, Note_on_c, 14, 45, 0
16, 416640, Note_on_c, 14, 52, 84
16, 416759, Note_on_c, 14, 52, 0
16, 416820, Note_on_c, 14, 52, 84
16, 416871, Note_on_c, 14, 52, 0
16, 416880, Note_on_c, 14, 52, 84
16, 416984, Note_on_c, 14, 52, 0
16, 417000, Note_on_c, 14, 52, 84
16, 417119, Note_on_c, 14, 52, 0
16, 417180, Note_on_c, 14, 52, 84
16, 417231, Note_on_c, 14, 52, 0
16, 417240, Note_on_c, 14, 52, 84
16, 417344, Note_on_c, 14, 52, 0
16, 417360, Note_on_c, 14, 45, 84
16, 417479, Note_on_c, 14, 45, 0
16, 417540, Note_on_c, 14, 57, 84
16, 417591, Note_on_c, 14, 57, 0
16, 417600, Note_on_c, 14, 57, 84
16, 417704, Note_on_c, 14, 57, 0
16, 417720, Note_on_c, 14, 57, 84
16, 417839, Note_on_c, 14, 57, 0
16, 417900, Note_on_c, 14, 57, 84
16, 417951, Note_on_c, 14, 57, 0
16, 417960, Note_on_c, 14, 57, 84
16, 418064, Note_on_c, 14, 57, 0
16, 418080, Note_on_c, 14, 57, 84
16, 418199, Note_on_c, 14, 57, 0
16, 418260, Note_on_c, 14, 45, 84
16, 418311, Note_on_c, 14, 45, 0
16, 418320, Note_on_c, 14, 45, 84
16, 418424, Note_on_c, 14, 45, 0
16, 418440, Note_on_c, 14, 45, 84
16, 418559, Note_on_c, 14, 45, 0
16, 418620, Note_on_c, 14, 45, 84
16, 418671, Note_on_c, 14, 45, 0
16, 418680, Note_on_c, 14, 45, 84
16, 418784, Note_on_c, 14, 45, 0
16, 418800, Note_on_c, 14, 45, 84
16, 419039, Note_on_c, 14, 45, 0
16, 419520, Note_on_c, 14, 52, 84
16, 419759, Note_on_c, 14, 52, 0
16, 420240, Note_on_c, 14, 45, 84
16, 420479, Note_on_c, 14, 45, 0
16, 420479, End_track
17, 0, Start_track
17, 0, Title_t, "Contrabass"
17, 0, MIDI_port, 0
17, 0, Control_c, 15, 7, 96
17, 0, Control_c, 15, 10, 100
17, 0, Program_c, 15, 48
17, 0, Control_c, 15, 11, 127
17, 0, Note_on_c, 15, 33, 76
17, 179, Note_on_c, 15, 33, 0
17, 1920, Note_on_c, 15, 32, 76
17, 2099, Note_on_c, 15, 32, 0
17, 3840, Note_on_c, 15, 31, 76
17, 4019, Note_on_c, 15, 31, 0
17, 5760, Note_on_c, 15, 30, 76
17, 5939, Note_on_c, 15, 30, 0
17, 6240, Note_on_c, 15, 42, 52
17, 6479, Note_on_c, 15, 42, 0
17, 6720, Note_on_c, 15, 41, 52
17, 6959, Note_on_c, 15, 41, 0
17, 7200, Note_on_c, 15, 40, 52
17, 7439, Note_on_c, 15, 40, 0
17, 7680, Control_c, 15, 11, 127
17, 7680, Note_on_c, 15, 41, 52
17, 7744, Control_c, 15, 11, 126
17, 7808, Control_c, 15, 11, 125
17, 7872, Control_c, 15, 11, 124
17, 7919, Note_on_c, 15, 41, 0
17, 7936, Control_c, 15, 11, 123
17, 8000, Control_c, 15, 11, 122
17, 8064, Control_c, 15, 11, 121
17, 8128, Control_c, 15, 11, 120
17, 8192, Control_c, 15, 11, 119
17, 8256, Control_c, 15, 11, 118
17, 8320, Control_c, 15, 11, 117
17, 8384, Control_c, 15, 11, 116
17, 8400, Note_on_c, 15, 41, 52
17, 8448, Control_c, 15, 11, 115
17, 8453, Note_on_c, 15, 41, 0
17, 8460, Note_on_c, 15, 41, 52
17, 8512, Control_c, 15, 11, 114
17, 8513, Note_on_c, 15, 41, 0
17, 8520, Note_on_c, 15, 41, 52
17, 8573, Note_on_c, 15, 41, 0
17, 8576, Control_c, 15, 11, 113
17, 8580, Note_on_c, 15, 41, 52
17, 8633, Note_on_c, 15, 41, 0
17, 8638, Control_c, 15, 11, 112
17, 8640, Note_on_c, 15, 40, 52
17, 8693, Note_on_c, 15, 40, 0
17, 8700, Note_on_c, 15, 40, 52
17, 8753, Note_on_c, 15, 40, 0
17, 8760, Note_on_c, 15, 40, 52
17, 8813, Note_on_c, 15, 40, 0
17, 8820, Note_on_c, 15, 40, 52
17, 8873, Note_on_c, 15, 40, 0
17, 8880, Note_on_c, 15, 40, 52
17, 8933, Note_on_c, 15, 40, 0
17, 8940, Note_on_c, 15, 40, 52
17, 8993, Note_on_c, 15, 40, 0
17, 9000, Note_on_c, 15, 40, 52
17, 9053, Note_on_c, 15, 40, 0
17, 9060, Note_on_c, 15, 40, 52
17, 9113, Note_on_c, 15, 40, 0
17, 9120, Note_on_c, 15, 40, 52
17, 9173, Note_on_c, 15, 40, 0
17, 9180, Note_on_c, 15, 40, 52
17, 9233, Note_on_c, 15, 40, 0
17, 9240, Note_on_c, 15, 40, 52
17, 9293, Note_on_c, 15, 40, 0
17, 9300, Note_on_c, 15, 40, 52
17, 9353, Note_on_c, 15, 40, 0
17, 9360, Note_on_c, 15, 40, 52
17, 9413, Note_on_c, 15, 40, 0
17, 9420, Note_on_c, 15, 40, 52
17, 9473, Note_on_c, 15, 40, 0
17, 9480, Note_on_c, 15, 40, 52
17, 9533, Note_on_c, 15, 40, 0
17, 9540, Note_on_c, 15, 40, 52
17, 9593, Note_on_c, 15, 40, 0
17, 9600, Note_on_c, 15, 40, 52
17, 9839, Note_on_c, 15, 40, 0
17, 10320, Control_c, 15, 11, 127
17, 10560, Note_on_c, 15, 40, 44
17, 10613, Note_on_c, 15, 40, 0
17, 10620, Note_on_c, 15, 40, 44
17, 10673, Note_on_c, 15, 40, 0
17, 10680, Note_on_c, 15, 40, 44
17, 10733, Note_on_c, 15, 40, 0
17, 10740, Note_on_c, 15, 40, 44
17, 10793, Note_on_c, 15, 40, 0
17, 10800, Note_on_c, 15, 40, 44
17, 10853, Note_on_c, 15, 40, 0
17, 10860, Note_on_c, 15, 40, 44
17, 10913, Note_on_c, 15, 40, 0
17, 10920, Note_on_c, 15, 40, 44
17, 10973, Note_on_c, 15, 40, 0
17, 10980, Note_on_c, 15, 40, 44
17, 11033, Note_on_c, 15, 40, 0
17, 11040, Note_on_c, 15, 40, 44
17, 11093, Note_on_c, 15, 40, 0
17, 11100, Note_on_c, 15, 40, 44
17, 11153, Note_on_c, 15, 40, 0
17, 11160, Note_on_c, 15, 40, 44
17, 11213, Note_on_c, 15, 40, 0
17, 11220, Note_on_c, 15, 40, 44
17, 11273, Note_on_c, 15, 40, 0
17, 11280, Note_on_c, 15, 40, 44
17, 11333, Note_on_c, 15, 40, 0
17, 11340, Note_on_c, 15, 40, 44
17, 11393, Note_on_c, 15, 40, 0
17, 11400, Note_on_c, 15, 40, 44
17, 11453, Note_on_c, 15, 40, 0
17, 11460, Note_on_c, 15, 40, 44
17, 11513, Note_on_c, 15, 40, 0
17, 11520, Note_on_c, 15, 40, 44
17, 11759, Note_on_c, 15, 40, 0
17, 12480, Note_on_c, 15, 40, 44
17, 12533, Note_on_c, 15, 40, 0
17, 12540, Note_on_c, 15, 40, 46
17, 12593, Note_on_c, 15, 40, 0
17, 12600, Note_on_c, 15, 40, 49
17, 12653, Note_on_c, 15, 40, 0
17, 12660, Note_on_c, 15, 40, 51
17, 12713, Note_on_c, 15, 40, 0
17, 12720, Note_on_c, 15, 40, 54
17, 12773, Note_on_c, 15, 40, 0
17, 12780, Note_on_c, 15, 40, 56
17, 12833, Note_on_c, 15, 40, 0
17, 12840, Note_on_c, 15, 40, 59
17, 12893, Note_on_c, 15, 40, 0
17, 12900, Note_on_c, 15, 40, 61
17, 12953, Note_on_c, 15, 40, 0
17, 12960, Note_on_c, 15, 40, 64
17, 13013, Note_on_c, 15, 40, 0
17, 13020, Note_on_c, 15, 40, 66
17, 13073, Note_on_c, 15, 40, 0
17, 13080, Note_on_c, 15, 40, 69
17, 13133, Note_on_c, 15, 40, 0
17, 13140, Note_on_c, 15, 40, 71
17, 13193, Note_on_c, 15, 40, 0
17, 13200, Note_on_c, 15, 40, 74
17, 13253, Note_on_c, 15, 40, 0
17, 13260, Note_on_c, 15, 40, 76
17, 13313, Note_on_c, 15, 40, 0
17, 13320, Note_on_c, 15, 40, 79
17, 13373, Note_on_c, 15, 40, 0
17, 13380, Note_on_c, 15, 40, 81
17, 13433, Note_on_c, 15, 40, 0
17, 13440, Note_on_c, 15, 33, 84
17, 13493, Note_on_c, 15, 33, 0
17, 13500, Note_on_c, 15, 33, 84
17, 13553, Note_on_c, 15, 33, 0
17, 13560, Note_on_c, 15, 35, 84
17, 13613, Note_on_c, 15, 35, 0
17, 13620, Note_on_c, 15, 37, 84
17, 13673, Note_on_c, 15, 37, 0
17, 13680, Note_on_c, 15, 38, 84
17, 13733, Note_on_c, 15, 38, 0
17, 13740, Note_on_c, 15, 40, 84
17, 13793, Note_on_c, 15, 40, 0
17, 13800, Note_on_c, 15, 42, 84
17, 13853, Note_on_c, 15, 42, 0
17, 13860, Note_on_c, 15, 44, 84
17, 13913, Note_on_c, 15, 44, 0
17, 13920, Note_on_c, 15, 45, 84
17, 13973, Note_on_c, 15, 45, 0
17, 13980, Note_on_c, 15, 47, 84
17, 14033, Note_on_c, 15, 47, 0
17, 14040, Note_on_c, 15, 49, 84
17, 14093, Note_on_c, 15, 49, 0
17, 14100, Note_on_c, 15, 50, 84
17, 14153, Note_on_c, 15, 50, 0
17, 14160, Note_on_c, 15, 52, 84
17, 14213, Note_on_c, 15, 52, 0
17, 14220, Note_on_c, 15, 54, 84
17, 14273, Note_on_c, 15, 54, 0
17, 14280, Note_on_c, 15, 56, 84
17, 14333, Note_on_c, 15, 56, 0
17, 14340, Note_on_c, 15, 57, 84
17, 14393, Note_on_c, 15, 57, 0
17, 14400, Note_on_c, 15, 33, 84
17, 14639, Note_on_c, 15, 33, 0
17, 15360, Note_on_c, 15, 32, 84
17, 15413, Note_on_c, 15, 32, 0
17, 15420, Note_on_c, 15, 32, 84
17, 15473, Note_on_c, 15, 32, 0
17, 15480, Note_on_c, 15, 33, 84
17, 15533, Note_on_c, 15, 33, 0
17, 15540, Note_on_c, 15, 35, 84
17, 15593, Note_on_c, 15, 35, 0
17, 15600, Note_on_c, 15, 37, 84
17, 15653, Note_on_c, 15, 37, 0
17, 15660, Note_on_c, 15, 38, 84
17, 15713, Note_on_c, 15, 38, 0
17, 15720, Note_on_c, 15, 40, 84
17, 15773, Note_on_c, 15, 40, 0
17, 15780, Note_on_c, 15, 42, 84
17, 15833, Note_on_c, 15, 42, 0
17, 15840, Note_on_c, 15, 44, 84
17, 15893, Note_on_c, 15, 44, 0
17, 15900, Note_on_c, 15, 45, 84
17, 15953, Note_on_c, 15, 45, 0
17, 15960, Note_on_c, 15, 47, 84
17, 16013, Note_on_c, 15, 47, 0
17, 16020, Note_on_c, 15, 49, 84
17, 16073, Note_on_c, 15, 49, 0
17, 16080, Note_on_c, 15, 50, 84
17, 16133, Note_on_c, 15, 50, 0
17, 16140, Note_on_c, 15, 52, 84
17, 16193, Note_on_c, 15, 52, 0
17, 16200, Note_on_c, 15, 54, 84
17, 16253, Note_on_c, 15, 54, 0
17, 16260, Note_on_c, 15, 56, 84
17, 16313, Note_on_c, 15, 56, 0
17, 16320, Note_on_c, 15, 31, 84
17, 16559, Note_on_c, 15, 31, 0
17, 17280, Note_on_c, 15, 30, 84
17, 17333, Note_on_c, 15, 30, 0
17, 17340, Note_on_c, 15, 30, 84
17, 17393, Note_on_c, 15, 30, 0
17, 17400, Note_on_c, 15, 31, 84
17, 17453, Note_on_c, 15, 31, 0
17, 17460, Note_on_c, 15, 33, 84
17, 17513, Note_on_c, 15, 33, 0
17, 17520, Note_on_c, 15, 35, 84
17, 17573, Note_on_c, 15, 35, 0
17, 17580, Note_on_c, 15, 37, 84
17, 17633, Note_on_c, 15, 37, 0
17, 17640, Note_on_c, 15, 38, 84
17, 17693, Note_on_c, 15, 38, 0
17, 17700, Note_on_c, 15, 40, 84
17, 17753, Note_on_c, 15, 40, 0
17, 17760, Note_on_c, 15, 42, 84
17, 17813, Note_on_c, 15, 42, 0
17, 17820, Note_on_c, 15, 43, 84
17, 17873, Note_on_c, 15, 43, 0
17, 17880, Note_on_c, 15, 45, 84
17, 17933, Note_on_c, 15, 45, 0
17, 17940, Note_on_c, 15, 47, 84
17, 17993, Note_on_c, 15, 47, 0
17, 18000, Note_on_c, 15, 49, 84
17, 18053, Note_on_c, 15, 49, 0
17, 18060, Note_on_c, 15, 50, 84
17, 18113, Note_on_c, 15, 50, 0
17, 18120, Note_on_c, 15, 52, 84
17, 18173, Note_on_c, 15, 52, 0
17, 18180, Note_on_c, 15, 54, 84
17, 18233, Note_on_c, 15, 54, 0
17, 18240, Note_on_c, 15, 29, 84
17, 18479, Note_on_c, 15, 29, 0
17, 19200, Note_on_c, 15, 29, 84
17, 19253, Note_on_c, 15, 29, 0
17, 19260, Note_on_c, 15, 29, 84
17, 19313, Note_on_c, 15, 29, 0
17, 19320, Note_on_c, 15, 31, 84
17, 19373, Note_on_c, 15, 31, 0
17, 19380, Note_on_c, 15, 33, 84
17, 19433, Note_on_c, 15, 33, 0
17, 19440, Note_on_c, 15, 35, 84
17, 19493, Note_on_c, 15, 35, 0
17, 19500, Note_on_c, 15, 36, 84
17, 19553, Note_on_c, 15, 36, 0
17, 19560, Note_on_c, 15, 38, 84
17, 19613, Note_on_c, 15, 38, 0
17, 19620, Note_on_c, 15, 40, 84
17, 19673, Note_on_c, 15, 40, 0
17, 19680, Note_on_c, 15, 41, 84
17, 19733, Note_on_c, 15, 41, 0
17, 19740, Note_on_c, 15, 43, 84
17, 19793, Note_on_c, 15, 43, 0
17, 19800, Note_on_c, 15, 45, 84
17, 19853, Note_on_c, 15, 45, 0
17, 19860, Note_on_c, 15, 47, 84
17, 19913, Note_on_c, 15, 47, 0
17, 19920, Note_on_c, 15, 48, 84
17, 19973, Note_on_c, 15, 48, 0
17, 19980, Note_on_c, 15, 50, 84
17, 20033, Note_on_c, 15, 50, 0
17, 20040, Note_on_c, 15, 52, 84
17, 20093, Note_on_c, 15, 52, 0
17, 20100, Note_on_c, 15, 53, 84
17, 20153, Note_on_c, 15, 53, 0
17, 20160, Note_on_c, 15, 28, 84
17, 20160, Control_c, 15, 11, 127
17, 20200, Control_c, 15, 11, 124
17, 20240, Control_c, 15, 11, 122
17, 20280, Control_c, 15, 11, 119
17, 20320, Control_c, 15, 11, 117
17, 20360, Control_c, 15, 11, 114
17, 20399, Note_on_c, 15, 28, 0
17, 20400, Control_c, 15, 11, 111
17, 20440, Control_c, 15, 11, 109
17, 20480, Control_c, 15, 11, 106
17, 20520, Control_c, 15, 11, 103
17, 20560, Control_c, 15, 11, 101
17, 20600, Control_c, 15, 11, 98
17, 20640, Control_c, 15, 11, 96
17, 20640, Note_on_c, 15, 36, 84
17, 20680, Control_c, 15, 11, 93
17, 20693, Note_on_c, 15, 36, 0
17, 20700, Note_on_c, 15, 36, 84
17, 20720, Control_c, 15, 11, 90
17, 20753, Note_on_c, 15, 36, 0
17, 20760, Control_c, 15, 11, 88
17, 20760, Note_on_c, 15, 36, 84
17, 20800, Control_c, 15, 11, 85
17, 20813, Note_on_c, 15, 36, 0
17, 20820, Note_on_c, 15, 36, 84
17, 20840, Control_c, 15, 11, 82
17, 20873, Note_on_c, 15, 36, 0
17, 20880, Control_c, 15, 11, 80
17, 20880, Note_on_c, 15, 40, 84
17, 20920, Control_c, 15, 11, 77
17, 20933, Note_on_c, 15, 40, 0
17, 20940, Note_on_c, 15, 40, 84
17, 20960, Control_c, 15, 11, 75
17, 20993, Note_on_c, 15, 40, 0
17, 21000, Note_on_c, 15, 40, 84
17, 21000, Control_c, 15, 11, 72
17, 21040, Control_c, 15, 11, 69
17, 21053, Note_on_c, 15, 40, 0
17, 21060, Note_on_c, 15, 40, 84
17, 21080, Control_c, 15, 11, 67
17, 21113, Note_on_c, 15, 40, 0
17, 21118, Control_c, 15, 11, 64
17, 21120, Note_on_c, 15, 43, 84
17, 21359, Note_on_c, 15, 43, 0
17, 26640, Control_c, 15, 11, 127
17, 26880, Note_on_c, 15, 35, 44
17, 26933, Note_on_c, 15, 35, 0
17, 26940, Note_on_c, 15, 35, 44
17, 26993, Note_on_c, 15, 35, 0
17, 27000, Note_on_c, 15, 35, 44
17, 27053, Note_on_c, 15, 35, 0
17, 27060, Note_on_c, 15, 35, 44
17, 27113, Note_on_c, 15, 35, 0
17, 27120, Note_on_c, 15, 35, 44
17, 27173, Note_on_c, 15, 35, 0
17, 27180, Note_on_c, 15, 35, 44
17, 27233, Note_on_c, 15, 35, 0
17, 27240, Note_on_c, 15, 35, 44
17, 27293, Note_on_c, 15, 35, 0
17, 27300, Note_on_c, 15, 35, 44
17, 27353, Note_on_c, 15, 35, 0
17, 27360, Note_on_c, 15, 35, 44
17, 27479, Note_on_c, 15, 35, 0
17, 27840, Note_on_c, 15, 36, 44
17, 27893, Note_on_c, 15, 36, 0
17, 27900, Note_on_c, 15, 36, 44
17, 27953, Note_on_c, 15, 36, 0
17, 27960, Note_on_c, 15, 36, 44
17, 28013, Note_on_c, 15, 36, 0
17, 28020, Note_on_c, 15, 36, 44
17, 28073, Note_on_c, 15, 36, 0
17, 28080, Note_on_c, 15, 36, 44
17, 28133, Note_on_c, 15, 36, 0
17, 28140, Note_on_c, 15, 36, 44
17, 28193, Note_on_c, 15, 36, 0
17, 28200, Note_on_c, 15, 36, 44
17, 28253, Note_on_c, 15, 36, 0
17, 28260, Note_on_c, 15, 36, 44
17, 28313, Note_on_c, 15, 36, 0
17, 28320, Note_on_c, 15, 36, 44
17, 28439, Note_on_c, 15, 36, 0
17, 28800, Note_on_c, 15, 35, 44
17, 28853, Note_on_c, 15, 35, 0
17, 28860, Note_on_c, 15, 35, 44
17, 28913, Note_on_c, 15, 35, 0
17, 28920, Note_on_c, 15, 35, 44
17, 28973, Note_on_c, 15, 35, 0
17, 28980, Note_on_c, 15, 35, 44
17, 29033, Note_on_c, 15, 35, 0
17, 29040, Note_on_c, 15, 35, 44
17, 29093, Note_on_c, 15, 35, 0
17, 29100, Note_on_c, 15, 35, 44
17, 29153, Note_on_c, 15, 35, 0
17, 29160, Note_on_c, 15, 35, 44
17, 29213, Note_on_c, 15, 35, 0
17, 29220, Note_on_c, 15, 35, 44
17, 29273, Note_on_c, 15, 35, 0
17, 29280, Note_on_c, 15, 35, 44
17, 29399, Note_on_c, 15, 35, 0
17, 29760, Note_on_c, 15, 36, 44
17, 29813, Note_on_c, 15, 36, 0
17, 29820, Note_on_c, 15, 36, 44
17, 29873, Note_on_c, 15, 36, 0
17, 29880, Note_on_c, 15, 36, 44
17, 29933, Note_on_c, 15, 36, 0
17, 29940, Note_on_c, 15, 36, 44
17, 29993, Note_on_c, 15, 36, 0
17, 30000, Note_on_c, 15, 36, 44
17, 30053, Note_on_c, 15, 36, 0
17, 30060, Note_on_c, 15, 36, 44
17, 30113, Note_on_c, 15, 36, 0
17, 30120, Note_on_c, 15, 36, 44
17, 30173, Note_on_c, 15, 36, 0
17, 30180, Note_on_c, 15, 36, 44
17, 30233, Note_on_c, 15, 36, 0
17, 30240, Note_on_c, 15, 40, 44
17, 30359, Note_on_c, 15, 40, 0
17, 30720, Note_on_c, 15, 29, 57
17, 30773, Note_on_c, 15, 29, 0
17, 30780, Note_on_c, 15, 29, 59
17, 30833, Note_on_c, 15, 29, 0
17, 30840, Note_on_c, 15, 29, 60
17, 30893, Note_on_c, 15, 29, 0
17, 30900, Note_on_c, 15, 29, 62
17, 30953, Note_on_c, 15, 29, 0
17, 30960, Note_on_c, 15, 30, 64
17, 31079, Note_on_c, 15, 30, 0
17, 31200, Note_on_c, 15, 30, 70
17, 31253, Note_on_c, 15, 30, 0
17, 31260, Note_on_c, 15, 30, 72
17, 31313, Note_on_c, 15, 30, 0
17, 31320, Note_on_c, 15, 30, 74
17, 31373, Note_on_c, 15, 30, 0
17, 31380, Note_on_c, 15, 30, 75
17, 31433, Note_on_c, 15, 30, 0
17, 31440, Note_on_c, 15, 31, 77
17, 31559, Note_on_c, 15, 31, 0
17, 31680, Note_on_c, 15, 32, 84
17, 31733, Note_on_c, 15, 32, 0
17, 31740, Note_on_c, 15, 32, 84
17, 31793, Note_on_c, 15, 32, 0
17, 31800, Note_on_c, 15, 33, 84
17, 31853, Note_on_c, 15, 33, 0
17, 31860, Note_on_c, 15, 35, 84
17, 31913, Note_on_c, 15, 35, 0
17, 31920, Note_on_c, 15, 37, 84
17, 31973, Note_on_c, 15, 37, 0
17, 31980, Note_on_c, 15, 38, 84
17, 32033, Note_on_c, 15, 38, 0
17, 32040, Note_on_c, 15, 40, 84
17, 32093, Note_on_c, 15, 40, 0
17, 32100, Note_on_c, 15, 42, 84
17, 32153, Note_on_c, 15, 42, 0
17, 32160, Note_on_c, 15, 44, 84
17, 32213, Note_on_c, 15, 44, 0
17, 32220, Note_on_c, 15, 45, 84
17, 32273, Note_on_c, 15, 45, 0
17, 32280, Note_on_c, 15, 47, 84
17, 32333, Note_on_c, 15, 47, 0
17, 32340, Note_on_c, 15, 49, 84
17, 32393, Note_on_c, 15, 49, 0
17, 32400, Note_on_c, 15, 50, 84
17, 32453, Note_on_c, 15, 50, 0
17, 32460, Note_on_c, 15, 52, 84
17, 32513, Note_on_c, 15, 52, 0
17, 32520, Note_on_c, 15, 54, 84
17, 32573, Note_on_c, 15, 54, 0
17, 32580, Note_on_c, 15, 56, 84
17, 32633, Note_on_c, 15, 56, 0
17, 32640, Note_on_c, 15, 32, 84
17, 32879, Note_on_c, 15, 32, 0
17, 33600, Note_on_c, 15, 34, 84
17, 33653, Note_on_c, 15, 34, 0
17, 33660, Note_on_c, 15, 34, 84
17, 33713, Note_on_c, 15, 34, 0
17, 33720, Note_on_c, 15, 35, 84
17, 33773, Note_on_c, 15, 35, 0
17, 33780, Note_on_c, 15, 37, 84
17, 33833, Note_on_c, 15, 37, 0
17, 33840, Note_on_c, 15, 38, 84
17, 33893, Note_on_c, 15, 38, 0
17, 33900, Note_on_c, 15, 40, 84
17, 33953, Note_on_c, 15, 40, 0
17, 33960, Note_on_c, 15, 42, 84
17, 34013, Note_on_c, 15, 42, 0
17, 34020, Note_on_c, 15, 44, 84
17, 34073, Note_on_c, 15, 44, 0
17, 34080, Note_on_c, 15, 46, 84
17, 34133, Note_on_c, 15, 46, 0
17, 34140, Note_on_c, 15, 47, 84
17, 34193, Note_on_c, 15, 47, 0
17, 34200, Note_on_c, 15, 49, 84
17, 34253, Note_on_c, 15, 49, 0
17, 34260, Note_on_c, 15, 50, 84
17, 34313, Note_on_c, 15, 50, 0
17, 34320, Note_on_c, 15, 52, 84
17, 34373, Note_on_c, 15, 52, 0
17, 34380, Note_on_c, 15, 40, 84
17, 34433, Note_on_c, 15, 40, 0
17, 34440, Note_on_c, 15, 42, 84
17, 34493, Note_on_c, 15, 42, 0
17, 34500, Note_on_c, 15, 44, 84
17, 34553, Note_on_c, 15, 44, 0
17, 34560, Note_on_c, 15, 46, 84
17, 34799, Note_on_c, 15, 46, 0
17, 35520, Note_on_c, 15, 35, 84
17, 35573, Note_on_c, 15, 35, 0
17, 35580, Note_on_c, 15, 35, 84
17, 35633, Note_on_c, 15, 35, 0
17, 35640, Note_on_c, 15, 37, 84
17, 35693, Note_on_c, 15, 37, 0
17, 35700, Note_on_c, 15, 39, 84
17, 35753, Note_on_c, 15, 39, 0
17, 35760, Note_on_c, 15, 40, 84
17, 35813, Note_on_c, 15, 40, 0
17, 35820, Note_on_c, 15, 42, 84
17, 35873, Note_on_c, 15, 42, 0
17, 35880, Note_on_c, 15, 43, 84
17, 35933, Note_on_c, 15, 43, 0
17, 35940, Note_on_c, 15, 45, 84
17, 35993, Note_on_c, 15, 45, 0
17, 36000, Note_on_c, 15, 47, 84
17, 36053, Note_on_c, 15, 47, 0
17, 36060, Note_on_c, 15, 47, 84
17, 36113, Note_on_c, 15, 47, 0
17, 36120, Note_on_c, 15, 49, 84
17, 36173, Note_on_c, 15, 49, 0
17, 36180, Note_on_c, 15, 51, 84
17, 36233, Note_on_c, 15, 51, 0
17, 36240, Note_on_c, 15, 52, 84
17, 36293, Note_on_c, 15, 52, 0
17, 36300, Note_on_c, 15, 42, 84
17, 36353, Note_on_c, 15, 42, 0
17, 36360, Note_on_c, 15, 43, 84
17, 36413, Note_on_c, 15, 43, 0
17, 36420, Note_on_c, 15, 45, 84
17, 36473, Note_on_c, 15, 45, 0
17, 36480, Note_on_c, 15, 47, 84
17, 36719, Note_on_c, 15, 47, 0
17, 37440, Note_on_c, 15, 24, 84
17, 37493, Note_on_c, 15, 24, 0
17, 37500, Note_on_c, 15, 24, 84
17, 37553, Note_on_c, 15, 24, 0
17, 37560, Note_on_c, 15, 26, 84
17, 37613, Note_on_c, 15, 26, 0
17, 37620, Note_on_c, 15, 28, 84
17, 37673, Note_on_c, 15, 28, 0
17, 37680, Note_on_c, 15, 29, 84
17, 37733, Note_on_c, 15, 29, 0
17, 37740, Note_on_c, 15, 31, 84
17, 37793, Note_on_c, 15, 31, 0
17, 37800, Note_on_c, 15, 33, 84
17, 37853, Note_on_c, 15, 33, 0
17, 37860, Note_on_c, 15, 35, 84
17, 37913, Note_on_c, 15, 35, 0
17, 37920, Note_on_c, 15, 36, 84
17, 37973, Note_on_c, 15, 36, 0
17, 37980, Note_on_c, 15, 38, 84
17, 38033, Note_on_c, 15, 38, 0
17, 38040, Note_on_c, 15, 40, 84
17, 38093, Note_on_c, 15, 40, 0
17, 38100, Note_on_c, 15, 41, 84
17, 38153, Note_on_c, 15, 41, 0
17, 38160, Note_on_c, 15, 43, 84
17, 38213, Note_on_c, 15, 43, 0
17, 38220, Note_on_c, 15, 45, 84
17, 38273, Note_on_c, 15, 45, 0
17, 38280, Note_on_c, 15, 47, 84
17, 38333, Note_on_c, 15, 47, 0
17, 38340, Note_on_c, 15, 48, 84
17, 38393, Note_on_c, 15, 48, 0
17, 38400, Note_on_c, 15, 24, 84
17, 38400, Control_c, 15, 11, 127
17, 38440, Control_c, 15, 11, 124
17, 38480, Control_c, 15, 11, 122
17, 38520, Control_c, 15, 11, 119
17, 38560, Control_c, 15, 11, 117
17, 38600, Control_c, 15, 11, 114
17, 38639, Note_on_c, 15, 24, 0
17, 38640, Control_c, 15, 11, 111
17, 38680, Control_c, 15, 11, 109
17, 38720, Control_c, 15, 11, 106
17, 38760, Control_c, 15, 11, 103
17, 38800, Control_c, 15, 11, 101
17, 38840, Control_c, 15, 11, 98
17, 38880, Control_c, 15, 11, 96
17, 38880, Note_on_c, 15, 36, 84
17, 38920, Control_c, 15, 11, 93
17, 38933, Note_on_c, 15, 36, 0
17, 38940, Note_on_c, 15, 36, 84
17, 38960, Control_c, 15, 11, 90
17, 38993, Note_on_c, 15, 36, 0
17, 39000, Note_on_c, 15, 36, 84
17, 39000, Control_c, 15, 11, 88
17, 39040, Control_c, 15, 11, 85
17, 39053, Note_on_c, 15, 36, 0
17, 39060, Note_on_c, 15, 36, 84
17, 39080, Control_c, 15, 11, 82
17, 39113, Note_on_c, 15, 36, 0
17, 39120, Control_c, 15, 11, 80
17, 39120, Note_on_c, 15, 48, 84
17, 39160, Control_c, 15, 11, 77
17, 39173, Note_on_c, 15, 48, 0
17, 39180, Note_on_c, 15, 48, 84
17, 39200, Control_c, 15, 11, 75
17, 39233, Note_on_c, 15, 48, 0
17, 39240, Control_c, 15, 11, 72
17, 39240, Note_on_c, 15, 48, 84
17, 39280, Control_c, 15, 11, 69
17, 39293, Note_on_c, 15, 48, 0
17, 39300, Note_on_c, 15, 48, 84
17, 39320, Control_c, 15, 11, 67
17, 39353, Note_on_c, 15, 48, 0
17, 39358, Control_c, 15, 11, 64
17, 39360, Note_on_c, 15, 48, 84
17, 39599, Note_on_c, 15, 48, 0
17, 40080, Program_c, 15, 45
17, 40080, Control_c, 15, 11, 127
17, 40320, Note_on_c, 15, 41, 48
17, 40559, Note_on_c, 15, 41, 0
17, 40800, Note_on_c, 15, 45, 48
17, 41039, Note_on_c, 15, 45, 0
17, 41280, Note_on_c, 15, 48, 48
17, 41519, Note_on_c, 15, 48, 0
17, 42240, Note_on_c, 15, 41, 48
17, 42479, Note_on_c, 15, 41, 0
17, 42720, Note_on_c, 15, 45, 48
17, 42959, Note_on_c, 15, 45, 0
17, 43200, Note_on_c, 15, 34, 48
17, 43439, Note_on_c, 15, 34, 0
17, 43680, Note_on_c, 15, 46, 48
17, 43919, Note_on_c, 15, 46, 0
17, 44160, Note_on_c, 15, 36, 48
17, 44399, Note_on_c, 15, 36, 0
17, 44640, Note_on_c, 15, 36, 48
17, 44879, Note_on_c, 15, 36, 0
17, 44880, Program_c, 15, 48
17, 45120, Note_on_c, 15, 28, 44
17, 45173, Note_on_c, 15, 28, 0
17, 45180, Note_on_c, 15, 28, 44
17, 45233, Note_on_c, 15, 28, 0
17, 45240, Note_on_c, 15, 28, 44
17, 45293, Note_on_c, 15, 28, 0
17, 45300, Note_on_c, 15, 28, 44
17, 45353, Note_on_c, 15, 28, 0
17, 45360, Note_on_c, 15, 28, 44
17, 45413, Note_on_c, 15, 28, 0
17, 45420, Note_on_c, 15, 28, 44
17, 45473, Note_on_c, 15, 28, 0
17, 45480, Note_on_c, 15, 28, 44
17, 45533, Note_on_c, 15, 28, 0
17, 45540, Note_on_c, 15, 28, 44
17, 45593, Note_on_c, 15, 28, 0
17, 45600, Note_on_c, 15, 28, 44
17, 45719, Note_on_c, 15, 28, 0
17, 46080, Note_on_c, 15, 29, 44
17, 46133, Note_on_c, 15, 29, 0
17, 46140, Note_on_c, 15, 29, 44
17, 46193, Note_on_c, 15, 29, 0
17, 46200, Note_on_c, 15, 29, 45
17, 46253, Note_on_c, 15, 29, 0
17, 46260, Note_on_c, 15, 29, 45
17, 46313, Note_on_c, 15, 29, 0
17, 46320, Note_on_c, 15, 29, 46
17, 46373, Note_on_c, 15, 29, 0
17, 46380, Note_on_c, 15, 29, 47
17, 46433, Note_on_c, 15, 29, 0
17, 46440, Note_on_c, 15, 29, 47
17, 46493, Note_on_c, 15, 29, 0
17, 46500, Note_on_c, 15, 29, 48
17, 46553, Note_on_c, 15, 29, 0
17, 46560, Note_on_c, 15, 29, 49
17, 46679, Note_on_c, 15, 29, 0
17, 47040, Note_on_c, 15, 29, 54
17, 47093, Note_on_c, 15, 29, 0
17, 47100, Note_on_c, 15, 29, 54
17, 47153, Note_on_c, 15, 29, 0
17, 47160, Note_on_c, 15, 29, 55
17, 47213, Note_on_c, 15, 29, 0
17, 47220, Note_on_c, 15, 29, 55
17, 47273, Note_on_c, 15, 29, 0
17, 47280, Note_on_c, 15, 29, 56
17, 47333, Note_on_c, 15, 29, 0
17, 47340, Note_on_c, 15, 29, 57
17, 47393, Note_on_c, 15, 29, 0
17, 47400, Note_on_c, 15, 29, 57
17, 47453, Note_on_c, 15, 29, 0
17, 47460, Note_on_c, 15, 29, 58
17, 47513, Note_on_c, 15, 29, 0
17, 47520, Note_on_c, 15, 29, 59
17, 47639, Note_on_c, 15, 29, 0
17, 48000, Note_on_c, 15, 29, 64
17, 48053, Note_on_c, 15, 29, 0
17, 48060, Note_on_c, 15, 29, 64
17, 48113, Note_on_c, 15, 29, 0
17, 48120, Note_on_c, 15, 29, 65
17, 48173, Note_on_c, 15, 29, 0
17, 48180, Note_on_c, 15, 29, 65
17, 48233, Note_on_c, 15, 29, 0
17, 48240, Note_on_c, 15, 29, 66
17, 48359, Note_on_c, 15, 29, 0
17, 48480, Note_on_c, 15, 29, 69
17, 48533, Note_on_c, 15, 29, 0
17, 48540, Note_on_c, 15, 29, 69
17, 48593, Note_on_c, 15, 29, 0
17, 48600, Note_on_c, 15, 29, 70
17, 48653, Note_on_c, 15, 29, 0
17, 48660, Note_on_c, 15, 29, 70
17, 48713, Note_on_c, 15, 29, 0
17, 48720, Note_on_c, 15, 29, 71
17, 48839, Note_on_c, 15, 29, 0
17, 48960, Note_on_c, 15, 29, 74
17, 49013, Note_on_c, 15, 29, 0
17, 49020, Note_on_c, 15, 29, 74
17, 49073, Note_on_c, 15, 29, 0
17, 49080, Note_on_c, 15, 29, 75
17, 49133, Note_on_c, 15, 29, 0
17, 49140, Note_on_c, 15, 29, 75
17, 49193, Note_on_c, 15, 29, 0
17, 49200, Note_on_c, 15, 29, 76
17, 49319, Note_on_c, 15, 29, 0
17, 49440, Note_on_c, 15, 29, 79
17, 49493, Note_on_c, 15, 29, 0
17, 49500, Note_on_c, 15, 29, 79
17, 49553, Note_on_c, 15, 29, 0
17, 49560, Note_on_c, 15, 29, 80
17, 49613, Note_on_c, 15, 29, 0
17, 49620, Note_on_c, 15, 29, 80
17, 49673, Note_on_c, 15, 29, 0
17, 49680, Note_on_c, 15, 29, 81
17, 49799, Note_on_c, 15, 29, 0
17, 49920, Note_on_c, 15, 52, 84
17, 49973, Note_on_c, 15, 52, 0
17, 49980, Note_on_c, 15, 28, 52
17, 50033, Note_on_c, 15, 28, 0
17, 50040, Note_on_c, 15, 28, 52
17, 50093, Note_on_c, 15, 28, 0
17, 50100, Note_on_c, 15, 28, 52
17, 50153, Note_on_c, 15, 28, 0
17, 50160, Note_on_c, 15, 28, 52
17, 50213, Note_on_c, 15, 28, 0
17, 50220, Note_on_c, 15, 28, 52
17, 50273, Note_on_c, 15, 28, 0
17, 50280, Note_on_c, 15, 28, 52
17, 50333, Note_on_c, 15, 28, 0
17, 50340, Note_on_c, 15, 28, 52
17, 50393, Note_on_c, 15, 28, 0
17, 50400, Note_on_c, 15, 28, 52
17, 50519, Note_on_c, 15, 28, 0
17, 51840, Note_on_c, 15, 52, 76
17, 51893, Note_on_c, 15, 52, 0
17, 51900, Note_on_c, 15, 28, 52
17, 51953, Note_on_c, 15, 28, 0
17, 51960, Note_on_c, 15, 28, 52
17, 52013, Note_on_c, 15, 28, 0
17, 52020, Note_on_c, 15, 28, 52
17, 52073, Note_on_c, 15, 28, 0
17, 52080, Note_on_c, 15, 28, 52
17, 52133, Note_on_c, 15, 28, 0
17, 52140, Note_on_c, 15, 28, 52
17, 52193, Note_on_c, 15, 28, 0
17, 52200, Note_on_c, 15, 28, 52
17, 52253, Note_on_c, 15, 28, 0
17, 52260, Note_on_c, 15, 28, 52
17, 52313, Note_on_c, 15, 28, 0
17, 52320, Note_on_c, 15, 28, 52
17, 52439, Note_on_c, 15, 28, 0
17, 62340, Note_on_c, 15, 33, 52
17, 62391, Note_on_c, 15, 33, 0
17, 62400, Note_on_c, 15, 33, 52
17, 62639, Note_on_c, 15, 33, 0
17, 63780, Note_on_c, 15, 33, 52
17, 63831, Note_on_c, 15, 33, 0
17, 63840, Note_on_c, 15, 33, 52
17, 64079, Note_on_c, 15, 33, 0
17, 65220, Note_on_c, 15, 33, 52
17, 65271, Note_on_c, 15, 33, 0
17, 65280, Note_on_c, 15, 33, 52
17, 65519, Note_on_c, 15, 33, 0
17, 66660, Note_on_c, 15, 33, 52
17, 66711, Note_on_c, 15, 33, 0
17, 66720, Note_on_c, 15, 33, 52
17, 66839, Note_on_c, 15, 33, 0
17, 66960, Note_on_c, 15, 37, 52
17, 67064, Note_on_c, 15, 37, 0
17, 67080, Note_on_c, 15, 40, 52
17, 67199, Note_on_c, 15, 40, 0
17, 67320, Note_on_c, 15, 40, 52
17, 67424, Note_on_c, 15, 40, 0
17, 67440, Note_on_c, 15, 33, 52
17, 67679, Note_on_c, 15, 33, 0
17, 68820, Note_on_c, 15, 33, 52
17, 68871, Note_on_c, 15, 33, 0
17, 68880, Note_on_c, 15, 33, 52
17, 69119, Note_on_c, 15, 33, 0
17, 69480, Note_on_c, 15, 40, 52
17, 69584, Note_on_c, 15, 40, 0
17, 69600, Note_on_c, 15, 42, 68
17, 69719, Note_on_c, 15, 42, 0
17, 69720, Note_on_c, 15, 40, 52
17, 69824, Note_on_c, 15, 40, 0
17, 69840, Note_on_c, 15, 37, 52
17, 69929, Note_on_c, 15, 37, 0
17, 69960, Note_on_c, 15, 33, 52
17, 70199, Note_on_c, 15, 33, 0
17, 70980, Note_on_c, 15, 33, 52
17, 71031, Note_on_c, 15, 33, 0
17, 71040, Note_on_c, 15, 33, 52
17, 71279, Note_on_c, 15, 33, 0
17, 71640, Note_on_c, 15, 40, 52
17, 71744, Note_on_c, 15, 40, 0
17, 71760, Note_on_c, 15, 42, 68
17, 71879, Note_on_c, 15, 42, 0
17, 71880, Note_on_c, 15, 40, 52
17, 71984, Note_on_c, 15, 40, 0
17, 72000, Note_on_c, 15, 37, 52
17, 72089, Note_on_c, 15, 37, 0
17, 72120, Note_on_c, 15, 33, 52
17, 72359, Note_on_c, 15, 33, 0
17, 73140, Note_on_c, 15, 40, 52
17, 73191, Note_on_c, 15, 40, 0
17, 73200, Note_on_c, 15, 40, 76
17, 73240, Control_c, 15, 11, 123
17, 73280, Control_c, 15, 11, 119
17, 73320, Control_c, 15, 11, 115
17, 73360, Control_c, 15, 11, 111
17, 73400, Control_c, 15, 11, 107
17, 73440, Control_c, 15, 11, 104
17, 73480, Control_c, 15, 11, 100
17, 73520, Control_c, 15, 11, 96
17, 73560, Control_c, 15, 11, 92
17, 73600, Control_c, 15, 11, 88
17, 73640, Control_c, 15, 11, 84
17, 73680, Control_c, 15, 11, 80
17, 73799, Note_on_c, 15, 40, 0
17, 74280, Control_c, 15, 11, 127
17, 74580, Note_on_c, 15, 40, 52
17, 74631, Note_on_c, 15, 40, 0
17, 74640, Note_on_c, 15, 40, 76
17, 75171, Note_on_c, 15, 40, 0
17, 75180, Note_on_c, 15, 37, 76
17, 75224, Note_on_c, 15, 37, 0
17, 75240, Note_on_c, 15, 33, 76
17, 75329, Note_on_c, 15, 33, 0
17, 75360, Note_on_c, 15, 40, 84
17, 75419, Note_on_c, 15, 40, 0
17, 75420, Note_on_c, 15, 40, 76
17, 75891, Note_on_c, 15, 40, 0
17, 75900, Note_on_c, 15, 37, 76
17, 75944, Note_on_c, 15, 37, 0
17, 75960, Note_on_c, 15, 34, 76
17, 76049, Note_on_c, 15, 34, 0
17, 76080, Note_on_c, 15, 40, 84
17, 76139, Note_on_c, 15, 40, 0
17, 76140, Note_on_c, 15, 40, 76
17, 76199, Note_on_c, 15, 40, 0
17, 76260, Note_on_c, 15, 38, 76
17, 76304, Note_on_c, 15, 38, 0
17, 76320, Note_on_c, 15, 35, 76
17, 76409, Note_on_c, 15, 35, 0
17, 76440, Note_on_c, 15, 44, 84
17, 76499, Note_on_c, 15, 44, 0
17, 76500, Note_on_c, 15, 44, 76
17, 76559, Note_on_c, 15, 44, 0
17, 76620, Note_on_c, 15, 40, 76
17, 76664, Note_on_c, 15, 40, 0
17, 76680, Note_on_c, 15, 38, 76
17, 76769, Note_on_c, 15, 38, 0
17, 76800, Note_on_c, 15, 47, 84
17, 76859, Note_on_c, 15, 47, 0
17, 76860, Note_on_c, 15, 47, 76
17, 76919, Note_on_c, 15, 47, 0
17, 76980, Note_on_c, 15, 44, 76
17, 77024, Note_on_c, 15, 44, 0
17, 77040, Note_on_c, 15, 40, 76
17, 77129, Note_on_c, 15, 40, 0
17, 77160, Note_on_c, 15, 50, 84
17, 77219, Note_on_c, 15, 50, 0
17, 77220, Note_on_c, 15, 50, 76
17, 77279, Note_on_c, 15, 50, 0
17, 77340, Note_on_c, 15, 47, 76
17, 77384, Note_on_c, 15, 47, 0
17, 77400, Note_on_c, 15, 44, 76
17, 77489, Note_on_c, 15, 44, 0
17, 77520, Note_on_c, 15, 40, 76
17, 77864, Note_on_c, 15, 40, 0
17, 78240, Note_on_c, 15, 33, 84
17, 78411, Note_on_c, 15, 33, 0
17, 78420, Note_on_c, 15, 33, 84
17, 78471, Note_on_c, 15, 33, 0
17, 78480, Note_on_c, 15, 33, 84
17, 78584, Note_on_c, 15, 33, 0
17, 78600, Note_on_c, 15, 33, 84
17, 78771, Note_on_c, 15, 33, 0
17, 78780, Note_on_c, 15, 33, 84
17, 78831, Note_on_c, 15, 33, 0
17, 78840, Note_on_c, 15, 33, 84
17, 78944, Note_on_c, 15, 33, 0
17, 78960, Note_on_c, 15, 33, 84
17, 79131, Note_on_c, 15, 33, 0
17, 79140, Note_on_c, 15, 33, 84
17, 79191, Note_on_c, 15, 33, 0
17, 79200, Note_on_c, 15, 33, 84
17, 79304, Note_on_c, 15, 33, 0
17, 79320, Note_on_c, 15, 33, 84
17, 79491, Note_on_c, 15, 33, 0
17, 79500, Note_on_c, 15, 33, 84
17, 79551, Note_on_c, 15, 33, 0
17, 79560, Note_on_c, 15, 33, 84
17, 79664, Note_on_c, 15, 33, 0
17, 79680, Note_on_c, 15, 33, 84
17, 79851, Note_on_c, 15, 33, 0
17, 79860, Note_on_c, 15, 33, 84
17, 79911, Note_on_c, 15, 33, 0
17, 79920, Note_on_c, 15, 33, 84
17, 80024, Note_on_c, 15, 33, 0
17, 80040, Note_on_c, 15, 33, 84
17, 80211, Note_on_c, 15, 33, 0
17, 80220, Note_on_c, 15, 33, 84
17, 80271, Note_on_c, 15, 33, 0
17, 80280, Note_on_c, 15, 33, 84
17, 80384, Note_on_c, 15, 33, 0
17, 80400, Note_on_c, 15, 33, 84
17, 80571, Note_on_c, 15, 33, 0
17, 80580, Note_on_c, 15, 33, 84
17, 80631, Note_on_c, 15, 33, 0
17, 80640, Note_on_c, 15, 33, 84
17, 80744, Note_on_c, 15, 33, 0
17, 80760, Note_on_c, 15, 33, 84
17, 80931, Note_on_c, 15, 33, 0
17, 80940, Note_on_c, 15, 33, 84
17, 80991, Note_on_c, 15, 33, 0
17, 81000, Note_on_c, 15, 33, 84
17, 81104, Note_on_c, 15, 33, 0
17, 81120, Note_on_c, 15, 33, 84
17, 81291, Note_on_c, 15, 33, 0
17, 81300, Note_on_c, 15, 33, 84
17, 81351, Note_on_c, 15, 33, 0
17, 81360, Note_on_c, 15, 33, 84
17, 81464, Note_on_c, 15, 33, 0
17, 81480, Note_on_c, 15, 33, 84
17, 81651, Note_on_c, 15, 33, 0
17, 81660, Note_on_c, 15, 33, 84
17, 81711, Note_on_c, 15, 33, 0
17, 81720, Note_on_c, 15, 33, 84
17, 81824, Note_on_c, 15, 33, 0
17, 81840, Note_on_c, 15, 33, 84
17, 82011, Note_on_c, 15, 33, 0
17, 82020, Note_on_c, 15, 33, 84
17, 82071, Note_on_c, 15, 33, 0
17, 82080, Note_on_c, 15, 33, 84
17, 82184, Note_on_c, 15, 33, 0
17, 82200, Note_on_c, 15, 33, 84
17, 82371, Note_on_c, 15, 33, 0
17, 82380, Note_on_c, 15, 33, 84
17, 82431, Note_on_c, 15, 33, 0
17, 82440, Note_on_c, 15, 33, 84
17, 82544, Note_on_c, 15, 33, 0
17, 82560, Note_on_c, 15, 33, 84
17, 82731, Note_on_c, 15, 33, 0
17, 82740, Note_on_c, 15, 33, 84
17, 82791, Note_on_c, 15, 33, 0
17, 82800, Note_on_c, 15, 37, 84
17, 82904, Note_on_c, 15, 37, 0
17, 82920, Note_on_c, 15, 40, 84
17, 83091, Note_on_c, 15, 40, 0
17, 83100, Note_on_c, 15, 40, 84
17, 83151, Note_on_c, 15, 40, 0
17, 83160, Note_on_c, 15, 28, 84
17, 83264, Note_on_c, 15, 28, 0
17, 83280, Note_on_c, 15, 33, 84
17, 83451, Note_on_c, 15, 33, 0
17, 83460, Note_on_c, 15, 33, 84
17, 83511, Note_on_c, 15, 33, 0
17, 83520, Note_on_c, 15, 33, 84
17, 83624, Note_on_c, 15, 33, 0
17, 83640, Note_on_c, 15, 33, 84
17, 83811, Note_on_c, 15, 33, 0
17, 83820, Note_on_c, 15, 33, 84
17, 83871, Note_on_c, 15, 33, 0
17, 83880, Note_on_c, 15, 33, 84
17, 83984, Note_on_c, 15, 33, 0
17, 84000, Note_on_c, 15, 33, 84
17, 84239, Note_on_c, 15, 33, 0
17, 84600, Note_on_c, 15, 33, 84
17, 84704, Note_on_c, 15, 33, 0
17, 84720, Note_on_c, 15, 33, 84
17, 84944, Note_on_c, 15, 33, 0
17, 84960, Note_on_c, 15, 33, 84
17, 85064, Note_on_c, 15, 33, 0
17, 85080, Note_on_c, 15, 33, 84
17, 85251, Note_on_c, 15, 33, 0
17, 85260, Note_on_c, 15, 37, 84
17, 85304, Note_on_c, 15, 37, 0
17, 85320, Note_on_c, 15, 40, 84
17, 85409, Note_on_c, 15, 40, 0
17, 85440, Note_on_c, 15, 43, 84
17, 85559, Note_on_c, 15, 43, 0
17, 85560, Note_on_c, 15, 42, 84
17, 85664, Note_on_c, 15, 42, 0
17, 85680, Note_on_c, 15, 38, 84
17, 85769, Note_on_c, 15, 38, 0
17, 85800, Note_on_c, 15, 33, 84
17, 86024, Note_on_c, 15, 33, 0
17, 86040, Note_on_c, 15, 33, 84
17, 86144, Note_on_c, 15, 33, 0
17, 86160, Note_on_c, 15, 33, 84
17, 86384, Note_on_c, 15, 33, 0
17, 86400, Note_on_c, 15, 33, 84
17, 86504, Note_on_c, 15, 33, 0
17, 86520, Note_on_c, 15, 33, 84
17, 86691, Note_on_c, 15, 33, 0
17, 86700, Note_on_c, 15, 37, 84
17, 86744, Note_on_c, 15, 37, 0
17, 86760, Note_on_c, 15, 40, 52
17, 86849, Note_on_c, 15, 40, 0
17, 86880, Note_on_c, 15, 45, 52
17, 86999, Note_on_c, 15, 45, 0
17, 87000, Note_on_c, 15, 49, 52
17, 87104, Note_on_c, 15, 49, 0
17, 87120, Note_on_c, 15, 52, 53
17, 87209, Note_on_c, 15, 52, 0
17, 87240, Note_on_c, 15, 33, 54
17, 87411, Note_on_c, 15, 33, 0
17, 87420, Note_on_c, 15, 37, 55
17, 87464, Note_on_c, 15, 37, 0
17, 87480, Note_on_c, 15, 40, 55
17, 87569, Note_on_c, 15, 40, 0
17, 87600, Note_on_c, 15, 45, 56
17, 87719, Note_on_c, 15, 45, 0
17, 87720, Note_on_c, 15, 50, 56
17, 87824, Note_on_c, 15, 50, 0
17, 87840, Note_on_c, 15, 54, 57
17, 87929, Note_on_c, 15, 54, 0
17, 87960, Note_on_c, 15, 33, 58
17, 88131, Note_on_c, 15, 33, 0
17, 88140, Note_on_c, 15, 38, 59
17, 88184, Note_on_c, 15, 38, 0
17, 88200, Note_on_c, 15, 42, 59
17, 88289, Note_on_c, 15, 42, 0
17, 88320, Note_on_c, 15, 45, 60
17, 88439, Note_on_c, 15, 45, 0
17, 88440, Note_on_c, 15, 47, 60
17, 88544, Note_on_c, 15, 47, 0
17, 88560, Note_on_c, 15, 50, 61
17, 88649, Note_on_c, 15, 50, 0
17, 88680, Note_on_c, 15, 33, 62
17, 88851, Note_on_c, 15, 33, 0
17, 88860, Note_on_c, 15, 35, 63
17, 88904, Note_on_c, 15, 35, 0
17, 88920, Note_on_c, 15, 38, 63
17, 89009, Note_on_c, 15, 38, 0
17, 89040, Note_on_c, 15, 45, 64
17, 89159, Note_on_c, 15, 45, 0
17, 89160, Note_on_c, 15, 49, 64
17, 89264, Note_on_c, 15, 49, 0
17, 89280, Note_on_c, 15, 52, 65
17, 89369, Note_on_c, 15, 52, 0
17, 89400, Note_on_c, 15, 33, 66
17, 89571, Note_on_c, 15, 33, 0
17, 89580, Note_on_c, 15, 37, 67
17, 89624, Note_on_c, 15, 37, 0
17, 89640, Note_on_c, 15, 40, 67
17, 89729, Note_on_c, 15, 40, 0
17, 89760, Note_on_c, 15, 45, 68
17, 89849, Note_on_c, 15, 45, 0
17, 89880, Note_on_c, 15, 49, 68
17, 89969, Note_on_c, 15, 49, 0
17, 90000, Note_on_c, 15, 52, 69
17, 90089, Note_on_c, 15, 52, 0
17, 90120, Note_on_c, 15, 33, 70
17, 90209, Note_on_c, 15, 33, 0
17, 90240, Note_on_c, 15, 37, 70
17, 90329, Note_on_c, 15, 37, 0
17, 90360, Note_on_c, 15, 40, 71
17, 90449, Note_on_c, 15, 40, 0
17, 90480, Note_on_c, 15, 45, 72
17, 90569, Note_on_c, 15, 45, 0
17, 90600, Note_on_c, 15, 50, 72
17, 90689, Note_on_c, 15, 50, 0
17, 90720, Note_on_c, 15, 54, 73
17, 90809, Note_on_c, 15, 54, 0
17, 90840, Note_on_c, 15, 33, 74
17, 90929, Note_on_c, 15, 33, 0
17, 90960, Note_on_c, 15, 38, 74
17, 91049, Note_on_c, 15, 38, 0
17, 91080, Note_on_c, 15, 42, 75
17, 91169, Note_on_c, 15, 42, 0
17, 91200, Note_on_c, 15, 45, 76
17, 91289, Note_on_c, 15, 45, 0
17, 91320, Note_on_c, 15, 47, 76
17, 91409, Note_on_c, 15, 47, 0
17, 91440, Note_on_c, 15, 50, 77
17, 91529, Note_on_c, 15, 50, 0
17, 91560, Note_on_c, 15, 33, 78
17, 91649, Note_on_c, 15, 33, 0
17, 91680, Note_on_c, 15, 35, 78
17, 91769, Note_on_c, 15, 35, 0
17, 91800, Note_on_c, 15, 38, 79
17, 91889, Note_on_c, 15, 38, 0
17, 91920, Note_on_c, 15, 45, 80
17, 92009, Note_on_c, 15, 45, 0
17, 92040, Note_on_c, 15, 49, 80
17, 92129, Note_on_c, 15, 49, 0
17, 92160, Note_on_c, 15, 52, 81
17, 92249, Note_on_c, 15, 52, 0
17, 92280, Note_on_c, 15, 33, 82
17, 92369, Note_on_c, 15, 33, 0
17, 92400, Note_on_c, 15, 37, 82
17, 92489, Note_on_c, 15, 37, 0
17, 92520, Note_on_c, 15, 40, 83
17, 92609, Note_on_c, 15, 40, 0
17, 92640, Note_on_c, 15, 36, 84
17, 92691, Note_on_c, 15, 36, 0
17, 92700, Note_on_c, 15, 48, 84
17, 92751, Note_on_c, 15, 48, 0
17, 92760, Note_on_c, 15, 48, 84
17, 92811, Note_on_c, 15, 48, 0
17, 92820, Note_on_c, 15, 48, 84
17, 92871, Note_on_c, 15, 48, 0
17, 92880, Note_on_c, 15, 48, 84
17, 92931, Note_on_c, 15, 48, 0
17, 92940, Note_on_c, 15, 48, 84
17, 92991, Note_on_c, 15, 48, 0
17, 93000, Note_on_c, 15, 48, 84
17, 93051, Note_on_c, 15, 48, 0
17, 93060, Note_on_c, 15, 48, 84
17, 93111, Note_on_c, 15, 48, 0
17, 93120, Note_on_c, 15, 48, 84
17, 93171, Note_on_c, 15, 48, 0
17, 93180, Note_on_c, 15, 48, 84
17, 93231, Note_on_c, 15, 48, 0
17, 93240, Note_on_c, 15, 48, 84
17, 93291, Note_on_c, 15, 48, 0
17, 93300, Note_on_c, 15, 48, 84
17, 93351, Note_on_c, 15, 48, 0
17, 93360, Note_on_c, 15, 47, 84
17, 93411, Note_on_c, 15, 47, 0
17, 93420, Note_on_c, 15, 47, 84
17, 93471, Note_on_c, 15, 47, 0
17, 93480, Note_on_c, 15, 47, 84
17, 93531, Note_on_c, 15, 47, 0
17, 93540, Note_on_c, 15, 47, 84
17, 93591, Note_on_c, 15, 47, 0
17, 93600, Note_on_c, 15, 47, 84
17, 93651, Note_on_c, 15, 47, 0
17, 93660, Note_on_c, 15, 47, 84
17, 93711, Note_on_c, 15, 47, 0
17, 93720, Note_on_c, 15, 47, 84
17, 93771, Note_on_c, 15, 47, 0
17, 93780, Note_on_c, 15, 47, 84
17, 93831, Note_on_c, 15, 47, 0
17, 93840, Note_on_c, 15, 47, 52
17, 93891, Note_on_c, 15, 47, 0
17, 93900, Note_on_c, 15, 47, 52
17, 93951, Note_on_c, 15, 47, 0
17, 93960, Note_on_c, 15, 47, 52
17, 94011, Note_on_c, 15, 47, 0
17, 94020, Note_on_c, 15, 47, 52
17, 94071, Note_on_c, 15, 47, 0
17, 94080, Note_on_c, 15, 45, 52
17, 94131, Note_on_c, 15, 45, 0
17, 94140, Note_on_c, 15, 45, 52
17, 94191, Note_on_c, 15, 45, 0
17, 94200, Note_on_c, 15, 45, 52
17, 94251, Note_on_c, 15, 45, 0
17, 94260, Note_on_c, 15, 45, 52
17, 94311, Note_on_c, 15, 45, 0
17, 94320, Note_on_c, 15, 45, 52
17, 94371, Note_on_c, 15, 45, 0
17, 94380, Note_on_c, 15, 45, 52
17, 94431, Note_on_c, 15, 45, 0
17, 94440, Note_on_c, 15, 45, 52
17, 94491, Note_on_c, 15, 45, 0
17, 94500, Note_on_c, 15, 45, 52
17, 94551, Note_on_c, 15, 45, 0
17, 94560, Note_on_c, 15, 45, 52
17, 94611, Note_on_c, 15, 45, 0
17, 94620, Note_on_c, 15, 45, 52
17, 94671, Note_on_c, 15, 45, 0
17, 94680, Note_on_c, 15, 45, 52
17, 94731, Note_on_c, 15, 45, 0
17, 94740, Note_on_c, 15, 45, 52
17, 94791, Note_on_c, 15, 45, 0
17, 94800, Note_on_c, 15, 44, 52
17, 95039, Note_on_c, 15, 44, 0
17, 95160, Note_on_c, 15, 44, 52
17, 95399, Note_on_c, 15, 44, 0
17, 95520, Note_on_c, 15, 44, 52
17, 95759, Note_on_c, 15, 44, 0
17, 95880, Note_on_c, 15, 44, 52
17, 96119, Note_on_c, 15, 44, 0
17, 96240, Note_on_c, 15, 44, 52
17, 96479, Note_on_c, 15, 44, 0
17, 96600, Note_on_c, 15, 44, 52
17, 96839, Note_on_c, 15, 44, 0
17, 96960, Note_on_c, 15, 37, 52
17, 97011, Note_on_c, 15, 37, 0
17, 97020, Note_on_c, 15, 37, 54
17, 97071, Note_on_c, 15, 37, 0
17, 97080, Note_on_c, 15, 37, 56
17, 97131, Note_on_c, 15, 37, 0
17, 97140, Note_on_c, 15, 37, 58
17, 97191, Note_on_c, 15, 37, 0
17, 97200, Note_on_c, 15, 37, 60
17, 97251, Note_on_c, 15, 37, 0
17, 97260, Note_on_c, 15, 37, 62
17, 97311, Note_on_c, 15, 37, 0
17, 97320, Note_on_c, 15, 40, 64
17, 97371, Note_on_c, 15, 40, 0
17, 97380, Note_on_c, 15, 40, 66
17, 97431, Note_on_c, 15, 40, 0
17, 97440, Note_on_c, 15, 40, 68
17, 97491, Note_on_c, 15, 40, 0
17, 97500, Note_on_c, 15, 40, 70
17, 97551, Note_on_c, 15, 40, 0
17, 97560, Note_on_c, 15, 40, 72
17, 97611, Note_on_c, 15, 40, 0
17, 97620, Note_on_c, 15, 40, 74
17, 97671, Note_on_c, 15, 40, 0
17, 97680, Note_on_c, 15, 39, 76
17, 97919, Note_on_c, 15, 39, 0
17, 98040, Note_on_c, 15, 39, 52
17, 98279, Note_on_c, 15, 39, 0
17, 98400, Note_on_c, 15, 39, 52
17, 98639, Note_on_c, 15, 39, 0
17, 98760, Note_on_c, 15, 39, 52
17, 98999, Note_on_c, 15, 39, 0
17, 99120, Note_on_c, 15, 39, 52
17, 99359, Note_on_c, 15, 39, 0
17, 99480, Note_on_c, 15, 39, 52
17, 99719, Note_on_c, 15, 39, 0
17, 99838, Control_c, 15, 11, 80
17, 99840, Control_c, 15, 11, 80
17, 99840, Note_on_c, 15, 44, 76
17, 99880, Control_c, 15, 11, 83
17, 99920, Control_c, 15, 11, 85
17, 99960, Control_c, 15, 11, 88
17, 100000, Control_c, 15, 11, 90
17, 100040, Control_c, 15, 11, 93
17, 100080, Control_c, 15, 11, 96
17, 100120, Control_c, 15, 11, 98
17, 100160, Control_c, 15, 11, 101
17, 100200, Control_c, 15, 11, 104
17, 100240, Control_c, 15, 11, 106
17, 100280, Control_c, 15, 11, 109
17, 100320, Control_c, 15, 11, 111
17, 100360, Control_c, 15, 11, 114
17, 100400, Control_c, 15, 11, 117
17, 100440, Control_c, 15, 11, 119
17, 100480, Control_c, 15, 11, 122
17, 100520, Control_c, 15, 11, 127
17, 100544, Note_on_c, 15, 44, 0
17, 100560, Note_on_c, 15, 30, 76
17, 100784, Note_on_c, 15, 30, 0
17, 100800, Note_on_c, 15, 30, 76
17, 100904, Note_on_c, 15, 30, 0
17, 100920, Note_on_c, 15, 42, 76
17, 101144, Note_on_c, 15, 42, 0
17, 101160, Note_on_c, 15, 42, 76
17, 101264, Note_on_c, 15, 42, 0
17, 101280, Note_on_c, 15, 42, 76
17, 101399, Note_on_c, 15, 42, 0
17, 101400, Note_on_c, 15, 40, 76
17, 101984, Note_on_c, 15, 40, 0
17, 102000, Note_on_c, 15, 27, 76
17, 102224, Note_on_c, 15, 27, 0
17, 102240, Note_on_c, 15, 27, 76
17, 102344, Note_on_c, 15, 27, 0
17, 102360, Note_on_c, 15, 39, 76
17, 102584, Note_on_c, 15, 39, 0
17, 102600, Note_on_c, 15, 39, 76
17, 102704, Note_on_c, 15, 39, 0
17, 102720, Note_on_c, 15, 39, 76
17, 102839, Note_on_c, 15, 39, 0
17, 102840, Note_on_c, 15, 37, 76
17, 103304, Note_on_c, 15, 37, 0
17, 103320, Note_on_c, 15, 36, 76
17, 103424, Note_on_c, 15, 36, 0
17, 103440, Note_on_c, 15, 35, 76
17, 103619, Note_on_c, 15, 35, 0
17, 103800, Note_on_c, 15, 35, 76
17, 103979, Note_on_c, 15, 35, 0
17, 104160, Note_on_c, 15, 35, 76
17, 104339, Note_on_c, 15, 35, 0
17, 104520, Note_on_c, 15, 35, 76
17, 104699, Note_on_c, 15, 35, 0
17, 104880, Note_on_c, 15, 35, 76
17, 105059, Note_on_c, 15, 35, 0
17, 105240, Note_on_c, 15, 35, 76
17, 105419, Note_on_c, 15, 35, 0
17, 105600, Note_on_c, 15, 35, 76
17, 105779, Note_on_c, 15, 35, 0
17, 105960, Note_on_c, 15, 35, 76
17, 106139, Note_on_c, 15, 35, 0
17, 106320, Note_on_c, 15, 37, 84
17, 106380, Control_c, 15, 11, 112
17, 106417, Control_c, 15, 11, 109
17, 106453, Control_c, 15, 11, 107
17, 106490, Control_c, 15, 11, 104
17, 106527, Control_c, 15, 11, 101
17, 106563, Control_c, 15, 11, 99
17, 106600, Control_c, 15, 11, 96
17, 106637, Control_c, 15, 11, 93
17, 106673, Control_c, 15, 11, 91
17, 106710, Control_c, 15, 11, 88
17, 106747, Control_c, 15, 11, 85
17, 106783, Control_c, 15, 11, 83
17, 106820, Control_c, 15, 11, 80
17, 106857, Control_c, 15, 11, 77
17, 106893, Control_c, 15, 11, 75
17, 106919, Note_on_c, 15, 37, 0
17, 106920, Note_on_c, 15, 36, 84
17, 106930, Control_c, 15, 11, 72
17, 106967, Control_c, 15, 11, 69
17, 107003, Control_c, 15, 11, 64
17, 107024, Note_on_c, 15, 36, 0
17, 107040, Note_on_c, 15, 35, 84
17, 107639, Note_on_c, 15, 35, 0
17, 107640, Note_on_c, 15, 37, 84
17, 107699, Note_on_c, 15, 37, 0
17, 107700, Note_on_c, 15, 39, 84
17, 107759, Note_on_c, 15, 39, 0
17, 107760, Note_on_c, 15, 40, 84
17, 107999, Note_on_c, 15, 40, 0
17, 109080, Control_c, 15, 11, 127
17, 109200, Note_on_c, 15, 40, 48
17, 109559, Note_on_c, 15, 40, 0
17, 109560, Note_on_c, 15, 44, 48
17, 109919, Note_on_c, 15, 44, 0
17, 109920, Note_on_c, 15, 47, 48
17, 110279, Note_on_c, 15, 47, 0
17, 110280, Note_on_c, 15, 35, 48
17, 110624, Note_on_c, 15, 35, 0
17, 110640, Note_on_c, 15, 40, 76
17, 110984, Note_on_c, 15, 40, 0
17, 111000, Note_on_c, 15, 40, 76
17, 111171, Note_on_c, 15, 40, 0
17, 111180, Note_on_c, 15, 40, 76
17, 111231, Note_on_c, 15, 40, 0
17, 111240, Note_on_c, 15, 40, 76
17, 111344, Note_on_c, 15, 40, 0
17, 111360, Note_on_c, 15, 40, 76
17, 111531, Note_on_c, 15, 40, 0
17, 111540, Note_on_c, 15, 40, 76
17, 111591, Note_on_c, 15, 40, 0
17, 111600, Note_on_c, 15, 40, 76
17, 111704, Note_on_c, 15, 40, 0
17, 111720, Note_on_c, 15, 40, 76
17, 111891, Note_on_c, 15, 40, 0
17, 111900, Note_on_c, 15, 40, 76
17, 111951, Note_on_c, 15, 40, 0
17, 111960, Note_on_c, 15, 38, 76
17, 112064, Note_on_c, 15, 38, 0
17, 112080, Note_on_c, 15, 36, 76
17, 112251, Note_on_c, 15, 36, 0
17, 112260, Note_on_c, 15, 48, 76
17, 112311, Note_on_c, 15, 48, 0
17, 112320, Note_on_c, 15, 43, 76
17, 112424, Note_on_c, 15, 43, 0
17, 112440, Note_on_c, 15, 40, 76
17, 112611, Note_on_c, 15, 40, 0
17, 112620, Note_on_c, 15, 40, 76
17, 112671, Note_on_c, 15, 40, 0
17, 112680, Note_on_c, 15, 36, 76
17, 112784, Note_on_c, 15, 36, 0
17, 112800, Note_on_c, 15, 31, 76
17, 112971, Note_on_c, 15, 31, 0
17, 112980, Note_on_c, 15, 31, 76
17, 113031, Note_on_c, 15, 31, 0
17, 113040, Note_on_c, 15, 28, 76
17, 113144, Note_on_c, 15, 28, 0
17, 113160, Note_on_c, 15, 24, 76
17, 113331, Note_on_c, 15, 24, 0
17, 113340, Note_on_c, 15, 36, 76
17, 113391, Note_on_c, 15, 36, 0
17, 113400, Note_on_c, 15, 31, 76
17, 113504, Note_on_c, 15, 31, 0
17, 113520, Note_on_c, 15, 36, 76
17, 113759, Note_on_c, 15, 36, 0
17, 114060, Note_on_c, 15, 31, 75
17, 114111, Note_on_c, 15, 31, 0
17, 114120, Note_on_c, 15, 31, 73
17, 114224, Note_on_c, 15, 31, 0
17, 114240, Note_on_c, 15, 36, 70
17, 114479, Note_on_c, 15, 36, 0
17, 114780, Note_on_c, 15, 31, 57
17, 114831, Note_on_c, 15, 31, 0
17, 114840, Note_on_c, 15, 31, 55
17, 114944, Note_on_c, 15, 31, 0
17, 114960, Note_on_c, 15, 36, 52
17, 115199, Note_on_c, 15, 36, 0
17, 115680, Note_on_c, 15, 36, 44
17, 115919, Note_on_c, 15, 36, 0
17, 116640, Note_on_c, 15, 27, 44
17, 116699, Note_on_c, 15, 27, 0
17, 116700, Note_on_c, 15, 28, 44
17, 116759, Note_on_c, 15, 28, 0
17, 116760, Note_on_c, 15, 30, 44
17, 116939, Note_on_c, 15, 30, 0
17, 118080, Note_on_c, 15, 27, 44
17, 118139, Note_on_c, 15, 27, 0
17, 118140, Note_on_c, 15, 28, 44
17, 118199, Note_on_c, 15, 28, 0
17, 118200, Note_on_c, 15, 30, 44
17, 118379, Note_on_c, 15, 30, 0
17, 119520, Note_on_c, 15, 27, 46
17, 119579, Note_on_c, 15, 27, 0
17, 119580, Note_on_c, 15, 28, 46
17, 119639, Note_on_c, 15, 28, 0
17, 119640, Note_on_c, 15, 30, 47
17, 119759, Note_on_c, 15, 30, 0
17, 119880, Note_on_c, 15, 28, 49
17, 119939, Note_on_c, 15, 28, 0
17, 119940, Note_on_c, 15, 30, 50
17, 119999, Note_on_c, 15, 30, 0
17, 120000, Note_on_c, 15, 32, 50
17, 120119, Note_on_c, 15, 32, 0
17, 120240, Note_on_c, 15, 28, 52
17, 120299, Note_on_c, 15, 28, 0
17, 120300, Note_on_c, 15, 30, 53
17, 120359, Note_on_c, 15, 30, 0
17, 120360, Note_on_c, 15, 32, 54
17, 120479, Note_on_c, 15, 32, 0
17, 120600, Note_on_c, 15, 30, 56
17, 120659, Note_on_c, 15, 30, 0
17, 120660, Note_on_c, 15, 32, 56
17, 120719, Note_on_c, 15, 32, 0
17, 120720, Note_on_c, 15, 33, 57
17, 120839, Note_on_c, 15, 33, 0
17, 120960, Note_on_c, 15, 30, 59
17, 121019, Note_on_c, 15, 30, 0
17, 121020, Note_on_c, 15, 32, 60
17, 121079, Note_on_c, 15, 32, 0
17, 121080, Note_on_c, 15, 33, 60
17, 121199, Note_on_c, 15, 33, 0
17, 121320, Note_on_c, 15, 32, 62
17, 121379, Note_on_c, 15, 32, 0
17, 121380, Note_on_c, 15, 33, 63
17, 121439, Note_on_c, 15, 33, 0
17, 121440, Note_on_c, 15, 35, 64
17, 121559, Note_on_c, 15, 35, 0
17, 121680, Note_on_c, 15, 32, 66
17, 121739, Note_on_c, 15, 32, 0
17, 121740, Note_on_c, 15, 33, 66
17, 121799, Note_on_c, 15, 33, 0
17, 121800, Note_on_c, 15, 35, 67
17, 121919, Note_on_c, 15, 35, 0
17, 122040, Note_on_c, 15, 33, 69
17, 122099, Note_on_c, 15, 33, 0
17, 122100, Note_on_c, 15, 35, 70
17, 122159, Note_on_c, 15, 35, 0
17, 122160, Note_on_c, 15, 37, 70
17, 122279, Note_on_c, 15, 37, 0
17, 122400, Note_on_c, 15, 33, 72
17, 122459, Note_on_c, 15, 33, 0
17, 122460, Note_on_c, 15, 35, 73
17, 122519, Note_on_c, 15, 35, 0
17, 122520, Note_on_c, 15, 37, 74
17, 122639, Note_on_c, 15, 37, 0
17, 122760, Note_on_c, 15, 35, 76
17, 122819, Note_on_c, 15, 35, 0
17, 122820, Note_on_c, 15, 37, 76
17, 122879, Note_on_c, 15, 37, 0
17, 122880, Note_on_c, 15, 39, 77
17, 122999, Note_on_c, 15, 39, 0
17, 123120, Note_on_c, 15, 35, 79
17, 123179, Note_on_c, 15, 35, 0
17, 123180, Note_on_c, 15, 37, 80
17, 123239, Note_on_c, 15, 37, 0
17, 123240, Note_on_c, 15, 39, 80
17, 123359, Note_on_c, 15, 39, 0
17, 123480, Note_on_c, 15, 37, 82
17, 123539, Note_on_c, 15, 37, 0
17, 123540, Note_on_c, 15, 39, 83
17, 123599, Note_on_c, 15, 39, 0
17, 123600, Note_on_c, 15, 40, 84
17, 123771, Note_on_c, 15, 40, 0
17, 123780, Note_on_c, 15, 52, 84
17, 123831, Note_on_c, 15, 52, 0
17, 123840, Note_on_c, 15, 47, 84
17, 123944, Note_on_c, 15, 47, 0
17, 123960, Note_on_c, 15, 44, 84
17, 124131, Note_on_c, 15, 44, 0
17, 124140, Note_on_c, 15, 44, 84
17, 124191, Note_on_c, 15, 44, 0
17, 124200, Note_on_c, 15, 40, 84
17, 124304, Note_on_c, 15, 40, 0
17, 124320, Note_on_c, 15, 35, 84
17, 124491, Note_on_c, 15, 35, 0
17, 124500, Note_on_c, 15, 35, 84
17, 124551, Note_on_c, 15, 35, 0
17, 124560, Note_on_c, 15, 32, 84
17, 124664, Note_on_c, 15, 32, 0
17, 124680, Note_on_c, 15, 28, 84
17, 124919, Note_on_c, 15, 28, 0
17, 125040, Note_on_c, 15, 57, 84
17, 125211, Note_on_c, 15, 57, 0
17, 125220, Note_on_c, 15, 57, 84
17, 125271, Note_on_c, 15, 57, 0
17, 125280, Note_on_c, 15, 54, 84
17, 125384, Note_on_c, 15, 54, 0
17, 125400, Note_on_c, 15, 49, 84
17, 125571, Note_on_c, 15, 49, 0
17, 125580, Note_on_c, 15, 49, 84
17, 125631, Note_on_c, 15, 49, 0
17, 125640, Note_on_c, 15, 45, 84
17, 125744, Note_on_c, 15, 45, 0
17, 125760, Note_on_c, 15, 42, 84
17, 125931, Note_on_c, 15, 42, 0
17, 125940, Note_on_c, 15, 42, 84
17, 125991, Note_on_c, 15, 42, 0
17, 126000, Note_on_c, 15, 37, 84
17, 126104, Note_on_c, 15, 37, 0
17, 126120, Note_on_c, 15, 33, 84
17, 126359, Note_on_c, 15, 33, 0
17, 127920, Note_on_c, 15, 40, 84
17, 128091, Note_on_c, 15, 40, 0
17, 128100, Note_on_c, 15, 52, 84
17, 128151, Note_on_c, 15, 52, 0
17, 128160, Note_on_c, 15, 47, 84
17, 128264, Note_on_c, 15, 47, 0
17, 128280, Note_on_c, 15, 44, 84
17, 128451, Note_on_c, 15, 44, 0
17, 128460, Note_on_c, 15, 44, 84
17, 128511, Note_on_c, 15, 44, 0
17, 128520, Note_on_c, 15, 40, 84
17, 128624, Note_on_c, 15, 40, 0
17, 128640, Note_on_c, 15, 35, 84
17, 128811, Note_on_c, 15, 35, 0
17, 128820, Note_on_c, 15, 35, 84
17, 128871, Note_on_c, 15, 35, 0
17, 128880, Note_on_c, 15, 32, 84
17, 128984, Note_on_c, 15, 32, 0
17, 129000, Note_on_c, 15, 28, 84
17, 129239, Note_on_c, 15, 28, 0
17, 129360, Note_on_c, 15, 57, 84
17, 129531, Note_on_c, 15, 57, 0
17, 129540, Note_on_c, 15, 57, 84
17, 129591, Note_on_c, 15, 57, 0
17, 129600, Note_on_c, 15, 54, 84
17, 129704, Note_on_c, 15, 54, 0
17, 129720, Note_on_c, 15, 49, 84
17, 129891, Note_on_c, 15, 49, 0
17, 129900, Note_on_c, 15, 49, 84
17, 129951, Note_on_c, 15, 49, 0
17, 129960, Note_on_c, 15, 45, 84
17, 130064, Note_on_c, 15, 45, 0
17, 130080, Note_on_c, 15, 42, 84
17, 130251, Note_on_c, 15, 42, 0
17, 130260, Note_on_c, 15, 42, 84
17, 130311, Note_on_c, 15, 42, 0
17, 130320, Note_on_c, 15, 37, 84
17, 130424, Note_on_c, 15, 37, 0
17, 130440, Note_on_c, 15, 33, 84
17, 130679, Note_on_c, 15, 33, 0
17, 130800, Note_on_c, 15, 33, 44
17, 131504, Note_on_c, 15, 33, 0
17, 131518, Control_c, 15, 11, 48
17, 131520, Note_on_c, 15, 35, 84
17, 131560, Control_c, 15, 11, 52
17, 131600, Control_c, 15, 11, 57
17, 131640, Control_c, 15, 11, 61
17, 131680, Control_c, 15, 11, 66
17, 131720, Control_c, 15, 11, 70
17, 131760, Control_c, 15, 11, 74
17, 131800, Control_c, 15, 11, 79
17, 131840, Control_c, 15, 11, 83
17, 131880, Control_c, 15, 11, 88
17, 131920, Control_c, 15, 11, 92
17, 131960, Control_c, 15, 11, 96
17, 132000, Control_c, 15, 11, 101
17, 132040, Control_c, 15, 11, 105
17, 132080, Control_c, 15, 11, 109
17, 132120, Control_c, 15, 11, 114
17, 132160, Control_c, 15, 11, 118
17, 132200, Control_c, 15, 11, 123
17, 132224, Note_on_c, 15, 35, 0
17, 132238, Control_c, 15, 11, 127
17, 132240, Note_on_c, 15, 40, 84
17, 132479, Note_on_c, 15, 40, 0
17, 132600, Note_on_c, 15, 44, 84
17, 132839, Note_on_c, 15, 44, 0
17, 132960, Note_on_c, 15, 47, 84
17, 133199, Note_on_c, 15, 47, 0
17, 133500, Note_on_c, 15, 47, 84
17, 133551, Note_on_c, 15, 47, 0
17, 133560, Note_on_c, 15, 47, 84
17, 133664, Note_on_c, 15, 47, 0
17, 133680, Note_on_c, 15, 47, 92
17, 133739, Note_on_c, 15, 47, 0
17, 133740, Note_on_c, 15, 47, 84
17, 134211, Note_on_c, 15, 47, 0
17, 134220, Note_on_c, 15, 45, 84
17, 134264, Note_on_c, 15, 45, 0
17, 134280, Note_on_c, 15, 44, 84
17, 134361, Note_on_c, 15, 44, 0
17, 134370, Note_on_c, 15, 44, 84
17, 134399, Note_on_c, 15, 44, 0
17, 134400, Note_on_c, 15, 45, 92
17, 134459, Note_on_c, 15, 45, 0
17, 134460, Note_on_c, 15, 45, 84
17, 134931, Note_on_c, 15, 45, 0
17, 134940, Note_on_c, 15, 37, 84
17, 134984, Note_on_c, 15, 37, 0
17, 135000, Note_on_c, 15, 39, 84
17, 135089, Note_on_c, 15, 39, 0
17, 135120, Note_on_c, 15, 40, 84
17, 135359, Note_on_c, 15, 40, 0
17, 135660, Note_on_c, 15, 47, 84
17, 135711, Note_on_c, 15, 47, 0
17, 135720, Note_on_c, 15, 47, 84
17, 135824, Note_on_c, 15, 47, 0
17, 135840, Note_on_c, 15, 47, 92
17, 135899, Note_on_c, 15, 47, 0
17, 135900, Note_on_c, 15, 47, 84
17, 136071, Note_on_c, 15, 47, 0
17, 136080, Note_on_c, 15, 44, 84
17, 136161, Note_on_c, 15, 44, 0
17, 136170, Note_on_c, 15, 44, 84
17, 136199, Note_on_c, 15, 44, 0
17, 136200, Note_on_c, 15, 45, 84
17, 136371, Note_on_c, 15, 45, 0
17, 136380, Note_on_c, 15, 37, 84
17, 136424, Note_on_c, 15, 37, 0
17, 136440, Note_on_c, 15, 39, 84
17, 136529, Note_on_c, 15, 39, 0
17, 136560, Note_on_c, 15, 40, 84
17, 136799, Note_on_c, 15, 40, 0
17, 137100, Note_on_c, 15, 47, 84
17, 137151, Note_on_c, 15, 47, 0
17, 137160, Note_on_c, 15, 47, 84
17, 137241, Note_on_c, 15, 47, 0
17, 137250, Note_on_c, 15, 39, 84
17, 137279, Note_on_c, 15, 39, 0
17, 137280, Note_on_c, 15, 40, 84
17, 137459, Note_on_c, 15, 40, 0
17, 137610, Note_on_c, 15, 28, 84
17, 137639, Note_on_c, 15, 28, 0
17, 137640, Note_on_c, 15, 30, 84
17, 137819, Note_on_c, 15, 30, 0
17, 137970, Note_on_c, 15, 30, 84
17, 137999, Note_on_c, 15, 30, 0
17, 138000, Note_on_c, 15, 32, 84
17, 138179, Note_on_c, 15, 32, 0
17, 138330, Note_on_c, 15, 32, 84
17, 138359, Note_on_c, 15, 32, 0
17, 138360, Note_on_c, 15, 33, 84
17, 138539, Note_on_c, 15, 33, 0
17, 138690, Note_on_c, 15, 33, 84
17, 138719, Note_on_c, 15, 33, 0
17, 138720, Note_on_c, 15, 35, 84
17, 138899, Note_on_c, 15, 35, 0
17, 139050, Note_on_c, 15, 35, 84
17, 139079, Note_on_c, 15, 35, 0
17, 139080, Note_on_c, 15, 37, 84
17, 139259, Note_on_c, 15, 37, 0
17, 139410, Note_on_c, 15, 37, 84
17, 139439, Note_on_c, 15, 37, 0
17, 139440, Note_on_c, 15, 38, 84
17, 139619, Note_on_c, 15, 38, 0
17, 139800, Note_on_c, 15, 39, 84
17, 139979, Note_on_c, 15, 39, 0
17, 144420, Note_on_c, 15, 33, 52
17, 144471, Note_on_c, 15, 33, 0
17, 144480, Note_on_c, 15, 33, 52
17, 144719, Note_on_c, 15, 33, 0
17, 145860, Note_on_c, 15, 33, 52
17, 145911, Note_on_c, 15, 33, 0
17, 145920, Note_on_c, 15, 33, 52
17, 146159, Note_on_c, 15, 33, 0
17, 147300, Note_on_c, 15, 33, 52
17, 147351, Note_on_c, 15, 33, 0
17, 147360, Note_on_c, 15, 33, 52
17, 147599, Note_on_c, 15, 33, 0
17, 148740, Note_on_c, 15, 33, 52
17, 148791, Note_on_c, 15, 33, 0
17, 148800, Note_on_c, 15, 33, 52
17, 148919, Note_on_c, 15, 33, 0
17, 149040, Note_on_c, 15, 37, 52
17, 149144, Note_on_c, 15, 37, 0
17, 149160, Note_on_c, 15, 40, 52
17, 149279, Note_on_c, 15, 40, 0
17, 149400, Note_on_c, 15, 40, 52
17, 149504, Note_on_c, 15, 40, 0
17, 149520, Note_on_c, 15, 33, 52
17, 149759, Note_on_c, 15, 33, 0
17, 150900, Note_on_c, 15, 33, 52
17, 150951, Note_on_c, 15, 33, 0
17, 150960, Note_on_c, 15, 33, 52
17, 151199, Note_on_c, 15, 33, 0
17, 151560, Note_on_c, 15, 40, 52
17, 151664, Note_on_c, 15, 40, 0
17, 151680, Note_on_c, 15, 42, 68
17, 151799, Note_on_c, 15, 42, 0
17, 151800, Note_on_c, 15, 40, 52
17, 151904, Note_on_c, 15, 40, 0
17, 151920, Note_on_c, 15, 37, 52
17, 152009, Note_on_c, 15, 37, 0
17, 152040, Note_on_c, 15, 33, 52
17, 152279, Note_on_c, 15, 33, 0
17, 153060, Note_on_c, 15, 33, 52
17, 153111, Note_on_c, 15, 33, 0
17, 153120, Note_on_c, 15, 33, 52
17, 153359, Note_on_c, 15, 33, 0
17, 153720, Note_on_c, 15, 40, 52
17, 153824, Note_on_c, 15, 40, 0
17, 153840, Note_on_c, 15, 42, 68
17, 153959, Note_on_c, 15, 42, 0
17, 153960, Note_on_c, 15, 40, 52
17, 154064, Note_on_c, 15, 40, 0
17, 154080, Note_on_c, 15, 37, 52
17, 154169, Note_on_c, 15, 37, 0
17, 154200, Note_on_c, 15, 33, 52
17, 154439, Note_on_c, 15, 33, 0
17, 155220, Note_on_c, 15, 40, 52
17, 155271, Note_on_c, 15, 40, 0
17, 155280, Note_on_c, 15, 40, 76
17, 155320, Control_c, 15, 11, 123
17, 155360, Control_c, 15, 11, 119
17, 155400, Control_c, 15, 11, 115
17, 155440, Control_c, 15, 11, 111
17, 155480, Control_c, 15, 11, 107
17, 155520, Control_c, 15, 11, 104
17, 155560, Control_c, 15, 11, 100
17, 155600, Control_c, 15, 11, 96
17, 155640, Control_c, 15, 11, 92
17, 155680, Control_c, 15, 11, 88
17, 155720, Control_c, 15, 11, 84
17, 155760, Control_c, 15, 11, 80
17, 155879, Note_on_c, 15, 40, 0
17, 156360, Control_c, 15, 11, 127
17, 156660, Note_on_c, 15, 40, 52
17, 156711, Note_on_c, 15, 40, 0
17, 156720, Note_on_c, 15, 40, 76
17, 157251, Note_on_c, 15, 40, 0
17, 157260, Note_on_c, 15, 37, 76
17, 157304, Note_on_c, 15, 37, 0
17, 157320, Note_on_c, 15, 33, 76
17, 157409, Note_on_c, 15, 33, 0
17, 157440, Note_on_c, 15, 40, 84
17, 157499, Note_on_c, 15, 40, 0
17, 157500, Note_on_c, 15, 40, 76
17, 157971, Note_on_c, 15, 40, 0
17, 157980, Note_on_c, 15, 37, 76
17, 158024, Note_on_c, 15, 37, 0
17, 158040, Note_on_c, 15, 34, 76
17, 158129, Note_on_c, 15, 34, 0
17, 158160, Note_on_c, 15, 40, 84
17, 158219, Note_on_c, 15, 40, 0
17, 158220, Note_on_c, 15, 40, 76
17, 158279, Note_on_c, 15, 40, 0
17, 158340, Note_on_c, 15, 38, 76
17, 158384, Note_on_c, 15, 38, 0
17, 158400, Note_on_c, 15, 35, 76
17, 158489, Note_on_c, 15, 35, 0
17, 158520, Note_on_c, 15, 44, 84
17, 158579, Note_on_c, 15, 44, 0
17, 158580, Note_on_c, 15, 44, 76
17, 158639, Note_on_c, 15, 44, 0
17, 158700, Note_on_c, 15, 40, 76
17, 158744, Note_on_c, 15, 40, 0
17, 158760, Note_on_c, 15, 38, 76
17, 158849, Note_on_c, 15, 38, 0
17, 158880, Note_on_c, 15, 47, 84
17, 158939, Note_on_c, 15, 47, 0
17, 158940, Note_on_c, 15, 47, 76
17, 158999, Note_on_c, 15, 47, 0
17, 159060, Note_on_c, 15, 44, 76
17, 159104, Note_on_c, 15, 44, 0
17, 159120, Note_on_c, 15, 40, 76
17, 159209, Note_on_c, 15, 40, 0
17, 159240, Note_on_c, 15, 50, 84
17, 159299, Note_on_c, 15, 50, 0
17, 159300, Note_on_c, 15, 50, 76
17, 159359, Note_on_c, 15, 50, 0
17, 159420, Note_on_c, 15, 47, 76
17, 159464, Note_on_c, 15, 47, 0
17, 159480, Note_on_c, 15, 44, 76
17, 159569, Note_on_c, 15, 44, 0
17, 159600, Note_on_c, 15, 40, 76
17, 159944, Note_on_c, 15, 40, 0
17, 160320, Note_on_c, 15, 33, 84
17, 160491, Note_on_c, 15, 33, 0
17, 160500, Note_on_c, 15, 33, 84
17, 160551, Note_on_c, 15, 33, 0
17, 160560, Note_on_c, 15, 33, 84
17, 160664, Note_on_c, 15, 33, 0
17, 160680, Note_on_c, 15, 33, 84
17, 160851, Note_on_c, 15, 33, 0
17, 160860, Note_on_c, 15, 33, 84
17, 160911, Note_on_c, 15, 33, 0
17, 160920, Note_on_c, 15, 33, 84
17, 161024, Note_on_c, 15, 33, 0
17, 161040, Note_on_c, 15, 33, 84
17, 161211, Note_on_c, 15, 33, 0
17, 161220, Note_on_c, 15, 33, 84
17, 161271, Note_on_c, 15, 33, 0
17, 161280, Note_on_c, 15, 33, 84
17, 161384, Note_on_c, 15, 33, 0
17, 161400, Note_on_c, 15, 33, 84
17, 161571, Note_on_c, 15, 33, 0
17, 161580, Note_on_c, 15, 33, 84
17, 161631, Note_on_c, 15, 33, 0
17, 161640, Note_on_c, 15, 33, 84
17, 161744, Note_on_c, 15, 33, 0
17, 161760, Note_on_c, 15, 33, 84
17, 161931, Note_on_c, 15, 33, 0
17, 161940, Note_on_c, 15, 33, 84
17, 161991, Note_on_c, 15, 33, 0
17, 162000, Note_on_c, 15, 33, 84
17, 162104, Note_on_c, 15, 33, 0
17, 162120, Note_on_c, 15, 33, 84
17, 162291, Note_on_c, 15, 33, 0
17, 162300, Note_on_c, 15, 33, 84
17, 162351, Note_on_c, 15, 33, 0
17, 162360, Note_on_c, 15, 33, 84
17, 162464, Note_on_c, 15, 33, 0
17, 162480, Note_on_c, 15, 33, 84
17, 162651, Note_on_c, 15, 33, 0
17, 162660, Note_on_c, 15, 33, 84
17, 162711, Note_on_c, 15, 33, 0
17, 162720, Note_on_c, 15, 33, 84
17, 162824, Note_on_c, 15, 33, 0
17, 162840, Note_on_c, 15, 33, 84
17, 163011, Note_on_c, 15, 33, 0
17, 163020, Note_on_c, 15, 33, 84
17, 163071, Note_on_c, 15, 33, 0
17, 163080, Note_on_c, 15, 33, 84
17, 163184, Note_on_c, 15, 33, 0
17, 163200, Note_on_c, 15, 33, 84
17, 163371, Note_on_c, 15, 33, 0
17, 163380, Note_on_c, 15, 33, 84
17, 163431, Note_on_c, 15, 33, 0
17, 163440, Note_on_c, 15, 33, 84
17, 163544, Note_on_c, 15, 33, 0
17, 163560, Note_on_c, 15, 33, 84
17, 163731, Note_on_c, 15, 33, 0
17, 163740, Note_on_c, 15, 33, 84
17, 163791, Note_on_c, 15, 33, 0
17, 163800, Note_on_c, 15, 33, 84
17, 163904, Note_on_c, 15, 33, 0
17, 163920, Note_on_c, 15, 33, 84
17, 164091, Note_on_c, 15, 33, 0
17, 164100, Note_on_c, 15, 33, 84
17, 164151, Note_on_c, 15, 33, 0
17, 164160, Note_on_c, 15, 33, 84
17, 164264, Note_on_c, 15, 33, 0
17, 164280, Note_on_c, 15, 33, 84
17, 164451, Note_on_c, 15, 33, 0
17, 164460, Note_on_c, 15, 33, 84
17, 164511, Note_on_c, 15, 33, 0
17, 164520, Note_on_c, 15, 33, 84
17, 164624, Note_on_c, 15, 33, 0
17, 164640, Note_on_c, 15, 33, 84
17, 164811, Note_on_c, 15, 33, 0
17, 164820, Note_on_c, 15, 33, 84
17, 164871, Note_on_c, 15, 33, 0
17, 164880, Note_on_c, 15, 37, 84
17, 164984, Note_on_c, 15, 37, 0
17, 165000, Note_on_c, 15, 40, 84
17, 165171, Note_on_c, 15, 40, 0
17, 165180, Note_on_c, 15, 40, 84
17, 165231, Note_on_c, 15, 40, 0
17, 165240, Note_on_c, 15, 28, 84
17, 165344, Note_on_c, 15, 28, 0
17, 165360, Note_on_c, 15, 33, 84
17, 165531, Note_on_c, 15, 33, 0
17, 165540, Note_on_c, 15, 33, 84
17, 165591, Note_on_c, 15, 33, 0
17, 165600, Note_on_c, 15, 33, 84
17, 165704, Note_on_c, 15, 33, 0
17, 165720, Note_on_c, 15, 33, 84
17, 165891, Note_on_c, 15, 33, 0
17, 165900, Note_on_c, 15, 33, 84
17, 165951, Note_on_c, 15, 33, 0
17, 165960, Note_on_c, 15, 33, 84
17, 166064, Note_on_c, 15, 33, 0
17, 166080, Note_on_c, 15, 33, 84
17, 166319, Note_on_c, 15, 33, 0
17, 166680, Note_on_c, 15, 33, 84
17, 166784, Note_on_c, 15, 33, 0
17, 166800, Note_on_c, 15, 33, 84
17, 167024, Note_on_c, 15, 33, 0
17, 167040, Note_on_c, 15, 33, 84
17, 167144, Note_on_c, 15, 33, 0
17, 167160, Note_on_c, 15, 33, 84
17, 167331, Note_on_c, 15, 33, 0
17, 167340, Note_on_c, 15, 37, 84
17, 167384, Note_on_c, 15, 37, 0
17, 167400, Note_on_c, 15, 40, 84
17, 167489, Note_on_c, 15, 40, 0
17, 167520, Note_on_c, 15, 43, 84
17, 167639, Note_on_c, 15, 43, 0
17, 167640, Note_on_c, 15, 42, 84
17, 167744, Note_on_c, 15, 42, 0
17, 167760, Note_on_c, 15, 38, 84
17, 167849, Note_on_c, 15, 38, 0
17, 167880, Note_on_c, 15, 33, 84
17, 168104, Note_on_c, 15, 33, 0
17, 168120, Note_on_c, 15, 33, 84
17, 168224, Note_on_c, 15, 33, 0
17, 168240, Note_on_c, 15, 33, 84
17, 168464, Note_on_c, 15, 33, 0
17, 168480, Note_on_c, 15, 33, 84
17, 168584, Note_on_c, 15, 33, 0
17, 168600, Note_on_c, 15, 33, 84
17, 168771, Note_on_c, 15, 33, 0
17, 168780, Note_on_c, 15, 37, 84
17, 168824, Note_on_c, 15, 37, 0
17, 168840, Note_on_c, 15, 40, 52
17, 168929, Note_on_c, 15, 40, 0
17, 168960, Note_on_c, 15, 45, 52
17, 169079, Note_on_c, 15, 45, 0
17, 169080, Note_on_c, 15, 49, 52
17, 169184, Note_on_c, 15, 49, 0
17, 169200, Note_on_c, 15, 52, 53
17, 169289, Note_on_c, 15, 52, 0
17, 169320, Note_on_c, 15, 33, 54
17, 169491, Note_on_c, 15, 33, 0
17, 169500, Note_on_c, 15, 37, 55
17, 169544, Note_on_c, 15, 37, 0
17, 169560, Note_on_c, 15, 40, 55
17, 169649, Note_on_c, 15, 40, 0
17, 169680, Note_on_c, 15, 45, 56
17, 169799, Note_on_c, 15, 45, 0
17, 169800, Note_on_c, 15, 50, 56
17, 169904, Note_on_c, 15, 50, 0
17, 169920, Note_on_c, 15, 54, 57
17, 170009, Note_on_c, 15, 54, 0
17, 170040, Note_on_c, 15, 33, 58
17, 170211, Note_on_c, 15, 33, 0
17, 170220, Note_on_c, 15, 38, 59
17, 170264, Note_on_c, 15, 38, 0
17, 170280, Note_on_c, 15, 42, 59
17, 170369, Note_on_c, 15, 42, 0
17, 170400, Note_on_c, 15, 45, 60
17, 170519, Note_on_c, 15, 45, 0
17, 170520, Note_on_c, 15, 47, 60
17, 170624, Note_on_c, 15, 47, 0
17, 170640, Note_on_c, 15, 50, 61
17, 170729, Note_on_c, 15, 50, 0
17, 170760, Note_on_c, 15, 33, 62
17, 170931, Note_on_c, 15, 33, 0
17, 170940, Note_on_c, 15, 35, 63
17, 170984, Note_on_c, 15, 35, 0
17, 171000, Note_on_c, 15, 38, 63
17, 171089, Note_on_c, 15, 38, 0
17, 171120, Note_on_c, 15, 45, 64
17, 171239, Note_on_c, 15, 45, 0
17, 171240, Note_on_c, 15, 49, 64
17, 171344, Note_on_c, 15, 49, 0
17, 171360, Note_on_c, 15, 52, 65
17, 171449, Note_on_c, 15, 52, 0
17, 171480, Note_on_c, 15, 33, 66
17, 171651, Note_on_c, 15, 33, 0
17, 171660, Note_on_c, 15, 37, 67
17, 171704, Note_on_c, 15, 37, 0
17, 171720, Note_on_c, 15, 40, 67
17, 171809, Note_on_c, 15, 40, 0
17, 171840, Note_on_c, 15, 45, 68
17, 171929, Note_on_c, 15, 45, 0
17, 171960, Note_on_c, 15, 49, 68
17, 172049, Note_on_c, 15, 49, 0
17, 172080, Note_on_c, 15, 52, 69
17, 172169, Note_on_c, 15, 52, 0
17, 172200, Note_on_c, 15, 33, 70
17, 172289, Note_on_c, 15, 33, 0
17, 172320, Note_on_c, 15, 37, 70
17, 172409, Note_on_c, 15, 37, 0
17, 172440, Note_on_c, 15, 40, 71
17, 172529, Note_on_c, 15, 40, 0
17, 172560, Note_on_c, 15, 45, 72
17, 172649, Note_on_c, 15, 45, 0
17, 172680, Note_on_c, 15, 50, 72
17, 172769, Note_on_c, 15, 50, 0
17, 172800, Note_on_c, 15, 54, 73
17, 172889, Note_on_c, 15, 54, 0
17, 172920, Note_on_c, 15, 33, 74
17, 173009, Note_on_c, 15, 33, 0
17, 173040, Note_on_c, 15, 38, 74
17, 173129, Note_on_c, 15, 38, 0
17, 173160, Note_on_c, 15, 42, 75
17, 173249, Note_on_c, 15, 42, 0
17, 173280, Note_on_c, 15, 45, 76
17, 173369, Note_on_c, 15, 45, 0
17, 173400, Note_on_c, 15, 47, 76
17, 173489, Note_on_c, 15, 47, 0
17, 173520, Note_on_c, 15, 50, 77
17, 173609, Note_on_c, 15, 50, 0
17, 173640, Note_on_c, 15, 33, 78
17, 173729, Note_on_c, 15, 33, 0
17, 173760, Note_on_c, 15, 35, 78
17, 173849, Note_on_c, 15, 35, 0
17, 173880, Note_on_c, 15, 38, 79
17, 173969, Note_on_c, 15, 38, 0
17, 174000, Note_on_c, 15, 45, 80
17, 174089, Note_on_c, 15, 45, 0
17, 174120, Note_on_c, 15, 49, 80
17, 174209, Note_on_c, 15, 49, 0
17, 174240, Note_on_c, 15, 52, 81
17, 174329, Note_on_c, 15, 52, 0
17, 174360, Note_on_c, 15, 33, 82
17, 174449, Note_on_c, 15, 33, 0
17, 174480, Note_on_c, 15, 37, 82
17, 174569, Note_on_c, 15, 37, 0
17, 174600, Note_on_c, 15, 40, 83
17, 174689, Note_on_c, 15, 40, 0
17, 174720, Note_on_c, 15, 36, 84
17, 174771, Note_on_c, 15, 36, 0
17, 174780, Note_on_c, 15, 48, 84
17, 174831, Note_on_c, 15, 48, 0
17, 174840, Note_on_c, 15, 48, 84
17, 174891, Note_on_c, 15, 48, 0
17, 174900, Note_on_c, 15, 48, 84
17, 174951, Note_on_c, 15, 48, 0
17, 174960, Note_on_c, 15, 48, 84
17, 175011, Note_on_c, 15, 48, 0
17, 175020, Note_on_c, 15, 48, 84
17, 175071, Note_on_c, 15, 48, 0
17, 175080, Note_on_c, 15, 48, 84
17, 175131, Note_on_c, 15, 48, 0
17, 175140, Note_on_c, 15, 48, 84
17, 175191, Note_on_c, 15, 48, 0
17, 175200, Note_on_c, 15, 48, 84
17, 175251, Note_on_c, 15, 48, 0
17, 175260, Note_on_c, 15, 48, 84
17, 175311, Note_on_c, 15, 48, 0
17, 175320, Note_on_c, 15, 48, 84
17, 175371, Note_on_c, 15, 48, 0
17, 175380, Note_on_c, 15, 48, 84
17, 175431, Note_on_c, 15, 48, 0
17, 175440, Note_on_c, 15, 47, 84
17, 175491, Note_on_c, 15, 47, 0
17, 175500, Note_on_c, 15, 47, 84
17, 175551, Note_on_c, 15, 47, 0
17, 175560, Note_on_c, 15, 47, 84
17, 175611, Note_on_c, 15, 47, 0
17, 175620, Note_on_c, 15, 47, 84
17, 175671, Note_on_c, 15, 47, 0
17, 175680, Note_on_c, 15, 47, 84
17, 175731, Note_on_c, 15, 47, 0
17, 175740, Note_on_c, 15, 47, 84
17, 175791, Note_on_c, 15, 47, 0
17, 175800, Note_on_c, 15, 47, 84
17, 175851, Note_on_c, 15, 47, 0
17, 175860, Note_on_c, 15, 47, 84
17, 175911, Note_on_c, 15, 47, 0
17, 175920, Note_on_c, 15, 47, 52
17, 175971, Note_on_c, 15, 47, 0
17, 175980, Note_on_c, 15, 47, 52
17, 176031, Note_on_c, 15, 47, 0
17, 176040, Note_on_c, 15, 47, 52
17, 176091, Note_on_c, 15, 47, 0
17, 176100, Note_on_c, 15, 47, 52
17, 176151, Note_on_c, 15, 47, 0
17, 176160, Note_on_c, 15, 45, 52
17, 176211, Note_on_c, 15, 45, 0
17, 176220, Note_on_c, 15, 45, 52
17, 176271, Note_on_c, 15, 45, 0
17, 176280, Note_on_c, 15, 45, 52
17, 176331, Note_on_c, 15, 45, 0
17, 176340, Note_on_c, 15, 45, 52
17, 176391, Note_on_c, 15, 45, 0
17, 176400, Note_on_c, 15, 45, 52
17, 176451, Note_on_c, 15, 45, 0
17, 176460, Note_on_c, 15, 45, 52
17, 176511, Note_on_c, 15, 45, 0
17, 176520, Note_on_c, 15, 45, 52
17, 176571, Note_on_c, 15, 45, 0
17, 176580, Note_on_c, 15, 45, 52
17, 176631, Note_on_c, 15, 45, 0
17, 176640, Note_on_c, 15, 45, 52
17, 176691, Note_on_c, 15, 45, 0
17, 176700, Note_on_c, 15, 45, 52
17, 176751, Note_on_c, 15, 45, 0
17, 176760, Note_on_c, 15, 45, 52
17, 176811, Note_on_c, 15, 45, 0
17, 176820, Note_on_c, 15, 45, 52
17, 176871, Note_on_c, 15, 45, 0
17, 176880, Note_on_c, 15, 44, 52
17, 177119, Note_on_c, 15, 44, 0
17, 177240, Note_on_c, 15, 44, 52
17, 177479, Note_on_c, 15, 44, 0
17, 177600, Note_on_c, 15, 44, 52
17, 177839, Note_on_c, 15, 44, 0
17, 177960, Note_on_c, 15, 44, 52
17, 178199, Note_on_c, 15, 44, 0
17, 178320, Note_on_c, 15, 44, 52
17, 178559, Note_on_c, 15, 44, 0
17, 178680, Note_on_c, 15, 44, 52
17, 178919, Note_on_c, 15, 44, 0
17, 179040, Note_on_c, 15, 37, 52
17, 179091, Note_on_c, 15, 37, 0
17, 179100, Note_on_c, 15, 37, 54
17, 179151, Note_on_c, 15, 37, 0
17, 179160, Note_on_c, 15, 37, 56
17, 179211, Note_on_c, 15, 37, 0
17, 179220, Note_on_c, 15, 37, 58
17, 179271, Note_on_c, 15, 37, 0
17, 179280, Note_on_c, 15, 37, 60
17, 179331, Note_on_c, 15, 37, 0
17, 179340, Note_on_c, 15, 37, 62
17, 179391, Note_on_c, 15, 37, 0
17, 179400, Note_on_c, 15, 40, 64
17, 179451, Note_on_c, 15, 40, 0
17, 179460, Note_on_c, 15, 40, 66
17, 179511, Note_on_c, 15, 40, 0
17, 179520, Note_on_c, 15, 40, 68
17, 179571, Note_on_c, 15, 40, 0
17, 179580, Note_on_c, 15, 40, 70
17, 179631, Note_on_c, 15, 40, 0
17, 179640, Note_on_c, 15, 40, 72
17, 179691, Note_on_c, 15, 40, 0
17, 179700, Note_on_c, 15, 40, 74
17, 179751, Note_on_c, 15, 40, 0
17, 179760, Note_on_c, 15, 39, 76
17, 179999, Note_on_c, 15, 39, 0
17, 180120, Note_on_c, 15, 39, 52
17, 180359, Note_on_c, 15, 39, 0
17, 180480, Note_on_c, 15, 39, 52
17, 180719, Note_on_c, 15, 39, 0
17, 180840, Note_on_c, 15, 39, 52
17, 181079, Note_on_c, 15, 39, 0
17, 181200, Note_on_c, 15, 39, 52
17, 181439, Note_on_c, 15, 39, 0
17, 181560, Note_on_c, 15, 39, 52
17, 181799, Note_on_c, 15, 39, 0
17, 181918, Control_c, 15, 11, 80
17, 181920, Control_c, 15, 11, 80
17, 181920, Note_on_c, 15, 44, 76
17, 181960, Control_c, 15, 11, 83
17, 182000, Control_c, 15, 11, 85
17, 182040, Control_c, 15, 11, 88
17, 182080, Control_c, 15, 11, 90
17, 182120, Control_c, 15, 11, 93
17, 182160, Control_c, 15, 11, 96
17, 182200, Control_c, 15, 11, 98
17, 182240, Control_c, 15, 11, 101
17, 182280, Control_c, 15, 11, 104
17, 182320, Control_c, 15, 11, 106
17, 182360, Control_c, 15, 11, 109
17, 182400, Control_c, 15, 11, 111
17, 182440, Control_c, 15, 11, 114
17, 182480, Control_c, 15, 11, 117
17, 182520, Control_c, 15, 11, 119
17, 182560, Control_c, 15, 11, 122
17, 182600, Control_c, 15, 11, 127
17, 182624, Note_on_c, 15, 44, 0
17, 182640, Note_on_c, 15, 30, 76
17, 182864, Note_on_c, 15, 30, 0
17, 182880, Note_on_c, 15, 30, 76
17, 182984, Note_on_c, 15, 30, 0
17, 183000, Note_on_c, 15, 42, 76
17, 183224, Note_on_c, 15, 42, 0
17, 183240, Note_on_c, 15, 42, 76
17, 183344, Note_on_c, 15, 42, 0
17, 183360, Note_on_c, 15, 42, 76
17, 183479, Note_on_c, 15, 42, 0
17, 183480, Note_on_c, 15, 40, 76
17, 184064, Note_on_c, 15, 40, 0
17, 184080, Note_on_c, 15, 27, 76
17, 184304, Note_on_c, 15, 27, 0
17, 184320, Note_on_c, 15, 27, 76
17, 184424, Note_on_c, 15, 27, 0
17, 184440, Note_on_c, 15, 39, 76
17, 184664, Note_on_c, 15, 39, 0
17, 184680, Note_on_c, 15, 39, 76
17, 184784, Note_on_c, 15, 39, 0
17, 184800, Note_on_c, 15, 39, 76
17, 184919, Note_on_c, 15, 39, 0
17, 184920, Note_on_c, 15, 37, 76
17, 185384, Note_on_c, 15, 37, 0
17, 185400, Note_on_c, 15, 36, 76
17, 185504, Note_on_c, 15, 36, 0
17, 185520, Note_on_c, 15, 35, 76
17, 185699, Note_on_c, 15, 35, 0
17, 185880, Note_on_c, 15, 35, 76
17, 186059, Note_on_c, 15, 35, 0
17, 186240, Note_on_c, 15, 35, 76
17, 186419, Note_on_c, 15, 35, 0
17, 186600, Note_on_c, 15, 35, 76
17, 186779, Note_on_c, 15, 35, 0
17, 186960, Note_on_c, 15, 35, 76
17, 187139, Note_on_c, 15, 35, 0
17, 187320, Note_on_c, 15, 35, 76
17, 187499, Note_on_c, 15, 35, 0
17, 187680, Note_on_c, 15, 35, 76
17, 187859, Note_on_c, 15, 35, 0
17, 188040, Note_on_c, 15, 35, 76
17, 188219, Note_on_c, 15, 35, 0
17, 188400, Note_on_c, 15, 37, 84
17, 188460, Control_c, 15, 11, 112
17, 188497, Control_c, 15, 11, 109
17, 188533, Control_c, 15, 11, 107
17, 188570, Control_c, 15, 11, 104
17, 188607, Control_c, 15, 11, 101
17, 188643, Control_c, 15, 11, 99
17, 188680, Control_c, 15, 11, 96
17, 188717, Control_c, 15, 11, 93
17, 188753, Control_c, 15, 11, 91
17, 188790, Control_c, 15, 11, 88
17, 188827, Control_c, 15, 11, 85
17, 188863, Control_c, 15, 11, 83
17, 188900, Control_c, 15, 11, 80
17, 188937, Control_c, 15, 11, 77
17, 188973, Control_c, 15, 11, 75
17, 188999, Note_on_c, 15, 37, 0
17, 189000, Note_on_c, 15, 36, 84
17, 189010, Control_c, 15, 11, 72
17, 189047, Control_c, 15, 11, 69
17, 189083, Control_c, 15, 11, 64
17, 189104, Note_on_c, 15, 36, 0
17, 189120, Note_on_c, 15, 35, 84
17, 189719, Note_on_c, 15, 35, 0
17, 189720, Note_on_c, 15, 37, 84
17, 189779, Note_on_c, 15, 37, 0
17, 189780, Note_on_c, 15, 39, 84
17, 189839, Note_on_c, 15, 39, 0
17, 189840, Note_on_c, 15, 40, 84
17, 190079, Note_on_c, 15, 40, 0
17, 191160, Control_c, 15, 11, 127
17, 191280, Note_on_c, 15, 40, 48
17, 191639, Note_on_c, 15, 40, 0
17, 191640, Note_on_c, 15, 44, 48
17, 191999, Note_on_c, 15, 44, 0
17, 192000, Note_on_c, 15, 47, 48
17, 192359, Note_on_c, 15, 47, 0
17, 192360, Note_on_c, 15, 35, 48
17, 192704, Note_on_c, 15, 35, 0
17, 192720, Note_on_c, 15, 40, 76
17, 193064, Note_on_c, 15, 40, 0
17, 193080, Note_on_c, 15, 40, 76
17, 193251, Note_on_c, 15, 40, 0
17, 193260, Note_on_c, 15, 40, 76
17, 193311, Note_on_c, 15, 40, 0
17, 193320, Note_on_c, 15, 40, 76
17, 193424, Note_on_c, 15, 40, 0
17, 193440, Note_on_c, 15, 40, 76
17, 193611, Note_on_c, 15, 40, 0
17, 193620, Note_on_c, 15, 40, 76
17, 193671, Note_on_c, 15, 40, 0
17, 193680, Note_on_c, 15, 40, 76
17, 193784, Note_on_c, 15, 40, 0
17, 193800, Note_on_c, 15, 40, 76
17, 193971, Note_on_c, 15, 40, 0
17, 193980, Note_on_c, 15, 40, 76
17, 194031, Note_on_c, 15, 40, 0
17, 194040, Note_on_c, 15, 38, 76
17, 194144, Note_on_c, 15, 38, 0
17, 194160, Note_on_c, 15, 36, 76
17, 194331, Note_on_c, 15, 36, 0
17, 194340, Note_on_c, 15, 48, 76
17, 194391, Note_on_c, 15, 48, 0
17, 194400, Note_on_c, 15, 43, 76
17, 194504, Note_on_c, 15, 43, 0
17, 194520, Note_on_c, 15, 40, 76
17, 194691, Note_on_c, 15, 40, 0
17, 194700, Note_on_c, 15, 40, 76
17, 194751, Note_on_c, 15, 40, 0
17, 194760, Note_on_c, 15, 36, 76
17, 194864, Note_on_c, 15, 36, 0
17, 194880, Note_on_c, 15, 31, 76
17, 195051, Note_on_c, 15, 31, 0
17, 195060, Note_on_c, 15, 31, 76
17, 195111, Note_on_c, 15, 31, 0
17, 195120, Note_on_c, 15, 28, 76
17, 195224, Note_on_c, 15, 28, 0
17, 195240, Note_on_c, 15, 24, 76
17, 195411, Note_on_c, 15, 24, 0
17, 195420, Note_on_c, 15, 36, 76
17, 195471, Note_on_c, 15, 36, 0
17, 195480, Note_on_c, 15, 31, 76
17, 195584, Note_on_c, 15, 31, 0
17, 195600, Note_on_c, 15, 36, 76
17, 195839, Note_on_c, 15, 36, 0
17, 196140, Note_on_c, 15, 31, 75
17, 196191, Note_on_c, 15, 31, 0
17, 196200, Note_on_c, 15, 31, 73
17, 196304, Note_on_c, 15, 31, 0
17, 196320, Note_on_c, 15, 36, 70
17, 196559, Note_on_c, 15, 36, 0
17, 196860, Note_on_c, 15, 31, 57
17, 196911, Note_on_c, 15, 31, 0
17, 196920, Note_on_c, 15, 31, 55
17, 197024, Note_on_c, 15, 31, 0
17, 197040, Note_on_c, 15, 36, 52
17, 197279, Note_on_c, 15, 36, 0
17, 197760, Note_on_c, 15, 36, 44
17, 197999, Note_on_c, 15, 36, 0
17, 198720, Note_on_c, 15, 27, 44
17, 198779, Note_on_c, 15, 27, 0
17, 198780, Note_on_c, 15, 28, 44
17, 198839, Note_on_c, 15, 28, 0
17, 198840, Note_on_c, 15, 30, 44
17, 199019, Note_on_c, 15, 30, 0
17, 200160, Note_on_c, 15, 27, 44
17, 200219, Note_on_c, 15, 27, 0
17, 200220, Note_on_c, 15, 28, 44
17, 200279, Note_on_c, 15, 28, 0
17, 200280, Note_on_c, 15, 30, 44
17, 200459, Note_on_c, 15, 30, 0
17, 201600, Note_on_c, 15, 27, 46
17, 201659, Note_on_c, 15, 27, 0
17, 201660, Note_on_c, 15, 28, 46
17, 201719, Note_on_c, 15, 28, 0
17, 201720, Note_on_c, 15, 30, 47
17, 201839, Note_on_c, 15, 30, 0
17, 201960, Note_on_c, 15, 28, 49
17, 202019, Note_on_c, 15, 28, 0
17, 202020, Note_on_c, 15, 30, 50
17, 202079, Note_on_c, 15, 30, 0
17, 202080, Note_on_c, 15, 32, 50
17, 202199, Note_on_c, 15, 32, 0
17, 202320, Note_on_c, 15, 28, 52
17, 202379, Note_on_c, 15, 28, 0
17, 202380, Note_on_c, 15, 30, 53
17, 202439, Note_on_c, 15, 30, 0
17, 202440, Note_on_c, 15, 32, 54
17, 202559, Note_on_c, 15, 32, 0
17, 202680, Note_on_c, 15, 30, 56
17, 202739, Note_on_c, 15, 30, 0
17, 202740, Note_on_c, 15, 32, 56
17, 202799, Note_on_c, 15, 32, 0
17, 202800, Note_on_c, 15, 33, 57
17, 202919, Note_on_c, 15, 33, 0
17, 203040, Note_on_c, 15, 30, 59
17, 203099, Note_on_c, 15, 30, 0
17, 203100, Note_on_c, 15, 32, 60
17, 203159, Note_on_c, 15, 32, 0
17, 203160, Note_on_c, 15, 33, 60
17, 203279, Note_on_c, 15, 33, 0
17, 203400, Note_on_c, 15, 32, 62
17, 203459, Note_on_c, 15, 32, 0
17, 203460, Note_on_c, 15, 33, 63
17, 203519, Note_on_c, 15, 33, 0
17, 203520, Note_on_c, 15, 35, 64
17, 203639, Note_on_c, 15, 35, 0
17, 203760, Note_on_c, 15, 32, 66
17, 203819, Note_on_c, 15, 32, 0
17, 203820, Note_on_c, 15, 33, 66
17, 203879, Note_on_c, 15, 33, 0
17, 203880, Note_on_c, 15, 35, 67
17, 203999, Note_on_c, 15, 35, 0
17, 204120, Note_on_c, 15, 33, 69
17, 204179, Note_on_c, 15, 33, 0
17, 204180, Note_on_c, 15, 35, 70
17, 204239, Note_on_c, 15, 35, 0
17, 204240, Note_on_c, 15, 37, 70
17, 204359, Note_on_c, 15, 37, 0
17, 204480, Note_on_c, 15, 33, 72
17, 204539, Note_on_c, 15, 33, 0
17, 204540, Note_on_c, 15, 35, 73
17, 204599, Note_on_c, 15, 35, 0
17, 204600, Note_on_c, 15, 37, 74
17, 204719, Note_on_c, 15, 37, 0
17, 204840, Note_on_c, 15, 35, 76
17, 204899, Note_on_c, 15, 35, 0
17, 204900, Note_on_c, 15, 37, 76
17, 204959, Note_on_c, 15, 37, 0
17, 204960, Note_on_c, 15, 39, 77
17, 205079, Note_on_c, 15, 39, 0
17, 205200, Note_on_c, 15, 35, 79
17, 205259, Note_on_c, 15, 35, 0
17, 205260, Note_on_c, 15, 37, 80
17, 205319, Note_on_c, 15, 37, 0
17, 205320, Note_on_c, 15, 39, 80
17, 205439, Note_on_c, 15, 39, 0
17, 205560, Note_on_c, 15, 37, 82
17, 205619, Note_on_c, 15, 37, 0
17, 205620, Note_on_c, 15, 39, 83
17, 205679, Note_on_c, 15, 39, 0
17, 205680, Note_on_c, 15, 40, 84
17, 205851, Note_on_c, 15, 40, 0
17, 205860, Note_on_c, 15, 52, 84
17, 205911, Note_on_c, 15, 52, 0
17, 205920, Note_on_c, 15, 47, 84
17, 206024, Note_on_c, 15, 47, 0
17, 206040, Note_on_c, 15, 44, 84
17, 206211, Note_on_c, 15, 44, 0
17, 206220, Note_on_c, 15, 44, 84
17, 206271, Note_on_c, 15, 44, 0
17, 206280, Note_on_c, 15, 40, 84
17, 206384, Note_on_c, 15, 40, 0
17, 206400, Note_on_c, 15, 35, 84
17, 206571, Note_on_c, 15, 35, 0
17, 206580, Note_on_c, 15, 35, 84
17, 206631, Note_on_c, 15, 35, 0
17, 206640, Note_on_c, 15, 32, 84
17, 206744, Note_on_c, 15, 32, 0
17, 206760, Note_on_c, 15, 28, 84
17, 206999, Note_on_c, 15, 28, 0
17, 207120, Note_on_c, 15, 57, 84
17, 207291, Note_on_c, 15, 57, 0
17, 207300, Note_on_c, 15, 57, 84
17, 207351, Note_on_c, 15, 57, 0
17, 207360, Note_on_c, 15, 54, 84
17, 207464, Note_on_c, 15, 54, 0
17, 207480, Note_on_c, 15, 49, 84
17, 207651, Note_on_c, 15, 49, 0
17, 207660, Note_on_c, 15, 49, 84
17, 207711, Note_on_c, 15, 49, 0
17, 207720, Note_on_c, 15, 45, 84
17, 207824, Note_on_c, 15, 45, 0
17, 207840, Note_on_c, 15, 42, 84
17, 208011, Note_on_c, 15, 42, 0
17, 208020, Note_on_c, 15, 42, 84
17, 208071, Note_on_c, 15, 42, 0
17, 208080, Note_on_c, 15, 37, 84
17, 208184, Note_on_c, 15, 37, 0
17, 208200, Note_on_c, 15, 33, 84
17, 208439, Note_on_c, 15, 33, 0
17, 210000, Note_on_c, 15, 40, 84
17, 210171, Note_on_c, 15, 40, 0
17, 210180, Note_on_c, 15, 52, 84
17, 210231, Note_on_c, 15, 52, 0
17, 210240, Note_on_c, 15, 47, 84
17, 210344, Note_on_c, 15, 47, 0
17, 210360, Note_on_c, 15, 44, 84
17, 210531, Note_on_c, 15, 44, 0
17, 210540, Note_on_c, 15, 44, 84
17, 210591, Note_on_c, 15, 44, 0
17, 210600, Note_on_c, 15, 40, 84
17, 210704, Note_on_c, 15, 40, 0
17, 210720, Note_on_c, 15, 35, 84
17, 210891, Note_on_c, 15, 35, 0
17, 210900, Note_on_c, 15, 35, 84
17, 210951, Note_on_c, 15, 35, 0
17, 210960, Note_on_c, 15, 32, 84
17, 211064, Note_on_c, 15, 32, 0
17, 211080, Note_on_c, 15, 28, 84
17, 211319, Note_on_c, 15, 28, 0
17, 211440, Note_on_c, 15, 57, 84
17, 211611, Note_on_c, 15, 57, 0
17, 211620, Note_on_c, 15, 57, 84
17, 211671, Note_on_c, 15, 57, 0
17, 211680, Note_on_c, 15, 54, 84
17, 211784, Note_on_c, 15, 54, 0
17, 211800, Note_on_c, 15, 49, 84
17, 211971, Note_on_c, 15, 49, 0
17, 211980, Note_on_c, 15, 49, 84
17, 212031, Note_on_c, 15, 49, 0
17, 212040, Note_on_c, 15, 45, 84
17, 212144, Note_on_c, 15, 45, 0
17, 212160, Note_on_c, 15, 42, 84
17, 212331, Note_on_c, 15, 42, 0
17, 212340, Note_on_c, 15, 42, 84
17, 212391, Note_on_c, 15, 42, 0
17, 212400, Note_on_c, 15, 37, 84
17, 212504, Note_on_c, 15, 37, 0
17, 212520, Note_on_c, 15, 33, 84
17, 212759, Note_on_c, 15, 33, 0
17, 212880, Note_on_c, 15, 33, 44
17, 213584, Note_on_c, 15, 33, 0
17, 213598, Control_c, 15, 11, 48
17, 213600, Note_on_c, 15, 35, 84
17, 213640, Control_c, 15, 11, 52
17, 213680, Control_c, 15, 11, 57
17, 213720, Control_c, 15, 11, 61
17, 213760, Control_c, 15, 11, 66
17, 213800, Control_c, 15, 11, 70
17, 213840, Control_c, 15, 11, 74
17, 213880, Control_c, 15, 11, 79
17, 213920, Control_c, 15, 11, 83
17, 213960, Control_c, 15, 11, 88
17, 214000, Control_c, 15, 11, 92
17, 214040, Control_c, 15, 11, 96
17, 214080, Control_c, 15, 11, 101
17, 214120, Control_c, 15, 11, 105
17, 214160, Control_c, 15, 11, 109
17, 214200, Control_c, 15, 11, 114
17, 214240, Control_c, 15, 11, 118
17, 214280, Control_c, 15, 11, 123
17, 214304, Note_on_c, 15, 35, 0
17, 214318, Control_c, 15, 11, 127
17, 214320, Note_on_c, 15, 40, 84
17, 214559, Note_on_c, 15, 40, 0
17, 214680, Note_on_c, 15, 44, 84
17, 214919, Note_on_c, 15, 44, 0
17, 215040, Note_on_c, 15, 47, 84
17, 215279, Note_on_c, 15, 47, 0
17, 215580, Note_on_c, 15, 47, 84
17, 215631, Note_on_c, 15, 47, 0
17, 215640, Note_on_c, 15, 47, 84
17, 215744, Note_on_c, 15, 47, 0
17, 215760, Note_on_c, 15, 47, 92
17, 215819, Note_on_c, 15, 47, 0
17, 215820, Note_on_c, 15, 47, 84
17, 216291, Note_on_c, 15, 47, 0
17, 216300, Note_on_c, 15, 45, 84
17, 216344, Note_on_c, 15, 45, 0
17, 216360, Note_on_c, 15, 44, 84
17, 216441, Note_on_c, 15, 44, 0
17, 216450, Note_on_c, 15, 44, 84
17, 216479, Note_on_c, 15, 44, 0
17, 216480, Note_on_c, 15, 45, 92
17, 216539, Note_on_c, 15, 45, 0
17, 216540, Note_on_c, 15, 45, 84
17, 217011, Note_on_c, 15, 45, 0
17, 217020, Note_on_c, 15, 37, 84
17, 217064, Note_on_c, 15, 37, 0
17, 217080, Note_on_c, 15, 39, 84
17, 217169, Note_on_c, 15, 39, 0
17, 217200, Note_on_c, 15, 40, 84
17, 217439, Note_on_c, 15, 40, 0
17, 217740, Note_on_c, 15, 47, 84
17, 217791, Note_on_c, 15, 47, 0
17, 217800, Note_on_c, 15, 47, 84
17, 217904, Note_on_c, 15, 47, 0
17, 217920, Note_on_c, 15, 47, 92
17, 217979, Note_on_c, 15, 47, 0
17, 217980, Note_on_c, 15, 47, 84
17, 218151, Note_on_c, 15, 47, 0
17, 218160, Note_on_c, 15, 44, 84
17, 218241, Note_on_c, 15, 44, 0
17, 218250, Note_on_c, 15, 44, 84
17, 218279, Note_on_c, 15, 44, 0
17, 218280, Note_on_c, 15, 45, 84
17, 218451, Note_on_c, 15, 45, 0
17, 218460, Note_on_c, 15, 37, 84
17, 218504, Note_on_c, 15, 37, 0
17, 218520, Note_on_c, 15, 39, 84
17, 218609, Note_on_c, 15, 39, 0
17, 218640, Note_on_c, 15, 40, 84
17, 218879, Note_on_c, 15, 40, 0
17, 219180, Note_on_c, 15, 47, 84
17, 219231, Note_on_c, 15, 47, 0
17, 219240, Note_on_c, 15, 47, 84
17, 219321, Note_on_c, 15, 47, 0
17, 219330, Note_on_c, 15, 39, 84
17, 219359, Note_on_c, 15, 39, 0
17, 219360, Note_on_c, 15, 40, 84
17, 219539, Note_on_c, 15, 40, 0
17, 219690, Note_on_c, 15, 28, 84
17, 219719, Note_on_c, 15, 28, 0
17, 219720, Note_on_c, 15, 30, 84
17, 219899, Note_on_c, 15, 30, 0
17, 220050, Note_on_c, 15, 30, 84
17, 220079, Note_on_c, 15, 30, 0
17, 220080, Note_on_c, 15, 32, 84
17, 220259, Note_on_c, 15, 32, 0
17, 220410, Note_on_c, 15, 32, 84
17, 220439, Note_on_c, 15, 32, 0
17, 220440, Note_on_c, 15, 33, 84
17, 220619, Note_on_c, 15, 33, 0
17, 220770, Note_on_c, 15, 33, 84
17, 220799, Note_on_c, 15, 33, 0
17, 220800, Note_on_c, 15, 35, 84
17, 220979, Note_on_c, 15, 35, 0
17, 221130, Note_on_c, 15, 35, 84
17, 221159, Note_on_c, 15, 35, 0
17, 221160, Note_on_c, 15, 37, 84
17, 221339, Note_on_c, 15, 37, 0
17, 221490, Note_on_c, 15, 37, 84
17, 221519, Note_on_c, 15, 37, 0
17, 221520, Note_on_c, 15, 38, 84
17, 221699, Note_on_c, 15, 38, 0
17, 221880, Note_on_c, 15, 39, 84
17, 222059, Note_on_c, 15, 39, 0
17, 223650, Note_on_c, 15, 27, 84
17, 223679, Note_on_c, 15, 27, 0
17, 223680, Note_on_c, 15, 28, 84
17, 223859, Note_on_c, 15, 28, 0
17, 224010, Note_on_c, 15, 28, 84
17, 224039, Note_on_c, 15, 28, 0
17, 224040, Note_on_c, 15, 29, 84
17, 224219, Note_on_c, 15, 29, 0
17, 224370, Note_on_c, 15, 29, 84
17, 224399, Note_on_c, 15, 29, 0
17, 224400, Note_on_c, 15, 30, 84
17, 224579, Note_on_c, 15, 30, 0
17, 224730, Note_on_c, 15, 30, 84
17, 224759, Note_on_c, 15, 30, 0
17, 224760, Note_on_c, 15, 31, 84
17, 224939, Note_on_c, 15, 31, 0
17, 229080, Note_on_c, 15, 31, 44
17, 229251, Note_on_c, 15, 31, 0
17, 229260, Note_on_c, 15, 31, 44
17, 229311, Note_on_c, 15, 31, 0
17, 229320, Note_on_c, 15, 31, 44
17, 229424, Note_on_c, 15, 31, 0
17, 229440, Note_on_c, 15, 31, 44
17, 229971, Note_on_c, 15, 31, 0
17, 229980, Note_on_c, 15, 29, 44
17, 230024, Note_on_c, 15, 29, 0
17, 230040, Note_on_c, 15, 28, 44
17, 230129, Note_on_c, 15, 28, 0
17, 230160, Note_on_c, 15, 29, 44
17, 230331, Note_on_c, 15, 29, 0
17, 230340, Note_on_c, 15, 31, 44
17, 230384, Note_on_c, 15, 31, 0
17, 230400, Note_on_c, 15, 33, 44
17, 230489, Note_on_c, 15, 33, 0
17, 230520, Note_on_c, 15, 35, 44
17, 230691, Note_on_c, 15, 35, 0
17, 230700, Note_on_c, 15, 36, 44
17, 230744, Note_on_c, 15, 36, 0
17, 230760, Note_on_c, 15, 38, 44
17, 230849, Note_on_c, 15, 38, 0
17, 230880, Note_on_c, 15, 40, 44
17, 231051, Note_on_c, 15, 40, 0
17, 231060, Note_on_c, 15, 41, 44
17, 231104, Note_on_c, 15, 41, 0
17, 231120, Note_on_c, 15, 43, 44
17, 231209, Note_on_c, 15, 43, 0
17, 231240, Note_on_c, 15, 45, 44
17, 231411, Note_on_c, 15, 45, 0
17, 231420, Note_on_c, 15, 47, 44
17, 231464, Note_on_c, 15, 47, 0
17, 231480, Note_on_c, 15, 48, 44
17, 231569, Note_on_c, 15, 48, 0
17, 231600, Note_on_c, 15, 50, 44
17, 231771, Note_on_c, 15, 50, 0
17, 231780, Note_on_c, 15, 48, 44
17, 231824, Note_on_c, 15, 48, 0
17, 231840, Note_on_c, 15, 47, 44
17, 231929, Note_on_c, 15, 47, 0
17, 231960, Note_on_c, 15, 45, 44
17, 232131, Note_on_c, 15, 45, 0
17, 232140, Note_on_c, 15, 43, 44
17, 232184, Note_on_c, 15, 43, 0
17, 232200, Note_on_c, 15, 41, 44
17, 232289, Note_on_c, 15, 41, 0
17, 232320, Note_on_c, 15, 40, 44
17, 232491, Note_on_c, 15, 40, 0
17, 232500, Note_on_c, 15, 38, 44
17, 232544, Note_on_c, 15, 38, 0
17, 232560, Note_on_c, 15, 36, 44
17, 232649, Note_on_c, 15, 36, 0
17, 232680, Note_on_c, 15, 36, 44
17, 232919, Note_on_c, 15, 36, 0
17, 233040, Note_on_c, 15, 35, 44
17, 233211, Note_on_c, 15, 35, 0
17, 233220, Note_on_c, 15, 33, 44
17, 233264, Note_on_c, 15, 33, 0
17, 233280, Note_on_c, 15, 31, 44
17, 233369, Note_on_c, 15, 31, 0
17, 233400, Note_on_c, 15, 31, 44
17, 233639, Note_on_c, 15, 31, 0
17, 233760, Note_on_c, 15, 36, 44
17, 233999, Note_on_c, 15, 36, 0
17, 234300, Note_on_c, 15, 36, 44
17, 234351, Note_on_c, 15, 36, 0
17, 234360, Note_on_c, 15, 36, 44
17, 234464, Note_on_c, 15, 36, 0
17, 234480, Note_on_c, 15, 36, 44
17, 234719, Note_on_c, 15, 36, 0
17, 235020, Note_on_c, 15, 36, 44
17, 235071, Note_on_c, 15, 36, 0
17, 235080, Note_on_c, 15, 36, 44
17, 235184, Note_on_c, 15, 36, 0
17, 235200, Note_on_c, 15, 36, 44
17, 235439, Note_on_c, 15, 36, 0
17, 235740, Note_on_c, 15, 36, 44
17, 235791, Note_on_c, 15, 36, 0
17, 235800, Note_on_c, 15, 36, 44
17, 235904, Note_on_c, 15, 36, 0
17, 235920, Note_on_c, 15, 36, 44
17, 236159, Note_on_c, 15, 36, 0
17, 236460, Note_on_c, 15, 36, 44
17, 236511, Note_on_c, 15, 36, 0
17, 236520, Note_on_c, 15, 36, 44
17, 236624, Note_on_c, 15, 36, 0
17, 236640, Note_on_c, 15, 36, 44
17, 236811, Note_on_c, 15, 36, 0
17, 236820, Note_on_c, 15, 36, 45
17, 236864, Note_on_c, 15, 36, 0
17, 236880, Note_on_c, 15, 36, 45
17, 236969, Note_on_c, 15, 36, 0
17, 237000, Note_on_c, 15, 36, 46
17, 237171, Note_on_c, 15, 36, 0
17, 237180, Note_on_c, 15, 36, 48
17, 237224, Note_on_c, 15, 36, 0
17, 237240, Note_on_c, 15, 36, 48
17, 237329, Note_on_c, 15, 36, 0
17, 237360, Note_on_c, 15, 36, 49
17, 237531, Note_on_c, 15, 36, 0
17, 237540, Note_on_c, 15, 36, 50
17, 237584, Note_on_c, 15, 36, 0
17, 237600, Note_on_c, 15, 36, 51
17, 237689, Note_on_c, 15, 36, 0
17, 237720, Note_on_c, 15, 36, 52
17, 237891, Note_on_c, 15, 36, 0
17, 237900, Note_on_c, 15, 36, 53
17, 237944, Note_on_c, 15, 36, 0
17, 237960, Note_on_c, 15, 36, 53
17, 238049, Note_on_c, 15, 36, 0
17, 238080, Note_on_c, 15, 36, 54
17, 238251, Note_on_c, 15, 36, 0
17, 238260, Note_on_c, 15, 36, 56
17, 238304, Note_on_c, 15, 36, 0
17, 238320, Note_on_c, 15, 36, 56
17, 238409, Note_on_c, 15, 36, 0
17, 238440, Note_on_c, 15, 36, 57
17, 238611, Note_on_c, 15, 36, 0
17, 238620, Note_on_c, 15, 36, 58
17, 238664, Note_on_c, 15, 36, 0
17, 238680, Note_on_c, 15, 36, 59
17, 238769, Note_on_c, 15, 36, 0
17, 238800, Note_on_c, 15, 36, 60
17, 238971, Note_on_c, 15, 36, 0
17, 238980, Note_on_c, 15, 36, 61
17, 239024, Note_on_c, 15, 36, 0
17, 239040, Note_on_c, 15, 36, 61
17, 239129, Note_on_c, 15, 36, 0
17, 239160, Note_on_c, 15, 36, 62
17, 239331, Note_on_c, 15, 36, 0
17, 239340, Note_on_c, 15, 36, 64
17, 239384, Note_on_c, 15, 36, 0
17, 239400, Note_on_c, 15, 36, 64
17, 239489, Note_on_c, 15, 36, 0
17, 239520, Note_on_c, 15, 36, 65
17, 239691, Note_on_c, 15, 36, 0
17, 239700, Note_on_c, 15, 36, 66
17, 239744, Note_on_c, 15, 36, 0
17, 239760, Note_on_c, 15, 36, 67
17, 239849, Note_on_c, 15, 36, 0
17, 239880, Note_on_c, 15, 36, 68
17, 240051, Note_on_c, 15, 36, 0
17, 240060, Note_on_c, 15, 36, 69
17, 240104, Note_on_c, 15, 36, 0
17, 240120, Note_on_c, 15, 36, 69
17, 240209, Note_on_c, 15, 36, 0
17, 240240, Note_on_c, 15, 36, 70
17, 240411, Note_on_c, 15, 36, 0
17, 240420, Note_on_c, 15, 36, 72
17, 240464, Note_on_c, 15, 36, 0
17, 240480, Note_on_c, 15, 36, 72
17, 240569, Note_on_c, 15, 36, 0
17, 240600, Note_on_c, 15, 36, 73
17, 240771, Note_on_c, 15, 36, 0
17, 240780, Note_on_c, 15, 36, 74
17, 240824, Note_on_c, 15, 36, 0
17, 240840, Note_on_c, 15, 36, 75
17, 240929, Note_on_c, 15, 36, 0
17, 240960, Note_on_c, 15, 36, 76
17, 241199, Note_on_c, 15, 36, 0
17, 241320, Note_on_c, 15, 48, 76
17, 241491, Note_on_c, 15, 48, 0
17, 241500, Note_on_c, 15, 48, 76
17, 241544, Note_on_c, 15, 48, 0
17, 241560, Note_on_c, 15, 43, 76
17, 241649, Note_on_c, 15, 43, 0
17, 241680, Note_on_c, 15, 43, 76
17, 242211, Note_on_c, 15, 43, 0
17, 242220, Note_on_c, 15, 43, 76
17, 242264, Note_on_c, 15, 43, 0
17, 242280, Note_on_c, 15, 40, 76
17, 242369, Note_on_c, 15, 40, 0
17, 242400, Note_on_c, 15, 40, 76
17, 242639, Note_on_c, 15, 40, 0
17, 242700, Note_on_c, 15, 48, 76
17, 242751, Note_on_c, 15, 48, 0
17, 242760, Note_on_c, 15, 43, 76
17, 242999, Note_on_c, 15, 43, 0
17, 243060, Note_on_c, 15, 43, 76
17, 243111, Note_on_c, 15, 43, 0
17, 243120, Note_on_c, 15, 40, 76
17, 243359, Note_on_c, 15, 40, 0
17, 243420, Note_on_c, 15, 40, 76
17, 243471, Note_on_c, 15, 40, 0
17, 243480, Note_on_c, 15, 36, 76
17, 243719, Note_on_c, 15, 36, 0
17, 243780, Note_on_c, 15, 36, 76
17, 243831, Note_on_c, 15, 36, 0
17, 243840, Note_on_c, 15, 31, 84
17, 244079, Note_on_c, 15, 31, 0
17, 245280, Note_on_c, 15, 31, 84
17, 245519, Note_on_c, 15, 31, 0
17, 245640, Note_on_c, 15, 31, 84
17, 245811, Note_on_c, 15, 31, 0
17, 245820, Note_on_c, 15, 53, 84
17, 245871, Note_on_c, 15, 53, 0
17, 245880, Note_on_c, 15, 50, 84
17, 245984, Note_on_c, 15, 50, 0
17, 246000, Note_on_c, 15, 50, 84
17, 246531, Note_on_c, 15, 50, 0
17, 246540, Note_on_c, 15, 50, 84
17, 246591, Note_on_c, 15, 50, 0
17, 246600, Note_on_c, 15, 47, 84
17, 246704, Note_on_c, 15, 47, 0
17, 246720, Note_on_c, 15, 47, 84
17, 246959, Note_on_c, 15, 47, 0
17, 247020, Note_on_c, 15, 53, 84
17, 247071, Note_on_c, 15, 53, 0
17, 247080, Note_on_c, 15, 50, 84
17, 247319, Note_on_c, 15, 50, 0
17, 247380, Note_on_c, 15, 50, 84
17, 247431, Note_on_c, 15, 50, 0
17, 247440, Note_on_c, 15, 47, 84
17, 247679, Note_on_c, 15, 47, 0
17, 247740, Note_on_c, 15, 47, 84
17, 247791, Note_on_c, 15, 47, 0
17, 247800, Note_on_c, 15, 43, 84
17, 248039, Note_on_c, 15, 43, 0
17, 248100, Note_on_c, 15, 31, 84
17, 248151, Note_on_c, 15, 31, 0
17, 248160, Note_on_c, 15, 32, 84
17, 248399, Note_on_c, 15, 32, 0
17, 249600, Note_on_c, 15, 32, 84
17, 249839, Note_on_c, 15, 32, 0
17, 249960, Note_on_c, 15, 44, 84
17, 250131, Note_on_c, 15, 44, 0
17, 250140, Note_on_c, 15, 52, 84
17, 250191, Note_on_c, 15, 52, 0
17, 250200, Note_on_c, 15, 47, 84
17, 250304, Note_on_c, 15, 47, 0
17, 250320, Note_on_c, 15, 47, 84
17, 250851, Note_on_c, 15, 47, 0
17, 250860, Note_on_c, 15, 47, 84
17, 250911, Note_on_c, 15, 47, 0
17, 250920, Note_on_c, 15, 44, 84
17, 251024, Note_on_c, 15, 44, 0
17, 251040, Note_on_c, 15, 44, 84
17, 251279, Note_on_c, 15, 44, 0
17, 251340, Note_on_c, 15, 52, 84
17, 251391, Note_on_c, 15, 52, 0
17, 251400, Note_on_c, 15, 47, 84
17, 251639, Note_on_c, 15, 47, 0
17, 251700, Note_on_c, 15, 47, 84
17, 251751, Note_on_c, 15, 47, 0
17, 251760, Note_on_c, 15, 44, 84
17, 251999, Note_on_c, 15, 44, 0
17, 252060, Note_on_c, 15, 44, 84
17, 252111, Note_on_c, 15, 44, 0
17, 252120, Note_on_c, 15, 40, 84
17, 252359, Note_on_c, 15, 40, 0
17, 252420, Note_on_c, 15, 40, 84
17, 252471, Note_on_c, 15, 40, 0
17, 252480, Note_on_c, 15, 40, 84
17, 252651, Note_on_c, 15, 40, 0
17, 252660, Note_on_c, 15, 40, 84
17, 252711, Note_on_c, 15, 40, 0
17, 252720, Note_on_c, 15, 40, 84
17, 252839, Note_on_c, 15, 40, 0
17, 253200, Note_on_c, 15, 37, 92
17, 253259, Note_on_c, 15, 37, 0
17, 253260, Note_on_c, 15, 37, 84
17, 253371, Note_on_c, 15, 37, 0
17, 253380, Note_on_c, 15, 37, 84
17, 253431, Note_on_c, 15, 37, 0
17, 253440, Note_on_c, 15, 37, 84
17, 253559, Note_on_c, 15, 37, 0
17, 253920, Note_on_c, 15, 37, 92
17, 253979, Note_on_c, 15, 37, 0
17, 253980, Note_on_c, 15, 37, 84
17, 254091, Note_on_c, 15, 37, 0
17, 254100, Note_on_c, 15, 37, 84
17, 254151, Note_on_c, 15, 37, 0
17, 254160, Note_on_c, 15, 37, 84
17, 254279, Note_on_c, 15, 37, 0
17, 257700, Note_on_c, 15, 38, 44
17, 257751, Note_on_c, 15, 38, 0
17, 257760, Note_on_c, 15, 40, 44
17, 257864, Note_on_c, 15, 40, 0
17, 257880, Note_on_c, 15, 41, 44
17, 257999, Note_on_c, 15, 41, 0
17, 258060, Note_on_c, 15, 33, 44
17, 258111, Note_on_c, 15, 33, 0
17, 258120, Note_on_c, 15, 35, 44
17, 258224, Note_on_c, 15, 35, 0
17, 258240, Note_on_c, 15, 36, 44
17, 258479, Note_on_c, 15, 36, 0
17, 259860, Note_on_c, 15, 33, 44
17, 259911, Note_on_c, 15, 33, 0
17, 259920, Note_on_c, 15, 35, 44
17, 260024, Note_on_c, 15, 35, 0
17, 260040, Note_on_c, 15, 36, 44
17, 260159, Note_on_c, 15, 36, 0
17, 260220, Note_on_c, 15, 40, 44
17, 260271, Note_on_c, 15, 40, 0
17, 260280, Note_on_c, 15, 42, 44
17, 260384, Note_on_c, 15, 42, 0
17, 260400, Note_on_c, 15, 43, 44
17, 260639, Note_on_c, 15, 43, 0
17, 262020, Note_on_c, 15, 40, 44
17, 262071, Note_on_c, 15, 40, 0
17, 262080, Note_on_c, 15, 42, 44
17, 262184, Note_on_c, 15, 42, 0
17, 262200, Note_on_c, 15, 43, 44
17, 262319, Note_on_c, 15, 43, 0
17, 262380, Note_on_c, 15, 34, 44
17, 262431, Note_on_c, 15, 34, 0
17, 262440, Note_on_c, 15, 36, 44
17, 262544, Note_on_c, 15, 36, 0
17, 262560, Note_on_c, 15, 38, 44
17, 262799, Note_on_c, 15, 38, 0
17, 264180, Note_on_c, 15, 35, 44
17, 264231, Note_on_c, 15, 35, 0
17, 264240, Note_on_c, 15, 37, 44
17, 264344, Note_on_c, 15, 37, 0
17, 264360, Note_on_c, 15, 38, 44
17, 264479, Note_on_c, 15, 38, 0
17, 264540, Note_on_c, 15, 29, 44
17, 264591, Note_on_c, 15, 29, 0
17, 264600, Note_on_c, 15, 31, 44
17, 264704, Note_on_c, 15, 31, 0
17, 264720, Note_on_c, 15, 33, 44
17, 264959, Note_on_c, 15, 33, 0
17, 265618, Control_c, 15, 11, 64
17, 265620, Note_on_c, 15, 35, 76
17, 265671, Note_on_c, 15, 35, 0
17, 265680, Note_on_c, 15, 37, 76
17, 265784, Note_on_c, 15, 37, 0
17, 265800, Note_on_c, 15, 38, 76
17, 265919, Note_on_c, 15, 38, 0
17, 265980, Note_on_c, 15, 29, 76
17, 266031, Note_on_c, 15, 29, 0
17, 266040, Note_on_c, 15, 31, 76
17, 266144, Note_on_c, 15, 31, 0
17, 266160, Note_on_c, 15, 33, 76
17, 266279, Note_on_c, 15, 33, 0
17, 266320, Control_c, 15, 11, 65
17, 266340, Note_on_c, 15, 33, 76
17, 266391, Note_on_c, 15, 33, 0
17, 266400, Note_on_c, 15, 35, 76
17, 266480, Control_c, 15, 11, 66
17, 266504, Note_on_c, 15, 35, 0
17, 266520, Note_on_c, 15, 37, 76
17, 266639, Note_on_c, 15, 37, 0
17, 266640, Control_c, 15, 11, 67
17, 266700, Note_on_c, 15, 35, 76
17, 266751, Note_on_c, 15, 35, 0
17, 266760, Note_on_c, 15, 37, 76
17, 266800, Control_c, 15, 11, 68
17, 266864, Note_on_c, 15, 37, 0
17, 266880, Note_on_c, 15, 38, 76
17, 266960, Control_c, 15, 11, 69
17, 266999, Note_on_c, 15, 38, 0
17, 267060, Note_on_c, 15, 37, 76
17, 267111, Note_on_c, 15, 37, 0
17, 267120, Note_on_c, 15, 38, 76
17, 267120, Control_c, 15, 11, 70
17, 267224, Note_on_c, 15, 38, 0
17, 267240, Note_on_c, 15, 40, 76
17, 267280, Control_c, 15, 11, 71
17, 267359, Note_on_c, 15, 40, 0
17, 267420, Note_on_c, 15, 38, 76
17, 267440, Control_c, 15, 11, 72
17, 267471, Note_on_c, 15, 38, 0
17, 267480, Note_on_c, 15, 40, 76
17, 267584, Note_on_c, 15, 40, 0
17, 267600, Note_on_c, 15, 41, 76
17, 267600, Control_c, 15, 11, 73
17, 267760, Control_c, 15, 11, 74
17, 267920, Control_c, 15, 11, 75
17, 268080, Control_c, 15, 11, 76
17, 268240, Control_c, 15, 11, 77
17, 268319, Note_on_c, 15, 41, 0
17, 268320, Note_on_c, 15, 41, 76
17, 268400, Control_c, 15, 11, 78
17, 268560, Control_c, 15, 11, 79
17, 268720, Control_c, 15, 11, 80
17, 268880, Control_c, 15, 11, 81
17, 269040, Control_c, 15, 11, 82
17, 269159, Note_on_c, 15, 41, 0
17, 269200, Control_c, 15, 11, 83
17, 269220, Note_on_c, 15, 34, 76
17, 269271, Note_on_c, 15, 34, 0
17, 269280, Note_on_c, 15, 36, 76
17, 269360, Control_c, 15, 11, 84
17, 269384, Note_on_c, 15, 36, 0
17, 269400, Note_on_c, 15, 38, 76
17, 269519, Note_on_c, 15, 38, 0
17, 269520, Control_c, 15, 11, 85
17, 269580, Note_on_c, 15, 36, 76
17, 269631, Note_on_c, 15, 36, 0
17, 269640, Note_on_c, 15, 38, 76
17, 269680, Control_c, 15, 11, 86
17, 269744, Note_on_c, 15, 38, 0
17, 269760, Note_on_c, 15, 40, 76
17, 269840, Control_c, 15, 11, 87
17, 269879, Note_on_c, 15, 40, 0
17, 269940, Note_on_c, 15, 38, 76
17, 269991, Note_on_c, 15, 38, 0
17, 270000, Note_on_c, 15, 40, 76
17, 270000, Control_c, 15, 11, 88
17, 270104, Note_on_c, 15, 40, 0
17, 270120, Note_on_c, 15, 41, 76
17, 270160, Control_c, 15, 11, 89
17, 270239, Note_on_c, 15, 41, 0
17, 270300, Note_on_c, 15, 40, 76
17, 270320, Control_c, 15, 11, 90
17, 270351, Note_on_c, 15, 40, 0
17, 270360, Note_on_c, 15, 41, 76
17, 270464, Note_on_c, 15, 41, 0
17, 270480, Control_c, 15, 11, 91
17, 270480, Note_on_c, 15, 43, 76
17, 270640, Control_c, 15, 11, 92
17, 270800, Control_c, 15, 11, 93
17, 270960, Control_c, 15, 11, 94
17, 271120, Control_c, 15, 11, 95
17, 271199, Note_on_c, 15, 43, 0
17, 271200, Note_on_c, 15, 43, 76
17, 271280, Control_c, 15, 11, 96
17, 271440, Control_c, 15, 11, 97
17, 271600, Control_c, 15, 11, 98
17, 271760, Control_c, 15, 11, 99
17, 271920, Control_c, 15, 11, 100
17, 272039, Note_on_c, 15, 43, 0
17, 272080, Control_c, 15, 11, 101
17, 272100, Note_on_c, 15, 36, 76
17, 272151, Note_on_c, 15, 36, 0
17, 272160, Note_on_c, 15, 38, 76
17, 272240, Control_c, 15, 11, 102
17, 272264, Note_on_c, 15, 38, 0
17, 272280, Note_on_c, 15, 40, 76
17, 272399, Note_on_c, 15, 40, 0
17, 272400, Control_c, 15, 11, 103
17, 272460, Note_on_c, 15, 38, 76
17, 272511, Note_on_c, 15, 38, 0
17, 272520, Note_on_c, 15, 40, 76
17, 272560, Control_c, 15, 11, 104
17, 272624, Note_on_c, 15, 40, 0
17, 272640, Note_on_c, 15, 41, 76
17, 272720, Control_c, 15, 11, 105
17, 272759, Note_on_c, 15, 41, 0
17, 272820, Note_on_c, 15, 40, 76
17, 272871, Note_on_c, 15, 40, 0
17, 272880, Control_c, 15, 11, 106
17, 272880, Note_on_c, 15, 41, 76
17, 272984, Note_on_c, 15, 41, 0
17, 273000, Note_on_c, 15, 43, 76
17, 273040, Control_c, 15, 11, 107
17, 273119, Note_on_c, 15, 43, 0
17, 273180, Note_on_c, 15, 41, 76
17, 273200, Control_c, 15, 11, 108
17, 273231, Note_on_c, 15, 41, 0
17, 273240, Note_on_c, 15, 43, 76
17, 273344, Note_on_c, 15, 43, 0
17, 273360, Note_on_c, 15, 45, 76
17, 273360, Control_c, 15, 11, 109
17, 273520, Control_c, 15, 11, 110
17, 273680, Control_c, 15, 11, 111
17, 273840, Control_c, 15, 11, 112
17, 274000, Control_c, 15, 11, 113
17, 274079, Note_on_c, 15, 45, 0
17, 274080, Note_on_c, 15, 45, 76
17, 274160, Control_c, 15, 11, 114
17, 274320, Control_c, 15, 11, 115
17, 274480, Control_c, 15, 11, 116
17, 274640, Control_c, 15, 11, 117
17, 274800, Control_c, 15, 11, 118
17, 274904, Note_on_c, 15, 45, 0
17, 274960, Control_c, 15, 11, 119
17, 274980, Note_on_c, 15, 38, 76
17, 275031, Note_on_c, 15, 38, 0
17, 275040, Note_on_c, 15, 40, 76
17, 275120, Control_c, 15, 11, 120
17, 275144, Note_on_c, 15, 40, 0
17, 275160, Note_on_c, 15, 42, 76
17, 275279, Note_on_c, 15, 42, 0
17, 275280, Control_c, 15, 11, 121
17, 275340, Note_on_c, 15, 40, 76
17, 275391, Note_on_c, 15, 40, 0
17, 275400, Note_on_c, 15, 42, 76
17, 275440, Control_c, 15, 11, 122
17, 275504, Note_on_c, 15, 42, 0
17, 275520, Note_on_c, 15, 43, 76
17, 275600, Control_c, 15, 11, 123
17, 275639, Note_on_c, 15, 43, 0
17, 275700, Note_on_c, 15, 42, 76
17, 275751, Note_on_c, 15, 42, 0
17, 275760, Note_on_c, 15, 43, 76
17, 275760, Control_c, 15, 11, 124
17, 275864, Note_on_c, 15, 43, 0
17, 275880, Note_on_c, 15, 45, 76
17, 275920, Control_c, 15, 11, 125
17, 275999, Note_on_c, 15, 45, 0
17, 276060, Note_on_c, 15, 43, 76
17, 276080, Control_c, 15, 11, 127
17, 276111, Note_on_c, 15, 43, 0
17, 276120, Note_on_c, 15, 45, 76
17, 276224, Note_on_c, 15, 45, 0
17, 276240, Note_on_c, 15, 46, 76
17, 276411, Note_on_c, 15, 46, 0
17, 276420, Note_on_c, 15, 46, 76
17, 276471, Note_on_c, 15, 46, 0
17, 276480, Note_on_c, 15, 45, 76
17, 276584, Note_on_c, 15, 45, 0
17, 276600, Note_on_c, 15, 46, 76
17, 276839, Note_on_c, 15, 46, 0
17, 276960, Note_on_c, 15, 47, 76
17, 277079, Note_on_c, 15, 47, 0
17, 277140, Note_on_c, 15, 47, 76
17, 277191, Note_on_c, 15, 47, 0
17, 277200, Note_on_c, 15, 46, 76
17, 277304, Note_on_c, 15, 46, 0
17, 277320, Note_on_c, 15, 47, 76
17, 277559, Note_on_c, 15, 47, 0
17, 277680, Note_on_c, 15, 48, 76
17, 277799, Note_on_c, 15, 48, 0
17, 277860, Note_on_c, 15, 48, 76
17, 277911, Note_on_c, 15, 48, 0
17, 277920, Note_on_c, 15, 47, 76
17, 278024, Note_on_c, 15, 47, 0
17, 278040, Note_on_c, 15, 48, 76
17, 278279, Note_on_c, 15, 48, 0
17, 278400, Note_on_c, 15, 49, 76
17, 278519, Note_on_c, 15, 49, 0
17, 278580, Note_on_c, 15, 49, 76
17, 278631, Note_on_c, 15, 49, 0
17, 278640, Note_on_c, 15, 48, 76
17, 278744, Note_on_c, 15, 48, 0
17, 278760, Note_on_c, 15, 49, 76
17, 278999, Note_on_c, 15, 49, 0
17, 279120, Note_on_c, 15, 38, 84
17, 279239, Note_on_c, 15, 38, 0
17, 279300, Note_on_c, 15, 38, 84
17, 279351, Note_on_c, 15, 38, 0
17, 279360, Note_on_c, 15, 37, 84
17, 279464, Note_on_c, 15, 37, 0
17, 279480, Note_on_c, 15, 38, 84
17, 279599, Note_on_c, 15, 38, 0
17, 279660, Note_on_c, 15, 38, 84
17, 279711, Note_on_c, 15, 38, 0
17, 279720, Note_on_c, 15, 37, 84
17, 279824, Note_on_c, 15, 37, 0
17, 279840, Note_on_c, 15, 38, 84
17, 279959, Note_on_c, 15, 38, 0
17, 280020, Note_on_c, 15, 38, 84
17, 280071, Note_on_c, 15, 38, 0
17, 280080, Note_on_c, 15, 37, 84
17, 280184, Note_on_c, 15, 37, 0
17, 280200, Note_on_c, 15, 38, 84
17, 280319, Note_on_c, 15, 38, 0
17, 280380, Note_on_c, 15, 38, 84
17, 280431, Note_on_c, 15, 38, 0
17, 280440, Note_on_c, 15, 37, 84
17, 280544, Note_on_c, 15, 37, 0
17, 280560, Note_on_c, 15, 38, 84
17, 281279, Note_on_c, 15, 38, 0
17, 281280, Note_on_c, 15, 38, 84
17, 281624, Note_on_c, 15, 38, 0
17, 281640, Note_on_c, 15, 38, 84
17, 281811, Note_on_c, 15, 38, 0
17, 281820, Note_on_c, 15, 36, 84
17, 281871, Note_on_c, 15, 36, 0
17, 281880, Note_on_c, 15, 35, 84
17, 281984, Note_on_c, 15, 35, 0
17, 282000, Note_on_c, 15, 36, 84
17, 282119, Note_on_c, 15, 36, 0
17, 282180, Note_on_c, 15, 36, 84
17, 282231, Note_on_c, 15, 36, 0
17, 282240, Note_on_c, 15, 35, 84
17, 282344, Note_on_c, 15, 35, 0
17, 282360, Note_on_c, 15, 36, 84
17, 282479, Note_on_c, 15, 36, 0
17, 282540, Note_on_c, 15, 36, 84
17, 282591, Note_on_c, 15, 36, 0
17, 282600, Note_on_c, 15, 35, 84
17, 282704, Note_on_c, 15, 35, 0
17, 282720, Note_on_c, 15, 36, 84
17, 282839, Note_on_c, 15, 36, 0
17, 282900, Note_on_c, 15, 36, 84
17, 282951, Note_on_c, 15, 36, 0
17, 282960, Note_on_c, 15, 35, 84
17, 283064, Note_on_c, 15, 35, 0
17, 283080, Note_on_c, 15, 36, 84
17, 283199, Note_on_c, 15, 36, 0
17, 283260, Note_on_c, 15, 36, 84
17, 283311, Note_on_c, 15, 36, 0
17, 283320, Note_on_c, 15, 35, 84
17, 283424, Note_on_c, 15, 35, 0
17, 283440, Note_on_c, 15, 36, 84
17, 284159, Note_on_c, 15, 36, 0
17, 284160, Note_on_c, 15, 36, 84
17, 284504, Note_on_c, 15, 36, 0
17, 284520, Note_on_c, 15, 36, 84
17, 284691, Note_on_c, 15, 36, 0
17, 284700, Note_on_c, 15, 35, 84
17, 284751, Note_on_c, 15, 35, 0
17, 284760, Note_on_c, 15, 33, 84
17, 284864, Note_on_c, 15, 33, 0
17, 284880, Note_on_c, 15, 35, 84
17, 284999, Note_on_c, 15, 35, 0
17, 285060, Note_on_c, 15, 35, 84
17, 285111, Note_on_c, 15, 35, 0
17, 285120, Note_on_c, 15, 34, 84
17, 285224, Note_on_c, 15, 34, 0
17, 285240, Note_on_c, 15, 35, 84
17, 285359, Note_on_c, 15, 35, 0
17, 285420, Note_on_c, 15, 35, 84
17, 285471, Note_on_c, 15, 35, 0
17, 285480, Note_on_c, 15, 34, 84
17, 285584, Note_on_c, 15, 34, 0
17, 285600, Note_on_c, 15, 35, 84
17, 285719, Note_on_c, 15, 35, 0
17, 285780, Note_on_c, 15, 35, 84
17, 285831, Note_on_c, 15, 35, 0
17, 285840, Note_on_c, 15, 34, 84
17, 285944, Note_on_c, 15, 34, 0
17, 285960, Note_on_c, 15, 35, 84
17, 286079, Note_on_c, 15, 35, 0
17, 286140, Note_on_c, 15, 35, 84
17, 286191, Note_on_c, 15, 35, 0
17, 286200, Note_on_c, 15, 34, 84
17, 286304, Note_on_c, 15, 34, 0
17, 286320, Note_on_c, 15, 35, 84
17, 286559, Note_on_c, 15, 35, 0
17, 286860, Note_on_c, 15, 47, 84
17, 286911, Note_on_c, 15, 47, 0
17, 286920, Note_on_c, 15, 48, 84
17, 287024, Note_on_c, 15, 48, 0
17, 287040, Note_on_c, 15, 50, 84
17, 287279, Note_on_c, 15, 50, 0
17, 287580, Note_on_c, 15, 44, 84
17, 287631, Note_on_c, 15, 44, 0
17, 287640, Note_on_c, 15, 45, 84
17, 287744, Note_on_c, 15, 45, 0
17, 287760, Note_on_c, 15, 47, 84
17, 287999, Note_on_c, 15, 47, 0
17, 288300, Note_on_c, 15, 38, 84
17, 288351, Note_on_c, 15, 38, 0
17, 288360, Note_on_c, 15, 40, 84
17, 288464, Note_on_c, 15, 40, 0
17, 288480, Note_on_c, 15, 41, 84
17, 288719, Note_on_c, 15, 41, 0
17, 289020, Note_on_c, 15, 32, 84
17, 289071, Note_on_c, 15, 32, 0
17, 289080, Note_on_c, 15, 33, 84
17, 289184, Note_on_c, 15, 33, 0
17, 289200, Note_on_c, 15, 35, 84
17, 289319, Note_on_c, 15, 35, 0
17, 289380, Note_on_c, 15, 32, 84
17, 289431, Note_on_c, 15, 32, 0
17, 289440, Note_on_c, 15, 33, 84
17, 289544, Note_on_c, 15, 33, 0
17, 289560, Note_on_c, 15, 35, 84
17, 289679, Note_on_c, 15, 35, 0
17, 289740, Note_on_c, 15, 33, 84
17, 289791, Note_on_c, 15, 33, 0
17, 289800, Note_on_c, 15, 35, 84
17, 289904, Note_on_c, 15, 35, 0
17, 289920, Note_on_c, 15, 36, 84
17, 290039, Note_on_c, 15, 36, 0
17, 290100, Note_on_c, 15, 33, 84
17, 290151, Note_on_c, 15, 33, 0
17, 290160, Note_on_c, 15, 35, 84
17, 290264, Note_on_c, 15, 35, 0
17, 290280, Note_on_c, 15, 36, 84
17, 290399, Note_on_c, 15, 36, 0
17, 290460, Note_on_c, 15, 35, 84
17, 290511, Note_on_c, 15, 35, 0
17, 290520, Note_on_c, 15, 37, 84
17, 290624, Note_on_c, 15, 37, 0
17, 290640, Note_on_c, 15, 38, 84
17, 290759, Note_on_c, 15, 38, 0
17, 290820, Note_on_c, 15, 35, 84
17, 290871, Note_on_c, 15, 35, 0
17, 290880, Note_on_c, 15, 37, 84
17, 290984, Note_on_c, 15, 37, 0
17, 291000, Note_on_c, 15, 38, 84
17, 291119, Note_on_c, 15, 38, 0
17, 291180, Note_on_c, 15, 37, 84
17, 291231, Note_on_c, 15, 37, 0
17, 291240, Note_on_c, 15, 39, 84
17, 291344, Note_on_c, 15, 39, 0
17, 291360, Note_on_c, 15, 40, 84
17, 291479, Note_on_c, 15, 40, 0
17, 291540, Note_on_c, 15, 37, 84
17, 291591, Note_on_c, 15, 37, 0
17, 291600, Note_on_c, 15, 39, 84
17, 291704, Note_on_c, 15, 39, 0
17, 291720, Note_on_c, 15, 40, 84
17, 291839, Note_on_c, 15, 40, 0
17, 291900, Note_on_c, 15, 37, 84
17, 291951, Note_on_c, 15, 37, 0
17, 291960, Note_on_c, 15, 39, 84
17, 292064, Note_on_c, 15, 39, 0
17, 292080, Note_on_c, 15, 40, 84
17, 292199, Note_on_c, 15, 40, 0
17, 292260, Note_on_c, 15, 37, 84
17, 292311, Note_on_c, 15, 37, 0
17, 292320, Note_on_c, 15, 38, 84
17, 292424, Note_on_c, 15, 38, 0
17, 292440, Note_on_c, 15, 40, 84
17, 292559, Note_on_c, 15, 40, 0
17, 292620, Note_on_c, 15, 37, 84
17, 292671, Note_on_c, 15, 37, 0
17, 292680, Note_on_c, 15, 38, 84
17, 292784, Note_on_c, 15, 38, 0
17, 292800, Note_on_c, 15, 40, 84
17, 292919, Note_on_c, 15, 40, 0
17, 292980, Note_on_c, 15, 37, 84
17, 293031, Note_on_c, 15, 37, 0
17, 293040, Note_on_c, 15, 38, 84
17, 293144, Note_on_c, 15, 38, 0
17, 293160, Note_on_c, 15, 40, 84
17, 293279, Note_on_c, 15, 40, 0
17, 293340, Note_on_c, 15, 37, 84
17, 293391, Note_on_c, 15, 37, 0
17, 293400, Note_on_c, 15, 38, 84
17, 293504, Note_on_c, 15, 38, 0
17, 293520, Note_on_c, 15, 40, 84
17, 293759, Note_on_c, 15, 40, 0
17, 294600, Note_on_c, 15, 40, 88
17, 294659, Note_on_c, 15, 40, 0
17, 294660, Note_on_c, 15, 42, 88
17, 294719, Note_on_c, 15, 42, 0
17, 294720, Note_on_c, 15, 44, 88
17, 294779, Note_on_c, 15, 44, 0
17, 294780, Note_on_c, 15, 45, 88
17, 294839, Note_on_c, 15, 45, 0
17, 294840, Note_on_c, 15, 47, 88
17, 294879, Note_on_c, 15, 47, 0
17, 294880, Note_on_c, 15, 49, 88
17, 294919, Note_on_c, 15, 49, 0
17, 294920, Note_on_c, 15, 50, 88
17, 294951, Note_on_c, 15, 50, 0
17, 294960, Note_on_c, 15, 52, 88
17, 295199, Note_on_c, 15, 52, 0
17, 296040, Note_on_c, 15, 40, 88
17, 296099, Note_on_c, 15, 40, 0
17, 296100, Note_on_c, 15, 42, 88
17, 296159, Note_on_c, 15, 42, 0
17, 296160, Note_on_c, 15, 44, 88
17, 296219, Note_on_c, 15, 44, 0
17, 296220, Note_on_c, 15, 45, 88
17, 296279, Note_on_c, 15, 45, 0
17, 296280, Note_on_c, 15, 47, 88
17, 296319, Note_on_c, 15, 47, 0
17, 296320, Note_on_c, 15, 49, 88
17, 296359, Note_on_c, 15, 49, 0
17, 296360, Note_on_c, 15, 50, 88
17, 296391, Note_on_c, 15, 50, 0
17, 296400, Note_on_c, 15, 52, 84
17, 296519, Note_on_c, 15, 52, 0
17, 296580, Note_on_c, 15, 33, 84
17, 296631, Note_on_c, 15, 33, 0
17, 296640, Note_on_c, 15, 33, 84
17, 296744, Note_on_c, 15, 33, 0
17, 296760, Note_on_c, 15, 33, 84
17, 296879, Note_on_c, 15, 33, 0
17, 296940, Note_on_c, 15, 35, 84
17, 296991, Note_on_c, 15, 35, 0
17, 297000, Note_on_c, 15, 37, 84
17, 297104, Note_on_c, 15, 37, 0
17, 297120, Note_on_c, 15, 35, 84
17, 297239, Note_on_c, 15, 35, 0
17, 297300, Note_on_c, 15, 37, 84
17, 297351, Note_on_c, 15, 37, 0
17, 297360, Note_on_c, 15, 38, 84
17, 297464, Note_on_c, 15, 38, 0
17, 297480, Note_on_c, 15, 40, 84
17, 297599, Note_on_c, 15, 40, 0
17, 297660, Note_on_c, 15, 40, 84
17, 297711, Note_on_c, 15, 40, 0
17, 297720, Note_on_c, 15, 38, 84
17, 297824, Note_on_c, 15, 38, 0
17, 297840, Note_on_c, 15, 37, 84
17, 297959, Note_on_c, 15, 37, 0
17, 298020, Note_on_c, 15, 40, 84
17, 298071, Note_on_c, 15, 40, 0
17, 298080, Note_on_c, 15, 38, 84
17, 298184, Note_on_c, 15, 38, 0
17, 298200, Note_on_c, 15, 37, 84
17, 298319, Note_on_c, 15, 37, 0
17, 298380, Note_on_c, 15, 35, 84
17, 298431, Note_on_c, 15, 35, 0
17, 298440, Note_on_c, 15, 33, 84
17, 298544, Note_on_c, 15, 33, 0
17, 298560, Note_on_c, 15, 32, 84
17, 298679, Note_on_c, 15, 32, 0
17, 298740, Note_on_c, 15, 30, 84
17, 298791, Note_on_c, 15, 30, 0
17, 298800, Note_on_c, 15, 28, 84
17, 298904, Note_on_c, 15, 28, 0
17, 298920, Note_on_c, 15, 38, 84
17, 299039, Note_on_c, 15, 38, 0
17, 299100, Note_on_c, 15, 37, 84
17, 299151, Note_on_c, 15, 37, 0
17, 299160, Note_on_c, 15, 35, 84
17, 299264, Note_on_c, 15, 35, 0
17, 299280, Note_on_c, 15, 33, 84
17, 299399, Note_on_c, 15, 33, 0
17, 299460, Note_on_c, 15, 33, 84
17, 299511, Note_on_c, 15, 33, 0
17, 299520, Note_on_c, 15, 32, 84
17, 299624, Note_on_c, 15, 32, 0
17, 299640, Note_on_c, 15, 33, 84
17, 299759, Note_on_c, 15, 33, 0
17, 299820, Note_on_c, 15, 35, 84
17, 299871, Note_on_c, 15, 35, 0
17, 299880, Note_on_c, 15, 37, 84
17, 299984, Note_on_c, 15, 37, 0
17, 300000, Note_on_c, 15, 35, 84
17, 300119, Note_on_c, 15, 35, 0
17, 300180, Note_on_c, 15, 37, 84
17, 300231, Note_on_c, 15, 37, 0
17, 300240, Note_on_c, 15, 38, 84
17, 300344, Note_on_c, 15, 38, 0
17, 300360, Note_on_c, 15, 40, 84
17, 300479, Note_on_c, 15, 40, 0
17, 300540, Note_on_c, 15, 40, 84
17, 300591, Note_on_c, 15, 40, 0
17, 300600, Note_on_c, 15, 38, 84
17, 300704, Note_on_c, 15, 38, 0
17, 300720, Note_on_c, 15, 37, 84
17, 300839, Note_on_c, 15, 37, 0
17, 300900, Note_on_c, 15, 35, 84
17, 300951, Note_on_c, 15, 35, 0
17, 300960, Note_on_c, 15, 33, 84
17, 301064, Note_on_c, 15, 33, 0
17, 301080, Note_on_c, 15, 40, 84
17, 301199, Note_on_c, 15, 40, 0
17, 301260, Note_on_c, 15, 28, 84
17, 301311, Note_on_c, 15, 28, 0
17, 301320, Note_on_c, 15, 28, 84
17, 301424, Note_on_c, 15, 28, 0
17, 301440, Note_on_c, 15, 33, 84
17, 301559, Note_on_c, 15, 33, 0
17, 301620, Note_on_c, 15, 37, 84
17, 301671, Note_on_c, 15, 37, 0
17, 301680, Note_on_c, 15, 40, 84
17, 301784, Note_on_c, 15, 40, 0
17, 301800, Note_on_c, 15, 45, 84
17, 301919, Note_on_c, 15, 45, 0
17, 301980, Note_on_c, 15, 49, 84
17, 302031, Note_on_c, 15, 49, 0
17, 302040, Note_on_c, 15, 52, 84
17, 302144, Note_on_c, 15, 52, 0
17, 302160, Note_on_c, 15, 54, 84
17, 302279, Note_on_c, 15, 54, 0
17, 302340, Note_on_c, 15, 50, 84
17, 302391, Note_on_c, 15, 50, 0
17, 302400, Note_on_c, 15, 45, 84
17, 302504, Note_on_c, 15, 45, 0
17, 302520, Note_on_c, 15, 42, 84
17, 302639, Note_on_c, 15, 42, 0
17, 302700, Note_on_c, 15, 38, 84
17, 302751, Note_on_c, 15, 38, 0
17, 302760, Note_on_c, 15, 33, 84
17, 302864, Note_on_c, 15, 33, 0
17, 302880, Note_on_c, 15, 33, 84
17, 302999, Note_on_c, 15, 33, 0
17, 303060, Note_on_c, 15, 37, 84
17, 303111, Note_on_c, 15, 37, 0
17, 303120, Note_on_c, 15, 40, 84
17, 303224, Note_on_c, 15, 40, 0
17, 303240, Note_on_c, 15, 45, 84
17, 303359, Note_on_c, 15, 45, 0
17, 303420, Note_on_c, 15, 49, 84
17, 303471, Note_on_c, 15, 49, 0
17, 303480, Note_on_c, 15, 52, 84
17, 303584, Note_on_c, 15, 52, 0
17, 303600, Note_on_c, 15, 33, 84
17, 303719, Note_on_c, 15, 33, 0
17, 303780, Note_on_c, 15, 40, 84
17, 303831, Note_on_c, 15, 40, 0
17, 303840, Note_on_c, 15, 43, 84
17, 303944, Note_on_c, 15, 43, 0
17, 303960, Note_on_c, 15, 49, 84
17, 304079, Note_on_c, 15, 49, 0
17, 304140, Note_on_c, 15, 52, 84
17, 304191, Note_on_c, 15, 52, 0
17, 304200, Note_on_c, 15, 55, 84
17, 304304, Note_on_c, 15, 55, 0
17, 304320, Note_on_c, 15, 54, 84
17, 304439, Note_on_c, 15, 54, 0
17, 304500, Note_on_c, 15, 50, 84
17, 304551, Note_on_c, 15, 50, 0
17, 304560, Note_on_c, 15, 45, 84
17, 304664, Note_on_c, 15, 45, 0
17, 304680, Note_on_c, 15, 42, 84
17, 304799, Note_on_c, 15, 42, 0
17, 304860, Note_on_c, 15, 38, 84
17, 304911, Note_on_c, 15, 38, 0
17, 304920, Note_on_c, 15, 33, 84
17, 305024, Note_on_c, 15, 33, 0
17, 305040, Note_on_c, 15, 33, 84
17, 305159, Note_on_c, 15, 33, 0
17, 305220, Note_on_c, 15, 37, 84
17, 305271, Note_on_c, 15, 37, 0
17, 305280, Note_on_c, 15, 40, 84
17, 305384, Note_on_c, 15, 40, 0
17, 305400, Note_on_c, 15, 45, 84
17, 305519, Note_on_c, 15, 45, 0
17, 305580, Note_on_c, 15, 49, 84
17, 305631, Note_on_c, 15, 49, 0
17, 305640, Note_on_c, 15, 52, 84
17, 305744, Note_on_c, 15, 52, 0
17, 305760, Note_on_c, 15, 33, 84
17, 305879, Note_on_c, 15, 33, 0
17, 305940, Note_on_c, 15, 37, 84
17, 305991, Note_on_c, 15, 37, 0
17, 306000, Note_on_c, 15, 40, 84
17, 306104, Note_on_c, 15, 40, 0
17, 306120, Note_on_c, 15, 45, 84
17, 306239, Note_on_c, 15, 45, 0
17, 306300, Note_on_c, 15, 47, 84
17, 306351, Note_on_c, 15, 47, 0
17, 306360, Note_on_c, 15, 49, 84
17, 306464, Note_on_c, 15, 49, 0
17, 306480, Note_on_c, 15, 50, 84
17, 306599, Note_on_c, 15, 50, 0
17, 306660, Note_on_c, 15, 47, 84
17, 306711, Note_on_c, 15, 47, 0
17, 306720, Note_on_c, 15, 44, 84
17, 306824, Note_on_c, 15, 44, 0
17, 306840, Note_on_c, 15, 49, 84
17, 306959, Note_on_c, 15, 49, 0
17, 307020, Note_on_c, 15, 45, 84
17, 307071, Note_on_c, 15, 45, 0
17, 307080, Note_on_c, 15, 40, 84
17, 307184, Note_on_c, 15, 40, 0
17, 307200, Note_on_c, 15, 40, 84
17, 307319, Note_on_c, 15, 40, 0
17, 307380, Note_on_c, 15, 44, 84
17, 307431, Note_on_c, 15, 44, 0
17, 307440, Note_on_c, 15, 47, 84
17, 307544, Note_on_c, 15, 47, 0
17, 307560, Note_on_c, 15, 40, 84
17, 307679, Note_on_c, 15, 40, 0
17, 307740, Note_on_c, 15, 45, 84
17, 307791, Note_on_c, 15, 45, 0
17, 307800, Note_on_c, 15, 49, 84
17, 307904, Note_on_c, 15, 49, 0
17, 307920, Note_on_c, 15, 50, 84
17, 308039, Note_on_c, 15, 50, 0
17, 308100, Note_on_c, 15, 47, 84
17, 308151, Note_on_c, 15, 47, 0
17, 308160, Note_on_c, 15, 44, 84
17, 308264, Note_on_c, 15, 44, 0
17, 308280, Note_on_c, 15, 49, 84
17, 308399, Note_on_c, 15, 49, 0
17, 308460, Note_on_c, 15, 45, 84
17, 308511, Note_on_c, 15, 45, 0
17, 308520, Note_on_c, 15, 40, 84
17, 308624, Note_on_c, 15, 40, 0
17, 308640, Note_on_c, 15, 40, 84
17, 308759, Note_on_c, 15, 40, 0
17, 308820, Note_on_c, 15, 44, 84
17, 308871, Note_on_c, 15, 44, 0
17, 308880, Note_on_c, 15, 47, 84
17, 308984, Note_on_c, 15, 47, 0
17, 309000, Note_on_c, 15, 40, 84
17, 309119, Note_on_c, 15, 40, 0
17, 309180, Note_on_c, 15, 45, 84
17, 309231, Note_on_c, 15, 45, 0
17, 309240, Note_on_c, 15, 49, 84
17, 309344, Note_on_c, 15, 49, 0
17, 309360, Note_on_c, 15, 40, 84
17, 309479, Note_on_c, 15, 40, 0
17, 309540, Note_on_c, 15, 45, 84
17, 309591, Note_on_c, 15, 45, 0
17, 309600, Note_on_c, 15, 49, 84
17, 309704, Note_on_c, 15, 49, 0
17, 309720, Note_on_c, 15, 40, 84
17, 309839, Note_on_c, 15, 40, 0
17, 309900, Note_on_c, 15, 46, 84
17, 309951, Note_on_c, 15, 46, 0
17, 309960, Note_on_c, 15, 49, 84
17, 310064, Note_on_c, 15, 49, 0
17, 310080, Note_on_c, 15, 40, 84
17, 310199, Note_on_c, 15, 40, 0
17, 310260, Note_on_c, 15, 47, 84
17, 310311, Note_on_c, 15, 47, 0
17, 310320, Note_on_c, 15, 50, 84
17, 310424, Note_on_c, 15, 50, 0
17, 310440, Note_on_c, 15, 40, 84
17, 310559, Note_on_c, 15, 40, 0
17, 310620, Note_on_c, 15, 44, 84
17, 310671, Note_on_c, 15, 44, 0
17, 310680, Note_on_c, 15, 47, 84
17, 310784, Note_on_c, 15, 47, 0
17, 310800, Note_on_c, 15, 35, 84
17, 310919, Note_on_c, 15, 35, 0
17, 310980, Note_on_c, 15, 40, 84
17, 311031, Note_on_c, 15, 40, 0
17, 311040, Note_on_c, 15, 44, 84
17, 311144, Note_on_c, 15, 44, 0
17, 311160, Note_on_c, 15, 32, 84
17, 311279, Note_on_c, 15, 32, 0
17, 311340, Note_on_c, 15, 35, 84
17, 311391, Note_on_c, 15, 35, 0
17, 311400, Note_on_c, 15, 40, 84
17, 311504, Note_on_c, 15, 40, 0
17, 311520, Note_on_c, 15, 28, 84
17, 311879, Note_on_c, 15, 28, 0
17, 312120, Program_c, 15, 45
17, 312240, Note_on_c, 15, 33, 60
17, 312479, Note_on_c, 15, 33, 0
17, 312840, Program_c, 15, 48
17, 312960, Note_on_c, 15, 38, 52
17, 313199, Note_on_c, 15, 38, 0
17, 314400, Note_on_c, 15, 38, 52
17, 314639, Note_on_c, 15, 38, 0
17, 315840, Note_on_c, 15, 38, 52
17, 316079, Note_on_c, 15, 38, 0
17, 317280, Note_on_c, 15, 38, 52
17, 317504, Note_on_c, 15, 38, 0
17, 317520, Note_on_c, 15, 29, 52
17, 317624, Note_on_c, 15, 29, 0
17, 317640, Note_on_c, 15, 33, 52
17, 317864, Note_on_c, 15, 33, 0
17, 317880, Note_on_c, 15, 33, 52
17, 317984, Note_on_c, 15, 33, 0
17, 318000, Note_on_c, 15, 38, 52
17, 318239, Note_on_c, 15, 38, 0
17, 318360, Note_on_c, 15, 31, 52
17, 318599, Note_on_c, 15, 31, 0
17, 318720, Note_on_c, 15, 31, 52
17, 318959, Note_on_c, 15, 31, 0
17, 319440, Note_on_c, 15, 38, 52
17, 319679, Note_on_c, 15, 38, 0
17, 320160, Note_on_c, 15, 34, 52
17, 320399, Note_on_c, 15, 34, 0
17, 320880, Note_on_c, 15, 41, 52
17, 321119, Note_on_c, 15, 41, 0
17, 321600, Note_on_c, 15, 38, 52
17, 321839, Note_on_c, 15, 38, 0
17, 322320, Note_on_c, 15, 45, 52
17, 322559, Note_on_c, 15, 45, 0
17, 323040, Note_on_c, 15, 45, 52
17, 323279, Note_on_c, 15, 45, 0
17, 323760, Note_on_c, 15, 45, 52
17, 323999, Note_on_c, 15, 45, 0
17, 324480, Note_on_c, 15, 45, 52
17, 324719, Note_on_c, 15, 45, 0
17, 325200, Note_on_c, 15, 45, 52
17, 325439, Note_on_c, 15, 45, 0
17, 325920, Note_on_c, 15, 33, 52
17, 326159, Note_on_c, 15, 33, 0
17, 326280, Note_on_c, 15, 33, 56
17, 326519, Note_on_c, 15, 33, 0
17, 326640, Note_on_c, 15, 33, 60
17, 326879, Note_on_c, 15, 33, 0
17, 327000, Note_on_c, 15, 33, 64
17, 327239, Note_on_c, 15, 33, 0
17, 327360, Note_on_c, 15, 33, 68
17, 327599, Note_on_c, 15, 33, 0
17, 327720, Note_on_c, 15, 33, 72
17, 327959, Note_on_c, 15, 33, 0
17, 328080, Note_on_c, 15, 33, 76
17, 328319, Note_on_c, 15, 33, 0
17, 328440, Note_on_c, 15, 33, 80
17, 328679, Note_on_c, 15, 33, 0
17, 328800, Note_on_c, 15, 33, 84
17, 328851, Note_on_c, 15, 33, 0
17, 328860, Note_on_c, 15, 45, 84
17, 328911, Note_on_c, 15, 45, 0
17, 328920, Note_on_c, 15, 45, 84
17, 328971, Note_on_c, 15, 45, 0
17, 328980, Note_on_c, 15, 45, 84
17, 329031, Note_on_c, 15, 45, 0
17, 329040, Note_on_c, 15, 45, 84
17, 329091, Note_on_c, 15, 45, 0
17, 329100, Note_on_c, 15, 45, 84
17, 329151, Note_on_c, 15, 45, 0
17, 329160, Note_on_c, 15, 45, 84
17, 329211, Note_on_c, 15, 45, 0
17, 329220, Note_on_c, 15, 45, 84
17, 329271, Note_on_c, 15, 45, 0
17, 329280, Note_on_c, 15, 45, 84
17, 329331, Note_on_c, 15, 45, 0
17, 329340, Note_on_c, 15, 45, 84
17, 329391, Note_on_c, 15, 45, 0
17, 329400, Note_on_c, 15, 45, 84
17, 329451, Note_on_c, 15, 45, 0
17, 329460, Note_on_c, 15, 45, 84
17, 329511, Note_on_c, 15, 45, 0
17, 329520, Note_on_c, 15, 43, 84
17, 329571, Note_on_c, 15, 43, 0
17, 329580, Note_on_c, 15, 43, 84
17, 329631, Note_on_c, 15, 43, 0
17, 329640, Note_on_c, 15, 43, 84
17, 329691, Note_on_c, 15, 43, 0
17, 329700, Note_on_c, 15, 43, 84
17, 329751, Note_on_c, 15, 43, 0
17, 329760, Note_on_c, 15, 43, 84
17, 329811, Note_on_c, 15, 43, 0
17, 329820, Note_on_c, 15, 43, 84
17, 329871, Note_on_c, 15, 43, 0
17, 329880, Note_on_c, 15, 43, 84
17, 329931, Note_on_c, 15, 43, 0
17, 329940, Note_on_c, 15, 43, 84
17, 329991, Note_on_c, 15, 43, 0
17, 330000, Note_on_c, 15, 43, 84
17, 330051, Note_on_c, 15, 43, 0
17, 330060, Note_on_c, 15, 43, 84
17, 330111, Note_on_c, 15, 43, 0
17, 330120, Note_on_c, 15, 43, 84
17, 330171, Note_on_c, 15, 43, 0
17, 330180, Note_on_c, 15, 43, 84
17, 330231, Note_on_c, 15, 43, 0
17, 330240, Note_on_c, 15, 41, 84
17, 330291, Note_on_c, 15, 41, 0
17, 330300, Note_on_c, 15, 41, 84
17, 330351, Note_on_c, 15, 41, 0
17, 330360, Note_on_c, 15, 41, 84
17, 330411, Note_on_c, 15, 41, 0
17, 330420, Note_on_c, 15, 41, 84
17, 330471, Note_on_c, 15, 41, 0
17, 330480, Note_on_c, 15, 41, 84
17, 330531, Note_on_c, 15, 41, 0
17, 330540, Note_on_c, 15, 41, 84
17, 330591, Note_on_c, 15, 41, 0
17, 330600, Note_on_c, 15, 41, 84
17, 330651, Note_on_c, 15, 41, 0
17, 330660, Note_on_c, 15, 41, 84
17, 330711, Note_on_c, 15, 41, 0
17, 330720, Note_on_c, 15, 41, 84
17, 330771, Note_on_c, 15, 41, 0
17, 330780, Note_on_c, 15, 41, 84
17, 330831, Note_on_c, 15, 41, 0
17, 330840, Note_on_c, 15, 41, 84
17, 330891, Note_on_c, 15, 41, 0
17, 330900, Note_on_c, 15, 41, 84
17, 330951, Note_on_c, 15, 41, 0
17, 330960, Note_on_c, 15, 40, 52
17, 331199, Note_on_c, 15, 40, 0
17, 331320, Note_on_c, 15, 40, 52
17, 331559, Note_on_c, 15, 40, 0
17, 331680, Note_on_c, 15, 40, 52
17, 331919, Note_on_c, 15, 40, 0
17, 332040, Note_on_c, 15, 40, 52
17, 332279, Note_on_c, 15, 40, 0
17, 332400, Note_on_c, 15, 40, 52
17, 332639, Note_on_c, 15, 40, 0
17, 332760, Note_on_c, 15, 40, 52
17, 332999, Note_on_c, 15, 40, 0
17, 333120, Note_on_c, 15, 40, 52
17, 333359, Note_on_c, 15, 40, 0
17, 333480, Note_on_c, 15, 40, 52
17, 333719, Note_on_c, 15, 40, 0
17, 333838, Control_c, 15, 11, 80
17, 333840, Note_on_c, 15, 40, 76
17, 333880, Control_c, 15, 11, 83
17, 333920, Control_c, 15, 11, 85
17, 333960, Control_c, 15, 11, 88
17, 334000, Control_c, 15, 11, 90
17, 334040, Control_c, 15, 11, 93
17, 334079, Note_on_c, 15, 40, 0
17, 334080, Control_c, 15, 11, 96
17, 334120, Control_c, 15, 11, 98
17, 334160, Control_c, 15, 11, 101
17, 334200, Control_c, 15, 11, 104
17, 334200, Note_on_c, 15, 40, 76
17, 334240, Control_c, 15, 11, 106
17, 334280, Control_c, 15, 11, 109
17, 334320, Control_c, 15, 11, 111
17, 334360, Control_c, 15, 11, 114
17, 334400, Control_c, 15, 11, 117
17, 334439, Note_on_c, 15, 40, 0
17, 334440, Control_c, 15, 11, 119
17, 334480, Control_c, 15, 11, 122
17, 334520, Control_c, 15, 11, 124
17, 334558, Control_c, 15, 11, 127
17, 334560, Note_on_c, 15, 33, 76
17, 335144, Note_on_c, 15, 33, 0
17, 335160, Note_on_c, 15, 33, 76
17, 335264, Note_on_c, 15, 33, 0
17, 335280, Note_on_c, 15, 32, 76
17, 335504, Note_on_c, 15, 32, 0
17, 335520, Note_on_c, 15, 32, 76
17, 335624, Note_on_c, 15, 32, 0
17, 335640, Note_on_c, 15, 44, 76
17, 335864, Note_on_c, 15, 44, 0
17, 335880, Note_on_c, 15, 44, 76
17, 335984, Note_on_c, 15, 44, 0
17, 336000, Note_on_c, 15, 44, 76
17, 336119, Note_on_c, 15, 44, 0
17, 336120, Note_on_c, 15, 42, 76
17, 336584, Note_on_c, 15, 42, 0
17, 336600, Note_on_c, 15, 30, 76
17, 336704, Note_on_c, 15, 30, 0
17, 336720, Note_on_c, 15, 28, 76
17, 336944, Note_on_c, 15, 28, 0
17, 336960, Note_on_c, 15, 28, 76
17, 337064, Note_on_c, 15, 28, 0
17, 337080, Note_on_c, 15, 40, 76
17, 337304, Note_on_c, 15, 40, 0
17, 337320, Note_on_c, 15, 40, 76
17, 337424, Note_on_c, 15, 40, 0
17, 337440, Note_on_c, 15, 40, 76
17, 337559, Note_on_c, 15, 40, 0
17, 337560, Note_on_c, 15, 38, 76
17, 337664, Note_on_c, 15, 38, 0
17, 337680, Note_on_c, 15, 38, 76
17, 337769, Note_on_c, 15, 38, 0
17, 337800, Note_on_c, 15, 39, 76
17, 337904, Note_on_c, 15, 39, 0
17, 337920, Note_on_c, 15, 39, 76
17, 338024, Note_on_c, 15, 39, 0
17, 338040, Note_on_c, 15, 39, 76
17, 338144, Note_on_c, 15, 39, 0
17, 338160, Note_on_c, 15, 40, 76
17, 338399, Note_on_c, 15, 40, 0
17, 338520, Note_on_c, 15, 40, 76
17, 338759, Note_on_c, 15, 40, 0
17, 338880, Note_on_c, 15, 40, 76
17, 339119, Note_on_c, 15, 40, 0
17, 339240, Note_on_c, 15, 40, 76
17, 339479, Note_on_c, 15, 40, 0
17, 339600, Note_on_c, 15, 40, 76
17, 339839, Note_on_c, 15, 40, 0
17, 339960, Note_on_c, 15, 40, 76
17, 340199, Note_on_c, 15, 40, 0
17, 340320, Note_on_c, 15, 40, 76
17, 340559, Note_on_c, 15, 40, 0
17, 340680, Note_on_c, 15, 40, 76
17, 340919, Note_on_c, 15, 40, 0
17, 341040, Note_on_c, 15, 30, 84
17, 341099, Note_on_c, 15, 30, 0
17, 341100, Note_on_c, 15, 30, 76
17, 341120, Control_c, 15, 11, 122
17, 341160, Control_c, 15, 11, 119
17, 341200, Control_c, 15, 11, 117
17, 341240, Control_c, 15, 11, 114
17, 341280, Control_c, 15, 11, 111
17, 341320, Control_c, 15, 11, 109
17, 341360, Control_c, 15, 11, 106
17, 341400, Control_c, 15, 11, 104
17, 341440, Control_c, 15, 11, 101
17, 341480, Control_c, 15, 11, 98
17, 341520, Control_c, 15, 11, 96
17, 341560, Control_c, 15, 11, 93
17, 341600, Control_c, 15, 11, 90
17, 341639, Note_on_c, 15, 30, 0
17, 341640, Note_on_c, 15, 29, 76
17, 341640, Control_c, 15, 11, 88
17, 341680, Control_c, 15, 11, 85
17, 341720, Control_c, 15, 11, 80
17, 341744, Note_on_c, 15, 29, 0
17, 341760, Note_on_c, 15, 28, 76
17, 342359, Note_on_c, 15, 28, 0
17, 342360, Note_on_c, 15, 30, 76
17, 342419, Note_on_c, 15, 30, 0
17, 342420, Note_on_c, 15, 32, 76
17, 342479, Note_on_c, 15, 32, 0
17, 342480, Note_on_c, 15, 33, 76
17, 342719, Note_on_c, 15, 33, 0
17, 343200, Control_c, 15, 11, 127
17, 343920, Note_on_c, 15, 33, 48
17, 344279, Note_on_c, 15, 33, 0
17, 344280, Note_on_c, 15, 37, 48
17, 344639, Note_on_c, 15, 37, 0
17, 344640, Note_on_c, 15, 40, 48
17, 344999, Note_on_c, 15, 40, 0
17, 345000, Note_on_c, 15, 28, 48
17, 345344, Note_on_c, 15, 28, 0
17, 345360, Note_on_c, 15, 33, 84
17, 345704, Note_on_c, 15, 33, 0
17, 345720, Note_on_c, 15, 45, 84
17, 345891, Note_on_c, 15, 45, 0
17, 345900, Note_on_c, 15, 45, 84
17, 345951, Note_on_c, 15, 45, 0
17, 345960, Note_on_c, 15, 45, 84
17, 346064, Note_on_c, 15, 45, 0
17, 346080, Note_on_c, 15, 45, 84
17, 346251, Note_on_c, 15, 45, 0
17, 346260, Note_on_c, 15, 45, 84
17, 346311, Note_on_c, 15, 45, 0
17, 346320, Note_on_c, 15, 45, 84
17, 346424, Note_on_c, 15, 45, 0
17, 346440, Note_on_c, 15, 45, 84
17, 346611, Note_on_c, 15, 45, 0
17, 346620, Note_on_c, 15, 45, 84
17, 346671, Note_on_c, 15, 45, 0
17, 346680, Note_on_c, 15, 43, 84
17, 346784, Note_on_c, 15, 43, 0
17, 346800, Note_on_c, 15, 41, 84
17, 346971, Note_on_c, 15, 41, 0
17, 346980, Note_on_c, 15, 53, 84
17, 347031, Note_on_c, 15, 53, 0
17, 347040, Note_on_c, 15, 48, 84
17, 347144, Note_on_c, 15, 48, 0
17, 347160, Note_on_c, 15, 45, 84
17, 347331, Note_on_c, 15, 45, 0
17, 347340, Note_on_c, 15, 45, 84
17, 347391, Note_on_c, 15, 45, 0
17, 347400, Note_on_c, 15, 41, 84
17, 347504, Note_on_c, 15, 41, 0
17, 347520, Note_on_c, 15, 36, 84
17, 347691, Note_on_c, 15, 36, 0
17, 347700, Note_on_c, 15, 36, 84
17, 347751, Note_on_c, 15, 36, 0
17, 347760, Note_on_c, 15, 33, 84
17, 347864, Note_on_c, 15, 33, 0
17, 347880, Note_on_c, 15, 29, 84
17, 348051, Note_on_c, 15, 29, 0
17, 348060, Note_on_c, 15, 41, 84
17, 348111, Note_on_c, 15, 41, 0
17, 348120, Note_on_c, 15, 36, 84
17, 348224, Note_on_c, 15, 36, 0
17, 348240, Note_on_c, 15, 41, 84
17, 348479, Note_on_c, 15, 41, 0
17, 348780, Note_on_c, 15, 36, 82
17, 348831, Note_on_c, 15, 36, 0
17, 348840, Note_on_c, 15, 36, 80
17, 348944, Note_on_c, 15, 36, 0
17, 348960, Note_on_c, 15, 41, 76
17, 349199, Note_on_c, 15, 41, 0
17, 349500, Note_on_c, 15, 36, 58
17, 349551, Note_on_c, 15, 36, 0
17, 349560, Note_on_c, 15, 36, 56
17, 349664, Note_on_c, 15, 36, 0
17, 349680, Note_on_c, 15, 41, 52
17, 349919, Note_on_c, 15, 41, 0
17, 350400, Note_on_c, 15, 41, 44
17, 350639, Note_on_c, 15, 41, 0
17, 351360, Note_on_c, 15, 32, 44
17, 351419, Note_on_c, 15, 32, 0
17, 351420, Note_on_c, 15, 33, 44
17, 351479, Note_on_c, 15, 33, 0
17, 351480, Note_on_c, 15, 35, 44
17, 351659, Note_on_c, 15, 35, 0
17, 352800, Note_on_c, 15, 32, 44
17, 352859, Note_on_c, 15, 32, 0
17, 352860, Note_on_c, 15, 33, 44
17, 352919, Note_on_c, 15, 33, 0
17, 352920, Note_on_c, 15, 35, 44
17, 353099, Note_on_c, 15, 35, 0
17, 354240, Note_on_c, 15, 32, 46
17, 354299, Note_on_c, 15, 32, 0
17, 354300, Note_on_c, 15, 33, 46
17, 354359, Note_on_c, 15, 33, 0
17, 354360, Note_on_c, 15, 35, 47
17, 354449, Note_on_c, 15, 35, 0
17, 354600, Note_on_c, 15, 33, 49
17, 354659, Note_on_c, 15, 33, 0
17, 354660, Note_on_c, 15, 35, 50
17, 354719, Note_on_c, 15, 35, 0
17, 354720, Note_on_c, 15, 37, 50
17, 354809, Note_on_c, 15, 37, 0
17, 354960, Note_on_c, 15, 33, 52
17, 355019, Note_on_c, 15, 33, 0
17, 355020, Note_on_c, 15, 35, 53
17, 355079, Note_on_c, 15, 35, 0
17, 355080, Note_on_c, 15, 37, 54
17, 355169, Note_on_c, 15, 37, 0
17, 355320, Note_on_c, 15, 35, 56
17, 355379, Note_on_c, 15, 35, 0
17, 355380, Note_on_c, 15, 37, 56
17, 355439, Note_on_c, 15, 37, 0
17, 355440, Note_on_c, 15, 38, 57
17, 355529, Note_on_c, 15, 38, 0
17, 355680, Note_on_c, 15, 35, 59
17, 355739, Note_on_c, 15, 35, 0
17, 355740, Note_on_c, 15, 37, 60
17, 355799, Note_on_c, 15, 37, 0
17, 355800, Note_on_c, 15, 38, 60
17, 355889, Note_on_c, 15, 38, 0
17, 356040, Note_on_c, 15, 37, 62
17, 356099, Note_on_c, 15, 37, 0
17, 356100, Note_on_c, 15, 38, 63
17, 356159, Note_on_c, 15, 38, 0
17, 356160, Note_on_c, 15, 40, 64
17, 356249, Note_on_c, 15, 40, 0
17, 356400, Note_on_c, 15, 37, 66
17, 356459, Note_on_c, 15, 37, 0
17, 356460, Note_on_c, 15, 38, 66
17, 356519, Note_on_c, 15, 38, 0
17, 356520, Note_on_c, 15, 40, 67
17, 356609, Note_on_c, 15, 40, 0
17, 356760, Note_on_c, 15, 38, 69
17, 356819, Note_on_c, 15, 38, 0
17, 356820, Note_on_c, 15, 40, 70
17, 356879, Note_on_c, 15, 40, 0
17, 356880, Note_on_c, 15, 42, 70
17, 356969, Note_on_c, 15, 42, 0
17, 357120, Note_on_c, 15, 38, 72
17, 357179, Note_on_c, 15, 38, 0
17, 357180, Note_on_c, 15, 40, 73
17, 357239, Note_on_c, 15, 40, 0
17, 357240, Note_on_c, 15, 42, 74
17, 357329, Note_on_c, 15, 42, 0
17, 357480, Note_on_c, 15, 40, 76
17, 357539, Note_on_c, 15, 40, 0
17, 357540, Note_on_c, 15, 42, 76
17, 357599, Note_on_c, 15, 42, 0
17, 357600, Note_on_c, 15, 44, 77
17, 357689, Note_on_c, 15, 44, 0
17, 357840, Note_on_c, 15, 40, 79
17, 357899, Note_on_c, 15, 40, 0
17, 357900, Note_on_c, 15, 42, 80
17, 357959, Note_on_c, 15, 42, 0
17, 357960, Note_on_c, 15, 44, 80
17, 358049, Note_on_c, 15, 44, 0
17, 358200, Note_on_c, 15, 42, 82
17, 358259, Note_on_c, 15, 42, 0
17, 358260, Note_on_c, 15, 44, 83
17, 358319, Note_on_c, 15, 44, 0
17, 358320, Note_on_c, 15, 45, 84
17, 358491, Note_on_c, 15, 45, 0
17, 358500, Note_on_c, 15, 57, 84
17, 358551, Note_on_c, 15, 57, 0
17, 358560, Note_on_c, 15, 52, 84
17, 358664, Note_on_c, 15, 52, 0
17, 358680, Note_on_c, 15, 49, 84
17, 358851, Note_on_c, 15, 49, 0
17, 358860, Note_on_c, 15, 49, 84
17, 358911, Note_on_c, 15, 49, 0
17, 358920, Note_on_c, 15, 45, 84
17, 359024, Note_on_c, 15, 45, 0
17, 359040, Note_on_c, 15, 40, 84
17, 359211, Note_on_c, 15, 40, 0
17, 359220, Note_on_c, 15, 40, 84
17, 359271, Note_on_c, 15, 40, 0
17, 359280, Note_on_c, 15, 37, 84
17, 359384, Note_on_c, 15, 37, 0
17, 359400, Note_on_c, 15, 33, 84
17, 359639, Note_on_c, 15, 33, 0
17, 359760, Note_on_c, 15, 26, 84
17, 359931, Note_on_c, 15, 26, 0
17, 359940, Note_on_c, 15, 50, 84
17, 359991, Note_on_c, 15, 50, 0
17, 360000, Note_on_c, 15, 45, 84
17, 360104, Note_on_c, 15, 45, 0
17, 360120, Note_on_c, 15, 42, 84
17, 360291, Note_on_c, 15, 42, 0
17, 360300, Note_on_c, 15, 42, 84
17, 360351, Note_on_c, 15, 42, 0
17, 360360, Note_on_c, 15, 38, 84
17, 360464, Note_on_c, 15, 38, 0
17, 360480, Note_on_c, 15, 33, 84
17, 360651, Note_on_c, 15, 33, 0
17, 360660, Note_on_c, 15, 33, 84
17, 360711, Note_on_c, 15, 33, 0
17, 360720, Note_on_c, 15, 30, 84
17, 360824, Note_on_c, 15, 30, 0
17, 360840, Note_on_c, 15, 26, 84
17, 361079, Note_on_c, 15, 26, 0
17, 362640, Note_on_c, 15, 33, 84
17, 362811, Note_on_c, 15, 33, 0
17, 362820, Note_on_c, 15, 57, 84
17, 362871, Note_on_c, 15, 57, 0
17, 362880, Note_on_c, 15, 52, 84
17, 362984, Note_on_c, 15, 52, 0
17, 363000, Note_on_c, 15, 49, 84
17, 363171, Note_on_c, 15, 49, 0
17, 363180, Note_on_c, 15, 49, 84
17, 363231, Note_on_c, 15, 49, 0
17, 363240, Note_on_c, 15, 45, 84
17, 363344, Note_on_c, 15, 45, 0
17, 363360, Note_on_c, 15, 40, 84
17, 363531, Note_on_c, 15, 40, 0
17, 363540, Note_on_c, 15, 40, 84
17, 363591, Note_on_c, 15, 40, 0
17, 363600, Note_on_c, 15, 37, 84
17, 363704, Note_on_c, 15, 37, 0
17, 363720, Note_on_c, 15, 33, 84
17, 363959, Note_on_c, 15, 33, 0
17, 364080, Note_on_c, 15, 50, 84
17, 364251, Note_on_c, 15, 50, 0
17, 364260, Note_on_c, 15, 50, 84
17, 364311, Note_on_c, 15, 50, 0
17, 364320, Note_on_c, 15, 45, 84
17, 364424, Note_on_c, 15, 45, 0
17, 364440, Note_on_c, 15, 42, 84
17, 364611, Note_on_c, 15, 42, 0
17, 364620, Note_on_c, 15, 42, 84
17, 364671, Note_on_c, 15, 42, 0
17, 364680, Note_on_c, 15, 38, 84
17, 364784, Note_on_c, 15, 38, 0
17, 364800, Note_on_c, 15, 33, 84
17, 364971, Note_on_c, 15, 33, 0
17, 364980, Note_on_c, 15, 33, 84
17, 365031, Note_on_c, 15, 33, 0
17, 365040, Note_on_c, 15, 30, 84
17, 365144, Note_on_c, 15, 30, 0
17, 365160, Note_on_c, 15, 26, 84
17, 365399, Note_on_c, 15, 26, 0
17, 365518, Control_c, 15, 11, 48
17, 365520, Note_on_c, 15, 26, 84
17, 366224, Note_on_c, 15, 26, 0
17, 366240, Note_on_c, 15, 28, 84
17, 366280, Control_c, 15, 11, 52
17, 366320, Control_c, 15, 11, 57
17, 366360, Control_c, 15, 11, 61
17, 366400, Control_c, 15, 11, 66
17, 366440, Control_c, 15, 11, 70
17, 366480, Control_c, 15, 11, 74
17, 366520, Control_c, 15, 11, 79
17, 366560, Control_c, 15, 11, 83
17, 366600, Control_c, 15, 11, 88
17, 366640, Control_c, 15, 11, 92
17, 366680, Control_c, 15, 11, 96
17, 366720, Control_c, 15, 11, 101
17, 366760, Control_c, 15, 11, 105
17, 366800, Control_c, 15, 11, 109
17, 366840, Control_c, 15, 11, 114
17, 366880, Control_c, 15, 11, 118
17, 366920, Control_c, 15, 11, 123
17, 366944, Note_on_c, 15, 28, 0
17, 366958, Control_c, 15, 11, 127
17, 366960, Note_on_c, 15, 33, 84
17, 367199, Note_on_c, 15, 33, 0
17, 367320, Note_on_c, 15, 37, 84
17, 367559, Note_on_c, 15, 37, 0
17, 367680, Note_on_c, 15, 40, 84
17, 367919, Note_on_c, 15, 40, 0
17, 368220, Note_on_c, 15, 40, 84
17, 368271, Note_on_c, 15, 40, 0
17, 368280, Note_on_c, 15, 40, 84
17, 368384, Note_on_c, 15, 40, 0
17, 368400, Note_on_c, 15, 40, 92
17, 368459, Note_on_c, 15, 40, 0
17, 368460, Note_on_c, 15, 40, 84
17, 368931, Note_on_c, 15, 40, 0
17, 368940, Note_on_c, 15, 38, 84
17, 368984, Note_on_c, 15, 38, 0
17, 369000, Note_on_c, 15, 37, 84
17, 369081, Note_on_c, 15, 37, 0
17, 369090, Note_on_c, 15, 37, 84
17, 369119, Note_on_c, 15, 37, 0
17, 369120, Note_on_c, 15, 38, 92
17, 369179, Note_on_c, 15, 38, 0
17, 369180, Note_on_c, 15, 38, 84
17, 369651, Note_on_c, 15, 38, 0
17, 369660, Note_on_c, 15, 30, 84
17, 369704, Note_on_c, 15, 30, 0
17, 369720, Note_on_c, 15, 32, 84
17, 369801, Note_on_c, 15, 32, 0
17, 369840, Note_on_c, 15, 33, 84
17, 370079, Note_on_c, 15, 33, 0
17, 370380, Note_on_c, 15, 40, 84
17, 370431, Note_on_c, 15, 40, 0
17, 370440, Note_on_c, 15, 40, 84
17, 370544, Note_on_c, 15, 40, 0
17, 370560, Note_on_c, 15, 40, 92
17, 370619, Note_on_c, 15, 40, 0
17, 370620, Note_on_c, 15, 40, 84
17, 370791, Note_on_c, 15, 40, 0
17, 370800, Note_on_c, 15, 37, 84
17, 370881, Note_on_c, 15, 37, 0
17, 370890, Note_on_c, 15, 37, 84
17, 370919, Note_on_c, 15, 37, 0
17, 370920, Note_on_c, 15, 38, 84
17, 371091, Note_on_c, 15, 38, 0
17, 371100, Note_on_c, 15, 30, 84
17, 371144, Note_on_c, 15, 30, 0
17, 371160, Note_on_c, 15, 32, 84
17, 371249, Note_on_c, 15, 32, 0
17, 371280, Note_on_c, 15, 33, 84
17, 371519, Note_on_c, 15, 33, 0
17, 371820, Note_on_c, 15, 40, 84
17, 371871, Note_on_c, 15, 40, 0
17, 371880, Note_on_c, 15, 40, 84
17, 371961, Note_on_c, 15, 40, 0
17, 371970, Note_on_c, 15, 32, 84
17, 371999, Note_on_c, 15, 32, 0
17, 372000, Note_on_c, 15, 33, 84
17, 372239, Note_on_c, 15, 33, 0
17, 372330, Note_on_c, 15, 33, 84
17, 372359, Note_on_c, 15, 33, 0
17, 372360, Note_on_c, 15, 35, 84
17, 372599, Note_on_c, 15, 35, 0
17, 372690, Note_on_c, 15, 35, 84
17, 372719, Note_on_c, 15, 35, 0
17, 372720, Note_on_c, 15, 37, 84
17, 372959, Note_on_c, 15, 37, 0
17, 373050, Note_on_c, 15, 37, 84
17, 373079, Note_on_c, 15, 37, 0
17, 373080, Note_on_c, 15, 38, 84
17, 373319, Note_on_c, 15, 38, 0
17, 373410, Note_on_c, 15, 38, 84
17, 373439, Note_on_c, 15, 38, 0
17, 373440, Note_on_c, 15, 40, 84
17, 373679, Note_on_c, 15, 40, 0
17, 373770, Note_on_c, 15, 40, 84
17, 373799, Note_on_c, 15, 40, 0
17, 373800, Note_on_c, 15, 42, 84
17, 374039, Note_on_c, 15, 42, 0
17, 374130, Note_on_c, 15, 42, 84
17, 374159, Note_on_c, 15, 42, 0
17, 374160, Note_on_c, 15, 44, 84
17, 374399, Note_on_c, 15, 44, 0
17, 374490, Note_on_c, 15, 44, 84
17, 374519, Note_on_c, 15, 44, 0
17, 374520, Note_on_c, 15, 45, 84
17, 374759, Note_on_c, 15, 45, 0
17, 376290, Note_on_c, 15, 43, 52
17, 376319, Note_on_c, 15, 43, 0
17, 376320, Note_on_c, 15, 44, 52
17, 376559, Note_on_c, 15, 44, 0
17, 377760, Note_on_c, 15, 32, 44
17, 377931, Note_on_c, 15, 32, 0
17, 377940, Note_on_c, 15, 32, 44
17, 377991, Note_on_c, 15, 32, 0
17, 378000, Note_on_c, 15, 32, 44
17, 378104, Note_on_c, 15, 32, 0
17, 378120, Note_on_c, 15, 32, 44
17, 378291, Note_on_c, 15, 32, 0
17, 378300, Note_on_c, 15, 32, 44
17, 378351, Note_on_c, 15, 32, 0
17, 378360, Note_on_c, 15, 32, 44
17, 378464, Note_on_c, 15, 32, 0
17, 378480, Note_on_c, 15, 32, 44
17, 378651, Note_on_c, 15, 32, 0
17, 378660, Note_on_c, 15, 32, 44
17, 378711, Note_on_c, 15, 32, 0
17, 378720, Note_on_c, 15, 32, 44
17, 378824, Note_on_c, 15, 32, 0
17, 378840, Note_on_c, 15, 32, 44
17, 379011, Note_on_c, 15, 32, 0
17, 379020, Note_on_c, 15, 32, 44
17, 379071, Note_on_c, 15, 32, 0
17, 379080, Note_on_c, 15, 32, 44
17, 379184, Note_on_c, 15, 32, 0
17, 379200, Note_on_c, 15, 32, 44
17, 379371, Note_on_c, 15, 32, 0
17, 379380, Note_on_c, 15, 32, 44
17, 379431, Note_on_c, 15, 32, 0
17, 379440, Note_on_c, 15, 32, 44
17, 379544, Note_on_c, 15, 32, 0
17, 379560, Note_on_c, 15, 32, 44
17, 379731, Note_on_c, 15, 32, 0
17, 379740, Note_on_c, 15, 32, 44
17, 379791, Note_on_c, 15, 32, 0
17, 379800, Note_on_c, 15, 32, 44
17, 379904, Note_on_c, 15, 32, 0
17, 379920, Note_on_c, 15, 32, 44
17, 380091, Note_on_c, 15, 32, 0
17, 380100, Note_on_c, 15, 32, 44
17, 380151, Note_on_c, 15, 32, 0
17, 380160, Note_on_c, 15, 32, 44
17, 380264, Note_on_c, 15, 32, 0
17, 380280, Note_on_c, 15, 32, 44
17, 380451, Note_on_c, 15, 32, 0
17, 380460, Note_on_c, 15, 32, 44
17, 380511, Note_on_c, 15, 32, 0
17, 380520, Note_on_c, 15, 32, 44
17, 380624, Note_on_c, 15, 32, 0
17, 380640, Note_on_c, 15, 31, 44
17, 380811, Note_on_c, 15, 31, 0
17, 380820, Note_on_c, 15, 31, 44
17, 380871, Note_on_c, 15, 31, 0
17, 380880, Note_on_c, 15, 31, 44
17, 380984, Note_on_c, 15, 31, 0
17, 381000, Note_on_c, 15, 31, 44
17, 381171, Note_on_c, 15, 31, 0
17, 381180, Note_on_c, 15, 31, 44
17, 381231, Note_on_c, 15, 31, 0
17, 381240, Note_on_c, 15, 31, 44
17, 381344, Note_on_c, 15, 31, 0
17, 381360, Note_on_c, 15, 31, 44
17, 381531, Note_on_c, 15, 31, 0
17, 381540, Note_on_c, 15, 31, 44
17, 381591, Note_on_c, 15, 31, 0
17, 381600, Note_on_c, 15, 31, 44
17, 381704, Note_on_c, 15, 31, 0
17, 381720, Note_on_c, 15, 31, 44
17, 381891, Note_on_c, 15, 31, 0
17, 381900, Note_on_c, 15, 31, 44
17, 381951, Note_on_c, 15, 31, 0
17, 381960, Note_on_c, 15, 31, 44
17, 382064, Note_on_c, 15, 31, 0
17, 382080, Note_on_c, 15, 29, 44
17, 382251, Note_on_c, 15, 29, 0
17, 382260, Note_on_c, 15, 29, 44
17, 382311, Note_on_c, 15, 29, 0
17, 382320, Note_on_c, 15, 29, 44
17, 382424, Note_on_c, 15, 29, 0
17, 382440, Note_on_c, 15, 29, 44
17, 382611, Note_on_c, 15, 29, 0
17, 382620, Note_on_c, 15, 29, 44
17, 382671, Note_on_c, 15, 29, 0
17, 382680, Note_on_c, 15, 29, 44
17, 382784, Note_on_c, 15, 29, 0
17, 382800, Note_on_c, 15, 29, 44
17, 382971, Note_on_c, 15, 29, 0
17, 382980, Note_on_c, 15, 29, 44
17, 383031, Note_on_c, 15, 29, 0
17, 383040, Note_on_c, 15, 29, 44
17, 383144, Note_on_c, 15, 29, 0
17, 383160, Note_on_c, 15, 29, 44
17, 383331, Note_on_c, 15, 29, 0
17, 383340, Note_on_c, 15, 29, 44
17, 383391, Note_on_c, 15, 29, 0
17, 383400, Note_on_c, 15, 29, 44
17, 383504, Note_on_c, 15, 29, 0
17, 383520, Note_on_c, 15, 28, 44
17, 383691, Note_on_c, 15, 28, 0
17, 383700, Note_on_c, 15, 28, 44
17, 383751, Note_on_c, 15, 28, 0
17, 383760, Note_on_c, 15, 28, 44
17, 383864, Note_on_c, 15, 28, 0
17, 383880, Note_on_c, 15, 28, 44
17, 384051, Note_on_c, 15, 28, 0
17, 384060, Note_on_c, 15, 28, 44
17, 384111, Note_on_c, 15, 28, 0
17, 384120, Note_on_c, 15, 28, 44
17, 384224, Note_on_c, 15, 28, 0
17, 384240, Note_on_c, 15, 28, 44
17, 384411, Note_on_c, 15, 28, 0
17, 384420, Note_on_c, 15, 28, 44
17, 384471, Note_on_c, 15, 28, 0
17, 384480, Note_on_c, 15, 28, 44
17, 384584, Note_on_c, 15, 28, 0
17, 384600, Note_on_c, 15, 28, 44
17, 384771, Note_on_c, 15, 28, 0
17, 384780, Note_on_c, 15, 28, 44
17, 384831, Note_on_c, 15, 28, 0
17, 384840, Note_on_c, 15, 28, 44
17, 384944, Note_on_c, 15, 28, 0
17, 384960, Note_on_c, 15, 38, 44
17, 385439, Note_on_c, 15, 38, 0
17, 385440, Note_on_c, 15, 37, 44
17, 385559, Note_on_c, 15, 37, 0
17, 385560, Note_on_c, 15, 36, 44
17, 385664, Note_on_c, 15, 36, 0
17, 385680, Note_on_c, 15, 36, 44
17, 385799, Note_on_c, 15, 36, 0
17, 385800, Note_on_c, 15, 37, 44
17, 386384, Note_on_c, 15, 37, 0
17, 386400, Note_on_c, 15, 38, 44
17, 386879, Note_on_c, 15, 38, 0
17, 386880, Note_on_c, 15, 37, 44
17, 386999, Note_on_c, 15, 37, 0
17, 387000, Note_on_c, 15, 36, 44
17, 387104, Note_on_c, 15, 36, 0
17, 387120, Note_on_c, 15, 36, 44
17, 387239, Note_on_c, 15, 36, 0
17, 387240, Note_on_c, 15, 37, 44
17, 387824, Note_on_c, 15, 37, 0
17, 387840, Note_on_c, 15, 38, 44
17, 388319, Note_on_c, 15, 38, 0
17, 388320, Note_on_c, 15, 37, 44
17, 388439, Note_on_c, 15, 37, 0
17, 388440, Note_on_c, 15, 36, 44
17, 388544, Note_on_c, 15, 36, 0
17, 388560, Note_on_c, 15, 36, 44
17, 388679, Note_on_c, 15, 36, 0
17, 388680, Note_on_c, 15, 37, 44
17, 389264, Note_on_c, 15, 37, 0
17, 389280, Note_on_c, 15, 38, 44
17, 389759, Note_on_c, 15, 38, 0
17, 389760, Note_on_c, 15, 37, 44
17, 389879, Note_on_c, 15, 37, 0
17, 389880, Note_on_c, 15, 36, 44
17, 389984, Note_on_c, 15, 36, 0
17, 390000, Note_on_c, 15, 36, 44
17, 390119, Note_on_c, 15, 36, 0
17, 390120, Note_on_c, 15, 37, 44
17, 390704, Note_on_c, 15, 37, 0
17, 390718, Control_c, 15, 11, 44
17, 390720, Note_on_c, 15, 38, 84
17, 390886, Control_c, 15, 11, 45
17, 391052, Control_c, 15, 11, 46
17, 391199, Note_on_c, 15, 38, 0
17, 391200, Note_on_c, 15, 37, 84
17, 391218, Control_c, 15, 11, 47
17, 391319, Note_on_c, 15, 37, 0
17, 391320, Note_on_c, 15, 36, 84
17, 391385, Control_c, 15, 11, 48
17, 391424, Note_on_c, 15, 36, 0
17, 391440, Note_on_c, 15, 36, 84
17, 391551, Control_c, 15, 11, 49
17, 391559, Note_on_c, 15, 36, 0
17, 391560, Note_on_c, 15, 37, 84
17, 391717, Control_c, 15, 11, 50
17, 391883, Control_c, 15, 11, 51
17, 392049, Control_c, 15, 11, 52
17, 392144, Note_on_c, 15, 37, 0
17, 392160, Note_on_c, 15, 38, 84
17, 392215, Control_c, 15, 11, 53
17, 392382, Control_c, 15, 11, 54
17, 392548, Control_c, 15, 11, 55
17, 392639, Note_on_c, 15, 38, 0
17, 392640, Note_on_c, 15, 37, 84
17, 392714, Control_c, 15, 11, 56
17, 392759, Note_on_c, 15, 37, 0
17, 392760, Note_on_c, 15, 36, 84
17, 392864, Note_on_c, 15, 36, 0
17, 392880, Control_c, 15, 11, 57
17, 392880, Note_on_c, 15, 36, 84
17, 392999, Note_on_c, 15, 36, 0
17, 393000, Note_on_c, 15, 37, 84
17, 393046, Control_c, 15, 11, 58
17, 393212, Control_c, 15, 11, 59
17, 393378, Control_c, 15, 11, 60
17, 393545, Control_c, 15, 11, 61
17, 393584, Note_on_c, 15, 37, 0
17, 393600, Note_on_c, 15, 38, 84
17, 393711, Control_c, 15, 11, 62
17, 393877, Control_c, 15, 11, 63
17, 394043, Control_c, 15, 11, 64
17, 394079, Note_on_c, 15, 38, 0
17, 394080, Note_on_c, 15, 37, 84
17, 394199, Note_on_c, 15, 37, 0
17, 394200, Note_on_c, 15, 36, 84
17, 394209, Control_c, 15, 11, 65
17, 394304, Note_on_c, 15, 36, 0
17, 394320, Note_on_c, 15, 36, 84
17, 394375, Control_c, 15, 11, 66
17, 394439, Note_on_c, 15, 36, 0
17, 394440, Note_on_c, 15, 37, 84
17, 394542, Control_c, 15, 11, 67
17, 394708, Control_c, 15, 11, 68
17, 394874, Control_c, 15, 11, 69
17, 395024, Note_on_c, 15, 37, 0
17, 395040, Control_c, 15, 11, 70
17, 395040, Note_on_c, 15, 38, 84
17, 395206, Control_c, 15, 11, 71
17, 395372, Control_c, 15, 11, 72
17, 395519, Note_on_c, 15, 38, 0
17, 395520, Note_on_c, 15, 37, 84
17, 395538, Control_c, 15, 11, 73
17, 395639, Note_on_c, 15, 37, 0
17, 395640, Note_on_c, 15, 36, 84
17, 395705, Control_c, 15, 11, 74
17, 395744, Note_on_c, 15, 36, 0
17, 395760, Note_on_c, 15, 36, 84
17, 395871, Control_c, 15, 11, 75
17, 395879, Note_on_c, 15, 36, 0
17, 395880, Note_on_c, 15, 37, 84
17, 396037, Control_c, 15, 11, 76
17, 396203, Control_c, 15, 11, 77
17, 396369, Control_c, 15, 11, 78
17, 396464, Note_on_c, 15, 37, 0
17, 396480, Note_on_c, 15, 38, 84
17, 396535, Control_c, 15, 11, 79
17, 396702, Control_c, 15, 11, 80
17, 396868, Control_c, 15, 11, 81
17, 396959, Note_on_c, 15, 38, 0
17, 396960, Note_on_c, 15, 37, 84
17, 397034, Control_c, 15, 11, 82
17, 397079, Note_on_c, 15, 37, 0
17, 397080, Note_on_c, 15, 36, 84
17, 397184, Note_on_c, 15, 36, 0
17, 397200, Control_c, 15, 11, 83
17, 397200, Note_on_c, 15, 36, 84
17, 397319, Note_on_c, 15, 36, 0
17, 397320, Note_on_c, 15, 37, 84
17, 397366, Control_c, 15, 11, 84
17, 397532, Control_c, 15, 11, 85
17, 397698, Control_c, 15, 11, 86
17, 397865, Control_c, 15, 11, 87
17, 397904, Note_on_c, 15, 37, 0
17, 397920, Note_on_c, 15, 38, 84
17, 398031, Control_c, 15, 11, 88
17, 398197, Control_c, 15, 11, 89
17, 398363, Control_c, 15, 11, 90
17, 398399, Note_on_c, 15, 38, 0
17, 398400, Note_on_c, 15, 37, 84
17, 398519, Note_on_c, 15, 37, 0
17, 398520, Note_on_c, 15, 36, 84
17, 398529, Control_c, 15, 11, 91
17, 398624, Note_on_c, 15, 36, 0
17, 398640, Note_on_c, 15, 36, 84
17, 398695, Control_c, 15, 11, 92
17, 398759, Note_on_c, 15, 36, 0
17, 398760, Note_on_c, 15, 37, 84
17, 398862, Control_c, 15, 11, 93
17, 399028, Control_c, 15, 11, 94
17, 399194, Control_c, 15, 11, 95
17, 399344, Note_on_c, 15, 37, 0
17, 399360, Control_c, 15, 11, 96
17, 399360, Note_on_c, 15, 38, 84
17, 399406, Control_c, 15, 11, 97
17, 399453, Control_c, 15, 11, 98
17, 399499, Control_c, 15, 11, 99
17, 399546, Control_c, 15, 11, 100
17, 399592, Control_c, 15, 11, 101
17, 399639, Control_c, 15, 11, 102
17, 399685, Control_c, 15, 11, 103
17, 399732, Control_c, 15, 11, 104
17, 399778, Control_c, 15, 11, 105
17, 399825, Control_c, 15, 11, 106
17, 399839, Note_on_c, 15, 38, 0
17, 399840, Note_on_c, 15, 37, 84
17, 399871, Control_c, 15, 11, 107
17, 399917, Control_c, 15, 11, 108
17, 399959, Note_on_c, 15, 37, 0
17, 399960, Note_on_c, 15, 36, 84
17, 399964, Control_c, 15, 11, 109
17, 400010, Control_c, 15, 11, 110
17, 400057, Control_c, 15, 11, 111
17, 400064, Note_on_c, 15, 36, 0
17, 400080, Note_on_c, 15, 38, 84
17, 400103, Control_c, 15, 11, 112
17, 400150, Control_c, 15, 11, 113
17, 400196, Control_c, 15, 11, 114
17, 400199, Note_on_c, 15, 38, 0
17, 400200, Note_on_c, 15, 37, 84
17, 400243, Control_c, 15, 11, 115
17, 400289, Control_c, 15, 11, 116
17, 400319, Note_on_c, 15, 37, 0
17, 400320, Note_on_c, 15, 36, 84
17, 400335, Control_c, 15, 11, 117
17, 400382, Control_c, 15, 11, 118
17, 400428, Control_c, 15, 11, 119
17, 400439, Note_on_c, 15, 36, 0
17, 400440, Note_on_c, 15, 38, 84
17, 400475, Control_c, 15, 11, 120
17, 400521, Control_c, 15, 11, 121
17, 400559, Note_on_c, 15, 38, 0
17, 400560, Note_on_c, 15, 37, 84
17, 400568, Control_c, 15, 11, 122
17, 400614, Control_c, 15, 11, 123
17, 400661, Control_c, 15, 11, 124
17, 400679, Note_on_c, 15, 37, 0
17, 400680, Note_on_c, 15, 36, 84
17, 400707, Control_c, 15, 11, 125
17, 400754, Control_c, 15, 11, 127
17, 400784, Note_on_c, 15, 36, 0
17, 400800, Note_on_c, 15, 37, 84
17, 400971, Note_on_c, 15, 37, 0
17, 400980, Note_on_c, 15, 37, 84
17, 401031, Note_on_c, 15, 37, 0
17, 401040, Note_on_c, 15, 37, 84
17, 401144, Note_on_c, 15, 37, 0
17, 401160, Note_on_c, 15, 37, 84
17, 401331, Note_on_c, 15, 37, 0
17, 401340, Note_on_c, 15, 37, 84
17, 401391, Note_on_c, 15, 37, 0
17, 401400, Note_on_c, 15, 37, 84
17, 401504, Note_on_c, 15, 37, 0
17, 401520, Note_on_c, 15, 37, 84
17, 401691, Note_on_c, 15, 37, 0
17, 401700, Note_on_c, 15, 37, 84
17, 401751, Note_on_c, 15, 37, 0
17, 401760, Note_on_c, 15, 37, 84
17, 401864, Note_on_c, 15, 37, 0
17, 401880, Note_on_c, 15, 37, 84
17, 402051, Note_on_c, 15, 37, 0
17, 402060, Note_on_c, 15, 37, 84
17, 402111, Note_on_c, 15, 37, 0
17, 402120, Note_on_c, 15, 37, 84
17, 402224, Note_on_c, 15, 37, 0
17, 402240, Note_on_c, 15, 26, 84
17, 402411, Note_on_c, 15, 26, 0
17, 402420, Note_on_c, 15, 38, 84
17, 402471, Note_on_c, 15, 38, 0
17, 402480, Note_on_c, 15, 38, 84
17, 402584, Note_on_c, 15, 38, 0
17, 402600, Note_on_c, 15, 38, 84
17, 402771, Note_on_c, 15, 38, 0
17, 402780, Note_on_c, 15, 38, 84
17, 402831, Note_on_c, 15, 38, 0
17, 402840, Note_on_c, 15, 38, 84
17, 402944, Note_on_c, 15, 38, 0
17, 402960, Note_on_c, 15, 38, 84
17, 403131, Note_on_c, 15, 38, 0
17, 403140, Note_on_c, 15, 38, 84
17, 403191, Note_on_c, 15, 38, 0
17, 403200, Note_on_c, 15, 38, 84
17, 403304, Note_on_c, 15, 38, 0
17, 403320, Note_on_c, 15, 38, 84
17, 403491, Note_on_c, 15, 38, 0
17, 403500, Note_on_c, 15, 38, 84
17, 403551, Note_on_c, 15, 38, 0
17, 403560, Note_on_c, 15, 38, 84
17, 403664, Note_on_c, 15, 38, 0
17, 403680, Note_on_c, 15, 40, 84
17, 403919, Note_on_c, 15, 40, 0
17, 404220, Note_on_c, 15, 45, 84
17, 404264, Note_on_c, 15, 45, 0
17, 404280, Note_on_c, 15, 40, 84
17, 404369, Note_on_c, 15, 40, 0
17, 404400, Note_on_c, 15, 40, 84
17, 404639, Note_on_c, 15, 40, 0
17, 404940, Note_on_c, 15, 52, 84
17, 404984, Note_on_c, 15, 52, 0
17, 405000, Note_on_c, 15, 49, 84
17, 405089, Note_on_c, 15, 49, 0
17, 405120, Note_on_c, 15, 49, 84
17, 405299, Note_on_c, 15, 49, 0
17, 405420, Note_on_c, 15, 57, 84
17, 405471, Note_on_c, 15, 57, 0
17, 405480, Note_on_c, 15, 52, 84
17, 405659, Note_on_c, 15, 52, 0
17, 405780, Note_on_c, 15, 52, 84
17, 405831, Note_on_c, 15, 52, 0
17, 405840, Note_on_c, 15, 49, 84
17, 406019, Note_on_c, 15, 49, 0
17, 406140, Note_on_c, 15, 49, 84
17, 406191, Note_on_c, 15, 49, 0
17, 406200, Note_on_c, 15, 45, 84
17, 406379, Note_on_c, 15, 45, 0
17, 406500, Note_on_c, 15, 45, 84
17, 406551, Note_on_c, 15, 45, 0
17, 406560, Note_on_c, 15, 42, 84
17, 406739, Note_on_c, 15, 42, 0
17, 406860, Note_on_c, 15, 42, 84
17, 406911, Note_on_c, 15, 42, 0
17, 406920, Note_on_c, 15, 40, 84
17, 407099, Note_on_c, 15, 40, 0
17, 407220, Note_on_c, 15, 40, 84
17, 407271, Note_on_c, 15, 40, 0
17, 407280, Note_on_c, 15, 39, 84
17, 407519, Note_on_c, 15, 39, 0
17, 407820, Note_on_c, 15, 39, 84
17, 407871, Note_on_c, 15, 39, 0
17, 407880, Note_on_c, 15, 39, 84
17, 407984, Note_on_c, 15, 39, 0
17, 408000, Note_on_c, 15, 39, 84
17, 408239, Note_on_c, 15, 39, 0
17, 408540, Note_on_c, 15, 39, 84
17, 408591, Note_on_c, 15, 39, 0
17, 408600, Note_on_c, 15, 39, 84
17, 408704, Note_on_c, 15, 39, 0
17, 408720, Note_on_c, 15, 38, 84
17, 408959, Note_on_c, 15, 38, 0
17, 409260, Note_on_c, 15, 38, 84
17, 409311, Note_on_c, 15, 38, 0
17, 409320, Note_on_c, 15, 38, 84
17, 409424, Note_on_c, 15, 38, 0
17, 409440, Note_on_c, 15, 38, 84
17, 409679, Note_on_c, 15, 38, 0
17, 409980, Note_on_c, 15, 38, 84
17, 410031, Note_on_c, 15, 38, 0
17, 410040, Note_on_c, 15, 38, 84
17, 410144, Note_on_c, 15, 38, 0
17, 410160, Note_on_c, 15, 37, 84
17, 410399, Note_on_c, 15, 37, 0
17, 410700, Note_on_c, 15, 38, 84
17, 410751, Note_on_c, 15, 38, 0
17, 410760, Note_on_c, 15, 38, 84
17, 410864, Note_on_c, 15, 38, 0
17, 410880, Note_on_c, 15, 40, 84
17, 411119, Note_on_c, 15, 40, 0
17, 411420, Note_on_c, 15, 41, 84
17, 411471, Note_on_c, 15, 41, 0
17, 411480, Note_on_c, 15, 41, 84
17, 411584, Note_on_c, 15, 41, 0
17, 411600, Note_on_c, 15, 42, 84
17, 411719, Note_on_c, 15, 42, 0
17, 411780, Note_on_c, 15, 38, 84
17, 411831, Note_on_c, 15, 38, 0
17, 411840, Note_on_c, 15, 38, 84
17, 411944, Note_on_c, 15, 38, 0
17, 411960, Note_on_c, 15, 38, 84
17, 412079, Note_on_c, 15, 38, 0
17, 412140, Note_on_c, 15, 40, 84
17, 412191, Note_on_c, 15, 40, 0
17, 412200, Note_on_c, 15, 40, 84
17, 412304, Note_on_c, 15, 40, 0
17, 412320, Note_on_c, 15, 40, 84
17, 412439, Note_on_c, 15, 40, 0
17, 412500, Note_on_c, 15, 41, 84
17, 412551, Note_on_c, 15, 41, 0
17, 412560, Note_on_c, 15, 41, 84
17, 412664, Note_on_c, 15, 41, 0
17, 412680, Note_on_c, 15, 41, 84
17, 412799, Note_on_c, 15, 41, 0
17, 412860, Note_on_c, 15, 42, 84
17, 412911, Note_on_c, 15, 42, 0
17, 412920, Note_on_c, 15, 42, 84
17, 413024, Note_on_c, 15, 42, 0
17, 413040, Note_on_c, 15, 42, 84
17, 413159, Note_on_c, 15, 42, 0
17, 413220, Note_on_c, 15, 38, 84
17, 413271, Note_on_c, 15, 38, 0
17, 413280, Note_on_c, 15, 38, 84
17, 413384, Note_on_c, 15, 38, 0
17, 413400, Note_on_c, 15, 38, 84
17, 413519, Note_on_c, 15, 38, 0
17, 413580, Note_on_c, 15, 40, 84
17, 413631, Note_on_c, 15, 40, 0
17, 413640, Note_on_c, 15, 40, 84
17, 413744, Note_on_c, 15, 40, 0
17, 413760, Note_on_c, 15, 40, 84
17, 413879, Note_on_c, 15, 40, 0
17, 413940, Note_on_c, 15, 40, 84
17, 413991, Note_on_c, 15, 40, 0
17, 414000, Note_on_c, 15, 40, 84
17, 414104, Note_on_c, 15, 40, 0
17, 414120, Note_on_c, 15, 40, 84
17, 414239, Note_on_c, 15, 40, 0
17, 414300, Note_on_c, 15, 33, 84
17, 414351, Note_on_c, 15, 33, 0
17, 414360, Note_on_c, 15, 33, 84
17, 414464, Note_on_c, 15, 33, 0
17, 414480, Note_on_c, 15, 33, 84
17, 414719, Note_on_c, 15, 33, 0
17, 415200, Note_on_c, 15, 40, 84
17, 415319, Note_on_c, 15, 40, 0
17, 415380, Note_on_c, 15, 40, 84
17, 415431, Note_on_c, 15, 40, 0
17, 415440, Note_on_c, 15, 40, 84
17, 415544, Note_on_c, 15, 40, 0
17, 415560, Note_on_c, 15, 40, 84
17, 415679, Note_on_c, 15, 40, 0
17, 415740, Note_on_c, 15, 40, 84
17, 415791, Note_on_c, 15, 40, 0
17, 415800, Note_on_c, 15, 40, 84
17, 415904, Note_on_c, 15, 40, 0
17, 415920, Note_on_c, 15, 33, 84
17, 416159, Note_on_c, 15, 33, 0
17, 416640, Note_on_c, 15, 40, 84
17, 416759, Note_on_c, 15, 40, 0
17, 416820, Note_on_c, 15, 40, 84
17, 416871, Note_on_c, 15, 40, 0
17, 416880, Note_on_c, 15, 40, 84
17, 416984, Note_on_c, 15, 40, 0
17, 417000, Note_on_c, 15, 40, 84
17, 417119, Note_on_c, 15, 40, 0
17, 417180, Note_on_c, 15, 40, 84
17, 417231, Note_on_c, 15, 40, 0
17, 417240, Note_on_c, 15, 40, 84
17, 417344, Note_on_c, 15, 40, 0
17, 417360, Note_on_c, 15, 33, 84
17, 417479, Note_on_c, 15, 33, 0
17, 417540, Note_on_c, 15, 45, 84
17, 417591, Note_on_c, 15, 45, 0
17, 417600, Note_on_c, 15, 45, 84
17, 417704, Note_on_c, 15, 45, 0
17, 417720, Note_on_c, 15, 45, 84
17, 417839, Note_on_c, 15, 45, 0
17, 417900, Note_on_c, 15, 45, 84
17, 417951, Note_on_c, 15, 45, 0
17, 417960, Note_on_c, 15, 45, 84
17, 418064, Note_on_c, 15, 45, 0
17, 418080, Note_on_c, 15, 45, 84
17, 418199, Note_on_c, 15, 45, 0
17, 418260, Note_on_c, 15, 33, 84
17, 418311, Note_on_c, 15, 33, 0
17, 418320, Note_on_c, 15, 33, 84
17, 418424, Note_on_c, 15, 33, 0
17, 418440, Note_on_c, 15, 33, 84
17, 418559, Note_on_c, 15, 33, 0
17, 418620, Note_on_c, 15, 33, 84
17, 418671, Note_on_c, 15, 33, 0
17, 418680, Note_on_c, 15, 33, 84
17, 418784, Note_on_c, 15, 33, 0
17, 418800, Note_on_c, 15, 33, 84
17, 419039, Note_on_c, 15, 33, 0
17, 419520, Note_on_c, 15, 40, 84
17, 419759, Note_on_c, 15, 40, 0
17, 420240, Note_on_c, 15, 33, 84
17, 420479, Note_on_c, 15, 33, 0
17, 420479, End_track
18, 0, Start_track
18, 0, Title_t, "Ludwig van Beethoven - Symphony No. 7 in A Major, Op.92 - 1. Poco sostenuto--Vivace"
18, 0, MIDI_port, 0
18, 0, End_track
0, 0, End_of_file
