0, 0, Header, 1, 19, 240
1, 0, Start_track
1, 0, Sequencer_specific, 10, 0, 0, 91, 35, 1, 0, 5, 6, 42, 0
1, 0, Title_t, "Ludwig van Beethoven - Symphony No. 7 in A Major, Op.92"
1, 0, Instrument_name_t, "Conductor Track"
1, 0, SMPTE_offset, 96, 0, 3, 0, 0
1, 0, MIDI_port, 0
1, 0, Marker_t, "Originally Sequenced 14 Sep 2000"
1, 0, Key_signature, 0, "minor"
1, 0, Tempo, 789473
1, 0, Time_signature, 2, 2, 24, 8
1, 48480, Key_signature, 3, "major"
1, 66240, Key_signature, 0, "minor"
1, 107520, Key_signature, 3, "major"
1, 118560, Key_signature, 0, "minor"
1, 133080, Tempo, 2000000
1, 133800, Tempo, 303030
1, 133800, End_track
2, 0, Start_track
2, 0, Title_t, "2nd Movement - Allegretto"
2, 0, MIDI_port, 0
2, 0, End_track
3, 0, Start_track
3, 0, Title_t, "Sequenced by D. L. Viens 4 Oct 2000"
3, 0, MIDI_port, 0
3, 0, End_track
4, 0, Start_track
4, 0, Title_t, "dlviens@empire.net"
4, 0, MIDI_port, 0
4, 0, End_track
5, 0, Start_track
5, 0, MIDI_port, 0
5, 0, End_track
6, 0, Start_track
6, 0, Title_t, "Flute"
6, 0, MIDI_port, 0
6, 0, Program_c, 1, 73
6, 0, Control_c, 1, 7, 72
6, 0, Control_c, 1, 10, 60
6, 0, Control_c, 1, 11, 127
6, 34800, Note_on_c, 1, 80, 82
6, 35039, Note_on_c, 1, 80, 0
6, 35280, Note_on_c, 1, 81, 83
6, 35504, Note_on_c, 1, 81, 0
6, 35520, Note_on_c, 1, 88, 84
6, 35520, Note_on_c, 1, 76, 84
6, 35751, Note_on_c, 1, 88, 0
6, 35751, Note_on_c, 1, 76, 0
6, 35760, Note_on_c, 1, 88, 84
6, 35760, Note_on_c, 1, 76, 84
6, 35849, Note_on_c, 1, 88, 0
6, 35849, Note_on_c, 1, 76, 0
6, 35880, Note_on_c, 1, 76, 84
6, 35880, Note_on_c, 1, 88, 84
6, 35969, Note_on_c, 1, 76, 0
6, 35969, Note_on_c, 1, 88, 0
6, 36000, Note_on_c, 1, 88, 84
6, 36000, Note_on_c, 1, 76, 84
6, 36209, Note_on_c, 1, 88, 0
6, 36209, Note_on_c, 1, 76, 0
6, 36240, Note_on_c, 1, 88, 84
6, 36240, Note_on_c, 1, 76, 84
6, 36449, Note_on_c, 1, 88, 0
6, 36449, Note_on_c, 1, 76, 0
6, 36480, Note_on_c, 1, 88, 84
6, 36480, Note_on_c, 1, 76, 84
6, 36711, Note_on_c, 1, 88, 0
6, 36711, Note_on_c, 1, 76, 0
6, 36720, Note_on_c, 1, 88, 84
6, 36720, Note_on_c, 1, 76, 84
6, 36809, Note_on_c, 1, 88, 0
6, 36809, Note_on_c, 1, 76, 0
6, 36840, Note_on_c, 1, 88, 84
6, 36840, Note_on_c, 1, 76, 84
6, 36929, Note_on_c, 1, 88, 0
6, 36929, Note_on_c, 1, 76, 0
6, 36960, Note_on_c, 1, 76, 84
6, 36960, Note_on_c, 1, 88, 84
6, 37169, Note_on_c, 1, 76, 0
6, 37169, Note_on_c, 1, 88, 0
6, 37200, Note_on_c, 1, 76, 84
6, 37200, Note_on_c, 1, 88, 84
6, 37409, Note_on_c, 1, 76, 0
6, 37409, Note_on_c, 1, 88, 0
6, 37440, Note_on_c, 1, 88, 84
6, 37440, Note_on_c, 1, 76, 84
6, 37671, Note_on_c, 1, 88, 0
6, 37671, Note_on_c, 1, 76, 0
6, 37680, Note_on_c, 1, 76, 84
6, 37680, Note_on_c, 1, 88, 84
6, 37769, Note_on_c, 1, 76, 0
6, 37769, Note_on_c, 1, 88, 0
6, 37800, Note_on_c, 1, 78, 84
6, 37800, Note_on_c, 1, 90, 84
6, 37889, Note_on_c, 1, 78, 0
6, 37889, Note_on_c, 1, 90, 0
6, 37920, Note_on_c, 1, 91, 84
6, 37920, Note_on_c, 1, 79, 84
6, 38129, Note_on_c, 1, 91, 0
6, 38129, Note_on_c, 1, 79, 0
6, 38160, Note_on_c, 1, 79, 84
6, 38160, Note_on_c, 1, 91, 84
6, 38369, Note_on_c, 1, 79, 0
6, 38369, Note_on_c, 1, 91, 0
6, 38400, Note_on_c, 1, 91, 84
6, 38400, Note_on_c, 1, 79, 84
6, 38631, Note_on_c, 1, 91, 0
6, 38631, Note_on_c, 1, 79, 0
6, 38640, Note_on_c, 1, 79, 84
6, 38640, Note_on_c, 1, 91, 84
6, 38729, Note_on_c, 1, 79, 0
6, 38729, Note_on_c, 1, 91, 0
6, 38760, Note_on_c, 1, 79, 84
6, 38760, Note_on_c, 1, 91, 84
6, 38849, Note_on_c, 1, 79, 0
6, 38849, Note_on_c, 1, 91, 0
6, 38880, Note_on_c, 1, 79, 84
6, 38880, Note_on_c, 1, 91, 84
6, 39119, Note_on_c, 1, 79, 0
6, 39119, Note_on_c, 1, 91, 0
6, 39360, Note_on_c, 1, 79, 84
6, 39591, Note_on_c, 1, 79, 0
6, 39600, Note_on_c, 1, 79, 84
6, 39689, Note_on_c, 1, 79, 0
6, 39720, Note_on_c, 1, 81, 84
6, 39809, Note_on_c, 1, 81, 0
6, 39840, Note_on_c, 1, 83, 84
6, 40049, Note_on_c, 1, 83, 0
6, 40080, Note_on_c, 1, 83, 84
6, 40289, Note_on_c, 1, 83, 0
6, 40320, Note_on_c, 1, 78, 84
6, 40320, Note_on_c, 1, 90, 84
6, 40551, Note_on_c, 1, 78, 0
6, 40551, Note_on_c, 1, 90, 0
6, 40560, Note_on_c, 1, 90, 84
6, 40560, Note_on_c, 1, 78, 84
6, 40649, Note_on_c, 1, 90, 0
6, 40649, Note_on_c, 1, 78, 0
6, 40680, Note_on_c, 1, 80, 84
6, 40680, Note_on_c, 1, 92, 84
6, 40769, Note_on_c, 1, 80, 0
6, 40769, Note_on_c, 1, 92, 0
6, 40800, Note_on_c, 1, 93, 84
6, 40800, Note_on_c, 1, 81, 84
6, 41009, Note_on_c, 1, 93, 0
6, 41009, Note_on_c, 1, 81, 0
6, 41040, Note_on_c, 1, 81, 84
6, 41040, Note_on_c, 1, 93, 84
6, 41249, Note_on_c, 1, 81, 0
6, 41249, Note_on_c, 1, 93, 0
6, 41280, Note_on_c, 1, 76, 84
6, 41280, Note_on_c, 1, 88, 84
6, 41511, Note_on_c, 1, 76, 0
6, 41511, Note_on_c, 1, 88, 0
6, 41520, Note_on_c, 1, 88, 84
6, 41520, Note_on_c, 1, 76, 84
6, 41609, Note_on_c, 1, 88, 0
6, 41609, Note_on_c, 1, 76, 0
6, 41640, Note_on_c, 1, 88, 84
6, 41640, Note_on_c, 1, 76, 84
6, 41729, Note_on_c, 1, 88, 0
6, 41729, Note_on_c, 1, 76, 0
6, 41760, Note_on_c, 1, 76, 84
6, 41760, Note_on_c, 1, 88, 84
6, 41969, Note_on_c, 1, 76, 0
6, 41969, Note_on_c, 1, 88, 0
6, 42000, Note_on_c, 1, 76, 84
6, 42000, Note_on_c, 1, 88, 84
6, 42209, Note_on_c, 1, 76, 0
6, 42209, Note_on_c, 1, 88, 0
6, 42240, Note_on_c, 1, 76, 84
6, 42240, Note_on_c, 1, 88, 84
6, 42471, Note_on_c, 1, 76, 0
6, 42471, Note_on_c, 1, 88, 0
6, 42480, Note_on_c, 1, 78, 84
6, 42480, Note_on_c, 1, 90, 84
6, 42569, Note_on_c, 1, 78, 0
6, 42569, Note_on_c, 1, 90, 0
6, 42600, Note_on_c, 1, 80, 84
6, 42600, Note_on_c, 1, 92, 84
6, 42689, Note_on_c, 1, 80, 0
6, 42689, Note_on_c, 1, 92, 0
6, 42720, Note_on_c, 1, 93, 84
6, 42720, Note_on_c, 1, 81, 84
6, 42959, Note_on_c, 1, 93, 0
6, 42959, Note_on_c, 1, 81, 0
6, 43200, Control_c, 1, 11, 127
6, 43253, Control_c, 1, 11, 126
6, 43307, Control_c, 1, 11, 125
6, 43360, Control_c, 1, 11, 124
6, 43413, Control_c, 1, 11, 123
6, 43467, Control_c, 1, 11, 122
6, 43520, Control_c, 1, 11, 121
6, 43573, Control_c, 1, 11, 120
6, 43627, Control_c, 1, 11, 119
6, 43680, Control_c, 1, 11, 118
6, 43733, Control_c, 1, 11, 117
6, 43787, Control_c, 1, 11, 116
6, 43840, Control_c, 1, 11, 115
6, 43893, Control_c, 1, 11, 114
6, 43947, Control_c, 1, 11, 113
6, 44000, Control_c, 1, 11, 112
6, 44053, Control_c, 1, 11, 111
6, 44107, Control_c, 1, 11, 110
6, 44160, Control_c, 1, 11, 109
6, 44160, Note_on_c, 1, 78, 84
6, 44160, Note_on_c, 1, 90, 84
6, 44213, Control_c, 1, 11, 108
6, 44267, Control_c, 1, 11, 107
6, 44320, Control_c, 1, 11, 106
6, 44373, Control_c, 1, 11, 105
6, 44391, Note_on_c, 1, 78, 0
6, 44391, Note_on_c, 1, 90, 0
6, 44400, Note_on_c, 1, 78, 84
6, 44400, Note_on_c, 1, 90, 84
6, 44427, Control_c, 1, 11, 104
6, 44480, Control_c, 1, 11, 103
6, 44489, Note_on_c, 1, 78, 0
6, 44489, Note_on_c, 1, 90, 0
6, 44520, Note_on_c, 1, 80, 84
6, 44520, Note_on_c, 1, 92, 84
6, 44533, Control_c, 1, 11, 102
6, 44587, Control_c, 1, 11, 101
6, 44609, Note_on_c, 1, 80, 0
6, 44609, Note_on_c, 1, 92, 0
6, 44640, Note_on_c, 1, 93, 84
6, 44640, Control_c, 1, 11, 100
6, 44640, Note_on_c, 1, 81, 84
6, 44693, Control_c, 1, 11, 99
6, 44747, Control_c, 1, 11, 98
6, 44800, Control_c, 1, 11, 97
6, 44849, Note_on_c, 1, 93, 0
6, 44849, Note_on_c, 1, 81, 0
6, 44853, Control_c, 1, 11, 96
6, 44880, Note_on_c, 1, 81, 84
6, 44880, Note_on_c, 1, 93, 84
6, 44907, Control_c, 1, 11, 95
6, 44960, Control_c, 1, 11, 94
6, 45013, Control_c, 1, 11, 93
6, 45067, Control_c, 1, 11, 92
6, 45089, Note_on_c, 1, 81, 0
6, 45089, Note_on_c, 1, 93, 0
6, 45120, Control_c, 1, 11, 91
6, 45120, Note_on_c, 1, 88, 84
6, 45120, Note_on_c, 1, 76, 84
6, 45173, Control_c, 1, 11, 90
6, 45227, Control_c, 1, 11, 89
6, 45280, Control_c, 1, 11, 88
6, 45333, Control_c, 1, 11, 87
6, 45351, Note_on_c, 1, 88, 0
6, 45351, Note_on_c, 1, 76, 0
6, 45360, Note_on_c, 1, 76, 84
6, 45360, Note_on_c, 1, 88, 84
6, 45387, Control_c, 1, 11, 86
6, 45440, Control_c, 1, 11, 85
6, 45449, Note_on_c, 1, 76, 0
6, 45449, Note_on_c, 1, 88, 0
6, 45480, Note_on_c, 1, 76, 84
6, 45480, Note_on_c, 1, 88, 84
6, 45493, Control_c, 1, 11, 84
6, 45547, Control_c, 1, 11, 83
6, 45569, Note_on_c, 1, 76, 0
6, 45569, Note_on_c, 1, 88, 0
6, 45600, Note_on_c, 1, 88, 84
6, 45600, Note_on_c, 1, 76, 84
6, 45600, Control_c, 1, 11, 82
6, 45653, Control_c, 1, 11, 81
6, 45707, Control_c, 1, 11, 80
6, 45760, Control_c, 1, 11, 79
6, 45809, Note_on_c, 1, 88, 0
6, 45809, Note_on_c, 1, 76, 0
6, 45813, Control_c, 1, 11, 78
6, 45840, Note_on_c, 1, 88, 84
6, 45840, Note_on_c, 1, 76, 84
6, 45867, Control_c, 1, 11, 77
6, 45920, Control_c, 1, 11, 76
6, 45973, Control_c, 1, 11, 75
6, 46027, Control_c, 1, 11, 74
6, 46049, Note_on_c, 1, 88, 0
6, 46049, Note_on_c, 1, 76, 0
6, 46080, Note_on_c, 1, 76, 84
6, 46080, Note_on_c, 1, 88, 84
6, 46080, Control_c, 1, 11, 73
6, 46133, Control_c, 1, 11, 72
6, 46187, Control_c, 1, 11, 71
6, 46240, Control_c, 1, 11, 70
6, 46293, Control_c, 1, 11, 69
6, 46311, Note_on_c, 1, 76, 0
6, 46311, Note_on_c, 1, 88, 0
6, 46320, Note_on_c, 1, 78, 84
6, 46320, Note_on_c, 1, 90, 84
6, 46347, Control_c, 1, 11, 68
6, 46400, Control_c, 1, 11, 67
6, 46409, Note_on_c, 1, 78, 0
6, 46409, Note_on_c, 1, 90, 0
6, 46440, Note_on_c, 1, 92, 84
6, 46440, Note_on_c, 1, 80, 84
6, 46453, Control_c, 1, 11, 66
6, 46507, Control_c, 1, 11, 65
6, 46529, Note_on_c, 1, 92, 0
6, 46529, Note_on_c, 1, 80, 0
6, 46560, Note_on_c, 1, 81, 84
6, 46560, Note_on_c, 1, 93, 84
6, 46560, Control_c, 1, 11, 64
6, 46799, Note_on_c, 1, 81, 0
6, 46799, Note_on_c, 1, 93, 0
6, 52320, Control_c, 1, 11, 96
6, 52560, Note_on_c, 1, 88, 68
6, 52560, Control_c, 1, 11, 96
6, 52560, Note_on_c, 1, 91, 68
6, 52606, Control_c, 1, 11, 97
6, 52653, Control_c, 1, 11, 98
6, 52699, Control_c, 1, 11, 99
6, 52746, Control_c, 1, 11, 100
6, 52792, Control_c, 1, 11, 101
6, 52839, Control_c, 1, 11, 102
6, 52885, Control_c, 1, 11, 103
6, 52932, Control_c, 1, 11, 104
6, 52978, Control_c, 1, 11, 105
6, 53025, Control_c, 1, 11, 106
6, 53071, Control_c, 1, 11, 107
6, 53117, Control_c, 1, 11, 108
6, 53164, Control_c, 1, 11, 109
6, 53210, Control_c, 1, 11, 110
6, 53257, Control_c, 1, 11, 111
6, 53303, Control_c, 1, 11, 112
6, 53350, Control_c, 1, 11, 113
6, 53396, Control_c, 1, 11, 114
6, 53443, Control_c, 1, 11, 115
6, 53489, Control_c, 1, 11, 116
6, 53519, Note_on_c, 1, 88, 0
6, 53519, Note_on_c, 1, 91, 0
6, 53520, Note_on_c, 1, 90, 68
6, 53520, Note_on_c, 1, 86, 68
6, 53535, Control_c, 1, 11, 117
6, 53582, Control_c, 1, 11, 118
6, 53628, Control_c, 1, 11, 119
6, 53675, Control_c, 1, 11, 120
6, 53721, Control_c, 1, 11, 121
6, 53768, Control_c, 1, 11, 122
6, 53814, Control_c, 1, 11, 123
6, 53861, Control_c, 1, 11, 124
6, 53907, Control_c, 1, 11, 125
6, 53954, Control_c, 1, 11, 127
6, 53999, Note_on_c, 1, 90, 0
6, 53999, Note_on_c, 1, 86, 0
6, 54000, Note_on_c, 1, 88, 68
6, 54000, Note_on_c, 1, 85, 68
6, 54227, Note_on_c, 1, 88, 0
6, 54227, Note_on_c, 1, 85, 0
6, 54240, Note_on_c, 1, 83, 68
6, 54240, Control_c, 1, 11, 127
6, 54240, Note_on_c, 1, 86, 68
6, 54271, Control_c, 1, 11, 126
6, 54302, Control_c, 1, 11, 125
6, 54333, Control_c, 1, 11, 124
6, 54364, Control_c, 1, 11, 123
6, 54395, Control_c, 1, 11, 122
6, 54426, Control_c, 1, 11, 121
6, 54457, Control_c, 1, 11, 120
6, 54479, Note_on_c, 1, 83, 0
6, 54479, Note_on_c, 1, 86, 0
6, 54480, Note_on_c, 1, 81, 68
6, 54480, Note_on_c, 1, 85, 68
6, 54488, Control_c, 1, 11, 119
6, 54519, Control_c, 1, 11, 118
6, 54550, Control_c, 1, 11, 117
6, 54581, Control_c, 1, 11, 116
6, 54612, Control_c, 1, 11, 115
6, 54643, Control_c, 1, 11, 114
6, 54674, Control_c, 1, 11, 113
6, 54705, Control_c, 1, 11, 112
6, 54719, Note_on_c, 1, 81, 0
6, 54719, Note_on_c, 1, 85, 0
6, 54720, Note_on_c, 1, 83, 68
6, 54720, Note_on_c, 1, 80, 68
6, 54735, Control_c, 1, 11, 111
6, 54766, Control_c, 1, 11, 110
6, 54797, Control_c, 1, 11, 109
6, 54828, Control_c, 1, 11, 108
6, 54859, Control_c, 1, 11, 107
6, 54890, Control_c, 1, 11, 106
6, 54921, Control_c, 1, 11, 105
6, 54952, Control_c, 1, 11, 104
6, 54959, Note_on_c, 1, 83, 0
6, 54959, Note_on_c, 1, 80, 0
6, 54960, Note_on_c, 1, 78, 68
6, 54960, Note_on_c, 1, 87, 68
6, 54983, Control_c, 1, 11, 103
6, 55014, Control_c, 1, 11, 102
6, 55045, Control_c, 1, 11, 101
6, 55076, Control_c, 1, 11, 100
6, 55107, Control_c, 1, 11, 99
6, 55138, Control_c, 1, 11, 98
6, 55169, Control_c, 1, 11, 96
6, 55199, Note_on_c, 1, 78, 0
6, 55199, Note_on_c, 1, 87, 0
6, 55200, Note_on_c, 1, 76, 68
6, 55200, Note_on_c, 1, 88, 68
6, 55439, Note_on_c, 1, 76, 0
6, 55439, Note_on_c, 1, 88, 0
6, 64320, Note_on_c, 1, 88, 60
6, 64320, Control_c, 1, 11, 127
6, 64384, Control_c, 1, 11, 126
6, 64448, Control_c, 1, 11, 125
6, 64512, Control_c, 1, 11, 124
6, 64576, Control_c, 1, 11, 123
6, 64640, Control_c, 1, 11, 122
6, 64704, Control_c, 1, 11, 121
6, 64768, Control_c, 1, 11, 120
6, 64832, Control_c, 1, 11, 119
6, 64879, Note_on_c, 1, 88, 0
6, 64880, Note_on_c, 1, 89, 60
6, 64896, Control_c, 1, 11, 118
6, 64959, Note_on_c, 1, 89, 0
6, 64960, Control_c, 1, 11, 117
6, 64960, Note_on_c, 1, 88, 60
6, 65024, Control_c, 1, 11, 116
6, 65039, Note_on_c, 1, 88, 0
6, 65040, Note_on_c, 1, 91, 60
6, 65088, Control_c, 1, 11, 115
6, 65119, Note_on_c, 1, 91, 0
6, 65120, Note_on_c, 1, 89, 60
6, 65152, Control_c, 1, 11, 114
6, 65199, Note_on_c, 1, 89, 0
6, 65200, Note_on_c, 1, 81, 60
6, 65216, Control_c, 1, 11, 112
6, 65267, Note_on_c, 1, 81, 0
6, 65280, Note_on_c, 1, 84, 60
6, 65519, Note_on_c, 1, 84, 0
6, 65520, Note_on_c, 1, 88, 60
6, 65639, Note_on_c, 1, 88, 0
6, 65640, Note_on_c, 1, 86, 60
6, 65759, Note_on_c, 1, 86, 0
6, 65760, Note_on_c, 1, 84, 60
6, 65999, Note_on_c, 1, 84, 0
6, 66118, Control_c, 1, 11, 127
6, 66240, Note_on_c, 1, 89, 52
6, 66587, Note_on_c, 1, 89, 0
6, 66600, Note_on_c, 1, 89, 52
6, 66707, Note_on_c, 1, 89, 0
6, 66720, Note_on_c, 1, 89, 52
6, 66799, Note_on_c, 1, 89, 0
6, 66800, Note_on_c, 1, 88, 52
6, 66879, Note_on_c, 1, 88, 0
6, 66880, Note_on_c, 1, 86, 52
6, 66939, Note_on_c, 1, 86, 0
6, 66960, Note_on_c, 1, 84, 52
6, 67019, Note_on_c, 1, 84, 0
6, 67040, Note_on_c, 1, 83, 52
6, 67099, Note_on_c, 1, 83, 0
6, 67120, Note_on_c, 1, 81, 52
6, 67179, Note_on_c, 1, 81, 0
6, 67200, Note_on_c, 1, 79, 52
6, 67439, Note_on_c, 1, 79, 0
6, 67440, Note_on_c, 1, 81, 52
6, 67547, Note_on_c, 1, 81, 0
6, 67560, Note_on_c, 1, 83, 52
6, 67649, Note_on_c, 1, 83, 0
6, 67680, Note_on_c, 1, 84, 52
6, 67999, Note_on_c, 1, 84, 0
6, 68000, Note_on_c, 1, 86, 52
6, 68079, Note_on_c, 1, 86, 0
6, 68080, Note_on_c, 1, 88, 52
6, 68147, Note_on_c, 1, 88, 0
6, 68158, Control_c, 1, 11, 80
6, 68160, Note_on_c, 1, 89, 76
6, 68160, Control_c, 1, 11, 80
6, 68180, Control_c, 1, 11, 82
6, 68200, Control_c, 1, 11, 84
6, 68220, Control_c, 1, 11, 86
6, 68240, Control_c, 1, 11, 88
6, 68260, Control_c, 1, 11, 90
6, 68280, Control_c, 1, 11, 92
6, 68300, Control_c, 1, 11, 94
6, 68320, Control_c, 1, 11, 96
6, 68340, Control_c, 1, 11, 98
6, 68360, Control_c, 1, 11, 100
6, 68380, Control_c, 1, 11, 102
6, 68400, Control_c, 1, 11, 104
6, 68420, Control_c, 1, 11, 105
6, 68440, Control_c, 1, 11, 107
6, 68460, Control_c, 1, 11, 109
6, 68480, Control_c, 1, 11, 111
6, 68500, Control_c, 1, 11, 113
6, 68507, Note_on_c, 1, 89, 0
6, 68520, Control_c, 1, 11, 115
6, 68520, Note_on_c, 1, 89, 76
6, 68540, Control_c, 1, 11, 117
6, 68560, Control_c, 1, 11, 119
6, 68580, Control_c, 1, 11, 121
6, 68600, Control_c, 1, 11, 123
6, 68620, Control_c, 1, 11, 127
6, 68627, Note_on_c, 1, 89, 0
6, 68640, Note_on_c, 1, 89, 76
6, 68719, Note_on_c, 1, 89, 0
6, 68720, Note_on_c, 1, 88, 76
6, 68799, Note_on_c, 1, 88, 0
6, 68800, Note_on_c, 1, 86, 76
6, 68859, Note_on_c, 1, 86, 0
6, 68880, Note_on_c, 1, 84, 84
6, 68939, Note_on_c, 1, 84, 0
6, 68960, Note_on_c, 1, 83, 76
6, 69019, Note_on_c, 1, 83, 0
6, 69040, Note_on_c, 1, 81, 76
6, 69099, Note_on_c, 1, 81, 0
6, 69120, Note_on_c, 1, 79, 76
6, 69239, Note_on_c, 1, 79, 0
6, 71280, Note_on_c, 1, 76, 84
6, 71280, Note_on_c, 1, 88, 84
6, 71369, Note_on_c, 1, 76, 0
6, 71369, Note_on_c, 1, 88, 0
6, 71400, Note_on_c, 1, 88, 84
6, 71400, Note_on_c, 1, 76, 84
6, 71489, Note_on_c, 1, 88, 0
6, 71489, Note_on_c, 1, 76, 0
6, 71520, Note_on_c, 1, 84, 48
6, 71999, Note_on_c, 1, 84, 0
6, 72000, Note_on_c, 1, 83, 48
6, 72407, Note_on_c, 1, 83, 0
6, 72420, Note_on_c, 1, 83, 48
6, 72449, Note_on_c, 1, 83, 0
6, 72450, Note_on_c, 1, 84, 48
6, 72479, Note_on_c, 1, 84, 0
6, 72480, Note_on_c, 1, 86, 48
6, 72799, Note_on_c, 1, 86, 0
6, 72800, Note_on_c, 1, 84, 48
6, 72879, Note_on_c, 1, 84, 0
6, 72880, Note_on_c, 1, 83, 48
6, 72947, Note_on_c, 1, 83, 0
6, 72960, Note_on_c, 1, 83, 48
6, 73079, Note_on_c, 1, 83, 0
6, 73080, Note_on_c, 1, 84, 48
6, 73187, Note_on_c, 1, 84, 0
6, 73200, Note_on_c, 1, 84, 48
6, 73427, Note_on_c, 1, 84, 0
6, 73440, Note_on_c, 1, 84, 48
6, 73799, Note_on_c, 1, 84, 0
6, 73800, Note_on_c, 1, 86, 48
6, 73907, Note_on_c, 1, 86, 0
6, 73920, Note_on_c, 1, 87, 48
6, 74039, Note_on_c, 1, 87, 0
6, 74040, Note_on_c, 1, 88, 48
6, 74147, Note_on_c, 1, 88, 0
6, 74160, Note_on_c, 1, 88, 48
6, 74249, Note_on_c, 1, 88, 0
6, 74280, Note_on_c, 1, 88, 48
6, 74331, Note_on_c, 1, 88, 0
6, 74340, Note_on_c, 1, 86, 48
6, 74369, Note_on_c, 1, 86, 0
6, 74370, Note_on_c, 1, 88, 48
6, 74399, Note_on_c, 1, 88, 0
6, 74400, Note_on_c, 1, 89, 48
6, 74719, Note_on_c, 1, 89, 0
6, 74720, Note_on_c, 1, 88, 48
6, 74799, Note_on_c, 1, 88, 0
6, 74800, Note_on_c, 1, 86, 48
6, 74867, Note_on_c, 1, 86, 0
6, 74880, Note_on_c, 1, 86, 48
6, 74999, Note_on_c, 1, 86, 0
6, 75000, Note_on_c, 1, 88, 48
6, 75107, Note_on_c, 1, 88, 0
6, 75120, Note_on_c, 1, 88, 48
6, 75347, Note_on_c, 1, 88, 0
6, 75360, Note_on_c, 1, 88, 48
6, 75719, Note_on_c, 1, 88, 0
6, 75720, Note_on_c, 1, 90, 48
6, 75839, Note_on_c, 1, 90, 0
6, 75840, Note_on_c, 1, 88, 48
6, 76079, Note_on_c, 1, 88, 0
6, 76080, Note_on_c, 1, 87, 48
6, 76199, Note_on_c, 1, 87, 0
6, 76320, Note_on_c, 1, 86, 48
6, 76679, Note_on_c, 1, 86, 0
6, 76680, Note_on_c, 1, 88, 48
6, 76799, Note_on_c, 1, 88, 0
6, 76800, Note_on_c, 1, 86, 48
6, 76919, Note_on_c, 1, 86, 0
6, 76920, Note_on_c, 1, 85, 48
6, 77039, Note_on_c, 1, 85, 0
6, 77040, Note_on_c, 1, 84, 48
6, 77159, Note_on_c, 1, 84, 0
6, 77280, Note_on_c, 1, 84, 48
6, 77759, Note_on_c, 1, 84, 0
6, 77760, Note_on_c, 1, 83, 48
6, 77999, Note_on_c, 1, 83, 0
6, 78000, Note_on_c, 1, 84, 48
6, 78167, Note_on_c, 1, 84, 0
6, 78180, Note_on_c, 1, 83, 48
6, 78209, Note_on_c, 1, 83, 0
6, 78210, Note_on_c, 1, 84, 48
6, 78239, Note_on_c, 1, 84, 0
6, 78240, Note_on_c, 1, 86, 48
6, 78559, Note_on_c, 1, 86, 0
6, 78560, Note_on_c, 1, 84, 48
6, 78639, Note_on_c, 1, 84, 0
6, 78640, Note_on_c, 1, 83, 48
6, 78707, Note_on_c, 1, 83, 0
6, 78720, Note_on_c, 1, 81, 48
6, 78779, Note_on_c, 1, 81, 0
6, 78800, Note_on_c, 1, 81, 48
6, 78879, Note_on_c, 1, 81, 0
6, 78880, Note_on_c, 1, 83, 48
6, 78959, Note_on_c, 1, 83, 0
6, 78960, Note_on_c, 1, 84, 48
6, 79019, Note_on_c, 1, 84, 0
6, 79040, Note_on_c, 1, 84, 48
6, 79119, Note_on_c, 1, 84, 0
6, 79120, Note_on_c, 1, 86, 48
6, 79199, Note_on_c, 1, 86, 0
6, 79200, Note_on_c, 1, 88, 48
6, 79559, Note_on_c, 1, 88, 0
6, 79560, Note_on_c, 1, 90, 48
6, 79679, Note_on_c, 1, 90, 0
6, 79680, Note_on_c, 1, 88, 48
6, 79919, Note_on_c, 1, 88, 0
6, 79920, Note_on_c, 1, 87, 48
6, 80039, Note_on_c, 1, 87, 0
6, 80160, Note_on_c, 1, 86, 48
6, 80239, Note_on_c, 1, 86, 0
6, 80240, Note_on_c, 1, 83, 48
6, 80319, Note_on_c, 1, 83, 0
6, 80320, Note_on_c, 1, 85, 48
6, 80399, Note_on_c, 1, 85, 0
6, 80400, Note_on_c, 1, 86, 48
6, 80479, Note_on_c, 1, 86, 0
6, 80480, Note_on_c, 1, 88, 48
6, 80559, Note_on_c, 1, 88, 0
6, 80560, Note_on_c, 1, 86, 48
6, 80627, Note_on_c, 1, 86, 0
6, 80640, Note_on_c, 1, 86, 48
6, 80759, Note_on_c, 1, 86, 0
6, 80760, Note_on_c, 1, 85, 48
6, 80879, Note_on_c, 1, 85, 0
6, 80880, Note_on_c, 1, 84, 48
6, 80999, Note_on_c, 1, 84, 0
6, 81120, Note_on_c, 1, 84, 48
6, 81599, Note_on_c, 1, 84, 0
6, 81600, Note_on_c, 1, 83, 48
6, 81839, Note_on_c, 1, 83, 0
6, 81840, Note_on_c, 1, 84, 48
6, 82007, Note_on_c, 1, 84, 0
6, 82020, Note_on_c, 1, 83, 48
6, 82049, Note_on_c, 1, 83, 0
6, 82050, Note_on_c, 1, 84, 48
6, 82079, Note_on_c, 1, 84, 0
6, 82080, Note_on_c, 1, 86, 48
6, 82399, Note_on_c, 1, 86, 0
6, 82400, Note_on_c, 1, 84, 48
6, 82479, Note_on_c, 1, 84, 0
6, 82480, Note_on_c, 1, 83, 48
6, 82547, Note_on_c, 1, 83, 0
6, 82560, Note_on_c, 1, 81, 48
6, 82799, Note_on_c, 1, 81, 0
6, 83040, Note_on_c, 1, 81, 48
6, 83359, Note_on_c, 1, 81, 0
6, 83360, Note_on_c, 1, 83, 48
6, 83439, Note_on_c, 1, 83, 0
6, 83440, Note_on_c, 1, 85, 48
6, 83507, Note_on_c, 1, 85, 0
6, 83520, Note_on_c, 1, 85, 48
6, 83639, Note_on_c, 1, 85, 0
6, 83640, Note_on_c, 1, 86, 48
6, 83747, Note_on_c, 1, 86, 0
6, 83760, Note_on_c, 1, 86, 48
6, 83987, Note_on_c, 1, 86, 0
6, 84000, Note_on_c, 1, 86, 48
6, 84319, Note_on_c, 1, 86, 0
6, 84320, Note_on_c, 1, 88, 48
6, 84399, Note_on_c, 1, 88, 0
6, 84400, Note_on_c, 1, 89, 48
6, 84467, Note_on_c, 1, 89, 0
6, 84480, Note_on_c, 1, 89, 52
6, 84599, Note_on_c, 1, 89, 0
6, 84600, Note_on_c, 1, 88, 52
6, 84707, Note_on_c, 1, 88, 0
6, 84720, Note_on_c, 1, 88, 52
6, 84947, Note_on_c, 1, 88, 0
6, 84960, Note_on_c, 1, 81, 52
6, 85027, Note_on_c, 1, 81, 0
6, 85040, Note_on_c, 1, 81, 52
6, 85107, Note_on_c, 1, 81, 0
6, 85120, Note_on_c, 1, 81, 53
6, 85187, Note_on_c, 1, 81, 0
6, 85200, Note_on_c, 1, 81, 54
6, 85279, Note_on_c, 1, 81, 0
6, 85280, Note_on_c, 1, 83, 55
6, 85359, Note_on_c, 1, 83, 0
6, 85360, Note_on_c, 1, 85, 56
6, 85427, Note_on_c, 1, 85, 0
6, 85440, Note_on_c, 1, 85, 57
6, 85519, Note_on_c, 1, 85, 0
6, 85520, Note_on_c, 1, 86, 58
6, 85587, Note_on_c, 1, 86, 0
6, 85600, Note_on_c, 1, 86, 59
6, 85659, Note_on_c, 1, 86, 0
6, 85680, Note_on_c, 1, 86, 60
6, 85907, Note_on_c, 1, 86, 0
6, 85920, Note_on_c, 1, 86, 62
6, 85987, Note_on_c, 1, 86, 0
6, 86000, Note_on_c, 1, 86, 63
6, 86067, Note_on_c, 1, 86, 0
6, 86080, Note_on_c, 1, 86, 64
6, 86147, Note_on_c, 1, 86, 0
6, 86160, Note_on_c, 1, 86, 65
6, 86239, Note_on_c, 1, 86, 0
6, 86240, Note_on_c, 1, 88, 66
6, 86319, Note_on_c, 1, 88, 0
6, 86320, Note_on_c, 1, 89, 67
6, 86387, Note_on_c, 1, 89, 0
6, 86400, Note_on_c, 1, 89, 68
6, 86479, Note_on_c, 1, 89, 0
6, 86480, Note_on_c, 1, 88, 68
6, 86547, Note_on_c, 1, 88, 0
6, 86560, Note_on_c, 1, 88, 67
6, 86619, Note_on_c, 1, 88, 0
6, 86880, Note_on_c, 1, 88, 64
6, 86959, Note_on_c, 1, 88, 0
6, 86960, Note_on_c, 1, 89, 64
6, 87027, Note_on_c, 1, 89, 0
6, 87040, Note_on_c, 1, 89, 63
6, 87099, Note_on_c, 1, 89, 0
6, 87360, Note_on_c, 1, 89, 60
6, 87439, Note_on_c, 1, 89, 0
6, 87440, Note_on_c, 1, 88, 60
6, 87507, Note_on_c, 1, 88, 0
6, 87520, Note_on_c, 1, 88, 59
6, 87579, Note_on_c, 1, 88, 0
6, 100080, Control_c, 1, 11, 64
6, 100320, Control_c, 1, 11, 64
6, 100320, Note_on_c, 1, 80, 84
6, 100350, Control_c, 1, 11, 65
6, 100381, Control_c, 1, 11, 66
6, 100411, Control_c, 1, 11, 67
6, 100442, Control_c, 1, 11, 68
6, 100472, Control_c, 1, 11, 69
6, 100503, Control_c, 1, 11, 70
6, 100533, Control_c, 1, 11, 71
6, 100553, Note_on_c, 1, 80, 0
6, 100560, Note_on_c, 1, 80, 84
6, 100564, Control_c, 1, 11, 72
6, 100594, Control_c, 1, 11, 73
6, 100625, Control_c, 1, 11, 74
6, 100649, Note_on_c, 1, 80, 0
6, 100655, Control_c, 1, 11, 75
6, 100680, Note_on_c, 1, 81, 84
6, 100686, Control_c, 1, 11, 76
6, 100716, Control_c, 1, 11, 77
6, 100747, Control_c, 1, 11, 78
6, 100769, Note_on_c, 1, 81, 0
6, 100777, Control_c, 1, 11, 79
6, 100800, Note_on_c, 1, 83, 84
6, 100808, Control_c, 1, 11, 80
6, 100838, Control_c, 1, 11, 81
6, 100869, Control_c, 1, 11, 82
6, 100899, Control_c, 1, 11, 83
6, 100930, Control_c, 1, 11, 84
6, 100960, Control_c, 1, 11, 85
6, 100990, Control_c, 1, 11, 86
6, 101021, Control_c, 1, 11, 87
6, 101033, Note_on_c, 1, 83, 0
6, 101040, Note_on_c, 1, 83, 84
6, 101051, Control_c, 1, 11, 88
6, 101082, Control_c, 1, 11, 89
6, 101112, Control_c, 1, 11, 90
6, 101129, Note_on_c, 1, 83, 0
6, 101143, Control_c, 1, 11, 91
6, 101160, Note_on_c, 1, 84, 84
6, 101173, Control_c, 1, 11, 92
6, 101204, Control_c, 1, 11, 93
6, 101234, Control_c, 1, 11, 94
6, 101249, Note_on_c, 1, 84, 0
6, 101265, Control_c, 1, 11, 95
6, 101280, Note_on_c, 1, 86, 84
6, 101295, Control_c, 1, 11, 96
6, 101326, Control_c, 1, 11, 97
6, 101356, Control_c, 1, 11, 98
6, 101387, Control_c, 1, 11, 99
6, 101417, Control_c, 1, 11, 100
6, 101448, Control_c, 1, 11, 101
6, 101478, Control_c, 1, 11, 102
6, 101509, Control_c, 1, 11, 103
6, 101513, Note_on_c, 1, 86, 0
6, 101520, Note_on_c, 1, 86, 84
6, 101539, Control_c, 1, 11, 104
6, 101570, Control_c, 1, 11, 105
6, 101600, Control_c, 1, 11, 106
6, 101609, Note_on_c, 1, 86, 0
6, 101630, Control_c, 1, 11, 107
6, 101640, Note_on_c, 1, 88, 84
6, 101661, Control_c, 1, 11, 108
6, 101691, Control_c, 1, 11, 109
6, 101722, Control_c, 1, 11, 110
6, 101729, Note_on_c, 1, 88, 0
6, 101752, Control_c, 1, 11, 111
6, 101760, Note_on_c, 1, 89, 84
6, 101783, Control_c, 1, 11, 112
6, 101813, Control_c, 1, 11, 113
6, 101844, Control_c, 1, 11, 114
6, 101874, Control_c, 1, 11, 115
6, 101879, Note_on_c, 1, 89, 0
6, 101880, Note_on_c, 1, 88, 84
6, 101905, Control_c, 1, 11, 116
6, 101935, Control_c, 1, 11, 117
6, 101939, Note_on_c, 1, 88, 0
6, 101940, Note_on_c, 1, 87, 84
6, 101966, Control_c, 1, 11, 118
6, 101996, Control_c, 1, 11, 119
6, 101999, Note_on_c, 1, 87, 0
6, 102000, Note_on_c, 1, 88, 84
6, 102027, Control_c, 1, 11, 120
6, 102044, Note_on_c, 1, 88, 0
6, 102057, Control_c, 1, 11, 121
6, 102060, Note_on_c, 1, 76, 84
6, 102088, Control_c, 1, 11, 122
6, 102104, Note_on_c, 1, 76, 0
6, 102118, Control_c, 1, 11, 123
6, 102120, Note_on_c, 1, 78, 84
6, 102149, Control_c, 1, 11, 124
6, 102164, Note_on_c, 1, 78, 0
6, 102179, Control_c, 1, 11, 125
6, 102180, Note_on_c, 1, 80, 84
6, 102210, Control_c, 1, 11, 127
6, 102224, Note_on_c, 1, 80, 0
6, 102240, Note_on_c, 1, 81, 84
6, 102293, Note_on_c, 1, 81, 0
6, 102300, Note_on_c, 1, 83, 84
6, 102353, Note_on_c, 1, 83, 0
6, 102360, Note_on_c, 1, 84, 84
6, 102413, Note_on_c, 1, 84, 0
6, 102420, Note_on_c, 1, 83, 84
6, 102473, Note_on_c, 1, 83, 0
6, 102480, Note_on_c, 1, 81, 84
6, 102533, Note_on_c, 1, 81, 0
6, 102540, Note_on_c, 1, 84, 84
6, 102593, Note_on_c, 1, 84, 0
6, 102600, Note_on_c, 1, 83, 84
6, 102653, Note_on_c, 1, 83, 0
6, 102660, Note_on_c, 1, 81, 84
6, 102713, Note_on_c, 1, 81, 0
6, 102720, Note_on_c, 1, 76, 84
6, 102773, Note_on_c, 1, 76, 0
6, 102780, Note_on_c, 1, 78, 84
6, 102833, Note_on_c, 1, 78, 0
6, 102840, Note_on_c, 1, 80, 84
6, 102893, Note_on_c, 1, 80, 0
6, 102900, Note_on_c, 1, 81, 84
6, 102953, Note_on_c, 1, 81, 0
6, 102960, Note_on_c, 1, 83, 84
6, 103013, Note_on_c, 1, 83, 0
6, 103020, Note_on_c, 1, 84, 84
6, 103073, Note_on_c, 1, 84, 0
6, 103080, Note_on_c, 1, 86, 84
6, 103133, Note_on_c, 1, 86, 0
6, 103140, Note_on_c, 1, 88, 84
6, 103193, Note_on_c, 1, 88, 0
6, 103200, Note_on_c, 1, 86, 84
6, 103253, Note_on_c, 1, 86, 0
6, 103260, Note_on_c, 1, 83, 84
6, 103313, Note_on_c, 1, 83, 0
6, 103320, Note_on_c, 1, 84, 84
6, 103373, Note_on_c, 1, 84, 0
6, 103380, Note_on_c, 1, 86, 84
6, 103433, Note_on_c, 1, 86, 0
6, 103440, Note_on_c, 1, 88, 84
6, 103493, Note_on_c, 1, 88, 0
6, 103500, Note_on_c, 1, 86, 84
6, 103553, Note_on_c, 1, 86, 0
6, 103560, Note_on_c, 1, 84, 84
6, 103613, Note_on_c, 1, 84, 0
6, 103620, Note_on_c, 1, 83, 84
6, 103673, Note_on_c, 1, 83, 0
6, 103680, Note_on_c, 1, 84, 84
6, 103733, Note_on_c, 1, 84, 0
6, 103740, Note_on_c, 1, 83, 84
6, 103793, Note_on_c, 1, 83, 0
6, 103800, Note_on_c, 1, 84, 84
6, 103853, Note_on_c, 1, 84, 0
6, 103860, Note_on_c, 1, 86, 84
6, 103913, Note_on_c, 1, 86, 0
6, 103920, Note_on_c, 1, 88, 84
6, 103973, Note_on_c, 1, 88, 0
6, 103980, Note_on_c, 1, 76, 84
6, 104033, Note_on_c, 1, 76, 0
6, 104040, Note_on_c, 1, 78, 84
6, 104093, Note_on_c, 1, 78, 0
6, 104100, Note_on_c, 1, 80, 84
6, 104153, Note_on_c, 1, 80, 0
6, 104160, Note_on_c, 1, 81, 84
6, 104213, Note_on_c, 1, 81, 0
6, 104220, Note_on_c, 1, 83, 84
6, 104273, Note_on_c, 1, 83, 0
6, 104280, Note_on_c, 1, 84, 84
6, 104333, Note_on_c, 1, 84, 0
6, 104340, Note_on_c, 1, 83, 84
6, 104393, Note_on_c, 1, 83, 0
6, 104400, Note_on_c, 1, 81, 84
6, 104453, Note_on_c, 1, 81, 0
6, 104460, Note_on_c, 1, 84, 84
6, 104513, Note_on_c, 1, 84, 0
6, 104520, Note_on_c, 1, 83, 84
6, 104573, Note_on_c, 1, 83, 0
6, 104580, Note_on_c, 1, 81, 84
6, 104633, Note_on_c, 1, 81, 0
6, 104640, Note_on_c, 1, 76, 84
6, 104693, Note_on_c, 1, 76, 0
6, 104700, Note_on_c, 1, 78, 84
6, 104753, Note_on_c, 1, 78, 0
6, 104760, Note_on_c, 1, 80, 84
6, 104813, Note_on_c, 1, 80, 0
6, 104820, Note_on_c, 1, 81, 84
6, 104873, Note_on_c, 1, 81, 0
6, 104880, Note_on_c, 1, 83, 84
6, 104933, Note_on_c, 1, 83, 0
6, 104940, Note_on_c, 1, 84, 84
6, 104993, Note_on_c, 1, 84, 0
6, 105000, Note_on_c, 1, 86, 84
6, 105053, Note_on_c, 1, 86, 0
6, 105060, Note_on_c, 1, 88, 84
6, 105113, Note_on_c, 1, 88, 0
6, 105120, Note_on_c, 1, 86, 84
6, 105173, Note_on_c, 1, 86, 0
6, 105180, Note_on_c, 1, 83, 84
6, 105233, Note_on_c, 1, 83, 0
6, 105240, Note_on_c, 1, 84, 84
6, 105293, Note_on_c, 1, 84, 0
6, 105300, Note_on_c, 1, 86, 84
6, 105353, Note_on_c, 1, 86, 0
6, 105360, Note_on_c, 1, 88, 84
6, 105413, Note_on_c, 1, 88, 0
6, 105420, Note_on_c, 1, 86, 84
6, 105473, Note_on_c, 1, 86, 0
6, 105480, Note_on_c, 1, 84, 84
6, 105533, Note_on_c, 1, 84, 0
6, 105540, Note_on_c, 1, 83, 84
6, 105593, Note_on_c, 1, 83, 0
6, 105600, Note_on_c, 1, 81, 84
6, 105839, Note_on_c, 1, 81, 0
6, 111360, Control_c, 1, 11, 96
6, 111600, Note_on_c, 1, 88, 68
6, 111600, Note_on_c, 1, 91, 68
6, 111654, Control_c, 1, 11, 97
6, 111708, Control_c, 1, 11, 98
6, 111763, Control_c, 1, 11, 99
6, 111817, Control_c, 1, 11, 100
6, 111871, Control_c, 1, 11, 101
6, 111925, Control_c, 1, 11, 102
6, 111979, Control_c, 1, 11, 103
6, 112034, Control_c, 1, 11, 104
6, 112088, Control_c, 1, 11, 105
6, 112142, Control_c, 1, 11, 106
6, 112196, Control_c, 1, 11, 107
6, 112250, Control_c, 1, 11, 108
6, 112305, Control_c, 1, 11, 109
6, 112359, Control_c, 1, 11, 110
6, 112413, Control_c, 1, 11, 111
6, 112467, Control_c, 1, 11, 112
6, 112521, Control_c, 1, 11, 113
6, 112559, Note_on_c, 1, 88, 0
6, 112559, Note_on_c, 1, 91, 0
6, 112560, Note_on_c, 1, 86, 68
6, 112560, Note_on_c, 1, 90, 68
6, 112575, Control_c, 1, 11, 114
6, 112630, Control_c, 1, 11, 115
6, 112684, Control_c, 1, 11, 116
6, 112738, Control_c, 1, 11, 117
6, 112792, Control_c, 1, 11, 118
6, 112846, Control_c, 1, 11, 119
6, 112901, Control_c, 1, 11, 120
6, 112955, Control_c, 1, 11, 121
6, 113009, Control_c, 1, 11, 122
6, 113039, Note_on_c, 1, 86, 0
6, 113039, Note_on_c, 1, 90, 0
6, 113040, Note_on_c, 1, 85, 68
6, 113040, Note_on_c, 1, 88, 68
6, 113063, Control_c, 1, 11, 123
6, 113117, Control_c, 1, 11, 124
6, 113172, Control_c, 1, 11, 125
6, 113226, Control_c, 1, 11, 127
6, 113279, Note_on_c, 1, 85, 0
6, 113279, Note_on_c, 1, 88, 0
6, 113280, Control_c, 1, 11, 127
6, 113280, Note_on_c, 1, 78, 68
6, 113280, Note_on_c, 1, 86, 68
6, 113311, Control_c, 1, 11, 126
6, 113342, Control_c, 1, 11, 125
6, 113373, Control_c, 1, 11, 124
6, 113404, Control_c, 1, 11, 123
6, 113435, Control_c, 1, 11, 122
6, 113466, Control_c, 1, 11, 121
6, 113497, Control_c, 1, 11, 120
6, 113519, Note_on_c, 1, 78, 0
6, 113519, Note_on_c, 1, 86, 0
6, 113520, Note_on_c, 1, 76, 68
6, 113520, Note_on_c, 1, 85, 68
6, 113528, Control_c, 1, 11, 119
6, 113559, Control_c, 1, 11, 118
6, 113590, Control_c, 1, 11, 117
6, 113621, Control_c, 1, 11, 116
6, 113652, Control_c, 1, 11, 115
6, 113683, Control_c, 1, 11, 114
6, 113714, Control_c, 1, 11, 113
6, 113745, Control_c, 1, 11, 112
6, 113759, Note_on_c, 1, 76, 0
6, 113759, Note_on_c, 1, 85, 0
6, 113760, Note_on_c, 1, 78, 68
6, 113760, Note_on_c, 1, 86, 68
6, 113775, Control_c, 1, 11, 111
6, 113806, Control_c, 1, 11, 110
6, 113837, Control_c, 1, 11, 109
6, 113868, Control_c, 1, 11, 108
6, 113899, Control_c, 1, 11, 107
6, 113930, Control_c, 1, 11, 106
6, 113961, Control_c, 1, 11, 105
6, 113992, Control_c, 1, 11, 104
6, 113999, Note_on_c, 1, 78, 0
6, 113999, Note_on_c, 1, 86, 0
6, 114000, Note_on_c, 1, 80, 68
6, 114000, Note_on_c, 1, 88, 68
6, 114023, Control_c, 1, 11, 103
6, 114054, Control_c, 1, 11, 102
6, 114085, Control_c, 1, 11, 101
6, 114116, Control_c, 1, 11, 100
6, 114147, Control_c, 1, 11, 99
6, 114178, Control_c, 1, 11, 98
6, 114209, Control_c, 1, 11, 96
6, 114239, Note_on_c, 1, 80, 0
6, 114239, Note_on_c, 1, 88, 0
6, 114240, Note_on_c, 1, 81, 68
6, 114240, Note_on_c, 1, 85, 68
6, 114707, Note_on_c, 1, 81, 0
6, 114707, Note_on_c, 1, 85, 0
6, 114720, Note_on_c, 1, 78, 68
6, 114720, Control_c, 1, 11, 96
6, 114720, Note_on_c, 1, 86, 68
6, 114810, Control_c, 1, 11, 95
6, 114900, Control_c, 1, 11, 94
6, 114959, Note_on_c, 1, 78, 0
6, 114959, Note_on_c, 1, 86, 0
6, 114960, Note_on_c, 1, 88, 68
6, 114960, Note_on_c, 1, 80, 68
6, 114990, Control_c, 1, 11, 93
6, 115080, Control_c, 1, 11, 92
6, 115170, Control_c, 1, 11, 91
6, 115199, Note_on_c, 1, 88, 0
6, 115199, Note_on_c, 1, 80, 0
6, 115200, Note_on_c, 1, 85, 68
6, 115200, Note_on_c, 1, 81, 68
6, 115260, Control_c, 1, 11, 90
6, 115350, Control_c, 1, 11, 89
6, 115440, Control_c, 1, 11, 88
6, 115530, Control_c, 1, 11, 87
6, 115620, Control_c, 1, 11, 86
6, 115667, Note_on_c, 1, 85, 0
6, 115667, Note_on_c, 1, 81, 0
6, 115680, Note_on_c, 1, 86, 68
6, 115680, Note_on_c, 1, 78, 68
6, 115710, Control_c, 1, 11, 85
6, 115800, Control_c, 1, 11, 84
6, 115890, Control_c, 1, 11, 83
6, 115919, Note_on_c, 1, 86, 0
6, 115919, Note_on_c, 1, 78, 0
6, 115920, Note_on_c, 1, 88, 68
6, 115920, Note_on_c, 1, 80, 68
6, 115980, Control_c, 1, 11, 82
6, 116070, Control_c, 1, 11, 80
6, 116147, Note_on_c, 1, 88, 0
6, 116147, Note_on_c, 1, 80, 0
6, 116160, Note_on_c, 1, 81, 68
6, 116393, Note_on_c, 1, 81, 0
6, 116400, Note_on_c, 1, 81, 68
6, 116489, Note_on_c, 1, 81, 0
6, 116520, Note_on_c, 1, 81, 68
6, 116609, Note_on_c, 1, 81, 0
6, 116640, Note_on_c, 1, 81, 68
6, 116849, Note_on_c, 1, 81, 0
6, 116880, Note_on_c, 1, 81, 68
6, 117089, Note_on_c, 1, 81, 0
6, 117120, Note_on_c, 1, 81, 68
6, 117353, Note_on_c, 1, 81, 0
6, 117360, Note_on_c, 1, 81, 68
6, 117449, Note_on_c, 1, 81, 0
6, 117480, Note_on_c, 1, 81, 68
6, 117569, Note_on_c, 1, 81, 0
6, 117600, Note_on_c, 1, 81, 68
6, 117809, Note_on_c, 1, 81, 0
6, 117840, Note_on_c, 1, 81, 68
6, 118049, Note_on_c, 1, 81, 0
6, 118078, Control_c, 1, 11, 127
6, 118080, Note_on_c, 1, 74, 84
6, 118080, Note_on_c, 1, 83, 84
6, 118313, Note_on_c, 1, 74, 0
6, 118313, Note_on_c, 1, 83, 0
6, 118320, Note_on_c, 1, 72, 84
6, 118320, Note_on_c, 1, 81, 84
6, 118409, Note_on_c, 1, 72, 0
6, 118409, Note_on_c, 1, 81, 0
6, 118440, Note_on_c, 1, 83, 84
6, 118440, Note_on_c, 1, 74, 84
6, 118529, Note_on_c, 1, 83, 0
6, 118529, Note_on_c, 1, 74, 0
6, 118560, Note_on_c, 1, 84, 84
6, 118560, Note_on_c, 1, 76, 84
6, 118679, Note_on_c, 1, 84, 0
6, 118679, Note_on_c, 1, 76, 0
6, 120000, Note_on_c, 1, 83, 84
6, 120000, Note_on_c, 1, 74, 84
6, 120233, Note_on_c, 1, 83, 0
6, 120233, Note_on_c, 1, 74, 0
6, 120240, Note_on_c, 1, 81, 84
6, 120240, Note_on_c, 1, 72, 84
6, 120329, Note_on_c, 1, 81, 0
6, 120329, Note_on_c, 1, 72, 0
6, 120360, Note_on_c, 1, 83, 84
6, 120360, Note_on_c, 1, 74, 84
6, 120449, Note_on_c, 1, 83, 0
6, 120449, Note_on_c, 1, 74, 0
6, 120480, Note_on_c, 1, 84, 84
6, 120480, Note_on_c, 1, 76, 84
6, 120599, Note_on_c, 1, 84, 0
6, 120599, Note_on_c, 1, 76, 0
6, 121440, Note_on_c, 1, 83, 52
6, 121673, Note_on_c, 1, 83, 0
6, 121680, Note_on_c, 1, 81, 52
6, 121769, Note_on_c, 1, 81, 0
6, 121800, Note_on_c, 1, 88, 52
6, 121800, Note_on_c, 1, 83, 52
6, 121889, Note_on_c, 1, 83, 0
6, 121907, Note_on_c, 1, 88, 0
6, 121920, Note_on_c, 1, 88, 44
6, 121920, Note_on_c, 1, 84, 44
6, 122153, Note_on_c, 1, 88, 0
6, 122153, Note_on_c, 1, 84, 0
6, 122160, Note_on_c, 1, 84, 44
6, 122160, Note_on_c, 1, 88, 44
6, 122249, Note_on_c, 1, 84, 0
6, 122249, Note_on_c, 1, 88, 0
6, 122280, Note_on_c, 1, 84, 44
6, 122280, Note_on_c, 1, 88, 44
6, 122369, Note_on_c, 1, 84, 0
6, 122369, Note_on_c, 1, 88, 0
6, 122400, Note_on_c, 1, 88, 44
6, 122400, Note_on_c, 1, 83, 44
6, 122609, Note_on_c, 1, 88, 0
6, 122609, Note_on_c, 1, 83, 0
6, 122640, Note_on_c, 1, 88, 44
6, 122640, Note_on_c, 1, 83, 44
6, 122849, Note_on_c, 1, 88, 0
6, 122849, Note_on_c, 1, 83, 0
6, 125760, Note_on_c, 1, 88, 44
6, 125993, Note_on_c, 1, 88, 0
6, 126000, Note_on_c, 1, 88, 44
6, 126089, Note_on_c, 1, 88, 0
6, 126120, Note_on_c, 1, 88, 44
6, 126209, Note_on_c, 1, 88, 0
6, 126240, Note_on_c, 1, 87, 44
6, 126449, Note_on_c, 1, 87, 0
6, 126480, Note_on_c, 1, 86, 44
6, 126689, Note_on_c, 1, 86, 0
6, 126689, End_track
7, 0, Start_track
7, 0, Title_t, "Oboe"
7, 0, MIDI_port, 0
7, 0, Program_c, 2, 68
7, 0, Control_c, 2, 7, 80
7, 0, Control_c, 2, 11, 127
7, 0, Control_c, 2, 10, 70
7, 0, Note_on_c, 2, 76, 76
7, 0, Note_on_c, 2, 72, 76
7, 0, Control_c, 2, 11, 127
7, 20, Control_c, 2, 11, 125
7, 40, Control_c, 2, 11, 124
7, 60, Control_c, 2, 11, 122
7, 80, Control_c, 2, 11, 120
7, 100, Control_c, 2, 11, 118
7, 120, Control_c, 2, 11, 117
7, 140, Control_c, 2, 11, 115
7, 160, Control_c, 2, 11, 113
7, 180, Control_c, 2, 11, 111
7, 200, Control_c, 2, 11, 110
7, 220, Control_c, 2, 11, 108
7, 240, Control_c, 2, 11, 106
7, 260, Control_c, 2, 11, 104
7, 280, Control_c, 2, 11, 103
7, 300, Control_c, 2, 11, 101
7, 320, Control_c, 2, 11, 99
7, 340, Control_c, 2, 11, 97
7, 360, Control_c, 2, 11, 96
7, 380, Control_c, 2, 11, 94
7, 400, Control_c, 2, 11, 92
7, 420, Control_c, 2, 11, 90
7, 440, Control_c, 2, 11, 89
7, 460, Control_c, 2, 11, 87
7, 480, Control_c, 2, 11, 85
7, 500, Control_c, 2, 11, 83
7, 520, Control_c, 2, 11, 82
7, 540, Control_c, 2, 11, 80
7, 560, Control_c, 2, 11, 78
7, 580, Control_c, 2, 11, 76
7, 600, Control_c, 2, 11, 75
7, 620, Control_c, 2, 11, 73
7, 640, Control_c, 2, 11, 71
7, 660, Control_c, 2, 11, 69
7, 680, Control_c, 2, 11, 68
7, 700, Control_c, 2, 11, 66
7, 720, Control_c, 2, 11, 64
7, 1199, Note_on_c, 2, 76, 0
7, 1199, Note_on_c, 2, 72, 0
7, 1440, Control_c, 2, 11, 127
7, 31920, Note_on_c, 2, 76, 76
7, 31920, Note_on_c, 2, 79, 76
7, 32159, Note_on_c, 2, 76, 0
7, 32159, Note_on_c, 2, 79, 0
7, 32400, Note_on_c, 2, 83, 77
7, 32400, Note_on_c, 2, 75, 77
7, 32639, Note_on_c, 2, 83, 0
7, 32639, Note_on_c, 2, 75, 0
7, 32880, Note_on_c, 2, 78, 78
7, 32880, Note_on_c, 2, 74, 78
7, 33119, Note_on_c, 2, 78, 0
7, 33119, Note_on_c, 2, 74, 0
7, 33360, Note_on_c, 2, 72, 79
7, 33360, Note_on_c, 2, 81, 79
7, 33599, Note_on_c, 2, 72, 0
7, 33599, Note_on_c, 2, 81, 0
7, 33840, Note_on_c, 2, 72, 80
7, 33840, Note_on_c, 2, 76, 80
7, 34079, Note_on_c, 2, 72, 0
7, 34079, Note_on_c, 2, 76, 0
7, 34320, Note_on_c, 2, 76, 81
7, 34320, Note_on_c, 2, 72, 81
7, 34559, Note_on_c, 2, 76, 0
7, 34559, Note_on_c, 2, 72, 0
7, 34800, Note_on_c, 2, 71, 82
7, 34800, Note_on_c, 2, 76, 82
7, 35039, Note_on_c, 2, 71, 0
7, 35039, Note_on_c, 2, 76, 0
7, 35280, Note_on_c, 2, 72, 83
7, 35280, Note_on_c, 2, 76, 83
7, 35504, Note_on_c, 2, 72, 0
7, 35504, Note_on_c, 2, 76, 0
7, 35520, Note_on_c, 2, 76, 84
7, 35751, Note_on_c, 2, 76, 0
7, 35760, Note_on_c, 2, 76, 84
7, 35849, Note_on_c, 2, 76, 0
7, 35880, Note_on_c, 2, 76, 84
7, 35969, Note_on_c, 2, 76, 0
7, 36000, Note_on_c, 2, 76, 84
7, 36209, Note_on_c, 2, 76, 0
7, 36240, Note_on_c, 2, 76, 84
7, 36449, Note_on_c, 2, 76, 0
7, 36480, Note_on_c, 2, 76, 84
7, 36711, Note_on_c, 2, 76, 0
7, 36720, Note_on_c, 2, 76, 84
7, 36809, Note_on_c, 2, 76, 0
7, 36840, Note_on_c, 2, 76, 84
7, 36929, Note_on_c, 2, 76, 0
7, 36960, Note_on_c, 2, 76, 84
7, 37169, Note_on_c, 2, 76, 0
7, 37200, Note_on_c, 2, 76, 84
7, 37409, Note_on_c, 2, 76, 0
7, 37440, Note_on_c, 2, 76, 84
7, 37671, Note_on_c, 2, 76, 0
7, 37680, Note_on_c, 2, 76, 84
7, 37769, Note_on_c, 2, 76, 0
7, 37800, Note_on_c, 2, 78, 84
7, 37889, Note_on_c, 2, 78, 0
7, 37920, Note_on_c, 2, 79, 84
7, 38129, Note_on_c, 2, 79, 0
7, 38160, Note_on_c, 2, 79, 84
7, 38369, Note_on_c, 2, 79, 0
7, 38400, Note_on_c, 2, 79, 84
7, 38631, Note_on_c, 2, 79, 0
7, 38640, Note_on_c, 2, 79, 84
7, 38729, Note_on_c, 2, 79, 0
7, 38760, Note_on_c, 2, 79, 84
7, 38849, Note_on_c, 2, 79, 0
7, 38880, Note_on_c, 2, 79, 84
7, 39119, Note_on_c, 2, 79, 0
7, 39360, Note_on_c, 2, 79, 84
7, 39360, Note_on_c, 2, 67, 84
7, 39591, Note_on_c, 2, 79, 0
7, 39591, Note_on_c, 2, 67, 0
7, 39600, Note_on_c, 2, 79, 84
7, 39600, Note_on_c, 2, 67, 84
7, 39689, Note_on_c, 2, 79, 0
7, 39689, Note_on_c, 2, 67, 0
7, 39720, Note_on_c, 2, 69, 84
7, 39720, Note_on_c, 2, 81, 84
7, 39809, Note_on_c, 2, 69, 0
7, 39809, Note_on_c, 2, 81, 0
7, 39840, Note_on_c, 2, 83, 84
7, 39840, Note_on_c, 2, 71, 84
7, 40049, Note_on_c, 2, 83, 0
7, 40049, Note_on_c, 2, 71, 0
7, 40080, Note_on_c, 2, 71, 84
7, 40080, Note_on_c, 2, 83, 84
7, 40289, Note_on_c, 2, 71, 0
7, 40289, Note_on_c, 2, 83, 0
7, 40320, Note_on_c, 2, 78, 84
7, 40320, Note_on_c, 2, 66, 84
7, 40551, Note_on_c, 2, 78, 0
7, 40551, Note_on_c, 2, 66, 0
7, 40560, Note_on_c, 2, 78, 84
7, 40560, Note_on_c, 2, 66, 84
7, 40649, Note_on_c, 2, 78, 0
7, 40649, Note_on_c, 2, 66, 0
7, 40680, Note_on_c, 2, 68, 84
7, 40680, Note_on_c, 2, 80, 84
7, 40769, Note_on_c, 2, 68, 0
7, 40769, Note_on_c, 2, 80, 0
7, 40800, Note_on_c, 2, 81, 84
7, 40800, Note_on_c, 2, 69, 84
7, 41009, Note_on_c, 2, 81, 0
7, 41009, Note_on_c, 2, 69, 0
7, 41040, Note_on_c, 2, 69, 84
7, 41040, Note_on_c, 2, 81, 84
7, 41249, Note_on_c, 2, 69, 0
7, 41249, Note_on_c, 2, 81, 0
7, 41280, Note_on_c, 2, 76, 84
7, 41511, Note_on_c, 2, 76, 0
7, 41520, Note_on_c, 2, 76, 84
7, 41609, Note_on_c, 2, 76, 0
7, 41640, Note_on_c, 2, 76, 84
7, 41729, Note_on_c, 2, 76, 0
7, 41760, Note_on_c, 2, 76, 84
7, 41969, Note_on_c, 2, 76, 0
7, 42000, Note_on_c, 2, 76, 84
7, 42209, Note_on_c, 2, 76, 0
7, 42240, Note_on_c, 2, 76, 84
7, 42471, Note_on_c, 2, 76, 0
7, 42480, Note_on_c, 2, 78, 84
7, 42569, Note_on_c, 2, 78, 0
7, 42600, Note_on_c, 2, 80, 84
7, 42689, Note_on_c, 2, 80, 0
7, 42720, Note_on_c, 2, 81, 84
7, 42959, Note_on_c, 2, 81, 0
7, 43200, Control_c, 2, 11, 127
7, 43200, Note_on_c, 2, 79, 84
7, 43253, Control_c, 2, 11, 126
7, 43307, Control_c, 2, 11, 125
7, 43360, Control_c, 2, 11, 124
7, 43413, Control_c, 2, 11, 123
7, 43431, Note_on_c, 2, 79, 0
7, 43440, Note_on_c, 2, 79, 84
7, 43467, Control_c, 2, 11, 122
7, 43520, Control_c, 2, 11, 121
7, 43529, Note_on_c, 2, 79, 0
7, 43560, Note_on_c, 2, 81, 84
7, 43573, Control_c, 2, 11, 120
7, 43627, Control_c, 2, 11, 119
7, 43649, Note_on_c, 2, 81, 0
7, 43680, Note_on_c, 2, 83, 84
7, 43680, Control_c, 2, 11, 118
7, 43733, Control_c, 2, 11, 117
7, 43787, Control_c, 2, 11, 116
7, 43840, Control_c, 2, 11, 115
7, 43889, Note_on_c, 2, 83, 0
7, 43893, Control_c, 2, 11, 114
7, 43920, Note_on_c, 2, 83, 84
7, 43947, Control_c, 2, 11, 113
7, 44000, Control_c, 2, 11, 112
7, 44053, Control_c, 2, 11, 111
7, 44107, Control_c, 2, 11, 110
7, 44129, Note_on_c, 2, 83, 0
7, 44160, Control_c, 2, 11, 109
7, 44160, Note_on_c, 2, 78, 84
7, 44213, Control_c, 2, 11, 108
7, 44267, Control_c, 2, 11, 107
7, 44320, Control_c, 2, 11, 106
7, 44373, Control_c, 2, 11, 105
7, 44391, Note_on_c, 2, 78, 0
7, 44400, Note_on_c, 2, 78, 84
7, 44427, Control_c, 2, 11, 104
7, 44480, Control_c, 2, 11, 103
7, 44489, Note_on_c, 2, 78, 0
7, 44520, Note_on_c, 2, 80, 84
7, 44533, Control_c, 2, 11, 102
7, 44587, Control_c, 2, 11, 101
7, 44609, Note_on_c, 2, 80, 0
7, 44640, Control_c, 2, 11, 100
7, 44640, Note_on_c, 2, 81, 84
7, 44693, Control_c, 2, 11, 99
7, 44747, Control_c, 2, 11, 98
7, 44800, Control_c, 2, 11, 97
7, 44849, Note_on_c, 2, 81, 0
7, 44853, Control_c, 2, 11, 96
7, 44880, Note_on_c, 2, 81, 84
7, 44907, Control_c, 2, 11, 95
7, 44960, Control_c, 2, 11, 94
7, 45013, Control_c, 2, 11, 93
7, 45067, Control_c, 2, 11, 92
7, 45089, Note_on_c, 2, 81, 0
7, 45120, Note_on_c, 2, 76, 84
7, 45120, Control_c, 2, 11, 91
7, 45173, Control_c, 2, 11, 90
7, 45227, Control_c, 2, 11, 89
7, 45280, Control_c, 2, 11, 88
7, 45333, Control_c, 2, 11, 87
7, 45351, Note_on_c, 2, 76, 0
7, 45360, Note_on_c, 2, 76, 84
7, 45387, Control_c, 2, 11, 86
7, 45440, Control_c, 2, 11, 85
7, 45449, Note_on_c, 2, 76, 0
7, 45480, Note_on_c, 2, 76, 84
7, 45493, Control_c, 2, 11, 84
7, 45547, Control_c, 2, 11, 83
7, 45569, Note_on_c, 2, 76, 0
7, 45600, Control_c, 2, 11, 82
7, 45600, Note_on_c, 2, 76, 84
7, 45653, Control_c, 2, 11, 81
7, 45707, Control_c, 2, 11, 80
7, 45760, Control_c, 2, 11, 79
7, 45809, Note_on_c, 2, 76, 0
7, 45813, Control_c, 2, 11, 78
7, 45840, Note_on_c, 2, 76, 84
7, 45867, Control_c, 2, 11, 77
7, 45920, Control_c, 2, 11, 76
7, 45973, Control_c, 2, 11, 75
7, 46027, Control_c, 2, 11, 74
7, 46049, Note_on_c, 2, 76, 0
7, 46080, Control_c, 2, 11, 73
7, 46080, Note_on_c, 2, 76, 84
7, 46133, Control_c, 2, 11, 72
7, 46187, Control_c, 2, 11, 71
7, 46240, Control_c, 2, 11, 70
7, 46293, Control_c, 2, 11, 69
7, 46311, Note_on_c, 2, 76, 0
7, 46320, Note_on_c, 2, 78, 84
7, 46347, Control_c, 2, 11, 68
7, 46400, Control_c, 2, 11, 67
7, 46409, Note_on_c, 2, 78, 0
7, 46440, Note_on_c, 2, 80, 84
7, 46453, Control_c, 2, 11, 66
7, 46507, Control_c, 2, 11, 65
7, 46529, Note_on_c, 2, 80, 0
7, 46560, Note_on_c, 2, 81, 84
7, 46560, Control_c, 2, 11, 64
7, 46799, Note_on_c, 2, 81, 0
7, 47040, Note_on_c, 2, 76, 84
7, 47271, Note_on_c, 2, 76, 0
7, 47280, Note_on_c, 2, 78, 84
7, 47280, Note_on_c, 2, 76, 84
7, 47369, Note_on_c, 2, 78, 0
7, 47369, Note_on_c, 2, 76, 0
7, 47400, Note_on_c, 2, 76, 84
7, 47400, Note_on_c, 2, 80, 84
7, 47489, Note_on_c, 2, 76, 0
7, 47489, Note_on_c, 2, 80, 0
7, 47520, Note_on_c, 2, 76, 84
7, 47520, Note_on_c, 2, 81, 84
7, 47759, Note_on_c, 2, 76, 0
7, 47759, Note_on_c, 2, 81, 0
7, 48000, Control_c, 2, 11, 127
7, 52320, Control_c, 2, 11, 96
7, 52560, Control_c, 2, 11, 96
7, 52560, Note_on_c, 2, 79, 68
7, 52560, Note_on_c, 2, 76, 68
7, 52606, Control_c, 2, 11, 97
7, 52653, Control_c, 2, 11, 98
7, 52699, Control_c, 2, 11, 99
7, 52746, Control_c, 2, 11, 100
7, 52792, Control_c, 2, 11, 101
7, 52839, Control_c, 2, 11, 102
7, 52885, Control_c, 2, 11, 103
7, 52932, Control_c, 2, 11, 104
7, 52978, Control_c, 2, 11, 105
7, 53025, Control_c, 2, 11, 106
7, 53071, Control_c, 2, 11, 107
7, 53117, Control_c, 2, 11, 108
7, 53164, Control_c, 2, 11, 109
7, 53210, Control_c, 2, 11, 110
7, 53257, Control_c, 2, 11, 111
7, 53303, Control_c, 2, 11, 112
7, 53350, Control_c, 2, 11, 113
7, 53396, Control_c, 2, 11, 114
7, 53443, Control_c, 2, 11, 115
7, 53489, Control_c, 2, 11, 116
7, 53519, Note_on_c, 2, 79, 0
7, 53519, Note_on_c, 2, 76, 0
7, 53520, Note_on_c, 2, 74, 68
7, 53520, Note_on_c, 2, 78, 68
7, 53535, Control_c, 2, 11, 117
7, 53582, Control_c, 2, 11, 118
7, 53628, Control_c, 2, 11, 119
7, 53639, Note_on_c, 2, 74, 0
7, 53639, Note_on_c, 2, 78, 0
7, 53675, Control_c, 2, 11, 120
7, 53721, Control_c, 2, 11, 121
7, 53768, Control_c, 2, 11, 122
7, 53814, Control_c, 2, 11, 123
7, 53861, Control_c, 2, 11, 124
7, 53907, Control_c, 2, 11, 125
7, 53954, Control_c, 2, 11, 127
7, 54271, Control_c, 2, 11, 126
7, 54302, Control_c, 2, 11, 125
7, 54333, Control_c, 2, 11, 124
7, 54364, Control_c, 2, 11, 123
7, 54395, Control_c, 2, 11, 122
7, 54426, Control_c, 2, 11, 121
7, 54457, Control_c, 2, 11, 120
7, 54480, Note_on_c, 2, 81, 68
7, 54480, Note_on_c, 2, 85, 68
7, 54488, Control_c, 2, 11, 119
7, 54519, Control_c, 2, 11, 118
7, 54550, Control_c, 2, 11, 117
7, 54581, Control_c, 2, 11, 116
7, 54612, Control_c, 2, 11, 115
7, 54643, Control_c, 2, 11, 114
7, 54674, Control_c, 2, 11, 113
7, 54705, Control_c, 2, 11, 112
7, 54719, Note_on_c, 2, 81, 0
7, 54719, Note_on_c, 2, 85, 0
7, 54720, Note_on_c, 2, 80, 68
7, 54720, Note_on_c, 2, 83, 68
7, 54735, Control_c, 2, 11, 111
7, 54766, Control_c, 2, 11, 110
7, 54797, Control_c, 2, 11, 109
7, 54828, Control_c, 2, 11, 108
7, 54859, Control_c, 2, 11, 107
7, 54890, Control_c, 2, 11, 106
7, 54921, Control_c, 2, 11, 105
7, 54952, Control_c, 2, 11, 104
7, 54959, Note_on_c, 2, 80, 0
7, 54959, Note_on_c, 2, 83, 0
7, 54960, Note_on_c, 2, 78, 68
7, 54960, Note_on_c, 2, 81, 68
7, 54983, Control_c, 2, 11, 103
7, 55014, Control_c, 2, 11, 102
7, 55045, Control_c, 2, 11, 101
7, 55076, Control_c, 2, 11, 100
7, 55107, Control_c, 2, 11, 99
7, 55138, Control_c, 2, 11, 98
7, 55169, Control_c, 2, 11, 96
7, 55199, Note_on_c, 2, 78, 0
7, 55199, Note_on_c, 2, 81, 0
7, 55200, Note_on_c, 2, 80, 68
7, 55200, Note_on_c, 2, 76, 68
7, 55439, Note_on_c, 2, 80, 0
7, 55439, Note_on_c, 2, 76, 0
7, 58560, Note_on_c, 2, 76, 68
7, 58560, Note_on_c, 2, 70, 68
7, 58560, Control_c, 2, 11, 96
7, 58622, Control_c, 2, 11, 97
7, 58684, Control_c, 2, 11, 98
7, 58746, Control_c, 2, 11, 99
7, 58808, Control_c, 2, 11, 100
7, 58870, Control_c, 2, 11, 101
7, 58932, Control_c, 2, 11, 102
7, 58994, Control_c, 2, 11, 103
7, 59039, Note_on_c, 2, 70, 0
7, 59040, Note_on_c, 2, 71, 68
7, 59055, Control_c, 2, 11, 104
7, 59117, Control_c, 2, 11, 105
7, 59179, Control_c, 2, 11, 106
7, 59241, Control_c, 2, 11, 107
7, 59279, Note_on_c, 2, 76, 0
7, 59280, Note_on_c, 2, 78, 68
7, 59303, Control_c, 2, 11, 108
7, 59365, Control_c, 2, 11, 109
7, 59399, Note_on_c, 2, 78, 0
7, 59400, Note_on_c, 2, 76, 68
7, 59427, Control_c, 2, 11, 110
7, 59489, Control_c, 2, 11, 111
7, 59507, Note_on_c, 2, 71, 0
7, 59507, Note_on_c, 2, 76, 0
7, 59520, Note_on_c, 2, 76, 68
7, 59520, Note_on_c, 2, 70, 68
7, 59551, Control_c, 2, 11, 112
7, 59613, Control_c, 2, 11, 113
7, 59675, Control_c, 2, 11, 114
7, 59737, Control_c, 2, 11, 115
7, 59799, Control_c, 2, 11, 116
7, 59861, Control_c, 2, 11, 117
7, 59923, Control_c, 2, 11, 118
7, 59985, Control_c, 2, 11, 119
7, 59999, Note_on_c, 2, 70, 0
7, 60000, Note_on_c, 2, 71, 68
7, 60046, Control_c, 2, 11, 120
7, 60108, Control_c, 2, 11, 121
7, 60170, Control_c, 2, 11, 122
7, 60232, Control_c, 2, 11, 123
7, 60239, Note_on_c, 2, 76, 0
7, 60240, Note_on_c, 2, 80, 68
7, 60294, Control_c, 2, 11, 124
7, 60319, Note_on_c, 2, 80, 0
7, 60320, Note_on_c, 2, 78, 68
7, 60356, Control_c, 2, 11, 125
7, 60399, Note_on_c, 2, 78, 0
7, 60400, Note_on_c, 2, 76, 68
7, 60418, Control_c, 2, 11, 127
7, 60467, Note_on_c, 2, 71, 0
7, 60479, Note_on_c, 2, 76, 0
7, 62160, Control_c, 2, 11, 96
7, 62400, Note_on_c, 2, 76, 68
7, 62400, Note_on_c, 2, 70, 68
7, 62462, Control_c, 2, 11, 97
7, 62524, Control_c, 2, 11, 98
7, 62586, Control_c, 2, 11, 99
7, 62648, Control_c, 2, 11, 100
7, 62710, Control_c, 2, 11, 101
7, 62772, Control_c, 2, 11, 102
7, 62834, Control_c, 2, 11, 103
7, 62879, Note_on_c, 2, 70, 0
7, 62880, Note_on_c, 2, 71, 68
7, 62895, Control_c, 2, 11, 104
7, 62957, Control_c, 2, 11, 105
7, 63019, Control_c, 2, 11, 106
7, 63081, Control_c, 2, 11, 107
7, 63119, Note_on_c, 2, 76, 0
7, 63120, Note_on_c, 2, 78, 68
7, 63143, Control_c, 2, 11, 108
7, 63205, Control_c, 2, 11, 109
7, 63239, Note_on_c, 2, 78, 0
7, 63240, Note_on_c, 2, 76, 68
7, 63267, Control_c, 2, 11, 110
7, 63329, Control_c, 2, 11, 111
7, 63347, Note_on_c, 2, 71, 0
7, 63347, Note_on_c, 2, 76, 0
7, 63360, Note_on_c, 2, 70, 68
7, 63360, Note_on_c, 2, 76, 68
7, 63391, Control_c, 2, 11, 112
7, 63453, Control_c, 2, 11, 113
7, 63515, Control_c, 2, 11, 114
7, 63577, Control_c, 2, 11, 115
7, 63639, Control_c, 2, 11, 116
7, 63701, Control_c, 2, 11, 117
7, 63763, Control_c, 2, 11, 118
7, 63825, Control_c, 2, 11, 119
7, 63839, Note_on_c, 2, 70, 0
7, 63840, Note_on_c, 2, 71, 68
7, 63886, Control_c, 2, 11, 120
7, 63948, Control_c, 2, 11, 121
7, 64010, Control_c, 2, 11, 122
7, 64072, Control_c, 2, 11, 123
7, 64079, Note_on_c, 2, 76, 0
7, 64080, Note_on_c, 2, 80, 68
7, 64134, Control_c, 2, 11, 124
7, 64159, Note_on_c, 2, 80, 0
7, 64160, Note_on_c, 2, 78, 68
7, 64196, Control_c, 2, 11, 125
7, 64239, Note_on_c, 2, 78, 0
7, 64240, Note_on_c, 2, 76, 68
7, 64258, Control_c, 2, 11, 127
7, 64307, Note_on_c, 2, 71, 0
7, 64307, Note_on_c, 2, 76, 0
7, 64320, Note_on_c, 2, 76, 68
7, 64320, Control_c, 2, 11, 127
7, 64351, Control_c, 2, 11, 126
7, 64382, Control_c, 2, 11, 125
7, 64413, Control_c, 2, 11, 124
7, 64444, Control_c, 2, 11, 123
7, 64475, Control_c, 2, 11, 122
7, 64506, Control_c, 2, 11, 121
7, 64537, Control_c, 2, 11, 120
7, 64568, Control_c, 2, 11, 119
7, 64599, Control_c, 2, 11, 118
7, 64630, Control_c, 2, 11, 117
7, 64661, Control_c, 2, 11, 116
7, 64692, Control_c, 2, 11, 115
7, 64723, Control_c, 2, 11, 114
7, 64754, Control_c, 2, 11, 113
7, 64785, Control_c, 2, 11, 112
7, 64815, Control_c, 2, 11, 111
7, 64846, Control_c, 2, 11, 110
7, 64877, Control_c, 2, 11, 109
7, 64879, Note_on_c, 2, 76, 0
7, 64880, Note_on_c, 2, 77, 68
7, 64908, Control_c, 2, 11, 108
7, 64939, Control_c, 2, 11, 107
7, 64959, Note_on_c, 2, 77, 0
7, 64960, Note_on_c, 2, 76, 68
7, 64970, Control_c, 2, 11, 106
7, 65001, Control_c, 2, 11, 105
7, 65032, Control_c, 2, 11, 104
7, 65039, Note_on_c, 2, 76, 0
7, 65040, Note_on_c, 2, 79, 68
7, 65063, Control_c, 2, 11, 103
7, 65094, Control_c, 2, 11, 102
7, 65119, Note_on_c, 2, 79, 0
7, 65120, Note_on_c, 2, 77, 68
7, 65125, Control_c, 2, 11, 101
7, 65156, Control_c, 2, 11, 100
7, 65187, Control_c, 2, 11, 99
7, 65199, Note_on_c, 2, 77, 0
7, 65200, Note_on_c, 2, 69, 68
7, 65218, Control_c, 2, 11, 98
7, 65249, Control_c, 2, 11, 96
7, 65267, Note_on_c, 2, 69, 0
7, 65280, Note_on_c, 2, 72, 68
7, 65519, Note_on_c, 2, 72, 0
7, 65520, Note_on_c, 2, 76, 68
7, 65639, Note_on_c, 2, 76, 0
7, 65640, Note_on_c, 2, 74, 68
7, 65759, Note_on_c, 2, 74, 0
7, 65760, Note_on_c, 2, 72, 68
7, 65999, Note_on_c, 2, 72, 0
7, 66118, Control_c, 2, 11, 127
7, 66240, Note_on_c, 2, 77, 52
7, 66587, Note_on_c, 2, 77, 0
7, 66600, Note_on_c, 2, 77, 52
7, 66707, Note_on_c, 2, 77, 0
7, 66720, Note_on_c, 2, 77, 52
7, 66799, Note_on_c, 2, 77, 0
7, 66800, Note_on_c, 2, 76, 52
7, 66879, Note_on_c, 2, 76, 0
7, 66880, Note_on_c, 2, 74, 52
7, 66939, Note_on_c, 2, 74, 0
7, 66960, Note_on_c, 2, 72, 52
7, 67019, Note_on_c, 2, 72, 0
7, 67040, Note_on_c, 2, 71, 52
7, 67099, Note_on_c, 2, 71, 0
7, 67120, Note_on_c, 2, 69, 52
7, 67179, Note_on_c, 2, 69, 0
7, 67200, Note_on_c, 2, 67, 52
7, 67439, Note_on_c, 2, 67, 0
7, 67440, Note_on_c, 2, 69, 52
7, 67547, Note_on_c, 2, 69, 0
7, 67560, Note_on_c, 2, 71, 52
7, 67649, Note_on_c, 2, 71, 0
7, 67680, Note_on_c, 2, 72, 52
7, 67999, Note_on_c, 2, 72, 0
7, 68000, Note_on_c, 2, 74, 52
7, 68079, Note_on_c, 2, 74, 0
7, 68080, Note_on_c, 2, 76, 52
7, 68147, Note_on_c, 2, 76, 0
7, 68158, Control_c, 2, 11, 80
7, 68160, Control_c, 2, 11, 80
7, 68160, Note_on_c, 2, 77, 76
7, 68180, Control_c, 2, 11, 82
7, 68200, Control_c, 2, 11, 84
7, 68220, Control_c, 2, 11, 86
7, 68240, Control_c, 2, 11, 88
7, 68260, Control_c, 2, 11, 90
7, 68280, Control_c, 2, 11, 92
7, 68300, Control_c, 2, 11, 94
7, 68320, Control_c, 2, 11, 96
7, 68340, Control_c, 2, 11, 98
7, 68360, Control_c, 2, 11, 100
7, 68380, Control_c, 2, 11, 102
7, 68400, Control_c, 2, 11, 104
7, 68420, Control_c, 2, 11, 105
7, 68440, Control_c, 2, 11, 107
7, 68460, Control_c, 2, 11, 109
7, 68480, Control_c, 2, 11, 111
7, 68500, Control_c, 2, 11, 113
7, 68507, Note_on_c, 2, 77, 0
7, 68520, Control_c, 2, 11, 115
7, 68520, Note_on_c, 2, 77, 76
7, 68540, Control_c, 2, 11, 117
7, 68560, Control_c, 2, 11, 119
7, 68580, Control_c, 2, 11, 121
7, 68600, Control_c, 2, 11, 123
7, 68620, Control_c, 2, 11, 127
7, 68627, Note_on_c, 2, 77, 0
7, 68640, Note_on_c, 2, 77, 76
7, 68719, Note_on_c, 2, 77, 0
7, 68720, Note_on_c, 2, 76, 76
7, 68799, Note_on_c, 2, 76, 0
7, 68800, Note_on_c, 2, 74, 76
7, 68859, Note_on_c, 2, 74, 0
7, 68880, Note_on_c, 2, 72, 84
7, 68939, Note_on_c, 2, 72, 0
7, 68960, Note_on_c, 2, 71, 76
7, 69019, Note_on_c, 2, 71, 0
7, 69040, Note_on_c, 2, 69, 76
7, 69099, Note_on_c, 2, 69, 0
7, 69120, Note_on_c, 2, 67, 76
7, 69239, Note_on_c, 2, 67, 0
7, 71280, Note_on_c, 2, 76, 84
7, 71369, Note_on_c, 2, 76, 0
7, 71400, Note_on_c, 2, 76, 84
7, 71489, Note_on_c, 2, 76, 0
7, 71520, Note_on_c, 2, 72, 48
7, 71999, Note_on_c, 2, 72, 0
7, 72000, Note_on_c, 2, 71, 48
7, 72407, Note_on_c, 2, 71, 0
7, 72420, Note_on_c, 2, 71, 48
7, 72449, Note_on_c, 2, 71, 0
7, 72450, Note_on_c, 2, 72, 48
7, 72479, Note_on_c, 2, 72, 0
7, 72480, Note_on_c, 2, 74, 48
7, 72799, Note_on_c, 2, 74, 0
7, 72800, Note_on_c, 2, 72, 48
7, 72879, Note_on_c, 2, 72, 0
7, 72880, Note_on_c, 2, 71, 48
7, 72947, Note_on_c, 2, 71, 0
7, 72960, Note_on_c, 2, 71, 48
7, 73079, Note_on_c, 2, 71, 0
7, 73080, Note_on_c, 2, 72, 48
7, 73187, Note_on_c, 2, 72, 0
7, 73200, Note_on_c, 2, 72, 48
7, 73427, Note_on_c, 2, 72, 0
7, 73440, Note_on_c, 2, 72, 48
7, 73799, Note_on_c, 2, 72, 0
7, 73800, Note_on_c, 2, 74, 48
7, 73907, Note_on_c, 2, 74, 0
7, 73920, Note_on_c, 2, 75, 48
7, 74039, Note_on_c, 2, 75, 0
7, 74040, Note_on_c, 2, 76, 48
7, 74147, Note_on_c, 2, 76, 0
7, 74160, Note_on_c, 2, 76, 48
7, 74249, Note_on_c, 2, 76, 0
7, 74280, Note_on_c, 2, 76, 48
7, 74331, Note_on_c, 2, 76, 0
7, 74340, Note_on_c, 2, 74, 48
7, 74369, Note_on_c, 2, 74, 0
7, 74370, Note_on_c, 2, 76, 48
7, 74399, Note_on_c, 2, 76, 0
7, 74400, Note_on_c, 2, 77, 48
7, 74719, Note_on_c, 2, 77, 0
7, 74720, Note_on_c, 2, 76, 48
7, 74799, Note_on_c, 2, 76, 0
7, 74800, Note_on_c, 2, 74, 48
7, 74867, Note_on_c, 2, 74, 0
7, 74880, Note_on_c, 2, 74, 48
7, 74999, Note_on_c, 2, 74, 0
7, 75000, Note_on_c, 2, 76, 48
7, 75107, Note_on_c, 2, 76, 0
7, 75120, Note_on_c, 2, 76, 48
7, 75347, Note_on_c, 2, 76, 0
7, 75360, Note_on_c, 2, 76, 48
7, 75719, Note_on_c, 2, 76, 0
7, 75720, Note_on_c, 2, 78, 48
7, 75839, Note_on_c, 2, 78, 0
7, 75840, Note_on_c, 2, 76, 48
7, 76079, Note_on_c, 2, 76, 0
7, 76080, Note_on_c, 2, 75, 48
7, 76199, Note_on_c, 2, 75, 0
7, 76320, Note_on_c, 2, 74, 48
7, 76679, Note_on_c, 2, 74, 0
7, 76680, Note_on_c, 2, 76, 48
7, 76799, Note_on_c, 2, 76, 0
7, 76800, Note_on_c, 2, 74, 48
7, 76919, Note_on_c, 2, 74, 0
7, 76920, Note_on_c, 2, 73, 48
7, 77039, Note_on_c, 2, 73, 0
7, 77040, Note_on_c, 2, 72, 48
7, 77159, Note_on_c, 2, 72, 0
7, 77280, Note_on_c, 2, 72, 48
7, 77759, Note_on_c, 2, 72, 0
7, 77760, Note_on_c, 2, 71, 48
7, 77999, Note_on_c, 2, 71, 0
7, 78000, Note_on_c, 2, 72, 48
7, 78167, Note_on_c, 2, 72, 0
7, 78180, Note_on_c, 2, 71, 48
7, 78209, Note_on_c, 2, 71, 0
7, 78210, Note_on_c, 2, 72, 48
7, 78239, Note_on_c, 2, 72, 0
7, 78240, Note_on_c, 2, 74, 48
7, 78559, Note_on_c, 2, 74, 0
7, 78560, Note_on_c, 2, 72, 48
7, 78639, Note_on_c, 2, 72, 0
7, 78640, Note_on_c, 2, 71, 48
7, 78707, Note_on_c, 2, 71, 0
7, 78720, Note_on_c, 2, 69, 48
7, 78779, Note_on_c, 2, 69, 0
7, 78800, Note_on_c, 2, 69, 48
7, 78879, Note_on_c, 2, 69, 0
7, 78880, Note_on_c, 2, 71, 48
7, 78959, Note_on_c, 2, 71, 0
7, 78960, Note_on_c, 2, 72, 48
7, 79019, Note_on_c, 2, 72, 0
7, 79040, Note_on_c, 2, 72, 48
7, 79119, Note_on_c, 2, 72, 0
7, 79120, Note_on_c, 2, 74, 48
7, 79199, Note_on_c, 2, 74, 0
7, 79200, Note_on_c, 2, 76, 48
7, 79559, Note_on_c, 2, 76, 0
7, 79560, Note_on_c, 2, 78, 48
7, 79679, Note_on_c, 2, 78, 0
7, 79680, Note_on_c, 2, 76, 48
7, 79919, Note_on_c, 2, 76, 0
7, 79920, Note_on_c, 2, 75, 48
7, 80039, Note_on_c, 2, 75, 0
7, 80160, Note_on_c, 2, 74, 48
7, 80239, Note_on_c, 2, 74, 0
7, 80240, Note_on_c, 2, 71, 48
7, 80319, Note_on_c, 2, 71, 0
7, 80320, Note_on_c, 2, 73, 48
7, 80399, Note_on_c, 2, 73, 0
7, 80400, Note_on_c, 2, 74, 48
7, 80479, Note_on_c, 2, 74, 0
7, 80480, Note_on_c, 2, 76, 48
7, 80559, Note_on_c, 2, 76, 0
7, 80560, Note_on_c, 2, 74, 48
7, 80627, Note_on_c, 2, 74, 0
7, 80640, Note_on_c, 2, 74, 48
7, 80759, Note_on_c, 2, 74, 0
7, 80760, Note_on_c, 2, 73, 48
7, 80879, Note_on_c, 2, 73, 0
7, 80880, Note_on_c, 2, 72, 48
7, 80999, Note_on_c, 2, 72, 0
7, 81120, Note_on_c, 2, 72, 48
7, 81599, Note_on_c, 2, 72, 0
7, 81600, Note_on_c, 2, 71, 48
7, 81839, Note_on_c, 2, 71, 0
7, 81840, Note_on_c, 2, 72, 48
7, 82007, Note_on_c, 2, 72, 0
7, 82020, Note_on_c, 2, 71, 48
7, 82049, Note_on_c, 2, 71, 0
7, 82050, Note_on_c, 2, 72, 48
7, 82079, Note_on_c, 2, 72, 0
7, 82080, Note_on_c, 2, 74, 48
7, 82399, Note_on_c, 2, 74, 0
7, 82400, Note_on_c, 2, 72, 48
7, 82479, Note_on_c, 2, 72, 0
7, 82480, Note_on_c, 2, 71, 48
7, 82547, Note_on_c, 2, 71, 0
7, 82560, Note_on_c, 2, 69, 48
7, 82799, Note_on_c, 2, 69, 0
7, 83040, Note_on_c, 2, 69, 48
7, 83359, Note_on_c, 2, 69, 0
7, 83360, Note_on_c, 2, 71, 48
7, 83439, Note_on_c, 2, 71, 0
7, 83440, Note_on_c, 2, 73, 48
7, 83507, Note_on_c, 2, 73, 0
7, 83520, Note_on_c, 2, 73, 48
7, 83639, Note_on_c, 2, 73, 0
7, 83640, Note_on_c, 2, 74, 48
7, 83747, Note_on_c, 2, 74, 0
7, 83760, Note_on_c, 2, 74, 48
7, 83987, Note_on_c, 2, 74, 0
7, 84000, Note_on_c, 2, 74, 48
7, 84319, Note_on_c, 2, 74, 0
7, 84320, Note_on_c, 2, 76, 48
7, 84399, Note_on_c, 2, 76, 0
7, 84400, Note_on_c, 2, 77, 48
7, 84467, Note_on_c, 2, 77, 0
7, 84480, Note_on_c, 2, 77, 52
7, 84599, Note_on_c, 2, 77, 0
7, 84600, Note_on_c, 2, 76, 52
7, 84707, Note_on_c, 2, 76, 0
7, 84720, Note_on_c, 2, 76, 52
7, 84947, Note_on_c, 2, 76, 0
7, 84960, Note_on_c, 2, 69, 52
7, 85027, Note_on_c, 2, 69, 0
7, 85040, Note_on_c, 2, 69, 52
7, 85107, Note_on_c, 2, 69, 0
7, 85120, Note_on_c, 2, 69, 53
7, 85187, Note_on_c, 2, 69, 0
7, 85200, Note_on_c, 2, 69, 54
7, 85279, Note_on_c, 2, 69, 0
7, 85280, Note_on_c, 2, 71, 55
7, 85359, Note_on_c, 2, 71, 0
7, 85360, Note_on_c, 2, 73, 56
7, 85427, Note_on_c, 2, 73, 0
7, 85440, Note_on_c, 2, 73, 57
7, 85519, Note_on_c, 2, 73, 0
7, 85520, Note_on_c, 2, 74, 58
7, 85587, Note_on_c, 2, 74, 0
7, 85600, Note_on_c, 2, 74, 59
7, 85659, Note_on_c, 2, 74, 0
7, 85680, Note_on_c, 2, 74, 60
7, 85907, Note_on_c, 2, 74, 0
7, 85920, Note_on_c, 2, 74, 62
7, 85987, Note_on_c, 2, 74, 0
7, 86000, Note_on_c, 2, 74, 63
7, 86067, Note_on_c, 2, 74, 0
7, 86080, Note_on_c, 2, 74, 64
7, 86147, Note_on_c, 2, 74, 0
7, 86160, Note_on_c, 2, 74, 65
7, 86239, Note_on_c, 2, 74, 0
7, 86240, Note_on_c, 2, 76, 66
7, 86319, Note_on_c, 2, 76, 0
7, 86320, Note_on_c, 2, 77, 67
7, 86387, Note_on_c, 2, 77, 0
7, 86400, Note_on_c, 2, 77, 68
7, 86479, Note_on_c, 2, 77, 0
7, 86480, Note_on_c, 2, 76, 68
7, 86547, Note_on_c, 2, 76, 0
7, 86560, Note_on_c, 2, 76, 67
7, 86619, Note_on_c, 2, 76, 0
7, 86880, Note_on_c, 2, 76, 64
7, 86959, Note_on_c, 2, 76, 0
7, 86960, Note_on_c, 2, 77, 64
7, 87027, Note_on_c, 2, 77, 0
7, 87040, Note_on_c, 2, 77, 63
7, 87099, Note_on_c, 2, 77, 0
7, 87360, Note_on_c, 2, 77, 60
7, 87439, Note_on_c, 2, 77, 0
7, 87440, Note_on_c, 2, 76, 60
7, 87507, Note_on_c, 2, 76, 0
7, 87520, Note_on_c, 2, 76, 59
7, 87579, Note_on_c, 2, 76, 0
7, 99600, Control_c, 2, 11, 48
7, 99840, Note_on_c, 2, 74, 84
7, 100073, Note_on_c, 2, 74, 0
7, 100080, Note_on_c, 2, 74, 84
7, 100169, Note_on_c, 2, 74, 0
7, 100200, Note_on_c, 2, 76, 84
7, 100289, Note_on_c, 2, 76, 0
7, 100320, Control_c, 2, 11, 48
7, 100320, Note_on_c, 2, 77, 84
7, 100344, Control_c, 2, 11, 49
7, 100369, Control_c, 2, 11, 50
7, 100393, Control_c, 2, 11, 51
7, 100417, Control_c, 2, 11, 52
7, 100442, Control_c, 2, 11, 53
7, 100466, Control_c, 2, 11, 54
7, 100490, Control_c, 2, 11, 55
7, 100514, Control_c, 2, 11, 56
7, 100539, Control_c, 2, 11, 57
7, 100563, Control_c, 2, 11, 58
7, 100587, Control_c, 2, 11, 59
7, 100612, Control_c, 2, 11, 60
7, 100636, Control_c, 2, 11, 61
7, 100660, Control_c, 2, 11, 62
7, 100685, Control_c, 2, 11, 63
7, 100709, Control_c, 2, 11, 64
7, 100733, Control_c, 2, 11, 65
7, 100757, Control_c, 2, 11, 66
7, 100782, Control_c, 2, 11, 67
7, 100806, Control_c, 2, 11, 68
7, 100830, Control_c, 2, 11, 69
7, 100855, Control_c, 2, 11, 70
7, 100879, Control_c, 2, 11, 71
7, 100903, Control_c, 2, 11, 72
7, 100928, Control_c, 2, 11, 73
7, 100952, Control_c, 2, 11, 74
7, 100976, Control_c, 2, 11, 75
7, 101001, Control_c, 2, 11, 76
7, 101025, Control_c, 2, 11, 77
7, 101049, Control_c, 2, 11, 78
7, 101073, Control_c, 2, 11, 79
7, 101098, Control_c, 2, 11, 80
7, 101122, Control_c, 2, 11, 81
7, 101146, Control_c, 2, 11, 82
7, 101171, Control_c, 2, 11, 83
7, 101195, Control_c, 2, 11, 84
7, 101219, Control_c, 2, 11, 85
7, 101244, Control_c, 2, 11, 86
7, 101268, Control_c, 2, 11, 87
7, 101292, Control_c, 2, 11, 88
7, 101316, Control_c, 2, 11, 89
7, 101341, Control_c, 2, 11, 90
7, 101365, Control_c, 2, 11, 91
7, 101389, Control_c, 2, 11, 92
7, 101414, Control_c, 2, 11, 93
7, 101438, Control_c, 2, 11, 94
7, 101462, Control_c, 2, 11, 95
7, 101487, Control_c, 2, 11, 96
7, 101511, Control_c, 2, 11, 97
7, 101535, Control_c, 2, 11, 98
7, 101559, Control_c, 2, 11, 99
7, 101584, Control_c, 2, 11, 100
7, 101608, Control_c, 2, 11, 101
7, 101632, Control_c, 2, 11, 102
7, 101657, Control_c, 2, 11, 103
7, 101681, Control_c, 2, 11, 104
7, 101705, Control_c, 2, 11, 105
7, 101730, Control_c, 2, 11, 106
7, 101754, Control_c, 2, 11, 107
7, 101778, Control_c, 2, 11, 108
7, 101803, Control_c, 2, 11, 109
7, 101827, Control_c, 2, 11, 110
7, 101851, Control_c, 2, 11, 111
7, 101867, Note_on_c, 2, 77, 0
7, 101875, Control_c, 2, 11, 112
7, 101880, Note_on_c, 2, 76, 84
7, 101900, Control_c, 2, 11, 113
7, 101924, Control_c, 2, 11, 114
7, 101939, Note_on_c, 2, 76, 0
7, 101940, Note_on_c, 2, 75, 84
7, 101948, Control_c, 2, 11, 115
7, 101973, Control_c, 2, 11, 116
7, 101997, Control_c, 2, 11, 117
7, 101999, Note_on_c, 2, 75, 0
7, 102000, Note_on_c, 2, 76, 84
7, 102021, Control_c, 2, 11, 118
7, 102044, Note_on_c, 2, 76, 0
7, 102046, Control_c, 2, 11, 119
7, 102060, Note_on_c, 2, 76, 84
7, 102060, Note_on_c, 2, 64, 84
7, 102070, Control_c, 2, 11, 120
7, 102094, Control_c, 2, 11, 121
7, 102104, Note_on_c, 2, 76, 0
7, 102104, Note_on_c, 2, 64, 0
7, 102118, Control_c, 2, 11, 122
7, 102120, Note_on_c, 2, 78, 84
7, 102120, Note_on_c, 2, 66, 84
7, 102143, Control_c, 2, 11, 123
7, 102164, Note_on_c, 2, 78, 0
7, 102164, Note_on_c, 2, 66, 0
7, 102167, Control_c, 2, 11, 124
7, 102180, Note_on_c, 2, 80, 84
7, 102180, Note_on_c, 2, 68, 84
7, 102191, Control_c, 2, 11, 125
7, 102216, Control_c, 2, 11, 127
7, 102224, Note_on_c, 2, 80, 0
7, 102224, Note_on_c, 2, 68, 0
7, 102240, Note_on_c, 2, 69, 84
7, 102240, Note_on_c, 2, 81, 84
7, 102293, Note_on_c, 2, 69, 0
7, 102293, Note_on_c, 2, 81, 0
7, 102300, Note_on_c, 2, 83, 84
7, 102300, Note_on_c, 2, 71, 84
7, 102353, Note_on_c, 2, 83, 0
7, 102353, Note_on_c, 2, 71, 0
7, 102360, Note_on_c, 2, 84, 84
7, 102360, Note_on_c, 2, 72, 84
7, 102413, Note_on_c, 2, 84, 0
7, 102413, Note_on_c, 2, 72, 0
7, 102420, Note_on_c, 2, 83, 84
7, 102420, Note_on_c, 2, 71, 84
7, 102473, Note_on_c, 2, 83, 0
7, 102473, Note_on_c, 2, 71, 0
7, 102480, Note_on_c, 2, 81, 84
7, 102480, Note_on_c, 2, 69, 84
7, 102533, Note_on_c, 2, 81, 0
7, 102533, Note_on_c, 2, 69, 0
7, 102540, Note_on_c, 2, 84, 84
7, 102540, Note_on_c, 2, 72, 84
7, 102593, Note_on_c, 2, 84, 0
7, 102593, Note_on_c, 2, 72, 0
7, 102600, Note_on_c, 2, 83, 84
7, 102600, Note_on_c, 2, 71, 84
7, 102653, Note_on_c, 2, 83, 0
7, 102653, Note_on_c, 2, 71, 0
7, 102660, Note_on_c, 2, 81, 84
7, 102660, Note_on_c, 2, 69, 84
7, 102713, Note_on_c, 2, 81, 0
7, 102713, Note_on_c, 2, 69, 0
7, 102720, Note_on_c, 2, 76, 84
7, 102720, Note_on_c, 2, 64, 84
7, 102773, Note_on_c, 2, 76, 0
7, 102773, Note_on_c, 2, 64, 0
7, 102780, Note_on_c, 2, 66, 84
7, 102780, Note_on_c, 2, 78, 84
7, 102833, Note_on_c, 2, 66, 0
7, 102833, Note_on_c, 2, 78, 0
7, 102840, Note_on_c, 2, 80, 84
7, 102840, Note_on_c, 2, 68, 84
7, 102893, Note_on_c, 2, 80, 0
7, 102893, Note_on_c, 2, 68, 0
7, 102900, Note_on_c, 2, 69, 84
7, 102900, Note_on_c, 2, 81, 84
7, 102953, Note_on_c, 2, 69, 0
7, 102953, Note_on_c, 2, 81, 0
7, 102960, Note_on_c, 2, 83, 84
7, 102960, Note_on_c, 2, 71, 84
7, 103013, Note_on_c, 2, 83, 0
7, 103013, Note_on_c, 2, 71, 0
7, 103020, Note_on_c, 2, 72, 84
7, 103073, Note_on_c, 2, 72, 0
7, 103080, Note_on_c, 2, 74, 84
7, 103133, Note_on_c, 2, 74, 0
7, 103140, Note_on_c, 2, 76, 84
7, 103193, Note_on_c, 2, 76, 0
7, 103200, Note_on_c, 2, 74, 84
7, 103253, Note_on_c, 2, 74, 0
7, 103260, Note_on_c, 2, 71, 84
7, 103313, Note_on_c, 2, 71, 0
7, 103320, Note_on_c, 2, 72, 84
7, 103373, Note_on_c, 2, 72, 0
7, 103380, Note_on_c, 2, 74, 84
7, 103433, Note_on_c, 2, 74, 0
7, 103440, Note_on_c, 2, 76, 84
7, 103493, Note_on_c, 2, 76, 0
7, 103500, Note_on_c, 2, 74, 84
7, 103553, Note_on_c, 2, 74, 0
7, 103560, Note_on_c, 2, 72, 84
7, 103613, Note_on_c, 2, 72, 0
7, 103620, Note_on_c, 2, 71, 84
7, 103673, Note_on_c, 2, 71, 0
7, 103680, Note_on_c, 2, 72, 84
7, 103733, Note_on_c, 2, 72, 0
7, 103740, Note_on_c, 2, 71, 84
7, 103793, Note_on_c, 2, 71, 0
7, 103800, Note_on_c, 2, 72, 84
7, 103853, Note_on_c, 2, 72, 0
7, 103860, Note_on_c, 2, 74, 84
7, 103913, Note_on_c, 2, 74, 0
7, 103920, Note_on_c, 2, 76, 84
7, 103973, Note_on_c, 2, 76, 0
7, 103980, Note_on_c, 2, 64, 84
7, 103980, Note_on_c, 2, 76, 84
7, 104033, Note_on_c, 2, 64, 0
7, 104033, Note_on_c, 2, 76, 0
7, 104040, Note_on_c, 2, 78, 84
7, 104040, Note_on_c, 2, 66, 84
7, 104093, Note_on_c, 2, 78, 0
7, 104093, Note_on_c, 2, 66, 0
7, 104100, Note_on_c, 2, 80, 84
7, 104100, Note_on_c, 2, 68, 84
7, 104153, Note_on_c, 2, 80, 0
7, 104153, Note_on_c, 2, 68, 0
7, 104160, Note_on_c, 2, 81, 84
7, 104160, Note_on_c, 2, 69, 84
7, 104213, Note_on_c, 2, 81, 0
7, 104213, Note_on_c, 2, 69, 0
7, 104220, Note_on_c, 2, 71, 84
7, 104220, Note_on_c, 2, 83, 84
7, 104273, Note_on_c, 2, 71, 0
7, 104273, Note_on_c, 2, 83, 0
7, 104280, Note_on_c, 2, 84, 84
7, 104280, Note_on_c, 2, 72, 84
7, 104333, Note_on_c, 2, 84, 0
7, 104333, Note_on_c, 2, 72, 0
7, 104340, Note_on_c, 2, 71, 84
7, 104340, Note_on_c, 2, 83, 84
7, 104393, Note_on_c, 2, 71, 0
7, 104393, Note_on_c, 2, 83, 0
7, 104400, Note_on_c, 2, 81, 84
7, 104400, Note_on_c, 2, 69, 84
7, 104453, Note_on_c, 2, 81, 0
7, 104453, Note_on_c, 2, 69, 0
7, 104460, Note_on_c, 2, 72, 84
7, 104460, Note_on_c, 2, 84, 84
7, 104513, Note_on_c, 2, 72, 0
7, 104513, Note_on_c, 2, 84, 0
7, 104520, Note_on_c, 2, 71, 84
7, 104520, Note_on_c, 2, 83, 84
7, 104573, Note_on_c, 2, 71, 0
7, 104573, Note_on_c, 2, 83, 0
7, 104580, Note_on_c, 2, 69, 84
7, 104580, Note_on_c, 2, 81, 84
7, 104633, Note_on_c, 2, 69, 0
7, 104633, Note_on_c, 2, 81, 0
7, 104640, Note_on_c, 2, 76, 84
7, 104693, Note_on_c, 2, 76, 0
7, 104700, Note_on_c, 2, 78, 84
7, 104753, Note_on_c, 2, 78, 0
7, 104760, Note_on_c, 2, 80, 84
7, 104813, Note_on_c, 2, 80, 0
7, 104820, Note_on_c, 2, 81, 84
7, 104873, Note_on_c, 2, 81, 0
7, 104880, Note_on_c, 2, 83, 84
7, 104933, Note_on_c, 2, 83, 0
7, 104940, Note_on_c, 2, 72, 84
7, 104993, Note_on_c, 2, 72, 0
7, 105000, Note_on_c, 2, 74, 84
7, 105053, Note_on_c, 2, 74, 0
7, 105060, Note_on_c, 2, 76, 84
7, 105113, Note_on_c, 2, 76, 0
7, 105120, Note_on_c, 2, 74, 84
7, 105173, Note_on_c, 2, 74, 0
7, 105180, Note_on_c, 2, 71, 84
7, 105233, Note_on_c, 2, 71, 0
7, 105240, Note_on_c, 2, 72, 84
7, 105293, Note_on_c, 2, 72, 0
7, 105300, Note_on_c, 2, 74, 84
7, 105353, Note_on_c, 2, 74, 0
7, 105360, Note_on_c, 2, 76, 84
7, 105413, Note_on_c, 2, 76, 0
7, 105420, Note_on_c, 2, 74, 84
7, 105473, Note_on_c, 2, 74, 0
7, 105480, Note_on_c, 2, 72, 84
7, 105533, Note_on_c, 2, 72, 0
7, 105540, Note_on_c, 2, 71, 84
7, 105593, Note_on_c, 2, 71, 0
7, 105600, Note_on_c, 2, 69, 84
7, 105839, Note_on_c, 2, 69, 0
7, 106080, Note_on_c, 2, 76, 52
7, 106307, Note_on_c, 2, 76, 0
7, 106320, Note_on_c, 2, 78, 52
7, 106320, Note_on_c, 2, 76, 52
7, 106409, Note_on_c, 2, 78, 0
7, 106409, Note_on_c, 2, 76, 0
7, 106440, Note_on_c, 2, 76, 52
7, 106440, Note_on_c, 2, 80, 52
7, 106529, Note_on_c, 2, 76, 0
7, 106529, Note_on_c, 2, 80, 0
7, 106560, Note_on_c, 2, 81, 52
7, 106560, Note_on_c, 2, 76, 52
7, 106679, Note_on_c, 2, 81, 0
7, 106679, Note_on_c, 2, 76, 0
7, 111360, Control_c, 2, 11, 96
7, 111600, Note_on_c, 2, 76, 68
7, 111600, Control_c, 2, 11, 96
7, 111600, Note_on_c, 2, 79, 68
7, 111654, Control_c, 2, 11, 97
7, 111708, Control_c, 2, 11, 98
7, 111763, Control_c, 2, 11, 99
7, 111817, Control_c, 2, 11, 100
7, 111871, Control_c, 2, 11, 101
7, 111925, Control_c, 2, 11, 102
7, 111979, Control_c, 2, 11, 103
7, 112034, Control_c, 2, 11, 104
7, 112088, Control_c, 2, 11, 105
7, 112142, Control_c, 2, 11, 106
7, 112196, Control_c, 2, 11, 107
7, 112250, Control_c, 2, 11, 108
7, 112305, Control_c, 2, 11, 109
7, 112359, Control_c, 2, 11, 110
7, 112413, Control_c, 2, 11, 111
7, 112467, Control_c, 2, 11, 112
7, 112521, Control_c, 2, 11, 113
7, 112559, Note_on_c, 2, 76, 0
7, 112559, Note_on_c, 2, 79, 0
7, 112560, Note_on_c, 2, 78, 68
7, 112560, Note_on_c, 2, 74, 68
7, 112575, Control_c, 2, 11, 114
7, 112630, Control_c, 2, 11, 115
7, 112679, Note_on_c, 2, 78, 0
7, 112679, Note_on_c, 2, 74, 0
7, 112684, Control_c, 2, 11, 116
7, 117600, Control_c, 2, 11, 127
7, 118080, Note_on_c, 2, 83, 84
7, 118080, Note_on_c, 2, 74, 84
7, 118313, Note_on_c, 2, 83, 0
7, 118313, Note_on_c, 2, 74, 0
7, 118320, Note_on_c, 2, 72, 84
7, 118320, Note_on_c, 2, 81, 84
7, 118409, Note_on_c, 2, 72, 0
7, 118409, Note_on_c, 2, 81, 0
7, 118440, Note_on_c, 2, 83, 84
7, 118440, Note_on_c, 2, 74, 84
7, 118529, Note_on_c, 2, 83, 0
7, 118529, Note_on_c, 2, 74, 0
7, 118560, Note_on_c, 2, 84, 84
7, 118560, Note_on_c, 2, 76, 84
7, 118679, Note_on_c, 2, 84, 0
7, 118679, Note_on_c, 2, 76, 0
7, 120000, Note_on_c, 2, 74, 84
7, 120000, Note_on_c, 2, 83, 84
7, 120233, Note_on_c, 2, 74, 0
7, 120233, Note_on_c, 2, 83, 0
7, 120240, Note_on_c, 2, 81, 84
7, 120240, Note_on_c, 2, 72, 84
7, 120329, Note_on_c, 2, 81, 0
7, 120329, Note_on_c, 2, 72, 0
7, 120360, Note_on_c, 2, 74, 84
7, 120360, Note_on_c, 2, 83, 84
7, 120449, Note_on_c, 2, 74, 0
7, 120449, Note_on_c, 2, 83, 0
7, 120480, Note_on_c, 2, 84, 84
7, 120480, Note_on_c, 2, 76, 84
7, 120599, Note_on_c, 2, 84, 0
7, 120599, Note_on_c, 2, 76, 0
7, 121440, Note_on_c, 2, 80, 52
7, 121673, Note_on_c, 2, 80, 0
7, 121680, Note_on_c, 2, 78, 52
7, 121769, Note_on_c, 2, 78, 0
7, 121800, Note_on_c, 2, 80, 52
7, 121889, Note_on_c, 2, 80, 0
7, 121920, Note_on_c, 2, 81, 44
7, 122153, Note_on_c, 2, 81, 0
7, 122160, Note_on_c, 2, 81, 44
7, 122249, Note_on_c, 2, 81, 0
7, 122280, Note_on_c, 2, 81, 44
7, 122369, Note_on_c, 2, 81, 0
7, 122400, Note_on_c, 2, 80, 44
7, 122609, Note_on_c, 2, 80, 0
7, 122640, Note_on_c, 2, 80, 44
7, 122849, Note_on_c, 2, 80, 0
7, 122880, Note_on_c, 2, 71, 44
7, 123113, Note_on_c, 2, 71, 0
7, 123120, Note_on_c, 2, 71, 44
7, 123209, Note_on_c, 2, 71, 0
7, 123240, Note_on_c, 2, 71, 44
7, 123329, Note_on_c, 2, 71, 0
7, 123360, Note_on_c, 2, 72, 44
7, 123569, Note_on_c, 2, 72, 0
7, 123600, Note_on_c, 2, 72, 44
7, 123809, Note_on_c, 2, 72, 0
7, 125760, Note_on_c, 2, 79, 44
7, 125993, Note_on_c, 2, 79, 0
7, 126000, Note_on_c, 2, 79, 44
7, 126089, Note_on_c, 2, 79, 0
7, 126120, Note_on_c, 2, 81, 44
7, 126209, Note_on_c, 2, 81, 0
7, 126240, Note_on_c, 2, 83, 44
7, 126449, Note_on_c, 2, 83, 0
7, 126480, Note_on_c, 2, 83, 44
7, 126689, Note_on_c, 2, 83, 0
7, 126720, Note_on_c, 2, 74, 44
7, 126953, Note_on_c, 2, 74, 0
7, 126960, Note_on_c, 2, 74, 44
7, 127049, Note_on_c, 2, 74, 0
7, 127080, Note_on_c, 2, 74, 44
7, 127169, Note_on_c, 2, 74, 0
7, 127200, Note_on_c, 2, 73, 44
7, 127409, Note_on_c, 2, 73, 0
7, 127440, Note_on_c, 2, 72, 44
7, 127649, Note_on_c, 2, 72, 0
7, 129600, Note_on_c, 2, 76, 44
7, 129833, Note_on_c, 2, 76, 0
7, 129840, Note_on_c, 2, 76, 44
7, 129840, Note_on_c, 2, 78, 44
7, 129929, Note_on_c, 2, 76, 0
7, 129929, Note_on_c, 2, 78, 0
7, 129960, Note_on_c, 2, 80, 44
7, 129960, Note_on_c, 2, 76, 44
7, 130049, Note_on_c, 2, 80, 0
7, 130049, Note_on_c, 2, 76, 0
7, 130080, Note_on_c, 2, 76, 44
7, 130080, Note_on_c, 2, 81, 44
7, 130319, Note_on_c, 2, 76, 0
7, 130319, Note_on_c, 2, 81, 0
7, 132000, Control_c, 2, 11, 127
7, 132000, Note_on_c, 2, 76, 76
7, 132000, Note_on_c, 2, 72, 76
7, 132020, Control_c, 2, 11, 125
7, 132040, Control_c, 2, 11, 124
7, 132060, Control_c, 2, 11, 122
7, 132080, Control_c, 2, 11, 120
7, 132100, Control_c, 2, 11, 118
7, 132120, Control_c, 2, 11, 117
7, 132140, Control_c, 2, 11, 115
7, 132160, Control_c, 2, 11, 113
7, 132180, Control_c, 2, 11, 111
7, 132200, Control_c, 2, 11, 110
7, 132220, Control_c, 2, 11, 108
7, 132240, Control_c, 2, 11, 106
7, 132260, Control_c, 2, 11, 104
7, 132280, Control_c, 2, 11, 103
7, 132300, Control_c, 2, 11, 101
7, 132320, Control_c, 2, 11, 99
7, 132340, Control_c, 2, 11, 97
7, 132360, Control_c, 2, 11, 96
7, 132380, Control_c, 2, 11, 94
7, 132400, Control_c, 2, 11, 92
7, 132420, Control_c, 2, 11, 90
7, 132440, Control_c, 2, 11, 89
7, 132460, Control_c, 2, 11, 87
7, 132480, Control_c, 2, 11, 85
7, 132500, Control_c, 2, 11, 83
7, 132520, Control_c, 2, 11, 82
7, 132540, Control_c, 2, 11, 80
7, 132560, Control_c, 2, 11, 78
7, 132580, Control_c, 2, 11, 76
7, 132600, Control_c, 2, 11, 75
7, 132620, Control_c, 2, 11, 73
7, 132640, Control_c, 2, 11, 71
7, 132660, Control_c, 2, 11, 69
7, 132680, Control_c, 2, 11, 68
7, 132700, Control_c, 2, 11, 66
7, 132720, Control_c, 2, 11, 64
7, 133079, Note_on_c, 2, 76, 0
7, 133079, Note_on_c, 2, 72, 0
7, 133440, Control_c, 2, 11, 127
7, 133440, End_track
8, 0, Start_track
8, 0, Title_t, "Clarinet in A"
8, 0, MIDI_port, 0
8, 0, Program_c, 3, 71
8, 0, Control_c, 3, 7, 84
8, 0, Control_c, 3, 11, 127
8, 0, Control_c, 3, 10, 75
8, 0, Note_on_c, 3, 69, 76
8, 0, Note_on_c, 3, 64, 76
8, 0, Control_c, 3, 11, 127
8, 20, Control_c, 3, 11, 125
8, 40, Control_c, 3, 11, 124
8, 60, Control_c, 3, 11, 122
8, 80, Control_c, 3, 11, 120
8, 100, Control_c, 3, 11, 118
8, 120, Control_c, 3, 11, 117
8, 140, Control_c, 3, 11, 115
8, 160, Control_c, 3, 11, 113
8, 180, Control_c, 3, 11, 111
8, 200, Control_c, 3, 11, 110
8, 220, Control_c, 3, 11, 108
8, 240, Control_c, 3, 11, 106
8, 260, Control_c, 3, 11, 104
8, 280, Control_c, 3, 11, 103
8, 300, Control_c, 3, 11, 101
8, 320, Control_c, 3, 11, 99
8, 340, Control_c, 3, 11, 97
8, 360, Control_c, 3, 11, 96
8, 380, Control_c, 3, 11, 94
8, 400, Control_c, 3, 11, 92
8, 420, Control_c, 3, 11, 90
8, 440, Control_c, 3, 11, 89
8, 460, Control_c, 3, 11, 87
8, 480, Control_c, 3, 11, 85
8, 500, Control_c, 3, 11, 83
8, 520, Control_c, 3, 11, 82
8, 540, Control_c, 3, 11, 80
8, 560, Control_c, 3, 11, 78
8, 580, Control_c, 3, 11, 76
8, 600, Control_c, 3, 11, 75
8, 620, Control_c, 3, 11, 73
8, 640, Control_c, 3, 11, 71
8, 660, Control_c, 3, 11, 69
8, 680, Control_c, 3, 11, 68
8, 700, Control_c, 3, 11, 66
8, 720, Control_c, 3, 11, 64
8, 1199, Note_on_c, 3, 69, 0
8, 1199, Note_on_c, 3, 64, 0
8, 1440, Control_c, 3, 11, 127
8, 35520, Note_on_c, 3, 76, 84
8, 35520, Note_on_c, 3, 64, 84
8, 35751, Note_on_c, 3, 76, 0
8, 35751, Note_on_c, 3, 64, 0
8, 35760, Note_on_c, 3, 76, 84
8, 35760, Note_on_c, 3, 64, 84
8, 35849, Note_on_c, 3, 76, 0
8, 35849, Note_on_c, 3, 64, 0
8, 35880, Note_on_c, 3, 76, 84
8, 35880, Note_on_c, 3, 64, 84
8, 35969, Note_on_c, 3, 76, 0
8, 35969, Note_on_c, 3, 64, 0
8, 36000, Note_on_c, 3, 64, 84
8, 36000, Note_on_c, 3, 76, 84
8, 36209, Note_on_c, 3, 64, 0
8, 36209, Note_on_c, 3, 76, 0
8, 36240, Note_on_c, 3, 76, 84
8, 36240, Note_on_c, 3, 64, 84
8, 36449, Note_on_c, 3, 76, 0
8, 36449, Note_on_c, 3, 64, 0
8, 36480, Note_on_c, 3, 64, 84
8, 36480, Note_on_c, 3, 76, 84
8, 36711, Note_on_c, 3, 64, 0
8, 36711, Note_on_c, 3, 76, 0
8, 36720, Note_on_c, 3, 76, 84
8, 36720, Note_on_c, 3, 64, 84
8, 36809, Note_on_c, 3, 76, 0
8, 36809, Note_on_c, 3, 64, 0
8, 36840, Note_on_c, 3, 64, 84
8, 36840, Note_on_c, 3, 76, 84
8, 36929, Note_on_c, 3, 64, 0
8, 36929, Note_on_c, 3, 76, 0
8, 36960, Note_on_c, 3, 64, 84
8, 36960, Note_on_c, 3, 76, 84
8, 37169, Note_on_c, 3, 64, 0
8, 37169, Note_on_c, 3, 76, 0
8, 37200, Note_on_c, 3, 76, 84
8, 37200, Note_on_c, 3, 64, 84
8, 37409, Note_on_c, 3, 76, 0
8, 37409, Note_on_c, 3, 64, 0
8, 37440, Note_on_c, 3, 64, 84
8, 37440, Note_on_c, 3, 76, 84
8, 37671, Note_on_c, 3, 64, 0
8, 37671, Note_on_c, 3, 76, 0
8, 37680, Note_on_c, 3, 76, 84
8, 37680, Note_on_c, 3, 64, 84
8, 37769, Note_on_c, 3, 76, 0
8, 37769, Note_on_c, 3, 64, 0
8, 37800, Note_on_c, 3, 78, 84
8, 37800, Note_on_c, 3, 66, 84
8, 37889, Note_on_c, 3, 78, 0
8, 37889, Note_on_c, 3, 66, 0
8, 37920, Note_on_c, 3, 79, 84
8, 37920, Note_on_c, 3, 67, 84
8, 38129, Note_on_c, 3, 79, 0
8, 38129, Note_on_c, 3, 67, 0
8, 38160, Note_on_c, 3, 79, 84
8, 38160, Note_on_c, 3, 67, 84
8, 38369, Note_on_c, 3, 79, 0
8, 38369, Note_on_c, 3, 67, 0
8, 38400, Note_on_c, 3, 79, 84
8, 38400, Note_on_c, 3, 67, 84
8, 38631, Note_on_c, 3, 79, 0
8, 38631, Note_on_c, 3, 67, 0
8, 38640, Note_on_c, 3, 67, 84
8, 38640, Note_on_c, 3, 79, 84
8, 38729, Note_on_c, 3, 67, 0
8, 38729, Note_on_c, 3, 79, 0
8, 38760, Note_on_c, 3, 67, 84
8, 38760, Note_on_c, 3, 79, 84
8, 38849, Note_on_c, 3, 67, 0
8, 38849, Note_on_c, 3, 79, 0
8, 38880, Note_on_c, 3, 67, 84
8, 38880, Note_on_c, 3, 79, 84
8, 39119, Note_on_c, 3, 67, 0
8, 39119, Note_on_c, 3, 79, 0
8, 39360, Note_on_c, 3, 67, 84
8, 39360, Note_on_c, 3, 79, 84
8, 39591, Note_on_c, 3, 67, 0
8, 39591, Note_on_c, 3, 79, 0
8, 39600, Note_on_c, 3, 67, 84
8, 39600, Note_on_c, 3, 79, 84
8, 39689, Note_on_c, 3, 67, 0
8, 39689, Note_on_c, 3, 79, 0
8, 39720, Note_on_c, 3, 69, 84
8, 39720, Note_on_c, 3, 81, 84
8, 39809, Note_on_c, 3, 69, 0
8, 39809, Note_on_c, 3, 81, 0
8, 39840, Note_on_c, 3, 83, 84
8, 39840, Note_on_c, 3, 71, 84
8, 40049, Note_on_c, 3, 83, 0
8, 40049, Note_on_c, 3, 71, 0
8, 40080, Note_on_c, 3, 71, 84
8, 40080, Note_on_c, 3, 83, 84
8, 40289, Note_on_c, 3, 71, 0
8, 40289, Note_on_c, 3, 83, 0
8, 40320, Note_on_c, 3, 78, 84
8, 40320, Note_on_c, 3, 66, 84
8, 40551, Note_on_c, 3, 78, 0
8, 40551, Note_on_c, 3, 66, 0
8, 40560, Note_on_c, 3, 78, 84
8, 40560, Note_on_c, 3, 66, 84
8, 40649, Note_on_c, 3, 78, 0
8, 40649, Note_on_c, 3, 66, 0
8, 40680, Note_on_c, 3, 68, 84
8, 40680, Note_on_c, 3, 80, 84
8, 40769, Note_on_c, 3, 68, 0
8, 40769, Note_on_c, 3, 80, 0
8, 40800, Note_on_c, 3, 81, 84
8, 40800, Note_on_c, 3, 69, 84
8, 41009, Note_on_c, 3, 81, 0
8, 41009, Note_on_c, 3, 69, 0
8, 41040, Note_on_c, 3, 69, 84
8, 41040, Note_on_c, 3, 81, 84
8, 41249, Note_on_c, 3, 69, 0
8, 41249, Note_on_c, 3, 81, 0
8, 41280, Note_on_c, 3, 64, 84
8, 41280, Note_on_c, 3, 76, 84
8, 41511, Note_on_c, 3, 64, 0
8, 41511, Note_on_c, 3, 76, 0
8, 41520, Note_on_c, 3, 64, 84
8, 41520, Note_on_c, 3, 76, 84
8, 41609, Note_on_c, 3, 64, 0
8, 41609, Note_on_c, 3, 76, 0
8, 41640, Note_on_c, 3, 64, 84
8, 41640, Note_on_c, 3, 76, 84
8, 41729, Note_on_c, 3, 64, 0
8, 41729, Note_on_c, 3, 76, 0
8, 41760, Note_on_c, 3, 76, 84
8, 41760, Note_on_c, 3, 64, 84
8, 41969, Note_on_c, 3, 76, 0
8, 41969, Note_on_c, 3, 64, 0
8, 42000, Note_on_c, 3, 64, 84
8, 42000, Note_on_c, 3, 76, 84
8, 42209, Note_on_c, 3, 64, 0
8, 42209, Note_on_c, 3, 76, 0
8, 42240, Note_on_c, 3, 64, 84
8, 42240, Note_on_c, 3, 76, 84
8, 42471, Note_on_c, 3, 64, 0
8, 42471, Note_on_c, 3, 76, 0
8, 42480, Note_on_c, 3, 66, 84
8, 42480, Note_on_c, 3, 78, 84
8, 42569, Note_on_c, 3, 66, 0
8, 42569, Note_on_c, 3, 78, 0
8, 42600, Note_on_c, 3, 68, 84
8, 42600, Note_on_c, 3, 80, 84
8, 42689, Note_on_c, 3, 68, 0
8, 42689, Note_on_c, 3, 80, 0
8, 42720, Note_on_c, 3, 69, 84
8, 42720, Note_on_c, 3, 81, 84
8, 42959, Note_on_c, 3, 69, 0
8, 42959, Note_on_c, 3, 81, 0
8, 43200, Note_on_c, 3, 67, 84
8, 43200, Note_on_c, 3, 79, 84
8, 43253, Control_c, 3, 11, 126
8, 43307, Control_c, 3, 11, 125
8, 43360, Control_c, 3, 11, 124
8, 43413, Control_c, 3, 11, 123
8, 43431, Note_on_c, 3, 67, 0
8, 43431, Note_on_c, 3, 79, 0
8, 43440, Note_on_c, 3, 67, 84
8, 43440, Note_on_c, 3, 79, 84
8, 43467, Control_c, 3, 11, 122
8, 43520, Control_c, 3, 11, 121
8, 43529, Note_on_c, 3, 67, 0
8, 43529, Note_on_c, 3, 79, 0
8, 43560, Note_on_c, 3, 69, 84
8, 43560, Note_on_c, 3, 81, 84
8, 43573, Control_c, 3, 11, 120
8, 43627, Control_c, 3, 11, 119
8, 43649, Note_on_c, 3, 69, 0
8, 43649, Note_on_c, 3, 81, 0
8, 43680, Control_c, 3, 11, 118
8, 43680, Note_on_c, 3, 83, 84
8, 43680, Note_on_c, 3, 71, 84
8, 43733, Control_c, 3, 11, 117
8, 43787, Control_c, 3, 11, 116
8, 43840, Control_c, 3, 11, 115
8, 43889, Note_on_c, 3, 83, 0
8, 43889, Note_on_c, 3, 71, 0
8, 43893, Control_c, 3, 11, 114
8, 43920, Note_on_c, 3, 83, 84
8, 43920, Note_on_c, 3, 71, 84
8, 43947, Control_c, 3, 11, 113
8, 44000, Control_c, 3, 11, 112
8, 44053, Control_c, 3, 11, 111
8, 44107, Control_c, 3, 11, 110
8, 44129, Note_on_c, 3, 83, 0
8, 44129, Note_on_c, 3, 71, 0
8, 44160, Control_c, 3, 11, 109
8, 44160, Note_on_c, 3, 66, 84
8, 44160, Note_on_c, 3, 78, 84
8, 44213, Control_c, 3, 11, 108
8, 44267, Control_c, 3, 11, 107
8, 44320, Control_c, 3, 11, 106
8, 44373, Control_c, 3, 11, 105
8, 44391, Note_on_c, 3, 66, 0
8, 44391, Note_on_c, 3, 78, 0
8, 44400, Note_on_c, 3, 78, 84
8, 44400, Note_on_c, 3, 66, 84
8, 44427, Control_c, 3, 11, 104
8, 44480, Control_c, 3, 11, 103
8, 44489, Note_on_c, 3, 78, 0
8, 44489, Note_on_c, 3, 66, 0
8, 44520, Note_on_c, 3, 80, 84
8, 44520, Note_on_c, 3, 68, 84
8, 44533, Control_c, 3, 11, 102
8, 44587, Control_c, 3, 11, 101
8, 44609, Note_on_c, 3, 80, 0
8, 44609, Note_on_c, 3, 68, 0
8, 44640, Note_on_c, 3, 81, 84
8, 44640, Control_c, 3, 11, 100
8, 44640, Note_on_c, 3, 69, 84
8, 44693, Control_c, 3, 11, 99
8, 44747, Control_c, 3, 11, 98
8, 44800, Control_c, 3, 11, 97
8, 44849, Note_on_c, 3, 81, 0
8, 44849, Note_on_c, 3, 69, 0
8, 44853, Control_c, 3, 11, 96
8, 44880, Note_on_c, 3, 81, 84
8, 44880, Note_on_c, 3, 69, 84
8, 44907, Control_c, 3, 11, 95
8, 44960, Control_c, 3, 11, 94
8, 45013, Control_c, 3, 11, 93
8, 45067, Control_c, 3, 11, 92
8, 45089, Note_on_c, 3, 81, 0
8, 45089, Note_on_c, 3, 69, 0
8, 45120, Control_c, 3, 11, 91
8, 45120, Note_on_c, 3, 76, 84
8, 45120, Note_on_c, 3, 64, 84
8, 45173, Control_c, 3, 11, 90
8, 45227, Control_c, 3, 11, 89
8, 45280, Control_c, 3, 11, 88
8, 45333, Control_c, 3, 11, 87
8, 45351, Note_on_c, 3, 76, 0
8, 45351, Note_on_c, 3, 64, 0
8, 45360, Note_on_c, 3, 76, 84
8, 45360, Note_on_c, 3, 64, 84
8, 45387, Control_c, 3, 11, 86
8, 45440, Control_c, 3, 11, 85
8, 45449, Note_on_c, 3, 76, 0
8, 45449, Note_on_c, 3, 64, 0
8, 45480, Note_on_c, 3, 76, 84
8, 45480, Note_on_c, 3, 64, 84
8, 45493, Control_c, 3, 11, 84
8, 45547, Control_c, 3, 11, 83
8, 45569, Note_on_c, 3, 76, 0
8, 45569, Note_on_c, 3, 64, 0
8, 45600, Note_on_c, 3, 64, 84
8, 45600, Note_on_c, 3, 76, 84
8, 45600, Control_c, 3, 11, 82
8, 45653, Control_c, 3, 11, 81
8, 45707, Control_c, 3, 11, 80
8, 45760, Control_c, 3, 11, 79
8, 45809, Note_on_c, 3, 64, 0
8, 45809, Note_on_c, 3, 76, 0
8, 45813, Control_c, 3, 11, 78
8, 45840, Note_on_c, 3, 76, 84
8, 45840, Note_on_c, 3, 64, 84
8, 45867, Control_c, 3, 11, 77
8, 45920, Control_c, 3, 11, 76
8, 45973, Control_c, 3, 11, 75
8, 46027, Control_c, 3, 11, 74
8, 46049, Note_on_c, 3, 76, 0
8, 46049, Note_on_c, 3, 64, 0
8, 46080, Note_on_c, 3, 76, 84
8, 46080, Control_c, 3, 11, 73
8, 46080, Note_on_c, 3, 64, 84
8, 46133, Control_c, 3, 11, 72
8, 46187, Control_c, 3, 11, 71
8, 46240, Control_c, 3, 11, 70
8, 46293, Control_c, 3, 11, 69
8, 46311, Note_on_c, 3, 76, 0
8, 46311, Note_on_c, 3, 64, 0
8, 46320, Note_on_c, 3, 66, 84
8, 46320, Note_on_c, 3, 78, 84
8, 46347, Control_c, 3, 11, 68
8, 46400, Control_c, 3, 11, 67
8, 46409, Note_on_c, 3, 66, 0
8, 46409, Note_on_c, 3, 78, 0
8, 46440, Note_on_c, 3, 80, 84
8, 46440, Note_on_c, 3, 68, 84
8, 46453, Control_c, 3, 11, 66
8, 46507, Control_c, 3, 11, 65
8, 46529, Note_on_c, 3, 80, 0
8, 46529, Note_on_c, 3, 68, 0
8, 46560, Control_c, 3, 11, 64
8, 46560, Note_on_c, 3, 69, 84
8, 46560, Note_on_c, 3, 81, 84
8, 46799, Note_on_c, 3, 69, 0
8, 46799, Note_on_c, 3, 81, 0
8, 47040, Note_on_c, 3, 74, 84
8, 47040, Note_on_c, 3, 71, 84
8, 47271, Note_on_c, 3, 74, 0
8, 47271, Note_on_c, 3, 71, 0
8, 47280, Note_on_c, 3, 74, 84
8, 47280, Note_on_c, 3, 71, 84
8, 47369, Note_on_c, 3, 74, 0
8, 47369, Note_on_c, 3, 71, 0
8, 47400, Note_on_c, 3, 74, 84
8, 47400, Note_on_c, 3, 71, 84
8, 47489, Note_on_c, 3, 74, 0
8, 47489, Note_on_c, 3, 71, 0
8, 47520, Note_on_c, 3, 69, 84
8, 47520, Note_on_c, 3, 72, 84
8, 47759, Note_on_c, 3, 69, 0
8, 47759, Note_on_c, 3, 72, 0
8, 48000, Control_c, 3, 11, 127
8, 48240, Note_on_c, 3, 76, 48
8, 48719, Note_on_c, 3, 76, 0
8, 48720, Note_on_c, 3, 73, 48
8, 48959, Note_on_c, 3, 73, 0
8, 48960, Note_on_c, 3, 69, 48
8, 49199, Note_on_c, 3, 69, 0
8, 49200, Note_on_c, 3, 73, 48
8, 49318, Control_c, 3, 11, 96
8, 49427, Note_on_c, 3, 73, 0
8, 49440, Note_on_c, 3, 73, 68
8, 49679, Note_on_c, 3, 73, 0
8, 49680, Note_on_c, 3, 62, 68
8, 49680, Note_on_c, 3, 71, 68
8, 49680, Control_c, 3, 11, 96
8, 49734, Control_c, 3, 11, 97
8, 49788, Control_c, 3, 11, 98
8, 49843, Control_c, 3, 11, 99
8, 49897, Control_c, 3, 11, 100
8, 49951, Control_c, 3, 11, 101
8, 50005, Control_c, 3, 11, 102
8, 50059, Control_c, 3, 11, 103
8, 50114, Control_c, 3, 11, 104
8, 50159, Note_on_c, 3, 62, 0
8, 50159, Note_on_c, 3, 71, 0
8, 50160, Note_on_c, 3, 69, 68
8, 50160, Note_on_c, 3, 61, 68
8, 50168, Control_c, 3, 11, 105
8, 50222, Control_c, 3, 11, 106
8, 50276, Control_c, 3, 11, 107
8, 50330, Control_c, 3, 11, 108
8, 50385, Control_c, 3, 11, 109
8, 50399, Note_on_c, 3, 69, 0
8, 50399, Note_on_c, 3, 61, 0
8, 50400, Note_on_c, 3, 68, 68
8, 50400, Note_on_c, 3, 59, 68
8, 50439, Control_c, 3, 11, 110
8, 50493, Control_c, 3, 11, 111
8, 50547, Control_c, 3, 11, 112
8, 50601, Control_c, 3, 11, 113
8, 50639, Note_on_c, 3, 68, 0
8, 50639, Note_on_c, 3, 59, 0
8, 50640, Note_on_c, 3, 69, 68
8, 50640, Note_on_c, 3, 61, 68
8, 50655, Control_c, 3, 11, 114
8, 50710, Control_c, 3, 11, 115
8, 50764, Control_c, 3, 11, 116
8, 50818, Control_c, 3, 11, 117
8, 50872, Control_c, 3, 11, 118
8, 50879, Note_on_c, 3, 69, 0
8, 50879, Note_on_c, 3, 61, 0
8, 50880, Note_on_c, 3, 71, 68
8, 50880, Note_on_c, 3, 62, 68
8, 50926, Control_c, 3, 11, 119
8, 50981, Control_c, 3, 11, 120
8, 51035, Control_c, 3, 11, 121
8, 51089, Control_c, 3, 11, 122
8, 51119, Note_on_c, 3, 71, 0
8, 51119, Note_on_c, 3, 62, 0
8, 51120, Note_on_c, 3, 73, 68
8, 51120, Note_on_c, 3, 64, 68
8, 51143, Control_c, 3, 11, 123
8, 51197, Control_c, 3, 11, 124
8, 51252, Control_c, 3, 11, 125
8, 51306, Control_c, 3, 11, 127
8, 51359, Note_on_c, 3, 73, 0
8, 51359, Note_on_c, 3, 64, 0
8, 51360, Note_on_c, 3, 74, 68
8, 51360, Note_on_c, 3, 66, 68
8, 51599, Note_on_c, 3, 74, 0
8, 51599, Note_on_c, 3, 66, 0
8, 51600, Note_on_c, 3, 76, 68
8, 51600, Note_on_c, 3, 68, 68
8, 51600, Control_c, 3, 11, 127
8, 51623, Control_c, 3, 11, 126
8, 51646, Control_c, 3, 11, 125
8, 51670, Control_c, 3, 11, 124
8, 51693, Control_c, 3, 11, 123
8, 51716, Control_c, 3, 11, 122
8, 51739, Control_c, 3, 11, 121
8, 51763, Control_c, 3, 11, 120
8, 51786, Control_c, 3, 11, 119
8, 51809, Control_c, 3, 11, 118
8, 51832, Control_c, 3, 11, 117
8, 51839, Note_on_c, 3, 76, 0
8, 51839, Note_on_c, 3, 68, 0
8, 51840, Note_on_c, 3, 74, 68
8, 51840, Note_on_c, 3, 71, 68
8, 51855, Control_c, 3, 11, 116
8, 51879, Control_c, 3, 11, 115
8, 51902, Control_c, 3, 11, 114
8, 51925, Control_c, 3, 11, 113
8, 51948, Control_c, 3, 11, 112
8, 51972, Control_c, 3, 11, 111
8, 51995, Control_c, 3, 11, 110
8, 52018, Control_c, 3, 11, 109
8, 52041, Control_c, 3, 11, 108
8, 52065, Control_c, 3, 11, 107
8, 52079, Note_on_c, 3, 74, 0
8, 52079, Note_on_c, 3, 71, 0
8, 52080, Note_on_c, 3, 73, 68
8, 52080, Note_on_c, 3, 69, 68
8, 52088, Control_c, 3, 11, 106
8, 52111, Control_c, 3, 11, 105
8, 52134, Control_c, 3, 11, 104
8, 52157, Control_c, 3, 11, 103
8, 52181, Control_c, 3, 11, 102
8, 52199, Note_on_c, 3, 73, 0
8, 52199, Note_on_c, 3, 69, 0
8, 52200, Note_on_c, 3, 73, 68
8, 52200, Note_on_c, 3, 81, 68
8, 52204, Control_c, 3, 11, 101
8, 52227, Control_c, 3, 11, 100
8, 52250, Control_c, 3, 11, 99
8, 52274, Control_c, 3, 11, 98
8, 52297, Control_c, 3, 11, 96
8, 52307, Note_on_c, 3, 73, 0
8, 52307, Note_on_c, 3, 81, 0
8, 52320, Note_on_c, 3, 73, 68
8, 52320, Note_on_c, 3, 81, 68
8, 52559, Note_on_c, 3, 73, 0
8, 52559, Note_on_c, 3, 81, 0
8, 52560, Control_c, 3, 11, 96
8, 52560, Note_on_c, 3, 76, 68
8, 52560, Note_on_c, 3, 73, 68
8, 52606, Control_c, 3, 11, 97
8, 52653, Control_c, 3, 11, 98
8, 52699, Control_c, 3, 11, 99
8, 52746, Control_c, 3, 11, 100
8, 52792, Control_c, 3, 11, 101
8, 52799, Note_on_c, 3, 76, 0
8, 52799, Note_on_c, 3, 73, 0
8, 52800, Note_on_c, 3, 73, 68
8, 52800, Note_on_c, 3, 69, 68
8, 52839, Control_c, 3, 11, 102
8, 52885, Control_c, 3, 11, 103
8, 52932, Control_c, 3, 11, 104
8, 52978, Control_c, 3, 11, 105
8, 53025, Control_c, 3, 11, 106
8, 53039, Note_on_c, 3, 73, 0
8, 53039, Note_on_c, 3, 69, 0
8, 53040, Note_on_c, 3, 76, 68
8, 53040, Note_on_c, 3, 73, 68
8, 53071, Control_c, 3, 11, 107
8, 53117, Control_c, 3, 11, 108
8, 53164, Control_c, 3, 11, 109
8, 53210, Control_c, 3, 11, 110
8, 53257, Control_c, 3, 11, 111
8, 53267, Note_on_c, 3, 76, 0
8, 53267, Note_on_c, 3, 73, 0
8, 53280, Note_on_c, 3, 73, 68
8, 53280, Note_on_c, 3, 76, 68
8, 53303, Control_c, 3, 11, 112
8, 53350, Control_c, 3, 11, 113
8, 53396, Control_c, 3, 11, 114
8, 53443, Control_c, 3, 11, 115
8, 53489, Control_c, 3, 11, 116
8, 53519, Note_on_c, 3, 73, 0
8, 53519, Note_on_c, 3, 76, 0
8, 53520, Note_on_c, 3, 74, 68
8, 53520, Note_on_c, 3, 78, 68
8, 53535, Control_c, 3, 11, 117
8, 53582, Control_c, 3, 11, 118
8, 53628, Control_c, 3, 11, 119
8, 53675, Control_c, 3, 11, 120
8, 53721, Control_c, 3, 11, 121
8, 53768, Control_c, 3, 11, 122
8, 53814, Control_c, 3, 11, 123
8, 53861, Control_c, 3, 11, 124
8, 53907, Control_c, 3, 11, 125
8, 53954, Control_c, 3, 11, 127
8, 53999, Note_on_c, 3, 74, 0
8, 53999, Note_on_c, 3, 78, 0
8, 54000, Note_on_c, 3, 76, 68
8, 54000, Note_on_c, 3, 73, 68
8, 54227, Note_on_c, 3, 76, 0
8, 54227, Note_on_c, 3, 73, 0
8, 54240, Note_on_c, 3, 74, 68
8, 54240, Control_c, 3, 11, 127
8, 54240, Note_on_c, 3, 71, 68
8, 54271, Control_c, 3, 11, 126
8, 54302, Control_c, 3, 11, 125
8, 54333, Control_c, 3, 11, 124
8, 54364, Control_c, 3, 11, 123
8, 54395, Control_c, 3, 11, 122
8, 54426, Control_c, 3, 11, 121
8, 54457, Control_c, 3, 11, 120
8, 54479, Note_on_c, 3, 74, 0
8, 54479, Note_on_c, 3, 71, 0
8, 54480, Note_on_c, 3, 73, 68
8, 54480, Note_on_c, 3, 69, 68
8, 54488, Control_c, 3, 11, 119
8, 54519, Control_c, 3, 11, 118
8, 54550, Control_c, 3, 11, 117
8, 54581, Control_c, 3, 11, 116
8, 54612, Control_c, 3, 11, 115
8, 54643, Control_c, 3, 11, 114
8, 54674, Control_c, 3, 11, 113
8, 54705, Control_c, 3, 11, 112
8, 54719, Note_on_c, 3, 73, 0
8, 54719, Note_on_c, 3, 69, 0
8, 54720, Note_on_c, 3, 68, 68
8, 54720, Note_on_c, 3, 71, 68
8, 54735, Control_c, 3, 11, 111
8, 54766, Control_c, 3, 11, 110
8, 54797, Control_c, 3, 11, 109
8, 54828, Control_c, 3, 11, 108
8, 54859, Control_c, 3, 11, 107
8, 54890, Control_c, 3, 11, 106
8, 54921, Control_c, 3, 11, 105
8, 54952, Control_c, 3, 11, 104
8, 54959, Note_on_c, 3, 68, 0
8, 54959, Note_on_c, 3, 71, 0
8, 54960, Note_on_c, 3, 66, 68
8, 54960, Note_on_c, 3, 75, 68
8, 54983, Control_c, 3, 11, 103
8, 55014, Control_c, 3, 11, 102
8, 55045, Control_c, 3, 11, 101
8, 55076, Control_c, 3, 11, 100
8, 55107, Control_c, 3, 11, 99
8, 55138, Control_c, 3, 11, 98
8, 55169, Control_c, 3, 11, 96
8, 55199, Note_on_c, 3, 66, 0
8, 55199, Note_on_c, 3, 75, 0
8, 55200, Note_on_c, 3, 76, 68
8, 55200, Note_on_c, 3, 68, 68
8, 55667, Note_on_c, 3, 76, 0
8, 55667, Note_on_c, 3, 68, 0
8, 55680, Note_on_c, 3, 81, 68
8, 56027, Note_on_c, 3, 81, 0
8, 56040, Note_on_c, 3, 81, 68
8, 56147, Note_on_c, 3, 81, 0
8, 56160, Note_on_c, 3, 81, 68
8, 56239, Note_on_c, 3, 81, 0
8, 56240, Note_on_c, 3, 80, 68
8, 56307, Note_on_c, 3, 80, 0
8, 56320, Note_on_c, 3, 78, 68
8, 56379, Note_on_c, 3, 78, 0
8, 56400, Note_on_c, 3, 76, 68
8, 56459, Note_on_c, 3, 76, 0
8, 56480, Note_on_c, 3, 75, 68
8, 56539, Note_on_c, 3, 75, 0
8, 56560, Note_on_c, 3, 73, 68
8, 56619, Note_on_c, 3, 73, 0
8, 56640, Note_on_c, 3, 71, 68
8, 56879, Note_on_c, 3, 71, 0
8, 56880, Note_on_c, 3, 73, 68
8, 56987, Note_on_c, 3, 73, 0
8, 57000, Note_on_c, 3, 75, 68
8, 57089, Note_on_c, 3, 75, 0
8, 57120, Note_on_c, 3, 76, 68
8, 57439, Note_on_c, 3, 76, 0
8, 57440, Note_on_c, 3, 78, 68
8, 57519, Note_on_c, 3, 78, 0
8, 57520, Note_on_c, 3, 80, 68
8, 57587, Note_on_c, 3, 80, 0
8, 57600, Note_on_c, 3, 81, 68
8, 57947, Note_on_c, 3, 81, 0
8, 57960, Note_on_c, 3, 81, 68
8, 58067, Note_on_c, 3, 81, 0
8, 58080, Note_on_c, 3, 81, 68
8, 58159, Note_on_c, 3, 81, 0
8, 58160, Note_on_c, 3, 80, 68
8, 58227, Note_on_c, 3, 80, 0
8, 58240, Note_on_c, 3, 78, 68
8, 58299, Note_on_c, 3, 78, 0
8, 58320, Note_on_c, 3, 76, 68
8, 58379, Note_on_c, 3, 76, 0
8, 58400, Note_on_c, 3, 75, 68
8, 58459, Note_on_c, 3, 75, 0
8, 58480, Note_on_c, 3, 76, 68
8, 58539, Note_on_c, 3, 76, 0
8, 58560, Note_on_c, 3, 70, 68
8, 58560, Note_on_c, 3, 76, 68
8, 58622, Control_c, 3, 11, 97
8, 58684, Control_c, 3, 11, 98
8, 58746, Control_c, 3, 11, 99
8, 58808, Control_c, 3, 11, 100
8, 58870, Control_c, 3, 11, 101
8, 58932, Control_c, 3, 11, 102
8, 58994, Control_c, 3, 11, 103
8, 59039, Note_on_c, 3, 70, 0
8, 59040, Note_on_c, 3, 71, 68
8, 59055, Control_c, 3, 11, 104
8, 59117, Control_c, 3, 11, 105
8, 59179, Control_c, 3, 11, 106
8, 59241, Control_c, 3, 11, 107
8, 59279, Note_on_c, 3, 76, 0
8, 59280, Note_on_c, 3, 78, 68
8, 59303, Control_c, 3, 11, 108
8, 59365, Control_c, 3, 11, 109
8, 59399, Note_on_c, 3, 78, 0
8, 59400, Note_on_c, 3, 76, 68
8, 59427, Control_c, 3, 11, 110
8, 59489, Control_c, 3, 11, 111
8, 59507, Note_on_c, 3, 71, 0
8, 59507, Note_on_c, 3, 76, 0
8, 59520, Note_on_c, 3, 76, 68
8, 59520, Note_on_c, 3, 70, 68
8, 59551, Control_c, 3, 11, 112
8, 59613, Control_c, 3, 11, 113
8, 59675, Control_c, 3, 11, 114
8, 59737, Control_c, 3, 11, 115
8, 59799, Control_c, 3, 11, 116
8, 59861, Control_c, 3, 11, 117
8, 59923, Control_c, 3, 11, 118
8, 59985, Control_c, 3, 11, 119
8, 59999, Note_on_c, 3, 70, 0
8, 60000, Note_on_c, 3, 71, 68
8, 60046, Control_c, 3, 11, 120
8, 60108, Control_c, 3, 11, 121
8, 60170, Control_c, 3, 11, 122
8, 60232, Control_c, 3, 11, 123
8, 60239, Note_on_c, 3, 76, 0
8, 60240, Note_on_c, 3, 80, 68
8, 60294, Control_c, 3, 11, 124
8, 60319, Note_on_c, 3, 80, 0
8, 60320, Note_on_c, 3, 78, 68
8, 60356, Control_c, 3, 11, 125
8, 60399, Note_on_c, 3, 78, 0
8, 60400, Note_on_c, 3, 76, 68
8, 60418, Control_c, 3, 11, 127
8, 60467, Note_on_c, 3, 71, 0
8, 60467, Note_on_c, 3, 76, 0
8, 60480, Control_c, 3, 11, 127
8, 60480, Note_on_c, 3, 76, 68
8, 60480, Note_on_c, 3, 70, 68
8, 60511, Control_c, 3, 11, 126
8, 60542, Control_c, 3, 11, 125
8, 60573, Control_c, 3, 11, 124
8, 60604, Control_c, 3, 11, 123
8, 60635, Control_c, 3, 11, 122
8, 60666, Control_c, 3, 11, 121
8, 60697, Control_c, 3, 11, 120
8, 60728, Control_c, 3, 11, 119
8, 60759, Control_c, 3, 11, 118
8, 60790, Control_c, 3, 11, 117
8, 60821, Control_c, 3, 11, 116
8, 60827, Note_on_c, 3, 70, 0
8, 60840, Note_on_c, 3, 67, 68
8, 60852, Control_c, 3, 11, 115
8, 60883, Control_c, 3, 11, 114
8, 60914, Control_c, 3, 11, 113
8, 60945, Control_c, 3, 11, 112
8, 60947, Note_on_c, 3, 67, 0
8, 60960, Note_on_c, 3, 66, 68
8, 60975, Control_c, 3, 11, 111
8, 61006, Control_c, 3, 11, 110
8, 61037, Control_c, 3, 11, 109
8, 61039, Note_on_c, 3, 76, 0
8, 61040, Note_on_c, 3, 74, 68
8, 61068, Control_c, 3, 11, 108
8, 61099, Control_c, 3, 11, 107
8, 61119, Note_on_c, 3, 74, 0
8, 61120, Note_on_c, 3, 73, 68
8, 61130, Control_c, 3, 11, 106
8, 61161, Control_c, 3, 11, 105
8, 61192, Control_c, 3, 11, 104
8, 61199, Note_on_c, 3, 66, 0
8, 61199, Note_on_c, 3, 73, 0
8, 61200, Note_on_c, 3, 76, 68
8, 61223, Control_c, 3, 11, 103
8, 61254, Control_c, 3, 11, 102
8, 61279, Note_on_c, 3, 76, 0
8, 61280, Note_on_c, 3, 74, 68
8, 61280, Note_on_c, 3, 66, 68
8, 61285, Control_c, 3, 11, 101
8, 61316, Control_c, 3, 11, 100
8, 61347, Note_on_c, 3, 66, 0
8, 61347, Control_c, 3, 11, 99
8, 61359, Note_on_c, 3, 74, 0
8, 61360, Note_on_c, 3, 62, 68
8, 61360, Note_on_c, 3, 66, 68
8, 61378, Control_c, 3, 11, 98
8, 61409, Control_c, 3, 11, 96
8, 61427, Note_on_c, 3, 62, 0
8, 61427, Note_on_c, 3, 66, 0
8, 61440, Note_on_c, 3, 69, 68
8, 61440, Note_on_c, 3, 61, 68
8, 61679, Note_on_c, 3, 69, 0
8, 61679, Note_on_c, 3, 61, 0
8, 61680, Note_on_c, 3, 71, 68
8, 61680, Note_on_c, 3, 68, 68
8, 61919, Note_on_c, 3, 71, 0
8, 61919, Note_on_c, 3, 68, 0
8, 61920, Note_on_c, 3, 73, 68
8, 61920, Control_c, 3, 11, 96
8, 61920, Note_on_c, 3, 69, 68
8, 61997, Control_c, 3, 11, 97
8, 62075, Control_c, 3, 11, 98
8, 62152, Control_c, 3, 11, 99
8, 62159, Note_on_c, 3, 73, 0
8, 62159, Note_on_c, 3, 69, 0
8, 62160, Note_on_c, 3, 74, 68
8, 62160, Note_on_c, 3, 71, 68
8, 62230, Control_c, 3, 11, 100
8, 62239, Note_on_c, 3, 74, 0
8, 62239, Note_on_c, 3, 71, 0
8, 62240, Note_on_c, 3, 72, 68
8, 62240, Note_on_c, 3, 75, 68
8, 62307, Control_c, 3, 11, 101
8, 62319, Note_on_c, 3, 72, 0
8, 62319, Note_on_c, 3, 75, 0
8, 62320, Note_on_c, 3, 73, 68
8, 62320, Note_on_c, 3, 76, 68
8, 62385, Control_c, 3, 11, 102
8, 62387, Note_on_c, 3, 73, 0
8, 62387, Note_on_c, 3, 76, 0
8, 62400, Note_on_c, 3, 76, 68
8, 62400, Note_on_c, 3, 70, 68
8, 62462, Control_c, 3, 11, 103
8, 62539, Control_c, 3, 11, 104
8, 62617, Control_c, 3, 11, 105
8, 62694, Control_c, 3, 11, 106
8, 62772, Control_c, 3, 11, 107
8, 62849, Control_c, 3, 11, 108
8, 62879, Note_on_c, 3, 70, 0
8, 62880, Note_on_c, 3, 71, 68
8, 62926, Control_c, 3, 11, 109
8, 63004, Control_c, 3, 11, 110
8, 63081, Control_c, 3, 11, 111
8, 63119, Note_on_c, 3, 76, 0
8, 63120, Note_on_c, 3, 78, 68
8, 63159, Control_c, 3, 11, 112
8, 63236, Control_c, 3, 11, 113
8, 63239, Note_on_c, 3, 78, 0
8, 63240, Note_on_c, 3, 76, 68
8, 63314, Control_c, 3, 11, 114
8, 63347, Note_on_c, 3, 71, 0
8, 63347, Note_on_c, 3, 76, 0
8, 63360, Note_on_c, 3, 76, 68
8, 63360, Note_on_c, 3, 70, 68
8, 63391, Control_c, 3, 11, 115
8, 63468, Control_c, 3, 11, 116
8, 63546, Control_c, 3, 11, 117
8, 63623, Control_c, 3, 11, 118
8, 63701, Control_c, 3, 11, 119
8, 63778, Control_c, 3, 11, 120
8, 63839, Note_on_c, 3, 70, 0
8, 63840, Note_on_c, 3, 71, 68
8, 63855, Control_c, 3, 11, 121
8, 63933, Control_c, 3, 11, 122
8, 64010, Control_c, 3, 11, 123
8, 64079, Note_on_c, 3, 76, 0
8, 64080, Note_on_c, 3, 80, 68
8, 64088, Control_c, 3, 11, 124
8, 64159, Note_on_c, 3, 80, 0
8, 64160, Note_on_c, 3, 78, 68
8, 64165, Control_c, 3, 11, 125
8, 64239, Note_on_c, 3, 78, 0
8, 64240, Note_on_c, 3, 76, 68
8, 64243, Control_c, 3, 11, 127
8, 64319, Note_on_c, 3, 71, 0
8, 64319, Note_on_c, 3, 76, 0
8, 71280, Note_on_c, 3, 76, 84
8, 71280, Note_on_c, 3, 64, 84
8, 71369, Note_on_c, 3, 76, 0
8, 71369, Note_on_c, 3, 64, 0
8, 71400, Note_on_c, 3, 64, 84
8, 71400, Note_on_c, 3, 76, 84
8, 71489, Note_on_c, 3, 64, 0
8, 71489, Note_on_c, 3, 76, 0
8, 100080, Control_c, 3, 11, 64
8, 100320, Control_c, 3, 11, 64
8, 100320, Note_on_c, 3, 68, 84
8, 100350, Control_c, 3, 11, 65
8, 100381, Control_c, 3, 11, 66
8, 100411, Control_c, 3, 11, 67
8, 100442, Control_c, 3, 11, 68
8, 100472, Control_c, 3, 11, 69
8, 100503, Control_c, 3, 11, 70
8, 100533, Control_c, 3, 11, 71
8, 100553, Note_on_c, 3, 68, 0
8, 100560, Note_on_c, 3, 68, 84
8, 100564, Control_c, 3, 11, 72
8, 100594, Control_c, 3, 11, 73
8, 100625, Control_c, 3, 11, 74
8, 100649, Note_on_c, 3, 68, 0
8, 100655, Control_c, 3, 11, 75
8, 100680, Note_on_c, 3, 69, 84
8, 100686, Control_c, 3, 11, 76
8, 100716, Control_c, 3, 11, 77
8, 100747, Control_c, 3, 11, 78
8, 100769, Note_on_c, 3, 69, 0
8, 100777, Control_c, 3, 11, 79
8, 100800, Note_on_c, 3, 71, 84
8, 100808, Control_c, 3, 11, 80
8, 100838, Control_c, 3, 11, 81
8, 100869, Control_c, 3, 11, 82
8, 100899, Control_c, 3, 11, 83
8, 100930, Control_c, 3, 11, 84
8, 100960, Control_c, 3, 11, 85
8, 100990, Control_c, 3, 11, 86
8, 101021, Control_c, 3, 11, 87
8, 101033, Note_on_c, 3, 71, 0
8, 101040, Note_on_c, 3, 71, 84
8, 101051, Control_c, 3, 11, 88
8, 101082, Control_c, 3, 11, 89
8, 101112, Control_c, 3, 11, 90
8, 101129, Note_on_c, 3, 71, 0
8, 101143, Control_c, 3, 11, 91
8, 101160, Note_on_c, 3, 72, 84
8, 101173, Control_c, 3, 11, 92
8, 101204, Control_c, 3, 11, 93
8, 101234, Control_c, 3, 11, 94
8, 101249, Note_on_c, 3, 72, 0
8, 101265, Control_c, 3, 11, 95
8, 101280, Note_on_c, 3, 74, 84
8, 101295, Control_c, 3, 11, 96
8, 101326, Control_c, 3, 11, 97
8, 101356, Control_c, 3, 11, 98
8, 101387, Control_c, 3, 11, 99
8, 101417, Control_c, 3, 11, 100
8, 101448, Control_c, 3, 11, 101
8, 101478, Control_c, 3, 11, 102
8, 101509, Control_c, 3, 11, 103
8, 101513, Note_on_c, 3, 74, 0
8, 101520, Note_on_c, 3, 74, 84
8, 101539, Control_c, 3, 11, 104
8, 101570, Control_c, 3, 11, 105
8, 101600, Control_c, 3, 11, 106
8, 101609, Note_on_c, 3, 74, 0
8, 101630, Control_c, 3, 11, 107
8, 101640, Note_on_c, 3, 76, 84
8, 101661, Control_c, 3, 11, 108
8, 101691, Control_c, 3, 11, 109
8, 101722, Control_c, 3, 11, 110
8, 101729, Note_on_c, 3, 76, 0
8, 101752, Control_c, 3, 11, 111
8, 101760, Note_on_c, 3, 77, 84
8, 101783, Control_c, 3, 11, 112
8, 101813, Control_c, 3, 11, 113
8, 101844, Control_c, 3, 11, 114
8, 101874, Control_c, 3, 11, 115
8, 101879, Note_on_c, 3, 77, 0
8, 101880, Note_on_c, 3, 76, 84
8, 101905, Control_c, 3, 11, 116
8, 101935, Control_c, 3, 11, 117
8, 101939, Note_on_c, 3, 76, 0
8, 101940, Note_on_c, 3, 75, 84
8, 101966, Control_c, 3, 11, 118
8, 101996, Control_c, 3, 11, 119
8, 101999, Note_on_c, 3, 75, 0
8, 102000, Note_on_c, 3, 76, 84
8, 102027, Control_c, 3, 11, 120
8, 102044, Note_on_c, 3, 76, 0
8, 102057, Control_c, 3, 11, 121
8, 102060, Note_on_c, 3, 64, 84
8, 102088, Control_c, 3, 11, 122
8, 102104, Note_on_c, 3, 64, 0
8, 102118, Control_c, 3, 11, 123
8, 102120, Note_on_c, 3, 66, 84
8, 102149, Control_c, 3, 11, 124
8, 102164, Note_on_c, 3, 66, 0
8, 102179, Control_c, 3, 11, 125
8, 102180, Note_on_c, 3, 68, 84
8, 102210, Control_c, 3, 11, 127
8, 102224, Note_on_c, 3, 68, 0
8, 102240, Note_on_c, 3, 69, 84
8, 102293, Note_on_c, 3, 69, 0
8, 102300, Note_on_c, 3, 71, 84
8, 102353, Note_on_c, 3, 71, 0
8, 102360, Note_on_c, 3, 72, 84
8, 102413, Note_on_c, 3, 72, 0
8, 102420, Note_on_c, 3, 71, 84
8, 102473, Note_on_c, 3, 71, 0
8, 102480, Note_on_c, 3, 69, 84
8, 102533, Note_on_c, 3, 69, 0
8, 102540, Note_on_c, 3, 72, 84
8, 102593, Note_on_c, 3, 72, 0
8, 102600, Note_on_c, 3, 71, 84
8, 102653, Note_on_c, 3, 71, 0
8, 102660, Note_on_c, 3, 69, 84
8, 102713, Note_on_c, 3, 69, 0
8, 102720, Note_on_c, 3, 64, 84
8, 102773, Note_on_c, 3, 64, 0
8, 102780, Note_on_c, 3, 66, 84
8, 102833, Note_on_c, 3, 66, 0
8, 102840, Note_on_c, 3, 68, 84
8, 102893, Note_on_c, 3, 68, 0
8, 102900, Note_on_c, 3, 69, 84
8, 102953, Note_on_c, 3, 69, 0
8, 102960, Note_on_c, 3, 71, 84
8, 103013, Note_on_c, 3, 71, 0
8, 103020, Note_on_c, 3, 72, 84
8, 103073, Note_on_c, 3, 72, 0
8, 103080, Note_on_c, 3, 74, 84
8, 103133, Note_on_c, 3, 74, 0
8, 103140, Note_on_c, 3, 76, 84
8, 103193, Note_on_c, 3, 76, 0
8, 103200, Note_on_c, 3, 74, 84
8, 103253, Note_on_c, 3, 74, 0
8, 103260, Note_on_c, 3, 71, 84
8, 103313, Note_on_c, 3, 71, 0
8, 103320, Note_on_c, 3, 72, 84
8, 103373, Note_on_c, 3, 72, 0
8, 103380, Note_on_c, 3, 74, 84
8, 103433, Note_on_c, 3, 74, 0
8, 103440, Note_on_c, 3, 76, 84
8, 103493, Note_on_c, 3, 76, 0
8, 103500, Note_on_c, 3, 74, 84
8, 103553, Note_on_c, 3, 74, 0
8, 103560, Note_on_c, 3, 72, 84
8, 103613, Note_on_c, 3, 72, 0
8, 103620, Note_on_c, 3, 71, 84
8, 103673, Note_on_c, 3, 71, 0
8, 103680, Note_on_c, 3, 72, 84
8, 103733, Note_on_c, 3, 72, 0
8, 103740, Note_on_c, 3, 71, 84
8, 103793, Note_on_c, 3, 71, 0
8, 103800, Note_on_c, 3, 72, 84
8, 103853, Note_on_c, 3, 72, 0
8, 103860, Note_on_c, 3, 74, 84
8, 103913, Note_on_c, 3, 74, 0
8, 103920, Note_on_c, 3, 76, 84
8, 103973, Note_on_c, 3, 76, 0
8, 103980, Note_on_c, 3, 64, 84
8, 104033, Note_on_c, 3, 64, 0
8, 104040, Note_on_c, 3, 66, 84
8, 104093, Note_on_c, 3, 66, 0
8, 104100, Note_on_c, 3, 68, 84
8, 104153, Note_on_c, 3, 68, 0
8, 104160, Note_on_c, 3, 69, 84
8, 104213, Note_on_c, 3, 69, 0
8, 104220, Note_on_c, 3, 71, 84
8, 104273, Note_on_c, 3, 71, 0
8, 104280, Note_on_c, 3, 72, 84
8, 104333, Note_on_c, 3, 72, 0
8, 104340, Note_on_c, 3, 71, 84
8, 104393, Note_on_c, 3, 71, 0
8, 104400, Note_on_c, 3, 69, 84
8, 104453, Note_on_c, 3, 69, 0
8, 104460, Note_on_c, 3, 72, 84
8, 104513, Note_on_c, 3, 72, 0
8, 104520, Note_on_c, 3, 71, 84
8, 104573, Note_on_c, 3, 71, 0
8, 104580, Note_on_c, 3, 69, 84
8, 104633, Note_on_c, 3, 69, 0
8, 104640, Note_on_c, 3, 64, 84
8, 104693, Note_on_c, 3, 64, 0
8, 104700, Note_on_c, 3, 66, 84
8, 104753, Note_on_c, 3, 66, 0
8, 104760, Note_on_c, 3, 68, 84
8, 104813, Note_on_c, 3, 68, 0
8, 104820, Note_on_c, 3, 69, 84
8, 104873, Note_on_c, 3, 69, 0
8, 104880, Note_on_c, 3, 71, 84
8, 104933, Note_on_c, 3, 71, 0
8, 104940, Note_on_c, 3, 72, 84
8, 104993, Note_on_c, 3, 72, 0
8, 105000, Note_on_c, 3, 74, 84
8, 105053, Note_on_c, 3, 74, 0
8, 105060, Note_on_c, 3, 76, 84
8, 105113, Note_on_c, 3, 76, 0
8, 105120, Note_on_c, 3, 74, 84
8, 105173, Note_on_c, 3, 74, 0
8, 105180, Note_on_c, 3, 71, 84
8, 105233, Note_on_c, 3, 71, 0
8, 105240, Note_on_c, 3, 72, 84
8, 105293, Note_on_c, 3, 72, 0
8, 105300, Note_on_c, 3, 74, 84
8, 105353, Note_on_c, 3, 74, 0
8, 105360, Note_on_c, 3, 76, 84
8, 105413, Note_on_c, 3, 76, 0
8, 105420, Note_on_c, 3, 74, 84
8, 105473, Note_on_c, 3, 74, 0
8, 105480, Note_on_c, 3, 72, 84
8, 105533, Note_on_c, 3, 72, 0
8, 105540, Note_on_c, 3, 71, 84
8, 105593, Note_on_c, 3, 71, 0
8, 105600, Note_on_c, 3, 69, 84
8, 105839, Note_on_c, 3, 69, 0
8, 106080, Note_on_c, 3, 74, 52
8, 106080, Note_on_c, 3, 71, 52
8, 106307, Note_on_c, 3, 74, 0
8, 106307, Note_on_c, 3, 71, 0
8, 106320, Note_on_c, 3, 74, 52
8, 106320, Note_on_c, 3, 71, 52
8, 106409, Note_on_c, 3, 74, 0
8, 106409, Note_on_c, 3, 71, 0
8, 106440, Note_on_c, 3, 74, 52
8, 106440, Note_on_c, 3, 71, 52
8, 106529, Note_on_c, 3, 74, 0
8, 106529, Note_on_c, 3, 71, 0
8, 106560, Note_on_c, 3, 72, 52
8, 106560, Note_on_c, 3, 69, 52
8, 106679, Note_on_c, 3, 72, 0
8, 106679, Note_on_c, 3, 69, 0
8, 107280, Note_on_c, 3, 76, 48
8, 107759, Note_on_c, 3, 76, 0
8, 107760, Note_on_c, 3, 73, 48
8, 107999, Note_on_c, 3, 73, 0
8, 108000, Note_on_c, 3, 69, 48
8, 108239, Note_on_c, 3, 69, 0
8, 108240, Note_on_c, 3, 73, 48
8, 108467, Note_on_c, 3, 73, 0
8, 108478, Control_c, 3, 11, 96
8, 108480, Note_on_c, 3, 73, 68
8, 108719, Note_on_c, 3, 73, 0
8, 108720, Control_c, 3, 11, 96
8, 108720, Note_on_c, 3, 71, 68
8, 108720, Note_on_c, 3, 62, 68
8, 108759, Control_c, 3, 11, 97
8, 108797, Control_c, 3, 11, 98
8, 108836, Control_c, 3, 11, 99
8, 108875, Control_c, 3, 11, 100
8, 108914, Control_c, 3, 11, 101
8, 108952, Control_c, 3, 11, 102
8, 108991, Control_c, 3, 11, 103
8, 109030, Control_c, 3, 11, 104
8, 109068, Control_c, 3, 11, 105
8, 109107, Control_c, 3, 11, 106
8, 109146, Control_c, 3, 11, 107
8, 109185, Control_c, 3, 11, 108
8, 109199, Note_on_c, 3, 71, 0
8, 109199, Note_on_c, 3, 62, 0
8, 109200, Note_on_c, 3, 61, 68
8, 109200, Note_on_c, 3, 69, 68
8, 109223, Control_c, 3, 11, 109
8, 109262, Control_c, 3, 11, 110
8, 109301, Control_c, 3, 11, 111
8, 109339, Control_c, 3, 11, 112
8, 109378, Control_c, 3, 11, 113
8, 109417, Control_c, 3, 11, 114
8, 109439, Note_on_c, 3, 61, 0
8, 109439, Note_on_c, 3, 69, 0
8, 109440, Note_on_c, 3, 68, 68
8, 109440, Note_on_c, 3, 59, 68
8, 109455, Control_c, 3, 11, 115
8, 109494, Control_c, 3, 11, 116
8, 109533, Control_c, 3, 11, 117
8, 109572, Control_c, 3, 11, 118
8, 109610, Control_c, 3, 11, 119
8, 109649, Control_c, 3, 11, 120
8, 109679, Note_on_c, 3, 68, 0
8, 109679, Note_on_c, 3, 59, 0
8, 109680, Note_on_c, 3, 61, 68
8, 109680, Note_on_c, 3, 69, 68
8, 109688, Control_c, 3, 11, 121
8, 109726, Control_c, 3, 11, 122
8, 109765, Control_c, 3, 11, 123
8, 109804, Control_c, 3, 11, 124
8, 109843, Control_c, 3, 11, 125
8, 109881, Control_c, 3, 11, 127
8, 109919, Note_on_c, 3, 61, 0
8, 109919, Note_on_c, 3, 69, 0
8, 109920, Note_on_c, 3, 62, 68
8, 109920, Note_on_c, 3, 71, 68
8, 110159, Note_on_c, 3, 62, 0
8, 110159, Note_on_c, 3, 71, 0
8, 110160, Note_on_c, 3, 73, 68
8, 110160, Control_c, 3, 11, 127
8, 110160, Note_on_c, 3, 64, 68
8, 110199, Control_c, 3, 11, 126
8, 110237, Control_c, 3, 11, 125
8, 110276, Control_c, 3, 11, 124
8, 110315, Control_c, 3, 11, 123
8, 110354, Control_c, 3, 11, 122
8, 110392, Control_c, 3, 11, 121
8, 110399, Note_on_c, 3, 73, 0
8, 110399, Note_on_c, 3, 64, 0
8, 110400, Note_on_c, 3, 66, 68
8, 110400, Note_on_c, 3, 74, 68
8, 110431, Control_c, 3, 11, 120
8, 110470, Control_c, 3, 11, 119
8, 110508, Control_c, 3, 11, 118
8, 110547, Control_c, 3, 11, 117
8, 110586, Control_c, 3, 11, 116
8, 110625, Control_c, 3, 11, 115
8, 110639, Note_on_c, 3, 66, 0
8, 110639, Note_on_c, 3, 74, 0
8, 110640, Note_on_c, 3, 76, 68
8, 110640, Note_on_c, 3, 68, 68
8, 110663, Control_c, 3, 11, 114
8, 110702, Control_c, 3, 11, 113
8, 110741, Control_c, 3, 11, 112
8, 110779, Control_c, 3, 11, 111
8, 110818, Control_c, 3, 11, 110
8, 110857, Control_c, 3, 11, 109
8, 110879, Note_on_c, 3, 76, 0
8, 110879, Note_on_c, 3, 68, 0
8, 110880, Note_on_c, 3, 74, 68
8, 110880, Note_on_c, 3, 71, 68
8, 110895, Control_c, 3, 11, 108
8, 110934, Control_c, 3, 11, 107
8, 110973, Control_c, 3, 11, 106
8, 111012, Control_c, 3, 11, 105
8, 111050, Control_c, 3, 11, 104
8, 111089, Control_c, 3, 11, 103
8, 111119, Note_on_c, 3, 74, 0
8, 111119, Note_on_c, 3, 71, 0
8, 111120, Note_on_c, 3, 69, 68
8, 111120, Note_on_c, 3, 73, 68
8, 111128, Control_c, 3, 11, 102
8, 111166, Control_c, 3, 11, 101
8, 111205, Control_c, 3, 11, 100
8, 111239, Note_on_c, 3, 69, 0
8, 111239, Note_on_c, 3, 73, 0
8, 111240, Note_on_c, 3, 81, 68
8, 111240, Note_on_c, 3, 73, 68
8, 111244, Control_c, 3, 11, 99
8, 111283, Control_c, 3, 11, 98
8, 111321, Control_c, 3, 11, 96
8, 111347, Note_on_c, 3, 81, 0
8, 111347, Note_on_c, 3, 73, 0
8, 111360, Note_on_c, 3, 73, 68
8, 111360, Note_on_c, 3, 81, 68
8, 111360, Control_c, 3, 11, 96
8, 111422, Control_c, 3, 11, 97
8, 111484, Control_c, 3, 11, 98
8, 111546, Control_c, 3, 11, 99
8, 111599, Note_on_c, 3, 73, 0
8, 111599, Note_on_c, 3, 81, 0
8, 111600, Note_on_c, 3, 73, 68
8, 111600, Note_on_c, 3, 76, 68
8, 111608, Control_c, 3, 11, 100
8, 111670, Control_c, 3, 11, 101
8, 111732, Control_c, 3, 11, 102
8, 111794, Control_c, 3, 11, 103
8, 111839, Note_on_c, 3, 73, 0
8, 111839, Note_on_c, 3, 76, 0
8, 111840, Note_on_c, 3, 73, 68
8, 111840, Note_on_c, 3, 69, 68
8, 111855, Control_c, 3, 11, 104
8, 111917, Control_c, 3, 11, 105
8, 111979, Control_c, 3, 11, 106
8, 112041, Control_c, 3, 11, 107
8, 112079, Note_on_c, 3, 73, 0
8, 112079, Note_on_c, 3, 69, 0
8, 112080, Note_on_c, 3, 73, 68
8, 112080, Note_on_c, 3, 76, 68
8, 112103, Control_c, 3, 11, 108
8, 112165, Control_c, 3, 11, 109
8, 112227, Control_c, 3, 11, 110
8, 112289, Control_c, 3, 11, 111
8, 112307, Note_on_c, 3, 73, 0
8, 112307, Note_on_c, 3, 76, 0
8, 112320, Note_on_c, 3, 73, 68
8, 112320, Note_on_c, 3, 76, 68
8, 112351, Control_c, 3, 11, 112
8, 112413, Control_c, 3, 11, 113
8, 112475, Control_c, 3, 11, 114
8, 112537, Control_c, 3, 11, 115
8, 112559, Note_on_c, 3, 73, 0
8, 112559, Note_on_c, 3, 76, 0
8, 112560, Note_on_c, 3, 74, 68
8, 112560, Note_on_c, 3, 78, 68
8, 112599, Control_c, 3, 11, 116
8, 112661, Control_c, 3, 11, 117
8, 112723, Control_c, 3, 11, 118
8, 112785, Control_c, 3, 11, 119
8, 112846, Control_c, 3, 11, 120
8, 112908, Control_c, 3, 11, 121
8, 112970, Control_c, 3, 11, 122
8, 113032, Control_c, 3, 11, 123
8, 113039, Note_on_c, 3, 74, 0
8, 113039, Note_on_c, 3, 78, 0
8, 113040, Note_on_c, 3, 76, 68
8, 113040, Note_on_c, 3, 73, 68
8, 113094, Control_c, 3, 11, 124
8, 113156, Control_c, 3, 11, 125
8, 113218, Control_c, 3, 11, 127
8, 113279, Note_on_c, 3, 76, 0
8, 113279, Note_on_c, 3, 73, 0
8, 113280, Note_on_c, 3, 66, 68
8, 113280, Control_c, 3, 11, 127
8, 113280, Note_on_c, 3, 74, 68
8, 113311, Control_c, 3, 11, 126
8, 113342, Control_c, 3, 11, 125
8, 113373, Control_c, 3, 11, 124
8, 113404, Control_c, 3, 11, 123
8, 113435, Control_c, 3, 11, 122
8, 113466, Control_c, 3, 11, 121
8, 113497, Control_c, 3, 11, 120
8, 113519, Note_on_c, 3, 66, 0
8, 113519, Note_on_c, 3, 74, 0
8, 113520, Note_on_c, 3, 64, 68
8, 113520, Note_on_c, 3, 73, 68
8, 113528, Control_c, 3, 11, 119
8, 113559, Control_c, 3, 11, 118
8, 113590, Control_c, 3, 11, 117
8, 113621, Control_c, 3, 11, 116
8, 113652, Control_c, 3, 11, 115
8, 113683, Control_c, 3, 11, 114
8, 113714, Control_c, 3, 11, 113
8, 113745, Control_c, 3, 11, 112
8, 113759, Note_on_c, 3, 64, 0
8, 113759, Note_on_c, 3, 73, 0
8, 113760, Note_on_c, 3, 74, 68
8, 113760, Note_on_c, 3, 66, 68
8, 113775, Control_c, 3, 11, 111
8, 113806, Control_c, 3, 11, 110
8, 113837, Control_c, 3, 11, 109
8, 113868, Control_c, 3, 11, 108
8, 113899, Control_c, 3, 11, 107
8, 113930, Control_c, 3, 11, 106
8, 113961, Control_c, 3, 11, 105
8, 113992, Control_c, 3, 11, 104
8, 113999, Note_on_c, 3, 74, 0
8, 113999, Note_on_c, 3, 66, 0
8, 114000, Note_on_c, 3, 76, 68
8, 114000, Note_on_c, 3, 68, 68
8, 114023, Control_c, 3, 11, 103
8, 114054, Control_c, 3, 11, 102
8, 114085, Control_c, 3, 11, 101
8, 114116, Control_c, 3, 11, 100
8, 114147, Control_c, 3, 11, 99
8, 114178, Control_c, 3, 11, 98
8, 114209, Control_c, 3, 11, 96
8, 114239, Note_on_c, 3, 76, 0
8, 114239, Note_on_c, 3, 68, 0
8, 114240, Note_on_c, 3, 73, 68
8, 114240, Note_on_c, 3, 69, 68
8, 114707, Note_on_c, 3, 73, 0
8, 114707, Note_on_c, 3, 69, 0
8, 114720, Note_on_c, 3, 74, 68
8, 114720, Note_on_c, 3, 66, 68
8, 114720, Control_c, 3, 11, 96
8, 114810, Control_c, 3, 11, 95
8, 114900, Control_c, 3, 11, 94
8, 114959, Note_on_c, 3, 74, 0
8, 114959, Note_on_c, 3, 66, 0
8, 114960, Note_on_c, 3, 76, 68
8, 114960, Note_on_c, 3, 68, 68
8, 114990, Control_c, 3, 11, 93
8, 115080, Control_c, 3, 11, 92
8, 115170, Control_c, 3, 11, 91
8, 115199, Note_on_c, 3, 76, 0
8, 115199, Note_on_c, 3, 68, 0
8, 115200, Note_on_c, 3, 69, 68
8, 115200, Note_on_c, 3, 73, 68
8, 115260, Control_c, 3, 11, 90
8, 115350, Control_c, 3, 11, 89
8, 115440, Control_c, 3, 11, 88
8, 115530, Control_c, 3, 11, 87
8, 115620, Control_c, 3, 11, 86
8, 115667, Note_on_c, 3, 69, 0
8, 115667, Note_on_c, 3, 73, 0
8, 115680, Note_on_c, 3, 66, 68
8, 115680, Note_on_c, 3, 74, 68
8, 115710, Control_c, 3, 11, 85
8, 115800, Control_c, 3, 11, 84
8, 115890, Control_c, 3, 11, 83
8, 115919, Note_on_c, 3, 66, 0
8, 115919, Note_on_c, 3, 74, 0
8, 115920, Note_on_c, 3, 76, 68
8, 115920, Note_on_c, 3, 68, 68
8, 115980, Control_c, 3, 11, 82
8, 116070, Control_c, 3, 11, 80
8, 116147, Note_on_c, 3, 76, 0
8, 116147, Note_on_c, 3, 68, 0
8, 116160, Note_on_c, 3, 69, 68
8, 116393, Note_on_c, 3, 69, 0
8, 116400, Note_on_c, 3, 69, 68
8, 116489, Note_on_c, 3, 69, 0
8, 116520, Note_on_c, 3, 69, 68
8, 116609, Note_on_c, 3, 69, 0
8, 116640, Note_on_c, 3, 69, 68
8, 116849, Note_on_c, 3, 69, 0
8, 116880, Note_on_c, 3, 69, 68
8, 117089, Note_on_c, 3, 69, 0
8, 117120, Note_on_c, 3, 69, 68
8, 117353, Note_on_c, 3, 69, 0
8, 117360, Note_on_c, 3, 69, 68
8, 117449, Note_on_c, 3, 69, 0
8, 117480, Note_on_c, 3, 69, 68
8, 117569, Note_on_c, 3, 69, 0
8, 117600, Note_on_c, 3, 69, 68
8, 117809, Note_on_c, 3, 69, 0
8, 117840, Note_on_c, 3, 69, 68
8, 118049, Note_on_c, 3, 69, 0
8, 118078, Control_c, 3, 11, 127
8, 118080, Note_on_c, 3, 71, 84
8, 118080, Note_on_c, 3, 74, 84
8, 118313, Note_on_c, 3, 71, 0
8, 118313, Note_on_c, 3, 74, 0
8, 118320, Note_on_c, 3, 72, 84
8, 118320, Note_on_c, 3, 69, 84
8, 118409, Note_on_c, 3, 72, 0
8, 118409, Note_on_c, 3, 69, 0
8, 118440, Note_on_c, 3, 74, 84
8, 118440, Note_on_c, 3, 71, 84
8, 118529, Note_on_c, 3, 74, 0
8, 118529, Note_on_c, 3, 71, 0
8, 118560, Note_on_c, 3, 72, 84
8, 118560, Note_on_c, 3, 76, 84
8, 118679, Note_on_c, 3, 72, 0
8, 118679, Note_on_c, 3, 76, 0
8, 120000, Note_on_c, 3, 74, 84
8, 120000, Note_on_c, 3, 71, 84
8, 120233, Note_on_c, 3, 74, 0
8, 120233, Note_on_c, 3, 71, 0
8, 120240, Note_on_c, 3, 69, 84
8, 120240, Note_on_c, 3, 72, 84
8, 120329, Note_on_c, 3, 69, 0
8, 120329, Note_on_c, 3, 72, 0
8, 120360, Note_on_c, 3, 74, 84
8, 120360, Note_on_c, 3, 71, 84
8, 120449, Note_on_c, 3, 74, 0
8, 120449, Note_on_c, 3, 71, 0
8, 120480, Note_on_c, 3, 72, 84
8, 120480, Note_on_c, 3, 76, 84
8, 120599, Note_on_c, 3, 72, 0
8, 120599, Note_on_c, 3, 76, 0
8, 122880, Note_on_c, 3, 68, 44
8, 122880, Note_on_c, 3, 76, 44
8, 123113, Note_on_c, 3, 68, 0
8, 123113, Note_on_c, 3, 76, 0
8, 123120, Note_on_c, 3, 76, 44
8, 123120, Note_on_c, 3, 68, 44
8, 123209, Note_on_c, 3, 76, 0
8, 123209, Note_on_c, 3, 68, 0
8, 123240, Note_on_c, 3, 68, 44
8, 123240, Note_on_c, 3, 76, 44
8, 123329, Note_on_c, 3, 68, 0
8, 123329, Note_on_c, 3, 76, 0
8, 123360, Note_on_c, 3, 76, 44
8, 123360, Note_on_c, 3, 69, 44
8, 123569, Note_on_c, 3, 76, 0
8, 123569, Note_on_c, 3, 69, 0
8, 123600, Note_on_c, 3, 76, 44
8, 123600, Note_on_c, 3, 69, 44
8, 123809, Note_on_c, 3, 76, 0
8, 123809, Note_on_c, 3, 69, 0
8, 126720, Note_on_c, 3, 71, 44
8, 126720, Note_on_c, 3, 78, 44
8, 126953, Note_on_c, 3, 71, 0
8, 126953, Note_on_c, 3, 78, 0
8, 126960, Note_on_c, 3, 71, 44
8, 126960, Note_on_c, 3, 78, 44
8, 127049, Note_on_c, 3, 71, 0
8, 127049, Note_on_c, 3, 78, 0
8, 127080, Note_on_c, 3, 80, 44
8, 127080, Note_on_c, 3, 71, 44
8, 127169, Note_on_c, 3, 80, 0
8, 127169, Note_on_c, 3, 71, 0
8, 127200, Note_on_c, 3, 81, 44
8, 127200, Note_on_c, 3, 69, 44
8, 127409, Note_on_c, 3, 81, 0
8, 127409, Note_on_c, 3, 69, 0
8, 127440, Note_on_c, 3, 81, 44
8, 127440, Note_on_c, 3, 69, 44
8, 127649, Note_on_c, 3, 81, 0
8, 127649, Note_on_c, 3, 69, 0
8, 129600, Note_on_c, 3, 74, 44
8, 129600, Note_on_c, 3, 71, 44
8, 129833, Note_on_c, 3, 74, 0
8, 129833, Note_on_c, 3, 71, 0
8, 129840, Note_on_c, 3, 74, 44
8, 129840, Note_on_c, 3, 71, 44
8, 129929, Note_on_c, 3, 74, 0
8, 129929, Note_on_c, 3, 71, 0
8, 129960, Note_on_c, 3, 71, 44
8, 129960, Note_on_c, 3, 74, 44
8, 130049, Note_on_c, 3, 71, 0
8, 130049, Note_on_c, 3, 74, 0
8, 130080, Note_on_c, 3, 69, 44
8, 130080, Note_on_c, 3, 72, 44
8, 130319, Note_on_c, 3, 69, 0
8, 130319, Note_on_c, 3, 72, 0
8, 132000, Note_on_c, 3, 64, 76
8, 132000, Control_c, 3, 11, 127
8, 132000, Note_on_c, 3, 69, 76
8, 132020, Control_c, 3, 11, 125
8, 132040, Control_c, 3, 11, 124
8, 132060, Control_c, 3, 11, 122
8, 132080, Control_c, 3, 11, 120
8, 132100, Control_c, 3, 11, 118
8, 132120, Control_c, 3, 11, 117
8, 132140, Control_c, 3, 11, 115
8, 132160, Control_c, 3, 11, 113
8, 132180, Control_c, 3, 11, 111
8, 132200, Control_c, 3, 11, 110
8, 132220, Control_c, 3, 11, 108
8, 132240, Control_c, 3, 11, 106
8, 132260, Control_c, 3, 11, 104
8, 132280, Control_c, 3, 11, 103
8, 132300, Control_c, 3, 11, 101
8, 132320, Control_c, 3, 11, 99
8, 132340, Control_c, 3, 11, 97
8, 132360, Control_c, 3, 11, 96
8, 132380, Control_c, 3, 11, 94
8, 132400, Control_c, 3, 11, 92
8, 132420, Control_c, 3, 11, 90
8, 132440, Control_c, 3, 11, 89
8, 132460, Control_c, 3, 11, 87
8, 132480, Control_c, 3, 11, 85
8, 132500, Control_c, 3, 11, 83
8, 132520, Control_c, 3, 11, 82
8, 132540, Control_c, 3, 11, 80
8, 132560, Control_c, 3, 11, 78
8, 132580, Control_c, 3, 11, 76
8, 132600, Control_c, 3, 11, 75
8, 132620, Control_c, 3, 11, 73
8, 132640, Control_c, 3, 11, 71
8, 132660, Control_c, 3, 11, 69
8, 132680, Control_c, 3, 11, 68
8, 132700, Control_c, 3, 11, 66
8, 132720, Control_c, 3, 11, 64
8, 133079, Note_on_c, 3, 64, 0
8, 133079, Note_on_c, 3, 69, 0
8, 133440, Control_c, 3, 11, 127
8, 133440, End_track
9, 0, Start_track
9, 0, Title_t, "Bassoon"
9, 0, MIDI_port, 0
9, 0, Program_c, 4, 70
9, 0, Control_c, 4, 7, 96
9, 0, Control_c, 4, 11, 127
9, 0, Control_c, 4, 10, 65
9, 0, Note_on_c, 4, 60, 76
9, 0, Note_on_c, 4, 57, 76
9, 0, Control_c, 4, 11, 127
9, 20, Control_c, 4, 11, 125
9, 40, Control_c, 4, 11, 124
9, 60, Control_c, 4, 11, 122
9, 80, Control_c, 4, 11, 120
9, 100, Control_c, 4, 11, 118
9, 120, Control_c, 4, 11, 117
9, 140, Control_c, 4, 11, 115
9, 160, Control_c, 4, 11, 113
9, 180, Control_c, 4, 11, 111
9, 200, Control_c, 4, 11, 110
9, 220, Control_c, 4, 11, 108
9, 240, Control_c, 4, 11, 106
9, 260, Control_c, 4, 11, 104
9, 280, Control_c, 4, 11, 103
9, 300, Control_c, 4, 11, 101
9, 320, Control_c, 4, 11, 99
9, 340, Control_c, 4, 11, 97
9, 360, Control_c, 4, 11, 96
9, 380, Control_c, 4, 11, 94
9, 400, Control_c, 4, 11, 92
9, 420, Control_c, 4, 11, 90
9, 440, Control_c, 4, 11, 89
9, 460, Control_c, 4, 11, 87
9, 480, Control_c, 4, 11, 85
9, 500, Control_c, 4, 11, 83
9, 520, Control_c, 4, 11, 82
9, 540, Control_c, 4, 11, 80
9, 560, Control_c, 4, 11, 78
9, 580, Control_c, 4, 11, 76
9, 600, Control_c, 4, 11, 75
9, 620, Control_c, 4, 11, 73
9, 640, Control_c, 4, 11, 71
9, 660, Control_c, 4, 11, 69
9, 680, Control_c, 4, 11, 68
9, 700, Control_c, 4, 11, 66
9, 720, Control_c, 4, 11, 64
9, 1199, Note_on_c, 4, 60, 0
9, 1199, Note_on_c, 4, 57, 0
9, 1440, Control_c, 4, 11, 127
9, 31920, Note_on_c, 4, 60, 76
9, 31920, Note_on_c, 4, 64, 76
9, 32159, Note_on_c, 4, 60, 0
9, 32159, Note_on_c, 4, 64, 0
9, 32400, Note_on_c, 4, 66, 77
9, 32400, Note_on_c, 4, 59, 77
9, 32639, Note_on_c, 4, 66, 0
9, 32639, Note_on_c, 4, 59, 0
9, 32880, Note_on_c, 4, 62, 78
9, 32880, Note_on_c, 4, 59, 78
9, 33119, Note_on_c, 4, 62, 0
9, 33119, Note_on_c, 4, 59, 0
9, 33360, Note_on_c, 4, 64, 79
9, 33360, Note_on_c, 4, 57, 79
9, 33599, Note_on_c, 4, 64, 0
9, 33599, Note_on_c, 4, 57, 0
9, 33840, Note_on_c, 4, 57, 80
9, 33840, Note_on_c, 4, 64, 80
9, 34079, Note_on_c, 4, 57, 0
9, 34079, Note_on_c, 4, 64, 0
9, 34320, Note_on_c, 4, 57, 81
9, 34320, Note_on_c, 4, 64, 81
9, 34559, Note_on_c, 4, 57, 0
9, 34559, Note_on_c, 4, 64, 0
9, 34800, Note_on_c, 4, 59, 82
9, 34800, Note_on_c, 4, 62, 82
9, 35039, Note_on_c, 4, 59, 0
9, 35039, Note_on_c, 4, 62, 0
9, 35280, Note_on_c, 4, 57, 83
9, 35280, Note_on_c, 4, 60, 83
9, 35504, Note_on_c, 4, 57, 0
9, 35504, Note_on_c, 4, 60, 0
9, 35520, Note_on_c, 4, 52, 84
9, 35520, Note_on_c, 4, 64, 84
9, 35751, Note_on_c, 4, 52, 0
9, 35751, Note_on_c, 4, 64, 0
9, 35760, Note_on_c, 4, 64, 84
9, 35760, Note_on_c, 4, 52, 84
9, 35849, Note_on_c, 4, 64, 0
9, 35849, Note_on_c, 4, 52, 0
9, 35880, Note_on_c, 4, 64, 84
9, 35880, Note_on_c, 4, 52, 84
9, 35969, Note_on_c, 4, 64, 0
9, 35969, Note_on_c, 4, 52, 0
9, 36000, Note_on_c, 4, 64, 84
9, 36000, Note_on_c, 4, 52, 84
9, 36209, Note_on_c, 4, 64, 0
9, 36209, Note_on_c, 4, 52, 0
9, 36240, Note_on_c, 4, 64, 84
9, 36240, Note_on_c, 4, 52, 84
9, 36449, Note_on_c, 4, 64, 0
9, 36449, Note_on_c, 4, 52, 0
9, 36480, Note_on_c, 4, 64, 84
9, 36480, Note_on_c, 4, 52, 84
9, 36711, Note_on_c, 4, 64, 0
9, 36711, Note_on_c, 4, 52, 0
9, 36720, Note_on_c, 4, 52, 84
9, 36720, Note_on_c, 4, 64, 84
9, 36809, Note_on_c, 4, 52, 0
9, 36809, Note_on_c, 4, 64, 0
9, 36840, Note_on_c, 4, 52, 84
9, 36840, Note_on_c, 4, 64, 84
9, 36929, Note_on_c, 4, 52, 0
9, 36929, Note_on_c, 4, 64, 0
9, 36960, Note_on_c, 4, 64, 84
9, 36960, Note_on_c, 4, 52, 84
9, 37169, Note_on_c, 4, 64, 0
9, 37169, Note_on_c, 4, 52, 0
9, 37200, Note_on_c, 4, 52, 84
9, 37200, Note_on_c, 4, 64, 84
9, 37409, Note_on_c, 4, 52, 0
9, 37409, Note_on_c, 4, 64, 0
9, 37440, Note_on_c, 4, 64, 84
9, 37440, Note_on_c, 4, 52, 84
9, 37671, Note_on_c, 4, 64, 0
9, 37671, Note_on_c, 4, 52, 0
9, 37680, Note_on_c, 4, 64, 84
9, 37680, Note_on_c, 4, 52, 84
9, 37769, Note_on_c, 4, 64, 0
9, 37769, Note_on_c, 4, 52, 0
9, 37800, Note_on_c, 4, 66, 84
9, 37800, Note_on_c, 4, 54, 84
9, 37889, Note_on_c, 4, 66, 0
9, 37889, Note_on_c, 4, 54, 0
9, 37920, Note_on_c, 4, 55, 84
9, 37920, Note_on_c, 4, 67, 84
9, 38129, Note_on_c, 4, 55, 0
9, 38129, Note_on_c, 4, 67, 0
9, 38160, Note_on_c, 4, 55, 84
9, 38160, Note_on_c, 4, 67, 84
9, 38369, Note_on_c, 4, 55, 0
9, 38369, Note_on_c, 4, 67, 0
9, 38400, Note_on_c, 4, 67, 84
9, 38400, Note_on_c, 4, 55, 84
9, 38631, Note_on_c, 4, 67, 0
9, 38631, Note_on_c, 4, 55, 0
9, 38640, Note_on_c, 4, 55, 84
9, 38640, Note_on_c, 4, 67, 84
9, 38729, Note_on_c, 4, 55, 0
9, 38729, Note_on_c, 4, 67, 0
9, 38760, Note_on_c, 4, 67, 84
9, 38760, Note_on_c, 4, 55, 84
9, 38849, Note_on_c, 4, 67, 0
9, 38849, Note_on_c, 4, 55, 0
9, 38880, Note_on_c, 4, 55, 84
9, 38880, Note_on_c, 4, 67, 84
9, 39119, Note_on_c, 4, 55, 0
9, 39119, Note_on_c, 4, 67, 0
9, 39360, Note_on_c, 4, 55, 84
9, 39591, Note_on_c, 4, 55, 0
9, 39600, Note_on_c, 4, 55, 84
9, 39689, Note_on_c, 4, 55, 0
9, 39720, Note_on_c, 4, 57, 84
9, 39809, Note_on_c, 4, 57, 0
9, 39840, Note_on_c, 4, 59, 84
9, 40049, Note_on_c, 4, 59, 0
9, 40080, Note_on_c, 4, 59, 84
9, 40289, Note_on_c, 4, 59, 0
9, 40320, Note_on_c, 4, 54, 84
9, 40551, Note_on_c, 4, 54, 0
9, 40560, Note_on_c, 4, 54, 84
9, 40649, Note_on_c, 4, 54, 0
9, 40680, Note_on_c, 4, 56, 84
9, 40769, Note_on_c, 4, 56, 0
9, 40800, Note_on_c, 4, 57, 84
9, 41009, Note_on_c, 4, 57, 0
9, 41040, Note_on_c, 4, 57, 84
9, 41249, Note_on_c, 4, 57, 0
9, 41280, Note_on_c, 4, 52, 84
9, 41280, Note_on_c, 4, 64, 84
9, 41511, Note_on_c, 4, 52, 0
9, 41511, Note_on_c, 4, 64, 0
9, 41520, Note_on_c, 4, 64, 84
9, 41520, Note_on_c, 4, 52, 84
9, 41609, Note_on_c, 4, 64, 0
9, 41609, Note_on_c, 4, 52, 0
9, 41640, Note_on_c, 4, 64, 84
9, 41640, Note_on_c, 4, 52, 84
9, 41729, Note_on_c, 4, 64, 0
9, 41729, Note_on_c, 4, 52, 0
9, 41760, Note_on_c, 4, 64, 84
9, 41760, Note_on_c, 4, 52, 84
9, 41969, Note_on_c, 4, 64, 0
9, 41969, Note_on_c, 4, 52, 0
9, 42000, Note_on_c, 4, 64, 84
9, 42000, Note_on_c, 4, 52, 84
9, 42209, Note_on_c, 4, 64, 0
9, 42209, Note_on_c, 4, 52, 0
9, 42240, Note_on_c, 4, 64, 84
9, 42240, Note_on_c, 4, 52, 84
9, 42471, Note_on_c, 4, 64, 0
9, 42471, Note_on_c, 4, 52, 0
9, 42480, Note_on_c, 4, 54, 84
9, 42569, Note_on_c, 4, 54, 0
9, 42600, Note_on_c, 4, 56, 84
9, 42689, Note_on_c, 4, 56, 0
9, 42720, Note_on_c, 4, 57, 84
9, 42959, Note_on_c, 4, 57, 0
9, 43200, Note_on_c, 4, 55, 84
9, 43253, Control_c, 4, 11, 126
9, 43307, Control_c, 4, 11, 125
9, 43360, Control_c, 4, 11, 124
9, 43413, Control_c, 4, 11, 123
9, 43431, Note_on_c, 4, 55, 0
9, 43440, Note_on_c, 4, 55, 84
9, 43467, Control_c, 4, 11, 122
9, 43520, Control_c, 4, 11, 121
9, 43529, Note_on_c, 4, 55, 0
9, 43560, Note_on_c, 4, 57, 84
9, 43573, Control_c, 4, 11, 120
9, 43627, Control_c, 4, 11, 119
9, 43649, Note_on_c, 4, 57, 0
9, 43680, Control_c, 4, 11, 118
9, 43680, Note_on_c, 4, 59, 84
9, 43733, Control_c, 4, 11, 117
9, 43787, Control_c, 4, 11, 116
9, 43840, Control_c, 4, 11, 115
9, 43889, Note_on_c, 4, 59, 0
9, 43893, Control_c, 4, 11, 114
9, 43920, Note_on_c, 4, 59, 84
9, 43947, Control_c, 4, 11, 113
9, 44000, Control_c, 4, 11, 112
9, 44053, Control_c, 4, 11, 111
9, 44107, Control_c, 4, 11, 110
9, 44129, Note_on_c, 4, 59, 0
9, 44160, Note_on_c, 4, 54, 84
9, 44160, Control_c, 4, 11, 109
9, 44213, Control_c, 4, 11, 108
9, 44267, Control_c, 4, 11, 107
9, 44320, Control_c, 4, 11, 106
9, 44373, Control_c, 4, 11, 105
9, 44391, Note_on_c, 4, 54, 0
9, 44400, Note_on_c, 4, 54, 84
9, 44427, Control_c, 4, 11, 104
9, 44480, Control_c, 4, 11, 103
9, 44489, Note_on_c, 4, 54, 0
9, 44520, Note_on_c, 4, 56, 84
9, 44533, Control_c, 4, 11, 102
9, 44587, Control_c, 4, 11, 101
9, 44609, Note_on_c, 4, 56, 0
9, 44640, Control_c, 4, 11, 100
9, 44640, Note_on_c, 4, 57, 84
9, 44693, Control_c, 4, 11, 99
9, 44747, Control_c, 4, 11, 98
9, 44800, Control_c, 4, 11, 97
9, 44849, Note_on_c, 4, 57, 0
9, 44853, Control_c, 4, 11, 96
9, 44880, Note_on_c, 4, 57, 84
9, 44907, Control_c, 4, 11, 95
9, 44960, Control_c, 4, 11, 94
9, 45013, Control_c, 4, 11, 93
9, 45067, Control_c, 4, 11, 92
9, 45089, Note_on_c, 4, 57, 0
9, 45120, Note_on_c, 4, 52, 84
9, 45120, Note_on_c, 4, 64, 84
9, 45120, Control_c, 4, 11, 91
9, 45173, Control_c, 4, 11, 90
9, 45227, Control_c, 4, 11, 89
9, 45280, Control_c, 4, 11, 88
9, 45333, Control_c, 4, 11, 87
9, 45351, Note_on_c, 4, 52, 0
9, 45351, Note_on_c, 4, 64, 0
9, 45360, Note_on_c, 4, 64, 84
9, 45360, Note_on_c, 4, 52, 84
9, 45387, Control_c, 4, 11, 86
9, 45440, Control_c, 4, 11, 85
9, 45449, Note_on_c, 4, 64, 0
9, 45449, Note_on_c, 4, 52, 0
9, 45480, Note_on_c, 4, 52, 84
9, 45480, Note_on_c, 4, 64, 84
9, 45493, Control_c, 4, 11, 84
9, 45547, Control_c, 4, 11, 83
9, 45569, Note_on_c, 4, 52, 0
9, 45569, Note_on_c, 4, 64, 0
9, 45600, Note_on_c, 4, 52, 84
9, 45600, Control_c, 4, 11, 82
9, 45600, Note_on_c, 4, 64, 84
9, 45653, Control_c, 4, 11, 81
9, 45707, Control_c, 4, 11, 80
9, 45760, Control_c, 4, 11, 79
9, 45809, Note_on_c, 4, 52, 0
9, 45809, Note_on_c, 4, 64, 0
9, 45813, Control_c, 4, 11, 78
9, 45840, Note_on_c, 4, 64, 84
9, 45840, Note_on_c, 4, 52, 84
9, 45867, Control_c, 4, 11, 77
9, 45920, Control_c, 4, 11, 76
9, 45973, Control_c, 4, 11, 75
9, 46027, Control_c, 4, 11, 74
9, 46049, Note_on_c, 4, 64, 0
9, 46049, Note_on_c, 4, 52, 0
9, 46080, Note_on_c, 4, 52, 84
9, 46080, Control_c, 4, 11, 73
9, 46133, Control_c, 4, 11, 72
9, 46187, Control_c, 4, 11, 71
9, 46240, Control_c, 4, 11, 70
9, 46293, Control_c, 4, 11, 69
9, 46311, Note_on_c, 4, 52, 0
9, 46320, Note_on_c, 4, 54, 84
9, 46347, Control_c, 4, 11, 68
9, 46400, Control_c, 4, 11, 67
9, 46409, Note_on_c, 4, 54, 0
9, 46440, Note_on_c, 4, 56, 84
9, 46453, Control_c, 4, 11, 66
9, 46507, Control_c, 4, 11, 65
9, 46529, Note_on_c, 4, 56, 0
9, 46560, Control_c, 4, 11, 64
9, 46560, Note_on_c, 4, 57, 84
9, 46799, Note_on_c, 4, 57, 0
9, 47040, Note_on_c, 4, 59, 84
9, 47040, Note_on_c, 4, 62, 84
9, 47271, Note_on_c, 4, 59, 0
9, 47271, Note_on_c, 4, 62, 0
9, 47280, Note_on_c, 4, 62, 84
9, 47280, Note_on_c, 4, 59, 84
9, 47369, Note_on_c, 4, 62, 0
9, 47369, Note_on_c, 4, 59, 0
9, 47400, Note_on_c, 4, 59, 84
9, 47400, Note_on_c, 4, 62, 84
9, 47489, Note_on_c, 4, 59, 0
9, 47489, Note_on_c, 4, 62, 0
9, 47520, Note_on_c, 4, 57, 84
9, 47520, Note_on_c, 4, 60, 84
9, 47759, Note_on_c, 4, 57, 0
9, 47759, Note_on_c, 4, 60, 0
9, 48000, Control_c, 4, 11, 127
9, 48240, Note_on_c, 4, 64, 48
9, 48719, Note_on_c, 4, 64, 0
9, 48720, Note_on_c, 4, 61, 48
9, 48959, Note_on_c, 4, 61, 0
9, 48960, Note_on_c, 4, 57, 48
9, 49199, Note_on_c, 4, 57, 0
9, 49200, Note_on_c, 4, 61, 48
9, 49318, Control_c, 4, 11, 96
9, 49427, Note_on_c, 4, 61, 0
9, 49440, Note_on_c, 4, 61, 68
9, 49679, Note_on_c, 4, 61, 0
9, 49680, Note_on_c, 4, 50, 68
9, 49680, Control_c, 4, 11, 96
9, 49680, Note_on_c, 4, 59, 68
9, 49734, Control_c, 4, 11, 97
9, 49788, Control_c, 4, 11, 98
9, 49843, Control_c, 4, 11, 99
9, 49897, Control_c, 4, 11, 100
9, 49951, Control_c, 4, 11, 101
9, 50005, Control_c, 4, 11, 102
9, 50059, Control_c, 4, 11, 103
9, 50114, Control_c, 4, 11, 104
9, 50159, Note_on_c, 4, 50, 0
9, 50159, Note_on_c, 4, 59, 0
9, 50160, Note_on_c, 4, 49, 68
9, 50160, Note_on_c, 4, 57, 68
9, 50168, Control_c, 4, 11, 105
9, 50222, Control_c, 4, 11, 106
9, 50276, Control_c, 4, 11, 107
9, 50330, Control_c, 4, 11, 108
9, 50385, Control_c, 4, 11, 109
9, 50399, Note_on_c, 4, 49, 0
9, 50399, Note_on_c, 4, 57, 0
9, 50400, Note_on_c, 4, 47, 68
9, 50400, Note_on_c, 4, 56, 68
9, 50439, Control_c, 4, 11, 110
9, 50493, Control_c, 4, 11, 111
9, 50547, Control_c, 4, 11, 112
9, 50601, Control_c, 4, 11, 113
9, 50639, Note_on_c, 4, 47, 0
9, 50639, Note_on_c, 4, 56, 0
9, 50640, Note_on_c, 4, 49, 68
9, 50640, Note_on_c, 4, 57, 68
9, 50655, Control_c, 4, 11, 114
9, 50710, Control_c, 4, 11, 115
9, 50764, Control_c, 4, 11, 116
9, 50818, Control_c, 4, 11, 117
9, 50872, Control_c, 4, 11, 118
9, 50879, Note_on_c, 4, 49, 0
9, 50879, Note_on_c, 4, 57, 0
9, 50880, Note_on_c, 4, 50, 68
9, 50880, Note_on_c, 4, 59, 68
9, 50926, Control_c, 4, 11, 119
9, 50981, Control_c, 4, 11, 120
9, 51035, Control_c, 4, 11, 121
9, 51089, Control_c, 4, 11, 122
9, 51119, Note_on_c, 4, 50, 0
9, 51119, Note_on_c, 4, 59, 0
9, 51120, Note_on_c, 4, 52, 68
9, 51120, Note_on_c, 4, 61, 68
9, 51143, Control_c, 4, 11, 123
9, 51197, Control_c, 4, 11, 124
9, 51252, Control_c, 4, 11, 125
9, 51306, Control_c, 4, 11, 127
9, 51359, Note_on_c, 4, 52, 0
9, 51359, Note_on_c, 4, 61, 0
9, 51360, Note_on_c, 4, 54, 68
9, 51360, Note_on_c, 4, 62, 68
9, 51599, Note_on_c, 4, 54, 0
9, 51599, Note_on_c, 4, 62, 0
9, 51600, Note_on_c, 4, 56, 68
9, 51600, Note_on_c, 4, 64, 68
9, 51600, Control_c, 4, 11, 127
9, 51623, Control_c, 4, 11, 126
9, 51646, Control_c, 4, 11, 125
9, 51670, Control_c, 4, 11, 124
9, 51693, Control_c, 4, 11, 123
9, 51716, Control_c, 4, 11, 122
9, 51739, Control_c, 4, 11, 121
9, 51763, Control_c, 4, 11, 120
9, 51786, Control_c, 4, 11, 119
9, 51809, Control_c, 4, 11, 118
9, 51832, Control_c, 4, 11, 117
9, 51839, Note_on_c, 4, 56, 0
9, 51839, Note_on_c, 4, 64, 0
9, 51840, Note_on_c, 4, 59, 68
9, 51840, Note_on_c, 4, 62, 68
9, 51855, Control_c, 4, 11, 116
9, 51879, Control_c, 4, 11, 115
9, 51902, Control_c, 4, 11, 114
9, 51925, Control_c, 4, 11, 113
9, 51948, Control_c, 4, 11, 112
9, 51972, Control_c, 4, 11, 111
9, 51995, Control_c, 4, 11, 110
9, 52018, Control_c, 4, 11, 109
9, 52041, Control_c, 4, 11, 108
9, 52065, Control_c, 4, 11, 107
9, 52079, Note_on_c, 4, 59, 0
9, 52079, Note_on_c, 4, 62, 0
9, 52080, Note_on_c, 4, 61, 68
9, 52080, Note_on_c, 4, 57, 68
9, 52088, Control_c, 4, 11, 106
9, 52111, Control_c, 4, 11, 105
9, 52134, Control_c, 4, 11, 104
9, 52157, Control_c, 4, 11, 103
9, 52181, Control_c, 4, 11, 102
9, 52199, Note_on_c, 4, 61, 0
9, 52199, Note_on_c, 4, 57, 0
9, 52200, Note_on_c, 4, 61, 68
9, 52200, Note_on_c, 4, 64, 68
9, 52204, Control_c, 4, 11, 101
9, 52227, Control_c, 4, 11, 100
9, 52250, Control_c, 4, 11, 99
9, 52274, Control_c, 4, 11, 98
9, 52297, Control_c, 4, 11, 96
9, 52307, Note_on_c, 4, 61, 0
9, 52307, Note_on_c, 4, 64, 0
9, 52320, Note_on_c, 4, 61, 68
9, 52320, Note_on_c, 4, 64, 68
9, 52560, Control_c, 4, 11, 96
9, 52606, Control_c, 4, 11, 97
9, 52653, Control_c, 4, 11, 98
9, 52699, Control_c, 4, 11, 99
9, 52746, Control_c, 4, 11, 100
9, 52792, Control_c, 4, 11, 101
9, 52799, Note_on_c, 4, 61, 0
9, 52799, Note_on_c, 4, 64, 0
9, 52800, Note_on_c, 4, 61, 68
9, 52800, Note_on_c, 4, 57, 68
9, 52839, Control_c, 4, 11, 102
9, 52885, Control_c, 4, 11, 103
9, 52932, Control_c, 4, 11, 104
9, 52978, Control_c, 4, 11, 105
9, 53025, Control_c, 4, 11, 106
9, 53039, Note_on_c, 4, 61, 0
9, 53039, Note_on_c, 4, 57, 0
9, 53040, Note_on_c, 4, 64, 68
9, 53040, Note_on_c, 4, 61, 68
9, 53071, Control_c, 4, 11, 107
9, 53117, Control_c, 4, 11, 108
9, 53164, Control_c, 4, 11, 109
9, 53210, Control_c, 4, 11, 110
9, 53257, Control_c, 4, 11, 111
9, 53267, Note_on_c, 4, 64, 0
9, 53267, Note_on_c, 4, 61, 0
9, 53280, Note_on_c, 4, 61, 68
9, 53280, Note_on_c, 4, 64, 68
9, 53303, Control_c, 4, 11, 112
9, 53350, Control_c, 4, 11, 113
9, 53396, Control_c, 4, 11, 114
9, 53443, Control_c, 4, 11, 115
9, 53489, Control_c, 4, 11, 116
9, 53519, Note_on_c, 4, 61, 0
9, 53519, Note_on_c, 4, 64, 0
9, 53520, Note_on_c, 4, 66, 68
9, 53520, Note_on_c, 4, 62, 68
9, 53535, Control_c, 4, 11, 117
9, 53582, Control_c, 4, 11, 118
9, 53628, Control_c, 4, 11, 119
9, 53675, Control_c, 4, 11, 120
9, 53721, Control_c, 4, 11, 121
9, 53768, Control_c, 4, 11, 122
9, 53814, Control_c, 4, 11, 123
9, 53861, Control_c, 4, 11, 124
9, 53907, Control_c, 4, 11, 125
9, 53954, Control_c, 4, 11, 127
9, 53999, Note_on_c, 4, 66, 0
9, 53999, Note_on_c, 4, 62, 0
9, 54000, Note_on_c, 4, 64, 68
9, 54000, Note_on_c, 4, 61, 68
9, 54227, Note_on_c, 4, 64, 0
9, 54227, Note_on_c, 4, 61, 0
9, 54240, Note_on_c, 4, 62, 68
9, 54240, Note_on_c, 4, 59, 68
9, 54240, Control_c, 4, 11, 127
9, 54271, Control_c, 4, 11, 126
9, 54302, Control_c, 4, 11, 125
9, 54333, Control_c, 4, 11, 124
9, 54364, Control_c, 4, 11, 123
9, 54395, Control_c, 4, 11, 122
9, 54426, Control_c, 4, 11, 121
9, 54457, Control_c, 4, 11, 120
9, 54479, Note_on_c, 4, 62, 0
9, 54479, Note_on_c, 4, 59, 0
9, 54480, Note_on_c, 4, 61, 68
9, 54480, Note_on_c, 4, 57, 68
9, 54488, Control_c, 4, 11, 119
9, 54519, Control_c, 4, 11, 118
9, 54550, Control_c, 4, 11, 117
9, 54581, Control_c, 4, 11, 116
9, 54612, Control_c, 4, 11, 115
9, 54643, Control_c, 4, 11, 114
9, 54674, Control_c, 4, 11, 113
9, 54705, Control_c, 4, 11, 112
9, 54719, Note_on_c, 4, 61, 0
9, 54719, Note_on_c, 4, 57, 0
9, 54720, Note_on_c, 4, 59, 68
9, 54720, Note_on_c, 4, 56, 68
9, 54735, Control_c, 4, 11, 111
9, 54766, Control_c, 4, 11, 110
9, 54797, Control_c, 4, 11, 109
9, 54828, Control_c, 4, 11, 108
9, 54859, Control_c, 4, 11, 107
9, 54890, Control_c, 4, 11, 106
9, 54921, Control_c, 4, 11, 105
9, 54952, Control_c, 4, 11, 104
9, 54959, Note_on_c, 4, 59, 0
9, 54959, Note_on_c, 4, 56, 0
9, 54960, Note_on_c, 4, 63, 68
9, 54960, Note_on_c, 4, 54, 68
9, 54983, Control_c, 4, 11, 103
9, 55014, Control_c, 4, 11, 102
9, 55045, Control_c, 4, 11, 101
9, 55076, Control_c, 4, 11, 100
9, 55107, Control_c, 4, 11, 99
9, 55138, Control_c, 4, 11, 98
9, 55169, Control_c, 4, 11, 96
9, 55199, Note_on_c, 4, 63, 0
9, 55199, Note_on_c, 4, 54, 0
9, 55200, Note_on_c, 4, 64, 68
9, 55200, Note_on_c, 4, 56, 68
9, 55439, Note_on_c, 4, 64, 0
9, 55439, Note_on_c, 4, 56, 0
9, 55440, Note_on_c, 4, 56, 68
9, 55440, Note_on_c, 4, 52, 68
9, 55667, Note_on_c, 4, 56, 0
9, 55667, Note_on_c, 4, 52, 0
9, 55680, Note_on_c, 4, 57, 68
9, 55680, Note_on_c, 4, 54, 68
9, 56159, Note_on_c, 4, 57, 0
9, 56159, Note_on_c, 4, 54, 0
9, 56160, Note_on_c, 4, 52, 68
9, 56160, Note_on_c, 4, 56, 68
9, 56639, Note_on_c, 4, 52, 0
9, 56639, Note_on_c, 4, 56, 0
9, 56640, Note_on_c, 4, 54, 68
9, 56640, Note_on_c, 4, 57, 68
9, 57119, Note_on_c, 4, 54, 0
9, 57119, Note_on_c, 4, 57, 0
9, 57120, Note_on_c, 4, 56, 68
9, 57120, Note_on_c, 4, 52, 68
9, 57599, Note_on_c, 4, 56, 0
9, 57599, Note_on_c, 4, 52, 0
9, 57600, Note_on_c, 4, 57, 68
9, 57600, Note_on_c, 4, 54, 68
9, 58067, Note_on_c, 4, 57, 0
9, 58067, Note_on_c, 4, 54, 0
9, 58080, Note_on_c, 4, 52, 68
9, 58080, Note_on_c, 4, 56, 68
9, 58319, Note_on_c, 4, 52, 0
9, 58319, Note_on_c, 4, 56, 0
9, 58320, Note_on_c, 4, 59, 68
9, 58547, Note_on_c, 4, 59, 0
9, 58560, Note_on_c, 4, 58, 68
9, 58622, Control_c, 4, 11, 97
9, 58684, Control_c, 4, 11, 98
9, 58746, Control_c, 4, 11, 99
9, 58808, Control_c, 4, 11, 100
9, 58870, Control_c, 4, 11, 101
9, 58932, Control_c, 4, 11, 102
9, 58994, Control_c, 4, 11, 103
9, 59039, Note_on_c, 4, 58, 0
9, 59040, Note_on_c, 4, 59, 68
9, 59055, Control_c, 4, 11, 104
9, 59117, Control_c, 4, 11, 105
9, 59179, Control_c, 4, 11, 106
9, 59241, Control_c, 4, 11, 107
9, 59303, Control_c, 4, 11, 108
9, 59365, Control_c, 4, 11, 109
9, 59427, Control_c, 4, 11, 110
9, 59489, Control_c, 4, 11, 111
9, 59507, Note_on_c, 4, 59, 0
9, 59520, Note_on_c, 4, 58, 68
9, 59551, Control_c, 4, 11, 112
9, 59613, Control_c, 4, 11, 113
9, 59675, Control_c, 4, 11, 114
9, 59737, Control_c, 4, 11, 115
9, 59799, Control_c, 4, 11, 116
9, 59861, Control_c, 4, 11, 117
9, 59923, Control_c, 4, 11, 118
9, 59985, Control_c, 4, 11, 119
9, 59999, Note_on_c, 4, 58, 0
9, 60000, Note_on_c, 4, 59, 68
9, 60046, Control_c, 4, 11, 120
9, 60108, Control_c, 4, 11, 121
9, 60170, Control_c, 4, 11, 122
9, 60232, Control_c, 4, 11, 123
9, 60294, Control_c, 4, 11, 124
9, 60356, Control_c, 4, 11, 125
9, 60418, Control_c, 4, 11, 127
9, 60467, Note_on_c, 4, 59, 0
9, 60480, Note_on_c, 4, 58, 68
9, 60480, Control_c, 4, 11, 127
9, 60511, Control_c, 4, 11, 126
9, 60542, Control_c, 4, 11, 125
9, 60573, Control_c, 4, 11, 124
9, 60604, Control_c, 4, 11, 123
9, 60635, Control_c, 4, 11, 122
9, 60666, Control_c, 4, 11, 121
9, 60697, Control_c, 4, 11, 120
9, 60707, Note_on_c, 4, 58, 0
9, 60720, Note_on_c, 4, 64, 68
9, 60720, Note_on_c, 4, 49, 68
9, 60728, Control_c, 4, 11, 119
9, 60759, Control_c, 4, 11, 118
9, 60790, Control_c, 4, 11, 117
9, 60821, Control_c, 4, 11, 116
9, 60852, Control_c, 4, 11, 115
9, 60883, Control_c, 4, 11, 114
9, 60914, Control_c, 4, 11, 113
9, 60945, Control_c, 4, 11, 112
9, 60947, Note_on_c, 4, 49, 0
9, 60960, Note_on_c, 4, 50, 68
9, 60975, Control_c, 4, 11, 111
9, 61006, Control_c, 4, 11, 110
9, 61037, Control_c, 4, 11, 109
9, 61039, Note_on_c, 4, 64, 0
9, 61040, Note_on_c, 4, 62, 68
9, 61068, Control_c, 4, 11, 108
9, 61099, Control_c, 4, 11, 107
9, 61119, Note_on_c, 4, 62, 0
9, 61120, Note_on_c, 4, 61, 68
9, 61130, Control_c, 4, 11, 106
9, 61161, Control_c, 4, 11, 105
9, 61192, Control_c, 4, 11, 104
9, 61199, Note_on_c, 4, 61, 0
9, 61200, Note_on_c, 4, 64, 68
9, 61223, Control_c, 4, 11, 103
9, 61254, Control_c, 4, 11, 102
9, 61279, Note_on_c, 4, 64, 0
9, 61280, Note_on_c, 4, 62, 68
9, 61285, Control_c, 4, 11, 101
9, 61316, Control_c, 4, 11, 100
9, 61347, Control_c, 4, 11, 99
9, 61359, Note_on_c, 4, 62, 0
9, 61360, Note_on_c, 4, 54, 68
9, 61378, Control_c, 4, 11, 98
9, 61409, Control_c, 4, 11, 96
9, 61427, Note_on_c, 4, 50, 0
9, 61427, Note_on_c, 4, 54, 0
9, 61440, Note_on_c, 4, 57, 68
9, 61440, Note_on_c, 4, 49, 68
9, 61679, Note_on_c, 4, 57, 0
9, 61679, Note_on_c, 4, 49, 0
9, 61680, Note_on_c, 4, 52, 68
9, 61680, Note_on_c, 4, 59, 68
9, 61919, Note_on_c, 4, 52, 0
9, 61919, Note_on_c, 4, 59, 0
9, 61920, Note_on_c, 4, 61, 68
9, 61920, Control_c, 4, 11, 96
9, 61920, Note_on_c, 4, 57, 68
9, 61997, Control_c, 4, 11, 97
9, 62075, Control_c, 4, 11, 98
9, 62152, Control_c, 4, 11, 99
9, 62159, Note_on_c, 4, 61, 0
9, 62159, Note_on_c, 4, 57, 0
9, 62160, Note_on_c, 4, 59, 68
9, 62160, Note_on_c, 4, 62, 68
9, 62230, Control_c, 4, 11, 100
9, 62239, Note_on_c, 4, 59, 0
9, 62239, Note_on_c, 4, 62, 0
9, 62240, Note_on_c, 4, 60, 68
9, 62240, Note_on_c, 4, 63, 68
9, 62307, Control_c, 4, 11, 101
9, 62319, Note_on_c, 4, 60, 0
9, 62319, Note_on_c, 4, 63, 0
9, 62320, Note_on_c, 4, 64, 68
9, 62320, Note_on_c, 4, 61, 68
9, 62385, Control_c, 4, 11, 102
9, 62387, Note_on_c, 4, 64, 0
9, 62387, Note_on_c, 4, 61, 0
9, 62400, Note_on_c, 4, 58, 68
9, 62462, Control_c, 4, 11, 103
9, 62539, Control_c, 4, 11, 104
9, 62617, Control_c, 4, 11, 105
9, 62694, Control_c, 4, 11, 106
9, 62772, Control_c, 4, 11, 107
9, 62849, Control_c, 4, 11, 108
9, 62879, Note_on_c, 4, 58, 0
9, 62880, Note_on_c, 4, 59, 68
9, 62926, Control_c, 4, 11, 109
9, 63004, Control_c, 4, 11, 110
9, 63081, Control_c, 4, 11, 111
9, 63159, Control_c, 4, 11, 112
9, 63236, Control_c, 4, 11, 113
9, 63314, Control_c, 4, 11, 114
9, 63347, Note_on_c, 4, 59, 0
9, 63360, Note_on_c, 4, 58, 68
9, 63391, Control_c, 4, 11, 115
9, 63468, Control_c, 4, 11, 116
9, 63546, Control_c, 4, 11, 117
9, 63623, Control_c, 4, 11, 118
9, 63701, Control_c, 4, 11, 119
9, 63778, Control_c, 4, 11, 120
9, 63839, Note_on_c, 4, 58, 0
9, 63840, Note_on_c, 4, 59, 68
9, 63855, Control_c, 4, 11, 121
9, 63933, Control_c, 4, 11, 122
9, 64010, Control_c, 4, 11, 123
9, 64088, Control_c, 4, 11, 124
9, 64165, Control_c, 4, 11, 125
9, 64243, Control_c, 4, 11, 127
9, 64319, Note_on_c, 4, 59, 0
9, 64320, Note_on_c, 4, 58, 68
9, 64320, Control_c, 4, 11, 127
9, 64351, Control_c, 4, 11, 126
9, 64382, Control_c, 4, 11, 125
9, 64413, Control_c, 4, 11, 124
9, 64444, Control_c, 4, 11, 123
9, 64475, Control_c, 4, 11, 122
9, 64506, Control_c, 4, 11, 121
9, 64537, Control_c, 4, 11, 120
9, 64547, Note_on_c, 4, 58, 0
9, 64560, Note_on_c, 4, 58, 68
9, 64560, Note_on_c, 4, 64, 68
9, 64568, Control_c, 4, 11, 119
9, 64599, Control_c, 4, 11, 118
9, 64630, Control_c, 4, 11, 117
9, 64661, Control_c, 4, 11, 116
9, 64692, Control_c, 4, 11, 115
9, 64723, Control_c, 4, 11, 114
9, 64754, Control_c, 4, 11, 113
9, 64785, Control_c, 4, 11, 112
9, 64799, Note_on_c, 4, 58, 0
9, 64799, Note_on_c, 4, 64, 0
9, 64800, Note_on_c, 4, 65, 68
9, 64800, Note_on_c, 4, 57, 68
9, 64815, Control_c, 4, 11, 111
9, 64846, Control_c, 4, 11, 110
9, 64877, Control_c, 4, 11, 109
9, 64908, Control_c, 4, 11, 108
9, 64939, Control_c, 4, 11, 107
9, 64970, Control_c, 4, 11, 106
9, 65001, Control_c, 4, 11, 105
9, 65032, Control_c, 4, 11, 104
9, 65039, Note_on_c, 4, 65, 0
9, 65039, Note_on_c, 4, 57, 0
9, 65040, Note_on_c, 4, 57, 68
9, 65040, Note_on_c, 4, 53, 68
9, 65063, Control_c, 4, 11, 103
9, 65094, Control_c, 4, 11, 102
9, 65125, Control_c, 4, 11, 101
9, 65156, Control_c, 4, 11, 100
9, 65187, Control_c, 4, 11, 99
9, 65218, Control_c, 4, 11, 98
9, 65249, Control_c, 4, 11, 96
9, 65279, Note_on_c, 4, 57, 0
9, 65279, Note_on_c, 4, 53, 0
9, 65280, Note_on_c, 4, 52, 68
9, 65280, Note_on_c, 4, 55, 68
9, 65519, Note_on_c, 4, 52, 0
9, 65519, Note_on_c, 4, 55, 0
9, 65520, Note_on_c, 4, 53, 68
9, 65520, Note_on_c, 4, 59, 68
9, 65759, Note_on_c, 4, 53, 0
9, 65759, Note_on_c, 4, 59, 0
9, 65760, Note_on_c, 4, 60, 68
9, 65760, Note_on_c, 4, 52, 68
9, 65999, Note_on_c, 4, 60, 0
9, 65999, Note_on_c, 4, 52, 0
9, 66960, Control_c, 4, 11, 127
9, 67200, Note_on_c, 4, 65, 52
9, 67547, Note_on_c, 4, 65, 0
9, 67560, Note_on_c, 4, 65, 52
9, 67667, Note_on_c, 4, 65, 0
9, 67680, Note_on_c, 4, 65, 52
9, 67759, Note_on_c, 4, 65, 0
9, 67760, Note_on_c, 4, 64, 52
9, 67827, Note_on_c, 4, 64, 0
9, 67840, Note_on_c, 4, 62, 52
9, 67899, Note_on_c, 4, 62, 0
9, 67920, Note_on_c, 4, 60, 52
9, 67979, Note_on_c, 4, 60, 0
9, 68000, Note_on_c, 4, 59, 52
9, 68059, Note_on_c, 4, 59, 0
9, 68080, Note_on_c, 4, 57, 52
9, 68139, Note_on_c, 4, 57, 0
9, 68158, Control_c, 4, 11, 80
9, 68160, Note_on_c, 4, 55, 76
9, 68160, Control_c, 4, 11, 80
9, 68180, Control_c, 4, 11, 82
9, 68200, Control_c, 4, 11, 84
9, 68220, Control_c, 4, 11, 86
9, 68240, Control_c, 4, 11, 88
9, 68260, Control_c, 4, 11, 90
9, 68280, Control_c, 4, 11, 92
9, 68300, Control_c, 4, 11, 94
9, 68320, Control_c, 4, 11, 96
9, 68340, Control_c, 4, 11, 98
9, 68360, Control_c, 4, 11, 100
9, 68380, Control_c, 4, 11, 102
9, 68399, Note_on_c, 4, 55, 0
9, 68400, Control_c, 4, 11, 104
9, 68400, Note_on_c, 4, 59, 76
9, 68420, Control_c, 4, 11, 105
9, 68440, Control_c, 4, 11, 107
9, 68460, Control_c, 4, 11, 109
9, 68480, Control_c, 4, 11, 111
9, 68500, Control_c, 4, 11, 113
9, 68519, Note_on_c, 4, 59, 0
9, 68520, Note_on_c, 4, 62, 76
9, 68520, Control_c, 4, 11, 115
9, 68540, Control_c, 4, 11, 117
9, 68560, Control_c, 4, 11, 119
9, 68580, Control_c, 4, 11, 121
9, 68600, Control_c, 4, 11, 123
9, 68620, Control_c, 4, 11, 127
9, 68627, Note_on_c, 4, 62, 0
9, 68640, Note_on_c, 4, 65, 76
9, 68719, Note_on_c, 4, 65, 0
9, 68720, Note_on_c, 4, 64, 76
9, 68787, Note_on_c, 4, 64, 0
9, 68800, Note_on_c, 4, 62, 76
9, 68859, Note_on_c, 4, 62, 0
9, 68880, Note_on_c, 4, 60, 84
9, 68939, Note_on_c, 4, 60, 0
9, 68960, Note_on_c, 4, 59, 76
9, 69019, Note_on_c, 4, 59, 0
9, 69040, Note_on_c, 4, 57, 76
9, 69099, Note_on_c, 4, 57, 0
9, 69120, Note_on_c, 4, 55, 76
9, 69239, Note_on_c, 4, 55, 0
9, 71280, Note_on_c, 4, 64, 84
9, 71369, Note_on_c, 4, 64, 0
9, 71400, Note_on_c, 4, 64, 84
9, 71489, Note_on_c, 4, 64, 0
9, 71520, Note_on_c, 4, 60, 48
9, 71999, Note_on_c, 4, 60, 0
9, 72000, Note_on_c, 4, 59, 48
9, 72407, Note_on_c, 4, 59, 0
9, 72420, Note_on_c, 4, 59, 48
9, 72449, Note_on_c, 4, 59, 0
9, 72450, Note_on_c, 4, 60, 48
9, 72479, Note_on_c, 4, 60, 0
9, 72480, Note_on_c, 4, 62, 48
9, 72799, Note_on_c, 4, 62, 0
9, 72800, Note_on_c, 4, 60, 48
9, 72879, Note_on_c, 4, 60, 0
9, 72880, Note_on_c, 4, 59, 48
9, 72947, Note_on_c, 4, 59, 0
9, 72960, Note_on_c, 4, 59, 48
9, 73079, Note_on_c, 4, 59, 0
9, 73080, Note_on_c, 4, 60, 48
9, 73187, Note_on_c, 4, 60, 0
9, 73200, Note_on_c, 4, 60, 48
9, 73427, Note_on_c, 4, 60, 0
9, 73440, Note_on_c, 4, 60, 48
9, 73799, Note_on_c, 4, 60, 0
9, 73800, Note_on_c, 4, 62, 48
9, 73907, Note_on_c, 4, 62, 0
9, 73920, Note_on_c, 4, 63, 48
9, 74039, Note_on_c, 4, 63, 0
9, 74040, Note_on_c, 4, 64, 48
9, 74147, Note_on_c, 4, 64, 0
9, 74160, Note_on_c, 4, 64, 48
9, 74249, Note_on_c, 4, 64, 0
9, 74280, Note_on_c, 4, 64, 48
9, 74331, Note_on_c, 4, 64, 0
9, 74340, Note_on_c, 4, 62, 48
9, 74369, Note_on_c, 4, 62, 0
9, 74370, Note_on_c, 4, 64, 48
9, 74399, Note_on_c, 4, 64, 0
9, 74400, Note_on_c, 4, 65, 48
9, 74719, Note_on_c, 4, 65, 0
9, 74720, Note_on_c, 4, 64, 48
9, 74799, Note_on_c, 4, 64, 0
9, 74800, Note_on_c, 4, 62, 48
9, 74867, Note_on_c, 4, 62, 0
9, 74880, Note_on_c, 4, 62, 48
9, 74999, Note_on_c, 4, 62, 0
9, 75000, Note_on_c, 4, 64, 48
9, 75107, Note_on_c, 4, 64, 0
9, 75120, Note_on_c, 4, 64, 48
9, 75347, Note_on_c, 4, 64, 0
9, 75360, Note_on_c, 4, 64, 48
9, 75719, Note_on_c, 4, 64, 0
9, 75720, Note_on_c, 4, 66, 48
9, 75839, Note_on_c, 4, 66, 0
9, 75840, Note_on_c, 4, 64, 48
9, 76079, Note_on_c, 4, 64, 0
9, 76080, Note_on_c, 4, 63, 48
9, 76199, Note_on_c, 4, 63, 0
9, 76320, Note_on_c, 4, 62, 48
9, 76679, Note_on_c, 4, 62, 0
9, 76680, Note_on_c, 4, 64, 48
9, 76799, Note_on_c, 4, 64, 0
9, 76800, Note_on_c, 4, 62, 48
9, 76919, Note_on_c, 4, 62, 0
9, 76920, Note_on_c, 4, 61, 48
9, 77039, Note_on_c, 4, 61, 0
9, 77040, Note_on_c, 4, 60, 48
9, 77159, Note_on_c, 4, 60, 0
9, 77280, Note_on_c, 4, 60, 48
9, 77759, Note_on_c, 4, 60, 0
9, 77760, Note_on_c, 4, 59, 48
9, 77999, Note_on_c, 4, 59, 0
9, 78000, Note_on_c, 4, 60, 48
9, 78167, Note_on_c, 4, 60, 0
9, 78180, Note_on_c, 4, 59, 48
9, 78209, Note_on_c, 4, 59, 0
9, 78210, Note_on_c, 4, 60, 48
9, 78239, Note_on_c, 4, 60, 0
9, 78240, Note_on_c, 4, 62, 48
9, 78559, Note_on_c, 4, 62, 0
9, 78560, Note_on_c, 4, 60, 48
9, 78639, Note_on_c, 4, 60, 0
9, 78640, Note_on_c, 4, 59, 48
9, 78707, Note_on_c, 4, 59, 0
9, 78720, Note_on_c, 4, 57, 48
9, 78779, Note_on_c, 4, 57, 0
9, 78800, Note_on_c, 4, 57, 48
9, 78879, Note_on_c, 4, 57, 0
9, 78880, Note_on_c, 4, 59, 48
9, 78959, Note_on_c, 4, 59, 0
9, 78960, Note_on_c, 4, 60, 48
9, 79019, Note_on_c, 4, 60, 0
9, 79040, Note_on_c, 4, 60, 48
9, 79119, Note_on_c, 4, 60, 0
9, 79120, Note_on_c, 4, 62, 48
9, 79199, Note_on_c, 4, 62, 0
9, 79200, Note_on_c, 4, 64, 48
9, 79559, Note_on_c, 4, 64, 0
9, 79560, Note_on_c, 4, 66, 48
9, 79679, Note_on_c, 4, 66, 0
9, 79680, Note_on_c, 4, 64, 48
9, 79919, Note_on_c, 4, 64, 0
9, 79920, Note_on_c, 4, 63, 48
9, 80039, Note_on_c, 4, 63, 0
9, 80160, Note_on_c, 4, 62, 48
9, 80239, Note_on_c, 4, 62, 0
9, 80240, Note_on_c, 4, 59, 48
9, 80319, Note_on_c, 4, 59, 0
9, 80320, Note_on_c, 4, 61, 48
9, 80399, Note_on_c, 4, 61, 0
9, 80400, Note_on_c, 4, 62, 48
9, 80479, Note_on_c, 4, 62, 0
9, 80480, Note_on_c, 4, 64, 48
9, 80559, Note_on_c, 4, 64, 0
9, 80560, Note_on_c, 4, 62, 48
9, 80627, Note_on_c, 4, 62, 0
9, 80640, Note_on_c, 4, 62, 48
9, 80759, Note_on_c, 4, 62, 0
9, 80760, Note_on_c, 4, 61, 48
9, 80879, Note_on_c, 4, 61, 0
9, 80880, Note_on_c, 4, 60, 48
9, 80999, Note_on_c, 4, 60, 0
9, 81120, Note_on_c, 4, 60, 48
9, 81599, Note_on_c, 4, 60, 0
9, 81600, Note_on_c, 4, 59, 48
9, 81839, Note_on_c, 4, 59, 0
9, 81840, Note_on_c, 4, 60, 48
9, 82007, Note_on_c, 4, 60, 0
9, 82020, Note_on_c, 4, 59, 48
9, 82049, Note_on_c, 4, 59, 0
9, 82050, Note_on_c, 4, 60, 48
9, 82079, Note_on_c, 4, 60, 0
9, 82080, Note_on_c, 4, 62, 48
9, 82399, Note_on_c, 4, 62, 0
9, 82400, Note_on_c, 4, 60, 48
9, 82479, Note_on_c, 4, 60, 0
9, 82480, Note_on_c, 4, 59, 48
9, 82547, Note_on_c, 4, 59, 0
9, 82560, Note_on_c, 4, 57, 48
9, 82799, Note_on_c, 4, 57, 0
9, 83040, Note_on_c, 4, 57, 48
9, 83359, Note_on_c, 4, 57, 0
9, 83360, Note_on_c, 4, 59, 48
9, 83439, Note_on_c, 4, 59, 0
9, 83440, Note_on_c, 4, 61, 48
9, 83507, Note_on_c, 4, 61, 0
9, 83520, Note_on_c, 4, 61, 48
9, 83639, Note_on_c, 4, 61, 0
9, 83640, Note_on_c, 4, 62, 48
9, 83747, Note_on_c, 4, 62, 0
9, 83760, Note_on_c, 4, 62, 48
9, 83987, Note_on_c, 4, 62, 0
9, 84000, Note_on_c, 4, 62, 48
9, 84319, Note_on_c, 4, 62, 0
9, 84320, Note_on_c, 4, 64, 48
9, 84399, Note_on_c, 4, 64, 0
9, 84400, Note_on_c, 4, 65, 48
9, 84467, Note_on_c, 4, 65, 0
9, 84480, Note_on_c, 4, 65, 52
9, 84599, Note_on_c, 4, 65, 0
9, 84600, Note_on_c, 4, 64, 52
9, 84707, Note_on_c, 4, 64, 0
9, 84720, Note_on_c, 4, 64, 52
9, 84947, Note_on_c, 4, 64, 0
9, 84960, Note_on_c, 4, 57, 52
9, 85027, Note_on_c, 4, 57, 0
9, 85040, Note_on_c, 4, 57, 52
9, 85107, Note_on_c, 4, 57, 0
9, 85120, Note_on_c, 4, 57, 53
9, 85187, Note_on_c, 4, 57, 0
9, 85200, Note_on_c, 4, 57, 54
9, 85279, Note_on_c, 4, 57, 0
9, 85280, Note_on_c, 4, 59, 55
9, 85359, Note_on_c, 4, 59, 0
9, 85360, Note_on_c, 4, 61, 56
9, 85427, Note_on_c, 4, 61, 0
9, 85440, Note_on_c, 4, 61, 57
9, 85519, Note_on_c, 4, 61, 0
9, 85520, Note_on_c, 4, 62, 58
9, 85587, Note_on_c, 4, 62, 0
9, 85600, Note_on_c, 4, 62, 59
9, 85659, Note_on_c, 4, 62, 0
9, 85680, Note_on_c, 4, 62, 60
9, 85907, Note_on_c, 4, 62, 0
9, 85920, Note_on_c, 4, 62, 62
9, 85987, Note_on_c, 4, 62, 0
9, 86000, Note_on_c, 4, 62, 63
9, 86067, Note_on_c, 4, 62, 0
9, 86080, Note_on_c, 4, 62, 64
9, 86147, Note_on_c, 4, 62, 0
9, 86160, Note_on_c, 4, 62, 65
9, 86239, Note_on_c, 4, 62, 0
9, 86240, Note_on_c, 4, 64, 66
9, 86319, Note_on_c, 4, 64, 0
9, 86320, Note_on_c, 4, 65, 67
9, 86387, Note_on_c, 4, 65, 0
9, 86400, Note_on_c, 4, 65, 68
9, 86479, Note_on_c, 4, 65, 0
9, 86480, Note_on_c, 4, 64, 68
9, 86547, Note_on_c, 4, 64, 0
9, 86560, Note_on_c, 4, 64, 67
9, 86619, Note_on_c, 4, 64, 0
9, 86880, Note_on_c, 4, 64, 64
9, 86959, Note_on_c, 4, 64, 0
9, 86960, Note_on_c, 4, 65, 64
9, 87027, Note_on_c, 4, 65, 0
9, 87040, Note_on_c, 4, 65, 63
9, 87099, Note_on_c, 4, 65, 0
9, 87360, Note_on_c, 4, 65, 60
9, 87439, Note_on_c, 4, 65, 0
9, 87440, Note_on_c, 4, 64, 60
9, 87507, Note_on_c, 4, 64, 0
9, 87520, Note_on_c, 4, 64, 59
9, 87579, Note_on_c, 4, 64, 0
9, 99600, Control_c, 4, 11, 48
9, 99840, Note_on_c, 4, 62, 84
9, 100073, Note_on_c, 4, 62, 0
9, 100080, Note_on_c, 4, 62, 84
9, 100169, Note_on_c, 4, 62, 0
9, 100200, Note_on_c, 4, 64, 84
9, 100289, Note_on_c, 4, 64, 0
9, 100320, Note_on_c, 4, 65, 84
9, 100320, Control_c, 4, 11, 48
9, 100344, Control_c, 4, 11, 49
9, 100369, Control_c, 4, 11, 50
9, 100393, Control_c, 4, 11, 51
9, 100417, Control_c, 4, 11, 52
9, 100442, Control_c, 4, 11, 53
9, 100466, Control_c, 4, 11, 54
9, 100490, Control_c, 4, 11, 55
9, 100514, Control_c, 4, 11, 56
9, 100539, Control_c, 4, 11, 57
9, 100563, Control_c, 4, 11, 58
9, 100587, Control_c, 4, 11, 59
9, 100612, Control_c, 4, 11, 60
9, 100636, Control_c, 4, 11, 61
9, 100660, Control_c, 4, 11, 62
9, 100685, Control_c, 4, 11, 63
9, 100709, Control_c, 4, 11, 64
9, 100733, Control_c, 4, 11, 65
9, 100757, Control_c, 4, 11, 66
9, 100782, Control_c, 4, 11, 67
9, 100806, Control_c, 4, 11, 68
9, 100830, Control_c, 4, 11, 69
9, 100855, Control_c, 4, 11, 70
9, 100879, Control_c, 4, 11, 71
9, 100903, Control_c, 4, 11, 72
9, 100928, Control_c, 4, 11, 73
9, 100952, Control_c, 4, 11, 74
9, 100976, Control_c, 4, 11, 75
9, 101001, Control_c, 4, 11, 76
9, 101025, Control_c, 4, 11, 77
9, 101049, Control_c, 4, 11, 78
9, 101073, Control_c, 4, 11, 79
9, 101098, Control_c, 4, 11, 80
9, 101122, Control_c, 4, 11, 81
9, 101146, Control_c, 4, 11, 82
9, 101171, Control_c, 4, 11, 83
9, 101195, Control_c, 4, 11, 84
9, 101219, Control_c, 4, 11, 85
9, 101244, Control_c, 4, 11, 86
9, 101268, Control_c, 4, 11, 87
9, 101292, Control_c, 4, 11, 88
9, 101316, Control_c, 4, 11, 89
9, 101341, Control_c, 4, 11, 90
9, 101365, Control_c, 4, 11, 91
9, 101389, Control_c, 4, 11, 92
9, 101414, Control_c, 4, 11, 93
9, 101438, Control_c, 4, 11, 94
9, 101462, Control_c, 4, 11, 95
9, 101487, Control_c, 4, 11, 96
9, 101511, Control_c, 4, 11, 97
9, 101535, Control_c, 4, 11, 98
9, 101559, Control_c, 4, 11, 99
9, 101584, Control_c, 4, 11, 100
9, 101608, Control_c, 4, 11, 101
9, 101632, Control_c, 4, 11, 102
9, 101657, Control_c, 4, 11, 103
9, 101681, Control_c, 4, 11, 104
9, 101705, Control_c, 4, 11, 105
9, 101730, Control_c, 4, 11, 106
9, 101754, Control_c, 4, 11, 107
9, 101778, Control_c, 4, 11, 108
9, 101803, Control_c, 4, 11, 109
9, 101827, Control_c, 4, 11, 110
9, 101851, Control_c, 4, 11, 111
9, 101867, Note_on_c, 4, 65, 0
9, 101875, Control_c, 4, 11, 112
9, 101880, Note_on_c, 4, 64, 84
9, 101900, Control_c, 4, 11, 113
9, 101924, Control_c, 4, 11, 114
9, 101939, Note_on_c, 4, 64, 0
9, 101940, Note_on_c, 4, 63, 84
9, 101948, Control_c, 4, 11, 115
9, 101973, Control_c, 4, 11, 116
9, 101997, Control_c, 4, 11, 117
9, 101999, Note_on_c, 4, 63, 0
9, 102000, Note_on_c, 4, 64, 84
9, 102021, Control_c, 4, 11, 118
9, 102044, Note_on_c, 4, 64, 0
9, 102046, Control_c, 4, 11, 119
9, 102060, Note_on_c, 4, 52, 84
9, 102070, Control_c, 4, 11, 120
9, 102094, Control_c, 4, 11, 121
9, 102104, Note_on_c, 4, 52, 0
9, 102118, Control_c, 4, 11, 122
9, 102120, Note_on_c, 4, 54, 84
9, 102143, Control_c, 4, 11, 123
9, 102164, Note_on_c, 4, 54, 0
9, 102167, Control_c, 4, 11, 124
9, 102180, Note_on_c, 4, 56, 84
9, 102191, Control_c, 4, 11, 125
9, 102216, Control_c, 4, 11, 127
9, 102224, Note_on_c, 4, 56, 0
9, 102240, Note_on_c, 4, 57, 84
9, 102293, Note_on_c, 4, 57, 0
9, 102300, Note_on_c, 4, 59, 84
9, 102353, Note_on_c, 4, 59, 0
9, 102360, Note_on_c, 4, 60, 84
9, 102413, Note_on_c, 4, 60, 0
9, 102420, Note_on_c, 4, 59, 84
9, 102473, Note_on_c, 4, 59, 0
9, 102480, Note_on_c, 4, 57, 84
9, 102533, Note_on_c, 4, 57, 0
9, 102540, Note_on_c, 4, 60, 84
9, 102593, Note_on_c, 4, 60, 0
9, 102600, Note_on_c, 4, 59, 84
9, 102653, Note_on_c, 4, 59, 0
9, 102660, Note_on_c, 4, 57, 84
9, 102713, Note_on_c, 4, 57, 0
9, 102720, Note_on_c, 4, 52, 84
9, 102773, Note_on_c, 4, 52, 0
9, 102780, Note_on_c, 4, 54, 84
9, 102833, Note_on_c, 4, 54, 0
9, 102840, Note_on_c, 4, 56, 84
9, 102893, Note_on_c, 4, 56, 0
9, 102900, Note_on_c, 4, 57, 84
9, 102953, Note_on_c, 4, 57, 0
9, 102960, Note_on_c, 4, 59, 84
9, 103013, Note_on_c, 4, 59, 0
9, 103020, Note_on_c, 4, 60, 84
9, 103073, Note_on_c, 4, 60, 0
9, 103080, Note_on_c, 4, 62, 84
9, 103133, Note_on_c, 4, 62, 0
9, 103140, Note_on_c, 4, 64, 84
9, 103193, Note_on_c, 4, 64, 0
9, 103200, Note_on_c, 4, 62, 84
9, 103253, Note_on_c, 4, 62, 0
9, 103260, Note_on_c, 4, 59, 84
9, 103313, Note_on_c, 4, 59, 0
9, 103320, Note_on_c, 4, 60, 84
9, 103373, Note_on_c, 4, 60, 0
9, 103380, Note_on_c, 4, 62, 84
9, 103433, Note_on_c, 4, 62, 0
9, 103440, Note_on_c, 4, 64, 84
9, 103493, Note_on_c, 4, 64, 0
9, 103500, Note_on_c, 4, 62, 84
9, 103553, Note_on_c, 4, 62, 0
9, 103560, Note_on_c, 4, 60, 84
9, 103613, Note_on_c, 4, 60, 0
9, 103620, Note_on_c, 4, 59, 84
9, 103673, Note_on_c, 4, 59, 0
9, 103680, Note_on_c, 4, 60, 84
9, 103733, Note_on_c, 4, 60, 0
9, 103740, Note_on_c, 4, 59, 84
9, 103793, Note_on_c, 4, 59, 0
9, 103800, Note_on_c, 4, 60, 84
9, 103853, Note_on_c, 4, 60, 0
9, 103860, Note_on_c, 4, 62, 84
9, 103913, Note_on_c, 4, 62, 0
9, 103920, Note_on_c, 4, 64, 84
9, 103973, Note_on_c, 4, 64, 0
9, 103980, Note_on_c, 4, 52, 84
9, 104033, Note_on_c, 4, 52, 0
9, 104040, Note_on_c, 4, 54, 84
9, 104093, Note_on_c, 4, 54, 0
9, 104100, Note_on_c, 4, 56, 84
9, 104153, Note_on_c, 4, 56, 0
9, 104160, Note_on_c, 4, 57, 84
9, 104213, Note_on_c, 4, 57, 0
9, 104220, Note_on_c, 4, 59, 84
9, 104273, Note_on_c, 4, 59, 0
9, 104280, Note_on_c, 4, 60, 84
9, 104333, Note_on_c, 4, 60, 0
9, 104340, Note_on_c, 4, 59, 84
9, 104393, Note_on_c, 4, 59, 0
9, 104400, Note_on_c, 4, 57, 84
9, 104453, Note_on_c, 4, 57, 0
9, 104460, Note_on_c, 4, 60, 84
9, 104513, Note_on_c, 4, 60, 0
9, 104520, Note_on_c, 4, 59, 84
9, 104573, Note_on_c, 4, 59, 0
9, 104580, Note_on_c, 4, 57, 84
9, 104633, Note_on_c, 4, 57, 0
9, 104640, Note_on_c, 4, 52, 84
9, 104693, Note_on_c, 4, 52, 0
9, 104700, Note_on_c, 4, 54, 84
9, 104753, Note_on_c, 4, 54, 0
9, 104760, Note_on_c, 4, 56, 84
9, 104813, Note_on_c, 4, 56, 0
9, 104820, Note_on_c, 4, 57, 84
9, 104873, Note_on_c, 4, 57, 0
9, 104880, Note_on_c, 4, 59, 84
9, 104933, Note_on_c, 4, 59, 0
9, 104940, Note_on_c, 4, 60, 84
9, 104993, Note_on_c, 4, 60, 0
9, 105000, Note_on_c, 4, 62, 84
9, 105053, Note_on_c, 4, 62, 0
9, 105060, Note_on_c, 4, 64, 84
9, 105113, Note_on_c, 4, 64, 0
9, 105120, Note_on_c, 4, 62, 84
9, 105173, Note_on_c, 4, 62, 0
9, 105180, Note_on_c, 4, 59, 84
9, 105233, Note_on_c, 4, 59, 0
9, 105240, Note_on_c, 4, 60, 84
9, 105293, Note_on_c, 4, 60, 0
9, 105300, Note_on_c, 4, 62, 84
9, 105353, Note_on_c, 4, 62, 0
9, 105360, Note_on_c, 4, 64, 84
9, 105413, Note_on_c, 4, 64, 0
9, 105420, Note_on_c, 4, 62, 84
9, 105473, Note_on_c, 4, 62, 0
9, 105480, Note_on_c, 4, 60, 84
9, 105533, Note_on_c, 4, 60, 0
9, 105540, Note_on_c, 4, 59, 84
9, 105593, Note_on_c, 4, 59, 0
9, 105600, Note_on_c, 4, 57, 84
9, 105839, Note_on_c, 4, 57, 0
9, 106080, Note_on_c, 4, 59, 52
9, 106080, Note_on_c, 4, 62, 52
9, 106307, Note_on_c, 4, 59, 0
9, 106307, Note_on_c, 4, 62, 0
9, 106320, Note_on_c, 4, 59, 52
9, 106320, Note_on_c, 4, 62, 52
9, 106409, Note_on_c, 4, 59, 0
9, 106409, Note_on_c, 4, 62, 0
9, 106440, Note_on_c, 4, 62, 52
9, 106440, Note_on_c, 4, 59, 52
9, 106529, Note_on_c, 4, 62, 0
9, 106529, Note_on_c, 4, 59, 0
9, 106560, Note_on_c, 4, 60, 52
9, 106560, Note_on_c, 4, 57, 52
9, 106679, Note_on_c, 4, 60, 0
9, 106679, Note_on_c, 4, 57, 0
9, 107280, Note_on_c, 4, 64, 48
9, 107759, Note_on_c, 4, 64, 0
9, 107760, Note_on_c, 4, 61, 48
9, 107999, Note_on_c, 4, 61, 0
9, 108000, Note_on_c, 4, 57, 48
9, 108239, Note_on_c, 4, 57, 0
9, 108240, Note_on_c, 4, 61, 48
9, 108467, Note_on_c, 4, 61, 0
9, 108478, Control_c, 4, 11, 96
9, 108480, Note_on_c, 4, 61, 68
9, 108719, Note_on_c, 4, 61, 0
9, 108720, Control_c, 4, 11, 96
9, 108720, Note_on_c, 4, 50, 68
9, 108720, Note_on_c, 4, 59, 68
9, 108759, Control_c, 4, 11, 97
9, 108797, Control_c, 4, 11, 98
9, 108836, Control_c, 4, 11, 99
9, 108875, Control_c, 4, 11, 100
9, 108914, Control_c, 4, 11, 101
9, 108952, Control_c, 4, 11, 102
9, 108991, Control_c, 4, 11, 103
9, 109030, Control_c, 4, 11, 104
9, 109068, Control_c, 4, 11, 105
9, 109107, Control_c, 4, 11, 106
9, 109146, Control_c, 4, 11, 107
9, 109185, Control_c, 4, 11, 108
9, 109199, Note_on_c, 4, 50, 0
9, 109199, Note_on_c, 4, 59, 0
9, 109200, Note_on_c, 4, 49, 68
9, 109200, Note_on_c, 4, 57, 68
9, 109223, Control_c, 4, 11, 109
9, 109262, Control_c, 4, 11, 110
9, 109301, Control_c, 4, 11, 111
9, 109339, Control_c, 4, 11, 112
9, 109378, Control_c, 4, 11, 113
9, 109417, Control_c, 4, 11, 114
9, 109439, Note_on_c, 4, 49, 0
9, 109439, Note_on_c, 4, 57, 0
9, 109440, Note_on_c, 4, 47, 68
9, 109440, Note_on_c, 4, 56, 68
9, 109455, Control_c, 4, 11, 115
9, 109494, Control_c, 4, 11, 116
9, 109533, Control_c, 4, 11, 117
9, 109572, Control_c, 4, 11, 118
9, 109610, Control_c, 4, 11, 119
9, 109649, Control_c, 4, 11, 120
9, 109679, Note_on_c, 4, 47, 0
9, 109679, Note_on_c, 4, 56, 0
9, 109680, Note_on_c, 4, 57, 68
9, 109680, Note_on_c, 4, 49, 68
9, 109688, Control_c, 4, 11, 121
9, 109726, Control_c, 4, 11, 122
9, 109765, Control_c, 4, 11, 123
9, 109804, Control_c, 4, 11, 124
9, 109843, Control_c, 4, 11, 125
9, 109881, Control_c, 4, 11, 127
9, 109919, Note_on_c, 4, 57, 0
9, 109919, Note_on_c, 4, 49, 0
9, 109920, Note_on_c, 4, 59, 68
9, 109920, Note_on_c, 4, 50, 68
9, 110159, Note_on_c, 4, 59, 0
9, 110159, Note_on_c, 4, 50, 0
9, 110160, Note_on_c, 4, 52, 68
9, 110160, Note_on_c, 4, 61, 68
9, 110160, Control_c, 4, 11, 127
9, 110199, Control_c, 4, 11, 126
9, 110237, Control_c, 4, 11, 125
9, 110276, Control_c, 4, 11, 124
9, 110315, Control_c, 4, 11, 123
9, 110354, Control_c, 4, 11, 122
9, 110392, Control_c, 4, 11, 121
9, 110399, Note_on_c, 4, 52, 0
9, 110399, Note_on_c, 4, 61, 0
9, 110400, Note_on_c, 4, 62, 68
9, 110400, Note_on_c, 4, 54, 68
9, 110431, Control_c, 4, 11, 120
9, 110470, Control_c, 4, 11, 119
9, 110508, Control_c, 4, 11, 118
9, 110547, Control_c, 4, 11, 117
9, 110586, Control_c, 4, 11, 116
9, 110625, Control_c, 4, 11, 115
9, 110639, Note_on_c, 4, 62, 0
9, 110639, Note_on_c, 4, 54, 0
9, 110640, Note_on_c, 4, 64, 68
9, 110640, Note_on_c, 4, 56, 68
9, 110663, Control_c, 4, 11, 114
9, 110702, Control_c, 4, 11, 113
9, 110741, Control_c, 4, 11, 112
9, 110779, Control_c, 4, 11, 111
9, 110818, Control_c, 4, 11, 110
9, 110857, Control_c, 4, 11, 109
9, 110879, Note_on_c, 4, 64, 0
9, 110879, Note_on_c, 4, 56, 0
9, 110880, Note_on_c, 4, 62, 68
9, 110880, Note_on_c, 4, 59, 68
9, 110895, Control_c, 4, 11, 108
9, 110934, Control_c, 4, 11, 107
9, 110973, Control_c, 4, 11, 106
9, 111012, Control_c, 4, 11, 105
9, 111050, Control_c, 4, 11, 104
9, 111089, Control_c, 4, 11, 103
9, 111119, Note_on_c, 4, 62, 0
9, 111119, Note_on_c, 4, 59, 0
9, 111120, Note_on_c, 4, 57, 68
9, 111120, Note_on_c, 4, 61, 68
9, 111128, Control_c, 4, 11, 102
9, 111166, Control_c, 4, 11, 101
9, 111205, Control_c, 4, 11, 100
9, 111239, Note_on_c, 4, 57, 0
9, 111239, Note_on_c, 4, 61, 0
9, 111240, Note_on_c, 4, 61, 68
9, 111240, Note_on_c, 4, 64, 68
9, 111244, Control_c, 4, 11, 99
9, 111283, Control_c, 4, 11, 98
9, 111321, Control_c, 4, 11, 96
9, 111347, Note_on_c, 4, 61, 0
9, 111347, Note_on_c, 4, 64, 0
9, 111360, Control_c, 4, 11, 96
9, 111360, Note_on_c, 4, 64, 68
9, 111360, Note_on_c, 4, 61, 68
9, 111422, Control_c, 4, 11, 97
9, 111484, Control_c, 4, 11, 98
9, 111546, Control_c, 4, 11, 99
9, 111608, Control_c, 4, 11, 100
9, 111670, Control_c, 4, 11, 101
9, 111732, Control_c, 4, 11, 102
9, 111794, Control_c, 4, 11, 103
9, 111839, Note_on_c, 4, 64, 0
9, 111839, Note_on_c, 4, 61, 0
9, 111840, Note_on_c, 4, 61, 68
9, 111840, Note_on_c, 4, 57, 68
9, 111855, Control_c, 4, 11, 104
9, 111917, Control_c, 4, 11, 105
9, 111979, Control_c, 4, 11, 106
9, 112041, Control_c, 4, 11, 107
9, 112079, Note_on_c, 4, 61, 0
9, 112079, Note_on_c, 4, 57, 0
9, 112080, Note_on_c, 4, 61, 68
9, 112080, Note_on_c, 4, 64, 68
9, 112103, Control_c, 4, 11, 108
9, 112165, Control_c, 4, 11, 109
9, 112227, Control_c, 4, 11, 110
9, 112289, Control_c, 4, 11, 111
9, 112307, Note_on_c, 4, 61, 0
9, 112307, Note_on_c, 4, 64, 0
9, 112320, Note_on_c, 4, 64, 68
9, 112320, Note_on_c, 4, 61, 68
9, 112351, Control_c, 4, 11, 112
9, 112413, Control_c, 4, 11, 113
9, 112475, Control_c, 4, 11, 114
9, 112537, Control_c, 4, 11, 115
9, 112559, Note_on_c, 4, 64, 0
9, 112559, Note_on_c, 4, 61, 0
9, 112560, Note_on_c, 4, 62, 68
9, 112560, Note_on_c, 4, 66, 68
9, 112599, Control_c, 4, 11, 116
9, 112661, Control_c, 4, 11, 117
9, 112723, Control_c, 4, 11, 118
9, 112785, Control_c, 4, 11, 119
9, 112846, Control_c, 4, 11, 120
9, 112908, Control_c, 4, 11, 121
9, 112970, Control_c, 4, 11, 122
9, 113032, Control_c, 4, 11, 123
9, 113039, Note_on_c, 4, 62, 0
9, 113039, Note_on_c, 4, 66, 0
9, 113040, Note_on_c, 4, 61, 68
9, 113040, Note_on_c, 4, 64, 68
9, 113094, Control_c, 4, 11, 124
9, 113156, Control_c, 4, 11, 125
9, 113218, Control_c, 4, 11, 127
9, 113279, Note_on_c, 4, 61, 0
9, 113279, Note_on_c, 4, 64, 0
9, 113280, Note_on_c, 4, 54, 68
9, 113280, Control_c, 4, 11, 127
9, 113280, Note_on_c, 4, 62, 68
9, 113311, Control_c, 4, 11, 126
9, 113342, Control_c, 4, 11, 125
9, 113373, Control_c, 4, 11, 124
9, 113404, Control_c, 4, 11, 123
9, 113435, Control_c, 4, 11, 122
9, 113466, Control_c, 4, 11, 121
9, 113497, Control_c, 4, 11, 120
9, 113519, Note_on_c, 4, 54, 0
9, 113519, Note_on_c, 4, 62, 0
9, 113520, Note_on_c, 4, 52, 68
9, 113520, Note_on_c, 4, 61, 68
9, 113528, Control_c, 4, 11, 119
9, 113559, Control_c, 4, 11, 118
9, 113590, Control_c, 4, 11, 117
9, 113621, Control_c, 4, 11, 116
9, 113652, Control_c, 4, 11, 115
9, 113683, Control_c, 4, 11, 114
9, 113714, Control_c, 4, 11, 113
9, 113745, Control_c, 4, 11, 112
9, 113759, Note_on_c, 4, 52, 0
9, 113759, Note_on_c, 4, 61, 0
9, 113760, Note_on_c, 4, 54, 68
9, 113760, Note_on_c, 4, 62, 68
9, 113775, Control_c, 4, 11, 111
9, 113806, Control_c, 4, 11, 110
9, 113837, Control_c, 4, 11, 109
9, 113868, Control_c, 4, 11, 108
9, 113899, Control_c, 4, 11, 107
9, 113930, Control_c, 4, 11, 106
9, 113961, Control_c, 4, 11, 105
9, 113992, Control_c, 4, 11, 104
9, 113999, Note_on_c, 4, 54, 0
9, 113999, Note_on_c, 4, 62, 0
9, 114000, Note_on_c, 4, 64, 68
9, 114000, Note_on_c, 4, 56, 68
9, 114023, Control_c, 4, 11, 103
9, 114054, Control_c, 4, 11, 102
9, 114085, Control_c, 4, 11, 101
9, 114116, Control_c, 4, 11, 100
9, 114147, Control_c, 4, 11, 99
9, 114178, Control_c, 4, 11, 98
9, 114209, Control_c, 4, 11, 96
9, 114239, Note_on_c, 4, 64, 0
9, 114239, Note_on_c, 4, 56, 0
9, 114240, Note_on_c, 4, 61, 68
9, 114240, Note_on_c, 4, 57, 68
9, 114707, Note_on_c, 4, 61, 0
9, 114707, Note_on_c, 4, 57, 0
9, 114720, Control_c, 4, 11, 96
9, 114720, Note_on_c, 4, 54, 68
9, 114720, Note_on_c, 4, 62, 68
9, 114810, Control_c, 4, 11, 95
9, 114900, Control_c, 4, 11, 94
9, 114959, Note_on_c, 4, 54, 0
9, 114959, Note_on_c, 4, 62, 0
9, 114960, Note_on_c, 4, 64, 68
9, 114960, Note_on_c, 4, 56, 68
9, 114990, Control_c, 4, 11, 93
9, 115080, Control_c, 4, 11, 92
9, 115170, Control_c, 4, 11, 91
9, 115199, Note_on_c, 4, 64, 0
9, 115199, Note_on_c, 4, 56, 0
9, 115200, Note_on_c, 4, 61, 68
9, 115200, Note_on_c, 4, 57, 68
9, 115260, Control_c, 4, 11, 90
9, 115350, Control_c, 4, 11, 89
9, 115440, Control_c, 4, 11, 88
9, 115530, Control_c, 4, 11, 87
9, 115620, Control_c, 4, 11, 86
9, 115667, Note_on_c, 4, 61, 0
9, 115667, Note_on_c, 4, 57, 0
9, 115680, Note_on_c, 4, 54, 68
9, 115680, Note_on_c, 4, 62, 68
9, 115710, Control_c, 4, 11, 85
9, 115800, Control_c, 4, 11, 84
9, 115890, Control_c, 4, 11, 83
9, 115919, Note_on_c, 4, 54, 0
9, 115919, Note_on_c, 4, 62, 0
9, 115920, Note_on_c, 4, 64, 68
9, 115920, Note_on_c, 4, 56, 68
9, 115980, Control_c, 4, 11, 82
9, 116070, Control_c, 4, 11, 80
9, 116147, Note_on_c, 4, 64, 0
9, 116147, Note_on_c, 4, 56, 0
9, 116160, Note_on_c, 4, 45, 68
9, 116160, Note_on_c, 4, 57, 68
9, 116393, Note_on_c, 4, 45, 0
9, 116393, Note_on_c, 4, 57, 0
9, 116400, Note_on_c, 4, 57, 68
9, 116400, Note_on_c, 4, 45, 68
9, 116489, Note_on_c, 4, 57, 0
9, 116489, Note_on_c, 4, 45, 0
9, 116520, Note_on_c, 4, 57, 68
9, 116520, Note_on_c, 4, 45, 68
9, 116609, Note_on_c, 4, 57, 0
9, 116609, Note_on_c, 4, 45, 0
9, 116640, Note_on_c, 4, 57, 68
9, 116640, Note_on_c, 4, 45, 68
9, 116849, Note_on_c, 4, 57, 0
9, 116849, Note_on_c, 4, 45, 0
9, 116880, Note_on_c, 4, 45, 68
9, 116880, Note_on_c, 4, 57, 68
9, 117089, Note_on_c, 4, 45, 0
9, 117089, Note_on_c, 4, 57, 0
9, 117120, Note_on_c, 4, 57, 68
9, 117120, Note_on_c, 4, 45, 68
9, 117353, Note_on_c, 4, 57, 0
9, 117353, Note_on_c, 4, 45, 0
9, 117360, Note_on_c, 4, 45, 68
9, 117360, Note_on_c, 4, 57, 68
9, 117449, Note_on_c, 4, 45, 0
9, 117449, Note_on_c, 4, 57, 0
9, 117480, Note_on_c, 4, 45, 68
9, 117480, Note_on_c, 4, 57, 68
9, 117569, Note_on_c, 4, 45, 0
9, 117569, Note_on_c, 4, 57, 0
9, 117600, Note_on_c, 4, 57, 68
9, 117600, Note_on_c, 4, 45, 68
9, 117809, Note_on_c, 4, 57, 0
9, 117809, Note_on_c, 4, 45, 0
9, 117840, Note_on_c, 4, 57, 68
9, 117840, Note_on_c, 4, 45, 68
9, 118049, Note_on_c, 4, 57, 0
9, 118049, Note_on_c, 4, 45, 0
9, 118078, Control_c, 4, 11, 127
9, 118080, Note_on_c, 4, 62, 84
9, 118080, Note_on_c, 4, 59, 84
9, 118313, Note_on_c, 4, 62, 0
9, 118313, Note_on_c, 4, 59, 0
9, 118320, Note_on_c, 4, 60, 84
9, 118320, Note_on_c, 4, 57, 84
9, 118409, Note_on_c, 4, 60, 0
9, 118409, Note_on_c, 4, 57, 0
9, 118440, Note_on_c, 4, 62, 84
9, 118440, Note_on_c, 4, 59, 84
9, 118529, Note_on_c, 4, 62, 0
9, 118529, Note_on_c, 4, 59, 0
9, 118560, Note_on_c, 4, 60, 84
9, 118560, Note_on_c, 4, 64, 84
9, 118679, Note_on_c, 4, 60, 0
9, 118679, Note_on_c, 4, 64, 0
9, 120000, Note_on_c, 4, 59, 84
9, 120000, Note_on_c, 4, 62, 84
9, 120233, Note_on_c, 4, 59, 0
9, 120233, Note_on_c, 4, 62, 0
9, 120240, Note_on_c, 4, 60, 84
9, 120240, Note_on_c, 4, 57, 84
9, 120329, Note_on_c, 4, 60, 0
9, 120329, Note_on_c, 4, 57, 0
9, 120360, Note_on_c, 4, 59, 84
9, 120360, Note_on_c, 4, 62, 84
9, 120449, Note_on_c, 4, 59, 0
9, 120449, Note_on_c, 4, 62, 0
9, 120480, Note_on_c, 4, 64, 84
9, 120480, Note_on_c, 4, 60, 84
9, 120599, Note_on_c, 4, 64, 0
9, 120599, Note_on_c, 4, 60, 0
9, 123840, Note_on_c, 4, 60, 44
9, 123840, Note_on_c, 4, 57, 44
9, 124073, Note_on_c, 4, 60, 0
9, 124073, Note_on_c, 4, 57, 0
9, 124080, Note_on_c, 4, 60, 44
9, 124080, Note_on_c, 4, 57, 44
9, 124169, Note_on_c, 4, 60, 0
9, 124169, Note_on_c, 4, 57, 0
9, 124200, Note_on_c, 4, 60, 44
9, 124200, Note_on_c, 4, 57, 44
9, 124289, Note_on_c, 4, 60, 0
9, 124289, Note_on_c, 4, 57, 0
9, 124320, Note_on_c, 4, 60, 44
9, 124320, Note_on_c, 4, 55, 44
9, 124529, Note_on_c, 4, 60, 0
9, 124529, Note_on_c, 4, 55, 0
9, 124560, Note_on_c, 4, 60, 44
9, 124560, Note_on_c, 4, 55, 44
9, 124769, Note_on_c, 4, 60, 0
9, 124769, Note_on_c, 4, 55, 0
9, 127680, Note_on_c, 4, 60, 44
9, 127680, Note_on_c, 4, 57, 44
9, 127913, Note_on_c, 4, 60, 0
9, 127913, Note_on_c, 4, 57, 0
9, 127920, Note_on_c, 4, 60, 44
9, 127920, Note_on_c, 4, 57, 44
9, 128009, Note_on_c, 4, 60, 0
9, 128009, Note_on_c, 4, 57, 0
9, 128040, Note_on_c, 4, 60, 44
9, 128040, Note_on_c, 4, 57, 44
9, 128129, Note_on_c, 4, 60, 0
9, 128129, Note_on_c, 4, 57, 0
9, 128160, Note_on_c, 4, 62, 44
9, 128160, Note_on_c, 4, 56, 44
9, 128369, Note_on_c, 4, 62, 0
9, 128369, Note_on_c, 4, 56, 0
9, 128400, Note_on_c, 4, 60, 44
9, 128400, Note_on_c, 4, 57, 44
9, 128609, Note_on_c, 4, 60, 0
9, 128609, Note_on_c, 4, 57, 0
9, 129600, Note_on_c, 4, 62, 44
9, 129600, Note_on_c, 4, 59, 44
9, 129833, Note_on_c, 4, 62, 0
9, 129833, Note_on_c, 4, 59, 0
9, 129840, Note_on_c, 4, 62, 44
9, 129840, Note_on_c, 4, 59, 44
9, 129929, Note_on_c, 4, 62, 0
9, 129929, Note_on_c, 4, 59, 0
9, 129960, Note_on_c, 4, 62, 44
9, 129960, Note_on_c, 4, 59, 44
9, 130049, Note_on_c, 4, 62, 0
9, 130049, Note_on_c, 4, 59, 0
9, 130080, Note_on_c, 4, 60, 44
9, 130080, Note_on_c, 4, 57, 44
9, 130319, Note_on_c, 4, 60, 0
9, 130319, Note_on_c, 4, 57, 0
9, 132000, Control_c, 4, 11, 127
9, 132000, Note_on_c, 4, 60, 76
9, 132000, Note_on_c, 4, 57, 76
9, 132020, Control_c, 4, 11, 125
9, 132040, Control_c, 4, 11, 124
9, 132060, Control_c, 4, 11, 122
9, 132080, Control_c, 4, 11, 120
9, 132100, Control_c, 4, 11, 118
9, 132120, Control_c, 4, 11, 117
9, 132140, Control_c, 4, 11, 115
9, 132160, Control_c, 4, 11, 113
9, 132180, Control_c, 4, 11, 111
9, 132200, Control_c, 4, 11, 110
9, 132220, Control_c, 4, 11, 108
9, 132240, Control_c, 4, 11, 106
9, 132260, Control_c, 4, 11, 104
9, 132280, Control_c, 4, 11, 103
9, 132300, Control_c, 4, 11, 101
9, 132320, Control_c, 4, 11, 99
9, 132340, Control_c, 4, 11, 97
9, 132360, Control_c, 4, 11, 96
9, 132380, Control_c, 4, 11, 94
9, 132400, Control_c, 4, 11, 92
9, 132420, Control_c, 4, 11, 90
9, 132440, Control_c, 4, 11, 89
9, 132460, Control_c, 4, 11, 87
9, 132480, Control_c, 4, 11, 85
9, 132500, Control_c, 4, 11, 83
9, 132520, Control_c, 4, 11, 82
9, 132540, Control_c, 4, 11, 80
9, 132560, Control_c, 4, 11, 78
9, 132580, Control_c, 4, 11, 76
9, 132600, Control_c, 4, 11, 75
9, 132620, Control_c, 4, 11, 73
9, 132640, Control_c, 4, 11, 71
9, 132660, Control_c, 4, 11, 69
9, 132680, Control_c, 4, 11, 68
9, 132700, Control_c, 4, 11, 66
9, 132720, Control_c, 4, 11, 64
9, 133079, Note_on_c, 4, 60, 0
9, 133079, Note_on_c, 4, 57, 0
9, 133440, Control_c, 4, 11, 127
9, 133440, End_track
10, 0, Start_track
10, 0, Title_t, "French Horn in E"
10, 0, MIDI_port, 0
10, 0, Program_c, 5, 60
10, 0, Control_c, 5, 7, 104
10, 0, Control_c, 5, 11, 127
10, 0, Control_c, 5, 10, 45
10, 0, Note_on_c, 5, 64, 76
10, 0, Note_on_c, 5, 52, 76
10, 0, Control_c, 5, 11, 127
10, 20, Control_c, 5, 11, 125
10, 40, Control_c, 5, 11, 124
10, 60, Control_c, 5, 11, 122
10, 80, Control_c, 5, 11, 120
10, 100, Control_c, 5, 11, 118
10, 120, Control_c, 5, 11, 117
10, 140, Control_c, 5, 11, 115
10, 160, Control_c, 5, 11, 113
10, 180, Control_c, 5, 11, 111
10, 200, Control_c, 5, 11, 110
10, 220, Control_c, 5, 11, 108
10, 240, Control_c, 5, 11, 106
10, 260, Control_c, 5, 11, 104
10, 280, Control_c, 5, 11, 103
10, 300, Control_c, 5, 11, 101
10, 320, Control_c, 5, 11, 99
10, 340, Control_c, 5, 11, 97
10, 360, Control_c, 5, 11, 96
10, 380, Control_c, 5, 11, 94
10, 400, Control_c, 5, 11, 92
10, 420, Control_c, 5, 11, 90
10, 440, Control_c, 5, 11, 89
10, 460, Control_c, 5, 11, 87
10, 480, Control_c, 5, 11, 85
10, 500, Control_c, 5, 11, 83
10, 520, Control_c, 5, 11, 82
10, 540, Control_c, 5, 11, 80
10, 560, Control_c, 5, 11, 78
10, 580, Control_c, 5, 11, 76
10, 600, Control_c, 5, 11, 75
10, 620, Control_c, 5, 11, 73
10, 640, Control_c, 5, 11, 71
10, 660, Control_c, 5, 11, 69
10, 680, Control_c, 5, 11, 68
10, 700, Control_c, 5, 11, 66
10, 720, Control_c, 5, 11, 64
10, 1199, Note_on_c, 5, 64, 0
10, 1199, Note_on_c, 5, 52, 0
10, 1440, Control_c, 5, 11, 127
10, 34800, Note_on_c, 5, 64, 82
10, 34800, Note_on_c, 5, 52, 82
10, 35039, Note_on_c, 5, 64, 0
10, 35039, Note_on_c, 5, 52, 0
10, 35280, Note_on_c, 5, 69, 83
10, 35504, Note_on_c, 5, 69, 0
10, 35520, Note_on_c, 5, 52, 84
10, 35520, Note_on_c, 5, 64, 84
10, 35751, Note_on_c, 5, 52, 0
10, 35751, Note_on_c, 5, 64, 0
10, 35760, Note_on_c, 5, 64, 84
10, 35760, Note_on_c, 5, 52, 84
10, 35849, Note_on_c, 5, 64, 0
10, 35849, Note_on_c, 5, 52, 0
10, 35880, Note_on_c, 5, 52, 84
10, 35880, Note_on_c, 5, 64, 84
10, 35969, Note_on_c, 5, 52, 0
10, 35969, Note_on_c, 5, 64, 0
10, 36000, Note_on_c, 5, 64, 84
10, 36000, Note_on_c, 5, 52, 84
10, 36209, Note_on_c, 5, 64, 0
10, 36209, Note_on_c, 5, 52, 0
10, 36240, Note_on_c, 5, 64, 84
10, 36240, Note_on_c, 5, 52, 84
10, 36449, Note_on_c, 5, 64, 0
10, 36449, Note_on_c, 5, 52, 0
10, 36480, Note_on_c, 5, 52, 84
10, 36480, Note_on_c, 5, 64, 84
10, 36711, Note_on_c, 5, 52, 0
10, 36711, Note_on_c, 5, 64, 0
10, 36720, Note_on_c, 5, 64, 84
10, 36720, Note_on_c, 5, 52, 84
10, 36809, Note_on_c, 5, 64, 0
10, 36809, Note_on_c, 5, 52, 0
10, 36840, Note_on_c, 5, 64, 84
10, 36840, Note_on_c, 5, 52, 84
10, 36929, Note_on_c, 5, 64, 0
10, 36929, Note_on_c, 5, 52, 0
10, 36960, Note_on_c, 5, 52, 84
10, 36960, Note_on_c, 5, 64, 84
10, 37169, Note_on_c, 5, 52, 0
10, 37169, Note_on_c, 5, 64, 0
10, 37200, Note_on_c, 5, 64, 84
10, 37200, Note_on_c, 5, 52, 84
10, 37409, Note_on_c, 5, 64, 0
10, 37409, Note_on_c, 5, 52, 0
10, 37440, Note_on_c, 5, 64, 84
10, 37440, Note_on_c, 5, 52, 84
10, 37671, Note_on_c, 5, 64, 0
10, 37671, Note_on_c, 5, 52, 0
10, 37680, Note_on_c, 5, 64, 84
10, 37769, Note_on_c, 5, 64, 0
10, 37800, Note_on_c, 5, 66, 84
10, 37889, Note_on_c, 5, 66, 0
10, 37920, Note_on_c, 5, 67, 84
10, 38129, Note_on_c, 5, 67, 0
10, 38160, Note_on_c, 5, 67, 84
10, 38369, Note_on_c, 5, 67, 0
10, 38400, Note_on_c, 5, 67, 84
10, 38631, Note_on_c, 5, 67, 0
10, 38640, Note_on_c, 5, 67, 84
10, 38729, Note_on_c, 5, 67, 0
10, 38760, Note_on_c, 5, 67, 84
10, 38849, Note_on_c, 5, 67, 0
10, 38880, Note_on_c, 5, 67, 84
10, 39119, Note_on_c, 5, 67, 0
10, 39360, Note_on_c, 5, 67, 84
10, 39591, Note_on_c, 5, 67, 0
10, 39600, Note_on_c, 5, 67, 84
10, 39689, Note_on_c, 5, 67, 0
10, 39720, Note_on_c, 5, 69, 84
10, 39809, Note_on_c, 5, 69, 0
10, 39840, Note_on_c, 5, 71, 84
10, 40049, Note_on_c, 5, 71, 0
10, 40080, Note_on_c, 5, 71, 84
10, 40289, Note_on_c, 5, 71, 0
10, 40320, Note_on_c, 5, 66, 84
10, 40551, Note_on_c, 5, 66, 0
10, 40560, Note_on_c, 5, 66, 84
10, 40649, Note_on_c, 5, 66, 0
10, 40680, Note_on_c, 5, 68, 84
10, 40769, Note_on_c, 5, 68, 0
10, 40800, Note_on_c, 5, 69, 84
10, 41009, Note_on_c, 5, 69, 0
10, 41040, Note_on_c, 5, 69, 84
10, 41249, Note_on_c, 5, 69, 0
10, 41280, Note_on_c, 5, 64, 84
10, 41280, Note_on_c, 5, 52, 84
10, 41511, Note_on_c, 5, 64, 0
10, 41511, Note_on_c, 5, 52, 0
10, 41520, Note_on_c, 5, 52, 84
10, 41520, Note_on_c, 5, 64, 84
10, 41609, Note_on_c, 5, 52, 0
10, 41609, Note_on_c, 5, 64, 0
10, 41640, Note_on_c, 5, 64, 84
10, 41640, Note_on_c, 5, 52, 84
10, 41729, Note_on_c, 5, 64, 0
10, 41729, Note_on_c, 5, 52, 0
10, 41760, Note_on_c, 5, 52, 84
10, 41760, Note_on_c, 5, 64, 84
10, 41969, Note_on_c, 5, 52, 0
10, 41969, Note_on_c, 5, 64, 0
10, 42000, Note_on_c, 5, 64, 84
10, 42000, Note_on_c, 5, 52, 84
10, 42209, Note_on_c, 5, 64, 0
10, 42209, Note_on_c, 5, 52, 0
10, 42240, Note_on_c, 5, 64, 84
10, 42240, Note_on_c, 5, 52, 84
10, 42471, Note_on_c, 5, 64, 0
10, 42471, Note_on_c, 5, 52, 0
10, 42480, Note_on_c, 5, 66, 84
10, 42569, Note_on_c, 5, 66, 0
10, 42600, Note_on_c, 5, 68, 84
10, 42689, Note_on_c, 5, 68, 0
10, 42720, Note_on_c, 5, 69, 84
10, 42959, Note_on_c, 5, 69, 0
10, 43200, Note_on_c, 5, 67, 84
10, 43253, Control_c, 5, 11, 126
10, 43307, Control_c, 5, 11, 125
10, 43360, Control_c, 5, 11, 124
10, 43413, Control_c, 5, 11, 123
10, 43431, Note_on_c, 5, 67, 0
10, 43440, Note_on_c, 5, 67, 84
10, 43467, Control_c, 5, 11, 122
10, 43520, Control_c, 5, 11, 121
10, 43529, Note_on_c, 5, 67, 0
10, 43560, Note_on_c, 5, 69, 84
10, 43573, Control_c, 5, 11, 120
10, 43627, Control_c, 5, 11, 119
10, 43649, Note_on_c, 5, 69, 0
10, 43680, Control_c, 5, 11, 118
10, 43680, Note_on_c, 5, 71, 84
10, 43733, Control_c, 5, 11, 117
10, 43787, Control_c, 5, 11, 116
10, 43840, Control_c, 5, 11, 115
10, 43889, Note_on_c, 5, 71, 0
10, 43893, Control_c, 5, 11, 114
10, 43920, Note_on_c, 5, 71, 84
10, 43947, Control_c, 5, 11, 113
10, 44000, Control_c, 5, 11, 112
10, 44053, Control_c, 5, 11, 111
10, 44107, Control_c, 5, 11, 110
10, 44129, Note_on_c, 5, 71, 0
10, 44160, Control_c, 5, 11, 109
10, 44160, Note_on_c, 5, 66, 84
10, 44213, Control_c, 5, 11, 108
10, 44267, Control_c, 5, 11, 107
10, 44320, Control_c, 5, 11, 106
10, 44373, Control_c, 5, 11, 105
10, 44391, Note_on_c, 5, 66, 0
10, 44400, Note_on_c, 5, 66, 84
10, 44427, Control_c, 5, 11, 104
10, 44480, Control_c, 5, 11, 103
10, 44489, Note_on_c, 5, 66, 0
10, 44520, Note_on_c, 5, 68, 84
10, 44533, Control_c, 5, 11, 102
10, 44587, Control_c, 5, 11, 101
10, 44609, Note_on_c, 5, 68, 0
10, 44640, Control_c, 5, 11, 100
10, 44640, Note_on_c, 5, 69, 84
10, 44693, Control_c, 5, 11, 99
10, 44747, Control_c, 5, 11, 98
10, 44800, Control_c, 5, 11, 97
10, 44849, Note_on_c, 5, 69, 0
10, 44853, Control_c, 5, 11, 96
10, 44880, Note_on_c, 5, 69, 84
10, 44907, Control_c, 5, 11, 95
10, 44960, Control_c, 5, 11, 94
10, 45013, Control_c, 5, 11, 93
10, 45067, Control_c, 5, 11, 92
10, 45089, Note_on_c, 5, 69, 0
10, 45120, Note_on_c, 5, 52, 84
10, 45120, Control_c, 5, 11, 91
10, 45120, Note_on_c, 5, 64, 84
10, 45173, Control_c, 5, 11, 90
10, 45227, Control_c, 5, 11, 89
10, 45280, Control_c, 5, 11, 88
10, 45333, Control_c, 5, 11, 87
10, 45351, Note_on_c, 5, 52, 0
10, 45351, Note_on_c, 5, 64, 0
10, 45360, Note_on_c, 5, 52, 84
10, 45360, Note_on_c, 5, 64, 84
10, 45387, Control_c, 5, 11, 86
10, 45440, Control_c, 5, 11, 85
10, 45449, Note_on_c, 5, 52, 0
10, 45449, Note_on_c, 5, 64, 0
10, 45480, Note_on_c, 5, 52, 84
10, 45480, Note_on_c, 5, 64, 84
10, 45493, Control_c, 5, 11, 84
10, 45547, Control_c, 5, 11, 83
10, 45569, Note_on_c, 5, 52, 0
10, 45569, Note_on_c, 5, 64, 0
10, 45600, Note_on_c, 5, 52, 84
10, 45600, Note_on_c, 5, 64, 84
10, 45600, Control_c, 5, 11, 82
10, 45653, Control_c, 5, 11, 81
10, 45707, Control_c, 5, 11, 80
10, 45760, Control_c, 5, 11, 79
10, 45809, Note_on_c, 5, 52, 0
10, 45809, Note_on_c, 5, 64, 0
10, 45813, Control_c, 5, 11, 78
10, 45840, Note_on_c, 5, 64, 84
10, 45840, Note_on_c, 5, 52, 84
10, 45867, Control_c, 5, 11, 77
10, 45920, Control_c, 5, 11, 76
10, 45973, Control_c, 5, 11, 75
10, 46027, Control_c, 5, 11, 74
10, 46049, Note_on_c, 5, 64, 0
10, 46049, Note_on_c, 5, 52, 0
10, 46080, Note_on_c, 5, 64, 84
10, 46080, Control_c, 5, 11, 73
10, 46080, Note_on_c, 5, 52, 84
10, 46133, Control_c, 5, 11, 72
10, 46187, Control_c, 5, 11, 71
10, 46240, Control_c, 5, 11, 70
10, 46293, Control_c, 5, 11, 69
10, 46311, Note_on_c, 5, 64, 0
10, 46311, Note_on_c, 5, 52, 0
10, 46320, Note_on_c, 5, 66, 84
10, 46347, Control_c, 5, 11, 68
10, 46400, Control_c, 5, 11, 67
10, 46409, Note_on_c, 5, 66, 0
10, 46440, Note_on_c, 5, 68, 84
10, 46453, Control_c, 5, 11, 66
10, 46507, Control_c, 5, 11, 65
10, 46529, Note_on_c, 5, 68, 0
10, 46560, Control_c, 5, 11, 64
10, 46560, Note_on_c, 5, 69, 84
10, 46799, Note_on_c, 5, 69, 0
10, 47040, Note_on_c, 5, 64, 84
10, 47040, Note_on_c, 5, 52, 84
10, 47271, Note_on_c, 5, 64, 0
10, 47271, Note_on_c, 5, 52, 0
10, 47280, Note_on_c, 5, 52, 84
10, 47280, Note_on_c, 5, 64, 84
10, 47369, Note_on_c, 5, 52, 0
10, 47369, Note_on_c, 5, 64, 0
10, 47400, Note_on_c, 5, 64, 84
10, 47400, Note_on_c, 5, 52, 84
10, 47489, Note_on_c, 5, 64, 0
10, 47489, Note_on_c, 5, 52, 0
10, 47520, Note_on_c, 5, 64, 84
10, 47759, Note_on_c, 5, 64, 0
10, 48000, Control_c, 5, 11, 127
10, 54720, Note_on_c, 5, 59, 52
10, 54720, Note_on_c, 5, 71, 52
10, 55187, Note_on_c, 5, 59, 0
10, 55187, Note_on_c, 5, 71, 0
10, 55200, Note_on_c, 5, 52, 52
10, 55200, Note_on_c, 5, 64, 52
10, 56627, Note_on_c, 5, 52, 0
10, 56627, Note_on_c, 5, 64, 0
10, 56640, Note_on_c, 5, 69, 52
10, 56987, Note_on_c, 5, 69, 0
10, 57000, Note_on_c, 5, 69, 52
10, 57107, Note_on_c, 5, 69, 0
10, 57120, Note_on_c, 5, 69, 52
10, 57199, Note_on_c, 5, 69, 0
10, 57200, Note_on_c, 5, 68, 52
10, 57267, Note_on_c, 5, 68, 0
10, 57280, Note_on_c, 5, 66, 52
10, 57339, Note_on_c, 5, 66, 0
10, 57360, Note_on_c, 5, 64, 52
10, 57419, Note_on_c, 5, 64, 0
10, 57440, Note_on_c, 5, 62, 52
10, 57499, Note_on_c, 5, 62, 0
10, 57520, Note_on_c, 5, 61, 52
10, 57579, Note_on_c, 5, 61, 0
10, 57600, Note_on_c, 5, 59, 52
10, 57839, Note_on_c, 5, 59, 0
10, 57840, Note_on_c, 5, 61, 52
10, 57947, Note_on_c, 5, 61, 0
10, 57960, Note_on_c, 5, 62, 52
10, 58049, Note_on_c, 5, 62, 0
10, 58080, Note_on_c, 5, 64, 52
10, 58399, Note_on_c, 5, 64, 0
10, 58400, Note_on_c, 5, 62, 52
10, 58479, Note_on_c, 5, 62, 0
10, 58480, Note_on_c, 5, 64, 52
10, 58547, Note_on_c, 5, 64, 0
10, 58558, Control_c, 5, 11, 96
10, 58560, Note_on_c, 5, 64, 68
10, 58622, Control_c, 5, 11, 97
10, 58684, Control_c, 5, 11, 98
10, 58746, Control_c, 5, 11, 99
10, 58808, Control_c, 5, 11, 100
10, 58870, Control_c, 5, 11, 101
10, 58932, Control_c, 5, 11, 102
10, 58994, Control_c, 5, 11, 103
10, 59055, Control_c, 5, 11, 104
10, 59117, Control_c, 5, 11, 105
10, 59179, Control_c, 5, 11, 106
10, 59241, Control_c, 5, 11, 107
10, 59279, Note_on_c, 5, 64, 0
10, 59280, Note_on_c, 5, 66, 68
10, 59303, Control_c, 5, 11, 108
10, 59365, Control_c, 5, 11, 109
10, 59399, Note_on_c, 5, 66, 0
10, 59400, Note_on_c, 5, 64, 68
10, 59427, Control_c, 5, 11, 110
10, 59489, Control_c, 5, 11, 111
10, 59507, Note_on_c, 5, 64, 0
10, 59520, Note_on_c, 5, 64, 68
10, 59551, Control_c, 5, 11, 112
10, 59613, Control_c, 5, 11, 113
10, 59675, Control_c, 5, 11, 114
10, 59737, Control_c, 5, 11, 115
10, 59799, Control_c, 5, 11, 116
10, 59861, Control_c, 5, 11, 117
10, 59923, Control_c, 5, 11, 118
10, 59985, Control_c, 5, 11, 119
10, 60046, Control_c, 5, 11, 120
10, 60108, Control_c, 5, 11, 121
10, 60170, Control_c, 5, 11, 122
10, 60232, Control_c, 5, 11, 123
10, 60239, Note_on_c, 5, 64, 0
10, 60240, Note_on_c, 5, 68, 68
10, 60294, Control_c, 5, 11, 124
10, 60319, Note_on_c, 5, 68, 0
10, 60320, Note_on_c, 5, 66, 68
10, 60356, Control_c, 5, 11, 125
10, 60399, Note_on_c, 5, 66, 0
10, 60400, Note_on_c, 5, 64, 68
10, 60418, Control_c, 5, 11, 127
10, 60467, Note_on_c, 5, 64, 0
10, 60480, Note_on_c, 5, 64, 68
10, 60480, Control_c, 5, 11, 127
10, 60511, Control_c, 5, 11, 126
10, 60542, Control_c, 5, 11, 125
10, 60573, Control_c, 5, 11, 124
10, 60604, Control_c, 5, 11, 123
10, 60635, Control_c, 5, 11, 122
10, 60666, Control_c, 5, 11, 121
10, 60697, Control_c, 5, 11, 120
10, 60728, Control_c, 5, 11, 119
10, 60759, Control_c, 5, 11, 118
10, 60790, Control_c, 5, 11, 117
10, 60821, Control_c, 5, 11, 116
10, 60852, Control_c, 5, 11, 115
10, 60883, Control_c, 5, 11, 114
10, 60914, Control_c, 5, 11, 113
10, 60945, Control_c, 5, 11, 112
10, 60947, Note_on_c, 5, 64, 0
10, 60960, Note_on_c, 5, 66, 68
10, 60975, Control_c, 5, 11, 111
10, 61006, Control_c, 5, 11, 110
10, 61037, Control_c, 5, 11, 109
10, 61068, Control_c, 5, 11, 108
10, 61099, Control_c, 5, 11, 107
10, 61130, Control_c, 5, 11, 106
10, 61161, Control_c, 5, 11, 105
10, 61192, Control_c, 5, 11, 104
10, 61223, Control_c, 5, 11, 103
10, 61254, Control_c, 5, 11, 102
10, 61285, Control_c, 5, 11, 101
10, 61316, Control_c, 5, 11, 100
10, 61347, Control_c, 5, 11, 99
10, 61378, Control_c, 5, 11, 98
10, 61409, Control_c, 5, 11, 96
10, 61427, Note_on_c, 5, 66, 0
10, 61440, Note_on_c, 5, 64, 68
10, 61667, Note_on_c, 5, 64, 0
10, 61680, Note_on_c, 5, 64, 68
10, 61680, Note_on_c, 5, 52, 68
10, 61907, Note_on_c, 5, 64, 0
10, 61907, Note_on_c, 5, 52, 0
10, 61920, Note_on_c, 5, 64, 68
10, 61920, Note_on_c, 5, 52, 68
10, 61920, Control_c, 5, 11, 96
10, 61997, Control_c, 5, 11, 97
10, 62075, Control_c, 5, 11, 98
10, 62152, Control_c, 5, 11, 99
10, 62230, Control_c, 5, 11, 100
10, 62307, Control_c, 5, 11, 101
10, 62385, Control_c, 5, 11, 102
10, 62387, Note_on_c, 5, 64, 0
10, 62387, Note_on_c, 5, 52, 0
10, 62400, Note_on_c, 5, 64, 68
10, 62462, Control_c, 5, 11, 103
10, 62539, Control_c, 5, 11, 104
10, 62617, Control_c, 5, 11, 105
10, 62694, Control_c, 5, 11, 106
10, 62772, Control_c, 5, 11, 107
10, 62849, Control_c, 5, 11, 108
10, 62926, Control_c, 5, 11, 109
10, 63004, Control_c, 5, 11, 110
10, 63081, Control_c, 5, 11, 111
10, 63119, Note_on_c, 5, 64, 0
10, 63120, Note_on_c, 5, 66, 68
10, 63159, Control_c, 5, 11, 112
10, 63236, Control_c, 5, 11, 113
10, 63239, Note_on_c, 5, 66, 0
10, 63240, Note_on_c, 5, 64, 68
10, 63314, Control_c, 5, 11, 114
10, 63347, Note_on_c, 5, 64, 0
10, 63360, Note_on_c, 5, 64, 68
10, 63391, Control_c, 5, 11, 115
10, 63468, Control_c, 5, 11, 116
10, 63546, Control_c, 5, 11, 117
10, 63623, Control_c, 5, 11, 118
10, 63701, Control_c, 5, 11, 119
10, 63778, Control_c, 5, 11, 120
10, 63855, Control_c, 5, 11, 121
10, 63933, Control_c, 5, 11, 122
10, 64010, Control_c, 5, 11, 123
10, 64079, Note_on_c, 5, 64, 0
10, 64080, Note_on_c, 5, 68, 68
10, 64088, Control_c, 5, 11, 124
10, 64159, Note_on_c, 5, 68, 0
10, 64160, Note_on_c, 5, 66, 68
10, 64165, Control_c, 5, 11, 125
10, 64239, Note_on_c, 5, 66, 0
10, 64240, Note_on_c, 5, 64, 68
10, 64243, Control_c, 5, 11, 127
10, 64307, Note_on_c, 5, 64, 0
10, 64320, Control_c, 5, 11, 127
10, 64320, Note_on_c, 5, 64, 68
10, 64351, Control_c, 5, 11, 126
10, 64382, Control_c, 5, 11, 125
10, 64413, Control_c, 5, 11, 124
10, 64444, Control_c, 5, 11, 123
10, 64475, Control_c, 5, 11, 122
10, 64506, Control_c, 5, 11, 121
10, 64537, Control_c, 5, 11, 120
10, 64560, Note_on_c, 5, 52, 68
10, 64568, Control_c, 5, 11, 119
10, 64599, Control_c, 5, 11, 118
10, 64630, Control_c, 5, 11, 117
10, 64661, Control_c, 5, 11, 116
10, 64692, Control_c, 5, 11, 115
10, 64723, Control_c, 5, 11, 114
10, 64754, Control_c, 5, 11, 113
10, 64785, Control_c, 5, 11, 112
10, 64787, Note_on_c, 5, 64, 0
10, 64799, Note_on_c, 5, 52, 0
10, 64800, Note_on_c, 5, 69, 68
10, 64815, Control_c, 5, 11, 111
10, 64846, Control_c, 5, 11, 110
10, 64877, Control_c, 5, 11, 109
10, 64908, Control_c, 5, 11, 108
10, 64939, Control_c, 5, 11, 107
10, 64970, Control_c, 5, 11, 106
10, 65001, Control_c, 5, 11, 105
10, 65032, Control_c, 5, 11, 104
10, 65063, Control_c, 5, 11, 103
10, 65094, Control_c, 5, 11, 102
10, 65125, Control_c, 5, 11, 101
10, 65156, Control_c, 5, 11, 100
10, 65187, Control_c, 5, 11, 99
10, 65218, Control_c, 5, 11, 98
10, 65249, Control_c, 5, 11, 96
10, 65267, Note_on_c, 5, 69, 0
10, 65280, Note_on_c, 5, 67, 68
10, 65507, Note_on_c, 5, 67, 0
10, 65520, Note_on_c, 5, 67, 68
10, 65747, Note_on_c, 5, 67, 0
10, 65760, Note_on_c, 5, 67, 68
10, 66719, Note_on_c, 5, 67, 0
10, 66720, Note_on_c, 5, 64, 60
10, 66720, Note_on_c, 5, 67, 68
10, 66959, Note_on_c, 5, 64, 0
10, 67680, Note_on_c, 5, 64, 60
10, 67919, Note_on_c, 5, 64, 0
10, 68147, Note_on_c, 5, 67, 0
10, 68158, Control_c, 5, 11, 80
10, 68160, Note_on_c, 5, 67, 76
10, 68160, Control_c, 5, 11, 80
10, 68180, Control_c, 5, 11, 82
10, 68200, Control_c, 5, 11, 84
10, 68220, Control_c, 5, 11, 86
10, 68240, Control_c, 5, 11, 88
10, 68260, Control_c, 5, 11, 90
10, 68280, Control_c, 5, 11, 92
10, 68300, Control_c, 5, 11, 94
10, 68320, Control_c, 5, 11, 96
10, 68340, Control_c, 5, 11, 98
10, 68360, Control_c, 5, 11, 100
10, 68380, Control_c, 5, 11, 102
10, 68400, Control_c, 5, 11, 104
10, 68420, Control_c, 5, 11, 105
10, 68440, Control_c, 5, 11, 107
10, 68460, Control_c, 5, 11, 109
10, 68480, Control_c, 5, 11, 111
10, 68500, Control_c, 5, 11, 113
10, 68507, Note_on_c, 5, 67, 0
10, 68520, Note_on_c, 5, 67, 76
10, 68520, Control_c, 5, 11, 115
10, 68540, Control_c, 5, 11, 117
10, 68560, Control_c, 5, 11, 119
10, 68580, Control_c, 5, 11, 121
10, 68600, Control_c, 5, 11, 123
10, 68620, Control_c, 5, 11, 127
10, 68639, Note_on_c, 5, 67, 0
10, 71040, Note_on_c, 5, 59, 84
10, 71040, Note_on_c, 5, 47, 84
10, 71129, Note_on_c, 5, 59, 0
10, 71129, Note_on_c, 5, 47, 0
10, 71160, Note_on_c, 5, 47, 84
10, 71160, Note_on_c, 5, 59, 84
10, 71249, Note_on_c, 5, 47, 0
10, 71249, Note_on_c, 5, 59, 0
10, 101875, Control_c, 5, 11, 112
10, 101880, Note_on_c, 5, 64, 84
10, 101880, Note_on_c, 5, 52, 84
10, 101900, Control_c, 5, 11, 113
10, 101924, Control_c, 5, 11, 114
10, 101948, Control_c, 5, 11, 115
10, 101973, Control_c, 5, 11, 116
10, 101997, Control_c, 5, 11, 117
10, 102021, Control_c, 5, 11, 118
10, 102046, Control_c, 5, 11, 119
10, 102070, Control_c, 5, 11, 120
10, 102094, Control_c, 5, 11, 121
10, 102118, Control_c, 5, 11, 122
10, 102143, Control_c, 5, 11, 123
10, 102167, Control_c, 5, 11, 124
10, 102191, Control_c, 5, 11, 125
10, 102216, Control_c, 5, 11, 127
10, 102227, Note_on_c, 5, 64, 0
10, 102227, Note_on_c, 5, 52, 0
10, 102240, Note_on_c, 5, 64, 84
10, 102467, Note_on_c, 5, 64, 0
10, 102480, Note_on_c, 5, 64, 84
10, 102569, Note_on_c, 5, 64, 0
10, 102600, Note_on_c, 5, 64, 84
10, 102689, Note_on_c, 5, 64, 0
10, 102720, Note_on_c, 5, 64, 84
10, 102929, Note_on_c, 5, 64, 0
10, 102960, Note_on_c, 5, 64, 84
10, 103169, Note_on_c, 5, 64, 0
10, 103200, Note_on_c, 5, 64, 84
10, 103427, Note_on_c, 5, 64, 0
10, 103440, Note_on_c, 5, 64, 84
10, 103529, Note_on_c, 5, 64, 0
10, 103560, Note_on_c, 5, 64, 84
10, 103649, Note_on_c, 5, 64, 0
10, 103680, Note_on_c, 5, 64, 84
10, 103889, Note_on_c, 5, 64, 0
10, 103920, Note_on_c, 5, 64, 84
10, 104129, Note_on_c, 5, 64, 0
10, 104160, Note_on_c, 5, 64, 84
10, 104387, Note_on_c, 5, 64, 0
10, 104400, Note_on_c, 5, 64, 84
10, 104489, Note_on_c, 5, 64, 0
10, 104520, Note_on_c, 5, 64, 84
10, 104609, Note_on_c, 5, 64, 0
10, 104640, Note_on_c, 5, 64, 84
10, 104849, Note_on_c, 5, 64, 0
10, 104880, Note_on_c, 5, 64, 84
10, 105089, Note_on_c, 5, 64, 0
10, 105120, Note_on_c, 5, 64, 84
10, 105347, Note_on_c, 5, 64, 0
10, 105360, Note_on_c, 5, 66, 84
10, 105449, Note_on_c, 5, 66, 0
10, 105480, Note_on_c, 5, 68, 84
10, 105569, Note_on_c, 5, 68, 0
10, 105600, Note_on_c, 5, 69, 84
10, 105839, Note_on_c, 5, 69, 0
10, 106080, Note_on_c, 5, 52, 52
10, 106080, Note_on_c, 5, 64, 52
10, 106313, Note_on_c, 5, 52, 0
10, 106313, Note_on_c, 5, 64, 0
10, 106320, Note_on_c, 5, 52, 52
10, 106320, Note_on_c, 5, 64, 52
10, 106409, Note_on_c, 5, 52, 0
10, 106409, Note_on_c, 5, 64, 0
10, 106440, Note_on_c, 5, 52, 52
10, 106440, Note_on_c, 5, 64, 52
10, 106529, Note_on_c, 5, 52, 0
10, 106529, Note_on_c, 5, 64, 0
10, 106560, Note_on_c, 5, 64, 52
10, 106679, Note_on_c, 5, 64, 0
10, 118080, Note_on_c, 5, 67, 84
10, 118313, Note_on_c, 5, 67, 0
10, 118320, Note_on_c, 5, 67, 84
10, 118409, Note_on_c, 5, 67, 0
10, 118440, Note_on_c, 5, 67, 84
10, 118529, Note_on_c, 5, 67, 0
10, 118560, Note_on_c, 5, 67, 84
10, 118679, Note_on_c, 5, 67, 0
10, 120000, Note_on_c, 5, 67, 84
10, 120233, Note_on_c, 5, 67, 0
10, 120240, Note_on_c, 5, 67, 84
10, 120329, Note_on_c, 5, 67, 0
10, 120360, Note_on_c, 5, 67, 84
10, 120449, Note_on_c, 5, 67, 0
10, 120480, Note_on_c, 5, 67, 84
10, 120599, Note_on_c, 5, 67, 0
10, 123840, Note_on_c, 5, 64, 44
10, 124073, Note_on_c, 5, 64, 0
10, 124080, Note_on_c, 5, 64, 44
10, 124169, Note_on_c, 5, 64, 0
10, 124200, Note_on_c, 5, 66, 44
10, 124289, Note_on_c, 5, 66, 0
10, 124320, Note_on_c, 5, 67, 44
10, 124320, Note_on_c, 5, 64, 44
10, 124529, Note_on_c, 5, 67, 0
10, 124529, Note_on_c, 5, 64, 0
10, 124560, Note_on_c, 5, 67, 44
10, 124560, Note_on_c, 5, 64, 44
10, 124769, Note_on_c, 5, 67, 0
10, 124769, Note_on_c, 5, 64, 0
10, 127680, Note_on_c, 5, 64, 44
10, 127913, Note_on_c, 5, 64, 0
10, 127920, Note_on_c, 5, 64, 44
10, 128009, Note_on_c, 5, 64, 0
10, 128040, Note_on_c, 5, 64, 44
10, 128129, Note_on_c, 5, 64, 0
10, 128160, Note_on_c, 5, 64, 44
10, 128160, Note_on_c, 5, 59, 44
10, 128369, Note_on_c, 5, 64, 0
10, 128387, Note_on_c, 5, 59, 0
10, 128400, Note_on_c, 5, 64, 44
10, 128609, Note_on_c, 5, 64, 0
10, 129600, Note_on_c, 5, 64, 44
10, 129600, Note_on_c, 5, 52, 44
10, 129833, Note_on_c, 5, 64, 0
10, 129833, Note_on_c, 5, 52, 0
10, 129840, Note_on_c, 5, 64, 44
10, 129840, Note_on_c, 5, 52, 44
10, 129929, Note_on_c, 5, 64, 0
10, 129929, Note_on_c, 5, 52, 0
10, 129960, Note_on_c, 5, 64, 44
10, 129960, Note_on_c, 5, 52, 44
10, 130049, Note_on_c, 5, 64, 0
10, 130049, Note_on_c, 5, 52, 0
10, 130080, Note_on_c, 5, 64, 44
10, 130319, Note_on_c, 5, 64, 0
10, 132000, Control_c, 5, 11, 127
10, 132000, Note_on_c, 5, 64, 76
10, 132000, Note_on_c, 5, 52, 76
10, 132020, Control_c, 5, 11, 125
10, 132040, Control_c, 5, 11, 124
10, 132060, Control_c, 5, 11, 122
10, 132080, Control_c, 5, 11, 120
10, 132100, Control_c, 5, 11, 118
10, 132120, Control_c, 5, 11, 117
10, 132140, Control_c, 5, 11, 115
10, 132160, Control_c, 5, 11, 113
10, 132180, Control_c, 5, 11, 111
10, 132200, Control_c, 5, 11, 110
10, 132220, Control_c, 5, 11, 108
10, 132240, Control_c, 5, 11, 106
10, 132260, Control_c, 5, 11, 104
10, 132280, Control_c, 5, 11, 103
10, 132300, Control_c, 5, 11, 101
10, 132320, Control_c, 5, 11, 99
10, 132340, Control_c, 5, 11, 97
10, 132360, Control_c, 5, 11, 96
10, 132380, Control_c, 5, 11, 94
10, 132400, Control_c, 5, 11, 92
10, 132420, Control_c, 5, 11, 90
10, 132440, Control_c, 5, 11, 89
10, 132460, Control_c, 5, 11, 87
10, 132480, Control_c, 5, 11, 85
10, 132500, Control_c, 5, 11, 83
10, 132520, Control_c, 5, 11, 82
10, 132540, Control_c, 5, 11, 80
10, 132560, Control_c, 5, 11, 78
10, 132580, Control_c, 5, 11, 76
10, 132600, Control_c, 5, 11, 75
10, 132620, Control_c, 5, 11, 73
10, 132640, Control_c, 5, 11, 71
10, 132660, Control_c, 5, 11, 69
10, 132680, Control_c, 5, 11, 68
10, 132700, Control_c, 5, 11, 66
10, 132720, Control_c, 5, 11, 64
10, 133079, Note_on_c, 5, 64, 0
10, 133079, Note_on_c, 5, 52, 0
10, 133440, Control_c, 5, 11, 127
10, 133440, End_track
11, 0, Start_track
11, 0, Title_t, "Trumpet in D"
11, 0, MIDI_port, 0
11, 0, Program_c, 6, 56
11, 0, Control_c, 6, 7, 112
11, 0, Control_c, 6, 10, 60
11, 0, Control_c, 6, 11, 127
11, 35520, Note_on_c, 6, 69, 84
11, 35520, Note_on_c, 6, 57, 84
11, 35759, Note_on_c, 6, 69, 0
11, 35759, Note_on_c, 6, 57, 0
11, 36000, Note_on_c, 6, 76, 84
11, 36239, Note_on_c, 6, 76, 0
11, 36480, Note_on_c, 6, 76, 84
11, 36719, Note_on_c, 6, 76, 0
11, 36960, Note_on_c, 6, 69, 84
11, 36960, Note_on_c, 6, 57, 84
11, 37199, Note_on_c, 6, 69, 0
11, 37199, Note_on_c, 6, 57, 0
11, 37440, Note_on_c, 6, 69, 84
11, 37440, Note_on_c, 6, 57, 84
11, 37679, Note_on_c, 6, 69, 0
11, 37679, Note_on_c, 6, 57, 0
11, 38160, Note_on_c, 6, 76, 84
11, 38399, Note_on_c, 6, 76, 0
11, 38880, Note_on_c, 6, 76, 84
11, 39119, Note_on_c, 6, 76, 0
11, 39360, Note_on_c, 6, 76, 84
11, 39599, Note_on_c, 6, 76, 0
11, 40320, Note_on_c, 6, 76, 84
11, 40559, Note_on_c, 6, 76, 0
11, 40800, Note_on_c, 6, 57, 84
11, 40800, Note_on_c, 6, 69, 84
11, 41039, Note_on_c, 6, 57, 0
11, 41039, Note_on_c, 6, 69, 0
11, 41280, Note_on_c, 6, 69, 84
11, 41280, Note_on_c, 6, 57, 84
11, 41519, Note_on_c, 6, 69, 0
11, 41519, Note_on_c, 6, 57, 0
11, 41760, Note_on_c, 6, 76, 84
11, 41987, Note_on_c, 6, 76, 0
11, 42000, Note_on_c, 6, 57, 84
11, 42000, Note_on_c, 6, 69, 84
11, 42227, Note_on_c, 6, 57, 0
11, 42227, Note_on_c, 6, 69, 0
11, 42240, Note_on_c, 6, 76, 84
11, 42467, Note_on_c, 6, 76, 0
11, 42480, Note_on_c, 6, 76, 84
11, 42587, Note_on_c, 6, 76, 0
11, 42600, Note_on_c, 6, 76, 84
11, 42707, Note_on_c, 6, 76, 0
11, 42720, Note_on_c, 6, 69, 84
11, 42720, Note_on_c, 6, 57, 84
11, 42959, Note_on_c, 6, 69, 0
11, 42959, Note_on_c, 6, 57, 0
11, 43200, Note_on_c, 6, 76, 84
11, 43439, Note_on_c, 6, 76, 0
11, 44160, Note_on_c, 6, 76, 72
11, 44399, Note_on_c, 6, 76, 0
11, 44640, Note_on_c, 6, 57, 65
11, 44640, Note_on_c, 6, 69, 65
11, 44879, Note_on_c, 6, 57, 0
11, 44879, Note_on_c, 6, 69, 0
11, 45120, Note_on_c, 6, 69, 59
11, 45120, Note_on_c, 6, 57, 59
11, 45359, Note_on_c, 6, 69, 0
11, 45359, Note_on_c, 6, 57, 0
11, 45600, Note_on_c, 6, 76, 52
11, 45827, Note_on_c, 6, 76, 0
11, 45840, Note_on_c, 6, 57, 52
11, 45840, Note_on_c, 6, 69, 52
11, 46067, Note_on_c, 6, 57, 0
11, 46067, Note_on_c, 6, 69, 0
11, 46080, Note_on_c, 6, 76, 52
11, 46307, Note_on_c, 6, 76, 0
11, 46320, Note_on_c, 6, 76, 52
11, 46427, Note_on_c, 6, 76, 0
11, 46440, Note_on_c, 6, 76, 52
11, 46547, Note_on_c, 6, 76, 0
11, 46560, Note_on_c, 6, 57, 52
11, 46560, Note_on_c, 6, 69, 52
11, 46799, Note_on_c, 6, 57, 0
11, 46799, Note_on_c, 6, 69, 0
11, 52320, Control_c, 6, 11, 96
11, 52560, Note_on_c, 6, 69, 68
11, 52560, Note_on_c, 6, 57, 68
11, 52560, Control_c, 6, 11, 96
11, 52614, Control_c, 6, 11, 97
11, 52668, Control_c, 6, 11, 98
11, 52723, Control_c, 6, 11, 99
11, 52777, Control_c, 6, 11, 100
11, 52831, Control_c, 6, 11, 101
11, 52885, Control_c, 6, 11, 102
11, 52939, Control_c, 6, 11, 103
11, 52994, Control_c, 6, 11, 104
11, 53048, Control_c, 6, 11, 105
11, 53102, Control_c, 6, 11, 106
11, 53156, Control_c, 6, 11, 107
11, 53210, Control_c, 6, 11, 108
11, 53265, Control_c, 6, 11, 109
11, 53319, Control_c, 6, 11, 110
11, 53373, Control_c, 6, 11, 111
11, 53427, Control_c, 6, 11, 112
11, 53481, Control_c, 6, 11, 113
11, 53535, Control_c, 6, 11, 114
11, 53590, Control_c, 6, 11, 115
11, 53644, Control_c, 6, 11, 116
11, 53698, Control_c, 6, 11, 117
11, 53752, Control_c, 6, 11, 118
11, 53806, Control_c, 6, 11, 119
11, 53861, Control_c, 6, 11, 120
11, 53915, Control_c, 6, 11, 121
11, 53969, Control_c, 6, 11, 122
11, 54023, Control_c, 6, 11, 123
11, 54077, Control_c, 6, 11, 124
11, 54132, Control_c, 6, 11, 125
11, 54186, Control_c, 6, 11, 127
11, 54240, Control_c, 6, 11, 127
11, 54260, Control_c, 6, 11, 126
11, 54280, Control_c, 6, 11, 124
11, 54300, Control_c, 6, 11, 123
11, 54320, Control_c, 6, 11, 122
11, 54340, Control_c, 6, 11, 121
11, 54360, Control_c, 6, 11, 119
11, 54380, Control_c, 6, 11, 118
11, 54400, Control_c, 6, 11, 117
11, 54420, Control_c, 6, 11, 115
11, 54440, Control_c, 6, 11, 114
11, 54460, Control_c, 6, 11, 113
11, 54480, Control_c, 6, 11, 112
11, 54500, Control_c, 6, 11, 110
11, 54520, Control_c, 6, 11, 109
11, 54540, Control_c, 6, 11, 108
11, 54560, Control_c, 6, 11, 106
11, 54580, Control_c, 6, 11, 105
11, 54600, Control_c, 6, 11, 104
11, 54620, Control_c, 6, 11, 102
11, 54640, Control_c, 6, 11, 101
11, 54660, Control_c, 6, 11, 100
11, 54680, Control_c, 6, 11, 99
11, 54700, Control_c, 6, 11, 96
11, 54719, Note_on_c, 6, 69, 0
11, 54719, Note_on_c, 6, 57, 0
11, 66480, Control_c, 6, 11, 127
11, 66720, Note_on_c, 6, 79, 44
11, 66959, Note_on_c, 6, 79, 0
11, 67680, Note_on_c, 6, 79, 44
11, 67919, Note_on_c, 6, 79, 0
11, 71040, Note_on_c, 6, 76, 84
11, 71129, Note_on_c, 6, 76, 0
11, 71160, Note_on_c, 6, 76, 84
11, 71249, Note_on_c, 6, 76, 0
11, 83040, Note_on_c, 6, 57, 52
11, 83040, Note_on_c, 6, 69, 52
11, 83279, Note_on_c, 6, 57, 0
11, 83279, Note_on_c, 6, 69, 0
11, 83760, Note_on_c, 6, 57, 52
11, 83760, Note_on_c, 6, 69, 52
11, 83867, Note_on_c, 6, 57, 0
11, 83867, Note_on_c, 6, 69, 0
11, 83880, Note_on_c, 6, 57, 52
11, 83880, Note_on_c, 6, 69, 52
11, 83987, Note_on_c, 6, 57, 0
11, 83987, Note_on_c, 6, 69, 0
11, 84000, Note_on_c, 6, 57, 52
11, 84000, Note_on_c, 6, 69, 52
11, 84239, Note_on_c, 6, 57, 0
11, 84239, Note_on_c, 6, 69, 0
11, 84720, Note_on_c, 6, 57, 52
11, 84720, Note_on_c, 6, 69, 52
11, 84827, Note_on_c, 6, 57, 0
11, 84827, Note_on_c, 6, 69, 0
11, 84840, Note_on_c, 6, 57, 52
11, 84840, Note_on_c, 6, 69, 52
11, 84947, Note_on_c, 6, 57, 0
11, 84947, Note_on_c, 6, 69, 0
11, 84960, Note_on_c, 6, 57, 52
11, 84960, Note_on_c, 6, 69, 52
11, 85079, Note_on_c, 6, 57, 0
11, 85079, Note_on_c, 6, 69, 0
11, 85200, Note_on_c, 6, 57, 54
11, 85200, Note_on_c, 6, 69, 54
11, 85307, Note_on_c, 6, 57, 0
11, 85307, Note_on_c, 6, 69, 0
11, 85320, Note_on_c, 6, 69, 56
11, 85320, Note_on_c, 6, 57, 56
11, 85427, Note_on_c, 6, 69, 0
11, 85427, Note_on_c, 6, 57, 0
11, 85440, Note_on_c, 6, 57, 57
11, 85440, Note_on_c, 6, 69, 57
11, 85559, Note_on_c, 6, 57, 0
11, 85559, Note_on_c, 6, 69, 0
11, 85680, Note_on_c, 6, 69, 60
11, 85680, Note_on_c, 6, 57, 60
11, 85787, Note_on_c, 6, 69, 0
11, 85787, Note_on_c, 6, 57, 0
11, 85800, Note_on_c, 6, 69, 61
11, 85800, Note_on_c, 6, 57, 61
11, 85907, Note_on_c, 6, 69, 0
11, 85907, Note_on_c, 6, 57, 0
11, 85920, Note_on_c, 6, 69, 62
11, 85920, Note_on_c, 6, 57, 62
11, 86039, Note_on_c, 6, 69, 0
11, 86039, Note_on_c, 6, 57, 0
11, 86160, Note_on_c, 6, 57, 65
11, 86160, Note_on_c, 6, 69, 65
11, 86267, Note_on_c, 6, 57, 0
11, 86267, Note_on_c, 6, 69, 0
11, 86280, Note_on_c, 6, 69, 66
11, 86280, Note_on_c, 6, 57, 66
11, 86387, Note_on_c, 6, 69, 0
11, 86387, Note_on_c, 6, 57, 0
11, 86400, Note_on_c, 6, 69, 68
11, 86400, Note_on_c, 6, 57, 68
11, 86507, Note_on_c, 6, 69, 0
11, 86507, Note_on_c, 6, 57, 0
11, 86520, Note_on_c, 6, 57, 65
11, 86520, Note_on_c, 6, 69, 65
11, 86627, Note_on_c, 6, 57, 0
11, 86627, Note_on_c, 6, 69, 0
11, 86880, Note_on_c, 6, 69, 56
11, 86880, Note_on_c, 6, 57, 56
11, 86987, Note_on_c, 6, 69, 0
11, 86987, Note_on_c, 6, 57, 0
11, 87000, Note_on_c, 6, 69, 53
11, 87000, Note_on_c, 6, 57, 53
11, 87107, Note_on_c, 6, 69, 0
11, 87107, Note_on_c, 6, 57, 0
11, 87360, Note_on_c, 6, 69, 44
11, 87360, Note_on_c, 6, 57, 44
11, 87467, Note_on_c, 6, 69, 0
11, 87467, Note_on_c, 6, 57, 0
11, 87480, Note_on_c, 6, 69, 44
11, 87480, Note_on_c, 6, 57, 44
11, 87587, Note_on_c, 6, 69, 0
11, 87587, Note_on_c, 6, 57, 0
11, 101760, Control_c, 6, 11, 112
11, 101880, Note_on_c, 6, 76, 84
11, 101900, Control_c, 6, 11, 113
11, 101924, Control_c, 6, 11, 114
11, 101948, Control_c, 6, 11, 115
11, 101973, Control_c, 6, 11, 116
11, 101997, Control_c, 6, 11, 117
11, 102021, Control_c, 6, 11, 118
11, 102046, Control_c, 6, 11, 119
11, 102070, Control_c, 6, 11, 120
11, 102094, Control_c, 6, 11, 121
11, 102118, Control_c, 6, 11, 122
11, 102143, Control_c, 6, 11, 123
11, 102167, Control_c, 6, 11, 124
11, 102191, Control_c, 6, 11, 125
11, 102216, Control_c, 6, 11, 127
11, 102227, Note_on_c, 6, 76, 0
11, 102240, Note_on_c, 6, 76, 84
11, 102467, Note_on_c, 6, 76, 0
11, 102480, Note_on_c, 6, 76, 84
11, 102569, Note_on_c, 6, 76, 0
11, 102600, Note_on_c, 6, 76, 84
11, 102689, Note_on_c, 6, 76, 0
11, 102720, Note_on_c, 6, 76, 84
11, 102929, Note_on_c, 6, 76, 0
11, 102960, Note_on_c, 6, 76, 84
11, 103169, Note_on_c, 6, 76, 0
11, 103200, Note_on_c, 6, 76, 84
11, 103427, Note_on_c, 6, 76, 0
11, 103440, Note_on_c, 6, 76, 84
11, 103529, Note_on_c, 6, 76, 0
11, 103560, Note_on_c, 6, 76, 84
11, 103649, Note_on_c, 6, 76, 0
11, 103680, Note_on_c, 6, 76, 84
11, 103889, Note_on_c, 6, 76, 0
11, 103920, Note_on_c, 6, 76, 84
11, 104129, Note_on_c, 6, 76, 0
11, 104160, Note_on_c, 6, 76, 84
11, 104387, Note_on_c, 6, 76, 0
11, 104400, Note_on_c, 6, 76, 84
11, 104489, Note_on_c, 6, 76, 0
11, 104520, Note_on_c, 6, 76, 84
11, 104609, Note_on_c, 6, 76, 0
11, 104640, Note_on_c, 6, 76, 84
11, 104849, Note_on_c, 6, 76, 0
11, 104880, Note_on_c, 6, 76, 84
11, 105089, Note_on_c, 6, 76, 0
11, 105120, Note_on_c, 6, 76, 84
11, 105347, Note_on_c, 6, 76, 0
11, 105360, Note_on_c, 6, 76, 84
11, 105449, Note_on_c, 6, 76, 0
11, 105480, Note_on_c, 6, 76, 84
11, 105569, Note_on_c, 6, 76, 0
11, 105600, Note_on_c, 6, 69, 84
11, 105600, Note_on_c, 6, 57, 84
11, 105839, Note_on_c, 6, 69, 0
11, 105839, Note_on_c, 6, 57, 0
11, 111360, Control_c, 6, 11, 96
11, 111600, Note_on_c, 6, 69, 68
11, 111600, Note_on_c, 6, 57, 68
11, 111600, Control_c, 6, 11, 96
11, 111654, Control_c, 6, 11, 97
11, 111708, Control_c, 6, 11, 98
11, 111763, Control_c, 6, 11, 99
11, 111817, Control_c, 6, 11, 100
11, 111871, Control_c, 6, 11, 101
11, 111925, Control_c, 6, 11, 102
11, 111979, Control_c, 6, 11, 103
11, 112034, Control_c, 6, 11, 104
11, 112088, Control_c, 6, 11, 105
11, 112142, Control_c, 6, 11, 106
11, 112196, Control_c, 6, 11, 107
11, 112250, Control_c, 6, 11, 108
11, 112305, Control_c, 6, 11, 109
11, 112359, Control_c, 6, 11, 110
11, 112413, Control_c, 6, 11, 111
11, 112467, Control_c, 6, 11, 112
11, 112521, Control_c, 6, 11, 113
11, 112575, Control_c, 6, 11, 114
11, 112630, Control_c, 6, 11, 115
11, 112684, Control_c, 6, 11, 116
11, 112738, Control_c, 6, 11, 117
11, 112792, Control_c, 6, 11, 118
11, 112846, Control_c, 6, 11, 119
11, 112901, Control_c, 6, 11, 120
11, 112955, Control_c, 6, 11, 121
11, 113009, Control_c, 6, 11, 122
11, 113063, Control_c, 6, 11, 123
11, 113117, Control_c, 6, 11, 124
11, 113172, Control_c, 6, 11, 125
11, 113226, Control_c, 6, 11, 126
11, 113307, Control_c, 6, 11, 125
11, 113333, Control_c, 6, 11, 124
11, 113360, Control_c, 6, 11, 122
11, 113387, Control_c, 6, 11, 120
11, 113413, Control_c, 6, 11, 118
11, 113440, Control_c, 6, 11, 117
11, 113467, Control_c, 6, 11, 115
11, 113493, Control_c, 6, 11, 113
11, 113520, Control_c, 6, 11, 112
11, 113547, Control_c, 6, 11, 110
11, 113573, Control_c, 6, 11, 108
11, 113600, Control_c, 6, 11, 106
11, 113627, Control_c, 6, 11, 105
11, 113653, Control_c, 6, 11, 103
11, 113680, Control_c, 6, 11, 101
11, 113707, Control_c, 6, 11, 99
11, 113733, Control_c, 6, 11, 96
11, 113759, Note_on_c, 6, 69, 0
11, 113759, Note_on_c, 6, 57, 0
11, 116400, Control_c, 6, 11, 127
11, 116640, Note_on_c, 6, 69, 44
11, 116640, Note_on_c, 6, 57, 44
11, 116867, Note_on_c, 6, 69, 0
11, 116867, Note_on_c, 6, 57, 0
11, 116880, Note_on_c, 6, 69, 44
11, 116880, Note_on_c, 6, 57, 44
11, 116969, Note_on_c, 6, 69, 0
11, 116969, Note_on_c, 6, 57, 0
11, 117000, Note_on_c, 6, 69, 44
11, 117000, Note_on_c, 6, 57, 44
11, 117089, Note_on_c, 6, 69, 0
11, 117089, Note_on_c, 6, 57, 0
11, 117120, Note_on_c, 6, 57, 44
11, 117120, Note_on_c, 6, 69, 44
11, 117359, Note_on_c, 6, 57, 0
11, 117359, Note_on_c, 6, 69, 0
11, 117600, Note_on_c, 6, 69, 44
11, 117600, Note_on_c, 6, 57, 44
11, 117827, Note_on_c, 6, 69, 0
11, 117827, Note_on_c, 6, 57, 0
11, 117840, Note_on_c, 6, 69, 44
11, 117840, Note_on_c, 6, 57, 44
11, 117929, Note_on_c, 6, 69, 0
11, 117929, Note_on_c, 6, 57, 0
11, 117960, Note_on_c, 6, 69, 44
11, 117960, Note_on_c, 6, 57, 44
11, 118049, Note_on_c, 6, 69, 0
11, 118049, Note_on_c, 6, 57, 0
11, 118560, Note_on_c, 6, 76, 76
11, 118679, Note_on_c, 6, 76, 0
11, 120480, Note_on_c, 6, 76, 76
11, 120599, Note_on_c, 6, 76, 0
11, 120599, End_track
12, 0, Start_track
12, 0, Title_t, "Timpani"
12, 0, MIDI_port, 0
12, 0, Program_c, 8, 47
12, 0, Control_c, 8, 7, 96
12, 0, Control_c, 8, 10, 25
12, 0, Control_c, 8, 11, 127
12, 35520, Note_on_c, 8, 45, 84
12, 35759, Note_on_c, 8, 45, 0
12, 36000, Note_on_c, 8, 52, 84
12, 36239, Note_on_c, 8, 52, 0
12, 36480, Note_on_c, 8, 52, 84
12, 36719, Note_on_c, 8, 52, 0
12, 36960, Note_on_c, 8, 45, 84
12, 37199, Note_on_c, 8, 45, 0
12, 37440, Note_on_c, 8, 45, 84
12, 37679, Note_on_c, 8, 45, 0
12, 38160, Note_on_c, 8, 52, 84
12, 38399, Note_on_c, 8, 52, 0
12, 38880, Note_on_c, 8, 52, 84
12, 39119, Note_on_c, 8, 52, 0
12, 39360, Note_on_c, 8, 52, 84
12, 39599, Note_on_c, 8, 52, 0
12, 40320, Note_on_c, 8, 52, 84
12, 40559, Note_on_c, 8, 52, 0
12, 40800, Note_on_c, 8, 45, 84
12, 41039, Note_on_c, 8, 45, 0
12, 41280, Note_on_c, 8, 45, 84
12, 41519, Note_on_c, 8, 45, 0
12, 41760, Note_on_c, 8, 52, 84
12, 41999, Note_on_c, 8, 52, 0
12, 42000, Note_on_c, 8, 45, 84
12, 42239, Note_on_c, 8, 45, 0
12, 42240, Note_on_c, 8, 52, 84
12, 42479, Note_on_c, 8, 52, 0
12, 42480, Note_on_c, 8, 52, 84
12, 42599, Note_on_c, 8, 52, 0
12, 42600, Note_on_c, 8, 52, 84
12, 42719, Note_on_c, 8, 52, 0
12, 42720, Note_on_c, 8, 45, 84
12, 42959, Note_on_c, 8, 45, 0
12, 43200, Note_on_c, 8, 52, 84
12, 43439, Note_on_c, 8, 52, 0
12, 44160, Note_on_c, 8, 52, 72
12, 44399, Note_on_c, 8, 52, 0
12, 44640, Note_on_c, 8, 45, 65
12, 44879, Note_on_c, 8, 45, 0
12, 45120, Note_on_c, 8, 45, 59
12, 45359, Note_on_c, 8, 45, 0
12, 45600, Note_on_c, 8, 52, 52
12, 45839, Note_on_c, 8, 52, 0
12, 45840, Note_on_c, 8, 45, 52
12, 46079, Note_on_c, 8, 45, 0
12, 46080, Note_on_c, 8, 52, 52
12, 46319, Note_on_c, 8, 52, 0
12, 46320, Note_on_c, 8, 52, 52
12, 46439, Note_on_c, 8, 52, 0
12, 46440, Note_on_c, 8, 52, 52
12, 46559, Note_on_c, 8, 52, 0
12, 46560, Note_on_c, 8, 45, 52
12, 46799, Note_on_c, 8, 45, 0
12, 66720, Note_on_c, 8, 52, 44
12, 66959, Note_on_c, 8, 52, 0
12, 67680, Note_on_c, 8, 52, 44
12, 67919, Note_on_c, 8, 52, 0
12, 71040, Note_on_c, 8, 52, 84
12, 71129, Note_on_c, 8, 52, 0
12, 71160, Note_on_c, 8, 52, 84
12, 71249, Note_on_c, 8, 52, 0
12, 83040, Note_on_c, 8, 45, 52
12, 83279, Note_on_c, 8, 45, 0
12, 83760, Note_on_c, 8, 45, 52
12, 83879, Note_on_c, 8, 45, 0
12, 83880, Note_on_c, 8, 45, 52
12, 83999, Note_on_c, 8, 45, 0
12, 84000, Note_on_c, 8, 45, 52
12, 84239, Note_on_c, 8, 45, 0
12, 84720, Note_on_c, 8, 45, 52
12, 84839, Note_on_c, 8, 45, 0
12, 84840, Note_on_c, 8, 45, 52
12, 84959, Note_on_c, 8, 45, 0
12, 84960, Note_on_c, 8, 45, 52
12, 85079, Note_on_c, 8, 45, 0
12, 85200, Note_on_c, 8, 45, 54
12, 85319, Note_on_c, 8, 45, 0
12, 85320, Note_on_c, 8, 45, 56
12, 85439, Note_on_c, 8, 45, 0
12, 85440, Note_on_c, 8, 45, 57
12, 85559, Note_on_c, 8, 45, 0
12, 85680, Note_on_c, 8, 45, 60
12, 85799, Note_on_c, 8, 45, 0
12, 85800, Note_on_c, 8, 45, 61
12, 85919, Note_on_c, 8, 45, 0
12, 85920, Note_on_c, 8, 45, 62
12, 86039, Note_on_c, 8, 45, 0
12, 86160, Note_on_c, 8, 45, 65
12, 86279, Note_on_c, 8, 45, 0
12, 86280, Note_on_c, 8, 45, 66
12, 86399, Note_on_c, 8, 45, 0
12, 86400, Note_on_c, 8, 45, 68
12, 86519, Note_on_c, 8, 45, 0
12, 86520, Note_on_c, 8, 45, 65
12, 86639, Note_on_c, 8, 45, 0
12, 86880, Note_on_c, 8, 45, 56
12, 86999, Note_on_c, 8, 45, 0
12, 87000, Note_on_c, 8, 45, 53
12, 87119, Note_on_c, 8, 45, 0
12, 87360, Note_on_c, 8, 45, 44
12, 87479, Note_on_c, 8, 45, 0
12, 87480, Note_on_c, 8, 45, 44
12, 87599, Note_on_c, 8, 45, 0
12, 101880, Note_on_c, 8, 52, 76
12, 101939, Note_on_c, 8, 52, 0
12, 101940, Note_on_c, 8, 52, 77
12, 101999, Note_on_c, 8, 52, 0
12, 102000, Note_on_c, 8, 52, 79
12, 102059, Note_on_c, 8, 52, 0
12, 102060, Note_on_c, 8, 52, 80
12, 102119, Note_on_c, 8, 52, 0
12, 102120, Note_on_c, 8, 52, 81
12, 102179, Note_on_c, 8, 52, 0
12, 102180, Note_on_c, 8, 52, 82
12, 102239, Note_on_c, 8, 52, 0
12, 102240, Note_on_c, 8, 52, 84
12, 102479, Note_on_c, 8, 52, 0
12, 102480, Note_on_c, 8, 52, 84
12, 102569, Note_on_c, 8, 52, 0
12, 102600, Note_on_c, 8, 52, 84
12, 102689, Note_on_c, 8, 52, 0
12, 102720, Note_on_c, 8, 52, 84
12, 102959, Note_on_c, 8, 52, 0
12, 102960, Note_on_c, 8, 52, 84
12, 103199, Note_on_c, 8, 52, 0
12, 103200, Note_on_c, 8, 52, 84
12, 103439, Note_on_c, 8, 52, 0
12, 103440, Note_on_c, 8, 52, 84
12, 103529, Note_on_c, 8, 52, 0
12, 103560, Note_on_c, 8, 52, 84
12, 103649, Note_on_c, 8, 52, 0
12, 103680, Note_on_c, 8, 52, 84
12, 103919, Note_on_c, 8, 52, 0
12, 103920, Note_on_c, 8, 52, 84
12, 104159, Note_on_c, 8, 52, 0
12, 104160, Note_on_c, 8, 52, 84
12, 104399, Note_on_c, 8, 52, 0
12, 104400, Note_on_c, 8, 52, 84
12, 104489, Note_on_c, 8, 52, 0
12, 104520, Note_on_c, 8, 52, 84
12, 104609, Note_on_c, 8, 52, 0
12, 104640, Note_on_c, 8, 52, 84
12, 104879, Note_on_c, 8, 52, 0
12, 104880, Note_on_c, 8, 52, 84
12, 105119, Note_on_c, 8, 52, 0
12, 105120, Note_on_c, 8, 52, 84
12, 105359, Note_on_c, 8, 52, 0
12, 105360, Note_on_c, 8, 52, 84
12, 105449, Note_on_c, 8, 52, 0
12, 105480, Note_on_c, 8, 52, 84
12, 105569, Note_on_c, 8, 52, 0
12, 105600, Note_on_c, 8, 45, 84
12, 105839, Note_on_c, 8, 45, 0
12, 116640, Note_on_c, 8, 45, 44
12, 116879, Note_on_c, 8, 45, 0
12, 116880, Note_on_c, 8, 45, 44
12, 116999, Note_on_c, 8, 45, 0
12, 117000, Note_on_c, 8, 45, 44
12, 117119, Note_on_c, 8, 45, 0
12, 117120, Note_on_c, 8, 45, 44
12, 117359, Note_on_c, 8, 45, 0
12, 117600, Note_on_c, 8, 45, 44
12, 117839, Note_on_c, 8, 45, 0
12, 117840, Note_on_c, 8, 45, 44
12, 117959, Note_on_c, 8, 45, 0
12, 117960, Note_on_c, 8, 45, 44
12, 118079, Note_on_c, 8, 45, 0
12, 118560, Note_on_c, 8, 52, 76
12, 118679, Note_on_c, 8, 52, 0
12, 120480, Note_on_c, 8, 52, 76
12, 120599, Note_on_c, 8, 52, 0
12, 120599, End_track
13, 0, Start_track
13, 0, Title_t, "Violin I"
13, 0, MIDI_port, 0
13, 0, Program_c, 10, 48
13, 0, Control_c, 10, 7, 96
13, 0, Control_c, 10, 10, 48
13, 0, Control_c, 10, 11, 127
13, 24000, Note_on_c, 10, 76, 52
13, 24231, Note_on_c, 10, 76, 0
13, 24240, Note_on_c, 10, 76, 52
13, 24329, Note_on_c, 10, 76, 0
13, 24360, Note_on_c, 10, 76, 53
13, 24449, Note_on_c, 10, 76, 0
13, 24480, Note_on_c, 10, 76, 53
13, 24689, Note_on_c, 10, 76, 0
13, 24720, Note_on_c, 10, 76, 54
13, 24929, Note_on_c, 10, 76, 0
13, 24960, Note_on_c, 10, 76, 55
13, 25191, Note_on_c, 10, 76, 0
13, 25200, Note_on_c, 10, 76, 55
13, 25289, Note_on_c, 10, 76, 0
13, 25320, Note_on_c, 10, 76, 56
13, 25409, Note_on_c, 10, 76, 0
13, 25440, Note_on_c, 10, 76, 56
13, 25649, Note_on_c, 10, 76, 0
13, 25680, Note_on_c, 10, 76, 57
13, 25889, Note_on_c, 10, 76, 0
13, 25920, Note_on_c, 10, 76, 58
13, 26151, Note_on_c, 10, 76, 0
13, 26160, Note_on_c, 10, 76, 58
13, 26249, Note_on_c, 10, 76, 0
13, 26280, Note_on_c, 10, 78, 59
13, 26369, Note_on_c, 10, 78, 0
13, 26400, Note_on_c, 10, 79, 59
13, 26609, Note_on_c, 10, 79, 0
13, 26640, Note_on_c, 10, 79, 60
13, 26849, Note_on_c, 10, 79, 0
13, 26880, Note_on_c, 10, 79, 61
13, 27111, Note_on_c, 10, 79, 0
13, 27120, Note_on_c, 10, 79, 61
13, 27209, Note_on_c, 10, 79, 0
13, 27240, Note_on_c, 10, 79, 62
13, 27329, Note_on_c, 10, 79, 0
13, 27360, Note_on_c, 10, 79, 62
13, 27599, Note_on_c, 10, 79, 0
13, 27840, Note_on_c, 10, 79, 64
13, 28071, Note_on_c, 10, 79, 0
13, 28080, Note_on_c, 10, 79, 64
13, 28169, Note_on_c, 10, 79, 0
13, 28200, Note_on_c, 10, 81, 65
13, 28289, Note_on_c, 10, 81, 0
13, 28320, Note_on_c, 10, 83, 65
13, 28529, Note_on_c, 10, 83, 0
13, 28560, Note_on_c, 10, 83, 66
13, 28769, Note_on_c, 10, 83, 0
13, 28800, Note_on_c, 10, 78, 67
13, 29031, Note_on_c, 10, 78, 0
13, 29040, Note_on_c, 10, 78, 67
13, 29129, Note_on_c, 10, 78, 0
13, 29160, Note_on_c, 10, 80, 68
13, 29249, Note_on_c, 10, 80, 0
13, 29280, Note_on_c, 10, 81, 68
13, 29489, Note_on_c, 10, 81, 0
13, 29520, Note_on_c, 10, 81, 69
13, 29729, Note_on_c, 10, 81, 0
13, 29760, Note_on_c, 10, 76, 70
13, 29991, Note_on_c, 10, 76, 0
13, 30000, Note_on_c, 10, 76, 70
13, 30089, Note_on_c, 10, 76, 0
13, 30120, Note_on_c, 10, 76, 71
13, 30209, Note_on_c, 10, 76, 0
13, 30240, Note_on_c, 10, 76, 71
13, 30449, Note_on_c, 10, 76, 0
13, 30480, Note_on_c, 10, 76, 72
13, 30689, Note_on_c, 10, 76, 0
13, 30720, Note_on_c, 10, 76, 73
13, 30951, Note_on_c, 10, 76, 0
13, 30960, Note_on_c, 10, 78, 73
13, 31049, Note_on_c, 10, 78, 0
13, 31080, Note_on_c, 10, 80, 74
13, 31169, Note_on_c, 10, 80, 0
13, 31200, Note_on_c, 10, 81, 74
13, 31439, Note_on_c, 10, 81, 0
13, 31680, Note_on_c, 10, 79, 76
13, 31911, Note_on_c, 10, 79, 0
13, 31920, Note_on_c, 10, 79, 76
13, 32009, Note_on_c, 10, 79, 0
13, 32040, Note_on_c, 10, 81, 76
13, 32129, Note_on_c, 10, 81, 0
13, 32160, Note_on_c, 10, 83, 76
13, 32369, Note_on_c, 10, 83, 0
13, 32400, Note_on_c, 10, 83, 76
13, 32609, Note_on_c, 10, 83, 0
13, 32640, Note_on_c, 10, 78, 80
13, 32871, Note_on_c, 10, 78, 0
13, 32880, Note_on_c, 10, 78, 80
13, 32969, Note_on_c, 10, 78, 0
13, 33000, Note_on_c, 10, 80, 80
13, 33089, Note_on_c, 10, 80, 0
13, 33120, Note_on_c, 10, 81, 80
13, 33329, Note_on_c, 10, 81, 0
13, 33360, Note_on_c, 10, 81, 80
13, 33569, Note_on_c, 10, 81, 0
13, 33600, Note_on_c, 10, 76, 80
13, 33831, Note_on_c, 10, 76, 0
13, 33840, Note_on_c, 10, 76, 80
13, 33929, Note_on_c, 10, 76, 0
13, 33960, Note_on_c, 10, 76, 80
13, 34049, Note_on_c, 10, 76, 0
13, 34080, Note_on_c, 10, 76, 80
13, 34289, Note_on_c, 10, 76, 0
13, 34320, Note_on_c, 10, 76, 80
13, 34529, Note_on_c, 10, 76, 0
13, 34560, Note_on_c, 10, 76, 80
13, 34791, Note_on_c, 10, 76, 0
13, 34800, Note_on_c, 10, 78, 80
13, 34889, Note_on_c, 10, 78, 0
13, 34920, Note_on_c, 10, 80, 80
13, 35009, Note_on_c, 10, 80, 0
13, 35040, Note_on_c, 10, 81, 80
13, 35279, Note_on_c, 10, 81, 0
13, 35520, Note_on_c, 10, 84, 84
13, 35987, Note_on_c, 10, 84, 0
13, 36000, Note_on_c, 10, 83, 84
13, 36407, Note_on_c, 10, 83, 0
13, 36420, Note_on_c, 10, 83, 84
13, 36449, Note_on_c, 10, 83, 0
13, 36450, Note_on_c, 10, 84, 84
13, 36479, Note_on_c, 10, 84, 0
13, 36480, Note_on_c, 10, 86, 84
13, 36839, Note_on_c, 10, 86, 0
13, 36840, Note_on_c, 10, 84, 84
13, 36899, Note_on_c, 10, 84, 0
13, 36900, Note_on_c, 10, 83, 84
13, 36953, Note_on_c, 10, 83, 0
13, 36960, Note_on_c, 10, 83, 84
13, 37079, Note_on_c, 10, 83, 0
13, 37080, Note_on_c, 10, 84, 84
13, 37187, Note_on_c, 10, 84, 0
13, 37200, Note_on_c, 10, 84, 84
13, 37427, Note_on_c, 10, 84, 0
13, 37440, Note_on_c, 10, 84, 84
13, 37787, Note_on_c, 10, 84, 0
13, 37800, Note_on_c, 10, 72, 84
13, 37859, Note_on_c, 10, 72, 0
13, 37860, Note_on_c, 10, 74, 84
13, 37913, Note_on_c, 10, 74, 0
13, 37920, Note_on_c, 10, 75, 84
13, 38039, Note_on_c, 10, 75, 0
13, 38040, Note_on_c, 10, 76, 84
13, 38147, Note_on_c, 10, 76, 0
13, 38160, Note_on_c, 10, 76, 84
13, 38249, Note_on_c, 10, 76, 0
13, 38280, Note_on_c, 10, 76, 84
13, 38333, Note_on_c, 10, 76, 0
13, 38340, Note_on_c, 10, 74, 84
13, 38369, Note_on_c, 10, 74, 0
13, 38370, Note_on_c, 10, 76, 84
13, 38399, Note_on_c, 10, 76, 0
13, 38400, Note_on_c, 10, 77, 84
13, 38759, Note_on_c, 10, 77, 0
13, 38760, Note_on_c, 10, 76, 84
13, 38819, Note_on_c, 10, 76, 0
13, 38820, Note_on_c, 10, 74, 84
13, 38873, Note_on_c, 10, 74, 0
13, 38880, Note_on_c, 10, 74, 84
13, 38999, Note_on_c, 10, 74, 0
13, 39000, Note_on_c, 10, 76, 84
13, 39107, Note_on_c, 10, 76, 0
13, 39120, Note_on_c, 10, 76, 84
13, 39347, Note_on_c, 10, 76, 0
13, 39360, Note_on_c, 10, 76, 84
13, 39599, Note_on_c, 10, 76, 0
13, 39600, Note_on_c, 10, 88, 84
13, 39839, Note_on_c, 10, 88, 0
13, 39840, Note_on_c, 10, 87, 84
13, 40307, Note_on_c, 10, 87, 0
13, 40320, Note_on_c, 10, 86, 84
13, 40439, Note_on_c, 10, 86, 0
13, 40440, Note_on_c, 10, 83, 84
13, 40499, Note_on_c, 10, 83, 0
13, 40500, Note_on_c, 10, 85, 84
13, 40559, Note_on_c, 10, 85, 0
13, 40560, Note_on_c, 10, 86, 84
13, 40679, Note_on_c, 10, 86, 0
13, 40680, Note_on_c, 10, 88, 84
13, 40739, Note_on_c, 10, 88, 0
13, 40740, Note_on_c, 10, 86, 84
13, 40793, Note_on_c, 10, 86, 0
13, 40800, Note_on_c, 10, 86, 84
13, 40919, Note_on_c, 10, 86, 0
13, 40920, Note_on_c, 10, 85, 84
13, 41027, Note_on_c, 10, 85, 0
13, 41040, Note_on_c, 10, 84, 84
13, 41267, Note_on_c, 10, 84, 0
13, 41280, Note_on_c, 10, 84, 84
13, 41759, Note_on_c, 10, 84, 0
13, 41760, Note_on_c, 10, 83, 84
13, 41999, Note_on_c, 10, 83, 0
13, 42000, Note_on_c, 10, 84, 84
13, 42167, Note_on_c, 10, 84, 0
13, 42180, Note_on_c, 10, 83, 84
13, 42209, Note_on_c, 10, 83, 0
13, 42210, Note_on_c, 10, 84, 84
13, 42239, Note_on_c, 10, 84, 0
13, 42240, Note_on_c, 10, 86, 84
13, 42599, Note_on_c, 10, 86, 0
13, 42600, Note_on_c, 10, 84, 84
13, 42659, Note_on_c, 10, 84, 0
13, 42660, Note_on_c, 10, 83, 84
13, 42713, Note_on_c, 10, 83, 0
13, 42720, Note_on_c, 10, 81, 84
13, 42809, Note_on_c, 10, 81, 0
13, 42840, Note_on_c, 10, 69, 84
13, 42899, Note_on_c, 10, 69, 0
13, 42900, Note_on_c, 10, 71, 84
13, 42959, Note_on_c, 10, 71, 0
13, 42960, Note_on_c, 10, 72, 84
13, 43049, Note_on_c, 10, 72, 0
13, 43080, Note_on_c, 10, 72, 84
13, 43139, Note_on_c, 10, 72, 0
13, 43140, Note_on_c, 10, 74, 84
13, 43199, Note_on_c, 10, 74, 0
13, 43200, Control_c, 10, 11, 127
13, 43200, Note_on_c, 10, 76, 84
13, 43253, Control_c, 10, 11, 126
13, 43307, Control_c, 10, 11, 125
13, 43360, Control_c, 10, 11, 124
13, 43413, Control_c, 10, 11, 123
13, 43439, Note_on_c, 10, 76, 0
13, 43440, Note_on_c, 10, 88, 84
13, 43467, Control_c, 10, 11, 122
13, 43520, Control_c, 10, 11, 121
13, 43573, Control_c, 10, 11, 120
13, 43627, Control_c, 10, 11, 119
13, 43667, Note_on_c, 10, 88, 0
13, 43680, Control_c, 10, 11, 118
13, 43680, Note_on_c, 10, 87, 84
13, 43733, Control_c, 10, 11, 117
13, 43787, Control_c, 10, 11, 116
13, 43840, Control_c, 10, 11, 115
13, 43893, Control_c, 10, 11, 114
13, 43947, Control_c, 10, 11, 113
13, 44000, Control_c, 10, 11, 112
13, 44053, Control_c, 10, 11, 111
13, 44107, Control_c, 10, 11, 110
13, 44147, Note_on_c, 10, 87, 0
13, 44160, Note_on_c, 10, 86, 84
13, 44160, Control_c, 10, 11, 109
13, 44213, Control_c, 10, 11, 108
13, 44267, Control_c, 10, 11, 107
13, 44279, Note_on_c, 10, 86, 0
13, 44280, Note_on_c, 10, 83, 84
13, 44320, Control_c, 10, 11, 106
13, 44339, Note_on_c, 10, 83, 0
13, 44340, Note_on_c, 10, 85, 84
13, 44373, Control_c, 10, 11, 105
13, 44399, Note_on_c, 10, 85, 0
13, 44400, Note_on_c, 10, 86, 84
13, 44427, Control_c, 10, 11, 104
13, 44480, Control_c, 10, 11, 103
13, 44519, Note_on_c, 10, 86, 0
13, 44520, Note_on_c, 10, 88, 84
13, 44533, Control_c, 10, 11, 102
13, 44579, Note_on_c, 10, 88, 0
13, 44580, Note_on_c, 10, 86, 84
13, 44587, Control_c, 10, 11, 101
13, 44633, Note_on_c, 10, 86, 0
13, 44640, Note_on_c, 10, 86, 84
13, 44640, Control_c, 10, 11, 100
13, 44693, Control_c, 10, 11, 99
13, 44747, Control_c, 10, 11, 98
13, 44759, Note_on_c, 10, 86, 0
13, 44760, Note_on_c, 10, 85, 84
13, 44800, Control_c, 10, 11, 97
13, 44853, Control_c, 10, 11, 96
13, 44867, Note_on_c, 10, 85, 0
13, 44880, Note_on_c, 10, 84, 84
13, 44907, Control_c, 10, 11, 95
13, 44960, Control_c, 10, 11, 94
13, 45013, Control_c, 10, 11, 93
13, 45067, Control_c, 10, 11, 92
13, 45107, Note_on_c, 10, 84, 0
13, 45120, Control_c, 10, 11, 91
13, 45120, Note_on_c, 10, 84, 84
13, 45173, Control_c, 10, 11, 90
13, 45227, Control_c, 10, 11, 89
13, 45280, Control_c, 10, 11, 88
13, 45333, Control_c, 10, 11, 87
13, 45387, Control_c, 10, 11, 86
13, 45440, Control_c, 10, 11, 85
13, 45493, Control_c, 10, 11, 84
13, 45547, Control_c, 10, 11, 83
13, 45599, Note_on_c, 10, 84, 0
13, 45600, Control_c, 10, 11, 82
13, 45600, Note_on_c, 10, 83, 84
13, 45653, Control_c, 10, 11, 81
13, 45707, Control_c, 10, 11, 80
13, 45760, Control_c, 10, 11, 79
13, 45813, Control_c, 10, 11, 78
13, 45839, Note_on_c, 10, 83, 0
13, 45840, Note_on_c, 10, 84, 84
13, 45867, Control_c, 10, 11, 77
13, 45920, Control_c, 10, 11, 76
13, 45973, Control_c, 10, 11, 75
13, 46007, Note_on_c, 10, 84, 0
13, 46020, Note_on_c, 10, 83, 84
13, 46027, Control_c, 10, 11, 74
13, 46049, Note_on_c, 10, 83, 0
13, 46050, Note_on_c, 10, 84, 84
13, 46079, Note_on_c, 10, 84, 0
13, 46080, Control_c, 10, 11, 73
13, 46080, Note_on_c, 10, 86, 84
13, 46133, Control_c, 10, 11, 72
13, 46187, Control_c, 10, 11, 71
13, 46240, Control_c, 10, 11, 70
13, 46293, Control_c, 10, 11, 69
13, 46347, Control_c, 10, 11, 68
13, 46400, Control_c, 10, 11, 67
13, 46439, Note_on_c, 10, 86, 0
13, 46440, Note_on_c, 10, 84, 84
13, 46453, Control_c, 10, 11, 66
13, 46499, Note_on_c, 10, 84, 0
13, 46500, Note_on_c, 10, 83, 84
13, 46507, Control_c, 10, 11, 65
13, 46553, Note_on_c, 10, 83, 0
13, 46560, Control_c, 10, 11, 64
13, 46560, Note_on_c, 10, 81, 84
13, 46799, Note_on_c, 10, 81, 0
13, 46980, Note_on_c, 10, 71, 84
13, 47009, Note_on_c, 10, 71, 0
13, 47010, Note_on_c, 10, 72, 84
13, 47039, Note_on_c, 10, 72, 0
13, 47040, Note_on_c, 10, 74, 84
13, 47399, Note_on_c, 10, 74, 0
13, 47400, Note_on_c, 10, 72, 84
13, 47459, Note_on_c, 10, 72, 0
13, 47460, Note_on_c, 10, 71, 84
13, 47513, Note_on_c, 10, 71, 0
13, 47520, Note_on_c, 10, 69, 84
13, 47759, Note_on_c, 10, 69, 0
13, 48000, Control_c, 10, 11, 127
13, 48240, Note_on_c, 10, 76, 52
13, 48319, Note_on_c, 10, 76, 0
13, 48320, Note_on_c, 10, 74, 52
13, 48399, Note_on_c, 10, 74, 0
13, 48400, Note_on_c, 10, 72, 52
13, 48467, Note_on_c, 10, 72, 0
13, 48480, Note_on_c, 10, 76, 52
13, 48559, Note_on_c, 10, 76, 0
13, 48560, Note_on_c, 10, 73, 52
13, 48639, Note_on_c, 10, 73, 0
13, 48640, Note_on_c, 10, 69, 52
13, 48719, Note_on_c, 10, 69, 0
13, 48720, Note_on_c, 10, 73, 52
13, 48799, Note_on_c, 10, 73, 0
13, 48800, Note_on_c, 10, 69, 52
13, 48879, Note_on_c, 10, 69, 0
13, 48880, Note_on_c, 10, 64, 52
13, 48947, Note_on_c, 10, 64, 0
13, 48960, Note_on_c, 10, 69, 52
13, 49039, Note_on_c, 10, 69, 0
13, 49040, Note_on_c, 10, 64, 52
13, 49119, Note_on_c, 10, 64, 0
13, 49120, Note_on_c, 10, 61, 52
13, 49199, Note_on_c, 10, 61, 0
13, 49200, Note_on_c, 10, 73, 52
13, 49279, Note_on_c, 10, 73, 0
13, 49280, Note_on_c, 10, 69, 52
13, 49359, Note_on_c, 10, 69, 0
13, 49360, Note_on_c, 10, 64, 52
13, 49427, Note_on_c, 10, 64, 0
13, 49440, Note_on_c, 10, 73, 52
13, 49519, Note_on_c, 10, 73, 0
13, 49520, Note_on_c, 10, 66, 52
13, 49599, Note_on_c, 10, 66, 0
13, 49600, Note_on_c, 10, 62, 52
13, 49679, Note_on_c, 10, 62, 0
13, 49680, Note_on_c, 10, 71, 52
13, 49759, Note_on_c, 10, 71, 0
13, 49760, Note_on_c, 10, 66, 52
13, 49839, Note_on_c, 10, 66, 0
13, 49840, Note_on_c, 10, 62, 52
13, 49907, Note_on_c, 10, 62, 0
13, 49920, Note_on_c, 10, 71, 53
13, 49999, Note_on_c, 10, 71, 0
13, 50000, Note_on_c, 10, 66, 54
13, 50079, Note_on_c, 10, 66, 0
13, 50080, Note_on_c, 10, 62, 54
13, 50159, Note_on_c, 10, 62, 0
13, 50160, Note_on_c, 10, 69, 55
13, 50239, Note_on_c, 10, 69, 0
13, 50240, Note_on_c, 10, 61, 56
13, 50319, Note_on_c, 10, 61, 0
13, 50320, Note_on_c, 10, 69, 56
13, 50387, Note_on_c, 10, 69, 0
13, 50400, Note_on_c, 10, 59, 57
13, 50479, Note_on_c, 10, 59, 0
13, 50480, Note_on_c, 10, 62, 58
13, 50559, Note_on_c, 10, 62, 0
13, 50560, Note_on_c, 10, 68, 58
13, 50639, Note_on_c, 10, 68, 0
13, 50640, Note_on_c, 10, 69, 59
13, 50719, Note_on_c, 10, 69, 0
13, 50720, Note_on_c, 10, 61, 60
13, 50799, Note_on_c, 10, 61, 0
13, 50800, Note_on_c, 10, 69, 61
13, 50879, Note_on_c, 10, 69, 0
13, 50880, Note_on_c, 10, 62, 61
13, 50959, Note_on_c, 10, 62, 0
13, 50960, Note_on_c, 10, 66, 62
13, 51039, Note_on_c, 10, 66, 0
13, 51040, Note_on_c, 10, 71, 63
13, 51119, Note_on_c, 10, 71, 0
13, 51120, Note_on_c, 10, 73, 63
13, 51199, Note_on_c, 10, 73, 0
13, 51200, Note_on_c, 10, 64, 64
13, 51279, Note_on_c, 10, 64, 0
13, 51280, Note_on_c, 10, 73, 65
13, 51359, Note_on_c, 10, 73, 0
13, 51360, Note_on_c, 10, 66, 65
13, 51439, Note_on_c, 10, 66, 0
13, 51440, Note_on_c, 10, 69, 66
13, 51519, Note_on_c, 10, 69, 0
13, 51520, Note_on_c, 10, 74, 67
13, 51599, Note_on_c, 10, 74, 0
13, 51600, Note_on_c, 10, 76, 68
13, 51679, Note_on_c, 10, 76, 0
13, 51680, Note_on_c, 10, 68, 68
13, 51759, Note_on_c, 10, 68, 0
13, 51760, Note_on_c, 10, 76, 66
13, 51827, Note_on_c, 10, 76, 0
13, 51840, Note_on_c, 10, 74, 64
13, 51919, Note_on_c, 10, 74, 0
13, 51920, Note_on_c, 10, 68, 62
13, 51999, Note_on_c, 10, 68, 0
13, 52000, Note_on_c, 10, 71, 60
13, 52079, Note_on_c, 10, 71, 0
13, 52080, Note_on_c, 10, 69, 58
13, 52159, Note_on_c, 10, 69, 0
13, 52160, Note_on_c, 10, 73, 56
13, 52239, Note_on_c, 10, 73, 0
13, 52240, Note_on_c, 10, 81, 54
13, 52307, Note_on_c, 10, 81, 0
13, 52320, Note_on_c, 10, 81, 52
13, 52399, Note_on_c, 10, 81, 0
13, 52400, Note_on_c, 10, 73, 52
13, 52479, Note_on_c, 10, 73, 0
13, 52480, Note_on_c, 10, 69, 52
13, 52559, Note_on_c, 10, 69, 0
13, 52560, Note_on_c, 10, 76, 52
13, 52639, Note_on_c, 10, 76, 0
13, 52640, Note_on_c, 10, 73, 52
13, 52719, Note_on_c, 10, 73, 0
13, 52720, Note_on_c, 10, 67, 52
13, 52799, Note_on_c, 10, 67, 0
13, 52800, Note_on_c, 10, 73, 53
13, 52879, Note_on_c, 10, 73, 0
13, 52880, Note_on_c, 10, 67, 54
13, 52959, Note_on_c, 10, 67, 0
13, 52960, Note_on_c, 10, 64, 55
13, 53039, Note_on_c, 10, 64, 0
13, 53040, Note_on_c, 10, 76, 56
13, 53119, Note_on_c, 10, 76, 0
13, 53120, Note_on_c, 10, 73, 56
13, 53199, Note_on_c, 10, 73, 0
13, 53200, Note_on_c, 10, 67, 57
13, 53267, Note_on_c, 10, 67, 0
13, 53280, Note_on_c, 10, 76, 58
13, 53359, Note_on_c, 10, 76, 0
13, 53360, Note_on_c, 10, 73, 59
13, 53439, Note_on_c, 10, 73, 0
13, 53440, Note_on_c, 10, 67, 60
13, 53519, Note_on_c, 10, 67, 0
13, 53520, Note_on_c, 10, 66, 60
13, 53599, Note_on_c, 10, 66, 0
13, 53600, Note_on_c, 10, 74, 61
13, 53679, Note_on_c, 10, 74, 0
13, 53680, Note_on_c, 10, 76, 62
13, 53759, Note_on_c, 10, 76, 0
13, 53760, Note_on_c, 10, 78, 63
13, 53839, Note_on_c, 10, 78, 0
13, 53840, Note_on_c, 10, 74, 64
13, 53919, Note_on_c, 10, 74, 0
13, 53920, Note_on_c, 10, 66, 64
13, 53999, Note_on_c, 10, 66, 0
13, 54000, Note_on_c, 10, 64, 65
13, 54079, Note_on_c, 10, 64, 0
13, 54080, Note_on_c, 10, 73, 66
13, 54159, Note_on_c, 10, 73, 0
13, 54160, Note_on_c, 10, 76, 67
13, 54239, Note_on_c, 10, 76, 0
13, 54240, Note_on_c, 10, 74, 68
13, 54319, Note_on_c, 10, 74, 0
13, 54320, Note_on_c, 10, 71, 67
13, 54399, Note_on_c, 10, 71, 0
13, 54400, Note_on_c, 10, 64, 66
13, 54467, Note_on_c, 10, 64, 0
13, 54480, Note_on_c, 10, 64, 64
13, 54559, Note_on_c, 10, 64, 0
13, 54560, Note_on_c, 10, 69, 63
13, 54639, Note_on_c, 10, 69, 0
13, 54640, Note_on_c, 10, 73, 62
13, 54707, Note_on_c, 10, 73, 0
13, 54720, Note_on_c, 10, 71, 60
13, 54799, Note_on_c, 10, 71, 0
13, 54800, Note_on_c, 10, 68, 59
13, 54879, Note_on_c, 10, 68, 0
13, 54880, Note_on_c, 10, 64, 58
13, 54959, Note_on_c, 10, 64, 0
13, 54960, Note_on_c, 10, 66, 56
13, 55039, Note_on_c, 10, 66, 0
13, 55040, Note_on_c, 10, 69, 55
13, 55119, Note_on_c, 10, 69, 0
13, 55120, Note_on_c, 10, 75, 54
13, 55187, Note_on_c, 10, 75, 0
13, 55200, Note_on_c, 10, 76, 52
13, 55279, Note_on_c, 10, 76, 0
13, 55280, Note_on_c, 10, 71, 52
13, 55359, Note_on_c, 10, 71, 0
13, 55360, Note_on_c, 10, 68, 52
13, 55439, Note_on_c, 10, 68, 0
13, 55440, Note_on_c, 10, 76, 52
13, 55519, Note_on_c, 10, 76, 0
13, 55520, Note_on_c, 10, 71, 52
13, 55599, Note_on_c, 10, 71, 0
13, 55600, Note_on_c, 10, 68, 52
13, 55679, Note_on_c, 10, 68, 0
13, 55680, Note_on_c, 10, 78, 52
13, 55759, Note_on_c, 10, 78, 0
13, 55760, Note_on_c, 10, 71, 52
13, 55839, Note_on_c, 10, 71, 0
13, 55840, Note_on_c, 10, 69, 52
13, 55919, Note_on_c, 10, 69, 0
13, 55920, Note_on_c, 10, 78, 52
13, 55999, Note_on_c, 10, 78, 0
13, 56000, Note_on_c, 10, 71, 52
13, 56079, Note_on_c, 10, 71, 0
13, 56080, Note_on_c, 10, 69, 52
13, 56147, Note_on_c, 10, 69, 0
13, 56160, Note_on_c, 10, 76, 52
13, 56239, Note_on_c, 10, 76, 0
13, 56240, Note_on_c, 10, 71, 52
13, 56319, Note_on_c, 10, 71, 0
13, 56320, Note_on_c, 10, 68, 52
13, 56399, Note_on_c, 10, 68, 0
13, 56400, Note_on_c, 10, 76, 52
13, 56479, Note_on_c, 10, 76, 0
13, 56480, Note_on_c, 10, 71, 52
13, 56559, Note_on_c, 10, 71, 0
13, 56560, Note_on_c, 10, 68, 52
13, 56639, Note_on_c, 10, 68, 0
13, 56640, Note_on_c, 10, 75, 52
13, 56719, Note_on_c, 10, 75, 0
13, 56720, Note_on_c, 10, 69, 52
13, 56799, Note_on_c, 10, 69, 0
13, 56800, Note_on_c, 10, 66, 52
13, 56879, Note_on_c, 10, 66, 0
13, 56880, Note_on_c, 10, 71, 52
13, 56959, Note_on_c, 10, 71, 0
13, 56960, Note_on_c, 10, 69, 52
13, 57039, Note_on_c, 10, 69, 0
13, 57040, Note_on_c, 10, 66, 52
13, 57107, Note_on_c, 10, 66, 0
13, 57120, Note_on_c, 10, 64, 52
13, 57199, Note_on_c, 10, 64, 0
13, 57200, Note_on_c, 10, 68, 52
13, 57279, Note_on_c, 10, 68, 0
13, 57280, Note_on_c, 10, 71, 52
13, 57359, Note_on_c, 10, 71, 0
13, 57360, Note_on_c, 10, 68, 52
13, 57439, Note_on_c, 10, 68, 0
13, 57440, Note_on_c, 10, 71, 52
13, 57519, Note_on_c, 10, 71, 0
13, 57520, Note_on_c, 10, 76, 52
13, 57587, Note_on_c, 10, 76, 0
13, 57600, Note_on_c, 10, 78, 52
13, 57679, Note_on_c, 10, 78, 0
13, 57680, Note_on_c, 10, 71, 52
13, 57759, Note_on_c, 10, 71, 0
13, 57760, Note_on_c, 10, 69, 52
13, 57839, Note_on_c, 10, 69, 0
13, 57840, Note_on_c, 10, 78, 52
13, 57919, Note_on_c, 10, 78, 0
13, 57920, Note_on_c, 10, 71, 52
13, 57999, Note_on_c, 10, 71, 0
13, 58000, Note_on_c, 10, 69, 52
13, 58067, Note_on_c, 10, 69, 0
13, 58080, Note_on_c, 10, 76, 52
13, 58159, Note_on_c, 10, 76, 0
13, 58160, Note_on_c, 10, 71, 52
13, 58239, Note_on_c, 10, 71, 0
13, 58240, Note_on_c, 10, 68, 52
13, 58319, Note_on_c, 10, 68, 0
13, 58320, Note_on_c, 10, 76, 52
13, 58399, Note_on_c, 10, 76, 0
13, 58400, Note_on_c, 10, 71, 52
13, 58479, Note_on_c, 10, 71, 0
13, 58480, Note_on_c, 10, 68, 52
13, 58547, Note_on_c, 10, 68, 0
13, 58560, Note_on_c, 10, 76, 52
13, 58639, Note_on_c, 10, 76, 0
13, 58640, Note_on_c, 10, 70, 52
13, 58719, Note_on_c, 10, 70, 0
13, 58720, Note_on_c, 10, 67, 53
13, 58799, Note_on_c, 10, 67, 0
13, 58800, Note_on_c, 10, 64, 54
13, 58879, Note_on_c, 10, 64, 0
13, 58880, Note_on_c, 10, 67, 54
13, 58959, Note_on_c, 10, 67, 0
13, 58960, Note_on_c, 10, 70, 55
13, 59039, Note_on_c, 10, 70, 0
13, 59040, Note_on_c, 10, 64, 56
13, 59119, Note_on_c, 10, 64, 0
13, 59120, Note_on_c, 10, 68, 56
13, 59199, Note_on_c, 10, 68, 0
13, 59200, Note_on_c, 10, 71, 57
13, 59279, Note_on_c, 10, 71, 0
13, 59280, Note_on_c, 10, 76, 58
13, 59359, Note_on_c, 10, 76, 0
13, 59360, Note_on_c, 10, 71, 58
13, 59439, Note_on_c, 10, 71, 0
13, 59440, Note_on_c, 10, 68, 59
13, 59507, Note_on_c, 10, 68, 0
13, 59520, Note_on_c, 10, 76, 60
13, 59599, Note_on_c, 10, 76, 0
13, 59600, Note_on_c, 10, 70, 60
13, 59679, Note_on_c, 10, 70, 0
13, 59680, Note_on_c, 10, 67, 61
13, 59759, Note_on_c, 10, 67, 0
13, 59760, Note_on_c, 10, 64, 62
13, 59839, Note_on_c, 10, 64, 0
13, 59840, Note_on_c, 10, 67, 62
13, 59919, Note_on_c, 10, 67, 0
13, 59920, Note_on_c, 10, 70, 63
13, 59999, Note_on_c, 10, 70, 0
13, 60000, Note_on_c, 10, 64, 64
13, 60079, Note_on_c, 10, 64, 0
13, 60080, Note_on_c, 10, 68, 64
13, 60159, Note_on_c, 10, 68, 0
13, 60160, Note_on_c, 10, 71, 65
13, 60239, Note_on_c, 10, 71, 0
13, 60240, Note_on_c, 10, 76, 66
13, 60319, Note_on_c, 10, 76, 0
13, 60320, Note_on_c, 10, 71, 66
13, 60399, Note_on_c, 10, 71, 0
13, 60400, Note_on_c, 10, 68, 67
13, 60467, Note_on_c, 10, 68, 0
13, 60480, Note_on_c, 10, 76, 68
13, 60559, Note_on_c, 10, 76, 0
13, 60560, Note_on_c, 10, 70, 67
13, 60639, Note_on_c, 10, 70, 0
13, 60640, Note_on_c, 10, 67, 66
13, 60719, Note_on_c, 10, 67, 0
13, 60720, Note_on_c, 10, 64, 64
13, 60799, Note_on_c, 10, 64, 0
13, 60800, Note_on_c, 10, 67, 63
13, 60879, Note_on_c, 10, 67, 0
13, 60880, Note_on_c, 10, 70, 62
13, 60947, Note_on_c, 10, 70, 0
13, 60960, Note_on_c, 10, 66, 60
13, 61039, Note_on_c, 10, 66, 0
13, 61040, Note_on_c, 10, 71, 59
13, 61119, Note_on_c, 10, 71, 0
13, 61120, Note_on_c, 10, 66, 58
13, 61187, Note_on_c, 10, 66, 0
13, 61200, Note_on_c, 10, 66, 56
13, 61279, Note_on_c, 10, 66, 0
13, 61280, Note_on_c, 10, 71, 55
13, 61359, Note_on_c, 10, 71, 0
13, 61360, Note_on_c, 10, 74, 54
13, 61439, Note_on_c, 10, 74, 0
13, 61440, Note_on_c, 10, 73, 52
13, 61519, Note_on_c, 10, 73, 0
13, 61520, Note_on_c, 10, 69, 52
13, 61599, Note_on_c, 10, 69, 0
13, 61600, Note_on_c, 10, 64, 52
13, 61679, Note_on_c, 10, 64, 0
13, 61680, Note_on_c, 10, 62, 52
13, 61759, Note_on_c, 10, 62, 0
13, 61760, Note_on_c, 10, 68, 52
13, 61839, Note_on_c, 10, 68, 0
13, 61840, Note_on_c, 10, 71, 52
13, 61907, Note_on_c, 10, 71, 0
13, 61920, Note_on_c, 10, 64, 52
13, 61999, Note_on_c, 10, 64, 0
13, 62000, Note_on_c, 10, 69, 52
13, 62079, Note_on_c, 10, 69, 0
13, 62080, Note_on_c, 10, 73, 53
13, 62159, Note_on_c, 10, 73, 0
13, 62160, Note_on_c, 10, 74, 53
13, 62239, Note_on_c, 10, 74, 0
13, 62240, Note_on_c, 10, 75, 54
13, 62319, Note_on_c, 10, 75, 0
13, 62320, Note_on_c, 10, 76, 54
13, 62387, Note_on_c, 10, 76, 0
13, 62400, Note_on_c, 10, 76, 55
13, 62479, Note_on_c, 10, 76, 0
13, 62480, Note_on_c, 10, 70, 55
13, 62559, Note_on_c, 10, 70, 0
13, 62560, Note_on_c, 10, 67, 56
13, 62639, Note_on_c, 10, 67, 0
13, 62640, Note_on_c, 10, 64, 56
13, 62719, Note_on_c, 10, 64, 0
13, 62720, Note_on_c, 10, 67, 57
13, 62799, Note_on_c, 10, 67, 0
13, 62800, Note_on_c, 10, 70, 57
13, 62879, Note_on_c, 10, 70, 0
13, 62880, Note_on_c, 10, 64, 58
13, 62959, Note_on_c, 10, 64, 0
13, 62980, Note_on_c, 10, 68, 59
13, 63040, Note_on_c, 10, 71, 59
13, 63059, Note_on_c, 10, 68, 0
13, 63119, Note_on_c, 10, 71, 0
13, 63120, Note_on_c, 10, 76, 60
13, 63199, Note_on_c, 10, 76, 0
13, 63200, Note_on_c, 10, 71, 60
13, 63279, Note_on_c, 10, 71, 0
13, 63280, Note_on_c, 10, 68, 61
13, 63347, Note_on_c, 10, 68, 0
13, 63360, Note_on_c, 10, 76, 61
13, 63439, Note_on_c, 10, 76, 0
13, 63440, Note_on_c, 10, 70, 62
13, 63519, Note_on_c, 10, 70, 0
13, 63520, Note_on_c, 10, 67, 62
13, 63599, Note_on_c, 10, 67, 0
13, 63600, Note_on_c, 10, 64, 63
13, 63679, Note_on_c, 10, 64, 0
13, 63680, Note_on_c, 10, 67, 63
13, 63759, Note_on_c, 10, 67, 0
13, 63760, Note_on_c, 10, 70, 64
13, 63839, Note_on_c, 10, 70, 0
13, 63840, Note_on_c, 10, 64, 64
13, 63919, Note_on_c, 10, 64, 0
13, 63920, Note_on_c, 10, 68, 65
13, 63999, Note_on_c, 10, 68, 0
13, 64000, Note_on_c, 10, 71, 65
13, 64079, Note_on_c, 10, 71, 0
13, 64080, Note_on_c, 10, 76, 66
13, 64159, Note_on_c, 10, 76, 0
13, 64160, Note_on_c, 10, 71, 66
13, 64239, Note_on_c, 10, 71, 0
13, 64240, Note_on_c, 10, 68, 67
13, 64307, Note_on_c, 10, 68, 0
13, 64320, Note_on_c, 10, 76, 68
13, 64399, Note_on_c, 10, 76, 0
13, 64400, Note_on_c, 10, 70, 67
13, 64479, Note_on_c, 10, 70, 0
13, 64480, Note_on_c, 10, 67, 66
13, 64559, Note_on_c, 10, 67, 0
13, 64560, Note_on_c, 10, 64, 64
13, 64639, Note_on_c, 10, 64, 0
13, 64640, Note_on_c, 10, 67, 63
13, 64719, Note_on_c, 10, 67, 0
13, 64720, Note_on_c, 10, 70, 62
13, 64799, Note_on_c, 10, 70, 0
13, 64800, Note_on_c, 10, 69, 60
13, 64879, Note_on_c, 10, 69, 0
13, 64880, Note_on_c, 10, 77, 59
13, 64959, Note_on_c, 10, 77, 0
13, 64960, Note_on_c, 10, 69, 58
13, 65027, Note_on_c, 10, 69, 0
13, 65040, Note_on_c, 10, 69, 56
13, 65119, Note_on_c, 10, 69, 0
13, 65120, Note_on_c, 10, 74, 55
13, 65199, Note_on_c, 10, 74, 0
13, 65200, Note_on_c, 10, 77, 54
13, 65279, Note_on_c, 10, 77, 0
13, 65280, Note_on_c, 10, 76, 52
13, 65359, Note_on_c, 10, 76, 0
13, 65360, Note_on_c, 10, 72, 52
13, 65439, Note_on_c, 10, 72, 0
13, 65440, Note_on_c, 10, 67, 52
13, 65519, Note_on_c, 10, 67, 0
13, 65520, Note_on_c, 10, 65, 52
13, 65599, Note_on_c, 10, 65, 0
13, 65600, Note_on_c, 10, 71, 52
13, 65679, Note_on_c, 10, 71, 0
13, 65680, Note_on_c, 10, 74, 52
13, 65747, Note_on_c, 10, 74, 0
13, 65760, Note_on_c, 10, 64, 52
13, 65839, Note_on_c, 10, 64, 0
13, 65840, Note_on_c, 10, 72, 52
13, 65919, Note_on_c, 10, 72, 0
13, 65920, Note_on_c, 10, 76, 52
13, 65999, Note_on_c, 10, 76, 0
13, 66000, Note_on_c, 10, 72, 52
13, 66079, Note_on_c, 10, 72, 0
13, 66080, Note_on_c, 10, 76, 52
13, 66159, Note_on_c, 10, 76, 0
13, 66160, Note_on_c, 10, 79, 52
13, 66227, Note_on_c, 10, 79, 0
13, 66240, Note_on_c, 10, 71, 52
13, 66319, Note_on_c, 10, 71, 0
13, 66320, Note_on_c, 10, 74, 52
13, 66399, Note_on_c, 10, 74, 0
13, 66400, Note_on_c, 10, 79, 52
13, 66479, Note_on_c, 10, 79, 0
13, 66480, Note_on_c, 10, 71, 52
13, 66559, Note_on_c, 10, 71, 0
13, 66560, Note_on_c, 10, 74, 52
13, 66639, Note_on_c, 10, 74, 0
13, 66640, Note_on_c, 10, 79, 52
13, 66707, Note_on_c, 10, 79, 0
13, 66720, Note_on_c, 10, 72, 52
13, 66799, Note_on_c, 10, 72, 0
13, 66800, Note_on_c, 10, 76, 52
13, 66879, Note_on_c, 10, 76, 0
13, 66880, Note_on_c, 10, 79, 52
13, 66959, Note_on_c, 10, 79, 0
13, 66960, Note_on_c, 10, 72, 52
13, 67039, Note_on_c, 10, 72, 0
13, 67040, Note_on_c, 10, 76, 52
13, 67119, Note_on_c, 10, 76, 0
13, 67120, Note_on_c, 10, 79, 52
13, 67187, Note_on_c, 10, 79, 0
13, 67200, Note_on_c, 10, 71, 52
13, 67279, Note_on_c, 10, 71, 0
13, 67280, Note_on_c, 10, 74, 52
13, 67359, Note_on_c, 10, 74, 0
13, 67360, Note_on_c, 10, 79, 52
13, 67439, Note_on_c, 10, 79, 0
13, 67440, Note_on_c, 10, 71, 52
13, 67519, Note_on_c, 10, 71, 0
13, 67520, Note_on_c, 10, 74, 52
13, 67599, Note_on_c, 10, 74, 0
13, 67600, Note_on_c, 10, 79, 52
13, 67679, Note_on_c, 10, 79, 0
13, 67680, Note_on_c, 10, 72, 52
13, 67759, Note_on_c, 10, 72, 0
13, 67760, Note_on_c, 10, 76, 52
13, 67839, Note_on_c, 10, 76, 0
13, 67840, Note_on_c, 10, 79, 52
13, 67919, Note_on_c, 10, 79, 0
13, 67920, Note_on_c, 10, 72, 52
13, 67999, Note_on_c, 10, 72, 0
13, 68000, Note_on_c, 10, 76, 52
13, 68079, Note_on_c, 10, 76, 0
13, 68080, Note_on_c, 10, 79, 52
13, 68147, Note_on_c, 10, 79, 0
13, 68160, Note_on_c, 10, 71, 52
13, 68239, Note_on_c, 10, 71, 0
13, 68240, Note_on_c, 10, 74, 56
13, 68319, Note_on_c, 10, 74, 0
13, 68320, Note_on_c, 10, 79, 60
13, 68399, Note_on_c, 10, 79, 0
13, 68400, Note_on_c, 10, 71, 64
13, 68479, Note_on_c, 10, 71, 0
13, 68480, Note_on_c, 10, 74, 68
13, 68559, Note_on_c, 10, 74, 0
13, 68560, Note_on_c, 10, 79, 72
13, 68639, Note_on_c, 10, 79, 0
13, 69040, Note_on_c, 10, 81, 76
13, 69099, Note_on_c, 10, 81, 0
13, 69120, Note_on_c, 10, 79, 76
13, 69179, Note_on_c, 10, 79, 0
13, 69200, Note_on_c, 10, 77, 76
13, 69259, Note_on_c, 10, 77, 0
13, 69280, Note_on_c, 10, 76, 76
13, 69339, Note_on_c, 10, 76, 0
13, 69360, Note_on_c, 10, 74, 84
13, 69419, Note_on_c, 10, 74, 0
13, 69440, Note_on_c, 10, 72, 76
13, 69499, Note_on_c, 10, 72, 0
13, 69520, Note_on_c, 10, 71, 76
13, 69579, Note_on_c, 10, 71, 0
13, 69600, Note_on_c, 10, 69, 76
13, 69659, Note_on_c, 10, 69, 0
13, 69680, Note_on_c, 10, 67, 76
13, 69739, Note_on_c, 10, 67, 0
13, 69760, Note_on_c, 10, 65, 76
13, 69819, Note_on_c, 10, 65, 0
13, 69840, Note_on_c, 10, 64, 76
13, 69899, Note_on_c, 10, 64, 0
13, 69920, Note_on_c, 10, 62, 76
13, 69979, Note_on_c, 10, 62, 0
13, 70000, Note_on_c, 10, 60, 76
13, 70059, Note_on_c, 10, 60, 0
13, 70080, Note_on_c, 10, 59, 76
13, 70159, Note_on_c, 10, 59, 0
13, 70800, Note_on_c, 10, 64, 84
13, 70889, Note_on_c, 10, 64, 0
13, 70920, Note_on_c, 10, 64, 84
13, 71009, Note_on_c, 10, 64, 0
13, 71580, Note_on_c, 10, 72, 52
13, 71624, Note_on_c, 10, 72, 0
13, 71640, Note_on_c, 10, 69, 52
13, 71684, Note_on_c, 10, 69, 0
13, 71700, Note_on_c, 10, 72, 52
13, 71744, Note_on_c, 10, 72, 0
13, 71760, Note_on_c, 10, 76, 52
13, 71804, Note_on_c, 10, 76, 0
13, 71820, Note_on_c, 10, 72, 52
13, 71864, Note_on_c, 10, 72, 0
13, 71880, Note_on_c, 10, 69, 52
13, 71924, Note_on_c, 10, 69, 0
13, 71940, Note_on_c, 10, 72, 52
13, 71984, Note_on_c, 10, 72, 0
13, 72000, Note_on_c, 10, 64, 52
13, 72119, Note_on_c, 10, 64, 0
13, 72540, Note_on_c, 10, 71, 52
13, 72584, Note_on_c, 10, 71, 0
13, 72600, Note_on_c, 10, 68, 52
13, 72644, Note_on_c, 10, 68, 0
13, 72660, Note_on_c, 10, 71, 52
13, 72704, Note_on_c, 10, 71, 0
13, 72720, Note_on_c, 10, 76, 52
13, 72764, Note_on_c, 10, 76, 0
13, 72780, Note_on_c, 10, 71, 52
13, 72824, Note_on_c, 10, 71, 0
13, 72840, Note_on_c, 10, 68, 52
13, 72884, Note_on_c, 10, 68, 0
13, 72900, Note_on_c, 10, 71, 52
13, 72944, Note_on_c, 10, 71, 0
13, 72960, Note_on_c, 10, 64, 52
13, 73079, Note_on_c, 10, 64, 0
13, 73500, Note_on_c, 10, 72, 52
13, 73544, Note_on_c, 10, 72, 0
13, 73560, Note_on_c, 10, 67, 52
13, 73604, Note_on_c, 10, 67, 0
13, 73620, Note_on_c, 10, 72, 52
13, 73664, Note_on_c, 10, 72, 0
13, 73680, Note_on_c, 10, 76, 52
13, 73724, Note_on_c, 10, 76, 0
13, 73740, Note_on_c, 10, 72, 52
13, 73784, Note_on_c, 10, 72, 0
13, 73800, Note_on_c, 10, 69, 52
13, 73844, Note_on_c, 10, 69, 0
13, 73860, Note_on_c, 10, 72, 52
13, 73904, Note_on_c, 10, 72, 0
13, 73920, Note_on_c, 10, 55, 52
13, 74039, Note_on_c, 10, 55, 0
13, 74460, Note_on_c, 10, 74, 52
13, 74504, Note_on_c, 10, 74, 0
13, 74520, Note_on_c, 10, 71, 52
13, 74564, Note_on_c, 10, 71, 0
13, 74580, Note_on_c, 10, 74, 52
13, 74624, Note_on_c, 10, 74, 0
13, 74640, Note_on_c, 10, 79, 52
13, 74684, Note_on_c, 10, 79, 0
13, 74700, Note_on_c, 10, 74, 52
13, 74744, Note_on_c, 10, 74, 0
13, 74760, Note_on_c, 10, 71, 52
13, 74804, Note_on_c, 10, 71, 0
13, 74820, Note_on_c, 10, 74, 52
13, 74864, Note_on_c, 10, 74, 0
13, 74880, Note_on_c, 10, 67, 52
13, 74999, Note_on_c, 10, 67, 0
13, 75420, Note_on_c, 10, 67, 52
13, 75464, Note_on_c, 10, 67, 0
13, 75480, Note_on_c, 10, 64, 52
13, 75524, Note_on_c, 10, 64, 0
13, 75540, Note_on_c, 10, 67, 52
13, 75584, Note_on_c, 10, 67, 0
13, 75600, Note_on_c, 10, 72, 52
13, 75644, Note_on_c, 10, 72, 0
13, 75660, Note_on_c, 10, 64, 52
13, 75704, Note_on_c, 10, 64, 0
13, 75720, Note_on_c, 10, 60, 52
13, 75764, Note_on_c, 10, 60, 0
13, 75780, Note_on_c, 10, 66, 52
13, 75824, Note_on_c, 10, 66, 0
13, 75840, Note_on_c, 10, 66, 52
13, 75959, Note_on_c, 10, 66, 0
13, 76380, Note_on_c, 10, 69, 52
13, 76424, Note_on_c, 10, 69, 0
13, 76440, Note_on_c, 10, 66, 52
13, 76484, Note_on_c, 10, 66, 0
13, 76500, Note_on_c, 10, 69, 52
13, 76544, Note_on_c, 10, 69, 0
13, 76560, Note_on_c, 10, 74, 52
13, 76604, Note_on_c, 10, 74, 0
13, 76620, Note_on_c, 10, 69, 52
13, 76664, Note_on_c, 10, 69, 0
13, 76680, Note_on_c, 10, 64, 52
13, 76724, Note_on_c, 10, 64, 0
13, 76740, Note_on_c, 10, 71, 52
13, 76784, Note_on_c, 10, 71, 0
13, 76800, Note_on_c, 10, 64, 52
13, 76919, Note_on_c, 10, 64, 0
13, 77340, Note_on_c, 10, 72, 52
13, 77384, Note_on_c, 10, 72, 0
13, 77400, Note_on_c, 10, 69, 52
13, 77444, Note_on_c, 10, 69, 0
13, 77460, Note_on_c, 10, 72, 52
13, 77504, Note_on_c, 10, 72, 0
13, 77520, Note_on_c, 10, 76, 52
13, 77564, Note_on_c, 10, 76, 0
13, 77580, Note_on_c, 10, 72, 52
13, 77624, Note_on_c, 10, 72, 0
13, 77640, Note_on_c, 10, 69, 52
13, 77684, Note_on_c, 10, 69, 0
13, 77700, Note_on_c, 10, 72, 52
13, 77744, Note_on_c, 10, 72, 0
13, 77760, Note_on_c, 10, 64, 52
13, 77879, Note_on_c, 10, 64, 0
13, 78300, Note_on_c, 10, 71, 52
13, 78344, Note_on_c, 10, 71, 0
13, 78360, Note_on_c, 10, 64, 52
13, 78404, Note_on_c, 10, 64, 0
13, 78420, Note_on_c, 10, 71, 52
13, 78464, Note_on_c, 10, 71, 0
13, 78480, Note_on_c, 10, 76, 52
13, 78524, Note_on_c, 10, 76, 0
13, 78540, Note_on_c, 10, 71, 52
13, 78584, Note_on_c, 10, 71, 0
13, 78600, Note_on_c, 10, 64, 52
13, 78644, Note_on_c, 10, 64, 0
13, 78660, Note_on_c, 10, 74, 52
13, 78704, Note_on_c, 10, 74, 0
13, 78720, Note_on_c, 10, 64, 52
13, 78720, Note_on_c, 10, 72, 52
13, 78839, Note_on_c, 10, 64, 0
13, 78839, Note_on_c, 10, 72, 0
13, 79260, Note_on_c, 10, 64, 52
13, 79304, Note_on_c, 10, 64, 0
13, 79320, Note_on_c, 10, 59, 52
13, 79364, Note_on_c, 10, 59, 0
13, 79380, Note_on_c, 10, 64, 52
13, 79424, Note_on_c, 10, 64, 0
13, 79440, Note_on_c, 10, 71, 52
13, 79484, Note_on_c, 10, 71, 0
13, 79500, Note_on_c, 10, 64, 52
13, 79544, Note_on_c, 10, 64, 0
13, 79560, Note_on_c, 10, 60, 52
13, 79604, Note_on_c, 10, 60, 0
13, 79620, Note_on_c, 10, 66, 52
13, 79664, Note_on_c, 10, 66, 0
13, 79680, Note_on_c, 10, 66, 52
13, 79799, Note_on_c, 10, 66, 0
13, 80220, Note_on_c, 10, 66, 52
13, 80264, Note_on_c, 10, 66, 0
13, 80280, Note_on_c, 10, 62, 52
13, 80324, Note_on_c, 10, 62, 0
13, 80340, Note_on_c, 10, 66, 52
13, 80384, Note_on_c, 10, 66, 0
13, 80400, Note_on_c, 10, 69, 52
13, 80444, Note_on_c, 10, 69, 0
13, 80460, Note_on_c, 10, 62, 52
13, 80504, Note_on_c, 10, 62, 0
13, 80520, Note_on_c, 10, 59, 52
13, 80564, Note_on_c, 10, 59, 0
13, 80580, Note_on_c, 10, 64, 52
13, 80624, Note_on_c, 10, 64, 0
13, 80640, Note_on_c, 10, 64, 52
13, 80759, Note_on_c, 10, 64, 0
13, 81180, Note_on_c, 10, 72, 52
13, 81224, Note_on_c, 10, 72, 0
13, 81240, Note_on_c, 10, 69, 52
13, 81284, Note_on_c, 10, 69, 0
13, 81300, Note_on_c, 10, 72, 52
13, 81344, Note_on_c, 10, 72, 0
13, 81360, Note_on_c, 10, 76, 52
13, 81404, Note_on_c, 10, 76, 0
13, 81420, Note_on_c, 10, 72, 52
13, 81464, Note_on_c, 10, 72, 0
13, 81480, Note_on_c, 10, 69, 52
13, 81524, Note_on_c, 10, 69, 0
13, 81540, Note_on_c, 10, 72, 52
13, 81584, Note_on_c, 10, 72, 0
13, 81600, Note_on_c, 10, 64, 52
13, 81719, Note_on_c, 10, 64, 0
13, 82140, Note_on_c, 10, 71, 52
13, 82184, Note_on_c, 10, 71, 0
13, 82200, Note_on_c, 10, 64, 52
13, 82244, Note_on_c, 10, 64, 0
13, 82260, Note_on_c, 10, 71, 52
13, 82304, Note_on_c, 10, 71, 0
13, 82320, Note_on_c, 10, 76, 52
13, 82364, Note_on_c, 10, 76, 0
13, 82380, Note_on_c, 10, 71, 52
13, 82424, Note_on_c, 10, 71, 0
13, 82440, Note_on_c, 10, 64, 52
13, 82484, Note_on_c, 10, 64, 0
13, 82500, Note_on_c, 10, 74, 52
13, 82544, Note_on_c, 10, 74, 0
13, 82560, Note_on_c, 10, 73, 52
13, 82560, Note_on_c, 10, 64, 52
13, 82679, Note_on_c, 10, 73, 0
13, 82679, Note_on_c, 10, 64, 0
13, 83100, Note_on_c, 10, 73, 52
13, 83144, Note_on_c, 10, 73, 0
13, 83160, Note_on_c, 10, 67, 52
13, 83204, Note_on_c, 10, 67, 0
13, 83220, Note_on_c, 10, 73, 52
13, 83264, Note_on_c, 10, 73, 0
13, 83280, Note_on_c, 10, 76, 52
13, 83324, Note_on_c, 10, 76, 0
13, 83340, Note_on_c, 10, 73, 52
13, 83384, Note_on_c, 10, 73, 0
13, 83400, Note_on_c, 10, 67, 52
13, 83444, Note_on_c, 10, 67, 0
13, 83460, Note_on_c, 10, 76, 52
13, 83504, Note_on_c, 10, 76, 0
13, 83520, Note_on_c, 10, 77, 52
13, 83639, Note_on_c, 10, 77, 0
13, 84060, Note_on_c, 10, 65, 52
13, 84104, Note_on_c, 10, 65, 0
13, 84120, Note_on_c, 10, 62, 52
13, 84164, Note_on_c, 10, 62, 0
13, 84180, Note_on_c, 10, 65, 52
13, 84224, Note_on_c, 10, 65, 0
13, 84240, Note_on_c, 10, 71, 52
13, 84284, Note_on_c, 10, 71, 0
13, 84300, Note_on_c, 10, 65, 52
13, 84344, Note_on_c, 10, 65, 0
13, 84360, Note_on_c, 10, 62, 52
13, 84404, Note_on_c, 10, 62, 0
13, 84420, Note_on_c, 10, 74, 52
13, 84464, Note_on_c, 10, 74, 0
13, 84480, Note_on_c, 10, 73, 52
13, 84480, Note_on_c, 10, 64, 52
13, 84599, Note_on_c, 10, 73, 0
13, 84599, Note_on_c, 10, 64, 0
13, 85020, Note_on_c, 10, 73, 52
13, 85064, Note_on_c, 10, 73, 0
13, 85080, Note_on_c, 10, 67, 53
13, 85124, Note_on_c, 10, 67, 0
13, 85140, Note_on_c, 10, 73, 54
13, 85184, Note_on_c, 10, 73, 0
13, 85200, Note_on_c, 10, 76, 54
13, 85244, Note_on_c, 10, 76, 0
13, 85260, Note_on_c, 10, 73, 55
13, 85304, Note_on_c, 10, 73, 0
13, 85320, Note_on_c, 10, 67, 56
13, 85364, Note_on_c, 10, 67, 0
13, 85380, Note_on_c, 10, 76, 56
13, 85424, Note_on_c, 10, 76, 0
13, 85440, Note_on_c, 10, 77, 57
13, 85559, Note_on_c, 10, 77, 0
13, 85980, Note_on_c, 10, 65, 63
13, 86024, Note_on_c, 10, 65, 0
13, 86040, Note_on_c, 10, 62, 64
13, 86084, Note_on_c, 10, 62, 0
13, 86100, Note_on_c, 10, 65, 64
13, 86144, Note_on_c, 10, 65, 0
13, 86160, Note_on_c, 10, 71, 65
13, 86204, Note_on_c, 10, 71, 0
13, 86220, Note_on_c, 10, 65, 66
13, 86264, Note_on_c, 10, 65, 0
13, 86280, Note_on_c, 10, 62, 66
13, 86324, Note_on_c, 10, 62, 0
13, 86340, Note_on_c, 10, 74, 67
13, 86384, Note_on_c, 10, 74, 0
13, 86400, Note_on_c, 10, 73, 68
13, 86519, Note_on_c, 10, 73, 0
13, 86940, Note_on_c, 10, 65, 55
13, 86984, Note_on_c, 10, 65, 0
13, 87000, Note_on_c, 10, 62, 53
13, 87044, Note_on_c, 10, 62, 0
13, 87060, Note_on_c, 10, 65, 52
13, 87104, Note_on_c, 10, 65, 0
13, 87120, Note_on_c, 10, 71, 50
13, 87164, Note_on_c, 10, 71, 0
13, 87180, Note_on_c, 10, 65, 49
13, 87224, Note_on_c, 10, 65, 0
13, 87240, Note_on_c, 10, 62, 47
13, 87284, Note_on_c, 10, 62, 0
13, 87300, Note_on_c, 10, 68, 46
13, 87344, Note_on_c, 10, 68, 0
13, 87360, Note_on_c, 10, 69, 44
13, 87587, Note_on_c, 10, 69, 0
13, 87600, Note_on_c, 10, 69, 44
13, 87689, Note_on_c, 10, 69, 0
13, 87720, Note_on_c, 10, 71, 44
13, 87809, Note_on_c, 10, 71, 0
13, 87840, Note_on_c, 10, 72, 44
13, 88049, Note_on_c, 10, 72, 0
13, 88080, Note_on_c, 10, 72, 44
13, 88289, Note_on_c, 10, 72, 0
13, 88320, Note_on_c, 10, 71, 44
13, 88547, Note_on_c, 10, 71, 0
13, 88560, Note_on_c, 10, 71, 44
13, 88649, Note_on_c, 10, 71, 0
13, 88680, Note_on_c, 10, 73, 44
13, 88769, Note_on_c, 10, 73, 0
13, 88800, Note_on_c, 10, 74, 44
13, 88889, Note_on_c, 10, 74, 0
13, 88920, Note_on_c, 10, 72, 44
13, 89009, Note_on_c, 10, 72, 0
13, 89040, Note_on_c, 10, 71, 44
13, 89129, Note_on_c, 10, 71, 0
13, 89160, Note_on_c, 10, 69, 44
13, 89249, Note_on_c, 10, 69, 0
13, 89280, Note_on_c, 10, 67, 44
13, 89333, Note_on_c, 10, 67, 0
13, 89340, Note_on_c, 10, 69, 44
13, 89393, Note_on_c, 10, 69, 0
13, 89400, Note_on_c, 10, 71, 44
13, 89453, Note_on_c, 10, 71, 0
13, 89460, Note_on_c, 10, 69, 44
13, 89513, Note_on_c, 10, 69, 0
13, 89520, Note_on_c, 10, 67, 44
13, 89573, Note_on_c, 10, 67, 0
13, 89580, Note_on_c, 10, 69, 44
13, 89633, Note_on_c, 10, 69, 0
13, 89640, Note_on_c, 10, 67, 44
13, 89693, Note_on_c, 10, 67, 0
13, 89700, Note_on_c, 10, 66, 44
13, 89753, Note_on_c, 10, 66, 0
13, 89760, Note_on_c, 10, 64, 44
13, 89813, Note_on_c, 10, 64, 0
13, 89820, Note_on_c, 10, 66, 44
13, 89873, Note_on_c, 10, 66, 0
13, 89880, Note_on_c, 10, 67, 44
13, 89933, Note_on_c, 10, 67, 0
13, 89940, Note_on_c, 10, 69, 44
13, 89993, Note_on_c, 10, 69, 0
13, 90000, Note_on_c, 10, 71, 44
13, 90053, Note_on_c, 10, 71, 0
13, 90060, Note_on_c, 10, 73, 44
13, 90113, Note_on_c, 10, 73, 0
13, 90120, Note_on_c, 10, 75, 44
13, 90173, Note_on_c, 10, 75, 0
13, 90180, Note_on_c, 10, 76, 44
13, 90233, Note_on_c, 10, 76, 0
13, 90240, Note_on_c, 10, 76, 44
13, 90293, Note_on_c, 10, 76, 0
13, 90300, Note_on_c, 10, 69, 44
13, 90353, Note_on_c, 10, 69, 0
13, 90360, Note_on_c, 10, 71, 44
13, 90413, Note_on_c, 10, 71, 0
13, 90420, Note_on_c, 10, 73, 44
13, 90473, Note_on_c, 10, 73, 0
13, 90480, Note_on_c, 10, 74, 44
13, 90533, Note_on_c, 10, 74, 0
13, 90540, Note_on_c, 10, 71, 44
13, 90593, Note_on_c, 10, 71, 0
13, 90600, Note_on_c, 10, 76, 44
13, 90653, Note_on_c, 10, 76, 0
13, 90660, Note_on_c, 10, 74, 44
13, 90713, Note_on_c, 10, 74, 0
13, 90720, Note_on_c, 10, 72, 44
13, 90773, Note_on_c, 10, 72, 0
13, 90780, Note_on_c, 10, 71, 44
13, 90833, Note_on_c, 10, 71, 0
13, 90840, Note_on_c, 10, 72, 44
13, 90893, Note_on_c, 10, 72, 0
13, 90900, Note_on_c, 10, 74, 44
13, 90953, Note_on_c, 10, 74, 0
13, 90960, Note_on_c, 10, 76, 44
13, 91013, Note_on_c, 10, 76, 0
13, 91020, Note_on_c, 10, 64, 44
13, 91073, Note_on_c, 10, 64, 0
13, 91080, Note_on_c, 10, 66, 44
13, 91133, Note_on_c, 10, 66, 0
13, 91140, Note_on_c, 10, 68, 44
13, 91193, Note_on_c, 10, 68, 0
13, 91200, Note_on_c, 10, 69, 44
13, 91439, Note_on_c, 10, 69, 0
13, 93000, Note_on_c, 10, 78, 44
13, 93227, Note_on_c, 10, 78, 0
13, 93240, Note_on_c, 10, 76, 44
13, 93479, Note_on_c, 10, 76, 0
13, 93480, Note_on_c, 10, 83, 44
13, 93707, Note_on_c, 10, 83, 0
13, 93720, Note_on_c, 10, 76, 44
13, 93947, Note_on_c, 10, 76, 0
13, 93960, Note_on_c, 10, 83, 44
13, 94187, Note_on_c, 10, 83, 0
13, 94200, Note_on_c, 10, 81, 44
13, 94427, Note_on_c, 10, 81, 0
13, 94440, Note_on_c, 10, 83, 44
13, 94547, Note_on_c, 10, 83, 0
13, 94560, Note_on_c, 10, 84, 44
13, 94649, Note_on_c, 10, 84, 0
13, 94680, Note_on_c, 10, 81, 44
13, 94769, Note_on_c, 10, 81, 0
13, 94800, Note_on_c, 10, 80, 44
13, 94844, Note_on_c, 10, 80, 0
13, 94860, Note_on_c, 10, 80, 44
13, 94904, Note_on_c, 10, 80, 0
13, 94920, Note_on_c, 10, 81, 44
13, 94964, Note_on_c, 10, 81, 0
13, 94980, Note_on_c, 10, 83, 44
13, 95024, Note_on_c, 10, 83, 0
13, 95040, Note_on_c, 10, 81, 44
13, 95279, Note_on_c, 10, 81, 0
13, 95820, Note_on_c, 10, 78, 44
13, 95864, Note_on_c, 10, 78, 0
13, 95880, Note_on_c, 10, 79, 44
13, 95924, Note_on_c, 10, 79, 0
13, 95940, Note_on_c, 10, 81, 44
13, 95984, Note_on_c, 10, 81, 0
13, 96000, Note_on_c, 10, 79, 44
13, 96107, Note_on_c, 10, 79, 0
13, 96120, Note_on_c, 10, 67, 44
13, 96227, Note_on_c, 10, 67, 0
13, 96240, Note_on_c, 10, 72, 44
13, 96707, Note_on_c, 10, 72, 0
13, 96720, Note_on_c, 10, 72, 44
13, 96809, Note_on_c, 10, 72, 0
13, 96840, Note_on_c, 10, 74, 44
13, 96929, Note_on_c, 10, 74, 0
13, 96960, Note_on_c, 10, 76, 44
13, 97169, Note_on_c, 10, 76, 0
13, 97200, Note_on_c, 10, 76, 44
13, 97409, Note_on_c, 10, 76, 0
13, 97440, Note_on_c, 10, 71, 44
13, 97493, Note_on_c, 10, 71, 0
13, 97500, Note_on_c, 10, 72, 44
13, 97553, Note_on_c, 10, 72, 0
13, 97560, Note_on_c, 10, 74, 44
13, 97613, Note_on_c, 10, 74, 0
13, 97620, Note_on_c, 10, 72, 44
13, 97673, Note_on_c, 10, 72, 0
13, 97680, Note_on_c, 10, 71, 44
13, 97733, Note_on_c, 10, 71, 0
13, 97740, Note_on_c, 10, 74, 44
13, 97793, Note_on_c, 10, 74, 0
13, 97800, Note_on_c, 10, 72, 44
13, 97853, Note_on_c, 10, 72, 0
13, 97860, Note_on_c, 10, 71, 44
13, 97913, Note_on_c, 10, 71, 0
13, 97920, Note_on_c, 10, 69, 44
13, 97973, Note_on_c, 10, 69, 0
13, 97980, Note_on_c, 10, 71, 44
13, 98033, Note_on_c, 10, 71, 0
13, 98040, Note_on_c, 10, 72, 44
13, 98093, Note_on_c, 10, 72, 0
13, 98100, Note_on_c, 10, 74, 44
13, 98153, Note_on_c, 10, 74, 0
13, 98160, Note_on_c, 10, 76, 44
13, 98213, Note_on_c, 10, 76, 0
13, 98220, Note_on_c, 10, 78, 44
13, 98273, Note_on_c, 10, 78, 0
13, 98280, Note_on_c, 10, 80, 44
13, 98333, Note_on_c, 10, 80, 0
13, 98340, Note_on_c, 10, 81, 44
13, 98393, Note_on_c, 10, 81, 0
13, 98400, Note_on_c, 10, 67, 44
13, 98453, Note_on_c, 10, 67, 0
13, 98460, Note_on_c, 10, 69, 44
13, 98513, Note_on_c, 10, 69, 0
13, 98520, Note_on_c, 10, 70, 44
13, 98573, Note_on_c, 10, 70, 0
13, 98580, Note_on_c, 10, 69, 44
13, 98633, Note_on_c, 10, 69, 0
13, 98640, Note_on_c, 10, 67, 44
13, 98693, Note_on_c, 10, 67, 0
13, 98700, Note_on_c, 10, 70, 44
13, 98753, Note_on_c, 10, 70, 0
13, 98760, Note_on_c, 10, 69, 44
13, 98813, Note_on_c, 10, 69, 0
13, 98820, Note_on_c, 10, 67, 44
13, 98873, Note_on_c, 10, 67, 0
13, 98880, Note_on_c, 10, 65, 44
13, 98933, Note_on_c, 10, 65, 0
13, 98940, Note_on_c, 10, 67, 44
13, 98993, Note_on_c, 10, 67, 0
13, 99000, Note_on_c, 10, 69, 44
13, 99053, Note_on_c, 10, 69, 0
13, 99060, Note_on_c, 10, 70, 44
13, 99113, Note_on_c, 10, 70, 0
13, 99120, Note_on_c, 10, 72, 44
13, 99227, Note_on_c, 10, 72, 0
13, 99240, Note_on_c, 10, 81, 44
13, 99467, Note_on_c, 10, 81, 0
13, 99480, Note_on_c, 10, 79, 44
13, 99707, Note_on_c, 10, 79, 0
13, 99720, Note_on_c, 10, 79, 44
13, 99947, Note_on_c, 10, 79, 0
13, 99960, Note_on_c, 10, 77, 44
13, 100187, Note_on_c, 10, 77, 0
13, 100200, Note_on_c, 10, 77, 44
13, 100307, Note_on_c, 10, 77, 0
13, 100320, Note_on_c, 10, 77, 44
13, 100373, Note_on_c, 10, 77, 0
13, 100380, Note_on_c, 10, 74, 45
13, 100433, Note_on_c, 10, 74, 0
13, 100440, Note_on_c, 10, 76, 46
13, 100493, Note_on_c, 10, 76, 0
13, 100500, Note_on_c, 10, 77, 47
13, 100553, Note_on_c, 10, 77, 0
13, 100560, Note_on_c, 10, 74, 49
13, 100613, Note_on_c, 10, 74, 0
13, 100620, Note_on_c, 10, 71, 50
13, 100673, Note_on_c, 10, 71, 0
13, 100680, Note_on_c, 10, 72, 51
13, 100733, Note_on_c, 10, 72, 0
13, 100740, Note_on_c, 10, 74, 52
13, 100793, Note_on_c, 10, 74, 0
13, 100800, Note_on_c, 10, 71, 54
13, 100853, Note_on_c, 10, 71, 0
13, 100860, Note_on_c, 10, 68, 55
13, 100913, Note_on_c, 10, 68, 0
13, 100920, Note_on_c, 10, 69, 56
13, 100973, Note_on_c, 10, 69, 0
13, 100980, Note_on_c, 10, 71, 57
13, 101033, Note_on_c, 10, 71, 0
13, 101040, Note_on_c, 10, 68, 59
13, 101093, Note_on_c, 10, 68, 0
13, 101100, Note_on_c, 10, 69, 60
13, 101153, Note_on_c, 10, 69, 0
13, 101160, Note_on_c, 10, 71, 61
13, 101213, Note_on_c, 10, 71, 0
13, 101220, Note_on_c, 10, 72, 62
13, 101273, Note_on_c, 10, 72, 0
13, 101280, Note_on_c, 10, 74, 64
13, 101333, Note_on_c, 10, 74, 0
13, 101340, Note_on_c, 10, 76, 65
13, 101393, Note_on_c, 10, 76, 0
13, 101400, Note_on_c, 10, 77, 66
13, 101453, Note_on_c, 10, 77, 0
13, 101460, Note_on_c, 10, 80, 67
13, 101513, Note_on_c, 10, 80, 0
13, 101520, Note_on_c, 10, 81, 69
13, 101573, Note_on_c, 10, 81, 0
13, 101580, Note_on_c, 10, 83, 70
13, 101633, Note_on_c, 10, 83, 0
13, 101640, Note_on_c, 10, 84, 71
13, 101693, Note_on_c, 10, 84, 0
13, 101700, Note_on_c, 10, 85, 72
13, 101753, Note_on_c, 10, 85, 0
13, 101760, Note_on_c, 10, 86, 74
13, 101813, Note_on_c, 10, 86, 0
13, 101820, Note_on_c, 10, 88, 75
13, 101873, Note_on_c, 10, 88, 0
13, 101880, Note_on_c, 10, 88, 76
13, 101933, Note_on_c, 10, 88, 0
13, 101940, Note_on_c, 10, 88, 77
13, 101993, Note_on_c, 10, 88, 0
13, 102000, Note_on_c, 10, 88, 79
13, 102053, Note_on_c, 10, 88, 0
13, 102060, Note_on_c, 10, 88, 80
13, 102113, Note_on_c, 10, 88, 0
13, 102120, Note_on_c, 10, 88, 81
13, 102173, Note_on_c, 10, 88, 0
13, 102180, Note_on_c, 10, 88, 82
13, 102233, Note_on_c, 10, 88, 0
13, 102240, Note_on_c, 10, 76, 84
13, 102240, Note_on_c, 10, 88, 84
13, 102467, Note_on_c, 10, 76, 0
13, 102467, Note_on_c, 10, 88, 0
13, 102480, Note_on_c, 10, 88, 84
13, 102480, Note_on_c, 10, 76, 84
13, 102569, Note_on_c, 10, 88, 0
13, 102569, Note_on_c, 10, 76, 0
13, 102600, Note_on_c, 10, 76, 84
13, 102600, Note_on_c, 10, 88, 84
13, 102689, Note_on_c, 10, 76, 0
13, 102689, Note_on_c, 10, 88, 0
13, 102720, Note_on_c, 10, 76, 84
13, 102720, Note_on_c, 10, 88, 84
13, 102929, Note_on_c, 10, 76, 0
13, 102929, Note_on_c, 10, 88, 0
13, 102960, Note_on_c, 10, 88, 84
13, 102960, Note_on_c, 10, 76, 84
13, 103169, Note_on_c, 10, 88, 0
13, 103169, Note_on_c, 10, 76, 0
13, 103200, Note_on_c, 10, 76, 84
13, 103200, Note_on_c, 10, 88, 84
13, 103427, Note_on_c, 10, 76, 0
13, 103427, Note_on_c, 10, 88, 0
13, 103440, Note_on_c, 10, 88, 84
13, 103440, Note_on_c, 10, 76, 84
13, 103529, Note_on_c, 10, 88, 0
13, 103529, Note_on_c, 10, 76, 0
13, 103560, Note_on_c, 10, 88, 84
13, 103560, Note_on_c, 10, 76, 84
13, 103649, Note_on_c, 10, 88, 0
13, 103649, Note_on_c, 10, 76, 0
13, 103680, Note_on_c, 10, 76, 84
13, 103680, Note_on_c, 10, 88, 84
13, 103889, Note_on_c, 10, 76, 0
13, 103889, Note_on_c, 10, 88, 0
13, 103920, Note_on_c, 10, 88, 84
13, 103920, Note_on_c, 10, 76, 84
13, 104129, Note_on_c, 10, 88, 0
13, 104129, Note_on_c, 10, 76, 0
13, 104160, Note_on_c, 10, 76, 84
13, 104160, Note_on_c, 10, 88, 84
13, 104387, Note_on_c, 10, 76, 0
13, 104387, Note_on_c, 10, 88, 0
13, 104400, Note_on_c, 10, 88, 84
13, 104400, Note_on_c, 10, 76, 84
13, 104489, Note_on_c, 10, 88, 0
13, 104489, Note_on_c, 10, 76, 0
13, 104520, Note_on_c, 10, 76, 84
13, 104520, Note_on_c, 10, 88, 84
13, 104609, Note_on_c, 10, 76, 0
13, 104609, Note_on_c, 10, 88, 0
13, 104640, Note_on_c, 10, 76, 84
13, 104640, Note_on_c, 10, 88, 84
13, 104849, Note_on_c, 10, 76, 0
13, 104849, Note_on_c, 10, 88, 0
13, 104880, Note_on_c, 10, 88, 84
13, 104880, Note_on_c, 10, 76, 84
13, 105089, Note_on_c, 10, 88, 0
13, 105089, Note_on_c, 10, 76, 0
13, 105120, Note_on_c, 10, 76, 84
13, 105120, Note_on_c, 10, 88, 84
13, 105347, Note_on_c, 10, 76, 0
13, 105347, Note_on_c, 10, 88, 0
13, 105360, Note_on_c, 10, 78, 84
13, 105449, Note_on_c, 10, 78, 0
13, 105480, Note_on_c, 10, 80, 84
13, 105569, Note_on_c, 10, 80, 0
13, 105600, Note_on_c, 10, 81, 84
13, 105839, Note_on_c, 10, 81, 0
13, 106080, Note_on_c, 10, 74, 52
13, 106133, Note_on_c, 10, 74, 0
13, 106140, Note_on_c, 10, 71, 52
13, 106193, Note_on_c, 10, 71, 0
13, 106200, Note_on_c, 10, 72, 52
13, 106253, Note_on_c, 10, 72, 0
13, 106260, Note_on_c, 10, 74, 52
13, 106313, Note_on_c, 10, 74, 0
13, 106320, Note_on_c, 10, 76, 52
13, 106373, Note_on_c, 10, 76, 0
13, 106380, Note_on_c, 10, 74, 52
13, 106433, Note_on_c, 10, 74, 0
13, 106440, Note_on_c, 10, 72, 52
13, 106493, Note_on_c, 10, 72, 0
13, 106500, Note_on_c, 10, 71, 52
13, 106553, Note_on_c, 10, 71, 0
13, 106560, Note_on_c, 10, 69, 52
13, 106799, Note_on_c, 10, 69, 0
13, 107280, Note_on_c, 10, 76, 52
13, 107359, Note_on_c, 10, 76, 0
13, 107360, Note_on_c, 10, 74, 52
13, 107439, Note_on_c, 10, 74, 0
13, 107440, Note_on_c, 10, 71, 52
13, 107507, Note_on_c, 10, 71, 0
13, 107520, Note_on_c, 10, 76, 52
13, 107599, Note_on_c, 10, 76, 0
13, 107600, Note_on_c, 10, 73, 52
13, 107679, Note_on_c, 10, 73, 0
13, 107680, Note_on_c, 10, 69, 52
13, 107759, Note_on_c, 10, 69, 0
13, 107760, Note_on_c, 10, 73, 52
13, 107839, Note_on_c, 10, 73, 0
13, 107840, Note_on_c, 10, 69, 52
13, 107919, Note_on_c, 10, 69, 0
13, 107920, Note_on_c, 10, 64, 52
13, 107999, Note_on_c, 10, 64, 0
13, 108000, Note_on_c, 10, 69, 52
13, 108079, Note_on_c, 10, 69, 0
13, 108080, Note_on_c, 10, 64, 52
13, 108159, Note_on_c, 10, 64, 0
13, 108160, Note_on_c, 10, 61, 52
13, 108239, Note_on_c, 10, 61, 0
13, 108240, Note_on_c, 10, 73, 52
13, 108319, Note_on_c, 10, 73, 0
13, 108320, Note_on_c, 10, 69, 52
13, 108399, Note_on_c, 10, 69, 0
13, 108400, Note_on_c, 10, 64, 52
13, 108467, Note_on_c, 10, 64, 0
13, 108480, Note_on_c, 10, 73, 52
13, 108559, Note_on_c, 10, 73, 0
13, 108560, Note_on_c, 10, 66, 52
13, 108639, Note_on_c, 10, 66, 0
13, 108640, Note_on_c, 10, 62, 52
13, 108719, Note_on_c, 10, 62, 0
13, 108720, Note_on_c, 10, 71, 52
13, 108799, Note_on_c, 10, 71, 0
13, 108800, Note_on_c, 10, 66, 52
13, 108879, Note_on_c, 10, 66, 0
13, 108880, Note_on_c, 10, 62, 53
13, 108947, Note_on_c, 10, 62, 0
13, 108960, Note_on_c, 10, 71, 54
13, 109039, Note_on_c, 10, 71, 0
13, 109040, Note_on_c, 10, 66, 55
13, 109119, Note_on_c, 10, 66, 0
13, 109120, Note_on_c, 10, 62, 56
13, 109199, Note_on_c, 10, 62, 0
13, 109200, Note_on_c, 10, 69, 57
13, 109279, Note_on_c, 10, 69, 0
13, 109280, Note_on_c, 10, 61, 58
13, 109359, Note_on_c, 10, 61, 0
13, 109360, Note_on_c, 10, 69, 59
13, 109427, Note_on_c, 10, 69, 0
13, 109440, Note_on_c, 10, 59, 60
13, 109519, Note_on_c, 10, 59, 0
13, 109520, Note_on_c, 10, 62, 60
13, 109599, Note_on_c, 10, 62, 0
13, 109600, Note_on_c, 10, 68, 61
13, 109679, Note_on_c, 10, 68, 0
13, 109680, Note_on_c, 10, 69, 62
13, 109759, Note_on_c, 10, 69, 0
13, 109760, Note_on_c, 10, 61, 63
13, 109839, Note_on_c, 10, 61, 0
13, 109840, Note_on_c, 10, 69, 64
13, 109907, Note_on_c, 10, 69, 0
13, 109920, Note_on_c, 10, 62, 65
13, 109999, Note_on_c, 10, 62, 0
13, 110020, Note_on_c, 10, 66, 66
13, 110080, Note_on_c, 10, 71, 67
13, 110099, Note_on_c, 10, 66, 0
13, 110159, Note_on_c, 10, 71, 0
13, 110160, Note_on_c, 10, 73, 68
13, 110239, Note_on_c, 10, 73, 0
13, 110240, Note_on_c, 10, 64, 67
13, 110319, Note_on_c, 10, 64, 0
13, 110320, Note_on_c, 10, 73, 66
13, 110399, Note_on_c, 10, 73, 0
13, 110400, Note_on_c, 10, 66, 65
13, 110479, Note_on_c, 10, 66, 0
13, 110480, Note_on_c, 10, 69, 64
13, 110559, Note_on_c, 10, 69, 0
13, 110560, Note_on_c, 10, 74, 63
13, 110639, Note_on_c, 10, 74, 0
13, 110640, Note_on_c, 10, 76, 62
13, 110719, Note_on_c, 10, 76, 0
13, 110720, Note_on_c, 10, 68, 61
13, 110799, Note_on_c, 10, 68, 0
13, 110800, Note_on_c, 10, 76, 60
13, 110867, Note_on_c, 10, 76, 0
13, 110880, Note_on_c, 10, 74, 59
13, 110959, Note_on_c, 10, 74, 0
13, 110960, Note_on_c, 10, 68, 58
13, 111039, Note_on_c, 10, 68, 0
13, 111040, Note_on_c, 10, 71, 57
13, 111119, Note_on_c, 10, 71, 0
13, 111120, Note_on_c, 10, 69, 56
13, 111199, Note_on_c, 10, 69, 0
13, 111220, Note_on_c, 10, 73, 54
13, 111280, Note_on_c, 10, 81, 54
13, 111299, Note_on_c, 10, 73, 0
13, 111347, Note_on_c, 10, 81, 0
13, 111360, Note_on_c, 10, 81, 52
13, 111439, Note_on_c, 10, 81, 0
13, 111440, Note_on_c, 10, 73, 52
13, 111519, Note_on_c, 10, 73, 0
13, 111520, Note_on_c, 10, 69, 52
13, 111599, Note_on_c, 10, 69, 0
13, 111600, Note_on_c, 10, 76, 52
13, 111679, Note_on_c, 10, 76, 0
13, 111680, Note_on_c, 10, 73, 52
13, 111759, Note_on_c, 10, 73, 0
13, 111760, Note_on_c, 10, 67, 52
13, 111839, Note_on_c, 10, 67, 0
13, 111840, Note_on_c, 10, 73, 52
13, 111919, Note_on_c, 10, 73, 0
13, 111920, Note_on_c, 10, 67, 52
13, 111999, Note_on_c, 10, 67, 0
13, 112000, Note_on_c, 10, 64, 52
13, 112079, Note_on_c, 10, 64, 0
13, 112080, Note_on_c, 10, 76, 52
13, 112159, Note_on_c, 10, 76, 0
13, 112160, Note_on_c, 10, 73, 53
13, 112239, Note_on_c, 10, 73, 0
13, 112240, Note_on_c, 10, 67, 54
13, 112307, Note_on_c, 10, 67, 0
13, 112320, Note_on_c, 10, 76, 55
13, 112399, Note_on_c, 10, 76, 0
13, 112400, Note_on_c, 10, 73, 56
13, 112479, Note_on_c, 10, 73, 0
13, 112480, Note_on_c, 10, 67, 57
13, 112559, Note_on_c, 10, 67, 0
13, 112560, Note_on_c, 10, 66, 58
13, 112639, Note_on_c, 10, 66, 0
13, 112640, Note_on_c, 10, 74, 59
13, 112719, Note_on_c, 10, 74, 0
13, 112720, Note_on_c, 10, 76, 60
13, 112799, Note_on_c, 10, 76, 0
13, 112800, Note_on_c, 10, 78, 61
13, 112879, Note_on_c, 10, 78, 0
13, 112880, Note_on_c, 10, 74, 62
13, 112959, Note_on_c, 10, 74, 0
13, 112960, Note_on_c, 10, 66, 63
13, 113039, Note_on_c, 10, 66, 0
13, 113040, Note_on_c, 10, 64, 64
13, 113119, Note_on_c, 10, 64, 0
13, 113120, Note_on_c, 10, 73, 65
13, 113199, Note_on_c, 10, 73, 0
13, 113200, Note_on_c, 10, 76, 66
13, 113267, Note_on_c, 10, 76, 0
13, 113280, Note_on_c, 10, 74, 68
13, 113359, Note_on_c, 10, 74, 0
13, 113360, Note_on_c, 10, 69, 68
13, 113439, Note_on_c, 10, 69, 0
13, 113440, Note_on_c, 10, 66, 67
13, 113519, Note_on_c, 10, 66, 0
13, 113520, Note_on_c, 10, 64, 66
13, 113599, Note_on_c, 10, 64, 0
13, 113600, Note_on_c, 10, 67, 65
13, 113679, Note_on_c, 10, 67, 0
13, 113680, Note_on_c, 10, 73, 64
13, 113759, Note_on_c, 10, 73, 0
13, 113760, Note_on_c, 10, 74, 63
13, 113839, Note_on_c, 10, 74, 0
13, 113840, Note_on_c, 10, 69, 62
13, 113919, Note_on_c, 10, 69, 0
13, 113920, Note_on_c, 10, 66, 61
13, 113999, Note_on_c, 10, 66, 0
13, 114000, Note_on_c, 10, 64, 60
13, 114079, Note_on_c, 10, 64, 0
13, 114080, Note_on_c, 10, 71, 60
13, 114159, Note_on_c, 10, 71, 0
13, 114160, Note_on_c, 10, 76, 59
13, 114239, Note_on_c, 10, 76, 0
13, 114240, Note_on_c, 10, 73, 58
13, 114319, Note_on_c, 10, 73, 0
13, 114320, Note_on_c, 10, 69, 57
13, 114399, Note_on_c, 10, 69, 0
13, 114400, Note_on_c, 10, 64, 56
13, 114479, Note_on_c, 10, 64, 0
13, 114480, Note_on_c, 10, 73, 55
13, 114559, Note_on_c, 10, 73, 0
13, 114560, Note_on_c, 10, 69, 54
13, 114639, Note_on_c, 10, 69, 0
13, 114640, Note_on_c, 10, 64, 53
13, 114719, Note_on_c, 10, 64, 0
13, 114720, Note_on_c, 10, 74, 52
13, 114799, Note_on_c, 10, 74, 0
13, 114800, Note_on_c, 10, 69, 52
13, 114879, Note_on_c, 10, 69, 0
13, 114880, Note_on_c, 10, 66, 52
13, 114959, Note_on_c, 10, 66, 0
13, 114960, Note_on_c, 10, 76, 51
13, 115039, Note_on_c, 10, 76, 0
13, 115040, Note_on_c, 10, 71, 51
13, 115119, Note_on_c, 10, 71, 0
13, 115120, Note_on_c, 10, 64, 50
13, 115199, Note_on_c, 10, 64, 0
13, 115200, Note_on_c, 10, 73, 50
13, 115279, Note_on_c, 10, 73, 0
13, 115280, Note_on_c, 10, 69, 49
13, 115359, Note_on_c, 10, 69, 0
13, 115360, Note_on_c, 10, 64, 49
13, 115439, Note_on_c, 10, 64, 0
13, 115440, Note_on_c, 10, 73, 48
13, 115519, Note_on_c, 10, 73, 0
13, 115520, Note_on_c, 10, 69, 48
13, 115599, Note_on_c, 10, 69, 0
13, 115600, Note_on_c, 10, 64, 48
13, 115667, Note_on_c, 10, 64, 0
13, 115680, Note_on_c, 10, 74, 47
13, 115759, Note_on_c, 10, 74, 0
13, 115760, Note_on_c, 10, 69, 47
13, 115839, Note_on_c, 10, 69, 0
13, 115840, Note_on_c, 10, 66, 46
13, 115919, Note_on_c, 10, 66, 0
13, 115920, Note_on_c, 10, 76, 46
13, 115999, Note_on_c, 10, 76, 0
13, 116000, Note_on_c, 10, 71, 45
13, 116079, Note_on_c, 10, 71, 0
13, 116080, Note_on_c, 10, 76, 45
13, 116147, Note_on_c, 10, 76, 0
13, 116160, Note_on_c, 10, 69, 44
13, 116639, Note_on_c, 10, 69, 0
13, 116640, Note_on_c, 10, 69, 44
13, 117119, Note_on_c, 10, 69, 0
13, 117120, Note_on_c, 10, 69, 44
13, 117599, Note_on_c, 10, 69, 0
13, 117600, Note_on_c, 10, 69, 44
13, 118067, Note_on_c, 10, 69, 0
13, 118080, Note_on_c, 10, 71, 84
13, 118080, Note_on_c, 10, 62, 84
13, 118199, Note_on_c, 10, 71, 0
13, 118199, Note_on_c, 10, 62, 0
13, 118320, Note_on_c, 10, 74, 84
13, 118320, Note_on_c, 10, 83, 84
13, 118439, Note_on_c, 10, 74, 0
13, 118439, Note_on_c, 10, 83, 0
13, 118560, Note_on_c, 10, 76, 84
13, 118560, Note_on_c, 10, 84, 84
13, 118799, Note_on_c, 10, 76, 0
13, 118799, Note_on_c, 10, 84, 0
13, 119040, Note_on_c, 10, 68, 52
13, 119273, Note_on_c, 10, 68, 0
13, 119280, Note_on_c, 10, 66, 52
13, 119369, Note_on_c, 10, 66, 0
13, 119400, Note_on_c, 10, 68, 52
13, 119489, Note_on_c, 10, 68, 0
13, 119520, Note_on_c, 10, 69, 52
13, 119639, Note_on_c, 10, 69, 0
13, 120000, Note_on_c, 10, 71, 84
13, 120000, Note_on_c, 10, 62, 84
13, 120119, Note_on_c, 10, 71, 0
13, 120119, Note_on_c, 10, 62, 0
13, 120240, Note_on_c, 10, 74, 84
13, 120240, Note_on_c, 10, 83, 84
13, 120359, Note_on_c, 10, 74, 0
13, 120359, Note_on_c, 10, 83, 0
13, 120480, Note_on_c, 10, 84, 84
13, 120480, Note_on_c, 10, 76, 84
13, 120719, Note_on_c, 10, 84, 0
13, 120719, Note_on_c, 10, 76, 0
13, 120960, Note_on_c, 10, 68, 52
13, 121193, Note_on_c, 10, 68, 0
13, 121200, Note_on_c, 10, 66, 52
13, 121289, Note_on_c, 10, 66, 0
13, 121320, Note_on_c, 10, 68, 52
13, 121409, Note_on_c, 10, 68, 0
13, 121920, Program_c, 10, 45
13, 122160, Note_on_c, 10, 69, 44
13, 122399, Note_on_c, 10, 69, 0
13, 122640, Note_on_c, 10, 64, 44
13, 122879, Note_on_c, 10, 64, 0
13, 123120, Note_on_c, 10, 64, 44
13, 123359, Note_on_c, 10, 64, 0
13, 123600, Note_on_c, 10, 69, 44
13, 123839, Note_on_c, 10, 69, 0
13, 124080, Note_on_c, 10, 64, 44
13, 124319, Note_on_c, 10, 64, 0
13, 124560, Note_on_c, 10, 64, 44
13, 124799, Note_on_c, 10, 64, 0
13, 124800, Note_on_c, 10, 62, 44
13, 125039, Note_on_c, 10, 62, 0
13, 125040, Note_on_c, 10, 60, 44
13, 125159, Note_on_c, 10, 60, 0
13, 125160, Note_on_c, 10, 62, 44
13, 125279, Note_on_c, 10, 62, 0
13, 125280, Note_on_c, 10, 64, 44
13, 125519, Note_on_c, 10, 64, 0
13, 126000, Note_on_c, 10, 60, 44
13, 126239, Note_on_c, 10, 60, 0
13, 126480, Note_on_c, 10, 71, 44
13, 126719, Note_on_c, 10, 71, 0
13, 126960, Note_on_c, 10, 64, 44
13, 127199, Note_on_c, 10, 64, 0
13, 127440, Note_on_c, 10, 69, 44
13, 127679, Note_on_c, 10, 69, 0
13, 127920, Note_on_c, 10, 60, 44
13, 128159, Note_on_c, 10, 60, 0
13, 128160, Note_on_c, 10, 62, 44
13, 128399, Note_on_c, 10, 62, 0
13, 128400, Note_on_c, 10, 60, 44
13, 128639, Note_on_c, 10, 60, 0
13, 128640, Note_on_c, 10, 62, 44
13, 128879, Note_on_c, 10, 62, 0
13, 128880, Note_on_c, 10, 62, 44
13, 128999, Note_on_c, 10, 62, 0
13, 129000, Note_on_c, 10, 62, 44
13, 129119, Note_on_c, 10, 62, 0
13, 129120, Note_on_c, 10, 60, 44
13, 129359, Note_on_c, 10, 60, 0
13, 130560, Note_on_c, 10, 62, 44
13, 130799, Note_on_c, 10, 62, 0
13, 130800, Note_on_c, 10, 62, 44
13, 130919, Note_on_c, 10, 62, 0
13, 130920, Note_on_c, 10, 62, 44
13, 131039, Note_on_c, 10, 62, 0
13, 131040, Note_on_c, 10, 60, 44
13, 131279, Note_on_c, 10, 60, 0
13, 131520, Note_on_c, 10, 60, 44
13, 131747, Note_on_c, 10, 60, 0
13, 131758, Program_c, 10, 48
13, 131760, Note_on_c, 10, 76, 52
13, 131987, Note_on_c, 10, 76, 0
13, 132000, Note_on_c, 10, 78, 76
13, 132000, Control_c, 10, 11, 127
13, 132020, Control_c, 10, 11, 125
13, 132040, Control_c, 10, 11, 123
13, 132060, Control_c, 10, 11, 121
13, 132080, Control_c, 10, 11, 119
13, 132089, Note_on_c, 10, 78, 0
13, 132100, Control_c, 10, 11, 117
13, 132120, Control_c, 10, 11, 115
13, 132120, Note_on_c, 10, 80, 76
13, 132140, Control_c, 10, 11, 113
13, 132160, Control_c, 10, 11, 111
13, 132180, Control_c, 10, 11, 109
13, 132200, Control_c, 10, 11, 107
13, 132209, Note_on_c, 10, 80, 0
13, 132220, Control_c, 10, 11, 105
13, 132240, Note_on_c, 10, 81, 76
13, 132240, Control_c, 10, 11, 104
13, 132260, Control_c, 10, 11, 102
13, 132280, Control_c, 10, 11, 100
13, 132300, Control_c, 10, 11, 98
13, 132320, Control_c, 10, 11, 96
13, 132340, Control_c, 10, 11, 94
13, 132360, Control_c, 10, 11, 92
13, 132380, Control_c, 10, 11, 90
13, 132400, Control_c, 10, 11, 88
13, 132420, Control_c, 10, 11, 86
13, 132440, Control_c, 10, 11, 84
13, 132460, Control_c, 10, 11, 80
13, 132479, Note_on_c, 10, 81, 0
13, 132960, Control_c, 10, 11, 127
13, 132960, End_track
14, 0, Start_track
14, 0, Title_t, "Violin II"
14, 0, MIDI_port, 0
14, 0, Program_c, 11, 48
14, 0, Control_c, 11, 7, 96
14, 0, Control_c, 11, 10, 24
14, 0, Control_c, 11, 11, 127
14, 12480, Note_on_c, 11, 64, 52
14, 12711, Note_on_c, 11, 64, 0
14, 12720, Note_on_c, 11, 64, 52
14, 12809, Note_on_c, 11, 64, 0
14, 12840, Note_on_c, 11, 64, 52
14, 12929, Note_on_c, 11, 64, 0
14, 12960, Note_on_c, 11, 64, 52
14, 13169, Note_on_c, 11, 64, 0
14, 13200, Note_on_c, 11, 64, 52
14, 13409, Note_on_c, 11, 64, 0
14, 13440, Note_on_c, 11, 64, 52
14, 13671, Note_on_c, 11, 64, 0
14, 13680, Note_on_c, 11, 64, 52
14, 13769, Note_on_c, 11, 64, 0
14, 13800, Note_on_c, 11, 64, 52
14, 13889, Note_on_c, 11, 64, 0
14, 13920, Note_on_c, 11, 64, 52
14, 14129, Note_on_c, 11, 64, 0
14, 14160, Note_on_c, 11, 64, 52
14, 14369, Note_on_c, 11, 64, 0
14, 14400, Note_on_c, 11, 64, 52
14, 14631, Note_on_c, 11, 64, 0
14, 14640, Note_on_c, 11, 64, 52
14, 14729, Note_on_c, 11, 64, 0
14, 14760, Note_on_c, 11, 66, 52
14, 14849, Note_on_c, 11, 66, 0
14, 14880, Note_on_c, 11, 67, 52
14, 15089, Note_on_c, 11, 67, 0
14, 15120, Note_on_c, 11, 67, 52
14, 15329, Note_on_c, 11, 67, 0
14, 15360, Note_on_c, 11, 67, 52
14, 15591, Note_on_c, 11, 67, 0
14, 15600, Note_on_c, 11, 67, 52
14, 15689, Note_on_c, 11, 67, 0
14, 15720, Note_on_c, 11, 67, 52
14, 15809, Note_on_c, 11, 67, 0
14, 15840, Note_on_c, 11, 67, 52
14, 16079, Note_on_c, 11, 67, 0
14, 16320, Note_on_c, 11, 67, 52
14, 16551, Note_on_c, 11, 67, 0
14, 16560, Note_on_c, 11, 67, 52
14, 16649, Note_on_c, 11, 67, 0
14, 16680, Note_on_c, 11, 69, 52
14, 16769, Note_on_c, 11, 69, 0
14, 16800, Note_on_c, 11, 71, 52
14, 17009, Note_on_c, 11, 71, 0
14, 17040, Note_on_c, 11, 71, 52
14, 17249, Note_on_c, 11, 71, 0
14, 17280, Note_on_c, 11, 66, 52
14, 17511, Note_on_c, 11, 66, 0
14, 17520, Note_on_c, 11, 66, 52
14, 17609, Note_on_c, 11, 66, 0
14, 17640, Note_on_c, 11, 68, 52
14, 17729, Note_on_c, 11, 68, 0
14, 17760, Note_on_c, 11, 69, 52
14, 17969, Note_on_c, 11, 69, 0
14, 18000, Note_on_c, 11, 69, 52
14, 18209, Note_on_c, 11, 69, 0
14, 18240, Note_on_c, 11, 64, 52
14, 18471, Note_on_c, 11, 64, 0
14, 18480, Note_on_c, 11, 64, 52
14, 18569, Note_on_c, 11, 64, 0
14, 18600, Note_on_c, 11, 64, 52
14, 18689, Note_on_c, 11, 64, 0
14, 18720, Note_on_c, 11, 64, 52
14, 18929, Note_on_c, 11, 64, 0
14, 18960, Note_on_c, 11, 64, 52
14, 19169, Note_on_c, 11, 64, 0
14, 19200, Note_on_c, 11, 64, 52
14, 19431, Note_on_c, 11, 64, 0
14, 19440, Note_on_c, 11, 66, 52
14, 19529, Note_on_c, 11, 66, 0
14, 19560, Note_on_c, 11, 68, 52
14, 19649, Note_on_c, 11, 68, 0
14, 19680, Note_on_c, 11, 69, 52
14, 19919, Note_on_c, 11, 69, 0
14, 20160, Note_on_c, 11, 67, 44
14, 20391, Note_on_c, 11, 67, 0
14, 20400, Note_on_c, 11, 67, 44
14, 20489, Note_on_c, 11, 67, 0
14, 20520, Note_on_c, 11, 69, 44
14, 20609, Note_on_c, 11, 69, 0
14, 20640, Note_on_c, 11, 71, 44
14, 20849, Note_on_c, 11, 71, 0
14, 20880, Note_on_c, 11, 71, 44
14, 21089, Note_on_c, 11, 71, 0
14, 21120, Note_on_c, 11, 66, 44
14, 21351, Note_on_c, 11, 66, 0
14, 21360, Note_on_c, 11, 66, 44
14, 21449, Note_on_c, 11, 66, 0
14, 21480, Note_on_c, 11, 68, 44
14, 21569, Note_on_c, 11, 68, 0
14, 21600, Note_on_c, 11, 69, 44
14, 21809, Note_on_c, 11, 69, 0
14, 21840, Note_on_c, 11, 69, 44
14, 22049, Note_on_c, 11, 69, 0
14, 22080, Note_on_c, 11, 64, 44
14, 22311, Note_on_c, 11, 64, 0
14, 22320, Note_on_c, 11, 64, 44
14, 22409, Note_on_c, 11, 64, 0
14, 22440, Note_on_c, 11, 64, 44
14, 22529, Note_on_c, 11, 64, 0
14, 22560, Note_on_c, 11, 64, 44
14, 22769, Note_on_c, 11, 64, 0
14, 22800, Note_on_c, 11, 64, 44
14, 23009, Note_on_c, 11, 64, 0
14, 23040, Note_on_c, 11, 64, 44
14, 23271, Note_on_c, 11, 64, 0
14, 23280, Note_on_c, 11, 66, 44
14, 23369, Note_on_c, 11, 66, 0
14, 23400, Note_on_c, 11, 68, 44
14, 23489, Note_on_c, 11, 68, 0
14, 23520, Note_on_c, 11, 69, 44
14, 23759, Note_on_c, 11, 69, 0
14, 23878, Control_c, 11, 11, 64
14, 24000, Note_on_c, 11, 72, 76
14, 24000, Control_c, 11, 11, 64
14, 24122, Control_c, 11, 11, 65
14, 24244, Control_c, 11, 11, 66
14, 24366, Control_c, 11, 11, 67
14, 24479, Note_on_c, 11, 72, 0
14, 24480, Note_on_c, 11, 71, 76
14, 24488, Control_c, 11, 11, 68
14, 24610, Control_c, 11, 11, 69
14, 24731, Control_c, 11, 11, 70
14, 24853, Control_c, 11, 11, 71
14, 24887, Note_on_c, 11, 71, 0
14, 24900, Note_on_c, 11, 71, 76
14, 24929, Note_on_c, 11, 71, 0
14, 24930, Note_on_c, 11, 72, 76
14, 24959, Note_on_c, 11, 72, 0
14, 24960, Note_on_c, 11, 74, 76
14, 24975, Control_c, 11, 11, 72
14, 25097, Control_c, 11, 11, 73
14, 25219, Control_c, 11, 11, 74
14, 25319, Note_on_c, 11, 74, 0
14, 25320, Note_on_c, 11, 72, 76
14, 25341, Control_c, 11, 11, 75
14, 25379, Note_on_c, 11, 72, 0
14, 25380, Note_on_c, 11, 71, 76
14, 25433, Note_on_c, 11, 71, 0
14, 25440, Note_on_c, 11, 71, 76
14, 25463, Control_c, 11, 11, 76
14, 25559, Note_on_c, 11, 71, 0
14, 25560, Note_on_c, 11, 72, 76
14, 25585, Control_c, 11, 11, 77
14, 25667, Note_on_c, 11, 72, 0
14, 25680, Note_on_c, 11, 72, 76
14, 25707, Control_c, 11, 11, 78
14, 25829, Control_c, 11, 11, 79
14, 25907, Note_on_c, 11, 72, 0
14, 25920, Note_on_c, 11, 72, 76
14, 25950, Control_c, 11, 11, 80
14, 26072, Control_c, 11, 11, 81
14, 26194, Control_c, 11, 11, 82
14, 26267, Note_on_c, 11, 72, 0
14, 26280, Note_on_c, 11, 72, 76
14, 26316, Control_c, 11, 11, 83
14, 26339, Note_on_c, 11, 72, 0
14, 26340, Note_on_c, 11, 74, 76
14, 26393, Note_on_c, 11, 74, 0
14, 26400, Note_on_c, 11, 75, 76
14, 26438, Control_c, 11, 11, 84
14, 26519, Note_on_c, 11, 75, 0
14, 26520, Note_on_c, 11, 76, 76
14, 26560, Control_c, 11, 11, 85
14, 26627, Note_on_c, 11, 76, 0
14, 26640, Note_on_c, 11, 76, 76
14, 26682, Control_c, 11, 11, 86
14, 26729, Note_on_c, 11, 76, 0
14, 26760, Note_on_c, 11, 76, 76
14, 26804, Control_c, 11, 11, 87
14, 26819, Note_on_c, 11, 76, 0
14, 26820, Note_on_c, 11, 74, 76
14, 26849, Note_on_c, 11, 74, 0
14, 26850, Note_on_c, 11, 76, 76
14, 26879, Note_on_c, 11, 76, 0
14, 26880, Note_on_c, 11, 77, 76
14, 26926, Control_c, 11, 11, 88
14, 27048, Control_c, 11, 11, 89
14, 27170, Control_c, 11, 11, 90
14, 27239, Note_on_c, 11, 77, 0
14, 27240, Note_on_c, 11, 76, 76
14, 27291, Control_c, 11, 11, 91
14, 27299, Note_on_c, 11, 76, 0
14, 27300, Note_on_c, 11, 74, 76
14, 27353, Note_on_c, 11, 74, 0
14, 27360, Note_on_c, 11, 74, 76
14, 27413, Control_c, 11, 11, 92
14, 27479, Note_on_c, 11, 74, 0
14, 27480, Note_on_c, 11, 76, 76
14, 27535, Control_c, 11, 11, 93
14, 27587, Note_on_c, 11, 76, 0
14, 27600, Note_on_c, 11, 76, 76
14, 27657, Control_c, 11, 11, 94
14, 27779, Control_c, 11, 11, 95
14, 27827, Note_on_c, 11, 76, 0
14, 27840, Note_on_c, 11, 76, 76
14, 27901, Control_c, 11, 11, 96
14, 28023, Control_c, 11, 11, 97
14, 28145, Control_c, 11, 11, 98
14, 28267, Control_c, 11, 11, 99
14, 28319, Note_on_c, 11, 76, 0
14, 28320, Note_on_c, 11, 75, 76
14, 28389, Control_c, 11, 11, 100
14, 28510, Control_c, 11, 11, 101
14, 28632, Control_c, 11, 11, 102
14, 28754, Control_c, 11, 11, 103
14, 28787, Note_on_c, 11, 75, 0
14, 28800, Note_on_c, 11, 74, 76
14, 28876, Control_c, 11, 11, 104
14, 28919, Note_on_c, 11, 74, 0
14, 28920, Note_on_c, 11, 71, 76
14, 28979, Note_on_c, 11, 71, 0
14, 28980, Note_on_c, 11, 73, 76
14, 28998, Control_c, 11, 11, 105
14, 29039, Note_on_c, 11, 73, 0
14, 29040, Note_on_c, 11, 74, 76
14, 29120, Control_c, 11, 11, 106
14, 29159, Note_on_c, 11, 74, 0
14, 29160, Note_on_c, 11, 76, 76
14, 29219, Note_on_c, 11, 76, 0
14, 29220, Note_on_c, 11, 74, 76
14, 29242, Control_c, 11, 11, 107
14, 29273, Note_on_c, 11, 74, 0
14, 29280, Note_on_c, 11, 74, 76
14, 29364, Control_c, 11, 11, 108
14, 29399, Note_on_c, 11, 74, 0
14, 29400, Note_on_c, 11, 73, 76
14, 29486, Control_c, 11, 11, 109
14, 29507, Note_on_c, 11, 73, 0
14, 29520, Note_on_c, 11, 72, 76
14, 29608, Control_c, 11, 11, 110
14, 29730, Control_c, 11, 11, 111
14, 29747, Note_on_c, 11, 72, 0
14, 29760, Note_on_c, 11, 72, 76
14, 29851, Control_c, 11, 11, 112
14, 29973, Control_c, 11, 11, 113
14, 30095, Control_c, 11, 11, 114
14, 30217, Control_c, 11, 11, 115
14, 30239, Note_on_c, 11, 72, 0
14, 30240, Note_on_c, 11, 71, 76
14, 30339, Control_c, 11, 11, 116
14, 30461, Control_c, 11, 11, 117
14, 30479, Note_on_c, 11, 71, 0
14, 30480, Note_on_c, 11, 72, 76
14, 30583, Control_c, 11, 11, 118
14, 30647, Note_on_c, 11, 72, 0
14, 30660, Note_on_c, 11, 71, 76
14, 30689, Note_on_c, 11, 71, 0
14, 30690, Note_on_c, 11, 72, 76
14, 30705, Control_c, 11, 11, 119
14, 30719, Note_on_c, 11, 72, 0
14, 30720, Note_on_c, 11, 74, 76
14, 30827, Control_c, 11, 11, 120
14, 30949, Control_c, 11, 11, 121
14, 31070, Control_c, 11, 11, 122
14, 31079, Note_on_c, 11, 74, 0
14, 31080, Note_on_c, 11, 72, 76
14, 31139, Note_on_c, 11, 72, 0
14, 31140, Note_on_c, 11, 71, 76
14, 31192, Control_c, 11, 11, 123
14, 31193, Note_on_c, 11, 71, 0
14, 31200, Note_on_c, 11, 69, 76
14, 31289, Note_on_c, 11, 69, 0
14, 31314, Control_c, 11, 11, 124
14, 31320, Note_on_c, 11, 69, 76
14, 31379, Note_on_c, 11, 69, 0
14, 31380, Note_on_c, 11, 71, 76
14, 31436, Control_c, 11, 11, 125
14, 31439, Note_on_c, 11, 71, 0
14, 31440, Note_on_c, 11, 72, 76
14, 31529, Note_on_c, 11, 72, 0
14, 31558, Control_c, 11, 11, 127
14, 31560, Note_on_c, 11, 72, 76
14, 31619, Note_on_c, 11, 72, 0
14, 31620, Note_on_c, 11, 74, 76
14, 31679, Note_on_c, 11, 74, 0
14, 31680, Note_on_c, 11, 76, 76
14, 32159, Note_on_c, 11, 76, 0
14, 32160, Note_on_c, 11, 75, 76
14, 32627, Note_on_c, 11, 75, 0
14, 32640, Note_on_c, 11, 74, 80
14, 32759, Note_on_c, 11, 74, 0
14, 32760, Note_on_c, 11, 71, 80
14, 32819, Note_on_c, 11, 71, 0
14, 32820, Note_on_c, 11, 73, 80
14, 32879, Note_on_c, 11, 73, 0
14, 32880, Note_on_c, 11, 74, 80
14, 32999, Note_on_c, 11, 74, 0
14, 33000, Note_on_c, 11, 76, 80
14, 33059, Note_on_c, 11, 76, 0
14, 33060, Note_on_c, 11, 74, 80
14, 33113, Note_on_c, 11, 74, 0
14, 33120, Note_on_c, 11, 74, 80
14, 33239, Note_on_c, 11, 74, 0
14, 33240, Note_on_c, 11, 73, 80
14, 33359, Note_on_c, 11, 73, 0
14, 33360, Note_on_c, 11, 72, 80
14, 33587, Note_on_c, 11, 72, 0
14, 33600, Note_on_c, 11, 72, 80
14, 34079, Note_on_c, 11, 72, 0
14, 34080, Note_on_c, 11, 71, 80
14, 34319, Note_on_c, 11, 71, 0
14, 34320, Note_on_c, 11, 72, 80
14, 34487, Note_on_c, 11, 72, 0
14, 34500, Note_on_c, 11, 71, 80
14, 34529, Note_on_c, 11, 71, 0
14, 34530, Note_on_c, 11, 72, 80
14, 34559, Note_on_c, 11, 72, 0
14, 34560, Note_on_c, 11, 74, 80
14, 34919, Note_on_c, 11, 74, 0
14, 34920, Note_on_c, 11, 72, 80
14, 34979, Note_on_c, 11, 72, 0
14, 34980, Note_on_c, 11, 71, 80
14, 35033, Note_on_c, 11, 71, 0
14, 35040, Note_on_c, 11, 69, 80
14, 35279, Note_on_c, 11, 69, 0
14, 35640, Note_on_c, 11, 69, 84
14, 35759, Note_on_c, 11, 69, 0
14, 35760, Note_on_c, 11, 72, 84
14, 35879, Note_on_c, 11, 72, 0
14, 35880, Note_on_c, 11, 64, 84
14, 35999, Note_on_c, 11, 64, 0
14, 36120, Note_on_c, 11, 71, 84
14, 36239, Note_on_c, 11, 71, 0
14, 36240, Note_on_c, 11, 74, 84
14, 36359, Note_on_c, 11, 74, 0
14, 36360, Note_on_c, 11, 64, 84
14, 36479, Note_on_c, 11, 64, 0
14, 36600, Note_on_c, 11, 71, 84
14, 36719, Note_on_c, 11, 71, 0
14, 36720, Note_on_c, 11, 74, 84
14, 36839, Note_on_c, 11, 74, 0
14, 36840, Note_on_c, 11, 68, 84
14, 36959, Note_on_c, 11, 68, 0
14, 37080, Note_on_c, 11, 72, 84
14, 37199, Note_on_c, 11, 72, 0
14, 37200, Note_on_c, 11, 76, 84
14, 37319, Note_on_c, 11, 76, 0
14, 37320, Note_on_c, 11, 69, 84
14, 37439, Note_on_c, 11, 69, 0
14, 37560, Note_on_c, 11, 69, 84
14, 37679, Note_on_c, 11, 69, 0
14, 37680, Note_on_c, 11, 72, 84
14, 37799, Note_on_c, 11, 72, 0
14, 37800, Note_on_c, 11, 60, 84
14, 37919, Note_on_c, 11, 60, 0
14, 38040, Note_on_c, 11, 72, 84
14, 38159, Note_on_c, 11, 72, 0
14, 38160, Note_on_c, 11, 76, 84
14, 38279, Note_on_c, 11, 76, 0
14, 38280, Note_on_c, 11, 64, 84
14, 38399, Note_on_c, 11, 64, 0
14, 38520, Note_on_c, 11, 71, 84
14, 38639, Note_on_c, 11, 71, 0
14, 38640, Note_on_c, 11, 74, 84
14, 38759, Note_on_c, 11, 74, 0
14, 38760, Note_on_c, 11, 67, 84
14, 38879, Note_on_c, 11, 67, 0
14, 39000, Note_on_c, 11, 72, 84
14, 39119, Note_on_c, 11, 72, 0
14, 39120, Note_on_c, 11, 76, 84
14, 39239, Note_on_c, 11, 76, 0
14, 39240, Note_on_c, 11, 67, 84
14, 39359, Note_on_c, 11, 67, 0
14, 39480, Note_on_c, 11, 72, 84
14, 39599, Note_on_c, 11, 72, 0
14, 39600, Note_on_c, 11, 76, 84
14, 39719, Note_on_c, 11, 76, 0
14, 39720, Note_on_c, 11, 64, 84
14, 39839, Note_on_c, 11, 64, 0
14, 39960, Note_on_c, 11, 75, 84
14, 40079, Note_on_c, 11, 75, 0
14, 40080, Note_on_c, 11, 83, 84
14, 40199, Note_on_c, 11, 83, 0
14, 40200, Note_on_c, 11, 71, 84
14, 40319, Note_on_c, 11, 71, 0
14, 40440, Note_on_c, 11, 71, 84
14, 40559, Note_on_c, 11, 71, 0
14, 40560, Note_on_c, 11, 74, 84
14, 40679, Note_on_c, 11, 74, 0
14, 40680, Note_on_c, 11, 62, 84
14, 40799, Note_on_c, 11, 62, 0
14, 40920, Note_on_c, 11, 73, 84
14, 41039, Note_on_c, 11, 73, 0
14, 41040, Note_on_c, 11, 81, 84
14, 41159, Note_on_c, 11, 81, 0
14, 41160, Note_on_c, 11, 69, 84
14, 41279, Note_on_c, 11, 69, 0
14, 41400, Note_on_c, 11, 72, 84
14, 41519, Note_on_c, 11, 72, 0
14, 41520, Note_on_c, 11, 76, 84
14, 41639, Note_on_c, 11, 76, 0
14, 41640, Note_on_c, 11, 64, 84
14, 41759, Note_on_c, 11, 64, 0
14, 41880, Note_on_c, 11, 71, 84
14, 41999, Note_on_c, 11, 71, 0
14, 42000, Note_on_c, 11, 76, 84
14, 42119, Note_on_c, 11, 76, 0
14, 42120, Note_on_c, 11, 64, 84
14, 42239, Note_on_c, 11, 64, 0
14, 42360, Note_on_c, 11, 71, 84
14, 42479, Note_on_c, 11, 71, 0
14, 42480, Note_on_c, 11, 76, 84
14, 42599, Note_on_c, 11, 76, 0
14, 42600, Note_on_c, 11, 64, 84
14, 42719, Note_on_c, 11, 64, 0
14, 42840, Note_on_c, 11, 72, 84
14, 42959, Note_on_c, 11, 72, 0
14, 42960, Note_on_c, 11, 76, 84
14, 43079, Note_on_c, 11, 76, 0
14, 43080, Note_on_c, 11, 64, 84
14, 43199, Note_on_c, 11, 64, 0
14, 43320, Note_on_c, 11, 72, 83
14, 43439, Note_on_c, 11, 72, 0
14, 43440, Note_on_c, 11, 76, 82
14, 43559, Note_on_c, 11, 76, 0
14, 43560, Note_on_c, 11, 64, 81
14, 43679, Note_on_c, 11, 64, 0
14, 43800, Note_on_c, 11, 75, 79
14, 43919, Note_on_c, 11, 75, 0
14, 43920, Note_on_c, 11, 83, 78
14, 44039, Note_on_c, 11, 83, 0
14, 44040, Note_on_c, 11, 71, 76
14, 44159, Note_on_c, 11, 71, 0
14, 44280, Note_on_c, 11, 71, 74
14, 44399, Note_on_c, 11, 71, 0
14, 44400, Note_on_c, 11, 74, 73
14, 44519, Note_on_c, 11, 74, 0
14, 44520, Note_on_c, 11, 62, 72
14, 44639, Note_on_c, 11, 62, 0
14, 44760, Note_on_c, 11, 73, 70
14, 44879, Note_on_c, 11, 73, 0
14, 44880, Note_on_c, 11, 81, 68
14, 44999, Note_on_c, 11, 81, 0
14, 45000, Note_on_c, 11, 69, 67
14, 45119, Note_on_c, 11, 69, 0
14, 45240, Note_on_c, 11, 72, 65
14, 45359, Note_on_c, 11, 72, 0
14, 45360, Note_on_c, 11, 76, 64
14, 45479, Note_on_c, 11, 76, 0
14, 45480, Note_on_c, 11, 64, 63
14, 45599, Note_on_c, 11, 64, 0
14, 45720, Note_on_c, 11, 71, 60
14, 45839, Note_on_c, 11, 71, 0
14, 45840, Note_on_c, 11, 76, 59
14, 45959, Note_on_c, 11, 76, 0
14, 45960, Note_on_c, 11, 64, 58
14, 46079, Note_on_c, 11, 64, 0
14, 46200, Note_on_c, 11, 71, 56
14, 46319, Note_on_c, 11, 71, 0
14, 46320, Note_on_c, 11, 76, 55
14, 46439, Note_on_c, 11, 76, 0
14, 46440, Note_on_c, 11, 74, 54
14, 46440, Note_on_c, 11, 64, 54
14, 46547, Note_on_c, 11, 74, 0
14, 46547, Note_on_c, 11, 64, 0
14, 46560, Note_on_c, 11, 72, 52
14, 46560, Note_on_c, 11, 64, 52
14, 46799, Note_on_c, 11, 72, 0
14, 46799, Note_on_c, 11, 64, 0
14, 47760, Control_c, 11, 11, 96
14, 47940, Note_on_c, 11, 59, 68
14, 47969, Note_on_c, 11, 59, 0
14, 47970, Note_on_c, 11, 61, 68
14, 47999, Note_on_c, 11, 61, 0
14, 48000, Note_on_c, 11, 62, 68
14, 48359, Note_on_c, 11, 62, 0
14, 48360, Note_on_c, 11, 61, 68
14, 48419, Note_on_c, 11, 61, 0
14, 48420, Note_on_c, 11, 59, 68
14, 48471, Note_on_c, 11, 59, 0
14, 48480, Note_on_c, 11, 57, 68
14, 48959, Note_on_c, 11, 57, 0
14, 48960, Note_on_c, 11, 57, 68
14, 49427, Note_on_c, 11, 57, 0
14, 49440, Note_on_c, 11, 59, 68
14, 49860, Control_c, 11, 11, 96
14, 49908, Control_c, 11, 11, 97
14, 49919, Note_on_c, 11, 59, 0
14, 49920, Note_on_c, 11, 59, 68
14, 49957, Control_c, 11, 11, 98
14, 50005, Control_c, 11, 11, 99
14, 50054, Control_c, 11, 11, 100
14, 50102, Control_c, 11, 11, 101
14, 50150, Control_c, 11, 11, 102
14, 50159, Note_on_c, 11, 59, 0
14, 50160, Note_on_c, 11, 57, 68
14, 50199, Control_c, 11, 11, 103
14, 50247, Control_c, 11, 11, 104
14, 50295, Control_c, 11, 11, 105
14, 50344, Control_c, 11, 11, 106
14, 50392, Control_c, 11, 11, 107
14, 50399, Note_on_c, 11, 57, 0
14, 50400, Note_on_c, 11, 56, 68
14, 50441, Control_c, 11, 11, 108
14, 50489, Control_c, 11, 11, 109
14, 50537, Control_c, 11, 11, 110
14, 50586, Control_c, 11, 11, 111
14, 50634, Control_c, 11, 11, 112
14, 50639, Note_on_c, 11, 56, 0
14, 50640, Note_on_c, 11, 57, 68
14, 50683, Control_c, 11, 11, 113
14, 50731, Control_c, 11, 11, 114
14, 50779, Control_c, 11, 11, 115
14, 50828, Control_c, 11, 11, 116
14, 50867, Note_on_c, 11, 57, 0
14, 50876, Control_c, 11, 11, 117
14, 50880, Note_on_c, 11, 57, 68
14, 50925, Control_c, 11, 11, 118
14, 50973, Control_c, 11, 11, 119
14, 51021, Control_c, 11, 11, 120
14, 51070, Control_c, 11, 11, 121
14, 51118, Control_c, 11, 11, 122
14, 51119, Note_on_c, 11, 57, 0
14, 51120, Note_on_c, 11, 55, 68
14, 51166, Control_c, 11, 11, 123
14, 51215, Control_c, 11, 11, 124
14, 51263, Control_c, 11, 11, 125
14, 51312, Control_c, 11, 11, 127
14, 51359, Note_on_c, 11, 55, 0
14, 51360, Note_on_c, 11, 57, 68
14, 51599, Note_on_c, 11, 57, 0
14, 51600, Control_c, 11, 11, 127
14, 51600, Note_on_c, 11, 59, 68
14, 51623, Control_c, 11, 11, 126
14, 51646, Control_c, 11, 11, 125
14, 51670, Control_c, 11, 11, 124
14, 51693, Control_c, 11, 11, 123
14, 51716, Control_c, 11, 11, 122
14, 51739, Control_c, 11, 11, 121
14, 51763, Control_c, 11, 11, 120
14, 51786, Control_c, 11, 11, 119
14, 51809, Control_c, 11, 11, 118
14, 51827, Note_on_c, 11, 59, 0
14, 51832, Control_c, 11, 11, 117
14, 51840, Note_on_c, 11, 59, 68
14, 51855, Control_c, 11, 11, 116
14, 51879, Control_c, 11, 11, 115
14, 51902, Control_c, 11, 11, 114
14, 51925, Control_c, 11, 11, 113
14, 51948, Control_c, 11, 11, 112
14, 51972, Control_c, 11, 11, 111
14, 51995, Control_c, 11, 11, 110
14, 52018, Control_c, 11, 11, 109
14, 52041, Control_c, 11, 11, 108
14, 52065, Control_c, 11, 11, 107
14, 52079, Note_on_c, 11, 59, 0
14, 52080, Note_on_c, 11, 57, 68
14, 52088, Control_c, 11, 11, 106
14, 52111, Control_c, 11, 11, 105
14, 52134, Control_c, 11, 11, 104
14, 52157, Control_c, 11, 11, 103
14, 52181, Control_c, 11, 11, 102
14, 52199, Note_on_c, 11, 57, 0
14, 52200, Note_on_c, 11, 67, 68
14, 52200, Note_on_c, 11, 55, 68
14, 52204, Control_c, 11, 11, 101
14, 52227, Control_c, 11, 11, 100
14, 52250, Control_c, 11, 11, 99
14, 52274, Control_c, 11, 11, 98
14, 52297, Control_c, 11, 11, 96
14, 52307, Note_on_c, 11, 67, 0
14, 52307, Note_on_c, 11, 55, 0
14, 52320, Note_on_c, 11, 55, 68
14, 52320, Note_on_c, 11, 67, 68
14, 52547, Note_on_c, 11, 55, 0
14, 52547, Note_on_c, 11, 67, 0
14, 52560, Note_on_c, 11, 67, 68
14, 52560, Note_on_c, 11, 55, 68
14, 52560, Control_c, 11, 11, 96
14, 52614, Control_c, 11, 11, 97
14, 52668, Control_c, 11, 11, 98
14, 52723, Control_c, 11, 11, 99
14, 52777, Control_c, 11, 11, 100
14, 52831, Control_c, 11, 11, 101
14, 52885, Control_c, 11, 11, 102
14, 52939, Control_c, 11, 11, 103
14, 52994, Control_c, 11, 11, 104
14, 53048, Control_c, 11, 11, 105
14, 53102, Control_c, 11, 11, 106
14, 53156, Control_c, 11, 11, 107
14, 53210, Control_c, 11, 11, 108
14, 53265, Control_c, 11, 11, 109
14, 53319, Control_c, 11, 11, 110
14, 53373, Control_c, 11, 11, 111
14, 53387, Note_on_c, 11, 67, 0
14, 53387, Note_on_c, 11, 55, 0
14, 53400, Note_on_c, 11, 57, 68
14, 53400, Note_on_c, 11, 67, 68
14, 53427, Control_c, 11, 11, 112
14, 53481, Control_c, 11, 11, 113
14, 53507, Note_on_c, 11, 57, 0
14, 53507, Note_on_c, 11, 67, 0
14, 53520, Note_on_c, 11, 66, 68
14, 53520, Note_on_c, 11, 57, 68
14, 53535, Control_c, 11, 11, 114
14, 53590, Control_c, 11, 11, 115
14, 53644, Control_c, 11, 11, 116
14, 53698, Control_c, 11, 11, 117
14, 53752, Control_c, 11, 11, 118
14, 53806, Control_c, 11, 11, 119
14, 53861, Control_c, 11, 11, 120
14, 53915, Control_c, 11, 11, 121
14, 53969, Control_c, 11, 11, 122
14, 53987, Note_on_c, 11, 66, 0
14, 53987, Note_on_c, 11, 57, 0
14, 54000, Note_on_c, 11, 57, 68
14, 54023, Control_c, 11, 11, 123
14, 54077, Control_c, 11, 11, 124
14, 54132, Control_c, 11, 11, 125
14, 54186, Control_c, 11, 11, 127
14, 54227, Note_on_c, 11, 57, 0
14, 54240, Note_on_c, 11, 57, 68
14, 54359, Note_on_c, 11, 57, 0
14, 54360, Note_on_c, 11, 59, 66
14, 54479, Note_on_c, 11, 59, 0
14, 54480, Note_on_c, 11, 61, 64
14, 54587, Note_on_c, 11, 61, 0
14, 54600, Note_on_c, 11, 61, 62
14, 54719, Note_on_c, 11, 61, 0
14, 54720, Note_on_c, 11, 56, 60
14, 54839, Note_on_c, 11, 56, 0
14, 54840, Note_on_c, 11, 59, 58
14, 54947, Note_on_c, 11, 59, 0
14, 54960, Note_on_c, 11, 59, 56
14, 55079, Note_on_c, 11, 59, 0
14, 55080, Note_on_c, 11, 57, 54
14, 55187, Note_on_c, 11, 57, 0
14, 55200, Note_on_c, 11, 56, 52
14, 55439, Note_on_c, 11, 56, 0
14, 55440, Note_on_c, 11, 68, 52
14, 55440, Note_on_c, 11, 59, 52
14, 56147, Note_on_c, 11, 68, 0
14, 56147, Note_on_c, 11, 59, 0
14, 56160, Note_on_c, 11, 59, 52
14, 56160, Note_on_c, 11, 68, 52
14, 56639, Note_on_c, 11, 59, 0
14, 56639, Note_on_c, 11, 68, 0
14, 56640, Note_on_c, 11, 59, 52
14, 56640, Note_on_c, 11, 69, 52
14, 57107, Note_on_c, 11, 59, 0
14, 57107, Note_on_c, 11, 69, 0
14, 57120, Note_on_c, 11, 68, 52
14, 57120, Note_on_c, 11, 59, 52
14, 57599, Note_on_c, 11, 68, 0
14, 57599, Note_on_c, 11, 59, 0
14, 57600, Note_on_c, 11, 59, 52
14, 57600, Note_on_c, 11, 69, 52
14, 58067, Note_on_c, 11, 59, 0
14, 58067, Note_on_c, 11, 69, 0
14, 58080, Note_on_c, 11, 68, 52
14, 58080, Note_on_c, 11, 59, 52
14, 58319, Note_on_c, 11, 68, 0
14, 58319, Note_on_c, 11, 59, 0
14, 58320, Note_on_c, 11, 56, 52
14, 58547, Note_on_c, 11, 56, 0
14, 58558, Control_c, 11, 11, 96
14, 58560, Control_c, 11, 11, 96
14, 58560, Note_on_c, 11, 55, 68
14, 58622, Control_c, 11, 11, 97
14, 58684, Control_c, 11, 11, 98
14, 58746, Control_c, 11, 11, 99
14, 58808, Control_c, 11, 11, 100
14, 58870, Control_c, 11, 11, 101
14, 58932, Control_c, 11, 11, 102
14, 58994, Control_c, 11, 11, 103
14, 59039, Note_on_c, 11, 55, 0
14, 59040, Note_on_c, 11, 56, 68
14, 59055, Control_c, 11, 11, 104
14, 59117, Control_c, 11, 11, 105
14, 59179, Control_c, 11, 11, 106
14, 59241, Control_c, 11, 11, 107
14, 59303, Control_c, 11, 11, 108
14, 59365, Control_c, 11, 11, 109
14, 59427, Control_c, 11, 11, 110
14, 59489, Control_c, 11, 11, 111
14, 59507, Note_on_c, 11, 56, 0
14, 59520, Note_on_c, 11, 55, 68
14, 59551, Control_c, 11, 11, 112
14, 59613, Control_c, 11, 11, 113
14, 59675, Control_c, 11, 11, 114
14, 59737, Control_c, 11, 11, 115
14, 59799, Control_c, 11, 11, 116
14, 59861, Control_c, 11, 11, 117
14, 59923, Control_c, 11, 11, 118
14, 59985, Control_c, 11, 11, 119
14, 59999, Note_on_c, 11, 55, 0
14, 60000, Note_on_c, 11, 56, 68
14, 60046, Control_c, 11, 11, 120
14, 60108, Control_c, 11, 11, 121
14, 60170, Control_c, 11, 11, 122
14, 60232, Control_c, 11, 11, 123
14, 60294, Control_c, 11, 11, 124
14, 60356, Control_c, 11, 11, 125
14, 60418, Control_c, 11, 11, 127
14, 60467, Note_on_c, 11, 56, 0
14, 60480, Control_c, 11, 11, 127
14, 60480, Note_on_c, 11, 55, 68
14, 60511, Control_c, 11, 11, 126
14, 60542, Control_c, 11, 11, 125
14, 60573, Control_c, 11, 11, 124
14, 60604, Control_c, 11, 11, 123
14, 60635, Control_c, 11, 11, 122
14, 60666, Control_c, 11, 11, 121
14, 60697, Control_c, 11, 11, 120
14, 60719, Note_on_c, 11, 55, 0
14, 60720, Note_on_c, 11, 67, 68
14, 60728, Control_c, 11, 11, 119
14, 60759, Control_c, 11, 11, 118
14, 60790, Control_c, 11, 11, 117
14, 60821, Control_c, 11, 11, 116
14, 60852, Control_c, 11, 11, 115
14, 60883, Control_c, 11, 11, 114
14, 60914, Control_c, 11, 11, 113
14, 60945, Control_c, 11, 11, 112
14, 60959, Note_on_c, 11, 67, 0
14, 60960, Note_on_c, 11, 66, 68
14, 60975, Control_c, 11, 11, 111
14, 61006, Control_c, 11, 11, 110
14, 61037, Control_c, 11, 11, 109
14, 61067, Note_on_c, 11, 66, 0
14, 61068, Control_c, 11, 11, 108
14, 61080, Note_on_c, 11, 66, 68
14, 61099, Control_c, 11, 11, 107
14, 61130, Control_c, 11, 11, 106
14, 61161, Control_c, 11, 11, 105
14, 61192, Control_c, 11, 11, 104
14, 61199, Note_on_c, 11, 66, 0
14, 61200, Note_on_c, 11, 62, 68
14, 61223, Control_c, 11, 11, 103
14, 61254, Control_c, 11, 11, 102
14, 61285, Control_c, 11, 11, 101
14, 61316, Control_c, 11, 11, 100
14, 61319, Note_on_c, 11, 62, 0
14, 61320, Note_on_c, 11, 66, 68
14, 61347, Control_c, 11, 11, 99
14, 61378, Control_c, 11, 11, 98
14, 61409, Control_c, 11, 11, 96
14, 61427, Note_on_c, 11, 66, 0
14, 61440, Note_on_c, 11, 61, 68
14, 61559, Note_on_c, 11, 61, 0
14, 61560, Note_on_c, 11, 64, 68
14, 61667, Note_on_c, 11, 64, 0
14, 61680, Note_on_c, 11, 64, 68
14, 61799, Note_on_c, 11, 64, 0
14, 61800, Note_on_c, 11, 62, 68
14, 61919, Note_on_c, 11, 62, 0
14, 61920, Note_on_c, 11, 61, 68
14, 61920, Control_c, 11, 11, 96
14, 61997, Control_c, 11, 11, 97
14, 62027, Note_on_c, 11, 61, 0
14, 62040, Note_on_c, 11, 61, 68
14, 62075, Control_c, 11, 11, 98
14, 62152, Control_c, 11, 11, 99
14, 62159, Note_on_c, 11, 61, 0
14, 62160, Note_on_c, 11, 62, 68
14, 62230, Control_c, 11, 11, 100
14, 62239, Note_on_c, 11, 62, 0
14, 62240, Note_on_c, 11, 63, 68
14, 62307, Control_c, 11, 11, 101
14, 62319, Note_on_c, 11, 63, 0
14, 62320, Note_on_c, 11, 64, 68
14, 62385, Control_c, 11, 11, 102
14, 62387, Note_on_c, 11, 64, 0
14, 62400, Note_on_c, 11, 55, 68
14, 62462, Control_c, 11, 11, 103
14, 62539, Control_c, 11, 11, 104
14, 62617, Control_c, 11, 11, 105
14, 62694, Control_c, 11, 11, 106
14, 62772, Control_c, 11, 11, 107
14, 62849, Control_c, 11, 11, 108
14, 62879, Note_on_c, 11, 55, 0
14, 62880, Note_on_c, 11, 56, 68
14, 62926, Control_c, 11, 11, 109
14, 63004, Control_c, 11, 11, 110
14, 63081, Control_c, 11, 11, 111
14, 63159, Control_c, 11, 11, 112
14, 63236, Control_c, 11, 11, 113
14, 63314, Control_c, 11, 11, 114
14, 63347, Note_on_c, 11, 56, 0
14, 63360, Note_on_c, 11, 55, 68
14, 63391, Control_c, 11, 11, 115
14, 63468, Control_c, 11, 11, 116
14, 63546, Control_c, 11, 11, 117
14, 63623, Control_c, 11, 11, 118
14, 63701, Control_c, 11, 11, 119
14, 63778, Control_c, 11, 11, 120
14, 63839, Note_on_c, 11, 55, 0
14, 63840, Note_on_c, 11, 56, 68
14, 63855, Control_c, 11, 11, 121
14, 63933, Control_c, 11, 11, 122
14, 64010, Control_c, 11, 11, 123
14, 64088, Control_c, 11, 11, 124
14, 64165, Control_c, 11, 11, 125
14, 64243, Control_c, 11, 11, 127
14, 64307, Note_on_c, 11, 56, 0
14, 64320, Control_c, 11, 11, 127
14, 64320, Note_on_c, 11, 55, 68
14, 64351, Control_c, 11, 11, 126
14, 64382, Control_c, 11, 11, 125
14, 64413, Control_c, 11, 11, 124
14, 64444, Control_c, 11, 11, 123
14, 64475, Control_c, 11, 11, 122
14, 64506, Control_c, 11, 11, 121
14, 64537, Control_c, 11, 11, 120
14, 64559, Note_on_c, 11, 55, 0
14, 64560, Note_on_c, 11, 67, 68
14, 64568, Control_c, 11, 11, 119
14, 64599, Control_c, 11, 11, 118
14, 64630, Control_c, 11, 11, 117
14, 64661, Control_c, 11, 11, 116
14, 64692, Control_c, 11, 11, 115
14, 64723, Control_c, 11, 11, 114
14, 64754, Control_c, 11, 11, 113
14, 64785, Control_c, 11, 11, 112
14, 64799, Note_on_c, 11, 67, 0
14, 64800, Note_on_c, 11, 69, 68
14, 64815, Control_c, 11, 11, 111
14, 64846, Control_c, 11, 11, 110
14, 64877, Control_c, 11, 11, 109
14, 64907, Note_on_c, 11, 69, 0
14, 64908, Control_c, 11, 11, 108
14, 64920, Note_on_c, 11, 57, 68
14, 64939, Control_c, 11, 11, 107
14, 64970, Control_c, 11, 11, 106
14, 65001, Control_c, 11, 11, 105
14, 65032, Control_c, 11, 11, 104
14, 65039, Note_on_c, 11, 57, 0
14, 65040, Note_on_c, 11, 65, 68
14, 65063, Control_c, 11, 11, 103
14, 65094, Control_c, 11, 11, 102
14, 65125, Control_c, 11, 11, 101
14, 65156, Control_c, 11, 11, 100
14, 65159, Note_on_c, 11, 65, 0
14, 65160, Note_on_c, 11, 69, 68
14, 65187, Control_c, 11, 11, 99
14, 65218, Control_c, 11, 11, 98
14, 65249, Control_c, 11, 11, 96
14, 65267, Note_on_c, 11, 69, 0
14, 65280, Note_on_c, 11, 64, 68
14, 65399, Note_on_c, 11, 64, 0
14, 65400, Note_on_c, 11, 67, 68
14, 65507, Note_on_c, 11, 67, 0
14, 65520, Note_on_c, 11, 67, 68
14, 65639, Note_on_c, 11, 67, 0
14, 65640, Note_on_c, 11, 59, 68
14, 65747, Note_on_c, 11, 59, 0
14, 65760, Note_on_c, 11, 60, 68
14, 65999, Note_on_c, 11, 60, 0
14, 66000, Note_on_c, 11, 55, 68
14, 66000, Note_on_c, 11, 64, 68
14, 66239, Note_on_c, 11, 64, 0
14, 66240, Note_on_c, 11, 65, 68
14, 66719, Note_on_c, 11, 55, 0
14, 66719, Note_on_c, 11, 65, 0
14, 66720, Note_on_c, 11, 55, 68
14, 66720, Note_on_c, 11, 64, 68
14, 67187, Note_on_c, 11, 55, 0
14, 67187, Note_on_c, 11, 64, 0
14, 67198, Control_c, 11, 11, 80
14, 67200, Note_on_c, 11, 55, 76
14, 67200, Note_on_c, 11, 65, 76
14, 67679, Note_on_c, 11, 55, 0
14, 67679, Note_on_c, 11, 65, 0
14, 67680, Note_on_c, 11, 64, 76
14, 67680, Note_on_c, 11, 55, 76
14, 68159, Note_on_c, 11, 64, 0
14, 68159, Note_on_c, 11, 55, 0
14, 68160, Note_on_c, 11, 55, 76
14, 68160, Note_on_c, 11, 65, 76
14, 68160, Control_c, 11, 11, 80
14, 68180, Control_c, 11, 11, 82
14, 68200, Control_c, 11, 11, 84
14, 68220, Control_c, 11, 11, 86
14, 68240, Control_c, 11, 11, 88
14, 68260, Control_c, 11, 11, 90
14, 68280, Control_c, 11, 11, 92
14, 68300, Control_c, 11, 11, 94
14, 68320, Control_c, 11, 11, 96
14, 68340, Control_c, 11, 11, 98
14, 68360, Control_c, 11, 11, 100
14, 68380, Control_c, 11, 11, 102
14, 68400, Control_c, 11, 11, 104
14, 68420, Control_c, 11, 11, 105
14, 68440, Control_c, 11, 11, 107
14, 68460, Control_c, 11, 11, 109
14, 68480, Control_c, 11, 11, 111
14, 68500, Control_c, 11, 11, 113
14, 68520, Control_c, 11, 11, 115
14, 68540, Control_c, 11, 11, 117
14, 68560, Control_c, 11, 11, 119
14, 68580, Control_c, 11, 11, 121
14, 68600, Control_c, 11, 11, 123
14, 68620, Control_c, 11, 11, 127
14, 68639, Note_on_c, 11, 55, 0
14, 68639, Note_on_c, 11, 65, 0
14, 69040, Note_on_c, 11, 69, 76
14, 69099, Note_on_c, 11, 69, 0
14, 69120, Note_on_c, 11, 67, 76
14, 69179, Note_on_c, 11, 67, 0
14, 69200, Note_on_c, 11, 65, 76
14, 69259, Note_on_c, 11, 65, 0
14, 69280, Note_on_c, 11, 64, 76
14, 69339, Note_on_c, 11, 64, 0
14, 69360, Note_on_c, 11, 62, 84
14, 69419, Note_on_c, 11, 62, 0
14, 69440, Note_on_c, 11, 60, 76
14, 69499, Note_on_c, 11, 60, 0
14, 69520, Note_on_c, 11, 59, 76
14, 69579, Note_on_c, 11, 59, 0
14, 69600, Note_on_c, 11, 57, 76
14, 69659, Note_on_c, 11, 57, 0
14, 69680, Note_on_c, 11, 67, 76
14, 69739, Note_on_c, 11, 67, 0
14, 69760, Note_on_c, 11, 65, 76
14, 69819, Note_on_c, 11, 65, 0
14, 69840, Note_on_c, 11, 64, 76
14, 69899, Note_on_c, 11, 64, 0
14, 69920, Note_on_c, 11, 62, 76
14, 69979, Note_on_c, 11, 62, 0
14, 70000, Note_on_c, 11, 60, 76
14, 70059, Note_on_c, 11, 60, 0
14, 70080, Note_on_c, 11, 59, 76
14, 70159, Note_on_c, 11, 59, 0
14, 70800, Note_on_c, 11, 59, 84
14, 70889, Note_on_c, 11, 59, 0
14, 70920, Note_on_c, 11, 59, 84
14, 71009, Note_on_c, 11, 59, 0
14, 71280, Program_c, 11, 45
14, 71520, Note_on_c, 11, 57, 44
14, 71759, Note_on_c, 11, 57, 0
14, 71760, Note_on_c, 11, 57, 44
14, 71879, Note_on_c, 11, 57, 0
14, 71880, Note_on_c, 11, 57, 44
14, 71999, Note_on_c, 11, 57, 0
14, 72000, Note_on_c, 11, 56, 44
14, 72239, Note_on_c, 11, 56, 0
14, 72240, Note_on_c, 11, 56, 44
14, 72479, Note_on_c, 11, 56, 0
14, 72480, Note_on_c, 11, 68, 44
14, 72480, Note_on_c, 11, 59, 44
14, 72719, Note_on_c, 11, 68, 0
14, 72719, Note_on_c, 11, 59, 0
14, 72720, Note_on_c, 11, 59, 44
14, 72720, Note_on_c, 11, 68, 44
14, 72839, Note_on_c, 11, 59, 0
14, 72839, Note_on_c, 11, 68, 0
14, 72840, Note_on_c, 11, 68, 44
14, 72840, Note_on_c, 11, 59, 44
14, 72959, Note_on_c, 11, 68, 0
14, 72959, Note_on_c, 11, 59, 0
14, 72960, Note_on_c, 11, 69, 44
14, 72960, Note_on_c, 11, 60, 44
14, 73199, Note_on_c, 11, 69, 0
14, 73199, Note_on_c, 11, 60, 0
14, 73200, Note_on_c, 11, 69, 44
14, 73200, Note_on_c, 11, 60, 44
14, 73439, Note_on_c, 11, 69, 0
14, 73439, Note_on_c, 11, 60, 0
14, 73440, Note_on_c, 11, 55, 44
14, 73679, Note_on_c, 11, 55, 0
14, 73680, Note_on_c, 11, 55, 44
14, 73799, Note_on_c, 11, 55, 0
14, 73800, Note_on_c, 11, 69, 44
14, 73800, Note_on_c, 11, 57, 44
14, 73919, Note_on_c, 11, 69, 0
14, 73919, Note_on_c, 11, 57, 0
14, 73920, Note_on_c, 11, 64, 44
14, 73920, Note_on_c, 11, 60, 44
14, 74159, Note_on_c, 11, 64, 0
14, 74159, Note_on_c, 11, 60, 0
14, 74160, Note_on_c, 11, 60, 44
14, 74160, Note_on_c, 11, 64, 44
14, 74399, Note_on_c, 11, 60, 0
14, 74399, Note_on_c, 11, 64, 0
14, 74400, Note_on_c, 11, 62, 44
14, 74400, Note_on_c, 11, 59, 44
14, 74639, Note_on_c, 11, 62, 0
14, 74639, Note_on_c, 11, 59, 0
14, 74640, Note_on_c, 11, 62, 44
14, 74640, Note_on_c, 11, 59, 44
14, 74759, Note_on_c, 11, 62, 0
14, 74759, Note_on_c, 11, 59, 0
14, 74760, Note_on_c, 11, 59, 44
14, 74760, Note_on_c, 11, 62, 44
14, 74879, Note_on_c, 11, 59, 0
14, 74879, Note_on_c, 11, 62, 0
14, 74880, Note_on_c, 11, 64, 44
14, 74880, Note_on_c, 11, 60, 44
14, 75119, Note_on_c, 11, 64, 0
14, 75119, Note_on_c, 11, 60, 0
14, 75360, Note_on_c, 11, 60, 44
14, 75360, Note_on_c, 11, 64, 44
14, 75599, Note_on_c, 11, 60, 0
14, 75599, Note_on_c, 11, 64, 0
14, 75600, Note_on_c, 11, 64, 44
14, 75600, Note_on_c, 11, 60, 44
14, 75719, Note_on_c, 11, 64, 0
14, 75719, Note_on_c, 11, 60, 0
14, 75720, Note_on_c, 11, 66, 44
14, 75720, Note_on_c, 11, 60, 44
14, 75839, Note_on_c, 11, 66, 0
14, 75839, Note_on_c, 11, 60, 0
14, 75840, Note_on_c, 11, 66, 44
14, 75840, Note_on_c, 11, 59, 44
14, 76079, Note_on_c, 11, 66, 0
14, 76079, Note_on_c, 11, 59, 0
14, 76080, Note_on_c, 11, 71, 44
14, 76080, Note_on_c, 11, 66, 44
14, 76080, Note_on_c, 11, 59, 44
14, 76319, Note_on_c, 11, 71, 0
14, 76319, Note_on_c, 11, 66, 0
14, 76319, Note_on_c, 11, 59, 0
14, 76320, Note_on_c, 11, 57, 44
14, 76320, Note_on_c, 11, 62, 44
14, 76559, Note_on_c, 11, 57, 0
14, 76559, Note_on_c, 11, 62, 0
14, 76560, Note_on_c, 11, 57, 44
14, 76560, Note_on_c, 11, 62, 44
14, 76679, Note_on_c, 11, 57, 0
14, 76679, Note_on_c, 11, 62, 0
14, 76680, Note_on_c, 11, 64, 44
14, 76680, Note_on_c, 11, 59, 44
14, 76799, Note_on_c, 11, 64, 0
14, 76799, Note_on_c, 11, 59, 0
14, 76800, Note_on_c, 11, 57, 44
14, 76800, Note_on_c, 11, 64, 44
14, 77039, Note_on_c, 11, 57, 0
14, 77039, Note_on_c, 11, 64, 0
14, 77040, Note_on_c, 11, 57, 44
14, 77040, Note_on_c, 11, 69, 44
14, 77040, Note_on_c, 11, 64, 44
14, 77279, Note_on_c, 11, 57, 0
14, 77279, Note_on_c, 11, 69, 0
14, 77279, Note_on_c, 11, 64, 0
14, 77280, Note_on_c, 11, 60, 44
14, 77280, Note_on_c, 11, 69, 44
14, 77519, Note_on_c, 11, 60, 0
14, 77519, Note_on_c, 11, 69, 0
14, 77520, Note_on_c, 11, 69, 44
14, 77520, Note_on_c, 11, 60, 44
14, 77639, Note_on_c, 11, 69, 0
14, 77639, Note_on_c, 11, 60, 0
14, 77640, Note_on_c, 11, 57, 44
14, 77759, Note_on_c, 11, 57, 0
14, 77760, Note_on_c, 11, 56, 44
14, 77879, Note_on_c, 11, 56, 0
14, 78000, Note_on_c, 11, 69, 44
14, 78000, Note_on_c, 11, 60, 44
14, 78119, Note_on_c, 11, 69, 0
14, 78119, Note_on_c, 11, 60, 0
14, 78120, Note_on_c, 11, 57, 44
14, 78239, Note_on_c, 11, 57, 0
14, 78240, Note_on_c, 11, 59, 44
14, 78240, Note_on_c, 11, 68, 44
14, 78479, Note_on_c, 11, 59, 0
14, 78479, Note_on_c, 11, 68, 0
14, 78480, Note_on_c, 11, 69, 44
14, 78599, Note_on_c, 11, 69, 0
14, 78600, Note_on_c, 11, 71, 44
14, 78719, Note_on_c, 11, 71, 0
14, 78720, Note_on_c, 11, 64, 44
14, 78720, Note_on_c, 11, 60, 44
14, 78839, Note_on_c, 11, 64, 0
14, 78839, Note_on_c, 11, 60, 0
14, 79200, Note_on_c, 11, 64, 44
14, 79200, Note_on_c, 11, 59, 44
14, 79439, Note_on_c, 11, 64, 0
14, 79439, Note_on_c, 11, 59, 0
14, 79440, Note_on_c, 11, 64, 44
14, 79440, Note_on_c, 11, 59, 44
14, 79559, Note_on_c, 11, 64, 0
14, 79559, Note_on_c, 11, 59, 0
14, 79560, Note_on_c, 11, 60, 44
14, 79560, Note_on_c, 11, 66, 44
14, 79679, Note_on_c, 11, 60, 0
14, 79679, Note_on_c, 11, 66, 0
14, 79680, Note_on_c, 11, 59, 44
14, 79680, Note_on_c, 11, 66, 44
14, 79919, Note_on_c, 11, 59, 0
14, 79919, Note_on_c, 11, 66, 0
14, 79920, Note_on_c, 11, 66, 44
14, 79920, Note_on_c, 11, 71, 44
14, 79920, Note_on_c, 11, 59, 44
14, 80159, Note_on_c, 11, 66, 0
14, 80159, Note_on_c, 11, 71, 0
14, 80159, Note_on_c, 11, 59, 0
14, 80160, Note_on_c, 11, 62, 44
14, 80160, Note_on_c, 11, 57, 44
14, 80399, Note_on_c, 11, 62, 0
14, 80399, Note_on_c, 11, 57, 0
14, 80400, Note_on_c, 11, 57, 44
14, 80400, Note_on_c, 11, 62, 44
14, 80519, Note_on_c, 11, 57, 0
14, 80519, Note_on_c, 11, 62, 0
14, 80520, Note_on_c, 11, 59, 44
14, 80520, Note_on_c, 11, 64, 44
14, 80639, Note_on_c, 11, 59, 0
14, 80639, Note_on_c, 11, 64, 0
14, 80640, Note_on_c, 11, 64, 44
14, 80640, Note_on_c, 11, 57, 44
14, 80879, Note_on_c, 11, 64, 0
14, 80879, Note_on_c, 11, 57, 0
14, 80880, Note_on_c, 11, 69, 44
14, 80880, Note_on_c, 11, 64, 44
14, 80880, Note_on_c, 11, 57, 44
14, 81119, Note_on_c, 11, 69, 0
14, 81119, Note_on_c, 11, 64, 0
14, 81119, Note_on_c, 11, 57, 0
14, 81120, Note_on_c, 11, 69, 44
14, 81120, Note_on_c, 11, 60, 44
14, 81359, Note_on_c, 11, 69, 0
14, 81359, Note_on_c, 11, 60, 0
14, 81360, Note_on_c, 11, 60, 44
14, 81360, Note_on_c, 11, 69, 44
14, 81479, Note_on_c, 11, 60, 0
14, 81479, Note_on_c, 11, 69, 0
14, 81480, Note_on_c, 11, 57, 44
14, 81599, Note_on_c, 11, 57, 0
14, 81600, Note_on_c, 11, 56, 44
14, 81719, Note_on_c, 11, 56, 0
14, 81840, Note_on_c, 11, 69, 44
14, 81840, Note_on_c, 11, 60, 44
14, 81959, Note_on_c, 11, 69, 0
14, 81959, Note_on_c, 11, 60, 0
14, 81960, Note_on_c, 11, 57, 44
14, 82079, Note_on_c, 11, 57, 0
14, 82080, Note_on_c, 11, 59, 44
14, 82080, Note_on_c, 11, 68, 44
14, 82319, Note_on_c, 11, 59, 0
14, 82319, Note_on_c, 11, 68, 0
14, 82320, Note_on_c, 11, 69, 44
14, 82439, Note_on_c, 11, 69, 0
14, 82440, Note_on_c, 11, 71, 44
14, 82559, Note_on_c, 11, 71, 0
14, 82560, Note_on_c, 11, 61, 44
14, 82560, Note_on_c, 11, 64, 44
14, 82799, Note_on_c, 11, 61, 0
14, 82799, Note_on_c, 11, 64, 0
14, 83040, Note_on_c, 11, 64, 44
14, 83040, Note_on_c, 11, 61, 44
14, 83279, Note_on_c, 11, 64, 0
14, 83279, Note_on_c, 11, 61, 0
14, 83280, Note_on_c, 11, 64, 44
14, 83280, Note_on_c, 11, 61, 44
14, 83399, Note_on_c, 11, 64, 0
14, 83399, Note_on_c, 11, 61, 0
14, 83400, Note_on_c, 11, 61, 44
14, 83400, Note_on_c, 11, 64, 44
14, 83519, Note_on_c, 11, 61, 0
14, 83519, Note_on_c, 11, 64, 0
14, 83520, Note_on_c, 11, 65, 44
14, 83520, Note_on_c, 11, 62, 44
14, 83759, Note_on_c, 11, 65, 0
14, 83759, Note_on_c, 11, 62, 0
14, 84000, Note_on_c, 11, 65, 44
14, 84000, Note_on_c, 11, 62, 44
14, 84239, Note_on_c, 11, 65, 0
14, 84239, Note_on_c, 11, 62, 0
14, 84240, Note_on_c, 11, 62, 44
14, 84240, Note_on_c, 11, 65, 44
14, 84359, Note_on_c, 11, 62, 0
14, 84359, Note_on_c, 11, 65, 0
14, 84360, Note_on_c, 11, 65, 44
14, 84360, Note_on_c, 11, 62, 44
14, 84479, Note_on_c, 11, 65, 0
14, 84479, Note_on_c, 11, 62, 0
14, 84480, Note_on_c, 11, 64, 44
14, 84480, Note_on_c, 11, 61, 44
14, 84719, Note_on_c, 11, 64, 0
14, 84719, Note_on_c, 11, 61, 0
14, 84960, Note_on_c, 11, 64, 44
14, 84960, Note_on_c, 11, 61, 44
14, 85079, Note_on_c, 11, 64, 0
14, 85079, Note_on_c, 11, 61, 0
14, 85080, Note_on_c, 11, 61, 45
14, 85080, Note_on_c, 11, 64, 45
14, 85199, Note_on_c, 11, 61, 0
14, 85199, Note_on_c, 11, 64, 0
14, 85200, Note_on_c, 11, 64, 46
14, 85200, Note_on_c, 11, 61, 46
14, 85319, Note_on_c, 11, 64, 0
14, 85319, Note_on_c, 11, 61, 0
14, 85440, Note_on_c, 11, 65, 48
14, 85440, Note_on_c, 11, 62, 48
14, 85559, Note_on_c, 11, 65, 0
14, 85559, Note_on_c, 11, 62, 0
14, 85560, Note_on_c, 11, 62, 49
14, 85560, Note_on_c, 11, 65, 49
14, 85679, Note_on_c, 11, 62, 0
14, 85679, Note_on_c, 11, 65, 0
14, 85680, Note_on_c, 11, 65, 50
14, 85680, Note_on_c, 11, 62, 50
14, 85799, Note_on_c, 11, 65, 0
14, 85799, Note_on_c, 11, 62, 0
14, 85920, Note_on_c, 11, 62, 52
14, 85920, Note_on_c, 11, 65, 52
14, 86039, Note_on_c, 11, 62, 0
14, 86039, Note_on_c, 11, 65, 0
14, 86040, Note_on_c, 11, 65, 53
14, 86040, Note_on_c, 11, 62, 53
14, 86159, Note_on_c, 11, 65, 0
14, 86159, Note_on_c, 11, 62, 0
14, 86160, Note_on_c, 11, 65, 54
14, 86160, Note_on_c, 11, 62, 54
14, 86279, Note_on_c, 11, 65, 0
14, 86279, Note_on_c, 11, 62, 0
14, 86640, Note_on_c, 11, 64, 52
14, 86640, Note_on_c, 11, 61, 52
14, 86759, Note_on_c, 11, 64, 0
14, 86759, Note_on_c, 11, 61, 0
14, 86760, Note_on_c, 11, 61, 50
14, 86760, Note_on_c, 11, 64, 50
14, 86820, Control_c, 11, 11, 127
14, 86820, Program_c, 11, 48
14, 86879, Note_on_c, 11, 61, 0
14, 86879, Note_on_c, 11, 64, 0
14, 87120, Note_on_c, 11, 62, 48
14, 87120, Note_on_c, 11, 65, 48
14, 87227, Note_on_c, 11, 62, 0
14, 87227, Note_on_c, 11, 65, 0
14, 87240, Note_on_c, 11, 74, 46
14, 87347, Note_on_c, 11, 74, 0
14, 87360, Note_on_c, 11, 72, 44
14, 87413, Note_on_c, 11, 72, 0
14, 87420, Note_on_c, 11, 74, 44
14, 87473, Note_on_c, 11, 74, 0
14, 87480, Note_on_c, 11, 76, 44
14, 87533, Note_on_c, 11, 76, 0
14, 87540, Note_on_c, 11, 74, 44
14, 87593, Note_on_c, 11, 74, 0
14, 87600, Note_on_c, 11, 72, 44
14, 87653, Note_on_c, 11, 72, 0
14, 87660, Note_on_c, 11, 74, 44
14, 87713, Note_on_c, 11, 74, 0
14, 87720, Note_on_c, 11, 72, 44
14, 87773, Note_on_c, 11, 72, 0
14, 87780, Note_on_c, 11, 71, 44
14, 87833, Note_on_c, 11, 71, 0
14, 87840, Note_on_c, 11, 69, 44
14, 87893, Note_on_c, 11, 69, 0
14, 87900, Note_on_c, 11, 71, 44
14, 87953, Note_on_c, 11, 71, 0
14, 87960, Note_on_c, 11, 72, 44
14, 88013, Note_on_c, 11, 72, 0
14, 88020, Note_on_c, 11, 74, 44
14, 88073, Note_on_c, 11, 74, 0
14, 88080, Note_on_c, 11, 76, 44
14, 88133, Note_on_c, 11, 76, 0
14, 88140, Note_on_c, 11, 78, 44
14, 88193, Note_on_c, 11, 78, 0
14, 88200, Note_on_c, 11, 80, 44
14, 88253, Note_on_c, 11, 80, 0
14, 88260, Note_on_c, 11, 81, 44
14, 88313, Note_on_c, 11, 81, 0
14, 88320, Note_on_c, 11, 80, 44
14, 88373, Note_on_c, 11, 80, 0
14, 88380, Note_on_c, 11, 76, 44
14, 88433, Note_on_c, 11, 76, 0
14, 88440, Note_on_c, 11, 78, 44
14, 88493, Note_on_c, 11, 78, 0
14, 88500, Note_on_c, 11, 80, 44
14, 88553, Note_on_c, 11, 80, 0
14, 88560, Note_on_c, 11, 81, 44
14, 88613, Note_on_c, 11, 81, 0
14, 88620, Note_on_c, 11, 83, 44
14, 88673, Note_on_c, 11, 83, 0
14, 88680, Note_on_c, 11, 81, 44
14, 88733, Note_on_c, 11, 81, 0
14, 88740, Note_on_c, 11, 79, 44
14, 88793, Note_on_c, 11, 79, 0
14, 88800, Note_on_c, 11, 78, 44
14, 88853, Note_on_c, 11, 78, 0
14, 88860, Note_on_c, 11, 78, 44
14, 88913, Note_on_c, 11, 78, 0
14, 88920, Note_on_c, 11, 79, 44
14, 88973, Note_on_c, 11, 79, 0
14, 88980, Note_on_c, 11, 81, 44
14, 89033, Note_on_c, 11, 81, 0
14, 89040, Note_on_c, 11, 83, 44
14, 89093, Note_on_c, 11, 83, 0
14, 89100, Note_on_c, 11, 71, 44
14, 89153, Note_on_c, 11, 71, 0
14, 89160, Note_on_c, 11, 73, 44
14, 89213, Note_on_c, 11, 73, 0
14, 89220, Note_on_c, 11, 75, 44
14, 89273, Note_on_c, 11, 75, 0
14, 89280, Note_on_c, 11, 76, 44
14, 89507, Note_on_c, 11, 76, 0
14, 89520, Note_on_c, 11, 76, 44
14, 89609, Note_on_c, 11, 76, 0
14, 89640, Note_on_c, 11, 78, 44
14, 89729, Note_on_c, 11, 78, 0
14, 89760, Note_on_c, 11, 79, 44
14, 89969, Note_on_c, 11, 79, 0
14, 90000, Note_on_c, 11, 79, 44
14, 90209, Note_on_c, 11, 79, 0
14, 90240, Note_on_c, 11, 78, 44
14, 90467, Note_on_c, 11, 78, 0
14, 90480, Note_on_c, 11, 78, 44
14, 90569, Note_on_c, 11, 78, 0
14, 90600, Note_on_c, 11, 80, 44
14, 90689, Note_on_c, 11, 80, 0
14, 90720, Note_on_c, 11, 81, 44
14, 90809, Note_on_c, 11, 81, 0
14, 90840, Note_on_c, 11, 77, 44
14, 90929, Note_on_c, 11, 77, 0
14, 90960, Note_on_c, 11, 76, 44
14, 91049, Note_on_c, 11, 76, 0
14, 91080, Note_on_c, 11, 74, 44
14, 91307, Note_on_c, 11, 74, 0
14, 91320, Note_on_c, 11, 72, 44
14, 91547, Note_on_c, 11, 72, 0
14, 91560, Note_on_c, 11, 76, 44
14, 91787, Note_on_c, 11, 76, 0
14, 91800, Note_on_c, 11, 69, 44
14, 92027, Note_on_c, 11, 69, 0
14, 92040, Note_on_c, 11, 76, 44
14, 92267, Note_on_c, 11, 76, 0
14, 92280, Note_on_c, 11, 74, 44
14, 92507, Note_on_c, 11, 74, 0
14, 92520, Note_on_c, 11, 76, 44
14, 92627, Note_on_c, 11, 76, 0
14, 92640, Note_on_c, 11, 78, 44
14, 92729, Note_on_c, 11, 78, 0
14, 92760, Note_on_c, 11, 76, 44
14, 92849, Note_on_c, 11, 76, 0
14, 92880, Note_on_c, 11, 75, 44
14, 92924, Note_on_c, 11, 75, 0
14, 92940, Note_on_c, 11, 75, 44
14, 92984, Note_on_c, 11, 75, 0
14, 93000, Note_on_c, 11, 76, 44
14, 93044, Note_on_c, 11, 76, 0
14, 93060, Note_on_c, 11, 78, 44
14, 93104, Note_on_c, 11, 78, 0
14, 93120, Note_on_c, 11, 79, 44
14, 93359, Note_on_c, 11, 79, 0
14, 95340, Note_on_c, 11, 73, 44
14, 95384, Note_on_c, 11, 73, 0
14, 95400, Note_on_c, 11, 74, 44
14, 95444, Note_on_c, 11, 74, 0
14, 95460, Note_on_c, 11, 76, 44
14, 95504, Note_on_c, 11, 76, 0
14, 95520, Note_on_c, 11, 74, 44
14, 95759, Note_on_c, 11, 74, 0
14, 96300, Note_on_c, 11, 71, 44
14, 96353, Note_on_c, 11, 71, 0
14, 96360, Note_on_c, 11, 72, 44
14, 96413, Note_on_c, 11, 72, 0
14, 96420, Note_on_c, 11, 74, 44
14, 96473, Note_on_c, 11, 74, 0
14, 96480, Note_on_c, 11, 76, 44
14, 96533, Note_on_c, 11, 76, 0
14, 96540, Note_on_c, 11, 77, 44
14, 96593, Note_on_c, 11, 77, 0
14, 96600, Note_on_c, 11, 79, 44
14, 96653, Note_on_c, 11, 79, 0
14, 96660, Note_on_c, 11, 77, 44
14, 96713, Note_on_c, 11, 77, 0
14, 96720, Note_on_c, 11, 76, 44
14, 96773, Note_on_c, 11, 76, 0
14, 96780, Note_on_c, 11, 77, 44
14, 96833, Note_on_c, 11, 77, 0
14, 96840, Note_on_c, 11, 76, 44
14, 96893, Note_on_c, 11, 76, 0
14, 96900, Note_on_c, 11, 74, 44
14, 96953, Note_on_c, 11, 74, 0
14, 96960, Note_on_c, 11, 72, 44
14, 97013, Note_on_c, 11, 72, 0
14, 97020, Note_on_c, 11, 74, 44
14, 97073, Note_on_c, 11, 74, 0
14, 97080, Note_on_c, 11, 76, 44
14, 97133, Note_on_c, 11, 76, 0
14, 97140, Note_on_c, 11, 77, 44
14, 97193, Note_on_c, 11, 77, 0
14, 97200, Note_on_c, 11, 79, 44
14, 97253, Note_on_c, 11, 79, 0
14, 97260, Note_on_c, 11, 81, 44
14, 97313, Note_on_c, 11, 81, 0
14, 97320, Note_on_c, 11, 83, 44
14, 97373, Note_on_c, 11, 83, 0
14, 97380, Note_on_c, 11, 84, 44
14, 97433, Note_on_c, 11, 84, 0
14, 97440, Note_on_c, 11, 78, 44
14, 97667, Note_on_c, 11, 78, 0
14, 97680, Note_on_c, 11, 78, 44
14, 97769, Note_on_c, 11, 78, 0
14, 97800, Note_on_c, 11, 80, 44
14, 97889, Note_on_c, 11, 80, 0
14, 97920, Note_on_c, 11, 81, 44
14, 98147, Note_on_c, 11, 81, 0
14, 98160, Note_on_c, 11, 81, 44
14, 98507, Note_on_c, 11, 81, 0
14, 98520, Note_on_c, 11, 79, 44
14, 98747, Note_on_c, 11, 79, 0
14, 98760, Note_on_c, 11, 79, 44
14, 98987, Note_on_c, 11, 79, 0
14, 99000, Note_on_c, 11, 77, 44
14, 99227, Note_on_c, 11, 77, 0
14, 99240, Note_on_c, 11, 77, 44
14, 99347, Note_on_c, 11, 77, 0
14, 99360, Note_on_c, 11, 79, 44
14, 99413, Note_on_c, 11, 79, 0
14, 99420, Note_on_c, 11, 67, 44
14, 99473, Note_on_c, 11, 67, 0
14, 99480, Note_on_c, 11, 64, 44
14, 99533, Note_on_c, 11, 64, 0
14, 99540, Note_on_c, 11, 62, 44
14, 99593, Note_on_c, 11, 62, 0
14, 99600, Note_on_c, 11, 61, 44
14, 99653, Note_on_c, 11, 61, 0
14, 99660, Note_on_c, 11, 64, 44
14, 99713, Note_on_c, 11, 64, 0
14, 99720, Note_on_c, 11, 69, 44
14, 99773, Note_on_c, 11, 69, 0
14, 99780, Note_on_c, 11, 67, 44
14, 99833, Note_on_c, 11, 67, 0
14, 99840, Note_on_c, 11, 65, 44
14, 99893, Note_on_c, 11, 65, 0
14, 99900, Note_on_c, 11, 67, 44
14, 99953, Note_on_c, 11, 67, 0
14, 99960, Note_on_c, 11, 69, 44
14, 100013, Note_on_c, 11, 69, 0
14, 100020, Note_on_c, 11, 71, 44
14, 100073, Note_on_c, 11, 71, 0
14, 100080, Note_on_c, 11, 73, 44
14, 100133, Note_on_c, 11, 73, 0
14, 100140, Note_on_c, 11, 74, 44
14, 100193, Note_on_c, 11, 74, 0
14, 100200, Note_on_c, 11, 76, 44
14, 100253, Note_on_c, 11, 76, 0
14, 100260, Note_on_c, 11, 77, 44
14, 100313, Note_on_c, 11, 77, 0
14, 100320, Note_on_c, 11, 77, 44
14, 100373, Note_on_c, 11, 77, 0
14, 100380, Note_on_c, 11, 65, 45
14, 100380, Note_on_c, 11, 56, 45
14, 100433, Note_on_c, 11, 65, 0
14, 100433, Note_on_c, 11, 56, 0
14, 100440, Note_on_c, 11, 65, 46
14, 100440, Note_on_c, 11, 56, 46
14, 100493, Note_on_c, 11, 65, 0
14, 100493, Note_on_c, 11, 56, 0
14, 100500, Note_on_c, 11, 56, 47
14, 100500, Note_on_c, 11, 65, 47
14, 100553, Note_on_c, 11, 56, 0
14, 100553, Note_on_c, 11, 65, 0
14, 100560, Note_on_c, 11, 65, 49
14, 100560, Note_on_c, 11, 56, 49
14, 100613, Note_on_c, 11, 65, 0
14, 100613, Note_on_c, 11, 56, 0
14, 100620, Note_on_c, 11, 56, 50
14, 100620, Note_on_c, 11, 65, 50
14, 100673, Note_on_c, 11, 56, 0
14, 100673, Note_on_c, 11, 65, 0
14, 100680, Note_on_c, 11, 65, 51
14, 100680, Note_on_c, 11, 56, 51
14, 100733, Note_on_c, 11, 65, 0
14, 100733, Note_on_c, 11, 56, 0
14, 100740, Note_on_c, 11, 56, 52
14, 100740, Note_on_c, 11, 65, 52
14, 100793, Note_on_c, 11, 56, 0
14, 100793, Note_on_c, 11, 65, 0
14, 100800, Note_on_c, 11, 65, 54
14, 100800, Note_on_c, 11, 56, 54
14, 100853, Note_on_c, 11, 65, 0
14, 100853, Note_on_c, 11, 56, 0
14, 100860, Note_on_c, 11, 56, 55
14, 100860, Note_on_c, 11, 65, 55
14, 100913, Note_on_c, 11, 56, 0
14, 100913, Note_on_c, 11, 65, 0
14, 100920, Note_on_c, 11, 65, 56
14, 100920, Note_on_c, 11, 56, 56
14, 100973, Note_on_c, 11, 65, 0
14, 100973, Note_on_c, 11, 56, 0
14, 100980, Note_on_c, 11, 56, 57
14, 100980, Note_on_c, 11, 65, 57
14, 101033, Note_on_c, 11, 56, 0
14, 101033, Note_on_c, 11, 65, 0
14, 101040, Note_on_c, 11, 56, 59
14, 101040, Note_on_c, 11, 65, 59
14, 101093, Note_on_c, 11, 56, 0
14, 101093, Note_on_c, 11, 65, 0
14, 101100, Note_on_c, 11, 65, 60
14, 101100, Note_on_c, 11, 56, 60
14, 101153, Note_on_c, 11, 65, 0
14, 101153, Note_on_c, 11, 56, 0
14, 101160, Note_on_c, 11, 65, 61
14, 101160, Note_on_c, 11, 56, 61
14, 101213, Note_on_c, 11, 65, 0
14, 101213, Note_on_c, 11, 56, 0
14, 101220, Note_on_c, 11, 65, 62
14, 101220, Note_on_c, 11, 56, 62
14, 101273, Note_on_c, 11, 65, 0
14, 101273, Note_on_c, 11, 56, 0
14, 101280, Note_on_c, 11, 65, 64
14, 101280, Note_on_c, 11, 56, 64
14, 101333, Note_on_c, 11, 65, 0
14, 101333, Note_on_c, 11, 56, 0
14, 101340, Note_on_c, 11, 56, 65
14, 101340, Note_on_c, 11, 65, 65
14, 101393, Note_on_c, 11, 56, 0
14, 101393, Note_on_c, 11, 65, 0
14, 101400, Note_on_c, 11, 56, 66
14, 101400, Note_on_c, 11, 65, 66
14, 101453, Note_on_c, 11, 56, 0
14, 101453, Note_on_c, 11, 65, 0
14, 101460, Note_on_c, 11, 56, 67
14, 101460, Note_on_c, 11, 65, 67
14, 101513, Note_on_c, 11, 56, 0
14, 101513, Note_on_c, 11, 65, 0
14, 101520, Note_on_c, 11, 65, 69
14, 101520, Note_on_c, 11, 56, 69
14, 101573, Note_on_c, 11, 65, 0
14, 101573, Note_on_c, 11, 56, 0
14, 101580, Note_on_c, 11, 56, 70
14, 101580, Note_on_c, 11, 65, 70
14, 101633, Note_on_c, 11, 56, 0
14, 101633, Note_on_c, 11, 65, 0
14, 101640, Note_on_c, 11, 65, 71
14, 101640, Note_on_c, 11, 56, 71
14, 101693, Note_on_c, 11, 65, 0
14, 101693, Note_on_c, 11, 56, 0
14, 101700, Note_on_c, 11, 65, 72
14, 101700, Note_on_c, 11, 56, 72
14, 101753, Note_on_c, 11, 65, 0
14, 101753, Note_on_c, 11, 56, 0
14, 101760, Note_on_c, 11, 65, 74
14, 101760, Note_on_c, 11, 56, 74
14, 101813, Note_on_c, 11, 65, 0
14, 101813, Note_on_c, 11, 56, 0
14, 101820, Note_on_c, 11, 71, 75
14, 101873, Note_on_c, 11, 71, 0
14, 101880, Note_on_c, 11, 71, 76
14, 101933, Note_on_c, 11, 71, 0
14, 101940, Note_on_c, 11, 71, 77
14, 101993, Note_on_c, 11, 71, 0
14, 102000, Note_on_c, 11, 71, 79
14, 102053, Note_on_c, 11, 71, 0
14, 102060, Note_on_c, 11, 71, 80
14, 102113, Note_on_c, 11, 71, 0
14, 102120, Note_on_c, 11, 76, 81
14, 102173, Note_on_c, 11, 76, 0
14, 102180, Note_on_c, 11, 74, 82
14, 102233, Note_on_c, 11, 74, 0
14, 102240, Note_on_c, 11, 72, 84
14, 102240, Note_on_c, 11, 64, 84
14, 102467, Note_on_c, 11, 72, 0
14, 102467, Note_on_c, 11, 64, 0
14, 102480, Note_on_c, 11, 64, 84
14, 102480, Note_on_c, 11, 72, 84
14, 102569, Note_on_c, 11, 64, 0
14, 102569, Note_on_c, 11, 72, 0
14, 102600, Note_on_c, 11, 72, 84
14, 102600, Note_on_c, 11, 64, 84
14, 102689, Note_on_c, 11, 72, 0
14, 102689, Note_on_c, 11, 64, 0
14, 102720, Note_on_c, 11, 64, 84
14, 102720, Note_on_c, 11, 71, 84
14, 102929, Note_on_c, 11, 64, 0
14, 102929, Note_on_c, 11, 71, 0
14, 102960, Note_on_c, 11, 64, 84
14, 102960, Note_on_c, 11, 71, 84
14, 103169, Note_on_c, 11, 64, 0
14, 103169, Note_on_c, 11, 71, 0
14, 103200, Note_on_c, 11, 80, 84
14, 103200, Note_on_c, 11, 71, 84
14, 103427, Note_on_c, 11, 80, 0
14, 103427, Note_on_c, 11, 71, 0
14, 103440, Note_on_c, 11, 80, 84
14, 103440, Note_on_c, 11, 71, 84
14, 103529, Note_on_c, 11, 80, 0
14, 103529, Note_on_c, 11, 71, 0
14, 103560, Note_on_c, 11, 80, 84
14, 103560, Note_on_c, 11, 71, 84
14, 103649, Note_on_c, 11, 80, 0
14, 103649, Note_on_c, 11, 71, 0
14, 103680, Note_on_c, 11, 81, 84
14, 103680, Note_on_c, 11, 72, 84
14, 103889, Note_on_c, 11, 81, 0
14, 103889, Note_on_c, 11, 72, 0
14, 103920, Note_on_c, 11, 72, 84
14, 103920, Note_on_c, 11, 81, 84
14, 104129, Note_on_c, 11, 72, 0
14, 104129, Note_on_c, 11, 81, 0
14, 104160, Note_on_c, 11, 72, 84
14, 104160, Note_on_c, 11, 81, 84
14, 104387, Note_on_c, 11, 72, 0
14, 104387, Note_on_c, 11, 81, 0
14, 104400, Note_on_c, 11, 81, 84
14, 104400, Note_on_c, 11, 72, 84
14, 104489, Note_on_c, 11, 81, 0
14, 104489, Note_on_c, 11, 72, 0
14, 104520, Note_on_c, 11, 81, 84
14, 104520, Note_on_c, 11, 72, 84
14, 104609, Note_on_c, 11, 81, 0
14, 104609, Note_on_c, 11, 72, 0
14, 104640, Note_on_c, 11, 83, 84
14, 104640, Note_on_c, 11, 74, 84
14, 104849, Note_on_c, 11, 83, 0
14, 104849, Note_on_c, 11, 74, 0
14, 104880, Note_on_c, 11, 72, 84
14, 104880, Note_on_c, 11, 81, 84
14, 105089, Note_on_c, 11, 72, 0
14, 105089, Note_on_c, 11, 81, 0
14, 105120, Note_on_c, 11, 71, 84
14, 105120, Note_on_c, 11, 80, 84
14, 105347, Note_on_c, 11, 71, 0
14, 105347, Note_on_c, 11, 80, 0
14, 105360, Note_on_c, 11, 69, 84
14, 105360, Note_on_c, 11, 78, 84
14, 105449, Note_on_c, 11, 69, 0
14, 105449, Note_on_c, 11, 78, 0
14, 105480, Note_on_c, 11, 71, 84
14, 105480, Note_on_c, 11, 80, 84
14, 105569, Note_on_c, 11, 71, 0
14, 105569, Note_on_c, 11, 80, 0
14, 105600, Note_on_c, 11, 81, 84
14, 105600, Note_on_c, 11, 72, 84
14, 105839, Note_on_c, 11, 81, 0
14, 105839, Note_on_c, 11, 72, 0
14, 107040, Note_on_c, 11, 62, 52
14, 107093, Note_on_c, 11, 62, 0
14, 107100, Note_on_c, 11, 59, 52
14, 107153, Note_on_c, 11, 59, 0
14, 107160, Note_on_c, 11, 61, 52
14, 107213, Note_on_c, 11, 61, 0
14, 107220, Note_on_c, 11, 62, 52
14, 107273, Note_on_c, 11, 62, 0
14, 107280, Note_on_c, 11, 64, 52
14, 107333, Note_on_c, 11, 64, 0
14, 107340, Note_on_c, 11, 62, 52
14, 107393, Note_on_c, 11, 62, 0
14, 107400, Note_on_c, 11, 61, 52
14, 107453, Note_on_c, 11, 61, 0
14, 107460, Note_on_c, 11, 59, 52
14, 107513, Note_on_c, 11, 59, 0
14, 107520, Note_on_c, 11, 57, 52
14, 107999, Note_on_c, 11, 57, 0
14, 108000, Note_on_c, 11, 57, 52
14, 108467, Note_on_c, 11, 57, 0
14, 108478, Control_c, 11, 11, 96
14, 108480, Control_c, 11, 11, 96
14, 108480, Note_on_c, 11, 59, 68
14, 108534, Control_c, 11, 11, 97
14, 108588, Control_c, 11, 11, 98
14, 108643, Control_c, 11, 11, 99
14, 108697, Control_c, 11, 11, 100
14, 108751, Control_c, 11, 11, 101
14, 108805, Control_c, 11, 11, 102
14, 108859, Control_c, 11, 11, 103
14, 108914, Control_c, 11, 11, 104
14, 108959, Note_on_c, 11, 59, 0
14, 108960, Note_on_c, 11, 59, 68
14, 108968, Control_c, 11, 11, 105
14, 109022, Control_c, 11, 11, 106
14, 109076, Control_c, 11, 11, 107
14, 109130, Control_c, 11, 11, 108
14, 109185, Control_c, 11, 11, 109
14, 109199, Note_on_c, 11, 59, 0
14, 109200, Note_on_c, 11, 57, 68
14, 109239, Control_c, 11, 11, 110
14, 109293, Control_c, 11, 11, 111
14, 109347, Control_c, 11, 11, 112
14, 109401, Control_c, 11, 11, 113
14, 109439, Note_on_c, 11, 57, 0
14, 109440, Note_on_c, 11, 56, 68
14, 109455, Control_c, 11, 11, 114
14, 109510, Control_c, 11, 11, 115
14, 109564, Control_c, 11, 11, 116
14, 109618, Control_c, 11, 11, 117
14, 109672, Control_c, 11, 11, 118
14, 109679, Note_on_c, 11, 56, 0
14, 109680, Note_on_c, 11, 57, 68
14, 109726, Control_c, 11, 11, 119
14, 109781, Control_c, 11, 11, 120
14, 109835, Control_c, 11, 11, 121
14, 109889, Control_c, 11, 11, 122
14, 109907, Note_on_c, 11, 57, 0
14, 109920, Note_on_c, 11, 57, 68
14, 109943, Control_c, 11, 11, 123
14, 109997, Control_c, 11, 11, 124
14, 110052, Control_c, 11, 11, 125
14, 110106, Control_c, 11, 11, 127
14, 110159, Note_on_c, 11, 57, 0
14, 110160, Note_on_c, 11, 55, 68
14, 110160, Control_c, 11, 11, 127
14, 110199, Control_c, 11, 11, 126
14, 110237, Control_c, 11, 11, 125
14, 110276, Control_c, 11, 11, 124
14, 110315, Control_c, 11, 11, 123
14, 110354, Control_c, 11, 11, 122
14, 110392, Control_c, 11, 11, 121
14, 110399, Note_on_c, 11, 55, 0
14, 110400, Note_on_c, 11, 57, 68
14, 110431, Control_c, 11, 11, 120
14, 110470, Control_c, 11, 11, 119
14, 110508, Control_c, 11, 11, 118
14, 110547, Control_c, 11, 11, 117
14, 110586, Control_c, 11, 11, 116
14, 110625, Control_c, 11, 11, 115
14, 110639, Note_on_c, 11, 57, 0
14, 110640, Note_on_c, 11, 59, 68
14, 110663, Control_c, 11, 11, 114
14, 110702, Control_c, 11, 11, 113
14, 110741, Control_c, 11, 11, 112
14, 110779, Control_c, 11, 11, 111
14, 110818, Control_c, 11, 11, 110
14, 110857, Control_c, 11, 11, 109
14, 110867, Note_on_c, 11, 59, 0
14, 110880, Note_on_c, 11, 59, 68
14, 110895, Control_c, 11, 11, 108
14, 110934, Control_c, 11, 11, 107
14, 110973, Control_c, 11, 11, 106
14, 111012, Control_c, 11, 11, 105
14, 111050, Control_c, 11, 11, 104
14, 111089, Control_c, 11, 11, 103
14, 111119, Note_on_c, 11, 59, 0
14, 111120, Note_on_c, 11, 57, 68
14, 111128, Control_c, 11, 11, 102
14, 111166, Control_c, 11, 11, 101
14, 111205, Control_c, 11, 11, 100
14, 111239, Note_on_c, 11, 57, 0
14, 111240, Note_on_c, 11, 55, 68
14, 111240, Note_on_c, 11, 67, 68
14, 111244, Control_c, 11, 11, 99
14, 111283, Control_c, 11, 11, 98
14, 111321, Control_c, 11, 11, 96
14, 111347, Note_on_c, 11, 55, 0
14, 111347, Note_on_c, 11, 67, 0
14, 111360, Note_on_c, 11, 67, 68
14, 111360, Note_on_c, 11, 55, 68
14, 111587, Note_on_c, 11, 67, 0
14, 111587, Note_on_c, 11, 55, 0
14, 111600, Note_on_c, 11, 67, 68
14, 111600, Note_on_c, 11, 55, 68
14, 111600, Control_c, 11, 11, 96
14, 111654, Control_c, 11, 11, 97
14, 111708, Control_c, 11, 11, 98
14, 111763, Control_c, 11, 11, 99
14, 111817, Control_c, 11, 11, 100
14, 111871, Control_c, 11, 11, 101
14, 111925, Control_c, 11, 11, 102
14, 111979, Control_c, 11, 11, 103
14, 112034, Control_c, 11, 11, 104
14, 112088, Control_c, 11, 11, 105
14, 112142, Control_c, 11, 11, 106
14, 112196, Control_c, 11, 11, 107
14, 112250, Control_c, 11, 11, 108
14, 112305, Control_c, 11, 11, 109
14, 112359, Control_c, 11, 11, 110
14, 112413, Control_c, 11, 11, 111
14, 112427, Note_on_c, 11, 67, 0
14, 112427, Note_on_c, 11, 55, 0
14, 112440, Note_on_c, 11, 57, 68
14, 112440, Note_on_c, 11, 67, 68
14, 112467, Control_c, 11, 11, 112
14, 112521, Control_c, 11, 11, 113
14, 112547, Note_on_c, 11, 57, 0
14, 112547, Note_on_c, 11, 67, 0
14, 112560, Note_on_c, 11, 66, 68
14, 112560, Note_on_c, 11, 57, 68
14, 112575, Control_c, 11, 11, 114
14, 112630, Control_c, 11, 11, 115
14, 112684, Control_c, 11, 11, 116
14, 112738, Control_c, 11, 11, 117
14, 112792, Control_c, 11, 11, 118
14, 112846, Control_c, 11, 11, 119
14, 112901, Control_c, 11, 11, 120
14, 112955, Control_c, 11, 11, 121
14, 113009, Control_c, 11, 11, 122
14, 113027, Note_on_c, 11, 66, 0
14, 113027, Note_on_c, 11, 57, 0
14, 113040, Note_on_c, 11, 57, 68
14, 113063, Control_c, 11, 11, 123
14, 113117, Control_c, 11, 11, 124
14, 113172, Control_c, 11, 11, 125
14, 113226, Control_c, 11, 11, 127
14, 113267, Note_on_c, 11, 57, 0
14, 113280, Note_on_c, 11, 57, 68
14, 113280, Control_c, 11, 11, 127
14, 113326, Control_c, 11, 11, 126
14, 113373, Control_c, 11, 11, 125
14, 113419, Control_c, 11, 11, 124
14, 113466, Control_c, 11, 11, 123
14, 113512, Control_c, 11, 11, 122
14, 113519, Note_on_c, 11, 57, 0
14, 113520, Note_on_c, 11, 55, 68
14, 113559, Control_c, 11, 11, 121
14, 113605, Control_c, 11, 11, 120
14, 113652, Control_c, 11, 11, 119
14, 113698, Control_c, 11, 11, 118
14, 113745, Control_c, 11, 11, 117
14, 113759, Note_on_c, 11, 55, 0
14, 113760, Note_on_c, 11, 57, 68
14, 113791, Control_c, 11, 11, 116
14, 113837, Control_c, 11, 11, 115
14, 113884, Control_c, 11, 11, 114
14, 113930, Control_c, 11, 11, 113
14, 113977, Control_c, 11, 11, 112
14, 113999, Note_on_c, 11, 57, 0
14, 114000, Note_on_c, 11, 59, 68
14, 114023, Control_c, 11, 11, 111
14, 114070, Control_c, 11, 11, 110
14, 114116, Control_c, 11, 11, 109
14, 114163, Control_c, 11, 11, 108
14, 114209, Control_c, 11, 11, 107
14, 114227, Note_on_c, 11, 59, 0
14, 114240, Note_on_c, 11, 57, 68
14, 114255, Control_c, 11, 11, 106
14, 114302, Control_c, 11, 11, 105
14, 114348, Control_c, 11, 11, 104
14, 114395, Control_c, 11, 11, 103
14, 114441, Control_c, 11, 11, 102
14, 114488, Control_c, 11, 11, 101
14, 114534, Control_c, 11, 11, 100
14, 114581, Control_c, 11, 11, 99
14, 114599, Note_on_c, 11, 57, 0
14, 114600, Note_on_c, 11, 55, 68
14, 114627, Control_c, 11, 11, 98
14, 114674, Control_c, 11, 11, 96
14, 114719, Note_on_c, 11, 55, 0
14, 114720, Note_on_c, 11, 57, 68
14, 114720, Control_c, 11, 11, 96
14, 114810, Control_c, 11, 11, 95
14, 114900, Control_c, 11, 11, 94
14, 114959, Note_on_c, 11, 57, 0
14, 114960, Note_on_c, 11, 59, 68
14, 114990, Control_c, 11, 11, 93
14, 115080, Control_c, 11, 11, 92
14, 115170, Control_c, 11, 11, 91
14, 115187, Note_on_c, 11, 59, 0
14, 115200, Note_on_c, 11, 57, 68
14, 115260, Control_c, 11, 11, 90
14, 115350, Control_c, 11, 11, 89
14, 115440, Control_c, 11, 11, 88
14, 115530, Control_c, 11, 11, 87
14, 115559, Note_on_c, 11, 57, 0
14, 115560, Note_on_c, 11, 55, 68
14, 115620, Control_c, 11, 11, 86
14, 115679, Note_on_c, 11, 55, 0
14, 115680, Note_on_c, 11, 57, 68
14, 115710, Control_c, 11, 11, 85
14, 115800, Control_c, 11, 11, 84
14, 115890, Control_c, 11, 11, 83
14, 115919, Note_on_c, 11, 57, 0
14, 115920, Note_on_c, 11, 59, 68
14, 115980, Control_c, 11, 11, 82
14, 116070, Control_c, 11, 11, 80
14, 116147, Note_on_c, 11, 59, 0
14, 116160, Note_on_c, 11, 61, 68
14, 116639, Note_on_c, 11, 61, 0
14, 116640, Note_on_c, 11, 62, 68
14, 117119, Note_on_c, 11, 62, 0
14, 117120, Note_on_c, 11, 61, 68
14, 117599, Note_on_c, 11, 61, 0
14, 117600, Note_on_c, 11, 62, 68
14, 118067, Note_on_c, 11, 62, 0
14, 118078, Control_c, 11, 11, 127
14, 118080, Note_on_c, 11, 62, 84
14, 118199, Note_on_c, 11, 62, 0
14, 118320, Note_on_c, 11, 71, 84
14, 118320, Note_on_c, 11, 62, 84
14, 118320, Note_on_c, 11, 79, 84
14, 118439, Note_on_c, 11, 71, 0
14, 118439, Note_on_c, 11, 62, 0
14, 118439, Note_on_c, 11, 79, 0
14, 118560, Note_on_c, 11, 72, 84
14, 118560, Note_on_c, 11, 64, 84
14, 118560, Note_on_c, 11, 76, 84
14, 118799, Note_on_c, 11, 72, 0
14, 118799, Note_on_c, 11, 64, 0
14, 118799, Note_on_c, 11, 76, 0
14, 119040, Note_on_c, 11, 62, 52
14, 119273, Note_on_c, 11, 62, 0
14, 119280, Note_on_c, 11, 62, 52
14, 119369, Note_on_c, 11, 62, 0
14, 119400, Note_on_c, 11, 62, 52
14, 119489, Note_on_c, 11, 62, 0
14, 119520, Note_on_c, 11, 60, 52
14, 119639, Note_on_c, 11, 60, 0
14, 120000, Note_on_c, 11, 62, 84
14, 120000, Note_on_c, 11, 71, 84
14, 120119, Note_on_c, 11, 62, 0
14, 120119, Note_on_c, 11, 71, 0
14, 120240, Note_on_c, 11, 79, 84
14, 120240, Note_on_c, 11, 71, 84
14, 120240, Note_on_c, 11, 62, 84
14, 120359, Note_on_c, 11, 79, 0
14, 120359, Note_on_c, 11, 71, 0
14, 120359, Note_on_c, 11, 62, 0
14, 120480, Note_on_c, 11, 76, 84
14, 120480, Note_on_c, 11, 64, 84
14, 120480, Note_on_c, 11, 72, 84
14, 120719, Note_on_c, 11, 76, 0
14, 120719, Note_on_c, 11, 64, 0
14, 120719, Note_on_c, 11, 72, 0
14, 120960, Note_on_c, 11, 62, 52
14, 121193, Note_on_c, 11, 62, 0
14, 121200, Note_on_c, 11, 62, 52
14, 121289, Note_on_c, 11, 62, 0
14, 121320, Note_on_c, 11, 62, 52
14, 121409, Note_on_c, 11, 62, 0
14, 121920, Program_c, 11, 45
14, 122160, Note_on_c, 11, 57, 44
14, 122399, Note_on_c, 11, 57, 0
14, 122640, Note_on_c, 11, 64, 44
14, 122879, Note_on_c, 11, 64, 0
14, 123120, Note_on_c, 11, 64, 44
14, 123359, Note_on_c, 11, 64, 0
14, 123600, Note_on_c, 11, 57, 44
14, 123839, Note_on_c, 11, 57, 0
14, 124080, Note_on_c, 11, 60, 44
14, 124319, Note_on_c, 11, 60, 0
14, 124560, Note_on_c, 11, 60, 44
14, 124799, Note_on_c, 11, 60, 0
14, 124800, Note_on_c, 11, 59, 44
14, 125039, Note_on_c, 11, 59, 0
14, 125040, Note_on_c, 11, 57, 44
14, 125159, Note_on_c, 11, 57, 0
14, 125160, Note_on_c, 11, 59, 44
14, 125279, Note_on_c, 11, 59, 0
14, 125280, Note_on_c, 11, 60, 44
14, 125519, Note_on_c, 11, 60, 0
14, 126000, Note_on_c, 11, 60, 44
14, 126239, Note_on_c, 11, 60, 0
14, 126480, Note_on_c, 11, 59, 44
14, 126719, Note_on_c, 11, 59, 0
14, 126960, Note_on_c, 11, 64, 44
14, 127199, Note_on_c, 11, 64, 0
14, 127440, Note_on_c, 11, 57, 44
14, 127679, Note_on_c, 11, 57, 0
14, 127920, Note_on_c, 11, 57, 44
14, 128159, Note_on_c, 11, 57, 0
14, 128160, Note_on_c, 11, 59, 44
14, 128399, Note_on_c, 11, 59, 0
14, 128400, Note_on_c, 11, 57, 44
14, 128639, Note_on_c, 11, 57, 0
14, 128640, Note_on_c, 11, 59, 44
14, 128879, Note_on_c, 11, 59, 0
14, 128880, Note_on_c, 11, 59, 44
14, 128999, Note_on_c, 11, 59, 0
14, 129000, Note_on_c, 11, 59, 44
14, 129119, Note_on_c, 11, 59, 0
14, 129120, Note_on_c, 11, 57, 44
14, 129359, Note_on_c, 11, 57, 0
14, 130560, Note_on_c, 11, 59, 44
14, 130799, Note_on_c, 11, 59, 0
14, 130800, Note_on_c, 11, 59, 44
14, 130919, Note_on_c, 11, 59, 0
14, 130920, Note_on_c, 11, 59, 44
14, 131039, Note_on_c, 11, 59, 0
14, 131040, Note_on_c, 11, 57, 44
14, 131279, Note_on_c, 11, 57, 0
14, 131518, Program_c, 11, 48
14, 131520, Note_on_c, 11, 64, 52
14, 131747, Note_on_c, 11, 64, 0
14, 131760, Note_on_c, 11, 66, 52
14, 131849, Note_on_c, 11, 66, 0
14, 131880, Note_on_c, 11, 68, 52
14, 131969, Note_on_c, 11, 68, 0
14, 132000, Note_on_c, 11, 69, 76
14, 132000, Note_on_c, 11, 57, 76
14, 132239, Note_on_c, 11, 69, 0
14, 132239, Note_on_c, 11, 57, 0
14, 132239, End_track
15, 0, Start_track
15, 0, Title_t, "Viola "
15, 0, MIDI_port, 0
15, 0, Program_c, 12, 48
15, 0, Control_c, 12, 11, 127
15, 0, Control_c, 12, 10, 70
15, 0, Control_c, 12, 7, 96
15, 960, Note_on_c, 12, 52, 52
15, 1191, Note_on_c, 12, 52, 0
15, 1200, Note_on_c, 12, 52, 52
15, 1289, Note_on_c, 12, 52, 0
15, 1320, Note_on_c, 12, 52, 52
15, 1409, Note_on_c, 12, 52, 0
15, 1440, Note_on_c, 12, 52, 52
15, 1649, Note_on_c, 12, 52, 0
15, 1680, Note_on_c, 12, 52, 52
15, 1889, Note_on_c, 12, 52, 0
15, 1920, Note_on_c, 12, 52, 52
15, 2151, Note_on_c, 12, 52, 0
15, 2160, Note_on_c, 12, 52, 52
15, 2249, Note_on_c, 12, 52, 0
15, 2280, Note_on_c, 12, 52, 52
15, 2369, Note_on_c, 12, 52, 0
15, 2400, Note_on_c, 12, 52, 52
15, 2609, Note_on_c, 12, 52, 0
15, 2640, Note_on_c, 12, 52, 52
15, 2849, Note_on_c, 12, 52, 0
15, 2880, Note_on_c, 12, 52, 52
15, 3111, Note_on_c, 12, 52, 0
15, 3120, Note_on_c, 12, 52, 52
15, 3209, Note_on_c, 12, 52, 0
15, 3240, Note_on_c, 12, 50, 52
15, 3240, Note_on_c, 12, 54, 52
15, 3329, Note_on_c, 12, 50, 0
15, 3329, Note_on_c, 12, 54, 0
15, 3360, Note_on_c, 12, 55, 52
15, 3360, Note_on_c, 12, 52, 52
15, 3569, Note_on_c, 12, 55, 0
15, 3569, Note_on_c, 12, 52, 0
15, 3600, Note_on_c, 12, 55, 52
15, 3600, Note_on_c, 12, 52, 52
15, 3809, Note_on_c, 12, 55, 0
15, 3809, Note_on_c, 12, 52, 0
15, 3840, Note_on_c, 12, 55, 52
15, 3840, Note_on_c, 12, 50, 52
15, 4071, Note_on_c, 12, 55, 0
15, 4071, Note_on_c, 12, 50, 0
15, 4080, Note_on_c, 12, 55, 52
15, 4080, Note_on_c, 12, 48, 52
15, 4169, Note_on_c, 12, 55, 0
15, 4169, Note_on_c, 12, 48, 0
15, 4200, Note_on_c, 12, 55, 52
15, 4200, Note_on_c, 12, 50, 52
15, 4289, Note_on_c, 12, 55, 0
15, 4289, Note_on_c, 12, 50, 0
15, 4320, Note_on_c, 12, 52, 52
15, 4320, Note_on_c, 12, 55, 52
15, 4559, Note_on_c, 12, 52, 0
15, 4559, Note_on_c, 12, 55, 0
15, 4800, Note_on_c, 12, 55, 52
15, 5031, Note_on_c, 12, 55, 0
15, 5040, Note_on_c, 12, 55, 52
15, 5129, Note_on_c, 12, 55, 0
15, 5160, Note_on_c, 12, 57, 52
15, 5249, Note_on_c, 12, 57, 0
15, 5280, Note_on_c, 12, 59, 52
15, 5489, Note_on_c, 12, 59, 0
15, 5520, Note_on_c, 12, 59, 52
15, 5729, Note_on_c, 12, 59, 0
15, 5760, Note_on_c, 12, 54, 52
15, 5991, Note_on_c, 12, 54, 0
15, 6000, Note_on_c, 12, 54, 52
15, 6089, Note_on_c, 12, 54, 0
15, 6120, Note_on_c, 12, 56, 52
15, 6209, Note_on_c, 12, 56, 0
15, 6240, Note_on_c, 12, 57, 52
15, 6449, Note_on_c, 12, 57, 0
15, 6480, Note_on_c, 12, 57, 52
15, 6689, Note_on_c, 12, 57, 0
15, 6720, Note_on_c, 12, 52, 52
15, 6951, Note_on_c, 12, 52, 0
15, 6960, Note_on_c, 12, 52, 52
15, 7049, Note_on_c, 12, 52, 0
15, 7080, Note_on_c, 12, 52, 52
15, 7169, Note_on_c, 12, 52, 0
15, 7200, Note_on_c, 12, 52, 52
15, 7409, Note_on_c, 12, 52, 0
15, 7440, Note_on_c, 12, 52, 52
15, 7649, Note_on_c, 12, 52, 0
15, 7680, Note_on_c, 12, 52, 52
15, 7911, Note_on_c, 12, 52, 0
15, 7920, Note_on_c, 12, 54, 52
15, 7920, Note_on_c, 12, 52, 52
15, 8009, Note_on_c, 12, 54, 0
15, 8009, Note_on_c, 12, 52, 0
15, 8040, Note_on_c, 12, 52, 52
15, 8040, Note_on_c, 12, 56, 52
15, 8129, Note_on_c, 12, 52, 0
15, 8129, Note_on_c, 12, 56, 0
15, 8160, Note_on_c, 12, 52, 52
15, 8160, Note_on_c, 12, 57, 52
15, 8399, Note_on_c, 12, 52, 0
15, 8399, Note_on_c, 12, 57, 0
15, 8640, Note_on_c, 12, 55, 44
15, 8871, Note_on_c, 12, 55, 0
15, 8880, Note_on_c, 12, 55, 44
15, 8969, Note_on_c, 12, 55, 0
15, 9000, Note_on_c, 12, 57, 44
15, 9089, Note_on_c, 12, 57, 0
15, 9120, Note_on_c, 12, 59, 44
15, 9329, Note_on_c, 12, 59, 0
15, 9360, Note_on_c, 12, 59, 44
15, 9569, Note_on_c, 12, 59, 0
15, 9600, Note_on_c, 12, 54, 44
15, 9831, Note_on_c, 12, 54, 0
15, 9840, Note_on_c, 12, 54, 44
15, 9929, Note_on_c, 12, 54, 0
15, 9960, Note_on_c, 12, 56, 44
15, 10049, Note_on_c, 12, 56, 0
15, 10080, Note_on_c, 12, 57, 44
15, 10289, Note_on_c, 12, 57, 0
15, 10320, Note_on_c, 12, 57, 44
15, 10529, Note_on_c, 12, 57, 0
15, 10560, Note_on_c, 12, 52, 44
15, 10791, Note_on_c, 12, 52, 0
15, 10800, Note_on_c, 12, 52, 44
15, 10889, Note_on_c, 12, 52, 0
15, 10920, Note_on_c, 12, 52, 44
15, 11009, Note_on_c, 12, 52, 0
15, 11040, Note_on_c, 12, 52, 44
15, 11249, Note_on_c, 12, 52, 0
15, 11280, Note_on_c, 12, 52, 44
15, 11489, Note_on_c, 12, 52, 0
15, 11520, Note_on_c, 12, 52, 44
15, 11751, Note_on_c, 12, 52, 0
15, 11760, Note_on_c, 12, 52, 44
15, 11760, Note_on_c, 12, 54, 44
15, 11849, Note_on_c, 12, 52, 0
15, 11849, Note_on_c, 12, 54, 0
15, 11880, Note_on_c, 12, 52, 44
15, 11880, Note_on_c, 12, 56, 44
15, 11969, Note_on_c, 12, 52, 0
15, 11969, Note_on_c, 12, 56, 0
15, 12000, Note_on_c, 12, 57, 44
15, 12000, Note_on_c, 12, 52, 44
15, 12239, Note_on_c, 12, 57, 0
15, 12239, Note_on_c, 12, 52, 0
15, 12480, Note_on_c, 12, 60, 52
15, 12959, Note_on_c, 12, 60, 0
15, 12960, Note_on_c, 12, 59, 52
15, 13367, Note_on_c, 12, 59, 0
15, 13380, Note_on_c, 12, 59, 52
15, 13409, Note_on_c, 12, 59, 0
15, 13410, Note_on_c, 12, 60, 52
15, 13439, Note_on_c, 12, 60, 0
15, 13440, Note_on_c, 12, 62, 52
15, 13799, Note_on_c, 12, 62, 0
15, 13800, Note_on_c, 12, 60, 52
15, 13859, Note_on_c, 12, 60, 0
15, 13860, Note_on_c, 12, 59, 52
15, 13913, Note_on_c, 12, 59, 0
15, 13920, Note_on_c, 12, 59, 52
15, 14039, Note_on_c, 12, 59, 0
15, 14040, Note_on_c, 12, 60, 52
15, 14147, Note_on_c, 12, 60, 0
15, 14160, Note_on_c, 12, 60, 52
15, 14387, Note_on_c, 12, 60, 0
15, 14400, Note_on_c, 12, 60, 52
15, 14747, Note_on_c, 12, 60, 0
15, 14760, Note_on_c, 12, 60, 52
15, 14819, Note_on_c, 12, 60, 0
15, 14820, Note_on_c, 12, 62, 52
15, 14873, Note_on_c, 12, 62, 0
15, 14880, Note_on_c, 12, 63, 52
15, 14999, Note_on_c, 12, 63, 0
15, 15000, Note_on_c, 12, 64, 52
15, 15107, Note_on_c, 12, 64, 0
15, 15120, Note_on_c, 12, 64, 52
15, 15209, Note_on_c, 12, 64, 0
15, 15240, Note_on_c, 12, 64, 52
15, 15299, Note_on_c, 12, 64, 0
15, 15300, Note_on_c, 12, 62, 52
15, 15329, Note_on_c, 12, 62, 0
15, 15330, Note_on_c, 12, 64, 52
15, 15359, Note_on_c, 12, 64, 0
15, 15360, Note_on_c, 12, 65, 52
15, 15719, Note_on_c, 12, 65, 0
15, 15720, Note_on_c, 12, 64, 52
15, 15779, Note_on_c, 12, 64, 0
15, 15780, Note_on_c, 12, 62, 52
15, 15833, Note_on_c, 12, 62, 0
15, 15840, Note_on_c, 12, 62, 52
15, 15959, Note_on_c, 12, 62, 0
15, 15960, Note_on_c, 12, 64, 52
15, 16067, Note_on_c, 12, 64, 0
15, 16080, Note_on_c, 12, 64, 52
15, 16307, Note_on_c, 12, 64, 0
15, 16320, Note_on_c, 12, 64, 52
15, 16799, Note_on_c, 12, 64, 0
15, 16800, Note_on_c, 12, 63, 52
15, 17267, Note_on_c, 12, 63, 0
15, 17280, Note_on_c, 12, 62, 52
15, 17399, Note_on_c, 12, 62, 0
15, 17400, Note_on_c, 12, 59, 52
15, 17459, Note_on_c, 12, 59, 0
15, 17460, Note_on_c, 12, 61, 52
15, 17519, Note_on_c, 12, 61, 0
15, 17520, Note_on_c, 12, 62, 52
15, 17639, Note_on_c, 12, 62, 0
15, 17640, Note_on_c, 12, 64, 52
15, 17699, Note_on_c, 12, 64, 0
15, 17700, Note_on_c, 12, 62, 52
15, 17753, Note_on_c, 12, 62, 0
15, 17760, Note_on_c, 12, 62, 52
15, 17879, Note_on_c, 12, 62, 0
15, 17880, Note_on_c, 12, 61, 52
15, 17987, Note_on_c, 12, 61, 0
15, 18000, Note_on_c, 12, 60, 52
15, 18227, Note_on_c, 12, 60, 0
15, 18240, Note_on_c, 12, 60, 52
15, 18719, Note_on_c, 12, 60, 0
15, 18720, Note_on_c, 12, 59, 52
15, 18959, Note_on_c, 12, 59, 0
15, 18960, Note_on_c, 12, 60, 52
15, 19127, Note_on_c, 12, 60, 0
15, 19140, Note_on_c, 12, 59, 52
15, 19169, Note_on_c, 12, 59, 0
15, 19170, Note_on_c, 12, 60, 52
15, 19199, Note_on_c, 12, 60, 0
15, 19200, Note_on_c, 12, 62, 52
15, 19559, Note_on_c, 12, 62, 0
15, 19560, Note_on_c, 12, 60, 52
15, 19619, Note_on_c, 12, 60, 0
15, 19620, Note_on_c, 12, 59, 52
15, 19673, Note_on_c, 12, 59, 0
15, 19680, Note_on_c, 12, 57, 52
15, 19769, Note_on_c, 12, 57, 0
15, 19800, Note_on_c, 12, 57, 52
15, 19859, Note_on_c, 12, 57, 0
15, 19860, Note_on_c, 12, 59, 52
15, 19919, Note_on_c, 12, 59, 0
15, 19920, Note_on_c, 12, 60, 52
15, 20009, Note_on_c, 12, 60, 0
15, 20040, Note_on_c, 12, 60, 52
15, 20099, Note_on_c, 12, 60, 0
15, 20100, Note_on_c, 12, 62, 52
15, 20159, Note_on_c, 12, 62, 0
15, 20160, Note_on_c, 12, 64, 44
15, 20639, Note_on_c, 12, 64, 0
15, 20640, Note_on_c, 12, 63, 44
15, 21107, Note_on_c, 12, 63, 0
15, 21120, Note_on_c, 12, 62, 44
15, 21239, Note_on_c, 12, 62, 0
15, 21240, Note_on_c, 12, 59, 44
15, 21299, Note_on_c, 12, 59, 0
15, 21300, Note_on_c, 12, 61, 44
15, 21359, Note_on_c, 12, 61, 0
15, 21360, Note_on_c, 12, 62, 44
15, 21479, Note_on_c, 12, 62, 0
15, 21480, Note_on_c, 12, 64, 44
15, 21539, Note_on_c, 12, 64, 0
15, 21540, Note_on_c, 12, 62, 44
15, 21593, Note_on_c, 12, 62, 0
15, 21600, Note_on_c, 12, 62, 44
15, 21719, Note_on_c, 12, 62, 0
15, 21720, Note_on_c, 12, 61, 44
15, 21827, Note_on_c, 12, 61, 0
15, 21840, Note_on_c, 12, 60, 44
15, 22067, Note_on_c, 12, 60, 0
15, 22080, Note_on_c, 12, 60, 44
15, 22559, Note_on_c, 12, 60, 0
15, 22560, Note_on_c, 12, 59, 44
15, 22799, Note_on_c, 12, 59, 0
15, 22800, Note_on_c, 12, 60, 44
15, 22967, Note_on_c, 12, 60, 0
15, 22980, Note_on_c, 12, 59, 44
15, 23009, Note_on_c, 12, 59, 0
15, 23010, Note_on_c, 12, 60, 44
15, 23039, Note_on_c, 12, 60, 0
15, 23040, Note_on_c, 12, 62, 44
15, 23399, Note_on_c, 12, 62, 0
15, 23400, Note_on_c, 12, 60, 44
15, 23459, Note_on_c, 12, 60, 0
15, 23460, Note_on_c, 12, 59, 44
15, 23513, Note_on_c, 12, 59, 0
15, 23520, Note_on_c, 12, 57, 44
15, 23759, Note_on_c, 12, 57, 0
15, 24120, Note_on_c, 12, 57, 44
15, 24239, Note_on_c, 12, 57, 0
15, 24240, Note_on_c, 12, 60, 45
15, 24359, Note_on_c, 12, 60, 0
15, 24360, Note_on_c, 12, 52, 45
15, 24479, Note_on_c, 12, 52, 0
15, 24600, Note_on_c, 12, 56, 46
15, 24719, Note_on_c, 12, 56, 0
15, 24720, Note_on_c, 12, 59, 47
15, 24839, Note_on_c, 12, 59, 0
15, 24840, Note_on_c, 12, 52, 47
15, 24959, Note_on_c, 12, 52, 0
15, 25080, Note_on_c, 12, 56, 48
15, 25199, Note_on_c, 12, 56, 0
15, 25200, Note_on_c, 12, 59, 49
15, 25319, Note_on_c, 12, 59, 0
15, 25320, Note_on_c, 12, 52, 49
15, 25439, Note_on_c, 12, 52, 0
15, 25560, Note_on_c, 12, 57, 50
15, 25679, Note_on_c, 12, 57, 0
15, 25680, Note_on_c, 12, 60, 51
15, 25799, Note_on_c, 12, 60, 0
15, 25800, Note_on_c, 12, 52, 51
15, 25919, Note_on_c, 12, 52, 0
15, 26040, Note_on_c, 12, 57, 52
15, 26159, Note_on_c, 12, 57, 0
15, 26160, Note_on_c, 12, 60, 53
15, 26279, Note_on_c, 12, 60, 0
15, 26280, Note_on_c, 12, 48, 53
15, 26399, Note_on_c, 12, 48, 0
15, 26520, Note_on_c, 12, 55, 54
15, 26639, Note_on_c, 12, 55, 0
15, 26640, Note_on_c, 12, 60, 55
15, 26759, Note_on_c, 12, 60, 0
15, 26760, Note_on_c, 12, 48, 55
15, 26879, Note_on_c, 12, 48, 0
15, 27000, Note_on_c, 12, 59, 56
15, 27119, Note_on_c, 12, 59, 0
15, 27120, Note_on_c, 12, 62, 57
15, 27239, Note_on_c, 12, 62, 0
15, 27240, Note_on_c, 12, 55, 57
15, 27359, Note_on_c, 12, 55, 0
15, 27480, Note_on_c, 12, 55, 58
15, 27599, Note_on_c, 12, 55, 0
15, 27600, Note_on_c, 12, 60, 59
15, 27719, Note_on_c, 12, 60, 0
15, 27720, Note_on_c, 12, 48, 59
15, 27839, Note_on_c, 12, 48, 0
15, 27960, Note_on_c, 12, 60, 60
15, 28079, Note_on_c, 12, 60, 0
15, 28080, Note_on_c, 12, 64, 61
15, 28199, Note_on_c, 12, 64, 0
15, 28200, Note_on_c, 12, 52, 61
15, 28319, Note_on_c, 12, 52, 0
15, 28440, Note_on_c, 12, 66, 62
15, 28559, Note_on_c, 12, 66, 0
15, 28560, Note_on_c, 12, 71, 63
15, 28679, Note_on_c, 12, 71, 0
15, 28680, Note_on_c, 12, 59, 63
15, 28799, Note_on_c, 12, 59, 0
15, 28920, Note_on_c, 12, 59, 64
15, 29039, Note_on_c, 12, 59, 0
15, 29040, Note_on_c, 12, 62, 65
15, 29159, Note_on_c, 12, 62, 0
15, 29160, Note_on_c, 12, 50, 65
15, 29279, Note_on_c, 12, 50, 0
15, 29400, Note_on_c, 12, 64, 66
15, 29519, Note_on_c, 12, 64, 0
15, 29520, Note_on_c, 12, 69, 67
15, 29639, Note_on_c, 12, 69, 0
15, 29640, Note_on_c, 12, 57, 67
15, 29759, Note_on_c, 12, 57, 0
15, 29880, Note_on_c, 12, 57, 68
15, 29999, Note_on_c, 12, 57, 0
15, 30000, Note_on_c, 12, 64, 69
15, 30119, Note_on_c, 12, 64, 0
15, 30120, Note_on_c, 12, 52, 69
15, 30239, Note_on_c, 12, 52, 0
15, 30360, Note_on_c, 12, 59, 70
15, 30479, Note_on_c, 12, 59, 0
15, 30480, Note_on_c, 12, 64, 71
15, 30599, Note_on_c, 12, 64, 0
15, 30600, Note_on_c, 12, 52, 71
15, 30719, Note_on_c, 12, 52, 0
15, 30840, Note_on_c, 12, 59, 72
15, 30959, Note_on_c, 12, 59, 0
15, 30960, Note_on_c, 12, 64, 73
15, 31079, Note_on_c, 12, 64, 0
15, 31080, Note_on_c, 12, 52, 73
15, 31199, Note_on_c, 12, 52, 0
15, 31320, Note_on_c, 12, 60, 74
15, 31439, Note_on_c, 12, 60, 0
15, 31440, Note_on_c, 12, 64, 75
15, 31559, Note_on_c, 12, 64, 0
15, 31560, Note_on_c, 12, 57, 75
15, 31679, Note_on_c, 12, 57, 0
15, 31800, Note_on_c, 12, 60, 76
15, 31919, Note_on_c, 12, 60, 0
15, 31920, Note_on_c, 12, 64, 76
15, 32039, Note_on_c, 12, 64, 0
15, 32040, Note_on_c, 12, 52, 76
15, 32159, Note_on_c, 12, 52, 0
15, 32280, Note_on_c, 12, 66, 76
15, 32399, Note_on_c, 12, 66, 0
15, 32400, Note_on_c, 12, 71, 76
15, 32519, Note_on_c, 12, 71, 0
15, 32520, Note_on_c, 12, 59, 76
15, 32639, Note_on_c, 12, 59, 0
15, 32760, Note_on_c, 12, 59, 80
15, 32879, Note_on_c, 12, 59, 0
15, 32880, Note_on_c, 12, 62, 80
15, 32999, Note_on_c, 12, 62, 0
15, 33000, Note_on_c, 12, 50, 80
15, 33119, Note_on_c, 12, 50, 0
15, 33240, Note_on_c, 12, 64, 80
15, 33359, Note_on_c, 12, 64, 0
15, 33360, Note_on_c, 12, 69, 80
15, 33479, Note_on_c, 12, 69, 0
15, 33480, Note_on_c, 12, 57, 80
15, 33599, Note_on_c, 12, 57, 0
15, 33720, Note_on_c, 12, 57, 80
15, 33839, Note_on_c, 12, 57, 0
15, 33840, Note_on_c, 12, 64, 80
15, 33959, Note_on_c, 12, 64, 0
15, 33960, Note_on_c, 12, 52, 80
15, 34079, Note_on_c, 12, 52, 0
15, 34200, Note_on_c, 12, 59, 80
15, 34319, Note_on_c, 12, 59, 0
15, 34320, Note_on_c, 12, 64, 80
15, 34439, Note_on_c, 12, 64, 0
15, 34440, Note_on_c, 12, 52, 80
15, 34559, Note_on_c, 12, 52, 0
15, 34680, Note_on_c, 12, 59, 80
15, 34799, Note_on_c, 12, 59, 0
15, 34800, Note_on_c, 12, 64, 80
15, 34919, Note_on_c, 12, 64, 0
15, 34920, Note_on_c, 12, 52, 80
15, 35039, Note_on_c, 12, 52, 0
15, 35160, Note_on_c, 12, 60, 80
15, 35279, Note_on_c, 12, 60, 0
15, 35280, Note_on_c, 12, 64, 80
15, 35399, Note_on_c, 12, 64, 0
15, 35400, Note_on_c, 12, 57, 80
15, 35519, Note_on_c, 12, 57, 0
15, 35600, Note_on_c, 12, 57, 84
15, 35659, Note_on_c, 12, 57, 0
15, 35680, Note_on_c, 12, 60, 84
15, 35739, Note_on_c, 12, 60, 0
15, 35760, Note_on_c, 12, 52, 84
15, 35987, Note_on_c, 12, 52, 0
15, 36080, Note_on_c, 12, 56, 84
15, 36139, Note_on_c, 12, 56, 0
15, 36160, Note_on_c, 12, 59, 84
15, 36219, Note_on_c, 12, 59, 0
15, 36240, Note_on_c, 12, 52, 84
15, 36467, Note_on_c, 12, 52, 0
15, 36560, Note_on_c, 12, 56, 84
15, 36619, Note_on_c, 12, 56, 0
15, 36640, Note_on_c, 12, 59, 84
15, 36699, Note_on_c, 12, 59, 0
15, 36720, Note_on_c, 12, 52, 84
15, 36947, Note_on_c, 12, 52, 0
15, 37040, Note_on_c, 12, 57, 84
15, 37099, Note_on_c, 12, 57, 0
15, 37120, Note_on_c, 12, 60, 84
15, 37179, Note_on_c, 12, 60, 0
15, 37200, Note_on_c, 12, 52, 84
15, 37427, Note_on_c, 12, 52, 0
15, 37520, Note_on_c, 12, 57, 84
15, 37579, Note_on_c, 12, 57, 0
15, 37600, Note_on_c, 12, 60, 84
15, 37659, Note_on_c, 12, 60, 0
15, 37680, Note_on_c, 12, 48, 84
15, 37907, Note_on_c, 12, 48, 0
15, 38000, Note_on_c, 12, 55, 84
15, 38059, Note_on_c, 12, 55, 0
15, 38080, Note_on_c, 12, 60, 84
15, 38139, Note_on_c, 12, 60, 0
15, 38160, Note_on_c, 12, 55, 84
15, 38160, Note_on_c, 12, 48, 84
15, 38387, Note_on_c, 12, 55, 0
15, 38387, Note_on_c, 12, 48, 0
15, 38480, Note_on_c, 12, 59, 84
15, 38539, Note_on_c, 12, 59, 0
15, 38560, Note_on_c, 12, 62, 84
15, 38619, Note_on_c, 12, 62, 0
15, 38640, Note_on_c, 12, 55, 84
15, 38867, Note_on_c, 12, 55, 0
15, 38960, Note_on_c, 12, 55, 84
15, 39019, Note_on_c, 12, 55, 0
15, 39040, Note_on_c, 12, 60, 84
15, 39099, Note_on_c, 12, 60, 0
15, 39120, Note_on_c, 12, 48, 84
15, 39347, Note_on_c, 12, 48, 0
15, 39440, Note_on_c, 12, 55, 84
15, 39499, Note_on_c, 12, 55, 0
15, 39520, Note_on_c, 12, 60, 84
15, 39579, Note_on_c, 12, 60, 0
15, 39600, Note_on_c, 12, 48, 84
15, 39827, Note_on_c, 12, 48, 0
15, 39920, Note_on_c, 12, 59, 84
15, 39979, Note_on_c, 12, 59, 0
15, 40000, Note_on_c, 12, 71, 84
15, 40059, Note_on_c, 12, 71, 0
15, 40080, Note_on_c, 12, 59, 84
15, 40307, Note_on_c, 12, 59, 0
15, 40400, Note_on_c, 12, 59, 84
15, 40459, Note_on_c, 12, 59, 0
15, 40480, Note_on_c, 12, 62, 84
15, 40539, Note_on_c, 12, 62, 0
15, 40560, Note_on_c, 12, 50, 84
15, 40787, Note_on_c, 12, 50, 0
15, 40880, Note_on_c, 12, 57, 84
15, 40939, Note_on_c, 12, 57, 0
15, 40960, Note_on_c, 12, 69, 84
15, 41019, Note_on_c, 12, 69, 0
15, 41040, Note_on_c, 12, 57, 84
15, 41267, Note_on_c, 12, 57, 0
15, 41360, Note_on_c, 12, 57, 84
15, 41419, Note_on_c, 12, 57, 0
15, 41440, Note_on_c, 12, 60, 84
15, 41499, Note_on_c, 12, 60, 0
15, 41520, Note_on_c, 12, 52, 84
15, 41747, Note_on_c, 12, 52, 0
15, 41840, Note_on_c, 12, 56, 84
15, 41899, Note_on_c, 12, 56, 0
15, 41920, Note_on_c, 12, 59, 84
15, 41979, Note_on_c, 12, 59, 0
15, 42000, Note_on_c, 12, 57, 84
15, 42000, Note_on_c, 12, 52, 84
15, 42227, Note_on_c, 12, 57, 0
15, 42227, Note_on_c, 12, 52, 0
15, 42320, Note_on_c, 12, 56, 84
15, 42379, Note_on_c, 12, 56, 0
15, 42400, Note_on_c, 12, 59, 84
15, 42459, Note_on_c, 12, 59, 0
15, 42480, Note_on_c, 12, 52, 84
15, 42707, Note_on_c, 12, 52, 0
15, 42800, Note_on_c, 12, 57, 84
15, 42859, Note_on_c, 12, 57, 0
15, 42880, Note_on_c, 12, 69, 84
15, 42939, Note_on_c, 12, 69, 0
15, 42960, Note_on_c, 12, 57, 84
15, 43019, Note_on_c, 12, 57, 0
15, 43040, Note_on_c, 12, 57, 84
15, 43099, Note_on_c, 12, 57, 0
15, 43120, Note_on_c, 12, 59, 84
15, 43179, Note_on_c, 12, 59, 0
15, 43200, Note_on_c, 12, 60, 84
15, 43259, Note_on_c, 12, 60, 0
15, 43280, Note_on_c, 12, 55, 84
15, 43339, Note_on_c, 12, 55, 0
15, 43360, Note_on_c, 12, 60, 83
15, 43419, Note_on_c, 12, 60, 0
15, 43440, Note_on_c, 12, 48, 82
15, 43667, Note_on_c, 12, 48, 0
15, 43760, Note_on_c, 12, 59, 79
15, 43819, Note_on_c, 12, 59, 0
15, 43840, Note_on_c, 12, 71, 78
15, 43899, Note_on_c, 12, 71, 0
15, 43920, Note_on_c, 12, 59, 78
15, 44147, Note_on_c, 12, 59, 0
15, 44240, Note_on_c, 12, 59, 75
15, 44299, Note_on_c, 12, 59, 0
15, 44320, Note_on_c, 12, 62, 74
15, 44379, Note_on_c, 12, 62, 0
15, 44400, Note_on_c, 12, 50, 73
15, 44627, Note_on_c, 12, 50, 0
15, 44720, Note_on_c, 12, 57, 70
15, 44779, Note_on_c, 12, 57, 0
15, 44800, Note_on_c, 12, 69, 69
15, 44859, Note_on_c, 12, 69, 0
15, 44880, Note_on_c, 12, 57, 68
15, 45107, Note_on_c, 12, 57, 0
15, 45200, Note_on_c, 12, 57, 65
15, 45259, Note_on_c, 12, 57, 0
15, 45280, Note_on_c, 12, 60, 65
15, 45339, Note_on_c, 12, 60, 0
15, 45360, Note_on_c, 12, 52, 64
15, 45587, Note_on_c, 12, 52, 0
15, 45680, Note_on_c, 12, 56, 61
15, 45739, Note_on_c, 12, 56, 0
15, 45760, Note_on_c, 12, 59, 60
15, 45819, Note_on_c, 12, 59, 0
15, 45840, Note_on_c, 12, 57, 59
15, 45840, Note_on_c, 12, 52, 59
15, 46067, Note_on_c, 12, 57, 0
15, 46067, Note_on_c, 12, 52, 0
15, 46160, Note_on_c, 12, 56, 56
15, 46219, Note_on_c, 12, 56, 0
15, 46240, Note_on_c, 12, 64, 56
15, 46299, Note_on_c, 12, 64, 0
15, 46320, Note_on_c, 12, 52, 55
15, 46379, Note_on_c, 12, 52, 0
15, 46400, Note_on_c, 12, 52, 54
15, 46459, Note_on_c, 12, 52, 0
15, 46480, Note_on_c, 12, 64, 53
15, 46539, Note_on_c, 12, 64, 0
15, 46560, Note_on_c, 12, 57, 52
15, 46799, Note_on_c, 12, 57, 0
15, 48240, Control_c, 12, 11, 96
15, 48480, Note_on_c, 12, 49, 68
15, 48480, Note_on_c, 12, 52, 68
15, 48959, Note_on_c, 12, 49, 0
15, 48959, Note_on_c, 12, 52, 0
15, 48960, Note_on_c, 12, 49, 68
15, 48960, Note_on_c, 12, 52, 68
15, 49427, Note_on_c, 12, 49, 0
15, 49427, Note_on_c, 12, 52, 0
15, 49440, Note_on_c, 12, 50, 68
15, 49440, Note_on_c, 12, 54, 68
15, 49860, Control_c, 12, 11, 96
15, 49908, Control_c, 12, 11, 97
15, 49919, Note_on_c, 12, 50, 0
15, 49919, Note_on_c, 12, 54, 0
15, 49920, Note_on_c, 12, 54, 68
15, 49920, Note_on_c, 12, 50, 68
15, 49957, Control_c, 12, 11, 98
15, 50005, Control_c, 12, 11, 99
15, 50054, Control_c, 12, 11, 100
15, 50102, Control_c, 12, 11, 101
15, 50150, Control_c, 12, 11, 102
15, 50159, Note_on_c, 12, 54, 0
15, 50159, Note_on_c, 12, 50, 0
15, 50160, Note_on_c, 12, 49, 68
15, 50160, Note_on_c, 12, 52, 68
15, 50199, Control_c, 12, 11, 103
15, 50247, Control_c, 12, 11, 104
15, 50279, Note_on_c, 12, 49, 0
15, 50279, Note_on_c, 12, 52, 0
15, 50280, Note_on_c, 12, 61, 68
15, 50295, Control_c, 12, 11, 105
15, 50344, Control_c, 12, 11, 106
15, 50387, Note_on_c, 12, 61, 0
15, 50392, Control_c, 12, 11, 107
15, 50400, Note_on_c, 12, 59, 68
15, 50400, Note_on_c, 12, 62, 68
15, 50441, Control_c, 12, 11, 108
15, 50489, Control_c, 12, 11, 109
15, 50537, Control_c, 12, 11, 110
15, 50586, Control_c, 12, 11, 111
15, 50634, Control_c, 12, 11, 112
15, 50639, Note_on_c, 12, 59, 0
15, 50639, Note_on_c, 12, 62, 0
15, 50640, Note_on_c, 12, 61, 68
15, 50640, Note_on_c, 12, 57, 68
15, 50683, Control_c, 12, 11, 113
15, 50731, Control_c, 12, 11, 114
15, 50759, Note_on_c, 12, 61, 0
15, 50759, Note_on_c, 12, 57, 0
15, 50760, Note_on_c, 12, 49, 68
15, 50760, Note_on_c, 12, 52, 68
15, 50779, Control_c, 12, 11, 115
15, 50828, Control_c, 12, 11, 116
15, 50867, Note_on_c, 12, 49, 0
15, 50867, Note_on_c, 12, 52, 0
15, 50876, Control_c, 12, 11, 117
15, 50880, Note_on_c, 12, 54, 68
15, 50880, Note_on_c, 12, 50, 68
15, 50925, Control_c, 12, 11, 118
15, 50973, Control_c, 12, 11, 119
15, 51021, Control_c, 12, 11, 120
15, 51070, Control_c, 12, 11, 121
15, 51118, Control_c, 12, 11, 122
15, 51119, Note_on_c, 12, 54, 0
15, 51119, Note_on_c, 12, 50, 0
15, 51120, Note_on_c, 12, 52, 68
15, 51166, Control_c, 12, 11, 123
15, 51215, Control_c, 12, 11, 124
15, 51263, Control_c, 12, 11, 125
15, 51312, Control_c, 12, 11, 127
15, 51359, Note_on_c, 12, 52, 0
15, 51360, Note_on_c, 12, 54, 68
15, 51599, Note_on_c, 12, 54, 0
15, 51600, Note_on_c, 12, 56, 68
15, 51600, Control_c, 12, 11, 127
15, 51623, Control_c, 12, 11, 126
15, 51646, Control_c, 12, 11, 125
15, 51670, Control_c, 12, 11, 124
15, 51693, Control_c, 12, 11, 123
15, 51716, Control_c, 12, 11, 122
15, 51739, Control_c, 12, 11, 121
15, 51763, Control_c, 12, 11, 120
15, 51786, Control_c, 12, 11, 119
15, 51809, Control_c, 12, 11, 118
15, 51827, Note_on_c, 12, 56, 0
15, 51832, Control_c, 12, 11, 117
15, 51840, Note_on_c, 12, 56, 68
15, 51855, Control_c, 12, 11, 116
15, 51879, Control_c, 12, 11, 115
15, 51902, Control_c, 12, 11, 114
15, 51925, Control_c, 12, 11, 113
15, 51948, Control_c, 12, 11, 112
15, 51972, Control_c, 12, 11, 111
15, 51995, Control_c, 12, 11, 110
15, 52018, Control_c, 12, 11, 109
15, 52041, Control_c, 12, 11, 108
15, 52065, Control_c, 12, 11, 107
15, 52079, Note_on_c, 12, 56, 0
15, 52080, Note_on_c, 12, 52, 68
15, 52088, Control_c, 12, 11, 106
15, 52111, Control_c, 12, 11, 105
15, 52134, Control_c, 12, 11, 104
15, 52157, Control_c, 12, 11, 103
15, 52181, Control_c, 12, 11, 102
15, 52187, Note_on_c, 12, 52, 0
15, 52200, Note_on_c, 12, 52, 68
15, 52204, Control_c, 12, 11, 101
15, 52227, Control_c, 12, 11, 100
15, 52250, Control_c, 12, 11, 99
15, 52274, Control_c, 12, 11, 98
15, 52297, Control_c, 12, 11, 96
15, 52307, Note_on_c, 12, 52, 0
15, 52320, Note_on_c, 12, 52, 68
15, 52559, Note_on_c, 12, 52, 0
15, 52560, Control_c, 12, 11, 96
15, 52560, Note_on_c, 12, 49, 68
15, 52614, Control_c, 12, 11, 97
15, 52668, Control_c, 12, 11, 98
15, 52723, Control_c, 12, 11, 99
15, 52777, Control_c, 12, 11, 100
15, 52831, Control_c, 12, 11, 101
15, 52885, Control_c, 12, 11, 102
15, 52939, Control_c, 12, 11, 103
15, 52994, Control_c, 12, 11, 104
15, 53048, Control_c, 12, 11, 105
15, 53102, Control_c, 12, 11, 106
15, 53156, Control_c, 12, 11, 107
15, 53210, Control_c, 12, 11, 108
15, 53265, Control_c, 12, 11, 109
15, 53279, Note_on_c, 12, 49, 0
15, 53280, Note_on_c, 12, 49, 68
15, 53319, Control_c, 12, 11, 110
15, 53373, Control_c, 12, 11, 111
15, 53427, Control_c, 12, 11, 112
15, 53481, Control_c, 12, 11, 113
15, 53519, Note_on_c, 12, 49, 0
15, 53520, Note_on_c, 12, 50, 68
15, 53535, Control_c, 12, 11, 114
15, 53590, Control_c, 12, 11, 115
15, 53644, Control_c, 12, 11, 116
15, 53698, Control_c, 12, 11, 117
15, 53752, Control_c, 12, 11, 118
15, 53806, Control_c, 12, 11, 119
15, 53861, Control_c, 12, 11, 120
15, 53915, Control_c, 12, 11, 121
15, 53969, Control_c, 12, 11, 122
15, 53999, Note_on_c, 12, 50, 0
15, 54000, Note_on_c, 12, 52, 68
15, 54023, Control_c, 12, 11, 123
15, 54077, Control_c, 12, 11, 124
15, 54132, Control_c, 12, 11, 125
15, 54186, Control_c, 12, 11, 127
15, 54227, Note_on_c, 12, 52, 0
15, 54240, Note_on_c, 12, 54, 68
15, 54359, Note_on_c, 12, 54, 0
15, 54360, Note_on_c, 12, 56, 66
15, 54479, Note_on_c, 12, 56, 0
15, 54480, Note_on_c, 12, 57, 64
15, 54587, Note_on_c, 12, 57, 0
15, 54600, Note_on_c, 12, 52, 62
15, 54707, Note_on_c, 12, 52, 0
15, 54720, Note_on_c, 12, 52, 60
15, 54839, Note_on_c, 12, 52, 0
15, 54840, Note_on_c, 12, 56, 58
15, 54959, Note_on_c, 12, 56, 0
15, 54960, Note_on_c, 12, 57, 56
15, 55079, Note_on_c, 12, 57, 0
15, 55080, Note_on_c, 12, 54, 54
15, 55187, Note_on_c, 12, 54, 0
15, 55200, Note_on_c, 12, 52, 52
15, 55439, Note_on_c, 12, 52, 0
15, 55440, Note_on_c, 12, 64, 52
15, 55679, Note_on_c, 12, 64, 0
15, 55680, Note_on_c, 12, 66, 52
15, 56147, Note_on_c, 12, 66, 0
15, 56160, Note_on_c, 12, 64, 52
15, 56639, Note_on_c, 12, 64, 0
15, 56640, Note_on_c, 12, 66, 52
15, 57107, Note_on_c, 12, 66, 0
15, 57120, Note_on_c, 12, 64, 52
15, 57599, Note_on_c, 12, 64, 0
15, 57600, Note_on_c, 12, 66, 52
15, 58067, Note_on_c, 12, 66, 0
15, 58080, Note_on_c, 12, 64, 52
15, 58307, Note_on_c, 12, 64, 0
15, 58318, Control_c, 12, 11, 96
15, 58320, Note_on_c, 12, 52, 68
15, 58560, Control_c, 12, 11, 96
15, 58622, Control_c, 12, 11, 97
15, 58684, Control_c, 12, 11, 98
15, 58746, Control_c, 12, 11, 99
15, 58808, Control_c, 12, 11, 100
15, 58870, Control_c, 12, 11, 101
15, 58932, Control_c, 12, 11, 102
15, 58994, Control_c, 12, 11, 103
15, 59039, Note_on_c, 12, 52, 0
15, 59040, Note_on_c, 12, 52, 68
15, 59055, Control_c, 12, 11, 104
15, 59117, Control_c, 12, 11, 105
15, 59179, Control_c, 12, 11, 106
15, 59241, Control_c, 12, 11, 107
15, 59303, Control_c, 12, 11, 108
15, 59365, Control_c, 12, 11, 109
15, 59427, Control_c, 12, 11, 110
15, 59489, Control_c, 12, 11, 111
15, 59519, Note_on_c, 12, 52, 0
15, 59520, Note_on_c, 12, 52, 68
15, 59551, Control_c, 12, 11, 112
15, 59613, Control_c, 12, 11, 113
15, 59675, Control_c, 12, 11, 114
15, 59737, Control_c, 12, 11, 115
15, 59799, Control_c, 12, 11, 116
15, 59861, Control_c, 12, 11, 117
15, 59923, Control_c, 12, 11, 118
15, 59985, Control_c, 12, 11, 119
15, 59999, Note_on_c, 12, 52, 0
15, 60000, Note_on_c, 12, 52, 68
15, 60046, Control_c, 12, 11, 120
15, 60108, Control_c, 12, 11, 121
15, 60170, Control_c, 12, 11, 122
15, 60232, Control_c, 12, 11, 123
15, 60294, Control_c, 12, 11, 124
15, 60356, Control_c, 12, 11, 125
15, 60418, Control_c, 12, 11, 127
15, 60467, Note_on_c, 12, 52, 0
15, 60480, Control_c, 12, 11, 127
15, 60480, Note_on_c, 12, 52, 68
15, 60511, Control_c, 12, 11, 126
15, 60542, Control_c, 12, 11, 125
15, 60573, Control_c, 12, 11, 124
15, 60604, Control_c, 12, 11, 123
15, 60635, Control_c, 12, 11, 122
15, 60666, Control_c, 12, 11, 121
15, 60697, Control_c, 12, 11, 120
15, 60719, Note_on_c, 12, 52, 0
15, 60720, Note_on_c, 12, 55, 68
15, 60728, Control_c, 12, 11, 119
15, 60759, Control_c, 12, 11, 118
15, 60790, Control_c, 12, 11, 117
15, 60821, Control_c, 12, 11, 116
15, 60852, Control_c, 12, 11, 115
15, 60883, Control_c, 12, 11, 114
15, 60914, Control_c, 12, 11, 113
15, 60945, Control_c, 12, 11, 112
15, 60959, Note_on_c, 12, 55, 0
15, 60960, Note_on_c, 12, 54, 68
15, 60975, Control_c, 12, 11, 111
15, 61006, Control_c, 12, 11, 110
15, 61037, Control_c, 12, 11, 109
15, 61067, Note_on_c, 12, 54, 0
15, 61068, Control_c, 12, 11, 108
15, 61080, Note_on_c, 12, 54, 68
15, 61099, Control_c, 12, 11, 107
15, 61130, Control_c, 12, 11, 106
15, 61161, Control_c, 12, 11, 105
15, 61192, Control_c, 12, 11, 104
15, 61199, Note_on_c, 12, 54, 0
15, 61200, Note_on_c, 12, 50, 68
15, 61223, Control_c, 12, 11, 103
15, 61254, Control_c, 12, 11, 102
15, 61285, Control_c, 12, 11, 101
15, 61316, Control_c, 12, 11, 100
15, 61319, Note_on_c, 12, 50, 0
15, 61320, Note_on_c, 12, 54, 68
15, 61347, Control_c, 12, 11, 99
15, 61378, Control_c, 12, 11, 98
15, 61409, Control_c, 12, 11, 96
15, 61427, Note_on_c, 12, 54, 0
15, 61440, Note_on_c, 12, 49, 68
15, 61559, Note_on_c, 12, 49, 0
15, 61560, Note_on_c, 12, 52, 68
15, 61667, Note_on_c, 12, 52, 0
15, 61680, Note_on_c, 12, 52, 68
15, 61799, Note_on_c, 12, 52, 0
15, 61800, Note_on_c, 12, 50, 68
15, 61919, Note_on_c, 12, 50, 0
15, 61920, Note_on_c, 12, 49, 68
15, 61920, Control_c, 12, 11, 96
15, 61997, Control_c, 12, 11, 97
15, 62027, Note_on_c, 12, 49, 0
15, 62040, Note_on_c, 12, 57, 68
15, 62075, Control_c, 12, 11, 98
15, 62152, Control_c, 12, 11, 99
15, 62159, Note_on_c, 12, 57, 0
15, 62160, Note_on_c, 12, 59, 68
15, 62230, Control_c, 12, 11, 100
15, 62239, Note_on_c, 12, 59, 0
15, 62240, Note_on_c, 12, 60, 68
15, 62307, Control_c, 12, 11, 101
15, 62319, Note_on_c, 12, 60, 0
15, 62320, Note_on_c, 12, 61, 68
15, 62385, Control_c, 12, 11, 102
15, 62387, Note_on_c, 12, 61, 0
15, 62400, Note_on_c, 12, 52, 68
15, 62462, Control_c, 12, 11, 103
15, 62539, Control_c, 12, 11, 104
15, 62617, Control_c, 12, 11, 105
15, 62694, Control_c, 12, 11, 106
15, 62772, Control_c, 12, 11, 107
15, 62849, Control_c, 12, 11, 108
15, 62879, Note_on_c, 12, 52, 0
15, 62880, Note_on_c, 12, 52, 68
15, 62926, Control_c, 12, 11, 109
15, 63004, Control_c, 12, 11, 110
15, 63081, Control_c, 12, 11, 111
15, 63159, Control_c, 12, 11, 112
15, 63236, Control_c, 12, 11, 113
15, 63314, Control_c, 12, 11, 114
15, 63359, Note_on_c, 12, 52, 0
15, 63360, Note_on_c, 12, 52, 68
15, 63391, Control_c, 12, 11, 115
15, 63468, Control_c, 12, 11, 116
15, 63546, Control_c, 12, 11, 117
15, 63623, Control_c, 12, 11, 118
15, 63701, Control_c, 12, 11, 119
15, 63778, Control_c, 12, 11, 120
15, 63839, Note_on_c, 12, 52, 0
15, 63840, Note_on_c, 12, 52, 68
15, 63855, Control_c, 12, 11, 121
15, 63933, Control_c, 12, 11, 122
15, 64010, Control_c, 12, 11, 123
15, 64088, Control_c, 12, 11, 124
15, 64165, Control_c, 12, 11, 125
15, 64243, Control_c, 12, 11, 127
15, 64307, Note_on_c, 12, 52, 0
15, 64320, Control_c, 12, 11, 127
15, 64320, Note_on_c, 12, 52, 68
15, 64351, Control_c, 12, 11, 126
15, 64382, Control_c, 12, 11, 125
15, 64413, Control_c, 12, 11, 124
15, 64444, Control_c, 12, 11, 123
15, 64475, Control_c, 12, 11, 122
15, 64506, Control_c, 12, 11, 121
15, 64537, Control_c, 12, 11, 120
15, 64559, Note_on_c, 12, 52, 0
15, 64560, Note_on_c, 12, 55, 68
15, 64568, Control_c, 12, 11, 119
15, 64599, Control_c, 12, 11, 118
15, 64630, Control_c, 12, 11, 117
15, 64661, Control_c, 12, 11, 116
15, 64692, Control_c, 12, 11, 115
15, 64723, Control_c, 12, 11, 114
15, 64754, Control_c, 12, 11, 113
15, 64785, Control_c, 12, 11, 112
15, 64799, Note_on_c, 12, 55, 0
15, 64800, Note_on_c, 12, 57, 68
15, 64815, Control_c, 12, 11, 111
15, 64846, Control_c, 12, 11, 110
15, 64877, Control_c, 12, 11, 109
15, 64907, Note_on_c, 12, 57, 0
15, 64908, Control_c, 12, 11, 108
15, 64920, Note_on_c, 12, 57, 68
15, 64939, Control_c, 12, 11, 107
15, 64970, Control_c, 12, 11, 106
15, 65001, Control_c, 12, 11, 105
15, 65032, Control_c, 12, 11, 104
15, 65039, Note_on_c, 12, 57, 0
15, 65040, Note_on_c, 12, 53, 68
15, 65063, Control_c, 12, 11, 103
15, 65094, Control_c, 12, 11, 102
15, 65125, Control_c, 12, 11, 101
15, 65156, Control_c, 12, 11, 100
15, 65159, Note_on_c, 12, 53, 0
15, 65160, Note_on_c, 12, 57, 68
15, 65187, Control_c, 12, 11, 99
15, 65218, Control_c, 12, 11, 98
15, 65249, Control_c, 12, 11, 96
15, 65267, Note_on_c, 12, 57, 0
15, 65280, Note_on_c, 12, 52, 68
15, 65399, Note_on_c, 12, 52, 0
15, 65400, Note_on_c, 12, 55, 68
15, 65507, Note_on_c, 12, 55, 0
15, 65520, Note_on_c, 12, 55, 68
15, 65639, Note_on_c, 12, 55, 0
15, 65640, Note_on_c, 12, 53, 68
15, 65747, Note_on_c, 12, 53, 0
15, 65760, Note_on_c, 12, 52, 68
15, 65999, Note_on_c, 12, 52, 0
15, 66000, Note_on_c, 12, 60, 68
15, 66239, Note_on_c, 12, 60, 0
15, 66240, Note_on_c, 12, 62, 68
15, 66719, Note_on_c, 12, 62, 0
15, 66720, Note_on_c, 12, 60, 68
15, 67187, Note_on_c, 12, 60, 0
15, 67198, Control_c, 12, 11, 80
15, 67200, Note_on_c, 12, 62, 76
15, 67679, Note_on_c, 12, 62, 0
15, 67680, Note_on_c, 12, 60, 76
15, 68159, Note_on_c, 12, 60, 0
15, 68160, Control_c, 12, 11, 80
15, 68160, Note_on_c, 12, 62, 76
15, 68180, Control_c, 12, 11, 82
15, 68200, Control_c, 12, 11, 84
15, 68220, Control_c, 12, 11, 86
15, 68240, Control_c, 12, 11, 88
15, 68260, Control_c, 12, 11, 90
15, 68280, Control_c, 12, 11, 92
15, 68300, Control_c, 12, 11, 94
15, 68320, Control_c, 12, 11, 96
15, 68340, Control_c, 12, 11, 98
15, 68360, Control_c, 12, 11, 100
15, 68380, Control_c, 12, 11, 102
15, 68400, Control_c, 12, 11, 104
15, 68420, Control_c, 12, 11, 105
15, 68440, Control_c, 12, 11, 107
15, 68460, Control_c, 12, 11, 109
15, 68480, Control_c, 12, 11, 111
15, 68500, Control_c, 12, 11, 113
15, 68520, Control_c, 12, 11, 115
15, 68540, Control_c, 12, 11, 117
15, 68560, Control_c, 12, 11, 119
15, 68580, Control_c, 12, 11, 121
15, 68600, Control_c, 12, 11, 123
15, 68620, Control_c, 12, 11, 127
15, 68639, Note_on_c, 12, 62, 0
15, 69520, Note_on_c, 12, 59, 76
15, 69579, Note_on_c, 12, 59, 0
15, 69600, Note_on_c, 12, 57, 76
15, 69659, Note_on_c, 12, 57, 0
15, 69680, Note_on_c, 12, 55, 76
15, 69739, Note_on_c, 12, 55, 0
15, 69760, Note_on_c, 12, 53, 76
15, 69819, Note_on_c, 12, 53, 0
15, 69840, Note_on_c, 12, 52, 76
15, 69899, Note_on_c, 12, 52, 0
15, 69920, Note_on_c, 12, 50, 76
15, 69979, Note_on_c, 12, 50, 0
15, 70000, Note_on_c, 12, 60, 76
15, 70059, Note_on_c, 12, 60, 0
15, 70080, Note_on_c, 12, 59, 76
15, 70139, Note_on_c, 12, 59, 0
15, 70160, Note_on_c, 12, 57, 76
15, 70219, Note_on_c, 12, 57, 0
15, 70240, Note_on_c, 12, 55, 76
15, 70299, Note_on_c, 12, 55, 0
15, 70320, Note_on_c, 12, 53, 76
15, 70379, Note_on_c, 12, 53, 0
15, 70400, Note_on_c, 12, 52, 76
15, 70459, Note_on_c, 12, 52, 0
15, 70480, Note_on_c, 12, 50, 76
15, 70539, Note_on_c, 12, 50, 0
15, 70560, Note_on_c, 12, 48, 76
15, 70639, Note_on_c, 12, 48, 0
15, 70800, Note_on_c, 12, 52, 84
15, 70889, Note_on_c, 12, 52, 0
15, 70920, Note_on_c, 12, 52, 84
15, 71009, Note_on_c, 12, 52, 0
15, 72060, Note_on_c, 12, 59, 52
15, 72104, Note_on_c, 12, 59, 0
15, 72120, Note_on_c, 12, 56, 52
15, 72164, Note_on_c, 12, 56, 0
15, 72180, Note_on_c, 12, 59, 52
15, 72224, Note_on_c, 12, 59, 0
15, 72240, Note_on_c, 12, 64, 52
15, 72284, Note_on_c, 12, 64, 0
15, 72300, Note_on_c, 12, 59, 52
15, 72344, Note_on_c, 12, 59, 0
15, 72360, Note_on_c, 12, 56, 52
15, 72404, Note_on_c, 12, 56, 0
15, 72420, Note_on_c, 12, 59, 52
15, 72464, Note_on_c, 12, 59, 0
15, 72480, Note_on_c, 12, 52, 52
15, 72599, Note_on_c, 12, 52, 0
15, 73020, Note_on_c, 12, 60, 52
15, 73064, Note_on_c, 12, 60, 0
15, 73080, Note_on_c, 12, 57, 52
15, 73124, Note_on_c, 12, 57, 0
15, 73140, Note_on_c, 12, 60, 52
15, 73184, Note_on_c, 12, 60, 0
15, 73200, Note_on_c, 12, 64, 52
15, 73244, Note_on_c, 12, 64, 0
15, 73260, Note_on_c, 12, 60, 52
15, 73304, Note_on_c, 12, 60, 0
15, 73320, Note_on_c, 12, 57, 52
15, 73364, Note_on_c, 12, 57, 0
15, 73380, Note_on_c, 12, 60, 52
15, 73424, Note_on_c, 12, 60, 0
15, 73440, Note_on_c, 12, 52, 52
15, 73559, Note_on_c, 12, 52, 0
15, 73980, Note_on_c, 12, 64, 52
15, 74024, Note_on_c, 12, 64, 0
15, 74040, Note_on_c, 12, 60, 52
15, 74084, Note_on_c, 12, 60, 0
15, 74100, Note_on_c, 12, 64, 52
15, 74144, Note_on_c, 12, 64, 0
15, 74160, Note_on_c, 12, 67, 52
15, 74204, Note_on_c, 12, 67, 0
15, 74220, Note_on_c, 12, 64, 52
15, 74264, Note_on_c, 12, 64, 0
15, 74280, Note_on_c, 12, 60, 52
15, 74324, Note_on_c, 12, 60, 0
15, 74340, Note_on_c, 12, 64, 52
15, 74384, Note_on_c, 12, 64, 0
15, 74400, Note_on_c, 12, 55, 52
15, 74519, Note_on_c, 12, 55, 0
15, 74940, Note_on_c, 12, 64, 52
15, 74984, Note_on_c, 12, 64, 0
15, 75000, Note_on_c, 12, 60, 52
15, 75044, Note_on_c, 12, 60, 0
15, 75060, Note_on_c, 12, 64, 52
15, 75104, Note_on_c, 12, 64, 0
15, 75120, Note_on_c, 12, 67, 52
15, 75164, Note_on_c, 12, 67, 0
15, 75180, Note_on_c, 12, 64, 52
15, 75224, Note_on_c, 12, 64, 0
15, 75240, Note_on_c, 12, 60, 52
15, 75284, Note_on_c, 12, 60, 0
15, 75300, Note_on_c, 12, 64, 52
15, 75344, Note_on_c, 12, 64, 0
15, 75360, Note_on_c, 12, 55, 52
15, 75479, Note_on_c, 12, 55, 0
15, 75900, Note_on_c, 12, 66, 52
15, 75944, Note_on_c, 12, 66, 0
15, 75960, Note_on_c, 12, 63, 52
15, 76004, Note_on_c, 12, 63, 0
15, 76020, Note_on_c, 12, 66, 52
15, 76064, Note_on_c, 12, 66, 0
15, 76080, Note_on_c, 12, 71, 52
15, 76124, Note_on_c, 12, 71, 0
15, 76140, Note_on_c, 12, 66, 52
15, 76184, Note_on_c, 12, 66, 0
15, 76200, Note_on_c, 12, 63, 52
15, 76244, Note_on_c, 12, 63, 0
15, 76260, Note_on_c, 12, 66, 52
15, 76304, Note_on_c, 12, 66, 0
15, 76320, Note_on_c, 12, 57, 52
15, 76439, Note_on_c, 12, 57, 0
15, 76860, Note_on_c, 12, 61, 52
15, 76904, Note_on_c, 12, 61, 0
15, 76920, Note_on_c, 12, 57, 52
15, 76964, Note_on_c, 12, 57, 0
15, 76980, Note_on_c, 12, 61, 52
15, 77024, Note_on_c, 12, 61, 0
15, 77040, Note_on_c, 12, 64, 52
15, 77084, Note_on_c, 12, 64, 0
15, 77100, Note_on_c, 12, 60, 52
15, 77144, Note_on_c, 12, 60, 0
15, 77160, Note_on_c, 12, 57, 52
15, 77204, Note_on_c, 12, 57, 0
15, 77220, Note_on_c, 12, 60, 52
15, 77264, Note_on_c, 12, 60, 0
15, 77280, Note_on_c, 12, 52, 52
15, 77399, Note_on_c, 12, 52, 0
15, 77820, Note_on_c, 12, 59, 52
15, 77864, Note_on_c, 12, 59, 0
15, 77880, Note_on_c, 12, 56, 52
15, 77924, Note_on_c, 12, 56, 0
15, 77940, Note_on_c, 12, 59, 52
15, 77984, Note_on_c, 12, 59, 0
15, 78000, Note_on_c, 12, 64, 52
15, 78044, Note_on_c, 12, 64, 0
15, 78060, Note_on_c, 12, 60, 52
15, 78104, Note_on_c, 12, 60, 0
15, 78120, Note_on_c, 12, 57, 52
15, 78164, Note_on_c, 12, 57, 0
15, 78180, Note_on_c, 12, 60, 52
15, 78224, Note_on_c, 12, 60, 0
15, 78240, Note_on_c, 12, 52, 52
15, 78359, Note_on_c, 12, 52, 0
15, 78780, Note_on_c, 12, 60, 52
15, 78824, Note_on_c, 12, 60, 0
15, 78840, Note_on_c, 12, 57, 52
15, 78884, Note_on_c, 12, 57, 0
15, 78900, Note_on_c, 12, 60, 52
15, 78944, Note_on_c, 12, 60, 0
15, 78960, Note_on_c, 12, 64, 52
15, 79004, Note_on_c, 12, 64, 0
15, 79020, Note_on_c, 12, 60, 52
15, 79064, Note_on_c, 12, 60, 0
15, 79080, Note_on_c, 12, 57, 52
15, 79124, Note_on_c, 12, 57, 0
15, 79140, Note_on_c, 12, 60, 52
15, 79184, Note_on_c, 12, 60, 0
15, 79200, Note_on_c, 12, 52, 52
15, 79319, Note_on_c, 12, 52, 0
15, 79740, Note_on_c, 12, 66, 52
15, 79784, Note_on_c, 12, 66, 0
15, 79800, Note_on_c, 12, 63, 52
15, 79844, Note_on_c, 12, 63, 0
15, 79860, Note_on_c, 12, 66, 52
15, 79904, Note_on_c, 12, 66, 0
15, 79920, Note_on_c, 12, 71, 52
15, 79964, Note_on_c, 12, 71, 0
15, 79980, Note_on_c, 12, 66, 52
15, 80024, Note_on_c, 12, 66, 0
15, 80040, Note_on_c, 12, 63, 52
15, 80084, Note_on_c, 12, 63, 0
15, 80100, Note_on_c, 12, 66, 52
15, 80144, Note_on_c, 12, 66, 0
15, 80160, Note_on_c, 12, 57, 52
15, 80279, Note_on_c, 12, 57, 0
15, 80700, Note_on_c, 12, 61, 52
15, 80744, Note_on_c, 12, 61, 0
15, 80760, Note_on_c, 12, 57, 52
15, 80804, Note_on_c, 12, 57, 0
15, 80820, Note_on_c, 12, 61, 52
15, 80864, Note_on_c, 12, 61, 0
15, 80880, Note_on_c, 12, 64, 52
15, 80924, Note_on_c, 12, 64, 0
15, 80940, Note_on_c, 12, 60, 52
15, 80984, Note_on_c, 12, 60, 0
15, 81000, Note_on_c, 12, 57, 52
15, 81044, Note_on_c, 12, 57, 0
15, 81060, Note_on_c, 12, 60, 52
15, 81104, Note_on_c, 12, 60, 0
15, 81120, Note_on_c, 12, 52, 52
15, 81239, Note_on_c, 12, 52, 0
15, 81660, Note_on_c, 12, 59, 52
15, 81704, Note_on_c, 12, 59, 0
15, 81720, Note_on_c, 12, 56, 52
15, 81764, Note_on_c, 12, 56, 0
15, 81780, Note_on_c, 12, 59, 52
15, 81824, Note_on_c, 12, 59, 0
15, 81840, Note_on_c, 12, 64, 52
15, 81884, Note_on_c, 12, 64, 0
15, 81900, Note_on_c, 12, 60, 52
15, 81944, Note_on_c, 12, 60, 0
15, 81960, Note_on_c, 12, 57, 52
15, 82004, Note_on_c, 12, 57, 0
15, 82020, Note_on_c, 12, 60, 52
15, 82064, Note_on_c, 12, 60, 0
15, 82080, Note_on_c, 12, 52, 52
15, 82199, Note_on_c, 12, 52, 0
15, 82620, Note_on_c, 12, 64, 52
15, 82664, Note_on_c, 12, 64, 0
15, 82680, Note_on_c, 12, 61, 52
15, 82724, Note_on_c, 12, 61, 0
15, 82740, Note_on_c, 12, 64, 52
15, 82784, Note_on_c, 12, 64, 0
15, 82800, Note_on_c, 12, 67, 52
15, 82844, Note_on_c, 12, 67, 0
15, 82860, Note_on_c, 12, 64, 52
15, 82904, Note_on_c, 12, 64, 0
15, 82920, Note_on_c, 12, 61, 52
15, 82964, Note_on_c, 12, 61, 0
15, 82980, Note_on_c, 12, 64, 52
15, 83024, Note_on_c, 12, 64, 0
15, 83040, Note_on_c, 12, 55, 52
15, 83159, Note_on_c, 12, 55, 0
15, 83580, Note_on_c, 12, 53, 52
15, 83624, Note_on_c, 12, 53, 0
15, 83640, Note_on_c, 12, 50, 52
15, 83684, Note_on_c, 12, 50, 0
15, 83700, Note_on_c, 12, 53, 52
15, 83744, Note_on_c, 12, 53, 0
15, 83760, Note_on_c, 12, 57, 52
15, 83804, Note_on_c, 12, 57, 0
15, 83820, Note_on_c, 12, 53, 52
15, 83864, Note_on_c, 12, 53, 0
15, 83880, Note_on_c, 12, 50, 52
15, 83924, Note_on_c, 12, 50, 0
15, 83940, Note_on_c, 12, 62, 52
15, 83984, Note_on_c, 12, 62, 0
15, 84000, Note_on_c, 12, 56, 52
15, 84119, Note_on_c, 12, 56, 0
15, 84540, Note_on_c, 12, 64, 52
15, 84584, Note_on_c, 12, 64, 0
15, 84600, Note_on_c, 12, 61, 52
15, 84644, Note_on_c, 12, 61, 0
15, 84660, Note_on_c, 12, 64, 52
15, 84704, Note_on_c, 12, 64, 0
15, 84720, Note_on_c, 12, 67, 52
15, 84764, Note_on_c, 12, 67, 0
15, 84780, Note_on_c, 12, 64, 52
15, 84824, Note_on_c, 12, 64, 0
15, 84840, Note_on_c, 12, 61, 52
15, 84884, Note_on_c, 12, 61, 0
15, 84900, Note_on_c, 12, 64, 52
15, 84944, Note_on_c, 12, 64, 0
15, 84960, Note_on_c, 12, 55, 52
15, 85079, Note_on_c, 12, 55, 0
15, 85500, Note_on_c, 12, 53, 58
15, 85544, Note_on_c, 12, 53, 0
15, 85560, Note_on_c, 12, 50, 58
15, 85604, Note_on_c, 12, 50, 0
15, 85620, Note_on_c, 12, 53, 59
15, 85664, Note_on_c, 12, 53, 0
15, 85680, Note_on_c, 12, 57, 60
15, 85724, Note_on_c, 12, 57, 0
15, 85740, Note_on_c, 12, 53, 60
15, 85784, Note_on_c, 12, 53, 0
15, 85800, Note_on_c, 12, 50, 61
15, 85844, Note_on_c, 12, 50, 0
15, 85860, Note_on_c, 12, 62, 62
15, 85904, Note_on_c, 12, 62, 0
15, 85920, Note_on_c, 12, 56, 62
15, 86039, Note_on_c, 12, 56, 0
15, 86460, Note_on_c, 12, 64, 67
15, 86504, Note_on_c, 12, 64, 0
15, 86520, Note_on_c, 12, 61, 65
15, 86564, Note_on_c, 12, 61, 0
15, 86580, Note_on_c, 12, 64, 64
15, 86624, Note_on_c, 12, 64, 0
15, 86640, Note_on_c, 12, 67, 62
15, 86684, Note_on_c, 12, 67, 0
15, 86700, Note_on_c, 12, 64, 61
15, 86744, Note_on_c, 12, 64, 0
15, 86760, Note_on_c, 12, 61, 59
15, 86804, Note_on_c, 12, 61, 0
15, 86820, Note_on_c, 12, 55, 58
15, 86864, Note_on_c, 12, 55, 0
15, 86880, Note_on_c, 12, 56, 56
15, 86999, Note_on_c, 12, 56, 0
15, 91200, Note_on_c, 12, 60, 44
15, 91253, Note_on_c, 12, 60, 0
15, 91260, Note_on_c, 12, 62, 44
15, 91313, Note_on_c, 12, 62, 0
15, 91320, Note_on_c, 12, 64, 44
15, 91373, Note_on_c, 12, 64, 0
15, 91380, Note_on_c, 12, 62, 44
15, 91433, Note_on_c, 12, 62, 0
15, 91440, Note_on_c, 12, 60, 44
15, 91493, Note_on_c, 12, 60, 0
15, 91500, Note_on_c, 12, 62, 44
15, 91553, Note_on_c, 12, 62, 0
15, 91560, Note_on_c, 12, 60, 44
15, 91613, Note_on_c, 12, 60, 0
15, 91620, Note_on_c, 12, 59, 44
15, 91673, Note_on_c, 12, 59, 0
15, 91680, Note_on_c, 12, 57, 44
15, 91733, Note_on_c, 12, 57, 0
15, 91740, Note_on_c, 12, 59, 44
15, 91793, Note_on_c, 12, 59, 0
15, 91800, Note_on_c, 12, 60, 44
15, 91853, Note_on_c, 12, 60, 0
15, 91860, Note_on_c, 12, 62, 44
15, 91913, Note_on_c, 12, 62, 0
15, 91920, Note_on_c, 12, 64, 44
15, 91973, Note_on_c, 12, 64, 0
15, 91980, Note_on_c, 12, 66, 44
15, 92033, Note_on_c, 12, 66, 0
15, 92040, Note_on_c, 12, 68, 44
15, 92093, Note_on_c, 12, 68, 0
15, 92100, Note_on_c, 12, 69, 44
15, 92153, Note_on_c, 12, 69, 0
15, 92160, Note_on_c, 12, 68, 44
15, 92213, Note_on_c, 12, 68, 0
15, 92220, Note_on_c, 12, 64, 44
15, 92273, Note_on_c, 12, 64, 0
15, 92280, Note_on_c, 12, 66, 44
15, 92333, Note_on_c, 12, 66, 0
15, 92340, Note_on_c, 12, 68, 44
15, 92393, Note_on_c, 12, 68, 0
15, 92400, Note_on_c, 12, 69, 44
15, 92453, Note_on_c, 12, 69, 0
15, 92460, Note_on_c, 12, 71, 44
15, 92513, Note_on_c, 12, 71, 0
15, 92520, Note_on_c, 12, 69, 44
15, 92573, Note_on_c, 12, 69, 0
15, 92580, Note_on_c, 12, 67, 44
15, 92633, Note_on_c, 12, 67, 0
15, 92640, Note_on_c, 12, 66, 44
15, 92693, Note_on_c, 12, 66, 0
15, 92700, Note_on_c, 12, 66, 44
15, 92753, Note_on_c, 12, 66, 0
15, 92760, Note_on_c, 12, 67, 44
15, 92813, Note_on_c, 12, 67, 0
15, 92820, Note_on_c, 12, 69, 44
15, 92873, Note_on_c, 12, 69, 0
15, 92880, Note_on_c, 12, 71, 44
15, 92933, Note_on_c, 12, 71, 0
15, 92940, Note_on_c, 12, 59, 44
15, 92993, Note_on_c, 12, 59, 0
15, 93000, Note_on_c, 12, 61, 44
15, 93053, Note_on_c, 12, 61, 0
15, 93060, Note_on_c, 12, 63, 44
15, 93113, Note_on_c, 12, 63, 0
15, 93120, Note_on_c, 12, 64, 44
15, 93347, Note_on_c, 12, 64, 0
15, 93360, Note_on_c, 12, 64, 44
15, 93449, Note_on_c, 12, 64, 0
15, 93480, Note_on_c, 12, 66, 44
15, 93569, Note_on_c, 12, 66, 0
15, 93600, Note_on_c, 12, 67, 44
15, 93809, Note_on_c, 12, 67, 0
15, 93840, Note_on_c, 12, 67, 44
15, 94049, Note_on_c, 12, 67, 0
15, 94080, Note_on_c, 12, 66, 44
15, 94307, Note_on_c, 12, 66, 0
15, 94320, Note_on_c, 12, 66, 44
15, 94409, Note_on_c, 12, 66, 0
15, 94440, Note_on_c, 12, 68, 44
15, 94529, Note_on_c, 12, 68, 0
15, 94560, Note_on_c, 12, 69, 44
15, 94649, Note_on_c, 12, 69, 0
15, 94680, Note_on_c, 12, 65, 44
15, 94769, Note_on_c, 12, 65, 0
15, 94800, Note_on_c, 12, 64, 44
15, 94889, Note_on_c, 12, 64, 0
15, 94920, Note_on_c, 12, 62, 44
15, 95009, Note_on_c, 12, 62, 0
15, 95040, Note_on_c, 12, 61, 44
15, 95093, Note_on_c, 12, 61, 0
15, 95100, Note_on_c, 12, 61, 44
15, 95153, Note_on_c, 12, 61, 0
15, 95160, Note_on_c, 12, 62, 44
15, 95213, Note_on_c, 12, 62, 0
15, 95220, Note_on_c, 12, 64, 44
15, 95273, Note_on_c, 12, 64, 0
15, 95280, Note_on_c, 12, 57, 44
15, 95333, Note_on_c, 12, 57, 0
15, 95340, Note_on_c, 12, 57, 44
15, 95393, Note_on_c, 12, 57, 0
15, 95400, Note_on_c, 12, 59, 44
15, 95453, Note_on_c, 12, 59, 0
15, 95460, Note_on_c, 12, 61, 44
15, 95513, Note_on_c, 12, 61, 0
15, 95520, Note_on_c, 12, 62, 44
15, 95609, Note_on_c, 12, 62, 0
15, 95640, Note_on_c, 12, 60, 44
15, 95729, Note_on_c, 12, 60, 0
15, 95760, Note_on_c, 12, 58, 44
15, 95849, Note_on_c, 12, 58, 0
15, 95880, Note_on_c, 12, 57, 44
15, 95969, Note_on_c, 12, 57, 0
15, 96000, Note_on_c, 12, 59, 44
15, 96053, Note_on_c, 12, 59, 0
15, 96060, Note_on_c, 12, 59, 44
15, 96113, Note_on_c, 12, 59, 0
15, 96120, Note_on_c, 12, 60, 44
15, 96173, Note_on_c, 12, 60, 0
15, 96180, Note_on_c, 12, 62, 44
15, 96233, Note_on_c, 12, 62, 0
15, 96240, Note_on_c, 12, 55, 44
15, 96293, Note_on_c, 12, 55, 0
15, 96300, Note_on_c, 12, 55, 44
15, 96353, Note_on_c, 12, 55, 0
15, 96360, Note_on_c, 12, 57, 44
15, 96413, Note_on_c, 12, 57, 0
15, 96420, Note_on_c, 12, 59, 44
15, 96473, Note_on_c, 12, 59, 0
15, 96480, Note_on_c, 12, 60, 44
15, 96719, Note_on_c, 12, 60, 0
15, 97320, Note_on_c, 12, 64, 44
15, 97547, Note_on_c, 12, 64, 0
15, 97560, Note_on_c, 12, 62, 44
15, 97787, Note_on_c, 12, 62, 0
15, 97800, Note_on_c, 12, 62, 44
15, 98027, Note_on_c, 12, 62, 0
15, 98040, Note_on_c, 12, 60, 44
15, 98267, Note_on_c, 12, 60, 0
15, 98280, Note_on_c, 12, 72, 44
15, 98387, Note_on_c, 12, 72, 0
15, 98400, Note_on_c, 12, 58, 44
15, 98453, Note_on_c, 12, 58, 0
15, 98460, Note_on_c, 12, 60, 44
15, 98513, Note_on_c, 12, 60, 0
15, 98520, Note_on_c, 12, 62, 44
15, 98573, Note_on_c, 12, 62, 0
15, 98580, Note_on_c, 12, 60, 44
15, 98633, Note_on_c, 12, 60, 0
15, 98640, Note_on_c, 12, 58, 44
15, 98693, Note_on_c, 12, 58, 0
15, 98700, Note_on_c, 12, 62, 44
15, 98753, Note_on_c, 12, 62, 0
15, 98760, Note_on_c, 12, 60, 44
15, 98813, Note_on_c, 12, 60, 0
15, 98820, Note_on_c, 12, 58, 44
15, 98873, Note_on_c, 12, 58, 0
15, 98880, Note_on_c, 12, 57, 44
15, 98933, Note_on_c, 12, 57, 0
15, 98940, Note_on_c, 12, 58, 44
15, 98993, Note_on_c, 12, 58, 0
15, 99000, Note_on_c, 12, 60, 44
15, 99053, Note_on_c, 12, 60, 0
15, 99060, Note_on_c, 12, 62, 44
15, 99113, Note_on_c, 12, 62, 0
15, 99120, Note_on_c, 12, 64, 44
15, 99173, Note_on_c, 12, 64, 0
15, 99180, Note_on_c, 12, 65, 44
15, 99233, Note_on_c, 12, 65, 0
15, 99240, Note_on_c, 12, 67, 44
15, 99293, Note_on_c, 12, 67, 0
15, 99300, Note_on_c, 12, 69, 44
15, 99353, Note_on_c, 12, 69, 0
15, 99360, Note_on_c, 12, 59, 44
15, 99587, Note_on_c, 12, 59, 0
15, 99600, Note_on_c, 12, 59, 44
15, 99689, Note_on_c, 12, 59, 0
15, 99720, Note_on_c, 12, 61, 44
15, 99809, Note_on_c, 12, 61, 0
15, 99840, Note_on_c, 12, 62, 44
15, 100049, Note_on_c, 12, 62, 0
15, 100080, Note_on_c, 12, 62, 44
15, 100289, Note_on_c, 12, 62, 0
15, 100320, Note_on_c, 12, 59, 44
15, 100320, Note_on_c, 12, 62, 44
15, 100373, Note_on_c, 12, 59, 0
15, 100373, Note_on_c, 12, 62, 0
15, 100380, Note_on_c, 12, 59, 45
15, 100380, Note_on_c, 12, 62, 45
15, 100433, Note_on_c, 12, 59, 0
15, 100433, Note_on_c, 12, 62, 0
15, 100440, Note_on_c, 12, 59, 46
15, 100440, Note_on_c, 12, 62, 46
15, 100493, Note_on_c, 12, 59, 0
15, 100493, Note_on_c, 12, 62, 0
15, 100500, Note_on_c, 12, 59, 47
15, 100500, Note_on_c, 12, 62, 47
15, 100553, Note_on_c, 12, 59, 0
15, 100553, Note_on_c, 12, 62, 0
15, 100560, Note_on_c, 12, 62, 49
15, 100560, Note_on_c, 12, 59, 49
15, 100613, Note_on_c, 12, 62, 0
15, 100613, Note_on_c, 12, 59, 0
15, 100620, Note_on_c, 12, 62, 50
15, 100620, Note_on_c, 12, 59, 50
15, 100673, Note_on_c, 12, 62, 0
15, 100673, Note_on_c, 12, 59, 0
15, 100680, Note_on_c, 12, 59, 51
15, 100680, Note_on_c, 12, 62, 51
15, 100733, Note_on_c, 12, 59, 0
15, 100733, Note_on_c, 12, 62, 0
15, 100740, Note_on_c, 12, 62, 52
15, 100740, Note_on_c, 12, 59, 52
15, 100793, Note_on_c, 12, 62, 0
15, 100793, Note_on_c, 12, 59, 0
15, 100800, Note_on_c, 12, 59, 54
15, 100800, Note_on_c, 12, 62, 54
15, 100853, Note_on_c, 12, 59, 0
15, 100853, Note_on_c, 12, 62, 0
15, 100860, Note_on_c, 12, 59, 55
15, 100860, Note_on_c, 12, 62, 55
15, 100913, Note_on_c, 12, 59, 0
15, 100913, Note_on_c, 12, 62, 0
15, 100920, Note_on_c, 12, 59, 56
15, 100920, Note_on_c, 12, 62, 56
15, 100973, Note_on_c, 12, 59, 0
15, 100973, Note_on_c, 12, 62, 0
15, 100980, Note_on_c, 12, 59, 57
15, 100980, Note_on_c, 12, 62, 57
15, 101033, Note_on_c, 12, 59, 0
15, 101033, Note_on_c, 12, 62, 0
15, 101040, Note_on_c, 12, 62, 59
15, 101040, Note_on_c, 12, 59, 59
15, 101093, Note_on_c, 12, 62, 0
15, 101093, Note_on_c, 12, 59, 0
15, 101100, Note_on_c, 12, 62, 60
15, 101100, Note_on_c, 12, 59, 60
15, 101153, Note_on_c, 12, 62, 0
15, 101153, Note_on_c, 12, 59, 0
15, 101160, Note_on_c, 12, 59, 61
15, 101160, Note_on_c, 12, 62, 61
15, 101213, Note_on_c, 12, 59, 0
15, 101213, Note_on_c, 12, 62, 0
15, 101220, Note_on_c, 12, 59, 62
15, 101220, Note_on_c, 12, 62, 62
15, 101273, Note_on_c, 12, 59, 0
15, 101273, Note_on_c, 12, 62, 0
15, 101280, Note_on_c, 12, 59, 64
15, 101280, Note_on_c, 12, 62, 64
15, 101333, Note_on_c, 12, 59, 0
15, 101333, Note_on_c, 12, 62, 0
15, 101340, Note_on_c, 12, 62, 65
15, 101340, Note_on_c, 12, 59, 65
15, 101393, Note_on_c, 12, 62, 0
15, 101393, Note_on_c, 12, 59, 0
15, 101400, Note_on_c, 12, 62, 66
15, 101400, Note_on_c, 12, 59, 66
15, 101453, Note_on_c, 12, 62, 0
15, 101453, Note_on_c, 12, 59, 0
15, 101460, Note_on_c, 12, 59, 67
15, 101460, Note_on_c, 12, 62, 67
15, 101513, Note_on_c, 12, 59, 0
15, 101513, Note_on_c, 12, 62, 0
15, 101520, Note_on_c, 12, 62, 69
15, 101520, Note_on_c, 12, 59, 69
15, 101573, Note_on_c, 12, 62, 0
15, 101573, Note_on_c, 12, 59, 0
15, 101580, Note_on_c, 12, 59, 70
15, 101580, Note_on_c, 12, 62, 70
15, 101633, Note_on_c, 12, 59, 0
15, 101633, Note_on_c, 12, 62, 0
15, 101640, Note_on_c, 12, 59, 71
15, 101640, Note_on_c, 12, 62, 71
15, 101693, Note_on_c, 12, 59, 0
15, 101693, Note_on_c, 12, 62, 0
15, 101700, Note_on_c, 12, 59, 72
15, 101700, Note_on_c, 12, 62, 72
15, 101753, Note_on_c, 12, 59, 0
15, 101753, Note_on_c, 12, 62, 0
15, 101760, Note_on_c, 12, 59, 74
15, 101760, Note_on_c, 12, 62, 74
15, 101813, Note_on_c, 12, 59, 0
15, 101813, Note_on_c, 12, 62, 0
15, 101820, Note_on_c, 12, 59, 75
15, 101873, Note_on_c, 12, 59, 0
15, 101880, Note_on_c, 12, 59, 76
15, 101933, Note_on_c, 12, 59, 0
15, 101940, Note_on_c, 12, 59, 77
15, 101993, Note_on_c, 12, 59, 0
15, 102000, Note_on_c, 12, 59, 79
15, 102053, Note_on_c, 12, 59, 0
15, 102060, Note_on_c, 12, 59, 80
15, 102113, Note_on_c, 12, 59, 0
15, 102120, Note_on_c, 12, 64, 81
15, 102173, Note_on_c, 12, 64, 0
15, 102180, Note_on_c, 12, 62, 82
15, 102233, Note_on_c, 12, 62, 0
15, 102240, Note_on_c, 12, 60, 84
15, 102240, Note_on_c, 12, 52, 84
15, 102467, Note_on_c, 12, 60, 0
15, 102467, Note_on_c, 12, 52, 0
15, 102480, Note_on_c, 12, 60, 84
15, 102480, Note_on_c, 12, 52, 84
15, 102569, Note_on_c, 12, 60, 0
15, 102569, Note_on_c, 12, 52, 0
15, 102600, Note_on_c, 12, 52, 84
15, 102600, Note_on_c, 12, 60, 84
15, 102689, Note_on_c, 12, 52, 0
15, 102689, Note_on_c, 12, 60, 0
15, 102720, Note_on_c, 12, 59, 84
15, 102720, Note_on_c, 12, 52, 84
15, 102929, Note_on_c, 12, 59, 0
15, 102929, Note_on_c, 12, 52, 0
15, 102960, Note_on_c, 12, 52, 84
15, 102960, Note_on_c, 12, 59, 84
15, 103169, Note_on_c, 12, 52, 0
15, 103169, Note_on_c, 12, 59, 0
15, 103200, Note_on_c, 12, 59, 84
15, 103200, Note_on_c, 12, 52, 84
15, 103427, Note_on_c, 12, 59, 0
15, 103427, Note_on_c, 12, 52, 0
15, 103440, Note_on_c, 12, 59, 84
15, 103440, Note_on_c, 12, 52, 84
15, 103529, Note_on_c, 12, 59, 0
15, 103529, Note_on_c, 12, 52, 0
15, 103560, Note_on_c, 12, 52, 84
15, 103560, Note_on_c, 12, 59, 84
15, 103649, Note_on_c, 12, 52, 0
15, 103649, Note_on_c, 12, 59, 0
15, 103680, Note_on_c, 12, 52, 84
15, 103680, Note_on_c, 12, 60, 84
15, 103889, Note_on_c, 12, 52, 0
15, 103889, Note_on_c, 12, 60, 0
15, 103920, Note_on_c, 12, 52, 84
15, 103920, Note_on_c, 12, 60, 84
15, 104129, Note_on_c, 12, 52, 0
15, 104129, Note_on_c, 12, 60, 0
15, 104160, Note_on_c, 12, 60, 84
15, 104160, Note_on_c, 12, 52, 84
15, 104387, Note_on_c, 12, 60, 0
15, 104387, Note_on_c, 12, 52, 0
15, 104400, Note_on_c, 12, 60, 84
15, 104400, Note_on_c, 12, 52, 84
15, 104489, Note_on_c, 12, 60, 0
15, 104489, Note_on_c, 12, 52, 0
15, 104520, Note_on_c, 12, 52, 84
15, 104520, Note_on_c, 12, 60, 84
15, 104609, Note_on_c, 12, 52, 0
15, 104609, Note_on_c, 12, 60, 0
15, 104640, Note_on_c, 12, 52, 84
15, 104640, Note_on_c, 12, 62, 84
15, 104849, Note_on_c, 12, 52, 0
15, 104849, Note_on_c, 12, 62, 0
15, 104880, Note_on_c, 12, 60, 84
15, 104880, Note_on_c, 12, 52, 84
15, 105089, Note_on_c, 12, 60, 0
15, 105089, Note_on_c, 12, 52, 0
15, 105120, Note_on_c, 12, 52, 84
15, 105120, Note_on_c, 12, 59, 84
15, 105347, Note_on_c, 12, 52, 0
15, 105347, Note_on_c, 12, 59, 0
15, 105360, Note_on_c, 12, 57, 84
15, 105360, Note_on_c, 12, 52, 84
15, 105449, Note_on_c, 12, 57, 0
15, 105449, Note_on_c, 12, 52, 0
15, 105480, Note_on_c, 12, 52, 84
15, 105480, Note_on_c, 12, 59, 84
15, 105569, Note_on_c, 12, 52, 0
15, 105569, Note_on_c, 12, 59, 0
15, 105600, Note_on_c, 12, 60, 84
15, 105600, Note_on_c, 12, 52, 84
15, 105839, Note_on_c, 12, 60, 0
15, 105839, Note_on_c, 12, 52, 0
15, 107280, Control_c, 12, 11, 96
15, 107520, Note_on_c, 12, 49, 68
15, 107520, Note_on_c, 12, 52, 68
15, 107999, Note_on_c, 12, 49, 0
15, 107999, Note_on_c, 12, 52, 0
15, 108000, Note_on_c, 12, 49, 68
15, 108000, Note_on_c, 12, 52, 68
15, 108467, Note_on_c, 12, 49, 0
15, 108467, Note_on_c, 12, 52, 0
15, 108480, Note_on_c, 12, 50, 68
15, 108480, Note_on_c, 12, 54, 68
15, 108840, Control_c, 12, 11, 96
15, 108875, Control_c, 12, 11, 97
15, 108910, Control_c, 12, 11, 98
15, 108945, Control_c, 12, 11, 99
15, 108979, Control_c, 12, 11, 100
15, 109014, Control_c, 12, 11, 101
15, 109049, Control_c, 12, 11, 102
15, 109084, Control_c, 12, 11, 103
15, 109119, Control_c, 12, 11, 104
15, 109154, Control_c, 12, 11, 105
15, 109188, Control_c, 12, 11, 106
15, 109199, Note_on_c, 12, 50, 0
15, 109199, Note_on_c, 12, 54, 0
15, 109200, Note_on_c, 12, 49, 68
15, 109200, Note_on_c, 12, 52, 68
15, 109223, Control_c, 12, 11, 107
15, 109258, Control_c, 12, 11, 108
15, 109293, Control_c, 12, 11, 109
15, 109319, Note_on_c, 12, 49, 0
15, 109319, Note_on_c, 12, 52, 0
15, 109320, Note_on_c, 12, 61, 68
15, 109328, Control_c, 12, 11, 110
15, 109363, Control_c, 12, 11, 111
15, 109397, Control_c, 12, 11, 112
15, 109427, Note_on_c, 12, 61, 0
15, 109432, Control_c, 12, 11, 113
15, 109440, Note_on_c, 12, 62, 68
15, 109440, Note_on_c, 12, 59, 68
15, 109467, Control_c, 12, 11, 114
15, 109502, Control_c, 12, 11, 115
15, 109537, Control_c, 12, 11, 116
15, 109572, Control_c, 12, 11, 117
15, 109606, Control_c, 12, 11, 118
15, 109641, Control_c, 12, 11, 119
15, 109676, Control_c, 12, 11, 120
15, 109679, Note_on_c, 12, 62, 0
15, 109679, Note_on_c, 12, 59, 0
15, 109680, Note_on_c, 12, 61, 68
15, 109680, Note_on_c, 12, 57, 68
15, 109711, Control_c, 12, 11, 121
15, 109746, Control_c, 12, 11, 122
15, 109781, Control_c, 12, 11, 123
15, 109799, Note_on_c, 12, 61, 0
15, 109799, Note_on_c, 12, 57, 0
15, 109800, Note_on_c, 12, 49, 68
15, 109800, Note_on_c, 12, 52, 68
15, 109815, Control_c, 12, 11, 124
15, 109850, Control_c, 12, 11, 125
15, 109885, Control_c, 12, 11, 127
15, 109907, Note_on_c, 12, 49, 0
15, 109907, Note_on_c, 12, 52, 0
15, 109920, Control_c, 12, 11, 127
15, 109920, Note_on_c, 12, 50, 68
15, 109920, Note_on_c, 12, 54, 68
15, 109955, Control_c, 12, 11, 126
15, 109990, Control_c, 12, 11, 125
15, 110025, Control_c, 12, 11, 124
15, 110059, Control_c, 12, 11, 123
15, 110094, Control_c, 12, 11, 122
15, 110129, Control_c, 12, 11, 121
15, 110159, Note_on_c, 12, 50, 0
15, 110159, Note_on_c, 12, 54, 0
15, 110160, Note_on_c, 12, 52, 68
15, 110164, Control_c, 12, 11, 120
15, 110199, Control_c, 12, 11, 119
15, 110234, Control_c, 12, 11, 118
15, 110268, Control_c, 12, 11, 117
15, 110303, Control_c, 12, 11, 116
15, 110338, Control_c, 12, 11, 115
15, 110373, Control_c, 12, 11, 114
15, 110399, Note_on_c, 12, 52, 0
15, 110400, Note_on_c, 12, 54, 68
15, 110408, Control_c, 12, 11, 113
15, 110443, Control_c, 12, 11, 112
15, 110477, Control_c, 12, 11, 111
15, 110512, Control_c, 12, 11, 110
15, 110547, Control_c, 12, 11, 109
15, 110582, Control_c, 12, 11, 108
15, 110617, Control_c, 12, 11, 107
15, 110639, Note_on_c, 12, 54, 0
15, 110640, Note_on_c, 12, 56, 68
15, 110652, Control_c, 12, 11, 106
15, 110686, Control_c, 12, 11, 105
15, 110721, Control_c, 12, 11, 104
15, 110756, Control_c, 12, 11, 103
15, 110791, Control_c, 12, 11, 102
15, 110826, Control_c, 12, 11, 101
15, 110861, Control_c, 12, 11, 100
15, 110867, Note_on_c, 12, 56, 0
15, 110880, Note_on_c, 12, 56, 68
15, 110895, Control_c, 12, 11, 99
15, 110930, Control_c, 12, 11, 98
15, 110965, Control_c, 12, 11, 96
15, 111119, Note_on_c, 12, 56, 0
15, 111120, Note_on_c, 12, 52, 68
15, 111227, Note_on_c, 12, 52, 0
15, 111240, Note_on_c, 12, 52, 68
15, 111347, Note_on_c, 12, 52, 0
15, 111360, Note_on_c, 12, 52, 68
15, 111360, Control_c, 12, 11, 96
15, 111422, Control_c, 12, 11, 97
15, 111484, Control_c, 12, 11, 98
15, 111546, Control_c, 12, 11, 99
15, 111599, Note_on_c, 12, 52, 0
15, 111600, Note_on_c, 12, 49, 68
15, 111608, Control_c, 12, 11, 100
15, 111670, Control_c, 12, 11, 101
15, 111732, Control_c, 12, 11, 102
15, 111794, Control_c, 12, 11, 103
15, 111855, Control_c, 12, 11, 104
15, 111917, Control_c, 12, 11, 105
15, 111979, Control_c, 12, 11, 106
15, 112041, Control_c, 12, 11, 107
15, 112103, Control_c, 12, 11, 108
15, 112165, Control_c, 12, 11, 109
15, 112227, Control_c, 12, 11, 110
15, 112289, Control_c, 12, 11, 111
15, 112351, Control_c, 12, 11, 112
15, 112413, Control_c, 12, 11, 113
15, 112475, Control_c, 12, 11, 114
15, 112537, Control_c, 12, 11, 115
15, 112559, Note_on_c, 12, 49, 0
15, 112560, Note_on_c, 12, 50, 68
15, 112599, Control_c, 12, 11, 116
15, 112661, Control_c, 12, 11, 117
15, 112723, Control_c, 12, 11, 118
15, 112785, Control_c, 12, 11, 119
15, 112846, Control_c, 12, 11, 120
15, 112908, Control_c, 12, 11, 121
15, 112970, Control_c, 12, 11, 122
15, 113032, Control_c, 12, 11, 123
15, 113039, Note_on_c, 12, 50, 0
15, 113040, Note_on_c, 12, 52, 68
15, 113094, Control_c, 12, 11, 124
15, 113156, Control_c, 12, 11, 125
15, 113218, Control_c, 12, 11, 127
15, 113267, Note_on_c, 12, 52, 0
15, 113280, Control_c, 12, 11, 127
15, 113280, Note_on_c, 12, 54, 68
15, 113326, Control_c, 12, 11, 126
15, 113373, Control_c, 12, 11, 125
15, 113419, Control_c, 12, 11, 124
15, 113466, Control_c, 12, 11, 123
15, 113512, Control_c, 12, 11, 122
15, 113519, Note_on_c, 12, 54, 0
15, 113520, Note_on_c, 12, 52, 68
15, 113559, Control_c, 12, 11, 121
15, 113605, Control_c, 12, 11, 120
15, 113652, Control_c, 12, 11, 119
15, 113698, Control_c, 12, 11, 118
15, 113745, Control_c, 12, 11, 117
15, 113759, Note_on_c, 12, 52, 0
15, 113760, Note_on_c, 12, 54, 68
15, 113791, Control_c, 12, 11, 116
15, 113837, Control_c, 12, 11, 115
15, 113884, Control_c, 12, 11, 114
15, 113930, Control_c, 12, 11, 113
15, 113977, Control_c, 12, 11, 112
15, 113999, Note_on_c, 12, 54, 0
15, 114000, Note_on_c, 12, 56, 68
15, 114023, Control_c, 12, 11, 111
15, 114070, Control_c, 12, 11, 110
15, 114116, Control_c, 12, 11, 109
15, 114163, Control_c, 12, 11, 108
15, 114209, Control_c, 12, 11, 107
15, 114227, Note_on_c, 12, 56, 0
15, 114240, Note_on_c, 12, 52, 68
15, 114255, Control_c, 12, 11, 106
15, 114302, Control_c, 12, 11, 105
15, 114348, Control_c, 12, 11, 104
15, 114395, Control_c, 12, 11, 103
15, 114441, Control_c, 12, 11, 102
15, 114488, Control_c, 12, 11, 101
15, 114534, Control_c, 12, 11, 100
15, 114581, Control_c, 12, 11, 99
15, 114627, Control_c, 12, 11, 98
15, 114674, Control_c, 12, 11, 97
15, 114719, Note_on_c, 12, 52, 0
15, 114720, Note_on_c, 12, 54, 68
15, 114720, Control_c, 12, 11, 96
15, 114810, Control_c, 12, 11, 95
15, 114900, Control_c, 12, 11, 94
15, 114959, Note_on_c, 12, 54, 0
15, 114960, Note_on_c, 12, 56, 68
15, 114990, Control_c, 12, 11, 93
15, 115080, Control_c, 12, 11, 92
15, 115170, Control_c, 12, 11, 91
15, 115187, Note_on_c, 12, 56, 0
15, 115200, Note_on_c, 12, 52, 68
15, 115260, Control_c, 12, 11, 90
15, 115350, Control_c, 12, 11, 89
15, 115440, Control_c, 12, 11, 88
15, 115530, Control_c, 12, 11, 87
15, 115620, Control_c, 12, 11, 86
15, 115679, Note_on_c, 12, 52, 0
15, 115680, Note_on_c, 12, 54, 68
15, 115710, Control_c, 12, 11, 85
15, 115800, Control_c, 12, 11, 84
15, 115890, Control_c, 12, 11, 83
15, 115919, Note_on_c, 12, 54, 0
15, 115920, Note_on_c, 12, 56, 68
15, 115980, Control_c, 12, 11, 82
15, 116070, Control_c, 12, 11, 80
15, 116147, Note_on_c, 12, 56, 0
15, 116160, Note_on_c, 12, 52, 68
15, 116639, Note_on_c, 12, 52, 0
15, 116640, Note_on_c, 12, 57, 68
15, 117119, Note_on_c, 12, 57, 0
15, 117120, Note_on_c, 12, 55, 68
15, 117599, Note_on_c, 12, 55, 0
15, 117600, Note_on_c, 12, 53, 68
15, 118067, Note_on_c, 12, 53, 0
15, 118078, Control_c, 12, 11, 127
15, 118080, Note_on_c, 12, 55, 84
15, 118199, Note_on_c, 12, 55, 0
15, 118320, Note_on_c, 12, 55, 84
15, 118320, Note_on_c, 12, 67, 84
15, 118439, Note_on_c, 12, 55, 0
15, 118439, Note_on_c, 12, 67, 0
15, 118560, Note_on_c, 12, 48, 84
15, 118560, Note_on_c, 12, 60, 84
15, 118799, Note_on_c, 12, 48, 0
15, 118799, Note_on_c, 12, 60, 0
15, 119040, Note_on_c, 12, 59, 52
15, 119273, Note_on_c, 12, 59, 0
15, 119280, Note_on_c, 12, 59, 52
15, 119369, Note_on_c, 12, 59, 0
15, 119400, Note_on_c, 12, 59, 52
15, 119489, Note_on_c, 12, 59, 0
15, 119520, Note_on_c, 12, 57, 52
15, 119639, Note_on_c, 12, 57, 0
15, 120000, Note_on_c, 12, 55, 84
15, 120119, Note_on_c, 12, 55, 0
15, 120240, Note_on_c, 12, 67, 84
15, 120240, Note_on_c, 12, 55, 84
15, 120359, Note_on_c, 12, 67, 0
15, 120359, Note_on_c, 12, 55, 0
15, 120480, Note_on_c, 12, 60, 84
15, 120480, Note_on_c, 12, 48, 84
15, 120719, Note_on_c, 12, 60, 0
15, 120719, Note_on_c, 12, 48, 0
15, 120960, Note_on_c, 12, 59, 52
15, 121193, Note_on_c, 12, 59, 0
15, 121200, Note_on_c, 12, 59, 52
15, 121289, Note_on_c, 12, 59, 0
15, 121320, Note_on_c, 12, 59, 52
15, 121409, Note_on_c, 12, 59, 0
15, 121920, Program_c, 12, 45
15, 122160, Note_on_c, 12, 57, 44
15, 122399, Note_on_c, 12, 57, 0
15, 122640, Note_on_c, 12, 52, 44
15, 122879, Note_on_c, 12, 52, 0
15, 123120, Note_on_c, 12, 52, 44
15, 123359, Note_on_c, 12, 52, 0
15, 123600, Note_on_c, 12, 57, 44
15, 123839, Note_on_c, 12, 57, 0
15, 124080, Note_on_c, 12, 57, 44
15, 124319, Note_on_c, 12, 57, 0
15, 124560, Note_on_c, 12, 55, 44
15, 124799, Note_on_c, 12, 55, 0
15, 124800, Note_on_c, 12, 55, 44
15, 125039, Note_on_c, 12, 55, 0
15, 125040, Note_on_c, 12, 55, 44
15, 125159, Note_on_c, 12, 55, 0
15, 125160, Note_on_c, 12, 55, 44
15, 125279, Note_on_c, 12, 55, 0
15, 125280, Note_on_c, 12, 55, 44
15, 125519, Note_on_c, 12, 55, 0
15, 126000, Note_on_c, 12, 60, 44
15, 126239, Note_on_c, 12, 60, 0
15, 126480, Note_on_c, 12, 59, 44
15, 126719, Note_on_c, 12, 59, 0
15, 126960, Note_on_c, 12, 64, 44
15, 127199, Note_on_c, 12, 64, 0
15, 127440, Note_on_c, 12, 57, 44
15, 127679, Note_on_c, 12, 57, 0
15, 127920, Note_on_c, 12, 52, 44
15, 128159, Note_on_c, 12, 52, 0
15, 128160, Note_on_c, 12, 52, 44
15, 128399, Note_on_c, 12, 52, 0
15, 128400, Note_on_c, 12, 52, 44
15, 128639, Note_on_c, 12, 52, 0
15, 128640, Note_on_c, 12, 52, 44
15, 128879, Note_on_c, 12, 52, 0
15, 128880, Note_on_c, 12, 52, 44
15, 128999, Note_on_c, 12, 52, 0
15, 129000, Note_on_c, 12, 52, 44
15, 129119, Note_on_c, 12, 52, 0
15, 129120, Note_on_c, 12, 52, 44
15, 129359, Note_on_c, 12, 52, 0
15, 130560, Note_on_c, 12, 52, 44
15, 130799, Note_on_c, 12, 52, 0
15, 130800, Note_on_c, 12, 52, 44
15, 130919, Note_on_c, 12, 52, 0
15, 130920, Note_on_c, 12, 52, 44
15, 131039, Note_on_c, 12, 52, 0
15, 131040, Note_on_c, 12, 52, 44
15, 131279, Note_on_c, 12, 52, 0
15, 131280, Note_on_c, 12, 54, 44
15, 131399, Note_on_c, 12, 54, 0
15, 131400, Note_on_c, 12, 56, 44
15, 131519, Note_on_c, 12, 56, 0
15, 131520, Note_on_c, 12, 57, 44
15, 131747, Note_on_c, 12, 57, 0
15, 131758, Program_c, 12, 48
15, 132000, Note_on_c, 12, 57, 76
15, 132239, Note_on_c, 12, 57, 0
15, 132239, End_track
16, 0, Start_track
16, 0, Title_t, "Cello I (to bar 101)"
16, 0, MIDI_port, 0
16, 0, Control_c, 13, 7, 96
16, 0, Control_c, 13, 10, 86
16, 0, Program_c, 13, 48
16, 0, Control_c, 13, 11, 127
16, 960, Note_on_c, 13, 48, 52
16, 1191, Note_on_c, 13, 48, 0
16, 1200, Note_on_c, 13, 48, 52
16, 1289, Note_on_c, 13, 48, 0
16, 1320, Note_on_c, 13, 48, 52
16, 1409, Note_on_c, 13, 48, 0
16, 1440, Note_on_c, 13, 47, 52
16, 1649, Note_on_c, 13, 47, 0
16, 1680, Note_on_c, 13, 47, 52
16, 1889, Note_on_c, 13, 47, 0
16, 1920, Note_on_c, 13, 47, 52
16, 2151, Note_on_c, 13, 47, 0
16, 2160, Note_on_c, 13, 47, 52
16, 2249, Note_on_c, 13, 47, 0
16, 2280, Note_on_c, 13, 47, 52
16, 2369, Note_on_c, 13, 47, 0
16, 2400, Note_on_c, 13, 48, 52
16, 2609, Note_on_c, 13, 48, 0
16, 2640, Note_on_c, 13, 48, 52
16, 2849, Note_on_c, 13, 48, 0
16, 2880, Note_on_c, 13, 48, 52
16, 3111, Note_on_c, 13, 48, 0
16, 3120, Note_on_c, 13, 48, 52
16, 3209, Note_on_c, 13, 48, 0
16, 3240, Note_on_c, 13, 48, 52
16, 3329, Note_on_c, 13, 48, 0
16, 3360, Note_on_c, 13, 48, 52
16, 3569, Note_on_c, 13, 48, 0
16, 3600, Note_on_c, 13, 48, 52
16, 3809, Note_on_c, 13, 48, 0
16, 3840, Note_on_c, 13, 47, 52
16, 4071, Note_on_c, 13, 47, 0
16, 4080, Note_on_c, 13, 45, 52
16, 4169, Note_on_c, 13, 45, 0
16, 4200, Note_on_c, 13, 47, 52
16, 4289, Note_on_c, 13, 47, 0
16, 4320, Note_on_c, 13, 48, 52
16, 4559, Note_on_c, 13, 48, 0
16, 4800, Note_on_c, 13, 52, 52
16, 5031, Note_on_c, 13, 52, 0
16, 5040, Note_on_c, 13, 52, 52
16, 5129, Note_on_c, 13, 52, 0
16, 5160, Note_on_c, 13, 52, 52
16, 5249, Note_on_c, 13, 52, 0
16, 5280, Note_on_c, 13, 51, 52
16, 5489, Note_on_c, 13, 51, 0
16, 5520, Note_on_c, 13, 51, 52
16, 5729, Note_on_c, 13, 51, 0
16, 5760, Note_on_c, 13, 50, 52
16, 5991, Note_on_c, 13, 50, 0
16, 6000, Note_on_c, 13, 50, 52
16, 6089, Note_on_c, 13, 50, 0
16, 6120, Note_on_c, 13, 50, 52
16, 6209, Note_on_c, 13, 50, 0
16, 6240, Note_on_c, 13, 49, 52
16, 6449, Note_on_c, 13, 49, 0
16, 6480, Note_on_c, 13, 48, 52
16, 6689, Note_on_c, 13, 48, 0
16, 6720, Note_on_c, 13, 48, 52
16, 6951, Note_on_c, 13, 48, 0
16, 6960, Note_on_c, 13, 48, 52
16, 7049, Note_on_c, 13, 48, 0
16, 7080, Note_on_c, 13, 48, 52
16, 7169, Note_on_c, 13, 48, 0
16, 7200, Note_on_c, 13, 47, 52
16, 7409, Note_on_c, 13, 47, 0
16, 7440, Note_on_c, 13, 48, 52
16, 7649, Note_on_c, 13, 48, 0
16, 7680, Note_on_c, 13, 47, 52
16, 7911, Note_on_c, 13, 47, 0
16, 7920, Note_on_c, 13, 47, 52
16, 8009, Note_on_c, 13, 47, 0
16, 8040, Note_on_c, 13, 47, 52
16, 8129, Note_on_c, 13, 47, 0
16, 8160, Note_on_c, 13, 48, 52
16, 8399, Note_on_c, 13, 48, 0
16, 8640, Note_on_c, 13, 52, 44
16, 8871, Note_on_c, 13, 52, 0
16, 8880, Note_on_c, 13, 52, 44
16, 8969, Note_on_c, 13, 52, 0
16, 9000, Note_on_c, 13, 52, 44
16, 9089, Note_on_c, 13, 52, 0
16, 9120, Note_on_c, 13, 51, 44
16, 9329, Note_on_c, 13, 51, 0
16, 9360, Note_on_c, 13, 51, 44
16, 9569, Note_on_c, 13, 51, 0
16, 9600, Note_on_c, 13, 50, 44
16, 9831, Note_on_c, 13, 50, 0
16, 9840, Note_on_c, 13, 50, 44
16, 9929, Note_on_c, 13, 50, 0
16, 9960, Note_on_c, 13, 50, 44
16, 10049, Note_on_c, 13, 50, 0
16, 10080, Note_on_c, 13, 49, 44
16, 10289, Note_on_c, 13, 49, 0
16, 10320, Note_on_c, 13, 48, 44
16, 10529, Note_on_c, 13, 48, 0
16, 10560, Note_on_c, 13, 48, 44
16, 10791, Note_on_c, 13, 48, 0
16, 10800, Note_on_c, 13, 48, 44
16, 10889, Note_on_c, 13, 48, 0
16, 10920, Note_on_c, 13, 48, 44
16, 11009, Note_on_c, 13, 48, 0
16, 11040, Note_on_c, 13, 47, 44
16, 11249, Note_on_c, 13, 47, 0
16, 11280, Note_on_c, 13, 48, 44
16, 11489, Note_on_c, 13, 48, 0
16, 11520, Note_on_c, 13, 47, 44
16, 11751, Note_on_c, 13, 47, 0
16, 11760, Note_on_c, 13, 47, 44
16, 11849, Note_on_c, 13, 47, 0
16, 11880, Note_on_c, 13, 47, 44
16, 11969, Note_on_c, 13, 47, 0
16, 12000, Note_on_c, 13, 48, 44
16, 12239, Note_on_c, 13, 48, 0
16, 12480, Note_on_c, 13, 60, 52
16, 12959, Note_on_c, 13, 60, 0
16, 12960, Note_on_c, 13, 59, 52
16, 13367, Note_on_c, 13, 59, 0
16, 13380, Note_on_c, 13, 59, 52
16, 13409, Note_on_c, 13, 59, 0
16, 13410, Note_on_c, 13, 60, 52
16, 13439, Note_on_c, 13, 60, 0
16, 13440, Note_on_c, 13, 62, 52
16, 13799, Note_on_c, 13, 62, 0
16, 13800, Note_on_c, 13, 60, 52
16, 13859, Note_on_c, 13, 60, 0
16, 13860, Note_on_c, 13, 59, 52
16, 13913, Note_on_c, 13, 59, 0
16, 13920, Note_on_c, 13, 59, 52
16, 14039, Note_on_c, 13, 59, 0
16, 14040, Note_on_c, 13, 60, 52
16, 14147, Note_on_c, 13, 60, 0
16, 14160, Note_on_c, 13, 60, 52
16, 14387, Note_on_c, 13, 60, 0
16, 14400, Note_on_c, 13, 60, 52
16, 14747, Note_on_c, 13, 60, 0
16, 14760, Note_on_c, 13, 60, 52
16, 14819, Note_on_c, 13, 60, 0
16, 14820, Note_on_c, 13, 62, 52
16, 14873, Note_on_c, 13, 62, 0
16, 14880, Note_on_c, 13, 63, 52
16, 14999, Note_on_c, 13, 63, 0
16, 15000, Note_on_c, 13, 64, 52
16, 15107, Note_on_c, 13, 64, 0
16, 15120, Note_on_c, 13, 64, 52
16, 15209, Note_on_c, 13, 64, 0
16, 15240, Note_on_c, 13, 64, 52
16, 15299, Note_on_c, 13, 64, 0
16, 15300, Note_on_c, 13, 62, 52
16, 15329, Note_on_c, 13, 62, 0
16, 15330, Note_on_c, 13, 64, 52
16, 15359, Note_on_c, 13, 64, 0
16, 15360, Note_on_c, 13, 65, 52
16, 15719, Note_on_c, 13, 65, 0
16, 15720, Note_on_c, 13, 64, 52
16, 15779, Note_on_c, 13, 64, 0
16, 15780, Note_on_c, 13, 62, 52
16, 15833, Note_on_c, 13, 62, 0
16, 15840, Note_on_c, 13, 62, 52
16, 15959, Note_on_c, 13, 62, 0
16, 15960, Note_on_c, 13, 64, 52
16, 16067, Note_on_c, 13, 64, 0
16, 16080, Note_on_c, 13, 64, 52
16, 16307, Note_on_c, 13, 64, 0
16, 16320, Note_on_c, 13, 64, 52
16, 16799, Note_on_c, 13, 64, 0
16, 16800, Note_on_c, 13, 63, 52
16, 17267, Note_on_c, 13, 63, 0
16, 17280, Note_on_c, 13, 62, 52
16, 17399, Note_on_c, 13, 62, 0
16, 17400, Note_on_c, 13, 59, 52
16, 17459, Note_on_c, 13, 59, 0
16, 17460, Note_on_c, 13, 61, 52
16, 17519, Note_on_c, 13, 61, 0
16, 17520, Note_on_c, 13, 62, 52
16, 17639, Note_on_c, 13, 62, 0
16, 17640, Note_on_c, 13, 64, 52
16, 17699, Note_on_c, 13, 64, 0
16, 17700, Note_on_c, 13, 62, 52
16, 17753, Note_on_c, 13, 62, 0
16, 17760, Note_on_c, 13, 62, 52
16, 17879, Note_on_c, 13, 62, 0
16, 17880, Note_on_c, 13, 61, 52
16, 17987, Note_on_c, 13, 61, 0
16, 18000, Note_on_c, 13, 60, 52
16, 18227, Note_on_c, 13, 60, 0
16, 18240, Note_on_c, 13, 60, 52
16, 18719, Note_on_c, 13, 60, 0
16, 18720, Note_on_c, 13, 59, 52
16, 18959, Note_on_c, 13, 59, 0
16, 18960, Note_on_c, 13, 60, 52
16, 19127, Note_on_c, 13, 60, 0
16, 19140, Note_on_c, 13, 59, 52
16, 19169, Note_on_c, 13, 59, 0
16, 19170, Note_on_c, 13, 60, 52
16, 19199, Note_on_c, 13, 60, 0
16, 19200, Note_on_c, 13, 62, 52
16, 19559, Note_on_c, 13, 62, 0
16, 19560, Note_on_c, 13, 60, 52
16, 19619, Note_on_c, 13, 60, 0
16, 19620, Note_on_c, 13, 59, 52
16, 19673, Note_on_c, 13, 59, 0
16, 19680, Note_on_c, 13, 57, 52
16, 19769, Note_on_c, 13, 57, 0
16, 19800, Note_on_c, 13, 57, 52
16, 19859, Note_on_c, 13, 57, 0
16, 19860, Note_on_c, 13, 59, 52
16, 19919, Note_on_c, 13, 59, 0
16, 19920, Note_on_c, 13, 60, 52
16, 20009, Note_on_c, 13, 60, 0
16, 20040, Note_on_c, 13, 60, 52
16, 20099, Note_on_c, 13, 60, 0
16, 20100, Note_on_c, 13, 62, 52
16, 20159, Note_on_c, 13, 62, 0
16, 20160, Note_on_c, 13, 64, 44
16, 20639, Note_on_c, 13, 64, 0
16, 20640, Note_on_c, 13, 63, 44
16, 21107, Note_on_c, 13, 63, 0
16, 21120, Note_on_c, 13, 62, 44
16, 21239, Note_on_c, 13, 62, 0
16, 21240, Note_on_c, 13, 59, 44
16, 21299, Note_on_c, 13, 59, 0
16, 21300, Note_on_c, 13, 61, 44
16, 21359, Note_on_c, 13, 61, 0
16, 21360, Note_on_c, 13, 62, 44
16, 21479, Note_on_c, 13, 62, 0
16, 21480, Note_on_c, 13, 64, 44
16, 21539, Note_on_c, 13, 64, 0
16, 21540, Note_on_c, 13, 62, 44
16, 21593, Note_on_c, 13, 62, 0
16, 21600, Note_on_c, 13, 62, 44
16, 21719, Note_on_c, 13, 62, 0
16, 21720, Note_on_c, 13, 61, 44
16, 21827, Note_on_c, 13, 61, 0
16, 21840, Note_on_c, 13, 60, 44
16, 22067, Note_on_c, 13, 60, 0
16, 22080, Note_on_c, 13, 60, 44
16, 22559, Note_on_c, 13, 60, 0
16, 22560, Note_on_c, 13, 59, 44
16, 22799, Note_on_c, 13, 59, 0
16, 22800, Note_on_c, 13, 60, 44
16, 22967, Note_on_c, 13, 60, 0
16, 22980, Note_on_c, 13, 59, 44
16, 23009, Note_on_c, 13, 59, 0
16, 23010, Note_on_c, 13, 60, 44
16, 23039, Note_on_c, 13, 60, 0
16, 23040, Note_on_c, 13, 62, 44
16, 23399, Note_on_c, 13, 62, 0
16, 23400, Note_on_c, 13, 60, 44
16, 23459, Note_on_c, 13, 60, 0
16, 23460, Note_on_c, 13, 59, 44
16, 23513, Note_on_c, 13, 59, 0
16, 23520, Note_on_c, 13, 57, 44
16, 23759, Note_on_c, 13, 57, 0
16, 24120, Note_on_c, 13, 57, 44
16, 24239, Note_on_c, 13, 57, 0
16, 24240, Note_on_c, 13, 60, 45
16, 24359, Note_on_c, 13, 60, 0
16, 24360, Note_on_c, 13, 52, 45
16, 24479, Note_on_c, 13, 52, 0
16, 24600, Note_on_c, 13, 56, 46
16, 24719, Note_on_c, 13, 56, 0
16, 24720, Note_on_c, 13, 59, 47
16, 24839, Note_on_c, 13, 59, 0
16, 24840, Note_on_c, 13, 52, 47
16, 24959, Note_on_c, 13, 52, 0
16, 25080, Note_on_c, 13, 56, 48
16, 25199, Note_on_c, 13, 56, 0
16, 25200, Note_on_c, 13, 59, 49
16, 25319, Note_on_c, 13, 59, 0
16, 25320, Note_on_c, 13, 52, 49
16, 25439, Note_on_c, 13, 52, 0
16, 25560, Note_on_c, 13, 57, 50
16, 25679, Note_on_c, 13, 57, 0
16, 25680, Note_on_c, 13, 60, 51
16, 25799, Note_on_c, 13, 60, 0
16, 25800, Note_on_c, 13, 52, 51
16, 25919, Note_on_c, 13, 52, 0
16, 26040, Note_on_c, 13, 57, 52
16, 26159, Note_on_c, 13, 57, 0
16, 26160, Note_on_c, 13, 60, 53
16, 26279, Note_on_c, 13, 60, 0
16, 26280, Note_on_c, 13, 48, 53
16, 26399, Note_on_c, 13, 48, 0
16, 26520, Note_on_c, 13, 55, 54
16, 26639, Note_on_c, 13, 55, 0
16, 26640, Note_on_c, 13, 60, 55
16, 26759, Note_on_c, 13, 60, 0
16, 26760, Note_on_c, 13, 48, 55
16, 26879, Note_on_c, 13, 48, 0
16, 27000, Note_on_c, 13, 59, 56
16, 27119, Note_on_c, 13, 59, 0
16, 27120, Note_on_c, 13, 62, 57
16, 27239, Note_on_c, 13, 62, 0
16, 27240, Note_on_c, 13, 55, 57
16, 27359, Note_on_c, 13, 55, 0
16, 27480, Note_on_c, 13, 55, 58
16, 27599, Note_on_c, 13, 55, 0
16, 27600, Note_on_c, 13, 60, 59
16, 27719, Note_on_c, 13, 60, 0
16, 27720, Note_on_c, 13, 48, 59
16, 27839, Note_on_c, 13, 48, 0
16, 27960, Note_on_c, 13, 60, 60
16, 28079, Note_on_c, 13, 60, 0
16, 28080, Note_on_c, 13, 64, 61
16, 28199, Note_on_c, 13, 64, 0
16, 28200, Note_on_c, 13, 52, 61
16, 28319, Note_on_c, 13, 52, 0
16, 28440, Note_on_c, 13, 54, 62
16, 28559, Note_on_c, 13, 54, 0
16, 28560, Note_on_c, 13, 59, 63
16, 28679, Note_on_c, 13, 59, 0
16, 28680, Note_on_c, 13, 47, 63
16, 28799, Note_on_c, 13, 47, 0
16, 28920, Note_on_c, 13, 59, 64
16, 29039, Note_on_c, 13, 59, 0
16, 29040, Note_on_c, 13, 62, 65
16, 29159, Note_on_c, 13, 62, 0
16, 29160, Note_on_c, 13, 50, 65
16, 29279, Note_on_c, 13, 50, 0
16, 29400, Note_on_c, 13, 52, 66
16, 29519, Note_on_c, 13, 52, 0
16, 29520, Note_on_c, 13, 57, 67
16, 29639, Note_on_c, 13, 57, 0
16, 29640, Note_on_c, 13, 45, 67
16, 29759, Note_on_c, 13, 45, 0
16, 29880, Note_on_c, 13, 57, 68
16, 29999, Note_on_c, 13, 57, 0
16, 30000, Note_on_c, 13, 64, 69
16, 30119, Note_on_c, 13, 64, 0
16, 30120, Note_on_c, 13, 52, 69
16, 30239, Note_on_c, 13, 52, 0
16, 30360, Note_on_c, 13, 59, 70
16, 30479, Note_on_c, 13, 59, 0
16, 30480, Note_on_c, 13, 64, 71
16, 30599, Note_on_c, 13, 64, 0
16, 30600, Note_on_c, 13, 52, 71
16, 30719, Note_on_c, 13, 52, 0
16, 30840, Note_on_c, 13, 59, 72
16, 30959, Note_on_c, 13, 59, 0
16, 30960, Note_on_c, 13, 64, 73
16, 31079, Note_on_c, 13, 64, 0
16, 31080, Note_on_c, 13, 52, 73
16, 31199, Note_on_c, 13, 52, 0
16, 31320, Note_on_c, 13, 60, 74
16, 31439, Note_on_c, 13, 60, 0
16, 31440, Note_on_c, 13, 64, 75
16, 31559, Note_on_c, 13, 64, 0
16, 31560, Note_on_c, 13, 57, 75
16, 31679, Note_on_c, 13, 57, 0
16, 31800, Note_on_c, 13, 60, 76
16, 31919, Note_on_c, 13, 60, 0
16, 31920, Note_on_c, 13, 64, 76
16, 32039, Note_on_c, 13, 64, 0
16, 32040, Note_on_c, 13, 52, 76
16, 32159, Note_on_c, 13, 52, 0
16, 32280, Note_on_c, 13, 54, 76
16, 32399, Note_on_c, 13, 54, 0
16, 32400, Note_on_c, 13, 59, 76
16, 32519, Note_on_c, 13, 59, 0
16, 32520, Note_on_c, 13, 47, 76
16, 32639, Note_on_c, 13, 47, 0
16, 32760, Note_on_c, 13, 59, 80
16, 32879, Note_on_c, 13, 59, 0
16, 32880, Note_on_c, 13, 62, 80
16, 32999, Note_on_c, 13, 62, 0
16, 33000, Note_on_c, 13, 50, 80
16, 33119, Note_on_c, 13, 50, 0
16, 33240, Note_on_c, 13, 52, 80
16, 33359, Note_on_c, 13, 52, 0
16, 33360, Note_on_c, 13, 57, 80
16, 33479, Note_on_c, 13, 57, 0
16, 33480, Note_on_c, 13, 45, 80
16, 33599, Note_on_c, 13, 45, 0
16, 33720, Note_on_c, 13, 57, 80
16, 33839, Note_on_c, 13, 57, 0
16, 33840, Note_on_c, 13, 64, 80
16, 33959, Note_on_c, 13, 64, 0
16, 33960, Note_on_c, 13, 52, 80
16, 34079, Note_on_c, 13, 52, 0
16, 34200, Note_on_c, 13, 59, 80
16, 34319, Note_on_c, 13, 59, 0
16, 34320, Note_on_c, 13, 64, 80
16, 34439, Note_on_c, 13, 64, 0
16, 34440, Note_on_c, 13, 52, 80
16, 34559, Note_on_c, 13, 52, 0
16, 34680, Note_on_c, 13, 59, 80
16, 34799, Note_on_c, 13, 59, 0
16, 34800, Note_on_c, 13, 64, 80
16, 34919, Note_on_c, 13, 64, 0
16, 34920, Note_on_c, 13, 52, 80
16, 35039, Note_on_c, 13, 52, 0
16, 35160, Note_on_c, 13, 60, 80
16, 35279, Note_on_c, 13, 60, 0
16, 35280, Note_on_c, 13, 64, 80
16, 35399, Note_on_c, 13, 64, 0
16, 35400, Note_on_c, 13, 57, 80
16, 35519, Note_on_c, 13, 57, 0
16, 35520, Note_on_c, 13, 45, 84
16, 35579, Note_on_c, 13, 45, 0
16, 35600, Note_on_c, 13, 57, 84
16, 35659, Note_on_c, 13, 57, 0
16, 35680, Note_on_c, 13, 60, 84
16, 35739, Note_on_c, 13, 60, 0
16, 35760, Note_on_c, 13, 45, 84
16, 35987, Note_on_c, 13, 45, 0
16, 36000, Note_on_c, 13, 44, 84
16, 36059, Note_on_c, 13, 44, 0
16, 36080, Note_on_c, 13, 56, 84
16, 36139, Note_on_c, 13, 56, 0
16, 36160, Note_on_c, 13, 59, 84
16, 36219, Note_on_c, 13, 59, 0
16, 36240, Note_on_c, 13, 44, 84
16, 36467, Note_on_c, 13, 44, 0
16, 36480, Note_on_c, 13, 40, 84
16, 36539, Note_on_c, 13, 40, 0
16, 36560, Note_on_c, 13, 56, 84
16, 36619, Note_on_c, 13, 56, 0
16, 36640, Note_on_c, 13, 59, 84
16, 36699, Note_on_c, 13, 59, 0
16, 36720, Note_on_c, 13, 40, 84
16, 36947, Note_on_c, 13, 40, 0
16, 36960, Note_on_c, 13, 45, 84
16, 37019, Note_on_c, 13, 45, 0
16, 37040, Note_on_c, 13, 57, 84
16, 37099, Note_on_c, 13, 57, 0
16, 37120, Note_on_c, 13, 60, 84
16, 37179, Note_on_c, 13, 60, 0
16, 37200, Note_on_c, 13, 45, 84
16, 37427, Note_on_c, 13, 45, 0
16, 37440, Note_on_c, 13, 45, 84
16, 37499, Note_on_c, 13, 45, 0
16, 37520, Note_on_c, 13, 57, 84
16, 37579, Note_on_c, 13, 57, 0
16, 37600, Note_on_c, 13, 60, 84
16, 37659, Note_on_c, 13, 60, 0
16, 37680, Note_on_c, 13, 45, 84
16, 37907, Note_on_c, 13, 45, 0
16, 37920, Note_on_c, 13, 43, 84
16, 37979, Note_on_c, 13, 43, 0
16, 38000, Note_on_c, 13, 55, 84
16, 38059, Note_on_c, 13, 55, 0
16, 38080, Note_on_c, 13, 60, 84
16, 38139, Note_on_c, 13, 60, 0
16, 38160, Note_on_c, 13, 43, 84
16, 38387, Note_on_c, 13, 43, 0
16, 38400, Note_on_c, 13, 43, 84
16, 38459, Note_on_c, 13, 43, 0
16, 38480, Note_on_c, 13, 59, 84
16, 38539, Note_on_c, 13, 59, 0
16, 38560, Note_on_c, 13, 62, 84
16, 38619, Note_on_c, 13, 62, 0
16, 38640, Note_on_c, 13, 43, 84
16, 38867, Note_on_c, 13, 43, 0
16, 38880, Note_on_c, 13, 36, 84
16, 38939, Note_on_c, 13, 36, 0
16, 38960, Note_on_c, 13, 55, 84
16, 39019, Note_on_c, 13, 55, 0
16, 39040, Note_on_c, 13, 60, 84
16, 39099, Note_on_c, 13, 60, 0
16, 39120, Note_on_c, 13, 36, 84
16, 39347, Note_on_c, 13, 36, 0
16, 39360, Note_on_c, 13, 36, 84
16, 39419, Note_on_c, 13, 36, 0
16, 39440, Note_on_c, 13, 55, 84
16, 39499, Note_on_c, 13, 55, 0
16, 39520, Note_on_c, 13, 60, 84
16, 39579, Note_on_c, 13, 60, 0
16, 39600, Note_on_c, 13, 36, 84
16, 39827, Note_on_c, 13, 36, 0
16, 39840, Note_on_c, 13, 47, 84
16, 39899, Note_on_c, 13, 47, 0
16, 39920, Note_on_c, 13, 47, 84
16, 39979, Note_on_c, 13, 47, 0
16, 40000, Note_on_c, 13, 59, 84
16, 40059, Note_on_c, 13, 59, 0
16, 40080, Note_on_c, 13, 47, 84
16, 40307, Note_on_c, 13, 47, 0
16, 40320, Note_on_c, 13, 47, 84
16, 40379, Note_on_c, 13, 47, 0
16, 40400, Note_on_c, 13, 59, 84
16, 40459, Note_on_c, 13, 59, 0
16, 40480, Note_on_c, 13, 62, 84
16, 40539, Note_on_c, 13, 62, 0
16, 40560, Note_on_c, 13, 47, 84
16, 40787, Note_on_c, 13, 47, 0
16, 40800, Note_on_c, 13, 45, 84
16, 40859, Note_on_c, 13, 45, 0
16, 40880, Note_on_c, 13, 45, 84
16, 40939, Note_on_c, 13, 45, 0
16, 40960, Note_on_c, 13, 57, 84
16, 41019, Note_on_c, 13, 57, 0
16, 41040, Note_on_c, 13, 45, 84
16, 41267, Note_on_c, 13, 45, 0
16, 41280, Note_on_c, 13, 45, 84
16, 41339, Note_on_c, 13, 45, 0
16, 41360, Note_on_c, 13, 57, 84
16, 41419, Note_on_c, 13, 57, 0
16, 41440, Note_on_c, 13, 60, 84
16, 41499, Note_on_c, 13, 60, 0
16, 41520, Note_on_c, 13, 45, 84
16, 41747, Note_on_c, 13, 45, 0
16, 41760, Note_on_c, 13, 44, 84
16, 41819, Note_on_c, 13, 44, 0
16, 41840, Note_on_c, 13, 56, 84
16, 41899, Note_on_c, 13, 56, 0
16, 41920, Note_on_c, 13, 59, 84
16, 41979, Note_on_c, 13, 59, 0
16, 42000, Note_on_c, 13, 45, 84
16, 42227, Note_on_c, 13, 45, 0
16, 42240, Note_on_c, 13, 40, 84
16, 42299, Note_on_c, 13, 40, 0
16, 42320, Note_on_c, 13, 56, 84
16, 42379, Note_on_c, 13, 56, 0
16, 42400, Note_on_c, 13, 59, 84
16, 42459, Note_on_c, 13, 59, 0
16, 42480, Note_on_c, 13, 40, 84
16, 42707, Note_on_c, 13, 40, 0
16, 42720, Note_on_c, 13, 45, 84
16, 42779, Note_on_c, 13, 45, 0
16, 42800, Note_on_c, 13, 45, 84
16, 42859, Note_on_c, 13, 45, 0
16, 42880, Note_on_c, 13, 57, 84
16, 42939, Note_on_c, 13, 57, 0
16, 42960, Note_on_c, 13, 45, 84
16, 43019, Note_on_c, 13, 45, 0
16, 43040, Note_on_c, 13, 45, 84
16, 43099, Note_on_c, 13, 45, 0
16, 43120, Note_on_c, 13, 47, 84
16, 43179, Note_on_c, 13, 47, 0
16, 43200, Note_on_c, 13, 48, 84
16, 43259, Note_on_c, 13, 48, 0
16, 43280, Note_on_c, 13, 55, 84
16, 43339, Note_on_c, 13, 55, 0
16, 43360, Note_on_c, 13, 60, 83
16, 43419, Note_on_c, 13, 60, 0
16, 43440, Note_on_c, 13, 36, 82
16, 43667, Note_on_c, 13, 36, 0
16, 43680, Note_on_c, 13, 47, 80
16, 43739, Note_on_c, 13, 47, 0
16, 43760, Note_on_c, 13, 47, 79
16, 43819, Note_on_c, 13, 47, 0
16, 43840, Note_on_c, 13, 59, 78
16, 43899, Note_on_c, 13, 59, 0
16, 43920, Note_on_c, 13, 47, 78
16, 44147, Note_on_c, 13, 47, 0
16, 44160, Note_on_c, 13, 47, 75
16, 44219, Note_on_c, 13, 47, 0
16, 44240, Note_on_c, 13, 59, 75
16, 44299, Note_on_c, 13, 59, 0
16, 44320, Note_on_c, 13, 62, 74
16, 44379, Note_on_c, 13, 62, 0
16, 44400, Note_on_c, 13, 47, 73
16, 44627, Note_on_c, 13, 47, 0
16, 44640, Note_on_c, 13, 45, 71
16, 44699, Note_on_c, 13, 45, 0
16, 44720, Note_on_c, 13, 45, 70
16, 44779, Note_on_c, 13, 45, 0
16, 44800, Note_on_c, 13, 57, 69
16, 44859, Note_on_c, 13, 57, 0
16, 44880, Note_on_c, 13, 45, 68
16, 45107, Note_on_c, 13, 45, 0
16, 45120, Note_on_c, 13, 45, 66
16, 45179, Note_on_c, 13, 45, 0
16, 45200, Note_on_c, 13, 57, 65
16, 45259, Note_on_c, 13, 57, 0
16, 45280, Note_on_c, 13, 60, 65
16, 45339, Note_on_c, 13, 60, 0
16, 45360, Note_on_c, 13, 45, 64
16, 45587, Note_on_c, 13, 45, 0
16, 45600, Note_on_c, 13, 44, 62
16, 45659, Note_on_c, 13, 44, 0
16, 45680, Note_on_c, 13, 56, 61
16, 45739, Note_on_c, 13, 56, 0
16, 45760, Note_on_c, 13, 59, 60
16, 45819, Note_on_c, 13, 59, 0
16, 45840, Note_on_c, 13, 45, 59
16, 46067, Note_on_c, 13, 45, 0
16, 46080, Note_on_c, 13, 40, 57
16, 46139, Note_on_c, 13, 40, 0
16, 46160, Note_on_c, 13, 56, 56
16, 46219, Note_on_c, 13, 56, 0
16, 46240, Note_on_c, 13, 64, 56
16, 46299, Note_on_c, 13, 64, 0
16, 46320, Note_on_c, 13, 52, 55
16, 46379, Note_on_c, 13, 52, 0
16, 46400, Note_on_c, 13, 52, 54
16, 46459, Note_on_c, 13, 52, 0
16, 46480, Note_on_c, 13, 52, 53
16, 46539, Note_on_c, 13, 52, 0
16, 46560, Note_on_c, 13, 45, 52
16, 46799, Note_on_c, 13, 45, 0
16, 46799, End_track
17, 0, Start_track
17, 0, Title_t, "Cello II (to bar 101, Tutti Celli thereafter)"
17, 0, MIDI_port, 0
17, 0, Control_c, 14, 7, 96
17, 0, Control_c, 14, 10, 94
17, 0, Program_c, 14, 48
17, 0, Control_c, 14, 11, 127
17, 960, Note_on_c, 14, 45, 52
17, 1191, Note_on_c, 14, 45, 0
17, 1200, Note_on_c, 14, 45, 52
17, 1289, Note_on_c, 14, 45, 0
17, 1320, Note_on_c, 14, 45, 52
17, 1409, Note_on_c, 14, 45, 0
17, 1440, Note_on_c, 14, 44, 52
17, 1649, Note_on_c, 14, 44, 0
17, 1680, Note_on_c, 14, 44, 52
17, 1889, Note_on_c, 14, 44, 0
17, 1920, Note_on_c, 14, 40, 52
17, 2151, Note_on_c, 14, 40, 0
17, 2160, Note_on_c, 14, 40, 52
17, 2249, Note_on_c, 14, 40, 0
17, 2280, Note_on_c, 14, 40, 52
17, 2369, Note_on_c, 14, 40, 0
17, 2400, Note_on_c, 14, 45, 52
17, 2609, Note_on_c, 14, 45, 0
17, 2640, Note_on_c, 14, 45, 52
17, 2849, Note_on_c, 14, 45, 0
17, 2880, Note_on_c, 14, 45, 52
17, 3111, Note_on_c, 14, 45, 0
17, 3120, Note_on_c, 14, 45, 52
17, 3209, Note_on_c, 14, 45, 0
17, 3240, Note_on_c, 14, 45, 52
17, 3329, Note_on_c, 14, 45, 0
17, 3360, Note_on_c, 14, 43, 52
17, 3569, Note_on_c, 14, 43, 0
17, 3600, Note_on_c, 14, 43, 52
17, 3809, Note_on_c, 14, 43, 0
17, 3840, Note_on_c, 14, 43, 52
17, 4071, Note_on_c, 14, 43, 0
17, 4080, Note_on_c, 14, 43, 52
17, 4169, Note_on_c, 14, 43, 0
17, 4200, Note_on_c, 14, 43, 52
17, 4289, Note_on_c, 14, 43, 0
17, 4320, Note_on_c, 14, 48, 52
17, 4559, Note_on_c, 14, 48, 0
17, 4800, Note_on_c, 14, 48, 52
17, 5031, Note_on_c, 14, 48, 0
17, 5040, Note_on_c, 14, 48, 52
17, 5129, Note_on_c, 14, 48, 0
17, 5160, Note_on_c, 14, 48, 52
17, 5249, Note_on_c, 14, 48, 0
17, 5280, Note_on_c, 14, 47, 52
17, 5489, Note_on_c, 14, 47, 0
17, 5520, Note_on_c, 14, 47, 52
17, 5729, Note_on_c, 14, 47, 0
17, 5760, Note_on_c, 14, 47, 52
17, 5991, Note_on_c, 14, 47, 0
17, 6000, Note_on_c, 14, 47, 52
17, 6089, Note_on_c, 14, 47, 0
17, 6120, Note_on_c, 14, 47, 52
17, 6209, Note_on_c, 14, 47, 0
17, 6240, Note_on_c, 14, 45, 52
17, 6449, Note_on_c, 14, 45, 0
17, 6480, Note_on_c, 14, 45, 52
17, 6689, Note_on_c, 14, 45, 0
17, 6720, Note_on_c, 14, 45, 52
17, 6951, Note_on_c, 14, 45, 0
17, 6960, Note_on_c, 14, 45, 52
17, 7049, Note_on_c, 14, 45, 0
17, 7080, Note_on_c, 14, 45, 52
17, 7169, Note_on_c, 14, 45, 0
17, 7200, Note_on_c, 14, 44, 52
17, 7409, Note_on_c, 14, 44, 0
17, 7440, Note_on_c, 14, 45, 52
17, 7649, Note_on_c, 14, 45, 0
17, 7680, Note_on_c, 14, 40, 52
17, 7911, Note_on_c, 14, 40, 0
17, 7920, Note_on_c, 14, 40, 52
17, 8009, Note_on_c, 14, 40, 0
17, 8040, Note_on_c, 14, 40, 52
17, 8129, Note_on_c, 14, 40, 0
17, 8160, Note_on_c, 14, 45, 52
17, 8399, Note_on_c, 14, 45, 0
17, 8640, Note_on_c, 14, 48, 44
17, 8871, Note_on_c, 14, 48, 0
17, 8880, Note_on_c, 14, 48, 44
17, 8969, Note_on_c, 14, 48, 0
17, 9000, Note_on_c, 14, 48, 44
17, 9089, Note_on_c, 14, 48, 0
17, 9120, Note_on_c, 14, 47, 44
17, 9329, Note_on_c, 14, 47, 0
17, 9360, Note_on_c, 14, 47, 44
17, 9569, Note_on_c, 14, 47, 0
17, 9600, Note_on_c, 14, 47, 44
17, 9831, Note_on_c, 14, 47, 0
17, 9840, Note_on_c, 14, 47, 44
17, 9929, Note_on_c, 14, 47, 0
17, 9960, Note_on_c, 14, 47, 44
17, 10049, Note_on_c, 14, 47, 0
17, 10080, Note_on_c, 14, 45, 44
17, 10289, Note_on_c, 14, 45, 0
17, 10320, Note_on_c, 14, 45, 44
17, 10529, Note_on_c, 14, 45, 0
17, 10560, Note_on_c, 14, 45, 44
17, 10791, Note_on_c, 14, 45, 0
17, 10800, Note_on_c, 14, 45, 44
17, 10889, Note_on_c, 14, 45, 0
17, 10920, Note_on_c, 14, 45, 44
17, 11009, Note_on_c, 14, 45, 0
17, 11040, Note_on_c, 14, 44, 44
17, 11249, Note_on_c, 14, 44, 0
17, 11280, Note_on_c, 14, 45, 44
17, 11489, Note_on_c, 14, 45, 0
17, 11520, Note_on_c, 14, 40, 44
17, 11751, Note_on_c, 14, 40, 0
17, 11760, Note_on_c, 14, 40, 44
17, 11849, Note_on_c, 14, 40, 0
17, 11880, Note_on_c, 14, 40, 44
17, 11969, Note_on_c, 14, 40, 0
17, 12000, Note_on_c, 14, 45, 44
17, 12239, Note_on_c, 14, 45, 0
17, 12720, Note_on_c, 14, 45, 44
17, 12809, Note_on_c, 14, 45, 0
17, 12840, Note_on_c, 14, 45, 44
17, 12929, Note_on_c, 14, 45, 0
17, 12960, Note_on_c, 14, 44, 44
17, 13049, Note_on_c, 14, 44, 0
17, 13200, Note_on_c, 14, 56, 44
17, 13289, Note_on_c, 14, 56, 0
17, 13680, Note_on_c, 14, 40, 44
17, 13769, Note_on_c, 14, 40, 0
17, 13800, Note_on_c, 14, 40, 44
17, 13889, Note_on_c, 14, 40, 0
17, 13920, Note_on_c, 14, 45, 44
17, 14009, Note_on_c, 14, 45, 0
17, 14160, Note_on_c, 14, 57, 44
17, 14249, Note_on_c, 14, 57, 0
17, 14640, Note_on_c, 14, 45, 44
17, 14729, Note_on_c, 14, 45, 0
17, 14760, Note_on_c, 14, 45, 44
17, 14849, Note_on_c, 14, 45, 0
17, 14880, Note_on_c, 14, 43, 44
17, 14969, Note_on_c, 14, 43, 0
17, 15120, Note_on_c, 14, 55, 44
17, 15209, Note_on_c, 14, 55, 0
17, 15600, Note_on_c, 14, 55, 44
17, 15689, Note_on_c, 14, 55, 0
17, 15720, Note_on_c, 14, 55, 44
17, 15809, Note_on_c, 14, 55, 0
17, 15840, Note_on_c, 14, 48, 44
17, 15929, Note_on_c, 14, 48, 0
17, 16080, Note_on_c, 14, 60, 44
17, 16169, Note_on_c, 14, 60, 0
17, 16560, Note_on_c, 14, 48, 44
17, 16649, Note_on_c, 14, 48, 0
17, 16680, Note_on_c, 14, 48, 44
17, 16769, Note_on_c, 14, 48, 0
17, 16800, Note_on_c, 14, 47, 44
17, 16889, Note_on_c, 14, 47, 0
17, 17040, Note_on_c, 14, 59, 44
17, 17129, Note_on_c, 14, 59, 0
17, 17520, Note_on_c, 14, 52, 44
17, 17609, Note_on_c, 14, 52, 0
17, 17640, Note_on_c, 14, 52, 44
17, 17729, Note_on_c, 14, 52, 0
17, 17760, Note_on_c, 14, 45, 44
17, 17849, Note_on_c, 14, 45, 0
17, 18000, Note_on_c, 14, 57, 44
17, 18089, Note_on_c, 14, 57, 0
17, 18480, Note_on_c, 14, 45, 44
17, 18569, Note_on_c, 14, 45, 0
17, 18600, Note_on_c, 14, 45, 44
17, 18689, Note_on_c, 14, 45, 0
17, 18720, Note_on_c, 14, 44, 44
17, 18809, Note_on_c, 14, 44, 0
17, 18960, Note_on_c, 14, 45, 44
17, 19049, Note_on_c, 14, 45, 0
17, 19440, Note_on_c, 14, 40, 44
17, 19529, Note_on_c, 14, 40, 0
17, 19560, Note_on_c, 14, 40, 44
17, 19649, Note_on_c, 14, 40, 0
17, 19680, Note_on_c, 14, 45, 44
17, 19769, Note_on_c, 14, 45, 0
17, 19920, Note_on_c, 14, 57, 44
17, 20009, Note_on_c, 14, 57, 0
17, 20400, Note_on_c, 14, 48, 44
17, 20489, Note_on_c, 14, 48, 0
17, 20520, Note_on_c, 14, 48, 44
17, 20609, Note_on_c, 14, 48, 0
17, 20640, Note_on_c, 14, 47, 44
17, 20729, Note_on_c, 14, 47, 0
17, 20880, Note_on_c, 14, 59, 44
17, 20969, Note_on_c, 14, 59, 0
17, 21360, Note_on_c, 14, 52, 44
17, 21449, Note_on_c, 14, 52, 0
17, 21480, Note_on_c, 14, 52, 44
17, 21569, Note_on_c, 14, 52, 0
17, 21600, Note_on_c, 14, 45, 44
17, 21689, Note_on_c, 14, 45, 0
17, 21840, Note_on_c, 14, 57, 44
17, 21929, Note_on_c, 14, 57, 0
17, 22320, Note_on_c, 14, 45, 44
17, 22409, Note_on_c, 14, 45, 0
17, 22440, Note_on_c, 14, 45, 44
17, 22529, Note_on_c, 14, 45, 0
17, 22560, Note_on_c, 14, 44, 44
17, 22649, Note_on_c, 14, 44, 0
17, 22800, Note_on_c, 14, 45, 44
17, 22889, Note_on_c, 14, 45, 0
17, 23280, Note_on_c, 14, 40, 44
17, 23369, Note_on_c, 14, 40, 0
17, 23400, Note_on_c, 14, 40, 44
17, 23489, Note_on_c, 14, 40, 0
17, 23520, Note_on_c, 14, 45, 44
17, 23609, Note_on_c, 14, 45, 0
17, 23760, Note_on_c, 14, 57, 44
17, 23849, Note_on_c, 14, 57, 0
17, 24000, Note_on_c, 14, 45, 44
17, 24239, Note_on_c, 14, 45, 0
17, 24360, Note_on_c, 14, 57, 45
17, 24467, Note_on_c, 14, 57, 0
17, 24480, Note_on_c, 14, 44, 46
17, 24719, Note_on_c, 14, 44, 0
17, 24840, Note_on_c, 14, 56, 47
17, 24947, Note_on_c, 14, 56, 0
17, 24960, Note_on_c, 14, 40, 48
17, 25199, Note_on_c, 14, 40, 0
17, 25320, Note_on_c, 14, 52, 49
17, 25427, Note_on_c, 14, 52, 0
17, 25440, Note_on_c, 14, 45, 50
17, 25679, Note_on_c, 14, 45, 0
17, 25800, Note_on_c, 14, 57, 51
17, 25907, Note_on_c, 14, 57, 0
17, 25920, Note_on_c, 14, 45, 52
17, 26159, Note_on_c, 14, 45, 0
17, 26280, Note_on_c, 14, 57, 53
17, 26387, Note_on_c, 14, 57, 0
17, 26400, Note_on_c, 14, 43, 54
17, 26639, Note_on_c, 14, 43, 0
17, 26760, Note_on_c, 14, 55, 55
17, 26867, Note_on_c, 14, 55, 0
17, 26880, Note_on_c, 14, 43, 56
17, 27119, Note_on_c, 14, 43, 0
17, 27240, Note_on_c, 14, 55, 57
17, 27347, Note_on_c, 14, 55, 0
17, 27360, Note_on_c, 14, 48, 58
17, 27599, Note_on_c, 14, 48, 0
17, 27720, Note_on_c, 14, 60, 59
17, 27827, Note_on_c, 14, 60, 0
17, 27840, Note_on_c, 14, 48, 60
17, 28079, Note_on_c, 14, 48, 0
17, 28200, Note_on_c, 14, 60, 61
17, 28307, Note_on_c, 14, 60, 0
17, 28320, Note_on_c, 14, 47, 62
17, 28559, Note_on_c, 14, 47, 0
17, 28680, Note_on_c, 14, 59, 63
17, 28787, Note_on_c, 14, 59, 0
17, 28800, Note_on_c, 14, 47, 64
17, 29039, Note_on_c, 14, 47, 0
17, 29160, Note_on_c, 14, 59, 65
17, 29267, Note_on_c, 14, 59, 0
17, 29280, Note_on_c, 14, 45, 66
17, 29519, Note_on_c, 14, 45, 0
17, 29640, Note_on_c, 14, 57, 67
17, 29747, Note_on_c, 14, 57, 0
17, 29760, Note_on_c, 14, 45, 68
17, 29999, Note_on_c, 14, 45, 0
17, 30120, Note_on_c, 14, 57, 69
17, 30227, Note_on_c, 14, 57, 0
17, 30240, Note_on_c, 14, 44, 70
17, 30479, Note_on_c, 14, 44, 0
17, 30600, Note_on_c, 14, 45, 71
17, 30707, Note_on_c, 14, 45, 0
17, 30720, Note_on_c, 14, 40, 72
17, 30959, Note_on_c, 14, 40, 0
17, 31080, Note_on_c, 14, 52, 73
17, 31187, Note_on_c, 14, 52, 0
17, 31200, Note_on_c, 14, 45, 74
17, 31439, Note_on_c, 14, 45, 0
17, 31560, Note_on_c, 14, 57, 75
17, 31667, Note_on_c, 14, 57, 0
17, 31680, Note_on_c, 14, 48, 76
17, 31919, Note_on_c, 14, 48, 0
17, 32040, Note_on_c, 14, 60, 76
17, 32147, Note_on_c, 14, 60, 0
17, 32160, Note_on_c, 14, 47, 76
17, 32399, Note_on_c, 14, 47, 0
17, 32520, Note_on_c, 14, 59, 76
17, 32627, Note_on_c, 14, 59, 0
17, 32640, Note_on_c, 14, 47, 80
17, 32879, Note_on_c, 14, 47, 0
17, 33000, Note_on_c, 14, 59, 80
17, 33107, Note_on_c, 14, 59, 0
17, 33120, Note_on_c, 14, 45, 80
17, 33359, Note_on_c, 14, 45, 0
17, 33480, Note_on_c, 14, 57, 80
17, 33587, Note_on_c, 14, 57, 0
17, 33600, Note_on_c, 14, 45, 80
17, 33839, Note_on_c, 14, 45, 0
17, 33960, Note_on_c, 14, 57, 80
17, 34067, Note_on_c, 14, 57, 0
17, 34080, Note_on_c, 14, 44, 80
17, 34319, Note_on_c, 14, 44, 0
17, 34440, Note_on_c, 14, 45, 80
17, 34547, Note_on_c, 14, 45, 0
17, 34560, Note_on_c, 14, 40, 80
17, 34799, Note_on_c, 14, 40, 0
17, 34920, Note_on_c, 14, 52, 80
17, 35027, Note_on_c, 14, 52, 0
17, 35040, Note_on_c, 14, 45, 80
17, 35279, Note_on_c, 14, 45, 0
17, 35400, Note_on_c, 14, 57, 80
17, 35507, Note_on_c, 14, 57, 0
17, 35520, Note_on_c, 14, 45, 84
17, 35759, Note_on_c, 14, 45, 0
17, 35840, Note_on_c, 14, 45, 84
17, 35899, Note_on_c, 14, 45, 0
17, 35920, Note_on_c, 14, 57, 84
17, 35979, Note_on_c, 14, 57, 0
17, 36000, Note_on_c, 14, 44, 84
17, 36239, Note_on_c, 14, 44, 0
17, 36320, Note_on_c, 14, 44, 84
17, 36379, Note_on_c, 14, 44, 0
17, 36400, Note_on_c, 14, 56, 84
17, 36459, Note_on_c, 14, 56, 0
17, 36480, Note_on_c, 14, 40, 84
17, 36719, Note_on_c, 14, 40, 0
17, 36800, Note_on_c, 14, 40, 84
17, 36859, Note_on_c, 14, 40, 0
17, 36880, Note_on_c, 14, 52, 84
17, 36939, Note_on_c, 14, 52, 0
17, 36960, Note_on_c, 14, 45, 84
17, 37199, Note_on_c, 14, 45, 0
17, 37280, Note_on_c, 14, 45, 84
17, 37339, Note_on_c, 14, 45, 0
17, 37360, Note_on_c, 14, 57, 84
17, 37419, Note_on_c, 14, 57, 0
17, 37440, Note_on_c, 14, 45, 84
17, 37679, Note_on_c, 14, 45, 0
17, 37760, Note_on_c, 14, 45, 84
17, 37819, Note_on_c, 14, 45, 0
17, 37840, Note_on_c, 14, 57, 84
17, 37899, Note_on_c, 14, 57, 0
17, 37920, Note_on_c, 14, 43, 84
17, 38159, Note_on_c, 14, 43, 0
17, 38240, Note_on_c, 14, 43, 84
17, 38299, Note_on_c, 14, 43, 0
17, 38320, Note_on_c, 14, 55, 84
17, 38379, Note_on_c, 14, 55, 0
17, 38400, Note_on_c, 14, 43, 84
17, 38639, Note_on_c, 14, 43, 0
17, 38720, Note_on_c, 14, 43, 84
17, 38779, Note_on_c, 14, 43, 0
17, 38800, Note_on_c, 14, 55, 84
17, 38859, Note_on_c, 14, 55, 0
17, 38880, Note_on_c, 14, 48, 84
17, 39119, Note_on_c, 14, 48, 0
17, 39200, Note_on_c, 14, 48, 84
17, 39259, Note_on_c, 14, 48, 0
17, 39280, Note_on_c, 14, 60, 84
17, 39339, Note_on_c, 14, 60, 0
17, 39360, Note_on_c, 14, 48, 84
17, 39599, Note_on_c, 14, 48, 0
17, 39680, Note_on_c, 14, 48, 84
17, 39739, Note_on_c, 14, 48, 0
17, 39760, Note_on_c, 14, 60, 84
17, 39819, Note_on_c, 14, 60, 0
17, 39840, Note_on_c, 14, 47, 84
17, 40079, Note_on_c, 14, 47, 0
17, 40160, Note_on_c, 14, 47, 84
17, 40219, Note_on_c, 14, 47, 0
17, 40240, Note_on_c, 14, 59, 84
17, 40299, Note_on_c, 14, 59, 0
17, 40320, Note_on_c, 14, 47, 84
17, 40559, Note_on_c, 14, 47, 0
17, 40640, Note_on_c, 14, 47, 84
17, 40699, Note_on_c, 14, 47, 0
17, 40720, Note_on_c, 14, 59, 84
17, 40779, Note_on_c, 14, 59, 0
17, 40800, Note_on_c, 14, 45, 84
17, 41039, Note_on_c, 14, 45, 0
17, 41120, Note_on_c, 14, 45, 84
17, 41179, Note_on_c, 14, 45, 0
17, 41200, Note_on_c, 14, 57, 84
17, 41259, Note_on_c, 14, 57, 0
17, 41280, Note_on_c, 14, 45, 84
17, 41519, Note_on_c, 14, 45, 0
17, 41600, Note_on_c, 14, 45, 84
17, 41659, Note_on_c, 14, 45, 0
17, 41680, Note_on_c, 14, 57, 84
17, 41739, Note_on_c, 14, 57, 0
17, 41760, Note_on_c, 14, 44, 84
17, 41999, Note_on_c, 14, 44, 0
17, 42080, Note_on_c, 14, 45, 84
17, 42139, Note_on_c, 14, 45, 0
17, 42160, Note_on_c, 14, 57, 84
17, 42219, Note_on_c, 14, 57, 0
17, 42240, Note_on_c, 14, 40, 84
17, 42479, Note_on_c, 14, 40, 0
17, 42560, Note_on_c, 14, 40, 84
17, 42619, Note_on_c, 14, 40, 0
17, 42640, Note_on_c, 14, 52, 84
17, 42699, Note_on_c, 14, 52, 0
17, 42720, Note_on_c, 14, 45, 84
17, 42959, Note_on_c, 14, 45, 0
17, 43040, Note_on_c, 14, 45, 84
17, 43099, Note_on_c, 14, 45, 0
17, 43120, Note_on_c, 14, 47, 84
17, 43179, Note_on_c, 14, 47, 0
17, 43200, Note_on_c, 14, 48, 84
17, 43439, Note_on_c, 14, 48, 0
17, 43520, Note_on_c, 14, 48, 81
17, 43579, Note_on_c, 14, 48, 0
17, 43600, Note_on_c, 14, 60, 81
17, 43659, Note_on_c, 14, 60, 0
17, 43680, Note_on_c, 14, 47, 80
17, 43919, Note_on_c, 14, 47, 0
17, 44000, Note_on_c, 14, 47, 77
17, 44059, Note_on_c, 14, 47, 0
17, 44080, Note_on_c, 14, 59, 76
17, 44139, Note_on_c, 14, 59, 0
17, 44160, Note_on_c, 14, 47, 75
17, 44399, Note_on_c, 14, 47, 0
17, 44480, Note_on_c, 14, 47, 72
17, 44539, Note_on_c, 14, 47, 0
17, 44560, Note_on_c, 14, 59, 72
17, 44619, Note_on_c, 14, 59, 0
17, 44640, Note_on_c, 14, 45, 71
17, 44879, Note_on_c, 14, 45, 0
17, 44960, Note_on_c, 14, 45, 68
17, 45019, Note_on_c, 14, 45, 0
17, 45040, Note_on_c, 14, 57, 67
17, 45099, Note_on_c, 14, 57, 0
17, 45120, Note_on_c, 14, 45, 66
17, 45359, Note_on_c, 14, 45, 0
17, 45440, Note_on_c, 14, 45, 63
17, 45499, Note_on_c, 14, 45, 0
17, 45520, Note_on_c, 14, 57, 62
17, 45579, Note_on_c, 14, 57, 0
17, 45600, Note_on_c, 14, 44, 62
17, 45839, Note_on_c, 14, 44, 0
17, 45920, Note_on_c, 14, 45, 59
17, 45979, Note_on_c, 14, 45, 0
17, 46000, Note_on_c, 14, 57, 58
17, 46059, Note_on_c, 14, 57, 0
17, 46080, Note_on_c, 14, 40, 57
17, 46319, Note_on_c, 14, 40, 0
17, 46400, Note_on_c, 14, 40, 54
17, 46459, Note_on_c, 14, 40, 0
17, 46480, Note_on_c, 14, 52, 53
17, 46539, Note_on_c, 14, 52, 0
17, 46560, Note_on_c, 14, 45, 52
17, 46799, Note_on_c, 14, 45, 0
17, 47520, Program_c, 14, 45
17, 47520, Control_c, 14, 10, 90
17, 48000, Note_on_c, 14, 40, 44
17, 48239, Note_on_c, 14, 40, 0
17, 48240, Note_on_c, 14, 42, 44
17, 48359, Note_on_c, 14, 42, 0
17, 48360, Note_on_c, 14, 44, 44
17, 48479, Note_on_c, 14, 44, 0
17, 48480, Note_on_c, 14, 45, 44
17, 48719, Note_on_c, 14, 45, 0
17, 48720, Note_on_c, 14, 57, 44
17, 48839, Note_on_c, 14, 57, 0
17, 48840, Note_on_c, 14, 57, 44
17, 48959, Note_on_c, 14, 57, 0
17, 48960, Note_on_c, 14, 45, 44
17, 49199, Note_on_c, 14, 45, 0
17, 49200, Note_on_c, 14, 57, 44
17, 49319, Note_on_c, 14, 57, 0
17, 49320, Note_on_c, 14, 57, 44
17, 49439, Note_on_c, 14, 57, 0
17, 49440, Note_on_c, 14, 45, 44
17, 49679, Note_on_c, 14, 45, 0
17, 49680, Note_on_c, 14, 57, 44
17, 49799, Note_on_c, 14, 57, 0
17, 49800, Note_on_c, 14, 57, 44
17, 49919, Note_on_c, 14, 57, 0
17, 49920, Note_on_c, 14, 45, 45
17, 50159, Note_on_c, 14, 45, 0
17, 50160, Note_on_c, 14, 57, 47
17, 50279, Note_on_c, 14, 57, 0
17, 50280, Note_on_c, 14, 57, 48
17, 50399, Note_on_c, 14, 57, 0
17, 50400, Note_on_c, 14, 45, 49
17, 50639, Note_on_c, 14, 45, 0
17, 50640, Note_on_c, 14, 57, 50
17, 50759, Note_on_c, 14, 57, 0
17, 50760, Note_on_c, 14, 57, 51
17, 50879, Note_on_c, 14, 57, 0
17, 50880, Note_on_c, 14, 45, 52
17, 51119, Note_on_c, 14, 45, 0
17, 51120, Note_on_c, 14, 57, 54
17, 51239, Note_on_c, 14, 57, 0
17, 51240, Note_on_c, 14, 57, 55
17, 51359, Note_on_c, 14, 57, 0
17, 51360, Note_on_c, 14, 45, 56
17, 51599, Note_on_c, 14, 45, 0
17, 51600, Note_on_c, 14, 57, 56
17, 51719, Note_on_c, 14, 57, 0
17, 51720, Note_on_c, 14, 57, 54
17, 51839, Note_on_c, 14, 57, 0
17, 51840, Note_on_c, 14, 45, 52
17, 52079, Note_on_c, 14, 45, 0
17, 52080, Note_on_c, 14, 57, 47
17, 52199, Note_on_c, 14, 57, 0
17, 52200, Note_on_c, 14, 57, 44
17, 52319, Note_on_c, 14, 57, 0
17, 52320, Note_on_c, 14, 45, 44
17, 52559, Note_on_c, 14, 45, 0
17, 52560, Note_on_c, 14, 57, 44
17, 52679, Note_on_c, 14, 57, 0
17, 52680, Note_on_c, 14, 57, 45
17, 52799, Note_on_c, 14, 57, 0
17, 52800, Note_on_c, 14, 45, 46
17, 53039, Note_on_c, 14, 45, 0
17, 53040, Note_on_c, 14, 57, 48
17, 53159, Note_on_c, 14, 57, 0
17, 53160, Note_on_c, 14, 57, 49
17, 53279, Note_on_c, 14, 57, 0
17, 53280, Note_on_c, 14, 45, 50
17, 53519, Note_on_c, 14, 45, 0
17, 53520, Note_on_c, 14, 57, 52
17, 53639, Note_on_c, 14, 57, 0
17, 53640, Note_on_c, 14, 57, 53
17, 53759, Note_on_c, 14, 57, 0
17, 53760, Note_on_c, 14, 45, 54
17, 53999, Note_on_c, 14, 45, 0
17, 54000, Note_on_c, 14, 57, 56
17, 54119, Note_on_c, 14, 57, 0
17, 54120, Note_on_c, 14, 57, 56
17, 54239, Note_on_c, 14, 57, 0
17, 54240, Note_on_c, 14, 42, 56
17, 54359, Note_on_c, 14, 42, 0
17, 54360, Note_on_c, 14, 44, 55
17, 54479, Note_on_c, 14, 44, 0
17, 54480, Note_on_c, 14, 45, 53
17, 54599, Note_on_c, 14, 45, 0
17, 54600, Note_on_c, 14, 45, 52
17, 54719, Note_on_c, 14, 45, 0
17, 54720, Note_on_c, 14, 47, 50
17, 54959, Note_on_c, 14, 47, 0
17, 54960, Note_on_c, 14, 59, 47
17, 55079, Note_on_c, 14, 59, 0
17, 55080, Note_on_c, 14, 59, 46
17, 55199, Note_on_c, 14, 59, 0
17, 55200, Note_on_c, 14, 52, 44
17, 55439, Note_on_c, 14, 52, 0
17, 55440, Note_on_c, 14, 64, 44
17, 55559, Note_on_c, 14, 64, 0
17, 55560, Note_on_c, 14, 64, 44
17, 55679, Note_on_c, 14, 64, 0
17, 55680, Note_on_c, 14, 52, 44
17, 55919, Note_on_c, 14, 52, 0
17, 55920, Note_on_c, 14, 64, 44
17, 56039, Note_on_c, 14, 64, 0
17, 56040, Note_on_c, 14, 64, 44
17, 56159, Note_on_c, 14, 64, 0
17, 56160, Note_on_c, 14, 52, 44
17, 56399, Note_on_c, 14, 52, 0
17, 56400, Note_on_c, 14, 64, 44
17, 56519, Note_on_c, 14, 64, 0
17, 56520, Note_on_c, 14, 64, 44
17, 56639, Note_on_c, 14, 64, 0
17, 56640, Note_on_c, 14, 52, 44
17, 56879, Note_on_c, 14, 52, 0
17, 56880, Note_on_c, 14, 64, 44
17, 56999, Note_on_c, 14, 64, 0
17, 57000, Note_on_c, 14, 64, 44
17, 57119, Note_on_c, 14, 64, 0
17, 57120, Note_on_c, 14, 52, 44
17, 57359, Note_on_c, 14, 52, 0
17, 57360, Note_on_c, 14, 64, 44
17, 57479, Note_on_c, 14, 64, 0
17, 57480, Note_on_c, 14, 64, 44
17, 57599, Note_on_c, 14, 64, 0
17, 57600, Note_on_c, 14, 52, 44
17, 57839, Note_on_c, 14, 52, 0
17, 57840, Note_on_c, 14, 64, 44
17, 57959, Note_on_c, 14, 64, 0
17, 57960, Note_on_c, 14, 64, 44
17, 58079, Note_on_c, 14, 64, 0
17, 58080, Note_on_c, 14, 52, 44
17, 58319, Note_on_c, 14, 52, 0
17, 58320, Note_on_c, 14, 64, 44
17, 58439, Note_on_c, 14, 64, 0
17, 58440, Note_on_c, 14, 64, 44
17, 58559, Note_on_c, 14, 64, 0
17, 58560, Note_on_c, 14, 49, 44
17, 58799, Note_on_c, 14, 49, 0
17, 58800, Note_on_c, 14, 61, 45
17, 58919, Note_on_c, 14, 61, 0
17, 58920, Note_on_c, 14, 61, 46
17, 59039, Note_on_c, 14, 61, 0
17, 59040, Note_on_c, 14, 50, 47
17, 59279, Note_on_c, 14, 50, 0
17, 59280, Note_on_c, 14, 62, 48
17, 59399, Note_on_c, 14, 62, 0
17, 59400, Note_on_c, 14, 62, 49
17, 59519, Note_on_c, 14, 62, 0
17, 59520, Note_on_c, 14, 49, 50
17, 59759, Note_on_c, 14, 49, 0
17, 59760, Note_on_c, 14, 61, 51
17, 59879, Note_on_c, 14, 61, 0
17, 59880, Note_on_c, 14, 61, 52
17, 59999, Note_on_c, 14, 61, 0
17, 60000, Note_on_c, 14, 50, 53
17, 60239, Note_on_c, 14, 50, 0
17, 60240, Note_on_c, 14, 62, 54
17, 60359, Note_on_c, 14, 62, 0
17, 60360, Note_on_c, 14, 62, 55
17, 60479, Note_on_c, 14, 62, 0
17, 60480, Note_on_c, 14, 49, 56
17, 60719, Note_on_c, 14, 49, 0
17, 60720, Note_on_c, 14, 61, 53
17, 60839, Note_on_c, 14, 61, 0
17, 60840, Note_on_c, 14, 61, 52
17, 60959, Note_on_c, 14, 61, 0
17, 60960, Note_on_c, 14, 50, 50
17, 61199, Note_on_c, 14, 50, 0
17, 61200, Note_on_c, 14, 62, 47
17, 61319, Note_on_c, 14, 62, 0
17, 61320, Note_on_c, 14, 62, 46
17, 61439, Note_on_c, 14, 62, 0
17, 61440, Note_on_c, 14, 52, 44
17, 61679, Note_on_c, 14, 52, 0
17, 61680, Note_on_c, 14, 64, 44
17, 61799, Note_on_c, 14, 64, 0
17, 61800, Note_on_c, 14, 64, 44
17, 61919, Note_on_c, 14, 64, 0
17, 61920, Note_on_c, 14, 45, 44
17, 62159, Note_on_c, 14, 45, 0
17, 62160, Note_on_c, 14, 57, 45
17, 62279, Note_on_c, 14, 57, 0
17, 62280, Note_on_c, 14, 57, 45
17, 62399, Note_on_c, 14, 57, 0
17, 62400, Note_on_c, 14, 49, 46
17, 62639, Note_on_c, 14, 49, 0
17, 62640, Note_on_c, 14, 61, 47
17, 62759, Note_on_c, 14, 61, 0
17, 62760, Note_on_c, 14, 61, 48
17, 62879, Note_on_c, 14, 61, 0
17, 62880, Note_on_c, 14, 50, 48
17, 63119, Note_on_c, 14, 50, 0
17, 63120, Note_on_c, 14, 62, 50
17, 63239, Note_on_c, 14, 62, 0
17, 63240, Note_on_c, 14, 62, 50
17, 63359, Note_on_c, 14, 62, 0
17, 63360, Note_on_c, 14, 49, 51
17, 63599, Note_on_c, 14, 49, 0
17, 63600, Note_on_c, 14, 61, 52
17, 63719, Note_on_c, 14, 61, 0
17, 63720, Note_on_c, 14, 61, 53
17, 63839, Note_on_c, 14, 61, 0
17, 63840, Note_on_c, 14, 50, 53
17, 64079, Note_on_c, 14, 50, 0
17, 64080, Note_on_c, 14, 62, 54
17, 64199, Note_on_c, 14, 62, 0
17, 64200, Note_on_c, 14, 62, 55
17, 64319, Note_on_c, 14, 62, 0
17, 64320, Note_on_c, 14, 49, 56
17, 64559, Note_on_c, 14, 49, 0
17, 64560, Note_on_c, 14, 48, 53
17, 64679, Note_on_c, 14, 48, 0
17, 64680, Note_on_c, 14, 48, 52
17, 64799, Note_on_c, 14, 48, 0
17, 64800, Note_on_c, 14, 41, 50
17, 65039, Note_on_c, 14, 41, 0
17, 65040, Note_on_c, 14, 53, 47
17, 65159, Note_on_c, 14, 53, 0
17, 65160, Note_on_c, 14, 53, 46
17, 65279, Note_on_c, 14, 53, 0
17, 65280, Note_on_c, 14, 43, 44
17, 65519, Note_on_c, 14, 43, 0
17, 65520, Note_on_c, 14, 55, 44
17, 65639, Note_on_c, 14, 55, 0
17, 65640, Note_on_c, 14, 55, 44
17, 65759, Note_on_c, 14, 55, 0
17, 65760, Note_on_c, 14, 48, 44
17, 65999, Note_on_c, 14, 48, 0
17, 66000, Note_on_c, 14, 60, 44
17, 66119, Note_on_c, 14, 60, 0
17, 66120, Note_on_c, 14, 60, 44
17, 66239, Note_on_c, 14, 60, 0
17, 66240, Note_on_c, 14, 48, 44
17, 66479, Note_on_c, 14, 48, 0
17, 66480, Note_on_c, 14, 60, 44
17, 66599, Note_on_c, 14, 60, 0
17, 66600, Note_on_c, 14, 60, 44
17, 66719, Note_on_c, 14, 60, 0
17, 66720, Note_on_c, 14, 48, 44
17, 66959, Note_on_c, 14, 48, 0
17, 66960, Note_on_c, 14, 60, 44
17, 67079, Note_on_c, 14, 60, 0
17, 67080, Note_on_c, 14, 60, 44
17, 67199, Note_on_c, 14, 60, 0
17, 67200, Note_on_c, 14, 48, 44
17, 67439, Note_on_c, 14, 48, 0
17, 67440, Note_on_c, 14, 60, 44
17, 67559, Note_on_c, 14, 60, 0
17, 67560, Note_on_c, 14, 60, 44
17, 67679, Note_on_c, 14, 60, 0
17, 67680, Note_on_c, 14, 48, 44
17, 67919, Note_on_c, 14, 48, 0
17, 67920, Note_on_c, 14, 60, 44
17, 68039, Note_on_c, 14, 60, 0
17, 68040, Note_on_c, 14, 60, 44
17, 68159, Note_on_c, 14, 60, 0
17, 68160, Note_on_c, 14, 48, 44
17, 68399, Note_on_c, 14, 48, 0
17, 68400, Note_on_c, 14, 60, 54
17, 68519, Note_on_c, 14, 60, 0
17, 68520, Note_on_c, 14, 60, 59
17, 68639, Note_on_c, 14, 60, 0
17, 69600, Program_c, 14, 48
17, 70000, Note_on_c, 14, 60, 76
17, 70059, Note_on_c, 14, 60, 0
17, 70080, Note_on_c, 14, 59, 76
17, 70139, Note_on_c, 14, 59, 0
17, 70160, Note_on_c, 14, 57, 76
17, 70219, Note_on_c, 14, 57, 0
17, 70240, Note_on_c, 14, 55, 76
17, 70299, Note_on_c, 14, 55, 0
17, 70320, Note_on_c, 14, 53, 76
17, 70379, Note_on_c, 14, 53, 0
17, 70400, Note_on_c, 14, 52, 76
17, 70459, Note_on_c, 14, 52, 0
17, 70480, Note_on_c, 14, 50, 76
17, 70539, Note_on_c, 14, 50, 0
17, 70560, Note_on_c, 14, 48, 76
17, 70619, Note_on_c, 14, 48, 0
17, 70640, Note_on_c, 14, 47, 76
17, 70699, Note_on_c, 14, 47, 0
17, 70720, Note_on_c, 14, 45, 76
17, 70779, Note_on_c, 14, 45, 0
17, 70800, Note_on_c, 14, 44, 84
17, 70889, Note_on_c, 14, 44, 0
17, 70920, Note_on_c, 14, 44, 84
17, 71009, Note_on_c, 14, 44, 0
17, 71280, Program_c, 14, 45
17, 71520, Note_on_c, 14, 40, 44
17, 71759, Note_on_c, 14, 40, 0
17, 71760, Note_on_c, 14, 40, 44
17, 71879, Note_on_c, 14, 40, 0
17, 71880, Note_on_c, 14, 40, 44
17, 71999, Note_on_c, 14, 40, 0
17, 72000, Note_on_c, 14, 40, 44
17, 72239, Note_on_c, 14, 40, 0
17, 72240, Note_on_c, 14, 40, 44
17, 72479, Note_on_c, 14, 40, 0
17, 72480, Note_on_c, 14, 40, 44
17, 72719, Note_on_c, 14, 40, 0
17, 72720, Note_on_c, 14, 40, 44
17, 72839, Note_on_c, 14, 40, 0
17, 72840, Note_on_c, 14, 40, 44
17, 72959, Note_on_c, 14, 40, 0
17, 72960, Note_on_c, 14, 40, 44
17, 73199, Note_on_c, 14, 40, 0
17, 73200, Note_on_c, 14, 40, 44
17, 73439, Note_on_c, 14, 40, 0
17, 73440, Note_on_c, 14, 40, 44
17, 73679, Note_on_c, 14, 40, 0
17, 73680, Note_on_c, 14, 40, 44
17, 73799, Note_on_c, 14, 40, 0
17, 73800, Note_on_c, 14, 42, 44
17, 73919, Note_on_c, 14, 42, 0
17, 73920, Note_on_c, 14, 43, 44
17, 74159, Note_on_c, 14, 43, 0
17, 74160, Note_on_c, 14, 43, 44
17, 74399, Note_on_c, 14, 43, 0
17, 74400, Note_on_c, 14, 43, 44
17, 74639, Note_on_c, 14, 43, 0
17, 74640, Note_on_c, 14, 43, 44
17, 74759, Note_on_c, 14, 43, 0
17, 74760, Note_on_c, 14, 43, 44
17, 74879, Note_on_c, 14, 43, 0
17, 74880, Note_on_c, 14, 43, 44
17, 75119, Note_on_c, 14, 43, 0
17, 75360, Note_on_c, 14, 43, 44
17, 75599, Note_on_c, 14, 43, 0
17, 75600, Note_on_c, 14, 43, 44
17, 75719, Note_on_c, 14, 43, 0
17, 75720, Note_on_c, 14, 45, 44
17, 75839, Note_on_c, 14, 45, 0
17, 75840, Note_on_c, 14, 47, 44
17, 76079, Note_on_c, 14, 47, 0
17, 76080, Note_on_c, 14, 47, 44
17, 76319, Note_on_c, 14, 47, 0
17, 76320, Note_on_c, 14, 42, 44
17, 76559, Note_on_c, 14, 42, 0
17, 76560, Note_on_c, 14, 42, 44
17, 76679, Note_on_c, 14, 42, 0
17, 76680, Note_on_c, 14, 44, 44
17, 76799, Note_on_c, 14, 44, 0
17, 76800, Note_on_c, 14, 45, 44
17, 77039, Note_on_c, 14, 45, 0
17, 77040, Note_on_c, 14, 45, 44
17, 77279, Note_on_c, 14, 45, 0
17, 77280, Note_on_c, 14, 40, 44
17, 77519, Note_on_c, 14, 40, 0
17, 77520, Note_on_c, 14, 40, 44
17, 77639, Note_on_c, 14, 40, 0
17, 77640, Note_on_c, 14, 40, 44
17, 77759, Note_on_c, 14, 40, 0
17, 77760, Note_on_c, 14, 40, 44
17, 77999, Note_on_c, 14, 40, 0
17, 78000, Note_on_c, 14, 40, 44
17, 78239, Note_on_c, 14, 40, 0
17, 78240, Note_on_c, 14, 40, 44
17, 78479, Note_on_c, 14, 40, 0
17, 78480, Note_on_c, 14, 42, 44
17, 78599, Note_on_c, 14, 42, 0
17, 78600, Note_on_c, 14, 44, 44
17, 78719, Note_on_c, 14, 44, 0
17, 78720, Note_on_c, 14, 45, 44
17, 78959, Note_on_c, 14, 45, 0
17, 79200, Note_on_c, 14, 43, 44
17, 79439, Note_on_c, 14, 43, 0
17, 79440, Note_on_c, 14, 43, 44
17, 79559, Note_on_c, 14, 43, 0
17, 79560, Note_on_c, 14, 45, 44
17, 79679, Note_on_c, 14, 45, 0
17, 79680, Note_on_c, 14, 47, 44
17, 79919, Note_on_c, 14, 47, 0
17, 79920, Note_on_c, 14, 47, 44
17, 80159, Note_on_c, 14, 47, 0
17, 80160, Note_on_c, 14, 42, 44
17, 80399, Note_on_c, 14, 42, 0
17, 80400, Note_on_c, 14, 42, 44
17, 80519, Note_on_c, 14, 42, 0
17, 80520, Note_on_c, 14, 44, 44
17, 80639, Note_on_c, 14, 44, 0
17, 80640, Note_on_c, 14, 45, 44
17, 80879, Note_on_c, 14, 45, 0
17, 80880, Note_on_c, 14, 45, 44
17, 81119, Note_on_c, 14, 45, 0
17, 81120, Note_on_c, 14, 40, 44
17, 81359, Note_on_c, 14, 40, 0
17, 81360, Note_on_c, 14, 40, 44
17, 81479, Note_on_c, 14, 40, 0
17, 81480, Note_on_c, 14, 40, 44
17, 81599, Note_on_c, 14, 40, 0
17, 81600, Note_on_c, 14, 40, 44
17, 81839, Note_on_c, 14, 40, 0
17, 81840, Note_on_c, 14, 40, 44
17, 82079, Note_on_c, 14, 40, 0
17, 82080, Note_on_c, 14, 40, 44
17, 82319, Note_on_c, 14, 40, 0
17, 82320, Note_on_c, 14, 42, 44
17, 82439, Note_on_c, 14, 42, 0
17, 82440, Note_on_c, 14, 44, 44
17, 82559, Note_on_c, 14, 44, 0
17, 82560, Note_on_c, 14, 45, 44
17, 82799, Note_on_c, 14, 45, 0
17, 83040, Note_on_c, 14, 45, 44
17, 83279, Note_on_c, 14, 45, 0
17, 83280, Note_on_c, 14, 45, 44
17, 83399, Note_on_c, 14, 45, 0
17, 83400, Note_on_c, 14, 45, 44
17, 83519, Note_on_c, 14, 45, 0
17, 83520, Note_on_c, 14, 45, 44
17, 83759, Note_on_c, 14, 45, 0
17, 84000, Note_on_c, 14, 45, 44
17, 84239, Note_on_c, 14, 45, 0
17, 84240, Note_on_c, 14, 45, 44
17, 84359, Note_on_c, 14, 45, 0
17, 84360, Note_on_c, 14, 45, 44
17, 84479, Note_on_c, 14, 45, 0
17, 84480, Note_on_c, 14, 45, 44
17, 84719, Note_on_c, 14, 45, 0
17, 84960, Note_on_c, 14, 45, 44
17, 85079, Note_on_c, 14, 45, 0
17, 85080, Note_on_c, 14, 45, 45
17, 85199, Note_on_c, 14, 45, 0
17, 85200, Note_on_c, 14, 45, 46
17, 85319, Note_on_c, 14, 45, 0
17, 85440, Note_on_c, 14, 45, 48
17, 85559, Note_on_c, 14, 45, 0
17, 85560, Note_on_c, 14, 45, 49
17, 85679, Note_on_c, 14, 45, 0
17, 85680, Note_on_c, 14, 45, 50
17, 85799, Note_on_c, 14, 45, 0
17, 85920, Note_on_c, 14, 45, 52
17, 86039, Note_on_c, 14, 45, 0
17, 86040, Note_on_c, 14, 45, 53
17, 86159, Note_on_c, 14, 45, 0
17, 86160, Note_on_c, 14, 45, 54
17, 86279, Note_on_c, 14, 45, 0
17, 86640, Note_on_c, 14, 45, 52
17, 86759, Note_on_c, 14, 45, 0
17, 86760, Note_on_c, 14, 45, 50
17, 86879, Note_on_c, 14, 45, 0
17, 87120, Note_on_c, 14, 45, 44
17, 87239, Note_on_c, 14, 45, 0
17, 87240, Note_on_c, 14, 45, 42
17, 87359, Note_on_c, 14, 45, 0
17, 87600, Note_on_c, 14, 45, 40
17, 87719, Note_on_c, 14, 45, 0
17, 87720, Note_on_c, 14, 45, 40
17, 87839, Note_on_c, 14, 45, 0
17, 90960, Program_c, 14, 48
17, 91200, Note_on_c, 14, 57, 44
17, 91427, Note_on_c, 14, 57, 0
17, 91440, Note_on_c, 14, 57, 44
17, 91529, Note_on_c, 14, 57, 0
17, 91560, Note_on_c, 14, 59, 44
17, 91649, Note_on_c, 14, 59, 0
17, 91680, Note_on_c, 14, 60, 44
17, 91889, Note_on_c, 14, 60, 0
17, 91920, Note_on_c, 14, 60, 44
17, 92129, Note_on_c, 14, 60, 0
17, 92160, Note_on_c, 14, 59, 44
17, 92387, Note_on_c, 14, 59, 0
17, 92400, Note_on_c, 14, 59, 44
17, 92489, Note_on_c, 14, 59, 0
17, 92520, Note_on_c, 14, 61, 44
17, 92609, Note_on_c, 14, 61, 0
17, 92640, Note_on_c, 14, 62, 44
17, 92729, Note_on_c, 14, 62, 0
17, 92760, Note_on_c, 14, 60, 44
17, 92849, Note_on_c, 14, 60, 0
17, 92880, Note_on_c, 14, 59, 44
17, 92969, Note_on_c, 14, 59, 0
17, 93000, Note_on_c, 14, 57, 44
17, 93089, Note_on_c, 14, 57, 0
17, 93120, Note_on_c, 14, 55, 44
17, 93173, Note_on_c, 14, 55, 0
17, 93180, Note_on_c, 14, 57, 44
17, 93233, Note_on_c, 14, 57, 0
17, 93240, Note_on_c, 14, 59, 44
17, 93293, Note_on_c, 14, 59, 0
17, 93300, Note_on_c, 14, 57, 44
17, 93353, Note_on_c, 14, 57, 0
17, 93360, Note_on_c, 14, 55, 44
17, 93413, Note_on_c, 14, 55, 0
17, 93420, Note_on_c, 14, 57, 44
17, 93473, Note_on_c, 14, 57, 0
17, 93480, Note_on_c, 14, 55, 44
17, 93533, Note_on_c, 14, 55, 0
17, 93540, Note_on_c, 14, 54, 44
17, 93593, Note_on_c, 14, 54, 0
17, 93600, Note_on_c, 14, 52, 44
17, 93653, Note_on_c, 14, 52, 0
17, 93660, Note_on_c, 14, 54, 44
17, 93713, Note_on_c, 14, 54, 0
17, 93720, Note_on_c, 14, 55, 44
17, 93773, Note_on_c, 14, 55, 0
17, 93780, Note_on_c, 14, 57, 44
17, 93833, Note_on_c, 14, 57, 0
17, 93840, Note_on_c, 14, 59, 44
17, 93893, Note_on_c, 14, 59, 0
17, 93900, Note_on_c, 14, 61, 44
17, 93953, Note_on_c, 14, 61, 0
17, 93960, Note_on_c, 14, 63, 44
17, 94013, Note_on_c, 14, 63, 0
17, 94020, Note_on_c, 14, 64, 44
17, 94073, Note_on_c, 14, 64, 0
17, 94080, Note_on_c, 14, 64, 44
17, 94133, Note_on_c, 14, 64, 0
17, 94140, Note_on_c, 14, 57, 44
17, 94193, Note_on_c, 14, 57, 0
17, 94200, Note_on_c, 14, 59, 44
17, 94253, Note_on_c, 14, 59, 0
17, 94260, Note_on_c, 14, 61, 44
17, 94313, Note_on_c, 14, 61, 0
17, 94320, Note_on_c, 14, 62, 44
17, 94373, Note_on_c, 14, 62, 0
17, 94380, Note_on_c, 14, 59, 44
17, 94433, Note_on_c, 14, 59, 0
17, 94440, Note_on_c, 14, 64, 44
17, 94493, Note_on_c, 14, 64, 0
17, 94500, Note_on_c, 14, 62, 44
17, 94553, Note_on_c, 14, 62, 0
17, 94560, Note_on_c, 14, 60, 44
17, 94613, Note_on_c, 14, 60, 0
17, 94620, Note_on_c, 14, 59, 44
17, 94673, Note_on_c, 14, 59, 0
17, 94680, Note_on_c, 14, 60, 44
17, 94733, Note_on_c, 14, 60, 0
17, 94740, Note_on_c, 14, 62, 44
17, 94793, Note_on_c, 14, 62, 0
17, 94800, Note_on_c, 14, 64, 44
17, 94853, Note_on_c, 14, 64, 0
17, 94860, Note_on_c, 14, 52, 44
17, 94913, Note_on_c, 14, 52, 0
17, 94920, Note_on_c, 14, 54, 44
17, 94973, Note_on_c, 14, 54, 0
17, 94980, Note_on_c, 14, 56, 44
17, 95033, Note_on_c, 14, 56, 0
17, 95040, Note_on_c, 14, 57, 44
17, 95129, Note_on_c, 14, 57, 0
17, 95160, Note_on_c, 14, 55, 44
17, 95249, Note_on_c, 14, 55, 0
17, 95280, Note_on_c, 14, 54, 44
17, 95369, Note_on_c, 14, 54, 0
17, 95400, Note_on_c, 14, 52, 44
17, 95489, Note_on_c, 14, 52, 0
17, 95520, Note_on_c, 14, 54, 44
17, 95573, Note_on_c, 14, 54, 0
17, 95580, Note_on_c, 14, 54, 44
17, 95633, Note_on_c, 14, 54, 0
17, 95640, Note_on_c, 14, 55, 44
17, 95693, Note_on_c, 14, 55, 0
17, 95700, Note_on_c, 14, 57, 44
17, 95753, Note_on_c, 14, 57, 0
17, 95760, Note_on_c, 14, 50, 44
17, 95813, Note_on_c, 14, 50, 0
17, 95820, Note_on_c, 14, 50, 44
17, 95873, Note_on_c, 14, 50, 0
17, 95880, Note_on_c, 14, 52, 44
17, 95933, Note_on_c, 14, 52, 0
17, 95940, Note_on_c, 14, 54, 44
17, 95993, Note_on_c, 14, 54, 0
17, 96000, Note_on_c, 14, 55, 44
17, 96107, Note_on_c, 14, 55, 0
17, 96120, Note_on_c, 14, 53, 44
17, 96227, Note_on_c, 14, 53, 0
17, 96240, Note_on_c, 14, 52, 44
17, 96347, Note_on_c, 14, 52, 0
17, 96360, Note_on_c, 14, 50, 44
17, 96587, Note_on_c, 14, 50, 0
17, 96600, Note_on_c, 14, 48, 44
17, 96827, Note_on_c, 14, 48, 0
17, 96840, Note_on_c, 14, 55, 44
17, 97067, Note_on_c, 14, 55, 0
17, 97080, Note_on_c, 14, 48, 44
17, 97307, Note_on_c, 14, 48, 0
17, 97320, Note_on_c, 14, 60, 44
17, 97439, Note_on_c, 14, 60, 0
17, 98400, Note_on_c, 14, 62, 44
17, 98627, Note_on_c, 14, 62, 0
17, 98640, Note_on_c, 14, 62, 44
17, 98729, Note_on_c, 14, 62, 0
17, 98760, Note_on_c, 14, 64, 44
17, 98849, Note_on_c, 14, 64, 0
17, 98880, Note_on_c, 14, 65, 44
17, 99089, Note_on_c, 14, 65, 0
17, 99120, Note_on_c, 14, 65, 44
17, 99329, Note_on_c, 14, 65, 0
17, 99360, Note_on_c, 14, 53, 44
17, 99413, Note_on_c, 14, 53, 0
17, 99420, Note_on_c, 14, 52, 44
17, 99473, Note_on_c, 14, 52, 0
17, 99480, Note_on_c, 14, 55, 44
17, 99533, Note_on_c, 14, 55, 0
17, 99540, Note_on_c, 14, 53, 44
17, 99593, Note_on_c, 14, 53, 0
17, 99600, Note_on_c, 14, 52, 44
17, 99653, Note_on_c, 14, 52, 0
17, 99660, Note_on_c, 14, 55, 44
17, 99713, Note_on_c, 14, 55, 0
17, 99720, Note_on_c, 14, 53, 44
17, 99773, Note_on_c, 14, 53, 0
17, 99780, Note_on_c, 14, 52, 44
17, 99833, Note_on_c, 14, 52, 0
17, 99840, Note_on_c, 14, 50, 44
17, 99893, Note_on_c, 14, 50, 0
17, 99900, Note_on_c, 14, 52, 44
17, 99953, Note_on_c, 14, 52, 0
17, 99960, Note_on_c, 14, 53, 44
17, 100013, Note_on_c, 14, 53, 0
17, 100020, Note_on_c, 14, 55, 44
17, 100073, Note_on_c, 14, 55, 0
17, 100080, Note_on_c, 14, 57, 44
17, 100133, Note_on_c, 14, 57, 0
17, 100140, Note_on_c, 14, 59, 44
17, 100193, Note_on_c, 14, 59, 0
17, 100200, Note_on_c, 14, 61, 44
17, 100253, Note_on_c, 14, 61, 0
17, 100260, Note_on_c, 14, 62, 44
17, 100313, Note_on_c, 14, 62, 0
17, 100320, Note_on_c, 14, 62, 44
17, 100373, Note_on_c, 14, 62, 0
17, 100380, Note_on_c, 14, 50, 45
17, 100433, Note_on_c, 14, 50, 0
17, 100440, Note_on_c, 14, 50, 46
17, 100493, Note_on_c, 14, 50, 0
17, 100500, Note_on_c, 14, 50, 47
17, 100553, Note_on_c, 14, 50, 0
17, 100560, Note_on_c, 14, 50, 49
17, 100613, Note_on_c, 14, 50, 0
17, 100620, Note_on_c, 14, 50, 50
17, 100673, Note_on_c, 14, 50, 0
17, 100680, Note_on_c, 14, 50, 51
17, 100733, Note_on_c, 14, 50, 0
17, 100740, Note_on_c, 14, 50, 52
17, 100793, Note_on_c, 14, 50, 0
17, 100800, Note_on_c, 14, 50, 54
17, 100853, Note_on_c, 14, 50, 0
17, 100860, Note_on_c, 14, 50, 55
17, 100913, Note_on_c, 14, 50, 0
17, 100920, Note_on_c, 14, 50, 56
17, 100973, Note_on_c, 14, 50, 0
17, 100980, Note_on_c, 14, 50, 57
17, 101033, Note_on_c, 14, 50, 0
17, 101040, Note_on_c, 14, 50, 59
17, 101093, Note_on_c, 14, 50, 0
17, 101100, Note_on_c, 14, 50, 60
17, 101153, Note_on_c, 14, 50, 0
17, 101160, Note_on_c, 14, 50, 61
17, 101213, Note_on_c, 14, 50, 0
17, 101220, Note_on_c, 14, 50, 62
17, 101273, Note_on_c, 14, 50, 0
17, 101280, Note_on_c, 14, 50, 64
17, 101333, Note_on_c, 14, 50, 0
17, 101340, Note_on_c, 14, 50, 65
17, 101393, Note_on_c, 14, 50, 0
17, 101400, Note_on_c, 14, 50, 66
17, 101453, Note_on_c, 14, 50, 0
17, 101460, Note_on_c, 14, 50, 67
17, 101513, Note_on_c, 14, 50, 0
17, 101520, Note_on_c, 14, 50, 69
17, 101573, Note_on_c, 14, 50, 0
17, 101580, Note_on_c, 14, 50, 70
17, 101633, Note_on_c, 14, 50, 0
17, 101640, Note_on_c, 14, 50, 71
17, 101693, Note_on_c, 14, 50, 0
17, 101700, Note_on_c, 14, 50, 72
17, 101753, Note_on_c, 14, 50, 0
17, 101760, Note_on_c, 14, 50, 74
17, 101813, Note_on_c, 14, 50, 0
17, 101820, Note_on_c, 14, 50, 75
17, 101873, Note_on_c, 14, 50, 0
17, 101880, Note_on_c, 14, 50, 76
17, 101933, Note_on_c, 14, 50, 0
17, 101940, Note_on_c, 14, 50, 77
17, 101993, Note_on_c, 14, 50, 0
17, 102000, Note_on_c, 14, 50, 79
17, 102053, Note_on_c, 14, 50, 0
17, 102060, Note_on_c, 14, 50, 80
17, 102113, Note_on_c, 14, 50, 0
17, 102120, Note_on_c, 14, 48, 81
17, 102173, Note_on_c, 14, 48, 0
17, 102180, Note_on_c, 14, 47, 82
17, 102233, Note_on_c, 14, 47, 0
17, 102240, Note_on_c, 14, 45, 84
17, 102467, Note_on_c, 14, 45, 0
17, 102480, Note_on_c, 14, 45, 84
17, 102569, Note_on_c, 14, 45, 0
17, 102600, Note_on_c, 14, 45, 84
17, 102689, Note_on_c, 14, 45, 0
17, 102720, Note_on_c, 14, 44, 84
17, 102929, Note_on_c, 14, 44, 0
17, 102960, Note_on_c, 14, 44, 84
17, 103169, Note_on_c, 14, 44, 0
17, 103200, Note_on_c, 14, 40, 84
17, 103427, Note_on_c, 14, 40, 0
17, 103440, Note_on_c, 14, 40, 84
17, 103529, Note_on_c, 14, 40, 0
17, 103560, Note_on_c, 14, 40, 84
17, 103649, Note_on_c, 14, 40, 0
17, 103680, Note_on_c, 14, 45, 84
17, 103889, Note_on_c, 14, 45, 0
17, 103920, Note_on_c, 14, 45, 84
17, 104129, Note_on_c, 14, 45, 0
17, 104160, Note_on_c, 14, 45, 84
17, 104387, Note_on_c, 14, 45, 0
17, 104400, Note_on_c, 14, 45, 84
17, 104489, Note_on_c, 14, 45, 0
17, 104520, Note_on_c, 14, 45, 84
17, 104609, Note_on_c, 14, 45, 0
17, 104640, Note_on_c, 14, 44, 84
17, 104849, Note_on_c, 14, 44, 0
17, 104880, Note_on_c, 14, 45, 84
17, 105089, Note_on_c, 14, 45, 0
17, 105120, Note_on_c, 14, 40, 84
17, 105347, Note_on_c, 14, 40, 0
17, 105360, Note_on_c, 14, 52, 84
17, 105449, Note_on_c, 14, 52, 0
17, 105480, Note_on_c, 14, 52, 84
17, 105569, Note_on_c, 14, 52, 0
17, 105600, Note_on_c, 14, 45, 84
17, 105839, Note_on_c, 14, 45, 0
17, 106800, Program_c, 14, 45
17, 107040, Note_on_c, 14, 40, 44
17, 107279, Note_on_c, 14, 40, 0
17, 107280, Note_on_c, 14, 42, 44
17, 107399, Note_on_c, 14, 42, 0
17, 107400, Note_on_c, 14, 44, 44
17, 107519, Note_on_c, 14, 44, 0
17, 107520, Note_on_c, 14, 45, 44
17, 107759, Note_on_c, 14, 45, 0
17, 107760, Note_on_c, 14, 57, 44
17, 107879, Note_on_c, 14, 57, 0
17, 107880, Note_on_c, 14, 57, 44
17, 107999, Note_on_c, 14, 57, 0
17, 108000, Note_on_c, 14, 45, 44
17, 108239, Note_on_c, 14, 45, 0
17, 108240, Note_on_c, 14, 57, 44
17, 108359, Note_on_c, 14, 57, 0
17, 108360, Note_on_c, 14, 57, 44
17, 108479, Note_on_c, 14, 57, 0
17, 108480, Note_on_c, 14, 45, 44
17, 108719, Note_on_c, 14, 45, 0
17, 108720, Note_on_c, 14, 57, 44
17, 108839, Note_on_c, 14, 57, 0
17, 108840, Note_on_c, 14, 57, 45
17, 108959, Note_on_c, 14, 57, 0
17, 108960, Note_on_c, 14, 45, 46
17, 109199, Note_on_c, 14, 45, 0
17, 109200, Note_on_c, 14, 57, 48
17, 109319, Note_on_c, 14, 57, 0
17, 109320, Note_on_c, 14, 57, 50
17, 109439, Note_on_c, 14, 57, 0
17, 109440, Note_on_c, 14, 45, 51
17, 109679, Note_on_c, 14, 45, 0
17, 109680, Note_on_c, 14, 57, 53
17, 109799, Note_on_c, 14, 57, 0
17, 109800, Note_on_c, 14, 57, 54
17, 109919, Note_on_c, 14, 57, 0
17, 109920, Note_on_c, 14, 45, 56
17, 110159, Note_on_c, 14, 45, 0
17, 110160, Note_on_c, 14, 57, 56
17, 110279, Note_on_c, 14, 57, 0
17, 110280, Note_on_c, 14, 57, 55
17, 110399, Note_on_c, 14, 57, 0
17, 110400, Note_on_c, 14, 45, 54
17, 110639, Note_on_c, 14, 45, 0
17, 110640, Note_on_c, 14, 57, 51
17, 110759, Note_on_c, 14, 57, 0
17, 110760, Note_on_c, 14, 57, 50
17, 110879, Note_on_c, 14, 57, 0
17, 110880, Note_on_c, 14, 45, 48
17, 111119, Note_on_c, 14, 45, 0
17, 111120, Note_on_c, 14, 57, 46
17, 111239, Note_on_c, 14, 57, 0
17, 111240, Note_on_c, 14, 57, 44
17, 111359, Note_on_c, 14, 57, 0
17, 111360, Note_on_c, 14, 45, 44
17, 111599, Note_on_c, 14, 45, 0
17, 111600, Note_on_c, 14, 57, 44
17, 111719, Note_on_c, 14, 57, 0
17, 111720, Note_on_c, 14, 57, 44
17, 111839, Note_on_c, 14, 57, 0
17, 111840, Note_on_c, 14, 45, 45
17, 112079, Note_on_c, 14, 45, 0
17, 112080, Note_on_c, 14, 57, 47
17, 112199, Note_on_c, 14, 57, 0
17, 112200, Note_on_c, 14, 57, 48
17, 112319, Note_on_c, 14, 57, 0
17, 112320, Note_on_c, 14, 45, 49
17, 112559, Note_on_c, 14, 45, 0
17, 112560, Note_on_c, 14, 57, 50
17, 112679, Note_on_c, 14, 57, 0
17, 112680, Note_on_c, 14, 57, 51
17, 112799, Note_on_c, 14, 57, 0
17, 112800, Note_on_c, 14, 45, 52
17, 113039, Note_on_c, 14, 45, 0
17, 113040, Note_on_c, 14, 57, 54
17, 113159, Note_on_c, 14, 57, 0
17, 113160, Note_on_c, 14, 57, 55
17, 113279, Note_on_c, 14, 57, 0
17, 113280, Note_on_c, 14, 45, 56
17, 113519, Note_on_c, 14, 45, 0
17, 113520, Note_on_c, 14, 57, 54
17, 113639, Note_on_c, 14, 57, 0
17, 113640, Note_on_c, 14, 57, 53
17, 113759, Note_on_c, 14, 57, 0
17, 113760, Note_on_c, 14, 45, 52
17, 113999, Note_on_c, 14, 45, 0
17, 114000, Note_on_c, 14, 57, 50
17, 114119, Note_on_c, 14, 57, 0
17, 114120, Note_on_c, 14, 57, 49
17, 114239, Note_on_c, 14, 57, 0
17, 114240, Note_on_c, 14, 45, 48
17, 114479, Note_on_c, 14, 45, 0
17, 114480, Note_on_c, 14, 57, 46
17, 114599, Note_on_c, 14, 57, 0
17, 114600, Note_on_c, 14, 57, 45
17, 114719, Note_on_c, 14, 57, 0
17, 114720, Note_on_c, 14, 45, 44
17, 114959, Note_on_c, 14, 45, 0
17, 114960, Note_on_c, 14, 57, 44
17, 115079, Note_on_c, 14, 57, 0
17, 115080, Note_on_c, 14, 57, 43
17, 115199, Note_on_c, 14, 57, 0
17, 115200, Note_on_c, 14, 45, 43
17, 115439, Note_on_c, 14, 45, 0
17, 115440, Note_on_c, 14, 57, 42
17, 115559, Note_on_c, 14, 57, 0
17, 115560, Note_on_c, 14, 57, 42
17, 115679, Note_on_c, 14, 57, 0
17, 115680, Note_on_c, 14, 45, 42
17, 115919, Note_on_c, 14, 45, 0
17, 115920, Note_on_c, 14, 57, 41
17, 116039, Note_on_c, 14, 57, 0
17, 116040, Note_on_c, 14, 57, 41
17, 116147, Note_on_c, 14, 57, 0
17, 116158, Program_c, 14, 48
17, 116160, Note_on_c, 14, 57, 44
17, 116639, Note_on_c, 14, 57, 0
17, 116640, Note_on_c, 14, 53, 44
17, 117119, Note_on_c, 14, 53, 0
17, 117120, Note_on_c, 14, 52, 44
17, 117599, Note_on_c, 14, 52, 0
17, 117600, Note_on_c, 14, 50, 44
17, 118067, Note_on_c, 14, 50, 0
17, 118080, Note_on_c, 14, 43, 84
17, 118199, Note_on_c, 14, 43, 0
17, 118320, Note_on_c, 14, 55, 84
17, 118439, Note_on_c, 14, 55, 0
17, 118560, Note_on_c, 14, 48, 84
17, 118799, Note_on_c, 14, 48, 0
17, 119040, Note_on_c, 14, 52, 52
17, 119273, Note_on_c, 14, 52, 0
17, 119280, Note_on_c, 14, 52, 52
17, 119369, Note_on_c, 14, 52, 0
17, 119400, Note_on_c, 14, 52, 52
17, 119489, Note_on_c, 14, 52, 0
17, 119520, Note_on_c, 14, 45, 52
17, 119639, Note_on_c, 14, 45, 0
17, 120000, Note_on_c, 14, 43, 84
17, 120119, Note_on_c, 14, 43, 0
17, 120240, Note_on_c, 14, 55, 84
17, 120359, Note_on_c, 14, 55, 0
17, 120480, Note_on_c, 14, 48, 84
17, 120719, Note_on_c, 14, 48, 0
17, 120960, Note_on_c, 14, 52, 52
17, 121193, Note_on_c, 14, 52, 0
17, 121200, Note_on_c, 14, 52, 52
17, 121289, Note_on_c, 14, 52, 0
17, 121320, Note_on_c, 14, 52, 52
17, 121409, Note_on_c, 14, 52, 0
17, 121920, Program_c, 14, 45
17, 122160, Note_on_c, 14, 45, 44
17, 122399, Note_on_c, 14, 45, 0
17, 122640, Note_on_c, 14, 52, 44
17, 122879, Note_on_c, 14, 52, 0
17, 123120, Note_on_c, 14, 52, 44
17, 123359, Note_on_c, 14, 52, 0
17, 123600, Note_on_c, 14, 57, 44
17, 123839, Note_on_c, 14, 57, 0
17, 124080, Note_on_c, 14, 57, 44
17, 124319, Note_on_c, 14, 57, 0
17, 124560, Note_on_c, 14, 55, 44
17, 124799, Note_on_c, 14, 55, 0
17, 124800, Note_on_c, 14, 43, 44
17, 125039, Note_on_c, 14, 43, 0
17, 125040, Note_on_c, 14, 43, 44
17, 125159, Note_on_c, 14, 43, 0
17, 125160, Note_on_c, 14, 43, 44
17, 125279, Note_on_c, 14, 43, 0
17, 125280, Note_on_c, 14, 43, 44
17, 125519, Note_on_c, 14, 43, 0
17, 126000, Note_on_c, 14, 60, 44
17, 126239, Note_on_c, 14, 60, 0
17, 126480, Note_on_c, 14, 59, 44
17, 126719, Note_on_c, 14, 59, 0
17, 126960, Note_on_c, 14, 64, 44
17, 127199, Note_on_c, 14, 64, 0
17, 127440, Note_on_c, 14, 57, 44
17, 127679, Note_on_c, 14, 57, 0
17, 127920, Note_on_c, 14, 57, 44
17, 128159, Note_on_c, 14, 57, 0
17, 128160, Note_on_c, 14, 56, 44
17, 128399, Note_on_c, 14, 56, 0
17, 128400, Note_on_c, 14, 57, 44
17, 128639, Note_on_c, 14, 57, 0
17, 128640, Note_on_c, 14, 40, 44
17, 128879, Note_on_c, 14, 40, 0
17, 128880, Note_on_c, 14, 42, 44
17, 128999, Note_on_c, 14, 42, 0
17, 129000, Note_on_c, 14, 44, 44
17, 129119, Note_on_c, 14, 44, 0
17, 129120, Note_on_c, 14, 45, 44
17, 129359, Note_on_c, 14, 45, 0
17, 130560, Note_on_c, 14, 40, 44
17, 130799, Note_on_c, 14, 40, 0
17, 130800, Note_on_c, 14, 42, 44
17, 130919, Note_on_c, 14, 42, 0
17, 130920, Note_on_c, 14, 44, 44
17, 131039, Note_on_c, 14, 44, 0
17, 131040, Note_on_c, 14, 45, 44
17, 131279, Note_on_c, 14, 45, 0
17, 131520, Note_on_c, 14, 45, 44
17, 131747, Note_on_c, 14, 45, 0
17, 131758, Program_c, 14, 48
17, 132000, Note_on_c, 14, 45, 76
17, 132239, Note_on_c, 14, 45, 0
17, 132239, End_track
18, 0, Start_track
18, 0, Title_t, "Contrabass"
18, 0, MIDI_port, 0
18, 0, Control_c, 15, 7, 96
18, 0, Control_c, 15, 10, 100
18, 0, Program_c, 15, 48
18, 0, Control_c, 15, 11, 127
18, 960, Note_on_c, 15, 33, 52
18, 1191, Note_on_c, 15, 33, 0
18, 1200, Note_on_c, 15, 33, 52
18, 1289, Note_on_c, 15, 33, 0
18, 1320, Note_on_c, 15, 33, 52
18, 1409, Note_on_c, 15, 33, 0
18, 1440, Note_on_c, 15, 32, 52
18, 1649, Note_on_c, 15, 32, 0
18, 1680, Note_on_c, 15, 32, 52
18, 1889, Note_on_c, 15, 32, 0
18, 1920, Note_on_c, 15, 28, 52
18, 2151, Note_on_c, 15, 28, 0
18, 2160, Note_on_c, 15, 28, 52
18, 2249, Note_on_c, 15, 28, 0
18, 2280, Note_on_c, 15, 28, 52
18, 2369, Note_on_c, 15, 28, 0
18, 2400, Note_on_c, 15, 33, 52
18, 2609, Note_on_c, 15, 33, 0
18, 2640, Note_on_c, 15, 33, 52
18, 2849, Note_on_c, 15, 33, 0
18, 2880, Note_on_c, 15, 33, 52
18, 3111, Note_on_c, 15, 33, 0
18, 3120, Note_on_c, 15, 33, 52
18, 3209, Note_on_c, 15, 33, 0
18, 3240, Note_on_c, 15, 33, 52
18, 3329, Note_on_c, 15, 33, 0
18, 3360, Note_on_c, 15, 31, 52
18, 3569, Note_on_c, 15, 31, 0
18, 3600, Note_on_c, 15, 31, 52
18, 3809, Note_on_c, 15, 31, 0
18, 3840, Note_on_c, 15, 31, 52
18, 4071, Note_on_c, 15, 31, 0
18, 4080, Note_on_c, 15, 31, 52
18, 4169, Note_on_c, 15, 31, 0
18, 4200, Note_on_c, 15, 31, 52
18, 4289, Note_on_c, 15, 31, 0
18, 4320, Note_on_c, 15, 36, 52
18, 4559, Note_on_c, 15, 36, 0
18, 4800, Note_on_c, 15, 36, 52
18, 5031, Note_on_c, 15, 36, 0
18, 5040, Note_on_c, 15, 36, 52
18, 5129, Note_on_c, 15, 36, 0
18, 5160, Note_on_c, 15, 36, 52
18, 5249, Note_on_c, 15, 36, 0
18, 5280, Note_on_c, 15, 35, 52
18, 5489, Note_on_c, 15, 35, 0
18, 5520, Note_on_c, 15, 35, 52
18, 5729, Note_on_c, 15, 35, 0
18, 5760, Note_on_c, 15, 35, 52
18, 5991, Note_on_c, 15, 35, 0
18, 6000, Note_on_c, 15, 35, 52
18, 6089, Note_on_c, 15, 35, 0
18, 6120, Note_on_c, 15, 35, 52
18, 6209, Note_on_c, 15, 35, 0
18, 6240, Note_on_c, 15, 33, 52
18, 6449, Note_on_c, 15, 33, 0
18, 6480, Note_on_c, 15, 33, 52
18, 6689, Note_on_c, 15, 33, 0
18, 6720, Note_on_c, 15, 33, 52
18, 6951, Note_on_c, 15, 33, 0
18, 6960, Note_on_c, 15, 33, 52
18, 7049, Note_on_c, 15, 33, 0
18, 7080, Note_on_c, 15, 33, 52
18, 7169, Note_on_c, 15, 33, 0
18, 7200, Note_on_c, 15, 32, 52
18, 7409, Note_on_c, 15, 32, 0
18, 7440, Note_on_c, 15, 33, 52
18, 7649, Note_on_c, 15, 33, 0
18, 7680, Note_on_c, 15, 28, 52
18, 7911, Note_on_c, 15, 28, 0
18, 7920, Note_on_c, 15, 28, 52
18, 8009, Note_on_c, 15, 28, 0
18, 8040, Note_on_c, 15, 28, 52
18, 8129, Note_on_c, 15, 28, 0
18, 8160, Note_on_c, 15, 33, 52
18, 8399, Note_on_c, 15, 33, 0
18, 8640, Note_on_c, 15, 36, 44
18, 8871, Note_on_c, 15, 36, 0
18, 8880, Note_on_c, 15, 36, 44
18, 8969, Note_on_c, 15, 36, 0
18, 9000, Note_on_c, 15, 36, 44
18, 9089, Note_on_c, 15, 36, 0
18, 9120, Note_on_c, 15, 35, 44
18, 9329, Note_on_c, 15, 35, 0
18, 9360, Note_on_c, 15, 35, 44
18, 9569, Note_on_c, 15, 35, 0
18, 9600, Note_on_c, 15, 35, 44
18, 9831, Note_on_c, 15, 35, 0
18, 9840, Note_on_c, 15, 35, 44
18, 9929, Note_on_c, 15, 35, 0
18, 9960, Note_on_c, 15, 35, 44
18, 10049, Note_on_c, 15, 35, 0
18, 10080, Note_on_c, 15, 33, 44
18, 10289, Note_on_c, 15, 33, 0
18, 10320, Note_on_c, 15, 33, 44
18, 10529, Note_on_c, 15, 33, 0
18, 10560, Note_on_c, 15, 33, 44
18, 10791, Note_on_c, 15, 33, 0
18, 10800, Note_on_c, 15, 33, 44
18, 10889, Note_on_c, 15, 33, 0
18, 10920, Note_on_c, 15, 33, 44
18, 11009, Note_on_c, 15, 33, 0
18, 11040, Note_on_c, 15, 32, 44
18, 11249, Note_on_c, 15, 32, 0
18, 11280, Note_on_c, 15, 33, 44
18, 11489, Note_on_c, 15, 33, 0
18, 11520, Note_on_c, 15, 28, 44
18, 11751, Note_on_c, 15, 28, 0
18, 11760, Note_on_c, 15, 28, 44
18, 11849, Note_on_c, 15, 28, 0
18, 11880, Note_on_c, 15, 28, 44
18, 11969, Note_on_c, 15, 28, 0
18, 12000, Note_on_c, 15, 33, 44
18, 12239, Note_on_c, 15, 33, 0
18, 12720, Note_on_c, 15, 33, 44
18, 12809, Note_on_c, 15, 33, 0
18, 12840, Note_on_c, 15, 33, 44
18, 12929, Note_on_c, 15, 33, 0
18, 12960, Note_on_c, 15, 32, 44
18, 13049, Note_on_c, 15, 32, 0
18, 13200, Note_on_c, 15, 44, 44
18, 13289, Note_on_c, 15, 44, 0
18, 13680, Note_on_c, 15, 28, 44
18, 13769, Note_on_c, 15, 28, 0
18, 13800, Note_on_c, 15, 28, 44
18, 13889, Note_on_c, 15, 28, 0
18, 13920, Note_on_c, 15, 33, 44
18, 14009, Note_on_c, 15, 33, 0
18, 14160, Note_on_c, 15, 45, 44
18, 14249, Note_on_c, 15, 45, 0
18, 14640, Note_on_c, 15, 33, 44
18, 14729, Note_on_c, 15, 33, 0
18, 14760, Note_on_c, 15, 33, 44
18, 14849, Note_on_c, 15, 33, 0
18, 14880, Note_on_c, 15, 31, 44
18, 14969, Note_on_c, 15, 31, 0
18, 15120, Note_on_c, 15, 43, 44
18, 15209, Note_on_c, 15, 43, 0
18, 15600, Note_on_c, 15, 43, 44
18, 15689, Note_on_c, 15, 43, 0
18, 15720, Note_on_c, 15, 43, 44
18, 15809, Note_on_c, 15, 43, 0
18, 15840, Note_on_c, 15, 36, 44
18, 15929, Note_on_c, 15, 36, 0
18, 16080, Note_on_c, 15, 48, 44
18, 16169, Note_on_c, 15, 48, 0
18, 16560, Note_on_c, 15, 36, 44
18, 16649, Note_on_c, 15, 36, 0
18, 16680, Note_on_c, 15, 36, 44
18, 16769, Note_on_c, 15, 36, 0
18, 16800, Note_on_c, 15, 35, 44
18, 16889, Note_on_c, 15, 35, 0
18, 17040, Note_on_c, 15, 47, 44
18, 17129, Note_on_c, 15, 47, 0
18, 17520, Note_on_c, 15, 40, 44
18, 17609, Note_on_c, 15, 40, 0
18, 17640, Note_on_c, 15, 40, 44
18, 17729, Note_on_c, 15, 40, 0
18, 17760, Note_on_c, 15, 33, 44
18, 17849, Note_on_c, 15, 33, 0
18, 18000, Note_on_c, 15, 45, 44
18, 18089, Note_on_c, 15, 45, 0
18, 18480, Note_on_c, 15, 33, 44
18, 18569, Note_on_c, 15, 33, 0
18, 18600, Note_on_c, 15, 33, 44
18, 18689, Note_on_c, 15, 33, 0
18, 18720, Note_on_c, 15, 32, 44
18, 18809, Note_on_c, 15, 32, 0
18, 18960, Note_on_c, 15, 33, 44
18, 19049, Note_on_c, 15, 33, 0
18, 19440, Note_on_c, 15, 28, 44
18, 19529, Note_on_c, 15, 28, 0
18, 19560, Note_on_c, 15, 28, 44
18, 19649, Note_on_c, 15, 28, 0
18, 19680, Note_on_c, 15, 33, 44
18, 19769, Note_on_c, 15, 33, 0
18, 19920, Note_on_c, 15, 45, 44
18, 20009, Note_on_c, 15, 45, 0
18, 20400, Note_on_c, 15, 36, 44
18, 20489, Note_on_c, 15, 36, 0
18, 20520, Note_on_c, 15, 36, 44
18, 20609, Note_on_c, 15, 36, 0
18, 20640, Note_on_c, 15, 35, 44
18, 20729, Note_on_c, 15, 35, 0
18, 20880, Note_on_c, 15, 47, 44
18, 20969, Note_on_c, 15, 47, 0
18, 21360, Note_on_c, 15, 40, 44
18, 21449, Note_on_c, 15, 40, 0
18, 21480, Note_on_c, 15, 40, 44
18, 21569, Note_on_c, 15, 40, 0
18, 21600, Note_on_c, 15, 33, 44
18, 21689, Note_on_c, 15, 33, 0
18, 21840, Note_on_c, 15, 45, 44
18, 21929, Note_on_c, 15, 45, 0
18, 22320, Note_on_c, 15, 33, 44
18, 22409, Note_on_c, 15, 33, 0
18, 22440, Note_on_c, 15, 33, 44
18, 22529, Note_on_c, 15, 33, 0
18, 22560, Note_on_c, 15, 32, 44
18, 22649, Note_on_c, 15, 32, 0
18, 22800, Note_on_c, 15, 33, 44
18, 22889, Note_on_c, 15, 33, 0
18, 23280, Note_on_c, 15, 28, 44
18, 23369, Note_on_c, 15, 28, 0
18, 23400, Note_on_c, 15, 28, 44
18, 23489, Note_on_c, 15, 28, 0
18, 23520, Note_on_c, 15, 33, 44
18, 23609, Note_on_c, 15, 33, 0
18, 23760, Note_on_c, 15, 45, 44
18, 23849, Note_on_c, 15, 45, 0
18, 24000, Note_on_c, 15, 33, 44
18, 24239, Note_on_c, 15, 33, 0
18, 24360, Note_on_c, 15, 45, 45
18, 24467, Note_on_c, 15, 45, 0
18, 24480, Note_on_c, 15, 32, 46
18, 24719, Note_on_c, 15, 32, 0
18, 24840, Note_on_c, 15, 44, 47
18, 24947, Note_on_c, 15, 44, 0
18, 24960, Note_on_c, 15, 28, 48
18, 25199, Note_on_c, 15, 28, 0
18, 25320, Note_on_c, 15, 40, 49
18, 25427, Note_on_c, 15, 40, 0
18, 25440, Note_on_c, 15, 33, 50
18, 25679, Note_on_c, 15, 33, 0
18, 25800, Note_on_c, 15, 45, 51
18, 25907, Note_on_c, 15, 45, 0
18, 25920, Note_on_c, 15, 33, 52
18, 26159, Note_on_c, 15, 33, 0
18, 26280, Note_on_c, 15, 45, 53
18, 26387, Note_on_c, 15, 45, 0
18, 26400, Note_on_c, 15, 31, 54
18, 26639, Note_on_c, 15, 31, 0
18, 26760, Note_on_c, 15, 43, 55
18, 26867, Note_on_c, 15, 43, 0
18, 26880, Note_on_c, 15, 31, 56
18, 27119, Note_on_c, 15, 31, 0
18, 27240, Note_on_c, 15, 43, 57
18, 27347, Note_on_c, 15, 43, 0
18, 27360, Note_on_c, 15, 36, 58
18, 27599, Note_on_c, 15, 36, 0
18, 27720, Note_on_c, 15, 48, 59
18, 27827, Note_on_c, 15, 48, 0
18, 27840, Note_on_c, 15, 36, 60
18, 28079, Note_on_c, 15, 36, 0
18, 28200, Note_on_c, 15, 48, 61
18, 28307, Note_on_c, 15, 48, 0
18, 28320, Note_on_c, 15, 35, 62
18, 28559, Note_on_c, 15, 35, 0
18, 28680, Note_on_c, 15, 47, 63
18, 28787, Note_on_c, 15, 47, 0
18, 28800, Note_on_c, 15, 35, 64
18, 29039, Note_on_c, 15, 35, 0
18, 29160, Note_on_c, 15, 47, 65
18, 29267, Note_on_c, 15, 47, 0
18, 29280, Note_on_c, 15, 33, 66
18, 29519, Note_on_c, 15, 33, 0
18, 29640, Note_on_c, 15, 45, 67
18, 29747, Note_on_c, 15, 45, 0
18, 29760, Note_on_c, 15, 33, 68
18, 29999, Note_on_c, 15, 33, 0
18, 30120, Note_on_c, 15, 45, 69
18, 30227, Note_on_c, 15, 45, 0
18, 30240, Note_on_c, 15, 32, 70
18, 30479, Note_on_c, 15, 32, 0
18, 30600, Note_on_c, 15, 33, 71
18, 30707, Note_on_c, 15, 33, 0
18, 30720, Note_on_c, 15, 28, 72
18, 30959, Note_on_c, 15, 28, 0
18, 31080, Note_on_c, 15, 40, 73
18, 31187, Note_on_c, 15, 40, 0
18, 31200, Note_on_c, 15, 33, 74
18, 31439, Note_on_c, 15, 33, 0
18, 31560, Note_on_c, 15, 45, 75
18, 31667, Note_on_c, 15, 45, 0
18, 31680, Note_on_c, 15, 36, 76
18, 31919, Note_on_c, 15, 36, 0
18, 32040, Note_on_c, 15, 48, 76
18, 32147, Note_on_c, 15, 48, 0
18, 32160, Note_on_c, 15, 35, 76
18, 32399, Note_on_c, 15, 35, 0
18, 32520, Note_on_c, 15, 47, 76
18, 32627, Note_on_c, 15, 47, 0
18, 32640, Note_on_c, 15, 35, 80
18, 32879, Note_on_c, 15, 35, 0
18, 33000, Note_on_c, 15, 47, 80
18, 33107, Note_on_c, 15, 47, 0
18, 33120, Note_on_c, 15, 33, 80
18, 33359, Note_on_c, 15, 33, 0
18, 33480, Note_on_c, 15, 45, 80
18, 33587, Note_on_c, 15, 45, 0
18, 33600, Note_on_c, 15, 33, 80
18, 33839, Note_on_c, 15, 33, 0
18, 33960, Note_on_c, 15, 45, 80
18, 34067, Note_on_c, 15, 45, 0
18, 34080, Note_on_c, 15, 32, 80
18, 34319, Note_on_c, 15, 32, 0
18, 34440, Note_on_c, 15, 33, 80
18, 34547, Note_on_c, 15, 33, 0
18, 34560, Note_on_c, 15, 28, 80
18, 34799, Note_on_c, 15, 28, 0
18, 34920, Note_on_c, 15, 40, 80
18, 35027, Note_on_c, 15, 40, 0
18, 35040, Note_on_c, 15, 33, 80
18, 35279, Note_on_c, 15, 33, 0
18, 35400, Note_on_c, 15, 45, 80
18, 35507, Note_on_c, 15, 45, 0
18, 35520, Note_on_c, 15, 33, 84
18, 35759, Note_on_c, 15, 33, 0
18, 35840, Note_on_c, 15, 33, 84
18, 35899, Note_on_c, 15, 33, 0
18, 35920, Note_on_c, 15, 45, 84
18, 35979, Note_on_c, 15, 45, 0
18, 36000, Note_on_c, 15, 32, 84
18, 36239, Note_on_c, 15, 32, 0
18, 36320, Note_on_c, 15, 32, 84
18, 36379, Note_on_c, 15, 32, 0
18, 36400, Note_on_c, 15, 44, 84
18, 36459, Note_on_c, 15, 44, 0
18, 36480, Note_on_c, 15, 28, 84
18, 36719, Note_on_c, 15, 28, 0
18, 36800, Note_on_c, 15, 28, 84
18, 36859, Note_on_c, 15, 28, 0
18, 36880, Note_on_c, 15, 40, 84
18, 36939, Note_on_c, 15, 40, 0
18, 36960, Note_on_c, 15, 33, 84
18, 37199, Note_on_c, 15, 33, 0
18, 37280, Note_on_c, 15, 33, 84
18, 37339, Note_on_c, 15, 33, 0
18, 37360, Note_on_c, 15, 45, 84
18, 37419, Note_on_c, 15, 45, 0
18, 37440, Note_on_c, 15, 33, 84
18, 37679, Note_on_c, 15, 33, 0
18, 37760, Note_on_c, 15, 33, 84
18, 37819, Note_on_c, 15, 33, 0
18, 37840, Note_on_c, 15, 45, 84
18, 37899, Note_on_c, 15, 45, 0
18, 37920, Note_on_c, 15, 31, 84
18, 38159, Note_on_c, 15, 31, 0
18, 38240, Note_on_c, 15, 31, 84
18, 38299, Note_on_c, 15, 31, 0
18, 38320, Note_on_c, 15, 43, 84
18, 38379, Note_on_c, 15, 43, 0
18, 38400, Note_on_c, 15, 31, 84
18, 38639, Note_on_c, 15, 31, 0
18, 38720, Note_on_c, 15, 31, 84
18, 38779, Note_on_c, 15, 31, 0
18, 38800, Note_on_c, 15, 43, 84
18, 38859, Note_on_c, 15, 43, 0
18, 38880, Note_on_c, 15, 36, 84
18, 39119, Note_on_c, 15, 36, 0
18, 39200, Note_on_c, 15, 36, 84
18, 39259, Note_on_c, 15, 36, 0
18, 39280, Note_on_c, 15, 48, 84
18, 39339, Note_on_c, 15, 48, 0
18, 39360, Note_on_c, 15, 36, 84
18, 39599, Note_on_c, 15, 36, 0
18, 39680, Note_on_c, 15, 36, 84
18, 39739, Note_on_c, 15, 36, 0
18, 39760, Note_on_c, 15, 48, 84
18, 39819, Note_on_c, 15, 48, 0
18, 39840, Note_on_c, 15, 35, 84
18, 40079, Note_on_c, 15, 35, 0
18, 40160, Note_on_c, 15, 35, 84
18, 40219, Note_on_c, 15, 35, 0
18, 40240, Note_on_c, 15, 47, 84
18, 40299, Note_on_c, 15, 47, 0
18, 40320, Note_on_c, 15, 35, 84
18, 40559, Note_on_c, 15, 35, 0
18, 40640, Note_on_c, 15, 35, 84
18, 40699, Note_on_c, 15, 35, 0
18, 40720, Note_on_c, 15, 47, 84
18, 40779, Note_on_c, 15, 47, 0
18, 40800, Note_on_c, 15, 33, 84
18, 41039, Note_on_c, 15, 33, 0
18, 41120, Note_on_c, 15, 33, 84
18, 41179, Note_on_c, 15, 33, 0
18, 41200, Note_on_c, 15, 45, 84
18, 41259, Note_on_c, 15, 45, 0
18, 41280, Note_on_c, 15, 33, 84
18, 41519, Note_on_c, 15, 33, 0
18, 41600, Note_on_c, 15, 33, 84
18, 41659, Note_on_c, 15, 33, 0
18, 41680, Note_on_c, 15, 45, 84
18, 41739, Note_on_c, 15, 45, 0
18, 41760, Note_on_c, 15, 32, 84
18, 41999, Note_on_c, 15, 32, 0
18, 42080, Note_on_c, 15, 33, 84
18, 42139, Note_on_c, 15, 33, 0
18, 42160, Note_on_c, 15, 45, 84
18, 42219, Note_on_c, 15, 45, 0
18, 42240, Note_on_c, 15, 28, 84
18, 42479, Note_on_c, 15, 28, 0
18, 42560, Note_on_c, 15, 28, 84
18, 42619, Note_on_c, 15, 28, 0
18, 42640, Note_on_c, 15, 40, 84
18, 42699, Note_on_c, 15, 40, 0
18, 42720, Note_on_c, 15, 33, 84
18, 42959, Note_on_c, 15, 33, 0
18, 43040, Note_on_c, 15, 33, 84
18, 43099, Note_on_c, 15, 33, 0
18, 43120, Note_on_c, 15, 35, 84
18, 43179, Note_on_c, 15, 35, 0
18, 43200, Note_on_c, 15, 36, 84
18, 43439, Note_on_c, 15, 36, 0
18, 43520, Note_on_c, 15, 36, 81
18, 43579, Note_on_c, 15, 36, 0
18, 43600, Note_on_c, 15, 48, 81
18, 43659, Note_on_c, 15, 48, 0
18, 43680, Note_on_c, 15, 35, 80
18, 43919, Note_on_c, 15, 35, 0
18, 44000, Note_on_c, 15, 35, 77
18, 44059, Note_on_c, 15, 35, 0
18, 44080, Note_on_c, 15, 47, 76
18, 44139, Note_on_c, 15, 47, 0
18, 44160, Note_on_c, 15, 35, 75
18, 44399, Note_on_c, 15, 35, 0
18, 44480, Note_on_c, 15, 35, 72
18, 44539, Note_on_c, 15, 35, 0
18, 44560, Note_on_c, 15, 47, 72
18, 44619, Note_on_c, 15, 47, 0
18, 44640, Note_on_c, 15, 33, 71
18, 44879, Note_on_c, 15, 33, 0
18, 44960, Note_on_c, 15, 33, 68
18, 45019, Note_on_c, 15, 33, 0
18, 45040, Note_on_c, 15, 45, 67
18, 45099, Note_on_c, 15, 45, 0
18, 45120, Note_on_c, 15, 33, 66
18, 45359, Note_on_c, 15, 33, 0
18, 45440, Note_on_c, 15, 33, 63
18, 45499, Note_on_c, 15, 33, 0
18, 45520, Note_on_c, 15, 45, 62
18, 45579, Note_on_c, 15, 45, 0
18, 45600, Note_on_c, 15, 32, 62
18, 45839, Note_on_c, 15, 32, 0
18, 45920, Note_on_c, 15, 33, 59
18, 45979, Note_on_c, 15, 33, 0
18, 46000, Note_on_c, 15, 45, 58
18, 46059, Note_on_c, 15, 45, 0
18, 46080, Note_on_c, 15, 28, 57
18, 46319, Note_on_c, 15, 28, 0
18, 46400, Note_on_c, 15, 28, 54
18, 46459, Note_on_c, 15, 28, 0
18, 46480, Note_on_c, 15, 40, 53
18, 46539, Note_on_c, 15, 40, 0
18, 46560, Note_on_c, 15, 33, 52
18, 46799, Note_on_c, 15, 33, 0
18, 47520, Program_c, 15, 45
18, 48000, Note_on_c, 15, 28, 44
18, 48239, Note_on_c, 15, 28, 0
18, 48240, Note_on_c, 15, 30, 44
18, 48359, Note_on_c, 15, 30, 0
18, 48360, Note_on_c, 15, 32, 44
18, 48479, Note_on_c, 15, 32, 0
18, 48480, Note_on_c, 15, 33, 44
18, 48719, Note_on_c, 15, 33, 0
18, 48720, Note_on_c, 15, 45, 44
18, 48839, Note_on_c, 15, 45, 0
18, 48840, Note_on_c, 15, 45, 44
18, 48959, Note_on_c, 15, 45, 0
18, 48960, Note_on_c, 15, 33, 44
18, 49199, Note_on_c, 15, 33, 0
18, 49200, Note_on_c, 15, 45, 44
18, 49319, Note_on_c, 15, 45, 0
18, 49320, Note_on_c, 15, 45, 44
18, 49439, Note_on_c, 15, 45, 0
18, 49440, Note_on_c, 15, 33, 44
18, 49679, Note_on_c, 15, 33, 0
18, 49680, Note_on_c, 15, 45, 44
18, 49799, Note_on_c, 15, 45, 0
18, 49800, Note_on_c, 15, 45, 44
18, 49919, Note_on_c, 15, 45, 0
18, 49920, Note_on_c, 15, 33, 45
18, 50159, Note_on_c, 15, 33, 0
18, 50160, Note_on_c, 15, 45, 47
18, 50279, Note_on_c, 15, 45, 0
18, 50280, Note_on_c, 15, 45, 48
18, 50399, Note_on_c, 15, 45, 0
18, 50400, Note_on_c, 15, 33, 49
18, 50639, Note_on_c, 15, 33, 0
18, 50640, Note_on_c, 15, 45, 50
18, 50759, Note_on_c, 15, 45, 0
18, 50760, Note_on_c, 15, 45, 51
18, 50879, Note_on_c, 15, 45, 0
18, 50880, Note_on_c, 15, 33, 52
18, 51119, Note_on_c, 15, 33, 0
18, 51120, Note_on_c, 15, 45, 54
18, 51239, Note_on_c, 15, 45, 0
18, 51240, Note_on_c, 15, 45, 55
18, 51359, Note_on_c, 15, 45, 0
18, 51360, Note_on_c, 15, 33, 56
18, 51599, Note_on_c, 15, 33, 0
18, 51600, Note_on_c, 15, 45, 56
18, 51719, Note_on_c, 15, 45, 0
18, 51720, Note_on_c, 15, 45, 54
18, 51839, Note_on_c, 15, 45, 0
18, 51840, Note_on_c, 15, 33, 52
18, 52079, Note_on_c, 15, 33, 0
18, 52080, Note_on_c, 15, 45, 47
18, 52199, Note_on_c, 15, 45, 0
18, 52200, Note_on_c, 15, 45, 44
18, 52319, Note_on_c, 15, 45, 0
18, 52320, Note_on_c, 15, 33, 44
18, 52559, Note_on_c, 15, 33, 0
18, 52560, Note_on_c, 15, 45, 44
18, 52679, Note_on_c, 15, 45, 0
18, 52680, Note_on_c, 15, 45, 45
18, 52799, Note_on_c, 15, 45, 0
18, 52800, Note_on_c, 15, 33, 46
18, 53039, Note_on_c, 15, 33, 0
18, 53040, Note_on_c, 15, 45, 48
18, 53159, Note_on_c, 15, 45, 0
18, 53160, Note_on_c, 15, 45, 49
18, 53279, Note_on_c, 15, 45, 0
18, 53280, Note_on_c, 15, 33, 50
18, 53519, Note_on_c, 15, 33, 0
18, 53520, Note_on_c, 15, 45, 52
18, 53639, Note_on_c, 15, 45, 0
18, 53640, Note_on_c, 15, 45, 53
18, 53759, Note_on_c, 15, 45, 0
18, 53760, Note_on_c, 15, 33, 54
18, 53999, Note_on_c, 15, 33, 0
18, 54000, Note_on_c, 15, 45, 56
18, 54119, Note_on_c, 15, 45, 0
18, 54120, Note_on_c, 15, 45, 56
18, 54239, Note_on_c, 15, 45, 0
18, 54240, Note_on_c, 15, 30, 56
18, 54359, Note_on_c, 15, 30, 0
18, 54360, Note_on_c, 15, 32, 55
18, 54479, Note_on_c, 15, 32, 0
18, 54480, Note_on_c, 15, 33, 53
18, 54599, Note_on_c, 15, 33, 0
18, 54600, Note_on_c, 15, 33, 52
18, 54719, Note_on_c, 15, 33, 0
18, 54720, Note_on_c, 15, 35, 50
18, 54959, Note_on_c, 15, 35, 0
18, 54960, Note_on_c, 15, 47, 47
18, 55079, Note_on_c, 15, 47, 0
18, 55080, Note_on_c, 15, 47, 46
18, 55199, Note_on_c, 15, 47, 0
18, 55200, Note_on_c, 15, 40, 44
18, 55439, Note_on_c, 15, 40, 0
18, 55440, Note_on_c, 15, 52, 44
18, 55559, Note_on_c, 15, 52, 0
18, 55560, Note_on_c, 15, 52, 44
18, 55679, Note_on_c, 15, 52, 0
18, 55680, Note_on_c, 15, 40, 44
18, 55919, Note_on_c, 15, 40, 0
18, 55920, Note_on_c, 15, 52, 44
18, 56039, Note_on_c, 15, 52, 0
18, 56040, Note_on_c, 15, 52, 44
18, 56159, Note_on_c, 15, 52, 0
18, 56160, Note_on_c, 15, 40, 44
18, 56399, Note_on_c, 15, 40, 0
18, 56400, Note_on_c, 15, 52, 44
18, 56519, Note_on_c, 15, 52, 0
18, 56520, Note_on_c, 15, 52, 44
18, 56639, Note_on_c, 15, 52, 0
18, 56640, Note_on_c, 15, 40, 44
18, 56879, Note_on_c, 15, 40, 0
18, 56880, Note_on_c, 15, 52, 44
18, 56999, Note_on_c, 15, 52, 0
18, 57000, Note_on_c, 15, 52, 44
18, 57119, Note_on_c, 15, 52, 0
18, 57120, Note_on_c, 15, 40, 44
18, 57359, Note_on_c, 15, 40, 0
18, 57360, Note_on_c, 15, 52, 44
18, 57479, Note_on_c, 15, 52, 0
18, 57480, Note_on_c, 15, 52, 44
18, 57599, Note_on_c, 15, 52, 0
18, 57600, Note_on_c, 15, 40, 44
18, 57839, Note_on_c, 15, 40, 0
18, 57840, Note_on_c, 15, 52, 44
18, 57959, Note_on_c, 15, 52, 0
18, 57960, Note_on_c, 15, 52, 44
18, 58079, Note_on_c, 15, 52, 0
18, 58080, Note_on_c, 15, 40, 44
18, 58319, Note_on_c, 15, 40, 0
18, 58320, Note_on_c, 15, 52, 44
18, 58439, Note_on_c, 15, 52, 0
18, 58440, Note_on_c, 15, 52, 44
18, 58559, Note_on_c, 15, 52, 0
18, 58560, Note_on_c, 15, 37, 44
18, 58799, Note_on_c, 15, 37, 0
18, 58800, Note_on_c, 15, 49, 45
18, 58919, Note_on_c, 15, 49, 0
18, 58920, Note_on_c, 15, 49, 46
18, 59039, Note_on_c, 15, 49, 0
18, 59040, Note_on_c, 15, 38, 47
18, 59279, Note_on_c, 15, 38, 0
18, 59280, Note_on_c, 15, 50, 48
18, 59399, Note_on_c, 15, 50, 0
18, 59400, Note_on_c, 15, 50, 49
18, 59519, Note_on_c, 15, 50, 0
18, 59520, Note_on_c, 15, 37, 50
18, 59759, Note_on_c, 15, 37, 0
18, 59760, Note_on_c, 15, 49, 51
18, 59879, Note_on_c, 15, 49, 0
18, 59880, Note_on_c, 15, 49, 52
18, 59999, Note_on_c, 15, 49, 0
18, 60000, Note_on_c, 15, 38, 53
18, 60239, Note_on_c, 15, 38, 0
18, 60240, Note_on_c, 15, 50, 54
18, 60359, Note_on_c, 15, 50, 0
18, 60360, Note_on_c, 15, 50, 55
18, 60479, Note_on_c, 15, 50, 0
18, 60480, Note_on_c, 15, 37, 56
18, 60719, Note_on_c, 15, 37, 0
18, 60720, Note_on_c, 15, 49, 53
18, 60839, Note_on_c, 15, 49, 0
18, 60840, Note_on_c, 15, 49, 52
18, 60959, Note_on_c, 15, 49, 0
18, 60960, Note_on_c, 15, 38, 50
18, 61199, Note_on_c, 15, 38, 0
18, 61200, Note_on_c, 15, 50, 47
18, 61319, Note_on_c, 15, 50, 0
18, 61320, Note_on_c, 15, 50, 46
18, 61439, Note_on_c, 15, 50, 0
18, 61440, Note_on_c, 15, 40, 44
18, 61679, Note_on_c, 15, 40, 0
18, 61680, Note_on_c, 15, 52, 44
18, 61799, Note_on_c, 15, 52, 0
18, 61800, Note_on_c, 15, 52, 44
18, 61919, Note_on_c, 15, 52, 0
18, 61920, Note_on_c, 15, 33, 44
18, 62159, Note_on_c, 15, 33, 0
18, 62160, Note_on_c, 15, 45, 45
18, 62279, Note_on_c, 15, 45, 0
18, 62280, Note_on_c, 15, 45, 45
18, 62399, Note_on_c, 15, 45, 0
18, 62400, Note_on_c, 15, 37, 46
18, 62639, Note_on_c, 15, 37, 0
18, 62640, Note_on_c, 15, 49, 47
18, 62759, Note_on_c, 15, 49, 0
18, 62760, Note_on_c, 15, 49, 48
18, 62879, Note_on_c, 15, 49, 0
18, 62880, Note_on_c, 15, 38, 48
18, 63119, Note_on_c, 15, 38, 0
18, 63120, Note_on_c, 15, 50, 50
18, 63239, Note_on_c, 15, 50, 0
18, 63240, Note_on_c, 15, 50, 50
18, 63359, Note_on_c, 15, 50, 0
18, 63360, Note_on_c, 15, 37, 51
18, 63599, Note_on_c, 15, 37, 0
18, 63600, Note_on_c, 15, 49, 52
18, 63719, Note_on_c, 15, 49, 0
18, 63720, Note_on_c, 15, 49, 53
18, 63839, Note_on_c, 15, 49, 0
18, 63840, Note_on_c, 15, 38, 53
18, 64079, Note_on_c, 15, 38, 0
18, 64080, Note_on_c, 15, 50, 54
18, 64199, Note_on_c, 15, 50, 0
18, 64200, Note_on_c, 15, 50, 55
18, 64319, Note_on_c, 15, 50, 0
18, 64320, Note_on_c, 15, 37, 56
18, 64559, Note_on_c, 15, 37, 0
18, 64560, Note_on_c, 15, 36, 53
18, 64679, Note_on_c, 15, 36, 0
18, 64680, Note_on_c, 15, 36, 52
18, 64799, Note_on_c, 15, 36, 0
18, 64800, Note_on_c, 15, 29, 50
18, 65039, Note_on_c, 15, 29, 0
18, 65040, Note_on_c, 15, 41, 47
18, 65159, Note_on_c, 15, 41, 0
18, 65160, Note_on_c, 15, 41, 46
18, 65279, Note_on_c, 15, 41, 0
18, 65280, Note_on_c, 15, 31, 44
18, 65519, Note_on_c, 15, 31, 0
18, 65520, Note_on_c, 15, 43, 44
18, 65639, Note_on_c, 15, 43, 0
18, 65640, Note_on_c, 15, 43, 44
18, 65759, Note_on_c, 15, 43, 0
18, 65760, Note_on_c, 15, 36, 44
18, 65999, Note_on_c, 15, 36, 0
18, 66000, Note_on_c, 15, 48, 44
18, 66119, Note_on_c, 15, 48, 0
18, 66120, Note_on_c, 15, 48, 44
18, 66239, Note_on_c, 15, 48, 0
18, 66240, Note_on_c, 15, 36, 44
18, 66479, Note_on_c, 15, 36, 0
18, 66480, Note_on_c, 15, 48, 44
18, 66599, Note_on_c, 15, 48, 0
18, 66600, Note_on_c, 15, 48, 44
18, 66719, Note_on_c, 15, 48, 0
18, 66720, Note_on_c, 15, 36, 44
18, 66959, Note_on_c, 15, 36, 0
18, 66960, Note_on_c, 15, 48, 44
18, 67079, Note_on_c, 15, 48, 0
18, 67080, Note_on_c, 15, 48, 44
18, 67199, Note_on_c, 15, 48, 0
18, 67200, Note_on_c, 15, 36, 44
18, 67439, Note_on_c, 15, 36, 0
18, 67440, Note_on_c, 15, 48, 44
18, 67559, Note_on_c, 15, 48, 0
18, 67560, Note_on_c, 15, 48, 44
18, 67679, Note_on_c, 15, 48, 0
18, 67680, Note_on_c, 15, 36, 44
18, 67919, Note_on_c, 15, 36, 0
18, 67920, Note_on_c, 15, 48, 44
18, 68039, Note_on_c, 15, 48, 0
18, 68040, Note_on_c, 15, 48, 44
18, 68159, Note_on_c, 15, 48, 0
18, 68160, Note_on_c, 15, 36, 44
18, 68399, Note_on_c, 15, 36, 0
18, 68400, Note_on_c, 15, 48, 54
18, 68519, Note_on_c, 15, 48, 0
18, 68520, Note_on_c, 15, 48, 59
18, 68639, Note_on_c, 15, 48, 0
18, 69600, Program_c, 15, 48
18, 70000, Note_on_c, 15, 48, 76
18, 70059, Note_on_c, 15, 48, 0
18, 70080, Note_on_c, 15, 47, 76
18, 70139, Note_on_c, 15, 47, 0
18, 70160, Note_on_c, 15, 45, 76
18, 70219, Note_on_c, 15, 45, 0
18, 70240, Note_on_c, 15, 43, 76
18, 70299, Note_on_c, 15, 43, 0
18, 70320, Note_on_c, 15, 41, 76
18, 70379, Note_on_c, 15, 41, 0
18, 70400, Note_on_c, 15, 40, 76
18, 70459, Note_on_c, 15, 40, 0
18, 70480, Note_on_c, 15, 38, 76
18, 70539, Note_on_c, 15, 38, 0
18, 70560, Note_on_c, 15, 36, 76
18, 70619, Note_on_c, 15, 36, 0
18, 70640, Note_on_c, 15, 35, 76
18, 70699, Note_on_c, 15, 35, 0
18, 70720, Note_on_c, 15, 33, 76
18, 70779, Note_on_c, 15, 33, 0
18, 70800, Note_on_c, 15, 32, 84
18, 70889, Note_on_c, 15, 32, 0
18, 70920, Note_on_c, 15, 32, 84
18, 71009, Note_on_c, 15, 32, 0
18, 71280, Program_c, 15, 45
18, 71520, Note_on_c, 15, 28, 44
18, 71759, Note_on_c, 15, 28, 0
18, 71760, Note_on_c, 15, 28, 44
18, 71879, Note_on_c, 15, 28, 0
18, 71880, Note_on_c, 15, 28, 44
18, 71999, Note_on_c, 15, 28, 0
18, 72000, Note_on_c, 15, 28, 44
18, 72239, Note_on_c, 15, 28, 0
18, 72240, Note_on_c, 15, 28, 44
18, 72479, Note_on_c, 15, 28, 0
18, 72480, Note_on_c, 15, 28, 44
18, 72719, Note_on_c, 15, 28, 0
18, 72720, Note_on_c, 15, 28, 44
18, 72839, Note_on_c, 15, 28, 0
18, 72840, Note_on_c, 15, 28, 44
18, 72959, Note_on_c, 15, 28, 0
18, 72960, Note_on_c, 15, 28, 44
18, 73199, Note_on_c, 15, 28, 0
18, 73200, Note_on_c, 15, 28, 44
18, 73439, Note_on_c, 15, 28, 0
18, 73440, Note_on_c, 15, 28, 44
18, 73679, Note_on_c, 15, 28, 0
18, 73680, Note_on_c, 15, 28, 44
18, 73799, Note_on_c, 15, 28, 0
18, 73800, Note_on_c, 15, 30, 44
18, 73919, Note_on_c, 15, 30, 0
18, 73920, Note_on_c, 15, 31, 44
18, 74159, Note_on_c, 15, 31, 0
18, 74160, Note_on_c, 15, 31, 44
18, 74399, Note_on_c, 15, 31, 0
18, 74400, Note_on_c, 15, 31, 44
18, 74639, Note_on_c, 15, 31, 0
18, 74640, Note_on_c, 15, 31, 44
18, 74759, Note_on_c, 15, 31, 0
18, 74760, Note_on_c, 15, 31, 44
18, 74879, Note_on_c, 15, 31, 0
18, 74880, Note_on_c, 15, 31, 44
18, 75119, Note_on_c, 15, 31, 0
18, 75360, Note_on_c, 15, 31, 44
18, 75599, Note_on_c, 15, 31, 0
18, 75600, Note_on_c, 15, 31, 44
18, 75719, Note_on_c, 15, 31, 0
18, 75720, Note_on_c, 15, 33, 44
18, 75839, Note_on_c, 15, 33, 0
18, 75840, Note_on_c, 15, 35, 44
18, 76079, Note_on_c, 15, 35, 0
18, 76080, Note_on_c, 15, 35, 44
18, 76319, Note_on_c, 15, 35, 0
18, 76320, Note_on_c, 15, 30, 44
18, 76559, Note_on_c, 15, 30, 0
18, 76560, Note_on_c, 15, 30, 44
18, 76679, Note_on_c, 15, 30, 0
18, 76680, Note_on_c, 15, 32, 44
18, 76799, Note_on_c, 15, 32, 0
18, 76800, Note_on_c, 15, 33, 44
18, 77039, Note_on_c, 15, 33, 0
18, 77040, Note_on_c, 15, 33, 44
18, 77279, Note_on_c, 15, 33, 0
18, 77280, Note_on_c, 15, 28, 44
18, 77519, Note_on_c, 15, 28, 0
18, 77520, Note_on_c, 15, 28, 44
18, 77639, Note_on_c, 15, 28, 0
18, 77640, Note_on_c, 15, 28, 44
18, 77759, Note_on_c, 15, 28, 0
18, 77760, Note_on_c, 15, 28, 44
18, 77999, Note_on_c, 15, 28, 0
18, 78000, Note_on_c, 15, 28, 44
18, 78239, Note_on_c, 15, 28, 0
18, 78240, Note_on_c, 15, 28, 44
18, 78479, Note_on_c, 15, 28, 0
18, 78480, Note_on_c, 15, 30, 44
18, 78599, Note_on_c, 15, 30, 0
18, 78600, Note_on_c, 15, 32, 44
18, 78719, Note_on_c, 15, 32, 0
18, 78720, Note_on_c, 15, 33, 44
18, 78959, Note_on_c, 15, 33, 0
18, 79200, Note_on_c, 15, 31, 44
18, 79439, Note_on_c, 15, 31, 0
18, 79440, Note_on_c, 15, 31, 44
18, 79559, Note_on_c, 15, 31, 0
18, 79560, Note_on_c, 15, 33, 44
18, 79679, Note_on_c, 15, 33, 0
18, 79680, Note_on_c, 15, 35, 44
18, 79919, Note_on_c, 15, 35, 0
18, 79920, Note_on_c, 15, 35, 44
18, 80159, Note_on_c, 15, 35, 0
18, 80160, Note_on_c, 15, 30, 44
18, 80399, Note_on_c, 15, 30, 0
18, 80400, Note_on_c, 15, 30, 44
18, 80519, Note_on_c, 15, 30, 0
18, 80520, Note_on_c, 15, 32, 44
18, 80639, Note_on_c, 15, 32, 0
18, 80640, Note_on_c, 15, 33, 44
18, 80879, Note_on_c, 15, 33, 0
18, 80880, Note_on_c, 15, 33, 44
18, 81119, Note_on_c, 15, 33, 0
18, 81120, Note_on_c, 15, 28, 44
18, 81359, Note_on_c, 15, 28, 0
18, 81360, Note_on_c, 15, 28, 44
18, 81479, Note_on_c, 15, 28, 0
18, 81480, Note_on_c, 15, 28, 44
18, 81599, Note_on_c, 15, 28, 0
18, 81600, Note_on_c, 15, 28, 44
18, 81839, Note_on_c, 15, 28, 0
18, 81840, Note_on_c, 15, 28, 44
18, 82079, Note_on_c, 15, 28, 0
18, 82080, Note_on_c, 15, 28, 44
18, 82319, Note_on_c, 15, 28, 0
18, 82320, Note_on_c, 15, 30, 44
18, 82439, Note_on_c, 15, 30, 0
18, 82440, Note_on_c, 15, 32, 44
18, 82559, Note_on_c, 15, 32, 0
18, 82560, Note_on_c, 15, 33, 44
18, 82799, Note_on_c, 15, 33, 0
18, 83040, Note_on_c, 15, 33, 44
18, 83279, Note_on_c, 15, 33, 0
18, 83280, Note_on_c, 15, 33, 44
18, 83399, Note_on_c, 15, 33, 0
18, 83400, Note_on_c, 15, 33, 44
18, 83519, Note_on_c, 15, 33, 0
18, 83520, Note_on_c, 15, 33, 44
18, 83759, Note_on_c, 15, 33, 0
18, 84000, Note_on_c, 15, 33, 44
18, 84239, Note_on_c, 15, 33, 0
18, 84240, Note_on_c, 15, 33, 44
18, 84359, Note_on_c, 15, 33, 0
18, 84360, Note_on_c, 15, 33, 44
18, 84479, Note_on_c, 15, 33, 0
18, 84480, Note_on_c, 15, 33, 44
18, 84719, Note_on_c, 15, 33, 0
18, 84960, Note_on_c, 15, 33, 44
18, 85079, Note_on_c, 15, 33, 0
18, 85080, Note_on_c, 15, 33, 45
18, 85199, Note_on_c, 15, 33, 0
18, 85200, Note_on_c, 15, 33, 46
18, 85319, Note_on_c, 15, 33, 0
18, 85440, Note_on_c, 15, 33, 48
18, 85559, Note_on_c, 15, 33, 0
18, 85560, Note_on_c, 15, 33, 49
18, 85679, Note_on_c, 15, 33, 0
18, 85680, Note_on_c, 15, 33, 50
18, 85799, Note_on_c, 15, 33, 0
18, 85920, Note_on_c, 15, 33, 52
18, 86039, Note_on_c, 15, 33, 0
18, 86040, Note_on_c, 15, 33, 53
18, 86159, Note_on_c, 15, 33, 0
18, 86160, Note_on_c, 15, 33, 54
18, 86279, Note_on_c, 15, 33, 0
18, 86640, Note_on_c, 15, 33, 52
18, 86759, Note_on_c, 15, 33, 0
18, 86760, Note_on_c, 15, 33, 50
18, 86879, Note_on_c, 15, 33, 0
18, 87120, Note_on_c, 15, 33, 44
18, 87239, Note_on_c, 15, 33, 0
18, 87240, Note_on_c, 15, 33, 42
18, 87359, Note_on_c, 15, 33, 0
18, 87600, Note_on_c, 15, 33, 40
18, 87719, Note_on_c, 15, 33, 0
18, 87720, Note_on_c, 15, 33, 40
18, 87839, Note_on_c, 15, 33, 0
18, 90960, Program_c, 15, 48
18, 91200, Note_on_c, 15, 45, 44
18, 91427, Note_on_c, 15, 45, 0
18, 91440, Note_on_c, 15, 45, 44
18, 91529, Note_on_c, 15, 45, 0
18, 91560, Note_on_c, 15, 47, 44
18, 91649, Note_on_c, 15, 47, 0
18, 91680, Note_on_c, 15, 48, 44
18, 91889, Note_on_c, 15, 48, 0
18, 91920, Note_on_c, 15, 48, 44
18, 92129, Note_on_c, 15, 48, 0
18, 92160, Note_on_c, 15, 47, 44
18, 92387, Note_on_c, 15, 47, 0
18, 92400, Note_on_c, 15, 47, 44
18, 92489, Note_on_c, 15, 47, 0
18, 92520, Note_on_c, 15, 49, 44
18, 92609, Note_on_c, 15, 49, 0
18, 92640, Note_on_c, 15, 50, 44
18, 92729, Note_on_c, 15, 50, 0
18, 92760, Note_on_c, 15, 48, 44
18, 92849, Note_on_c, 15, 48, 0
18, 92880, Note_on_c, 15, 47, 44
18, 92969, Note_on_c, 15, 47, 0
18, 93000, Note_on_c, 15, 45, 44
18, 93089, Note_on_c, 15, 45, 0
18, 93120, Note_on_c, 15, 43, 44
18, 93173, Note_on_c, 15, 43, 0
18, 93180, Note_on_c, 15, 45, 44
18, 93233, Note_on_c, 15, 45, 0
18, 93240, Note_on_c, 15, 47, 44
18, 93293, Note_on_c, 15, 47, 0
18, 93300, Note_on_c, 15, 45, 44
18, 93353, Note_on_c, 15, 45, 0
18, 93360, Note_on_c, 15, 43, 44
18, 93413, Note_on_c, 15, 43, 0
18, 93420, Note_on_c, 15, 45, 44
18, 93473, Note_on_c, 15, 45, 0
18, 93480, Note_on_c, 15, 43, 44
18, 93533, Note_on_c, 15, 43, 0
18, 93540, Note_on_c, 15, 42, 44
18, 93593, Note_on_c, 15, 42, 0
18, 93600, Note_on_c, 15, 40, 44
18, 93653, Note_on_c, 15, 40, 0
18, 93660, Note_on_c, 15, 42, 44
18, 93713, Note_on_c, 15, 42, 0
18, 93720, Note_on_c, 15, 43, 44
18, 93773, Note_on_c, 15, 43, 0
18, 93780, Note_on_c, 15, 45, 44
18, 93833, Note_on_c, 15, 45, 0
18, 93840, Note_on_c, 15, 47, 44
18, 93893, Note_on_c, 15, 47, 0
18, 93900, Note_on_c, 15, 49, 44
18, 93953, Note_on_c, 15, 49, 0
18, 93960, Note_on_c, 15, 51, 44
18, 94013, Note_on_c, 15, 51, 0
18, 94020, Note_on_c, 15, 52, 44
18, 94073, Note_on_c, 15, 52, 0
18, 94080, Note_on_c, 15, 52, 44
18, 94133, Note_on_c, 15, 52, 0
18, 94140, Note_on_c, 15, 45, 44
18, 94193, Note_on_c, 15, 45, 0
18, 94200, Note_on_c, 15, 47, 44
18, 94253, Note_on_c, 15, 47, 0
18, 94260, Note_on_c, 15, 49, 44
18, 94313, Note_on_c, 15, 49, 0
18, 94320, Note_on_c, 15, 50, 44
18, 94373, Note_on_c, 15, 50, 0
18, 94380, Note_on_c, 15, 47, 44
18, 94433, Note_on_c, 15, 47, 0
18, 94440, Note_on_c, 15, 52, 44
18, 94493, Note_on_c, 15, 52, 0
18, 94500, Note_on_c, 15, 50, 44
18, 94553, Note_on_c, 15, 50, 0
18, 94560, Note_on_c, 15, 48, 44
18, 94613, Note_on_c, 15, 48, 0
18, 94620, Note_on_c, 15, 47, 44
18, 94673, Note_on_c, 15, 47, 0
18, 94680, Note_on_c, 15, 48, 44
18, 94733, Note_on_c, 15, 48, 0
18, 94740, Note_on_c, 15, 50, 44
18, 94793, Note_on_c, 15, 50, 0
18, 94800, Note_on_c, 15, 52, 44
18, 94853, Note_on_c, 15, 52, 0
18, 94860, Note_on_c, 15, 40, 44
18, 94913, Note_on_c, 15, 40, 0
18, 94920, Note_on_c, 15, 42, 44
18, 94973, Note_on_c, 15, 42, 0
18, 94980, Note_on_c, 15, 44, 44
18, 95033, Note_on_c, 15, 44, 0
18, 95040, Note_on_c, 15, 45, 44
18, 95129, Note_on_c, 15, 45, 0
18, 95160, Note_on_c, 15, 43, 44
18, 95249, Note_on_c, 15, 43, 0
18, 95280, Note_on_c, 15, 42, 44
18, 95369, Note_on_c, 15, 42, 0
18, 95400, Note_on_c, 15, 40, 44
18, 95489, Note_on_c, 15, 40, 0
18, 95520, Note_on_c, 15, 42, 44
18, 95573, Note_on_c, 15, 42, 0
18, 95580, Note_on_c, 15, 42, 44
18, 95633, Note_on_c, 15, 42, 0
18, 95640, Note_on_c, 15, 43, 44
18, 95693, Note_on_c, 15, 43, 0
18, 95700, Note_on_c, 15, 45, 44
18, 95753, Note_on_c, 15, 45, 0
18, 95760, Note_on_c, 15, 38, 44
18, 95813, Note_on_c, 15, 38, 0
18, 95820, Note_on_c, 15, 38, 44
18, 95873, Note_on_c, 15, 38, 0
18, 95880, Note_on_c, 15, 40, 44
18, 95933, Note_on_c, 15, 40, 0
18, 95940, Note_on_c, 15, 42, 44
18, 95993, Note_on_c, 15, 42, 0
18, 96000, Note_on_c, 15, 43, 44
18, 96107, Note_on_c, 15, 43, 0
18, 96120, Note_on_c, 15, 41, 44
18, 96227, Note_on_c, 15, 41, 0
18, 96240, Note_on_c, 15, 40, 44
18, 96347, Note_on_c, 15, 40, 0
18, 96360, Note_on_c, 15, 38, 44
18, 96587, Note_on_c, 15, 38, 0
18, 96600, Note_on_c, 15, 36, 44
18, 96827, Note_on_c, 15, 36, 0
18, 96840, Note_on_c, 15, 43, 44
18, 97067, Note_on_c, 15, 43, 0
18, 97080, Note_on_c, 15, 36, 44
18, 97307, Note_on_c, 15, 36, 0
18, 97320, Note_on_c, 15, 48, 44
18, 97439, Note_on_c, 15, 48, 0
18, 98400, Note_on_c, 15, 50, 44
18, 98627, Note_on_c, 15, 50, 0
18, 98640, Note_on_c, 15, 50, 44
18, 98729, Note_on_c, 15, 50, 0
18, 98760, Note_on_c, 15, 52, 44
18, 98849, Note_on_c, 15, 52, 0
18, 98880, Note_on_c, 15, 53, 44
18, 99089, Note_on_c, 15, 53, 0
18, 99120, Note_on_c, 15, 53, 44
18, 99329, Note_on_c, 15, 53, 0
18, 99360, Note_on_c, 15, 41, 44
18, 99413, Note_on_c, 15, 41, 0
18, 99420, Note_on_c, 15, 40, 44
18, 99473, Note_on_c, 15, 40, 0
18, 99480, Note_on_c, 15, 43, 44
18, 99533, Note_on_c, 15, 43, 0
18, 99540, Note_on_c, 15, 41, 44
18, 99593, Note_on_c, 15, 41, 0
18, 99600, Note_on_c, 15, 40, 44
18, 99653, Note_on_c, 15, 40, 0
18, 99660, Note_on_c, 15, 43, 44
18, 99713, Note_on_c, 15, 43, 0
18, 99720, Note_on_c, 15, 41, 44
18, 99773, Note_on_c, 15, 41, 0
18, 99780, Note_on_c, 15, 40, 44
18, 99833, Note_on_c, 15, 40, 0
18, 99840, Note_on_c, 15, 38, 44
18, 99893, Note_on_c, 15, 38, 0
18, 99900, Note_on_c, 15, 40, 44
18, 99953, Note_on_c, 15, 40, 0
18, 99960, Note_on_c, 15, 41, 44
18, 100013, Note_on_c, 15, 41, 0
18, 100020, Note_on_c, 15, 43, 44
18, 100073, Note_on_c, 15, 43, 0
18, 100080, Note_on_c, 15, 45, 44
18, 100133, Note_on_c, 15, 45, 0
18, 100140, Note_on_c, 15, 47, 44
18, 100193, Note_on_c, 15, 47, 0
18, 100200, Note_on_c, 15, 49, 44
18, 100253, Note_on_c, 15, 49, 0
18, 100260, Note_on_c, 15, 50, 44
18, 100313, Note_on_c, 15, 50, 0
18, 100320, Note_on_c, 15, 50, 44
18, 100373, Note_on_c, 15, 50, 0
18, 100380, Note_on_c, 15, 38, 45
18, 100433, Note_on_c, 15, 38, 0
18, 100440, Note_on_c, 15, 38, 46
18, 100493, Note_on_c, 15, 38, 0
18, 100500, Note_on_c, 15, 38, 47
18, 100553, Note_on_c, 15, 38, 0
18, 100560, Note_on_c, 15, 38, 49
18, 100613, Note_on_c, 15, 38, 0
18, 100620, Note_on_c, 15, 38, 50
18, 100673, Note_on_c, 15, 38, 0
18, 100680, Note_on_c, 15, 38, 51
18, 100733, Note_on_c, 15, 38, 0
18, 100740, Note_on_c, 15, 38, 52
18, 100793, Note_on_c, 15, 38, 0
18, 100800, Note_on_c, 15, 38, 54
18, 100853, Note_on_c, 15, 38, 0
18, 100860, Note_on_c, 15, 38, 55
18, 100913, Note_on_c, 15, 38, 0
18, 100920, Note_on_c, 15, 38, 56
18, 100973, Note_on_c, 15, 38, 0
18, 100980, Note_on_c, 15, 38, 57
18, 101033, Note_on_c, 15, 38, 0
18, 101040, Note_on_c, 15, 38, 59
18, 101093, Note_on_c, 15, 38, 0
18, 101100, Note_on_c, 15, 38, 60
18, 101153, Note_on_c, 15, 38, 0
18, 101160, Note_on_c, 15, 38, 61
18, 101213, Note_on_c, 15, 38, 0
18, 101220, Note_on_c, 15, 38, 62
18, 101273, Note_on_c, 15, 38, 0
18, 101280, Note_on_c, 15, 38, 64
18, 101333, Note_on_c, 15, 38, 0
18, 101340, Note_on_c, 15, 38, 65
18, 101393, Note_on_c, 15, 38, 0
18, 101400, Note_on_c, 15, 38, 66
18, 101453, Note_on_c, 15, 38, 0
18, 101460, Note_on_c, 15, 38, 67
18, 101513, Note_on_c, 15, 38, 0
18, 101520, Note_on_c, 15, 38, 69
18, 101573, Note_on_c, 15, 38, 0
18, 101580, Note_on_c, 15, 38, 70
18, 101633, Note_on_c, 15, 38, 0
18, 101640, Note_on_c, 15, 38, 71
18, 101693, Note_on_c, 15, 38, 0
18, 101700, Note_on_c, 15, 38, 72
18, 101753, Note_on_c, 15, 38, 0
18, 101760, Note_on_c, 15, 38, 74
18, 101813, Note_on_c, 15, 38, 0
18, 101820, Note_on_c, 15, 38, 75
18, 101873, Note_on_c, 15, 38, 0
18, 101880, Note_on_c, 15, 38, 76
18, 101933, Note_on_c, 15, 38, 0
18, 101940, Note_on_c, 15, 38, 77
18, 101993, Note_on_c, 15, 38, 0
18, 102000, Note_on_c, 15, 38, 79
18, 102053, Note_on_c, 15, 38, 0
18, 102060, Note_on_c, 15, 38, 80
18, 102113, Note_on_c, 15, 38, 0
18, 102120, Note_on_c, 15, 36, 81
18, 102173, Note_on_c, 15, 36, 0
18, 102180, Note_on_c, 15, 35, 82
18, 102233, Note_on_c, 15, 35, 0
18, 102240, Note_on_c, 15, 33, 84
18, 102467, Note_on_c, 15, 33, 0
18, 102480, Note_on_c, 15, 33, 84
18, 102569, Note_on_c, 15, 33, 0
18, 102600, Note_on_c, 15, 33, 84
18, 102689, Note_on_c, 15, 33, 0
18, 102720, Note_on_c, 15, 32, 84
18, 102929, Note_on_c, 15, 32, 0
18, 102960, Note_on_c, 15, 32, 84
18, 103169, Note_on_c, 15, 32, 0
18, 103200, Note_on_c, 15, 28, 84
18, 103427, Note_on_c, 15, 28, 0
18, 103440, Note_on_c, 15, 28, 84
18, 103529, Note_on_c, 15, 28, 0
18, 103560, Note_on_c, 15, 28, 84
18, 103649, Note_on_c, 15, 28, 0
18, 103680, Note_on_c, 15, 33, 84
18, 103889, Note_on_c, 15, 33, 0
18, 103920, Note_on_c, 15, 33, 84
18, 104129, Note_on_c, 15, 33, 0
18, 104160, Note_on_c, 15, 33, 84
18, 104387, Note_on_c, 15, 33, 0
18, 104400, Note_on_c, 15, 33, 84
18, 104489, Note_on_c, 15, 33, 0
18, 104520, Note_on_c, 15, 33, 84
18, 104609, Note_on_c, 15, 33, 0
18, 104640, Note_on_c, 15, 32, 84
18, 104849, Note_on_c, 15, 32, 0
18, 104880, Note_on_c, 15, 33, 84
18, 105089, Note_on_c, 15, 33, 0
18, 105120, Note_on_c, 15, 28, 84
18, 105347, Note_on_c, 15, 28, 0
18, 105360, Note_on_c, 15, 40, 84
18, 105449, Note_on_c, 15, 40, 0
18, 105480, Note_on_c, 15, 40, 84
18, 105569, Note_on_c, 15, 40, 0
18, 105600, Note_on_c, 15, 33, 84
18, 105839, Note_on_c, 15, 33, 0
18, 106800, Program_c, 15, 45
18, 107040, Note_on_c, 15, 28, 44
18, 107279, Note_on_c, 15, 28, 0
18, 107280, Note_on_c, 15, 30, 44
18, 107399, Note_on_c, 15, 30, 0
18, 107400, Note_on_c, 15, 32, 44
18, 107519, Note_on_c, 15, 32, 0
18, 107520, Note_on_c, 15, 33, 44
18, 107759, Note_on_c, 15, 33, 0
18, 107760, Note_on_c, 15, 45, 44
18, 107879, Note_on_c, 15, 45, 0
18, 107880, Note_on_c, 15, 45, 44
18, 107999, Note_on_c, 15, 45, 0
18, 108000, Note_on_c, 15, 33, 44
18, 108239, Note_on_c, 15, 33, 0
18, 108240, Note_on_c, 15, 45, 44
18, 108359, Note_on_c, 15, 45, 0
18, 108360, Note_on_c, 15, 45, 44
18, 108479, Note_on_c, 15, 45, 0
18, 108480, Note_on_c, 15, 33, 44
18, 108719, Note_on_c, 15, 33, 0
18, 108720, Note_on_c, 15, 45, 44
18, 108839, Note_on_c, 15, 45, 0
18, 108840, Note_on_c, 15, 45, 45
18, 108959, Note_on_c, 15, 45, 0
18, 108960, Note_on_c, 15, 33, 46
18, 109199, Note_on_c, 15, 33, 0
18, 109200, Note_on_c, 15, 45, 48
18, 109319, Note_on_c, 15, 45, 0
18, 109320, Note_on_c, 15, 45, 50
18, 109439, Note_on_c, 15, 45, 0
18, 109440, Note_on_c, 15, 33, 51
18, 109679, Note_on_c, 15, 33, 0
18, 109680, Note_on_c, 15, 45, 53
18, 109799, Note_on_c, 15, 45, 0
18, 109800, Note_on_c, 15, 45, 54
18, 109919, Note_on_c, 15, 45, 0
18, 109920, Note_on_c, 15, 33, 56
18, 110159, Note_on_c, 15, 33, 0
18, 110160, Note_on_c, 15, 45, 56
18, 110279, Note_on_c, 15, 45, 0
18, 110280, Note_on_c, 15, 45, 55
18, 110399, Note_on_c, 15, 45, 0
18, 110400, Note_on_c, 15, 33, 54
18, 110639, Note_on_c, 15, 33, 0
18, 110640, Note_on_c, 15, 45, 51
18, 110759, Note_on_c, 15, 45, 0
18, 110760, Note_on_c, 15, 45, 50
18, 110879, Note_on_c, 15, 45, 0
18, 110880, Note_on_c, 15, 33, 48
18, 111119, Note_on_c, 15, 33, 0
18, 111120, Note_on_c, 15, 45, 46
18, 111239, Note_on_c, 15, 45, 0
18, 111240, Note_on_c, 15, 45, 44
18, 111359, Note_on_c, 15, 45, 0
18, 111360, Note_on_c, 15, 33, 44
18, 111599, Note_on_c, 15, 33, 0
18, 111600, Note_on_c, 15, 45, 44
18, 111719, Note_on_c, 15, 45, 0
18, 111720, Note_on_c, 15, 45, 44
18, 111839, Note_on_c, 15, 45, 0
18, 111840, Note_on_c, 15, 33, 45
18, 112079, Note_on_c, 15, 33, 0
18, 112080, Note_on_c, 15, 45, 47
18, 112199, Note_on_c, 15, 45, 0
18, 112200, Note_on_c, 15, 45, 48
18, 112319, Note_on_c, 15, 45, 0
18, 112320, Note_on_c, 15, 33, 49
18, 112559, Note_on_c, 15, 33, 0
18, 112560, Note_on_c, 15, 45, 50
18, 112679, Note_on_c, 15, 45, 0
18, 112680, Note_on_c, 15, 45, 51
18, 112799, Note_on_c, 15, 45, 0
18, 112800, Note_on_c, 15, 33, 52
18, 113039, Note_on_c, 15, 33, 0
18, 113040, Note_on_c, 15, 45, 54
18, 113159, Note_on_c, 15, 45, 0
18, 113160, Note_on_c, 15, 45, 55
18, 113279, Note_on_c, 15, 45, 0
18, 113280, Note_on_c, 15, 33, 56
18, 113519, Note_on_c, 15, 33, 0
18, 113520, Note_on_c, 15, 45, 54
18, 113639, Note_on_c, 15, 45, 0
18, 113640, Note_on_c, 15, 45, 53
18, 113759, Note_on_c, 15, 45, 0
18, 113760, Note_on_c, 15, 33, 52
18, 113999, Note_on_c, 15, 33, 0
18, 114000, Note_on_c, 15, 45, 50
18, 114119, Note_on_c, 15, 45, 0
18, 114120, Note_on_c, 15, 45, 49
18, 114239, Note_on_c, 15, 45, 0
18, 114240, Note_on_c, 15, 33, 48
18, 114479, Note_on_c, 15, 33, 0
18, 114480, Note_on_c, 15, 45, 46
18, 114599, Note_on_c, 15, 45, 0
18, 114600, Note_on_c, 15, 45, 45
18, 114719, Note_on_c, 15, 45, 0
18, 114720, Note_on_c, 15, 33, 44
18, 114959, Note_on_c, 15, 33, 0
18, 114960, Note_on_c, 15, 45, 44
18, 115079, Note_on_c, 15, 45, 0
18, 115080, Note_on_c, 15, 45, 43
18, 115199, Note_on_c, 15, 45, 0
18, 115200, Note_on_c, 15, 33, 43
18, 115439, Note_on_c, 15, 33, 0
18, 115440, Note_on_c, 15, 45, 42
18, 115559, Note_on_c, 15, 45, 0
18, 115560, Note_on_c, 15, 45, 42
18, 115679, Note_on_c, 15, 45, 0
18, 115680, Note_on_c, 15, 33, 42
18, 115919, Note_on_c, 15, 33, 0
18, 115920, Note_on_c, 15, 45, 41
18, 116039, Note_on_c, 15, 45, 0
18, 116040, Note_on_c, 15, 45, 41
18, 116147, Note_on_c, 15, 45, 0
18, 116158, Program_c, 15, 48
18, 116160, Note_on_c, 15, 45, 44
18, 116639, Note_on_c, 15, 45, 0
18, 116640, Note_on_c, 15, 41, 44
18, 117119, Note_on_c, 15, 41, 0
18, 117120, Note_on_c, 15, 40, 44
18, 117599, Note_on_c, 15, 40, 0
18, 117600, Note_on_c, 15, 38, 44
18, 118067, Note_on_c, 15, 38, 0
18, 118080, Note_on_c, 15, 31, 84
18, 118199, Note_on_c, 15, 31, 0
18, 118320, Note_on_c, 15, 43, 84
18, 118439, Note_on_c, 15, 43, 0
18, 118560, Note_on_c, 15, 36, 84
18, 118799, Note_on_c, 15, 36, 0
18, 119040, Note_on_c, 15, 40, 52
18, 119273, Note_on_c, 15, 40, 0
18, 119280, Note_on_c, 15, 40, 52
18, 119369, Note_on_c, 15, 40, 0
18, 119400, Note_on_c, 15, 40, 52
18, 119489, Note_on_c, 15, 40, 0
18, 119520, Note_on_c, 15, 33, 52
18, 119639, Note_on_c, 15, 33, 0
18, 120000, Note_on_c, 15, 31, 84
18, 120119, Note_on_c, 15, 31, 0
18, 120240, Note_on_c, 15, 43, 84
18, 120359, Note_on_c, 15, 43, 0
18, 120480, Note_on_c, 15, 36, 84
18, 120719, Note_on_c, 15, 36, 0
18, 120960, Note_on_c, 15, 40, 52
18, 121193, Note_on_c, 15, 40, 0
18, 121200, Note_on_c, 15, 40, 52
18, 121289, Note_on_c, 15, 40, 0
18, 121320, Note_on_c, 15, 40, 52
18, 121409, Note_on_c, 15, 40, 0
18, 121920, Program_c, 15, 45
18, 122160, Note_on_c, 15, 33, 44
18, 122399, Note_on_c, 15, 33, 0
18, 122640, Note_on_c, 15, 40, 44
18, 122879, Note_on_c, 15, 40, 0
18, 123120, Note_on_c, 15, 40, 44
18, 123359, Note_on_c, 15, 40, 0
18, 123600, Note_on_c, 15, 45, 44
18, 123839, Note_on_c, 15, 45, 0
18, 124080, Note_on_c, 15, 45, 44
18, 124319, Note_on_c, 15, 45, 0
18, 124560, Note_on_c, 15, 43, 44
18, 124799, Note_on_c, 15, 43, 0
18, 124800, Note_on_c, 15, 31, 44
18, 125039, Note_on_c, 15, 31, 0
18, 125040, Note_on_c, 15, 31, 44
18, 125159, Note_on_c, 15, 31, 0
18, 125160, Note_on_c, 15, 31, 44
18, 125279, Note_on_c, 15, 31, 0
18, 125280, Note_on_c, 15, 31, 44
18, 125519, Note_on_c, 15, 31, 0
18, 126000, Note_on_c, 15, 48, 44
18, 126239, Note_on_c, 15, 48, 0
18, 126480, Note_on_c, 15, 47, 44
18, 126719, Note_on_c, 15, 47, 0
18, 126960, Note_on_c, 15, 52, 44
18, 127199, Note_on_c, 15, 52, 0
18, 127440, Note_on_c, 15, 45, 44
18, 127679, Note_on_c, 15, 45, 0
18, 127920, Note_on_c, 15, 45, 44
18, 128159, Note_on_c, 15, 45, 0
18, 128160, Note_on_c, 15, 44, 44
18, 128399, Note_on_c, 15, 44, 0
18, 128400, Note_on_c, 15, 45, 44
18, 128639, Note_on_c, 15, 45, 0
18, 128640, Note_on_c, 15, 28, 44
18, 128879, Note_on_c, 15, 28, 0
18, 128880, Note_on_c, 15, 30, 44
18, 128999, Note_on_c, 15, 30, 0
18, 129000, Note_on_c, 15, 32, 44
18, 129119, Note_on_c, 15, 32, 0
18, 129120, Note_on_c, 15, 33, 44
18, 129359, Note_on_c, 15, 33, 0
18, 130560, Note_on_c, 15, 28, 44
18, 130799, Note_on_c, 15, 28, 0
18, 130800, Note_on_c, 15, 30, 44
18, 130919, Note_on_c, 15, 30, 0
18, 130920, Note_on_c, 15, 32, 44
18, 131039, Note_on_c, 15, 32, 0
18, 131040, Note_on_c, 15, 33, 44
18, 131279, Note_on_c, 15, 33, 0
18, 131520, Note_on_c, 15, 33, 44
18, 131747, Note_on_c, 15, 33, 0
18, 131758, Program_c, 15, 48
18, 132000, Note_on_c, 15, 33, 76
18, 132239, Note_on_c, 15, 33, 0
18, 132239, End_track
19, 0, Start_track
19, 0, Title_t, "Ludwig van Beethoven - Symphony No. 7 in A Major, Op.92 - 2. Allegretto"
19, 0, MIDI_port, 0
19, 0, End_track
0, 0, End_of_file
